<?xml version='1.0' encoding='ASCII' standalone='yes'?>
<svg xmlns="http://www.w3.org/2000/svg" xmlns:rdkit="http://www.rdkit.org/xml" xmlns:xlink="http://www.w3.org/1999/xlink" version="1.1" baseProfile="full" xml:space="preserve" width="353px" height="200px" viewBox="0 0 353 200">
<!-- END OF HEADER -->
<rect style="opacity:1.0;fill:#FFFFFF;stroke:none" width="353" height="200" x="0" y="0"> </rect>
<path class="bond-0" d="M 26.9535,107.89 L 34.5614,109.526" style="fill:none;fill-rule:evenodd;stroke:#0000FF;stroke-width:2.0px;stroke-linecap:butt;stroke-linejoin:miter;stroke-opacity:1"/>
<path class="bond-0" d="M 34.5614,109.526 L 42.1692,111.162" style="fill:none;fill-rule:evenodd;stroke:#000000;stroke-width:2.0px;stroke-linecap:butt;stroke-linejoin:miter;stroke-opacity:1"/>
<path class="bond-1" d="M 40.4559,111.714 L 42.7291,118.767" style="fill:none;fill-rule:evenodd;stroke:#000000;stroke-width:2.0px;stroke-linecap:butt;stroke-linejoin:miter;stroke-opacity:1"/>
<path class="bond-1" d="M 42.7291,118.767 L 45.0022,125.819" style="fill:none;fill-rule:evenodd;stroke:#FF0000;stroke-width:2.0px;stroke-linecap:butt;stroke-linejoin:miter;stroke-opacity:1"/>
<path class="bond-1" d="M 43.8826,110.609 L 46.1558,117.662" style="fill:none;fill-rule:evenodd;stroke:#000000;stroke-width:2.0px;stroke-linecap:butt;stroke-linejoin:miter;stroke-opacity:1"/>
<path class="bond-1" d="M 46.1558,117.662 L 48.4289,124.715" style="fill:none;fill-rule:evenodd;stroke:#FF0000;stroke-width:2.0px;stroke-linecap:butt;stroke-linejoin:miter;stroke-opacity:1"/>
<path class="bond-2" d="M 42.1692,111.162 L 54.2462,97.8124" style="fill:none;fill-rule:evenodd;stroke:#000000;stroke-width:2.0px;stroke-linecap:butt;stroke-linejoin:miter;stroke-opacity:1"/>
<path class="bond-3" d="M 54.2462,97.8124 L 48.7239,80.6789" style="fill:none;fill-rule:evenodd;stroke:#000000;stroke-width:2.0px;stroke-linecap:butt;stroke-linejoin:miter;stroke-opacity:1"/>
<path class="bond-3" d="M 56.8445,94.138 L 52.979,82.1445" style="fill:none;fill-rule:evenodd;stroke:#000000;stroke-width:2.0px;stroke-linecap:butt;stroke-linejoin:miter;stroke-opacity:1"/>
<path class="bond-43" d="M 54.2462,97.8124 L 71.8453,101.597" style="fill:none;fill-rule:evenodd;stroke:#000000;stroke-width:2.0px;stroke-linecap:butt;stroke-linejoin:miter;stroke-opacity:1"/>
<path class="bond-4" d="M 48.7239,80.6789 L 60.8008,67.3298" style="fill:none;fill-rule:evenodd;stroke:#000000;stroke-width:2.0px;stroke-linecap:butt;stroke-linejoin:miter;stroke-opacity:1"/>
<path class="bond-5" d="M 60.8008,67.3298 L 78.4,71.1141" style="fill:none;fill-rule:evenodd;stroke:#000000;stroke-width:2.0px;stroke-linecap:butt;stroke-linejoin:miter;stroke-opacity:1"/>
<path class="bond-5" d="M 62.6838,71.4173 L 75.0033,74.0663" style="fill:none;fill-rule:evenodd;stroke:#000000;stroke-width:2.0px;stroke-linecap:butt;stroke-linejoin:miter;stroke-opacity:1"/>
<path class="bond-6" d="M 78.4,71.1141 L 80.6778,78.1814" style="fill:none;fill-rule:evenodd;stroke:#000000;stroke-width:2.0px;stroke-linecap:butt;stroke-linejoin:miter;stroke-opacity:1"/>
<path class="bond-6" d="M 80.6778,78.1814 L 82.9556,85.2486" style="fill:none;fill-rule:evenodd;stroke:#0000FF;stroke-width:2.0px;stroke-linecap:butt;stroke-linejoin:miter;stroke-opacity:1"/>
<path class="bond-7" d="M 86.3056,88.7601 L 93.9135,90.3961" style="fill:none;fill-rule:evenodd;stroke:#0000FF;stroke-width:2.0px;stroke-linecap:butt;stroke-linejoin:miter;stroke-opacity:1"/>
<path class="bond-7" d="M 93.9135,90.3961 L 101.521,92.032" style="fill:none;fill-rule:evenodd;stroke:#000000;stroke-width:2.0px;stroke-linecap:butt;stroke-linejoin:miter;stroke-opacity:1"/>
<path class="bond-42" d="M 81.5388,90.8821 L 76.6921,96.2394" style="fill:none;fill-rule:evenodd;stroke:#0000FF;stroke-width:2.0px;stroke-linecap:butt;stroke-linejoin:miter;stroke-opacity:1"/>
<path class="bond-42" d="M 76.6921,96.2394 L 71.8453,101.597" style="fill:none;fill-rule:evenodd;stroke:#000000;stroke-width:2.0px;stroke-linecap:butt;stroke-linejoin:miter;stroke-opacity:1"/>
<path class="bond-42" d="M 77.415,90.0739 L 74.0222,93.8241" style="fill:none;fill-rule:evenodd;stroke:#0000FF;stroke-width:2.0px;stroke-linecap:butt;stroke-linejoin:miter;stroke-opacity:1"/>
<path class="bond-42" d="M 74.0222,93.8241 L 70.6295,97.5742" style="fill:none;fill-rule:evenodd;stroke:#000000;stroke-width:2.0px;stroke-linecap:butt;stroke-linejoin:miter;stroke-opacity:1"/>
<path class="bond-8" d="M 101.521,92.032 L 106.829,87.2754" style="fill:none;fill-rule:evenodd;stroke:#000000;stroke-width:2.0px;stroke-linecap:butt;stroke-linejoin:miter;stroke-opacity:1"/>
<path class="bond-8" d="M 106.829,87.2754 L 112.137,82.5188" style="fill:none;fill-rule:evenodd;stroke:#FF0000;stroke-width:2.0px;stroke-linecap:butt;stroke-linejoin:miter;stroke-opacity:1"/>
<path class="bond-44" d="M 101.521,92.032 L 108.804,108.494" style="fill:none;fill-rule:evenodd;stroke:#000000;stroke-width:2.0px;stroke-linecap:butt;stroke-linejoin:miter;stroke-opacity:1"/>
<path class="bond-9" d="M 117.718,81.6381 L 124.107,85.347" style="fill:none;fill-rule:evenodd;stroke:#FF0000;stroke-width:2.0px;stroke-linecap:butt;stroke-linejoin:miter;stroke-opacity:1"/>
<path class="bond-9" d="M 124.107,85.347 L 130.496,89.0559" style="fill:none;fill-rule:evenodd;stroke:#000000;stroke-width:2.0px;stroke-linecap:butt;stroke-linejoin:miter;stroke-opacity:1"/>
<path class="bond-10" d="M 130.496,89.0559 L 146.958,81.773" style="fill:none;fill-rule:evenodd;stroke:#000000;stroke-width:2.0px;stroke-linecap:butt;stroke-linejoin:miter;stroke-opacity:1"/>
<path class="bond-38" d="M 130.496,89.0559 L 126.712,106.655" style="fill:none;fill-rule:evenodd;stroke:#000000;stroke-width:2.0px;stroke-linecap:butt;stroke-linejoin:miter;stroke-opacity:1"/>
<path class="bond-11" d="M 146.958,81.773 L 147.753,74.3774" style="fill:none;fill-rule:evenodd;stroke:#000000;stroke-width:2.0px;stroke-linecap:butt;stroke-linejoin:miter;stroke-opacity:1"/>
<path class="bond-11" d="M 147.753,74.3774 L 148.548,66.9817" style="fill:none;fill-rule:evenodd;stroke:#FF0000;stroke-width:2.0px;stroke-linecap:butt;stroke-linejoin:miter;stroke-opacity:1"/>
<path class="bond-12" d="M 151.673,62.6403 L 157.508,60.0587" style="fill:none;fill-rule:evenodd;stroke:#FF0000;stroke-width:2.0px;stroke-linecap:butt;stroke-linejoin:miter;stroke-opacity:1"/>
<path class="bond-12" d="M 157.508,60.0587 L 163.344,57.477" style="fill:none;fill-rule:evenodd;stroke:#FF7F00;stroke-width:2.0px;stroke-linecap:butt;stroke-linejoin:miter;stroke-opacity:1"/>
<path class="bond-13" d="M 165.664,52.8644 L 163.355,47.6453" style="fill:none;fill-rule:evenodd;stroke:#FF7F00;stroke-width:2.0px;stroke-linecap:butt;stroke-linejoin:miter;stroke-opacity:1"/>
<path class="bond-13" d="M 163.355,47.6453 L 161.046,42.4261" style="fill:none;fill-rule:evenodd;stroke:#FF0000;stroke-width:2.0px;stroke-linecap:butt;stroke-linejoin:miter;stroke-opacity:1"/>
<path class="bond-13" d="M 162.372,54.321 L 160.063,49.1019" style="fill:none;fill-rule:evenodd;stroke:#FF7F00;stroke-width:2.0px;stroke-linecap:butt;stroke-linejoin:miter;stroke-opacity:1"/>
<path class="bond-13" d="M 160.063,49.1019 L 157.754,43.8827" style="fill:none;fill-rule:evenodd;stroke:#FF0000;stroke-width:2.0px;stroke-linecap:butt;stroke-linejoin:miter;stroke-opacity:1"/>
<path class="bond-14" d="M 166.671,59.5908 L 168.998,64.8495" style="fill:none;fill-rule:evenodd;stroke:#FF7F00;stroke-width:2.0px;stroke-linecap:butt;stroke-linejoin:miter;stroke-opacity:1"/>
<path class="bond-14" d="M 168.998,64.8495 L 171.324,70.1083" style="fill:none;fill-rule:evenodd;stroke:#FF0000;stroke-width:2.0px;stroke-linecap:butt;stroke-linejoin:miter;stroke-opacity:1"/>
<path class="bond-15" d="M 167.422,55.6727 L 173.248,53.0954" style="fill:none;fill-rule:evenodd;stroke:#FF7F00;stroke-width:2.0px;stroke-linecap:butt;stroke-linejoin:miter;stroke-opacity:1"/>
<path class="bond-15" d="M 173.248,53.0954 L 179.074,50.5181" style="fill:none;fill-rule:evenodd;stroke:#FF0000;stroke-width:2.0px;stroke-linecap:butt;stroke-linejoin:miter;stroke-opacity:1"/>
<path class="bond-16" d="M 184.597,51.3461 L 189.476,54.9083" style="fill:none;fill-rule:evenodd;stroke:#FF0000;stroke-width:2.0px;stroke-linecap:butt;stroke-linejoin:miter;stroke-opacity:1"/>
<path class="bond-16" d="M 189.476,54.9083 L 194.354,58.4705" style="fill:none;fill-rule:evenodd;stroke:#FF7F00;stroke-width:2.0px;stroke-linecap:butt;stroke-linejoin:miter;stroke-opacity:1"/>
<path class="bond-17" d="M 192.814,61.7078 L 189.619,66.0845" style="fill:none;fill-rule:evenodd;stroke:#FF7F00;stroke-width:2.0px;stroke-linecap:butt;stroke-linejoin:miter;stroke-opacity:1"/>
<path class="bond-17" d="M 189.619,66.0845 L 186.423,70.4613" style="fill:none;fill-rule:evenodd;stroke:#FF0000;stroke-width:2.0px;stroke-linecap:butt;stroke-linejoin:miter;stroke-opacity:1"/>
<path class="bond-17" d="M 195.722,63.8308 L 192.526,68.2076" style="fill:none;fill-rule:evenodd;stroke:#FF7F00;stroke-width:2.0px;stroke-linecap:butt;stroke-linejoin:miter;stroke-opacity:1"/>
<path class="bond-17" d="M 192.526,68.2076 L 189.33,72.5844" style="fill:none;fill-rule:evenodd;stroke:#FF0000;stroke-width:2.0px;stroke-linecap:butt;stroke-linejoin:miter;stroke-opacity:1"/>
<path class="bond-18" d="M 198.423,57.0792 L 201.59,52.742" style="fill:none;fill-rule:evenodd;stroke:#FF7F00;stroke-width:2.0px;stroke-linecap:butt;stroke-linejoin:miter;stroke-opacity:1"/>
<path class="bond-18" d="M 201.59,52.742 L 204.757,48.4048" style="fill:none;fill-rule:evenodd;stroke:#FF0000;stroke-width:2.0px;stroke-linecap:butt;stroke-linejoin:miter;stroke-opacity:1"/>
<path class="bond-19" d="M 198.423,61.441 L 203.29,64.9951" style="fill:none;fill-rule:evenodd;stroke:#FF7F00;stroke-width:2.0px;stroke-linecap:butt;stroke-linejoin:miter;stroke-opacity:1"/>
<path class="bond-19" d="M 203.29,64.9951 L 208.158,68.5493" style="fill:none;fill-rule:evenodd;stroke:#FF0000;stroke-width:2.0px;stroke-linecap:butt;stroke-linejoin:miter;stroke-opacity:1"/>
<path class="bond-20" d="M 210.55,73.6467 L 209.755,81.0423" style="fill:none;fill-rule:evenodd;stroke:#FF0000;stroke-width:2.0px;stroke-linecap:butt;stroke-linejoin:miter;stroke-opacity:1"/>
<path class="bond-20" d="M 209.755,81.0423 L 208.96,88.4379" style="fill:none;fill-rule:evenodd;stroke:#000000;stroke-width:2.0px;stroke-linecap:butt;stroke-linejoin:miter;stroke-opacity:1"/>
<path class="bond-21" d="M 208.96,88.4379 L 223.498,99.0533" style="fill:none;fill-rule:evenodd;stroke:#000000;stroke-width:2.0px;stroke-linecap:butt;stroke-linejoin:miter;stroke-opacity:1"/>
<path class="bond-22" d="M 223.498,99.0533 L 230.67,96.7419" style="fill:none;fill-rule:evenodd;stroke:#000000;stroke-width:2.0px;stroke-linecap:butt;stroke-linejoin:miter;stroke-opacity:1"/>
<path class="bond-22" d="M 230.67,96.7419 L 237.842,94.4304" style="fill:none;fill-rule:evenodd;stroke:#FF0000;stroke-width:2.0px;stroke-linecap:butt;stroke-linejoin:miter;stroke-opacity:1"/>
<path class="bond-45" d="M 223.498,99.0533 L 223.456,117.055" style="fill:none;fill-rule:evenodd;stroke:#000000;stroke-width:2.0px;stroke-linecap:butt;stroke-linejoin:miter;stroke-opacity:1"/>
<path class="bond-23" d="M 242.878,96.6381 L 247.028,102.379" style="fill:none;fill-rule:evenodd;stroke:#FF0000;stroke-width:2.0px;stroke-linecap:butt;stroke-linejoin:miter;stroke-opacity:1"/>
<path class="bond-23" d="M 247.028,102.379 L 251.178,108.12" style="fill:none;fill-rule:evenodd;stroke:#000000;stroke-width:2.0px;stroke-linecap:butt;stroke-linejoin:miter;stroke-opacity:1"/>
<path class="bond-24" d="M 251.178,108.12 L 258.987,108.138" style="fill:none;fill-rule:evenodd;stroke:#000000;stroke-width:2.0px;stroke-linecap:butt;stroke-linejoin:miter;stroke-opacity:1"/>
<path class="bond-24" d="M 258.987,108.138 L 266.796,108.156" style="fill:none;fill-rule:evenodd;stroke:#0000FF;stroke-width:2.0px;stroke-linecap:butt;stroke-linejoin:miter;stroke-opacity:1"/>
<path class="bond-34" d="M 251.178,108.12 L 240.563,122.658" style="fill:none;fill-rule:evenodd;stroke:#000000;stroke-width:2.0px;stroke-linecap:butt;stroke-linejoin:miter;stroke-opacity:1"/>
<path class="bond-25" d="M 271.348,111.161 L 275.537,116.956" style="fill:none;fill-rule:evenodd;stroke:#0000FF;stroke-width:2.0px;stroke-linecap:butt;stroke-linejoin:miter;stroke-opacity:1"/>
<path class="bond-25" d="M 275.537,116.956 L 279.726,122.751" style="fill:none;fill-rule:evenodd;stroke:#000000;stroke-width:2.0px;stroke-linecap:butt;stroke-linejoin:miter;stroke-opacity:1"/>
<path class="bond-46" d="M 271.369,105.163 L 275.582,99.3934" style="fill:none;fill-rule:evenodd;stroke:#0000FF;stroke-width:2.0px;stroke-linecap:butt;stroke-linejoin:miter;stroke-opacity:1"/>
<path class="bond-46" d="M 275.582,99.3934 L 279.795,93.6237" style="fill:none;fill-rule:evenodd;stroke:#000000;stroke-width:2.0px;stroke-linecap:butt;stroke-linejoin:miter;stroke-opacity:1"/>
<path class="bond-26" d="M 279.726,122.751 L 287.101,120.374" style="fill:none;fill-rule:evenodd;stroke:#000000;stroke-width:2.0px;stroke-linecap:butt;stroke-linejoin:miter;stroke-opacity:1"/>
<path class="bond-26" d="M 287.101,120.374 L 294.476,117.997" style="fill:none;fill-rule:evenodd;stroke:#0000FF;stroke-width:2.0px;stroke-linecap:butt;stroke-linejoin:miter;stroke-opacity:1"/>
<path class="bond-26" d="M 280.834,118.611 L 285.997,116.947" style="fill:none;fill-rule:evenodd;stroke:#000000;stroke-width:2.0px;stroke-linecap:butt;stroke-linejoin:miter;stroke-opacity:1"/>
<path class="bond-26" d="M 285.997,116.947 L 291.159,115.283" style="fill:none;fill-rule:evenodd;stroke:#0000FF;stroke-width:2.0px;stroke-linecap:butt;stroke-linejoin:miter;stroke-opacity:1"/>
<path class="bond-27" d="M 296.867,114.229 L 296.884,106.728" style="fill:none;fill-rule:evenodd;stroke:#0000FF;stroke-width:2.0px;stroke-linecap:butt;stroke-linejoin:miter;stroke-opacity:1"/>
<path class="bond-27" d="M 296.884,106.728 L 296.902,99.227" style="fill:none;fill-rule:evenodd;stroke:#000000;stroke-width:2.0px;stroke-linecap:butt;stroke-linejoin:miter;stroke-opacity:1"/>
<path class="bond-28" d="M 296.902,99.227 L 310.308,87.2133" style="fill:none;fill-rule:evenodd;stroke:#000000;stroke-width:2.0px;stroke-linecap:butt;stroke-linejoin:miter;stroke-opacity:1"/>
<path class="bond-28" d="M 296.51,94.7437 L 305.895,86.3342" style="fill:none;fill-rule:evenodd;stroke:#000000;stroke-width:2.0px;stroke-linecap:butt;stroke-linejoin:miter;stroke-opacity:1"/>
<path class="bond-47" d="M 296.902,99.227 L 279.795,93.6237" style="fill:none;fill-rule:evenodd;stroke:#000000;stroke-width:2.0px;stroke-linecap:butt;stroke-linejoin:miter;stroke-opacity:1"/>
<path class="bond-29" d="M 310.308,87.2133 L 317.67,89.6246" style="fill:none;fill-rule:evenodd;stroke:#000000;stroke-width:2.0px;stroke-linecap:butt;stroke-linejoin:miter;stroke-opacity:1"/>
<path class="bond-29" d="M 317.67,89.6246 L 325.032,92.0359" style="fill:none;fill-rule:evenodd;stroke:#0000FF;stroke-width:2.0px;stroke-linecap:butt;stroke-linejoin:miter;stroke-opacity:1"/>
<path class="bond-30" d="M 310.308,87.2133 L 308.773,79.9044" style="fill:none;fill-rule:evenodd;stroke:#000000;stroke-width:2.0px;stroke-linecap:butt;stroke-linejoin:miter;stroke-opacity:1"/>
<path class="bond-30" d="M 308.773,79.9044 L 307.237,72.5955" style="fill:none;fill-rule:evenodd;stroke:#0000FF;stroke-width:2.0px;stroke-linecap:butt;stroke-linejoin:miter;stroke-opacity:1"/>
<path class="bond-31" d="M 304.224,68.8158 L 296.862,66.4045" style="fill:none;fill-rule:evenodd;stroke:#0000FF;stroke-width:2.0px;stroke-linecap:butt;stroke-linejoin:miter;stroke-opacity:1"/>
<path class="bond-31" d="M 296.862,66.4045 L 289.5,63.9932" style="fill:none;fill-rule:evenodd;stroke:#000000;stroke-width:2.0px;stroke-linecap:butt;stroke-linejoin:miter;stroke-opacity:1"/>
<path class="bond-31" d="M 300.895,71.5139 L 295.741,69.826" style="fill:none;fill-rule:evenodd;stroke:#0000FF;stroke-width:2.0px;stroke-linecap:butt;stroke-linejoin:miter;stroke-opacity:1"/>
<path class="bond-31" d="M 295.741,69.826 L 290.588,68.1381" style="fill:none;fill-rule:evenodd;stroke:#000000;stroke-width:2.0px;stroke-linecap:butt;stroke-linejoin:miter;stroke-opacity:1"/>
<path class="bond-32" d="M 289.5,63.9932 L 283.989,68.9321" style="fill:none;fill-rule:evenodd;stroke:#000000;stroke-width:2.0px;stroke-linecap:butt;stroke-linejoin:miter;stroke-opacity:1"/>
<path class="bond-32" d="M 283.989,68.9321 L 278.477,73.871" style="fill:none;fill-rule:evenodd;stroke:#0000FF;stroke-width:2.0px;stroke-linecap:butt;stroke-linejoin:miter;stroke-opacity:1"/>
<path class="bond-33" d="M 276.724,79.0059 L 278.26,86.3148" style="fill:none;fill-rule:evenodd;stroke:#0000FF;stroke-width:2.0px;stroke-linecap:butt;stroke-linejoin:miter;stroke-opacity:1"/>
<path class="bond-33" d="M 278.26,86.3148 L 279.795,93.6237" style="fill:none;fill-rule:evenodd;stroke:#000000;stroke-width:2.0px;stroke-linecap:butt;stroke-linejoin:miter;stroke-opacity:1"/>
<path class="bond-33" d="M 280.708,80.4584 L 281.783,85.5746" style="fill:none;fill-rule:evenodd;stroke:#0000FF;stroke-width:2.0px;stroke-linecap:butt;stroke-linejoin:miter;stroke-opacity:1"/>
<path class="bond-33" d="M 281.783,85.5746 L 282.858,90.6909" style="fill:none;fill-rule:evenodd;stroke:#000000;stroke-width:2.0px;stroke-linecap:butt;stroke-linejoin:miter;stroke-opacity:1"/>
<path class="bond-35" d="M 240.563,122.658 L 242.836,129.711" style="fill:none;fill-rule:evenodd;stroke:#000000;stroke-width:2.0px;stroke-linecap:butt;stroke-linejoin:miter;stroke-opacity:1"/>
<path class="bond-35" d="M 242.836,129.711 L 245.109,136.764" style="fill:none;fill-rule:evenodd;stroke:#FF0000;stroke-width:2.0px;stroke-linecap:butt;stroke-linejoin:miter;stroke-opacity:1"/>
<path class="bond-36" d="M 240.563,122.658 L 223.456,117.055" style="fill:none;fill-rule:evenodd;stroke:#000000;stroke-width:2.0px;stroke-linecap:butt;stroke-linejoin:miter;stroke-opacity:1"/>
<path class="bond-37" d="M 223.456,117.055 L 217.557,121.319" style="fill:none;fill-rule:evenodd;stroke:#000000;stroke-width:2.0px;stroke-linecap:butt;stroke-linejoin:miter;stroke-opacity:1"/>
<path class="bond-37" d="M 217.557,121.319 L 211.657,125.584" style="fill:none;fill-rule:evenodd;stroke:#FF0000;stroke-width:2.0px;stroke-linecap:butt;stroke-linejoin:miter;stroke-opacity:1"/>
<path class="bond-39" d="M 126.712,106.655 L 131.362,111.844" style="fill:none;fill-rule:evenodd;stroke:#000000;stroke-width:2.0px;stroke-linecap:butt;stroke-linejoin:miter;stroke-opacity:1"/>
<path class="bond-39" d="M 131.362,111.844 L 136.012,117.033" style="fill:none;fill-rule:evenodd;stroke:#FF0000;stroke-width:2.0px;stroke-linecap:butt;stroke-linejoin:miter;stroke-opacity:1"/>
<path class="bond-40" d="M 126.712,106.655 L 108.804,108.494" style="fill:none;fill-rule:evenodd;stroke:#000000;stroke-width:2.0px;stroke-linecap:butt;stroke-linejoin:miter;stroke-opacity:1"/>
<path class="bond-41" d="M 108.804,108.494 L 105.164,114.765" style="fill:none;fill-rule:evenodd;stroke:#000000;stroke-width:2.0px;stroke-linecap:butt;stroke-linejoin:miter;stroke-opacity:1"/>
<path class="bond-41" d="M 105.164,114.765 L 101.524,121.035" style="fill:none;fill-rule:evenodd;stroke:#FF0000;stroke-width:2.0px;stroke-linecap:butt;stroke-linejoin:miter;stroke-opacity:1"/>
<path class="atom-0" d="M 15.5455 104.828 L 16.2367 104.828 L 16.2367 106.996 L 18.8433 106.996 L 18.8433 104.828 L 19.5346 104.828 L 19.5346 109.926 L 18.8433 109.926 L 18.8433 107.572 L 16.2367 107.572 L 16.2367 109.926 L 15.5455 109.926 L 15.5455 104.828 " fill="#0000FF"/>
<path class="atom-0" d="M 19.7817 109.747 Q 19.9053 109.429, 20.1999 109.253 Q 20.4946 109.073, 20.9033 109.073 Q 21.4118 109.073, 21.6969 109.348 Q 21.982 109.624, 21.982 110.113 Q 21.982 110.612, 21.6114 111.078 Q 21.2454 111.544, 20.485 112.095 L 22.0391 112.095 L 22.0391 112.475 L 19.7722 112.475 L 19.7722 112.157 Q 20.3995 111.71, 20.7702 111.377 Q 21.1456 111.045, 21.3262 110.745 Q 21.5068 110.446, 21.5068 110.137 Q 21.5068 109.814, 21.3452 109.633 Q 21.1836 109.453, 20.9033 109.453 Q 20.6324 109.453, 20.4518 109.562 Q 20.2712 109.671, 20.1429 109.914 L 19.7817 109.747 " fill="#0000FF"/>
<path class="atom-0" d="M 23.4432 104.828 L 25.1137 107.528 Q 25.2793 107.795, 25.5458 108.277 Q 25.8122 108.76, 25.8266 108.789 L 25.8266 104.828 L 26.5034 104.828 L 26.5034 109.926 L 25.805 109.926 L 24.012 106.974 Q 23.8032 106.628, 23.58 106.232 Q 23.364 105.836, 23.2992 105.714 L 23.2992 109.926 L 22.6367 109.926 L 22.6367 104.828 L 23.4432 104.828 " fill="#0000FF"/>
<path class="atom-2" d="M 45.3513 128.309 Q 45.3513 127.085, 45.9561 126.401 Q 46.561 125.717, 47.6915 125.717 Q 48.822 125.717, 49.4268 126.401 Q 50.0317 127.085, 50.0317 128.309 Q 50.0317 129.548, 49.4196 130.254 Q 48.8076 130.952, 47.6915 130.952 Q 46.5682 130.952, 45.9561 130.254 Q 45.3513 129.555, 45.3513 128.309 M 47.6915 130.376 Q 48.4691 130.376, 48.8868 129.858 Q 49.3116 129.332, 49.3116 128.309 Q 49.3116 127.309, 48.8868 126.805 Q 48.4691 126.293, 47.6915 126.293 Q 46.9138 126.293, 46.489 126.797 Q 46.0713 127.301, 46.0713 128.309 Q 46.0713 129.339, 46.489 129.858 Q 46.9138 130.376, 47.6915 130.376 " fill="#FF0000"/>
<path class="atom-7" d="M 82.7953 85.6986 L 84.4659 88.3988 Q 84.6315 88.6653, 84.8979 89.1477 Q 85.1643 89.6301, 85.1787 89.6589 L 85.1787 85.6986 L 85.8556 85.6986 L 85.8556 90.7966 L 85.1571 90.7966 L 83.3642 87.8444 Q 83.1554 87.4988, 82.9322 87.1027 Q 82.7161 86.7067, 82.6513 86.5843 L 82.6513 90.7966 L 81.9889 90.7966 L 81.9889 85.6986 L 82.7953 85.6986 " fill="#0000FF"/>
<path class="atom-7" d="M 86.2833 86.6176 L 87.1815 86.6176 L 87.1815 85.6718 L 87.5807 85.6718 L 87.5807 86.6176 L 88.5027 86.6176 L 88.5027 86.9597 L 87.5807 86.9597 L 87.5807 87.9102 L 87.1815 87.9102 L 87.1815 86.9597 L 86.2833 86.9597 L 86.2833 86.6176 " fill="#0000FF"/>
<path class="atom-9" d="M 112.587 80.0328 Q 112.587 78.8087, 113.192 78.1246 Q 113.797 77.4405, 114.928 77.4405 Q 116.058 77.4405, 116.663 78.1246 Q 117.268 78.8087, 117.268 80.0328 Q 117.268 81.2712, 116.656 81.9769 Q 116.044 82.6754, 114.928 82.6754 Q 113.804 82.6754, 113.192 81.9769 Q 112.587 81.2785, 112.587 80.0328 M 114.928 82.0993 Q 115.705 82.0993, 116.123 81.5809 Q 116.548 81.0552, 116.548 80.0328 Q 116.548 79.0319, 116.123 78.5278 Q 115.705 78.0166, 114.928 78.0166 Q 114.15 78.0166, 113.725 78.5206 Q 113.307 79.0247, 113.307 80.0328 Q 113.307 81.0624, 113.725 81.5809 Q 114.15 82.0993, 114.928 82.0993 " fill="#FF0000"/>
<path class="atom-12" d="M 146.542 63.8891 Q 146.542 62.665, 147.147 61.9809 Q 147.752 61.2969, 148.882 61.2969 Q 150.013 61.2969, 150.618 61.9809 Q 151.222 62.665, 151.222 63.8891 Q 151.222 65.1276, 150.61 65.8332 Q 149.998 66.5317, 148.882 66.5317 Q 147.759 66.5317, 147.147 65.8332 Q 146.542 65.1348, 146.542 63.8891 M 148.882 65.9556 Q 149.66 65.9556, 150.078 65.4372 Q 150.502 64.9116, 150.502 63.8891 Q 150.502 62.8882, 150.078 62.3842 Q 149.66 61.8729, 148.882 61.8729 Q 148.105 61.8729, 147.68 62.377 Q 147.262 62.881, 147.262 63.8891 Q 147.262 64.9188, 147.68 65.4372 Q 148.105 65.9556, 148.882 65.9556 " fill="#FF0000"/>
<path class="atom-13" d="M 165.222 54.0427 Q 166.094 54.0427, 166.533 54.4388 Q 166.972 54.8276, 166.972 55.5405 Q 166.972 56.2461, 166.518 56.6494 Q 166.072 57.0454, 165.222 57.0454 L 164.409 57.0454 L 164.409 59.1408 L 163.717 59.1408 L 163.717 54.0427 L 165.222 54.0427 M 165.222 56.4693 Q 165.719 56.4693, 165.986 56.2317 Q 166.252 55.9941, 166.252 55.5405 Q 166.252 55.0868, 165.986 54.8564 Q 165.726 54.6188, 165.222 54.6188 L 164.409 54.6188 L 164.409 56.4693 L 165.222 56.4693 " fill="#FF7F00"/>
<path class="atom-14" d="M 155.722 40.1438 Q 155.722 38.9197, 156.326 38.2356 Q 156.931 37.5515, 158.062 37.5515 Q 159.192 37.5515, 159.797 38.2356 Q 160.402 38.9197, 160.402 40.1438 Q 160.402 41.3823, 159.79 42.0879 Q 159.178 42.7864, 158.062 42.7864 Q 156.938 42.7864, 156.326 42.0879 Q 155.722 41.3895, 155.722 40.1438 M 158.062 42.2103 Q 158.839 42.2103, 159.257 41.6919 Q 159.682 41.1662, 159.682 40.1438 Q 159.682 39.1429, 159.257 38.6388 Q 158.839 38.1276, 158.062 38.1276 Q 157.284 38.1276, 156.859 38.6316 Q 156.442 39.1357, 156.442 40.1438 Q 156.442 41.1734, 156.859 41.6919 Q 157.284 42.2103, 158.062 42.2103 " fill="#FF0000"/>
<path class="atom-15" d="M 170.287 73.0686 Q 170.287 71.8445, 170.892 71.1604 Q 171.497 70.4763, 172.628 70.4763 Q 173.758 70.4763, 174.363 71.1604 Q 174.968 71.8445, 174.968 73.0686 Q 174.968 74.3071, 174.356 75.0127 Q 173.744 75.7112, 172.628 75.7112 Q 171.504 75.7112, 170.892 75.0127 Q 170.287 74.3143, 170.287 73.0686 M 172.628 75.1351 Q 173.405 75.1351, 173.823 74.6167 Q 174.248 74.091, 174.248 73.0686 Q 174.248 72.0677, 173.823 71.5636 Q 173.405 71.0524, 172.628 71.0524 Q 171.85 71.0524, 171.425 71.5564 Q 171.007 72.0605, 171.007 73.0686 Q 171.007 74.0982, 171.425 74.6167 Q 171.85 75.1351, 172.628 75.1351 " fill="#FF0000"/>
<path class="atom-15" d="M 175.58 70.534 L 176.271 70.534 L 176.271 72.7013 L 178.878 72.7013 L 178.878 70.534 L 179.569 70.534 L 179.569 75.632 L 178.878 75.632 L 178.878 73.2774 L 176.271 73.2774 L 176.271 75.632 L 175.58 75.632 L 175.58 70.534 " fill="#FF0000"/>
<path class="atom-16" d="M 179.467 49.3232 Q 179.467 48.0991, 180.072 47.4151 Q 180.677 46.731, 181.807 46.731 Q 182.938 46.731, 183.542 47.4151 Q 184.147 48.0991, 184.147 49.3232 Q 184.147 50.5617, 183.535 51.2674 Q 182.923 51.9658, 181.807 51.9658 Q 180.684 51.9658, 180.072 51.2674 Q 179.467 50.5689, 179.467 49.3232 M 181.807 51.3898 Q 182.585 51.3898, 183.002 50.8714 Q 183.427 50.3457, 183.427 49.3232 Q 183.427 48.3224, 183.002 47.8183 Q 182.585 47.3071, 181.807 47.3071 Q 181.029 47.3071, 180.605 47.8111 Q 180.187 48.3152, 180.187 49.3232 Q 180.187 50.3529, 180.605 50.8714 Q 181.029 51.3898, 181.807 51.3898 " fill="#FF0000"/>
<path class="atom-17" d="M 196.223 57.3752 Q 197.094 57.3752, 197.534 57.7713 Q 197.973 58.1601, 197.973 58.8729 Q 197.973 59.5786, 197.519 59.9818 Q 197.073 60.3779, 196.223 60.3779 L 195.409 60.3779 L 195.409 62.4732 L 194.718 62.4732 L 194.718 57.3752 L 196.223 57.3752 M 196.223 59.8018 Q 196.72 59.8018, 196.986 59.5642 Q 197.253 59.3266, 197.253 58.8729 Q 197.253 58.4193, 196.986 58.1889 Q 196.727 57.9513, 196.223 57.9513 L 195.409 57.9513 L 195.409 59.8018 L 196.223 59.8018 " fill="#FF7F00"/>
<path class="atom-18" d="M 183.39 74.477 Q 183.39 73.2529, 183.995 72.5689 Q 184.6 71.8848, 185.73 71.8848 Q 186.861 71.8848, 187.465 72.5689 Q 188.07 73.2529, 188.07 74.477 Q 188.07 75.7155, 187.458 76.4212 Q 186.846 77.1196, 185.73 77.1196 Q 184.607 77.1196, 183.995 76.4212 Q 183.39 75.7227, 183.39 74.477 M 185.73 76.5436 Q 186.508 76.5436, 186.925 76.0251 Q 187.35 75.4995, 187.35 74.477 Q 187.35 73.4761, 186.925 72.9721 Q 186.508 72.4609, 185.73 72.4609 Q 184.952 72.4609, 184.528 72.9649 Q 184.11 73.4689, 184.11 74.477 Q 184.11 75.5067, 184.528 76.0251 Q 184.952 76.5436, 185.73 76.5436 " fill="#FF0000"/>
<path class="atom-19" d="M 204.621 45.4002 Q 204.621 44.1761, 205.226 43.4921 Q 205.83 42.808, 206.961 42.808 Q 208.091 42.808, 208.696 43.4921 Q 209.301 44.1761, 209.301 45.4002 Q 209.301 46.6387, 208.689 47.3444 Q 208.077 48.0428, 206.961 48.0428 Q 205.838 48.0428, 205.226 47.3444 Q 204.621 46.6459, 204.621 45.4002 M 206.961 47.4668 Q 207.739 47.4668, 208.156 46.9484 Q 208.581 46.4227, 208.581 45.4002 Q 208.581 44.3994, 208.156 43.8953 Q 207.739 43.3841, 206.961 43.3841 Q 206.183 43.3841, 205.758 43.8881 Q 205.341 44.3922, 205.341 45.4002 Q 205.341 46.4299, 205.758 46.9484 Q 206.183 47.4668, 206.961 47.4668 " fill="#FF0000"/>
<path class="atom-19" d="M 209.913 42.8656 L 210.604 42.8656 L 210.604 45.033 L 213.211 45.033 L 213.211 42.8656 L 213.902 42.8656 L 213.902 47.9636 L 213.211 47.9636 L 213.211 45.609 L 210.604 45.609 L 210.604 47.9636 L 209.913 47.9636 L 209.913 42.8656 " fill="#FF0000"/>
<path class="atom-20" d="M 208.544 70.554 Q 208.544 69.3299, 209.149 68.6459 Q 209.753 67.9618, 210.884 67.9618 Q 212.014 67.9618, 212.619 68.6459 Q 213.224 69.3299, 213.224 70.554 Q 213.224 71.7925, 212.612 72.4982 Q 212 73.1966, 210.884 73.1966 Q 209.761 73.1966, 209.149 72.4982 Q 208.544 71.7997, 208.544 70.554 M 210.884 72.6206 Q 211.662 72.6206, 212.079 72.1021 Q 212.504 71.5765, 212.504 70.554 Q 212.504 69.5531, 212.079 69.0491 Q 211.662 68.5379, 210.884 68.5379 Q 210.106 68.5379, 209.681 69.0419 Q 209.264 69.5459, 209.264 70.554 Q 209.264 71.5837, 209.681 72.1021 Q 210.106 72.6206, 210.884 72.6206 " fill="#FF0000"/>
<path class="atom-23" d="M 238.292 93.5455 Q 238.292 92.3214, 238.896 91.6373 Q 239.501 90.9533, 240.632 90.9533 Q 241.762 90.9533, 242.367 91.6373 Q 242.972 92.3214, 242.972 93.5455 Q 242.972 94.784, 242.36 95.4897 Q 241.748 96.1881, 240.632 96.1881 Q 239.508 96.1881, 238.896 95.4897 Q 238.292 94.7912, 238.292 93.5455 M 240.632 95.6121 Q 241.409 95.6121, 241.827 95.0936 Q 242.252 94.568, 242.252 93.5455 Q 242.252 92.5446, 241.827 92.0406 Q 241.409 91.5293, 240.632 91.5293 Q 239.854 91.5293, 239.429 92.0334 Q 239.012 92.5374, 239.012 93.5455 Q 239.012 94.5752, 239.429 95.0936 Q 239.854 95.6121, 240.632 95.6121 " fill="#FF0000"/>
<path class="atom-25" d="M 268.053 105.613 L 269.723 108.313 Q 269.889 108.58, 270.155 109.062 Q 270.422 109.545, 270.436 109.573 L 270.436 105.613 L 271.113 105.613 L 271.113 110.711 L 270.415 110.711 L 268.622 107.759 Q 268.413 107.413, 268.19 107.017 Q 267.974 106.621, 267.909 106.499 L 267.909 110.711 L 267.246 110.711 L 267.246 105.613 L 268.053 105.613 " fill="#0000FF"/>
<path class="atom-27" d="M 295.733 114.679 L 297.403 117.38 Q 297.569 117.646, 297.835 118.128 Q 298.102 118.611, 298.116 118.64 L 298.116 114.679 L 298.793 114.679 L 298.793 119.777 L 298.095 119.777 L 296.302 116.825 Q 296.093 116.479, 295.87 116.083 Q 295.654 115.687, 295.589 115.565 L 295.589 119.777 L 294.926 119.777 L 294.926 114.679 L 295.733 114.679 " fill="#0000FF"/>
<path class="atom-30" d="M 326.289 90.2676 L 327.959 92.9678 Q 328.125 93.2342, 328.391 93.7166 Q 328.658 94.1991, 328.672 94.2279 L 328.672 90.2676 L 329.349 90.2676 L 329.349 95.3656 L 328.65 95.3656 L 326.857 92.4133 Q 326.649 92.0677, 326.425 91.6717 Q 326.209 91.2756, 326.145 91.1532 L 326.145 95.3656 L 325.482 95.3656 L 325.482 90.2676 L 326.289 90.2676 " fill="#0000FF"/>
<path class="atom-30" d="M 329.961 90.2676 L 330.652 90.2676 L 330.652 92.4349 L 333.259 92.4349 L 333.259 90.2676 L 333.95 90.2676 L 333.95 95.3656 L 333.259 95.3656 L 333.259 93.011 L 330.652 93.011 L 330.652 95.3656 L 329.961 95.3656 L 329.961 90.2676 " fill="#0000FF"/>
<path class="atom-30" d="M 334.197 95.1867 Q 334.321 94.8683, 334.615 94.6925 Q 334.91 94.5119, 335.319 94.5119 Q 335.827 94.5119, 336.112 94.7875 Q 336.398 95.0631, 336.398 95.5526 Q 336.398 96.0516, 336.027 96.5174 Q 335.661 96.9831, 334.901 97.5344 L 336.455 97.5344 L 336.455 97.9146 L 334.188 97.9146 L 334.188 97.5962 Q 334.815 97.1494, 335.186 96.8168 Q 335.561 96.4841, 335.742 96.1847 Q 335.922 95.8853, 335.922 95.5764 Q 335.922 95.2532, 335.761 95.0726 Q 335.599 94.8921, 335.319 94.8921 Q 335.048 94.8921, 334.867 95.0014 Q 334.687 95.1107, 334.558 95.353 L 334.197 95.1867 " fill="#0000FF"/>
<path class="atom-31" d="M 305.48 67.0475 L 307.151 69.7477 Q 307.317 70.0141, 307.583 70.4965 Q 307.849 70.979, 307.864 71.0078 L 307.864 67.0475 L 308.541 67.0475 L 308.541 72.1455 L 307.842 72.1455 L 306.049 69.1932 Q 305.84 68.8476, 305.617 68.4516 Q 305.401 68.0555, 305.336 67.9331 L 305.336 72.1455 L 304.674 72.1455 L 304.674 67.0475 L 305.48 67.0475 " fill="#0000FF"/>
<path class="atom-33" d="M 274.967 73.4579 L 276.638 76.1581 Q 276.803 76.4245, 277.07 76.9069 Q 277.336 77.3894, 277.35 77.4182 L 277.35 73.4579 L 278.027 73.4579 L 278.027 78.5559 L 277.329 78.5559 L 275.536 75.6036 Q 275.327 75.258, 275.104 74.862 Q 274.888 74.466, 274.823 74.3435 L 274.823 78.5559 L 274.161 78.5559 L 274.161 73.4579 L 274.967 73.4579 " fill="#0000FF"/>
<path class="atom-36" d="M 243.745 139.806 Q 243.745 138.582, 244.35 137.898 Q 244.955 137.214, 246.085 137.214 Q 247.216 137.214, 247.82 137.898 Q 248.425 138.582, 248.425 139.806 Q 248.425 141.044, 247.813 141.75 Q 247.201 142.448, 246.085 142.448 Q 244.962 142.448, 244.35 141.75 Q 243.745 141.052, 243.745 139.806 M 246.085 141.872 Q 246.863 141.872, 247.28 141.354 Q 247.705 140.828, 247.705 139.806 Q 247.705 138.805, 247.28 138.301 Q 246.863 137.79, 246.085 137.79 Q 245.307 137.79, 244.883 138.294 Q 244.465 138.798, 244.465 139.806 Q 244.465 140.836, 244.883 141.354 Q 245.307 141.872, 246.085 141.872 " fill="#FF0000"/>
<path class="atom-36" d="M 249.037 137.271 L 249.729 137.271 L 249.729 139.439 L 252.335 139.439 L 252.335 137.271 L 253.026 137.271 L 253.026 142.369 L 252.335 142.369 L 252.335 140.015 L 249.729 140.015 L 249.729 142.369 L 249.037 142.369 L 249.037 137.271 " fill="#FF0000"/>
<path class="atom-38" d="M 202.178 125.081 L 202.869 125.081 L 202.869 127.248 L 205.476 127.248 L 205.476 125.081 L 206.167 125.081 L 206.167 130.179 L 205.476 130.179 L 205.476 127.824 L 202.869 127.824 L 202.869 130.179 L 202.178 130.179 L 202.178 125.081 " fill="#FF0000"/>
<path class="atom-38" d="M 206.527 127.616 Q 206.527 126.392, 207.132 125.707 Q 207.737 125.023, 208.867 125.023 Q 209.998 125.023, 210.603 125.707 Q 211.207 126.392, 211.207 127.616 Q 211.207 128.854, 210.595 129.56 Q 209.983 130.258, 208.867 130.258 Q 207.744 130.258, 207.132 129.56 Q 206.527 128.861, 206.527 127.616 M 208.867 129.682 Q 209.645 129.682, 210.063 129.164 Q 210.487 128.638, 210.487 127.616 Q 210.487 126.615, 210.063 126.111 Q 209.645 125.599, 208.867 125.599 Q 208.09 125.599, 207.665 126.104 Q 207.247 126.608, 207.247 127.616 Q 207.247 128.645, 207.665 129.164 Q 208.09 129.682, 208.867 129.682 " fill="#FF0000"/>
<path class="atom-40" d="M 136.385 120.076 Q 136.385 118.852, 136.99 118.167 Q 137.595 117.483, 138.725 117.483 Q 139.856 117.483, 140.461 118.167 Q 141.065 118.852, 141.065 120.076 Q 141.065 121.314, 140.453 122.02 Q 139.841 122.718, 138.725 122.718 Q 137.602 122.718, 136.99 122.02 Q 136.385 121.321, 136.385 120.076 M 138.725 122.142 Q 139.503 122.142, 139.92 121.624 Q 140.345 121.098, 140.345 120.076 Q 140.345 119.075, 139.92 118.571 Q 139.503 118.059, 138.725 118.059 Q 137.948 118.059, 137.523 118.563 Q 137.105 119.068, 137.105 120.076 Q 137.105 121.105, 137.523 121.624 Q 137.948 122.142, 138.725 122.142 " fill="#FF0000"/>
<path class="atom-40" d="M 141.677 117.541 L 142.369 117.541 L 142.369 119.708 L 144.975 119.708 L 144.975 117.541 L 145.667 117.541 L 145.667 122.639 L 144.975 122.639 L 144.975 120.284 L 142.369 120.284 L 142.369 122.639 L 141.677 122.639 L 141.677 117.541 " fill="#FF0000"/>
<path class="atom-42" d="M 93.0774 121.543 L 93.7687 121.543 L 93.7687 123.71 L 96.3753 123.71 L 96.3753 121.543 L 97.0665 121.543 L 97.0665 126.641 L 96.3753 126.641 L 96.3753 124.286 L 93.7687 124.286 L 93.7687 126.641 L 93.0774 126.641 L 93.0774 121.543 " fill="#FF0000"/>
<path class="atom-42" d="M 97.4266 124.077 Q 97.4266 122.853, 98.0314 122.169 Q 98.6363 121.485, 99.7667 121.485 Q 100.897 121.485, 101.502 122.169 Q 102.107 122.853, 102.107 124.077 Q 102.107 125.316, 101.495 126.021 Q 100.883 126.72, 99.7667 126.72 Q 98.6435 126.72, 98.0314 126.021 Q 97.4266 125.323, 97.4266 124.077 M 99.7667 126.144 Q 100.544 126.144, 100.962 125.625 Q 101.387 125.1, 101.387 124.077 Q 101.387 123.076, 100.962 122.572 Q 100.544 122.061, 99.7667 122.061 Q 98.9891 122.061, 98.5642 122.565 Q 98.1466 123.069, 98.1466 124.077 Q 98.1466 125.107, 98.5642 125.625 Q 98.9891 126.144, 99.7667 126.144 " fill="#FF0000"/>
<path d="M 165.552 185.552 Q 165.552 183.248, 166.208 181.376 Q 166.88 179.504, 168.176 177.44 L 169.072 178.016 Q 168.032 179.92, 167.504 181.648 Q 166.992 183.36, 166.992 185.552 Q 166.992 187.712, 167.504 189.424 Q 168.032 191.12, 169.072 193.088 L 168.176 193.664 Q 166.88 191.632, 166.208 189.76 Q 165.552 187.872, 165.552 185.552 " fill="#000000"/>
<path d="M 169.904 180.928 Q 170.32 179.856, 171.312 179.264 Q 172.304 178.656, 173.68 178.656 Q 175.392 178.656, 176.352 179.584 Q 177.312 180.512, 177.312 182.16 Q 177.312 183.84, 176.064 185.408 Q 174.832 186.976, 172.272 188.832 L 177.504 188.832 L 177.504 190.112 L 169.872 190.112 L 169.872 189.04 Q 171.984 187.536, 173.232 186.416 Q 174.496 185.296, 175.104 184.288 Q 175.712 183.28, 175.712 182.24 Q 175.712 181.152, 175.168 180.544 Q 174.624 179.936, 173.68 179.936 Q 172.768 179.936, 172.16 180.304 Q 171.552 180.672, 171.12 181.488 L 169.904 180.928 " fill="#000000"/>
<path d="M 181.424 185.552 Q 181.424 187.872, 180.752 189.76 Q 180.096 191.632, 178.8 193.664 L 177.904 193.088 Q 178.944 191.12, 179.456 189.424 Q 179.984 187.712, 179.984 185.552 Q 179.984 183.36, 179.456 181.648 Q 178.944 179.92, 177.904 178.016 L 178.8 177.44 Q 180.096 179.504, 180.752 181.376 Q 181.424 183.248, 181.424 185.552 " fill="#000000"/>
</svg>
