<?xml version='1.0' encoding='ASCII' standalone='yes'?>
<svg xmlns="http://www.w3.org/2000/svg" xmlns:rdkit="http://www.rdkit.org/xml" xmlns:xlink="http://www.w3.org/1999/xlink" version="1.1" baseProfile="full" xml:space="preserve" width="247px" height="200px" viewBox="0 0 247 200">
<!-- END OF HEADER -->
<rect style="opacity:1.0;fill:#FFFFFF;stroke:none" width="247" height="200" x="0" y="0"> </rect>
<path class="bond-0" d="M 86.2827,160.299 L 92.71,145.019" style="fill:none;fill-rule:evenodd;stroke:#0000FF;stroke-width:2.0px;stroke-linecap:butt;stroke-linejoin:miter;stroke-opacity:1"/>
<path class="bond-0" d="M 92.71,145.019 L 99.1374,129.74" style="fill:none;fill-rule:evenodd;stroke:#000000;stroke-width:2.0px;stroke-linecap:butt;stroke-linejoin:miter;stroke-opacity:1"/>
<path class="bond-0" d="M 93.7427,163.437 L 99.206,150.449" style="fill:none;fill-rule:evenodd;stroke:#0000FF;stroke-width:2.0px;stroke-linecap:butt;stroke-linejoin:miter;stroke-opacity:1"/>
<path class="bond-0" d="M 99.206,150.449 L 104.669,137.462" style="fill:none;fill-rule:evenodd;stroke:#000000;stroke-width:2.0px;stroke-linecap:butt;stroke-linejoin:miter;stroke-opacity:1"/>
<path class="bond-0" d="M 78.8227,157.161 L 84.2859,144.173" style="fill:none;fill-rule:evenodd;stroke:#0000FF;stroke-width:2.0px;stroke-linecap:butt;stroke-linejoin:miter;stroke-opacity:1"/>
<path class="bond-0" d="M 84.2859,144.173 L 89.7491,131.186" style="fill:none;fill-rule:evenodd;stroke:#000000;stroke-width:2.0px;stroke-linecap:butt;stroke-linejoin:miter;stroke-opacity:1"/>
<path class="bond-1" d="M 99.1374,129.74 L 114.828,92.4399" style="fill:none;fill-rule:evenodd;stroke:#000000;stroke-width:2.0px;stroke-linecap:butt;stroke-linejoin:miter;stroke-opacity:1"/>
<path class="bond-2" d="M 114.828,92.4399 L 90.3703,60.2013" style="fill:none;fill-rule:evenodd;stroke:#000000;stroke-width:2.0px;stroke-linecap:butt;stroke-linejoin:miter;stroke-opacity:1"/>
<path class="bond-2" d="M 104.712,92.4956 L 87.5913,69.9286" style="fill:none;fill-rule:evenodd;stroke:#000000;stroke-width:2.0px;stroke-linecap:butt;stroke-linejoin:miter;stroke-opacity:1"/>
<path class="bond-6" d="M 114.828,92.4399 L 154.976,87.3782" style="fill:none;fill-rule:evenodd;stroke:#000000;stroke-width:2.0px;stroke-linecap:butt;stroke-linejoin:miter;stroke-opacity:1"/>
<path class="bond-3" d="M 90.3703,60.2013 L 50.2221,65.263" style="fill:none;fill-rule:evenodd;stroke:#000000;stroke-width:2.0px;stroke-linecap:butt;stroke-linejoin:miter;stroke-opacity:1"/>
<path class="bond-4" d="M 46.4921,63.6939 L 40.0784,78.9408" style="fill:none;fill-rule:evenodd;stroke:#000000;stroke-width:2.0px;stroke-linecap:butt;stroke-linejoin:miter;stroke-opacity:1"/>
<path class="bond-4" d="M 40.0784,78.9408 L 33.6646,94.1877" style="fill:none;fill-rule:evenodd;stroke:#FF0000;stroke-width:2.0px;stroke-linecap:butt;stroke-linejoin:miter;stroke-opacity:1"/>
<path class="bond-4" d="M 53.9521,66.832 L 47.5384,82.0789" style="fill:none;fill-rule:evenodd;stroke:#000000;stroke-width:2.0px;stroke-linecap:butt;stroke-linejoin:miter;stroke-opacity:1"/>
<path class="bond-4" d="M 47.5384,82.0789 L 41.1247,97.3259" style="fill:none;fill-rule:evenodd;stroke:#FF0000;stroke-width:2.0px;stroke-linecap:butt;stroke-linejoin:miter;stroke-opacity:1"/>
<path class="bond-5" d="M 50.2221,65.263 L 40.6426,52.6359" style="fill:none;fill-rule:evenodd;stroke:#000000;stroke-width:2.0px;stroke-linecap:butt;stroke-linejoin:miter;stroke-opacity:1"/>
<path class="bond-5" d="M 40.6426,52.6359 L 31.0632,40.0088" style="fill:none;fill-rule:evenodd;stroke:#FF0000;stroke-width:2.0px;stroke-linecap:butt;stroke-linejoin:miter;stroke-opacity:1"/>
<path class="bond-7" d="M 154.976,87.3782 L 170.667,50.078" style="fill:none;fill-rule:evenodd;stroke:#000000;stroke-width:2.0px;stroke-linecap:butt;stroke-linejoin:miter;stroke-opacity:1"/>
<path class="bond-7" d="M 164.79,84.9213 L 175.773,58.8112" style="fill:none;fill-rule:evenodd;stroke:#000000;stroke-width:2.0px;stroke-linecap:butt;stroke-linejoin:miter;stroke-opacity:1"/>
<path class="bond-12" d="M 154.976,87.3782 L 179.434,119.617" style="fill:none;fill-rule:evenodd;stroke:#000000;stroke-width:2.0px;stroke-linecap:butt;stroke-linejoin:miter;stroke-opacity:1"/>
<path class="bond-8" d="M 170.667,50.078 L 210.815,45.0164" style="fill:none;fill-rule:evenodd;stroke:#000000;stroke-width:2.0px;stroke-linecap:butt;stroke-linejoin:miter;stroke-opacity:1"/>
<path class="bond-9" d="M 210.815,45.0164 L 235.273,77.2549" style="fill:none;fill-rule:evenodd;stroke:#000000;stroke-width:2.0px;stroke-linecap:butt;stroke-linejoin:miter;stroke-opacity:1"/>
<path class="bond-9" d="M 208.036,54.7437 L 225.156,77.3107" style="fill:none;fill-rule:evenodd;stroke:#000000;stroke-width:2.0px;stroke-linecap:butt;stroke-linejoin:miter;stroke-opacity:1"/>
<path class="bond-10" d="M 235.273,77.2549 L 219.582,114.555" style="fill:none;fill-rule:evenodd;stroke:#000000;stroke-width:2.0px;stroke-linecap:butt;stroke-linejoin:miter;stroke-opacity:1"/>
<path class="bond-11" d="M 219.582,114.555 L 179.434,119.617" style="fill:none;fill-rule:evenodd;stroke:#000000;stroke-width:2.0px;stroke-linecap:butt;stroke-linejoin:miter;stroke-opacity:1"/>
<path class="bond-11" d="M 212.548,107.285 L 184.444,110.828" style="fill:none;fill-rule:evenodd;stroke:#000000;stroke-width:2.0px;stroke-linecap:butt;stroke-linejoin:miter;stroke-opacity:1"/>
<path class="atom-0" d="M 80.9136 161.31 L 84.6689 167.38 Q 85.0411 167.979, 85.64 169.064 Q 86.2389 170.148, 86.2713 170.213 L 86.2713 161.31 L 87.7928 161.31 L 87.7928 172.77 L 86.2227 172.77 L 82.1923 166.134 Q 81.7229 165.357, 81.2211 164.467 Q 80.7356 163.576, 80.5899 163.301 L 80.5899 172.77 L 79.1007 172.77 L 79.1007 161.31 L 80.9136 161.31 " fill="#0000FF"/>
<path class="atom-5" d="M 29.2709 102.596 Q 29.2709 99.8439, 30.6306 98.3062 Q 31.9902 96.7685, 34.5315 96.7685 Q 37.0728 96.7685, 38.4324 98.3062 Q 39.7921 99.8439, 39.7921 102.596 Q 39.7921 105.38, 38.4162 106.966 Q 37.0404 108.536, 34.5315 108.536 Q 32.0064 108.536, 30.6306 106.966 Q 29.2709 105.396, 29.2709 102.596 M 34.5315 107.241 Q 36.2796 107.241, 37.2184 106.076 Q 38.1734 104.894, 38.1734 102.596 Q 38.1734 100.346, 37.2184 99.2126 Q 36.2796 98.0634, 34.5315 98.0634 Q 32.7834 98.0634, 31.8284 99.1964 Q 30.8896 100.329, 30.8896 102.596 Q 30.8896 104.91, 31.8284 106.076 Q 32.7834 107.241, 34.5315 107.241 " fill="#FF0000"/>
<path class="atom-6" d="M 10.7273 27.3591 L 12.2812 27.3591 L 12.2812 32.2313 L 18.1407 32.2313 L 18.1407 27.3591 L 19.6946 27.3591 L 19.6946 38.8191 L 18.1407 38.8191 L 18.1407 33.5262 L 12.2812 33.5262 L 12.2812 38.8191 L 10.7273 38.8191 L 10.7273 27.3591 " fill="#FF0000"/>
<path class="atom-6" d="M 20.5039 33.0568 Q 20.5039 30.3051, 21.8635 28.7674 Q 23.2232 27.2297, 25.7645 27.2297 Q 28.3057 27.2297, 29.6654 28.7674 Q 31.025 30.3051, 31.025 33.0568 Q 31.025 35.8408, 29.6492 37.4271 Q 28.2734 38.9972, 25.7645 38.9972 Q 23.2394 38.9972, 21.8635 37.4271 Q 20.5039 35.857, 20.5039 33.0568 M 25.7645 37.7023 Q 27.5126 37.7023, 28.4514 36.5368 Q 29.4064 35.3552, 29.4064 33.0568 Q 29.4064 30.8069, 28.4514 29.6738 Q 27.5126 28.5246, 25.7645 28.5246 Q 24.0163 28.5246, 23.0613 29.6576 Q 22.1225 30.7907, 22.1225 33.0568 Q 22.1225 35.3714, 23.0613 36.5368 Q 24.0163 37.7023, 25.7645 37.7023 " fill="#FF0000"/>
</svg>
