<?xml version='1.0' encoding='ASCII' standalone='yes'?>
<svg xmlns="http://www.w3.org/2000/svg" xmlns:xlink="http://www.w3.org/1999/xlink" version="1.1" width="917.0px" viewBox="0 0 917.0 200.0" height="200.0px">
  <g>
    <g transform="translate(0, 0) scale(1 1) "><!-- END OF HEADER -->
<rect style="opacity:1.0;fill:#FFFFFF;stroke:none" width="25.0" height="200.0" x="0.0" y="0.0"> </rect>
<path class="atom-0" d="M 1.2 93.4 L 2.5 93.4 L 2.5 97.2 L 7.0 97.2 L 7.0 93.4 L 8.2 93.4 L 8.2 102.3 L 7.0 102.3 L 7.0 98.2 L 2.5 98.2 L 2.5 102.3 L 1.2 102.3 L 1.2 93.4 " fill="#FF0000"/>
<path class="atom-0" d="M 10.0 102.0 Q 10.2 101.4, 10.7 101.1 Q 11.2 100.8, 11.9 100.8 Q 12.8 100.8, 13.3 101.3 Q 13.8 101.7, 13.8 102.6 Q 13.8 103.5, 13.2 104.3 Q 12.5 105.1, 11.2 106.0 L 13.9 106.0 L 13.9 106.7 L 10.0 106.7 L 10.0 106.2 Q 11.1 105.4, 11.7 104.8 Q 12.4 104.2, 12.7 103.7 Q 13.0 103.2, 13.0 102.6 Q 13.0 102.1, 12.7 101.8 Q 12.4 101.4, 11.9 101.4 Q 11.5 101.4, 11.1 101.6 Q 10.8 101.8, 10.6 102.2 L 10.0 102.0 " fill="#FF0000"/>
<path class="atom-0" d="M 15.1 97.8 Q 15.1 95.7, 16.2 94.5 Q 17.2 93.3, 19.2 93.3 Q 21.1 93.3, 22.2 94.5 Q 23.2 95.7, 23.2 97.8 Q 23.2 100.0, 22.2 101.2 Q 21.1 102.4, 19.2 102.4 Q 17.2 102.4, 16.2 101.2 Q 15.1 100.0, 15.1 97.8 M 19.2 101.4 Q 20.5 101.4, 21.3 100.5 Q 22.0 99.6, 22.0 97.8 Q 22.0 96.1, 21.3 95.2 Q 20.5 94.3, 19.2 94.3 Q 17.8 94.3, 17.1 95.2 Q 16.4 96.1, 16.4 97.8 Q 16.4 99.6, 17.1 100.5 Q 17.8 101.4, 19.2 101.4 " fill="#FF0000"/>
</g>
    <g transform="translate(25.0, 0) scale(1 1) "><line x1="15" y1="100" x2="25" y2="100" style="stroke:rgb(0,0,0);stroke-width:2"/>
  <line x1="20" y1="95" x2="20" y2="105" style="stroke:rgb(0,0,0);stroke-width:2"/>
</g>
    <g transform="translate(65.0, 0) scale(1 1) "><!-- END OF HEADER -->
<rect style="opacity:1.0;fill:#FFFFFF;stroke:none" width="311.0" height="200.0" x="0.0" y="0.0"> </rect>
<path class="bond-0 atom-0 atom-1" d="M 35.1,90.5 L 45.8,85.1" style="fill:none;fill-rule:evenodd;stroke:#0000FF;stroke-width:2.0px;stroke-linecap:butt;stroke-linejoin:miter;stroke-opacity:1"/>
<path class="bond-0 atom-0 atom-1" d="M 45.8,85.1 L 56.5,79.6" style="fill:none;fill-rule:evenodd;stroke:#000000;stroke-width:2.0px;stroke-linecap:butt;stroke-linejoin:miter;stroke-opacity:1"/>
<path class="bond-1 atom-1 atom-2" d="M 56.5,79.6 L 57.2,67.9" style="fill:none;fill-rule:evenodd;stroke:#000000;stroke-width:2.0px;stroke-linecap:butt;stroke-linejoin:miter;stroke-opacity:1"/>
<path class="bond-1 atom-1 atom-2" d="M 57.2,67.9 L 57.8,56.2" style="fill:none;fill-rule:evenodd;stroke:#0000FF;stroke-width:2.0px;stroke-linecap:butt;stroke-linejoin:miter;stroke-opacity:1"/>
<path class="bond-1 atom-1 atom-2" d="M 60.9,77.4 L 61.5,66.9" style="fill:none;fill-rule:evenodd;stroke:#000000;stroke-width:2.0px;stroke-linecap:butt;stroke-linejoin:miter;stroke-opacity:1"/>
<path class="bond-1 atom-1 atom-2" d="M 61.5,66.9 L 62.1,56.4" style="fill:none;fill-rule:evenodd;stroke:#0000FF;stroke-width:2.0px;stroke-linecap:butt;stroke-linejoin:miter;stroke-opacity:1"/>
<path class="bond-2 atom-2 atom-3" d="M 62.1,49.2 L 72.8,43.8" style="fill:none;fill-rule:evenodd;stroke:#0000FF;stroke-width:2.0px;stroke-linecap:butt;stroke-linejoin:miter;stroke-opacity:1"/>
<path class="bond-2 atom-2 atom-3" d="M 72.8,43.8 L 83.5,38.3" style="fill:none;fill-rule:evenodd;stroke:#000000;stroke-width:2.0px;stroke-linecap:butt;stroke-linejoin:miter;stroke-opacity:1"/>
<path class="bond-3 atom-3 atom-4" d="M 83.5,38.3 L 93.5,44.8" style="fill:none;fill-rule:evenodd;stroke:#000000;stroke-width:2.0px;stroke-linecap:butt;stroke-linejoin:miter;stroke-opacity:1"/>
<path class="bond-3 atom-3 atom-4" d="M 93.5,44.8 L 103.4,51.3" style="fill:none;fill-rule:evenodd;stroke:#0000FF;stroke-width:2.0px;stroke-linecap:butt;stroke-linejoin:miter;stroke-opacity:1"/>
<path class="bond-3 atom-3 atom-4" d="M 83.3,43.3 L 92.2,49.1" style="fill:none;fill-rule:evenodd;stroke:#000000;stroke-width:2.0px;stroke-linecap:butt;stroke-linejoin:miter;stroke-opacity:1"/>
<path class="bond-3 atom-3 atom-4" d="M 92.2,49.1 L 101.0,54.9" style="fill:none;fill-rule:evenodd;stroke:#0000FF;stroke-width:2.0px;stroke-linecap:butt;stroke-linejoin:miter;stroke-opacity:1"/>
<path class="bond-4 atom-4 atom-5" d="M 107.1,58.9 L 106.5,70.6" style="fill:none;fill-rule:evenodd;stroke:#0000FF;stroke-width:2.0px;stroke-linecap:butt;stroke-linejoin:miter;stroke-opacity:1"/>
<path class="bond-4 atom-4 atom-5" d="M 106.5,70.6 L 105.8,82.4" style="fill:none;fill-rule:evenodd;stroke:#000000;stroke-width:2.0px;stroke-linecap:butt;stroke-linejoin:miter;stroke-opacity:1"/>
<path class="bond-5 atom-5 atom-6" d="M 105.8,82.4 L 80.4,95.2" style="fill:none;fill-rule:evenodd;stroke:#000000;stroke-width:2.0px;stroke-linecap:butt;stroke-linejoin:miter;stroke-opacity:1"/>
<path class="bond-5 atom-5 atom-6" d="M 101.7,79.7 L 80.7,90.3" style="fill:none;fill-rule:evenodd;stroke:#000000;stroke-width:2.0px;stroke-linecap:butt;stroke-linejoin:miter;stroke-opacity:1"/>
<path class="bond-6 atom-6 atom-7" d="M 80.4,95.2 L 82.2,106.8" style="fill:none;fill-rule:evenodd;stroke:#000000;stroke-width:2.0px;stroke-linecap:butt;stroke-linejoin:miter;stroke-opacity:1"/>
<path class="bond-6 atom-6 atom-7" d="M 82.2,106.8 L 84.0,118.4" style="fill:none;fill-rule:evenodd;stroke:#0000FF;stroke-width:2.0px;stroke-linecap:butt;stroke-linejoin:miter;stroke-opacity:1"/>
<path class="bond-7 atom-7 atom-8" d="M 88.8,124.0 L 100.8,126.0" style="fill:none;fill-rule:evenodd;stroke:#0000FF;stroke-width:2.0px;stroke-linecap:butt;stroke-linejoin:miter;stroke-opacity:1"/>
<path class="bond-7 atom-7 atom-8" d="M 100.8,126.0 L 112.9,127.9" style="fill:none;fill-rule:evenodd;stroke:#000000;stroke-width:2.0px;stroke-linecap:butt;stroke-linejoin:miter;stroke-opacity:1"/>
<path class="bond-7 atom-7 atom-8" d="M 89.5,119.8 L 100.0,121.5" style="fill:none;fill-rule:evenodd;stroke:#0000FF;stroke-width:2.0px;stroke-linecap:butt;stroke-linejoin:miter;stroke-opacity:1"/>
<path class="bond-7 atom-7 atom-8" d="M 100.0,121.5 L 110.5,123.2" style="fill:none;fill-rule:evenodd;stroke:#000000;stroke-width:2.0px;stroke-linecap:butt;stroke-linejoin:miter;stroke-opacity:1"/>
<path class="bond-8 atom-8 atom-9" d="M 112.9,127.9 L 118.1,117.7" style="fill:none;fill-rule:evenodd;stroke:#000000;stroke-width:2.0px;stroke-linecap:butt;stroke-linejoin:miter;stroke-opacity:1"/>
<path class="bond-8 atom-8 atom-9" d="M 118.1,117.7 L 123.3,107.5" style="fill:none;fill-rule:evenodd;stroke:#0000FF;stroke-width:2.0px;stroke-linecap:butt;stroke-linejoin:miter;stroke-opacity:1"/>
<path class="bond-9 atom-9 atom-10" d="M 129.9,101.9 L 142.0,100.1" style="fill:none;fill-rule:evenodd;stroke:#0000FF;stroke-width:2.0px;stroke-linecap:butt;stroke-linejoin:miter;stroke-opacity:1"/>
<path class="bond-9 atom-9 atom-10" d="M 142.0,100.1 L 154.1,98.2" style="fill:none;fill-rule:evenodd;stroke:#000000;stroke-width:2.0px;stroke-linecap:butt;stroke-linejoin:miter;stroke-opacity:1"/>
<path class="bond-10 atom-10 atom-11" d="M 154.1,98.2 L 159.2,88.1" style="fill:none;fill-rule:evenodd;stroke:#000000;stroke-width:2.0px;stroke-linecap:butt;stroke-linejoin:miter;stroke-opacity:1"/>
<path class="bond-10 atom-10 atom-11" d="M 159.2,88.1 L 164.4,78.0" style="fill:none;fill-rule:evenodd;stroke:#FF0000;stroke-width:2.0px;stroke-linecap:butt;stroke-linejoin:miter;stroke-opacity:1"/>
<path class="bond-11 atom-11 atom-12" d="M 171.7,73.6 L 183.4,75.5" style="fill:none;fill-rule:evenodd;stroke:#FF0000;stroke-width:2.0px;stroke-linecap:butt;stroke-linejoin:miter;stroke-opacity:1"/>
<path class="bond-11 atom-11 atom-12" d="M 183.4,75.5 L 195.2,77.4" style="fill:none;fill-rule:evenodd;stroke:#000000;stroke-width:2.0px;stroke-linecap:butt;stroke-linejoin:miter;stroke-opacity:1"/>
<path class="bond-12 atom-12 atom-13" d="M 195.2,77.4 L 215.4,57.3" style="fill:none;fill-rule:evenodd;stroke:#000000;stroke-width:2.0px;stroke-linecap:butt;stroke-linejoin:miter;stroke-opacity:1"/>
<path class="bond-13 atom-13 atom-14" d="M 215.4,57.3 L 226.8,60.4" style="fill:none;fill-rule:evenodd;stroke:#000000;stroke-width:2.0px;stroke-linecap:butt;stroke-linejoin:miter;stroke-opacity:1"/>
<path class="bond-13 atom-13 atom-14" d="M 226.8,60.4 L 238.2,63.5" style="fill:none;fill-rule:evenodd;stroke:#FF0000;stroke-width:2.0px;stroke-linecap:butt;stroke-linejoin:miter;stroke-opacity:1"/>
<path class="bond-14 atom-14 atom-15" d="M 247.5,60.1 L 253.5,54.1" style="fill:none;fill-rule:evenodd;stroke:#FF0000;stroke-width:2.0px;stroke-linecap:butt;stroke-linejoin:miter;stroke-opacity:1"/>
<path class="bond-14 atom-14 atom-15" d="M 253.5,54.1 L 259.6,48.1" style="fill:none;fill-rule:evenodd;stroke:#FF7F00;stroke-width:2.0px;stroke-linecap:butt;stroke-linejoin:miter;stroke-opacity:1"/>
<path class="bond-15 atom-15 atom-16" d="M 265.1,49.7 L 271.0,55.7" style="fill:none;fill-rule:evenodd;stroke:#FF7F00;stroke-width:2.0px;stroke-linecap:butt;stroke-linejoin:miter;stroke-opacity:1"/>
<path class="bond-15 atom-15 atom-16" d="M 271.0,55.7 L 277.0,61.7" style="fill:none;fill-rule:evenodd;stroke:#FF0000;stroke-width:2.0px;stroke-linecap:butt;stroke-linejoin:miter;stroke-opacity:1"/>
<path class="bond-15 atom-15 atom-16" d="M 268.1,46.7 L 274.1,52.7" style="fill:none;fill-rule:evenodd;stroke:#FF7F00;stroke-width:2.0px;stroke-linecap:butt;stroke-linejoin:miter;stroke-opacity:1"/>
<path class="bond-15 atom-15 atom-16" d="M 274.1,52.7 L 280.0,58.7" style="fill:none;fill-rule:evenodd;stroke:#FF0000;stroke-width:2.0px;stroke-linecap:butt;stroke-linejoin:miter;stroke-opacity:1"/>
<path class="bond-16 atom-15 atom-17" d="M 259.6,41.1 L 253.6,35.1" style="fill:none;fill-rule:evenodd;stroke:#FF7F00;stroke-width:2.0px;stroke-linecap:butt;stroke-linejoin:miter;stroke-opacity:1"/>
<path class="bond-16 atom-15 atom-17" d="M 253.6,35.1 L 247.6,29.1" style="fill:none;fill-rule:evenodd;stroke:#FF0000;stroke-width:2.0px;stroke-linecap:butt;stroke-linejoin:miter;stroke-opacity:1"/>
<path class="bond-17 atom-15 atom-18" d="M 266.6,41.1 L 272.6,35.2" style="fill:none;fill-rule:evenodd;stroke:#FF7F00;stroke-width:2.0px;stroke-linecap:butt;stroke-linejoin:miter;stroke-opacity:1"/>
<path class="bond-17 atom-15 atom-18" d="M 272.6,35.2 L 278.6,29.2" style="fill:none;fill-rule:evenodd;stroke:#FF0000;stroke-width:2.0px;stroke-linecap:butt;stroke-linejoin:miter;stroke-opacity:1"/>
<path class="bond-18 atom-12 atom-19" d="M 195.2,77.4 L 199.6,105.5" style="fill:none;fill-rule:evenodd;stroke:#000000;stroke-width:2.0px;stroke-linecap:butt;stroke-linejoin:miter;stroke-opacity:1"/>
<path class="bond-19 atom-19 atom-20" d="M 199.6,105.5 L 209.9,110.8" style="fill:none;fill-rule:evenodd;stroke:#000000;stroke-width:2.0px;stroke-linecap:butt;stroke-linejoin:miter;stroke-opacity:1"/>
<path class="bond-19 atom-19 atom-20" d="M 209.9,110.8 L 220.3,116.1" style="fill:none;fill-rule:evenodd;stroke:#FF0000;stroke-width:2.0px;stroke-linecap:butt;stroke-linejoin:miter;stroke-opacity:1"/>
<path class="bond-20 atom-20 atom-21" d="M 225.2,123.7 L 225.6,132.8" style="fill:none;fill-rule:evenodd;stroke:#FF0000;stroke-width:2.0px;stroke-linecap:butt;stroke-linejoin:miter;stroke-opacity:1"/>
<path class="bond-20 atom-20 atom-21" d="M 225.6,132.8 L 226.1,142.0" style="fill:none;fill-rule:evenodd;stroke:#FF7F00;stroke-width:2.0px;stroke-linecap:butt;stroke-linejoin:miter;stroke-opacity:1"/>
<path class="bond-21 atom-21 atom-22" d="M 229.9,148.9 L 240.1,148.4" style="fill:none;fill-rule:evenodd;stroke:#FF7F00;stroke-width:2.0px;stroke-linecap:butt;stroke-linejoin:miter;stroke-opacity:1"/>
<path class="bond-21 atom-21 atom-22" d="M 240.1,148.4 L 250.2,147.9" style="fill:none;fill-rule:evenodd;stroke:#FF0000;stroke-width:2.0px;stroke-linecap:butt;stroke-linejoin:miter;stroke-opacity:1"/>
<path class="bond-21 atom-21 atom-22" d="M 229.7,144.7 L 239.9,144.2" style="fill:none;fill-rule:evenodd;stroke:#FF7F00;stroke-width:2.0px;stroke-linecap:butt;stroke-linejoin:miter;stroke-opacity:1"/>
<path class="bond-21 atom-21 atom-22" d="M 239.9,144.2 L 250.0,143.7" style="fill:none;fill-rule:evenodd;stroke:#FF0000;stroke-width:2.0px;stroke-linecap:butt;stroke-linejoin:miter;stroke-opacity:1"/>
<path class="bond-22 atom-21 atom-23" d="M 222.8,147.2 L 212.7,147.7" style="fill:none;fill-rule:evenodd;stroke:#FF7F00;stroke-width:2.0px;stroke-linecap:butt;stroke-linejoin:miter;stroke-opacity:1"/>
<path class="bond-22 atom-21 atom-23" d="M 212.7,147.7 L 202.5,148.2" style="fill:none;fill-rule:evenodd;stroke:#FF0000;stroke-width:2.0px;stroke-linecap:butt;stroke-linejoin:miter;stroke-opacity:1"/>
<path class="bond-23 atom-21 atom-24" d="M 226.6,152.0 L 227.0,161.2" style="fill:none;fill-rule:evenodd;stroke:#FF7F00;stroke-width:2.0px;stroke-linecap:butt;stroke-linejoin:miter;stroke-opacity:1"/>
<path class="bond-23 atom-21 atom-24" d="M 227.0,161.2 L 227.5,170.4" style="fill:none;fill-rule:evenodd;stroke:#FF0000;stroke-width:2.0px;stroke-linecap:butt;stroke-linejoin:miter;stroke-opacity:1"/>
<path class="bond-24 atom-19 atom-25" d="M 199.6,105.5 L 174.1,118.4" style="fill:none;fill-rule:evenodd;stroke:#000000;stroke-width:2.0px;stroke-linecap:butt;stroke-linejoin:miter;stroke-opacity:1"/>
<path class="bond-25 atom-25 atom-26" d="M 174.1,118.4 L 172.3,129.9" style="fill:none;fill-rule:evenodd;stroke:#000000;stroke-width:2.0px;stroke-linecap:butt;stroke-linejoin:miter;stroke-opacity:1"/>
<path class="bond-25 atom-25 atom-26" d="M 172.3,129.9 L 170.4,141.5" style="fill:none;fill-rule:evenodd;stroke:#FF0000;stroke-width:2.0px;stroke-linecap:butt;stroke-linejoin:miter;stroke-opacity:1"/>
<path class="bond-26 atom-6 atom-1" d="M 80.4,95.2 L 56.5,79.6" style="fill:none;fill-rule:evenodd;stroke:#000000;stroke-width:2.0px;stroke-linecap:butt;stroke-linejoin:miter;stroke-opacity:1"/>
<path class="bond-27 atom-25 atom-10" d="M 174.1,118.4 L 154.1,98.2" style="fill:none;fill-rule:evenodd;stroke:#000000;stroke-width:2.0px;stroke-linecap:butt;stroke-linejoin:miter;stroke-opacity:1"/>
<path class="bond-28 atom-9 atom-5" d="M 121.9,98.5 L 113.9,90.5" style="fill:none;fill-rule:evenodd;stroke:#0000FF;stroke-width:2.0px;stroke-linecap:butt;stroke-linejoin:miter;stroke-opacity:1"/>
<path class="bond-28 atom-9 atom-5" d="M 113.9,90.5 L 105.8,82.4" style="fill:none;fill-rule:evenodd;stroke:#000000;stroke-width:2.0px;stroke-linecap:butt;stroke-linejoin:miter;stroke-opacity:1"/>
<path d="M 83.0,38.6 L 83.5,38.3 L 84.0,38.7" style="fill:none;stroke:#000000;stroke-width:2.0px;stroke-linecap:butt;stroke-linejoin:miter;stroke-opacity:1;"/>
<path d="M 112.3,127.8 L 112.9,127.9 L 113.2,127.4" style="fill:none;stroke:#000000;stroke-width:2.0px;stroke-linecap:butt;stroke-linejoin:miter;stroke-opacity:1;"/>
<path d="M 214.4,58.3 L 215.4,57.3 L 216.0,57.4" style="fill:none;stroke:#000000;stroke-width:2.0px;stroke-linecap:butt;stroke-linejoin:miter;stroke-opacity:1;"/>
<path class="atom-0" d="M 15.6 88.5 L 16.6 88.5 L 16.6 91.9 L 20.8 91.9 L 20.8 88.5 L 21.9 88.5 L 21.9 96.5 L 20.8 96.5 L 20.8 92.8 L 16.6 92.8 L 16.6 96.5 L 15.6 96.5 L 15.6 88.5 " fill="#0000FF"/>
<path class="atom-0" d="M 23.4 96.3 Q 23.6 95.8, 24.1 95.5 Q 24.6 95.2, 25.2 95.2 Q 26.0 95.2, 26.5 95.6 Q 26.9 96.1, 26.9 96.8 Q 26.9 97.6, 26.3 98.4 Q 25.8 99.1, 24.6 100.0 L 27.0 100.0 L 27.0 100.6 L 23.4 100.6 L 23.4 100.1 Q 24.4 99.4, 25.0 98.8 Q 25.6 98.3, 25.9 97.8 Q 26.2 97.4, 26.2 96.9 Q 26.2 96.4, 25.9 96.1 Q 25.7 95.8, 25.2 95.8 Q 24.8 95.8, 24.5 96.0 Q 24.2 96.1, 24.0 96.5 L 23.4 96.3 " fill="#0000FF"/>
<path class="atom-0" d="M 29.3 88.5 L 32.0 92.7 Q 32.2 93.2, 32.7 93.9 Q 33.1 94.7, 33.1 94.7 L 33.1 88.5 L 34.2 88.5 L 34.2 96.5 L 33.1 96.5 L 30.2 91.9 Q 29.9 91.3, 29.6 90.7 Q 29.2 90.1, 29.1 89.9 L 29.1 96.5 L 28.1 96.5 L 28.1 88.5 L 29.3 88.5 " fill="#0000FF"/>
<path class="atom-2" d="M 56.3 47.2 L 59.0 51.4 Q 59.2 51.9, 59.7 52.6 Q 60.1 53.4, 60.1 53.4 L 60.1 47.2 L 61.2 47.2 L 61.2 55.2 L 60.1 55.2 L 57.2 50.6 Q 56.9 50.0, 56.5 49.4 Q 56.2 48.8, 56.1 48.6 L 56.1 55.2 L 55.1 55.2 L 55.1 47.2 L 56.3 47.2 " fill="#0000FF"/>
<path class="atom-4" d="M 105.6 49.9 L 108.2 54.2 Q 108.5 54.6, 108.9 55.3 Q 109.3 56.1, 109.4 56.2 L 109.4 49.9 L 110.4 49.9 L 110.4 58.0 L 109.3 58.0 L 106.5 53.3 Q 106.2 52.7, 105.8 52.1 Q 105.5 51.5, 105.4 51.3 L 105.4 58.0 L 104.3 58.0 L 104.3 49.9 L 105.6 49.9 " fill="#0000FF"/>
<path class="atom-7" d="M 83.0 119.3 L 85.6 123.6 Q 85.9 124.0, 86.3 124.8 Q 86.7 125.6, 86.8 125.6 L 86.8 119.3 L 87.8 119.3 L 87.8 127.4 L 86.7 127.4 L 83.9 122.7 Q 83.6 122.2, 83.2 121.6 Q 82.9 120.9, 82.8 120.7 L 82.8 127.4 L 81.7 127.4 L 81.7 119.3 L 83.0 119.3 " fill="#0000FF"/>
<path class="atom-9" d="M 124.1 98.5 L 126.8 102.8 Q 127.0 103.2, 127.4 104.0 Q 127.9 104.8, 127.9 104.8 L 127.9 98.5 L 129.0 98.5 L 129.0 106.6 L 127.9 106.6 L 125.0 101.9 Q 124.7 101.4, 124.3 100.8 Q 124.0 100.1, 123.9 99.9 L 123.9 106.6 L 122.8 106.6 L 122.8 98.5 L 124.1 98.5 " fill="#0000FF"/>
<path class="atom-11" d="M 163.3 72.9 Q 163.3 70.9, 164.3 69.8 Q 165.3 68.8, 167.1 68.8 Q 168.8 68.8, 169.8 69.8 Q 170.8 70.9, 170.8 72.9 Q 170.8 74.8, 169.8 75.9 Q 168.8 77.0, 167.1 77.0 Q 165.3 77.0, 164.3 75.9 Q 163.3 74.8, 163.3 72.9 M 167.1 76.1 Q 168.3 76.1, 168.9 75.3 Q 169.6 74.5, 169.6 72.9 Q 169.6 71.3, 168.9 70.5 Q 168.3 69.7, 167.1 69.7 Q 165.8 69.7, 165.2 70.5 Q 164.5 71.3, 164.5 72.9 Q 164.5 74.5, 165.2 75.3 Q 165.8 76.1, 167.1 76.1 " fill="#FF0000"/>
<path class="atom-14" d="M 239.2 64.8 Q 239.2 62.8, 240.1 61.7 Q 241.1 60.7, 242.9 60.7 Q 244.7 60.7, 245.6 61.7 Q 246.6 62.8, 246.6 64.8 Q 246.6 66.7, 245.6 67.8 Q 244.6 68.9, 242.9 68.9 Q 241.1 68.9, 240.1 67.8 Q 239.2 66.7, 239.2 64.8 M 242.9 68.0 Q 244.1 68.0, 244.8 67.2 Q 245.4 66.4, 245.4 64.8 Q 245.4 63.2, 244.8 62.4 Q 244.1 61.6, 242.9 61.6 Q 241.6 61.6, 241.0 62.4 Q 240.3 63.2, 240.3 64.8 Q 240.3 66.4, 241.0 67.2 Q 241.6 68.0, 242.9 68.0 " fill="#FF0000"/>
<path class="atom-15" d="M 262.9 40.6 Q 264.3 40.6, 265.0 41.2 Q 265.7 41.8, 265.7 43.0 Q 265.7 44.1, 264.9 44.7 Q 264.2 45.4, 262.9 45.4 L 261.6 45.4 L 261.6 48.7 L 260.5 48.7 L 260.5 40.6 L 262.9 40.6 M 262.9 44.4 Q 263.7 44.4, 264.1 44.1 Q 264.5 43.7, 264.5 43.0 Q 264.5 42.3, 264.1 41.9 Q 263.7 41.5, 262.9 41.5 L 261.6 41.5 L 261.6 44.4 L 262.9 44.4 " fill="#FF7F00"/>
<path class="atom-16" d="M 279.5 64.9 Q 279.5 62.9, 280.4 61.8 Q 281.4 60.8, 283.2 60.8 Q 285.0 60.8, 285.9 61.8 Q 286.9 62.9, 286.9 64.9 Q 286.9 66.8, 285.9 67.9 Q 284.9 69.0, 283.2 69.0 Q 281.4 69.0, 280.4 67.9 Q 279.5 66.8, 279.5 64.9 M 283.2 68.1 Q 284.4 68.1, 285.1 67.3 Q 285.7 66.5, 285.7 64.9 Q 285.7 63.3, 285.1 62.5 Q 284.4 61.7, 283.2 61.7 Q 281.9 61.7, 281.3 62.5 Q 280.6 63.3, 280.6 64.9 Q 280.6 66.5, 281.3 67.3 Q 281.9 68.1, 283.2 68.1 " fill="#FF0000"/>
<path class="atom-17" d="M 231.3 20.5 L 232.4 20.5 L 232.4 23.9 L 236.5 23.9 L 236.5 20.5 L 237.6 20.5 L 237.6 28.5 L 236.5 28.5 L 236.5 24.8 L 232.4 24.8 L 232.4 28.5 L 231.3 28.5 L 231.3 20.5 " fill="#FF0000"/>
<path class="atom-17" d="M 239.3 24.5 Q 239.3 22.5, 240.2 21.4 Q 241.2 20.4, 243.0 20.4 Q 244.8 20.4, 245.7 21.4 Q 246.7 22.5, 246.7 24.5 Q 246.7 26.4, 245.7 27.5 Q 244.8 28.6, 243.0 28.6 Q 241.2 28.6, 240.2 27.5 Q 239.3 26.4, 239.3 24.5 M 243.0 27.7 Q 244.2 27.7, 244.9 26.9 Q 245.6 26.1, 245.6 24.5 Q 245.6 22.9, 244.9 22.1 Q 244.2 21.3, 243.0 21.3 Q 241.8 21.3, 241.1 22.1 Q 240.4 22.9, 240.4 24.5 Q 240.4 26.1, 241.1 26.9 Q 241.8 27.7, 243.0 27.7 " fill="#FF0000"/>
<path class="atom-18" d="M 279.6 24.6 Q 279.6 22.6, 280.5 21.6 Q 281.5 20.5, 283.3 20.5 Q 285.1 20.5, 286.0 21.6 Q 287.0 22.6, 287.0 24.6 Q 287.0 26.5, 286.0 27.7 Q 285.0 28.8, 283.3 28.8 Q 281.5 28.8, 280.5 27.7 Q 279.6 26.5, 279.6 24.6 M 283.3 27.8 Q 284.5 27.8, 285.2 27.0 Q 285.8 26.2, 285.8 24.6 Q 285.8 23.0, 285.2 22.2 Q 284.5 21.4, 283.3 21.4 Q 282.0 21.4, 281.4 22.2 Q 280.7 23.0, 280.7 24.6 Q 280.7 26.2, 281.4 27.0 Q 282.0 27.8, 283.3 27.8 " fill="#FF0000"/>
<path class="atom-18" d="M 288.2 20.6 L 289.3 20.6 L 289.3 24.0 L 293.5 24.0 L 293.5 20.6 L 294.6 20.6 L 294.6 28.6 L 293.5 28.6 L 293.5 24.9 L 289.3 24.9 L 289.3 28.6 L 288.2 28.6 L 288.2 20.6 " fill="#FF0000"/>
<path class="atom-20" d="M 221.2 118.5 Q 221.2 116.6, 222.2 115.5 Q 223.1 114.4, 224.9 114.4 Q 226.7 114.4, 227.7 115.5 Q 228.6 116.6, 228.6 118.5 Q 228.6 120.5, 227.6 121.6 Q 226.7 122.7, 224.9 122.7 Q 223.1 122.7, 222.2 121.6 Q 221.2 120.5, 221.2 118.5 M 224.9 121.8 Q 226.1 121.8, 226.8 121.0 Q 227.5 120.2, 227.5 118.5 Q 227.5 117.0, 226.8 116.2 Q 226.1 115.4, 224.9 115.4 Q 223.7 115.4, 223.0 116.2 Q 222.3 117.0, 222.3 118.5 Q 222.3 120.2, 223.0 121.0 Q 223.7 121.8, 224.9 121.8 " fill="#FF0000"/>
<path class="atom-21" d="M 226.1 142.9 Q 227.5 142.9, 228.2 143.6 Q 228.9 144.2, 228.9 145.3 Q 228.9 146.4, 228.2 147.1 Q 227.5 147.7, 226.1 147.7 L 224.8 147.7 L 224.8 151.0 L 223.7 151.0 L 223.7 142.9 L 226.1 142.9 M 226.1 146.8 Q 226.9 146.8, 227.3 146.4 Q 227.8 146.0, 227.8 145.3 Q 227.8 144.6, 227.3 144.2 Q 226.9 143.9, 226.1 143.9 L 224.8 143.9 L 224.8 146.8 L 226.1 146.8 " fill="#FF7F00"/>
<path class="atom-22" d="M 251.1 145.6 Q 251.1 143.7, 252.0 142.6 Q 253.0 141.5, 254.8 141.5 Q 256.6 141.5, 257.5 142.6 Q 258.5 143.7, 258.5 145.6 Q 258.5 147.5, 257.5 148.7 Q 256.5 149.8, 254.8 149.8 Q 253.0 149.8, 252.0 148.7 Q 251.1 147.6, 251.1 145.6 M 254.8 148.9 Q 256.0 148.9, 256.7 148.0 Q 257.3 147.2, 257.3 145.6 Q 257.3 144.0, 256.7 143.2 Q 256.0 142.4, 254.8 142.4 Q 253.5 142.4, 252.9 143.2 Q 252.2 144.0, 252.2 145.6 Q 252.2 147.2, 252.9 148.0 Q 253.5 148.9, 254.8 148.9 " fill="#FF0000"/>
<path class="atom-23" d="M 186.2 144.4 L 187.3 144.4 L 187.3 147.8 L 191.4 147.8 L 191.4 144.4 L 192.5 144.4 L 192.5 152.5 L 191.4 152.5 L 191.4 148.7 L 187.3 148.7 L 187.3 152.5 L 186.2 152.5 L 186.2 144.4 " fill="#FF0000"/>
<path class="atom-23" d="M 194.2 148.4 Q 194.2 146.5, 195.1 145.4 Q 196.1 144.3, 197.9 144.3 Q 199.7 144.3, 200.6 145.4 Q 201.6 146.5, 201.6 148.4 Q 201.6 150.4, 200.6 151.5 Q 199.6 152.6, 197.9 152.6 Q 196.1 152.6, 195.1 151.5 Q 194.2 150.4, 194.2 148.4 M 197.9 151.7 Q 199.1 151.7, 199.8 150.9 Q 200.4 150.0, 200.4 148.4 Q 200.4 146.8, 199.8 146.0 Q 199.1 145.2, 197.9 145.2 Q 196.6 145.2, 196.0 146.0 Q 195.3 146.8, 195.3 148.4 Q 195.3 150.0, 196.0 150.9 Q 196.6 151.7, 197.9 151.7 " fill="#FF0000"/>
<path class="atom-24" d="M 224.0 175.5 Q 224.0 173.5, 225.0 172.4 Q 225.9 171.4, 227.7 171.4 Q 229.5 171.4, 230.5 172.4 Q 231.4 173.5, 231.4 175.5 Q 231.4 177.4, 230.5 178.5 Q 229.5 179.6, 227.7 179.6 Q 226.0 179.6, 225.0 178.5 Q 224.0 177.4, 224.0 175.5 M 227.7 178.7 Q 229.0 178.7, 229.6 177.9 Q 230.3 177.1, 230.3 175.5 Q 230.3 173.9, 229.6 173.1 Q 229.0 172.3, 227.7 172.3 Q 226.5 172.3, 225.8 173.1 Q 225.2 173.9, 225.2 175.5 Q 225.2 177.1, 225.8 177.9 Q 226.5 178.7, 227.7 178.7 " fill="#FF0000"/>
<path class="atom-24" d="M 232.7 171.4 L 233.8 171.4 L 233.8 174.9 L 237.9 174.9 L 237.9 171.4 L 239.0 171.4 L 239.0 179.5 L 237.9 179.5 L 237.9 175.8 L 233.8 175.8 L 233.8 179.5 L 232.7 179.5 L 232.7 171.4 " fill="#FF0000"/>
<path class="atom-26" d="M 165.9 146.5 Q 165.9 144.6, 166.9 143.5 Q 167.8 142.4, 169.6 142.4 Q 171.4 142.4, 172.4 143.5 Q 173.3 144.6, 173.3 146.5 Q 173.3 148.5, 172.3 149.6 Q 171.4 150.7, 169.6 150.7 Q 167.8 150.7, 166.9 149.6 Q 165.9 148.5, 165.9 146.5 M 169.6 149.8 Q 170.8 149.8, 171.5 149.0 Q 172.2 148.2, 172.2 146.5 Q 172.2 145.0, 171.5 144.2 Q 170.8 143.3, 169.6 143.3 Q 168.4 143.3, 167.7 144.1 Q 167.0 144.9, 167.0 146.5 Q 167.0 148.2, 167.7 149.0 Q 168.4 149.8, 169.6 149.8 " fill="#FF0000"/>
<path class="atom-26" d="M 174.6 142.5 L 175.7 142.5 L 175.7 146.0 L 179.8 146.0 L 179.8 142.5 L 180.9 142.5 L 180.9 150.6 L 179.8 150.6 L 179.8 146.9 L 175.7 146.9 L 175.7 150.6 L 174.6 150.6 L 174.6 142.5 " fill="#FF0000"/>
</g>
    <g transform="translate(376.0, 0) scale(1 1) "><line x1="5" y1="100" x2="35" y2="100" style="stroke:rgb(0,0,0);stroke-width:2"/>
  <line x1="34" y1="100" x2="29" y2="95" style="stroke:rgb(0,0,0);stroke-width:2"/>
  <line x1="34" y1="100" x2="29" y2="105" style="stroke:rgb(0,0,0);stroke-width:2"/>
</g>
    <g transform="translate(416.0, 0) scale(1 1) "><!-- END OF HEADER -->
<rect style="opacity:1.0;fill:#FFFFFF;stroke:none" width="297.0" height="200.0" x="0.0" y="0.0"> </rect>
<path class="bond-0 atom-0 atom-1" d="M 33.1,83.2 L 43.9,79.7" style="fill:none;fill-rule:evenodd;stroke:#0000FF;stroke-width:2.0px;stroke-linecap:butt;stroke-linejoin:miter;stroke-opacity:1"/>
<path class="bond-0 atom-0 atom-1" d="M 43.9,79.7 L 54.6,76.2" style="fill:none;fill-rule:evenodd;stroke:#000000;stroke-width:2.0px;stroke-linecap:butt;stroke-linejoin:miter;stroke-opacity:1"/>
<path class="bond-1 atom-1 atom-2" d="M 54.6,76.2 L 56.9,65.5" style="fill:none;fill-rule:evenodd;stroke:#000000;stroke-width:2.0px;stroke-linecap:butt;stroke-linejoin:miter;stroke-opacity:1"/>
<path class="bond-1 atom-1 atom-2" d="M 56.9,65.5 L 59.2,54.9" style="fill:none;fill-rule:evenodd;stroke:#0000FF;stroke-width:2.0px;stroke-linecap:butt;stroke-linejoin:miter;stroke-opacity:1"/>
<path class="bond-1 atom-1 atom-2" d="M 59.0,74.8 L 61.0,65.3" style="fill:none;fill-rule:evenodd;stroke:#000000;stroke-width:2.0px;stroke-linecap:butt;stroke-linejoin:miter;stroke-opacity:1"/>
<path class="bond-1 atom-1 atom-2" d="M 61.0,65.3 L 63.1,55.7" style="fill:none;fill-rule:evenodd;stroke:#0000FF;stroke-width:2.0px;stroke-linecap:butt;stroke-linejoin:miter;stroke-opacity:1"/>
<path class="bond-2 atom-2 atom-3" d="M 63.9,49.0 L 74.6,45.5" style="fill:none;fill-rule:evenodd;stroke:#0000FF;stroke-width:2.0px;stroke-linecap:butt;stroke-linejoin:miter;stroke-opacity:1"/>
<path class="bond-2 atom-2 atom-3" d="M 74.6,45.5 L 85.4,42.0" style="fill:none;fill-rule:evenodd;stroke:#000000;stroke-width:2.0px;stroke-linecap:butt;stroke-linejoin:miter;stroke-opacity:1"/>
<path class="bond-3 atom-3 atom-4" d="M 85.4,42.0 L 93.4,49.3" style="fill:none;fill-rule:evenodd;stroke:#000000;stroke-width:2.0px;stroke-linecap:butt;stroke-linejoin:miter;stroke-opacity:1"/>
<path class="bond-3 atom-3 atom-4" d="M 93.4,49.3 L 101.4,56.5" style="fill:none;fill-rule:evenodd;stroke:#0000FF;stroke-width:2.0px;stroke-linecap:butt;stroke-linejoin:miter;stroke-opacity:1"/>
<path class="bond-3 atom-3 atom-4" d="M 84.4,46.5 L 91.6,53.0" style="fill:none;fill-rule:evenodd;stroke:#000000;stroke-width:2.0px;stroke-linecap:butt;stroke-linejoin:miter;stroke-opacity:1"/>
<path class="bond-3 atom-3 atom-4" d="M 91.6,53.0 L 98.7,59.4" style="fill:none;fill-rule:evenodd;stroke:#0000FF;stroke-width:2.0px;stroke-linecap:butt;stroke-linejoin:miter;stroke-opacity:1"/>
<path class="bond-4 atom-4 atom-5" d="M 104.1,64.5 L 101.9,75.1" style="fill:none;fill-rule:evenodd;stroke:#0000FF;stroke-width:2.0px;stroke-linecap:butt;stroke-linejoin:miter;stroke-opacity:1"/>
<path class="bond-4 atom-4 atom-5" d="M 101.9,75.1 L 99.6,85.8" style="fill:none;fill-rule:evenodd;stroke:#000000;stroke-width:2.0px;stroke-linecap:butt;stroke-linejoin:miter;stroke-opacity:1"/>
<path class="bond-5 atom-5 atom-6" d="M 99.6,85.8 L 74.3,94.0" style="fill:none;fill-rule:evenodd;stroke:#000000;stroke-width:2.0px;stroke-linecap:butt;stroke-linejoin:miter;stroke-opacity:1"/>
<path class="bond-5 atom-5 atom-6" d="M 96.2,82.7 L 75.3,89.5" style="fill:none;fill-rule:evenodd;stroke:#000000;stroke-width:2.0px;stroke-linecap:butt;stroke-linejoin:miter;stroke-opacity:1"/>
<path class="bond-6 atom-6 atom-7" d="M 74.3,94.0 L 74.3,105.0" style="fill:none;fill-rule:evenodd;stroke:#000000;stroke-width:2.0px;stroke-linecap:butt;stroke-linejoin:miter;stroke-opacity:1"/>
<path class="bond-6 atom-6 atom-7" d="M 74.3,105.0 L 74.3,115.9" style="fill:none;fill-rule:evenodd;stroke:#0000FF;stroke-width:2.0px;stroke-linecap:butt;stroke-linejoin:miter;stroke-opacity:1"/>
<path class="bond-7 atom-7 atom-8" d="M 78.1,121.8 L 88.8,125.3" style="fill:none;fill-rule:evenodd;stroke:#0000FF;stroke-width:2.0px;stroke-linecap:butt;stroke-linejoin:miter;stroke-opacity:1"/>
<path class="bond-7 atom-7 atom-8" d="M 88.8,125.3 L 99.6,128.8" style="fill:none;fill-rule:evenodd;stroke:#000000;stroke-width:2.0px;stroke-linecap:butt;stroke-linejoin:miter;stroke-opacity:1"/>
<path class="bond-7 atom-7 atom-8" d="M 79.3,118.0 L 88.7,121.0" style="fill:none;fill-rule:evenodd;stroke:#0000FF;stroke-width:2.0px;stroke-linecap:butt;stroke-linejoin:miter;stroke-opacity:1"/>
<path class="bond-7 atom-7 atom-8" d="M 88.7,121.0 L 98.1,124.1" style="fill:none;fill-rule:evenodd;stroke:#000000;stroke-width:2.0px;stroke-linecap:butt;stroke-linejoin:miter;stroke-opacity:1"/>
<path class="bond-8 atom-8 atom-9" d="M 99.6,128.8 L 105.7,120.3" style="fill:none;fill-rule:evenodd;stroke:#000000;stroke-width:2.0px;stroke-linecap:butt;stroke-linejoin:miter;stroke-opacity:1"/>
<path class="bond-8 atom-8 atom-9" d="M 105.7,120.3 L 111.8,111.9" style="fill:none;fill-rule:evenodd;stroke:#0000FF;stroke-width:2.0px;stroke-linecap:butt;stroke-linejoin:miter;stroke-opacity:1"/>
<path class="bond-9 atom-9 atom-10" d="M 118.9,107.3 L 130.3,107.3" style="fill:none;fill-rule:evenodd;stroke:#0000FF;stroke-width:2.0px;stroke-linecap:butt;stroke-linejoin:miter;stroke-opacity:1"/>
<path class="bond-9 atom-9 atom-10" d="M 130.3,107.3 L 141.8,107.3" style="fill:none;fill-rule:evenodd;stroke:#000000;stroke-width:2.0px;stroke-linecap:butt;stroke-linejoin:miter;stroke-opacity:1"/>
<path class="bond-10 atom-10 atom-11" d="M 141.8,107.3 L 147.8,99.0" style="fill:none;fill-rule:evenodd;stroke:#000000;stroke-width:2.0px;stroke-linecap:butt;stroke-linejoin:miter;stroke-opacity:1"/>
<path class="bond-10 atom-10 atom-11" d="M 147.8,99.0 L 153.9,90.6" style="fill:none;fill-rule:evenodd;stroke:#FF0000;stroke-width:2.0px;stroke-linecap:butt;stroke-linejoin:miter;stroke-opacity:1"/>
<path class="bond-11 atom-11 atom-12" d="M 161.7,87.2 L 172.2,90.6" style="fill:none;fill-rule:evenodd;stroke:#FF0000;stroke-width:2.0px;stroke-linecap:butt;stroke-linejoin:miter;stroke-opacity:1"/>
<path class="bond-11 atom-11 atom-12" d="M 172.2,90.6 L 182.6,94.0" style="fill:none;fill-rule:evenodd;stroke:#000000;stroke-width:2.0px;stroke-linecap:butt;stroke-linejoin:miter;stroke-opacity:1"/>
<path class="bond-12 atom-12 atom-13" d="M 182.6,94.0 L 204.1,78.4" style="fill:none;fill-rule:evenodd;stroke:#000000;stroke-width:2.0px;stroke-linecap:butt;stroke-linejoin:miter;stroke-opacity:1"/>
<path class="bond-13 atom-13 atom-14" d="M 204.1,78.4 L 214.1,82.9" style="fill:none;fill-rule:evenodd;stroke:#000000;stroke-width:2.0px;stroke-linecap:butt;stroke-linejoin:miter;stroke-opacity:1"/>
<path class="bond-13 atom-13 atom-14" d="M 214.1,82.9 L 224.0,87.3" style="fill:none;fill-rule:evenodd;stroke:#FF0000;stroke-width:2.0px;stroke-linecap:butt;stroke-linejoin:miter;stroke-opacity:1"/>
<path class="bond-14 atom-14 atom-15" d="M 232.7,86.1 L 239.6,81.1" style="fill:none;fill-rule:evenodd;stroke:#FF0000;stroke-width:2.0px;stroke-linecap:butt;stroke-linejoin:miter;stroke-opacity:1"/>
<path class="bond-14 atom-14 atom-15" d="M 239.6,81.1 L 246.6,76.0" style="fill:none;fill-rule:evenodd;stroke:#FF7F00;stroke-width:2.0px;stroke-linecap:butt;stroke-linejoin:miter;stroke-opacity:1"/>
<path class="bond-15 atom-15 atom-16" d="M 251.5,79.3 L 256.0,85.5" style="fill:none;fill-rule:evenodd;stroke:#FF7F00;stroke-width:2.0px;stroke-linecap:butt;stroke-linejoin:miter;stroke-opacity:1"/>
<path class="bond-15 atom-15 atom-16" d="M 256.0,85.5 L 260.4,91.6" style="fill:none;fill-rule:evenodd;stroke:#FF0000;stroke-width:2.0px;stroke-linecap:butt;stroke-linejoin:miter;stroke-opacity:1"/>
<path class="bond-15 atom-15 atom-16" d="M 254.7,77.0 L 259.2,83.1" style="fill:none;fill-rule:evenodd;stroke:#FF7F00;stroke-width:2.0px;stroke-linecap:butt;stroke-linejoin:miter;stroke-opacity:1"/>
<path class="bond-15 atom-15 atom-16" d="M 259.2,83.1 L 263.7,89.3" style="fill:none;fill-rule:evenodd;stroke:#FF0000;stroke-width:2.0px;stroke-linecap:butt;stroke-linejoin:miter;stroke-opacity:1"/>
<path class="bond-16 atom-15 atom-17" d="M 246.6,69.1 L 242.2,63.0" style="fill:none;fill-rule:evenodd;stroke:#FF7F00;stroke-width:2.0px;stroke-linecap:butt;stroke-linejoin:miter;stroke-opacity:1"/>
<path class="bond-16 atom-15 atom-17" d="M 242.2,63.0 L 237.7,56.9" style="fill:none;fill-rule:evenodd;stroke:#FF0000;stroke-width:2.0px;stroke-linecap:butt;stroke-linejoin:miter;stroke-opacity:1"/>
<path class="bond-17 atom-15 atom-18" d="M 253.1,71.3 L 260.1,66.2" style="fill:none;fill-rule:evenodd;stroke:#FF7F00;stroke-width:2.0px;stroke-linecap:butt;stroke-linejoin:miter;stroke-opacity:1"/>
<path class="bond-17 atom-15 atom-18" d="M 260.1,66.2 L 267.0,61.2" style="fill:none;fill-rule:evenodd;stroke:#FF0000;stroke-width:2.0px;stroke-linecap:butt;stroke-linejoin:miter;stroke-opacity:1"/>
<path class="bond-18 atom-12 atom-19" d="M 182.6,94.0 L 182.6,120.6" style="fill:none;fill-rule:evenodd;stroke:#000000;stroke-width:2.0px;stroke-linecap:butt;stroke-linejoin:miter;stroke-opacity:1"/>
<path class="bond-19 atom-19 atom-20" d="M 182.6,120.6 L 191.2,126.8" style="fill:none;fill-rule:evenodd;stroke:#000000;stroke-width:2.0px;stroke-linecap:butt;stroke-linejoin:miter;stroke-opacity:1"/>
<path class="bond-19 atom-19 atom-20" d="M 191.2,126.8 L 199.8,133.1" style="fill:none;fill-rule:evenodd;stroke:#FF0000;stroke-width:2.0px;stroke-linecap:butt;stroke-linejoin:miter;stroke-opacity:1"/>
<path class="bond-20 atom-19 atom-21" d="M 182.6,120.6 L 157.4,128.8" style="fill:none;fill-rule:evenodd;stroke:#000000;stroke-width:2.0px;stroke-linecap:butt;stroke-linejoin:miter;stroke-opacity:1"/>
<path class="bond-21 atom-21 atom-22" d="M 157.4,128.8 L 154.0,139.1" style="fill:none;fill-rule:evenodd;stroke:#000000;stroke-width:2.0px;stroke-linecap:butt;stroke-linejoin:miter;stroke-opacity:1"/>
<path class="bond-21 atom-21 atom-22" d="M 154.0,139.1 L 150.7,149.4" style="fill:none;fill-rule:evenodd;stroke:#FF0000;stroke-width:2.0px;stroke-linecap:butt;stroke-linejoin:miter;stroke-opacity:1"/>
<path class="bond-22 atom-6 atom-1" d="M 74.3,94.0 L 54.6,76.2" style="fill:none;fill-rule:evenodd;stroke:#000000;stroke-width:2.0px;stroke-linecap:butt;stroke-linejoin:miter;stroke-opacity:1"/>
<path class="bond-23 atom-21 atom-10" d="M 157.4,128.8 L 141.8,107.3" style="fill:none;fill-rule:evenodd;stroke:#000000;stroke-width:2.0px;stroke-linecap:butt;stroke-linejoin:miter;stroke-opacity:1"/>
<path class="bond-24 atom-9 atom-5" d="M 111.8,102.6 L 105.7,94.2" style="fill:none;fill-rule:evenodd;stroke:#0000FF;stroke-width:2.0px;stroke-linecap:butt;stroke-linejoin:miter;stroke-opacity:1"/>
<path class="bond-24 atom-9 atom-5" d="M 105.7,94.2 L 99.6,85.8" style="fill:none;fill-rule:evenodd;stroke:#000000;stroke-width:2.0px;stroke-linecap:butt;stroke-linejoin:miter;stroke-opacity:1"/>
<path d="M 84.9,42.2 L 85.4,42.0 L 85.8,42.4" style="fill:none;stroke:#000000;stroke-width:2.0px;stroke-linecap:butt;stroke-linejoin:miter;stroke-opacity:1;"/>
<path d="M 99.1,128.6 L 99.6,128.8 L 99.9,128.3" style="fill:none;stroke:#000000;stroke-width:2.0px;stroke-linecap:butt;stroke-linejoin:miter;stroke-opacity:1;"/>
<path d="M 203.0,79.2 L 204.1,78.4 L 204.6,78.7" style="fill:none;stroke:#000000;stroke-width:2.0px;stroke-linecap:butt;stroke-linejoin:miter;stroke-opacity:1;"/>
<path class="atom-0" d="M 14.9 80.7 L 15.9 80.7 L 15.9 83.9 L 19.7 83.9 L 19.7 80.7 L 20.7 80.7 L 20.7 88.2 L 19.7 88.2 L 19.7 84.7 L 15.9 84.7 L 15.9 88.2 L 14.9 88.2 L 14.9 80.7 " fill="#0000FF"/>
<path class="atom-0" d="M 22.2 87.9 Q 22.4 87.4, 22.8 87.2 Q 23.3 86.9, 23.9 86.9 Q 24.6 86.9, 25.0 87.3 Q 25.5 87.7, 25.5 88.4 Q 25.5 89.2, 24.9 89.9 Q 24.4 90.6, 23.2 91.4 L 25.5 91.4 L 25.5 91.9 L 22.2 91.9 L 22.2 91.5 Q 23.1 90.8, 23.7 90.3 Q 24.2 89.8, 24.5 89.4 Q 24.8 88.9, 24.8 88.5 Q 24.8 88.0, 24.5 87.7 Q 24.3 87.5, 23.9 87.5 Q 23.5 87.5, 23.2 87.6 Q 22.9 87.8, 22.7 88.2 L 22.2 87.9 " fill="#0000FF"/>
<path class="atom-0" d="M 27.7 80.7 L 30.2 84.6 Q 30.4 85.0, 30.8 85.7 Q 31.2 86.5, 31.2 86.5 L 31.2 80.7 L 32.2 80.7 L 32.2 88.2 L 31.2 88.2 L 28.5 83.8 Q 28.2 83.3, 27.9 82.7 Q 27.6 82.1, 27.5 82.0 L 27.5 88.2 L 26.5 88.2 L 26.5 80.7 L 27.7 80.7 " fill="#0000FF"/>
<path class="atom-2" d="M 58.5 46.5 L 61.0 50.5 Q 61.2 50.9, 61.6 51.6 Q 62.0 52.3, 62.0 52.3 L 62.0 46.5 L 63.0 46.5 L 63.0 54.0 L 62.0 54.0 L 59.3 49.7 Q 59.0 49.1, 58.7 48.6 Q 58.4 48.0, 58.3 47.8 L 58.3 54.0 L 57.3 54.0 L 57.3 46.5 L 58.5 46.5 " fill="#0000FF"/>
<path class="atom-4" d="M 103.5 56.1 L 105.9 60.0 Q 106.2 60.4, 106.6 61.2 Q 107.0 61.9, 107.0 61.9 L 107.0 56.1 L 108.0 56.1 L 108.0 63.6 L 107.0 63.6 L 104.3 59.2 Q 104.0 58.7, 103.7 58.1 Q 103.4 57.6, 103.3 57.4 L 103.3 63.6 L 102.3 63.6 L 102.3 56.1 L 103.5 56.1 " fill="#0000FF"/>
<path class="atom-7" d="M 72.7 116.8 L 75.1 120.8 Q 75.4 121.2, 75.8 121.9 Q 76.2 122.6, 76.2 122.6 L 76.2 116.8 L 77.2 116.8 L 77.2 124.3 L 76.2 124.3 L 73.5 120.0 Q 73.2 119.4, 72.9 118.9 Q 72.6 118.3, 72.5 118.1 L 72.5 124.3 L 71.5 124.3 L 71.5 116.8 L 72.7 116.8 " fill="#0000FF"/>
<path class="atom-9" d="M 113.5 103.5 L 116.0 107.5 Q 116.3 107.9, 116.6 108.6 Q 117.0 109.3, 117.1 109.4 L 117.1 103.5 L 118.1 103.5 L 118.1 111.0 L 117.0 111.0 L 114.4 106.7 Q 114.1 106.2, 113.7 105.6 Q 113.4 105.0, 113.3 104.8 L 113.3 111.0 L 112.4 111.0 L 112.4 103.5 L 113.5 103.5 " fill="#0000FF"/>
<path class="atom-11" d="M 153.9 85.8 Q 153.9 84.0, 154.8 83.0 Q 155.7 82.0, 157.4 82.0 Q 159.0 82.0, 159.9 83.0 Q 160.8 84.0, 160.8 85.8 Q 160.8 87.7, 159.9 88.7 Q 159.0 89.7, 157.4 89.7 Q 155.7 89.7, 154.8 88.7 Q 153.9 87.7, 153.9 85.8 M 157.4 88.9 Q 158.5 88.9, 159.1 88.1 Q 159.8 87.3, 159.8 85.8 Q 159.8 84.4, 159.1 83.6 Q 158.5 82.9, 157.4 82.9 Q 156.2 82.9, 155.6 83.6 Q 155.0 84.4, 155.0 85.8 Q 155.0 87.4, 155.6 88.1 Q 156.2 88.9, 157.4 88.9 " fill="#FF0000"/>
<path class="atom-14" d="M 224.9 89.3 Q 224.9 87.5, 225.8 86.4 Q 226.7 85.4, 228.4 85.4 Q 230.0 85.4, 230.9 86.4 Q 231.8 87.5, 231.8 89.3 Q 231.8 91.1, 230.9 92.1 Q 230.0 93.2, 228.4 93.2 Q 226.7 93.2, 225.8 92.1 Q 224.9 91.1, 224.9 89.3 M 228.4 92.3 Q 229.5 92.3, 230.1 91.5 Q 230.8 90.8, 230.8 89.3 Q 230.8 87.8, 230.1 87.0 Q 229.5 86.3, 228.4 86.3 Q 227.2 86.3, 226.6 87.0 Q 226.0 87.8, 226.0 89.3 Q 226.0 90.8, 226.6 91.5 Q 227.2 92.3, 228.4 92.3 " fill="#FF0000"/>
<path class="atom-15" d="M 249.7 69.9 Q 251.0 69.9, 251.6 70.5 Q 252.3 71.0, 252.3 72.1 Q 252.3 73.1, 251.6 73.7 Q 250.9 74.3, 249.7 74.3 L 248.5 74.3 L 248.5 77.4 L 247.5 77.4 L 247.5 69.9 L 249.7 69.9 M 249.7 73.5 Q 250.4 73.5, 250.8 73.1 Q 251.2 72.8, 251.2 72.1 Q 251.2 71.4, 250.8 71.1 Q 250.4 70.7, 249.7 70.7 L 248.5 70.7 L 248.5 73.5 L 249.7 73.5 " fill="#FF7F00"/>
<path class="atom-16" d="M 262.0 95.1 Q 262.0 93.3, 262.9 92.3 Q 263.8 91.3, 265.5 91.3 Q 267.1 91.3, 268.0 92.3 Q 268.9 93.3, 268.9 95.1 Q 268.9 97.0, 268.0 98.0 Q 267.1 99.0, 265.5 99.0 Q 263.8 99.0, 262.9 98.0 Q 262.0 97.0, 262.0 95.1 M 265.5 98.2 Q 266.6 98.2, 267.2 97.4 Q 267.8 96.7, 267.8 95.1 Q 267.8 93.7, 267.2 92.9 Q 266.6 92.2, 265.5 92.2 Q 264.3 92.2, 263.7 92.9 Q 263.1 93.7, 263.1 95.1 Q 263.1 96.7, 263.7 97.4 Q 264.3 98.2, 265.5 98.2 " fill="#FF0000"/>
<path class="atom-17" d="M 223.4 48.4 L 224.4 48.4 L 224.4 51.6 L 228.2 51.6 L 228.2 48.4 L 229.3 48.4 L 229.3 56.0 L 228.2 56.0 L 228.2 52.5 L 224.4 52.5 L 224.4 56.0 L 223.4 56.0 L 223.4 48.4 " fill="#FF0000"/>
<path class="atom-17" d="M 230.8 52.2 Q 230.8 50.4, 231.7 49.4 Q 232.6 48.3, 234.3 48.3 Q 235.9 48.3, 236.8 49.4 Q 237.7 50.4, 237.7 52.2 Q 237.7 54.0, 236.8 55.0 Q 235.9 56.1, 234.3 56.1 Q 232.6 56.1, 231.7 55.0 Q 230.8 54.0, 230.8 52.2 M 234.3 55.2 Q 235.4 55.2, 236.0 54.5 Q 236.6 53.7, 236.6 52.2 Q 236.6 50.7, 236.0 50.0 Q 235.4 49.2, 234.3 49.2 Q 233.1 49.2, 232.5 49.9 Q 231.9 50.7, 231.9 52.2 Q 231.9 53.7, 232.5 54.5 Q 233.1 55.2, 234.3 55.2 " fill="#FF0000"/>
<path class="atom-18" d="M 267.9 58.1 Q 267.9 56.3, 268.8 55.2 Q 269.7 54.2, 271.3 54.2 Q 273.0 54.2, 273.9 55.2 Q 274.8 56.3, 274.8 58.1 Q 274.8 59.9, 273.9 60.9 Q 273.0 62.0, 271.3 62.0 Q 269.7 62.0, 268.8 60.9 Q 267.9 59.9, 267.9 58.1 M 271.3 61.1 Q 272.5 61.1, 273.1 60.3 Q 273.7 59.6, 273.7 58.1 Q 273.7 56.6, 273.1 55.8 Q 272.5 55.1, 271.3 55.1 Q 270.2 55.1, 269.6 55.8 Q 269.0 56.6, 269.0 58.1 Q 269.0 59.6, 269.6 60.3 Q 270.2 61.1, 271.3 61.1 " fill="#FF0000"/>
<path class="atom-18" d="M 276.0 54.3 L 277.0 54.3 L 277.0 57.5 L 280.8 57.5 L 280.8 54.3 L 281.9 54.3 L 281.9 61.8 L 280.8 61.8 L 280.8 58.4 L 277.0 58.4 L 277.0 61.8 L 276.0 61.8 L 276.0 54.3 " fill="#FF0000"/>
<path class="atom-20" d="M 200.6 136.2 Q 200.6 134.4, 201.5 133.4 Q 202.4 132.4, 204.1 132.4 Q 205.8 132.4, 206.7 133.4 Q 207.5 134.4, 207.5 136.2 Q 207.5 138.0, 206.6 139.1 Q 205.7 140.1, 204.1 140.1 Q 202.4 140.1, 201.5 139.1 Q 200.6 138.1, 200.6 136.2 M 204.1 139.3 Q 205.2 139.3, 205.9 138.5 Q 206.5 137.7, 206.5 136.2 Q 206.5 134.7, 205.9 134.0 Q 205.2 133.2, 204.1 133.2 Q 202.9 133.2, 202.3 134.0 Q 201.7 134.7, 201.7 136.2 Q 201.7 137.7, 202.3 138.5 Q 202.9 139.3, 204.1 139.3 " fill="#FF0000"/>
<path class="atom-20" d="M 208.7 132.5 L 209.7 132.5 L 209.7 135.7 L 213.6 135.7 L 213.6 132.5 L 214.6 132.5 L 214.6 140.0 L 213.6 140.0 L 213.6 136.5 L 209.7 136.5 L 209.7 140.0 L 208.7 140.0 L 208.7 132.5 " fill="#FF0000"/>
<path class="atom-22" d="M 145.7 154.1 Q 145.7 152.2, 146.6 151.2 Q 147.5 150.2, 149.1 150.2 Q 150.8 150.2, 151.7 151.2 Q 152.6 152.2, 152.6 154.1 Q 152.6 155.9, 151.7 156.9 Q 150.8 158.0, 149.1 158.0 Q 147.5 158.0, 146.6 156.9 Q 145.7 155.9, 145.7 154.1 M 149.1 157.1 Q 150.3 157.1, 150.9 156.3 Q 151.5 155.6, 151.5 154.1 Q 151.5 152.6, 150.9 151.8 Q 150.3 151.1, 149.1 151.1 Q 148.0 151.1, 147.4 151.8 Q 146.8 152.6, 146.8 154.1 Q 146.8 155.6, 147.4 156.3 Q 148.0 157.1, 149.1 157.1 " fill="#FF0000"/>
<path class="atom-22" d="M 153.8 150.3 L 154.8 150.3 L 154.8 153.5 L 158.6 153.5 L 158.6 150.3 L 159.7 150.3 L 159.7 157.8 L 158.6 157.8 L 158.6 154.4 L 154.8 154.4 L 154.8 157.8 L 153.8 157.8 L 153.8 150.3 " fill="#FF0000"/>
</g>
    <g transform="translate(713.0, 0) scale(1 1) "><line x1="15" y1="100" x2="25" y2="100" style="stroke:rgb(0,0,0);stroke-width:2"/>
  <line x1="20" y1="95" x2="20" y2="105" style="stroke:rgb(0,0,0);stroke-width:2"/>
</g>
    <g transform="translate(753.0, 0) scale(1 1) "><!-- END OF HEADER -->
<rect style="opacity:1.0;fill:#FFFFFF;stroke:none" width="164.0" height="200.0" x="0.0" y="0.0"> </rect>
<path class="bond-0 atom-0 atom-1" d="M 24.8,122.1 L 43.7,111.2" style="fill:none;fill-rule:evenodd;stroke:#FF0000;stroke-width:2.0px;stroke-linecap:butt;stroke-linejoin:miter;stroke-opacity:1"/>
<path class="bond-0 atom-0 atom-1" d="M 43.7,111.2 L 62.6,100.3" style="fill:none;fill-rule:evenodd;stroke:#FF7F00;stroke-width:2.0px;stroke-linecap:butt;stroke-linejoin:miter;stroke-opacity:1"/>
<path class="bond-0 atom-0 atom-1" d="M 29.7,130.5 L 48.6,119.6" style="fill:none;fill-rule:evenodd;stroke:#FF0000;stroke-width:2.0px;stroke-linecap:butt;stroke-linejoin:miter;stroke-opacity:1"/>
<path class="bond-0 atom-0 atom-1" d="M 48.6,119.6 L 67.5,108.7" style="fill:none;fill-rule:evenodd;stroke:#FF7F00;stroke-width:2.0px;stroke-linecap:butt;stroke-linejoin:miter;stroke-opacity:1"/>
<path class="bond-1 atom-1 atom-2" d="M 81.1,95.2 L 100.0,84.3" style="fill:none;fill-rule:evenodd;stroke:#FF7F00;stroke-width:2.0px;stroke-linecap:butt;stroke-linejoin:miter;stroke-opacity:1"/>
<path class="bond-1 atom-1 atom-2" d="M 100.0,84.3 L 118.8,73.4" style="fill:none;fill-rule:evenodd;stroke:#FF0000;stroke-width:2.0px;stroke-linecap:butt;stroke-linejoin:miter;stroke-opacity:1"/>
<path class="bond-2 atom-1 atom-3" d="M 79.6,111.2 L 89.3,128.0" style="fill:none;fill-rule:evenodd;stroke:#FF7F00;stroke-width:2.0px;stroke-linecap:butt;stroke-linejoin:miter;stroke-opacity:1"/>
<path class="bond-2 atom-1 atom-3" d="M 89.3,128.0 L 99.0,144.8" style="fill:none;fill-rule:evenodd;stroke:#FF0000;stroke-width:2.0px;stroke-linecap:butt;stroke-linejoin:miter;stroke-opacity:1"/>
<path class="bond-3 atom-1 atom-4" d="M 66.5,88.5 L 56.9,71.9" style="fill:none;fill-rule:evenodd;stroke:#FF7F00;stroke-width:2.0px;stroke-linecap:butt;stroke-linejoin:miter;stroke-opacity:1"/>
<path class="bond-3 atom-1 atom-4" d="M 56.9,71.9 L 47.3,55.2" style="fill:none;fill-rule:evenodd;stroke:#FF0000;stroke-width:2.0px;stroke-linecap:butt;stroke-linejoin:miter;stroke-opacity:1"/>
<path class="atom-0" d="M 8.2 132.5 Q 8.2 128.0, 10.4 125.6 Q 12.6 123.1, 16.7 123.1 Q 20.8 123.1, 22.9 125.6 Q 25.1 128.0, 25.1 132.5 Q 25.1 136.9, 22.9 139.5 Q 20.7 142.0, 16.7 142.0 Q 12.6 142.0, 10.4 139.5 Q 8.2 137.0, 8.2 132.5 M 16.7 139.9 Q 19.5 139.9, 21.0 138.1 Q 22.5 136.2, 22.5 132.5 Q 22.5 128.8, 21.0 127.0 Q 19.5 125.2, 16.7 125.2 Q 13.9 125.2, 12.3 127.0 Q 10.8 128.8, 10.8 132.5 Q 10.8 136.2, 12.3 138.1 Q 13.9 139.9, 16.7 139.9 " fill="#FF0000"/>
<path class="atom-1" d="M 72.6 90.6 Q 75.8 90.6, 77.3 92.1 Q 78.9 93.5, 78.9 96.1 Q 78.9 98.6, 77.3 100.1 Q 75.7 101.5, 72.6 101.5 L 69.7 101.5 L 69.7 109.1 L 67.2 109.1 L 67.2 90.6 L 72.6 90.6 M 72.6 99.4 Q 74.4 99.4, 75.4 98.6 Q 76.3 97.7, 76.3 96.1 Q 76.3 94.4, 75.4 93.6 Q 74.4 92.7, 72.6 92.7 L 69.7 92.7 L 69.7 99.4 L 72.6 99.4 " fill="#FF7F00"/>
<path class="atom-2" d="M 121.0 67.4 Q 121.0 62.9, 123.2 60.5 Q 125.3 58.0, 129.4 58.0 Q 133.5 58.0, 135.7 60.5 Q 137.9 62.9, 137.9 67.4 Q 137.9 71.8, 135.7 74.4 Q 133.5 76.9, 129.4 76.9 Q 125.4 76.9, 123.2 74.4 Q 121.0 71.9, 121.0 67.4 M 129.4 74.8 Q 132.3 74.8, 133.8 73.0 Q 135.3 71.1, 135.3 67.4 Q 135.3 63.7, 133.8 61.9 Q 132.3 60.1, 129.4 60.1 Q 126.6 60.1, 125.1 61.9 Q 123.6 63.7, 123.6 67.4 Q 123.6 71.1, 125.1 73.0 Q 126.6 74.8, 129.4 74.8 " fill="#FF0000"/>
<path class="atom-2" d="M 140.8 58.2 L 143.3 58.2 L 143.3 66.0 L 152.7 66.0 L 152.7 58.2 L 155.2 58.2 L 155.2 76.6 L 152.7 76.6 L 152.7 68.1 L 143.3 68.1 L 143.3 76.6 L 140.8 76.6 L 140.8 58.2 " fill="#FF0000"/>
<path class="atom-3" d="M 97.1 156.3 Q 97.1 151.9, 99.3 149.4 Q 101.5 146.9, 105.6 146.9 Q 109.7 146.9, 111.9 149.4 Q 114.1 151.9, 114.1 156.3 Q 114.1 160.8, 111.9 163.3 Q 109.6 165.9, 105.6 165.9 Q 101.5 165.9, 99.3 163.3 Q 97.1 160.8, 97.1 156.3 M 105.6 163.8 Q 108.4 163.8, 109.9 161.9 Q 111.5 160.0, 111.5 156.3 Q 111.5 152.7, 109.9 150.9 Q 108.4 149.0, 105.6 149.0 Q 102.8 149.0, 101.3 150.8 Q 99.7 152.6, 99.7 156.3 Q 99.7 160.0, 101.3 161.9 Q 102.8 163.8, 105.6 163.8 " fill="#FF0000"/>
<path class="atom-3" d="M 116.9 147.1 L 119.4 147.1 L 119.4 155.0 L 128.9 155.0 L 128.9 147.1 L 131.4 147.1 L 131.4 165.6 L 128.9 165.6 L 128.9 157.1 L 119.4 157.1 L 119.4 165.6 L 116.9 165.6 L 116.9 147.1 " fill="#FF0000"/>
<path class="atom-4" d="M 13.8 34.4 L 16.3 34.4 L 16.3 42.2 L 25.7 42.2 L 25.7 34.4 L 28.3 34.4 L 28.3 52.8 L 25.7 52.8 L 25.7 44.3 L 16.3 44.3 L 16.3 52.8 L 13.8 52.8 L 13.8 34.4 " fill="#FF0000"/>
<path class="atom-4" d="M 32.0 43.5 Q 32.0 39.1, 34.2 36.6 Q 36.4 34.1, 40.5 34.1 Q 44.6 34.1, 46.8 36.6 Q 49.0 39.1, 49.0 43.5 Q 49.0 48.0, 46.7 50.6 Q 44.5 53.1, 40.5 53.1 Q 36.4 53.1, 34.2 50.6 Q 32.0 48.0, 32.0 43.5 M 40.5 51.0 Q 43.3 51.0, 44.8 49.1 Q 46.4 47.2, 46.4 43.5 Q 46.4 39.9, 44.8 38.1 Q 43.3 36.2, 40.5 36.2 Q 37.7 36.2, 36.1 38.1 Q 34.6 39.9, 34.6 43.5 Q 34.6 47.2, 36.1 49.1 Q 37.7 51.0, 40.5 51.0 " fill="#FF0000"/>
</g>
  </g>
</svg>
