<?xml version='1.0' encoding='ASCII' standalone='yes'?>
<svg xmlns="http://www.w3.org/2000/svg" xmlns:xlink="http://www.w3.org/1999/xlink" version="1.1" width="770.0px" viewBox="0 0 770.0 200.0" height="200.0px">
  <g>
    <g transform="translate(0, 0) scale(1 1) "><!-- END OF HEADER -->
<rect style="opacity:1.0;fill:#FFFFFF;stroke:none" width="240.0" height="200.0" x="0.0" y="0.0"> </rect>
<path class="bond-0 atom-0 atom-1" d="M 33.5,79.7 L 42.3,92.7" style="fill:none;fill-rule:evenodd;stroke:#FF0000;stroke-width:2.0px;stroke-linecap:butt;stroke-linejoin:miter;stroke-opacity:1"/>
<path class="bond-0 atom-0 atom-1" d="M 42.3,92.7 L 51.2,105.8" style="fill:none;fill-rule:evenodd;stroke:#000000;stroke-width:2.0px;stroke-linecap:butt;stroke-linejoin:miter;stroke-opacity:1"/>
<path class="bond-1 atom-1 atom-2" d="M 51.2,105.8 L 91.4,102.8" style="fill:none;fill-rule:evenodd;stroke:#000000;stroke-width:2.0px;stroke-linecap:butt;stroke-linejoin:miter;stroke-opacity:1"/>
<path class="bond-2 atom-2 atom-3" d="M 91.4,102.8 L 98.4,88.3" style="fill:none;fill-rule:evenodd;stroke:#000000;stroke-width:2.0px;stroke-linecap:butt;stroke-linejoin:miter;stroke-opacity:1"/>
<path class="bond-2 atom-2 atom-3" d="M 98.4,88.3 L 105.4,73.8" style="fill:none;fill-rule:evenodd;stroke:#FF0000;stroke-width:2.0px;stroke-linecap:butt;stroke-linejoin:miter;stroke-opacity:1"/>
<path class="bond-3 atom-3 atom-4" d="M 115.5,66.1 L 132.4,64.8" style="fill:none;fill-rule:evenodd;stroke:#FF0000;stroke-width:2.0px;stroke-linecap:butt;stroke-linejoin:miter;stroke-opacity:1"/>
<path class="bond-3 atom-3 atom-4" d="M 132.4,64.8 L 149.2,63.6" style="fill:none;fill-rule:evenodd;stroke:#000000;stroke-width:2.0px;stroke-linecap:butt;stroke-linejoin:miter;stroke-opacity:1"/>
<path class="bond-4 atom-4 atom-5" d="M 149.2,63.6 L 156.2,49.1" style="fill:none;fill-rule:evenodd;stroke:#000000;stroke-width:2.0px;stroke-linecap:butt;stroke-linejoin:miter;stroke-opacity:1"/>
<path class="bond-4 atom-4 atom-5" d="M 156.2,49.1 L 163.2,34.6" style="fill:none;fill-rule:evenodd;stroke:#FF0000;stroke-width:2.0px;stroke-linecap:butt;stroke-linejoin:miter;stroke-opacity:1"/>
<path class="bond-5 atom-4 atom-6" d="M 149.2,63.6 L 171.8,97.0" style="fill:none;fill-rule:evenodd;stroke:#000000;stroke-width:2.0px;stroke-linecap:butt;stroke-linejoin:miter;stroke-opacity:1"/>
<path class="bond-6 atom-6 atom-7" d="M 171.8,97.0 L 188.6,95.7" style="fill:none;fill-rule:evenodd;stroke:#000000;stroke-width:2.0px;stroke-linecap:butt;stroke-linejoin:miter;stroke-opacity:1"/>
<path class="bond-6 atom-6 atom-7" d="M 188.6,95.7 L 205.5,94.5" style="fill:none;fill-rule:evenodd;stroke:#FF0000;stroke-width:2.0px;stroke-linecap:butt;stroke-linejoin:miter;stroke-opacity:1"/>
<path class="bond-7 atom-6 atom-8" d="M 171.8,97.0 L 154.3,133.3" style="fill:none;fill-rule:evenodd;stroke:#000000;stroke-width:2.0px;stroke-linecap:butt;stroke-linejoin:miter;stroke-opacity:1"/>
<path class="bond-8 atom-8 atom-9" d="M 154.3,133.3 L 163.2,146.4" style="fill:none;fill-rule:evenodd;stroke:#000000;stroke-width:2.0px;stroke-linecap:butt;stroke-linejoin:miter;stroke-opacity:1"/>
<path class="bond-8 atom-8 atom-9" d="M 163.2,146.4 L 172.1,159.5" style="fill:none;fill-rule:evenodd;stroke:#FF0000;stroke-width:2.0px;stroke-linecap:butt;stroke-linejoin:miter;stroke-opacity:1"/>
<path class="bond-9 atom-8 atom-10" d="M 154.3,133.3 L 114.0,136.2" style="fill:none;fill-rule:evenodd;stroke:#000000;stroke-width:2.0px;stroke-linecap:butt;stroke-linejoin:miter;stroke-opacity:1"/>
<path class="bond-10 atom-10 atom-11" d="M 114.0,136.2 L 107.0,150.8" style="fill:none;fill-rule:evenodd;stroke:#000000;stroke-width:2.0px;stroke-linecap:butt;stroke-linejoin:miter;stroke-opacity:1"/>
<path class="bond-10 atom-10 atom-11" d="M 107.0,150.8 L 99.9,165.4" style="fill:none;fill-rule:evenodd;stroke:#FF0000;stroke-width:2.0px;stroke-linecap:butt;stroke-linejoin:miter;stroke-opacity:1"/>
<path class="bond-11 atom-10 atom-2" d="M 114.0,136.2 L 91.4,102.8" style="fill:none;fill-rule:evenodd;stroke:#000000;stroke-width:2.0px;stroke-linecap:butt;stroke-linejoin:miter;stroke-opacity:1"/>
<path d="M 50.7,105.1 L 51.2,105.8 L 53.2,105.6" style="fill:none;stroke:#000000;stroke-width:2.0px;stroke-linecap:butt;stroke-linejoin:miter;stroke-opacity:1;"/>
<path class="atom-0" d="M 12.0 66.8 L 13.5 66.8 L 13.5 71.6 L 19.4 71.6 L 19.4 66.8 L 20.9 66.8 L 20.9 78.2 L 19.4 78.2 L 19.4 72.9 L 13.5 72.9 L 13.5 78.2 L 12.0 78.2 L 12.0 66.8 " fill="#FF0000"/>
<path class="atom-0" d="M 23.3 72.5 Q 23.3 69.7, 24.6 68.2 Q 26.0 66.6, 28.5 66.6 Q 31.1 66.6, 32.4 68.2 Q 33.8 69.7, 33.8 72.5 Q 33.8 75.2, 32.4 76.8 Q 31.0 78.4, 28.5 78.4 Q 26.0 78.4, 24.6 76.8 Q 23.3 75.2, 23.3 72.5 M 28.5 77.1 Q 30.3 77.1, 31.2 75.9 Q 32.1 74.7, 32.1 72.5 Q 32.1 70.2, 31.2 69.1 Q 30.3 67.9, 28.5 67.9 Q 26.8 67.9, 25.8 69.1 Q 24.9 70.2, 24.9 72.5 Q 24.9 74.8, 25.8 75.9 Q 26.8 77.1, 28.5 77.1 " fill="#FF0000"/>
<path class="atom-3" d="M 103.7 66.6 Q 103.7 63.8, 105.1 62.3 Q 106.4 60.8, 109.0 60.8 Q 111.5 60.8, 112.8 62.3 Q 114.2 63.8, 114.2 66.6 Q 114.2 69.4, 112.8 70.9 Q 111.5 72.5, 109.0 72.5 Q 106.4 72.5, 105.1 70.9 Q 103.7 69.4, 103.7 66.6 M 109.0 71.2 Q 110.7 71.2, 111.6 70.0 Q 112.6 68.9, 112.6 66.6 Q 112.6 64.3, 111.6 63.2 Q 110.7 62.1, 109.0 62.1 Q 107.2 62.1, 106.3 63.2 Q 105.3 64.3, 105.3 66.6 Q 105.3 68.9, 106.3 70.0 Q 107.2 71.2, 109.0 71.2 " fill="#FF0000"/>
<path class="atom-5" d="M 161.5 27.3 Q 161.5 24.6, 162.9 23.1 Q 164.2 21.5, 166.7 21.5 Q 169.3 21.5, 170.6 23.1 Q 172.0 24.6, 172.0 27.3 Q 172.0 30.1, 170.6 31.7 Q 169.2 33.3, 166.7 33.3 Q 164.2 33.3, 162.9 31.7 Q 161.5 30.1, 161.5 27.3 M 166.7 32.0 Q 168.5 32.0, 169.4 30.8 Q 170.4 29.6, 170.4 27.3 Q 170.4 25.1, 169.4 24.0 Q 168.5 22.8, 166.7 22.8 Q 165.0 22.8, 164.0 24.0 Q 163.1 25.1, 163.1 27.3 Q 163.1 29.7, 164.0 30.8 Q 165.0 32.0, 166.7 32.0 " fill="#FF0000"/>
<path class="atom-5" d="M 173.8 21.7 L 175.3 21.7 L 175.3 26.5 L 181.1 26.5 L 181.1 21.7 L 182.7 21.7 L 182.7 33.1 L 181.1 33.1 L 181.1 27.8 L 175.3 27.8 L 175.3 33.1 L 173.8 33.1 L 173.8 21.7 " fill="#FF0000"/>
<path class="atom-7" d="M 206.8 94.1 Q 206.8 91.3, 208.2 89.8 Q 209.5 88.3, 212.0 88.3 Q 214.6 88.3, 215.9 89.8 Q 217.3 91.3, 217.3 94.1 Q 217.3 96.8, 215.9 98.4 Q 214.5 100.0, 212.0 100.0 Q 209.5 100.0, 208.2 98.4 Q 206.8 96.9, 206.8 94.1 M 212.0 98.7 Q 213.8 98.7, 214.7 97.5 Q 215.7 96.4, 215.7 94.1 Q 215.7 91.8, 214.7 90.7 Q 213.8 89.6, 212.0 89.6 Q 210.3 89.6, 209.4 90.7 Q 208.4 91.8, 208.4 94.1 Q 208.4 96.4, 209.4 97.5 Q 210.3 98.7, 212.0 98.7 " fill="#FF0000"/>
<path class="atom-7" d="M 219.1 88.4 L 220.6 88.4 L 220.6 93.2 L 226.5 93.2 L 226.5 88.4 L 228.0 88.4 L 228.0 99.8 L 226.5 99.8 L 226.5 94.5 L 220.6 94.5 L 220.6 99.8 L 219.1 99.8 L 219.1 88.4 " fill="#FF0000"/>
<path class="atom-9" d="M 171.7 166.7 Q 171.7 163.9, 173.0 162.4 Q 174.4 160.9, 176.9 160.9 Q 179.4 160.9, 180.8 162.4 Q 182.2 163.9, 182.2 166.7 Q 182.2 169.4, 180.8 171.0 Q 179.4 172.6, 176.9 172.6 Q 174.4 172.6, 173.0 171.0 Q 171.7 169.5, 171.7 166.7 M 176.9 171.3 Q 178.7 171.3, 179.6 170.1 Q 180.5 169.0, 180.5 166.7 Q 180.5 164.4, 179.6 163.3 Q 178.7 162.2, 176.9 162.2 Q 175.2 162.2, 174.2 163.3 Q 173.3 164.4, 173.3 166.7 Q 173.3 169.0, 174.2 170.1 Q 175.2 171.3, 176.9 171.3 " fill="#FF0000"/>
<path class="atom-9" d="M 183.9 161.0 L 185.5 161.0 L 185.5 165.8 L 191.3 165.8 L 191.3 161.0 L 192.9 161.0 L 192.9 172.4 L 191.3 172.4 L 191.3 167.1 L 185.5 167.1 L 185.5 172.4 L 183.9 172.4 L 183.9 161.0 " fill="#FF0000"/>
<path class="atom-11" d="M 80.0 166.9 L 81.5 166.9 L 81.5 171.7 L 87.3 171.7 L 87.3 166.9 L 88.9 166.9 L 88.9 178.3 L 87.3 178.3 L 87.3 173.0 L 81.5 173.0 L 81.5 178.3 L 80.0 178.3 L 80.0 166.9 " fill="#FF0000"/>
<path class="atom-11" d="M 91.2 172.5 Q 91.2 169.8, 92.6 168.3 Q 93.9 166.7, 96.5 166.7 Q 99.0 166.7, 100.4 168.3 Q 101.7 169.8, 101.7 172.5 Q 101.7 175.3, 100.3 176.9 Q 99.0 178.5, 96.5 178.5 Q 94.0 178.5, 92.6 176.9 Q 91.2 175.3, 91.2 172.5 M 96.5 177.2 Q 98.2 177.2, 99.2 176.0 Q 100.1 174.8, 100.1 172.5 Q 100.1 170.3, 99.2 169.2 Q 98.2 168.0, 96.5 168.0 Q 94.7 168.0, 93.8 169.2 Q 92.8 170.3, 92.8 172.5 Q 92.8 174.8, 93.8 176.0 Q 94.7 177.2, 96.5 177.2 " fill="#FF0000"/>
</g>
    <g transform="translate(240.0, 0) scale(1 1) "><line x1="15" y1="100" x2="25" y2="100" style="stroke:rgb(0,0,0);stroke-width:2"/>
  <line x1="20" y1="95" x2="20" y2="105" style="stroke:rgb(0,0,0);stroke-width:2"/>
</g>
    <g transform="translate(280.0, 0) scale(1 1) "><!-- END OF HEADER -->
<rect style="opacity:1.0;fill:#FFFFFF;stroke:none" width="85.0" height="200.0" x="0.0" y="0.0"> </rect>
<path class="bond-0 atom-0 atom-1" d="M 21.9,95.3 L 62.6,95.3" style="fill:none;fill-rule:evenodd;stroke:#FF0000;stroke-width:2.0px;stroke-linecap:butt;stroke-linejoin:miter;stroke-opacity:1"/>
<path class="bond-0 atom-0 atom-1" d="M 21.9,104.4 L 62.6,104.4" style="fill:none;fill-rule:evenodd;stroke:#FF0000;stroke-width:2.0px;stroke-linecap:butt;stroke-linejoin:miter;stroke-opacity:1"/>
<path class="atom-0" d="M 4.3 99.9 Q 4.3 95.8, 6.3 93.5 Q 8.3 91.2, 12.1 91.2 Q 15.9 91.2, 17.9 93.5 Q 19.9 95.8, 19.9 99.9 Q 19.9 104.1, 17.9 106.4 Q 15.8 108.8, 12.1 108.8 Q 8.3 108.8, 6.3 106.4 Q 4.3 104.1, 4.3 99.9 M 12.1 106.8 Q 14.7 106.8, 16.1 105.1 Q 17.5 103.3, 17.5 99.9 Q 17.5 96.6, 16.1 94.9 Q 14.7 93.2, 12.1 93.2 Q 9.5 93.2, 8.1 94.8 Q 6.7 96.5, 6.7 99.9 Q 6.7 103.4, 8.1 105.1 Q 9.5 106.8, 12.1 106.8 " fill="#FF0000"/>
<path class="atom-1" d="M 64.6 99.9 Q 64.6 95.8, 66.6 93.5 Q 68.6 91.2, 72.4 91.2 Q 76.2 91.2, 78.2 93.5 Q 80.2 95.8, 80.2 99.9 Q 80.2 104.1, 78.2 106.4 Q 76.1 108.8, 72.4 108.8 Q 68.6 108.8, 66.6 106.4 Q 64.6 104.1, 64.6 99.9 M 72.4 106.8 Q 75.0 106.8, 76.4 105.1 Q 77.8 103.3, 77.8 99.9 Q 77.8 96.6, 76.4 94.9 Q 75.0 93.2, 72.4 93.2 Q 69.8 93.2, 68.4 94.8 Q 67.0 96.5, 67.0 99.9 Q 67.0 103.4, 68.4 105.1 Q 69.8 106.8, 72.4 106.8 " fill="#FF0000"/>
</g>
    <g transform="translate(365.0, 0) scale(1 1) "><line x1="5" y1="100" x2="35" y2="100" style="stroke:rgb(0,0,0);stroke-width:2"/>
  <line x1="34" y1="100" x2="29" y2="95" style="stroke:rgb(0,0,0);stroke-width:2"/>
  <line x1="34" y1="100" x2="29" y2="105" style="stroke:rgb(0,0,0);stroke-width:2"/>
</g>
    <g transform="translate(405.0, 0) scale(1 1) "><!-- END OF HEADER -->
<rect style="opacity:1.0;fill:#FFFFFF;stroke:none" width="240.0" height="200.0" x="0.0" y="0.0"> </rect>
<path class="bond-0 atom-0 atom-1" d="M 215.3,108.8 L 196.7,107.4" style="fill:none;fill-rule:evenodd;stroke:#FF0000;stroke-width:2.0px;stroke-linecap:butt;stroke-linejoin:miter;stroke-opacity:1"/>
<path class="bond-0 atom-0 atom-1" d="M 196.7,107.4 L 178.1,106.0" style="fill:none;fill-rule:evenodd;stroke:#000000;stroke-width:2.0px;stroke-linecap:butt;stroke-linejoin:miter;stroke-opacity:1"/>
<path class="bond-0 atom-0 atom-1" d="M 215.8,102.4 L 197.2,101.0" style="fill:none;fill-rule:evenodd;stroke:#FF0000;stroke-width:2.0px;stroke-linecap:butt;stroke-linejoin:miter;stroke-opacity:1"/>
<path class="bond-0 atom-0 atom-1" d="M 197.2,101.0 L 178.6,99.7" style="fill:none;fill-rule:evenodd;stroke:#000000;stroke-width:2.0px;stroke-linecap:butt;stroke-linejoin:miter;stroke-opacity:1"/>
<path class="bond-1 atom-1 atom-2" d="M 180.2,103.0 L 156.3,138.1" style="fill:none;fill-rule:evenodd;stroke:#000000;stroke-width:2.0px;stroke-linecap:butt;stroke-linejoin:miter;stroke-opacity:1"/>
<path class="bond-2 atom-2 atom-3" d="M 156.3,138.1 L 163.8,153.5" style="fill:none;fill-rule:evenodd;stroke:#000000;stroke-width:2.0px;stroke-linecap:butt;stroke-linejoin:miter;stroke-opacity:1"/>
<path class="bond-2 atom-2 atom-3" d="M 163.8,153.5 L 171.2,168.8" style="fill:none;fill-rule:evenodd;stroke:#FF0000;stroke-width:2.0px;stroke-linecap:butt;stroke-linejoin:miter;stroke-opacity:1"/>
<path class="bond-3 atom-2 atom-4" d="M 156.3,138.1 L 138.6,136.8" style="fill:none;fill-rule:evenodd;stroke:#000000;stroke-width:2.0px;stroke-linecap:butt;stroke-linejoin:miter;stroke-opacity:1"/>
<path class="bond-3 atom-2 atom-4" d="M 138.6,136.8 L 120.9,135.5" style="fill:none;fill-rule:evenodd;stroke:#FF0000;stroke-width:2.0px;stroke-linecap:butt;stroke-linejoin:miter;stroke-opacity:1"/>
<path class="bond-4 atom-4 atom-5" d="M 110.4,127.5 L 103.0,112.2" style="fill:none;fill-rule:evenodd;stroke:#FF0000;stroke-width:2.0px;stroke-linecap:butt;stroke-linejoin:miter;stroke-opacity:1"/>
<path class="bond-4 atom-4 atom-5" d="M 103.0,112.2 L 95.5,96.8" style="fill:none;fill-rule:evenodd;stroke:#000000;stroke-width:2.0px;stroke-linecap:butt;stroke-linejoin:miter;stroke-opacity:1"/>
<path class="bond-5 atom-5 atom-6" d="M 95.5,96.8 L 53.2,93.7" style="fill:none;fill-rule:evenodd;stroke:#000000;stroke-width:2.0px;stroke-linecap:butt;stroke-linejoin:miter;stroke-opacity:1"/>
<path class="bond-6 atom-6 atom-7" d="M 53.2,93.7 L 43.8,107.5" style="fill:none;fill-rule:evenodd;stroke:#000000;stroke-width:2.0px;stroke-linecap:butt;stroke-linejoin:miter;stroke-opacity:1"/>
<path class="bond-6 atom-6 atom-7" d="M 43.8,107.5 L 34.5,121.4" style="fill:none;fill-rule:evenodd;stroke:#FF0000;stroke-width:2.0px;stroke-linecap:butt;stroke-linejoin:miter;stroke-opacity:1"/>
<path class="bond-7 atom-5 atom-8" d="M 95.5,96.8 L 119.4,61.7" style="fill:none;fill-rule:evenodd;stroke:#000000;stroke-width:2.0px;stroke-linecap:butt;stroke-linejoin:miter;stroke-opacity:1"/>
<path class="bond-8 atom-8 atom-9" d="M 119.4,61.7 L 112.0,46.4" style="fill:none;fill-rule:evenodd;stroke:#000000;stroke-width:2.0px;stroke-linecap:butt;stroke-linejoin:miter;stroke-opacity:1"/>
<path class="bond-8 atom-8 atom-9" d="M 112.0,46.4 L 104.6,31.2" style="fill:none;fill-rule:evenodd;stroke:#FF0000;stroke-width:2.0px;stroke-linecap:butt;stroke-linejoin:miter;stroke-opacity:1"/>
<path class="bond-9 atom-8 atom-10" d="M 119.4,61.7 L 161.7,64.8" style="fill:none;fill-rule:evenodd;stroke:#000000;stroke-width:2.0px;stroke-linecap:butt;stroke-linejoin:miter;stroke-opacity:1"/>
<path class="bond-10 atom-10 atom-11" d="M 161.7,64.8 L 171.0,51.1" style="fill:none;fill-rule:evenodd;stroke:#000000;stroke-width:2.0px;stroke-linecap:butt;stroke-linejoin:miter;stroke-opacity:1"/>
<path class="bond-10 atom-10 atom-11" d="M 171.0,51.1 L 180.3,37.4" style="fill:none;fill-rule:evenodd;stroke:#FF0000;stroke-width:2.0px;stroke-linecap:butt;stroke-linejoin:miter;stroke-opacity:1"/>
<path class="bond-11 atom-10 atom-1" d="M 161.7,64.8 L 180.2,103.0" style="fill:none;fill-rule:evenodd;stroke:#000000;stroke-width:2.0px;stroke-linecap:butt;stroke-linejoin:miter;stroke-opacity:1"/>
<path d="M 179.0,104.8 L 180.2,103.0 L 179.2,101.1" style="fill:none;stroke:#000000;stroke-width:2.0px;stroke-linecap:butt;stroke-linejoin:miter;stroke-opacity:1;"/>
<path d="M 55.3,93.9 L 53.2,93.7 L 52.7,94.4" style="fill:none;stroke:#000000;stroke-width:2.0px;stroke-linecap:butt;stroke-linejoin:miter;stroke-opacity:1;"/>
<path class="atom-0" d="M 217.0 106.1 Q 217.0 103.2, 218.4 101.6 Q 219.8 100.0, 222.5 100.0 Q 225.1 100.0, 226.6 101.6 Q 228.0 103.2, 228.0 106.1 Q 228.0 109.0, 226.6 110.7 Q 225.1 112.3, 222.5 112.3 Q 219.8 112.3, 218.4 110.7 Q 217.0 109.1, 217.0 106.1 M 222.5 111.0 Q 224.3 111.0, 225.3 109.8 Q 226.3 108.5, 226.3 106.1 Q 226.3 103.8, 225.3 102.6 Q 224.3 101.4, 222.5 101.4 Q 220.7 101.4, 219.6 102.6 Q 218.7 103.7, 218.7 106.1 Q 218.7 108.5, 219.6 109.8 Q 220.7 111.0, 222.5 111.0 " fill="#FF0000"/>
<path class="atom-3" d="M 169.3 176.3 Q 169.3 173.4, 170.7 171.8 Q 172.2 170.2, 174.8 170.2 Q 177.5 170.2, 178.9 171.8 Q 180.3 173.4, 180.3 176.3 Q 180.3 179.2, 178.9 180.9 Q 177.4 182.6, 174.8 182.6 Q 172.2 182.6, 170.7 180.9 Q 169.3 179.3, 169.3 176.3 M 174.8 181.2 Q 176.6 181.2, 177.6 180.0 Q 178.6 178.7, 178.6 176.3 Q 178.6 174.0, 177.6 172.8 Q 176.6 171.6, 174.8 171.6 Q 173.0 171.6, 172.0 172.8 Q 171.0 173.9, 171.0 176.3 Q 171.0 178.8, 172.0 180.0 Q 173.0 181.2, 174.8 181.2 " fill="#FF0000"/>
<path class="atom-3" d="M 182.2 170.4 L 183.8 170.4 L 183.8 175.5 L 190.0 175.5 L 190.0 170.4 L 191.6 170.4 L 191.6 182.4 L 190.0 182.4 L 190.0 176.8 L 183.8 176.8 L 183.8 182.4 L 182.2 182.4 L 182.2 170.4 " fill="#FF0000"/>
<path class="atom-4" d="M 108.5 135.0 Q 108.5 132.2, 109.9 130.5 Q 111.4 128.9, 114.0 128.9 Q 116.7 128.9, 118.1 130.5 Q 119.5 132.2, 119.5 135.0 Q 119.5 138.0, 118.1 139.6 Q 116.6 141.3, 114.0 141.3 Q 111.4 141.3, 109.9 139.6 Q 108.5 138.0, 108.5 135.0 M 114.0 139.9 Q 115.8 139.9, 116.8 138.7 Q 117.8 137.5, 117.8 135.0 Q 117.8 132.7, 116.8 131.5 Q 115.8 130.3, 114.0 130.3 Q 112.2 130.3, 111.2 131.5 Q 110.2 132.7, 110.2 135.0 Q 110.2 137.5, 111.2 138.7 Q 112.2 139.9, 114.0 139.9 " fill="#FF0000"/>
<path class="atom-7" d="M 12.0 122.9 L 13.6 122.9 L 13.6 128.0 L 19.8 128.0 L 19.8 122.9 L 21.4 122.9 L 21.4 134.9 L 19.8 134.9 L 19.8 129.4 L 13.6 129.4 L 13.6 134.9 L 12.0 134.9 L 12.0 122.9 " fill="#FF0000"/>
<path class="atom-7" d="M 23.9 128.9 Q 23.9 126.0, 25.3 124.4 Q 26.7 122.8, 29.4 122.8 Q 32.0 122.8, 33.5 124.4 Q 34.9 126.0, 34.9 128.9 Q 34.9 131.8, 33.5 133.4 Q 32.0 135.1, 29.4 135.1 Q 26.7 135.1, 25.3 133.4 Q 23.9 131.8, 23.9 128.9 M 29.4 133.7 Q 31.2 133.7, 32.2 132.5 Q 33.2 131.3, 33.2 128.9 Q 33.2 126.5, 32.2 125.3 Q 31.2 124.1, 29.4 124.1 Q 27.5 124.1, 26.5 125.3 Q 25.6 126.5, 25.6 128.9 Q 25.6 131.3, 26.5 132.5 Q 27.5 133.7, 29.4 133.7 " fill="#FF0000"/>
<path class="atom-9" d="M 83.5 17.6 L 85.1 17.6 L 85.1 22.7 L 91.3 22.7 L 91.3 17.6 L 92.9 17.6 L 92.9 29.6 L 91.3 29.6 L 91.3 24.0 L 85.1 24.0 L 85.1 29.6 L 83.5 29.6 L 83.5 17.6 " fill="#FF0000"/>
<path class="atom-9" d="M 95.4 23.6 Q 95.4 20.7, 96.8 19.1 Q 98.2 17.4, 100.9 17.4 Q 103.5 17.4, 105.0 19.1 Q 106.4 20.7, 106.4 23.6 Q 106.4 26.5, 105.0 28.1 Q 103.5 29.8, 100.9 29.8 Q 98.2 29.8, 96.8 28.1 Q 95.4 26.5, 95.4 23.6 M 100.9 28.4 Q 102.7 28.4, 103.7 27.2 Q 104.7 26.0, 104.7 23.6 Q 104.7 21.2, 103.7 20.0 Q 102.7 18.8, 100.9 18.8 Q 99.1 18.8, 98.0 20.0 Q 97.1 21.2, 97.1 23.6 Q 97.1 26.0, 98.0 27.2 Q 99.1 28.4, 100.9 28.4 " fill="#FF0000"/>
<path class="atom-11" d="M 180.0 29.7 Q 180.0 26.8, 181.4 25.2 Q 182.9 23.6, 185.5 23.6 Q 188.2 23.6, 189.6 25.2 Q 191.0 26.8, 191.0 29.7 Q 191.0 32.7, 189.6 34.3 Q 188.1 36.0, 185.5 36.0 Q 182.9 36.0, 181.4 34.3 Q 180.0 32.7, 180.0 29.7 M 185.5 34.6 Q 187.4 34.6, 188.3 33.4 Q 189.3 32.1, 189.3 29.7 Q 189.3 27.4, 188.3 26.2 Q 187.4 25.0, 185.5 25.0 Q 183.7 25.0, 182.7 26.2 Q 181.7 27.4, 181.7 29.7 Q 181.7 32.2, 182.7 33.4 Q 183.7 34.6, 185.5 34.6 " fill="#FF0000"/>
<path class="atom-11" d="M 192.9 23.8 L 194.5 23.8 L 194.5 28.9 L 200.7 28.9 L 200.7 23.8 L 202.3 23.8 L 202.3 35.8 L 200.7 35.8 L 200.7 30.2 L 194.5 30.2 L 194.5 35.8 L 192.9 35.8 L 192.9 23.8 " fill="#FF0000"/>
</g>
    <g transform="translate(645.0, 0) scale(1 1) "><line x1="15" y1="100" x2="25" y2="100" style="stroke:rgb(0,0,0);stroke-width:2"/>
  <line x1="20" y1="95" x2="20" y2="105" style="stroke:rgb(0,0,0);stroke-width:2"/>
</g>
    <g transform="translate(685.0, 0) scale(1 1) "><!-- END OF HEADER -->
<rect style="opacity:1.0;fill:#FFFFFF;stroke:none" width="85.0" height="200.0" x="0.0" y="0.0"> </rect>
<path class="bond-0 atom-0 atom-1" d="M 28.4,99.9 L 56.7,99.9" style="fill:none;fill-rule:evenodd;stroke:#FF0000;stroke-width:2.0px;stroke-linecap:butt;stroke-linejoin:miter;stroke-opacity:1"/>
<path class="atom-0" d="M 4.2 94.0 L 5.9 94.0 L 5.9 99.1 L 12.0 99.1 L 12.0 94.0 L 13.6 94.0 L 13.6 105.9 L 12.0 105.9 L 12.0 100.4 L 5.9 100.4 L 5.9 105.9 L 4.2 105.9 L 4.2 94.0 " fill="#FF0000"/>
<path class="atom-0" d="M 16.0 99.9 Q 16.0 97.1, 17.4 95.5 Q 18.9 93.9, 21.5 93.9 Q 24.1 93.9, 25.6 95.5 Q 27.0 97.1, 27.0 99.9 Q 27.0 102.8, 25.5 104.5 Q 24.1 106.1, 21.5 106.1 Q 18.9 106.1, 17.4 104.5 Q 16.0 102.9, 16.0 99.9 M 21.5 104.8 Q 23.3 104.8, 24.3 103.6 Q 25.3 102.3, 25.3 99.9 Q 25.3 97.6, 24.3 96.4 Q 23.3 95.2, 21.5 95.2 Q 19.7 95.2, 18.7 96.4 Q 17.7 97.6, 17.7 99.9 Q 17.7 102.3, 18.7 103.6 Q 19.7 104.8, 21.5 104.8 " fill="#FF0000"/>
<path class="atom-1" d="M 58.1 99.9 Q 58.1 97.1, 59.5 95.5 Q 60.9 93.9, 63.6 93.9 Q 66.2 93.9, 67.7 95.5 Q 69.1 97.1, 69.1 99.9 Q 69.1 102.8, 67.6 104.5 Q 66.2 106.1, 63.6 106.1 Q 61.0 106.1, 59.5 104.5 Q 58.1 102.9, 58.1 99.9 M 63.6 104.8 Q 65.4 104.8, 66.4 103.6 Q 67.4 102.3, 67.4 99.9 Q 67.4 97.6, 66.4 96.4 Q 65.4 95.2, 63.6 95.2 Q 61.8 95.2, 60.8 96.4 Q 59.8 97.6, 59.8 99.9 Q 59.8 102.3, 60.8 103.6 Q 61.8 104.8, 63.6 104.8 " fill="#FF0000"/>
<path class="atom-1" d="M 70.9 94.0 L 72.5 94.0 L 72.5 99.1 L 78.6 99.1 L 78.6 94.0 L 80.2 94.0 L 80.2 105.9 L 78.6 105.9 L 78.6 100.4 L 72.5 100.4 L 72.5 105.9 L 70.9 105.9 L 70.9 94.0 " fill="#FF0000"/>
</g>
  </g>
</svg>
