<?xml version='1.0' encoding='ASCII' standalone='yes'?>
<svg xmlns="http://www.w3.org/2000/svg" xmlns:xlink="http://www.w3.org/1999/xlink" version="1.1" width="738.0px" viewBox="0 0 738.0 200.0" height="200.0px">
  <g>
    <g transform="translate(0, 0) scale(1 1) "><!-- END OF HEADER -->
<rect style="opacity:1.0;fill:#FFFFFF;stroke:none" width="180.0" height="200.0" x="0.0" y="0.0"> </rect>
<path class="bond-0 atom-0 atom-1" d="M 9.0,113.2 L 48.3,97.4" style="fill:none;fill-rule:evenodd;stroke:#000000;stroke-width:2.0px;stroke-linecap:butt;stroke-linejoin:miter;stroke-opacity:1"/>
<path class="bond-1 atom-1 atom-2" d="M 48.3,97.4 L 81.6,123.6" style="fill:none;fill-rule:evenodd;stroke:#000000;stroke-width:2.0px;stroke-linecap:butt;stroke-linejoin:miter;stroke-opacity:1"/>
<path class="bond-2 atom-2 atom-3" d="M 81.6,123.6 L 120.9,107.8" style="fill:none;fill-rule:evenodd;stroke:#000000;stroke-width:2.0px;stroke-linecap:butt;stroke-linejoin:miter;stroke-opacity:1"/>
<path class="bond-3 atom-3 atom-4" d="M 123.8,110.1 L 126.4,92.0" style="fill:none;fill-rule:evenodd;stroke:#000000;stroke-width:2.0px;stroke-linecap:butt;stroke-linejoin:miter;stroke-opacity:1"/>
<path class="bond-3 atom-3 atom-4" d="M 126.4,92.0 L 129.0,74.0" style="fill:none;fill-rule:evenodd;stroke:#FF0000;stroke-width:2.0px;stroke-linecap:butt;stroke-linejoin:miter;stroke-opacity:1"/>
<path class="bond-3 atom-3 atom-4" d="M 117.5,109.2 L 120.1,91.1" style="fill:none;fill-rule:evenodd;stroke:#000000;stroke-width:2.0px;stroke-linecap:butt;stroke-linejoin:miter;stroke-opacity:1"/>
<path class="bond-3 atom-3 atom-4" d="M 120.1,91.1 L 122.7,73.1" style="fill:none;fill-rule:evenodd;stroke:#FF0000;stroke-width:2.0px;stroke-linecap:butt;stroke-linejoin:miter;stroke-opacity:1"/>
<path class="bond-4 atom-3 atom-5" d="M 120.9,107.8 L 134.1,118.2" style="fill:none;fill-rule:evenodd;stroke:#000000;stroke-width:2.0px;stroke-linecap:butt;stroke-linejoin:miter;stroke-opacity:1"/>
<path class="bond-4 atom-3 atom-5" d="M 134.1,118.2 L 147.3,128.5" style="fill:none;fill-rule:evenodd;stroke:#FF0000;stroke-width:2.0px;stroke-linecap:butt;stroke-linejoin:miter;stroke-opacity:1"/>
<path d="M 46.3,98.2 L 48.3,97.4 L 50.0,98.7" style="fill:none;stroke:#000000;stroke-width:2.0px;stroke-linecap:butt;stroke-linejoin:miter;stroke-opacity:1;"/>
<path d="M 80.0,122.2 L 81.6,123.6 L 83.6,122.8" style="fill:none;stroke:#000000;stroke-width:2.0px;stroke-linecap:butt;stroke-linejoin:miter;stroke-opacity:1;"/>
<path d="M 119.0,108.6 L 120.9,107.8 L 121.6,108.3" style="fill:none;stroke:#000000;stroke-width:2.0px;stroke-linecap:butt;stroke-linejoin:miter;stroke-opacity:1;"/>
<path class="atom-4" d="M 121.4 65.9 Q 121.4 63.0, 122.9 61.4 Q 124.3 59.8, 126.9 59.8 Q 129.6 59.8, 131.0 61.4 Q 132.4 63.0, 132.4 65.9 Q 132.4 68.8, 131.0 70.5 Q 129.6 72.1, 126.9 72.1 Q 124.3 72.1, 122.9 70.5 Q 121.4 68.8, 121.4 65.9 M 126.9 70.8 Q 128.8 70.8, 129.7 69.5 Q 130.7 68.3, 130.7 65.9 Q 130.7 63.5, 129.7 62.4 Q 128.8 61.2, 126.9 61.2 Q 125.1 61.2, 124.1 62.3 Q 123.1 63.5, 123.1 65.9 Q 123.1 68.3, 124.1 69.5 Q 125.1 70.8, 126.9 70.8 " fill="#FF0000"/>
<path class="atom-5" d="M 148.7 134.0 Q 148.7 131.1, 150.2 129.5 Q 151.6 127.9, 154.2 127.9 Q 156.9 127.9, 158.3 129.5 Q 159.7 131.1, 159.7 134.0 Q 159.7 136.9, 158.3 138.6 Q 156.9 140.2, 154.2 140.2 Q 151.6 140.2, 150.2 138.6 Q 148.7 136.9, 148.7 134.0 M 154.2 138.8 Q 156.1 138.8, 157.1 137.6 Q 158.1 136.4, 158.1 134.0 Q 158.1 131.6, 157.1 130.4 Q 156.1 129.2, 154.2 129.2 Q 152.4 129.2, 151.4 130.4 Q 150.4 131.6, 150.4 134.0 Q 150.4 136.4, 151.4 137.6 Q 152.4 138.8, 154.2 138.8 " fill="#FF0000"/>
<path class="atom-5" d="M 161.6 128.0 L 163.2 128.0 L 163.2 133.1 L 169.4 133.1 L 169.4 128.0 L 171.0 128.0 L 171.0 140.0 L 169.4 140.0 L 169.4 134.5 L 163.2 134.5 L 163.2 140.0 L 161.6 140.0 L 161.6 128.0 " fill="#FF0000"/>
</g>
    <g transform="translate(180.0, 0) scale(1 1) "><line x1="15" y1="100" x2="25" y2="100" style="stroke:rgb(0,0,0);stroke-width:2"/>
  <line x1="20" y1="95" x2="20" y2="105" style="stroke:rgb(0,0,0);stroke-width:2"/>
</g>
    <g transform="translate(220.0, 0) scale(1 1) "><!-- END OF HEADER -->
<rect style="opacity:1.0;fill:#FFFFFF;stroke:none" width="180.0" height="200.0" x="0.0" y="0.0"> </rect>
<path class="bond-0 atom-0 atom-1" d="M 30.7,115.8 L 44.1,123.5" style="fill:none;fill-rule:evenodd;stroke:#FF0000;stroke-width:2.0px;stroke-linecap:butt;stroke-linejoin:miter;stroke-opacity:1"/>
<path class="bond-0 atom-0 atom-1" d="M 44.1,123.5 L 57.4,131.2" style="fill:none;fill-rule:evenodd;stroke:#000000;stroke-width:2.0px;stroke-linecap:butt;stroke-linejoin:miter;stroke-opacity:1"/>
<path class="bond-1 atom-1 atom-2" d="M 57.4,131.2 L 90.3,112.2" style="fill:none;fill-rule:evenodd;stroke:#000000;stroke-width:2.0px;stroke-linecap:butt;stroke-linejoin:miter;stroke-opacity:1"/>
<path class="bond-2 atom-2 atom-3" d="M 90.3,112.2 L 90.3,96.7" style="fill:none;fill-rule:evenodd;stroke:#000000;stroke-width:2.0px;stroke-linecap:butt;stroke-linejoin:miter;stroke-opacity:1"/>
<path class="bond-2 atom-2 atom-3" d="M 90.3,96.7 L 90.3,81.1" style="fill:none;fill-rule:evenodd;stroke:#FF0000;stroke-width:2.0px;stroke-linecap:butt;stroke-linejoin:miter;stroke-opacity:1"/>
<path class="bond-3 atom-2 atom-4" d="M 90.3,112.2 L 123.1,131.2" style="fill:none;fill-rule:evenodd;stroke:#000000;stroke-width:2.0px;stroke-linecap:butt;stroke-linejoin:miter;stroke-opacity:1"/>
<path class="bond-4 atom-4 atom-5" d="M 123.1,131.2 L 136.5,123.5" style="fill:none;fill-rule:evenodd;stroke:#000000;stroke-width:2.0px;stroke-linecap:butt;stroke-linejoin:miter;stroke-opacity:1"/>
<path class="bond-4 atom-4 atom-5" d="M 136.5,123.5 L 149.8,115.8" style="fill:none;fill-rule:evenodd;stroke:#FF0000;stroke-width:2.0px;stroke-linecap:butt;stroke-linejoin:miter;stroke-opacity:1"/>
<path d="M 56.7,130.8 L 57.4,131.2 L 59.0,130.2" style="fill:none;stroke:#000000;stroke-width:2.0px;stroke-linecap:butt;stroke-linejoin:miter;stroke-opacity:1;"/>
<path d="M 121.5,130.2 L 123.1,131.2 L 123.8,130.8" style="fill:none;stroke:#000000;stroke-width:2.0px;stroke-linecap:butt;stroke-linejoin:miter;stroke-opacity:1;"/>
<path class="atom-0" d="M 9.0 106.9 L 10.5 106.9 L 10.5 111.5 L 16.0 111.5 L 16.0 106.9 L 17.4 106.9 L 17.4 117.6 L 16.0 117.6 L 16.0 112.7 L 10.5 112.7 L 10.5 117.6 L 9.0 117.6 L 9.0 106.9 " fill="#FF0000"/>
<path class="atom-0" d="M 19.6 112.2 Q 19.6 109.7, 20.9 108.2 Q 22.2 106.8, 24.5 106.8 Q 26.9 106.8, 28.2 108.2 Q 29.5 109.7, 29.5 112.2 Q 29.5 114.8, 28.2 116.3 Q 26.9 117.8, 24.5 117.8 Q 22.2 117.8, 20.9 116.3 Q 19.6 114.9, 19.6 112.2 M 24.5 116.6 Q 26.2 116.6, 27.1 115.5 Q 28.0 114.4, 28.0 112.2 Q 28.0 110.1, 27.1 109.1 Q 26.2 108.0, 24.5 108.0 Q 22.9 108.0, 22.0 109.0 Q 21.1 110.1, 21.1 112.2 Q 21.1 114.4, 22.0 115.5 Q 22.9 116.6, 24.5 116.6 " fill="#FF0000"/>
<path class="atom-3" d="M 85.3 74.3 Q 85.3 71.7, 86.6 70.3 Q 87.9 68.8, 90.3 68.8 Q 92.6 68.8, 93.9 70.3 Q 95.2 71.7, 95.2 74.3 Q 95.2 76.9, 93.9 78.4 Q 92.6 79.9, 90.3 79.9 Q 87.9 79.9, 86.6 78.4 Q 85.3 76.9, 85.3 74.3 M 90.3 78.6 Q 91.9 78.6, 92.8 77.6 Q 93.7 76.4, 93.7 74.3 Q 93.7 72.2, 92.8 71.1 Q 91.9 70.0, 90.3 70.0 Q 88.6 70.0, 87.7 71.1 Q 86.9 72.2, 86.9 74.3 Q 86.9 76.5, 87.7 77.6 Q 88.6 78.6, 90.3 78.6 " fill="#FF0000"/>
<path class="atom-3" d="M 96.9 68.9 L 98.3 68.9 L 98.3 73.5 L 103.8 73.5 L 103.8 68.9 L 105.3 68.9 L 105.3 79.7 L 103.8 79.7 L 103.8 74.7 L 98.3 74.7 L 98.3 79.7 L 96.9 79.7 L 96.9 68.9 " fill="#FF0000"/>
<path class="atom-5" d="M 151.1 112.2 Q 151.1 109.7, 152.3 108.2 Q 153.6 106.8, 156.0 106.8 Q 158.4 106.8, 159.6 108.2 Q 160.9 109.7, 160.9 112.2 Q 160.9 114.8, 159.6 116.3 Q 158.3 117.8, 156.0 117.8 Q 153.6 117.8, 152.3 116.3 Q 151.1 114.9, 151.1 112.2 M 156.0 116.6 Q 157.6 116.6, 158.5 115.5 Q 159.4 114.4, 159.4 112.2 Q 159.4 110.1, 158.5 109.1 Q 157.6 108.0, 156.0 108.0 Q 154.3 108.0, 153.5 109.0 Q 152.6 110.1, 152.6 112.2 Q 152.6 114.4, 153.5 115.5 Q 154.3 116.6, 156.0 116.6 " fill="#FF0000"/>
<path class="atom-5" d="M 162.6 106.9 L 164.0 106.9 L 164.0 111.5 L 169.5 111.5 L 169.5 106.9 L 171.0 106.9 L 171.0 117.6 L 169.5 117.6 L 169.5 112.7 L 164.0 112.7 L 164.0 117.6 L 162.6 117.6 L 162.6 106.9 " fill="#FF0000"/>
</g>
    <g transform="translate(400.0, 0) scale(1 1) "><line x1="5" y1="100" x2="35" y2="100" style="stroke:rgb(0,0,0);stroke-width:2"/>
  <line x1="34" y1="100" x2="29" y2="95" style="stroke:rgb(0,0,0);stroke-width:2"/>
  <line x1="34" y1="100" x2="29" y2="105" style="stroke:rgb(0,0,0);stroke-width:2"/>
</g>
    <g transform="translate(440.0, 0) scale(1 1) "><!-- END OF HEADER -->
<rect style="opacity:1.0;fill:#FFFFFF;stroke:none" width="233.0" height="200.0" x="0.0" y="0.0"> </rect>
<path class="bond-0 atom-0 atom-1" d="M 220.7,84.9 L 197.0,100.9" style="fill:none;fill-rule:evenodd;stroke:#000000;stroke-width:2.0px;stroke-linecap:butt;stroke-linejoin:miter;stroke-opacity:1"/>
<path class="bond-1 atom-1 atom-2" d="M 197.0,100.9 L 171.3,88.4" style="fill:none;fill-rule:evenodd;stroke:#000000;stroke-width:2.0px;stroke-linecap:butt;stroke-linejoin:miter;stroke-opacity:1"/>
<path class="bond-2 atom-2 atom-3" d="M 171.3,88.4 L 147.7,104.4" style="fill:none;fill-rule:evenodd;stroke:#000000;stroke-width:2.0px;stroke-linecap:butt;stroke-linejoin:miter;stroke-opacity:1"/>
<path class="bond-3 atom-3 atom-4" d="M 145.5,103.3 L 146.3,115.7" style="fill:none;fill-rule:evenodd;stroke:#000000;stroke-width:2.0px;stroke-linecap:butt;stroke-linejoin:miter;stroke-opacity:1"/>
<path class="bond-3 atom-3 atom-4" d="M 146.3,115.7 L 147.2,128.0" style="fill:none;fill-rule:evenodd;stroke:#FF0000;stroke-width:2.0px;stroke-linecap:butt;stroke-linejoin:miter;stroke-opacity:1"/>
<path class="bond-3 atom-3 atom-4" d="M 149.7,103.0 L 150.6,115.4" style="fill:none;fill-rule:evenodd;stroke:#000000;stroke-width:2.0px;stroke-linecap:butt;stroke-linejoin:miter;stroke-opacity:1"/>
<path class="bond-3 atom-3 atom-4" d="M 150.6,115.4 L 151.5,127.7" style="fill:none;fill-rule:evenodd;stroke:#FF0000;stroke-width:2.0px;stroke-linecap:butt;stroke-linejoin:miter;stroke-opacity:1"/>
<path class="bond-4 atom-3 atom-5" d="M 147.7,104.4 L 137.2,99.3" style="fill:none;fill-rule:evenodd;stroke:#000000;stroke-width:2.0px;stroke-linecap:butt;stroke-linejoin:miter;stroke-opacity:1"/>
<path class="bond-4 atom-3 atom-5" d="M 137.2,99.3 L 126.7,94.2" style="fill:none;fill-rule:evenodd;stroke:#FF0000;stroke-width:2.0px;stroke-linecap:butt;stroke-linejoin:miter;stroke-opacity:1"/>
<path class="bond-5 atom-5 atom-6" d="M 117.3,95.1 L 107.8,101.5" style="fill:none;fill-rule:evenodd;stroke:#FF0000;stroke-width:2.0px;stroke-linecap:butt;stroke-linejoin:miter;stroke-opacity:1"/>
<path class="bond-5 atom-5 atom-6" d="M 107.8,101.5 L 98.4,107.9" style="fill:none;fill-rule:evenodd;stroke:#000000;stroke-width:2.0px;stroke-linecap:butt;stroke-linejoin:miter;stroke-opacity:1"/>
<path class="bond-6 atom-6 atom-7" d="M 98.4,107.9 L 72.7,95.5" style="fill:none;fill-rule:evenodd;stroke:#000000;stroke-width:2.0px;stroke-linecap:butt;stroke-linejoin:miter;stroke-opacity:1"/>
<path class="bond-7 atom-7 atom-8" d="M 72.7,95.5 L 71.8,83.8" style="fill:none;fill-rule:evenodd;stroke:#000000;stroke-width:2.0px;stroke-linecap:butt;stroke-linejoin:miter;stroke-opacity:1"/>
<path class="bond-7 atom-7 atom-8" d="M 71.8,83.8 L 71.0,72.1" style="fill:none;fill-rule:evenodd;stroke:#FF0000;stroke-width:2.0px;stroke-linecap:butt;stroke-linejoin:miter;stroke-opacity:1"/>
<path class="bond-8 atom-7 atom-9" d="M 72.7,95.5 L 49.0,111.5" style="fill:none;fill-rule:evenodd;stroke:#000000;stroke-width:2.0px;stroke-linecap:butt;stroke-linejoin:miter;stroke-opacity:1"/>
<path class="bond-9 atom-9 atom-10" d="M 49.0,111.5 L 38.5,106.3" style="fill:none;fill-rule:evenodd;stroke:#000000;stroke-width:2.0px;stroke-linecap:butt;stroke-linejoin:miter;stroke-opacity:1"/>
<path class="bond-9 atom-9 atom-10" d="M 38.5,106.3 L 28.0,101.2" style="fill:none;fill-rule:evenodd;stroke:#FF0000;stroke-width:2.0px;stroke-linecap:butt;stroke-linejoin:miter;stroke-opacity:1"/>
<path d="M 198.2,100.1 L 197.0,100.9 L 195.7,100.3" style="fill:none;stroke:#000000;stroke-width:2.0px;stroke-linecap:butt;stroke-linejoin:miter;stroke-opacity:1;"/>
<path d="M 172.6,89.0 L 171.3,88.4 L 170.1,89.2" style="fill:none;stroke:#000000;stroke-width:2.0px;stroke-linecap:butt;stroke-linejoin:miter;stroke-opacity:1;"/>
<path d="M 148.9,103.6 L 147.7,104.4 L 147.2,104.2" style="fill:none;stroke:#000000;stroke-width:2.0px;stroke-linecap:butt;stroke-linejoin:miter;stroke-opacity:1;"/>
<path d="M 98.8,107.6 L 98.4,107.9 L 97.1,107.3" style="fill:none;stroke:#000000;stroke-width:2.0px;stroke-linecap:butt;stroke-linejoin:miter;stroke-opacity:1;"/>
<path d="M 50.2,110.7 L 49.0,111.5 L 48.5,111.2" style="fill:none;stroke:#000000;stroke-width:2.0px;stroke-linecap:butt;stroke-linejoin:miter;stroke-opacity:1;"/>
<path class="atom-4" d="M 146.0 132.9 Q 146.0 131.0, 147.0 129.9 Q 147.9 128.8, 149.7 128.8 Q 151.5 128.8, 152.5 129.9 Q 153.4 131.0, 153.4 132.9 Q 153.4 134.9, 152.5 136.0 Q 151.5 137.1, 149.7 137.1 Q 147.9 137.1, 147.0 136.0 Q 146.0 134.9, 146.0 132.9 M 149.7 136.2 Q 150.9 136.2, 151.6 135.4 Q 152.3 134.5, 152.3 132.9 Q 152.3 131.3, 151.6 130.5 Q 150.9 129.7, 149.7 129.7 Q 148.5 129.7, 147.8 130.5 Q 147.1 131.3, 147.1 132.9 Q 147.1 134.6, 147.8 135.4 Q 148.5 136.2, 149.7 136.2 " fill="#FF0000"/>
<path class="atom-5" d="M 118.3 92.0 Q 118.3 90.0, 119.2 88.9 Q 120.2 87.8, 122.0 87.8 Q 123.8 87.8, 124.8 88.9 Q 125.7 90.0, 125.7 92.0 Q 125.7 93.9, 124.7 95.0 Q 123.8 96.2, 122.0 96.2 Q 120.2 96.2, 119.2 95.0 Q 118.3 93.9, 118.3 92.0 M 122.0 95.2 Q 123.2 95.2, 123.9 94.4 Q 124.6 93.6, 124.6 92.0 Q 124.6 90.4, 123.9 89.6 Q 123.2 88.8, 122.0 88.8 Q 120.8 88.8, 120.1 89.6 Q 119.4 90.4, 119.4 92.0 Q 119.4 93.6, 120.1 94.4 Q 120.8 95.2, 122.0 95.2 " fill="#FF0000"/>
<path class="atom-8" d="M 66.9 67.0 Q 66.9 65.1, 67.9 64.0 Q 68.8 62.9, 70.6 62.9 Q 72.4 62.9, 73.4 64.0 Q 74.4 65.1, 74.4 67.0 Q 74.4 69.0, 73.4 70.1 Q 72.4 71.2, 70.6 71.2 Q 68.9 71.2, 67.9 70.1 Q 66.9 69.0, 66.9 67.0 M 70.6 70.3 Q 71.9 70.3, 72.5 69.5 Q 73.2 68.6, 73.2 67.0 Q 73.2 65.4, 72.5 64.6 Q 71.9 63.8, 70.6 63.8 Q 69.4 63.8, 68.7 64.6 Q 68.1 65.4, 68.1 67.0 Q 68.1 68.6, 68.7 69.5 Q 69.4 70.3, 70.6 70.3 " fill="#FF0000"/>
<path class="atom-8" d="M 75.6 63.0 L 76.7 63.0 L 76.7 66.4 L 80.8 66.4 L 80.8 63.0 L 81.9 63.0 L 81.9 71.1 L 80.8 71.1 L 80.8 67.3 L 76.7 67.3 L 76.7 71.1 L 75.6 71.1 L 75.6 63.0 " fill="#FF0000"/>
<path class="atom-10" d="M 11.6 95.0 L 12.7 95.0 L 12.7 98.4 L 16.9 98.4 L 16.9 95.0 L 18.0 95.0 L 18.0 103.1 L 16.9 103.1 L 16.9 99.3 L 12.7 99.3 L 12.7 103.1 L 11.6 103.1 L 11.6 95.0 " fill="#FF0000"/>
<path class="atom-10" d="M 19.6 99.0 Q 19.6 97.1, 20.6 96.0 Q 21.6 94.9, 23.3 94.9 Q 25.1 94.9, 26.1 96.0 Q 27.1 97.1, 27.1 99.0 Q 27.1 101.0, 26.1 102.1 Q 25.1 103.2, 23.3 103.2 Q 21.6 103.2, 20.6 102.1 Q 19.6 101.0, 19.6 99.0 M 23.3 102.3 Q 24.6 102.3, 25.2 101.5 Q 25.9 100.6, 25.9 99.0 Q 25.9 97.4, 25.2 96.6 Q 24.6 95.8, 23.3 95.8 Q 22.1 95.8, 21.4 96.6 Q 20.8 97.4, 20.8 99.0 Q 20.8 100.6, 21.4 101.5 Q 22.1 102.3, 23.3 102.3 " fill="#FF0000"/>
</g>
    <g transform="translate(673.0, 0) scale(1 1) "><line x1="15" y1="100" x2="25" y2="100" style="stroke:rgb(0,0,0);stroke-width:2"/>
  <line x1="20" y1="95" x2="20" y2="105" style="stroke:rgb(0,0,0);stroke-width:2"/>
</g>
    <g transform="translate(713.0, 0) scale(1 1) "><!-- END OF HEADER -->
<rect style="opacity:1.0;fill:#FFFFFF;stroke:none" width="25.0" height="200.0" x="0.0" y="0.0"> </rect>
<path class="atom-0" d="M 1.2 93.4 L 2.5 93.4 L 2.5 97.2 L 7.0 97.2 L 7.0 93.4 L 8.2 93.4 L 8.2 102.3 L 7.0 102.3 L 7.0 98.2 L 2.5 98.2 L 2.5 102.3 L 1.2 102.3 L 1.2 93.4 " fill="#FF0000"/>
<path class="atom-0" d="M 10.0 102.0 Q 10.2 101.4, 10.7 101.1 Q 11.2 100.8, 11.9 100.8 Q 12.8 100.8, 13.3 101.3 Q 13.8 101.7, 13.8 102.6 Q 13.8 103.5, 13.2 104.3 Q 12.5 105.1, 11.2 106.0 L 13.9 106.0 L 13.9 106.7 L 10.0 106.7 L 10.0 106.2 Q 11.1 105.4, 11.7 104.8 Q 12.4 104.2, 12.7 103.7 Q 13.0 103.2, 13.0 102.6 Q 13.0 102.1, 12.7 101.8 Q 12.4 101.4, 11.9 101.4 Q 11.5 101.4, 11.1 101.6 Q 10.8 101.8, 10.6 102.2 L 10.0 102.0 " fill="#FF0000"/>
<path class="atom-0" d="M 15.1 97.8 Q 15.1 95.7, 16.2 94.5 Q 17.2 93.3, 19.2 93.3 Q 21.1 93.3, 22.2 94.5 Q 23.2 95.7, 23.2 97.8 Q 23.2 100.0, 22.2 101.2 Q 21.1 102.4, 19.2 102.4 Q 17.2 102.4, 16.2 101.2 Q 15.1 100.0, 15.1 97.8 M 19.2 101.4 Q 20.5 101.4, 21.3 100.5 Q 22.0 99.6, 22.0 97.8 Q 22.0 96.1, 21.3 95.2 Q 20.5 94.3, 19.2 94.3 Q 17.8 94.3, 17.1 95.2 Q 16.4 96.1, 16.4 97.8 Q 16.4 99.6, 17.1 100.5 Q 17.8 101.4, 19.2 101.4 " fill="#FF0000"/>
</g>
  </g>
</svg>
