<?xml version='1.0' encoding='ASCII' standalone='yes'?>
<svg xmlns="http://www.w3.org/2000/svg" xmlns:xlink="http://www.w3.org/1999/xlink" version="1.1" width="1064.0px" viewBox="0 0 1064.0 200.0" height="200.0px">
  <g>
    <g transform="translate(0, 0) scale(1 1) "><!-- END OF HEADER -->
<rect style="opacity:1.0;fill:#FFFFFF;stroke:none" width="247.0" height="200.0" x="0.0" y="0.0"> </rect>
<path class="bond-0 atom-0 atom-1" d="M 86.5,67.0 L 84.5,80.4" style="fill:none;fill-rule:evenodd;stroke:#0000FF;stroke-width:2.0px;stroke-linecap:butt;stroke-linejoin:miter;stroke-opacity:1"/>
<path class="bond-0 atom-0 atom-1" d="M 84.5,80.4 L 82.4,93.9" style="fill:none;fill-rule:evenodd;stroke:#000000;stroke-width:2.0px;stroke-linecap:butt;stroke-linejoin:miter;stroke-opacity:1"/>
<path class="bond-1 atom-1 atom-2" d="M 82.4,93.9 L 108.2,114.5" style="fill:none;fill-rule:evenodd;stroke:#000000;stroke-width:2.0px;stroke-linecap:butt;stroke-linejoin:miter;stroke-opacity:1"/>
<path class="bond-2 atom-2 atom-3" d="M 108.2,114.5 L 139.0,102.5" style="fill:none;fill-rule:evenodd;stroke:#000000;stroke-width:2.0px;stroke-linecap:butt;stroke-linejoin:miter;stroke-opacity:1"/>
<path class="bond-3 atom-3 atom-4" d="M 139.0,102.5 L 143.9,69.8" style="fill:none;fill-rule:evenodd;stroke:#000000;stroke-width:2.0px;stroke-linecap:butt;stroke-linejoin:miter;stroke-opacity:1"/>
<path class="bond-3 atom-3 atom-4" d="M 144.3,100.4 L 148.4,73.4" style="fill:none;fill-rule:evenodd;stroke:#000000;stroke-width:2.0px;stroke-linecap:butt;stroke-linejoin:miter;stroke-opacity:1"/>
<path class="bond-4 atom-4 atom-5" d="M 143.9,69.8 L 174.7,57.8" style="fill:none;fill-rule:evenodd;stroke:#000000;stroke-width:2.0px;stroke-linecap:butt;stroke-linejoin:miter;stroke-opacity:1"/>
<path class="bond-5 atom-5 atom-6" d="M 174.7,57.8 L 200.5,78.4" style="fill:none;fill-rule:evenodd;stroke:#000000;stroke-width:2.0px;stroke-linecap:butt;stroke-linejoin:miter;stroke-opacity:1"/>
<path class="bond-5 atom-5 atom-6" d="M 173.8,63.5 L 195.1,80.5" style="fill:none;fill-rule:evenodd;stroke:#000000;stroke-width:2.0px;stroke-linecap:butt;stroke-linejoin:miter;stroke-opacity:1"/>
<path class="bond-6 atom-6 atom-7" d="M 200.5,78.4 L 195.5,111.1" style="fill:none;fill-rule:evenodd;stroke:#000000;stroke-width:2.0px;stroke-linecap:butt;stroke-linejoin:miter;stroke-opacity:1"/>
<path class="bond-7 atom-7 atom-8" d="M 195.5,111.1 L 205.7,119.2" style="fill:none;fill-rule:evenodd;stroke:#000000;stroke-width:2.0px;stroke-linecap:butt;stroke-linejoin:miter;stroke-opacity:1"/>
<path class="bond-7 atom-7 atom-8" d="M 205.7,119.2 L 215.9,127.4" style="fill:none;fill-rule:evenodd;stroke:#FF0000;stroke-width:2.0px;stroke-linecap:butt;stroke-linejoin:miter;stroke-opacity:1"/>
<path class="bond-8 atom-7 atom-9" d="M 195.5,111.1 L 164.7,123.1" style="fill:none;fill-rule:evenodd;stroke:#000000;stroke-width:2.0px;stroke-linecap:butt;stroke-linejoin:miter;stroke-opacity:1"/>
<path class="bond-8 atom-7 atom-9" d="M 191.0,107.5 L 165.6,117.4" style="fill:none;fill-rule:evenodd;stroke:#000000;stroke-width:2.0px;stroke-linecap:butt;stroke-linejoin:miter;stroke-opacity:1"/>
<path class="bond-9 atom-1 atom-10" d="M 82.4,93.9 L 51.7,105.9" style="fill:none;fill-rule:evenodd;stroke:#000000;stroke-width:2.0px;stroke-linecap:butt;stroke-linejoin:miter;stroke-opacity:1"/>
<path class="bond-10 atom-10 atom-11" d="M 49.4,104.1 L 47.3,118.2" style="fill:none;fill-rule:evenodd;stroke:#000000;stroke-width:2.0px;stroke-linecap:butt;stroke-linejoin:miter;stroke-opacity:1"/>
<path class="bond-10 atom-10 atom-11" d="M 47.3,118.2 L 45.1,132.4" style="fill:none;fill-rule:evenodd;stroke:#FF0000;stroke-width:2.0px;stroke-linecap:butt;stroke-linejoin:miter;stroke-opacity:1"/>
<path class="bond-10 atom-10 atom-11" d="M 54.3,104.9 L 52.2,119.0" style="fill:none;fill-rule:evenodd;stroke:#000000;stroke-width:2.0px;stroke-linecap:butt;stroke-linejoin:miter;stroke-opacity:1"/>
<path class="bond-10 atom-10 atom-11" d="M 52.2,119.0 L 50.0,133.1" style="fill:none;fill-rule:evenodd;stroke:#FF0000;stroke-width:2.0px;stroke-linecap:butt;stroke-linejoin:miter;stroke-opacity:1"/>
<path class="bond-11 atom-10 atom-12" d="M 51.7,105.9 L 41.5,97.8" style="fill:none;fill-rule:evenodd;stroke:#000000;stroke-width:2.0px;stroke-linecap:butt;stroke-linejoin:miter;stroke-opacity:1"/>
<path class="bond-11 atom-10 atom-12" d="M 41.5,97.8 L 31.3,89.6" style="fill:none;fill-rule:evenodd;stroke:#FF0000;stroke-width:2.0px;stroke-linecap:butt;stroke-linejoin:miter;stroke-opacity:1"/>
<path class="bond-12 atom-9 atom-3" d="M 164.7,123.1 L 139.0,102.5" style="fill:none;fill-rule:evenodd;stroke:#000000;stroke-width:2.0px;stroke-linecap:butt;stroke-linejoin:miter;stroke-opacity:1"/>
<path d="M 106.9,113.5 L 108.2,114.5 L 109.7,113.9" style="fill:none;stroke:#000000;stroke-width:2.0px;stroke-linecap:butt;stroke-linejoin:miter;stroke-opacity:1;"/>
<path d="M 143.7,71.5 L 143.9,69.8 L 145.4,69.2" style="fill:none;stroke:#000000;stroke-width:2.0px;stroke-linecap:butt;stroke-linejoin:miter;stroke-opacity:1;"/>
<path d="M 173.1,58.4 L 174.7,57.8 L 176.0,58.8" style="fill:none;stroke:#000000;stroke-width:2.0px;stroke-linecap:butt;stroke-linejoin:miter;stroke-opacity:1;"/>
<path d="M 199.2,77.4 L 200.5,78.4 L 200.2,80.0" style="fill:none;stroke:#000000;stroke-width:2.0px;stroke-linecap:butt;stroke-linejoin:miter;stroke-opacity:1;"/>
<path d="M 166.3,122.5 L 164.7,123.1 L 163.5,122.1" style="fill:none;stroke:#000000;stroke-width:2.0px;stroke-linecap:butt;stroke-linejoin:miter;stroke-opacity:1;"/>
<path d="M 53.2,105.3 L 51.7,105.9 L 51.2,105.5" style="fill:none;stroke:#000000;stroke-width:2.0px;stroke-linecap:butt;stroke-linejoin:miter;stroke-opacity:1;"/>
<path class="atom-0" d="M 85.3 56.6 L 88.4 61.5 Q 88.7 62.0, 89.2 62.9 Q 89.7 63.8, 89.7 63.8 L 89.7 56.6 L 90.9 56.6 L 90.9 65.9 L 89.6 65.9 L 86.3 60.5 Q 86.0 59.9, 85.6 59.1 Q 85.2 58.4, 85.0 58.2 L 85.0 65.9 L 83.8 65.9 L 83.8 56.6 L 85.3 56.6 " fill="#0000FF"/>
<path class="atom-0" d="M 92.7 56.6 L 94.0 56.6 L 94.0 60.5 L 98.8 60.5 L 98.8 56.6 L 100.0 56.6 L 100.0 65.9 L 98.8 65.9 L 98.8 61.6 L 94.0 61.6 L 94.0 65.9 L 92.7 65.9 L 92.7 56.6 " fill="#0000FF"/>
<path class="atom-0" d="M 101.9 65.6 Q 102.1 65.0, 102.6 64.7 Q 103.2 64.4, 103.9 64.4 Q 104.8 64.4, 105.4 64.9 Q 105.9 65.4, 105.9 66.3 Q 105.9 67.2, 105.2 68.0 Q 104.5 68.9, 103.1 69.9 L 106.0 69.9 L 106.0 70.6 L 101.8 70.6 L 101.8 70.0 Q 103.0 69.2, 103.7 68.6 Q 104.4 68.0, 104.7 67.4 Q 105.0 66.9, 105.0 66.3 Q 105.0 65.7, 104.7 65.4 Q 104.4 65.1, 103.9 65.1 Q 103.4 65.1, 103.1 65.3 Q 102.8 65.5, 102.5 65.9 L 101.9 65.6 " fill="#0000FF"/>
<path class="atom-8" d="M 217.0 131.7 Q 217.0 129.5, 218.1 128.2 Q 219.2 126.9, 221.3 126.9 Q 223.4 126.9, 224.5 128.2 Q 225.6 129.5, 225.6 131.7 Q 225.6 134.0, 224.5 135.3 Q 223.3 136.5, 221.3 136.5 Q 219.2 136.5, 218.1 135.3 Q 217.0 134.0, 217.0 131.7 M 221.3 135.5 Q 222.7 135.5, 223.5 134.5 Q 224.3 133.6, 224.3 131.7 Q 224.3 129.9, 223.5 128.9 Q 222.7 128.0, 221.3 128.0 Q 219.9 128.0, 219.1 128.9 Q 218.3 129.9, 218.3 131.7 Q 218.3 133.6, 219.1 134.5 Q 219.9 135.5, 221.3 135.5 " fill="#FF0000"/>
<path class="atom-8" d="M 227.0 127.1 L 228.3 127.1 L 228.3 131.0 L 233.1 131.0 L 233.1 127.1 L 234.3 127.1 L 234.3 136.4 L 233.1 136.4 L 233.1 132.1 L 228.3 132.1 L 228.3 136.4 L 227.0 136.4 L 227.0 127.1 " fill="#FF0000"/>
<path class="atom-11" d="M 42.4 138.6 Q 42.4 136.3, 43.5 135.1 Q 44.6 133.8, 46.7 133.8 Q 48.8 133.8, 49.9 135.1 Q 51.0 136.3, 51.0 138.6 Q 51.0 140.9, 49.9 142.2 Q 48.8 143.4, 46.7 143.4 Q 44.7 143.4, 43.5 142.2 Q 42.4 140.9, 42.4 138.6 M 46.7 142.4 Q 48.1 142.4, 48.9 141.4 Q 49.7 140.5, 49.7 138.6 Q 49.7 136.7, 48.9 135.8 Q 48.1 134.9, 46.7 134.9 Q 45.3 134.9, 44.5 135.8 Q 43.7 136.7, 43.7 138.6 Q 43.7 140.5, 44.5 141.4 Q 45.3 142.4, 46.7 142.4 " fill="#FF0000"/>
<path class="atom-12" d="M 12.3 80.7 L 13.6 80.7 L 13.6 84.7 L 18.4 84.7 L 18.4 80.7 L 19.7 80.7 L 19.7 90.0 L 18.4 90.0 L 18.4 85.7 L 13.6 85.7 L 13.6 90.0 L 12.3 90.0 L 12.3 80.7 " fill="#FF0000"/>
<path class="atom-12" d="M 21.6 85.3 Q 21.6 83.1, 22.7 81.8 Q 23.8 80.6, 25.9 80.6 Q 27.9 80.6, 29.1 81.8 Q 30.2 83.1, 30.2 85.3 Q 30.2 87.6, 29.0 88.9 Q 27.9 90.2, 25.9 90.2 Q 23.8 90.2, 22.7 88.9 Q 21.6 87.6, 21.6 85.3 M 25.9 89.1 Q 27.3 89.1, 28.1 88.2 Q 28.8 87.2, 28.8 85.3 Q 28.8 83.5, 28.1 82.6 Q 27.3 81.6, 25.9 81.6 Q 24.5 81.6, 23.7 82.6 Q 22.9 83.5, 22.9 85.3 Q 22.9 87.2, 23.7 88.2 Q 24.5 89.1, 25.9 89.1 " fill="#FF0000"/>
</g>
    <g transform="translate(247.0, 0) scale(1 1) "><line x1="15" y1="100" x2="25" y2="100" style="stroke:rgb(0,0,0);stroke-width:2"/>
  <line x1="20" y1="95" x2="20" y2="105" style="stroke:rgb(0,0,0);stroke-width:2"/>
</g>
    <g transform="translate(287.0, 0) scale(1 1) "><!-- END OF HEADER -->
<rect style="opacity:1.0;fill:#FFFFFF;stroke:none" width="225.0" height="200.0" x="0.0" y="0.0"> </rect>
<path class="bond-0 atom-0 atom-1" d="M 170.5,130.9 L 169.8,116.3" style="fill:none;fill-rule:evenodd;stroke:#FF0000;stroke-width:2.0px;stroke-linecap:butt;stroke-linejoin:miter;stroke-opacity:1"/>
<path class="bond-0 atom-0 atom-1" d="M 169.8,116.3 L 169.0,101.8" style="fill:none;fill-rule:evenodd;stroke:#000000;stroke-width:2.0px;stroke-linecap:butt;stroke-linejoin:miter;stroke-opacity:1"/>
<path class="bond-0 atom-0 atom-1" d="M 175.6,130.7 L 174.8,116.1" style="fill:none;fill-rule:evenodd;stroke:#FF0000;stroke-width:2.0px;stroke-linecap:butt;stroke-linejoin:miter;stroke-opacity:1"/>
<path class="bond-0 atom-0 atom-1" d="M 174.8,116.1 L 174.1,101.5" style="fill:none;fill-rule:evenodd;stroke:#000000;stroke-width:2.0px;stroke-linecap:butt;stroke-linejoin:miter;stroke-opacity:1"/>
<path class="bond-1 atom-1 atom-2" d="M 171.6,103.1 L 183.0,95.7" style="fill:none;fill-rule:evenodd;stroke:#000000;stroke-width:2.0px;stroke-linecap:butt;stroke-linejoin:miter;stroke-opacity:1"/>
<path class="bond-1 atom-1 atom-2" d="M 183.0,95.7 L 194.4,88.3" style="fill:none;fill-rule:evenodd;stroke:#FF0000;stroke-width:2.0px;stroke-linecap:butt;stroke-linejoin:miter;stroke-opacity:1"/>
<path class="bond-2 atom-1 atom-3" d="M 171.6,103.1 L 141.6,87.8" style="fill:none;fill-rule:evenodd;stroke:#000000;stroke-width:2.0px;stroke-linecap:butt;stroke-linejoin:miter;stroke-opacity:1"/>
<path class="bond-3 atom-3 atom-4" d="M 141.6,87.8 L 113.4,106.1" style="fill:none;fill-rule:evenodd;stroke:#000000;stroke-width:2.0px;stroke-linecap:butt;stroke-linejoin:miter;stroke-opacity:1"/>
<path class="bond-4 atom-4 atom-5" d="M 113.4,106.1 L 83.3,90.8" style="fill:none;fill-rule:evenodd;stroke:#000000;stroke-width:2.0px;stroke-linecap:butt;stroke-linejoin:miter;stroke-opacity:1"/>
<path class="bond-5 atom-5 atom-6" d="M 85.9,92.1 L 85.2,77.6" style="fill:none;fill-rule:evenodd;stroke:#000000;stroke-width:2.0px;stroke-linecap:butt;stroke-linejoin:miter;stroke-opacity:1"/>
<path class="bond-5 atom-5 atom-6" d="M 85.2,77.6 L 84.4,63.1" style="fill:none;fill-rule:evenodd;stroke:#FF0000;stroke-width:2.0px;stroke-linecap:butt;stroke-linejoin:miter;stroke-opacity:1"/>
<path class="bond-5 atom-5 atom-6" d="M 80.9,92.3 L 80.1,77.8" style="fill:none;fill-rule:evenodd;stroke:#000000;stroke-width:2.0px;stroke-linecap:butt;stroke-linejoin:miter;stroke-opacity:1"/>
<path class="bond-5 atom-5 atom-6" d="M 80.1,77.8 L 79.4,63.3" style="fill:none;fill-rule:evenodd;stroke:#FF0000;stroke-width:2.0px;stroke-linecap:butt;stroke-linejoin:miter;stroke-opacity:1"/>
<path class="bond-6 atom-5 atom-7" d="M 83.3,90.8 L 55.1,109.1" style="fill:none;fill-rule:evenodd;stroke:#000000;stroke-width:2.0px;stroke-linecap:butt;stroke-linejoin:miter;stroke-opacity:1"/>
<path class="bond-7 atom-7 atom-8" d="M 52.5,107.8 L 53.2,122.3" style="fill:none;fill-rule:evenodd;stroke:#000000;stroke-width:2.0px;stroke-linecap:butt;stroke-linejoin:miter;stroke-opacity:1"/>
<path class="bond-7 atom-7 atom-8" d="M 53.2,122.3 L 54.0,136.9" style="fill:none;fill-rule:evenodd;stroke:#FF0000;stroke-width:2.0px;stroke-linecap:butt;stroke-linejoin:miter;stroke-opacity:1"/>
<path class="bond-7 atom-7 atom-8" d="M 57.5,107.5 L 58.3,122.1" style="fill:none;fill-rule:evenodd;stroke:#000000;stroke-width:2.0px;stroke-linecap:butt;stroke-linejoin:miter;stroke-opacity:1"/>
<path class="bond-7 atom-7 atom-8" d="M 58.3,122.1 L 59.0,136.7" style="fill:none;fill-rule:evenodd;stroke:#FF0000;stroke-width:2.0px;stroke-linecap:butt;stroke-linejoin:miter;stroke-opacity:1"/>
<path class="bond-8 atom-7 atom-9" d="M 55.1,109.1 L 42.8,102.8" style="fill:none;fill-rule:evenodd;stroke:#000000;stroke-width:2.0px;stroke-linecap:butt;stroke-linejoin:miter;stroke-opacity:1"/>
<path class="bond-8 atom-7 atom-9" d="M 42.8,102.8 L 30.5,96.6" style="fill:none;fill-rule:evenodd;stroke:#FF0000;stroke-width:2.0px;stroke-linecap:butt;stroke-linejoin:miter;stroke-opacity:1"/>
<path d="M 172.2,102.7 L 171.6,103.1 L 170.1,102.3" style="fill:none;stroke:#000000;stroke-width:2.0px;stroke-linecap:butt;stroke-linejoin:miter;stroke-opacity:1;"/>
<path d="M 143.1,88.5 L 141.6,87.8 L 140.2,88.7" style="fill:none;stroke:#000000;stroke-width:2.0px;stroke-linecap:butt;stroke-linejoin:miter;stroke-opacity:1;"/>
<path d="M 114.8,105.2 L 113.4,106.1 L 111.9,105.3" style="fill:none;stroke:#000000;stroke-width:2.0px;stroke-linecap:butt;stroke-linejoin:miter;stroke-opacity:1;"/>
<path d="M 84.8,91.5 L 83.3,90.8 L 81.9,91.7" style="fill:none;stroke:#000000;stroke-width:2.0px;stroke-linecap:butt;stroke-linejoin:miter;stroke-opacity:1;"/>
<path d="M 56.5,108.2 L 55.1,109.1 L 54.5,108.8" style="fill:none;stroke:#000000;stroke-width:2.0px;stroke-linecap:butt;stroke-linejoin:miter;stroke-opacity:1;"/>
<path class="atom-0" d="M 169.0 136.8 Q 169.0 134.5, 170.1 133.2 Q 171.3 131.9, 173.4 131.9 Q 175.5 131.9, 176.6 133.2 Q 177.8 134.5, 177.8 136.8 Q 177.8 139.1, 176.6 140.4 Q 175.5 141.7, 173.4 141.7 Q 171.3 141.7, 170.1 140.4 Q 169.0 139.1, 169.0 136.8 M 173.4 140.6 Q 174.8 140.6, 175.6 139.7 Q 176.4 138.7, 176.4 136.8 Q 176.4 134.9, 175.6 133.9 Q 174.8 133.0, 173.4 133.0 Q 171.9 133.0, 171.1 133.9 Q 170.3 134.9, 170.3 136.8 Q 170.3 138.7, 171.1 139.7 Q 171.9 140.6, 173.4 140.6 " fill="#FF0000"/>
<path class="atom-2" d="M 195.5 84.8 Q 195.5 82.5, 196.7 81.2 Q 197.8 79.9, 199.9 79.9 Q 202.0 79.9, 203.2 81.2 Q 204.3 82.5, 204.3 84.8 Q 204.3 87.1, 203.2 88.4 Q 202.0 89.7, 199.9 89.7 Q 197.8 89.7, 196.7 88.4 Q 195.5 87.1, 195.5 84.8 M 199.9 88.7 Q 201.4 88.7, 202.2 87.7 Q 202.9 86.7, 202.9 84.8 Q 202.9 82.9, 202.2 82.0 Q 201.4 81.0, 199.9 81.0 Q 198.5 81.0, 197.7 82.0 Q 196.9 82.9, 196.9 84.8 Q 196.9 86.7, 197.7 87.7 Q 198.5 88.7, 199.9 88.7 " fill="#FF0000"/>
<path class="atom-2" d="M 205.8 80.0 L 207.1 80.0 L 207.1 84.1 L 212.0 84.1 L 212.0 80.0 L 213.2 80.0 L 213.2 89.6 L 212.0 89.6 L 212.0 85.2 L 207.1 85.2 L 207.1 89.6 L 205.8 89.6 L 205.8 80.0 " fill="#FF0000"/>
<path class="atom-6" d="M 77.2 57.1 Q 77.2 54.8, 78.4 53.6 Q 79.5 52.3, 81.6 52.3 Q 83.7 52.3, 84.9 53.6 Q 86.0 54.8, 86.0 57.1 Q 86.0 59.5, 84.8 60.8 Q 83.7 62.1, 81.6 62.1 Q 79.5 62.1, 78.4 60.8 Q 77.2 59.5, 77.2 57.1 M 81.6 61.0 Q 83.1 61.0, 83.8 60.0 Q 84.6 59.1, 84.6 57.1 Q 84.6 55.3, 83.8 54.3 Q 83.1 53.4, 81.6 53.4 Q 80.2 53.4, 79.4 54.3 Q 78.6 55.3, 78.6 57.1 Q 78.6 59.1, 79.4 60.0 Q 80.2 61.0, 81.6 61.0 " fill="#FF0000"/>
<path class="atom-8" d="M 52.4 142.8 Q 52.4 140.5, 53.5 139.2 Q 54.7 137.9, 56.8 137.9 Q 58.9 137.9, 60.0 139.2 Q 61.2 140.5, 61.2 142.8 Q 61.2 145.1, 60.0 146.4 Q 58.9 147.7, 56.8 147.7 Q 54.7 147.7, 53.5 146.4 Q 52.4 145.1, 52.4 142.8 M 56.8 146.6 Q 58.3 146.6, 59.0 145.7 Q 59.8 144.7, 59.8 142.8 Q 59.8 140.9, 59.0 140.0 Q 58.3 139.0, 56.8 139.0 Q 55.3 139.0, 54.5 139.9 Q 53.8 140.9, 53.8 142.8 Q 53.8 144.7, 54.5 145.7 Q 55.3 146.6, 56.8 146.6 " fill="#FF0000"/>
<path class="atom-9" d="M 11.2 89.0 L 12.5 89.0 L 12.5 93.1 L 17.4 93.1 L 17.4 89.0 L 18.7 89.0 L 18.7 98.6 L 17.4 98.6 L 17.4 94.2 L 12.5 94.2 L 12.5 98.6 L 11.2 98.6 L 11.2 89.0 " fill="#FF0000"/>
<path class="atom-9" d="M 20.7 93.8 Q 20.7 91.5, 21.8 90.2 Q 22.9 88.9, 25.1 88.9 Q 27.2 88.9, 28.3 90.2 Q 29.4 91.5, 29.4 93.8 Q 29.4 96.1, 28.3 97.4 Q 27.1 98.7, 25.1 98.7 Q 23.0 98.7, 21.8 97.4 Q 20.7 96.1, 20.7 93.8 M 25.1 97.7 Q 26.5 97.7, 27.3 96.7 Q 28.1 95.7, 28.1 93.8 Q 28.1 91.9, 27.3 91.0 Q 26.5 90.0, 25.1 90.0 Q 23.6 90.0, 22.8 91.0 Q 22.0 91.9, 22.0 93.8 Q 22.0 95.7, 22.8 96.7 Q 23.6 97.7, 25.1 97.7 " fill="#FF0000"/>
</g>
    <g transform="translate(512.0, 0) scale(1 1) "><line x1="5" y1="100" x2="35" y2="100" style="stroke:rgb(0,0,0);stroke-width:2"/>
  <line x1="34" y1="100" x2="29" y2="95" style="stroke:rgb(0,0,0);stroke-width:2"/>
  <line x1="34" y1="100" x2="29" y2="105" style="stroke:rgb(0,0,0);stroke-width:2"/>
</g>
    <g transform="translate(552.0, 0) scale(1 1) "><!-- END OF HEADER -->
<rect style="opacity:1.0;fill:#FFFFFF;stroke:none" width="225.0" height="200.0" x="0.0" y="0.0"> </rect>
<path class="bond-0 atom-0 atom-1" d="M 143.1,134.6 L 142.3,120.7" style="fill:none;fill-rule:evenodd;stroke:#0000FF;stroke-width:2.0px;stroke-linecap:butt;stroke-linejoin:miter;stroke-opacity:1"/>
<path class="bond-0 atom-0 atom-1" d="M 142.3,120.7 L 141.6,106.8" style="fill:none;fill-rule:evenodd;stroke:#000000;stroke-width:2.0px;stroke-linecap:butt;stroke-linejoin:miter;stroke-opacity:1"/>
<path class="bond-1 atom-1 atom-2" d="M 141.6,106.8 L 111.6,91.5" style="fill:none;fill-rule:evenodd;stroke:#000000;stroke-width:2.0px;stroke-linecap:butt;stroke-linejoin:miter;stroke-opacity:1"/>
<path class="bond-2 atom-2 atom-3" d="M 111.6,91.5 L 83.3,109.8" style="fill:none;fill-rule:evenodd;stroke:#000000;stroke-width:2.0px;stroke-linecap:butt;stroke-linejoin:miter;stroke-opacity:1"/>
<path class="bond-3 atom-3 atom-4" d="M 83.3,109.8 L 53.3,94.5" style="fill:none;fill-rule:evenodd;stroke:#000000;stroke-width:2.0px;stroke-linecap:butt;stroke-linejoin:miter;stroke-opacity:1"/>
<path class="bond-4 atom-4 atom-5" d="M 55.9,95.8 L 55.2,81.3" style="fill:none;fill-rule:evenodd;stroke:#000000;stroke-width:2.0px;stroke-linecap:butt;stroke-linejoin:miter;stroke-opacity:1"/>
<path class="bond-4 atom-4 atom-5" d="M 55.2,81.3 L 54.4,66.8" style="fill:none;fill-rule:evenodd;stroke:#FF0000;stroke-width:2.0px;stroke-linecap:butt;stroke-linejoin:miter;stroke-opacity:1"/>
<path class="bond-4 atom-4 atom-5" d="M 50.9,96.1 L 50.1,81.6" style="fill:none;fill-rule:evenodd;stroke:#000000;stroke-width:2.0px;stroke-linecap:butt;stroke-linejoin:miter;stroke-opacity:1"/>
<path class="bond-4 atom-4 atom-5" d="M 50.1,81.6 L 49.4,67.0" style="fill:none;fill-rule:evenodd;stroke:#FF0000;stroke-width:2.0px;stroke-linecap:butt;stroke-linejoin:miter;stroke-opacity:1"/>
<path class="bond-5 atom-4 atom-6" d="M 53.3,94.5 L 41.9,101.9" style="fill:none;fill-rule:evenodd;stroke:#000000;stroke-width:2.0px;stroke-linecap:butt;stroke-linejoin:miter;stroke-opacity:1"/>
<path class="bond-5 atom-4 atom-6" d="M 41.9,101.9 L 30.5,109.2" style="fill:none;fill-rule:evenodd;stroke:#FF0000;stroke-width:2.0px;stroke-linecap:butt;stroke-linejoin:miter;stroke-opacity:1"/>
<path class="bond-6 atom-1 atom-7" d="M 141.6,106.8 L 169.9,88.5" style="fill:none;fill-rule:evenodd;stroke:#000000;stroke-width:2.0px;stroke-linecap:butt;stroke-linejoin:miter;stroke-opacity:1"/>
<path class="bond-7 atom-7 atom-8" d="M 172.5,89.8 L 171.8,75.3" style="fill:none;fill-rule:evenodd;stroke:#000000;stroke-width:2.0px;stroke-linecap:butt;stroke-linejoin:miter;stroke-opacity:1"/>
<path class="bond-7 atom-7 atom-8" d="M 171.8,75.3 L 171.0,60.8" style="fill:none;fill-rule:evenodd;stroke:#FF0000;stroke-width:2.0px;stroke-linecap:butt;stroke-linejoin:miter;stroke-opacity:1"/>
<path class="bond-7 atom-7 atom-8" d="M 167.5,90.1 L 166.7,75.6" style="fill:none;fill-rule:evenodd;stroke:#000000;stroke-width:2.0px;stroke-linecap:butt;stroke-linejoin:miter;stroke-opacity:1"/>
<path class="bond-7 atom-7 atom-8" d="M 166.7,75.6 L 166.0,61.0" style="fill:none;fill-rule:evenodd;stroke:#FF0000;stroke-width:2.0px;stroke-linecap:butt;stroke-linejoin:miter;stroke-opacity:1"/>
<path class="bond-8 atom-7 atom-9" d="M 169.9,88.5 L 182.2,94.7" style="fill:none;fill-rule:evenodd;stroke:#000000;stroke-width:2.0px;stroke-linecap:butt;stroke-linejoin:miter;stroke-opacity:1"/>
<path class="bond-8 atom-7 atom-9" d="M 182.2,94.7 L 194.4,101.0" style="fill:none;fill-rule:evenodd;stroke:#FF0000;stroke-width:2.0px;stroke-linecap:butt;stroke-linejoin:miter;stroke-opacity:1"/>
<path d="M 113.1,92.2 L 111.6,91.5 L 110.2,92.4" style="fill:none;stroke:#000000;stroke-width:2.0px;stroke-linecap:butt;stroke-linejoin:miter;stroke-opacity:1;"/>
<path d="M 84.8,108.9 L 83.3,109.8 L 81.8,109.0" style="fill:none;stroke:#000000;stroke-width:2.0px;stroke-linecap:butt;stroke-linejoin:miter;stroke-opacity:1;"/>
<path d="M 54.8,95.2 L 53.3,94.5 L 52.8,94.8" style="fill:none;stroke:#000000;stroke-width:2.0px;stroke-linecap:butt;stroke-linejoin:miter;stroke-opacity:1;"/>
<path d="M 168.5,89.4 L 169.9,88.5 L 170.5,88.8" style="fill:none;stroke:#000000;stroke-width:2.0px;stroke-linecap:butt;stroke-linejoin:miter;stroke-opacity:1;"/>
<path class="atom-0" d="M 141.3 135.7 L 144.4 140.7 Q 144.7 141.2, 145.2 142.1 Q 145.7 143.0, 145.7 143.1 L 145.7 135.7 L 147.0 135.7 L 147.0 145.2 L 145.7 145.2 L 142.3 139.7 Q 141.9 139.1, 141.5 138.3 Q 141.1 137.6, 141.0 137.3 L 141.0 145.2 L 139.7 145.2 L 139.7 135.7 L 141.3 135.7 " fill="#0000FF"/>
<path class="atom-0" d="M 148.8 135.7 L 150.1 135.7 L 150.1 139.7 L 155.0 139.7 L 155.0 135.7 L 156.3 135.7 L 156.3 145.2 L 155.0 145.2 L 155.0 140.8 L 150.1 140.8 L 150.1 145.2 L 148.8 145.2 L 148.8 135.7 " fill="#0000FF"/>
<path class="atom-0" d="M 158.1 144.9 Q 158.4 144.3, 158.9 144.0 Q 159.5 143.6, 160.2 143.6 Q 161.2 143.6, 161.7 144.1 Q 162.3 144.7, 162.3 145.6 Q 162.3 146.5, 161.6 147.4 Q 160.9 148.3, 159.5 149.3 L 162.4 149.3 L 162.4 150.0 L 158.1 150.0 L 158.1 149.4 Q 159.3 148.6, 160.0 147.9 Q 160.7 147.3, 161.0 146.8 Q 161.4 146.2, 161.4 145.6 Q 161.4 145.0, 161.1 144.7 Q 160.8 144.3, 160.2 144.3 Q 159.7 144.3, 159.4 144.5 Q 159.1 144.8, 158.8 145.2 L 158.1 144.9 " fill="#0000FF"/>
<path class="atom-5" d="M 47.2 60.9 Q 47.2 58.6, 48.4 57.3 Q 49.5 56.0, 51.6 56.0 Q 53.7 56.0, 54.8 57.3 Q 56.0 58.6, 56.0 60.9 Q 56.0 63.2, 54.8 64.5 Q 53.7 65.8, 51.6 65.8 Q 49.5 65.8, 48.4 64.5 Q 47.2 63.2, 47.2 60.9 M 51.6 64.7 Q 53.1 64.7, 53.8 63.8 Q 54.6 62.8, 54.6 60.9 Q 54.6 59.0, 53.8 58.0 Q 53.1 57.1, 51.6 57.1 Q 50.1 57.1, 49.3 58.0 Q 48.6 59.0, 48.6 60.9 Q 48.6 62.8, 49.3 63.8 Q 50.1 64.7, 51.6 64.7 " fill="#FF0000"/>
<path class="atom-6" d="M 11.2 108.1 L 12.5 108.1 L 12.5 112.1 L 17.4 112.1 L 17.4 108.1 L 18.7 108.1 L 18.7 117.6 L 17.4 117.6 L 17.4 113.2 L 12.5 113.2 L 12.5 117.6 L 11.2 117.6 L 11.2 108.1 " fill="#FF0000"/>
<path class="atom-6" d="M 20.7 112.8 Q 20.7 110.5, 21.8 109.3 Q 22.9 108.0, 25.1 108.0 Q 27.2 108.0, 28.3 109.3 Q 29.4 110.5, 29.4 112.8 Q 29.4 115.2, 28.3 116.5 Q 27.1 117.8, 25.1 117.8 Q 23.0 117.8, 21.8 116.5 Q 20.7 115.2, 20.7 112.8 M 25.1 116.7 Q 26.5 116.7, 27.3 115.7 Q 28.1 114.7, 28.1 112.8 Q 28.1 111.0, 27.3 110.0 Q 26.5 109.1, 25.1 109.1 Q 23.6 109.1, 22.8 110.0 Q 22.0 110.9, 22.0 112.8 Q 22.0 114.8, 22.8 115.7 Q 23.6 116.7, 25.1 116.7 " fill="#FF0000"/>
<path class="atom-8" d="M 163.8 54.9 Q 163.8 52.6, 164.9 51.3 Q 166.1 50.0, 168.2 50.0 Q 170.3 50.0, 171.4 51.3 Q 172.6 52.6, 172.6 54.9 Q 172.6 57.2, 171.4 58.5 Q 170.3 59.8, 168.2 59.8 Q 166.1 59.8, 164.9 58.5 Q 163.8 57.2, 163.8 54.9 M 168.2 58.7 Q 169.6 58.7, 170.4 57.8 Q 171.2 56.8, 171.2 54.9 Q 171.2 53.0, 170.4 52.0 Q 169.6 51.1, 168.2 51.1 Q 166.7 51.1, 165.9 52.0 Q 165.1 53.0, 165.1 54.9 Q 165.1 56.8, 165.9 57.8 Q 166.7 58.7, 168.2 58.7 " fill="#FF0000"/>
<path class="atom-9" d="M 195.5 103.8 Q 195.5 101.5, 196.7 100.3 Q 197.8 99.0, 199.9 99.0 Q 202.0 99.0, 203.2 100.3 Q 204.3 101.5, 204.3 103.8 Q 204.3 106.1, 203.2 107.5 Q 202.0 108.8, 199.9 108.8 Q 197.8 108.8, 196.7 107.5 Q 195.5 106.2, 195.5 103.8 M 199.9 107.7 Q 201.4 107.7, 202.2 106.7 Q 202.9 105.7, 202.9 103.8 Q 202.9 102.0, 202.2 101.0 Q 201.4 100.1, 199.9 100.1 Q 198.5 100.1, 197.7 101.0 Q 196.9 101.9, 196.9 103.8 Q 196.9 105.8, 197.7 106.7 Q 198.5 107.7, 199.9 107.7 " fill="#FF0000"/>
<path class="atom-9" d="M 205.8 99.1 L 207.1 99.1 L 207.1 103.1 L 212.0 103.1 L 212.0 99.1 L 213.2 99.1 L 213.2 108.6 L 212.0 108.6 L 212.0 104.2 L 207.1 104.2 L 207.1 108.6 L 205.8 108.6 L 205.8 99.1 " fill="#FF0000"/>
</g>
    <g transform="translate(777.0, 0) scale(1 1) "><line x1="15" y1="100" x2="25" y2="100" style="stroke:rgb(0,0,0);stroke-width:2"/>
  <line x1="20" y1="95" x2="20" y2="105" style="stroke:rgb(0,0,0);stroke-width:2"/>
</g>
    <g transform="translate(817.0, 0) scale(1 1) "><!-- END OF HEADER -->
<rect style="opacity:1.0;fill:#FFFFFF;stroke:none" width="247.0" height="200.0" x="0.0" y="0.0"> </rect>
<path class="bond-0 atom-0 atom-1" d="M 45.1,132.4 L 47.3,118.3" style="fill:none;fill-rule:evenodd;stroke:#FF0000;stroke-width:2.0px;stroke-linecap:butt;stroke-linejoin:miter;stroke-opacity:1"/>
<path class="bond-0 atom-0 atom-1" d="M 47.3,118.3 L 49.4,104.2" style="fill:none;fill-rule:evenodd;stroke:#000000;stroke-width:2.0px;stroke-linecap:butt;stroke-linejoin:miter;stroke-opacity:1"/>
<path class="bond-0 atom-0 atom-1" d="M 50.0,133.1 L 52.2,119.0" style="fill:none;fill-rule:evenodd;stroke:#FF0000;stroke-width:2.0px;stroke-linecap:butt;stroke-linejoin:miter;stroke-opacity:1"/>
<path class="bond-0 atom-0 atom-1" d="M 52.2,119.0 L 54.3,104.9" style="fill:none;fill-rule:evenodd;stroke:#000000;stroke-width:2.0px;stroke-linecap:butt;stroke-linejoin:miter;stroke-opacity:1"/>
<path class="bond-1 atom-1 atom-2" d="M 51.7,105.9 L 41.5,97.8" style="fill:none;fill-rule:evenodd;stroke:#000000;stroke-width:2.0px;stroke-linecap:butt;stroke-linejoin:miter;stroke-opacity:1"/>
<path class="bond-1 atom-1 atom-2" d="M 41.5,97.8 L 31.3,89.6" style="fill:none;fill-rule:evenodd;stroke:#FF0000;stroke-width:2.0px;stroke-linecap:butt;stroke-linejoin:miter;stroke-opacity:1"/>
<path class="bond-2 atom-1 atom-3" d="M 51.7,105.9 L 82.4,93.9" style="fill:none;fill-rule:evenodd;stroke:#000000;stroke-width:2.0px;stroke-linecap:butt;stroke-linejoin:miter;stroke-opacity:1"/>
<path class="bond-3 atom-3 atom-4" d="M 84.6,95.7 L 86.8,81.7" style="fill:none;fill-rule:evenodd;stroke:#000000;stroke-width:2.0px;stroke-linecap:butt;stroke-linejoin:miter;stroke-opacity:1"/>
<path class="bond-3 atom-3 atom-4" d="M 86.8,81.7 L 88.9,67.6" style="fill:none;fill-rule:evenodd;stroke:#FF0000;stroke-width:2.0px;stroke-linecap:butt;stroke-linejoin:miter;stroke-opacity:1"/>
<path class="bond-3 atom-3 atom-4" d="M 79.8,95.0 L 81.9,80.9" style="fill:none;fill-rule:evenodd;stroke:#000000;stroke-width:2.0px;stroke-linecap:butt;stroke-linejoin:miter;stroke-opacity:1"/>
<path class="bond-3 atom-3 atom-4" d="M 81.9,80.9 L 84.0,66.9" style="fill:none;fill-rule:evenodd;stroke:#FF0000;stroke-width:2.0px;stroke-linecap:butt;stroke-linejoin:miter;stroke-opacity:1"/>
<path class="bond-4 atom-3 atom-5" d="M 82.4,93.9 L 108.2,114.5" style="fill:none;fill-rule:evenodd;stroke:#000000;stroke-width:2.0px;stroke-linecap:butt;stroke-linejoin:miter;stroke-opacity:1"/>
<path class="bond-5 atom-5 atom-6" d="M 108.2,114.5 L 139.0,102.5" style="fill:none;fill-rule:evenodd;stroke:#000000;stroke-width:2.0px;stroke-linecap:butt;stroke-linejoin:miter;stroke-opacity:1"/>
<path class="bond-6 atom-6 atom-7" d="M 139.0,102.5 L 143.9,69.9" style="fill:none;fill-rule:evenodd;stroke:#000000;stroke-width:2.0px;stroke-linecap:butt;stroke-linejoin:miter;stroke-opacity:1"/>
<path class="bond-6 atom-6 atom-7" d="M 144.3,100.4 L 148.4,73.4" style="fill:none;fill-rule:evenodd;stroke:#000000;stroke-width:2.0px;stroke-linecap:butt;stroke-linejoin:miter;stroke-opacity:1"/>
<path class="bond-7 atom-7 atom-8" d="M 143.9,69.9 L 174.7,57.8" style="fill:none;fill-rule:evenodd;stroke:#000000;stroke-width:2.0px;stroke-linecap:butt;stroke-linejoin:miter;stroke-opacity:1"/>
<path class="bond-8 atom-8 atom-9" d="M 174.7,57.8 L 200.5,78.4" style="fill:none;fill-rule:evenodd;stroke:#000000;stroke-width:2.0px;stroke-linecap:butt;stroke-linejoin:miter;stroke-opacity:1"/>
<path class="bond-8 atom-8 atom-9" d="M 173.8,63.5 L 195.1,80.5" style="fill:none;fill-rule:evenodd;stroke:#000000;stroke-width:2.0px;stroke-linecap:butt;stroke-linejoin:miter;stroke-opacity:1"/>
<path class="bond-9 atom-9 atom-10" d="M 200.5,78.4 L 195.5,111.1" style="fill:none;fill-rule:evenodd;stroke:#000000;stroke-width:2.0px;stroke-linecap:butt;stroke-linejoin:miter;stroke-opacity:1"/>
<path class="bond-10 atom-10 atom-11" d="M 195.5,111.1 L 205.7,119.2" style="fill:none;fill-rule:evenodd;stroke:#000000;stroke-width:2.0px;stroke-linecap:butt;stroke-linejoin:miter;stroke-opacity:1"/>
<path class="bond-10 atom-10 atom-11" d="M 205.7,119.2 L 215.9,127.4" style="fill:none;fill-rule:evenodd;stroke:#FF0000;stroke-width:2.0px;stroke-linecap:butt;stroke-linejoin:miter;stroke-opacity:1"/>
<path class="bond-11 atom-10 atom-12" d="M 195.5,111.1 L 164.7,123.1" style="fill:none;fill-rule:evenodd;stroke:#000000;stroke-width:2.0px;stroke-linecap:butt;stroke-linejoin:miter;stroke-opacity:1"/>
<path class="bond-11 atom-10 atom-12" d="M 191.0,107.5 L 165.6,117.5" style="fill:none;fill-rule:evenodd;stroke:#000000;stroke-width:2.0px;stroke-linecap:butt;stroke-linejoin:miter;stroke-opacity:1"/>
<path class="bond-12 atom-12 atom-6" d="M 164.7,123.1 L 139.0,102.5" style="fill:none;fill-rule:evenodd;stroke:#000000;stroke-width:2.0px;stroke-linecap:butt;stroke-linejoin:miter;stroke-opacity:1"/>
<path d="M 51.2,105.5 L 51.7,105.9 L 53.2,105.3" style="fill:none;stroke:#000000;stroke-width:2.0px;stroke-linecap:butt;stroke-linejoin:miter;stroke-opacity:1;"/>
<path d="M 80.9,94.5 L 82.4,93.9 L 83.7,94.9" style="fill:none;stroke:#000000;stroke-width:2.0px;stroke-linecap:butt;stroke-linejoin:miter;stroke-opacity:1;"/>
<path d="M 106.9,113.5 L 108.2,114.5 L 109.7,113.9" style="fill:none;stroke:#000000;stroke-width:2.0px;stroke-linecap:butt;stroke-linejoin:miter;stroke-opacity:1;"/>
<path d="M 143.7,71.5 L 143.9,69.9 L 145.4,69.3" style="fill:none;stroke:#000000;stroke-width:2.0px;stroke-linecap:butt;stroke-linejoin:miter;stroke-opacity:1;"/>
<path d="M 173.1,58.4 L 174.7,57.8 L 176.0,58.9" style="fill:none;stroke:#000000;stroke-width:2.0px;stroke-linecap:butt;stroke-linejoin:miter;stroke-opacity:1;"/>
<path d="M 199.2,77.4 L 200.5,78.4 L 200.2,80.1" style="fill:none;stroke:#000000;stroke-width:2.0px;stroke-linecap:butt;stroke-linejoin:miter;stroke-opacity:1;"/>
<path d="M 166.3,122.5 L 164.7,123.1 L 163.5,122.1" style="fill:none;stroke:#000000;stroke-width:2.0px;stroke-linecap:butt;stroke-linejoin:miter;stroke-opacity:1;"/>
<path class="atom-0" d="M 42.4 138.6 Q 42.4 136.4, 43.5 135.1 Q 44.6 133.9, 46.7 133.9 Q 48.8 133.9, 49.9 135.1 Q 51.0 136.4, 51.0 138.6 Q 51.0 140.9, 49.9 142.2 Q 48.8 143.5, 46.7 143.5 Q 44.7 143.5, 43.5 142.2 Q 42.4 140.9, 42.4 138.6 M 46.7 142.4 Q 48.1 142.4, 48.9 141.5 Q 49.7 140.5, 49.7 138.6 Q 49.7 136.8, 48.9 135.9 Q 48.1 134.9, 46.7 134.9 Q 45.3 134.9, 44.5 135.8 Q 43.7 136.8, 43.7 138.6 Q 43.7 140.5, 44.5 141.5 Q 45.3 142.4, 46.7 142.4 " fill="#FF0000"/>
<path class="atom-2" d="M 12.3 80.7 L 13.6 80.7 L 13.6 84.7 L 18.4 84.7 L 18.4 80.7 L 19.7 80.7 L 19.7 90.1 L 18.4 90.1 L 18.4 85.7 L 13.6 85.7 L 13.6 90.1 L 12.3 90.1 L 12.3 80.7 " fill="#FF0000"/>
<path class="atom-2" d="M 21.6 85.4 Q 21.6 83.1, 22.7 81.9 Q 23.8 80.6, 25.9 80.6 Q 27.9 80.6, 29.1 81.9 Q 30.2 83.1, 30.2 85.4 Q 30.2 87.6, 29.0 88.9 Q 27.9 90.2, 25.9 90.2 Q 23.8 90.2, 22.7 88.9 Q 21.6 87.6, 21.6 85.4 M 25.9 89.1 Q 27.3 89.1, 28.1 88.2 Q 28.8 87.2, 28.8 85.4 Q 28.8 83.5, 28.1 82.6 Q 27.3 81.7, 25.9 81.7 Q 24.5 81.7, 23.7 82.6 Q 22.9 83.5, 22.9 85.4 Q 22.9 87.2, 23.7 88.2 Q 24.5 89.1, 25.9 89.1 " fill="#FF0000"/>
<path class="atom-4" d="M 83.1 61.3 Q 83.1 59.1, 84.2 57.8 Q 85.3 56.5, 87.4 56.5 Q 89.4 56.5, 90.6 57.8 Q 91.7 59.1, 91.7 61.3 Q 91.7 63.6, 90.5 64.9 Q 89.4 66.1, 87.4 66.1 Q 85.3 66.1, 84.2 64.9 Q 83.1 63.6, 83.1 61.3 M 87.4 65.1 Q 88.8 65.1, 89.6 64.1 Q 90.3 63.2, 90.3 61.3 Q 90.3 59.5, 89.6 58.5 Q 88.8 57.6, 87.4 57.6 Q 85.9 57.6, 85.2 58.5 Q 84.4 59.4, 84.4 61.3 Q 84.4 63.2, 85.2 64.1 Q 85.9 65.1, 87.4 65.1 " fill="#FF0000"/>
<path class="atom-11" d="M 217.0 131.7 Q 217.0 129.5, 218.1 128.2 Q 219.2 127.0, 221.3 127.0 Q 223.4 127.0, 224.5 128.2 Q 225.6 129.5, 225.6 131.7 Q 225.6 134.0, 224.5 135.3 Q 223.3 136.6, 221.3 136.6 Q 219.2 136.6, 218.1 135.3 Q 217.0 134.0, 217.0 131.7 M 221.3 135.5 Q 222.7 135.5, 223.5 134.6 Q 224.3 133.6, 224.3 131.7 Q 224.3 129.9, 223.5 129.0 Q 222.7 128.0, 221.3 128.0 Q 219.9 128.0, 219.1 129.0 Q 218.3 129.9, 218.3 131.7 Q 218.3 133.6, 219.1 134.6 Q 219.9 135.5, 221.3 135.5 " fill="#FF0000"/>
<path class="atom-11" d="M 227.0 127.1 L 228.3 127.1 L 228.3 131.1 L 233.1 131.1 L 233.1 127.1 L 234.3 127.1 L 234.3 136.4 L 233.1 136.4 L 233.1 132.1 L 228.3 132.1 L 228.3 136.4 L 227.0 136.4 L 227.0 127.1 " fill="#FF0000"/>
</g>
  </g>
</svg>
