<?xml version='1.0' encoding='ASCII' standalone='yes'?>
<svg xmlns="http://www.w3.org/2000/svg" xmlns:xlink="http://www.w3.org/1999/xlink" version="1.1" width="1450.0px" viewBox="0 0 1450.0 200.0" height="200.0px">
  <g>
    <g transform="translate(0, 0) scale(1 1) "><!-- END OF HEADER -->
<rect style="opacity:1.0;fill:#FFFFFF;stroke:none" width="336.0" height="200.0" x="0.0" y="0.0"> </rect>
<path class="bond-0 atom-0 atom-1" d="M 309.3,168.8 L 301.1,161.0" style="fill:none;fill-rule:evenodd;stroke:#FF0000;stroke-width:2.0px;stroke-linecap:butt;stroke-linejoin:miter;stroke-opacity:1"/>
<path class="bond-0 atom-0 atom-1" d="M 301.1,161.0 L 292.9,153.1" style="fill:none;fill-rule:evenodd;stroke:#000000;stroke-width:2.0px;stroke-linecap:butt;stroke-linejoin:miter;stroke-opacity:1"/>
<path class="bond-0 atom-0 atom-1" d="M 312.1,165.8 L 304.0,158.0" style="fill:none;fill-rule:evenodd;stroke:#FF0000;stroke-width:2.0px;stroke-linecap:butt;stroke-linejoin:miter;stroke-opacity:1"/>
<path class="bond-0 atom-0 atom-1" d="M 304.0,158.0 L 295.8,150.1" style="fill:none;fill-rule:evenodd;stroke:#000000;stroke-width:2.0px;stroke-linecap:butt;stroke-linejoin:miter;stroke-opacity:1"/>
<path class="bond-1 atom-1 atom-2" d="M 295.2,152.5 L 268.7,160.2" style="fill:none;fill-rule:evenodd;stroke:#000000;stroke-width:2.0px;stroke-linecap:butt;stroke-linejoin:miter;stroke-opacity:1"/>
<path class="bond-2 atom-2 atom-3" d="M 268.7,160.2 L 248.7,141.0" style="fill:none;fill-rule:evenodd;stroke:#000000;stroke-width:2.0px;stroke-linecap:butt;stroke-linejoin:miter;stroke-opacity:1"/>
<path class="bond-2 atom-2 atom-3" d="M 269.8,155.5 L 253.3,139.7" style="fill:none;fill-rule:evenodd;stroke:#000000;stroke-width:2.0px;stroke-linecap:butt;stroke-linejoin:miter;stroke-opacity:1"/>
<path class="bond-3 atom-3 atom-4" d="M 248.7,141.0 L 251.4,130.0" style="fill:none;fill-rule:evenodd;stroke:#000000;stroke-width:2.0px;stroke-linecap:butt;stroke-linejoin:miter;stroke-opacity:1"/>
<path class="bond-3 atom-3 atom-4" d="M 251.4,130.0 L 254.1,119.0" style="fill:none;fill-rule:evenodd;stroke:#0000FF;stroke-width:2.0px;stroke-linecap:butt;stroke-linejoin:miter;stroke-opacity:1"/>
<path class="bond-4 atom-4 atom-5" d="M 251.4,110.5 L 243.4,102.8" style="fill:none;fill-rule:evenodd;stroke:#0000FF;stroke-width:2.0px;stroke-linecap:butt;stroke-linejoin:miter;stroke-opacity:1"/>
<path class="bond-4 atom-4 atom-5" d="M 243.4,102.8 L 235.4,95.0" style="fill:none;fill-rule:evenodd;stroke:#000000;stroke-width:2.0px;stroke-linecap:butt;stroke-linejoin:miter;stroke-opacity:1"/>
<path class="bond-5 atom-5 atom-6" d="M 235.4,95.0 L 224.0,97.1" style="fill:none;fill-rule:evenodd;stroke:#000000;stroke-width:2.0px;stroke-linecap:butt;stroke-linejoin:miter;stroke-opacity:1"/>
<path class="bond-5 atom-5 atom-6" d="M 224.0,97.1 L 212.7,99.1" style="fill:none;fill-rule:evenodd;stroke:#FF0000;stroke-width:2.0px;stroke-linecap:butt;stroke-linejoin:miter;stroke-opacity:1"/>
<path class="bond-6 atom-6 atom-7" d="M 205.5,95.1 L 200.3,85.3" style="fill:none;fill-rule:evenodd;stroke:#FF0000;stroke-width:2.0px;stroke-linecap:butt;stroke-linejoin:miter;stroke-opacity:1"/>
<path class="bond-6 atom-6 atom-7" d="M 200.3,85.3 L 195.1,75.6" style="fill:none;fill-rule:evenodd;stroke:#000000;stroke-width:2.0px;stroke-linecap:butt;stroke-linejoin:miter;stroke-opacity:1"/>
<path class="bond-7 atom-7 atom-8" d="M 195.1,75.6 L 167.7,71.8" style="fill:none;fill-rule:evenodd;stroke:#000000;stroke-width:2.0px;stroke-linecap:butt;stroke-linejoin:miter;stroke-opacity:1"/>
<path class="bond-8 atom-8 atom-9" d="M 167.7,71.8 L 163.5,61.5" style="fill:none;fill-rule:evenodd;stroke:#000000;stroke-width:2.0px;stroke-linecap:butt;stroke-linejoin:miter;stroke-opacity:1"/>
<path class="bond-8 atom-8 atom-9" d="M 163.5,61.5 L 159.3,51.2" style="fill:none;fill-rule:evenodd;stroke:#FF0000;stroke-width:2.0px;stroke-linecap:butt;stroke-linejoin:miter;stroke-opacity:1"/>
<path class="bond-9 atom-9 atom-10" d="M 152.7,45.6 L 143.0,44.3" style="fill:none;fill-rule:evenodd;stroke:#FF0000;stroke-width:2.0px;stroke-linecap:butt;stroke-linejoin:miter;stroke-opacity:1"/>
<path class="bond-9 atom-9 atom-10" d="M 143.0,44.3 L 133.2,42.9" style="fill:none;fill-rule:evenodd;stroke:#FF7F00;stroke-width:2.0px;stroke-linecap:butt;stroke-linejoin:miter;stroke-opacity:1"/>
<path class="bond-10 atom-10 atom-11" d="M 127.1,47.0 L 125.9,55.8" style="fill:none;fill-rule:evenodd;stroke:#FF7F00;stroke-width:2.0px;stroke-linecap:butt;stroke-linejoin:miter;stroke-opacity:1"/>
<path class="bond-10 atom-10 atom-11" d="M 125.9,55.8 L 124.7,64.7" style="fill:none;fill-rule:evenodd;stroke:#FF0000;stroke-width:2.0px;stroke-linecap:butt;stroke-linejoin:miter;stroke-opacity:1"/>
<path class="bond-10 atom-10 atom-11" d="M 131.2,47.6 L 130.0,56.4" style="fill:none;fill-rule:evenodd;stroke:#FF7F00;stroke-width:2.0px;stroke-linecap:butt;stroke-linejoin:miter;stroke-opacity:1"/>
<path class="bond-10 atom-10 atom-11" d="M 130.0,56.4 L 128.8,65.3" style="fill:none;fill-rule:evenodd;stroke:#FF0000;stroke-width:2.0px;stroke-linecap:butt;stroke-linejoin:miter;stroke-opacity:1"/>
<path class="bond-11 atom-10 atom-12" d="M 130.5,37.6 L 131.7,28.8" style="fill:none;fill-rule:evenodd;stroke:#FF7F00;stroke-width:2.0px;stroke-linecap:butt;stroke-linejoin:miter;stroke-opacity:1"/>
<path class="bond-11 atom-10 atom-12" d="M 131.7,28.8 L 132.9,20.0" style="fill:none;fill-rule:evenodd;stroke:#FF0000;stroke-width:2.0px;stroke-linecap:butt;stroke-linejoin:miter;stroke-opacity:1"/>
<path class="bond-12 atom-10 atom-13" d="M 126.4,42.0 L 116.7,40.7" style="fill:none;fill-rule:evenodd;stroke:#FF7F00;stroke-width:2.0px;stroke-linecap:butt;stroke-linejoin:miter;stroke-opacity:1"/>
<path class="bond-12 atom-10 atom-13" d="M 116.7,40.7 L 106.9,39.3" style="fill:none;fill-rule:evenodd;stroke:#FF0000;stroke-width:2.0px;stroke-linecap:butt;stroke-linejoin:miter;stroke-opacity:1"/>
<path class="bond-13 atom-13 atom-14" d="M 98.6,43.7 L 93.7,49.9" style="fill:none;fill-rule:evenodd;stroke:#FF0000;stroke-width:2.0px;stroke-linecap:butt;stroke-linejoin:miter;stroke-opacity:1"/>
<path class="bond-13 atom-13 atom-14" d="M 93.7,49.9 L 88.9,56.2" style="fill:none;fill-rule:evenodd;stroke:#FF7F00;stroke-width:2.0px;stroke-linecap:butt;stroke-linejoin:miter;stroke-opacity:1"/>
<path class="bond-14 atom-14 atom-15" d="M 83.3,56.3 L 76.4,50.9" style="fill:none;fill-rule:evenodd;stroke:#FF7F00;stroke-width:2.0px;stroke-linecap:butt;stroke-linejoin:miter;stroke-opacity:1"/>
<path class="bond-14 atom-14 atom-15" d="M 76.4,50.9 L 69.4,45.5" style="fill:none;fill-rule:evenodd;stroke:#FF0000;stroke-width:2.0px;stroke-linecap:butt;stroke-linejoin:miter;stroke-opacity:1"/>
<path class="bond-14 atom-14 atom-15" d="M 80.8,59.5 L 73.8,54.1" style="fill:none;fill-rule:evenodd;stroke:#FF7F00;stroke-width:2.0px;stroke-linecap:butt;stroke-linejoin:miter;stroke-opacity:1"/>
<path class="bond-14 atom-14 atom-15" d="M 73.8,54.1 L 66.9,48.7" style="fill:none;fill-rule:evenodd;stroke:#FF0000;stroke-width:2.0px;stroke-linecap:butt;stroke-linejoin:miter;stroke-opacity:1"/>
<path class="bond-15 atom-14 atom-16" d="M 88.9,63.2 L 95.9,68.6" style="fill:none;fill-rule:evenodd;stroke:#FF7F00;stroke-width:2.0px;stroke-linecap:butt;stroke-linejoin:miter;stroke-opacity:1"/>
<path class="bond-15 atom-14 atom-16" d="M 95.9,68.6 L 102.8,74.0" style="fill:none;fill-rule:evenodd;stroke:#FF0000;stroke-width:2.0px;stroke-linecap:butt;stroke-linejoin:miter;stroke-opacity:1"/>
<path class="bond-16 atom-14 atom-17" d="M 82.1,64.9 L 77.2,71.2" style="fill:none;fill-rule:evenodd;stroke:#FF7F00;stroke-width:2.0px;stroke-linecap:butt;stroke-linejoin:miter;stroke-opacity:1"/>
<path class="bond-16 atom-14 atom-17" d="M 77.2,71.2 L 72.3,77.5" style="fill:none;fill-rule:evenodd;stroke:#FF0000;stroke-width:2.0px;stroke-linecap:butt;stroke-linejoin:miter;stroke-opacity:1"/>
<path class="bond-17 atom-17 atom-18" d="M 70.6,87.4 L 74.8,97.7" style="fill:none;fill-rule:evenodd;stroke:#FF0000;stroke-width:2.0px;stroke-linecap:butt;stroke-linejoin:miter;stroke-opacity:1"/>
<path class="bond-17 atom-17 atom-18" d="M 74.8,97.7 L 79.0,108.0" style="fill:none;fill-rule:evenodd;stroke:#000000;stroke-width:2.0px;stroke-linecap:butt;stroke-linejoin:miter;stroke-opacity:1"/>
<path class="bond-18 atom-18 atom-19" d="M 79.0,108.0 L 72.4,116.5" style="fill:none;fill-rule:evenodd;stroke:#000000;stroke-width:2.0px;stroke-linecap:butt;stroke-linejoin:miter;stroke-opacity:1"/>
<path class="bond-18 atom-18 atom-19" d="M 72.4,116.5 L 65.8,125.0" style="fill:none;fill-rule:evenodd;stroke:#FF0000;stroke-width:2.0px;stroke-linecap:butt;stroke-linejoin:miter;stroke-opacity:1"/>
<path class="bond-19 atom-19 atom-20" d="M 64.1,134.9 L 68.3,145.2" style="fill:none;fill-rule:evenodd;stroke:#FF0000;stroke-width:2.0px;stroke-linecap:butt;stroke-linejoin:miter;stroke-opacity:1"/>
<path class="bond-19 atom-19 atom-20" d="M 68.3,145.2 L 72.5,155.5" style="fill:none;fill-rule:evenodd;stroke:#000000;stroke-width:2.0px;stroke-linecap:butt;stroke-linejoin:miter;stroke-opacity:1"/>
<path class="bond-20 atom-20 atom-21" d="M 72.5,155.5 L 55.5,177.3" style="fill:none;fill-rule:evenodd;stroke:#000000;stroke-width:2.0px;stroke-linecap:butt;stroke-linejoin:miter;stroke-opacity:1"/>
<path class="bond-21 atom-21 atom-22" d="M 55.5,177.3 L 44.1,175.7" style="fill:none;fill-rule:evenodd;stroke:#000000;stroke-width:2.0px;stroke-linecap:butt;stroke-linejoin:miter;stroke-opacity:1"/>
<path class="bond-21 atom-21 atom-22" d="M 44.1,175.7 L 32.6,174.2" style="fill:none;fill-rule:evenodd;stroke:#FF0000;stroke-width:2.0px;stroke-linecap:butt;stroke-linejoin:miter;stroke-opacity:1"/>
<path class="bond-22 atom-20 atom-23" d="M 72.5,155.5 L 99.9,159.2" style="fill:none;fill-rule:evenodd;stroke:#000000;stroke-width:2.0px;stroke-linecap:butt;stroke-linejoin:miter;stroke-opacity:1"/>
<path class="bond-23 atom-23 atom-24" d="M 99.9,159.2 L 104.1,169.6" style="fill:none;fill-rule:evenodd;stroke:#000000;stroke-width:2.0px;stroke-linecap:butt;stroke-linejoin:miter;stroke-opacity:1"/>
<path class="bond-23 atom-23 atom-24" d="M 104.1,169.6 L 108.3,180.0" style="fill:none;fill-rule:evenodd;stroke:#FF0000;stroke-width:2.0px;stroke-linecap:butt;stroke-linejoin:miter;stroke-opacity:1"/>
<path class="bond-24 atom-23 atom-25" d="M 99.9,159.2 L 116.8,137.4" style="fill:none;fill-rule:evenodd;stroke:#000000;stroke-width:2.0px;stroke-linecap:butt;stroke-linejoin:miter;stroke-opacity:1"/>
<path class="bond-25 atom-25 atom-26" d="M 116.8,137.4 L 128.3,138.9" style="fill:none;fill-rule:evenodd;stroke:#000000;stroke-width:2.0px;stroke-linecap:butt;stroke-linejoin:miter;stroke-opacity:1"/>
<path class="bond-25 atom-25 atom-26" d="M 128.3,138.9 L 139.7,140.5" style="fill:none;fill-rule:evenodd;stroke:#FF0000;stroke-width:2.0px;stroke-linecap:butt;stroke-linejoin:miter;stroke-opacity:1"/>
<path class="bond-26 atom-25 atom-27" d="M 116.8,137.4 L 106.4,111.8" style="fill:none;fill-rule:evenodd;stroke:#000000;stroke-width:2.0px;stroke-linecap:butt;stroke-linejoin:miter;stroke-opacity:1"/>
<path class="bond-27 atom-27 atom-28" d="M 106.4,111.8 L 112.9,103.3" style="fill:none;fill-rule:evenodd;stroke:#000000;stroke-width:2.0px;stroke-linecap:butt;stroke-linejoin:miter;stroke-opacity:1"/>
<path class="bond-27 atom-27 atom-28" d="M 112.9,103.3 L 119.5,94.9" style="fill:none;fill-rule:evenodd;stroke:#FF0000;stroke-width:2.0px;stroke-linecap:butt;stroke-linejoin:miter;stroke-opacity:1"/>
<path class="bond-28 atom-7 atom-29" d="M 195.1,75.6 L 214.2,55.6" style="fill:none;fill-rule:evenodd;stroke:#000000;stroke-width:2.0px;stroke-linecap:butt;stroke-linejoin:miter;stroke-opacity:1"/>
<path class="bond-29 atom-29 atom-30" d="M 214.2,55.6 L 212.2,44.5" style="fill:none;fill-rule:evenodd;stroke:#000000;stroke-width:2.0px;stroke-linecap:butt;stroke-linejoin:miter;stroke-opacity:1"/>
<path class="bond-29 atom-29 atom-30" d="M 212.2,44.5 L 210.2,33.4" style="fill:none;fill-rule:evenodd;stroke:#FF0000;stroke-width:2.0px;stroke-linecap:butt;stroke-linejoin:miter;stroke-opacity:1"/>
<path class="bond-30 atom-29 atom-31" d="M 214.2,55.6 L 239.1,67.6" style="fill:none;fill-rule:evenodd;stroke:#000000;stroke-width:2.0px;stroke-linecap:butt;stroke-linejoin:miter;stroke-opacity:1"/>
<path class="bond-31 atom-31 atom-32" d="M 239.1,67.6 L 249.1,62.3" style="fill:none;fill-rule:evenodd;stroke:#000000;stroke-width:2.0px;stroke-linecap:butt;stroke-linejoin:miter;stroke-opacity:1"/>
<path class="bond-31 atom-31 atom-32" d="M 249.1,62.3 L 259.0,57.0" style="fill:none;fill-rule:evenodd;stroke:#FF0000;stroke-width:2.0px;stroke-linecap:butt;stroke-linejoin:miter;stroke-opacity:1"/>
<path class="bond-32 atom-4 atom-33" d="M 259.2,113.1 L 270.5,109.8" style="fill:none;fill-rule:evenodd;stroke:#0000FF;stroke-width:2.0px;stroke-linecap:butt;stroke-linejoin:miter;stroke-opacity:1"/>
<path class="bond-32 atom-4 atom-33" d="M 270.5,109.8 L 281.9,106.5" style="fill:none;fill-rule:evenodd;stroke:#000000;stroke-width:2.0px;stroke-linecap:butt;stroke-linejoin:miter;stroke-opacity:1"/>
<path class="bond-33 atom-33 atom-34" d="M 283.6,108.1 L 286.4,96.6" style="fill:none;fill-rule:evenodd;stroke:#000000;stroke-width:2.0px;stroke-linecap:butt;stroke-linejoin:miter;stroke-opacity:1"/>
<path class="bond-33 atom-33 atom-34" d="M 286.4,96.6 L 289.3,85.1" style="fill:none;fill-rule:evenodd;stroke:#FF0000;stroke-width:2.0px;stroke-linecap:butt;stroke-linejoin:miter;stroke-opacity:1"/>
<path class="bond-33 atom-33 atom-34" d="M 279.6,107.1 L 282.4,95.6" style="fill:none;fill-rule:evenodd;stroke:#000000;stroke-width:2.0px;stroke-linecap:butt;stroke-linejoin:miter;stroke-opacity:1"/>
<path class="bond-33 atom-33 atom-34" d="M 282.4,95.6 L 285.2,84.1" style="fill:none;fill-rule:evenodd;stroke:#FF0000;stroke-width:2.0px;stroke-linecap:butt;stroke-linejoin:miter;stroke-opacity:1"/>
<path class="bond-34 atom-33 atom-35" d="M 281.9,106.5 L 289.9,114.2" style="fill:none;fill-rule:evenodd;stroke:#000000;stroke-width:2.0px;stroke-linecap:butt;stroke-linejoin:miter;stroke-opacity:1"/>
<path class="bond-34 atom-33 atom-35" d="M 289.9,114.2 L 298.0,121.9" style="fill:none;fill-rule:evenodd;stroke:#0000FF;stroke-width:2.0px;stroke-linecap:butt;stroke-linejoin:miter;stroke-opacity:1"/>
<path class="bond-35 atom-35 atom-1" d="M 300.7,130.4 L 298.0,141.5" style="fill:none;fill-rule:evenodd;stroke:#0000FF;stroke-width:2.0px;stroke-linecap:butt;stroke-linejoin:miter;stroke-opacity:1"/>
<path class="bond-35 atom-35 atom-1" d="M 298.0,141.5 L 295.2,152.5" style="fill:none;fill-rule:evenodd;stroke:#000000;stroke-width:2.0px;stroke-linecap:butt;stroke-linejoin:miter;stroke-opacity:1"/>
<path class="bond-36 atom-31 atom-5" d="M 239.1,67.6 L 235.4,95.0" style="fill:none;fill-rule:evenodd;stroke:#000000;stroke-width:2.0px;stroke-linecap:butt;stroke-linejoin:miter;stroke-opacity:1"/>
<path class="bond-37 atom-27 atom-18" d="M 106.4,111.8 L 79.0,108.0" style="fill:none;fill-rule:evenodd;stroke:#000000;stroke-width:2.0px;stroke-linecap:butt;stroke-linejoin:miter;stroke-opacity:1"/>
<path d="M 293.9,152.9 L 295.2,152.5 L 295.4,151.9" style="fill:none;stroke:#000000;stroke-width:2.0px;stroke-linecap:butt;stroke-linejoin:miter;stroke-opacity:1;"/>
<path d="M 270.0,159.8 L 268.7,160.2 L 267.7,159.2" style="fill:none;stroke:#000000;stroke-width:2.0px;stroke-linecap:butt;stroke-linejoin:miter;stroke-opacity:1;"/>
<path d="M 249.7,142.0 L 248.7,141.0 L 248.9,140.5" style="fill:none;stroke:#000000;stroke-width:2.0px;stroke-linecap:butt;stroke-linejoin:miter;stroke-opacity:1;"/>
<path d="M 169.1,72.0 L 167.7,71.8 L 167.5,71.3" style="fill:none;stroke:#000000;stroke-width:2.0px;stroke-linecap:butt;stroke-linejoin:miter;stroke-opacity:1;"/>
<path d="M 56.4,176.2 L 55.5,177.3 L 55.0,177.2" style="fill:none;stroke:#000000;stroke-width:2.0px;stroke-linecap:butt;stroke-linejoin:miter;stroke-opacity:1;"/>
<path d="M 281.3,106.6 L 281.9,106.5 L 282.3,106.9" style="fill:none;stroke:#000000;stroke-width:2.0px;stroke-linecap:butt;stroke-linejoin:miter;stroke-opacity:1;"/>
<path class="atom-0" d="M 311.6 171.6 Q 311.6 169.8, 312.5 168.7 Q 313.5 167.7, 315.2 167.7 Q 316.9 167.7, 317.9 168.7 Q 318.8 169.8, 318.8 171.6 Q 318.8 173.5, 317.9 174.6 Q 316.9 175.7, 315.2 175.7 Q 313.5 175.7, 312.5 174.6 Q 311.6 173.5, 311.6 171.6 M 315.2 174.8 Q 316.4 174.8, 317.0 174.0 Q 317.7 173.2, 317.7 171.6 Q 317.7 170.1, 317.0 169.3 Q 316.4 168.5, 315.2 168.5 Q 314.0 168.5, 313.4 169.3 Q 312.7 170.1, 312.7 171.6 Q 312.7 173.2, 313.4 174.0 Q 314.0 174.8, 315.2 174.8 " fill="#FF0000"/>
<path class="atom-4" d="M 253.6 110.3 L 256.2 114.4 Q 256.4 114.8, 256.8 115.6 Q 257.2 116.3, 257.3 116.4 L 257.3 110.3 L 258.3 110.3 L 258.3 118.1 L 257.2 118.1 L 254.5 113.6 Q 254.1 113.0, 253.8 112.4 Q 253.5 111.8, 253.4 111.6 L 253.4 118.1 L 252.4 118.1 L 252.4 110.3 L 253.6 110.3 " fill="#0000FF"/>
<path class="atom-6" d="M 204.6 100.0 Q 204.6 98.1, 205.5 97.0 Q 206.4 96.0, 208.1 96.0 Q 209.9 96.0, 210.8 97.0 Q 211.7 98.1, 211.7 100.0 Q 211.7 101.9, 210.8 103.0 Q 209.9 104.0, 208.1 104.0 Q 206.4 104.0, 205.5 103.0 Q 204.6 101.9, 204.6 100.0 M 208.1 103.1 Q 209.3 103.1, 210.0 102.3 Q 210.6 101.5, 210.6 100.0 Q 210.6 98.4, 210.0 97.7 Q 209.3 96.9, 208.1 96.9 Q 207.0 96.9, 206.3 97.6 Q 205.7 98.4, 205.7 100.0 Q 205.7 101.5, 206.3 102.3 Q 207.0 103.1, 208.1 103.1 " fill="#FF0000"/>
<path class="atom-9" d="M 153.6 46.2 Q 153.6 44.4, 154.6 43.3 Q 155.5 42.2, 157.2 42.2 Q 159.0 42.2, 159.9 43.3 Q 160.8 44.4, 160.8 46.2 Q 160.8 48.1, 159.9 49.2 Q 158.9 50.3, 157.2 50.3 Q 155.5 50.3, 154.6 49.2 Q 153.6 48.1, 153.6 46.2 M 157.2 49.4 Q 158.4 49.4, 159.1 48.6 Q 159.7 47.8, 159.7 46.2 Q 159.7 44.7, 159.1 43.9 Q 158.4 43.1, 157.2 43.1 Q 156.0 43.1, 155.4 43.9 Q 154.7 44.7, 154.7 46.2 Q 154.7 47.8, 155.4 48.6 Q 156.0 49.4, 157.2 49.4 " fill="#FF0000"/>
<path class="atom-10" d="M 129.6 38.5 Q 131.0 38.5, 131.7 39.1 Q 132.3 39.7, 132.3 40.8 Q 132.3 41.9, 131.6 42.5 Q 131.0 43.2, 129.6 43.2 L 128.4 43.2 L 128.4 46.4 L 127.3 46.4 L 127.3 38.5 L 129.6 38.5 M 129.6 42.3 Q 130.4 42.3, 130.8 41.9 Q 131.2 41.5, 131.2 40.8 Q 131.2 40.1, 130.8 39.8 Q 130.4 39.4, 129.6 39.4 L 128.4 39.4 L 128.4 42.3 L 129.6 42.3 " fill="#FF7F00"/>
<path class="atom-11" d="M 122.5 69.9 Q 122.5 68.0, 123.4 66.9 Q 124.3 65.9, 126.1 65.9 Q 127.8 65.9, 128.7 66.9 Q 129.7 68.0, 129.7 69.9 Q 129.7 71.8, 128.7 72.9 Q 127.8 73.9, 126.1 73.9 Q 124.4 73.9, 123.4 72.9 Q 122.5 71.8, 122.5 69.9 M 126.1 73.0 Q 127.3 73.0, 127.9 72.3 Q 128.6 71.4, 128.6 69.9 Q 128.6 68.3, 127.9 67.6 Q 127.3 66.8, 126.1 66.8 Q 124.9 66.8, 124.2 67.6 Q 123.6 68.3, 123.6 69.9 Q 123.6 71.5, 124.2 72.3 Q 124.9 73.0, 126.1 73.0 " fill="#FF0000"/>
<path class="atom-12" d="M 130.0 15.1 Q 130.0 13.2, 130.9 12.1 Q 131.9 11.1, 133.6 11.1 Q 135.3 11.1, 136.3 12.1 Q 137.2 13.2, 137.2 15.1 Q 137.2 17.0, 136.2 18.1 Q 135.3 19.1, 133.6 19.1 Q 131.9 19.1, 130.9 18.1 Q 130.0 17.0, 130.0 15.1 M 133.6 18.3 Q 134.8 18.3, 135.4 17.5 Q 136.1 16.6, 136.1 15.1 Q 136.1 13.5, 135.4 12.8 Q 134.8 12.0, 133.6 12.0 Q 132.4 12.0, 131.7 12.8 Q 131.1 13.5, 131.1 15.1 Q 131.1 16.7, 131.7 17.5 Q 132.4 18.3, 133.6 18.3 " fill="#FF0000"/>
<path class="atom-12" d="M 138.4 11.2 L 139.5 11.2 L 139.5 14.5 L 143.5 14.5 L 143.5 11.2 L 144.5 11.2 L 144.5 19.0 L 143.5 19.0 L 143.5 15.4 L 139.5 15.4 L 139.5 19.0 L 138.4 19.0 L 138.4 11.2 " fill="#FF0000"/>
<path class="atom-13" d="M 98.8 38.7 Q 98.8 36.8, 99.8 35.8 Q 100.7 34.7, 102.4 34.7 Q 104.2 34.7, 105.1 35.8 Q 106.0 36.8, 106.0 38.7 Q 106.0 40.6, 105.1 41.7 Q 104.2 42.8, 102.4 42.8 Q 100.7 42.8, 99.8 41.7 Q 98.8 40.6, 98.8 38.7 M 102.4 41.9 Q 103.6 41.9, 104.3 41.1 Q 104.9 40.3, 104.9 38.7 Q 104.9 37.2, 104.3 36.4 Q 103.6 35.6, 102.4 35.6 Q 101.2 35.6, 100.6 36.4 Q 99.9 37.2, 99.9 38.7 Q 99.9 40.3, 100.6 41.1 Q 101.2 41.9, 102.4 41.9 " fill="#FF0000"/>
<path class="atom-14" d="M 85.3 56.6 Q 86.6 56.6, 87.3 57.2 Q 88.0 57.8, 88.0 58.9 Q 88.0 60.0, 87.3 60.6 Q 86.6 61.2, 85.3 61.2 L 84.0 61.2 L 84.0 64.5 L 83.0 64.5 L 83.0 56.6 L 85.3 56.6 M 85.3 60.4 Q 86.1 60.4, 86.5 60.0 Q 86.9 59.6, 86.9 58.9 Q 86.9 58.2, 86.5 57.9 Q 86.1 57.5, 85.3 57.5 L 84.0 57.5 L 84.0 60.4 L 85.3 60.4 " fill="#FF7F00"/>
<path class="atom-15" d="M 60.0 43.6 Q 60.0 41.7, 61.0 40.7 Q 61.9 39.6, 63.6 39.6 Q 65.4 39.6, 66.3 40.7 Q 67.2 41.7, 67.2 43.6 Q 67.2 45.5, 66.3 46.6 Q 65.3 47.7, 63.6 47.7 Q 61.9 47.7, 61.0 46.6 Q 60.0 45.5, 60.0 43.6 M 63.6 46.8 Q 64.8 46.8, 65.5 46.0 Q 66.1 45.2, 66.1 43.6 Q 66.1 42.1, 65.5 41.3 Q 64.8 40.5, 63.6 40.5 Q 62.4 40.5, 61.8 41.3 Q 61.1 42.1, 61.1 43.6 Q 61.1 45.2, 61.8 46.0 Q 62.4 46.8, 63.6 46.8 " fill="#FF0000"/>
<path class="atom-16" d="M 103.7 77.5 Q 103.7 75.6, 104.7 74.6 Q 105.6 73.5, 107.3 73.5 Q 109.1 73.5, 110.0 74.6 Q 110.9 75.6, 110.9 77.5 Q 110.9 79.4, 110.0 80.5 Q 109.1 81.6, 107.3 81.6 Q 105.6 81.6, 104.7 80.5 Q 103.7 79.4, 103.7 77.5 M 107.3 80.7 Q 108.5 80.7, 109.2 79.9 Q 109.8 79.1, 109.8 77.5 Q 109.8 76.0, 109.2 75.2 Q 108.5 74.4, 107.3 74.4 Q 106.1 74.4, 105.5 75.2 Q 104.8 76.0, 104.8 77.5 Q 104.8 79.1, 105.5 79.9 Q 106.1 80.7, 107.3 80.7 " fill="#FF0000"/>
<path class="atom-16" d="M 112.2 73.6 L 113.2 73.6 L 113.2 77.0 L 117.2 77.0 L 117.2 73.6 L 118.3 73.6 L 118.3 81.5 L 117.2 81.5 L 117.2 77.8 L 113.2 77.8 L 113.2 81.5 L 112.2 81.5 L 112.2 73.6 " fill="#FF0000"/>
<path class="atom-17" d="M 64.9 82.4 Q 64.9 80.5, 65.9 79.5 Q 66.8 78.4, 68.5 78.4 Q 70.3 78.4, 71.2 79.5 Q 72.1 80.5, 72.1 82.4 Q 72.1 84.3, 71.2 85.4 Q 70.2 86.5, 68.5 86.5 Q 66.8 86.5, 65.9 85.4 Q 64.9 84.3, 64.9 82.4 M 68.5 85.6 Q 69.7 85.6, 70.4 84.8 Q 71.0 84.0, 71.0 82.4 Q 71.0 80.9, 70.4 80.1 Q 69.7 79.3, 68.5 79.3 Q 67.3 79.3, 66.7 80.1 Q 66.0 80.9, 66.0 82.4 Q 66.0 84.0, 66.7 84.8 Q 67.3 85.6, 68.5 85.6 " fill="#FF0000"/>
<path class="atom-19" d="M 58.4 129.9 Q 58.4 128.0, 59.4 126.9 Q 60.3 125.9, 62.0 125.9 Q 63.8 125.9, 64.7 126.9 Q 65.6 128.0, 65.6 129.9 Q 65.6 131.8, 64.7 132.9 Q 63.7 133.9, 62.0 133.9 Q 60.3 133.9, 59.4 132.9 Q 58.4 131.8, 58.4 129.9 M 62.0 133.1 Q 63.2 133.1, 63.9 132.3 Q 64.5 131.5, 64.5 129.9 Q 64.5 128.3, 63.9 127.6 Q 63.2 126.8, 62.0 126.8 Q 60.8 126.8, 60.2 127.6 Q 59.5 128.3, 59.5 129.9 Q 59.5 131.5, 60.2 132.3 Q 60.8 133.1, 62.0 133.1 " fill="#FF0000"/>
<path class="atom-22" d="M 16.8 169.7 L 17.9 169.7 L 17.9 173.0 L 21.9 173.0 L 21.9 169.7 L 22.9 169.7 L 22.9 177.5 L 21.9 177.5 L 21.9 173.9 L 17.9 173.9 L 17.9 177.5 L 16.8 177.5 L 16.8 169.7 " fill="#FF0000"/>
<path class="atom-22" d="M 24.5 173.6 Q 24.5 171.7, 25.5 170.7 Q 26.4 169.6, 28.1 169.6 Q 29.9 169.6, 30.8 170.7 Q 31.7 171.7, 31.7 173.6 Q 31.7 175.5, 30.8 176.6 Q 29.8 177.6, 28.1 177.6 Q 26.4 177.6, 25.5 176.6 Q 24.5 175.5, 24.5 173.6 M 28.1 176.8 Q 29.3 176.8, 30.0 176.0 Q 30.6 175.2, 30.6 173.6 Q 30.6 172.0, 30.0 171.3 Q 29.3 170.5, 28.1 170.5 Q 26.9 170.5, 26.3 171.3 Q 25.6 172.0, 25.6 173.6 Q 25.6 175.2, 26.3 176.0 Q 26.9 176.8, 28.1 176.8 " fill="#FF0000"/>
<path class="atom-24" d="M 106.7 184.8 Q 106.7 183.0, 107.7 181.9 Q 108.6 180.9, 110.3 180.9 Q 112.1 180.9, 113.0 181.9 Q 113.9 183.0, 113.9 184.8 Q 113.9 186.7, 113.0 187.8 Q 112.0 188.9, 110.3 188.9 Q 108.6 188.9, 107.7 187.8 Q 106.7 186.8, 106.7 184.8 M 110.3 188.0 Q 111.5 188.0, 112.2 187.2 Q 112.8 186.4, 112.8 184.8 Q 112.8 183.3, 112.2 182.5 Q 111.5 181.7, 110.3 181.7 Q 109.1 181.7, 108.5 182.5 Q 107.8 183.3, 107.8 184.8 Q 107.8 186.4, 108.5 187.2 Q 109.1 188.0, 110.3 188.0 " fill="#FF0000"/>
<path class="atom-24" d="M 115.1 181.0 L 116.2 181.0 L 116.2 184.3 L 120.2 184.3 L 120.2 181.0 L 121.3 181.0 L 121.3 188.8 L 120.2 188.8 L 120.2 185.2 L 116.2 185.2 L 116.2 188.8 L 115.1 188.8 L 115.1 181.0 " fill="#FF0000"/>
<path class="atom-26" d="M 140.6 141.1 Q 140.6 139.3, 141.6 138.2 Q 142.5 137.2, 144.2 137.2 Q 146.0 137.2, 146.9 138.2 Q 147.8 139.3, 147.8 141.1 Q 147.8 143.0, 146.9 144.1 Q 145.9 145.2, 144.2 145.2 Q 142.5 145.2, 141.6 144.1 Q 140.6 143.1, 140.6 141.1 M 144.2 144.3 Q 145.4 144.3, 146.1 143.5 Q 146.7 142.7, 146.7 141.1 Q 146.7 139.6, 146.1 138.8 Q 145.4 138.0, 144.2 138.0 Q 143.0 138.0, 142.4 138.8 Q 141.7 139.6, 141.7 141.1 Q 141.7 142.7, 142.4 143.5 Q 143.0 144.3, 144.2 144.3 " fill="#FF0000"/>
<path class="atom-26" d="M 149.0 137.2 L 150.1 137.2 L 150.1 140.6 L 154.1 140.6 L 154.1 137.2 L 155.2 137.2 L 155.2 145.1 L 154.1 145.1 L 154.1 141.5 L 150.1 141.5 L 150.1 145.1 L 149.0 145.1 L 149.0 137.2 " fill="#FF0000"/>
<path class="atom-28" d="M 119.7 89.9 Q 119.7 88.1, 120.7 87.0 Q 121.6 86.0, 123.3 86.0 Q 125.1 86.0, 126.0 87.0 Q 126.9 88.1, 126.9 89.9 Q 126.9 91.8, 126.0 92.9 Q 125.0 94.0, 123.3 94.0 Q 121.6 94.0, 120.7 92.9 Q 119.7 91.8, 119.7 89.9 M 123.3 93.1 Q 124.5 93.1, 125.2 92.3 Q 125.8 91.5, 125.8 89.9 Q 125.8 88.4, 125.2 87.6 Q 124.5 86.8, 123.3 86.8 Q 122.1 86.8, 121.5 87.6 Q 120.8 88.4, 120.8 89.9 Q 120.8 91.5, 121.5 92.3 Q 122.1 93.1, 123.3 93.1 " fill="#FF0000"/>
<path class="atom-28" d="M 128.1 86.0 L 129.2 86.0 L 129.2 89.4 L 133.2 89.4 L 133.2 86.0 L 134.3 86.0 L 134.3 93.9 L 133.2 93.9 L 133.2 90.3 L 129.2 90.3 L 129.2 93.9 L 128.1 93.9 L 128.1 86.0 " fill="#FF0000"/>
<path class="atom-30" d="M 205.7 28.4 Q 205.7 26.5, 206.7 25.5 Q 207.6 24.4, 209.3 24.4 Q 211.1 24.4, 212.0 25.5 Q 212.9 26.5, 212.9 28.4 Q 212.9 30.3, 212.0 31.4 Q 211.0 32.5, 209.3 32.5 Q 207.6 32.5, 206.7 31.4 Q 205.7 30.3, 205.7 28.4 M 209.3 31.6 Q 210.5 31.6, 211.2 30.8 Q 211.8 30.0, 211.8 28.4 Q 211.8 26.9, 211.2 26.1 Q 210.5 25.3, 209.3 25.3 Q 208.1 25.3, 207.5 26.1 Q 206.8 26.9, 206.8 28.4 Q 206.8 30.0, 207.5 30.8 Q 208.1 31.6, 209.3 31.6 " fill="#FF0000"/>
<path class="atom-30" d="M 214.1 24.5 L 215.2 24.5 L 215.2 27.8 L 219.2 27.8 L 219.2 24.5 L 220.3 24.5 L 220.3 32.4 L 219.2 32.4 L 219.2 28.7 L 215.2 28.7 L 215.2 32.4 L 214.1 32.4 L 214.1 24.5 " fill="#FF0000"/>
<path class="atom-32" d="M 259.9 54.6 Q 259.9 52.7, 260.8 51.7 Q 261.8 50.6, 263.5 50.6 Q 265.2 50.6, 266.2 51.7 Q 267.1 52.7, 267.1 54.6 Q 267.1 56.5, 266.1 57.6 Q 265.2 58.7, 263.5 58.7 Q 261.8 58.7, 260.8 57.6 Q 259.9 56.5, 259.9 54.6 M 263.5 57.8 Q 264.7 57.8, 265.3 57.0 Q 266.0 56.2, 266.0 54.6 Q 266.0 53.1, 265.3 52.3 Q 264.7 51.5, 263.5 51.5 Q 262.3 51.5, 261.6 52.3 Q 261.0 53.1, 261.0 54.6 Q 261.0 56.2, 261.6 57.0 Q 262.3 57.8, 263.5 57.8 " fill="#FF0000"/>
<path class="atom-32" d="M 268.3 50.7 L 269.4 50.7 L 269.4 54.0 L 273.4 54.0 L 273.4 50.7 L 274.4 50.7 L 274.4 58.5 L 273.4 58.5 L 273.4 54.9 L 269.4 54.9 L 269.4 58.5 L 268.3 58.5 L 268.3 50.7 " fill="#FF0000"/>
<path class="atom-34" d="M 284.9 79.6 Q 284.9 77.8, 285.8 76.7 Q 286.7 75.7, 288.5 75.7 Q 290.2 75.7, 291.1 76.7 Q 292.1 77.8, 292.1 79.6 Q 292.1 81.5, 291.1 82.6 Q 290.2 83.7, 288.5 83.7 Q 286.8 83.7, 285.8 82.6 Q 284.9 81.6, 284.9 79.6 M 288.5 82.8 Q 289.7 82.8, 290.3 82.0 Q 291.0 81.2, 291.0 79.6 Q 291.0 78.1, 290.3 77.3 Q 289.7 76.5, 288.5 76.5 Q 287.3 76.5, 286.6 77.3 Q 286.0 78.1, 286.0 79.6 Q 286.0 81.2, 286.6 82.0 Q 287.3 82.8, 288.5 82.8 " fill="#FF0000"/>
<path class="atom-35" d="M 300.1 121.7 L 302.7 125.8 Q 302.9 126.3, 303.3 127.0 Q 303.8 127.7, 303.8 127.8 L 303.8 121.7 L 304.8 121.7 L 304.8 129.5 L 303.7 129.5 L 301.0 125.0 Q 300.7 124.5, 300.3 123.9 Q 300.0 123.2, 299.9 123.1 L 299.9 129.5 L 298.9 129.5 L 298.9 121.7 L 300.1 121.7 " fill="#0000FF"/>
<path class="atom-35" d="M 306.3 121.7 L 307.4 121.7 L 307.4 125.0 L 311.4 125.0 L 311.4 121.7 L 312.5 121.7 L 312.5 129.5 L 311.4 129.5 L 311.4 125.9 L 307.4 125.9 L 307.4 129.5 L 306.3 129.5 L 306.3 121.7 " fill="#0000FF"/>
</g>
    <g transform="translate(336.0, 0) scale(1 1) "><line x1="15" y1="100" x2="25" y2="100" style="stroke:rgb(0,0,0);stroke-width:2"/>
  <line x1="20" y1="95" x2="20" y2="105" style="stroke:rgb(0,0,0);stroke-width:2"/>
</g>
    <g transform="translate(376.0, 0) scale(1 1) "><!-- END OF HEADER -->
<rect style="opacity:1.0;fill:#FFFFFF;stroke:none" width="333.0" height="200.0" x="0.0" y="0.0"> </rect>
<path class="bond-0 atom-0 atom-1" d="M 60.5,125.7 L 78.7,119.5" style="fill:none;fill-rule:evenodd;stroke:#000000;stroke-width:2.0px;stroke-linecap:butt;stroke-linejoin:miter;stroke-opacity:1"/>
<path class="bond-1 atom-1 atom-2" d="M 78.7,119.5 L 82.4,100.7" style="fill:none;fill-rule:evenodd;stroke:#000000;stroke-width:2.0px;stroke-linecap:butt;stroke-linejoin:miter;stroke-opacity:1"/>
<path class="bond-2 atom-2 atom-3" d="M 82.4,100.7 L 68.0,88.0" style="fill:none;fill-rule:evenodd;stroke:#000000;stroke-width:2.0px;stroke-linecap:butt;stroke-linejoin:miter;stroke-opacity:1"/>
<path class="bond-2 atom-2 atom-3" d="M 79.3,101.7 L 66.1,90.2" style="fill:none;fill-rule:evenodd;stroke:#000000;stroke-width:2.0px;stroke-linecap:butt;stroke-linejoin:miter;stroke-opacity:1"/>
<path class="bond-3 atom-3 atom-4" d="M 68.0,88.0 L 71.7,69.1" style="fill:none;fill-rule:evenodd;stroke:#000000;stroke-width:2.0px;stroke-linecap:butt;stroke-linejoin:miter;stroke-opacity:1"/>
<path class="bond-4 atom-4 atom-5" d="M 71.7,69.1 L 57.2,56.4" style="fill:none;fill-rule:evenodd;stroke:#000000;stroke-width:2.0px;stroke-linecap:butt;stroke-linejoin:miter;stroke-opacity:1"/>
<path class="bond-4 atom-4 atom-5" d="M 68.5,70.2 L 56.6,59.7" style="fill:none;fill-rule:evenodd;stroke:#000000;stroke-width:2.0px;stroke-linecap:butt;stroke-linejoin:miter;stroke-opacity:1"/>
<path class="bond-5 atom-5 atom-6" d="M 57.2,56.4 L 61.0,37.6" style="fill:none;fill-rule:evenodd;stroke:#000000;stroke-width:2.0px;stroke-linecap:butt;stroke-linejoin:miter;stroke-opacity:1"/>
<path class="bond-6 atom-5 atom-7" d="M 57.2,56.4 L 39.0,62.6" style="fill:none;fill-rule:evenodd;stroke:#000000;stroke-width:2.0px;stroke-linecap:butt;stroke-linejoin:miter;stroke-opacity:1"/>
<path class="bond-7 atom-7 atom-8" d="M 37.8,61.5 L 36.1,69.7" style="fill:none;fill-rule:evenodd;stroke:#000000;stroke-width:2.0px;stroke-linecap:butt;stroke-linejoin:miter;stroke-opacity:1"/>
<path class="bond-7 atom-7 atom-8" d="M 36.1,69.7 L 34.5,77.8" style="fill:none;fill-rule:evenodd;stroke:#FF0000;stroke-width:2.0px;stroke-linecap:butt;stroke-linejoin:miter;stroke-opacity:1"/>
<path class="bond-7 atom-7 atom-8" d="M 40.6,62.1 L 39.0,70.3" style="fill:none;fill-rule:evenodd;stroke:#000000;stroke-width:2.0px;stroke-linecap:butt;stroke-linejoin:miter;stroke-opacity:1"/>
<path class="bond-7 atom-7 atom-8" d="M 39.0,70.3 L 37.4,78.4" style="fill:none;fill-rule:evenodd;stroke:#FF0000;stroke-width:2.0px;stroke-linecap:butt;stroke-linejoin:miter;stroke-opacity:1"/>
<path class="bond-8 atom-7 atom-9" d="M 39.0,62.6 L 33.3,57.7" style="fill:none;fill-rule:evenodd;stroke:#000000;stroke-width:2.0px;stroke-linecap:butt;stroke-linejoin:miter;stroke-opacity:1"/>
<path class="bond-8 atom-7 atom-9" d="M 33.3,57.7 L 27.7,52.7" style="fill:none;fill-rule:evenodd;stroke:#FF0000;stroke-width:2.0px;stroke-linecap:butt;stroke-linejoin:miter;stroke-opacity:1"/>
<path class="bond-9 atom-1 atom-10" d="M 78.7,119.5 L 93.2,132.2" style="fill:none;fill-rule:evenodd;stroke:#000000;stroke-width:2.0px;stroke-linecap:butt;stroke-linejoin:miter;stroke-opacity:1"/>
<path class="bond-9 atom-1 atom-10" d="M 81.9,118.5 L 93.8,129.0" style="fill:none;fill-rule:evenodd;stroke:#000000;stroke-width:2.0px;stroke-linecap:butt;stroke-linejoin:miter;stroke-opacity:1"/>
<path class="bond-10 atom-10 atom-11" d="M 93.2,132.2 L 111.4,126.0" style="fill:none;fill-rule:evenodd;stroke:#000000;stroke-width:2.0px;stroke-linecap:butt;stroke-linejoin:miter;stroke-opacity:1"/>
<path class="bond-11 atom-11 atom-12" d="M 111.4,126.0 L 125.9,138.7" style="fill:none;fill-rule:evenodd;stroke:#000000;stroke-width:2.0px;stroke-linecap:butt;stroke-linejoin:miter;stroke-opacity:1"/>
<path class="bond-11 atom-11 atom-12" d="M 110.7,129.3 L 124.0,140.9" style="fill:none;fill-rule:evenodd;stroke:#000000;stroke-width:2.0px;stroke-linecap:butt;stroke-linejoin:miter;stroke-opacity:1"/>
<path class="bond-12 atom-12 atom-13" d="M 125.9,138.7 L 144.1,132.5" style="fill:none;fill-rule:evenodd;stroke:#000000;stroke-width:2.0px;stroke-linecap:butt;stroke-linejoin:miter;stroke-opacity:1"/>
<path class="bond-13 atom-13 atom-14" d="M 144.1,132.5 L 158.6,145.2" style="fill:none;fill-rule:evenodd;stroke:#000000;stroke-width:2.0px;stroke-linecap:butt;stroke-linejoin:miter;stroke-opacity:1"/>
<path class="bond-13 atom-13 atom-14" d="M 143.4,135.8 L 155.4,146.3" style="fill:none;fill-rule:evenodd;stroke:#000000;stroke-width:2.0px;stroke-linecap:butt;stroke-linejoin:miter;stroke-opacity:1"/>
<path class="bond-14 atom-14 atom-15" d="M 158.6,145.2 L 154.8,164.1" style="fill:none;fill-rule:evenodd;stroke:#000000;stroke-width:2.0px;stroke-linecap:butt;stroke-linejoin:miter;stroke-opacity:1"/>
<path class="bond-15 atom-14 atom-16" d="M 158.6,145.2 L 176.8,139.0" style="fill:none;fill-rule:evenodd;stroke:#000000;stroke-width:2.0px;stroke-linecap:butt;stroke-linejoin:miter;stroke-opacity:1"/>
<path class="bond-16 atom-16 atom-17" d="M 176.8,139.0 L 180.5,120.1" style="fill:none;fill-rule:evenodd;stroke:#000000;stroke-width:2.0px;stroke-linecap:butt;stroke-linejoin:miter;stroke-opacity:1"/>
<path class="bond-16 atom-16 atom-17" d="M 174.3,136.8 L 177.7,119.6" style="fill:none;fill-rule:evenodd;stroke:#000000;stroke-width:2.0px;stroke-linecap:butt;stroke-linejoin:miter;stroke-opacity:1"/>
<path class="bond-17 atom-17 atom-18" d="M 180.5,120.1 L 198.7,113.9" style="fill:none;fill-rule:evenodd;stroke:#000000;stroke-width:2.0px;stroke-linecap:butt;stroke-linejoin:miter;stroke-opacity:1"/>
<path class="bond-18 atom-18 atom-19" d="M 198.7,113.9 L 202.5,95.0" style="fill:none;fill-rule:evenodd;stroke:#000000;stroke-width:2.0px;stroke-linecap:butt;stroke-linejoin:miter;stroke-opacity:1"/>
<path class="bond-18 atom-18 atom-19" d="M 196.2,111.7 L 199.3,96.1" style="fill:none;fill-rule:evenodd;stroke:#000000;stroke-width:2.0px;stroke-linecap:butt;stroke-linejoin:miter;stroke-opacity:1"/>
<path class="bond-19 atom-19 atom-20" d="M 202.5,95.0 L 188.0,82.4" style="fill:none;fill-rule:evenodd;stroke:#000000;stroke-width:2.0px;stroke-linecap:butt;stroke-linejoin:miter;stroke-opacity:1"/>
<path class="bond-20 atom-19 atom-21" d="M 202.5,95.0 L 220.7,88.8" style="fill:none;fill-rule:evenodd;stroke:#000000;stroke-width:2.0px;stroke-linecap:butt;stroke-linejoin:miter;stroke-opacity:1"/>
<path class="bond-21 atom-21 atom-22" d="M 221.9,89.9 L 223.6,81.8" style="fill:none;fill-rule:evenodd;stroke:#000000;stroke-width:2.0px;stroke-linecap:butt;stroke-linejoin:miter;stroke-opacity:1"/>
<path class="bond-21 atom-21 atom-22" d="M 223.6,81.8 L 225.2,73.7" style="fill:none;fill-rule:evenodd;stroke:#FF0000;stroke-width:2.0px;stroke-linecap:butt;stroke-linejoin:miter;stroke-opacity:1"/>
<path class="bond-21 atom-21 atom-22" d="M 219.1,89.4 L 220.7,81.3" style="fill:none;fill-rule:evenodd;stroke:#000000;stroke-width:2.0px;stroke-linecap:butt;stroke-linejoin:miter;stroke-opacity:1"/>
<path class="bond-21 atom-21 atom-22" d="M 220.7,81.3 L 222.3,73.2" style="fill:none;fill-rule:evenodd;stroke:#FF0000;stroke-width:2.0px;stroke-linecap:butt;stroke-linejoin:miter;stroke-opacity:1"/>
<path class="bond-22 atom-21 atom-23" d="M 220.7,88.8 L 226.4,93.8" style="fill:none;fill-rule:evenodd;stroke:#000000;stroke-width:2.0px;stroke-linecap:butt;stroke-linejoin:miter;stroke-opacity:1"/>
<path class="bond-22 atom-21 atom-23" d="M 226.4,93.8 L 232.0,98.8" style="fill:none;fill-rule:evenodd;stroke:#FF0000;stroke-width:2.0px;stroke-linecap:butt;stroke-linejoin:miter;stroke-opacity:1"/>
<path class="bond-23 atom-23 atom-24" d="M 238.3,100.5 L 245.8,97.9" style="fill:none;fill-rule:evenodd;stroke:#FF0000;stroke-width:2.0px;stroke-linecap:butt;stroke-linejoin:miter;stroke-opacity:1"/>
<path class="bond-23 atom-23 atom-24" d="M 245.8,97.9 L 253.4,95.3" style="fill:none;fill-rule:evenodd;stroke:#000000;stroke-width:2.0px;stroke-linecap:butt;stroke-linejoin:miter;stroke-opacity:1"/>
<path class="bond-24 atom-24 atom-25" d="M 253.4,95.3 L 254.9,87.6" style="fill:none;fill-rule:evenodd;stroke:#000000;stroke-width:2.0px;stroke-linecap:butt;stroke-linejoin:miter;stroke-opacity:1"/>
<path class="bond-24 atom-24 atom-25" d="M 254.9,87.6 L 256.4,79.9" style="fill:none;fill-rule:evenodd;stroke:#FF0000;stroke-width:2.0px;stroke-linecap:butt;stroke-linejoin:miter;stroke-opacity:1"/>
<path class="bond-25 atom-25 atom-26" d="M 260.3,75.4 L 267.8,72.8" style="fill:none;fill-rule:evenodd;stroke:#FF0000;stroke-width:2.0px;stroke-linecap:butt;stroke-linejoin:miter;stroke-opacity:1"/>
<path class="bond-25 atom-25 atom-26" d="M 267.8,72.8 L 275.3,70.2" style="fill:none;fill-rule:evenodd;stroke:#000000;stroke-width:2.0px;stroke-linecap:butt;stroke-linejoin:miter;stroke-opacity:1"/>
<path class="bond-26 atom-26 atom-27" d="M 275.3,70.2 L 279.1,51.4" style="fill:none;fill-rule:evenodd;stroke:#000000;stroke-width:2.0px;stroke-linecap:butt;stroke-linejoin:miter;stroke-opacity:1"/>
<path class="bond-27 atom-27 atom-28" d="M 279.1,51.4 L 273.4,46.4" style="fill:none;fill-rule:evenodd;stroke:#000000;stroke-width:2.0px;stroke-linecap:butt;stroke-linejoin:miter;stroke-opacity:1"/>
<path class="bond-27 atom-27 atom-28" d="M 273.4,46.4 L 267.7,41.4" style="fill:none;fill-rule:evenodd;stroke:#FF0000;stroke-width:2.0px;stroke-linecap:butt;stroke-linejoin:miter;stroke-opacity:1"/>
<path class="bond-28 atom-26 atom-29" d="M 275.3,70.2 L 289.8,82.9" style="fill:none;fill-rule:evenodd;stroke:#000000;stroke-width:2.0px;stroke-linecap:butt;stroke-linejoin:miter;stroke-opacity:1"/>
<path class="bond-29 atom-29 atom-30" d="M 289.8,82.9 L 297.4,80.4" style="fill:none;fill-rule:evenodd;stroke:#000000;stroke-width:2.0px;stroke-linecap:butt;stroke-linejoin:miter;stroke-opacity:1"/>
<path class="bond-29 atom-29 atom-30" d="M 297.4,80.4 L 304.9,77.8" style="fill:none;fill-rule:evenodd;stroke:#FF0000;stroke-width:2.0px;stroke-linecap:butt;stroke-linejoin:miter;stroke-opacity:1"/>
<path class="bond-30 atom-29 atom-31" d="M 289.8,82.9 L 286.1,101.8" style="fill:none;fill-rule:evenodd;stroke:#000000;stroke-width:2.0px;stroke-linecap:butt;stroke-linejoin:miter;stroke-opacity:1"/>
<path class="bond-31 atom-31 atom-32" d="M 286.1,101.8 L 291.7,106.8" style="fill:none;fill-rule:evenodd;stroke:#000000;stroke-width:2.0px;stroke-linecap:butt;stroke-linejoin:miter;stroke-opacity:1"/>
<path class="bond-31 atom-31 atom-32" d="M 291.7,106.8 L 297.4,111.7" style="fill:none;fill-rule:evenodd;stroke:#FF0000;stroke-width:2.0px;stroke-linecap:butt;stroke-linejoin:miter;stroke-opacity:1"/>
<path class="bond-32 atom-31 atom-33" d="M 286.1,101.8 L 267.9,108.0" style="fill:none;fill-rule:evenodd;stroke:#000000;stroke-width:2.0px;stroke-linecap:butt;stroke-linejoin:miter;stroke-opacity:1"/>
<path class="bond-33 atom-33 atom-34" d="M 267.9,108.0 L 266.3,115.7" style="fill:none;fill-rule:evenodd;stroke:#000000;stroke-width:2.0px;stroke-linecap:butt;stroke-linejoin:miter;stroke-opacity:1"/>
<path class="bond-33 atom-33 atom-34" d="M 266.3,115.7 L 264.8,123.5" style="fill:none;fill-rule:evenodd;stroke:#FF0000;stroke-width:2.0px;stroke-linecap:butt;stroke-linejoin:miter;stroke-opacity:1"/>
<path class="bond-34 atom-33 atom-24" d="M 267.9,108.0 L 253.4,95.3" style="fill:none;fill-rule:evenodd;stroke:#000000;stroke-width:2.0px;stroke-linecap:butt;stroke-linejoin:miter;stroke-opacity:1"/>
<path d="M 82.3,101.6 L 82.4,100.7 L 81.7,100.0" style="fill:none;stroke:#000000;stroke-width:2.0px;stroke-linecap:butt;stroke-linejoin:miter;stroke-opacity:1;"/>
<path d="M 68.7,88.6 L 68.0,88.0 L 68.1,87.1" style="fill:none;stroke:#000000;stroke-width:2.0px;stroke-linecap:butt;stroke-linejoin:miter;stroke-opacity:1;"/>
<path d="M 71.5,70.1 L 71.7,69.1 L 71.0,68.5" style="fill:none;stroke:#000000;stroke-width:2.0px;stroke-linecap:butt;stroke-linejoin:miter;stroke-opacity:1;"/>
<path d="M 39.9,62.3 L 39.0,62.6 L 38.7,62.4" style="fill:none;stroke:#000000;stroke-width:2.0px;stroke-linecap:butt;stroke-linejoin:miter;stroke-opacity:1;"/>
<path d="M 92.4,131.6 L 93.2,132.2 L 94.1,131.9" style="fill:none;stroke:#000000;stroke-width:2.0px;stroke-linecap:butt;stroke-linejoin:miter;stroke-opacity:1;"/>
<path d="M 110.5,126.3 L 111.4,126.0 L 112.1,126.7" style="fill:none;stroke:#000000;stroke-width:2.0px;stroke-linecap:butt;stroke-linejoin:miter;stroke-opacity:1;"/>
<path d="M 125.1,138.1 L 125.9,138.7 L 126.8,138.4" style="fill:none;stroke:#000000;stroke-width:2.0px;stroke-linecap:butt;stroke-linejoin:miter;stroke-opacity:1;"/>
<path d="M 143.2,132.8 L 144.1,132.5 L 144.8,133.1" style="fill:none;stroke:#000000;stroke-width:2.0px;stroke-linecap:butt;stroke-linejoin:miter;stroke-opacity:1;"/>
<path d="M 175.9,139.3 L 176.8,139.0 L 177.0,138.0" style="fill:none;stroke:#000000;stroke-width:2.0px;stroke-linecap:butt;stroke-linejoin:miter;stroke-opacity:1;"/>
<path d="M 180.3,121.1 L 180.5,120.1 L 181.4,119.8" style="fill:none;stroke:#000000;stroke-width:2.0px;stroke-linecap:butt;stroke-linejoin:miter;stroke-opacity:1;"/>
<path d="M 197.8,114.2 L 198.7,113.9 L 198.9,113.0" style="fill:none;stroke:#000000;stroke-width:2.0px;stroke-linecap:butt;stroke-linejoin:miter;stroke-opacity:1;"/>
<path d="M 219.8,89.2 L 220.7,88.8 L 221.0,89.1" style="fill:none;stroke:#000000;stroke-width:2.0px;stroke-linecap:butt;stroke-linejoin:miter;stroke-opacity:1;"/>
<path d="M 278.9,52.3 L 279.1,51.4 L 278.8,51.1" style="fill:none;stroke:#000000;stroke-width:2.0px;stroke-linecap:butt;stroke-linejoin:miter;stroke-opacity:1;"/>
<path class="atom-8" d="M 32.8 81.5 Q 32.8 80.2, 33.4 79.5 Q 34.1 78.8, 35.3 78.8 Q 36.5 78.8, 37.1 79.5 Q 37.8 80.2, 37.8 81.5 Q 37.8 82.9, 37.1 83.6 Q 36.5 84.4, 35.3 84.4 Q 34.1 84.4, 33.4 83.6 Q 32.8 82.9, 32.8 81.5 M 35.3 83.7 Q 36.1 83.7, 36.5 83.2 Q 37.0 82.6, 37.0 81.5 Q 37.0 80.5, 36.5 79.9 Q 36.1 79.4, 35.3 79.4 Q 34.4 79.4, 34.0 79.9 Q 33.5 80.5, 33.5 81.5 Q 33.5 82.6, 34.0 83.2 Q 34.4 83.7, 35.3 83.7 " fill="#FF0000"/>
<path class="atom-9" d="M 16.7 47.3 L 17.4 47.3 L 17.4 49.6 L 20.2 49.6 L 20.2 47.3 L 20.9 47.3 L 20.9 52.7 L 20.2 52.7 L 20.2 50.2 L 17.4 50.2 L 17.4 52.7 L 16.7 52.7 L 16.7 47.3 " fill="#FF0000"/>
<path class="atom-9" d="M 22.0 50.0 Q 22.0 48.7, 22.7 47.9 Q 23.3 47.2, 24.5 47.2 Q 25.7 47.2, 26.4 47.9 Q 27.0 48.7, 27.0 50.0 Q 27.0 51.3, 26.4 52.1 Q 25.7 52.8, 24.5 52.8 Q 23.3 52.8, 22.7 52.1 Q 22.0 51.3, 22.0 50.0 M 24.5 52.2 Q 25.4 52.2, 25.8 51.6 Q 26.3 51.1, 26.3 50.0 Q 26.3 48.9, 25.8 48.4 Q 25.4 47.8, 24.5 47.8 Q 23.7 47.8, 23.2 48.4 Q 22.8 48.9, 22.8 50.0 Q 22.8 51.1, 23.2 51.6 Q 23.7 52.2, 24.5 52.2 " fill="#FF0000"/>
<path class="atom-22" d="M 221.9 70.0 Q 221.9 68.7, 222.6 67.9 Q 223.2 67.2, 224.4 67.2 Q 225.6 67.2, 226.3 67.9 Q 226.9 68.7, 226.9 70.0 Q 226.9 71.3, 226.3 72.1 Q 225.6 72.8, 224.4 72.8 Q 223.2 72.8, 222.6 72.1 Q 221.9 71.3, 221.9 70.0 M 224.4 72.2 Q 225.3 72.2, 225.7 71.6 Q 226.2 71.1, 226.2 70.0 Q 226.2 68.9, 225.7 68.4 Q 225.3 67.8, 224.4 67.8 Q 223.6 67.8, 223.1 68.4 Q 222.7 68.9, 222.7 70.0 Q 222.7 71.1, 223.1 71.6 Q 223.6 72.2, 224.4 72.2 " fill="#FF0000"/>
<path class="atom-23" d="M 232.7 101.5 Q 232.7 100.2, 233.3 99.5 Q 234.0 98.8, 235.2 98.8 Q 236.4 98.8, 237.0 99.5 Q 237.7 100.2, 237.7 101.5 Q 237.7 102.9, 237.0 103.6 Q 236.4 104.4, 235.2 104.4 Q 234.0 104.4, 233.3 103.6 Q 232.7 102.9, 232.7 101.5 M 235.2 103.7 Q 236.0 103.7, 236.4 103.2 Q 236.9 102.6, 236.9 101.5 Q 236.9 100.5, 236.4 99.9 Q 236.0 99.4, 235.2 99.4 Q 234.3 99.4, 233.9 99.9 Q 233.4 100.5, 233.4 101.5 Q 233.4 102.6, 233.9 103.2 Q 234.3 103.7, 235.2 103.7 " fill="#FF0000"/>
<path class="atom-25" d="M 254.6 76.5 Q 254.6 75.2, 255.3 74.4 Q 255.9 73.7, 257.1 73.7 Q 258.3 73.7, 259.0 74.4 Q 259.6 75.2, 259.6 76.5 Q 259.6 77.8, 259.0 78.5 Q 258.3 79.3, 257.1 79.3 Q 255.9 79.3, 255.3 78.5 Q 254.6 77.8, 254.6 76.5 M 257.1 78.7 Q 258.0 78.7, 258.4 78.1 Q 258.9 77.6, 258.9 76.5 Q 258.9 75.4, 258.4 74.9 Q 258.0 74.3, 257.1 74.3 Q 256.3 74.3, 255.8 74.8 Q 255.4 75.4, 255.4 76.5 Q 255.4 77.6, 255.8 78.1 Q 256.3 78.7, 257.1 78.7 " fill="#FF0000"/>
<path class="atom-28" d="M 256.7 36.0 L 257.5 36.0 L 257.5 38.3 L 260.2 38.3 L 260.2 36.0 L 261.0 36.0 L 261.0 41.5 L 260.2 41.5 L 260.2 38.9 L 257.5 38.9 L 257.5 41.5 L 256.7 41.5 L 256.7 36.0 " fill="#FF0000"/>
<path class="atom-28" d="M 262.1 38.7 Q 262.1 37.4, 262.8 36.7 Q 263.4 35.9, 264.6 35.9 Q 265.8 35.9, 266.5 36.7 Q 267.1 37.4, 267.1 38.7 Q 267.1 40.0, 266.5 40.8 Q 265.8 41.5, 264.6 41.5 Q 263.4 41.5, 262.8 40.8 Q 262.1 40.0, 262.1 38.7 M 264.6 40.9 Q 265.4 40.9, 265.9 40.4 Q 266.3 39.8, 266.3 38.7 Q 266.3 37.6, 265.9 37.1 Q 265.4 36.6, 264.6 36.6 Q 263.8 36.6, 263.3 37.1 Q 262.9 37.6, 262.9 38.7 Q 262.9 39.8, 263.3 40.4 Q 263.8 40.9, 264.6 40.9 " fill="#FF0000"/>
<path class="atom-30" d="M 305.5 76.7 Q 305.5 75.4, 306.2 74.7 Q 306.8 74.0, 308.0 74.0 Q 309.2 74.0, 309.9 74.7 Q 310.5 75.4, 310.5 76.7 Q 310.5 78.1, 309.9 78.8 Q 309.2 79.6, 308.0 79.6 Q 306.8 79.6, 306.2 78.8 Q 305.5 78.1, 305.5 76.7 M 308.0 79.0 Q 308.9 79.0, 309.3 78.4 Q 309.8 77.8, 309.8 76.7 Q 309.8 75.7, 309.3 75.1 Q 308.9 74.6, 308.0 74.6 Q 307.2 74.6, 306.8 75.1 Q 306.3 75.7, 306.3 76.7 Q 306.3 77.8, 306.8 78.4 Q 307.2 79.0, 308.0 79.0 " fill="#FF0000"/>
<path class="atom-30" d="M 311.4 74.0 L 312.1 74.0 L 312.1 76.4 L 314.9 76.4 L 314.9 74.0 L 315.7 74.0 L 315.7 79.5 L 314.9 79.5 L 314.9 77.0 L 312.1 77.0 L 312.1 79.5 L 311.4 79.5 L 311.4 74.0 " fill="#FF0000"/>
<path class="atom-32" d="M 298.1 114.5 Q 298.1 113.2, 298.7 112.5 Q 299.3 111.7, 300.6 111.7 Q 301.8 111.7, 302.4 112.5 Q 303.1 113.2, 303.1 114.5 Q 303.1 115.8, 302.4 116.6 Q 301.7 117.3, 300.6 117.3 Q 299.4 117.3, 298.7 116.6 Q 298.1 115.8, 298.1 114.5 M 300.6 116.7 Q 301.4 116.7, 301.8 116.1 Q 302.3 115.6, 302.3 114.5 Q 302.3 113.4, 301.8 112.9 Q 301.4 112.3, 300.6 112.3 Q 299.7 112.3, 299.3 112.9 Q 298.8 113.4, 298.8 114.5 Q 298.8 115.6, 299.3 116.1 Q 299.7 116.7, 300.6 116.7 " fill="#FF0000"/>
<path class="atom-32" d="M 303.9 111.8 L 304.6 111.8 L 304.6 114.1 L 307.4 114.1 L 307.4 111.8 L 308.2 111.8 L 308.2 117.2 L 307.4 117.2 L 307.4 114.7 L 304.6 114.7 L 304.6 117.2 L 303.9 117.2 L 303.9 111.8 " fill="#FF0000"/>
<path class="atom-34" d="M 261.6 126.9 Q 261.6 125.6, 262.3 124.8 Q 262.9 124.1, 264.1 124.1 Q 265.3 124.1, 266.0 124.8 Q 266.6 125.6, 266.6 126.9 Q 266.6 128.2, 266.0 129.0 Q 265.3 129.7, 264.1 129.7 Q 262.9 129.7, 262.3 129.0 Q 261.6 128.2, 261.6 126.9 M 264.1 129.1 Q 265.0 129.1, 265.4 128.5 Q 265.9 128.0, 265.9 126.9 Q 265.9 125.8, 265.4 125.3 Q 265.0 124.7, 264.1 124.7 Q 263.3 124.7, 262.8 125.3 Q 262.4 125.8, 262.4 126.9 Q 262.4 128.0, 262.8 128.5 Q 263.3 129.1, 264.1 129.1 " fill="#FF0000"/>
<path class="atom-34" d="M 267.5 124.2 L 268.2 124.2 L 268.2 126.5 L 271.0 126.5 L 271.0 124.2 L 271.7 124.2 L 271.7 129.6 L 271.0 129.6 L 271.0 127.1 L 268.2 127.1 L 268.2 129.6 L 267.5 129.6 L 267.5 124.2 " fill="#FF0000"/>
</g>
    <g transform="translate(709.0, 0) scale(1 1) "><line x1="5" y1="100" x2="35" y2="100" style="stroke:rgb(0,0,0);stroke-width:2"/>
  <line x1="34" y1="100" x2="29" y2="95" style="stroke:rgb(0,0,0);stroke-width:2"/>
  <line x1="34" y1="100" x2="29" y2="105" style="stroke:rgb(0,0,0);stroke-width:2"/>
</g>
    <g transform="translate(749.0, 0) scale(1 1) "><!-- END OF HEADER -->
<rect style="opacity:1.0;fill:#FFFFFF;stroke:none" width="357.0" height="200.0" x="0.0" y="0.0"> </rect>
<path class="bond-0 atom-0 atom-1" d="M 37.9,114.4 L 57.5,113.9" style="fill:none;fill-rule:evenodd;stroke:#000000;stroke-width:2.0px;stroke-linecap:butt;stroke-linejoin:miter;stroke-opacity:1"/>
<path class="bond-1 atom-1 atom-2" d="M 57.5,113.9 L 66.9,96.6" style="fill:none;fill-rule:evenodd;stroke:#000000;stroke-width:2.0px;stroke-linecap:butt;stroke-linejoin:miter;stroke-opacity:1"/>
<path class="bond-2 atom-2 atom-3" d="M 66.9,96.6 L 56.6,79.9" style="fill:none;fill-rule:evenodd;stroke:#000000;stroke-width:2.0px;stroke-linecap:butt;stroke-linejoin:miter;stroke-opacity:1"/>
<path class="bond-2 atom-2 atom-3" d="M 63.5,96.7 L 54.1,81.4" style="fill:none;fill-rule:evenodd;stroke:#000000;stroke-width:2.0px;stroke-linecap:butt;stroke-linejoin:miter;stroke-opacity:1"/>
<path class="bond-3 atom-3 atom-4" d="M 56.6,79.9 L 66.0,62.7" style="fill:none;fill-rule:evenodd;stroke:#000000;stroke-width:2.0px;stroke-linecap:butt;stroke-linejoin:miter;stroke-opacity:1"/>
<path class="bond-4 atom-4 atom-5" d="M 66.0,62.7 L 55.7,45.9" style="fill:none;fill-rule:evenodd;stroke:#000000;stroke-width:2.0px;stroke-linecap:butt;stroke-linejoin:miter;stroke-opacity:1"/>
<path class="bond-4 atom-4 atom-5" d="M 62.6,62.8 L 54.1,48.9" style="fill:none;fill-rule:evenodd;stroke:#000000;stroke-width:2.0px;stroke-linecap:butt;stroke-linejoin:miter;stroke-opacity:1"/>
<path class="bond-5 atom-5 atom-6" d="M 55.7,45.9 L 65.1,28.7" style="fill:none;fill-rule:evenodd;stroke:#000000;stroke-width:2.0px;stroke-linecap:butt;stroke-linejoin:miter;stroke-opacity:1"/>
<path class="bond-6 atom-5 atom-7" d="M 55.7,45.9 L 36.1,46.5" style="fill:none;fill-rule:evenodd;stroke:#000000;stroke-width:2.0px;stroke-linecap:butt;stroke-linejoin:miter;stroke-opacity:1"/>
<path class="bond-7 atom-7 atom-8" d="M 35.2,45.0 L 31.3,52.3" style="fill:none;fill-rule:evenodd;stroke:#000000;stroke-width:2.0px;stroke-linecap:butt;stroke-linejoin:miter;stroke-opacity:1"/>
<path class="bond-7 atom-7 atom-8" d="M 31.3,52.3 L 27.4,59.5" style="fill:none;fill-rule:evenodd;stroke:#FF0000;stroke-width:2.0px;stroke-linecap:butt;stroke-linejoin:miter;stroke-opacity:1"/>
<path class="bond-7 atom-7 atom-8" d="M 37.8,46.4 L 33.9,53.7" style="fill:none;fill-rule:evenodd;stroke:#000000;stroke-width:2.0px;stroke-linecap:butt;stroke-linejoin:miter;stroke-opacity:1"/>
<path class="bond-7 atom-7 atom-8" d="M 33.9,53.7 L 29.9,60.9" style="fill:none;fill-rule:evenodd;stroke:#FF0000;stroke-width:2.0px;stroke-linecap:butt;stroke-linejoin:miter;stroke-opacity:1"/>
<path class="bond-8 atom-7 atom-9" d="M 36.1,46.5 L 32.1,39.9" style="fill:none;fill-rule:evenodd;stroke:#000000;stroke-width:2.0px;stroke-linecap:butt;stroke-linejoin:miter;stroke-opacity:1"/>
<path class="bond-8 atom-7 atom-9" d="M 32.1,39.9 L 28.1,33.3" style="fill:none;fill-rule:evenodd;stroke:#FF0000;stroke-width:2.0px;stroke-linecap:butt;stroke-linejoin:miter;stroke-opacity:1"/>
<path class="bond-9 atom-1 atom-10" d="M 57.5,113.9 L 67.8,130.6" style="fill:none;fill-rule:evenodd;stroke:#000000;stroke-width:2.0px;stroke-linecap:butt;stroke-linejoin:miter;stroke-opacity:1"/>
<path class="bond-9 atom-1 atom-10" d="M 60.9,113.8 L 69.4,127.6" style="fill:none;fill-rule:evenodd;stroke:#000000;stroke-width:2.0px;stroke-linecap:butt;stroke-linejoin:miter;stroke-opacity:1"/>
<path class="bond-10 atom-10 atom-11" d="M 67.8,130.6 L 87.4,130.1" style="fill:none;fill-rule:evenodd;stroke:#000000;stroke-width:2.0px;stroke-linecap:butt;stroke-linejoin:miter;stroke-opacity:1"/>
<path class="bond-11 atom-11 atom-12" d="M 87.4,130.1 L 97.6,146.8" style="fill:none;fill-rule:evenodd;stroke:#000000;stroke-width:2.0px;stroke-linecap:butt;stroke-linejoin:miter;stroke-opacity:1"/>
<path class="bond-11 atom-11 atom-12" d="M 85.7,133.1 L 95.1,148.3" style="fill:none;fill-rule:evenodd;stroke:#000000;stroke-width:2.0px;stroke-linecap:butt;stroke-linejoin:miter;stroke-opacity:1"/>
<path class="bond-12 atom-12 atom-13" d="M 97.6,146.8 L 117.2,146.3" style="fill:none;fill-rule:evenodd;stroke:#000000;stroke-width:2.0px;stroke-linecap:butt;stroke-linejoin:miter;stroke-opacity:1"/>
<path class="bond-13 atom-13 atom-14" d="M 117.2,146.3 L 127.5,163.0" style="fill:none;fill-rule:evenodd;stroke:#000000;stroke-width:2.0px;stroke-linecap:butt;stroke-linejoin:miter;stroke-opacity:1"/>
<path class="bond-13 atom-13 atom-14" d="M 115.6,149.3 L 124.1,163.1" style="fill:none;fill-rule:evenodd;stroke:#000000;stroke-width:2.0px;stroke-linecap:butt;stroke-linejoin:miter;stroke-opacity:1"/>
<path class="bond-14 atom-14 atom-15" d="M 127.5,163.0 L 118.1,180.2" style="fill:none;fill-rule:evenodd;stroke:#000000;stroke-width:2.0px;stroke-linecap:butt;stroke-linejoin:miter;stroke-opacity:1"/>
<path class="bond-15 atom-14 atom-16" d="M 127.5,163.0 L 147.1,162.5" style="fill:none;fill-rule:evenodd;stroke:#000000;stroke-width:2.0px;stroke-linecap:butt;stroke-linejoin:miter;stroke-opacity:1"/>
<path class="bond-16 atom-16 atom-17" d="M 147.1,162.5 L 156.4,145.3" style="fill:none;fill-rule:evenodd;stroke:#000000;stroke-width:2.0px;stroke-linecap:butt;stroke-linejoin:miter;stroke-opacity:1"/>
<path class="bond-16 atom-16 atom-17" d="M 145.3,159.6 L 153.8,143.9" style="fill:none;fill-rule:evenodd;stroke:#000000;stroke-width:2.0px;stroke-linecap:butt;stroke-linejoin:miter;stroke-opacity:1"/>
<path class="bond-17 atom-17 atom-18" d="M 156.4,145.3 L 176.0,144.7" style="fill:none;fill-rule:evenodd;stroke:#000000;stroke-width:2.0px;stroke-linecap:butt;stroke-linejoin:miter;stroke-opacity:1"/>
<path class="bond-18 atom-18 atom-19" d="M 176.0,144.7 L 185.4,127.5" style="fill:none;fill-rule:evenodd;stroke:#000000;stroke-width:2.0px;stroke-linecap:butt;stroke-linejoin:miter;stroke-opacity:1"/>
<path class="bond-18 atom-18 atom-19" d="M 174.2,141.8 L 182.0,127.6" style="fill:none;fill-rule:evenodd;stroke:#000000;stroke-width:2.0px;stroke-linecap:butt;stroke-linejoin:miter;stroke-opacity:1"/>
<path class="bond-19 atom-19 atom-20" d="M 185.4,127.5 L 175.1,110.8" style="fill:none;fill-rule:evenodd;stroke:#000000;stroke-width:2.0px;stroke-linecap:butt;stroke-linejoin:miter;stroke-opacity:1"/>
<path class="bond-20 atom-19 atom-21" d="M 185.4,127.5 L 205.0,127.0" style="fill:none;fill-rule:evenodd;stroke:#000000;stroke-width:2.0px;stroke-linecap:butt;stroke-linejoin:miter;stroke-opacity:1"/>
<path class="bond-21 atom-21 atom-22" d="M 205.9,128.4 L 209.8,121.2" style="fill:none;fill-rule:evenodd;stroke:#000000;stroke-width:2.0px;stroke-linecap:butt;stroke-linejoin:miter;stroke-opacity:1"/>
<path class="bond-21 atom-21 atom-22" d="M 209.8,121.2 L 213.7,114.0" style="fill:none;fill-rule:evenodd;stroke:#FF0000;stroke-width:2.0px;stroke-linecap:butt;stroke-linejoin:miter;stroke-opacity:1"/>
<path class="bond-21 atom-21 atom-22" d="M 203.3,127.0 L 207.2,119.8" style="fill:none;fill-rule:evenodd;stroke:#000000;stroke-width:2.0px;stroke-linecap:butt;stroke-linejoin:miter;stroke-opacity:1"/>
<path class="bond-21 atom-21 atom-22" d="M 207.2,119.8 L 211.1,112.6" style="fill:none;fill-rule:evenodd;stroke:#FF0000;stroke-width:2.0px;stroke-linecap:butt;stroke-linejoin:miter;stroke-opacity:1"/>
<path class="bond-22 atom-21 atom-23" d="M 205.0,127.0 L 209.1,133.6" style="fill:none;fill-rule:evenodd;stroke:#000000;stroke-width:2.0px;stroke-linecap:butt;stroke-linejoin:miter;stroke-opacity:1"/>
<path class="bond-22 atom-21 atom-23" d="M 209.1,133.6 L 213.1,140.3" style="fill:none;fill-rule:evenodd;stroke:#FF0000;stroke-width:2.0px;stroke-linecap:butt;stroke-linejoin:miter;stroke-opacity:1"/>
<path class="bond-23 atom-23 atom-24" d="M 218.4,143.6 L 226.6,143.4" style="fill:none;fill-rule:evenodd;stroke:#FF0000;stroke-width:2.0px;stroke-linecap:butt;stroke-linejoin:miter;stroke-opacity:1"/>
<path class="bond-23 atom-23 atom-24" d="M 226.6,143.4 L 234.8,143.2" style="fill:none;fill-rule:evenodd;stroke:#000000;stroke-width:2.0px;stroke-linecap:butt;stroke-linejoin:miter;stroke-opacity:1"/>
<path class="bond-24 atom-24 atom-25" d="M 234.8,143.2 L 238.6,136.4" style="fill:none;fill-rule:evenodd;stroke:#000000;stroke-width:2.0px;stroke-linecap:butt;stroke-linejoin:miter;stroke-opacity:1"/>
<path class="bond-24 atom-24 atom-25" d="M 238.6,136.4 L 242.3,129.5" style="fill:none;fill-rule:evenodd;stroke:#FF0000;stroke-width:2.0px;stroke-linecap:butt;stroke-linejoin:miter;stroke-opacity:1"/>
<path class="bond-25 atom-25 atom-26" d="M 247.4,125.9 L 255.6,125.7" style="fill:none;fill-rule:evenodd;stroke:#FF0000;stroke-width:2.0px;stroke-linecap:butt;stroke-linejoin:miter;stroke-opacity:1"/>
<path class="bond-25 atom-25 atom-26" d="M 255.6,125.7 L 263.8,125.5" style="fill:none;fill-rule:evenodd;stroke:#000000;stroke-width:2.0px;stroke-linecap:butt;stroke-linejoin:miter;stroke-opacity:1"/>
<path class="bond-26 atom-26 atom-27" d="M 263.8,125.5 L 273.2,108.2" style="fill:none;fill-rule:evenodd;stroke:#000000;stroke-width:2.0px;stroke-linecap:butt;stroke-linejoin:miter;stroke-opacity:1"/>
<path class="bond-27 atom-27 atom-28" d="M 273.2,108.2 L 269.1,101.6" style="fill:none;fill-rule:evenodd;stroke:#000000;stroke-width:2.0px;stroke-linecap:butt;stroke-linejoin:miter;stroke-opacity:1"/>
<path class="bond-27 atom-27 atom-28" d="M 269.1,101.6 L 265.1,95.0" style="fill:none;fill-rule:evenodd;stroke:#FF0000;stroke-width:2.0px;stroke-linecap:butt;stroke-linejoin:miter;stroke-opacity:1"/>
<path class="bond-28 atom-28 atom-29" d="M 264.8,88.1 L 268.5,81.2" style="fill:none;fill-rule:evenodd;stroke:#FF0000;stroke-width:2.0px;stroke-linecap:butt;stroke-linejoin:miter;stroke-opacity:1"/>
<path class="bond-28 atom-28 atom-29" d="M 268.5,81.2 L 272.3,74.3" style="fill:none;fill-rule:evenodd;stroke:#000000;stroke-width:2.0px;stroke-linecap:butt;stroke-linejoin:miter;stroke-opacity:1"/>
<path class="bond-29 atom-29 atom-30" d="M 272.3,74.3 L 280.5,74.1" style="fill:none;fill-rule:evenodd;stroke:#000000;stroke-width:2.0px;stroke-linecap:butt;stroke-linejoin:miter;stroke-opacity:1"/>
<path class="bond-29 atom-29 atom-30" d="M 280.5,74.1 L 288.7,73.8" style="fill:none;fill-rule:evenodd;stroke:#FF0000;stroke-width:2.0px;stroke-linecap:butt;stroke-linejoin:miter;stroke-opacity:1"/>
<path class="bond-30 atom-30 atom-31" d="M 293.8,70.3 L 297.5,63.4" style="fill:none;fill-rule:evenodd;stroke:#FF0000;stroke-width:2.0px;stroke-linecap:butt;stroke-linejoin:miter;stroke-opacity:1"/>
<path class="bond-30 atom-30 atom-31" d="M 297.5,63.4 L 301.2,56.5" style="fill:none;fill-rule:evenodd;stroke:#000000;stroke-width:2.0px;stroke-linecap:butt;stroke-linejoin:miter;stroke-opacity:1"/>
<path class="bond-31 atom-31 atom-32" d="M 301.2,56.5 L 320.8,56.0" style="fill:none;fill-rule:evenodd;stroke:#000000;stroke-width:2.0px;stroke-linecap:butt;stroke-linejoin:miter;stroke-opacity:1"/>
<path class="bond-32 atom-32 atom-33" d="M 320.8,56.0 L 324.9,62.6" style="fill:none;fill-rule:evenodd;stroke:#000000;stroke-width:2.0px;stroke-linecap:butt;stroke-linejoin:miter;stroke-opacity:1"/>
<path class="bond-32 atom-32 atom-33" d="M 324.9,62.6 L 329.0,69.3" style="fill:none;fill-rule:evenodd;stroke:#FF0000;stroke-width:2.0px;stroke-linecap:butt;stroke-linejoin:miter;stroke-opacity:1"/>
<path class="bond-33 atom-31 atom-34" d="M 301.2,56.5 L 291.0,39.8" style="fill:none;fill-rule:evenodd;stroke:#000000;stroke-width:2.0px;stroke-linecap:butt;stroke-linejoin:miter;stroke-opacity:1"/>
<path class="bond-34 atom-34 atom-35" d="M 291.0,39.8 L 294.7,33.0" style="fill:none;fill-rule:evenodd;stroke:#000000;stroke-width:2.0px;stroke-linecap:butt;stroke-linejoin:miter;stroke-opacity:1"/>
<path class="bond-34 atom-34 atom-35" d="M 294.7,33.0 L 298.4,26.1" style="fill:none;fill-rule:evenodd;stroke:#FF0000;stroke-width:2.0px;stroke-linecap:butt;stroke-linejoin:miter;stroke-opacity:1"/>
<path class="bond-35 atom-34 atom-36" d="M 291.0,39.8 L 271.4,40.3" style="fill:none;fill-rule:evenodd;stroke:#000000;stroke-width:2.0px;stroke-linecap:butt;stroke-linejoin:miter;stroke-opacity:1"/>
<path class="bond-36 atom-36 atom-37" d="M 271.4,40.3 L 267.4,33.7" style="fill:none;fill-rule:evenodd;stroke:#000000;stroke-width:2.0px;stroke-linecap:butt;stroke-linejoin:miter;stroke-opacity:1"/>
<path class="bond-36 atom-36 atom-37" d="M 267.4,33.7 L 263.3,27.1" style="fill:none;fill-rule:evenodd;stroke:#FF0000;stroke-width:2.0px;stroke-linecap:butt;stroke-linejoin:miter;stroke-opacity:1"/>
<path class="bond-37 atom-36 atom-38" d="M 271.4,40.3 L 262.0,57.6" style="fill:none;fill-rule:evenodd;stroke:#000000;stroke-width:2.0px;stroke-linecap:butt;stroke-linejoin:miter;stroke-opacity:1"/>
<path class="bond-38 atom-38 atom-39" d="M 262.0,57.6 L 253.8,57.8" style="fill:none;fill-rule:evenodd;stroke:#000000;stroke-width:2.0px;stroke-linecap:butt;stroke-linejoin:miter;stroke-opacity:1"/>
<path class="bond-38 atom-38 atom-39" d="M 253.8,57.8 L 245.6,58.0" style="fill:none;fill-rule:evenodd;stroke:#FF0000;stroke-width:2.0px;stroke-linecap:butt;stroke-linejoin:miter;stroke-opacity:1"/>
<path class="bond-39 atom-26 atom-40" d="M 263.8,125.5 L 274.0,142.2" style="fill:none;fill-rule:evenodd;stroke:#000000;stroke-width:2.0px;stroke-linecap:butt;stroke-linejoin:miter;stroke-opacity:1"/>
<path class="bond-40 atom-40 atom-41" d="M 274.0,142.2 L 282.3,142.0" style="fill:none;fill-rule:evenodd;stroke:#000000;stroke-width:2.0px;stroke-linecap:butt;stroke-linejoin:miter;stroke-opacity:1"/>
<path class="bond-40 atom-40 atom-41" d="M 282.3,142.0 L 290.5,141.8" style="fill:none;fill-rule:evenodd;stroke:#FF0000;stroke-width:2.0px;stroke-linecap:butt;stroke-linejoin:miter;stroke-opacity:1"/>
<path class="bond-41 atom-40 atom-42" d="M 274.0,142.2 L 264.7,159.4" style="fill:none;fill-rule:evenodd;stroke:#000000;stroke-width:2.0px;stroke-linecap:butt;stroke-linejoin:miter;stroke-opacity:1"/>
<path class="bond-42 atom-42 atom-43" d="M 264.7,159.4 L 268.8,166.1" style="fill:none;fill-rule:evenodd;stroke:#000000;stroke-width:2.0px;stroke-linecap:butt;stroke-linejoin:miter;stroke-opacity:1"/>
<path class="bond-42 atom-42 atom-43" d="M 268.8,166.1 L 272.8,172.7" style="fill:none;fill-rule:evenodd;stroke:#FF0000;stroke-width:2.0px;stroke-linecap:butt;stroke-linejoin:miter;stroke-opacity:1"/>
<path class="bond-43 atom-42 atom-44" d="M 264.7,159.4 L 245.1,159.9" style="fill:none;fill-rule:evenodd;stroke:#000000;stroke-width:2.0px;stroke-linecap:butt;stroke-linejoin:miter;stroke-opacity:1"/>
<path class="bond-44 atom-44 atom-45" d="M 245.1,159.9 L 241.3,166.8" style="fill:none;fill-rule:evenodd;stroke:#000000;stroke-width:2.0px;stroke-linecap:butt;stroke-linejoin:miter;stroke-opacity:1"/>
<path class="bond-44 atom-44 atom-45" d="M 241.3,166.8 L 237.6,173.7" style="fill:none;fill-rule:evenodd;stroke:#FF0000;stroke-width:2.0px;stroke-linecap:butt;stroke-linejoin:miter;stroke-opacity:1"/>
<path class="bond-45 atom-44 atom-24" d="M 245.1,159.9 L 234.8,143.2" style="fill:none;fill-rule:evenodd;stroke:#000000;stroke-width:2.0px;stroke-linecap:butt;stroke-linejoin:miter;stroke-opacity:1"/>
<path class="bond-46 atom-38 atom-29" d="M 262.0,57.6 L 272.3,74.3" style="fill:none;fill-rule:evenodd;stroke:#000000;stroke-width:2.0px;stroke-linecap:butt;stroke-linejoin:miter;stroke-opacity:1"/>
<path d="M 66.4,97.5 L 66.9,96.6 L 66.4,95.8" style="fill:none;stroke:#000000;stroke-width:2.0px;stroke-linecap:butt;stroke-linejoin:miter;stroke-opacity:1;"/>
<path d="M 57.1,80.7 L 56.6,79.9 L 57.1,79.0" style="fill:none;stroke:#000000;stroke-width:2.0px;stroke-linecap:butt;stroke-linejoin:miter;stroke-opacity:1;"/>
<path d="M 65.5,63.5 L 66.0,62.7 L 65.5,61.8" style="fill:none;stroke:#000000;stroke-width:2.0px;stroke-linecap:butt;stroke-linejoin:miter;stroke-opacity:1;"/>
<path d="M 37.1,46.4 L 36.1,46.5 L 35.9,46.1" style="fill:none;stroke:#000000;stroke-width:2.0px;stroke-linecap:butt;stroke-linejoin:miter;stroke-opacity:1;"/>
<path d="M 67.2,129.7 L 67.8,130.6 L 68.7,130.6" style="fill:none;stroke:#000000;stroke-width:2.0px;stroke-linecap:butt;stroke-linejoin:miter;stroke-opacity:1;"/>
<path d="M 86.4,130.1 L 87.4,130.1 L 87.9,130.9" style="fill:none;stroke:#000000;stroke-width:2.0px;stroke-linecap:butt;stroke-linejoin:miter;stroke-opacity:1;"/>
<path d="M 97.1,146.0 L 97.6,146.8 L 98.6,146.8" style="fill:none;stroke:#000000;stroke-width:2.0px;stroke-linecap:butt;stroke-linejoin:miter;stroke-opacity:1;"/>
<path d="M 116.2,146.3 L 117.2,146.3 L 117.7,147.1" style="fill:none;stroke:#000000;stroke-width:2.0px;stroke-linecap:butt;stroke-linejoin:miter;stroke-opacity:1;"/>
<path d="M 146.1,162.5 L 147.1,162.5 L 147.5,161.6" style="fill:none;stroke:#000000;stroke-width:2.0px;stroke-linecap:butt;stroke-linejoin:miter;stroke-opacity:1;"/>
<path d="M 156.0,146.1 L 156.4,145.3 L 157.4,145.2" style="fill:none;stroke:#000000;stroke-width:2.0px;stroke-linecap:butt;stroke-linejoin:miter;stroke-opacity:1;"/>
<path d="M 175.0,144.8 L 176.0,144.7 L 176.5,143.9" style="fill:none;stroke:#000000;stroke-width:2.0px;stroke-linecap:butt;stroke-linejoin:miter;stroke-opacity:1;"/>
<path d="M 204.0,127.0 L 205.0,127.0 L 205.2,127.3" style="fill:none;stroke:#000000;stroke-width:2.0px;stroke-linecap:butt;stroke-linejoin:miter;stroke-opacity:1;"/>
<path d="M 272.7,109.1 L 273.2,108.2 L 273.0,107.9" style="fill:none;stroke:#000000;stroke-width:2.0px;stroke-linecap:butt;stroke-linejoin:miter;stroke-opacity:1;"/>
<path d="M 319.9,56.0 L 320.8,56.0 L 321.0,56.3" style="fill:none;stroke:#000000;stroke-width:2.0px;stroke-linecap:butt;stroke-linejoin:miter;stroke-opacity:1;"/>
<path class="atom-8" d="M 24.2 63.7 Q 24.2 62.4, 24.9 61.6 Q 25.5 60.9, 26.8 60.9 Q 28.0 60.9, 28.7 61.6 Q 29.3 62.4, 29.3 63.7 Q 29.3 65.1, 28.7 65.8 Q 28.0 66.6, 26.8 66.6 Q 25.5 66.6, 24.9 65.8 Q 24.2 65.1, 24.2 63.7 M 26.8 66.0 Q 27.6 66.0, 28.1 65.4 Q 28.5 64.8, 28.5 63.7 Q 28.5 62.6, 28.1 62.1 Q 27.6 61.5, 26.8 61.5 Q 25.9 61.5, 25.5 62.1 Q 25.0 62.6, 25.0 63.7 Q 25.0 64.8, 25.5 65.4 Q 25.9 66.0, 26.8 66.0 " fill="#FF0000"/>
<path class="atom-9" d="M 17.9 27.0 L 18.6 27.0 L 18.6 29.4 L 21.4 29.4 L 21.4 27.0 L 22.2 27.0 L 22.2 32.5 L 21.4 32.5 L 21.4 30.0 L 18.6 30.0 L 18.6 32.5 L 17.9 32.5 L 17.9 27.0 " fill="#FF0000"/>
<path class="atom-9" d="M 23.3 29.8 Q 23.3 28.4, 24.0 27.7 Q 24.7 26.9, 25.9 26.9 Q 27.1 26.9, 27.8 27.7 Q 28.4 28.4, 28.4 29.8 Q 28.4 31.1, 27.8 31.9 Q 27.1 32.6, 25.9 32.6 Q 24.7 32.6, 24.0 31.9 Q 23.3 31.1, 23.3 29.8 M 25.9 32.0 Q 26.7 32.0, 27.2 31.4 Q 27.6 30.9, 27.6 29.8 Q 27.6 28.7, 27.2 28.1 Q 26.7 27.6, 25.9 27.6 Q 25.0 27.6, 24.6 28.1 Q 24.1 28.7, 24.1 29.8 Q 24.1 30.9, 24.6 31.4 Q 25.0 32.0, 25.9 32.0 " fill="#FF0000"/>
<path class="atom-22" d="M 211.8 109.8 Q 211.8 108.4, 212.5 107.7 Q 213.1 107.0, 214.3 107.0 Q 215.6 107.0, 216.2 107.7 Q 216.9 108.4, 216.9 109.8 Q 216.9 111.1, 216.2 111.9 Q 215.6 112.7, 214.3 112.7 Q 213.1 112.7, 212.5 111.9 Q 211.8 111.1, 211.8 109.8 M 214.3 112.0 Q 215.2 112.0, 215.6 111.5 Q 216.1 110.9, 216.1 109.8 Q 216.1 108.7, 215.6 108.1 Q 215.2 107.6, 214.3 107.6 Q 213.5 107.6, 213.0 108.1 Q 212.6 108.7, 212.6 109.8 Q 212.6 110.9, 213.0 111.5 Q 213.5 112.0, 214.3 112.0 " fill="#FF0000"/>
<path class="atom-23" d="M 212.7 143.7 Q 212.7 142.4, 213.3 141.7 Q 214.0 140.9, 215.2 140.9 Q 216.5 140.9, 217.1 141.7 Q 217.8 142.4, 217.8 143.7 Q 217.8 145.1, 217.1 145.9 Q 216.4 146.6, 215.2 146.6 Q 214.0 146.6, 213.3 145.9 Q 212.7 145.1, 212.7 143.7 M 215.2 146.0 Q 216.1 146.0, 216.5 145.4 Q 217.0 144.9, 217.0 143.7 Q 217.0 142.6, 216.5 142.1 Q 216.1 141.5, 215.2 141.5 Q 214.4 141.5, 213.9 142.1 Q 213.5 142.6, 213.5 143.7 Q 213.5 144.9, 213.9 145.4 Q 214.4 146.0, 215.2 146.0 " fill="#FF0000"/>
<path class="atom-25" d="M 241.6 126.0 Q 241.6 124.7, 242.3 123.9 Q 243.0 123.2, 244.2 123.2 Q 245.4 123.2, 246.1 123.9 Q 246.7 124.7, 246.7 126.0 Q 246.7 127.3, 246.1 128.1 Q 245.4 128.9, 244.2 128.9 Q 243.0 128.9, 242.3 128.1 Q 241.6 127.3, 241.6 126.0 M 244.2 128.2 Q 245.0 128.2, 245.5 127.7 Q 246.0 127.1, 246.0 126.0 Q 246.0 124.9, 245.5 124.4 Q 245.0 123.8, 244.2 123.8 Q 243.4 123.8, 242.9 124.3 Q 242.4 124.9, 242.4 126.0 Q 242.4 127.1, 242.9 127.7 Q 243.4 128.2, 244.2 128.2 " fill="#FF0000"/>
<path class="atom-28" d="M 260.4 91.5 Q 260.4 90.2, 261.0 89.4 Q 261.7 88.7, 262.9 88.7 Q 264.1 88.7, 264.8 89.4 Q 265.5 90.2, 265.5 91.5 Q 265.5 92.9, 264.8 93.6 Q 264.1 94.4, 262.9 94.4 Q 261.7 94.4, 261.0 93.6 Q 260.4 92.9, 260.4 91.5 M 262.9 93.8 Q 263.8 93.8, 264.2 93.2 Q 264.7 92.6, 264.7 91.5 Q 264.7 90.4, 264.2 89.9 Q 263.8 89.3, 262.9 89.3 Q 262.1 89.3, 261.6 89.9 Q 261.2 90.4, 261.2 91.5 Q 261.2 92.6, 261.6 93.2 Q 262.1 93.8, 262.9 93.8 " fill="#FF0000"/>
<path class="atom-30" d="M 289.3 73.8 Q 289.3 72.4, 290.0 71.7 Q 290.6 71.0, 291.9 71.0 Q 293.1 71.0, 293.8 71.7 Q 294.4 72.4, 294.4 73.8 Q 294.4 75.1, 293.8 75.9 Q 293.1 76.7, 291.9 76.7 Q 290.7 76.7, 290.0 75.9 Q 289.3 75.1, 289.3 73.8 M 291.9 76.0 Q 292.7 76.0, 293.2 75.5 Q 293.6 74.9, 293.6 73.8 Q 293.6 72.7, 293.2 72.1 Q 292.7 71.6, 291.9 71.6 Q 291.0 71.6, 290.6 72.1 Q 290.1 72.7, 290.1 73.8 Q 290.1 74.9, 290.6 75.5 Q 291.0 76.0, 291.9 76.0 " fill="#FF0000"/>
<path class="atom-33" d="M 328.5 72.8 Q 328.5 71.4, 329.2 70.7 Q 329.9 69.9, 331.1 69.9 Q 332.3 69.9, 333.0 70.7 Q 333.6 71.4, 333.6 72.8 Q 333.6 74.1, 333.0 74.9 Q 332.3 75.6, 331.1 75.6 Q 329.9 75.6, 329.2 74.9 Q 328.5 74.1, 328.5 72.8 M 331.1 75.0 Q 331.9 75.0, 332.4 74.4 Q 332.9 73.9, 332.9 72.8 Q 332.9 71.7, 332.4 71.1 Q 331.9 70.6, 331.1 70.6 Q 330.2 70.6, 329.8 71.1 Q 329.3 71.7, 329.3 72.8 Q 329.3 73.9, 329.8 74.4 Q 330.2 75.0, 331.1 75.0 " fill="#FF0000"/>
<path class="atom-33" d="M 334.5 70.0 L 335.3 70.0 L 335.3 72.4 L 338.1 72.4 L 338.1 70.0 L 338.8 70.0 L 338.8 75.5 L 338.1 75.5 L 338.1 73.0 L 335.3 73.0 L 335.3 75.5 L 334.5 75.5 L 334.5 70.0 " fill="#FF0000"/>
<path class="atom-35" d="M 297.8 22.6 Q 297.8 21.3, 298.5 20.5 Q 299.1 19.8, 300.4 19.8 Q 301.6 19.8, 302.2 20.5 Q 302.9 21.3, 302.9 22.6 Q 302.9 23.9, 302.2 24.7 Q 301.6 25.5, 300.4 25.5 Q 299.1 25.5, 298.5 24.7 Q 297.8 23.9, 297.8 22.6 M 300.4 24.8 Q 301.2 24.8, 301.7 24.3 Q 302.1 23.7, 302.1 22.6 Q 302.1 21.5, 301.7 20.9 Q 301.2 20.4, 300.4 20.4 Q 299.5 20.4, 299.0 20.9 Q 298.6 21.5, 298.6 22.6 Q 298.6 23.7, 299.0 24.3 Q 299.5 24.8, 300.4 24.8 " fill="#FF0000"/>
<path class="atom-35" d="M 303.8 19.8 L 304.5 19.8 L 304.5 22.2 L 307.4 22.2 L 307.4 19.8 L 308.1 19.8 L 308.1 25.4 L 307.4 25.4 L 307.4 22.8 L 304.5 22.8 L 304.5 25.4 L 303.8 25.4 L 303.8 19.8 " fill="#FF0000"/>
<path class="atom-37" d="M 253.1 20.8 L 253.9 20.8 L 253.9 23.2 L 256.7 23.2 L 256.7 20.8 L 257.5 20.8 L 257.5 26.4 L 256.7 26.4 L 256.7 23.8 L 253.9 23.8 L 253.9 26.4 L 253.1 26.4 L 253.1 20.8 " fill="#FF0000"/>
<path class="atom-37" d="M 258.6 23.6 Q 258.6 22.3, 259.3 21.5 Q 259.9 20.8, 261.1 20.8 Q 262.4 20.8, 263.0 21.5 Q 263.7 22.3, 263.7 23.6 Q 263.7 25.0, 263.0 25.7 Q 262.4 26.5, 261.1 26.5 Q 259.9 26.5, 259.3 25.7 Q 258.6 25.0, 258.6 23.6 M 261.1 25.9 Q 262.0 25.9, 262.4 25.3 Q 262.9 24.7, 262.9 23.6 Q 262.9 22.5, 262.4 22.0 Q 262.0 21.4, 261.1 21.4 Q 260.3 21.4, 259.8 22.0 Q 259.4 22.5, 259.4 23.6 Q 259.4 24.7, 259.8 25.3 Q 260.3 25.9, 261.1 25.9 " fill="#FF0000"/>
<path class="atom-39" d="M 234.4 55.3 L 235.1 55.3 L 235.1 57.7 L 238.0 57.7 L 238.0 55.3 L 238.7 55.3 L 238.7 60.9 L 238.0 60.9 L 238.0 58.3 L 235.1 58.3 L 235.1 60.9 L 234.4 60.9 L 234.4 55.3 " fill="#FF0000"/>
<path class="atom-39" d="M 239.9 58.1 Q 239.9 56.7, 240.5 56.0 Q 241.2 55.3, 242.4 55.3 Q 243.7 55.3, 244.3 56.0 Q 245.0 56.7, 245.0 58.1 Q 245.0 59.4, 244.3 60.2 Q 243.6 61.0, 242.4 61.0 Q 241.2 61.0, 240.5 60.2 Q 239.9 59.4, 239.9 58.1 M 242.4 60.3 Q 243.3 60.3, 243.7 59.8 Q 244.2 59.2, 244.2 58.1 Q 244.2 57.0, 243.7 56.4 Q 243.3 55.9, 242.4 55.9 Q 241.6 55.9, 241.1 56.4 Q 240.7 57.0, 240.7 58.1 Q 240.7 59.2, 241.1 59.8 Q 241.6 60.3, 242.4 60.3 " fill="#FF0000"/>
<path class="atom-41" d="M 291.1 141.7 Q 291.1 140.4, 291.8 139.6 Q 292.4 138.9, 293.7 138.9 Q 294.9 138.9, 295.5 139.6 Q 296.2 140.4, 296.2 141.7 Q 296.2 143.0, 295.5 143.8 Q 294.9 144.6, 293.7 144.6 Q 292.4 144.6, 291.8 143.8 Q 291.1 143.0, 291.1 141.7 M 293.7 143.9 Q 294.5 143.9, 295.0 143.4 Q 295.4 142.8, 295.4 141.7 Q 295.4 140.6, 295.0 140.1 Q 294.5 139.5, 293.7 139.5 Q 292.8 139.5, 292.3 140.0 Q 291.9 140.6, 291.9 141.7 Q 291.9 142.8, 292.3 143.4 Q 292.8 143.9, 293.7 143.9 " fill="#FF0000"/>
<path class="atom-41" d="M 297.1 138.9 L 297.8 138.9 L 297.8 141.3 L 300.7 141.3 L 300.7 138.9 L 301.4 138.9 L 301.4 144.5 L 300.7 144.5 L 300.7 141.9 L 297.8 141.9 L 297.8 144.5 L 297.1 144.5 L 297.1 138.9 " fill="#FF0000"/>
<path class="atom-43" d="M 272.4 176.2 Q 272.4 174.8, 273.0 174.1 Q 273.7 173.3, 274.9 173.3 Q 276.2 173.3, 276.8 174.1 Q 277.5 174.8, 277.5 176.2 Q 277.5 177.5, 276.8 178.3 Q 276.2 179.0, 274.9 179.0 Q 273.7 179.0, 273.0 178.3 Q 272.4 177.5, 272.4 176.2 M 274.9 178.4 Q 275.8 178.4, 276.2 177.8 Q 276.7 177.3, 276.7 176.2 Q 276.7 175.1, 276.2 174.5 Q 275.8 174.0, 274.9 174.0 Q 274.1 174.0, 273.6 174.5 Q 273.2 175.1, 273.2 176.2 Q 273.2 177.3, 273.6 177.8 Q 274.1 178.4, 274.9 178.4 " fill="#FF0000"/>
<path class="atom-43" d="M 278.3 173.4 L 279.1 173.4 L 279.1 175.8 L 281.9 175.8 L 281.9 173.4 L 282.7 173.4 L 282.7 179.0 L 281.9 179.0 L 281.9 176.4 L 279.1 176.4 L 279.1 179.0 L 278.3 179.0 L 278.3 173.4 " fill="#FF0000"/>
<path class="atom-45" d="M 227.7 174.4 L 228.4 174.4 L 228.4 176.8 L 231.3 176.8 L 231.3 174.4 L 232.0 174.4 L 232.0 180.0 L 231.3 180.0 L 231.3 177.4 L 228.4 177.4 L 228.4 180.0 L 227.7 180.0 L 227.7 174.4 " fill="#FF0000"/>
<path class="atom-45" d="M 233.2 177.2 Q 233.2 175.8, 233.8 175.1 Q 234.5 174.4, 235.7 174.4 Q 237.0 174.4, 237.6 175.1 Q 238.3 175.8, 238.3 177.2 Q 238.3 178.5, 237.6 179.3 Q 236.9 180.1, 235.7 180.1 Q 234.5 180.1, 233.8 179.3 Q 233.2 178.5, 233.2 177.2 M 235.7 179.4 Q 236.6 179.4, 237.0 178.9 Q 237.5 178.3, 237.5 177.2 Q 237.5 176.1, 237.0 175.5 Q 236.6 175.0, 235.7 175.0 Q 234.9 175.0, 234.4 175.5 Q 234.0 176.1, 234.0 177.2 Q 234.0 178.3, 234.4 178.9 Q 234.9 179.4, 235.7 179.4 " fill="#FF0000"/>
</g>
    <g transform="translate(1106.0, 0) scale(1 1) "><line x1="15" y1="100" x2="25" y2="100" style="stroke:rgb(0,0,0);stroke-width:2"/>
  <line x1="20" y1="95" x2="20" y2="105" style="stroke:rgb(0,0,0);stroke-width:2"/>
</g>
    <g transform="translate(1146.0, 0) scale(1 1) "><!-- END OF HEADER -->
<rect style="opacity:1.0;fill:#FFFFFF;stroke:none" width="304.0" height="200.0" x="0.0" y="0.0"> </rect>
<path class="bond-0 atom-0 atom-1" d="M 279.8,138.1 L 269.2,134.0" style="fill:none;fill-rule:evenodd;stroke:#FF0000;stroke-width:2.0px;stroke-linecap:butt;stroke-linejoin:miter;stroke-opacity:1"/>
<path class="bond-0 atom-0 atom-1" d="M 269.2,134.0 L 258.7,129.9" style="fill:none;fill-rule:evenodd;stroke:#000000;stroke-width:2.0px;stroke-linecap:butt;stroke-linejoin:miter;stroke-opacity:1"/>
<path class="bond-0 atom-0 atom-1" d="M 281.2,134.5 L 270.7,130.3" style="fill:none;fill-rule:evenodd;stroke:#FF0000;stroke-width:2.0px;stroke-linecap:butt;stroke-linejoin:miter;stroke-opacity:1"/>
<path class="bond-0 atom-0 atom-1" d="M 270.7,130.3 L 260.1,126.2" style="fill:none;fill-rule:evenodd;stroke:#000000;stroke-width:2.0px;stroke-linecap:butt;stroke-linejoin:miter;stroke-opacity:1"/>
<path class="bond-1 atom-1 atom-2" d="M 260.4,128.4 L 240.0,144.8" style="fill:none;fill-rule:evenodd;stroke:#000000;stroke-width:2.0px;stroke-linecap:butt;stroke-linejoin:miter;stroke-opacity:1"/>
<path class="bond-2 atom-2 atom-3" d="M 240.0,144.8 L 215.6,135.2" style="fill:none;fill-rule:evenodd;stroke:#000000;stroke-width:2.0px;stroke-linecap:butt;stroke-linejoin:miter;stroke-opacity:1"/>
<path class="bond-2 atom-2 atom-3" d="M 239.3,140.3 L 219.2,132.4" style="fill:none;fill-rule:evenodd;stroke:#000000;stroke-width:2.0px;stroke-linecap:butt;stroke-linejoin:miter;stroke-opacity:1"/>
<path class="bond-3 atom-3 atom-4" d="M 215.6,135.2 L 214.0,124.6" style="fill:none;fill-rule:evenodd;stroke:#000000;stroke-width:2.0px;stroke-linecap:butt;stroke-linejoin:miter;stroke-opacity:1"/>
<path class="bond-3 atom-3 atom-4" d="M 214.0,124.6 L 212.4,113.9" style="fill:none;fill-rule:evenodd;stroke:#0000FF;stroke-width:2.0px;stroke-linecap:butt;stroke-linejoin:miter;stroke-opacity:1"/>
<path class="bond-4 atom-4 atom-5" d="M 208.0,107.9 L 197.7,103.9" style="fill:none;fill-rule:evenodd;stroke:#0000FF;stroke-width:2.0px;stroke-linecap:butt;stroke-linejoin:miter;stroke-opacity:1"/>
<path class="bond-4 atom-4 atom-5" d="M 197.7,103.9 L 187.4,99.8" style="fill:none;fill-rule:evenodd;stroke:#000000;stroke-width:2.0px;stroke-linecap:butt;stroke-linejoin:miter;stroke-opacity:1"/>
<path class="bond-5 atom-5 atom-6" d="M 187.4,99.8 L 178.5,105.5" style="fill:none;fill-rule:evenodd;stroke:#000000;stroke-width:2.0px;stroke-linecap:butt;stroke-linejoin:miter;stroke-opacity:1"/>
<path class="bond-5 atom-5 atom-6" d="M 178.5,105.5 L 169.6,111.2" style="fill:none;fill-rule:evenodd;stroke:#FF0000;stroke-width:2.0px;stroke-linecap:butt;stroke-linejoin:miter;stroke-opacity:1"/>
<path class="bond-6 atom-6 atom-7" d="M 161.0,110.4 L 153.1,103.9" style="fill:none;fill-rule:evenodd;stroke:#FF0000;stroke-width:2.0px;stroke-linecap:butt;stroke-linejoin:miter;stroke-opacity:1"/>
<path class="bond-6 atom-6 atom-7" d="M 153.1,103.9 L 145.1,97.3" style="fill:none;fill-rule:evenodd;stroke:#000000;stroke-width:2.0px;stroke-linecap:butt;stroke-linejoin:miter;stroke-opacity:1"/>
<path class="bond-7 atom-7 atom-8" d="M 145.1,97.3 L 119.8,103.9" style="fill:none;fill-rule:evenodd;stroke:#000000;stroke-width:2.0px;stroke-linecap:butt;stroke-linejoin:miter;stroke-opacity:1"/>
<path class="bond-8 atom-8 atom-9" d="M 119.8,103.9 L 112.7,96.8" style="fill:none;fill-rule:evenodd;stroke:#000000;stroke-width:2.0px;stroke-linecap:butt;stroke-linejoin:miter;stroke-opacity:1"/>
<path class="bond-8 atom-8 atom-9" d="M 112.7,96.8 L 105.7,89.6" style="fill:none;fill-rule:evenodd;stroke:#FF0000;stroke-width:2.0px;stroke-linecap:butt;stroke-linejoin:miter;stroke-opacity:1"/>
<path class="bond-9 atom-9 atom-10" d="M 97.1,86.4 L 88.2,88.7" style="fill:none;fill-rule:evenodd;stroke:#FF0000;stroke-width:2.0px;stroke-linecap:butt;stroke-linejoin:miter;stroke-opacity:1"/>
<path class="bond-9 atom-9 atom-10" d="M 88.2,88.7 L 79.3,91.1" style="fill:none;fill-rule:evenodd;stroke:#FF7F00;stroke-width:2.0px;stroke-linecap:butt;stroke-linejoin:miter;stroke-opacity:1"/>
<path class="bond-10 atom-10 atom-11" d="M 75.4,97.0 L 77.5,105.0" style="fill:none;fill-rule:evenodd;stroke:#FF7F00;stroke-width:2.0px;stroke-linecap:butt;stroke-linejoin:miter;stroke-opacity:1"/>
<path class="bond-10 atom-10 atom-11" d="M 77.5,105.0 L 79.6,113.1" style="fill:none;fill-rule:evenodd;stroke:#FF0000;stroke-width:2.0px;stroke-linecap:butt;stroke-linejoin:miter;stroke-opacity:1"/>
<path class="bond-10 atom-10 atom-11" d="M 79.2,96.0 L 81.3,104.0" style="fill:none;fill-rule:evenodd;stroke:#FF7F00;stroke-width:2.0px;stroke-linecap:butt;stroke-linejoin:miter;stroke-opacity:1"/>
<path class="bond-10 atom-10 atom-11" d="M 81.3,104.0 L 83.4,112.1" style="fill:none;fill-rule:evenodd;stroke:#FF0000;stroke-width:2.0px;stroke-linecap:butt;stroke-linejoin:miter;stroke-opacity:1"/>
<path class="bond-11 atom-10 atom-12" d="M 74.9,87.3 L 72.8,79.3" style="fill:none;fill-rule:evenodd;stroke:#FF7F00;stroke-width:2.0px;stroke-linecap:butt;stroke-linejoin:miter;stroke-opacity:1"/>
<path class="bond-11 atom-10 atom-12" d="M 72.8,79.3 L 70.7,71.3" style="fill:none;fill-rule:evenodd;stroke:#FF0000;stroke-width:2.0px;stroke-linecap:butt;stroke-linejoin:miter;stroke-opacity:1"/>
<path class="bond-12 atom-10 atom-13" d="M 72.9,92.7 L 63.9,95.1" style="fill:none;fill-rule:evenodd;stroke:#FF7F00;stroke-width:2.0px;stroke-linecap:butt;stroke-linejoin:miter;stroke-opacity:1"/>
<path class="bond-12 atom-10 atom-13" d="M 63.9,95.1 L 55.0,97.4" style="fill:none;fill-rule:evenodd;stroke:#FF0000;stroke-width:2.0px;stroke-linecap:butt;stroke-linejoin:miter;stroke-opacity:1"/>
<path class="bond-13 atom-13 atom-14" d="M 49.5,103.2 L 47.3,111.2" style="fill:none;fill-rule:evenodd;stroke:#FF0000;stroke-width:2.0px;stroke-linecap:butt;stroke-linejoin:miter;stroke-opacity:1"/>
<path class="bond-13 atom-13 atom-14" d="M 47.3,111.2 L 45.1,119.2" style="fill:none;fill-rule:evenodd;stroke:#FF7F00;stroke-width:2.0px;stroke-linecap:butt;stroke-linejoin:miter;stroke-opacity:1"/>
<path class="bond-14 atom-14 atom-15" d="M 41.1,121.0 L 32.3,118.5" style="fill:none;fill-rule:evenodd;stroke:#FF7F00;stroke-width:2.0px;stroke-linecap:butt;stroke-linejoin:miter;stroke-opacity:1"/>
<path class="bond-14 atom-14 atom-15" d="M 32.3,118.5 L 23.4,116.1" style="fill:none;fill-rule:evenodd;stroke:#FF0000;stroke-width:2.0px;stroke-linecap:butt;stroke-linejoin:miter;stroke-opacity:1"/>
<path class="bond-14 atom-14 atom-15" d="M 40.1,124.7 L 31.2,122.3" style="fill:none;fill-rule:evenodd;stroke:#FF7F00;stroke-width:2.0px;stroke-linecap:butt;stroke-linejoin:miter;stroke-opacity:1"/>
<path class="bond-14 atom-14 atom-15" d="M 31.2,122.3 L 22.3,119.9" style="fill:none;fill-rule:evenodd;stroke:#FF0000;stroke-width:2.0px;stroke-linecap:butt;stroke-linejoin:miter;stroke-opacity:1"/>
<path class="bond-15 atom-14 atom-16" d="M 47.1,124.6 L 55.9,127.1" style="fill:none;fill-rule:evenodd;stroke:#FF7F00;stroke-width:2.0px;stroke-linecap:butt;stroke-linejoin:miter;stroke-opacity:1"/>
<path class="bond-15 atom-14 atom-16" d="M 55.9,127.1 L 64.8,129.5" style="fill:none;fill-rule:evenodd;stroke:#FF0000;stroke-width:2.0px;stroke-linecap:butt;stroke-linejoin:miter;stroke-opacity:1"/>
<path class="bond-16 atom-14 atom-17" d="M 42.6,128.3 L 40.4,136.3" style="fill:none;fill-rule:evenodd;stroke:#FF7F00;stroke-width:2.0px;stroke-linecap:butt;stroke-linejoin:miter;stroke-opacity:1"/>
<path class="bond-16 atom-14 atom-17" d="M 40.4,136.3 L 38.2,144.3" style="fill:none;fill-rule:evenodd;stroke:#FF0000;stroke-width:2.0px;stroke-linecap:butt;stroke-linejoin:miter;stroke-opacity:1"/>
<path class="bond-17 atom-7 atom-18" d="M 145.1,97.3 L 154.6,73.0" style="fill:none;fill-rule:evenodd;stroke:#000000;stroke-width:2.0px;stroke-linecap:butt;stroke-linejoin:miter;stroke-opacity:1"/>
<path class="bond-18 atom-18 atom-19" d="M 154.6,73.0 L 149.1,64.3" style="fill:none;fill-rule:evenodd;stroke:#000000;stroke-width:2.0px;stroke-linecap:butt;stroke-linejoin:miter;stroke-opacity:1"/>
<path class="bond-18 atom-18 atom-19" d="M 149.1,64.3 L 143.6,55.7" style="fill:none;fill-rule:evenodd;stroke:#FF0000;stroke-width:2.0px;stroke-linecap:butt;stroke-linejoin:miter;stroke-opacity:1"/>
<path class="bond-19 atom-18 atom-20" d="M 154.6,73.0 L 180.7,74.5" style="fill:none;fill-rule:evenodd;stroke:#000000;stroke-width:2.0px;stroke-linecap:butt;stroke-linejoin:miter;stroke-opacity:1"/>
<path class="bond-20 atom-20 atom-21" d="M 180.7,74.5 L 187.1,66.8" style="fill:none;fill-rule:evenodd;stroke:#000000;stroke-width:2.0px;stroke-linecap:butt;stroke-linejoin:miter;stroke-opacity:1"/>
<path class="bond-20 atom-20 atom-21" d="M 187.1,66.8 L 193.5,59.0" style="fill:none;fill-rule:evenodd;stroke:#FF0000;stroke-width:2.0px;stroke-linecap:butt;stroke-linejoin:miter;stroke-opacity:1"/>
<path class="bond-21 atom-4 atom-22" d="M 215.4,106.4 L 223.8,99.7" style="fill:none;fill-rule:evenodd;stroke:#0000FF;stroke-width:2.0px;stroke-linecap:butt;stroke-linejoin:miter;stroke-opacity:1"/>
<path class="bond-21 atom-4 atom-22" d="M 223.8,99.7 L 232.2,93.0" style="fill:none;fill-rule:evenodd;stroke:#000000;stroke-width:2.0px;stroke-linecap:butt;stroke-linejoin:miter;stroke-opacity:1"/>
<path class="bond-22 atom-22 atom-23" d="M 234.3,93.9 L 232.6,82.7" style="fill:none;fill-rule:evenodd;stroke:#000000;stroke-width:2.0px;stroke-linecap:butt;stroke-linejoin:miter;stroke-opacity:1"/>
<path class="bond-22 atom-22 atom-23" d="M 232.6,82.7 L 230.9,71.6" style="fill:none;fill-rule:evenodd;stroke:#FF0000;stroke-width:2.0px;stroke-linecap:butt;stroke-linejoin:miter;stroke-opacity:1"/>
<path class="bond-22 atom-22 atom-23" d="M 230.4,94.4 L 228.7,83.3" style="fill:none;fill-rule:evenodd;stroke:#000000;stroke-width:2.0px;stroke-linecap:butt;stroke-linejoin:miter;stroke-opacity:1"/>
<path class="bond-22 atom-22 atom-23" d="M 228.7,83.3 L 227.0,72.2" style="fill:none;fill-rule:evenodd;stroke:#FF0000;stroke-width:2.0px;stroke-linecap:butt;stroke-linejoin:miter;stroke-opacity:1"/>
<path class="bond-23 atom-22 atom-24" d="M 232.2,93.0 L 242.5,97.1" style="fill:none;fill-rule:evenodd;stroke:#000000;stroke-width:2.0px;stroke-linecap:butt;stroke-linejoin:miter;stroke-opacity:1"/>
<path class="bond-23 atom-22 atom-24" d="M 242.5,97.1 L 252.8,101.1" style="fill:none;fill-rule:evenodd;stroke:#0000FF;stroke-width:2.0px;stroke-linecap:butt;stroke-linejoin:miter;stroke-opacity:1"/>
<path class="bond-24 atom-24 atom-1" d="M 257.2,107.1 L 258.8,117.8" style="fill:none;fill-rule:evenodd;stroke:#0000FF;stroke-width:2.0px;stroke-linecap:butt;stroke-linejoin:miter;stroke-opacity:1"/>
<path class="bond-24 atom-24 atom-1" d="M 258.8,117.8 L 260.4,128.4" style="fill:none;fill-rule:evenodd;stroke:#000000;stroke-width:2.0px;stroke-linecap:butt;stroke-linejoin:miter;stroke-opacity:1"/>
<path class="bond-25 atom-20 atom-5" d="M 180.7,74.5 L 187.4,99.8" style="fill:none;fill-rule:evenodd;stroke:#000000;stroke-width:2.0px;stroke-linecap:butt;stroke-linejoin:miter;stroke-opacity:1"/>
<path d="M 259.4,129.3 L 260.4,128.4 L 260.4,127.9" style="fill:none;stroke:#000000;stroke-width:2.0px;stroke-linecap:butt;stroke-linejoin:miter;stroke-opacity:1;"/>
<path d="M 241.0,144.0 L 240.0,144.8 L 238.8,144.3" style="fill:none;stroke:#000000;stroke-width:2.0px;stroke-linecap:butt;stroke-linejoin:miter;stroke-opacity:1;"/>
<path d="M 216.9,135.7 L 215.6,135.2 L 215.6,134.7" style="fill:none;stroke:#000000;stroke-width:2.0px;stroke-linecap:butt;stroke-linejoin:miter;stroke-opacity:1;"/>
<path d="M 121.0,103.6 L 119.8,103.9 L 119.4,103.6" style="fill:none;stroke:#000000;stroke-width:2.0px;stroke-linecap:butt;stroke-linejoin:miter;stroke-opacity:1;"/>
<path d="M 231.7,93.4 L 232.2,93.0 L 232.7,93.2" style="fill:none;stroke:#000000;stroke-width:2.0px;stroke-linecap:butt;stroke-linejoin:miter;stroke-opacity:1;"/>
<path class="atom-0" d="M 281.4 138.0 Q 281.4 136.2, 282.3 135.2 Q 283.2 134.2, 284.8 134.2 Q 286.4 134.2, 287.3 135.2 Q 288.2 136.2, 288.2 138.0 Q 288.2 139.8, 287.3 140.8 Q 286.4 141.8, 284.8 141.8 Q 283.2 141.8, 282.3 140.8 Q 281.4 139.8, 281.4 138.0 M 284.8 141.0 Q 285.9 141.0, 286.5 140.3 Q 287.2 139.5, 287.2 138.0 Q 287.2 136.5, 286.5 135.8 Q 285.9 135.1, 284.8 135.1 Q 283.7 135.1, 283.1 135.8 Q 282.4 136.5, 282.4 138.0 Q 282.4 139.5, 283.1 140.3 Q 283.7 141.0, 284.8 141.0 " fill="#FF0000"/>
<path class="atom-4" d="M 210.1 105.7 L 212.5 109.6 Q 212.7 110.0, 213.1 110.7 Q 213.5 111.4, 213.5 111.4 L 213.5 105.7 L 214.5 105.7 L 214.5 113.1 L 213.5 113.1 L 210.9 108.8 Q 210.6 108.3, 210.3 107.7 Q 210.0 107.1, 209.9 106.9 L 209.9 113.1 L 208.9 113.1 L 208.9 105.7 L 210.1 105.7 " fill="#0000FF"/>
<path class="atom-6" d="M 161.9 113.9 Q 161.9 112.2, 162.8 111.2 Q 163.7 110.2, 165.3 110.2 Q 167.0 110.2, 167.8 111.2 Q 168.7 112.2, 168.7 113.9 Q 168.7 115.7, 167.8 116.8 Q 166.9 117.8, 165.3 117.8 Q 163.7 117.8, 162.8 116.8 Q 161.9 115.8, 161.9 113.9 M 165.3 117.0 Q 166.4 117.0, 167.1 116.2 Q 167.7 115.4, 167.7 113.9 Q 167.7 112.5, 167.1 111.8 Q 166.4 111.0, 165.3 111.0 Q 164.2 111.0, 163.6 111.7 Q 163.0 112.5, 163.0 113.9 Q 163.0 115.4, 163.6 116.2 Q 164.2 117.0, 165.3 117.0 " fill="#FF0000"/>
<path class="atom-9" d="M 98.0 85.3 Q 98.0 83.5, 98.9 82.6 Q 99.8 81.6, 101.4 81.6 Q 103.0 81.6, 103.9 82.6 Q 104.8 83.5, 104.8 85.3 Q 104.8 87.1, 103.9 88.2 Q 103.0 89.2, 101.4 89.2 Q 99.8 89.2, 98.9 88.2 Q 98.0 87.1, 98.0 85.3 M 101.4 88.3 Q 102.5 88.3, 103.1 87.6 Q 103.8 86.8, 103.8 85.3 Q 103.8 83.9, 103.1 83.1 Q 102.5 82.4, 101.4 82.4 Q 100.3 82.4, 99.7 83.1 Q 99.0 83.9, 99.0 85.3 Q 99.0 86.8, 99.7 87.6 Q 100.3 88.3, 101.4 88.3 " fill="#FF0000"/>
<path class="atom-10" d="M 75.9 88.2 Q 77.2 88.2, 77.8 88.8 Q 78.4 89.3, 78.4 90.4 Q 78.4 91.4, 77.8 92.0 Q 77.1 92.6, 75.9 92.6 L 74.7 92.6 L 74.7 95.6 L 73.7 95.6 L 73.7 88.2 L 75.9 88.2 M 75.9 91.7 Q 76.6 91.7, 77.0 91.4 Q 77.4 91.0, 77.4 90.4 Q 77.4 89.7, 77.0 89.4 Q 76.6 89.0, 75.9 89.0 L 74.7 89.0 L 74.7 91.7 L 75.9 91.7 " fill="#FF7F00"/>
<path class="atom-11" d="M 79.3 117.2 Q 79.3 115.5, 80.2 114.5 Q 81.0 113.5, 82.7 113.5 Q 84.3 113.5, 85.2 114.5 Q 86.1 115.5, 86.1 117.2 Q 86.1 119.0, 85.2 120.1 Q 84.3 121.1, 82.7 121.1 Q 81.1 121.1, 80.2 120.1 Q 79.3 119.1, 79.3 117.2 M 82.7 120.2 Q 83.8 120.2, 84.4 119.5 Q 85.0 118.7, 85.0 117.2 Q 85.0 115.8, 84.4 115.1 Q 83.8 114.3, 82.7 114.3 Q 81.6 114.3, 80.9 115.0 Q 80.3 115.8, 80.3 117.2 Q 80.3 118.7, 80.9 119.5 Q 81.6 120.2, 82.7 120.2 " fill="#FF0000"/>
<path class="atom-12" d="M 66.1 66.6 Q 66.1 64.8, 67.0 63.8 Q 67.8 62.8, 69.5 62.8 Q 71.1 62.8, 72.0 63.8 Q 72.9 64.8, 72.9 66.6 Q 72.9 68.4, 72.0 69.4 Q 71.1 70.5, 69.5 70.5 Q 67.8 70.5, 67.0 69.4 Q 66.1 68.4, 66.1 66.6 M 69.5 69.6 Q 70.6 69.6, 71.2 68.9 Q 71.8 68.1, 71.8 66.6 Q 71.8 65.2, 71.2 64.4 Q 70.6 63.7, 69.5 63.7 Q 68.4 63.7, 67.7 64.4 Q 67.1 65.1, 67.1 66.6 Q 67.1 68.1, 67.7 68.9 Q 68.4 69.6, 69.5 69.6 " fill="#FF0000"/>
<path class="atom-12" d="M 74.0 62.9 L 75.0 62.9 L 75.0 66.1 L 78.8 66.1 L 78.8 62.9 L 79.8 62.9 L 79.8 70.3 L 78.8 70.3 L 78.8 66.9 L 75.0 66.9 L 75.0 70.3 L 74.0 70.3 L 74.0 62.9 " fill="#FF0000"/>
<path class="atom-13" d="M 47.4 98.5 Q 47.4 96.7, 48.2 95.8 Q 49.1 94.8, 50.8 94.8 Q 52.4 94.8, 53.3 95.8 Q 54.2 96.7, 54.2 98.5 Q 54.2 100.3, 53.3 101.4 Q 52.4 102.4, 50.8 102.4 Q 49.1 102.4, 48.2 101.4 Q 47.4 100.3, 47.4 98.5 M 50.8 101.5 Q 51.9 101.5, 52.5 100.8 Q 53.1 100.0, 53.1 98.5 Q 53.1 97.1, 52.5 96.3 Q 51.9 95.6, 50.8 95.6 Q 49.6 95.6, 49.0 96.3 Q 48.4 97.1, 48.4 98.5 Q 48.4 100.0, 49.0 100.8 Q 49.6 101.5, 50.8 101.5 " fill="#FF0000"/>
<path class="atom-14" d="M 43.6 120.0 Q 44.9 120.0, 45.6 120.6 Q 46.2 121.2, 46.2 122.2 Q 46.2 123.2, 45.5 123.8 Q 44.9 124.4, 43.6 124.4 L 42.5 124.4 L 42.5 127.4 L 41.5 127.4 L 41.5 120.0 L 43.6 120.0 M 43.6 123.6 Q 44.4 123.6, 44.8 123.2 Q 45.1 122.9, 45.1 122.2 Q 45.1 121.5, 44.8 121.2 Q 44.4 120.9, 43.6 120.9 L 42.5 120.9 L 42.5 123.6 L 43.6 123.6 " fill="#FF7F00"/>
<path class="atom-15" d="M 15.2 116.8 Q 15.2 115.0, 16.1 114.0 Q 17.0 113.0, 18.6 113.0 Q 20.2 113.0, 21.1 114.0 Q 22.0 115.0, 22.0 116.8 Q 22.0 118.6, 21.1 119.6 Q 20.2 120.7, 18.6 120.7 Q 17.0 120.7, 16.1 119.6 Q 15.2 118.6, 15.2 116.8 M 18.6 119.8 Q 19.7 119.8, 20.3 119.1 Q 21.0 118.3, 21.0 116.8 Q 21.0 115.4, 20.3 114.6 Q 19.7 113.9, 18.6 113.9 Q 17.5 113.9, 16.9 114.6 Q 16.2 115.3, 16.2 116.8 Q 16.2 118.3, 16.9 119.1 Q 17.5 119.8, 18.6 119.8 " fill="#FF0000"/>
<path class="atom-16" d="M 65.7 130.7 Q 65.7 128.9, 66.5 127.9 Q 67.4 126.9, 69.1 126.9 Q 70.7 126.9, 71.6 127.9 Q 72.5 128.9, 72.5 130.7 Q 72.5 132.5, 71.6 133.5 Q 70.7 134.5, 69.1 134.5 Q 67.4 134.5, 66.5 133.5 Q 65.7 132.5, 65.7 130.7 M 69.1 133.7 Q 70.2 133.7, 70.8 132.9 Q 71.4 132.2, 71.4 130.7 Q 71.4 129.2, 70.8 128.5 Q 70.2 127.8, 69.1 127.8 Q 67.9 127.8, 67.3 128.5 Q 66.7 129.2, 66.7 130.7 Q 66.7 132.2, 67.3 132.9 Q 67.9 133.7, 69.1 133.7 " fill="#FF0000"/>
<path class="atom-16" d="M 73.6 127.0 L 74.6 127.0 L 74.6 130.2 L 78.4 130.2 L 78.4 127.0 L 79.4 127.0 L 79.4 134.4 L 78.4 134.4 L 78.4 131.0 L 74.6 131.0 L 74.6 134.4 L 73.6 134.4 L 73.6 127.0 " fill="#FF0000"/>
<path class="atom-17" d="M 33.5 149.0 Q 33.5 147.2, 34.4 146.2 Q 35.2 145.2, 36.9 145.2 Q 38.5 145.2, 39.4 146.2 Q 40.3 147.2, 40.3 149.0 Q 40.3 150.8, 39.4 151.8 Q 38.5 152.8, 36.9 152.8 Q 35.3 152.8, 34.4 151.8 Q 33.5 150.8, 33.5 149.0 M 36.9 152.0 Q 38.0 152.0, 38.6 151.2 Q 39.2 150.5, 39.2 149.0 Q 39.2 147.5, 38.6 146.8 Q 38.0 146.0, 36.9 146.0 Q 35.8 146.0, 35.1 146.8 Q 34.5 147.5, 34.5 149.0 Q 34.5 150.5, 35.1 151.2 Q 35.8 152.0, 36.9 152.0 " fill="#FF0000"/>
<path class="atom-17" d="M 41.4 145.3 L 42.4 145.3 L 42.4 148.4 L 46.2 148.4 L 46.2 145.3 L 47.2 145.3 L 47.2 152.7 L 46.2 152.7 L 46.2 149.3 L 42.4 149.3 L 42.4 152.7 L 41.4 152.7 L 41.4 145.3 " fill="#FF0000"/>
<path class="atom-19" d="M 129.8 47.3 L 130.8 47.3 L 130.8 50.4 L 134.6 50.4 L 134.6 47.3 L 135.6 47.3 L 135.6 54.7 L 134.6 54.7 L 134.6 51.3 L 130.8 51.3 L 130.8 54.7 L 129.8 54.7 L 129.8 47.3 " fill="#FF0000"/>
<path class="atom-19" d="M 137.1 50.9 Q 137.1 49.2, 138.0 48.2 Q 138.9 47.2, 140.5 47.2 Q 142.2 47.2, 143.1 48.2 Q 143.9 49.2, 143.9 50.9 Q 143.9 52.7, 143.0 53.8 Q 142.2 54.8, 140.5 54.8 Q 138.9 54.8, 138.0 53.8 Q 137.1 52.8, 137.1 50.9 M 140.5 54.0 Q 141.7 54.0, 142.3 53.2 Q 142.9 52.4, 142.9 50.9 Q 142.9 49.5, 142.3 48.8 Q 141.7 48.0, 140.5 48.0 Q 139.4 48.0, 138.8 48.7 Q 138.2 49.5, 138.2 50.9 Q 138.2 52.4, 138.8 53.2 Q 139.4 54.0, 140.5 54.0 " fill="#FF0000"/>
<path class="atom-21" d="M 193.9 54.3 Q 193.9 52.5, 194.8 51.5 Q 195.7 50.5, 197.4 50.5 Q 199.0 50.5, 199.9 51.5 Q 200.8 52.5, 200.8 54.3 Q 200.8 56.1, 199.9 57.1 Q 199.0 58.1, 197.4 58.1 Q 195.7 58.1, 194.8 57.1 Q 193.9 56.1, 193.9 54.3 M 197.4 57.3 Q 198.5 57.3, 199.1 56.6 Q 199.7 55.8, 199.7 54.3 Q 199.7 52.9, 199.1 52.1 Q 198.5 51.4, 197.4 51.4 Q 196.2 51.4, 195.6 52.1 Q 195.0 52.8, 195.0 54.3 Q 195.0 55.8, 195.6 56.6 Q 196.2 57.3, 197.4 57.3 " fill="#FF0000"/>
<path class="atom-21" d="M 201.9 50.6 L 202.9 50.6 L 202.9 53.8 L 206.7 53.8 L 206.7 50.6 L 207.7 50.6 L 207.7 58.0 L 206.7 58.0 L 206.7 54.6 L 202.9 54.6 L 202.9 58.0 L 201.9 58.0 L 201.9 50.6 " fill="#FF0000"/>
<path class="atom-23" d="M 224.8 67.2 Q 224.8 65.4, 225.7 64.4 Q 226.6 63.4, 228.2 63.4 Q 229.9 63.4, 230.8 64.4 Q 231.6 65.4, 231.6 67.2 Q 231.6 69.0, 230.7 70.0 Q 229.9 71.0, 228.2 71.0 Q 226.6 71.0, 225.7 70.0 Q 224.8 69.0, 224.8 67.2 M 228.2 70.2 Q 229.4 70.2, 230.0 69.4 Q 230.6 68.7, 230.6 67.2 Q 230.6 65.7, 230.0 65.0 Q 229.4 64.3, 228.2 64.3 Q 227.1 64.3, 226.5 65.0 Q 225.9 65.7, 225.9 67.2 Q 225.9 68.7, 226.5 69.4 Q 227.1 70.2, 228.2 70.2 " fill="#FF0000"/>
<path class="atom-24" d="M 254.9 98.9 L 257.3 102.8 Q 257.5 103.2, 257.9 103.9 Q 258.3 104.6, 258.3 104.6 L 258.3 98.9 L 259.3 98.9 L 259.3 106.3 L 258.3 106.3 L 255.7 102.0 Q 255.4 101.5, 255.1 100.9 Q 254.8 100.3, 254.7 100.2 L 254.7 106.3 L 253.7 106.3 L 253.7 98.9 L 254.9 98.9 " fill="#0000FF"/>
<path class="atom-24" d="M 260.8 98.9 L 261.8 98.9 L 261.8 102.0 L 265.6 102.0 L 265.6 98.9 L 266.6 98.9 L 266.6 106.3 L 265.6 106.3 L 265.6 102.9 L 261.8 102.9 L 261.8 106.3 L 260.8 106.3 L 260.8 98.9 " fill="#0000FF"/>
</g>
  </g>
</svg>
