<?xml version='1.0' encoding='ASCII' standalone='yes'?>
<svg xmlns="http://www.w3.org/2000/svg" xmlns:xlink="http://www.w3.org/1999/xlink" version="1.1" width="1386.0px" viewBox="0 0 1386.0 200.0" height="200.0px">
  <g>
    <g transform="translate(0, 0) scale(1 1) "><!-- END OF HEADER -->
<rect style="opacity:1.0;fill:#FFFFFF;stroke:none" width="361.0" height="200.0" x="0.0" y="0.0"> </rect>
<path class="bond-0 atom-0 atom-1" d="M 162.0,82.3 L 172.2,96.1" style="fill:none;fill-rule:evenodd;stroke:#000000;stroke-width:2.0px;stroke-linecap:butt;stroke-linejoin:miter;stroke-opacity:1"/>
<path class="bond-1 atom-1 atom-2" d="M 172.2,96.1 L 182.4,109.9" style="fill:none;fill-rule:evenodd;stroke:#000000;stroke-width:2.0px;stroke-linecap:butt;stroke-linejoin:miter;stroke-opacity:1"/>
<path class="bond-2 atom-1 atom-3" d="M 172.2,96.1 L 186.0,85.9" style="fill:none;fill-rule:evenodd;stroke:#000000;stroke-width:2.0px;stroke-linecap:butt;stroke-linejoin:miter;stroke-opacity:1"/>
<path class="bond-3 atom-3 atom-4" d="M 186.0,85.9 L 185.2,78.9" style="fill:none;fill-rule:evenodd;stroke:#000000;stroke-width:2.0px;stroke-linecap:butt;stroke-linejoin:miter;stroke-opacity:1"/>
<path class="bond-3 atom-3 atom-4" d="M 185.2,78.9 L 184.5,71.9" style="fill:none;fill-rule:evenodd;stroke:#FF0000;stroke-width:2.0px;stroke-linecap:butt;stroke-linejoin:miter;stroke-opacity:1"/>
<path class="bond-4 atom-4 atom-5" d="M 186.9,66.8 L 191.4,63.5" style="fill:none;fill-rule:evenodd;stroke:#FF0000;stroke-width:2.0px;stroke-linecap:butt;stroke-linejoin:miter;stroke-opacity:1"/>
<path class="bond-4 atom-4 atom-5" d="M 191.4,63.5 L 195.8,60.2" style="fill:none;fill-rule:evenodd;stroke:#FF7F00;stroke-width:2.0px;stroke-linecap:butt;stroke-linejoin:miter;stroke-opacity:1"/>
<path class="bond-5 atom-5 atom-6" d="M 196.9,55.0 L 194.0,51.1" style="fill:none;fill-rule:evenodd;stroke:#FF7F00;stroke-width:2.0px;stroke-linecap:butt;stroke-linejoin:miter;stroke-opacity:1"/>
<path class="bond-5 atom-5 atom-6" d="M 194.0,51.1 L 191.1,47.2" style="fill:none;fill-rule:evenodd;stroke:#FF0000;stroke-width:2.0px;stroke-linecap:butt;stroke-linejoin:miter;stroke-opacity:1"/>
<path class="bond-5 atom-5 atom-6" d="M 194.8,56.5 L 191.9,52.6" style="fill:none;fill-rule:evenodd;stroke:#FF7F00;stroke-width:2.0px;stroke-linecap:butt;stroke-linejoin:miter;stroke-opacity:1"/>
<path class="bond-5 atom-5 atom-6" d="M 191.9,52.6 L 189.0,48.7" style="fill:none;fill-rule:evenodd;stroke:#FF0000;stroke-width:2.0px;stroke-linecap:butt;stroke-linejoin:miter;stroke-opacity:1"/>
<path class="bond-6 atom-5 atom-7" d="M 200.1,61.5 L 203.0,65.5" style="fill:none;fill-rule:evenodd;stroke:#FF7F00;stroke-width:2.0px;stroke-linecap:butt;stroke-linejoin:miter;stroke-opacity:1"/>
<path class="bond-6 atom-5 atom-7" d="M 203.0,65.5 L 205.9,69.5" style="fill:none;fill-rule:evenodd;stroke:#FF0000;stroke-width:2.0px;stroke-linecap:butt;stroke-linejoin:miter;stroke-opacity:1"/>
<path class="bond-7 atom-5 atom-8" d="M 200.1,57.1 L 204.5,53.8" style="fill:none;fill-rule:evenodd;stroke:#FF7F00;stroke-width:2.0px;stroke-linecap:butt;stroke-linejoin:miter;stroke-opacity:1"/>
<path class="bond-7 atom-5 atom-8" d="M 204.5,53.8 L 209.0,50.5" style="fill:none;fill-rule:evenodd;stroke:#FF0000;stroke-width:2.0px;stroke-linecap:butt;stroke-linejoin:miter;stroke-opacity:1"/>
<path class="bond-8 atom-8 atom-9" d="M 214.6,49.7 L 220.0,52.1" style="fill:none;fill-rule:evenodd;stroke:#FF0000;stroke-width:2.0px;stroke-linecap:butt;stroke-linejoin:miter;stroke-opacity:1"/>
<path class="bond-8 atom-8 atom-9" d="M 220.0,52.1 L 225.4,54.4" style="fill:none;fill-rule:evenodd;stroke:#FF7F00;stroke-width:2.0px;stroke-linecap:butt;stroke-linejoin:miter;stroke-opacity:1"/>
<path class="bond-9 atom-9 atom-10" d="M 225.0,57.8 L 222.9,62.7" style="fill:none;fill-rule:evenodd;stroke:#FF7F00;stroke-width:2.0px;stroke-linecap:butt;stroke-linejoin:miter;stroke-opacity:1"/>
<path class="bond-9 atom-9 atom-10" d="M 222.9,62.7 L 220.8,67.5" style="fill:none;fill-rule:evenodd;stroke:#FF0000;stroke-width:2.0px;stroke-linecap:butt;stroke-linejoin:miter;stroke-opacity:1"/>
<path class="bond-9 atom-9 atom-10" d="M 227.4,58.9 L 225.3,63.7" style="fill:none;fill-rule:evenodd;stroke:#FF7F00;stroke-width:2.0px;stroke-linecap:butt;stroke-linejoin:miter;stroke-opacity:1"/>
<path class="bond-9 atom-9 atom-10" d="M 225.3,63.7 L 223.1,68.6" style="fill:none;fill-rule:evenodd;stroke:#FF0000;stroke-width:2.0px;stroke-linecap:butt;stroke-linejoin:miter;stroke-opacity:1"/>
<path class="bond-10 atom-9 atom-11" d="M 228.8,52.4 L 230.9,47.5" style="fill:none;fill-rule:evenodd;stroke:#FF7F00;stroke-width:2.0px;stroke-linecap:butt;stroke-linejoin:miter;stroke-opacity:1"/>
<path class="bond-10 atom-9 atom-11" d="M 230.9,47.5 L 233.0,42.7" style="fill:none;fill-rule:evenodd;stroke:#FF0000;stroke-width:2.0px;stroke-linecap:butt;stroke-linejoin:miter;stroke-opacity:1"/>
<path class="bond-11 atom-9 atom-12" d="M 229.6,56.3 L 235.0,58.6" style="fill:none;fill-rule:evenodd;stroke:#FF7F00;stroke-width:2.0px;stroke-linecap:butt;stroke-linejoin:miter;stroke-opacity:1"/>
<path class="bond-11 atom-9 atom-12" d="M 235.0,58.6 L 240.5,61.0" style="fill:none;fill-rule:evenodd;stroke:#FF0000;stroke-width:2.0px;stroke-linecap:butt;stroke-linejoin:miter;stroke-opacity:1"/>
<path class="bond-12 atom-12 atom-13" d="M 243.6,65.3 L 244.4,72.3" style="fill:none;fill-rule:evenodd;stroke:#FF0000;stroke-width:2.0px;stroke-linecap:butt;stroke-linejoin:miter;stroke-opacity:1"/>
<path class="bond-12 atom-12 atom-13" d="M 244.4,72.3 L 245.2,79.3" style="fill:none;fill-rule:evenodd;stroke:#000000;stroke-width:2.0px;stroke-linecap:butt;stroke-linejoin:miter;stroke-opacity:1"/>
<path class="bond-13 atom-13 atom-14" d="M 245.2,79.3 L 260.9,86.2" style="fill:none;fill-rule:evenodd;stroke:#000000;stroke-width:2.0px;stroke-linecap:butt;stroke-linejoin:miter;stroke-opacity:1"/>
<path class="bond-14 atom-14 atom-15" d="M 260.9,86.2 L 262.4,93.1" style="fill:none;fill-rule:evenodd;stroke:#000000;stroke-width:2.0px;stroke-linecap:butt;stroke-linejoin:miter;stroke-opacity:1"/>
<path class="bond-14 atom-14 atom-15" d="M 262.4,93.1 L 263.9,99.9" style="fill:none;fill-rule:evenodd;stroke:#FF0000;stroke-width:2.0px;stroke-linecap:butt;stroke-linejoin:miter;stroke-opacity:1"/>
<path class="bond-15 atom-15 atom-16" d="M 267.4,103.2 L 274.5,104.0" style="fill:none;fill-rule:evenodd;stroke:#FF0000;stroke-width:2.0px;stroke-linecap:butt;stroke-linejoin:miter;stroke-opacity:1"/>
<path class="bond-15 atom-15 atom-16" d="M 274.5,104.0 L 281.7,104.7" style="fill:none;fill-rule:evenodd;stroke:#000000;stroke-width:2.0px;stroke-linecap:butt;stroke-linejoin:miter;stroke-opacity:1"/>
<path class="bond-16 atom-16 atom-17" d="M 281.7,104.7 L 285.1,110.6" style="fill:none;fill-rule:evenodd;stroke:#000000;stroke-width:2.0px;stroke-linecap:butt;stroke-linejoin:miter;stroke-opacity:1"/>
<path class="bond-16 atom-16 atom-17" d="M 285.1,110.6 L 288.6,116.5" style="fill:none;fill-rule:evenodd;stroke:#0000FF;stroke-width:2.0px;stroke-linecap:butt;stroke-linejoin:miter;stroke-opacity:1"/>
<path class="bond-17 atom-17 atom-18" d="M 289.1,122.5 L 286.3,128.8" style="fill:none;fill-rule:evenodd;stroke:#0000FF;stroke-width:2.0px;stroke-linecap:butt;stroke-linejoin:miter;stroke-opacity:1"/>
<path class="bond-17 atom-17 atom-18" d="M 286.3,128.8 L 283.5,135.2" style="fill:none;fill-rule:evenodd;stroke:#000000;stroke-width:2.0px;stroke-linecap:butt;stroke-linejoin:miter;stroke-opacity:1"/>
<path class="bond-18 atom-18 atom-19" d="M 283.5,135.2 L 288.7,139.8" style="fill:none;fill-rule:evenodd;stroke:#000000;stroke-width:2.0px;stroke-linecap:butt;stroke-linejoin:miter;stroke-opacity:1"/>
<path class="bond-18 atom-18 atom-19" d="M 288.7,139.8 L 293.9,144.5" style="fill:none;fill-rule:evenodd;stroke:#0000FF;stroke-width:2.0px;stroke-linecap:butt;stroke-linejoin:miter;stroke-opacity:1"/>
<path class="bond-18 atom-18 atom-19" d="M 286.6,134.5 L 291.1,138.5" style="fill:none;fill-rule:evenodd;stroke:#000000;stroke-width:2.0px;stroke-linecap:butt;stroke-linejoin:miter;stroke-opacity:1"/>
<path class="bond-18 atom-18 atom-19" d="M 291.1,138.5 L 295.6,142.6" style="fill:none;fill-rule:evenodd;stroke:#0000FF;stroke-width:2.0px;stroke-linecap:butt;stroke-linejoin:miter;stroke-opacity:1"/>
<path class="bond-19 atom-19 atom-20" d="M 298.7,145.2 L 304.9,141.6" style="fill:none;fill-rule:evenodd;stroke:#0000FF;stroke-width:2.0px;stroke-linecap:butt;stroke-linejoin:miter;stroke-opacity:1"/>
<path class="bond-19 atom-19 atom-20" d="M 304.9,141.6 L 311.1,137.9" style="fill:none;fill-rule:evenodd;stroke:#000000;stroke-width:2.0px;stroke-linecap:butt;stroke-linejoin:miter;stroke-opacity:1"/>
<path class="bond-20 atom-20 atom-21" d="M 311.1,137.9 L 327.5,143.1" style="fill:none;fill-rule:evenodd;stroke:#000000;stroke-width:2.0px;stroke-linecap:butt;stroke-linejoin:miter;stroke-opacity:1"/>
<path class="bond-20 atom-20 atom-21" d="M 313.3,135.9 L 326.9,140.2" style="fill:none;fill-rule:evenodd;stroke:#000000;stroke-width:2.0px;stroke-linecap:butt;stroke-linejoin:miter;stroke-opacity:1"/>
<path class="bond-21 atom-21 atom-22" d="M 327.5,143.1 L 329.0,150.0" style="fill:none;fill-rule:evenodd;stroke:#000000;stroke-width:2.0px;stroke-linecap:butt;stroke-linejoin:miter;stroke-opacity:1"/>
<path class="bond-21 atom-21 atom-22" d="M 329.0,150.0 L 330.5,156.9" style="fill:none;fill-rule:evenodd;stroke:#0000FF;stroke-width:2.0px;stroke-linecap:butt;stroke-linejoin:miter;stroke-opacity:1"/>
<path class="bond-22 atom-21 atom-23" d="M 327.5,143.1 L 332.7,138.5" style="fill:none;fill-rule:evenodd;stroke:#000000;stroke-width:2.0px;stroke-linecap:butt;stroke-linejoin:miter;stroke-opacity:1"/>
<path class="bond-22 atom-21 atom-23" d="M 332.7,138.5 L 337.8,133.8" style="fill:none;fill-rule:evenodd;stroke:#0000FF;stroke-width:2.0px;stroke-linecap:butt;stroke-linejoin:miter;stroke-opacity:1"/>
<path class="bond-23 atom-23 atom-24" d="M 339.5,128.6 L 338.0,121.7" style="fill:none;fill-rule:evenodd;stroke:#0000FF;stroke-width:2.0px;stroke-linecap:butt;stroke-linejoin:miter;stroke-opacity:1"/>
<path class="bond-23 atom-23 atom-24" d="M 338.0,121.7 L 336.5,114.8" style="fill:none;fill-rule:evenodd;stroke:#000000;stroke-width:2.0px;stroke-linecap:butt;stroke-linejoin:miter;stroke-opacity:1"/>
<path class="bond-23 atom-23 atom-24" d="M 337.0,129.1 L 335.7,123.0" style="fill:none;fill-rule:evenodd;stroke:#0000FF;stroke-width:2.0px;stroke-linecap:butt;stroke-linejoin:miter;stroke-opacity:1"/>
<path class="bond-23 atom-23 atom-24" d="M 335.7,123.0 L 334.3,116.8" style="fill:none;fill-rule:evenodd;stroke:#000000;stroke-width:2.0px;stroke-linecap:butt;stroke-linejoin:miter;stroke-opacity:1"/>
<path class="bond-24 atom-24 atom-25" d="M 336.5,114.8 L 329.5,112.6" style="fill:none;fill-rule:evenodd;stroke:#000000;stroke-width:2.0px;stroke-linecap:butt;stroke-linejoin:miter;stroke-opacity:1"/>
<path class="bond-24 atom-24 atom-25" d="M 329.5,112.6 L 322.6,110.3" style="fill:none;fill-rule:evenodd;stroke:#0000FF;stroke-width:2.0px;stroke-linecap:butt;stroke-linejoin:miter;stroke-opacity:1"/>
<path class="bond-25 atom-25 atom-26" d="M 317.7,111.8 L 312.6,116.5" style="fill:none;fill-rule:evenodd;stroke:#0000FF;stroke-width:2.0px;stroke-linecap:butt;stroke-linejoin:miter;stroke-opacity:1"/>
<path class="bond-25 atom-25 atom-26" d="M 312.6,116.5 L 307.5,121.2" style="fill:none;fill-rule:evenodd;stroke:#000000;stroke-width:2.0px;stroke-linecap:butt;stroke-linejoin:miter;stroke-opacity:1"/>
<path class="bond-25 atom-25 atom-26" d="M 319.5,113.7 L 314.9,117.9" style="fill:none;fill-rule:evenodd;stroke:#0000FF;stroke-width:2.0px;stroke-linecap:butt;stroke-linejoin:miter;stroke-opacity:1"/>
<path class="bond-25 atom-25 atom-26" d="M 314.9,117.9 L 310.3,122.1" style="fill:none;fill-rule:evenodd;stroke:#000000;stroke-width:2.0px;stroke-linecap:butt;stroke-linejoin:miter;stroke-opacity:1"/>
<path class="bond-26 atom-16 atom-27" d="M 281.7,104.7 L 288.6,88.9" style="fill:none;fill-rule:evenodd;stroke:#000000;stroke-width:2.0px;stroke-linecap:butt;stroke-linejoin:miter;stroke-opacity:1"/>
<path class="bond-27 atom-27 atom-28" d="M 288.6,88.9 L 295.6,87.4" style="fill:none;fill-rule:evenodd;stroke:#000000;stroke-width:2.0px;stroke-linecap:butt;stroke-linejoin:miter;stroke-opacity:1"/>
<path class="bond-27 atom-27 atom-28" d="M 295.6,87.4 L 302.5,85.9" style="fill:none;fill-rule:evenodd;stroke:#FF0000;stroke-width:2.0px;stroke-linecap:butt;stroke-linejoin:miter;stroke-opacity:1"/>
<path class="bond-28 atom-27 atom-29" d="M 288.6,88.9 L 275.7,77.5" style="fill:none;fill-rule:evenodd;stroke:#000000;stroke-width:2.0px;stroke-linecap:butt;stroke-linejoin:miter;stroke-opacity:1"/>
<path class="bond-29 atom-29 atom-30" d="M 275.7,77.5 L 276.4,70.5" style="fill:none;fill-rule:evenodd;stroke:#000000;stroke-width:2.0px;stroke-linecap:butt;stroke-linejoin:miter;stroke-opacity:1"/>
<path class="bond-29 atom-29 atom-30" d="M 276.4,70.5 L 277.1,63.5" style="fill:none;fill-rule:evenodd;stroke:#FF0000;stroke-width:2.0px;stroke-linecap:butt;stroke-linejoin:miter;stroke-opacity:1"/>
<path class="bond-30 atom-30 atom-31" d="M 280.2,59.1 L 285.6,56.7" style="fill:none;fill-rule:evenodd;stroke:#FF0000;stroke-width:2.0px;stroke-linecap:butt;stroke-linejoin:miter;stroke-opacity:1"/>
<path class="bond-30 atom-30 atom-31" d="M 285.6,56.7 L 290.9,54.3" style="fill:none;fill-rule:evenodd;stroke:#FF7F00;stroke-width:2.0px;stroke-linecap:butt;stroke-linejoin:miter;stroke-opacity:1"/>
<path class="bond-31 atom-31 atom-32" d="M 292.9,49.8 L 290.7,45.0" style="fill:none;fill-rule:evenodd;stroke:#FF7F00;stroke-width:2.0px;stroke-linecap:butt;stroke-linejoin:miter;stroke-opacity:1"/>
<path class="bond-31 atom-31 atom-32" d="M 290.7,45.0 L 288.5,40.2" style="fill:none;fill-rule:evenodd;stroke:#FF0000;stroke-width:2.0px;stroke-linecap:butt;stroke-linejoin:miter;stroke-opacity:1"/>
<path class="bond-31 atom-31 atom-32" d="M 290.5,50.9 L 288.4,46.1" style="fill:none;fill-rule:evenodd;stroke:#FF7F00;stroke-width:2.0px;stroke-linecap:butt;stroke-linejoin:miter;stroke-opacity:1"/>
<path class="bond-31 atom-31 atom-32" d="M 288.4,46.1 L 286.2,41.3" style="fill:none;fill-rule:evenodd;stroke:#FF0000;stroke-width:2.0px;stroke-linecap:butt;stroke-linejoin:miter;stroke-opacity:1"/>
<path class="bond-32 atom-31 atom-33" d="M 294.4,56.3 L 296.6,61.1" style="fill:none;fill-rule:evenodd;stroke:#FF7F00;stroke-width:2.0px;stroke-linecap:butt;stroke-linejoin:miter;stroke-opacity:1"/>
<path class="bond-32 atom-31 atom-33" d="M 296.6,61.1 L 298.8,65.9" style="fill:none;fill-rule:evenodd;stroke:#FF0000;stroke-width:2.0px;stroke-linecap:butt;stroke-linejoin:miter;stroke-opacity:1"/>
<path class="bond-33 atom-31 atom-34" d="M 295.2,52.4 L 300.5,49.9" style="fill:none;fill-rule:evenodd;stroke:#FF7F00;stroke-width:2.0px;stroke-linecap:butt;stroke-linejoin:miter;stroke-opacity:1"/>
<path class="bond-33 atom-31 atom-34" d="M 300.5,49.9 L 305.9,47.5" style="fill:none;fill-rule:evenodd;stroke:#FF0000;stroke-width:2.0px;stroke-linecap:butt;stroke-linejoin:miter;stroke-opacity:1"/>
<path class="bond-34 atom-1 atom-35" d="M 172.2,96.1 L 158.4,106.3" style="fill:none;fill-rule:evenodd;stroke:#000000;stroke-width:2.0px;stroke-linecap:butt;stroke-linejoin:miter;stroke-opacity:1"/>
<path class="bond-35 atom-35 atom-36" d="M 158.4,106.3 L 159.1,113.3" style="fill:none;fill-rule:evenodd;stroke:#000000;stroke-width:2.0px;stroke-linecap:butt;stroke-linejoin:miter;stroke-opacity:1"/>
<path class="bond-35 atom-35 atom-36" d="M 159.1,113.3 L 159.9,120.3" style="fill:none;fill-rule:evenodd;stroke:#FF0000;stroke-width:2.0px;stroke-linecap:butt;stroke-linejoin:miter;stroke-opacity:1"/>
<path class="bond-36 atom-35 atom-37" d="M 158.4,106.3 L 142.6,99.4" style="fill:none;fill-rule:evenodd;stroke:#000000;stroke-width:2.0px;stroke-linecap:butt;stroke-linejoin:miter;stroke-opacity:1"/>
<path class="bond-37 atom-37 atom-38" d="M 144.0,100.0 L 143.2,92.6" style="fill:none;fill-rule:evenodd;stroke:#000000;stroke-width:2.0px;stroke-linecap:butt;stroke-linejoin:miter;stroke-opacity:1"/>
<path class="bond-37 atom-37 atom-38" d="M 143.2,92.6 L 142.3,85.3" style="fill:none;fill-rule:evenodd;stroke:#FF0000;stroke-width:2.0px;stroke-linecap:butt;stroke-linejoin:miter;stroke-opacity:1"/>
<path class="bond-37 atom-37 atom-38" d="M 141.4,100.3 L 140.6,92.9" style="fill:none;fill-rule:evenodd;stroke:#000000;stroke-width:2.0px;stroke-linecap:butt;stroke-linejoin:miter;stroke-opacity:1"/>
<path class="bond-37 atom-37 atom-38" d="M 140.6,92.9 L 139.8,85.6" style="fill:none;fill-rule:evenodd;stroke:#FF0000;stroke-width:2.0px;stroke-linecap:butt;stroke-linejoin:miter;stroke-opacity:1"/>
<path class="bond-38 atom-37 atom-39" d="M 142.6,99.4 L 136.9,103.6" style="fill:none;fill-rule:evenodd;stroke:#000000;stroke-width:2.0px;stroke-linecap:butt;stroke-linejoin:miter;stroke-opacity:1"/>
<path class="bond-38 atom-37 atom-39" d="M 136.9,103.6 L 131.2,107.8" style="fill:none;fill-rule:evenodd;stroke:#0000FF;stroke-width:2.0px;stroke-linecap:butt;stroke-linejoin:miter;stroke-opacity:1"/>
<path class="bond-39 atom-39 atom-40" d="M 126.4,108.5 L 119.7,105.6" style="fill:none;fill-rule:evenodd;stroke:#0000FF;stroke-width:2.0px;stroke-linecap:butt;stroke-linejoin:miter;stroke-opacity:1"/>
<path class="bond-39 atom-39 atom-40" d="M 119.7,105.6 L 113.1,102.7" style="fill:none;fill-rule:evenodd;stroke:#000000;stroke-width:2.0px;stroke-linecap:butt;stroke-linejoin:miter;stroke-opacity:1"/>
<path class="bond-40 atom-40 atom-41" d="M 113.1,102.7 L 99.2,112.9" style="fill:none;fill-rule:evenodd;stroke:#000000;stroke-width:2.0px;stroke-linecap:butt;stroke-linejoin:miter;stroke-opacity:1"/>
<path class="bond-41 atom-41 atom-42" d="M 99.2,112.9 L 83.5,106.0" style="fill:none;fill-rule:evenodd;stroke:#000000;stroke-width:2.0px;stroke-linecap:butt;stroke-linejoin:miter;stroke-opacity:1"/>
<path class="bond-42 atom-42 atom-43" d="M 84.8,106.6 L 84.0,99.3" style="fill:none;fill-rule:evenodd;stroke:#000000;stroke-width:2.0px;stroke-linecap:butt;stroke-linejoin:miter;stroke-opacity:1"/>
<path class="bond-42 atom-42 atom-43" d="M 84.0,99.3 L 83.2,91.9" style="fill:none;fill-rule:evenodd;stroke:#FF0000;stroke-width:2.0px;stroke-linecap:butt;stroke-linejoin:miter;stroke-opacity:1"/>
<path class="bond-42 atom-42 atom-43" d="M 82.3,106.9 L 81.5,99.5" style="fill:none;fill-rule:evenodd;stroke:#000000;stroke-width:2.0px;stroke-linecap:butt;stroke-linejoin:miter;stroke-opacity:1"/>
<path class="bond-42 atom-42 atom-43" d="M 81.5,99.5 L 80.6,92.2" style="fill:none;fill-rule:evenodd;stroke:#FF0000;stroke-width:2.0px;stroke-linecap:butt;stroke-linejoin:miter;stroke-opacity:1"/>
<path class="bond-43 atom-42 atom-44" d="M 83.5,106.0 L 77.8,110.2" style="fill:none;fill-rule:evenodd;stroke:#000000;stroke-width:2.0px;stroke-linecap:butt;stroke-linejoin:miter;stroke-opacity:1"/>
<path class="bond-43 atom-42 atom-44" d="M 77.8,110.2 L 72.1,114.4" style="fill:none;fill-rule:evenodd;stroke:#0000FF;stroke-width:2.0px;stroke-linecap:butt;stroke-linejoin:miter;stroke-opacity:1"/>
<path class="bond-44 atom-44 atom-45" d="M 67.2,115.1 L 60.6,112.2" style="fill:none;fill-rule:evenodd;stroke:#0000FF;stroke-width:2.0px;stroke-linecap:butt;stroke-linejoin:miter;stroke-opacity:1"/>
<path class="bond-44 atom-44 atom-45" d="M 60.6,112.2 L 53.9,109.3" style="fill:none;fill-rule:evenodd;stroke:#000000;stroke-width:2.0px;stroke-linecap:butt;stroke-linejoin:miter;stroke-opacity:1"/>
<path class="bond-45 atom-45 atom-46" d="M 53.9,109.3 L 40.1,119.5" style="fill:none;fill-rule:evenodd;stroke:#000000;stroke-width:2.0px;stroke-linecap:butt;stroke-linejoin:miter;stroke-opacity:1"/>
<path class="bond-46 atom-46 atom-47" d="M 40.1,119.5 L 33.3,116.5" style="fill:none;fill-rule:evenodd;stroke:#000000;stroke-width:2.0px;stroke-linecap:butt;stroke-linejoin:miter;stroke-opacity:1"/>
<path class="bond-46 atom-46 atom-47" d="M 33.3,116.5 L 26.5,113.6" style="fill:none;fill-rule:evenodd;stroke:#CCCC00;stroke-width:2.0px;stroke-linecap:butt;stroke-linejoin:miter;stroke-opacity:1"/>
<path class="bond-47 atom-29 atom-14" d="M 275.7,77.5 L 260.9,86.2" style="fill:none;fill-rule:evenodd;stroke:#000000;stroke-width:2.0px;stroke-linecap:butt;stroke-linejoin:miter;stroke-opacity:1"/>
<path class="bond-48 atom-26 atom-17" d="M 307.5,121.2 L 300.1,120.4" style="fill:none;fill-rule:evenodd;stroke:#000000;stroke-width:2.0px;stroke-linecap:butt;stroke-linejoin:miter;stroke-opacity:1"/>
<path class="bond-48 atom-26 atom-17" d="M 300.1,120.4 L 292.8,119.7" style="fill:none;fill-rule:evenodd;stroke:#0000FF;stroke-width:2.0px;stroke-linecap:butt;stroke-linejoin:miter;stroke-opacity:1"/>
<path class="bond-49 atom-26 atom-20" d="M 307.5,121.2 L 311.1,137.9" style="fill:none;fill-rule:evenodd;stroke:#000000;stroke-width:2.0px;stroke-linecap:butt;stroke-linejoin:miter;stroke-opacity:1"/>
<path d="M 185.3,86.4 L 186.0,85.9 L 186.0,85.6" style="fill:none;stroke:#000000;stroke-width:2.0px;stroke-linecap:butt;stroke-linejoin:miter;stroke-opacity:1;"/>
<path d="M 245.1,79.0 L 245.2,79.3 L 246.0,79.7" style="fill:none;stroke:#000000;stroke-width:2.0px;stroke-linecap:butt;stroke-linejoin:miter;stroke-opacity:1;"/>
<path d="M 283.6,134.9 L 283.5,135.2 L 283.7,135.4" style="fill:none;stroke:#000000;stroke-width:2.0px;stroke-linecap:butt;stroke-linejoin:miter;stroke-opacity:1;"/>
<path d="M 336.6,115.1 L 336.5,114.8 L 336.2,114.7" style="fill:none;stroke:#000000;stroke-width:2.0px;stroke-linecap:butt;stroke-linejoin:miter;stroke-opacity:1;"/>
<path d="M 143.4,99.8 L 142.6,99.4 L 142.3,99.6" style="fill:none;stroke:#000000;stroke-width:2.0px;stroke-linecap:butt;stroke-linejoin:miter;stroke-opacity:1;"/>
<path d="M 113.4,102.9 L 113.1,102.7 L 112.4,103.2" style="fill:none;stroke:#000000;stroke-width:2.0px;stroke-linecap:butt;stroke-linejoin:miter;stroke-opacity:1;"/>
<path d="M 99.9,112.4 L 99.2,112.9 L 98.4,112.6" style="fill:none;stroke:#000000;stroke-width:2.0px;stroke-linecap:butt;stroke-linejoin:miter;stroke-opacity:1;"/>
<path d="M 84.3,106.4 L 83.5,106.0 L 83.2,106.2" style="fill:none;stroke:#000000;stroke-width:2.0px;stroke-linecap:butt;stroke-linejoin:miter;stroke-opacity:1;"/>
<path d="M 54.2,109.5 L 53.9,109.3 L 53.2,109.8" style="fill:none;stroke:#000000;stroke-width:2.0px;stroke-linecap:butt;stroke-linejoin:miter;stroke-opacity:1;"/>
<path d="M 40.8,119.0 L 40.1,119.5 L 39.7,119.4" style="fill:none;stroke:#000000;stroke-width:2.0px;stroke-linecap:butt;stroke-linejoin:miter;stroke-opacity:1;"/>
<path class="atom-4" d="M 181.9 68.9 Q 181.9 67.7, 182.5 67.0 Q 183.0 66.4, 184.1 66.4 Q 185.2 66.4, 185.8 67.0 Q 186.4 67.7, 186.4 68.9 Q 186.4 70.0, 185.8 70.7 Q 185.2 71.4, 184.1 71.4 Q 183.0 71.4, 182.5 70.7 Q 181.9 70.0, 181.9 68.9 M 184.1 70.8 Q 184.9 70.8, 185.3 70.3 Q 185.7 69.8, 185.7 68.9 Q 185.7 67.9, 185.3 67.4 Q 184.9 66.9, 184.1 66.9 Q 183.4 66.9, 183.0 67.4 Q 182.6 67.9, 182.6 68.9 Q 182.6 69.8, 183.0 70.3 Q 183.4 70.8, 184.1 70.8 " fill="#FF0000"/>
<path class="atom-5" d="M 197.8 56.2 Q 198.7 56.2, 199.1 56.6 Q 199.5 57.0, 199.5 57.7 Q 199.5 58.3, 199.1 58.7 Q 198.6 59.1, 197.8 59.1 L 197.1 59.1 L 197.1 61.1 L 196.4 61.1 L 196.4 56.2 L 197.8 56.2 M 197.8 58.5 Q 198.3 58.5, 198.6 58.3 Q 198.8 58.1, 198.8 57.7 Q 198.8 57.2, 198.6 57.0 Q 198.3 56.8, 197.8 56.8 L 197.1 56.8 L 197.1 58.5 L 197.8 58.5 " fill="#FF7F00"/>
<path class="atom-6" d="M 185.5 44.8 Q 185.5 43.7, 186.1 43.0 Q 186.7 42.4, 187.8 42.4 Q 188.8 42.4, 189.4 43.0 Q 190.0 43.7, 190.0 44.8 Q 190.0 46.0, 189.4 46.7 Q 188.8 47.4, 187.8 47.4 Q 186.7 47.4, 186.1 46.7 Q 185.5 46.0, 185.5 44.8 M 187.8 46.8 Q 188.5 46.8, 188.9 46.3 Q 189.3 45.8, 189.3 44.8 Q 189.3 43.9, 188.9 43.4 Q 188.5 42.9, 187.8 42.9 Q 187.0 42.9, 186.6 43.4 Q 186.2 43.9, 186.2 44.8 Q 186.2 45.8, 186.6 46.3 Q 187.0 46.8, 187.8 46.8 " fill="#FF0000"/>
<path class="atom-7" d="M 205.9 72.5 Q 205.9 71.3, 206.5 70.7 Q 207.1 70.0, 208.1 70.0 Q 209.2 70.0, 209.8 70.7 Q 210.4 71.3, 210.4 72.5 Q 210.4 73.7, 209.8 74.4 Q 209.2 75.0, 208.1 75.0 Q 207.1 75.0, 206.5 74.4 Q 205.9 73.7, 205.9 72.5 M 208.1 74.5 Q 208.9 74.5, 209.3 74.0 Q 209.7 73.5, 209.7 72.5 Q 209.7 71.5, 209.3 71.1 Q 208.9 70.6, 208.1 70.6 Q 207.4 70.6, 207.0 71.1 Q 206.6 71.5, 206.6 72.5 Q 206.6 73.5, 207.0 74.0 Q 207.4 74.5, 208.1 74.5 " fill="#FF0000"/>
<path class="atom-7" d="M 211.1 70.1 L 211.8 70.1 L 211.8 72.2 L 214.3 72.2 L 214.3 70.1 L 214.9 70.1 L 214.9 74.9 L 214.3 74.9 L 214.3 72.7 L 211.8 72.7 L 211.8 74.9 L 211.1 74.9 L 211.1 70.1 " fill="#FF0000"/>
<path class="atom-8" d="M 209.5 48.5 Q 209.5 47.3, 210.1 46.7 Q 210.7 46.0, 211.8 46.0 Q 212.9 46.0, 213.4 46.7 Q 214.0 47.3, 214.0 48.5 Q 214.0 49.7, 213.4 50.3 Q 212.8 51.0, 211.8 51.0 Q 210.7 51.0, 210.1 50.3 Q 209.5 49.7, 209.5 48.5 M 211.8 50.5 Q 212.5 50.5, 212.9 50.0 Q 213.3 49.5, 213.3 48.5 Q 213.3 47.5, 212.9 47.0 Q 212.5 46.6, 211.8 46.6 Q 211.0 46.6, 210.6 47.0 Q 210.2 47.5, 210.2 48.5 Q 210.2 49.5, 210.6 50.0 Q 211.0 50.5, 211.8 50.5 " fill="#FF0000"/>
<path class="atom-9" d="M 227.4 52.9 Q 228.2 52.9, 228.7 53.3 Q 229.1 53.7, 229.1 54.4 Q 229.1 55.0, 228.6 55.4 Q 228.2 55.8, 227.4 55.8 L 226.6 55.8 L 226.6 57.8 L 226.0 57.8 L 226.0 52.9 L 227.4 52.9 M 227.4 55.2 Q 227.9 55.2, 228.1 55.0 Q 228.4 54.8, 228.4 54.4 Q 228.4 53.9, 228.1 53.7 Q 227.9 53.5, 227.4 53.5 L 226.6 53.5 L 226.6 55.2 L 227.4 55.2 " fill="#FF7F00"/>
<path class="atom-10" d="M 218.4 71.1 Q 218.4 69.9, 219.0 69.3 Q 219.6 68.6, 220.6 68.6 Q 221.7 68.6, 222.3 69.3 Q 222.9 69.9, 222.9 71.1 Q 222.9 72.3, 222.3 73.0 Q 221.7 73.6, 220.6 73.6 Q 219.6 73.6, 219.0 73.0 Q 218.4 72.3, 218.4 71.1 M 220.6 73.1 Q 221.4 73.1, 221.8 72.6 Q 222.2 72.1, 222.2 71.1 Q 222.2 70.2, 221.8 69.7 Q 221.4 69.2, 220.6 69.2 Q 219.9 69.2, 219.5 69.7 Q 219.1 70.1, 219.1 71.1 Q 219.1 72.1, 219.5 72.6 Q 219.9 73.1, 220.6 73.1 " fill="#FF0000"/>
<path class="atom-11" d="M 232.2 39.6 Q 232.2 38.5, 232.7 37.8 Q 233.3 37.2, 234.4 37.2 Q 235.5 37.2, 236.1 37.8 Q 236.6 38.5, 236.6 39.6 Q 236.6 40.8, 236.1 41.5 Q 235.5 42.2, 234.4 42.2 Q 233.3 42.2, 232.7 41.5 Q 232.2 40.8, 232.2 39.6 M 234.4 41.6 Q 235.1 41.6, 235.5 41.1 Q 235.9 40.6, 235.9 39.6 Q 235.9 38.7, 235.5 38.2 Q 235.1 37.7, 234.4 37.7 Q 233.7 37.7, 233.3 38.2 Q 232.9 38.7, 232.9 39.6 Q 232.9 40.6, 233.3 41.1 Q 233.7 41.6, 234.4 41.6 " fill="#FF0000"/>
<path class="atom-11" d="M 237.4 37.2 L 238.1 37.2 L 238.1 39.3 L 240.5 39.3 L 240.5 37.2 L 241.2 37.2 L 241.2 42.1 L 240.5 42.1 L 240.5 39.8 L 238.1 39.8 L 238.1 42.1 L 237.4 42.1 L 237.4 37.2 " fill="#FF0000"/>
<path class="atom-12" d="M 241.0 62.3 Q 241.0 61.1, 241.6 60.4 Q 242.2 59.8, 243.3 59.8 Q 244.3 59.8, 244.9 60.4 Q 245.5 61.1, 245.5 62.3 Q 245.5 63.4, 244.9 64.1 Q 244.3 64.8, 243.3 64.8 Q 242.2 64.8, 241.6 64.1 Q 241.0 63.4, 241.0 62.3 M 243.3 64.2 Q 244.0 64.2, 244.4 63.7 Q 244.8 63.2, 244.8 62.3 Q 244.8 61.3, 244.4 60.8 Q 244.0 60.3, 243.3 60.3 Q 242.5 60.3, 242.1 60.8 Q 241.7 61.3, 241.7 62.3 Q 241.7 63.2, 242.1 63.7 Q 242.5 64.2, 243.3 64.2 " fill="#FF0000"/>
<path class="atom-15" d="M 262.4 103.0 Q 262.4 101.8, 262.9 101.2 Q 263.5 100.5, 264.6 100.5 Q 265.7 100.5, 266.2 101.2 Q 266.8 101.8, 266.8 103.0 Q 266.8 104.2, 266.2 104.8 Q 265.6 105.5, 264.6 105.5 Q 263.5 105.5, 262.9 104.8 Q 262.4 104.2, 262.4 103.0 M 264.6 105.0 Q 265.3 105.0, 265.7 104.5 Q 266.1 104.0, 266.1 103.0 Q 266.1 102.0, 265.7 101.6 Q 265.3 101.1, 264.6 101.1 Q 263.8 101.1, 263.4 101.5 Q 263.0 102.0, 263.0 103.0 Q 263.0 104.0, 263.4 104.5 Q 263.8 105.0, 264.6 105.0 " fill="#FF0000"/>
<path class="atom-17" d="M 289.3 117.0 L 290.9 119.6 Q 291.0 119.9, 291.3 120.3 Q 291.6 120.8, 291.6 120.8 L 291.6 117.0 L 292.2 117.0 L 292.2 121.9 L 291.5 121.9 L 289.8 119.1 Q 289.6 118.8, 289.4 118.4 Q 289.2 118.0, 289.2 117.9 L 289.2 121.9 L 288.5 121.9 L 288.5 117.0 L 289.3 117.0 " fill="#0000FF"/>
<path class="atom-19" d="M 295.2 144.2 L 296.8 146.8 Q 297.0 147.0, 297.3 147.5 Q 297.5 147.9, 297.5 148.0 L 297.5 144.2 L 298.2 144.2 L 298.2 149.1 L 297.5 149.1 L 295.8 146.2 Q 295.6 145.9, 295.4 145.5 Q 295.2 145.2, 295.1 145.0 L 295.1 149.1 L 294.5 149.1 L 294.5 144.2 L 295.2 144.2 " fill="#0000FF"/>
<path class="atom-22" d="M 330.1 157.5 L 331.7 160.1 Q 331.9 160.3, 332.1 160.8 Q 332.4 161.2, 332.4 161.3 L 332.4 157.5 L 333.0 157.5 L 333.0 162.4 L 332.4 162.4 L 330.7 159.5 Q 330.5 159.2, 330.3 158.8 Q 330.0 158.4, 330.0 158.3 L 330.0 162.4 L 329.4 162.4 L 329.4 157.5 L 330.1 157.5 " fill="#0000FF"/>
<path class="atom-22" d="M 334.0 157.5 L 334.6 157.5 L 334.6 159.6 L 337.1 159.6 L 337.1 157.5 L 337.8 157.5 L 337.8 162.4 L 337.1 162.4 L 337.1 160.1 L 334.6 160.1 L 334.6 162.4 L 334.0 162.4 L 334.0 157.5 " fill="#0000FF"/>
<path class="atom-22" d="M 338.7 162.2 Q 338.8 161.9, 339.1 161.7 Q 339.4 161.5, 339.8 161.5 Q 340.3 161.5, 340.6 161.8 Q 340.8 162.1, 340.8 162.5 Q 340.8 163.0, 340.5 163.5 Q 340.1 163.9, 339.4 164.4 L 340.9 164.4 L 340.9 164.8 L 338.7 164.8 L 338.7 164.5 Q 339.3 164.1, 339.7 163.7 Q 340.0 163.4, 340.2 163.1 Q 340.4 162.8, 340.4 162.6 Q 340.4 162.2, 340.2 162.1 Q 340.1 161.9, 339.8 161.9 Q 339.5 161.9, 339.4 162.0 Q 339.2 162.1, 339.1 162.3 L 338.7 162.2 " fill="#0000FF"/>
<path class="atom-23" d="M 339.1 129.1 L 340.7 131.7 Q 340.9 132.0, 341.1 132.4 Q 341.4 132.9, 341.4 132.9 L 341.4 129.1 L 342.1 129.1 L 342.1 134.0 L 341.4 134.0 L 339.7 131.2 Q 339.5 130.8, 339.3 130.5 Q 339.1 130.1, 339.0 130.0 L 339.0 134.0 L 338.4 134.0 L 338.4 129.1 L 339.1 129.1 " fill="#0000FF"/>
<path class="atom-25" d="M 319.1 107.2 L 320.7 109.7 Q 320.8 110.0, 321.1 110.4 Q 321.3 110.9, 321.4 110.9 L 321.4 107.2 L 322.0 107.2 L 322.0 112.0 L 321.3 112.0 L 319.6 109.2 Q 319.4 108.9, 319.2 108.5 Q 319.0 108.1, 318.9 108.0 L 318.9 112.0 L 318.3 112.0 L 318.3 107.2 L 319.1 107.2 " fill="#0000FF"/>
<path class="atom-28" d="M 303.1 85.3 Q 303.1 84.1, 303.7 83.4 Q 304.3 82.8, 305.3 82.8 Q 306.4 82.8, 307.0 83.4 Q 307.6 84.1, 307.6 85.3 Q 307.6 86.4, 307.0 87.1 Q 306.4 87.8, 305.3 87.8 Q 304.3 87.8, 303.7 87.1 Q 303.1 86.4, 303.1 85.3 M 305.3 87.2 Q 306.1 87.2, 306.5 86.7 Q 306.9 86.2, 306.9 85.3 Q 306.9 84.3, 306.5 83.8 Q 306.1 83.3, 305.3 83.3 Q 304.6 83.3, 304.2 83.8 Q 303.8 84.3, 303.8 85.3 Q 303.8 86.2, 304.2 86.7 Q 304.6 87.2, 305.3 87.2 " fill="#FF0000"/>
<path class="atom-28" d="M 308.3 82.8 L 309.0 82.8 L 309.0 84.9 L 311.5 84.9 L 311.5 82.8 L 312.1 82.8 L 312.1 87.7 L 311.5 87.7 L 311.5 85.4 L 309.0 85.4 L 309.0 87.7 L 308.3 87.7 L 308.3 82.8 " fill="#FF0000"/>
<path class="atom-30" d="M 275.2 60.4 Q 275.2 59.3, 275.8 58.6 Q 276.3 58.0, 277.4 58.0 Q 278.5 58.0, 279.1 58.6 Q 279.6 59.3, 279.6 60.4 Q 279.6 61.6, 279.1 62.3 Q 278.5 62.9, 277.4 62.9 Q 276.3 62.9, 275.8 62.3 Q 275.2 61.6, 275.2 60.4 M 277.4 62.4 Q 278.1 62.4, 278.5 61.9 Q 279.0 61.4, 279.0 60.4 Q 279.0 59.5, 278.5 59.0 Q 278.1 58.5, 277.4 58.5 Q 276.7 58.5, 276.3 59.0 Q 275.9 59.5, 275.9 60.4 Q 275.9 61.4, 276.3 61.9 Q 276.7 62.4, 277.4 62.4 " fill="#FF0000"/>
<path class="atom-31" d="M 292.9 50.9 Q 293.8 50.9, 294.2 51.3 Q 294.6 51.6, 294.6 52.3 Q 294.6 53.0, 294.2 53.4 Q 293.7 53.8, 292.9 53.8 L 292.2 53.8 L 292.2 55.8 L 291.5 55.8 L 291.5 50.9 L 292.9 50.9 M 292.9 53.2 Q 293.4 53.2, 293.7 53.0 Q 293.9 52.8, 293.9 52.3 Q 293.9 51.9, 293.7 51.7 Q 293.4 51.4, 292.9 51.4 L 292.2 51.4 L 292.2 53.2 L 292.9 53.2 " fill="#FF7F00"/>
<path class="atom-32" d="M 283.7 37.7 Q 283.7 36.5, 284.3 35.9 Q 284.9 35.2, 286.0 35.2 Q 287.0 35.2, 287.6 35.9 Q 288.2 36.5, 288.2 37.7 Q 288.2 38.9, 287.6 39.5 Q 287.0 40.2, 286.0 40.2 Q 284.9 40.2, 284.3 39.5 Q 283.7 38.9, 283.7 37.7 M 286.0 39.7 Q 286.7 39.7, 287.1 39.2 Q 287.5 38.7, 287.5 37.7 Q 287.5 36.7, 287.1 36.3 Q 286.7 35.8, 286.0 35.8 Q 285.2 35.8, 284.8 36.2 Q 284.4 36.7, 284.4 37.7 Q 284.4 38.7, 284.8 39.2 Q 285.2 39.7, 286.0 39.7 " fill="#FF0000"/>
<path class="atom-33" d="M 297.9 69.0 Q 297.9 67.8, 298.5 67.2 Q 299.1 66.5, 300.1 66.5 Q 301.2 66.5, 301.8 67.2 Q 302.4 67.8, 302.4 69.0 Q 302.4 70.2, 301.8 70.8 Q 301.2 71.5, 300.1 71.5 Q 299.1 71.5, 298.5 70.8 Q 297.9 70.2, 297.9 69.0 M 300.1 71.0 Q 300.9 71.0, 301.3 70.5 Q 301.7 70.0, 301.7 69.0 Q 301.7 68.0, 301.3 67.5 Q 300.9 67.1, 300.1 67.1 Q 299.4 67.1, 299.0 67.5 Q 298.6 68.0, 298.6 69.0 Q 298.6 70.0, 299.0 70.5 Q 299.4 71.0, 300.1 71.0 " fill="#FF0000"/>
<path class="atom-33" d="M 303.1 66.6 L 303.8 66.6 L 303.8 68.6 L 306.3 68.6 L 306.3 66.6 L 306.9 66.6 L 306.9 71.4 L 306.3 71.4 L 306.3 69.2 L 303.8 69.2 L 303.8 71.4 L 303.1 71.4 L 303.1 66.6 " fill="#FF0000"/>
<path class="atom-34" d="M 306.5 46.2 Q 306.5 45.1, 307.0 44.4 Q 307.6 43.8, 308.7 43.8 Q 309.8 43.8, 310.4 44.4 Q 310.9 45.1, 310.9 46.2 Q 310.9 47.4, 310.3 48.1 Q 309.8 48.8, 308.7 48.8 Q 307.6 48.8, 307.0 48.1 Q 306.5 47.4, 306.5 46.2 M 308.7 48.2 Q 309.4 48.2, 309.8 47.7 Q 310.2 47.2, 310.2 46.2 Q 310.2 45.3, 309.8 44.8 Q 309.4 44.3, 308.7 44.3 Q 308.0 44.3, 307.6 44.8 Q 307.2 45.3, 307.2 46.2 Q 307.2 47.2, 307.6 47.7 Q 308.0 48.2, 308.7 48.2 " fill="#FF0000"/>
<path class="atom-34" d="M 311.7 43.8 L 312.4 43.8 L 312.4 45.9 L 314.8 45.9 L 314.8 43.8 L 315.5 43.8 L 315.5 48.7 L 314.8 48.7 L 314.8 46.4 L 312.4 46.4 L 312.4 48.7 L 311.7 48.7 L 311.7 43.8 " fill="#FF0000"/>
<path class="atom-36" d="M 158.0 123.4 Q 158.0 122.2, 158.6 121.6 Q 159.2 120.9, 160.3 120.9 Q 161.3 120.9, 161.9 121.6 Q 162.5 122.2, 162.5 123.4 Q 162.5 124.6, 161.9 125.2 Q 161.3 125.9, 160.3 125.9 Q 159.2 125.9, 158.6 125.2 Q 158.0 124.6, 158.0 123.4 M 160.3 125.4 Q 161.0 125.4, 161.4 124.9 Q 161.8 124.4, 161.8 123.4 Q 161.8 122.4, 161.4 121.9 Q 161.0 121.5, 160.3 121.5 Q 159.5 121.5, 159.1 121.9 Q 158.7 122.4, 158.7 123.4 Q 158.7 124.4, 159.1 124.9 Q 159.5 125.4, 160.3 125.4 " fill="#FF0000"/>
<path class="atom-36" d="M 163.3 121.0 L 163.9 121.0 L 163.9 123.0 L 166.4 123.0 L 166.4 121.0 L 167.1 121.0 L 167.1 125.8 L 166.4 125.8 L 166.4 123.6 L 163.9 123.6 L 163.9 125.8 L 163.3 125.8 L 163.3 121.0 " fill="#FF0000"/>
<path class="atom-38" d="M 138.5 82.3 Q 138.5 81.2, 139.1 80.5 Q 139.6 79.9, 140.7 79.9 Q 141.8 79.9, 142.4 80.5 Q 143.0 81.2, 143.0 82.3 Q 143.0 83.5, 142.4 84.2 Q 141.8 84.9, 140.7 84.9 Q 139.6 84.9, 139.1 84.2 Q 138.5 83.5, 138.5 82.3 M 140.7 84.3 Q 141.5 84.3, 141.9 83.8 Q 142.3 83.3, 142.3 82.3 Q 142.3 81.4, 141.9 80.9 Q 141.5 80.4, 140.7 80.4 Q 140.0 80.4, 139.6 80.9 Q 139.2 81.4, 139.2 82.3 Q 139.2 83.3, 139.6 83.8 Q 140.0 84.3, 140.7 84.3 " fill="#FF0000"/>
<path class="atom-39" d="M 127.7 107.2 L 129.3 109.7 Q 129.5 110.0, 129.7 110.5 Q 130.0 110.9, 130.0 110.9 L 130.0 107.2 L 130.6 107.2 L 130.6 112.0 L 130.0 112.0 L 128.3 109.2 Q 128.1 108.9, 127.8 108.5 Q 127.6 108.1, 127.6 108.0 L 127.6 112.0 L 126.9 112.0 L 126.9 107.2 L 127.7 107.2 " fill="#0000FF"/>
<path class="atom-39" d="M 126.9 112.5 L 127.6 112.5 L 127.6 114.6 L 130.0 114.6 L 130.0 112.5 L 130.7 112.5 L 130.7 117.4 L 130.0 117.4 L 130.0 115.1 L 127.6 115.1 L 127.6 117.4 L 126.9 117.4 L 126.9 112.5 " fill="#0000FF"/>
<path class="atom-43" d="M 79.3 89.0 Q 79.3 87.8, 79.9 87.1 Q 80.5 86.5, 81.6 86.5 Q 82.7 86.5, 83.2 87.1 Q 83.8 87.8, 83.8 89.0 Q 83.8 90.1, 83.2 90.8 Q 82.6 91.5, 81.6 91.5 Q 80.5 91.5, 79.9 90.8 Q 79.3 90.1, 79.3 89.0 M 81.6 90.9 Q 82.3 90.9, 82.7 90.4 Q 83.1 89.9, 83.1 89.0 Q 83.1 88.0, 82.7 87.5 Q 82.3 87.0, 81.6 87.0 Q 80.8 87.0, 80.4 87.5 Q 80.0 88.0, 80.0 89.0 Q 80.0 89.9, 80.4 90.4 Q 80.8 90.9, 81.6 90.9 " fill="#FF0000"/>
<path class="atom-44" d="M 68.6 113.8 L 70.2 116.3 Q 70.3 116.6, 70.6 117.1 Q 70.8 117.5, 70.9 117.5 L 70.9 113.8 L 71.5 113.8 L 71.5 118.6 L 70.8 118.6 L 69.1 115.8 Q 68.9 115.5, 68.7 115.1 Q 68.5 114.7, 68.4 114.6 L 68.4 118.6 L 67.8 118.6 L 67.8 113.8 L 68.6 113.8 " fill="#0000FF"/>
<path class="atom-44" d="M 67.8 119.1 L 68.4 119.1 L 68.4 121.2 L 70.9 121.2 L 70.9 119.1 L 71.6 119.1 L 71.6 124.0 L 70.9 124.0 L 70.9 121.7 L 68.4 121.7 L 68.4 124.0 L 67.8 124.0 L 67.8 119.1 " fill="#0000FF"/>
<path class="atom-47" d="M 18.0 110.2 L 18.7 110.2 L 18.7 112.3 L 21.2 112.3 L 21.2 110.2 L 21.9 110.2 L 21.9 115.1 L 21.2 115.1 L 21.2 112.8 L 18.7 112.8 L 18.7 115.1 L 18.0 115.1 L 18.0 110.2 " fill="#CCCC00"/>
<path class="atom-47" d="M 23.0 114.3 Q 23.0 114.3, 23.3 114.4 Q 23.5 114.5, 23.7 114.6 Q 24.0 114.6, 24.2 114.6 Q 24.7 114.6, 25.0 114.4 Q 25.2 114.2, 25.2 113.8 Q 25.2 113.5, 25.1 113.4 Q 25.0 113.2, 24.8 113.1 Q 24.5 113.0, 24.2 112.9 Q 23.8 112.8, 23.5 112.7 Q 23.3 112.5, 23.1 112.3 Q 22.9 112.0, 22.9 111.6 Q 22.9 111.0, 23.3 110.6 Q 23.7 110.2, 24.5 110.2 Q 25.1 110.2, 25.7 110.5 L 25.6 111.0 Q 25.0 110.8, 24.6 110.8 Q 24.1 110.8, 23.8 111.0 Q 23.6 111.2, 23.6 111.5 Q 23.6 111.8, 23.7 111.9 Q 23.8 112.1, 24.0 112.2 Q 24.2 112.2, 24.6 112.3 Q 25.0 112.5, 25.3 112.6 Q 25.5 112.8, 25.7 113.0 Q 25.9 113.3, 25.9 113.8 Q 25.9 114.5, 25.5 114.8 Q 25.0 115.2, 24.3 115.2 Q 23.8 115.2, 23.5 115.1 Q 23.2 115.0, 22.8 114.8 L 23.0 114.3 " fill="#CCCC00"/>
</g>
    <g transform="translate(361.0, 0) scale(1 1) "><line x1="15" y1="100" x2="25" y2="100" style="stroke:rgb(0,0,0);stroke-width:2"/>
  <line x1="20" y1="95" x2="20" y2="105" style="stroke:rgb(0,0,0);stroke-width:2"/>
</g>
    <g transform="translate(401.0, 0) scale(1 1) "><!-- END OF HEADER -->
<rect style="opacity:1.0;fill:#FFFFFF;stroke:none" width="293.0" height="200.0" x="0.0" y="0.0"> </rect>
<path class="bond-0 atom-0 atom-1" d="M 267.6,132.9 L 267.8,124.3" style="fill:none;fill-rule:evenodd;stroke:#000000;stroke-width:2.0px;stroke-linecap:butt;stroke-linejoin:miter;stroke-opacity:1"/>
<path class="bond-0 atom-0 atom-1" d="M 267.8,124.3 L 268.1,115.7" style="fill:none;fill-rule:evenodd;stroke:#FF0000;stroke-width:2.0px;stroke-linecap:butt;stroke-linejoin:miter;stroke-opacity:1"/>
<path class="bond-1 atom-1 atom-2" d="M 264.8,109.9 L 257.6,105.4" style="fill:none;fill-rule:evenodd;stroke:#FF0000;stroke-width:2.0px;stroke-linecap:butt;stroke-linejoin:miter;stroke-opacity:1"/>
<path class="bond-1 atom-1 atom-2" d="M 257.6,105.4 L 250.4,101.0" style="fill:none;fill-rule:evenodd;stroke:#000000;stroke-width:2.0px;stroke-linecap:butt;stroke-linejoin:miter;stroke-opacity:1"/>
<path class="bond-2 atom-2 atom-3" d="M 250.4,101.0 L 232.0,110.9" style="fill:none;fill-rule:evenodd;stroke:#000000;stroke-width:2.0px;stroke-linecap:butt;stroke-linejoin:miter;stroke-opacity:1"/>
<path class="bond-2 atom-2 atom-3" d="M 247.3,99.1 L 232.1,107.3" style="fill:none;fill-rule:evenodd;stroke:#000000;stroke-width:2.0px;stroke-linecap:butt;stroke-linejoin:miter;stroke-opacity:1"/>
<path class="bond-3 atom-3 atom-4" d="M 232.0,110.9 L 214.1,99.9" style="fill:none;fill-rule:evenodd;stroke:#000000;stroke-width:2.0px;stroke-linecap:butt;stroke-linejoin:miter;stroke-opacity:1"/>
<path class="bond-4 atom-4 atom-5" d="M 214.1,99.9 L 195.7,109.9" style="fill:none;fill-rule:evenodd;stroke:#000000;stroke-width:2.0px;stroke-linecap:butt;stroke-linejoin:miter;stroke-opacity:1"/>
<path class="bond-5 atom-5 atom-6" d="M 195.7,109.9 L 188.3,105.3" style="fill:none;fill-rule:evenodd;stroke:#000000;stroke-width:2.0px;stroke-linecap:butt;stroke-linejoin:miter;stroke-opacity:1"/>
<path class="bond-5 atom-5 atom-6" d="M 188.3,105.3 L 180.9,100.7" style="fill:none;fill-rule:evenodd;stroke:#0000FF;stroke-width:2.0px;stroke-linecap:butt;stroke-linejoin:miter;stroke-opacity:1"/>
<path class="bond-6 atom-6 atom-7" d="M 175.0,100.5 L 167.3,104.7" style="fill:none;fill-rule:evenodd;stroke:#0000FF;stroke-width:2.0px;stroke-linecap:butt;stroke-linejoin:miter;stroke-opacity:1"/>
<path class="bond-6 atom-6 atom-7" d="M 167.3,104.7 L 159.5,108.8" style="fill:none;fill-rule:evenodd;stroke:#000000;stroke-width:2.0px;stroke-linecap:butt;stroke-linejoin:miter;stroke-opacity:1"/>
<path class="bond-7 atom-7 atom-8" d="M 158.0,107.9 L 157.7,117.0" style="fill:none;fill-rule:evenodd;stroke:#000000;stroke-width:2.0px;stroke-linecap:butt;stroke-linejoin:miter;stroke-opacity:1"/>
<path class="bond-7 atom-7 atom-8" d="M 157.7,117.0 L 157.5,126.0" style="fill:none;fill-rule:evenodd;stroke:#FF0000;stroke-width:2.0px;stroke-linecap:butt;stroke-linejoin:miter;stroke-opacity:1"/>
<path class="bond-7 atom-7 atom-8" d="M 161.1,108.0 L 160.9,117.0" style="fill:none;fill-rule:evenodd;stroke:#000000;stroke-width:2.0px;stroke-linecap:butt;stroke-linejoin:miter;stroke-opacity:1"/>
<path class="bond-7 atom-7 atom-8" d="M 160.9,117.0 L 160.6,126.1" style="fill:none;fill-rule:evenodd;stroke:#FF0000;stroke-width:2.0px;stroke-linecap:butt;stroke-linejoin:miter;stroke-opacity:1"/>
<path class="bond-8 atom-7 atom-9" d="M 159.5,108.8 L 141.7,97.9" style="fill:none;fill-rule:evenodd;stroke:#000000;stroke-width:2.0px;stroke-linecap:butt;stroke-linejoin:miter;stroke-opacity:1"/>
<path class="bond-9 atom-9 atom-10" d="M 141.7,97.9 L 123.3,107.8" style="fill:none;fill-rule:evenodd;stroke:#000000;stroke-width:2.0px;stroke-linecap:butt;stroke-linejoin:miter;stroke-opacity:1"/>
<path class="bond-10 atom-10 atom-11" d="M 123.3,107.8 L 105.5,96.8" style="fill:none;fill-rule:evenodd;stroke:#000000;stroke-width:2.0px;stroke-linecap:butt;stroke-linejoin:miter;stroke-opacity:1"/>
<path class="bond-11 atom-11 atom-12" d="M 105.5,96.8 L 87.1,106.8" style="fill:none;fill-rule:evenodd;stroke:#000000;stroke-width:2.0px;stroke-linecap:butt;stroke-linejoin:miter;stroke-opacity:1"/>
<path class="bond-12 atom-12 atom-13" d="M 87.1,106.8 L 69.3,95.8" style="fill:none;fill-rule:evenodd;stroke:#000000;stroke-width:2.0px;stroke-linecap:butt;stroke-linejoin:miter;stroke-opacity:1"/>
<path class="bond-13 atom-13 atom-14" d="M 69.3,95.8 L 50.9,105.7" style="fill:none;fill-rule:evenodd;stroke:#000000;stroke-width:2.0px;stroke-linecap:butt;stroke-linejoin:miter;stroke-opacity:1"/>
<path class="bond-13 atom-13 atom-14" d="M 69.2,99.4 L 52.4,108.5" style="fill:none;fill-rule:evenodd;stroke:#000000;stroke-width:2.0px;stroke-linecap:butt;stroke-linejoin:miter;stroke-opacity:1"/>
<path class="bond-14 atom-14 atom-15" d="M 50.9,105.7 L 33.1,94.8" style="fill:none;fill-rule:evenodd;stroke:#000000;stroke-width:2.0px;stroke-linecap:butt;stroke-linejoin:miter;stroke-opacity:1"/>
<path class="bond-15 atom-15 atom-16" d="M 33.1,94.8 L 14.7,104.7" style="fill:none;fill-rule:evenodd;stroke:#000000;stroke-width:2.0px;stroke-linecap:butt;stroke-linejoin:miter;stroke-opacity:1"/>
<path class="bond-16 atom-15 atom-17" d="M 33.1,94.8 L 33.7,73.9" style="fill:none;fill-rule:evenodd;stroke:#000000;stroke-width:2.0px;stroke-linecap:butt;stroke-linejoin:miter;stroke-opacity:1"/>
<path class="bond-17 atom-4 atom-18" d="M 214.1,99.9 L 214.7,79.0" style="fill:none;fill-rule:evenodd;stroke:#000000;stroke-width:2.0px;stroke-linecap:butt;stroke-linejoin:miter;stroke-opacity:1"/>
<path class="bond-17 atom-4 atom-18" d="M 217.3,98.2 L 217.8,80.9" style="fill:none;fill-rule:evenodd;stroke:#000000;stroke-width:2.0px;stroke-linecap:butt;stroke-linejoin:miter;stroke-opacity:1"/>
<path class="bond-18 atom-18 atom-19" d="M 214.7,79.0 L 233.2,69.1" style="fill:none;fill-rule:evenodd;stroke:#000000;stroke-width:2.0px;stroke-linecap:butt;stroke-linejoin:miter;stroke-opacity:1"/>
<path class="bond-19 atom-19 atom-20" d="M 233.2,69.1 L 251.0,80.1" style="fill:none;fill-rule:evenodd;stroke:#000000;stroke-width:2.0px;stroke-linecap:butt;stroke-linejoin:miter;stroke-opacity:1"/>
<path class="bond-19 atom-19 atom-20" d="M 233.1,72.7 L 247.8,81.8" style="fill:none;fill-rule:evenodd;stroke:#000000;stroke-width:2.0px;stroke-linecap:butt;stroke-linejoin:miter;stroke-opacity:1"/>
<path class="bond-20 atom-20 atom-21" d="M 251.0,80.1 L 258.5,76.0" style="fill:none;fill-rule:evenodd;stroke:#000000;stroke-width:2.0px;stroke-linecap:butt;stroke-linejoin:miter;stroke-opacity:1"/>
<path class="bond-20 atom-20 atom-21" d="M 258.5,76.0 L 266.0,72.0" style="fill:none;fill-rule:evenodd;stroke:#FF0000;stroke-width:2.0px;stroke-linecap:butt;stroke-linejoin:miter;stroke-opacity:1"/>
<path class="bond-21 atom-20 atom-2" d="M 251.0,80.1 L 250.4,101.0" style="fill:none;fill-rule:evenodd;stroke:#000000;stroke-width:2.0px;stroke-linecap:butt;stroke-linejoin:miter;stroke-opacity:1"/>
<path d="M 232.9,110.4 L 232.0,110.9 L 231.1,110.4" style="fill:none;stroke:#000000;stroke-width:2.0px;stroke-linecap:butt;stroke-linejoin:miter;stroke-opacity:1;"/>
<path d="M 196.7,109.4 L 195.7,109.9 L 195.4,109.7" style="fill:none;stroke:#000000;stroke-width:2.0px;stroke-linecap:butt;stroke-linejoin:miter;stroke-opacity:1;"/>
<path d="M 159.9,108.6 L 159.5,108.8 L 158.6,108.3" style="fill:none;stroke:#000000;stroke-width:2.0px;stroke-linecap:butt;stroke-linejoin:miter;stroke-opacity:1;"/>
<path d="M 142.6,98.4 L 141.7,97.9 L 140.8,98.4" style="fill:none;stroke:#000000;stroke-width:2.0px;stroke-linecap:butt;stroke-linejoin:miter;stroke-opacity:1;"/>
<path d="M 124.2,107.3 L 123.3,107.8 L 122.4,107.3" style="fill:none;stroke:#000000;stroke-width:2.0px;stroke-linecap:butt;stroke-linejoin:miter;stroke-opacity:1;"/>
<path d="M 106.4,97.4 L 105.5,96.8 L 104.6,97.3" style="fill:none;stroke:#000000;stroke-width:2.0px;stroke-linecap:butt;stroke-linejoin:miter;stroke-opacity:1;"/>
<path d="M 88.0,106.3 L 87.1,106.8 L 86.2,106.2" style="fill:none;stroke:#000000;stroke-width:2.0px;stroke-linecap:butt;stroke-linejoin:miter;stroke-opacity:1;"/>
<path d="M 70.2,96.3 L 69.3,95.8 L 68.4,96.3" style="fill:none;stroke:#000000;stroke-width:2.0px;stroke-linecap:butt;stroke-linejoin:miter;stroke-opacity:1;"/>
<path d="M 51.8,105.2 L 50.9,105.7 L 50.0,105.2" style="fill:none;stroke:#000000;stroke-width:2.0px;stroke-linecap:butt;stroke-linejoin:miter;stroke-opacity:1;"/>
<path d="M 214.7,80.1 L 214.7,79.0 L 215.7,78.5" style="fill:none;stroke:#000000;stroke-width:2.0px;stroke-linecap:butt;stroke-linejoin:miter;stroke-opacity:1;"/>
<path d="M 232.2,69.6 L 233.2,69.1 L 234.0,69.6" style="fill:none;stroke:#000000;stroke-width:2.0px;stroke-linecap:butt;stroke-linejoin:miter;stroke-opacity:1;"/>
<path class="atom-1" d="M 265.5 112.0 Q 265.5 110.5, 266.2 109.8 Q 266.9 109.0, 268.2 109.0 Q 269.5 109.0, 270.2 109.8 Q 270.9 110.5, 270.9 112.0 Q 270.9 113.4, 270.2 114.2 Q 269.5 115.0, 268.2 115.0 Q 266.9 115.0, 266.2 114.2 Q 265.5 113.4, 265.5 112.0 M 268.2 114.4 Q 269.1 114.4, 269.6 113.8 Q 270.1 113.2, 270.1 112.0 Q 270.1 110.8, 269.6 110.2 Q 269.1 109.6, 268.2 109.6 Q 267.3 109.6, 266.8 110.2 Q 266.3 110.8, 266.3 112.0 Q 266.3 113.2, 266.8 113.8 Q 267.3 114.4, 268.2 114.4 " fill="#FF0000"/>
<path class="atom-6" d="M 176.6 95.9 L 178.6 99.1 Q 178.8 99.4, 179.1 100.0 Q 179.4 100.5, 179.4 100.5 L 179.4 95.9 L 180.2 95.9 L 180.2 101.9 L 179.4 101.9 L 177.3 98.4 Q 177.0 98.0, 176.8 97.6 Q 176.5 97.1, 176.5 97.0 L 176.5 101.9 L 175.7 101.9 L 175.7 95.9 L 176.6 95.9 " fill="#0000FF"/>
<path class="atom-6" d="M 175.6 89.4 L 176.4 89.4 L 176.4 91.9 L 179.4 91.9 L 179.4 89.4 L 180.2 89.4 L 180.2 95.4 L 179.4 95.4 L 179.4 92.6 L 176.4 92.6 L 176.4 95.4 L 175.6 95.4 L 175.6 89.4 " fill="#0000FF"/>
<path class="atom-8" d="M 156.2 129.8 Q 156.2 128.3, 156.9 127.6 Q 157.6 126.8, 158.9 126.8 Q 160.2 126.8, 160.9 127.6 Q 161.6 128.3, 161.6 129.8 Q 161.6 131.2, 160.9 132.0 Q 160.2 132.8, 158.9 132.8 Q 157.6 132.8, 156.9 132.0 Q 156.2 131.2, 156.2 129.8 M 158.9 132.2 Q 159.8 132.2, 160.3 131.6 Q 160.8 131.0, 160.8 129.8 Q 160.8 128.6, 160.3 128.0 Q 159.8 127.4, 158.9 127.4 Q 158.0 127.4, 157.5 128.0 Q 157.0 128.6, 157.0 129.8 Q 157.0 131.0, 157.5 131.6 Q 158.0 132.2, 158.9 132.2 " fill="#FF0000"/>
<path class="atom-21" d="M 266.7 70.1 Q 266.7 68.7, 267.4 67.9 Q 268.1 67.1, 269.4 67.1 Q 270.7 67.1, 271.4 67.9 Q 272.1 68.7, 272.1 70.1 Q 272.1 71.6, 271.4 72.4 Q 270.7 73.2, 269.4 73.2 Q 268.1 73.2, 267.4 72.4 Q 266.7 71.6, 266.7 70.1 M 269.4 72.6 Q 270.3 72.6, 270.8 71.9 Q 271.3 71.3, 271.3 70.1 Q 271.3 69.0, 270.8 68.4 Q 270.3 67.8, 269.4 67.8 Q 268.5 67.8, 268.0 68.4 Q 267.5 69.0, 267.5 70.1 Q 267.5 71.3, 268.0 71.9 Q 268.5 72.6, 269.4 72.6 " fill="#FF0000"/>
<path class="atom-21" d="M 273.0 67.2 L 273.8 67.2 L 273.8 69.7 L 276.8 69.7 L 276.8 67.2 L 277.6 67.2 L 277.6 73.1 L 276.8 73.1 L 276.8 70.4 L 273.8 70.4 L 273.8 73.1 L 273.0 73.1 L 273.0 67.2 " fill="#FF0000"/>
</g>
    <g transform="translate(694.0, 0) scale(1 1) "><line x1="5" y1="100" x2="35" y2="100" style="stroke:rgb(0,0,0);stroke-width:2"/>
  <line x1="34" y1="100" x2="29" y2="95" style="stroke:rgb(0,0,0);stroke-width:2"/>
  <line x1="34" y1="100" x2="29" y2="105" style="stroke:rgb(0,0,0);stroke-width:2"/>
</g>
    <g transform="translate(734.0, 0) scale(1 1) "><!-- END OF HEADER -->
<rect style="opacity:1.0;fill:#FFFFFF;stroke:none" width="379.0" height="200.0" x="0.0" y="0.0"> </rect>
<path class="bond-0 atom-0 atom-1" d="M 18.8,103.5 L 29.9,96.6" style="fill:none;fill-rule:evenodd;stroke:#000000;stroke-width:2.0px;stroke-linecap:butt;stroke-linejoin:miter;stroke-opacity:1"/>
<path class="bond-1 atom-1 atom-2" d="M 29.9,96.6 L 29.5,83.5" style="fill:none;fill-rule:evenodd;stroke:#000000;stroke-width:2.0px;stroke-linecap:butt;stroke-linejoin:miter;stroke-opacity:1"/>
<path class="bond-2 atom-1 atom-3" d="M 29.9,96.6 L 41.4,102.7" style="fill:none;fill-rule:evenodd;stroke:#000000;stroke-width:2.0px;stroke-linecap:butt;stroke-linejoin:miter;stroke-opacity:1"/>
<path class="bond-3 atom-3 atom-4" d="M 41.4,102.7 L 52.5,95.8" style="fill:none;fill-rule:evenodd;stroke:#000000;stroke-width:2.0px;stroke-linecap:butt;stroke-linejoin:miter;stroke-opacity:1"/>
<path class="bond-3 atom-3 atom-4" d="M 41.4,100.5 L 51.5,94.2" style="fill:none;fill-rule:evenodd;stroke:#000000;stroke-width:2.0px;stroke-linecap:butt;stroke-linejoin:miter;stroke-opacity:1"/>
<path class="bond-4 atom-4 atom-5" d="M 52.5,95.8 L 64.0,102.0" style="fill:none;fill-rule:evenodd;stroke:#000000;stroke-width:2.0px;stroke-linecap:butt;stroke-linejoin:miter;stroke-opacity:1"/>
<path class="bond-5 atom-5 atom-6" d="M 64.0,102.0 L 75.1,95.1" style="fill:none;fill-rule:evenodd;stroke:#000000;stroke-width:2.0px;stroke-linecap:butt;stroke-linejoin:miter;stroke-opacity:1"/>
<path class="bond-6 atom-6 atom-7" d="M 75.1,95.1 L 86.6,101.2" style="fill:none;fill-rule:evenodd;stroke:#000000;stroke-width:2.0px;stroke-linecap:butt;stroke-linejoin:miter;stroke-opacity:1"/>
<path class="bond-7 atom-7 atom-8" d="M 86.6,101.2 L 97.7,94.3" style="fill:none;fill-rule:evenodd;stroke:#000000;stroke-width:2.0px;stroke-linecap:butt;stroke-linejoin:miter;stroke-opacity:1"/>
<path class="bond-8 atom-8 atom-9" d="M 97.7,94.3 L 109.2,100.4" style="fill:none;fill-rule:evenodd;stroke:#000000;stroke-width:2.0px;stroke-linecap:butt;stroke-linejoin:miter;stroke-opacity:1"/>
<path class="bond-9 atom-9 atom-10" d="M 108.2,99.9 L 108.4,105.4" style="fill:none;fill-rule:evenodd;stroke:#000000;stroke-width:2.0px;stroke-linecap:butt;stroke-linejoin:miter;stroke-opacity:1"/>
<path class="bond-9 atom-9 atom-10" d="M 108.4,105.4 L 108.6,110.9" style="fill:none;fill-rule:evenodd;stroke:#FF0000;stroke-width:2.0px;stroke-linecap:butt;stroke-linejoin:miter;stroke-opacity:1"/>
<path class="bond-9 atom-9 atom-10" d="M 110.2,99.8 L 110.4,105.3" style="fill:none;fill-rule:evenodd;stroke:#000000;stroke-width:2.0px;stroke-linecap:butt;stroke-linejoin:miter;stroke-opacity:1"/>
<path class="bond-9 atom-9 atom-10" d="M 110.4,105.3 L 110.6,110.9" style="fill:none;fill-rule:evenodd;stroke:#FF0000;stroke-width:2.0px;stroke-linecap:butt;stroke-linejoin:miter;stroke-opacity:1"/>
<path class="bond-10 atom-9 atom-11" d="M 109.2,100.4 L 113.9,97.5" style="fill:none;fill-rule:evenodd;stroke:#000000;stroke-width:2.0px;stroke-linecap:butt;stroke-linejoin:miter;stroke-opacity:1"/>
<path class="bond-10 atom-9 atom-11" d="M 113.9,97.5 L 118.5,94.6" style="fill:none;fill-rule:evenodd;stroke:#CCCC00;stroke-width:2.0px;stroke-linecap:butt;stroke-linejoin:miter;stroke-opacity:1"/>
<path class="bond-11 atom-11 atom-12" d="M 122.1,94.5 L 126.9,97.1" style="fill:none;fill-rule:evenodd;stroke:#CCCC00;stroke-width:2.0px;stroke-linecap:butt;stroke-linejoin:miter;stroke-opacity:1"/>
<path class="bond-11 atom-11 atom-12" d="M 126.9,97.1 L 131.8,99.7" style="fill:none;fill-rule:evenodd;stroke:#000000;stroke-width:2.0px;stroke-linecap:butt;stroke-linejoin:miter;stroke-opacity:1"/>
<path class="bond-12 atom-12 atom-13" d="M 131.8,99.7 L 142.9,92.8" style="fill:none;fill-rule:evenodd;stroke:#000000;stroke-width:2.0px;stroke-linecap:butt;stroke-linejoin:miter;stroke-opacity:1"/>
<path class="bond-13 atom-13 atom-14" d="M 142.9,92.8 L 147.6,95.3" style="fill:none;fill-rule:evenodd;stroke:#000000;stroke-width:2.0px;stroke-linecap:butt;stroke-linejoin:miter;stroke-opacity:1"/>
<path class="bond-13 atom-13 atom-14" d="M 147.6,95.3 L 152.4,97.8" style="fill:none;fill-rule:evenodd;stroke:#0000FF;stroke-width:2.0px;stroke-linecap:butt;stroke-linejoin:miter;stroke-opacity:1"/>
<path class="bond-14 atom-14 atom-15" d="M 156.4,97.6 L 161.0,94.8" style="fill:none;fill-rule:evenodd;stroke:#0000FF;stroke-width:2.0px;stroke-linecap:butt;stroke-linejoin:miter;stroke-opacity:1"/>
<path class="bond-14 atom-14 atom-15" d="M 161.0,94.8 L 165.5,92.0" style="fill:none;fill-rule:evenodd;stroke:#000000;stroke-width:2.0px;stroke-linecap:butt;stroke-linejoin:miter;stroke-opacity:1"/>
<path class="bond-15 atom-15 atom-16" d="M 166.5,92.5 L 166.3,87.0" style="fill:none;fill-rule:evenodd;stroke:#000000;stroke-width:2.0px;stroke-linecap:butt;stroke-linejoin:miter;stroke-opacity:1"/>
<path class="bond-15 atom-15 atom-16" d="M 166.3,87.0 L 166.1,81.6" style="fill:none;fill-rule:evenodd;stroke:#FF0000;stroke-width:2.0px;stroke-linecap:butt;stroke-linejoin:miter;stroke-opacity:1"/>
<path class="bond-15 atom-15 atom-16" d="M 164.5,92.6 L 164.3,87.1" style="fill:none;fill-rule:evenodd;stroke:#000000;stroke-width:2.0px;stroke-linecap:butt;stroke-linejoin:miter;stroke-opacity:1"/>
<path class="bond-15 atom-15 atom-16" d="M 164.3,87.1 L 164.1,81.6" style="fill:none;fill-rule:evenodd;stroke:#FF0000;stroke-width:2.0px;stroke-linecap:butt;stroke-linejoin:miter;stroke-opacity:1"/>
<path class="bond-16 atom-15 atom-17" d="M 165.5,92.0 L 177.0,98.1" style="fill:none;fill-rule:evenodd;stroke:#000000;stroke-width:2.0px;stroke-linecap:butt;stroke-linejoin:miter;stroke-opacity:1"/>
<path class="bond-17 atom-17 atom-18" d="M 177.0,98.1 L 188.1,91.2" style="fill:none;fill-rule:evenodd;stroke:#000000;stroke-width:2.0px;stroke-linecap:butt;stroke-linejoin:miter;stroke-opacity:1"/>
<path class="bond-18 atom-18 atom-19" d="M 188.1,91.2 L 192.8,93.7" style="fill:none;fill-rule:evenodd;stroke:#000000;stroke-width:2.0px;stroke-linecap:butt;stroke-linejoin:miter;stroke-opacity:1"/>
<path class="bond-18 atom-18 atom-19" d="M 192.8,93.7 L 197.5,96.3" style="fill:none;fill-rule:evenodd;stroke:#0000FF;stroke-width:2.0px;stroke-linecap:butt;stroke-linejoin:miter;stroke-opacity:1"/>
<path class="bond-19 atom-19 atom-20" d="M 201.6,96.1 L 206.1,93.3" style="fill:none;fill-rule:evenodd;stroke:#0000FF;stroke-width:2.0px;stroke-linecap:butt;stroke-linejoin:miter;stroke-opacity:1"/>
<path class="bond-19 atom-19 atom-20" d="M 206.1,93.3 L 210.7,90.5" style="fill:none;fill-rule:evenodd;stroke:#000000;stroke-width:2.0px;stroke-linecap:butt;stroke-linejoin:miter;stroke-opacity:1"/>
<path class="bond-20 atom-20 atom-21" d="M 211.7,91.0 L 211.5,85.5" style="fill:none;fill-rule:evenodd;stroke:#000000;stroke-width:2.0px;stroke-linecap:butt;stroke-linejoin:miter;stroke-opacity:1"/>
<path class="bond-20 atom-20 atom-21" d="M 211.5,85.5 L 211.3,80.0" style="fill:none;fill-rule:evenodd;stroke:#FF0000;stroke-width:2.0px;stroke-linecap:butt;stroke-linejoin:miter;stroke-opacity:1"/>
<path class="bond-20 atom-20 atom-21" d="M 209.7,91.0 L 209.5,85.6" style="fill:none;fill-rule:evenodd;stroke:#000000;stroke-width:2.0px;stroke-linecap:butt;stroke-linejoin:miter;stroke-opacity:1"/>
<path class="bond-20 atom-20 atom-21" d="M 209.5,85.6 L 209.3,80.1" style="fill:none;fill-rule:evenodd;stroke:#FF0000;stroke-width:2.0px;stroke-linecap:butt;stroke-linejoin:miter;stroke-opacity:1"/>
<path class="bond-21 atom-20 atom-22" d="M 210.7,90.5 L 222.2,96.6" style="fill:none;fill-rule:evenodd;stroke:#000000;stroke-width:2.0px;stroke-linecap:butt;stroke-linejoin:miter;stroke-opacity:1"/>
<path class="bond-22 atom-22 atom-23" d="M 222.2,96.6 L 222.4,101.8" style="fill:none;fill-rule:evenodd;stroke:#000000;stroke-width:2.0px;stroke-linecap:butt;stroke-linejoin:miter;stroke-opacity:1"/>
<path class="bond-22 atom-22 atom-23" d="M 222.4,101.8 L 222.5,107.1" style="fill:none;fill-rule:evenodd;stroke:#FF0000;stroke-width:2.0px;stroke-linecap:butt;stroke-linejoin:miter;stroke-opacity:1"/>
<path class="bond-23 atom-22 atom-24" d="M 222.2,96.6 L 233.3,89.7" style="fill:none;fill-rule:evenodd;stroke:#000000;stroke-width:2.0px;stroke-linecap:butt;stroke-linejoin:miter;stroke-opacity:1"/>
<path class="bond-24 atom-24 atom-25" d="M 233.3,89.7 L 226.4,78.6" style="fill:none;fill-rule:evenodd;stroke:#000000;stroke-width:2.0px;stroke-linecap:butt;stroke-linejoin:miter;stroke-opacity:1"/>
<path class="bond-25 atom-24 atom-26" d="M 233.3,89.7 L 240.2,100.8" style="fill:none;fill-rule:evenodd;stroke:#000000;stroke-width:2.0px;stroke-linecap:butt;stroke-linejoin:miter;stroke-opacity:1"/>
<path class="bond-26 atom-24 atom-27" d="M 233.3,89.7 L 244.3,82.8" style="fill:none;fill-rule:evenodd;stroke:#000000;stroke-width:2.0px;stroke-linecap:butt;stroke-linejoin:miter;stroke-opacity:1"/>
<path class="bond-27 atom-27 atom-28" d="M 244.3,82.8 L 244.2,77.6" style="fill:none;fill-rule:evenodd;stroke:#000000;stroke-width:2.0px;stroke-linecap:butt;stroke-linejoin:miter;stroke-opacity:1"/>
<path class="bond-27 atom-27 atom-28" d="M 244.2,77.6 L 244.0,72.4" style="fill:none;fill-rule:evenodd;stroke:#FF0000;stroke-width:2.0px;stroke-linecap:butt;stroke-linejoin:miter;stroke-opacity:1"/>
<path class="bond-28 atom-28 atom-29" d="M 246.3,68.2 L 249.7,66.1" style="fill:none;fill-rule:evenodd;stroke:#FF0000;stroke-width:2.0px;stroke-linecap:butt;stroke-linejoin:miter;stroke-opacity:1"/>
<path class="bond-28 atom-28 atom-29" d="M 249.7,66.1 L 253.2,63.9" style="fill:none;fill-rule:evenodd;stroke:#FF7F00;stroke-width:2.0px;stroke-linecap:butt;stroke-linejoin:miter;stroke-opacity:1"/>
<path class="bond-29 atom-29 atom-30" d="M 254.2,59.8 L 252.4,56.8" style="fill:none;fill-rule:evenodd;stroke:#FF7F00;stroke-width:2.0px;stroke-linecap:butt;stroke-linejoin:miter;stroke-opacity:1"/>
<path class="bond-29 atom-29 atom-30" d="M 252.4,56.8 L 250.5,53.9" style="fill:none;fill-rule:evenodd;stroke:#FF0000;stroke-width:2.0px;stroke-linecap:butt;stroke-linejoin:miter;stroke-opacity:1"/>
<path class="bond-29 atom-29 atom-30" d="M 252.5,60.8 L 250.7,57.9" style="fill:none;fill-rule:evenodd;stroke:#FF7F00;stroke-width:2.0px;stroke-linecap:butt;stroke-linejoin:miter;stroke-opacity:1"/>
<path class="bond-29 atom-29 atom-30" d="M 250.7,57.9 L 248.9,54.9" style="fill:none;fill-rule:evenodd;stroke:#FF0000;stroke-width:2.0px;stroke-linecap:butt;stroke-linejoin:miter;stroke-opacity:1"/>
<path class="bond-30 atom-29 atom-31" d="M 256.6,65.4 L 258.4,68.4" style="fill:none;fill-rule:evenodd;stroke:#FF7F00;stroke-width:2.0px;stroke-linecap:butt;stroke-linejoin:miter;stroke-opacity:1"/>
<path class="bond-30 atom-29 atom-31" d="M 258.4,68.4 L 260.3,71.3" style="fill:none;fill-rule:evenodd;stroke:#FF0000;stroke-width:2.0px;stroke-linecap:butt;stroke-linejoin:miter;stroke-opacity:1"/>
<path class="bond-31 atom-29 atom-32" d="M 256.8,61.7 L 260.2,59.6" style="fill:none;fill-rule:evenodd;stroke:#FF7F00;stroke-width:2.0px;stroke-linecap:butt;stroke-linejoin:miter;stroke-opacity:1"/>
<path class="bond-31 atom-29 atom-32" d="M 260.2,59.6 L 263.7,57.4" style="fill:none;fill-rule:evenodd;stroke:#FF0000;stroke-width:2.0px;stroke-linecap:butt;stroke-linejoin:miter;stroke-opacity:1"/>
<path class="bond-32 atom-32 atom-33" d="M 268.4,57.2 L 272.1,59.2" style="fill:none;fill-rule:evenodd;stroke:#FF0000;stroke-width:2.0px;stroke-linecap:butt;stroke-linejoin:miter;stroke-opacity:1"/>
<path class="bond-32 atom-32 atom-33" d="M 272.1,59.2 L 275.8,61.1" style="fill:none;fill-rule:evenodd;stroke:#FF7F00;stroke-width:2.0px;stroke-linecap:butt;stroke-linejoin:miter;stroke-opacity:1"/>
<path class="bond-33 atom-33 atom-34" d="M 275.3,64.2 L 273.6,67.3" style="fill:none;fill-rule:evenodd;stroke:#FF7F00;stroke-width:2.0px;stroke-linecap:butt;stroke-linejoin:miter;stroke-opacity:1"/>
<path class="bond-33 atom-33 atom-34" d="M 273.6,67.3 L 271.9,70.5" style="fill:none;fill-rule:evenodd;stroke:#FF0000;stroke-width:2.0px;stroke-linecap:butt;stroke-linejoin:miter;stroke-opacity:1"/>
<path class="bond-33 atom-33 atom-34" d="M 277.1,65.1 L 275.4,68.3" style="fill:none;fill-rule:evenodd;stroke:#FF7F00;stroke-width:2.0px;stroke-linecap:butt;stroke-linejoin:miter;stroke-opacity:1"/>
<path class="bond-33 atom-33 atom-34" d="M 275.4,68.3 L 273.7,71.5" style="fill:none;fill-rule:evenodd;stroke:#FF0000;stroke-width:2.0px;stroke-linecap:butt;stroke-linejoin:miter;stroke-opacity:1"/>
<path class="bond-34 atom-33 atom-35" d="M 278.9,59.5 L 280.6,56.3" style="fill:none;fill-rule:evenodd;stroke:#FF7F00;stroke-width:2.0px;stroke-linecap:butt;stroke-linejoin:miter;stroke-opacity:1"/>
<path class="bond-34 atom-33 atom-35" d="M 280.6,56.3 L 282.3,53.2" style="fill:none;fill-rule:evenodd;stroke:#FF0000;stroke-width:2.0px;stroke-linecap:butt;stroke-linejoin:miter;stroke-opacity:1"/>
<path class="bond-35 atom-33 atom-36" d="M 279.3,63.0 L 283.0,65.0" style="fill:none;fill-rule:evenodd;stroke:#FF7F00;stroke-width:2.0px;stroke-linecap:butt;stroke-linejoin:miter;stroke-opacity:1"/>
<path class="bond-35 atom-33 atom-36" d="M 283.0,65.0 L 286.7,66.9" style="fill:none;fill-rule:evenodd;stroke:#FF0000;stroke-width:2.0px;stroke-linecap:butt;stroke-linejoin:miter;stroke-opacity:1"/>
<path class="bond-36 atom-36 atom-37" d="M 289.2,70.8 L 289.3,76.0" style="fill:none;fill-rule:evenodd;stroke:#FF0000;stroke-width:2.0px;stroke-linecap:butt;stroke-linejoin:miter;stroke-opacity:1"/>
<path class="bond-36 atom-36 atom-37" d="M 289.3,76.0 L 289.5,81.2" style="fill:none;fill-rule:evenodd;stroke:#000000;stroke-width:2.0px;stroke-linecap:butt;stroke-linejoin:miter;stroke-opacity:1"/>
<path class="bond-37 atom-37 atom-38" d="M 289.5,81.2 L 301.0,87.4" style="fill:none;fill-rule:evenodd;stroke:#000000;stroke-width:2.0px;stroke-linecap:butt;stroke-linejoin:miter;stroke-opacity:1"/>
<path class="bond-38 atom-38 atom-39" d="M 301.0,87.4 L 301.8,92.6" style="fill:none;fill-rule:evenodd;stroke:#000000;stroke-width:2.0px;stroke-linecap:butt;stroke-linejoin:miter;stroke-opacity:1"/>
<path class="bond-38 atom-38 atom-39" d="M 301.8,92.6 L 302.5,97.7" style="fill:none;fill-rule:evenodd;stroke:#FF0000;stroke-width:2.0px;stroke-linecap:butt;stroke-linejoin:miter;stroke-opacity:1"/>
<path class="bond-39 atom-39 atom-40" d="M 305.2,100.7 L 310.5,101.7" style="fill:none;fill-rule:evenodd;stroke:#FF0000;stroke-width:2.0px;stroke-linecap:butt;stroke-linejoin:miter;stroke-opacity:1"/>
<path class="bond-39 atom-39 atom-40" d="M 310.5,101.7 L 315.7,102.6" style="fill:none;fill-rule:evenodd;stroke:#000000;stroke-width:2.0px;stroke-linecap:butt;stroke-linejoin:miter;stroke-opacity:1"/>
<path class="bond-40 atom-40 atom-41" d="M 315.7,102.6 L 317.9,107.2" style="fill:none;fill-rule:evenodd;stroke:#000000;stroke-width:2.0px;stroke-linecap:butt;stroke-linejoin:miter;stroke-opacity:1"/>
<path class="bond-40 atom-40 atom-41" d="M 317.9,107.2 L 320.2,111.8" style="fill:none;fill-rule:evenodd;stroke:#0000FF;stroke-width:2.0px;stroke-linecap:butt;stroke-linejoin:miter;stroke-opacity:1"/>
<path class="bond-41 atom-41 atom-42" d="M 320.0,116.9 L 317.6,121.4" style="fill:none;fill-rule:evenodd;stroke:#0000FF;stroke-width:2.0px;stroke-linecap:butt;stroke-linejoin:miter;stroke-opacity:1"/>
<path class="bond-41 atom-41 atom-42" d="M 317.6,121.4 L 315.3,125.8" style="fill:none;fill-rule:evenodd;stroke:#000000;stroke-width:2.0px;stroke-linecap:butt;stroke-linejoin:miter;stroke-opacity:1"/>
<path class="bond-42 atom-42 atom-43" d="M 315.3,125.8 L 318.8,129.5" style="fill:none;fill-rule:evenodd;stroke:#000000;stroke-width:2.0px;stroke-linecap:butt;stroke-linejoin:miter;stroke-opacity:1"/>
<path class="bond-42 atom-42 atom-43" d="M 318.8,129.5 L 322.3,133.1" style="fill:none;fill-rule:evenodd;stroke:#0000FF;stroke-width:2.0px;stroke-linecap:butt;stroke-linejoin:miter;stroke-opacity:1"/>
<path class="bond-42 atom-42 atom-43" d="M 317.7,125.5 L 320.7,128.6" style="fill:none;fill-rule:evenodd;stroke:#000000;stroke-width:2.0px;stroke-linecap:butt;stroke-linejoin:miter;stroke-opacity:1"/>
<path class="bond-42 atom-42 atom-43" d="M 320.7,128.6 L 323.7,131.8" style="fill:none;fill-rule:evenodd;stroke:#0000FF;stroke-width:2.0px;stroke-linecap:butt;stroke-linejoin:miter;stroke-opacity:1"/>
<path class="bond-43 atom-43 atom-44" d="M 326.4,134.2 L 331.2,131.9" style="fill:none;fill-rule:evenodd;stroke:#0000FF;stroke-width:2.0px;stroke-linecap:butt;stroke-linejoin:miter;stroke-opacity:1"/>
<path class="bond-43 atom-43 atom-44" d="M 331.2,131.9 L 336.1,129.5" style="fill:none;fill-rule:evenodd;stroke:#000000;stroke-width:2.0px;stroke-linecap:butt;stroke-linejoin:miter;stroke-opacity:1"/>
<path class="bond-44 atom-44 atom-45" d="M 336.1,129.5 L 348.2,134.4" style="fill:none;fill-rule:evenodd;stroke:#000000;stroke-width:2.0px;stroke-linecap:butt;stroke-linejoin:miter;stroke-opacity:1"/>
<path class="bond-44 atom-44 atom-45" d="M 337.8,128.1 L 347.8,132.2" style="fill:none;fill-rule:evenodd;stroke:#000000;stroke-width:2.0px;stroke-linecap:butt;stroke-linejoin:miter;stroke-opacity:1"/>
<path class="bond-45 atom-45 atom-46" d="M 348.2,134.4 L 348.9,139.6" style="fill:none;fill-rule:evenodd;stroke:#000000;stroke-width:2.0px;stroke-linecap:butt;stroke-linejoin:miter;stroke-opacity:1"/>
<path class="bond-45 atom-45 atom-46" d="M 348.9,139.6 L 349.6,144.8" style="fill:none;fill-rule:evenodd;stroke:#0000FF;stroke-width:2.0px;stroke-linecap:butt;stroke-linejoin:miter;stroke-opacity:1"/>
<path class="bond-46 atom-45 atom-47" d="M 348.2,134.4 L 352.3,131.2" style="fill:none;fill-rule:evenodd;stroke:#000000;stroke-width:2.0px;stroke-linecap:butt;stroke-linejoin:miter;stroke-opacity:1"/>
<path class="bond-46 atom-45 atom-47" d="M 352.3,131.2 L 356.4,128.0" style="fill:none;fill-rule:evenodd;stroke:#0000FF;stroke-width:2.0px;stroke-linecap:butt;stroke-linejoin:miter;stroke-opacity:1"/>
<path class="bond-47 atom-47 atom-48" d="M 358.1,123.9 L 357.4,118.7" style="fill:none;fill-rule:evenodd;stroke:#0000FF;stroke-width:2.0px;stroke-linecap:butt;stroke-linejoin:miter;stroke-opacity:1"/>
<path class="bond-47 atom-47 atom-48" d="M 357.4,118.7 L 356.6,113.5" style="fill:none;fill-rule:evenodd;stroke:#000000;stroke-width:2.0px;stroke-linecap:butt;stroke-linejoin:miter;stroke-opacity:1"/>
<path class="bond-47 atom-47 atom-48" d="M 356.1,124.1 L 355.5,119.5" style="fill:none;fill-rule:evenodd;stroke:#0000FF;stroke-width:2.0px;stroke-linecap:butt;stroke-linejoin:miter;stroke-opacity:1"/>
<path class="bond-47 atom-47 atom-48" d="M 355.5,119.5 L 354.9,114.9" style="fill:none;fill-rule:evenodd;stroke:#000000;stroke-width:2.0px;stroke-linecap:butt;stroke-linejoin:miter;stroke-opacity:1"/>
<path class="bond-48 atom-48 atom-49" d="M 356.6,113.5 L 351.6,111.4" style="fill:none;fill-rule:evenodd;stroke:#000000;stroke-width:2.0px;stroke-linecap:butt;stroke-linejoin:miter;stroke-opacity:1"/>
<path class="bond-48 atom-48 atom-49" d="M 351.6,111.4 L 346.6,109.4" style="fill:none;fill-rule:evenodd;stroke:#0000FF;stroke-width:2.0px;stroke-linecap:butt;stroke-linejoin:miter;stroke-opacity:1"/>
<path class="bond-49 atom-49 atom-50" d="M 342.5,110.2 L 338.4,113.4" style="fill:none;fill-rule:evenodd;stroke:#0000FF;stroke-width:2.0px;stroke-linecap:butt;stroke-linejoin:miter;stroke-opacity:1"/>
<path class="bond-49 atom-49 atom-50" d="M 338.4,113.4 L 334.3,116.6" style="fill:none;fill-rule:evenodd;stroke:#000000;stroke-width:2.0px;stroke-linecap:butt;stroke-linejoin:miter;stroke-opacity:1"/>
<path class="bond-49 atom-49 atom-50" d="M 343.7,111.7 L 340.0,114.6" style="fill:none;fill-rule:evenodd;stroke:#0000FF;stroke-width:2.0px;stroke-linecap:butt;stroke-linejoin:miter;stroke-opacity:1"/>
<path class="bond-49 atom-49 atom-50" d="M 340.0,114.6 L 336.3,117.5" style="fill:none;fill-rule:evenodd;stroke:#000000;stroke-width:2.0px;stroke-linecap:butt;stroke-linejoin:miter;stroke-opacity:1"/>
<path class="bond-50 atom-40 atom-51" d="M 315.7,102.6 L 321.8,91.1" style="fill:none;fill-rule:evenodd;stroke:#000000;stroke-width:2.0px;stroke-linecap:butt;stroke-linejoin:miter;stroke-opacity:1"/>
<path class="bond-51 atom-51 atom-52" d="M 321.8,91.1 L 327.1,90.3" style="fill:none;fill-rule:evenodd;stroke:#000000;stroke-width:2.0px;stroke-linecap:butt;stroke-linejoin:miter;stroke-opacity:1"/>
<path class="bond-51 atom-51 atom-52" d="M 327.1,90.3 L 332.4,89.6" style="fill:none;fill-rule:evenodd;stroke:#FF0000;stroke-width:2.0px;stroke-linecap:butt;stroke-linejoin:miter;stroke-opacity:1"/>
<path class="bond-52 atom-51 atom-53" d="M 321.8,91.1 L 312.8,81.7" style="fill:none;fill-rule:evenodd;stroke:#000000;stroke-width:2.0px;stroke-linecap:butt;stroke-linejoin:miter;stroke-opacity:1"/>
<path class="bond-53 atom-53 atom-54" d="M 312.8,81.7 L 313.7,76.6" style="fill:none;fill-rule:evenodd;stroke:#000000;stroke-width:2.0px;stroke-linecap:butt;stroke-linejoin:miter;stroke-opacity:1"/>
<path class="bond-53 atom-53 atom-54" d="M 313.7,76.6 L 314.6,71.5" style="fill:none;fill-rule:evenodd;stroke:#FF0000;stroke-width:2.0px;stroke-linecap:butt;stroke-linejoin:miter;stroke-opacity:1"/>
<path class="bond-54 atom-54 atom-55" d="M 317.4,68.0 L 321.5,66.5" style="fill:none;fill-rule:evenodd;stroke:#FF0000;stroke-width:2.0px;stroke-linecap:butt;stroke-linejoin:miter;stroke-opacity:1"/>
<path class="bond-54 atom-54 atom-55" d="M 321.5,66.5 L 325.5,65.0" style="fill:none;fill-rule:evenodd;stroke:#FF7F00;stroke-width:2.0px;stroke-linecap:butt;stroke-linejoin:miter;stroke-opacity:1"/>
<path class="bond-55 atom-55 atom-56" d="M 327.3,61.5 L 326.0,57.9" style="fill:none;fill-rule:evenodd;stroke:#FF7F00;stroke-width:2.0px;stroke-linecap:butt;stroke-linejoin:miter;stroke-opacity:1"/>
<path class="bond-55 atom-55 atom-56" d="M 326.0,57.9 L 324.7,54.4" style="fill:none;fill-rule:evenodd;stroke:#FF0000;stroke-width:2.0px;stroke-linecap:butt;stroke-linejoin:miter;stroke-opacity:1"/>
<path class="bond-55 atom-55 atom-56" d="M 325.5,62.1 L 324.2,58.6" style="fill:none;fill-rule:evenodd;stroke:#FF7F00;stroke-width:2.0px;stroke-linecap:butt;stroke-linejoin:miter;stroke-opacity:1"/>
<path class="bond-55 atom-55 atom-56" d="M 324.2,58.6 L 322.9,55.1" style="fill:none;fill-rule:evenodd;stroke:#FF0000;stroke-width:2.0px;stroke-linecap:butt;stroke-linejoin:miter;stroke-opacity:1"/>
<path class="bond-56 atom-55 atom-57" d="M 328.2,66.9 L 329.5,70.5" style="fill:none;fill-rule:evenodd;stroke:#FF7F00;stroke-width:2.0px;stroke-linecap:butt;stroke-linejoin:miter;stroke-opacity:1"/>
<path class="bond-56 atom-55 atom-57" d="M 329.5,70.5 L 330.8,74.1" style="fill:none;fill-rule:evenodd;stroke:#FF0000;stroke-width:2.0px;stroke-linecap:butt;stroke-linejoin:miter;stroke-opacity:1"/>
<path class="bond-57 atom-55 atom-58" d="M 329.1,63.7 L 333.2,62.3" style="fill:none;fill-rule:evenodd;stroke:#FF7F00;stroke-width:2.0px;stroke-linecap:butt;stroke-linejoin:miter;stroke-opacity:1"/>
<path class="bond-57 atom-55 atom-58" d="M 333.2,62.3 L 337.2,60.8" style="fill:none;fill-rule:evenodd;stroke:#FF0000;stroke-width:2.0px;stroke-linecap:butt;stroke-linejoin:miter;stroke-opacity:1"/>
<path class="bond-58 atom-53 atom-38" d="M 312.8,81.7 L 301.0,87.4" style="fill:none;fill-rule:evenodd;stroke:#000000;stroke-width:2.0px;stroke-linecap:butt;stroke-linejoin:miter;stroke-opacity:1"/>
<path class="bond-59 atom-50 atom-41" d="M 334.3,116.6 L 328.8,115.6" style="fill:none;fill-rule:evenodd;stroke:#000000;stroke-width:2.0px;stroke-linecap:butt;stroke-linejoin:miter;stroke-opacity:1"/>
<path class="bond-59 atom-50 atom-41" d="M 328.8,115.6 L 323.4,114.7" style="fill:none;fill-rule:evenodd;stroke:#0000FF;stroke-width:2.0px;stroke-linecap:butt;stroke-linejoin:miter;stroke-opacity:1"/>
<path class="bond-60 atom-50 atom-44" d="M 334.3,116.6 L 336.1,129.5" style="fill:none;fill-rule:evenodd;stroke:#000000;stroke-width:2.0px;stroke-linecap:butt;stroke-linejoin:miter;stroke-opacity:1"/>
<path d="M 40.9,102.4 L 41.4,102.7 L 42.0,102.4" style="fill:none;stroke:#000000;stroke-width:2.0px;stroke-linecap:butt;stroke-linejoin:miter;stroke-opacity:1;"/>
<path d="M 52.0,96.2 L 52.5,95.8 L 53.1,96.1" style="fill:none;stroke:#000000;stroke-width:2.0px;stroke-linecap:butt;stroke-linejoin:miter;stroke-opacity:1;"/>
<path d="M 63.5,101.7 L 64.0,102.0 L 64.6,101.6" style="fill:none;stroke:#000000;stroke-width:2.0px;stroke-linecap:butt;stroke-linejoin:miter;stroke-opacity:1;"/>
<path d="M 74.6,95.4 L 75.1,95.1 L 75.7,95.4" style="fill:none;stroke:#000000;stroke-width:2.0px;stroke-linecap:butt;stroke-linejoin:miter;stroke-opacity:1;"/>
<path d="M 86.0,100.9 L 86.6,101.2 L 87.2,100.8" style="fill:none;stroke:#000000;stroke-width:2.0px;stroke-linecap:butt;stroke-linejoin:miter;stroke-opacity:1;"/>
<path d="M 97.1,94.6 L 97.7,94.3 L 98.3,94.6" style="fill:none;stroke:#000000;stroke-width:2.0px;stroke-linecap:butt;stroke-linejoin:miter;stroke-opacity:1;"/>
<path d="M 108.6,100.1 L 109.2,100.4 L 109.4,100.3" style="fill:none;stroke:#000000;stroke-width:2.0px;stroke-linecap:butt;stroke-linejoin:miter;stroke-opacity:1;"/>
<path d="M 131.6,99.5 L 131.8,99.7 L 132.4,99.3" style="fill:none;stroke:#000000;stroke-width:2.0px;stroke-linecap:butt;stroke-linejoin:miter;stroke-opacity:1;"/>
<path d="M 142.3,93.1 L 142.9,92.8 L 143.1,92.9" style="fill:none;stroke:#000000;stroke-width:2.0px;stroke-linecap:butt;stroke-linejoin:miter;stroke-opacity:1;"/>
<path d="M 165.3,92.1 L 165.5,92.0 L 166.1,92.3" style="fill:none;stroke:#000000;stroke-width:2.0px;stroke-linecap:butt;stroke-linejoin:miter;stroke-opacity:1;"/>
<path d="M 176.4,97.8 L 177.0,98.1 L 177.5,97.8" style="fill:none;stroke:#000000;stroke-width:2.0px;stroke-linecap:butt;stroke-linejoin:miter;stroke-opacity:1;"/>
<path d="M 187.5,91.6 L 188.1,91.2 L 188.3,91.3" style="fill:none;stroke:#000000;stroke-width:2.0px;stroke-linecap:butt;stroke-linejoin:miter;stroke-opacity:1;"/>
<path d="M 210.4,90.6 L 210.7,90.5 L 211.2,90.8" style="fill:none;stroke:#000000;stroke-width:2.0px;stroke-linecap:butt;stroke-linejoin:miter;stroke-opacity:1;"/>
<path d="M 243.8,83.1 L 244.3,82.8 L 244.3,82.5" style="fill:none;stroke:#000000;stroke-width:2.0px;stroke-linecap:butt;stroke-linejoin:miter;stroke-opacity:1;"/>
<path d="M 289.5,81.0 L 289.5,81.2 L 290.1,81.6" style="fill:none;stroke:#000000;stroke-width:2.0px;stroke-linecap:butt;stroke-linejoin:miter;stroke-opacity:1;"/>
<path d="M 315.4,125.6 L 315.3,125.8 L 315.4,126.0" style="fill:none;stroke:#000000;stroke-width:2.0px;stroke-linecap:butt;stroke-linejoin:miter;stroke-opacity:1;"/>
<path d="M 356.7,113.7 L 356.6,113.5 L 356.4,113.4" style="fill:none;stroke:#000000;stroke-width:2.0px;stroke-linecap:butt;stroke-linejoin:miter;stroke-opacity:1;"/>
<path class="atom-10" d="M 107.7 113.5 Q 107.7 112.5, 108.2 111.9 Q 108.7 111.3, 109.7 111.3 Q 110.6 111.3, 111.1 111.9 Q 111.6 112.5, 111.6 113.5 Q 111.6 114.5, 111.1 115.1 Q 110.6 115.7, 109.7 115.7 Q 108.7 115.7, 108.2 115.1 Q 107.7 114.5, 107.7 113.5 M 109.7 115.2 Q 110.3 115.2, 110.7 114.8 Q 111.0 114.3, 111.0 113.5 Q 111.0 112.6, 110.7 112.2 Q 110.3 111.8, 109.7 111.8 Q 109.0 111.8, 108.7 112.2 Q 108.3 112.6, 108.3 113.5 Q 108.3 114.3, 108.7 114.8 Q 109.0 115.2, 109.7 115.2 " fill="#FF0000"/>
<path class="atom-11" d="M 119.1 95.0 Q 119.1 95.0, 119.3 95.1 Q 119.5 95.2, 119.8 95.2 Q 120.0 95.3, 120.2 95.3 Q 120.6 95.3, 120.8 95.1 Q 121.1 94.9, 121.1 94.5 Q 121.1 94.3, 120.9 94.2 Q 120.8 94.0, 120.6 93.9 Q 120.5 93.9, 120.2 93.8 Q 119.8 93.7, 119.6 93.5 Q 119.3 93.4, 119.2 93.2 Q 119.0 93.0, 119.0 92.6 Q 119.0 92.1, 119.4 91.7 Q 119.7 91.4, 120.5 91.4 Q 121.0 91.4, 121.5 91.6 L 121.4 92.1 Q 120.9 91.9, 120.5 91.9 Q 120.1 91.9, 119.8 92.1 Q 119.6 92.2, 119.6 92.5 Q 119.6 92.8, 119.7 92.9 Q 119.9 93.0, 120.0 93.1 Q 120.2 93.2, 120.5 93.3 Q 120.9 93.4, 121.1 93.5 Q 121.3 93.6, 121.5 93.9 Q 121.7 94.1, 121.7 94.5 Q 121.7 95.1, 121.3 95.4 Q 120.9 95.8, 120.2 95.8 Q 119.8 95.8, 119.5 95.7 Q 119.3 95.6, 118.9 95.5 L 119.1 95.0 " fill="#CCCC00"/>
<path class="atom-14" d="M 153.5 96.8 L 154.9 99.0 Q 155.0 99.2, 155.2 99.6 Q 155.4 100.0, 155.4 100.1 L 155.4 96.8 L 156.0 96.8 L 156.0 101.0 L 155.4 101.0 L 153.9 98.6 Q 153.8 98.3, 153.6 97.9 Q 153.4 97.6, 153.3 97.5 L 153.3 101.0 L 152.8 101.0 L 152.8 96.8 L 153.5 96.8 " fill="#0000FF"/>
<path class="atom-14" d="M 152.7 101.4 L 153.3 101.4 L 153.3 103.2 L 155.5 103.2 L 155.5 101.4 L 156.1 101.4 L 156.1 105.7 L 155.5 105.7 L 155.5 103.7 L 153.3 103.7 L 153.3 105.7 L 152.7 105.7 L 152.7 101.4 " fill="#0000FF"/>
<path class="atom-16" d="M 163.1 79.0 Q 163.1 77.9, 163.6 77.4 Q 164.1 76.8, 165.0 76.8 Q 166.0 76.8, 166.5 77.4 Q 167.0 77.9, 167.0 79.0 Q 167.0 80.0, 166.5 80.6 Q 166.0 81.2, 165.0 81.2 Q 164.1 81.2, 163.6 80.6 Q 163.1 80.0, 163.1 79.0 M 165.0 80.7 Q 165.7 80.7, 166.0 80.2 Q 166.4 79.8, 166.4 79.0 Q 166.4 78.1, 166.0 77.7 Q 165.7 77.3, 165.0 77.3 Q 164.4 77.3, 164.0 77.7 Q 163.7 78.1, 163.7 79.0 Q 163.7 79.8, 164.0 80.2 Q 164.4 80.7, 165.0 80.7 " fill="#FF0000"/>
<path class="atom-19" d="M 198.6 95.2 L 200.0 97.5 Q 200.2 97.7, 200.4 98.1 Q 200.6 98.5, 200.6 98.5 L 200.6 95.2 L 201.2 95.2 L 201.2 99.5 L 200.6 99.5 L 199.1 97.0 Q 198.9 96.7, 198.8 96.4 Q 198.6 96.1, 198.5 96.0 L 198.5 99.5 L 198.0 99.5 L 198.0 95.2 L 198.6 95.2 " fill="#0000FF"/>
<path class="atom-19" d="M 197.9 99.9 L 198.5 99.9 L 198.5 101.7 L 200.7 101.7 L 200.7 99.9 L 201.3 99.9 L 201.3 104.2 L 200.7 104.2 L 200.7 102.2 L 198.5 102.2 L 198.5 104.2 L 197.9 104.2 L 197.9 99.9 " fill="#0000FF"/>
<path class="atom-21" d="M 208.3 77.4 Q 208.3 76.4, 208.8 75.8 Q 209.3 75.3, 210.2 75.3 Q 211.2 75.3, 211.7 75.8 Q 212.2 76.4, 212.2 77.4 Q 212.2 78.5, 211.7 79.0 Q 211.2 79.6, 210.2 79.6 Q 209.3 79.6, 208.8 79.0 Q 208.3 78.5, 208.3 77.4 M 210.2 79.1 Q 210.9 79.1, 211.2 78.7 Q 211.6 78.3, 211.6 77.4 Q 211.6 76.6, 211.2 76.2 Q 210.9 75.7, 210.2 75.7 Q 209.6 75.7, 209.2 76.2 Q 208.9 76.6, 208.9 77.4 Q 208.9 78.3, 209.2 78.7 Q 209.6 79.1, 210.2 79.1 " fill="#FF0000"/>
<path class="atom-23" d="M 220.7 109.6 Q 220.7 108.6, 221.2 108.1 Q 221.7 107.5, 222.6 107.5 Q 223.6 107.5, 224.1 108.1 Q 224.6 108.6, 224.6 109.6 Q 224.6 110.7, 224.1 111.3 Q 223.6 111.8, 222.6 111.8 Q 221.7 111.8, 221.2 111.3 Q 220.7 110.7, 220.7 109.6 M 222.6 111.4 Q 223.3 111.4, 223.6 110.9 Q 224.0 110.5, 224.0 109.6 Q 224.0 108.8, 223.6 108.4 Q 223.3 108.0, 222.6 108.0 Q 222.0 108.0, 221.6 108.4 Q 221.3 108.8, 221.3 109.6 Q 221.3 110.5, 221.6 110.9 Q 222.0 111.4, 222.6 111.4 " fill="#FF0000"/>
<path class="atom-23" d="M 225.2 107.5 L 225.8 107.5 L 225.8 109.3 L 228.0 109.3 L 228.0 107.5 L 228.6 107.5 L 228.6 111.8 L 228.0 111.8 L 228.0 109.8 L 225.8 109.8 L 225.8 111.8 L 225.2 111.8 L 225.2 107.5 " fill="#FF0000"/>
<path class="atom-28" d="M 241.9 69.7 Q 241.9 68.7, 242.4 68.2 Q 242.9 67.6, 243.9 67.6 Q 244.8 67.6, 245.3 68.2 Q 245.8 68.7, 245.8 69.7 Q 245.8 70.8, 245.3 71.4 Q 244.8 71.9, 243.9 71.9 Q 243.0 71.9, 242.4 71.4 Q 241.9 70.8, 241.9 69.7 M 243.9 71.5 Q 244.5 71.5, 244.9 71.0 Q 245.2 70.6, 245.2 69.7 Q 245.2 68.9, 244.9 68.5 Q 244.5 68.1, 243.9 68.1 Q 243.2 68.1, 242.9 68.5 Q 242.5 68.9, 242.5 69.7 Q 242.5 70.6, 242.9 71.0 Q 243.2 71.5, 243.9 71.5 " fill="#FF0000"/>
<path class="atom-29" d="M 254.9 60.7 Q 255.6 60.7, 256.0 61.0 Q 256.3 61.4, 256.3 62.0 Q 256.3 62.5, 255.9 62.9 Q 255.6 63.2, 254.9 63.2 L 254.2 63.2 L 254.2 65.0 L 253.6 65.0 L 253.6 60.7 L 254.9 60.7 M 254.9 62.7 Q 255.3 62.7, 255.5 62.5 Q 255.7 62.3, 255.7 62.0 Q 255.7 61.6, 255.5 61.4 Q 255.3 61.2, 254.9 61.2 L 254.2 61.2 L 254.2 62.7 L 254.9 62.7 " fill="#FF7F00"/>
<path class="atom-30" d="M 246.1 51.8 Q 246.1 50.7, 246.6 50.2 Q 247.1 49.6, 248.1 49.6 Q 249.0 49.6, 249.5 50.2 Q 250.0 50.7, 250.0 51.8 Q 250.0 52.8, 249.5 53.4 Q 249.0 54.0, 248.1 54.0 Q 247.1 54.0, 246.6 53.4 Q 246.1 52.8, 246.1 51.8 M 248.1 53.5 Q 248.7 53.5, 249.1 53.1 Q 249.4 52.6, 249.4 51.8 Q 249.4 50.9, 249.1 50.5 Q 248.7 50.1, 248.1 50.1 Q 247.4 50.1, 247.1 50.5 Q 246.7 50.9, 246.7 51.8 Q 246.7 52.6, 247.1 53.1 Q 247.4 53.5, 248.1 53.5 " fill="#FF0000"/>
<path class="atom-31" d="M 259.9 73.9 Q 259.9 72.9, 260.4 72.3 Q 260.9 71.8, 261.9 71.8 Q 262.8 71.8, 263.3 72.3 Q 263.8 72.9, 263.8 73.9 Q 263.8 74.9, 263.3 75.5 Q 262.8 76.1, 261.9 76.1 Q 260.9 76.1, 260.4 75.5 Q 259.9 75.0, 259.9 73.9 M 261.9 75.6 Q 262.5 75.6, 262.9 75.2 Q 263.2 74.8, 263.2 73.9 Q 263.2 73.1, 262.9 72.7 Q 262.5 72.2, 261.9 72.2 Q 261.2 72.2, 260.9 72.7 Q 260.5 73.1, 260.5 73.9 Q 260.5 74.8, 260.9 75.2 Q 261.2 75.6, 261.9 75.6 " fill="#FF0000"/>
<path class="atom-31" d="M 264.5 71.8 L 265.1 71.8 L 265.1 73.6 L 267.2 73.6 L 267.2 71.8 L 267.8 71.8 L 267.8 76.1 L 267.2 76.1 L 267.2 74.1 L 265.1 74.1 L 265.1 76.1 L 264.5 76.1 L 264.5 71.8 " fill="#FF0000"/>
<path class="atom-32" d="M 264.1 55.9 Q 264.1 54.9, 264.6 54.3 Q 265.1 53.8, 266.0 53.8 Q 267.0 53.8, 267.5 54.3 Q 268.0 54.9, 268.0 55.9 Q 268.0 57.0, 267.5 57.6 Q 267.0 58.1, 266.0 58.1 Q 265.1 58.1, 264.6 57.6 Q 264.1 57.0, 264.1 55.9 M 266.0 57.7 Q 266.7 57.7, 267.0 57.2 Q 267.4 56.8, 267.4 55.9 Q 267.4 55.1, 267.0 54.7 Q 266.7 54.3, 266.0 54.3 Q 265.4 54.3, 265.0 54.7 Q 264.7 55.1, 264.7 55.9 Q 264.7 56.8, 265.0 57.2 Q 265.4 57.7, 266.0 57.7 " fill="#FF0000"/>
<path class="atom-33" d="M 277.5 59.9 Q 278.2 59.9, 278.5 60.3 Q 278.9 60.6, 278.9 61.2 Q 278.9 61.8, 278.5 62.1 Q 278.2 62.4, 277.5 62.4 L 276.8 62.4 L 276.8 64.2 L 276.2 64.2 L 276.2 59.9 L 277.5 59.9 M 277.5 62.0 Q 277.9 62.0, 278.1 61.8 Q 278.3 61.6, 278.3 61.2 Q 278.3 60.8, 278.1 60.6 Q 277.9 60.4, 277.5 60.4 L 276.8 60.4 L 276.8 62.0 L 277.5 62.0 " fill="#FF7F00"/>
<path class="atom-34" d="M 269.5 73.6 Q 269.5 72.6, 270.0 72.0 Q 270.5 71.4, 271.4 71.4 Q 272.4 71.4, 272.9 72.0 Q 273.4 72.6, 273.4 73.6 Q 273.4 74.6, 272.9 75.2 Q 272.3 75.8, 271.4 75.8 Q 270.5 75.8, 270.0 75.2 Q 269.5 74.6, 269.5 73.6 M 271.4 75.3 Q 272.1 75.3, 272.4 74.9 Q 272.8 74.4, 272.8 73.6 Q 272.8 72.8, 272.4 72.3 Q 272.1 71.9, 271.4 71.9 Q 270.8 71.9, 270.4 72.3 Q 270.1 72.8, 270.1 73.6 Q 270.1 74.4, 270.4 74.9 Q 270.8 75.3, 271.4 75.3 " fill="#FF0000"/>
<path class="atom-35" d="M 281.7 50.6 Q 281.7 49.5, 282.2 49.0 Q 282.8 48.4, 283.7 48.4 Q 284.6 48.4, 285.1 49.0 Q 285.6 49.5, 285.6 50.6 Q 285.6 51.6, 285.1 52.2 Q 284.6 52.8, 283.7 52.8 Q 282.8 52.8, 282.2 52.2 Q 281.7 51.6, 281.7 50.6 M 283.7 52.3 Q 284.3 52.3, 284.7 51.8 Q 285.0 51.4, 285.0 50.6 Q 285.0 49.7, 284.7 49.3 Q 284.3 48.9, 283.7 48.9 Q 283.0 48.9, 282.7 49.3 Q 282.3 49.7, 282.3 50.6 Q 282.3 51.4, 282.7 51.8 Q 283.0 52.3, 283.7 52.3 " fill="#FF0000"/>
<path class="atom-35" d="M 286.3 48.4 L 286.9 48.4 L 286.9 50.2 L 289.1 50.2 L 289.1 48.4 L 289.6 48.4 L 289.6 52.7 L 289.1 52.7 L 289.1 50.7 L 286.9 50.7 L 286.9 52.7 L 286.3 52.7 L 286.3 48.4 " fill="#FF0000"/>
<path class="atom-36" d="M 287.1 68.2 Q 287.1 67.2, 287.6 66.6 Q 288.1 66.1, 289.1 66.1 Q 290.0 66.1, 290.5 66.6 Q 291.0 67.2, 291.0 68.2 Q 291.0 69.2, 290.5 69.8 Q 290.0 70.4, 289.1 70.4 Q 288.1 70.4, 287.6 69.8 Q 287.1 69.3, 287.1 68.2 M 289.1 69.9 Q 289.7 69.9, 290.1 69.5 Q 290.4 69.1, 290.4 68.2 Q 290.4 67.4, 290.1 67.0 Q 289.7 66.5, 289.1 66.5 Q 288.4 66.5, 288.1 67.0 Q 287.7 67.4, 287.7 68.2 Q 287.7 69.1, 288.1 69.5 Q 288.4 69.9, 289.1 69.9 " fill="#FF0000"/>
<path class="atom-39" d="M 300.9 100.3 Q 300.9 99.3, 301.4 98.7 Q 301.9 98.2, 302.8 98.2 Q 303.8 98.2, 304.3 98.7 Q 304.8 99.3, 304.8 100.3 Q 304.8 101.4, 304.3 101.9 Q 303.8 102.5, 302.8 102.5 Q 301.9 102.5, 301.4 101.9 Q 300.9 101.4, 300.9 100.3 M 302.8 102.0 Q 303.5 102.0, 303.8 101.6 Q 304.2 101.2, 304.2 100.3 Q 304.2 99.5, 303.8 99.1 Q 303.5 98.6, 302.8 98.6 Q 302.2 98.6, 301.8 99.1 Q 301.5 99.5, 301.5 100.3 Q 301.5 101.2, 301.8 101.6 Q 302.2 102.0, 302.8 102.0 " fill="#FF0000"/>
<path class="atom-41" d="M 320.5 112.2 L 321.9 114.4 Q 322.0 114.7, 322.2 115.1 Q 322.4 115.5, 322.4 115.5 L 322.4 112.2 L 323.0 112.2 L 323.0 116.4 L 322.4 116.4 L 320.9 114.0 Q 320.8 113.7, 320.6 113.4 Q 320.4 113.0, 320.3 112.9 L 320.3 116.4 L 319.8 116.4 L 319.8 112.2 L 320.5 112.2 " fill="#0000FF"/>
<path class="atom-43" d="M 323.4 133.1 L 324.8 135.4 Q 324.9 135.6, 325.1 136.0 Q 325.4 136.4, 325.4 136.4 L 325.4 133.1 L 325.9 133.1 L 325.9 137.4 L 325.3 137.4 L 323.9 134.9 Q 323.7 134.6, 323.5 134.3 Q 323.3 134.0, 323.3 133.9 L 323.3 137.4 L 322.7 137.4 L 322.7 133.1 L 323.4 133.1 " fill="#0000FF"/>
<path class="atom-46" d="M 349.0 145.2 L 350.4 147.5 Q 350.5 147.7, 350.8 148.1 Q 351.0 148.5, 351.0 148.5 L 351.0 145.2 L 351.6 145.2 L 351.6 149.5 L 351.0 149.5 L 349.5 147.0 Q 349.3 146.7, 349.1 146.4 Q 348.9 146.1, 348.9 146.0 L 348.9 149.5 L 348.3 149.5 L 348.3 145.2 L 349.0 145.2 " fill="#0000FF"/>
<path class="atom-46" d="M 352.4 145.2 L 353.0 145.2 L 353.0 147.0 L 355.1 147.0 L 355.1 145.2 L 355.7 145.2 L 355.7 149.5 L 355.1 149.5 L 355.1 147.5 L 353.0 147.5 L 353.0 149.5 L 352.4 149.5 L 352.4 145.2 " fill="#0000FF"/>
<path class="atom-46" d="M 356.5 149.3 Q 356.6 149.1, 356.9 148.9 Q 357.1 148.8, 357.5 148.8 Q 357.9 148.8, 358.1 149.0 Q 358.4 149.2, 358.4 149.6 Q 358.4 150.1, 358.1 150.4 Q 357.8 150.8, 357.1 151.3 L 358.4 151.3 L 358.4 151.6 L 356.5 151.6 L 356.5 151.3 Q 357.0 151.0, 357.4 150.7 Q 357.7 150.4, 357.8 150.2 Q 358.0 149.9, 358.0 149.7 Q 358.0 149.4, 357.8 149.2 Q 357.7 149.1, 357.5 149.1 Q 357.2 149.1, 357.1 149.2 Q 356.9 149.3, 356.8 149.5 L 356.5 149.3 " fill="#0000FF"/>
<path class="atom-47" d="M 357.5 124.3 L 358.9 126.5 Q 359.0 126.8, 359.3 127.2 Q 359.5 127.6, 359.5 127.6 L 359.5 124.3 L 360.1 124.3 L 360.1 128.5 L 359.5 128.5 L 358.0 126.1 Q 357.8 125.8, 357.6 125.5 Q 357.4 125.1, 357.4 125.0 L 357.4 128.5 L 356.8 128.5 L 356.8 124.3 L 357.5 124.3 " fill="#0000FF"/>
<path class="atom-49" d="M 343.6 106.5 L 345.0 108.7 Q 345.1 108.9, 345.4 109.3 Q 345.6 109.7, 345.6 109.8 L 345.6 106.5 L 346.2 106.5 L 346.2 110.7 L 345.6 110.7 L 344.1 108.2 Q 343.9 108.0, 343.7 107.6 Q 343.5 107.3, 343.5 107.2 L 343.5 110.7 L 342.9 110.7 L 342.9 106.5 L 343.6 106.5 " fill="#0000FF"/>
<path class="atom-52" d="M 332.8 89.3 Q 332.8 88.3, 333.3 87.7 Q 333.8 87.1, 334.8 87.1 Q 335.7 87.1, 336.2 87.7 Q 336.7 88.3, 336.7 89.3 Q 336.7 90.3, 336.2 90.9 Q 335.7 91.5, 334.8 91.5 Q 333.8 91.5, 333.3 90.9 Q 332.8 90.3, 332.8 89.3 M 334.8 91.0 Q 335.4 91.0, 335.8 90.6 Q 336.1 90.1, 336.1 89.3 Q 336.1 88.4, 335.8 88.0 Q 335.4 87.6, 334.8 87.6 Q 334.1 87.6, 333.8 88.0 Q 333.4 88.4, 333.4 89.3 Q 333.4 90.1, 333.8 90.6 Q 334.1 91.0, 334.8 91.0 " fill="#FF0000"/>
<path class="atom-52" d="M 337.4 87.2 L 337.9 87.2 L 337.9 89.0 L 340.1 89.0 L 340.1 87.2 L 340.7 87.2 L 340.7 91.4 L 340.1 91.4 L 340.1 89.5 L 337.9 89.5 L 337.9 91.4 L 337.4 91.4 L 337.4 87.2 " fill="#FF0000"/>
<path class="atom-54" d="M 313.1 68.8 Q 313.1 67.8, 313.6 67.2 Q 314.1 66.7, 315.1 66.7 Q 316.0 66.7, 316.5 67.2 Q 317.0 67.8, 317.0 68.8 Q 317.0 69.9, 316.5 70.5 Q 316.0 71.0, 315.1 71.0 Q 314.1 71.0, 313.6 70.5 Q 313.1 69.9, 313.1 68.8 M 315.1 70.6 Q 315.7 70.6, 316.0 70.1 Q 316.4 69.7, 316.4 68.8 Q 316.4 68.0, 316.0 67.6 Q 315.7 67.2, 315.1 67.2 Q 314.4 67.2, 314.0 67.6 Q 313.7 68.0, 313.7 68.8 Q 313.7 69.7, 314.0 70.1 Q 314.4 70.6, 315.1 70.6 " fill="#FF0000"/>
<path class="atom-55" d="M 327.2 62.2 Q 327.9 62.2, 328.3 62.6 Q 328.7 62.9, 328.7 63.5 Q 328.7 64.1, 328.3 64.4 Q 327.9 64.7, 327.2 64.7 L 326.5 64.7 L 326.5 66.5 L 326.0 66.5 L 326.0 62.2 L 327.2 62.2 M 327.2 64.3 Q 327.6 64.3, 327.9 64.1 Q 328.1 63.9, 328.1 63.5 Q 328.1 63.1, 327.9 62.9 Q 327.6 62.7, 327.2 62.7 L 326.5 62.7 L 326.5 64.3 L 327.2 64.3 " fill="#FF7F00"/>
<path class="atom-56" d="M 320.9 52.1 Q 320.9 51.1, 321.4 50.5 Q 321.9 50.0, 322.9 50.0 Q 323.8 50.0, 324.3 50.5 Q 324.8 51.1, 324.8 52.1 Q 324.8 53.1, 324.3 53.7 Q 323.8 54.3, 322.9 54.3 Q 321.9 54.3, 321.4 53.7 Q 320.9 53.2, 320.9 52.1 M 322.9 53.8 Q 323.5 53.8, 323.9 53.4 Q 324.2 53.0, 324.2 52.1 Q 324.2 51.3, 323.9 50.9 Q 323.5 50.4, 322.9 50.4 Q 322.2 50.4, 321.9 50.9 Q 321.5 51.3, 321.5 52.1 Q 321.5 53.0, 321.9 53.4 Q 322.2 53.8, 322.9 53.8 " fill="#FF0000"/>
<path class="atom-57" d="M 329.8 76.7 Q 329.8 75.6, 330.3 75.1 Q 330.8 74.5, 331.8 74.5 Q 332.7 74.5, 333.2 75.1 Q 333.7 75.6, 333.7 76.7 Q 333.7 77.7, 333.2 78.3 Q 332.7 78.9, 331.8 78.9 Q 330.8 78.9, 330.3 78.3 Q 329.8 77.7, 329.8 76.7 M 331.8 78.4 Q 332.4 78.4, 332.8 77.9 Q 333.1 77.5, 333.1 76.7 Q 333.1 75.8, 332.8 75.4 Q 332.4 75.0, 331.8 75.0 Q 331.1 75.0, 330.8 75.4 Q 330.4 75.8, 330.4 76.7 Q 330.4 77.5, 330.8 77.9 Q 331.1 78.4, 331.8 78.4 " fill="#FF0000"/>
<path class="atom-57" d="M 334.4 74.5 L 335.0 74.5 L 335.0 76.3 L 337.1 76.3 L 337.1 74.5 L 337.7 74.5 L 337.7 78.8 L 337.1 78.8 L 337.1 76.8 L 335.0 76.8 L 335.0 78.8 L 334.4 78.8 L 334.4 74.5 " fill="#FF0000"/>
<path class="atom-58" d="M 337.6 59.9 Q 337.6 58.9, 338.1 58.3 Q 338.6 57.8, 339.6 57.8 Q 340.5 57.8, 341.0 58.3 Q 341.5 58.9, 341.5 59.9 Q 341.5 61.0, 341.0 61.5 Q 340.5 62.1, 339.6 62.1 Q 338.7 62.1, 338.1 61.5 Q 337.6 61.0, 337.6 59.9 M 339.6 61.7 Q 340.2 61.7, 340.6 61.2 Q 340.9 60.8, 340.9 59.9 Q 340.9 59.1, 340.6 58.7 Q 340.2 58.2, 339.6 58.2 Q 338.9 58.2, 338.6 58.7 Q 338.2 59.1, 338.2 59.9 Q 338.2 60.8, 338.6 61.2 Q 338.9 61.7, 339.6 61.7 " fill="#FF0000"/>
<path class="atom-58" d="M 342.2 57.8 L 342.8 57.8 L 342.8 59.6 L 344.9 59.6 L 344.9 57.8 L 345.5 57.8 L 345.5 62.1 L 344.9 62.1 L 344.9 60.1 L 342.8 60.1 L 342.8 62.1 L 342.2 62.1 L 342.2 57.8 " fill="#FF0000"/>
</g>
    <g transform="translate(1113.0, 0) scale(1 1) "><line x1="15" y1="100" x2="25" y2="100" style="stroke:rgb(0,0,0);stroke-width:2"/>
  <line x1="20" y1="95" x2="20" y2="105" style="stroke:rgb(0,0,0);stroke-width:2"/>
</g>
    <g transform="translate(1153.0, 0) scale(1 1) "><!-- END OF HEADER -->
<rect style="opacity:1.0;fill:#FFFFFF;stroke:none" width="233.0" height="200.0" x="0.0" y="0.0"> </rect>
<path class="bond-0 atom-0 atom-1" d="M 206.4,162.5 L 206.2,146.2" style="fill:none;fill-rule:evenodd;stroke:#000000;stroke-width:2.0px;stroke-linecap:butt;stroke-linejoin:miter;stroke-opacity:1"/>
<path class="bond-0 atom-0 atom-1" d="M 206.2,146.2 L 206.0,129.9" style="fill:none;fill-rule:evenodd;stroke:#FF0000;stroke-width:2.0px;stroke-linecap:butt;stroke-linejoin:miter;stroke-opacity:1"/>
<path class="bond-1 atom-1 atom-2" d="M 199.4,119.1 L 185.3,111.2" style="fill:none;fill-rule:evenodd;stroke:#FF0000;stroke-width:2.0px;stroke-linecap:butt;stroke-linejoin:miter;stroke-opacity:1"/>
<path class="bond-1 atom-1 atom-2" d="M 185.3,111.2 L 171.2,103.3" style="fill:none;fill-rule:evenodd;stroke:#000000;stroke-width:2.0px;stroke-linecap:butt;stroke-linejoin:miter;stroke-opacity:1"/>
<path class="bond-2 atom-2 atom-3" d="M 171.2,103.3 L 137.0,123.6" style="fill:none;fill-rule:evenodd;stroke:#000000;stroke-width:2.0px;stroke-linecap:butt;stroke-linejoin:miter;stroke-opacity:1"/>
<path class="bond-2 atom-2 atom-3" d="M 165.2,99.9 L 136.9,116.7" style="fill:none;fill-rule:evenodd;stroke:#000000;stroke-width:2.0px;stroke-linecap:butt;stroke-linejoin:miter;stroke-opacity:1"/>
<path class="bond-3 atom-3 atom-4" d="M 137.0,123.6 L 102.3,104.1" style="fill:none;fill-rule:evenodd;stroke:#000000;stroke-width:2.0px;stroke-linecap:butt;stroke-linejoin:miter;stroke-opacity:1"/>
<path class="bond-4 atom-4 atom-5" d="M 102.3,104.1 L 68.1,124.5" style="fill:none;fill-rule:evenodd;stroke:#000000;stroke-width:2.0px;stroke-linecap:butt;stroke-linejoin:miter;stroke-opacity:1"/>
<path class="bond-5 atom-5 atom-6" d="M 68.1,124.5 L 53.5,116.3" style="fill:none;fill-rule:evenodd;stroke:#000000;stroke-width:2.0px;stroke-linecap:butt;stroke-linejoin:miter;stroke-opacity:1"/>
<path class="bond-5 atom-5 atom-6" d="M 53.5,116.3 L 39.0,108.1" style="fill:none;fill-rule:evenodd;stroke:#0000FF;stroke-width:2.0px;stroke-linecap:butt;stroke-linejoin:miter;stroke-opacity:1"/>
<path class="bond-6 atom-4 atom-7" d="M 102.3,104.1 L 101.8,64.4" style="fill:none;fill-rule:evenodd;stroke:#000000;stroke-width:2.0px;stroke-linecap:butt;stroke-linejoin:miter;stroke-opacity:1"/>
<path class="bond-6 atom-4 atom-7" d="M 108.2,100.6 L 107.8,67.7" style="fill:none;fill-rule:evenodd;stroke:#000000;stroke-width:2.0px;stroke-linecap:butt;stroke-linejoin:miter;stroke-opacity:1"/>
<path class="bond-7 atom-7 atom-8" d="M 101.8,64.4 L 136.0,44.0" style="fill:none;fill-rule:evenodd;stroke:#000000;stroke-width:2.0px;stroke-linecap:butt;stroke-linejoin:miter;stroke-opacity:1"/>
<path class="bond-8 atom-8 atom-9" d="M 136.0,44.0 L 170.7,63.5" style="fill:none;fill-rule:evenodd;stroke:#000000;stroke-width:2.0px;stroke-linecap:butt;stroke-linejoin:miter;stroke-opacity:1"/>
<path class="bond-8 atom-8 atom-9" d="M 136.1,50.9 L 164.8,67.0" style="fill:none;fill-rule:evenodd;stroke:#000000;stroke-width:2.0px;stroke-linecap:butt;stroke-linejoin:miter;stroke-opacity:1"/>
<path class="bond-9 atom-9 atom-10" d="M 170.7,63.5 L 184.6,55.3" style="fill:none;fill-rule:evenodd;stroke:#000000;stroke-width:2.0px;stroke-linecap:butt;stroke-linejoin:miter;stroke-opacity:1"/>
<path class="bond-9 atom-9 atom-10" d="M 184.6,55.3 L 198.4,47.0" style="fill:none;fill-rule:evenodd;stroke:#FF0000;stroke-width:2.0px;stroke-linecap:butt;stroke-linejoin:miter;stroke-opacity:1"/>
<path class="bond-10 atom-9 atom-2" d="M 170.7,63.5 L 171.2,103.3" style="fill:none;fill-rule:evenodd;stroke:#000000;stroke-width:2.0px;stroke-linecap:butt;stroke-linejoin:miter;stroke-opacity:1"/>
<path d="M 138.7,122.6 L 137.0,123.6 L 135.3,122.6" style="fill:none;stroke:#000000;stroke-width:2.0px;stroke-linecap:butt;stroke-linejoin:miter;stroke-opacity:1;"/>
<path d="M 69.8,123.5 L 68.1,124.5 L 67.4,124.1" style="fill:none;stroke:#000000;stroke-width:2.0px;stroke-linecap:butt;stroke-linejoin:miter;stroke-opacity:1;"/>
<path d="M 101.8,66.4 L 101.8,64.4 L 103.5,63.3" style="fill:none;stroke:#000000;stroke-width:2.0px;stroke-linecap:butt;stroke-linejoin:miter;stroke-opacity:1;"/>
<path d="M 134.3,45.1 L 136.0,44.0 L 137.7,45.0" style="fill:none;stroke:#000000;stroke-width:2.0px;stroke-linecap:butt;stroke-linejoin:miter;stroke-opacity:1;"/>
<path class="atom-1" d="M 200.7 122.8 Q 200.7 120.1, 202.1 118.6 Q 203.4 117.0, 205.9 117.0 Q 208.4 117.0, 209.7 118.6 Q 211.1 120.1, 211.1 122.8 Q 211.1 125.5, 209.7 127.1 Q 208.4 128.6, 205.9 128.6 Q 203.4 128.6, 202.1 127.1 Q 200.7 125.5, 200.7 122.8 M 205.9 127.3 Q 207.6 127.3, 208.5 126.2 Q 209.5 125.0, 209.5 122.8 Q 209.5 120.6, 208.5 119.4 Q 207.6 118.3, 205.9 118.3 Q 204.2 118.3, 203.2 119.4 Q 202.3 120.5, 202.3 122.8 Q 202.3 125.0, 203.2 126.2 Q 204.2 127.3, 205.9 127.3 " fill="#FF0000"/>
<path class="atom-6" d="M 11.7 99.4 L 13.2 99.4 L 13.2 104.2 L 18.9 104.2 L 18.9 99.4 L 20.5 99.4 L 20.5 110.6 L 18.9 110.6 L 18.9 105.4 L 13.2 105.4 L 13.2 110.6 L 11.7 110.6 L 11.7 99.4 " fill="#0000FF"/>
<path class="atom-6" d="M 22.7 110.2 Q 22.9 109.5, 23.6 109.2 Q 24.2 108.8, 25.2 108.8 Q 26.3 108.8, 26.9 109.4 Q 27.5 110.0, 27.5 111.1 Q 27.5 112.2, 26.7 113.2 Q 25.9 114.2, 24.2 115.4 L 27.7 115.4 L 27.7 116.3 L 22.7 116.3 L 22.7 115.6 Q 24.0 114.6, 24.9 113.9 Q 25.7 113.1, 26.1 112.5 Q 26.5 111.8, 26.5 111.1 Q 26.5 110.4, 26.1 110.0 Q 25.8 109.6, 25.2 109.6 Q 24.6 109.6, 24.2 109.8 Q 23.8 110.1, 23.5 110.6 L 22.7 110.2 " fill="#0000FF"/>
<path class="atom-6" d="M 30.9 99.4 L 34.6 105.3 Q 35.0 105.9, 35.6 107.0 Q 36.1 108.1, 36.2 108.1 L 36.2 99.4 L 37.7 99.4 L 37.7 110.6 L 36.1 110.6 L 32.2 104.1 Q 31.7 103.4, 31.2 102.5 Q 30.7 101.6, 30.6 101.3 L 30.6 110.6 L 29.1 110.6 L 29.1 99.4 L 30.9 99.4 " fill="#0000FF"/>
<path class="atom-10" d="M 199.7 43.2 Q 199.7 40.5, 201.1 39.0 Q 202.4 37.5, 204.9 37.5 Q 207.4 37.5, 208.7 39.0 Q 210.1 40.5, 210.1 43.2 Q 210.1 45.9, 208.7 47.5 Q 207.4 49.0, 204.9 49.0 Q 202.4 49.0, 201.1 47.5 Q 199.7 46.0, 199.7 43.2 M 204.9 47.8 Q 206.6 47.8, 207.5 46.6 Q 208.5 45.5, 208.5 43.2 Q 208.5 41.0, 207.5 39.9 Q 206.6 38.8, 204.9 38.8 Q 203.2 38.8, 202.3 39.9 Q 201.3 41.0, 201.3 43.2 Q 201.3 45.5, 202.3 46.6 Q 203.2 47.8, 204.9 47.8 " fill="#FF0000"/>
<path class="atom-10" d="M 211.8 37.6 L 213.4 37.6 L 213.4 42.4 L 219.1 42.4 L 219.1 37.6 L 220.7 37.6 L 220.7 48.9 L 219.1 48.9 L 219.1 43.7 L 213.4 43.7 L 213.4 48.9 L 211.8 48.9 L 211.8 37.6 " fill="#FF0000"/>
</g>
  </g>
</svg>
