<?xml version='1.0' encoding='ASCII' standalone='yes'?>
<svg xmlns="http://www.w3.org/2000/svg" xmlns:xlink="http://www.w3.org/1999/xlink" version="1.1" width="899.0px" viewBox="0 0 899.0 200.0" height="200.0px">
  <g>
    <g transform="translate(0, 0) scale(1 1) "><!-- END OF HEADER -->
<rect style="opacity:1.0;fill:#FFFFFF;stroke:none" width="289.0" height="200.0" x="0.0" y="0.0"> </rect>
<path class="bond-0 atom-0 atom-1" d="M 205.5,101.8 L 210.2,98.1" style="fill:none;fill-rule:evenodd;stroke:#000000;stroke-width:2.0px;stroke-linecap:butt;stroke-linejoin:miter;stroke-opacity:1"/>
<path class="bond-0 atom-0 atom-1" d="M 210.2,98.1 L 214.9,94.3" style="fill:none;fill-rule:evenodd;stroke:#0000FF;stroke-width:2.0px;stroke-linecap:butt;stroke-linejoin:miter;stroke-opacity:1"/>
<path class="bond-1 atom-1 atom-2" d="M 224.5,93.2 L 236.9,100.2" style="fill:none;fill-rule:evenodd;stroke:#0000FF;stroke-width:2.0px;stroke-linecap:butt;stroke-linejoin:miter;stroke-opacity:1"/>
<path class="bond-1 atom-1 atom-2" d="M 236.9,100.2 L 249.4,107.3" style="fill:none;fill-rule:evenodd;stroke:#000000;stroke-width:2.0px;stroke-linecap:butt;stroke-linejoin:miter;stroke-opacity:1"/>
<path class="bond-2 atom-2 atom-3" d="M 249.4,107.3 L 274.4,84.3" style="fill:none;fill-rule:evenodd;stroke:#000000;stroke-width:2.0px;stroke-linecap:butt;stroke-linejoin:miter;stroke-opacity:1"/>
<path class="bond-3 atom-3 atom-4" d="M 274.4,84.3 L 260.3,53.3" style="fill:none;fill-rule:evenodd;stroke:#000000;stroke-width:2.0px;stroke-linecap:butt;stroke-linejoin:miter;stroke-opacity:1"/>
<path class="bond-4 atom-4 atom-5" d="M 260.3,53.3 L 226.5,57.1" style="fill:none;fill-rule:evenodd;stroke:#000000;stroke-width:2.0px;stroke-linecap:butt;stroke-linejoin:miter;stroke-opacity:1"/>
<path class="bond-5 atom-5 atom-6" d="M 226.5,57.1 L 193.9,67.8" style="fill:none;fill-rule:evenodd;stroke:#000000;stroke-width:2.0px;stroke-linecap:butt;stroke-linejoin:miter;stroke-opacity:1"/>
<path class="bond-6 atom-6 atom-7" d="M 193.9,67.8 L 190.6,101.7" style="fill:none;fill-rule:evenodd;stroke:#000000;stroke-width:2.0px;stroke-linecap:butt;stroke-linejoin:miter;stroke-opacity:1"/>
<path class="bond-7 atom-7 atom-8" d="M 190.6,101.7 L 177.9,107.5" style="fill:none;fill-rule:evenodd;stroke:#000000;stroke-width:2.0px;stroke-linecap:butt;stroke-linejoin:miter;stroke-opacity:1"/>
<path class="bond-7 atom-7 atom-8" d="M 177.9,107.5 L 165.2,113.3" style="fill:none;fill-rule:evenodd;stroke:#FF0000;stroke-width:2.0px;stroke-linecap:butt;stroke-linejoin:miter;stroke-opacity:1"/>
<path class="bond-8 atom-8 atom-9" d="M 154.1,111.9 L 143.0,103.9" style="fill:none;fill-rule:evenodd;stroke:#FF0000;stroke-width:2.0px;stroke-linecap:butt;stroke-linejoin:miter;stroke-opacity:1"/>
<path class="bond-8 atom-8 atom-9" d="M 143.0,103.9 L 131.9,96.0" style="fill:none;fill-rule:evenodd;stroke:#000000;stroke-width:2.0px;stroke-linecap:butt;stroke-linejoin:miter;stroke-opacity:1"/>
<path class="bond-9 atom-9 atom-10" d="M 134.3,97.7 L 135.7,83.1" style="fill:none;fill-rule:evenodd;stroke:#000000;stroke-width:2.0px;stroke-linecap:butt;stroke-linejoin:miter;stroke-opacity:1"/>
<path class="bond-9 atom-9 atom-10" d="M 135.7,83.1 L 137.1,68.5" style="fill:none;fill-rule:evenodd;stroke:#FF0000;stroke-width:2.0px;stroke-linecap:butt;stroke-linejoin:miter;stroke-opacity:1"/>
<path class="bond-9 atom-9 atom-10" d="M 129.3,97.2 L 130.7,82.6" style="fill:none;fill-rule:evenodd;stroke:#000000;stroke-width:2.0px;stroke-linecap:butt;stroke-linejoin:miter;stroke-opacity:1"/>
<path class="bond-9 atom-9 atom-10" d="M 130.7,82.6 L 132.1,68.0" style="fill:none;fill-rule:evenodd;stroke:#FF0000;stroke-width:2.0px;stroke-linecap:butt;stroke-linejoin:miter;stroke-opacity:1"/>
<path class="bond-10 atom-9 atom-11" d="M 131.9,96.0 L 100.9,110.2" style="fill:none;fill-rule:evenodd;stroke:#000000;stroke-width:2.0px;stroke-linecap:butt;stroke-linejoin:miter;stroke-opacity:1"/>
<path class="bond-11 atom-11 atom-12" d="M 100.9,110.2 L 97.7,144.1" style="fill:none;fill-rule:evenodd;stroke:#000000;stroke-width:2.0px;stroke-linecap:butt;stroke-linejoin:miter;stroke-opacity:1"/>
<path class="bond-12 atom-12 atom-13" d="M 97.7,144.1 L 84.9,149.9" style="fill:none;fill-rule:evenodd;stroke:#000000;stroke-width:2.0px;stroke-linecap:butt;stroke-linejoin:miter;stroke-opacity:1"/>
<path class="bond-12 atom-12 atom-13" d="M 84.9,149.9 L 72.2,155.7" style="fill:none;fill-rule:evenodd;stroke:#FF0000;stroke-width:2.0px;stroke-linecap:butt;stroke-linejoin:miter;stroke-opacity:1"/>
<path class="bond-13 atom-11 atom-14" d="M 100.9,110.2 L 73.2,90.4" style="fill:none;fill-rule:evenodd;stroke:#000000;stroke-width:2.0px;stroke-linecap:butt;stroke-linejoin:miter;stroke-opacity:1"/>
<path class="bond-14 atom-14 atom-15" d="M 73.2,90.4 L 76.4,56.5" style="fill:none;fill-rule:evenodd;stroke:#000000;stroke-width:2.0px;stroke-linecap:butt;stroke-linejoin:miter;stroke-opacity:1"/>
<path class="bond-14 atom-14 atom-15" d="M 68.5,87.1 L 71.2,58.9" style="fill:none;fill-rule:evenodd;stroke:#000000;stroke-width:2.0px;stroke-linecap:butt;stroke-linejoin:miter;stroke-opacity:1"/>
<path class="bond-15 atom-15 atom-16" d="M 76.4,56.5 L 48.7,36.7" style="fill:none;fill-rule:evenodd;stroke:#000000;stroke-width:2.0px;stroke-linecap:butt;stroke-linejoin:miter;stroke-opacity:1"/>
<path class="bond-16 atom-16 atom-17" d="M 48.7,36.7 L 17.7,50.9" style="fill:none;fill-rule:evenodd;stroke:#000000;stroke-width:2.0px;stroke-linecap:butt;stroke-linejoin:miter;stroke-opacity:1"/>
<path class="bond-16 atom-16 atom-17" d="M 48.1,42.5 L 22.4,54.2" style="fill:none;fill-rule:evenodd;stroke:#000000;stroke-width:2.0px;stroke-linecap:butt;stroke-linejoin:miter;stroke-opacity:1"/>
<path class="bond-17 atom-17 atom-18" d="M 17.7,50.9 L 14.5,84.8" style="fill:none;fill-rule:evenodd;stroke:#000000;stroke-width:2.0px;stroke-linecap:butt;stroke-linejoin:miter;stroke-opacity:1"/>
<path class="bond-18 atom-18 atom-19" d="M 14.5,84.8 L 42.2,104.6" style="fill:none;fill-rule:evenodd;stroke:#000000;stroke-width:2.0px;stroke-linecap:butt;stroke-linejoin:miter;stroke-opacity:1"/>
<path class="bond-18 atom-18 atom-19" d="M 19.7,82.4 L 42.7,98.8" style="fill:none;fill-rule:evenodd;stroke:#000000;stroke-width:2.0px;stroke-linecap:butt;stroke-linejoin:miter;stroke-opacity:1"/>
<path class="bond-19 atom-7 atom-20" d="M 190.6,101.7 L 218.4,121.4" style="fill:none;fill-rule:evenodd;stroke:#000000;stroke-width:2.0px;stroke-linecap:butt;stroke-linejoin:miter;stroke-opacity:1"/>
<path class="bond-20 atom-5 atom-1" d="M 226.5,57.1 L 223.7,70.9" style="fill:none;fill-rule:evenodd;stroke:#000000;stroke-width:2.0px;stroke-linecap:butt;stroke-linejoin:miter;stroke-opacity:1"/>
<path class="bond-20 atom-5 atom-1" d="M 223.7,70.9 L 220.9,84.6" style="fill:none;fill-rule:evenodd;stroke:#0000FF;stroke-width:2.0px;stroke-linecap:butt;stroke-linejoin:miter;stroke-opacity:1"/>
<path class="bond-21 atom-19 atom-14" d="M 42.2,104.6 L 73.2,90.4" style="fill:none;fill-rule:evenodd;stroke:#000000;stroke-width:2.0px;stroke-linecap:butt;stroke-linejoin:miter;stroke-opacity:1"/>
<path class="bond-22 atom-20 atom-2" d="M 218.4,121.4 L 249.4,107.3" style="fill:none;fill-rule:evenodd;stroke:#000000;stroke-width:2.0px;stroke-linecap:butt;stroke-linejoin:miter;stroke-opacity:1"/>
<path d="M 273.2,85.4 L 274.4,84.3 L 273.7,82.7" style="fill:none;stroke:#000000;stroke-width:2.0px;stroke-linecap:butt;stroke-linejoin:miter;stroke-opacity:1;"/>
<path d="M 261.0,54.8 L 260.3,53.3 L 258.6,53.5" style="fill:none;stroke:#000000;stroke-width:2.0px;stroke-linecap:butt;stroke-linejoin:miter;stroke-opacity:1;"/>
<path d="M 195.5,67.2 L 193.9,67.8 L 193.7,69.4" style="fill:none;stroke:#000000;stroke-width:2.0px;stroke-linecap:butt;stroke-linejoin:miter;stroke-opacity:1;"/>
<path d="M 132.5,96.4 L 131.9,96.0 L 130.4,96.7" style="fill:none;stroke:#000000;stroke-width:2.0px;stroke-linecap:butt;stroke-linejoin:miter;stroke-opacity:1;"/>
<path d="M 97.8,142.4 L 97.7,144.1 L 97.0,144.4" style="fill:none;stroke:#000000;stroke-width:2.0px;stroke-linecap:butt;stroke-linejoin:miter;stroke-opacity:1;"/>
<path d="M 76.3,58.2 L 76.4,56.5 L 75.0,55.5" style="fill:none;stroke:#000000;stroke-width:2.0px;stroke-linecap:butt;stroke-linejoin:miter;stroke-opacity:1;"/>
<path d="M 50.1,37.7 L 48.7,36.7 L 47.1,37.5" style="fill:none;stroke:#000000;stroke-width:2.0px;stroke-linecap:butt;stroke-linejoin:miter;stroke-opacity:1;"/>
<path d="M 19.2,50.2 L 17.7,50.9 L 17.5,52.6" style="fill:none;stroke:#000000;stroke-width:2.0px;stroke-linecap:butt;stroke-linejoin:miter;stroke-opacity:1;"/>
<path d="M 14.6,83.1 L 14.5,84.8 L 15.8,85.8" style="fill:none;stroke:#000000;stroke-width:2.0px;stroke-linecap:butt;stroke-linejoin:miter;stroke-opacity:1;"/>
<path d="M 40.8,103.6 L 42.2,104.6 L 43.7,103.9" style="fill:none;stroke:#000000;stroke-width:2.0px;stroke-linecap:butt;stroke-linejoin:miter;stroke-opacity:1;"/>
<path d="M 217.0,120.4 L 218.4,121.4 L 219.9,120.7" style="fill:none;stroke:#000000;stroke-width:2.0px;stroke-linecap:butt;stroke-linejoin:miter;stroke-opacity:1;"/>
<path class="atom-1" d="M 217.6 85.7 L 220.7 90.8 Q 221.0 91.3, 221.5 92.2 Q 222.0 93.1, 222.1 93.2 L 222.1 85.7 L 223.4 85.7 L 223.4 95.3 L 222.0 95.3 L 218.6 89.8 Q 218.2 89.1, 217.8 88.4 Q 217.4 87.6, 217.3 87.4 L 217.3 95.3 L 216.0 95.3 L 216.0 85.7 L 217.6 85.7 " fill="#0000FF"/>
<path class="atom-8" d="M 155.2 115.8 Q 155.2 113.5, 156.4 112.2 Q 157.5 110.9, 159.6 110.9 Q 161.8 110.9, 162.9 112.2 Q 164.1 113.5, 164.1 115.8 Q 164.1 118.2, 162.9 119.5 Q 161.8 120.8, 159.6 120.8 Q 157.5 120.8, 156.4 119.5 Q 155.2 118.2, 155.2 115.8 M 159.6 119.7 Q 161.1 119.7, 161.9 118.8 Q 162.7 117.8, 162.7 115.8 Q 162.7 113.9, 161.9 113.0 Q 161.1 112.0, 159.6 112.0 Q 158.2 112.0, 157.4 113.0 Q 156.6 113.9, 156.6 115.8 Q 156.6 117.8, 157.4 118.8 Q 158.2 119.7, 159.6 119.7 " fill="#FF0000"/>
<path class="atom-10" d="M 130.7 62.2 Q 130.7 59.8, 131.9 58.5 Q 133.0 57.3, 135.1 57.3 Q 137.3 57.3, 138.4 58.5 Q 139.6 59.8, 139.6 62.2 Q 139.6 64.5, 138.4 65.8 Q 137.3 67.2, 135.1 67.2 Q 133.0 67.2, 131.9 65.8 Q 130.7 64.5, 130.7 62.2 M 135.1 66.1 Q 136.6 66.1, 137.4 65.1 Q 138.2 64.1, 138.2 62.2 Q 138.2 60.3, 137.4 59.3 Q 136.6 58.3, 135.1 58.3 Q 133.7 58.3, 132.9 59.3 Q 132.1 60.3, 132.1 62.2 Q 132.1 64.1, 132.9 65.1 Q 133.7 66.1, 135.1 66.1 " fill="#FF0000"/>
<path class="atom-13" d="M 52.7 153.5 L 54.0 153.5 L 54.0 157.6 L 59.0 157.6 L 59.0 153.5 L 60.3 153.5 L 60.3 163.1 L 59.0 163.1 L 59.0 158.6 L 54.0 158.6 L 54.0 163.1 L 52.7 163.1 L 52.7 153.5 " fill="#FF0000"/>
<path class="atom-13" d="M 62.3 158.3 Q 62.3 155.9, 63.4 154.6 Q 64.5 153.3, 66.7 153.3 Q 68.8 153.3, 70.0 154.6 Q 71.1 155.9, 71.1 158.3 Q 71.1 160.6, 70.0 161.9 Q 68.8 163.3, 66.7 163.3 Q 64.6 163.3, 63.4 161.9 Q 62.3 160.6, 62.3 158.3 M 66.7 162.2 Q 68.2 162.2, 68.9 161.2 Q 69.8 160.2, 69.8 158.3 Q 69.8 156.4, 68.9 155.4 Q 68.2 154.4, 66.7 154.4 Q 65.2 154.4, 64.4 155.4 Q 63.6 156.3, 63.6 158.3 Q 63.6 160.2, 64.4 161.2 Q 65.2 162.2, 66.7 162.2 " fill="#FF0000"/>
</g>
    <g transform="translate(289.0, 0) scale(1 1) "><line x1="15" y1="100" x2="25" y2="100" style="stroke:rgb(0,0,0);stroke-width:2"/>
  <line x1="20" y1="95" x2="20" y2="105" style="stroke:rgb(0,0,0);stroke-width:2"/>
</g>
    <g transform="translate(329.0, 0) scale(1 1) "><!-- END OF HEADER -->
<rect style="opacity:1.0;fill:#FFFFFF;stroke:none" width="25.0" height="200.0" x="0.0" y="0.0"> </rect>
<path class="atom-0" d="M 1.2 93.4 L 2.5 93.4 L 2.5 97.2 L 7.0 97.2 L 7.0 93.4 L 8.2 93.4 L 8.2 102.3 L 7.0 102.3 L 7.0 98.2 L 2.5 98.2 L 2.5 102.3 L 1.2 102.3 L 1.2 93.4 " fill="#FF0000"/>
<path class="atom-0" d="M 10.0 102.0 Q 10.2 101.4, 10.7 101.1 Q 11.2 100.8, 11.9 100.8 Q 12.8 100.8, 13.3 101.3 Q 13.8 101.7, 13.8 102.6 Q 13.8 103.5, 13.2 104.3 Q 12.5 105.1, 11.2 106.0 L 13.9 106.0 L 13.9 106.7 L 10.0 106.7 L 10.0 106.2 Q 11.1 105.4, 11.7 104.8 Q 12.4 104.2, 12.7 103.7 Q 13.0 103.2, 13.0 102.6 Q 13.0 102.1, 12.7 101.8 Q 12.4 101.4, 11.9 101.4 Q 11.5 101.4, 11.1 101.6 Q 10.8 101.8, 10.6 102.2 L 10.0 102.0 " fill="#FF0000"/>
<path class="atom-0" d="M 15.1 97.8 Q 15.1 95.7, 16.2 94.5 Q 17.2 93.3, 19.2 93.3 Q 21.1 93.3, 22.2 94.5 Q 23.2 95.7, 23.2 97.8 Q 23.2 100.0, 22.2 101.2 Q 21.1 102.4, 19.2 102.4 Q 17.2 102.4, 16.2 101.2 Q 15.1 100.0, 15.1 97.8 M 19.2 101.4 Q 20.5 101.4, 21.3 100.5 Q 22.0 99.6, 22.0 97.8 Q 22.0 96.1, 21.3 95.2 Q 20.5 94.3, 19.2 94.3 Q 17.8 94.3, 17.1 95.2 Q 16.4 96.1, 16.4 97.8 Q 16.4 99.6, 17.1 100.5 Q 17.8 101.4, 19.2 101.4 " fill="#FF0000"/>
</g>
    <g transform="translate(354.0, 0) scale(1 1) "><line x1="5" y1="100" x2="35" y2="100" style="stroke:rgb(0,0,0);stroke-width:2"/>
  <line x1="34" y1="100" x2="29" y2="95" style="stroke:rgb(0,0,0);stroke-width:2"/>
  <line x1="34" y1="100" x2="29" y2="105" style="stroke:rgb(0,0,0);stroke-width:2"/>
</g>
    <g transform="translate(394.0, 0) scale(1 1) "><!-- END OF HEADER -->
<rect style="opacity:1.0;fill:#FFFFFF;stroke:none" width="225.0" height="200.0" x="0.0" y="0.0"> </rect>
<path class="bond-0 atom-0 atom-1" d="M 105.7,109.8 L 115.4,107.2" style="fill:none;fill-rule:evenodd;stroke:#000000;stroke-width:2.0px;stroke-linecap:butt;stroke-linejoin:miter;stroke-opacity:1"/>
<path class="bond-0 atom-0 atom-1" d="M 115.4,107.2 L 125.2,104.5" style="fill:none;fill-rule:evenodd;stroke:#0000FF;stroke-width:2.0px;stroke-linecap:butt;stroke-linejoin:miter;stroke-opacity:1"/>
<path class="bond-1 atom-1 atom-2" d="M 139.3,111.6 L 151.6,127.9" style="fill:none;fill-rule:evenodd;stroke:#0000FF;stroke-width:2.0px;stroke-linecap:butt;stroke-linejoin:miter;stroke-opacity:1"/>
<path class="bond-1 atom-1 atom-2" d="M 151.6,127.9 L 164.0,144.1" style="fill:none;fill-rule:evenodd;stroke:#000000;stroke-width:2.0px;stroke-linecap:butt;stroke-linejoin:miter;stroke-opacity:1"/>
<path class="bond-2 atom-2 atom-3" d="M 164.0,144.1 L 213.2,127.0" style="fill:none;fill-rule:evenodd;stroke:#000000;stroke-width:2.0px;stroke-linecap:butt;stroke-linejoin:miter;stroke-opacity:1"/>
<path class="bond-3 atom-3 atom-4" d="M 213.2,127.0 L 212.2,74.9" style="fill:none;fill-rule:evenodd;stroke:#000000;stroke-width:2.0px;stroke-linecap:butt;stroke-linejoin:miter;stroke-opacity:1"/>
<path class="bond-4 atom-4 atom-5" d="M 212.2,74.9 L 162.3,59.7" style="fill:none;fill-rule:evenodd;stroke:#000000;stroke-width:2.0px;stroke-linecap:butt;stroke-linejoin:miter;stroke-opacity:1"/>
<path class="bond-5 atom-5 atom-6" d="M 162.3,59.7 L 110.0,54.8" style="fill:none;fill-rule:evenodd;stroke:#000000;stroke-width:2.0px;stroke-linecap:butt;stroke-linejoin:miter;stroke-opacity:1"/>
<path class="bond-6 atom-6 atom-7" d="M 110.0,54.8 L 84.8,100.5" style="fill:none;fill-rule:evenodd;stroke:#000000;stroke-width:2.0px;stroke-linecap:butt;stroke-linejoin:miter;stroke-opacity:1"/>
<path class="bond-7 atom-7 atom-8" d="M 84.8,100.5 L 62.9,101.0" style="fill:none;fill-rule:evenodd;stroke:#000000;stroke-width:2.0px;stroke-linecap:butt;stroke-linejoin:miter;stroke-opacity:1"/>
<path class="bond-7 atom-7 atom-8" d="M 62.9,101.0 L 41.1,101.4" style="fill:none;fill-rule:evenodd;stroke:#FF0000;stroke-width:2.0px;stroke-linecap:butt;stroke-linejoin:miter;stroke-opacity:1"/>
<path class="bond-8 atom-7 atom-9" d="M 84.8,100.5 L 111.8,145.2" style="fill:none;fill-rule:evenodd;stroke:#000000;stroke-width:2.0px;stroke-linecap:butt;stroke-linejoin:miter;stroke-opacity:1"/>
<path class="bond-9 atom-5 atom-1" d="M 162.3,59.7 L 150.5,76.6" style="fill:none;fill-rule:evenodd;stroke:#000000;stroke-width:2.0px;stroke-linecap:butt;stroke-linejoin:miter;stroke-opacity:1"/>
<path class="bond-9 atom-5 atom-1" d="M 150.5,76.6 L 138.7,93.5" style="fill:none;fill-rule:evenodd;stroke:#0000FF;stroke-width:2.0px;stroke-linecap:butt;stroke-linejoin:miter;stroke-opacity:1"/>
<path class="bond-10 atom-9 atom-2" d="M 111.8,145.2 L 164.0,144.1" style="fill:none;fill-rule:evenodd;stroke:#000000;stroke-width:2.0px;stroke-linecap:butt;stroke-linejoin:miter;stroke-opacity:1"/>
<path d="M 210.8,127.9 L 213.2,127.0 L 213.2,124.4" style="fill:none;stroke:#000000;stroke-width:2.0px;stroke-linecap:butt;stroke-linejoin:miter;stroke-opacity:1;"/>
<path d="M 212.3,77.5 L 212.2,74.9 L 209.7,74.1" style="fill:none;stroke:#000000;stroke-width:2.0px;stroke-linecap:butt;stroke-linejoin:miter;stroke-opacity:1;"/>
<path d="M 112.6,55.1 L 110.0,54.8 L 108.7,57.1" style="fill:none;stroke:#000000;stroke-width:2.0px;stroke-linecap:butt;stroke-linejoin:miter;stroke-opacity:1;"/>
<path d="M 110.4,142.9 L 111.8,145.2 L 114.4,145.1" style="fill:none;stroke:#000000;stroke-width:2.0px;stroke-linecap:butt;stroke-linejoin:miter;stroke-opacity:1;"/>
<path class="atom-1" d="M 129.2 95.2 L 134.0 103.0 Q 134.5 103.8, 135.3 105.2 Q 136.0 106.6, 136.1 106.6 L 136.1 95.2 L 138.1 95.2 L 138.1 109.9 L 136.0 109.9 L 130.8 101.4 Q 130.2 100.4, 129.6 99.2 Q 129.0 98.1, 128.8 97.7 L 128.8 109.9 L 126.8 109.9 L 126.8 95.2 L 129.2 95.2 " fill="#0000FF"/>
<path class="atom-8" d="M 11.3 94.2 L 13.3 94.2 L 13.3 100.5 L 20.8 100.5 L 20.8 94.2 L 22.8 94.2 L 22.8 109.0 L 20.8 109.0 L 20.8 102.2 L 13.3 102.2 L 13.3 109.0 L 11.3 109.0 L 11.3 94.2 " fill="#FF0000"/>
<path class="atom-8" d="M 25.8 101.6 Q 25.8 98.0, 27.6 96.1 Q 29.4 94.1, 32.6 94.1 Q 35.9 94.1, 37.7 96.1 Q 39.4 98.0, 39.4 101.6 Q 39.4 105.2, 37.6 107.2 Q 35.9 109.3, 32.6 109.3 Q 29.4 109.3, 27.6 107.2 Q 25.8 105.2, 25.8 101.6 M 32.6 107.6 Q 34.9 107.6, 36.1 106.1 Q 37.3 104.6, 37.3 101.6 Q 37.3 98.7, 36.1 97.2 Q 34.9 95.8, 32.6 95.8 Q 30.4 95.8, 29.1 97.2 Q 27.9 98.7, 27.9 101.6 Q 27.9 104.6, 29.1 106.1 Q 30.4 107.6, 32.6 107.6 " fill="#FF0000"/>
</g>
    <g transform="translate(619.0, 0) scale(1 1) "><line x1="15" y1="100" x2="25" y2="100" style="stroke:rgb(0,0,0);stroke-width:2"/>
  <line x1="20" y1="95" x2="20" y2="105" style="stroke:rgb(0,0,0);stroke-width:2"/>
</g>
    <g transform="translate(659.0, 0) scale(1 1) "><!-- END OF HEADER -->
<rect style="opacity:1.0;fill:#FFFFFF;stroke:none" width="240.0" height="200.0" x="0.0" y="0.0"> </rect>
<path class="bond-0 atom-0 atom-1" d="M 154.5,47.6 L 162.7,64.1" style="fill:none;fill-rule:evenodd;stroke:#FF0000;stroke-width:2.0px;stroke-linecap:butt;stroke-linejoin:miter;stroke-opacity:1"/>
<path class="bond-0 atom-0 atom-1" d="M 162.7,64.1 L 170.9,80.6" style="fill:none;fill-rule:evenodd;stroke:#000000;stroke-width:2.0px;stroke-linecap:butt;stroke-linejoin:miter;stroke-opacity:1"/>
<path class="bond-0 atom-0 atom-1" d="M 148.7,50.5 L 156.8,67.0" style="fill:none;fill-rule:evenodd;stroke:#FF0000;stroke-width:2.0px;stroke-linecap:butt;stroke-linejoin:miter;stroke-opacity:1"/>
<path class="bond-0 atom-0 atom-1" d="M 156.8,67.0 L 165.0,83.5" style="fill:none;fill-rule:evenodd;stroke:#000000;stroke-width:2.0px;stroke-linecap:butt;stroke-linejoin:miter;stroke-opacity:1"/>
<path class="bond-1 atom-1 atom-2" d="M 167.1,80.3 L 185.3,81.5" style="fill:none;fill-rule:evenodd;stroke:#000000;stroke-width:2.0px;stroke-linecap:butt;stroke-linejoin:miter;stroke-opacity:1"/>
<path class="bond-1 atom-1 atom-2" d="M 185.3,81.5 L 203.6,82.7" style="fill:none;fill-rule:evenodd;stroke:#FF0000;stroke-width:2.0px;stroke-linecap:butt;stroke-linejoin:miter;stroke-opacity:1"/>
<path class="bond-2 atom-1 atom-3" d="M 167.1,80.3 L 142.9,116.7" style="fill:none;fill-rule:evenodd;stroke:#000000;stroke-width:2.0px;stroke-linecap:butt;stroke-linejoin:miter;stroke-opacity:1"/>
<path class="bond-3 atom-3 atom-4" d="M 142.9,116.7 L 162.2,155.9" style="fill:none;fill-rule:evenodd;stroke:#000000;stroke-width:2.0px;stroke-linecap:butt;stroke-linejoin:miter;stroke-opacity:1"/>
<path class="bond-4 atom-4 atom-5" d="M 162.2,155.9 L 180.5,157.0" style="fill:none;fill-rule:evenodd;stroke:#000000;stroke-width:2.0px;stroke-linecap:butt;stroke-linejoin:miter;stroke-opacity:1"/>
<path class="bond-4 atom-4 atom-5" d="M 180.5,157.0 L 198.7,158.2" style="fill:none;fill-rule:evenodd;stroke:#FF0000;stroke-width:2.0px;stroke-linecap:butt;stroke-linejoin:miter;stroke-opacity:1"/>
<path class="bond-5 atom-3 atom-6" d="M 142.9,116.7 L 99.2,113.9" style="fill:none;fill-rule:evenodd;stroke:#000000;stroke-width:2.0px;stroke-linecap:butt;stroke-linejoin:miter;stroke-opacity:1"/>
<path class="bond-6 atom-6 atom-7" d="M 99.2,113.9 L 75.0,150.3" style="fill:none;fill-rule:evenodd;stroke:#000000;stroke-width:2.0px;stroke-linecap:butt;stroke-linejoin:miter;stroke-opacity:1"/>
<path class="bond-6 atom-6 atom-7" d="M 91.7,113.4 L 71.6,143.5" style="fill:none;fill-rule:evenodd;stroke:#000000;stroke-width:2.0px;stroke-linecap:butt;stroke-linejoin:miter;stroke-opacity:1"/>
<path class="bond-7 atom-7 atom-8" d="M 75.0,150.3 L 31.4,147.5" style="fill:none;fill-rule:evenodd;stroke:#000000;stroke-width:2.0px;stroke-linecap:butt;stroke-linejoin:miter;stroke-opacity:1"/>
<path class="bond-8 atom-8 atom-9" d="M 31.4,147.5 L 12.0,108.3" style="fill:none;fill-rule:evenodd;stroke:#000000;stroke-width:2.0px;stroke-linecap:butt;stroke-linejoin:miter;stroke-opacity:1"/>
<path class="bond-8 atom-8 atom-9" d="M 35.6,141.2 L 19.6,108.8" style="fill:none;fill-rule:evenodd;stroke:#000000;stroke-width:2.0px;stroke-linecap:butt;stroke-linejoin:miter;stroke-opacity:1"/>
<path class="bond-9 atom-9 atom-10" d="M 12.0,108.3 L 36.2,71.9" style="fill:none;fill-rule:evenodd;stroke:#000000;stroke-width:2.0px;stroke-linecap:butt;stroke-linejoin:miter;stroke-opacity:1"/>
<path class="bond-10 atom-10 atom-11" d="M 36.2,71.9 L 79.9,74.7" style="fill:none;fill-rule:evenodd;stroke:#000000;stroke-width:2.0px;stroke-linecap:butt;stroke-linejoin:miter;stroke-opacity:1"/>
<path class="bond-10 atom-10 atom-11" d="M 39.6,78.7 L 75.7,81.0" style="fill:none;fill-rule:evenodd;stroke:#000000;stroke-width:2.0px;stroke-linecap:butt;stroke-linejoin:miter;stroke-opacity:1"/>
<path class="bond-11 atom-11 atom-6" d="M 79.9,74.7 L 99.2,113.9" style="fill:none;fill-rule:evenodd;stroke:#000000;stroke-width:2.0px;stroke-linecap:butt;stroke-linejoin:miter;stroke-opacity:1"/>
<path d="M 168.0,80.4 L 167.1,80.3 L 165.9,82.1" style="fill:none;stroke:#000000;stroke-width:2.0px;stroke-linecap:butt;stroke-linejoin:miter;stroke-opacity:1;"/>
<path d="M 161.3,153.9 L 162.2,155.9 L 163.2,155.9" style="fill:none;stroke:#000000;stroke-width:2.0px;stroke-linecap:butt;stroke-linejoin:miter;stroke-opacity:1;"/>
<path d="M 76.2,148.4 L 75.0,150.3 L 72.8,150.1" style="fill:none;stroke:#000000;stroke-width:2.0px;stroke-linecap:butt;stroke-linejoin:miter;stroke-opacity:1;"/>
<path d="M 33.6,147.6 L 31.4,147.5 L 30.4,145.5" style="fill:none;stroke:#000000;stroke-width:2.0px;stroke-linecap:butt;stroke-linejoin:miter;stroke-opacity:1;"/>
<path d="M 13.0,110.3 L 12.0,108.3 L 13.2,106.5" style="fill:none;stroke:#000000;stroke-width:2.0px;stroke-linecap:butt;stroke-linejoin:miter;stroke-opacity:1;"/>
<path d="M 35.0,73.7 L 36.2,71.9 L 38.4,72.1" style="fill:none;stroke:#000000;stroke-width:2.0px;stroke-linecap:butt;stroke-linejoin:miter;stroke-opacity:1;"/>
<path d="M 77.7,74.6 L 79.9,74.7 L 80.8,76.7" style="fill:none;stroke:#000000;stroke-width:2.0px;stroke-linecap:butt;stroke-linejoin:miter;stroke-opacity:1;"/>
<path class="atom-0" d="M 142.0 41.2 Q 142.0 38.2, 143.5 36.5 Q 145.0 34.9, 147.7 34.9 Q 150.4 34.9, 151.9 36.5 Q 153.4 38.2, 153.4 41.2 Q 153.4 44.2, 151.9 45.9 Q 150.4 47.6, 147.7 47.6 Q 145.0 47.6, 143.5 45.9 Q 142.0 44.2, 142.0 41.2 M 147.7 46.2 Q 149.6 46.2, 150.6 44.9 Q 151.6 43.7, 151.6 41.2 Q 151.6 38.7, 150.6 37.5 Q 149.6 36.3, 147.7 36.3 Q 145.8 36.3, 144.8 37.5 Q 143.8 38.7, 143.8 41.2 Q 143.8 43.7, 144.8 44.9 Q 145.8 46.2, 147.7 46.2 " fill="#FF0000"/>
<path class="atom-2" d="M 205.0 83.2 Q 205.0 80.2, 206.5 78.5 Q 208.0 76.9, 210.7 76.9 Q 213.5 76.9, 214.9 78.5 Q 216.4 80.2, 216.4 83.2 Q 216.4 86.2, 214.9 87.9 Q 213.4 89.6, 210.7 89.6 Q 208.0 89.6, 206.5 87.9 Q 205.0 86.2, 205.0 83.2 M 210.7 88.2 Q 212.6 88.2, 213.6 86.9 Q 214.6 85.6, 214.6 83.2 Q 214.6 80.7, 213.6 79.5 Q 212.6 78.3, 210.7 78.3 Q 208.8 78.3, 207.8 79.5 Q 206.8 80.7, 206.8 83.2 Q 206.8 85.7, 207.8 86.9 Q 208.8 88.2, 210.7 88.2 " fill="#FF0000"/>
<path class="atom-2" d="M 218.3 77.0 L 220.0 77.0 L 220.0 82.3 L 226.3 82.3 L 226.3 77.0 L 228.0 77.0 L 228.0 89.4 L 226.3 89.4 L 226.3 83.7 L 220.0 83.7 L 220.0 89.4 L 218.3 89.4 L 218.3 77.0 " fill="#FF0000"/>
<path class="atom-5" d="M 200.2 158.7 Q 200.2 155.7, 201.6 154.1 Q 203.1 152.4, 205.9 152.4 Q 208.6 152.4, 210.1 154.1 Q 211.5 155.7, 211.5 158.7 Q 211.5 161.7, 210.1 163.4 Q 208.6 165.1, 205.9 165.1 Q 203.1 165.1, 201.6 163.4 Q 200.2 161.7, 200.2 158.7 M 205.9 163.7 Q 207.7 163.7, 208.8 162.5 Q 209.8 161.2, 209.8 158.7 Q 209.8 156.3, 208.8 155.0 Q 207.7 153.8, 205.9 153.8 Q 204.0 153.8, 202.9 155.0 Q 201.9 156.3, 201.9 158.7 Q 201.9 161.2, 202.9 162.5 Q 204.0 163.7, 205.9 163.7 " fill="#FF0000"/>
<path class="atom-5" d="M 213.5 152.5 L 215.1 152.5 L 215.1 157.8 L 221.5 157.8 L 221.5 152.5 L 223.2 152.5 L 223.2 164.9 L 221.5 164.9 L 221.5 159.2 L 215.1 159.2 L 215.1 164.9 L 213.5 164.9 L 213.5 152.5 " fill="#FF0000"/>
</g>
  </g>
</svg>
