<?xml version='1.0' encoding='ASCII' standalone='yes'?>
<svg xmlns="http://www.w3.org/2000/svg" xmlns:xlink="http://www.w3.org/1999/xlink" version="1.1" width="948.0px" viewBox="0 0 948.0 200.0" height="200.0px">
  <g>
    <g transform="translate(0, 0) scale(1 1) "><!-- END OF HEADER -->
<rect style="opacity:1.0;fill:#FFFFFF;stroke:none" width="297.0" height="200.0" x="0.0" y="0.0"> </rect>
<path class="bond-0 atom-0 atom-1" d="M 206.1,157.3 L 215.0,149.1" style="fill:none;fill-rule:evenodd;stroke:#FF0000;stroke-width:2.0px;stroke-linecap:butt;stroke-linejoin:miter;stroke-opacity:1"/>
<path class="bond-0 atom-0 atom-1" d="M 215.0,149.1 L 223.9,141.0" style="fill:none;fill-rule:evenodd;stroke:#000000;stroke-width:2.0px;stroke-linecap:butt;stroke-linejoin:miter;stroke-opacity:1"/>
<path class="bond-1 atom-1 atom-2" d="M 223.9,141.0 L 217.2,110.7" style="fill:none;fill-rule:evenodd;stroke:#000000;stroke-width:2.0px;stroke-linecap:butt;stroke-linejoin:miter;stroke-opacity:1"/>
<path class="bond-2 atom-2 atom-3" d="M 217.2,110.7 L 204.9,106.9" style="fill:none;fill-rule:evenodd;stroke:#000000;stroke-width:2.0px;stroke-linecap:butt;stroke-linejoin:miter;stroke-opacity:1"/>
<path class="bond-2 atom-2 atom-3" d="M 204.9,106.9 L 192.7,103.0" style="fill:none;fill-rule:evenodd;stroke:#FF0000;stroke-width:2.0px;stroke-linecap:butt;stroke-linejoin:miter;stroke-opacity:1"/>
<path class="bond-3 atom-3 atom-4" d="M 186.4,95.9 L 183.6,83.5" style="fill:none;fill-rule:evenodd;stroke:#FF0000;stroke-width:2.0px;stroke-linecap:butt;stroke-linejoin:miter;stroke-opacity:1"/>
<path class="bond-3 atom-3 atom-4" d="M 183.6,83.5 L 180.9,71.1" style="fill:none;fill-rule:evenodd;stroke:#000000;stroke-width:2.0px;stroke-linecap:butt;stroke-linejoin:miter;stroke-opacity:1"/>
<path class="bond-4 atom-4 atom-5" d="M 180.9,71.1 L 168.6,67.3" style="fill:none;fill-rule:evenodd;stroke:#000000;stroke-width:2.0px;stroke-linecap:butt;stroke-linejoin:miter;stroke-opacity:1"/>
<path class="bond-4 atom-4 atom-5" d="M 168.6,67.3 L 156.4,63.4" style="fill:none;fill-rule:evenodd;stroke:#FF0000;stroke-width:2.0px;stroke-linecap:butt;stroke-linejoin:miter;stroke-opacity:1"/>
<path class="bond-5 atom-5 atom-6" d="M 146.3,66.4 L 137.4,74.6" style="fill:none;fill-rule:evenodd;stroke:#FF0000;stroke-width:2.0px;stroke-linecap:butt;stroke-linejoin:miter;stroke-opacity:1"/>
<path class="bond-5 atom-5 atom-6" d="M 137.4,74.6 L 128.5,82.8" style="fill:none;fill-rule:evenodd;stroke:#000000;stroke-width:2.0px;stroke-linecap:butt;stroke-linejoin:miter;stroke-opacity:1"/>
<path class="bond-6 atom-6 atom-7" d="M 128.5,82.8 L 151.7,103.3" style="fill:none;fill-rule:evenodd;stroke:#000000;stroke-width:2.0px;stroke-linecap:butt;stroke-linejoin:miter;stroke-opacity:1"/>
<path class="bond-7 atom-7 atom-8" d="M 151.7,103.3 L 149.2,115.8" style="fill:none;fill-rule:evenodd;stroke:#000000;stroke-width:2.0px;stroke-linecap:butt;stroke-linejoin:miter;stroke-opacity:1"/>
<path class="bond-7 atom-7 atom-8" d="M 149.2,115.8 L 146.6,128.2" style="fill:none;fill-rule:evenodd;stroke:#FF0000;stroke-width:2.0px;stroke-linecap:butt;stroke-linejoin:miter;stroke-opacity:1"/>
<path class="bond-8 atom-6 atom-9" d="M 128.5,82.8 L 121.4,92.7" style="fill:none;fill-rule:evenodd;stroke:#000000;stroke-width:2.0px;stroke-linecap:butt;stroke-linejoin:miter;stroke-opacity:1"/>
<path class="bond-8 atom-6 atom-9" d="M 121.4,92.7 L 114.4,102.5" style="fill:none;fill-rule:evenodd;stroke:#FF0000;stroke-width:2.0px;stroke-linecap:butt;stroke-linejoin:miter;stroke-opacity:1"/>
<path class="bond-9 atom-9 atom-10" d="M 105.4,106.4 L 93.2,102.5" style="fill:none;fill-rule:evenodd;stroke:#FF0000;stroke-width:2.0px;stroke-linecap:butt;stroke-linejoin:miter;stroke-opacity:1"/>
<path class="bond-9 atom-9 atom-10" d="M 93.2,102.5 L 80.9,98.7" style="fill:none;fill-rule:evenodd;stroke:#000000;stroke-width:2.0px;stroke-linecap:butt;stroke-linejoin:miter;stroke-opacity:1"/>
<path class="bond-10 atom-10 atom-11" d="M 80.9,98.7 L 56.0,117.1" style="fill:none;fill-rule:evenodd;stroke:#000000;stroke-width:2.0px;stroke-linecap:butt;stroke-linejoin:miter;stroke-opacity:1"/>
<path class="bond-11 atom-11 atom-12" d="M 56.0,117.1 L 44.3,112.0" style="fill:none;fill-rule:evenodd;stroke:#000000;stroke-width:2.0px;stroke-linecap:butt;stroke-linejoin:miter;stroke-opacity:1"/>
<path class="bond-11 atom-11 atom-12" d="M 44.3,112.0 L 32.6,107.0" style="fill:none;fill-rule:evenodd;stroke:#FF0000;stroke-width:2.0px;stroke-linecap:butt;stroke-linejoin:miter;stroke-opacity:1"/>
<path class="bond-12 atom-10 atom-13" d="M 80.9,98.7 L 80.6,67.7" style="fill:none;fill-rule:evenodd;stroke:#000000;stroke-width:2.0px;stroke-linecap:butt;stroke-linejoin:miter;stroke-opacity:1"/>
<path class="bond-13 atom-13 atom-14" d="M 80.6,67.7 L 70.5,60.5" style="fill:none;fill-rule:evenodd;stroke:#000000;stroke-width:2.0px;stroke-linecap:butt;stroke-linejoin:miter;stroke-opacity:1"/>
<path class="bond-13 atom-13 atom-14" d="M 70.5,60.5 L 60.4,53.3" style="fill:none;fill-rule:evenodd;stroke:#FF0000;stroke-width:2.0px;stroke-linecap:butt;stroke-linejoin:miter;stroke-opacity:1"/>
<path class="bond-14 atom-13 atom-15" d="M 80.6,67.7 L 110.0,57.8" style="fill:none;fill-rule:evenodd;stroke:#000000;stroke-width:2.0px;stroke-linecap:butt;stroke-linejoin:miter;stroke-opacity:1"/>
<path class="bond-15 atom-15 atom-16" d="M 110.0,57.8 L 113.8,45.9" style="fill:none;fill-rule:evenodd;stroke:#000000;stroke-width:2.0px;stroke-linecap:butt;stroke-linejoin:miter;stroke-opacity:1"/>
<path class="bond-15 atom-15 atom-16" d="M 113.8,45.9 L 117.6,33.9" style="fill:none;fill-rule:evenodd;stroke:#FF0000;stroke-width:2.0px;stroke-linecap:butt;stroke-linejoin:miter;stroke-opacity:1"/>
<path class="bond-16 atom-4 atom-17" d="M 180.9,71.1 L 203.7,50.2" style="fill:none;fill-rule:evenodd;stroke:#000000;stroke-width:2.0px;stroke-linecap:butt;stroke-linejoin:miter;stroke-opacity:1"/>
<path class="bond-17 atom-17 atom-18" d="M 203.7,50.2 L 201.0,37.9" style="fill:none;fill-rule:evenodd;stroke:#000000;stroke-width:2.0px;stroke-linecap:butt;stroke-linejoin:miter;stroke-opacity:1"/>
<path class="bond-17 atom-17 atom-18" d="M 201.0,37.9 L 198.3,25.5" style="fill:none;fill-rule:evenodd;stroke:#FF0000;stroke-width:2.0px;stroke-linecap:butt;stroke-linejoin:miter;stroke-opacity:1"/>
<path class="bond-18 atom-17 atom-19" d="M 203.7,50.2 L 233.3,59.5" style="fill:none;fill-rule:evenodd;stroke:#000000;stroke-width:2.0px;stroke-linecap:butt;stroke-linejoin:miter;stroke-opacity:1"/>
<path class="bond-19 atom-19 atom-20" d="M 233.3,59.5 L 242.2,51.4" style="fill:none;fill-rule:evenodd;stroke:#000000;stroke-width:2.0px;stroke-linecap:butt;stroke-linejoin:miter;stroke-opacity:1"/>
<path class="bond-19 atom-19 atom-20" d="M 242.2,51.4 L 251.1,43.2" style="fill:none;fill-rule:evenodd;stroke:#FF0000;stroke-width:2.0px;stroke-linecap:butt;stroke-linejoin:miter;stroke-opacity:1"/>
<path class="bond-20 atom-19 atom-21" d="M 233.3,59.5 L 240.0,89.8" style="fill:none;fill-rule:evenodd;stroke:#000000;stroke-width:2.0px;stroke-linecap:butt;stroke-linejoin:miter;stroke-opacity:1"/>
<path class="bond-21 atom-21 atom-22" d="M 240.0,89.8 L 252.3,93.6" style="fill:none;fill-rule:evenodd;stroke:#000000;stroke-width:2.0px;stroke-linecap:butt;stroke-linejoin:miter;stroke-opacity:1"/>
<path class="bond-21 atom-21 atom-22" d="M 252.3,93.6 L 264.5,97.5" style="fill:none;fill-rule:evenodd;stroke:#FF0000;stroke-width:2.0px;stroke-linecap:butt;stroke-linejoin:miter;stroke-opacity:1"/>
<path class="bond-22 atom-21 atom-2" d="M 240.0,89.8 L 217.2,110.7" style="fill:none;fill-rule:evenodd;stroke:#000000;stroke-width:2.0px;stroke-linecap:butt;stroke-linejoin:miter;stroke-opacity:1"/>
<path class="bond-23 atom-15 atom-6" d="M 110.0,57.8 L 128.5,82.8" style="fill:none;fill-rule:evenodd;stroke:#000000;stroke-width:2.0px;stroke-linecap:butt;stroke-linejoin:miter;stroke-opacity:1"/>
<path d="M 223.4,141.4 L 223.9,141.0 L 223.5,139.5" style="fill:none;stroke:#000000;stroke-width:2.0px;stroke-linecap:butt;stroke-linejoin:miter;stroke-opacity:1;"/>
<path d="M 150.5,102.3 L 151.7,103.3 L 151.6,103.9" style="fill:none;stroke:#000000;stroke-width:2.0px;stroke-linecap:butt;stroke-linejoin:miter;stroke-opacity:1;"/>
<path d="M 57.2,116.2 L 56.0,117.1 L 55.4,116.9" style="fill:none;stroke:#000000;stroke-width:2.0px;stroke-linecap:butt;stroke-linejoin:miter;stroke-opacity:1;"/>
<path class="atom-0" d="M 188.3 157.6 L 189.5 157.6 L 189.5 161.3 L 194.0 161.3 L 194.0 157.6 L 195.2 157.6 L 195.2 166.4 L 194.0 166.4 L 194.0 162.3 L 189.5 162.3 L 189.5 166.4 L 188.3 166.4 L 188.3 157.6 " fill="#FF0000"/>
<path class="atom-0" d="M 197.0 162.0 Q 197.0 159.9, 198.0 158.7 Q 199.1 157.5, 201.0 157.5 Q 203.0 157.5, 204.0 158.7 Q 205.0 159.9, 205.0 162.0 Q 205.0 164.1, 204.0 165.3 Q 202.9 166.5, 201.0 166.5 Q 199.1 166.5, 198.0 165.3 Q 197.0 164.1, 197.0 162.0 M 201.0 165.5 Q 202.4 165.5, 203.1 164.6 Q 203.8 163.7, 203.8 162.0 Q 203.8 160.2, 203.1 159.4 Q 202.4 158.5, 201.0 158.5 Q 199.7 158.5, 198.9 159.4 Q 198.2 160.2, 198.2 162.0 Q 198.2 163.7, 198.9 164.6 Q 199.7 165.5, 201.0 165.5 " fill="#FF0000"/>
<path class="atom-3" d="M 183.6 101.4 Q 183.6 99.3, 184.6 98.1 Q 185.7 97.0, 187.6 97.0 Q 189.5 97.0, 190.6 98.1 Q 191.6 99.3, 191.6 101.4 Q 191.6 103.6, 190.6 104.8 Q 189.5 106.0, 187.6 106.0 Q 185.7 106.0, 184.6 104.8 Q 183.6 103.6, 183.6 101.4 M 187.6 105.0 Q 188.9 105.0, 189.7 104.1 Q 190.4 103.2, 190.4 101.4 Q 190.4 99.7, 189.7 98.8 Q 188.9 98.0, 187.6 98.0 Q 186.3 98.0, 185.5 98.8 Q 184.8 99.7, 184.8 101.4 Q 184.8 103.2, 185.5 104.1 Q 186.3 105.0, 187.6 105.0 " fill="#FF0000"/>
<path class="atom-5" d="M 147.3 61.8 Q 147.3 59.7, 148.3 58.6 Q 149.4 57.4, 151.3 57.4 Q 153.3 57.4, 154.3 58.6 Q 155.4 59.7, 155.4 61.8 Q 155.4 64.0, 154.3 65.2 Q 153.2 66.4, 151.3 66.4 Q 149.4 66.4, 148.3 65.2 Q 147.3 64.0, 147.3 61.8 M 151.3 65.4 Q 152.7 65.4, 153.4 64.5 Q 154.1 63.6, 154.1 61.8 Q 154.1 60.1, 153.4 59.3 Q 152.7 58.4, 151.3 58.4 Q 150.0 58.4, 149.2 59.2 Q 148.5 60.1, 148.5 61.8 Q 148.5 63.6, 149.2 64.5 Q 150.0 65.4, 151.3 65.4 " fill="#FF0000"/>
<path class="atom-8" d="M 141.5 133.7 Q 141.5 131.6, 142.5 130.4 Q 143.6 129.2, 145.5 129.2 Q 147.5 129.2, 148.5 130.4 Q 149.5 131.6, 149.5 133.7 Q 149.5 135.8, 148.5 137.1 Q 147.4 138.3, 145.5 138.3 Q 143.6 138.3, 142.5 137.1 Q 141.5 135.9, 141.5 133.7 M 145.5 137.3 Q 146.8 137.3, 147.6 136.4 Q 148.3 135.5, 148.3 133.7 Q 148.3 132.0, 147.6 131.1 Q 146.8 130.2, 145.5 130.2 Q 144.2 130.2, 143.4 131.1 Q 142.7 132.0, 142.7 133.7 Q 142.7 135.5, 143.4 136.4 Q 144.2 137.3, 145.5 137.3 " fill="#FF0000"/>
<path class="atom-8" d="M 150.9 129.3 L 152.1 129.3 L 152.1 133.1 L 156.6 133.1 L 156.6 129.3 L 157.8 129.3 L 157.8 138.1 L 156.6 138.1 L 156.6 134.1 L 152.1 134.1 L 152.1 138.1 L 150.9 138.1 L 150.9 129.3 " fill="#FF0000"/>
<path class="atom-9" d="M 106.4 108.0 Q 106.4 105.9, 107.5 104.7 Q 108.5 103.6, 110.5 103.6 Q 112.4 103.6, 113.5 104.7 Q 114.5 105.9, 114.5 108.0 Q 114.5 110.2, 113.4 111.4 Q 112.4 112.6, 110.5 112.6 Q 108.5 112.6, 107.5 111.4 Q 106.4 110.2, 106.4 108.0 M 110.5 111.6 Q 111.8 111.6, 112.5 110.7 Q 113.3 109.8, 113.3 108.0 Q 113.3 106.3, 112.5 105.4 Q 111.8 104.6, 110.5 104.6 Q 109.1 104.6, 108.4 105.4 Q 107.7 106.3, 107.7 108.0 Q 107.7 109.8, 108.4 110.7 Q 109.1 111.6, 110.5 111.6 " fill="#FF0000"/>
<path class="atom-12" d="M 14.8 100.4 L 16.0 100.4 L 16.0 104.2 L 20.5 104.2 L 20.5 100.4 L 21.7 100.4 L 21.7 109.2 L 20.5 109.2 L 20.5 105.1 L 16.0 105.1 L 16.0 109.2 L 14.8 109.2 L 14.8 100.4 " fill="#FF0000"/>
<path class="atom-12" d="M 23.5 104.8 Q 23.5 102.7, 24.6 101.5 Q 25.6 100.3, 27.6 100.3 Q 29.5 100.3, 30.5 101.5 Q 31.6 102.7, 31.6 104.8 Q 31.6 106.9, 30.5 108.1 Q 29.5 109.3, 27.6 109.3 Q 25.6 109.3, 24.6 108.1 Q 23.5 106.9, 23.5 104.8 M 27.6 108.3 Q 28.9 108.3, 29.6 107.5 Q 30.3 106.5, 30.3 104.8 Q 30.3 103.1, 29.6 102.2 Q 28.9 101.3, 27.6 101.3 Q 26.2 101.3, 25.5 102.2 Q 24.8 103.0, 24.8 104.8 Q 24.8 106.6, 25.5 107.5 Q 26.2 108.3, 27.6 108.3 " fill="#FF0000"/>
<path class="atom-14" d="M 42.7 45.3 L 43.9 45.3 L 43.9 49.1 L 48.4 49.1 L 48.4 45.3 L 49.6 45.3 L 49.6 54.1 L 48.4 54.1 L 48.4 50.1 L 43.9 50.1 L 43.9 54.1 L 42.7 54.1 L 42.7 45.3 " fill="#FF0000"/>
<path class="atom-14" d="M 51.4 49.7 Q 51.4 47.6, 52.4 46.4 Q 53.4 45.2, 55.4 45.2 Q 57.3 45.2, 58.4 46.4 Q 59.4 47.6, 59.4 49.7 Q 59.4 51.8, 58.4 53.1 Q 57.3 54.3, 55.4 54.3 Q 53.5 54.3, 52.4 53.1 Q 51.4 51.8, 51.4 49.7 M 55.4 53.3 Q 56.7 53.3, 57.4 52.4 Q 58.2 51.5, 58.2 49.7 Q 58.2 48.0, 57.4 47.1 Q 56.7 46.2, 55.4 46.2 Q 54.0 46.2, 53.3 47.1 Q 52.6 48.0, 52.6 49.7 Q 52.6 51.5, 53.3 52.4 Q 54.0 53.3, 55.4 53.3 " fill="#FF0000"/>
<path class="atom-16" d="M 115.3 28.3 Q 115.3 26.2, 116.4 25.0 Q 117.4 23.8, 119.3 23.8 Q 121.3 23.8, 122.3 25.0 Q 123.4 26.2, 123.4 28.3 Q 123.4 30.4, 122.3 31.6 Q 121.3 32.9, 119.3 32.9 Q 117.4 32.9, 116.4 31.6 Q 115.3 30.4, 115.3 28.3 M 119.3 31.9 Q 120.7 31.9, 121.4 31.0 Q 122.1 30.1, 122.1 28.3 Q 122.1 26.6, 121.4 25.7 Q 120.7 24.8, 119.3 24.8 Q 118.0 24.8, 117.3 25.7 Q 116.6 26.6, 116.6 28.3 Q 116.6 30.1, 117.3 31.0 Q 118.0 31.9, 119.3 31.9 " fill="#FF0000"/>
<path class="atom-16" d="M 124.7 23.9 L 125.9 23.9 L 125.9 27.7 L 130.4 27.7 L 130.4 23.9 L 131.6 23.9 L 131.6 32.7 L 130.4 32.7 L 130.4 28.7 L 125.9 28.7 L 125.9 32.7 L 124.7 32.7 L 124.7 23.9 " fill="#FF0000"/>
<path class="atom-18" d="M 193.0 20.0 Q 193.0 17.8, 194.0 16.7 Q 195.1 15.5, 197.0 15.5 Q 199.0 15.5, 200.0 16.7 Q 201.1 17.8, 201.1 20.0 Q 201.1 22.1, 200.0 23.3 Q 199.0 24.5, 197.0 24.5 Q 195.1 24.5, 194.0 23.3 Q 193.0 22.1, 193.0 20.0 M 197.0 23.5 Q 198.4 23.5, 199.1 22.6 Q 199.8 21.7, 199.8 20.0 Q 199.8 18.2, 199.1 17.4 Q 198.4 16.5, 197.0 16.5 Q 195.7 16.5, 195.0 17.4 Q 194.2 18.2, 194.2 20.0 Q 194.2 21.7, 195.0 22.6 Q 195.7 23.5, 197.0 23.5 " fill="#FF0000"/>
<path class="atom-18" d="M 202.4 15.6 L 203.6 15.6 L 203.6 19.3 L 208.1 19.3 L 208.1 15.6 L 209.3 15.6 L 209.3 24.4 L 208.1 24.4 L 208.1 20.3 L 203.6 20.3 L 203.6 24.4 L 202.4 24.4 L 202.4 15.6 " fill="#FF0000"/>
<path class="atom-20" d="M 252.1 38.6 Q 252.1 36.5, 253.2 35.3 Q 254.2 34.1, 256.2 34.1 Q 258.1 34.1, 259.2 35.3 Q 260.2 36.5, 260.2 38.6 Q 260.2 40.7, 259.1 41.9 Q 258.1 43.1, 256.2 43.1 Q 254.2 43.1, 253.2 41.9 Q 252.1 40.7, 252.1 38.6 M 256.2 42.2 Q 257.5 42.2, 258.2 41.3 Q 259.0 40.4, 259.0 38.6 Q 259.0 36.9, 258.2 36.0 Q 257.5 35.1, 256.2 35.1 Q 254.8 35.1, 254.1 36.0 Q 253.4 36.9, 253.4 38.6 Q 253.4 40.4, 254.1 41.3 Q 254.8 42.2, 256.2 42.2 " fill="#FF0000"/>
<path class="atom-20" d="M 261.6 34.2 L 262.7 34.2 L 262.7 38.0 L 267.2 38.0 L 267.2 34.2 L 268.4 34.2 L 268.4 43.0 L 267.2 43.0 L 267.2 39.0 L 262.7 39.0 L 262.7 43.0 L 261.6 43.0 L 261.6 34.2 " fill="#FF0000"/>
<path class="atom-22" d="M 265.6 99.1 Q 265.6 97.0, 266.6 95.8 Q 267.6 94.7, 269.6 94.7 Q 271.5 94.7, 272.6 95.8 Q 273.6 97.0, 273.6 99.1 Q 273.6 101.3, 272.6 102.5 Q 271.5 103.7, 269.6 103.7 Q 267.6 103.7, 266.6 102.5 Q 265.6 101.3, 265.6 99.1 M 269.6 102.7 Q 270.9 102.7, 271.6 101.8 Q 272.4 100.9, 272.4 99.1 Q 272.4 97.4, 271.6 96.5 Q 270.9 95.7, 269.6 95.7 Q 268.2 95.7, 267.5 96.5 Q 266.8 97.4, 266.8 99.1 Q 266.8 100.9, 267.5 101.8 Q 268.2 102.7, 269.6 102.7 " fill="#FF0000"/>
<path class="atom-22" d="M 275.0 94.8 L 276.2 94.8 L 276.2 98.5 L 280.7 98.5 L 280.7 94.8 L 281.9 94.8 L 281.9 103.5 L 280.7 103.5 L 280.7 99.5 L 276.2 99.5 L 276.2 103.5 L 275.0 103.5 L 275.0 94.8 " fill="#FF0000"/>
<path class="legend" d="M 139.3 181.9 Q 139.3 179.6, 140.0 177.7 Q 140.7 175.8, 142.0 173.8 L 142.9 174.4 Q 141.8 176.3, 141.3 178.0 Q 140.8 179.7, 140.8 181.9 Q 140.8 184.0, 141.3 185.8 Q 141.8 187.5, 142.9 189.4 L 142.0 190.0 Q 140.7 188.0, 140.0 186.1 Q 139.3 184.2, 139.3 181.9 " fill="#000000"/>
<path class="legend" d="M 143.8 177.3 Q 144.2 176.2, 145.2 175.6 Q 146.2 175.0, 147.6 175.0 Q 149.3 175.0, 150.2 175.9 Q 151.2 176.8, 151.2 178.5 Q 151.2 180.2, 149.9 181.7 Q 148.7 183.3, 146.2 185.2 L 151.4 185.2 L 151.4 186.4 L 143.8 186.4 L 143.8 185.4 Q 145.9 183.9, 147.1 182.8 Q 148.4 181.6, 149.0 180.6 Q 149.6 179.6, 149.6 178.6 Q 149.6 177.5, 149.0 176.9 Q 148.5 176.3, 147.6 176.3 Q 146.6 176.3, 146.0 176.6 Q 145.4 177.0, 145.0 177.8 L 143.8 177.3 " fill="#000000"/>
<path class="legend" d="M 156.4 181.9 Q 156.4 184.2, 155.7 186.1 Q 155.0 188.0, 153.7 190.0 L 152.8 189.4 Q 153.9 187.5, 154.4 185.8 Q 154.9 184.0, 154.9 181.9 Q 154.9 179.7, 154.4 178.0 Q 153.9 176.3, 152.8 174.4 L 153.7 173.8 Q 155.0 175.8, 155.7 177.7 Q 156.4 179.6, 156.4 181.9 " fill="#000000"/>
</g>
    <g transform="translate(297.0, 0) scale(1 1) "><line x1="5" y1="100" x2="35" y2="100" style="stroke:rgb(0,0,0);stroke-width:2"/>
  <line x1="34" y1="100" x2="29" y2="95" style="stroke:rgb(0,0,0);stroke-width:2"/>
  <line x1="34" y1="100" x2="29" y2="105" style="stroke:rgb(0,0,0);stroke-width:2"/>
</g>
    <g transform="translate(337.0, 0) scale(1 1) "><!-- END OF HEADER -->
<rect style="opacity:1.0;fill:#FFFFFF;stroke:none" width="331.0" height="200.0" x="0.0" y="0.0"> </rect>
<path class="bond-0 atom-0 atom-1" d="M 62.9,130.7 L 57.9,121.3" style="fill:none;fill-rule:evenodd;stroke:#FF0000;stroke-width:2.0px;stroke-linecap:butt;stroke-linejoin:miter;stroke-opacity:1"/>
<path class="bond-0 atom-0 atom-1" d="M 57.9,121.3 L 52.8,111.9" style="fill:none;fill-rule:evenodd;stroke:#000000;stroke-width:2.0px;stroke-linecap:butt;stroke-linejoin:miter;stroke-opacity:1"/>
<path class="bond-1 atom-1 atom-2" d="M 52.8,111.9 L 66.7,89.3" style="fill:none;fill-rule:evenodd;stroke:#000000;stroke-width:2.0px;stroke-linecap:butt;stroke-linejoin:miter;stroke-opacity:1"/>
<path class="bond-2 atom-2 atom-3" d="M 66.7,89.3 L 77.9,89.6" style="fill:none;fill-rule:evenodd;stroke:#000000;stroke-width:2.0px;stroke-linecap:butt;stroke-linejoin:miter;stroke-opacity:1"/>
<path class="bond-2 atom-2 atom-3" d="M 77.9,89.6 L 89.0,89.9" style="fill:none;fill-rule:evenodd;stroke:#FF0000;stroke-width:2.0px;stroke-linecap:butt;stroke-linejoin:miter;stroke-opacity:1"/>
<path class="bond-3 atom-3 atom-4" d="M 96.2,85.3 L 101.8,76.3" style="fill:none;fill-rule:evenodd;stroke:#FF0000;stroke-width:2.0px;stroke-linecap:butt;stroke-linejoin:miter;stroke-opacity:1"/>
<path class="bond-3 atom-3 atom-4" d="M 101.8,76.3 L 107.3,67.3" style="fill:none;fill-rule:evenodd;stroke:#000000;stroke-width:2.0px;stroke-linecap:butt;stroke-linejoin:miter;stroke-opacity:1"/>
<path class="bond-4 atom-4 atom-5" d="M 107.3,67.3 L 118.5,67.6" style="fill:none;fill-rule:evenodd;stroke:#000000;stroke-width:2.0px;stroke-linecap:butt;stroke-linejoin:miter;stroke-opacity:1"/>
<path class="bond-4 atom-4 atom-5" d="M 118.5,67.6 L 129.6,67.9" style="fill:none;fill-rule:evenodd;stroke:#FF0000;stroke-width:2.0px;stroke-linecap:butt;stroke-linejoin:miter;stroke-opacity:1"/>
<path class="bond-5 atom-5 atom-6" d="M 136.5,72.9 L 141.6,82.2" style="fill:none;fill-rule:evenodd;stroke:#FF0000;stroke-width:2.0px;stroke-linecap:butt;stroke-linejoin:miter;stroke-opacity:1"/>
<path class="bond-5 atom-5 atom-6" d="M 141.6,82.2 L 146.6,91.5" style="fill:none;fill-rule:evenodd;stroke:#000000;stroke-width:2.0px;stroke-linecap:butt;stroke-linejoin:miter;stroke-opacity:1"/>
<path class="bond-6 atom-6 atom-7" d="M 146.6,91.5 L 168.6,76.4" style="fill:none;fill-rule:evenodd;stroke:#000000;stroke-width:2.0px;stroke-linecap:butt;stroke-linejoin:miter;stroke-opacity:1"/>
<path class="bond-7 atom-7 atom-8" d="M 168.6,76.4 L 178.4,81.1" style="fill:none;fill-rule:evenodd;stroke:#000000;stroke-width:2.0px;stroke-linecap:butt;stroke-linejoin:miter;stroke-opacity:1"/>
<path class="bond-7 atom-7 atom-8" d="M 178.4,81.1 L 188.2,85.9" style="fill:none;fill-rule:evenodd;stroke:#FF0000;stroke-width:2.0px;stroke-linecap:butt;stroke-linejoin:miter;stroke-opacity:1"/>
<path class="bond-8 atom-8 atom-9" d="M 196.9,85.0 L 205.7,78.9" style="fill:none;fill-rule:evenodd;stroke:#FF0000;stroke-width:2.0px;stroke-linecap:butt;stroke-linejoin:miter;stroke-opacity:1"/>
<path class="bond-8 atom-8 atom-9" d="M 205.7,78.9 L 214.5,72.9" style="fill:none;fill-rule:evenodd;stroke:#000000;stroke-width:2.0px;stroke-linecap:butt;stroke-linejoin:miter;stroke-opacity:1"/>
<path class="bond-9 atom-9 atom-10" d="M 214.5,72.9 L 197.3,52.6" style="fill:none;fill-rule:evenodd;stroke:#000000;stroke-width:2.0px;stroke-linecap:butt;stroke-linejoin:miter;stroke-opacity:1"/>
<path class="bond-10 atom-10 atom-11" d="M 197.3,52.6 L 186.4,54.6" style="fill:none;fill-rule:evenodd;stroke:#000000;stroke-width:2.0px;stroke-linecap:butt;stroke-linejoin:miter;stroke-opacity:1"/>
<path class="bond-10 atom-10 atom-11" d="M 186.4,54.6 L 175.4,56.6" style="fill:none;fill-rule:evenodd;stroke:#FF0000;stroke-width:2.0px;stroke-linecap:butt;stroke-linejoin:miter;stroke-opacity:1"/>
<path class="bond-11 atom-9 atom-12" d="M 214.5,72.9 L 221.6,65.5" style="fill:none;fill-rule:evenodd;stroke:#000000;stroke-width:2.0px;stroke-linecap:butt;stroke-linejoin:miter;stroke-opacity:1"/>
<path class="bond-11 atom-9 atom-12" d="M 221.6,65.5 L 228.6,58.2" style="fill:none;fill-rule:evenodd;stroke:#FF0000;stroke-width:2.0px;stroke-linecap:butt;stroke-linejoin:miter;stroke-opacity:1"/>
<path class="bond-12 atom-12 atom-13" d="M 237.2,55.7 L 247.1,60.4" style="fill:none;fill-rule:evenodd;stroke:#FF0000;stroke-width:2.0px;stroke-linecap:butt;stroke-linejoin:miter;stroke-opacity:1"/>
<path class="bond-12 atom-12 atom-13" d="M 247.1,60.4 L 256.9,65.1" style="fill:none;fill-rule:evenodd;stroke:#000000;stroke-width:2.0px;stroke-linecap:butt;stroke-linejoin:miter;stroke-opacity:1"/>
<path class="bond-13 atom-13 atom-14" d="M 256.9,65.1 L 280.3,52.4" style="fill:none;fill-rule:evenodd;stroke:#000000;stroke-width:2.0px;stroke-linecap:butt;stroke-linejoin:miter;stroke-opacity:1"/>
<path class="bond-14 atom-14 atom-15" d="M 280.3,52.4 L 289.5,58.1" style="fill:none;fill-rule:evenodd;stroke:#000000;stroke-width:2.0px;stroke-linecap:butt;stroke-linejoin:miter;stroke-opacity:1"/>
<path class="bond-14 atom-14 atom-15" d="M 289.5,58.1 L 298.7,63.7" style="fill:none;fill-rule:evenodd;stroke:#FF0000;stroke-width:2.0px;stroke-linecap:butt;stroke-linejoin:miter;stroke-opacity:1"/>
<path class="bond-15 atom-13 atom-16" d="M 256.9,65.1 L 253.4,91.5" style="fill:none;fill-rule:evenodd;stroke:#000000;stroke-width:2.0px;stroke-linecap:butt;stroke-linejoin:miter;stroke-opacity:1"/>
<path class="bond-16 atom-16 atom-17" d="M 253.4,91.5 L 260.9,98.6" style="fill:none;fill-rule:evenodd;stroke:#000000;stroke-width:2.0px;stroke-linecap:butt;stroke-linejoin:miter;stroke-opacity:1"/>
<path class="bond-16 atom-16 atom-17" d="M 260.9,98.6 L 268.3,105.7" style="fill:none;fill-rule:evenodd;stroke:#FF0000;stroke-width:2.0px;stroke-linecap:butt;stroke-linejoin:miter;stroke-opacity:1"/>
<path class="bond-17 atom-16 atom-18" d="M 253.4,91.5 L 227.2,96.3" style="fill:none;fill-rule:evenodd;stroke:#000000;stroke-width:2.0px;stroke-linecap:butt;stroke-linejoin:miter;stroke-opacity:1"/>
<path class="bond-18 atom-18 atom-19" d="M 227.2,96.3 L 222.6,106.0" style="fill:none;fill-rule:evenodd;stroke:#000000;stroke-width:2.0px;stroke-linecap:butt;stroke-linejoin:miter;stroke-opacity:1"/>
<path class="bond-18 atom-18 atom-19" d="M 222.6,106.0 L 217.9,115.6" style="fill:none;fill-rule:evenodd;stroke:#FF0000;stroke-width:2.0px;stroke-linecap:butt;stroke-linejoin:miter;stroke-opacity:1"/>
<path class="bond-19 atom-6 atom-20" d="M 146.6,91.5 L 153.2,99.3" style="fill:none;fill-rule:evenodd;stroke:#000000;stroke-width:2.0px;stroke-linecap:butt;stroke-linejoin:miter;stroke-opacity:1"/>
<path class="bond-19 atom-6 atom-20" d="M 153.2,99.3 L 159.9,107.1" style="fill:none;fill-rule:evenodd;stroke:#FF0000;stroke-width:2.0px;stroke-linecap:butt;stroke-linejoin:miter;stroke-opacity:1"/>
<path class="bond-20 atom-20 atom-21" d="M 160.9,116.6 L 155.4,125.5" style="fill:none;fill-rule:evenodd;stroke:#FF0000;stroke-width:2.0px;stroke-linecap:butt;stroke-linejoin:miter;stroke-opacity:1"/>
<path class="bond-20 atom-20 atom-21" d="M 155.4,125.5 L 149.9,134.4" style="fill:none;fill-rule:evenodd;stroke:#000000;stroke-width:2.0px;stroke-linecap:butt;stroke-linejoin:miter;stroke-opacity:1"/>
<path class="bond-21 atom-21 atom-22" d="M 149.9,134.4 L 160.0,159.1" style="fill:none;fill-rule:evenodd;stroke:#000000;stroke-width:2.0px;stroke-linecap:butt;stroke-linejoin:miter;stroke-opacity:1"/>
<path class="bond-22 atom-22 atom-23" d="M 160.0,159.1 L 153.7,167.3" style="fill:none;fill-rule:evenodd;stroke:#000000;stroke-width:2.0px;stroke-linecap:butt;stroke-linejoin:miter;stroke-opacity:1"/>
<path class="bond-22 atom-22 atom-23" d="M 153.7,167.3 L 147.4,175.5" style="fill:none;fill-rule:evenodd;stroke:#FF0000;stroke-width:2.0px;stroke-linecap:butt;stroke-linejoin:miter;stroke-opacity:1"/>
<path class="bond-23 atom-21 atom-24" d="M 149.9,134.4 L 124.0,128.2" style="fill:none;fill-rule:evenodd;stroke:#000000;stroke-width:2.0px;stroke-linecap:butt;stroke-linejoin:miter;stroke-opacity:1"/>
<path class="bond-24 atom-24 atom-25" d="M 124.0,128.2 L 116.0,135.0" style="fill:none;fill-rule:evenodd;stroke:#000000;stroke-width:2.0px;stroke-linecap:butt;stroke-linejoin:miter;stroke-opacity:1"/>
<path class="bond-24 atom-24 atom-25" d="M 116.0,135.0 L 108.1,141.8" style="fill:none;fill-rule:evenodd;stroke:#FF0000;stroke-width:2.0px;stroke-linecap:butt;stroke-linejoin:miter;stroke-opacity:1"/>
<path class="bond-25 atom-24 atom-26" d="M 124.0,128.2 L 122.0,101.6" style="fill:none;fill-rule:evenodd;stroke:#000000;stroke-width:2.0px;stroke-linecap:butt;stroke-linejoin:miter;stroke-opacity:1"/>
<path class="bond-26 atom-26 atom-27" d="M 122.0,101.6 L 117.4,100.2" style="fill:none;fill-rule:evenodd;stroke:#000000;stroke-width:2.0px;stroke-linecap:butt;stroke-linejoin:miter;stroke-opacity:1"/>
<path class="bond-26 atom-26 atom-27" d="M 117.4,100.2 L 112.8,98.7" style="fill:none;fill-rule:evenodd;stroke:#FF0000;stroke-width:2.0px;stroke-linecap:butt;stroke-linejoin:miter;stroke-opacity:1"/>
<path class="bond-27 atom-4 atom-28" d="M 107.3,67.3 L 94.6,43.9" style="fill:none;fill-rule:evenodd;stroke:#000000;stroke-width:2.0px;stroke-linecap:butt;stroke-linejoin:miter;stroke-opacity:1"/>
<path class="bond-28 atom-28 atom-29" d="M 94.6,43.9 L 100.1,35.0" style="fill:none;fill-rule:evenodd;stroke:#000000;stroke-width:2.0px;stroke-linecap:butt;stroke-linejoin:miter;stroke-opacity:1"/>
<path class="bond-28 atom-28 atom-29" d="M 100.1,35.0 L 105.6,26.0" style="fill:none;fill-rule:evenodd;stroke:#FF0000;stroke-width:2.0px;stroke-linecap:butt;stroke-linejoin:miter;stroke-opacity:1"/>
<path class="bond-29 atom-28 atom-30" d="M 94.6,43.9 L 68.0,43.2" style="fill:none;fill-rule:evenodd;stroke:#000000;stroke-width:2.0px;stroke-linecap:butt;stroke-linejoin:miter;stroke-opacity:1"/>
<path class="bond-30 atom-30 atom-31" d="M 68.0,43.2 L 63.0,33.8" style="fill:none;fill-rule:evenodd;stroke:#000000;stroke-width:2.0px;stroke-linecap:butt;stroke-linejoin:miter;stroke-opacity:1"/>
<path class="bond-30 atom-30 atom-31" d="M 63.0,33.8 L 58.0,24.5" style="fill:none;fill-rule:evenodd;stroke:#FF0000;stroke-width:2.0px;stroke-linecap:butt;stroke-linejoin:miter;stroke-opacity:1"/>
<path class="bond-31 atom-30 atom-32" d="M 68.0,43.2 L 54.1,65.8" style="fill:none;fill-rule:evenodd;stroke:#000000;stroke-width:2.0px;stroke-linecap:butt;stroke-linejoin:miter;stroke-opacity:1"/>
<path class="bond-32 atom-32 atom-33" d="M 54.1,65.8 L 42.9,65.5" style="fill:none;fill-rule:evenodd;stroke:#000000;stroke-width:2.0px;stroke-linecap:butt;stroke-linejoin:miter;stroke-opacity:1"/>
<path class="bond-32 atom-32 atom-33" d="M 42.9,65.5 L 31.8,65.2" style="fill:none;fill-rule:evenodd;stroke:#FF0000;stroke-width:2.0px;stroke-linecap:butt;stroke-linejoin:miter;stroke-opacity:1"/>
<path class="bond-33 atom-32 atom-2" d="M 54.1,65.8 L 66.7,89.3" style="fill:none;fill-rule:evenodd;stroke:#000000;stroke-width:2.0px;stroke-linecap:butt;stroke-linejoin:miter;stroke-opacity:1"/>
<path class="bond-34 atom-26 atom-6" d="M 122.0,101.6 L 146.6,91.5" style="fill:none;fill-rule:evenodd;stroke:#000000;stroke-width:2.0px;stroke-linecap:butt;stroke-linejoin:miter;stroke-opacity:1"/>
<path class="bond-35 atom-18 atom-9" d="M 227.2,96.3 L 214.5,72.9" style="fill:none;fill-rule:evenodd;stroke:#000000;stroke-width:2.0px;stroke-linecap:butt;stroke-linejoin:miter;stroke-opacity:1"/>
<path d="M 53.0,112.4 L 52.8,111.9 L 53.5,110.8" style="fill:none;stroke:#000000;stroke-width:2.0px;stroke-linecap:butt;stroke-linejoin:miter;stroke-opacity:1;"/>
<path d="M 167.5,77.2 L 168.6,76.4 L 169.0,76.7" style="fill:none;stroke:#000000;stroke-width:2.0px;stroke-linecap:butt;stroke-linejoin:miter;stroke-opacity:1;"/>
<path d="M 198.1,53.6 L 197.3,52.6 L 196.7,52.7" style="fill:none;stroke:#000000;stroke-width:2.0px;stroke-linecap:butt;stroke-linejoin:miter;stroke-opacity:1;"/>
<path d="M 279.2,53.1 L 280.3,52.4 L 280.8,52.7" style="fill:none;stroke:#000000;stroke-width:2.0px;stroke-linecap:butt;stroke-linejoin:miter;stroke-opacity:1;"/>
<path d="M 159.5,157.8 L 160.0,159.1 L 159.7,159.5" style="fill:none;stroke:#000000;stroke-width:2.0px;stroke-linecap:butt;stroke-linejoin:miter;stroke-opacity:1;"/>
<path class="atom-0" d="M 62.0 135.4 Q 62.0 133.6, 62.9 132.6 Q 63.8 131.5, 65.5 131.5 Q 67.1 131.5, 68.0 132.6 Q 68.9 133.6, 68.9 135.4 Q 68.9 137.2, 68.0 138.3 Q 67.1 139.3, 65.5 139.3 Q 63.8 139.3, 62.9 138.3 Q 62.0 137.2, 62.0 135.4 M 65.5 138.4 Q 66.6 138.4, 67.2 137.7 Q 67.9 136.9, 67.9 135.4 Q 67.9 133.9, 67.2 133.2 Q 66.6 132.4, 65.5 132.4 Q 64.3 132.4, 63.7 133.1 Q 63.1 133.9, 63.1 135.4 Q 63.1 136.9, 63.7 137.7 Q 64.3 138.4, 65.5 138.4 " fill="#FF0000"/>
<path class="atom-0" d="M 70.1 131.6 L 71.1 131.6 L 71.1 134.8 L 75.0 134.8 L 75.0 131.6 L 76.0 131.6 L 76.0 139.2 L 75.0 139.2 L 75.0 135.7 L 71.1 135.7 L 71.1 139.2 L 70.1 139.2 L 70.1 131.6 " fill="#FF0000"/>
<path class="atom-3" d="M 89.9 90.0 Q 89.9 88.2, 90.8 87.2 Q 91.7 86.2, 93.4 86.2 Q 95.0 86.2, 95.9 87.2 Q 96.8 88.2, 96.8 90.0 Q 96.8 91.9, 95.9 92.9 Q 95.0 93.9, 93.4 93.9 Q 91.7 93.9, 90.8 92.9 Q 89.9 91.9, 89.9 90.0 M 93.4 93.1 Q 94.5 93.1, 95.1 92.3 Q 95.8 91.5, 95.8 90.0 Q 95.8 88.5, 95.1 87.8 Q 94.5 87.0, 93.4 87.0 Q 92.2 87.0, 91.6 87.8 Q 91.0 88.5, 91.0 90.0 Q 91.0 91.5, 91.6 92.3 Q 92.2 93.1, 93.4 93.1 " fill="#FF0000"/>
<path class="atom-5" d="M 130.5 68.1 Q 130.5 66.3, 131.4 65.3 Q 132.3 64.2, 133.9 64.2 Q 135.6 64.2, 136.5 65.3 Q 137.4 66.3, 137.4 68.1 Q 137.4 69.9, 136.5 71.0 Q 135.6 72.0, 133.9 72.0 Q 132.3 72.0, 131.4 71.0 Q 130.5 69.9, 130.5 68.1 M 133.9 71.1 Q 135.1 71.1, 135.7 70.4 Q 136.3 69.6, 136.3 68.1 Q 136.3 66.6, 135.7 65.9 Q 135.1 65.1, 133.9 65.1 Q 132.8 65.1, 132.1 65.8 Q 131.5 66.6, 131.5 68.1 Q 131.5 69.6, 132.1 70.4 Q 132.8 71.1, 133.9 71.1 " fill="#FF0000"/>
<path class="atom-8" d="M 189.1 88.0 Q 189.1 86.1, 190.0 85.1 Q 190.9 84.1, 192.6 84.1 Q 194.2 84.1, 195.1 85.1 Q 196.0 86.1, 196.0 88.0 Q 196.0 89.8, 195.1 90.8 Q 194.2 91.9, 192.6 91.9 Q 190.9 91.9, 190.0 90.8 Q 189.1 89.8, 189.1 88.0 M 192.6 91.0 Q 193.7 91.0, 194.3 90.2 Q 195.0 89.5, 195.0 88.0 Q 195.0 86.5, 194.3 85.7 Q 193.7 85.0, 192.6 85.0 Q 191.4 85.0, 190.8 85.7 Q 190.2 86.5, 190.2 88.0 Q 190.2 89.5, 190.8 90.2 Q 191.4 91.0, 192.6 91.0 " fill="#FF0000"/>
<path class="atom-11" d="M 160.2 53.7 L 161.2 53.7 L 161.2 56.9 L 165.1 56.9 L 165.1 53.7 L 166.1 53.7 L 166.1 61.2 L 165.1 61.2 L 165.1 57.8 L 161.2 57.8 L 161.2 61.2 L 160.2 61.2 L 160.2 53.7 " fill="#FF0000"/>
<path class="atom-11" d="M 167.6 57.4 Q 167.6 55.6, 168.5 54.6 Q 169.4 53.6, 171.1 53.6 Q 172.8 53.6, 173.7 54.6 Q 174.6 55.6, 174.6 57.4 Q 174.6 59.3, 173.6 60.3 Q 172.7 61.4, 171.1 61.4 Q 169.4 61.4, 168.5 60.3 Q 167.6 59.3, 167.6 57.4 M 171.1 60.5 Q 172.2 60.5, 172.9 59.7 Q 173.5 59.0, 173.5 57.4 Q 173.5 56.0, 172.9 55.2 Q 172.2 54.5, 171.1 54.5 Q 169.9 54.5, 169.3 55.2 Q 168.7 56.0, 168.7 57.4 Q 168.7 59.0, 169.3 59.7 Q 169.9 60.5, 171.1 60.5 " fill="#FF0000"/>
<path class="atom-12" d="M 229.4 53.6 Q 229.4 51.8, 230.3 50.8 Q 231.2 49.8, 232.9 49.8 Q 234.6 49.8, 235.5 50.8 Q 236.4 51.8, 236.4 53.6 Q 236.4 55.5, 235.5 56.5 Q 234.6 57.5, 232.9 57.5 Q 231.2 57.5, 230.3 56.5 Q 229.4 55.5, 229.4 53.6 M 232.9 56.7 Q 234.1 56.7, 234.7 55.9 Q 235.3 55.1, 235.3 53.6 Q 235.3 52.2, 234.7 51.4 Q 234.1 50.6, 232.9 50.6 Q 231.8 50.6, 231.1 51.4 Q 230.5 52.1, 230.5 53.6 Q 230.5 55.2, 231.1 55.9 Q 231.8 56.7, 232.9 56.7 " fill="#FF0000"/>
<path class="atom-15" d="M 299.6 66.4 Q 299.6 64.6, 300.4 63.6 Q 301.3 62.6, 303.0 62.6 Q 304.7 62.6, 305.6 63.6 Q 306.5 64.6, 306.5 66.4 Q 306.5 68.2, 305.6 69.3 Q 304.7 70.3, 303.0 70.3 Q 301.4 70.3, 300.4 69.3 Q 299.6 68.3, 299.6 66.4 M 303.0 69.5 Q 304.2 69.5, 304.8 68.7 Q 305.4 67.9, 305.4 66.4 Q 305.4 64.9, 304.8 64.2 Q 304.2 63.4, 303.0 63.4 Q 301.9 63.4, 301.2 64.2 Q 300.6 64.9, 300.6 66.4 Q 300.6 67.9, 301.2 68.7 Q 301.9 69.5, 303.0 69.5 " fill="#FF0000"/>
<path class="atom-15" d="M 307.6 62.7 L 308.7 62.7 L 308.7 65.9 L 312.5 65.9 L 312.5 62.7 L 313.6 62.7 L 313.6 70.2 L 312.5 70.2 L 312.5 66.7 L 308.7 66.7 L 308.7 70.2 L 307.6 70.2 L 307.6 62.7 " fill="#FF0000"/>
<path class="atom-17" d="M 269.2 109.9 Q 269.2 108.1, 270.1 107.1 Q 271.0 106.1, 272.7 106.1 Q 274.4 106.1, 275.2 107.1 Q 276.1 108.1, 276.1 109.9 Q 276.1 111.7, 275.2 112.8 Q 274.3 113.8, 272.7 113.8 Q 271.0 113.8, 270.1 112.8 Q 269.2 111.7, 269.2 109.9 M 272.7 112.9 Q 273.8 112.9, 274.4 112.2 Q 275.1 111.4, 275.1 109.9 Q 275.1 108.4, 274.4 107.7 Q 273.8 106.9, 272.7 106.9 Q 271.5 106.9, 270.9 107.7 Q 270.3 108.4, 270.3 109.9 Q 270.3 111.4, 270.9 112.2 Q 271.5 112.9, 272.7 112.9 " fill="#FF0000"/>
<path class="atom-17" d="M 277.3 106.1 L 278.3 106.1 L 278.3 109.3 L 282.2 109.3 L 282.2 106.1 L 283.2 106.1 L 283.2 113.7 L 282.2 113.7 L 282.2 110.2 L 278.3 110.2 L 278.3 113.7 L 277.3 113.7 L 277.3 106.1 " fill="#FF0000"/>
<path class="atom-19" d="M 204.8 116.6 L 205.8 116.6 L 205.8 119.8 L 209.7 119.8 L 209.7 116.6 L 210.7 116.6 L 210.7 124.1 L 209.7 124.1 L 209.7 120.7 L 205.8 120.7 L 205.8 124.1 L 204.8 124.1 L 204.8 116.6 " fill="#FF0000"/>
<path class="atom-19" d="M 212.2 120.3 Q 212.2 118.5, 213.1 117.5 Q 214.0 116.5, 215.7 116.5 Q 217.4 116.5, 218.3 117.5 Q 219.2 118.5, 219.2 120.3 Q 219.2 122.2, 218.3 123.2 Q 217.4 124.3, 215.7 124.3 Q 214.0 124.3, 213.1 123.2 Q 212.2 122.2, 212.2 120.3 M 215.7 123.4 Q 216.9 123.4, 217.5 122.6 Q 218.1 121.9, 218.1 120.3 Q 218.1 118.9, 217.5 118.1 Q 216.9 117.4, 215.7 117.4 Q 214.6 117.4, 213.9 118.1 Q 213.3 118.9, 213.3 120.3 Q 213.3 121.9, 213.9 122.6 Q 214.6 123.4, 215.7 123.4 " fill="#FF0000"/>
<path class="atom-20" d="M 160.4 111.8 Q 160.4 110.0, 161.3 109.0 Q 162.2 107.9, 163.8 107.9 Q 165.5 107.9, 166.4 109.0 Q 167.3 110.0, 167.3 111.8 Q 167.3 113.6, 166.4 114.7 Q 165.5 115.7, 163.8 115.7 Q 162.2 115.7, 161.3 114.7 Q 160.4 113.6, 160.4 111.8 M 163.8 114.8 Q 165.0 114.8, 165.6 114.1 Q 166.2 113.3, 166.2 111.8 Q 166.2 110.3, 165.6 109.6 Q 165.0 108.8, 163.8 108.8 Q 162.7 108.8, 162.1 109.5 Q 161.5 110.3, 161.5 111.8 Q 161.5 113.3, 162.1 114.1 Q 162.7 114.8, 163.8 114.8 " fill="#FF0000"/>
<path class="atom-23" d="M 132.9 176.4 L 133.9 176.4 L 133.9 179.6 L 137.8 179.6 L 137.8 176.4 L 138.8 176.4 L 138.8 184.0 L 137.8 184.0 L 137.8 180.5 L 133.9 180.5 L 133.9 184.0 L 132.9 184.0 L 132.9 176.4 " fill="#FF0000"/>
<path class="atom-23" d="M 140.3 180.2 Q 140.3 178.4, 141.2 177.3 Q 142.1 176.3, 143.8 176.3 Q 145.5 176.3, 146.4 177.3 Q 147.3 178.4, 147.3 180.2 Q 147.3 182.0, 146.4 183.0 Q 145.5 184.1, 143.8 184.1 Q 142.1 184.1, 141.2 183.0 Q 140.3 182.0, 140.3 180.2 M 143.8 183.2 Q 145.0 183.2, 145.6 182.5 Q 146.2 181.7, 146.2 180.2 Q 146.2 178.7, 145.6 177.9 Q 145.0 177.2, 143.8 177.2 Q 142.7 177.2, 142.0 177.9 Q 141.4 178.7, 141.4 180.2 Q 141.4 181.7, 142.0 182.5 Q 142.7 183.2, 143.8 183.2 " fill="#FF0000"/>
<path class="atom-25" d="M 92.8 141.7 L 93.9 141.7 L 93.9 144.9 L 97.7 144.9 L 97.7 141.7 L 98.7 141.7 L 98.7 149.2 L 97.7 149.2 L 97.7 145.8 L 93.9 145.8 L 93.9 149.2 L 92.8 149.2 L 92.8 141.7 " fill="#FF0000"/>
<path class="atom-25" d="M 100.3 145.5 Q 100.3 143.6, 101.2 142.6 Q 102.1 141.6, 103.7 141.6 Q 105.4 141.6, 106.3 142.6 Q 107.2 143.6, 107.2 145.5 Q 107.2 147.3, 106.3 148.3 Q 105.4 149.4, 103.7 149.4 Q 102.1 149.4, 101.2 148.3 Q 100.3 147.3, 100.3 145.5 M 103.7 148.5 Q 104.9 148.5, 105.5 147.7 Q 106.1 147.0, 106.1 145.5 Q 106.1 144.0, 105.5 143.2 Q 104.9 142.5, 103.7 142.5 Q 102.6 142.5, 102.0 143.2 Q 101.3 144.0, 101.3 145.5 Q 101.3 147.0, 102.0 147.7 Q 102.6 148.5, 103.7 148.5 " fill="#FF0000"/>
<path class="atom-27" d="M 97.6 93.6 L 98.6 93.6 L 98.6 96.8 L 102.5 96.8 L 102.5 93.6 L 103.5 93.6 L 103.5 101.2 L 102.5 101.2 L 102.5 97.7 L 98.6 97.7 L 98.6 101.2 L 97.6 101.2 L 97.6 93.6 " fill="#FF0000"/>
<path class="atom-27" d="M 105.0 97.4 Q 105.0 95.6, 105.9 94.6 Q 106.8 93.5, 108.5 93.5 Q 110.2 93.5, 111.1 94.6 Q 111.9 95.6, 111.9 97.4 Q 111.9 99.2, 111.0 100.2 Q 110.1 101.3, 108.5 101.3 Q 106.8 101.3, 105.9 100.2 Q 105.0 99.2, 105.0 97.4 M 108.5 100.4 Q 109.6 100.4, 110.3 99.7 Q 110.9 98.9, 110.9 97.4 Q 110.9 95.9, 110.3 95.1 Q 109.6 94.4, 108.5 94.4 Q 107.3 94.4, 106.7 95.1 Q 106.1 95.9, 106.1 97.4 Q 106.1 98.9, 106.7 99.7 Q 107.3 100.4, 108.5 100.4 " fill="#FF0000"/>
<path class="atom-29" d="M 105.1 21.2 Q 105.1 19.4, 106.0 18.4 Q 106.9 17.4, 108.6 17.4 Q 110.3 17.4, 111.2 18.4 Q 112.1 19.4, 112.1 21.2 Q 112.1 23.1, 111.1 24.1 Q 110.2 25.1, 108.6 25.1 Q 106.9 25.1, 106.0 24.1 Q 105.1 23.1, 105.1 21.2 M 108.6 24.3 Q 109.7 24.3, 110.4 23.5 Q 111.0 22.8, 111.0 21.2 Q 111.0 19.8, 110.4 19.0 Q 109.7 18.3, 108.6 18.3 Q 107.4 18.3, 106.8 19.0 Q 106.2 19.7, 106.2 21.2 Q 106.2 22.8, 106.8 23.5 Q 107.4 24.3, 108.6 24.3 " fill="#FF0000"/>
<path class="atom-29" d="M 113.2 17.5 L 114.2 17.5 L 114.2 20.7 L 118.1 20.7 L 118.1 17.5 L 119.1 17.5 L 119.1 25.0 L 118.1 25.0 L 118.1 21.5 L 114.2 21.5 L 114.2 25.0 L 113.2 25.0 L 113.2 17.5 " fill="#FF0000"/>
<path class="atom-31" d="M 44.5 16.0 L 45.5 16.0 L 45.5 19.2 L 49.3 19.2 L 49.3 16.0 L 50.4 16.0 L 50.4 23.5 L 49.3 23.5 L 49.3 20.1 L 45.5 20.1 L 45.5 23.5 L 44.5 23.5 L 44.5 16.0 " fill="#FF0000"/>
<path class="atom-31" d="M 51.9 19.8 Q 51.9 17.9, 52.8 16.9 Q 53.7 15.9, 55.4 15.9 Q 57.0 15.9, 57.9 16.9 Q 58.8 17.9, 58.8 19.8 Q 58.8 21.6, 57.9 22.6 Q 57.0 23.7, 55.4 23.7 Q 53.7 23.7, 52.8 22.6 Q 51.9 21.6, 51.9 19.8 M 55.4 22.8 Q 56.5 22.8, 57.1 22.0 Q 57.8 21.3, 57.8 19.8 Q 57.8 18.3, 57.1 17.5 Q 56.5 16.8, 55.4 16.8 Q 54.2 16.8, 53.6 17.5 Q 53.0 18.3, 53.0 19.8 Q 53.0 21.3, 53.6 22.0 Q 54.2 22.8, 55.4 22.8 " fill="#FF0000"/>
<path class="atom-33" d="M 16.5 61.4 L 17.6 61.4 L 17.6 64.6 L 21.4 64.6 L 21.4 61.4 L 22.5 61.4 L 22.5 68.9 L 21.4 68.9 L 21.4 65.4 L 17.6 65.4 L 17.6 68.9 L 16.5 68.9 L 16.5 61.4 " fill="#FF0000"/>
<path class="atom-33" d="M 24.0 65.1 Q 24.0 63.3, 24.9 62.3 Q 25.8 61.3, 27.5 61.3 Q 29.1 61.3, 30.0 62.3 Q 30.9 63.3, 30.9 65.1 Q 30.9 66.9, 30.0 68.0 Q 29.1 69.0, 27.5 69.0 Q 25.8 69.0, 24.9 68.0 Q 24.0 67.0, 24.0 65.1 M 27.5 68.2 Q 28.6 68.2, 29.2 67.4 Q 29.9 66.6, 29.9 65.1 Q 29.9 63.6, 29.2 62.9 Q 28.6 62.1, 27.5 62.1 Q 26.3 62.1, 25.7 62.9 Q 25.1 63.6, 25.1 65.1 Q 25.1 66.6, 25.7 67.4 Q 26.3 68.2, 27.5 68.2 " fill="#FF0000"/>
</g>
    <g transform="translate(668.0, 0) scale(1 1) "><line x1="15" y1="100" x2="25" y2="100" style="stroke:rgb(0,0,0);stroke-width:2"/>
  <line x1="20" y1="95" x2="20" y2="105" style="stroke:rgb(0,0,0);stroke-width:2"/>
</g>
    <g transform="translate(708.0, 0) scale(1 1) "><!-- END OF HEADER -->
<rect style="opacity:1.0;fill:#FFFFFF;stroke:none" width="240.0" height="200.0" x="0.0" y="0.0"> </rect>
<path class="bond-0 atom-0 atom-1" d="M 33.5,79.7 L 42.3,92.7" style="fill:none;fill-rule:evenodd;stroke:#FF0000;stroke-width:2.0px;stroke-linecap:butt;stroke-linejoin:miter;stroke-opacity:1"/>
<path class="bond-0 atom-0 atom-1" d="M 42.3,92.7 L 51.2,105.8" style="fill:none;fill-rule:evenodd;stroke:#000000;stroke-width:2.0px;stroke-linecap:butt;stroke-linejoin:miter;stroke-opacity:1"/>
<path class="bond-1 atom-1 atom-2" d="M 51.2,105.8 L 91.4,102.8" style="fill:none;fill-rule:evenodd;stroke:#000000;stroke-width:2.0px;stroke-linecap:butt;stroke-linejoin:miter;stroke-opacity:1"/>
<path class="bond-2 atom-2 atom-3" d="M 91.4,102.8 L 98.4,88.3" style="fill:none;fill-rule:evenodd;stroke:#000000;stroke-width:2.0px;stroke-linecap:butt;stroke-linejoin:miter;stroke-opacity:1"/>
<path class="bond-2 atom-2 atom-3" d="M 98.4,88.3 L 105.4,73.8" style="fill:none;fill-rule:evenodd;stroke:#FF0000;stroke-width:2.0px;stroke-linecap:butt;stroke-linejoin:miter;stroke-opacity:1"/>
<path class="bond-3 atom-3 atom-4" d="M 115.5,66.1 L 132.4,64.8" style="fill:none;fill-rule:evenodd;stroke:#FF0000;stroke-width:2.0px;stroke-linecap:butt;stroke-linejoin:miter;stroke-opacity:1"/>
<path class="bond-3 atom-3 atom-4" d="M 132.4,64.8 L 149.2,63.6" style="fill:none;fill-rule:evenodd;stroke:#000000;stroke-width:2.0px;stroke-linecap:butt;stroke-linejoin:miter;stroke-opacity:1"/>
<path class="bond-4 atom-4 atom-5" d="M 149.2,63.6 L 156.2,49.1" style="fill:none;fill-rule:evenodd;stroke:#000000;stroke-width:2.0px;stroke-linecap:butt;stroke-linejoin:miter;stroke-opacity:1"/>
<path class="bond-4 atom-4 atom-5" d="M 156.2,49.1 L 163.2,34.6" style="fill:none;fill-rule:evenodd;stroke:#FF0000;stroke-width:2.0px;stroke-linecap:butt;stroke-linejoin:miter;stroke-opacity:1"/>
<path class="bond-5 atom-4 atom-6" d="M 149.2,63.6 L 171.8,97.0" style="fill:none;fill-rule:evenodd;stroke:#000000;stroke-width:2.0px;stroke-linecap:butt;stroke-linejoin:miter;stroke-opacity:1"/>
<path class="bond-6 atom-6 atom-7" d="M 171.8,97.0 L 188.6,95.7" style="fill:none;fill-rule:evenodd;stroke:#000000;stroke-width:2.0px;stroke-linecap:butt;stroke-linejoin:miter;stroke-opacity:1"/>
<path class="bond-6 atom-6 atom-7" d="M 188.6,95.7 L 205.5,94.5" style="fill:none;fill-rule:evenodd;stroke:#FF0000;stroke-width:2.0px;stroke-linecap:butt;stroke-linejoin:miter;stroke-opacity:1"/>
<path class="bond-7 atom-6 atom-8" d="M 171.8,97.0 L 154.3,133.3" style="fill:none;fill-rule:evenodd;stroke:#000000;stroke-width:2.0px;stroke-linecap:butt;stroke-linejoin:miter;stroke-opacity:1"/>
<path class="bond-8 atom-8 atom-9" d="M 154.3,133.3 L 163.2,146.4" style="fill:none;fill-rule:evenodd;stroke:#000000;stroke-width:2.0px;stroke-linecap:butt;stroke-linejoin:miter;stroke-opacity:1"/>
<path class="bond-8 atom-8 atom-9" d="M 163.2,146.4 L 172.1,159.5" style="fill:none;fill-rule:evenodd;stroke:#FF0000;stroke-width:2.0px;stroke-linecap:butt;stroke-linejoin:miter;stroke-opacity:1"/>
<path class="bond-9 atom-8 atom-10" d="M 154.3,133.3 L 114.0,136.2" style="fill:none;fill-rule:evenodd;stroke:#000000;stroke-width:2.0px;stroke-linecap:butt;stroke-linejoin:miter;stroke-opacity:1"/>
<path class="bond-10 atom-10 atom-11" d="M 114.0,136.2 L 107.0,150.8" style="fill:none;fill-rule:evenodd;stroke:#000000;stroke-width:2.0px;stroke-linecap:butt;stroke-linejoin:miter;stroke-opacity:1"/>
<path class="bond-10 atom-10 atom-11" d="M 107.0,150.8 L 99.9,165.4" style="fill:none;fill-rule:evenodd;stroke:#FF0000;stroke-width:2.0px;stroke-linecap:butt;stroke-linejoin:miter;stroke-opacity:1"/>
<path class="bond-11 atom-10 atom-2" d="M 114.0,136.2 L 91.4,102.8" style="fill:none;fill-rule:evenodd;stroke:#000000;stroke-width:2.0px;stroke-linecap:butt;stroke-linejoin:miter;stroke-opacity:1"/>
<path d="M 50.7,105.1 L 51.2,105.8 L 53.2,105.6" style="fill:none;stroke:#000000;stroke-width:2.0px;stroke-linecap:butt;stroke-linejoin:miter;stroke-opacity:1;"/>
<path class="atom-0" d="M 12.0 66.8 L 13.5 66.8 L 13.5 71.6 L 19.4 71.6 L 19.4 66.8 L 20.9 66.8 L 20.9 78.2 L 19.4 78.2 L 19.4 72.9 L 13.5 72.9 L 13.5 78.2 L 12.0 78.2 L 12.0 66.8 " fill="#FF0000"/>
<path class="atom-0" d="M 23.3 72.5 Q 23.3 69.7, 24.6 68.2 Q 26.0 66.6, 28.5 66.6 Q 31.1 66.6, 32.4 68.2 Q 33.8 69.7, 33.8 72.5 Q 33.8 75.2, 32.4 76.8 Q 31.0 78.4, 28.5 78.4 Q 26.0 78.4, 24.6 76.8 Q 23.3 75.2, 23.3 72.5 M 28.5 77.1 Q 30.3 77.1, 31.2 75.9 Q 32.1 74.7, 32.1 72.5 Q 32.1 70.2, 31.2 69.1 Q 30.3 67.9, 28.5 67.9 Q 26.8 67.9, 25.8 69.1 Q 24.9 70.2, 24.9 72.5 Q 24.9 74.8, 25.8 75.9 Q 26.8 77.1, 28.5 77.1 " fill="#FF0000"/>
<path class="atom-3" d="M 103.7 66.6 Q 103.7 63.8, 105.1 62.3 Q 106.4 60.8, 109.0 60.8 Q 111.5 60.8, 112.8 62.3 Q 114.2 63.8, 114.2 66.6 Q 114.2 69.4, 112.8 70.9 Q 111.5 72.5, 109.0 72.5 Q 106.4 72.5, 105.1 70.9 Q 103.7 69.4, 103.7 66.6 M 109.0 71.2 Q 110.7 71.2, 111.6 70.0 Q 112.6 68.9, 112.6 66.6 Q 112.6 64.3, 111.6 63.2 Q 110.7 62.1, 109.0 62.1 Q 107.2 62.1, 106.3 63.2 Q 105.3 64.3, 105.3 66.6 Q 105.3 68.9, 106.3 70.0 Q 107.2 71.2, 109.0 71.2 " fill="#FF0000"/>
<path class="atom-5" d="M 161.5 27.3 Q 161.5 24.6, 162.9 23.1 Q 164.2 21.5, 166.7 21.5 Q 169.3 21.5, 170.6 23.1 Q 172.0 24.6, 172.0 27.3 Q 172.0 30.1, 170.6 31.7 Q 169.2 33.3, 166.7 33.3 Q 164.2 33.3, 162.9 31.7 Q 161.5 30.1, 161.5 27.3 M 166.7 32.0 Q 168.5 32.0, 169.4 30.8 Q 170.4 29.6, 170.4 27.3 Q 170.4 25.1, 169.4 24.0 Q 168.5 22.8, 166.7 22.8 Q 165.0 22.8, 164.0 24.0 Q 163.1 25.1, 163.1 27.3 Q 163.1 29.7, 164.0 30.8 Q 165.0 32.0, 166.7 32.0 " fill="#FF0000"/>
<path class="atom-5" d="M 173.8 21.7 L 175.3 21.7 L 175.3 26.5 L 181.1 26.5 L 181.1 21.7 L 182.7 21.7 L 182.7 33.1 L 181.1 33.1 L 181.1 27.8 L 175.3 27.8 L 175.3 33.1 L 173.8 33.1 L 173.8 21.7 " fill="#FF0000"/>
<path class="atom-7" d="M 206.8 94.1 Q 206.8 91.3, 208.2 89.8 Q 209.5 88.3, 212.0 88.3 Q 214.6 88.3, 215.9 89.8 Q 217.3 91.3, 217.3 94.1 Q 217.3 96.8, 215.9 98.4 Q 214.5 100.0, 212.0 100.0 Q 209.5 100.0, 208.2 98.4 Q 206.8 96.9, 206.8 94.1 M 212.0 98.7 Q 213.8 98.7, 214.7 97.5 Q 215.7 96.4, 215.7 94.1 Q 215.7 91.8, 214.7 90.7 Q 213.8 89.6, 212.0 89.6 Q 210.3 89.6, 209.4 90.7 Q 208.4 91.8, 208.4 94.1 Q 208.4 96.4, 209.4 97.5 Q 210.3 98.7, 212.0 98.7 " fill="#FF0000"/>
<path class="atom-7" d="M 219.1 88.4 L 220.6 88.4 L 220.6 93.2 L 226.5 93.2 L 226.5 88.4 L 228.0 88.4 L 228.0 99.8 L 226.5 99.8 L 226.5 94.5 L 220.6 94.5 L 220.6 99.8 L 219.1 99.8 L 219.1 88.4 " fill="#FF0000"/>
<path class="atom-9" d="M 171.7 166.7 Q 171.7 163.9, 173.0 162.4 Q 174.4 160.9, 176.9 160.9 Q 179.4 160.9, 180.8 162.4 Q 182.2 163.9, 182.2 166.7 Q 182.2 169.4, 180.8 171.0 Q 179.4 172.6, 176.9 172.6 Q 174.4 172.6, 173.0 171.0 Q 171.7 169.5, 171.7 166.7 M 176.9 171.3 Q 178.7 171.3, 179.6 170.1 Q 180.5 169.0, 180.5 166.7 Q 180.5 164.4, 179.6 163.3 Q 178.7 162.2, 176.9 162.2 Q 175.2 162.2, 174.2 163.3 Q 173.3 164.4, 173.3 166.7 Q 173.3 169.0, 174.2 170.1 Q 175.2 171.3, 176.9 171.3 " fill="#FF0000"/>
<path class="atom-9" d="M 183.9 161.0 L 185.5 161.0 L 185.5 165.8 L 191.3 165.8 L 191.3 161.0 L 192.9 161.0 L 192.9 172.4 L 191.3 172.4 L 191.3 167.1 L 185.5 167.1 L 185.5 172.4 L 183.9 172.4 L 183.9 161.0 " fill="#FF0000"/>
<path class="atom-11" d="M 80.0 166.9 L 81.5 166.9 L 81.5 171.7 L 87.3 171.7 L 87.3 166.9 L 88.9 166.9 L 88.9 178.3 L 87.3 178.3 L 87.3 173.0 L 81.5 173.0 L 81.5 178.3 L 80.0 178.3 L 80.0 166.9 " fill="#FF0000"/>
<path class="atom-11" d="M 91.2 172.5 Q 91.2 169.8, 92.6 168.3 Q 93.9 166.7, 96.5 166.7 Q 99.0 166.7, 100.4 168.3 Q 101.7 169.8, 101.7 172.5 Q 101.7 175.3, 100.3 176.9 Q 99.0 178.5, 96.5 178.5 Q 94.0 178.5, 92.6 176.9 Q 91.2 175.3, 91.2 172.5 M 96.5 177.2 Q 98.2 177.2, 99.2 176.0 Q 100.1 174.8, 100.1 172.5 Q 100.1 170.3, 99.2 169.2 Q 98.2 168.0, 96.5 168.0 Q 94.7 168.0, 93.8 169.2 Q 92.8 170.3, 92.8 172.5 Q 92.8 174.8, 93.8 176.0 Q 94.7 177.2, 96.5 177.2 " fill="#FF0000"/>
</g>
  </g>
</svg>
