<?xml version='1.0' encoding='ASCII' standalone='yes'?>
<svg xmlns="http://www.w3.org/2000/svg" xmlns:xlink="http://www.w3.org/1999/xlink" version="1.1" width="969.0px" viewBox="0 0 969.0 200.0" height="200.0px">
  <g>
    <g transform="translate(0, 0) scale(1 1) "><!-- END OF HEADER -->
<rect style="opacity:1.0;fill:#FFFFFF;stroke:none" width="145.0" height="200.0" x="0.0" y="0.0"> </rect>
<path class="bond-0 atom-0 atom-1" d="M 7.2,145.7 L 60.2,115.1" style="fill:none;fill-rule:evenodd;stroke:#000000;stroke-width:2.0px;stroke-linecap:butt;stroke-linejoin:miter;stroke-opacity:1"/>
<path class="bond-1 atom-1 atom-2" d="M 64.7,117.8 L 64.7,91.4" style="fill:none;fill-rule:evenodd;stroke:#000000;stroke-width:2.0px;stroke-linecap:butt;stroke-linejoin:miter;stroke-opacity:1"/>
<path class="bond-1 atom-1 atom-2" d="M 64.7,91.4 L 64.7,65.1" style="fill:none;fill-rule:evenodd;stroke:#FF0000;stroke-width:2.0px;stroke-linecap:butt;stroke-linejoin:miter;stroke-opacity:1"/>
<path class="bond-1 atom-1 atom-2" d="M 55.6,117.8 L 55.6,91.4" style="fill:none;fill-rule:evenodd;stroke:#000000;stroke-width:2.0px;stroke-linecap:butt;stroke-linejoin:miter;stroke-opacity:1"/>
<path class="bond-1 atom-1 atom-2" d="M 55.6,91.4 L 55.6,65.1" style="fill:none;fill-rule:evenodd;stroke:#FF0000;stroke-width:2.0px;stroke-linecap:butt;stroke-linejoin:miter;stroke-opacity:1"/>
<path class="bond-2 atom-1 atom-3" d="M 60.2,115.1 L 81.6,127.5" style="fill:none;fill-rule:evenodd;stroke:#000000;stroke-width:2.0px;stroke-linecap:butt;stroke-linejoin:miter;stroke-opacity:1"/>
<path class="bond-2 atom-1 atom-3" d="M 81.6,127.5 L 103.1,139.9" style="fill:none;fill-rule:evenodd;stroke:#FF0000;stroke-width:2.0px;stroke-linecap:butt;stroke-linejoin:miter;stroke-opacity:1"/>
<path d="M 57.5,116.7 L 60.2,115.1 L 61.2,115.8" style="fill:none;stroke:#000000;stroke-width:2.0px;stroke-linecap:butt;stroke-linejoin:miter;stroke-opacity:1;"/>
<path class="atom-2" d="M 52.2 54.1 Q 52.2 49.9, 54.3 47.6 Q 56.3 45.3, 60.2 45.3 Q 64.0 45.3, 66.1 47.6 Q 68.1 49.9, 68.1 54.1 Q 68.1 58.3, 66.0 60.7 Q 64.0 63.1, 60.2 63.1 Q 56.3 63.1, 54.3 60.7 Q 52.2 58.3, 52.2 54.1 M 60.2 61.1 Q 62.8 61.1, 64.2 59.3 Q 65.7 57.6, 65.7 54.1 Q 65.7 50.7, 64.2 49.0 Q 62.8 47.2, 60.2 47.2 Q 57.5 47.2, 56.1 49.0 Q 54.7 50.7, 54.7 54.1 Q 54.7 57.6, 56.1 59.3 Q 57.5 61.1, 60.2 61.1 " fill="#FF0000"/>
<path class="atom-3" d="M 105.1 145.7 Q 105.1 141.6, 107.2 139.3 Q 109.2 136.9, 113.1 136.9 Q 116.9 136.9, 119.0 139.3 Q 121.0 141.6, 121.0 145.7 Q 121.0 149.9, 118.9 152.3 Q 116.9 154.7, 113.1 154.7 Q 109.3 154.7, 107.2 152.3 Q 105.1 150.0, 105.1 145.7 M 113.1 152.8 Q 115.7 152.8, 117.1 151.0 Q 118.6 149.2, 118.6 145.7 Q 118.6 142.3, 117.1 140.6 Q 115.7 138.9, 113.1 138.9 Q 110.4 138.9, 109.0 140.6 Q 107.6 142.3, 107.6 145.7 Q 107.6 149.2, 109.0 151.0 Q 110.4 152.8, 113.1 152.8 " fill="#FF0000"/>
<path class="atom-3" d="M 123.7 137.1 L 126.1 137.1 L 126.1 144.5 L 134.9 144.5 L 134.9 137.1 L 137.2 137.1 L 137.2 154.4 L 134.9 154.4 L 134.9 146.4 L 126.1 146.4 L 126.1 154.4 L 123.7 154.4 L 123.7 137.1 " fill="#FF0000"/>
</g>
    <g transform="translate(145.0, 0) scale(1 1) "><line x1="15" y1="100" x2="25" y2="100" style="stroke:rgb(0,0,0);stroke-width:2"/>
  <line x1="20" y1="95" x2="20" y2="105" style="stroke:rgb(0,0,0);stroke-width:2"/>
</g>
    <g transform="translate(185.0, 0) scale(1 1) "><!-- END OF HEADER -->
<rect style="opacity:1.0;fill:#FFFFFF;stroke:none" width="336.0" height="200.0" x="0.0" y="0.0"> </rect>
<path class="bond-0 atom-0 atom-1" d="M 301.1,163.1 L 291.3,159.1" style="fill:none;fill-rule:evenodd;stroke:#0000FF;stroke-width:2.0px;stroke-linecap:butt;stroke-linejoin:miter;stroke-opacity:1"/>
<path class="bond-0 atom-0 atom-1" d="M 291.3,159.1 L 281.4,155.2" style="fill:none;fill-rule:evenodd;stroke:#000000;stroke-width:2.0px;stroke-linecap:butt;stroke-linejoin:miter;stroke-opacity:1"/>
<path class="bond-1 atom-1 atom-2" d="M 281.4,155.2 L 273.3,161.5" style="fill:none;fill-rule:evenodd;stroke:#000000;stroke-width:2.0px;stroke-linecap:butt;stroke-linejoin:miter;stroke-opacity:1"/>
<path class="bond-1 atom-1 atom-2" d="M 273.3,161.5 L 265.2,167.9" style="fill:none;fill-rule:evenodd;stroke:#0000FF;stroke-width:2.0px;stroke-linecap:butt;stroke-linejoin:miter;stroke-opacity:1"/>
<path class="bond-1 atom-1 atom-2" d="M 277.4,153.6 L 270.1,159.2" style="fill:none;fill-rule:evenodd;stroke:#000000;stroke-width:2.0px;stroke-linecap:butt;stroke-linejoin:miter;stroke-opacity:1"/>
<path class="bond-1 atom-1 atom-2" d="M 270.1,159.2 L 262.9,164.9" style="fill:none;fill-rule:evenodd;stroke:#0000FF;stroke-width:2.0px;stroke-linecap:butt;stroke-linejoin:miter;stroke-opacity:1"/>
<path class="bond-2 atom-2 atom-3" d="M 258.2,169.2 L 248.3,165.2" style="fill:none;fill-rule:evenodd;stroke:#0000FF;stroke-width:2.0px;stroke-linecap:butt;stroke-linejoin:miter;stroke-opacity:1"/>
<path class="bond-2 atom-2 atom-3" d="M 248.3,165.2 L 238.4,161.3" style="fill:none;fill-rule:evenodd;stroke:#000000;stroke-width:2.0px;stroke-linecap:butt;stroke-linejoin:miter;stroke-opacity:1"/>
<path class="bond-3 atom-3 atom-4" d="M 238.4,161.3 L 237.0,151.1" style="fill:none;fill-rule:evenodd;stroke:#000000;stroke-width:2.0px;stroke-linecap:butt;stroke-linejoin:miter;stroke-opacity:1"/>
<path class="bond-3 atom-3 atom-4" d="M 237.0,151.1 L 235.5,140.8" style="fill:none;fill-rule:evenodd;stroke:#0000FF;stroke-width:2.0px;stroke-linecap:butt;stroke-linejoin:miter;stroke-opacity:1"/>
<path class="bond-3 atom-3 atom-4" d="M 241.8,158.6 L 240.6,149.5" style="fill:none;fill-rule:evenodd;stroke:#000000;stroke-width:2.0px;stroke-linecap:butt;stroke-linejoin:miter;stroke-opacity:1"/>
<path class="bond-3 atom-3 atom-4" d="M 240.6,149.5 L 239.3,140.3" style="fill:none;fill-rule:evenodd;stroke:#0000FF;stroke-width:2.0px;stroke-linecap:butt;stroke-linejoin:miter;stroke-opacity:1"/>
<path class="bond-4 atom-4 atom-5" d="M 238.4,133.7 L 246.5,127.4" style="fill:none;fill-rule:evenodd;stroke:#0000FF;stroke-width:2.0px;stroke-linecap:butt;stroke-linejoin:miter;stroke-opacity:1"/>
<path class="bond-4 atom-4 atom-5" d="M 246.5,127.4 L 254.6,121.0" style="fill:none;fill-rule:evenodd;stroke:#000000;stroke-width:2.0px;stroke-linecap:butt;stroke-linejoin:miter;stroke-opacity:1"/>
<path class="bond-5 atom-5 atom-6" d="M 254.6,121.0 L 277.9,130.4" style="fill:none;fill-rule:evenodd;stroke:#000000;stroke-width:2.0px;stroke-linecap:butt;stroke-linejoin:miter;stroke-opacity:1"/>
<path class="bond-5 atom-5 atom-6" d="M 255.3,125.3 L 274.5,133.0" style="fill:none;fill-rule:evenodd;stroke:#000000;stroke-width:2.0px;stroke-linecap:butt;stroke-linejoin:miter;stroke-opacity:1"/>
<path class="bond-6 atom-6 atom-7" d="M 277.9,130.4 L 284.2,122.9" style="fill:none;fill-rule:evenodd;stroke:#000000;stroke-width:2.0px;stroke-linecap:butt;stroke-linejoin:miter;stroke-opacity:1"/>
<path class="bond-6 atom-6 atom-7" d="M 284.2,122.9 L 290.5,115.3" style="fill:none;fill-rule:evenodd;stroke:#0000FF;stroke-width:2.0px;stroke-linecap:butt;stroke-linejoin:miter;stroke-opacity:1"/>
<path class="bond-7 atom-7 atom-8" d="M 291.2,106.8 L 285.9,98.3" style="fill:none;fill-rule:evenodd;stroke:#0000FF;stroke-width:2.0px;stroke-linecap:butt;stroke-linejoin:miter;stroke-opacity:1"/>
<path class="bond-7 atom-7 atom-8" d="M 285.9,98.3 L 280.7,89.9" style="fill:none;fill-rule:evenodd;stroke:#000000;stroke-width:2.0px;stroke-linecap:butt;stroke-linejoin:miter;stroke-opacity:1"/>
<path class="bond-7 atom-7 atom-8" d="M 288.0,108.8 L 283.5,101.5" style="fill:none;fill-rule:evenodd;stroke:#0000FF;stroke-width:2.0px;stroke-linecap:butt;stroke-linejoin:miter;stroke-opacity:1"/>
<path class="bond-7 atom-7 atom-8" d="M 283.5,101.5 L 278.9,94.2" style="fill:none;fill-rule:evenodd;stroke:#000000;stroke-width:2.0px;stroke-linecap:butt;stroke-linejoin:miter;stroke-opacity:1"/>
<path class="bond-8 atom-8 atom-9" d="M 280.7,89.9 L 270.3,92.5" style="fill:none;fill-rule:evenodd;stroke:#000000;stroke-width:2.0px;stroke-linecap:butt;stroke-linejoin:miter;stroke-opacity:1"/>
<path class="bond-8 atom-8 atom-9" d="M 270.3,92.5 L 259.9,95.1" style="fill:none;fill-rule:evenodd;stroke:#0000FF;stroke-width:2.0px;stroke-linecap:butt;stroke-linejoin:miter;stroke-opacity:1"/>
<path class="bond-9 atom-9 atom-10" d="M 252.8,93.1 L 245.0,86.5" style="fill:none;fill-rule:evenodd;stroke:#0000FF;stroke-width:2.0px;stroke-linecap:butt;stroke-linejoin:miter;stroke-opacity:1"/>
<path class="bond-9 atom-9 atom-10" d="M 245.0,86.5 L 237.1,79.9" style="fill:none;fill-rule:evenodd;stroke:#000000;stroke-width:2.0px;stroke-linecap:butt;stroke-linejoin:miter;stroke-opacity:1"/>
<path class="bond-10 atom-10 atom-11" d="M 237.1,79.9 L 227.0,82.4" style="fill:none;fill-rule:evenodd;stroke:#000000;stroke-width:2.0px;stroke-linecap:butt;stroke-linejoin:miter;stroke-opacity:1"/>
<path class="bond-10 atom-10 atom-11" d="M 227.0,82.4 L 216.9,85.0" style="fill:none;fill-rule:evenodd;stroke:#FF0000;stroke-width:2.0px;stroke-linecap:butt;stroke-linejoin:miter;stroke-opacity:1"/>
<path class="bond-11 atom-11 atom-12" d="M 210.1,81.6 L 204.8,73.2" style="fill:none;fill-rule:evenodd;stroke:#FF0000;stroke-width:2.0px;stroke-linecap:butt;stroke-linejoin:miter;stroke-opacity:1"/>
<path class="bond-11 atom-11 atom-12" d="M 204.8,73.2 L 199.5,64.8" style="fill:none;fill-rule:evenodd;stroke:#000000;stroke-width:2.0px;stroke-linecap:butt;stroke-linejoin:miter;stroke-opacity:1"/>
<path class="bond-12 atom-12 atom-13" d="M 199.5,64.8 L 174.5,63.1" style="fill:none;fill-rule:evenodd;stroke:#000000;stroke-width:2.0px;stroke-linecap:butt;stroke-linejoin:miter;stroke-opacity:1"/>
<path class="bond-13 atom-13 atom-14" d="M 174.5,63.1 L 170.1,54.1" style="fill:none;fill-rule:evenodd;stroke:#000000;stroke-width:2.0px;stroke-linecap:butt;stroke-linejoin:miter;stroke-opacity:1"/>
<path class="bond-13 atom-13 atom-14" d="M 170.1,54.1 L 165.7,45.1" style="fill:none;fill-rule:evenodd;stroke:#FF0000;stroke-width:2.0px;stroke-linecap:butt;stroke-linejoin:miter;stroke-opacity:1"/>
<path class="bond-14 atom-14 atom-15" d="M 159.4,40.3 L 150.5,39.7" style="fill:none;fill-rule:evenodd;stroke:#FF0000;stroke-width:2.0px;stroke-linecap:butt;stroke-linejoin:miter;stroke-opacity:1"/>
<path class="bond-14 atom-14 atom-15" d="M 150.5,39.7 L 141.6,39.0" style="fill:none;fill-rule:evenodd;stroke:#FF7F00;stroke-width:2.0px;stroke-linecap:butt;stroke-linejoin:miter;stroke-opacity:1"/>
<path class="bond-15 atom-15 atom-16" d="M 136.3,43.1 L 135.8,51.2" style="fill:none;fill-rule:evenodd;stroke:#FF7F00;stroke-width:2.0px;stroke-linecap:butt;stroke-linejoin:miter;stroke-opacity:1"/>
<path class="bond-15 atom-15 atom-16" d="M 135.8,51.2 L 135.2,59.3" style="fill:none;fill-rule:evenodd;stroke:#FF0000;stroke-width:2.0px;stroke-linecap:butt;stroke-linejoin:miter;stroke-opacity:1"/>
<path class="bond-15 atom-15 atom-16" d="M 140.1,43.3 L 139.5,51.4" style="fill:none;fill-rule:evenodd;stroke:#FF7F00;stroke-width:2.0px;stroke-linecap:butt;stroke-linejoin:miter;stroke-opacity:1"/>
<path class="bond-15 atom-15 atom-16" d="M 139.5,51.4 L 138.9,59.5" style="fill:none;fill-rule:evenodd;stroke:#FF0000;stroke-width:2.0px;stroke-linecap:butt;stroke-linejoin:miter;stroke-opacity:1"/>
<path class="bond-16 atom-15 atom-17" d="M 138.8,34.5 L 139.3,26.4" style="fill:none;fill-rule:evenodd;stroke:#FF7F00;stroke-width:2.0px;stroke-linecap:butt;stroke-linejoin:miter;stroke-opacity:1"/>
<path class="bond-16 atom-15 atom-17" d="M 139.3,26.4 L 139.9,18.3" style="fill:none;fill-rule:evenodd;stroke:#FF0000;stroke-width:2.0px;stroke-linecap:butt;stroke-linejoin:miter;stroke-opacity:1"/>
<path class="bond-17 atom-15 atom-18" d="M 135.4,38.6 L 126.5,38.0" style="fill:none;fill-rule:evenodd;stroke:#FF7F00;stroke-width:2.0px;stroke-linecap:butt;stroke-linejoin:miter;stroke-opacity:1"/>
<path class="bond-17 atom-15 atom-18" d="M 126.5,38.0 L 117.6,37.4" style="fill:none;fill-rule:evenodd;stroke:#FF0000;stroke-width:2.0px;stroke-linecap:butt;stroke-linejoin:miter;stroke-opacity:1"/>
<path class="bond-18 atom-18 atom-19" d="M 110.4,41.6 L 106.4,47.6" style="fill:none;fill-rule:evenodd;stroke:#FF0000;stroke-width:2.0px;stroke-linecap:butt;stroke-linejoin:miter;stroke-opacity:1"/>
<path class="bond-18 atom-18 atom-19" d="M 106.4,47.6 L 102.4,53.5" style="fill:none;fill-rule:evenodd;stroke:#FF7F00;stroke-width:2.0px;stroke-linecap:butt;stroke-linejoin:miter;stroke-opacity:1"/>
<path class="bond-19 atom-19 atom-20" d="M 97.4,54.3 L 90.6,49.7" style="fill:none;fill-rule:evenodd;stroke:#FF7F00;stroke-width:2.0px;stroke-linecap:butt;stroke-linejoin:miter;stroke-opacity:1"/>
<path class="bond-19 atom-19 atom-20" d="M 90.6,49.7 L 83.8,45.1" style="fill:none;fill-rule:evenodd;stroke:#FF0000;stroke-width:2.0px;stroke-linecap:butt;stroke-linejoin:miter;stroke-opacity:1"/>
<path class="bond-19 atom-19 atom-20" d="M 95.3,57.4 L 88.5,52.8" style="fill:none;fill-rule:evenodd;stroke:#FF7F00;stroke-width:2.0px;stroke-linecap:butt;stroke-linejoin:miter;stroke-opacity:1"/>
<path class="bond-19 atom-19 atom-20" d="M 88.5,52.8 L 81.7,48.2" style="fill:none;fill-rule:evenodd;stroke:#FF0000;stroke-width:2.0px;stroke-linecap:butt;stroke-linejoin:miter;stroke-opacity:1"/>
<path class="bond-20 atom-19 atom-21" d="M 102.6,60.0 L 109.4,64.6" style="fill:none;fill-rule:evenodd;stroke:#FF7F00;stroke-width:2.0px;stroke-linecap:butt;stroke-linejoin:miter;stroke-opacity:1"/>
<path class="bond-20 atom-19 atom-21" d="M 109.4,64.6 L 116.2,69.2" style="fill:none;fill-rule:evenodd;stroke:#FF0000;stroke-width:2.0px;stroke-linecap:butt;stroke-linejoin:miter;stroke-opacity:1"/>
<path class="bond-21 atom-19 atom-22" d="M 96.5,62.3 L 92.5,68.3" style="fill:none;fill-rule:evenodd;stroke:#FF7F00;stroke-width:2.0px;stroke-linecap:butt;stroke-linejoin:miter;stroke-opacity:1"/>
<path class="bond-21 atom-19 atom-22" d="M 92.5,68.3 L 88.5,74.3" style="fill:none;fill-rule:evenodd;stroke:#FF0000;stroke-width:2.0px;stroke-linecap:butt;stroke-linejoin:miter;stroke-opacity:1"/>
<path class="bond-22 atom-22 atom-23" d="M 87.7,83.2 L 92.1,92.2" style="fill:none;fill-rule:evenodd;stroke:#FF0000;stroke-width:2.0px;stroke-linecap:butt;stroke-linejoin:miter;stroke-opacity:1"/>
<path class="bond-22 atom-22 atom-23" d="M 92.1,92.2 L 96.5,101.2" style="fill:none;fill-rule:evenodd;stroke:#000000;stroke-width:2.0px;stroke-linecap:butt;stroke-linejoin:miter;stroke-opacity:1"/>
<path class="bond-23 atom-23 atom-24" d="M 96.5,101.2 L 82.5,122.0" style="fill:none;fill-rule:evenodd;stroke:#000000;stroke-width:2.0px;stroke-linecap:butt;stroke-linejoin:miter;stroke-opacity:1"/>
<path class="bond-24 atom-24 atom-25" d="M 82.5,122.0 L 86.0,131.6" style="fill:none;fill-rule:evenodd;stroke:#000000;stroke-width:2.0px;stroke-linecap:butt;stroke-linejoin:miter;stroke-opacity:1"/>
<path class="bond-24 atom-24 atom-25" d="M 86.0,131.6 L 89.5,141.1" style="fill:none;fill-rule:evenodd;stroke:#FF0000;stroke-width:2.0px;stroke-linecap:butt;stroke-linejoin:miter;stroke-opacity:1"/>
<path class="bond-25 atom-25 atom-26" d="M 87.1,148.8 L 79.2,154.9" style="fill:none;fill-rule:evenodd;stroke:#FF0000;stroke-width:2.0px;stroke-linecap:butt;stroke-linejoin:miter;stroke-opacity:1"/>
<path class="bond-25 atom-25 atom-26" d="M 79.2,154.9 L 71.4,161.0" style="fill:none;fill-rule:evenodd;stroke:#000000;stroke-width:2.0px;stroke-linecap:butt;stroke-linejoin:miter;stroke-opacity:1"/>
<path class="bond-26 atom-26 atom-27" d="M 71.4,161.0 L 71.8,171.3" style="fill:none;fill-rule:evenodd;stroke:#000000;stroke-width:2.0px;stroke-linecap:butt;stroke-linejoin:miter;stroke-opacity:1"/>
<path class="bond-26 atom-26 atom-27" d="M 71.8,171.3 L 72.2,181.7" style="fill:none;fill-rule:evenodd;stroke:#FF0000;stroke-width:2.0px;stroke-linecap:butt;stroke-linejoin:miter;stroke-opacity:1"/>
<path class="bond-27 atom-26 atom-28" d="M 71.4,161.0 L 50.6,147.0" style="fill:none;fill-rule:evenodd;stroke:#000000;stroke-width:2.0px;stroke-linecap:butt;stroke-linejoin:miter;stroke-opacity:1"/>
<path class="bond-28 atom-28 atom-29" d="M 50.6,147.0 L 40.9,150.6" style="fill:none;fill-rule:evenodd;stroke:#000000;stroke-width:2.0px;stroke-linecap:butt;stroke-linejoin:miter;stroke-opacity:1"/>
<path class="bond-28 atom-28 atom-29" d="M 40.9,150.6 L 31.2,154.1" style="fill:none;fill-rule:evenodd;stroke:#FF0000;stroke-width:2.0px;stroke-linecap:butt;stroke-linejoin:miter;stroke-opacity:1"/>
<path class="bond-29 atom-28 atom-30" d="M 50.6,147.0 L 57.5,122.9" style="fill:none;fill-rule:evenodd;stroke:#000000;stroke-width:2.0px;stroke-linecap:butt;stroke-linejoin:miter;stroke-opacity:1"/>
<path class="bond-30 atom-30 atom-31" d="M 57.5,122.9 L 51.5,115.3" style="fill:none;fill-rule:evenodd;stroke:#000000;stroke-width:2.0px;stroke-linecap:butt;stroke-linejoin:miter;stroke-opacity:1"/>
<path class="bond-30 atom-30 atom-31" d="M 51.5,115.3 L 45.6,107.7" style="fill:none;fill-rule:evenodd;stroke:#FF0000;stroke-width:2.0px;stroke-linecap:butt;stroke-linejoin:miter;stroke-opacity:1"/>
<path class="bond-31 atom-12 atom-32" d="M 199.5,64.8 L 215.6,45.5" style="fill:none;fill-rule:evenodd;stroke:#000000;stroke-width:2.0px;stroke-linecap:butt;stroke-linejoin:miter;stroke-opacity:1"/>
<path class="bond-32 atom-32 atom-33" d="M 215.6,45.5 L 213.1,35.7" style="fill:none;fill-rule:evenodd;stroke:#000000;stroke-width:2.0px;stroke-linecap:butt;stroke-linejoin:miter;stroke-opacity:1"/>
<path class="bond-32 atom-32 atom-33" d="M 213.1,35.7 L 210.6,25.8" style="fill:none;fill-rule:evenodd;stroke:#FF0000;stroke-width:2.0px;stroke-linecap:butt;stroke-linejoin:miter;stroke-opacity:1"/>
<path class="bond-33 atom-32 atom-34" d="M 215.6,45.5 L 238.8,54.9" style="fill:none;fill-rule:evenodd;stroke:#000000;stroke-width:2.0px;stroke-linecap:butt;stroke-linejoin:miter;stroke-opacity:1"/>
<path class="bond-34 atom-34 atom-35" d="M 238.8,54.9 L 247.4,49.5" style="fill:none;fill-rule:evenodd;stroke:#000000;stroke-width:2.0px;stroke-linecap:butt;stroke-linejoin:miter;stroke-opacity:1"/>
<path class="bond-34 atom-34 atom-35" d="M 247.4,49.5 L 256.0,44.2" style="fill:none;fill-rule:evenodd;stroke:#FF0000;stroke-width:2.0px;stroke-linecap:butt;stroke-linejoin:miter;stroke-opacity:1"/>
<path class="bond-35 atom-6 atom-1" d="M 277.9,130.4 L 281.4,155.2" style="fill:none;fill-rule:evenodd;stroke:#000000;stroke-width:2.0px;stroke-linecap:butt;stroke-linejoin:miter;stroke-opacity:1"/>
<path class="bond-36 atom-34 atom-10" d="M 238.8,54.9 L 237.1,79.9" style="fill:none;fill-rule:evenodd;stroke:#000000;stroke-width:2.0px;stroke-linecap:butt;stroke-linejoin:miter;stroke-opacity:1"/>
<path class="bond-37 atom-9 atom-5" d="M 256.1,100.4 L 255.3,110.7" style="fill:none;fill-rule:evenodd;stroke:#0000FF;stroke-width:2.0px;stroke-linecap:butt;stroke-linejoin:miter;stroke-opacity:1"/>
<path class="bond-37 atom-9 atom-5" d="M 255.3,110.7 L 254.6,121.0" style="fill:none;fill-rule:evenodd;stroke:#000000;stroke-width:2.0px;stroke-linecap:butt;stroke-linejoin:miter;stroke-opacity:1"/>
<path class="bond-38 atom-30 atom-24" d="M 57.5,122.9 L 82.5,122.0" style="fill:none;fill-rule:evenodd;stroke:#000000;stroke-width:2.0px;stroke-linecap:butt;stroke-linejoin:miter;stroke-opacity:1"/>
<path d="M 238.9,161.5 L 238.4,161.3 L 238.4,160.8" style="fill:none;stroke:#000000;stroke-width:2.0px;stroke-linecap:butt;stroke-linejoin:miter;stroke-opacity:1;"/>
<path d="M 280.9,90.3 L 280.7,89.9 L 280.1,90.0" style="fill:none;stroke:#000000;stroke-width:2.0px;stroke-linecap:butt;stroke-linejoin:miter;stroke-opacity:1;"/>
<path d="M 175.8,63.1 L 174.5,63.1 L 174.3,62.6" style="fill:none;stroke:#000000;stroke-width:2.0px;stroke-linecap:butt;stroke-linejoin:miter;stroke-opacity:1;"/>
<path d="M 96.3,100.8 L 96.5,101.2 L 95.8,102.3" style="fill:none;stroke:#000000;stroke-width:2.0px;stroke-linecap:butt;stroke-linejoin:miter;stroke-opacity:1;"/>
<path class="atom-0" d="M 303.1 161.0 L 305.4 164.7 Q 305.7 165.1, 306.0 165.8 Q 306.4 166.5, 306.4 166.5 L 306.4 161.0 L 307.4 161.0 L 307.4 168.1 L 306.4 168.1 L 303.9 164.0 Q 303.6 163.5, 303.3 162.9 Q 303.0 162.4, 302.9 162.2 L 302.9 168.1 L 302.0 168.1 L 302.0 161.0 L 303.1 161.0 " fill="#0000FF"/>
<path class="atom-0" d="M 308.7 161.0 L 309.7 161.0 L 309.7 164.0 L 313.3 164.0 L 313.3 161.0 L 314.3 161.0 L 314.3 168.1 L 313.3 168.1 L 313.3 164.8 L 309.7 164.8 L 309.7 168.1 L 308.7 168.1 L 308.7 161.0 " fill="#0000FF"/>
<path class="atom-0" d="M 315.7 167.8 Q 315.8 167.4, 316.2 167.1 Q 316.6 166.9, 317.2 166.9 Q 317.9 166.9, 318.3 167.3 Q 318.7 167.7, 318.7 168.3 Q 318.7 169.0, 318.2 169.7 Q 317.7 170.3, 316.6 171.1 L 318.8 171.1 L 318.8 171.6 L 315.6 171.6 L 315.6 171.2 Q 316.5 170.6, 317.0 170.1 Q 317.6 169.6, 317.8 169.2 Q 318.1 168.8, 318.1 168.4 Q 318.1 167.9, 317.8 167.7 Q 317.6 167.4, 317.2 167.4 Q 316.8 167.4, 316.6 167.6 Q 316.3 167.7, 316.2 168.1 L 315.7 167.8 " fill="#0000FF"/>
<path class="atom-2" d="M 260.1 167.1 L 262.4 170.8 Q 262.7 171.2, 263.0 171.9 Q 263.4 172.6, 263.4 172.6 L 263.4 167.1 L 264.4 167.1 L 264.4 174.2 L 263.4 174.2 L 260.9 170.1 Q 260.6 169.6, 260.3 169.0 Q 260.0 168.5, 259.9 168.3 L 259.9 174.2 L 259.0 174.2 L 259.0 167.1 L 260.1 167.1 " fill="#0000FF"/>
<path class="atom-4" d="M 233.3 132.9 L 235.7 136.7 Q 235.9 137.0, 236.3 137.7 Q 236.6 138.4, 236.7 138.4 L 236.7 132.9 L 237.6 132.9 L 237.6 140.0 L 236.6 140.0 L 234.1 135.9 Q 233.8 135.4, 233.5 134.9 Q 233.2 134.3, 233.1 134.1 L 233.1 140.0 L 232.2 140.0 L 232.2 132.9 L 233.3 132.9 " fill="#0000FF"/>
<path class="atom-7" d="M 292.4 107.6 L 294.7 111.3 Q 295.0 111.7, 295.3 112.4 Q 295.7 113.1, 295.7 113.1 L 295.7 107.6 L 296.7 107.6 L 296.7 114.7 L 295.7 114.7 L 293.2 110.6 Q 292.9 110.1, 292.6 109.5 Q 292.3 109.0, 292.2 108.8 L 292.2 114.7 L 291.3 114.7 L 291.3 107.6 L 292.4 107.6 " fill="#0000FF"/>
<path class="atom-9" d="M 254.8 92.4 L 257.1 96.2 Q 257.3 96.6, 257.7 97.2 Q 258.1 97.9, 258.1 98.0 L 258.1 92.4 L 259.0 92.4 L 259.0 99.5 L 258.1 99.5 L 255.6 95.4 Q 255.3 95.0, 255.0 94.4 Q 254.7 93.9, 254.6 93.7 L 254.6 99.5 L 253.7 99.5 L 253.7 92.4 L 254.8 92.4 " fill="#0000FF"/>
<path class="atom-11" d="M 209.6 86.0 Q 209.6 84.3, 210.4 83.4 Q 211.2 82.4, 212.8 82.4 Q 214.4 82.4, 215.2 83.4 Q 216.1 84.3, 216.1 86.0 Q 216.1 87.8, 215.2 88.7 Q 214.4 89.7, 212.8 89.7 Q 211.3 89.7, 210.4 88.7 Q 209.6 87.8, 209.6 86.0 M 212.8 88.9 Q 213.9 88.9, 214.5 88.2 Q 215.1 87.5, 215.1 86.0 Q 215.1 84.6, 214.5 83.9 Q 213.9 83.2, 212.8 83.2 Q 211.7 83.2, 211.1 83.9 Q 210.6 84.6, 210.6 86.0 Q 210.6 87.5, 211.1 88.2 Q 211.7 88.9, 212.8 88.9 " fill="#FF0000"/>
<path class="atom-14" d="M 160.2 40.6 Q 160.2 38.9, 161.1 37.9 Q 161.9 37.0, 163.5 37.0 Q 165.1 37.0, 165.9 37.9 Q 166.7 38.9, 166.7 40.6 Q 166.7 42.3, 165.9 43.3 Q 165.0 44.2, 163.5 44.2 Q 161.9 44.2, 161.1 43.3 Q 160.2 42.3, 160.2 40.6 M 163.5 43.4 Q 164.6 43.4, 165.2 42.7 Q 165.7 42.0, 165.7 40.6 Q 165.7 39.2, 165.2 38.5 Q 164.6 37.8, 163.5 37.8 Q 162.4 37.8, 161.8 38.5 Q 161.2 39.2, 161.2 40.6 Q 161.2 42.0, 161.8 42.7 Q 162.4 43.4, 163.5 43.4 " fill="#FF0000"/>
<path class="atom-15" d="M 138.3 35.3 Q 139.5 35.3, 140.1 35.8 Q 140.7 36.4, 140.7 37.4 Q 140.7 38.3, 140.1 38.9 Q 139.5 39.5, 138.3 39.5 L 137.2 39.5 L 137.2 42.4 L 136.2 42.4 L 136.2 35.3 L 138.3 35.3 M 138.3 38.7 Q 139.0 38.7, 139.4 38.3 Q 139.7 38.0, 139.7 37.4 Q 139.7 36.7, 139.4 36.4 Q 139.0 36.1, 138.3 36.1 L 137.2 36.1 L 137.2 38.7 L 138.3 38.7 " fill="#FF7F00"/>
<path class="atom-16" d="M 133.5 63.9 Q 133.5 62.1, 134.4 61.2 Q 135.2 60.2, 136.8 60.2 Q 138.3 60.2, 139.2 61.2 Q 140.0 62.1, 140.0 63.9 Q 140.0 65.6, 139.2 66.6 Q 138.3 67.5, 136.8 67.5 Q 135.2 67.5, 134.4 66.6 Q 133.5 65.6, 133.5 63.9 M 136.8 66.7 Q 137.9 66.7, 138.4 66.0 Q 139.0 65.3, 139.0 63.9 Q 139.0 62.5, 138.4 61.8 Q 137.9 61.0, 136.8 61.0 Q 135.7 61.0, 135.1 61.7 Q 134.5 62.5, 134.5 63.9 Q 134.5 65.3, 135.1 66.0 Q 135.7 66.7, 136.8 66.7 " fill="#FF0000"/>
<path class="atom-17" d="M 136.9 13.8 Q 136.9 12.1, 137.8 11.2 Q 138.6 10.2, 140.2 10.2 Q 141.8 10.2, 142.6 11.2 Q 143.5 12.1, 143.5 13.8 Q 143.5 15.6, 142.6 16.6 Q 141.8 17.5, 140.2 17.5 Q 138.6 17.5, 137.8 16.6 Q 136.9 15.6, 136.9 13.8 M 140.2 16.7 Q 141.3 16.7, 141.9 16.0 Q 142.5 15.3, 142.5 13.8 Q 142.5 12.4, 141.9 11.7 Q 141.3 11.0, 140.2 11.0 Q 139.1 11.0, 138.5 11.7 Q 137.9 12.4, 137.9 13.8 Q 137.9 15.3, 138.5 16.0 Q 139.1 16.7, 140.2 16.7 " fill="#FF0000"/>
<path class="atom-17" d="M 144.6 10.3 L 145.5 10.3 L 145.5 13.3 L 149.2 13.3 L 149.2 10.3 L 150.1 10.3 L 150.1 17.4 L 149.2 17.4 L 149.2 14.1 L 145.5 14.1 L 145.5 17.4 L 144.6 17.4 L 144.6 10.3 " fill="#FF0000"/>
<path class="atom-18" d="M 110.2 37.1 Q 110.2 35.4, 111.1 34.5 Q 111.9 33.5, 113.5 33.5 Q 115.1 33.5, 115.9 34.5 Q 116.7 35.4, 116.7 37.1 Q 116.7 38.9, 115.9 39.8 Q 115.0 40.8, 113.5 40.8 Q 111.9 40.8, 111.1 39.8 Q 110.2 38.9, 110.2 37.1 M 113.5 40.0 Q 114.6 40.0, 115.1 39.3 Q 115.7 38.6, 115.7 37.1 Q 115.7 35.7, 115.1 35.0 Q 114.6 34.3, 113.5 34.3 Q 112.4 34.3, 111.8 35.0 Q 111.2 35.7, 111.2 37.1 Q 111.2 38.6, 111.8 39.3 Q 112.4 40.0, 113.5 40.0 " fill="#FF0000"/>
<path class="atom-19" d="M 99.3 54.4 Q 100.5 54.4, 101.1 54.9 Q 101.8 55.5, 101.8 56.4 Q 101.8 57.4, 101.1 58.0 Q 100.5 58.5, 99.3 58.5 L 98.2 58.5 L 98.2 61.5 L 97.2 61.5 L 97.2 54.4 L 99.3 54.4 M 99.3 57.7 Q 100.0 57.7, 100.4 57.4 Q 100.8 57.1, 100.8 56.4 Q 100.8 55.8, 100.4 55.5 Q 100.0 55.2, 99.3 55.2 L 98.2 55.2 L 98.2 57.7 L 99.3 57.7 " fill="#FF7F00"/>
<path class="atom-20" d="M 75.4 43.9 Q 75.4 42.2, 76.3 41.3 Q 77.1 40.3, 78.7 40.3 Q 80.3 40.3, 81.1 41.3 Q 81.9 42.2, 81.9 43.9 Q 81.9 45.7, 81.1 46.7 Q 80.2 47.6, 78.7 47.6 Q 77.1 47.6, 76.3 46.7 Q 75.4 45.7, 75.4 43.9 M 78.7 46.8 Q 79.8 46.8, 80.4 46.1 Q 80.9 45.4, 80.9 43.9 Q 80.9 42.6, 80.4 41.8 Q 79.8 41.1, 78.7 41.1 Q 77.6 41.1, 77.0 41.8 Q 76.4 42.5, 76.4 43.9 Q 76.4 45.4, 77.0 46.1 Q 77.6 46.8, 78.7 46.8 " fill="#FF0000"/>
<path class="atom-21" d="M 117.0 71.9 Q 117.0 70.2, 117.9 69.3 Q 118.7 68.3, 120.3 68.3 Q 121.9 68.3, 122.7 69.3 Q 123.5 70.2, 123.5 71.9 Q 123.5 73.6, 122.7 74.6 Q 121.8 75.6, 120.3 75.6 Q 118.7 75.6, 117.9 74.6 Q 117.0 73.7, 117.0 71.9 M 120.3 74.8 Q 121.4 74.8, 122.0 74.1 Q 122.5 73.3, 122.5 71.9 Q 122.5 70.5, 122.0 69.8 Q 121.4 69.1, 120.3 69.1 Q 119.2 69.1, 118.6 69.8 Q 118.0 70.5, 118.0 71.9 Q 118.0 73.4, 118.6 74.1 Q 119.2 74.8, 120.3 74.8 " fill="#FF0000"/>
<path class="atom-21" d="M 124.7 68.4 L 125.6 68.4 L 125.6 71.4 L 129.2 71.4 L 129.2 68.4 L 130.2 68.4 L 130.2 75.5 L 129.2 75.5 L 129.2 72.2 L 125.6 72.2 L 125.6 75.5 L 124.7 75.5 L 124.7 68.4 " fill="#FF0000"/>
<path class="atom-22" d="M 82.2 78.7 Q 82.2 77.0, 83.1 76.1 Q 83.9 75.1, 85.5 75.1 Q 87.1 75.1, 87.9 76.1 Q 88.8 77.0, 88.8 78.7 Q 88.8 80.5, 87.9 81.4 Q 87.1 82.4, 85.5 82.4 Q 83.9 82.4, 83.1 81.4 Q 82.2 80.5, 82.2 78.7 M 85.5 81.6 Q 86.6 81.6, 87.2 80.9 Q 87.8 80.2, 87.8 78.7 Q 87.8 77.3, 87.2 76.6 Q 86.6 75.9, 85.5 75.9 Q 84.4 75.9, 83.8 76.6 Q 83.2 77.3, 83.2 78.7 Q 83.2 80.2, 83.8 80.9 Q 84.4 81.6, 85.5 81.6 " fill="#FF0000"/>
<path class="atom-25" d="M 87.9 145.6 Q 87.9 143.9, 88.7 142.9 Q 89.6 142.0, 91.1 142.0 Q 92.7 142.0, 93.6 142.9 Q 94.4 143.9, 94.4 145.6 Q 94.4 147.3, 93.5 148.3 Q 92.7 149.3, 91.1 149.3 Q 89.6 149.3, 88.7 148.3 Q 87.9 147.3, 87.9 145.6 M 91.1 148.5 Q 92.2 148.5, 92.8 147.7 Q 93.4 147.0, 93.4 145.6 Q 93.4 144.2, 92.8 143.5 Q 92.2 142.8, 91.1 142.8 Q 90.1 142.8, 89.5 143.5 Q 88.9 144.2, 88.9 145.6 Q 88.9 147.0, 89.5 147.7 Q 90.1 148.5, 91.1 148.5 " fill="#FF0000"/>
<path class="atom-27" d="M 69.1 186.1 Q 69.1 184.4, 69.9 183.4 Q 70.7 182.5, 72.3 182.5 Q 73.9 182.5, 74.7 183.4 Q 75.6 184.4, 75.6 186.1 Q 75.6 187.8, 74.7 188.8 Q 73.9 189.8, 72.3 189.8 Q 70.8 189.8, 69.9 188.8 Q 69.1 187.8, 69.1 186.1 M 72.3 189.0 Q 73.4 189.0, 74.0 188.2 Q 74.6 187.5, 74.6 186.1 Q 74.6 184.7, 74.0 184.0 Q 73.4 183.3, 72.3 183.3 Q 71.2 183.3, 70.6 184.0 Q 70.1 184.7, 70.1 186.1 Q 70.1 187.5, 70.6 188.2 Q 71.2 189.0, 72.3 189.0 " fill="#FF0000"/>
<path class="atom-27" d="M 76.7 182.6 L 77.6 182.6 L 77.6 185.6 L 81.3 185.6 L 81.3 182.6 L 82.2 182.6 L 82.2 189.7 L 81.3 189.7 L 81.3 186.4 L 77.6 186.4 L 77.6 189.7 L 76.7 189.7 L 76.7 182.6 " fill="#FF0000"/>
<path class="atom-29" d="M 16.8 152.1 L 17.8 152.1 L 17.8 155.1 L 21.4 155.1 L 21.4 152.1 L 22.4 152.1 L 22.4 159.2 L 21.4 159.2 L 21.4 155.9 L 17.8 155.9 L 17.8 159.2 L 16.8 159.2 L 16.8 152.1 " fill="#FF0000"/>
<path class="atom-29" d="M 23.8 155.7 Q 23.8 154.0, 24.7 153.0 Q 25.5 152.0, 27.1 152.0 Q 28.6 152.0, 29.5 153.0 Q 30.3 154.0, 30.3 155.7 Q 30.3 157.4, 29.5 158.4 Q 28.6 159.3, 27.1 159.3 Q 25.5 159.3, 24.7 158.4 Q 23.8 157.4, 23.8 155.7 M 27.1 158.5 Q 28.2 158.5, 28.7 157.8 Q 29.3 157.1, 29.3 155.7 Q 29.3 154.3, 28.7 153.6 Q 28.2 152.8, 27.1 152.8 Q 26.0 152.8, 25.4 153.6 Q 24.8 154.3, 24.8 155.7 Q 24.8 157.1, 25.4 157.8 Q 26.0 158.5, 27.1 158.5 " fill="#FF0000"/>
<path class="atom-31" d="M 31.8 99.7 L 32.7 99.7 L 32.7 102.7 L 36.4 102.7 L 36.4 99.7 L 37.3 99.7 L 37.3 106.8 L 36.4 106.8 L 36.4 103.5 L 32.7 103.5 L 32.7 106.8 L 31.8 106.8 L 31.8 99.7 " fill="#FF0000"/>
<path class="atom-31" d="M 38.8 103.2 Q 38.8 101.5, 39.6 100.6 Q 40.5 99.6, 42.0 99.6 Q 43.6 99.6, 44.4 100.6 Q 45.3 101.5, 45.3 103.2 Q 45.3 104.9, 44.4 105.9 Q 43.6 106.9, 42.0 106.9 Q 40.5 106.9, 39.6 105.9 Q 38.8 105.0, 38.8 103.2 M 42.0 106.1 Q 43.1 106.1, 43.7 105.4 Q 44.3 104.6, 44.3 103.2 Q 44.3 101.8, 43.7 101.1 Q 43.1 100.4, 42.0 100.4 Q 40.9 100.4, 40.4 101.1 Q 39.8 101.8, 39.8 103.2 Q 39.8 104.7, 40.4 105.4 Q 40.9 106.1, 42.0 106.1 " fill="#FF0000"/>
<path class="atom-33" d="M 206.2 21.3 Q 206.2 19.6, 207.1 18.6 Q 207.9 17.6, 209.5 17.6 Q 211.1 17.6, 211.9 18.6 Q 212.8 19.6, 212.8 21.3 Q 212.8 23.0, 211.9 24.0 Q 211.1 24.9, 209.5 24.9 Q 207.9 24.9, 207.1 24.0 Q 206.2 23.0, 206.2 21.3 M 209.5 24.1 Q 210.6 24.1, 211.2 23.4 Q 211.8 22.7, 211.8 21.3 Q 211.8 19.9, 211.2 19.2 Q 210.6 18.4, 209.5 18.4 Q 208.4 18.4, 207.8 19.2 Q 207.2 19.9, 207.2 21.3 Q 207.2 22.7, 207.8 23.4 Q 208.4 24.1, 209.5 24.1 " fill="#FF0000"/>
<path class="atom-33" d="M 213.9 17.7 L 214.8 17.7 L 214.8 20.7 L 218.5 20.7 L 218.5 17.7 L 219.4 17.7 L 219.4 24.8 L 218.5 24.8 L 218.5 21.5 L 214.8 21.5 L 214.8 24.8 L 213.9 24.8 L 213.9 17.7 " fill="#FF0000"/>
<path class="atom-35" d="M 256.8 41.6 Q 256.8 39.9, 257.7 39.0 Q 258.5 38.0, 260.1 38.0 Q 261.7 38.0, 262.5 39.0 Q 263.3 39.9, 263.3 41.6 Q 263.3 43.3, 262.5 44.3 Q 261.6 45.3, 260.1 45.3 Q 258.5 45.3, 257.7 44.3 Q 256.8 43.3, 256.8 41.6 M 260.1 44.5 Q 261.2 44.5, 261.7 43.8 Q 262.3 43.0, 262.3 41.6 Q 262.3 40.2, 261.7 39.5 Q 261.2 38.8, 260.1 38.8 Q 259.0 38.8, 258.4 39.5 Q 257.8 40.2, 257.8 41.6 Q 257.8 43.0, 258.4 43.8 Q 259.0 44.5, 260.1 44.5 " fill="#FF0000"/>
<path class="atom-35" d="M 264.4 38.1 L 265.4 38.1 L 265.4 41.1 L 269.0 41.1 L 269.0 38.1 L 270.0 38.1 L 270.0 45.2 L 269.0 45.2 L 269.0 41.9 L 265.4 41.9 L 265.4 45.2 L 264.4 45.2 L 264.4 38.1 " fill="#FF0000"/>
</g>
    <g transform="translate(521.0, 0) scale(1 1) "><line x1="5" y1="100" x2="35" y2="100" style="stroke:rgb(0,0,0);stroke-width:2"/>
  <line x1="34" y1="100" x2="29" y2="95" style="stroke:rgb(0,0,0);stroke-width:2"/>
  <line x1="34" y1="100" x2="29" y2="105" style="stroke:rgb(0,0,0);stroke-width:2"/>
</g>
    <g transform="translate(561.0, 0) scale(1 1) "><!-- END OF HEADER -->
<rect style="opacity:1.0;fill:#FFFFFF;stroke:none" width="343.0" height="200.0" x="0.0" y="0.0"> </rect>
<path class="bond-0 atom-0 atom-1" d="M 96.2,166.5 L 82.4,150.3" style="fill:none;fill-rule:evenodd;stroke:#000000;stroke-width:2.0px;stroke-linecap:butt;stroke-linejoin:miter;stroke-opacity:1"/>
<path class="bond-1 atom-1 atom-2" d="M 83.0,148.6 L 73.8,150.2" style="fill:none;fill-rule:evenodd;stroke:#000000;stroke-width:2.0px;stroke-linecap:butt;stroke-linejoin:miter;stroke-opacity:1"/>
<path class="bond-1 atom-1 atom-2" d="M 73.8,150.2 L 64.7,151.9" style="fill:none;fill-rule:evenodd;stroke:#FF0000;stroke-width:2.0px;stroke-linecap:butt;stroke-linejoin:miter;stroke-opacity:1"/>
<path class="bond-1 atom-1 atom-2" d="M 83.6,151.7 L 74.4,153.4" style="fill:none;fill-rule:evenodd;stroke:#000000;stroke-width:2.0px;stroke-linecap:butt;stroke-linejoin:miter;stroke-opacity:1"/>
<path class="bond-1 atom-1 atom-2" d="M 74.4,153.4 L 65.2,155.1" style="fill:none;fill-rule:evenodd;stroke:#FF0000;stroke-width:2.0px;stroke-linecap:butt;stroke-linejoin:miter;stroke-opacity:1"/>
<path class="bond-2 atom-1 atom-3" d="M 82.4,150.3 L 85.3,142.2" style="fill:none;fill-rule:evenodd;stroke:#000000;stroke-width:2.0px;stroke-linecap:butt;stroke-linejoin:miter;stroke-opacity:1"/>
<path class="bond-2 atom-1 atom-3" d="M 85.3,142.2 L 88.2,134.1" style="fill:none;fill-rule:evenodd;stroke:#FF0000;stroke-width:2.0px;stroke-linecap:butt;stroke-linejoin:miter;stroke-opacity:1"/>
<path class="bond-3 atom-3 atom-4" d="M 86.4,126.5 L 81.1,120.3" style="fill:none;fill-rule:evenodd;stroke:#FF0000;stroke-width:2.0px;stroke-linecap:butt;stroke-linejoin:miter;stroke-opacity:1"/>
<path class="bond-3 atom-3 atom-4" d="M 81.1,120.3 L 75.8,114.1" style="fill:none;fill-rule:evenodd;stroke:#000000;stroke-width:2.0px;stroke-linecap:butt;stroke-linejoin:miter;stroke-opacity:1"/>
<path class="bond-4 atom-4 atom-5" d="M 75.8,114.1 L 80.8,93.4" style="fill:none;fill-rule:evenodd;stroke:#000000;stroke-width:2.0px;stroke-linecap:butt;stroke-linejoin:miter;stroke-opacity:1"/>
<path class="bond-5 atom-5 atom-6" d="M 80.8,93.4 L 100.5,85.3" style="fill:none;fill-rule:evenodd;stroke:#000000;stroke-width:2.0px;stroke-linecap:butt;stroke-linejoin:miter;stroke-opacity:1"/>
<path class="bond-6 atom-6 atom-7" d="M 100.5,85.3 L 101.6,76.7" style="fill:none;fill-rule:evenodd;stroke:#000000;stroke-width:2.0px;stroke-linecap:butt;stroke-linejoin:miter;stroke-opacity:1"/>
<path class="bond-6 atom-6 atom-7" d="M 101.6,76.7 L 102.8,68.1" style="fill:none;fill-rule:evenodd;stroke:#FF0000;stroke-width:2.0px;stroke-linecap:butt;stroke-linejoin:miter;stroke-opacity:1"/>
<path class="bond-7 atom-7 atom-8" d="M 106.8,62.9 L 113.6,60.1" style="fill:none;fill-rule:evenodd;stroke:#FF0000;stroke-width:2.0px;stroke-linecap:butt;stroke-linejoin:miter;stroke-opacity:1"/>
<path class="bond-7 atom-7 atom-8" d="M 113.6,60.1 L 120.4,57.3" style="fill:none;fill-rule:evenodd;stroke:#FF7F00;stroke-width:2.0px;stroke-linecap:butt;stroke-linejoin:miter;stroke-opacity:1"/>
<path class="bond-8 atom-8 atom-9" d="M 122.9,51.9 L 120.4,45.8" style="fill:none;fill-rule:evenodd;stroke:#FF7F00;stroke-width:2.0px;stroke-linecap:butt;stroke-linejoin:miter;stroke-opacity:1"/>
<path class="bond-8 atom-8 atom-9" d="M 120.4,45.8 L 117.9,39.8" style="fill:none;fill-rule:evenodd;stroke:#FF0000;stroke-width:2.0px;stroke-linecap:butt;stroke-linejoin:miter;stroke-opacity:1"/>
<path class="bond-8 atom-8 atom-9" d="M 120.0,53.1 L 117.5,47.0" style="fill:none;fill-rule:evenodd;stroke:#FF7F00;stroke-width:2.0px;stroke-linecap:butt;stroke-linejoin:miter;stroke-opacity:1"/>
<path class="bond-8 atom-8 atom-9" d="M 117.5,47.0 L 115.0,41.0" style="fill:none;fill-rule:evenodd;stroke:#FF0000;stroke-width:2.0px;stroke-linecap:butt;stroke-linejoin:miter;stroke-opacity:1"/>
<path class="bond-9 atom-8 atom-10" d="M 124.5,59.9 L 127.0,66.0" style="fill:none;fill-rule:evenodd;stroke:#FF7F00;stroke-width:2.0px;stroke-linecap:butt;stroke-linejoin:miter;stroke-opacity:1"/>
<path class="bond-9 atom-8 atom-10" d="M 127.0,66.0 L 129.5,72.1" style="fill:none;fill-rule:evenodd;stroke:#FF0000;stroke-width:2.0px;stroke-linecap:butt;stroke-linejoin:miter;stroke-opacity:1"/>
<path class="bond-10 atom-8 atom-11" d="M 125.6,55.1 L 132.4,52.3" style="fill:none;fill-rule:evenodd;stroke:#FF7F00;stroke-width:2.0px;stroke-linecap:butt;stroke-linejoin:miter;stroke-opacity:1"/>
<path class="bond-10 atom-8 atom-11" d="M 132.4,52.3 L 139.2,49.5" style="fill:none;fill-rule:evenodd;stroke:#FF0000;stroke-width:2.0px;stroke-linecap:butt;stroke-linejoin:miter;stroke-opacity:1"/>
<path class="bond-11 atom-11 atom-12" d="M 146.1,50.8 L 151.5,54.9" style="fill:none;fill-rule:evenodd;stroke:#FF0000;stroke-width:2.0px;stroke-linecap:butt;stroke-linejoin:miter;stroke-opacity:1"/>
<path class="bond-11 atom-11 atom-12" d="M 151.5,54.9 L 156.8,59.1" style="fill:none;fill-rule:evenodd;stroke:#FF7F00;stroke-width:2.0px;stroke-linecap:butt;stroke-linejoin:miter;stroke-opacity:1"/>
<path class="bond-12 atom-12 atom-13" d="M 155.6,63.5 L 151.8,68.4" style="fill:none;fill-rule:evenodd;stroke:#FF7F00;stroke-width:2.0px;stroke-linecap:butt;stroke-linejoin:miter;stroke-opacity:1"/>
<path class="bond-12 atom-12 atom-13" d="M 151.8,68.4 L 148.1,73.2" style="fill:none;fill-rule:evenodd;stroke:#FF0000;stroke-width:2.0px;stroke-linecap:butt;stroke-linejoin:miter;stroke-opacity:1"/>
<path class="bond-12 atom-12 atom-13" d="M 158.1,65.5 L 154.4,70.3" style="fill:none;fill-rule:evenodd;stroke:#FF7F00;stroke-width:2.0px;stroke-linecap:butt;stroke-linejoin:miter;stroke-opacity:1"/>
<path class="bond-12 atom-12 atom-13" d="M 154.4,70.3 L 150.6,75.2" style="fill:none;fill-rule:evenodd;stroke:#FF0000;stroke-width:2.0px;stroke-linecap:butt;stroke-linejoin:miter;stroke-opacity:1"/>
<path class="bond-13 atom-12 atom-14" d="M 162.1,57.7 L 165.8,52.9" style="fill:none;fill-rule:evenodd;stroke:#FF7F00;stroke-width:2.0px;stroke-linecap:butt;stroke-linejoin:miter;stroke-opacity:1"/>
<path class="bond-13 atom-12 atom-14" d="M 165.8,52.9 L 169.5,48.1" style="fill:none;fill-rule:evenodd;stroke:#FF0000;stroke-width:2.0px;stroke-linecap:butt;stroke-linejoin:miter;stroke-opacity:1"/>
<path class="bond-14 atom-12 atom-15" d="M 162.1,63.1 L 167.5,67.3" style="fill:none;fill-rule:evenodd;stroke:#FF7F00;stroke-width:2.0px;stroke-linecap:butt;stroke-linejoin:miter;stroke-opacity:1"/>
<path class="bond-14 atom-12 atom-15" d="M 167.5,67.3 L 172.8,71.4" style="fill:none;fill-rule:evenodd;stroke:#FF0000;stroke-width:2.0px;stroke-linecap:butt;stroke-linejoin:miter;stroke-opacity:1"/>
<path class="bond-15 atom-15 atom-16" d="M 175.8,77.9 L 174.6,86.5" style="fill:none;fill-rule:evenodd;stroke:#FF0000;stroke-width:2.0px;stroke-linecap:butt;stroke-linejoin:miter;stroke-opacity:1"/>
<path class="bond-15 atom-15 atom-16" d="M 174.6,86.5 L 173.5,95.2" style="fill:none;fill-rule:evenodd;stroke:#000000;stroke-width:2.0px;stroke-linecap:butt;stroke-linejoin:miter;stroke-opacity:1"/>
<path class="bond-16 atom-16 atom-17" d="M 173.5,95.2 L 190.3,108.2" style="fill:none;fill-rule:evenodd;stroke:#000000;stroke-width:2.0px;stroke-linecap:butt;stroke-linejoin:miter;stroke-opacity:1"/>
<path class="bond-17 atom-17 atom-18" d="M 190.3,108.2 L 198.8,105.7" style="fill:none;fill-rule:evenodd;stroke:#000000;stroke-width:2.0px;stroke-linecap:butt;stroke-linejoin:miter;stroke-opacity:1"/>
<path class="bond-17 atom-17 atom-18" d="M 198.8,105.7 L 207.2,103.2" style="fill:none;fill-rule:evenodd;stroke:#FF0000;stroke-width:2.0px;stroke-linecap:butt;stroke-linejoin:miter;stroke-opacity:1"/>
<path class="bond-18 atom-18 atom-19" d="M 213.3,106.0 L 218.0,112.9" style="fill:none;fill-rule:evenodd;stroke:#FF0000;stroke-width:2.0px;stroke-linecap:butt;stroke-linejoin:miter;stroke-opacity:1"/>
<path class="bond-18 atom-18 atom-19" d="M 218.0,112.9 L 222.7,119.7" style="fill:none;fill-rule:evenodd;stroke:#000000;stroke-width:2.0px;stroke-linecap:butt;stroke-linejoin:miter;stroke-opacity:1"/>
<path class="bond-19 atom-19 atom-20" d="M 222.7,119.7 L 231.8,120.0" style="fill:none;fill-rule:evenodd;stroke:#000000;stroke-width:2.0px;stroke-linecap:butt;stroke-linejoin:miter;stroke-opacity:1"/>
<path class="bond-19 atom-19 atom-20" d="M 231.8,120.0 L 240.9,120.3" style="fill:none;fill-rule:evenodd;stroke:#0000FF;stroke-width:2.0px;stroke-linecap:butt;stroke-linejoin:miter;stroke-opacity:1"/>
<path class="bond-20 atom-20 atom-21" d="M 246.5,124.1 L 251.2,131.0" style="fill:none;fill-rule:evenodd;stroke:#0000FF;stroke-width:2.0px;stroke-linecap:butt;stroke-linejoin:miter;stroke-opacity:1"/>
<path class="bond-20 atom-20 atom-21" d="M 251.2,131.0 L 255.9,137.9" style="fill:none;fill-rule:evenodd;stroke:#000000;stroke-width:2.0px;stroke-linecap:butt;stroke-linejoin:miter;stroke-opacity:1"/>
<path class="bond-21 atom-21 atom-22" d="M 255.9,137.9 L 264.6,135.3" style="fill:none;fill-rule:evenodd;stroke:#000000;stroke-width:2.0px;stroke-linecap:butt;stroke-linejoin:miter;stroke-opacity:1"/>
<path class="bond-21 atom-21 atom-22" d="M 264.6,135.3 L 273.3,132.8" style="fill:none;fill-rule:evenodd;stroke:#0000FF;stroke-width:2.0px;stroke-linecap:butt;stroke-linejoin:miter;stroke-opacity:1"/>
<path class="bond-21 atom-21 atom-22" d="M 257.2,134.2 L 264.8,132.0" style="fill:none;fill-rule:evenodd;stroke:#000000;stroke-width:2.0px;stroke-linecap:butt;stroke-linejoin:miter;stroke-opacity:1"/>
<path class="bond-21 atom-21 atom-22" d="M 264.8,132.0 L 272.4,129.7" style="fill:none;fill-rule:evenodd;stroke:#0000FF;stroke-width:2.0px;stroke-linecap:butt;stroke-linejoin:miter;stroke-opacity:1"/>
<path class="bond-22 atom-22 atom-23" d="M 276.4,128.2 L 276.7,119.4" style="fill:none;fill-rule:evenodd;stroke:#0000FF;stroke-width:2.0px;stroke-linecap:butt;stroke-linejoin:miter;stroke-opacity:1"/>
<path class="bond-22 atom-22 atom-23" d="M 276.7,119.4 L 276.9,110.7" style="fill:none;fill-rule:evenodd;stroke:#000000;stroke-width:2.0px;stroke-linecap:butt;stroke-linejoin:miter;stroke-opacity:1"/>
<path class="bond-23 atom-23 atom-24" d="M 276.9,110.7 L 293.1,96.9" style="fill:none;fill-rule:evenodd;stroke:#000000;stroke-width:2.0px;stroke-linecap:butt;stroke-linejoin:miter;stroke-opacity:1"/>
<path class="bond-23 atom-23 atom-24" d="M 276.3,107.0 L 289.7,95.7" style="fill:none;fill-rule:evenodd;stroke:#000000;stroke-width:2.0px;stroke-linecap:butt;stroke-linejoin:miter;stroke-opacity:1"/>
<path class="bond-24 atom-24 atom-25" d="M 293.1,96.9 L 301.7,99.9" style="fill:none;fill-rule:evenodd;stroke:#000000;stroke-width:2.0px;stroke-linecap:butt;stroke-linejoin:miter;stroke-opacity:1"/>
<path class="bond-24 atom-24 atom-25" d="M 301.7,99.9 L 310.2,103.0" style="fill:none;fill-rule:evenodd;stroke:#0000FF;stroke-width:2.0px;stroke-linecap:butt;stroke-linejoin:miter;stroke-opacity:1"/>
<path class="bond-25 atom-24 atom-26" d="M 293.1,96.9 L 291.6,88.3" style="fill:none;fill-rule:evenodd;stroke:#000000;stroke-width:2.0px;stroke-linecap:butt;stroke-linejoin:miter;stroke-opacity:1"/>
<path class="bond-25 atom-24 atom-26" d="M 291.6,88.3 L 290.0,79.7" style="fill:none;fill-rule:evenodd;stroke:#0000FF;stroke-width:2.0px;stroke-linecap:butt;stroke-linejoin:miter;stroke-opacity:1"/>
<path class="bond-26 atom-26 atom-27" d="M 286.3,74.9 L 277.8,71.9" style="fill:none;fill-rule:evenodd;stroke:#0000FF;stroke-width:2.0px;stroke-linecap:butt;stroke-linejoin:miter;stroke-opacity:1"/>
<path class="bond-26 atom-26 atom-27" d="M 277.8,71.9 L 269.3,68.8" style="fill:none;fill-rule:evenodd;stroke:#000000;stroke-width:2.0px;stroke-linecap:butt;stroke-linejoin:miter;stroke-opacity:1"/>
<path class="bond-26 atom-26 atom-27" d="M 285.3,77.9 L 277.6,75.2" style="fill:none;fill-rule:evenodd;stroke:#0000FF;stroke-width:2.0px;stroke-linecap:butt;stroke-linejoin:miter;stroke-opacity:1"/>
<path class="bond-26 atom-26 atom-27" d="M 277.6,75.2 L 270.0,72.5" style="fill:none;fill-rule:evenodd;stroke:#000000;stroke-width:2.0px;stroke-linecap:butt;stroke-linejoin:miter;stroke-opacity:1"/>
<path class="bond-27 atom-27 atom-28" d="M 269.3,68.8 L 262.7,74.5" style="fill:none;fill-rule:evenodd;stroke:#000000;stroke-width:2.0px;stroke-linecap:butt;stroke-linejoin:miter;stroke-opacity:1"/>
<path class="bond-27 atom-27 atom-28" d="M 262.7,74.5 L 256.1,80.1" style="fill:none;fill-rule:evenodd;stroke:#0000FF;stroke-width:2.0px;stroke-linecap:butt;stroke-linejoin:miter;stroke-opacity:1"/>
<path class="bond-28 atom-28 atom-29" d="M 253.8,86.3 L 255.4,94.9" style="fill:none;fill-rule:evenodd;stroke:#0000FF;stroke-width:2.0px;stroke-linecap:butt;stroke-linejoin:miter;stroke-opacity:1"/>
<path class="bond-28 atom-28 atom-29" d="M 255.4,94.9 L 256.9,103.5" style="fill:none;fill-rule:evenodd;stroke:#000000;stroke-width:2.0px;stroke-linecap:butt;stroke-linejoin:miter;stroke-opacity:1"/>
<path class="bond-28 atom-28 atom-29" d="M 256.9,85.7 L 258.3,93.4" style="fill:none;fill-rule:evenodd;stroke:#0000FF;stroke-width:2.0px;stroke-linecap:butt;stroke-linejoin:miter;stroke-opacity:1"/>
<path class="bond-28 atom-28 atom-29" d="M 258.3,93.4 L 259.7,101.1" style="fill:none;fill-rule:evenodd;stroke:#000000;stroke-width:2.0px;stroke-linecap:butt;stroke-linejoin:miter;stroke-opacity:1"/>
<path class="bond-29 atom-19 atom-30" d="M 222.7,119.7 L 209.7,136.6" style="fill:none;fill-rule:evenodd;stroke:#000000;stroke-width:2.0px;stroke-linecap:butt;stroke-linejoin:miter;stroke-opacity:1"/>
<path class="bond-30 atom-30 atom-31" d="M 209.7,136.6 L 212.1,144.9" style="fill:none;fill-rule:evenodd;stroke:#000000;stroke-width:2.0px;stroke-linecap:butt;stroke-linejoin:miter;stroke-opacity:1"/>
<path class="bond-30 atom-30 atom-31" d="M 212.1,144.9 L 214.6,153.2" style="fill:none;fill-rule:evenodd;stroke:#FF0000;stroke-width:2.0px;stroke-linecap:butt;stroke-linejoin:miter;stroke-opacity:1"/>
<path class="bond-31 atom-30 atom-32" d="M 209.7,136.6 L 189.7,129.4" style="fill:none;fill-rule:evenodd;stroke:#000000;stroke-width:2.0px;stroke-linecap:butt;stroke-linejoin:miter;stroke-opacity:1"/>
<path class="bond-32 atom-32 atom-33" d="M 189.7,129.4 L 182.6,134.2" style="fill:none;fill-rule:evenodd;stroke:#000000;stroke-width:2.0px;stroke-linecap:butt;stroke-linejoin:miter;stroke-opacity:1"/>
<path class="bond-32 atom-32 atom-33" d="M 182.6,134.2 L 175.6,139.0" style="fill:none;fill-rule:evenodd;stroke:#FF0000;stroke-width:2.0px;stroke-linecap:butt;stroke-linejoin:miter;stroke-opacity:1"/>
<path class="bond-33 atom-5 atom-34" d="M 80.8,93.4 L 73.5,88.9" style="fill:none;fill-rule:evenodd;stroke:#000000;stroke-width:2.0px;stroke-linecap:butt;stroke-linejoin:miter;stroke-opacity:1"/>
<path class="bond-33 atom-5 atom-34" d="M 73.5,88.9 L 66.2,84.4" style="fill:none;fill-rule:evenodd;stroke:#FF0000;stroke-width:2.0px;stroke-linecap:butt;stroke-linejoin:miter;stroke-opacity:1"/>
<path class="bond-34 atom-34 atom-35" d="M 59.3,85.2 L 52.9,90.6" style="fill:none;fill-rule:evenodd;stroke:#FF0000;stroke-width:2.0px;stroke-linecap:butt;stroke-linejoin:miter;stroke-opacity:1"/>
<path class="bond-34 atom-34 atom-35" d="M 52.9,90.6 L 46.5,96.0" style="fill:none;fill-rule:evenodd;stroke:#000000;stroke-width:2.0px;stroke-linecap:butt;stroke-linejoin:miter;stroke-opacity:1"/>
<path class="bond-35 atom-35 atom-36" d="M 46.5,96.0 L 37.9,93.9" style="fill:none;fill-rule:evenodd;stroke:#000000;stroke-width:2.0px;stroke-linecap:butt;stroke-linejoin:miter;stroke-opacity:1"/>
<path class="bond-35 atom-35 atom-36" d="M 37.9,93.9 L 29.3,91.8" style="fill:none;fill-rule:evenodd;stroke:#FF0000;stroke-width:2.0px;stroke-linecap:butt;stroke-linejoin:miter;stroke-opacity:1"/>
<path class="bond-36 atom-35 atom-37" d="M 46.5,96.0 L 54.6,115.7" style="fill:none;fill-rule:evenodd;stroke:#000000;stroke-width:2.0px;stroke-linecap:butt;stroke-linejoin:miter;stroke-opacity:1"/>
<path class="bond-37 atom-37 atom-38" d="M 54.6,115.7 L 50.2,122.9" style="fill:none;fill-rule:evenodd;stroke:#000000;stroke-width:2.0px;stroke-linecap:butt;stroke-linejoin:miter;stroke-opacity:1"/>
<path class="bond-37 atom-37 atom-38" d="M 50.2,122.9 L 45.7,130.0" style="fill:none;fill-rule:evenodd;stroke:#FF0000;stroke-width:2.0px;stroke-linecap:butt;stroke-linejoin:miter;stroke-opacity:1"/>
<path class="bond-38 atom-37 atom-4" d="M 54.6,115.7 L 75.8,114.1" style="fill:none;fill-rule:evenodd;stroke:#000000;stroke-width:2.0px;stroke-linecap:butt;stroke-linejoin:miter;stroke-opacity:1"/>
<path class="bond-39 atom-32 atom-17" d="M 189.7,129.4 L 190.3,108.2" style="fill:none;fill-rule:evenodd;stroke:#000000;stroke-width:2.0px;stroke-linecap:butt;stroke-linejoin:miter;stroke-opacity:1"/>
<path class="bond-40 atom-29 atom-20" d="M 256.9,103.5 L 251.9,110.1" style="fill:none;fill-rule:evenodd;stroke:#000000;stroke-width:2.0px;stroke-linecap:butt;stroke-linejoin:miter;stroke-opacity:1"/>
<path class="bond-40 atom-29 atom-20" d="M 251.9,110.1 L 246.8,116.6" style="fill:none;fill-rule:evenodd;stroke:#0000FF;stroke-width:2.0px;stroke-linecap:butt;stroke-linejoin:miter;stroke-opacity:1"/>
<path class="bond-41 atom-29 atom-23" d="M 256.9,103.5 L 276.9,110.7" style="fill:none;fill-rule:evenodd;stroke:#000000;stroke-width:2.0px;stroke-linecap:butt;stroke-linejoin:miter;stroke-opacity:1"/>
<path d="M 83.1,151.1 L 82.4,150.3 L 82.5,149.9" style="fill:none;stroke:#000000;stroke-width:2.0px;stroke-linecap:butt;stroke-linejoin:miter;stroke-opacity:1;"/>
<path d="M 99.5,85.8 L 100.5,85.3 L 100.5,84.9" style="fill:none;stroke:#000000;stroke-width:2.0px;stroke-linecap:butt;stroke-linejoin:miter;stroke-opacity:1;"/>
<path d="M 173.5,94.7 L 173.5,95.2 L 174.3,95.8" style="fill:none;stroke:#000000;stroke-width:2.0px;stroke-linecap:butt;stroke-linejoin:miter;stroke-opacity:1;"/>
<path d="M 255.7,137.5 L 255.9,137.9 L 256.4,137.8" style="fill:none;stroke:#000000;stroke-width:2.0px;stroke-linecap:butt;stroke-linejoin:miter;stroke-opacity:1;"/>
<path d="M 269.7,69.0 L 269.3,68.8 L 269.0,69.1" style="fill:none;stroke:#000000;stroke-width:2.0px;stroke-linecap:butt;stroke-linejoin:miter;stroke-opacity:1;"/>
<path class="atom-2" d="M 58.7 154.1 Q 58.7 152.7, 59.4 151.9 Q 60.2 151.1, 61.5 151.1 Q 62.8 151.1, 63.5 151.9 Q 64.3 152.7, 64.3 154.1 Q 64.3 155.6, 63.5 156.4 Q 62.8 157.3, 61.5 157.3 Q 60.2 157.3, 59.4 156.4 Q 58.7 155.6, 58.7 154.1 M 61.5 156.6 Q 62.4 156.6, 62.9 156.0 Q 63.4 155.3, 63.4 154.1 Q 63.4 153.0, 62.9 152.4 Q 62.4 151.8, 61.5 151.8 Q 60.6 151.8, 60.1 152.4 Q 59.6 152.9, 59.6 154.1 Q 59.6 155.4, 60.1 156.0 Q 60.6 156.6, 61.5 156.6 " fill="#FF0000"/>
<path class="atom-3" d="M 86.8 130.3 Q 86.8 128.9, 87.5 128.1 Q 88.2 127.2, 89.6 127.2 Q 90.9 127.2, 91.6 128.1 Q 92.3 128.9, 92.3 130.3 Q 92.3 131.8, 91.6 132.6 Q 90.9 133.4, 89.6 133.4 Q 88.2 133.4, 87.5 132.6 Q 86.8 131.8, 86.8 130.3 M 89.6 132.7 Q 90.5 132.7, 91.0 132.1 Q 91.5 131.5, 91.5 130.3 Q 91.5 129.1, 91.0 128.5 Q 90.5 127.9, 89.6 127.9 Q 88.6 127.9, 88.1 128.5 Q 87.6 129.1, 87.6 130.3 Q 87.6 131.5, 88.1 132.1 Q 88.6 132.7, 89.6 132.7 " fill="#FF0000"/>
<path class="atom-7" d="M 100.5 64.3 Q 100.5 62.8, 101.3 62.0 Q 102.0 61.2, 103.3 61.2 Q 104.6 61.2, 105.4 62.0 Q 106.1 62.8, 106.1 64.3 Q 106.1 65.8, 105.4 66.6 Q 104.6 67.4, 103.3 67.4 Q 102.0 67.4, 101.3 66.6 Q 100.5 65.8, 100.5 64.3 M 103.3 66.7 Q 104.2 66.7, 104.7 66.1 Q 105.2 65.5, 105.2 64.3 Q 105.2 63.1, 104.7 62.5 Q 104.2 61.9, 103.3 61.9 Q 102.4 61.9, 101.9 62.5 Q 101.4 63.1, 101.4 64.3 Q 101.4 65.5, 101.9 66.1 Q 102.4 66.7, 103.3 66.7 " fill="#FF0000"/>
<path class="atom-8" d="M 122.8 53.2 Q 123.9 53.2, 124.4 53.7 Q 124.9 54.1, 124.9 55.0 Q 124.9 55.8, 124.4 56.3 Q 123.8 56.7, 122.8 56.7 L 121.9 56.7 L 121.9 59.2 L 121.1 59.2 L 121.1 53.2 L 122.8 53.2 M 122.8 56.1 Q 123.4 56.1, 123.7 55.8 Q 124.0 55.5, 124.0 55.0 Q 124.0 54.4, 123.7 54.1 Q 123.4 53.9, 122.8 53.9 L 121.9 53.9 L 121.9 56.1 L 122.8 56.1 " fill="#FF7F00"/>
<path class="atom-9" d="M 112.1 36.6 Q 112.1 35.1, 112.8 34.3 Q 113.6 33.5, 114.9 33.5 Q 116.2 33.5, 116.9 34.3 Q 117.7 35.1, 117.7 36.6 Q 117.7 38.0, 116.9 38.8 Q 116.2 39.7, 114.9 39.7 Q 113.6 39.7, 112.8 38.8 Q 112.1 38.0, 112.1 36.6 M 114.9 39.0 Q 115.8 39.0, 116.3 38.4 Q 116.8 37.8, 116.8 36.6 Q 116.8 35.4, 116.3 34.8 Q 115.8 34.2, 114.9 34.2 Q 114.0 34.2, 113.5 34.8 Q 113.0 35.4, 113.0 36.6 Q 113.0 37.8, 113.5 38.4 Q 114.0 39.0, 114.9 39.0 " fill="#FF0000"/>
<path class="atom-10" d="M 128.3 75.9 Q 128.3 74.4, 129.0 73.6 Q 129.7 72.8, 131.1 72.8 Q 132.4 72.8, 133.1 73.6 Q 133.8 74.4, 133.8 75.9 Q 133.8 77.3, 133.1 78.2 Q 132.4 79.0, 131.1 79.0 Q 129.7 79.0, 129.0 78.2 Q 128.3 77.3, 128.3 75.9 M 131.1 78.3 Q 132.0 78.3, 132.5 77.7 Q 133.0 77.1, 133.0 75.9 Q 133.0 74.7, 132.5 74.1 Q 132.0 73.5, 131.1 73.5 Q 130.1 73.5, 129.6 74.1 Q 129.1 74.7, 129.1 75.9 Q 129.1 77.1, 129.6 77.7 Q 130.1 78.3, 131.1 78.3 " fill="#FF0000"/>
<path class="atom-10" d="M 134.8 72.9 L 135.6 72.9 L 135.6 75.4 L 138.6 75.4 L 138.6 72.9 L 139.5 72.9 L 139.5 78.9 L 138.6 78.9 L 138.6 76.1 L 135.6 76.1 L 135.6 78.9 L 134.8 78.9 L 134.8 72.9 " fill="#FF0000"/>
<path class="atom-11" d="M 139.9 48.1 Q 139.9 46.7, 140.6 45.9 Q 141.3 45.1, 142.6 45.1 Q 144.0 45.1, 144.7 45.9 Q 145.4 46.7, 145.4 48.1 Q 145.4 49.6, 144.7 50.4 Q 144.0 51.3, 142.6 51.3 Q 141.3 51.3, 140.6 50.4 Q 139.9 49.6, 139.9 48.1 M 142.6 50.6 Q 143.6 50.6, 144.0 50.0 Q 144.6 49.3, 144.6 48.1 Q 144.6 47.0, 144.0 46.4 Q 143.6 45.8, 142.6 45.8 Q 141.7 45.8, 141.2 46.3 Q 140.7 46.9, 140.7 48.1 Q 140.7 49.4, 141.2 50.0 Q 141.7 50.6, 142.6 50.6 " fill="#FF0000"/>
<path class="atom-12" d="M 159.3 58.1 Q 160.4 58.1, 160.9 58.6 Q 161.4 59.0, 161.4 59.9 Q 161.4 60.7, 160.9 61.2 Q 160.3 61.6, 159.3 61.6 L 158.4 61.6 L 158.4 64.1 L 157.5 64.1 L 157.5 58.1 L 159.3 58.1 M 159.3 61.0 Q 159.9 61.0, 160.2 60.7 Q 160.5 60.4, 160.5 59.9 Q 160.5 59.3, 160.2 59.1 Q 159.9 58.8, 159.3 58.8 L 158.4 58.8 L 158.4 61.0 L 159.3 61.0 " fill="#FF7F00"/>
<path class="atom-13" d="M 143.7 78.0 Q 143.7 76.5, 144.4 75.7 Q 145.1 74.9, 146.5 74.9 Q 147.8 74.9, 148.5 75.7 Q 149.2 76.5, 149.2 78.0 Q 149.2 79.4, 148.5 80.2 Q 147.8 81.1, 146.5 81.1 Q 145.2 81.1, 144.4 80.2 Q 143.7 79.4, 143.7 78.0 M 146.5 80.4 Q 147.4 80.4, 147.9 79.8 Q 148.4 79.2, 148.4 78.0 Q 148.4 76.8, 147.9 76.2 Q 147.4 75.6, 146.5 75.6 Q 145.6 75.6, 145.1 76.2 Q 144.6 76.8, 144.6 78.0 Q 144.6 79.2, 145.1 79.8 Q 145.6 80.4, 146.5 80.4 " fill="#FF0000"/>
<path class="atom-14" d="M 169.7 44.3 Q 169.7 42.8, 170.4 42.0 Q 171.1 41.2, 172.5 41.2 Q 173.8 41.2, 174.5 42.0 Q 175.2 42.8, 175.2 44.3 Q 175.2 45.8, 174.5 46.6 Q 173.8 47.4, 172.5 47.4 Q 171.1 47.4, 170.4 46.6 Q 169.7 45.8, 169.7 44.3 M 172.5 46.7 Q 173.4 46.7, 173.9 46.1 Q 174.4 45.5, 174.4 44.3 Q 174.4 43.1, 173.9 42.5 Q 173.4 41.9, 172.5 41.9 Q 171.5 41.9, 171.0 42.5 Q 170.5 43.1, 170.5 44.3 Q 170.5 45.5, 171.0 46.1 Q 171.5 46.7, 172.5 46.7 " fill="#FF0000"/>
<path class="atom-14" d="M 176.2 41.3 L 177.0 41.3 L 177.0 43.9 L 180.1 43.9 L 180.1 41.3 L 180.9 41.3 L 180.9 47.3 L 180.1 47.3 L 180.1 44.5 L 177.0 44.5 L 177.0 47.3 L 176.2 47.3 L 176.2 41.3 " fill="#FF0000"/>
<path class="atom-15" d="M 173.5 74.1 Q 173.5 72.7, 174.2 71.9 Q 175.0 71.1, 176.3 71.1 Q 177.6 71.1, 178.3 71.9 Q 179.1 72.7, 179.1 74.1 Q 179.1 75.6, 178.3 76.4 Q 177.6 77.2, 176.3 77.2 Q 175.0 77.2, 174.2 76.4 Q 173.5 75.6, 173.5 74.1 M 176.3 76.6 Q 177.2 76.6, 177.7 75.9 Q 178.2 75.3, 178.2 74.1 Q 178.2 72.9, 177.7 72.3 Q 177.2 71.7, 176.3 71.7 Q 175.4 71.7, 174.9 72.3 Q 174.4 72.9, 174.4 74.1 Q 174.4 75.3, 174.9 75.9 Q 175.4 76.6, 176.3 76.6 " fill="#FF0000"/>
<path class="atom-18" d="M 207.9 102.2 Q 207.9 100.7, 208.6 99.9 Q 209.4 99.1, 210.7 99.1 Q 212.0 99.1, 212.7 99.9 Q 213.5 100.7, 213.5 102.2 Q 213.5 103.7, 212.7 104.5 Q 212.0 105.3, 210.7 105.3 Q 209.4 105.3, 208.6 104.5 Q 207.9 103.7, 207.9 102.2 M 210.7 104.6 Q 211.6 104.6, 212.1 104.0 Q 212.6 103.4, 212.6 102.2 Q 212.6 101.0, 212.1 100.4 Q 211.6 99.8, 210.7 99.8 Q 209.8 99.8, 209.3 100.4 Q 208.8 101.0, 208.8 102.2 Q 208.8 103.4, 209.3 104.0 Q 209.8 104.6, 210.7 104.6 " fill="#FF0000"/>
<path class="atom-20" d="M 242.6 117.3 L 244.6 120.5 Q 244.8 120.8, 245.1 121.4 Q 245.4 122.0, 245.4 122.0 L 245.4 117.3 L 246.2 117.3 L 246.2 123.4 L 245.4 123.4 L 243.3 119.9 Q 243.0 119.5, 242.8 119.0 Q 242.5 118.5, 242.4 118.4 L 242.4 123.4 L 241.6 123.4 L 241.6 117.3 L 242.6 117.3 " fill="#0000FF"/>
<path class="atom-22" d="M 275.0 128.9 L 277.0 132.1 Q 277.2 132.4, 277.5 133.0 Q 277.8 133.5, 277.8 133.6 L 277.8 128.9 L 278.6 128.9 L 278.6 134.9 L 277.8 134.9 L 275.7 131.4 Q 275.4 131.0, 275.2 130.6 Q 274.9 130.1, 274.8 130.0 L 274.8 134.9 L 274.0 134.9 L 274.0 128.9 L 275.0 128.9 " fill="#0000FF"/>
<path class="atom-25" d="M 311.8 101.0 L 313.8 104.2 Q 314.0 104.6, 314.3 105.1 Q 314.6 105.7, 314.6 105.7 L 314.6 101.0 L 315.4 101.0 L 315.4 107.1 L 314.6 107.1 L 312.5 103.6 Q 312.3 103.2, 312.0 102.7 Q 311.7 102.2, 311.7 102.1 L 311.7 107.1 L 310.9 107.1 L 310.9 101.0 L 311.8 101.0 " fill="#0000FF"/>
<path class="atom-25" d="M 316.6 101.0 L 317.4 101.0 L 317.4 103.6 L 320.5 103.6 L 320.5 101.0 L 321.3 101.0 L 321.3 107.1 L 320.5 107.1 L 320.5 104.3 L 317.4 104.3 L 317.4 107.1 L 316.6 107.1 L 316.6 101.0 " fill="#0000FF"/>
<path class="atom-25" d="M 322.5 106.9 Q 322.6 106.5, 323.0 106.3 Q 323.3 106.1, 323.8 106.1 Q 324.4 106.1, 324.7 106.4 Q 325.1 106.7, 325.1 107.3 Q 325.1 107.9, 324.6 108.4 Q 324.2 109.0, 323.3 109.6 L 325.2 109.6 L 325.2 110.1 L 322.5 110.1 L 322.5 109.7 Q 323.2 109.2, 323.7 108.8 Q 324.1 108.4, 324.3 108.0 Q 324.5 107.7, 324.5 107.3 Q 324.5 106.9, 324.3 106.7 Q 324.1 106.5, 323.8 106.5 Q 323.5 106.5, 323.3 106.6 Q 323.1 106.8, 322.9 107.1 L 322.5 106.9 " fill="#0000FF"/>
<path class="atom-26" d="M 288.0 73.0 L 290.0 76.2 Q 290.2 76.5, 290.5 77.1 Q 290.8 77.6, 290.8 77.7 L 290.8 73.0 L 291.6 73.0 L 291.6 79.0 L 290.8 79.0 L 288.7 75.5 Q 288.4 75.1, 288.2 74.6 Q 287.9 74.2, 287.8 74.0 L 287.8 79.0 L 287.0 79.0 L 287.0 73.0 L 288.0 73.0 " fill="#0000FF"/>
<path class="atom-28" d="M 251.8 79.6 L 253.7 82.8 Q 253.9 83.1, 254.3 83.7 Q 254.6 84.2, 254.6 84.3 L 254.6 79.6 L 255.4 79.6 L 255.4 85.6 L 254.6 85.6 L 252.4 82.1 Q 252.2 81.7, 251.9 81.2 Q 251.7 80.8, 251.6 80.6 L 251.6 85.6 L 250.8 85.6 L 250.8 79.6 L 251.8 79.6 " fill="#0000FF"/>
<path class="atom-31" d="M 212.9 157.0 Q 212.9 155.5, 213.6 154.7 Q 214.3 153.9, 215.7 153.9 Q 217.0 153.9, 217.7 154.7 Q 218.4 155.5, 218.4 157.0 Q 218.4 158.4, 217.7 159.3 Q 217.0 160.1, 215.7 160.1 Q 214.3 160.1, 213.6 159.3 Q 212.9 158.4, 212.9 157.0 M 215.7 159.4 Q 216.6 159.4, 217.1 158.8 Q 217.6 158.2, 217.6 157.0 Q 217.6 155.8, 217.1 155.2 Q 216.6 154.6, 215.7 154.6 Q 214.8 154.6, 214.3 155.2 Q 213.8 155.8, 213.8 157.0 Q 213.8 158.2, 214.3 158.8 Q 214.8 159.4, 215.7 159.4 " fill="#FF0000"/>
<path class="atom-31" d="M 219.4 154.0 L 220.2 154.0 L 220.2 156.5 L 223.3 156.5 L 223.3 154.0 L 224.1 154.0 L 224.1 160.0 L 223.3 160.0 L 223.3 157.2 L 220.2 157.2 L 220.2 160.0 L 219.4 160.0 L 219.4 154.0 " fill="#FF0000"/>
<path class="atom-33" d="M 163.4 138.4 L 164.2 138.4 L 164.2 141.0 L 167.3 141.0 L 167.3 138.4 L 168.1 138.4 L 168.1 144.4 L 167.3 144.4 L 167.3 141.7 L 164.2 141.7 L 164.2 144.4 L 163.4 144.4 L 163.4 138.4 " fill="#FF0000"/>
<path class="atom-33" d="M 169.4 141.4 Q 169.4 140.0, 170.1 139.2 Q 170.8 138.3, 172.1 138.3 Q 173.5 138.3, 174.2 139.2 Q 174.9 140.0, 174.9 141.4 Q 174.9 142.9, 174.2 143.7 Q 173.4 144.5, 172.1 144.5 Q 170.8 144.5, 170.1 143.7 Q 169.4 142.9, 169.4 141.4 M 172.1 143.9 Q 173.0 143.9, 173.5 143.2 Q 174.0 142.6, 174.0 141.4 Q 174.0 140.2, 173.5 139.6 Q 173.0 139.0, 172.1 139.0 Q 171.2 139.0, 170.7 139.6 Q 170.2 140.2, 170.2 141.4 Q 170.2 142.6, 170.7 143.2 Q 171.2 143.9, 172.1 143.9 " fill="#FF0000"/>
<path class="atom-34" d="M 60.0 82.3 Q 60.0 80.8, 60.7 80.0 Q 61.4 79.2, 62.7 79.2 Q 64.1 79.2, 64.8 80.0 Q 65.5 80.8, 65.5 82.3 Q 65.5 83.7, 64.8 84.6 Q 64.0 85.4, 62.7 85.4 Q 61.4 85.4, 60.7 84.6 Q 60.0 83.8, 60.0 82.3 M 62.7 84.7 Q 63.6 84.7, 64.1 84.1 Q 64.6 83.5, 64.6 82.3 Q 64.6 81.1, 64.1 80.5 Q 63.6 79.9, 62.7 79.9 Q 61.8 79.9, 61.3 80.5 Q 60.8 81.1, 60.8 82.3 Q 60.8 83.5, 61.3 84.1 Q 61.8 84.7, 62.7 84.7 " fill="#FF0000"/>
<path class="atom-36" d="M 17.2 88.0 L 18.0 88.0 L 18.0 90.6 L 21.0 90.6 L 21.0 88.0 L 21.9 88.0 L 21.9 94.1 L 21.0 94.1 L 21.0 91.3 L 18.0 91.3 L 18.0 94.1 L 17.2 94.1 L 17.2 88.0 " fill="#FF0000"/>
<path class="atom-36" d="M 23.1 91.0 Q 23.1 89.6, 23.8 88.8 Q 24.5 88.0, 25.9 88.0 Q 27.2 88.0, 27.9 88.8 Q 28.6 89.6, 28.6 91.0 Q 28.6 92.5, 27.9 93.3 Q 27.2 94.1, 25.9 94.1 Q 24.5 94.1, 23.8 93.3 Q 23.1 92.5, 23.1 91.0 M 25.9 93.5 Q 26.8 93.5, 27.3 92.9 Q 27.8 92.2, 27.8 91.0 Q 27.8 89.8, 27.3 89.2 Q 26.8 88.6, 25.9 88.6 Q 24.9 88.6, 24.4 89.2 Q 23.9 89.8, 23.9 91.0 Q 23.9 92.2, 24.4 92.9 Q 24.9 93.5, 25.9 93.5 " fill="#FF0000"/>
<path class="atom-38" d="M 34.7 130.8 L 35.5 130.8 L 35.5 133.4 L 38.6 133.4 L 38.6 130.8 L 39.4 130.8 L 39.4 136.8 L 38.6 136.8 L 38.6 134.0 L 35.5 134.0 L 35.5 136.8 L 34.7 136.8 L 34.7 130.8 " fill="#FF0000"/>
<path class="atom-38" d="M 40.7 133.8 Q 40.7 132.4, 41.4 131.5 Q 42.1 130.7, 43.4 130.7 Q 44.8 130.7, 45.5 131.5 Q 46.2 132.4, 46.2 133.8 Q 46.2 135.3, 45.5 136.1 Q 44.8 136.9, 43.4 136.9 Q 42.1 136.9, 41.4 136.1 Q 40.7 135.3, 40.7 133.8 M 43.4 136.2 Q 44.4 136.2, 44.8 135.6 Q 45.4 135.0, 45.4 133.8 Q 45.4 132.6, 44.8 132.0 Q 44.4 131.4, 43.4 131.4 Q 42.5 131.4, 42.0 132.0 Q 41.5 132.6, 41.5 133.8 Q 41.5 135.0, 42.0 135.6 Q 42.5 136.2, 43.4 136.2 " fill="#FF0000"/>
</g>
    <g transform="translate(904.0, 0) scale(1 1) "><line x1="15" y1="100" x2="25" y2="100" style="stroke:rgb(0,0,0);stroke-width:2"/>
  <line x1="20" y1="95" x2="20" y2="105" style="stroke:rgb(0,0,0);stroke-width:2"/>
</g>
    <g transform="translate(944.0, 0) scale(1 1) "><!-- END OF HEADER -->
<rect style="opacity:1.0;fill:#FFFFFF;stroke:none" width="25.0" height="200.0" x="0.0" y="0.0"> </rect>
<path class="atom-0" d="M 1.2 93.4 L 2.5 93.4 L 2.5 97.2 L 7.0 97.2 L 7.0 93.4 L 8.2 93.4 L 8.2 102.3 L 7.0 102.3 L 7.0 98.2 L 2.5 98.2 L 2.5 102.3 L 1.2 102.3 L 1.2 93.4 " fill="#FF0000"/>
<path class="atom-0" d="M 10.0 102.0 Q 10.2 101.4, 10.7 101.1 Q 11.2 100.8, 11.9 100.8 Q 12.8 100.8, 13.3 101.3 Q 13.8 101.7, 13.8 102.6 Q 13.8 103.5, 13.2 104.3 Q 12.5 105.1, 11.2 106.0 L 13.9 106.0 L 13.9 106.7 L 10.0 106.7 L 10.0 106.2 Q 11.1 105.4, 11.7 104.8 Q 12.4 104.2, 12.7 103.7 Q 13.0 103.2, 13.0 102.6 Q 13.0 102.1, 12.7 101.8 Q 12.4 101.4, 11.9 101.4 Q 11.5 101.4, 11.1 101.6 Q 10.8 101.8, 10.6 102.2 L 10.0 102.0 " fill="#FF0000"/>
<path class="atom-0" d="M 15.1 97.8 Q 15.1 95.7, 16.2 94.5 Q 17.2 93.3, 19.2 93.3 Q 21.1 93.3, 22.2 94.5 Q 23.2 95.7, 23.2 97.8 Q 23.2 100.0, 22.2 101.2 Q 21.1 102.4, 19.2 102.4 Q 17.2 102.4, 16.2 101.2 Q 15.1 100.0, 15.1 97.8 M 19.2 101.4 Q 20.5 101.4, 21.3 100.5 Q 22.0 99.6, 22.0 97.8 Q 22.0 96.1, 21.3 95.2 Q 20.5 94.3, 19.2 94.3 Q 17.8 94.3, 17.1 95.2 Q 16.4 96.1, 16.4 97.8 Q 16.4 99.6, 17.1 100.5 Q 17.8 101.4, 19.2 101.4 " fill="#FF0000"/>
</g>
  </g>
</svg>
