<?xml version='1.0' encoding='ASCII' standalone='yes'?>
<svg xmlns="http://www.w3.org/2000/svg" xmlns:xlink="http://www.w3.org/1999/xlink" version="1.1" width="778.0px" viewBox="0 0 778.0 200.0" height="200.0px">
  <g>
    <g transform="translate(0, 0) scale(1 1) "><!-- END OF HEADER -->
<rect style="opacity:1.0;fill:#FFFFFF;stroke:none" width="233.0" height="200.0" x="0.0" y="0.0"> </rect>
<path class="bond-0 atom-0 atom-1" d="M 166.6,57.2 L 136.4,90.9" style="fill:none;fill-rule:evenodd;stroke:#000000;stroke-width:2.0px;stroke-linecap:butt;stroke-linejoin:miter;stroke-opacity:1"/>
<path class="bond-1 atom-1 atom-2" d="M 136.4,90.9 L 102.7,60.7" style="fill:none;fill-rule:evenodd;stroke:#000000;stroke-width:2.0px;stroke-linecap:butt;stroke-linejoin:miter;stroke-opacity:1"/>
<path class="bond-2 atom-2 atom-3" d="M 102.7,60.7 L 106.5,42.7" style="fill:none;fill-rule:evenodd;stroke:#000000;stroke-width:2.0px;stroke-linecap:butt;stroke-linejoin:miter;stroke-opacity:1"/>
<path class="bond-2 atom-2 atom-3" d="M 106.5,42.7 L 110.3,24.6" style="fill:none;fill-rule:evenodd;stroke:#FF0000;stroke-width:2.0px;stroke-linecap:butt;stroke-linejoin:miter;stroke-opacity:1"/>
<path class="bond-3 atom-1 atom-4" d="M 136.4,90.9 L 106.3,124.6" style="fill:none;fill-rule:evenodd;stroke:#000000;stroke-width:2.0px;stroke-linecap:butt;stroke-linejoin:miter;stroke-opacity:1"/>
<path class="bond-4 atom-4 atom-5" d="M 106.3,124.6 L 62.0,115.3" style="fill:none;fill-rule:evenodd;stroke:#000000;stroke-width:2.0px;stroke-linecap:butt;stroke-linejoin:miter;stroke-opacity:1"/>
<path class="bond-5 atom-5 atom-6" d="M 65.8,116.1 L 59.8,97.8" style="fill:none;fill-rule:evenodd;stroke:#000000;stroke-width:2.0px;stroke-linecap:butt;stroke-linejoin:miter;stroke-opacity:1"/>
<path class="bond-5 atom-5 atom-6" d="M 59.8,97.8 L 53.8,79.5" style="fill:none;fill-rule:evenodd;stroke:#FF0000;stroke-width:2.0px;stroke-linecap:butt;stroke-linejoin:miter;stroke-opacity:1"/>
<path class="bond-5 atom-5 atom-6" d="M 59.4,118.3 L 53.4,99.9" style="fill:none;fill-rule:evenodd;stroke:#000000;stroke-width:2.0px;stroke-linecap:butt;stroke-linejoin:miter;stroke-opacity:1"/>
<path class="bond-5 atom-5 atom-6" d="M 53.4,99.9 L 47.4,81.6" style="fill:none;fill-rule:evenodd;stroke:#FF0000;stroke-width:2.0px;stroke-linecap:butt;stroke-linejoin:miter;stroke-opacity:1"/>
<path class="bond-6 atom-5 atom-7" d="M 62.0,115.3 L 50.5,128.2" style="fill:none;fill-rule:evenodd;stroke:#000000;stroke-width:2.0px;stroke-linecap:butt;stroke-linejoin:miter;stroke-opacity:1"/>
<path class="bond-6 atom-5 atom-7" d="M 50.5,128.2 L 39.0,141.1" style="fill:none;fill-rule:evenodd;stroke:#FF0000;stroke-width:2.0px;stroke-linecap:butt;stroke-linejoin:miter;stroke-opacity:1"/>
<path class="bond-7 atom-1 atom-8" d="M 136.4,90.9 L 170.1,121.1" style="fill:none;fill-rule:evenodd;stroke:#000000;stroke-width:2.0px;stroke-linecap:butt;stroke-linejoin:miter;stroke-opacity:1"/>
<path class="bond-8 atom-8 atom-9" d="M 169.3,124.9 L 188.1,118.7" style="fill:none;fill-rule:evenodd;stroke:#000000;stroke-width:2.0px;stroke-linecap:butt;stroke-linejoin:miter;stroke-opacity:1"/>
<path class="bond-8 atom-8 atom-9" d="M 188.1,118.7 L 206.8,112.6" style="fill:none;fill-rule:evenodd;stroke:#FF0000;stroke-width:2.0px;stroke-linecap:butt;stroke-linejoin:miter;stroke-opacity:1"/>
<path class="bond-8 atom-8 atom-9" d="M 167.2,118.4 L 185.9,112.3" style="fill:none;fill-rule:evenodd;stroke:#000000;stroke-width:2.0px;stroke-linecap:butt;stroke-linejoin:miter;stroke-opacity:1"/>
<path class="bond-8 atom-8 atom-9" d="M 185.9,112.3 L 204.7,106.2" style="fill:none;fill-rule:evenodd;stroke:#FF0000;stroke-width:2.0px;stroke-linecap:butt;stroke-linejoin:miter;stroke-opacity:1"/>
<path class="bond-9 atom-8 atom-10" d="M 170.1,121.1 L 166.3,139.2" style="fill:none;fill-rule:evenodd;stroke:#000000;stroke-width:2.0px;stroke-linecap:butt;stroke-linejoin:miter;stroke-opacity:1"/>
<path class="bond-9 atom-8 atom-10" d="M 166.3,139.2 L 162.5,157.4" style="fill:none;fill-rule:evenodd;stroke:#FF0000;stroke-width:2.0px;stroke-linecap:butt;stroke-linejoin:miter;stroke-opacity:1"/>
<path d="M 104.4,62.2 L 102.7,60.7 L 102.9,59.8" style="fill:none;stroke:#000000;stroke-width:2.0px;stroke-linecap:butt;stroke-linejoin:miter;stroke-opacity:1;"/>
<path d="M 107.8,122.9 L 106.3,124.6 L 104.1,124.1" style="fill:none;stroke:#000000;stroke-width:2.0px;stroke-linecap:butt;stroke-linejoin:miter;stroke-opacity:1;"/>
<path d="M 64.2,115.8 L 62.0,115.3 L 61.4,116.0" style="fill:none;stroke:#000000;stroke-width:2.0px;stroke-linecap:butt;stroke-linejoin:miter;stroke-opacity:1;"/>
<path d="M 168.4,119.6 L 170.1,121.1 L 169.9,122.0" style="fill:none;stroke:#000000;stroke-width:2.0px;stroke-linecap:butt;stroke-linejoin:miter;stroke-opacity:1;"/>
<path class="atom-3" d="M 106.1 16.5 Q 106.1 13.4, 107.6 11.7 Q 109.2 10.0, 112.0 10.0 Q 114.8 10.0, 116.4 11.7 Q 117.9 13.4, 117.9 16.5 Q 117.9 19.6, 116.3 21.4 Q 114.8 23.2, 112.0 23.2 Q 109.2 23.2, 107.6 21.4 Q 106.1 19.6, 106.1 16.5 M 112.0 21.7 Q 114.0 21.7, 115.0 20.4 Q 116.1 19.1, 116.1 16.5 Q 116.1 14.0, 115.0 12.7 Q 114.0 11.4, 112.0 11.4 Q 110.0 11.4, 109.0 12.7 Q 107.9 14.0, 107.9 16.5 Q 107.9 19.1, 109.0 20.4 Q 110.0 21.7, 112.0 21.7 " fill="#FF0000"/>
<path class="atom-3" d="M 119.9 10.1 L 121.6 10.1 L 121.6 15.6 L 128.2 15.6 L 128.2 10.1 L 129.9 10.1 L 129.9 23.0 L 128.2 23.0 L 128.2 17.0 L 121.6 17.0 L 121.6 23.0 L 119.9 23.0 L 119.9 10.1 " fill="#FF0000"/>
<path class="atom-6" d="M 42.0 72.4 Q 42.0 69.3, 43.5 67.6 Q 45.1 65.9, 47.9 65.9 Q 50.7 65.9, 52.3 67.6 Q 53.8 69.3, 53.8 72.4 Q 53.8 75.5, 52.2 77.3 Q 50.7 79.0, 47.9 79.0 Q 45.1 79.0, 43.5 77.3 Q 42.0 75.5, 42.0 72.4 M 47.9 77.6 Q 49.9 77.6, 50.9 76.3 Q 52.0 75.0, 52.0 72.4 Q 52.0 69.9, 50.9 68.6 Q 49.9 67.3, 47.9 67.3 Q 45.9 67.3, 44.9 68.6 Q 43.8 69.9, 43.8 72.4 Q 43.8 75.0, 44.9 76.3 Q 45.9 77.6, 47.9 77.6 " fill="#FF0000"/>
<path class="atom-7" d="M 13.3 142.7 L 15.1 142.7 L 15.1 148.1 L 21.6 148.1 L 21.6 142.7 L 23.3 142.7 L 23.3 155.5 L 21.6 155.5 L 21.6 149.6 L 15.1 149.6 L 15.1 155.5 L 13.3 155.5 L 13.3 142.7 " fill="#FF0000"/>
<path class="atom-7" d="M 26.0 149.1 Q 26.0 146.0, 27.5 144.3 Q 29.0 142.6, 31.8 142.6 Q 34.7 142.6, 36.2 144.3 Q 37.7 146.0, 37.7 149.1 Q 37.7 152.2, 36.2 154.0 Q 34.7 155.7, 31.8 155.7 Q 29.0 155.7, 27.5 154.0 Q 26.0 152.2, 26.0 149.1 M 31.8 154.3 Q 33.8 154.3, 34.9 153.0 Q 35.9 151.6, 35.9 149.1 Q 35.9 146.6, 34.9 145.3 Q 33.8 144.0, 31.8 144.0 Q 29.9 144.0, 28.8 145.3 Q 27.8 146.5, 27.8 149.1 Q 27.8 151.7, 28.8 153.0 Q 29.9 154.3, 31.8 154.3 " fill="#FF0000"/>
<path class="atom-9" d="M 207.2 107.0 Q 207.2 103.9, 208.7 102.2 Q 210.3 100.5, 213.1 100.5 Q 215.9 100.5, 217.5 102.2 Q 219.0 103.9, 219.0 107.0 Q 219.0 110.1, 217.4 111.9 Q 215.9 113.6, 213.1 113.6 Q 210.3 113.6, 208.7 111.9 Q 207.2 110.1, 207.2 107.0 M 213.1 112.2 Q 215.1 112.2, 216.1 110.9 Q 217.2 109.6, 217.2 107.0 Q 217.2 104.5, 216.1 103.2 Q 215.1 101.9, 213.1 101.9 Q 211.1 101.9, 210.1 103.2 Q 209.0 104.5, 209.0 107.0 Q 209.0 109.6, 210.1 110.9 Q 211.1 112.2, 213.1 112.2 " fill="#FF0000"/>
<path class="atom-10" d="M 155.0 165.4 Q 155.0 162.3, 156.5 160.6 Q 158.0 158.8, 160.9 158.8 Q 163.7 158.8, 165.2 160.6 Q 166.7 162.3, 166.7 165.4 Q 166.7 168.5, 165.2 170.2 Q 163.7 172.0, 160.9 172.0 Q 158.0 172.0, 156.5 170.2 Q 155.0 168.5, 155.0 165.4 M 160.9 170.6 Q 162.8 170.6, 163.9 169.3 Q 164.9 167.9, 164.9 165.4 Q 164.9 162.8, 163.9 161.6 Q 162.8 160.3, 160.9 160.3 Q 158.9 160.3, 157.8 161.6 Q 156.8 162.8, 156.8 165.4 Q 156.8 167.9, 157.8 169.3 Q 158.9 170.6, 160.9 170.6 " fill="#FF0000"/>
<path class="atom-10" d="M 168.7 159.0 L 170.5 159.0 L 170.5 164.4 L 177.0 164.4 L 177.0 159.0 L 178.8 159.0 L 178.8 171.8 L 177.0 171.8 L 177.0 165.9 L 170.5 165.9 L 170.5 171.8 L 168.7 171.8 L 168.7 159.0 " fill="#FF0000"/>
<path class="legend" d="M 107.1 181.9 Q 107.1 179.6, 107.8 177.7 Q 108.5 175.8, 109.8 173.8 L 110.7 174.4 Q 109.6 176.3, 109.1 178.0 Q 108.6 179.7, 108.6 181.9 Q 108.6 184.0, 109.1 185.8 Q 109.6 187.5, 110.7 189.4 L 109.8 190.0 Q 108.5 188.0, 107.8 186.1 Q 107.1 184.2, 107.1 181.9 " fill="#000000"/>
<path class="legend" d="M 111.6 177.3 Q 112.0 176.2, 113.0 175.6 Q 114.0 175.0, 115.4 175.0 Q 117.1 175.0, 118.0 175.9 Q 119.0 176.8, 119.0 178.5 Q 119.0 180.2, 117.7 181.7 Q 116.5 183.3, 114.0 185.2 L 119.2 185.2 L 119.2 186.4 L 111.6 186.4 L 111.6 185.4 Q 113.7 183.9, 114.9 182.8 Q 116.2 181.6, 116.8 180.6 Q 117.4 179.6, 117.4 178.6 Q 117.4 177.5, 116.9 176.9 Q 116.3 176.3, 115.4 176.3 Q 114.5 176.3, 113.8 176.6 Q 113.2 177.0, 112.8 177.8 L 111.6 177.3 " fill="#000000"/>
<path class="legend" d="M 124.2 181.9 Q 124.2 184.2, 123.5 186.1 Q 122.8 188.0, 121.5 190.0 L 120.6 189.4 Q 121.7 187.5, 122.2 185.8 Q 122.7 184.0, 122.7 181.9 Q 122.7 179.7, 122.2 178.0 Q 121.7 176.3, 120.6 174.4 L 121.5 173.8 Q 122.8 175.8, 123.5 177.7 Q 124.2 179.6, 124.2 181.9 " fill="#000000"/>
</g>
    <g transform="translate(233.0, 0) scale(1 1) "><line x1="5" y1="100" x2="35" y2="100" style="stroke:rgb(0,0,0);stroke-width:2"/>
  <line x1="34" y1="100" x2="29" y2="95" style="stroke:rgb(0,0,0);stroke-width:2"/>
  <line x1="34" y1="100" x2="29" y2="105" style="stroke:rgb(0,0,0);stroke-width:2"/>
</g>
    <g transform="translate(273.0, 0) scale(1 1) "><!-- END OF HEADER -->
<rect style="opacity:1.0;fill:#FFFFFF;stroke:none" width="225.0" height="200.0" x="0.0" y="0.0"> </rect>
<path class="bond-0 atom-0 atom-1" d="M 69.0,84.0 L 67.3,100.8" style="fill:none;fill-rule:evenodd;stroke:#FF0000;stroke-width:2.0px;stroke-linecap:butt;stroke-linejoin:miter;stroke-opacity:1"/>
<path class="bond-0 atom-0 atom-1" d="M 67.3,100.8 L 65.7,117.6" style="fill:none;fill-rule:evenodd;stroke:#000000;stroke-width:2.0px;stroke-linecap:butt;stroke-linejoin:miter;stroke-opacity:1"/>
<path class="bond-0 atom-0 atom-1" d="M 63.1,83.5 L 61.5,100.2" style="fill:none;fill-rule:evenodd;stroke:#FF0000;stroke-width:2.0px;stroke-linecap:butt;stroke-linejoin:miter;stroke-opacity:1"/>
<path class="bond-0 atom-0 atom-1" d="M 61.5,100.2 L 59.8,117.0" style="fill:none;fill-rule:evenodd;stroke:#000000;stroke-width:2.0px;stroke-linecap:butt;stroke-linejoin:miter;stroke-opacity:1"/>
<path class="bond-1 atom-1 atom-2" d="M 62.9,115.6 L 48.3,122.2" style="fill:none;fill-rule:evenodd;stroke:#000000;stroke-width:2.0px;stroke-linecap:butt;stroke-linejoin:miter;stroke-opacity:1"/>
<path class="bond-1 atom-1 atom-2" d="M 48.3,122.2 L 33.7,128.9" style="fill:none;fill-rule:evenodd;stroke:#FF0000;stroke-width:2.0px;stroke-linecap:butt;stroke-linejoin:miter;stroke-opacity:1"/>
<path class="bond-2 atom-1 atom-3" d="M 62.9,115.6 L 94.7,138.4" style="fill:none;fill-rule:evenodd;stroke:#000000;stroke-width:2.0px;stroke-linecap:butt;stroke-linejoin:miter;stroke-opacity:1"/>
<path class="bond-3 atom-3 atom-4" d="M 94.7,138.4 L 130.3,122.3" style="fill:none;fill-rule:evenodd;stroke:#000000;stroke-width:2.0px;stroke-linecap:butt;stroke-linejoin:miter;stroke-opacity:1"/>
<path class="bond-4 atom-4 atom-5" d="M 130.3,122.3 L 162.1,145.1" style="fill:none;fill-rule:evenodd;stroke:#000000;stroke-width:2.0px;stroke-linecap:butt;stroke-linejoin:miter;stroke-opacity:1"/>
<path class="bond-5 atom-5 atom-6" d="M 162.1,145.1 L 176.8,138.4" style="fill:none;fill-rule:evenodd;stroke:#000000;stroke-width:2.0px;stroke-linecap:butt;stroke-linejoin:miter;stroke-opacity:1"/>
<path class="bond-5 atom-5 atom-6" d="M 176.8,138.4 L 191.4,131.8" style="fill:none;fill-rule:evenodd;stroke:#FF0000;stroke-width:2.0px;stroke-linecap:butt;stroke-linejoin:miter;stroke-opacity:1"/>
<path class="bond-6 atom-4 atom-7" d="M 130.3,122.3 L 134.2,83.3" style="fill:none;fill-rule:evenodd;stroke:#000000;stroke-width:2.0px;stroke-linecap:butt;stroke-linejoin:miter;stroke-opacity:1"/>
<path class="bond-7 atom-7 atom-8" d="M 137.3,81.9 L 123.9,72.3" style="fill:none;fill-rule:evenodd;stroke:#000000;stroke-width:2.0px;stroke-linecap:butt;stroke-linejoin:miter;stroke-opacity:1"/>
<path class="bond-7 atom-7 atom-8" d="M 123.9,72.3 L 110.5,62.7" style="fill:none;fill-rule:evenodd;stroke:#FF0000;stroke-width:2.0px;stroke-linecap:butt;stroke-linejoin:miter;stroke-opacity:1"/>
<path class="bond-7 atom-7 atom-8" d="M 133.9,86.7 L 120.5,77.1" style="fill:none;fill-rule:evenodd;stroke:#000000;stroke-width:2.0px;stroke-linecap:butt;stroke-linejoin:miter;stroke-opacity:1"/>
<path class="bond-7 atom-7 atom-8" d="M 120.5,77.1 L 107.1,67.5" style="fill:none;fill-rule:evenodd;stroke:#FF0000;stroke-width:2.0px;stroke-linecap:butt;stroke-linejoin:miter;stroke-opacity:1"/>
<path class="bond-8 atom-7 atom-9" d="M 134.2,83.3 L 148.8,76.7" style="fill:none;fill-rule:evenodd;stroke:#000000;stroke-width:2.0px;stroke-linecap:butt;stroke-linejoin:miter;stroke-opacity:1"/>
<path class="bond-8 atom-7 atom-9" d="M 148.8,76.7 L 163.4,70.1" style="fill:none;fill-rule:evenodd;stroke:#FF0000;stroke-width:2.0px;stroke-linecap:butt;stroke-linejoin:miter;stroke-opacity:1"/>
<path d="M 62.2,115.9 L 62.9,115.6 L 64.5,116.7" style="fill:none;stroke:#000000;stroke-width:2.0px;stroke-linecap:butt;stroke-linejoin:miter;stroke-opacity:1;"/>
<path d="M 93.1,137.3 L 94.7,138.4 L 96.5,137.6" style="fill:none;stroke:#000000;stroke-width:2.0px;stroke-linecap:butt;stroke-linejoin:miter;stroke-opacity:1;"/>
<path d="M 160.5,143.9 L 162.1,145.1 L 162.9,144.7" style="fill:none;stroke:#000000;stroke-width:2.0px;stroke-linecap:butt;stroke-linejoin:miter;stroke-opacity:1;"/>
<path d="M 134.0,85.3 L 134.2,83.3 L 134.9,83.0" style="fill:none;stroke:#000000;stroke-width:2.0px;stroke-linecap:butt;stroke-linejoin:miter;stroke-opacity:1;"/>
<path class="atom-0" d="M 61.7 76.7 Q 61.7 74.0, 63.0 72.6 Q 64.3 71.1, 66.8 71.1 Q 69.2 71.1, 70.5 72.6 Q 71.8 74.0, 71.8 76.7 Q 71.8 79.4, 70.5 80.9 Q 69.2 82.4, 66.8 82.4 Q 64.3 82.4, 63.0 80.9 Q 61.7 79.4, 61.7 76.7 M 66.8 81.2 Q 68.5 81.2, 69.4 80.1 Q 70.3 78.9, 70.3 76.7 Q 70.3 74.5, 69.4 73.4 Q 68.5 72.3, 66.8 72.3 Q 65.1 72.3, 64.1 73.4 Q 63.2 74.5, 63.2 76.7 Q 63.2 78.9, 64.1 80.1 Q 65.1 81.2, 66.8 81.2 " fill="#FF0000"/>
<path class="atom-2" d="M 11.2 126.3 L 12.8 126.3 L 12.8 131.0 L 18.4 131.0 L 18.4 126.3 L 19.9 126.3 L 19.9 137.3 L 18.4 137.3 L 18.4 132.2 L 12.8 132.2 L 12.8 137.3 L 11.2 137.3 L 11.2 126.3 " fill="#FF0000"/>
<path class="atom-2" d="M 22.2 131.8 Q 22.2 129.1, 23.5 127.6 Q 24.8 126.1, 27.3 126.1 Q 29.7 126.1, 31.0 127.6 Q 32.4 129.1, 32.4 131.8 Q 32.4 134.5, 31.0 136.0 Q 29.7 137.5, 27.3 137.5 Q 24.8 137.5, 23.5 136.0 Q 22.2 134.5, 22.2 131.8 M 27.3 136.3 Q 29.0 136.3, 29.9 135.1 Q 30.8 134.0, 30.8 131.8 Q 30.8 129.6, 29.9 128.5 Q 29.0 127.4, 27.3 127.4 Q 25.6 127.4, 24.7 128.5 Q 23.8 129.6, 23.8 131.8 Q 23.8 134.0, 24.7 135.1 Q 25.6 136.3, 27.3 136.3 " fill="#FF0000"/>
<path class="atom-6" d="M 192.7 129.0 Q 192.7 126.3, 194.0 124.8 Q 195.3 123.3, 197.8 123.3 Q 200.2 123.3, 201.5 124.8 Q 202.9 126.3, 202.9 129.0 Q 202.9 131.7, 201.5 133.2 Q 200.2 134.7, 197.8 134.7 Q 195.3 134.7, 194.0 133.2 Q 192.7 131.7, 192.7 129.0 M 197.8 133.4 Q 199.5 133.4, 200.4 132.3 Q 201.3 131.2, 201.3 129.0 Q 201.3 126.8, 200.4 125.7 Q 199.5 124.6, 197.8 124.6 Q 196.1 124.6, 195.2 125.7 Q 194.3 126.8, 194.3 129.0 Q 194.3 131.2, 195.2 132.3 Q 196.1 133.4, 197.8 133.4 " fill="#FF0000"/>
<path class="atom-6" d="M 204.6 123.5 L 206.1 123.5 L 206.1 128.2 L 211.7 128.2 L 211.7 123.5 L 213.2 123.5 L 213.2 134.5 L 211.7 134.5 L 211.7 129.4 L 206.1 129.4 L 206.1 134.5 L 204.6 134.5 L 204.6 123.5 " fill="#FF0000"/>
<path class="atom-8" d="M 97.3 60.6 Q 97.3 57.9, 98.6 56.4 Q 99.9 54.9, 102.4 54.9 Q 104.9 54.9, 106.2 56.4 Q 107.5 57.9, 107.5 60.6 Q 107.5 63.3, 106.2 64.8 Q 104.8 66.3, 102.4 66.3 Q 100.0 66.3, 98.6 64.8 Q 97.3 63.3, 97.3 60.6 M 102.4 65.1 Q 104.1 65.1, 105.0 63.9 Q 105.9 62.8, 105.9 60.6 Q 105.9 58.4, 105.0 57.3 Q 104.1 56.2, 102.4 56.2 Q 100.7 56.2, 99.8 57.3 Q 98.9 58.4, 98.9 60.6 Q 98.9 62.8, 99.8 63.9 Q 100.7 65.1, 102.4 65.1 " fill="#FF0000"/>
<path class="atom-9" d="M 164.7 67.2 Q 164.7 64.6, 166.1 63.1 Q 167.4 61.6, 169.8 61.6 Q 172.3 61.6, 173.6 63.1 Q 174.9 64.6, 174.9 67.2 Q 174.9 69.9, 173.6 71.5 Q 172.3 73.0, 169.8 73.0 Q 167.4 73.0, 166.1 71.5 Q 164.7 69.9, 164.7 67.2 M 169.8 71.7 Q 171.5 71.7, 172.4 70.6 Q 173.3 69.5, 173.3 67.2 Q 173.3 65.1, 172.4 64.0 Q 171.5 62.9, 169.8 62.9 Q 168.1 62.9, 167.2 63.9 Q 166.3 65.0, 166.3 67.2 Q 166.3 69.5, 167.2 70.6 Q 168.1 71.7, 169.8 71.7 " fill="#FF0000"/>
<path class="atom-9" d="M 176.6 61.7 L 178.1 61.7 L 178.1 66.4 L 183.8 66.4 L 183.8 61.7 L 185.3 61.7 L 185.3 72.8 L 183.8 72.8 L 183.8 67.7 L 178.1 67.7 L 178.1 72.8 L 176.6 72.8 L 176.6 61.7 " fill="#FF0000"/>
</g>
    <g transform="translate(498.0, 0) scale(1 1) "><line x1="15" y1="100" x2="25" y2="100" style="stroke:rgb(0,0,0);stroke-width:2"/>
  <line x1="20" y1="95" x2="20" y2="105" style="stroke:rgb(0,0,0);stroke-width:2"/>
</g>
    <g transform="translate(538.0, 0) scale(1 1) "><!-- END OF HEADER -->
<rect style="opacity:1.0;fill:#FFFFFF;stroke:none" width="240.0" height="200.0" x="0.0" y="0.0"> </rect>
<path class="bond-0 atom-0 atom-1" d="M 15.8,84.8 L 63.5,67.3" style="fill:none;fill-rule:evenodd;stroke:#000000;stroke-width:2.0px;stroke-linecap:butt;stroke-linejoin:miter;stroke-opacity:1"/>
<path class="bond-1 atom-1 atom-2" d="M 63.5,67.3 L 67.0,46.8" style="fill:none;fill-rule:evenodd;stroke:#000000;stroke-width:2.0px;stroke-linecap:butt;stroke-linejoin:miter;stroke-opacity:1"/>
<path class="bond-1 atom-1 atom-2" d="M 67.0,46.8 L 70.6,26.4" style="fill:none;fill-rule:evenodd;stroke:#FF0000;stroke-width:2.0px;stroke-linecap:butt;stroke-linejoin:miter;stroke-opacity:1"/>
<path class="bond-2 atom-1 atom-3" d="M 63.5,67.3 L 102.5,99.9" style="fill:none;fill-rule:evenodd;stroke:#000000;stroke-width:2.0px;stroke-linecap:butt;stroke-linejoin:miter;stroke-opacity:1"/>
<path class="bond-3 atom-3 atom-4" d="M 102.5,99.9 L 69.9,138.9" style="fill:none;fill-rule:evenodd;stroke:#000000;stroke-width:2.0px;stroke-linecap:butt;stroke-linejoin:miter;stroke-opacity:1"/>
<path class="bond-4 atom-3 atom-5" d="M 102.5,99.9 L 135.0,60.9" style="fill:none;fill-rule:evenodd;stroke:#000000;stroke-width:2.0px;stroke-linecap:butt;stroke-linejoin:miter;stroke-opacity:1"/>
<path class="bond-5 atom-5 atom-6" d="M 135.0,60.9 L 185.1,69.6" style="fill:none;fill-rule:evenodd;stroke:#000000;stroke-width:2.0px;stroke-linecap:butt;stroke-linejoin:miter;stroke-opacity:1"/>
<path class="bond-6 atom-6 atom-7" d="M 186.9,73.1 L 199.8,57.6" style="fill:none;fill-rule:evenodd;stroke:#000000;stroke-width:2.0px;stroke-linecap:butt;stroke-linejoin:miter;stroke-opacity:1"/>
<path class="bond-6 atom-6 atom-7" d="M 199.8,57.6 L 212.8,42.0" style="fill:none;fill-rule:evenodd;stroke:#FF0000;stroke-width:2.0px;stroke-linecap:butt;stroke-linejoin:miter;stroke-opacity:1"/>
<path class="bond-6 atom-6 atom-7" d="M 180.9,68.9 L 194.3,52.9" style="fill:none;fill-rule:evenodd;stroke:#000000;stroke-width:2.0px;stroke-linecap:butt;stroke-linejoin:miter;stroke-opacity:1"/>
<path class="bond-6 atom-6 atom-7" d="M 194.3,52.9 L 207.3,37.4" style="fill:none;fill-rule:evenodd;stroke:#FF0000;stroke-width:2.0px;stroke-linecap:butt;stroke-linejoin:miter;stroke-opacity:1"/>
<path class="bond-7 atom-6 atom-8" d="M 185.1,69.6 L 191.2,81.7" style="fill:none;fill-rule:evenodd;stroke:#000000;stroke-width:2.0px;stroke-linecap:butt;stroke-linejoin:miter;stroke-opacity:1"/>
<path class="bond-7 atom-6 atom-8" d="M 191.2,81.7 L 197.4,93.7" style="fill:none;fill-rule:evenodd;stroke:#FF0000;stroke-width:2.0px;stroke-linecap:butt;stroke-linejoin:miter;stroke-opacity:1"/>
<path class="bond-8 atom-3 atom-9" d="M 102.5,99.9 L 141.4,132.5" style="fill:none;fill-rule:evenodd;stroke:#000000;stroke-width:2.0px;stroke-linecap:butt;stroke-linejoin:miter;stroke-opacity:1"/>
<path class="bond-9 atom-9 atom-10" d="M 138.2,129.8 L 134.5,151.4" style="fill:none;fill-rule:evenodd;stroke:#000000;stroke-width:2.0px;stroke-linecap:butt;stroke-linejoin:miter;stroke-opacity:1"/>
<path class="bond-9 atom-9 atom-10" d="M 134.5,151.4 L 130.7,173.0" style="fill:none;fill-rule:evenodd;stroke:#FF0000;stroke-width:2.0px;stroke-linecap:butt;stroke-linejoin:miter;stroke-opacity:1"/>
<path class="bond-9 atom-9 atom-10" d="M 145.3,131.6 L 141.6,152.6" style="fill:none;fill-rule:evenodd;stroke:#000000;stroke-width:2.0px;stroke-linecap:butt;stroke-linejoin:miter;stroke-opacity:1"/>
<path class="bond-9 atom-9 atom-10" d="M 141.6,152.6 L 137.8,174.3" style="fill:none;fill-rule:evenodd;stroke:#FF0000;stroke-width:2.0px;stroke-linecap:butt;stroke-linejoin:miter;stroke-opacity:1"/>
<path class="bond-10 atom-9 atom-11" d="M 141.4,132.5 L 155.4,129.2" style="fill:none;fill-rule:evenodd;stroke:#000000;stroke-width:2.0px;stroke-linecap:butt;stroke-linejoin:miter;stroke-opacity:1"/>
<path class="bond-10 atom-9 atom-11" d="M 155.4,129.2 L 169.3,126.0" style="fill:none;fill-rule:evenodd;stroke:#FF0000;stroke-width:2.0px;stroke-linecap:butt;stroke-linejoin:miter;stroke-opacity:1"/>
<path d="M 133.4,62.8 L 135.0,60.9 L 137.5,61.3" style="fill:none;stroke:#000000;stroke-width:2.0px;stroke-linecap:butt;stroke-linejoin:miter;stroke-opacity:1;"/>
<path d="M 182.6,69.2 L 185.1,69.6 L 185.4,70.2" style="fill:none;stroke:#000000;stroke-width:2.0px;stroke-linecap:butt;stroke-linejoin:miter;stroke-opacity:1;"/>
<path d="M 139.5,130.8 L 141.4,132.5 L 142.1,132.3" style="fill:none;stroke:#000000;stroke-width:2.0px;stroke-linecap:butt;stroke-linejoin:miter;stroke-opacity:1;"/>
<path class="atom-2" d="M 65.6 17.3 Q 65.6 13.9, 67.3 11.9 Q 69.0 10.0, 72.2 10.0 Q 75.4 10.0, 77.1 11.9 Q 78.8 13.9, 78.8 17.3 Q 78.8 20.8, 77.0 22.8 Q 75.3 24.8, 72.2 24.8 Q 69.0 24.8, 67.3 22.8 Q 65.6 20.8, 65.6 17.3 M 72.2 23.1 Q 74.4 23.1, 75.5 21.7 Q 76.7 20.2, 76.7 17.3 Q 76.7 14.5, 75.5 13.1 Q 74.4 11.6, 72.2 11.6 Q 70.0 11.6, 68.8 13.0 Q 67.6 14.5, 67.6 17.3 Q 67.6 20.2, 68.8 21.7 Q 70.0 23.1, 72.2 23.1 " fill="#FF0000"/>
<path class="atom-2" d="M 81.0 10.2 L 83.0 10.2 L 83.0 16.3 L 90.3 16.3 L 90.3 10.2 L 92.3 10.2 L 92.3 24.5 L 90.3 24.5 L 90.3 17.9 L 83.0 17.9 L 83.0 24.5 L 81.0 24.5 L 81.0 10.2 " fill="#FF0000"/>
<path class="atom-7" d="M 211.0 30.7 Q 211.0 27.2, 212.7 25.3 Q 214.4 23.3, 217.6 23.3 Q 220.8 23.3, 222.5 25.3 Q 224.2 27.2, 224.2 30.7 Q 224.2 34.2, 222.5 36.1 Q 220.8 38.1, 217.6 38.1 Q 214.5 38.1, 212.7 36.1 Q 211.0 34.2, 211.0 30.7 M 217.6 36.5 Q 219.8 36.5, 221.0 35.0 Q 222.2 33.5, 222.2 30.7 Q 222.2 27.8, 221.0 26.4 Q 219.8 25.0, 217.6 25.0 Q 215.4 25.0, 214.2 26.4 Q 213.1 27.8, 213.1 30.7 Q 213.1 33.6, 214.2 35.0 Q 215.4 36.5, 217.6 36.5 " fill="#FF0000"/>
<path class="atom-8" d="M 195.3 102.6 Q 195.3 99.2, 197.1 97.2 Q 198.8 95.3, 202.0 95.3 Q 205.1 95.3, 206.9 97.2 Q 208.6 99.2, 208.6 102.6 Q 208.6 106.1, 206.8 108.1 Q 205.1 110.1, 202.0 110.1 Q 198.8 110.1, 197.1 108.1 Q 195.3 106.1, 195.3 102.6 M 202.0 108.4 Q 204.1 108.4, 205.3 107.0 Q 206.5 105.5, 206.5 102.6 Q 206.5 99.8, 205.3 98.4 Q 204.1 96.9, 202.0 96.9 Q 199.8 96.9, 198.6 98.3 Q 197.4 99.8, 197.4 102.6 Q 197.4 105.5, 198.6 107.0 Q 199.8 108.4, 202.0 108.4 " fill="#FF0000"/>
<path class="atom-8" d="M 210.8 95.5 L 212.7 95.5 L 212.7 101.6 L 220.1 101.6 L 220.1 95.5 L 222.1 95.5 L 222.1 109.8 L 220.1 109.8 L 220.1 103.2 L 212.7 103.2 L 212.7 109.8 L 210.8 109.8 L 210.8 95.5 " fill="#FF0000"/>
<path class="atom-10" d="M 126.1 182.5 Q 126.1 179.1, 127.8 177.2 Q 129.5 175.2, 132.7 175.2 Q 135.9 175.2, 137.6 177.2 Q 139.3 179.1, 139.3 182.5 Q 139.3 186.0, 137.6 188.0 Q 135.9 190.0, 132.7 190.0 Q 129.6 190.0, 127.8 188.0 Q 126.1 186.1, 126.1 182.5 M 132.7 188.4 Q 134.9 188.4, 136.1 186.9 Q 137.3 185.4, 137.3 182.5 Q 137.3 179.7, 136.1 178.3 Q 134.9 176.9, 132.7 176.9 Q 130.5 176.9, 129.3 178.3 Q 128.2 179.7, 128.2 182.5 Q 128.2 185.4, 129.3 186.9 Q 130.5 188.4, 132.7 188.4 " fill="#FF0000"/>
<path class="atom-11" d="M 170.9 124.1 Q 170.9 120.6, 172.6 118.7 Q 174.3 116.8, 177.5 116.8 Q 180.7 116.8, 182.4 118.7 Q 184.1 120.6, 184.1 124.1 Q 184.1 127.6, 182.4 129.6 Q 180.7 131.5, 177.5 131.5 Q 174.3 131.5, 172.6 129.6 Q 170.9 127.6, 170.9 124.1 M 177.5 129.9 Q 179.7 129.9, 180.9 128.5 Q 182.1 127.0, 182.1 124.1 Q 182.1 121.3, 180.9 119.8 Q 179.7 118.4, 177.5 118.4 Q 175.3 118.4, 174.1 119.8 Q 172.9 121.2, 172.9 124.1 Q 172.9 127.0, 174.1 128.5 Q 175.3 129.9, 177.5 129.9 " fill="#FF0000"/>
<path class="atom-11" d="M 186.3 116.9 L 188.3 116.9 L 188.3 123.0 L 195.7 123.0 L 195.7 116.9 L 197.6 116.9 L 197.6 131.3 L 195.7 131.3 L 195.7 124.7 L 188.3 124.7 L 188.3 131.3 L 186.3 131.3 L 186.3 116.9 " fill="#FF0000"/>
</g>
  </g>
</svg>
