<?xml version='1.0' encoding='ASCII' standalone='yes'?>
<svg xmlns="http://www.w3.org/2000/svg" xmlns:xlink="http://www.w3.org/1999/xlink" version="1.1" width="856.0px" viewBox="0 0 856.0 200.0" height="200.0px">
  <g>
    <g transform="translate(0, 0) scale(1 1) "><!-- END OF HEADER -->
<rect style="opacity:1.0;fill:#FFFFFF;stroke:none" width="260.0" height="200.0" x="0.0" y="0.0"> </rect>
<path class="bond-0 atom-0 atom-1" d="M 236.7,63.7 L 208.0,83.6" style="fill:none;fill-rule:evenodd;stroke:#000000;stroke-width:2.0px;stroke-linecap:butt;stroke-linejoin:miter;stroke-opacity:1"/>
<path class="bond-1 atom-1 atom-2" d="M 208.0,83.6 L 176.5,68.7" style="fill:none;fill-rule:evenodd;stroke:#000000;stroke-width:2.0px;stroke-linecap:butt;stroke-linejoin:miter;stroke-opacity:1"/>
<path class="bond-2 atom-2 atom-3" d="M 176.5,68.7 L 165.0,76.6" style="fill:none;fill-rule:evenodd;stroke:#000000;stroke-width:2.0px;stroke-linecap:butt;stroke-linejoin:miter;stroke-opacity:1"/>
<path class="bond-2 atom-2 atom-3" d="M 165.0,76.6 L 153.5,84.6" style="fill:none;fill-rule:evenodd;stroke:#FF0000;stroke-width:2.0px;stroke-linecap:butt;stroke-linejoin:miter;stroke-opacity:1"/>
<path class="bond-3 atom-3 atom-4" d="M 142.1,85.8 L 129.2,79.7" style="fill:none;fill-rule:evenodd;stroke:#FF0000;stroke-width:2.0px;stroke-linecap:butt;stroke-linejoin:miter;stroke-opacity:1"/>
<path class="bond-3 atom-3 atom-4" d="M 129.2,79.7 L 116.2,73.6" style="fill:none;fill-rule:evenodd;stroke:#000000;stroke-width:2.0px;stroke-linecap:butt;stroke-linejoin:miter;stroke-opacity:1"/>
<path class="bond-4 atom-4 atom-5" d="M 119.0,74.9 L 117.7,59.9" style="fill:none;fill-rule:evenodd;stroke:#000000;stroke-width:2.0px;stroke-linecap:butt;stroke-linejoin:miter;stroke-opacity:1"/>
<path class="bond-4 atom-4 atom-5" d="M 117.7,59.9 L 116.5,44.9" style="fill:none;fill-rule:evenodd;stroke:#FF0000;stroke-width:2.0px;stroke-linecap:butt;stroke-linejoin:miter;stroke-opacity:1"/>
<path class="bond-4 atom-4 atom-5" d="M 113.7,75.3 L 112.5,60.4" style="fill:none;fill-rule:evenodd;stroke:#000000;stroke-width:2.0px;stroke-linecap:butt;stroke-linejoin:miter;stroke-opacity:1"/>
<path class="bond-4 atom-4 atom-5" d="M 112.5,60.4 L 111.3,45.4" style="fill:none;fill-rule:evenodd;stroke:#FF0000;stroke-width:2.0px;stroke-linecap:butt;stroke-linejoin:miter;stroke-opacity:1"/>
<path class="bond-5 atom-4 atom-6" d="M 116.2,73.6 L 87.5,93.5" style="fill:none;fill-rule:evenodd;stroke:#000000;stroke-width:2.0px;stroke-linecap:butt;stroke-linejoin:miter;stroke-opacity:1"/>
<path class="bond-6 atom-6 atom-7" d="M 87.5,93.5 L 67.7,64.8" style="fill:none;fill-rule:evenodd;stroke:#000000;stroke-width:2.0px;stroke-linecap:butt;stroke-linejoin:miter;stroke-opacity:1"/>
<path class="bond-7 atom-6 atom-8" d="M 87.5,93.5 L 107.4,122.2" style="fill:none;fill-rule:evenodd;stroke:#000000;stroke-width:2.0px;stroke-linecap:butt;stroke-linejoin:miter;stroke-opacity:1"/>
<path class="bond-8 atom-6 atom-9" d="M 87.5,93.5 L 58.9,113.4" style="fill:none;fill-rule:evenodd;stroke:#000000;stroke-width:2.0px;stroke-linecap:butt;stroke-linejoin:miter;stroke-opacity:1"/>
<path class="bond-9 atom-9 atom-10" d="M 58.9,113.4 L 61.7,148.2" style="fill:none;fill-rule:evenodd;stroke:#000000;stroke-width:2.0px;stroke-linecap:butt;stroke-linejoin:miter;stroke-opacity:1"/>
<path class="bond-10 atom-9 atom-11" d="M 58.9,113.4 L 45.9,107.3" style="fill:none;fill-rule:evenodd;stroke:#000000;stroke-width:2.0px;stroke-linecap:butt;stroke-linejoin:miter;stroke-opacity:1"/>
<path class="bond-10 atom-9 atom-11" d="M 45.9,107.3 L 33.0,101.2" style="fill:none;fill-rule:evenodd;stroke:#FF0000;stroke-width:2.0px;stroke-linecap:butt;stroke-linejoin:miter;stroke-opacity:1"/>
<path class="bond-11 atom-1 atom-12" d="M 208.0,83.6 L 210.9,118.3" style="fill:none;fill-rule:evenodd;stroke:#000000;stroke-width:2.0px;stroke-linecap:butt;stroke-linejoin:miter;stroke-opacity:1"/>
<path class="bond-12 atom-12 atom-13" d="M 208.4,120.1 L 222.0,126.5" style="fill:none;fill-rule:evenodd;stroke:#000000;stroke-width:2.0px;stroke-linecap:butt;stroke-linejoin:miter;stroke-opacity:1"/>
<path class="bond-12 atom-12 atom-13" d="M 222.0,126.5 L 235.7,132.9" style="fill:none;fill-rule:evenodd;stroke:#FF0000;stroke-width:2.0px;stroke-linecap:butt;stroke-linejoin:miter;stroke-opacity:1"/>
<path class="bond-12 atom-12 atom-13" d="M 210.7,115.3 L 224.3,121.8" style="fill:none;fill-rule:evenodd;stroke:#000000;stroke-width:2.0px;stroke-linecap:butt;stroke-linejoin:miter;stroke-opacity:1"/>
<path class="bond-12 atom-12 atom-13" d="M 224.3,121.8 L 237.9,128.2" style="fill:none;fill-rule:evenodd;stroke:#FF0000;stroke-width:2.0px;stroke-linecap:butt;stroke-linejoin:miter;stroke-opacity:1"/>
<path class="bond-13 atom-12 atom-14" d="M 210.9,118.3 L 199.4,126.3" style="fill:none;fill-rule:evenodd;stroke:#000000;stroke-width:2.0px;stroke-linecap:butt;stroke-linejoin:miter;stroke-opacity:1"/>
<path class="bond-13 atom-12 atom-14" d="M 199.4,126.3 L 187.9,134.3" style="fill:none;fill-rule:evenodd;stroke:#FF0000;stroke-width:2.0px;stroke-linecap:butt;stroke-linejoin:miter;stroke-opacity:1"/>
<path d="M 178.1,69.4 L 176.5,68.7 L 175.9,69.1" style="fill:none;stroke:#000000;stroke-width:2.0px;stroke-linecap:butt;stroke-linejoin:miter;stroke-opacity:1;"/>
<path d="M 116.9,73.9 L 116.2,73.6 L 114.8,74.6" style="fill:none;stroke:#000000;stroke-width:2.0px;stroke-linecap:butt;stroke-linejoin:miter;stroke-opacity:1;"/>
<path d="M 210.8,116.6 L 210.9,118.3 L 210.3,118.7" style="fill:none;stroke:#000000;stroke-width:2.0px;stroke-linecap:butt;stroke-linejoin:miter;stroke-opacity:1;"/>
<path class="atom-3" d="M 143.3 88.6 Q 143.3 86.2, 144.4 84.9 Q 145.6 83.5, 147.8 83.5 Q 150.0 83.5, 151.2 84.9 Q 152.3 86.2, 152.3 88.6 Q 152.3 91.0, 151.1 92.3 Q 150.0 93.7, 147.8 93.7 Q 145.6 93.7, 144.4 92.3 Q 143.3 91.0, 143.3 88.6 M 147.8 92.6 Q 149.3 92.6, 150.1 91.6 Q 150.9 90.5, 150.9 88.6 Q 150.9 86.6, 150.1 85.6 Q 149.3 84.6, 147.8 84.6 Q 146.3 84.6, 145.5 85.6 Q 144.6 86.6, 144.6 88.6 Q 144.6 90.6, 145.5 91.6 Q 146.3 92.6, 147.8 92.6 " fill="#FF0000"/>
<path class="atom-5" d="M 108.8 38.9 Q 108.8 36.5, 110.0 35.2 Q 111.2 33.8, 113.4 33.8 Q 115.6 33.8, 116.7 35.2 Q 117.9 36.5, 117.9 38.9 Q 117.9 41.3, 116.7 42.6 Q 115.5 44.0, 113.4 44.0 Q 111.2 44.0, 110.0 42.6 Q 108.8 41.3, 108.8 38.9 M 113.4 42.9 Q 114.9 42.9, 115.7 41.9 Q 116.5 40.9, 116.5 38.9 Q 116.5 36.9, 115.7 35.9 Q 114.9 35.0, 113.4 35.0 Q 111.9 35.0, 111.0 35.9 Q 110.2 36.9, 110.2 38.9 Q 110.2 40.9, 111.0 41.9 Q 111.9 42.9, 113.4 42.9 " fill="#FF0000"/>
<path class="atom-11" d="M 13.0 93.6 L 14.3 93.6 L 14.3 97.8 L 19.4 97.8 L 19.4 93.6 L 20.7 93.6 L 20.7 103.5 L 19.4 103.5 L 19.4 98.9 L 14.3 98.9 L 14.3 103.5 L 13.0 103.5 L 13.0 93.6 " fill="#FF0000"/>
<path class="atom-11" d="M 22.8 98.5 Q 22.8 96.1, 23.9 94.8 Q 25.1 93.5, 27.3 93.5 Q 29.5 93.5, 30.7 94.8 Q 31.8 96.1, 31.8 98.5 Q 31.8 100.9, 30.6 102.3 Q 29.5 103.6, 27.3 103.6 Q 25.1 103.6, 23.9 102.3 Q 22.8 100.9, 22.8 98.5 M 27.3 102.5 Q 28.8 102.5, 29.6 101.5 Q 30.4 100.5, 30.4 98.5 Q 30.4 96.6, 29.6 95.6 Q 28.8 94.6, 27.3 94.6 Q 25.8 94.6, 25.0 95.6 Q 24.2 96.5, 24.2 98.5 Q 24.2 100.5, 25.0 101.5 Q 25.8 102.5, 27.3 102.5 " fill="#FF0000"/>
<path class="atom-13" d="M 237.9 133.3 Q 237.9 130.9, 239.1 129.6 Q 240.3 128.3, 242.5 128.3 Q 244.7 128.3, 245.8 129.6 Q 247.0 130.9, 247.0 133.3 Q 247.0 135.7, 245.8 137.0 Q 244.6 138.4, 242.5 138.4 Q 240.3 138.4, 239.1 137.0 Q 237.9 135.7, 237.9 133.3 M 242.5 137.3 Q 244.0 137.3, 244.8 136.3 Q 245.6 135.3, 245.6 133.3 Q 245.6 131.3, 244.8 130.4 Q 244.0 129.4, 242.5 129.4 Q 241.0 129.4, 240.1 130.3 Q 239.3 131.3, 239.3 133.3 Q 239.3 135.3, 240.1 136.3 Q 241.0 137.3, 242.5 137.3 " fill="#FF0000"/>
<path class="atom-14" d="M 167.9 133.3 L 169.3 133.3 L 169.3 137.5 L 174.3 137.5 L 174.3 133.3 L 175.7 133.3 L 175.7 143.2 L 174.3 143.2 L 174.3 138.7 L 169.3 138.7 L 169.3 143.2 L 167.9 143.2 L 167.9 133.3 " fill="#FF0000"/>
<path class="atom-14" d="M 177.7 138.2 Q 177.7 135.9, 178.9 134.5 Q 180.0 133.2, 182.2 133.2 Q 184.4 133.2, 185.6 134.5 Q 186.8 135.9, 186.8 138.2 Q 186.8 140.6, 185.6 142.0 Q 184.4 143.4, 182.2 143.4 Q 180.0 143.4, 178.9 142.0 Q 177.7 140.7, 177.7 138.2 M 182.2 142.3 Q 183.7 142.3, 184.5 141.2 Q 185.4 140.2, 185.4 138.2 Q 185.4 136.3, 184.5 135.3 Q 183.7 134.3, 182.2 134.3 Q 180.7 134.3, 179.9 135.3 Q 179.1 136.3, 179.1 138.2 Q 179.1 140.2, 179.9 141.2 Q 180.7 142.3, 182.2 142.3 " fill="#FF0000"/>
<path class="legend" d="M 121.5 181.9 Q 121.5 179.6, 122.2 177.7 Q 122.8 175.8, 124.1 173.8 L 125.0 174.4 Q 124.0 176.3, 123.4 178.0 Q 122.9 179.7, 122.9 181.9 Q 122.9 184.0, 123.4 185.8 Q 124.0 187.5, 125.0 189.4 L 124.1 190.0 Q 122.8 188.0, 122.2 186.1 Q 121.5 184.2, 121.5 181.9 " fill="#000000"/>
<path class="legend" d="M 125.9 177.3 Q 126.4 176.2, 127.3 175.6 Q 128.3 175.0, 129.7 175.0 Q 131.4 175.0, 132.4 175.9 Q 133.3 176.8, 133.3 178.5 Q 133.3 180.2, 132.1 181.7 Q 130.9 183.3, 128.3 185.2 L 133.5 185.2 L 133.5 186.4 L 125.9 186.4 L 125.9 185.4 Q 128.0 183.9, 129.3 182.8 Q 130.5 181.6, 131.1 180.6 Q 131.7 179.6, 131.7 178.6 Q 131.7 177.5, 131.2 176.9 Q 130.7 176.3, 129.7 176.3 Q 128.8 176.3, 128.2 176.6 Q 127.6 177.0, 127.2 177.8 L 125.9 177.3 " fill="#000000"/>
<path class="legend" d="M 138.5 181.9 Q 138.5 184.2, 137.8 186.1 Q 137.2 188.0, 135.9 190.0 L 135.0 189.4 Q 136.0 187.5, 136.5 185.8 Q 137.1 184.0, 137.1 181.9 Q 137.1 179.7, 136.5 178.0 Q 136.0 176.3, 135.0 174.4 L 135.9 173.8 Q 137.2 175.8, 137.8 177.7 Q 138.5 179.6, 138.5 181.9 " fill="#000000"/>
</g>
    <g transform="translate(260.0, 0) scale(1 1) "><line x1="5" y1="100" x2="35" y2="100" style="stroke:rgb(0,0,0);stroke-width:2"/>
  <line x1="34" y1="100" x2="29" y2="95" style="stroke:rgb(0,0,0);stroke-width:2"/>
  <line x1="34" y1="100" x2="29" y2="105" style="stroke:rgb(0,0,0);stroke-width:2"/>
</g>
    <g transform="translate(300.0, 0) scale(1 1) "><!-- END OF HEADER -->
<rect style="opacity:1.0;fill:#FFFFFF;stroke:none" width="276.0" height="200.0" x="0.0" y="0.0"> </rect>
<path class="bond-0 atom-0 atom-1" d="M 248.8,67.6 L 221.0,88.5" style="fill:none;fill-rule:evenodd;stroke:#000000;stroke-width:2.0px;stroke-linecap:butt;stroke-linejoin:miter;stroke-opacity:1"/>
<path class="bond-1 atom-1 atom-2" d="M 221.0,88.5 L 189.0,75.0" style="fill:none;fill-rule:evenodd;stroke:#000000;stroke-width:2.0px;stroke-linecap:butt;stroke-linejoin:miter;stroke-opacity:1"/>
<path class="bond-2 atom-2 atom-3" d="M 189.0,75.0 L 178.0,83.3" style="fill:none;fill-rule:evenodd;stroke:#000000;stroke-width:2.0px;stroke-linecap:butt;stroke-linejoin:miter;stroke-opacity:1"/>
<path class="bond-2 atom-2 atom-3" d="M 178.0,83.3 L 166.9,91.6" style="fill:none;fill-rule:evenodd;stroke:#FF0000;stroke-width:2.0px;stroke-linecap:butt;stroke-linejoin:miter;stroke-opacity:1"/>
<path class="bond-3 atom-3 atom-4" d="M 155.6,93.5 L 142.4,87.9" style="fill:none;fill-rule:evenodd;stroke:#FF0000;stroke-width:2.0px;stroke-linecap:butt;stroke-linejoin:miter;stroke-opacity:1"/>
<path class="bond-3 atom-3 atom-4" d="M 142.4,87.9 L 129.3,82.4" style="fill:none;fill-rule:evenodd;stroke:#000000;stroke-width:2.0px;stroke-linecap:butt;stroke-linejoin:miter;stroke-opacity:1"/>
<path class="bond-4 atom-4 atom-5" d="M 132.0,83.5 L 130.2,68.7" style="fill:none;fill-rule:evenodd;stroke:#000000;stroke-width:2.0px;stroke-linecap:butt;stroke-linejoin:miter;stroke-opacity:1"/>
<path class="bond-4 atom-4 atom-5" d="M 130.2,68.7 L 128.4,53.8" style="fill:none;fill-rule:evenodd;stroke:#FF0000;stroke-width:2.0px;stroke-linecap:butt;stroke-linejoin:miter;stroke-opacity:1"/>
<path class="bond-4 atom-4 atom-5" d="M 126.8,84.2 L 125.0,69.3" style="fill:none;fill-rule:evenodd;stroke:#000000;stroke-width:2.0px;stroke-linecap:butt;stroke-linejoin:miter;stroke-opacity:1"/>
<path class="bond-4 atom-4 atom-5" d="M 125.0,69.3 L 123.2,54.5" style="fill:none;fill-rule:evenodd;stroke:#FF0000;stroke-width:2.0px;stroke-linecap:butt;stroke-linejoin:miter;stroke-opacity:1"/>
<path class="bond-5 atom-4 atom-6" d="M 129.3,82.4 L 101.5,103.3" style="fill:none;fill-rule:evenodd;stroke:#000000;stroke-width:2.0px;stroke-linecap:butt;stroke-linejoin:miter;stroke-opacity:1"/>
<path class="bond-6 atom-6 atom-7" d="M 101.5,103.3 L 84.1,73.2" style="fill:none;fill-rule:evenodd;stroke:#000000;stroke-width:2.0px;stroke-linecap:butt;stroke-linejoin:miter;stroke-opacity:1"/>
<path class="bond-7 atom-6 atom-8" d="M 101.5,103.3 L 122.4,131.0" style="fill:none;fill-rule:evenodd;stroke:#000000;stroke-width:2.0px;stroke-linecap:butt;stroke-linejoin:miter;stroke-opacity:1"/>
<path class="bond-8 atom-6 atom-9" d="M 101.5,103.3 L 73.8,124.2" style="fill:none;fill-rule:evenodd;stroke:#000000;stroke-width:2.0px;stroke-linecap:butt;stroke-linejoin:miter;stroke-opacity:1"/>
<path class="bond-9 atom-9 atom-10" d="M 73.8,124.2 L 46.0,145.2" style="fill:none;fill-rule:evenodd;stroke:#000000;stroke-width:2.0px;stroke-linecap:butt;stroke-linejoin:miter;stroke-opacity:1"/>
<path class="bond-10 atom-9 atom-11" d="M 73.8,124.2 L 81.9,135.0" style="fill:none;fill-rule:evenodd;stroke:#000000;stroke-width:2.0px;stroke-linecap:butt;stroke-linejoin:miter;stroke-opacity:1"/>
<path class="bond-10 atom-9 atom-11" d="M 81.9,135.0 L 90.1,145.9" style="fill:none;fill-rule:evenodd;stroke:#FF0000;stroke-width:2.0px;stroke-linecap:butt;stroke-linejoin:miter;stroke-opacity:1"/>
<path class="bond-11 atom-9 atom-12" d="M 73.8,124.2 L 52.8,96.5" style="fill:none;fill-rule:evenodd;stroke:#000000;stroke-width:2.0px;stroke-linecap:butt;stroke-linejoin:miter;stroke-opacity:1"/>
<path class="bond-12 atom-12 atom-13" d="M 53.6,93.8 L 38.6,95.6" style="fill:none;fill-rule:evenodd;stroke:#000000;stroke-width:2.0px;stroke-linecap:butt;stroke-linejoin:miter;stroke-opacity:1"/>
<path class="bond-12 atom-12 atom-13" d="M 38.6,95.6 L 23.7,97.5" style="fill:none;fill-rule:evenodd;stroke:#FF0000;stroke-width:2.0px;stroke-linecap:butt;stroke-linejoin:miter;stroke-opacity:1"/>
<path class="bond-12 atom-12 atom-13" d="M 54.6,98.9 L 39.3,100.8" style="fill:none;fill-rule:evenodd;stroke:#000000;stroke-width:2.0px;stroke-linecap:butt;stroke-linejoin:miter;stroke-opacity:1"/>
<path class="bond-12 atom-12 atom-13" d="M 39.3,100.8 L 24.3,102.6" style="fill:none;fill-rule:evenodd;stroke:#FF0000;stroke-width:2.0px;stroke-linecap:butt;stroke-linejoin:miter;stroke-opacity:1"/>
<path class="bond-13 atom-12 atom-14" d="M 52.8,96.5 L 56.7,82.9" style="fill:none;fill-rule:evenodd;stroke:#000000;stroke-width:2.0px;stroke-linecap:butt;stroke-linejoin:miter;stroke-opacity:1"/>
<path class="bond-13 atom-12 atom-14" d="M 56.7,82.9 L 60.6,69.3" style="fill:none;fill-rule:evenodd;stroke:#FF0000;stroke-width:2.0px;stroke-linecap:butt;stroke-linejoin:miter;stroke-opacity:1"/>
<path class="bond-14 atom-1 atom-15" d="M 221.0,88.5 L 225.3,123.0" style="fill:none;fill-rule:evenodd;stroke:#000000;stroke-width:2.0px;stroke-linecap:butt;stroke-linejoin:miter;stroke-opacity:1"/>
<path class="bond-15 atom-15 atom-16" d="M 222.9,124.9 L 236.7,130.7" style="fill:none;fill-rule:evenodd;stroke:#000000;stroke-width:2.0px;stroke-linecap:butt;stroke-linejoin:miter;stroke-opacity:1"/>
<path class="bond-15 atom-15 atom-16" d="M 236.7,130.7 L 250.6,136.6" style="fill:none;fill-rule:evenodd;stroke:#FF0000;stroke-width:2.0px;stroke-linecap:butt;stroke-linejoin:miter;stroke-opacity:1"/>
<path class="bond-15 atom-15 atom-16" d="M 224.9,120.1 L 238.8,125.9" style="fill:none;fill-rule:evenodd;stroke:#000000;stroke-width:2.0px;stroke-linecap:butt;stroke-linejoin:miter;stroke-opacity:1"/>
<path class="bond-15 atom-15 atom-16" d="M 238.8,125.9 L 252.6,131.8" style="fill:none;fill-rule:evenodd;stroke:#FF0000;stroke-width:2.0px;stroke-linecap:butt;stroke-linejoin:miter;stroke-opacity:1"/>
<path class="bond-16 atom-15 atom-17" d="M 225.3,123.0 L 214.2,131.4" style="fill:none;fill-rule:evenodd;stroke:#000000;stroke-width:2.0px;stroke-linecap:butt;stroke-linejoin:miter;stroke-opacity:1"/>
<path class="bond-16 atom-15 atom-17" d="M 214.2,131.4 L 203.2,139.7" style="fill:none;fill-rule:evenodd;stroke:#FF0000;stroke-width:2.0px;stroke-linecap:butt;stroke-linejoin:miter;stroke-opacity:1"/>
<path d="M 190.6,75.7 L 189.0,75.0 L 188.5,75.4" style="fill:none;stroke:#000000;stroke-width:2.0px;stroke-linecap:butt;stroke-linejoin:miter;stroke-opacity:1;"/>
<path d="M 129.9,82.6 L 129.3,82.4 L 127.9,83.4" style="fill:none;stroke:#000000;stroke-width:2.0px;stroke-linecap:butt;stroke-linejoin:miter;stroke-opacity:1;"/>
<path d="M 53.9,97.9 L 52.8,96.5 L 53.0,95.8" style="fill:none;stroke:#000000;stroke-width:2.0px;stroke-linecap:butt;stroke-linejoin:miter;stroke-opacity:1;"/>
<path d="M 225.1,121.3 L 225.3,123.0 L 224.7,123.5" style="fill:none;stroke:#000000;stroke-width:2.0px;stroke-linecap:butt;stroke-linejoin:miter;stroke-opacity:1;"/>
<path class="atom-3" d="M 156.7 95.9 Q 156.7 93.6, 157.9 92.3 Q 159.1 90.9, 161.3 90.9 Q 163.4 90.9, 164.6 92.3 Q 165.8 93.6, 165.8 95.9 Q 165.8 98.3, 164.6 99.7 Q 163.4 101.1, 161.3 101.1 Q 159.1 101.1, 157.9 99.7 Q 156.7 98.4, 156.7 95.9 M 161.3 99.9 Q 162.8 99.9, 163.6 98.9 Q 164.4 97.9, 164.4 95.9 Q 164.4 94.0, 163.6 93.0 Q 162.8 92.1, 161.3 92.1 Q 159.8 92.1, 158.9 93.0 Q 158.1 94.0, 158.1 95.9 Q 158.1 97.9, 158.9 98.9 Q 159.8 99.9, 161.3 99.9 " fill="#FF0000"/>
<path class="atom-5" d="M 120.5 47.9 Q 120.5 45.5, 121.6 44.2 Q 122.8 42.9, 125.0 42.9 Q 127.2 42.9, 128.3 44.2 Q 129.5 45.5, 129.5 47.9 Q 129.5 50.3, 128.3 51.6 Q 127.1 53.0, 125.0 53.0 Q 122.8 53.0, 121.6 51.6 Q 120.5 50.3, 120.5 47.9 M 125.0 51.9 Q 126.5 51.9, 127.3 50.9 Q 128.1 49.9, 128.1 47.9 Q 128.1 46.0, 127.3 45.0 Q 126.5 44.0, 125.0 44.0 Q 123.5 44.0, 122.7 45.0 Q 121.9 45.9, 121.9 47.9 Q 121.9 49.9, 122.7 50.9 Q 123.5 51.9, 125.0 51.9 " fill="#FF0000"/>
<path class="atom-11" d="M 90.2 152.0 Q 90.2 149.6, 91.3 148.3 Q 92.5 147.0, 94.7 147.0 Q 96.9 147.0, 98.0 148.3 Q 99.2 149.6, 99.2 152.0 Q 99.2 154.4, 98.0 155.8 Q 96.9 157.1, 94.7 157.1 Q 92.5 157.1, 91.3 155.8 Q 90.2 154.4, 90.2 152.0 M 94.7 156.0 Q 96.2 156.0, 97.0 155.0 Q 97.8 154.0, 97.8 152.0 Q 97.8 150.1, 97.0 149.1 Q 96.2 148.1, 94.7 148.1 Q 93.2 148.1, 92.4 149.1 Q 91.6 150.1, 91.6 152.0 Q 91.6 154.0, 92.4 155.0 Q 93.2 156.0, 94.7 156.0 " fill="#FF0000"/>
<path class="atom-11" d="M 100.7 147.1 L 102.1 147.1 L 102.1 151.3 L 107.1 151.3 L 107.1 147.1 L 108.5 147.1 L 108.5 157.0 L 107.1 157.0 L 107.1 152.4 L 102.1 152.4 L 102.1 157.0 L 100.7 157.0 L 100.7 147.1 " fill="#FF0000"/>
<path class="atom-13" d="M 13.8 100.8 Q 13.8 98.4, 15.0 97.1 Q 16.1 95.8, 18.3 95.8 Q 20.5 95.8, 21.7 97.1 Q 22.8 98.4, 22.8 100.8 Q 22.8 103.2, 21.7 104.5 Q 20.5 105.9, 18.3 105.9 Q 16.1 105.9, 15.0 104.5 Q 13.8 103.2, 13.8 100.8 M 18.3 104.8 Q 19.8 104.8, 20.6 103.8 Q 21.4 102.8, 21.4 100.8 Q 21.4 98.8, 20.6 97.9 Q 19.8 96.9, 18.3 96.9 Q 16.8 96.9, 16.0 97.9 Q 15.2 98.8, 15.2 100.8 Q 15.2 102.8, 16.0 103.8 Q 16.8 104.8, 18.3 104.8 " fill="#FF0000"/>
<path class="atom-14" d="M 57.9 63.1 Q 57.9 60.7, 59.0 59.4 Q 60.2 58.1, 62.4 58.1 Q 64.6 58.1, 65.7 59.4 Q 66.9 60.7, 66.9 63.1 Q 66.9 65.5, 65.7 66.9 Q 64.5 68.2, 62.4 68.2 Q 60.2 68.2, 59.0 66.9 Q 57.9 65.5, 57.9 63.1 M 62.4 67.1 Q 63.9 67.1, 64.7 66.1 Q 65.5 65.1, 65.5 63.1 Q 65.5 61.2, 64.7 60.2 Q 63.9 59.2, 62.4 59.2 Q 60.9 59.2, 60.1 60.2 Q 59.2 61.2, 59.2 63.1 Q 59.2 65.1, 60.1 66.1 Q 60.9 67.1, 62.4 67.1 " fill="#FF0000"/>
<path class="atom-14" d="M 68.4 58.2 L 69.8 58.2 L 69.8 62.4 L 74.8 62.4 L 74.8 58.2 L 76.1 58.2 L 76.1 68.0 L 74.8 68.0 L 74.8 63.5 L 69.8 63.5 L 69.8 68.0 L 68.4 68.0 L 68.4 58.2 " fill="#FF0000"/>
<path class="atom-16" d="M 252.8 136.6 Q 252.8 134.3, 253.9 132.9 Q 255.1 131.6, 257.3 131.6 Q 259.5 131.6, 260.6 132.9 Q 261.8 134.3, 261.8 136.6 Q 261.8 139.0, 260.6 140.4 Q 259.4 141.7, 257.3 141.7 Q 255.1 141.7, 253.9 140.4 Q 252.8 139.0, 252.8 136.6 M 257.3 140.6 Q 258.8 140.6, 259.6 139.6 Q 260.4 138.6, 260.4 136.6 Q 260.4 134.7, 259.6 133.7 Q 258.8 132.7, 257.3 132.7 Q 255.8 132.7, 255.0 133.7 Q 254.2 134.7, 254.2 136.6 Q 254.2 138.6, 255.0 139.6 Q 255.8 140.6, 257.3 140.6 " fill="#FF0000"/>
<path class="atom-17" d="M 183.3 139.1 L 184.6 139.1 L 184.6 143.3 L 189.7 143.3 L 189.7 139.1 L 191.0 139.1 L 191.0 149.0 L 189.7 149.0 L 189.7 144.4 L 184.6 144.4 L 184.6 149.0 L 183.3 149.0 L 183.3 139.1 " fill="#FF0000"/>
<path class="atom-17" d="M 193.0 144.0 Q 193.0 141.6, 194.2 140.3 Q 195.3 139.0, 197.5 139.0 Q 199.7 139.0, 200.9 140.3 Q 202.0 141.6, 202.0 144.0 Q 202.0 146.4, 200.9 147.8 Q 199.7 149.1, 197.5 149.1 Q 195.4 149.1, 194.2 147.8 Q 193.0 146.4, 193.0 144.0 M 197.5 148.0 Q 199.0 148.0, 199.8 147.0 Q 200.7 146.0, 200.7 144.0 Q 200.7 142.1, 199.8 141.1 Q 199.0 140.1, 197.5 140.1 Q 196.0 140.1, 195.2 141.1 Q 194.4 142.1, 194.4 144.0 Q 194.4 146.0, 195.2 147.0 Q 196.0 148.0, 197.5 148.0 " fill="#FF0000"/>
</g>
    <g transform="translate(576.0, 0) scale(1 1) "><line x1="15" y1="100" x2="25" y2="100" style="stroke:rgb(0,0,0);stroke-width:2"/>
  <line x1="20" y1="95" x2="20" y2="105" style="stroke:rgb(0,0,0);stroke-width:2"/>
</g>
    <g transform="translate(616.0, 0) scale(1 1) "><!-- END OF HEADER -->
<rect style="opacity:1.0;fill:#FFFFFF;stroke:none" width="240.0" height="200.0" x="0.0" y="0.0"> </rect>
<path class="bond-0 atom-0 atom-1" d="M 12.0,90.8 L 43.3,78.9" style="fill:none;fill-rule:evenodd;stroke:#000000;stroke-width:2.0px;stroke-linecap:butt;stroke-linejoin:miter;stroke-opacity:1"/>
<path class="bond-1 atom-1 atom-2" d="M 43.3,78.9 L 69.2,100.1" style="fill:none;fill-rule:evenodd;stroke:#000000;stroke-width:2.0px;stroke-linecap:butt;stroke-linejoin:miter;stroke-opacity:1"/>
<path class="bond-2 atom-2 atom-3" d="M 69.2,100.1 L 82.1,95.2" style="fill:none;fill-rule:evenodd;stroke:#000000;stroke-width:2.0px;stroke-linecap:butt;stroke-linejoin:miter;stroke-opacity:1"/>
<path class="bond-2 atom-2 atom-3" d="M 82.1,95.2 L 95.0,90.3" style="fill:none;fill-rule:evenodd;stroke:#FF0000;stroke-width:2.0px;stroke-linecap:butt;stroke-linejoin:miter;stroke-opacity:1"/>
<path class="bond-3 atom-3 atom-4" d="M 105.9,92.7 L 116.1,101.0" style="fill:none;fill-rule:evenodd;stroke:#FF0000;stroke-width:2.0px;stroke-linecap:butt;stroke-linejoin:miter;stroke-opacity:1"/>
<path class="bond-3 atom-3 atom-4" d="M 116.1,101.0 L 126.3,109.4" style="fill:none;fill-rule:evenodd;stroke:#000000;stroke-width:2.0px;stroke-linecap:butt;stroke-linejoin:miter;stroke-opacity:1"/>
<path class="bond-4 atom-4 atom-5" d="M 124.1,107.6 L 121.8,121.8" style="fill:none;fill-rule:evenodd;stroke:#000000;stroke-width:2.0px;stroke-linecap:butt;stroke-linejoin:miter;stroke-opacity:1"/>
<path class="bond-4 atom-4 atom-5" d="M 121.8,121.8 L 119.4,136.1" style="fill:none;fill-rule:evenodd;stroke:#FF0000;stroke-width:2.0px;stroke-linecap:butt;stroke-linejoin:miter;stroke-opacity:1"/>
<path class="bond-4 atom-4 atom-5" d="M 129.0,108.4 L 126.7,122.6" style="fill:none;fill-rule:evenodd;stroke:#000000;stroke-width:2.0px;stroke-linecap:butt;stroke-linejoin:miter;stroke-opacity:1"/>
<path class="bond-4 atom-4 atom-5" d="M 126.7,122.6 L 124.4,136.9" style="fill:none;fill-rule:evenodd;stroke:#FF0000;stroke-width:2.0px;stroke-linecap:butt;stroke-linejoin:miter;stroke-opacity:1"/>
<path class="bond-5 atom-4 atom-6" d="M 126.3,109.4 L 157.6,97.5" style="fill:none;fill-rule:evenodd;stroke:#000000;stroke-width:2.0px;stroke-linecap:butt;stroke-linejoin:miter;stroke-opacity:1"/>
<path class="bond-6 atom-6 atom-7" d="M 157.6,97.5 L 169.5,128.8" style="fill:none;fill-rule:evenodd;stroke:#000000;stroke-width:2.0px;stroke-linecap:butt;stroke-linejoin:miter;stroke-opacity:1"/>
<path class="bond-7 atom-6 atom-8" d="M 157.6,97.5 L 145.8,66.3" style="fill:none;fill-rule:evenodd;stroke:#000000;stroke-width:2.0px;stroke-linecap:butt;stroke-linejoin:miter;stroke-opacity:1"/>
<path class="bond-8 atom-6 atom-9" d="M 157.6,97.5 L 188.9,85.7" style="fill:none;fill-rule:evenodd;stroke:#000000;stroke-width:2.0px;stroke-linecap:butt;stroke-linejoin:miter;stroke-opacity:1"/>
<path class="bond-9 atom-9 atom-10" d="M 188.9,85.7 L 194.2,52.7" style="fill:none;fill-rule:evenodd;stroke:#000000;stroke-width:2.0px;stroke-linecap:butt;stroke-linejoin:miter;stroke-opacity:1"/>
<path class="bond-10 atom-9 atom-11" d="M 188.9,85.7 L 199.1,94.0" style="fill:none;fill-rule:evenodd;stroke:#000000;stroke-width:2.0px;stroke-linecap:butt;stroke-linejoin:miter;stroke-opacity:1"/>
<path class="bond-10 atom-9 atom-11" d="M 199.1,94.0 L 209.3,102.4" style="fill:none;fill-rule:evenodd;stroke:#FF0000;stroke-width:2.0px;stroke-linecap:butt;stroke-linejoin:miter;stroke-opacity:1"/>
<path d="M 41.7,79.5 L 43.3,78.9 L 44.6,80.0" style="fill:none;stroke:#000000;stroke-width:2.0px;stroke-linecap:butt;stroke-linejoin:miter;stroke-opacity:1;"/>
<path d="M 67.9,99.0 L 69.2,100.1 L 69.8,99.8" style="fill:none;stroke:#000000;stroke-width:2.0px;stroke-linecap:butt;stroke-linejoin:miter;stroke-opacity:1;"/>
<path d="M 125.8,109.0 L 126.3,109.4 L 127.9,108.8" style="fill:none;stroke:#000000;stroke-width:2.0px;stroke-linecap:butt;stroke-linejoin:miter;stroke-opacity:1;"/>
<path class="atom-3" d="M 96.1 88.3 Q 96.1 86.0, 97.2 84.7 Q 98.3 83.4, 100.4 83.4 Q 102.5 83.4, 103.7 84.7 Q 104.8 86.0, 104.8 88.3 Q 104.8 90.6, 103.6 91.9 Q 102.5 93.2, 100.4 93.2 Q 98.3 93.2, 97.2 91.9 Q 96.1 90.6, 96.1 88.3 M 100.4 92.1 Q 101.9 92.1, 102.7 91.1 Q 103.4 90.2, 103.4 88.3 Q 103.4 86.4, 102.7 85.5 Q 101.9 84.5, 100.4 84.5 Q 99.0 84.5, 98.2 85.4 Q 97.4 86.4, 97.4 88.3 Q 97.4 90.2, 98.2 91.1 Q 99.0 92.1, 100.4 92.1 " fill="#FF0000"/>
<path class="atom-5" d="M 116.6 142.4 Q 116.6 140.1, 117.7 138.9 Q 118.9 137.6, 121.0 137.6 Q 123.1 137.6, 124.2 138.9 Q 125.3 140.1, 125.3 142.4 Q 125.3 144.7, 124.2 146.0 Q 123.0 147.3, 121.0 147.3 Q 118.9 147.3, 117.7 146.0 Q 116.6 144.7, 116.6 142.4 M 121.0 146.3 Q 122.4 146.3, 123.2 145.3 Q 124.0 144.3, 124.0 142.4 Q 124.0 140.6, 123.2 139.6 Q 122.4 138.7, 121.0 138.7 Q 119.5 138.7, 118.7 139.6 Q 118.0 140.5, 118.0 142.4 Q 118.0 144.3, 118.7 145.3 Q 119.5 146.3, 121.0 146.3 " fill="#FF0000"/>
<path class="atom-11" d="M 210.4 106.9 Q 210.4 104.6, 211.5 103.3 Q 212.7 102.0, 214.8 102.0 Q 216.9 102.0, 218.0 103.3 Q 219.1 104.6, 219.1 106.9 Q 219.1 109.2, 218.0 110.5 Q 216.8 111.8, 214.8 111.8 Q 212.7 111.8, 211.5 110.5 Q 210.4 109.2, 210.4 106.9 M 214.8 110.7 Q 216.2 110.7, 217.0 109.7 Q 217.8 108.8, 217.8 106.9 Q 217.8 105.0, 217.0 104.1 Q 216.2 103.1, 214.8 103.1 Q 213.3 103.1, 212.5 104.1 Q 211.8 105.0, 211.8 106.9 Q 211.8 108.8, 212.5 109.7 Q 213.3 110.7, 214.8 110.7 " fill="#FF0000"/>
<path class="atom-11" d="M 220.6 102.2 L 221.9 102.2 L 221.9 106.2 L 226.7 106.2 L 226.7 102.2 L 228.0 102.2 L 228.0 111.6 L 226.7 111.6 L 226.7 107.3 L 221.9 107.3 L 221.9 111.6 L 220.6 111.6 L 220.6 102.2 " fill="#FF0000"/>
</g>
  </g>
</svg>
