<?xml version='1.0' encoding='ASCII' standalone='yes'?>
<svg xmlns="http://www.w3.org/2000/svg" xmlns:xlink="http://www.w3.org/1999/xlink" version="1.1" width="931.0px" viewBox="0 0 931.0 200.0" height="200.0px">
  <g>
    <g transform="translate(0, 0) scale(1 1) "><!-- END OF HEADER -->
<rect style="opacity:1.0;fill:#FFFFFF;stroke:none" width="301.0" height="200.0" x="0.0" y="0.0"> </rect>
<path class="bond-0 atom-0 atom-1" d="M 18.8,114.6 L 54.9,112.0" style="fill:none;fill-rule:evenodd;stroke:#000000;stroke-width:2.0px;stroke-linecap:butt;stroke-linejoin:miter;stroke-opacity:1"/>
<path class="bond-1 atom-1 atom-2" d="M 54.9,112.0 L 57.5,148.2" style="fill:none;fill-rule:evenodd;stroke:#000000;stroke-width:2.0px;stroke-linecap:butt;stroke-linejoin:miter;stroke-opacity:1"/>
<path class="bond-2 atom-2 atom-3" d="M 57.5,148.2 L 70.8,154.6" style="fill:none;fill-rule:evenodd;stroke:#000000;stroke-width:2.0px;stroke-linecap:butt;stroke-linejoin:miter;stroke-opacity:1"/>
<path class="bond-2 atom-2 atom-3" d="M 70.8,154.6 L 84.2,161.1" style="fill:none;fill-rule:evenodd;stroke:#FF0000;stroke-width:2.0px;stroke-linecap:butt;stroke-linejoin:miter;stroke-opacity:1"/>
<path class="bond-3 atom-1 atom-4" d="M 54.9,112.0 L 91.0,109.4" style="fill:none;fill-rule:evenodd;stroke:#000000;stroke-width:2.0px;stroke-linecap:butt;stroke-linejoin:miter;stroke-opacity:1"/>
<path class="bond-4 atom-4 atom-5" d="M 91.0,109.4 L 106.9,76.9" style="fill:none;fill-rule:evenodd;stroke:#000000;stroke-width:2.0px;stroke-linecap:butt;stroke-linejoin:miter;stroke-opacity:1"/>
<path class="bond-5 atom-5 atom-6" d="M 106.9,76.9 L 143.0,74.3" style="fill:none;fill-rule:evenodd;stroke:#000000;stroke-width:2.0px;stroke-linecap:butt;stroke-linejoin:miter;stroke-opacity:1"/>
<path class="bond-6 atom-6 atom-7" d="M 143.0,74.3 L 140.4,38.2" style="fill:none;fill-rule:evenodd;stroke:#000000;stroke-width:2.0px;stroke-linecap:butt;stroke-linejoin:miter;stroke-opacity:1"/>
<path class="bond-7 atom-7 atom-8" d="M 140.4,38.2 L 152.5,30.0" style="fill:none;fill-rule:evenodd;stroke:#000000;stroke-width:2.0px;stroke-linecap:butt;stroke-linejoin:miter;stroke-opacity:1"/>
<path class="bond-7 atom-7 atom-8" d="M 152.5,30.0 L 164.5,21.9" style="fill:none;fill-rule:evenodd;stroke:#FF0000;stroke-width:2.0px;stroke-linecap:butt;stroke-linejoin:miter;stroke-opacity:1"/>
<path class="bond-8 atom-6 atom-9" d="M 143.0,74.3 L 179.1,71.7" style="fill:none;fill-rule:evenodd;stroke:#000000;stroke-width:2.0px;stroke-linecap:butt;stroke-linejoin:miter;stroke-opacity:1"/>
<path class="bond-9 atom-9 atom-10" d="M 179.1,71.7 L 199.4,101.7" style="fill:none;fill-rule:evenodd;stroke:#000000;stroke-width:2.0px;stroke-linecap:butt;stroke-linejoin:miter;stroke-opacity:1"/>
<path class="bond-10 atom-10 atom-11" d="M 199.4,101.7 L 235.6,99.1" style="fill:none;fill-rule:evenodd;stroke:#000000;stroke-width:2.0px;stroke-linecap:butt;stroke-linejoin:miter;stroke-opacity:1"/>
<path class="bond-11 atom-11 atom-12" d="M 235.6,99.1 L 271.7,96.5" style="fill:none;fill-rule:evenodd;stroke:#000000;stroke-width:2.0px;stroke-linecap:butt;stroke-linejoin:miter;stroke-opacity:1"/>
<path class="bond-12 atom-11 atom-13" d="M 235.6,99.1 L 233.0,63.0" style="fill:none;fill-rule:evenodd;stroke:#000000;stroke-width:2.0px;stroke-linecap:butt;stroke-linejoin:miter;stroke-opacity:1"/>
<path class="bond-13 atom-13 atom-14" d="M 233.0,63.0 L 245.0,54.8" style="fill:none;fill-rule:evenodd;stroke:#000000;stroke-width:2.0px;stroke-linecap:butt;stroke-linejoin:miter;stroke-opacity:1"/>
<path class="bond-13 atom-13 atom-14" d="M 245.0,54.8 L 257.1,46.7" style="fill:none;fill-rule:evenodd;stroke:#FF0000;stroke-width:2.0px;stroke-linecap:butt;stroke-linejoin:miter;stroke-opacity:1"/>
<path class="bond-14 atom-11 atom-15" d="M 235.6,99.1 L 238.1,135.2" style="fill:none;fill-rule:evenodd;stroke:#000000;stroke-width:2.0px;stroke-linecap:butt;stroke-linejoin:miter;stroke-opacity:1"/>
<path class="bond-15 atom-15 atom-16" d="M 237.9,132.1 L 225.2,140.7" style="fill:none;fill-rule:evenodd;stroke:#000000;stroke-width:2.0px;stroke-linecap:butt;stroke-linejoin:miter;stroke-opacity:1"/>
<path class="bond-15 atom-15 atom-16" d="M 225.2,140.7 L 212.5,149.3" style="fill:none;fill-rule:evenodd;stroke:#FF0000;stroke-width:2.0px;stroke-linecap:butt;stroke-linejoin:miter;stroke-opacity:1"/>
<path class="bond-15 atom-15 atom-16" d="M 241.0,136.6 L 228.3,145.2" style="fill:none;fill-rule:evenodd;stroke:#000000;stroke-width:2.0px;stroke-linecap:butt;stroke-linejoin:miter;stroke-opacity:1"/>
<path class="bond-15 atom-15 atom-16" d="M 228.3,145.2 L 215.6,153.8" style="fill:none;fill-rule:evenodd;stroke:#FF0000;stroke-width:2.0px;stroke-linecap:butt;stroke-linejoin:miter;stroke-opacity:1"/>
<path class="bond-16 atom-15 atom-17" d="M 238.1,135.2 L 251.5,141.7" style="fill:none;fill-rule:evenodd;stroke:#000000;stroke-width:2.0px;stroke-linecap:butt;stroke-linejoin:miter;stroke-opacity:1"/>
<path class="bond-16 atom-15 atom-17" d="M 251.5,141.7 L 264.8,148.2" style="fill:none;fill-rule:evenodd;stroke:#FF0000;stroke-width:2.0px;stroke-linecap:butt;stroke-linejoin:miter;stroke-opacity:1"/>
<path class="bond-17 atom-6 atom-18" d="M 143.0,74.3 L 145.6,110.4" style="fill:none;fill-rule:evenodd;stroke:#000000;stroke-width:2.0px;stroke-linecap:butt;stroke-linejoin:miter;stroke-opacity:1"/>
<path class="bond-18 atom-18 atom-19" d="M 145.4,107.3 L 132.7,115.9" style="fill:none;fill-rule:evenodd;stroke:#000000;stroke-width:2.0px;stroke-linecap:butt;stroke-linejoin:miter;stroke-opacity:1"/>
<path class="bond-18 atom-18 atom-19" d="M 132.7,115.9 L 120.0,124.5" style="fill:none;fill-rule:evenodd;stroke:#FF0000;stroke-width:2.0px;stroke-linecap:butt;stroke-linejoin:miter;stroke-opacity:1"/>
<path class="bond-18 atom-18 atom-19" d="M 148.4,111.8 L 135.7,120.4" style="fill:none;fill-rule:evenodd;stroke:#000000;stroke-width:2.0px;stroke-linecap:butt;stroke-linejoin:miter;stroke-opacity:1"/>
<path class="bond-18 atom-18 atom-19" d="M 135.7,120.4 L 123.0,129.0" style="fill:none;fill-rule:evenodd;stroke:#FF0000;stroke-width:2.0px;stroke-linecap:butt;stroke-linejoin:miter;stroke-opacity:1"/>
<path class="bond-19 atom-18 atom-20" d="M 145.6,110.4 L 158.9,116.9" style="fill:none;fill-rule:evenodd;stroke:#000000;stroke-width:2.0px;stroke-linecap:butt;stroke-linejoin:miter;stroke-opacity:1"/>
<path class="bond-19 atom-18 atom-20" d="M 158.9,116.9 L 172.3,123.4" style="fill:none;fill-rule:evenodd;stroke:#FF0000;stroke-width:2.0px;stroke-linecap:butt;stroke-linejoin:miter;stroke-opacity:1"/>
<path class="bond-20 atom-1 atom-21" d="M 54.9,112.0 L 52.3,75.9" style="fill:none;fill-rule:evenodd;stroke:#000000;stroke-width:2.0px;stroke-linecap:butt;stroke-linejoin:miter;stroke-opacity:1"/>
<path class="bond-21 atom-21 atom-22" d="M 54.9,74.1 L 40.9,67.3" style="fill:none;fill-rule:evenodd;stroke:#000000;stroke-width:2.0px;stroke-linecap:butt;stroke-linejoin:miter;stroke-opacity:1"/>
<path class="bond-21 atom-21 atom-22" d="M 40.9,67.3 L 26.8,60.5" style="fill:none;fill-rule:evenodd;stroke:#FF0000;stroke-width:2.0px;stroke-linecap:butt;stroke-linejoin:miter;stroke-opacity:1"/>
<path class="bond-21 atom-21 atom-22" d="M 52.6,79.0 L 38.5,72.2" style="fill:none;fill-rule:evenodd;stroke:#000000;stroke-width:2.0px;stroke-linecap:butt;stroke-linejoin:miter;stroke-opacity:1"/>
<path class="bond-21 atom-21 atom-22" d="M 38.5,72.2 L 24.5,65.4" style="fill:none;fill-rule:evenodd;stroke:#FF0000;stroke-width:2.0px;stroke-linecap:butt;stroke-linejoin:miter;stroke-opacity:1"/>
<path class="bond-22 atom-21 atom-23" d="M 52.3,75.9 L 64.4,67.7" style="fill:none;fill-rule:evenodd;stroke:#000000;stroke-width:2.0px;stroke-linecap:butt;stroke-linejoin:miter;stroke-opacity:1"/>
<path class="bond-22 atom-21 atom-23" d="M 64.4,67.7 L 76.4,59.6" style="fill:none;fill-rule:evenodd;stroke:#FF0000;stroke-width:2.0px;stroke-linecap:butt;stroke-linejoin:miter;stroke-opacity:1"/>
<path d="M 57.4,146.3 L 57.5,148.2 L 58.2,148.5" style="fill:none;stroke:#000000;stroke-width:2.0px;stroke-linecap:butt;stroke-linejoin:miter;stroke-opacity:1;"/>
<path d="M 89.2,109.6 L 91.0,109.4 L 91.8,107.8" style="fill:none;stroke:#000000;stroke-width:2.0px;stroke-linecap:butt;stroke-linejoin:miter;stroke-opacity:1;"/>
<path d="M 106.1,78.5 L 106.9,76.9 L 108.7,76.7" style="fill:none;stroke:#000000;stroke-width:2.0px;stroke-linecap:butt;stroke-linejoin:miter;stroke-opacity:1;"/>
<path d="M 140.5,40.0 L 140.4,38.2 L 141.0,37.7" style="fill:none;stroke:#000000;stroke-width:2.0px;stroke-linecap:butt;stroke-linejoin:miter;stroke-opacity:1;"/>
<path d="M 177.3,71.8 L 179.1,71.7 L 180.1,73.2" style="fill:none;stroke:#000000;stroke-width:2.0px;stroke-linecap:butt;stroke-linejoin:miter;stroke-opacity:1;"/>
<path d="M 198.4,100.2 L 199.4,101.7 L 201.2,101.6" style="fill:none;stroke:#000000;stroke-width:2.0px;stroke-linecap:butt;stroke-linejoin:miter;stroke-opacity:1;"/>
<path d="M 233.1,64.8 L 233.0,63.0 L 233.6,62.6" style="fill:none;stroke:#000000;stroke-width:2.0px;stroke-linecap:butt;stroke-linejoin:miter;stroke-opacity:1;"/>
<path d="M 238.0,133.4 L 238.1,135.2 L 238.8,135.6" style="fill:none;stroke:#000000;stroke-width:2.0px;stroke-linecap:butt;stroke-linejoin:miter;stroke-opacity:1;"/>
<path d="M 145.5,108.6 L 145.6,110.4 L 146.3,110.7" style="fill:none;stroke:#000000;stroke-width:2.0px;stroke-linecap:butt;stroke-linejoin:miter;stroke-opacity:1;"/>
<path d="M 52.5,77.7 L 52.3,75.9 L 52.9,75.5" style="fill:none;stroke:#000000;stroke-width:2.0px;stroke-linecap:butt;stroke-linejoin:miter;stroke-opacity:1;"/>
<path class="atom-3" d="M 85.4 164.0 Q 85.4 161.5, 86.6 160.2 Q 87.8 158.8, 90.1 158.8 Q 92.4 158.8, 93.6 160.2 Q 94.8 161.5, 94.8 164.0 Q 94.8 166.5, 93.6 167.9 Q 92.3 169.3, 90.1 169.3 Q 87.8 169.3, 86.6 167.9 Q 85.4 166.5, 85.4 164.0 M 90.1 168.2 Q 91.6 168.2, 92.5 167.1 Q 93.3 166.1, 93.3 164.0 Q 93.3 162.0, 92.5 161.0 Q 91.6 160.0, 90.1 160.0 Q 88.5 160.0, 87.7 161.0 Q 86.8 162.0, 86.8 164.0 Q 86.8 166.1, 87.7 167.1 Q 88.5 168.2, 90.1 168.2 " fill="#FF0000"/>
<path class="atom-3" d="M 96.4 158.9 L 97.8 158.9 L 97.8 163.3 L 103.0 163.3 L 103.0 158.9 L 104.4 158.9 L 104.4 169.2 L 103.0 169.2 L 103.0 164.4 L 97.8 164.4 L 97.8 169.2 L 96.4 169.2 L 96.4 158.9 " fill="#FF0000"/>
<path class="atom-8" d="M 165.7 17.9 Q 165.7 15.4, 166.9 14.0 Q 168.1 12.7, 170.4 12.7 Q 172.7 12.7, 173.9 14.0 Q 175.1 15.4, 175.1 17.9 Q 175.1 20.4, 173.9 21.8 Q 172.7 23.2, 170.4 23.2 Q 168.2 23.2, 166.9 21.8 Q 165.7 20.4, 165.7 17.9 M 170.4 22.0 Q 172.0 22.0, 172.8 21.0 Q 173.7 19.9, 173.7 17.9 Q 173.7 15.9, 172.8 14.9 Q 172.0 13.8, 170.4 13.8 Q 168.9 13.8, 168.0 14.8 Q 167.2 15.9, 167.2 17.9 Q 167.2 20.0, 168.0 21.0 Q 168.9 22.0, 170.4 22.0 " fill="#FF0000"/>
<path class="atom-8" d="M 176.7 12.8 L 178.1 12.8 L 178.1 17.1 L 183.4 17.1 L 183.4 12.8 L 184.7 12.8 L 184.7 23.0 L 183.4 23.0 L 183.4 18.3 L 178.1 18.3 L 178.1 23.0 L 176.7 23.0 L 176.7 12.8 " fill="#FF0000"/>
<path class="atom-14" d="M 258.3 42.7 Q 258.3 40.3, 259.5 38.9 Q 260.7 37.5, 263.0 37.5 Q 265.2 37.5, 266.5 38.9 Q 267.7 40.3, 267.7 42.7 Q 267.7 45.2, 266.4 46.6 Q 265.2 48.0, 263.0 48.0 Q 260.7 48.0, 259.5 46.6 Q 258.3 45.2, 258.3 42.7 M 263.0 46.9 Q 264.5 46.9, 265.4 45.8 Q 266.2 44.8, 266.2 42.7 Q 266.2 40.7, 265.4 39.7 Q 264.5 38.7, 263.0 38.7 Q 261.4 38.7, 260.6 39.7 Q 259.7 40.7, 259.7 42.7 Q 259.7 44.8, 260.6 45.8 Q 261.4 46.9, 263.0 46.9 " fill="#FF0000"/>
<path class="atom-14" d="M 269.3 37.6 L 270.7 37.6 L 270.7 42.0 L 275.9 42.0 L 275.9 37.6 L 277.3 37.6 L 277.3 47.9 L 275.9 47.9 L 275.9 43.1 L 270.7 43.1 L 270.7 47.9 L 269.3 47.9 L 269.3 37.6 " fill="#FF0000"/>
<path class="atom-16" d="M 203.4 155.6 Q 203.4 153.1, 204.7 151.7 Q 205.9 150.4, 208.1 150.4 Q 210.4 150.4, 211.6 151.7 Q 212.9 153.1, 212.9 155.6 Q 212.9 158.1, 211.6 159.5 Q 210.4 160.9, 208.1 160.9 Q 205.9 160.9, 204.7 159.5 Q 203.4 158.1, 203.4 155.6 M 208.1 159.7 Q 209.7 159.7, 210.5 158.7 Q 211.4 157.6, 211.4 155.6 Q 211.4 153.6, 210.5 152.5 Q 209.7 151.5, 208.1 151.5 Q 206.6 151.5, 205.7 152.5 Q 204.9 153.5, 204.9 155.6 Q 204.9 157.6, 205.7 158.7 Q 206.6 159.7, 208.1 159.7 " fill="#FF0000"/>
<path class="atom-17" d="M 266.0 151.1 Q 266.0 148.6, 267.2 147.3 Q 268.4 145.9, 270.7 145.9 Q 273.0 145.9, 274.2 147.3 Q 275.4 148.6, 275.4 151.1 Q 275.4 153.6, 274.2 155.0 Q 273.0 156.4, 270.7 156.4 Q 268.5 156.4, 267.2 155.0 Q 266.0 153.6, 266.0 151.1 M 270.7 155.3 Q 272.3 155.3, 273.1 154.2 Q 274.0 153.2, 274.0 151.1 Q 274.0 149.1, 273.1 148.1 Q 272.3 147.0, 270.7 147.0 Q 269.2 147.0, 268.3 148.1 Q 267.5 149.1, 267.5 151.1 Q 267.5 153.2, 268.3 154.2 Q 269.2 155.3, 270.7 155.3 " fill="#FF0000"/>
<path class="atom-17" d="M 277.0 146.0 L 278.4 146.0 L 278.4 150.4 L 283.7 150.4 L 283.7 146.0 L 285.1 146.0 L 285.1 156.3 L 283.7 156.3 L 283.7 151.5 L 278.4 151.5 L 278.4 156.3 L 277.0 156.3 L 277.0 146.0 " fill="#FF0000"/>
<path class="atom-19" d="M 110.9 130.7 Q 110.9 128.3, 112.1 126.9 Q 113.3 125.5, 115.6 125.5 Q 117.9 125.5, 119.1 126.9 Q 120.3 128.3, 120.3 130.7 Q 120.3 133.2, 119.1 134.7 Q 117.8 136.1, 115.6 136.1 Q 113.3 136.1, 112.1 134.7 Q 110.9 133.2, 110.9 130.7 M 115.6 134.9 Q 117.2 134.9, 118.0 133.9 Q 118.8 132.8, 118.8 130.7 Q 118.8 128.7, 118.0 127.7 Q 117.2 126.7, 115.6 126.7 Q 114.0 126.7, 113.2 127.7 Q 112.3 128.7, 112.3 130.7 Q 112.3 132.8, 113.2 133.9 Q 114.0 134.9, 115.6 134.9 " fill="#FF0000"/>
<path class="atom-20" d="M 173.5 126.3 Q 173.5 123.8, 174.7 122.4 Q 175.9 121.1, 178.2 121.1 Q 180.4 121.1, 181.7 122.4 Q 182.9 123.8, 182.9 126.3 Q 182.9 128.8, 181.6 130.2 Q 180.4 131.6, 178.2 131.6 Q 175.9 131.6, 174.7 130.2 Q 173.5 128.8, 173.5 126.3 M 178.2 130.4 Q 179.7 130.4, 180.6 129.4 Q 181.4 128.3, 181.4 126.3 Q 181.4 124.3, 180.6 123.2 Q 179.7 122.2, 178.2 122.2 Q 176.6 122.2, 175.7 123.2 Q 174.9 124.2, 174.9 126.3 Q 174.9 128.3, 175.7 129.4 Q 176.6 130.4, 178.2 130.4 " fill="#FF0000"/>
<path class="atom-20" d="M 184.5 121.2 L 185.9 121.2 L 185.9 125.5 L 191.1 125.5 L 191.1 121.2 L 192.5 121.2 L 192.5 131.4 L 191.1 131.4 L 191.1 126.7 L 185.9 126.7 L 185.9 131.4 L 184.5 131.4 L 184.5 121.2 " fill="#FF0000"/>
<path class="atom-22" d="M 15.1 60.1 Q 15.1 57.6, 16.3 56.3 Q 17.5 54.9, 19.8 54.9 Q 22.0 54.9, 23.3 56.3 Q 24.5 57.6, 24.5 60.1 Q 24.5 62.6, 23.2 64.0 Q 22.0 65.4, 19.8 65.4 Q 17.5 65.4, 16.3 64.0 Q 15.1 62.6, 15.1 60.1 M 19.8 64.3 Q 21.3 64.3, 22.2 63.2 Q 23.0 62.2, 23.0 60.1 Q 23.0 58.1, 22.2 57.1 Q 21.3 56.0, 19.8 56.0 Q 18.2 56.0, 17.3 57.1 Q 16.5 58.1, 16.5 60.1 Q 16.5 62.2, 17.3 63.2 Q 18.2 64.3, 19.8 64.3 " fill="#FF0000"/>
<path class="atom-23" d="M 77.6 55.6 Q 77.6 53.2, 78.8 51.8 Q 80.1 50.4, 82.3 50.4 Q 84.6 50.4, 85.8 51.8 Q 87.0 53.2, 87.0 55.6 Q 87.0 58.1, 85.8 59.5 Q 84.6 60.9, 82.3 60.9 Q 80.1 60.9, 78.8 59.5 Q 77.6 58.1, 77.6 55.6 M 82.3 59.8 Q 83.9 59.8, 84.7 58.7 Q 85.6 57.7, 85.6 55.6 Q 85.6 53.6, 84.7 52.6 Q 83.9 51.6, 82.3 51.6 Q 80.8 51.6, 79.9 52.6 Q 79.1 53.6, 79.1 55.6 Q 79.1 57.7, 79.9 58.7 Q 80.8 59.8, 82.3 59.8 " fill="#FF0000"/>
<path class="atom-23" d="M 88.6 50.5 L 90.0 50.5 L 90.0 54.9 L 95.3 54.9 L 95.3 50.5 L 96.7 50.5 L 96.7 60.8 L 95.3 60.8 L 95.3 56.0 L 90.0 56.0 L 90.0 60.8 L 88.6 60.8 L 88.6 50.5 " fill="#FF0000"/>
<path class="legend" d="M 141.5 181.9 Q 141.5 179.6, 142.2 177.7 Q 142.9 175.8, 144.2 173.8 L 145.1 174.4 Q 144.0 176.3, 143.5 178.0 Q 143.0 179.7, 143.0 181.9 Q 143.0 184.0, 143.5 185.8 Q 144.0 187.5, 145.1 189.4 L 144.2 190.0 Q 142.9 188.0, 142.2 186.1 Q 141.5 184.2, 141.5 181.9 " fill="#000000"/>
<path class="legend" d="M 146.0 177.3 Q 146.4 176.2, 147.4 175.6 Q 148.4 175.0, 149.8 175.0 Q 151.5 175.0, 152.4 175.9 Q 153.4 176.8, 153.4 178.5 Q 153.4 180.2, 152.1 181.7 Q 150.9 183.3, 148.4 185.2 L 153.6 185.2 L 153.6 186.4 L 146.0 186.4 L 146.0 185.4 Q 148.1 183.9, 149.3 182.8 Q 150.6 181.6, 151.2 180.6 Q 151.8 179.6, 151.8 178.6 Q 151.8 177.5, 151.2 176.9 Q 150.7 176.3, 149.8 176.3 Q 148.8 176.3, 148.2 176.6 Q 147.6 177.0, 147.2 177.8 L 146.0 177.3 " fill="#000000"/>
<path class="legend" d="M 158.6 181.9 Q 158.6 184.2, 157.9 186.1 Q 157.2 188.0, 155.9 190.0 L 155.0 189.4 Q 156.1 187.5, 156.6 185.8 Q 157.1 184.0, 157.1 181.9 Q 157.1 179.7, 156.6 178.0 Q 156.1 176.3, 155.0 174.4 L 155.9 173.8 Q 157.2 175.8, 157.9 177.7 Q 158.6 179.6, 158.6 181.9 " fill="#000000"/>
</g>
    <g transform="translate(301.0, 0) scale(1 1) "><line x1="5" y1="100" x2="35" y2="100" style="stroke:rgb(0,0,0);stroke-width:2"/>
  <line x1="34" y1="100" x2="29" y2="95" style="stroke:rgb(0,0,0);stroke-width:2"/>
  <line x1="34" y1="100" x2="29" y2="105" style="stroke:rgb(0,0,0);stroke-width:2"/>
</g>
    <g transform="translate(341.0, 0) scale(1 1) "><!-- END OF HEADER -->
<rect style="opacity:1.0;fill:#FFFFFF;stroke:none" width="205.0" height="200.0" x="0.0" y="0.0"> </rect>
<path class="bond-0 atom-0 atom-1" d="M 122.6,44.3 L 108.8,89.2" style="fill:none;fill-rule:evenodd;stroke:#000000;stroke-width:2.0px;stroke-linecap:butt;stroke-linejoin:miter;stroke-opacity:1"/>
<path class="bond-1 atom-1 atom-2" d="M 108.8,89.2 L 95.0,134.1" style="fill:none;fill-rule:evenodd;stroke:#000000;stroke-width:2.0px;stroke-linecap:butt;stroke-linejoin:miter;stroke-opacity:1"/>
<path class="bond-2 atom-1 atom-3" d="M 108.8,89.2 L 63.9,75.4" style="fill:none;fill-rule:evenodd;stroke:#000000;stroke-width:2.0px;stroke-linecap:butt;stroke-linejoin:miter;stroke-opacity:1"/>
<path class="bond-3 atom-3 atom-4" d="M 63.9,75.4 L 50.5,87.9" style="fill:none;fill-rule:evenodd;stroke:#000000;stroke-width:2.0px;stroke-linecap:butt;stroke-linejoin:miter;stroke-opacity:1"/>
<path class="bond-3 atom-3 atom-4" d="M 50.5,87.9 L 37.2,100.3" style="fill:none;fill-rule:evenodd;stroke:#FF0000;stroke-width:2.0px;stroke-linecap:butt;stroke-linejoin:miter;stroke-opacity:1"/>
<path class="bond-4 atom-1 atom-5" d="M 108.8,89.2 L 153.7,103.0" style="fill:none;fill-rule:evenodd;stroke:#000000;stroke-width:2.0px;stroke-linecap:butt;stroke-linejoin:miter;stroke-opacity:1"/>
<path class="bond-5 atom-5 atom-6" d="M 154.7,107.0 L 168.8,93.8" style="fill:none;fill-rule:evenodd;stroke:#000000;stroke-width:2.0px;stroke-linecap:butt;stroke-linejoin:miter;stroke-opacity:1"/>
<path class="bond-5 atom-5 atom-6" d="M 168.8,93.8 L 182.9,80.7" style="fill:none;fill-rule:evenodd;stroke:#FF0000;stroke-width:2.0px;stroke-linecap:butt;stroke-linejoin:miter;stroke-opacity:1"/>
<path class="bond-5 atom-5 atom-6" d="M 149.9,101.8 L 164.0,88.7" style="fill:none;fill-rule:evenodd;stroke:#000000;stroke-width:2.0px;stroke-linecap:butt;stroke-linejoin:miter;stroke-opacity:1"/>
<path class="bond-5 atom-5 atom-6" d="M 164.0,88.7 L 178.1,75.5" style="fill:none;fill-rule:evenodd;stroke:#FF0000;stroke-width:2.0px;stroke-linecap:butt;stroke-linejoin:miter;stroke-opacity:1"/>
<path class="bond-6 atom-5 atom-7" d="M 153.7,103.0 L 158.0,121.7" style="fill:none;fill-rule:evenodd;stroke:#000000;stroke-width:2.0px;stroke-linecap:butt;stroke-linejoin:miter;stroke-opacity:1"/>
<path class="bond-6 atom-5 atom-7" d="M 158.0,121.7 L 162.4,140.5" style="fill:none;fill-rule:evenodd;stroke:#FF0000;stroke-width:2.0px;stroke-linecap:butt;stroke-linejoin:miter;stroke-opacity:1"/>
<path d="M 66.1,76.1 L 63.9,75.4 L 63.2,76.0" style="fill:none;stroke:#000000;stroke-width:2.0px;stroke-linecap:butt;stroke-linejoin:miter;stroke-opacity:1;"/>
<path d="M 151.5,102.3 L 153.7,103.0 L 154.0,103.9" style="fill:none;stroke:#000000;stroke-width:2.0px;stroke-linecap:butt;stroke-linejoin:miter;stroke-opacity:1;"/>
<path class="atom-4" d="M 10.2 100.8 L 12.1 100.8 L 12.1 106.5 L 18.9 106.5 L 18.9 100.8 L 20.7 100.8 L 20.7 114.1 L 18.9 114.1 L 18.9 108.0 L 12.1 108.0 L 12.1 114.1 L 10.2 114.1 L 10.2 100.8 " fill="#FF0000"/>
<path class="atom-4" d="M 23.4 107.5 Q 23.4 104.3, 25.0 102.5 Q 26.5 100.7, 29.5 100.7 Q 32.5 100.7, 34.0 102.5 Q 35.6 104.3, 35.6 107.5 Q 35.6 110.7, 34.0 112.5 Q 32.4 114.4, 29.5 114.4 Q 26.6 114.4, 25.0 112.5 Q 23.4 110.7, 23.4 107.5 M 29.5 112.9 Q 31.5 112.9, 32.6 111.5 Q 33.7 110.1, 33.7 107.5 Q 33.7 104.8, 32.6 103.5 Q 31.5 102.2, 29.5 102.2 Q 27.5 102.2, 26.4 103.5 Q 25.3 104.8, 25.3 107.5 Q 25.3 110.1, 26.4 111.5 Q 27.5 112.9, 29.5 112.9 " fill="#FF0000"/>
<path class="atom-6" d="M 182.0 71.0 Q 182.0 67.8, 183.6 66.0 Q 185.2 64.3, 188.1 64.3 Q 191.1 64.3, 192.7 66.0 Q 194.3 67.8, 194.3 71.0 Q 194.3 74.3, 192.7 76.1 Q 191.1 77.9, 188.1 77.9 Q 185.2 77.9, 183.6 76.1 Q 182.0 74.3, 182.0 71.0 M 188.1 76.4 Q 190.2 76.4, 191.3 75.1 Q 192.4 73.7, 192.4 71.0 Q 192.4 68.4, 191.3 67.1 Q 190.2 65.8, 188.1 65.8 Q 186.1 65.8, 185.0 67.1 Q 183.9 68.4, 183.9 71.0 Q 183.9 73.7, 185.0 75.1 Q 186.1 76.4, 188.1 76.4 " fill="#FF0000"/>
<path class="atom-7" d="M 158.2 148.8 Q 158.2 145.6, 159.7 143.8 Q 161.3 142.1, 164.3 142.1 Q 167.2 142.1, 168.8 143.8 Q 170.4 145.6, 170.4 148.8 Q 170.4 152.1, 168.8 153.9 Q 167.2 155.7, 164.3 155.7 Q 161.3 155.7, 159.7 153.9 Q 158.2 152.1, 158.2 148.8 M 164.3 154.2 Q 166.3 154.2, 167.4 152.9 Q 168.5 151.5, 168.5 148.8 Q 168.5 146.2, 167.4 144.9 Q 166.3 143.6, 164.3 143.6 Q 162.2 143.6, 161.1 144.9 Q 160.0 146.2, 160.0 148.8 Q 160.0 151.5, 161.1 152.9 Q 162.2 154.2, 164.3 154.2 " fill="#FF0000"/>
<path class="atom-7" d="M 172.4 142.2 L 174.2 142.2 L 174.2 147.9 L 181.0 147.9 L 181.0 142.2 L 182.9 142.2 L 182.9 155.5 L 181.0 155.5 L 181.0 149.4 L 174.2 149.4 L 174.2 155.5 L 172.4 155.5 L 172.4 142.2 " fill="#FF0000"/>
</g>
    <g transform="translate(546.0, 0) scale(1 1) "><line x1="15" y1="100" x2="25" y2="100" style="stroke:rgb(0,0,0);stroke-width:2"/>
  <line x1="20" y1="95" x2="20" y2="105" style="stroke:rgb(0,0,0);stroke-width:2"/>
</g>
    <g transform="translate(586.0, 0) scale(1 1) "><!-- END OF HEADER -->
<rect style="opacity:1.0;fill:#FFFFFF;stroke:none" width="345.0" height="200.0" x="0.0" y="0.0"> </rect>
<path class="bond-0 atom-0 atom-1" d="M 269.5,47.9 L 254.9,66.3" style="fill:none;fill-rule:evenodd;stroke:#000000;stroke-width:2.0px;stroke-linecap:butt;stroke-linejoin:miter;stroke-opacity:1"/>
<path class="bond-1 atom-1 atom-2" d="M 254.9,66.3 L 273.3,80.9" style="fill:none;fill-rule:evenodd;stroke:#000000;stroke-width:2.0px;stroke-linecap:butt;stroke-linejoin:miter;stroke-opacity:1"/>
<path class="bond-2 atom-2 atom-3" d="M 273.3,80.9 L 271.8,90.5" style="fill:none;fill-rule:evenodd;stroke:#000000;stroke-width:2.0px;stroke-linecap:butt;stroke-linejoin:miter;stroke-opacity:1"/>
<path class="bond-2 atom-2 atom-3" d="M 271.8,90.5 L 270.4,100.0" style="fill:none;fill-rule:evenodd;stroke:#FF0000;stroke-width:2.0px;stroke-linecap:butt;stroke-linejoin:miter;stroke-opacity:1"/>
<path class="bond-3 atom-1 atom-4" d="M 254.9,66.3 L 240.2,84.6" style="fill:none;fill-rule:evenodd;stroke:#000000;stroke-width:2.0px;stroke-linecap:butt;stroke-linejoin:miter;stroke-opacity:1"/>
<path class="bond-4 atom-4 atom-5" d="M 240.2,84.6 L 217.0,81.1" style="fill:none;fill-rule:evenodd;stroke:#000000;stroke-width:2.0px;stroke-linecap:butt;stroke-linejoin:miter;stroke-opacity:1"/>
<path class="bond-5 atom-5 atom-6" d="M 217.0,81.1 L 202.3,99.5" style="fill:none;fill-rule:evenodd;stroke:#000000;stroke-width:2.0px;stroke-linecap:butt;stroke-linejoin:miter;stroke-opacity:1"/>
<path class="bond-6 atom-6 atom-7" d="M 202.3,99.5 L 183.9,84.9" style="fill:none;fill-rule:evenodd;stroke:#000000;stroke-width:2.0px;stroke-linecap:butt;stroke-linejoin:miter;stroke-opacity:1"/>
<path class="bond-7 atom-7 atom-8" d="M 183.9,84.9 L 186.5,75.7" style="fill:none;fill-rule:evenodd;stroke:#000000;stroke-width:2.0px;stroke-linecap:butt;stroke-linejoin:miter;stroke-opacity:1"/>
<path class="bond-7 atom-7 atom-8" d="M 186.5,75.7 L 189.0,66.4" style="fill:none;fill-rule:evenodd;stroke:#FF0000;stroke-width:2.0px;stroke-linecap:butt;stroke-linejoin:miter;stroke-opacity:1"/>
<path class="bond-8 atom-6 atom-9" d="M 202.3,99.5 L 187.6,117.9" style="fill:none;fill-rule:evenodd;stroke:#000000;stroke-width:2.0px;stroke-linecap:butt;stroke-linejoin:miter;stroke-opacity:1"/>
<path class="bond-9 atom-9 atom-10" d="M 187.6,117.9 L 164.4,114.4" style="fill:none;fill-rule:evenodd;stroke:#000000;stroke-width:2.0px;stroke-linecap:butt;stroke-linejoin:miter;stroke-opacity:1"/>
<path class="bond-10 atom-10 atom-11" d="M 164.4,114.4 L 149.7,132.8" style="fill:none;fill-rule:evenodd;stroke:#000000;stroke-width:2.0px;stroke-linecap:butt;stroke-linejoin:miter;stroke-opacity:1"/>
<path class="bond-11 atom-11 atom-12" d="M 149.7,132.8 L 158.3,154.7" style="fill:none;fill-rule:evenodd;stroke:#000000;stroke-width:2.0px;stroke-linecap:butt;stroke-linejoin:miter;stroke-opacity:1"/>
<path class="bond-12 atom-12 atom-13" d="M 158.3,154.7 L 166.9,176.6" style="fill:none;fill-rule:evenodd;stroke:#000000;stroke-width:2.0px;stroke-linecap:butt;stroke-linejoin:miter;stroke-opacity:1"/>
<path class="bond-13 atom-12 atom-14" d="M 158.3,154.7 L 180.2,146.1" style="fill:none;fill-rule:evenodd;stroke:#000000;stroke-width:2.0px;stroke-linecap:butt;stroke-linejoin:miter;stroke-opacity:1"/>
<path class="bond-14 atom-14 atom-15" d="M 180.2,146.1 L 187.5,151.9" style="fill:none;fill-rule:evenodd;stroke:#000000;stroke-width:2.0px;stroke-linecap:butt;stroke-linejoin:miter;stroke-opacity:1"/>
<path class="bond-14 atom-14 atom-15" d="M 187.5,151.9 L 194.7,157.7" style="fill:none;fill-rule:evenodd;stroke:#FF0000;stroke-width:2.0px;stroke-linecap:butt;stroke-linejoin:miter;stroke-opacity:1"/>
<path class="bond-15 atom-12 atom-16" d="M 158.3,154.7 L 136.4,163.3" style="fill:none;fill-rule:evenodd;stroke:#000000;stroke-width:2.0px;stroke-linecap:butt;stroke-linejoin:miter;stroke-opacity:1"/>
<path class="bond-16 atom-16 atom-17" d="M 138.3,162.5 L 130.6,156.4" style="fill:none;fill-rule:evenodd;stroke:#000000;stroke-width:2.0px;stroke-linecap:butt;stroke-linejoin:miter;stroke-opacity:1"/>
<path class="bond-16 atom-16 atom-17" d="M 130.6,156.4 L 123.0,150.3" style="fill:none;fill-rule:evenodd;stroke:#FF0000;stroke-width:2.0px;stroke-linecap:butt;stroke-linejoin:miter;stroke-opacity:1"/>
<path class="bond-16 atom-16 atom-17" d="M 136.1,165.3 L 128.4,159.2" style="fill:none;fill-rule:evenodd;stroke:#000000;stroke-width:2.0px;stroke-linecap:butt;stroke-linejoin:miter;stroke-opacity:1"/>
<path class="bond-16 atom-16 atom-17" d="M 128.4,159.2 L 120.8,153.0" style="fill:none;fill-rule:evenodd;stroke:#FF0000;stroke-width:2.0px;stroke-linecap:butt;stroke-linejoin:miter;stroke-opacity:1"/>
<path class="bond-17 atom-16 atom-18" d="M 136.4,163.3 L 135.0,172.8" style="fill:none;fill-rule:evenodd;stroke:#000000;stroke-width:2.0px;stroke-linecap:butt;stroke-linejoin:miter;stroke-opacity:1"/>
<path class="bond-17 atom-16 atom-18" d="M 135.0,172.8 L 133.5,182.4" style="fill:none;fill-rule:evenodd;stroke:#FF0000;stroke-width:2.0px;stroke-linecap:butt;stroke-linejoin:miter;stroke-opacity:1"/>
<path class="bond-18 atom-10 atom-19" d="M 164.4,114.4 L 155.8,92.5" style="fill:none;fill-rule:evenodd;stroke:#000000;stroke-width:2.0px;stroke-linecap:butt;stroke-linejoin:miter;stroke-opacity:1"/>
<path class="bond-19 atom-19 atom-20" d="M 155.8,92.5 L 177.7,83.9" style="fill:none;fill-rule:evenodd;stroke:#000000;stroke-width:2.0px;stroke-linecap:butt;stroke-linejoin:miter;stroke-opacity:1"/>
<path class="bond-20 atom-20 atom-21" d="M 177.7,83.9 L 177.9,74.3" style="fill:none;fill-rule:evenodd;stroke:#000000;stroke-width:2.0px;stroke-linecap:butt;stroke-linejoin:miter;stroke-opacity:1"/>
<path class="bond-20 atom-20 atom-21" d="M 177.9,74.3 L 178.2,64.7" style="fill:none;fill-rule:evenodd;stroke:#FF0000;stroke-width:2.0px;stroke-linecap:butt;stroke-linejoin:miter;stroke-opacity:1"/>
<path class="bond-21 atom-19 atom-22" d="M 155.8,92.5 L 147.2,70.6" style="fill:none;fill-rule:evenodd;stroke:#000000;stroke-width:2.0px;stroke-linecap:butt;stroke-linejoin:miter;stroke-opacity:1"/>
<path class="bond-22 atom-22 atom-23" d="M 147.2,70.6 L 123.9,67.1" style="fill:none;fill-rule:evenodd;stroke:#000000;stroke-width:2.0px;stroke-linecap:butt;stroke-linejoin:miter;stroke-opacity:1"/>
<path class="bond-23 atom-23 atom-24" d="M 123.9,67.1 L 115.3,45.2" style="fill:none;fill-rule:evenodd;stroke:#000000;stroke-width:2.0px;stroke-linecap:butt;stroke-linejoin:miter;stroke-opacity:1"/>
<path class="bond-24 atom-24 atom-25" d="M 115.3,45.2 L 106.8,23.3" style="fill:none;fill-rule:evenodd;stroke:#000000;stroke-width:2.0px;stroke-linecap:butt;stroke-linejoin:miter;stroke-opacity:1"/>
<path class="bond-25 atom-24 atom-26" d="M 115.3,45.2 L 137.2,36.6" style="fill:none;fill-rule:evenodd;stroke:#000000;stroke-width:2.0px;stroke-linecap:butt;stroke-linejoin:miter;stroke-opacity:1"/>
<path class="bond-26 atom-26 atom-27" d="M 137.2,36.6 L 138.7,27.1" style="fill:none;fill-rule:evenodd;stroke:#000000;stroke-width:2.0px;stroke-linecap:butt;stroke-linejoin:miter;stroke-opacity:1"/>
<path class="bond-26 atom-26 atom-27" d="M 138.7,27.1 L 140.1,17.6" style="fill:none;fill-rule:evenodd;stroke:#FF0000;stroke-width:2.0px;stroke-linecap:butt;stroke-linejoin:miter;stroke-opacity:1"/>
<path class="bond-27 atom-24 atom-28" d="M 115.3,45.2 L 93.5,53.8" style="fill:none;fill-rule:evenodd;stroke:#000000;stroke-width:2.0px;stroke-linecap:butt;stroke-linejoin:miter;stroke-opacity:1"/>
<path class="bond-28 atom-28 atom-29" d="M 91.9,52.5 L 90.3,62.6" style="fill:none;fill-rule:evenodd;stroke:#000000;stroke-width:2.0px;stroke-linecap:butt;stroke-linejoin:miter;stroke-opacity:1"/>
<path class="bond-28 atom-28 atom-29" d="M 90.3,62.6 L 88.8,72.7" style="fill:none;fill-rule:evenodd;stroke:#FF0000;stroke-width:2.0px;stroke-linecap:butt;stroke-linejoin:miter;stroke-opacity:1"/>
<path class="bond-28 atom-28 atom-29" d="M 95.3,53.1 L 93.8,63.1" style="fill:none;fill-rule:evenodd;stroke:#000000;stroke-width:2.0px;stroke-linecap:butt;stroke-linejoin:miter;stroke-opacity:1"/>
<path class="bond-28 atom-28 atom-29" d="M 93.8,63.1 L 92.3,73.2" style="fill:none;fill-rule:evenodd;stroke:#FF0000;stroke-width:2.0px;stroke-linecap:butt;stroke-linejoin:miter;stroke-opacity:1"/>
<path class="bond-29 atom-28 atom-30" d="M 93.5,53.8 L 86.2,48.0" style="fill:none;fill-rule:evenodd;stroke:#000000;stroke-width:2.0px;stroke-linecap:butt;stroke-linejoin:miter;stroke-opacity:1"/>
<path class="bond-29 atom-28 atom-30" d="M 86.2,48.0 L 78.9,42.2" style="fill:none;fill-rule:evenodd;stroke:#FF0000;stroke-width:2.0px;stroke-linecap:butt;stroke-linejoin:miter;stroke-opacity:1"/>
<path class="bond-30 atom-19 atom-31" d="M 155.8,92.5 L 133.9,101.1" style="fill:none;fill-rule:evenodd;stroke:#000000;stroke-width:2.0px;stroke-linecap:butt;stroke-linejoin:miter;stroke-opacity:1"/>
<path class="bond-31 atom-31 atom-32" d="M 132.3,99.8 L 130.8,109.9" style="fill:none;fill-rule:evenodd;stroke:#000000;stroke-width:2.0px;stroke-linecap:butt;stroke-linejoin:miter;stroke-opacity:1"/>
<path class="bond-31 atom-31 atom-32" d="M 130.8,109.9 L 129.3,119.9" style="fill:none;fill-rule:evenodd;stroke:#FF0000;stroke-width:2.0px;stroke-linecap:butt;stroke-linejoin:miter;stroke-opacity:1"/>
<path class="bond-31 atom-31 atom-32" d="M 135.8,100.4 L 134.3,110.4" style="fill:none;fill-rule:evenodd;stroke:#000000;stroke-width:2.0px;stroke-linecap:butt;stroke-linejoin:miter;stroke-opacity:1"/>
<path class="bond-31 atom-31 atom-32" d="M 134.3,110.4 L 132.8,120.5" style="fill:none;fill-rule:evenodd;stroke:#FF0000;stroke-width:2.0px;stroke-linecap:butt;stroke-linejoin:miter;stroke-opacity:1"/>
<path class="bond-32 atom-31 atom-33" d="M 133.9,101.1 L 126.6,95.3" style="fill:none;fill-rule:evenodd;stroke:#000000;stroke-width:2.0px;stroke-linecap:butt;stroke-linejoin:miter;stroke-opacity:1"/>
<path class="bond-32 atom-31 atom-33" d="M 126.6,95.3 L 119.3,89.5" style="fill:none;fill-rule:evenodd;stroke:#FF0000;stroke-width:2.0px;stroke-linecap:butt;stroke-linejoin:miter;stroke-opacity:1"/>
<path class="bond-33 atom-6 atom-34" d="M 202.3,99.5 L 220.7,114.2" style="fill:none;fill-rule:evenodd;stroke:#000000;stroke-width:2.0px;stroke-linecap:butt;stroke-linejoin:miter;stroke-opacity:1"/>
<path class="bond-34 atom-34 atom-35" d="M 220.4,116.2 L 229.9,112.5" style="fill:none;fill-rule:evenodd;stroke:#000000;stroke-width:2.0px;stroke-linecap:butt;stroke-linejoin:miter;stroke-opacity:1"/>
<path class="bond-34 atom-34 atom-35" d="M 229.9,112.5 L 239.4,108.7" style="fill:none;fill-rule:evenodd;stroke:#FF0000;stroke-width:2.0px;stroke-linecap:butt;stroke-linejoin:miter;stroke-opacity:1"/>
<path class="bond-34 atom-34 atom-35" d="M 219.1,112.9 L 228.6,109.2" style="fill:none;fill-rule:evenodd;stroke:#000000;stroke-width:2.0px;stroke-linecap:butt;stroke-linejoin:miter;stroke-opacity:1"/>
<path class="bond-34 atom-34 atom-35" d="M 228.6,109.2 L 238.1,105.5" style="fill:none;fill-rule:evenodd;stroke:#FF0000;stroke-width:2.0px;stroke-linecap:butt;stroke-linejoin:miter;stroke-opacity:1"/>
<path class="bond-35 atom-34 atom-36" d="M 220.7,114.2 L 219.2,123.7" style="fill:none;fill-rule:evenodd;stroke:#000000;stroke-width:2.0px;stroke-linecap:butt;stroke-linejoin:miter;stroke-opacity:1"/>
<path class="bond-35 atom-34 atom-36" d="M 219.2,123.7 L 217.8,133.3" style="fill:none;fill-rule:evenodd;stroke:#FF0000;stroke-width:2.0px;stroke-linecap:butt;stroke-linejoin:miter;stroke-opacity:1"/>
<path class="bond-36 atom-1 atom-37" d="M 254.9,66.3 L 236.5,51.6" style="fill:none;fill-rule:evenodd;stroke:#000000;stroke-width:2.0px;stroke-linecap:butt;stroke-linejoin:miter;stroke-opacity:1"/>
<path class="bond-37 atom-37 atom-38" d="M 238.1,52.9 L 239.6,42.9" style="fill:none;fill-rule:evenodd;stroke:#000000;stroke-width:2.0px;stroke-linecap:butt;stroke-linejoin:miter;stroke-opacity:1"/>
<path class="bond-37 atom-37 atom-38" d="M 239.6,42.9 L 241.1,32.8" style="fill:none;fill-rule:evenodd;stroke:#FF0000;stroke-width:2.0px;stroke-linecap:butt;stroke-linejoin:miter;stroke-opacity:1"/>
<path class="bond-37 atom-37 atom-38" d="M 234.6,52.3 L 236.1,42.3" style="fill:none;fill-rule:evenodd;stroke:#000000;stroke-width:2.0px;stroke-linecap:butt;stroke-linejoin:miter;stroke-opacity:1"/>
<path class="bond-37 atom-37 atom-38" d="M 236.1,42.3 L 237.6,32.3" style="fill:none;fill-rule:evenodd;stroke:#FF0000;stroke-width:2.0px;stroke-linecap:butt;stroke-linejoin:miter;stroke-opacity:1"/>
<path class="bond-38 atom-37 atom-39" d="M 236.5,51.6 L 227.5,55.1" style="fill:none;fill-rule:evenodd;stroke:#000000;stroke-width:2.0px;stroke-linecap:butt;stroke-linejoin:miter;stroke-opacity:1"/>
<path class="bond-38 atom-37 atom-39" d="M 227.5,55.1 L 218.4,58.7" style="fill:none;fill-rule:evenodd;stroke:#FF0000;stroke-width:2.0px;stroke-linecap:butt;stroke-linejoin:miter;stroke-opacity:1"/>
<path d="M 272.3,80.2 L 273.3,80.9 L 273.2,81.4" style="fill:none;stroke:#000000;stroke-width:2.0px;stroke-linecap:butt;stroke-linejoin:miter;stroke-opacity:1;"/>
<path d="M 241.0,83.7 L 240.2,84.6 L 239.1,84.5" style="fill:none;stroke:#000000;stroke-width:2.0px;stroke-linecap:butt;stroke-linejoin:miter;stroke-opacity:1;"/>
<path d="M 218.1,81.3 L 217.0,81.1 L 216.2,82.1" style="fill:none;stroke:#000000;stroke-width:2.0px;stroke-linecap:butt;stroke-linejoin:miter;stroke-opacity:1;"/>
<path d="M 184.8,85.6 L 183.9,84.9 L 184.0,84.4" style="fill:none;stroke:#000000;stroke-width:2.0px;stroke-linecap:butt;stroke-linejoin:miter;stroke-opacity:1;"/>
<path d="M 188.4,117.0 L 187.6,117.9 L 186.5,117.7" style="fill:none;stroke:#000000;stroke-width:2.0px;stroke-linecap:butt;stroke-linejoin:miter;stroke-opacity:1;"/>
<path d="M 150.4,131.9 L 149.7,132.8 L 150.1,133.9" style="fill:none;stroke:#000000;stroke-width:2.0px;stroke-linecap:butt;stroke-linejoin:miter;stroke-opacity:1;"/>
<path d="M 179.1,146.5 L 180.2,146.1 L 180.6,146.4" style="fill:none;stroke:#000000;stroke-width:2.0px;stroke-linecap:butt;stroke-linejoin:miter;stroke-opacity:1;"/>
<path d="M 137.5,162.8 L 136.4,163.3 L 136.3,163.8" style="fill:none;stroke:#000000;stroke-width:2.0px;stroke-linecap:butt;stroke-linejoin:miter;stroke-opacity:1;"/>
<path d="M 176.6,84.3 L 177.7,83.9 L 177.7,83.4" style="fill:none;stroke:#000000;stroke-width:2.0px;stroke-linecap:butt;stroke-linejoin:miter;stroke-opacity:1;"/>
<path d="M 147.6,71.7 L 147.2,70.6 L 146.0,70.4" style="fill:none;stroke:#000000;stroke-width:2.0px;stroke-linecap:butt;stroke-linejoin:miter;stroke-opacity:1;"/>
<path d="M 125.1,67.3 L 123.9,67.1 L 123.5,66.0" style="fill:none;stroke:#000000;stroke-width:2.0px;stroke-linecap:butt;stroke-linejoin:miter;stroke-opacity:1;"/>
<path d="M 136.1,37.1 L 137.2,36.6 L 137.3,36.1" style="fill:none;stroke:#000000;stroke-width:2.0px;stroke-linecap:butt;stroke-linejoin:miter;stroke-opacity:1;"/>
<path d="M 94.5,53.4 L 93.5,53.8 L 93.1,53.5" style="fill:none;stroke:#000000;stroke-width:2.0px;stroke-linecap:butt;stroke-linejoin:miter;stroke-opacity:1;"/>
<path d="M 135.0,100.7 L 133.9,101.1 L 133.5,100.8" style="fill:none;stroke:#000000;stroke-width:2.0px;stroke-linecap:butt;stroke-linejoin:miter;stroke-opacity:1;"/>
<path d="M 219.8,113.5 L 220.7,114.2 L 220.6,114.7" style="fill:none;stroke:#000000;stroke-width:2.0px;stroke-linecap:butt;stroke-linejoin:miter;stroke-opacity:1;"/>
<path d="M 237.4,52.3 L 236.5,51.6 L 236.0,51.8" style="fill:none;stroke:#000000;stroke-width:2.0px;stroke-linecap:butt;stroke-linejoin:miter;stroke-opacity:1;"/>
<path class="atom-3" d="M 266.7 104.2 Q 266.7 102.6, 267.5 101.7 Q 268.3 100.8, 269.8 100.8 Q 271.2 100.8, 272.0 101.7 Q 272.8 102.6, 272.8 104.2 Q 272.8 105.8, 272.0 106.7 Q 271.2 107.6, 269.8 107.6 Q 268.3 107.6, 267.5 106.7 Q 266.7 105.8, 266.7 104.2 M 269.8 106.9 Q 270.8 106.9, 271.3 106.2 Q 271.9 105.5, 271.9 104.2 Q 271.9 102.9, 271.3 102.2 Q 270.8 101.6, 269.8 101.6 Q 268.7 101.6, 268.2 102.2 Q 267.6 102.9, 267.6 104.2 Q 267.6 105.5, 268.2 106.2 Q 268.7 106.9, 269.8 106.9 " fill="#FF0000"/>
<path class="atom-3" d="M 273.9 100.9 L 274.8 100.9 L 274.8 103.7 L 278.2 103.7 L 278.2 100.9 L 279.1 100.9 L 279.1 107.5 L 278.2 107.5 L 278.2 104.5 L 274.8 104.5 L 274.8 107.5 L 273.9 107.5 L 273.9 100.9 " fill="#FF0000"/>
<path class="atom-8" d="M 187.2 62.2 Q 187.2 60.6, 188.0 59.7 Q 188.7 58.8, 190.2 58.8 Q 191.7 58.8, 192.5 59.7 Q 193.3 60.6, 193.3 62.2 Q 193.3 63.8, 192.5 64.8 Q 191.7 65.7, 190.2 65.7 Q 188.8 65.7, 188.0 64.8 Q 187.2 63.8, 187.2 62.2 M 190.2 64.9 Q 191.2 64.9, 191.8 64.2 Q 192.3 63.6, 192.3 62.2 Q 192.3 60.9, 191.8 60.3 Q 191.2 59.6, 190.2 59.6 Q 189.2 59.6, 188.7 60.2 Q 188.1 60.9, 188.1 62.2 Q 188.1 63.6, 188.7 64.2 Q 189.2 64.9, 190.2 64.9 " fill="#FF0000"/>
<path class="atom-8" d="M 194.3 58.9 L 195.2 58.9 L 195.2 61.7 L 198.6 61.7 L 198.6 58.9 L 199.5 58.9 L 199.5 65.6 L 198.6 65.6 L 198.6 62.5 L 195.2 62.5 L 195.2 65.6 L 194.3 65.6 L 194.3 58.9 " fill="#FF0000"/>
<path class="atom-15" d="M 195.5 160.8 Q 195.5 159.2, 196.3 158.3 Q 197.1 157.4, 198.6 157.4 Q 200.1 157.4, 200.9 158.3 Q 201.6 159.2, 201.6 160.8 Q 201.6 162.4, 200.8 163.3 Q 200.0 164.2, 198.6 164.2 Q 197.1 164.2, 196.3 163.3 Q 195.5 162.4, 195.5 160.8 M 198.6 163.5 Q 199.6 163.5, 200.1 162.8 Q 200.7 162.1, 200.7 160.8 Q 200.7 159.5, 200.1 158.8 Q 199.6 158.1, 198.6 158.1 Q 197.6 158.1, 197.0 158.8 Q 196.5 159.5, 196.5 160.8 Q 196.5 162.1, 197.0 162.8 Q 197.6 163.5, 198.6 163.5 " fill="#FF0000"/>
<path class="atom-15" d="M 202.7 157.5 L 203.6 157.5 L 203.6 160.3 L 207.0 160.3 L 207.0 157.5 L 207.9 157.5 L 207.9 164.1 L 207.0 164.1 L 207.0 161.0 L 203.6 161.0 L 203.6 164.1 L 202.7 164.1 L 202.7 157.5 " fill="#FF0000"/>
<path class="atom-17" d="M 115.0 148.6 Q 115.0 147.0, 115.8 146.1 Q 116.5 145.2, 118.0 145.2 Q 119.5 145.2, 120.3 146.1 Q 121.1 147.0, 121.1 148.6 Q 121.1 150.2, 120.3 151.2 Q 119.5 152.1, 118.0 152.1 Q 116.6 152.1, 115.8 151.2 Q 115.0 150.3, 115.0 148.6 M 118.0 151.3 Q 119.0 151.3, 119.6 150.6 Q 120.1 150.0, 120.1 148.6 Q 120.1 147.3, 119.6 146.7 Q 119.0 146.0, 118.0 146.0 Q 117.0 146.0, 116.5 146.7 Q 115.9 147.3, 115.9 148.6 Q 115.9 150.0, 116.5 150.6 Q 117.0 151.3, 118.0 151.3 " fill="#FF0000"/>
<path class="atom-18" d="M 129.8 186.5 Q 129.8 184.9, 130.6 184.1 Q 131.4 183.2, 132.9 183.2 Q 134.4 183.2, 135.2 184.1 Q 136.0 184.9, 136.0 186.5 Q 136.0 188.2, 135.2 189.1 Q 134.4 190.0, 132.9 190.0 Q 131.4 190.0, 130.6 189.1 Q 129.8 188.2, 129.8 186.5 M 132.9 189.2 Q 133.9 189.2, 134.5 188.6 Q 135.0 187.9, 135.0 186.5 Q 135.0 185.2, 134.5 184.6 Q 133.9 183.9, 132.9 183.9 Q 131.9 183.9, 131.3 184.6 Q 130.8 185.2, 130.8 186.5 Q 130.8 187.9, 131.3 188.6 Q 131.9 189.2, 132.9 189.2 " fill="#FF0000"/>
<path class="atom-18" d="M 137.0 183.2 L 137.9 183.2 L 137.9 186.1 L 141.3 186.1 L 141.3 183.2 L 142.2 183.2 L 142.2 189.9 L 141.3 189.9 L 141.3 186.8 L 137.9 186.8 L 137.9 189.9 L 137.0 189.9 L 137.0 183.2 " fill="#FF0000"/>
<path class="atom-21" d="M 175.3 60.4 Q 175.3 58.8, 176.1 57.9 Q 176.8 57.0, 178.3 57.0 Q 179.8 57.0, 180.6 57.9 Q 181.4 58.8, 181.4 60.4 Q 181.4 62.0, 180.6 63.0 Q 179.8 63.9, 178.3 63.9 Q 176.9 63.9, 176.1 63.0 Q 175.3 62.1, 175.3 60.4 M 178.3 63.1 Q 179.3 63.1, 179.9 62.4 Q 180.4 61.8, 180.4 60.4 Q 180.4 59.1, 179.9 58.5 Q 179.3 57.8, 178.3 57.8 Q 177.3 57.8, 176.8 58.5 Q 176.2 59.1, 176.2 60.4 Q 176.2 61.8, 176.8 62.4 Q 177.3 63.1, 178.3 63.1 " fill="#FF0000"/>
<path class="atom-21" d="M 182.4 57.1 L 183.3 57.1 L 183.3 59.9 L 186.7 59.9 L 186.7 57.1 L 187.6 57.1 L 187.6 63.8 L 186.7 63.8 L 186.7 60.7 L 183.3 60.7 L 183.3 63.8 L 182.4 63.8 L 182.4 57.1 " fill="#FF0000"/>
<path class="atom-27" d="M 137.7 13.4 Q 137.7 11.8, 138.5 10.9 Q 139.3 10.0, 140.7 10.0 Q 142.2 10.0, 143.0 10.9 Q 143.8 11.8, 143.8 13.4 Q 143.8 15.0, 143.0 15.9 Q 142.2 16.8, 140.7 16.8 Q 139.3 16.8, 138.5 15.9 Q 137.7 15.0, 137.7 13.4 M 140.7 16.1 Q 141.8 16.1, 142.3 15.4 Q 142.9 14.7, 142.9 13.4 Q 142.9 12.1, 142.3 11.4 Q 141.8 10.8, 140.7 10.8 Q 139.7 10.8, 139.2 11.4 Q 138.6 12.1, 138.6 13.4 Q 138.6 14.7, 139.2 15.4 Q 139.7 16.1, 140.7 16.1 " fill="#FF0000"/>
<path class="atom-27" d="M 144.8 10.1 L 145.7 10.1 L 145.7 12.9 L 149.1 12.9 L 149.1 10.1 L 150.1 10.1 L 150.1 16.7 L 149.1 16.7 L 149.1 13.7 L 145.7 13.7 L 145.7 16.7 L 144.8 16.7 L 144.8 10.1 " fill="#FF0000"/>
<path class="atom-29" d="M 86.9 77.1 Q 86.9 75.5, 87.7 74.6 Q 88.5 73.7, 89.9 73.7 Q 91.4 73.7, 92.2 74.6 Q 93.0 75.5, 93.0 77.1 Q 93.0 78.7, 92.2 79.6 Q 91.4 80.5, 89.9 80.5 Q 88.5 80.5, 87.7 79.6 Q 86.9 78.7, 86.9 77.1 M 89.9 79.8 Q 91.0 79.8, 91.5 79.1 Q 92.1 78.4, 92.1 77.1 Q 92.1 75.8, 91.5 75.1 Q 91.0 74.4, 89.9 74.4 Q 88.9 74.4, 88.4 75.1 Q 87.8 75.8, 87.8 77.1 Q 87.8 78.4, 88.4 79.1 Q 88.9 79.8, 89.9 79.8 " fill="#FF0000"/>
<path class="atom-30" d="M 65.4 35.8 L 66.3 35.8 L 66.3 38.7 L 69.7 38.7 L 69.7 35.8 L 70.6 35.8 L 70.6 42.5 L 69.7 42.5 L 69.7 39.4 L 66.3 39.4 L 66.3 42.5 L 65.4 42.5 L 65.4 35.8 " fill="#FF0000"/>
<path class="atom-30" d="M 72.0 39.2 Q 72.0 37.6, 72.8 36.7 Q 73.6 35.8, 75.1 35.8 Q 76.5 35.8, 77.3 36.7 Q 78.1 37.6, 78.1 39.2 Q 78.1 40.8, 77.3 41.7 Q 76.5 42.6, 75.1 42.6 Q 73.6 42.6, 72.8 41.7 Q 72.0 40.8, 72.0 39.2 M 75.1 41.9 Q 76.1 41.9, 76.6 41.2 Q 77.2 40.5, 77.2 39.2 Q 77.2 37.9, 76.6 37.2 Q 76.1 36.5, 75.1 36.5 Q 74.1 36.5, 73.5 37.2 Q 73.0 37.8, 73.0 39.2 Q 73.0 40.5, 73.5 41.2 Q 74.1 41.9, 75.1 41.9 " fill="#FF0000"/>
<path class="atom-32" d="M 127.3 124.4 Q 127.3 122.8, 128.1 121.9 Q 128.9 121.0, 130.4 121.0 Q 131.9 121.0, 132.7 121.9 Q 133.4 122.8, 133.4 124.4 Q 133.4 126.0, 132.6 126.9 Q 131.8 127.8, 130.4 127.8 Q 128.9 127.8, 128.1 126.9 Q 127.3 126.0, 127.3 124.4 M 130.4 127.1 Q 131.4 127.1, 131.9 126.4 Q 132.5 125.7, 132.5 124.4 Q 132.5 123.1, 131.9 122.4 Q 131.4 121.7, 130.4 121.7 Q 129.4 121.7, 128.8 122.4 Q 128.3 123.1, 128.3 124.4 Q 128.3 125.7, 128.8 126.4 Q 129.4 127.1, 130.4 127.1 " fill="#FF0000"/>
<path class="atom-33" d="M 105.9 83.1 L 106.8 83.1 L 106.8 86.0 L 110.2 86.0 L 110.2 83.1 L 111.1 83.1 L 111.1 89.8 L 110.2 89.8 L 110.2 86.7 L 106.8 86.7 L 106.8 89.8 L 105.9 89.8 L 105.9 83.1 " fill="#FF0000"/>
<path class="atom-33" d="M 112.4 86.5 Q 112.4 84.9, 113.2 84.0 Q 114.0 83.1, 115.5 83.1 Q 117.0 83.1, 117.8 84.0 Q 118.6 84.9, 118.6 86.5 Q 118.6 88.1, 117.8 89.0 Q 117.0 89.9, 115.5 89.9 Q 114.0 89.9, 113.2 89.0 Q 112.4 88.1, 112.4 86.5 M 115.5 89.2 Q 116.5 89.2, 117.1 88.5 Q 117.6 87.8, 117.6 86.5 Q 117.6 85.1, 117.1 84.5 Q 116.5 83.8, 115.5 83.8 Q 114.5 83.8, 113.9 84.5 Q 113.4 85.1, 113.4 86.5 Q 113.4 87.8, 113.9 88.5 Q 114.5 89.2, 115.5 89.2 " fill="#FF0000"/>
<path class="atom-35" d="M 239.5 105.6 Q 239.5 104.0, 240.3 103.1 Q 241.1 102.2, 242.6 102.2 Q 244.1 102.2, 244.8 103.1 Q 245.6 104.0, 245.6 105.6 Q 245.6 107.2, 244.8 108.2 Q 244.0 109.1, 242.6 109.1 Q 241.1 109.1, 240.3 108.2 Q 239.5 107.2, 239.5 105.6 M 242.6 108.3 Q 243.6 108.3, 244.1 107.6 Q 244.7 106.9, 244.7 105.6 Q 244.7 104.3, 244.1 103.6 Q 243.6 103.0, 242.6 103.0 Q 241.6 103.0, 241.0 103.6 Q 240.5 104.3, 240.5 105.6 Q 240.5 107.0, 241.0 107.6 Q 241.6 108.3, 242.6 108.3 " fill="#FF0000"/>
<path class="atom-36" d="M 214.1 137.5 Q 214.1 135.9, 214.9 135.0 Q 215.7 134.1, 217.2 134.1 Q 218.7 134.1, 219.4 135.0 Q 220.2 135.9, 220.2 137.5 Q 220.2 139.1, 219.4 140.0 Q 218.6 140.9, 217.2 140.9 Q 215.7 140.9, 214.9 140.0 Q 214.1 139.1, 214.1 137.5 M 217.2 140.2 Q 218.2 140.2, 218.7 139.5 Q 219.3 138.8, 219.3 137.5 Q 219.3 136.2, 218.7 135.5 Q 218.2 134.8, 217.2 134.8 Q 216.2 134.8, 215.6 135.5 Q 215.1 136.1, 215.1 137.5 Q 215.1 138.8, 215.6 139.5 Q 216.2 140.2, 217.2 140.2 " fill="#FF0000"/>
<path class="atom-36" d="M 221.3 134.1 L 222.2 134.1 L 222.2 137.0 L 225.6 137.0 L 225.6 134.1 L 226.5 134.1 L 226.5 140.8 L 225.6 140.8 L 225.6 137.7 L 222.2 137.7 L 222.2 140.8 L 221.3 140.8 L 221.3 134.1 " fill="#FF0000"/>
<path class="atom-38" d="M 236.9 28.4 Q 236.9 26.8, 237.7 25.9 Q 238.5 25.0, 240.0 25.0 Q 241.5 25.0, 242.3 25.9 Q 243.1 26.8, 243.1 28.4 Q 243.1 30.0, 242.3 30.9 Q 241.5 31.8, 240.0 31.8 Q 238.5 31.8, 237.7 30.9 Q 236.9 30.0, 236.9 28.4 M 240.0 31.1 Q 241.0 31.1, 241.6 30.4 Q 242.1 29.7, 242.1 28.4 Q 242.1 27.0, 241.6 26.4 Q 241.0 25.7, 240.0 25.7 Q 239.0 25.7, 238.4 26.4 Q 237.9 27.0, 237.9 28.4 Q 237.9 29.7, 238.4 30.4 Q 239.0 31.1, 240.0 31.1 " fill="#FF0000"/>
<path class="atom-39" d="M 205.0 56.9 L 205.9 56.9 L 205.9 59.7 L 209.3 59.7 L 209.3 56.9 L 210.2 56.9 L 210.2 63.5 L 209.3 63.5 L 209.3 60.5 L 205.9 60.5 L 205.9 63.5 L 205.0 63.5 L 205.0 56.9 " fill="#FF0000"/>
<path class="atom-39" d="M 211.5 60.2 Q 211.5 58.6, 212.3 57.7 Q 213.1 56.8, 214.6 56.8 Q 216.1 56.8, 216.9 57.7 Q 217.7 58.6, 217.7 60.2 Q 217.7 61.8, 216.9 62.7 Q 216.1 63.7, 214.6 63.7 Q 213.1 63.7, 212.3 62.7 Q 211.5 61.8, 211.5 60.2 M 214.6 62.9 Q 215.6 62.9, 216.2 62.2 Q 216.7 61.5, 216.7 60.2 Q 216.7 58.9, 216.2 58.2 Q 215.6 57.6, 214.6 57.6 Q 213.6 57.6, 213.0 58.2 Q 212.5 58.9, 212.5 60.2 Q 212.5 61.5, 213.0 62.2 Q 213.6 62.9, 214.6 62.9 " fill="#FF0000"/>
</g>
  </g>
</svg>
