<?xml version='1.0' encoding='ASCII' standalone='yes'?>
<svg xmlns="http://www.w3.org/2000/svg" xmlns:xlink="http://www.w3.org/1999/xlink" version="1.1" width="824.0px" viewBox="0 0 824.0 200.0" height="200.0px">
  <g>
    <g transform="translate(0, 0) scale(1 1) "><!-- END OF HEADER -->
<rect style="opacity:1.0;fill:#FFFFFF;stroke:none" width="254.0" height="200.0" x="0.0" y="0.0"> </rect>
<path class="bond-0 atom-0 atom-1" d="M 12.7,79.2 L 55.2,82.0" style="fill:none;fill-rule:evenodd;stroke:#000000;stroke-width:2.0px;stroke-linecap:butt;stroke-linejoin:miter;stroke-opacity:1"/>
<path class="bond-1 atom-1 atom-2" d="M 55.2,82.0 L 74.1,120.2" style="fill:none;fill-rule:evenodd;stroke:#000000;stroke-width:2.0px;stroke-linecap:butt;stroke-linejoin:miter;stroke-opacity:1"/>
<path class="bond-2 atom-2 atom-3" d="M 74.1,120.2 L 116.6,123.0" style="fill:none;fill-rule:evenodd;stroke:#000000;stroke-width:2.0px;stroke-linecap:butt;stroke-linejoin:miter;stroke-opacity:1"/>
<path class="bond-3 atom-3 atom-4" d="M 116.6,123.0 L 135.5,161.2" style="fill:none;fill-rule:evenodd;stroke:#000000;stroke-width:2.0px;stroke-linecap:butt;stroke-linejoin:miter;stroke-opacity:1"/>
<path class="bond-4 atom-4 atom-5" d="M 135.5,161.2 L 178.0,164.0" style="fill:none;fill-rule:evenodd;stroke:#000000;stroke-width:2.0px;stroke-linecap:butt;stroke-linejoin:miter;stroke-opacity:1"/>
<path class="bond-5 atom-3 atom-6" d="M 116.6,123.0 L 140.3,87.5" style="fill:none;fill-rule:evenodd;stroke:#000000;stroke-width:2.0px;stroke-linecap:butt;stroke-linejoin:miter;stroke-opacity:1"/>
<path class="bond-6 atom-6 atom-7" d="M 140.3,87.5 L 182.8,90.3" style="fill:none;fill-rule:evenodd;stroke:#000000;stroke-width:2.0px;stroke-linecap:butt;stroke-linejoin:miter;stroke-opacity:1"/>
<path class="bond-7 atom-7 atom-8" d="M 182.8,90.3 L 225.4,93.1" style="fill:none;fill-rule:evenodd;stroke:#000000;stroke-width:2.0px;stroke-linecap:butt;stroke-linejoin:miter;stroke-opacity:1"/>
<path class="bond-8 atom-7 atom-9" d="M 182.8,90.3 L 180.1,132.9" style="fill:none;fill-rule:evenodd;stroke:#000000;stroke-width:2.0px;stroke-linecap:butt;stroke-linejoin:miter;stroke-opacity:1"/>
<path class="bond-9 atom-9 atom-10" d="M 180.1,132.9 L 194.3,142.4" style="fill:none;fill-rule:evenodd;stroke:#000000;stroke-width:2.0px;stroke-linecap:butt;stroke-linejoin:miter;stroke-opacity:1"/>
<path class="bond-9 atom-9 atom-10" d="M 194.3,142.4 L 208.6,151.9" style="fill:none;fill-rule:evenodd;stroke:#FF0000;stroke-width:2.0px;stroke-linecap:butt;stroke-linejoin:miter;stroke-opacity:1"/>
<path class="bond-10 atom-7 atom-11" d="M 182.8,90.3 L 185.6,47.8" style="fill:none;fill-rule:evenodd;stroke:#000000;stroke-width:2.0px;stroke-linecap:butt;stroke-linejoin:miter;stroke-opacity:1"/>
<path class="bond-11 atom-11 atom-12" d="M 188.9,46.1 L 173.9,36.1" style="fill:none;fill-rule:evenodd;stroke:#000000;stroke-width:2.0px;stroke-linecap:butt;stroke-linejoin:miter;stroke-opacity:1"/>
<path class="bond-11 atom-11 atom-12" d="M 173.9,36.1 L 158.9,26.1" style="fill:none;fill-rule:evenodd;stroke:#FF0000;stroke-width:2.0px;stroke-linecap:butt;stroke-linejoin:miter;stroke-opacity:1"/>
<path class="bond-11 atom-11 atom-12" d="M 185.4,51.5 L 170.4,41.4" style="fill:none;fill-rule:evenodd;stroke:#000000;stroke-width:2.0px;stroke-linecap:butt;stroke-linejoin:miter;stroke-opacity:1"/>
<path class="bond-11 atom-11 atom-12" d="M 170.4,41.4 L 155.3,31.4" style="fill:none;fill-rule:evenodd;stroke:#FF0000;stroke-width:2.0px;stroke-linecap:butt;stroke-linejoin:miter;stroke-opacity:1"/>
<path class="bond-12 atom-11 atom-13" d="M 185.6,47.8 L 201.2,40.1" style="fill:none;fill-rule:evenodd;stroke:#000000;stroke-width:2.0px;stroke-linecap:butt;stroke-linejoin:miter;stroke-opacity:1"/>
<path class="bond-12 atom-11 atom-13" d="M 201.2,40.1 L 216.9,32.3" style="fill:none;fill-rule:evenodd;stroke:#FF0000;stroke-width:2.0px;stroke-linecap:butt;stroke-linejoin:miter;stroke-opacity:1"/>
<path d="M 53.1,81.9 L 55.2,82.0 L 56.2,83.9" style="fill:none;stroke:#000000;stroke-width:2.0px;stroke-linecap:butt;stroke-linejoin:miter;stroke-opacity:1;"/>
<path d="M 73.2,118.3 L 74.1,120.2 L 76.2,120.4" style="fill:none;stroke:#000000;stroke-width:2.0px;stroke-linecap:butt;stroke-linejoin:miter;stroke-opacity:1;"/>
<path d="M 134.6,159.3 L 135.5,161.2 L 137.6,161.4" style="fill:none;stroke:#000000;stroke-width:2.0px;stroke-linecap:butt;stroke-linejoin:miter;stroke-opacity:1;"/>
<path d="M 139.1,89.3 L 140.3,87.5 L 142.4,87.7" style="fill:none;stroke:#000000;stroke-width:2.0px;stroke-linecap:butt;stroke-linejoin:miter;stroke-opacity:1;"/>
<path d="M 180.2,130.7 L 180.1,132.9 L 180.8,133.3" style="fill:none;stroke:#000000;stroke-width:2.0px;stroke-linecap:butt;stroke-linejoin:miter;stroke-opacity:1;"/>
<path d="M 185.5,49.9 L 185.6,47.8 L 186.4,47.4" style="fill:none;stroke:#000000;stroke-width:2.0px;stroke-linecap:butt;stroke-linejoin:miter;stroke-opacity:1;"/>
<path class="atom-10" d="M 210.0 156.6 Q 210.0 153.7, 211.4 152.0 Q 212.8 150.4, 215.5 150.4 Q 218.2 150.4, 219.6 152.0 Q 221.1 153.7, 221.1 156.6 Q 221.1 159.5, 219.6 161.2 Q 218.2 162.8, 215.5 162.8 Q 212.9 162.8, 211.4 161.2 Q 210.0 159.5, 210.0 156.6 M 215.5 161.4 Q 217.4 161.4, 218.3 160.2 Q 219.3 159.0, 219.3 156.6 Q 219.3 154.2, 218.3 153.0 Q 217.4 151.8, 215.5 151.8 Q 213.7 151.8, 212.7 153.0 Q 211.7 154.2, 211.7 156.6 Q 211.7 159.0, 212.7 160.2 Q 213.7 161.4, 215.5 161.4 " fill="#FF0000"/>
<path class="atom-10" d="M 222.9 150.6 L 224.6 150.6 L 224.6 155.7 L 230.7 155.7 L 230.7 150.6 L 232.4 150.6 L 232.4 162.6 L 230.7 162.6 L 230.7 157.1 L 224.6 157.1 L 224.6 162.6 L 222.9 162.6 L 222.9 150.6 " fill="#FF0000"/>
<path class="atom-12" d="M 144.6 24.1 Q 144.6 21.2, 146.1 19.6 Q 147.5 18.0, 150.2 18.0 Q 152.8 18.0, 154.3 19.6 Q 155.7 21.2, 155.7 24.1 Q 155.7 27.1, 154.3 28.8 Q 152.8 30.4, 150.2 30.4 Q 147.5 30.4, 146.1 28.8 Q 144.6 27.1, 144.6 24.1 M 150.2 29.0 Q 152.0 29.0, 153.0 27.8 Q 154.0 26.6, 154.0 24.1 Q 154.0 21.8, 153.0 20.6 Q 152.0 19.4, 150.2 19.4 Q 148.3 19.4, 147.3 20.6 Q 146.3 21.8, 146.3 24.1 Q 146.3 26.6, 147.3 27.8 Q 148.3 29.0, 150.2 29.0 " fill="#FF0000"/>
<path class="atom-13" d="M 218.3 29.0 Q 218.3 26.1, 219.7 24.4 Q 221.2 22.8, 223.8 22.8 Q 226.5 22.8, 227.9 24.4 Q 229.4 26.1, 229.4 29.0 Q 229.4 31.9, 227.9 33.6 Q 226.5 35.2, 223.8 35.2 Q 221.2 35.2, 219.7 33.6 Q 218.3 31.9, 218.3 29.0 M 223.8 33.8 Q 225.7 33.8, 226.7 32.6 Q 227.7 31.4, 227.7 29.0 Q 227.7 26.6, 226.7 25.4 Q 225.7 24.2, 223.8 24.2 Q 222.0 24.2, 221.0 25.4 Q 220.0 26.6, 220.0 29.0 Q 220.0 31.4, 221.0 32.6 Q 222.0 33.8, 223.8 33.8 " fill="#FF0000"/>
<path class="atom-13" d="M 231.3 23.0 L 232.9 23.0 L 232.9 28.1 L 239.1 28.1 L 239.1 23.0 L 240.7 23.0 L 240.7 35.0 L 239.1 35.0 L 239.1 29.4 L 232.9 29.4 L 232.9 35.0 L 231.3 35.0 L 231.3 23.0 " fill="#FF0000"/>
<path class="legend" d="M 118.2 181.9 Q 118.2 179.6, 118.9 177.7 Q 119.5 175.8, 120.8 173.8 L 121.7 174.4 Q 120.7 176.3, 120.1 178.0 Q 119.6 179.7, 119.6 181.9 Q 119.6 184.0, 120.1 185.8 Q 120.7 187.5, 121.7 189.4 L 120.8 190.0 Q 119.5 188.0, 118.9 186.1 Q 118.2 184.2, 118.2 181.9 " fill="#000000"/>
<path class="legend" d="M 122.6 177.3 Q 123.1 176.2, 124.0 175.6 Q 125.0 175.0, 126.4 175.0 Q 128.1 175.0, 129.1 175.9 Q 130.0 176.8, 130.0 178.5 Q 130.0 180.2, 128.8 181.7 Q 127.6 183.3, 125.0 185.2 L 130.2 185.2 L 130.2 186.4 L 122.6 186.4 L 122.6 185.4 Q 124.7 183.9, 126.0 182.8 Q 127.2 181.6, 127.8 180.6 Q 128.4 179.6, 128.4 178.6 Q 128.4 177.5, 127.9 176.9 Q 127.4 176.3, 126.4 176.3 Q 125.5 176.3, 124.9 176.6 Q 124.3 177.0, 123.9 177.8 L 122.6 177.3 " fill="#000000"/>
<path class="legend" d="M 135.2 181.9 Q 135.2 184.2, 134.5 186.1 Q 133.9 188.0, 132.6 190.0 L 131.7 189.4 Q 132.7 187.5, 133.2 185.8 Q 133.8 184.0, 133.8 181.9 Q 133.8 179.7, 133.2 178.0 Q 132.7 176.3, 131.7 174.4 L 132.6 173.8 Q 133.9 175.8, 134.5 177.7 Q 135.2 179.6, 135.2 181.9 " fill="#000000"/>
</g>
    <g transform="translate(254.00000000000003, 0) scale(1 1) "><line x1="5" y1="100" x2="35" y2="100" style="stroke:rgb(0,0,0);stroke-width:2"/>
  <line x1="34" y1="100" x2="29" y2="95" style="stroke:rgb(0,0,0);stroke-width:2"/>
  <line x1="34" y1="100" x2="29" y2="105" style="stroke:rgb(0,0,0);stroke-width:2"/>
</g>
    <g transform="translate(294.0, 0) scale(1 1) "><!-- END OF HEADER -->
<rect style="opacity:1.0;fill:#FFFFFF;stroke:none" width="285.0" height="200.0" x="0.0" y="0.0"> </rect>
<path class="bond-0 atom-0 atom-1" d="M 14.2,169.1 L 46.2,151.6" style="fill:none;fill-rule:evenodd;stroke:#000000;stroke-width:2.0px;stroke-linecap:butt;stroke-linejoin:miter;stroke-opacity:1"/>
<path class="bond-1 atom-1 atom-2" d="M 46.2,151.6 L 47.1,115.2" style="fill:none;fill-rule:evenodd;stroke:#000000;stroke-width:2.0px;stroke-linecap:butt;stroke-linejoin:miter;stroke-opacity:1"/>
<path class="bond-2 atom-2 atom-3" d="M 47.1,115.2 L 79.0,97.7" style="fill:none;fill-rule:evenodd;stroke:#000000;stroke-width:2.0px;stroke-linecap:butt;stroke-linejoin:miter;stroke-opacity:1"/>
<path class="bond-3 atom-3 atom-4" d="M 79.0,97.7 L 79.9,61.3" style="fill:none;fill-rule:evenodd;stroke:#000000;stroke-width:2.0px;stroke-linecap:butt;stroke-linejoin:miter;stroke-opacity:1"/>
<path class="bond-4 atom-4 atom-5" d="M 79.9,61.3 L 111.8,43.8" style="fill:none;fill-rule:evenodd;stroke:#000000;stroke-width:2.0px;stroke-linecap:butt;stroke-linejoin:miter;stroke-opacity:1"/>
<path class="bond-5 atom-3 atom-6" d="M 79.0,97.7 L 110.1,116.7" style="fill:none;fill-rule:evenodd;stroke:#000000;stroke-width:2.0px;stroke-linecap:butt;stroke-linejoin:miter;stroke-opacity:1"/>
<path class="bond-6 atom-6 atom-7" d="M 110.1,116.7 L 142.1,99.2" style="fill:none;fill-rule:evenodd;stroke:#000000;stroke-width:2.0px;stroke-linecap:butt;stroke-linejoin:miter;stroke-opacity:1"/>
<path class="bond-7 atom-7 atom-8" d="M 142.1,99.2 L 174.0,81.7" style="fill:none;fill-rule:evenodd;stroke:#000000;stroke-width:2.0px;stroke-linecap:butt;stroke-linejoin:miter;stroke-opacity:1"/>
<path class="bond-8 atom-7 atom-9" d="M 142.1,99.2 L 124.6,67.2" style="fill:none;fill-rule:evenodd;stroke:#000000;stroke-width:2.0px;stroke-linecap:butt;stroke-linejoin:miter;stroke-opacity:1"/>
<path class="bond-9 atom-9 atom-10" d="M 126.1,70.0 L 134.0,57.0" style="fill:none;fill-rule:evenodd;stroke:#000000;stroke-width:2.0px;stroke-linecap:butt;stroke-linejoin:miter;stroke-opacity:1"/>
<path class="bond-9 atom-9 atom-10" d="M 134.0,57.0 L 141.8,44.1" style="fill:none;fill-rule:evenodd;stroke:#FF0000;stroke-width:2.0px;stroke-linecap:butt;stroke-linejoin:miter;stroke-opacity:1"/>
<path class="bond-9 atom-9 atom-10" d="M 121.9,66.5 L 129.4,54.2" style="fill:none;fill-rule:evenodd;stroke:#000000;stroke-width:2.0px;stroke-linecap:butt;stroke-linejoin:miter;stroke-opacity:1"/>
<path class="bond-9 atom-9 atom-10" d="M 129.4,54.2 L 137.3,41.3" style="fill:none;fill-rule:evenodd;stroke:#FF0000;stroke-width:2.0px;stroke-linecap:butt;stroke-linejoin:miter;stroke-opacity:1"/>
<path class="bond-10 atom-9 atom-11" d="M 124.6,67.2 L 116.0,64.9" style="fill:none;fill-rule:evenodd;stroke:#000000;stroke-width:2.0px;stroke-linecap:butt;stroke-linejoin:miter;stroke-opacity:1"/>
<path class="bond-10 atom-9 atom-11" d="M 116.0,64.9 L 107.5,62.5" style="fill:none;fill-rule:evenodd;stroke:#FF0000;stroke-width:2.0px;stroke-linecap:butt;stroke-linejoin:miter;stroke-opacity:1"/>
<path class="bond-11 atom-7 atom-12" d="M 142.1,99.2 L 159.5,131.1" style="fill:none;fill-rule:evenodd;stroke:#000000;stroke-width:2.0px;stroke-linecap:butt;stroke-linejoin:miter;stroke-opacity:1"/>
<path class="bond-12 atom-12 atom-13" d="M 159.5,131.1 L 152.0,143.5" style="fill:none;fill-rule:evenodd;stroke:#000000;stroke-width:2.0px;stroke-linecap:butt;stroke-linejoin:miter;stroke-opacity:1"/>
<path class="bond-12 atom-12 atom-13" d="M 152.0,143.5 L 144.5,155.9" style="fill:none;fill-rule:evenodd;stroke:#FF0000;stroke-width:2.0px;stroke-linecap:butt;stroke-linejoin:miter;stroke-opacity:1"/>
<path class="bond-13 atom-12 atom-14" d="M 159.5,131.1 L 196.0,132.0" style="fill:none;fill-rule:evenodd;stroke:#000000;stroke-width:2.0px;stroke-linecap:butt;stroke-linejoin:miter;stroke-opacity:1"/>
<path class="bond-14 atom-14 atom-15" d="M 196.0,132.0 L 213.4,164.0" style="fill:none;fill-rule:evenodd;stroke:#000000;stroke-width:2.0px;stroke-linecap:butt;stroke-linejoin:miter;stroke-opacity:1"/>
<path class="bond-15 atom-15 atom-16" d="M 213.4,164.0 L 249.8,164.8" style="fill:none;fill-rule:evenodd;stroke:#000000;stroke-width:2.0px;stroke-linecap:butt;stroke-linejoin:miter;stroke-opacity:1"/>
<path class="bond-16 atom-14 atom-17" d="M 196.0,132.0 L 214.9,100.9" style="fill:none;fill-rule:evenodd;stroke:#000000;stroke-width:2.0px;stroke-linecap:butt;stroke-linejoin:miter;stroke-opacity:1"/>
<path class="bond-17 atom-17 atom-18" d="M 214.9,100.9 L 251.3,101.7" style="fill:none;fill-rule:evenodd;stroke:#000000;stroke-width:2.0px;stroke-linecap:butt;stroke-linejoin:miter;stroke-opacity:1"/>
<path class="bond-18 atom-18 atom-19" d="M 251.3,101.7 L 270.2,70.6" style="fill:none;fill-rule:evenodd;stroke:#000000;stroke-width:2.0px;stroke-linecap:butt;stroke-linejoin:miter;stroke-opacity:1"/>
<path d="M 44.6,152.5 L 46.2,151.6 L 46.2,149.8" style="fill:none;stroke:#000000;stroke-width:2.0px;stroke-linecap:butt;stroke-linejoin:miter;stroke-opacity:1;"/>
<path d="M 47.0,117.0 L 47.1,115.2 L 48.6,114.3" style="fill:none;stroke:#000000;stroke-width:2.0px;stroke-linecap:butt;stroke-linejoin:miter;stroke-opacity:1;"/>
<path d="M 79.8,63.1 L 79.9,61.3 L 81.5,60.4" style="fill:none;stroke:#000000;stroke-width:2.0px;stroke-linecap:butt;stroke-linejoin:miter;stroke-opacity:1;"/>
<path d="M 108.6,115.7 L 110.1,116.7 L 111.7,115.8" style="fill:none;stroke:#000000;stroke-width:2.0px;stroke-linecap:butt;stroke-linejoin:miter;stroke-opacity:1;"/>
<path d="M 125.5,68.8 L 124.6,67.2 L 124.2,67.1" style="fill:none;stroke:#000000;stroke-width:2.0px;stroke-linecap:butt;stroke-linejoin:miter;stroke-opacity:1;"/>
<path d="M 212.6,162.4 L 213.4,164.0 L 215.3,164.0" style="fill:none;stroke:#000000;stroke-width:2.0px;stroke-linecap:butt;stroke-linejoin:miter;stroke-opacity:1;"/>
<path d="M 214.0,102.4 L 214.9,100.9 L 216.7,100.9" style="fill:none;stroke:#000000;stroke-width:2.0px;stroke-linecap:butt;stroke-linejoin:miter;stroke-opacity:1;"/>
<path d="M 249.5,101.7 L 251.3,101.7 L 252.3,100.2" style="fill:none;stroke:#000000;stroke-width:2.0px;stroke-linecap:butt;stroke-linejoin:miter;stroke-opacity:1;"/>
<path class="atom-10" d="M 138.8 36.2 Q 138.8 33.7, 140.0 32.3 Q 141.3 30.9, 143.5 30.9 Q 145.8 30.9, 147.1 32.3 Q 148.3 33.7, 148.3 36.2 Q 148.3 38.7, 147.0 40.1 Q 145.8 41.5, 143.5 41.5 Q 141.3 41.5, 140.0 40.1 Q 138.8 38.7, 138.8 36.2 M 143.5 40.3 Q 145.1 40.3, 146.0 39.3 Q 146.8 38.2, 146.8 36.2 Q 146.8 34.1, 146.0 33.1 Q 145.1 32.1, 143.5 32.1 Q 142.0 32.1, 141.1 33.1 Q 140.3 34.1, 140.3 36.2 Q 140.3 38.2, 141.1 39.3 Q 142.0 40.3, 143.5 40.3 " fill="#FF0000"/>
<path class="atom-11" d="M 86.6 55.8 L 88.0 55.8 L 88.0 60.2 L 93.3 60.2 L 93.3 55.8 L 94.7 55.8 L 94.7 66.1 L 93.3 66.1 L 93.3 61.4 L 88.0 61.4 L 88.0 66.1 L 86.6 66.1 L 86.6 55.8 " fill="#FF0000"/>
<path class="atom-11" d="M 96.8 60.9 Q 96.8 58.5, 98.0 57.1 Q 99.3 55.7, 101.6 55.7 Q 103.8 55.7, 105.1 57.1 Q 106.3 58.5, 106.3 60.9 Q 106.3 63.5, 105.1 64.9 Q 103.8 66.3, 101.6 66.3 Q 99.3 66.3, 98.0 64.9 Q 96.8 63.5, 96.8 60.9 M 101.6 65.1 Q 103.1 65.1, 104.0 64.1 Q 104.8 63.0, 104.8 60.9 Q 104.8 58.9, 104.0 57.9 Q 103.1 56.9, 101.6 56.9 Q 100.0 56.9, 99.1 57.9 Q 98.3 58.9, 98.3 60.9 Q 98.3 63.0, 99.1 64.1 Q 100.0 65.1, 101.6 65.1 " fill="#FF0000"/>
<path class="atom-13" d="M 125.7 157.2 L 127.1 157.2 L 127.1 161.5 L 132.4 161.5 L 132.4 157.2 L 133.8 157.2 L 133.8 167.5 L 132.4 167.5 L 132.4 162.7 L 127.1 162.7 L 127.1 167.5 L 125.7 167.5 L 125.7 157.2 " fill="#FF0000"/>
<path class="atom-13" d="M 135.9 162.3 Q 135.9 159.8, 137.1 158.4 Q 138.3 157.0, 140.6 157.0 Q 142.9 157.0, 144.1 158.4 Q 145.3 159.8, 145.3 162.3 Q 145.3 164.8, 144.1 166.2 Q 142.9 167.6, 140.6 167.6 Q 138.3 167.6, 137.1 166.2 Q 135.9 164.8, 135.9 162.3 M 140.6 166.5 Q 142.2 166.5, 143.0 165.4 Q 143.9 164.4, 143.9 162.3 Q 143.9 160.3, 143.0 159.2 Q 142.2 158.2, 140.6 158.2 Q 139.0 158.2, 138.2 159.2 Q 137.3 160.3, 137.3 162.3 Q 137.3 164.4, 138.2 165.4 Q 139.0 166.5, 140.6 166.5 " fill="#FF0000"/>
</g>
    <g transform="translate(579.0, 0) scale(1 1) "><line x1="15" y1="100" x2="25" y2="100" style="stroke:rgb(0,0,0);stroke-width:2"/>
  <line x1="20" y1="95" x2="20" y2="105" style="stroke:rgb(0,0,0);stroke-width:2"/>
</g>
    <g transform="translate(619.0, 0) scale(1 1) "><!-- END OF HEADER -->
<rect style="opacity:1.0;fill:#FFFFFF;stroke:none" width="205.0" height="200.0" x="0.0" y="0.0"> </rect>
<path class="bond-0 atom-0 atom-1" d="M 122.6,44.3 L 108.8,89.2" style="fill:none;fill-rule:evenodd;stroke:#000000;stroke-width:2.0px;stroke-linecap:butt;stroke-linejoin:miter;stroke-opacity:1"/>
<path class="bond-1 atom-1 atom-2" d="M 108.8,89.2 L 95.0,134.1" style="fill:none;fill-rule:evenodd;stroke:#000000;stroke-width:2.0px;stroke-linecap:butt;stroke-linejoin:miter;stroke-opacity:1"/>
<path class="bond-2 atom-1 atom-3" d="M 108.8,89.2 L 63.9,75.4" style="fill:none;fill-rule:evenodd;stroke:#000000;stroke-width:2.0px;stroke-linecap:butt;stroke-linejoin:miter;stroke-opacity:1"/>
<path class="bond-3 atom-3 atom-4" d="M 63.9,75.4 L 50.5,87.9" style="fill:none;fill-rule:evenodd;stroke:#000000;stroke-width:2.0px;stroke-linecap:butt;stroke-linejoin:miter;stroke-opacity:1"/>
<path class="bond-3 atom-3 atom-4" d="M 50.5,87.9 L 37.2,100.3" style="fill:none;fill-rule:evenodd;stroke:#FF0000;stroke-width:2.0px;stroke-linecap:butt;stroke-linejoin:miter;stroke-opacity:1"/>
<path class="bond-4 atom-1 atom-5" d="M 108.8,89.2 L 153.7,103.0" style="fill:none;fill-rule:evenodd;stroke:#000000;stroke-width:2.0px;stroke-linecap:butt;stroke-linejoin:miter;stroke-opacity:1"/>
<path class="bond-5 atom-5 atom-6" d="M 154.7,107.0 L 168.8,93.8" style="fill:none;fill-rule:evenodd;stroke:#000000;stroke-width:2.0px;stroke-linecap:butt;stroke-linejoin:miter;stroke-opacity:1"/>
<path class="bond-5 atom-5 atom-6" d="M 168.8,93.8 L 182.9,80.7" style="fill:none;fill-rule:evenodd;stroke:#FF0000;stroke-width:2.0px;stroke-linecap:butt;stroke-linejoin:miter;stroke-opacity:1"/>
<path class="bond-5 atom-5 atom-6" d="M 149.9,101.8 L 164.0,88.7" style="fill:none;fill-rule:evenodd;stroke:#000000;stroke-width:2.0px;stroke-linecap:butt;stroke-linejoin:miter;stroke-opacity:1"/>
<path class="bond-5 atom-5 atom-6" d="M 164.0,88.7 L 178.1,75.5" style="fill:none;fill-rule:evenodd;stroke:#FF0000;stroke-width:2.0px;stroke-linecap:butt;stroke-linejoin:miter;stroke-opacity:1"/>
<path class="bond-6 atom-5 atom-7" d="M 153.7,103.0 L 158.0,121.7" style="fill:none;fill-rule:evenodd;stroke:#000000;stroke-width:2.0px;stroke-linecap:butt;stroke-linejoin:miter;stroke-opacity:1"/>
<path class="bond-6 atom-5 atom-7" d="M 158.0,121.7 L 162.4,140.5" style="fill:none;fill-rule:evenodd;stroke:#FF0000;stroke-width:2.0px;stroke-linecap:butt;stroke-linejoin:miter;stroke-opacity:1"/>
<path d="M 66.1,76.1 L 63.9,75.4 L 63.2,76.0" style="fill:none;stroke:#000000;stroke-width:2.0px;stroke-linecap:butt;stroke-linejoin:miter;stroke-opacity:1;"/>
<path d="M 151.5,102.3 L 153.7,103.0 L 154.0,103.9" style="fill:none;stroke:#000000;stroke-width:2.0px;stroke-linecap:butt;stroke-linejoin:miter;stroke-opacity:1;"/>
<path class="atom-4" d="M 10.2 100.8 L 12.1 100.8 L 12.1 106.5 L 18.9 106.5 L 18.9 100.8 L 20.7 100.8 L 20.7 114.1 L 18.9 114.1 L 18.9 108.0 L 12.1 108.0 L 12.1 114.1 L 10.2 114.1 L 10.2 100.8 " fill="#FF0000"/>
<path class="atom-4" d="M 23.4 107.5 Q 23.4 104.3, 25.0 102.5 Q 26.5 100.7, 29.5 100.7 Q 32.5 100.7, 34.0 102.5 Q 35.6 104.3, 35.6 107.5 Q 35.6 110.7, 34.0 112.5 Q 32.4 114.4, 29.5 114.4 Q 26.6 114.4, 25.0 112.5 Q 23.4 110.7, 23.4 107.5 M 29.5 112.9 Q 31.5 112.9, 32.6 111.5 Q 33.7 110.1, 33.7 107.5 Q 33.7 104.8, 32.6 103.5 Q 31.5 102.2, 29.5 102.2 Q 27.5 102.2, 26.4 103.5 Q 25.3 104.8, 25.3 107.5 Q 25.3 110.1, 26.4 111.5 Q 27.5 112.9, 29.5 112.9 " fill="#FF0000"/>
<path class="atom-6" d="M 182.0 71.0 Q 182.0 67.8, 183.6 66.0 Q 185.2 64.3, 188.1 64.3 Q 191.1 64.3, 192.7 66.0 Q 194.3 67.8, 194.3 71.0 Q 194.3 74.3, 192.7 76.1 Q 191.1 77.9, 188.1 77.9 Q 185.2 77.9, 183.6 76.1 Q 182.0 74.3, 182.0 71.0 M 188.1 76.4 Q 190.2 76.4, 191.3 75.1 Q 192.4 73.7, 192.4 71.0 Q 192.4 68.4, 191.3 67.1 Q 190.2 65.8, 188.1 65.8 Q 186.1 65.8, 185.0 67.1 Q 183.9 68.4, 183.9 71.0 Q 183.9 73.7, 185.0 75.1 Q 186.1 76.4, 188.1 76.4 " fill="#FF0000"/>
<path class="atom-7" d="M 158.2 148.8 Q 158.2 145.6, 159.7 143.8 Q 161.3 142.1, 164.3 142.1 Q 167.2 142.1, 168.8 143.8 Q 170.4 145.6, 170.4 148.8 Q 170.4 152.1, 168.8 153.9 Q 167.2 155.7, 164.3 155.7 Q 161.3 155.7, 159.7 153.9 Q 158.2 152.1, 158.2 148.8 M 164.3 154.2 Q 166.3 154.2, 167.4 152.9 Q 168.5 151.5, 168.5 148.8 Q 168.5 146.2, 167.4 144.9 Q 166.3 143.6, 164.3 143.6 Q 162.2 143.6, 161.1 144.9 Q 160.0 146.2, 160.0 148.8 Q 160.0 151.5, 161.1 152.9 Q 162.2 154.2, 164.3 154.2 " fill="#FF0000"/>
<path class="atom-7" d="M 172.4 142.2 L 174.2 142.2 L 174.2 147.9 L 181.0 147.9 L 181.0 142.2 L 182.9 142.2 L 182.9 155.5 L 181.0 155.5 L 181.0 149.4 L 174.2 149.4 L 174.2 155.5 L 172.4 155.5 L 172.4 142.2 " fill="#FF0000"/>
</g>
  </g>
</svg>
