<?xml version='1.0' encoding='ASCII' standalone='yes'?>
<svg xmlns="http://www.w3.org/2000/svg" xmlns:xlink="http://www.w3.org/1999/xlink" version="1.1" width="870.0px" viewBox="0 0 870.0 200.0" height="200.0px">
  <g>
    <g transform="translate(0, 0) scale(1 1) "><!-- END OF HEADER -->
<rect style="opacity:1.0;fill:#FFFFFF;stroke:none" width="271.0" height="200.0" x="0.0" y="0.0"> </rect>
<path class="bond-0 atom-0 atom-1" d="M 65.1,72.4 L 96.8,88.9" style="fill:none;fill-rule:evenodd;stroke:#000000;stroke-width:2.0px;stroke-linecap:butt;stroke-linejoin:miter;stroke-opacity:1"/>
<path class="bond-1 atom-1 atom-2" d="M 96.8,88.9 L 113.2,57.2" style="fill:none;fill-rule:evenodd;stroke:#000000;stroke-width:2.0px;stroke-linecap:butt;stroke-linejoin:miter;stroke-opacity:1"/>
<path class="bond-2 atom-2 atom-3" d="M 113.2,57.2 L 105.7,45.4" style="fill:none;fill-rule:evenodd;stroke:#000000;stroke-width:2.0px;stroke-linecap:butt;stroke-linejoin:miter;stroke-opacity:1"/>
<path class="bond-2 atom-2 atom-3" d="M 105.7,45.4 L 98.1,33.6" style="fill:none;fill-rule:evenodd;stroke:#FF0000;stroke-width:2.0px;stroke-linecap:butt;stroke-linejoin:miter;stroke-opacity:1"/>
<path class="bond-3 atom-1 atom-4" d="M 96.8,88.9 L 128.4,105.3" style="fill:none;fill-rule:evenodd;stroke:#000000;stroke-width:2.0px;stroke-linecap:butt;stroke-linejoin:miter;stroke-opacity:1"/>
<path class="bond-4 atom-4 atom-5" d="M 128.4,105.3 L 158.5,86.1" style="fill:none;fill-rule:evenodd;stroke:#000000;stroke-width:2.0px;stroke-linecap:butt;stroke-linejoin:miter;stroke-opacity:1"/>
<path class="bond-5 atom-5 atom-6" d="M 158.5,86.1 L 157.9,71.5" style="fill:none;fill-rule:evenodd;stroke:#000000;stroke-width:2.0px;stroke-linecap:butt;stroke-linejoin:miter;stroke-opacity:1"/>
<path class="bond-5 atom-5 atom-6" d="M 157.9,71.5 L 157.2,56.9" style="fill:none;fill-rule:evenodd;stroke:#FF0000;stroke-width:2.0px;stroke-linecap:butt;stroke-linejoin:miter;stroke-opacity:1"/>
<path class="bond-6 atom-5 atom-7" d="M 158.5,86.1 L 190.2,102.6" style="fill:none;fill-rule:evenodd;stroke:#000000;stroke-width:2.0px;stroke-linecap:butt;stroke-linejoin:miter;stroke-opacity:1"/>
<path class="bond-7 atom-7 atom-8" d="M 190.2,102.6 L 173.7,134.3" style="fill:none;fill-rule:evenodd;stroke:#000000;stroke-width:2.0px;stroke-linecap:butt;stroke-linejoin:miter;stroke-opacity:1"/>
<path class="bond-8 atom-7 atom-9" d="M 190.2,102.6 L 206.6,70.9" style="fill:none;fill-rule:evenodd;stroke:#000000;stroke-width:2.0px;stroke-linecap:butt;stroke-linejoin:miter;stroke-opacity:1"/>
<path class="bond-9 atom-7 atom-10" d="M 190.2,102.6 L 221.8,119.1" style="fill:none;fill-rule:evenodd;stroke:#000000;stroke-width:2.0px;stroke-linecap:butt;stroke-linejoin:miter;stroke-opacity:1"/>
<path class="bond-10 atom-10 atom-11" d="M 222.0,122.2 L 234.7,114.0" style="fill:none;fill-rule:evenodd;stroke:#000000;stroke-width:2.0px;stroke-linecap:butt;stroke-linejoin:miter;stroke-opacity:1"/>
<path class="bond-10 atom-10 atom-11" d="M 234.7,114.0 L 247.5,105.9" style="fill:none;fill-rule:evenodd;stroke:#FF0000;stroke-width:2.0px;stroke-linecap:butt;stroke-linejoin:miter;stroke-opacity:1"/>
<path class="bond-10 atom-10 atom-11" d="M 219.1,117.6 L 231.9,109.5" style="fill:none;fill-rule:evenodd;stroke:#000000;stroke-width:2.0px;stroke-linecap:butt;stroke-linejoin:miter;stroke-opacity:1"/>
<path class="bond-10 atom-10 atom-11" d="M 231.9,109.5 L 244.7,101.3" style="fill:none;fill-rule:evenodd;stroke:#FF0000;stroke-width:2.0px;stroke-linecap:butt;stroke-linejoin:miter;stroke-opacity:1"/>
<path class="bond-11 atom-10 atom-12" d="M 221.8,119.1 L 222.5,133.8" style="fill:none;fill-rule:evenodd;stroke:#000000;stroke-width:2.0px;stroke-linecap:butt;stroke-linejoin:miter;stroke-opacity:1"/>
<path class="bond-11 atom-10 atom-12" d="M 222.5,133.8 L 223.1,148.4" style="fill:none;fill-rule:evenodd;stroke:#FF0000;stroke-width:2.0px;stroke-linecap:butt;stroke-linejoin:miter;stroke-opacity:1"/>
<path class="bond-12 atom-1 atom-13" d="M 96.8,88.9 L 80.3,120.5" style="fill:none;fill-rule:evenodd;stroke:#000000;stroke-width:2.0px;stroke-linecap:butt;stroke-linejoin:miter;stroke-opacity:1"/>
<path class="bond-13 atom-13 atom-14" d="M 80.3,120.5 L 87.9,132.4" style="fill:none;fill-rule:evenodd;stroke:#000000;stroke-width:2.0px;stroke-linecap:butt;stroke-linejoin:miter;stroke-opacity:1"/>
<path class="bond-13 atom-13 atom-14" d="M 87.9,132.4 L 95.5,144.3" style="fill:none;fill-rule:evenodd;stroke:#FF0000;stroke-width:2.0px;stroke-linecap:butt;stroke-linejoin:miter;stroke-opacity:1"/>
<path class="bond-14 atom-13 atom-15" d="M 80.3,120.5 L 44.6,122.1" style="fill:none;fill-rule:evenodd;stroke:#000000;stroke-width:2.0px;stroke-linecap:butt;stroke-linejoin:miter;stroke-opacity:1"/>
<path class="bond-15 atom-15 atom-16" d="M 44.6,122.1 L 38.0,134.8" style="fill:none;fill-rule:evenodd;stroke:#000000;stroke-width:2.0px;stroke-linecap:butt;stroke-linejoin:miter;stroke-opacity:1"/>
<path class="bond-15 atom-15 atom-16" d="M 38.0,134.8 L 31.4,147.5" style="fill:none;fill-rule:evenodd;stroke:#FF0000;stroke-width:2.0px;stroke-linecap:butt;stroke-linejoin:miter;stroke-opacity:1"/>
<path d="M 112.4,58.8 L 113.2,57.2 L 112.8,56.6" style="fill:none;stroke:#000000;stroke-width:2.0px;stroke-linecap:butt;stroke-linejoin:miter;stroke-opacity:1;"/>
<path d="M 126.8,104.5 L 128.4,105.3 L 129.9,104.4" style="fill:none;stroke:#000000;stroke-width:2.0px;stroke-linecap:butt;stroke-linejoin:miter;stroke-opacity:1;"/>
<path d="M 220.2,118.3 L 221.8,119.1 L 221.9,119.8" style="fill:none;stroke:#000000;stroke-width:2.0px;stroke-linecap:butt;stroke-linejoin:miter;stroke-opacity:1;"/>
<path d="M 46.4,122.0 L 44.6,122.1 L 44.3,122.7" style="fill:none;stroke:#000000;stroke-width:2.0px;stroke-linecap:butt;stroke-linejoin:miter;stroke-opacity:1;"/>
<path class="atom-3" d="M 79.4 22.1 L 80.8 22.1 L 80.8 26.4 L 85.9 26.4 L 85.9 22.1 L 87.3 22.1 L 87.3 32.2 L 85.9 32.2 L 85.9 27.6 L 80.8 27.6 L 80.8 32.2 L 79.4 32.2 L 79.4 22.1 " fill="#FF0000"/>
<path class="atom-3" d="M 89.4 27.1 Q 89.4 24.7, 90.6 23.4 Q 91.8 22.0, 94.0 22.0 Q 96.3 22.0, 97.5 23.4 Q 98.7 24.7, 98.7 27.1 Q 98.7 29.6, 97.5 31.0 Q 96.2 32.4, 94.0 32.4 Q 91.8 32.4, 90.6 31.0 Q 89.4 29.6, 89.4 27.1 M 94.0 31.2 Q 95.6 31.2, 96.4 30.2 Q 97.2 29.2, 97.2 27.1 Q 97.2 25.2, 96.4 24.2 Q 95.6 23.1, 94.0 23.1 Q 92.5 23.1, 91.6 24.1 Q 90.8 25.1, 90.8 27.1 Q 90.8 29.2, 91.6 30.2 Q 92.5 31.2, 94.0 31.2 " fill="#FF0000"/>
<path class="atom-6" d="M 152.3 50.5 Q 152.3 48.1, 153.5 46.7 Q 154.7 45.4, 156.9 45.4 Q 159.2 45.4, 160.4 46.7 Q 161.6 48.1, 161.6 50.5 Q 161.6 53.0, 160.4 54.4 Q 159.1 55.8, 156.9 55.8 Q 154.7 55.8, 153.5 54.4 Q 152.3 53.0, 152.3 50.5 M 156.9 54.6 Q 158.5 54.6, 159.3 53.6 Q 160.1 52.5, 160.1 50.5 Q 160.1 48.5, 159.3 47.5 Q 158.5 46.5, 156.9 46.5 Q 155.4 46.5, 154.5 47.5 Q 153.7 48.5, 153.7 50.5 Q 153.7 52.6, 154.5 53.6 Q 155.4 54.6, 156.9 54.6 " fill="#FF0000"/>
<path class="atom-6" d="M 163.1 45.5 L 164.5 45.5 L 164.5 49.8 L 169.7 49.8 L 169.7 45.5 L 171.1 45.5 L 171.1 55.6 L 169.7 55.6 L 169.7 50.9 L 164.5 50.9 L 164.5 55.6 L 163.1 55.6 L 163.1 45.5 " fill="#FF0000"/>
<path class="atom-11" d="M 247.3 99.9 Q 247.3 97.5, 248.5 96.1 Q 249.7 94.8, 251.9 94.8 Q 254.2 94.8, 255.4 96.1 Q 256.6 97.5, 256.6 99.9 Q 256.6 102.4, 255.3 103.8 Q 254.1 105.2, 251.9 105.2 Q 249.7 105.2, 248.5 103.8 Q 247.3 102.4, 247.3 99.9 M 251.9 104.0 Q 253.5 104.0, 254.3 103.0 Q 255.1 101.9, 255.1 99.9 Q 255.1 97.9, 254.3 96.9 Q 253.5 95.9, 251.9 95.9 Q 250.4 95.9, 249.5 96.9 Q 248.7 97.9, 248.7 99.9 Q 248.7 102.0, 249.5 103.0 Q 250.4 104.0, 251.9 104.0 " fill="#FF0000"/>
<path class="atom-12" d="M 218.8 154.8 Q 218.8 152.3, 220.0 151.0 Q 221.2 149.6, 223.4 149.6 Q 225.6 149.6, 226.8 151.0 Q 228.0 152.3, 228.0 154.8 Q 228.0 157.2, 226.8 158.6 Q 225.6 160.0, 223.4 160.0 Q 221.2 160.0, 220.0 158.6 Q 218.8 157.2, 218.8 154.8 M 223.4 158.9 Q 224.9 158.9, 225.8 157.8 Q 226.6 156.8, 226.6 154.8 Q 226.6 152.8, 225.8 151.8 Q 224.9 150.8, 223.4 150.8 Q 221.9 150.8, 221.0 151.8 Q 220.2 152.8, 220.2 154.8 Q 220.2 156.8, 221.0 157.8 Q 221.9 158.9, 223.4 158.9 " fill="#FF0000"/>
<path class="atom-12" d="M 229.6 149.7 L 231.0 149.7 L 231.0 154.0 L 236.1 154.0 L 236.1 149.7 L 237.5 149.7 L 237.5 159.8 L 236.1 159.8 L 236.1 155.2 L 231.0 155.2 L 231.0 159.8 L 229.6 159.8 L 229.6 149.7 " fill="#FF0000"/>
<path class="atom-14" d="M 94.8 150.6 Q 94.8 148.2, 96.0 146.9 Q 97.2 145.5, 99.5 145.5 Q 101.7 145.5, 102.9 146.9 Q 104.1 148.2, 104.1 150.6 Q 104.1 153.1, 102.9 154.5 Q 101.7 155.9, 99.5 155.9 Q 97.2 155.9, 96.0 154.5 Q 94.8 153.1, 94.8 150.6 M 99.5 154.7 Q 101.0 154.7, 101.8 153.7 Q 102.7 152.7, 102.7 150.6 Q 102.7 148.7, 101.8 147.7 Q 101.0 146.6, 99.5 146.6 Q 97.9 146.6, 97.1 147.6 Q 96.3 148.6, 96.3 150.6 Q 96.3 152.7, 97.1 153.7 Q 97.9 154.7, 99.5 154.7 " fill="#FF0000"/>
<path class="atom-14" d="M 105.7 145.6 L 107.1 145.6 L 107.1 149.9 L 112.2 149.9 L 112.2 145.6 L 113.6 145.6 L 113.6 155.7 L 112.2 155.7 L 112.2 151.1 L 107.1 151.1 L 107.1 155.7 L 105.7 155.7 L 105.7 145.6 " fill="#FF0000"/>
<path class="atom-16" d="M 13.5 148.8 L 14.9 148.8 L 14.9 153.1 L 20.1 153.1 L 20.1 148.8 L 21.5 148.8 L 21.5 158.9 L 20.1 158.9 L 20.1 154.2 L 14.9 154.2 L 14.9 158.9 L 13.5 158.9 L 13.5 148.8 " fill="#FF0000"/>
<path class="atom-16" d="M 23.5 153.8 Q 23.5 151.4, 24.7 150.0 Q 25.9 148.6, 28.2 148.6 Q 30.4 148.6, 31.6 150.0 Q 32.8 151.4, 32.8 153.8 Q 32.8 156.2, 31.6 157.6 Q 30.4 159.0, 28.2 159.0 Q 25.9 159.0, 24.7 157.6 Q 23.5 156.3, 23.5 153.8 M 28.2 157.9 Q 29.7 157.9, 30.5 156.9 Q 31.4 155.8, 31.4 153.8 Q 31.4 151.8, 30.5 150.8 Q 29.7 149.8, 28.2 149.8 Q 26.6 149.8, 25.8 150.8 Q 25.0 151.8, 25.0 153.8 Q 25.0 155.8, 25.8 156.9 Q 26.6 157.9, 28.2 157.9 " fill="#FF0000"/>
<path class="legend" d="M 126.0 181.9 Q 126.0 179.6, 126.7 177.7 Q 127.4 175.8, 128.7 173.8 L 129.6 174.4 Q 128.5 176.3, 128.0 178.0 Q 127.5 179.7, 127.5 181.9 Q 127.5 184.0, 128.0 185.8 Q 128.5 187.5, 129.6 189.4 L 128.7 190.0 Q 127.4 188.0, 126.7 186.1 Q 126.0 184.2, 126.0 181.9 " fill="#000000"/>
<path class="legend" d="M 130.5 177.3 Q 130.9 176.2, 131.9 175.6 Q 132.9 175.0, 134.3 175.0 Q 136.0 175.0, 136.9 175.9 Q 137.9 176.8, 137.9 178.5 Q 137.9 180.2, 136.6 181.7 Q 135.4 183.3, 132.9 185.2 L 138.1 185.2 L 138.1 186.4 L 130.5 186.4 L 130.5 185.4 Q 132.6 183.9, 133.8 182.8 Q 135.1 181.6, 135.7 180.6 Q 136.3 179.6, 136.3 178.6 Q 136.3 177.5, 135.8 176.9 Q 135.2 176.3, 134.3 176.3 Q 133.3 176.3, 132.7 176.6 Q 132.1 177.0, 131.7 177.8 L 130.5 177.3 " fill="#000000"/>
<path class="legend" d="M 143.1 181.9 Q 143.1 184.2, 142.4 186.1 Q 141.7 188.0, 140.4 190.0 L 139.5 189.4 Q 140.6 187.5, 141.1 185.8 Q 141.6 184.0, 141.6 181.9 Q 141.6 179.7, 141.1 178.0 Q 140.6 176.3, 139.5 174.4 L 140.4 173.8 Q 141.7 175.8, 142.4 177.7 Q 143.1 179.6, 143.1 181.9 " fill="#000000"/>
</g>
    <g transform="translate(271.0, 0) scale(1 1) "><line x1="5" y1="100" x2="35" y2="100" style="stroke:rgb(0,0,0);stroke-width:2"/>
  <line x1="34" y1="100" x2="29" y2="95" style="stroke:rgb(0,0,0);stroke-width:2"/>
  <line x1="34" y1="100" x2="29" y2="105" style="stroke:rgb(0,0,0);stroke-width:2"/>
</g>
    <g transform="translate(311.0, 0) scale(1 1) "><!-- END OF HEADER -->
<rect style="opacity:1.0;fill:#FFFFFF;stroke:none" width="304.0" height="200.0" x="0.0" y="0.0"> </rect>
<path class="bond-0 atom-0 atom-1" d="M 159.3,48.6 L 140.1,74.2" style="fill:none;fill-rule:evenodd;stroke:#000000;stroke-width:2.0px;stroke-linecap:butt;stroke-linejoin:miter;stroke-opacity:1"/>
<path class="bond-1 atom-1 atom-2" d="M 140.1,74.2 L 114.6,55.1" style="fill:none;fill-rule:evenodd;stroke:#000000;stroke-width:2.0px;stroke-linecap:butt;stroke-linejoin:miter;stroke-opacity:1"/>
<path class="bond-2 atom-2 atom-3" d="M 114.6,55.1 L 116.1,42.1" style="fill:none;fill-rule:evenodd;stroke:#000000;stroke-width:2.0px;stroke-linecap:butt;stroke-linejoin:miter;stroke-opacity:1"/>
<path class="bond-2 atom-2 atom-3" d="M 116.1,42.1 L 117.6,29.1" style="fill:none;fill-rule:evenodd;stroke:#FF0000;stroke-width:2.0px;stroke-linecap:butt;stroke-linejoin:miter;stroke-opacity:1"/>
<path class="bond-3 atom-1 atom-4" d="M 140.1,74.2 L 121.0,99.8" style="fill:none;fill-rule:evenodd;stroke:#000000;stroke-width:2.0px;stroke-linecap:butt;stroke-linejoin:miter;stroke-opacity:1"/>
<path class="bond-4 atom-4 atom-5" d="M 121.0,99.8 L 89.3,96.0" style="fill:none;fill-rule:evenodd;stroke:#000000;stroke-width:2.0px;stroke-linecap:butt;stroke-linejoin:miter;stroke-opacity:1"/>
<path class="bond-5 atom-5 atom-6" d="M 89.3,96.0 L 84.2,84.2" style="fill:none;fill-rule:evenodd;stroke:#000000;stroke-width:2.0px;stroke-linecap:butt;stroke-linejoin:miter;stroke-opacity:1"/>
<path class="bond-5 atom-5 atom-6" d="M 84.2,84.2 L 79.2,72.4" style="fill:none;fill-rule:evenodd;stroke:#FF0000;stroke-width:2.0px;stroke-linecap:butt;stroke-linejoin:miter;stroke-opacity:1"/>
<path class="bond-6 atom-5 atom-7" d="M 89.3,96.0 L 70.2,121.6" style="fill:none;fill-rule:evenodd;stroke:#000000;stroke-width:2.0px;stroke-linecap:butt;stroke-linejoin:miter;stroke-opacity:1"/>
<path class="bond-7 atom-7 atom-8" d="M 70.2,121.6 L 95.8,140.7" style="fill:none;fill-rule:evenodd;stroke:#000000;stroke-width:2.0px;stroke-linecap:butt;stroke-linejoin:miter;stroke-opacity:1"/>
<path class="bond-8 atom-7 atom-9" d="M 70.2,121.6 L 44.6,102.5" style="fill:none;fill-rule:evenodd;stroke:#000000;stroke-width:2.0px;stroke-linecap:butt;stroke-linejoin:miter;stroke-opacity:1"/>
<path class="bond-9 atom-7 atom-10" d="M 70.2,121.6 L 51.1,147.2" style="fill:none;fill-rule:evenodd;stroke:#000000;stroke-width:2.0px;stroke-linecap:butt;stroke-linejoin:miter;stroke-opacity:1"/>
<path class="bond-10 atom-10 atom-11" d="M 52.7,144.9 L 38.8,143.3" style="fill:none;fill-rule:evenodd;stroke:#000000;stroke-width:2.0px;stroke-linecap:butt;stroke-linejoin:miter;stroke-opacity:1"/>
<path class="bond-10 atom-10 atom-11" d="M 38.8,143.3 L 24.8,141.6" style="fill:none;fill-rule:evenodd;stroke:#FF0000;stroke-width:2.0px;stroke-linecap:butt;stroke-linejoin:miter;stroke-opacity:1"/>
<path class="bond-10 atom-10 atom-11" d="M 52.2,149.7 L 38.2,148.0" style="fill:none;fill-rule:evenodd;stroke:#000000;stroke-width:2.0px;stroke-linecap:butt;stroke-linejoin:miter;stroke-opacity:1"/>
<path class="bond-10 atom-10 atom-11" d="M 38.2,148.0 L 24.3,146.4" style="fill:none;fill-rule:evenodd;stroke:#FF0000;stroke-width:2.0px;stroke-linecap:butt;stroke-linejoin:miter;stroke-opacity:1"/>
<path class="bond-11 atom-10 atom-12" d="M 51.1,147.2 L 56.1,159.0" style="fill:none;fill-rule:evenodd;stroke:#000000;stroke-width:2.0px;stroke-linecap:butt;stroke-linejoin:miter;stroke-opacity:1"/>
<path class="bond-11 atom-10 atom-12" d="M 56.1,159.0 L 61.2,170.9" style="fill:none;fill-rule:evenodd;stroke:#FF0000;stroke-width:2.0px;stroke-linecap:butt;stroke-linejoin:miter;stroke-opacity:1"/>
<path class="bond-12 atom-1 atom-13" d="M 140.1,74.2 L 165.7,93.3" style="fill:none;fill-rule:evenodd;stroke:#000000;stroke-width:2.0px;stroke-linecap:butt;stroke-linejoin:miter;stroke-opacity:1"/>
<path class="bond-13 atom-13 atom-14" d="M 165.7,93.3 L 164.2,106.4" style="fill:none;fill-rule:evenodd;stroke:#000000;stroke-width:2.0px;stroke-linecap:butt;stroke-linejoin:miter;stroke-opacity:1"/>
<path class="bond-13 atom-13 atom-14" d="M 164.2,106.4 L 162.6,119.4" style="fill:none;fill-rule:evenodd;stroke:#FF0000;stroke-width:2.0px;stroke-linecap:butt;stroke-linejoin:miter;stroke-opacity:1"/>
<path class="bond-14 atom-13 atom-15" d="M 165.7,93.3 L 195.1,80.7" style="fill:none;fill-rule:evenodd;stroke:#000000;stroke-width:2.0px;stroke-linecap:butt;stroke-linejoin:miter;stroke-opacity:1"/>
<path class="bond-15 atom-15 atom-16" d="M 195.1,80.7 L 196.6,67.8" style="fill:none;fill-rule:evenodd;stroke:#000000;stroke-width:2.0px;stroke-linecap:butt;stroke-linejoin:miter;stroke-opacity:1"/>
<path class="bond-15 atom-15 atom-16" d="M 196.6,67.8 L 198.1,54.8" style="fill:none;fill-rule:evenodd;stroke:#FF0000;stroke-width:2.0px;stroke-linecap:butt;stroke-linejoin:miter;stroke-opacity:1"/>
<path class="bond-16 atom-15 atom-17" d="M 195.1,80.7 L 220.6,99.8" style="fill:none;fill-rule:evenodd;stroke:#000000;stroke-width:2.0px;stroke-linecap:butt;stroke-linejoin:miter;stroke-opacity:1"/>
<path class="bond-17 atom-17 atom-18" d="M 220.6,99.8 L 239.8,74.3" style="fill:none;fill-rule:evenodd;stroke:#000000;stroke-width:2.0px;stroke-linecap:butt;stroke-linejoin:miter;stroke-opacity:1"/>
<path class="bond-18 atom-17 atom-19" d="M 220.6,99.8 L 201.5,125.4" style="fill:none;fill-rule:evenodd;stroke:#000000;stroke-width:2.0px;stroke-linecap:butt;stroke-linejoin:miter;stroke-opacity:1"/>
<path class="bond-19 atom-19 atom-20" d="M 201.5,125.4 L 206.6,137.3" style="fill:none;fill-rule:evenodd;stroke:#000000;stroke-width:2.0px;stroke-linecap:butt;stroke-linejoin:miter;stroke-opacity:1"/>
<path class="bond-19 atom-19 atom-20" d="M 206.6,137.3 L 211.7,149.1" style="fill:none;fill-rule:evenodd;stroke:#FF0000;stroke-width:2.0px;stroke-linecap:butt;stroke-linejoin:miter;stroke-opacity:1"/>
<path class="bond-20 atom-17 atom-21" d="M 220.6,99.8 L 246.2,119.0" style="fill:none;fill-rule:evenodd;stroke:#000000;stroke-width:2.0px;stroke-linecap:butt;stroke-linejoin:miter;stroke-opacity:1"/>
<path class="bond-21 atom-21 atom-22" d="M 246.2,119.0 L 258.3,113.8" style="fill:none;fill-rule:evenodd;stroke:#000000;stroke-width:2.0px;stroke-linecap:butt;stroke-linejoin:miter;stroke-opacity:1"/>
<path class="bond-21 atom-21 atom-22" d="M 258.3,113.8 L 270.4,108.6" style="fill:none;fill-rule:evenodd;stroke:#FF0000;stroke-width:2.0px;stroke-linecap:butt;stroke-linejoin:miter;stroke-opacity:1"/>
<path class="bond-22 atom-21 atom-23" d="M 246.2,119.0 L 242.4,150.7" style="fill:none;fill-rule:evenodd;stroke:#000000;stroke-width:2.0px;stroke-linecap:butt;stroke-linejoin:miter;stroke-opacity:1"/>
<path class="bond-23 atom-23 atom-24" d="M 242.4,150.7 L 252.6,158.3" style="fill:none;fill-rule:evenodd;stroke:#000000;stroke-width:2.0px;stroke-linecap:butt;stroke-linejoin:miter;stroke-opacity:1"/>
<path class="bond-23 atom-23 atom-24" d="M 252.6,158.3 L 262.8,165.9" style="fill:none;fill-rule:evenodd;stroke:#FF0000;stroke-width:2.0px;stroke-linecap:butt;stroke-linejoin:miter;stroke-opacity:1"/>
<path d="M 115.8,56.0 L 114.6,55.1 L 114.6,54.4" style="fill:none;stroke:#000000;stroke-width:2.0px;stroke-linecap:butt;stroke-linejoin:miter;stroke-opacity:1;"/>
<path d="M 122.0,98.5 L 121.0,99.8 L 119.4,99.6" style="fill:none;stroke:#000000;stroke-width:2.0px;stroke-linecap:butt;stroke-linejoin:miter;stroke-opacity:1;"/>
<path d="M 52.0,145.9 L 51.1,147.2 L 51.3,147.7" style="fill:none;stroke:#000000;stroke-width:2.0px;stroke-linecap:butt;stroke-linejoin:miter;stroke-opacity:1;"/>
<path d="M 202.5,124.1 L 201.5,125.4 L 201.8,126.0" style="fill:none;stroke:#000000;stroke-width:2.0px;stroke-linecap:butt;stroke-linejoin:miter;stroke-opacity:1;"/>
<path d="M 242.6,149.1 L 242.4,150.7 L 243.0,151.1" style="fill:none;stroke:#000000;stroke-width:2.0px;stroke-linecap:butt;stroke-linejoin:miter;stroke-opacity:1;"/>
<path class="atom-3" d="M 114.2 23.4 Q 114.2 21.2, 115.3 20.0 Q 116.3 18.8, 118.3 18.8 Q 120.3 18.8, 121.4 20.0 Q 122.5 21.2, 122.5 23.4 Q 122.5 25.6, 121.4 26.8 Q 120.3 28.1, 118.3 28.1 Q 116.3 28.1, 115.3 26.8 Q 114.2 25.6, 114.2 23.4 M 118.3 27.1 Q 119.7 27.1, 120.5 26.1 Q 121.2 25.2, 121.2 23.4 Q 121.2 21.6, 120.5 20.7 Q 119.7 19.8, 118.3 19.8 Q 117.0 19.8, 116.2 20.7 Q 115.5 21.6, 115.5 23.4 Q 115.5 25.2, 116.2 26.1 Q 117.0 27.1, 118.3 27.1 " fill="#FF0000"/>
<path class="atom-3" d="M 123.9 18.9 L 125.1 18.9 L 125.1 22.7 L 129.7 22.7 L 129.7 18.9 L 131.0 18.9 L 131.0 27.9 L 129.7 27.9 L 129.7 23.8 L 125.1 23.8 L 125.1 27.9 L 123.9 27.9 L 123.9 18.9 " fill="#FF0000"/>
<path class="atom-6" d="M 63.6 62.2 L 64.9 62.2 L 64.9 66.0 L 69.5 66.0 L 69.5 62.2 L 70.7 62.2 L 70.7 71.2 L 69.5 71.2 L 69.5 67.0 L 64.9 67.0 L 64.9 71.2 L 63.6 71.2 L 63.6 62.2 " fill="#FF0000"/>
<path class="atom-6" d="M 72.6 66.7 Q 72.6 64.5, 73.6 63.3 Q 74.7 62.1, 76.7 62.1 Q 78.7 62.1, 79.8 63.3 Q 80.9 64.5, 80.9 66.7 Q 80.9 68.9, 79.8 70.1 Q 78.7 71.4, 76.7 71.4 Q 74.7 71.4, 73.6 70.1 Q 72.6 68.9, 72.6 66.7 M 76.7 70.3 Q 78.1 70.3, 78.8 69.4 Q 79.6 68.5, 79.6 66.7 Q 79.6 64.9, 78.8 64.0 Q 78.1 63.1, 76.7 63.1 Q 75.3 63.1, 74.6 64.0 Q 73.8 64.9, 73.8 66.7 Q 73.8 68.5, 74.6 69.4 Q 75.3 70.3, 76.7 70.3 " fill="#FF0000"/>
<path class="atom-11" d="M 15.2 143.4 Q 15.2 141.2, 16.3 140.0 Q 17.3 138.8, 19.4 138.8 Q 21.4 138.8, 22.4 140.0 Q 23.5 141.2, 23.5 143.4 Q 23.5 145.6, 22.4 146.9 Q 21.3 148.1, 19.4 148.1 Q 17.4 148.1, 16.3 146.9 Q 15.2 145.6, 15.2 143.4 M 19.4 147.1 Q 20.7 147.1, 21.5 146.2 Q 22.2 145.2, 22.2 143.4 Q 22.2 141.6, 21.5 140.7 Q 20.7 139.8, 19.4 139.8 Q 18.0 139.8, 17.2 140.7 Q 16.5 141.6, 16.5 143.4 Q 16.5 145.2, 17.2 146.2 Q 18.0 147.1, 19.4 147.1 " fill="#FF0000"/>
<path class="atom-12" d="M 59.5 176.5 Q 59.5 174.4, 60.6 173.1 Q 61.6 171.9, 63.7 171.9 Q 65.7 171.9, 66.7 173.1 Q 67.8 174.4, 67.8 176.5 Q 67.8 178.7, 66.7 180.0 Q 65.6 181.2, 63.7 181.2 Q 61.7 181.2, 60.6 180.0 Q 59.5 178.7, 59.5 176.5 M 63.7 180.2 Q 65.0 180.2, 65.8 179.3 Q 66.5 178.3, 66.5 176.5 Q 66.5 174.7, 65.8 173.9 Q 65.0 172.9, 63.7 172.9 Q 62.3 172.9, 61.5 173.8 Q 60.8 174.7, 60.8 176.5 Q 60.8 178.4, 61.5 179.3 Q 62.3 180.2, 63.7 180.2 " fill="#FF0000"/>
<path class="atom-12" d="M 69.2 172.0 L 70.4 172.0 L 70.4 175.9 L 75.1 175.9 L 75.1 172.0 L 76.3 172.0 L 76.3 181.1 L 75.1 181.1 L 75.1 176.9 L 70.4 176.9 L 70.4 181.1 L 69.2 181.1 L 69.2 172.0 " fill="#FF0000"/>
<path class="atom-14" d="M 157.8 125.1 Q 157.8 122.9, 158.9 121.7 Q 159.9 120.5, 161.9 120.5 Q 163.9 120.5, 165.0 121.7 Q 166.1 122.9, 166.1 125.1 Q 166.1 127.2, 165.0 128.5 Q 163.9 129.7, 161.9 129.7 Q 160.0 129.7, 158.9 128.5 Q 157.8 127.3, 157.8 125.1 M 161.9 128.7 Q 163.3 128.7, 164.1 127.8 Q 164.8 126.9, 164.8 125.1 Q 164.8 123.3, 164.1 122.4 Q 163.3 121.5, 161.9 121.5 Q 160.6 121.5, 159.8 122.4 Q 159.1 123.3, 159.1 125.1 Q 159.1 126.9, 159.8 127.8 Q 160.6 128.7, 161.9 128.7 " fill="#FF0000"/>
<path class="atom-14" d="M 167.5 120.6 L 168.7 120.6 L 168.7 124.4 L 173.4 124.4 L 173.4 120.6 L 174.6 120.6 L 174.6 129.6 L 173.4 129.6 L 173.4 125.4 L 168.7 125.4 L 168.7 129.6 L 167.5 129.6 L 167.5 120.6 " fill="#FF0000"/>
<path class="atom-16" d="M 194.7 49.0 Q 194.7 46.9, 195.8 45.7 Q 196.8 44.4, 198.8 44.4 Q 200.8 44.4, 201.9 45.7 Q 203.0 46.9, 203.0 49.0 Q 203.0 51.2, 201.9 52.5 Q 200.8 53.7, 198.8 53.7 Q 196.8 53.7, 195.8 52.5 Q 194.7 51.3, 194.7 49.0 M 198.8 52.7 Q 200.2 52.7, 201.0 51.8 Q 201.7 50.9, 201.7 49.0 Q 201.7 47.3, 201.0 46.4 Q 200.2 45.5, 198.8 45.5 Q 197.5 45.5, 196.7 46.4 Q 196.0 47.3, 196.0 49.0 Q 196.0 50.9, 196.7 51.8 Q 197.5 52.7, 198.8 52.7 " fill="#FF0000"/>
<path class="atom-16" d="M 204.4 44.5 L 205.6 44.5 L 205.6 48.4 L 210.2 48.4 L 210.2 44.5 L 211.5 44.5 L 211.5 53.6 L 210.2 53.6 L 210.2 49.4 L 205.6 49.4 L 205.6 53.6 L 204.4 53.6 L 204.4 44.5 " fill="#FF0000"/>
<path class="atom-20" d="M 210.0 154.8 Q 210.0 152.6, 211.0 151.4 Q 212.1 150.2, 214.1 150.2 Q 216.1 150.2, 217.2 151.4 Q 218.3 152.6, 218.3 154.8 Q 218.3 157.0, 217.2 158.2 Q 216.1 159.5, 214.1 159.5 Q 212.1 159.5, 211.0 158.2 Q 210.0 157.0, 210.0 154.8 M 214.1 158.5 Q 215.5 158.5, 216.2 157.5 Q 217.0 156.6, 217.0 154.8 Q 217.0 153.0, 216.2 152.1 Q 215.5 151.2, 214.1 151.2 Q 212.7 151.2, 212.0 152.1 Q 211.2 153.0, 211.2 154.8 Q 211.2 156.6, 212.0 157.5 Q 212.7 158.5, 214.1 158.5 " fill="#FF0000"/>
<path class="atom-20" d="M 219.7 150.3 L 220.9 150.3 L 220.9 154.1 L 225.5 154.1 L 225.5 150.3 L 226.7 150.3 L 226.7 159.3 L 225.5 159.3 L 225.5 155.2 L 220.9 155.2 L 220.9 159.3 L 219.7 159.3 L 219.7 150.3 " fill="#FF0000"/>
<path class="atom-22" d="M 271.4 106.4 Q 271.4 104.2, 272.5 103.0 Q 273.6 101.8, 275.6 101.8 Q 277.6 101.8, 278.6 103.0 Q 279.7 104.2, 279.7 106.4 Q 279.7 108.6, 278.6 109.9 Q 277.5 111.1, 275.6 111.1 Q 273.6 111.1, 272.5 109.9 Q 271.4 108.6, 271.4 106.4 M 275.6 110.1 Q 276.9 110.1, 277.7 109.2 Q 278.4 108.2, 278.4 106.4 Q 278.4 104.6, 277.7 103.7 Q 276.9 102.8, 275.6 102.8 Q 274.2 102.8, 273.4 103.7 Q 272.7 104.6, 272.7 106.4 Q 272.7 108.2, 273.4 109.2 Q 274.2 110.1, 275.6 110.1 " fill="#FF0000"/>
<path class="atom-22" d="M 281.1 101.9 L 282.3 101.9 L 282.3 105.8 L 287.0 105.8 L 287.0 101.9 L 288.2 101.9 L 288.2 111.0 L 287.0 111.0 L 287.0 106.8 L 282.3 106.8 L 282.3 111.0 L 281.1 111.0 L 281.1 101.9 " fill="#FF0000"/>
<path class="atom-24" d="M 263.9 169.8 Q 263.9 167.7, 264.9 166.4 Q 266.0 165.2, 268.0 165.2 Q 270.0 165.2, 271.1 166.4 Q 272.2 167.7, 272.2 169.8 Q 272.2 172.0, 271.1 173.3 Q 270.0 174.5, 268.0 174.5 Q 266.0 174.5, 264.9 173.3 Q 263.9 172.0, 263.9 169.8 M 268.0 173.5 Q 269.4 173.5, 270.1 172.6 Q 270.9 171.6, 270.9 169.8 Q 270.9 168.1, 270.1 167.2 Q 269.4 166.3, 268.0 166.3 Q 266.6 166.3, 265.9 167.1 Q 265.1 168.0, 265.1 169.8 Q 265.1 171.7, 265.9 172.6 Q 266.6 173.5, 268.0 173.5 " fill="#FF0000"/>
<path class="atom-24" d="M 273.6 165.3 L 274.8 165.3 L 274.8 169.2 L 279.4 169.2 L 279.4 165.3 L 280.7 165.3 L 280.7 174.4 L 279.4 174.4 L 279.4 170.2 L 274.8 170.2 L 274.8 174.4 L 273.6 174.4 L 273.6 165.3 " fill="#FF0000"/>
</g>
    <g transform="translate(615.0, 0) scale(1 1) "><line x1="15" y1="100" x2="25" y2="100" style="stroke:rgb(0,0,0);stroke-width:2"/>
  <line x1="20" y1="95" x2="20" y2="105" style="stroke:rgb(0,0,0);stroke-width:2"/>
</g>
    <g transform="translate(655.0, 0) scale(1 1) "><!-- END OF HEADER -->
<rect style="opacity:1.0;fill:#FFFFFF;stroke:none" width="215.0" height="200.0" x="0.0" y="0.0"> </rect>
<path class="bond-0 atom-0 atom-1" d="M 183.7,56.0 L 158.3,99.9" style="fill:none;fill-rule:evenodd;stroke:#000000;stroke-width:2.0px;stroke-linecap:butt;stroke-linejoin:miter;stroke-opacity:1"/>
<path class="bond-1 atom-1 atom-2" d="M 158.3,99.9 L 168.4,117.4" style="fill:none;fill-rule:evenodd;stroke:#000000;stroke-width:2.0px;stroke-linecap:butt;stroke-linejoin:miter;stroke-opacity:1"/>
<path class="bond-1 atom-1 atom-2" d="M 168.4,117.4 L 178.5,134.9" style="fill:none;fill-rule:evenodd;stroke:#FF0000;stroke-width:2.0px;stroke-linecap:butt;stroke-linejoin:miter;stroke-opacity:1"/>
<path class="bond-2 atom-1 atom-3" d="M 158.3,99.9 L 107.6,99.9" style="fill:none;fill-rule:evenodd;stroke:#000000;stroke-width:2.0px;stroke-linecap:butt;stroke-linejoin:miter;stroke-opacity:1"/>
<path class="bond-3 atom-3 atom-4" d="M 107.6,99.9 L 107.6,49.2" style="fill:none;fill-rule:evenodd;stroke:#000000;stroke-width:2.0px;stroke-linecap:butt;stroke-linejoin:miter;stroke-opacity:1"/>
<path class="bond-4 atom-3 atom-5" d="M 107.6,99.9 L 107.6,150.6" style="fill:none;fill-rule:evenodd;stroke:#000000;stroke-width:2.0px;stroke-linecap:butt;stroke-linejoin:miter;stroke-opacity:1"/>
<path class="bond-5 atom-3 atom-6" d="M 107.6,99.9 L 56.9,99.9" style="fill:none;fill-rule:evenodd;stroke:#000000;stroke-width:2.0px;stroke-linecap:butt;stroke-linejoin:miter;stroke-opacity:1"/>
<path class="bond-6 atom-6 atom-7" d="M 54.7,96.1 L 44.0,114.5" style="fill:none;fill-rule:evenodd;stroke:#000000;stroke-width:2.0px;stroke-linecap:butt;stroke-linejoin:miter;stroke-opacity:1"/>
<path class="bond-6 atom-6 atom-7" d="M 44.0,114.5 L 33.4,133.0" style="fill:none;fill-rule:evenodd;stroke:#FF0000;stroke-width:2.0px;stroke-linecap:butt;stroke-linejoin:miter;stroke-opacity:1"/>
<path class="bond-6 atom-6 atom-7" d="M 61.3,99.9 L 50.6,118.3" style="fill:none;fill-rule:evenodd;stroke:#000000;stroke-width:2.0px;stroke-linecap:butt;stroke-linejoin:miter;stroke-opacity:1"/>
<path class="bond-6 atom-6 atom-7" d="M 50.6,118.3 L 40.0,136.8" style="fill:none;fill-rule:evenodd;stroke:#FF0000;stroke-width:2.0px;stroke-linecap:butt;stroke-linejoin:miter;stroke-opacity:1"/>
<path class="bond-7 atom-6 atom-8" d="M 56.9,99.9 L 46.9,82.5" style="fill:none;fill-rule:evenodd;stroke:#000000;stroke-width:2.0px;stroke-linecap:butt;stroke-linejoin:miter;stroke-opacity:1"/>
<path class="bond-7 atom-6 atom-8" d="M 46.9,82.5 L 36.8,65.1" style="fill:none;fill-rule:evenodd;stroke:#FF0000;stroke-width:2.0px;stroke-linecap:butt;stroke-linejoin:miter;stroke-opacity:1"/>
<path d="M 59.4,99.9 L 56.9,99.9 L 56.4,99.0" style="fill:none;stroke:#000000;stroke-width:2.0px;stroke-linecap:butt;stroke-linejoin:miter;stroke-opacity:1;"/>
<path class="atom-2" d="M 177.1 143.9 Q 177.1 140.4, 178.8 138.5 Q 180.5 136.5, 183.7 136.5 Q 186.9 136.5, 188.6 138.5 Q 190.3 140.4, 190.3 143.9 Q 190.3 147.3, 188.6 149.3 Q 186.8 151.3, 183.7 151.3 Q 180.5 151.3, 178.8 149.3 Q 177.1 147.4, 177.1 143.9 M 183.7 149.7 Q 185.9 149.7, 187.0 148.2 Q 188.2 146.7, 188.2 143.9 Q 188.2 141.0, 187.0 139.6 Q 185.9 138.2, 183.7 138.2 Q 181.5 138.2, 180.3 139.6 Q 179.1 141.0, 179.1 143.9 Q 179.1 146.8, 180.3 148.2 Q 181.5 149.7, 183.7 149.7 " fill="#FF0000"/>
<path class="atom-2" d="M 192.5 136.7 L 194.5 136.7 L 194.5 142.8 L 201.8 142.8 L 201.8 136.7 L 203.7 136.7 L 203.7 151.1 L 201.8 151.1 L 201.8 144.4 L 194.5 144.4 L 194.5 151.1 L 192.5 151.1 L 192.5 136.7 " fill="#FF0000"/>
<path class="atom-7" d="M 24.9 143.9 Q 24.9 140.4, 26.6 138.5 Q 28.3 136.5, 31.5 136.5 Q 34.7 136.5, 36.4 138.5 Q 38.1 140.4, 38.1 143.9 Q 38.1 147.3, 36.4 149.3 Q 34.7 151.3, 31.5 151.3 Q 28.4 151.3, 26.6 149.3 Q 24.9 147.4, 24.9 143.9 M 31.5 149.7 Q 33.7 149.7, 34.9 148.2 Q 36.1 146.7, 36.1 143.9 Q 36.1 141.0, 34.9 139.6 Q 33.7 138.2, 31.5 138.2 Q 29.3 138.2, 28.1 139.6 Q 27.0 141.0, 27.0 143.9 Q 27.0 146.8, 28.1 148.2 Q 29.3 149.7, 31.5 149.7 " fill="#FF0000"/>
<path class="atom-8" d="M 10.7 48.9 L 12.7 48.9 L 12.7 55.0 L 20.0 55.0 L 20.0 48.9 L 22.0 48.9 L 22.0 63.2 L 20.0 63.2 L 20.0 56.6 L 12.7 56.6 L 12.7 63.2 L 10.7 63.2 L 10.7 48.9 " fill="#FF0000"/>
<path class="atom-8" d="M 24.9 56.0 Q 24.9 52.6, 26.6 50.6 Q 28.3 48.7, 31.5 48.7 Q 34.7 48.7, 36.4 50.6 Q 38.1 52.6, 38.1 56.0 Q 38.1 59.5, 36.4 61.5 Q 34.7 63.5, 31.5 63.5 Q 28.4 63.5, 26.6 61.5 Q 24.9 59.5, 24.9 56.0 M 31.5 61.8 Q 33.7 61.8, 34.9 60.4 Q 36.1 58.9, 36.1 56.0 Q 36.1 53.2, 34.9 51.8 Q 33.7 50.3, 31.5 50.3 Q 29.3 50.3, 28.1 51.7 Q 27.0 53.2, 27.0 56.0 Q 27.0 58.9, 28.1 60.4 Q 29.3 61.8, 31.5 61.8 " fill="#FF0000"/>
</g>
  </g>
</svg>
