<?xml version='1.0' encoding='ASCII' standalone='yes'?>
<svg xmlns="http://www.w3.org/2000/svg" xmlns:xlink="http://www.w3.org/1999/xlink" version="1.1" width="969.0px" viewBox="0 0 969.0 200.0" height="200.0px">
  <g>
    <g transform="translate(0, 0) scale(1 1) "><!-- END OF HEADER -->
<rect style="opacity:1.0;fill:#FFFFFF;stroke:none" width="311.0" height="200.0" x="0.0" y="0.0"> </rect>
<path class="bond-0 atom-0 atom-1" d="M 261.6,95.2 L 240.4,108.5" style="fill:none;fill-rule:evenodd;stroke:#000000;stroke-width:2.0px;stroke-linecap:butt;stroke-linejoin:miter;stroke-opacity:1"/>
<path class="bond-0 atom-0 atom-1" d="M 259.7,92.2 L 238.5,105.5" style="fill:none;fill-rule:evenodd;stroke:#000000;stroke-width:2.0px;stroke-linecap:butt;stroke-linejoin:miter;stroke-opacity:1"/>
<path class="bond-1 atom-1 atom-2" d="M 240.3,106.5 L 219.1,95.2" style="fill:none;fill-rule:evenodd;stroke:#000000;stroke-width:2.0px;stroke-linecap:butt;stroke-linejoin:miter;stroke-opacity:1"/>
<path class="bond-2 atom-2 atom-3" d="M 219.1,95.2 L 198.7,108.0" style="fill:none;fill-rule:evenodd;stroke:#000000;stroke-width:2.0px;stroke-linecap:butt;stroke-linejoin:miter;stroke-opacity:1"/>
<path class="bond-3 atom-3 atom-4" d="M 198.7,108.0 L 177.4,96.8" style="fill:none;fill-rule:evenodd;stroke:#000000;stroke-width:2.0px;stroke-linecap:butt;stroke-linejoin:miter;stroke-opacity:1"/>
<path class="bond-4 atom-4 atom-5" d="M 177.4,96.8 L 172.9,105.3" style="fill:none;fill-rule:evenodd;stroke:#000000;stroke-width:2.0px;stroke-linecap:butt;stroke-linejoin:miter;stroke-opacity:1"/>
<path class="bond-4 atom-4 atom-5" d="M 172.9,105.3 L 168.4,113.8" style="fill:none;fill-rule:evenodd;stroke:#FF0000;stroke-width:2.0px;stroke-linecap:butt;stroke-linejoin:miter;stroke-opacity:1"/>
<path class="bond-5 atom-4 atom-6" d="M 177.4,96.8 L 181.9,88.3" style="fill:none;fill-rule:evenodd;stroke:#000000;stroke-width:2.0px;stroke-linecap:butt;stroke-linejoin:miter;stroke-opacity:1"/>
<path class="bond-5 atom-4 atom-6" d="M 181.9,88.3 L 186.4,79.9" style="fill:none;fill-rule:evenodd;stroke:#FF0000;stroke-width:2.0px;stroke-linecap:butt;stroke-linejoin:miter;stroke-opacity:1"/>
<path class="bond-6 atom-4 atom-7" d="M 177.4,96.8 L 156.2,85.5" style="fill:none;fill-rule:evenodd;stroke:#000000;stroke-width:2.0px;stroke-linecap:butt;stroke-linejoin:miter;stroke-opacity:1"/>
<path class="bond-7 atom-7 atom-8" d="M 156.2,85.5 L 155.3,61.5" style="fill:none;fill-rule:evenodd;stroke:#000000;stroke-width:2.0px;stroke-linecap:butt;stroke-linejoin:miter;stroke-opacity:1"/>
<path class="bond-8 atom-8 atom-9" d="M 155.3,61.5 L 134.0,50.3" style="fill:none;fill-rule:evenodd;stroke:#000000;stroke-width:2.0px;stroke-linecap:butt;stroke-linejoin:miter;stroke-opacity:1"/>
<path class="bond-9 atom-9 atom-10" d="M 134.0,48.2 L 112.7,61.5" style="fill:none;fill-rule:evenodd;stroke:#000000;stroke-width:2.0px;stroke-linecap:butt;stroke-linejoin:miter;stroke-opacity:1"/>
<path class="bond-9 atom-9 atom-10" d="M 135.9,51.2 L 114.6,64.6" style="fill:none;fill-rule:evenodd;stroke:#000000;stroke-width:2.0px;stroke-linecap:butt;stroke-linejoin:miter;stroke-opacity:1"/>
<path class="bond-10 atom-9 atom-11" d="M 134.0,50.3 L 133.1,26.2" style="fill:none;fill-rule:evenodd;stroke:#000000;stroke-width:2.0px;stroke-linecap:butt;stroke-linejoin:miter;stroke-opacity:1"/>
<path class="bond-11 atom-11 atom-12" d="M 133.2,28.3 L 141.9,22.9" style="fill:none;fill-rule:evenodd;stroke:#000000;stroke-width:2.0px;stroke-linecap:butt;stroke-linejoin:miter;stroke-opacity:1"/>
<path class="bond-11 atom-11 atom-12" d="M 141.9,22.9 L 150.6,17.4" style="fill:none;fill-rule:evenodd;stroke:#FF0000;stroke-width:2.0px;stroke-linecap:butt;stroke-linejoin:miter;stroke-opacity:1"/>
<path class="bond-11 atom-11 atom-12" d="M 131.3,25.3 L 140.0,19.8" style="fill:none;fill-rule:evenodd;stroke:#000000;stroke-width:2.0px;stroke-linecap:butt;stroke-linejoin:miter;stroke-opacity:1"/>
<path class="bond-11 atom-11 atom-12" d="M 140.0,19.8 L 148.6,14.4" style="fill:none;fill-rule:evenodd;stroke:#FF0000;stroke-width:2.0px;stroke-linecap:butt;stroke-linejoin:miter;stroke-opacity:1"/>
<path class="bond-12 atom-11 atom-13" d="M 133.1,26.2 L 124.5,21.6" style="fill:none;fill-rule:evenodd;stroke:#000000;stroke-width:2.0px;stroke-linecap:butt;stroke-linejoin:miter;stroke-opacity:1"/>
<path class="bond-12 atom-11 atom-13" d="M 124.5,21.6 L 115.8,17.1" style="fill:none;fill-rule:evenodd;stroke:#FF0000;stroke-width:2.0px;stroke-linecap:butt;stroke-linejoin:miter;stroke-opacity:1"/>
<path class="bond-13 atom-7 atom-14" d="M 156.2,85.5 L 135.8,98.3" style="fill:none;fill-rule:evenodd;stroke:#000000;stroke-width:2.0px;stroke-linecap:butt;stroke-linejoin:miter;stroke-opacity:1"/>
<path class="bond-14 atom-14 atom-15" d="M 135.8,98.3 L 140.9,106.4" style="fill:none;fill-rule:evenodd;stroke:#000000;stroke-width:2.0px;stroke-linecap:butt;stroke-linejoin:miter;stroke-opacity:1"/>
<path class="bond-14 atom-14 atom-15" d="M 140.9,106.4 L 145.9,114.4" style="fill:none;fill-rule:evenodd;stroke:#FF0000;stroke-width:2.0px;stroke-linecap:butt;stroke-linejoin:miter;stroke-opacity:1"/>
<path class="bond-15 atom-14 atom-16" d="M 135.8,98.3 L 130.8,90.3" style="fill:none;fill-rule:evenodd;stroke:#000000;stroke-width:2.0px;stroke-linecap:butt;stroke-linejoin:miter;stroke-opacity:1"/>
<path class="bond-15 atom-14 atom-16" d="M 130.8,90.3 L 125.8,82.3" style="fill:none;fill-rule:evenodd;stroke:#FF0000;stroke-width:2.0px;stroke-linecap:butt;stroke-linejoin:miter;stroke-opacity:1"/>
<path class="bond-16 atom-14 atom-17" d="M 135.8,98.3 L 115.5,111.1" style="fill:none;fill-rule:evenodd;stroke:#000000;stroke-width:2.0px;stroke-linecap:butt;stroke-linejoin:miter;stroke-opacity:1"/>
<path class="bond-17 atom-17 atom-18" d="M 115.5,111.1 L 116.4,135.1" style="fill:none;fill-rule:evenodd;stroke:#000000;stroke-width:2.0px;stroke-linecap:butt;stroke-linejoin:miter;stroke-opacity:1"/>
<path class="bond-18 atom-18 atom-19" d="M 116.4,135.1 L 96.0,147.9" style="fill:none;fill-rule:evenodd;stroke:#000000;stroke-width:2.0px;stroke-linecap:butt;stroke-linejoin:miter;stroke-opacity:1"/>
<path class="bond-19 atom-19 atom-20" d="M 94.1,146.9 L 95.1,172.0" style="fill:none;fill-rule:evenodd;stroke:#000000;stroke-width:2.0px;stroke-linecap:butt;stroke-linejoin:miter;stroke-opacity:1"/>
<path class="bond-19 atom-19 atom-20" d="M 97.8,146.8 L 98.7,171.9" style="fill:none;fill-rule:evenodd;stroke:#000000;stroke-width:2.0px;stroke-linecap:butt;stroke-linejoin:miter;stroke-opacity:1"/>
<path class="bond-20 atom-19 atom-21" d="M 96.0,147.9 L 74.7,136.7" style="fill:none;fill-rule:evenodd;stroke:#000000;stroke-width:2.0px;stroke-linecap:butt;stroke-linejoin:miter;stroke-opacity:1"/>
<path class="bond-21 atom-21 atom-22" d="M 76.6,137.6 L 76.2,127.3" style="fill:none;fill-rule:evenodd;stroke:#000000;stroke-width:2.0px;stroke-linecap:butt;stroke-linejoin:miter;stroke-opacity:1"/>
<path class="bond-21 atom-21 atom-22" d="M 76.2,127.3 L 75.8,116.9" style="fill:none;fill-rule:evenodd;stroke:#FF0000;stroke-width:2.0px;stroke-linecap:butt;stroke-linejoin:miter;stroke-opacity:1"/>
<path class="bond-21 atom-21 atom-22" d="M 73.0,137.8 L 72.6,127.4" style="fill:none;fill-rule:evenodd;stroke:#000000;stroke-width:2.0px;stroke-linecap:butt;stroke-linejoin:miter;stroke-opacity:1"/>
<path class="bond-21 atom-21 atom-22" d="M 72.6,127.4 L 72.2,117.0" style="fill:none;fill-rule:evenodd;stroke:#FF0000;stroke-width:2.0px;stroke-linecap:butt;stroke-linejoin:miter;stroke-opacity:1"/>
<path class="bond-22 atom-21 atom-23" d="M 74.7,136.7 L 66.5,141.8" style="fill:none;fill-rule:evenodd;stroke:#000000;stroke-width:2.0px;stroke-linecap:butt;stroke-linejoin:miter;stroke-opacity:1"/>
<path class="bond-22 atom-21 atom-23" d="M 66.5,141.8 L 58.3,147.0" style="fill:none;fill-rule:evenodd;stroke:#FF0000;stroke-width:2.0px;stroke-linecap:butt;stroke-linejoin:miter;stroke-opacity:1"/>
<path class="bond-23 atom-1 atom-24" d="M 240.3,106.5 L 241.2,130.5" style="fill:none;fill-rule:evenodd;stroke:#000000;stroke-width:2.0px;stroke-linecap:butt;stroke-linejoin:miter;stroke-opacity:1"/>
<path class="bond-24 atom-24 atom-25" d="M 239.4,131.6 L 248.6,136.4" style="fill:none;fill-rule:evenodd;stroke:#000000;stroke-width:2.0px;stroke-linecap:butt;stroke-linejoin:miter;stroke-opacity:1"/>
<path class="bond-24 atom-24 atom-25" d="M 248.6,136.4 L 257.7,141.3" style="fill:none;fill-rule:evenodd;stroke:#FF0000;stroke-width:2.0px;stroke-linecap:butt;stroke-linejoin:miter;stroke-opacity:1"/>
<path class="bond-24 atom-24 atom-25" d="M 241.1,128.4 L 250.2,133.2" style="fill:none;fill-rule:evenodd;stroke:#000000;stroke-width:2.0px;stroke-linecap:butt;stroke-linejoin:miter;stroke-opacity:1"/>
<path class="bond-24 atom-24 atom-25" d="M 250.2,133.2 L 259.4,138.1" style="fill:none;fill-rule:evenodd;stroke:#FF0000;stroke-width:2.0px;stroke-linecap:butt;stroke-linejoin:miter;stroke-opacity:1"/>
<path class="bond-25 atom-24 atom-26" d="M 241.2,130.5 L 233.0,135.7" style="fill:none;fill-rule:evenodd;stroke:#000000;stroke-width:2.0px;stroke-linecap:butt;stroke-linejoin:miter;stroke-opacity:1"/>
<path class="bond-25 atom-24 atom-26" d="M 233.0,135.7 L 224.8,140.8" style="fill:none;fill-rule:evenodd;stroke:#FF0000;stroke-width:2.0px;stroke-linecap:butt;stroke-linejoin:miter;stroke-opacity:1"/>
<path d="M 239.2,105.9 L 240.3,106.5 L 240.4,107.7" style="fill:none;stroke:#000000;stroke-width:2.0px;stroke-linecap:butt;stroke-linejoin:miter;stroke-opacity:1;"/>
<path d="M 220.1,95.8 L 219.1,95.2 L 218.0,95.9" style="fill:none;stroke:#000000;stroke-width:2.0px;stroke-linecap:butt;stroke-linejoin:miter;stroke-opacity:1;"/>
<path d="M 199.7,107.4 L 198.7,108.0 L 197.6,107.4" style="fill:none;stroke:#000000;stroke-width:2.0px;stroke-linecap:butt;stroke-linejoin:miter;stroke-opacity:1;"/>
<path d="M 155.3,62.7 L 155.3,61.5 L 154.2,60.9" style="fill:none;stroke:#000000;stroke-width:2.0px;stroke-linecap:butt;stroke-linejoin:miter;stroke-opacity:1;"/>
<path d="M 135.1,50.8 L 134.0,50.3 L 134.0,49.1" style="fill:none;stroke:#000000;stroke-width:2.0px;stroke-linecap:butt;stroke-linejoin:miter;stroke-opacity:1;"/>
<path d="M 133.2,27.4 L 133.1,26.2 L 132.7,26.0" style="fill:none;stroke:#000000;stroke-width:2.0px;stroke-linecap:butt;stroke-linejoin:miter;stroke-opacity:1;"/>
<path d="M 116.5,110.5 L 115.5,111.1 L 115.5,112.3" style="fill:none;stroke:#000000;stroke-width:2.0px;stroke-linecap:butt;stroke-linejoin:miter;stroke-opacity:1;"/>
<path d="M 116.3,133.9 L 116.4,135.1 L 115.3,135.8" style="fill:none;stroke:#000000;stroke-width:2.0px;stroke-linecap:butt;stroke-linejoin:miter;stroke-opacity:1;"/>
<path d="M 97.0,147.3 L 96.0,147.9 L 94.9,147.3" style="fill:none;stroke:#000000;stroke-width:2.0px;stroke-linecap:butt;stroke-linejoin:miter;stroke-opacity:1;"/>
<path d="M 75.8,137.2 L 74.7,136.7 L 74.3,136.9" style="fill:none;stroke:#000000;stroke-width:2.0px;stroke-linecap:butt;stroke-linejoin:miter;stroke-opacity:1;"/>
<path d="M 241.2,129.3 L 241.2,130.5 L 240.8,130.7" style="fill:none;stroke:#000000;stroke-width:2.0px;stroke-linecap:butt;stroke-linejoin:miter;stroke-opacity:1;"/>
<path class="atom-5" d="M 156.3 114.7 L 157.3 114.7 L 157.3 117.5 L 160.8 117.5 L 160.8 114.7 L 161.7 114.7 L 161.7 121.5 L 160.8 121.5 L 160.8 118.3 L 157.3 118.3 L 157.3 121.5 L 156.3 121.5 L 156.3 114.7 " fill="#FF0000"/>
<path class="atom-5" d="M 163.1 118.0 Q 163.1 116.4, 163.9 115.5 Q 164.7 114.6, 166.2 114.6 Q 167.7 114.6, 168.5 115.5 Q 169.3 116.4, 169.3 118.0 Q 169.3 119.7, 168.5 120.6 Q 167.7 121.6, 166.2 121.6 Q 164.7 121.6, 163.9 120.6 Q 163.1 119.7, 163.1 118.0 M 166.2 120.8 Q 167.2 120.8, 167.8 120.1 Q 168.4 119.4, 168.4 118.0 Q 168.4 116.7, 167.8 116.0 Q 167.2 115.3, 166.2 115.3 Q 165.2 115.3, 164.6 116.0 Q 164.0 116.7, 164.0 118.0 Q 164.0 119.4, 164.6 120.1 Q 165.2 120.8, 166.2 120.8 " fill="#FF0000"/>
<path class="atom-6" d="M 185.6 75.5 Q 185.6 73.9, 186.4 73.0 Q 187.2 72.1, 188.7 72.1 Q 190.2 72.1, 191.0 73.0 Q 191.8 73.9, 191.8 75.5 Q 191.8 77.2, 191.0 78.1 Q 190.2 79.1, 188.7 79.1 Q 187.2 79.1, 186.4 78.1 Q 185.6 77.2, 185.6 75.5 M 188.7 78.3 Q 189.7 78.3, 190.3 77.6 Q 190.8 76.9, 190.8 75.5 Q 190.8 74.2, 190.3 73.5 Q 189.7 72.8, 188.7 72.8 Q 187.6 72.8, 187.1 73.5 Q 186.5 74.2, 186.5 75.5 Q 186.5 76.9, 187.1 77.6 Q 187.6 78.3, 188.7 78.3 " fill="#FF0000"/>
<path class="atom-6" d="M 192.9 72.1 L 193.8 72.1 L 193.8 75.0 L 197.3 75.0 L 197.3 72.1 L 198.2 72.1 L 198.2 79.0 L 197.3 79.0 L 197.3 75.8 L 193.8 75.8 L 193.8 79.0 L 192.9 79.0 L 192.9 72.1 " fill="#FF0000"/>
<path class="atom-12" d="M 150.4 13.5 Q 150.4 11.8, 151.2 10.9 Q 152.0 10.0, 153.5 10.0 Q 155.0 10.0, 155.8 10.9 Q 156.6 11.8, 156.6 13.5 Q 156.6 15.1, 155.8 16.1 Q 155.0 17.0, 153.5 17.0 Q 152.0 17.0, 151.2 16.1 Q 150.4 15.1, 150.4 13.5 M 153.5 16.2 Q 154.6 16.2, 155.1 15.5 Q 155.7 14.8, 155.7 13.5 Q 155.7 12.1, 155.1 11.5 Q 154.6 10.8, 153.5 10.8 Q 152.5 10.8, 151.9 11.4 Q 151.3 12.1, 151.3 13.5 Q 151.3 14.8, 151.9 15.5 Q 152.5 16.2, 153.5 16.2 " fill="#FF0000"/>
<path class="atom-13" d="M 102.0 11.6 L 103.0 11.6 L 103.0 14.5 L 106.5 14.5 L 106.5 11.6 L 107.4 11.6 L 107.4 18.4 L 106.5 18.4 L 106.5 15.3 L 103.0 15.3 L 103.0 18.4 L 102.0 18.4 L 102.0 11.6 " fill="#FF0000"/>
<path class="atom-13" d="M 108.8 15.0 Q 108.8 13.4, 109.6 12.5 Q 110.4 11.5, 111.9 11.5 Q 113.4 11.5, 114.2 12.5 Q 115.0 13.4, 115.0 15.0 Q 115.0 16.7, 114.2 17.6 Q 113.4 18.5, 111.9 18.5 Q 110.4 18.5, 109.6 17.6 Q 108.8 16.7, 108.8 15.0 M 111.9 17.8 Q 112.9 17.8, 113.5 17.1 Q 114.1 16.4, 114.1 15.0 Q 114.1 13.7, 113.5 13.0 Q 112.9 12.3, 111.9 12.3 Q 110.9 12.3, 110.3 13.0 Q 109.7 13.7, 109.7 15.0 Q 109.7 16.4, 110.3 17.1 Q 110.9 17.8, 111.9 17.8 " fill="#FF0000"/>
<path class="atom-15" d="M 145.5 118.7 Q 145.5 117.1, 146.3 116.1 Q 147.1 115.2, 148.6 115.2 Q 150.1 115.2, 150.9 116.1 Q 151.7 117.1, 151.7 118.7 Q 151.7 120.3, 150.9 121.3 Q 150.1 122.2, 148.6 122.2 Q 147.1 122.2, 146.3 121.3 Q 145.5 120.4, 145.5 118.7 M 148.6 121.5 Q 149.6 121.5, 150.2 120.8 Q 150.8 120.1, 150.8 118.7 Q 150.8 117.4, 150.2 116.7 Q 149.6 116.0, 148.6 116.0 Q 147.6 116.0, 147.0 116.7 Q 146.4 117.3, 146.4 118.7 Q 146.4 120.1, 147.0 120.8 Q 147.6 121.5, 148.6 121.5 " fill="#FF0000"/>
<path class="atom-15" d="M 152.8 115.3 L 153.7 115.3 L 153.7 118.2 L 157.2 118.2 L 157.2 115.3 L 158.1 115.3 L 158.1 122.1 L 157.2 122.1 L 157.2 119.0 L 153.7 119.0 L 153.7 122.1 L 152.8 122.1 L 152.8 115.3 " fill="#FF0000"/>
<path class="atom-16" d="M 113.2 74.6 L 114.1 74.6 L 114.1 77.5 L 117.6 77.5 L 117.6 74.6 L 118.5 74.6 L 118.5 81.4 L 117.6 81.4 L 117.6 78.2 L 114.1 78.2 L 114.1 81.4 L 113.2 81.4 L 113.2 74.6 " fill="#FF0000"/>
<path class="atom-16" d="M 119.9 78.0 Q 119.9 76.3, 120.7 75.4 Q 121.5 74.5, 123.0 74.5 Q 124.5 74.5, 125.4 75.4 Q 126.2 76.3, 126.2 78.0 Q 126.2 79.6, 125.3 80.6 Q 124.5 81.5, 123.0 81.5 Q 121.5 81.5, 120.7 80.6 Q 119.9 79.6, 119.9 78.0 M 123.0 80.7 Q 124.1 80.7, 124.6 80.0 Q 125.2 79.3, 125.2 78.0 Q 125.2 76.6, 124.6 76.0 Q 124.1 75.3, 123.0 75.3 Q 122.0 75.3, 121.4 75.9 Q 120.9 76.6, 120.9 78.0 Q 120.9 79.3, 121.4 80.0 Q 122.0 80.7, 123.0 80.7 " fill="#FF0000"/>
<path class="atom-22" d="M 70.7 112.7 Q 70.7 111.0, 71.5 110.1 Q 72.3 109.2, 73.8 109.2 Q 75.4 109.2, 76.2 110.1 Q 77.0 111.0, 77.0 112.7 Q 77.0 114.3, 76.2 115.3 Q 75.3 116.2, 73.8 116.2 Q 72.3 116.2, 71.5 115.3 Q 70.7 114.3, 70.7 112.7 M 73.8 115.4 Q 74.9 115.4, 75.4 114.7 Q 76.0 114.0, 76.0 112.7 Q 76.0 111.3, 75.4 110.6 Q 74.9 110.0, 73.8 110.0 Q 72.8 110.0, 72.2 110.6 Q 71.7 111.3, 71.7 112.7 Q 71.7 114.0, 72.2 114.7 Q 72.8 115.4, 73.8 115.4 " fill="#FF0000"/>
<path class="atom-23" d="M 44.5 146.1 L 45.4 146.1 L 45.4 149.0 L 48.9 149.0 L 48.9 146.1 L 49.9 146.1 L 49.9 152.9 L 48.9 152.9 L 48.9 149.7 L 45.4 149.7 L 45.4 152.9 L 44.5 152.9 L 44.5 146.1 " fill="#FF0000"/>
<path class="atom-23" d="M 51.2 149.5 Q 51.2 147.8, 52.1 146.9 Q 52.9 146.0, 54.4 146.0 Q 55.9 146.0, 56.7 146.9 Q 57.5 147.8, 57.5 149.5 Q 57.5 151.1, 56.7 152.1 Q 55.9 153.0, 54.4 153.0 Q 52.9 153.0, 52.1 152.1 Q 51.2 151.1, 51.2 149.5 M 54.4 152.2 Q 55.4 152.2, 56.0 151.5 Q 56.5 150.8, 56.5 149.5 Q 56.5 148.1, 56.0 147.5 Q 55.4 146.8, 54.4 146.8 Q 53.3 146.8, 52.8 147.4 Q 52.2 148.1, 52.2 149.5 Q 52.2 150.8, 52.8 151.5 Q 53.3 152.2, 54.4 152.2 " fill="#FF0000"/>
<path class="atom-25" d="M 259.3 141.8 Q 259.3 140.1, 260.1 139.2 Q 260.9 138.3, 262.5 138.3 Q 264.0 138.3, 264.8 139.2 Q 265.6 140.1, 265.6 141.8 Q 265.6 143.4, 264.8 144.3 Q 263.9 145.3, 262.5 145.3 Q 261.0 145.3, 260.1 144.3 Q 259.3 143.4, 259.3 141.8 M 262.5 144.5 Q 263.5 144.5, 264.0 143.8 Q 264.6 143.1, 264.6 141.8 Q 264.6 140.4, 264.0 139.7 Q 263.5 139.1, 262.5 139.1 Q 261.4 139.1, 260.8 139.7 Q 260.3 140.4, 260.3 141.8 Q 260.3 143.1, 260.8 143.8 Q 261.4 144.5, 262.5 144.5 " fill="#FF0000"/>
<path class="atom-26" d="M 211.0 139.9 L 211.9 139.9 L 211.9 142.8 L 215.4 142.8 L 215.4 139.9 L 216.3 139.9 L 216.3 146.7 L 215.4 146.7 L 215.4 143.6 L 211.9 143.6 L 211.9 146.7 L 211.0 146.7 L 211.0 139.9 " fill="#FF0000"/>
<path class="atom-26" d="M 217.7 143.3 Q 217.7 141.7, 218.5 140.7 Q 219.3 139.8, 220.8 139.8 Q 222.3 139.8, 223.2 140.7 Q 224.0 141.7, 224.0 143.3 Q 224.0 144.9, 223.1 145.9 Q 222.3 146.8, 220.8 146.8 Q 219.3 146.8, 218.5 145.9 Q 217.7 145.0, 217.7 143.3 M 220.8 146.1 Q 221.9 146.1, 222.4 145.4 Q 223.0 144.7, 223.0 143.3 Q 223.0 142.0, 222.4 141.3 Q 221.9 140.6, 220.8 140.6 Q 219.8 140.6, 219.2 141.3 Q 218.7 141.9, 218.7 143.3 Q 218.7 144.7, 219.2 145.4 Q 219.8 146.1, 220.8 146.1 " fill="#FF0000"/>
<path class="legend" d="M 146.0 181.9 Q 146.0 179.6, 146.7 177.7 Q 147.4 175.8, 148.7 173.8 L 149.6 174.4 Q 148.5 176.3, 148.0 178.0 Q 147.5 179.7, 147.5 181.9 Q 147.5 184.0, 148.0 185.8 Q 148.5 187.5, 149.6 189.4 L 148.7 190.0 Q 147.4 188.0, 146.7 186.1 Q 146.0 184.2, 146.0 181.9 " fill="#000000"/>
<path class="legend" d="M 150.5 177.3 Q 150.9 176.2, 151.9 175.6 Q 152.9 175.0, 154.3 175.0 Q 156.0 175.0, 156.9 175.9 Q 157.9 176.8, 157.9 178.5 Q 157.9 180.2, 156.6 181.7 Q 155.4 183.3, 152.9 185.2 L 158.1 185.2 L 158.1 186.4 L 150.5 186.4 L 150.5 185.4 Q 152.6 183.9, 153.8 182.8 Q 155.1 181.6, 155.7 180.6 Q 156.3 179.6, 156.3 178.6 Q 156.3 177.5, 155.8 176.9 Q 155.2 176.3, 154.3 176.3 Q 153.3 176.3, 152.7 176.6 Q 152.1 177.0, 151.7 177.8 L 150.5 177.3 " fill="#000000"/>
<path class="legend" d="M 163.1 181.9 Q 163.1 184.2, 162.4 186.1 Q 161.7 188.0, 160.4 190.0 L 159.5 189.4 Q 160.6 187.5, 161.1 185.8 Q 161.6 184.0, 161.6 181.9 Q 161.6 179.7, 161.1 178.0 Q 160.6 176.3, 159.5 174.4 L 160.4 173.8 Q 161.7 175.8, 162.4 177.7 Q 163.1 179.6, 163.1 181.9 " fill="#000000"/>
</g>
    <g transform="translate(311.0, 0) scale(1 1) "><line x1="5" y1="100" x2="35" y2="100" style="stroke:rgb(0,0,0);stroke-width:2"/>
  <line x1="34" y1="100" x2="29" y2="95" style="stroke:rgb(0,0,0);stroke-width:2"/>
  <line x1="34" y1="100" x2="29" y2="105" style="stroke:rgb(0,0,0);stroke-width:2"/>
</g>
    <g transform="translate(351.0, 0) scale(1 1) "><!-- END OF HEADER -->
<rect style="opacity:1.0;fill:#FFFFFF;stroke:none" width="353.0" height="200.0" x="0.0" y="0.0"> </rect>
<path class="bond-0 atom-0 atom-1" d="M 47.4,119.6 L 71.3,125.2" style="fill:none;fill-rule:evenodd;stroke:#000000;stroke-width:2.0px;stroke-linecap:butt;stroke-linejoin:miter;stroke-opacity:1"/>
<path class="bond-0 atom-0 atom-1" d="M 46.6,123.0 L 70.5,128.6" style="fill:none;fill-rule:evenodd;stroke:#000000;stroke-width:2.0px;stroke-linecap:butt;stroke-linejoin:miter;stroke-opacity:1"/>
<path class="bond-1 atom-1 atom-2" d="M 69.9,126.7 L 85.9,109.6" style="fill:none;fill-rule:evenodd;stroke:#000000;stroke-width:2.0px;stroke-linecap:butt;stroke-linejoin:miter;stroke-opacity:1"/>
<path class="bond-2 atom-2 atom-3" d="M 85.9,109.6 L 108.8,114.9" style="fill:none;fill-rule:evenodd;stroke:#000000;stroke-width:2.0px;stroke-linecap:butt;stroke-linejoin:miter;stroke-opacity:1"/>
<path class="bond-3 atom-3 atom-4" d="M 108.8,114.9 L 124.8,97.8" style="fill:none;fill-rule:evenodd;stroke:#000000;stroke-width:2.0px;stroke-linecap:butt;stroke-linejoin:miter;stroke-opacity:1"/>
<path class="bond-4 atom-4 atom-5" d="M 124.8,97.8 L 131.4,104.0" style="fill:none;fill-rule:evenodd;stroke:#000000;stroke-width:2.0px;stroke-linecap:butt;stroke-linejoin:miter;stroke-opacity:1"/>
<path class="bond-4 atom-4 atom-5" d="M 131.4,104.0 L 138.1,110.3" style="fill:none;fill-rule:evenodd;stroke:#FF0000;stroke-width:2.0px;stroke-linecap:butt;stroke-linejoin:miter;stroke-opacity:1"/>
<path class="bond-5 atom-4 atom-6" d="M 124.8,97.8 L 118.2,91.6" style="fill:none;fill-rule:evenodd;stroke:#000000;stroke-width:2.0px;stroke-linecap:butt;stroke-linejoin:miter;stroke-opacity:1"/>
<path class="bond-5 atom-4 atom-6" d="M 118.2,91.6 L 111.5,85.3" style="fill:none;fill-rule:evenodd;stroke:#FF0000;stroke-width:2.0px;stroke-linecap:butt;stroke-linejoin:miter;stroke-opacity:1"/>
<path class="bond-6 atom-4 atom-7" d="M 124.8,97.8 L 140.9,80.7" style="fill:none;fill-rule:evenodd;stroke:#000000;stroke-width:2.0px;stroke-linecap:butt;stroke-linejoin:miter;stroke-opacity:1"/>
<path class="bond-7 atom-7 atom-8" d="M 140.9,80.7 L 134.1,58.3" style="fill:none;fill-rule:evenodd;stroke:#000000;stroke-width:2.0px;stroke-linecap:butt;stroke-linejoin:miter;stroke-opacity:1"/>
<path class="bond-8 atom-8 atom-9" d="M 134.1,58.3 L 111.2,52.9" style="fill:none;fill-rule:evenodd;stroke:#000000;stroke-width:2.0px;stroke-linecap:butt;stroke-linejoin:miter;stroke-opacity:1"/>
<path class="bond-9 atom-9 atom-10" d="M 110.6,51.0 L 93.9,68.8" style="fill:none;fill-rule:evenodd;stroke:#000000;stroke-width:2.0px;stroke-linecap:butt;stroke-linejoin:miter;stroke-opacity:1"/>
<path class="bond-9 atom-9 atom-10" d="M 113.2,53.4 L 96.5,71.2" style="fill:none;fill-rule:evenodd;stroke:#000000;stroke-width:2.0px;stroke-linecap:butt;stroke-linejoin:miter;stroke-opacity:1"/>
<path class="bond-10 atom-9 atom-11" d="M 111.2,52.9 L 104.4,30.5" style="fill:none;fill-rule:evenodd;stroke:#000000;stroke-width:2.0px;stroke-linecap:butt;stroke-linejoin:miter;stroke-opacity:1"/>
<path class="bond-11 atom-11 atom-12" d="M 105.8,29.0 L 95.8,26.6" style="fill:none;fill-rule:evenodd;stroke:#000000;stroke-width:2.0px;stroke-linecap:butt;stroke-linejoin:miter;stroke-opacity:1"/>
<path class="bond-11 atom-11 atom-12" d="M 95.8,26.6 L 85.8,24.3" style="fill:none;fill-rule:evenodd;stroke:#FF0000;stroke-width:2.0px;stroke-linecap:butt;stroke-linejoin:miter;stroke-opacity:1"/>
<path class="bond-11 atom-11 atom-12" d="M 105.0,32.4 L 95.0,30.1" style="fill:none;fill-rule:evenodd;stroke:#000000;stroke-width:2.0px;stroke-linecap:butt;stroke-linejoin:miter;stroke-opacity:1"/>
<path class="bond-11 atom-11 atom-12" d="M 95.0,30.1 L 85.0,27.7" style="fill:none;fill-rule:evenodd;stroke:#FF0000;stroke-width:2.0px;stroke-linecap:butt;stroke-linejoin:miter;stroke-opacity:1"/>
<path class="bond-12 atom-11 atom-13" d="M 104.4,30.5 L 110.6,23.9" style="fill:none;fill-rule:evenodd;stroke:#000000;stroke-width:2.0px;stroke-linecap:butt;stroke-linejoin:miter;stroke-opacity:1"/>
<path class="bond-12 atom-11 atom-13" d="M 110.6,23.9 L 116.7,17.4" style="fill:none;fill-rule:evenodd;stroke:#FF0000;stroke-width:2.0px;stroke-linecap:butt;stroke-linejoin:miter;stroke-opacity:1"/>
<path class="bond-13 atom-7 atom-14" d="M 140.9,80.7 L 163.7,86.1" style="fill:none;fill-rule:evenodd;stroke:#000000;stroke-width:2.0px;stroke-linecap:butt;stroke-linejoin:miter;stroke-opacity:1"/>
<path class="bond-14 atom-14 atom-15" d="M 163.7,86.1 L 170.5,108.5" style="fill:none;fill-rule:evenodd;stroke:#000000;stroke-width:2.0px;stroke-linecap:butt;stroke-linejoin:miter;stroke-opacity:1"/>
<path class="bond-15 atom-15 atom-16" d="M 170.5,108.5 L 193.3,113.8" style="fill:none;fill-rule:evenodd;stroke:#000000;stroke-width:2.0px;stroke-linecap:butt;stroke-linejoin:miter;stroke-opacity:1"/>
<path class="bond-16 atom-16 atom-17" d="M 193.3,113.8 L 191.1,123.2" style="fill:none;fill-rule:evenodd;stroke:#000000;stroke-width:2.0px;stroke-linecap:butt;stroke-linejoin:miter;stroke-opacity:1"/>
<path class="bond-16 atom-16 atom-17" d="M 191.1,123.2 L 188.9,132.5" style="fill:none;fill-rule:evenodd;stroke:#FF0000;stroke-width:2.0px;stroke-linecap:butt;stroke-linejoin:miter;stroke-opacity:1"/>
<path class="bond-17 atom-16 atom-18" d="M 193.3,113.8 L 195.5,104.5" style="fill:none;fill-rule:evenodd;stroke:#000000;stroke-width:2.0px;stroke-linecap:butt;stroke-linejoin:miter;stroke-opacity:1"/>
<path class="bond-17 atom-16 atom-18" d="M 195.5,104.5 L 197.7,95.2" style="fill:none;fill-rule:evenodd;stroke:#FF0000;stroke-width:2.0px;stroke-linecap:butt;stroke-linejoin:miter;stroke-opacity:1"/>
<path class="bond-18 atom-16 atom-19" d="M 193.3,113.8 L 216.1,119.2" style="fill:none;fill-rule:evenodd;stroke:#000000;stroke-width:2.0px;stroke-linecap:butt;stroke-linejoin:miter;stroke-opacity:1"/>
<path class="bond-19 atom-19 atom-20" d="M 216.1,119.2 L 222.9,141.6" style="fill:none;fill-rule:evenodd;stroke:#000000;stroke-width:2.0px;stroke-linecap:butt;stroke-linejoin:miter;stroke-opacity:1"/>
<path class="bond-20 atom-20 atom-21" d="M 222.9,141.6 L 245.8,147.0" style="fill:none;fill-rule:evenodd;stroke:#000000;stroke-width:2.0px;stroke-linecap:butt;stroke-linejoin:miter;stroke-opacity:1"/>
<path class="bond-21 atom-21 atom-22" d="M 246.4,148.9 L 263.1,131.1" style="fill:none;fill-rule:evenodd;stroke:#000000;stroke-width:2.0px;stroke-linecap:butt;stroke-linejoin:miter;stroke-opacity:1"/>
<path class="bond-21 atom-21 atom-22" d="M 243.8,146.5 L 260.5,128.7" style="fill:none;fill-rule:evenodd;stroke:#000000;stroke-width:2.0px;stroke-linecap:butt;stroke-linejoin:miter;stroke-opacity:1"/>
<path class="bond-22 atom-21 atom-23" d="M 245.8,147.0 L 252.6,169.4" style="fill:none;fill-rule:evenodd;stroke:#000000;stroke-width:2.0px;stroke-linecap:butt;stroke-linejoin:miter;stroke-opacity:1"/>
<path class="bond-23 atom-23 atom-24" d="M 252.0,167.5 L 245.5,174.4" style="fill:none;fill-rule:evenodd;stroke:#000000;stroke-width:2.0px;stroke-linecap:butt;stroke-linejoin:miter;stroke-opacity:1"/>
<path class="bond-23 atom-23 atom-24" d="M 245.5,174.4 L 239.0,181.3" style="fill:none;fill-rule:evenodd;stroke:#FF0000;stroke-width:2.0px;stroke-linecap:butt;stroke-linejoin:miter;stroke-opacity:1"/>
<path class="bond-23 atom-23 atom-24" d="M 254.5,169.9 L 248.1,176.8" style="fill:none;fill-rule:evenodd;stroke:#000000;stroke-width:2.0px;stroke-linecap:butt;stroke-linejoin:miter;stroke-opacity:1"/>
<path class="bond-23 atom-23 atom-24" d="M 248.1,176.8 L 241.6,183.7" style="fill:none;fill-rule:evenodd;stroke:#FF0000;stroke-width:2.0px;stroke-linecap:butt;stroke-linejoin:miter;stroke-opacity:1"/>
<path class="bond-24 atom-23 atom-25" d="M 252.6,169.4 L 262.1,171.7" style="fill:none;fill-rule:evenodd;stroke:#000000;stroke-width:2.0px;stroke-linecap:butt;stroke-linejoin:miter;stroke-opacity:1"/>
<path class="bond-24 atom-23 atom-25" d="M 262.1,171.7 L 271.6,173.9" style="fill:none;fill-rule:evenodd;stroke:#FF0000;stroke-width:2.0px;stroke-linecap:butt;stroke-linejoin:miter;stroke-opacity:1"/>
<path class="bond-25 atom-19 atom-26" d="M 216.1,119.2 L 232.2,102.1" style="fill:none;fill-rule:evenodd;stroke:#000000;stroke-width:2.0px;stroke-linecap:butt;stroke-linejoin:miter;stroke-opacity:1"/>
<path class="bond-26 atom-26 atom-27" d="M 232.2,102.1 L 238.8,108.3" style="fill:none;fill-rule:evenodd;stroke:#000000;stroke-width:2.0px;stroke-linecap:butt;stroke-linejoin:miter;stroke-opacity:1"/>
<path class="bond-26 atom-26 atom-27" d="M 238.8,108.3 L 245.5,114.6" style="fill:none;fill-rule:evenodd;stroke:#FF0000;stroke-width:2.0px;stroke-linecap:butt;stroke-linejoin:miter;stroke-opacity:1"/>
<path class="bond-27 atom-26 atom-28" d="M 232.2,102.1 L 225.6,95.9" style="fill:none;fill-rule:evenodd;stroke:#000000;stroke-width:2.0px;stroke-linecap:butt;stroke-linejoin:miter;stroke-opacity:1"/>
<path class="bond-27 atom-26 atom-28" d="M 225.6,95.9 L 218.9,89.6" style="fill:none;fill-rule:evenodd;stroke:#FF0000;stroke-width:2.0px;stroke-linecap:butt;stroke-linejoin:miter;stroke-opacity:1"/>
<path class="bond-28 atom-26 atom-29" d="M 232.2,102.1 L 248.2,85.0" style="fill:none;fill-rule:evenodd;stroke:#000000;stroke-width:2.0px;stroke-linecap:butt;stroke-linejoin:miter;stroke-opacity:1"/>
<path class="bond-29 atom-29 atom-30" d="M 248.2,85.0 L 241.5,62.5" style="fill:none;fill-rule:evenodd;stroke:#000000;stroke-width:2.0px;stroke-linecap:butt;stroke-linejoin:miter;stroke-opacity:1"/>
<path class="bond-30 atom-30 atom-31" d="M 241.5,62.5 L 257.5,45.4" style="fill:none;fill-rule:evenodd;stroke:#000000;stroke-width:2.0px;stroke-linecap:butt;stroke-linejoin:miter;stroke-opacity:1"/>
<path class="bond-31 atom-31 atom-32" d="M 259.5,45.9 L 252.4,22.5" style="fill:none;fill-rule:evenodd;stroke:#000000;stroke-width:2.0px;stroke-linecap:butt;stroke-linejoin:miter;stroke-opacity:1"/>
<path class="bond-31 atom-31 atom-32" d="M 256.1,46.9 L 249.0,23.5" style="fill:none;fill-rule:evenodd;stroke:#000000;stroke-width:2.0px;stroke-linecap:butt;stroke-linejoin:miter;stroke-opacity:1"/>
<path class="bond-32 atom-31 atom-33" d="M 257.5,45.4 L 280.3,50.8" style="fill:none;fill-rule:evenodd;stroke:#000000;stroke-width:2.0px;stroke-linecap:butt;stroke-linejoin:miter;stroke-opacity:1"/>
<path class="bond-33 atom-33 atom-34" d="M 278.4,50.3 L 281.3,60.0" style="fill:none;fill-rule:evenodd;stroke:#000000;stroke-width:2.0px;stroke-linecap:butt;stroke-linejoin:miter;stroke-opacity:1"/>
<path class="bond-33 atom-33 atom-34" d="M 281.3,60.0 L 284.2,69.6" style="fill:none;fill-rule:evenodd;stroke:#FF0000;stroke-width:2.0px;stroke-linecap:butt;stroke-linejoin:miter;stroke-opacity:1"/>
<path class="bond-33 atom-33 atom-34" d="M 281.7,49.3 L 284.6,58.9" style="fill:none;fill-rule:evenodd;stroke:#000000;stroke-width:2.0px;stroke-linecap:butt;stroke-linejoin:miter;stroke-opacity:1"/>
<path class="bond-33 atom-33 atom-34" d="M 284.6,58.9 L 287.6,68.6" style="fill:none;fill-rule:evenodd;stroke:#FF0000;stroke-width:2.0px;stroke-linecap:butt;stroke-linejoin:miter;stroke-opacity:1"/>
<path class="bond-34 atom-33 atom-35" d="M 280.3,50.8 L 286.4,44.3" style="fill:none;fill-rule:evenodd;stroke:#000000;stroke-width:2.0px;stroke-linecap:butt;stroke-linejoin:miter;stroke-opacity:1"/>
<path class="bond-34 atom-33 atom-35" d="M 286.4,44.3 L 292.6,37.8" style="fill:none;fill-rule:evenodd;stroke:#FF0000;stroke-width:2.0px;stroke-linecap:butt;stroke-linejoin:miter;stroke-opacity:1"/>
<path class="bond-35 atom-14 atom-36" d="M 163.7,86.1 L 179.7,68.9" style="fill:none;fill-rule:evenodd;stroke:#000000;stroke-width:2.0px;stroke-linecap:butt;stroke-linejoin:miter;stroke-opacity:1"/>
<path class="bond-36 atom-36 atom-37" d="M 178.3,70.4 L 202.2,76.0" style="fill:none;fill-rule:evenodd;stroke:#000000;stroke-width:2.0px;stroke-linecap:butt;stroke-linejoin:miter;stroke-opacity:1"/>
<path class="bond-36 atom-36 atom-37" d="M 179.1,67.0 L 203.0,72.6" style="fill:none;fill-rule:evenodd;stroke:#000000;stroke-width:2.0px;stroke-linecap:butt;stroke-linejoin:miter;stroke-opacity:1"/>
<path class="bond-37 atom-36 atom-38" d="M 179.7,68.9 L 172.9,46.5" style="fill:none;fill-rule:evenodd;stroke:#000000;stroke-width:2.0px;stroke-linecap:butt;stroke-linejoin:miter;stroke-opacity:1"/>
<path class="bond-38 atom-38 atom-39" d="M 174.3,45.0 L 164.3,42.7" style="fill:none;fill-rule:evenodd;stroke:#000000;stroke-width:2.0px;stroke-linecap:butt;stroke-linejoin:miter;stroke-opacity:1"/>
<path class="bond-38 atom-38 atom-39" d="M 164.3,42.7 L 154.3,40.3" style="fill:none;fill-rule:evenodd;stroke:#FF0000;stroke-width:2.0px;stroke-linecap:butt;stroke-linejoin:miter;stroke-opacity:1"/>
<path class="bond-38 atom-38 atom-39" d="M 173.5,48.4 L 163.5,46.1" style="fill:none;fill-rule:evenodd;stroke:#000000;stroke-width:2.0px;stroke-linecap:butt;stroke-linejoin:miter;stroke-opacity:1"/>
<path class="bond-38 atom-38 atom-39" d="M 163.5,46.1 L 153.5,43.8" style="fill:none;fill-rule:evenodd;stroke:#FF0000;stroke-width:2.0px;stroke-linecap:butt;stroke-linejoin:miter;stroke-opacity:1"/>
<path class="bond-39 atom-38 atom-40" d="M 172.9,46.5 L 179.1,40.0" style="fill:none;fill-rule:evenodd;stroke:#000000;stroke-width:2.0px;stroke-linecap:butt;stroke-linejoin:miter;stroke-opacity:1"/>
<path class="bond-39 atom-38 atom-40" d="M 179.1,40.0 L 185.2,33.5" style="fill:none;fill-rule:evenodd;stroke:#FF0000;stroke-width:2.0px;stroke-linecap:butt;stroke-linejoin:miter;stroke-opacity:1"/>
<path class="bond-40 atom-1 atom-41" d="M 69.9,126.7 L 76.7,149.1" style="fill:none;fill-rule:evenodd;stroke:#000000;stroke-width:2.0px;stroke-linecap:butt;stroke-linejoin:miter;stroke-opacity:1"/>
<path class="bond-41 atom-41 atom-42" d="M 76.1,147.2 L 69.6,154.1" style="fill:none;fill-rule:evenodd;stroke:#000000;stroke-width:2.0px;stroke-linecap:butt;stroke-linejoin:miter;stroke-opacity:1"/>
<path class="bond-41 atom-41 atom-42" d="M 69.6,154.1 L 63.2,160.9" style="fill:none;fill-rule:evenodd;stroke:#FF0000;stroke-width:2.0px;stroke-linecap:butt;stroke-linejoin:miter;stroke-opacity:1"/>
<path class="bond-41 atom-41 atom-42" d="M 78.6,149.6 L 72.2,156.5" style="fill:none;fill-rule:evenodd;stroke:#000000;stroke-width:2.0px;stroke-linecap:butt;stroke-linejoin:miter;stroke-opacity:1"/>
<path class="bond-41 atom-41 atom-42" d="M 72.2,156.5 L 65.7,163.3" style="fill:none;fill-rule:evenodd;stroke:#FF0000;stroke-width:2.0px;stroke-linecap:butt;stroke-linejoin:miter;stroke-opacity:1"/>
<path class="bond-42 atom-41 atom-43" d="M 76.7,149.1 L 86.2,151.3" style="fill:none;fill-rule:evenodd;stroke:#000000;stroke-width:2.0px;stroke-linecap:butt;stroke-linejoin:miter;stroke-opacity:1"/>
<path class="bond-42 atom-41 atom-43" d="M 86.2,151.3 L 95.7,153.6" style="fill:none;fill-rule:evenodd;stroke:#FF0000;stroke-width:2.0px;stroke-linecap:butt;stroke-linejoin:miter;stroke-opacity:1"/>
<path d="M 70.7,125.8 L 69.9,126.7 L 70.2,127.8" style="fill:none;stroke:#000000;stroke-width:2.0px;stroke-linecap:butt;stroke-linejoin:miter;stroke-opacity:1;"/>
<path d="M 85.1,110.4 L 85.9,109.6 L 87.1,109.8" style="fill:none;stroke:#000000;stroke-width:2.0px;stroke-linecap:butt;stroke-linejoin:miter;stroke-opacity:1;"/>
<path d="M 107.6,114.6 L 108.8,114.9 L 109.6,114.1" style="fill:none;stroke:#000000;stroke-width:2.0px;stroke-linecap:butt;stroke-linejoin:miter;stroke-opacity:1;"/>
<path d="M 134.4,59.4 L 134.1,58.3 L 132.9,58.0" style="fill:none;stroke:#000000;stroke-width:2.0px;stroke-linecap:butt;stroke-linejoin:miter;stroke-opacity:1;"/>
<path d="M 112.4,53.2 L 111.2,52.9 L 110.9,51.8" style="fill:none;stroke:#000000;stroke-width:2.0px;stroke-linecap:butt;stroke-linejoin:miter;stroke-opacity:1;"/>
<path d="M 104.8,31.6 L 104.4,30.5 L 104.7,30.1" style="fill:none;stroke:#000000;stroke-width:2.0px;stroke-linecap:butt;stroke-linejoin:miter;stroke-opacity:1;"/>
<path d="M 170.1,107.4 L 170.5,108.5 L 171.6,108.8" style="fill:none;stroke:#000000;stroke-width:2.0px;stroke-linecap:butt;stroke-linejoin:miter;stroke-opacity:1;"/>
<path d="M 222.6,140.5 L 222.9,141.6 L 224.1,141.9" style="fill:none;stroke:#000000;stroke-width:2.0px;stroke-linecap:butt;stroke-linejoin:miter;stroke-opacity:1;"/>
<path d="M 244.6,146.7 L 245.8,147.0 L 246.1,148.1" style="fill:none;stroke:#000000;stroke-width:2.0px;stroke-linecap:butt;stroke-linejoin:miter;stroke-opacity:1;"/>
<path d="M 252.2,168.3 L 252.6,169.4 L 253.0,169.5" style="fill:none;stroke:#000000;stroke-width:2.0px;stroke-linecap:butt;stroke-linejoin:miter;stroke-opacity:1;"/>
<path d="M 247.4,85.8 L 248.2,85.0 L 247.9,83.9" style="fill:none;stroke:#000000;stroke-width:2.0px;stroke-linecap:butt;stroke-linejoin:miter;stroke-opacity:1;"/>
<path d="M 241.8,63.7 L 241.5,62.5 L 242.3,61.7" style="fill:none;stroke:#000000;stroke-width:2.0px;stroke-linecap:butt;stroke-linejoin:miter;stroke-opacity:1;"/>
<path d="M 256.7,46.3 L 257.5,45.4 L 258.6,45.7" style="fill:none;stroke:#000000;stroke-width:2.0px;stroke-linecap:butt;stroke-linejoin:miter;stroke-opacity:1;"/>
<path d="M 279.2,50.5 L 280.3,50.8 L 280.6,50.5" style="fill:none;stroke:#000000;stroke-width:2.0px;stroke-linecap:butt;stroke-linejoin:miter;stroke-opacity:1;"/>
<path d="M 178.9,69.8 L 179.7,68.9 L 179.4,67.8" style="fill:none;stroke:#000000;stroke-width:2.0px;stroke-linecap:butt;stroke-linejoin:miter;stroke-opacity:1;"/>
<path d="M 173.3,47.6 L 172.9,46.5 L 173.3,46.2" style="fill:none;stroke:#000000;stroke-width:2.0px;stroke-linecap:butt;stroke-linejoin:miter;stroke-opacity:1;"/>
<path d="M 76.3,148.0 L 76.7,149.1 L 77.1,149.2" style="fill:none;stroke:#000000;stroke-width:2.0px;stroke-linecap:butt;stroke-linejoin:miter;stroke-opacity:1;"/>
<path class="atom-5" d="M 138.9 113.9 Q 138.9 112.3, 139.6 111.4 Q 140.4 110.5, 141.9 110.5 Q 143.4 110.5, 144.2 111.4 Q 145.0 112.3, 145.0 113.9 Q 145.0 115.5, 144.2 116.4 Q 143.4 117.3, 141.9 117.3 Q 140.4 117.3, 139.6 116.4 Q 138.9 115.5, 138.9 113.9 M 141.9 116.6 Q 142.9 116.6, 143.5 115.9 Q 144.0 115.2, 144.0 113.9 Q 144.0 112.6, 143.5 111.9 Q 142.9 111.2, 141.9 111.2 Q 140.9 111.2, 140.3 111.9 Q 139.8 112.6, 139.8 113.9 Q 139.8 115.2, 140.3 115.9 Q 140.9 116.6, 141.9 116.6 " fill="#FF0000"/>
<path class="atom-5" d="M 146.0 110.6 L 146.9 110.6 L 146.9 113.4 L 150.3 113.4 L 150.3 110.6 L 151.2 110.6 L 151.2 117.2 L 150.3 117.2 L 150.3 114.1 L 146.9 114.1 L 146.9 117.2 L 146.0 117.2 L 146.0 110.6 " fill="#FF0000"/>
<path class="atom-6" d="M 98.1 78.5 L 99.0 78.5 L 99.0 81.3 L 102.4 81.3 L 102.4 78.5 L 103.3 78.5 L 103.3 85.1 L 102.4 85.1 L 102.4 82.0 L 99.0 82.0 L 99.0 85.1 L 98.1 85.1 L 98.1 78.5 " fill="#FF0000"/>
<path class="atom-6" d="M 104.7 81.8 Q 104.7 80.2, 105.4 79.3 Q 106.2 78.4, 107.7 78.4 Q 109.2 78.4, 110.0 79.3 Q 110.8 80.2, 110.8 81.8 Q 110.8 83.4, 110.0 84.3 Q 109.2 85.2, 107.7 85.2 Q 106.2 85.2, 105.4 84.3 Q 104.7 83.4, 104.7 81.8 M 107.7 84.5 Q 108.7 84.5, 109.3 83.8 Q 109.8 83.1, 109.8 81.8 Q 109.8 80.5, 109.3 79.8 Q 108.7 79.2, 107.7 79.2 Q 106.7 79.2, 106.1 79.8 Q 105.6 80.5, 105.6 81.8 Q 105.6 83.1, 106.1 83.8 Q 106.7 84.5, 107.7 84.5 " fill="#FF0000"/>
<path class="atom-12" d="M 78.6 25.1 Q 78.6 23.5, 79.3 22.6 Q 80.1 21.8, 81.6 21.8 Q 83.1 21.8, 83.9 22.6 Q 84.7 23.5, 84.7 25.1 Q 84.7 26.7, 83.9 27.7 Q 83.1 28.6, 81.6 28.6 Q 80.1 28.6, 79.3 27.7 Q 78.6 26.8, 78.6 25.1 M 81.6 27.8 Q 82.6 27.8, 83.2 27.1 Q 83.7 26.5, 83.7 25.1 Q 83.7 23.8, 83.2 23.2 Q 82.6 22.5, 81.6 22.5 Q 80.6 22.5, 80.0 23.2 Q 79.5 23.8, 79.5 25.1 Q 79.5 26.5, 80.0 27.1 Q 80.6 27.8, 81.6 27.8 " fill="#FF0000"/>
<path class="atom-13" d="M 117.4 13.4 Q 117.4 11.8, 118.2 10.9 Q 119.0 10.0, 120.5 10.0 Q 122.0 10.0, 122.8 10.9 Q 123.5 11.8, 123.5 13.4 Q 123.5 15.0, 122.7 15.9 Q 121.9 16.8, 120.5 16.8 Q 119.0 16.8, 118.2 15.9 Q 117.4 15.0, 117.4 13.4 M 120.5 16.1 Q 121.5 16.1, 122.0 15.4 Q 122.6 14.7, 122.6 13.4 Q 122.6 12.1, 122.0 11.4 Q 121.5 10.8, 120.5 10.8 Q 119.5 10.8, 118.9 11.4 Q 118.4 12.1, 118.4 13.4 Q 118.4 14.7, 118.9 15.4 Q 119.5 16.1, 120.5 16.1 " fill="#FF0000"/>
<path class="atom-13" d="M 124.6 10.1 L 125.5 10.1 L 125.5 12.9 L 128.9 12.9 L 128.9 10.1 L 129.8 10.1 L 129.8 16.7 L 128.9 16.7 L 128.9 13.6 L 125.5 13.6 L 125.5 16.7 L 124.6 16.7 L 124.6 10.1 " fill="#FF0000"/>
<path class="atom-17" d="M 184.9 136.7 Q 184.9 135.1, 185.7 134.2 Q 186.5 133.3, 188.0 133.3 Q 189.4 133.3, 190.2 134.2 Q 191.0 135.1, 191.0 136.7 Q 191.0 138.3, 190.2 139.2 Q 189.4 140.1, 188.0 140.1 Q 186.5 140.1, 185.7 139.2 Q 184.9 138.3, 184.9 136.7 M 188.0 139.4 Q 189.0 139.4, 189.5 138.7 Q 190.1 138.0, 190.1 136.7 Q 190.1 135.4, 189.5 134.7 Q 189.0 134.1, 188.0 134.1 Q 186.9 134.1, 186.4 134.7 Q 185.9 135.4, 185.9 136.7 Q 185.9 138.0, 186.4 138.7 Q 186.9 139.4, 188.0 139.4 " fill="#FF0000"/>
<path class="atom-17" d="M 192.0 133.4 L 192.9 133.4 L 192.9 136.2 L 196.3 136.2 L 196.3 133.4 L 197.2 133.4 L 197.2 140.0 L 196.3 140.0 L 196.3 137.0 L 192.9 137.0 L 192.9 140.0 L 192.0 140.0 L 192.0 133.4 " fill="#FF0000"/>
<path class="atom-18" d="M 195.6 91.0 Q 195.6 89.4, 196.4 88.5 Q 197.2 87.7, 198.7 87.7 Q 200.1 87.7, 200.9 88.5 Q 201.7 89.4, 201.7 91.0 Q 201.7 92.6, 200.9 93.6 Q 200.1 94.5, 198.7 94.5 Q 197.2 94.5, 196.4 93.6 Q 195.6 92.7, 195.6 91.0 M 198.7 93.7 Q 199.7 93.7, 200.2 93.0 Q 200.8 92.4, 200.8 91.0 Q 200.8 89.7, 200.2 89.1 Q 199.7 88.4, 198.7 88.4 Q 197.6 88.4, 197.1 89.1 Q 196.5 89.7, 196.5 91.0 Q 196.5 92.4, 197.1 93.0 Q 197.6 93.7, 198.7 93.7 " fill="#FF0000"/>
<path class="atom-18" d="M 202.7 87.7 L 203.6 87.7 L 203.6 90.6 L 207.0 90.6 L 207.0 87.7 L 207.9 87.7 L 207.9 94.4 L 207.0 94.4 L 207.0 91.3 L 203.6 91.3 L 203.6 94.4 L 202.7 94.4 L 202.7 87.7 " fill="#FF0000"/>
<path class="atom-24" d="M 233.5 186.6 Q 233.5 185.0, 234.2 184.1 Q 235.0 183.2, 236.5 183.2 Q 238.0 183.2, 238.8 184.1 Q 239.6 185.0, 239.6 186.6 Q 239.6 188.2, 238.8 189.1 Q 238.0 190.0, 236.5 190.0 Q 235.0 190.0, 234.2 189.1 Q 233.5 188.2, 233.5 186.6 M 236.5 189.2 Q 237.5 189.2, 238.1 188.6 Q 238.6 187.9, 238.6 186.6 Q 238.6 185.3, 238.1 184.6 Q 237.5 183.9, 236.5 183.9 Q 235.5 183.9, 234.9 184.6 Q 234.4 185.2, 234.4 186.6 Q 234.4 187.9, 234.9 188.6 Q 235.5 189.2, 236.5 189.2 " fill="#FF0000"/>
<path class="atom-25" d="M 272.3 174.8 Q 272.3 173.2, 273.1 172.3 Q 273.9 171.4, 275.4 171.4 Q 276.9 171.4, 277.6 172.3 Q 278.4 173.2, 278.4 174.8 Q 278.4 176.4, 277.6 177.3 Q 276.8 178.2, 275.4 178.2 Q 273.9 178.2, 273.1 177.3 Q 272.3 176.4, 272.3 174.8 M 275.4 177.5 Q 276.4 177.5, 276.9 176.8 Q 277.5 176.1, 277.5 174.8 Q 277.5 173.5, 276.9 172.8 Q 276.4 172.2, 275.4 172.2 Q 274.4 172.2, 273.8 172.8 Q 273.3 173.5, 273.3 174.8 Q 273.3 176.1, 273.8 176.8 Q 274.4 177.5, 275.4 177.5 " fill="#FF0000"/>
<path class="atom-25" d="M 279.5 171.5 L 280.4 171.5 L 280.4 174.3 L 283.8 174.3 L 283.8 171.5 L 284.7 171.5 L 284.7 178.1 L 283.8 178.1 L 283.8 175.1 L 280.4 175.1 L 280.4 178.1 L 279.5 178.1 L 279.5 171.5 " fill="#FF0000"/>
<path class="atom-27" d="M 246.2 118.2 Q 246.2 116.6, 247.0 115.7 Q 247.8 114.8, 249.3 114.8 Q 250.8 114.8, 251.6 115.7 Q 252.3 116.6, 252.3 118.2 Q 252.3 119.8, 251.5 120.7 Q 250.7 121.6, 249.3 121.6 Q 247.8 121.6, 247.0 120.7 Q 246.2 119.8, 246.2 118.2 M 249.3 120.8 Q 250.3 120.8, 250.8 120.2 Q 251.4 119.5, 251.4 118.2 Q 251.4 116.9, 250.8 116.2 Q 250.3 115.5, 249.3 115.5 Q 248.3 115.5, 247.7 116.2 Q 247.2 116.8, 247.2 118.2 Q 247.2 119.5, 247.7 120.2 Q 248.3 120.8, 249.3 120.8 " fill="#FF0000"/>
<path class="atom-27" d="M 253.4 114.9 L 254.3 114.9 L 254.3 117.7 L 257.7 117.7 L 257.7 114.9 L 258.6 114.9 L 258.6 121.5 L 257.7 121.5 L 257.7 118.4 L 254.3 118.4 L 254.3 121.5 L 253.4 121.5 L 253.4 114.9 " fill="#FF0000"/>
<path class="atom-28" d="M 205.5 82.8 L 206.4 82.8 L 206.4 85.6 L 209.8 85.6 L 209.8 82.8 L 210.7 82.8 L 210.7 89.4 L 209.8 89.4 L 209.8 86.3 L 206.4 86.3 L 206.4 89.4 L 205.5 89.4 L 205.5 82.8 " fill="#FF0000"/>
<path class="atom-28" d="M 212.0 86.1 Q 212.0 84.5, 212.8 83.6 Q 213.6 82.7, 215.1 82.7 Q 216.6 82.7, 217.3 83.6 Q 218.1 84.5, 218.1 86.1 Q 218.1 87.7, 217.3 88.6 Q 216.5 89.5, 215.1 89.5 Q 213.6 89.5, 212.8 88.6 Q 212.0 87.7, 212.0 86.1 M 215.1 88.8 Q 216.1 88.8, 216.6 88.1 Q 217.2 87.4, 217.2 86.1 Q 217.2 84.8, 216.6 84.1 Q 216.1 83.4, 215.1 83.4 Q 214.1 83.4, 213.5 84.1 Q 213.0 84.7, 213.0 86.1 Q 213.0 87.4, 213.5 88.1 Q 214.1 88.8, 215.1 88.8 " fill="#FF0000"/>
<path class="atom-34" d="M 284.1 73.3 Q 284.1 71.7, 284.9 70.8 Q 285.6 69.9, 287.1 69.9 Q 288.6 69.9, 289.4 70.8 Q 290.2 71.7, 290.2 73.3 Q 290.2 74.9, 289.4 75.8 Q 288.6 76.7, 287.1 76.7 Q 285.7 76.7, 284.9 75.8 Q 284.1 74.9, 284.1 73.3 M 287.1 75.9 Q 288.1 75.9, 288.7 75.3 Q 289.2 74.6, 289.2 73.3 Q 289.2 71.9, 288.7 71.3 Q 288.1 70.6, 287.1 70.6 Q 286.1 70.6, 285.6 71.3 Q 285.0 71.9, 285.0 73.3 Q 285.0 74.6, 285.6 75.3 Q 286.1 75.9, 287.1 75.9 " fill="#FF0000"/>
<path class="atom-35" d="M 293.3 33.7 Q 293.3 32.1, 294.1 31.2 Q 294.9 30.3, 296.4 30.3 Q 297.9 30.3, 298.6 31.2 Q 299.4 32.1, 299.4 33.7 Q 299.4 35.3, 298.6 36.2 Q 297.8 37.1, 296.4 37.1 Q 294.9 37.1, 294.1 36.2 Q 293.3 35.3, 293.3 33.7 M 296.4 36.4 Q 297.4 36.4, 297.9 35.7 Q 298.5 35.0, 298.5 33.7 Q 298.5 32.4, 297.9 31.7 Q 297.4 31.1, 296.4 31.1 Q 295.4 31.1, 294.8 31.7 Q 294.3 32.4, 294.3 33.7 Q 294.3 35.0, 294.8 35.7 Q 295.4 36.4, 296.4 36.4 " fill="#FF0000"/>
<path class="atom-35" d="M 300.5 30.4 L 301.4 30.4 L 301.4 33.2 L 304.8 33.2 L 304.8 30.4 L 305.7 30.4 L 305.7 37.0 L 304.8 37.0 L 304.8 34.0 L 301.4 34.0 L 301.4 37.0 L 300.5 37.0 L 300.5 30.4 " fill="#FF0000"/>
<path class="atom-39" d="M 147.1 41.2 Q 147.1 39.6, 147.9 38.7 Q 148.6 37.8, 150.1 37.8 Q 151.6 37.8, 152.4 38.7 Q 153.2 39.6, 153.2 41.2 Q 153.2 42.8, 152.4 43.7 Q 151.6 44.6, 150.1 44.6 Q 148.6 44.6, 147.9 43.7 Q 147.1 42.8, 147.1 41.2 M 150.1 43.9 Q 151.1 43.9, 151.7 43.2 Q 152.2 42.5, 152.2 41.2 Q 152.2 39.9, 151.7 39.2 Q 151.1 38.5, 150.1 38.5 Q 149.1 38.5, 148.5 39.2 Q 148.0 39.9, 148.0 41.2 Q 148.0 42.5, 148.5 43.2 Q 149.1 43.9, 150.1 43.9 " fill="#FF0000"/>
<path class="atom-40" d="M 185.9 29.4 Q 185.9 27.8, 186.7 26.9 Q 187.5 26.0, 189.0 26.0 Q 190.5 26.0, 191.3 26.9 Q 192.0 27.8, 192.0 29.4 Q 192.0 31.0, 191.2 31.9 Q 190.4 32.9, 189.0 32.9 Q 187.5 32.9, 186.7 31.9 Q 185.9 31.0, 185.9 29.4 M 189.0 32.1 Q 190.0 32.1, 190.6 31.4 Q 191.1 30.7, 191.1 29.4 Q 191.1 28.1, 190.6 27.5 Q 190.0 26.8, 189.0 26.8 Q 188.0 26.8, 187.4 27.4 Q 186.9 28.1, 186.9 29.4 Q 186.9 30.8, 187.4 31.4 Q 188.0 32.1, 189.0 32.1 " fill="#FF0000"/>
<path class="atom-40" d="M 193.1 26.1 L 194.0 26.1 L 194.0 28.9 L 197.4 28.9 L 197.4 26.1 L 198.3 26.1 L 198.3 32.8 L 197.4 32.8 L 197.4 29.7 L 194.0 29.7 L 194.0 32.8 L 193.1 32.8 L 193.1 26.1 " fill="#FF0000"/>
<path class="atom-42" d="M 57.6 166.2 Q 57.6 164.6, 58.4 163.7 Q 59.1 162.9, 60.6 162.9 Q 62.1 162.9, 62.9 163.7 Q 63.7 164.6, 63.7 166.2 Q 63.7 167.8, 62.9 168.8 Q 62.1 169.7, 60.6 169.7 Q 59.2 169.7, 58.4 168.8 Q 57.6 167.9, 57.6 166.2 M 60.6 168.9 Q 61.6 168.9, 62.2 168.2 Q 62.7 167.6, 62.7 166.2 Q 62.7 164.9, 62.2 164.3 Q 61.6 163.6, 60.6 163.6 Q 59.6 163.6, 59.0 164.3 Q 58.5 164.9, 58.5 166.2 Q 58.5 167.6, 59.0 168.2 Q 59.6 168.9, 60.6 168.9 " fill="#FF0000"/>
<path class="atom-43" d="M 96.4 154.5 Q 96.4 152.9, 97.2 152.0 Q 98.0 151.1, 99.5 151.1 Q 101.0 151.1, 101.8 152.0 Q 102.5 152.9, 102.5 154.5 Q 102.5 156.1, 101.7 157.0 Q 101.0 157.9, 99.5 157.9 Q 98.0 157.9, 97.2 157.0 Q 96.4 156.1, 96.4 154.5 M 99.5 157.2 Q 100.5 157.2, 101.1 156.5 Q 101.6 155.8, 101.6 154.5 Q 101.6 153.2, 101.1 152.5 Q 100.5 151.9, 99.5 151.9 Q 98.5 151.9, 97.9 152.5 Q 97.4 153.2, 97.4 154.5 Q 97.4 155.8, 97.9 156.5 Q 98.5 157.2, 99.5 157.2 " fill="#FF0000"/>
<path class="atom-43" d="M 103.6 151.2 L 104.5 151.2 L 104.5 154.0 L 107.9 154.0 L 107.9 151.2 L 108.8 151.2 L 108.8 157.8 L 107.9 157.8 L 107.9 154.7 L 104.5 154.7 L 104.5 157.8 L 103.6 157.8 L 103.6 151.2 " fill="#FF0000"/>
</g>
    <g transform="translate(704.0, 0) scale(1 1) "><line x1="15" y1="100" x2="25" y2="100" style="stroke:rgb(0,0,0);stroke-width:2"/>
  <line x1="20" y1="95" x2="20" y2="105" style="stroke:rgb(0,0,0);stroke-width:2"/>
</g>
    <g transform="translate(744.0, 0) scale(1 1) "><!-- END OF HEADER -->
<rect style="opacity:1.0;fill:#FFFFFF;stroke:none" width="225.0" height="200.0" x="0.0" y="0.0"> </rect>
<path class="bond-0 atom-0 atom-1" d="M 180.0,50.1 L 155.0,82.9" style="fill:none;fill-rule:evenodd;stroke:#000000;stroke-width:2.0px;stroke-linecap:butt;stroke-linejoin:miter;stroke-opacity:1"/>
<path class="bond-0 atom-0 atom-1" d="M 175.3,46.5 L 150.3,79.3" style="fill:none;fill-rule:evenodd;stroke:#000000;stroke-width:2.0px;stroke-linecap:butt;stroke-linejoin:miter;stroke-opacity:1"/>
<path class="bond-1 atom-1 atom-2" d="M 153.7,79.8 L 114.5,74.7" style="fill:none;fill-rule:evenodd;stroke:#000000;stroke-width:2.0px;stroke-linecap:butt;stroke-linejoin:miter;stroke-opacity:1"/>
<path class="bond-2 atom-2 atom-3" d="M 114.5,74.7 L 90.6,106.2" style="fill:none;fill-rule:evenodd;stroke:#000000;stroke-width:2.0px;stroke-linecap:butt;stroke-linejoin:miter;stroke-opacity:1"/>
<path class="bond-3 atom-3 atom-4" d="M 90.6,106.2 L 51.4,101.1" style="fill:none;fill-rule:evenodd;stroke:#000000;stroke-width:2.0px;stroke-linecap:butt;stroke-linejoin:miter;stroke-opacity:1"/>
<path class="bond-4 atom-4 atom-5" d="M 51.4,101.1 L 42.1,113.4" style="fill:none;fill-rule:evenodd;stroke:#000000;stroke-width:2.0px;stroke-linecap:butt;stroke-linejoin:miter;stroke-opacity:1"/>
<path class="bond-4 atom-4 atom-5" d="M 42.1,113.4 L 32.7,125.6" style="fill:none;fill-rule:evenodd;stroke:#FF0000;stroke-width:2.0px;stroke-linecap:butt;stroke-linejoin:miter;stroke-opacity:1"/>
<path class="bond-5 atom-4 atom-6" d="M 51.4,101.1 L 45.2,86.5" style="fill:none;fill-rule:evenodd;stroke:#000000;stroke-width:2.0px;stroke-linecap:butt;stroke-linejoin:miter;stroke-opacity:1"/>
<path class="bond-5 atom-4 atom-6" d="M 45.2,86.5 L 39.1,71.8" style="fill:none;fill-rule:evenodd;stroke:#FF0000;stroke-width:2.0px;stroke-linecap:butt;stroke-linejoin:miter;stroke-opacity:1"/>
<path class="bond-6 atom-1 atom-7" d="M 153.7,79.8 L 168.9,116.2" style="fill:none;fill-rule:evenodd;stroke:#000000;stroke-width:2.0px;stroke-linecap:butt;stroke-linejoin:miter;stroke-opacity:1"/>
<path class="bond-7 atom-7 atom-8" d="M 166.9,118.9 L 184.1,121.1" style="fill:none;fill-rule:evenodd;stroke:#000000;stroke-width:2.0px;stroke-linecap:butt;stroke-linejoin:miter;stroke-opacity:1"/>
<path class="bond-7 atom-7 atom-8" d="M 184.1,121.1 L 201.3,123.3" style="fill:none;fill-rule:evenodd;stroke:#FF0000;stroke-width:2.0px;stroke-linecap:butt;stroke-linejoin:miter;stroke-opacity:1"/>
<path class="bond-7 atom-7 atom-8" d="M 167.6,113.0 L 184.8,115.3" style="fill:none;fill-rule:evenodd;stroke:#000000;stroke-width:2.0px;stroke-linecap:butt;stroke-linejoin:miter;stroke-opacity:1"/>
<path class="bond-7 atom-7 atom-8" d="M 184.8,115.3 L 202.1,117.5" style="fill:none;fill-rule:evenodd;stroke:#FF0000;stroke-width:2.0px;stroke-linecap:butt;stroke-linejoin:miter;stroke-opacity:1"/>
<path class="bond-8 atom-7 atom-9" d="M 168.9,116.2 L 159.6,128.4" style="fill:none;fill-rule:evenodd;stroke:#000000;stroke-width:2.0px;stroke-linecap:butt;stroke-linejoin:miter;stroke-opacity:1"/>
<path class="bond-8 atom-7 atom-9" d="M 159.6,128.4 L 150.3,140.7" style="fill:none;fill-rule:evenodd;stroke:#FF0000;stroke-width:2.0px;stroke-linecap:butt;stroke-linejoin:miter;stroke-opacity:1"/>
<path d="M 151.7,79.5 L 153.7,79.8 L 154.4,81.6" style="fill:none;stroke:#000000;stroke-width:2.0px;stroke-linecap:butt;stroke-linejoin:miter;stroke-opacity:1;"/>
<path d="M 116.5,75.0 L 114.5,74.7 L 113.3,76.3" style="fill:none;stroke:#000000;stroke-width:2.0px;stroke-linecap:butt;stroke-linejoin:miter;stroke-opacity:1;"/>
<path d="M 91.8,104.6 L 90.6,106.2 L 88.6,105.9" style="fill:none;stroke:#000000;stroke-width:2.0px;stroke-linecap:butt;stroke-linejoin:miter;stroke-opacity:1;"/>
<path d="M 168.2,114.4 L 168.9,116.2 L 168.5,116.8" style="fill:none;stroke:#000000;stroke-width:2.0px;stroke-linecap:butt;stroke-linejoin:miter;stroke-opacity:1;"/>
<path class="atom-5" d="M 11.2 127.0 L 12.8 127.0 L 12.8 131.8 L 18.5 131.8 L 18.5 127.0 L 20.0 127.0 L 20.0 138.2 L 18.5 138.2 L 18.5 133.1 L 12.8 133.1 L 12.8 138.2 L 11.2 138.2 L 11.2 127.0 " fill="#FF0000"/>
<path class="atom-5" d="M 22.3 132.6 Q 22.3 129.9, 23.6 128.4 Q 25.0 126.9, 27.4 126.9 Q 29.9 126.9, 31.2 128.4 Q 32.6 129.9, 32.6 132.6 Q 32.6 135.3, 31.2 136.9 Q 29.9 138.4, 27.4 138.4 Q 25.0 138.4, 23.6 136.9 Q 22.3 135.3, 22.3 132.6 M 27.4 137.1 Q 29.1 137.1, 30.1 136.0 Q 31.0 134.8, 31.0 132.6 Q 31.0 130.4, 30.1 129.3 Q 29.1 128.2, 27.4 128.2 Q 25.7 128.2, 24.8 129.3 Q 23.9 130.4, 23.9 132.6 Q 23.9 134.9, 24.8 136.0 Q 25.7 137.1, 27.4 137.1 " fill="#FF0000"/>
<path class="atom-6" d="M 19.9 59.2 L 21.5 59.2 L 21.5 63.9 L 27.2 63.9 L 27.2 59.2 L 28.7 59.2 L 28.7 70.4 L 27.2 70.4 L 27.2 65.2 L 21.5 65.2 L 21.5 70.4 L 19.9 70.4 L 19.9 59.2 " fill="#FF0000"/>
<path class="atom-6" d="M 31.0 64.7 Q 31.0 62.0, 32.3 60.5 Q 33.7 59.0, 36.1 59.0 Q 38.6 59.0, 39.9 60.5 Q 41.3 62.0, 41.3 64.7 Q 41.3 67.4, 39.9 69.0 Q 38.6 70.5, 36.1 70.5 Q 33.7 70.5, 32.3 69.0 Q 31.0 67.5, 31.0 64.7 M 36.1 69.3 Q 37.8 69.3, 38.8 68.1 Q 39.7 67.0, 39.7 64.7 Q 39.7 62.5, 38.8 61.4 Q 37.8 60.3, 36.1 60.3 Q 34.4 60.3, 33.5 61.4 Q 32.6 62.5, 32.6 64.7 Q 32.6 67.0, 33.5 68.1 Q 34.4 69.3, 36.1 69.3 " fill="#FF0000"/>
<path class="atom-8" d="M 203.0 121.3 Q 203.0 118.6, 204.3 117.1 Q 205.6 115.6, 208.1 115.6 Q 210.6 115.6, 211.9 117.1 Q 213.2 118.6, 213.2 121.3 Q 213.2 124.0, 211.9 125.5 Q 210.6 127.1, 208.1 127.1 Q 205.6 127.1, 204.3 125.5 Q 203.0 124.0, 203.0 121.3 M 208.1 125.8 Q 209.8 125.8, 210.7 124.7 Q 211.7 123.5, 211.7 121.3 Q 211.7 119.1, 210.7 118.0 Q 209.8 116.8, 208.1 116.8 Q 206.4 116.8, 205.5 117.9 Q 204.6 119.0, 204.6 121.3 Q 204.6 123.5, 205.5 124.7 Q 206.4 125.8, 208.1 125.8 " fill="#FF0000"/>
<path class="atom-9" d="M 128.8 142.1 L 130.3 142.1 L 130.3 146.9 L 136.0 146.9 L 136.0 142.1 L 137.6 142.1 L 137.6 153.3 L 136.0 153.3 L 136.0 148.1 L 130.3 148.1 L 130.3 153.3 L 128.8 153.3 L 128.8 142.1 " fill="#FF0000"/>
<path class="atom-9" d="M 139.9 147.7 Q 139.9 145.0, 141.2 143.5 Q 142.5 142.0, 145.0 142.0 Q 147.5 142.0, 148.8 143.5 Q 150.1 145.0, 150.1 147.7 Q 150.1 150.4, 148.8 151.9 Q 147.4 153.5, 145.0 153.5 Q 142.5 153.5, 141.2 151.9 Q 139.9 150.4, 139.9 147.7 M 145.0 152.2 Q 146.7 152.2, 147.6 151.1 Q 148.5 149.9, 148.5 147.7 Q 148.5 145.5, 147.6 144.4 Q 146.7 143.2, 145.0 143.2 Q 143.3 143.2, 142.3 144.3 Q 141.4 145.4, 141.4 147.7 Q 141.4 149.9, 142.3 151.1 Q 143.3 152.2, 145.0 152.2 " fill="#FF0000"/>
</g>
  </g>
</svg>
