<?xml version='1.0' encoding='ASCII' standalone='yes'?>
<svg xmlns="http://www.w3.org/2000/svg" xmlns:xlink="http://www.w3.org/1999/xlink" version="1.1" width="795.0px" viewBox="0 0 795.0 200.0" height="200.0px">
  <g>
    <g transform="translate(0, 0) scale(1 1) "><!-- END OF HEADER -->
<rect style="opacity:1.0;fill:#FFFFFF;stroke:none" width="240.0" height="200.0" x="0.0" y="0.0"> </rect>
<path class="bond-0 atom-0 atom-1" d="M 12.0,77.6 L 27.0,71.1" style="fill:none;fill-rule:evenodd;stroke:#000000;stroke-width:2.0px;stroke-linecap:butt;stroke-linejoin:miter;stroke-opacity:1"/>
<path class="bond-0 atom-0 atom-1" d="M 27.0,71.1 L 42.1,64.7" style="fill:none;fill-rule:evenodd;stroke:#FF0000;stroke-width:2.0px;stroke-linecap:butt;stroke-linejoin:miter;stroke-opacity:1"/>
<path class="bond-1 atom-1 atom-2" d="M 55.1,66.7 L 67.8,76.2" style="fill:none;fill-rule:evenodd;stroke:#FF0000;stroke-width:2.0px;stroke-linecap:butt;stroke-linejoin:miter;stroke-opacity:1"/>
<path class="bond-1 atom-1 atom-2" d="M 67.8,76.2 L 80.5,85.7" style="fill:none;fill-rule:evenodd;stroke:#000000;stroke-width:2.0px;stroke-linecap:butt;stroke-linejoin:miter;stroke-opacity:1"/>
<path class="bond-2 atom-2 atom-3" d="M 80.5,85.7 L 117.0,70.0" style="fill:none;fill-rule:evenodd;stroke:#000000;stroke-width:2.0px;stroke-linecap:butt;stroke-linejoin:miter;stroke-opacity:1"/>
<path class="bond-3 atom-3 atom-4" d="M 117.0,70.0 L 148.9,93.8" style="fill:none;fill-rule:evenodd;stroke:#000000;stroke-width:2.0px;stroke-linecap:butt;stroke-linejoin:miter;stroke-opacity:1"/>
<path class="bond-4 atom-4 atom-5" d="M 148.9,93.8 L 180.8,117.7" style="fill:none;fill-rule:evenodd;stroke:#000000;stroke-width:2.0px;stroke-linecap:butt;stroke-linejoin:miter;stroke-opacity:1"/>
<path class="bond-5 atom-4 atom-6" d="M 148.9,93.8 L 172.7,62.0" style="fill:none;fill-rule:evenodd;stroke:#000000;stroke-width:2.0px;stroke-linecap:butt;stroke-linejoin:miter;stroke-opacity:1"/>
<path class="bond-6 atom-6 atom-7" d="M 176.2,62.4 L 169.5,46.9" style="fill:none;fill-rule:evenodd;stroke:#000000;stroke-width:2.0px;stroke-linecap:butt;stroke-linejoin:miter;stroke-opacity:1"/>
<path class="bond-6 atom-6 atom-7" d="M 169.5,46.9 L 162.9,31.4" style="fill:none;fill-rule:evenodd;stroke:#FF0000;stroke-width:2.0px;stroke-linecap:butt;stroke-linejoin:miter;stroke-opacity:1"/>
<path class="bond-6 atom-6 atom-7" d="M 170.7,64.7 L 164.0,49.2" style="fill:none;fill-rule:evenodd;stroke:#000000;stroke-width:2.0px;stroke-linecap:butt;stroke-linejoin:miter;stroke-opacity:1"/>
<path class="bond-6 atom-6 atom-7" d="M 164.0,49.2 L 157.4,33.8" style="fill:none;fill-rule:evenodd;stroke:#FF0000;stroke-width:2.0px;stroke-linecap:butt;stroke-linejoin:miter;stroke-opacity:1"/>
<path class="bond-7 atom-6 atom-8" d="M 172.7,62.0 L 189.2,63.9" style="fill:none;fill-rule:evenodd;stroke:#000000;stroke-width:2.0px;stroke-linecap:butt;stroke-linejoin:miter;stroke-opacity:1"/>
<path class="bond-7 atom-6 atom-8" d="M 189.2,63.9 L 205.8,65.9" style="fill:none;fill-rule:evenodd;stroke:#FF0000;stroke-width:2.0px;stroke-linecap:butt;stroke-linejoin:miter;stroke-opacity:1"/>
<path class="bond-8 atom-4 atom-9" d="M 148.9,93.8 L 125.1,125.7" style="fill:none;fill-rule:evenodd;stroke:#000000;stroke-width:2.0px;stroke-linecap:butt;stroke-linejoin:miter;stroke-opacity:1"/>
<path class="bond-9 atom-9 atom-10" d="M 125.1,125.7 L 140.8,162.3" style="fill:none;fill-rule:evenodd;stroke:#000000;stroke-width:2.0px;stroke-linecap:butt;stroke-linejoin:miter;stroke-opacity:1"/>
<path class="bond-10 atom-9 atom-11" d="M 125.1,125.7 L 108.6,123.8" style="fill:none;fill-rule:evenodd;stroke:#000000;stroke-width:2.0px;stroke-linecap:butt;stroke-linejoin:miter;stroke-opacity:1"/>
<path class="bond-10 atom-9 atom-11" d="M 108.6,123.8 L 92.0,121.8" style="fill:none;fill-rule:evenodd;stroke:#FF0000;stroke-width:2.0px;stroke-linecap:butt;stroke-linejoin:miter;stroke-opacity:1"/>
<path d="M 79.8,85.2 L 80.5,85.7 L 82.3,84.9" style="fill:none;stroke:#000000;stroke-width:2.0px;stroke-linecap:butt;stroke-linejoin:miter;stroke-opacity:1;"/>
<path d="M 115.2,70.8 L 117.0,70.0 L 118.6,71.2" style="fill:none;stroke:#000000;stroke-width:2.0px;stroke-linecap:butt;stroke-linejoin:miter;stroke-opacity:1;"/>
<path d="M 171.5,63.6 L 172.7,62.0 L 173.6,62.1" style="fill:none;stroke:#000000;stroke-width:2.0px;stroke-linecap:butt;stroke-linejoin:miter;stroke-opacity:1;"/>
<path class="atom-1" d="M 43.4 61.9 Q 43.4 59.2, 44.7 57.7 Q 46.1 56.2, 48.6 56.2 Q 51.1 56.2, 52.4 57.7 Q 53.7 59.2, 53.7 61.9 Q 53.7 64.6, 52.4 66.2 Q 51.0 67.8, 48.6 67.8 Q 46.1 67.8, 44.7 66.2 Q 43.4 64.7, 43.4 61.9 M 48.6 66.5 Q 50.3 66.5, 51.2 65.3 Q 52.2 64.2, 52.2 61.9 Q 52.2 59.7, 51.2 58.6 Q 50.3 57.5, 48.6 57.5 Q 46.9 57.5, 45.9 58.6 Q 45.0 59.7, 45.0 61.9 Q 45.0 64.2, 45.9 65.3 Q 46.9 66.5, 48.6 66.5 " fill="#FF0000"/>
<path class="atom-7" d="M 151.9 25.4 Q 151.9 22.7, 153.2 21.2 Q 154.5 19.7, 157.0 19.7 Q 159.5 19.7, 160.9 21.2 Q 162.2 22.7, 162.2 25.4 Q 162.2 28.2, 160.9 29.7 Q 159.5 31.3, 157.0 31.3 Q 154.6 31.3, 153.2 29.7 Q 151.9 28.2, 151.9 25.4 M 157.0 30.0 Q 158.8 30.0, 159.7 28.9 Q 160.6 27.7, 160.6 25.4 Q 160.6 23.2, 159.7 22.1 Q 158.8 21.0, 157.0 21.0 Q 155.3 21.0, 154.4 22.1 Q 153.5 23.2, 153.5 25.4 Q 153.5 27.7, 154.4 28.9 Q 155.3 30.0, 157.0 30.0 " fill="#FF0000"/>
<path class="atom-8" d="M 207.1 66.7 Q 207.1 64.0, 208.4 62.5 Q 209.8 61.0, 212.3 61.0 Q 214.8 61.0, 216.1 62.5 Q 217.4 64.0, 217.4 66.7 Q 217.4 69.4, 216.1 71.0 Q 214.7 72.5, 212.3 72.5 Q 209.8 72.5, 208.4 71.0 Q 207.1 69.5, 207.1 66.7 M 212.3 71.3 Q 214.0 71.3, 214.9 70.1 Q 215.8 69.0, 215.8 66.7 Q 215.8 64.5, 214.9 63.4 Q 214.0 62.2, 212.3 62.2 Q 210.5 62.2, 209.6 63.4 Q 208.7 64.5, 208.7 66.7 Q 208.7 69.0, 209.6 70.1 Q 210.5 71.3, 212.3 71.3 " fill="#FF0000"/>
<path class="atom-8" d="M 219.2 61.1 L 220.7 61.1 L 220.7 65.9 L 226.5 65.9 L 226.5 61.1 L 228.0 61.1 L 228.0 72.4 L 226.5 72.4 L 226.5 67.2 L 220.7 67.2 L 220.7 72.4 L 219.2 72.4 L 219.2 61.1 " fill="#FF0000"/>
<path class="atom-11" d="M 69.2 115.5 L 70.8 115.5 L 70.8 120.2 L 76.5 120.2 L 76.5 115.5 L 78.1 115.5 L 78.1 126.7 L 76.5 126.7 L 76.5 121.5 L 70.8 121.5 L 70.8 126.7 L 69.2 126.7 L 69.2 115.5 " fill="#FF0000"/>
<path class="atom-11" d="M 80.4 121.1 Q 80.4 118.3, 81.7 116.8 Q 83.1 115.3, 85.6 115.3 Q 88.0 115.3, 89.4 116.8 Q 90.7 118.3, 90.7 121.1 Q 90.7 123.8, 89.4 125.4 Q 88.0 126.9, 85.6 126.9 Q 83.1 126.9, 81.7 125.4 Q 80.4 123.8, 80.4 121.1 M 85.6 125.6 Q 87.3 125.6, 88.2 124.5 Q 89.1 123.3, 89.1 121.1 Q 89.1 118.8, 88.2 117.7 Q 87.3 116.6, 85.6 116.6 Q 83.8 116.6, 82.9 117.7 Q 82.0 118.8, 82.0 121.1 Q 82.0 123.3, 82.9 124.5 Q 83.8 125.6, 85.6 125.6 " fill="#FF0000"/>
<path class="legend" d="M 111.5 181.9 Q 111.5 179.6, 112.2 177.7 Q 112.8 175.8, 114.1 173.8 L 115.0 174.4 Q 114.0 176.3, 113.4 178.0 Q 112.9 179.7, 112.9 181.9 Q 112.9 184.0, 113.4 185.8 Q 114.0 187.5, 115.0 189.4 L 114.1 190.0 Q 112.8 188.0, 112.2 186.1 Q 111.5 184.2, 111.5 181.9 " fill="#000000"/>
<path class="legend" d="M 115.9 177.3 Q 116.4 176.2, 117.3 175.6 Q 118.3 175.0, 119.7 175.0 Q 121.4 175.0, 122.4 175.9 Q 123.3 176.8, 123.3 178.5 Q 123.3 180.2, 122.1 181.7 Q 120.9 183.3, 118.3 185.2 L 123.5 185.2 L 123.5 186.4 L 115.9 186.4 L 115.9 185.4 Q 118.0 183.9, 119.3 182.8 Q 120.5 181.6, 121.1 180.6 Q 121.7 179.6, 121.7 178.6 Q 121.7 177.5, 121.2 176.9 Q 120.7 176.3, 119.7 176.3 Q 118.8 176.3, 118.2 176.6 Q 117.6 177.0, 117.2 177.8 L 115.9 177.3 " fill="#000000"/>
<path class="legend" d="M 128.5 181.9 Q 128.5 184.2, 127.8 186.1 Q 127.2 188.0, 125.9 190.0 L 125.0 189.4 Q 126.0 187.5, 126.5 185.8 Q 127.1 184.0, 127.1 181.9 Q 127.1 179.7, 126.5 178.0 Q 126.0 176.3, 125.0 174.4 L 125.9 173.8 Q 127.2 175.8, 127.8 177.7 Q 128.5 179.6, 128.5 181.9 " fill="#000000"/>
</g>
    <g transform="translate(240.0, 0) scale(1 1) "><line x1="5" y1="100" x2="35" y2="100" style="stroke:rgb(0,0,0);stroke-width:2"/>
  <line x1="34" y1="100" x2="29" y2="95" style="stroke:rgb(0,0,0);stroke-width:2"/>
  <line x1="34" y1="100" x2="29" y2="105" style="stroke:rgb(0,0,0);stroke-width:2"/>
</g>
    <g transform="translate(280.0, 0) scale(1 1) "><!-- END OF HEADER -->
<rect style="opacity:1.0;fill:#FFFFFF;stroke:none" width="260.0" height="200.0" x="0.0" y="0.0"> </rect>
<path class="bond-0 atom-0 atom-1" d="M 247.0,69.9 L 236.8,77.3" style="fill:none;fill-rule:evenodd;stroke:#000000;stroke-width:2.0px;stroke-linecap:butt;stroke-linejoin:miter;stroke-opacity:1"/>
<path class="bond-0 atom-0 atom-1" d="M 236.8,77.3 L 226.6,84.7" style="fill:none;fill-rule:evenodd;stroke:#FF0000;stroke-width:2.0px;stroke-linecap:butt;stroke-linejoin:miter;stroke-opacity:1"/>
<path class="bond-1 atom-1 atom-2" d="M 216.4,86.2 L 204.5,80.9" style="fill:none;fill-rule:evenodd;stroke:#FF0000;stroke-width:2.0px;stroke-linecap:butt;stroke-linejoin:miter;stroke-opacity:1"/>
<path class="bond-1 atom-1 atom-2" d="M 204.5,80.9 L 192.7,75.6" style="fill:none;fill-rule:evenodd;stroke:#000000;stroke-width:2.0px;stroke-linecap:butt;stroke-linejoin:miter;stroke-opacity:1"/>
<path class="bond-2 atom-2 atom-3" d="M 192.7,75.6 L 167.2,94.2" style="fill:none;fill-rule:evenodd;stroke:#000000;stroke-width:2.0px;stroke-linecap:butt;stroke-linejoin:miter;stroke-opacity:1"/>
<path class="bond-3 atom-3 atom-4" d="M 167.2,94.2 L 138.3,81.4" style="fill:none;fill-rule:evenodd;stroke:#000000;stroke-width:2.0px;stroke-linecap:butt;stroke-linejoin:miter;stroke-opacity:1"/>
<path class="bond-4 atom-4 atom-5" d="M 138.3,81.4 L 137.0,68.5" style="fill:none;fill-rule:evenodd;stroke:#000000;stroke-width:2.0px;stroke-linecap:butt;stroke-linejoin:miter;stroke-opacity:1"/>
<path class="bond-4 atom-4 atom-5" d="M 137.0,68.5 L 135.6,55.7" style="fill:none;fill-rule:evenodd;stroke:#FF0000;stroke-width:2.0px;stroke-linecap:butt;stroke-linejoin:miter;stroke-opacity:1"/>
<path class="bond-5 atom-4 atom-6" d="M 138.3,81.4 L 112.8,99.9" style="fill:none;fill-rule:evenodd;stroke:#000000;stroke-width:2.0px;stroke-linecap:butt;stroke-linejoin:miter;stroke-opacity:1"/>
<path class="bond-6 atom-6 atom-7" d="M 112.8,99.9 L 131.4,125.4" style="fill:none;fill-rule:evenodd;stroke:#000000;stroke-width:2.0px;stroke-linecap:butt;stroke-linejoin:miter;stroke-opacity:1"/>
<path class="bond-7 atom-6 atom-8" d="M 112.8,99.9 L 94.3,74.4" style="fill:none;fill-rule:evenodd;stroke:#000000;stroke-width:2.0px;stroke-linecap:butt;stroke-linejoin:miter;stroke-opacity:1"/>
<path class="bond-8 atom-8 atom-9" d="M 94.3,74.4 L 62.9,77.7" style="fill:none;fill-rule:evenodd;stroke:#000000;stroke-width:2.0px;stroke-linecap:butt;stroke-linejoin:miter;stroke-opacity:1"/>
<path class="bond-9 atom-9 atom-10" d="M 62.9,77.7 L 55.7,67.8" style="fill:none;fill-rule:evenodd;stroke:#000000;stroke-width:2.0px;stroke-linecap:butt;stroke-linejoin:miter;stroke-opacity:1"/>
<path class="bond-9 atom-9 atom-10" d="M 55.7,67.8 L 48.5,57.9" style="fill:none;fill-rule:evenodd;stroke:#FF0000;stroke-width:2.0px;stroke-linecap:butt;stroke-linejoin:miter;stroke-opacity:1"/>
<path class="bond-10 atom-10 atom-11" d="M 39.2,52.8 L 26.1,54.2" style="fill:none;fill-rule:evenodd;stroke:#FF0000;stroke-width:2.0px;stroke-linecap:butt;stroke-linejoin:miter;stroke-opacity:1"/>
<path class="bond-10 atom-10 atom-11" d="M 26.1,54.2 L 13.0,55.6" style="fill:none;fill-rule:evenodd;stroke:#000000;stroke-width:2.0px;stroke-linecap:butt;stroke-linejoin:miter;stroke-opacity:1"/>
<path class="bond-11 atom-6 atom-12" d="M 112.8,99.9 L 87.3,118.5" style="fill:none;fill-rule:evenodd;stroke:#000000;stroke-width:2.0px;stroke-linecap:butt;stroke-linejoin:miter;stroke-opacity:1"/>
<path class="bond-12 atom-12 atom-13" d="M 89.5,116.9 L 77.1,111.3" style="fill:none;fill-rule:evenodd;stroke:#000000;stroke-width:2.0px;stroke-linecap:butt;stroke-linejoin:miter;stroke-opacity:1"/>
<path class="bond-12 atom-12 atom-13" d="M 77.1,111.3 L 64.6,105.8" style="fill:none;fill-rule:evenodd;stroke:#FF0000;stroke-width:2.0px;stroke-linecap:butt;stroke-linejoin:miter;stroke-opacity:1"/>
<path class="bond-12 atom-12 atom-13" d="M 87.6,121.2 L 75.2,115.7" style="fill:none;fill-rule:evenodd;stroke:#000000;stroke-width:2.0px;stroke-linecap:butt;stroke-linejoin:miter;stroke-opacity:1"/>
<path class="bond-12 atom-12 atom-13" d="M 75.2,115.7 L 62.7,110.1" style="fill:none;fill-rule:evenodd;stroke:#FF0000;stroke-width:2.0px;stroke-linecap:butt;stroke-linejoin:miter;stroke-opacity:1"/>
<path class="bond-13 atom-12 atom-14" d="M 87.3,118.5 L 88.7,131.4" style="fill:none;fill-rule:evenodd;stroke:#000000;stroke-width:2.0px;stroke-linecap:butt;stroke-linejoin:miter;stroke-opacity:1"/>
<path class="bond-13 atom-12 atom-14" d="M 88.7,131.4 L 90.1,144.3" style="fill:none;fill-rule:evenodd;stroke:#FF0000;stroke-width:2.0px;stroke-linecap:butt;stroke-linejoin:miter;stroke-opacity:1"/>
<path d="M 193.3,75.9 L 192.7,75.6 L 191.4,76.6" style="fill:none;stroke:#000000;stroke-width:2.0px;stroke-linecap:butt;stroke-linejoin:miter;stroke-opacity:1;"/>
<path d="M 168.4,93.3 L 167.2,94.2 L 165.7,93.5" style="fill:none;stroke:#000000;stroke-width:2.0px;stroke-linecap:butt;stroke-linejoin:miter;stroke-opacity:1;"/>
<path d="M 95.2,75.7 L 94.3,74.4 L 92.7,74.6" style="fill:none;stroke:#000000;stroke-width:2.0px;stroke-linecap:butt;stroke-linejoin:miter;stroke-opacity:1;"/>
<path d="M 64.5,77.6 L 62.9,77.7 L 62.6,77.2" style="fill:none;stroke:#000000;stroke-width:2.0px;stroke-linecap:butt;stroke-linejoin:miter;stroke-opacity:1;"/>
<path d="M 88.6,117.6 L 87.3,118.5 L 87.4,119.1" style="fill:none;stroke:#000000;stroke-width:2.0px;stroke-linecap:butt;stroke-linejoin:miter;stroke-opacity:1;"/>
<path class="atom-1" d="M 217.4 88.5 Q 217.4 86.3, 218.5 85.1 Q 219.5 83.9, 221.5 83.9 Q 223.5 83.9, 224.5 85.1 Q 225.6 86.3, 225.6 88.5 Q 225.6 90.6, 224.5 91.9 Q 223.5 93.1, 221.5 93.1 Q 219.5 93.1, 218.5 91.9 Q 217.4 90.7, 217.4 88.5 M 221.5 92.1 Q 222.9 92.1, 223.6 91.2 Q 224.3 90.3, 224.3 88.5 Q 224.3 86.7, 223.6 85.8 Q 222.9 84.9, 221.5 84.9 Q 220.1 84.9, 219.4 85.8 Q 218.7 86.7, 218.7 88.5 Q 218.7 90.3, 219.4 91.2 Q 220.1 92.1, 221.5 92.1 " fill="#FF0000"/>
<path class="atom-5" d="M 130.9 50.0 Q 130.9 47.9, 132.0 46.7 Q 133.0 45.5, 135.0 45.5 Q 137.0 45.5, 138.1 46.7 Q 139.1 47.9, 139.1 50.0 Q 139.1 52.2, 138.1 53.4 Q 137.0 54.7, 135.0 54.7 Q 133.1 54.7, 132.0 53.4 Q 130.9 52.2, 130.9 50.0 M 135.0 53.7 Q 136.4 53.7, 137.1 52.7 Q 137.9 51.8, 137.9 50.0 Q 137.9 48.3, 137.1 47.4 Q 136.4 46.5, 135.0 46.5 Q 133.7 46.5, 132.9 47.4 Q 132.2 48.3, 132.2 50.0 Q 132.2 51.8, 132.9 52.7 Q 133.7 53.7, 135.0 53.7 " fill="#FF0000"/>
<path class="atom-5" d="M 140.5 45.6 L 141.7 45.6 L 141.7 49.4 L 146.3 49.4 L 146.3 45.6 L 147.5 45.6 L 147.5 54.5 L 146.3 54.5 L 146.3 50.4 L 141.7 50.4 L 141.7 54.5 L 140.5 54.5 L 140.5 45.6 " fill="#FF0000"/>
<path class="atom-10" d="M 40.3 52.3 Q 40.3 50.1, 41.3 48.9 Q 42.4 47.7, 44.4 47.7 Q 46.3 47.7, 47.4 48.9 Q 48.5 50.1, 48.5 52.3 Q 48.5 54.4, 47.4 55.7 Q 46.3 56.9, 44.4 56.9 Q 42.4 56.9, 41.3 55.7 Q 40.3 54.4, 40.3 52.3 M 44.4 55.9 Q 45.7 55.9, 46.5 55.0 Q 47.2 54.1, 47.2 52.3 Q 47.2 50.5, 46.5 49.6 Q 45.7 48.7, 44.4 48.7 Q 43.0 48.7, 42.3 49.6 Q 41.5 50.5, 41.5 52.3 Q 41.5 54.1, 42.3 55.0 Q 43.0 55.9, 44.4 55.9 " fill="#FF0000"/>
<path class="atom-13" d="M 54.4 105.7 Q 54.4 103.6, 55.5 102.4 Q 56.5 101.2, 58.5 101.2 Q 60.5 101.2, 61.6 102.4 Q 62.6 103.6, 62.6 105.7 Q 62.6 107.9, 61.5 109.1 Q 60.5 110.3, 58.5 110.3 Q 56.5 110.3, 55.5 109.1 Q 54.4 107.9, 54.4 105.7 M 58.5 109.3 Q 59.9 109.3, 60.6 108.4 Q 61.4 107.5, 61.4 105.7 Q 61.4 103.9, 60.6 103.1 Q 59.9 102.2, 58.5 102.2 Q 57.2 102.2, 56.4 103.1 Q 55.7 103.9, 55.7 105.7 Q 55.7 107.5, 56.4 108.4 Q 57.2 109.3, 58.5 109.3 " fill="#FF0000"/>
<path class="atom-14" d="M 86.6 149.9 Q 86.6 147.7, 87.6 146.5 Q 88.7 145.3, 90.7 145.3 Q 92.6 145.3, 93.7 146.5 Q 94.8 147.7, 94.8 149.9 Q 94.8 152.0, 93.7 153.3 Q 92.6 154.5, 90.7 154.5 Q 88.7 154.5, 87.6 153.3 Q 86.6 152.1, 86.6 149.9 M 90.7 153.5 Q 92.0 153.5, 92.7 152.6 Q 93.5 151.7, 93.5 149.9 Q 93.5 148.1, 92.7 147.2 Q 92.0 146.3, 90.7 146.3 Q 89.3 146.3, 88.5 147.2 Q 87.8 148.1, 87.8 149.9 Q 87.8 151.7, 88.5 152.6 Q 89.3 153.5, 90.7 153.5 " fill="#FF0000"/>
<path class="atom-14" d="M 96.1 145.4 L 97.4 145.4 L 97.4 149.2 L 101.9 149.2 L 101.9 145.4 L 103.1 145.4 L 103.1 154.4 L 101.9 154.4 L 101.9 150.2 L 97.4 150.2 L 97.4 154.4 L 96.1 154.4 L 96.1 145.4 " fill="#FF0000"/>
</g>
    <g transform="translate(540.0, 0) scale(1 1) "><line x1="15" y1="100" x2="25" y2="100" style="stroke:rgb(0,0,0);stroke-width:2"/>
  <line x1="20" y1="95" x2="20" y2="105" style="stroke:rgb(0,0,0);stroke-width:2"/>
</g>
    <g transform="translate(580.0, 0) scale(1 1) "><!-- END OF HEADER -->
<rect style="opacity:1.0;fill:#FFFFFF;stroke:none" width="215.0" height="200.0" x="0.0" y="0.0"> </rect>
<path class="bond-0 atom-0 atom-1" d="M 183.7,56.0 L 158.3,99.9" style="fill:none;fill-rule:evenodd;stroke:#000000;stroke-width:2.0px;stroke-linecap:butt;stroke-linejoin:miter;stroke-opacity:1"/>
<path class="bond-1 atom-1 atom-2" d="M 158.3,99.9 L 168.4,117.4" style="fill:none;fill-rule:evenodd;stroke:#000000;stroke-width:2.0px;stroke-linecap:butt;stroke-linejoin:miter;stroke-opacity:1"/>
<path class="bond-1 atom-1 atom-2" d="M 168.4,117.4 L 178.5,134.9" style="fill:none;fill-rule:evenodd;stroke:#FF0000;stroke-width:2.0px;stroke-linecap:butt;stroke-linejoin:miter;stroke-opacity:1"/>
<path class="bond-2 atom-1 atom-3" d="M 158.3,99.9 L 107.6,99.9" style="fill:none;fill-rule:evenodd;stroke:#000000;stroke-width:2.0px;stroke-linecap:butt;stroke-linejoin:miter;stroke-opacity:1"/>
<path class="bond-3 atom-3 atom-4" d="M 107.6,99.9 L 107.6,49.2" style="fill:none;fill-rule:evenodd;stroke:#000000;stroke-width:2.0px;stroke-linecap:butt;stroke-linejoin:miter;stroke-opacity:1"/>
<path class="bond-4 atom-3 atom-5" d="M 107.6,99.9 L 107.6,150.6" style="fill:none;fill-rule:evenodd;stroke:#000000;stroke-width:2.0px;stroke-linecap:butt;stroke-linejoin:miter;stroke-opacity:1"/>
<path class="bond-5 atom-3 atom-6" d="M 107.6,99.9 L 56.9,99.9" style="fill:none;fill-rule:evenodd;stroke:#000000;stroke-width:2.0px;stroke-linecap:butt;stroke-linejoin:miter;stroke-opacity:1"/>
<path class="bond-6 atom-6 atom-7" d="M 54.7,96.1 L 44.0,114.5" style="fill:none;fill-rule:evenodd;stroke:#000000;stroke-width:2.0px;stroke-linecap:butt;stroke-linejoin:miter;stroke-opacity:1"/>
<path class="bond-6 atom-6 atom-7" d="M 44.0,114.5 L 33.4,133.0" style="fill:none;fill-rule:evenodd;stroke:#FF0000;stroke-width:2.0px;stroke-linecap:butt;stroke-linejoin:miter;stroke-opacity:1"/>
<path class="bond-6 atom-6 atom-7" d="M 61.3,99.9 L 50.6,118.3" style="fill:none;fill-rule:evenodd;stroke:#000000;stroke-width:2.0px;stroke-linecap:butt;stroke-linejoin:miter;stroke-opacity:1"/>
<path class="bond-6 atom-6 atom-7" d="M 50.6,118.3 L 40.0,136.8" style="fill:none;fill-rule:evenodd;stroke:#FF0000;stroke-width:2.0px;stroke-linecap:butt;stroke-linejoin:miter;stroke-opacity:1"/>
<path class="bond-7 atom-6 atom-8" d="M 56.9,99.9 L 46.9,82.5" style="fill:none;fill-rule:evenodd;stroke:#000000;stroke-width:2.0px;stroke-linecap:butt;stroke-linejoin:miter;stroke-opacity:1"/>
<path class="bond-7 atom-6 atom-8" d="M 46.9,82.5 L 36.8,65.1" style="fill:none;fill-rule:evenodd;stroke:#FF0000;stroke-width:2.0px;stroke-linecap:butt;stroke-linejoin:miter;stroke-opacity:1"/>
<path d="M 59.4,99.9 L 56.9,99.9 L 56.4,99.0" style="fill:none;stroke:#000000;stroke-width:2.0px;stroke-linecap:butt;stroke-linejoin:miter;stroke-opacity:1;"/>
<path class="atom-2" d="M 177.1 143.9 Q 177.1 140.4, 178.8 138.5 Q 180.5 136.5, 183.7 136.5 Q 186.9 136.5, 188.6 138.5 Q 190.3 140.4, 190.3 143.9 Q 190.3 147.3, 188.6 149.3 Q 186.8 151.3, 183.7 151.3 Q 180.5 151.3, 178.8 149.3 Q 177.1 147.4, 177.1 143.9 M 183.7 149.7 Q 185.9 149.7, 187.0 148.2 Q 188.2 146.7, 188.2 143.9 Q 188.2 141.0, 187.0 139.6 Q 185.9 138.2, 183.7 138.2 Q 181.5 138.2, 180.3 139.6 Q 179.1 141.0, 179.1 143.9 Q 179.1 146.8, 180.3 148.2 Q 181.5 149.7, 183.7 149.7 " fill="#FF0000"/>
<path class="atom-2" d="M 192.5 136.7 L 194.5 136.7 L 194.5 142.8 L 201.8 142.8 L 201.8 136.7 L 203.7 136.7 L 203.7 151.1 L 201.8 151.1 L 201.8 144.4 L 194.5 144.4 L 194.5 151.1 L 192.5 151.1 L 192.5 136.7 " fill="#FF0000"/>
<path class="atom-7" d="M 24.9 143.9 Q 24.9 140.4, 26.6 138.5 Q 28.3 136.5, 31.5 136.5 Q 34.7 136.5, 36.4 138.5 Q 38.1 140.4, 38.1 143.9 Q 38.1 147.3, 36.4 149.3 Q 34.7 151.3, 31.5 151.3 Q 28.4 151.3, 26.6 149.3 Q 24.9 147.4, 24.9 143.9 M 31.5 149.7 Q 33.7 149.7, 34.9 148.2 Q 36.1 146.7, 36.1 143.9 Q 36.1 141.0, 34.9 139.6 Q 33.7 138.2, 31.5 138.2 Q 29.3 138.2, 28.1 139.6 Q 27.0 141.0, 27.0 143.9 Q 27.0 146.8, 28.1 148.2 Q 29.3 149.7, 31.5 149.7 " fill="#FF0000"/>
<path class="atom-8" d="M 10.7 48.9 L 12.7 48.9 L 12.7 55.0 L 20.0 55.0 L 20.0 48.9 L 22.0 48.9 L 22.0 63.2 L 20.0 63.2 L 20.0 56.6 L 12.7 56.6 L 12.7 63.2 L 10.7 63.2 L 10.7 48.9 " fill="#FF0000"/>
<path class="atom-8" d="M 24.9 56.0 Q 24.9 52.6, 26.6 50.6 Q 28.3 48.7, 31.5 48.7 Q 34.7 48.7, 36.4 50.6 Q 38.1 52.6, 38.1 56.0 Q 38.1 59.5, 36.4 61.5 Q 34.7 63.5, 31.5 63.5 Q 28.4 63.5, 26.6 61.5 Q 24.9 59.5, 24.9 56.0 M 31.5 61.8 Q 33.7 61.8, 34.9 60.4 Q 36.1 58.9, 36.1 56.0 Q 36.1 53.2, 34.9 51.8 Q 33.7 50.3, 31.5 50.3 Q 29.3 50.3, 28.1 51.7 Q 27.0 53.2, 27.0 56.0 Q 27.0 58.9, 28.1 60.4 Q 29.3 61.8, 31.5 61.8 " fill="#FF0000"/>
</g>
  </g>
</svg>
