<?xml version='1.0' encoding='ASCII' standalone='yes'?>
<svg xmlns="http://www.w3.org/2000/svg" xmlns:xlink="http://www.w3.org/1999/xlink" version="1.1" width="844.0px" viewBox="0 0 844.0 200.0" height="200.0px">
  <g>
    <g transform="translate(0, 0) scale(1 1) "><!-- END OF HEADER -->
<rect style="opacity:1.0;fill:#FFFFFF;stroke:none" width="260.0" height="200.0" x="0.0" y="0.0"> </rect>
<path class="bond-0 atom-0 atom-1" d="M 247.0,46.2 L 236.2,87.3" style="fill:none;fill-rule:evenodd;stroke:#000000;stroke-width:2.0px;stroke-linecap:butt;stroke-linejoin:miter;stroke-opacity:1"/>
<path class="bond-1 atom-1 atom-2" d="M 236.2,87.3 L 195.1,98.5" style="fill:none;fill-rule:evenodd;stroke:#000000;stroke-width:2.0px;stroke-linecap:butt;stroke-linejoin:miter;stroke-opacity:1"/>
<path class="bond-2 atom-2 atom-3" d="M 195.1,98.5 L 183.9,57.4" style="fill:none;fill-rule:evenodd;stroke:#000000;stroke-width:2.0px;stroke-linecap:butt;stroke-linejoin:miter;stroke-opacity:1"/>
<path class="bond-3 atom-2 atom-4" d="M 195.1,98.5 L 206.3,139.6" style="fill:none;fill-rule:evenodd;stroke:#000000;stroke-width:2.0px;stroke-linecap:butt;stroke-linejoin:miter;stroke-opacity:1"/>
<path class="bond-4 atom-2 atom-5" d="M 195.1,98.5 L 154.0,109.7" style="fill:none;fill-rule:evenodd;stroke:#000000;stroke-width:2.0px;stroke-linecap:butt;stroke-linejoin:miter;stroke-opacity:1"/>
<path class="bond-5 atom-5 atom-6" d="M 154.0,109.7 L 123.8,79.7" style="fill:none;fill-rule:evenodd;stroke:#000000;stroke-width:2.0px;stroke-linecap:butt;stroke-linejoin:miter;stroke-opacity:1"/>
<path class="bond-6 atom-6 atom-7" d="M 123.8,79.7 L 82.8,90.9" style="fill:none;fill-rule:evenodd;stroke:#000000;stroke-width:2.0px;stroke-linecap:butt;stroke-linejoin:miter;stroke-opacity:1"/>
<path class="bond-7 atom-7 atom-8" d="M 82.8,90.9 L 41.7,102.1" style="fill:none;fill-rule:evenodd;stroke:#000000;stroke-width:2.0px;stroke-linecap:butt;stroke-linejoin:miter;stroke-opacity:1"/>
<path class="bond-8 atom-7 atom-9" d="M 82.8,90.9 L 94.0,132.0" style="fill:none;fill-rule:evenodd;stroke:#000000;stroke-width:2.0px;stroke-linecap:butt;stroke-linejoin:miter;stroke-opacity:1"/>
<path class="bond-9 atom-9 atom-10" d="M 91.4,134.6 L 109.4,139.3" style="fill:none;fill-rule:evenodd;stroke:#000000;stroke-width:2.0px;stroke-linecap:butt;stroke-linejoin:miter;stroke-opacity:1"/>
<path class="bond-9 atom-9 atom-10" d="M 109.4,139.3 L 127.4,144.1" style="fill:none;fill-rule:evenodd;stroke:#FF0000;stroke-width:2.0px;stroke-linecap:butt;stroke-linejoin:miter;stroke-opacity:1"/>
<path class="bond-9 atom-9 atom-10" d="M 93.0,128.4 L 111.0,133.2" style="fill:none;fill-rule:evenodd;stroke:#000000;stroke-width:2.0px;stroke-linecap:butt;stroke-linejoin:miter;stroke-opacity:1"/>
<path class="bond-9 atom-9 atom-10" d="M 111.0,133.2 L 129.0,137.9" style="fill:none;fill-rule:evenodd;stroke:#FF0000;stroke-width:2.0px;stroke-linecap:butt;stroke-linejoin:miter;stroke-opacity:1"/>
<path class="bond-10 atom-9 atom-11" d="M 94.0,132.0 L 82.4,143.6" style="fill:none;fill-rule:evenodd;stroke:#000000;stroke-width:2.0px;stroke-linecap:butt;stroke-linejoin:miter;stroke-opacity:1"/>
<path class="bond-10 atom-9 atom-11" d="M 82.4,143.6 L 70.9,155.2" style="fill:none;fill-rule:evenodd;stroke:#FF0000;stroke-width:2.0px;stroke-linecap:butt;stroke-linejoin:miter;stroke-opacity:1"/>
<path class="bond-11 atom-7 atom-12" d="M 82.8,90.9 L 71.6,49.8" style="fill:none;fill-rule:evenodd;stroke:#000000;stroke-width:2.0px;stroke-linecap:butt;stroke-linejoin:miter;stroke-opacity:1"/>
<path class="bond-12 atom-12 atom-13" d="M 72.6,53.4 L 84.7,41.1" style="fill:none;fill-rule:evenodd;stroke:#000000;stroke-width:2.0px;stroke-linecap:butt;stroke-linejoin:miter;stroke-opacity:1"/>
<path class="bond-12 atom-12 atom-13" d="M 84.7,41.1 L 96.9,28.9" style="fill:none;fill-rule:evenodd;stroke:#FF0000;stroke-width:2.0px;stroke-linecap:butt;stroke-linejoin:miter;stroke-opacity:1"/>
<path class="bond-12 atom-12 atom-13" d="M 68.0,48.9 L 80.2,36.6" style="fill:none;fill-rule:evenodd;stroke:#000000;stroke-width:2.0px;stroke-linecap:butt;stroke-linejoin:miter;stroke-opacity:1"/>
<path class="bond-12 atom-12 atom-13" d="M 80.2,36.6 L 92.3,24.4" style="fill:none;fill-rule:evenodd;stroke:#FF0000;stroke-width:2.0px;stroke-linecap:butt;stroke-linejoin:miter;stroke-opacity:1"/>
<path class="bond-13 atom-12 atom-14" d="M 71.6,49.8 L 54.5,45.3" style="fill:none;fill-rule:evenodd;stroke:#000000;stroke-width:2.0px;stroke-linecap:butt;stroke-linejoin:miter;stroke-opacity:1"/>
<path class="bond-13 atom-12 atom-14" d="M 54.5,45.3 L 37.4,40.8" style="fill:none;fill-rule:evenodd;stroke:#FF0000;stroke-width:2.0px;stroke-linecap:butt;stroke-linejoin:miter;stroke-opacity:1"/>
<path d="M 236.7,85.3 L 236.2,87.3 L 234.1,87.9" style="fill:none;stroke:#000000;stroke-width:2.0px;stroke-linecap:butt;stroke-linejoin:miter;stroke-opacity:1;"/>
<path d="M 156.1,109.1 L 154.0,109.7 L 152.5,108.2" style="fill:none;stroke:#000000;stroke-width:2.0px;stroke-linecap:butt;stroke-linejoin:miter;stroke-opacity:1;"/>
<path d="M 125.3,81.2 L 123.8,79.7 L 121.8,80.3" style="fill:none;stroke:#000000;stroke-width:2.0px;stroke-linecap:butt;stroke-linejoin:miter;stroke-opacity:1;"/>
<path d="M 93.4,129.9 L 94.0,132.0 L 93.4,132.5" style="fill:none;stroke:#000000;stroke-width:2.0px;stroke-linecap:butt;stroke-linejoin:miter;stroke-opacity:1;"/>
<path d="M 72.1,51.9 L 71.6,49.8 L 70.7,49.6" style="fill:none;stroke:#000000;stroke-width:2.0px;stroke-linecap:butt;stroke-linejoin:miter;stroke-opacity:1;"/>
<path class="atom-10" d="M 129.6 142.8 Q 129.6 139.9, 131.0 138.3 Q 132.4 136.7, 135.1 136.7 Q 137.8 136.7, 139.2 138.3 Q 140.6 139.9, 140.6 142.8 Q 140.6 145.8, 139.2 147.4 Q 137.7 149.1, 135.1 149.1 Q 132.4 149.1, 131.0 147.4 Q 129.6 145.8, 129.6 142.8 M 135.1 147.7 Q 136.9 147.7, 137.9 146.5 Q 138.9 145.3, 138.9 142.8 Q 138.9 140.5, 137.9 139.3 Q 136.9 138.1, 135.1 138.1 Q 133.3 138.1, 132.3 139.3 Q 131.3 140.5, 131.3 142.8 Q 131.3 145.3, 132.3 146.5 Q 133.3 147.7, 135.1 147.7 " fill="#FF0000"/>
<path class="atom-11" d="M 46.6 156.2 L 48.2 156.2 L 48.2 161.3 L 54.4 161.3 L 54.4 156.2 L 56.0 156.2 L 56.0 168.3 L 54.4 168.3 L 54.4 162.7 L 48.2 162.7 L 48.2 168.3 L 46.6 168.3 L 46.6 156.2 " fill="#FF0000"/>
<path class="atom-11" d="M 58.5 162.2 Q 58.5 159.3, 59.9 157.7 Q 61.3 156.1, 64.0 156.1 Q 66.7 156.1, 68.1 157.7 Q 69.5 159.3, 69.5 162.2 Q 69.5 165.1, 68.1 166.8 Q 66.6 168.5, 64.0 168.5 Q 61.3 168.5, 59.9 166.8 Q 58.5 165.2, 58.5 162.2 M 64.0 167.1 Q 65.8 167.1, 66.8 165.9 Q 67.8 164.6, 67.8 162.2 Q 67.8 159.8, 66.8 158.7 Q 65.8 157.4, 64.0 157.4 Q 62.2 157.4, 61.1 158.6 Q 60.2 159.8, 60.2 162.2 Q 60.2 164.6, 61.1 165.9 Q 62.2 167.1, 64.0 167.1 " fill="#FF0000"/>
<path class="atom-13" d="M 96.0 19.7 Q 96.0 16.8, 97.4 15.2 Q 98.9 13.5, 101.5 13.5 Q 104.2 13.5, 105.6 15.2 Q 107.1 16.8, 107.1 19.7 Q 107.1 22.6, 105.6 24.3 Q 104.2 25.9, 101.5 25.9 Q 98.9 25.9, 97.4 24.3 Q 96.0 22.6, 96.0 19.7 M 101.5 24.6 Q 103.4 24.6, 104.4 23.3 Q 105.4 22.1, 105.4 19.7 Q 105.4 17.3, 104.4 16.1 Q 103.4 14.9, 101.5 14.9 Q 99.7 14.9, 98.7 16.1 Q 97.7 17.3, 97.7 19.7 Q 97.7 22.1, 98.7 23.3 Q 99.7 24.6, 101.5 24.6 " fill="#FF0000"/>
<path class="atom-14" d="M 13.0 33.0 L 14.6 33.0 L 14.6 38.2 L 20.8 38.2 L 20.8 33.0 L 22.4 33.0 L 22.4 45.1 L 20.8 45.1 L 20.8 39.5 L 14.6 39.5 L 14.6 45.1 L 13.0 45.1 L 13.0 33.0 " fill="#FF0000"/>
<path class="atom-14" d="M 24.9 39.0 Q 24.9 36.1, 26.3 34.5 Q 27.8 32.9, 30.4 32.9 Q 33.1 32.9, 34.5 34.5 Q 36.0 36.1, 36.0 39.0 Q 36.0 42.0, 34.5 43.6 Q 33.1 45.3, 30.4 45.3 Q 27.8 45.3, 26.3 43.6 Q 24.9 42.0, 24.9 39.0 M 30.4 43.9 Q 32.3 43.9, 33.3 42.7 Q 34.3 41.5, 34.3 39.0 Q 34.3 36.7, 33.3 35.5 Q 32.3 34.3, 30.4 34.3 Q 28.6 34.3, 27.6 35.5 Q 26.6 36.7, 26.6 39.0 Q 26.6 41.5, 27.6 42.7 Q 28.6 43.9, 30.4 43.9 " fill="#FF0000"/>
<path class="legend" d="M 121.5 181.9 Q 121.5 179.6, 122.2 177.7 Q 122.8 175.8, 124.1 173.8 L 125.0 174.4 Q 124.0 176.3, 123.4 178.0 Q 122.9 179.7, 122.9 181.9 Q 122.9 184.0, 123.4 185.8 Q 124.0 187.5, 125.0 189.4 L 124.1 190.0 Q 122.8 188.0, 122.2 186.1 Q 121.5 184.2, 121.5 181.9 " fill="#000000"/>
<path class="legend" d="M 125.9 177.3 Q 126.4 176.2, 127.3 175.6 Q 128.3 175.0, 129.7 175.0 Q 131.4 175.0, 132.4 175.9 Q 133.3 176.8, 133.3 178.5 Q 133.3 180.2, 132.1 181.7 Q 130.9 183.3, 128.3 185.2 L 133.5 185.2 L 133.5 186.4 L 125.9 186.4 L 125.9 185.4 Q 128.0 183.9, 129.3 182.8 Q 130.5 181.6, 131.1 180.6 Q 131.7 179.6, 131.7 178.6 Q 131.7 177.5, 131.2 176.9 Q 130.7 176.3, 129.7 176.3 Q 128.8 176.3, 128.2 176.6 Q 127.6 177.0, 127.2 177.8 L 125.9 177.3 " fill="#000000"/>
<path class="legend" d="M 138.5 181.9 Q 138.5 184.2, 137.8 186.1 Q 137.2 188.0, 135.9 190.0 L 135.0 189.4 Q 136.0 187.5, 136.5 185.8 Q 137.1 184.0, 137.1 181.9 Q 137.1 179.7, 136.5 178.0 Q 136.0 176.3, 135.0 174.4 L 135.9 173.8 Q 137.2 175.8, 137.8 177.7 Q 138.5 179.6, 138.5 181.9 " fill="#000000"/>
</g>
    <g transform="translate(260.0, 0) scale(1 1) "><line x1="5" y1="100" x2="35" y2="100" style="stroke:rgb(0,0,0);stroke-width:2"/>
  <line x1="34" y1="100" x2="29" y2="95" style="stroke:rgb(0,0,0);stroke-width:2"/>
  <line x1="34" y1="100" x2="29" y2="105" style="stroke:rgb(0,0,0);stroke-width:2"/>
</g>
    <g transform="translate(300.0, 0) scale(1 1) "><!-- END OF HEADER -->
<rect style="opacity:1.0;fill:#FFFFFF;stroke:none" width="289.0" height="200.0" x="0.0" y="0.0"> </rect>
<path class="bond-0 atom-0 atom-1" d="M 262.3,45.7 L 272.3,77.1" style="fill:none;fill-rule:evenodd;stroke:#000000;stroke-width:2.0px;stroke-linecap:butt;stroke-linejoin:miter;stroke-opacity:1"/>
<path class="bond-1 atom-1 atom-2" d="M 272.3,77.1 L 250.0,101.6" style="fill:none;fill-rule:evenodd;stroke:#000000;stroke-width:2.0px;stroke-linecap:butt;stroke-linejoin:miter;stroke-opacity:1"/>
<path class="bond-2 atom-2 atom-3" d="M 250.0,101.6 L 225.6,79.3" style="fill:none;fill-rule:evenodd;stroke:#000000;stroke-width:2.0px;stroke-linecap:butt;stroke-linejoin:miter;stroke-opacity:1"/>
<path class="bond-3 atom-2 atom-4" d="M 250.0,101.6 L 274.4,123.8" style="fill:none;fill-rule:evenodd;stroke:#000000;stroke-width:2.0px;stroke-linecap:butt;stroke-linejoin:miter;stroke-opacity:1"/>
<path class="bond-4 atom-2 atom-5" d="M 250.0,101.6 L 227.8,126.0" style="fill:none;fill-rule:evenodd;stroke:#000000;stroke-width:2.0px;stroke-linecap:butt;stroke-linejoin:miter;stroke-opacity:1"/>
<path class="bond-5 atom-5 atom-6" d="M 227.8,126.0 L 195.5,118.9" style="fill:none;fill-rule:evenodd;stroke:#000000;stroke-width:2.0px;stroke-linecap:butt;stroke-linejoin:miter;stroke-opacity:1"/>
<path class="bond-6 atom-6 atom-7" d="M 195.5,118.9 L 173.3,143.3" style="fill:none;fill-rule:evenodd;stroke:#000000;stroke-width:2.0px;stroke-linecap:butt;stroke-linejoin:miter;stroke-opacity:1"/>
<path class="bond-7 atom-7 atom-8" d="M 173.3,143.3 L 141.0,136.3" style="fill:none;fill-rule:evenodd;stroke:#000000;stroke-width:2.0px;stroke-linecap:butt;stroke-linejoin:miter;stroke-opacity:1"/>
<path class="bond-8 atom-8 atom-9" d="M 141.0,136.3 L 148.1,104.0" style="fill:none;fill-rule:evenodd;stroke:#000000;stroke-width:2.0px;stroke-linecap:butt;stroke-linejoin:miter;stroke-opacity:1"/>
<path class="bond-9 atom-8 atom-10" d="M 141.0,136.3 L 134.0,168.5" style="fill:none;fill-rule:evenodd;stroke:#000000;stroke-width:2.0px;stroke-linecap:butt;stroke-linejoin:miter;stroke-opacity:1"/>
<path class="bond-10 atom-8 atom-11" d="M 141.0,136.3 L 108.8,129.2" style="fill:none;fill-rule:evenodd;stroke:#000000;stroke-width:2.0px;stroke-linecap:butt;stroke-linejoin:miter;stroke-opacity:1"/>
<path class="bond-11 atom-11 atom-12" d="M 108.8,129.2 L 98.8,97.8" style="fill:none;fill-rule:evenodd;stroke:#000000;stroke-width:2.0px;stroke-linecap:butt;stroke-linejoin:miter;stroke-opacity:1"/>
<path class="bond-12 atom-12 atom-13" d="M 98.8,97.8 L 66.5,90.7" style="fill:none;fill-rule:evenodd;stroke:#000000;stroke-width:2.0px;stroke-linecap:butt;stroke-linejoin:miter;stroke-opacity:1"/>
<path class="bond-13 atom-13 atom-14" d="M 66.5,90.7 L 34.2,83.6" style="fill:none;fill-rule:evenodd;stroke:#000000;stroke-width:2.0px;stroke-linecap:butt;stroke-linejoin:miter;stroke-opacity:1"/>
<path class="bond-14 atom-13 atom-15" d="M 66.5,90.7 L 59.4,123.0" style="fill:none;fill-rule:evenodd;stroke:#000000;stroke-width:2.0px;stroke-linecap:butt;stroke-linejoin:miter;stroke-opacity:1"/>
<path class="bond-15 atom-15 atom-16" d="M 56.7,123.8 L 66.8,133.0" style="fill:none;fill-rule:evenodd;stroke:#000000;stroke-width:2.0px;stroke-linecap:butt;stroke-linejoin:miter;stroke-opacity:1"/>
<path class="bond-15 atom-15 atom-16" d="M 66.8,133.0 L 76.8,142.1" style="fill:none;fill-rule:evenodd;stroke:#FF0000;stroke-width:2.0px;stroke-linecap:butt;stroke-linejoin:miter;stroke-opacity:1"/>
<path class="bond-15 atom-15 atom-16" d="M 60.1,120.2 L 70.1,129.3" style="fill:none;fill-rule:evenodd;stroke:#000000;stroke-width:2.0px;stroke-linecap:butt;stroke-linejoin:miter;stroke-opacity:1"/>
<path class="bond-15 atom-15 atom-16" d="M 70.1,129.3 L 80.1,138.5" style="fill:none;fill-rule:evenodd;stroke:#FF0000;stroke-width:2.0px;stroke-linecap:butt;stroke-linejoin:miter;stroke-opacity:1"/>
<path class="bond-16 atom-15 atom-17" d="M 59.4,123.0 L 46.4,127.1" style="fill:none;fill-rule:evenodd;stroke:#000000;stroke-width:2.0px;stroke-linecap:butt;stroke-linejoin:miter;stroke-opacity:1"/>
<path class="bond-16 atom-15 atom-17" d="M 46.4,127.1 L 33.4,131.3" style="fill:none;fill-rule:evenodd;stroke:#FF0000;stroke-width:2.0px;stroke-linecap:butt;stroke-linejoin:miter;stroke-opacity:1"/>
<path class="bond-17 atom-13 atom-18" d="M 66.5,90.7 L 73.5,58.4" style="fill:none;fill-rule:evenodd;stroke:#000000;stroke-width:2.0px;stroke-linecap:butt;stroke-linejoin:miter;stroke-opacity:1"/>
<path class="bond-18 atom-18 atom-19" d="M 72.9,61.2 L 86.7,56.9" style="fill:none;fill-rule:evenodd;stroke:#000000;stroke-width:2.0px;stroke-linecap:butt;stroke-linejoin:miter;stroke-opacity:1"/>
<path class="bond-18 atom-18 atom-19" d="M 86.7,56.9 L 100.4,52.5" style="fill:none;fill-rule:evenodd;stroke:#FF0000;stroke-width:2.0px;stroke-linecap:butt;stroke-linejoin:miter;stroke-opacity:1"/>
<path class="bond-18 atom-18 atom-19" d="M 71.4,56.5 L 85.2,52.1" style="fill:none;fill-rule:evenodd;stroke:#000000;stroke-width:2.0px;stroke-linecap:butt;stroke-linejoin:miter;stroke-opacity:1"/>
<path class="bond-18 atom-18 atom-19" d="M 85.2,52.1 L 98.9,47.8" style="fill:none;fill-rule:evenodd;stroke:#FF0000;stroke-width:2.0px;stroke-linecap:butt;stroke-linejoin:miter;stroke-opacity:1"/>
<path class="bond-19 atom-18 atom-20" d="M 73.5,58.4 L 64.0,49.8" style="fill:none;fill-rule:evenodd;stroke:#000000;stroke-width:2.0px;stroke-linecap:butt;stroke-linejoin:miter;stroke-opacity:1"/>
<path class="bond-19 atom-18 atom-20" d="M 64.0,49.8 L 54.5,41.1" style="fill:none;fill-rule:evenodd;stroke:#FF0000;stroke-width:2.0px;stroke-linecap:butt;stroke-linejoin:miter;stroke-opacity:1"/>
<path d="M 271.8,75.6 L 272.3,77.1 L 271.2,78.4" style="fill:none;stroke:#000000;stroke-width:2.0px;stroke-linecap:butt;stroke-linejoin:miter;stroke-opacity:1;"/>
<path d="M 228.9,124.7 L 227.8,126.0 L 226.2,125.6" style="fill:none;stroke:#000000;stroke-width:2.0px;stroke-linecap:butt;stroke-linejoin:miter;stroke-opacity:1;"/>
<path d="M 197.2,119.3 L 195.5,118.9 L 194.4,120.1" style="fill:none;stroke:#000000;stroke-width:2.0px;stroke-linecap:butt;stroke-linejoin:miter;stroke-opacity:1;"/>
<path d="M 174.4,142.1 L 173.3,143.3 L 171.7,143.0" style="fill:none;stroke:#000000;stroke-width:2.0px;stroke-linecap:butt;stroke-linejoin:miter;stroke-opacity:1;"/>
<path d="M 110.4,129.6 L 108.8,129.2 L 108.3,127.6" style="fill:none;stroke:#000000;stroke-width:2.0px;stroke-linecap:butt;stroke-linejoin:miter;stroke-opacity:1;"/>
<path d="M 99.3,99.3 L 98.8,97.8 L 97.1,97.4" style="fill:none;stroke:#000000;stroke-width:2.0px;stroke-linecap:butt;stroke-linejoin:miter;stroke-opacity:1;"/>
<path d="M 59.8,121.3 L 59.4,123.0 L 58.8,123.2" style="fill:none;stroke:#000000;stroke-width:2.0px;stroke-linecap:butt;stroke-linejoin:miter;stroke-opacity:1;"/>
<path d="M 73.2,60.1 L 73.5,58.4 L 73.1,58.0" style="fill:none;stroke:#000000;stroke-width:2.0px;stroke-linecap:butt;stroke-linejoin:miter;stroke-opacity:1;"/>
<path class="atom-16" d="M 79.6 145.2 Q 79.6 143.0, 80.7 141.7 Q 81.8 140.5, 83.9 140.5 Q 85.9 140.5, 87.0 141.7 Q 88.1 143.0, 88.1 145.2 Q 88.1 147.5, 87.0 148.8 Q 85.9 150.1, 83.9 150.1 Q 81.8 150.1, 80.7 148.8 Q 79.6 147.5, 79.6 145.2 M 83.9 149.0 Q 85.3 149.0, 86.0 148.1 Q 86.8 147.1, 86.8 145.2 Q 86.8 143.4, 86.0 142.5 Q 85.3 141.5, 83.9 141.5 Q 82.4 141.5, 81.6 142.4 Q 80.9 143.4, 80.9 145.2 Q 80.9 147.1, 81.6 148.1 Q 82.4 149.0, 83.9 149.0 " fill="#FF0000"/>
<path class="atom-17" d="M 14.4 128.4 L 15.7 128.4 L 15.7 132.3 L 20.5 132.3 L 20.5 128.4 L 21.8 128.4 L 21.8 137.7 L 20.5 137.7 L 20.5 133.4 L 15.7 133.4 L 15.7 137.7 L 14.4 137.7 L 14.4 128.4 " fill="#FF0000"/>
<path class="atom-17" d="M 23.7 133.0 Q 23.7 130.8, 24.8 129.5 Q 25.9 128.3, 28.0 128.3 Q 30.1 128.3, 31.2 129.5 Q 32.3 130.8, 32.3 133.0 Q 32.3 135.3, 31.1 136.6 Q 30.0 137.9, 28.0 137.9 Q 25.9 137.9, 24.8 136.6 Q 23.7 135.3, 23.7 133.0 M 28.0 136.8 Q 29.4 136.8, 30.2 135.8 Q 31.0 134.9, 31.0 133.0 Q 31.0 131.2, 30.2 130.2 Q 29.4 129.3, 28.0 129.3 Q 26.6 129.3, 25.8 130.2 Q 25.0 131.2, 25.0 133.0 Q 25.0 134.9, 25.8 135.8 Q 26.6 136.8, 28.0 136.8 " fill="#FF0000"/>
<path class="atom-19" d="M 100.7 48.4 Q 100.7 46.2, 101.8 44.9 Q 102.9 43.7, 105.0 43.7 Q 107.1 43.7, 108.2 44.9 Q 109.3 46.2, 109.3 48.4 Q 109.3 50.7, 108.2 52.0 Q 107.1 53.3, 105.0 53.3 Q 103.0 53.3, 101.8 52.0 Q 100.7 50.7, 100.7 48.4 M 105.0 52.2 Q 106.4 52.2, 107.2 51.3 Q 108.0 50.3, 108.0 48.4 Q 108.0 46.6, 107.2 45.7 Q 106.4 44.7, 105.0 44.7 Q 103.6 44.7, 102.8 45.7 Q 102.0 46.6, 102.0 48.4 Q 102.0 50.3, 102.8 51.3 Q 103.6 52.2, 105.0 52.2 " fill="#FF0000"/>
<path class="atom-20" d="M 35.6 31.6 L 36.9 31.6 L 36.9 35.6 L 41.7 35.6 L 41.7 31.6 L 42.9 31.6 L 42.9 40.9 L 41.7 40.9 L 41.7 36.6 L 36.9 36.6 L 36.9 40.9 L 35.6 40.9 L 35.6 31.6 " fill="#FF0000"/>
<path class="atom-20" d="M 44.8 36.2 Q 44.8 34.0, 46.0 32.7 Q 47.1 31.5, 49.1 31.5 Q 51.2 31.5, 52.3 32.7 Q 53.4 34.0, 53.4 36.2 Q 53.4 38.5, 52.3 39.8 Q 51.2 41.1, 49.1 41.1 Q 47.1 41.1, 46.0 39.8 Q 44.8 38.5, 44.8 36.2 M 49.1 40.0 Q 50.6 40.0, 51.3 39.1 Q 52.1 38.1, 52.1 36.2 Q 52.1 34.4, 51.3 33.5 Q 50.6 32.5, 49.1 32.5 Q 47.7 32.5, 46.9 33.5 Q 46.2 34.4, 46.2 36.2 Q 46.2 38.1, 46.9 39.1 Q 47.7 40.0, 49.1 40.0 " fill="#FF0000"/>
</g>
    <g transform="translate(589.0, 0) scale(1 1) "><line x1="15" y1="100" x2="25" y2="100" style="stroke:rgb(0,0,0);stroke-width:2"/>
  <line x1="20" y1="95" x2="20" y2="105" style="stroke:rgb(0,0,0);stroke-width:2"/>
</g>
    <g transform="translate(629.0, 0) scale(1 1) "><!-- END OF HEADER -->
<rect style="opacity:1.0;fill:#FFFFFF;stroke:none" width="215.0" height="200.0" x="0.0" y="0.0"> </rect>
<path class="bond-0 atom-0 atom-1" d="M 107.6,49.2 L 107.6,99.9" style="fill:none;fill-rule:evenodd;stroke:#000000;stroke-width:2.0px;stroke-linecap:butt;stroke-linejoin:miter;stroke-opacity:1"/>
<path class="bond-1 atom-1 atom-2" d="M 107.6,99.9 L 107.6,150.6" style="fill:none;fill-rule:evenodd;stroke:#000000;stroke-width:2.0px;stroke-linecap:butt;stroke-linejoin:miter;stroke-opacity:1"/>
<path class="bond-2 atom-1 atom-3" d="M 107.6,99.9 L 56.9,99.9" style="fill:none;fill-rule:evenodd;stroke:#000000;stroke-width:2.0px;stroke-linecap:butt;stroke-linejoin:miter;stroke-opacity:1"/>
<path class="bond-3 atom-3 atom-4" d="M 61.3,99.9 L 50.7,81.6" style="fill:none;fill-rule:evenodd;stroke:#000000;stroke-width:2.0px;stroke-linecap:butt;stroke-linejoin:miter;stroke-opacity:1"/>
<path class="bond-3 atom-3 atom-4" d="M 50.7,81.6 L 40.1,63.2" style="fill:none;fill-rule:evenodd;stroke:#FF0000;stroke-width:2.0px;stroke-linecap:butt;stroke-linejoin:miter;stroke-opacity:1"/>
<path class="bond-3 atom-3 atom-4" d="M 54.7,103.7 L 44.1,85.4" style="fill:none;fill-rule:evenodd;stroke:#000000;stroke-width:2.0px;stroke-linecap:butt;stroke-linejoin:miter;stroke-opacity:1"/>
<path class="bond-3 atom-3 atom-4" d="M 44.1,85.4 L 33.5,67.0" style="fill:none;fill-rule:evenodd;stroke:#FF0000;stroke-width:2.0px;stroke-linecap:butt;stroke-linejoin:miter;stroke-opacity:1"/>
<path class="bond-4 atom-3 atom-5" d="M 56.9,99.9 L 46.8,117.4" style="fill:none;fill-rule:evenodd;stroke:#000000;stroke-width:2.0px;stroke-linecap:butt;stroke-linejoin:miter;stroke-opacity:1"/>
<path class="bond-4 atom-3 atom-5" d="M 46.8,117.4 L 36.7,134.9" style="fill:none;fill-rule:evenodd;stroke:#FF0000;stroke-width:2.0px;stroke-linecap:butt;stroke-linejoin:miter;stroke-opacity:1"/>
<path class="bond-5 atom-1 atom-6" d="M 107.6,99.9 L 158.3,99.9" style="fill:none;fill-rule:evenodd;stroke:#000000;stroke-width:2.0px;stroke-linecap:butt;stroke-linejoin:miter;stroke-opacity:1"/>
<path class="bond-6 atom-6 atom-7" d="M 160.5,103.7 L 171.1,85.4" style="fill:none;fill-rule:evenodd;stroke:#000000;stroke-width:2.0px;stroke-linecap:butt;stroke-linejoin:miter;stroke-opacity:1"/>
<path class="bond-6 atom-6 atom-7" d="M 171.1,85.4 L 181.7,67.0" style="fill:none;fill-rule:evenodd;stroke:#FF0000;stroke-width:2.0px;stroke-linecap:butt;stroke-linejoin:miter;stroke-opacity:1"/>
<path class="bond-6 atom-6 atom-7" d="M 153.9,99.9 L 164.5,81.6" style="fill:none;fill-rule:evenodd;stroke:#000000;stroke-width:2.0px;stroke-linecap:butt;stroke-linejoin:miter;stroke-opacity:1"/>
<path class="bond-6 atom-6 atom-7" d="M 164.5,81.6 L 175.1,63.2" style="fill:none;fill-rule:evenodd;stroke:#FF0000;stroke-width:2.0px;stroke-linecap:butt;stroke-linejoin:miter;stroke-opacity:1"/>
<path class="bond-7 atom-6 atom-8" d="M 158.3,99.9 L 168.4,117.4" style="fill:none;fill-rule:evenodd;stroke:#000000;stroke-width:2.0px;stroke-linecap:butt;stroke-linejoin:miter;stroke-opacity:1"/>
<path class="bond-7 atom-6 atom-8" d="M 168.4,117.4 L 178.5,134.9" style="fill:none;fill-rule:evenodd;stroke:#FF0000;stroke-width:2.0px;stroke-linecap:butt;stroke-linejoin:miter;stroke-opacity:1"/>
<path d="M 59.4,99.9 L 56.9,99.9 L 56.4,100.8" style="fill:none;stroke:#000000;stroke-width:2.0px;stroke-linecap:butt;stroke-linejoin:miter;stroke-opacity:1;"/>
<path d="M 155.8,99.9 L 158.3,99.9 L 158.8,100.8" style="fill:none;stroke:#000000;stroke-width:2.0px;stroke-linecap:butt;stroke-linejoin:miter;stroke-opacity:1;"/>
<path class="atom-4" d="M 24.9 56.0 Q 24.9 52.6, 26.6 50.6 Q 28.3 48.7, 31.5 48.7 Q 34.7 48.7, 36.4 50.6 Q 38.1 52.6, 38.1 56.0 Q 38.1 59.5, 36.4 61.5 Q 34.7 63.5, 31.5 63.5 Q 28.4 63.5, 26.6 61.5 Q 24.9 59.5, 24.9 56.0 M 31.5 61.8 Q 33.7 61.8, 34.9 60.4 Q 36.1 58.9, 36.1 56.0 Q 36.1 53.2, 34.9 51.8 Q 33.7 50.3, 31.5 50.3 Q 29.3 50.3, 28.1 51.7 Q 27.0 53.2, 27.0 56.0 Q 27.0 58.9, 28.1 60.4 Q 29.3 61.8, 31.5 61.8 " fill="#FF0000"/>
<path class="atom-5" d="M 10.7 136.7 L 12.7 136.7 L 12.7 142.8 L 20.0 142.8 L 20.0 136.7 L 22.0 136.7 L 22.0 151.1 L 20.0 151.1 L 20.0 144.4 L 12.7 144.4 L 12.7 151.1 L 10.7 151.1 L 10.7 136.7 " fill="#FF0000"/>
<path class="atom-5" d="M 24.9 143.9 Q 24.9 140.4, 26.6 138.5 Q 28.3 136.5, 31.5 136.5 Q 34.7 136.5, 36.4 138.5 Q 38.1 140.4, 38.1 143.9 Q 38.1 147.3, 36.4 149.3 Q 34.7 151.3, 31.5 151.3 Q 28.4 151.3, 26.6 149.3 Q 24.9 147.4, 24.9 143.9 M 31.5 149.7 Q 33.7 149.7, 34.9 148.2 Q 36.1 146.7, 36.1 143.9 Q 36.1 141.0, 34.9 139.6 Q 33.7 138.2, 31.5 138.2 Q 29.3 138.2, 28.1 139.6 Q 27.0 141.0, 27.0 143.9 Q 27.0 146.8, 28.1 148.2 Q 29.3 149.7, 31.5 149.7 " fill="#FF0000"/>
<path class="atom-7" d="M 177.1 56.0 Q 177.1 52.6, 178.8 50.6 Q 180.5 48.7, 183.7 48.7 Q 186.9 48.7, 188.6 50.6 Q 190.3 52.6, 190.3 56.0 Q 190.3 59.5, 188.6 61.5 Q 186.8 63.5, 183.7 63.5 Q 180.5 63.5, 178.8 61.5 Q 177.1 59.5, 177.1 56.0 M 183.7 61.8 Q 185.9 61.8, 187.0 60.4 Q 188.2 58.9, 188.2 56.0 Q 188.2 53.2, 187.0 51.8 Q 185.9 50.3, 183.7 50.3 Q 181.5 50.3, 180.3 51.7 Q 179.1 53.2, 179.1 56.0 Q 179.1 58.9, 180.3 60.4 Q 181.5 61.8, 183.7 61.8 " fill="#FF0000"/>
<path class="atom-8" d="M 177.1 143.9 Q 177.1 140.4, 178.8 138.5 Q 180.5 136.5, 183.7 136.5 Q 186.9 136.5, 188.6 138.5 Q 190.3 140.4, 190.3 143.9 Q 190.3 147.3, 188.6 149.3 Q 186.8 151.3, 183.7 151.3 Q 180.5 151.3, 178.8 149.3 Q 177.1 147.4, 177.1 143.9 M 183.7 149.7 Q 185.9 149.7, 187.0 148.2 Q 188.2 146.7, 188.2 143.9 Q 188.2 141.0, 187.0 139.6 Q 185.9 138.2, 183.7 138.2 Q 181.5 138.2, 180.3 139.6 Q 179.1 141.0, 179.1 143.9 Q 179.1 146.8, 180.3 148.2 Q 181.5 149.7, 183.7 149.7 " fill="#FF0000"/>
<path class="atom-8" d="M 192.5 136.7 L 194.5 136.7 L 194.5 142.8 L 201.8 142.8 L 201.8 136.7 L 203.8 136.7 L 203.8 151.1 L 201.8 151.1 L 201.8 144.4 L 194.5 144.4 L 194.5 151.1 L 192.5 151.1 L 192.5 136.7 " fill="#FF0000"/>
</g>
  </g>
</svg>
