<?xml version='1.0' encoding='ASCII' standalone='yes'?>
<svg xmlns="http://www.w3.org/2000/svg" xmlns:xlink="http://www.w3.org/1999/xlink" version="1.1" width="713.0px" viewBox="0 0 713.0 200.0" height="200.0px">
  <g>
    <g transform="translate(0, 0) scale(1 1) "><!-- END OF HEADER -->
<rect style="opacity:1.0;fill:#FFFFFF;stroke:none" width="247.0" height="200.0" x="0.0" y="0.0"> </rect>
<path class="bond-0 atom-0 atom-1" d="M 39.5,46.3 L 62.2,88.4" style="fill:none;fill-rule:evenodd;stroke:#000000;stroke-width:2.0px;stroke-linecap:butt;stroke-linejoin:miter;stroke-opacity:1"/>
<path class="bond-1 atom-1 atom-2" d="M 62.2,88.4 L 84.9,130.6" style="fill:none;fill-rule:evenodd;stroke:#000000;stroke-width:2.0px;stroke-linecap:butt;stroke-linejoin:miter;stroke-opacity:1"/>
<path class="bond-2 atom-1 atom-3" d="M 62.2,88.4 L 20.0,111.2" style="fill:none;fill-rule:evenodd;stroke:#000000;stroke-width:2.0px;stroke-linecap:butt;stroke-linejoin:miter;stroke-opacity:1"/>
<path class="bond-3 atom-3 atom-4" d="M 20.0,111.2 L 19.4,130.9" style="fill:none;fill-rule:evenodd;stroke:#000000;stroke-width:2.0px;stroke-linecap:butt;stroke-linejoin:miter;stroke-opacity:1"/>
<path class="bond-3 atom-3 atom-4" d="M 19.4,130.9 L 18.8,150.6" style="fill:none;fill-rule:evenodd;stroke:#FF0000;stroke-width:2.0px;stroke-linecap:butt;stroke-linejoin:miter;stroke-opacity:1"/>
<path class="bond-4 atom-1 atom-5" d="M 62.2,88.4 L 104.4,65.7" style="fill:none;fill-rule:evenodd;stroke:#000000;stroke-width:2.0px;stroke-linecap:butt;stroke-linejoin:miter;stroke-opacity:1"/>
<path class="bond-5 atom-5 atom-6" d="M 104.4,65.7 L 105.0,46.1" style="fill:none;fill-rule:evenodd;stroke:#000000;stroke-width:2.0px;stroke-linecap:butt;stroke-linejoin:miter;stroke-opacity:1"/>
<path class="bond-5 atom-5 atom-6" d="M 105.0,46.1 L 105.5,26.5" style="fill:none;fill-rule:evenodd;stroke:#FF0000;stroke-width:2.0px;stroke-linecap:butt;stroke-linejoin:miter;stroke-opacity:1"/>
<path class="bond-6 atom-5 atom-7" d="M 104.4,65.7 L 145.2,90.9" style="fill:none;fill-rule:evenodd;stroke:#000000;stroke-width:2.0px;stroke-linecap:butt;stroke-linejoin:miter;stroke-opacity:1"/>
<path class="bond-7 atom-7 atom-8" d="M 145.2,90.9 L 120.0,131.7" style="fill:none;fill-rule:evenodd;stroke:#000000;stroke-width:2.0px;stroke-linecap:butt;stroke-linejoin:miter;stroke-opacity:1"/>
<path class="bond-8 atom-7 atom-9" d="M 145.2,90.9 L 170.3,50.1" style="fill:none;fill-rule:evenodd;stroke:#000000;stroke-width:2.0px;stroke-linecap:butt;stroke-linejoin:miter;stroke-opacity:1"/>
<path class="bond-9 atom-7 atom-10" d="M 145.2,90.9 L 185.9,116.1" style="fill:none;fill-rule:evenodd;stroke:#000000;stroke-width:2.0px;stroke-linecap:butt;stroke-linejoin:miter;stroke-opacity:1"/>
<path class="bond-10 atom-10 atom-11" d="M 185.8,120.2 L 203.9,110.5" style="fill:none;fill-rule:evenodd;stroke:#000000;stroke-width:2.0px;stroke-linecap:butt;stroke-linejoin:miter;stroke-opacity:1"/>
<path class="bond-10 atom-10 atom-11" d="M 203.9,110.5 L 222.0,100.7" style="fill:none;fill-rule:evenodd;stroke:#FF0000;stroke-width:2.0px;stroke-linecap:butt;stroke-linejoin:miter;stroke-opacity:1"/>
<path class="bond-10 atom-10 atom-11" d="M 182.4,113.9 L 200.5,104.1" style="fill:none;fill-rule:evenodd;stroke:#000000;stroke-width:2.0px;stroke-linecap:butt;stroke-linejoin:miter;stroke-opacity:1"/>
<path class="bond-10 atom-10 atom-11" d="M 200.5,104.1 L 218.6,94.4" style="fill:none;fill-rule:evenodd;stroke:#FF0000;stroke-width:2.0px;stroke-linecap:butt;stroke-linejoin:miter;stroke-opacity:1"/>
<path class="bond-11 atom-10 atom-12" d="M 185.9,116.1 L 185.3,135.8" style="fill:none;fill-rule:evenodd;stroke:#000000;stroke-width:2.0px;stroke-linecap:butt;stroke-linejoin:miter;stroke-opacity:1"/>
<path class="bond-11 atom-10 atom-12" d="M 185.3,135.8 L 184.8,155.5" style="fill:none;fill-rule:evenodd;stroke:#FF0000;stroke-width:2.0px;stroke-linecap:butt;stroke-linejoin:miter;stroke-opacity:1"/>
<path d="M 22.1,110.0 L 20.0,111.2 L 20.0,112.2" style="fill:none;stroke:#000000;stroke-width:2.0px;stroke-linecap:butt;stroke-linejoin:miter;stroke-opacity:1;"/>
<path d="M 183.9,114.8 L 185.9,116.1 L 185.9,117.1" style="fill:none;stroke:#000000;stroke-width:2.0px;stroke-linecap:butt;stroke-linejoin:miter;stroke-opacity:1;"/>
<path class="atom-4" d="M 12.3 159.1 Q 12.3 155.9, 14.0 154.0 Q 15.6 152.2, 18.6 152.2 Q 21.6 152.2, 23.2 154.0 Q 24.8 155.9, 24.8 159.1 Q 24.8 162.4, 23.2 164.3 Q 21.6 166.1, 18.6 166.1 Q 15.6 166.1, 14.0 164.3 Q 12.3 162.4, 12.3 159.1 M 18.6 164.6 Q 20.7 164.6, 21.8 163.2 Q 22.9 161.8, 22.9 159.1 Q 22.9 156.4, 21.8 155.1 Q 20.7 153.7, 18.6 153.7 Q 16.5 153.7, 15.4 155.1 Q 14.3 156.4, 14.3 159.1 Q 14.3 161.9, 15.4 163.2 Q 16.5 164.6, 18.6 164.6 " fill="#FF0000"/>
<path class="atom-4" d="M 26.9 152.4 L 28.8 152.4 L 28.8 158.1 L 35.7 158.1 L 35.7 152.4 L 37.5 152.4 L 37.5 165.9 L 35.7 165.9 L 35.7 159.7 L 28.8 159.7 L 28.8 165.9 L 26.9 165.9 L 26.9 152.4 " fill="#FF0000"/>
<path class="atom-6" d="M 99.6 17.9 Q 99.6 14.6, 101.2 12.8 Q 102.8 11.0, 105.8 11.0 Q 108.8 11.0, 110.4 12.8 Q 112.0 14.6, 112.0 17.9 Q 112.0 21.2, 110.4 23.0 Q 108.8 24.9, 105.8 24.9 Q 102.8 24.9, 101.2 23.0 Q 99.6 21.2, 99.6 17.9 M 105.8 23.4 Q 107.9 23.4, 109.0 22.0 Q 110.1 20.6, 110.1 17.9 Q 110.1 15.2, 109.0 13.9 Q 107.9 12.5, 105.8 12.5 Q 103.7 12.5, 102.6 13.8 Q 101.5 15.2, 101.5 17.9 Q 101.5 20.6, 102.6 22.0 Q 103.7 23.4, 105.8 23.4 " fill="#FF0000"/>
<path class="atom-6" d="M 114.1 11.1 L 116.0 11.1 L 116.0 16.9 L 122.9 16.9 L 122.9 11.1 L 124.7 11.1 L 124.7 24.7 L 122.9 24.7 L 122.9 18.4 L 116.0 18.4 L 116.0 24.7 L 114.1 24.7 L 114.1 11.1 " fill="#FF0000"/>
<path class="atom-11" d="M 221.9 93.4 Q 221.9 90.1, 223.5 88.3 Q 225.1 86.5, 228.1 86.5 Q 231.1 86.5, 232.7 88.3 Q 234.4 90.1, 234.4 93.4 Q 234.4 96.7, 232.7 98.6 Q 231.1 100.4, 228.1 100.4 Q 225.1 100.4, 223.5 98.6 Q 221.9 96.7, 221.9 93.4 M 228.1 98.9 Q 230.2 98.9, 231.3 97.5 Q 232.4 96.1, 232.4 93.4 Q 232.4 90.7, 231.3 89.4 Q 230.2 88.0, 228.1 88.0 Q 226.0 88.0, 224.9 89.4 Q 223.8 90.7, 223.8 93.4 Q 223.8 96.1, 224.9 97.5 Q 226.0 98.9, 228.1 98.9 " fill="#FF0000"/>
<path class="atom-12" d="M 178.3 164.0 Q 178.3 160.8, 179.9 158.9 Q 181.5 157.1, 184.5 157.1 Q 187.5 157.1, 189.1 158.9 Q 190.7 160.8, 190.7 164.0 Q 190.7 167.3, 189.1 169.2 Q 187.5 171.0, 184.5 171.0 Q 181.5 171.0, 179.9 169.2 Q 178.3 167.3, 178.3 164.0 M 184.5 169.5 Q 186.6 169.5, 187.7 168.1 Q 188.8 166.7, 188.8 164.0 Q 188.8 161.3, 187.7 160.0 Q 186.6 158.6, 184.5 158.6 Q 182.4 158.6, 181.3 160.0 Q 180.2 161.3, 180.2 164.0 Q 180.2 166.8, 181.3 168.1 Q 182.4 169.5, 184.5 169.5 " fill="#FF0000"/>
<path class="atom-12" d="M 192.9 157.3 L 194.7 157.3 L 194.7 163.0 L 201.6 163.0 L 201.6 157.3 L 203.5 157.3 L 203.5 170.8 L 201.6 170.8 L 201.6 164.6 L 194.7 164.6 L 194.7 170.8 L 192.9 170.8 L 192.9 157.3 " fill="#FF0000"/>
<path class="legend" d="M 114.8 181.9 Q 114.8 179.6, 115.5 177.7 Q 116.2 175.8, 117.5 173.8 L 118.4 174.4 Q 117.3 176.3, 116.8 178.0 Q 116.3 179.7, 116.3 181.9 Q 116.3 184.0, 116.8 185.8 Q 117.3 187.5, 118.4 189.4 L 117.5 190.0 Q 116.2 188.0, 115.5 186.1 Q 114.8 184.2, 114.8 181.9 " fill="#000000"/>
<path class="legend" d="M 119.3 177.3 Q 119.7 176.2, 120.7 175.6 Q 121.7 175.0, 123.1 175.0 Q 124.8 175.0, 125.7 175.9 Q 126.7 176.8, 126.7 178.5 Q 126.7 180.2, 125.4 181.7 Q 124.2 183.3, 121.7 185.2 L 126.9 185.2 L 126.9 186.4 L 119.3 186.4 L 119.3 185.4 Q 121.4 183.9, 122.6 182.8 Q 123.9 181.6, 124.5 180.6 Q 125.1 179.6, 125.1 178.6 Q 125.1 177.5, 124.5 176.9 Q 124.0 176.3, 123.1 176.3 Q 122.1 176.3, 121.5 176.6 Q 120.9 177.0, 120.5 177.8 L 119.3 177.3 " fill="#000000"/>
<path class="legend" d="M 131.9 181.9 Q 131.9 184.2, 131.2 186.1 Q 130.5 188.0, 129.2 190.0 L 128.3 189.4 Q 129.4 187.5, 129.9 185.8 Q 130.4 184.0, 130.4 181.9 Q 130.4 179.7, 129.9 178.0 Q 129.4 176.3, 128.3 174.4 L 129.2 173.8 Q 130.5 175.8, 131.2 177.7 Q 131.9 179.6, 131.9 181.9 " fill="#000000"/>
</g>
    <g transform="translate(247.0, 0) scale(1 1) "><line x1="5" y1="100" x2="35" y2="100" style="stroke:rgb(0,0,0);stroke-width:2"/>
  <line x1="34" y1="100" x2="29" y2="95" style="stroke:rgb(0,0,0);stroke-width:2"/>
  <line x1="34" y1="100" x2="29" y2="105" style="stroke:rgb(0,0,0);stroke-width:2"/>
</g>
    <g transform="translate(287.0, 0) scale(1 1) "><!-- END OF HEADER -->
<rect style="opacity:1.0;fill:#FFFFFF;stroke:none" width="301.0" height="200.0" x="0.0" y="0.0"> </rect>
<path class="bond-0 atom-0 atom-1" d="M 183.9,37.9 L 183.2,70.8" style="fill:none;fill-rule:evenodd;stroke:#000000;stroke-width:2.0px;stroke-linecap:butt;stroke-linejoin:miter;stroke-opacity:1"/>
<path class="bond-1 atom-1 atom-2" d="M 183.2,70.8 L 182.6,103.7" style="fill:none;fill-rule:evenodd;stroke:#000000;stroke-width:2.0px;stroke-linecap:butt;stroke-linejoin:miter;stroke-opacity:1"/>
<path class="bond-2 atom-1 atom-3" d="M 183.2,70.8 L 150.3,70.1" style="fill:none;fill-rule:evenodd;stroke:#000000;stroke-width:2.0px;stroke-linecap:butt;stroke-linejoin:miter;stroke-opacity:1"/>
<path class="bond-3 atom-3 atom-4" d="M 150.3,70.1 L 133.3,98.3" style="fill:none;fill-rule:evenodd;stroke:#000000;stroke-width:2.0px;stroke-linecap:butt;stroke-linejoin:miter;stroke-opacity:1"/>
<path class="bond-4 atom-4 atom-5" d="M 133.3,98.3 L 116.3,126.5" style="fill:none;fill-rule:evenodd;stroke:#000000;stroke-width:2.0px;stroke-linecap:butt;stroke-linejoin:miter;stroke-opacity:1"/>
<path class="bond-5 atom-4 atom-6" d="M 133.3,98.3 L 161.5,115.3" style="fill:none;fill-rule:evenodd;stroke:#000000;stroke-width:2.0px;stroke-linecap:butt;stroke-linejoin:miter;stroke-opacity:1"/>
<path class="bond-6 atom-6 atom-7" d="M 161.5,115.3 L 161.2,128.9" style="fill:none;fill-rule:evenodd;stroke:#000000;stroke-width:2.0px;stroke-linecap:butt;stroke-linejoin:miter;stroke-opacity:1"/>
<path class="bond-6 atom-6 atom-7" d="M 161.2,128.9 L 160.9,142.4" style="fill:none;fill-rule:evenodd;stroke:#FF0000;stroke-width:2.0px;stroke-linecap:butt;stroke-linejoin:miter;stroke-opacity:1"/>
<path class="bond-7 atom-4 atom-8" d="M 133.3,98.3 L 105.1,81.3" style="fill:none;fill-rule:evenodd;stroke:#000000;stroke-width:2.0px;stroke-linecap:butt;stroke-linejoin:miter;stroke-opacity:1"/>
<path class="bond-8 atom-8 atom-9" d="M 105.1,81.3 L 105.4,67.8" style="fill:none;fill-rule:evenodd;stroke:#000000;stroke-width:2.0px;stroke-linecap:butt;stroke-linejoin:miter;stroke-opacity:1"/>
<path class="bond-8 atom-8 atom-9" d="M 105.4,67.8 L 105.7,54.3" style="fill:none;fill-rule:evenodd;stroke:#FF0000;stroke-width:2.0px;stroke-linecap:butt;stroke-linejoin:miter;stroke-opacity:1"/>
<path class="bond-9 atom-8 atom-10" d="M 105.1,81.3 L 76.3,97.2" style="fill:none;fill-rule:evenodd;stroke:#000000;stroke-width:2.0px;stroke-linecap:butt;stroke-linejoin:miter;stroke-opacity:1"/>
<path class="bond-10 atom-10 atom-11" d="M 76.3,97.2 L 92.2,126.0" style="fill:none;fill-rule:evenodd;stroke:#000000;stroke-width:2.0px;stroke-linecap:butt;stroke-linejoin:miter;stroke-opacity:1"/>
<path class="bond-11 atom-10 atom-12" d="M 76.3,97.2 L 60.4,68.4" style="fill:none;fill-rule:evenodd;stroke:#000000;stroke-width:2.0px;stroke-linecap:butt;stroke-linejoin:miter;stroke-opacity:1"/>
<path class="bond-12 atom-10 atom-13" d="M 76.3,97.2 L 47.5,113.1" style="fill:none;fill-rule:evenodd;stroke:#000000;stroke-width:2.0px;stroke-linecap:butt;stroke-linejoin:miter;stroke-opacity:1"/>
<path class="bond-13 atom-13 atom-14" d="M 50.0,111.7 L 38.0,104.4" style="fill:none;fill-rule:evenodd;stroke:#000000;stroke-width:2.0px;stroke-linecap:butt;stroke-linejoin:miter;stroke-opacity:1"/>
<path class="bond-13 atom-13 atom-14" d="M 38.0,104.4 L 26.0,97.2" style="fill:none;fill-rule:evenodd;stroke:#FF0000;stroke-width:2.0px;stroke-linecap:butt;stroke-linejoin:miter;stroke-opacity:1"/>
<path class="bond-13 atom-13 atom-14" d="M 47.4,115.9 L 35.4,108.6" style="fill:none;fill-rule:evenodd;stroke:#000000;stroke-width:2.0px;stroke-linecap:butt;stroke-linejoin:miter;stroke-opacity:1"/>
<path class="bond-13 atom-13 atom-14" d="M 35.4,108.6 L 23.4,101.4" style="fill:none;fill-rule:evenodd;stroke:#FF0000;stroke-width:2.0px;stroke-linecap:butt;stroke-linejoin:miter;stroke-opacity:1"/>
<path class="bond-14 atom-13 atom-15" d="M 47.5,113.1 L 47.2,126.6" style="fill:none;fill-rule:evenodd;stroke:#000000;stroke-width:2.0px;stroke-linecap:butt;stroke-linejoin:miter;stroke-opacity:1"/>
<path class="bond-14 atom-13 atom-15" d="M 47.2,126.6 L 47.0,140.2" style="fill:none;fill-rule:evenodd;stroke:#FF0000;stroke-width:2.0px;stroke-linecap:butt;stroke-linejoin:miter;stroke-opacity:1"/>
<path class="bond-15 atom-1 atom-16" d="M 183.2,70.8 L 216.1,71.4" style="fill:none;fill-rule:evenodd;stroke:#000000;stroke-width:2.0px;stroke-linecap:butt;stroke-linejoin:miter;stroke-opacity:1"/>
<path class="bond-16 atom-16 atom-17" d="M 216.1,71.4 L 222.8,60.3" style="fill:none;fill-rule:evenodd;stroke:#000000;stroke-width:2.0px;stroke-linecap:butt;stroke-linejoin:miter;stroke-opacity:1"/>
<path class="bond-16 atom-16 atom-17" d="M 222.8,60.3 L 229.5,49.2" style="fill:none;fill-rule:evenodd;stroke:#FF0000;stroke-width:2.0px;stroke-linecap:butt;stroke-linejoin:miter;stroke-opacity:1"/>
<path class="bond-17 atom-16 atom-18" d="M 216.1,71.4 L 232.0,100.3" style="fill:none;fill-rule:evenodd;stroke:#000000;stroke-width:2.0px;stroke-linecap:butt;stroke-linejoin:miter;stroke-opacity:1"/>
<path class="bond-18 atom-18 atom-19" d="M 232.0,100.3 L 203.2,116.1" style="fill:none;fill-rule:evenodd;stroke:#000000;stroke-width:2.0px;stroke-linecap:butt;stroke-linejoin:miter;stroke-opacity:1"/>
<path class="bond-19 atom-18 atom-20" d="M 232.0,100.3 L 260.8,84.4" style="fill:none;fill-rule:evenodd;stroke:#000000;stroke-width:2.0px;stroke-linecap:butt;stroke-linejoin:miter;stroke-opacity:1"/>
<path class="bond-20 atom-18 atom-21" d="M 232.0,100.3 L 247.9,129.1" style="fill:none;fill-rule:evenodd;stroke:#000000;stroke-width:2.0px;stroke-linecap:butt;stroke-linejoin:miter;stroke-opacity:1"/>
<path class="bond-21 atom-21 atom-22" d="M 246.4,131.5 L 260.9,131.8" style="fill:none;fill-rule:evenodd;stroke:#000000;stroke-width:2.0px;stroke-linecap:butt;stroke-linejoin:miter;stroke-opacity:1"/>
<path class="bond-21 atom-21 atom-22" d="M 260.9,131.8 L 275.4,132.1" style="fill:none;fill-rule:evenodd;stroke:#FF0000;stroke-width:2.0px;stroke-linecap:butt;stroke-linejoin:miter;stroke-opacity:1"/>
<path class="bond-21 atom-21 atom-22" d="M 246.5,126.6 L 261.0,126.9" style="fill:none;fill-rule:evenodd;stroke:#000000;stroke-width:2.0px;stroke-linecap:butt;stroke-linejoin:miter;stroke-opacity:1"/>
<path class="bond-21 atom-21 atom-22" d="M 261.0,126.9 L 275.5,127.2" style="fill:none;fill-rule:evenodd;stroke:#FF0000;stroke-width:2.0px;stroke-linecap:butt;stroke-linejoin:miter;stroke-opacity:1"/>
<path class="bond-22 atom-21 atom-23" d="M 247.9,129.1 L 241.1,140.3" style="fill:none;fill-rule:evenodd;stroke:#000000;stroke-width:2.0px;stroke-linecap:butt;stroke-linejoin:miter;stroke-opacity:1"/>
<path class="bond-22 atom-21 atom-23" d="M 241.1,140.3 L 234.4,151.5" style="fill:none;fill-rule:evenodd;stroke:#FF0000;stroke-width:2.0px;stroke-linecap:butt;stroke-linejoin:miter;stroke-opacity:1"/>
<path d="M 152.0,70.2 L 150.3,70.1 L 149.5,71.5" style="fill:none;stroke:#000000;stroke-width:2.0px;stroke-linecap:butt;stroke-linejoin:miter;stroke-opacity:1;"/>
<path d="M 160.0,114.5 L 161.5,115.3 L 161.4,116.0" style="fill:none;stroke:#000000;stroke-width:2.0px;stroke-linecap:butt;stroke-linejoin:miter;stroke-opacity:1;"/>
<path d="M 48.9,112.3 L 47.5,113.1 L 47.5,113.7" style="fill:none;stroke:#000000;stroke-width:2.0px;stroke-linecap:butt;stroke-linejoin:miter;stroke-opacity:1;"/>
<path d="M 247.1,127.6 L 247.9,129.1 L 247.5,129.6" style="fill:none;stroke:#000000;stroke-width:2.0px;stroke-linecap:butt;stroke-linejoin:miter;stroke-opacity:1;"/>
<path class="atom-7" d="M 156.5 148.2 Q 156.5 146.0, 157.6 144.8 Q 158.7 143.5, 160.8 143.5 Q 162.9 143.5, 164.0 144.8 Q 165.1 146.0, 165.1 148.2 Q 165.1 150.5, 164.0 151.8 Q 162.8 153.1, 160.8 153.1 Q 158.8 153.1, 157.6 151.8 Q 156.5 150.5, 156.5 148.2 M 160.8 152.0 Q 162.2 152.0, 163.0 151.1 Q 163.8 150.1, 163.8 148.2 Q 163.8 146.4, 163.0 145.5 Q 162.2 144.6, 160.8 144.6 Q 159.4 144.6, 158.6 145.5 Q 157.8 146.4, 157.8 148.2 Q 157.8 150.1, 158.6 151.1 Q 159.4 152.0, 160.8 152.0 " fill="#FF0000"/>
<path class="atom-7" d="M 166.5 143.6 L 167.8 143.6 L 167.8 147.6 L 172.6 147.6 L 172.6 143.6 L 173.8 143.6 L 173.8 152.9 L 172.6 152.9 L 172.6 148.6 L 167.8 148.6 L 167.8 152.9 L 166.5 152.9 L 166.5 143.6 " fill="#FF0000"/>
<path class="atom-9" d="M 101.5 48.4 Q 101.5 46.2, 102.6 44.9 Q 103.7 43.7, 105.8 43.7 Q 107.8 43.7, 109.0 44.9 Q 110.1 46.2, 110.1 48.4 Q 110.1 50.7, 108.9 52.0 Q 107.8 53.2, 105.8 53.2 Q 103.7 53.2, 102.6 52.0 Q 101.5 50.7, 101.5 48.4 M 105.8 52.2 Q 107.2 52.2, 108.0 51.2 Q 108.7 50.3, 108.7 48.4 Q 108.7 46.6, 108.0 45.7 Q 107.2 44.7, 105.8 44.7 Q 104.4 44.7, 103.6 45.7 Q 102.8 46.6, 102.8 48.4 Q 102.8 50.3, 103.6 51.2 Q 104.4 52.2, 105.8 52.2 " fill="#FF0000"/>
<path class="atom-9" d="M 111.5 43.8 L 112.8 43.8 L 112.8 47.7 L 117.5 47.7 L 117.5 43.8 L 118.8 43.8 L 118.8 53.1 L 117.5 53.1 L 117.5 48.8 L 112.8 48.8 L 112.8 53.1 L 111.5 53.1 L 111.5 43.8 " fill="#FF0000"/>
<path class="atom-14" d="M 15.1 96.1 Q 15.1 93.8, 16.2 92.6 Q 17.3 91.3, 19.3 91.3 Q 21.4 91.3, 22.5 92.6 Q 23.6 93.8, 23.6 96.1 Q 23.6 98.3, 22.5 99.6 Q 21.4 100.9, 19.3 100.9 Q 17.3 100.9, 16.2 99.6 Q 15.1 98.3, 15.1 96.1 M 19.3 99.8 Q 20.7 99.8, 21.5 98.9 Q 22.3 97.9, 22.3 96.1 Q 22.3 94.2, 21.5 93.3 Q 20.7 92.4, 19.3 92.4 Q 17.9 92.4, 17.1 93.3 Q 16.4 94.2, 16.4 96.1 Q 16.4 97.9, 17.1 98.9 Q 17.9 99.8, 19.3 99.8 " fill="#FF0000"/>
<path class="atom-15" d="M 42.6 146.0 Q 42.6 143.7, 43.7 142.5 Q 44.8 141.2, 46.8 141.2 Q 48.9 141.2, 50.0 142.5 Q 51.1 143.7, 51.1 146.0 Q 51.1 148.2, 50.0 149.5 Q 48.9 150.8, 46.8 150.8 Q 44.8 150.8, 43.7 149.5 Q 42.6 148.3, 42.6 146.0 M 46.8 149.8 Q 48.3 149.8, 49.0 148.8 Q 49.8 147.8, 49.8 146.0 Q 49.8 144.1, 49.0 143.2 Q 48.3 142.3, 46.8 142.3 Q 45.4 142.3, 44.6 143.2 Q 43.9 144.1, 43.9 146.0 Q 43.9 147.9, 44.6 148.8 Q 45.4 149.8, 46.8 149.8 " fill="#FF0000"/>
<path class="atom-15" d="M 52.6 141.3 L 53.8 141.3 L 53.8 145.3 L 58.6 145.3 L 58.6 141.3 L 59.9 141.3 L 59.9 150.7 L 58.6 150.7 L 58.6 146.4 L 53.8 146.4 L 53.8 150.7 L 52.6 150.7 L 52.6 141.3 " fill="#FF0000"/>
<path class="atom-17" d="M 228.8 43.3 Q 228.8 41.1, 230.0 39.8 Q 231.1 38.6, 233.1 38.6 Q 235.2 38.6, 236.3 39.8 Q 237.4 41.1, 237.4 43.3 Q 237.4 45.6, 236.3 46.9 Q 235.2 48.1, 233.1 48.1 Q 231.1 48.1, 230.0 46.9 Q 228.8 45.6, 228.8 43.3 M 233.1 47.1 Q 234.5 47.1, 235.3 46.1 Q 236.1 45.2, 236.1 43.3 Q 236.1 41.5, 235.3 40.6 Q 234.5 39.6, 233.1 39.6 Q 231.7 39.6, 230.9 40.5 Q 230.2 41.5, 230.2 43.3 Q 230.2 45.2, 230.9 46.1 Q 231.7 47.1, 233.1 47.1 " fill="#FF0000"/>
<path class="atom-17" d="M 238.9 38.7 L 240.1 38.7 L 240.1 42.6 L 244.9 42.6 L 244.9 38.7 L 246.1 38.7 L 246.1 48.0 L 244.9 48.0 L 244.9 43.7 L 240.1 43.7 L 240.1 48.0 L 238.9 48.0 L 238.9 38.7 " fill="#FF0000"/>
<path class="atom-22" d="M 276.5 129.8 Q 276.5 127.5, 277.6 126.3 Q 278.7 125.0, 280.8 125.0 Q 282.8 125.0, 283.9 126.3 Q 285.1 127.5, 285.1 129.8 Q 285.1 132.0, 283.9 133.3 Q 282.8 134.6, 280.8 134.6 Q 278.7 134.6, 277.6 133.3 Q 276.5 132.0, 276.5 129.8 M 280.8 133.5 Q 282.2 133.5, 283.0 132.6 Q 283.7 131.6, 283.7 129.8 Q 283.7 127.9, 283.0 127.0 Q 282.2 126.1, 280.8 126.1 Q 279.4 126.1, 278.6 127.0 Q 277.8 127.9, 277.8 129.8 Q 277.8 131.6, 278.6 132.6 Q 279.4 133.5, 280.8 133.5 " fill="#FF0000"/>
<path class="atom-23" d="M 217.4 152.6 L 218.6 152.6 L 218.6 156.6 L 223.4 156.6 L 223.4 152.6 L 224.7 152.6 L 224.7 162.0 L 223.4 162.0 L 223.4 157.7 L 218.6 157.7 L 218.6 162.0 L 217.4 162.0 L 217.4 152.6 " fill="#FF0000"/>
<path class="atom-23" d="M 226.6 157.3 Q 226.6 155.0, 227.7 153.8 Q 228.8 152.5, 230.9 152.5 Q 232.9 152.5, 234.0 153.8 Q 235.1 155.0, 235.1 157.3 Q 235.1 159.5, 234.0 160.8 Q 232.9 162.1, 230.9 162.1 Q 228.8 162.1, 227.7 160.8 Q 226.6 159.6, 226.6 157.3 M 230.9 161.1 Q 232.3 161.1, 233.0 160.1 Q 233.8 159.1, 233.8 157.3 Q 233.8 155.4, 233.0 154.5 Q 232.3 153.6, 230.9 153.6 Q 229.4 153.6, 228.7 154.5 Q 227.9 155.4, 227.9 157.3 Q 227.9 159.2, 228.7 160.1 Q 229.4 161.1, 230.9 161.1 " fill="#FF0000"/>
</g>
    <g transform="translate(588.0, 0) scale(1 1) "><line x1="15" y1="100" x2="25" y2="100" style="stroke:rgb(0,0,0);stroke-width:2"/>
  <line x1="20" y1="95" x2="20" y2="105" style="stroke:rgb(0,0,0);stroke-width:2"/>
</g>
    <g transform="translate(628.0, 0) scale(1 1) "><!-- END OF HEADER -->
<rect style="opacity:1.0;fill:#FFFFFF;stroke:none" width="85.0" height="200.0" x="0.0" y="0.0"> </rect>
<path class="bond-0 atom-0 atom-1" d="M 4.2,99.9 L 27.0,99.9" style="fill:none;fill-rule:evenodd;stroke:#000000;stroke-width:2.0px;stroke-linecap:butt;stroke-linejoin:miter;stroke-opacity:1"/>
<path class="bond-0 atom-0 atom-1" d="M 27.0,99.9 L 49.8,99.9" style="fill:none;fill-rule:evenodd;stroke:#FF0000;stroke-width:2.0px;stroke-linecap:butt;stroke-linejoin:miter;stroke-opacity:1"/>
<path class="atom-1" d="M 51.6 99.9 Q 51.6 96.2, 53.5 94.2 Q 55.3 92.1, 58.7 92.1 Q 62.1 92.1, 64.0 94.2 Q 65.8 96.2, 65.8 99.9 Q 65.8 103.7, 63.9 105.8 Q 62.1 107.9, 58.7 107.9 Q 55.3 107.9, 53.5 105.8 Q 51.6 103.7, 51.6 99.9 M 58.7 106.2 Q 61.1 106.2, 62.3 104.6 Q 63.6 103.0, 63.6 99.9 Q 63.6 96.9, 62.3 95.4 Q 61.1 93.8, 58.7 93.8 Q 56.4 93.8, 55.1 95.3 Q 53.8 96.9, 53.8 99.9 Q 53.8 103.0, 55.1 104.6 Q 56.4 106.2, 58.7 106.2 " fill="#FF0000"/>
<path class="atom-1" d="M 68.2 92.3 L 70.3 92.3 L 70.3 98.8 L 78.2 98.8 L 78.2 92.3 L 80.3 92.3 L 80.3 107.7 L 78.2 107.7 L 78.2 100.6 L 70.3 100.6 L 70.3 107.7 L 68.2 107.7 L 68.2 92.3 " fill="#FF0000"/>
</g>
  </g>
</svg>
