<?xml version='1.0' encoding='ASCII' standalone='yes'?>
<svg xmlns="http://www.w3.org/2000/svg" xmlns:xlink="http://www.w3.org/1999/xlink" version="1.1" width="892.0px" viewBox="0 0 892.0 200.0" height="200.0px">
  <g>
    <g transform="translate(0, 0) scale(1 1) "><!-- END OF HEADER -->
<rect style="opacity:1.0;fill:#FFFFFF;stroke:none" width="280.0" height="200.0" x="0.0" y="0.0"> </rect>
<path class="bond-0 atom-0 atom-1" d="M 173.1,45.9 L 156.4,73.5" style="fill:none;fill-rule:evenodd;stroke:#000000;stroke-width:2.0px;stroke-linecap:butt;stroke-linejoin:miter;stroke-opacity:1"/>
<path class="bond-1 atom-1 atom-2" d="M 156.4,73.5 L 124.1,72.9" style="fill:none;fill-rule:evenodd;stroke:#000000;stroke-width:2.0px;stroke-linecap:butt;stroke-linejoin:miter;stroke-opacity:1"/>
<path class="bond-2 atom-2 atom-3" d="M 124.1,72.9 L 107.4,100.5" style="fill:none;fill-rule:evenodd;stroke:#000000;stroke-width:2.0px;stroke-linecap:butt;stroke-linejoin:miter;stroke-opacity:1"/>
<path class="bond-3 atom-3 atom-4" d="M 107.4,100.5 L 113.6,111.8" style="fill:none;fill-rule:evenodd;stroke:#000000;stroke-width:2.0px;stroke-linecap:butt;stroke-linejoin:miter;stroke-opacity:1"/>
<path class="bond-3 atom-3 atom-4" d="M 113.6,111.8 L 119.8,123.1" style="fill:none;fill-rule:evenodd;stroke:#FF0000;stroke-width:2.0px;stroke-linecap:butt;stroke-linejoin:miter;stroke-opacity:1"/>
<path class="bond-4 atom-3 atom-5" d="M 107.4,100.5 L 75.1,99.9" style="fill:none;fill-rule:evenodd;stroke:#000000;stroke-width:2.0px;stroke-linecap:butt;stroke-linejoin:miter;stroke-opacity:1"/>
<path class="bond-5 atom-5 atom-6" d="M 75.1,99.9 L 75.7,67.6" style="fill:none;fill-rule:evenodd;stroke:#000000;stroke-width:2.0px;stroke-linecap:butt;stroke-linejoin:miter;stroke-opacity:1"/>
<path class="bond-6 atom-5 atom-7" d="M 75.1,99.9 L 74.5,132.1" style="fill:none;fill-rule:evenodd;stroke:#000000;stroke-width:2.0px;stroke-linecap:butt;stroke-linejoin:miter;stroke-opacity:1"/>
<path class="bond-7 atom-5 atom-8" d="M 75.1,99.9 L 42.8,99.2" style="fill:none;fill-rule:evenodd;stroke:#000000;stroke-width:2.0px;stroke-linecap:butt;stroke-linejoin:miter;stroke-opacity:1"/>
<path class="bond-8 atom-8 atom-9" d="M 41.5,96.8 L 34.5,108.3" style="fill:none;fill-rule:evenodd;stroke:#000000;stroke-width:2.0px;stroke-linecap:butt;stroke-linejoin:miter;stroke-opacity:1"/>
<path class="bond-8 atom-8 atom-9" d="M 34.5,108.3 L 27.5,119.9" style="fill:none;fill-rule:evenodd;stroke:#FF0000;stroke-width:2.0px;stroke-linecap:butt;stroke-linejoin:miter;stroke-opacity:1"/>
<path class="bond-8 atom-8 atom-9" d="M 45.6,99.3 L 38.6,110.8" style="fill:none;fill-rule:evenodd;stroke:#000000;stroke-width:2.0px;stroke-linecap:butt;stroke-linejoin:miter;stroke-opacity:1"/>
<path class="bond-8 atom-8 atom-9" d="M 38.6,110.8 L 31.6,122.4" style="fill:none;fill-rule:evenodd;stroke:#FF0000;stroke-width:2.0px;stroke-linecap:butt;stroke-linejoin:miter;stroke-opacity:1"/>
<path class="bond-9 atom-8 atom-10" d="M 42.8,99.2 L 36.6,88.0" style="fill:none;fill-rule:evenodd;stroke:#000000;stroke-width:2.0px;stroke-linecap:butt;stroke-linejoin:miter;stroke-opacity:1"/>
<path class="bond-9 atom-8 atom-10" d="M 36.6,88.0 L 30.4,76.8" style="fill:none;fill-rule:evenodd;stroke:#FF0000;stroke-width:2.0px;stroke-linecap:butt;stroke-linejoin:miter;stroke-opacity:1"/>
<path class="bond-10 atom-1 atom-11" d="M 156.4,73.5 L 172.0,101.8" style="fill:none;fill-rule:evenodd;stroke:#000000;stroke-width:2.0px;stroke-linecap:butt;stroke-linejoin:miter;stroke-opacity:1"/>
<path class="bond-11 atom-11 atom-12" d="M 172.0,101.8 L 165.3,112.8" style="fill:none;fill-rule:evenodd;stroke:#000000;stroke-width:2.0px;stroke-linecap:butt;stroke-linejoin:miter;stroke-opacity:1"/>
<path class="bond-11 atom-11 atom-12" d="M 165.3,112.8 L 158.7,123.7" style="fill:none;fill-rule:evenodd;stroke:#FF0000;stroke-width:2.0px;stroke-linecap:butt;stroke-linejoin:miter;stroke-opacity:1"/>
<path class="bond-12 atom-11 atom-13" d="M 172.0,101.8 L 204.2,102.4" style="fill:none;fill-rule:evenodd;stroke:#000000;stroke-width:2.0px;stroke-linecap:butt;stroke-linejoin:miter;stroke-opacity:1"/>
<path class="bond-13 atom-13 atom-14" d="M 204.2,102.4 L 203.6,134.7" style="fill:none;fill-rule:evenodd;stroke:#000000;stroke-width:2.0px;stroke-linecap:butt;stroke-linejoin:miter;stroke-opacity:1"/>
<path class="bond-14 atom-13 atom-15" d="M 204.2,102.4 L 204.9,70.2" style="fill:none;fill-rule:evenodd;stroke:#000000;stroke-width:2.0px;stroke-linecap:butt;stroke-linejoin:miter;stroke-opacity:1"/>
<path class="bond-15 atom-13 atom-16" d="M 204.2,102.4 L 236.5,103.1" style="fill:none;fill-rule:evenodd;stroke:#000000;stroke-width:2.0px;stroke-linecap:butt;stroke-linejoin:miter;stroke-opacity:1"/>
<path class="bond-16 atom-16 atom-17" d="M 233.7,103.0 L 240.3,114.9" style="fill:none;fill-rule:evenodd;stroke:#000000;stroke-width:2.0px;stroke-linecap:butt;stroke-linejoin:miter;stroke-opacity:1"/>
<path class="bond-16 atom-16 atom-17" d="M 240.3,114.9 L 246.8,126.8" style="fill:none;fill-rule:evenodd;stroke:#FF0000;stroke-width:2.0px;stroke-linecap:butt;stroke-linejoin:miter;stroke-opacity:1"/>
<path class="bond-16 atom-16 atom-17" d="M 238.0,100.7 L 244.5,112.6" style="fill:none;fill-rule:evenodd;stroke:#000000;stroke-width:2.0px;stroke-linecap:butt;stroke-linejoin:miter;stroke-opacity:1"/>
<path class="bond-16 atom-16 atom-17" d="M 244.5,112.6 L 251.1,124.5" style="fill:none;fill-rule:evenodd;stroke:#FF0000;stroke-width:2.0px;stroke-linecap:butt;stroke-linejoin:miter;stroke-opacity:1"/>
<path class="bond-17 atom-16 atom-18" d="M 236.5,103.1 L 243.1,92.2" style="fill:none;fill-rule:evenodd;stroke:#000000;stroke-width:2.0px;stroke-linecap:butt;stroke-linejoin:miter;stroke-opacity:1"/>
<path class="bond-17 atom-16 atom-18" d="M 243.1,92.2 L 249.7,81.3" style="fill:none;fill-rule:evenodd;stroke:#FF0000;stroke-width:2.0px;stroke-linecap:butt;stroke-linejoin:miter;stroke-opacity:1"/>
<path d="M 125.7,72.9 L 124.1,72.9 L 123.2,74.2" style="fill:none;stroke:#000000;stroke-width:2.0px;stroke-linecap:butt;stroke-linejoin:miter;stroke-opacity:1;"/>
<path d="M 44.4,99.2 L 42.8,99.2 L 42.5,98.6" style="fill:none;stroke:#000000;stroke-width:2.0px;stroke-linecap:butt;stroke-linejoin:miter;stroke-opacity:1;"/>
<path d="M 234.9,103.0 L 236.5,103.1 L 236.9,102.5" style="fill:none;stroke:#000000;stroke-width:2.0px;stroke-linecap:butt;stroke-linejoin:miter;stroke-opacity:1;"/>
<path class="atom-4" d="M 118.8 128.8 Q 118.8 126.6, 119.9 125.4 Q 120.9 124.2, 123.0 124.2 Q 125.0 124.2, 126.1 125.4 Q 127.2 126.6, 127.2 128.8 Q 127.2 131.0, 126.1 132.3 Q 125.0 133.5, 123.0 133.5 Q 121.0 133.5, 119.9 132.3 Q 118.8 131.0, 118.8 128.8 M 123.0 132.5 Q 124.4 132.5, 125.1 131.6 Q 125.9 130.6, 125.9 128.8 Q 125.9 127.0, 125.1 126.1 Q 124.4 125.2, 123.0 125.2 Q 121.6 125.2, 120.8 126.1 Q 120.1 127.0, 120.1 128.8 Q 120.1 130.7, 120.8 131.6 Q 121.6 132.5, 123.0 132.5 " fill="#FF0000"/>
<path class="atom-4" d="M 128.6 124.3 L 129.8 124.3 L 129.8 128.1 L 134.5 128.1 L 134.5 124.3 L 135.7 124.3 L 135.7 133.4 L 134.5 133.4 L 134.5 129.2 L 129.8 129.2 L 129.8 133.4 L 128.6 133.4 L 128.6 124.3 " fill="#FF0000"/>
<path class="atom-9" d="M 21.9 126.9 Q 21.9 124.7, 23.0 123.5 Q 24.1 122.2, 26.1 122.2 Q 28.1 122.2, 29.2 123.5 Q 30.3 124.7, 30.3 126.9 Q 30.3 129.1, 29.2 130.4 Q 28.1 131.6, 26.1 131.6 Q 24.1 131.6, 23.0 130.4 Q 21.9 129.1, 21.9 126.9 M 26.1 130.6 Q 27.5 130.6, 28.3 129.7 Q 29.0 128.7, 29.0 126.9 Q 29.0 125.1, 28.3 124.2 Q 27.5 123.3, 26.1 123.3 Q 24.7 123.3, 24.0 124.2 Q 23.2 125.1, 23.2 126.9 Q 23.2 128.7, 24.0 129.7 Q 24.7 130.6, 26.1 130.6 " fill="#FF0000"/>
<path class="atom-10" d="M 14.0 66.4 L 15.2 66.4 L 15.2 70.3 L 19.9 70.3 L 19.9 66.4 L 21.2 66.4 L 21.2 75.6 L 19.9 75.6 L 19.9 71.3 L 15.2 71.3 L 15.2 75.6 L 14.0 75.6 L 14.0 66.4 " fill="#FF0000"/>
<path class="atom-10" d="M 23.0 71.0 Q 23.0 68.8, 24.1 67.5 Q 25.2 66.3, 27.2 66.3 Q 29.3 66.3, 30.3 67.5 Q 31.4 68.8, 31.4 71.0 Q 31.4 73.2, 30.3 74.4 Q 29.2 75.7, 27.2 75.7 Q 25.2 75.7, 24.1 74.4 Q 23.0 73.2, 23.0 71.0 M 27.2 74.7 Q 28.6 74.7, 29.4 73.7 Q 30.1 72.8, 30.1 71.0 Q 30.1 69.2, 29.4 68.3 Q 28.6 67.3, 27.2 67.3 Q 25.8 67.3, 25.1 68.2 Q 24.3 69.1, 24.3 71.0 Q 24.3 72.8, 25.1 73.7 Q 25.8 74.7, 27.2 74.7 " fill="#FF0000"/>
<path class="atom-12" d="M 142.0 124.9 L 143.3 124.9 L 143.3 128.8 L 147.9 128.8 L 147.9 124.9 L 149.2 124.9 L 149.2 134.1 L 147.9 134.1 L 147.9 129.8 L 143.3 129.8 L 143.3 134.1 L 142.0 134.1 L 142.0 124.9 " fill="#FF0000"/>
<path class="atom-12" d="M 151.1 129.5 Q 151.1 127.3, 152.1 126.0 Q 153.2 124.8, 155.3 124.8 Q 157.3 124.8, 158.4 126.0 Q 159.4 127.3, 159.4 129.5 Q 159.4 131.7, 158.4 132.9 Q 157.3 134.2, 155.3 134.2 Q 153.2 134.2, 152.1 132.9 Q 151.1 131.7, 151.1 129.5 M 155.3 133.2 Q 156.6 133.2, 157.4 132.2 Q 158.2 131.3, 158.2 129.5 Q 158.2 127.7, 157.4 126.8 Q 156.6 125.8, 155.3 125.8 Q 153.9 125.8, 153.1 126.7 Q 152.3 127.6, 152.3 129.5 Q 152.3 131.3, 153.1 132.2 Q 153.9 133.2, 155.3 133.2 " fill="#FF0000"/>
<path class="atom-17" d="M 247.9 131.4 Q 247.9 129.2, 249.0 128.0 Q 250.1 126.7, 252.1 126.7 Q 254.1 126.7, 255.2 128.0 Q 256.3 129.2, 256.3 131.4 Q 256.3 133.6, 255.2 134.9 Q 254.1 136.1, 252.1 136.1 Q 250.1 136.1, 249.0 134.9 Q 247.9 133.6, 247.9 131.4 M 252.1 135.1 Q 253.5 135.1, 254.3 134.2 Q 255.0 133.2, 255.0 131.4 Q 255.0 129.6, 254.3 128.7 Q 253.5 127.8, 252.1 127.8 Q 250.7 127.8, 249.9 128.7 Q 249.2 129.6, 249.2 131.4 Q 249.2 133.2, 249.9 134.2 Q 250.7 135.1, 252.1 135.1 " fill="#FF0000"/>
<path class="atom-18" d="M 249.0 75.5 Q 249.0 73.3, 250.1 72.0 Q 251.2 70.8, 253.2 70.8 Q 255.3 70.8, 256.3 72.0 Q 257.4 73.3, 257.4 75.5 Q 257.4 77.7, 256.3 79.0 Q 255.2 80.2, 253.2 80.2 Q 251.2 80.2, 250.1 79.0 Q 249.0 77.7, 249.0 75.5 M 253.2 79.2 Q 254.6 79.2, 255.4 78.2 Q 256.1 77.3, 256.1 75.5 Q 256.1 73.7, 255.4 72.8 Q 254.6 71.9, 253.2 71.9 Q 251.8 71.9, 251.1 72.8 Q 250.3 73.7, 250.3 75.5 Q 250.3 77.3, 251.1 78.2 Q 251.8 79.2, 253.2 79.2 " fill="#FF0000"/>
<path class="atom-18" d="M 258.8 70.9 L 260.1 70.9 L 260.1 74.8 L 264.8 74.8 L 264.8 70.9 L 266.0 70.9 L 266.0 80.1 L 264.8 80.1 L 264.8 75.8 L 260.1 75.8 L 260.1 80.1 L 258.8 80.1 L 258.8 70.9 " fill="#FF0000"/>
<path class="legend" d="M 131.5 181.9 Q 131.5 179.6, 132.2 177.7 Q 132.8 175.8, 134.1 173.8 L 135.0 174.4 Q 134.0 176.3, 133.4 178.0 Q 132.9 179.7, 132.9 181.9 Q 132.9 184.0, 133.4 185.8 Q 134.0 187.5, 135.0 189.4 L 134.1 190.0 Q 132.8 188.0, 132.2 186.1 Q 131.5 184.2, 131.5 181.9 " fill="#000000"/>
<path class="legend" d="M 135.9 177.3 Q 136.4 176.2, 137.3 175.6 Q 138.3 175.0, 139.7 175.0 Q 141.4 175.0, 142.4 175.9 Q 143.3 176.8, 143.3 178.5 Q 143.3 180.2, 142.1 181.7 Q 140.9 183.3, 138.3 185.2 L 143.5 185.2 L 143.5 186.4 L 135.9 186.4 L 135.9 185.4 Q 138.0 183.9, 139.3 182.8 Q 140.5 181.6, 141.1 180.6 Q 141.7 179.6, 141.7 178.6 Q 141.7 177.5, 141.2 176.9 Q 140.7 176.3, 139.7 176.3 Q 138.8 176.3, 138.2 176.6 Q 137.6 177.0, 137.2 177.8 L 135.9 177.3 " fill="#000000"/>
<path class="legend" d="M 148.5 181.9 Q 148.5 184.2, 147.8 186.1 Q 147.2 188.0, 145.9 190.0 L 145.0 189.4 Q 146.0 187.5, 146.5 185.8 Q 147.1 184.0, 147.1 181.9 Q 147.1 179.7, 146.5 178.0 Q 146.0 176.3, 145.0 174.4 L 145.9 173.8 Q 147.2 175.8, 147.8 177.7 Q 148.5 179.6, 148.5 181.9 " fill="#000000"/>
</g>
    <g transform="translate(280.0, 0) scale(1 1) "><line x1="5" y1="100" x2="35" y2="100" style="stroke:rgb(0,0,0);stroke-width:2"/>
  <line x1="34" y1="100" x2="29" y2="95" style="stroke:rgb(0,0,0);stroke-width:2"/>
  <line x1="34" y1="100" x2="29" y2="105" style="stroke:rgb(0,0,0);stroke-width:2"/>
</g>
    <g transform="translate(320.0, 0) scale(1 1) "><!-- END OF HEADER -->
<rect style="opacity:1.0;fill:#FFFFFF;stroke:none" width="215.0" height="200.0" x="0.0" y="0.0"> </rect>
<path class="bond-0 atom-0 atom-1" d="M 183.7,56.0 L 158.3,99.9" style="fill:none;fill-rule:evenodd;stroke:#000000;stroke-width:2.0px;stroke-linecap:butt;stroke-linejoin:miter;stroke-opacity:1"/>
<path class="bond-1 atom-1 atom-2" d="M 158.3,99.9 L 168.4,117.4" style="fill:none;fill-rule:evenodd;stroke:#000000;stroke-width:2.0px;stroke-linecap:butt;stroke-linejoin:miter;stroke-opacity:1"/>
<path class="bond-1 atom-1 atom-2" d="M 168.4,117.4 L 178.5,134.9" style="fill:none;fill-rule:evenodd;stroke:#FF0000;stroke-width:2.0px;stroke-linecap:butt;stroke-linejoin:miter;stroke-opacity:1"/>
<path class="bond-2 atom-1 atom-3" d="M 158.3,99.9 L 107.6,99.9" style="fill:none;fill-rule:evenodd;stroke:#000000;stroke-width:2.0px;stroke-linecap:butt;stroke-linejoin:miter;stroke-opacity:1"/>
<path class="bond-3 atom-3 atom-4" d="M 107.6,99.9 L 107.6,49.2" style="fill:none;fill-rule:evenodd;stroke:#000000;stroke-width:2.0px;stroke-linecap:butt;stroke-linejoin:miter;stroke-opacity:1"/>
<path class="bond-4 atom-3 atom-5" d="M 107.6,99.9 L 107.6,150.6" style="fill:none;fill-rule:evenodd;stroke:#000000;stroke-width:2.0px;stroke-linecap:butt;stroke-linejoin:miter;stroke-opacity:1"/>
<path class="bond-5 atom-3 atom-6" d="M 107.6,99.9 L 56.9,99.9" style="fill:none;fill-rule:evenodd;stroke:#000000;stroke-width:2.0px;stroke-linecap:butt;stroke-linejoin:miter;stroke-opacity:1"/>
<path class="bond-6 atom-6 atom-7" d="M 54.7,96.1 L 44.0,114.5" style="fill:none;fill-rule:evenodd;stroke:#000000;stroke-width:2.0px;stroke-linecap:butt;stroke-linejoin:miter;stroke-opacity:1"/>
<path class="bond-6 atom-6 atom-7" d="M 44.0,114.5 L 33.4,133.0" style="fill:none;fill-rule:evenodd;stroke:#FF0000;stroke-width:2.0px;stroke-linecap:butt;stroke-linejoin:miter;stroke-opacity:1"/>
<path class="bond-6 atom-6 atom-7" d="M 61.3,99.9 L 50.6,118.3" style="fill:none;fill-rule:evenodd;stroke:#000000;stroke-width:2.0px;stroke-linecap:butt;stroke-linejoin:miter;stroke-opacity:1"/>
<path class="bond-6 atom-6 atom-7" d="M 50.6,118.3 L 40.0,136.8" style="fill:none;fill-rule:evenodd;stroke:#FF0000;stroke-width:2.0px;stroke-linecap:butt;stroke-linejoin:miter;stroke-opacity:1"/>
<path class="bond-7 atom-6 atom-8" d="M 56.9,99.9 L 46.9,82.5" style="fill:none;fill-rule:evenodd;stroke:#000000;stroke-width:2.0px;stroke-linecap:butt;stroke-linejoin:miter;stroke-opacity:1"/>
<path class="bond-7 atom-6 atom-8" d="M 46.9,82.5 L 36.8,65.1" style="fill:none;fill-rule:evenodd;stroke:#FF0000;stroke-width:2.0px;stroke-linecap:butt;stroke-linejoin:miter;stroke-opacity:1"/>
<path d="M 59.4,99.9 L 56.9,99.9 L 56.4,99.0" style="fill:none;stroke:#000000;stroke-width:2.0px;stroke-linecap:butt;stroke-linejoin:miter;stroke-opacity:1;"/>
<path class="atom-2" d="M 177.1 143.9 Q 177.1 140.4, 178.8 138.5 Q 180.5 136.5, 183.7 136.5 Q 186.9 136.5, 188.6 138.5 Q 190.3 140.4, 190.3 143.9 Q 190.3 147.3, 188.6 149.3 Q 186.8 151.3, 183.7 151.3 Q 180.5 151.3, 178.8 149.3 Q 177.1 147.4, 177.1 143.9 M 183.7 149.7 Q 185.9 149.7, 187.0 148.2 Q 188.2 146.7, 188.2 143.9 Q 188.2 141.0, 187.0 139.6 Q 185.9 138.2, 183.7 138.2 Q 181.5 138.2, 180.3 139.6 Q 179.1 141.0, 179.1 143.9 Q 179.1 146.8, 180.3 148.2 Q 181.5 149.7, 183.7 149.7 " fill="#FF0000"/>
<path class="atom-2" d="M 192.5 136.7 L 194.5 136.7 L 194.5 142.8 L 201.8 142.8 L 201.8 136.7 L 203.7 136.7 L 203.7 151.1 L 201.8 151.1 L 201.8 144.4 L 194.5 144.4 L 194.5 151.1 L 192.5 151.1 L 192.5 136.7 " fill="#FF0000"/>
<path class="atom-7" d="M 24.9 143.9 Q 24.9 140.4, 26.6 138.5 Q 28.3 136.5, 31.5 136.5 Q 34.7 136.5, 36.4 138.5 Q 38.1 140.4, 38.1 143.9 Q 38.1 147.3, 36.4 149.3 Q 34.7 151.3, 31.5 151.3 Q 28.4 151.3, 26.6 149.3 Q 24.9 147.4, 24.9 143.9 M 31.5 149.7 Q 33.7 149.7, 34.9 148.2 Q 36.1 146.7, 36.1 143.9 Q 36.1 141.0, 34.9 139.6 Q 33.7 138.2, 31.5 138.2 Q 29.3 138.2, 28.1 139.6 Q 27.0 141.0, 27.0 143.9 Q 27.0 146.8, 28.1 148.2 Q 29.3 149.7, 31.5 149.7 " fill="#FF0000"/>
<path class="atom-8" d="M 10.7 48.9 L 12.7 48.9 L 12.7 55.0 L 20.0 55.0 L 20.0 48.9 L 22.0 48.9 L 22.0 63.2 L 20.0 63.2 L 20.0 56.6 L 12.7 56.6 L 12.7 63.2 L 10.7 63.2 L 10.7 48.9 " fill="#FF0000"/>
<path class="atom-8" d="M 24.9 56.0 Q 24.9 52.6, 26.6 50.6 Q 28.3 48.7, 31.5 48.7 Q 34.7 48.7, 36.4 50.6 Q 38.1 52.6, 38.1 56.0 Q 38.1 59.5, 36.4 61.5 Q 34.7 63.5, 31.5 63.5 Q 28.4 63.5, 26.6 61.5 Q 24.9 59.5, 24.9 56.0 M 31.5 61.8 Q 33.7 61.8, 34.9 60.4 Q 36.1 58.9, 36.1 56.0 Q 36.1 53.2, 34.9 51.8 Q 33.7 50.3, 31.5 50.3 Q 29.3 50.3, 28.1 51.7 Q 27.0 53.2, 27.0 56.0 Q 27.0 58.9, 28.1 60.4 Q 29.3 61.8, 31.5 61.8 " fill="#FF0000"/>
</g>
    <g transform="translate(535.0, 0) scale(1 1) "><line x1="15" y1="100" x2="25" y2="100" style="stroke:rgb(0,0,0);stroke-width:2"/>
  <line x1="20" y1="95" x2="20" y2="105" style="stroke:rgb(0,0,0);stroke-width:2"/>
</g>
    <g transform="translate(575.0, 0) scale(1 1) "><!-- END OF HEADER -->
<rect style="opacity:1.0;fill:#FFFFFF;stroke:none" width="317.0" height="200.0" x="0.0" y="0.0"> </rect>
<path class="bond-0 atom-0 atom-1" d="M 108.3,147.4 L 102.9,125.3" style="fill:none;fill-rule:evenodd;stroke:#000000;stroke-width:2.0px;stroke-linecap:butt;stroke-linejoin:miter;stroke-opacity:1"/>
<path class="bond-1 atom-1 atom-2" d="M 102.9,125.3 L 120.6,103.5" style="fill:none;fill-rule:evenodd;stroke:#000000;stroke-width:2.0px;stroke-linecap:butt;stroke-linejoin:miter;stroke-opacity:1"/>
<path class="bond-2 atom-2 atom-3" d="M 120.6,103.5 L 148.4,108.0" style="fill:none;fill-rule:evenodd;stroke:#000000;stroke-width:2.0px;stroke-linecap:butt;stroke-linejoin:miter;stroke-opacity:1"/>
<path class="bond-3 atom-3 atom-4" d="M 148.4,108.0 L 176.2,112.5" style="fill:none;fill-rule:evenodd;stroke:#000000;stroke-width:2.0px;stroke-linecap:butt;stroke-linejoin:miter;stroke-opacity:1"/>
<path class="bond-4 atom-3 atom-5" d="M 148.4,108.0 L 143.9,135.7" style="fill:none;fill-rule:evenodd;stroke:#000000;stroke-width:2.0px;stroke-linecap:butt;stroke-linejoin:miter;stroke-opacity:1"/>
<path class="bond-5 atom-5 atom-6" d="M 144.3,133.2 L 135.8,137.6" style="fill:none;fill-rule:evenodd;stroke:#000000;stroke-width:2.0px;stroke-linecap:butt;stroke-linejoin:miter;stroke-opacity:1"/>
<path class="bond-5 atom-5 atom-6" d="M 135.8,137.6 L 127.3,142.1" style="fill:none;fill-rule:evenodd;stroke:#FF0000;stroke-width:2.0px;stroke-linecap:butt;stroke-linejoin:miter;stroke-opacity:1"/>
<path class="bond-5 atom-5 atom-6" d="M 145.7,137.2 L 137.8,141.3" style="fill:none;fill-rule:evenodd;stroke:#000000;stroke-width:2.0px;stroke-linecap:butt;stroke-linejoin:miter;stroke-opacity:1"/>
<path class="bond-5 atom-5 atom-6" d="M 137.8,141.3 L 129.3,145.8" style="fill:none;fill-rule:evenodd;stroke:#FF0000;stroke-width:2.0px;stroke-linecap:butt;stroke-linejoin:miter;stroke-opacity:1"/>
<path class="bond-6 atom-5 atom-7" d="M 143.9,135.7 L 152.5,142.8" style="fill:none;fill-rule:evenodd;stroke:#000000;stroke-width:2.0px;stroke-linecap:butt;stroke-linejoin:miter;stroke-opacity:1"/>
<path class="bond-6 atom-5 atom-7" d="M 152.5,142.8 L 161.1,149.8" style="fill:none;fill-rule:evenodd;stroke:#FF0000;stroke-width:2.0px;stroke-linecap:butt;stroke-linejoin:miter;stroke-opacity:1"/>
<path class="bond-7 atom-3 atom-8" d="M 148.4,108.0 L 152.9,80.2" style="fill:none;fill-rule:evenodd;stroke:#000000;stroke-width:2.0px;stroke-linecap:butt;stroke-linejoin:miter;stroke-opacity:1"/>
<path class="bond-8 atom-8 atom-9" d="M 152.9,80.2 L 144.3,73.2" style="fill:none;fill-rule:evenodd;stroke:#000000;stroke-width:2.0px;stroke-linecap:butt;stroke-linejoin:miter;stroke-opacity:1"/>
<path class="bond-8 atom-8 atom-9" d="M 144.3,73.2 L 135.7,66.2" style="fill:none;fill-rule:evenodd;stroke:#FF0000;stroke-width:2.0px;stroke-linecap:butt;stroke-linejoin:miter;stroke-opacity:1"/>
<path class="bond-9 atom-8 atom-10" d="M 152.9,80.2 L 179.2,70.2" style="fill:none;fill-rule:evenodd;stroke:#000000;stroke-width:2.0px;stroke-linecap:butt;stroke-linejoin:miter;stroke-opacity:1"/>
<path class="bond-10 atom-10 atom-11" d="M 179.2,70.2 L 183.7,42.5" style="fill:none;fill-rule:evenodd;stroke:#000000;stroke-width:2.0px;stroke-linecap:butt;stroke-linejoin:miter;stroke-opacity:1"/>
<path class="bond-11 atom-10 atom-12" d="M 179.2,70.2 L 201.0,88.0" style="fill:none;fill-rule:evenodd;stroke:#000000;stroke-width:2.0px;stroke-linecap:butt;stroke-linejoin:miter;stroke-opacity:1"/>
<path class="bond-12 atom-12 atom-13" d="M 201.0,88.0 L 227.3,78.0" style="fill:none;fill-rule:evenodd;stroke:#000000;stroke-width:2.0px;stroke-linecap:butt;stroke-linejoin:miter;stroke-opacity:1"/>
<path class="bond-13 atom-13 atom-14" d="M 227.3,78.0 L 229.2,66.7" style="fill:none;fill-rule:evenodd;stroke:#000000;stroke-width:2.0px;stroke-linecap:butt;stroke-linejoin:miter;stroke-opacity:1"/>
<path class="bond-13 atom-13 atom-14" d="M 229.2,66.7 L 231.0,55.3" style="fill:none;fill-rule:evenodd;stroke:#FF0000;stroke-width:2.0px;stroke-linecap:butt;stroke-linejoin:miter;stroke-opacity:1"/>
<path class="bond-14 atom-13 atom-15" d="M 227.3,78.0 L 249.1,95.8" style="fill:none;fill-rule:evenodd;stroke:#000000;stroke-width:2.0px;stroke-linecap:butt;stroke-linejoin:miter;stroke-opacity:1"/>
<path class="bond-15 atom-15 atom-16" d="M 249.1,95.8 L 231.3,117.6" style="fill:none;fill-rule:evenodd;stroke:#000000;stroke-width:2.0px;stroke-linecap:butt;stroke-linejoin:miter;stroke-opacity:1"/>
<path class="bond-16 atom-15 atom-17" d="M 249.1,95.8 L 266.9,74.0" style="fill:none;fill-rule:evenodd;stroke:#000000;stroke-width:2.0px;stroke-linecap:butt;stroke-linejoin:miter;stroke-opacity:1"/>
<path class="bond-17 atom-15 atom-18" d="M 249.1,95.8 L 270.9,113.6" style="fill:none;fill-rule:evenodd;stroke:#000000;stroke-width:2.0px;stroke-linecap:butt;stroke-linejoin:miter;stroke-opacity:1"/>
<path class="bond-18 atom-18 atom-19" d="M 270.5,116.0 L 281.9,111.6" style="fill:none;fill-rule:evenodd;stroke:#000000;stroke-width:2.0px;stroke-linecap:butt;stroke-linejoin:miter;stroke-opacity:1"/>
<path class="bond-18 atom-18 atom-19" d="M 281.9,111.6 L 293.4,107.3" style="fill:none;fill-rule:evenodd;stroke:#FF0000;stroke-width:2.0px;stroke-linecap:butt;stroke-linejoin:miter;stroke-opacity:1"/>
<path class="bond-18 atom-18 atom-19" d="M 269.0,112.1 L 280.5,107.8" style="fill:none;fill-rule:evenodd;stroke:#000000;stroke-width:2.0px;stroke-linecap:butt;stroke-linejoin:miter;stroke-opacity:1"/>
<path class="bond-18 atom-18 atom-19" d="M 280.5,107.8 L 291.9,103.4" style="fill:none;fill-rule:evenodd;stroke:#FF0000;stroke-width:2.0px;stroke-linecap:butt;stroke-linejoin:miter;stroke-opacity:1"/>
<path class="bond-19 atom-18 atom-20" d="M 270.9,113.6 L 269.0,125.0" style="fill:none;fill-rule:evenodd;stroke:#000000;stroke-width:2.0px;stroke-linecap:butt;stroke-linejoin:miter;stroke-opacity:1"/>
<path class="bond-19 atom-18 atom-20" d="M 269.0,125.0 L 267.2,136.4" style="fill:none;fill-rule:evenodd;stroke:#FF0000;stroke-width:2.0px;stroke-linecap:butt;stroke-linejoin:miter;stroke-opacity:1"/>
<path class="bond-20 atom-1 atom-21" d="M 102.9,125.3 L 75.1,120.7" style="fill:none;fill-rule:evenodd;stroke:#000000;stroke-width:2.0px;stroke-linecap:butt;stroke-linejoin:miter;stroke-opacity:1"/>
<path class="bond-21 atom-21 atom-22" d="M 75.1,120.7 L 68.2,129.2" style="fill:none;fill-rule:evenodd;stroke:#000000;stroke-width:2.0px;stroke-linecap:butt;stroke-linejoin:miter;stroke-opacity:1"/>
<path class="bond-21 atom-21 atom-22" d="M 68.2,129.2 L 61.3,137.6" style="fill:none;fill-rule:evenodd;stroke:#FF0000;stroke-width:2.0px;stroke-linecap:butt;stroke-linejoin:miter;stroke-opacity:1"/>
<path class="bond-22 atom-21 atom-23" d="M 75.1,120.7 L 65.1,94.4" style="fill:none;fill-rule:evenodd;stroke:#000000;stroke-width:2.0px;stroke-linecap:butt;stroke-linejoin:miter;stroke-opacity:1"/>
<path class="bond-23 atom-23 atom-24" d="M 65.1,94.4 L 91.4,84.5" style="fill:none;fill-rule:evenodd;stroke:#000000;stroke-width:2.0px;stroke-linecap:butt;stroke-linejoin:miter;stroke-opacity:1"/>
<path class="bond-24 atom-23 atom-25" d="M 65.1,94.4 L 38.8,104.4" style="fill:none;fill-rule:evenodd;stroke:#000000;stroke-width:2.0px;stroke-linecap:butt;stroke-linejoin:miter;stroke-opacity:1"/>
<path class="bond-25 atom-23 atom-26" d="M 65.1,94.4 L 55.1,68.1" style="fill:none;fill-rule:evenodd;stroke:#000000;stroke-width:2.0px;stroke-linecap:butt;stroke-linejoin:miter;stroke-opacity:1"/>
<path class="bond-26 atom-26 atom-27" d="M 56.0,70.4 L 63.2,61.6" style="fill:none;fill-rule:evenodd;stroke:#000000;stroke-width:2.0px;stroke-linecap:butt;stroke-linejoin:miter;stroke-opacity:1"/>
<path class="bond-26 atom-26 atom-27" d="M 63.2,61.6 L 70.4,52.7" style="fill:none;fill-rule:evenodd;stroke:#FF0000;stroke-width:2.0px;stroke-linecap:butt;stroke-linejoin:miter;stroke-opacity:1"/>
<path class="bond-26 atom-26 atom-27" d="M 52.8,67.8 L 60.0,58.9" style="fill:none;fill-rule:evenodd;stroke:#000000;stroke-width:2.0px;stroke-linecap:butt;stroke-linejoin:miter;stroke-opacity:1"/>
<path class="bond-26 atom-26 atom-27" d="M 60.0,58.9 L 67.2,50.1" style="fill:none;fill-rule:evenodd;stroke:#FF0000;stroke-width:2.0px;stroke-linecap:butt;stroke-linejoin:miter;stroke-opacity:1"/>
<path class="bond-27 atom-26 atom-28" d="M 55.1,68.1 L 43.5,66.3" style="fill:none;fill-rule:evenodd;stroke:#000000;stroke-width:2.0px;stroke-linecap:butt;stroke-linejoin:miter;stroke-opacity:1"/>
<path class="bond-27 atom-26 atom-28" d="M 43.5,66.3 L 31.9,64.4" style="fill:none;fill-rule:evenodd;stroke:#FF0000;stroke-width:2.0px;stroke-linecap:butt;stroke-linejoin:miter;stroke-opacity:1"/>
<path d="M 119.8,104.6 L 120.6,103.5 L 122.0,103.7" style="fill:none;stroke:#000000;stroke-width:2.0px;stroke-linecap:butt;stroke-linejoin:miter;stroke-opacity:1;"/>
<path d="M 144.1,134.3 L 143.9,135.7 L 144.3,136.1" style="fill:none;stroke:#000000;stroke-width:2.0px;stroke-linecap:butt;stroke-linejoin:miter;stroke-opacity:1;"/>
<path d="M 199.9,87.1 L 201.0,88.0 L 202.3,87.5" style="fill:none;stroke:#000000;stroke-width:2.0px;stroke-linecap:butt;stroke-linejoin:miter;stroke-opacity:1;"/>
<path d="M 269.8,112.7 L 270.9,113.6 L 270.8,114.2" style="fill:none;stroke:#000000;stroke-width:2.0px;stroke-linecap:butt;stroke-linejoin:miter;stroke-opacity:1;"/>
<path d="M 55.6,69.5 L 55.1,68.1 L 54.6,68.0" style="fill:none;stroke:#000000;stroke-width:2.0px;stroke-linecap:butt;stroke-linejoin:miter;stroke-opacity:1;"/>
<path class="atom-6" d="M 120.1 146.4 Q 120.1 144.5, 121.0 143.4 Q 122.0 142.3, 123.7 142.3 Q 125.5 142.3, 126.5 143.4 Q 127.4 144.5, 127.4 146.4 Q 127.4 148.3, 126.4 149.4 Q 125.5 150.5, 123.7 150.5 Q 122.0 150.5, 121.0 149.4 Q 120.1 148.3, 120.1 146.4 M 123.7 149.6 Q 125.0 149.6, 125.6 148.8 Q 126.3 148.0, 126.3 146.4 Q 126.3 144.8, 125.6 144.0 Q 125.0 143.2, 123.7 143.2 Q 122.5 143.2, 121.9 144.0 Q 121.2 144.8, 121.2 146.4 Q 121.2 148.0, 121.9 148.8 Q 122.5 149.6, 123.7 149.6 " fill="#FF0000"/>
<path class="atom-7" d="M 162.0 153.5 Q 162.0 151.6, 163.0 150.6 Q 163.9 149.5, 165.7 149.5 Q 167.5 149.5, 168.4 150.6 Q 169.4 151.6, 169.4 153.5 Q 169.4 155.5, 168.4 156.6 Q 167.4 157.7, 165.7 157.7 Q 163.9 157.7, 163.0 156.6 Q 162.0 155.5, 162.0 153.5 M 165.7 156.8 Q 166.9 156.8, 167.6 156.0 Q 168.2 155.1, 168.2 153.5 Q 168.2 152.0, 167.6 151.2 Q 166.9 150.4, 165.7 150.4 Q 164.5 150.4, 163.8 151.2 Q 163.2 152.0, 163.2 153.5 Q 163.2 155.2, 163.8 156.0 Q 164.5 156.8, 165.7 156.8 " fill="#FF0000"/>
<path class="atom-7" d="M 170.6 149.6 L 171.7 149.6 L 171.7 153.0 L 175.7 153.0 L 175.7 149.6 L 176.8 149.6 L 176.8 157.6 L 175.7 157.6 L 175.7 153.9 L 171.7 153.9 L 171.7 157.6 L 170.6 157.6 L 170.6 149.6 " fill="#FF0000"/>
<path class="atom-9" d="M 119.6 58.5 L 120.7 58.5 L 120.7 61.9 L 124.8 61.9 L 124.8 58.5 L 125.8 58.5 L 125.8 66.4 L 124.8 66.4 L 124.8 62.8 L 120.7 62.8 L 120.7 66.4 L 119.6 66.4 L 119.6 58.5 " fill="#FF0000"/>
<path class="atom-9" d="M 127.5 62.4 Q 127.5 60.5, 128.4 59.5 Q 129.4 58.4, 131.1 58.4 Q 132.9 58.4, 133.8 59.5 Q 134.8 60.5, 134.8 62.4 Q 134.8 64.4, 133.8 65.5 Q 132.9 66.6, 131.1 66.6 Q 129.4 66.6, 128.4 65.5 Q 127.5 64.4, 127.5 62.4 M 131.1 65.7 Q 132.3 65.7, 133.0 64.9 Q 133.7 64.0, 133.7 62.4 Q 133.7 60.9, 133.0 60.1 Q 132.3 59.3, 131.1 59.3 Q 129.9 59.3, 129.3 60.1 Q 128.6 60.9, 128.6 62.4 Q 128.6 64.0, 129.3 64.9 Q 129.9 65.7, 131.1 65.7 " fill="#FF0000"/>
<path class="atom-14" d="M 228.2 50.3 Q 228.2 48.4, 229.1 47.3 Q 230.1 46.2, 231.8 46.2 Q 233.6 46.2, 234.5 47.3 Q 235.5 48.4, 235.5 50.3 Q 235.5 52.2, 234.5 53.3 Q 233.6 54.4, 231.8 54.4 Q 230.1 54.4, 229.1 53.3 Q 228.2 52.2, 228.2 50.3 M 231.8 53.5 Q 233.0 53.5, 233.7 52.7 Q 234.4 51.9, 234.4 50.3 Q 234.4 48.7, 233.7 47.9 Q 233.0 47.1, 231.8 47.1 Q 230.6 47.1, 229.9 47.9 Q 229.3 48.7, 229.3 50.3 Q 229.3 51.9, 229.9 52.7 Q 230.6 53.5, 231.8 53.5 " fill="#FF0000"/>
<path class="atom-14" d="M 236.7 46.3 L 237.8 46.3 L 237.8 49.7 L 241.9 49.7 L 241.9 46.3 L 243.0 46.3 L 243.0 54.3 L 241.9 54.3 L 241.9 50.6 L 237.8 50.6 L 237.8 54.3 L 236.7 54.3 L 236.7 46.3 " fill="#FF0000"/>
<path class="atom-19" d="M 293.5 103.7 Q 293.5 101.7, 294.5 100.7 Q 295.4 99.6, 297.2 99.6 Q 299.0 99.6, 299.9 100.7 Q 300.8 101.7, 300.8 103.7 Q 300.8 105.6, 299.9 106.7 Q 298.9 107.8, 297.2 107.8 Q 295.4 107.8, 294.5 106.7 Q 293.5 105.6, 293.5 103.7 M 297.2 106.9 Q 298.4 106.9, 299.1 106.1 Q 299.7 105.3, 299.7 103.7 Q 299.7 102.1, 299.1 101.3 Q 298.4 100.5, 297.2 100.5 Q 296.0 100.5, 295.3 101.3 Q 294.7 102.1, 294.7 103.7 Q 294.7 105.3, 295.3 106.1 Q 296.0 106.9, 297.2 106.9 " fill="#FF0000"/>
<path class="atom-20" d="M 262.7 141.4 Q 262.7 139.5, 263.7 138.4 Q 264.6 137.3, 266.4 137.3 Q 268.2 137.3, 269.1 138.4 Q 270.0 139.5, 270.0 141.4 Q 270.0 143.3, 269.1 144.4 Q 268.1 145.5, 266.4 145.5 Q 264.6 145.5, 263.7 144.4 Q 262.7 143.3, 262.7 141.4 M 266.4 144.6 Q 267.6 144.6, 268.3 143.8 Q 268.9 143.0, 268.9 141.4 Q 268.9 139.8, 268.3 139.0 Q 267.6 138.2, 266.4 138.2 Q 265.2 138.2, 264.5 139.0 Q 263.9 139.8, 263.9 141.4 Q 263.9 143.0, 264.5 143.8 Q 265.2 144.6, 266.4 144.6 " fill="#FF0000"/>
<path class="atom-20" d="M 271.3 137.4 L 272.4 137.4 L 272.4 140.8 L 276.4 140.8 L 276.4 137.4 L 277.5 137.4 L 277.5 145.4 L 276.4 145.4 L 276.4 141.7 L 272.4 141.7 L 272.4 145.4 L 271.3 145.4 L 271.3 137.4 " fill="#FF0000"/>
<path class="atom-22" d="M 45.8 138.6 L 46.9 138.6 L 46.9 142.0 L 50.9 142.0 L 50.9 138.6 L 52.0 138.6 L 52.0 146.6 L 50.9 146.6 L 50.9 142.9 L 46.9 142.9 L 46.9 146.6 L 45.8 146.6 L 45.8 138.6 " fill="#FF0000"/>
<path class="atom-22" d="M 53.7 142.6 Q 53.7 140.6, 54.6 139.6 Q 55.5 138.5, 57.3 138.5 Q 59.1 138.5, 60.0 139.6 Q 61.0 140.6, 61.0 142.6 Q 61.0 144.5, 60.0 145.6 Q 59.1 146.7, 57.3 146.7 Q 55.6 146.7, 54.6 145.6 Q 53.7 144.5, 53.7 142.6 M 57.3 145.8 Q 58.5 145.8, 59.2 145.0 Q 59.8 144.2, 59.8 142.6 Q 59.8 141.0, 59.2 140.2 Q 58.5 139.4, 57.3 139.4 Q 56.1 139.4, 55.4 140.2 Q 54.8 141.0, 54.8 142.6 Q 54.8 144.2, 55.4 145.0 Q 56.1 145.8, 57.3 145.8 " fill="#FF0000"/>
<path class="atom-27" d="M 69.3 46.4 Q 69.3 44.5, 70.2 43.4 Q 71.2 42.3, 72.9 42.3 Q 74.7 42.3, 75.6 43.4 Q 76.6 44.5, 76.6 46.4 Q 76.6 48.3, 75.6 49.4 Q 74.7 50.5, 72.9 50.5 Q 71.2 50.5, 70.2 49.4 Q 69.3 48.3, 69.3 46.4 M 72.9 49.6 Q 74.1 49.6, 74.8 48.8 Q 75.5 48.0, 75.5 46.4 Q 75.5 44.8, 74.8 44.0 Q 74.1 43.2, 72.9 43.2 Q 71.7 43.2, 71.0 44.0 Q 70.4 44.8, 70.4 46.4 Q 70.4 48.0, 71.0 48.8 Q 71.7 49.6, 72.9 49.6 " fill="#FF0000"/>
<path class="atom-28" d="M 15.8 59.7 L 16.9 59.7 L 16.9 63.1 L 21.0 63.1 L 21.0 59.7 L 22.1 59.7 L 22.1 67.7 L 21.0 67.7 L 21.0 64.0 L 16.9 64.0 L 16.9 67.7 L 15.8 67.7 L 15.8 59.7 " fill="#FF0000"/>
<path class="atom-28" d="M 23.7 63.7 Q 23.7 61.7, 24.7 60.7 Q 25.6 59.6, 27.4 59.6 Q 29.1 59.6, 30.1 60.7 Q 31.0 61.7, 31.0 63.7 Q 31.0 65.6, 30.1 66.7 Q 29.1 67.8, 27.4 67.8 Q 25.6 67.8, 24.7 66.7 Q 23.7 65.6, 23.7 63.7 M 27.4 66.9 Q 28.6 66.9, 29.2 66.1 Q 29.9 65.3, 29.9 63.7 Q 29.9 62.1, 29.2 61.3 Q 28.6 60.5, 27.4 60.5 Q 26.2 60.5, 25.5 61.3 Q 24.8 62.1, 24.8 63.7 Q 24.8 65.3, 25.5 66.1 Q 26.2 66.9, 27.4 66.9 " fill="#FF0000"/>
</g>
  </g>
</svg>
