<?xml version='1.0' encoding='ASCII' standalone='yes'?>
<svg xmlns="http://www.w3.org/2000/svg" xmlns:xlink="http://www.w3.org/1999/xlink" version="1.1" width="905.0px" viewBox="0 0 905.0 200.0" height="200.0px">
  <g>
    <g transform="translate(0, 0) scale(1 1) "><!-- END OF HEADER -->
<rect style="opacity:1.0;fill:#FFFFFF;stroke:none" width="289.0" height="200.0" x="0.0" y="0.0"> </rect>
<path class="bond-0 atom-0 atom-1" d="M 262.7,32.8 L 272.5,64.3" style="fill:none;fill-rule:evenodd;stroke:#000000;stroke-width:2.0px;stroke-linecap:butt;stroke-linejoin:miter;stroke-opacity:1"/>
<path class="bond-1 atom-1 atom-2" d="M 272.5,64.3 L 250.2,88.6" style="fill:none;fill-rule:evenodd;stroke:#000000;stroke-width:2.0px;stroke-linecap:butt;stroke-linejoin:miter;stroke-opacity:1"/>
<path class="bond-2 atom-2 atom-3" d="M 250.2,88.6 L 225.9,66.2" style="fill:none;fill-rule:evenodd;stroke:#000000;stroke-width:2.0px;stroke-linecap:butt;stroke-linejoin:miter;stroke-opacity:1"/>
<path class="bond-3 atom-2 atom-4" d="M 250.2,88.6 L 274.4,110.9" style="fill:none;fill-rule:evenodd;stroke:#000000;stroke-width:2.0px;stroke-linecap:butt;stroke-linejoin:miter;stroke-opacity:1"/>
<path class="bond-4 atom-2 atom-5" d="M 250.2,88.6 L 227.8,112.8" style="fill:none;fill-rule:evenodd;stroke:#000000;stroke-width:2.0px;stroke-linecap:butt;stroke-linejoin:miter;stroke-opacity:1"/>
<path class="bond-5 atom-5 atom-6" d="M 227.8,112.8 L 195.6,105.6" style="fill:none;fill-rule:evenodd;stroke:#000000;stroke-width:2.0px;stroke-linecap:butt;stroke-linejoin:miter;stroke-opacity:1"/>
<path class="bond-6 atom-6 atom-7" d="M 195.6,105.6 L 173.2,129.9" style="fill:none;fill-rule:evenodd;stroke:#000000;stroke-width:2.0px;stroke-linecap:butt;stroke-linejoin:miter;stroke-opacity:1"/>
<path class="bond-7 atom-7 atom-8" d="M 173.2,129.9 L 141.0,122.6" style="fill:none;fill-rule:evenodd;stroke:#000000;stroke-width:2.0px;stroke-linecap:butt;stroke-linejoin:miter;stroke-opacity:1"/>
<path class="bond-8 atom-8 atom-9" d="M 141.0,122.6 L 148.2,90.4" style="fill:none;fill-rule:evenodd;stroke:#000000;stroke-width:2.0px;stroke-linecap:butt;stroke-linejoin:miter;stroke-opacity:1"/>
<path class="bond-9 atom-8 atom-10" d="M 141.0,122.6 L 133.8,154.8" style="fill:none;fill-rule:evenodd;stroke:#000000;stroke-width:2.0px;stroke-linecap:butt;stroke-linejoin:miter;stroke-opacity:1"/>
<path class="bond-10 atom-10 atom-11" d="M 133.8,154.8 L 102.2,164.7" style="fill:none;fill-rule:evenodd;stroke:#000000;stroke-width:2.0px;stroke-linecap:butt;stroke-linejoin:miter;stroke-opacity:1"/>
<path class="bond-11 atom-8 atom-12" d="M 141.0,122.6 L 108.8,115.4" style="fill:none;fill-rule:evenodd;stroke:#000000;stroke-width:2.0px;stroke-linecap:butt;stroke-linejoin:miter;stroke-opacity:1"/>
<path class="bond-12 atom-12 atom-13" d="M 108.8,115.4 L 98.9,83.9" style="fill:none;fill-rule:evenodd;stroke:#000000;stroke-width:2.0px;stroke-linecap:butt;stroke-linejoin:miter;stroke-opacity:1"/>
<path class="bond-13 atom-13 atom-14" d="M 98.9,83.9 L 66.7,76.6" style="fill:none;fill-rule:evenodd;stroke:#000000;stroke-width:2.0px;stroke-linecap:butt;stroke-linejoin:miter;stroke-opacity:1"/>
<path class="bond-14 atom-14 atom-15" d="M 66.7,76.6 L 34.5,69.4" style="fill:none;fill-rule:evenodd;stroke:#000000;stroke-width:2.0px;stroke-linecap:butt;stroke-linejoin:miter;stroke-opacity:1"/>
<path class="bond-15 atom-14 atom-16" d="M 66.7,76.6 L 59.5,108.8" style="fill:none;fill-rule:evenodd;stroke:#000000;stroke-width:2.0px;stroke-linecap:butt;stroke-linejoin:miter;stroke-opacity:1"/>
<path class="bond-16 atom-16 atom-17" d="M 59.5,108.8 L 46.4,112.9" style="fill:none;fill-rule:evenodd;stroke:#000000;stroke-width:2.0px;stroke-linecap:butt;stroke-linejoin:miter;stroke-opacity:1"/>
<path class="bond-16 atom-16 atom-17" d="M 46.4,112.9 L 33.4,117.0" style="fill:none;fill-rule:evenodd;stroke:#FF0000;stroke-width:2.0px;stroke-linecap:butt;stroke-linejoin:miter;stroke-opacity:1"/>
<path class="bond-17 atom-14 atom-18" d="M 66.7,76.6 L 74.0,44.4" style="fill:none;fill-rule:evenodd;stroke:#000000;stroke-width:2.0px;stroke-linecap:butt;stroke-linejoin:miter;stroke-opacity:1"/>
<path class="bond-18 atom-18 atom-19" d="M 73.3,47.2 L 87.1,42.9" style="fill:none;fill-rule:evenodd;stroke:#000000;stroke-width:2.0px;stroke-linecap:butt;stroke-linejoin:miter;stroke-opacity:1"/>
<path class="bond-18 atom-18 atom-19" d="M 87.1,42.9 L 100.8,38.6" style="fill:none;fill-rule:evenodd;stroke:#FF0000;stroke-width:2.0px;stroke-linecap:butt;stroke-linejoin:miter;stroke-opacity:1"/>
<path class="bond-18 atom-18 atom-19" d="M 71.9,42.5 L 85.6,38.2" style="fill:none;fill-rule:evenodd;stroke:#000000;stroke-width:2.0px;stroke-linecap:butt;stroke-linejoin:miter;stroke-opacity:1"/>
<path class="bond-18 atom-18 atom-19" d="M 85.6,38.2 L 99.4,33.9" style="fill:none;fill-rule:evenodd;stroke:#FF0000;stroke-width:2.0px;stroke-linecap:butt;stroke-linejoin:miter;stroke-opacity:1"/>
<path class="bond-19 atom-18 atom-20" d="M 74.0,44.4 L 64.5,35.7" style="fill:none;fill-rule:evenodd;stroke:#000000;stroke-width:2.0px;stroke-linecap:butt;stroke-linejoin:miter;stroke-opacity:1"/>
<path class="bond-19 atom-18 atom-20" d="M 64.5,35.7 L 55.1,27.0" style="fill:none;fill-rule:evenodd;stroke:#FF0000;stroke-width:2.0px;stroke-linecap:butt;stroke-linejoin:miter;stroke-opacity:1"/>
<path d="M 272.1,62.7 L 272.5,64.3 L 271.4,65.5" style="fill:none;stroke:#000000;stroke-width:2.0px;stroke-linecap:butt;stroke-linejoin:miter;stroke-opacity:1;"/>
<path d="M 228.9,111.6 L 227.8,112.8 L 226.2,112.5" style="fill:none;stroke:#000000;stroke-width:2.0px;stroke-linecap:butt;stroke-linejoin:miter;stroke-opacity:1;"/>
<path d="M 197.2,106.0 L 195.6,105.6 L 194.5,106.8" style="fill:none;stroke:#000000;stroke-width:2.0px;stroke-linecap:butt;stroke-linejoin:miter;stroke-opacity:1;"/>
<path d="M 174.3,128.7 L 173.2,129.9 L 171.6,129.5" style="fill:none;stroke:#000000;stroke-width:2.0px;stroke-linecap:butt;stroke-linejoin:miter;stroke-opacity:1;"/>
<path d="M 134.1,153.2 L 133.8,154.8 L 132.2,155.3" style="fill:none;stroke:#000000;stroke-width:2.0px;stroke-linecap:butt;stroke-linejoin:miter;stroke-opacity:1;"/>
<path d="M 110.4,115.8 L 108.8,115.4 L 108.3,113.8" style="fill:none;stroke:#000000;stroke-width:2.0px;stroke-linecap:butt;stroke-linejoin:miter;stroke-opacity:1;"/>
<path d="M 99.4,85.5 L 98.9,83.9 L 97.3,83.5" style="fill:none;stroke:#000000;stroke-width:2.0px;stroke-linecap:butt;stroke-linejoin:miter;stroke-opacity:1;"/>
<path d="M 59.9,107.2 L 59.5,108.8 L 58.8,109.1" style="fill:none;stroke:#000000;stroke-width:2.0px;stroke-linecap:butt;stroke-linejoin:miter;stroke-opacity:1;"/>
<path d="M 73.6,46.0 L 74.0,44.4 L 73.5,44.0" style="fill:none;stroke:#000000;stroke-width:2.0px;stroke-linecap:butt;stroke-linejoin:miter;stroke-opacity:1;"/>
<path class="atom-17" d="M 14.4 114.1 L 15.7 114.1 L 15.7 118.0 L 20.5 118.0 L 20.5 114.1 L 21.8 114.1 L 21.8 123.4 L 20.5 123.4 L 20.5 119.1 L 15.7 119.1 L 15.7 123.4 L 14.4 123.4 L 14.4 114.1 " fill="#FF0000"/>
<path class="atom-17" d="M 23.7 118.7 Q 23.7 116.5, 24.8 115.2 Q 25.9 114.0, 28.0 114.0 Q 30.0 114.0, 31.2 115.2 Q 32.3 116.5, 32.3 118.7 Q 32.3 121.0, 31.1 122.3 Q 30.0 123.6, 28.0 123.6 Q 25.9 123.6, 24.8 122.3 Q 23.7 121.0, 23.7 118.7 M 28.0 122.5 Q 29.4 122.5, 30.2 121.6 Q 30.9 120.6, 30.9 118.7 Q 30.9 116.9, 30.2 116.0 Q 29.4 115.0, 28.0 115.0 Q 26.5 115.0, 25.8 115.9 Q 25.0 116.9, 25.0 118.7 Q 25.0 120.6, 25.8 121.6 Q 26.5 122.5, 28.0 122.5 " fill="#FF0000"/>
<path class="atom-19" d="M 101.2 34.6 Q 101.2 32.4, 102.3 31.1 Q 103.4 29.9, 105.5 29.9 Q 107.6 29.9, 108.7 31.1 Q 109.8 32.4, 109.8 34.6 Q 109.8 36.9, 108.7 38.2 Q 107.5 39.5, 105.5 39.5 Q 103.4 39.5, 102.3 38.2 Q 101.2 36.9, 101.2 34.6 M 105.5 38.4 Q 106.9 38.4, 107.7 37.5 Q 108.5 36.5, 108.5 34.6 Q 108.5 32.8, 107.7 31.9 Q 106.9 30.9, 105.5 30.9 Q 104.1 30.9, 103.3 31.8 Q 102.5 32.8, 102.5 34.6 Q 102.5 36.5, 103.3 37.5 Q 104.1 38.4, 105.5 38.4 " fill="#FF0000"/>
<path class="atom-20" d="M 36.2 17.4 L 37.4 17.4 L 37.4 21.4 L 42.2 21.4 L 42.2 17.4 L 43.5 17.4 L 43.5 26.8 L 42.2 26.8 L 42.2 22.5 L 37.4 22.5 L 37.4 26.8 L 36.2 26.8 L 36.2 17.4 " fill="#FF0000"/>
<path class="atom-20" d="M 45.4 22.1 Q 45.4 19.8, 46.5 18.6 Q 47.6 17.3, 49.7 17.3 Q 51.8 17.3, 52.9 18.6 Q 54.0 19.8, 54.0 22.1 Q 54.0 24.3, 52.9 25.6 Q 51.7 26.9, 49.7 26.9 Q 47.6 26.9, 46.5 25.6 Q 45.4 24.4, 45.4 22.1 M 49.7 25.9 Q 51.1 25.9, 51.9 24.9 Q 52.7 23.9, 52.7 22.1 Q 52.7 20.2, 51.9 19.3 Q 51.1 18.4, 49.7 18.4 Q 48.3 18.4, 47.5 19.3 Q 46.7 20.2, 46.7 22.1 Q 46.7 24.0, 47.5 24.9 Q 48.3 25.9, 49.7 25.9 " fill="#FF0000"/>
<path class="legend" d="M 135.9 181.9 Q 135.9 179.6, 136.6 177.7 Q 137.3 175.8, 138.6 173.8 L 139.5 174.4 Q 138.4 176.3, 137.9 178.0 Q 137.4 179.7, 137.4 181.9 Q 137.4 184.0, 137.9 185.8 Q 138.4 187.5, 139.5 189.4 L 138.6 190.0 Q 137.3 188.0, 136.6 186.1 Q 135.9 184.2, 135.9 181.9 " fill="#000000"/>
<path class="legend" d="M 140.4 177.3 Q 140.8 176.2, 141.8 175.6 Q 142.8 175.0, 144.2 175.0 Q 145.9 175.0, 146.8 175.9 Q 147.8 176.8, 147.8 178.5 Q 147.8 180.2, 146.5 181.7 Q 145.3 183.3, 142.8 185.2 L 148.0 185.2 L 148.0 186.4 L 140.4 186.4 L 140.4 185.4 Q 142.5 183.9, 143.7 182.8 Q 145.0 181.6, 145.6 180.6 Q 146.2 179.6, 146.2 178.6 Q 146.2 177.5, 145.6 176.9 Q 145.1 176.3, 144.2 176.3 Q 143.2 176.3, 142.6 176.6 Q 142.0 177.0, 141.6 177.8 L 140.4 177.3 " fill="#000000"/>
<path class="legend" d="M 153.0 181.9 Q 153.0 184.2, 152.3 186.1 Q 151.6 188.0, 150.3 190.0 L 149.4 189.4 Q 150.5 187.5, 151.0 185.8 Q 151.5 184.0, 151.5 181.9 Q 151.5 179.7, 151.0 178.0 Q 150.5 176.3, 149.4 174.4 L 150.3 173.8 Q 151.6 175.8, 152.3 177.7 Q 153.0 179.6, 153.0 181.9 " fill="#000000"/>
</g>
    <g transform="translate(289.0, 0) scale(1 1) "><line x1="5" y1="100" x2="35" y2="100" style="stroke:rgb(0,0,0);stroke-width:2"/>
  <line x1="34" y1="100" x2="29" y2="95" style="stroke:rgb(0,0,0);stroke-width:2"/>
  <line x1="34" y1="100" x2="29" y2="105" style="stroke:rgb(0,0,0);stroke-width:2"/>
</g>
    <g transform="translate(329.0, 0) scale(1 1) "><!-- END OF HEADER -->
<rect style="opacity:1.0;fill:#FFFFFF;stroke:none" width="331.0" height="200.0" x="0.0" y="0.0"> </rect>
<path class="bond-0 atom-0 atom-1" d="M 42.2,39.6 L 27.4,65.0" style="fill:none;fill-rule:evenodd;stroke:#000000;stroke-width:2.0px;stroke-linecap:butt;stroke-linejoin:miter;stroke-opacity:1"/>
<path class="bond-1 atom-1 atom-2" d="M 27.4,65.0 L 42.0,90.4" style="fill:none;fill-rule:evenodd;stroke:#000000;stroke-width:2.0px;stroke-linecap:butt;stroke-linejoin:miter;stroke-opacity:1"/>
<path class="bond-2 atom-2 atom-3" d="M 42.0,90.4 L 67.4,75.8" style="fill:none;fill-rule:evenodd;stroke:#000000;stroke-width:2.0px;stroke-linecap:butt;stroke-linejoin:miter;stroke-opacity:1"/>
<path class="bond-3 atom-2 atom-4" d="M 42.0,90.4 L 16.6,105.0" style="fill:none;fill-rule:evenodd;stroke:#000000;stroke-width:2.0px;stroke-linecap:butt;stroke-linejoin:miter;stroke-opacity:1"/>
<path class="bond-4 atom-2 atom-5" d="M 42.0,90.4 L 56.5,115.8" style="fill:none;fill-rule:evenodd;stroke:#000000;stroke-width:2.0px;stroke-linecap:butt;stroke-linejoin:miter;stroke-opacity:1"/>
<path class="bond-5 atom-5 atom-6" d="M 56.5,115.8 L 85.8,115.9" style="fill:none;fill-rule:evenodd;stroke:#000000;stroke-width:2.0px;stroke-linecap:butt;stroke-linejoin:miter;stroke-opacity:1"/>
<path class="bond-6 atom-6 atom-7" d="M 85.8,115.9 L 100.4,141.3" style="fill:none;fill-rule:evenodd;stroke:#000000;stroke-width:2.0px;stroke-linecap:butt;stroke-linejoin:miter;stroke-opacity:1"/>
<path class="bond-7 atom-7 atom-8" d="M 100.4,141.3 L 129.7,141.5" style="fill:none;fill-rule:evenodd;stroke:#000000;stroke-width:2.0px;stroke-linecap:butt;stroke-linejoin:miter;stroke-opacity:1"/>
<path class="bond-8 atom-8 atom-9" d="M 129.7,141.5 L 129.8,112.1" style="fill:none;fill-rule:evenodd;stroke:#000000;stroke-width:2.0px;stroke-linecap:butt;stroke-linejoin:miter;stroke-opacity:1"/>
<path class="bond-9 atom-8 atom-10" d="M 129.7,141.5 L 129.6,170.8" style="fill:none;fill-rule:evenodd;stroke:#000000;stroke-width:2.0px;stroke-linecap:butt;stroke-linejoin:miter;stroke-opacity:1"/>
<path class="bond-10 atom-10 atom-11" d="M 129.6,170.8 L 154.9,185.5" style="fill:none;fill-rule:evenodd;stroke:#000000;stroke-width:2.0px;stroke-linecap:butt;stroke-linejoin:miter;stroke-opacity:1"/>
<path class="bond-11 atom-8 atom-12" d="M 129.7,141.5 L 159.0,141.6" style="fill:none;fill-rule:evenodd;stroke:#000000;stroke-width:2.0px;stroke-linecap:butt;stroke-linejoin:miter;stroke-opacity:1"/>
<path class="bond-12 atom-12 atom-13" d="M 159.0,141.6 L 173.8,116.2" style="fill:none;fill-rule:evenodd;stroke:#000000;stroke-width:2.0px;stroke-linecap:butt;stroke-linejoin:miter;stroke-opacity:1"/>
<path class="bond-13 atom-13 atom-14" d="M 173.8,116.2 L 159.2,90.8" style="fill:none;fill-rule:evenodd;stroke:#000000;stroke-width:2.0px;stroke-linecap:butt;stroke-linejoin:miter;stroke-opacity:1"/>
<path class="bond-14 atom-14 atom-15" d="M 159.2,90.8 L 173.9,65.5" style="fill:none;fill-rule:evenodd;stroke:#000000;stroke-width:2.0px;stroke-linecap:butt;stroke-linejoin:miter;stroke-opacity:1"/>
<path class="bond-15 atom-15 atom-16" d="M 173.9,65.5 L 159.4,40.0" style="fill:none;fill-rule:evenodd;stroke:#000000;stroke-width:2.0px;stroke-linecap:butt;stroke-linejoin:miter;stroke-opacity:1"/>
<path class="bond-16 atom-16 atom-17" d="M 159.4,40.0 L 184.8,25.5" style="fill:none;fill-rule:evenodd;stroke:#000000;stroke-width:2.0px;stroke-linecap:butt;stroke-linejoin:miter;stroke-opacity:1"/>
<path class="bond-17 atom-16 atom-18" d="M 159.4,40.0 L 133.9,54.6" style="fill:none;fill-rule:evenodd;stroke:#000000;stroke-width:2.0px;stroke-linecap:butt;stroke-linejoin:miter;stroke-opacity:1"/>
<path class="bond-18 atom-16 atom-19" d="M 159.4,40.0 L 144.8,14.6" style="fill:none;fill-rule:evenodd;stroke:#000000;stroke-width:2.0px;stroke-linecap:butt;stroke-linejoin:miter;stroke-opacity:1"/>
<path class="bond-19 atom-19 atom-20" d="M 144.8,14.6 L 115.5,14.5" style="fill:none;fill-rule:evenodd;stroke:#000000;stroke-width:2.0px;stroke-linecap:butt;stroke-linejoin:miter;stroke-opacity:1"/>
<path class="bond-20 atom-13 atom-21" d="M 173.8,116.2 L 203.1,116.3" style="fill:none;fill-rule:evenodd;stroke:#000000;stroke-width:2.0px;stroke-linecap:butt;stroke-linejoin:miter;stroke-opacity:1"/>
<path class="bond-21 atom-21 atom-22" d="M 203.1,116.3 L 203.0,145.6" style="fill:none;fill-rule:evenodd;stroke:#000000;stroke-width:2.0px;stroke-linecap:butt;stroke-linejoin:miter;stroke-opacity:1"/>
<path class="bond-22 atom-21 atom-23" d="M 203.1,116.3 L 203.2,87.0" style="fill:none;fill-rule:evenodd;stroke:#000000;stroke-width:2.0px;stroke-linecap:butt;stroke-linejoin:miter;stroke-opacity:1"/>
<path class="bond-23 atom-23 atom-24" d="M 203.2,87.0 L 228.6,72.5" style="fill:none;fill-rule:evenodd;stroke:#000000;stroke-width:2.0px;stroke-linecap:butt;stroke-linejoin:miter;stroke-opacity:1"/>
<path class="bond-24 atom-21 atom-25" d="M 203.1,116.3 L 232.4,116.4" style="fill:none;fill-rule:evenodd;stroke:#000000;stroke-width:2.0px;stroke-linecap:butt;stroke-linejoin:miter;stroke-opacity:1"/>
<path class="bond-25 atom-25 atom-26" d="M 232.4,116.4 L 247.1,91.1" style="fill:none;fill-rule:evenodd;stroke:#000000;stroke-width:2.0px;stroke-linecap:butt;stroke-linejoin:miter;stroke-opacity:1"/>
<path class="bond-26 atom-26 atom-27" d="M 247.1,91.1 L 276.4,91.2" style="fill:none;fill-rule:evenodd;stroke:#000000;stroke-width:2.0px;stroke-linecap:butt;stroke-linejoin:miter;stroke-opacity:1"/>
<path class="bond-27 atom-27 atom-28" d="M 276.4,91.2 L 305.7,91.3" style="fill:none;fill-rule:evenodd;stroke:#000000;stroke-width:2.0px;stroke-linecap:butt;stroke-linejoin:miter;stroke-opacity:1"/>
<path class="bond-28 atom-27 atom-29" d="M 276.4,91.2 L 276.3,120.5" style="fill:none;fill-rule:evenodd;stroke:#000000;stroke-width:2.0px;stroke-linecap:butt;stroke-linejoin:miter;stroke-opacity:1"/>
<path class="bond-29 atom-29 atom-30" d="M 276.3,120.5 L 286.6,126.5" style="fill:none;fill-rule:evenodd;stroke:#000000;stroke-width:2.0px;stroke-linecap:butt;stroke-linejoin:miter;stroke-opacity:1"/>
<path class="bond-29 atom-29 atom-30" d="M 286.6,126.5 L 296.9,132.5" style="fill:none;fill-rule:evenodd;stroke:#FF0000;stroke-width:2.0px;stroke-linecap:butt;stroke-linejoin:miter;stroke-opacity:1"/>
<path class="bond-30 atom-27 atom-31" d="M 276.4,91.2 L 276.5,61.9" style="fill:none;fill-rule:evenodd;stroke:#000000;stroke-width:2.0px;stroke-linecap:butt;stroke-linejoin:miter;stroke-opacity:1"/>
<path class="bond-31 atom-31 atom-32" d="M 278.7,60.6 L 267.9,54.3" style="fill:none;fill-rule:evenodd;stroke:#000000;stroke-width:2.0px;stroke-linecap:butt;stroke-linejoin:miter;stroke-opacity:1"/>
<path class="bond-31 atom-31 atom-32" d="M 267.9,54.3 L 257.1,48.0" style="fill:none;fill-rule:evenodd;stroke:#FF0000;stroke-width:2.0px;stroke-linecap:butt;stroke-linejoin:miter;stroke-opacity:1"/>
<path class="bond-31 atom-31 atom-32" d="M 276.5,64.4 L 265.7,58.1" style="fill:none;fill-rule:evenodd;stroke:#000000;stroke-width:2.0px;stroke-linecap:butt;stroke-linejoin:miter;stroke-opacity:1"/>
<path class="bond-31 atom-31 atom-32" d="M 265.7,58.1 L 254.9,51.8" style="fill:none;fill-rule:evenodd;stroke:#FF0000;stroke-width:2.0px;stroke-linecap:butt;stroke-linejoin:miter;stroke-opacity:1"/>
<path class="bond-32 atom-31 atom-33" d="M 276.5,61.9 L 286.9,56.0" style="fill:none;fill-rule:evenodd;stroke:#000000;stroke-width:2.0px;stroke-linecap:butt;stroke-linejoin:miter;stroke-opacity:1"/>
<path class="bond-32 atom-31 atom-33" d="M 286.9,56.0 L 297.2,50.1" style="fill:none;fill-rule:evenodd;stroke:#FF0000;stroke-width:2.0px;stroke-linecap:butt;stroke-linejoin:miter;stroke-opacity:1"/>
<path d="M 28.2,63.7 L 27.4,65.0 L 28.1,66.2" style="fill:none;stroke:#000000;stroke-width:2.0px;stroke-linecap:butt;stroke-linejoin:miter;stroke-opacity:1;"/>
<path d="M 55.8,114.5 L 56.5,115.8 L 58.0,115.8" style="fill:none;stroke:#000000;stroke-width:2.0px;stroke-linecap:butt;stroke-linejoin:miter;stroke-opacity:1;"/>
<path d="M 84.4,115.9 L 85.8,115.9 L 86.6,117.2" style="fill:none;stroke:#000000;stroke-width:2.0px;stroke-linecap:butt;stroke-linejoin:miter;stroke-opacity:1;"/>
<path d="M 99.7,140.1 L 100.4,141.3 L 101.9,141.4" style="fill:none;stroke:#000000;stroke-width:2.0px;stroke-linecap:butt;stroke-linejoin:miter;stroke-opacity:1;"/>
<path d="M 129.6,169.3 L 129.6,170.8 L 130.9,171.5" style="fill:none;stroke:#000000;stroke-width:2.0px;stroke-linecap:butt;stroke-linejoin:miter;stroke-opacity:1;"/>
<path d="M 157.6,141.5 L 159.0,141.6 L 159.8,140.3" style="fill:none;stroke:#000000;stroke-width:2.0px;stroke-linecap:butt;stroke-linejoin:miter;stroke-opacity:1;"/>
<path d="M 159.9,92.1 L 159.2,90.8 L 159.9,89.5" style="fill:none;stroke:#000000;stroke-width:2.0px;stroke-linecap:butt;stroke-linejoin:miter;stroke-opacity:1;"/>
<path d="M 173.2,66.7 L 173.9,65.5 L 173.2,64.2" style="fill:none;stroke:#000000;stroke-width:2.0px;stroke-linecap:butt;stroke-linejoin:miter;stroke-opacity:1;"/>
<path d="M 145.5,15.9 L 144.8,14.6 L 143.3,14.6" style="fill:none;stroke:#000000;stroke-width:2.0px;stroke-linecap:butt;stroke-linejoin:miter;stroke-opacity:1;"/>
<path d="M 203.2,88.5 L 203.2,87.0 L 204.4,86.3" style="fill:none;stroke:#000000;stroke-width:2.0px;stroke-linecap:butt;stroke-linejoin:miter;stroke-opacity:1;"/>
<path d="M 230.9,116.4 L 232.4,116.4 L 233.1,115.2" style="fill:none;stroke:#000000;stroke-width:2.0px;stroke-linecap:butt;stroke-linejoin:miter;stroke-opacity:1;"/>
<path d="M 246.4,92.4 L 247.1,91.1 L 248.6,91.1" style="fill:none;stroke:#000000;stroke-width:2.0px;stroke-linecap:butt;stroke-linejoin:miter;stroke-opacity:1;"/>
<path d="M 276.3,119.0 L 276.3,120.5 L 276.8,120.8" style="fill:none;stroke:#000000;stroke-width:2.0px;stroke-linecap:butt;stroke-linejoin:miter;stroke-opacity:1;"/>
<path d="M 276.5,63.4 L 276.5,61.9 L 277.0,61.6" style="fill:none;stroke:#000000;stroke-width:2.0px;stroke-linecap:butt;stroke-linejoin:miter;stroke-opacity:1;"/>
<path class="atom-30" d="M 297.8 135.3 Q 297.8 133.3, 298.8 132.2 Q 299.8 131.1, 301.6 131.1 Q 303.5 131.1, 304.5 132.2 Q 305.5 133.3, 305.5 135.3 Q 305.5 137.3, 304.5 138.4 Q 303.5 139.6, 301.6 139.6 Q 299.8 139.6, 298.8 138.4 Q 297.8 137.3, 297.8 135.3 M 301.6 138.6 Q 302.9 138.6, 303.6 137.8 Q 304.3 136.9, 304.3 135.3 Q 304.3 133.6, 303.6 132.8 Q 302.9 132.0, 301.6 132.0 Q 300.4 132.0, 299.7 132.8 Q 299.0 133.6, 299.0 135.3 Q 299.0 136.9, 299.7 137.8 Q 300.4 138.6, 301.6 138.6 " fill="#FF0000"/>
<path class="atom-30" d="M 306.7 131.1 L 307.9 131.1 L 307.9 134.7 L 312.1 134.7 L 312.1 131.1 L 313.2 131.1 L 313.2 139.4 L 312.1 139.4 L 312.1 135.6 L 307.9 135.6 L 307.9 139.4 L 306.7 139.4 L 306.7 131.1 " fill="#FF0000"/>
<path class="atom-32" d="M 247.4 47.2 Q 247.4 45.2, 248.4 44.1 Q 249.4 43.0, 251.2 43.0 Q 253.0 43.0, 254.0 44.1 Q 255.0 45.2, 255.0 47.2 Q 255.0 49.2, 254.0 50.3 Q 253.0 51.5, 251.2 51.5 Q 249.4 51.5, 248.4 50.3 Q 247.4 49.2, 247.4 47.2 M 251.2 50.5 Q 252.5 50.5, 253.1 49.7 Q 253.8 48.8, 253.8 47.2 Q 253.8 45.5, 253.1 44.7 Q 252.5 43.9, 251.2 43.9 Q 249.9 43.9, 249.2 44.7 Q 248.6 45.5, 248.6 47.2 Q 248.6 48.9, 249.2 49.7 Q 249.9 50.5, 251.2 50.5 " fill="#FF0000"/>
<path class="atom-33" d="M 298.1 47.4 Q 298.1 45.4, 299.1 44.2 Q 300.1 43.1, 302.0 43.1 Q 303.8 43.1, 304.8 44.2 Q 305.8 45.4, 305.8 47.4 Q 305.8 49.4, 304.8 50.5 Q 303.8 51.7, 302.0 51.7 Q 300.1 51.7, 299.1 50.5 Q 298.1 49.4, 298.1 47.4 M 302.0 50.7 Q 303.2 50.7, 303.9 49.9 Q 304.6 49.0, 304.6 47.4 Q 304.6 45.7, 303.9 44.9 Q 303.2 44.1, 302.0 44.1 Q 300.7 44.1, 300.0 44.9 Q 299.3 45.7, 299.3 47.4 Q 299.3 49.0, 300.0 49.9 Q 300.7 50.7, 302.0 50.7 " fill="#FF0000"/>
<path class="atom-33" d="M 307.1 43.2 L 308.2 43.2 L 308.2 46.8 L 312.4 46.8 L 312.4 43.2 L 313.6 43.2 L 313.6 51.5 L 312.4 51.5 L 312.4 47.7 L 308.2 47.7 L 308.2 51.5 L 307.1 51.5 L 307.1 43.2 " fill="#FF0000"/>
</g>
    <g transform="translate(660.0, 0) scale(1 1) "><line x1="15" y1="100" x2="25" y2="100" style="stroke:rgb(0,0,0);stroke-width:2"/>
  <line x1="20" y1="95" x2="20" y2="105" style="stroke:rgb(0,0,0);stroke-width:2"/>
</g>
    <g transform="translate(700.0, 0) scale(1 1) "><!-- END OF HEADER -->
<rect style="opacity:1.0;fill:#FFFFFF;stroke:none" width="205.0" height="200.0" x="0.0" y="0.0"> </rect>
<path class="bond-0 atom-0 atom-1" d="M 122.6,44.3 L 108.8,89.2" style="fill:none;fill-rule:evenodd;stroke:#000000;stroke-width:2.0px;stroke-linecap:butt;stroke-linejoin:miter;stroke-opacity:1"/>
<path class="bond-1 atom-1 atom-2" d="M 108.8,89.2 L 95.0,134.1" style="fill:none;fill-rule:evenodd;stroke:#000000;stroke-width:2.0px;stroke-linecap:butt;stroke-linejoin:miter;stroke-opacity:1"/>
<path class="bond-2 atom-1 atom-3" d="M 108.8,89.2 L 63.9,75.4" style="fill:none;fill-rule:evenodd;stroke:#000000;stroke-width:2.0px;stroke-linecap:butt;stroke-linejoin:miter;stroke-opacity:1"/>
<path class="bond-3 atom-3 atom-4" d="M 63.9,75.4 L 50.5,87.9" style="fill:none;fill-rule:evenodd;stroke:#000000;stroke-width:2.0px;stroke-linecap:butt;stroke-linejoin:miter;stroke-opacity:1"/>
<path class="bond-3 atom-3 atom-4" d="M 50.5,87.9 L 37.2,100.3" style="fill:none;fill-rule:evenodd;stroke:#FF0000;stroke-width:2.0px;stroke-linecap:butt;stroke-linejoin:miter;stroke-opacity:1"/>
<path class="bond-4 atom-1 atom-5" d="M 108.8,89.2 L 153.7,103.0" style="fill:none;fill-rule:evenodd;stroke:#000000;stroke-width:2.0px;stroke-linecap:butt;stroke-linejoin:miter;stroke-opacity:1"/>
<path class="bond-5 atom-5 atom-6" d="M 154.7,107.0 L 168.8,93.8" style="fill:none;fill-rule:evenodd;stroke:#000000;stroke-width:2.0px;stroke-linecap:butt;stroke-linejoin:miter;stroke-opacity:1"/>
<path class="bond-5 atom-5 atom-6" d="M 168.8,93.8 L 182.9,80.7" style="fill:none;fill-rule:evenodd;stroke:#FF0000;stroke-width:2.0px;stroke-linecap:butt;stroke-linejoin:miter;stroke-opacity:1"/>
<path class="bond-5 atom-5 atom-6" d="M 149.9,101.8 L 164.0,88.7" style="fill:none;fill-rule:evenodd;stroke:#000000;stroke-width:2.0px;stroke-linecap:butt;stroke-linejoin:miter;stroke-opacity:1"/>
<path class="bond-5 atom-5 atom-6" d="M 164.0,88.7 L 178.1,75.5" style="fill:none;fill-rule:evenodd;stroke:#FF0000;stroke-width:2.0px;stroke-linecap:butt;stroke-linejoin:miter;stroke-opacity:1"/>
<path class="bond-6 atom-5 atom-7" d="M 153.7,103.0 L 158.0,121.7" style="fill:none;fill-rule:evenodd;stroke:#000000;stroke-width:2.0px;stroke-linecap:butt;stroke-linejoin:miter;stroke-opacity:1"/>
<path class="bond-6 atom-5 atom-7" d="M 158.0,121.7 L 162.4,140.5" style="fill:none;fill-rule:evenodd;stroke:#FF0000;stroke-width:2.0px;stroke-linecap:butt;stroke-linejoin:miter;stroke-opacity:1"/>
<path d="M 66.1,76.1 L 63.9,75.4 L 63.2,76.0" style="fill:none;stroke:#000000;stroke-width:2.0px;stroke-linecap:butt;stroke-linejoin:miter;stroke-opacity:1;"/>
<path d="M 151.5,102.3 L 153.7,103.0 L 154.0,103.9" style="fill:none;stroke:#000000;stroke-width:2.0px;stroke-linecap:butt;stroke-linejoin:miter;stroke-opacity:1;"/>
<path class="atom-4" d="M 10.2 100.8 L 12.1 100.8 L 12.1 106.5 L 18.9 106.5 L 18.9 100.8 L 20.7 100.8 L 20.7 114.1 L 18.9 114.1 L 18.9 108.0 L 12.1 108.0 L 12.1 114.1 L 10.2 114.1 L 10.2 100.8 " fill="#FF0000"/>
<path class="atom-4" d="M 23.4 107.5 Q 23.4 104.3, 25.0 102.5 Q 26.5 100.7, 29.5 100.7 Q 32.5 100.7, 34.0 102.5 Q 35.6 104.3, 35.6 107.5 Q 35.6 110.7, 34.0 112.5 Q 32.4 114.4, 29.5 114.4 Q 26.6 114.4, 25.0 112.5 Q 23.4 110.7, 23.4 107.5 M 29.5 112.9 Q 31.5 112.9, 32.6 111.5 Q 33.7 110.1, 33.7 107.5 Q 33.7 104.8, 32.6 103.5 Q 31.5 102.2, 29.5 102.2 Q 27.5 102.2, 26.4 103.5 Q 25.3 104.8, 25.3 107.5 Q 25.3 110.1, 26.4 111.5 Q 27.5 112.9, 29.5 112.9 " fill="#FF0000"/>
<path class="atom-6" d="M 182.0 71.0 Q 182.0 67.8, 183.6 66.0 Q 185.2 64.3, 188.1 64.3 Q 191.1 64.3, 192.7 66.0 Q 194.3 67.8, 194.3 71.0 Q 194.3 74.3, 192.7 76.1 Q 191.1 77.9, 188.1 77.9 Q 185.2 77.9, 183.6 76.1 Q 182.0 74.3, 182.0 71.0 M 188.1 76.4 Q 190.2 76.4, 191.3 75.1 Q 192.4 73.7, 192.4 71.0 Q 192.4 68.4, 191.3 67.1 Q 190.2 65.8, 188.1 65.8 Q 186.1 65.8, 185.0 67.1 Q 183.9 68.4, 183.9 71.0 Q 183.9 73.7, 185.0 75.1 Q 186.1 76.4, 188.1 76.4 " fill="#FF0000"/>
<path class="atom-7" d="M 158.2 148.8 Q 158.2 145.6, 159.7 143.8 Q 161.3 142.1, 164.3 142.1 Q 167.2 142.1, 168.8 143.8 Q 170.4 145.6, 170.4 148.8 Q 170.4 152.1, 168.8 153.9 Q 167.2 155.7, 164.3 155.7 Q 161.3 155.7, 159.7 153.9 Q 158.2 152.1, 158.2 148.8 M 164.3 154.2 Q 166.3 154.2, 167.4 152.9 Q 168.5 151.5, 168.5 148.8 Q 168.5 146.2, 167.4 144.9 Q 166.3 143.6, 164.3 143.6 Q 162.2 143.6, 161.1 144.9 Q 160.0 146.2, 160.0 148.8 Q 160.0 151.5, 161.1 152.9 Q 162.2 154.2, 164.3 154.2 " fill="#FF0000"/>
<path class="atom-7" d="M 172.4 142.2 L 174.2 142.2 L 174.2 147.9 L 181.0 147.9 L 181.0 142.2 L 182.9 142.2 L 182.9 155.5 L 181.0 155.5 L 181.0 149.4 L 174.2 149.4 L 174.2 155.5 L 172.4 155.5 L 172.4 142.2 " fill="#FF0000"/>
</g>
  </g>
</svg>
