<?xml version='1.0' encoding='ASCII' standalone='yes'?>
<svg xmlns="http://www.w3.org/2000/svg" xmlns:xlink="http://www.w3.org/1999/xlink" version="1.1" width="808.0px" viewBox="0 0 808.0 200.0" height="200.0px">
  <g>
    <g transform="translate(0, 0) scale(1 1) "><!-- END OF HEADER -->
<rect style="opacity:1.0;fill:#FFFFFF;stroke:none" width="247.0" height="200.0" x="0.0" y="0.0"> </rect>
<path class="bond-0 atom-0 atom-1" d="M 13.0,79.1 L 55.8,90.9" style="fill:none;fill-rule:evenodd;stroke:#000000;stroke-width:2.0px;stroke-linecap:butt;stroke-linejoin:miter;stroke-opacity:1"/>
<path class="bond-1 atom-1 atom-2" d="M 55.8,90.9 L 44.1,133.8" style="fill:none;fill-rule:evenodd;stroke:#000000;stroke-width:2.0px;stroke-linecap:butt;stroke-linejoin:miter;stroke-opacity:1"/>
<path class="bond-2 atom-2 atom-3" d="M 44.1,133.8 L 56.0,145.9" style="fill:none;fill-rule:evenodd;stroke:#000000;stroke-width:2.0px;stroke-linecap:butt;stroke-linejoin:miter;stroke-opacity:1"/>
<path class="bond-2 atom-2 atom-3" d="M 56.0,145.9 L 68.0,158.1" style="fill:none;fill-rule:evenodd;stroke:#FF0000;stroke-width:2.0px;stroke-linecap:butt;stroke-linejoin:miter;stroke-opacity:1"/>
<path class="bond-3 atom-1 atom-4" d="M 55.8,90.9 L 98.7,102.7" style="fill:none;fill-rule:evenodd;stroke:#000000;stroke-width:2.0px;stroke-linecap:butt;stroke-linejoin:miter;stroke-opacity:1"/>
<path class="bond-4 atom-4 atom-5" d="M 98.7,102.7 L 130.4,71.5" style="fill:none;fill-rule:evenodd;stroke:#000000;stroke-width:2.0px;stroke-linecap:butt;stroke-linejoin:miter;stroke-opacity:1"/>
<path class="bond-5 atom-5 atom-6" d="M 130.4,71.5 L 173.3,83.2" style="fill:none;fill-rule:evenodd;stroke:#000000;stroke-width:2.0px;stroke-linecap:butt;stroke-linejoin:miter;stroke-opacity:1"/>
<path class="bond-6 atom-6 atom-7" d="M 173.3,83.2 L 191.1,88.1" style="fill:none;fill-rule:evenodd;stroke:#000000;stroke-width:2.0px;stroke-linecap:butt;stroke-linejoin:miter;stroke-opacity:1"/>
<path class="bond-6 atom-6 atom-7" d="M 191.1,88.1 L 208.9,93.0" style="fill:none;fill-rule:evenodd;stroke:#FF0000;stroke-width:2.0px;stroke-linecap:butt;stroke-linejoin:miter;stroke-opacity:1"/>
<path class="bond-7 atom-6 atom-8" d="M 173.3,83.2 L 178.1,65.8" style="fill:none;fill-rule:evenodd;stroke:#000000;stroke-width:2.0px;stroke-linecap:butt;stroke-linejoin:miter;stroke-opacity:1"/>
<path class="bond-7 atom-6 atom-8" d="M 178.1,65.8 L 182.8,48.4" style="fill:none;fill-rule:evenodd;stroke:#FF0000;stroke-width:2.0px;stroke-linecap:butt;stroke-linejoin:miter;stroke-opacity:1"/>
<path class="bond-8 atom-6 atom-9" d="M 173.3,83.2 L 168.4,100.8" style="fill:none;fill-rule:evenodd;stroke:#000000;stroke-width:2.0px;stroke-linecap:butt;stroke-linejoin:miter;stroke-opacity:1"/>
<path class="bond-8 atom-6 atom-9" d="M 168.4,100.8 L 163.6,118.3" style="fill:none;fill-rule:evenodd;stroke:#FF0000;stroke-width:2.0px;stroke-linecap:butt;stroke-linejoin:miter;stroke-opacity:1"/>
<path class="bond-9 atom-1 atom-10" d="M 55.8,90.9 L 67.6,48.0" style="fill:none;fill-rule:evenodd;stroke:#000000;stroke-width:2.0px;stroke-linecap:butt;stroke-linejoin:miter;stroke-opacity:1"/>
<path class="bond-10 atom-10 atom-11" d="M 71.4,47.0 L 58.7,34.2" style="fill:none;fill-rule:evenodd;stroke:#000000;stroke-width:2.0px;stroke-linecap:butt;stroke-linejoin:miter;stroke-opacity:1"/>
<path class="bond-10 atom-10 atom-11" d="M 58.7,34.2 L 46.0,21.4" style="fill:none;fill-rule:evenodd;stroke:#FF0000;stroke-width:2.0px;stroke-linecap:butt;stroke-linejoin:miter;stroke-opacity:1"/>
<path class="bond-10 atom-10 atom-11" d="M 66.6,51.7 L 53.9,38.9" style="fill:none;fill-rule:evenodd;stroke:#000000;stroke-width:2.0px;stroke-linecap:butt;stroke-linejoin:miter;stroke-opacity:1"/>
<path class="bond-10 atom-10 atom-11" d="M 53.9,38.9 L 41.3,26.1" style="fill:none;fill-rule:evenodd;stroke:#FF0000;stroke-width:2.0px;stroke-linecap:butt;stroke-linejoin:miter;stroke-opacity:1"/>
<path class="bond-11 atom-10 atom-12" d="M 67.6,48.0 L 85.5,43.4" style="fill:none;fill-rule:evenodd;stroke:#000000;stroke-width:2.0px;stroke-linecap:butt;stroke-linejoin:miter;stroke-opacity:1"/>
<path class="bond-11 atom-10 atom-12" d="M 85.5,43.4 L 103.4,38.7" style="fill:none;fill-rule:evenodd;stroke:#FF0000;stroke-width:2.0px;stroke-linecap:butt;stroke-linejoin:miter;stroke-opacity:1"/>
<path d="M 44.6,131.6 L 44.1,133.8 L 44.7,134.4" style="fill:none;stroke:#000000;stroke-width:2.0px;stroke-linecap:butt;stroke-linejoin:miter;stroke-opacity:1;"/>
<path d="M 96.6,102.1 L 98.7,102.7 L 100.3,101.1" style="fill:none;stroke:#000000;stroke-width:2.0px;stroke-linecap:butt;stroke-linejoin:miter;stroke-opacity:1;"/>
<path d="M 128.8,73.0 L 130.4,71.5 L 132.5,72.0" style="fill:none;stroke:#000000;stroke-width:2.0px;stroke-linecap:butt;stroke-linejoin:miter;stroke-opacity:1;"/>
<path d="M 67.0,50.2 L 67.6,48.0 L 68.5,47.8" style="fill:none;stroke:#000000;stroke-width:2.0px;stroke-linecap:butt;stroke-linejoin:miter;stroke-opacity:1;"/>
<path class="atom-3" d="M 69.5 165.5 Q 69.5 162.4, 71.0 160.8 Q 72.5 159.1, 75.3 159.1 Q 78.1 159.1, 79.6 160.8 Q 81.1 162.4, 81.1 165.5 Q 81.1 168.5, 79.6 170.3 Q 78.0 172.0, 75.3 172.0 Q 72.5 172.0, 71.0 170.3 Q 69.5 168.5, 69.5 165.5 M 75.3 170.6 Q 77.2 170.6, 78.2 169.3 Q 79.3 168.0, 79.3 165.5 Q 79.3 163.0, 78.2 161.8 Q 77.2 160.5, 75.3 160.5 Q 73.4 160.5, 72.3 161.7 Q 71.3 163.0, 71.3 165.5 Q 71.3 168.0, 72.3 169.3 Q 73.4 170.6, 75.3 170.6 " fill="#FF0000"/>
<path class="atom-3" d="M 83.0 159.2 L 84.7 159.2 L 84.7 164.6 L 91.2 164.6 L 91.2 159.2 L 92.9 159.2 L 92.9 171.8 L 91.2 171.8 L 91.2 166.0 L 84.7 166.0 L 84.7 171.8 L 83.0 171.8 L 83.0 159.2 " fill="#FF0000"/>
<path class="atom-7" d="M 210.4 95.1 Q 210.4 92.1, 211.9 90.4 Q 213.3 88.7, 216.1 88.7 Q 218.9 88.7, 220.4 90.4 Q 221.9 92.1, 221.9 95.1 Q 221.9 98.1, 220.4 99.9 Q 218.9 101.6, 216.1 101.6 Q 213.4 101.6, 211.9 99.9 Q 210.4 98.2, 210.4 95.1 M 216.1 100.2 Q 218.1 100.2, 219.1 98.9 Q 220.1 97.6, 220.1 95.1 Q 220.1 92.6, 219.1 91.4 Q 218.1 90.1, 216.1 90.1 Q 214.2 90.1, 213.2 91.3 Q 212.1 92.6, 212.1 95.1 Q 212.1 97.6, 213.2 98.9 Q 214.2 100.2, 216.1 100.2 " fill="#FF0000"/>
<path class="atom-7" d="M 223.9 88.8 L 225.6 88.8 L 225.6 94.2 L 232.0 94.2 L 232.0 88.8 L 233.7 88.8 L 233.7 101.4 L 232.0 101.4 L 232.0 95.6 L 225.6 95.6 L 225.6 101.4 L 223.9 101.4 L 223.9 88.8 " fill="#FF0000"/>
<path class="atom-8" d="M 179.3 40.4 Q 179.3 37.4, 180.8 35.7 Q 182.3 34.0, 185.1 34.0 Q 187.8 34.0, 189.3 35.7 Q 190.8 37.4, 190.8 40.4 Q 190.8 43.5, 189.3 45.2 Q 187.8 46.9, 185.1 46.9 Q 182.3 46.9, 180.8 45.2 Q 179.3 43.5, 179.3 40.4 M 185.1 45.5 Q 187.0 45.5, 188.0 44.2 Q 189.1 42.9, 189.1 40.4 Q 189.1 37.9, 188.0 36.7 Q 187.0 35.4, 185.1 35.4 Q 183.1 35.4, 182.1 36.7 Q 181.0 37.9, 181.0 40.4 Q 181.0 42.9, 182.1 44.2 Q 183.1 45.5, 185.1 45.5 " fill="#FF0000"/>
<path class="atom-8" d="M 192.8 34.1 L 194.5 34.1 L 194.5 39.5 L 200.9 39.5 L 200.9 34.1 L 202.6 34.1 L 202.6 46.7 L 200.9 46.7 L 200.9 40.9 L 194.5 40.9 L 194.5 46.7 L 192.8 46.7 L 192.8 34.1 " fill="#FF0000"/>
<path class="atom-9" d="M 155.7 126.2 Q 155.7 123.1, 157.2 121.4 Q 158.7 119.8, 161.5 119.8 Q 164.3 119.8, 165.8 121.4 Q 167.2 123.1, 167.2 126.2 Q 167.2 129.2, 165.7 131.0 Q 164.2 132.7, 161.5 132.7 Q 158.7 132.7, 157.2 131.0 Q 155.7 129.2, 155.7 126.2 M 161.5 131.3 Q 163.4 131.3, 164.4 130.0 Q 165.5 128.7, 165.5 126.2 Q 165.5 123.7, 164.4 122.4 Q 163.4 121.2, 161.5 121.2 Q 159.5 121.2, 158.5 122.4 Q 157.5 123.7, 157.5 126.2 Q 157.5 128.7, 158.5 130.0 Q 159.5 131.3, 161.5 131.3 " fill="#FF0000"/>
<path class="atom-9" d="M 169.2 119.9 L 170.9 119.9 L 170.9 125.3 L 177.4 125.3 L 177.4 119.9 L 179.1 119.9 L 179.1 132.5 L 177.4 132.5 L 177.4 126.7 L 170.9 126.7 L 170.9 132.5 L 169.2 132.5 L 169.2 119.9 " fill="#FF0000"/>
<path class="atom-11" d="M 30.6 16.4 Q 30.6 13.4, 32.1 11.7 Q 33.6 10.0, 36.4 10.0 Q 39.2 10.0, 40.7 11.7 Q 42.2 13.4, 42.2 16.4 Q 42.2 19.5, 40.7 21.2 Q 39.2 22.9, 36.4 22.9 Q 33.6 22.9, 32.1 21.2 Q 30.6 19.5, 30.6 16.4 M 36.4 21.5 Q 38.3 21.5, 39.3 20.2 Q 40.4 18.9, 40.4 16.4 Q 40.4 13.9, 39.3 12.7 Q 38.3 11.4, 36.4 11.4 Q 34.5 11.4, 33.4 12.7 Q 32.4 13.9, 32.4 16.4 Q 32.4 18.9, 33.4 20.2 Q 34.5 21.5, 36.4 21.5 " fill="#FF0000"/>
<path class="atom-12" d="M 104.9 36.8 Q 104.9 33.8, 106.4 32.1 Q 107.9 30.4, 110.7 30.4 Q 113.5 30.4, 115.0 32.1 Q 116.5 33.8, 116.5 36.8 Q 116.5 39.9, 114.9 41.6 Q 113.4 43.4, 110.7 43.4 Q 107.9 43.4, 106.4 41.6 Q 104.9 39.9, 104.9 36.8 M 110.7 41.9 Q 112.6 41.9, 113.6 40.7 Q 114.7 39.4, 114.7 36.8 Q 114.7 34.4, 113.6 33.1 Q 112.6 31.8, 110.7 31.8 Q 108.7 31.8, 107.7 33.1 Q 106.7 34.3, 106.7 36.8 Q 106.7 39.4, 107.7 40.7 Q 108.7 41.9, 110.7 41.9 " fill="#FF0000"/>
<path class="atom-12" d="M 118.4 30.6 L 120.1 30.6 L 120.1 35.9 L 126.6 35.9 L 126.6 30.6 L 128.3 30.6 L 128.3 43.2 L 126.6 43.2 L 126.6 37.3 L 120.1 37.3 L 120.1 43.2 L 118.4 43.2 L 118.4 30.6 " fill="#FF0000"/>
<path class="legend" d="M 114.8 181.9 Q 114.8 179.6, 115.5 177.7 Q 116.2 175.8, 117.5 173.8 L 118.4 174.4 Q 117.3 176.3, 116.8 178.0 Q 116.3 179.7, 116.3 181.9 Q 116.3 184.0, 116.8 185.8 Q 117.3 187.5, 118.4 189.4 L 117.5 190.0 Q 116.2 188.0, 115.5 186.1 Q 114.8 184.2, 114.8 181.9 " fill="#000000"/>
<path class="legend" d="M 119.3 177.3 Q 119.7 176.2, 120.7 175.6 Q 121.7 175.0, 123.1 175.0 Q 124.8 175.0, 125.7 175.9 Q 126.7 176.8, 126.7 178.5 Q 126.7 180.2, 125.4 181.7 Q 124.2 183.3, 121.7 185.2 L 126.9 185.2 L 126.9 186.4 L 119.3 186.4 L 119.3 185.4 Q 121.4 183.9, 122.6 182.8 Q 123.9 181.6, 124.5 180.6 Q 125.1 179.6, 125.1 178.6 Q 125.1 177.5, 124.5 176.9 Q 124.0 176.3, 123.1 176.3 Q 122.1 176.3, 121.5 176.6 Q 120.9 177.0, 120.5 177.8 L 119.3 177.3 " fill="#000000"/>
<path class="legend" d="M 131.9 181.9 Q 131.9 184.2, 131.2 186.1 Q 130.5 188.0, 129.2 190.0 L 128.3 189.4 Q 129.4 187.5, 129.9 185.8 Q 130.4 184.0, 130.4 181.9 Q 130.4 179.7, 129.9 178.0 Q 129.4 176.3, 128.3 174.4 L 129.2 173.8 Q 130.5 175.8, 131.2 177.7 Q 131.9 179.6, 131.9 181.9 " fill="#000000"/>
</g>
    <g transform="translate(247.0, 0) scale(1 1) "><line x1="5" y1="100" x2="35" y2="100" style="stroke:rgb(0,0,0);stroke-width:2"/>
  <line x1="34" y1="100" x2="29" y2="95" style="stroke:rgb(0,0,0);stroke-width:2"/>
  <line x1="34" y1="100" x2="29" y2="105" style="stroke:rgb(0,0,0);stroke-width:2"/>
</g>
    <g transform="translate(287.0, 0) scale(1 1) "><!-- END OF HEADER -->
<rect style="opacity:1.0;fill:#FFFFFF;stroke:none" width="205.0" height="200.0" x="0.0" y="0.0"> </rect>
<path class="bond-0 atom-0 atom-1" d="M 122.6,44.3 L 108.8,89.2" style="fill:none;fill-rule:evenodd;stroke:#000000;stroke-width:2.0px;stroke-linecap:butt;stroke-linejoin:miter;stroke-opacity:1"/>
<path class="bond-1 atom-1 atom-2" d="M 108.8,89.2 L 95.0,134.1" style="fill:none;fill-rule:evenodd;stroke:#000000;stroke-width:2.0px;stroke-linecap:butt;stroke-linejoin:miter;stroke-opacity:1"/>
<path class="bond-2 atom-1 atom-3" d="M 108.8,89.2 L 63.9,75.4" style="fill:none;fill-rule:evenodd;stroke:#000000;stroke-width:2.0px;stroke-linecap:butt;stroke-linejoin:miter;stroke-opacity:1"/>
<path class="bond-3 atom-3 atom-4" d="M 63.9,75.4 L 50.5,87.9" style="fill:none;fill-rule:evenodd;stroke:#000000;stroke-width:2.0px;stroke-linecap:butt;stroke-linejoin:miter;stroke-opacity:1"/>
<path class="bond-3 atom-3 atom-4" d="M 50.5,87.9 L 37.2,100.3" style="fill:none;fill-rule:evenodd;stroke:#FF0000;stroke-width:2.0px;stroke-linecap:butt;stroke-linejoin:miter;stroke-opacity:1"/>
<path class="bond-4 atom-1 atom-5" d="M 108.8,89.2 L 153.7,103.0" style="fill:none;fill-rule:evenodd;stroke:#000000;stroke-width:2.0px;stroke-linecap:butt;stroke-linejoin:miter;stroke-opacity:1"/>
<path class="bond-5 atom-5 atom-6" d="M 154.7,107.0 L 168.8,93.8" style="fill:none;fill-rule:evenodd;stroke:#000000;stroke-width:2.0px;stroke-linecap:butt;stroke-linejoin:miter;stroke-opacity:1"/>
<path class="bond-5 atom-5 atom-6" d="M 168.8,93.8 L 182.9,80.7" style="fill:none;fill-rule:evenodd;stroke:#FF0000;stroke-width:2.0px;stroke-linecap:butt;stroke-linejoin:miter;stroke-opacity:1"/>
<path class="bond-5 atom-5 atom-6" d="M 149.9,101.8 L 164.0,88.7" style="fill:none;fill-rule:evenodd;stroke:#000000;stroke-width:2.0px;stroke-linecap:butt;stroke-linejoin:miter;stroke-opacity:1"/>
<path class="bond-5 atom-5 atom-6" d="M 164.0,88.7 L 178.1,75.5" style="fill:none;fill-rule:evenodd;stroke:#FF0000;stroke-width:2.0px;stroke-linecap:butt;stroke-linejoin:miter;stroke-opacity:1"/>
<path class="bond-6 atom-5 atom-7" d="M 153.7,103.0 L 158.0,121.7" style="fill:none;fill-rule:evenodd;stroke:#000000;stroke-width:2.0px;stroke-linecap:butt;stroke-linejoin:miter;stroke-opacity:1"/>
<path class="bond-6 atom-5 atom-7" d="M 158.0,121.7 L 162.4,140.5" style="fill:none;fill-rule:evenodd;stroke:#FF0000;stroke-width:2.0px;stroke-linecap:butt;stroke-linejoin:miter;stroke-opacity:1"/>
<path d="M 66.1,76.1 L 63.9,75.4 L 63.2,76.0" style="fill:none;stroke:#000000;stroke-width:2.0px;stroke-linecap:butt;stroke-linejoin:miter;stroke-opacity:1;"/>
<path d="M 151.5,102.3 L 153.7,103.0 L 154.0,103.9" style="fill:none;stroke:#000000;stroke-width:2.0px;stroke-linecap:butt;stroke-linejoin:miter;stroke-opacity:1;"/>
<path class="atom-4" d="M 10.2 100.8 L 12.1 100.8 L 12.1 106.5 L 18.9 106.5 L 18.9 100.8 L 20.7 100.8 L 20.7 114.1 L 18.9 114.1 L 18.9 108.0 L 12.1 108.0 L 12.1 114.1 L 10.2 114.1 L 10.2 100.8 " fill="#FF0000"/>
<path class="atom-4" d="M 23.4 107.5 Q 23.4 104.3, 25.0 102.5 Q 26.5 100.7, 29.5 100.7 Q 32.5 100.7, 34.0 102.5 Q 35.6 104.3, 35.6 107.5 Q 35.6 110.7, 34.0 112.5 Q 32.4 114.4, 29.5 114.4 Q 26.6 114.4, 25.0 112.5 Q 23.4 110.7, 23.4 107.5 M 29.5 112.9 Q 31.5 112.9, 32.6 111.5 Q 33.7 110.1, 33.7 107.5 Q 33.7 104.8, 32.6 103.5 Q 31.5 102.2, 29.5 102.2 Q 27.5 102.2, 26.4 103.5 Q 25.3 104.8, 25.3 107.5 Q 25.3 110.1, 26.4 111.5 Q 27.5 112.9, 29.5 112.9 " fill="#FF0000"/>
<path class="atom-6" d="M 182.0 71.0 Q 182.0 67.8, 183.6 66.0 Q 185.2 64.3, 188.1 64.3 Q 191.1 64.3, 192.7 66.0 Q 194.3 67.8, 194.3 71.0 Q 194.3 74.3, 192.7 76.1 Q 191.1 77.9, 188.1 77.9 Q 185.2 77.9, 183.6 76.1 Q 182.0 74.3, 182.0 71.0 M 188.1 76.4 Q 190.2 76.4, 191.3 75.1 Q 192.4 73.7, 192.4 71.0 Q 192.4 68.4, 191.3 67.1 Q 190.2 65.8, 188.1 65.8 Q 186.1 65.8, 185.0 67.1 Q 183.9 68.4, 183.9 71.0 Q 183.9 73.7, 185.0 75.1 Q 186.1 76.4, 188.1 76.4 " fill="#FF0000"/>
<path class="atom-7" d="M 158.2 148.8 Q 158.2 145.6, 159.7 143.8 Q 161.3 142.1, 164.3 142.1 Q 167.2 142.1, 168.8 143.8 Q 170.4 145.6, 170.4 148.8 Q 170.4 152.1, 168.8 153.9 Q 167.2 155.7, 164.3 155.7 Q 161.3 155.7, 159.7 153.9 Q 158.2 152.1, 158.2 148.8 M 164.3 154.2 Q 166.3 154.2, 167.4 152.9 Q 168.5 151.5, 168.5 148.8 Q 168.5 146.2, 167.4 144.9 Q 166.3 143.6, 164.3 143.6 Q 162.2 143.6, 161.1 144.9 Q 160.0 146.2, 160.0 148.8 Q 160.0 151.5, 161.1 152.9 Q 162.2 154.2, 164.3 154.2 " fill="#FF0000"/>
<path class="atom-7" d="M 172.4 142.2 L 174.2 142.2 L 174.2 147.9 L 181.0 147.9 L 181.0 142.2 L 182.9 142.2 L 182.9 155.5 L 181.0 155.5 L 181.0 149.4 L 174.2 149.4 L 174.2 155.5 L 172.4 155.5 L 172.4 142.2 " fill="#FF0000"/>
</g>
    <g transform="translate(492.0, 0) scale(1 1) "><line x1="15" y1="100" x2="25" y2="100" style="stroke:rgb(0,0,0);stroke-width:2"/>
  <line x1="20" y1="95" x2="20" y2="105" style="stroke:rgb(0,0,0);stroke-width:2"/>
</g>
    <g transform="translate(532.0, 0) scale(1 1) "><!-- END OF HEADER -->
<rect style="opacity:1.0;fill:#FFFFFF;stroke:none" width="276.0" height="200.0" x="0.0" y="0.0"> </rect>
<path class="bond-0 atom-0 atom-1" d="M 38.0,123.3 L 78.6,121.9" style="fill:none;fill-rule:evenodd;stroke:#000000;stroke-width:2.0px;stroke-linecap:butt;stroke-linejoin:miter;stroke-opacity:1"/>
<path class="bond-1 atom-1 atom-2" d="M 78.6,121.9 L 77.2,81.4" style="fill:none;fill-rule:evenodd;stroke:#000000;stroke-width:2.0px;stroke-linecap:butt;stroke-linejoin:miter;stroke-opacity:1"/>
<path class="bond-2 atom-2 atom-3" d="M 77.2,81.4 L 62.6,73.6" style="fill:none;fill-rule:evenodd;stroke:#000000;stroke-width:2.0px;stroke-linecap:butt;stroke-linejoin:miter;stroke-opacity:1"/>
<path class="bond-2 atom-2 atom-3" d="M 62.6,73.6 L 48.0,65.8" style="fill:none;fill-rule:evenodd;stroke:#FF0000;stroke-width:2.0px;stroke-linecap:butt;stroke-linejoin:miter;stroke-opacity:1"/>
<path class="bond-3 atom-1 atom-4" d="M 78.6,121.9 L 119.1,120.6" style="fill:none;fill-rule:evenodd;stroke:#000000;stroke-width:2.0px;stroke-linecap:butt;stroke-linejoin:miter;stroke-opacity:1"/>
<path class="bond-4 atom-4 atom-5" d="M 119.1,120.6 L 138.3,84.8" style="fill:none;fill-rule:evenodd;stroke:#000000;stroke-width:2.0px;stroke-linecap:butt;stroke-linejoin:miter;stroke-opacity:1"/>
<path class="bond-5 atom-5 atom-6" d="M 138.3,84.8 L 178.9,83.4" style="fill:none;fill-rule:evenodd;stroke:#000000;stroke-width:2.0px;stroke-linecap:butt;stroke-linejoin:miter;stroke-opacity:1"/>
<path class="bond-6 atom-6 atom-7" d="M 178.9,83.4 L 200.3,117.9" style="fill:none;fill-rule:evenodd;stroke:#000000;stroke-width:2.0px;stroke-linecap:butt;stroke-linejoin:miter;stroke-opacity:1"/>
<path class="bond-7 atom-7 atom-8" d="M 200.3,117.9 L 208.8,131.6" style="fill:none;fill-rule:evenodd;stroke:#000000;stroke-width:2.0px;stroke-linecap:butt;stroke-linejoin:miter;stroke-opacity:1"/>
<path class="bond-7 atom-7 atom-8" d="M 208.8,131.6 L 217.3,145.2" style="fill:none;fill-rule:evenodd;stroke:#FF0000;stroke-width:2.0px;stroke-linecap:butt;stroke-linejoin:miter;stroke-opacity:1"/>
<path class="bond-8 atom-7 atom-9" d="M 200.3,117.9 L 214.3,109.2" style="fill:none;fill-rule:evenodd;stroke:#000000;stroke-width:2.0px;stroke-linecap:butt;stroke-linejoin:miter;stroke-opacity:1"/>
<path class="bond-8 atom-7 atom-9" d="M 214.3,109.2 L 228.2,100.5" style="fill:none;fill-rule:evenodd;stroke:#FF0000;stroke-width:2.0px;stroke-linecap:butt;stroke-linejoin:miter;stroke-opacity:1"/>
<path class="bond-9 atom-7 atom-10" d="M 200.3,117.9 L 186.4,126.6" style="fill:none;fill-rule:evenodd;stroke:#000000;stroke-width:2.0px;stroke-linecap:butt;stroke-linejoin:miter;stroke-opacity:1"/>
<path class="bond-9 atom-7 atom-10" d="M 186.4,126.6 L 172.5,135.2" style="fill:none;fill-rule:evenodd;stroke:#FF0000;stroke-width:2.0px;stroke-linecap:butt;stroke-linejoin:miter;stroke-opacity:1"/>
<path class="bond-10 atom-5 atom-11" d="M 138.3,84.8 L 116.8,50.3" style="fill:none;fill-rule:evenodd;stroke:#000000;stroke-width:2.0px;stroke-linecap:butt;stroke-linejoin:miter;stroke-opacity:1"/>
<path class="bond-11 atom-11 atom-12" d="M 116.8,50.3 L 108.3,36.7" style="fill:none;fill-rule:evenodd;stroke:#000000;stroke-width:2.0px;stroke-linecap:butt;stroke-linejoin:miter;stroke-opacity:1"/>
<path class="bond-11 atom-11 atom-12" d="M 108.3,36.7 L 99.9,23.1" style="fill:none;fill-rule:evenodd;stroke:#FF0000;stroke-width:2.0px;stroke-linecap:butt;stroke-linejoin:miter;stroke-opacity:1"/>
<path class="bond-12 atom-11 atom-13" d="M 116.8,50.3 L 130.7,41.6" style="fill:none;fill-rule:evenodd;stroke:#000000;stroke-width:2.0px;stroke-linecap:butt;stroke-linejoin:miter;stroke-opacity:1"/>
<path class="bond-12 atom-11 atom-13" d="M 130.7,41.6 L 144.7,32.9" style="fill:none;fill-rule:evenodd;stroke:#FF0000;stroke-width:2.0px;stroke-linecap:butt;stroke-linejoin:miter;stroke-opacity:1"/>
<path class="bond-13 atom-11 atom-14" d="M 116.8,50.3 L 104.4,54.3" style="fill:none;fill-rule:evenodd;stroke:#000000;stroke-width:2.0px;stroke-linecap:butt;stroke-linejoin:miter;stroke-opacity:1"/>
<path class="bond-13 atom-11 atom-14" d="M 104.4,54.3 L 92.1,58.3" style="fill:none;fill-rule:evenodd;stroke:#FF0000;stroke-width:2.0px;stroke-linecap:butt;stroke-linejoin:miter;stroke-opacity:1"/>
<path class="bond-14 atom-1 atom-15" d="M 78.6,121.9 L 79.9,162.5" style="fill:none;fill-rule:evenodd;stroke:#000000;stroke-width:2.0px;stroke-linecap:butt;stroke-linejoin:miter;stroke-opacity:1"/>
<path class="bond-15 atom-15 atom-16" d="M 79.8,159.1 L 65.1,168.2" style="fill:none;fill-rule:evenodd;stroke:#000000;stroke-width:2.0px;stroke-linecap:butt;stroke-linejoin:miter;stroke-opacity:1"/>
<path class="bond-15 atom-15 atom-16" d="M 65.1,168.2 L 50.4,177.3" style="fill:none;fill-rule:evenodd;stroke:#FF0000;stroke-width:2.0px;stroke-linecap:butt;stroke-linejoin:miter;stroke-opacity:1"/>
<path class="bond-15 atom-15 atom-16" d="M 83.0,164.2 L 68.3,173.3" style="fill:none;fill-rule:evenodd;stroke:#000000;stroke-width:2.0px;stroke-linecap:butt;stroke-linejoin:miter;stroke-opacity:1"/>
<path class="bond-15 atom-15 atom-16" d="M 68.3,173.3 L 53.6,182.4" style="fill:none;fill-rule:evenodd;stroke:#FF0000;stroke-width:2.0px;stroke-linecap:butt;stroke-linejoin:miter;stroke-opacity:1"/>
<path class="bond-16 atom-15 atom-17" d="M 79.9,162.5 L 94.5,170.3" style="fill:none;fill-rule:evenodd;stroke:#000000;stroke-width:2.0px;stroke-linecap:butt;stroke-linejoin:miter;stroke-opacity:1"/>
<path class="bond-16 atom-15 atom-17" d="M 94.5,170.3 L 109.1,178.1" style="fill:none;fill-rule:evenodd;stroke:#FF0000;stroke-width:2.0px;stroke-linecap:butt;stroke-linejoin:miter;stroke-opacity:1"/>
<path d="M 77.3,83.4 L 77.2,81.4 L 76.5,81.0" style="fill:none;stroke:#000000;stroke-width:2.0px;stroke-linecap:butt;stroke-linejoin:miter;stroke-opacity:1;"/>
<path d="M 117.1,120.7 L 119.1,120.6 L 120.1,118.8" style="fill:none;stroke:#000000;stroke-width:2.0px;stroke-linecap:butt;stroke-linejoin:miter;stroke-opacity:1;"/>
<path d="M 176.8,83.5 L 178.9,83.4 L 179.9,85.1" style="fill:none;stroke:#000000;stroke-width:2.0px;stroke-linecap:butt;stroke-linejoin:miter;stroke-opacity:1;"/>
<path d="M 79.8,160.5 L 79.9,162.5 L 80.6,162.9" style="fill:none;stroke:#000000;stroke-width:2.0px;stroke-linecap:butt;stroke-linejoin:miter;stroke-opacity:1;"/>
<path class="atom-3" d="M 24.7 56.6 L 26.3 56.6 L 26.3 61.4 L 32.2 61.4 L 32.2 56.6 L 33.7 56.6 L 33.7 68.1 L 32.2 68.1 L 32.2 62.7 L 26.3 62.7 L 26.3 68.1 L 24.7 68.1 L 24.7 56.6 " fill="#FF0000"/>
<path class="atom-3" d="M 36.1 62.3 Q 36.1 59.5, 37.5 58.0 Q 38.8 56.4, 41.4 56.4 Q 43.9 56.4, 45.3 58.0 Q 46.7 59.5, 46.7 62.3 Q 46.7 65.1, 45.3 66.7 Q 43.9 68.2, 41.4 68.2 Q 38.8 68.2, 37.5 66.7 Q 36.1 65.1, 36.1 62.3 M 41.4 66.9 Q 43.1 66.9, 44.1 65.8 Q 45.0 64.6, 45.0 62.3 Q 45.0 60.0, 44.1 58.9 Q 43.1 57.7, 41.4 57.7 Q 39.6 57.7, 38.7 58.9 Q 37.7 60.0, 37.7 62.3 Q 37.7 64.6, 38.7 65.8 Q 39.6 66.9, 41.4 66.9 " fill="#FF0000"/>
<path class="atom-8" d="M 216.5 152.4 Q 216.5 149.6, 217.9 148.1 Q 219.2 146.5, 221.8 146.5 Q 224.3 146.5, 225.7 148.1 Q 227.1 149.6, 227.1 152.4 Q 227.1 155.2, 225.7 156.8 Q 224.3 158.4, 221.8 158.4 Q 219.3 158.4, 217.9 156.8 Q 216.5 155.2, 216.5 152.4 M 221.8 157.1 Q 223.5 157.1, 224.5 155.9 Q 225.4 154.7, 225.4 152.4 Q 225.4 150.1, 224.5 149.0 Q 223.5 147.8, 221.8 147.8 Q 220.0 147.8, 219.1 149.0 Q 218.1 150.1, 218.1 152.4 Q 218.1 154.7, 219.1 155.9 Q 220.0 157.1, 221.8 157.1 " fill="#FF0000"/>
<path class="atom-8" d="M 228.9 146.7 L 230.4 146.7 L 230.4 151.6 L 236.3 151.6 L 236.3 146.7 L 237.9 146.7 L 237.9 158.2 L 236.3 158.2 L 236.3 152.9 L 230.4 152.9 L 230.4 158.2 L 228.9 158.2 L 228.9 146.7 " fill="#FF0000"/>
<path class="atom-9" d="M 229.5 96.5 Q 229.5 93.7, 230.9 92.1 Q 232.2 90.6, 234.8 90.6 Q 237.3 90.6, 238.7 92.1 Q 240.1 93.7, 240.1 96.5 Q 240.1 99.2, 238.7 100.8 Q 237.3 102.4, 234.8 102.4 Q 232.3 102.4, 230.9 100.8 Q 229.5 99.3, 229.5 96.5 M 234.8 101.1 Q 236.6 101.1, 237.5 99.9 Q 238.5 98.8, 238.5 96.5 Q 238.5 94.2, 237.5 93.1 Q 236.6 91.9, 234.8 91.9 Q 233.0 91.9, 232.1 93.0 Q 231.1 94.2, 231.1 96.5 Q 231.1 98.8, 232.1 99.9 Q 233.0 101.1, 234.8 101.1 " fill="#FF0000"/>
<path class="atom-9" d="M 241.9 90.7 L 243.4 90.7 L 243.4 95.6 L 249.3 95.6 L 249.3 90.7 L 250.9 90.7 L 250.9 102.2 L 249.3 102.2 L 249.3 96.9 L 243.4 96.9 L 243.4 102.2 L 241.9 102.2 L 241.9 90.7 " fill="#FF0000"/>
<path class="atom-10" d="M 149.2 133.7 L 150.8 133.7 L 150.8 138.6 L 156.7 138.6 L 156.7 133.7 L 158.2 133.7 L 158.2 145.2 L 156.7 145.2 L 156.7 139.9 L 150.8 139.9 L 150.8 145.2 L 149.2 145.2 L 149.2 133.7 " fill="#FF0000"/>
<path class="atom-10" d="M 160.6 139.4 Q 160.6 136.6, 161.9 135.1 Q 163.3 133.5, 165.8 133.5 Q 168.4 133.5, 169.8 135.1 Q 171.1 136.6, 171.1 139.4 Q 171.1 142.2, 169.7 143.8 Q 168.4 145.3, 165.8 145.3 Q 163.3 145.3, 161.9 143.8 Q 160.6 142.2, 160.6 139.4 M 165.8 144.0 Q 167.6 144.0, 168.5 142.9 Q 169.5 141.7, 169.5 139.4 Q 169.5 137.1, 168.5 136.0 Q 167.6 134.8, 165.8 134.8 Q 164.1 134.8, 163.1 136.0 Q 162.2 137.1, 162.2 139.4 Q 162.2 141.7, 163.1 142.9 Q 164.1 144.0, 165.8 144.0 " fill="#FF0000"/>
<path class="atom-12" d="M 78.7 10.1 L 80.3 10.1 L 80.3 15.0 L 86.1 15.0 L 86.1 10.1 L 87.7 10.1 L 87.7 21.6 L 86.1 21.6 L 86.1 16.3 L 80.3 16.3 L 80.3 21.6 L 78.7 21.6 L 78.7 10.1 " fill="#FF0000"/>
<path class="atom-12" d="M 90.1 15.8 Q 90.1 13.1, 91.4 11.5 Q 92.8 10.0, 95.3 10.0 Q 97.9 10.0, 99.2 11.5 Q 100.6 13.1, 100.6 15.8 Q 100.6 18.6, 99.2 20.2 Q 97.8 21.8, 95.3 21.8 Q 92.8 21.8, 91.4 20.2 Q 90.1 18.7, 90.1 15.8 M 95.3 20.5 Q 97.1 20.5, 98.0 19.3 Q 99.0 18.2, 99.0 15.8 Q 99.0 13.6, 98.0 12.5 Q 97.1 11.3, 95.3 11.3 Q 93.6 11.3, 92.6 12.4 Q 91.7 13.6, 91.7 15.8 Q 91.7 18.2, 92.6 19.3 Q 93.6 20.5, 95.3 20.5 " fill="#FF0000"/>
<path class="atom-13" d="M 146.0 28.9 Q 146.0 26.1, 147.4 24.6 Q 148.7 23.0, 151.3 23.0 Q 153.8 23.0, 155.2 24.6 Q 156.6 26.1, 156.6 28.9 Q 156.6 31.6, 155.2 33.2 Q 153.8 34.8, 151.3 34.8 Q 148.7 34.8, 147.4 33.2 Q 146.0 31.7, 146.0 28.9 M 151.3 33.5 Q 153.0 33.5, 154.0 32.3 Q 154.9 31.2, 154.9 28.9 Q 154.9 26.6, 154.0 25.5 Q 153.0 24.3, 151.3 24.3 Q 149.5 24.3, 148.6 25.4 Q 147.6 26.6, 147.6 28.9 Q 147.6 31.2, 148.6 32.3 Q 149.5 33.5, 151.3 33.5 " fill="#FF0000"/>
<path class="atom-13" d="M 158.3 23.1 L 159.9 23.1 L 159.9 28.0 L 165.8 28.0 L 165.8 23.1 L 167.3 23.1 L 167.3 34.6 L 165.8 34.6 L 165.8 29.3 L 159.9 29.3 L 159.9 34.6 L 158.3 34.6 L 158.3 23.1 " fill="#FF0000"/>
<path class="atom-14" d="M 68.9 54.7 L 70.4 54.7 L 70.4 59.6 L 76.3 59.6 L 76.3 54.7 L 77.9 54.7 L 77.9 66.2 L 76.3 66.2 L 76.3 60.9 L 70.4 60.9 L 70.4 66.2 L 68.9 66.2 L 68.9 54.7 " fill="#FF0000"/>
<path class="atom-14" d="M 80.2 60.4 Q 80.2 57.7, 81.6 56.1 Q 82.9 54.6, 85.5 54.6 Q 88.0 54.6, 89.4 56.1 Q 90.8 57.7, 90.8 60.4 Q 90.8 63.2, 89.4 64.8 Q 88.0 66.4, 85.5 66.4 Q 83.0 66.4, 81.6 64.8 Q 80.2 63.2, 80.2 60.4 M 85.5 65.1 Q 87.3 65.1, 88.2 63.9 Q 89.2 62.7, 89.2 60.4 Q 89.2 58.2, 88.2 57.0 Q 87.3 55.9, 85.5 55.9 Q 83.7 55.9, 82.8 57.0 Q 81.8 58.2, 81.8 60.4 Q 81.8 62.8, 82.8 63.9 Q 83.7 65.1, 85.5 65.1 " fill="#FF0000"/>
<path class="atom-16" d="M 40.2 184.0 Q 40.2 181.3, 41.5 179.7 Q 42.9 178.2, 45.4 178.2 Q 48.0 178.2, 49.3 179.7 Q 50.7 181.3, 50.7 184.0 Q 50.7 186.8, 49.3 188.4 Q 48.0 190.0, 45.4 190.0 Q 42.9 190.0, 41.5 188.4 Q 40.2 186.8, 40.2 184.0 M 45.4 188.7 Q 47.2 188.7, 48.1 187.5 Q 49.1 186.3, 49.1 184.0 Q 49.1 181.8, 48.1 180.6 Q 47.2 179.5, 45.4 179.5 Q 43.7 179.5, 42.7 180.6 Q 41.8 181.8, 41.8 184.0 Q 41.8 186.4, 42.7 187.5 Q 43.7 188.7, 45.4 188.7 " fill="#FF0000"/>
<path class="atom-17" d="M 110.5 181.7 Q 110.5 178.9, 111.8 177.4 Q 113.2 175.8, 115.7 175.8 Q 118.3 175.8, 119.7 177.4 Q 121.0 178.9, 121.0 181.7 Q 121.0 184.5, 119.6 186.1 Q 118.3 187.7, 115.7 187.7 Q 113.2 187.7, 111.8 186.1 Q 110.5 184.5, 110.5 181.7 M 115.7 186.4 Q 117.5 186.4, 118.4 185.2 Q 119.4 184.0, 119.4 181.7 Q 119.4 179.4, 118.4 178.3 Q 117.5 177.1, 115.7 177.1 Q 114.0 177.1, 113.0 178.3 Q 112.1 179.4, 112.1 181.7 Q 112.1 184.0, 113.0 185.2 Q 114.0 186.4, 115.7 186.4 " fill="#FF0000"/>
<path class="atom-17" d="M 122.8 176.0 L 124.4 176.0 L 124.4 180.9 L 130.2 180.9 L 130.2 176.0 L 131.8 176.0 L 131.8 187.5 L 130.2 187.5 L 130.2 182.2 L 124.4 182.2 L 124.4 187.5 L 122.8 187.5 L 122.8 176.0 " fill="#FF0000"/>
</g>
  </g>
</svg>
