<?xml version='1.0' encoding='ASCII' standalone='yes'?>
<svg xmlns="http://www.w3.org/2000/svg" xmlns:xlink="http://www.w3.org/1999/xlink" version="1.1" width="838.0px" viewBox="0 0 838.0 200.0" height="200.0px">
  <g>
    <g transform="translate(0, 0) scale(1 1) "><!-- END OF HEADER -->
<rect style="opacity:1.0;fill:#FFFFFF;stroke:none" width="254.0" height="200.0" x="0.0" y="0.0"> </rect>
<path class="bond-0 atom-0 atom-1" d="M 202.1,102.3 L 200.0,87.8" style="fill:none;fill-rule:evenodd;stroke:#FF0000;stroke-width:2.0px;stroke-linecap:butt;stroke-linejoin:miter;stroke-opacity:1"/>
<path class="bond-0 atom-0 atom-1" d="M 200.0,87.8 L 198.0,73.3" style="fill:none;fill-rule:evenodd;stroke:#000000;stroke-width:2.0px;stroke-linecap:butt;stroke-linejoin:miter;stroke-opacity:1"/>
<path class="bond-0 atom-0 atom-1" d="M 207.1,101.6 L 205.0,87.1" style="fill:none;fill-rule:evenodd;stroke:#FF0000;stroke-width:2.0px;stroke-linecap:butt;stroke-linejoin:miter;stroke-opacity:1"/>
<path class="bond-0 atom-0 atom-1" d="M 205.0,87.1 L 203.0,72.6" style="fill:none;fill-rule:evenodd;stroke:#000000;stroke-width:2.0px;stroke-linecap:butt;stroke-linejoin:miter;stroke-opacity:1"/>
<path class="bond-1 atom-1 atom-2" d="M 200.7,74.4 L 211.2,66.1" style="fill:none;fill-rule:evenodd;stroke:#000000;stroke-width:2.0px;stroke-linecap:butt;stroke-linejoin:miter;stroke-opacity:1"/>
<path class="bond-1 atom-1 atom-2" d="M 211.2,66.1 L 221.8,57.9" style="fill:none;fill-rule:evenodd;stroke:#FF0000;stroke-width:2.0px;stroke-linecap:butt;stroke-linejoin:miter;stroke-opacity:1"/>
<path class="bond-2 atom-1 atom-3" d="M 200.7,74.4 L 169.3,61.8" style="fill:none;fill-rule:evenodd;stroke:#000000;stroke-width:2.0px;stroke-linecap:butt;stroke-linejoin:miter;stroke-opacity:1"/>
<path class="bond-3 atom-3 atom-4" d="M 169.3,61.8 L 142.6,82.7" style="fill:none;fill-rule:evenodd;stroke:#000000;stroke-width:2.0px;stroke-linecap:butt;stroke-linejoin:miter;stroke-opacity:1"/>
<path class="bond-3 atom-3 atom-4" d="M 170.1,67.6 L 148.1,84.9" style="fill:none;fill-rule:evenodd;stroke:#000000;stroke-width:2.0px;stroke-linecap:butt;stroke-linejoin:miter;stroke-opacity:1"/>
<path class="bond-4 atom-4 atom-5" d="M 142.6,82.7 L 111.2,70.0" style="fill:none;fill-rule:evenodd;stroke:#000000;stroke-width:2.0px;stroke-linecap:butt;stroke-linejoin:miter;stroke-opacity:1"/>
<path class="bond-5 atom-5 atom-6" d="M 111.2,70.0 L 84.6,90.9" style="fill:none;fill-rule:evenodd;stroke:#000000;stroke-width:2.0px;stroke-linecap:butt;stroke-linejoin:miter;stroke-opacity:1"/>
<path class="bond-6 atom-6 atom-7" d="M 81.9,89.8 L 83.9,104.3" style="fill:none;fill-rule:evenodd;stroke:#000000;stroke-width:2.0px;stroke-linecap:butt;stroke-linejoin:miter;stroke-opacity:1"/>
<path class="bond-6 atom-6 atom-7" d="M 83.9,104.3 L 86.0,118.8" style="fill:none;fill-rule:evenodd;stroke:#FF0000;stroke-width:2.0px;stroke-linecap:butt;stroke-linejoin:miter;stroke-opacity:1"/>
<path class="bond-6 atom-6 atom-7" d="M 86.9,89.1 L 89.0,103.6" style="fill:none;fill-rule:evenodd;stroke:#000000;stroke-width:2.0px;stroke-linecap:butt;stroke-linejoin:miter;stroke-opacity:1"/>
<path class="bond-6 atom-6 atom-7" d="M 89.0,103.6 L 91.0,118.1" style="fill:none;fill-rule:evenodd;stroke:#FF0000;stroke-width:2.0px;stroke-linecap:butt;stroke-linejoin:miter;stroke-opacity:1"/>
<path class="bond-7 atom-6 atom-8" d="M 84.6,90.9 L 53.2,78.3" style="fill:none;fill-rule:evenodd;stroke:#000000;stroke-width:2.0px;stroke-linecap:butt;stroke-linejoin:miter;stroke-opacity:1"/>
<path class="bond-8 atom-8 atom-9" d="M 55.9,79.4 L 53.9,65.0" style="fill:none;fill-rule:evenodd;stroke:#000000;stroke-width:2.0px;stroke-linecap:butt;stroke-linejoin:miter;stroke-opacity:1"/>
<path class="bond-8 atom-8 atom-9" d="M 53.9,65.0 L 51.8,50.5" style="fill:none;fill-rule:evenodd;stroke:#FF0000;stroke-width:2.0px;stroke-linecap:butt;stroke-linejoin:miter;stroke-opacity:1"/>
<path class="bond-8 atom-8 atom-9" d="M 50.9,80.1 L 48.8,65.7" style="fill:none;fill-rule:evenodd;stroke:#000000;stroke-width:2.0px;stroke-linecap:butt;stroke-linejoin:miter;stroke-opacity:1"/>
<path class="bond-8 atom-8 atom-9" d="M 48.8,65.7 L 46.8,51.3" style="fill:none;fill-rule:evenodd;stroke:#FF0000;stroke-width:2.0px;stroke-linecap:butt;stroke-linejoin:miter;stroke-opacity:1"/>
<path class="bond-9 atom-8 atom-10" d="M 53.2,78.3 L 42.6,86.6" style="fill:none;fill-rule:evenodd;stroke:#000000;stroke-width:2.0px;stroke-linecap:butt;stroke-linejoin:miter;stroke-opacity:1"/>
<path class="bond-9 atom-8 atom-10" d="M 42.6,86.6 L 32.1,94.9" style="fill:none;fill-rule:evenodd;stroke:#FF0000;stroke-width:2.0px;stroke-linecap:butt;stroke-linejoin:miter;stroke-opacity:1"/>
<path class="bond-10 atom-4 atom-11" d="M 142.6,82.7 L 147.4,116.2" style="fill:none;fill-rule:evenodd;stroke:#000000;stroke-width:2.0px;stroke-linecap:butt;stroke-linejoin:miter;stroke-opacity:1"/>
<path class="bond-11 atom-11 atom-12" d="M 145.1,118.0 L 158.7,123.5" style="fill:none;fill-rule:evenodd;stroke:#000000;stroke-width:2.0px;stroke-linecap:butt;stroke-linejoin:miter;stroke-opacity:1"/>
<path class="bond-11 atom-11 atom-12" d="M 158.7,123.5 L 172.3,128.9" style="fill:none;fill-rule:evenodd;stroke:#FF0000;stroke-width:2.0px;stroke-linecap:butt;stroke-linejoin:miter;stroke-opacity:1"/>
<path class="bond-11 atom-11 atom-12" d="M 147.0,113.3 L 160.6,118.8" style="fill:none;fill-rule:evenodd;stroke:#000000;stroke-width:2.0px;stroke-linecap:butt;stroke-linejoin:miter;stroke-opacity:1"/>
<path class="bond-11 atom-11 atom-12" d="M 160.6,118.8 L 174.2,124.2" style="fill:none;fill-rule:evenodd;stroke:#FF0000;stroke-width:2.0px;stroke-linecap:butt;stroke-linejoin:miter;stroke-opacity:1"/>
<path class="bond-12 atom-11 atom-13" d="M 147.4,116.2 L 136.8,124.5" style="fill:none;fill-rule:evenodd;stroke:#000000;stroke-width:2.0px;stroke-linecap:butt;stroke-linejoin:miter;stroke-opacity:1"/>
<path class="bond-12 atom-11 atom-13" d="M 136.8,124.5 L 126.3,132.7" style="fill:none;fill-rule:evenodd;stroke:#FF0000;stroke-width:2.0px;stroke-linecap:butt;stroke-linejoin:miter;stroke-opacity:1"/>
<path d="M 201.2,74.0 L 200.7,74.4 L 199.1,73.8" style="fill:none;stroke:#000000;stroke-width:2.0px;stroke-linecap:butt;stroke-linejoin:miter;stroke-opacity:1;"/>
<path d="M 170.8,62.4 L 169.3,61.8 L 167.9,62.8" style="fill:none;stroke:#000000;stroke-width:2.0px;stroke-linecap:butt;stroke-linejoin:miter;stroke-opacity:1;"/>
<path d="M 112.8,70.7 L 111.2,70.0 L 109.9,71.1" style="fill:none;stroke:#000000;stroke-width:2.0px;stroke-linecap:butt;stroke-linejoin:miter;stroke-opacity:1;"/>
<path d="M 85.9,89.9 L 84.6,90.9 L 83.0,90.3" style="fill:none;stroke:#000000;stroke-width:2.0px;stroke-linecap:butt;stroke-linejoin:miter;stroke-opacity:1;"/>
<path d="M 54.8,78.9 L 53.2,78.3 L 52.7,78.7" style="fill:none;stroke:#000000;stroke-width:2.0px;stroke-linecap:butt;stroke-linejoin:miter;stroke-opacity:1;"/>
<path d="M 147.2,114.5 L 147.4,116.2 L 146.9,116.6" style="fill:none;stroke:#000000;stroke-width:2.0px;stroke-linecap:butt;stroke-linejoin:miter;stroke-opacity:1;"/>
<path class="atom-0" d="M 201.0 108.0 Q 201.0 105.7, 202.2 104.4 Q 203.3 103.1, 205.4 103.1 Q 207.6 103.1, 208.7 104.4 Q 209.8 105.7, 209.8 108.0 Q 209.8 110.3, 208.7 111.6 Q 207.5 112.9, 205.4 112.9 Q 203.3 112.9, 202.2 111.6 Q 201.0 110.3, 201.0 108.0 M 205.4 111.8 Q 206.9 111.8, 207.7 110.9 Q 208.5 109.9, 208.5 108.0 Q 208.5 106.1, 207.7 105.1 Q 206.9 104.2, 205.4 104.2 Q 204.0 104.2, 203.2 105.1 Q 202.4 106.1, 202.4 108.0 Q 202.4 109.9, 203.2 110.9 Q 204.0 111.8, 205.4 111.8 " fill="#FF0000"/>
<path class="atom-2" d="M 222.9 53.6 Q 222.9 51.3, 224.0 50.0 Q 225.2 48.7, 227.3 48.7 Q 229.4 48.7, 230.6 50.0 Q 231.7 51.3, 231.7 53.6 Q 231.7 55.9, 230.6 57.2 Q 229.4 58.5, 227.3 58.5 Q 225.2 58.5, 224.0 57.2 Q 222.9 55.9, 222.9 53.6 M 227.3 57.5 Q 228.8 57.5, 229.6 56.5 Q 230.4 55.5, 230.4 53.6 Q 230.4 51.7, 229.6 50.7 Q 228.8 49.8, 227.3 49.8 Q 225.8 49.8, 225.0 50.7 Q 224.3 51.7, 224.3 53.6 Q 224.3 55.5, 225.0 56.5 Q 225.8 57.5, 227.3 57.5 " fill="#FF0000"/>
<path class="atom-2" d="M 233.2 48.8 L 234.5 48.8 L 234.5 52.9 L 239.4 52.9 L 239.4 48.8 L 240.7 48.8 L 240.7 58.4 L 239.4 58.4 L 239.4 54.0 L 234.5 54.0 L 234.5 58.4 L 233.2 58.4 L 233.2 48.8 " fill="#FF0000"/>
<path class="atom-7" d="M 85.0 124.5 Q 85.0 122.2, 86.1 120.9 Q 87.2 119.6, 89.4 119.6 Q 91.5 119.6, 92.6 120.9 Q 93.8 122.2, 93.8 124.5 Q 93.8 126.8, 92.6 128.1 Q 91.5 129.4, 89.4 129.4 Q 87.3 129.4, 86.1 128.1 Q 85.0 126.8, 85.0 124.5 M 89.4 128.3 Q 90.8 128.3, 91.6 127.4 Q 92.4 126.4, 92.4 124.5 Q 92.4 122.6, 91.6 121.6 Q 90.8 120.7, 89.4 120.7 Q 87.9 120.7, 87.1 121.6 Q 86.3 122.6, 86.3 124.5 Q 86.3 126.4, 87.1 127.4 Q 87.9 128.3, 89.4 128.3 " fill="#FF0000"/>
<path class="atom-9" d="M 44.0 44.8 Q 44.0 42.5, 45.2 41.2 Q 46.3 39.9, 48.4 39.9 Q 50.6 39.9, 51.7 41.2 Q 52.8 42.5, 52.8 44.8 Q 52.8 47.1, 51.7 48.5 Q 50.5 49.8, 48.4 49.8 Q 46.3 49.8, 45.2 48.5 Q 44.0 47.2, 44.0 44.8 M 48.4 48.7 Q 49.9 48.7, 50.7 47.7 Q 51.5 46.7, 51.5 44.8 Q 51.5 42.9, 50.7 42.0 Q 49.9 41.0, 48.4 41.0 Q 47.0 41.0, 46.2 42.0 Q 45.4 42.9, 45.4 44.8 Q 45.4 46.8, 46.2 47.7 Q 47.0 48.7, 48.4 48.7 " fill="#FF0000"/>
<path class="atom-10" d="M 12.7 94.4 L 14.0 94.4 L 14.0 98.5 L 18.9 98.5 L 18.9 94.4 L 20.2 94.4 L 20.2 104.0 L 18.9 104.0 L 18.9 99.6 L 14.0 99.6 L 14.0 104.0 L 12.7 104.0 L 12.7 94.4 " fill="#FF0000"/>
<path class="atom-10" d="M 22.2 99.2 Q 22.2 96.9, 23.3 95.6 Q 24.4 94.3, 26.6 94.3 Q 28.7 94.3, 29.8 95.6 Q 31.0 96.9, 31.0 99.2 Q 31.0 101.5, 29.8 102.9 Q 28.7 104.2, 26.6 104.2 Q 24.5 104.2, 23.3 102.9 Q 22.2 101.5, 22.2 99.2 M 26.6 103.1 Q 28.0 103.1, 28.8 102.1 Q 29.6 101.1, 29.6 99.2 Q 29.6 97.3, 28.8 96.4 Q 28.0 95.4, 26.6 95.4 Q 25.1 95.4, 24.3 96.4 Q 23.5 97.3, 23.5 99.2 Q 23.5 101.1, 24.3 102.1 Q 25.1 103.1, 26.6 103.1 " fill="#FF0000"/>
<path class="atom-12" d="M 174.4 128.8 Q 174.4 126.5, 175.5 125.3 Q 176.7 124.0, 178.8 124.0 Q 180.9 124.0, 182.1 125.3 Q 183.2 126.5, 183.2 128.8 Q 183.2 131.2, 182.0 132.5 Q 180.9 133.8, 178.8 133.8 Q 176.7 133.8, 175.5 132.5 Q 174.4 131.2, 174.4 128.8 M 178.8 132.7 Q 180.3 132.7, 181.0 131.7 Q 181.8 130.8, 181.8 128.8 Q 181.8 127.0, 181.0 126.0 Q 180.3 125.0, 178.8 125.0 Q 177.3 125.0, 176.5 126.0 Q 175.8 126.9, 175.8 128.8 Q 175.8 130.8, 176.5 131.7 Q 177.3 132.7, 178.8 132.7 " fill="#FF0000"/>
<path class="atom-13" d="M 106.9 132.3 L 108.2 132.3 L 108.2 136.4 L 113.1 136.4 L 113.1 132.3 L 114.4 132.3 L 114.4 141.9 L 113.1 141.9 L 113.1 137.5 L 108.2 137.5 L 108.2 141.9 L 106.9 141.9 L 106.9 132.3 " fill="#FF0000"/>
<path class="atom-13" d="M 116.4 137.1 Q 116.4 134.8, 117.5 133.5 Q 118.6 132.2, 120.8 132.2 Q 122.9 132.2, 124.0 133.5 Q 125.2 134.8, 125.2 137.1 Q 125.2 139.4, 124.0 140.7 Q 122.9 142.1, 120.8 142.1 Q 118.7 142.1, 117.5 140.7 Q 116.4 139.4, 116.4 137.1 M 120.8 141.0 Q 122.2 141.0, 123.0 140.0 Q 123.8 139.0, 123.8 137.1 Q 123.8 135.2, 123.0 134.3 Q 122.2 133.3, 120.8 133.3 Q 119.3 133.3, 118.5 134.2 Q 117.7 135.2, 117.7 137.1 Q 117.7 139.0, 118.5 140.0 Q 119.3 141.0, 120.8 141.0 " fill="#FF0000"/>
<path class="legend" d="M 118.2 181.9 Q 118.2 179.6, 118.9 177.7 Q 119.5 175.8, 120.8 173.8 L 121.7 174.4 Q 120.7 176.3, 120.1 178.0 Q 119.6 179.7, 119.6 181.9 Q 119.6 184.0, 120.1 185.8 Q 120.7 187.5, 121.7 189.4 L 120.8 190.0 Q 119.5 188.0, 118.9 186.1 Q 118.2 184.2, 118.2 181.9 " fill="#000000"/>
<path class="legend" d="M 122.6 177.3 Q 123.1 176.2, 124.0 175.6 Q 125.0 175.0, 126.4 175.0 Q 128.1 175.0, 129.1 175.9 Q 130.0 176.8, 130.0 178.5 Q 130.0 180.2, 128.8 181.7 Q 127.6 183.3, 125.0 185.2 L 130.2 185.2 L 130.2 186.4 L 122.6 186.4 L 122.6 185.4 Q 124.7 183.9, 126.0 182.8 Q 127.2 181.6, 127.8 180.6 Q 128.4 179.6, 128.4 178.6 Q 128.4 177.5, 127.9 176.9 Q 127.4 176.3, 126.4 176.3 Q 125.5 176.3, 124.9 176.6 Q 124.3 177.0, 123.9 177.8 L 122.6 177.3 " fill="#000000"/>
<path class="legend" d="M 135.2 181.9 Q 135.2 184.2, 134.5 186.1 Q 133.9 188.0, 132.6 190.0 L 131.7 189.4 Q 132.7 187.5, 133.2 185.8 Q 133.8 184.0, 133.8 181.9 Q 133.8 179.7, 133.2 178.0 Q 132.7 176.3, 131.7 174.4 L 132.6 173.8 Q 133.9 175.8, 134.5 177.7 Q 135.2 179.6, 135.2 181.9 " fill="#000000"/>
</g>
    <g transform="translate(254.00000000000003, 0) scale(1 1) "><line x1="5" y1="100" x2="35" y2="100" style="stroke:rgb(0,0,0);stroke-width:2"/>
  <line x1="34" y1="100" x2="29" y2="95" style="stroke:rgb(0,0,0);stroke-width:2"/>
  <line x1="34" y1="100" x2="29" y2="105" style="stroke:rgb(0,0,0);stroke-width:2"/>
</g>
    <g transform="translate(294.0, 0) scale(1 1) "><!-- END OF HEADER -->
<rect style="opacity:1.0;fill:#FFFFFF;stroke:none" width="233.0" height="200.0" x="0.0" y="0.0"> </rect>
<path class="bond-0 atom-0 atom-1" d="M 187.6,48.8 L 161.1,82.2" style="fill:none;fill-rule:evenodd;stroke:#000000;stroke-width:2.0px;stroke-linecap:butt;stroke-linejoin:miter;stroke-opacity:1"/>
<path class="bond-0 atom-0 atom-1" d="M 182.8,45.0 L 156.3,78.4" style="fill:none;fill-rule:evenodd;stroke:#000000;stroke-width:2.0px;stroke-linecap:butt;stroke-linejoin:miter;stroke-opacity:1"/>
<path class="bond-1 atom-1 atom-2" d="M 159.8,79.0 L 119.4,73.1" style="fill:none;fill-rule:evenodd;stroke:#000000;stroke-width:2.0px;stroke-linecap:butt;stroke-linejoin:miter;stroke-opacity:1"/>
<path class="bond-2 atom-2 atom-3" d="M 119.4,73.1 L 94.1,105.1" style="fill:none;fill-rule:evenodd;stroke:#000000;stroke-width:2.0px;stroke-linecap:butt;stroke-linejoin:miter;stroke-opacity:1"/>
<path class="bond-3 atom-3 atom-4" d="M 90.6,104.6 L 97.1,120.8" style="fill:none;fill-rule:evenodd;stroke:#000000;stroke-width:2.0px;stroke-linecap:butt;stroke-linejoin:miter;stroke-opacity:1"/>
<path class="bond-3 atom-3 atom-4" d="M 97.1,120.8 L 103.5,137.0" style="fill:none;fill-rule:evenodd;stroke:#FF0000;stroke-width:2.0px;stroke-linecap:butt;stroke-linejoin:miter;stroke-opacity:1"/>
<path class="bond-3 atom-3 atom-4" d="M 96.3,102.3 L 102.7,118.5" style="fill:none;fill-rule:evenodd;stroke:#000000;stroke-width:2.0px;stroke-linecap:butt;stroke-linejoin:miter;stroke-opacity:1"/>
<path class="bond-3 atom-3 atom-4" d="M 102.7,118.5 L 109.2,134.7" style="fill:none;fill-rule:evenodd;stroke:#FF0000;stroke-width:2.0px;stroke-linecap:butt;stroke-linejoin:miter;stroke-opacity:1"/>
<path class="bond-4 atom-3 atom-5" d="M 94.1,105.1 L 53.7,99.2" style="fill:none;fill-rule:evenodd;stroke:#000000;stroke-width:2.0px;stroke-linecap:butt;stroke-linejoin:miter;stroke-opacity:1"/>
<path class="bond-5 atom-5 atom-6" d="M 57.2,99.7 L 50.8,83.6" style="fill:none;fill-rule:evenodd;stroke:#000000;stroke-width:2.0px;stroke-linecap:butt;stroke-linejoin:miter;stroke-opacity:1"/>
<path class="bond-5 atom-5 atom-6" d="M 50.8,83.6 L 44.4,67.5" style="fill:none;fill-rule:evenodd;stroke:#FF0000;stroke-width:2.0px;stroke-linecap:butt;stroke-linejoin:miter;stroke-opacity:1"/>
<path class="bond-5 atom-5 atom-6" d="M 51.5,102.0 L 45.1,85.9" style="fill:none;fill-rule:evenodd;stroke:#000000;stroke-width:2.0px;stroke-linecap:butt;stroke-linejoin:miter;stroke-opacity:1"/>
<path class="bond-5 atom-5 atom-6" d="M 45.1,85.9 L 38.7,69.8" style="fill:none;fill-rule:evenodd;stroke:#FF0000;stroke-width:2.0px;stroke-linecap:butt;stroke-linejoin:miter;stroke-opacity:1"/>
<path class="bond-6 atom-5 atom-7" d="M 53.7,99.2 L 43.9,111.6" style="fill:none;fill-rule:evenodd;stroke:#000000;stroke-width:2.0px;stroke-linecap:butt;stroke-linejoin:miter;stroke-opacity:1"/>
<path class="bond-6 atom-5 atom-7" d="M 43.9,111.6 L 34.1,124.0" style="fill:none;fill-rule:evenodd;stroke:#FF0000;stroke-width:2.0px;stroke-linecap:butt;stroke-linejoin:miter;stroke-opacity:1"/>
<path class="bond-7 atom-1 atom-8" d="M 159.8,79.0 L 174.9,116.9" style="fill:none;fill-rule:evenodd;stroke:#000000;stroke-width:2.0px;stroke-linecap:butt;stroke-linejoin:miter;stroke-opacity:1"/>
<path class="bond-8 atom-8 atom-9" d="M 172.7,119.7 L 190.5,122.3" style="fill:none;fill-rule:evenodd;stroke:#000000;stroke-width:2.0px;stroke-linecap:butt;stroke-linejoin:miter;stroke-opacity:1"/>
<path class="bond-8 atom-8 atom-9" d="M 190.5,122.3 L 208.2,124.9" style="fill:none;fill-rule:evenodd;stroke:#FF0000;stroke-width:2.0px;stroke-linecap:butt;stroke-linejoin:miter;stroke-opacity:1"/>
<path class="bond-8 atom-8 atom-9" d="M 173.6,113.6 L 191.4,116.2" style="fill:none;fill-rule:evenodd;stroke:#000000;stroke-width:2.0px;stroke-linecap:butt;stroke-linejoin:miter;stroke-opacity:1"/>
<path class="bond-8 atom-8 atom-9" d="M 191.4,116.2 L 209.1,118.8" style="fill:none;fill-rule:evenodd;stroke:#FF0000;stroke-width:2.0px;stroke-linecap:butt;stroke-linejoin:miter;stroke-opacity:1"/>
<path class="bond-9 atom-8 atom-10" d="M 174.9,116.9 L 165.1,129.3" style="fill:none;fill-rule:evenodd;stroke:#000000;stroke-width:2.0px;stroke-linecap:butt;stroke-linejoin:miter;stroke-opacity:1"/>
<path class="bond-9 atom-8 atom-10" d="M 165.1,129.3 L 155.3,141.8" style="fill:none;fill-rule:evenodd;stroke:#FF0000;stroke-width:2.0px;stroke-linecap:butt;stroke-linejoin:miter;stroke-opacity:1"/>
<path d="M 157.8,78.7 L 159.8,79.0 L 160.6,80.9" style="fill:none;stroke:#000000;stroke-width:2.0px;stroke-linecap:butt;stroke-linejoin:miter;stroke-opacity:1;"/>
<path d="M 121.4,73.4 L 119.4,73.1 L 118.2,74.7" style="fill:none;stroke:#000000;stroke-width:2.0px;stroke-linecap:butt;stroke-linejoin:miter;stroke-opacity:1;"/>
<path d="M 95.4,103.5 L 94.1,105.1 L 92.1,104.8" style="fill:none;stroke:#000000;stroke-width:2.0px;stroke-linecap:butt;stroke-linejoin:miter;stroke-opacity:1;"/>
<path d="M 55.7,99.5 L 53.7,99.2 L 53.2,99.8" style="fill:none;stroke:#000000;stroke-width:2.0px;stroke-linecap:butt;stroke-linejoin:miter;stroke-opacity:1;"/>
<path d="M 174.2,115.0 L 174.9,116.9 L 174.4,117.5" style="fill:none;stroke:#000000;stroke-width:2.0px;stroke-linecap:butt;stroke-linejoin:miter;stroke-opacity:1;"/>
<path class="atom-4" d="M 103.9 143.1 Q 103.9 140.3, 105.3 138.8 Q 106.6 137.2, 109.2 137.2 Q 111.8 137.2, 113.1 138.8 Q 114.5 140.3, 114.5 143.1 Q 114.5 145.9, 113.1 147.5 Q 111.7 149.1, 109.2 149.1 Q 106.7 149.1, 105.3 147.5 Q 103.9 145.9, 103.9 143.1 M 109.2 147.8 Q 111.0 147.8, 111.9 146.6 Q 112.9 145.4, 112.9 143.1 Q 112.9 140.8, 111.9 139.7 Q 111.0 138.5, 109.2 138.5 Q 107.4 138.5, 106.5 139.7 Q 105.5 140.8, 105.5 143.1 Q 105.5 145.4, 106.5 146.6 Q 107.4 147.8, 109.2 147.8 " fill="#FF0000"/>
<path class="atom-6" d="M 33.3 61.3 Q 33.3 58.5, 34.7 56.9 Q 36.0 55.4, 38.6 55.4 Q 41.2 55.4, 42.5 56.9 Q 43.9 58.5, 43.9 61.3 Q 43.9 64.1, 42.5 65.7 Q 41.1 67.3, 38.6 67.3 Q 36.1 67.3, 34.7 65.7 Q 33.3 64.1, 33.3 61.3 M 38.6 66.0 Q 40.4 66.0, 41.3 64.8 Q 42.3 63.6, 42.3 61.3 Q 42.3 59.0, 41.3 57.9 Q 40.4 56.7, 38.6 56.7 Q 36.8 56.7, 35.9 57.8 Q 34.9 59.0, 34.9 61.3 Q 34.9 63.6, 35.9 64.8 Q 36.8 66.0, 38.6 66.0 " fill="#FF0000"/>
<path class="atom-7" d="M 11.6 125.5 L 13.2 125.5 L 13.2 130.4 L 19.1 130.4 L 19.1 125.5 L 20.7 125.5 L 20.7 137.1 L 19.1 137.1 L 19.1 131.7 L 13.2 131.7 L 13.2 137.1 L 11.6 137.1 L 11.6 125.5 " fill="#FF0000"/>
<path class="atom-7" d="M 23.1 131.3 Q 23.1 128.5, 24.4 126.9 Q 25.8 125.4, 28.4 125.4 Q 30.9 125.4, 32.3 126.9 Q 33.7 128.5, 33.7 131.3 Q 33.7 134.1, 32.3 135.7 Q 30.9 137.3, 28.4 137.3 Q 25.8 137.3, 24.4 135.7 Q 23.1 134.1, 23.1 131.3 M 28.4 136.0 Q 30.1 136.0, 31.1 134.8 Q 32.1 133.6, 32.1 131.3 Q 32.1 129.0, 31.1 127.9 Q 30.1 126.7, 28.4 126.7 Q 26.6 126.7, 25.7 127.8 Q 24.7 129.0, 24.7 131.3 Q 24.7 133.6, 25.7 134.8 Q 26.6 136.0, 28.4 136.0 " fill="#FF0000"/>
<path class="atom-9" d="M 210.0 122.8 Q 210.0 120.1, 211.4 118.5 Q 212.8 117.0, 215.3 117.0 Q 217.9 117.0, 219.3 118.5 Q 220.7 120.1, 220.7 122.8 Q 220.7 125.7, 219.3 127.3 Q 217.9 128.8, 215.3 128.8 Q 212.8 128.8, 211.4 127.3 Q 210.0 125.7, 210.0 122.8 M 215.3 127.5 Q 217.1 127.5, 218.1 126.4 Q 219.0 125.2, 219.0 122.8 Q 219.0 120.6, 218.1 119.4 Q 217.1 118.3, 215.3 118.3 Q 213.6 118.3, 212.6 119.4 Q 211.7 120.6, 211.7 122.8 Q 211.7 125.2, 212.6 126.4 Q 213.6 127.5, 215.3 127.5 " fill="#FF0000"/>
<path class="atom-10" d="M 132.9 143.2 L 134.4 143.2 L 134.4 148.2 L 140.4 148.2 L 140.4 143.2 L 141.9 143.2 L 141.9 154.8 L 140.4 154.8 L 140.4 149.5 L 134.4 149.5 L 134.4 154.8 L 132.9 154.8 L 132.9 143.2 " fill="#FF0000"/>
<path class="atom-10" d="M 144.3 149.0 Q 144.3 146.2, 145.7 144.7 Q 147.0 143.1, 149.6 143.1 Q 152.2 143.1, 153.5 144.7 Q 154.9 146.2, 154.9 149.0 Q 154.9 151.8, 153.5 153.4 Q 152.1 155.0, 149.6 155.0 Q 147.1 155.0, 145.7 153.4 Q 144.3 151.8, 144.3 149.0 M 149.6 153.7 Q 151.4 153.7, 152.3 152.5 Q 153.3 151.3, 153.3 149.0 Q 153.3 146.7, 152.3 145.6 Q 151.4 144.4, 149.6 144.4 Q 147.8 144.4, 146.9 145.6 Q 145.9 146.7, 145.9 149.0 Q 145.9 151.3, 146.9 152.5 Q 147.8 153.7, 149.6 153.7 " fill="#FF0000"/>
</g>
    <g transform="translate(527.0, 0) scale(1 1) "><line x1="15" y1="100" x2="25" y2="100" style="stroke:rgb(0,0,0);stroke-width:2"/>
  <line x1="20" y1="95" x2="20" y2="105" style="stroke:rgb(0,0,0);stroke-width:2"/>
</g>
    <g transform="translate(567.0, 0) scale(1 1) "><!-- END OF HEADER -->
<rect style="opacity:1.0;fill:#FFFFFF;stroke:none" width="271.0" height="200.0" x="0.0" y="0.0"> </rect>
<path class="bond-0 atom-0 atom-1" d="M 212.4,56.8 L 213.2,72.0" style="fill:none;fill-rule:evenodd;stroke:#FF0000;stroke-width:2.0px;stroke-linecap:butt;stroke-linejoin:miter;stroke-opacity:1"/>
<path class="bond-0 atom-0 atom-1" d="M 213.2,72.0 L 213.9,87.2" style="fill:none;fill-rule:evenodd;stroke:#000000;stroke-width:2.0px;stroke-linecap:butt;stroke-linejoin:miter;stroke-opacity:1"/>
<path class="bond-0 atom-0 atom-1" d="M 207.1,57.1 L 207.9,72.3" style="fill:none;fill-rule:evenodd;stroke:#FF0000;stroke-width:2.0px;stroke-linecap:butt;stroke-linejoin:miter;stroke-opacity:1"/>
<path class="bond-0 atom-0 atom-1" d="M 207.9,72.3 L 208.6,87.5" style="fill:none;fill-rule:evenodd;stroke:#000000;stroke-width:2.0px;stroke-linecap:butt;stroke-linejoin:miter;stroke-opacity:1"/>
<path class="bond-1 atom-1 atom-2" d="M 211.2,85.8 L 224.0,92.4" style="fill:none;fill-rule:evenodd;stroke:#000000;stroke-width:2.0px;stroke-linecap:butt;stroke-linejoin:miter;stroke-opacity:1"/>
<path class="bond-1 atom-1 atom-2" d="M 224.0,92.4 L 236.8,99.0" style="fill:none;fill-rule:evenodd;stroke:#FF0000;stroke-width:2.0px;stroke-linecap:butt;stroke-linejoin:miter;stroke-opacity:1"/>
<path class="bond-2 atom-1 atom-3" d="M 211.2,85.8 L 181.5,105.0" style="fill:none;fill-rule:evenodd;stroke:#000000;stroke-width:2.0px;stroke-linecap:butt;stroke-linejoin:miter;stroke-opacity:1"/>
<path class="bond-3 atom-3 atom-4" d="M 178.8,103.6 L 179.6,118.8" style="fill:none;fill-rule:evenodd;stroke:#000000;stroke-width:2.0px;stroke-linecap:butt;stroke-linejoin:miter;stroke-opacity:1"/>
<path class="bond-3 atom-3 atom-4" d="M 179.6,118.8 L 180.3,134.1" style="fill:none;fill-rule:evenodd;stroke:#FF0000;stroke-width:2.0px;stroke-linecap:butt;stroke-linejoin:miter;stroke-opacity:1"/>
<path class="bond-3 atom-3 atom-4" d="M 184.1,103.3 L 184.8,118.6" style="fill:none;fill-rule:evenodd;stroke:#000000;stroke-width:2.0px;stroke-linecap:butt;stroke-linejoin:miter;stroke-opacity:1"/>
<path class="bond-3 atom-3 atom-4" d="M 184.8,118.6 L 185.6,133.9" style="fill:none;fill-rule:evenodd;stroke:#FF0000;stroke-width:2.0px;stroke-linecap:butt;stroke-linejoin:miter;stroke-opacity:1"/>
<path class="bond-4 atom-3 atom-5" d="M 181.5,105.0 L 150.1,88.8" style="fill:none;fill-rule:evenodd;stroke:#000000;stroke-width:2.0px;stroke-linecap:butt;stroke-linejoin:miter;stroke-opacity:1"/>
<path class="bond-5 atom-5 atom-6" d="M 150.1,88.8 L 120.5,108.0" style="fill:none;fill-rule:evenodd;stroke:#000000;stroke-width:2.0px;stroke-linecap:butt;stroke-linejoin:miter;stroke-opacity:1"/>
<path class="bond-6 atom-6 atom-7" d="M 120.5,108.0 L 122.2,143.2" style="fill:none;fill-rule:evenodd;stroke:#000000;stroke-width:2.0px;stroke-linecap:butt;stroke-linejoin:miter;stroke-opacity:1"/>
<path class="bond-7 atom-7 atom-8" d="M 119.6,144.9 L 133.1,151.8" style="fill:none;fill-rule:evenodd;stroke:#000000;stroke-width:2.0px;stroke-linecap:butt;stroke-linejoin:miter;stroke-opacity:1"/>
<path class="bond-7 atom-7 atom-8" d="M 133.1,151.8 L 146.6,158.8" style="fill:none;fill-rule:evenodd;stroke:#FF0000;stroke-width:2.0px;stroke-linecap:butt;stroke-linejoin:miter;stroke-opacity:1"/>
<path class="bond-7 atom-7 atom-8" d="M 122.1,140.2 L 135.6,147.1" style="fill:none;fill-rule:evenodd;stroke:#000000;stroke-width:2.0px;stroke-linecap:butt;stroke-linejoin:miter;stroke-opacity:1"/>
<path class="bond-7 atom-7 atom-8" d="M 135.6,147.1 L 149.1,154.0" style="fill:none;fill-rule:evenodd;stroke:#FF0000;stroke-width:2.0px;stroke-linecap:butt;stroke-linejoin:miter;stroke-opacity:1"/>
<path class="bond-8 atom-7 atom-9" d="M 122.2,143.2 L 110.3,150.9" style="fill:none;fill-rule:evenodd;stroke:#000000;stroke-width:2.0px;stroke-linecap:butt;stroke-linejoin:miter;stroke-opacity:1"/>
<path class="bond-8 atom-7 atom-9" d="M 110.3,150.9 L 98.3,158.7" style="fill:none;fill-rule:evenodd;stroke:#FF0000;stroke-width:2.0px;stroke-linecap:butt;stroke-linejoin:miter;stroke-opacity:1"/>
<path class="bond-9 atom-6 atom-10" d="M 120.5,108.0 L 89.1,91.9" style="fill:none;fill-rule:evenodd;stroke:#000000;stroke-width:2.0px;stroke-linecap:butt;stroke-linejoin:miter;stroke-opacity:1"/>
<path class="bond-9 atom-6 atom-10" d="M 120.2,101.9 L 94.2,88.5" style="fill:none;fill-rule:evenodd;stroke:#000000;stroke-width:2.0px;stroke-linecap:butt;stroke-linejoin:miter;stroke-opacity:1"/>
<path class="bond-10 atom-10 atom-11" d="M 89.1,91.9 L 59.4,111.0" style="fill:none;fill-rule:evenodd;stroke:#000000;stroke-width:2.0px;stroke-linecap:butt;stroke-linejoin:miter;stroke-opacity:1"/>
<path class="bond-11 atom-11 atom-12" d="M 56.7,109.6 L 57.4,124.9" style="fill:none;fill-rule:evenodd;stroke:#000000;stroke-width:2.0px;stroke-linecap:butt;stroke-linejoin:miter;stroke-opacity:1"/>
<path class="bond-11 atom-11 atom-12" d="M 57.4,124.9 L 58.2,140.2" style="fill:none;fill-rule:evenodd;stroke:#FF0000;stroke-width:2.0px;stroke-linecap:butt;stroke-linejoin:miter;stroke-opacity:1"/>
<path class="bond-11 atom-11 atom-12" d="M 62.0,109.3 L 62.7,124.6" style="fill:none;fill-rule:evenodd;stroke:#000000;stroke-width:2.0px;stroke-linecap:butt;stroke-linejoin:miter;stroke-opacity:1"/>
<path class="bond-11 atom-11 atom-12" d="M 62.7,124.6 L 63.5,139.9" style="fill:none;fill-rule:evenodd;stroke:#FF0000;stroke-width:2.0px;stroke-linecap:butt;stroke-linejoin:miter;stroke-opacity:1"/>
<path class="bond-12 atom-11 atom-13" d="M 59.4,111.0 L 46.6,104.4" style="fill:none;fill-rule:evenodd;stroke:#000000;stroke-width:2.0px;stroke-linecap:butt;stroke-linejoin:miter;stroke-opacity:1"/>
<path class="bond-12 atom-11 atom-13" d="M 46.6,104.4 L 33.8,97.8" style="fill:none;fill-rule:evenodd;stroke:#FF0000;stroke-width:2.0px;stroke-linecap:butt;stroke-linejoin:miter;stroke-opacity:1"/>
<path class="bond-13 atom-10 atom-14" d="M 89.1,91.9 L 87.3,56.6" style="fill:none;fill-rule:evenodd;stroke:#000000;stroke-width:2.0px;stroke-linecap:butt;stroke-linejoin:miter;stroke-opacity:1"/>
<path class="bond-14 atom-14 atom-15" d="M 87.5,59.7 L 100.1,51.5" style="fill:none;fill-rule:evenodd;stroke:#000000;stroke-width:2.0px;stroke-linecap:butt;stroke-linejoin:miter;stroke-opacity:1"/>
<path class="bond-14 atom-14 atom-15" d="M 100.1,51.5 L 112.7,43.4" style="fill:none;fill-rule:evenodd;stroke:#FF0000;stroke-width:2.0px;stroke-linecap:butt;stroke-linejoin:miter;stroke-opacity:1"/>
<path class="bond-14 atom-14 atom-15" d="M 84.6,55.2 L 97.2,47.1" style="fill:none;fill-rule:evenodd;stroke:#000000;stroke-width:2.0px;stroke-linecap:butt;stroke-linejoin:miter;stroke-opacity:1"/>
<path class="bond-14 atom-14 atom-15" d="M 97.2,47.1 L 109.8,39.0" style="fill:none;fill-rule:evenodd;stroke:#FF0000;stroke-width:2.0px;stroke-linecap:butt;stroke-linejoin:miter;stroke-opacity:1"/>
<path class="bond-15 atom-14 atom-16" d="M 87.3,56.6 L 74.5,50.0" style="fill:none;fill-rule:evenodd;stroke:#000000;stroke-width:2.0px;stroke-linecap:butt;stroke-linejoin:miter;stroke-opacity:1"/>
<path class="bond-15 atom-14 atom-16" d="M 74.5,50.0 L 61.7,43.4" style="fill:none;fill-rule:evenodd;stroke:#FF0000;stroke-width:2.0px;stroke-linecap:butt;stroke-linejoin:miter;stroke-opacity:1"/>
<path d="M 211.8,86.2 L 211.2,85.8 L 209.7,86.8" style="fill:none;stroke:#000000;stroke-width:2.0px;stroke-linecap:butt;stroke-linejoin:miter;stroke-opacity:1;"/>
<path d="M 183.0,104.0 L 181.5,105.0 L 180.0,104.2" style="fill:none;stroke:#000000;stroke-width:2.0px;stroke-linecap:butt;stroke-linejoin:miter;stroke-opacity:1;"/>
<path d="M 151.7,89.7 L 150.1,88.8 L 148.6,89.8" style="fill:none;stroke:#000000;stroke-width:2.0px;stroke-linecap:butt;stroke-linejoin:miter;stroke-opacity:1;"/>
<path d="M 122.1,141.5 L 122.2,143.2 L 121.6,143.6" style="fill:none;stroke:#000000;stroke-width:2.0px;stroke-linecap:butt;stroke-linejoin:miter;stroke-opacity:1;"/>
<path d="M 60.9,110.0 L 59.4,111.0 L 58.8,110.7" style="fill:none;stroke:#000000;stroke-width:2.0px;stroke-linecap:butt;stroke-linejoin:miter;stroke-opacity:1;"/>
<path d="M 87.4,58.4 L 87.3,56.6 L 86.7,56.3" style="fill:none;stroke:#000000;stroke-width:2.0px;stroke-linecap:butt;stroke-linejoin:miter;stroke-opacity:1;"/>
<path class="atom-0" d="M 204.9 50.6 Q 204.9 48.2, 206.0 46.9 Q 207.2 45.5, 209.4 45.5 Q 211.7 45.5, 212.8 46.9 Q 214.0 48.2, 214.0 50.6 Q 214.0 53.0, 212.8 54.4 Q 211.6 55.8, 209.4 55.8 Q 207.2 55.8, 206.0 54.4 Q 204.9 53.0, 204.9 50.6 M 209.4 54.7 Q 211.0 54.7, 211.8 53.6 Q 212.6 52.6, 212.6 50.6 Q 212.6 48.6, 211.8 47.7 Q 211.0 46.7, 209.4 46.7 Q 207.9 46.7, 207.1 47.6 Q 206.3 48.6, 206.3 50.6 Q 206.3 52.6, 207.1 53.6 Q 207.9 54.7, 209.4 54.7 " fill="#FF0000"/>
<path class="atom-2" d="M 238.0 102.0 Q 238.0 99.6, 239.2 98.2 Q 240.4 96.9, 242.6 96.9 Q 244.8 96.9, 246.0 98.2 Q 247.2 99.6, 247.2 102.0 Q 247.2 104.4, 246.0 105.8 Q 244.8 107.2, 242.6 107.2 Q 240.4 107.2, 239.2 105.8 Q 238.0 104.4, 238.0 102.0 M 242.6 106.0 Q 244.1 106.0, 244.9 105.0 Q 245.8 104.0, 245.8 102.0 Q 245.8 100.0, 244.9 99.0 Q 244.1 98.0, 242.6 98.0 Q 241.1 98.0, 240.2 99.0 Q 239.4 100.0, 239.4 102.0 Q 239.4 104.0, 240.2 105.0 Q 241.1 106.0, 242.6 106.0 " fill="#FF0000"/>
<path class="atom-2" d="M 248.7 97.0 L 250.1 97.0 L 250.1 101.3 L 255.2 101.3 L 255.2 97.0 L 256.6 97.0 L 256.6 107.0 L 255.2 107.0 L 255.2 102.4 L 250.1 102.4 L 250.1 107.0 L 248.7 107.0 L 248.7 97.0 " fill="#FF0000"/>
<path class="atom-4" d="M 178.7 140.2 Q 178.7 137.8, 179.9 136.5 Q 181.1 135.2, 183.3 135.2 Q 185.5 135.2, 186.7 136.5 Q 187.9 137.8, 187.9 140.2 Q 187.9 142.7, 186.7 144.1 Q 185.5 145.4, 183.3 145.4 Q 181.1 145.4, 179.9 144.1 Q 178.7 142.7, 178.7 140.2 M 183.3 144.3 Q 184.8 144.3, 185.6 143.3 Q 186.4 142.2, 186.4 140.2 Q 186.4 138.3, 185.6 137.3 Q 184.8 136.3, 183.3 136.3 Q 181.7 136.3, 180.9 137.3 Q 180.1 138.3, 180.1 140.2 Q 180.1 142.3, 180.9 143.3 Q 181.7 144.3, 183.3 144.3 " fill="#FF0000"/>
<path class="atom-8" d="M 149.0 159.4 Q 149.0 157.0, 150.2 155.6 Q 151.4 154.3, 153.6 154.3 Q 155.8 154.3, 157.0 155.6 Q 158.2 157.0, 158.2 159.4 Q 158.2 161.8, 157.0 163.2 Q 155.8 164.6, 153.6 164.6 Q 151.4 164.6, 150.2 163.2 Q 149.0 161.8, 149.0 159.4 M 153.6 163.4 Q 155.1 163.4, 156.0 162.4 Q 156.8 161.4, 156.8 159.4 Q 156.8 157.4, 156.0 156.4 Q 155.1 155.4, 153.6 155.4 Q 152.1 155.4, 151.3 156.4 Q 150.4 157.4, 150.4 159.4 Q 150.4 161.4, 151.3 162.4 Q 152.1 163.4, 153.6 163.4 " fill="#FF0000"/>
<path class="atom-9" d="M 78.1 157.4 L 79.4 157.4 L 79.4 161.7 L 84.6 161.7 L 84.6 157.4 L 85.9 157.4 L 85.9 167.4 L 84.6 167.4 L 84.6 162.8 L 79.4 162.8 L 79.4 167.4 L 78.1 167.4 L 78.1 157.4 " fill="#FF0000"/>
<path class="atom-9" d="M 88.0 162.4 Q 88.0 160.0, 89.1 158.7 Q 90.3 157.3, 92.6 157.3 Q 94.8 157.3, 96.0 158.7 Q 97.1 160.0, 97.1 162.4 Q 97.1 164.8, 95.9 166.2 Q 94.7 167.6, 92.6 167.6 Q 90.3 167.6, 89.1 166.2 Q 88.0 164.8, 88.0 162.4 M 92.6 166.4 Q 94.1 166.4, 94.9 165.4 Q 95.7 164.4, 95.7 162.4 Q 95.7 160.4, 94.9 159.4 Q 94.1 158.4, 92.6 158.4 Q 91.0 158.4, 90.2 159.4 Q 89.4 160.4, 89.4 162.4 Q 89.4 164.4, 90.2 165.4 Q 91.0 166.4, 92.6 166.4 " fill="#FF0000"/>
<path class="atom-12" d="M 56.6 146.3 Q 56.6 143.9, 57.7 142.5 Q 58.9 141.2, 61.2 141.2 Q 63.4 141.2, 64.6 142.5 Q 65.7 143.9, 65.7 146.3 Q 65.7 148.7, 64.5 150.1 Q 63.3 151.5, 61.2 151.5 Q 58.9 151.5, 57.7 150.1 Q 56.6 148.7, 56.6 146.3 M 61.2 150.3 Q 62.7 150.3, 63.5 149.3 Q 64.3 148.3, 64.3 146.3 Q 64.3 144.3, 63.5 143.3 Q 62.7 142.3, 61.2 142.3 Q 59.6 142.3, 58.8 143.3 Q 58.0 144.3, 58.0 146.3 Q 58.0 148.3, 58.8 149.3 Q 59.6 150.3, 61.2 150.3 " fill="#FF0000"/>
<path class="atom-13" d="M 13.5 89.9 L 14.9 89.9 L 14.9 94.2 L 20.0 94.2 L 20.0 89.9 L 21.4 89.9 L 21.4 99.9 L 20.0 99.9 L 20.0 95.3 L 14.9 95.3 L 14.9 99.9 L 13.5 99.9 L 13.5 89.9 " fill="#FF0000"/>
<path class="atom-13" d="M 23.4 94.9 Q 23.4 92.5, 24.6 91.2 Q 25.8 89.8, 28.0 89.8 Q 30.2 89.8, 31.4 91.2 Q 32.6 92.5, 32.6 94.9 Q 32.6 97.3, 31.4 98.7 Q 30.2 100.1, 28.0 100.1 Q 25.8 100.1, 24.6 98.7 Q 23.4 97.4, 23.4 94.9 M 28.0 99.0 Q 29.5 99.0, 30.4 97.9 Q 31.2 96.9, 31.2 94.9 Q 31.2 92.9, 30.4 92.0 Q 29.5 91.0, 28.0 91.0 Q 26.5 91.0, 25.7 91.9 Q 24.8 92.9, 24.8 94.9 Q 24.8 96.9, 25.7 97.9 Q 26.5 99.0, 28.0 99.0 " fill="#FF0000"/>
<path class="atom-15" d="M 112.4 37.5 Q 112.4 35.1, 113.6 33.8 Q 114.8 32.4, 117.0 32.4 Q 119.2 32.4, 120.4 33.8 Q 121.6 35.1, 121.6 37.5 Q 121.6 39.9, 120.4 41.3 Q 119.2 42.7, 117.0 42.7 Q 114.8 42.7, 113.6 41.3 Q 112.4 39.9, 112.4 37.5 M 117.0 41.6 Q 118.5 41.6, 119.3 40.5 Q 120.2 39.5, 120.2 37.5 Q 120.2 35.5, 119.3 34.6 Q 118.5 33.6, 117.0 33.6 Q 115.5 33.6, 114.6 34.5 Q 113.8 35.5, 113.8 37.5 Q 113.8 39.5, 114.6 40.5 Q 115.5 41.6, 117.0 41.6 " fill="#FF0000"/>
<path class="atom-16" d="M 41.5 35.6 L 42.8 35.6 L 42.8 39.8 L 47.9 39.8 L 47.9 35.6 L 49.3 35.6 L 49.3 45.5 L 47.9 45.5 L 47.9 40.9 L 42.8 40.9 L 42.8 45.5 L 41.5 45.5 L 41.5 35.6 " fill="#FF0000"/>
<path class="atom-16" d="M 51.3 40.5 Q 51.3 38.1, 52.5 36.8 Q 53.7 35.4, 55.9 35.4 Q 58.1 35.4, 59.3 36.8 Q 60.5 38.1, 60.5 40.5 Q 60.5 43.0, 59.3 44.3 Q 58.1 45.7, 55.9 45.7 Q 53.7 45.7, 52.5 44.3 Q 51.3 43.0, 51.3 40.5 M 55.9 44.6 Q 57.5 44.6, 58.3 43.6 Q 59.1 42.5, 59.1 40.5 Q 59.1 38.6, 58.3 37.6 Q 57.5 36.6, 55.9 36.6 Q 54.4 36.6, 53.6 37.6 Q 52.7 38.5, 52.7 40.5 Q 52.7 42.5, 53.6 43.6 Q 54.4 44.6, 55.9 44.6 " fill="#FF0000"/>
</g>
  </g>
</svg>
