<?xml version='1.0' encoding='ASCII' standalone='yes'?>
<svg xmlns="http://www.w3.org/2000/svg" xmlns:xlink="http://www.w3.org/1999/xlink" version="1.1" width="815.0px" viewBox="0 0 815.0 200.0" height="200.0px">
  <g>
    <g transform="translate(0, 0) scale(1 1) "><!-- END OF HEADER -->
<rect style="opacity:1.0;fill:#FFFFFF;stroke:none" width="260.0" height="200.0" x="0.0" y="0.0"> </rect>
<path class="bond-0 atom-0 atom-1" d="M 247.0,29.1 L 247.0,74.2" style="fill:none;fill-rule:evenodd;stroke:#000000;stroke-width:2.0px;stroke-linecap:butt;stroke-linejoin:miter;stroke-opacity:1"/>
<path class="bond-1 atom-1 atom-2" d="M 247.0,74.2 L 208.0,96.7" style="fill:none;fill-rule:evenodd;stroke:#000000;stroke-width:2.0px;stroke-linecap:butt;stroke-linejoin:miter;stroke-opacity:1"/>
<path class="bond-2 atom-2 atom-3" d="M 208.0,96.7 L 185.5,57.7" style="fill:none;fill-rule:evenodd;stroke:#000000;stroke-width:2.0px;stroke-linecap:butt;stroke-linejoin:miter;stroke-opacity:1"/>
<path class="bond-3 atom-2 atom-4" d="M 208.0,96.7 L 230.5,135.7" style="fill:none;fill-rule:evenodd;stroke:#000000;stroke-width:2.0px;stroke-linecap:butt;stroke-linejoin:miter;stroke-opacity:1"/>
<path class="bond-4 atom-2 atom-5" d="M 208.0,96.7 L 169.0,119.2" style="fill:none;fill-rule:evenodd;stroke:#000000;stroke-width:2.0px;stroke-linecap:butt;stroke-linejoin:miter;stroke-opacity:1"/>
<path class="bond-5 atom-5 atom-6" d="M 165.6,117.2 L 165.6,136.8" style="fill:none;fill-rule:evenodd;stroke:#000000;stroke-width:2.0px;stroke-linecap:butt;stroke-linejoin:miter;stroke-opacity:1"/>
<path class="bond-5 atom-5 atom-6" d="M 165.6,136.8 L 165.6,156.3" style="fill:none;fill-rule:evenodd;stroke:#FF0000;stroke-width:2.0px;stroke-linecap:butt;stroke-linejoin:miter;stroke-opacity:1"/>
<path class="bond-5 atom-5 atom-6" d="M 172.4,117.2 L 172.4,136.8" style="fill:none;fill-rule:evenodd;stroke:#000000;stroke-width:2.0px;stroke-linecap:butt;stroke-linejoin:miter;stroke-opacity:1"/>
<path class="bond-5 atom-5 atom-6" d="M 172.4,136.8 L 172.4,156.3" style="fill:none;fill-rule:evenodd;stroke:#FF0000;stroke-width:2.0px;stroke-linecap:butt;stroke-linejoin:miter;stroke-opacity:1"/>
<path class="bond-6 atom-5 atom-7" d="M 169.0,119.2 L 153.2,110.1" style="fill:none;fill-rule:evenodd;stroke:#000000;stroke-width:2.0px;stroke-linecap:butt;stroke-linejoin:miter;stroke-opacity:1"/>
<path class="bond-6 atom-5 atom-7" d="M 153.2,110.1 L 137.3,100.9" style="fill:none;fill-rule:evenodd;stroke:#FF0000;stroke-width:2.0px;stroke-linecap:butt;stroke-linejoin:miter;stroke-opacity:1"/>
<path class="bond-7 atom-7 atom-8" d="M 122.7,100.9 L 106.8,110.1" style="fill:none;fill-rule:evenodd;stroke:#FF0000;stroke-width:2.0px;stroke-linecap:butt;stroke-linejoin:miter;stroke-opacity:1"/>
<path class="bond-7 atom-7 atom-8" d="M 106.8,110.1 L 91.0,119.2" style="fill:none;fill-rule:evenodd;stroke:#000000;stroke-width:2.0px;stroke-linecap:butt;stroke-linejoin:miter;stroke-opacity:1"/>
<path class="bond-8 atom-8 atom-9" d="M 91.0,119.2 L 91.0,137.7" style="fill:none;fill-rule:evenodd;stroke:#000000;stroke-width:2.0px;stroke-linecap:butt;stroke-linejoin:miter;stroke-opacity:1"/>
<path class="bond-8 atom-8 atom-9" d="M 91.0,137.7 L 91.0,156.3" style="fill:none;fill-rule:evenodd;stroke:#FF0000;stroke-width:2.0px;stroke-linecap:butt;stroke-linejoin:miter;stroke-opacity:1"/>
<path class="bond-9 atom-8 atom-10" d="M 91.0,119.2 L 52.0,96.7" style="fill:none;fill-rule:evenodd;stroke:#000000;stroke-width:2.0px;stroke-linecap:butt;stroke-linejoin:miter;stroke-opacity:1"/>
<path class="bond-10 atom-10 atom-11" d="M 52.0,96.7 L 29.5,135.7" style="fill:none;fill-rule:evenodd;stroke:#000000;stroke-width:2.0px;stroke-linecap:butt;stroke-linejoin:miter;stroke-opacity:1"/>
<path class="bond-11 atom-10 atom-12" d="M 52.0,96.7 L 74.5,57.7" style="fill:none;fill-rule:evenodd;stroke:#000000;stroke-width:2.0px;stroke-linecap:butt;stroke-linejoin:miter;stroke-opacity:1"/>
<path class="bond-12 atom-10 atom-13" d="M 52.0,96.7 L 13.0,74.2" style="fill:none;fill-rule:evenodd;stroke:#000000;stroke-width:2.0px;stroke-linecap:butt;stroke-linejoin:miter;stroke-opacity:1"/>
<path class="bond-13 atom-13 atom-14" d="M 13.0,74.2 L 13.0,29.1" style="fill:none;fill-rule:evenodd;stroke:#000000;stroke-width:2.0px;stroke-linecap:butt;stroke-linejoin:miter;stroke-opacity:1"/>
<path d="M 247.0,71.9 L 247.0,74.2 L 245.1,75.3" style="fill:none;stroke:#000000;stroke-width:2.0px;stroke-linecap:butt;stroke-linejoin:miter;stroke-opacity:1;"/>
<path d="M 171.0,118.1 L 169.0,119.2 L 168.2,118.7" style="fill:none;stroke:#000000;stroke-width:2.0px;stroke-linecap:butt;stroke-linejoin:miter;stroke-opacity:1;"/>
<path d="M 15.0,75.3 L 13.0,74.2 L 13.0,71.9" style="fill:none;stroke:#000000;stroke-width:2.0px;stroke-linecap:butt;stroke-linejoin:miter;stroke-opacity:1;"/>
<path class="atom-6" d="M 163.1 164.3 Q 163.1 161.2, 164.7 159.5 Q 166.2 157.8, 169.0 157.8 Q 171.8 157.8, 173.3 159.5 Q 174.9 161.2, 174.9 164.3 Q 174.9 167.4, 173.3 169.1 Q 171.8 170.9, 169.0 170.9 Q 166.2 170.9, 164.7 169.1 Q 163.1 167.4, 163.1 164.3 M 169.0 169.4 Q 170.9 169.4, 172.0 168.1 Q 173.1 166.8, 173.1 164.3 Q 173.1 161.8, 172.0 160.5 Q 170.9 159.2, 169.0 159.2 Q 167.1 159.2, 166.0 160.5 Q 164.9 161.7, 164.9 164.3 Q 164.9 166.8, 166.0 168.1 Q 167.1 169.4, 169.0 169.4 " fill="#FF0000"/>
<path class="atom-7" d="M 124.1 96.7 Q 124.1 93.7, 125.7 91.9 Q 127.2 90.2, 130.0 90.2 Q 132.8 90.2, 134.3 91.9 Q 135.9 93.7, 135.9 96.7 Q 135.9 99.8, 134.3 101.6 Q 132.8 103.3, 130.0 103.3 Q 127.2 103.3, 125.7 101.6 Q 124.1 99.8, 124.1 96.7 M 130.0 101.9 Q 131.9 101.9, 133.0 100.6 Q 134.1 99.3, 134.1 96.7 Q 134.1 94.2, 133.0 92.9 Q 131.9 91.7, 130.0 91.7 Q 128.1 91.7, 127.0 92.9 Q 125.9 94.2, 125.9 96.7 Q 125.9 99.3, 127.0 100.6 Q 128.1 101.9, 130.0 101.9 " fill="#FF0000"/>
<path class="atom-9" d="M 85.1 164.3 Q 85.1 161.2, 86.7 159.5 Q 88.2 157.8, 91.0 157.8 Q 93.8 157.8, 95.3 159.5 Q 96.9 161.2, 96.9 164.3 Q 96.9 167.4, 95.3 169.1 Q 93.8 170.9, 91.0 170.9 Q 88.2 170.9, 86.7 169.1 Q 85.1 167.4, 85.1 164.3 M 91.0 169.4 Q 92.9 169.4, 94.0 168.1 Q 95.1 166.8, 95.1 164.3 Q 95.1 161.8, 94.0 160.5 Q 92.9 159.2, 91.0 159.2 Q 89.1 159.2, 88.0 160.5 Q 86.9 161.7, 86.9 164.3 Q 86.9 166.8, 88.0 168.1 Q 89.1 169.4, 91.0 169.4 " fill="#FF0000"/>
<path class="atom-9" d="M 98.8 157.9 L 100.6 157.9 L 100.6 163.3 L 107.1 163.3 L 107.1 157.9 L 108.8 157.9 L 108.8 170.7 L 107.1 170.7 L 107.1 164.8 L 100.6 164.8 L 100.6 170.7 L 98.8 170.7 L 98.8 157.9 " fill="#FF0000"/>
</g>
    <g transform="translate(260.0, 0) scale(1 1) "><line x1="15" y1="100" x2="25" y2="100" style="stroke:rgb(0,0,0);stroke-width:2"/>
  <line x1="20" y1="95" x2="20" y2="105" style="stroke:rgb(0,0,0);stroke-width:2"/>
</g>
    <g transform="translate(300.0, 0) scale(1 1) "><!-- END OF HEADER -->
<rect style="opacity:1.0;fill:#FFFFFF;stroke:none" width="25.0" height="200.0" x="0.0" y="0.0"> </rect>
<path class="atom-0" d="M 1.2 93.4 L 2.5 93.4 L 2.5 97.2 L 7.0 97.2 L 7.0 93.4 L 8.2 93.4 L 8.2 102.3 L 7.0 102.3 L 7.0 98.2 L 2.5 98.2 L 2.5 102.3 L 1.2 102.3 L 1.2 93.4 " fill="#FF0000"/>
<path class="atom-0" d="M 10.0 102.0 Q 10.2 101.4, 10.7 101.1 Q 11.2 100.8, 11.9 100.8 Q 12.8 100.8, 13.3 101.3 Q 13.8 101.7, 13.8 102.6 Q 13.8 103.5, 13.2 104.3 Q 12.5 105.1, 11.2 106.0 L 13.9 106.0 L 13.9 106.7 L 10.0 106.7 L 10.0 106.2 Q 11.1 105.4, 11.7 104.8 Q 12.4 104.2, 12.7 103.7 Q 13.0 103.2, 13.0 102.6 Q 13.0 102.1, 12.7 101.8 Q 12.4 101.4, 11.9 101.4 Q 11.5 101.4, 11.1 101.6 Q 10.8 101.8, 10.6 102.2 L 10.0 102.0 " fill="#FF0000"/>
<path class="atom-0" d="M 15.1 97.8 Q 15.1 95.7, 16.2 94.5 Q 17.2 93.3, 19.2 93.3 Q 21.1 93.3, 22.2 94.5 Q 23.2 95.7, 23.2 97.8 Q 23.2 100.0, 22.2 101.2 Q 21.1 102.4, 19.2 102.4 Q 17.2 102.4, 16.2 101.2 Q 15.1 100.0, 15.1 97.8 M 19.2 101.4 Q 20.5 101.4, 21.3 100.5 Q 22.0 99.6, 22.0 97.8 Q 22.0 96.1, 21.3 95.2 Q 20.5 94.3, 19.2 94.3 Q 17.8 94.3, 17.1 95.2 Q 16.4 96.1, 16.4 97.8 Q 16.4 99.6, 17.1 100.5 Q 17.8 101.4, 19.2 101.4 " fill="#FF0000"/>
</g>
    <g transform="translate(325.0, 0) scale(1 1) "><line x1="5" y1="100" x2="35" y2="100" style="stroke:rgb(0,0,0);stroke-width:2"/>
  <line x1="34" y1="100" x2="29" y2="95" style="stroke:rgb(0,0,0);stroke-width:2"/>
  <line x1="34" y1="100" x2="29" y2="105" style="stroke:rgb(0,0,0);stroke-width:2"/>
</g>
    <g transform="translate(365.0, 0) scale(1 1) "><!-- END OF HEADER -->
<rect style="opacity:1.0;fill:#FFFFFF;stroke:none" width="205.0" height="200.0" x="0.0" y="0.0"> </rect>
<path class="bond-0 atom-0 atom-1" d="M 194.2,92.2 L 158.7,125.3" style="fill:none;fill-rule:evenodd;stroke:#000000;stroke-width:2.0px;stroke-linecap:butt;stroke-linejoin:miter;stroke-opacity:1"/>
<path class="bond-1 atom-1 atom-2" d="M 158.7,125.3 L 112.2,111.1" style="fill:none;fill-rule:evenodd;stroke:#000000;stroke-width:2.0px;stroke-linecap:butt;stroke-linejoin:miter;stroke-opacity:1"/>
<path class="bond-2 atom-2 atom-3" d="M 112.2,111.1 L 126.5,64.6" style="fill:none;fill-rule:evenodd;stroke:#000000;stroke-width:2.0px;stroke-linecap:butt;stroke-linejoin:miter;stroke-opacity:1"/>
<path class="bond-3 atom-2 atom-4" d="M 112.2,111.1 L 97.9,157.5" style="fill:none;fill-rule:evenodd;stroke:#000000;stroke-width:2.0px;stroke-linecap:butt;stroke-linejoin:miter;stroke-opacity:1"/>
<path class="bond-4 atom-2 atom-5" d="M 112.2,111.1 L 65.7,96.8" style="fill:none;fill-rule:evenodd;stroke:#000000;stroke-width:2.0px;stroke-linecap:butt;stroke-linejoin:miter;stroke-opacity:1"/>
<path class="bond-5 atom-5 atom-6" d="M 65.7,96.8 L 61.3,77.5" style="fill:none;fill-rule:evenodd;stroke:#000000;stroke-width:2.0px;stroke-linecap:butt;stroke-linejoin:miter;stroke-opacity:1"/>
<path class="bond-5 atom-5 atom-6" d="M 61.3,77.5 L 56.9,58.2" style="fill:none;fill-rule:evenodd;stroke:#FF0000;stroke-width:2.0px;stroke-linecap:butt;stroke-linejoin:miter;stroke-opacity:1"/>
<path class="bond-6 atom-5 atom-7" d="M 65.7,96.8 L 51.9,109.7" style="fill:none;fill-rule:evenodd;stroke:#000000;stroke-width:2.0px;stroke-linecap:butt;stroke-linejoin:miter;stroke-opacity:1"/>
<path class="bond-6 atom-5 atom-7" d="M 51.9,109.7 L 38.1,122.5" style="fill:none;fill-rule:evenodd;stroke:#FF0000;stroke-width:2.0px;stroke-linecap:butt;stroke-linejoin:miter;stroke-opacity:1"/>
<path d="M 160.4,123.7 L 158.7,125.3 L 156.3,124.6" style="fill:none;stroke:#000000;stroke-width:2.0px;stroke-linecap:butt;stroke-linejoin:miter;stroke-opacity:1;"/>
<path class="atom-6" d="M 48.5 49.5 Q 48.5 46.2, 50.2 44.3 Q 51.8 42.5, 54.9 42.5 Q 57.9 42.5, 59.5 44.3 Q 61.2 46.2, 61.2 49.5 Q 61.2 52.8, 59.5 54.7 Q 57.9 56.6, 54.9 56.6 Q 51.8 56.6, 50.2 54.7 Q 48.5 52.8, 48.5 49.5 M 54.9 55.1 Q 57.0 55.1, 58.1 53.7 Q 59.2 52.2, 59.2 49.5 Q 59.2 46.8, 58.1 45.4 Q 57.0 44.0, 54.9 44.0 Q 52.8 44.0, 51.6 45.4 Q 50.5 46.8, 50.5 49.5 Q 50.5 52.3, 51.6 53.7 Q 52.8 55.1, 54.9 55.1 " fill="#FF0000"/>
<path class="atom-6" d="M 63.3 42.6 L 65.2 42.6 L 65.2 48.5 L 72.2 48.5 L 72.2 42.6 L 74.1 42.6 L 74.1 56.4 L 72.2 56.4 L 72.2 50.0 L 65.2 50.0 L 65.2 56.4 L 63.3 56.4 L 63.3 42.6 " fill="#FF0000"/>
<path class="atom-7" d="M 10.2 123.1 L 12.1 123.1 L 12.1 129.0 L 19.2 129.0 L 19.2 123.1 L 21.0 123.1 L 21.0 136.9 L 19.2 136.9 L 19.2 130.5 L 12.1 130.5 L 12.1 136.9 L 10.2 136.9 L 10.2 123.1 " fill="#FF0000"/>
<path class="atom-7" d="M 23.8 129.9 Q 23.8 126.6, 25.5 124.8 Q 27.1 122.9, 30.2 122.9 Q 33.2 122.9, 34.8 124.8 Q 36.5 126.6, 36.5 129.9 Q 36.5 133.3, 34.8 135.2 Q 33.2 137.1, 30.2 137.1 Q 27.1 137.1, 25.5 135.2 Q 23.8 133.3, 23.8 129.9 M 30.2 135.5 Q 32.3 135.5, 33.4 134.1 Q 34.5 132.7, 34.5 129.9 Q 34.5 127.2, 33.4 125.9 Q 32.3 124.5, 30.2 124.5 Q 28.1 124.5, 26.9 125.9 Q 25.8 127.2, 25.8 129.9 Q 25.8 132.7, 26.9 134.1 Q 28.1 135.5, 30.2 135.5 " fill="#FF0000"/>
</g>
    <g transform="translate(570.0, 0) scale(1 1) "><line x1="15" y1="100" x2="25" y2="100" style="stroke:rgb(0,0,0);stroke-width:2"/>
  <line x1="20" y1="95" x2="20" y2="105" style="stroke:rgb(0,0,0);stroke-width:2"/>
</g>
    <g transform="translate(610.0, 0) scale(1 1) "><!-- END OF HEADER -->
<rect style="opacity:1.0;fill:#FFFFFF;stroke:none" width="205.0" height="200.0" x="0.0" y="0.0"> </rect>
<path class="bond-0 atom-0 atom-1" d="M 194.2,91.6 L 155.8,127.3" style="fill:none;fill-rule:evenodd;stroke:#000000;stroke-width:2.0px;stroke-linecap:butt;stroke-linejoin:miter;stroke-opacity:1"/>
<path class="bond-1 atom-1 atom-2" d="M 155.8,127.3 L 105.7,111.9" style="fill:none;fill-rule:evenodd;stroke:#000000;stroke-width:2.0px;stroke-linecap:butt;stroke-linejoin:miter;stroke-opacity:1"/>
<path class="bond-2 atom-2 atom-3" d="M 105.7,111.9 L 121.1,61.8" style="fill:none;fill-rule:evenodd;stroke:#000000;stroke-width:2.0px;stroke-linecap:butt;stroke-linejoin:miter;stroke-opacity:1"/>
<path class="bond-3 atom-2 atom-4" d="M 105.7,111.9 L 90.3,162.1" style="fill:none;fill-rule:evenodd;stroke:#000000;stroke-width:2.0px;stroke-linecap:butt;stroke-linejoin:miter;stroke-opacity:1"/>
<path class="bond-4 atom-2 atom-5" d="M 105.7,111.9 L 55.5,96.5" style="fill:none;fill-rule:evenodd;stroke:#000000;stroke-width:2.0px;stroke-linecap:butt;stroke-linejoin:miter;stroke-opacity:1"/>
<path class="bond-5 atom-5 atom-6" d="M 54.5,92.1 L 38.7,106.8" style="fill:none;fill-rule:evenodd;stroke:#000000;stroke-width:2.0px;stroke-linecap:butt;stroke-linejoin:miter;stroke-opacity:1"/>
<path class="bond-5 atom-5 atom-6" d="M 38.7,106.8 L 22.9,121.5" style="fill:none;fill-rule:evenodd;stroke:#FF0000;stroke-width:2.0px;stroke-linecap:butt;stroke-linejoin:miter;stroke-opacity:1"/>
<path class="bond-5 atom-5 atom-6" d="M 59.8,97.9 L 44.1,112.5" style="fill:none;fill-rule:evenodd;stroke:#000000;stroke-width:2.0px;stroke-linecap:butt;stroke-linejoin:miter;stroke-opacity:1"/>
<path class="bond-5 atom-5 atom-6" d="M 44.1,112.5 L 28.3,127.2" style="fill:none;fill-rule:evenodd;stroke:#FF0000;stroke-width:2.0px;stroke-linecap:butt;stroke-linejoin:miter;stroke-opacity:1"/>
<path class="bond-6 atom-5 atom-7" d="M 55.5,96.5 L 50.7,75.7" style="fill:none;fill-rule:evenodd;stroke:#000000;stroke-width:2.0px;stroke-linecap:butt;stroke-linejoin:miter;stroke-opacity:1"/>
<path class="bond-6 atom-5 atom-7" d="M 50.7,75.7 L 45.9,54.9" style="fill:none;fill-rule:evenodd;stroke:#FF0000;stroke-width:2.0px;stroke-linecap:butt;stroke-linejoin:miter;stroke-opacity:1"/>
<path d="M 157.8,125.6 L 155.8,127.3 L 153.3,126.6" style="fill:none;stroke:#000000;stroke-width:2.0px;stroke-linecap:butt;stroke-linejoin:miter;stroke-opacity:1;"/>
<path d="M 58.0,97.3 L 55.5,96.5 L 55.3,95.5" style="fill:none;stroke:#000000;stroke-width:2.0px;stroke-linecap:butt;stroke-linejoin:miter;stroke-opacity:1;"/>
<path class="atom-6" d="M 10.2 132.3 Q 10.2 128.8, 12.0 126.8 Q 13.8 124.8, 17.1 124.8 Q 20.4 124.8, 22.1 126.8 Q 23.9 128.8, 23.9 132.3 Q 23.9 135.9, 22.1 138.0 Q 20.3 140.0, 17.1 140.0 Q 13.8 140.0, 12.0 138.0 Q 10.2 136.0, 10.2 132.3 M 17.1 138.4 Q 19.3 138.4, 20.6 136.8 Q 21.8 135.3, 21.8 132.3 Q 21.8 129.4, 20.6 127.9 Q 19.3 126.5, 17.1 126.5 Q 14.8 126.5, 13.6 127.9 Q 12.3 129.4, 12.3 132.3 Q 12.3 135.3, 13.6 136.8 Q 14.8 138.4, 17.1 138.4 " fill="#FF0000"/>
<path class="atom-7" d="M 36.9 45.4 Q 36.9 41.9, 38.7 39.9 Q 40.4 37.9, 43.7 37.9 Q 47.0 37.9, 48.8 39.9 Q 50.6 41.9, 50.6 45.4 Q 50.6 49.1, 48.8 51.1 Q 47.0 53.1, 43.7 53.1 Q 40.5 53.1, 38.7 51.1 Q 36.9 49.1, 36.9 45.4 M 43.7 51.5 Q 46.0 51.5, 47.2 50.0 Q 48.5 48.4, 48.5 45.4 Q 48.5 42.5, 47.2 41.1 Q 46.0 39.6, 43.7 39.6 Q 41.5 39.6, 40.2 41.0 Q 39.0 42.5, 39.0 45.4 Q 39.0 48.4, 40.2 50.0 Q 41.5 51.5, 43.7 51.5 " fill="#FF0000"/>
<path class="atom-7" d="M 52.9 38.1 L 54.9 38.1 L 54.9 44.4 L 62.5 44.4 L 62.5 38.1 L 64.5 38.1 L 64.5 52.9 L 62.5 52.9 L 62.5 46.1 L 54.9 46.1 L 54.9 52.9 L 52.9 52.9 L 52.9 38.1 " fill="#FF0000"/>
</g>
  </g>
</svg>
