<?xml version='1.0' encoding='ASCII' standalone='yes'?>
<svg xmlns="http://www.w3.org/2000/svg" xmlns:xlink="http://www.w3.org/1999/xlink" version="1.1" width="946.0px" viewBox="0 0 946.0 200.0" height="200.0px">
  <g>
    <g transform="translate(0, 0) scale(1 1) "><!-- END OF HEADER -->
<rect style="opacity:1.0;fill:#FFFFFF;stroke:none" width="304.0" height="200.0" x="0.0" y="0.0"> </rect>
<path class="bond-0 atom-0 atom-1" d="M 91.5,17.2 L 97.3,51.6" style="fill:none;fill-rule:evenodd;stroke:#000000;stroke-width:2.0px;stroke-linecap:butt;stroke-linejoin:miter;stroke-opacity:1"/>
<path class="bond-1 atom-1 atom-2" d="M 97.3,51.6 L 130.0,63.7" style="fill:none;fill-rule:evenodd;stroke:#000000;stroke-width:2.0px;stroke-linecap:butt;stroke-linejoin:miter;stroke-opacity:1"/>
<path class="bond-2 atom-2 atom-3" d="M 130.0,63.7 L 135.8,98.1" style="fill:none;fill-rule:evenodd;stroke:#000000;stroke-width:2.0px;stroke-linecap:butt;stroke-linejoin:miter;stroke-opacity:1"/>
<path class="bond-3 atom-3 atom-4" d="M 135.8,98.1 L 130.2,100.7" style="fill:none;fill-rule:evenodd;stroke:#000000;stroke-width:2.0px;stroke-linecap:butt;stroke-linejoin:miter;stroke-opacity:1"/>
<path class="bond-3 atom-3 atom-4" d="M 130.2,100.7 L 124.7,103.4" style="fill:none;fill-rule:evenodd;stroke:#FF0000;stroke-width:2.0px;stroke-linecap:butt;stroke-linejoin:miter;stroke-opacity:1"/>
<path class="bond-4 atom-3 atom-5" d="M 135.8,98.1 L 168.4,110.2" style="fill:none;fill-rule:evenodd;stroke:#000000;stroke-width:2.0px;stroke-linecap:butt;stroke-linejoin:miter;stroke-opacity:1"/>
<path class="bond-5 atom-5 atom-6" d="M 168.4,110.2 L 169.7,138.4" style="fill:none;fill-rule:evenodd;stroke:#000000;stroke-width:2.0px;stroke-linecap:butt;stroke-linejoin:miter;stroke-opacity:1"/>
<path class="bond-6 atom-5 atom-7" d="M 168.4,110.2 L 195.3,88.0" style="fill:none;fill-rule:evenodd;stroke:#000000;stroke-width:2.0px;stroke-linecap:butt;stroke-linejoin:miter;stroke-opacity:1"/>
<path class="bond-7 atom-7 atom-8" d="M 195.3,88.0 L 227.9,100.2" style="fill:none;fill-rule:evenodd;stroke:#000000;stroke-width:2.0px;stroke-linecap:butt;stroke-linejoin:miter;stroke-opacity:1"/>
<path class="bond-8 atom-8 atom-9" d="M 227.9,100.2 L 260.6,112.3" style="fill:none;fill-rule:evenodd;stroke:#000000;stroke-width:2.0px;stroke-linecap:butt;stroke-linejoin:miter;stroke-opacity:1"/>
<path class="bond-9 atom-8 atom-10" d="M 227.9,100.2 L 240.1,67.5" style="fill:none;fill-rule:evenodd;stroke:#000000;stroke-width:2.0px;stroke-linecap:butt;stroke-linejoin:miter;stroke-opacity:1"/>
<path class="bond-10 atom-10 atom-11" d="M 242.9,67.0 L 234.0,56.2" style="fill:none;fill-rule:evenodd;stroke:#000000;stroke-width:2.0px;stroke-linecap:butt;stroke-linejoin:miter;stroke-opacity:1"/>
<path class="bond-10 atom-10 atom-11" d="M 234.0,56.2 L 225.0,45.3" style="fill:none;fill-rule:evenodd;stroke:#FF0000;stroke-width:2.0px;stroke-linecap:butt;stroke-linejoin:miter;stroke-opacity:1"/>
<path class="bond-10 atom-10 atom-11" d="M 239.1,70.2 L 230.1,59.4" style="fill:none;fill-rule:evenodd;stroke:#000000;stroke-width:2.0px;stroke-linecap:butt;stroke-linejoin:miter;stroke-opacity:1"/>
<path class="bond-10 atom-10 atom-11" d="M 230.1,59.4 L 221.1,48.5" style="fill:none;fill-rule:evenodd;stroke:#FF0000;stroke-width:2.0px;stroke-linecap:butt;stroke-linejoin:miter;stroke-opacity:1"/>
<path class="bond-11 atom-10 atom-12" d="M 240.1,67.5 L 254.4,65.1" style="fill:none;fill-rule:evenodd;stroke:#000000;stroke-width:2.0px;stroke-linecap:butt;stroke-linejoin:miter;stroke-opacity:1"/>
<path class="bond-11 atom-10 atom-12" d="M 254.4,65.1 L 268.8,62.7" style="fill:none;fill-rule:evenodd;stroke:#FF0000;stroke-width:2.0px;stroke-linecap:butt;stroke-linejoin:miter;stroke-opacity:1"/>
<path class="bond-12 atom-8 atom-13" d="M 227.9,100.2 L 215.8,132.8" style="fill:none;fill-rule:evenodd;stroke:#000000;stroke-width:2.0px;stroke-linecap:butt;stroke-linejoin:miter;stroke-opacity:1"/>
<path class="bond-13 atom-13 atom-14" d="M 215.8,132.8 L 188.7,140.9" style="fill:none;fill-rule:evenodd;stroke:#000000;stroke-width:2.0px;stroke-linecap:butt;stroke-linejoin:miter;stroke-opacity:1"/>
<path class="bond-14 atom-13 atom-15" d="M 215.8,132.8 L 224.4,143.2" style="fill:none;fill-rule:evenodd;stroke:#000000;stroke-width:2.0px;stroke-linecap:butt;stroke-linejoin:miter;stroke-opacity:1"/>
<path class="bond-14 atom-13 atom-15" d="M 224.4,143.2 L 232.9,153.5" style="fill:none;fill-rule:evenodd;stroke:#FF0000;stroke-width:2.0px;stroke-linecap:butt;stroke-linejoin:miter;stroke-opacity:1"/>
<path class="bond-15 atom-1 atom-16" d="M 97.3,51.6 L 70.5,73.8" style="fill:none;fill-rule:evenodd;stroke:#000000;stroke-width:2.0px;stroke-linecap:butt;stroke-linejoin:miter;stroke-opacity:1"/>
<path class="bond-16 atom-16 atom-17" d="M 70.5,73.8 L 76.3,108.1" style="fill:none;fill-rule:evenodd;stroke:#000000;stroke-width:2.0px;stroke-linecap:butt;stroke-linejoin:miter;stroke-opacity:1"/>
<path class="bond-17 atom-17 atom-18" d="M 76.3,108.1 L 82.1,142.5" style="fill:none;fill-rule:evenodd;stroke:#000000;stroke-width:2.0px;stroke-linecap:butt;stroke-linejoin:miter;stroke-opacity:1"/>
<path class="bond-18 atom-17 atom-19" d="M 76.3,108.1 L 41.9,113.9" style="fill:none;fill-rule:evenodd;stroke:#000000;stroke-width:2.0px;stroke-linecap:butt;stroke-linejoin:miter;stroke-opacity:1"/>
<path class="bond-19 atom-19 atom-20" d="M 44.8,113.4 L 35.8,102.6" style="fill:none;fill-rule:evenodd;stroke:#000000;stroke-width:2.0px;stroke-linecap:butt;stroke-linejoin:miter;stroke-opacity:1"/>
<path class="bond-19 atom-19 atom-20" d="M 35.8,102.6 L 26.8,91.7" style="fill:none;fill-rule:evenodd;stroke:#FF0000;stroke-width:2.0px;stroke-linecap:butt;stroke-linejoin:miter;stroke-opacity:1"/>
<path class="bond-19 atom-19 atom-20" d="M 40.9,116.6 L 31.9,105.8" style="fill:none;fill-rule:evenodd;stroke:#000000;stroke-width:2.0px;stroke-linecap:butt;stroke-linejoin:miter;stroke-opacity:1"/>
<path class="bond-19 atom-19 atom-20" d="M 31.9,105.8 L 23.0,94.9" style="fill:none;fill-rule:evenodd;stroke:#FF0000;stroke-width:2.0px;stroke-linecap:butt;stroke-linejoin:miter;stroke-opacity:1"/>
<path class="bond-20 atom-19 atom-21" d="M 41.9,113.9 L 37.0,127.2" style="fill:none;fill-rule:evenodd;stroke:#000000;stroke-width:2.0px;stroke-linecap:butt;stroke-linejoin:miter;stroke-opacity:1"/>
<path class="bond-20 atom-19 atom-21" d="M 37.0,127.2 L 32.1,140.5" style="fill:none;fill-rule:evenodd;stroke:#FF0000;stroke-width:2.0px;stroke-linecap:butt;stroke-linejoin:miter;stroke-opacity:1"/>
<path class="bond-21 atom-17 atom-22" d="M 76.3,108.1 L 110.6,102.3" style="fill:none;fill-rule:evenodd;stroke:#000000;stroke-width:2.0px;stroke-linecap:butt;stroke-linejoin:miter;stroke-opacity:1"/>
<path class="bond-22 atom-22 atom-23" d="M 110.6,102.3 L 132.8,129.2" style="fill:none;fill-rule:evenodd;stroke:#000000;stroke-width:2.0px;stroke-linecap:butt;stroke-linejoin:miter;stroke-opacity:1"/>
<path class="bond-23 atom-22 atom-24" d="M 110.6,102.3 L 118.3,91.1" style="fill:none;fill-rule:evenodd;stroke:#000000;stroke-width:2.0px;stroke-linecap:butt;stroke-linejoin:miter;stroke-opacity:1"/>
<path class="bond-23 atom-22 atom-24" d="M 118.3,91.1 L 126.0,79.8" style="fill:none;fill-rule:evenodd;stroke:#FF0000;stroke-width:2.0px;stroke-linecap:butt;stroke-linejoin:miter;stroke-opacity:1"/>
<path d="M 128.3,63.1 L 130.0,63.7 L 130.3,65.4" style="fill:none;stroke:#000000;stroke-width:2.0px;stroke-linecap:butt;stroke-linejoin:miter;stroke-opacity:1;"/>
<path d="M 193.9,89.1 L 195.3,88.0 L 196.9,88.6" style="fill:none;stroke:#000000;stroke-width:2.0px;stroke-linecap:butt;stroke-linejoin:miter;stroke-opacity:1;"/>
<path d="M 239.5,69.1 L 240.1,67.5 L 240.8,67.4" style="fill:none;stroke:#000000;stroke-width:2.0px;stroke-linecap:butt;stroke-linejoin:miter;stroke-opacity:1;"/>
<path d="M 71.8,72.7 L 70.5,73.8 L 70.8,75.5" style="fill:none;stroke:#000000;stroke-width:2.0px;stroke-linecap:butt;stroke-linejoin:miter;stroke-opacity:1;"/>
<path d="M 43.6,113.6 L 41.9,113.9 L 41.7,114.6" style="fill:none;stroke:#000000;stroke-width:2.0px;stroke-linecap:butt;stroke-linejoin:miter;stroke-opacity:1;"/>
<path class="atom-4" d="M 104.8 101.2 L 106.1 101.2 L 106.1 105.4 L 111.2 105.4 L 111.2 101.2 L 112.5 101.2 L 112.5 111.0 L 111.2 111.0 L 111.2 106.5 L 106.1 106.5 L 106.1 111.0 L 104.8 111.0 L 104.8 101.2 " fill="#FF0000"/>
<path class="atom-4" d="M 114.5 106.1 Q 114.5 103.7, 115.7 102.4 Q 116.9 101.1, 119.1 101.1 Q 121.3 101.1, 122.4 102.4 Q 123.6 103.7, 123.6 106.1 Q 123.6 108.5, 122.4 109.8 Q 121.2 111.2, 119.1 111.2 Q 116.9 111.2, 115.7 109.8 Q 114.5 108.5, 114.5 106.1 M 119.1 110.1 Q 120.6 110.1, 121.4 109.1 Q 122.2 108.1, 122.2 106.1 Q 122.2 104.1, 121.4 103.2 Q 120.6 102.2, 119.1 102.2 Q 117.6 102.2, 116.7 103.2 Q 115.9 104.1, 115.9 106.1 Q 115.9 108.1, 116.7 109.1 Q 117.6 110.1, 119.1 110.1 " fill="#FF0000"/>
<path class="atom-11" d="M 213.3 40.7 Q 213.3 38.3, 214.5 37.0 Q 215.7 35.7, 217.9 35.7 Q 220.1 35.7, 221.2 37.0 Q 222.4 38.3, 222.4 40.7 Q 222.4 43.1, 221.2 44.4 Q 220.0 45.8, 217.9 45.8 Q 215.7 45.8, 214.5 44.4 Q 213.3 43.1, 213.3 40.7 M 217.9 44.7 Q 219.4 44.7, 220.2 43.7 Q 221.0 42.7, 221.0 40.7 Q 221.0 38.7, 220.2 37.8 Q 219.4 36.8, 217.9 36.8 Q 216.4 36.8, 215.5 37.8 Q 214.7 38.7, 214.7 40.7 Q 214.7 42.7, 215.5 43.7 Q 216.4 44.7, 217.9 44.7 " fill="#FF0000"/>
<path class="atom-12" d="M 269.9 61.7 Q 269.9 59.4, 271.1 58.0 Q 272.2 56.7, 274.4 56.7 Q 276.6 56.7, 277.8 58.0 Q 278.9 59.4, 278.9 61.7 Q 278.9 64.1, 277.8 65.5 Q 276.6 66.8, 274.4 66.8 Q 272.2 66.8, 271.1 65.5 Q 269.9 64.1, 269.9 61.7 M 274.4 65.7 Q 275.9 65.7, 276.7 64.7 Q 277.6 63.7, 277.6 61.7 Q 277.6 59.8, 276.7 58.8 Q 275.9 57.8, 274.4 57.8 Q 272.9 57.8, 272.1 58.8 Q 271.3 59.8, 271.3 61.7 Q 271.3 63.7, 272.1 64.7 Q 272.9 65.7, 274.4 65.7 " fill="#FF0000"/>
<path class="atom-12" d="M 280.5 56.8 L 281.8 56.8 L 281.8 61.0 L 286.9 61.0 L 286.9 56.8 L 288.2 56.8 L 288.2 66.7 L 286.9 66.7 L 286.9 62.1 L 281.8 62.1 L 281.8 66.7 L 280.5 66.7 L 280.5 56.8 " fill="#FF0000"/>
<path class="atom-15" d="M 233.4 159.7 Q 233.4 157.3, 234.6 156.0 Q 235.8 154.7, 238.0 154.7 Q 240.2 154.7, 241.3 156.0 Q 242.5 157.3, 242.5 159.7 Q 242.5 162.1, 241.3 163.4 Q 240.1 164.8, 238.0 164.8 Q 235.8 164.8, 234.6 163.4 Q 233.4 162.1, 233.4 159.7 M 238.0 163.7 Q 239.5 163.7, 240.3 162.7 Q 241.1 161.7, 241.1 159.7 Q 241.1 157.7, 240.3 156.8 Q 239.5 155.8, 238.0 155.8 Q 236.5 155.8, 235.6 156.7 Q 234.8 157.7, 234.8 159.7 Q 234.8 161.7, 235.6 162.7 Q 236.5 163.7, 238.0 163.7 " fill="#FF0000"/>
<path class="atom-15" d="M 244.0 154.8 L 245.4 154.8 L 245.4 159.0 L 250.4 159.0 L 250.4 154.8 L 251.8 154.8 L 251.8 164.6 L 250.4 164.6 L 250.4 160.1 L 245.4 160.1 L 245.4 164.6 L 244.0 164.6 L 244.0 154.8 " fill="#FF0000"/>
<path class="atom-20" d="M 15.2 87.1 Q 15.2 84.7, 16.4 83.4 Q 17.5 82.1, 19.7 82.1 Q 21.9 82.1, 23.1 83.4 Q 24.3 84.7, 24.3 87.1 Q 24.3 89.5, 23.1 90.9 Q 21.9 92.2, 19.7 92.2 Q 17.6 92.2, 16.4 90.9 Q 15.2 89.5, 15.2 87.1 M 19.7 91.1 Q 21.2 91.1, 22.0 90.1 Q 22.9 89.1, 22.9 87.1 Q 22.9 85.2, 22.0 84.2 Q 21.2 83.2, 19.7 83.2 Q 18.2 83.2, 17.4 84.2 Q 16.6 85.1, 16.6 87.1 Q 16.6 89.1, 17.4 90.1 Q 18.2 91.1, 19.7 91.1 " fill="#FF0000"/>
<path class="atom-21" d="M 15.5 141.7 L 16.8 141.7 L 16.8 145.9 L 21.9 145.9 L 21.9 141.7 L 23.2 141.7 L 23.2 151.6 L 21.9 151.6 L 21.9 147.0 L 16.8 147.0 L 16.8 151.6 L 15.5 151.6 L 15.5 141.7 " fill="#FF0000"/>
<path class="atom-21" d="M 25.3 146.6 Q 25.3 144.2, 26.4 142.9 Q 27.6 141.6, 29.8 141.6 Q 32.0 141.6, 33.1 142.9 Q 34.3 144.2, 34.3 146.6 Q 34.3 149.0, 33.1 150.4 Q 31.9 151.7, 29.8 151.7 Q 27.6 151.7, 26.4 150.4 Q 25.3 149.0, 25.3 146.6 M 29.8 150.6 Q 31.3 150.6, 32.1 149.6 Q 32.9 148.6, 32.9 146.6 Q 32.9 144.7, 32.1 143.7 Q 31.3 142.7, 29.8 142.7 Q 28.3 142.7, 27.5 143.7 Q 26.6 144.6, 26.6 146.6 Q 26.6 148.6, 27.5 149.6 Q 28.3 150.6, 29.8 150.6 " fill="#FF0000"/>
<path class="atom-24" d="M 125.8 73.6 Q 125.8 71.2, 127.0 69.9 Q 128.1 68.6, 130.3 68.6 Q 132.5 68.6, 133.7 69.9 Q 134.8 71.2, 134.8 73.6 Q 134.8 76.0, 133.7 77.4 Q 132.5 78.7, 130.3 78.7 Q 128.1 78.7, 127.0 77.4 Q 125.8 76.0, 125.8 73.6 M 130.3 77.6 Q 131.8 77.6, 132.6 76.6 Q 133.5 75.6, 133.5 73.6 Q 133.5 71.7, 132.6 70.7 Q 131.8 69.7, 130.3 69.7 Q 128.8 69.7, 128.0 70.7 Q 127.2 71.6, 127.2 73.6 Q 127.2 75.6, 128.0 76.6 Q 128.8 77.6, 130.3 77.6 " fill="#FF0000"/>
<path class="atom-24" d="M 136.4 68.7 L 137.7 68.7 L 137.7 72.9 L 142.8 72.9 L 142.8 68.7 L 144.1 68.7 L 144.1 78.6 L 142.8 78.6 L 142.8 74.0 L 137.7 74.0 L 137.7 78.6 L 136.4 78.6 L 136.4 68.7 " fill="#FF0000"/>
<path class="legend" d="M 142.7 181.9 Q 142.7 179.6, 143.4 177.7 Q 144.0 175.8, 145.3 173.8 L 146.2 174.4 Q 145.2 176.3, 144.6 178.0 Q 144.1 179.7, 144.1 181.9 Q 144.1 184.0, 144.6 185.8 Q 145.2 187.5, 146.2 189.4 L 145.3 190.0 Q 144.0 188.0, 143.4 186.1 Q 142.7 184.2, 142.7 181.9 " fill="#000000"/>
<path class="legend" d="M 147.1 177.3 Q 147.6 176.2, 148.5 175.6 Q 149.5 175.0, 150.9 175.0 Q 152.6 175.0, 153.6 175.9 Q 154.5 176.8, 154.5 178.5 Q 154.5 180.2, 153.3 181.7 Q 152.1 183.3, 149.5 185.2 L 154.7 185.2 L 154.7 186.4 L 147.1 186.4 L 147.1 185.4 Q 149.2 183.9, 150.5 182.8 Q 151.7 181.6, 152.3 180.6 Q 152.9 179.6, 152.9 178.6 Q 152.9 177.5, 152.4 176.9 Q 151.9 176.3, 150.9 176.3 Q 150.0 176.3, 149.4 176.6 Q 148.8 177.0, 148.4 177.8 L 147.1 177.3 " fill="#000000"/>
<path class="legend" d="M 159.7 181.9 Q 159.7 184.2, 159.0 186.1 Q 158.4 188.0, 157.1 190.0 L 156.2 189.4 Q 157.2 187.5, 157.7 185.8 Q 158.3 184.0, 158.3 181.9 Q 158.3 179.7, 157.7 178.0 Q 157.2 176.3, 156.2 174.4 L 157.1 173.8 Q 158.4 175.8, 159.0 177.7 Q 159.7 179.6, 159.7 181.9 " fill="#000000"/>
</g>
    <g transform="translate(304.0, 0) scale(1 1) "><line x1="5" y1="100" x2="35" y2="100" style="stroke:rgb(0,0,0);stroke-width:2"/>
  <line x1="34" y1="100" x2="29" y2="95" style="stroke:rgb(0,0,0);stroke-width:2"/>
  <line x1="34" y1="100" x2="29" y2="105" style="stroke:rgb(0,0,0);stroke-width:2"/>
</g>
    <g transform="translate(344.0, 0) scale(1 1) "><!-- END OF HEADER -->
<rect style="opacity:1.0;fill:#FFFFFF;stroke:none" width="215.0" height="200.0" x="0.0" y="0.0"> </rect>
<path class="bond-0 atom-0 atom-1" d="M 183.7,56.0 L 158.3,99.9" style="fill:none;fill-rule:evenodd;stroke:#000000;stroke-width:2.0px;stroke-linecap:butt;stroke-linejoin:miter;stroke-opacity:1"/>
<path class="bond-1 atom-1 atom-2" d="M 158.3,99.9 L 168.4,117.4" style="fill:none;fill-rule:evenodd;stroke:#000000;stroke-width:2.0px;stroke-linecap:butt;stroke-linejoin:miter;stroke-opacity:1"/>
<path class="bond-1 atom-1 atom-2" d="M 168.4,117.4 L 178.5,134.9" style="fill:none;fill-rule:evenodd;stroke:#FF0000;stroke-width:2.0px;stroke-linecap:butt;stroke-linejoin:miter;stroke-opacity:1"/>
<path class="bond-2 atom-1 atom-3" d="M 158.3,99.9 L 107.6,99.9" style="fill:none;fill-rule:evenodd;stroke:#000000;stroke-width:2.0px;stroke-linecap:butt;stroke-linejoin:miter;stroke-opacity:1"/>
<path class="bond-3 atom-3 atom-4" d="M 107.6,99.9 L 107.6,49.2" style="fill:none;fill-rule:evenodd;stroke:#000000;stroke-width:2.0px;stroke-linecap:butt;stroke-linejoin:miter;stroke-opacity:1"/>
<path class="bond-4 atom-3 atom-5" d="M 107.6,99.9 L 107.6,150.6" style="fill:none;fill-rule:evenodd;stroke:#000000;stroke-width:2.0px;stroke-linecap:butt;stroke-linejoin:miter;stroke-opacity:1"/>
<path class="bond-5 atom-3 atom-6" d="M 107.6,99.9 L 56.9,99.9" style="fill:none;fill-rule:evenodd;stroke:#000000;stroke-width:2.0px;stroke-linecap:butt;stroke-linejoin:miter;stroke-opacity:1"/>
<path class="bond-6 atom-6 atom-7" d="M 54.7,96.1 L 44.0,114.5" style="fill:none;fill-rule:evenodd;stroke:#000000;stroke-width:2.0px;stroke-linecap:butt;stroke-linejoin:miter;stroke-opacity:1"/>
<path class="bond-6 atom-6 atom-7" d="M 44.0,114.5 L 33.4,133.0" style="fill:none;fill-rule:evenodd;stroke:#FF0000;stroke-width:2.0px;stroke-linecap:butt;stroke-linejoin:miter;stroke-opacity:1"/>
<path class="bond-6 atom-6 atom-7" d="M 61.3,99.9 L 50.6,118.3" style="fill:none;fill-rule:evenodd;stroke:#000000;stroke-width:2.0px;stroke-linecap:butt;stroke-linejoin:miter;stroke-opacity:1"/>
<path class="bond-6 atom-6 atom-7" d="M 50.6,118.3 L 40.0,136.8" style="fill:none;fill-rule:evenodd;stroke:#FF0000;stroke-width:2.0px;stroke-linecap:butt;stroke-linejoin:miter;stroke-opacity:1"/>
<path class="bond-7 atom-6 atom-8" d="M 56.9,99.9 L 46.9,82.5" style="fill:none;fill-rule:evenodd;stroke:#000000;stroke-width:2.0px;stroke-linecap:butt;stroke-linejoin:miter;stroke-opacity:1"/>
<path class="bond-7 atom-6 atom-8" d="M 46.9,82.5 L 36.8,65.1" style="fill:none;fill-rule:evenodd;stroke:#FF0000;stroke-width:2.0px;stroke-linecap:butt;stroke-linejoin:miter;stroke-opacity:1"/>
<path d="M 59.4,99.9 L 56.9,99.9 L 56.4,99.0" style="fill:none;stroke:#000000;stroke-width:2.0px;stroke-linecap:butt;stroke-linejoin:miter;stroke-opacity:1;"/>
<path class="atom-2" d="M 177.1 143.9 Q 177.1 140.4, 178.8 138.5 Q 180.5 136.5, 183.7 136.5 Q 186.9 136.5, 188.6 138.5 Q 190.3 140.4, 190.3 143.9 Q 190.3 147.3, 188.6 149.3 Q 186.8 151.3, 183.7 151.3 Q 180.5 151.3, 178.8 149.3 Q 177.1 147.4, 177.1 143.9 M 183.7 149.7 Q 185.9 149.7, 187.0 148.2 Q 188.2 146.7, 188.2 143.9 Q 188.2 141.0, 187.0 139.6 Q 185.9 138.2, 183.7 138.2 Q 181.5 138.2, 180.3 139.6 Q 179.1 141.0, 179.1 143.9 Q 179.1 146.8, 180.3 148.2 Q 181.5 149.7, 183.7 149.7 " fill="#FF0000"/>
<path class="atom-2" d="M 192.5 136.7 L 194.5 136.7 L 194.5 142.8 L 201.8 142.8 L 201.8 136.7 L 203.7 136.7 L 203.7 151.1 L 201.8 151.1 L 201.8 144.4 L 194.5 144.4 L 194.5 151.1 L 192.5 151.1 L 192.5 136.7 " fill="#FF0000"/>
<path class="atom-7" d="M 24.9 143.9 Q 24.9 140.4, 26.6 138.5 Q 28.3 136.5, 31.5 136.5 Q 34.7 136.5, 36.4 138.5 Q 38.1 140.4, 38.1 143.9 Q 38.1 147.3, 36.4 149.3 Q 34.7 151.3, 31.5 151.3 Q 28.4 151.3, 26.6 149.3 Q 24.9 147.4, 24.9 143.9 M 31.5 149.7 Q 33.7 149.7, 34.9 148.2 Q 36.1 146.7, 36.1 143.9 Q 36.1 141.0, 34.9 139.6 Q 33.7 138.2, 31.5 138.2 Q 29.3 138.2, 28.1 139.6 Q 27.0 141.0, 27.0 143.9 Q 27.0 146.8, 28.1 148.2 Q 29.3 149.7, 31.5 149.7 " fill="#FF0000"/>
<path class="atom-8" d="M 10.7 48.9 L 12.7 48.9 L 12.7 55.0 L 20.0 55.0 L 20.0 48.9 L 22.0 48.9 L 22.0 63.2 L 20.0 63.2 L 20.0 56.6 L 12.7 56.6 L 12.7 63.2 L 10.7 63.2 L 10.7 48.9 " fill="#FF0000"/>
<path class="atom-8" d="M 24.9 56.0 Q 24.9 52.6, 26.6 50.6 Q 28.3 48.7, 31.5 48.7 Q 34.7 48.7, 36.4 50.6 Q 38.1 52.6, 38.1 56.0 Q 38.1 59.5, 36.4 61.5 Q 34.7 63.5, 31.5 63.5 Q 28.4 63.5, 26.6 61.5 Q 24.9 59.5, 24.9 56.0 M 31.5 61.8 Q 33.7 61.8, 34.9 60.4 Q 36.1 58.9, 36.1 56.0 Q 36.1 53.2, 34.9 51.8 Q 33.7 50.3, 31.5 50.3 Q 29.3 50.3, 28.1 51.7 Q 27.0 53.2, 27.0 56.0 Q 27.0 58.9, 28.1 60.4 Q 29.3 61.8, 31.5 61.8 " fill="#FF0000"/>
</g>
    <g transform="translate(559.0, 0) scale(1 1) "><line x1="15" y1="100" x2="25" y2="100" style="stroke:rgb(0,0,0);stroke-width:2"/>
  <line x1="20" y1="95" x2="20" y2="105" style="stroke:rgb(0,0,0);stroke-width:2"/>
</g>
    <g transform="translate(599.0, 0) scale(1 1) "><!-- END OF HEADER -->
<rect style="opacity:1.0;fill:#FFFFFF;stroke:none" width="347.0" height="200.0" x="0.0" y="0.0"> </rect>
<path class="bond-0 atom-0 atom-1" d="M 130.4,30.3 L 137.2,54.0" style="fill:none;fill-rule:evenodd;stroke:#000000;stroke-width:2.0px;stroke-linecap:butt;stroke-linejoin:miter;stroke-opacity:1"/>
<path class="bond-1 atom-1 atom-2" d="M 137.2,54.0 L 120.1,71.7" style="fill:none;fill-rule:evenodd;stroke:#000000;stroke-width:2.0px;stroke-linecap:butt;stroke-linejoin:miter;stroke-opacity:1"/>
<path class="bond-2 atom-2 atom-3" d="M 120.1,71.7 L 127.0,95.4" style="fill:none;fill-rule:evenodd;stroke:#000000;stroke-width:2.0px;stroke-linecap:butt;stroke-linejoin:miter;stroke-opacity:1"/>
<path class="bond-3 atom-3 atom-4" d="M 127.0,95.4 L 132.6,97.5" style="fill:none;fill-rule:evenodd;stroke:#000000;stroke-width:2.0px;stroke-linecap:butt;stroke-linejoin:miter;stroke-opacity:1"/>
<path class="bond-3 atom-3 atom-4" d="M 132.6,97.5 L 138.1,99.7" style="fill:none;fill-rule:evenodd;stroke:#FF0000;stroke-width:2.0px;stroke-linecap:butt;stroke-linejoin:miter;stroke-opacity:1"/>
<path class="bond-4 atom-3 atom-5" d="M 127.0,95.4 L 109.9,113.2" style="fill:none;fill-rule:evenodd;stroke:#000000;stroke-width:2.0px;stroke-linecap:butt;stroke-linejoin:miter;stroke-opacity:1"/>
<path class="bond-5 atom-5 atom-6" d="M 109.9,113.2 L 117.8,131.6" style="fill:none;fill-rule:evenodd;stroke:#000000;stroke-width:2.0px;stroke-linecap:butt;stroke-linejoin:miter;stroke-opacity:1"/>
<path class="bond-6 atom-5 atom-7" d="M 109.9,113.2 L 86.0,107.3" style="fill:none;fill-rule:evenodd;stroke:#000000;stroke-width:2.0px;stroke-linecap:butt;stroke-linejoin:miter;stroke-opacity:1"/>
<path class="bond-7 atom-7 atom-8" d="M 86.0,107.3 L 68.9,125.1" style="fill:none;fill-rule:evenodd;stroke:#000000;stroke-width:2.0px;stroke-linecap:butt;stroke-linejoin:miter;stroke-opacity:1"/>
<path class="bond-8 atom-8 atom-9" d="M 68.9,125.1 L 51.8,142.8" style="fill:none;fill-rule:evenodd;stroke:#000000;stroke-width:2.0px;stroke-linecap:butt;stroke-linejoin:miter;stroke-opacity:1"/>
<path class="bond-9 atom-8 atom-10" d="M 68.9,125.1 L 51.1,108.0" style="fill:none;fill-rule:evenodd;stroke:#000000;stroke-width:2.0px;stroke-linecap:butt;stroke-linejoin:miter;stroke-opacity:1"/>
<path class="bond-10 atom-10 atom-11" d="M 52.6,109.4 L 55.1,99.1" style="fill:none;fill-rule:evenodd;stroke:#000000;stroke-width:2.0px;stroke-linecap:butt;stroke-linejoin:miter;stroke-opacity:1"/>
<path class="bond-10 atom-10 atom-11" d="M 55.1,99.1 L 57.7,88.9" style="fill:none;fill-rule:evenodd;stroke:#FF0000;stroke-width:2.0px;stroke-linecap:butt;stroke-linejoin:miter;stroke-opacity:1"/>
<path class="bond-10 atom-10 atom-11" d="M 49.2,108.6 L 51.7,98.3" style="fill:none;fill-rule:evenodd;stroke:#000000;stroke-width:2.0px;stroke-linecap:butt;stroke-linejoin:miter;stroke-opacity:1"/>
<path class="bond-10 atom-10 atom-11" d="M 51.7,98.3 L 54.2,88.0" style="fill:none;fill-rule:evenodd;stroke:#FF0000;stroke-width:2.0px;stroke-linecap:butt;stroke-linejoin:miter;stroke-opacity:1"/>
<path class="bond-11 atom-10 atom-12" d="M 51.1,108.0 L 41.3,110.8" style="fill:none;fill-rule:evenodd;stroke:#000000;stroke-width:2.0px;stroke-linecap:butt;stroke-linejoin:miter;stroke-opacity:1"/>
<path class="bond-11 atom-10 atom-12" d="M 41.3,110.8 L 31.4,113.7" style="fill:none;fill-rule:evenodd;stroke:#FF0000;stroke-width:2.0px;stroke-linecap:butt;stroke-linejoin:miter;stroke-opacity:1"/>
<path class="bond-12 atom-8 atom-13" d="M 68.9,125.1 L 86.7,142.1" style="fill:none;fill-rule:evenodd;stroke:#000000;stroke-width:2.0px;stroke-linecap:butt;stroke-linejoin:miter;stroke-opacity:1"/>
<path class="bond-13 atom-13 atom-14" d="M 86.7,142.1 L 106.4,139.0" style="fill:none;fill-rule:evenodd;stroke:#000000;stroke-width:2.0px;stroke-linecap:butt;stroke-linejoin:miter;stroke-opacity:1"/>
<path class="bond-14 atom-13 atom-15" d="M 86.7,142.1 L 84.3,152.0" style="fill:none;fill-rule:evenodd;stroke:#000000;stroke-width:2.0px;stroke-linecap:butt;stroke-linejoin:miter;stroke-opacity:1"/>
<path class="bond-14 atom-13 atom-15" d="M 84.3,152.0 L 81.8,161.8" style="fill:none;fill-rule:evenodd;stroke:#FF0000;stroke-width:2.0px;stroke-linecap:butt;stroke-linejoin:miter;stroke-opacity:1"/>
<path class="bond-15 atom-1 atom-16" d="M 137.2,54.0 L 161.2,59.9" style="fill:none;fill-rule:evenodd;stroke:#000000;stroke-width:2.0px;stroke-linecap:butt;stroke-linejoin:miter;stroke-opacity:1"/>
<path class="bond-16 atom-16 atom-17" d="M 161.2,59.9 L 168.0,83.5" style="fill:none;fill-rule:evenodd;stroke:#000000;stroke-width:2.0px;stroke-linecap:butt;stroke-linejoin:miter;stroke-opacity:1"/>
<path class="bond-17 atom-17 atom-18" d="M 168.0,83.5 L 164.8,87.9" style="fill:none;fill-rule:evenodd;stroke:#000000;stroke-width:2.0px;stroke-linecap:butt;stroke-linejoin:miter;stroke-opacity:1"/>
<path class="bond-17 atom-17 atom-18" d="M 164.8,87.9 L 161.5,92.2" style="fill:none;fill-rule:evenodd;stroke:#FF0000;stroke-width:2.0px;stroke-linecap:butt;stroke-linejoin:miter;stroke-opacity:1"/>
<path class="bond-18 atom-17 atom-19" d="M 168.0,83.5 L 192.0,89.4" style="fill:none;fill-rule:evenodd;stroke:#000000;stroke-width:2.0px;stroke-linecap:butt;stroke-linejoin:miter;stroke-opacity:1"/>
<path class="bond-19 atom-19 atom-20" d="M 192.0,89.4 L 197.9,65.5" style="fill:none;fill-rule:evenodd;stroke:#000000;stroke-width:2.0px;stroke-linecap:butt;stroke-linejoin:miter;stroke-opacity:1"/>
<path class="bond-20 atom-19 atom-21" d="M 192.0,89.4 L 186.1,113.4" style="fill:none;fill-rule:evenodd;stroke:#000000;stroke-width:2.0px;stroke-linecap:butt;stroke-linejoin:miter;stroke-opacity:1"/>
<path class="bond-21 atom-21 atom-22" d="M 186.1,113.4 L 203.8,130.5" style="fill:none;fill-rule:evenodd;stroke:#000000;stroke-width:2.0px;stroke-linecap:butt;stroke-linejoin:miter;stroke-opacity:1"/>
<path class="bond-22 atom-22 atom-23" d="M 203.8,130.5 L 197.9,154.4" style="fill:none;fill-rule:evenodd;stroke:#000000;stroke-width:2.0px;stroke-linecap:butt;stroke-linejoin:miter;stroke-opacity:1"/>
<path class="bond-23 atom-22 atom-24" d="M 203.8,130.5 L 227.5,123.6" style="fill:none;fill-rule:evenodd;stroke:#000000;stroke-width:2.0px;stroke-linecap:butt;stroke-linejoin:miter;stroke-opacity:1"/>
<path class="bond-24 atom-24 atom-25" d="M 227.5,123.6 L 245.3,140.7" style="fill:none;fill-rule:evenodd;stroke:#000000;stroke-width:2.0px;stroke-linecap:butt;stroke-linejoin:miter;stroke-opacity:1"/>
<path class="bond-25 atom-25 atom-26" d="M 245.3,140.7 L 242.9,150.5" style="fill:none;fill-rule:evenodd;stroke:#000000;stroke-width:2.0px;stroke-linecap:butt;stroke-linejoin:miter;stroke-opacity:1"/>
<path class="bond-25 atom-25 atom-26" d="M 242.9,150.5 L 240.5,160.3" style="fill:none;fill-rule:evenodd;stroke:#FF0000;stroke-width:2.0px;stroke-linecap:butt;stroke-linejoin:miter;stroke-opacity:1"/>
<path class="bond-26 atom-25 atom-27" d="M 245.3,140.7 L 269.0,133.8" style="fill:none;fill-rule:evenodd;stroke:#000000;stroke-width:2.0px;stroke-linecap:butt;stroke-linejoin:miter;stroke-opacity:1"/>
<path class="bond-27 atom-27 atom-28" d="M 269.0,133.8 L 281.6,149.3" style="fill:none;fill-rule:evenodd;stroke:#000000;stroke-width:2.0px;stroke-linecap:butt;stroke-linejoin:miter;stroke-opacity:1"/>
<path class="bond-28 atom-27 atom-29" d="M 269.0,133.8 L 274.9,109.9" style="fill:none;fill-rule:evenodd;stroke:#000000;stroke-width:2.0px;stroke-linecap:butt;stroke-linejoin:miter;stroke-opacity:1"/>
<path class="bond-29 atom-29 atom-30" d="M 274.9,109.9 L 298.6,103.0" style="fill:none;fill-rule:evenodd;stroke:#000000;stroke-width:2.0px;stroke-linecap:butt;stroke-linejoin:miter;stroke-opacity:1"/>
<path class="bond-30 atom-30 atom-31" d="M 298.6,103.0 L 322.2,96.2" style="fill:none;fill-rule:evenodd;stroke:#000000;stroke-width:2.0px;stroke-linecap:butt;stroke-linejoin:miter;stroke-opacity:1"/>
<path class="bond-31 atom-30 atom-32" d="M 298.6,103.0 L 291.7,79.4" style="fill:none;fill-rule:evenodd;stroke:#000000;stroke-width:2.0px;stroke-linecap:butt;stroke-linejoin:miter;stroke-opacity:1"/>
<path class="bond-32 atom-32 atom-33" d="M 293.1,77.9 L 282.6,75.3" style="fill:none;fill-rule:evenodd;stroke:#000000;stroke-width:2.0px;stroke-linecap:butt;stroke-linejoin:miter;stroke-opacity:1"/>
<path class="bond-32 atom-32 atom-33" d="M 282.6,75.3 L 272.2,72.7" style="fill:none;fill-rule:evenodd;stroke:#FF0000;stroke-width:2.0px;stroke-linecap:butt;stroke-linejoin:miter;stroke-opacity:1"/>
<path class="bond-32 atom-32 atom-33" d="M 292.3,81.3 L 281.8,78.7" style="fill:none;fill-rule:evenodd;stroke:#000000;stroke-width:2.0px;stroke-linecap:butt;stroke-linejoin:miter;stroke-opacity:1"/>
<path class="bond-32 atom-32 atom-33" d="M 281.8,78.7 L 271.3,76.1" style="fill:none;fill-rule:evenodd;stroke:#FF0000;stroke-width:2.0px;stroke-linecap:butt;stroke-linejoin:miter;stroke-opacity:1"/>
<path class="bond-33 atom-32 atom-34" d="M 291.7,79.4 L 298.2,72.5" style="fill:none;fill-rule:evenodd;stroke:#000000;stroke-width:2.0px;stroke-linecap:butt;stroke-linejoin:miter;stroke-opacity:1"/>
<path class="bond-33 atom-32 atom-34" d="M 298.2,72.5 L 304.8,65.7" style="fill:none;fill-rule:evenodd;stroke:#FF0000;stroke-width:2.0px;stroke-linecap:butt;stroke-linejoin:miter;stroke-opacity:1"/>
<path class="bond-34 atom-30 atom-35" d="M 298.6,103.0 L 305.4,126.7" style="fill:none;fill-rule:evenodd;stroke:#000000;stroke-width:2.0px;stroke-linecap:butt;stroke-linejoin:miter;stroke-opacity:1"/>
<path class="bond-35 atom-35 atom-36" d="M 305.4,126.7 L 329.4,132.6" style="fill:none;fill-rule:evenodd;stroke:#000000;stroke-width:2.0px;stroke-linecap:butt;stroke-linejoin:miter;stroke-opacity:1"/>
<path class="bond-36 atom-35 atom-37" d="M 305.4,126.7 L 301.0,132.5" style="fill:none;fill-rule:evenodd;stroke:#000000;stroke-width:2.0px;stroke-linecap:butt;stroke-linejoin:miter;stroke-opacity:1"/>
<path class="bond-36 atom-35 atom-37" d="M 301.0,132.5 L 296.7,138.4" style="fill:none;fill-rule:evenodd;stroke:#FF0000;stroke-width:2.0px;stroke-linecap:butt;stroke-linejoin:miter;stroke-opacity:1"/>
<path class="bond-37 atom-19 atom-38" d="M 192.0,89.4 L 215.9,95.3" style="fill:none;fill-rule:evenodd;stroke:#000000;stroke-width:2.0px;stroke-linecap:butt;stroke-linejoin:miter;stroke-opacity:1"/>
<path class="bond-38 atom-38 atom-39" d="M 213.5,94.8 L 216.8,100.3" style="fill:none;fill-rule:evenodd;stroke:#000000;stroke-width:2.0px;stroke-linecap:butt;stroke-linejoin:miter;stroke-opacity:1"/>
<path class="bond-38 atom-38 atom-39" d="M 216.8,100.3 L 220.0,105.9" style="fill:none;fill-rule:evenodd;stroke:#FF0000;stroke-width:2.0px;stroke-linecap:butt;stroke-linejoin:miter;stroke-opacity:1"/>
<path class="bond-38 atom-38 atom-39" d="M 217.2,94.0 L 219.8,98.6" style="fill:none;fill-rule:evenodd;stroke:#000000;stroke-width:2.0px;stroke-linecap:butt;stroke-linejoin:miter;stroke-opacity:1"/>
<path class="bond-38 atom-38 atom-39" d="M 219.8,98.6 L 223.0,104.1" style="fill:none;fill-rule:evenodd;stroke:#FF0000;stroke-width:2.0px;stroke-linecap:butt;stroke-linejoin:miter;stroke-opacity:1"/>
<path class="bond-39 atom-38 atom-40" d="M 215.9,95.3 L 222.4,88.5" style="fill:none;fill-rule:evenodd;stroke:#000000;stroke-width:2.0px;stroke-linecap:butt;stroke-linejoin:miter;stroke-opacity:1"/>
<path class="bond-39 atom-38 atom-40" d="M 222.4,88.5 L 229.0,81.7" style="fill:none;fill-rule:evenodd;stroke:#FF0000;stroke-width:2.0px;stroke-linecap:butt;stroke-linejoin:miter;stroke-opacity:1"/>
<path d="M 121.0,70.8 L 120.1,71.7 L 120.5,72.9" style="fill:none;stroke:#000000;stroke-width:2.0px;stroke-linecap:butt;stroke-linejoin:miter;stroke-opacity:1;"/>
<path d="M 87.2,107.6 L 86.0,107.3 L 85.1,108.2" style="fill:none;stroke:#000000;stroke-width:2.0px;stroke-linecap:butt;stroke-linejoin:miter;stroke-opacity:1;"/>
<path d="M 52.0,108.8 L 51.1,108.0 L 50.6,108.1" style="fill:none;stroke:#000000;stroke-width:2.0px;stroke-linecap:butt;stroke-linejoin:miter;stroke-opacity:1;"/>
<path d="M 160.0,59.6 L 161.2,59.9 L 161.5,61.0" style="fill:none;stroke:#000000;stroke-width:2.0px;stroke-linecap:butt;stroke-linejoin:miter;stroke-opacity:1;"/>
<path d="M 186.4,112.2 L 186.1,113.4 L 186.9,114.2" style="fill:none;stroke:#000000;stroke-width:2.0px;stroke-linecap:butt;stroke-linejoin:miter;stroke-opacity:1;"/>
<path d="M 226.3,123.9 L 227.5,123.6 L 228.4,124.5" style="fill:none;stroke:#000000;stroke-width:2.0px;stroke-linecap:butt;stroke-linejoin:miter;stroke-opacity:1;"/>
<path d="M 274.6,111.1 L 274.9,109.9 L 276.1,109.5" style="fill:none;stroke:#000000;stroke-width:2.0px;stroke-linecap:butt;stroke-linejoin:miter;stroke-opacity:1;"/>
<path d="M 292.0,80.5 L 291.7,79.4 L 292.0,79.0" style="fill:none;stroke:#000000;stroke-width:2.0px;stroke-linecap:butt;stroke-linejoin:miter;stroke-opacity:1;"/>
<path d="M 214.7,95.0 L 215.9,95.3 L 216.2,95.0" style="fill:none;stroke:#000000;stroke-width:2.0px;stroke-linecap:butt;stroke-linejoin:miter;stroke-opacity:1;"/>
<path class="atom-4" d="M 138.9 101.2 Q 138.9 99.5, 139.7 98.6 Q 140.6 97.6, 142.1 97.6 Q 143.7 97.6, 144.5 98.6 Q 145.3 99.5, 145.3 101.2 Q 145.3 102.9, 144.5 103.9 Q 143.6 104.8, 142.1 104.8 Q 140.6 104.8, 139.7 103.9 Q 138.9 102.9, 138.9 101.2 M 142.1 104.0 Q 143.2 104.0, 143.8 103.3 Q 144.3 102.6, 144.3 101.2 Q 144.3 99.8, 143.8 99.1 Q 143.2 98.4, 142.1 98.4 Q 141.1 98.4, 140.5 99.1 Q 139.9 99.8, 139.9 101.2 Q 139.9 102.6, 140.5 103.3 Q 141.1 104.0, 142.1 104.0 " fill="#FF0000"/>
<path class="atom-4" d="M 146.4 97.7 L 147.4 97.7 L 147.4 100.7 L 150.9 100.7 L 150.9 97.7 L 151.9 97.7 L 151.9 104.7 L 150.9 104.7 L 150.9 101.5 L 147.4 101.5 L 147.4 104.7 L 146.4 104.7 L 146.4 97.7 " fill="#FF0000"/>
<path class="atom-11" d="M 53.8 84.1 Q 53.8 82.4, 54.7 81.5 Q 55.5 80.5, 57.0 80.5 Q 58.6 80.5, 59.4 81.5 Q 60.2 82.4, 60.2 84.1 Q 60.2 85.8, 59.4 86.7 Q 58.6 87.7, 57.0 87.7 Q 55.5 87.7, 54.7 86.7 Q 53.8 85.8, 53.8 84.1 M 57.0 86.9 Q 58.1 86.9, 58.7 86.2 Q 59.3 85.5, 59.3 84.1 Q 59.3 82.7, 58.7 82.0 Q 58.1 81.3, 57.0 81.3 Q 56.0 81.3, 55.4 82.0 Q 54.8 82.7, 54.8 84.1 Q 54.8 85.5, 55.4 86.2 Q 56.0 86.9, 57.0 86.9 " fill="#FF0000"/>
<path class="atom-12" d="M 17.4 111.4 L 18.3 111.4 L 18.3 114.4 L 21.9 114.4 L 21.9 111.4 L 22.8 111.4 L 22.8 118.4 L 21.9 118.4 L 21.9 115.2 L 18.3 115.2 L 18.3 118.4 L 17.4 118.4 L 17.4 111.4 " fill="#FF0000"/>
<path class="atom-12" d="M 24.2 114.9 Q 24.2 113.2, 25.1 112.3 Q 25.9 111.3, 27.5 111.3 Q 29.0 111.3, 29.8 112.3 Q 30.7 113.2, 30.7 114.9 Q 30.7 116.6, 29.8 117.5 Q 29.0 118.5, 27.5 118.5 Q 25.9 118.5, 25.1 117.5 Q 24.2 116.6, 24.2 114.9 M 27.5 117.7 Q 28.5 117.7, 29.1 117.0 Q 29.7 116.3, 29.7 114.9 Q 29.7 113.5, 29.1 112.8 Q 28.5 112.1, 27.5 112.1 Q 26.4 112.1, 25.8 112.8 Q 25.2 113.5, 25.2 114.9 Q 25.2 116.3, 25.8 117.0 Q 26.4 117.7, 27.5 117.7 " fill="#FF0000"/>
<path class="atom-15" d="M 77.6 166.1 Q 77.6 164.4, 78.4 163.5 Q 79.2 162.6, 80.8 162.6 Q 82.3 162.6, 83.2 163.5 Q 84.0 164.4, 84.0 166.1 Q 84.0 167.8, 83.2 168.8 Q 82.3 169.7, 80.8 169.7 Q 79.2 169.7, 78.4 168.8 Q 77.6 167.8, 77.6 166.1 M 80.8 168.9 Q 81.8 168.9, 82.4 168.2 Q 83.0 167.5, 83.0 166.1 Q 83.0 164.7, 82.4 164.0 Q 81.8 163.3, 80.8 163.3 Q 79.7 163.3, 79.1 164.0 Q 78.6 164.7, 78.6 166.1 Q 78.6 167.5, 79.1 168.2 Q 79.7 168.9, 80.8 168.9 " fill="#FF0000"/>
<path class="atom-15" d="M 85.1 162.6 L 86.0 162.6 L 86.0 165.6 L 89.6 165.6 L 89.6 162.6 L 90.5 162.6 L 90.5 169.6 L 89.6 169.6 L 89.6 166.4 L 86.0 166.4 L 86.0 169.6 L 85.1 169.6 L 85.1 162.6 " fill="#FF0000"/>
<path class="atom-18" d="M 148.2 93.0 L 149.2 93.0 L 149.2 96.0 L 152.7 96.0 L 152.7 93.0 L 153.7 93.0 L 153.7 100.0 L 152.7 100.0 L 152.7 96.8 L 149.2 96.8 L 149.2 100.0 L 148.2 100.0 L 148.2 93.0 " fill="#FF0000"/>
<path class="atom-18" d="M 155.1 96.5 Q 155.1 94.8, 155.9 93.9 Q 156.8 93.0, 158.3 93.0 Q 159.9 93.0, 160.7 93.9 Q 161.5 94.8, 161.5 96.5 Q 161.5 98.2, 160.7 99.2 Q 159.8 100.1, 158.3 100.1 Q 156.8 100.1, 155.9 99.2 Q 155.1 98.2, 155.1 96.5 M 158.3 99.3 Q 159.4 99.3, 160.0 98.6 Q 160.5 97.9, 160.5 96.5 Q 160.5 95.1, 160.0 94.4 Q 159.4 93.7, 158.3 93.7 Q 157.3 93.7, 156.7 94.4 Q 156.1 95.1, 156.1 96.5 Q 156.1 97.9, 156.7 98.6 Q 157.3 99.3, 158.3 99.3 " fill="#FF0000"/>
<path class="atom-26" d="M 236.2 164.6 Q 236.2 163.0, 237.0 162.0 Q 237.8 161.1, 239.4 161.1 Q 240.9 161.1, 241.8 162.0 Q 242.6 163.0, 242.6 164.6 Q 242.6 166.3, 241.8 167.3 Q 240.9 168.3, 239.4 168.3 Q 237.9 168.3, 237.0 167.3 Q 236.2 166.3, 236.2 164.6 M 239.4 167.5 Q 240.5 167.5, 241.0 166.8 Q 241.6 166.0, 241.6 164.6 Q 241.6 163.3, 241.0 162.6 Q 240.5 161.9, 239.4 161.9 Q 238.3 161.9, 237.7 162.6 Q 237.2 163.3, 237.2 164.6 Q 237.2 166.0, 237.7 166.8 Q 238.3 167.5, 239.4 167.5 " fill="#FF0000"/>
<path class="atom-26" d="M 243.7 161.2 L 244.6 161.2 L 244.6 164.1 L 248.2 164.1 L 248.2 161.2 L 249.1 161.2 L 249.1 168.1 L 248.2 168.1 L 248.2 164.9 L 244.6 164.9 L 244.6 168.1 L 243.7 168.1 L 243.7 161.2 " fill="#FF0000"/>
<path class="atom-33" d="M 264.6 73.5 Q 264.6 71.8, 265.4 70.9 Q 266.2 69.9, 267.8 69.9 Q 269.3 69.9, 270.1 70.9 Q 271.0 71.8, 271.0 73.5 Q 271.0 75.2, 270.1 76.1 Q 269.3 77.1, 267.8 77.1 Q 266.2 77.1, 265.4 76.1 Q 264.6 75.2, 264.6 73.5 M 267.8 76.3 Q 268.8 76.3, 269.4 75.6 Q 270.0 74.9, 270.0 73.5 Q 270.0 72.1, 269.4 71.4 Q 268.8 70.7, 267.8 70.7 Q 266.7 70.7, 266.1 71.4 Q 265.5 72.1, 265.5 73.5 Q 265.5 74.9, 266.1 75.6 Q 266.7 76.3, 267.8 76.3 " fill="#FF0000"/>
<path class="atom-34" d="M 305.6 61.6 Q 305.6 59.9, 306.4 59.0 Q 307.2 58.0, 308.8 58.0 Q 310.3 58.0, 311.2 59.0 Q 312.0 59.9, 312.0 61.6 Q 312.0 63.3, 311.1 64.3 Q 310.3 65.2, 308.8 65.2 Q 307.2 65.2, 306.4 64.3 Q 305.6 63.3, 305.6 61.6 M 308.8 64.4 Q 309.8 64.4, 310.4 63.7 Q 311.0 63.0, 311.0 61.6 Q 311.0 60.2, 310.4 59.5 Q 309.8 58.8, 308.8 58.8 Q 307.7 58.8, 307.1 59.5 Q 306.6 60.2, 306.6 61.6 Q 306.6 63.0, 307.1 63.7 Q 307.7 64.4, 308.8 64.4 " fill="#FF0000"/>
<path class="atom-34" d="M 313.1 58.1 L 314.0 58.1 L 314.0 61.1 L 317.6 61.1 L 317.6 58.1 L 318.5 58.1 L 318.5 65.1 L 317.6 65.1 L 317.6 61.9 L 314.0 61.9 L 314.0 65.1 L 313.1 65.1 L 313.1 58.1 " fill="#FF0000"/>
<path class="atom-37" d="M 283.3 139.2 L 284.3 139.2 L 284.3 142.2 L 287.9 142.2 L 287.9 139.2 L 288.8 139.2 L 288.8 146.2 L 287.9 146.2 L 287.9 143.0 L 284.3 143.0 L 284.3 146.2 L 283.3 146.2 L 283.3 139.2 " fill="#FF0000"/>
<path class="atom-37" d="M 290.2 142.7 Q 290.2 141.0, 291.1 140.1 Q 291.9 139.2, 293.4 139.2 Q 295.0 139.2, 295.8 140.1 Q 296.6 141.0, 296.6 142.7 Q 296.6 144.4, 295.8 145.4 Q 295.0 146.3, 293.4 146.3 Q 291.9 146.3, 291.1 145.4 Q 290.2 144.4, 290.2 142.7 M 293.4 145.5 Q 294.5 145.5, 295.1 144.8 Q 295.7 144.1, 295.7 142.7 Q 295.7 141.3, 295.1 140.7 Q 294.5 140.0, 293.4 140.0 Q 292.4 140.0, 291.8 140.6 Q 291.2 141.3, 291.2 142.7 Q 291.2 144.1, 291.8 144.8 Q 292.4 145.5, 293.4 145.5 " fill="#FF0000"/>
<path class="atom-39" d="M 220.8 109.4 Q 220.8 107.7, 221.6 106.7 Q 222.5 105.8, 224.0 105.8 Q 225.6 105.8, 226.4 106.7 Q 227.2 107.7, 227.2 109.4 Q 227.2 111.0, 226.4 112.0 Q 225.5 113.0, 224.0 113.0 Q 222.5 113.0, 221.6 112.0 Q 220.8 111.1, 220.8 109.4 M 224.0 112.2 Q 225.1 112.2, 225.7 111.5 Q 226.2 110.8, 226.2 109.4 Q 226.2 108.0, 225.7 107.3 Q 225.1 106.6, 224.0 106.6 Q 223.0 106.6, 222.4 107.3 Q 221.8 108.0, 221.8 109.4 Q 221.8 110.8, 222.4 111.5 Q 223.0 112.2, 224.0 112.2 " fill="#FF0000"/>
<path class="atom-40" d="M 229.8 77.6 Q 229.8 75.9, 230.6 75.0 Q 231.4 74.0, 233.0 74.0 Q 234.5 74.0, 235.4 75.0 Q 236.2 75.9, 236.2 77.6 Q 236.2 79.3, 235.3 80.2 Q 234.5 81.2, 233.0 81.2 Q 231.4 81.2, 230.6 80.2 Q 229.8 79.3, 229.8 77.6 M 233.0 80.4 Q 234.0 80.4, 234.6 79.7 Q 235.2 79.0, 235.2 77.6 Q 235.2 76.2, 234.6 75.5 Q 234.0 74.8, 233.0 74.8 Q 231.9 74.8, 231.3 75.5 Q 230.8 76.2, 230.8 77.6 Q 230.8 79.0, 231.3 79.7 Q 231.9 80.4, 233.0 80.4 " fill="#FF0000"/>
<path class="atom-40" d="M 237.3 74.1 L 238.2 74.1 L 238.2 77.1 L 241.8 77.1 L 241.8 74.1 L 242.7 74.1 L 242.7 81.1 L 241.8 81.1 L 241.8 77.9 L 238.2 77.9 L 238.2 81.1 L 237.3 81.1 L 237.3 74.1 " fill="#FF0000"/>
</g>
  </g>
</svg>
