<?xml version='1.0' encoding='ASCII' standalone='yes'?>
<svg xmlns="http://www.w3.org/2000/svg" xmlns:xlink="http://www.w3.org/1999/xlink" version="1.1" width="715.0px" viewBox="0 0 715.0 200.0" height="200.0px">
  <g>
    <g transform="translate(0, 0) scale(1 1) "><!-- END OF HEADER -->
<rect style="opacity:1.0;fill:#FFFFFF;stroke:none" width="215.0" height="200.0" x="0.0" y="0.0"> </rect>
<path class="bond-0 atom-0 atom-1" d="M 172.9,35.2 L 143.1,67.0" style="fill:none;fill-rule:evenodd;stroke:#000000;stroke-width:2.0px;stroke-linecap:butt;stroke-linejoin:miter;stroke-opacity:1"/>
<path class="bond-1 atom-1 atom-2" d="M 143.1,67.0 L 100.7,57.0" style="fill:none;fill-rule:evenodd;stroke:#000000;stroke-width:2.0px;stroke-linecap:butt;stroke-linejoin:miter;stroke-opacity:1"/>
<path class="bond-2 atom-2 atom-3" d="M 100.7,57.0 L 71.0,88.8" style="fill:none;fill-rule:evenodd;stroke:#000000;stroke-width:2.0px;stroke-linecap:butt;stroke-linejoin:miter;stroke-opacity:1"/>
<path class="bond-3 atom-3 atom-4" d="M 67.3,87.9 L 72.7,105.8" style="fill:none;fill-rule:evenodd;stroke:#000000;stroke-width:2.0px;stroke-linecap:butt;stroke-linejoin:miter;stroke-opacity:1"/>
<path class="bond-3 atom-3 atom-4" d="M 72.7,105.8 L 78.1,123.7" style="fill:none;fill-rule:evenodd;stroke:#FF0000;stroke-width:2.0px;stroke-linecap:butt;stroke-linejoin:miter;stroke-opacity:1"/>
<path class="bond-3 atom-3 atom-4" d="M 73.5,86.0 L 79.0,103.9" style="fill:none;fill-rule:evenodd;stroke:#000000;stroke-width:2.0px;stroke-linecap:butt;stroke-linejoin:miter;stroke-opacity:1"/>
<path class="bond-3 atom-3 atom-4" d="M 79.0,103.9 L 84.4,121.8" style="fill:none;fill-rule:evenodd;stroke:#FF0000;stroke-width:2.0px;stroke-linecap:butt;stroke-linejoin:miter;stroke-opacity:1"/>
<path class="bond-4 atom-3 atom-5" d="M 71.0,88.8 L 53.3,84.7" style="fill:none;fill-rule:evenodd;stroke:#000000;stroke-width:2.0px;stroke-linecap:butt;stroke-linejoin:miter;stroke-opacity:1"/>
<path class="bond-4 atom-3 atom-5" d="M 53.3,84.7 L 35.7,80.5" style="fill:none;fill-rule:evenodd;stroke:#FF0000;stroke-width:2.0px;stroke-linecap:butt;stroke-linejoin:miter;stroke-opacity:1"/>
<path class="bond-5 atom-1 atom-6" d="M 143.1,67.0 L 155.7,108.6" style="fill:none;fill-rule:evenodd;stroke:#000000;stroke-width:2.0px;stroke-linecap:butt;stroke-linejoin:miter;stroke-opacity:1"/>
<path class="bond-6 atom-6 atom-7" d="M 153.1,111.4 L 171.7,115.7" style="fill:none;fill-rule:evenodd;stroke:#000000;stroke-width:2.0px;stroke-linecap:butt;stroke-linejoin:miter;stroke-opacity:1"/>
<path class="bond-6 atom-6 atom-7" d="M 171.7,115.7 L 190.3,120.0" style="fill:none;fill-rule:evenodd;stroke:#FF0000;stroke-width:2.0px;stroke-linecap:butt;stroke-linejoin:miter;stroke-opacity:1"/>
<path class="bond-6 atom-6 atom-7" d="M 154.6,105.0 L 173.2,109.3" style="fill:none;fill-rule:evenodd;stroke:#000000;stroke-width:2.0px;stroke-linecap:butt;stroke-linejoin:miter;stroke-opacity:1"/>
<path class="bond-6 atom-6 atom-7" d="M 173.2,109.3 L 191.7,113.7" style="fill:none;fill-rule:evenodd;stroke:#FF0000;stroke-width:2.0px;stroke-linecap:butt;stroke-linejoin:miter;stroke-opacity:1"/>
<path class="bond-7 atom-6 atom-8" d="M 155.7,108.6 L 144.4,120.7" style="fill:none;fill-rule:evenodd;stroke:#000000;stroke-width:2.0px;stroke-linecap:butt;stroke-linejoin:miter;stroke-opacity:1"/>
<path class="bond-7 atom-6 atom-8" d="M 144.4,120.7 L 133.0,132.8" style="fill:none;fill-rule:evenodd;stroke:#FF0000;stroke-width:2.0px;stroke-linecap:butt;stroke-linejoin:miter;stroke-opacity:1"/>
<path d="M 102.9,57.5 L 100.7,57.0 L 99.2,58.6" style="fill:none;stroke:#000000;stroke-width:2.0px;stroke-linecap:butt;stroke-linejoin:miter;stroke-opacity:1;"/>
<path d="M 72.4,87.2 L 71.0,88.8 L 70.1,88.6" style="fill:none;stroke:#000000;stroke-width:2.0px;stroke-linecap:butt;stroke-linejoin:miter;stroke-opacity:1;"/>
<path d="M 155.1,106.5 L 155.7,108.6 L 155.1,109.2" style="fill:none;stroke:#000000;stroke-width:2.0px;stroke-linecap:butt;stroke-linejoin:miter;stroke-opacity:1;"/>
<path class="atom-4" d="M 77.9 130.5 Q 77.9 127.5, 79.4 125.9 Q 80.8 124.2, 83.6 124.2 Q 86.3 124.2, 87.8 125.9 Q 89.2 127.5, 89.2 130.5 Q 89.2 133.5, 87.7 135.2 Q 86.3 136.9, 83.6 136.9 Q 80.8 136.9, 79.4 135.2 Q 77.9 133.5, 77.9 130.5 M 83.6 135.5 Q 85.4 135.5, 86.5 134.2 Q 87.5 133.0, 87.5 130.5 Q 87.5 128.1, 86.5 126.8 Q 85.4 125.6, 83.6 125.6 Q 81.7 125.6, 80.7 126.8 Q 79.6 128.0, 79.6 130.5 Q 79.6 133.0, 80.7 134.2 Q 81.7 135.5, 83.6 135.5 " fill="#FF0000"/>
<path class="atom-5" d="M 10.7 72.8 L 12.4 72.8 L 12.4 78.0 L 18.7 78.0 L 18.7 72.8 L 20.4 72.8 L 20.4 85.1 L 18.7 85.1 L 18.7 79.4 L 12.4 79.4 L 12.4 85.1 L 10.7 85.1 L 10.7 72.8 " fill="#FF0000"/>
<path class="atom-5" d="M 22.9 78.9 Q 22.9 76.0, 24.4 74.3 Q 25.8 72.6, 28.6 72.6 Q 31.3 72.6, 32.8 74.3 Q 34.2 76.0, 34.2 78.9 Q 34.2 81.9, 32.8 83.6 Q 31.3 85.3, 28.6 85.3 Q 25.9 85.3, 24.4 83.6 Q 22.9 81.9, 22.9 78.9 M 28.6 83.9 Q 30.5 83.9, 31.5 82.7 Q 32.5 81.4, 32.5 78.9 Q 32.5 76.5, 31.5 75.3 Q 30.5 74.0, 28.6 74.0 Q 26.7 74.0, 25.7 75.3 Q 24.7 76.5, 24.7 78.9 Q 24.7 81.4, 25.7 82.7 Q 26.7 83.9, 28.6 83.9 " fill="#FF0000"/>
<path class="atom-7" d="M 192.4 118.6 Q 192.4 115.6, 193.9 114.0 Q 195.4 112.3, 198.1 112.3 Q 200.8 112.3, 202.3 114.0 Q 203.7 115.6, 203.7 118.6 Q 203.7 121.6, 202.3 123.3 Q 200.8 125.0, 198.1 125.0 Q 195.4 125.0, 193.9 123.3 Q 192.4 121.6, 192.4 118.6 M 198.1 123.6 Q 200.0 123.6, 201.0 122.3 Q 202.0 121.0, 202.0 118.6 Q 202.0 116.1, 201.0 114.9 Q 200.0 113.7, 198.1 113.7 Q 196.2 113.7, 195.2 114.9 Q 194.2 116.1, 194.2 118.6 Q 194.2 121.1, 195.2 122.3 Q 196.2 123.6, 198.1 123.6 " fill="#FF0000"/>
<path class="atom-8" d="M 108.1 134.3 L 109.8 134.3 L 109.8 139.5 L 116.1 139.5 L 116.1 134.3 L 117.8 134.3 L 117.8 146.6 L 116.1 146.6 L 116.1 140.9 L 109.8 140.9 L 109.8 146.6 L 108.1 146.6 L 108.1 134.3 " fill="#FF0000"/>
<path class="atom-8" d="M 120.3 140.4 Q 120.3 137.4, 121.7 135.8 Q 123.2 134.1, 125.9 134.1 Q 128.7 134.1, 130.1 135.8 Q 131.6 137.4, 131.6 140.4 Q 131.6 143.4, 130.1 145.1 Q 128.6 146.8, 125.9 146.8 Q 123.2 146.8, 121.7 145.1 Q 120.3 143.4, 120.3 140.4 M 125.9 145.4 Q 127.8 145.4, 128.8 144.1 Q 129.9 142.9, 129.9 140.4 Q 129.9 138.0, 128.8 136.8 Q 127.8 135.5, 125.9 135.5 Q 124.1 135.5, 123.0 136.7 Q 122.0 138.0, 122.0 140.4 Q 122.0 142.9, 123.0 144.1 Q 124.1 145.4, 125.9 145.4 " fill="#FF0000"/>
<path class="legend" d="M 98.2 181.9 Q 98.2 179.6, 98.9 177.7 Q 99.6 175.8, 100.9 173.8 L 101.8 174.4 Q 100.7 176.3, 100.2 178.0 Q 99.7 179.7, 99.7 181.9 Q 99.7 184.0, 100.2 185.8 Q 100.7 187.5, 101.8 189.4 L 100.9 190.0 Q 99.6 188.0, 98.9 186.1 Q 98.2 184.2, 98.2 181.9 " fill="#000000"/>
<path class="legend" d="M 102.7 177.3 Q 103.1 176.2, 104.1 175.6 Q 105.1 175.0, 106.5 175.0 Q 108.2 175.0, 109.1 175.9 Q 110.1 176.8, 110.1 178.5 Q 110.1 180.2, 108.8 181.7 Q 107.6 183.3, 105.1 185.2 L 110.3 185.2 L 110.3 186.4 L 102.7 186.4 L 102.7 185.4 Q 104.8 183.9, 106.0 182.8 Q 107.3 181.6, 107.9 180.6 Q 108.5 179.6, 108.5 178.6 Q 108.5 177.5, 108.0 176.9 Q 107.4 176.3, 106.5 176.3 Q 105.5 176.3, 104.9 176.6 Q 104.3 177.0, 103.9 177.8 L 102.7 177.3 " fill="#000000"/>
<path class="legend" d="M 115.3 181.9 Q 115.3 184.2, 114.6 186.1 Q 113.9 188.0, 112.6 190.0 L 111.7 189.4 Q 112.8 187.5, 113.3 185.8 Q 113.8 184.0, 113.8 181.9 Q 113.8 179.7, 113.3 178.0 Q 112.8 176.3, 111.7 174.4 L 112.6 173.8 Q 113.9 175.8, 114.6 177.7 Q 115.3 179.6, 115.3 181.9 " fill="#000000"/>
</g>
    <g transform="translate(215.0, 0) scale(1 1) "><line x1="5" y1="100" x2="35" y2="100" style="stroke:rgb(0,0,0);stroke-width:2"/>
  <line x1="34" y1="100" x2="29" y2="95" style="stroke:rgb(0,0,0);stroke-width:2"/>
  <line x1="34" y1="100" x2="29" y2="105" style="stroke:rgb(0,0,0);stroke-width:2"/>
</g>
    <g transform="translate(255.0, 0) scale(1 1) "><!-- END OF HEADER -->
<rect style="opacity:1.0;fill:#FFFFFF;stroke:none" width="180.0" height="200.0" x="0.0" y="0.0"> </rect>
<path class="bond-0 atom-0 atom-1" d="M 9.0,113.2 L 48.3,97.4" style="fill:none;fill-rule:evenodd;stroke:#000000;stroke-width:2.0px;stroke-linecap:butt;stroke-linejoin:miter;stroke-opacity:1"/>
<path class="bond-1 atom-1 atom-2" d="M 48.3,97.4 L 81.6,123.6" style="fill:none;fill-rule:evenodd;stroke:#000000;stroke-width:2.0px;stroke-linecap:butt;stroke-linejoin:miter;stroke-opacity:1"/>
<path class="bond-2 atom-2 atom-3" d="M 81.6,123.6 L 120.9,107.8" style="fill:none;fill-rule:evenodd;stroke:#000000;stroke-width:2.0px;stroke-linecap:butt;stroke-linejoin:miter;stroke-opacity:1"/>
<path class="bond-3 atom-3 atom-4" d="M 123.8,110.1 L 126.4,92.0" style="fill:none;fill-rule:evenodd;stroke:#000000;stroke-width:2.0px;stroke-linecap:butt;stroke-linejoin:miter;stroke-opacity:1"/>
<path class="bond-3 atom-3 atom-4" d="M 126.4,92.0 L 129.0,74.0" style="fill:none;fill-rule:evenodd;stroke:#FF0000;stroke-width:2.0px;stroke-linecap:butt;stroke-linejoin:miter;stroke-opacity:1"/>
<path class="bond-3 atom-3 atom-4" d="M 117.5,109.2 L 120.1,91.1" style="fill:none;fill-rule:evenodd;stroke:#000000;stroke-width:2.0px;stroke-linecap:butt;stroke-linejoin:miter;stroke-opacity:1"/>
<path class="bond-3 atom-3 atom-4" d="M 120.1,91.1 L 122.7,73.1" style="fill:none;fill-rule:evenodd;stroke:#FF0000;stroke-width:2.0px;stroke-linecap:butt;stroke-linejoin:miter;stroke-opacity:1"/>
<path class="bond-4 atom-3 atom-5" d="M 120.9,107.8 L 134.1,118.2" style="fill:none;fill-rule:evenodd;stroke:#000000;stroke-width:2.0px;stroke-linecap:butt;stroke-linejoin:miter;stroke-opacity:1"/>
<path class="bond-4 atom-3 atom-5" d="M 134.1,118.2 L 147.3,128.5" style="fill:none;fill-rule:evenodd;stroke:#FF0000;stroke-width:2.0px;stroke-linecap:butt;stroke-linejoin:miter;stroke-opacity:1"/>
<path d="M 46.3,98.2 L 48.3,97.4 L 50.0,98.7" style="fill:none;stroke:#000000;stroke-width:2.0px;stroke-linecap:butt;stroke-linejoin:miter;stroke-opacity:1;"/>
<path d="M 80.0,122.2 L 81.6,123.6 L 83.6,122.8" style="fill:none;stroke:#000000;stroke-width:2.0px;stroke-linecap:butt;stroke-linejoin:miter;stroke-opacity:1;"/>
<path d="M 119.0,108.6 L 120.9,107.8 L 121.6,108.3" style="fill:none;stroke:#000000;stroke-width:2.0px;stroke-linecap:butt;stroke-linejoin:miter;stroke-opacity:1;"/>
<path class="atom-4" d="M 121.4 65.9 Q 121.4 63.0, 122.9 61.4 Q 124.3 59.8, 126.9 59.8 Q 129.6 59.8, 131.0 61.4 Q 132.4 63.0, 132.4 65.9 Q 132.4 68.8, 131.0 70.5 Q 129.6 72.1, 126.9 72.1 Q 124.3 72.1, 122.9 70.5 Q 121.4 68.8, 121.4 65.9 M 126.9 70.8 Q 128.8 70.8, 129.7 69.5 Q 130.7 68.3, 130.7 65.9 Q 130.7 63.5, 129.7 62.4 Q 128.8 61.2, 126.9 61.2 Q 125.1 61.2, 124.1 62.3 Q 123.1 63.5, 123.1 65.9 Q 123.1 68.3, 124.1 69.5 Q 125.1 70.8, 126.9 70.8 " fill="#FF0000"/>
<path class="atom-5" d="M 148.7 134.0 Q 148.7 131.1, 150.2 129.5 Q 151.6 127.9, 154.2 127.9 Q 156.9 127.9, 158.3 129.5 Q 159.7 131.1, 159.7 134.0 Q 159.7 136.9, 158.3 138.6 Q 156.9 140.2, 154.2 140.2 Q 151.6 140.2, 150.2 138.6 Q 148.7 136.9, 148.7 134.0 M 154.2 138.8 Q 156.1 138.8, 157.1 137.6 Q 158.1 136.4, 158.1 134.0 Q 158.1 131.6, 157.1 130.4 Q 156.1 129.2, 154.2 129.2 Q 152.4 129.2, 151.4 130.4 Q 150.4 131.6, 150.4 134.0 Q 150.4 136.4, 151.4 137.6 Q 152.4 138.8, 154.2 138.8 " fill="#FF0000"/>
<path class="atom-5" d="M 161.6 128.0 L 163.2 128.0 L 163.2 133.1 L 169.4 133.1 L 169.4 128.0 L 171.0 128.0 L 171.0 140.0 L 169.4 140.0 L 169.4 134.5 L 163.2 134.5 L 163.2 140.0 L 161.6 140.0 L 161.6 128.0 " fill="#FF0000"/>
</g>
    <g transform="translate(435.0, 0) scale(1 1) "><line x1="15" y1="100" x2="25" y2="100" style="stroke:rgb(0,0,0);stroke-width:2"/>
  <line x1="20" y1="95" x2="20" y2="105" style="stroke:rgb(0,0,0);stroke-width:2"/>
</g>
    <g transform="translate(475.0, 0) scale(1 1) "><!-- END OF HEADER -->
<rect style="opacity:1.0;fill:#FFFFFF;stroke:none" width="240.0" height="200.0" x="0.0" y="0.0"> </rect>
<path class="bond-0 atom-0 atom-1" d="M 73.2,60.9 L 105.8,99.9" style="fill:none;fill-rule:evenodd;stroke:#000000;stroke-width:2.0px;stroke-linecap:butt;stroke-linejoin:miter;stroke-opacity:1"/>
<path class="bond-1 atom-1 atom-2" d="M 105.8,99.9 L 138.3,138.9" style="fill:none;fill-rule:evenodd;stroke:#000000;stroke-width:2.0px;stroke-linecap:butt;stroke-linejoin:miter;stroke-opacity:1"/>
<path class="bond-2 atom-2 atom-3" d="M 138.3,138.9 L 188.4,130.2" style="fill:none;fill-rule:evenodd;stroke:#000000;stroke-width:2.0px;stroke-linecap:butt;stroke-linejoin:miter;stroke-opacity:1"/>
<path class="bond-3 atom-3 atom-4" d="M 184.2,130.9 L 197.5,146.7" style="fill:none;fill-rule:evenodd;stroke:#000000;stroke-width:2.0px;stroke-linecap:butt;stroke-linejoin:miter;stroke-opacity:1"/>
<path class="bond-3 atom-3 atom-4" d="M 197.5,146.7 L 210.7,162.6" style="fill:none;fill-rule:evenodd;stroke:#FF0000;stroke-width:2.0px;stroke-linecap:butt;stroke-linejoin:miter;stroke-opacity:1"/>
<path class="bond-3 atom-3 atom-4" d="M 190.2,126.7 L 203.1,142.1" style="fill:none;fill-rule:evenodd;stroke:#000000;stroke-width:2.0px;stroke-linecap:butt;stroke-linejoin:miter;stroke-opacity:1"/>
<path class="bond-3 atom-3 atom-4" d="M 203.1,142.1 L 216.3,158.0" style="fill:none;fill-rule:evenodd;stroke:#FF0000;stroke-width:2.0px;stroke-linecap:butt;stroke-linejoin:miter;stroke-opacity:1"/>
<path class="bond-4 atom-3 atom-5" d="M 188.4,130.2 L 194.5,118.2" style="fill:none;fill-rule:evenodd;stroke:#000000;stroke-width:2.0px;stroke-linecap:butt;stroke-linejoin:miter;stroke-opacity:1"/>
<path class="bond-4 atom-3 atom-5" d="M 194.5,118.2 L 200.6,106.3" style="fill:none;fill-rule:evenodd;stroke:#FF0000;stroke-width:2.0px;stroke-linecap:butt;stroke-linejoin:miter;stroke-opacity:1"/>
<path class="bond-5 atom-1 atom-6" d="M 105.8,99.9 L 66.8,132.5" style="fill:none;fill-rule:evenodd;stroke:#000000;stroke-width:2.0px;stroke-linecap:butt;stroke-linejoin:miter;stroke-opacity:1"/>
<path class="bond-6 atom-6 atom-7" d="M 70.0,129.8 L 49.2,122.2" style="fill:none;fill-rule:evenodd;stroke:#000000;stroke-width:2.0px;stroke-linecap:butt;stroke-linejoin:miter;stroke-opacity:1"/>
<path class="bond-6 atom-6 atom-7" d="M 49.2,122.2 L 28.5,114.6" style="fill:none;fill-rule:evenodd;stroke:#FF0000;stroke-width:2.0px;stroke-linecap:butt;stroke-linejoin:miter;stroke-opacity:1"/>
<path class="bond-6 atom-6 atom-7" d="M 67.5,136.6 L 46.8,129.0" style="fill:none;fill-rule:evenodd;stroke:#000000;stroke-width:2.0px;stroke-linecap:butt;stroke-linejoin:miter;stroke-opacity:1"/>
<path class="bond-6 atom-6 atom-7" d="M 46.8,129.0 L 26.0,121.4" style="fill:none;fill-rule:evenodd;stroke:#FF0000;stroke-width:2.0px;stroke-linecap:butt;stroke-linejoin:miter;stroke-opacity:1"/>
<path class="bond-7 atom-6 atom-8" d="M 66.8,132.5 L 70.3,153.0" style="fill:none;fill-rule:evenodd;stroke:#000000;stroke-width:2.0px;stroke-linecap:butt;stroke-linejoin:miter;stroke-opacity:1"/>
<path class="bond-7 atom-6 atom-8" d="M 70.3,153.0 L 73.9,173.6" style="fill:none;fill-rule:evenodd;stroke:#FF0000;stroke-width:2.0px;stroke-linecap:butt;stroke-linejoin:miter;stroke-opacity:1"/>
<path class="bond-8 atom-1 atom-9" d="M 105.8,99.9 L 144.7,67.3" style="fill:none;fill-rule:evenodd;stroke:#000000;stroke-width:2.0px;stroke-linecap:butt;stroke-linejoin:miter;stroke-opacity:1"/>
<path class="bond-9 atom-9 atom-10" d="M 148.6,68.2 L 144.9,47.0" style="fill:none;fill-rule:evenodd;stroke:#000000;stroke-width:2.0px;stroke-linecap:butt;stroke-linejoin:miter;stroke-opacity:1"/>
<path class="bond-9 atom-9 atom-10" d="M 144.9,47.0 L 141.2,25.7" style="fill:none;fill-rule:evenodd;stroke:#FF0000;stroke-width:2.0px;stroke-linecap:butt;stroke-linejoin:miter;stroke-opacity:1"/>
<path class="bond-9 atom-9 atom-10" d="M 141.5,70.0 L 137.7,48.2" style="fill:none;fill-rule:evenodd;stroke:#000000;stroke-width:2.0px;stroke-linecap:butt;stroke-linejoin:miter;stroke-opacity:1"/>
<path class="bond-9 atom-9 atom-10" d="M 137.7,48.2 L 134.0,27.0" style="fill:none;fill-rule:evenodd;stroke:#FF0000;stroke-width:2.0px;stroke-linecap:butt;stroke-linejoin:miter;stroke-opacity:1"/>
<path class="bond-10 atom-9 atom-11" d="M 144.7,67.3 L 158.7,70.6" style="fill:none;fill-rule:evenodd;stroke:#000000;stroke-width:2.0px;stroke-linecap:butt;stroke-linejoin:miter;stroke-opacity:1"/>
<path class="bond-10 atom-9 atom-11" d="M 158.7,70.6 L 172.6,73.8" style="fill:none;fill-rule:evenodd;stroke:#FF0000;stroke-width:2.0px;stroke-linecap:butt;stroke-linejoin:miter;stroke-opacity:1"/>
<path d="M 136.7,136.9 L 138.3,138.9 L 140.8,138.4" style="fill:none;stroke:#000000;stroke-width:2.0px;stroke-linecap:butt;stroke-linejoin:miter;stroke-opacity:1;"/>
<path d="M 185.9,130.6 L 188.4,130.2 L 188.7,129.6" style="fill:none;stroke:#000000;stroke-width:2.0px;stroke-linecap:butt;stroke-linejoin:miter;stroke-opacity:1;"/>
<path d="M 68.7,130.8 L 66.8,132.5 L 66.9,133.5" style="fill:none;stroke:#000000;stroke-width:2.0px;stroke-linecap:butt;stroke-linejoin:miter;stroke-opacity:1;"/>
<path d="M 142.8,69.0 L 144.7,67.3 L 145.4,67.5" style="fill:none;stroke:#000000;stroke-width:2.0px;stroke-linecap:butt;stroke-linejoin:miter;stroke-opacity:1;"/>
<path class="atom-4" d="M 214.3 169.2 Q 214.3 165.7, 216.0 163.8 Q 217.7 161.9, 220.9 161.9 Q 224.1 161.9, 225.8 163.8 Q 227.5 165.7, 227.5 169.2 Q 227.5 172.7, 225.8 174.7 Q 224.1 176.7, 220.9 176.7 Q 217.8 176.7, 216.0 174.7 Q 214.3 172.7, 214.3 169.2 M 220.9 175.0 Q 223.1 175.0, 224.3 173.6 Q 225.5 172.1, 225.5 169.2 Q 225.5 166.4, 224.3 165.0 Q 223.1 163.5, 220.9 163.5 Q 218.7 163.5, 217.5 164.9 Q 216.4 166.4, 216.4 169.2 Q 216.4 172.1, 217.5 173.6 Q 218.7 175.0, 220.9 175.0 " fill="#FF0000"/>
<path class="atom-5" d="M 198.7 97.3 Q 198.7 93.8, 200.4 91.9 Q 202.1 89.9, 205.3 89.9 Q 208.4 89.9, 210.2 91.9 Q 211.9 93.8, 211.9 97.3 Q 211.9 100.7, 210.1 102.7 Q 208.4 104.7, 205.3 104.7 Q 202.1 104.7, 200.4 102.7 Q 198.7 100.8, 198.7 97.3 M 205.3 103.1 Q 207.5 103.1, 208.6 101.6 Q 209.8 100.1, 209.8 97.3 Q 209.8 94.4, 208.6 93.0 Q 207.5 91.6, 205.3 91.6 Q 203.1 91.6, 201.9 93.0 Q 200.7 94.4, 200.7 97.3 Q 200.7 100.2, 201.9 101.6 Q 203.1 103.1, 205.3 103.1 " fill="#FF0000"/>
<path class="atom-5" d="M 214.1 90.1 L 216.0 90.1 L 216.0 96.2 L 223.4 96.2 L 223.4 90.1 L 225.4 90.1 L 225.4 104.5 L 223.4 104.5 L 223.4 97.8 L 216.0 97.8 L 216.0 104.5 L 214.1 104.5 L 214.1 90.1 " fill="#FF0000"/>
<path class="atom-7" d="M 12.5 115.0 Q 12.5 111.6, 14.2 109.6 Q 15.9 107.7, 19.1 107.7 Q 22.3 107.7, 24.0 109.6 Q 25.7 111.6, 25.7 115.0 Q 25.7 118.5, 23.9 120.5 Q 22.2 122.5, 19.1 122.5 Q 15.9 122.5, 14.2 120.5 Q 12.5 118.5, 12.5 115.0 M 19.1 120.8 Q 21.3 120.8, 22.4 119.4 Q 23.6 117.9, 23.6 115.0 Q 23.6 112.2, 22.4 110.8 Q 21.3 109.3, 19.1 109.3 Q 16.9 109.3, 15.7 110.7 Q 14.5 112.2, 14.5 115.0 Q 14.5 117.9, 15.7 119.4 Q 16.9 120.8, 19.1 120.8 " fill="#FF0000"/>
<path class="atom-8" d="M 68.9 182.5 Q 68.9 179.1, 70.6 177.2 Q 72.3 175.2, 75.5 175.2 Q 78.7 175.2, 80.4 177.2 Q 82.1 179.1, 82.1 182.5 Q 82.1 186.0, 80.3 188.0 Q 78.6 190.0, 75.5 190.0 Q 72.3 190.0, 70.6 188.0 Q 68.9 186.1, 68.9 182.5 M 75.5 188.4 Q 77.7 188.4, 78.8 186.9 Q 80.0 185.4, 80.0 182.5 Q 80.0 179.7, 78.8 178.3 Q 77.7 176.9, 75.5 176.9 Q 73.3 176.9, 72.1 178.3 Q 70.9 179.7, 70.9 182.5 Q 70.9 185.4, 72.1 186.9 Q 73.3 188.4, 75.5 188.4 " fill="#FF0000"/>
<path class="atom-8" d="M 84.3 175.4 L 86.3 175.4 L 86.3 181.5 L 93.6 181.5 L 93.6 175.4 L 95.6 175.4 L 95.6 189.8 L 93.6 189.8 L 93.6 183.1 L 86.3 183.1 L 86.3 189.8 L 84.3 189.8 L 84.3 175.4 " fill="#FF0000"/>
<path class="atom-10" d="M 129.4 17.3 Q 129.4 13.9, 131.1 11.9 Q 132.8 10.0, 136.0 10.0 Q 139.2 10.0, 140.9 11.9 Q 142.6 13.9, 142.6 17.3 Q 142.6 20.8, 140.9 22.8 Q 139.2 24.8, 136.0 24.8 Q 132.9 24.8, 131.1 22.8 Q 129.4 20.8, 129.4 17.3 M 136.0 23.1 Q 138.2 23.1, 139.4 21.7 Q 140.6 20.2, 140.6 17.3 Q 140.6 14.5, 139.4 13.1 Q 138.2 11.6, 136.0 11.6 Q 133.8 11.6, 132.6 13.0 Q 131.5 14.5, 131.5 17.3 Q 131.5 20.2, 132.6 21.7 Q 133.8 23.1, 136.0 23.1 " fill="#FF0000"/>
<path class="atom-11" d="M 174.2 75.8 Q 174.2 72.3, 175.9 70.4 Q 177.6 68.5, 180.8 68.5 Q 184.0 68.5, 185.7 70.4 Q 187.4 72.3, 187.4 75.8 Q 187.4 79.3, 185.7 81.3 Q 184.0 83.2, 180.8 83.2 Q 177.6 83.2, 175.9 81.3 Q 174.2 79.3, 174.2 75.8 M 180.8 81.6 Q 183.0 81.6, 184.2 80.1 Q 185.4 78.7, 185.4 75.8 Q 185.4 73.0, 184.2 71.5 Q 183.0 70.1, 180.8 70.1 Q 178.6 70.1, 177.4 71.5 Q 176.2 72.9, 176.2 75.8 Q 176.2 78.7, 177.4 80.1 Q 178.6 81.6, 180.8 81.6 " fill="#FF0000"/>
<path class="atom-11" d="M 189.7 68.6 L 191.6 68.6 L 191.6 74.7 L 199.0 74.7 L 199.0 68.6 L 200.9 68.6 L 200.9 83.0 L 199.0 83.0 L 199.0 76.4 L 191.6 76.4 L 191.6 83.0 L 189.7 83.0 L 189.7 68.6 " fill="#FF0000"/>
</g>
  </g>
</svg>
