<?xml version='1.0' encoding='ASCII' standalone='yes'?>
<svg xmlns="http://www.w3.org/2000/svg" xmlns:xlink="http://www.w3.org/1999/xlink" version="1.1" width="899.0px" viewBox="0 0 899.0 200.0" height="200.0px">
  <g>
    <g transform="translate(0, 0) scale(1 1) "><!-- END OF HEADER -->
<rect style="opacity:1.0;fill:#FFFFFF;stroke:none" width="280.0" height="200.0" x="0.0" y="0.0"> </rect>
<path class="bond-0 atom-0 atom-1" d="M 258.1,72.7 L 237.4,88.1" style="fill:none;fill-rule:evenodd;stroke:#000000;stroke-width:2.0px;stroke-linecap:butt;stroke-linejoin:miter;stroke-opacity:1"/>
<path class="bond-0 atom-0 atom-1" d="M 255.9,69.7 L 235.2,85.1" style="fill:none;fill-rule:evenodd;stroke:#000000;stroke-width:2.0px;stroke-linecap:butt;stroke-linejoin:miter;stroke-opacity:1"/>
<path class="bond-1 atom-1 atom-2" d="M 237.2,86.0 L 214.4,76.2" style="fill:none;fill-rule:evenodd;stroke:#000000;stroke-width:2.0px;stroke-linecap:butt;stroke-linejoin:miter;stroke-opacity:1"/>
<path class="bond-2 atom-2 atom-3" d="M 214.4,76.2 L 194.6,90.9" style="fill:none;fill-rule:evenodd;stroke:#000000;stroke-width:2.0px;stroke-linecap:butt;stroke-linejoin:miter;stroke-opacity:1"/>
<path class="bond-3 atom-3 atom-4" d="M 194.6,90.9 L 171.8,81.1" style="fill:none;fill-rule:evenodd;stroke:#000000;stroke-width:2.0px;stroke-linecap:butt;stroke-linejoin:miter;stroke-opacity:1"/>
<path class="bond-4 atom-4 atom-5" d="M 173.8,82.0 L 172.5,71.4" style="fill:none;fill-rule:evenodd;stroke:#000000;stroke-width:2.0px;stroke-linecap:butt;stroke-linejoin:miter;stroke-opacity:1"/>
<path class="bond-4 atom-4 atom-5" d="M 172.5,71.4 L 171.3,60.8" style="fill:none;fill-rule:evenodd;stroke:#FF0000;stroke-width:2.0px;stroke-linecap:butt;stroke-linejoin:miter;stroke-opacity:1"/>
<path class="bond-4 atom-4 atom-5" d="M 170.1,82.4 L 168.9,71.8" style="fill:none;fill-rule:evenodd;stroke:#000000;stroke-width:2.0px;stroke-linecap:butt;stroke-linejoin:miter;stroke-opacity:1"/>
<path class="bond-4 atom-4 atom-5" d="M 168.9,71.8 L 167.6,61.2" style="fill:none;fill-rule:evenodd;stroke:#FF0000;stroke-width:2.0px;stroke-linecap:butt;stroke-linejoin:miter;stroke-opacity:1"/>
<path class="bond-5 atom-4 atom-6" d="M 171.8,81.1 L 163.9,87.0" style="fill:none;fill-rule:evenodd;stroke:#000000;stroke-width:2.0px;stroke-linecap:butt;stroke-linejoin:miter;stroke-opacity:1"/>
<path class="bond-5 atom-4 atom-6" d="M 163.9,87.0 L 156.0,92.9" style="fill:none;fill-rule:evenodd;stroke:#FF0000;stroke-width:2.0px;stroke-linecap:butt;stroke-linejoin:miter;stroke-opacity:1"/>
<path class="bond-6 atom-6 atom-7" d="M 147.9,94.2 L 138.6,90.2" style="fill:none;fill-rule:evenodd;stroke:#FF0000;stroke-width:2.0px;stroke-linecap:butt;stroke-linejoin:miter;stroke-opacity:1"/>
<path class="bond-6 atom-6 atom-7" d="M 138.6,90.2 L 129.2,86.1" style="fill:none;fill-rule:evenodd;stroke:#000000;stroke-width:2.0px;stroke-linecap:butt;stroke-linejoin:miter;stroke-opacity:1"/>
<path class="bond-7 atom-7 atom-8" d="M 129.2,86.1 L 128.0,76.1" style="fill:none;fill-rule:evenodd;stroke:#000000;stroke-width:2.0px;stroke-linecap:butt;stroke-linejoin:miter;stroke-opacity:1"/>
<path class="bond-7 atom-7 atom-8" d="M 128.0,76.1 L 126.9,66.0" style="fill:none;fill-rule:evenodd;stroke:#FF0000;stroke-width:2.0px;stroke-linecap:butt;stroke-linejoin:miter;stroke-opacity:1"/>
<path class="bond-8 atom-7 atom-9" d="M 129.2,86.1 L 109.4,100.9" style="fill:none;fill-rule:evenodd;stroke:#000000;stroke-width:2.0px;stroke-linecap:butt;stroke-linejoin:miter;stroke-opacity:1"/>
<path class="bond-9 atom-9 atom-10" d="M 107.4,100.1 L 110.4,125.7" style="fill:none;fill-rule:evenodd;stroke:#000000;stroke-width:2.0px;stroke-linecap:butt;stroke-linejoin:miter;stroke-opacity:1"/>
<path class="bond-9 atom-9 atom-10" d="M 111.1,99.6 L 114.1,125.3" style="fill:none;fill-rule:evenodd;stroke:#000000;stroke-width:2.0px;stroke-linecap:butt;stroke-linejoin:miter;stroke-opacity:1"/>
<path class="bond-10 atom-9 atom-11" d="M 109.4,100.9 L 86.6,91.1" style="fill:none;fill-rule:evenodd;stroke:#000000;stroke-width:2.0px;stroke-linecap:butt;stroke-linejoin:miter;stroke-opacity:1"/>
<path class="bond-11 atom-11 atom-12" d="M 86.6,91.1 L 66.7,105.9" style="fill:none;fill-rule:evenodd;stroke:#000000;stroke-width:2.0px;stroke-linecap:butt;stroke-linejoin:miter;stroke-opacity:1"/>
<path class="bond-12 atom-12 atom-13" d="M 66.7,105.9 L 44.0,96.1" style="fill:none;fill-rule:evenodd;stroke:#000000;stroke-width:2.0px;stroke-linecap:butt;stroke-linejoin:miter;stroke-opacity:1"/>
<path class="bond-13 atom-13 atom-14" d="M 46.0,97.0 L 44.7,86.4" style="fill:none;fill-rule:evenodd;stroke:#000000;stroke-width:2.0px;stroke-linecap:butt;stroke-linejoin:miter;stroke-opacity:1"/>
<path class="bond-13 atom-13 atom-14" d="M 44.7,86.4 L 43.5,75.8" style="fill:none;fill-rule:evenodd;stroke:#FF0000;stroke-width:2.0px;stroke-linecap:butt;stroke-linejoin:miter;stroke-opacity:1"/>
<path class="bond-13 atom-13 atom-14" d="M 42.3,97.4 L 41.0,86.8" style="fill:none;fill-rule:evenodd;stroke:#000000;stroke-width:2.0px;stroke-linecap:butt;stroke-linejoin:miter;stroke-opacity:1"/>
<path class="bond-13 atom-13 atom-14" d="M 41.0,86.8 L 39.8,76.2" style="fill:none;fill-rule:evenodd;stroke:#FF0000;stroke-width:2.0px;stroke-linecap:butt;stroke-linejoin:miter;stroke-opacity:1"/>
<path class="bond-14 atom-13 atom-15" d="M 44.0,96.1 L 36.1,102.0" style="fill:none;fill-rule:evenodd;stroke:#000000;stroke-width:2.0px;stroke-linecap:butt;stroke-linejoin:miter;stroke-opacity:1"/>
<path class="bond-14 atom-13 atom-15" d="M 36.1,102.0 L 28.2,107.9" style="fill:none;fill-rule:evenodd;stroke:#FF0000;stroke-width:2.0px;stroke-linecap:butt;stroke-linejoin:miter;stroke-opacity:1"/>
<path class="bond-15 atom-1 atom-16" d="M 237.2,86.0 L 240.0,110.6" style="fill:none;fill-rule:evenodd;stroke:#000000;stroke-width:2.0px;stroke-linecap:butt;stroke-linejoin:miter;stroke-opacity:1"/>
<path class="bond-16 atom-16 atom-17" d="M 238.3,111.8 L 248.2,116.1" style="fill:none;fill-rule:evenodd;stroke:#000000;stroke-width:2.0px;stroke-linecap:butt;stroke-linejoin:miter;stroke-opacity:1"/>
<path class="bond-16 atom-16 atom-17" d="M 248.2,116.1 L 258.0,120.3" style="fill:none;fill-rule:evenodd;stroke:#FF0000;stroke-width:2.0px;stroke-linecap:butt;stroke-linejoin:miter;stroke-opacity:1"/>
<path class="bond-16 atom-16 atom-17" d="M 239.8,108.4 L 249.6,112.7" style="fill:none;fill-rule:evenodd;stroke:#000000;stroke-width:2.0px;stroke-linecap:butt;stroke-linejoin:miter;stroke-opacity:1"/>
<path class="bond-16 atom-16 atom-17" d="M 249.6,112.7 L 259.5,116.9" style="fill:none;fill-rule:evenodd;stroke:#FF0000;stroke-width:2.0px;stroke-linecap:butt;stroke-linejoin:miter;stroke-opacity:1"/>
<path class="bond-17 atom-16 atom-18" d="M 240.0,110.6 L 232.1,116.4" style="fill:none;fill-rule:evenodd;stroke:#000000;stroke-width:2.0px;stroke-linecap:butt;stroke-linejoin:miter;stroke-opacity:1"/>
<path class="bond-17 atom-16 atom-18" d="M 232.1,116.4 L 224.2,122.3" style="fill:none;fill-rule:evenodd;stroke:#FF0000;stroke-width:2.0px;stroke-linecap:butt;stroke-linejoin:miter;stroke-opacity:1"/>
<path d="M 236.0,85.5 L 237.2,86.0 L 237.3,87.2" style="fill:none;stroke:#000000;stroke-width:2.0px;stroke-linecap:butt;stroke-linejoin:miter;stroke-opacity:1;"/>
<path d="M 215.6,76.6 L 214.4,76.2 L 213.4,76.9" style="fill:none;stroke:#000000;stroke-width:2.0px;stroke-linecap:butt;stroke-linejoin:miter;stroke-opacity:1;"/>
<path d="M 195.5,90.2 L 194.6,90.9 L 193.4,90.5" style="fill:none;stroke:#000000;stroke-width:2.0px;stroke-linecap:butt;stroke-linejoin:miter;stroke-opacity:1;"/>
<path d="M 172.9,81.6 L 171.8,81.1 L 171.4,81.4" style="fill:none;stroke:#000000;stroke-width:2.0px;stroke-linecap:butt;stroke-linejoin:miter;stroke-opacity:1;"/>
<path d="M 110.3,100.2 L 109.4,100.9 L 108.2,100.4" style="fill:none;stroke:#000000;stroke-width:2.0px;stroke-linecap:butt;stroke-linejoin:miter;stroke-opacity:1;"/>
<path d="M 87.7,91.6 L 86.6,91.1 L 85.6,91.9" style="fill:none;stroke:#000000;stroke-width:2.0px;stroke-linecap:butt;stroke-linejoin:miter;stroke-opacity:1;"/>
<path d="M 67.7,105.2 L 66.7,105.9 L 65.6,105.4" style="fill:none;stroke:#000000;stroke-width:2.0px;stroke-linecap:butt;stroke-linejoin:miter;stroke-opacity:1;"/>
<path d="M 45.1,96.6 L 44.0,96.1 L 43.6,96.4" style="fill:none;stroke:#000000;stroke-width:2.0px;stroke-linecap:butt;stroke-linejoin:miter;stroke-opacity:1;"/>
<path d="M 239.9,109.3 L 240.0,110.6 L 239.6,110.8" style="fill:none;stroke:#000000;stroke-width:2.0px;stroke-linecap:butt;stroke-linejoin:miter;stroke-opacity:1;"/>
<path class="atom-5" d="M 165.7 56.6 Q 165.7 54.9, 166.5 53.9 Q 167.4 53.0, 168.9 53.0 Q 170.5 53.0, 171.3 53.9 Q 172.2 54.9, 172.2 56.6 Q 172.2 58.3, 171.3 59.2 Q 170.5 60.2, 168.9 60.2 Q 167.4 60.2, 166.5 59.2 Q 165.7 58.3, 165.7 56.6 M 168.9 59.4 Q 170.0 59.4, 170.6 58.7 Q 171.2 58.0, 171.2 56.6 Q 171.2 55.2, 170.6 54.5 Q 170.0 53.8, 168.9 53.8 Q 167.9 53.8, 167.3 54.5 Q 166.7 55.2, 166.7 56.6 Q 166.7 58.0, 167.3 58.7 Q 167.9 59.4, 168.9 59.4 " fill="#FF0000"/>
<path class="atom-6" d="M 148.7 96.0 Q 148.7 94.3, 149.6 93.3 Q 150.4 92.4, 152.0 92.4 Q 153.5 92.4, 154.3 93.3 Q 155.2 94.3, 155.2 96.0 Q 155.2 97.7, 154.3 98.6 Q 153.5 99.6, 152.0 99.6 Q 150.4 99.6, 149.6 98.6 Q 148.7 97.7, 148.7 96.0 M 152.0 98.8 Q 153.0 98.8, 153.6 98.1 Q 154.2 97.4, 154.2 96.0 Q 154.2 94.6, 153.6 93.9 Q 153.0 93.2, 152.0 93.2 Q 150.9 93.2, 150.3 93.9 Q 149.7 94.6, 149.7 96.0 Q 149.7 97.4, 150.3 98.1 Q 150.9 98.8, 152.0 98.8 " fill="#FF0000"/>
<path class="atom-8" d="M 123.1 61.6 Q 123.1 59.9, 123.9 58.9 Q 124.8 58.0, 126.3 58.0 Q 127.9 58.0, 128.7 58.9 Q 129.5 59.9, 129.5 61.6 Q 129.5 63.3, 128.7 64.2 Q 127.9 65.2, 126.3 65.2 Q 124.8 65.2, 123.9 64.2 Q 123.1 63.3, 123.1 61.6 M 126.3 64.4 Q 127.4 64.4, 128.0 63.7 Q 128.6 63.0, 128.6 61.6 Q 128.6 60.2, 128.0 59.5 Q 127.4 58.8, 126.3 58.8 Q 125.3 58.8, 124.7 59.5 Q 124.1 60.2, 124.1 61.6 Q 124.1 63.0, 124.7 63.7 Q 125.3 64.4, 126.3 64.4 " fill="#FF0000"/>
<path class="atom-8" d="M 130.6 58.1 L 131.6 58.1 L 131.6 61.1 L 135.2 61.1 L 135.2 58.1 L 136.1 58.1 L 136.1 65.1 L 135.2 65.1 L 135.2 61.8 L 131.6 61.8 L 131.6 65.1 L 130.6 65.1 L 130.6 58.1 " fill="#FF0000"/>
<path class="atom-14" d="M 37.9 71.5 Q 37.9 69.9, 38.7 68.9 Q 39.6 68.0, 41.1 68.0 Q 42.7 68.0, 43.5 68.9 Q 44.3 69.9, 44.3 71.5 Q 44.3 73.2, 43.5 74.2 Q 42.7 75.2, 41.1 75.2 Q 39.6 75.2, 38.7 74.2 Q 37.9 73.3, 37.9 71.5 M 41.1 74.4 Q 42.2 74.4, 42.8 73.7 Q 43.4 72.9, 43.4 71.5 Q 43.4 70.2, 42.8 69.5 Q 42.2 68.8, 41.1 68.8 Q 40.1 68.8, 39.5 69.5 Q 38.9 70.2, 38.9 71.5 Q 38.9 73.0, 39.5 73.7 Q 40.1 74.4, 41.1 74.4 " fill="#FF0000"/>
<path class="atom-15" d="M 14.0 107.4 L 15.0 107.4 L 15.0 110.4 L 18.5 110.4 L 18.5 107.4 L 19.5 107.4 L 19.5 114.5 L 18.5 114.5 L 18.5 111.2 L 15.0 111.2 L 15.0 114.5 L 14.0 114.5 L 14.0 107.4 " fill="#FF0000"/>
<path class="atom-15" d="M 20.9 110.9 Q 20.9 109.2, 21.8 108.3 Q 22.6 107.4, 24.1 107.4 Q 25.7 107.4, 26.5 108.3 Q 27.4 109.2, 27.4 110.9 Q 27.4 112.6, 26.5 113.6 Q 25.7 114.6, 24.1 114.6 Q 22.6 114.6, 21.8 113.6 Q 20.9 112.6, 20.9 110.9 M 24.1 113.8 Q 25.2 113.8, 25.8 113.1 Q 26.4 112.3, 26.4 110.9 Q 26.4 109.6, 25.8 108.9 Q 25.2 108.2, 24.1 108.2 Q 23.1 108.2, 22.5 108.8 Q 21.9 109.5, 21.9 110.9 Q 21.9 112.3, 22.5 113.1 Q 23.1 113.8, 24.1 113.8 " fill="#FF0000"/>
<path class="atom-17" d="M 259.6 120.4 Q 259.6 118.7, 260.4 117.7 Q 261.2 116.8, 262.8 116.8 Q 264.3 116.8, 265.2 117.7 Q 266.0 118.7, 266.0 120.4 Q 266.0 122.1, 265.2 123.0 Q 264.3 124.0, 262.8 124.0 Q 261.2 124.0, 260.4 123.0 Q 259.6 122.1, 259.6 120.4 M 262.8 123.2 Q 263.9 123.2, 264.4 122.5 Q 265.0 121.8, 265.0 120.4 Q 265.0 119.0, 264.4 118.3 Q 263.9 117.6, 262.8 117.6 Q 261.7 117.6, 261.1 118.3 Q 260.6 119.0, 260.6 120.4 Q 260.6 121.8, 261.1 122.5 Q 261.7 123.2, 262.8 123.2 " fill="#FF0000"/>
<path class="atom-18" d="M 210.0 121.9 L 211.0 121.9 L 211.0 124.9 L 214.6 124.9 L 214.6 121.9 L 215.5 121.9 L 215.5 128.9 L 214.6 128.9 L 214.6 125.7 L 211.0 125.7 L 211.0 128.9 L 210.0 128.9 L 210.0 121.9 " fill="#FF0000"/>
<path class="atom-18" d="M 217.0 125.4 Q 217.0 123.7, 217.8 122.7 Q 218.6 121.8, 220.2 121.8 Q 221.7 121.8, 222.6 122.7 Q 223.4 123.7, 223.4 125.4 Q 223.4 127.1, 222.6 128.0 Q 221.7 129.0, 220.2 129.0 Q 218.6 129.0, 217.8 128.0 Q 217.0 127.1, 217.0 125.4 M 220.2 128.2 Q 221.2 128.2, 221.8 127.5 Q 222.4 126.8, 222.4 125.4 Q 222.4 124.0, 221.8 123.3 Q 221.2 122.6, 220.2 122.6 Q 219.1 122.6, 218.5 123.3 Q 217.9 124.0, 217.9 125.4 Q 217.9 126.8, 218.5 127.5 Q 219.1 128.2, 220.2 128.2 " fill="#FF0000"/>
<path class="legend" d="M 131.5 181.9 Q 131.5 179.6, 132.2 177.7 Q 132.8 175.8, 134.1 173.8 L 135.0 174.4 Q 134.0 176.3, 133.4 178.0 Q 132.9 179.7, 132.9 181.9 Q 132.9 184.0, 133.4 185.8 Q 134.0 187.5, 135.0 189.4 L 134.1 190.0 Q 132.8 188.0, 132.2 186.1 Q 131.5 184.2, 131.5 181.9 " fill="#000000"/>
<path class="legend" d="M 135.9 177.3 Q 136.4 176.2, 137.3 175.6 Q 138.3 175.0, 139.7 175.0 Q 141.4 175.0, 142.4 175.9 Q 143.3 176.8, 143.3 178.5 Q 143.3 180.2, 142.1 181.7 Q 140.9 183.3, 138.3 185.2 L 143.5 185.2 L 143.5 186.4 L 135.9 186.4 L 135.9 185.4 Q 138.0 183.9, 139.3 182.8 Q 140.5 181.6, 141.1 180.6 Q 141.7 179.6, 141.7 178.6 Q 141.7 177.5, 141.2 176.9 Q 140.7 176.3, 139.7 176.3 Q 138.8 176.3, 138.2 176.6 Q 137.6 177.0, 137.2 177.8 L 135.9 177.3 " fill="#000000"/>
<path class="legend" d="M 148.5 181.9 Q 148.5 184.2, 147.8 186.1 Q 147.2 188.0, 145.9 190.0 L 145.0 189.4 Q 146.0 187.5, 146.5 185.8 Q 147.1 184.0, 147.1 181.9 Q 147.1 179.7, 146.5 178.0 Q 146.0 176.3, 145.0 174.4 L 145.9 173.8 Q 147.2 175.8, 147.8 177.7 Q 148.5 179.6, 148.5 181.9 " fill="#000000"/>
</g>
    <g transform="translate(280.0, 0) scale(1 1) "><line x1="5" y1="100" x2="35" y2="100" style="stroke:rgb(0,0,0);stroke-width:2"/>
  <line x1="34" y1="100" x2="29" y2="95" style="stroke:rgb(0,0,0);stroke-width:2"/>
  <line x1="34" y1="100" x2="29" y2="105" style="stroke:rgb(0,0,0);stroke-width:2"/>
</g>
    <g transform="translate(320.0, 0) scale(1 1) "><!-- END OF HEADER -->
<rect style="opacity:1.0;fill:#FFFFFF;stroke:none" width="225.0" height="200.0" x="0.0" y="0.0"> </rect>
<path class="bond-0 atom-0 atom-1" d="M 171.6,52.6 L 147.9,83.8" style="fill:none;fill-rule:evenodd;stroke:#000000;stroke-width:2.0px;stroke-linecap:butt;stroke-linejoin:miter;stroke-opacity:1"/>
<path class="bond-0 atom-0 atom-1" d="M 167.2,49.2 L 143.4,80.3" style="fill:none;fill-rule:evenodd;stroke:#000000;stroke-width:2.0px;stroke-linecap:butt;stroke-linejoin:miter;stroke-opacity:1"/>
<path class="bond-1 atom-1 atom-2" d="M 146.7,80.8 L 109.4,76.0" style="fill:none;fill-rule:evenodd;stroke:#000000;stroke-width:2.0px;stroke-linecap:butt;stroke-linejoin:miter;stroke-opacity:1"/>
<path class="bond-2 atom-2 atom-3" d="M 109.4,76.0 L 86.6,105.9" style="fill:none;fill-rule:evenodd;stroke:#000000;stroke-width:2.0px;stroke-linecap:butt;stroke-linejoin:miter;stroke-opacity:1"/>
<path class="bond-3 atom-3 atom-4" d="M 86.6,105.9 L 49.4,101.1" style="fill:none;fill-rule:evenodd;stroke:#000000;stroke-width:2.0px;stroke-linecap:butt;stroke-linejoin:miter;stroke-opacity:1"/>
<path class="bond-4 atom-4 atom-5" d="M 52.6,101.5 L 46.5,86.8" style="fill:none;fill-rule:evenodd;stroke:#000000;stroke-width:2.0px;stroke-linecap:butt;stroke-linejoin:miter;stroke-opacity:1"/>
<path class="bond-4 atom-4 atom-5" d="M 46.5,86.8 L 40.3,72.1" style="fill:none;fill-rule:evenodd;stroke:#FF0000;stroke-width:2.0px;stroke-linecap:butt;stroke-linejoin:miter;stroke-opacity:1"/>
<path class="bond-4 atom-4 atom-5" d="M 47.4,103.7 L 41.3,89.0" style="fill:none;fill-rule:evenodd;stroke:#000000;stroke-width:2.0px;stroke-linecap:butt;stroke-linejoin:miter;stroke-opacity:1"/>
<path class="bond-4 atom-4 atom-5" d="M 41.3,89.0 L 35.1,74.3" style="fill:none;fill-rule:evenodd;stroke:#FF0000;stroke-width:2.0px;stroke-linecap:butt;stroke-linejoin:miter;stroke-opacity:1"/>
<path class="bond-5 atom-4 atom-6" d="M 49.4,101.1 L 40.5,112.7" style="fill:none;fill-rule:evenodd;stroke:#000000;stroke-width:2.0px;stroke-linecap:butt;stroke-linejoin:miter;stroke-opacity:1"/>
<path class="bond-5 atom-4 atom-6" d="M 40.5,112.7 L 31.7,124.3" style="fill:none;fill-rule:evenodd;stroke:#FF0000;stroke-width:2.0px;stroke-linecap:butt;stroke-linejoin:miter;stroke-opacity:1"/>
<path class="bond-6 atom-1 atom-7" d="M 146.7,80.8 L 161.1,115.4" style="fill:none;fill-rule:evenodd;stroke:#000000;stroke-width:2.0px;stroke-linecap:butt;stroke-linejoin:miter;stroke-opacity:1"/>
<path class="bond-7 atom-7 atom-8" d="M 161.1,115.4 L 152.3,127.0" style="fill:none;fill-rule:evenodd;stroke:#000000;stroke-width:2.0px;stroke-linecap:butt;stroke-linejoin:miter;stroke-opacity:1"/>
<path class="bond-7 atom-7 atom-8" d="M 152.3,127.0 L 143.4,138.7" style="fill:none;fill-rule:evenodd;stroke:#FF0000;stroke-width:2.0px;stroke-linecap:butt;stroke-linejoin:miter;stroke-opacity:1"/>
<path class="bond-8 atom-7 atom-9" d="M 161.1,115.4 L 176.7,117.4" style="fill:none;fill-rule:evenodd;stroke:#000000;stroke-width:2.0px;stroke-linecap:butt;stroke-linejoin:miter;stroke-opacity:1"/>
<path class="bond-8 atom-7 atom-9" d="M 176.7,117.4 L 192.3,119.4" style="fill:none;fill-rule:evenodd;stroke:#FF0000;stroke-width:2.0px;stroke-linecap:butt;stroke-linejoin:miter;stroke-opacity:1"/>
<path d="M 144.8,80.5 L 146.7,80.8 L 147.4,82.5" style="fill:none;stroke:#000000;stroke-width:2.0px;stroke-linecap:butt;stroke-linejoin:miter;stroke-opacity:1;"/>
<path d="M 111.3,76.2 L 109.4,76.0 L 108.3,77.5" style="fill:none;stroke:#000000;stroke-width:2.0px;stroke-linecap:butt;stroke-linejoin:miter;stroke-opacity:1;"/>
<path d="M 87.8,104.4 L 86.6,105.9 L 84.8,105.6" style="fill:none;stroke:#000000;stroke-width:2.0px;stroke-linecap:butt;stroke-linejoin:miter;stroke-opacity:1;"/>
<path d="M 51.3,101.3 L 49.4,101.1 L 49.0,101.7" style="fill:none;stroke:#000000;stroke-width:2.0px;stroke-linecap:butt;stroke-linejoin:miter;stroke-opacity:1;"/>
<path class="atom-5" d="M 30.0 66.5 Q 30.0 63.9, 31.3 62.5 Q 32.5 61.1, 34.9 61.1 Q 37.3 61.1, 38.5 62.5 Q 39.8 63.9, 39.8 66.5 Q 39.8 69.1, 38.5 70.5 Q 37.2 72.0, 34.9 72.0 Q 32.6 72.0, 31.3 70.5 Q 30.0 69.1, 30.0 66.5 M 34.9 70.8 Q 36.5 70.8, 37.4 69.7 Q 38.3 68.6, 38.3 66.5 Q 38.3 64.4, 37.4 63.3 Q 36.5 62.3, 34.9 62.3 Q 33.3 62.3, 32.4 63.3 Q 31.5 64.4, 31.5 66.5 Q 31.5 68.6, 32.4 69.7 Q 33.3 70.8, 34.9 70.8 " fill="#FF0000"/>
<path class="atom-6" d="M 11.2 125.7 L 12.7 125.7 L 12.7 130.2 L 18.1 130.2 L 18.1 125.7 L 19.6 125.7 L 19.6 136.3 L 18.1 136.3 L 18.1 131.4 L 12.7 131.4 L 12.7 136.3 L 11.2 136.3 L 11.2 125.7 " fill="#FF0000"/>
<path class="atom-6" d="M 21.8 131.0 Q 21.8 128.4, 23.0 127.0 Q 24.3 125.6, 26.6 125.6 Q 29.0 125.6, 30.3 127.0 Q 31.5 128.4, 31.5 131.0 Q 31.5 133.6, 30.2 135.0 Q 29.0 136.5, 26.6 136.5 Q 24.3 136.5, 23.0 135.0 Q 21.8 133.6, 21.8 131.0 M 26.6 135.3 Q 28.3 135.3, 29.1 134.2 Q 30.0 133.1, 30.0 131.0 Q 30.0 128.9, 29.1 127.8 Q 28.3 126.8, 26.6 126.8 Q 25.0 126.8, 24.1 127.8 Q 23.3 128.9, 23.3 131.0 Q 23.3 133.1, 24.1 134.2 Q 25.0 135.3, 26.6 135.3 " fill="#FF0000"/>
<path class="atom-8" d="M 123.0 140.0 L 124.4 140.0 L 124.4 144.5 L 129.9 144.5 L 129.9 140.0 L 131.3 140.0 L 131.3 150.7 L 129.9 150.7 L 129.9 145.7 L 124.4 145.7 L 124.4 150.7 L 123.0 150.7 L 123.0 140.0 " fill="#FF0000"/>
<path class="atom-8" d="M 133.5 145.3 Q 133.5 142.8, 134.8 141.3 Q 136.0 139.9, 138.4 139.9 Q 140.7 139.9, 142.0 141.3 Q 143.3 142.8, 143.3 145.3 Q 143.3 147.9, 142.0 149.4 Q 140.7 150.8, 138.4 150.8 Q 136.0 150.8, 134.8 149.4 Q 133.5 147.9, 133.5 145.3 M 138.4 149.6 Q 140.0 149.6, 140.9 148.5 Q 141.8 147.4, 141.8 145.3 Q 141.8 143.2, 140.9 142.2 Q 140.0 141.1, 138.4 141.1 Q 136.8 141.1, 135.9 142.2 Q 135.0 143.2, 135.0 145.3 Q 135.0 147.5, 135.9 148.5 Q 136.8 149.6, 138.4 149.6 " fill="#FF0000"/>
<path class="atom-9" d="M 193.5 120.2 Q 193.5 117.7, 194.8 116.2 Q 196.0 114.8, 198.4 114.8 Q 200.7 114.8, 202.0 116.2 Q 203.3 117.7, 203.3 120.2 Q 203.3 122.8, 202.0 124.3 Q 200.7 125.7, 198.4 125.7 Q 196.0 125.7, 194.8 124.3 Q 193.5 122.8, 193.5 120.2 M 198.4 124.5 Q 200.0 124.5, 200.9 123.4 Q 201.8 122.3, 201.8 120.2 Q 201.8 118.1, 200.9 117.1 Q 200.0 116.0, 198.4 116.0 Q 196.8 116.0, 195.9 117.1 Q 195.0 118.1, 195.0 120.2 Q 195.0 122.4, 195.9 123.4 Q 196.8 124.5, 198.4 124.5 " fill="#FF0000"/>
<path class="atom-9" d="M 204.9 114.9 L 206.4 114.9 L 206.4 119.4 L 211.8 119.4 L 211.8 114.9 L 213.3 114.9 L 213.3 125.6 L 211.8 125.6 L 211.8 120.6 L 206.4 120.6 L 206.4 125.6 L 204.9 125.6 L 204.9 114.9 " fill="#FF0000"/>
</g>
    <g transform="translate(545.0, 0) scale(1 1) "><line x1="15" y1="100" x2="25" y2="100" style="stroke:rgb(0,0,0);stroke-width:2"/>
  <line x1="20" y1="95" x2="20" y2="105" style="stroke:rgb(0,0,0);stroke-width:2"/>
</g>
    <g transform="translate(585.0, 0) scale(1 1) "><!-- END OF HEADER -->
<rect style="opacity:1.0;fill:#FFFFFF;stroke:none" width="314.0" height="200.0" x="0.0" y="0.0"> </rect>
<path class="bond-0 atom-0 atom-1" d="M 36.3,126.2 L 62.3,118.8" style="fill:none;fill-rule:evenodd;stroke:#000000;stroke-width:2.0px;stroke-linecap:butt;stroke-linejoin:miter;stroke-opacity:1"/>
<path class="bond-0 atom-0 atom-1" d="M 37.3,129.9 L 63.3,122.6" style="fill:none;fill-rule:evenodd;stroke:#000000;stroke-width:2.0px;stroke-linecap:butt;stroke-linejoin:miter;stroke-opacity:1"/>
<path class="bond-1 atom-1 atom-2" d="M 61.7,121.0 L 80.3,139.1" style="fill:none;fill-rule:evenodd;stroke:#000000;stroke-width:2.0px;stroke-linecap:butt;stroke-linejoin:miter;stroke-opacity:1"/>
<path class="bond-2 atom-2 atom-3" d="M 80.3,139.1 L 105.2,132.0" style="fill:none;fill-rule:evenodd;stroke:#000000;stroke-width:2.0px;stroke-linecap:butt;stroke-linejoin:miter;stroke-opacity:1"/>
<path class="bond-3 atom-3 atom-4" d="M 105.2,132.0 L 123.7,150.1" style="fill:none;fill-rule:evenodd;stroke:#000000;stroke-width:2.0px;stroke-linecap:butt;stroke-linejoin:miter;stroke-opacity:1"/>
<path class="bond-4 atom-4 atom-5" d="M 122.1,148.5 L 119.4,159.3" style="fill:none;fill-rule:evenodd;stroke:#000000;stroke-width:2.0px;stroke-linecap:butt;stroke-linejoin:miter;stroke-opacity:1"/>
<path class="bond-4 atom-4 atom-5" d="M 119.4,159.3 L 116.7,170.1" style="fill:none;fill-rule:evenodd;stroke:#FF0000;stroke-width:2.0px;stroke-linecap:butt;stroke-linejoin:miter;stroke-opacity:1"/>
<path class="bond-4 atom-4 atom-5" d="M 125.9,149.5 L 123.2,160.3" style="fill:none;fill-rule:evenodd;stroke:#000000;stroke-width:2.0px;stroke-linecap:butt;stroke-linejoin:miter;stroke-opacity:1"/>
<path class="bond-4 atom-4 atom-5" d="M 123.2,160.3 L 120.4,171.1" style="fill:none;fill-rule:evenodd;stroke:#FF0000;stroke-width:2.0px;stroke-linecap:butt;stroke-linejoin:miter;stroke-opacity:1"/>
<path class="bond-5 atom-4 atom-6" d="M 123.7,150.1 L 134.1,147.1" style="fill:none;fill-rule:evenodd;stroke:#000000;stroke-width:2.0px;stroke-linecap:butt;stroke-linejoin:miter;stroke-opacity:1"/>
<path class="bond-5 atom-4 atom-6" d="M 134.1,147.1 L 144.4,144.2" style="fill:none;fill-rule:evenodd;stroke:#FF0000;stroke-width:2.0px;stroke-linecap:butt;stroke-linejoin:miter;stroke-opacity:1"/>
<path class="bond-6 atom-6 atom-7" d="M 152.9,147.1 L 160.1,154.1" style="fill:none;fill-rule:evenodd;stroke:#FF0000;stroke-width:2.0px;stroke-linecap:butt;stroke-linejoin:miter;stroke-opacity:1"/>
<path class="bond-6 atom-6 atom-7" d="M 160.1,154.1 L 167.2,161.1" style="fill:none;fill-rule:evenodd;stroke:#000000;stroke-width:2.0px;stroke-linecap:butt;stroke-linejoin:miter;stroke-opacity:1"/>
<path class="bond-7 atom-7 atom-8" d="M 165.6,159.5 L 162.9,170.3" style="fill:none;fill-rule:evenodd;stroke:#000000;stroke-width:2.0px;stroke-linecap:butt;stroke-linejoin:miter;stroke-opacity:1"/>
<path class="bond-7 atom-7 atom-8" d="M 162.9,170.3 L 160.1,181.1" style="fill:none;fill-rule:evenodd;stroke:#FF0000;stroke-width:2.0px;stroke-linecap:butt;stroke-linejoin:miter;stroke-opacity:1"/>
<path class="bond-7 atom-7 atom-8" d="M 169.4,160.5 L 166.6,171.3" style="fill:none;fill-rule:evenodd;stroke:#000000;stroke-width:2.0px;stroke-linecap:butt;stroke-linejoin:miter;stroke-opacity:1"/>
<path class="bond-7 atom-7 atom-8" d="M 166.6,171.3 L 163.9,182.1" style="fill:none;fill-rule:evenodd;stroke:#FF0000;stroke-width:2.0px;stroke-linecap:butt;stroke-linejoin:miter;stroke-opacity:1"/>
<path class="bond-8 atom-7 atom-9" d="M 167.2,161.1 L 192.1,154.0" style="fill:none;fill-rule:evenodd;stroke:#000000;stroke-width:2.0px;stroke-linecap:butt;stroke-linejoin:miter;stroke-opacity:1"/>
<path class="bond-9 atom-9 atom-10" d="M 192.1,154.0 L 210.7,172.1" style="fill:none;fill-rule:evenodd;stroke:#000000;stroke-width:2.0px;stroke-linecap:butt;stroke-linejoin:miter;stroke-opacity:1"/>
<path class="bond-10 atom-10 atom-11" d="M 210.7,172.1 L 235.6,165.0" style="fill:none;fill-rule:evenodd;stroke:#000000;stroke-width:2.0px;stroke-linecap:butt;stroke-linejoin:miter;stroke-opacity:1"/>
<path class="bond-11 atom-11 atom-12" d="M 233.5,165.7 L 252.8,184.5" style="fill:none;fill-rule:evenodd;stroke:#000000;stroke-width:2.0px;stroke-linecap:butt;stroke-linejoin:miter;stroke-opacity:1"/>
<path class="bond-11 atom-11 atom-12" d="M 236.2,162.9 L 255.5,181.7" style="fill:none;fill-rule:evenodd;stroke:#000000;stroke-width:2.0px;stroke-linecap:butt;stroke-linejoin:miter;stroke-opacity:1"/>
<path class="bond-12 atom-11 atom-13" d="M 235.6,165.0 L 242.0,139.9" style="fill:none;fill-rule:evenodd;stroke:#000000;stroke-width:2.0px;stroke-linecap:butt;stroke-linejoin:miter;stroke-opacity:1"/>
<path class="bond-13 atom-13 atom-14" d="M 242.0,139.9 L 252.3,137.0" style="fill:none;fill-rule:evenodd;stroke:#000000;stroke-width:2.0px;stroke-linecap:butt;stroke-linejoin:miter;stroke-opacity:1"/>
<path class="bond-13 atom-13 atom-14" d="M 252.3,137.0 L 262.7,134.1" style="fill:none;fill-rule:evenodd;stroke:#FF0000;stroke-width:2.0px;stroke-linecap:butt;stroke-linejoin:miter;stroke-opacity:1"/>
<path class="bond-14 atom-13 atom-15" d="M 242.0,139.9 L 234.8,133.0" style="fill:none;fill-rule:evenodd;stroke:#000000;stroke-width:2.0px;stroke-linecap:butt;stroke-linejoin:miter;stroke-opacity:1"/>
<path class="bond-14 atom-13 atom-15" d="M 234.8,133.0 L 227.6,126.0" style="fill:none;fill-rule:evenodd;stroke:#FF0000;stroke-width:2.0px;stroke-linecap:butt;stroke-linejoin:miter;stroke-opacity:1"/>
<path class="bond-15 atom-15 atom-16" d="M 224.6,117.3 L 227.2,107.1" style="fill:none;fill-rule:evenodd;stroke:#FF0000;stroke-width:2.0px;stroke-linecap:butt;stroke-linejoin:miter;stroke-opacity:1"/>
<path class="bond-15 atom-15 atom-16" d="M 227.2,107.1 L 229.8,96.8" style="fill:none;fill-rule:evenodd;stroke:#000000;stroke-width:2.0px;stroke-linecap:butt;stroke-linejoin:miter;stroke-opacity:1"/>
<path class="bond-16 atom-16 atom-17" d="M 229.2,99.0 L 240.1,95.9" style="fill:none;fill-rule:evenodd;stroke:#000000;stroke-width:2.0px;stroke-linecap:butt;stroke-linejoin:miter;stroke-opacity:1"/>
<path class="bond-16 atom-16 atom-17" d="M 240.1,95.9 L 251.0,92.8" style="fill:none;fill-rule:evenodd;stroke:#FF0000;stroke-width:2.0px;stroke-linecap:butt;stroke-linejoin:miter;stroke-opacity:1"/>
<path class="bond-16 atom-16 atom-17" d="M 228.2,95.2 L 239.0,92.1" style="fill:none;fill-rule:evenodd;stroke:#000000;stroke-width:2.0px;stroke-linecap:butt;stroke-linejoin:miter;stroke-opacity:1"/>
<path class="bond-16 atom-16 atom-17" d="M 239.0,92.1 L 249.9,89.1" style="fill:none;fill-rule:evenodd;stroke:#FF0000;stroke-width:2.0px;stroke-linecap:butt;stroke-linejoin:miter;stroke-opacity:1"/>
<path class="bond-17 atom-16 atom-18" d="M 229.8,96.8 L 211.2,78.7" style="fill:none;fill-rule:evenodd;stroke:#000000;stroke-width:2.0px;stroke-linecap:butt;stroke-linejoin:miter;stroke-opacity:1"/>
<path class="bond-18 atom-18 atom-19" d="M 211.2,78.7 L 217.6,53.6" style="fill:none;fill-rule:evenodd;stroke:#000000;stroke-width:2.0px;stroke-linecap:butt;stroke-linejoin:miter;stroke-opacity:1"/>
<path class="bond-19 atom-19 atom-20" d="M 217.6,53.6 L 199.0,35.6" style="fill:none;fill-rule:evenodd;stroke:#000000;stroke-width:2.0px;stroke-linecap:butt;stroke-linejoin:miter;stroke-opacity:1"/>
<path class="bond-20 atom-20 atom-21" d="M 200.6,37.1 L 207.2,11.0" style="fill:none;fill-rule:evenodd;stroke:#000000;stroke-width:2.0px;stroke-linecap:butt;stroke-linejoin:miter;stroke-opacity:1"/>
<path class="bond-20 atom-20 atom-21" d="M 196.8,36.2 L 203.5,10.0" style="fill:none;fill-rule:evenodd;stroke:#000000;stroke-width:2.0px;stroke-linecap:butt;stroke-linejoin:miter;stroke-opacity:1"/>
<path class="bond-21 atom-20 atom-22" d="M 199.0,35.6 L 174.1,42.6" style="fill:none;fill-rule:evenodd;stroke:#000000;stroke-width:2.0px;stroke-linecap:butt;stroke-linejoin:miter;stroke-opacity:1"/>
<path class="bond-22 atom-22 atom-23" d="M 172.5,41.1 L 169.7,51.9" style="fill:none;fill-rule:evenodd;stroke:#000000;stroke-width:2.0px;stroke-linecap:butt;stroke-linejoin:miter;stroke-opacity:1"/>
<path class="bond-22 atom-22 atom-23" d="M 169.7,51.9 L 167.0,62.7" style="fill:none;fill-rule:evenodd;stroke:#FF0000;stroke-width:2.0px;stroke-linecap:butt;stroke-linejoin:miter;stroke-opacity:1"/>
<path class="bond-22 atom-22 atom-23" d="M 176.2,42.0 L 173.5,52.8" style="fill:none;fill-rule:evenodd;stroke:#000000;stroke-width:2.0px;stroke-linecap:butt;stroke-linejoin:miter;stroke-opacity:1"/>
<path class="bond-22 atom-22 atom-23" d="M 173.5,52.8 L 170.8,63.6" style="fill:none;fill-rule:evenodd;stroke:#FF0000;stroke-width:2.0px;stroke-linecap:butt;stroke-linejoin:miter;stroke-opacity:1"/>
<path class="bond-23 atom-22 atom-24" d="M 174.1,42.6 L 166.9,35.6" style="fill:none;fill-rule:evenodd;stroke:#000000;stroke-width:2.0px;stroke-linecap:butt;stroke-linejoin:miter;stroke-opacity:1"/>
<path class="bond-23 atom-22 atom-24" d="M 166.9,35.6 L 159.8,28.7" style="fill:none;fill-rule:evenodd;stroke:#FF0000;stroke-width:2.0px;stroke-linecap:butt;stroke-linejoin:miter;stroke-opacity:1"/>
<path class="bond-24 atom-1 atom-25" d="M 61.7,121.0 L 68.1,95.9" style="fill:none;fill-rule:evenodd;stroke:#000000;stroke-width:2.0px;stroke-linecap:butt;stroke-linejoin:miter;stroke-opacity:1"/>
<path class="bond-25 atom-25 atom-26" d="M 70.2,95.3 L 62.7,87.9" style="fill:none;fill-rule:evenodd;stroke:#000000;stroke-width:2.0px;stroke-linecap:butt;stroke-linejoin:miter;stroke-opacity:1"/>
<path class="bond-25 atom-25 atom-26" d="M 62.7,87.9 L 55.1,80.6" style="fill:none;fill-rule:evenodd;stroke:#FF0000;stroke-width:2.0px;stroke-linecap:butt;stroke-linejoin:miter;stroke-opacity:1"/>
<path class="bond-25 atom-25 atom-26" d="M 67.5,98.1 L 59.9,90.7" style="fill:none;fill-rule:evenodd;stroke:#000000;stroke-width:2.0px;stroke-linecap:butt;stroke-linejoin:miter;stroke-opacity:1"/>
<path class="bond-25 atom-25 atom-26" d="M 59.9,90.7 L 52.4,83.3" style="fill:none;fill-rule:evenodd;stroke:#FF0000;stroke-width:2.0px;stroke-linecap:butt;stroke-linejoin:miter;stroke-opacity:1"/>
<path class="bond-26 atom-25 atom-27" d="M 68.1,95.9 L 78.4,93.0" style="fill:none;fill-rule:evenodd;stroke:#000000;stroke-width:2.0px;stroke-linecap:butt;stroke-linejoin:miter;stroke-opacity:1"/>
<path class="bond-26 atom-25 atom-27" d="M 78.4,93.0 L 88.8,90.0" style="fill:none;fill-rule:evenodd;stroke:#FF0000;stroke-width:2.0px;stroke-linecap:butt;stroke-linejoin:miter;stroke-opacity:1"/>
<path d="M 62.6,121.9 L 61.7,121.0 L 62.0,119.7" style="fill:none;stroke:#000000;stroke-width:2.0px;stroke-linecap:butt;stroke-linejoin:miter;stroke-opacity:1;"/>
<path d="M 79.3,138.2 L 80.3,139.1 L 81.5,138.7" style="fill:none;stroke:#000000;stroke-width:2.0px;stroke-linecap:butt;stroke-linejoin:miter;stroke-opacity:1;"/>
<path d="M 103.9,132.4 L 105.2,132.0 L 106.1,132.9" style="fill:none;stroke:#000000;stroke-width:2.0px;stroke-linecap:butt;stroke-linejoin:miter;stroke-opacity:1;"/>
<path d="M 122.8,149.2 L 123.7,150.1 L 124.3,149.9" style="fill:none;stroke:#000000;stroke-width:2.0px;stroke-linecap:butt;stroke-linejoin:miter;stroke-opacity:1;"/>
<path d="M 166.9,160.7 L 167.2,161.1 L 168.5,160.7" style="fill:none;stroke:#000000;stroke-width:2.0px;stroke-linecap:butt;stroke-linejoin:miter;stroke-opacity:1;"/>
<path d="M 190.9,154.4 L 192.1,154.0 L 193.1,154.9" style="fill:none;stroke:#000000;stroke-width:2.0px;stroke-linecap:butt;stroke-linejoin:miter;stroke-opacity:1;"/>
<path d="M 209.8,171.2 L 210.7,172.1 L 211.9,171.7" style="fill:none;stroke:#000000;stroke-width:2.0px;stroke-linecap:butt;stroke-linejoin:miter;stroke-opacity:1;"/>
<path d="M 234.4,165.4 L 235.6,165.0 L 235.9,163.8" style="fill:none;stroke:#000000;stroke-width:2.0px;stroke-linecap:butt;stroke-linejoin:miter;stroke-opacity:1;"/>
<path d="M 229.6,97.3 L 229.8,96.8 L 228.8,95.9" style="fill:none;stroke:#000000;stroke-width:2.0px;stroke-linecap:butt;stroke-linejoin:miter;stroke-opacity:1;"/>
<path d="M 212.1,79.6 L 211.2,78.7 L 211.5,77.5" style="fill:none;stroke:#000000;stroke-width:2.0px;stroke-linecap:butt;stroke-linejoin:miter;stroke-opacity:1;"/>
<path d="M 217.2,54.9 L 217.6,53.6 L 216.6,52.7" style="fill:none;stroke:#000000;stroke-width:2.0px;stroke-linecap:butt;stroke-linejoin:miter;stroke-opacity:1;"/>
<path d="M 199.9,36.5 L 199.0,35.6 L 197.8,35.9" style="fill:none;stroke:#000000;stroke-width:2.0px;stroke-linecap:butt;stroke-linejoin:miter;stroke-opacity:1;"/>
<path d="M 175.3,42.3 L 174.1,42.6 L 173.7,42.3" style="fill:none;stroke:#000000;stroke-width:2.0px;stroke-linecap:butt;stroke-linejoin:miter;stroke-opacity:1;"/>
<path d="M 67.8,97.2 L 68.1,95.9 L 68.6,95.8" style="fill:none;stroke:#000000;stroke-width:2.0px;stroke-linecap:butt;stroke-linejoin:miter;stroke-opacity:1;"/>
<path class="atom-5" d="M 114.0 175.2 Q 114.0 173.4, 114.9 172.4 Q 115.8 171.5, 117.4 171.5 Q 119.0 171.5, 119.9 172.4 Q 120.8 173.4, 120.8 175.2 Q 120.8 177.0, 119.9 178.0 Q 119.0 179.0, 117.4 179.0 Q 115.8 179.0, 114.9 178.0 Q 114.0 177.0, 114.0 175.2 M 117.4 178.2 Q 118.5 178.2, 119.1 177.4 Q 119.7 176.7, 119.7 175.2 Q 119.7 173.7, 119.1 173.0 Q 118.5 172.3, 117.4 172.3 Q 116.3 172.3, 115.7 173.0 Q 115.1 173.7, 115.1 175.2 Q 115.1 176.7, 115.7 177.4 Q 116.3 178.2, 117.4 178.2 " fill="#FF0000"/>
<path class="atom-6" d="M 145.3 143.0 Q 145.3 141.3, 146.2 140.3 Q 147.0 139.3, 148.7 139.3 Q 150.3 139.3, 151.2 140.3 Q 152.0 141.3, 152.0 143.0 Q 152.0 144.8, 151.1 145.8 Q 150.3 146.8, 148.7 146.8 Q 147.0 146.8, 146.2 145.8 Q 145.3 144.8, 145.3 143.0 M 148.7 146.0 Q 149.8 146.0, 150.4 145.3 Q 151.0 144.5, 151.0 143.0 Q 151.0 141.6, 150.4 140.9 Q 149.8 140.1, 148.7 140.1 Q 147.5 140.1, 146.9 140.9 Q 146.3 141.6, 146.3 143.0 Q 146.3 144.5, 146.9 145.3 Q 147.5 146.0, 148.7 146.0 " fill="#FF0000"/>
<path class="atom-8" d="M 157.5 186.2 Q 157.5 184.4, 158.4 183.5 Q 159.2 182.5, 160.9 182.5 Q 162.5 182.5, 163.4 183.5 Q 164.2 184.4, 164.2 186.2 Q 164.2 188.0, 163.4 189.0 Q 162.5 190.0, 160.9 190.0 Q 159.2 190.0, 158.4 189.0 Q 157.5 188.0, 157.5 186.2 M 160.9 189.2 Q 162.0 189.2, 162.6 188.4 Q 163.2 187.7, 163.2 186.2 Q 163.2 184.8, 162.6 184.0 Q 162.0 183.3, 160.9 183.3 Q 159.7 183.3, 159.1 184.0 Q 158.5 184.7, 158.5 186.2 Q 158.5 187.7, 159.1 188.4 Q 159.7 189.2, 160.9 189.2 " fill="#FF0000"/>
<path class="atom-14" d="M 263.5 132.9 Q 263.5 131.2, 264.4 130.2 Q 265.3 129.2, 266.9 129.2 Q 268.5 129.2, 269.4 130.2 Q 270.3 131.2, 270.3 132.9 Q 270.3 134.7, 269.4 135.7 Q 268.5 136.7, 266.9 136.7 Q 265.3 136.7, 264.4 135.7 Q 263.5 134.7, 263.5 132.9 M 266.9 135.9 Q 268.0 135.9, 268.6 135.1 Q 269.2 134.4, 269.2 132.9 Q 269.2 131.5, 268.6 130.8 Q 268.0 130.0, 266.9 130.0 Q 265.8 130.0, 265.2 130.7 Q 264.6 131.5, 264.6 132.9 Q 264.6 134.4, 265.2 135.1 Q 265.8 135.9, 266.9 135.9 " fill="#FF0000"/>
<path class="atom-14" d="M 271.4 129.3 L 272.4 129.3 L 272.4 132.4 L 276.1 132.4 L 276.1 129.3 L 277.1 129.3 L 277.1 136.6 L 276.1 136.6 L 276.1 133.2 L 272.4 133.2 L 272.4 136.6 L 271.4 136.6 L 271.4 129.3 " fill="#FF0000"/>
<path class="atom-15" d="M 220.0 121.9 Q 220.0 120.1, 220.9 119.2 Q 221.8 118.2, 223.4 118.2 Q 225.0 118.2, 225.9 119.2 Q 226.8 120.1, 226.8 121.9 Q 226.8 123.7, 225.9 124.7 Q 225.0 125.7, 223.4 125.7 Q 221.8 125.7, 220.9 124.7 Q 220.0 123.7, 220.0 121.9 M 223.4 124.9 Q 224.5 124.9, 225.1 124.1 Q 225.7 123.4, 225.7 121.9 Q 225.7 120.5, 225.1 119.7 Q 224.5 119.0, 223.4 119.0 Q 222.3 119.0, 221.7 119.7 Q 221.1 120.5, 221.1 121.9 Q 221.1 123.4, 221.7 124.1 Q 222.3 124.9, 223.4 124.9 " fill="#FF0000"/>
<path class="atom-17" d="M 251.3 89.8 Q 251.3 88.0, 252.2 87.0 Q 253.1 86.0, 254.7 86.0 Q 256.3 86.0, 257.2 87.0 Q 258.1 88.0, 258.1 89.8 Q 258.1 91.5, 257.2 92.6 Q 256.3 93.6, 254.7 93.6 Q 253.1 93.6, 252.2 92.6 Q 251.3 91.6, 251.3 89.8 M 254.7 92.7 Q 255.8 92.7, 256.4 92.0 Q 257.0 91.2, 257.0 89.8 Q 257.0 88.3, 256.4 87.6 Q 255.8 86.9, 254.7 86.9 Q 253.6 86.9, 253.0 87.6 Q 252.4 88.3, 252.4 89.8 Q 252.4 91.2, 253.0 92.0 Q 253.6 92.7, 254.7 92.7 " fill="#FF0000"/>
<path class="atom-23" d="M 164.4 67.7 Q 164.4 66.0, 165.2 65.0 Q 166.1 64.0, 167.7 64.0 Q 169.4 64.0, 170.2 65.0 Q 171.1 66.0, 171.1 67.7 Q 171.1 69.5, 170.2 70.5 Q 169.3 71.5, 167.7 71.5 Q 166.1 71.5, 165.2 70.5 Q 164.4 69.5, 164.4 67.7 M 167.7 70.7 Q 168.9 70.7, 169.5 70.0 Q 170.1 69.2, 170.1 67.7 Q 170.1 66.3, 169.5 65.6 Q 168.9 64.8, 167.7 64.8 Q 166.6 64.8, 166.0 65.6 Q 165.4 66.3, 165.4 67.7 Q 165.4 69.2, 166.0 70.0 Q 166.6 70.7, 167.7 70.7 " fill="#FF0000"/>
<path class="atom-24" d="M 144.9 20.9 L 145.9 20.9 L 145.9 24.1 L 149.7 24.1 L 149.7 20.9 L 150.7 20.9 L 150.7 28.3 L 149.7 28.3 L 149.7 24.9 L 145.9 24.9 L 145.9 28.3 L 144.9 28.3 L 144.9 20.9 " fill="#FF0000"/>
<path class="atom-24" d="M 152.2 24.6 Q 152.2 22.8, 153.0 21.8 Q 153.9 20.9, 155.5 20.9 Q 157.2 20.9, 158.0 21.8 Q 158.9 22.8, 158.9 24.6 Q 158.9 26.4, 158.0 27.4 Q 157.1 28.4, 155.5 28.4 Q 153.9 28.4, 153.0 27.4 Q 152.2 26.4, 152.2 24.6 M 155.5 27.6 Q 156.7 27.6, 157.3 26.8 Q 157.9 26.1, 157.9 24.6 Q 157.9 23.1, 157.3 22.4 Q 156.7 21.7, 155.5 21.7 Q 154.4 21.7, 153.8 22.4 Q 153.2 23.1, 153.2 24.6 Q 153.2 26.1, 153.8 26.8 Q 154.4 27.6, 155.5 27.6 " fill="#FF0000"/>
<path class="atom-26" d="M 46.1 77.9 Q 46.1 76.1, 47.0 75.1 Q 47.9 74.1, 49.5 74.1 Q 51.1 74.1, 52.0 75.1 Q 52.9 76.1, 52.9 77.9 Q 52.9 79.6, 52.0 80.7 Q 51.1 81.7, 49.5 81.7 Q 47.9 81.7, 47.0 80.7 Q 46.1 79.7, 46.1 77.9 M 49.5 80.8 Q 50.6 80.8, 51.2 80.1 Q 51.8 79.3, 51.8 77.9 Q 51.8 76.4, 51.2 75.7 Q 50.6 75.0, 49.5 75.0 Q 48.4 75.0, 47.8 75.7 Q 47.2 76.4, 47.2 77.9 Q 47.2 79.3, 47.8 80.1 Q 48.4 80.8, 49.5 80.8 " fill="#FF0000"/>
<path class="atom-27" d="M 89.6 88.9 Q 89.6 87.1, 90.5 86.1 Q 91.4 85.1, 93.0 85.1 Q 94.6 85.1, 95.5 86.1 Q 96.4 87.1, 96.4 88.9 Q 96.4 90.7, 95.5 91.7 Q 94.6 92.7, 93.0 92.7 Q 91.4 92.7, 90.5 91.7 Q 89.6 90.7, 89.6 88.9 M 93.0 91.8 Q 94.1 91.8, 94.7 91.1 Q 95.3 90.3, 95.3 88.9 Q 95.3 87.4, 94.7 86.7 Q 94.1 86.0, 93.0 86.0 Q 91.9 86.0, 91.3 86.7 Q 90.7 87.4, 90.7 88.9 Q 90.7 90.4, 91.3 91.1 Q 91.9 91.8, 93.0 91.8 " fill="#FF0000"/>
<path class="atom-27" d="M 97.5 85.2 L 98.5 85.2 L 98.5 88.3 L 102.2 88.3 L 102.2 85.2 L 103.2 85.2 L 103.2 92.6 L 102.2 92.6 L 102.2 89.2 L 98.5 89.2 L 98.5 92.6 L 97.5 92.6 L 97.5 85.2 " fill="#FF0000"/>
</g>
  </g>
</svg>
