<?xml version='1.0' encoding='ASCII' standalone='yes'?>
<svg xmlns="http://www.w3.org/2000/svg" xmlns:xlink="http://www.w3.org/1999/xlink" version="1.1" width="638.0px" viewBox="0 0 638.0 200.0" height="200.0px">
  <g>
    <g transform="translate(0, 0) scale(1 1) "><!-- END OF HEADER -->
<rect style="opacity:1.0;fill:#FFFFFF;stroke:none" width="205.0" height="200.0" x="0.0" y="0.0"> </rect>
<path class="bond-0 atom-0 atom-1" d="M 10.2,88.0 L 51.5,111.8" style="fill:none;fill-rule:evenodd;stroke:#000000;stroke-width:2.0px;stroke-linecap:butt;stroke-linejoin:miter;stroke-opacity:1"/>
<path class="bond-1 atom-1 atom-2" d="M 51.5,111.8 L 51.5,159.5" style="fill:none;fill-rule:evenodd;stroke:#000000;stroke-width:2.0px;stroke-linecap:butt;stroke-linejoin:miter;stroke-opacity:1"/>
<path class="bond-2 atom-1 atom-3" d="M 51.5,111.8 L 92.8,88.0" style="fill:none;fill-rule:evenodd;stroke:#000000;stroke-width:2.0px;stroke-linecap:butt;stroke-linejoin:miter;stroke-opacity:1"/>
<path class="bond-3 atom-3 atom-4" d="M 96.4,90.0 L 96.4,69.5" style="fill:none;fill-rule:evenodd;stroke:#000000;stroke-width:2.0px;stroke-linecap:butt;stroke-linejoin:miter;stroke-opacity:1"/>
<path class="bond-3 atom-3 atom-4" d="M 96.4,69.5 L 96.4,48.9" style="fill:none;fill-rule:evenodd;stroke:#FF0000;stroke-width:2.0px;stroke-linecap:butt;stroke-linejoin:miter;stroke-opacity:1"/>
<path class="bond-3 atom-3 atom-4" d="M 89.2,90.0 L 89.2,69.5" style="fill:none;fill-rule:evenodd;stroke:#000000;stroke-width:2.0px;stroke-linecap:butt;stroke-linejoin:miter;stroke-opacity:1"/>
<path class="bond-3 atom-3 atom-4" d="M 89.2,69.5 L 89.2,48.9" style="fill:none;fill-rule:evenodd;stroke:#FF0000;stroke-width:2.0px;stroke-linecap:butt;stroke-linejoin:miter;stroke-opacity:1"/>
<path class="bond-4 atom-3 atom-5" d="M 92.8,88.0 L 134.1,111.8" style="fill:none;fill-rule:evenodd;stroke:#000000;stroke-width:2.0px;stroke-linecap:butt;stroke-linejoin:miter;stroke-opacity:1"/>
<path class="bond-5 atom-5 atom-6" d="M 130.5,109.7 L 130.5,130.4" style="fill:none;fill-rule:evenodd;stroke:#000000;stroke-width:2.0px;stroke-linecap:butt;stroke-linejoin:miter;stroke-opacity:1"/>
<path class="bond-5 atom-5 atom-6" d="M 130.5,130.4 L 130.5,151.1" style="fill:none;fill-rule:evenodd;stroke:#FF0000;stroke-width:2.0px;stroke-linecap:butt;stroke-linejoin:miter;stroke-opacity:1"/>
<path class="bond-5 atom-5 atom-6" d="M 137.7,109.7 L 137.7,130.4" style="fill:none;fill-rule:evenodd;stroke:#000000;stroke-width:2.0px;stroke-linecap:butt;stroke-linejoin:miter;stroke-opacity:1"/>
<path class="bond-5 atom-5 atom-6" d="M 137.7,130.4 L 137.7,151.1" style="fill:none;fill-rule:evenodd;stroke:#FF0000;stroke-width:2.0px;stroke-linecap:butt;stroke-linejoin:miter;stroke-opacity:1"/>
<path class="bond-6 atom-5 atom-7" d="M 134.1,111.8 L 150.9,102.1" style="fill:none;fill-rule:evenodd;stroke:#000000;stroke-width:2.0px;stroke-linecap:butt;stroke-linejoin:miter;stroke-opacity:1"/>
<path class="bond-6 atom-5 atom-7" d="M 150.9,102.1 L 167.6,92.5" style="fill:none;fill-rule:evenodd;stroke:#FF0000;stroke-width:2.0px;stroke-linecap:butt;stroke-linejoin:miter;stroke-opacity:1"/>
<path d="M 90.8,89.2 L 92.8,88.0 L 94.9,89.2" style="fill:none;stroke:#000000;stroke-width:2.0px;stroke-linecap:butt;stroke-linejoin:miter;stroke-opacity:1;"/>
<path d="M 132.0,110.6 L 134.1,111.8 L 134.9,111.3" style="fill:none;stroke:#000000;stroke-width:2.0px;stroke-linecap:butt;stroke-linejoin:miter;stroke-opacity:1;"/>
<path class="atom-4" d="M 86.6 40.3 Q 86.6 37.1, 88.2 35.3 Q 89.8 33.5, 92.8 33.5 Q 95.8 33.5, 97.4 35.3 Q 99.0 37.1, 99.0 40.3 Q 99.0 43.6, 97.4 45.5 Q 95.8 47.3, 92.8 47.3 Q 89.8 47.3, 88.2 45.5 Q 86.6 43.6, 86.6 40.3 M 92.8 45.8 Q 94.9 45.8, 96.0 44.4 Q 97.1 43.1, 97.1 40.3 Q 97.1 37.7, 96.0 36.4 Q 94.9 35.0, 92.8 35.0 Q 90.8 35.0, 89.6 36.3 Q 88.5 37.7, 88.5 40.3 Q 88.5 43.1, 89.6 44.4 Q 90.8 45.8, 92.8 45.8 " fill="#FF0000"/>
<path class="atom-6" d="M 127.9 159.5 Q 127.9 156.3, 129.5 154.5 Q 131.1 152.7, 134.1 152.7 Q 137.1 152.7, 138.7 154.5 Q 140.3 156.3, 140.3 159.5 Q 140.3 162.8, 138.7 164.7 Q 137.1 166.5, 134.1 166.5 Q 131.1 166.5, 129.5 164.7 Q 127.9 162.8, 127.9 159.5 M 134.1 165.0 Q 136.2 165.0, 137.3 163.6 Q 138.4 162.2, 138.4 159.5 Q 138.4 156.9, 137.3 155.5 Q 136.2 154.2, 134.1 154.2 Q 132.0 154.2, 130.9 155.5 Q 129.8 156.9, 129.8 159.5 Q 129.8 162.2, 130.9 163.6 Q 132.0 165.0, 134.1 165.0 " fill="#FF0000"/>
<path class="atom-7" d="M 169.2 88.0 Q 169.2 84.8, 170.8 83.0 Q 172.4 81.2, 175.4 81.2 Q 178.4 81.2, 180.0 83.0 Q 181.6 84.8, 181.6 88.0 Q 181.6 91.3, 180.0 93.2 Q 178.3 95.0, 175.4 95.0 Q 172.4 95.0, 170.8 93.2 Q 169.2 91.3, 169.2 88.0 M 175.4 93.5 Q 177.4 93.5, 178.6 92.1 Q 179.7 90.7, 179.7 88.0 Q 179.7 85.4, 178.6 84.0 Q 177.4 82.7, 175.4 82.7 Q 173.3 82.7, 172.2 84.0 Q 171.1 85.3, 171.1 88.0 Q 171.1 90.7, 172.2 92.1 Q 173.3 93.5, 175.4 93.5 " fill="#FF0000"/>
<path class="atom-7" d="M 183.7 81.3 L 185.5 81.3 L 185.5 87.0 L 192.4 87.0 L 192.4 81.3 L 194.2 81.3 L 194.2 94.8 L 192.4 94.8 L 192.4 88.6 L 185.5 88.6 L 185.5 94.8 L 183.7 94.8 L 183.7 81.3 " fill="#FF0000"/>
</g>
    <g transform="translate(205.0, 0) scale(1 1) "><line x1="15" y1="100" x2="25" y2="100" style="stroke:rgb(0,0,0);stroke-width:2"/>
  <line x1="20" y1="95" x2="20" y2="105" style="stroke:rgb(0,0,0);stroke-width:2"/>
</g>
    <g transform="translate(245.0, 0) scale(1 1) "><!-- END OF HEADER -->
<rect style="opacity:1.0;fill:#FFFFFF;stroke:none" width="120.0" height="200.0" x="0.0" y="0.0"> </rect>
<path class="bond-0 atom-0 atom-1" d="M 100.0,103.5 L 83.4,103.5" style="fill:none;fill-rule:evenodd;stroke:#FF0000;stroke-width:2.0px;stroke-linecap:butt;stroke-linejoin:miter;stroke-opacity:1"/>
<path class="bond-0 atom-0 atom-1" d="M 83.4,103.5 L 66.8,103.5" style="fill:none;fill-rule:evenodd;stroke:#000000;stroke-width:2.0px;stroke-linecap:butt;stroke-linejoin:miter;stroke-opacity:1"/>
<path class="bond-0 atom-0 atom-1" d="M 100.0,96.3 L 83.4,96.3" style="fill:none;fill-rule:evenodd;stroke:#FF0000;stroke-width:2.0px;stroke-linecap:butt;stroke-linejoin:miter;stroke-opacity:1"/>
<path class="bond-0 atom-0 atom-1" d="M 83.4,96.3 L 66.8,96.3" style="fill:none;fill-rule:evenodd;stroke:#000000;stroke-width:2.0px;stroke-linecap:butt;stroke-linejoin:miter;stroke-opacity:1"/>
<path class="bond-1 atom-1 atom-2" d="M 53.2,103.5 L 36.6,103.5" style="fill:none;fill-rule:evenodd;stroke:#000000;stroke-width:2.0px;stroke-linecap:butt;stroke-linejoin:miter;stroke-opacity:1"/>
<path class="bond-1 atom-1 atom-2" d="M 36.6,103.5 L 20.0,103.5" style="fill:none;fill-rule:evenodd;stroke:#FF0000;stroke-width:2.0px;stroke-linecap:butt;stroke-linejoin:miter;stroke-opacity:1"/>
<path class="bond-1 atom-1 atom-2" d="M 53.2,96.3 L 36.6,96.3" style="fill:none;fill-rule:evenodd;stroke:#000000;stroke-width:2.0px;stroke-linecap:butt;stroke-linejoin:miter;stroke-opacity:1"/>
<path class="bond-1 atom-1 atom-2" d="M 36.6,96.3 L 20.0,96.3" style="fill:none;fill-rule:evenodd;stroke:#FF0000;stroke-width:2.0px;stroke-linecap:butt;stroke-linejoin:miter;stroke-opacity:1"/>
<path class="atom-0" d="M 101.6 99.9 Q 101.6 96.7, 103.2 94.9 Q 104.8 93.1, 107.8 93.1 Q 110.8 93.1, 112.4 94.9 Q 114.0 96.7, 114.0 99.9 Q 114.0 103.2, 112.4 105.1 Q 110.8 106.9, 107.8 106.9 Q 104.8 106.9, 103.2 105.1 Q 101.6 103.2, 101.6 99.9 M 107.8 105.4 Q 109.9 105.4, 111.0 104.0 Q 112.1 102.6, 112.1 99.9 Q 112.1 97.3, 111.0 95.9 Q 109.9 94.6, 107.8 94.6 Q 105.7 94.6, 104.6 95.9 Q 103.5 97.3, 103.5 99.9 Q 103.5 102.7, 104.6 104.0 Q 105.7 105.4, 107.8 105.4 " fill="#FF0000"/>
<path class="atom-1" d="M 54.8 100.0 Q 54.8 96.6, 56.3 94.8 Q 57.9 93.1, 60.9 93.1 Q 63.7 93.1, 65.2 95.0 L 64.0 96.1 Q 62.9 94.6, 60.9 94.6 Q 58.9 94.6, 57.8 96.0 Q 56.7 97.4, 56.7 100.0 Q 56.7 102.6, 57.8 104.0 Q 59.0 105.4, 61.1 105.4 Q 62.6 105.4, 64.4 104.5 L 64.9 105.9 Q 64.2 106.4, 63.1 106.6 Q 62.1 106.9, 60.9 106.9 Q 57.9 106.9, 56.3 105.1 Q 54.8 103.3, 54.8 100.0 " fill="#000000"/>
<path class="atom-2" d="M 6.0 99.9 Q 6.0 96.7, 7.6 94.9 Q 9.2 93.1, 12.2 93.1 Q 15.2 93.1, 16.8 94.9 Q 18.4 96.7, 18.4 99.9 Q 18.4 103.2, 16.8 105.1 Q 15.2 106.9, 12.2 106.9 Q 9.2 106.9, 7.6 105.1 Q 6.0 103.2, 6.0 99.9 M 12.2 105.4 Q 14.3 105.4, 15.4 104.0 Q 16.5 102.6, 16.5 99.9 Q 16.5 97.3, 15.4 95.9 Q 14.3 94.6, 12.2 94.6 Q 10.1 94.6, 9.0 95.9 Q 7.9 97.3, 7.9 99.9 Q 7.9 102.7, 9.0 104.0 Q 10.1 105.4, 12.2 105.4 " fill="#FF0000"/>
</g>
    <g transform="translate(365.0, 0) scale(1 1) "><line x1="5" y1="100" x2="35" y2="100" style="stroke:rgb(0,0,0);stroke-width:2"/>
  <line x1="34" y1="100" x2="29" y2="95" style="stroke:rgb(0,0,0);stroke-width:2"/>
  <line x1="34" y1="100" x2="29" y2="105" style="stroke:rgb(0,0,0);stroke-width:2"/>
</g>
    <g transform="translate(405.0, 0) scale(1 1) "><!-- END OF HEADER -->
<rect style="opacity:1.0;fill:#FFFFFF;stroke:none" width="233.0" height="200.0" x="0.0" y="0.0"> </rect>
<path class="bond-0 atom-0 atom-1" d="M 155.3,57.0 L 142.6,98.0" style="fill:none;fill-rule:evenodd;stroke:#000000;stroke-width:2.0px;stroke-linecap:butt;stroke-linejoin:miter;stroke-opacity:1"/>
<path class="bond-1 atom-1 atom-2" d="M 142.6,98.0 L 130.0,139.0" style="fill:none;fill-rule:evenodd;stroke:#000000;stroke-width:2.0px;stroke-linecap:butt;stroke-linejoin:miter;stroke-opacity:1"/>
<path class="bond-2 atom-1 atom-3" d="M 142.6,98.0 L 183.6,110.6" style="fill:none;fill-rule:evenodd;stroke:#000000;stroke-width:2.0px;stroke-linecap:butt;stroke-linejoin:miter;stroke-opacity:1"/>
<path class="bond-3 atom-3 atom-4" d="M 184.5,114.2 L 197.4,102.3" style="fill:none;fill-rule:evenodd;stroke:#000000;stroke-width:2.0px;stroke-linecap:butt;stroke-linejoin:miter;stroke-opacity:1"/>
<path class="bond-3 atom-3 atom-4" d="M 197.4,102.3 L 210.3,90.3" style="fill:none;fill-rule:evenodd;stroke:#FF0000;stroke-width:2.0px;stroke-linecap:butt;stroke-linejoin:miter;stroke-opacity:1"/>
<path class="bond-3 atom-3 atom-4" d="M 180.1,109.5 L 193.0,97.6" style="fill:none;fill-rule:evenodd;stroke:#000000;stroke-width:2.0px;stroke-linecap:butt;stroke-linejoin:miter;stroke-opacity:1"/>
<path class="bond-3 atom-3 atom-4" d="M 193.0,97.6 L 205.9,85.6" style="fill:none;fill-rule:evenodd;stroke:#FF0000;stroke-width:2.0px;stroke-linecap:butt;stroke-linejoin:miter;stroke-opacity:1"/>
<path class="bond-4 atom-3 atom-5" d="M 183.6,110.6 L 187.5,127.8" style="fill:none;fill-rule:evenodd;stroke:#000000;stroke-width:2.0px;stroke-linecap:butt;stroke-linejoin:miter;stroke-opacity:1"/>
<path class="bond-4 atom-3 atom-5" d="M 187.5,127.8 L 191.4,144.9" style="fill:none;fill-rule:evenodd;stroke:#FF0000;stroke-width:2.0px;stroke-linecap:butt;stroke-linejoin:miter;stroke-opacity:1"/>
<path class="bond-5 atom-1 atom-6" d="M 142.6,98.0 L 101.7,85.3" style="fill:none;fill-rule:evenodd;stroke:#000000;stroke-width:2.0px;stroke-linecap:butt;stroke-linejoin:miter;stroke-opacity:1"/>
<path class="bond-6 atom-6 atom-7" d="M 105.2,86.4 L 101.1,68.5" style="fill:none;fill-rule:evenodd;stroke:#000000;stroke-width:2.0px;stroke-linecap:butt;stroke-linejoin:miter;stroke-opacity:1"/>
<path class="bond-6 atom-6 atom-7" d="M 101.1,68.5 L 97.0,50.5" style="fill:none;fill-rule:evenodd;stroke:#FF0000;stroke-width:2.0px;stroke-linecap:butt;stroke-linejoin:miter;stroke-opacity:1"/>
<path class="bond-6 atom-6 atom-7" d="M 98.9,87.8 L 94.8,69.9" style="fill:none;fill-rule:evenodd;stroke:#000000;stroke-width:2.0px;stroke-linecap:butt;stroke-linejoin:miter;stroke-opacity:1"/>
<path class="bond-6 atom-6 atom-7" d="M 94.8,69.9 L 90.7,52.0" style="fill:none;fill-rule:evenodd;stroke:#FF0000;stroke-width:2.0px;stroke-linecap:butt;stroke-linejoin:miter;stroke-opacity:1"/>
<path class="bond-7 atom-6 atom-8" d="M 101.7,85.3 L 70.2,114.5" style="fill:none;fill-rule:evenodd;stroke:#000000;stroke-width:2.0px;stroke-linecap:butt;stroke-linejoin:miter;stroke-opacity:1"/>
<path class="bond-8 atom-8 atom-9" d="M 66.7,113.4 L 70.8,131.4" style="fill:none;fill-rule:evenodd;stroke:#000000;stroke-width:2.0px;stroke-linecap:butt;stroke-linejoin:miter;stroke-opacity:1"/>
<path class="bond-8 atom-8 atom-9" d="M 70.8,131.4 L 74.9,149.5" style="fill:none;fill-rule:evenodd;stroke:#FF0000;stroke-width:2.0px;stroke-linecap:butt;stroke-linejoin:miter;stroke-opacity:1"/>
<path class="bond-8 atom-8 atom-9" d="M 72.9,112.0 L 77.0,130.0" style="fill:none;fill-rule:evenodd;stroke:#000000;stroke-width:2.0px;stroke-linecap:butt;stroke-linejoin:miter;stroke-opacity:1"/>
<path class="bond-8 atom-8 atom-9" d="M 77.0,130.0 L 81.2,148.0" style="fill:none;fill-rule:evenodd;stroke:#FF0000;stroke-width:2.0px;stroke-linecap:butt;stroke-linejoin:miter;stroke-opacity:1"/>
<path class="bond-9 atom-8 atom-10" d="M 70.2,114.5 L 53.2,109.2" style="fill:none;fill-rule:evenodd;stroke:#000000;stroke-width:2.0px;stroke-linecap:butt;stroke-linejoin:miter;stroke-opacity:1"/>
<path class="bond-9 atom-8 atom-10" d="M 53.2,109.2 L 36.2,104.0" style="fill:none;fill-rule:evenodd;stroke:#FF0000;stroke-width:2.0px;stroke-linecap:butt;stroke-linejoin:miter;stroke-opacity:1"/>
<path d="M 181.6,110.0 L 183.6,110.6 L 183.8,111.5" style="fill:none;stroke:#000000;stroke-width:2.0px;stroke-linecap:butt;stroke-linejoin:miter;stroke-opacity:1;"/>
<path d="M 103.7,86.0 L 101.7,85.3 L 100.1,86.8" style="fill:none;stroke:#000000;stroke-width:2.0px;stroke-linecap:butt;stroke-linejoin:miter;stroke-opacity:1;"/>
<path d="M 71.8,113.0 L 70.2,114.5 L 69.4,114.2" style="fill:none;stroke:#000000;stroke-width:2.0px;stroke-linecap:butt;stroke-linejoin:miter;stroke-opacity:1;"/>
<path class="atom-4" d="M 209.5 81.5 Q 209.5 78.6, 210.9 76.9 Q 212.4 75.3, 215.1 75.3 Q 217.8 75.3, 219.2 76.9 Q 220.7 78.6, 220.7 81.5 Q 220.7 84.4, 219.2 86.1 Q 217.7 87.8, 215.1 87.8 Q 212.4 87.8, 210.9 86.1 Q 209.5 84.5, 209.5 81.5 M 215.1 86.4 Q 216.9 86.4, 217.9 85.2 Q 218.9 83.9, 218.9 81.5 Q 218.9 79.1, 217.9 77.9 Q 216.9 76.7, 215.1 76.7 Q 213.2 76.7, 212.2 77.9 Q 211.2 79.1, 211.2 81.5 Q 211.2 83.9, 212.2 85.2 Q 213.2 86.4, 215.1 86.4 " fill="#FF0000"/>
<path class="atom-5" d="M 187.6 152.5 Q 187.6 149.6, 189.0 147.9 Q 190.5 146.3, 193.2 146.3 Q 195.9 146.3, 197.3 147.9 Q 198.7 149.6, 198.7 152.5 Q 198.7 155.4, 197.3 157.1 Q 195.8 158.8, 193.2 158.8 Q 190.5 158.8, 189.0 157.1 Q 187.6 155.4, 187.6 152.5 M 193.2 157.4 Q 195.0 157.4, 196.0 156.2 Q 197.0 154.9, 197.0 152.5 Q 197.0 150.1, 196.0 148.9 Q 195.0 147.7, 193.2 147.7 Q 191.3 147.7, 190.3 148.9 Q 189.3 150.1, 189.3 152.5 Q 189.3 154.9, 190.3 156.2 Q 191.3 157.4, 193.2 157.4 " fill="#FF0000"/>
<path class="atom-5" d="M 200.6 146.4 L 202.3 146.4 L 202.3 151.6 L 208.5 151.6 L 208.5 146.4 L 210.1 146.4 L 210.1 158.6 L 208.5 158.6 L 208.5 153.0 L 202.3 153.0 L 202.3 158.6 L 200.6 158.6 L 200.6 146.4 " fill="#FF0000"/>
<path class="atom-7" d="M 86.5 43.5 Q 86.5 40.6, 88.0 39.0 Q 89.4 37.4, 92.1 37.4 Q 94.8 37.4, 96.3 39.0 Q 97.7 40.6, 97.7 43.5 Q 97.7 46.5, 96.2 48.2 Q 94.8 49.8, 92.1 49.8 Q 89.4 49.8, 88.0 48.2 Q 86.5 46.5, 86.5 43.5 M 92.1 48.5 Q 94.0 48.5, 95.0 47.2 Q 96.0 46.0, 96.0 43.5 Q 96.0 41.2, 95.0 40.0 Q 94.0 38.7, 92.1 38.7 Q 90.3 38.7, 89.3 39.9 Q 88.3 41.1, 88.3 43.5 Q 88.3 46.0, 89.3 47.2 Q 90.3 48.5, 92.1 48.5 " fill="#FF0000"/>
<path class="atom-9" d="M 74.2 156.3 Q 74.2 153.4, 75.6 151.8 Q 77.1 150.2, 79.7 150.2 Q 82.4 150.2, 83.9 151.8 Q 85.3 153.4, 85.3 156.3 Q 85.3 159.3, 83.9 161.0 Q 82.4 162.6, 79.7 162.6 Q 77.1 162.6, 75.6 161.0 Q 74.2 159.3, 74.2 156.3 M 79.7 161.3 Q 81.6 161.3, 82.6 160.0 Q 83.6 158.8, 83.6 156.3 Q 83.6 154.0, 82.6 152.8 Q 81.6 151.5, 79.7 151.5 Q 77.9 151.5, 76.9 152.7 Q 75.9 153.9, 75.9 156.3 Q 75.9 158.8, 76.9 160.0 Q 77.9 161.3, 79.7 161.3 " fill="#FF0000"/>
<path class="atom-10" d="M 11.6 95.8 L 13.3 95.8 L 13.3 101.0 L 19.5 101.0 L 19.5 95.8 L 21.2 95.8 L 21.2 108.0 L 19.5 108.0 L 19.5 102.4 L 13.3 102.4 L 13.3 108.0 L 11.6 108.0 L 11.6 95.8 " fill="#FF0000"/>
<path class="atom-10" d="M 23.6 101.9 Q 23.6 99.0, 25.1 97.3 Q 26.5 95.7, 29.2 95.7 Q 31.9 95.7, 33.4 97.3 Q 34.8 99.0, 34.8 101.9 Q 34.8 104.8, 33.3 106.5 Q 31.9 108.2, 29.2 108.2 Q 26.5 108.2, 25.1 106.5 Q 23.6 104.8, 23.6 101.9 M 29.2 106.8 Q 31.1 106.8, 32.1 105.6 Q 33.1 104.3, 33.1 101.9 Q 33.1 99.5, 32.1 98.3 Q 31.1 97.1, 29.2 97.1 Q 27.4 97.1, 26.4 98.3 Q 25.4 99.5, 25.4 101.9 Q 25.4 104.3, 26.4 105.6 Q 27.4 106.8, 29.2 106.8 " fill="#FF0000"/>
</g>
  </g>
</svg>
