<?xml version='1.0' encoding='ASCII' standalone='yes'?>
<svg xmlns="http://www.w3.org/2000/svg" xmlns:xlink="http://www.w3.org/1999/xlink" version="1.1" width="860.0px" viewBox="0 0 860.0 200.0" height="200.0px">
  <g>
    <g transform="translate(0, 0) scale(1 1) "><!-- END OF HEADER -->
<rect style="opacity:1.0;fill:#FFFFFF;stroke:none" width="260.0" height="200.0" x="0.0" y="0.0"> </rect>
<path class="bond-0 atom-0 atom-1" d="M 16.5,68.0 L 57.8,61.7" style="fill:none;fill-rule:evenodd;stroke:#000000;stroke-width:2.0px;stroke-linecap:butt;stroke-linejoin:miter;stroke-opacity:1"/>
<path class="bond-1 atom-1 atom-2" d="M 57.8,61.7 L 63.9,46.0" style="fill:none;fill-rule:evenodd;stroke:#000000;stroke-width:2.0px;stroke-linecap:butt;stroke-linejoin:miter;stroke-opacity:1"/>
<path class="bond-1 atom-1 atom-2" d="M 63.9,46.0 L 70.1,30.3" style="fill:none;fill-rule:evenodd;stroke:#FF0000;stroke-width:2.0px;stroke-linecap:butt;stroke-linejoin:miter;stroke-opacity:1"/>
<path class="bond-2 atom-1 atom-3" d="M 57.8,61.7 L 83.9,94.3" style="fill:none;fill-rule:evenodd;stroke:#000000;stroke-width:2.0px;stroke-linecap:butt;stroke-linejoin:miter;stroke-opacity:1"/>
<path class="bond-3 atom-3 atom-4" d="M 83.9,94.3 L 51.3,120.4" style="fill:none;fill-rule:evenodd;stroke:#000000;stroke-width:2.0px;stroke-linecap:butt;stroke-linejoin:miter;stroke-opacity:1"/>
<path class="bond-4 atom-3 atom-5" d="M 83.9,94.3 L 116.5,68.2" style="fill:none;fill-rule:evenodd;stroke:#000000;stroke-width:2.0px;stroke-linecap:butt;stroke-linejoin:miter;stroke-opacity:1"/>
<path class="bond-5 atom-5 atom-6" d="M 116.5,68.2 L 155.4,83.4" style="fill:none;fill-rule:evenodd;stroke:#000000;stroke-width:2.0px;stroke-linecap:butt;stroke-linejoin:miter;stroke-opacity:1"/>
<path class="bond-6 atom-6 atom-7" d="M 155.4,83.4 L 161.7,124.7" style="fill:none;fill-rule:evenodd;stroke:#000000;stroke-width:2.0px;stroke-linecap:butt;stroke-linejoin:miter;stroke-opacity:1"/>
<path class="bond-7 atom-7 atom-8" d="M 161.7,124.7 L 177.8,131.0" style="fill:none;fill-rule:evenodd;stroke:#000000;stroke-width:2.0px;stroke-linecap:butt;stroke-linejoin:miter;stroke-opacity:1"/>
<path class="bond-7 atom-7 atom-8" d="M 177.8,131.0 L 193.9,137.2" style="fill:none;fill-rule:evenodd;stroke:#FF0000;stroke-width:2.0px;stroke-linecap:butt;stroke-linejoin:miter;stroke-opacity:1"/>
<path class="bond-8 atom-6 atom-9" d="M 155.4,83.4 L 188.1,57.3" style="fill:none;fill-rule:evenodd;stroke:#000000;stroke-width:2.0px;stroke-linecap:butt;stroke-linejoin:miter;stroke-opacity:1"/>
<path class="bond-9 atom-9 atom-10" d="M 191.3,58.6 L 188.6,40.8" style="fill:none;fill-rule:evenodd;stroke:#000000;stroke-width:2.0px;stroke-linecap:butt;stroke-linejoin:miter;stroke-opacity:1"/>
<path class="bond-9 atom-9 atom-10" d="M 188.6,40.8 L 185.9,23.0" style="fill:none;fill-rule:evenodd;stroke:#FF0000;stroke-width:2.0px;stroke-linecap:butt;stroke-linejoin:miter;stroke-opacity:1"/>
<path class="bond-9 atom-9 atom-10" d="M 185.3,59.5 L 182.6,41.7" style="fill:none;fill-rule:evenodd;stroke:#000000;stroke-width:2.0px;stroke-linecap:butt;stroke-linejoin:miter;stroke-opacity:1"/>
<path class="bond-9 atom-9 atom-10" d="M 182.6,41.7 L 179.9,24.0" style="fill:none;fill-rule:evenodd;stroke:#FF0000;stroke-width:2.0px;stroke-linecap:butt;stroke-linejoin:miter;stroke-opacity:1"/>
<path class="bond-10 atom-9 atom-11" d="M 188.1,57.3 L 204.1,63.6" style="fill:none;fill-rule:evenodd;stroke:#000000;stroke-width:2.0px;stroke-linecap:butt;stroke-linejoin:miter;stroke-opacity:1"/>
<path class="bond-10 atom-9 atom-11" d="M 204.1,63.6 L 220.2,69.8" style="fill:none;fill-rule:evenodd;stroke:#FF0000;stroke-width:2.0px;stroke-linecap:butt;stroke-linejoin:miter;stroke-opacity:1"/>
<path class="bond-11 atom-3 atom-12" d="M 83.9,94.3 L 110.0,126.9" style="fill:none;fill-rule:evenodd;stroke:#000000;stroke-width:2.0px;stroke-linecap:butt;stroke-linejoin:miter;stroke-opacity:1"/>
<path class="bond-12 atom-12 atom-13" d="M 107.8,124.2 L 101.3,140.8" style="fill:none;fill-rule:evenodd;stroke:#000000;stroke-width:2.0px;stroke-linecap:butt;stroke-linejoin:miter;stroke-opacity:1"/>
<path class="bond-12 atom-12 atom-13" d="M 101.3,140.8 L 94.8,157.4" style="fill:none;fill-rule:evenodd;stroke:#FF0000;stroke-width:2.0px;stroke-linecap:butt;stroke-linejoin:miter;stroke-opacity:1"/>
<path class="bond-12 atom-12 atom-13" d="M 113.2,127.2 L 107.0,143.0" style="fill:none;fill-rule:evenodd;stroke:#000000;stroke-width:2.0px;stroke-linecap:butt;stroke-linejoin:miter;stroke-opacity:1"/>
<path class="bond-12 atom-12 atom-13" d="M 107.0,143.0 L 100.5,159.6" style="fill:none;fill-rule:evenodd;stroke:#FF0000;stroke-width:2.0px;stroke-linecap:butt;stroke-linejoin:miter;stroke-opacity:1"/>
<path class="bond-13 atom-12 atom-14" d="M 110.0,126.9 L 120.3,127.9" style="fill:none;fill-rule:evenodd;stroke:#000000;stroke-width:2.0px;stroke-linecap:butt;stroke-linejoin:miter;stroke-opacity:1"/>
<path class="bond-13 atom-12 atom-14" d="M 120.3,127.9 L 130.5,128.8" style="fill:none;fill-rule:evenodd;stroke:#FF0000;stroke-width:2.0px;stroke-linecap:butt;stroke-linejoin:miter;stroke-opacity:1"/>
<path d="M 114.9,69.5 L 116.5,68.2 L 118.5,68.9" style="fill:none;stroke:#000000;stroke-width:2.0px;stroke-linecap:butt;stroke-linejoin:miter;stroke-opacity:1;"/>
<path d="M 161.4,122.6 L 161.7,124.7 L 162.5,125.0" style="fill:none;stroke:#000000;stroke-width:2.0px;stroke-linecap:butt;stroke-linejoin:miter;stroke-opacity:1;"/>
<path d="M 186.4,58.6 L 188.1,57.3 L 188.9,57.6" style="fill:none;stroke:#000000;stroke-width:2.0px;stroke-linecap:butt;stroke-linejoin:miter;stroke-opacity:1;"/>
<path d="M 108.7,125.3 L 110.0,126.9 L 110.5,127.0" style="fill:none;stroke:#000000;stroke-width:2.0px;stroke-linecap:butt;stroke-linejoin:miter;stroke-opacity:1;"/>
<path class="atom-2" d="M 67.6 22.8 Q 67.6 19.9, 69.0 18.4 Q 70.4 16.8, 73.0 16.8 Q 75.6 16.8, 77.0 18.4 Q 78.4 19.9, 78.4 22.8 Q 78.4 25.7, 77.0 27.3 Q 75.6 28.9, 73.0 28.9 Q 70.4 28.9, 69.0 27.3 Q 67.6 25.7, 67.6 22.8 M 73.0 27.6 Q 74.8 27.6, 75.8 26.4 Q 76.8 25.2, 76.8 22.8 Q 76.8 20.5, 75.8 19.3 Q 74.8 18.1, 73.0 18.1 Q 71.2 18.1, 70.2 19.3 Q 69.2 20.4, 69.2 22.8 Q 69.2 25.2, 70.2 26.4 Q 71.2 27.6, 73.0 27.6 " fill="#FF0000"/>
<path class="atom-2" d="M 80.3 16.9 L 81.9 16.9 L 81.9 21.9 L 87.9 21.9 L 87.9 16.9 L 89.5 16.9 L 89.5 28.7 L 87.9 28.7 L 87.9 23.3 L 81.9 23.3 L 81.9 28.7 L 80.3 28.7 L 80.3 16.9 " fill="#FF0000"/>
<path class="atom-8" d="M 195.2 139.9 Q 195.2 137.1, 196.6 135.5 Q 198.0 133.9, 200.6 133.9 Q 203.3 133.9, 204.7 135.5 Q 206.1 137.1, 206.1 139.9 Q 206.1 142.8, 204.7 144.4 Q 203.2 146.1, 200.6 146.1 Q 198.0 146.1, 196.6 144.4 Q 195.2 142.8, 195.2 139.9 M 200.6 144.7 Q 202.5 144.7, 203.4 143.5 Q 204.4 142.3, 204.4 139.9 Q 204.4 137.6, 203.4 136.4 Q 202.5 135.2, 200.6 135.2 Q 198.8 135.2, 197.9 136.4 Q 196.9 137.6, 196.9 139.9 Q 196.9 142.3, 197.9 143.5 Q 198.8 144.7, 200.6 144.7 " fill="#FF0000"/>
<path class="atom-8" d="M 207.9 134.0 L 209.5 134.0 L 209.5 139.1 L 215.6 139.1 L 215.6 134.0 L 217.2 134.0 L 217.2 145.9 L 215.6 145.9 L 215.6 140.4 L 209.5 140.4 L 209.5 145.9 L 207.9 145.9 L 207.9 134.0 " fill="#FF0000"/>
<path class="atom-10" d="M 176.3 16.0 Q 176.3 13.2, 177.7 11.6 Q 179.1 10.0, 181.8 10.0 Q 184.4 10.0, 185.8 11.6 Q 187.2 13.2, 187.2 16.0 Q 187.2 18.9, 185.8 20.5 Q 184.4 22.1, 181.8 22.1 Q 179.2 22.1, 177.7 20.5 Q 176.3 18.9, 176.3 16.0 M 181.8 20.8 Q 183.6 20.8, 184.5 19.6 Q 185.5 18.4, 185.5 16.0 Q 185.5 13.7, 184.5 12.5 Q 183.6 11.3, 181.8 11.3 Q 180.0 11.3, 179.0 12.5 Q 178.0 13.7, 178.0 16.0 Q 178.0 18.4, 179.0 19.6 Q 180.0 20.8, 181.8 20.8 " fill="#FF0000"/>
<path class="atom-11" d="M 221.5 72.5 Q 221.5 69.7, 223.0 68.1 Q 224.4 66.5, 227.0 66.5 Q 229.6 66.5, 231.0 68.1 Q 232.4 69.7, 232.4 72.5 Q 232.4 75.4, 231.0 77.0 Q 229.6 78.7, 227.0 78.7 Q 224.4 78.7, 223.0 77.0 Q 221.5 75.4, 221.5 72.5 M 227.0 77.3 Q 228.8 77.3, 229.8 76.1 Q 230.7 74.9, 230.7 72.5 Q 230.7 70.2, 229.8 69.0 Q 228.8 67.8, 227.0 67.8 Q 225.2 67.8, 224.2 69.0 Q 223.2 70.2, 223.2 72.5 Q 223.2 74.9, 224.2 76.1 Q 225.2 77.3, 227.0 77.3 " fill="#FF0000"/>
<path class="atom-11" d="M 234.3 66.6 L 235.9 66.6 L 235.9 71.7 L 241.9 71.7 L 241.9 66.6 L 243.5 66.6 L 243.5 78.5 L 241.9 78.5 L 241.9 73.0 L 235.9 73.0 L 235.9 78.5 L 234.3 78.5 L 234.3 66.6 " fill="#FF0000"/>
<path class="atom-13" d="M 89.4 165.9 Q 89.4 163.0, 90.8 161.4 Q 92.2 159.9, 94.8 159.9 Q 97.4 159.9, 98.8 161.4 Q 100.2 163.0, 100.2 165.9 Q 100.2 168.7, 98.8 170.4 Q 97.4 172.0, 94.8 172.0 Q 92.2 172.0, 90.8 170.4 Q 89.4 168.8, 89.4 165.9 M 94.8 170.7 Q 96.6 170.7, 97.6 169.5 Q 98.6 168.2, 98.6 165.9 Q 98.6 163.5, 97.6 162.4 Q 96.6 161.2, 94.8 161.2 Q 93.0 161.2, 92.0 162.4 Q 91.0 163.5, 91.0 165.9 Q 91.0 168.3, 92.0 169.5 Q 93.0 170.7, 94.8 170.7 " fill="#FF0000"/>
<path class="atom-14" d="M 131.9 129.5 Q 131.9 126.7, 133.3 125.1 Q 134.7 123.5, 137.3 123.5 Q 139.9 123.5, 141.3 125.1 Q 142.7 126.7, 142.7 129.5 Q 142.7 132.4, 141.3 134.0 Q 139.9 135.6, 137.3 135.6 Q 134.7 135.6, 133.3 134.0 Q 131.9 132.4, 131.9 129.5 M 137.3 134.3 Q 139.1 134.3, 140.1 133.1 Q 141.1 131.9, 141.1 129.5 Q 141.1 127.2, 140.1 126.0 Q 139.1 124.8, 137.3 124.8 Q 135.5 124.8, 134.5 126.0 Q 133.5 127.2, 133.5 129.5 Q 133.5 131.9, 134.5 133.1 Q 135.5 134.3, 137.3 134.3 " fill="#FF0000"/>
<path class="atom-14" d="M 144.6 123.6 L 146.2 123.6 L 146.2 128.6 L 152.2 128.6 L 152.2 123.6 L 153.8 123.6 L 153.8 135.4 L 152.2 135.4 L 152.2 130.0 L 146.2 130.0 L 146.2 135.4 L 144.6 135.4 L 144.6 123.6 " fill="#FF0000"/>
<path class="legend" d="M 121.5 181.9 Q 121.5 179.6, 122.2 177.7 Q 122.8 175.8, 124.1 173.8 L 125.0 174.4 Q 124.0 176.3, 123.4 178.0 Q 122.9 179.7, 122.9 181.9 Q 122.9 184.0, 123.4 185.8 Q 124.0 187.5, 125.0 189.4 L 124.1 190.0 Q 122.8 188.0, 122.2 186.1 Q 121.5 184.2, 121.5 181.9 " fill="#000000"/>
<path class="legend" d="M 125.9 177.3 Q 126.4 176.2, 127.3 175.6 Q 128.3 175.0, 129.7 175.0 Q 131.4 175.0, 132.4 175.9 Q 133.3 176.8, 133.3 178.5 Q 133.3 180.2, 132.1 181.7 Q 130.9 183.3, 128.3 185.2 L 133.5 185.2 L 133.5 186.4 L 125.9 186.4 L 125.9 185.4 Q 128.0 183.9, 129.3 182.8 Q 130.5 181.6, 131.1 180.6 Q 131.7 179.6, 131.7 178.6 Q 131.7 177.5, 131.2 176.9 Q 130.7 176.3, 129.7 176.3 Q 128.8 176.3, 128.2 176.6 Q 127.6 177.0, 127.2 177.8 L 125.9 177.3 " fill="#000000"/>
<path class="legend" d="M 138.5 181.9 Q 138.5 184.2, 137.8 186.1 Q 137.2 188.0, 135.9 190.0 L 135.0 189.4 Q 136.0 187.5, 136.5 185.8 Q 137.1 184.0, 137.1 181.9 Q 137.1 179.7, 136.5 178.0 Q 136.0 176.3, 135.0 174.4 L 135.9 173.8 Q 137.2 175.8, 137.8 177.7 Q 138.5 179.6, 138.5 181.9 " fill="#000000"/>
</g>
    <g transform="translate(260.0, 0) scale(1 1) "><line x1="5" y1="100" x2="35" y2="100" style="stroke:rgb(0,0,0);stroke-width:2"/>
  <line x1="34" y1="100" x2="29" y2="95" style="stroke:rgb(0,0,0);stroke-width:2"/>
  <line x1="34" y1="100" x2="29" y2="105" style="stroke:rgb(0,0,0);stroke-width:2"/>
</g>
    <g transform="translate(300.0, 0) scale(1 1) "><!-- END OF HEADER -->
<rect style="opacity:1.0;fill:#FFFFFF;stroke:none" width="260.0" height="200.0" x="0.0" y="0.0"> </rect>
<path class="bond-0 atom-0 atom-1" d="M 13.0,76.3 L 55.6,69.8" style="fill:none;fill-rule:evenodd;stroke:#000000;stroke-width:2.0px;stroke-linecap:butt;stroke-linejoin:miter;stroke-opacity:1"/>
<path class="bond-1 atom-1 atom-2" d="M 55.6,69.8 L 61.9,53.6" style="fill:none;fill-rule:evenodd;stroke:#000000;stroke-width:2.0px;stroke-linecap:butt;stroke-linejoin:miter;stroke-opacity:1"/>
<path class="bond-1 atom-1 atom-2" d="M 61.9,53.6 L 68.2,37.4" style="fill:none;fill-rule:evenodd;stroke:#FF0000;stroke-width:2.0px;stroke-linecap:butt;stroke-linejoin:miter;stroke-opacity:1"/>
<path class="bond-2 atom-1 atom-3" d="M 55.6,69.8 L 82.5,103.4" style="fill:none;fill-rule:evenodd;stroke:#000000;stroke-width:2.0px;stroke-linecap:butt;stroke-linejoin:miter;stroke-opacity:1"/>
<path class="bond-3 atom-3 atom-4" d="M 82.5,103.4 L 48.9,130.3" style="fill:none;fill-rule:evenodd;stroke:#000000;stroke-width:2.0px;stroke-linecap:butt;stroke-linejoin:miter;stroke-opacity:1"/>
<path class="bond-4 atom-3 atom-5" d="M 82.5,103.4 L 116.1,76.5" style="fill:none;fill-rule:evenodd;stroke:#000000;stroke-width:2.0px;stroke-linecap:butt;stroke-linejoin:miter;stroke-opacity:1"/>
<path class="bond-5 atom-5 atom-6" d="M 116.1,76.5 L 156.2,92.2" style="fill:none;fill-rule:evenodd;stroke:#000000;stroke-width:2.0px;stroke-linecap:butt;stroke-linejoin:miter;stroke-opacity:1"/>
<path class="bond-6 atom-6 atom-7" d="M 156.2,92.2 L 162.7,134.7" style="fill:none;fill-rule:evenodd;stroke:#000000;stroke-width:2.0px;stroke-linecap:butt;stroke-linejoin:miter;stroke-opacity:1"/>
<path class="bond-7 atom-7 atom-8" d="M 162.7,134.7 L 179.3,141.2" style="fill:none;fill-rule:evenodd;stroke:#000000;stroke-width:2.0px;stroke-linecap:butt;stroke-linejoin:miter;stroke-opacity:1"/>
<path class="bond-7 atom-7 atom-8" d="M 179.3,141.2 L 195.8,147.7" style="fill:none;fill-rule:evenodd;stroke:#FF0000;stroke-width:2.0px;stroke-linecap:butt;stroke-linejoin:miter;stroke-opacity:1"/>
<path class="bond-7 atom-7 atom-8" d="M 168.4,130.2 L 181.6,135.3" style="fill:none;fill-rule:evenodd;stroke:#000000;stroke-width:2.0px;stroke-linecap:butt;stroke-linejoin:miter;stroke-opacity:1"/>
<path class="bond-7 atom-7 atom-8" d="M 181.6,135.3 L 198.1,141.8" style="fill:none;fill-rule:evenodd;stroke:#FF0000;stroke-width:2.0px;stroke-linecap:butt;stroke-linejoin:miter;stroke-opacity:1"/>
<path class="bond-8 atom-6 atom-9" d="M 156.2,92.2 L 189.8,65.3" style="fill:none;fill-rule:evenodd;stroke:#000000;stroke-width:2.0px;stroke-linecap:butt;stroke-linejoin:miter;stroke-opacity:1"/>
<path class="bond-9 atom-9 atom-10" d="M 193.2,66.6 L 190.4,48.3" style="fill:none;fill-rule:evenodd;stroke:#000000;stroke-width:2.0px;stroke-linecap:butt;stroke-linejoin:miter;stroke-opacity:1"/>
<path class="bond-9 atom-9 atom-10" d="M 190.4,48.3 L 187.7,29.9" style="fill:none;fill-rule:evenodd;stroke:#FF0000;stroke-width:2.0px;stroke-linecap:butt;stroke-linejoin:miter;stroke-opacity:1"/>
<path class="bond-9 atom-9 atom-10" d="M 187.0,67.5 L 184.2,49.2" style="fill:none;fill-rule:evenodd;stroke:#000000;stroke-width:2.0px;stroke-linecap:butt;stroke-linejoin:miter;stroke-opacity:1"/>
<path class="bond-9 atom-9 atom-10" d="M 184.2,49.2 L 181.4,30.9" style="fill:none;fill-rule:evenodd;stroke:#FF0000;stroke-width:2.0px;stroke-linecap:butt;stroke-linejoin:miter;stroke-opacity:1"/>
<path class="bond-10 atom-9 atom-11" d="M 189.8,65.3 L 206.4,71.7" style="fill:none;fill-rule:evenodd;stroke:#000000;stroke-width:2.0px;stroke-linecap:butt;stroke-linejoin:miter;stroke-opacity:1"/>
<path class="bond-10 atom-9 atom-11" d="M 206.4,71.7 L 223.0,78.2" style="fill:none;fill-rule:evenodd;stroke:#FF0000;stroke-width:2.0px;stroke-linecap:butt;stroke-linejoin:miter;stroke-opacity:1"/>
<path class="bond-11 atom-3 atom-12" d="M 82.5,103.4 L 109.4,137.0" style="fill:none;fill-rule:evenodd;stroke:#000000;stroke-width:2.0px;stroke-linecap:butt;stroke-linejoin:miter;stroke-opacity:1"/>
<path class="bond-12 atom-12 atom-13" d="M 107.1,134.2 L 100.4,151.3" style="fill:none;fill-rule:evenodd;stroke:#000000;stroke-width:2.0px;stroke-linecap:butt;stroke-linejoin:miter;stroke-opacity:1"/>
<path class="bond-12 atom-12 atom-13" d="M 100.4,151.3 L 93.7,168.4" style="fill:none;fill-rule:evenodd;stroke:#FF0000;stroke-width:2.0px;stroke-linecap:butt;stroke-linejoin:miter;stroke-opacity:1"/>
<path class="bond-12 atom-12 atom-13" d="M 112.6,137.3 L 106.3,153.6" style="fill:none;fill-rule:evenodd;stroke:#000000;stroke-width:2.0px;stroke-linecap:butt;stroke-linejoin:miter;stroke-opacity:1"/>
<path class="bond-12 atom-12 atom-13" d="M 106.3,153.6 L 99.6,170.7" style="fill:none;fill-rule:evenodd;stroke:#FF0000;stroke-width:2.0px;stroke-linecap:butt;stroke-linejoin:miter;stroke-opacity:1"/>
<path class="bond-13 atom-12 atom-14" d="M 109.4,137.0 L 120.0,138.0" style="fill:none;fill-rule:evenodd;stroke:#000000;stroke-width:2.0px;stroke-linecap:butt;stroke-linejoin:miter;stroke-opacity:1"/>
<path class="bond-13 atom-12 atom-14" d="M 120.0,138.0 L 130.5,139.0" style="fill:none;fill-rule:evenodd;stroke:#FF0000;stroke-width:2.0px;stroke-linecap:butt;stroke-linejoin:miter;stroke-opacity:1"/>
<path d="M 114.4,77.8 L 116.1,76.5 L 118.1,77.3" style="fill:none;stroke:#000000;stroke-width:2.0px;stroke-linecap:butt;stroke-linejoin:miter;stroke-opacity:1;"/>
<path d="M 162.4,132.6 L 162.7,134.7 L 163.5,135.1" style="fill:none;stroke:#000000;stroke-width:2.0px;stroke-linecap:butt;stroke-linejoin:miter;stroke-opacity:1;"/>
<path d="M 188.2,66.6 L 189.8,65.3 L 190.7,65.6" style="fill:none;stroke:#000000;stroke-width:2.0px;stroke-linecap:butt;stroke-linejoin:miter;stroke-opacity:1;"/>
<path d="M 108.0,135.3 L 109.4,137.0 L 109.9,137.1" style="fill:none;stroke:#000000;stroke-width:2.0px;stroke-linecap:butt;stroke-linejoin:miter;stroke-opacity:1;"/>
<path class="atom-2" d="M 65.6 29.7 Q 65.6 26.8, 67.1 25.1 Q 68.5 23.5, 71.2 23.5 Q 73.9 23.5, 75.4 25.1 Q 76.8 26.8, 76.8 29.7 Q 76.8 32.7, 75.4 34.3 Q 73.9 36.0, 71.2 36.0 Q 68.6 36.0, 67.1 34.3 Q 65.6 32.7, 65.6 29.7 M 71.2 34.6 Q 73.1 34.6, 74.1 33.4 Q 75.1 32.1, 75.1 29.7 Q 75.1 27.3, 74.1 26.1 Q 73.1 24.9, 71.2 24.9 Q 69.4 24.9, 68.4 26.1 Q 67.4 27.3, 67.4 29.7 Q 67.4 32.2, 68.4 33.4 Q 69.4 34.6, 71.2 34.6 " fill="#FF0000"/>
<path class="atom-2" d="M 78.7 23.6 L 80.4 23.6 L 80.4 28.8 L 86.6 28.8 L 86.6 23.6 L 88.3 23.6 L 88.3 35.8 L 86.6 35.8 L 86.6 30.2 L 80.4 30.2 L 80.4 35.8 L 78.7 35.8 L 78.7 23.6 " fill="#FF0000"/>
<path class="atom-8" d="M 198.4 147.5 Q 198.4 144.6, 199.8 142.9 Q 201.3 141.3, 204.0 141.3 Q 206.7 141.3, 208.1 142.9 Q 209.6 144.6, 209.6 147.5 Q 209.6 150.5, 208.1 152.1 Q 206.6 153.8, 204.0 153.8 Q 201.3 153.8, 199.8 152.1 Q 198.4 150.5, 198.4 147.5 M 204.0 152.4 Q 205.8 152.4, 206.8 151.2 Q 207.8 149.9, 207.8 147.5 Q 207.8 145.1, 206.8 143.9 Q 205.8 142.7, 204.0 142.7 Q 202.1 142.7, 201.1 143.9 Q 200.1 145.1, 200.1 147.5 Q 200.1 150.0, 201.1 151.2 Q 202.1 152.4, 204.0 152.4 " fill="#FF0000"/>
<path class="atom-10" d="M 177.8 22.7 Q 177.8 19.8, 179.2 18.1 Q 180.7 16.5, 183.4 16.5 Q 186.1 16.5, 187.5 18.1 Q 189.0 19.8, 189.0 22.7 Q 189.0 25.7, 187.5 27.4 Q 186.0 29.0, 183.4 29.0 Q 180.7 29.0, 179.2 27.4 Q 177.8 25.7, 177.8 22.7 M 183.4 27.7 Q 185.2 27.7, 186.2 26.4 Q 187.2 25.2, 187.2 22.7 Q 187.2 20.3, 186.2 19.1 Q 185.2 17.9, 183.4 17.9 Q 181.5 17.9, 180.5 19.1 Q 179.5 20.3, 179.5 22.7 Q 179.5 25.2, 180.5 26.4 Q 181.5 27.7, 183.4 27.7 " fill="#FF0000"/>
<path class="atom-11" d="M 224.4 81.0 Q 224.4 78.0, 225.8 76.4 Q 227.3 74.8, 230.0 74.8 Q 232.7 74.8, 234.1 76.4 Q 235.6 78.0, 235.6 81.0 Q 235.6 83.9, 234.1 85.6 Q 232.6 87.3, 230.0 87.3 Q 227.3 87.3, 225.8 85.6 Q 224.4 83.9, 224.4 81.0 M 230.0 85.9 Q 231.8 85.9, 232.8 84.7 Q 233.8 83.4, 233.8 81.0 Q 233.8 78.6, 232.8 77.4 Q 231.8 76.1, 230.0 76.1 Q 228.1 76.1, 227.1 77.3 Q 226.1 78.5, 226.1 81.0 Q 226.1 83.4, 227.1 84.7 Q 228.1 85.9, 230.0 85.9 " fill="#FF0000"/>
<path class="atom-11" d="M 237.5 74.9 L 239.1 74.9 L 239.1 80.1 L 245.3 80.1 L 245.3 74.9 L 247.0 74.9 L 247.0 87.1 L 245.3 87.1 L 245.3 81.5 L 239.1 81.5 L 239.1 87.1 L 237.5 87.1 L 237.5 74.9 " fill="#FF0000"/>
<path class="atom-13" d="M 88.1 177.2 Q 88.1 174.2, 89.6 172.6 Q 91.0 171.0, 93.7 171.0 Q 96.4 171.0, 97.9 172.6 Q 99.3 174.2, 99.3 177.2 Q 99.3 180.1, 97.9 181.8 Q 96.4 183.5, 93.7 183.5 Q 91.0 183.5, 89.6 181.8 Q 88.1 180.1, 88.1 177.2 M 93.7 182.1 Q 95.6 182.1, 96.6 180.9 Q 97.6 179.6, 97.6 177.2 Q 97.6 174.8, 96.6 173.6 Q 95.6 172.3, 93.7 172.3 Q 91.9 172.3, 90.8 173.6 Q 89.8 174.8, 89.8 177.2 Q 89.8 179.6, 90.8 180.9 Q 91.9 182.1, 93.7 182.1 " fill="#FF0000"/>
<path class="atom-14" d="M 131.9 139.7 Q 131.9 136.8, 133.4 135.1 Q 134.8 133.5, 137.5 133.5 Q 140.2 133.5, 141.7 135.1 Q 143.1 136.8, 143.1 139.7 Q 143.1 142.6, 141.7 144.3 Q 140.2 146.0, 137.5 146.0 Q 134.8 146.0, 133.4 144.3 Q 131.9 142.7, 131.9 139.7 M 137.5 144.6 Q 139.4 144.6, 140.4 143.4 Q 141.4 142.1, 141.4 139.7 Q 141.4 137.3, 140.4 136.1 Q 139.4 134.9, 137.5 134.9 Q 135.7 134.9, 134.6 136.1 Q 133.6 137.3, 133.6 139.7 Q 133.6 142.1, 134.6 143.4 Q 135.7 144.6, 137.5 144.6 " fill="#FF0000"/>
<path class="atom-14" d="M 145.0 133.6 L 146.7 133.6 L 146.7 138.8 L 152.9 138.8 L 152.9 133.6 L 154.6 133.6 L 154.6 145.8 L 152.9 145.8 L 152.9 140.2 L 146.7 140.2 L 146.7 145.8 L 145.0 145.8 L 145.0 133.6 " fill="#FF0000"/>
</g>
    <g transform="translate(560.0, 0) scale(1 1) "><line x1="15" y1="100" x2="25" y2="100" style="stroke:rgb(0,0,0);stroke-width:2"/>
  <line x1="20" y1="95" x2="20" y2="105" style="stroke:rgb(0,0,0);stroke-width:2"/>
</g>
    <g transform="translate(600.0, 0) scale(1 1) "><!-- END OF HEADER -->
<rect style="opacity:1.0;fill:#FFFFFF;stroke:none" width="260.0" height="200.0" x="0.0" y="0.0"> </rect>
<path class="bond-0 atom-0 atom-1" d="M 13.0,76.3 L 55.6,69.8" style="fill:none;fill-rule:evenodd;stroke:#000000;stroke-width:2.0px;stroke-linecap:butt;stroke-linejoin:miter;stroke-opacity:1"/>
<path class="bond-1 atom-1 atom-2" d="M 55.6,69.8 L 61.9,53.6" style="fill:none;fill-rule:evenodd;stroke:#000000;stroke-width:2.0px;stroke-linecap:butt;stroke-linejoin:miter;stroke-opacity:1"/>
<path class="bond-1 atom-1 atom-2" d="M 61.9,53.6 L 68.2,37.4" style="fill:none;fill-rule:evenodd;stroke:#FF0000;stroke-width:2.0px;stroke-linecap:butt;stroke-linejoin:miter;stroke-opacity:1"/>
<path class="bond-2 atom-1 atom-3" d="M 55.6,69.8 L 82.5,103.4" style="fill:none;fill-rule:evenodd;stroke:#000000;stroke-width:2.0px;stroke-linecap:butt;stroke-linejoin:miter;stroke-opacity:1"/>
<path class="bond-3 atom-3 atom-4" d="M 82.5,103.4 L 48.9,130.3" style="fill:none;fill-rule:evenodd;stroke:#000000;stroke-width:2.0px;stroke-linecap:butt;stroke-linejoin:miter;stroke-opacity:1"/>
<path class="bond-4 atom-3 atom-5" d="M 82.5,103.4 L 116.1,76.5" style="fill:none;fill-rule:evenodd;stroke:#000000;stroke-width:2.0px;stroke-linecap:butt;stroke-linejoin:miter;stroke-opacity:1"/>
<path class="bond-5 atom-5 atom-6" d="M 116.1,76.5 L 156.2,92.2" style="fill:none;fill-rule:evenodd;stroke:#000000;stroke-width:2.0px;stroke-linecap:butt;stroke-linejoin:miter;stroke-opacity:1"/>
<path class="bond-6 atom-6 atom-7" d="M 156.2,92.2 L 162.7,134.7" style="fill:none;fill-rule:evenodd;stroke:#000000;stroke-width:2.0px;stroke-linecap:butt;stroke-linejoin:miter;stroke-opacity:1"/>
<path class="bond-7 atom-7 atom-8" d="M 162.7,134.7 L 179.3,141.2" style="fill:none;fill-rule:evenodd;stroke:#000000;stroke-width:2.0px;stroke-linecap:butt;stroke-linejoin:miter;stroke-opacity:1"/>
<path class="bond-7 atom-7 atom-8" d="M 179.3,141.2 L 195.8,147.7" style="fill:none;fill-rule:evenodd;stroke:#FF0000;stroke-width:2.0px;stroke-linecap:butt;stroke-linejoin:miter;stroke-opacity:1"/>
<path class="bond-8 atom-6 atom-9" d="M 156.2,92.2 L 189.8,65.3" style="fill:none;fill-rule:evenodd;stroke:#000000;stroke-width:2.0px;stroke-linecap:butt;stroke-linejoin:miter;stroke-opacity:1"/>
<path class="bond-9 atom-9 atom-10" d="M 189.8,65.3 L 206.4,71.7" style="fill:none;fill-rule:evenodd;stroke:#000000;stroke-width:2.0px;stroke-linecap:butt;stroke-linejoin:miter;stroke-opacity:1"/>
<path class="bond-9 atom-9 atom-10" d="M 206.4,71.7 L 223.0,78.2" style="fill:none;fill-rule:evenodd;stroke:#FF0000;stroke-width:2.0px;stroke-linecap:butt;stroke-linejoin:miter;stroke-opacity:1"/>
<path class="bond-10 atom-9 atom-11" d="M 189.8,65.3 L 187.2,47.8" style="fill:none;fill-rule:evenodd;stroke:#000000;stroke-width:2.0px;stroke-linecap:butt;stroke-linejoin:miter;stroke-opacity:1"/>
<path class="bond-10 atom-9 atom-11" d="M 187.2,47.8 L 184.5,30.4" style="fill:none;fill-rule:evenodd;stroke:#FF0000;stroke-width:2.0px;stroke-linecap:butt;stroke-linejoin:miter;stroke-opacity:1"/>
<path class="bond-11 atom-3 atom-12" d="M 82.5,103.4 L 109.4,137.0" style="fill:none;fill-rule:evenodd;stroke:#000000;stroke-width:2.0px;stroke-linecap:butt;stroke-linejoin:miter;stroke-opacity:1"/>
<path class="bond-12 atom-12 atom-13" d="M 107.1,134.2 L 100.4,151.3" style="fill:none;fill-rule:evenodd;stroke:#000000;stroke-width:2.0px;stroke-linecap:butt;stroke-linejoin:miter;stroke-opacity:1"/>
<path class="bond-12 atom-12 atom-13" d="M 100.4,151.3 L 93.7,168.4" style="fill:none;fill-rule:evenodd;stroke:#FF0000;stroke-width:2.0px;stroke-linecap:butt;stroke-linejoin:miter;stroke-opacity:1"/>
<path class="bond-12 atom-12 atom-13" d="M 112.6,137.3 L 106.3,153.6" style="fill:none;fill-rule:evenodd;stroke:#000000;stroke-width:2.0px;stroke-linecap:butt;stroke-linejoin:miter;stroke-opacity:1"/>
<path class="bond-12 atom-12 atom-13" d="M 106.3,153.6 L 99.6,170.7" style="fill:none;fill-rule:evenodd;stroke:#FF0000;stroke-width:2.0px;stroke-linecap:butt;stroke-linejoin:miter;stroke-opacity:1"/>
<path class="bond-13 atom-12 atom-14" d="M 109.4,137.0 L 120.0,138.0" style="fill:none;fill-rule:evenodd;stroke:#000000;stroke-width:2.0px;stroke-linecap:butt;stroke-linejoin:miter;stroke-opacity:1"/>
<path class="bond-13 atom-12 atom-14" d="M 120.0,138.0 L 130.5,139.0" style="fill:none;fill-rule:evenodd;stroke:#FF0000;stroke-width:2.0px;stroke-linecap:butt;stroke-linejoin:miter;stroke-opacity:1"/>
<path d="M 114.4,77.8 L 116.1,76.5 L 118.1,77.3" style="fill:none;stroke:#000000;stroke-width:2.0px;stroke-linecap:butt;stroke-linejoin:miter;stroke-opacity:1;"/>
<path d="M 162.4,132.6 L 162.7,134.7 L 163.5,135.1" style="fill:none;stroke:#000000;stroke-width:2.0px;stroke-linecap:butt;stroke-linejoin:miter;stroke-opacity:1;"/>
<path d="M 108.0,135.3 L 109.4,137.0 L 109.9,137.1" style="fill:none;stroke:#000000;stroke-width:2.0px;stroke-linecap:butt;stroke-linejoin:miter;stroke-opacity:1;"/>
<path class="atom-2" d="M 65.6 29.7 Q 65.6 26.8, 67.1 25.1 Q 68.5 23.5, 71.2 23.5 Q 73.9 23.5, 75.4 25.1 Q 76.8 26.8, 76.8 29.7 Q 76.8 32.7, 75.4 34.3 Q 73.9 36.0, 71.2 36.0 Q 68.6 36.0, 67.1 34.3 Q 65.6 32.7, 65.6 29.7 M 71.2 34.6 Q 73.1 34.6, 74.1 33.4 Q 75.1 32.1, 75.1 29.7 Q 75.1 27.3, 74.1 26.1 Q 73.1 24.9, 71.2 24.9 Q 69.4 24.9, 68.4 26.1 Q 67.4 27.3, 67.4 29.7 Q 67.4 32.2, 68.4 33.4 Q 69.4 34.6, 71.2 34.6 " fill="#FF0000"/>
<path class="atom-2" d="M 78.7 23.6 L 80.4 23.6 L 80.4 28.8 L 86.6 28.8 L 86.6 23.6 L 88.3 23.6 L 88.3 35.8 L 86.6 35.8 L 86.6 30.2 L 80.4 30.2 L 80.4 35.8 L 78.7 35.8 L 78.7 23.6 " fill="#FF0000"/>
<path class="atom-8" d="M 197.2 150.4 Q 197.2 147.5, 198.7 145.9 Q 200.1 144.2, 202.8 144.2 Q 205.5 144.2, 207.0 145.9 Q 208.4 147.5, 208.4 150.4 Q 208.4 153.4, 207.0 155.1 Q 205.5 156.8, 202.8 156.8 Q 200.1 156.8, 198.7 155.1 Q 197.2 153.4, 197.2 150.4 M 202.8 155.4 Q 204.7 155.4, 205.7 154.1 Q 206.7 152.9, 206.7 150.4 Q 206.7 148.0, 205.7 146.8 Q 204.7 145.6, 202.8 145.6 Q 201.0 145.6, 199.9 146.8 Q 198.9 148.0, 198.9 150.4 Q 198.9 152.9, 199.9 154.1 Q 201.0 155.4, 202.8 155.4 " fill="#FF0000"/>
<path class="atom-8" d="M 210.3 144.4 L 212.0 144.4 L 212.0 149.6 L 218.2 149.6 L 218.2 144.4 L 219.9 144.4 L 219.9 156.6 L 218.2 156.6 L 218.2 150.9 L 212.0 150.9 L 212.0 156.6 L 210.3 156.6 L 210.3 144.4 " fill="#FF0000"/>
<path class="atom-10" d="M 224.4 81.0 Q 224.4 78.0, 225.8 76.4 Q 227.3 74.8, 230.0 74.8 Q 232.7 74.8, 234.1 76.4 Q 235.6 78.0, 235.6 81.0 Q 235.6 83.9, 234.1 85.6 Q 232.6 87.3, 230.0 87.3 Q 227.3 87.3, 225.8 85.6 Q 224.4 83.9, 224.4 81.0 M 230.0 85.9 Q 231.8 85.9, 232.8 84.7 Q 233.8 83.4, 233.8 81.0 Q 233.8 78.6, 232.8 77.4 Q 231.8 76.1, 230.0 76.1 Q 228.1 76.1, 227.1 77.3 Q 226.1 78.5, 226.1 81.0 Q 226.1 83.4, 227.1 84.7 Q 228.1 85.9, 230.0 85.9 " fill="#FF0000"/>
<path class="atom-10" d="M 237.5 74.9 L 239.1 74.9 L 239.1 80.1 L 245.3 80.1 L 245.3 74.9 L 247.0 74.9 L 247.0 87.1 L 245.3 87.1 L 245.3 81.5 L 239.1 81.5 L 239.1 87.1 L 237.5 87.1 L 237.5 74.9 " fill="#FF0000"/>
<path class="atom-11" d="M 177.8 22.7 Q 177.8 19.8, 179.2 18.1 Q 180.7 16.5, 183.4 16.5 Q 186.1 16.5, 187.5 18.1 Q 189.0 19.8, 189.0 22.7 Q 189.0 25.7, 187.5 27.4 Q 186.0 29.0, 183.4 29.0 Q 180.7 29.0, 179.2 27.4 Q 177.8 25.7, 177.8 22.7 M 183.4 27.7 Q 185.2 27.7, 186.2 26.4 Q 187.2 25.2, 187.2 22.7 Q 187.2 20.3, 186.2 19.1 Q 185.2 17.9, 183.4 17.9 Q 181.5 17.9, 180.5 19.1 Q 179.5 20.3, 179.5 22.7 Q 179.5 25.2, 180.5 26.4 Q 181.5 27.7, 183.4 27.7 " fill="#FF0000"/>
<path class="atom-11" d="M 190.9 16.6 L 192.5 16.6 L 192.5 21.8 L 198.7 21.8 L 198.7 16.6 L 200.4 16.6 L 200.4 28.8 L 198.7 28.8 L 198.7 23.2 L 192.5 23.2 L 192.5 28.8 L 190.9 28.8 L 190.9 16.6 " fill="#FF0000"/>
<path class="atom-13" d="M 88.1 177.2 Q 88.1 174.2, 89.6 172.6 Q 91.0 171.0, 93.7 171.0 Q 96.4 171.0, 97.9 172.6 Q 99.3 174.2, 99.3 177.2 Q 99.3 180.1, 97.9 181.8 Q 96.4 183.5, 93.7 183.5 Q 91.0 183.5, 89.6 181.8 Q 88.1 180.1, 88.1 177.2 M 93.7 182.1 Q 95.6 182.1, 96.6 180.9 Q 97.6 179.6, 97.6 177.2 Q 97.6 174.8, 96.6 173.6 Q 95.6 172.3, 93.7 172.3 Q 91.9 172.3, 90.8 173.6 Q 89.8 174.8, 89.8 177.2 Q 89.8 179.6, 90.8 180.9 Q 91.9 182.1, 93.7 182.1 " fill="#FF0000"/>
<path class="atom-14" d="M 131.9 139.7 Q 131.9 136.8, 133.4 135.1 Q 134.8 133.5, 137.5 133.5 Q 140.2 133.5, 141.7 135.1 Q 143.1 136.8, 143.1 139.7 Q 143.1 142.6, 141.7 144.3 Q 140.2 146.0, 137.5 146.0 Q 134.8 146.0, 133.4 144.3 Q 131.9 142.7, 131.9 139.7 M 137.5 144.6 Q 139.4 144.6, 140.4 143.4 Q 141.4 142.1, 141.4 139.7 Q 141.4 137.3, 140.4 136.1 Q 139.4 134.9, 137.5 134.9 Q 135.7 134.9, 134.6 136.1 Q 133.6 137.3, 133.6 139.7 Q 133.6 142.1, 134.6 143.4 Q 135.7 144.6, 137.5 144.6 " fill="#FF0000"/>
<path class="atom-14" d="M 145.0 133.6 L 146.7 133.6 L 146.7 138.8 L 152.9 138.8 L 152.9 133.6 L 154.6 133.6 L 154.6 145.8 L 152.9 145.8 L 152.9 140.2 L 146.7 140.2 L 146.7 145.8 L 145.0 145.8 L 145.0 133.6 " fill="#FF0000"/>
</g>
  </g>
</svg>
