<?xml version='1.0' encoding='ASCII' standalone='yes'?>
<svg xmlns="http://www.w3.org/2000/svg" xmlns:xlink="http://www.w3.org/1999/xlink" version="1.1" width="903.0px" viewBox="0 0 903.0 200.0" height="200.0px">
  <g>
    <g transform="translate(0, 0) scale(1 1) "><!-- END OF HEADER -->
<rect style="opacity:1.0;fill:#FFFFFF;stroke:none" width="285.0" height="200.0" x="0.0" y="0.0"> </rect>
<path class="bond-0 atom-0 atom-1" d="M 263.3,76.2 L 236.7,93.2" style="fill:none;fill-rule:evenodd;stroke:#000000;stroke-width:2.0px;stroke-linecap:butt;stroke-linejoin:miter;stroke-opacity:1"/>
<path class="bond-1 atom-1 atom-2" d="M 236.7,93.2 L 208.7,78.7" style="fill:none;fill-rule:evenodd;stroke:#000000;stroke-width:2.0px;stroke-linecap:butt;stroke-linejoin:miter;stroke-opacity:1"/>
<path class="bond-2 atom-2 atom-3" d="M 208.7,78.7 L 182.1,95.7" style="fill:none;fill-rule:evenodd;stroke:#000000;stroke-width:2.0px;stroke-linecap:butt;stroke-linejoin:miter;stroke-opacity:1"/>
<path class="bond-3 atom-3 atom-4" d="M 182.1,95.7 L 154.1,81.2" style="fill:none;fill-rule:evenodd;stroke:#000000;stroke-width:2.0px;stroke-linecap:butt;stroke-linejoin:miter;stroke-opacity:1"/>
<path class="bond-4 atom-4 atom-5" d="M 154.1,81.2 L 127.5,98.2" style="fill:none;fill-rule:evenodd;stroke:#000000;stroke-width:2.0px;stroke-linecap:butt;stroke-linejoin:miter;stroke-opacity:1"/>
<path class="bond-5 atom-5 atom-6" d="M 127.5,98.2 L 99.5,83.7" style="fill:none;fill-rule:evenodd;stroke:#000000;stroke-width:2.0px;stroke-linecap:butt;stroke-linejoin:miter;stroke-opacity:1"/>
<path class="bond-6 atom-6 atom-7" d="M 99.5,83.7 L 98.9,70.8" style="fill:none;fill-rule:evenodd;stroke:#000000;stroke-width:2.0px;stroke-linecap:butt;stroke-linejoin:miter;stroke-opacity:1"/>
<path class="bond-6 atom-6 atom-7" d="M 98.9,70.8 L 98.3,57.9" style="fill:none;fill-rule:evenodd;stroke:#FF0000;stroke-width:2.0px;stroke-linecap:butt;stroke-linejoin:miter;stroke-opacity:1"/>
<path class="bond-7 atom-6 atom-8" d="M 99.5,83.7 L 72.9,100.7" style="fill:none;fill-rule:evenodd;stroke:#000000;stroke-width:2.0px;stroke-linecap:butt;stroke-linejoin:miter;stroke-opacity:1"/>
<path class="bond-8 atom-8 atom-9" d="M 72.9,100.7 L 89.9,127.3" style="fill:none;fill-rule:evenodd;stroke:#000000;stroke-width:2.0px;stroke-linecap:butt;stroke-linejoin:miter;stroke-opacity:1"/>
<path class="bond-9 atom-8 atom-10" d="M 72.9,100.7 L 55.9,74.1" style="fill:none;fill-rule:evenodd;stroke:#000000;stroke-width:2.0px;stroke-linecap:butt;stroke-linejoin:miter;stroke-opacity:1"/>
<path class="bond-10 atom-8 atom-11" d="M 72.9,100.7 L 46.4,117.7" style="fill:none;fill-rule:evenodd;stroke:#000000;stroke-width:2.0px;stroke-linecap:butt;stroke-linejoin:miter;stroke-opacity:1"/>
<path class="bond-11 atom-11 atom-12" d="M 48.7,116.2 L 36.6,110.0" style="fill:none;fill-rule:evenodd;stroke:#000000;stroke-width:2.0px;stroke-linecap:butt;stroke-linejoin:miter;stroke-opacity:1"/>
<path class="bond-11 atom-11 atom-12" d="M 36.6,110.0 L 24.6,103.7" style="fill:none;fill-rule:evenodd;stroke:#FF0000;stroke-width:2.0px;stroke-linecap:butt;stroke-linejoin:miter;stroke-opacity:1"/>
<path class="bond-11 atom-11 atom-12" d="M 46.5,120.4 L 34.4,114.2" style="fill:none;fill-rule:evenodd;stroke:#000000;stroke-width:2.0px;stroke-linecap:butt;stroke-linejoin:miter;stroke-opacity:1"/>
<path class="bond-11 atom-11 atom-12" d="M 34.4,114.2 L 22.4,107.9" style="fill:none;fill-rule:evenodd;stroke:#FF0000;stroke-width:2.0px;stroke-linecap:butt;stroke-linejoin:miter;stroke-opacity:1"/>
<path class="bond-12 atom-11 atom-13" d="M 46.4,117.7 L 47.0,130.7" style="fill:none;fill-rule:evenodd;stroke:#000000;stroke-width:2.0px;stroke-linecap:butt;stroke-linejoin:miter;stroke-opacity:1"/>
<path class="bond-12 atom-11 atom-13" d="M 47.0,130.7 L 47.5,143.6" style="fill:none;fill-rule:evenodd;stroke:#FF0000;stroke-width:2.0px;stroke-linecap:butt;stroke-linejoin:miter;stroke-opacity:1"/>
<path class="bond-13 atom-4 atom-14" d="M 154.1,81.2 L 152.7,49.7" style="fill:none;fill-rule:evenodd;stroke:#000000;stroke-width:2.0px;stroke-linecap:butt;stroke-linejoin:miter;stroke-opacity:1"/>
<path class="bond-14 atom-14 atom-15" d="M 152.8,52.4 L 164.1,45.2" style="fill:none;fill-rule:evenodd;stroke:#000000;stroke-width:2.0px;stroke-linecap:butt;stroke-linejoin:miter;stroke-opacity:1"/>
<path class="bond-14 atom-14 atom-15" d="M 164.1,45.2 L 175.4,38.0" style="fill:none;fill-rule:evenodd;stroke:#FF0000;stroke-width:2.0px;stroke-linecap:butt;stroke-linejoin:miter;stroke-opacity:1"/>
<path class="bond-14 atom-14 atom-15" d="M 150.2,48.4 L 161.5,41.2" style="fill:none;fill-rule:evenodd;stroke:#000000;stroke-width:2.0px;stroke-linecap:butt;stroke-linejoin:miter;stroke-opacity:1"/>
<path class="bond-14 atom-14 atom-15" d="M 161.5,41.2 L 172.8,34.0" style="fill:none;fill-rule:evenodd;stroke:#FF0000;stroke-width:2.0px;stroke-linecap:butt;stroke-linejoin:miter;stroke-opacity:1"/>
<path class="bond-15 atom-14 atom-16" d="M 152.7,49.7 L 141.2,43.7" style="fill:none;fill-rule:evenodd;stroke:#000000;stroke-width:2.0px;stroke-linecap:butt;stroke-linejoin:miter;stroke-opacity:1"/>
<path class="bond-15 atom-14 atom-16" d="M 141.2,43.7 L 129.8,37.8" style="fill:none;fill-rule:evenodd;stroke:#FF0000;stroke-width:2.0px;stroke-linecap:butt;stroke-linejoin:miter;stroke-opacity:1"/>
<path class="bond-16 atom-1 atom-17" d="M 236.7,93.2 L 238.1,124.7" style="fill:none;fill-rule:evenodd;stroke:#000000;stroke-width:2.0px;stroke-linecap:butt;stroke-linejoin:miter;stroke-opacity:1"/>
<path class="bond-17 atom-17 atom-18" d="M 235.8,126.2 L 247.9,132.4" style="fill:none;fill-rule:evenodd;stroke:#000000;stroke-width:2.0px;stroke-linecap:butt;stroke-linejoin:miter;stroke-opacity:1"/>
<path class="bond-17 atom-17 atom-18" d="M 247.9,132.4 L 259.9,138.7" style="fill:none;fill-rule:evenodd;stroke:#FF0000;stroke-width:2.0px;stroke-linecap:butt;stroke-linejoin:miter;stroke-opacity:1"/>
<path class="bond-17 atom-17 atom-18" d="M 238.0,122.0 L 250.1,128.2" style="fill:none;fill-rule:evenodd;stroke:#000000;stroke-width:2.0px;stroke-linecap:butt;stroke-linejoin:miter;stroke-opacity:1"/>
<path class="bond-17 atom-17 atom-18" d="M 250.1,128.2 L 262.1,134.5" style="fill:none;fill-rule:evenodd;stroke:#FF0000;stroke-width:2.0px;stroke-linecap:butt;stroke-linejoin:miter;stroke-opacity:1"/>
<path class="bond-18 atom-17 atom-19" d="M 238.1,124.7 L 227.4,131.6" style="fill:none;fill-rule:evenodd;stroke:#000000;stroke-width:2.0px;stroke-linecap:butt;stroke-linejoin:miter;stroke-opacity:1"/>
<path class="bond-18 atom-17 atom-19" d="M 227.4,131.6 L 216.7,138.4" style="fill:none;fill-rule:evenodd;stroke:#FF0000;stroke-width:2.0px;stroke-linecap:butt;stroke-linejoin:miter;stroke-opacity:1"/>
<path d="M 210.1,79.4 L 208.7,78.7 L 207.4,79.5" style="fill:none;stroke:#000000;stroke-width:2.0px;stroke-linecap:butt;stroke-linejoin:miter;stroke-opacity:1;"/>
<path d="M 183.4,94.9 L 182.1,95.7 L 180.7,95.0" style="fill:none;stroke:#000000;stroke-width:2.0px;stroke-linecap:butt;stroke-linejoin:miter;stroke-opacity:1;"/>
<path d="M 128.9,97.3 L 127.5,98.2 L 126.1,97.5" style="fill:none;stroke:#000000;stroke-width:2.0px;stroke-linecap:butt;stroke-linejoin:miter;stroke-opacity:1;"/>
<path d="M 47.7,116.8 L 46.4,117.7 L 46.4,118.3" style="fill:none;stroke:#000000;stroke-width:2.0px;stroke-linecap:butt;stroke-linejoin:miter;stroke-opacity:1;"/>
<path d="M 152.7,51.2 L 152.7,49.7 L 152.1,49.4" style="fill:none;stroke:#000000;stroke-width:2.0px;stroke-linecap:butt;stroke-linejoin:miter;stroke-opacity:1;"/>
<path d="M 238.1,123.2 L 238.1,124.7 L 237.6,125.1" style="fill:none;stroke:#000000;stroke-width:2.0px;stroke-linecap:butt;stroke-linejoin:miter;stroke-opacity:1;"/>
<path class="atom-7" d="M 94.0 52.2 Q 94.0 50.0, 95.0 48.8 Q 96.1 47.6, 98.1 47.6 Q 100.1 47.6, 101.1 48.8 Q 102.2 50.0, 102.2 52.2 Q 102.2 54.4, 101.1 55.6 Q 100.0 56.8, 98.1 56.8 Q 96.1 56.8, 95.0 55.6 Q 94.0 54.4, 94.0 52.2 M 98.1 55.8 Q 99.4 55.8, 100.2 54.9 Q 100.9 54.0, 100.9 52.2 Q 100.9 50.4, 100.2 49.5 Q 99.4 48.6, 98.1 48.6 Q 96.7 48.6, 96.0 49.5 Q 95.2 50.4, 95.2 52.2 Q 95.2 54.0, 96.0 54.9 Q 96.7 55.8, 98.1 55.8 " fill="#FF0000"/>
<path class="atom-7" d="M 103.6 47.7 L 104.8 47.7 L 104.8 51.5 L 109.4 51.5 L 109.4 47.7 L 110.6 47.7 L 110.6 56.7 L 109.4 56.7 L 109.4 52.5 L 104.8 52.5 L 104.8 56.7 L 103.6 56.7 L 103.6 47.7 " fill="#FF0000"/>
<path class="atom-12" d="M 14.3 103.2 Q 14.3 101.0, 15.3 99.8 Q 16.4 98.6, 18.4 98.6 Q 20.3 98.6, 21.4 99.8 Q 22.5 101.0, 22.5 103.2 Q 22.5 105.4, 21.4 106.6 Q 20.3 107.8, 18.4 107.8 Q 16.4 107.8, 15.3 106.6 Q 14.3 105.4, 14.3 103.2 M 18.4 106.8 Q 19.7 106.8, 20.4 105.9 Q 21.2 105.0, 21.2 103.2 Q 21.2 101.4, 20.4 100.5 Q 19.7 99.7, 18.4 99.7 Q 17.0 99.7, 16.2 100.5 Q 15.5 101.4, 15.5 103.2 Q 15.5 105.0, 16.2 105.9 Q 17.0 106.8, 18.4 106.8 " fill="#FF0000"/>
<path class="atom-13" d="M 43.7 149.2 Q 43.7 147.1, 44.8 145.9 Q 45.8 144.7, 47.8 144.7 Q 49.8 144.7, 50.8 145.9 Q 51.9 147.1, 51.9 149.2 Q 51.9 151.4, 50.8 152.6 Q 49.8 153.8, 47.8 153.8 Q 45.8 153.8, 44.8 152.6 Q 43.7 151.4, 43.7 149.2 M 47.8 152.8 Q 49.2 152.8, 49.9 151.9 Q 50.6 151.0, 50.6 149.2 Q 50.6 147.5, 49.9 146.6 Q 49.2 145.7, 47.8 145.7 Q 46.4 145.7, 45.7 146.6 Q 45.0 147.5, 45.0 149.2 Q 45.0 151.0, 45.7 151.9 Q 46.4 152.8, 47.8 152.8 " fill="#FF0000"/>
<path class="atom-13" d="M 53.3 144.8 L 54.5 144.8 L 54.5 148.6 L 59.1 148.6 L 59.1 144.8 L 60.3 144.8 L 60.3 153.7 L 59.1 153.7 L 59.1 149.6 L 54.5 149.6 L 54.5 153.7 L 53.3 153.7 L 53.3 144.8 " fill="#FF0000"/>
<path class="atom-15" d="M 175.1 32.7 Q 175.1 30.5, 176.2 29.3 Q 177.3 28.2, 179.2 28.2 Q 181.2 28.2, 182.3 29.3 Q 183.3 30.5, 183.3 32.7 Q 183.3 34.9, 182.3 36.1 Q 181.2 37.3, 179.2 37.3 Q 177.3 37.3, 176.2 36.1 Q 175.1 34.9, 175.1 32.7 M 179.2 36.3 Q 180.6 36.3, 181.3 35.4 Q 182.1 34.5, 182.1 32.7 Q 182.1 30.9, 181.3 30.1 Q 180.6 29.2, 179.2 29.2 Q 177.9 29.2, 177.1 30.0 Q 176.4 30.9, 176.4 32.7 Q 176.4 34.5, 177.1 35.4 Q 177.9 36.3, 179.2 36.3 " fill="#FF0000"/>
<path class="atom-16" d="M 111.7 30.7 L 112.9 30.7 L 112.9 34.5 L 117.5 34.5 L 117.5 30.7 L 118.7 30.7 L 118.7 39.7 L 117.5 39.7 L 117.5 35.5 L 112.9 35.5 L 112.9 39.7 L 111.7 39.7 L 111.7 30.7 " fill="#FF0000"/>
<path class="atom-16" d="M 120.6 35.2 Q 120.6 33.0, 121.6 31.8 Q 122.7 30.6, 124.7 30.6 Q 126.6 30.6, 127.7 31.8 Q 128.8 33.0, 128.8 35.2 Q 128.8 37.4, 127.7 38.6 Q 126.6 39.8, 124.7 39.8 Q 122.7 39.8, 121.6 38.6 Q 120.6 37.4, 120.6 35.2 M 124.7 38.8 Q 126.0 38.8, 126.7 37.9 Q 127.5 37.0, 127.5 35.2 Q 127.5 33.4, 126.7 32.5 Q 126.0 31.6, 124.7 31.6 Q 123.3 31.6, 122.5 32.5 Q 121.8 33.4, 121.8 35.2 Q 121.8 37.0, 122.5 37.9 Q 123.3 38.8, 124.7 38.8 " fill="#FF0000"/>
<path class="atom-18" d="M 262.0 139.3 Q 262.0 137.1, 263.1 135.9 Q 264.2 134.7, 266.1 134.7 Q 268.1 134.7, 269.2 135.9 Q 270.2 137.1, 270.2 139.3 Q 270.2 141.4, 269.2 142.7 Q 268.1 143.9, 266.1 143.9 Q 264.2 143.9, 263.1 142.7 Q 262.0 141.5, 262.0 139.3 M 266.1 142.9 Q 267.5 142.9, 268.2 142.0 Q 269.0 141.1, 269.0 139.3 Q 269.0 137.5, 268.2 136.6 Q 267.5 135.7, 266.1 135.7 Q 264.8 135.7, 264.0 136.6 Q 263.3 137.5, 263.3 139.3 Q 263.3 141.1, 264.0 142.0 Q 264.8 142.9, 266.1 142.9 " fill="#FF0000"/>
<path class="atom-19" d="M 198.6 137.3 L 199.8 137.3 L 199.8 141.1 L 204.4 141.1 L 204.4 137.3 L 205.6 137.3 L 205.6 146.2 L 204.4 146.2 L 204.4 142.1 L 199.8 142.1 L 199.8 146.2 L 198.6 146.2 L 198.6 137.3 " fill="#FF0000"/>
<path class="atom-19" d="M 207.5 141.8 Q 207.5 139.6, 208.5 138.4 Q 209.6 137.2, 211.6 137.2 Q 213.5 137.2, 214.6 138.4 Q 215.7 139.6, 215.7 141.8 Q 215.7 143.9, 214.6 145.2 Q 213.5 146.4, 211.6 146.4 Q 209.6 146.4, 208.5 145.2 Q 207.5 143.9, 207.5 141.8 M 211.6 145.4 Q 212.9 145.4, 213.7 144.5 Q 214.4 143.5, 214.4 141.8 Q 214.4 140.0, 213.7 139.1 Q 212.9 138.2, 211.6 138.2 Q 210.2 138.2, 209.5 139.1 Q 208.7 140.0, 208.7 141.8 Q 208.7 143.6, 209.5 144.5 Q 210.2 145.4, 211.6 145.4 " fill="#FF0000"/>
<path class="legend" d="M 133.7 181.9 Q 133.7 179.6, 134.4 177.7 Q 135.1 175.8, 136.4 173.8 L 137.3 174.4 Q 136.2 176.3, 135.7 178.0 Q 135.2 179.7, 135.2 181.9 Q 135.2 184.0, 135.7 185.8 Q 136.2 187.5, 137.3 189.4 L 136.4 190.0 Q 135.1 188.0, 134.4 186.1 Q 133.7 184.2, 133.7 181.9 " fill="#000000"/>
<path class="legend" d="M 138.2 177.3 Q 138.6 176.2, 139.6 175.6 Q 140.6 175.0, 142.0 175.0 Q 143.7 175.0, 144.6 175.9 Q 145.6 176.8, 145.6 178.5 Q 145.6 180.2, 144.3 181.7 Q 143.1 183.3, 140.6 185.2 L 145.8 185.2 L 145.8 186.4 L 138.2 186.4 L 138.2 185.4 Q 140.3 183.9, 141.5 182.8 Q 142.8 181.6, 143.4 180.6 Q 144.0 179.6, 144.0 178.6 Q 144.0 177.5, 143.4 176.9 Q 142.9 176.3, 142.0 176.3 Q 141.0 176.3, 140.4 176.6 Q 139.8 177.0, 139.4 177.8 L 138.2 177.3 " fill="#000000"/>
<path class="legend" d="M 150.8 181.9 Q 150.8 184.2, 150.1 186.1 Q 149.4 188.0, 148.1 190.0 L 147.2 189.4 Q 148.3 187.5, 148.8 185.8 Q 149.3 184.0, 149.3 181.9 Q 149.3 179.7, 148.8 178.0 Q 148.3 176.3, 147.2 174.4 L 148.1 173.8 Q 149.4 175.8, 150.1 177.7 Q 150.8 179.6, 150.8 181.9 " fill="#000000"/>
</g>
    <g transform="translate(285.0, 0) scale(1 1) "><line x1="5" y1="100" x2="35" y2="100" style="stroke:rgb(0,0,0);stroke-width:2"/>
  <line x1="34" y1="100" x2="29" y2="95" style="stroke:rgb(0,0,0);stroke-width:2"/>
  <line x1="34" y1="100" x2="29" y2="105" style="stroke:rgb(0,0,0);stroke-width:2"/>
</g>
    <g transform="translate(325.0, 0) scale(1 1) "><!-- END OF HEADER -->
<rect style="opacity:1.0;fill:#FFFFFF;stroke:none" width="215.0" height="200.0" x="0.0" y="0.0"> </rect>
<path class="bond-0 atom-0 atom-1" d="M 183.7,56.0 L 158.3,99.9" style="fill:none;fill-rule:evenodd;stroke:#000000;stroke-width:2.0px;stroke-linecap:butt;stroke-linejoin:miter;stroke-opacity:1"/>
<path class="bond-1 atom-1 atom-2" d="M 158.3,99.9 L 168.4,117.4" style="fill:none;fill-rule:evenodd;stroke:#000000;stroke-width:2.0px;stroke-linecap:butt;stroke-linejoin:miter;stroke-opacity:1"/>
<path class="bond-1 atom-1 atom-2" d="M 168.4,117.4 L 178.5,134.9" style="fill:none;fill-rule:evenodd;stroke:#FF0000;stroke-width:2.0px;stroke-linecap:butt;stroke-linejoin:miter;stroke-opacity:1"/>
<path class="bond-2 atom-1 atom-3" d="M 158.3,99.9 L 107.6,99.9" style="fill:none;fill-rule:evenodd;stroke:#000000;stroke-width:2.0px;stroke-linecap:butt;stroke-linejoin:miter;stroke-opacity:1"/>
<path class="bond-3 atom-3 atom-4" d="M 107.6,99.9 L 107.6,49.2" style="fill:none;fill-rule:evenodd;stroke:#000000;stroke-width:2.0px;stroke-linecap:butt;stroke-linejoin:miter;stroke-opacity:1"/>
<path class="bond-4 atom-3 atom-5" d="M 107.6,99.9 L 107.6,150.6" style="fill:none;fill-rule:evenodd;stroke:#000000;stroke-width:2.0px;stroke-linecap:butt;stroke-linejoin:miter;stroke-opacity:1"/>
<path class="bond-5 atom-3 atom-6" d="M 107.6,99.9 L 56.9,99.9" style="fill:none;fill-rule:evenodd;stroke:#000000;stroke-width:2.0px;stroke-linecap:butt;stroke-linejoin:miter;stroke-opacity:1"/>
<path class="bond-6 atom-6 atom-7" d="M 54.7,96.1 L 44.0,114.5" style="fill:none;fill-rule:evenodd;stroke:#000000;stroke-width:2.0px;stroke-linecap:butt;stroke-linejoin:miter;stroke-opacity:1"/>
<path class="bond-6 atom-6 atom-7" d="M 44.0,114.5 L 33.4,133.0" style="fill:none;fill-rule:evenodd;stroke:#FF0000;stroke-width:2.0px;stroke-linecap:butt;stroke-linejoin:miter;stroke-opacity:1"/>
<path class="bond-6 atom-6 atom-7" d="M 61.3,99.9 L 50.6,118.3" style="fill:none;fill-rule:evenodd;stroke:#000000;stroke-width:2.0px;stroke-linecap:butt;stroke-linejoin:miter;stroke-opacity:1"/>
<path class="bond-6 atom-6 atom-7" d="M 50.6,118.3 L 40.0,136.8" style="fill:none;fill-rule:evenodd;stroke:#FF0000;stroke-width:2.0px;stroke-linecap:butt;stroke-linejoin:miter;stroke-opacity:1"/>
<path class="bond-7 atom-6 atom-8" d="M 56.9,99.9 L 46.9,82.5" style="fill:none;fill-rule:evenodd;stroke:#000000;stroke-width:2.0px;stroke-linecap:butt;stroke-linejoin:miter;stroke-opacity:1"/>
<path class="bond-7 atom-6 atom-8" d="M 46.9,82.5 L 36.8,65.1" style="fill:none;fill-rule:evenodd;stroke:#FF0000;stroke-width:2.0px;stroke-linecap:butt;stroke-linejoin:miter;stroke-opacity:1"/>
<path d="M 59.4,99.9 L 56.9,99.9 L 56.4,99.0" style="fill:none;stroke:#000000;stroke-width:2.0px;stroke-linecap:butt;stroke-linejoin:miter;stroke-opacity:1;"/>
<path class="atom-2" d="M 177.1 143.9 Q 177.1 140.4, 178.8 138.5 Q 180.5 136.5, 183.7 136.5 Q 186.9 136.5, 188.6 138.5 Q 190.3 140.4, 190.3 143.9 Q 190.3 147.3, 188.6 149.3 Q 186.8 151.3, 183.7 151.3 Q 180.5 151.3, 178.8 149.3 Q 177.1 147.4, 177.1 143.9 M 183.7 149.7 Q 185.9 149.7, 187.0 148.2 Q 188.2 146.7, 188.2 143.9 Q 188.2 141.0, 187.0 139.6 Q 185.9 138.2, 183.7 138.2 Q 181.5 138.2, 180.3 139.6 Q 179.1 141.0, 179.1 143.9 Q 179.1 146.8, 180.3 148.2 Q 181.5 149.7, 183.7 149.7 " fill="#FF0000"/>
<path class="atom-2" d="M 192.5 136.7 L 194.5 136.7 L 194.5 142.8 L 201.8 142.8 L 201.8 136.7 L 203.7 136.7 L 203.7 151.1 L 201.8 151.1 L 201.8 144.4 L 194.5 144.4 L 194.5 151.1 L 192.5 151.1 L 192.5 136.7 " fill="#FF0000"/>
<path class="atom-7" d="M 24.9 143.9 Q 24.9 140.4, 26.6 138.5 Q 28.3 136.5, 31.5 136.5 Q 34.7 136.5, 36.4 138.5 Q 38.1 140.4, 38.1 143.9 Q 38.1 147.3, 36.4 149.3 Q 34.7 151.3, 31.5 151.3 Q 28.4 151.3, 26.6 149.3 Q 24.9 147.4, 24.9 143.9 M 31.5 149.7 Q 33.7 149.7, 34.9 148.2 Q 36.1 146.7, 36.1 143.9 Q 36.1 141.0, 34.9 139.6 Q 33.7 138.2, 31.5 138.2 Q 29.3 138.2, 28.1 139.6 Q 27.0 141.0, 27.0 143.9 Q 27.0 146.8, 28.1 148.2 Q 29.3 149.7, 31.5 149.7 " fill="#FF0000"/>
<path class="atom-8" d="M 10.7 48.9 L 12.7 48.9 L 12.7 55.0 L 20.0 55.0 L 20.0 48.9 L 22.0 48.9 L 22.0 63.2 L 20.0 63.2 L 20.0 56.6 L 12.7 56.6 L 12.7 63.2 L 10.7 63.2 L 10.7 48.9 " fill="#FF0000"/>
<path class="atom-8" d="M 24.9 56.0 Q 24.9 52.6, 26.6 50.6 Q 28.3 48.7, 31.5 48.7 Q 34.7 48.7, 36.4 50.6 Q 38.1 52.6, 38.1 56.0 Q 38.1 59.5, 36.4 61.5 Q 34.7 63.5, 31.5 63.5 Q 28.4 63.5, 26.6 61.5 Q 24.9 59.5, 24.9 56.0 M 31.5 61.8 Q 33.7 61.8, 34.9 60.4 Q 36.1 58.9, 36.1 56.0 Q 36.1 53.2, 34.9 51.8 Q 33.7 50.3, 31.5 50.3 Q 29.3 50.3, 28.1 51.7 Q 27.0 53.2, 27.0 56.0 Q 27.0 58.9, 28.1 60.4 Q 29.3 61.8, 31.5 61.8 " fill="#FF0000"/>
</g>
    <g transform="translate(540.0, 0) scale(1 1) "><line x1="15" y1="100" x2="25" y2="100" style="stroke:rgb(0,0,0);stroke-width:2"/>
  <line x1="20" y1="95" x2="20" y2="105" style="stroke:rgb(0,0,0);stroke-width:2"/>
</g>
    <g transform="translate(580.0, 0) scale(1 1) "><!-- END OF HEADER -->
<rect style="opacity:1.0;fill:#FFFFFF;stroke:none" width="323.0" height="200.0" x="0.0" y="0.0"> </rect>
<path class="bond-0 atom-0 atom-1" d="M 16.8,101.2 L 41.1,88.8" style="fill:none;fill-rule:evenodd;stroke:#000000;stroke-width:2.0px;stroke-linecap:butt;stroke-linejoin:miter;stroke-opacity:1"/>
<path class="bond-1 atom-1 atom-2" d="M 41.1,88.8 L 63.9,103.7" style="fill:none;fill-rule:evenodd;stroke:#000000;stroke-width:2.0px;stroke-linecap:butt;stroke-linejoin:miter;stroke-opacity:1"/>
<path class="bond-2 atom-2 atom-3" d="M 63.9,103.7 L 88.2,91.3" style="fill:none;fill-rule:evenodd;stroke:#000000;stroke-width:2.0px;stroke-linecap:butt;stroke-linejoin:miter;stroke-opacity:1"/>
<path class="bond-3 atom-3 atom-4" d="M 88.2,91.3 L 111.1,106.2" style="fill:none;fill-rule:evenodd;stroke:#000000;stroke-width:2.0px;stroke-linecap:butt;stroke-linejoin:miter;stroke-opacity:1"/>
<path class="bond-4 atom-4 atom-5" d="M 111.1,106.2 L 135.3,93.8" style="fill:none;fill-rule:evenodd;stroke:#000000;stroke-width:2.0px;stroke-linecap:butt;stroke-linejoin:miter;stroke-opacity:1"/>
<path class="bond-5 atom-5 atom-6" d="M 135.3,93.8 L 158.2,108.7" style="fill:none;fill-rule:evenodd;stroke:#000000;stroke-width:2.0px;stroke-linecap:butt;stroke-linejoin:miter;stroke-opacity:1"/>
<path class="bond-6 atom-6 atom-7" d="M 158.2,108.7 L 157.6,119.9" style="fill:none;fill-rule:evenodd;stroke:#000000;stroke-width:2.0px;stroke-linecap:butt;stroke-linejoin:miter;stroke-opacity:1"/>
<path class="bond-6 atom-6 atom-7" d="M 157.6,119.9 L 157.0,131.1" style="fill:none;fill-rule:evenodd;stroke:#FF0000;stroke-width:2.0px;stroke-linecap:butt;stroke-linejoin:miter;stroke-opacity:1"/>
<path class="bond-7 atom-6 atom-8" d="M 158.2,108.7 L 182.5,96.3" style="fill:none;fill-rule:evenodd;stroke:#000000;stroke-width:2.0px;stroke-linecap:butt;stroke-linejoin:miter;stroke-opacity:1"/>
<path class="bond-8 atom-8 atom-9" d="M 182.5,96.3 L 170.1,72.0" style="fill:none;fill-rule:evenodd;stroke:#000000;stroke-width:2.0px;stroke-linecap:butt;stroke-linejoin:miter;stroke-opacity:1"/>
<path class="bond-9 atom-8 atom-10" d="M 182.5,96.3 L 194.8,120.6" style="fill:none;fill-rule:evenodd;stroke:#000000;stroke-width:2.0px;stroke-linecap:butt;stroke-linejoin:miter;stroke-opacity:1"/>
<path class="bond-10 atom-10 atom-11" d="M 194.8,120.6 L 222.0,122.1" style="fill:none;fill-rule:evenodd;stroke:#000000;stroke-width:2.0px;stroke-linecap:butt;stroke-linejoin:miter;stroke-opacity:1"/>
<path class="bond-11 atom-11 atom-12" d="M 222.0,122.1 L 236.9,99.2" style="fill:none;fill-rule:evenodd;stroke:#000000;stroke-width:2.0px;stroke-linecap:butt;stroke-linejoin:miter;stroke-opacity:1"/>
<path class="bond-12 atom-12 atom-13" d="M 236.9,99.2 L 264.1,100.7" style="fill:none;fill-rule:evenodd;stroke:#000000;stroke-width:2.0px;stroke-linecap:butt;stroke-linejoin:miter;stroke-opacity:1"/>
<path class="bond-13 atom-13 atom-14" d="M 264.1,100.7 L 278.9,77.8" style="fill:none;fill-rule:evenodd;stroke:#000000;stroke-width:2.0px;stroke-linecap:butt;stroke-linejoin:miter;stroke-opacity:1"/>
<path class="bond-14 atom-14 atom-15" d="M 278.9,77.8 L 306.1,79.3" style="fill:none;fill-rule:evenodd;stroke:#000000;stroke-width:2.0px;stroke-linecap:butt;stroke-linejoin:miter;stroke-opacity:1"/>
<path class="bond-15 atom-14 atom-16" d="M 278.9,77.8 L 266.6,53.5" style="fill:none;fill-rule:evenodd;stroke:#000000;stroke-width:2.0px;stroke-linecap:butt;stroke-linejoin:miter;stroke-opacity:1"/>
<path class="bond-16 atom-16 atom-17" d="M 267.9,51.6 L 255.9,50.9" style="fill:none;fill-rule:evenodd;stroke:#000000;stroke-width:2.0px;stroke-linecap:butt;stroke-linejoin:miter;stroke-opacity:1"/>
<path class="bond-16 atom-16 atom-17" d="M 255.9,50.9 L 243.9,50.3" style="fill:none;fill-rule:evenodd;stroke:#FF0000;stroke-width:2.0px;stroke-linecap:butt;stroke-linejoin:miter;stroke-opacity:1"/>
<path class="bond-16 atom-16 atom-17" d="M 267.6,55.6 L 255.7,55.0" style="fill:none;fill-rule:evenodd;stroke:#000000;stroke-width:2.0px;stroke-linecap:butt;stroke-linejoin:miter;stroke-opacity:1"/>
<path class="bond-16 atom-16 atom-17" d="M 255.7,55.0 L 243.7,54.3" style="fill:none;fill-rule:evenodd;stroke:#FF0000;stroke-width:2.0px;stroke-linecap:butt;stroke-linejoin:miter;stroke-opacity:1"/>
<path class="bond-17 atom-16 atom-18" d="M 266.6,53.5 L 272.4,44.6" style="fill:none;fill-rule:evenodd;stroke:#000000;stroke-width:2.0px;stroke-linecap:butt;stroke-linejoin:miter;stroke-opacity:1"/>
<path class="bond-17 atom-16 atom-18" d="M 272.4,44.6 L 278.3,35.6" style="fill:none;fill-rule:evenodd;stroke:#FF0000;stroke-width:2.0px;stroke-linecap:butt;stroke-linejoin:miter;stroke-opacity:1"/>
<path class="bond-18 atom-11 atom-19" d="M 222.0,122.1 L 234.4,146.3" style="fill:none;fill-rule:evenodd;stroke:#000000;stroke-width:2.0px;stroke-linecap:butt;stroke-linejoin:miter;stroke-opacity:1"/>
<path class="bond-19 atom-19 atom-20" d="M 233.3,144.3 L 227.1,153.8" style="fill:none;fill-rule:evenodd;stroke:#000000;stroke-width:2.0px;stroke-linecap:butt;stroke-linejoin:miter;stroke-opacity:1"/>
<path class="bond-19 atom-19 atom-20" d="M 227.1,153.8 L 220.9,163.3" style="fill:none;fill-rule:evenodd;stroke:#FF0000;stroke-width:2.0px;stroke-linecap:butt;stroke-linejoin:miter;stroke-opacity:1"/>
<path class="bond-19 atom-19 atom-20" d="M 236.7,146.5 L 230.5,156.0" style="fill:none;fill-rule:evenodd;stroke:#000000;stroke-width:2.0px;stroke-linecap:butt;stroke-linejoin:miter;stroke-opacity:1"/>
<path class="bond-19 atom-19 atom-20" d="M 230.5,156.0 L 224.3,165.5" style="fill:none;fill-rule:evenodd;stroke:#FF0000;stroke-width:2.0px;stroke-linecap:butt;stroke-linejoin:miter;stroke-opacity:1"/>
<path class="bond-20 atom-19 atom-21" d="M 234.4,146.3 L 245.8,146.9" style="fill:none;fill-rule:evenodd;stroke:#000000;stroke-width:2.0px;stroke-linecap:butt;stroke-linejoin:miter;stroke-opacity:1"/>
<path class="bond-20 atom-19 atom-21" d="M 245.8,146.9 L 257.2,147.6" style="fill:none;fill-rule:evenodd;stroke:#FF0000;stroke-width:2.0px;stroke-linecap:butt;stroke-linejoin:miter;stroke-opacity:1"/>
<path class="bond-21 atom-8 atom-22" d="M 182.5,96.3 L 206.7,84.0" style="fill:none;fill-rule:evenodd;stroke:#000000;stroke-width:2.0px;stroke-linecap:butt;stroke-linejoin:miter;stroke-opacity:1"/>
<path class="bond-22 atom-22 atom-23" d="M 204.2,85.2 L 211.4,87.7" style="fill:none;fill-rule:evenodd;stroke:#000000;stroke-width:2.0px;stroke-linecap:butt;stroke-linejoin:miter;stroke-opacity:1"/>
<path class="bond-22 atom-22 atom-23" d="M 211.4,87.7 L 218.6,90.2" style="fill:none;fill-rule:evenodd;stroke:#FF0000;stroke-width:2.0px;stroke-linecap:butt;stroke-linejoin:miter;stroke-opacity:1"/>
<path class="bond-22 atom-22 atom-23" d="M 206.9,81.9 L 212.7,83.9" style="fill:none;fill-rule:evenodd;stroke:#000000;stroke-width:2.0px;stroke-linecap:butt;stroke-linejoin:miter;stroke-opacity:1"/>
<path class="bond-22 atom-22 atom-23" d="M 212.7,83.9 L 219.9,86.4" style="fill:none;fill-rule:evenodd;stroke:#FF0000;stroke-width:2.0px;stroke-linecap:butt;stroke-linejoin:miter;stroke-opacity:1"/>
<path class="bond-23 atom-22 atom-24" d="M 206.7,84.0 L 207.3,72.8" style="fill:none;fill-rule:evenodd;stroke:#000000;stroke-width:2.0px;stroke-linecap:butt;stroke-linejoin:miter;stroke-opacity:1"/>
<path class="bond-23 atom-22 atom-24" d="M 207.3,72.8 L 207.9,61.7" style="fill:none;fill-rule:evenodd;stroke:#FF0000;stroke-width:2.0px;stroke-linecap:butt;stroke-linejoin:miter;stroke-opacity:1"/>
<path class="bond-24 atom-4 atom-25" d="M 111.1,106.2 L 109.6,133.4" style="fill:none;fill-rule:evenodd;stroke:#000000;stroke-width:2.0px;stroke-linecap:butt;stroke-linejoin:miter;stroke-opacity:1"/>
<path class="bond-25 atom-25 atom-26" d="M 109.7,131.1 L 99.3,136.4" style="fill:none;fill-rule:evenodd;stroke:#000000;stroke-width:2.0px;stroke-linecap:butt;stroke-linejoin:miter;stroke-opacity:1"/>
<path class="bond-25 atom-25 atom-26" d="M 99.3,136.4 L 88.8,141.7" style="fill:none;fill-rule:evenodd;stroke:#FF0000;stroke-width:2.0px;stroke-linecap:butt;stroke-linejoin:miter;stroke-opacity:1"/>
<path class="bond-25 atom-25 atom-26" d="M 111.6,134.7 L 101.1,140.0" style="fill:none;fill-rule:evenodd;stroke:#000000;stroke-width:2.0px;stroke-linecap:butt;stroke-linejoin:miter;stroke-opacity:1"/>
<path class="bond-25 atom-25 atom-26" d="M 101.1,140.0 L 90.7,145.3" style="fill:none;fill-rule:evenodd;stroke:#FF0000;stroke-width:2.0px;stroke-linecap:butt;stroke-linejoin:miter;stroke-opacity:1"/>
<path class="bond-26 atom-25 atom-27" d="M 109.6,133.4 L 118.8,139.4" style="fill:none;fill-rule:evenodd;stroke:#000000;stroke-width:2.0px;stroke-linecap:butt;stroke-linejoin:miter;stroke-opacity:1"/>
<path class="bond-26 atom-25 atom-27" d="M 118.8,139.4 L 128.0,145.4" style="fill:none;fill-rule:evenodd;stroke:#FF0000;stroke-width:2.0px;stroke-linecap:butt;stroke-linejoin:miter;stroke-opacity:1"/>
<path class="bond-27 atom-1 atom-28" d="M 41.1,88.8 L 42.5,61.6" style="fill:none;fill-rule:evenodd;stroke:#000000;stroke-width:2.0px;stroke-linecap:butt;stroke-linejoin:miter;stroke-opacity:1"/>
<path class="bond-28 atom-28 atom-29" d="M 44.6,60.6 L 34.9,54.3" style="fill:none;fill-rule:evenodd;stroke:#000000;stroke-width:2.0px;stroke-linecap:butt;stroke-linejoin:miter;stroke-opacity:1"/>
<path class="bond-28 atom-28 atom-29" d="M 34.9,54.3 L 25.2,47.9" style="fill:none;fill-rule:evenodd;stroke:#FF0000;stroke-width:2.0px;stroke-linecap:butt;stroke-linejoin:miter;stroke-opacity:1"/>
<path class="bond-28 atom-28 atom-29" d="M 42.4,63.9 L 32.7,57.6" style="fill:none;fill-rule:evenodd;stroke:#000000;stroke-width:2.0px;stroke-linecap:butt;stroke-linejoin:miter;stroke-opacity:1"/>
<path class="bond-28 atom-28 atom-29" d="M 32.7,57.6 L 23.0,51.3" style="fill:none;fill-rule:evenodd;stroke:#FF0000;stroke-width:2.0px;stroke-linecap:butt;stroke-linejoin:miter;stroke-opacity:1"/>
<path class="bond-29 atom-28 atom-30" d="M 42.5,61.6 L 52.5,56.6" style="fill:none;fill-rule:evenodd;stroke:#000000;stroke-width:2.0px;stroke-linecap:butt;stroke-linejoin:miter;stroke-opacity:1"/>
<path class="bond-29 atom-28 atom-30" d="M 52.5,56.6 L 62.4,51.5" style="fill:none;fill-rule:evenodd;stroke:#FF0000;stroke-width:2.0px;stroke-linecap:butt;stroke-linejoin:miter;stroke-opacity:1"/>
<path d="M 62.8,102.9 L 63.9,103.7 L 65.1,103.1" style="fill:none;stroke:#000000;stroke-width:2.0px;stroke-linecap:butt;stroke-linejoin:miter;stroke-opacity:1;"/>
<path d="M 87.0,91.9 L 88.2,91.3 L 89.4,92.1" style="fill:none;stroke:#000000;stroke-width:2.0px;stroke-linecap:butt;stroke-linejoin:miter;stroke-opacity:1;"/>
<path d="M 134.1,94.4 L 135.3,93.8 L 136.5,94.6" style="fill:none;stroke:#000000;stroke-width:2.0px;stroke-linecap:butt;stroke-linejoin:miter;stroke-opacity:1;"/>
<path d="M 194.2,119.4 L 194.8,120.6 L 196.2,120.7" style="fill:none;stroke:#000000;stroke-width:2.0px;stroke-linecap:butt;stroke-linejoin:miter;stroke-opacity:1;"/>
<path d="M 236.1,100.4 L 236.9,99.2 L 238.2,99.3" style="fill:none;stroke:#000000;stroke-width:2.0px;stroke-linecap:butt;stroke-linejoin:miter;stroke-opacity:1;"/>
<path d="M 262.7,100.6 L 264.1,100.7 L 264.8,99.5" style="fill:none;stroke:#000000;stroke-width:2.0px;stroke-linecap:butt;stroke-linejoin:miter;stroke-opacity:1;"/>
<path d="M 267.2,54.8 L 266.6,53.5 L 266.9,53.1" style="fill:none;stroke:#000000;stroke-width:2.0px;stroke-linecap:butt;stroke-linejoin:miter;stroke-opacity:1;"/>
<path d="M 233.8,145.1 L 234.4,146.3 L 234.9,146.4" style="fill:none;stroke:#000000;stroke-width:2.0px;stroke-linecap:butt;stroke-linejoin:miter;stroke-opacity:1;"/>
<path d="M 205.5,84.6 L 206.7,84.0 L 206.8,83.4" style="fill:none;stroke:#000000;stroke-width:2.0px;stroke-linecap:butt;stroke-linejoin:miter;stroke-opacity:1;"/>
<path d="M 109.7,132.0 L 109.6,133.4 L 110.1,133.7" style="fill:none;stroke:#000000;stroke-width:2.0px;stroke-linecap:butt;stroke-linejoin:miter;stroke-opacity:1;"/>
<path d="M 42.5,63.0 L 42.5,61.6 L 43.0,61.4" style="fill:none;stroke:#000000;stroke-width:2.0px;stroke-linecap:butt;stroke-linejoin:miter;stroke-opacity:1;"/>
<path class="atom-7" d="M 153.2 135.9 Q 153.2 134.1, 154.1 133.0 Q 155.0 132.0, 156.7 132.0 Q 158.4 132.0, 159.4 133.0 Q 160.3 134.1, 160.3 135.9 Q 160.3 137.8, 159.3 138.9 Q 158.4 139.9, 156.7 139.9 Q 155.0 139.9, 154.1 138.9 Q 153.2 137.8, 153.2 135.9 M 156.7 139.0 Q 157.9 139.0, 158.5 138.3 Q 159.2 137.5, 159.2 135.9 Q 159.2 134.4, 158.5 133.6 Q 157.9 132.9, 156.7 132.9 Q 155.6 132.9, 154.9 133.6 Q 154.3 134.4, 154.3 135.9 Q 154.3 137.5, 154.9 138.3 Q 155.6 139.0, 156.7 139.0 " fill="#FF0000"/>
<path class="atom-7" d="M 161.5 132.1 L 162.5 132.1 L 162.5 135.4 L 166.5 135.4 L 166.5 132.1 L 167.5 132.1 L 167.5 139.8 L 166.5 139.8 L 166.5 136.2 L 162.5 136.2 L 162.5 139.8 L 161.5 139.8 L 161.5 132.1 " fill="#FF0000"/>
<path class="atom-17" d="M 235.8 52.1 Q 235.8 50.3, 236.8 49.2 Q 237.7 48.2, 239.4 48.2 Q 241.1 48.2, 242.0 49.2 Q 242.9 50.3, 242.9 52.1 Q 242.9 54.0, 242.0 55.1 Q 241.1 56.1, 239.4 56.1 Q 237.7 56.1, 236.8 55.1 Q 235.8 54.0, 235.8 52.1 M 239.4 55.2 Q 240.6 55.2, 241.2 54.5 Q 241.8 53.7, 241.8 52.1 Q 241.8 50.6, 241.2 49.8 Q 240.6 49.1, 239.4 49.1 Q 238.2 49.1, 237.6 49.8 Q 236.9 50.6, 236.9 52.1 Q 236.9 53.7, 237.6 54.5 Q 238.2 55.2, 239.4 55.2 " fill="#FF0000"/>
<path class="atom-18" d="M 277.9 30.7 Q 277.9 28.9, 278.8 27.8 Q 279.7 26.8, 281.4 26.8 Q 283.2 26.8, 284.1 27.8 Q 285.0 28.9, 285.0 30.7 Q 285.0 32.6, 284.1 33.7 Q 283.1 34.7, 281.4 34.7 Q 279.7 34.7, 278.8 33.7 Q 277.9 32.6, 277.9 30.7 M 281.4 33.8 Q 282.6 33.8, 283.3 33.1 Q 283.9 32.3, 283.9 30.7 Q 283.9 29.2, 283.3 28.4 Q 282.6 27.7, 281.4 27.7 Q 280.3 27.7, 279.6 28.4 Q 279.0 29.2, 279.0 30.7 Q 279.0 32.3, 279.6 33.1 Q 280.3 33.8, 281.4 33.8 " fill="#FF0000"/>
<path class="atom-18" d="M 286.2 26.9 L 287.2 26.9 L 287.2 30.2 L 291.2 30.2 L 291.2 26.9 L 292.2 26.9 L 292.2 34.6 L 291.2 34.6 L 291.2 31.0 L 287.2 31.0 L 287.2 34.6 L 286.2 34.6 L 286.2 26.9 " fill="#FF0000"/>
<path class="atom-20" d="M 216.0 169.2 Q 216.0 167.4, 216.9 166.3 Q 217.8 165.3, 219.5 165.3 Q 221.2 165.3, 222.1 166.3 Q 223.1 167.4, 223.1 169.2 Q 223.1 171.1, 222.1 172.1 Q 221.2 173.2, 219.5 173.2 Q 217.8 173.2, 216.9 172.1 Q 216.0 171.1, 216.0 169.2 M 219.5 172.3 Q 220.7 172.3, 221.3 171.5 Q 222.0 170.8, 222.0 169.2 Q 222.0 167.7, 221.3 166.9 Q 220.7 166.2, 219.5 166.2 Q 218.3 166.2, 217.7 166.9 Q 217.1 167.7, 217.1 169.2 Q 217.1 170.8, 217.7 171.5 Q 218.3 172.3, 219.5 172.3 " fill="#FF0000"/>
<path class="atom-21" d="M 258.0 147.8 Q 258.0 146.0, 259.0 144.9 Q 259.9 143.9, 261.6 143.9 Q 263.3 143.9, 264.2 144.9 Q 265.1 146.0, 265.1 147.8 Q 265.1 149.7, 264.2 150.8 Q 263.3 151.8, 261.6 151.8 Q 259.9 151.8, 259.0 150.8 Q 258.0 149.7, 258.0 147.8 M 261.6 150.9 Q 262.8 150.9, 263.4 150.2 Q 264.0 149.4, 264.0 147.8 Q 264.0 146.3, 263.4 145.5 Q 262.8 144.8, 261.6 144.8 Q 260.4 144.8, 259.8 145.5 Q 259.1 146.3, 259.1 147.8 Q 259.1 149.4, 259.8 150.2 Q 260.4 150.9, 261.6 150.9 " fill="#FF0000"/>
<path class="atom-21" d="M 266.3 144.0 L 267.4 144.0 L 267.4 147.3 L 271.3 147.3 L 271.3 144.0 L 272.4 144.0 L 272.4 151.7 L 271.3 151.7 L 271.3 148.1 L 267.4 148.1 L 267.4 151.7 L 266.3 151.7 L 266.3 144.0 " fill="#FF0000"/>
<path class="atom-23" d="M 220.1 89.8 Q 220.1 88.0, 221.0 86.9 Q 221.9 85.9, 223.6 85.9 Q 225.4 85.9, 226.3 86.9 Q 227.2 88.0, 227.2 89.8 Q 227.2 91.7, 226.3 92.8 Q 225.3 93.8, 223.6 93.8 Q 221.9 93.8, 221.0 92.8 Q 220.1 91.7, 220.1 89.8 M 223.6 93.0 Q 224.8 93.0, 225.5 92.2 Q 226.1 91.4, 226.1 89.8 Q 226.1 88.3, 225.5 87.6 Q 224.8 86.8, 223.6 86.8 Q 222.5 86.8, 221.8 87.5 Q 221.2 88.3, 221.2 89.8 Q 221.2 91.4, 221.8 92.2 Q 222.5 93.0, 223.6 93.0 " fill="#FF0000"/>
<path class="atom-24" d="M 204.7 56.8 Q 204.7 54.9, 205.6 53.9 Q 206.5 52.9, 208.2 52.9 Q 209.9 52.9, 210.8 53.9 Q 211.7 54.9, 211.7 56.8 Q 211.7 58.7, 210.8 59.7 Q 209.9 60.8, 208.2 60.8 Q 206.5 60.8, 205.6 59.7 Q 204.7 58.7, 204.7 56.8 M 208.2 59.9 Q 209.4 59.9, 210.0 59.1 Q 210.6 58.3, 210.6 56.8 Q 210.6 55.3, 210.0 54.5 Q 209.4 53.7, 208.2 53.7 Q 207.0 53.7, 206.4 54.5 Q 205.7 55.3, 205.7 56.8 Q 205.7 58.3, 206.4 59.1 Q 207.0 59.9, 208.2 59.9 " fill="#FF0000"/>
<path class="atom-24" d="M 212.9 53.0 L 214.0 53.0 L 214.0 56.2 L 217.9 56.2 L 217.9 53.0 L 219.0 53.0 L 219.0 60.7 L 217.9 60.7 L 217.9 57.1 L 214.0 57.1 L 214.0 60.7 L 212.9 60.7 L 212.9 53.0 " fill="#FF0000"/>
<path class="atom-26" d="M 81.8 145.8 Q 81.8 143.9, 82.7 142.9 Q 83.6 141.8, 85.3 141.8 Q 87.0 141.8, 88.0 142.9 Q 88.9 143.9, 88.9 145.8 Q 88.9 147.6, 87.9 148.7 Q 87.0 149.8, 85.3 149.8 Q 83.6 149.8, 82.7 148.7 Q 81.8 147.6, 81.8 145.8 M 85.3 148.9 Q 86.5 148.9, 87.1 148.1 Q 87.8 147.3, 87.8 145.8 Q 87.8 144.2, 87.1 143.5 Q 86.5 142.7, 85.3 142.7 Q 84.1 142.7, 83.5 143.5 Q 82.9 144.2, 82.9 145.8 Q 82.9 147.3, 83.5 148.1 Q 84.1 148.9, 85.3 148.9 " fill="#FF0000"/>
<path class="atom-27" d="M 128.9 148.3 Q 128.9 146.4, 129.8 145.4 Q 130.7 144.3, 132.4 144.3 Q 134.2 144.3, 135.1 145.4 Q 136.0 146.4, 136.0 148.3 Q 136.0 150.1, 135.1 151.2 Q 134.1 152.3, 132.4 152.3 Q 130.7 152.3, 129.8 151.2 Q 128.9 150.1, 128.9 148.3 M 132.4 151.4 Q 133.6 151.4, 134.3 150.6 Q 134.9 149.8, 134.9 148.3 Q 134.9 146.7, 134.3 146.0 Q 133.6 145.2, 132.4 145.2 Q 131.3 145.2, 130.6 146.0 Q 130.0 146.7, 130.0 148.3 Q 130.0 149.8, 130.6 150.6 Q 131.3 151.4, 132.4 151.4 " fill="#FF0000"/>
<path class="atom-27" d="M 137.2 144.4 L 138.2 144.4 L 138.2 147.7 L 142.2 147.7 L 142.2 144.4 L 143.2 144.4 L 143.2 152.1 L 142.2 152.1 L 142.2 148.6 L 138.2 148.6 L 138.2 152.1 L 137.2 152.1 L 137.2 144.4 " fill="#FF0000"/>
<path class="atom-29" d="M 16.2 46.8 Q 16.2 44.9, 17.1 43.9 Q 18.0 42.9, 19.7 42.9 Q 21.4 42.9, 22.3 43.9 Q 23.2 44.9, 23.2 46.8 Q 23.2 48.7, 22.3 49.7 Q 21.4 50.8, 19.7 50.8 Q 18.0 50.8, 17.1 49.7 Q 16.2 48.7, 16.2 46.8 M 19.7 49.9 Q 20.9 49.9, 21.5 49.1 Q 22.1 48.3, 22.1 46.8 Q 22.1 45.3, 21.5 44.5 Q 20.9 43.7, 19.7 43.7 Q 18.5 43.7, 17.9 44.5 Q 17.2 45.3, 17.2 46.8 Q 17.2 48.3, 17.9 49.1 Q 18.5 49.9, 19.7 49.9 " fill="#FF0000"/>
<path class="atom-30" d="M 63.3 49.3 Q 63.3 47.4, 64.2 46.4 Q 65.1 45.4, 66.8 45.4 Q 68.5 45.4, 69.4 46.4 Q 70.4 47.4, 70.4 49.3 Q 70.4 51.2, 69.4 52.2 Q 68.5 53.3, 66.8 53.3 Q 65.1 53.3, 64.2 52.2 Q 63.3 51.2, 63.3 49.3 M 66.8 52.4 Q 68.0 52.4, 68.6 51.6 Q 69.3 50.8, 69.3 49.3 Q 69.3 47.8, 68.6 47.0 Q 68.0 46.2, 66.8 46.2 Q 65.6 46.2, 65.0 47.0 Q 64.4 47.8, 64.4 49.3 Q 64.4 50.8, 65.0 51.6 Q 65.6 52.4, 66.8 52.4 " fill="#FF0000"/>
<path class="atom-30" d="M 71.6 45.4 L 72.6 45.4 L 72.6 48.7 L 76.6 48.7 L 76.6 45.4 L 77.6 45.4 L 77.6 53.2 L 76.6 53.2 L 76.6 49.6 L 72.6 49.6 L 72.6 53.2 L 71.6 53.2 L 71.6 45.4 " fill="#FF0000"/>
</g>
  </g>
</svg>
