<?xml version='1.0' encoding='ASCII' standalone='yes'?>
<svg xmlns="http://www.w3.org/2000/svg" xmlns:xlink="http://www.w3.org/1999/xlink" version="1.1" width="891.0px" viewBox="0 0 891.0 200.0" height="200.0px">
  <g>
    <g transform="translate(0, 0) scale(1 1) "><!-- END OF HEADER -->
<rect style="opacity:1.0;fill:#FFFFFF;stroke:none" width="271.0" height="200.0" x="0.0" y="0.0"> </rect>
<path class="bond-0 atom-0 atom-1" d="M 203.3,52.9 L 189.2,86.5" style="fill:none;fill-rule:evenodd;stroke:#000000;stroke-width:2.0px;stroke-linecap:butt;stroke-linejoin:miter;stroke-opacity:1"/>
<path class="bond-1 atom-1 atom-2" d="M 189.2,86.5 L 175.0,120.1" style="fill:none;fill-rule:evenodd;stroke:#000000;stroke-width:2.0px;stroke-linecap:butt;stroke-linejoin:miter;stroke-opacity:1"/>
<path class="bond-2 atom-1 atom-3" d="M 189.2,86.5 L 155.6,72.3" style="fill:none;fill-rule:evenodd;stroke:#000000;stroke-width:2.0px;stroke-linecap:butt;stroke-linejoin:miter;stroke-opacity:1"/>
<path class="bond-3 atom-3 atom-4" d="M 155.6,72.3 L 126.5,94.4" style="fill:none;fill-rule:evenodd;stroke:#000000;stroke-width:2.0px;stroke-linecap:butt;stroke-linejoin:miter;stroke-opacity:1"/>
<path class="bond-4 atom-4 atom-5" d="M 126.5,94.4 L 128.4,109.2" style="fill:none;fill-rule:evenodd;stroke:#000000;stroke-width:2.0px;stroke-linecap:butt;stroke-linejoin:miter;stroke-opacity:1"/>
<path class="bond-4 atom-4 atom-5" d="M 128.4,109.2 L 130.3,124.1" style="fill:none;fill-rule:evenodd;stroke:#FF0000;stroke-width:2.0px;stroke-linecap:butt;stroke-linejoin:miter;stroke-opacity:1"/>
<path class="bond-5 atom-4 atom-6" d="M 126.5,94.4 L 92.9,80.2" style="fill:none;fill-rule:evenodd;stroke:#000000;stroke-width:2.0px;stroke-linecap:butt;stroke-linejoin:miter;stroke-opacity:1"/>
<path class="bond-6 atom-6 atom-7" d="M 92.9,80.2 L 107.1,46.6" style="fill:none;fill-rule:evenodd;stroke:#000000;stroke-width:2.0px;stroke-linecap:butt;stroke-linejoin:miter;stroke-opacity:1"/>
<path class="bond-7 atom-6 atom-8" d="M 92.9,80.2 L 78.8,113.8" style="fill:none;fill-rule:evenodd;stroke:#000000;stroke-width:2.0px;stroke-linecap:butt;stroke-linejoin:miter;stroke-opacity:1"/>
<path class="bond-8 atom-8 atom-9" d="M 78.8,113.8 L 42.6,118.3" style="fill:none;fill-rule:evenodd;stroke:#000000;stroke-width:2.0px;stroke-linecap:butt;stroke-linejoin:miter;stroke-opacity:1"/>
<path class="bond-9 atom-9 atom-10" d="M 42.6,118.3 L 36.9,131.9" style="fill:none;fill-rule:evenodd;stroke:#000000;stroke-width:2.0px;stroke-linecap:butt;stroke-linejoin:miter;stroke-opacity:1"/>
<path class="bond-9 atom-9 atom-10" d="M 36.9,131.9 L 31.2,145.5" style="fill:none;fill-rule:evenodd;stroke:#FF0000;stroke-width:2.0px;stroke-linecap:butt;stroke-linejoin:miter;stroke-opacity:1"/>
<path class="bond-10 atom-6 atom-11" d="M 92.9,80.2 L 59.3,66.1" style="fill:none;fill-rule:evenodd;stroke:#000000;stroke-width:2.0px;stroke-linecap:butt;stroke-linejoin:miter;stroke-opacity:1"/>
<path class="bond-11 atom-11 atom-12" d="M 59.0,62.9 L 46.8,72.2" style="fill:none;fill-rule:evenodd;stroke:#000000;stroke-width:2.0px;stroke-linecap:butt;stroke-linejoin:miter;stroke-opacity:1"/>
<path class="bond-11 atom-11 atom-12" d="M 46.8,72.2 L 34.6,81.4" style="fill:none;fill-rule:evenodd;stroke:#FF0000;stroke-width:2.0px;stroke-linecap:butt;stroke-linejoin:miter;stroke-opacity:1"/>
<path class="bond-11 atom-11 atom-12" d="M 62.3,67.3 L 50.1,76.5" style="fill:none;fill-rule:evenodd;stroke:#000000;stroke-width:2.0px;stroke-linecap:butt;stroke-linejoin:miter;stroke-opacity:1"/>
<path class="bond-11 atom-11 atom-12" d="M 50.1,76.5 L 37.9,85.8" style="fill:none;fill-rule:evenodd;stroke:#FF0000;stroke-width:2.0px;stroke-linecap:butt;stroke-linejoin:miter;stroke-opacity:1"/>
<path class="bond-12 atom-11 atom-13" d="M 59.3,66.1 L 57.5,51.3" style="fill:none;fill-rule:evenodd;stroke:#000000;stroke-width:2.0px;stroke-linecap:butt;stroke-linejoin:miter;stroke-opacity:1"/>
<path class="bond-12 atom-11 atom-13" d="M 57.5,51.3 L 55.6,36.5" style="fill:none;fill-rule:evenodd;stroke:#FF0000;stroke-width:2.0px;stroke-linecap:butt;stroke-linejoin:miter;stroke-opacity:1"/>
<path class="bond-13 atom-1 atom-14" d="M 189.2,86.5 L 222.8,100.6" style="fill:none;fill-rule:evenodd;stroke:#000000;stroke-width:2.0px;stroke-linecap:butt;stroke-linejoin:miter;stroke-opacity:1"/>
<path class="bond-14 atom-14 atom-15" d="M 223.2,103.8 L 235.3,94.5" style="fill:none;fill-rule:evenodd;stroke:#000000;stroke-width:2.0px;stroke-linecap:butt;stroke-linejoin:miter;stroke-opacity:1"/>
<path class="bond-14 atom-14 atom-15" d="M 235.3,94.5 L 247.5,85.3" style="fill:none;fill-rule:evenodd;stroke:#FF0000;stroke-width:2.0px;stroke-linecap:butt;stroke-linejoin:miter;stroke-opacity:1"/>
<path class="bond-14 atom-14 atom-15" d="M 219.9,99.4 L 232.0,90.2" style="fill:none;fill-rule:evenodd;stroke:#000000;stroke-width:2.0px;stroke-linecap:butt;stroke-linejoin:miter;stroke-opacity:1"/>
<path class="bond-14 atom-14 atom-15" d="M 232.0,90.2 L 244.2,80.9" style="fill:none;fill-rule:evenodd;stroke:#FF0000;stroke-width:2.0px;stroke-linecap:butt;stroke-linejoin:miter;stroke-opacity:1"/>
<path class="bond-15 atom-14 atom-16" d="M 222.8,100.6 L 224.6,115.5" style="fill:none;fill-rule:evenodd;stroke:#000000;stroke-width:2.0px;stroke-linecap:butt;stroke-linejoin:miter;stroke-opacity:1"/>
<path class="bond-15 atom-14 atom-16" d="M 224.6,115.5 L 226.5,130.4" style="fill:none;fill-rule:evenodd;stroke:#FF0000;stroke-width:2.0px;stroke-linecap:butt;stroke-linejoin:miter;stroke-opacity:1"/>
<path d="M 157.3,73.0 L 155.6,72.3 L 154.1,73.4" style="fill:none;stroke:#000000;stroke-width:2.0px;stroke-linecap:butt;stroke-linejoin:miter;stroke-opacity:1;"/>
<path d="M 79.5,112.1 L 78.8,113.8 L 77.0,114.0" style="fill:none;stroke:#000000;stroke-width:2.0px;stroke-linecap:butt;stroke-linejoin:miter;stroke-opacity:1;"/>
<path d="M 44.4,118.1 L 42.6,118.3 L 42.3,119.0" style="fill:none;stroke:#000000;stroke-width:2.0px;stroke-linecap:butt;stroke-linejoin:miter;stroke-opacity:1;"/>
<path d="M 61.0,66.8 L 59.3,66.1 L 59.3,65.3" style="fill:none;stroke:#000000;stroke-width:2.0px;stroke-linecap:butt;stroke-linejoin:miter;stroke-opacity:1;"/>
<path d="M 221.1,99.9 L 222.8,100.6 L 222.9,101.4" style="fill:none;stroke:#000000;stroke-width:2.0px;stroke-linecap:butt;stroke-linejoin:miter;stroke-opacity:1;"/>
<path class="atom-5" d="M 126.3 130.5 Q 126.3 128.1, 127.6 126.7 Q 128.8 125.3, 131.1 125.3 Q 133.4 125.3, 134.6 126.7 Q 135.8 128.1, 135.8 130.5 Q 135.8 133.1, 134.6 134.5 Q 133.3 135.9, 131.1 135.9 Q 128.8 135.9, 127.6 134.5 Q 126.3 133.1, 126.3 130.5 M 131.1 134.7 Q 132.7 134.7, 133.5 133.7 Q 134.4 132.6, 134.4 130.5 Q 134.4 128.5, 133.5 127.5 Q 132.7 126.5, 131.1 126.5 Q 129.5 126.5, 128.6 127.5 Q 127.8 128.5, 127.8 130.5 Q 127.8 132.6, 128.6 133.7 Q 129.5 134.7, 131.1 134.7 " fill="#FF0000"/>
<path class="atom-5" d="M 137.4 125.4 L 138.8 125.4 L 138.8 129.8 L 144.1 129.8 L 144.1 125.4 L 145.5 125.4 L 145.5 135.7 L 144.1 135.7 L 144.1 131.0 L 138.8 131.0 L 138.8 135.7 L 137.4 135.7 L 137.4 125.4 " fill="#FF0000"/>
<path class="atom-10" d="M 13.5 146.8 L 14.9 146.8 L 14.9 151.2 L 20.2 151.2 L 20.2 146.8 L 21.6 146.8 L 21.6 157.2 L 20.2 157.2 L 20.2 152.4 L 14.9 152.4 L 14.9 157.2 L 13.5 157.2 L 13.5 146.8 " fill="#FF0000"/>
<path class="atom-10" d="M 23.7 152.0 Q 23.7 149.5, 25.0 148.1 Q 26.2 146.7, 28.5 146.7 Q 30.8 146.7, 32.0 148.1 Q 33.2 149.5, 33.2 152.0 Q 33.2 154.5, 32.0 155.9 Q 30.7 157.3, 28.5 157.3 Q 26.2 157.3, 25.0 155.9 Q 23.7 154.5, 23.7 152.0 M 28.5 156.2 Q 30.1 156.2, 30.9 155.1 Q 31.8 154.0, 31.8 152.0 Q 31.8 149.9, 30.9 148.9 Q 30.1 147.9, 28.5 147.9 Q 26.9 147.9, 26.0 148.9 Q 25.2 149.9, 25.2 152.0 Q 25.2 154.1, 26.0 155.1 Q 26.9 156.2, 28.5 156.2 " fill="#FF0000"/>
<path class="atom-12" d="M 25.6 88.1 Q 25.6 85.6, 26.8 84.2 Q 28.0 82.9, 30.3 82.9 Q 32.6 82.9, 33.8 84.2 Q 35.0 85.6, 35.0 88.1 Q 35.0 90.6, 33.8 92.0 Q 32.6 93.5, 30.3 93.5 Q 28.0 93.5, 26.8 92.0 Q 25.6 90.6, 25.6 88.1 M 30.3 92.3 Q 31.9 92.3, 32.7 91.2 Q 33.6 90.2, 33.6 88.1 Q 33.6 86.1, 32.7 85.1 Q 31.9 84.0, 30.3 84.0 Q 28.7 84.0, 27.9 85.1 Q 27.0 86.1, 27.0 88.1 Q 27.0 90.2, 27.9 91.2 Q 28.7 92.3, 30.3 92.3 " fill="#FF0000"/>
<path class="atom-13" d="M 50.1 29.9 Q 50.1 27.4, 51.3 26.1 Q 52.5 24.7, 54.8 24.7 Q 57.1 24.7, 58.3 26.1 Q 59.5 27.4, 59.5 29.9 Q 59.5 32.4, 58.3 33.9 Q 57.1 35.3, 54.8 35.3 Q 52.5 35.3, 51.3 33.9 Q 50.1 32.4, 50.1 29.9 M 54.8 34.1 Q 56.4 34.1, 57.2 33.1 Q 58.1 32.0, 58.1 29.9 Q 58.1 27.9, 57.2 26.9 Q 56.4 25.8, 54.8 25.8 Q 53.2 25.8, 52.4 26.9 Q 51.5 27.9, 51.5 29.9 Q 51.5 32.0, 52.4 33.1 Q 53.2 34.1, 54.8 34.1 " fill="#FF0000"/>
<path class="atom-13" d="M 61.1 24.8 L 62.5 24.8 L 62.5 29.2 L 67.8 29.2 L 67.8 24.8 L 69.2 24.8 L 69.2 35.1 L 67.8 35.1 L 67.8 30.3 L 62.5 30.3 L 62.5 35.1 L 61.1 35.1 L 61.1 24.8 " fill="#FF0000"/>
<path class="atom-15" d="M 247.1 78.6 Q 247.1 76.2, 248.3 74.8 Q 249.5 73.4, 251.8 73.4 Q 254.1 73.4, 255.3 74.8 Q 256.6 76.2, 256.6 78.6 Q 256.6 81.1, 255.3 82.6 Q 254.1 84.0, 251.8 84.0 Q 249.5 84.0, 248.3 82.6 Q 247.1 81.2, 247.1 78.6 M 251.8 82.8 Q 253.4 82.8, 254.2 81.8 Q 255.1 80.7, 255.1 78.6 Q 255.1 76.6, 254.2 75.6 Q 253.4 74.5, 251.8 74.5 Q 250.2 74.5, 249.4 75.6 Q 248.5 76.6, 248.5 78.6 Q 248.5 80.7, 249.4 81.8 Q 250.2 82.8, 251.8 82.8 " fill="#FF0000"/>
<path class="atom-16" d="M 222.6 136.8 Q 222.6 134.3, 223.8 133.0 Q 225.0 131.6, 227.3 131.6 Q 229.6 131.6, 230.8 133.0 Q 232.1 134.3, 232.1 136.8 Q 232.1 139.3, 230.8 140.8 Q 229.6 142.2, 227.3 142.2 Q 225.0 142.2, 223.8 140.8 Q 222.6 139.3, 222.6 136.8 M 227.3 141.0 Q 228.9 141.0, 229.7 140.0 Q 230.6 138.9, 230.6 136.8 Q 230.6 134.8, 229.7 133.8 Q 228.9 132.7, 227.3 132.7 Q 225.7 132.7, 224.9 133.8 Q 224.0 134.8, 224.0 136.8 Q 224.0 138.9, 224.9 140.0 Q 225.7 141.0, 227.3 141.0 " fill="#FF0000"/>
<path class="atom-16" d="M 233.7 131.7 L 235.1 131.7 L 235.1 136.1 L 240.3 136.1 L 240.3 131.7 L 241.7 131.7 L 241.7 142.0 L 240.3 142.0 L 240.3 137.2 L 235.1 137.2 L 235.1 142.0 L 233.7 142.0 L 233.7 131.7 " fill="#FF0000"/>
<path class="legend" d="M 126.0 181.9 Q 126.0 179.6, 126.7 177.7 Q 127.4 175.8, 128.7 173.8 L 129.6 174.4 Q 128.5 176.3, 128.0 178.0 Q 127.5 179.7, 127.5 181.9 Q 127.5 184.0, 128.0 185.8 Q 128.5 187.5, 129.6 189.4 L 128.7 190.0 Q 127.4 188.0, 126.7 186.1 Q 126.0 184.2, 126.0 181.9 " fill="#000000"/>
<path class="legend" d="M 130.5 177.3 Q 130.9 176.2, 131.9 175.6 Q 132.9 175.0, 134.3 175.0 Q 136.0 175.0, 136.9 175.9 Q 137.9 176.8, 137.9 178.5 Q 137.9 180.2, 136.6 181.7 Q 135.4 183.3, 132.9 185.2 L 138.1 185.2 L 138.1 186.4 L 130.5 186.4 L 130.5 185.4 Q 132.6 183.9, 133.8 182.8 Q 135.1 181.6, 135.7 180.6 Q 136.3 179.6, 136.3 178.6 Q 136.3 177.5, 135.8 176.9 Q 135.2 176.3, 134.3 176.3 Q 133.3 176.3, 132.7 176.6 Q 132.1 177.0, 131.7 177.8 L 130.5 177.3 " fill="#000000"/>
<path class="legend" d="M 143.1 181.9 Q 143.1 184.2, 142.4 186.1 Q 141.7 188.0, 140.4 190.0 L 139.5 189.4 Q 140.6 187.5, 141.1 185.8 Q 141.6 184.0, 141.6 181.9 Q 141.6 179.7, 141.1 178.0 Q 140.6 176.3, 139.5 174.4 L 140.4 173.8 Q 141.7 175.8, 142.4 177.7 Q 143.1 179.6, 143.1 181.9 " fill="#000000"/>
</g>
    <g transform="translate(271.0, 0) scale(1 1) "><line x1="5" y1="100" x2="35" y2="100" style="stroke:rgb(0,0,0);stroke-width:2"/>
  <line x1="34" y1="100" x2="29" y2="95" style="stroke:rgb(0,0,0);stroke-width:2"/>
  <line x1="34" y1="100" x2="29" y2="105" style="stroke:rgb(0,0,0);stroke-width:2"/>
</g>
    <g transform="translate(311.0, 0) scale(1 1) "><!-- END OF HEADER -->
<rect style="opacity:1.0;fill:#FFFFFF;stroke:none" width="260.0" height="200.0" x="0.0" y="0.0"> </rect>
<path class="bond-0 atom-0 atom-1" d="M 188.4,53.6 L 179.6,90.2" style="fill:none;fill-rule:evenodd;stroke:#000000;stroke-width:2.0px;stroke-linecap:butt;stroke-linejoin:miter;stroke-opacity:1"/>
<path class="bond-1 atom-1 atom-2" d="M 179.6,90.2 L 170.8,126.8" style="fill:none;fill-rule:evenodd;stroke:#000000;stroke-width:2.0px;stroke-linecap:butt;stroke-linejoin:miter;stroke-opacity:1"/>
<path class="bond-2 atom-1 atom-3" d="M 179.6,90.2 L 143.0,81.4" style="fill:none;fill-rule:evenodd;stroke:#000000;stroke-width:2.0px;stroke-linecap:butt;stroke-linejoin:miter;stroke-opacity:1"/>
<path class="bond-3 atom-3 atom-4" d="M 143.0,81.4 L 117.0,108.7" style="fill:none;fill-rule:evenodd;stroke:#000000;stroke-width:2.0px;stroke-linecap:butt;stroke-linejoin:miter;stroke-opacity:1"/>
<path class="bond-4 atom-4 atom-5" d="M 117.0,108.7 L 121.4,123.4" style="fill:none;fill-rule:evenodd;stroke:#000000;stroke-width:2.0px;stroke-linecap:butt;stroke-linejoin:miter;stroke-opacity:1"/>
<path class="bond-4 atom-4 atom-5" d="M 121.4,123.4 L 125.8,138.2" style="fill:none;fill-rule:evenodd;stroke:#FF0000;stroke-width:2.0px;stroke-linecap:butt;stroke-linejoin:miter;stroke-opacity:1"/>
<path class="bond-5 atom-4 atom-6" d="M 117.0,108.7 L 80.4,99.9" style="fill:none;fill-rule:evenodd;stroke:#000000;stroke-width:2.0px;stroke-linecap:butt;stroke-linejoin:miter;stroke-opacity:1"/>
<path class="bond-6 atom-6 atom-7" d="M 80.4,99.9 L 89.2,63.3" style="fill:none;fill-rule:evenodd;stroke:#000000;stroke-width:2.0px;stroke-linecap:butt;stroke-linejoin:miter;stroke-opacity:1"/>
<path class="bond-7 atom-6 atom-8" d="M 80.4,99.9 L 71.6,136.5" style="fill:none;fill-rule:evenodd;stroke:#000000;stroke-width:2.0px;stroke-linecap:butt;stroke-linejoin:miter;stroke-opacity:1"/>
<path class="bond-8 atom-6 atom-9" d="M 80.4,99.9 L 43.8,91.1" style="fill:none;fill-rule:evenodd;stroke:#000000;stroke-width:2.0px;stroke-linecap:butt;stroke-linejoin:miter;stroke-opacity:1"/>
<path class="bond-9 atom-9 atom-10" d="M 42.9,88.0 L 32.4,99.0" style="fill:none;fill-rule:evenodd;stroke:#000000;stroke-width:2.0px;stroke-linecap:butt;stroke-linejoin:miter;stroke-opacity:1"/>
<path class="bond-9 atom-9 atom-10" d="M 32.4,99.0 L 22.0,110.0" style="fill:none;fill-rule:evenodd;stroke:#FF0000;stroke-width:2.0px;stroke-linecap:butt;stroke-linejoin:miter;stroke-opacity:1"/>
<path class="bond-9 atom-9 atom-10" d="M 47.0,91.9 L 36.5,102.9" style="fill:none;fill-rule:evenodd;stroke:#000000;stroke-width:2.0px;stroke-linecap:butt;stroke-linejoin:miter;stroke-opacity:1"/>
<path class="bond-9 atom-9 atom-10" d="M 36.5,102.9 L 26.1,113.9" style="fill:none;fill-rule:evenodd;stroke:#FF0000;stroke-width:2.0px;stroke-linecap:butt;stroke-linejoin:miter;stroke-opacity:1"/>
<path class="bond-10 atom-9 atom-11" d="M 43.8,91.1 L 39.5,76.5" style="fill:none;fill-rule:evenodd;stroke:#000000;stroke-width:2.0px;stroke-linecap:butt;stroke-linejoin:miter;stroke-opacity:1"/>
<path class="bond-10 atom-9 atom-11" d="M 39.5,76.5 L 35.1,61.8" style="fill:none;fill-rule:evenodd;stroke:#FF0000;stroke-width:2.0px;stroke-linecap:butt;stroke-linejoin:miter;stroke-opacity:1"/>
<path class="bond-11 atom-1 atom-12" d="M 179.6,90.2 L 216.2,99.0" style="fill:none;fill-rule:evenodd;stroke:#000000;stroke-width:2.0px;stroke-linecap:butt;stroke-linejoin:miter;stroke-opacity:1"/>
<path class="bond-12 atom-12 atom-13" d="M 217.1,102.1 L 227.6,91.1" style="fill:none;fill-rule:evenodd;stroke:#000000;stroke-width:2.0px;stroke-linecap:butt;stroke-linejoin:miter;stroke-opacity:1"/>
<path class="bond-12 atom-12 atom-13" d="M 227.6,91.1 L 238.0,80.1" style="fill:none;fill-rule:evenodd;stroke:#FF0000;stroke-width:2.0px;stroke-linecap:butt;stroke-linejoin:miter;stroke-opacity:1"/>
<path class="bond-12 atom-12 atom-13" d="M 213.0,98.2 L 223.5,87.2" style="fill:none;fill-rule:evenodd;stroke:#000000;stroke-width:2.0px;stroke-linecap:butt;stroke-linejoin:miter;stroke-opacity:1"/>
<path class="bond-12 atom-12 atom-13" d="M 223.5,87.2 L 233.9,76.2" style="fill:none;fill-rule:evenodd;stroke:#FF0000;stroke-width:2.0px;stroke-linecap:butt;stroke-linejoin:miter;stroke-opacity:1"/>
<path class="bond-13 atom-12 atom-14" d="M 216.2,99.0 L 220.5,113.7" style="fill:none;fill-rule:evenodd;stroke:#000000;stroke-width:2.0px;stroke-linecap:butt;stroke-linejoin:miter;stroke-opacity:1"/>
<path class="bond-13 atom-12 atom-14" d="M 220.5,113.7 L 224.9,128.5" style="fill:none;fill-rule:evenodd;stroke:#FF0000;stroke-width:2.0px;stroke-linecap:butt;stroke-linejoin:miter;stroke-opacity:1"/>
<path d="M 144.8,81.8 L 143.0,81.4 L 141.7,82.8" style="fill:none;stroke:#000000;stroke-width:2.0px;stroke-linecap:butt;stroke-linejoin:miter;stroke-opacity:1;"/>
<path d="M 45.6,91.6 L 43.8,91.1 L 43.6,90.4" style="fill:none;stroke:#000000;stroke-width:2.0px;stroke-linecap:butt;stroke-linejoin:miter;stroke-opacity:1;"/>
<path d="M 214.4,98.5 L 216.2,99.0 L 216.4,99.7" style="fill:none;stroke:#000000;stroke-width:2.0px;stroke-linecap:butt;stroke-linejoin:miter;stroke-opacity:1;"/>
<path class="atom-5" d="M 122.8 144.8 Q 122.8 142.3, 124.1 140.9 Q 125.4 139.4, 127.7 139.4 Q 130.1 139.4, 131.4 140.9 Q 132.6 142.3, 132.6 144.8 Q 132.6 147.4, 131.3 148.9 Q 130.1 150.4, 127.7 150.4 Q 125.4 150.4, 124.1 148.9 Q 122.8 147.4, 122.8 144.8 M 127.7 149.2 Q 129.4 149.2, 130.2 148.1 Q 131.1 147.0, 131.1 144.8 Q 131.1 142.8, 130.2 141.7 Q 129.4 140.6, 127.7 140.6 Q 126.1 140.6, 125.2 141.7 Q 124.3 142.7, 124.3 144.8 Q 124.3 147.0, 125.2 148.1 Q 126.1 149.2, 127.7 149.2 " fill="#FF0000"/>
<path class="atom-5" d="M 134.3 139.5 L 135.7 139.5 L 135.7 144.1 L 141.2 144.1 L 141.2 139.5 L 142.6 139.5 L 142.6 150.2 L 141.2 150.2 L 141.2 145.3 L 135.7 145.3 L 135.7 150.2 L 134.3 150.2 L 134.3 139.5 " fill="#FF0000"/>
<path class="atom-10" d="M 13.0 118.5 Q 13.0 115.9, 14.3 114.5 Q 15.5 113.0, 17.9 113.0 Q 20.3 113.0, 21.5 114.5 Q 22.8 115.9, 22.8 118.5 Q 22.8 121.1, 21.5 122.5 Q 20.2 124.0, 17.9 124.0 Q 15.5 124.0, 14.3 122.5 Q 13.0 121.1, 13.0 118.5 M 17.9 122.8 Q 19.5 122.8, 20.4 121.7 Q 21.3 120.6, 21.3 118.5 Q 21.3 116.4, 20.4 115.3 Q 19.5 114.2, 17.9 114.2 Q 16.3 114.2, 15.4 115.3 Q 14.5 116.4, 14.5 118.5 Q 14.5 120.6, 15.4 121.7 Q 16.3 122.8, 17.9 122.8 " fill="#FF0000"/>
<path class="atom-11" d="M 28.2 55.1 Q 28.2 52.5, 29.5 51.1 Q 30.8 49.6, 33.1 49.6 Q 35.5 49.6, 36.8 51.1 Q 38.0 52.5, 38.0 55.1 Q 38.0 57.6, 36.7 59.1 Q 35.5 60.6, 33.1 60.6 Q 30.8 60.6, 29.5 59.1 Q 28.2 57.7, 28.2 55.1 M 33.1 59.4 Q 34.8 59.4, 35.6 58.3 Q 36.5 57.2, 36.5 55.1 Q 36.5 53.0, 35.6 51.9 Q 34.8 50.8, 33.1 50.8 Q 31.5 50.8, 30.6 51.9 Q 29.7 52.9, 29.7 55.1 Q 29.7 57.2, 30.6 58.3 Q 31.5 59.4, 33.1 59.4 " fill="#FF0000"/>
<path class="atom-11" d="M 39.7 49.7 L 41.1 49.7 L 41.1 54.3 L 46.6 54.3 L 46.6 49.7 L 48.0 49.7 L 48.0 60.4 L 46.6 60.4 L 46.6 55.5 L 41.1 55.5 L 41.1 60.4 L 39.7 60.4 L 39.7 49.7 " fill="#FF0000"/>
<path class="atom-13" d="M 237.2 71.7 Q 237.2 69.1, 238.5 67.7 Q 239.7 66.3, 242.1 66.3 Q 244.5 66.3, 245.7 67.7 Q 247.0 69.1, 247.0 71.7 Q 247.0 74.3, 245.7 75.8 Q 244.4 77.2, 242.1 77.2 Q 239.8 77.2, 238.5 75.8 Q 237.2 74.3, 237.2 71.7 M 242.1 76.0 Q 243.7 76.0, 244.6 74.9 Q 245.5 73.8, 245.5 71.7 Q 245.5 69.6, 244.6 68.6 Q 243.7 67.5, 242.1 67.5 Q 240.5 67.5, 239.6 68.5 Q 238.7 69.6, 238.7 71.7 Q 238.7 73.9, 239.6 74.9 Q 240.5 76.0, 242.1 76.0 " fill="#FF0000"/>
<path class="atom-14" d="M 222.0 135.1 Q 222.0 132.6, 223.2 131.1 Q 224.5 129.7, 226.9 129.7 Q 229.2 129.7, 230.5 131.1 Q 231.8 132.6, 231.8 135.1 Q 231.8 137.7, 230.5 139.2 Q 229.2 140.6, 226.9 140.6 Q 224.5 140.6, 223.2 139.2 Q 222.0 137.7, 222.0 135.1 M 226.9 139.4 Q 228.5 139.4, 229.4 138.4 Q 230.3 137.3, 230.3 135.1 Q 230.3 133.0, 229.4 132.0 Q 228.5 130.9, 226.9 130.9 Q 225.2 130.9, 224.4 132.0 Q 223.5 133.0, 223.5 135.1 Q 223.5 137.3, 224.4 138.4 Q 225.2 139.4, 226.9 139.4 " fill="#FF0000"/>
<path class="atom-14" d="M 233.4 129.8 L 234.9 129.8 L 234.9 134.4 L 240.3 134.4 L 240.3 129.8 L 241.8 129.8 L 241.8 140.5 L 240.3 140.5 L 240.3 135.6 L 234.9 135.6 L 234.9 140.5 L 233.4 140.5 L 233.4 129.8 " fill="#FF0000"/>
</g>
    <g transform="translate(571.0, 0) scale(1 1) "><line x1="15" y1="100" x2="25" y2="100" style="stroke:rgb(0,0,0);stroke-width:2"/>
  <line x1="20" y1="95" x2="20" y2="105" style="stroke:rgb(0,0,0);stroke-width:2"/>
</g>
    <g transform="translate(611.0, 0) scale(1 1) "><!-- END OF HEADER -->
<rect style="opacity:1.0;fill:#FFFFFF;stroke:none" width="280.0" height="200.0" x="0.0" y="0.0"> </rect>
<path class="bond-0 atom-0 atom-1" d="M 221.0,77.9 L 206.0,106.4" style="fill:none;fill-rule:evenodd;stroke:#000000;stroke-width:2.0px;stroke-linecap:butt;stroke-linejoin:miter;stroke-opacity:1"/>
<path class="bond-1 atom-1 atom-2" d="M 206.0,106.4 L 191.0,134.9" style="fill:none;fill-rule:evenodd;stroke:#000000;stroke-width:2.0px;stroke-linecap:butt;stroke-linejoin:miter;stroke-opacity:1"/>
<path class="bond-2 atom-1 atom-3" d="M 206.0,106.4 L 177.5,91.3" style="fill:none;fill-rule:evenodd;stroke:#000000;stroke-width:2.0px;stroke-linecap:butt;stroke-linejoin:miter;stroke-opacity:1"/>
<path class="bond-3 atom-3 atom-4" d="M 177.5,91.3 L 150.2,108.5" style="fill:none;fill-rule:evenodd;stroke:#000000;stroke-width:2.0px;stroke-linecap:butt;stroke-linejoin:miter;stroke-opacity:1"/>
<path class="bond-4 atom-4 atom-5" d="M 150.2,108.5 L 150.7,121.8" style="fill:none;fill-rule:evenodd;stroke:#000000;stroke-width:2.0px;stroke-linecap:butt;stroke-linejoin:miter;stroke-opacity:1"/>
<path class="bond-4 atom-4 atom-5" d="M 150.7,121.8 L 151.2,135.1" style="fill:none;fill-rule:evenodd;stroke:#FF0000;stroke-width:2.0px;stroke-linecap:butt;stroke-linejoin:miter;stroke-opacity:1"/>
<path class="bond-5 atom-4 atom-6" d="M 150.2,108.5 L 121.7,93.5" style="fill:none;fill-rule:evenodd;stroke:#000000;stroke-width:2.0px;stroke-linecap:butt;stroke-linejoin:miter;stroke-opacity:1"/>
<path class="bond-6 atom-6 atom-7" d="M 121.7,93.5 L 136.7,65.0" style="fill:none;fill-rule:evenodd;stroke:#000000;stroke-width:2.0px;stroke-linecap:butt;stroke-linejoin:miter;stroke-opacity:1"/>
<path class="bond-7 atom-6 atom-8" d="M 121.7,93.5 L 106.7,122.0" style="fill:none;fill-rule:evenodd;stroke:#000000;stroke-width:2.0px;stroke-linecap:butt;stroke-linejoin:miter;stroke-opacity:1"/>
<path class="bond-8 atom-8 atom-9" d="M 106.7,122.0 L 74.5,123.2" style="fill:none;fill-rule:evenodd;stroke:#000000;stroke-width:2.0px;stroke-linecap:butt;stroke-linejoin:miter;stroke-opacity:1"/>
<path class="bond-9 atom-9 atom-10" d="M 74.5,123.2 L 69.4,117.0" style="fill:none;fill-rule:evenodd;stroke:#000000;stroke-width:2.0px;stroke-linecap:butt;stroke-linejoin:miter;stroke-opacity:1"/>
<path class="bond-9 atom-9 atom-10" d="M 69.4,117.0 L 64.3,110.8" style="fill:none;fill-rule:evenodd;stroke:#FF0000;stroke-width:2.0px;stroke-linecap:butt;stroke-linejoin:miter;stroke-opacity:1"/>
<path class="bond-10 atom-9 atom-11" d="M 74.5,123.2 L 59.4,151.8" style="fill:none;fill-rule:evenodd;stroke:#000000;stroke-width:2.0px;stroke-linecap:butt;stroke-linejoin:miter;stroke-opacity:1"/>
<path class="bond-11 atom-11 atom-12" d="M 59.4,151.8 L 45.9,152.3" style="fill:none;fill-rule:evenodd;stroke:#000000;stroke-width:2.0px;stroke-linecap:butt;stroke-linejoin:miter;stroke-opacity:1"/>
<path class="bond-11 atom-11 atom-12" d="M 45.9,152.3 L 32.4,152.8" style="fill:none;fill-rule:evenodd;stroke:#FF0000;stroke-width:2.0px;stroke-linecap:butt;stroke-linejoin:miter;stroke-opacity:1"/>
<path class="bond-12 atom-6 atom-13" d="M 121.7,93.5 L 93.2,78.5" style="fill:none;fill-rule:evenodd;stroke:#000000;stroke-width:2.0px;stroke-linecap:butt;stroke-linejoin:miter;stroke-opacity:1"/>
<path class="bond-13 atom-13 atom-14" d="M 95.6,79.7 L 95.0,65.8" style="fill:none;fill-rule:evenodd;stroke:#000000;stroke-width:2.0px;stroke-linecap:butt;stroke-linejoin:miter;stroke-opacity:1"/>
<path class="bond-13 atom-13 atom-14" d="M 95.0,65.8 L 94.5,51.9" style="fill:none;fill-rule:evenodd;stroke:#FF0000;stroke-width:2.0px;stroke-linecap:butt;stroke-linejoin:miter;stroke-opacity:1"/>
<path class="bond-13 atom-13 atom-14" d="M 90.9,79.5 L 90.4,66.0" style="fill:none;fill-rule:evenodd;stroke:#000000;stroke-width:2.0px;stroke-linecap:butt;stroke-linejoin:miter;stroke-opacity:1"/>
<path class="bond-13 atom-13 atom-14" d="M 90.4,66.0 L 89.8,52.1" style="fill:none;fill-rule:evenodd;stroke:#FF0000;stroke-width:2.0px;stroke-linecap:butt;stroke-linejoin:miter;stroke-opacity:1"/>
<path class="bond-14 atom-13 atom-15" d="M 93.2,78.5 L 85.2,82.2" style="fill:none;fill-rule:evenodd;stroke:#000000;stroke-width:2.0px;stroke-linecap:butt;stroke-linejoin:miter;stroke-opacity:1"/>
<path class="bond-14 atom-13 atom-15" d="M 85.2,82.2 L 77.1,86.0" style="fill:none;fill-rule:evenodd;stroke:#FF0000;stroke-width:2.0px;stroke-linecap:butt;stroke-linejoin:miter;stroke-opacity:1"/>
<path class="bond-15 atom-1 atom-16" d="M 206.0,106.4 L 234.5,121.4" style="fill:none;fill-rule:evenodd;stroke:#000000;stroke-width:2.0px;stroke-linecap:butt;stroke-linejoin:miter;stroke-opacity:1"/>
<path class="bond-16 atom-16 atom-17" d="M 234.6,124.1 L 246.2,116.8" style="fill:none;fill-rule:evenodd;stroke:#000000;stroke-width:2.0px;stroke-linecap:butt;stroke-linejoin:miter;stroke-opacity:1"/>
<path class="bond-16 atom-16 atom-17" d="M 246.2,116.8 L 257.8,109.5" style="fill:none;fill-rule:evenodd;stroke:#FF0000;stroke-width:2.0px;stroke-linecap:butt;stroke-linejoin:miter;stroke-opacity:1"/>
<path class="bond-16 atom-16 atom-17" d="M 232.1,120.1 L 243.7,112.8" style="fill:none;fill-rule:evenodd;stroke:#000000;stroke-width:2.0px;stroke-linecap:butt;stroke-linejoin:miter;stroke-opacity:1"/>
<path class="bond-16 atom-16 atom-17" d="M 243.7,112.8 L 255.3,105.5" style="fill:none;fill-rule:evenodd;stroke:#FF0000;stroke-width:2.0px;stroke-linecap:butt;stroke-linejoin:miter;stroke-opacity:1"/>
<path class="bond-17 atom-16 atom-18" d="M 234.5,121.4 L 235.0,134.7" style="fill:none;fill-rule:evenodd;stroke:#000000;stroke-width:2.0px;stroke-linecap:butt;stroke-linejoin:miter;stroke-opacity:1"/>
<path class="bond-17 atom-16 atom-18" d="M 235.0,134.7 L 235.6,148.0" style="fill:none;fill-rule:evenodd;stroke:#FF0000;stroke-width:2.0px;stroke-linecap:butt;stroke-linejoin:miter;stroke-opacity:1"/>
<path d="M 178.9,92.1 L 177.5,91.3 L 176.1,92.2" style="fill:none;stroke:#000000;stroke-width:2.0px;stroke-linecap:butt;stroke-linejoin:miter;stroke-opacity:1;"/>
<path d="M 107.4,120.6 L 106.7,122.0 L 105.1,122.1" style="fill:none;stroke:#000000;stroke-width:2.0px;stroke-linecap:butt;stroke-linejoin:miter;stroke-opacity:1;"/>
<path d="M 60.2,150.3 L 59.4,151.8 L 58.7,151.8" style="fill:none;stroke:#000000;stroke-width:2.0px;stroke-linecap:butt;stroke-linejoin:miter;stroke-opacity:1;"/>
<path d="M 94.6,79.2 L 93.2,78.5 L 92.8,78.6" style="fill:none;stroke:#000000;stroke-width:2.0px;stroke-linecap:butt;stroke-linejoin:miter;stroke-opacity:1;"/>
<path d="M 233.1,120.7 L 234.5,121.4 L 234.6,122.1" style="fill:none;stroke:#000000;stroke-width:2.0px;stroke-linecap:butt;stroke-linejoin:miter;stroke-opacity:1;"/>
<path class="atom-5" d="M 147.3 140.8 Q 147.3 138.6, 148.4 137.3 Q 149.4 136.1, 151.5 136.1 Q 153.5 136.1, 154.6 137.3 Q 155.6 138.6, 155.6 140.8 Q 155.6 143.0, 154.6 144.2 Q 153.5 145.5, 151.5 145.5 Q 149.4 145.5, 148.4 144.2 Q 147.3 143.0, 147.3 140.8 M 151.5 144.5 Q 152.9 144.5, 153.6 143.5 Q 154.4 142.6, 154.4 140.8 Q 154.4 139.0, 153.6 138.1 Q 152.9 137.1, 151.5 137.1 Q 150.1 137.1, 149.3 138.1 Q 148.6 139.0, 148.6 140.8 Q 148.6 142.6, 149.3 143.5 Q 150.1 144.5, 151.5 144.5 " fill="#FF0000"/>
<path class="atom-5" d="M 157.1 136.2 L 158.3 136.2 L 158.3 140.1 L 163.0 140.1 L 163.0 136.2 L 164.2 136.2 L 164.2 145.3 L 163.0 145.3 L 163.0 141.1 L 158.3 141.1 L 158.3 145.3 L 157.1 145.3 L 157.1 136.2 " fill="#FF0000"/>
<path class="atom-10" d="M 46.4 100.5 L 47.6 100.5 L 47.6 104.4 L 52.3 104.4 L 52.3 100.5 L 53.5 100.5 L 53.5 109.7 L 52.3 109.7 L 52.3 105.4 L 47.6 105.4 L 47.6 109.7 L 46.4 109.7 L 46.4 100.5 " fill="#FF0000"/>
<path class="atom-10" d="M 55.4 105.1 Q 55.4 102.9, 56.5 101.6 Q 57.6 100.4, 59.6 100.4 Q 61.6 100.4, 62.7 101.6 Q 63.8 102.9, 63.8 105.1 Q 63.8 107.3, 62.7 108.5 Q 61.6 109.8, 59.6 109.8 Q 57.6 109.8, 56.5 108.5 Q 55.4 107.3, 55.4 105.1 M 59.6 108.8 Q 61.0 108.8, 61.7 107.8 Q 62.5 106.9, 62.5 105.1 Q 62.5 103.3, 61.7 102.4 Q 61.0 101.5, 59.6 101.5 Q 58.2 101.5, 57.4 102.4 Q 56.7 103.3, 56.7 105.1 Q 56.7 106.9, 57.4 107.8 Q 58.2 108.8, 59.6 108.8 " fill="#FF0000"/>
<path class="atom-12" d="M 14.0 148.5 L 15.2 148.5 L 15.2 152.4 L 19.9 152.4 L 19.9 148.5 L 21.1 148.5 L 21.1 157.6 L 19.9 157.6 L 19.9 153.4 L 15.2 153.4 L 15.2 157.6 L 14.0 157.6 L 14.0 148.5 " fill="#FF0000"/>
<path class="atom-12" d="M 23.0 153.0 Q 23.0 150.8, 24.1 149.6 Q 25.2 148.4, 27.2 148.4 Q 29.2 148.4, 30.3 149.6 Q 31.4 150.8, 31.4 153.0 Q 31.4 155.2, 30.3 156.5 Q 29.2 157.8, 27.2 157.8 Q 25.2 157.8, 24.1 156.5 Q 23.0 155.3, 23.0 153.0 M 27.2 156.7 Q 28.6 156.7, 29.3 155.8 Q 30.1 154.9, 30.1 153.0 Q 30.1 151.2, 29.3 150.3 Q 28.6 149.4, 27.2 149.4 Q 25.8 149.4, 25.1 150.3 Q 24.3 151.2, 24.3 153.0 Q 24.3 154.9, 25.1 155.8 Q 25.8 156.7, 27.2 156.7 " fill="#FF0000"/>
<path class="atom-14" d="M 87.7 46.3 Q 87.7 44.1, 88.8 42.8 Q 89.9 41.6, 91.9 41.6 Q 94.0 41.6, 95.0 42.8 Q 96.1 44.1, 96.1 46.3 Q 96.1 48.5, 95.0 49.7 Q 93.9 51.0, 91.9 51.0 Q 89.9 51.0, 88.8 49.7 Q 87.7 48.5, 87.7 46.3 M 91.9 50.0 Q 93.3 50.0, 94.1 49.0 Q 94.8 48.1, 94.8 46.3 Q 94.8 44.5, 94.1 43.6 Q 93.3 42.7, 91.9 42.7 Q 90.5 42.7, 89.8 43.6 Q 89.0 44.5, 89.0 46.3 Q 89.0 48.1, 89.8 49.0 Q 90.5 50.0, 91.9 50.0 " fill="#FF0000"/>
<path class="atom-15" d="M 58.7 83.9 L 59.9 83.9 L 59.9 87.8 L 64.6 87.8 L 64.6 83.9 L 65.9 83.9 L 65.9 93.1 L 64.6 93.1 L 64.6 88.9 L 59.9 88.9 L 59.9 93.1 L 58.7 93.1 L 58.7 83.9 " fill="#FF0000"/>
<path class="atom-15" d="M 67.7 88.5 Q 67.7 86.3, 68.8 85.1 Q 69.9 83.8, 71.9 83.8 Q 73.9 83.8, 75.0 85.1 Q 76.1 86.3, 76.1 88.5 Q 76.1 90.7, 75.0 92.0 Q 73.9 93.2, 71.9 93.2 Q 69.9 93.2, 68.8 92.0 Q 67.7 90.7, 67.7 88.5 M 71.9 92.2 Q 73.3 92.2, 74.1 91.3 Q 74.8 90.3, 74.8 88.5 Q 74.8 86.7, 74.1 85.8 Q 73.3 84.9, 71.9 84.9 Q 70.5 84.9, 69.8 85.8 Q 69.0 86.7, 69.0 88.5 Q 69.0 90.3, 69.8 91.3 Q 70.5 92.2, 71.9 92.2 " fill="#FF0000"/>
<path class="atom-17" d="M 257.6 104.2 Q 257.6 102.1, 258.7 100.8 Q 259.8 99.6, 261.8 99.6 Q 263.8 99.6, 264.9 100.8 Q 266.0 102.1, 266.0 104.2 Q 266.0 106.5, 264.9 107.7 Q 263.8 109.0, 261.8 109.0 Q 259.8 109.0, 258.7 107.7 Q 257.6 106.5, 257.6 104.2 M 261.8 107.9 Q 263.2 107.9, 263.9 107.0 Q 264.7 106.1, 264.7 104.2 Q 264.7 102.5, 263.9 101.6 Q 263.2 100.6, 261.8 100.6 Q 260.4 100.6, 259.7 101.5 Q 258.9 102.4, 258.9 104.2 Q 258.9 106.1, 259.7 107.0 Q 260.4 107.9, 261.8 107.9 " fill="#FF0000"/>
<path class="atom-18" d="M 231.6 153.6 Q 231.6 151.5, 232.7 150.2 Q 233.7 149.0, 235.8 149.0 Q 237.8 149.0, 238.9 150.2 Q 240.0 151.5, 240.0 153.6 Q 240.0 155.9, 238.9 157.1 Q 237.8 158.4, 235.8 158.4 Q 233.8 158.4, 232.7 157.1 Q 231.6 155.9, 231.6 153.6 M 235.8 157.3 Q 237.2 157.3, 237.9 156.4 Q 238.7 155.5, 238.7 153.6 Q 238.7 151.9, 237.9 150.9 Q 237.2 150.0, 235.8 150.0 Q 234.4 150.0, 233.6 150.9 Q 232.9 151.8, 232.9 153.6 Q 232.9 155.5, 233.6 156.4 Q 234.4 157.3, 235.8 157.3 " fill="#FF0000"/>
<path class="atom-18" d="M 241.4 149.1 L 242.6 149.1 L 242.6 153.0 L 247.3 153.0 L 247.3 149.1 L 248.5 149.1 L 248.5 158.2 L 247.3 158.2 L 247.3 154.0 L 242.6 154.0 L 242.6 158.2 L 241.4 158.2 L 241.4 149.1 " fill="#FF0000"/>
</g>
  </g>
</svg>
