<?xml version='1.0' encoding='ASCII' standalone='yes'?>
<svg xmlns="http://www.w3.org/2000/svg" xmlns:xlink="http://www.w3.org/1999/xlink" version="1.1" width="946.0px" viewBox="0 0 946.0 200.0" height="200.0px">
  <g>
    <g transform="translate(0, 0) scale(1 1) "><!-- END OF HEADER -->
<rect style="opacity:1.0;fill:#FFFFFF;stroke:none" width="304.0" height="200.0" x="0.0" y="0.0"> </rect>
<path class="bond-0 atom-0 atom-1" d="M 199.9,26.4 L 185.2,51.0" style="fill:none;fill-rule:evenodd;stroke:#000000;stroke-width:2.0px;stroke-linecap:butt;stroke-linejoin:miter;stroke-opacity:1"/>
<path class="bond-1 atom-1 atom-2" d="M 185.2,51.0 L 156.5,50.6" style="fill:none;fill-rule:evenodd;stroke:#000000;stroke-width:2.0px;stroke-linecap:butt;stroke-linejoin:miter;stroke-opacity:1"/>
<path class="bond-2 atom-2 atom-3" d="M 156.5,50.6 L 141.7,75.2" style="fill:none;fill-rule:evenodd;stroke:#000000;stroke-width:2.0px;stroke-linecap:butt;stroke-linejoin:miter;stroke-opacity:1"/>
<path class="bond-3 atom-3 atom-4" d="M 141.7,75.2 L 113.1,74.8" style="fill:none;fill-rule:evenodd;stroke:#000000;stroke-width:2.0px;stroke-linecap:butt;stroke-linejoin:miter;stroke-opacity:1"/>
<path class="bond-4 atom-4 atom-5" d="M 113.1,74.8 L 98.3,99.4" style="fill:none;fill-rule:evenodd;stroke:#000000;stroke-width:2.0px;stroke-linecap:butt;stroke-linejoin:miter;stroke-opacity:1"/>
<path class="bond-5 atom-5 atom-6" d="M 98.3,99.4 L 103.9,109.4" style="fill:none;fill-rule:evenodd;stroke:#000000;stroke-width:2.0px;stroke-linecap:butt;stroke-linejoin:miter;stroke-opacity:1"/>
<path class="bond-5 atom-5 atom-6" d="M 103.9,109.4 L 109.5,119.4" style="fill:none;fill-rule:evenodd;stroke:#FF0000;stroke-width:2.0px;stroke-linecap:butt;stroke-linejoin:miter;stroke-opacity:1"/>
<path class="bond-6 atom-5 atom-7" d="M 98.3,99.4 L 69.6,99.0" style="fill:none;fill-rule:evenodd;stroke:#000000;stroke-width:2.0px;stroke-linecap:butt;stroke-linejoin:miter;stroke-opacity:1"/>
<path class="bond-7 atom-7 atom-8" d="M 69.6,99.0 L 70.1,70.3" style="fill:none;fill-rule:evenodd;stroke:#000000;stroke-width:2.0px;stroke-linecap:butt;stroke-linejoin:miter;stroke-opacity:1"/>
<path class="bond-8 atom-7 atom-9" d="M 69.6,99.0 L 69.2,127.7" style="fill:none;fill-rule:evenodd;stroke:#000000;stroke-width:2.0px;stroke-linecap:butt;stroke-linejoin:miter;stroke-opacity:1"/>
<path class="bond-9 atom-7 atom-10" d="M 69.6,99.0 L 40.9,98.5" style="fill:none;fill-rule:evenodd;stroke:#000000;stroke-width:2.0px;stroke-linecap:butt;stroke-linejoin:miter;stroke-opacity:1"/>
<path class="bond-10 atom-10 atom-11" d="M 39.7,96.4 L 33.5,106.7" style="fill:none;fill-rule:evenodd;stroke:#000000;stroke-width:2.0px;stroke-linecap:butt;stroke-linejoin:miter;stroke-opacity:1"/>
<path class="bond-10 atom-10 atom-11" d="M 33.5,106.7 L 27.4,117.0" style="fill:none;fill-rule:evenodd;stroke:#FF0000;stroke-width:2.0px;stroke-linecap:butt;stroke-linejoin:miter;stroke-opacity:1"/>
<path class="bond-10 atom-10 atom-11" d="M 43.4,98.6 L 37.2,108.9" style="fill:none;fill-rule:evenodd;stroke:#000000;stroke-width:2.0px;stroke-linecap:butt;stroke-linejoin:miter;stroke-opacity:1"/>
<path class="bond-10 atom-10 atom-11" d="M 37.2,108.9 L 31.1,119.2" style="fill:none;fill-rule:evenodd;stroke:#FF0000;stroke-width:2.0px;stroke-linecap:butt;stroke-linejoin:miter;stroke-opacity:1"/>
<path class="bond-11 atom-10 atom-12" d="M 40.9,98.5 L 35.4,88.6" style="fill:none;fill-rule:evenodd;stroke:#000000;stroke-width:2.0px;stroke-linecap:butt;stroke-linejoin:miter;stroke-opacity:1"/>
<path class="bond-11 atom-10 atom-12" d="M 35.4,88.6 L 29.8,78.6" style="fill:none;fill-rule:evenodd;stroke:#FF0000;stroke-width:2.0px;stroke-linecap:butt;stroke-linejoin:miter;stroke-opacity:1"/>
<path class="bond-12 atom-3 atom-13" d="M 141.7,75.2 L 155.7,100.3" style="fill:none;fill-rule:evenodd;stroke:#000000;stroke-width:2.0px;stroke-linecap:butt;stroke-linejoin:miter;stroke-opacity:1"/>
<path class="bond-13 atom-13 atom-14" d="M 154.4,102.4 L 167.1,102.6" style="fill:none;fill-rule:evenodd;stroke:#000000;stroke-width:2.0px;stroke-linecap:butt;stroke-linejoin:miter;stroke-opacity:1"/>
<path class="bond-13 atom-13 atom-14" d="M 167.1,102.6 L 179.7,102.8" style="fill:none;fill-rule:evenodd;stroke:#FF0000;stroke-width:2.0px;stroke-linecap:butt;stroke-linejoin:miter;stroke-opacity:1"/>
<path class="bond-13 atom-13 atom-14" d="M 154.5,98.1 L 167.1,98.3" style="fill:none;fill-rule:evenodd;stroke:#000000;stroke-width:2.0px;stroke-linecap:butt;stroke-linejoin:miter;stroke-opacity:1"/>
<path class="bond-13 atom-13 atom-14" d="M 167.1,98.3 L 179.8,98.5" style="fill:none;fill-rule:evenodd;stroke:#FF0000;stroke-width:2.0px;stroke-linecap:butt;stroke-linejoin:miter;stroke-opacity:1"/>
<path class="bond-14 atom-13 atom-15" d="M 155.7,100.3 L 149.9,110.1" style="fill:none;fill-rule:evenodd;stroke:#000000;stroke-width:2.0px;stroke-linecap:butt;stroke-linejoin:miter;stroke-opacity:1"/>
<path class="bond-14 atom-13 atom-15" d="M 149.9,110.1 L 144.0,119.9" style="fill:none;fill-rule:evenodd;stroke:#FF0000;stroke-width:2.0px;stroke-linecap:butt;stroke-linejoin:miter;stroke-opacity:1"/>
<path class="bond-15 atom-1 atom-16" d="M 185.2,51.0 L 199.1,76.1" style="fill:none;fill-rule:evenodd;stroke:#000000;stroke-width:2.0px;stroke-linecap:butt;stroke-linejoin:miter;stroke-opacity:1"/>
<path class="bond-16 atom-16 atom-17" d="M 199.1,76.1 L 227.8,76.6" style="fill:none;fill-rule:evenodd;stroke:#000000;stroke-width:2.0px;stroke-linecap:butt;stroke-linejoin:miter;stroke-opacity:1"/>
<path class="bond-17 atom-17 atom-18" d="M 227.8,76.6 L 233.7,66.8" style="fill:none;fill-rule:evenodd;stroke:#000000;stroke-width:2.0px;stroke-linecap:butt;stroke-linejoin:miter;stroke-opacity:1"/>
<path class="bond-17 atom-17 atom-18" d="M 233.7,66.8 L 239.5,57.1" style="fill:none;fill-rule:evenodd;stroke:#FF0000;stroke-width:2.0px;stroke-linecap:butt;stroke-linejoin:miter;stroke-opacity:1"/>
<path class="bond-18 atom-17 atom-19" d="M 227.8,76.6 L 241.8,101.6" style="fill:none;fill-rule:evenodd;stroke:#000000;stroke-width:2.0px;stroke-linecap:butt;stroke-linejoin:miter;stroke-opacity:1"/>
<path class="bond-19 atom-19 atom-20" d="M 241.8,101.6 L 216.7,115.6" style="fill:none;fill-rule:evenodd;stroke:#000000;stroke-width:2.0px;stroke-linecap:butt;stroke-linejoin:miter;stroke-opacity:1"/>
<path class="bond-20 atom-19 atom-21" d="M 241.8,101.6 L 266.9,87.7" style="fill:none;fill-rule:evenodd;stroke:#000000;stroke-width:2.0px;stroke-linecap:butt;stroke-linejoin:miter;stroke-opacity:1"/>
<path class="bond-21 atom-19 atom-22" d="M 241.8,101.6 L 255.8,126.7" style="fill:none;fill-rule:evenodd;stroke:#000000;stroke-width:2.0px;stroke-linecap:butt;stroke-linejoin:miter;stroke-opacity:1"/>
<path class="bond-22 atom-22 atom-23" d="M 254.5,128.8 L 267.1,129.0" style="fill:none;fill-rule:evenodd;stroke:#000000;stroke-width:2.0px;stroke-linecap:butt;stroke-linejoin:miter;stroke-opacity:1"/>
<path class="bond-22 atom-22 atom-23" d="M 267.1,129.0 L 279.8,129.2" style="fill:none;fill-rule:evenodd;stroke:#FF0000;stroke-width:2.0px;stroke-linecap:butt;stroke-linejoin:miter;stroke-opacity:1"/>
<path class="bond-22 atom-22 atom-23" d="M 254.6,124.5 L 267.2,124.7" style="fill:none;fill-rule:evenodd;stroke:#000000;stroke-width:2.0px;stroke-linecap:butt;stroke-linejoin:miter;stroke-opacity:1"/>
<path class="bond-22 atom-22 atom-23" d="M 267.2,124.7 L 279.8,124.9" style="fill:none;fill-rule:evenodd;stroke:#FF0000;stroke-width:2.0px;stroke-linecap:butt;stroke-linejoin:miter;stroke-opacity:1"/>
<path class="bond-23 atom-22 atom-24" d="M 255.8,126.7 L 249.9,136.5" style="fill:none;fill-rule:evenodd;stroke:#000000;stroke-width:2.0px;stroke-linecap:butt;stroke-linejoin:miter;stroke-opacity:1"/>
<path class="bond-23 atom-22 atom-24" d="M 249.9,136.5 L 244.1,146.3" style="fill:none;fill-rule:evenodd;stroke:#FF0000;stroke-width:2.0px;stroke-linecap:butt;stroke-linejoin:miter;stroke-opacity:1"/>
<path d="M 157.9,50.6 L 156.5,50.6 L 155.7,51.8" style="fill:none;stroke:#000000;stroke-width:2.0px;stroke-linecap:butt;stroke-linejoin:miter;stroke-opacity:1;"/>
<path d="M 114.5,74.8 L 113.1,74.8 L 112.3,76.0" style="fill:none;stroke:#000000;stroke-width:2.0px;stroke-linecap:butt;stroke-linejoin:miter;stroke-opacity:1;"/>
<path d="M 42.4,98.6 L 40.9,98.5 L 40.6,98.0" style="fill:none;stroke:#000000;stroke-width:2.0px;stroke-linecap:butt;stroke-linejoin:miter;stroke-opacity:1;"/>
<path d="M 155.0,99.1 L 155.7,100.3 L 155.4,100.8" style="fill:none;stroke:#000000;stroke-width:2.0px;stroke-linecap:butt;stroke-linejoin:miter;stroke-opacity:1;"/>
<path d="M 198.4,74.9 L 199.1,76.1 L 200.6,76.1" style="fill:none;stroke:#000000;stroke-width:2.0px;stroke-linecap:butt;stroke-linejoin:miter;stroke-opacity:1;"/>
<path d="M 255.1,125.5 L 255.8,126.7 L 255.5,127.2" style="fill:none;stroke:#000000;stroke-width:2.0px;stroke-linecap:butt;stroke-linejoin:miter;stroke-opacity:1;"/>
<path class="atom-6" d="M 108.6 124.5 Q 108.6 122.6, 109.5 121.5 Q 110.5 120.4, 112.3 120.4 Q 114.1 120.4, 115.0 121.5 Q 116.0 122.6, 116.0 124.5 Q 116.0 126.5, 115.0 127.6 Q 114.1 128.7, 112.3 128.7 Q 110.5 128.7, 109.5 127.6 Q 108.6 126.5, 108.6 124.5 M 112.3 127.8 Q 113.5 127.8, 114.2 127.0 Q 114.9 126.1, 114.9 124.5 Q 114.9 122.9, 114.2 122.1 Q 113.5 121.3, 112.3 121.3 Q 111.0 121.3, 110.4 122.1 Q 109.7 122.9, 109.7 124.5 Q 109.7 126.2, 110.4 127.0 Q 111.0 127.8, 112.3 127.8 " fill="#FF0000"/>
<path class="atom-6" d="M 117.3 120.5 L 118.4 120.5 L 118.4 123.9 L 122.5 123.9 L 122.5 120.5 L 123.6 120.5 L 123.6 128.6 L 122.5 128.6 L 122.5 124.9 L 118.4 124.9 L 118.4 128.6 L 117.3 128.6 L 117.3 120.5 " fill="#FF0000"/>
<path class="atom-11" d="M 22.5 123.2 Q 22.5 121.2, 23.4 120.1 Q 24.4 119.1, 26.2 119.1 Q 28.0 119.1, 29.0 120.1 Q 29.9 121.2, 29.9 123.2 Q 29.9 125.2, 28.9 126.3 Q 28.0 127.4, 26.2 127.4 Q 24.4 127.4, 23.4 126.3 Q 22.5 125.2, 22.5 123.2 M 26.2 126.5 Q 27.4 126.5, 28.1 125.7 Q 28.8 124.8, 28.8 123.2 Q 28.8 121.6, 28.1 120.8 Q 27.4 120.0, 26.2 120.0 Q 24.9 120.0, 24.3 120.8 Q 23.6 121.6, 23.6 123.2 Q 23.6 124.8, 24.3 125.7 Q 24.9 126.5, 26.2 126.5 " fill="#FF0000"/>
<path class="atom-12" d="M 15.2 69.4 L 16.3 69.4 L 16.3 72.9 L 20.5 72.9 L 20.5 69.4 L 21.6 69.4 L 21.6 77.6 L 20.5 77.6 L 20.5 73.8 L 16.3 73.8 L 16.3 77.6 L 15.2 77.6 L 15.2 69.4 " fill="#FF0000"/>
<path class="atom-12" d="M 23.2 73.5 Q 23.2 71.5, 24.2 70.4 Q 25.2 69.3, 27.0 69.3 Q 28.8 69.3, 29.7 70.4 Q 30.7 71.5, 30.7 73.5 Q 30.7 75.5, 29.7 76.6 Q 28.7 77.7, 27.0 77.7 Q 25.2 77.7, 24.2 76.6 Q 23.2 75.5, 23.2 73.5 M 27.0 76.8 Q 28.2 76.8, 28.9 76.0 Q 29.5 75.1, 29.5 73.5 Q 29.5 71.9, 28.9 71.1 Q 28.2 70.3, 27.0 70.3 Q 25.7 70.3, 25.0 71.1 Q 24.4 71.9, 24.4 73.5 Q 24.4 75.1, 25.0 76.0 Q 25.7 76.8, 27.0 76.8 " fill="#FF0000"/>
<path class="atom-14" d="M 180.7 100.8 Q 180.7 98.8, 181.6 97.7 Q 182.6 96.6, 184.4 96.6 Q 186.2 96.6, 187.2 97.7 Q 188.1 98.8, 188.1 100.8 Q 188.1 102.8, 187.2 103.9 Q 186.2 105.0, 184.4 105.0 Q 182.6 105.0, 181.6 103.9 Q 180.7 102.8, 180.7 100.8 M 184.4 104.1 Q 185.7 104.1, 186.3 103.2 Q 187.0 102.4, 187.0 100.8 Q 187.0 99.2, 186.3 98.4 Q 185.7 97.6, 184.4 97.6 Q 183.2 97.6, 182.5 98.4 Q 181.8 99.2, 181.8 100.8 Q 181.8 102.4, 182.5 103.2 Q 183.2 104.1, 184.4 104.1 " fill="#FF0000"/>
<path class="atom-15" d="M 129.2 120.9 L 130.3 120.9 L 130.3 124.4 L 134.5 124.4 L 134.5 120.9 L 135.6 120.9 L 135.6 129.1 L 134.5 129.1 L 134.5 125.3 L 130.3 125.3 L 130.3 129.1 L 129.2 129.1 L 129.2 120.9 " fill="#FF0000"/>
<path class="atom-15" d="M 137.2 125.0 Q 137.2 123.0, 138.2 121.9 Q 139.2 120.8, 141.0 120.8 Q 142.8 120.8, 143.7 121.9 Q 144.7 123.0, 144.7 125.0 Q 144.7 126.9, 143.7 128.1 Q 142.8 129.2, 141.0 129.2 Q 139.2 129.2, 138.2 128.1 Q 137.2 126.9, 137.2 125.0 M 141.0 128.3 Q 142.2 128.3, 142.9 127.4 Q 143.6 126.6, 143.6 125.0 Q 143.6 123.4, 142.9 122.6 Q 142.2 121.7, 141.0 121.7 Q 139.7 121.7, 139.1 122.6 Q 138.4 123.4, 138.4 125.0 Q 138.4 126.6, 139.1 127.4 Q 139.7 128.3, 141.0 128.3 " fill="#FF0000"/>
<path class="atom-18" d="M 238.8 52.0 Q 238.8 50.0, 239.8 48.9 Q 240.8 47.8, 242.6 47.8 Q 244.4 47.8, 245.3 48.9 Q 246.3 50.0, 246.3 52.0 Q 246.3 53.9, 245.3 55.1 Q 244.4 56.2, 242.6 56.2 Q 240.8 56.2, 239.8 55.1 Q 238.8 53.9, 238.8 52.0 M 242.6 55.3 Q 243.8 55.3, 244.5 54.4 Q 245.2 53.6, 245.2 52.0 Q 245.2 50.4, 244.5 49.6 Q 243.8 48.7, 242.6 48.7 Q 241.3 48.7, 240.7 49.5 Q 240.0 50.4, 240.0 52.0 Q 240.0 53.6, 240.7 54.4 Q 241.3 55.3, 242.6 55.3 " fill="#FF0000"/>
<path class="atom-18" d="M 247.6 47.9 L 248.7 47.9 L 248.7 51.4 L 252.8 51.4 L 252.8 47.9 L 253.9 47.9 L 253.9 56.0 L 252.8 56.0 L 252.8 52.3 L 248.7 52.3 L 248.7 56.0 L 247.6 56.0 L 247.6 47.9 " fill="#FF0000"/>
<path class="atom-23" d="M 280.7 127.2 Q 280.7 125.2, 281.7 124.1 Q 282.7 123.1, 284.5 123.1 Q 286.3 123.1, 287.2 124.1 Q 288.2 125.2, 288.2 127.2 Q 288.2 129.2, 287.2 130.3 Q 286.2 131.4, 284.5 131.4 Q 282.7 131.4, 281.7 130.3 Q 280.7 129.2, 280.7 127.2 M 284.5 130.5 Q 285.7 130.5, 286.4 129.7 Q 287.1 128.8, 287.1 127.2 Q 287.1 125.6, 286.4 124.8 Q 285.7 124.0, 284.5 124.0 Q 283.2 124.0, 282.6 124.8 Q 281.9 125.6, 281.9 127.2 Q 281.9 128.8, 282.6 129.7 Q 283.2 130.5, 284.5 130.5 " fill="#FF0000"/>
<path class="atom-24" d="M 229.3 147.3 L 230.4 147.3 L 230.4 150.8 L 234.5 150.8 L 234.5 147.3 L 235.6 147.3 L 235.6 155.5 L 234.5 155.5 L 234.5 151.7 L 230.4 151.7 L 230.4 155.5 L 229.3 155.5 L 229.3 147.3 " fill="#FF0000"/>
<path class="atom-24" d="M 237.3 151.4 Q 237.3 149.4, 238.3 148.3 Q 239.2 147.2, 241.0 147.2 Q 242.8 147.2, 243.8 148.3 Q 244.8 149.4, 244.8 151.4 Q 244.8 153.3, 243.8 154.5 Q 242.8 155.6, 241.0 155.6 Q 239.2 155.6, 238.3 154.5 Q 237.3 153.4, 237.3 151.4 M 241.0 154.7 Q 242.3 154.7, 242.9 153.8 Q 243.6 153.0, 243.6 151.4 Q 243.6 149.8, 242.9 149.0 Q 242.3 148.2, 241.0 148.2 Q 239.8 148.2, 239.1 149.0 Q 238.5 149.8, 238.5 151.4 Q 238.5 153.0, 239.1 153.8 Q 239.8 154.7, 241.0 154.7 " fill="#FF0000"/>
<path class="legend" d="M 142.7 181.9 Q 142.7 179.6, 143.4 177.7 Q 144.0 175.8, 145.3 173.8 L 146.2 174.4 Q 145.2 176.3, 144.6 178.0 Q 144.1 179.7, 144.1 181.9 Q 144.1 184.0, 144.6 185.8 Q 145.2 187.5, 146.2 189.4 L 145.3 190.0 Q 144.0 188.0, 143.4 186.1 Q 142.7 184.2, 142.7 181.9 " fill="#000000"/>
<path class="legend" d="M 147.1 177.3 Q 147.6 176.2, 148.5 175.6 Q 149.5 175.0, 150.9 175.0 Q 152.6 175.0, 153.6 175.9 Q 154.5 176.8, 154.5 178.5 Q 154.5 180.2, 153.3 181.7 Q 152.1 183.3, 149.5 185.2 L 154.7 185.2 L 154.7 186.4 L 147.1 186.4 L 147.1 185.4 Q 149.2 183.9, 150.5 182.8 Q 151.7 181.6, 152.3 180.6 Q 152.9 179.6, 152.9 178.6 Q 152.9 177.5, 152.4 176.9 Q 151.9 176.3, 150.9 176.3 Q 150.0 176.3, 149.4 176.6 Q 148.8 177.0, 148.4 177.8 L 147.1 177.3 " fill="#000000"/>
<path class="legend" d="M 159.7 181.9 Q 159.7 184.2, 159.0 186.1 Q 158.4 188.0, 157.1 190.0 L 156.2 189.4 Q 157.2 187.5, 157.7 185.8 Q 158.3 184.0, 158.3 181.9 Q 158.3 179.7, 157.7 178.0 Q 157.2 176.3, 156.2 174.4 L 157.1 173.8 Q 158.4 175.8, 159.0 177.7 Q 159.7 179.6, 159.7 181.9 " fill="#000000"/>
</g>
    <g transform="translate(304.0, 0) scale(1 1) "><line x1="5" y1="100" x2="35" y2="100" style="stroke:rgb(0,0,0);stroke-width:2"/>
  <line x1="34" y1="100" x2="29" y2="95" style="stroke:rgb(0,0,0);stroke-width:2"/>
  <line x1="34" y1="100" x2="29" y2="105" style="stroke:rgb(0,0,0);stroke-width:2"/>
</g>
    <g transform="translate(344.0, 0) scale(1 1) "><!-- END OF HEADER -->
<rect style="opacity:1.0;fill:#FFFFFF;stroke:none" width="347.0" height="200.0" x="0.0" y="0.0"> </rect>
<path class="bond-0 atom-0 atom-1" d="M 77.2,132.6 L 98.6,120.8" style="fill:none;fill-rule:evenodd;stroke:#000000;stroke-width:2.0px;stroke-linecap:butt;stroke-linejoin:miter;stroke-opacity:1"/>
<path class="bond-1 atom-1 atom-2" d="M 98.6,120.8 L 119.6,133.4" style="fill:none;fill-rule:evenodd;stroke:#000000;stroke-width:2.0px;stroke-linecap:butt;stroke-linejoin:miter;stroke-opacity:1"/>
<path class="bond-2 atom-2 atom-3" d="M 119.6,133.4 L 141.1,121.6" style="fill:none;fill-rule:evenodd;stroke:#000000;stroke-width:2.0px;stroke-linecap:butt;stroke-linejoin:miter;stroke-opacity:1"/>
<path class="bond-3 atom-3 atom-4" d="M 141.1,121.6 L 162.0,134.3" style="fill:none;fill-rule:evenodd;stroke:#000000;stroke-width:2.0px;stroke-linecap:butt;stroke-linejoin:miter;stroke-opacity:1"/>
<path class="bond-4 atom-4 atom-5" d="M 162.0,134.3 L 183.5,122.5" style="fill:none;fill-rule:evenodd;stroke:#000000;stroke-width:2.0px;stroke-linecap:butt;stroke-linejoin:miter;stroke-opacity:1"/>
<path class="bond-5 atom-5 atom-6" d="M 183.5,122.5 L 178.8,114.0" style="fill:none;fill-rule:evenodd;stroke:#000000;stroke-width:2.0px;stroke-linecap:butt;stroke-linejoin:miter;stroke-opacity:1"/>
<path class="bond-5 atom-5 atom-6" d="M 178.8,114.0 L 174.1,105.4" style="fill:none;fill-rule:evenodd;stroke:#FF0000;stroke-width:2.0px;stroke-linecap:butt;stroke-linejoin:miter;stroke-opacity:1"/>
<path class="bond-6 atom-5 atom-7" d="M 183.5,122.5 L 205.0,110.7" style="fill:none;fill-rule:evenodd;stroke:#000000;stroke-width:2.0px;stroke-linecap:butt;stroke-linejoin:miter;stroke-opacity:1"/>
<path class="bond-7 atom-7 atom-8" d="M 205.0,110.7 L 226.0,123.3" style="fill:none;fill-rule:evenodd;stroke:#000000;stroke-width:2.0px;stroke-linecap:butt;stroke-linejoin:miter;stroke-opacity:1"/>
<path class="bond-8 atom-8 atom-9" d="M 226.0,123.3 L 247.4,111.5" style="fill:none;fill-rule:evenodd;stroke:#000000;stroke-width:2.0px;stroke-linecap:butt;stroke-linejoin:miter;stroke-opacity:1"/>
<path class="bond-9 atom-9 atom-10" d="M 247.4,111.5 L 268.4,124.2" style="fill:none;fill-rule:evenodd;stroke:#000000;stroke-width:2.0px;stroke-linecap:butt;stroke-linejoin:miter;stroke-opacity:1"/>
<path class="bond-10 atom-9 atom-11" d="M 247.4,111.5 L 247.9,87.0" style="fill:none;fill-rule:evenodd;stroke:#000000;stroke-width:2.0px;stroke-linecap:butt;stroke-linejoin:miter;stroke-opacity:1"/>
<path class="bond-11 atom-11 atom-12" d="M 247.9,87.0 L 269.4,75.2" style="fill:none;fill-rule:evenodd;stroke:#000000;stroke-width:2.0px;stroke-linecap:butt;stroke-linejoin:miter;stroke-opacity:1"/>
<path class="bond-12 atom-12 atom-13" d="M 269.4,75.2 L 277.9,80.3" style="fill:none;fill-rule:evenodd;stroke:#000000;stroke-width:2.0px;stroke-linecap:butt;stroke-linejoin:miter;stroke-opacity:1"/>
<path class="bond-12 atom-12 atom-13" d="M 277.9,80.3 L 286.4,85.5" style="fill:none;fill-rule:evenodd;stroke:#FF0000;stroke-width:2.0px;stroke-linecap:butt;stroke-linejoin:miter;stroke-opacity:1"/>
<path class="bond-13 atom-12 atom-14" d="M 269.4,75.2 L 269.9,50.7" style="fill:none;fill-rule:evenodd;stroke:#000000;stroke-width:2.0px;stroke-linecap:butt;stroke-linejoin:miter;stroke-opacity:1"/>
<path class="bond-14 atom-14 atom-15" d="M 269.9,50.7 L 245.4,50.2" style="fill:none;fill-rule:evenodd;stroke:#000000;stroke-width:2.0px;stroke-linecap:butt;stroke-linejoin:miter;stroke-opacity:1"/>
<path class="bond-15 atom-14 atom-16" d="M 269.9,50.7 L 294.4,51.2" style="fill:none;fill-rule:evenodd;stroke:#000000;stroke-width:2.0px;stroke-linecap:butt;stroke-linejoin:miter;stroke-opacity:1"/>
<path class="bond-16 atom-14 atom-17" d="M 269.9,50.7 L 270.4,26.2" style="fill:none;fill-rule:evenodd;stroke:#000000;stroke-width:2.0px;stroke-linecap:butt;stroke-linejoin:miter;stroke-opacity:1"/>
<path class="bond-17 atom-17 atom-18" d="M 270.3,28.3 L 279.5,23.2" style="fill:none;fill-rule:evenodd;stroke:#000000;stroke-width:2.0px;stroke-linecap:butt;stroke-linejoin:miter;stroke-opacity:1"/>
<path class="bond-17 atom-17 atom-18" d="M 279.5,23.2 L 288.7,18.2" style="fill:none;fill-rule:evenodd;stroke:#FF0000;stroke-width:2.0px;stroke-linecap:butt;stroke-linejoin:miter;stroke-opacity:1"/>
<path class="bond-17 atom-17 atom-18" d="M 268.5,25.1 L 277.7,20.0" style="fill:none;fill-rule:evenodd;stroke:#000000;stroke-width:2.0px;stroke-linecap:butt;stroke-linejoin:miter;stroke-opacity:1"/>
<path class="bond-17 atom-17 atom-18" d="M 277.7,20.0 L 286.9,15.0" style="fill:none;fill-rule:evenodd;stroke:#FF0000;stroke-width:2.0px;stroke-linecap:butt;stroke-linejoin:miter;stroke-opacity:1"/>
<path class="bond-18 atom-17 atom-19" d="M 270.4,26.2 L 261.9,21.1" style="fill:none;fill-rule:evenodd;stroke:#000000;stroke-width:2.0px;stroke-linecap:butt;stroke-linejoin:miter;stroke-opacity:1"/>
<path class="bond-18 atom-17 atom-19" d="M 261.9,21.1 L 253.4,15.9" style="fill:none;fill-rule:evenodd;stroke:#FF0000;stroke-width:2.0px;stroke-linecap:butt;stroke-linejoin:miter;stroke-opacity:1"/>
<path class="bond-19 atom-7 atom-20" d="M 205.0,110.7 L 205.5,86.2" style="fill:none;fill-rule:evenodd;stroke:#000000;stroke-width:2.0px;stroke-linecap:butt;stroke-linejoin:miter;stroke-opacity:1"/>
<path class="bond-20 atom-20 atom-21" d="M 207.3,85.1 L 198.4,79.7" style="fill:none;fill-rule:evenodd;stroke:#000000;stroke-width:2.0px;stroke-linecap:butt;stroke-linejoin:miter;stroke-opacity:1"/>
<path class="bond-20 atom-20 atom-21" d="M 198.4,79.7 L 189.4,74.3" style="fill:none;fill-rule:evenodd;stroke:#FF0000;stroke-width:2.0px;stroke-linecap:butt;stroke-linejoin:miter;stroke-opacity:1"/>
<path class="bond-20 atom-20 atom-21" d="M 205.4,88.3 L 196.5,82.9" style="fill:none;fill-rule:evenodd;stroke:#000000;stroke-width:2.0px;stroke-linecap:butt;stroke-linejoin:miter;stroke-opacity:1"/>
<path class="bond-20 atom-20 atom-21" d="M 196.5,82.9 L 187.5,77.5" style="fill:none;fill-rule:evenodd;stroke:#FF0000;stroke-width:2.0px;stroke-linecap:butt;stroke-linejoin:miter;stroke-opacity:1"/>
<path class="bond-21 atom-20 atom-22" d="M 205.5,86.2 L 214.2,81.3" style="fill:none;fill-rule:evenodd;stroke:#000000;stroke-width:2.0px;stroke-linecap:butt;stroke-linejoin:miter;stroke-opacity:1"/>
<path class="bond-21 atom-20 atom-22" d="M 214.2,81.3 L 222.9,76.5" style="fill:none;fill-rule:evenodd;stroke:#FF0000;stroke-width:2.0px;stroke-linecap:butt;stroke-linejoin:miter;stroke-opacity:1"/>
<path class="bond-22 atom-5 atom-23" d="M 183.5,122.5 L 195.3,143.9" style="fill:none;fill-rule:evenodd;stroke:#000000;stroke-width:2.0px;stroke-linecap:butt;stroke-linejoin:miter;stroke-opacity:1"/>
<path class="bond-23 atom-23 atom-24" d="M 195.3,143.9 L 173.9,155.8" style="fill:none;fill-rule:evenodd;stroke:#000000;stroke-width:2.0px;stroke-linecap:butt;stroke-linejoin:miter;stroke-opacity:1"/>
<path class="bond-24 atom-23 atom-25" d="M 195.3,143.9 L 216.8,132.1" style="fill:none;fill-rule:evenodd;stroke:#000000;stroke-width:2.0px;stroke-linecap:butt;stroke-linejoin:miter;stroke-opacity:1"/>
<path class="bond-25 atom-23 atom-26" d="M 195.3,143.9 L 207.2,165.4" style="fill:none;fill-rule:evenodd;stroke:#000000;stroke-width:2.0px;stroke-linecap:butt;stroke-linejoin:miter;stroke-opacity:1"/>
<path class="bond-26 atom-26 atom-27" d="M 206.1,167.2 L 216.8,167.4" style="fill:none;fill-rule:evenodd;stroke:#000000;stroke-width:2.0px;stroke-linecap:butt;stroke-linejoin:miter;stroke-opacity:1"/>
<path class="bond-26 atom-26 atom-27" d="M 216.8,167.4 L 227.6,167.7" style="fill:none;fill-rule:evenodd;stroke:#FF0000;stroke-width:2.0px;stroke-linecap:butt;stroke-linejoin:miter;stroke-opacity:1"/>
<path class="bond-26 atom-26 atom-27" d="M 206.1,163.6 L 216.9,163.8" style="fill:none;fill-rule:evenodd;stroke:#000000;stroke-width:2.0px;stroke-linecap:butt;stroke-linejoin:miter;stroke-opacity:1"/>
<path class="bond-26 atom-26 atom-27" d="M 216.9,163.8 L 227.7,164.0" style="fill:none;fill-rule:evenodd;stroke:#FF0000;stroke-width:2.0px;stroke-linecap:butt;stroke-linejoin:miter;stroke-opacity:1"/>
<path class="bond-27 atom-26 atom-28" d="M 207.2,165.4 L 202.1,173.7" style="fill:none;fill-rule:evenodd;stroke:#000000;stroke-width:2.0px;stroke-linecap:butt;stroke-linejoin:miter;stroke-opacity:1"/>
<path class="bond-27 atom-26 atom-28" d="M 202.1,173.7 L 197.1,182.1" style="fill:none;fill-rule:evenodd;stroke:#FF0000;stroke-width:2.0px;stroke-linecap:butt;stroke-linejoin:miter;stroke-opacity:1"/>
<path class="bond-28 atom-3 atom-29" d="M 141.1,121.6 L 141.6,97.1" style="fill:none;fill-rule:evenodd;stroke:#000000;stroke-width:2.0px;stroke-linecap:butt;stroke-linejoin:miter;stroke-opacity:1"/>
<path class="bond-29 atom-29 atom-30" d="M 143.4,96.1 L 134.5,90.7" style="fill:none;fill-rule:evenodd;stroke:#000000;stroke-width:2.0px;stroke-linecap:butt;stroke-linejoin:miter;stroke-opacity:1"/>
<path class="bond-29 atom-29 atom-30" d="M 134.5,90.7 L 125.5,85.3" style="fill:none;fill-rule:evenodd;stroke:#FF0000;stroke-width:2.0px;stroke-linecap:butt;stroke-linejoin:miter;stroke-opacity:1"/>
<path class="bond-29 atom-29 atom-30" d="M 141.5,99.2 L 132.6,93.8" style="fill:none;fill-rule:evenodd;stroke:#000000;stroke-width:2.0px;stroke-linecap:butt;stroke-linejoin:miter;stroke-opacity:1"/>
<path class="bond-29 atom-29 atom-30" d="M 132.6,93.8 L 123.6,88.4" style="fill:none;fill-rule:evenodd;stroke:#FF0000;stroke-width:2.0px;stroke-linecap:butt;stroke-linejoin:miter;stroke-opacity:1"/>
<path class="bond-30 atom-29 atom-31" d="M 141.6,97.1 L 150.3,92.3" style="fill:none;fill-rule:evenodd;stroke:#000000;stroke-width:2.0px;stroke-linecap:butt;stroke-linejoin:miter;stroke-opacity:1"/>
<path class="bond-30 atom-29 atom-31" d="M 150.3,92.3 L 159.0,87.5" style="fill:none;fill-rule:evenodd;stroke:#FF0000;stroke-width:2.0px;stroke-linecap:butt;stroke-linejoin:miter;stroke-opacity:1"/>
<path class="bond-31 atom-1 atom-32" d="M 98.6,120.8 L 99.1,96.3" style="fill:none;fill-rule:evenodd;stroke:#000000;stroke-width:2.0px;stroke-linecap:butt;stroke-linejoin:miter;stroke-opacity:1"/>
<path class="bond-32 atom-32 atom-33" d="M 99.1,96.3 L 78.2,83.6" style="fill:none;fill-rule:evenodd;stroke:#000000;stroke-width:2.0px;stroke-linecap:butt;stroke-linejoin:miter;stroke-opacity:1"/>
<path class="bond-33 atom-33 atom-34" d="M 78.2,83.6 L 69.4,88.4" style="fill:none;fill-rule:evenodd;stroke:#000000;stroke-width:2.0px;stroke-linecap:butt;stroke-linejoin:miter;stroke-opacity:1"/>
<path class="bond-33 atom-33 atom-34" d="M 69.4,88.4 L 60.7,93.2" style="fill:none;fill-rule:evenodd;stroke:#FF0000;stroke-width:2.0px;stroke-linecap:butt;stroke-linejoin:miter;stroke-opacity:1"/>
<path class="bond-34 atom-33 atom-35" d="M 78.2,83.6 L 78.7,59.1" style="fill:none;fill-rule:evenodd;stroke:#000000;stroke-width:2.0px;stroke-linecap:butt;stroke-linejoin:miter;stroke-opacity:1"/>
<path class="bond-35 atom-35 atom-36" d="M 78.7,59.1 L 103.2,59.6" style="fill:none;fill-rule:evenodd;stroke:#000000;stroke-width:2.0px;stroke-linecap:butt;stroke-linejoin:miter;stroke-opacity:1"/>
<path class="bond-36 atom-35 atom-37" d="M 78.7,59.1 L 54.2,58.6" style="fill:none;fill-rule:evenodd;stroke:#000000;stroke-width:2.0px;stroke-linecap:butt;stroke-linejoin:miter;stroke-opacity:1"/>
<path class="bond-37 atom-35 atom-38" d="M 78.7,59.1 L 79.2,34.6" style="fill:none;fill-rule:evenodd;stroke:#000000;stroke-width:2.0px;stroke-linecap:butt;stroke-linejoin:miter;stroke-opacity:1"/>
<path class="bond-38 atom-38 atom-39" d="M 81.0,33.6 L 72.1,28.2" style="fill:none;fill-rule:evenodd;stroke:#000000;stroke-width:2.0px;stroke-linecap:butt;stroke-linejoin:miter;stroke-opacity:1"/>
<path class="bond-38 atom-38 atom-39" d="M 72.1,28.2 L 63.1,22.7" style="fill:none;fill-rule:evenodd;stroke:#FF0000;stroke-width:2.0px;stroke-linecap:butt;stroke-linejoin:miter;stroke-opacity:1"/>
<path class="bond-38 atom-38 atom-39" d="M 79.1,36.7 L 70.2,31.3" style="fill:none;fill-rule:evenodd;stroke:#000000;stroke-width:2.0px;stroke-linecap:butt;stroke-linejoin:miter;stroke-opacity:1"/>
<path class="bond-38 atom-38 atom-39" d="M 70.2,31.3 L 61.2,25.9" style="fill:none;fill-rule:evenodd;stroke:#FF0000;stroke-width:2.0px;stroke-linecap:butt;stroke-linejoin:miter;stroke-opacity:1"/>
<path class="bond-39 atom-38 atom-40" d="M 79.2,34.6 L 87.9,29.8" style="fill:none;fill-rule:evenodd;stroke:#000000;stroke-width:2.0px;stroke-linecap:butt;stroke-linejoin:miter;stroke-opacity:1"/>
<path class="bond-39 atom-38 atom-40" d="M 87.9,29.8 L 96.6,25.0" style="fill:none;fill-rule:evenodd;stroke:#FF0000;stroke-width:2.0px;stroke-linecap:butt;stroke-linejoin:miter;stroke-opacity:1"/>
<path d="M 118.6,132.8 L 119.6,133.4 L 120.7,132.9" style="fill:none;stroke:#000000;stroke-width:2.0px;stroke-linecap:butt;stroke-linejoin:miter;stroke-opacity:1;"/>
<path d="M 161.0,133.7 L 162.0,134.3 L 163.1,133.7" style="fill:none;stroke:#000000;stroke-width:2.0px;stroke-linecap:butt;stroke-linejoin:miter;stroke-opacity:1;"/>
<path d="M 224.9,122.7 L 226.0,123.3 L 227.0,122.7" style="fill:none;stroke:#000000;stroke-width:2.0px;stroke-linecap:butt;stroke-linejoin:miter;stroke-opacity:1;"/>
<path d="M 247.9,88.2 L 247.9,87.0 L 249.0,86.4" style="fill:none;stroke:#000000;stroke-width:2.0px;stroke-linecap:butt;stroke-linejoin:miter;stroke-opacity:1;"/>
<path d="M 270.3,27.4 L 270.4,26.2 L 269.9,25.9" style="fill:none;stroke:#000000;stroke-width:2.0px;stroke-linecap:butt;stroke-linejoin:miter;stroke-opacity:1;"/>
<path d="M 205.4,87.4 L 205.5,86.2 L 205.9,85.9" style="fill:none;stroke:#000000;stroke-width:2.0px;stroke-linecap:butt;stroke-linejoin:miter;stroke-opacity:1;"/>
<path d="M 206.6,164.3 L 207.2,165.4 L 206.9,165.8" style="fill:none;stroke:#000000;stroke-width:2.0px;stroke-linecap:butt;stroke-linejoin:miter;stroke-opacity:1;"/>
<path d="M 141.5,98.3 L 141.6,97.1 L 142.0,96.9" style="fill:none;stroke:#000000;stroke-width:2.0px;stroke-linecap:butt;stroke-linejoin:miter;stroke-opacity:1;"/>
<path d="M 99.1,97.5 L 99.1,96.3 L 98.1,95.6" style="fill:none;stroke:#000000;stroke-width:2.0px;stroke-linecap:butt;stroke-linejoin:miter;stroke-opacity:1;"/>
<path d="M 79.1,35.8 L 79.2,34.6 L 79.6,34.3" style="fill:none;stroke:#000000;stroke-width:2.0px;stroke-linecap:butt;stroke-linejoin:miter;stroke-opacity:1;"/>
<path class="atom-6" d="M 161.7 97.6 L 162.6 97.6 L 162.6 100.5 L 166.1 100.5 L 166.1 97.6 L 167.1 97.6 L 167.1 104.5 L 166.1 104.5 L 166.1 101.3 L 162.6 101.3 L 162.6 104.5 L 161.7 104.5 L 161.7 97.6 " fill="#FF0000"/>
<path class="atom-6" d="M 168.5 101.0 Q 168.5 99.4, 169.3 98.4 Q 170.2 97.5, 171.7 97.5 Q 173.2 97.5, 174.1 98.4 Q 174.9 99.4, 174.9 101.0 Q 174.9 102.7, 174.0 103.7 Q 173.2 104.6, 171.7 104.6 Q 170.2 104.6, 169.3 103.7 Q 168.5 102.7, 168.5 101.0 M 171.7 103.8 Q 172.7 103.8, 173.3 103.1 Q 173.9 102.4, 173.9 101.0 Q 173.9 99.7, 173.3 99.0 Q 172.7 98.3, 171.7 98.3 Q 170.6 98.3, 170.1 99.0 Q 169.5 99.7, 169.5 101.0 Q 169.5 102.4, 170.1 103.1 Q 170.6 103.8, 171.7 103.8 " fill="#FF0000"/>
<path class="atom-13" d="M 287.2 87.9 Q 287.2 86.2, 288.0 85.3 Q 288.8 84.4, 290.3 84.4 Q 291.9 84.4, 292.7 85.3 Q 293.5 86.2, 293.5 87.9 Q 293.5 89.6, 292.7 90.5 Q 291.9 91.5, 290.3 91.5 Q 288.8 91.5, 288.0 90.5 Q 287.2 89.6, 287.2 87.9 M 290.3 90.7 Q 291.4 90.7, 292.0 90.0 Q 292.6 89.3, 292.6 87.9 Q 292.6 86.5, 292.0 85.8 Q 291.4 85.1, 290.3 85.1 Q 289.3 85.1, 288.7 85.8 Q 288.1 86.5, 288.1 87.9 Q 288.1 89.3, 288.7 90.0 Q 289.3 90.7, 290.3 90.7 " fill="#FF0000"/>
<path class="atom-13" d="M 294.6 84.4 L 295.6 84.4 L 295.6 87.4 L 299.1 87.4 L 299.1 84.4 L 300.0 84.4 L 300.0 91.4 L 299.1 91.4 L 299.1 88.2 L 295.6 88.2 L 295.6 91.4 L 294.6 91.4 L 294.6 84.4 " fill="#FF0000"/>
<path class="atom-18" d="M 288.6 14.4 Q 288.6 12.7, 289.5 11.8 Q 290.3 10.9, 291.8 10.9 Q 293.4 10.9, 294.2 11.8 Q 295.0 12.7, 295.0 14.4 Q 295.0 16.1, 294.2 17.0 Q 293.4 18.0, 291.8 18.0 Q 290.3 18.0, 289.5 17.0 Q 288.6 16.1, 288.6 14.4 M 291.8 17.2 Q 292.9 17.2, 293.5 16.5 Q 294.0 15.8, 294.0 14.4 Q 294.0 13.0, 293.5 12.3 Q 292.9 11.6, 291.8 11.6 Q 290.8 11.6, 290.2 12.3 Q 289.6 13.0, 289.6 14.4 Q 289.6 15.8, 290.2 16.5 Q 290.8 17.2, 291.8 17.2 " fill="#FF0000"/>
<path class="atom-19" d="M 239.4 10.1 L 240.3 10.1 L 240.3 13.0 L 243.8 13.0 L 243.8 10.1 L 244.8 10.1 L 244.8 17.0 L 243.8 17.0 L 243.8 13.8 L 240.3 13.8 L 240.3 17.0 L 239.4 17.0 L 239.4 10.1 " fill="#FF0000"/>
<path class="atom-19" d="M 246.2 13.5 Q 246.2 11.9, 247.0 10.9 Q 247.9 10.0, 249.4 10.0 Q 250.9 10.0, 251.8 10.9 Q 252.6 11.9, 252.6 13.5 Q 252.6 15.2, 251.7 16.2 Q 250.9 17.1, 249.4 17.1 Q 247.9 17.1, 247.0 16.2 Q 246.2 15.2, 246.2 13.5 M 249.4 16.3 Q 250.5 16.3, 251.0 15.6 Q 251.6 14.9, 251.6 13.5 Q 251.6 12.2, 251.0 11.5 Q 250.5 10.8, 249.4 10.8 Q 248.3 10.8, 247.8 11.5 Q 247.2 12.2, 247.2 13.5 Q 247.2 14.9, 247.8 15.6 Q 248.3 16.3, 249.4 16.3 " fill="#FF0000"/>
<path class="atom-21" d="M 181.3 73.5 Q 181.3 71.8, 182.1 70.9 Q 183.0 70.0, 184.5 70.0 Q 186.0 70.0, 186.9 70.9 Q 187.7 71.8, 187.7 73.5 Q 187.7 75.2, 186.9 76.1 Q 186.0 77.1, 184.5 77.1 Q 183.0 77.1, 182.1 76.1 Q 181.3 75.2, 181.3 73.5 M 184.5 76.3 Q 185.6 76.3, 186.1 75.6 Q 186.7 74.9, 186.7 73.5 Q 186.7 72.1, 186.1 71.4 Q 185.6 70.8, 184.5 70.8 Q 183.4 70.8, 182.9 71.4 Q 182.3 72.1, 182.3 73.5 Q 182.3 74.9, 182.9 75.6 Q 183.4 76.3, 184.5 76.3 " fill="#FF0000"/>
<path class="atom-22" d="M 223.8 74.4 Q 223.8 72.7, 224.6 71.8 Q 225.4 70.8, 226.9 70.8 Q 228.5 70.8, 229.3 71.8 Q 230.1 72.7, 230.1 74.4 Q 230.1 76.0, 229.3 77.0 Q 228.5 78.0, 226.9 78.0 Q 225.4 78.0, 224.6 77.0 Q 223.8 76.0, 223.8 74.4 M 226.9 77.2 Q 228.0 77.2, 228.6 76.5 Q 229.1 75.7, 229.1 74.4 Q 229.1 73.0, 228.6 72.3 Q 228.0 71.6, 226.9 71.6 Q 225.9 71.6, 225.3 72.3 Q 224.7 73.0, 224.7 74.4 Q 224.7 75.8, 225.3 76.5 Q 225.9 77.2, 226.9 77.2 " fill="#FF0000"/>
<path class="atom-22" d="M 231.2 70.9 L 232.1 70.9 L 232.1 73.9 L 235.7 73.9 L 235.7 70.9 L 236.6 70.9 L 236.6 77.8 L 235.7 77.8 L 235.7 74.6 L 232.1 74.6 L 232.1 77.8 L 231.2 77.8 L 231.2 70.9 " fill="#FF0000"/>
<path class="atom-27" d="M 228.5 165.9 Q 228.5 164.3, 229.3 163.3 Q 230.1 162.4, 231.7 162.4 Q 233.2 162.4, 234.0 163.3 Q 234.8 164.3, 234.8 165.9 Q 234.8 167.6, 234.0 168.6 Q 233.2 169.5, 231.7 169.5 Q 230.1 169.5, 229.3 168.6 Q 228.5 167.6, 228.5 165.9 M 231.7 168.7 Q 232.7 168.7, 233.3 168.0 Q 233.9 167.3, 233.9 165.9 Q 233.9 164.6, 233.3 163.9 Q 232.7 163.2, 231.7 163.2 Q 230.6 163.2, 230.0 163.9 Q 229.5 164.6, 229.5 165.9 Q 229.5 167.3, 230.0 168.0 Q 230.6 168.7, 231.7 168.7 " fill="#FF0000"/>
<path class="atom-28" d="M 184.4 183.0 L 185.4 183.0 L 185.4 185.9 L 188.9 185.9 L 188.9 183.0 L 189.9 183.0 L 189.9 189.9 L 188.9 189.9 L 188.9 186.7 L 185.4 186.7 L 185.4 189.9 L 184.4 189.9 L 184.4 183.0 " fill="#FF0000"/>
<path class="atom-28" d="M 191.3 186.4 Q 191.3 184.7, 192.1 183.8 Q 192.9 182.9, 194.5 182.9 Q 196.0 182.9, 196.8 183.8 Q 197.7 184.7, 197.7 186.4 Q 197.7 188.1, 196.8 189.0 Q 196.0 190.0, 194.5 190.0 Q 192.9 190.0, 192.1 189.0 Q 191.3 188.1, 191.3 186.4 M 194.5 189.2 Q 195.5 189.2, 196.1 188.5 Q 196.7 187.8, 196.7 186.4 Q 196.7 185.0, 196.1 184.4 Q 195.5 183.7, 194.5 183.7 Q 193.4 183.7, 192.8 184.3 Q 192.3 185.0, 192.3 186.4 Q 192.3 187.8, 192.8 188.5 Q 193.4 189.2, 194.5 189.2 " fill="#FF0000"/>
<path class="atom-30" d="M 117.4 84.5 Q 117.4 82.8, 118.2 81.9 Q 119.1 80.9, 120.6 80.9 Q 122.1 80.9, 123.0 81.9 Q 123.8 82.8, 123.8 84.5 Q 123.8 86.1, 123.0 87.1 Q 122.1 88.1, 120.6 88.1 Q 119.1 88.1, 118.2 87.1 Q 117.4 86.2, 117.4 84.5 M 120.6 87.3 Q 121.7 87.3, 122.2 86.6 Q 122.8 85.9, 122.8 84.5 Q 122.8 83.1, 122.2 82.4 Q 121.7 81.7, 120.6 81.7 Q 119.5 81.7, 119.0 82.4 Q 118.4 83.1, 118.4 84.5 Q 118.4 85.9, 119.0 86.6 Q 119.5 87.3, 120.6 87.3 " fill="#FF0000"/>
<path class="atom-31" d="M 159.9 85.3 Q 159.9 83.7, 160.7 82.7 Q 161.5 81.8, 163.0 81.8 Q 164.6 81.8, 165.4 82.7 Q 166.2 83.7, 166.2 85.3 Q 166.2 87.0, 165.4 88.0 Q 164.6 88.9, 163.0 88.9 Q 161.5 88.9, 160.7 88.0 Q 159.9 87.0, 159.9 85.3 M 163.0 88.1 Q 164.1 88.1, 164.7 87.4 Q 165.2 86.7, 165.2 85.3 Q 165.2 84.0, 164.7 83.3 Q 164.1 82.6, 163.0 82.6 Q 162.0 82.6, 161.4 83.3 Q 160.8 83.9, 160.8 85.3 Q 160.8 86.7, 161.4 87.4 Q 162.0 88.1, 163.0 88.1 " fill="#FF0000"/>
<path class="atom-31" d="M 167.3 81.9 L 168.2 81.9 L 168.2 84.8 L 171.8 84.8 L 171.8 81.9 L 172.7 81.9 L 172.7 88.8 L 171.8 88.8 L 171.8 85.6 L 168.2 85.6 L 168.2 88.8 L 167.3 88.8 L 167.3 81.9 " fill="#FF0000"/>
<path class="atom-34" d="M 46.7 92.0 L 47.6 92.0 L 47.6 94.9 L 51.1 94.9 L 51.1 92.0 L 52.1 92.0 L 52.1 98.9 L 51.1 98.9 L 51.1 95.7 L 47.6 95.7 L 47.6 98.9 L 46.7 98.9 L 46.7 92.0 " fill="#FF0000"/>
<path class="atom-34" d="M 53.5 95.4 Q 53.5 93.8, 54.3 92.8 Q 55.2 91.9, 56.7 91.9 Q 58.2 91.9, 59.1 92.8 Q 59.9 93.8, 59.9 95.4 Q 59.9 97.1, 59.0 98.1 Q 58.2 99.0, 56.7 99.0 Q 55.2 99.0, 54.3 98.1 Q 53.5 97.1, 53.5 95.4 M 56.7 98.2 Q 57.8 98.2, 58.3 97.5 Q 58.9 96.8, 58.9 95.4 Q 58.9 94.1, 58.3 93.4 Q 57.8 92.7, 56.7 92.7 Q 55.6 92.7, 55.1 93.4 Q 54.5 94.1, 54.5 95.4 Q 54.5 96.8, 55.1 97.5 Q 55.6 98.2, 56.7 98.2 " fill="#FF0000"/>
<path class="atom-39" d="M 55.0 21.9 Q 55.0 20.3, 55.8 19.3 Q 56.6 18.4, 58.2 18.4 Q 59.7 18.4, 60.5 19.3 Q 61.4 20.3, 61.4 21.9 Q 61.4 23.6, 60.5 24.6 Q 59.7 25.5, 58.2 25.5 Q 56.6 25.5, 55.8 24.6 Q 55.0 23.6, 55.0 21.9 M 58.2 24.7 Q 59.2 24.7, 59.8 24.0 Q 60.4 23.3, 60.4 21.9 Q 60.4 20.6, 59.8 19.9 Q 59.2 19.2, 58.2 19.2 Q 57.1 19.2, 56.5 19.9 Q 56.0 20.6, 56.0 21.9 Q 56.0 23.3, 56.5 24.0 Q 57.1 24.7, 58.2 24.7 " fill="#FF0000"/>
<path class="atom-40" d="M 97.4 22.8 Q 97.4 21.1, 98.3 20.2 Q 99.1 19.3, 100.6 19.3 Q 102.2 19.3, 103.0 20.2 Q 103.8 21.1, 103.8 22.8 Q 103.8 24.5, 103.0 25.4 Q 102.1 26.4, 100.6 26.4 Q 99.1 26.4, 98.3 25.4 Q 97.4 24.5, 97.4 22.8 M 100.6 25.6 Q 101.7 25.6, 102.2 24.9 Q 102.8 24.2, 102.8 22.8 Q 102.8 21.4, 102.2 20.7 Q 101.7 20.0, 100.6 20.0 Q 99.6 20.0, 99.0 20.7 Q 98.4 21.4, 98.4 22.8 Q 98.4 24.2, 99.0 24.9 Q 99.6 25.6, 100.6 25.6 " fill="#FF0000"/>
<path class="atom-40" d="M 104.9 19.3 L 105.8 19.3 L 105.8 22.3 L 109.4 22.3 L 109.4 19.3 L 110.3 19.3 L 110.3 26.3 L 109.4 26.3 L 109.4 23.1 L 105.8 23.1 L 105.8 26.3 L 104.9 26.3 L 104.9 19.3 " fill="#FF0000"/>
</g>
    <g transform="translate(691.0, 0) scale(1 1) "><line x1="15" y1="100" x2="25" y2="100" style="stroke:rgb(0,0,0);stroke-width:2"/>
  <line x1="20" y1="95" x2="20" y2="105" style="stroke:rgb(0,0,0);stroke-width:2"/>
</g>
    <g transform="translate(731.0, 0) scale(1 1) "><!-- END OF HEADER -->
<rect style="opacity:1.0;fill:#FFFFFF;stroke:none" width="215.0" height="200.0" x="0.0" y="0.0"> </rect>
<path class="bond-0 atom-0 atom-1" d="M 183.7,56.0 L 158.3,99.9" style="fill:none;fill-rule:evenodd;stroke:#000000;stroke-width:2.0px;stroke-linecap:butt;stroke-linejoin:miter;stroke-opacity:1"/>
<path class="bond-1 atom-1 atom-2" d="M 158.3,99.9 L 168.4,117.4" style="fill:none;fill-rule:evenodd;stroke:#000000;stroke-width:2.0px;stroke-linecap:butt;stroke-linejoin:miter;stroke-opacity:1"/>
<path class="bond-1 atom-1 atom-2" d="M 168.4,117.4 L 178.5,134.9" style="fill:none;fill-rule:evenodd;stroke:#FF0000;stroke-width:2.0px;stroke-linecap:butt;stroke-linejoin:miter;stroke-opacity:1"/>
<path class="bond-2 atom-1 atom-3" d="M 158.3,99.9 L 107.6,99.9" style="fill:none;fill-rule:evenodd;stroke:#000000;stroke-width:2.0px;stroke-linecap:butt;stroke-linejoin:miter;stroke-opacity:1"/>
<path class="bond-3 atom-3 atom-4" d="M 107.6,99.9 L 107.6,49.2" style="fill:none;fill-rule:evenodd;stroke:#000000;stroke-width:2.0px;stroke-linecap:butt;stroke-linejoin:miter;stroke-opacity:1"/>
<path class="bond-4 atom-3 atom-5" d="M 107.6,99.9 L 107.6,150.6" style="fill:none;fill-rule:evenodd;stroke:#000000;stroke-width:2.0px;stroke-linecap:butt;stroke-linejoin:miter;stroke-opacity:1"/>
<path class="bond-5 atom-3 atom-6" d="M 107.6,99.9 L 56.9,99.9" style="fill:none;fill-rule:evenodd;stroke:#000000;stroke-width:2.0px;stroke-linecap:butt;stroke-linejoin:miter;stroke-opacity:1"/>
<path class="bond-6 atom-6 atom-7" d="M 54.7,96.1 L 44.0,114.5" style="fill:none;fill-rule:evenodd;stroke:#000000;stroke-width:2.0px;stroke-linecap:butt;stroke-linejoin:miter;stroke-opacity:1"/>
<path class="bond-6 atom-6 atom-7" d="M 44.0,114.5 L 33.4,133.0" style="fill:none;fill-rule:evenodd;stroke:#FF0000;stroke-width:2.0px;stroke-linecap:butt;stroke-linejoin:miter;stroke-opacity:1"/>
<path class="bond-6 atom-6 atom-7" d="M 61.3,99.9 L 50.6,118.3" style="fill:none;fill-rule:evenodd;stroke:#000000;stroke-width:2.0px;stroke-linecap:butt;stroke-linejoin:miter;stroke-opacity:1"/>
<path class="bond-6 atom-6 atom-7" d="M 50.6,118.3 L 40.0,136.8" style="fill:none;fill-rule:evenodd;stroke:#FF0000;stroke-width:2.0px;stroke-linecap:butt;stroke-linejoin:miter;stroke-opacity:1"/>
<path class="bond-7 atom-6 atom-8" d="M 56.9,99.9 L 46.9,82.5" style="fill:none;fill-rule:evenodd;stroke:#000000;stroke-width:2.0px;stroke-linecap:butt;stroke-linejoin:miter;stroke-opacity:1"/>
<path class="bond-7 atom-6 atom-8" d="M 46.9,82.5 L 36.8,65.1" style="fill:none;fill-rule:evenodd;stroke:#FF0000;stroke-width:2.0px;stroke-linecap:butt;stroke-linejoin:miter;stroke-opacity:1"/>
<path d="M 59.4,99.9 L 56.9,99.9 L 56.4,99.0" style="fill:none;stroke:#000000;stroke-width:2.0px;stroke-linecap:butt;stroke-linejoin:miter;stroke-opacity:1;"/>
<path class="atom-2" d="M 177.1 143.9 Q 177.1 140.4, 178.8 138.5 Q 180.5 136.5, 183.7 136.5 Q 186.9 136.5, 188.6 138.5 Q 190.3 140.4, 190.3 143.9 Q 190.3 147.3, 188.6 149.3 Q 186.8 151.3, 183.7 151.3 Q 180.5 151.3, 178.8 149.3 Q 177.1 147.4, 177.1 143.9 M 183.7 149.7 Q 185.9 149.7, 187.0 148.2 Q 188.2 146.7, 188.2 143.9 Q 188.2 141.0, 187.0 139.6 Q 185.9 138.2, 183.7 138.2 Q 181.5 138.2, 180.3 139.6 Q 179.1 141.0, 179.1 143.9 Q 179.1 146.8, 180.3 148.2 Q 181.5 149.7, 183.7 149.7 " fill="#FF0000"/>
<path class="atom-2" d="M 192.5 136.7 L 194.5 136.7 L 194.5 142.8 L 201.8 142.8 L 201.8 136.7 L 203.7 136.7 L 203.7 151.1 L 201.8 151.1 L 201.8 144.4 L 194.5 144.4 L 194.5 151.1 L 192.5 151.1 L 192.5 136.7 " fill="#FF0000"/>
<path class="atom-7" d="M 24.9 143.9 Q 24.9 140.4, 26.6 138.5 Q 28.3 136.5, 31.5 136.5 Q 34.7 136.5, 36.4 138.5 Q 38.1 140.4, 38.1 143.9 Q 38.1 147.3, 36.4 149.3 Q 34.7 151.3, 31.5 151.3 Q 28.4 151.3, 26.6 149.3 Q 24.9 147.4, 24.9 143.9 M 31.5 149.7 Q 33.7 149.7, 34.9 148.2 Q 36.1 146.7, 36.1 143.9 Q 36.1 141.0, 34.9 139.6 Q 33.7 138.2, 31.5 138.2 Q 29.3 138.2, 28.1 139.6 Q 27.0 141.0, 27.0 143.9 Q 27.0 146.8, 28.1 148.2 Q 29.3 149.7, 31.5 149.7 " fill="#FF0000"/>
<path class="atom-8" d="M 10.7 48.9 L 12.7 48.9 L 12.7 55.0 L 20.0 55.0 L 20.0 48.9 L 22.0 48.9 L 22.0 63.2 L 20.0 63.2 L 20.0 56.6 L 12.7 56.6 L 12.7 63.2 L 10.7 63.2 L 10.7 48.9 " fill="#FF0000"/>
<path class="atom-8" d="M 24.9 56.0 Q 24.9 52.6, 26.6 50.6 Q 28.3 48.7, 31.5 48.7 Q 34.7 48.7, 36.4 50.6 Q 38.1 52.6, 38.1 56.0 Q 38.1 59.5, 36.4 61.5 Q 34.7 63.5, 31.5 63.5 Q 28.4 63.5, 26.6 61.5 Q 24.9 59.5, 24.9 56.0 M 31.5 61.8 Q 33.7 61.8, 34.9 60.4 Q 36.1 58.9, 36.1 56.0 Q 36.1 53.2, 34.9 51.8 Q 33.7 50.3, 31.5 50.3 Q 29.3 50.3, 28.1 51.7 Q 27.0 53.2, 27.0 56.0 Q 27.0 58.9, 28.1 60.4 Q 29.3 61.8, 31.5 61.8 " fill="#FF0000"/>
</g>
  </g>
</svg>
