<?xml version='1.0' encoding='ASCII' standalone='yes'?>
<svg xmlns="http://www.w3.org/2000/svg" xmlns:xlink="http://www.w3.org/1999/xlink" version="1.1" width="885.0px" viewBox="0 0 885.0 200.0" height="200.0px">
  <g>
    <g transform="translate(0, 0) scale(1 1) "><!-- END OF HEADER -->
<rect style="opacity:1.0;fill:#FFFFFF;stroke:none" width="280.0" height="200.0" x="0.0" y="0.0"> </rect>
<path class="bond-0 atom-0 atom-1" d="M 14.0,23.1 L 50.4,39.1" style="fill:none;fill-rule:evenodd;stroke:#000000;stroke-width:2.0px;stroke-linecap:butt;stroke-linejoin:miter;stroke-opacity:1"/>
<path class="bond-1 atom-1 atom-2" d="M 50.4,39.1 L 54.7,78.6" style="fill:none;fill-rule:evenodd;stroke:#000000;stroke-width:2.0px;stroke-linecap:butt;stroke-linejoin:miter;stroke-opacity:1"/>
<path class="bond-2 atom-2 atom-3" d="M 54.7,78.6 L 91.1,94.7" style="fill:none;fill-rule:evenodd;stroke:#000000;stroke-width:2.0px;stroke-linecap:butt;stroke-linejoin:miter;stroke-opacity:1"/>
<path class="bond-3 atom-3 atom-4" d="M 91.1,94.7 L 127.4,110.7" style="fill:none;fill-rule:evenodd;stroke:#000000;stroke-width:2.0px;stroke-linecap:butt;stroke-linejoin:miter;stroke-opacity:1"/>
<path class="bond-4 atom-3 atom-5" d="M 91.1,94.7 L 107.1,58.3" style="fill:none;fill-rule:evenodd;stroke:#000000;stroke-width:2.0px;stroke-linecap:butt;stroke-linejoin:miter;stroke-opacity:1"/>
<path class="bond-5 atom-5 atom-6" d="M 107.1,58.3 L 146.6,54.0" style="fill:none;fill-rule:evenodd;stroke:#000000;stroke-width:2.0px;stroke-linecap:butt;stroke-linejoin:miter;stroke-opacity:1"/>
<path class="bond-6 atom-6 atom-7" d="M 146.6,54.0 L 162.6,17.6" style="fill:none;fill-rule:evenodd;stroke:#000000;stroke-width:2.0px;stroke-linecap:butt;stroke-linejoin:miter;stroke-opacity:1"/>
<path class="bond-7 atom-6 atom-8" d="M 146.6,54.0 L 170.1,86.0" style="fill:none;fill-rule:evenodd;stroke:#000000;stroke-width:2.0px;stroke-linecap:butt;stroke-linejoin:miter;stroke-opacity:1"/>
<path class="bond-8 atom-8 atom-9" d="M 170.1,86.0 L 209.6,81.7" style="fill:none;fill-rule:evenodd;stroke:#000000;stroke-width:2.0px;stroke-linecap:butt;stroke-linejoin:miter;stroke-opacity:1"/>
<path class="bond-9 atom-9 atom-10" d="M 209.6,81.7 L 249.1,77.4" style="fill:none;fill-rule:evenodd;stroke:#000000;stroke-width:2.0px;stroke-linecap:butt;stroke-linejoin:miter;stroke-opacity:1"/>
<path class="bond-10 atom-9 atom-11" d="M 209.6,81.7 L 205.3,42.2" style="fill:none;fill-rule:evenodd;stroke:#000000;stroke-width:2.0px;stroke-linecap:butt;stroke-linejoin:miter;stroke-opacity:1"/>
<path class="bond-11 atom-11 atom-12" d="M 205.3,42.2 L 218.1,32.8" style="fill:none;fill-rule:evenodd;stroke:#000000;stroke-width:2.0px;stroke-linecap:butt;stroke-linejoin:miter;stroke-opacity:1"/>
<path class="bond-11 atom-11 atom-12" d="M 218.1,32.8 L 230.9,23.5" style="fill:none;fill-rule:evenodd;stroke:#FF0000;stroke-width:2.0px;stroke-linecap:butt;stroke-linejoin:miter;stroke-opacity:1"/>
<path class="bond-12 atom-9 atom-13" d="M 209.6,81.7 L 213.9,121.2" style="fill:none;fill-rule:evenodd;stroke:#000000;stroke-width:2.0px;stroke-linecap:butt;stroke-linejoin:miter;stroke-opacity:1"/>
<path class="bond-13 atom-13 atom-14" d="M 213.5,117.8 L 200.0,127.7" style="fill:none;fill-rule:evenodd;stroke:#000000;stroke-width:2.0px;stroke-linecap:butt;stroke-linejoin:miter;stroke-opacity:1"/>
<path class="bond-13 atom-13 atom-14" d="M 200.0,127.7 L 186.5,137.6" style="fill:none;fill-rule:evenodd;stroke:#FF0000;stroke-width:2.0px;stroke-linecap:butt;stroke-linejoin:miter;stroke-opacity:1"/>
<path class="bond-13 atom-13 atom-14" d="M 217.0,122.6 L 203.6,132.5" style="fill:none;fill-rule:evenodd;stroke:#000000;stroke-width:2.0px;stroke-linecap:butt;stroke-linejoin:miter;stroke-opacity:1"/>
<path class="bond-13 atom-13 atom-14" d="M 203.6,132.5 L 190.1,142.4" style="fill:none;fill-rule:evenodd;stroke:#FF0000;stroke-width:2.0px;stroke-linecap:butt;stroke-linejoin:miter;stroke-opacity:1"/>
<path class="bond-14 atom-13 atom-15" d="M 213.9,121.2 L 228.8,127.8" style="fill:none;fill-rule:evenodd;stroke:#000000;stroke-width:2.0px;stroke-linecap:butt;stroke-linejoin:miter;stroke-opacity:1"/>
<path class="bond-14 atom-13 atom-15" d="M 228.8,127.8 L 243.8,134.4" style="fill:none;fill-rule:evenodd;stroke:#FF0000;stroke-width:2.0px;stroke-linecap:butt;stroke-linejoin:miter;stroke-opacity:1"/>
<path class="bond-15 atom-3 atom-16" d="M 91.1,94.7 L 75.0,131.0" style="fill:none;fill-rule:evenodd;stroke:#000000;stroke-width:2.0px;stroke-linecap:butt;stroke-linejoin:miter;stroke-opacity:1"/>
<path class="bond-16 atom-16 atom-17" d="M 76.4,127.9 L 59.0,129.8" style="fill:none;fill-rule:evenodd;stroke:#000000;stroke-width:2.0px;stroke-linecap:butt;stroke-linejoin:miter;stroke-opacity:1"/>
<path class="bond-16 atom-16 atom-17" d="M 59.0,129.8 L 41.7,131.7" style="fill:none;fill-rule:evenodd;stroke:#FF0000;stroke-width:2.0px;stroke-linecap:butt;stroke-linejoin:miter;stroke-opacity:1"/>
<path class="bond-16 atom-16 atom-17" d="M 77.1,133.8 L 59.7,135.7" style="fill:none;fill-rule:evenodd;stroke:#000000;stroke-width:2.0px;stroke-linecap:butt;stroke-linejoin:miter;stroke-opacity:1"/>
<path class="bond-16 atom-16 atom-17" d="M 59.7,135.7 L 42.3,137.6" style="fill:none;fill-rule:evenodd;stroke:#FF0000;stroke-width:2.0px;stroke-linecap:butt;stroke-linejoin:miter;stroke-opacity:1"/>
<path class="bond-17 atom-16 atom-18" d="M 75.0,131.0 L 84.2,143.6" style="fill:none;fill-rule:evenodd;stroke:#000000;stroke-width:2.0px;stroke-linecap:butt;stroke-linejoin:miter;stroke-opacity:1"/>
<path class="bond-17 atom-16 atom-18" d="M 84.2,143.6 L 93.4,156.1" style="fill:none;fill-rule:evenodd;stroke:#FF0000;stroke-width:2.0px;stroke-linecap:butt;stroke-linejoin:miter;stroke-opacity:1"/>
<path d="M 48.6,38.3 L 50.4,39.1 L 50.6,41.1" style="fill:none;stroke:#000000;stroke-width:2.0px;stroke-linecap:butt;stroke-linejoin:miter;stroke-opacity:1;"/>
<path d="M 54.5,76.6 L 54.7,78.6 L 56.5,79.4" style="fill:none;stroke:#000000;stroke-width:2.0px;stroke-linecap:butt;stroke-linejoin:miter;stroke-opacity:1;"/>
<path d="M 106.3,60.1 L 107.1,58.3 L 109.1,58.1" style="fill:none;stroke:#000000;stroke-width:2.0px;stroke-linecap:butt;stroke-linejoin:miter;stroke-opacity:1;"/>
<path d="M 168.9,84.4 L 170.1,86.0 L 172.1,85.8" style="fill:none;stroke:#000000;stroke-width:2.0px;stroke-linecap:butt;stroke-linejoin:miter;stroke-opacity:1;"/>
<path d="M 205.5,44.2 L 205.3,42.2 L 205.9,41.8" style="fill:none;stroke:#000000;stroke-width:2.0px;stroke-linecap:butt;stroke-linejoin:miter;stroke-opacity:1;"/>
<path d="M 213.7,119.3 L 213.9,121.2 L 214.6,121.6" style="fill:none;stroke:#000000;stroke-width:2.0px;stroke-linecap:butt;stroke-linejoin:miter;stroke-opacity:1;"/>
<path d="M 75.8,129.2 L 75.0,131.0 L 75.5,131.7" style="fill:none;stroke:#000000;stroke-width:2.0px;stroke-linecap:butt;stroke-linejoin:miter;stroke-opacity:1;"/>
<path class="atom-12" d="M 232.2 18.8 Q 232.2 16.1, 233.5 14.6 Q 234.9 13.0, 237.4 13.0 Q 239.9 13.0, 241.2 14.6 Q 242.5 16.1, 242.5 18.8 Q 242.5 21.5, 241.2 23.1 Q 239.8 24.6, 237.4 24.6 Q 234.9 24.6, 233.5 23.1 Q 232.2 21.5, 232.2 18.8 M 237.4 23.3 Q 239.1 23.3, 240.0 22.2 Q 240.9 21.0, 240.9 18.8 Q 240.9 16.6, 240.0 15.4 Q 239.1 14.3, 237.4 14.3 Q 235.6 14.3, 234.7 15.4 Q 233.8 16.5, 233.8 18.8 Q 233.8 21.0, 234.7 22.2 Q 235.6 23.3, 237.4 23.3 " fill="#FF0000"/>
<path class="atom-12" d="M 244.3 13.2 L 245.8 13.2 L 245.8 18.0 L 251.6 18.0 L 251.6 13.2 L 253.1 13.2 L 253.1 24.4 L 251.6 24.4 L 251.6 19.2 L 245.8 19.2 L 245.8 24.4 L 244.3 24.4 L 244.3 13.2 " fill="#FF0000"/>
<path class="atom-14" d="M 176.7 144.8 Q 176.7 142.1, 178.0 140.6 Q 179.3 139.0, 181.8 139.0 Q 184.3 139.0, 185.7 140.6 Q 187.0 142.1, 187.0 144.8 Q 187.0 147.5, 185.6 149.1 Q 184.3 150.6, 181.8 150.6 Q 179.4 150.6, 178.0 149.1 Q 176.7 147.5, 176.7 144.8 M 181.8 149.3 Q 183.5 149.3, 184.5 148.2 Q 185.4 147.0, 185.4 144.8 Q 185.4 142.6, 184.5 141.4 Q 183.5 140.3, 181.8 140.3 Q 180.1 140.3, 179.2 141.4 Q 178.3 142.5, 178.3 144.8 Q 178.3 147.0, 179.2 148.2 Q 180.1 149.3, 181.8 149.3 " fill="#FF0000"/>
<path class="atom-15" d="M 245.1 137.3 Q 245.1 134.6, 246.4 133.1 Q 247.8 131.6, 250.3 131.6 Q 252.8 131.6, 254.1 133.1 Q 255.4 134.6, 255.4 137.3 Q 255.4 140.0, 254.1 141.6 Q 252.7 143.1, 250.3 143.1 Q 247.8 143.1, 246.4 141.6 Q 245.1 140.1, 245.1 137.3 M 250.3 141.9 Q 252.0 141.9, 252.9 140.7 Q 253.8 139.6, 253.8 137.3 Q 253.8 135.1, 252.9 134.0 Q 252.0 132.9, 250.3 132.9 Q 248.6 132.9, 247.6 134.0 Q 246.7 135.1, 246.7 137.3 Q 246.7 139.6, 247.6 140.7 Q 248.6 141.9, 250.3 141.9 " fill="#FF0000"/>
<path class="atom-15" d="M 257.2 131.7 L 258.7 131.7 L 258.7 136.5 L 264.5 136.5 L 264.5 131.7 L 266.0 131.7 L 266.0 143.0 L 264.5 143.0 L 264.5 137.8 L 258.7 137.8 L 258.7 143.0 L 257.2 143.0 L 257.2 131.7 " fill="#FF0000"/>
<path class="atom-17" d="M 30.3 135.4 Q 30.3 132.7, 31.7 131.1 Q 33.0 129.6, 35.5 129.6 Q 38.0 129.6, 39.3 131.1 Q 40.7 132.7, 40.7 135.4 Q 40.7 138.1, 39.3 139.7 Q 38.0 141.2, 35.5 141.2 Q 33.0 141.2, 31.7 139.7 Q 30.3 138.1, 30.3 135.4 M 35.5 139.9 Q 37.2 139.9, 38.1 138.8 Q 39.1 137.6, 39.1 135.4 Q 39.1 133.2, 38.1 132.0 Q 37.2 130.9, 35.5 130.9 Q 33.8 130.9, 32.9 132.0 Q 31.9 133.1, 31.9 135.4 Q 31.9 137.6, 32.9 138.8 Q 33.8 139.9, 35.5 139.9 " fill="#FF0000"/>
<path class="atom-18" d="M 93.3 163.1 Q 93.3 160.4, 94.7 158.9 Q 96.0 157.4, 98.5 157.4 Q 101.0 157.4, 102.3 158.9 Q 103.7 160.4, 103.7 163.1 Q 103.7 165.9, 102.3 167.4 Q 101.0 169.0, 98.5 169.0 Q 96.0 169.0, 94.7 167.4 Q 93.3 165.9, 93.3 163.1 M 98.5 167.7 Q 100.2 167.7, 101.1 166.5 Q 102.1 165.4, 102.1 163.1 Q 102.1 160.9, 101.1 159.8 Q 100.2 158.7, 98.5 158.7 Q 96.8 158.7, 95.9 159.8 Q 94.9 160.9, 94.9 163.1 Q 94.9 165.4, 95.9 166.5 Q 96.8 167.7, 98.5 167.7 " fill="#FF0000"/>
<path class="atom-18" d="M 105.4 157.5 L 107.0 157.5 L 107.0 162.3 L 112.7 162.3 L 112.7 157.5 L 114.2 157.5 L 114.2 168.8 L 112.7 168.8 L 112.7 163.6 L 107.0 163.6 L 107.0 168.8 L 105.4 168.8 L 105.4 157.5 " fill="#FF0000"/>
<path class="legend" d="M 131.5 181.9 Q 131.5 179.6, 132.2 177.7 Q 132.8 175.8, 134.1 173.8 L 135.0 174.4 Q 134.0 176.3, 133.4 178.0 Q 132.9 179.7, 132.9 181.9 Q 132.9 184.0, 133.4 185.8 Q 134.0 187.5, 135.0 189.4 L 134.1 190.0 Q 132.8 188.0, 132.2 186.1 Q 131.5 184.2, 131.5 181.9 " fill="#000000"/>
<path class="legend" d="M 135.9 177.3 Q 136.4 176.2, 137.3 175.6 Q 138.3 175.0, 139.7 175.0 Q 141.4 175.0, 142.4 175.9 Q 143.3 176.8, 143.3 178.5 Q 143.3 180.2, 142.1 181.7 Q 140.9 183.3, 138.3 185.2 L 143.5 185.2 L 143.5 186.4 L 135.9 186.4 L 135.9 185.4 Q 138.0 183.9, 139.3 182.8 Q 140.5 181.6, 141.1 180.6 Q 141.7 179.6, 141.7 178.6 Q 141.7 177.5, 141.2 176.9 Q 140.7 176.3, 139.7 176.3 Q 138.8 176.3, 138.2 176.6 Q 137.6 177.0, 137.2 177.8 L 135.9 177.3 " fill="#000000"/>
<path class="legend" d="M 148.5 181.9 Q 148.5 184.2, 147.8 186.1 Q 147.2 188.0, 145.9 190.0 L 145.0 189.4 Q 146.0 187.5, 146.5 185.8 Q 147.1 184.0, 147.1 181.9 Q 147.1 179.7, 146.5 178.0 Q 146.0 176.3, 145.0 174.4 L 145.9 173.8 Q 147.2 175.8, 147.8 177.7 Q 148.5 179.6, 148.5 181.9 " fill="#000000"/>
</g>
    <g transform="translate(280.0, 0) scale(1 1) "><line x1="5" y1="100" x2="35" y2="100" style="stroke:rgb(0,0,0);stroke-width:2"/>
  <line x1="34" y1="100" x2="29" y2="95" style="stroke:rgb(0,0,0);stroke-width:2"/>
  <line x1="34" y1="100" x2="29" y2="105" style="stroke:rgb(0,0,0);stroke-width:2"/>
</g>
    <g transform="translate(320.0, 0) scale(1 1) "><!-- END OF HEADER -->
<rect style="opacity:1.0;fill:#FFFFFF;stroke:none" width="205.0" height="200.0" x="0.0" y="0.0"> </rect>
<path class="bond-0 atom-0 atom-1" d="M 122.6,44.3 L 108.8,89.2" style="fill:none;fill-rule:evenodd;stroke:#000000;stroke-width:2.0px;stroke-linecap:butt;stroke-linejoin:miter;stroke-opacity:1"/>
<path class="bond-1 atom-1 atom-2" d="M 108.8,89.2 L 95.0,134.1" style="fill:none;fill-rule:evenodd;stroke:#000000;stroke-width:2.0px;stroke-linecap:butt;stroke-linejoin:miter;stroke-opacity:1"/>
<path class="bond-2 atom-1 atom-3" d="M 108.8,89.2 L 63.9,75.4" style="fill:none;fill-rule:evenodd;stroke:#000000;stroke-width:2.0px;stroke-linecap:butt;stroke-linejoin:miter;stroke-opacity:1"/>
<path class="bond-3 atom-3 atom-4" d="M 63.9,75.4 L 50.5,87.9" style="fill:none;fill-rule:evenodd;stroke:#000000;stroke-width:2.0px;stroke-linecap:butt;stroke-linejoin:miter;stroke-opacity:1"/>
<path class="bond-3 atom-3 atom-4" d="M 50.5,87.9 L 37.2,100.3" style="fill:none;fill-rule:evenodd;stroke:#FF0000;stroke-width:2.0px;stroke-linecap:butt;stroke-linejoin:miter;stroke-opacity:1"/>
<path class="bond-4 atom-1 atom-5" d="M 108.8,89.2 L 153.7,103.0" style="fill:none;fill-rule:evenodd;stroke:#000000;stroke-width:2.0px;stroke-linecap:butt;stroke-linejoin:miter;stroke-opacity:1"/>
<path class="bond-5 atom-5 atom-6" d="M 154.7,107.0 L 168.8,93.8" style="fill:none;fill-rule:evenodd;stroke:#000000;stroke-width:2.0px;stroke-linecap:butt;stroke-linejoin:miter;stroke-opacity:1"/>
<path class="bond-5 atom-5 atom-6" d="M 168.8,93.8 L 182.9,80.7" style="fill:none;fill-rule:evenodd;stroke:#FF0000;stroke-width:2.0px;stroke-linecap:butt;stroke-linejoin:miter;stroke-opacity:1"/>
<path class="bond-5 atom-5 atom-6" d="M 149.9,101.8 L 164.0,88.7" style="fill:none;fill-rule:evenodd;stroke:#000000;stroke-width:2.0px;stroke-linecap:butt;stroke-linejoin:miter;stroke-opacity:1"/>
<path class="bond-5 atom-5 atom-6" d="M 164.0,88.7 L 178.1,75.5" style="fill:none;fill-rule:evenodd;stroke:#FF0000;stroke-width:2.0px;stroke-linecap:butt;stroke-linejoin:miter;stroke-opacity:1"/>
<path class="bond-6 atom-5 atom-7" d="M 153.7,103.0 L 158.0,121.7" style="fill:none;fill-rule:evenodd;stroke:#000000;stroke-width:2.0px;stroke-linecap:butt;stroke-linejoin:miter;stroke-opacity:1"/>
<path class="bond-6 atom-5 atom-7" d="M 158.0,121.7 L 162.4,140.5" style="fill:none;fill-rule:evenodd;stroke:#FF0000;stroke-width:2.0px;stroke-linecap:butt;stroke-linejoin:miter;stroke-opacity:1"/>
<path d="M 66.1,76.1 L 63.9,75.4 L 63.2,76.0" style="fill:none;stroke:#000000;stroke-width:2.0px;stroke-linecap:butt;stroke-linejoin:miter;stroke-opacity:1;"/>
<path d="M 151.5,102.3 L 153.7,103.0 L 154.0,103.9" style="fill:none;stroke:#000000;stroke-width:2.0px;stroke-linecap:butt;stroke-linejoin:miter;stroke-opacity:1;"/>
<path class="atom-4" d="M 10.2 100.8 L 12.1 100.8 L 12.1 106.5 L 18.9 106.5 L 18.9 100.8 L 20.7 100.8 L 20.7 114.1 L 18.9 114.1 L 18.9 108.0 L 12.1 108.0 L 12.1 114.1 L 10.2 114.1 L 10.2 100.8 " fill="#FF0000"/>
<path class="atom-4" d="M 23.4 107.5 Q 23.4 104.3, 25.0 102.5 Q 26.5 100.7, 29.5 100.7 Q 32.5 100.7, 34.0 102.5 Q 35.6 104.3, 35.6 107.5 Q 35.6 110.7, 34.0 112.5 Q 32.4 114.4, 29.5 114.4 Q 26.6 114.4, 25.0 112.5 Q 23.4 110.7, 23.4 107.5 M 29.5 112.9 Q 31.5 112.9, 32.6 111.5 Q 33.7 110.1, 33.7 107.5 Q 33.7 104.8, 32.6 103.5 Q 31.5 102.2, 29.5 102.2 Q 27.5 102.2, 26.4 103.5 Q 25.3 104.8, 25.3 107.5 Q 25.3 110.1, 26.4 111.5 Q 27.5 112.9, 29.5 112.9 " fill="#FF0000"/>
<path class="atom-6" d="M 182.0 71.0 Q 182.0 67.8, 183.6 66.0 Q 185.2 64.3, 188.1 64.3 Q 191.1 64.3, 192.7 66.0 Q 194.3 67.8, 194.3 71.0 Q 194.3 74.3, 192.7 76.1 Q 191.1 77.9, 188.1 77.9 Q 185.2 77.9, 183.6 76.1 Q 182.0 74.3, 182.0 71.0 M 188.1 76.4 Q 190.2 76.4, 191.3 75.1 Q 192.4 73.7, 192.4 71.0 Q 192.4 68.4, 191.3 67.1 Q 190.2 65.8, 188.1 65.8 Q 186.1 65.8, 185.0 67.1 Q 183.9 68.4, 183.9 71.0 Q 183.9 73.7, 185.0 75.1 Q 186.1 76.4, 188.1 76.4 " fill="#FF0000"/>
<path class="atom-7" d="M 158.2 148.8 Q 158.2 145.6, 159.7 143.8 Q 161.3 142.1, 164.3 142.1 Q 167.2 142.1, 168.8 143.8 Q 170.4 145.6, 170.4 148.8 Q 170.4 152.1, 168.8 153.9 Q 167.2 155.7, 164.3 155.7 Q 161.3 155.7, 159.7 153.9 Q 158.2 152.1, 158.2 148.8 M 164.3 154.2 Q 166.3 154.2, 167.4 152.9 Q 168.5 151.5, 168.5 148.8 Q 168.5 146.2, 167.4 144.9 Q 166.3 143.6, 164.3 143.6 Q 162.2 143.6, 161.1 144.9 Q 160.0 146.2, 160.0 148.8 Q 160.0 151.5, 161.1 152.9 Q 162.2 154.2, 164.3 154.2 " fill="#FF0000"/>
<path class="atom-7" d="M 172.4 142.2 L 174.2 142.2 L 174.2 147.9 L 181.0 147.9 L 181.0 142.2 L 182.9 142.2 L 182.9 155.5 L 181.0 155.5 L 181.0 149.4 L 174.2 149.4 L 174.2 155.5 L 172.4 155.5 L 172.4 142.2 " fill="#FF0000"/>
</g>
    <g transform="translate(525.0, 0) scale(1 1) "><line x1="15" y1="100" x2="25" y2="100" style="stroke:rgb(0,0,0);stroke-width:2"/>
  <line x1="20" y1="95" x2="20" y2="105" style="stroke:rgb(0,0,0);stroke-width:2"/>
</g>
    <g transform="translate(565.0, 0) scale(1 1) "><!-- END OF HEADER -->
<rect style="opacity:1.0;fill:#FFFFFF;stroke:none" width="320.0" height="200.0" x="0.0" y="0.0"> </rect>
<path class="bond-0 atom-0 atom-1" d="M 211.3,10.0 L 192.6,34.4" style="fill:none;fill-rule:evenodd;stroke:#000000;stroke-width:2.0px;stroke-linecap:butt;stroke-linejoin:miter;stroke-opacity:1"/>
<path class="bond-1 atom-1 atom-2" d="M 192.6,34.4 L 204.5,62.8" style="fill:none;fill-rule:evenodd;stroke:#000000;stroke-width:2.0px;stroke-linecap:butt;stroke-linejoin:miter;stroke-opacity:1"/>
<path class="bond-2 atom-2 atom-3" d="M 204.5,62.8 L 185.9,87.2" style="fill:none;fill-rule:evenodd;stroke:#000000;stroke-width:2.0px;stroke-linecap:butt;stroke-linejoin:miter;stroke-opacity:1"/>
<path class="bond-3 atom-3 atom-4" d="M 185.9,87.2 L 167.2,111.7" style="fill:none;fill-rule:evenodd;stroke:#000000;stroke-width:2.0px;stroke-linecap:butt;stroke-linejoin:miter;stroke-opacity:1"/>
<path class="bond-4 atom-3 atom-5" d="M 185.9,87.2 L 161.4,68.6" style="fill:none;fill-rule:evenodd;stroke:#000000;stroke-width:2.0px;stroke-linecap:butt;stroke-linejoin:miter;stroke-opacity:1"/>
<path class="bond-5 atom-5 atom-6" d="M 161.4,68.6 L 133.1,80.5" style="fill:none;fill-rule:evenodd;stroke:#000000;stroke-width:2.0px;stroke-linecap:butt;stroke-linejoin:miter;stroke-opacity:1"/>
<path class="bond-6 atom-6 atom-7" d="M 133.1,80.5 L 115.3,63.1" style="fill:none;fill-rule:evenodd;stroke:#000000;stroke-width:2.0px;stroke-linecap:butt;stroke-linejoin:miter;stroke-opacity:1"/>
<path class="bond-7 atom-6 atom-8" d="M 133.1,80.5 L 129.1,110.9" style="fill:none;fill-rule:evenodd;stroke:#000000;stroke-width:2.0px;stroke-linecap:butt;stroke-linejoin:miter;stroke-opacity:1"/>
<path class="bond-8 atom-8 atom-9" d="M 129.1,110.9 L 153.6,129.6" style="fill:none;fill-rule:evenodd;stroke:#000000;stroke-width:2.0px;stroke-linecap:butt;stroke-linejoin:miter;stroke-opacity:1"/>
<path class="bond-9 atom-9 atom-10" d="M 153.6,129.6 L 149.7,160.0" style="fill:none;fill-rule:evenodd;stroke:#000000;stroke-width:2.0px;stroke-linecap:butt;stroke-linejoin:miter;stroke-opacity:1"/>
<path class="bond-10 atom-9 atom-11" d="M 153.6,129.6 L 181.9,117.7" style="fill:none;fill-rule:evenodd;stroke:#000000;stroke-width:2.0px;stroke-linecap:butt;stroke-linejoin:miter;stroke-opacity:1"/>
<path class="bond-11 atom-11 atom-12" d="M 181.9,117.7 L 206.4,136.3" style="fill:none;fill-rule:evenodd;stroke:#000000;stroke-width:2.0px;stroke-linecap:butt;stroke-linejoin:miter;stroke-opacity:1"/>
<path class="bond-12 atom-12 atom-13" d="M 206.4,136.3 L 187.7,160.8" style="fill:none;fill-rule:evenodd;stroke:#000000;stroke-width:2.0px;stroke-linecap:butt;stroke-linejoin:miter;stroke-opacity:1"/>
<path class="bond-13 atom-12 atom-14" d="M 206.4,136.3 L 225.0,111.9" style="fill:none;fill-rule:evenodd;stroke:#000000;stroke-width:2.0px;stroke-linecap:butt;stroke-linejoin:miter;stroke-opacity:1"/>
<path class="bond-14 atom-14 atom-15" d="M 225.0,111.9 L 255.5,115.8" style="fill:none;fill-rule:evenodd;stroke:#000000;stroke-width:2.0px;stroke-linecap:butt;stroke-linejoin:miter;stroke-opacity:1"/>
<path class="bond-15 atom-15 atom-16" d="M 255.5,115.8 L 274.1,91.4" style="fill:none;fill-rule:evenodd;stroke:#000000;stroke-width:2.0px;stroke-linecap:butt;stroke-linejoin:miter;stroke-opacity:1"/>
<path class="bond-16 atom-12 atom-17" d="M 206.4,136.3 L 230.8,155.0" style="fill:none;fill-rule:evenodd;stroke:#000000;stroke-width:2.0px;stroke-linecap:butt;stroke-linejoin:miter;stroke-opacity:1"/>
<path class="bond-17 atom-17 atom-18" d="M 230.5,157.5 L 242.8,152.4" style="fill:none;fill-rule:evenodd;stroke:#000000;stroke-width:2.0px;stroke-linecap:butt;stroke-linejoin:miter;stroke-opacity:1"/>
<path class="bond-17 atom-17 atom-18" d="M 242.8,152.4 L 255.1,147.3" style="fill:none;fill-rule:evenodd;stroke:#FF0000;stroke-width:2.0px;stroke-linecap:butt;stroke-linejoin:miter;stroke-opacity:1"/>
<path class="bond-17 atom-17 atom-18" d="M 228.8,153.4 L 241.1,148.3" style="fill:none;fill-rule:evenodd;stroke:#000000;stroke-width:2.0px;stroke-linecap:butt;stroke-linejoin:miter;stroke-opacity:1"/>
<path class="bond-17 atom-17 atom-18" d="M 241.1,148.3 L 253.3,143.1" style="fill:none;fill-rule:evenodd;stroke:#FF0000;stroke-width:2.0px;stroke-linecap:butt;stroke-linejoin:miter;stroke-opacity:1"/>
<path class="bond-18 atom-17 atom-19" d="M 230.8,155.0 L 229.2,167.5" style="fill:none;fill-rule:evenodd;stroke:#000000;stroke-width:2.0px;stroke-linecap:butt;stroke-linejoin:miter;stroke-opacity:1"/>
<path class="bond-18 atom-17 atom-19" d="M 229.2,167.5 L 227.6,180.1" style="fill:none;fill-rule:evenodd;stroke:#FF0000;stroke-width:2.0px;stroke-linecap:butt;stroke-linejoin:miter;stroke-opacity:1"/>
<path class="bond-19 atom-8 atom-20" d="M 129.1,110.9 L 100.8,122.8" style="fill:none;fill-rule:evenodd;stroke:#000000;stroke-width:2.0px;stroke-linecap:butt;stroke-linejoin:miter;stroke-opacity:1"/>
<path class="bond-20 atom-20 atom-21" d="M 100.8,122.8 L 72.4,134.6" style="fill:none;fill-rule:evenodd;stroke:#000000;stroke-width:2.0px;stroke-linecap:butt;stroke-linejoin:miter;stroke-opacity:1"/>
<path class="bond-21 atom-20 atom-22" d="M 100.8,122.8 L 112.6,151.1" style="fill:none;fill-rule:evenodd;stroke:#000000;stroke-width:2.0px;stroke-linecap:butt;stroke-linejoin:miter;stroke-opacity:1"/>
<path class="bond-22 atom-22 atom-23" d="M 112.6,151.1 L 105.4,160.7" style="fill:none;fill-rule:evenodd;stroke:#000000;stroke-width:2.0px;stroke-linecap:butt;stroke-linejoin:miter;stroke-opacity:1"/>
<path class="bond-22 atom-22 atom-23" d="M 105.4,160.7 L 98.1,170.2" style="fill:none;fill-rule:evenodd;stroke:#FF0000;stroke-width:2.0px;stroke-linecap:butt;stroke-linejoin:miter;stroke-opacity:1"/>
<path class="bond-23 atom-20 atom-24" d="M 100.8,122.8 L 88.9,94.4" style="fill:none;fill-rule:evenodd;stroke:#000000;stroke-width:2.0px;stroke-linecap:butt;stroke-linejoin:miter;stroke-opacity:1"/>
<path class="bond-24 atom-24 atom-25" d="M 90.0,97.0 L 95.1,88.3" style="fill:none;fill-rule:evenodd;stroke:#000000;stroke-width:2.0px;stroke-linecap:butt;stroke-linejoin:miter;stroke-opacity:1"/>
<path class="bond-24 atom-24 atom-25" d="M 95.1,88.3 L 100.2,79.6" style="fill:none;fill-rule:evenodd;stroke:#FF0000;stroke-width:2.0px;stroke-linecap:butt;stroke-linejoin:miter;stroke-opacity:1"/>
<path class="bond-24 atom-24 atom-25" d="M 86.5,94.1 L 91.3,86.0" style="fill:none;fill-rule:evenodd;stroke:#000000;stroke-width:2.0px;stroke-linecap:butt;stroke-linejoin:miter;stroke-opacity:1"/>
<path class="bond-24 atom-24 atom-25" d="M 91.3,86.0 L 96.3,77.3" style="fill:none;fill-rule:evenodd;stroke:#FF0000;stroke-width:2.0px;stroke-linecap:butt;stroke-linejoin:miter;stroke-opacity:1"/>
<path class="bond-25 atom-24 atom-26" d="M 88.9,94.4 L 76.2,92.8" style="fill:none;fill-rule:evenodd;stroke:#000000;stroke-width:2.0px;stroke-linecap:butt;stroke-linejoin:miter;stroke-opacity:1"/>
<path class="bond-25 atom-24 atom-26" d="M 76.2,92.8 L 63.4,91.1" style="fill:none;fill-rule:evenodd;stroke:#FF0000;stroke-width:2.0px;stroke-linecap:butt;stroke-linejoin:miter;stroke-opacity:1"/>
<path class="bond-26 atom-3 atom-27" d="M 185.9,87.2 L 210.3,105.9" style="fill:none;fill-rule:evenodd;stroke:#000000;stroke-width:2.0px;stroke-linecap:butt;stroke-linejoin:miter;stroke-opacity:1"/>
<path class="bond-27 atom-27 atom-28" d="M 210.6,108.2 L 222.6,103.2" style="fill:none;fill-rule:evenodd;stroke:#000000;stroke-width:2.0px;stroke-linecap:butt;stroke-linejoin:miter;stroke-opacity:1"/>
<path class="bond-27 atom-27 atom-28" d="M 222.6,103.2 L 234.5,98.2" style="fill:none;fill-rule:evenodd;stroke:#FF0000;stroke-width:2.0px;stroke-linecap:butt;stroke-linejoin:miter;stroke-opacity:1"/>
<path class="bond-27 atom-27 atom-28" d="M 208.2,104.3 L 220.8,99.0" style="fill:none;fill-rule:evenodd;stroke:#000000;stroke-width:2.0px;stroke-linecap:butt;stroke-linejoin:miter;stroke-opacity:1"/>
<path class="bond-27 atom-27 atom-28" d="M 220.8,99.0 L 232.8,94.0" style="fill:none;fill-rule:evenodd;stroke:#FF0000;stroke-width:2.0px;stroke-linecap:butt;stroke-linejoin:miter;stroke-opacity:1"/>
<path class="bond-28 atom-27 atom-29" d="M 210.3,105.9 L 210.9,111.3" style="fill:none;fill-rule:evenodd;stroke:#000000;stroke-width:2.0px;stroke-linecap:butt;stroke-linejoin:miter;stroke-opacity:1"/>
<path class="bond-28 atom-27 atom-29" d="M 210.9,111.3 L 211.6,116.7" style="fill:none;fill-rule:evenodd;stroke:#FF0000;stroke-width:2.0px;stroke-linecap:butt;stroke-linejoin:miter;stroke-opacity:1"/>
<path d="M 193.6,33.2 L 192.6,34.4 L 193.2,35.9" style="fill:none;stroke:#000000;stroke-width:2.0px;stroke-linecap:butt;stroke-linejoin:miter;stroke-opacity:1;"/>
<path d="M 203.9,61.4 L 204.5,62.8 L 203.6,64.0" style="fill:none;stroke:#000000;stroke-width:2.0px;stroke-linecap:butt;stroke-linejoin:miter;stroke-opacity:1;"/>
<path d="M 162.6,69.5 L 161.4,68.6 L 160.0,69.2" style="fill:none;stroke:#000000;stroke-width:2.0px;stroke-linecap:butt;stroke-linejoin:miter;stroke-opacity:1;"/>
<path d="M 180.5,118.3 L 181.9,117.7 L 183.2,118.6" style="fill:none;stroke:#000000;stroke-width:2.0px;stroke-linecap:butt;stroke-linejoin:miter;stroke-opacity:1;"/>
<path d="M 224.1,113.1 L 225.0,111.9 L 226.5,112.1" style="fill:none;stroke:#000000;stroke-width:2.0px;stroke-linecap:butt;stroke-linejoin:miter;stroke-opacity:1;"/>
<path d="M 254.0,115.6 L 255.5,115.8 L 256.4,114.6" style="fill:none;stroke:#000000;stroke-width:2.0px;stroke-linecap:butt;stroke-linejoin:miter;stroke-opacity:1;"/>
<path d="M 229.6,154.1 L 230.8,155.0 L 230.7,155.6" style="fill:none;stroke:#000000;stroke-width:2.0px;stroke-linecap:butt;stroke-linejoin:miter;stroke-opacity:1;"/>
<path d="M 112.0,149.7 L 112.6,151.1 L 112.3,151.6" style="fill:none;stroke:#000000;stroke-width:2.0px;stroke-linecap:butt;stroke-linejoin:miter;stroke-opacity:1;"/>
<path d="M 89.5,95.8 L 88.9,94.4 L 88.3,94.3" style="fill:none;stroke:#000000;stroke-width:2.0px;stroke-linecap:butt;stroke-linejoin:miter;stroke-opacity:1;"/>
<path d="M 209.1,104.9 L 210.3,105.9 L 210.3,106.1" style="fill:none;stroke:#000000;stroke-width:2.0px;stroke-linecap:butt;stroke-linejoin:miter;stroke-opacity:1;"/>
<path class="atom-18" d="M 255.2 143.2 Q 255.2 141.1, 256.2 139.9 Q 257.2 138.7, 259.2 138.7 Q 261.1 138.7, 262.1 139.9 Q 263.2 141.1, 263.2 143.2 Q 263.2 145.3, 262.1 146.5 Q 261.1 147.7, 259.2 147.7 Q 257.3 147.7, 256.2 146.5 Q 255.2 145.3, 255.2 143.2 M 259.2 146.7 Q 260.5 146.7, 261.2 145.8 Q 261.9 144.9, 261.9 143.2 Q 261.9 141.4, 261.2 140.6 Q 260.5 139.7, 259.2 139.7 Q 257.9 139.7, 257.1 140.6 Q 256.4 141.4, 256.4 143.2 Q 256.4 144.9, 257.1 145.8 Q 257.9 146.7, 259.2 146.7 " fill="#FF0000"/>
<path class="atom-19" d="M 222.9 185.5 Q 222.9 183.4, 223.9 182.2 Q 225.0 181.1, 226.9 181.1 Q 228.8 181.1, 229.9 182.2 Q 230.9 183.4, 230.9 185.5 Q 230.9 187.6, 229.9 188.8 Q 228.8 190.0, 226.9 190.0 Q 225.0 190.0, 223.9 188.8 Q 222.9 187.6, 222.9 185.5 M 226.9 189.0 Q 228.2 189.0, 228.9 188.1 Q 229.7 187.2, 229.7 185.5 Q 229.7 183.8, 228.9 182.9 Q 228.2 182.0, 226.9 182.0 Q 225.6 182.0, 224.9 182.9 Q 224.1 183.8, 224.1 185.5 Q 224.1 187.2, 224.9 188.1 Q 225.6 189.0, 226.9 189.0 " fill="#FF0000"/>
<path class="atom-19" d="M 232.3 181.2 L 233.4 181.2 L 233.4 184.9 L 237.9 184.9 L 237.9 181.2 L 239.1 181.2 L 239.1 189.9 L 237.9 189.9 L 237.9 185.8 L 233.4 185.8 L 233.4 189.9 L 232.3 189.9 L 232.3 181.2 " fill="#FF0000"/>
<path class="atom-23" d="M 81.4 171.3 L 82.6 171.3 L 82.6 175.0 L 87.0 175.0 L 87.0 171.3 L 88.2 171.3 L 88.2 180.0 L 87.0 180.0 L 87.0 176.0 L 82.6 176.0 L 82.6 180.0 L 81.4 180.0 L 81.4 171.3 " fill="#FF0000"/>
<path class="atom-23" d="M 90.0 175.6 Q 90.0 173.5, 91.0 172.3 Q 92.1 171.2, 94.0 171.2 Q 95.9 171.2, 97.0 172.3 Q 98.0 173.5, 98.0 175.6 Q 98.0 177.7, 97.0 178.9 Q 95.9 180.1, 94.0 180.1 Q 92.1 180.1, 91.0 178.9 Q 90.0 177.7, 90.0 175.6 M 94.0 179.1 Q 95.3 179.1, 96.0 178.2 Q 96.8 177.3, 96.8 175.6 Q 96.8 173.9, 96.0 173.0 Q 95.3 172.2, 94.0 172.2 Q 92.7 172.2, 92.0 173.0 Q 91.2 173.9, 91.2 175.6 Q 91.2 177.4, 92.0 178.2 Q 92.7 179.1, 94.0 179.1 " fill="#FF0000"/>
<path class="atom-25" d="M 97.5 73.0 Q 97.5 70.9, 98.5 69.7 Q 99.6 68.5, 101.5 68.5 Q 103.4 68.5, 104.5 69.7 Q 105.5 70.9, 105.5 73.0 Q 105.5 75.1, 104.5 76.3 Q 103.4 77.5, 101.5 77.5 Q 99.6 77.5, 98.5 76.3 Q 97.5 75.1, 97.5 73.0 M 101.5 76.5 Q 102.8 76.5, 103.5 75.6 Q 104.3 74.7, 104.3 73.0 Q 104.3 71.3, 103.5 70.4 Q 102.8 69.5, 101.5 69.5 Q 100.2 69.5, 99.5 70.4 Q 98.7 71.2, 98.7 73.0 Q 98.7 74.7, 99.5 75.6 Q 100.2 76.5, 101.5 76.5 " fill="#FF0000"/>
<path class="atom-26" d="M 45.9 86.2 L 47.1 86.2 L 47.1 89.9 L 51.5 89.9 L 51.5 86.2 L 52.7 86.2 L 52.7 94.9 L 51.5 94.9 L 51.5 90.9 L 47.1 90.9 L 47.1 94.9 L 45.9 94.9 L 45.9 86.2 " fill="#FF0000"/>
<path class="atom-26" d="M 54.5 90.5 Q 54.5 88.4, 55.5 87.3 Q 56.5 86.1, 58.5 86.1 Q 60.4 86.1, 61.4 87.3 Q 62.5 88.4, 62.5 90.5 Q 62.5 92.6, 61.4 93.9 Q 60.4 95.0, 58.5 95.0 Q 56.5 95.0, 55.5 93.9 Q 54.5 92.7, 54.5 90.5 M 58.5 94.1 Q 59.8 94.1, 60.5 93.2 Q 61.2 92.3, 61.2 90.5 Q 61.2 88.8, 60.5 88.0 Q 59.8 87.1, 58.5 87.1 Q 57.1 87.1, 56.4 88.0 Q 55.7 88.8, 55.7 90.5 Q 55.7 92.3, 56.4 93.2 Q 57.1 94.1, 58.5 94.1 " fill="#FF0000"/>
<path class="atom-28" d="M 234.7 94.0 Q 234.7 92.0, 235.7 90.8 Q 236.7 89.6, 238.7 89.6 Q 240.6 89.6, 241.6 90.8 Q 242.7 92.0, 242.7 94.0 Q 242.7 96.2, 241.6 97.4 Q 240.6 98.6, 238.7 98.6 Q 236.7 98.6, 235.7 97.4 Q 234.7 96.2, 234.7 94.0 M 238.7 97.6 Q 240.0 97.6, 240.7 96.7 Q 241.4 95.8, 241.4 94.0 Q 241.4 92.3, 240.7 91.5 Q 240.0 90.6, 238.7 90.6 Q 237.3 90.6, 236.6 91.5 Q 235.9 92.3, 235.9 94.0 Q 235.9 95.8, 236.6 96.7 Q 237.3 97.6, 238.7 97.6 " fill="#FF0000"/>
<path class="atom-29" d="M 208.2 122.1 Q 208.2 120.0, 209.2 118.9 Q 210.3 117.7, 212.2 117.7 Q 214.1 117.7, 215.2 118.9 Q 216.2 120.0, 216.2 122.1 Q 216.2 124.2, 215.1 125.4 Q 214.1 126.6, 212.2 126.6 Q 210.3 126.6, 209.2 125.4 Q 208.2 124.2, 208.2 122.1 M 212.2 125.6 Q 213.5 125.6, 214.2 124.8 Q 215.0 123.9, 215.0 122.1 Q 215.0 120.4, 214.2 119.5 Q 213.5 118.7, 212.2 118.7 Q 210.9 118.7, 210.1 119.5 Q 209.4 120.4, 209.4 122.1 Q 209.4 123.9, 210.1 124.8 Q 210.9 125.6, 212.2 125.6 " fill="#FF0000"/>
<path class="atom-29" d="M 217.5 117.8 L 218.7 117.8 L 218.7 121.5 L 223.2 121.5 L 223.2 117.8 L 224.4 117.8 L 224.4 126.5 L 223.2 126.5 L 223.2 122.5 L 218.7 122.5 L 218.7 126.5 L 217.5 126.5 L 217.5 117.8 " fill="#FF0000"/>
</g>
  </g>
</svg>
