<?xml version='1.0' encoding='ASCII' standalone='yes'?>
<svg xmlns="http://www.w3.org/2000/svg" xmlns:xlink="http://www.w3.org/1999/xlink" version="1.1" width="857.0px" viewBox="0 0 857.0 200.0" height="200.0px">
  <g>
    <g transform="translate(0, 0) scale(1 1) "><!-- END OF HEADER -->
<rect style="opacity:1.0;fill:#FFFFFF;stroke:none" width="265.0" height="200.0" x="0.0" y="0.0"> </rect>
<path class="bond-0 atom-0 atom-1" d="M 231.2,49.6 L 208.4,71.9" style="fill:none;fill-rule:evenodd;stroke:#000000;stroke-width:2.0px;stroke-linecap:butt;stroke-linejoin:miter;stroke-opacity:1"/>
<path class="bond-1 atom-1 atom-2" d="M 208.4,71.9 L 177.7,63.4" style="fill:none;fill-rule:evenodd;stroke:#000000;stroke-width:2.0px;stroke-linecap:butt;stroke-linejoin:miter;stroke-opacity:1"/>
<path class="bond-2 atom-2 atom-3" d="M 177.7,63.4 L 155.0,85.7" style="fill:none;fill-rule:evenodd;stroke:#000000;stroke-width:2.0px;stroke-linecap:butt;stroke-linejoin:miter;stroke-opacity:1"/>
<path class="bond-3 atom-3 atom-4" d="M 155.0,85.7 L 124.3,77.1" style="fill:none;fill-rule:evenodd;stroke:#000000;stroke-width:2.0px;stroke-linecap:butt;stroke-linejoin:miter;stroke-opacity:1"/>
<path class="bond-4 atom-4 atom-5" d="M 124.3,77.1 L 101.5,99.5" style="fill:none;fill-rule:evenodd;stroke:#000000;stroke-width:2.0px;stroke-linecap:butt;stroke-linejoin:miter;stroke-opacity:1"/>
<path class="bond-5 atom-5 atom-6" d="M 101.5,99.5 L 104.8,112.1" style="fill:none;fill-rule:evenodd;stroke:#000000;stroke-width:2.0px;stroke-linecap:butt;stroke-linejoin:miter;stroke-opacity:1"/>
<path class="bond-5 atom-5 atom-6" d="M 104.8,112.1 L 108.1,124.7" style="fill:none;fill-rule:evenodd;stroke:#FF0000;stroke-width:2.0px;stroke-linecap:butt;stroke-linejoin:miter;stroke-opacity:1"/>
<path class="bond-6 atom-5 atom-7" d="M 101.5,99.5 L 70.8,90.9" style="fill:none;fill-rule:evenodd;stroke:#000000;stroke-width:2.0px;stroke-linecap:butt;stroke-linejoin:miter;stroke-opacity:1"/>
<path class="bond-7 atom-7 atom-8" d="M 70.8,90.9 L 79.4,60.2" style="fill:none;fill-rule:evenodd;stroke:#000000;stroke-width:2.0px;stroke-linecap:butt;stroke-linejoin:miter;stroke-opacity:1"/>
<path class="bond-8 atom-7 atom-9" d="M 70.8,90.9 L 62.3,121.6" style="fill:none;fill-rule:evenodd;stroke:#000000;stroke-width:2.0px;stroke-linecap:butt;stroke-linejoin:miter;stroke-opacity:1"/>
<path class="bond-9 atom-7 atom-10" d="M 70.8,90.9 L 40.1,82.4" style="fill:none;fill-rule:evenodd;stroke:#000000;stroke-width:2.0px;stroke-linecap:butt;stroke-linejoin:miter;stroke-opacity:1"/>
<path class="bond-10 atom-10 atom-11" d="M 39.4,79.7 L 30.2,88.8" style="fill:none;fill-rule:evenodd;stroke:#000000;stroke-width:2.0px;stroke-linecap:butt;stroke-linejoin:miter;stroke-opacity:1"/>
<path class="bond-10 atom-10 atom-11" d="M 30.2,88.8 L 20.9,97.9" style="fill:none;fill-rule:evenodd;stroke:#FF0000;stroke-width:2.0px;stroke-linecap:butt;stroke-linejoin:miter;stroke-opacity:1"/>
<path class="bond-10 atom-10 atom-11" d="M 42.8,83.1 L 33.5,92.2" style="fill:none;fill-rule:evenodd;stroke:#000000;stroke-width:2.0px;stroke-linecap:butt;stroke-linejoin:miter;stroke-opacity:1"/>
<path class="bond-10 atom-10 atom-11" d="M 33.5,92.2 L 24.3,101.3" style="fill:none;fill-rule:evenodd;stroke:#FF0000;stroke-width:2.0px;stroke-linecap:butt;stroke-linejoin:miter;stroke-opacity:1"/>
<path class="bond-11 atom-10 atom-12" d="M 40.1,82.4 L 36.9,69.8" style="fill:none;fill-rule:evenodd;stroke:#000000;stroke-width:2.0px;stroke-linecap:butt;stroke-linejoin:miter;stroke-opacity:1"/>
<path class="bond-11 atom-10 atom-12" d="M 36.9,69.8 L 33.7,57.3" style="fill:none;fill-rule:evenodd;stroke:#FF0000;stroke-width:2.0px;stroke-linecap:butt;stroke-linejoin:miter;stroke-opacity:1"/>
<path class="bond-12 atom-1 atom-13" d="M 208.4,71.9 L 216.4,102.7" style="fill:none;fill-rule:evenodd;stroke:#000000;stroke-width:2.0px;stroke-linecap:butt;stroke-linejoin:miter;stroke-opacity:1"/>
<path class="bond-13 atom-13 atom-14" d="M 214.4,104.7 L 227.9,108.4" style="fill:none;fill-rule:evenodd;stroke:#000000;stroke-width:2.0px;stroke-linecap:butt;stroke-linejoin:miter;stroke-opacity:1"/>
<path class="bond-13 atom-13 atom-14" d="M 227.9,108.4 L 241.3,112.1" style="fill:none;fill-rule:evenodd;stroke:#FF0000;stroke-width:2.0px;stroke-linecap:butt;stroke-linejoin:miter;stroke-opacity:1"/>
<path class="bond-13 atom-13 atom-14" d="M 215.7,100.1 L 229.1,103.8" style="fill:none;fill-rule:evenodd;stroke:#000000;stroke-width:2.0px;stroke-linecap:butt;stroke-linejoin:miter;stroke-opacity:1"/>
<path class="bond-13 atom-13 atom-14" d="M 229.1,103.8 L 242.6,107.5" style="fill:none;fill-rule:evenodd;stroke:#FF0000;stroke-width:2.0px;stroke-linecap:butt;stroke-linejoin:miter;stroke-opacity:1"/>
<path class="bond-14 atom-13 atom-15" d="M 216.4,102.7 L 207.6,111.4" style="fill:none;fill-rule:evenodd;stroke:#000000;stroke-width:2.0px;stroke-linecap:butt;stroke-linejoin:miter;stroke-opacity:1"/>
<path class="bond-14 atom-13 atom-15" d="M 207.6,111.4 L 198.9,120.0" style="fill:none;fill-rule:evenodd;stroke:#FF0000;stroke-width:2.0px;stroke-linecap:butt;stroke-linejoin:miter;stroke-opacity:1"/>
<path d="M 179.3,63.8 L 177.7,63.4 L 176.6,64.5" style="fill:none;stroke:#000000;stroke-width:2.0px;stroke-linecap:butt;stroke-linejoin:miter;stroke-opacity:1;"/>
<path d="M 156.1,84.6 L 155.0,85.7 L 153.5,85.2" style="fill:none;stroke:#000000;stroke-width:2.0px;stroke-linecap:butt;stroke-linejoin:miter;stroke-opacity:1;"/>
<path d="M 125.8,77.6 L 124.3,77.1 L 123.2,78.3" style="fill:none;stroke:#000000;stroke-width:2.0px;stroke-linecap:butt;stroke-linejoin:miter;stroke-opacity:1;"/>
<path d="M 41.7,82.8 L 40.1,82.4 L 40.0,81.8" style="fill:none;stroke:#000000;stroke-width:2.0px;stroke-linecap:butt;stroke-linejoin:miter;stroke-opacity:1;"/>
<path d="M 216.0,101.2 L 216.4,102.7 L 216.0,103.2" style="fill:none;stroke:#000000;stroke-width:2.0px;stroke-linecap:butt;stroke-linejoin:miter;stroke-opacity:1;"/>
<path class="atom-6" d="M 105.4 130.3 Q 105.4 128.2, 106.4 127.0 Q 107.5 125.8, 109.5 125.8 Q 111.5 125.8, 112.6 127.0 Q 113.6 128.2, 113.6 130.3 Q 113.6 132.5, 112.6 133.8 Q 111.5 135.0, 109.5 135.0 Q 107.5 135.0, 106.4 133.8 Q 105.4 132.6, 105.4 130.3 M 109.5 134.0 Q 110.9 134.0, 111.6 133.1 Q 112.4 132.2, 112.4 130.3 Q 112.4 128.6, 111.6 127.7 Q 110.9 126.8, 109.5 126.8 Q 108.1 126.8, 107.4 127.7 Q 106.6 128.6, 106.6 130.3 Q 106.6 132.2, 107.4 133.1 Q 108.1 134.0, 109.5 134.0 " fill="#FF0000"/>
<path class="atom-6" d="M 115.1 125.9 L 116.3 125.9 L 116.3 129.7 L 120.9 129.7 L 120.9 125.9 L 122.1 125.9 L 122.1 134.9 L 120.9 134.9 L 120.9 130.7 L 116.3 130.7 L 116.3 134.9 L 115.1 134.9 L 115.1 125.9 " fill="#FF0000"/>
<path class="atom-11" d="M 13.3 104.7 Q 13.3 102.6, 14.3 101.4 Q 15.4 100.2, 17.4 100.2 Q 19.4 100.2, 20.5 101.4 Q 21.5 102.6, 21.5 104.7 Q 21.5 106.9, 20.5 108.2 Q 19.4 109.4, 17.4 109.4 Q 15.4 109.4, 14.3 108.2 Q 13.3 106.9, 13.3 104.7 M 17.4 108.4 Q 18.8 108.4, 19.5 107.5 Q 20.3 106.6, 20.3 104.7 Q 20.3 103.0, 19.5 102.1 Q 18.8 101.2, 17.4 101.2 Q 16.0 101.2, 15.3 102.1 Q 14.5 103.0, 14.5 104.7 Q 14.5 106.6, 15.3 107.5 Q 16.0 108.4, 17.4 108.4 " fill="#FF0000"/>
<path class="atom-12" d="M 28.0 51.6 Q 28.0 49.4, 29.1 48.2 Q 30.2 47.0, 32.2 47.0 Q 34.2 47.0, 35.2 48.2 Q 36.3 49.4, 36.3 51.6 Q 36.3 53.8, 35.2 55.0 Q 34.2 56.2, 32.2 56.2 Q 30.2 56.2, 29.1 55.0 Q 28.0 53.8, 28.0 51.6 M 32.2 55.2 Q 33.6 55.2, 34.3 54.3 Q 35.0 53.4, 35.0 51.6 Q 35.0 49.8, 34.3 48.9 Q 33.6 48.0, 32.2 48.0 Q 30.8 48.0, 30.0 48.9 Q 29.3 49.8, 29.3 51.6 Q 29.3 53.4, 30.0 54.3 Q 30.8 55.2, 32.2 55.2 " fill="#FF0000"/>
<path class="atom-12" d="M 37.7 47.1 L 38.9 47.1 L 38.9 50.9 L 43.6 50.9 L 43.6 47.1 L 44.8 47.1 L 44.8 56.1 L 43.6 56.1 L 43.6 51.9 L 38.9 51.9 L 38.9 56.1 L 37.7 56.1 L 37.7 47.1 " fill="#FF0000"/>
<path class="atom-14" d="M 243.0 111.3 Q 243.0 109.1, 244.0 107.9 Q 245.1 106.7, 247.1 106.7 Q 249.1 106.7, 250.2 107.9 Q 251.2 109.1, 251.2 111.3 Q 251.2 113.5, 250.2 114.7 Q 249.1 116.0, 247.1 116.0 Q 245.1 116.0, 244.0 114.7 Q 243.0 113.5, 243.0 111.3 M 247.1 115.0 Q 248.5 115.0, 249.2 114.0 Q 250.0 113.1, 250.0 111.3 Q 250.0 109.5, 249.2 108.6 Q 248.5 107.7, 247.1 107.7 Q 245.7 107.7, 245.0 108.6 Q 244.2 109.5, 244.2 111.3 Q 244.2 113.1, 245.0 114.0 Q 245.7 115.0, 247.1 115.0 " fill="#FF0000"/>
<path class="atom-15" d="M 180.6 120.6 L 181.8 120.6 L 181.8 124.4 L 186.4 124.4 L 186.4 120.6 L 187.7 120.6 L 187.7 129.6 L 186.4 129.6 L 186.4 125.5 L 181.8 125.5 L 181.8 129.6 L 180.6 129.6 L 180.6 120.6 " fill="#FF0000"/>
<path class="atom-15" d="M 189.5 125.1 Q 189.5 122.9, 190.6 121.7 Q 191.7 120.5, 193.7 120.5 Q 195.7 120.5, 196.7 121.7 Q 197.8 122.9, 197.8 125.1 Q 197.8 127.3, 196.7 128.5 Q 195.6 129.8, 193.7 129.8 Q 191.7 129.8, 190.6 128.5 Q 189.5 127.3, 189.5 125.1 M 193.7 128.8 Q 195.0 128.8, 195.8 127.8 Q 196.5 126.9, 196.5 125.1 Q 196.5 123.3, 195.8 122.4 Q 195.0 121.5, 193.7 121.5 Q 192.3 121.5, 191.5 122.4 Q 190.8 123.3, 190.8 125.1 Q 190.8 126.9, 191.5 127.8 Q 192.3 128.8, 193.7 128.8 " fill="#FF0000"/>
<path class="legend" d="M 123.7 181.9 Q 123.7 179.6, 124.4 177.7 Q 125.1 175.8, 126.4 173.8 L 127.3 174.4 Q 126.2 176.3, 125.7 178.0 Q 125.2 179.7, 125.2 181.9 Q 125.2 184.0, 125.7 185.8 Q 126.2 187.5, 127.3 189.4 L 126.4 190.0 Q 125.1 188.0, 124.4 186.1 Q 123.7 184.2, 123.7 181.9 " fill="#000000"/>
<path class="legend" d="M 128.2 177.3 Q 128.6 176.2, 129.6 175.6 Q 130.6 175.0, 132.0 175.0 Q 133.7 175.0, 134.6 175.9 Q 135.6 176.8, 135.6 178.5 Q 135.6 180.2, 134.3 181.7 Q 133.1 183.3, 130.6 185.2 L 135.8 185.2 L 135.8 186.4 L 128.2 186.4 L 128.2 185.4 Q 130.3 183.9, 131.5 182.8 Q 132.8 181.6, 133.4 180.6 Q 134.0 179.6, 134.0 178.6 Q 134.0 177.5, 133.4 176.9 Q 132.9 176.3, 132.0 176.3 Q 131.1 176.3, 130.4 176.6 Q 129.8 177.0, 129.4 177.8 L 128.2 177.3 " fill="#000000"/>
<path class="legend" d="M 140.8 181.9 Q 140.8 184.2, 140.1 186.1 Q 139.4 188.0, 138.1 190.0 L 137.2 189.4 Q 138.3 187.5, 138.8 185.8 Q 139.3 184.0, 139.3 181.9 Q 139.3 179.7, 138.8 178.0 Q 138.3 176.3, 137.2 174.4 L 138.1 173.8 Q 139.4 175.8, 140.1 177.7 Q 140.8 179.6, 140.8 181.9 " fill="#000000"/>
</g>
    <g transform="translate(265.0, 0) scale(1 1) "><line x1="5" y1="100" x2="35" y2="100" style="stroke:rgb(0,0,0);stroke-width:2"/>
  <line x1="34" y1="100" x2="29" y2="95" style="stroke:rgb(0,0,0);stroke-width:2"/>
  <line x1="34" y1="100" x2="29" y2="105" style="stroke:rgb(0,0,0);stroke-width:2"/>
</g>
    <g transform="translate(305.0, 0) scale(1 1) "><!-- END OF HEADER -->
<rect style="opacity:1.0;fill:#FFFFFF;stroke:none" width="297.0" height="200.0" x="0.0" y="0.0"> </rect>
<path class="bond-0 atom-0 atom-1" d="M 271.6,67.8 L 252.2,83.1" style="fill:none;fill-rule:evenodd;stroke:#000000;stroke-width:2.0px;stroke-linecap:butt;stroke-linejoin:miter;stroke-opacity:1"/>
<path class="bond-1 atom-1 atom-2" d="M 252.2,83.1 L 229.3,73.9" style="fill:none;fill-rule:evenodd;stroke:#000000;stroke-width:2.0px;stroke-linecap:butt;stroke-linejoin:miter;stroke-opacity:1"/>
<path class="bond-2 atom-2 atom-3" d="M 229.3,73.9 L 210.0,89.2" style="fill:none;fill-rule:evenodd;stroke:#000000;stroke-width:2.0px;stroke-linecap:butt;stroke-linejoin:miter;stroke-opacity:1"/>
<path class="bond-3 atom-3 atom-4" d="M 210.0,89.2 L 187.1,80.1" style="fill:none;fill-rule:evenodd;stroke:#000000;stroke-width:2.0px;stroke-linecap:butt;stroke-linejoin:miter;stroke-opacity:1"/>
<path class="bond-4 atom-4 atom-5" d="M 187.1,80.1 L 167.7,95.3" style="fill:none;fill-rule:evenodd;stroke:#000000;stroke-width:2.0px;stroke-linecap:butt;stroke-linejoin:miter;stroke-opacity:1"/>
<path class="bond-5 atom-5 atom-6" d="M 167.7,95.3 L 144.8,86.2" style="fill:none;fill-rule:evenodd;stroke:#000000;stroke-width:2.0px;stroke-linecap:butt;stroke-linejoin:miter;stroke-opacity:1"/>
<path class="bond-6 atom-6 atom-7" d="M 144.8,86.2 L 125.5,101.4" style="fill:none;fill-rule:evenodd;stroke:#000000;stroke-width:2.0px;stroke-linecap:butt;stroke-linejoin:miter;stroke-opacity:1"/>
<path class="bond-7 atom-7 atom-8" d="M 125.5,101.4 L 102.6,92.3" style="fill:none;fill-rule:evenodd;stroke:#000000;stroke-width:2.0px;stroke-linecap:butt;stroke-linejoin:miter;stroke-opacity:1"/>
<path class="bond-8 atom-8 atom-9" d="M 102.6,92.3 L 83.2,107.6" style="fill:none;fill-rule:evenodd;stroke:#000000;stroke-width:2.0px;stroke-linecap:butt;stroke-linejoin:miter;stroke-opacity:1"/>
<path class="bond-9 atom-9 atom-10" d="M 83.2,107.6 L 84.7,117.6" style="fill:none;fill-rule:evenodd;stroke:#000000;stroke-width:2.0px;stroke-linecap:butt;stroke-linejoin:miter;stroke-opacity:1"/>
<path class="bond-9 atom-9 atom-10" d="M 84.7,117.6 L 86.1,127.6" style="fill:none;fill-rule:evenodd;stroke:#FF0000;stroke-width:2.0px;stroke-linecap:butt;stroke-linejoin:miter;stroke-opacity:1"/>
<path class="bond-10 atom-9 atom-11" d="M 83.2,107.6 L 60.3,98.4" style="fill:none;fill-rule:evenodd;stroke:#000000;stroke-width:2.0px;stroke-linecap:butt;stroke-linejoin:miter;stroke-opacity:1"/>
<path class="bond-11 atom-11 atom-12" d="M 60.3,98.4 L 69.4,75.5" style="fill:none;fill-rule:evenodd;stroke:#000000;stroke-width:2.0px;stroke-linecap:butt;stroke-linejoin:miter;stroke-opacity:1"/>
<path class="bond-12 atom-11 atom-13" d="M 60.3,98.4 L 51.2,121.3" style="fill:none;fill-rule:evenodd;stroke:#000000;stroke-width:2.0px;stroke-linecap:butt;stroke-linejoin:miter;stroke-opacity:1"/>
<path class="bond-13 atom-11 atom-14" d="M 60.3,98.4 L 37.4,89.3" style="fill:none;fill-rule:evenodd;stroke:#000000;stroke-width:2.0px;stroke-linecap:butt;stroke-linejoin:miter;stroke-opacity:1"/>
<path class="bond-14 atom-14 atom-15" d="M 37.1,87.2 L 29.0,93.6" style="fill:none;fill-rule:evenodd;stroke:#000000;stroke-width:2.0px;stroke-linecap:butt;stroke-linejoin:miter;stroke-opacity:1"/>
<path class="bond-14 atom-14 atom-15" d="M 29.0,93.6 L 20.9,100.0" style="fill:none;fill-rule:evenodd;stroke:#FF0000;stroke-width:2.0px;stroke-linecap:butt;stroke-linejoin:miter;stroke-opacity:1"/>
<path class="bond-14 atom-14 atom-15" d="M 39.4,90.1 L 31.3,96.5" style="fill:none;fill-rule:evenodd;stroke:#000000;stroke-width:2.0px;stroke-linecap:butt;stroke-linejoin:miter;stroke-opacity:1"/>
<path class="bond-14 atom-14 atom-15" d="M 31.3,96.5 L 23.2,102.9" style="fill:none;fill-rule:evenodd;stroke:#FF0000;stroke-width:2.0px;stroke-linecap:butt;stroke-linejoin:miter;stroke-opacity:1"/>
<path class="bond-15 atom-14 atom-16" d="M 37.4,89.3 L 36.0,79.3" style="fill:none;fill-rule:evenodd;stroke:#000000;stroke-width:2.0px;stroke-linecap:butt;stroke-linejoin:miter;stroke-opacity:1"/>
<path class="bond-15 atom-14 atom-16" d="M 36.0,79.3 L 34.5,69.4" style="fill:none;fill-rule:evenodd;stroke:#FF0000;stroke-width:2.0px;stroke-linecap:butt;stroke-linejoin:miter;stroke-opacity:1"/>
<path class="bond-16 atom-5 atom-17" d="M 167.7,95.3 L 171.2,119.7" style="fill:none;fill-rule:evenodd;stroke:#000000;stroke-width:2.0px;stroke-linecap:butt;stroke-linejoin:miter;stroke-opacity:1"/>
<path class="bond-17 atom-17 atom-18" d="M 169.6,121.0 L 179.5,125.0" style="fill:none;fill-rule:evenodd;stroke:#000000;stroke-width:2.0px;stroke-linecap:butt;stroke-linejoin:miter;stroke-opacity:1"/>
<path class="bond-17 atom-17 atom-18" d="M 179.5,125.0 L 189.4,129.0" style="fill:none;fill-rule:evenodd;stroke:#FF0000;stroke-width:2.0px;stroke-linecap:butt;stroke-linejoin:miter;stroke-opacity:1"/>
<path class="bond-17 atom-17 atom-18" d="M 170.9,117.6 L 180.9,121.6" style="fill:none;fill-rule:evenodd;stroke:#000000;stroke-width:2.0px;stroke-linecap:butt;stroke-linejoin:miter;stroke-opacity:1"/>
<path class="bond-17 atom-17 atom-18" d="M 180.9,121.6 L 190.8,125.5" style="fill:none;fill-rule:evenodd;stroke:#FF0000;stroke-width:2.0px;stroke-linecap:butt;stroke-linejoin:miter;stroke-opacity:1"/>
<path class="bond-18 atom-17 atom-19" d="M 171.2,119.7 L 163.6,125.8" style="fill:none;fill-rule:evenodd;stroke:#000000;stroke-width:2.0px;stroke-linecap:butt;stroke-linejoin:miter;stroke-opacity:1"/>
<path class="bond-18 atom-17 atom-19" d="M 163.6,125.8 L 155.9,131.8" style="fill:none;fill-rule:evenodd;stroke:#FF0000;stroke-width:2.0px;stroke-linecap:butt;stroke-linejoin:miter;stroke-opacity:1"/>
<path class="bond-19 atom-1 atom-20" d="M 252.2,83.1 L 255.8,107.5" style="fill:none;fill-rule:evenodd;stroke:#000000;stroke-width:2.0px;stroke-linecap:butt;stroke-linejoin:miter;stroke-opacity:1"/>
<path class="bond-20 atom-20 atom-21" d="M 254.1,108.8 L 264.0,112.7" style="fill:none;fill-rule:evenodd;stroke:#000000;stroke-width:2.0px;stroke-linecap:butt;stroke-linejoin:miter;stroke-opacity:1"/>
<path class="bond-20 atom-20 atom-21" d="M 264.0,112.7 L 273.9,116.7" style="fill:none;fill-rule:evenodd;stroke:#FF0000;stroke-width:2.0px;stroke-linecap:butt;stroke-linejoin:miter;stroke-opacity:1"/>
<path class="bond-20 atom-20 atom-21" d="M 255.4,105.3 L 265.4,109.3" style="fill:none;fill-rule:evenodd;stroke:#000000;stroke-width:2.0px;stroke-linecap:butt;stroke-linejoin:miter;stroke-opacity:1"/>
<path class="bond-20 atom-20 atom-21" d="M 265.4,109.3 L 275.3,113.3" style="fill:none;fill-rule:evenodd;stroke:#FF0000;stroke-width:2.0px;stroke-linecap:butt;stroke-linejoin:miter;stroke-opacity:1"/>
<path class="bond-21 atom-20 atom-22" d="M 255.8,107.5 L 248.1,113.5" style="fill:none;fill-rule:evenodd;stroke:#000000;stroke-width:2.0px;stroke-linecap:butt;stroke-linejoin:miter;stroke-opacity:1"/>
<path class="bond-21 atom-20 atom-22" d="M 248.1,113.5 L 240.4,119.6" style="fill:none;fill-rule:evenodd;stroke:#FF0000;stroke-width:2.0px;stroke-linecap:butt;stroke-linejoin:miter;stroke-opacity:1"/>
<path d="M 230.5,74.4 L 229.3,73.9 L 228.3,74.7" style="fill:none;stroke:#000000;stroke-width:2.0px;stroke-linecap:butt;stroke-linejoin:miter;stroke-opacity:1;"/>
<path d="M 210.9,88.4 L 210.0,89.2 L 208.8,88.7" style="fill:none;stroke:#000000;stroke-width:2.0px;stroke-linecap:butt;stroke-linejoin:miter;stroke-opacity:1;"/>
<path d="M 188.2,80.5 L 187.1,80.1 L 186.1,80.8" style="fill:none;stroke:#000000;stroke-width:2.0px;stroke-linecap:butt;stroke-linejoin:miter;stroke-opacity:1;"/>
<path d="M 146.0,86.6 L 144.8,86.2 L 143.8,87.0" style="fill:none;stroke:#000000;stroke-width:2.0px;stroke-linecap:butt;stroke-linejoin:miter;stroke-opacity:1;"/>
<path d="M 126.4,100.7 L 125.5,101.4 L 124.3,101.0" style="fill:none;stroke:#000000;stroke-width:2.0px;stroke-linecap:butt;stroke-linejoin:miter;stroke-opacity:1;"/>
<path d="M 103.7,92.8 L 102.6,92.3 L 101.6,93.1" style="fill:none;stroke:#000000;stroke-width:2.0px;stroke-linecap:butt;stroke-linejoin:miter;stroke-opacity:1;"/>
<path d="M 38.6,89.8 L 37.4,89.3 L 37.3,88.8" style="fill:none;stroke:#000000;stroke-width:2.0px;stroke-linecap:butt;stroke-linejoin:miter;stroke-opacity:1;"/>
<path d="M 171.1,118.5 L 171.2,119.7 L 170.9,120.0" style="fill:none;stroke:#000000;stroke-width:2.0px;stroke-linecap:butt;stroke-linejoin:miter;stroke-opacity:1;"/>
<path d="M 255.6,106.2 L 255.8,107.5 L 255.4,107.8" style="fill:none;stroke:#000000;stroke-width:2.0px;stroke-linecap:butt;stroke-linejoin:miter;stroke-opacity:1;"/>
<path class="atom-10" d="M 83.5 132.0 Q 83.5 130.3, 84.4 129.4 Q 85.2 128.4, 86.7 128.4 Q 88.3 128.4, 89.1 129.4 Q 89.9 130.3, 89.9 132.0 Q 89.9 133.7, 89.1 134.7 Q 88.3 135.6, 86.7 135.6 Q 85.2 135.6, 84.4 134.7 Q 83.5 133.7, 83.5 132.0 M 86.7 134.8 Q 87.8 134.8, 88.4 134.1 Q 89.0 133.4, 89.0 132.0 Q 89.0 130.6, 88.4 129.9 Q 87.8 129.2, 86.7 129.2 Q 85.7 129.2, 85.1 129.9 Q 84.5 130.6, 84.5 132.0 Q 84.5 133.4, 85.1 134.1 Q 85.7 134.8, 86.7 134.8 " fill="#FF0000"/>
<path class="atom-10" d="M 91.0 128.5 L 92.0 128.5 L 92.0 131.5 L 95.5 131.5 L 95.5 128.5 L 96.5 128.5 L 96.5 135.5 L 95.5 135.5 L 95.5 132.3 L 92.0 132.3 L 92.0 135.5 L 91.0 135.5 L 91.0 128.5 " fill="#FF0000"/>
<path class="atom-15" d="M 14.8 104.6 Q 14.8 102.9, 15.7 102.0 Q 16.5 101.0, 18.1 101.0 Q 19.6 101.0, 20.4 102.0 Q 21.3 102.9, 21.3 104.6 Q 21.3 106.3, 20.4 107.3 Q 19.6 108.2, 18.1 108.2 Q 16.5 108.2, 15.7 107.3 Q 14.8 106.3, 14.8 104.6 M 18.1 107.4 Q 19.1 107.4, 19.7 106.7 Q 20.3 106.0, 20.3 104.6 Q 20.3 103.2, 19.7 102.5 Q 19.1 101.8, 18.1 101.8 Q 17.0 101.8, 16.4 102.5 Q 15.8 103.2, 15.8 104.6 Q 15.8 106.0, 16.4 106.7 Q 17.0 107.4, 18.1 107.4 " fill="#FF0000"/>
<path class="atom-16" d="M 30.7 64.9 Q 30.7 63.3, 31.5 62.3 Q 32.3 61.4, 33.9 61.4 Q 35.4 61.4, 36.2 62.3 Q 37.1 63.3, 37.1 64.9 Q 37.1 66.6, 36.2 67.6 Q 35.4 68.6, 33.9 68.6 Q 32.3 68.6, 31.5 67.6 Q 30.7 66.6, 30.7 64.9 M 33.9 67.8 Q 34.9 67.8, 35.5 67.1 Q 36.1 66.3, 36.1 64.9 Q 36.1 63.6, 35.5 62.9 Q 34.9 62.2, 33.9 62.2 Q 32.8 62.2, 32.2 62.9 Q 31.7 63.6, 31.7 64.9 Q 31.7 66.3, 32.2 67.1 Q 32.8 67.8, 33.9 67.8 " fill="#FF0000"/>
<path class="atom-16" d="M 38.2 61.5 L 39.1 61.5 L 39.1 64.4 L 42.7 64.4 L 42.7 61.5 L 43.6 61.5 L 43.6 68.4 L 42.7 68.4 L 42.7 65.2 L 39.1 65.2 L 39.1 68.4 L 38.2 68.4 L 38.2 61.5 " fill="#FF0000"/>
<path class="atom-18" d="M 190.9 128.9 Q 190.9 127.2, 191.8 126.3 Q 192.6 125.3, 194.1 125.3 Q 195.7 125.3, 196.5 126.3 Q 197.3 127.2, 197.3 128.9 Q 197.3 130.6, 196.5 131.5 Q 195.7 132.5, 194.1 132.5 Q 192.6 132.5, 191.8 131.5 Q 190.9 130.6, 190.9 128.9 M 194.1 131.7 Q 195.2 131.7, 195.8 131.0 Q 196.4 130.3, 196.4 128.9 Q 196.4 127.5, 195.8 126.8 Q 195.2 126.1, 194.1 126.1 Q 193.1 126.1, 192.5 126.8 Q 191.9 127.5, 191.9 128.9 Q 191.9 130.3, 192.5 131.0 Q 193.1 131.7, 194.1 131.7 " fill="#FF0000"/>
<path class="atom-19" d="M 141.8 131.5 L 142.7 131.5 L 142.7 134.5 L 146.3 134.5 L 146.3 131.5 L 147.3 131.5 L 147.3 138.5 L 146.3 138.5 L 146.3 135.3 L 142.7 135.3 L 142.7 138.5 L 141.8 138.5 L 141.8 131.5 " fill="#FF0000"/>
<path class="atom-19" d="M 148.7 135.0 Q 148.7 133.3, 149.5 132.4 Q 150.3 131.4, 151.9 131.4 Q 153.4 131.4, 154.3 132.4 Q 155.1 133.3, 155.1 135.0 Q 155.1 136.7, 154.3 137.7 Q 153.4 138.6, 151.9 138.6 Q 150.3 138.6, 149.5 137.7 Q 148.7 136.7, 148.7 135.0 M 151.9 137.8 Q 153.0 137.8, 153.5 137.1 Q 154.1 136.4, 154.1 135.0 Q 154.1 133.6, 153.5 132.9 Q 153.0 132.2, 151.9 132.2 Q 150.8 132.2, 150.2 132.9 Q 149.7 133.6, 149.7 135.0 Q 149.7 136.4, 150.2 137.1 Q 150.8 137.8, 151.9 137.8 " fill="#FF0000"/>
<path class="atom-21" d="M 275.4 116.6 Q 275.4 114.9, 276.3 114.0 Q 277.1 113.1, 278.6 113.1 Q 280.2 113.1, 281.0 114.0 Q 281.9 114.9, 281.9 116.6 Q 281.9 118.3, 281.0 119.3 Q 280.2 120.2, 278.6 120.2 Q 277.1 120.2, 276.3 119.3 Q 275.4 118.3, 275.4 116.6 M 278.6 119.4 Q 279.7 119.4, 280.3 118.7 Q 280.9 118.0, 280.9 116.6 Q 280.9 115.2, 280.3 114.6 Q 279.7 113.9, 278.6 113.9 Q 277.6 113.9, 277.0 114.5 Q 276.4 115.2, 276.4 116.6 Q 276.4 118.0, 277.0 118.7 Q 277.6 119.4, 278.6 119.4 " fill="#FF0000"/>
<path class="atom-22" d="M 226.3 119.3 L 227.2 119.3 L 227.2 122.2 L 230.8 122.2 L 230.8 119.3 L 231.8 119.3 L 231.8 126.2 L 230.8 126.2 L 230.8 123.0 L 227.2 123.0 L 227.2 126.2 L 226.3 126.2 L 226.3 119.3 " fill="#FF0000"/>
<path class="atom-22" d="M 233.2 122.7 Q 233.2 121.1, 234.0 120.1 Q 234.8 119.2, 236.4 119.2 Q 237.9 119.2, 238.8 120.1 Q 239.6 121.1, 239.6 122.7 Q 239.6 124.4, 238.8 125.4 Q 237.9 126.4, 236.4 126.4 Q 234.9 126.4, 234.0 125.4 Q 233.2 124.4, 233.2 122.7 M 236.4 125.6 Q 237.5 125.6, 238.0 124.9 Q 238.6 124.1, 238.6 122.7 Q 238.6 121.4, 238.0 120.7 Q 237.5 120.0, 236.4 120.0 Q 235.3 120.0, 234.7 120.7 Q 234.2 121.4, 234.2 122.7 Q 234.2 124.1, 234.7 124.9 Q 235.3 125.6, 236.4 125.6 " fill="#FF0000"/>
</g>
    <g transform="translate(602.0, 0) scale(1 1) "><line x1="15" y1="100" x2="25" y2="100" style="stroke:rgb(0,0,0);stroke-width:2"/>
  <line x1="20" y1="95" x2="20" y2="105" style="stroke:rgb(0,0,0);stroke-width:2"/>
</g>
    <g transform="translate(642.0, 0) scale(1 1) "><!-- END OF HEADER -->
<rect style="opacity:1.0;fill:#FFFFFF;stroke:none" width="215.0" height="200.0" x="0.0" y="0.0"> </rect>
<path class="bond-0 atom-0 atom-1" d="M 183.7,56.0 L 158.3,99.9" style="fill:none;fill-rule:evenodd;stroke:#000000;stroke-width:2.0px;stroke-linecap:butt;stroke-linejoin:miter;stroke-opacity:1"/>
<path class="bond-1 atom-1 atom-2" d="M 158.3,99.9 L 168.4,117.4" style="fill:none;fill-rule:evenodd;stroke:#000000;stroke-width:2.0px;stroke-linecap:butt;stroke-linejoin:miter;stroke-opacity:1"/>
<path class="bond-1 atom-1 atom-2" d="M 168.4,117.4 L 178.5,134.9" style="fill:none;fill-rule:evenodd;stroke:#FF0000;stroke-width:2.0px;stroke-linecap:butt;stroke-linejoin:miter;stroke-opacity:1"/>
<path class="bond-2 atom-1 atom-3" d="M 158.3,99.9 L 107.6,99.9" style="fill:none;fill-rule:evenodd;stroke:#000000;stroke-width:2.0px;stroke-linecap:butt;stroke-linejoin:miter;stroke-opacity:1"/>
<path class="bond-3 atom-3 atom-4" d="M 107.6,99.9 L 107.6,49.2" style="fill:none;fill-rule:evenodd;stroke:#000000;stroke-width:2.0px;stroke-linecap:butt;stroke-linejoin:miter;stroke-opacity:1"/>
<path class="bond-4 atom-3 atom-5" d="M 107.6,99.9 L 107.6,150.6" style="fill:none;fill-rule:evenodd;stroke:#000000;stroke-width:2.0px;stroke-linecap:butt;stroke-linejoin:miter;stroke-opacity:1"/>
<path class="bond-5 atom-3 atom-6" d="M 107.6,99.9 L 56.9,99.9" style="fill:none;fill-rule:evenodd;stroke:#000000;stroke-width:2.0px;stroke-linecap:butt;stroke-linejoin:miter;stroke-opacity:1"/>
<path class="bond-6 atom-6 atom-7" d="M 54.7,96.1 L 44.0,114.5" style="fill:none;fill-rule:evenodd;stroke:#000000;stroke-width:2.0px;stroke-linecap:butt;stroke-linejoin:miter;stroke-opacity:1"/>
<path class="bond-6 atom-6 atom-7" d="M 44.0,114.5 L 33.4,133.0" style="fill:none;fill-rule:evenodd;stroke:#FF0000;stroke-width:2.0px;stroke-linecap:butt;stroke-linejoin:miter;stroke-opacity:1"/>
<path class="bond-6 atom-6 atom-7" d="M 61.3,99.9 L 50.6,118.3" style="fill:none;fill-rule:evenodd;stroke:#000000;stroke-width:2.0px;stroke-linecap:butt;stroke-linejoin:miter;stroke-opacity:1"/>
<path class="bond-6 atom-6 atom-7" d="M 50.6,118.3 L 40.0,136.8" style="fill:none;fill-rule:evenodd;stroke:#FF0000;stroke-width:2.0px;stroke-linecap:butt;stroke-linejoin:miter;stroke-opacity:1"/>
<path class="bond-7 atom-6 atom-8" d="M 56.9,99.9 L 46.9,82.5" style="fill:none;fill-rule:evenodd;stroke:#000000;stroke-width:2.0px;stroke-linecap:butt;stroke-linejoin:miter;stroke-opacity:1"/>
<path class="bond-7 atom-6 atom-8" d="M 46.9,82.5 L 36.8,65.1" style="fill:none;fill-rule:evenodd;stroke:#FF0000;stroke-width:2.0px;stroke-linecap:butt;stroke-linejoin:miter;stroke-opacity:1"/>
<path d="M 59.4,99.9 L 56.9,99.9 L 56.4,99.0" style="fill:none;stroke:#000000;stroke-width:2.0px;stroke-linecap:butt;stroke-linejoin:miter;stroke-opacity:1;"/>
<path class="atom-2" d="M 177.1 143.9 Q 177.1 140.4, 178.8 138.5 Q 180.5 136.5, 183.7 136.5 Q 186.9 136.5, 188.6 138.5 Q 190.3 140.4, 190.3 143.9 Q 190.3 147.3, 188.6 149.3 Q 186.8 151.3, 183.7 151.3 Q 180.5 151.3, 178.8 149.3 Q 177.1 147.4, 177.1 143.9 M 183.7 149.7 Q 185.9 149.7, 187.0 148.2 Q 188.2 146.7, 188.2 143.9 Q 188.2 141.0, 187.0 139.6 Q 185.9 138.2, 183.7 138.2 Q 181.5 138.2, 180.3 139.6 Q 179.1 141.0, 179.1 143.9 Q 179.1 146.8, 180.3 148.2 Q 181.5 149.7, 183.7 149.7 " fill="#FF0000"/>
<path class="atom-2" d="M 192.5 136.7 L 194.5 136.7 L 194.5 142.8 L 201.8 142.8 L 201.8 136.7 L 203.7 136.7 L 203.7 151.1 L 201.8 151.1 L 201.8 144.4 L 194.5 144.4 L 194.5 151.1 L 192.5 151.1 L 192.5 136.7 " fill="#FF0000"/>
<path class="atom-7" d="M 24.9 143.9 Q 24.9 140.4, 26.6 138.5 Q 28.3 136.5, 31.5 136.5 Q 34.7 136.5, 36.4 138.5 Q 38.1 140.4, 38.1 143.9 Q 38.1 147.3, 36.4 149.3 Q 34.7 151.3, 31.5 151.3 Q 28.4 151.3, 26.6 149.3 Q 24.9 147.4, 24.9 143.9 M 31.5 149.7 Q 33.7 149.7, 34.9 148.2 Q 36.1 146.7, 36.1 143.9 Q 36.1 141.0, 34.9 139.6 Q 33.7 138.2, 31.5 138.2 Q 29.3 138.2, 28.1 139.6 Q 27.0 141.0, 27.0 143.9 Q 27.0 146.8, 28.1 148.2 Q 29.3 149.7, 31.5 149.7 " fill="#FF0000"/>
<path class="atom-8" d="M 10.7 48.9 L 12.7 48.9 L 12.7 55.0 L 20.0 55.0 L 20.0 48.9 L 22.0 48.9 L 22.0 63.2 L 20.0 63.2 L 20.0 56.6 L 12.7 56.6 L 12.7 63.2 L 10.7 63.2 L 10.7 48.9 " fill="#FF0000"/>
<path class="atom-8" d="M 24.9 56.0 Q 24.9 52.6, 26.6 50.6 Q 28.3 48.7, 31.5 48.7 Q 34.7 48.7, 36.4 50.6 Q 38.1 52.6, 38.1 56.0 Q 38.1 59.5, 36.4 61.5 Q 34.7 63.5, 31.5 63.5 Q 28.4 63.5, 26.6 61.5 Q 24.9 59.5, 24.9 56.0 M 31.5 61.8 Q 33.7 61.8, 34.9 60.4 Q 36.1 58.9, 36.1 56.0 Q 36.1 53.2, 34.9 51.8 Q 33.7 50.3, 31.5 50.3 Q 29.3 50.3, 28.1 51.7 Q 27.0 53.2, 27.0 56.0 Q 27.0 58.9, 28.1 60.4 Q 29.3 61.8, 31.5 61.8 " fill="#FF0000"/>
</g>
  </g>
</svg>
