<?xml version='1.0' encoding='ASCII' standalone='yes'?>
<svg xmlns="http://www.w3.org/2000/svg" xmlns:xlink="http://www.w3.org/1999/xlink" version="1.1" width="694.0px" viewBox="0 0 694.0 200.0" height="200.0px">
  <g>
    <g transform="translate(0, 0) scale(1 1) "><!-- END OF HEADER -->
<rect style="opacity:1.0;fill:#FFFFFF;stroke:none" width="205.0" height="200.0" x="0.0" y="0.0"> </rect>
<path class="bond-0 atom-0 atom-1" d="M 194.2,38.5 L 189.0,88.8" style="fill:none;fill-rule:evenodd;stroke:#000000;stroke-width:2.0px;stroke-linecap:butt;stroke-linejoin:miter;stroke-opacity:1"/>
<path class="bond-1 atom-1 atom-2" d="M 189.0,88.8 L 142.8,109.5" style="fill:none;fill-rule:evenodd;stroke:#000000;stroke-width:2.0px;stroke-linecap:butt;stroke-linejoin:miter;stroke-opacity:1"/>
<path class="bond-2 atom-2 atom-3" d="M 142.8,109.5 L 137.6,159.8" style="fill:none;fill-rule:evenodd;stroke:#000000;stroke-width:2.0px;stroke-linecap:butt;stroke-linejoin:miter;stroke-opacity:1"/>
<path class="bond-3 atom-2 atom-4" d="M 142.8,109.5 L 101.8,79.8" style="fill:none;fill-rule:evenodd;stroke:#000000;stroke-width:2.0px;stroke-linecap:butt;stroke-linejoin:miter;stroke-opacity:1"/>
<path class="bond-4 atom-4 atom-5" d="M 105.4,82.3 L 107.6,60.7" style="fill:none;fill-rule:evenodd;stroke:#000000;stroke-width:2.0px;stroke-linecap:butt;stroke-linejoin:miter;stroke-opacity:1"/>
<path class="bond-4 atom-4 atom-5" d="M 107.6,60.7 L 109.9,39.0" style="fill:none;fill-rule:evenodd;stroke:#FF0000;stroke-width:2.0px;stroke-linecap:butt;stroke-linejoin:miter;stroke-opacity:1"/>
<path class="bond-4 atom-4 atom-5" d="M 97.8,81.6 L 100.1,59.9" style="fill:none;fill-rule:evenodd;stroke:#000000;stroke-width:2.0px;stroke-linecap:butt;stroke-linejoin:miter;stroke-opacity:1"/>
<path class="bond-4 atom-4 atom-5" d="M 100.1,59.9 L 102.3,38.2" style="fill:none;fill-rule:evenodd;stroke:#FF0000;stroke-width:2.0px;stroke-linecap:butt;stroke-linejoin:miter;stroke-opacity:1"/>
<path class="bond-5 atom-4 atom-6" d="M 101.8,79.8 L 55.6,100.4" style="fill:none;fill-rule:evenodd;stroke:#000000;stroke-width:2.0px;stroke-linecap:butt;stroke-linejoin:miter;stroke-opacity:1"/>
<path class="bond-6 atom-6 atom-7" d="M 55.6,100.4 L 39.2,88.6" style="fill:none;fill-rule:evenodd;stroke:#000000;stroke-width:2.0px;stroke-linecap:butt;stroke-linejoin:miter;stroke-opacity:1"/>
<path class="bond-6 atom-6 atom-7" d="M 39.2,88.6 L 22.9,76.7" style="fill:none;fill-rule:evenodd;stroke:#FF0000;stroke-width:2.0px;stroke-linecap:butt;stroke-linejoin:miter;stroke-opacity:1"/>
<path class="bond-6 atom-6 atom-7" d="M 56.5,91.7 L 43.7,82.4" style="fill:none;fill-rule:evenodd;stroke:#000000;stroke-width:2.0px;stroke-linecap:butt;stroke-linejoin:miter;stroke-opacity:1"/>
<path class="bond-6 atom-6 atom-7" d="M 43.7,82.4 L 27.3,70.6" style="fill:none;fill-rule:evenodd;stroke:#FF0000;stroke-width:2.0px;stroke-linecap:butt;stroke-linejoin:miter;stroke-opacity:1"/>
<path d="M 189.3,86.3 L 189.0,88.8 L 186.7,89.8" style="fill:none;stroke:#000000;stroke-width:2.0px;stroke-linecap:butt;stroke-linejoin:miter;stroke-opacity:1;"/>
<path d="M 103.9,81.3 L 101.8,79.8 L 99.5,80.8" style="fill:none;stroke:#000000;stroke-width:2.0px;stroke-linecap:butt;stroke-linejoin:miter;stroke-opacity:1;"/>
<path d="M 57.9,99.4 L 55.6,100.4 L 54.8,99.8" style="fill:none;stroke:#000000;stroke-width:2.0px;stroke-linecap:butt;stroke-linejoin:miter;stroke-opacity:1;"/>
<path class="atom-5" d="M 100.5 29.5 Q 100.5 26.0, 102.2 24.1 Q 103.9 22.2, 107.0 22.2 Q 110.2 22.2, 111.9 24.1 Q 113.6 26.0, 113.6 29.5 Q 113.6 32.9, 111.9 34.9 Q 110.2 36.9, 107.0 36.9 Q 103.9 36.9, 102.2 34.9 Q 100.5 33.0, 100.5 29.5 M 107.0 35.3 Q 109.2 35.3, 110.4 33.8 Q 111.6 32.3, 111.6 29.5 Q 111.6 26.6, 110.4 25.2 Q 109.2 23.8, 107.0 23.8 Q 104.8 23.8, 103.7 25.2 Q 102.5 26.6, 102.5 29.5 Q 102.5 32.4, 103.7 33.8 Q 104.8 35.3, 107.0 35.3 " fill="#FF0000"/>
<path class="atom-7" d="M 10.3 67.7 Q 10.3 64.3, 12.0 62.3 Q 13.7 60.4, 16.8 60.4 Q 20.0 60.4, 21.7 62.3 Q 23.4 64.3, 23.4 67.7 Q 23.4 71.2, 21.7 73.2 Q 20.0 75.1, 16.8 75.1 Q 13.7 75.1, 12.0 73.2 Q 10.3 71.2, 10.3 67.7 M 16.8 73.5 Q 19.0 73.5, 20.2 72.1 Q 21.4 70.6, 21.4 67.7 Q 21.4 64.9, 20.2 63.5 Q 19.0 62.0, 16.8 62.0 Q 14.6 62.0, 13.4 63.5 Q 12.3 64.9, 12.3 67.7 Q 12.3 70.6, 13.4 72.1 Q 14.6 73.5, 16.8 73.5 " fill="#FF0000"/>
<path class="legend" d="M 93.7 181.9 Q 93.7 179.6, 94.4 177.7 Q 95.1 175.8, 96.4 173.8 L 97.3 174.4 Q 96.2 176.3, 95.7 178.0 Q 95.2 179.7, 95.2 181.9 Q 95.2 184.0, 95.7 185.8 Q 96.2 187.5, 97.3 189.4 L 96.4 190.0 Q 95.1 188.0, 94.4 186.1 Q 93.7 184.2, 93.7 181.9 " fill="#000000"/>
<path class="legend" d="M 98.2 177.3 Q 98.6 176.2, 99.6 175.6 Q 100.6 175.0, 102.0 175.0 Q 103.7 175.0, 104.6 175.9 Q 105.6 176.8, 105.6 178.5 Q 105.6 180.2, 104.3 181.7 Q 103.1 183.3, 100.6 185.2 L 105.8 185.2 L 105.8 186.4 L 98.2 186.4 L 98.2 185.4 Q 100.3 183.9, 101.5 182.8 Q 102.8 181.6, 103.4 180.6 Q 104.0 179.6, 104.0 178.6 Q 104.0 177.5, 103.5 176.9 Q 102.9 176.3, 102.0 176.3 Q 101.0 176.3, 100.4 176.6 Q 99.8 177.0, 99.4 177.8 L 98.2 177.3 " fill="#000000"/>
<path class="legend" d="M 110.8 181.9 Q 110.8 184.2, 110.1 186.1 Q 109.4 188.0, 108.1 190.0 L 107.2 189.4 Q 108.3 187.5, 108.8 185.8 Q 109.3 184.0, 109.3 181.9 Q 109.3 179.7, 108.8 178.0 Q 108.3 176.3, 107.2 174.4 L 108.1 173.8 Q 109.4 175.8, 110.1 177.7 Q 110.8 179.6, 110.8 181.9 " fill="#000000"/>
</g>
    <g transform="translate(205.0, 0) scale(1 1) "><line x1="5" y1="100" x2="35" y2="100" style="stroke:rgb(0,0,0);stroke-width:2"/>
  <line x1="34" y1="100" x2="29" y2="95" style="stroke:rgb(0,0,0);stroke-width:2"/>
  <line x1="34" y1="100" x2="29" y2="105" style="stroke:rgb(0,0,0);stroke-width:2"/>
</g>
    <g transform="translate(245.0, 0) scale(1 1) "><!-- END OF HEADER -->
<rect style="opacity:1.0;fill:#FFFFFF;stroke:none" width="215.0" height="200.0" x="0.0" y="0.0"> </rect>
<path class="bond-0 atom-0 atom-1" d="M 203.8,64.0 L 184.3,113.0" style="fill:none;fill-rule:evenodd;stroke:#000000;stroke-width:2.0px;stroke-linecap:butt;stroke-linejoin:miter;stroke-opacity:1"/>
<path class="bond-1 atom-1 atom-2" d="M 184.3,113.0 L 132.1,120.7" style="fill:none;fill-rule:evenodd;stroke:#000000;stroke-width:2.0px;stroke-linecap:butt;stroke-linejoin:miter;stroke-opacity:1"/>
<path class="bond-2 atom-2 atom-3" d="M 132.1,120.7 L 112.6,169.7" style="fill:none;fill-rule:evenodd;stroke:#000000;stroke-width:2.0px;stroke-linecap:butt;stroke-linejoin:miter;stroke-opacity:1"/>
<path class="bond-3 atom-3 atom-4" d="M 112.6,169.7 L 60.4,177.3" style="fill:none;fill-rule:evenodd;stroke:#000000;stroke-width:2.0px;stroke-linecap:butt;stroke-linejoin:miter;stroke-opacity:1"/>
<path class="bond-4 atom-2 atom-5" d="M 132.1,120.7 L 99.4,79.3" style="fill:none;fill-rule:evenodd;stroke:#000000;stroke-width:2.0px;stroke-linecap:butt;stroke-linejoin:miter;stroke-opacity:1"/>
<path class="bond-5 atom-5 atom-6" d="M 102.2,82.9 L 110.5,62.1" style="fill:none;fill-rule:evenodd;stroke:#000000;stroke-width:2.0px;stroke-linecap:butt;stroke-linejoin:miter;stroke-opacity:1"/>
<path class="bond-5 atom-5 atom-6" d="M 110.5,62.1 L 118.8,41.3" style="fill:none;fill-rule:evenodd;stroke:#FF0000;stroke-width:2.0px;stroke-linecap:butt;stroke-linejoin:miter;stroke-opacity:1"/>
<path class="bond-5 atom-5 atom-6" d="M 94.9,79.9 L 103.1,59.1" style="fill:none;fill-rule:evenodd;stroke:#000000;stroke-width:2.0px;stroke-linecap:butt;stroke-linejoin:miter;stroke-opacity:1"/>
<path class="bond-5 atom-5 atom-6" d="M 103.1,59.1 L 111.4,38.3" style="fill:none;fill-rule:evenodd;stroke:#FF0000;stroke-width:2.0px;stroke-linecap:butt;stroke-linejoin:miter;stroke-opacity:1"/>
<path class="bond-6 atom-5 atom-7" d="M 99.4,79.3 L 47.2,86.9" style="fill:none;fill-rule:evenodd;stroke:#000000;stroke-width:2.0px;stroke-linecap:butt;stroke-linejoin:miter;stroke-opacity:1"/>
<path class="bond-7 atom-7 atom-8" d="M 47.2,86.9 L 34.6,71.0" style="fill:none;fill-rule:evenodd;stroke:#000000;stroke-width:2.0px;stroke-linecap:butt;stroke-linejoin:miter;stroke-opacity:1"/>
<path class="bond-7 atom-7 atom-8" d="M 34.6,71.0 L 22.0,55.0" style="fill:none;fill-rule:evenodd;stroke:#FF0000;stroke-width:2.0px;stroke-linecap:butt;stroke-linejoin:miter;stroke-opacity:1"/>
<path class="bond-7 atom-7 atom-8" d="M 50.6,78.4 L 40.8,66.1" style="fill:none;fill-rule:evenodd;stroke:#000000;stroke-width:2.0px;stroke-linecap:butt;stroke-linejoin:miter;stroke-opacity:1"/>
<path class="bond-7 atom-7 atom-8" d="M 40.8,66.1 L 28.2,50.1" style="fill:none;fill-rule:evenodd;stroke:#FF0000;stroke-width:2.0px;stroke-linecap:butt;stroke-linejoin:miter;stroke-opacity:1"/>
<path d="M 185.2,110.6 L 184.3,113.0 L 181.7,113.4" style="fill:none;stroke:#000000;stroke-width:2.0px;stroke-linecap:butt;stroke-linejoin:miter;stroke-opacity:1;"/>
<path d="M 113.6,167.2 L 112.6,169.7 L 110.0,170.0" style="fill:none;stroke:#000000;stroke-width:2.0px;stroke-linecap:butt;stroke-linejoin:miter;stroke-opacity:1;"/>
<path d="M 101.0,81.3 L 99.4,79.3 L 96.8,79.7" style="fill:none;stroke:#000000;stroke-width:2.0px;stroke-linecap:butt;stroke-linejoin:miter;stroke-opacity:1;"/>
<path d="M 49.8,86.5 L 47.2,86.9 L 46.6,86.1" style="fill:none;stroke:#000000;stroke-width:2.0px;stroke-linecap:butt;stroke-linejoin:miter;stroke-opacity:1;"/>
<path class="atom-6" d="M 112.0 30.3 Q 112.0 26.7, 113.8 24.7 Q 115.6 22.7, 118.9 22.7 Q 122.2 22.7, 124.0 24.7 Q 125.7 26.7, 125.7 30.3 Q 125.7 33.9, 123.9 36.0 Q 122.1 38.1, 118.9 38.1 Q 115.6 38.1, 113.8 36.0 Q 112.0 34.0, 112.0 30.3 M 118.9 36.4 Q 121.1 36.4, 122.4 34.8 Q 123.6 33.3, 123.6 30.3 Q 123.6 27.4, 122.4 25.9 Q 121.1 24.4, 118.9 24.4 Q 116.6 24.4, 115.3 25.9 Q 114.1 27.4, 114.1 30.3 Q 114.1 33.3, 115.3 34.8 Q 116.6 36.4, 118.9 36.4 " fill="#FF0000"/>
<path class="atom-8" d="M 10.8 43.1 Q 10.8 39.5, 12.5 37.5 Q 14.3 35.5, 17.6 35.5 Q 20.9 35.5, 22.7 37.5 Q 24.5 39.5, 24.5 43.1 Q 24.5 46.7, 22.7 48.8 Q 20.9 50.9, 17.6 50.9 Q 14.3 50.9, 12.5 48.8 Q 10.8 46.8, 10.8 43.1 M 17.6 49.2 Q 19.9 49.2, 21.1 47.6 Q 22.4 46.1, 22.4 43.1 Q 22.4 40.2, 21.1 38.7 Q 19.9 37.2, 17.6 37.2 Q 15.3 37.2, 14.1 38.7 Q 12.9 40.2, 12.9 43.1 Q 12.9 46.1, 14.1 47.6 Q 15.3 49.2, 17.6 49.2 " fill="#FF0000"/>
</g>
    <g transform="translate(460.0, 0) scale(1 1) "><line x1="15" y1="100" x2="25" y2="100" style="stroke:rgb(0,0,0);stroke-width:2"/>
  <line x1="20" y1="95" x2="20" y2="105" style="stroke:rgb(0,0,0);stroke-width:2"/>
</g>
    <g transform="translate(500.0, 0) scale(1 1) "><!-- END OF HEADER -->
<rect style="opacity:1.0;fill:#FFFFFF;stroke:none" width="194.0" height="200.0" x="0.0" y="0.0"> </rect>
<path class="bond-0 atom-0 atom-1" d="M 9.7,77.2 L 46.4,111.0" style="fill:none;fill-rule:evenodd;stroke:#000000;stroke-width:2.0px;stroke-linecap:butt;stroke-linejoin:miter;stroke-opacity:1"/>
<path class="bond-1 atom-1 atom-2" d="M 46.4,111.0 L 35.5,159.7" style="fill:none;fill-rule:evenodd;stroke:#000000;stroke-width:2.0px;stroke-linecap:butt;stroke-linejoin:miter;stroke-opacity:1"/>
<path class="bond-2 atom-1 atom-3" d="M 46.4,111.0 L 94.0,96.1" style="fill:none;fill-rule:evenodd;stroke:#000000;stroke-width:2.0px;stroke-linecap:butt;stroke-linejoin:miter;stroke-opacity:1"/>
<path class="bond-3 atom-3 atom-4" d="M 97.2,99.1 L 101.9,78.2" style="fill:none;fill-rule:evenodd;stroke:#000000;stroke-width:2.0px;stroke-linecap:butt;stroke-linejoin:miter;stroke-opacity:1"/>
<path class="bond-3 atom-3 atom-4" d="M 101.9,78.2 L 106.6,57.3" style="fill:none;fill-rule:evenodd;stroke:#FF0000;stroke-width:2.0px;stroke-linecap:butt;stroke-linejoin:miter;stroke-opacity:1"/>
<path class="bond-3 atom-3 atom-4" d="M 89.9,97.4 L 94.6,76.5" style="fill:none;fill-rule:evenodd;stroke:#000000;stroke-width:2.0px;stroke-linecap:butt;stroke-linejoin:miter;stroke-opacity:1"/>
<path class="bond-3 atom-3 atom-4" d="M 94.6,76.5 L 99.3,55.6" style="fill:none;fill-rule:evenodd;stroke:#FF0000;stroke-width:2.0px;stroke-linecap:butt;stroke-linejoin:miter;stroke-opacity:1"/>
<path class="bond-4 atom-3 atom-5" d="M 94.0,96.1 L 130.7,129.9" style="fill:none;fill-rule:evenodd;stroke:#000000;stroke-width:2.0px;stroke-linecap:butt;stroke-linejoin:miter;stroke-opacity:1"/>
<path class="bond-5 atom-5 atom-6" d="M 130.7,129.9 L 150.5,123.8" style="fill:none;fill-rule:evenodd;stroke:#000000;stroke-width:2.0px;stroke-linecap:butt;stroke-linejoin:miter;stroke-opacity:1"/>
<path class="bond-5 atom-5 atom-6" d="M 150.5,123.8 L 170.2,117.6" style="fill:none;fill-rule:evenodd;stroke:#FF0000;stroke-width:2.0px;stroke-linecap:butt;stroke-linejoin:miter;stroke-opacity:1"/>
<path class="bond-5 atom-5 atom-6" d="M 132.6,121.5 L 148.2,116.6" style="fill:none;fill-rule:evenodd;stroke:#000000;stroke-width:2.0px;stroke-linecap:butt;stroke-linejoin:miter;stroke-opacity:1"/>
<path class="bond-5 atom-5 atom-6" d="M 148.2,116.6 L 168.0,110.4" style="fill:none;fill-rule:evenodd;stroke:#FF0000;stroke-width:2.0px;stroke-linecap:butt;stroke-linejoin:miter;stroke-opacity:1"/>
<path d="M 91.6,96.9 L 94.0,96.1 L 95.9,97.8" style="fill:none;stroke:#000000;stroke-width:2.0px;stroke-linecap:butt;stroke-linejoin:miter;stroke-opacity:1;"/>
<path d="M 128.9,128.2 L 130.7,129.9 L 131.7,129.6" style="fill:none;stroke:#000000;stroke-width:2.0px;stroke-linecap:butt;stroke-linejoin:miter;stroke-opacity:1;"/>
<path class="atom-4" d="M 98.4 47.5 Q 98.4 44.1, 100.1 42.2 Q 101.8 40.3, 104.9 40.3 Q 108.1 40.3, 109.7 42.2 Q 111.4 44.1, 111.4 47.5 Q 111.4 50.9, 109.7 52.9 Q 108.0 54.8, 104.9 54.8 Q 101.8 54.8, 100.1 52.9 Q 98.4 50.9, 98.4 47.5 M 104.9 53.2 Q 107.1 53.2, 108.2 51.8 Q 109.4 50.3, 109.4 47.5 Q 109.4 44.7, 108.2 43.3 Q 107.1 41.9, 104.9 41.9 Q 102.8 41.9, 101.6 43.3 Q 100.4 44.7, 100.4 47.5 Q 100.4 50.3, 101.6 51.8 Q 102.8 53.2, 104.9 53.2 " fill="#FF0000"/>
<path class="atom-6" d="M 170.7 111.5 Q 170.7 108.1, 172.4 106.2 Q 174.1 104.3, 177.2 104.3 Q 180.3 104.3, 182.0 106.2 Q 183.7 108.1, 183.7 111.5 Q 183.7 114.9, 182.0 116.9 Q 180.3 118.8, 177.2 118.8 Q 174.1 118.8, 172.4 116.9 Q 170.7 115.0, 170.7 111.5 M 177.2 117.2 Q 179.4 117.2, 180.5 115.8 Q 181.7 114.3, 181.7 111.5 Q 181.7 108.7, 180.5 107.3 Q 179.4 105.9, 177.2 105.9 Q 175.1 105.9, 173.9 107.3 Q 172.7 108.7, 172.7 111.5 Q 172.7 114.4, 173.9 115.8 Q 175.1 117.2, 177.2 117.2 " fill="#FF0000"/>
</g>
  </g>
</svg>
