<?xml version='1.0' encoding='ASCII' standalone='yes'?>
<svg xmlns="http://www.w3.org/2000/svg" xmlns:xlink="http://www.w3.org/1999/xlink" version="1.1" width="838.0px" viewBox="0 0 838.0 200.0" height="200.0px">
  <g>
    <g transform="translate(0, 0) scale(1 1) "><!-- END OF HEADER -->
<rect style="opacity:1.0;fill:#FFFFFF;stroke:none" width="260.0" height="200.0" x="0.0" y="0.0"> </rect>
<path class="bond-0 atom-0 atom-1" d="M 219.7,44.0 L 194.9,66.5" style="fill:none;fill-rule:evenodd;stroke:#000000;stroke-width:2.0px;stroke-linecap:butt;stroke-linejoin:miter;stroke-opacity:1"/>
<path class="bond-1 atom-1 atom-2" d="M 194.9,66.5 L 163.1,56.3" style="fill:none;fill-rule:evenodd;stroke:#000000;stroke-width:2.0px;stroke-linecap:butt;stroke-linejoin:miter;stroke-opacity:1"/>
<path class="bond-2 atom-2 atom-3" d="M 163.1,56.3 L 138.3,78.7" style="fill:none;fill-rule:evenodd;stroke:#000000;stroke-width:2.0px;stroke-linecap:butt;stroke-linejoin:miter;stroke-opacity:1"/>
<path class="bond-3 atom-3 atom-4" d="M 138.3,78.7 L 106.5,68.5" style="fill:none;fill-rule:evenodd;stroke:#000000;stroke-width:2.0px;stroke-linecap:butt;stroke-linejoin:miter;stroke-opacity:1"/>
<path class="bond-4 atom-4 atom-5" d="M 106.5,68.5 L 81.8,90.9" style="fill:none;fill-rule:evenodd;stroke:#000000;stroke-width:2.0px;stroke-linecap:butt;stroke-linejoin:miter;stroke-opacity:1"/>
<path class="bond-5 atom-5 atom-6" d="M 81.8,90.9 L 57.0,113.4" style="fill:none;fill-rule:evenodd;stroke:#000000;stroke-width:2.0px;stroke-linecap:butt;stroke-linejoin:miter;stroke-opacity:1"/>
<path class="bond-6 atom-5 atom-7" d="M 81.8,90.9 L 104.2,115.7" style="fill:none;fill-rule:evenodd;stroke:#000000;stroke-width:2.0px;stroke-linecap:butt;stroke-linejoin:miter;stroke-opacity:1"/>
<path class="bond-7 atom-7 atom-8" d="M 104.2,115.7 L 100.1,128.6" style="fill:none;fill-rule:evenodd;stroke:#000000;stroke-width:2.0px;stroke-linecap:butt;stroke-linejoin:miter;stroke-opacity:1"/>
<path class="bond-7 atom-7 atom-8" d="M 100.1,128.6 L 95.9,141.6" style="fill:none;fill-rule:evenodd;stroke:#FF0000;stroke-width:2.0px;stroke-linecap:butt;stroke-linejoin:miter;stroke-opacity:1"/>
<path class="bond-8 atom-5 atom-9" d="M 81.8,90.9 L 59.3,66.2" style="fill:none;fill-rule:evenodd;stroke:#000000;stroke-width:2.0px;stroke-linecap:butt;stroke-linejoin:miter;stroke-opacity:1"/>
<path class="bond-9 atom-9 atom-10" d="M 61.3,68.3 L 65.6,54.7" style="fill:none;fill-rule:evenodd;stroke:#000000;stroke-width:2.0px;stroke-linecap:butt;stroke-linejoin:miter;stroke-opacity:1"/>
<path class="bond-9 atom-9 atom-10" d="M 65.6,54.7 L 70.0,41.2" style="fill:none;fill-rule:evenodd;stroke:#FF0000;stroke-width:2.0px;stroke-linecap:butt;stroke-linejoin:miter;stroke-opacity:1"/>
<path class="bond-9 atom-9 atom-10" d="M 56.5,66.8 L 60.9,53.2" style="fill:none;fill-rule:evenodd;stroke:#000000;stroke-width:2.0px;stroke-linecap:butt;stroke-linejoin:miter;stroke-opacity:1"/>
<path class="bond-9 atom-9 atom-10" d="M 60.9,53.2 L 65.2,39.6" style="fill:none;fill-rule:evenodd;stroke:#FF0000;stroke-width:2.0px;stroke-linecap:butt;stroke-linejoin:miter;stroke-opacity:1"/>
<path class="bond-10 atom-9 atom-11" d="M 59.3,66.2 L 45.7,69.1" style="fill:none;fill-rule:evenodd;stroke:#000000;stroke-width:2.0px;stroke-linecap:butt;stroke-linejoin:miter;stroke-opacity:1"/>
<path class="bond-10 atom-9 atom-11" d="M 45.7,69.1 L 32.1,72.1" style="fill:none;fill-rule:evenodd;stroke:#FF0000;stroke-width:2.0px;stroke-linecap:butt;stroke-linejoin:miter;stroke-opacity:1"/>
<path class="bond-11 atom-1 atom-12" d="M 194.9,66.5 L 202.0,99.1" style="fill:none;fill-rule:evenodd;stroke:#000000;stroke-width:2.0px;stroke-linecap:butt;stroke-linejoin:miter;stroke-opacity:1"/>
<path class="bond-12 atom-12 atom-13" d="M 202.0,99.1 L 192.3,107.9" style="fill:none;fill-rule:evenodd;stroke:#000000;stroke-width:2.0px;stroke-linecap:butt;stroke-linejoin:miter;stroke-opacity:1"/>
<path class="bond-12 atom-12 atom-13" d="M 192.3,107.9 L 182.7,116.6" style="fill:none;fill-rule:evenodd;stroke:#FF0000;stroke-width:2.0px;stroke-linecap:butt;stroke-linejoin:miter;stroke-opacity:1"/>
<path class="bond-13 atom-12 atom-14" d="M 202.0,99.1 L 215.2,103.4" style="fill:none;fill-rule:evenodd;stroke:#000000;stroke-width:2.0px;stroke-linecap:butt;stroke-linejoin:miter;stroke-opacity:1"/>
<path class="bond-13 atom-12 atom-14" d="M 215.2,103.4 L 228.3,107.6" style="fill:none;fill-rule:evenodd;stroke:#FF0000;stroke-width:2.0px;stroke-linecap:butt;stroke-linejoin:miter;stroke-opacity:1"/>
<path d="M 164.7,56.8 L 163.1,56.3 L 161.9,57.4" style="fill:none;stroke:#000000;stroke-width:2.0px;stroke-linecap:butt;stroke-linejoin:miter;stroke-opacity:1;"/>
<path d="M 139.6,77.6 L 138.3,78.7 L 136.8,78.2" style="fill:none;stroke:#000000;stroke-width:2.0px;stroke-linecap:butt;stroke-linejoin:miter;stroke-opacity:1;"/>
<path d="M 108.1,69.0 L 106.5,68.5 L 105.3,69.6" style="fill:none;stroke:#000000;stroke-width:2.0px;stroke-linecap:butt;stroke-linejoin:miter;stroke-opacity:1;"/>
<path d="M 103.1,114.4 L 104.2,115.7 L 104.0,116.3" style="fill:none;stroke:#000000;stroke-width:2.0px;stroke-linecap:butt;stroke-linejoin:miter;stroke-opacity:1;"/>
<path d="M 60.5,67.4 L 59.3,66.2 L 58.7,66.3" style="fill:none;stroke:#000000;stroke-width:2.0px;stroke-linecap:butt;stroke-linejoin:miter;stroke-opacity:1;"/>
<path class="atom-8" d="M 89.7 147.5 Q 89.7 145.2, 90.8 144.0 Q 91.9 142.7, 94.0 142.7 Q 96.1 142.7, 97.2 144.0 Q 98.4 145.2, 98.4 147.5 Q 98.4 149.8, 97.2 151.1 Q 96.1 152.4, 94.0 152.4 Q 91.9 152.4, 90.8 151.1 Q 89.7 149.8, 89.7 147.5 M 94.0 151.3 Q 95.5 151.3, 96.2 150.4 Q 97.0 149.4, 97.0 147.5 Q 97.0 145.7, 96.2 144.7 Q 95.5 143.8, 94.0 143.8 Q 92.6 143.8, 91.8 144.7 Q 91.0 145.6, 91.0 147.5 Q 91.0 149.4, 91.8 150.4 Q 92.6 151.3, 94.0 151.3 " fill="#FF0000"/>
<path class="atom-8" d="M 99.8 142.8 L 101.1 142.8 L 101.1 146.8 L 106.0 146.8 L 106.0 142.8 L 107.2 142.8 L 107.2 152.3 L 106.0 152.3 L 106.0 147.9 L 101.1 147.9 L 101.1 152.3 L 99.8 152.3 L 99.8 142.8 " fill="#FF0000"/>
<path class="atom-10" d="M 65.2 34.4 Q 65.2 32.1, 66.3 30.9 Q 67.5 29.6, 69.6 29.6 Q 71.7 29.6, 72.8 30.9 Q 73.9 32.1, 73.9 34.4 Q 73.9 36.7, 72.8 38.0 Q 71.6 39.3, 69.6 39.3 Q 67.5 39.3, 66.3 38.0 Q 65.2 36.7, 65.2 34.4 M 69.6 38.2 Q 71.0 38.2, 71.8 37.3 Q 72.6 36.3, 72.6 34.4 Q 72.6 32.5, 71.8 31.6 Q 71.0 30.7, 69.6 30.7 Q 68.1 30.7, 67.3 31.6 Q 66.5 32.5, 66.5 34.4 Q 66.5 36.3, 67.3 37.3 Q 68.1 38.2, 69.6 38.2 " fill="#FF0000"/>
<path class="atom-11" d="M 13.0 68.6 L 14.3 68.6 L 14.3 72.6 L 19.1 72.6 L 19.1 68.6 L 20.4 68.6 L 20.4 78.0 L 19.1 78.0 L 19.1 73.7 L 14.3 73.7 L 14.3 78.0 L 13.0 78.0 L 13.0 68.6 " fill="#FF0000"/>
<path class="atom-11" d="M 22.3 73.3 Q 22.3 71.0, 23.5 69.7 Q 24.6 68.5, 26.7 68.5 Q 28.8 68.5, 29.9 69.7 Q 31.0 71.0, 31.0 73.3 Q 31.0 75.6, 29.9 76.9 Q 28.8 78.2, 26.7 78.2 Q 24.6 78.2, 23.5 76.9 Q 22.3 75.6, 22.3 73.3 M 26.7 77.1 Q 28.1 77.1, 28.9 76.1 Q 29.7 75.2, 29.7 73.3 Q 29.7 71.4, 28.9 70.5 Q 28.1 69.5, 26.7 69.5 Q 25.2 69.5, 24.5 70.5 Q 23.7 71.4, 23.7 73.3 Q 23.7 75.2, 24.5 76.1 Q 25.2 77.1, 26.7 77.1 " fill="#FF0000"/>
<path class="atom-13" d="M 163.5 116.9 L 164.8 116.9 L 164.8 120.9 L 169.7 120.9 L 169.7 116.9 L 170.9 116.9 L 170.9 126.3 L 169.7 126.3 L 169.7 122.0 L 164.8 122.0 L 164.8 126.3 L 163.5 126.3 L 163.5 116.9 " fill="#FF0000"/>
<path class="atom-13" d="M 172.9 121.6 Q 172.9 119.3, 174.0 118.0 Q 175.1 116.8, 177.2 116.8 Q 179.3 116.8, 180.4 118.0 Q 181.6 119.3, 181.6 121.6 Q 181.6 123.9, 180.4 125.2 Q 179.3 126.5, 177.2 126.5 Q 175.1 126.5, 174.0 125.2 Q 172.9 123.9, 172.9 121.6 M 177.2 125.4 Q 178.7 125.4, 179.4 124.5 Q 180.2 123.5, 180.2 121.6 Q 180.2 119.7, 179.4 118.8 Q 178.7 117.8, 177.2 117.8 Q 175.8 117.8, 175.0 118.8 Q 174.2 119.7, 174.2 121.6 Q 174.2 123.5, 175.0 124.5 Q 175.8 125.4, 177.2 125.4 " fill="#FF0000"/>
<path class="atom-14" d="M 229.4 109.4 Q 229.4 107.1, 230.6 105.8 Q 231.7 104.5, 233.8 104.5 Q 235.9 104.5, 237.0 105.8 Q 238.1 107.1, 238.1 109.4 Q 238.1 111.7, 237.0 113.0 Q 235.9 114.3, 233.8 114.3 Q 231.7 114.3, 230.6 113.0 Q 229.4 111.7, 229.4 109.4 M 233.8 113.2 Q 235.2 113.2, 236.0 112.2 Q 236.8 111.3, 236.8 109.4 Q 236.8 107.5, 236.0 106.6 Q 235.2 105.6, 233.8 105.6 Q 232.3 105.6, 231.5 106.6 Q 230.8 107.5, 230.8 109.4 Q 230.8 111.3, 231.5 112.2 Q 232.3 113.2, 233.8 113.2 " fill="#FF0000"/>
<path class="atom-14" d="M 239.6 104.7 L 240.9 104.7 L 240.9 108.7 L 245.7 108.7 L 245.7 104.7 L 247.0 104.7 L 247.0 114.1 L 245.7 114.1 L 245.7 109.7 L 240.9 109.7 L 240.9 114.1 L 239.6 114.1 L 239.6 104.7 " fill="#FF0000"/>
<path class="legend" d="M 121.5 181.9 Q 121.5 179.6, 122.2 177.7 Q 122.8 175.8, 124.1 173.8 L 125.0 174.4 Q 124.0 176.3, 123.4 178.0 Q 122.9 179.7, 122.9 181.9 Q 122.9 184.0, 123.4 185.8 Q 124.0 187.5, 125.0 189.4 L 124.1 190.0 Q 122.8 188.0, 122.2 186.1 Q 121.5 184.2, 121.5 181.9 " fill="#000000"/>
<path class="legend" d="M 125.9 177.3 Q 126.4 176.2, 127.3 175.6 Q 128.3 175.0, 129.7 175.0 Q 131.4 175.0, 132.4 175.9 Q 133.3 176.8, 133.3 178.5 Q 133.3 180.2, 132.1 181.7 Q 130.9 183.3, 128.3 185.2 L 133.5 185.2 L 133.5 186.4 L 125.9 186.4 L 125.9 185.4 Q 128.0 183.9, 129.3 182.8 Q 130.5 181.6, 131.1 180.6 Q 131.7 179.6, 131.7 178.6 Q 131.7 177.5, 131.2 176.9 Q 130.7 176.3, 129.7 176.3 Q 128.8 176.3, 128.2 176.6 Q 127.6 177.0, 127.2 177.8 L 125.9 177.3 " fill="#000000"/>
<path class="legend" d="M 138.5 181.9 Q 138.5 184.2, 137.8 186.1 Q 137.2 188.0, 135.9 190.0 L 135.0 189.4 Q 136.0 187.5, 136.5 185.8 Q 137.1 184.0, 137.1 181.9 Q 137.1 179.7, 136.5 178.0 Q 136.0 176.3, 135.0 174.4 L 135.9 173.8 Q 137.2 175.8, 137.8 177.7 Q 138.5 179.6, 138.5 181.9 " fill="#000000"/>
</g>
    <g transform="translate(260.0, 0) scale(1 1) "><line x1="5" y1="100" x2="35" y2="100" style="stroke:rgb(0,0,0);stroke-width:2"/>
  <line x1="34" y1="100" x2="29" y2="95" style="stroke:rgb(0,0,0);stroke-width:2"/>
  <line x1="34" y1="100" x2="29" y2="105" style="stroke:rgb(0,0,0);stroke-width:2"/>
</g>
    <g transform="translate(300.0, 0) scale(1 1) "><!-- END OF HEADER -->
<rect style="opacity:1.0;fill:#FFFFFF;stroke:none" width="293.0" height="200.0" x="0.0" y="0.0"> </rect>
<path class="bond-0 atom-0 atom-1" d="M 258.1,76.2 L 238.6,92.8" style="fill:none;fill-rule:evenodd;stroke:#000000;stroke-width:2.0px;stroke-linecap:butt;stroke-linejoin:miter;stroke-opacity:1"/>
<path class="bond-1 atom-1 atom-2" d="M 238.6,92.8 L 214.4,84.3" style="fill:none;fill-rule:evenodd;stroke:#000000;stroke-width:2.0px;stroke-linecap:butt;stroke-linejoin:miter;stroke-opacity:1"/>
<path class="bond-2 atom-2 atom-3" d="M 214.4,84.3 L 194.9,100.9" style="fill:none;fill-rule:evenodd;stroke:#000000;stroke-width:2.0px;stroke-linecap:butt;stroke-linejoin:miter;stroke-opacity:1"/>
<path class="bond-3 atom-3 atom-4" d="M 194.9,100.9 L 170.7,92.3" style="fill:none;fill-rule:evenodd;stroke:#000000;stroke-width:2.0px;stroke-linecap:butt;stroke-linejoin:miter;stroke-opacity:1"/>
<path class="bond-4 atom-4 atom-5" d="M 170.7,92.3 L 167.2,102.2" style="fill:none;fill-rule:evenodd;stroke:#000000;stroke-width:2.0px;stroke-linecap:butt;stroke-linejoin:miter;stroke-opacity:1"/>
<path class="bond-4 atom-4 atom-5" d="M 167.2,102.2 L 163.7,112.0" style="fill:none;fill-rule:evenodd;stroke:#FF0000;stroke-width:2.0px;stroke-linecap:butt;stroke-linejoin:miter;stroke-opacity:1"/>
<path class="bond-5 atom-4 atom-6" d="M 170.7,92.3 L 174.1,82.6" style="fill:none;fill-rule:evenodd;stroke:#000000;stroke-width:2.0px;stroke-linecap:butt;stroke-linejoin:miter;stroke-opacity:1"/>
<path class="bond-5 atom-4 atom-6" d="M 174.1,82.6 L 177.6,72.8" style="fill:none;fill-rule:evenodd;stroke:#FF0000;stroke-width:2.0px;stroke-linecap:butt;stroke-linejoin:miter;stroke-opacity:1"/>
<path class="bond-6 atom-4 atom-7" d="M 170.7,92.3 L 146.5,83.8" style="fill:none;fill-rule:evenodd;stroke:#000000;stroke-width:2.0px;stroke-linecap:butt;stroke-linejoin:miter;stroke-opacity:1"/>
<path class="bond-7 atom-7 atom-8" d="M 146.5,83.8 L 141.8,58.5" style="fill:none;fill-rule:evenodd;stroke:#000000;stroke-width:2.0px;stroke-linecap:butt;stroke-linejoin:miter;stroke-opacity:1"/>
<path class="bond-8 atom-7 atom-9" d="M 146.5,83.8 L 126.9,100.4" style="fill:none;fill-rule:evenodd;stroke:#000000;stroke-width:2.0px;stroke-linecap:butt;stroke-linejoin:miter;stroke-opacity:1"/>
<path class="bond-9 atom-9 atom-10" d="M 126.9,100.4 L 102.7,91.9" style="fill:none;fill-rule:evenodd;stroke:#000000;stroke-width:2.0px;stroke-linecap:butt;stroke-linejoin:miter;stroke-opacity:1"/>
<path class="bond-10 atom-10 atom-11" d="M 102.7,91.9 L 83.2,108.5" style="fill:none;fill-rule:evenodd;stroke:#000000;stroke-width:2.0px;stroke-linecap:butt;stroke-linejoin:miter;stroke-opacity:1"/>
<path class="bond-11 atom-11 atom-12" d="M 83.2,108.5 L 59.0,99.9" style="fill:none;fill-rule:evenodd;stroke:#000000;stroke-width:2.0px;stroke-linecap:butt;stroke-linejoin:miter;stroke-opacity:1"/>
<path class="bond-12 atom-12 atom-13" d="M 59.0,99.9 L 34.8,91.4" style="fill:none;fill-rule:evenodd;stroke:#000000;stroke-width:2.0px;stroke-linecap:butt;stroke-linejoin:miter;stroke-opacity:1"/>
<path class="bond-13 atom-12 atom-14" d="M 59.0,99.9 L 67.6,75.7" style="fill:none;fill-rule:evenodd;stroke:#000000;stroke-width:2.0px;stroke-linecap:butt;stroke-linejoin:miter;stroke-opacity:1"/>
<path class="bond-14 atom-14 atom-15" d="M 67.6,75.7 L 61.2,68.3" style="fill:none;fill-rule:evenodd;stroke:#000000;stroke-width:2.0px;stroke-linecap:butt;stroke-linejoin:miter;stroke-opacity:1"/>
<path class="bond-14 atom-14 atom-15" d="M 61.2,68.3 L 54.9,60.8" style="fill:none;fill-rule:evenodd;stroke:#FF0000;stroke-width:2.0px;stroke-linecap:butt;stroke-linejoin:miter;stroke-opacity:1"/>
<path class="bond-15 atom-12 atom-16" d="M 59.0,99.9 L 50.4,124.1" style="fill:none;fill-rule:evenodd;stroke:#000000;stroke-width:2.0px;stroke-linecap:butt;stroke-linejoin:miter;stroke-opacity:1"/>
<path class="bond-16 atom-16 atom-17" d="M 48.2,124.6 L 55.0,132.5" style="fill:none;fill-rule:evenodd;stroke:#000000;stroke-width:2.0px;stroke-linecap:butt;stroke-linejoin:miter;stroke-opacity:1"/>
<path class="bond-16 atom-16 atom-17" d="M 55.0,132.5 L 61.8,140.4" style="fill:none;fill-rule:evenodd;stroke:#FF0000;stroke-width:2.0px;stroke-linecap:butt;stroke-linejoin:miter;stroke-opacity:1"/>
<path class="bond-16 atom-16 atom-17" d="M 51.2,122.1 L 57.9,130.0" style="fill:none;fill-rule:evenodd;stroke:#000000;stroke-width:2.0px;stroke-linecap:butt;stroke-linejoin:miter;stroke-opacity:1"/>
<path class="bond-16 atom-16 atom-17" d="M 57.9,130.0 L 64.7,137.9" style="fill:none;fill-rule:evenodd;stroke:#FF0000;stroke-width:2.0px;stroke-linecap:butt;stroke-linejoin:miter;stroke-opacity:1"/>
<path class="bond-17 atom-16 atom-18" d="M 50.4,124.1 L 39.9,126.1" style="fill:none;fill-rule:evenodd;stroke:#000000;stroke-width:2.0px;stroke-linecap:butt;stroke-linejoin:miter;stroke-opacity:1"/>
<path class="bond-17 atom-16 atom-18" d="M 39.9,126.1 L 29.4,128.0" style="fill:none;fill-rule:evenodd;stroke:#FF0000;stroke-width:2.0px;stroke-linecap:butt;stroke-linejoin:miter;stroke-opacity:1"/>
<path class="bond-18 atom-1 atom-19" d="M 238.6,92.8 L 243.3,118.1" style="fill:none;fill-rule:evenodd;stroke:#000000;stroke-width:2.0px;stroke-linecap:butt;stroke-linejoin:miter;stroke-opacity:1"/>
<path class="bond-19 atom-19 atom-20" d="M 243.3,118.1 L 235.6,124.6" style="fill:none;fill-rule:evenodd;stroke:#000000;stroke-width:2.0px;stroke-linecap:butt;stroke-linejoin:miter;stroke-opacity:1"/>
<path class="bond-19 atom-19 atom-20" d="M 235.6,124.6 L 227.9,131.2" style="fill:none;fill-rule:evenodd;stroke:#FF0000;stroke-width:2.0px;stroke-linecap:butt;stroke-linejoin:miter;stroke-opacity:1"/>
<path class="bond-20 atom-19 atom-21" d="M 243.3,118.1 L 253.3,121.6" style="fill:none;fill-rule:evenodd;stroke:#000000;stroke-width:2.0px;stroke-linecap:butt;stroke-linejoin:miter;stroke-opacity:1"/>
<path class="bond-20 atom-19 atom-21" d="M 253.3,121.6 L 263.3,125.2" style="fill:none;fill-rule:evenodd;stroke:#FF0000;stroke-width:2.0px;stroke-linecap:butt;stroke-linejoin:miter;stroke-opacity:1"/>
<path d="M 215.6,84.7 L 214.4,84.3 L 213.4,85.1" style="fill:none;stroke:#000000;stroke-width:2.0px;stroke-linecap:butt;stroke-linejoin:miter;stroke-opacity:1;"/>
<path d="M 195.9,100.1 L 194.9,100.9 L 193.7,100.5" style="fill:none;stroke:#000000;stroke-width:2.0px;stroke-linecap:butt;stroke-linejoin:miter;stroke-opacity:1;"/>
<path d="M 127.9,99.6 L 126.9,100.4 L 125.7,100.0" style="fill:none;stroke:#000000;stroke-width:2.0px;stroke-linecap:butt;stroke-linejoin:miter;stroke-opacity:1;"/>
<path d="M 103.9,92.3 L 102.7,91.9 L 101.8,92.7" style="fill:none;stroke:#000000;stroke-width:2.0px;stroke-linecap:butt;stroke-linejoin:miter;stroke-opacity:1;"/>
<path d="M 84.2,107.7 L 83.2,108.5 L 82.0,108.1" style="fill:none;stroke:#000000;stroke-width:2.0px;stroke-linecap:butt;stroke-linejoin:miter;stroke-opacity:1;"/>
<path d="M 67.2,77.0 L 67.6,75.7 L 67.3,75.4" style="fill:none;stroke:#000000;stroke-width:2.0px;stroke-linecap:butt;stroke-linejoin:miter;stroke-opacity:1;"/>
<path d="M 50.9,122.9 L 50.4,124.1 L 49.9,124.2" style="fill:none;stroke:#000000;stroke-width:2.0px;stroke-linecap:butt;stroke-linejoin:miter;stroke-opacity:1;"/>
<path class="atom-5" d="M 158.8 116.6 Q 158.8 114.8, 159.6 113.8 Q 160.5 112.9, 162.1 112.9 Q 163.7 112.9, 164.6 113.8 Q 165.4 114.8, 165.4 116.6 Q 165.4 118.3, 164.6 119.3 Q 163.7 120.3, 162.1 120.3 Q 160.5 120.3, 159.6 119.3 Q 158.8 118.3, 158.8 116.6 M 162.1 119.5 Q 163.2 119.5, 163.8 118.8 Q 164.4 118.0, 164.4 116.6 Q 164.4 115.1, 163.8 114.4 Q 163.2 113.7, 162.1 113.7 Q 161.0 113.7, 160.4 114.4 Q 159.8 115.1, 159.8 116.6 Q 159.8 118.0, 160.4 118.8 Q 161.0 119.5, 162.1 119.5 " fill="#FF0000"/>
<path class="atom-5" d="M 166.6 113.0 L 167.6 113.0 L 167.6 116.0 L 171.3 116.0 L 171.3 113.0 L 172.3 113.0 L 172.3 120.2 L 171.3 120.2 L 171.3 116.9 L 167.6 116.9 L 167.6 120.2 L 166.6 120.2 L 166.6 113.0 " fill="#FF0000"/>
<path class="atom-6" d="M 175.9 68.2 Q 175.9 66.4, 176.8 65.4 Q 177.6 64.5, 179.3 64.5 Q 180.9 64.5, 181.7 65.4 Q 182.6 66.4, 182.6 68.2 Q 182.6 69.9, 181.7 70.9 Q 180.8 71.9, 179.3 71.9 Q 177.7 71.9, 176.8 70.9 Q 175.9 69.9, 175.9 68.2 M 179.3 71.1 Q 180.4 71.1, 181.0 70.4 Q 181.6 69.6, 181.6 68.2 Q 181.6 66.7, 181.0 66.0 Q 180.4 65.3, 179.3 65.3 Q 178.1 65.3, 177.5 66.0 Q 176.9 66.7, 176.9 68.2 Q 176.9 69.6, 177.5 70.4 Q 178.1 71.1, 179.3 71.1 " fill="#FF0000"/>
<path class="atom-6" d="M 183.7 64.5 L 184.7 64.5 L 184.7 67.6 L 188.4 67.6 L 188.4 64.5 L 189.4 64.5 L 189.4 71.8 L 188.4 71.8 L 188.4 68.5 L 184.7 68.5 L 184.7 71.8 L 183.7 71.8 L 183.7 64.5 " fill="#FF0000"/>
<path class="atom-15" d="M 40.4 52.6 L 41.4 52.6 L 41.4 55.7 L 45.1 55.7 L 45.1 52.6 L 46.1 52.6 L 46.1 59.9 L 45.1 59.9 L 45.1 56.5 L 41.4 56.5 L 41.4 59.9 L 40.4 59.9 L 40.4 52.6 " fill="#FF0000"/>
<path class="atom-15" d="M 47.6 56.2 Q 47.6 54.5, 48.4 53.5 Q 49.3 52.5, 50.9 52.5 Q 52.5 52.5, 53.4 53.5 Q 54.3 54.5, 54.3 56.2 Q 54.3 58.0, 53.4 59.0 Q 52.5 60.0, 50.9 60.0 Q 49.3 60.0, 48.4 59.0 Q 47.6 58.0, 47.6 56.2 M 50.9 59.2 Q 52.0 59.2, 52.6 58.4 Q 53.2 57.7, 53.2 56.2 Q 53.2 54.8, 52.6 54.1 Q 52.0 53.4, 50.9 53.4 Q 49.8 53.4, 49.2 54.1 Q 48.6 54.8, 48.6 56.2 Q 48.6 57.7, 49.2 58.4 Q 49.8 59.2, 50.9 59.2 " fill="#FF0000"/>
<path class="atom-17" d="M 63.8 143.7 Q 63.8 142.0, 64.6 141.0 Q 65.5 140.0, 67.1 140.0 Q 68.7 140.0, 69.6 141.0 Q 70.4 142.0, 70.4 143.7 Q 70.4 145.5, 69.6 146.5 Q 68.7 147.5, 67.1 147.5 Q 65.5 147.5, 64.6 146.5 Q 63.8 145.5, 63.8 143.7 M 67.1 146.6 Q 68.2 146.6, 68.8 145.9 Q 69.4 145.2, 69.4 143.7 Q 69.4 142.3, 68.8 141.6 Q 68.2 140.8, 67.1 140.8 Q 66.0 140.8, 65.4 141.5 Q 64.8 142.3, 64.8 143.7 Q 64.8 145.2, 65.4 145.9 Q 66.0 146.6, 67.1 146.6 " fill="#FF0000"/>
<path class="atom-18" d="M 14.6 125.2 L 15.6 125.2 L 15.6 128.3 L 19.4 128.3 L 19.4 125.2 L 20.3 125.2 L 20.3 132.5 L 19.4 132.5 L 19.4 129.1 L 15.6 129.1 L 15.6 132.5 L 14.6 132.5 L 14.6 125.2 " fill="#FF0000"/>
<path class="atom-18" d="M 21.8 128.8 Q 21.8 127.1, 22.7 126.1 Q 23.6 125.1, 25.2 125.1 Q 26.8 125.1, 27.6 126.1 Q 28.5 127.1, 28.5 128.8 Q 28.5 130.6, 27.6 131.6 Q 26.8 132.6, 25.2 132.6 Q 23.6 132.6, 22.7 131.6 Q 21.8 130.6, 21.8 128.8 M 25.2 131.8 Q 26.3 131.8, 26.9 131.0 Q 27.5 130.3, 27.5 128.8 Q 27.5 127.4, 26.9 126.7 Q 26.3 126.0, 25.2 126.0 Q 24.1 126.0, 23.5 126.7 Q 22.9 127.4, 22.9 128.8 Q 22.9 130.3, 23.5 131.0 Q 24.1 131.8, 25.2 131.8 " fill="#FF0000"/>
<path class="atom-20" d="M 213.2 131.2 L 214.2 131.2 L 214.2 134.3 L 217.9 134.3 L 217.9 131.2 L 218.9 131.2 L 218.9 138.4 L 217.9 138.4 L 217.9 135.1 L 214.2 135.1 L 214.2 138.4 L 213.2 138.4 L 213.2 131.2 " fill="#FF0000"/>
<path class="atom-20" d="M 220.4 134.8 Q 220.4 133.0, 221.3 132.1 Q 222.1 131.1, 223.8 131.1 Q 225.4 131.1, 226.2 132.1 Q 227.1 133.0, 227.1 134.8 Q 227.1 136.5, 226.2 137.6 Q 225.3 138.5, 223.8 138.5 Q 222.2 138.5, 221.3 137.6 Q 220.4 136.6, 220.4 134.8 M 223.8 137.7 Q 224.9 137.7, 225.5 137.0 Q 226.1 136.2, 226.1 134.8 Q 226.1 133.4, 225.5 132.6 Q 224.9 131.9, 223.8 131.9 Q 222.6 131.9, 222.0 132.6 Q 221.4 133.3, 221.4 134.8 Q 221.4 136.2, 222.0 137.0 Q 222.6 137.7, 223.8 137.7 " fill="#FF0000"/>
<path class="atom-21" d="M 264.2 126.7 Q 264.2 124.9, 265.0 124.0 Q 265.9 123.0, 267.5 123.0 Q 269.1 123.0, 270.0 124.0 Q 270.8 124.9, 270.8 126.7 Q 270.8 128.5, 270.0 129.5 Q 269.1 130.5, 267.5 130.5 Q 265.9 130.5, 265.0 129.5 Q 264.2 128.5, 264.2 126.7 M 267.5 129.6 Q 268.6 129.6, 269.2 128.9 Q 269.8 128.1, 269.8 126.7 Q 269.8 125.3, 269.2 124.5 Q 268.6 123.8, 267.5 123.8 Q 266.4 123.8, 265.8 124.5 Q 265.2 125.3, 265.2 126.7 Q 265.2 128.2, 265.8 128.9 Q 266.4 129.6, 267.5 129.6 " fill="#FF0000"/>
<path class="atom-21" d="M 272.0 123.1 L 272.9 123.1 L 272.9 126.2 L 276.7 126.2 L 276.7 123.1 L 277.6 123.1 L 277.6 130.3 L 276.7 130.3 L 276.7 127.0 L 272.9 127.0 L 272.9 130.3 L 272.0 130.3 L 272.0 123.1 " fill="#FF0000"/>
</g>
    <g transform="translate(593.0, 0) scale(1 1) "><line x1="15" y1="100" x2="25" y2="100" style="stroke:rgb(0,0,0);stroke-width:2"/>
  <line x1="20" y1="95" x2="20" y2="105" style="stroke:rgb(0,0,0);stroke-width:2"/>
</g>
    <g transform="translate(633.0, 0) scale(1 1) "><!-- END OF HEADER -->
<rect style="opacity:1.0;fill:#FFFFFF;stroke:none" width="205.0" height="200.0" x="0.0" y="0.0"> </rect>
<path class="bond-0 atom-0 atom-1" d="M 122.6,44.3 L 108.8,89.2" style="fill:none;fill-rule:evenodd;stroke:#000000;stroke-width:2.0px;stroke-linecap:butt;stroke-linejoin:miter;stroke-opacity:1"/>
<path class="bond-1 atom-1 atom-2" d="M 108.8,89.2 L 95.0,134.1" style="fill:none;fill-rule:evenodd;stroke:#000000;stroke-width:2.0px;stroke-linecap:butt;stroke-linejoin:miter;stroke-opacity:1"/>
<path class="bond-2 atom-1 atom-3" d="M 108.8,89.2 L 63.9,75.4" style="fill:none;fill-rule:evenodd;stroke:#000000;stroke-width:2.0px;stroke-linecap:butt;stroke-linejoin:miter;stroke-opacity:1"/>
<path class="bond-3 atom-3 atom-4" d="M 63.9,75.4 L 50.5,87.9" style="fill:none;fill-rule:evenodd;stroke:#000000;stroke-width:2.0px;stroke-linecap:butt;stroke-linejoin:miter;stroke-opacity:1"/>
<path class="bond-3 atom-3 atom-4" d="M 50.5,87.9 L 37.2,100.3" style="fill:none;fill-rule:evenodd;stroke:#FF0000;stroke-width:2.0px;stroke-linecap:butt;stroke-linejoin:miter;stroke-opacity:1"/>
<path class="bond-4 atom-1 atom-5" d="M 108.8,89.2 L 153.7,103.0" style="fill:none;fill-rule:evenodd;stroke:#000000;stroke-width:2.0px;stroke-linecap:butt;stroke-linejoin:miter;stroke-opacity:1"/>
<path class="bond-5 atom-5 atom-6" d="M 154.7,107.0 L 168.8,93.8" style="fill:none;fill-rule:evenodd;stroke:#000000;stroke-width:2.0px;stroke-linecap:butt;stroke-linejoin:miter;stroke-opacity:1"/>
<path class="bond-5 atom-5 atom-6" d="M 168.8,93.8 L 182.9,80.7" style="fill:none;fill-rule:evenodd;stroke:#FF0000;stroke-width:2.0px;stroke-linecap:butt;stroke-linejoin:miter;stroke-opacity:1"/>
<path class="bond-5 atom-5 atom-6" d="M 149.9,101.8 L 164.0,88.7" style="fill:none;fill-rule:evenodd;stroke:#000000;stroke-width:2.0px;stroke-linecap:butt;stroke-linejoin:miter;stroke-opacity:1"/>
<path class="bond-5 atom-5 atom-6" d="M 164.0,88.7 L 178.1,75.5" style="fill:none;fill-rule:evenodd;stroke:#FF0000;stroke-width:2.0px;stroke-linecap:butt;stroke-linejoin:miter;stroke-opacity:1"/>
<path class="bond-6 atom-5 atom-7" d="M 153.7,103.0 L 158.0,121.7" style="fill:none;fill-rule:evenodd;stroke:#000000;stroke-width:2.0px;stroke-linecap:butt;stroke-linejoin:miter;stroke-opacity:1"/>
<path class="bond-6 atom-5 atom-7" d="M 158.0,121.7 L 162.4,140.5" style="fill:none;fill-rule:evenodd;stroke:#FF0000;stroke-width:2.0px;stroke-linecap:butt;stroke-linejoin:miter;stroke-opacity:1"/>
<path d="M 66.1,76.1 L 63.9,75.4 L 63.2,76.0" style="fill:none;stroke:#000000;stroke-width:2.0px;stroke-linecap:butt;stroke-linejoin:miter;stroke-opacity:1;"/>
<path d="M 151.5,102.3 L 153.7,103.0 L 154.0,103.9" style="fill:none;stroke:#000000;stroke-width:2.0px;stroke-linecap:butt;stroke-linejoin:miter;stroke-opacity:1;"/>
<path class="atom-4" d="M 10.2 100.8 L 12.1 100.8 L 12.1 106.5 L 18.9 106.5 L 18.9 100.8 L 20.7 100.8 L 20.7 114.1 L 18.9 114.1 L 18.9 108.0 L 12.1 108.0 L 12.1 114.1 L 10.2 114.1 L 10.2 100.8 " fill="#FF0000"/>
<path class="atom-4" d="M 23.4 107.5 Q 23.4 104.3, 25.0 102.5 Q 26.5 100.7, 29.5 100.7 Q 32.5 100.7, 34.0 102.5 Q 35.6 104.3, 35.6 107.5 Q 35.6 110.7, 34.0 112.5 Q 32.4 114.4, 29.5 114.4 Q 26.6 114.4, 25.0 112.5 Q 23.4 110.7, 23.4 107.5 M 29.5 112.9 Q 31.5 112.9, 32.6 111.5 Q 33.7 110.1, 33.7 107.5 Q 33.7 104.8, 32.6 103.5 Q 31.5 102.2, 29.5 102.2 Q 27.5 102.2, 26.4 103.5 Q 25.3 104.8, 25.3 107.5 Q 25.3 110.1, 26.4 111.5 Q 27.5 112.9, 29.5 112.9 " fill="#FF0000"/>
<path class="atom-6" d="M 182.0 71.0 Q 182.0 67.8, 183.6 66.0 Q 185.2 64.3, 188.1 64.3 Q 191.1 64.3, 192.7 66.0 Q 194.3 67.8, 194.3 71.0 Q 194.3 74.3, 192.7 76.1 Q 191.1 77.9, 188.1 77.9 Q 185.2 77.9, 183.6 76.1 Q 182.0 74.3, 182.0 71.0 M 188.1 76.4 Q 190.2 76.4, 191.3 75.1 Q 192.4 73.7, 192.4 71.0 Q 192.4 68.4, 191.3 67.1 Q 190.2 65.8, 188.1 65.8 Q 186.1 65.8, 185.0 67.1 Q 183.9 68.4, 183.9 71.0 Q 183.9 73.7, 185.0 75.1 Q 186.1 76.4, 188.1 76.4 " fill="#FF0000"/>
<path class="atom-7" d="M 158.2 148.8 Q 158.2 145.6, 159.7 143.8 Q 161.3 142.1, 164.3 142.1 Q 167.2 142.1, 168.8 143.8 Q 170.4 145.6, 170.4 148.8 Q 170.4 152.1, 168.8 153.9 Q 167.2 155.7, 164.3 155.7 Q 161.3 155.7, 159.7 153.9 Q 158.2 152.1, 158.2 148.8 M 164.3 154.2 Q 166.3 154.2, 167.4 152.9 Q 168.5 151.5, 168.5 148.8 Q 168.5 146.2, 167.4 144.9 Q 166.3 143.6, 164.3 143.6 Q 162.2 143.6, 161.1 144.9 Q 160.0 146.2, 160.0 148.8 Q 160.0 151.5, 161.1 152.9 Q 162.2 154.2, 164.3 154.2 " fill="#FF0000"/>
<path class="atom-7" d="M 172.4 142.2 L 174.2 142.2 L 174.2 147.9 L 181.0 147.9 L 181.0 142.2 L 182.9 142.2 L 182.9 155.5 L 181.0 155.5 L 181.0 149.4 L 174.2 149.4 L 174.2 155.5 L 172.4 155.5 L 172.4 142.2 " fill="#FF0000"/>
</g>
  </g>
</svg>
