<?xml version='1.0' encoding='ASCII' standalone='yes'?>
<svg xmlns="http://www.w3.org/2000/svg" xmlns:xlink="http://www.w3.org/1999/xlink" version="1.1" width="780.0px" viewBox="0 0 780.0 200.0" height="200.0px">
  <g>
    <g transform="translate(0, 0) scale(1 1) "><!-- END OF HEADER -->
<rect style="opacity:1.0;fill:#FFFFFF;stroke:none" width="247.0" height="200.0" x="0.0" y="0.0"> </rect>
<path class="bond-0 atom-0 atom-1" d="M 180.7,51.2 L 160.4,90.3" style="fill:none;fill-rule:evenodd;stroke:#000000;stroke-width:2.0px;stroke-linecap:butt;stroke-linejoin:miter;stroke-opacity:1"/>
<path class="bond-0 atom-0 atom-1" d="M 175.1,48.3 L 154.8,87.3" style="fill:none;fill-rule:evenodd;stroke:#000000;stroke-width:2.0px;stroke-linecap:butt;stroke-linejoin:miter;stroke-opacity:1"/>
<path class="bond-1 atom-1 atom-2" d="M 158.4,87.2 L 181.1,122.7" style="fill:none;fill-rule:evenodd;stroke:#000000;stroke-width:2.0px;stroke-linecap:butt;stroke-linejoin:miter;stroke-opacity:1"/>
<path class="bond-2 atom-2 atom-3" d="M 179.4,126.0 L 198.0,125.2" style="fill:none;fill-rule:evenodd;stroke:#000000;stroke-width:2.0px;stroke-linecap:butt;stroke-linejoin:miter;stroke-opacity:1"/>
<path class="bond-2 atom-2 atom-3" d="M 198.0,125.2 L 216.5,124.3" style="fill:none;fill-rule:evenodd;stroke:#FF0000;stroke-width:2.0px;stroke-linecap:butt;stroke-linejoin:miter;stroke-opacity:1"/>
<path class="bond-2 atom-2 atom-3" d="M 179.2,119.7 L 197.7,118.8" style="fill:none;fill-rule:evenodd;stroke:#000000;stroke-width:2.0px;stroke-linecap:butt;stroke-linejoin:miter;stroke-opacity:1"/>
<path class="bond-2 atom-2 atom-3" d="M 197.7,118.8 L 216.3,118.0" style="fill:none;fill-rule:evenodd;stroke:#FF0000;stroke-width:2.0px;stroke-linecap:butt;stroke-linejoin:miter;stroke-opacity:1"/>
<path class="bond-3 atom-2 atom-4" d="M 181.1,122.7 L 173.3,137.7" style="fill:none;fill-rule:evenodd;stroke:#000000;stroke-width:2.0px;stroke-linecap:butt;stroke-linejoin:miter;stroke-opacity:1"/>
<path class="bond-3 atom-2 atom-4" d="M 173.3,137.7 L 165.5,152.7" style="fill:none;fill-rule:evenodd;stroke:#FF0000;stroke-width:2.0px;stroke-linecap:butt;stroke-linejoin:miter;stroke-opacity:1"/>
<path class="bond-4 atom-1 atom-5" d="M 158.4,87.2 L 116.3,89.0" style="fill:none;fill-rule:evenodd;stroke:#000000;stroke-width:2.0px;stroke-linecap:butt;stroke-linejoin:miter;stroke-opacity:1"/>
<path class="bond-5 atom-5 atom-6" d="M 116.3,89.0 L 96.8,126.5" style="fill:none;fill-rule:evenodd;stroke:#000000;stroke-width:2.0px;stroke-linecap:butt;stroke-linejoin:miter;stroke-opacity:1"/>
<path class="bond-6 atom-6 atom-7" d="M 96.8,126.5 L 54.7,128.3" style="fill:none;fill-rule:evenodd;stroke:#000000;stroke-width:2.0px;stroke-linecap:butt;stroke-linejoin:miter;stroke-opacity:1"/>
<path class="bond-7 atom-7 atom-8" d="M 58.3,128.2 L 48.9,113.4" style="fill:none;fill-rule:evenodd;stroke:#000000;stroke-width:2.0px;stroke-linecap:butt;stroke-linejoin:miter;stroke-opacity:1"/>
<path class="bond-7 atom-7 atom-8" d="M 48.9,113.4 L 39.5,98.7" style="fill:none;fill-rule:evenodd;stroke:#FF0000;stroke-width:2.0px;stroke-linecap:butt;stroke-linejoin:miter;stroke-opacity:1"/>
<path class="bond-7 atom-7 atom-8" d="M 53.0,131.6 L 43.6,116.8" style="fill:none;fill-rule:evenodd;stroke:#000000;stroke-width:2.0px;stroke-linecap:butt;stroke-linejoin:miter;stroke-opacity:1"/>
<path class="bond-7 atom-7 atom-8" d="M 43.6,116.8 L 34.2,102.1" style="fill:none;fill-rule:evenodd;stroke:#FF0000;stroke-width:2.0px;stroke-linecap:butt;stroke-linejoin:miter;stroke-opacity:1"/>
<path class="bond-8 atom-7 atom-9" d="M 54.7,128.3 L 46.9,143.3" style="fill:none;fill-rule:evenodd;stroke:#000000;stroke-width:2.0px;stroke-linecap:butt;stroke-linejoin:miter;stroke-opacity:1"/>
<path class="bond-8 atom-7 atom-9" d="M 46.9,143.3 L 39.1,158.3" style="fill:none;fill-rule:evenodd;stroke:#FF0000;stroke-width:2.0px;stroke-linecap:butt;stroke-linejoin:miter;stroke-opacity:1"/>
<path class="bond-9 atom-5 atom-10" d="M 116.3,89.0 L 93.6,53.5" style="fill:none;fill-rule:evenodd;stroke:#000000;stroke-width:2.0px;stroke-linecap:butt;stroke-linejoin:miter;stroke-opacity:1"/>
<path class="bond-10 atom-10 atom-11" d="M 95.6,56.6 L 103.7,40.8" style="fill:none;fill-rule:evenodd;stroke:#000000;stroke-width:2.0px;stroke-linecap:butt;stroke-linejoin:miter;stroke-opacity:1"/>
<path class="bond-10 atom-10 atom-11" d="M 103.7,40.8 L 111.9,25.1" style="fill:none;fill-rule:evenodd;stroke:#FF0000;stroke-width:2.0px;stroke-linecap:butt;stroke-linejoin:miter;stroke-opacity:1"/>
<path class="bond-10 atom-10 atom-11" d="M 89.9,53.6 L 98.1,37.9" style="fill:none;fill-rule:evenodd;stroke:#000000;stroke-width:2.0px;stroke-linecap:butt;stroke-linejoin:miter;stroke-opacity:1"/>
<path class="bond-10 atom-10 atom-11" d="M 98.1,37.9 L 106.3,22.2" style="fill:none;fill-rule:evenodd;stroke:#FF0000;stroke-width:2.0px;stroke-linecap:butt;stroke-linejoin:miter;stroke-opacity:1"/>
<path class="bond-11 atom-10 atom-12" d="M 93.6,53.5 L 76.0,54.3" style="fill:none;fill-rule:evenodd;stroke:#000000;stroke-width:2.0px;stroke-linecap:butt;stroke-linejoin:miter;stroke-opacity:1"/>
<path class="bond-11 atom-10 atom-12" d="M 76.0,54.3 L 58.3,55.0" style="fill:none;fill-rule:evenodd;stroke:#FF0000;stroke-width:2.0px;stroke-linecap:butt;stroke-linejoin:miter;stroke-opacity:1"/>
<path d="M 159.6,88.9 L 158.4,87.2 L 156.3,87.3" style="fill:none;stroke:#000000;stroke-width:2.0px;stroke-linecap:butt;stroke-linejoin:miter;stroke-opacity:1;"/>
<path d="M 180.0,121.0 L 181.1,122.7 L 180.7,123.5" style="fill:none;stroke:#000000;stroke-width:2.0px;stroke-linecap:butt;stroke-linejoin:miter;stroke-opacity:1;"/>
<path d="M 97.8,124.6 L 96.8,126.5 L 94.7,126.6" style="fill:none;stroke:#000000;stroke-width:2.0px;stroke-linecap:butt;stroke-linejoin:miter;stroke-opacity:1;"/>
<path d="M 56.8,128.2 L 54.7,128.3 L 54.3,129.1" style="fill:none;stroke:#000000;stroke-width:2.0px;stroke-linecap:butt;stroke-linejoin:miter;stroke-opacity:1;"/>
<path d="M 94.7,55.3 L 93.6,53.5 L 92.7,53.5" style="fill:none;stroke:#000000;stroke-width:2.0px;stroke-linecap:butt;stroke-linejoin:miter;stroke-opacity:1;"/>
<path class="atom-3" d="M 217.8 120.9 Q 217.8 118.0, 219.2 116.4 Q 220.6 114.8, 223.3 114.8 Q 225.9 114.8, 227.3 116.4 Q 228.8 118.0, 228.8 120.9 Q 228.8 123.8, 227.3 125.5 Q 225.9 127.1, 223.3 127.1 Q 220.6 127.1, 219.2 125.5 Q 217.8 123.8, 217.8 120.9 M 223.3 125.7 Q 225.1 125.7, 226.1 124.5 Q 227.1 123.3, 227.1 120.9 Q 227.1 118.6, 226.1 117.4 Q 225.1 116.2, 223.3 116.2 Q 221.4 116.2, 220.4 117.4 Q 219.5 118.5, 219.5 120.9 Q 219.5 123.3, 220.4 124.5 Q 221.4 125.7, 223.3 125.7 " fill="#FF0000"/>
<path class="atom-4" d="M 144.4 154.3 L 146.0 154.3 L 146.0 159.3 L 152.1 159.3 L 152.1 154.3 L 153.7 154.3 L 153.7 166.2 L 152.1 166.2 L 152.1 160.7 L 146.0 160.7 L 146.0 166.2 L 144.4 166.2 L 144.4 154.3 " fill="#FF0000"/>
<path class="atom-4" d="M 156.2 160.2 Q 156.2 157.3, 157.6 155.7 Q 159.0 154.1, 161.7 154.1 Q 164.3 154.1, 165.7 155.7 Q 167.2 157.3, 167.2 160.2 Q 167.2 163.1, 165.7 164.8 Q 164.3 166.4, 161.7 166.4 Q 159.0 166.4, 157.6 164.8 Q 156.2 163.1, 156.2 160.2 M 161.7 165.0 Q 163.5 165.0, 164.5 163.8 Q 165.5 162.6, 165.5 160.2 Q 165.5 157.9, 164.5 156.7 Q 163.5 155.5, 161.7 155.5 Q 159.8 155.5, 158.8 156.7 Q 157.9 157.8, 157.9 160.2 Q 157.9 162.6, 158.8 163.8 Q 159.8 165.0, 161.7 165.0 " fill="#FF0000"/>
<path class="atom-8" d="M 26.5 92.8 Q 26.5 89.9, 27.9 88.3 Q 29.3 86.7, 32.0 86.7 Q 34.6 86.7, 36.1 88.3 Q 37.5 89.9, 37.5 92.8 Q 37.5 95.7, 36.0 97.4 Q 34.6 99.0, 32.0 99.0 Q 29.4 99.0, 27.9 97.4 Q 26.5 95.7, 26.5 92.8 M 32.0 97.7 Q 33.8 97.7, 34.8 96.4 Q 35.8 95.2, 35.8 92.8 Q 35.8 90.5, 34.8 89.3 Q 33.8 88.1, 32.0 88.1 Q 30.2 88.1, 29.2 89.3 Q 28.2 90.4, 28.2 92.8 Q 28.2 95.2, 29.2 96.4 Q 30.2 97.7, 32.0 97.7 " fill="#FF0000"/>
<path class="atom-9" d="M 17.9 159.9 L 19.6 159.9 L 19.6 164.9 L 25.7 164.9 L 25.7 159.9 L 27.3 159.9 L 27.3 171.8 L 25.7 171.8 L 25.7 166.3 L 19.6 166.3 L 19.6 171.8 L 17.9 171.8 L 17.9 159.9 " fill="#FF0000"/>
<path class="atom-9" d="M 29.7 165.8 Q 29.7 162.9, 31.2 161.3 Q 32.6 159.7, 35.2 159.7 Q 37.9 159.7, 39.3 161.3 Q 40.7 162.9, 40.7 165.8 Q 40.7 168.7, 39.3 170.4 Q 37.8 172.0, 35.2 172.0 Q 32.6 172.0, 31.2 170.4 Q 29.7 168.7, 29.7 165.8 M 35.2 170.7 Q 37.1 170.7, 38.0 169.4 Q 39.0 168.2, 39.0 165.8 Q 39.0 163.5, 38.0 162.3 Q 37.1 161.1, 35.2 161.1 Q 33.4 161.1, 32.4 162.3 Q 31.4 163.4, 31.4 165.8 Q 31.4 168.2, 32.4 169.4 Q 33.4 170.7, 35.2 170.7 " fill="#FF0000"/>
<path class="atom-11" d="M 107.6 16.1 Q 107.6 13.2, 109.0 11.6 Q 110.4 10.0, 113.1 10.0 Q 115.7 10.0, 117.1 11.6 Q 118.5 13.2, 118.5 16.1 Q 118.5 19.0, 117.1 20.6 Q 115.7 22.3, 113.1 22.3 Q 110.4 22.3, 109.0 20.6 Q 107.6 19.0, 107.6 16.1 M 113.1 20.9 Q 114.9 20.9, 115.9 19.7 Q 116.8 18.5, 116.8 16.1 Q 116.8 13.7, 115.9 12.5 Q 114.9 11.3, 113.1 11.3 Q 111.2 11.3, 110.2 12.5 Q 109.3 13.7, 109.3 16.1 Q 109.3 18.5, 110.2 19.7 Q 111.2 20.9, 113.1 20.9 " fill="#FF0000"/>
<path class="atom-12" d="M 34.2 49.4 L 35.8 49.4 L 35.8 54.5 L 41.9 54.5 L 41.9 49.4 L 43.5 49.4 L 43.5 61.4 L 41.9 61.4 L 41.9 55.9 L 35.8 55.9 L 35.8 61.4 L 34.2 61.4 L 34.2 49.4 " fill="#FF0000"/>
<path class="atom-12" d="M 46.0 55.4 Q 46.0 52.5, 47.4 50.9 Q 48.8 49.3, 51.5 49.3 Q 54.1 49.3, 55.5 50.9 Q 56.9 52.5, 56.9 55.4 Q 56.9 58.3, 55.5 59.9 Q 54.1 61.6, 51.5 61.6 Q 48.8 61.6, 47.4 59.9 Q 46.0 58.3, 46.0 55.4 M 51.5 60.2 Q 53.3 60.2, 54.3 59.0 Q 55.2 57.8, 55.2 55.4 Q 55.2 53.0, 54.3 51.8 Q 53.3 50.7, 51.5 50.7 Q 49.6 50.7, 48.6 51.8 Q 47.7 53.0, 47.7 55.4 Q 47.7 57.8, 48.6 59.0 Q 49.6 60.2, 51.5 60.2 " fill="#FF0000"/>
<path class="legend" d="M 114.8 181.9 Q 114.8 179.6, 115.5 177.7 Q 116.2 175.8, 117.5 173.8 L 118.4 174.4 Q 117.3 176.3, 116.8 178.0 Q 116.3 179.7, 116.3 181.9 Q 116.3 184.0, 116.8 185.8 Q 117.3 187.5, 118.4 189.4 L 117.5 190.0 Q 116.2 188.0, 115.5 186.1 Q 114.8 184.2, 114.8 181.9 " fill="#000000"/>
<path class="legend" d="M 119.3 177.3 Q 119.7 176.2, 120.7 175.6 Q 121.7 175.0, 123.1 175.0 Q 124.8 175.0, 125.7 175.9 Q 126.7 176.8, 126.7 178.5 Q 126.7 180.2, 125.4 181.7 Q 124.2 183.3, 121.7 185.2 L 126.9 185.2 L 126.9 186.4 L 119.3 186.4 L 119.3 185.4 Q 121.4 183.9, 122.6 182.8 Q 123.9 181.6, 124.5 180.6 Q 125.1 179.6, 125.1 178.6 Q 125.1 177.5, 124.5 176.9 Q 124.0 176.3, 123.1 176.3 Q 122.1 176.3, 121.5 176.6 Q 120.9 177.0, 120.5 177.8 L 119.3 177.3 " fill="#000000"/>
<path class="legend" d="M 131.9 181.9 Q 131.9 184.2, 131.2 186.1 Q 130.5 188.0, 129.2 190.0 L 128.3 189.4 Q 129.4 187.5, 129.9 185.8 Q 130.4 184.0, 130.4 181.9 Q 130.4 179.7, 129.9 178.0 Q 129.4 176.3, 128.3 174.4 L 129.2 173.8 Q 130.5 175.8, 131.2 177.7 Q 131.9 179.6, 131.9 181.9 " fill="#000000"/>
</g>
    <g transform="translate(247.0, 0) scale(1 1) "><line x1="5" y1="100" x2="35" y2="100" style="stroke:rgb(0,0,0);stroke-width:2"/>
  <line x1="34" y1="100" x2="29" y2="95" style="stroke:rgb(0,0,0);stroke-width:2"/>
  <line x1="34" y1="100" x2="29" y2="105" style="stroke:rgb(0,0,0);stroke-width:2"/>
</g>
    <g transform="translate(287.0, 0) scale(1 1) "><!-- END OF HEADER -->
<rect style="opacity:1.0;fill:#FFFFFF;stroke:none" width="164.0" height="200.0" x="0.0" y="0.0"> </rect>
<path class="bond-0 atom-0 atom-1" d="M 8.2,87.6 L 50.7,63.1" style="fill:none;fill-rule:evenodd;stroke:#000000;stroke-width:2.0px;stroke-linecap:butt;stroke-linejoin:miter;stroke-opacity:1"/>
<path class="bond-0 atom-0 atom-1" d="M 11.9,94.0 L 50.7,71.6" style="fill:none;fill-rule:evenodd;stroke:#000000;stroke-width:2.0px;stroke-linecap:butt;stroke-linejoin:miter;stroke-opacity:1"/>
<path class="bond-1 atom-1 atom-2" d="M 50.7,63.1 L 93.2,87.6" style="fill:none;fill-rule:evenodd;stroke:#000000;stroke-width:2.0px;stroke-linecap:butt;stroke-linejoin:miter;stroke-opacity:1"/>
<path class="bond-2 atom-2 atom-3" d="M 89.6,85.5 L 89.6,106.8" style="fill:none;fill-rule:evenodd;stroke:#000000;stroke-width:2.0px;stroke-linecap:butt;stroke-linejoin:miter;stroke-opacity:1"/>
<path class="bond-2 atom-2 atom-3" d="M 89.6,106.8 L 89.6,128.1" style="fill:none;fill-rule:evenodd;stroke:#FF0000;stroke-width:2.0px;stroke-linecap:butt;stroke-linejoin:miter;stroke-opacity:1"/>
<path class="bond-2 atom-2 atom-3" d="M 96.9,85.5 L 96.9,106.8" style="fill:none;fill-rule:evenodd;stroke:#000000;stroke-width:2.0px;stroke-linecap:butt;stroke-linejoin:miter;stroke-opacity:1"/>
<path class="bond-2 atom-2 atom-3" d="M 96.9,106.8 L 96.9,128.1" style="fill:none;fill-rule:evenodd;stroke:#FF0000;stroke-width:2.0px;stroke-linecap:butt;stroke-linejoin:miter;stroke-opacity:1"/>
<path class="bond-3 atom-2 atom-4" d="M 93.2,87.6 L 110.5,77.7" style="fill:none;fill-rule:evenodd;stroke:#000000;stroke-width:2.0px;stroke-linecap:butt;stroke-linejoin:miter;stroke-opacity:1"/>
<path class="bond-3 atom-2 atom-4" d="M 110.5,77.7 L 127.8,67.7" style="fill:none;fill-rule:evenodd;stroke:#FF0000;stroke-width:2.0px;stroke-linecap:butt;stroke-linejoin:miter;stroke-opacity:1"/>
<path d="M 48.6,64.3 L 50.7,63.1 L 52.8,64.3" style="fill:none;stroke:#000000;stroke-width:2.0px;stroke-linecap:butt;stroke-linejoin:miter;stroke-opacity:1;"/>
<path d="M 91.1,86.4 L 93.2,87.6 L 94.1,87.1" style="fill:none;stroke:#000000;stroke-width:2.0px;stroke-linecap:butt;stroke-linejoin:miter;stroke-opacity:1;"/>
<path class="atom-3" d="M 86.9 136.8 Q 86.9 133.4, 88.5 131.6 Q 90.2 129.7, 93.2 129.7 Q 96.3 129.7, 98.0 131.6 Q 99.6 133.4, 99.6 136.8 Q 99.6 140.1, 98.0 142.1 Q 96.3 144.0, 93.2 144.0 Q 90.2 144.0, 88.5 142.1 Q 86.9 140.2, 86.9 136.8 M 93.2 142.4 Q 95.4 142.4, 96.5 141.0 Q 97.7 139.5, 97.7 136.8 Q 97.7 134.0, 96.5 132.7 Q 95.4 131.3, 93.2 131.3 Q 91.1 131.3, 90.0 132.6 Q 88.8 134.0, 88.8 136.8 Q 88.8 139.6, 90.0 141.0 Q 91.1 142.4, 93.2 142.4 " fill="#FF0000"/>
<path class="atom-4" d="M 129.4 63.1 Q 129.4 59.8, 131.0 57.9 Q 132.7 56.0, 135.8 56.0 Q 138.9 56.0, 140.5 57.9 Q 142.2 59.8, 142.2 63.1 Q 142.2 66.5, 140.5 68.4 Q 138.8 70.3, 135.8 70.3 Q 132.7 70.3, 131.0 68.4 Q 129.4 66.5, 129.4 63.1 M 135.8 68.7 Q 137.9 68.7, 139.0 67.3 Q 140.2 65.9, 140.2 63.1 Q 140.2 60.4, 139.0 59.0 Q 137.9 57.6, 135.8 57.6 Q 133.7 57.6, 132.5 59.0 Q 131.4 60.4, 131.4 63.1 Q 131.4 65.9, 132.5 67.3 Q 133.7 68.7, 135.8 68.7 " fill="#FF0000"/>
<path class="atom-4" d="M 144.3 56.2 L 146.2 56.2 L 146.2 62.1 L 153.3 62.1 L 153.3 56.2 L 155.2 56.2 L 155.2 70.1 L 153.3 70.1 L 153.3 63.7 L 146.2 63.7 L 146.2 70.1 L 144.3 70.1 L 144.3 56.2 " fill="#FF0000"/>
</g>
    <g transform="translate(451.0, 0) scale(1 1) "><line x1="15" y1="100" x2="25" y2="100" style="stroke:rgb(0,0,0);stroke-width:2"/>
  <line x1="20" y1="95" x2="20" y2="105" style="stroke:rgb(0,0,0);stroke-width:2"/>
</g>
    <g transform="translate(491.0, 0) scale(1 1) "><!-- END OF HEADER -->
<rect style="opacity:1.0;fill:#FFFFFF;stroke:none" width="289.0" height="200.0" x="0.0" y="0.0"> </rect>
<path class="bond-0 atom-0 atom-1" d="M 206.5,146.4 L 198.9,106.0" style="fill:none;fill-rule:evenodd;stroke:#000000;stroke-width:2.0px;stroke-linecap:butt;stroke-linejoin:miter;stroke-opacity:1"/>
<path class="bond-0 atom-0 atom-1" d="M 212.3,145.3 L 204.7,104.9" style="fill:none;fill-rule:evenodd;stroke:#000000;stroke-width:2.0px;stroke-linecap:butt;stroke-linejoin:miter;stroke-opacity:1"/>
<path class="bond-1 atom-1 atom-2" d="M 202.2,107.1 L 232.1,81.4" style="fill:none;fill-rule:evenodd;stroke:#000000;stroke-width:2.0px;stroke-linecap:butt;stroke-linejoin:miter;stroke-opacity:1"/>
<path class="bond-2 atom-2 atom-3" d="M 229.5,83.7 L 245.7,89.4" style="fill:none;fill-rule:evenodd;stroke:#000000;stroke-width:2.0px;stroke-linecap:butt;stroke-linejoin:miter;stroke-opacity:1"/>
<path class="bond-2 atom-2 atom-3" d="M 245.7,89.4 L 261.9,95.1" style="fill:none;fill-rule:evenodd;stroke:#FF0000;stroke-width:2.0px;stroke-linecap:butt;stroke-linejoin:miter;stroke-opacity:1"/>
<path class="bond-2 atom-2 atom-3" d="M 231.5,78.1 L 247.7,83.8" style="fill:none;fill-rule:evenodd;stroke:#000000;stroke-width:2.0px;stroke-linecap:butt;stroke-linejoin:miter;stroke-opacity:1"/>
<path class="bond-2 atom-2 atom-3" d="M 247.7,83.8 L 263.9,89.5" style="fill:none;fill-rule:evenodd;stroke:#FF0000;stroke-width:2.0px;stroke-linecap:butt;stroke-linejoin:miter;stroke-opacity:1"/>
<path class="bond-3 atom-2 atom-4" d="M 232.1,81.4 L 229.2,65.6" style="fill:none;fill-rule:evenodd;stroke:#000000;stroke-width:2.0px;stroke-linecap:butt;stroke-linejoin:miter;stroke-opacity:1"/>
<path class="bond-3 atom-2 atom-4" d="M 229.2,65.6 L 226.2,49.8" style="fill:none;fill-rule:evenodd;stroke:#FF0000;stroke-width:2.0px;stroke-linecap:butt;stroke-linejoin:miter;stroke-opacity:1"/>
<path class="bond-4 atom-1 atom-5" d="M 202.2,107.1 L 165.0,94.0" style="fill:none;fill-rule:evenodd;stroke:#000000;stroke-width:2.0px;stroke-linecap:butt;stroke-linejoin:miter;stroke-opacity:1"/>
<path class="bond-5 atom-5 atom-6" d="M 165.0,94.0 L 157.7,55.2" style="fill:none;fill-rule:evenodd;stroke:#000000;stroke-width:2.0px;stroke-linecap:butt;stroke-linejoin:miter;stroke-opacity:1"/>
<path class="bond-6 atom-6 atom-7" d="M 158.4,58.5 L 170.8,47.9" style="fill:none;fill-rule:evenodd;stroke:#000000;stroke-width:2.0px;stroke-linecap:butt;stroke-linejoin:miter;stroke-opacity:1"/>
<path class="bond-6 atom-6 atom-7" d="M 170.8,47.9 L 183.2,37.3" style="fill:none;fill-rule:evenodd;stroke:#FF0000;stroke-width:2.0px;stroke-linecap:butt;stroke-linejoin:miter;stroke-opacity:1"/>
<path class="bond-6 atom-6 atom-7" d="M 154.5,54.0 L 166.9,43.4" style="fill:none;fill-rule:evenodd;stroke:#000000;stroke-width:2.0px;stroke-linecap:butt;stroke-linejoin:miter;stroke-opacity:1"/>
<path class="bond-6 atom-6 atom-7" d="M 166.9,43.4 L 179.3,32.8" style="fill:none;fill-rule:evenodd;stroke:#FF0000;stroke-width:2.0px;stroke-linecap:butt;stroke-linejoin:miter;stroke-opacity:1"/>
<path class="bond-7 atom-6 atom-8" d="M 157.7,55.2 L 142.3,49.8" style="fill:none;fill-rule:evenodd;stroke:#000000;stroke-width:2.0px;stroke-linecap:butt;stroke-linejoin:miter;stroke-opacity:1"/>
<path class="bond-7 atom-6 atom-8" d="M 142.3,49.8 L 127.0,44.3" style="fill:none;fill-rule:evenodd;stroke:#FF0000;stroke-width:2.0px;stroke-linecap:butt;stroke-linejoin:miter;stroke-opacity:1"/>
<path class="bond-8 atom-5 atom-9" d="M 165.0,94.0 L 135.0,119.6" style="fill:none;fill-rule:evenodd;stroke:#000000;stroke-width:2.0px;stroke-linecap:butt;stroke-linejoin:miter;stroke-opacity:1"/>
<path class="bond-9 atom-9 atom-10" d="M 135.0,119.6 L 142.2,158.4" style="fill:none;fill-rule:evenodd;stroke:#000000;stroke-width:2.0px;stroke-linecap:butt;stroke-linejoin:miter;stroke-opacity:1"/>
<path class="bond-10 atom-10 atom-11" d="M 139.6,160.6 L 155.8,166.3" style="fill:none;fill-rule:evenodd;stroke:#000000;stroke-width:2.0px;stroke-linecap:butt;stroke-linejoin:miter;stroke-opacity:1"/>
<path class="bond-10 atom-10 atom-11" d="M 155.8,166.3 L 172.0,172.0" style="fill:none;fill-rule:evenodd;stroke:#FF0000;stroke-width:2.0px;stroke-linecap:butt;stroke-linejoin:miter;stroke-opacity:1"/>
<path class="bond-10 atom-10 atom-11" d="M 141.6,155.0 L 157.8,160.8" style="fill:none;fill-rule:evenodd;stroke:#000000;stroke-width:2.0px;stroke-linecap:butt;stroke-linejoin:miter;stroke-opacity:1"/>
<path class="bond-10 atom-10 atom-11" d="M 157.8,160.8 L 174.0,166.5" style="fill:none;fill-rule:evenodd;stroke:#FF0000;stroke-width:2.0px;stroke-linecap:butt;stroke-linejoin:miter;stroke-opacity:1"/>
<path class="bond-11 atom-10 atom-12" d="M 142.2,158.4 L 130.4,168.5" style="fill:none;fill-rule:evenodd;stroke:#000000;stroke-width:2.0px;stroke-linecap:butt;stroke-linejoin:miter;stroke-opacity:1"/>
<path class="bond-11 atom-10 atom-12" d="M 130.4,168.5 L 118.7,178.5" style="fill:none;fill-rule:evenodd;stroke:#FF0000;stroke-width:2.0px;stroke-linecap:butt;stroke-linejoin:miter;stroke-opacity:1"/>
<path class="bond-12 atom-9 atom-13" d="M 135.0,119.6 L 97.8,106.5" style="fill:none;fill-rule:evenodd;stroke:#000000;stroke-width:2.0px;stroke-linecap:butt;stroke-linejoin:miter;stroke-opacity:1"/>
<path class="bond-13 atom-13 atom-14" d="M 97.8,106.5 L 90.6,67.7" style="fill:none;fill-rule:evenodd;stroke:#000000;stroke-width:2.0px;stroke-linecap:butt;stroke-linejoin:miter;stroke-opacity:1"/>
<path class="bond-14 atom-14 atom-15" d="M 90.6,67.7 L 53.4,54.6" style="fill:none;fill-rule:evenodd;stroke:#000000;stroke-width:2.0px;stroke-linecap:butt;stroke-linejoin:miter;stroke-opacity:1"/>
<path class="bond-15 atom-15 atom-16" d="M 52.7,51.2 L 40.3,61.8" style="fill:none;fill-rule:evenodd;stroke:#000000;stroke-width:2.0px;stroke-linecap:butt;stroke-linejoin:miter;stroke-opacity:1"/>
<path class="bond-15 atom-15 atom-16" d="M 40.3,61.8 L 27.9,72.5" style="fill:none;fill-rule:evenodd;stroke:#FF0000;stroke-width:2.0px;stroke-linecap:butt;stroke-linejoin:miter;stroke-opacity:1"/>
<path class="bond-15 atom-15 atom-16" d="M 56.6,55.7 L 44.2,66.3" style="fill:none;fill-rule:evenodd;stroke:#000000;stroke-width:2.0px;stroke-linecap:butt;stroke-linejoin:miter;stroke-opacity:1"/>
<path class="bond-15 atom-15 atom-16" d="M 44.2,66.3 L 31.7,77.0" style="fill:none;fill-rule:evenodd;stroke:#FF0000;stroke-width:2.0px;stroke-linecap:butt;stroke-linejoin:miter;stroke-opacity:1"/>
<path class="bond-16 atom-15 atom-17" d="M 53.4,54.6 L 50.4,38.7" style="fill:none;fill-rule:evenodd;stroke:#000000;stroke-width:2.0px;stroke-linecap:butt;stroke-linejoin:miter;stroke-opacity:1"/>
<path class="bond-16 atom-15 atom-17" d="M 50.4,38.7 L 47.5,22.9" style="fill:none;fill-rule:evenodd;stroke:#FF0000;stroke-width:2.0px;stroke-linecap:butt;stroke-linejoin:miter;stroke-opacity:1"/>
<path class="bond-17 atom-13 atom-18" d="M 97.8,106.5 L 67.8,132.1" style="fill:none;fill-rule:evenodd;stroke:#000000;stroke-width:2.0px;stroke-linecap:butt;stroke-linejoin:miter;stroke-opacity:1"/>
<path class="bond-18 atom-18 atom-19" d="M 64.6,131.0 L 67.7,147.7" style="fill:none;fill-rule:evenodd;stroke:#000000;stroke-width:2.0px;stroke-linecap:butt;stroke-linejoin:miter;stroke-opacity:1"/>
<path class="bond-18 atom-18 atom-19" d="M 67.7,147.7 L 70.8,164.5" style="fill:none;fill-rule:evenodd;stroke:#FF0000;stroke-width:2.0px;stroke-linecap:butt;stroke-linejoin:miter;stroke-opacity:1"/>
<path class="bond-18 atom-18 atom-19" d="M 70.4,129.9 L 73.5,146.7" style="fill:none;fill-rule:evenodd;stroke:#000000;stroke-width:2.0px;stroke-linecap:butt;stroke-linejoin:miter;stroke-opacity:1"/>
<path class="bond-18 atom-18 atom-19" d="M 73.5,146.7 L 76.6,163.4" style="fill:none;fill-rule:evenodd;stroke:#FF0000;stroke-width:2.0px;stroke-linecap:butt;stroke-linejoin:miter;stroke-opacity:1"/>
<path class="bond-19 atom-18 atom-20" d="M 67.8,132.1 L 52.4,126.7" style="fill:none;fill-rule:evenodd;stroke:#000000;stroke-width:2.0px;stroke-linecap:butt;stroke-linejoin:miter;stroke-opacity:1"/>
<path class="bond-19 atom-18 atom-20" d="M 52.4,126.7 L 37.0,121.3" style="fill:none;fill-rule:evenodd;stroke:#FF0000;stroke-width:2.0px;stroke-linecap:butt;stroke-linejoin:miter;stroke-opacity:1"/>
<path d="M 203.6,105.8 L 202.2,107.1 L 200.3,106.4" style="fill:none;stroke:#000000;stroke-width:2.0px;stroke-linecap:butt;stroke-linejoin:miter;stroke-opacity:1;"/>
<path d="M 230.6,82.7 L 232.1,81.4 L 232.0,80.7" style="fill:none;stroke:#000000;stroke-width:2.0px;stroke-linecap:butt;stroke-linejoin:miter;stroke-opacity:1;"/>
<path d="M 158.1,57.1 L 157.7,55.2 L 157.0,54.9" style="fill:none;stroke:#000000;stroke-width:2.0px;stroke-linecap:butt;stroke-linejoin:miter;stroke-opacity:1;"/>
<path d="M 141.8,156.5 L 142.2,158.4 L 141.6,158.9" style="fill:none;stroke:#000000;stroke-width:2.0px;stroke-linecap:butt;stroke-linejoin:miter;stroke-opacity:1;"/>
<path d="M 90.9,69.6 L 90.6,67.7 L 88.7,67.0" style="fill:none;stroke:#000000;stroke-width:2.0px;stroke-linecap:butt;stroke-linejoin:miter;stroke-opacity:1;"/>
<path d="M 55.2,55.2 L 53.4,54.6 L 53.2,53.8" style="fill:none;stroke:#000000;stroke-width:2.0px;stroke-linecap:butt;stroke-linejoin:miter;stroke-opacity:1;"/>
<path d="M 69.3,130.8 L 67.8,132.1 L 67.0,131.9" style="fill:none;stroke:#000000;stroke-width:2.0px;stroke-linecap:butt;stroke-linejoin:miter;stroke-opacity:1;"/>
<path class="atom-3" d="M 264.2 94.6 Q 264.2 91.9, 265.5 90.4 Q 266.8 88.9, 269.3 88.9 Q 271.8 88.9, 273.1 90.4 Q 274.4 91.9, 274.4 94.6 Q 274.4 97.3, 273.1 98.9 Q 271.8 100.4, 269.3 100.4 Q 266.9 100.4, 265.5 98.9 Q 264.2 97.3, 264.2 94.6 M 269.3 99.1 Q 271.0 99.1, 271.9 98.0 Q 272.9 96.9, 272.9 94.6 Q 272.9 92.4, 271.9 91.3 Q 271.0 90.2, 269.3 90.2 Q 267.6 90.2, 266.7 91.3 Q 265.8 92.4, 265.8 94.6 Q 265.8 96.9, 266.7 98.0 Q 267.6 99.1, 269.3 99.1 " fill="#FF0000"/>
<path class="atom-4" d="M 219.8 42.7 Q 219.8 40.0, 221.1 38.5 Q 222.4 37.0, 224.9 37.0 Q 227.4 37.0, 228.7 38.5 Q 230.0 40.0, 230.0 42.7 Q 230.0 45.4, 228.7 47.0 Q 227.3 48.5, 224.9 48.5 Q 222.4 48.5, 221.1 47.0 Q 219.8 45.4, 219.8 42.7 M 224.9 47.2 Q 226.6 47.2, 227.5 46.1 Q 228.4 44.9, 228.4 42.7 Q 228.4 40.5, 227.5 39.4 Q 226.6 38.3, 224.9 38.3 Q 223.2 38.3, 222.3 39.4 Q 221.3 40.5, 221.3 42.7 Q 221.3 45.0, 222.3 46.1 Q 223.2 47.2, 224.9 47.2 " fill="#FF0000"/>
<path class="atom-4" d="M 231.8 37.1 L 233.3 37.1 L 233.3 41.9 L 239.0 41.9 L 239.0 37.1 L 240.5 37.1 L 240.5 48.3 L 239.0 48.3 L 239.0 43.2 L 233.3 43.2 L 233.3 48.3 L 231.8 48.3 L 231.8 37.1 " fill="#FF0000"/>
<path class="atom-7" d="M 182.6 29.6 Q 182.6 26.9, 183.9 25.4 Q 185.2 23.9, 187.7 23.9 Q 190.2 23.9, 191.5 25.4 Q 192.8 26.9, 192.8 29.6 Q 192.8 32.3, 191.5 33.8 Q 190.1 35.4, 187.7 35.4 Q 185.2 35.4, 183.9 33.8 Q 182.6 32.3, 182.6 29.6 M 187.7 34.1 Q 189.4 34.1, 190.3 33.0 Q 191.2 31.8, 191.2 29.6 Q 191.2 27.4, 190.3 26.3 Q 189.4 25.1, 187.7 25.1 Q 186.0 25.1, 185.1 26.3 Q 184.1 27.4, 184.1 29.6 Q 184.1 31.8, 185.1 33.0 Q 186.0 34.1, 187.7 34.1 " fill="#FF0000"/>
<path class="atom-8" d="M 104.4 36.5 L 105.9 36.5 L 105.9 41.3 L 111.6 41.3 L 111.6 36.5 L 113.1 36.5 L 113.1 47.7 L 111.6 47.7 L 111.6 42.5 L 105.9 42.5 L 105.9 47.7 L 104.4 47.7 L 104.4 36.5 " fill="#FF0000"/>
<path class="atom-8" d="M 115.4 42.1 Q 115.4 39.4, 116.7 37.9 Q 118.1 36.4, 120.5 36.4 Q 123.0 36.4, 124.3 37.9 Q 125.7 39.4, 125.7 42.1 Q 125.7 44.8, 124.3 46.3 Q 123.0 47.9, 120.5 47.9 Q 118.1 47.9, 116.7 46.3 Q 115.4 44.8, 115.4 42.1 M 120.5 46.6 Q 122.2 46.6, 123.1 45.5 Q 124.1 44.3, 124.1 42.1 Q 124.1 39.9, 123.1 38.8 Q 122.2 37.7, 120.5 37.7 Q 118.8 37.7, 117.9 38.8 Q 117.0 39.9, 117.0 42.1 Q 117.0 44.3, 117.9 45.5 Q 118.8 46.6, 120.5 46.6 " fill="#FF0000"/>
<path class="atom-11" d="M 174.3 171.6 Q 174.3 168.9, 175.6 167.4 Q 176.9 165.9, 179.4 165.9 Q 181.9 165.9, 183.2 167.4 Q 184.5 168.9, 184.5 171.6 Q 184.5 174.3, 183.2 175.8 Q 181.9 177.3, 179.4 177.3 Q 176.9 177.3, 175.6 175.8 Q 174.3 174.3, 174.3 171.6 M 179.4 176.1 Q 181.1 176.1, 182.0 174.9 Q 183.0 173.8, 183.0 171.6 Q 183.0 169.4, 182.0 168.3 Q 181.1 167.1, 179.4 167.1 Q 177.7 167.1, 176.8 168.2 Q 175.9 169.3, 175.9 171.6 Q 175.9 173.8, 176.8 174.9 Q 177.7 176.1, 179.4 176.1 " fill="#FF0000"/>
<path class="atom-12" d="M 96.1 178.5 L 97.6 178.5 L 97.6 183.3 L 103.3 183.3 L 103.3 178.5 L 104.8 178.5 L 104.8 189.7 L 103.3 189.7 L 103.3 184.5 L 97.6 184.5 L 97.6 189.7 L 96.1 189.7 L 96.1 178.5 " fill="#FF0000"/>
<path class="atom-12" d="M 107.1 184.1 Q 107.1 181.4, 108.4 179.9 Q 109.8 178.4, 112.2 178.4 Q 114.7 178.4, 116.0 179.9 Q 117.4 181.4, 117.4 184.1 Q 117.4 186.8, 116.0 188.3 Q 114.7 189.9, 112.2 189.9 Q 109.8 189.9, 108.4 188.3 Q 107.1 186.8, 107.1 184.1 M 112.2 188.6 Q 113.9 188.6, 114.9 187.5 Q 115.8 186.3, 115.8 184.1 Q 115.8 181.9, 114.9 180.8 Q 113.9 179.7, 112.2 179.7 Q 110.5 179.7, 109.6 180.8 Q 108.7 181.9, 108.7 184.1 Q 108.7 186.3, 109.6 187.5 Q 110.5 188.6, 112.2 188.6 " fill="#FF0000"/>
<path class="atom-16" d="M 18.3 80.2 Q 18.3 77.6, 19.6 76.1 Q 20.9 74.6, 23.4 74.6 Q 25.9 74.6, 27.2 76.1 Q 28.5 77.6, 28.5 80.2 Q 28.5 83.0, 27.2 84.5 Q 25.8 86.0, 23.4 86.0 Q 20.9 86.0, 19.6 84.5 Q 18.3 83.0, 18.3 80.2 M 23.4 84.8 Q 25.1 84.8, 26.0 83.6 Q 26.9 82.5, 26.9 80.2 Q 26.9 78.1, 26.0 76.9 Q 25.1 75.8, 23.4 75.8 Q 21.7 75.8, 20.8 76.9 Q 19.8 78.0, 19.8 80.2 Q 19.8 82.5, 20.8 83.6 Q 21.7 84.8, 23.4 84.8 " fill="#FF0000"/>
<path class="atom-17" d="M 41.0 15.8 Q 41.0 13.1, 42.3 11.6 Q 43.7 10.1, 46.1 10.1 Q 48.6 10.1, 49.9 11.6 Q 51.3 13.1, 51.3 15.8 Q 51.3 18.5, 49.9 20.1 Q 48.6 21.6, 46.1 21.6 Q 43.7 21.6, 42.3 20.1 Q 41.0 18.5, 41.0 15.8 M 46.1 20.3 Q 47.8 20.3, 48.8 19.2 Q 49.7 18.1, 49.7 15.8 Q 49.7 13.6, 48.8 12.5 Q 47.8 11.4, 46.1 11.4 Q 44.4 11.4, 43.5 12.5 Q 42.6 13.6, 42.6 15.8 Q 42.6 18.1, 43.5 19.2 Q 44.4 20.3, 46.1 20.3 " fill="#FF0000"/>
<path class="atom-17" d="M 53.0 10.3 L 54.5 10.3 L 54.5 15.0 L 60.2 15.0 L 60.2 10.3 L 61.7 10.3 L 61.7 21.4 L 60.2 21.4 L 60.2 16.3 L 54.5 16.3 L 54.5 21.4 L 53.0 21.4 L 53.0 10.3 " fill="#FF0000"/>
<path class="atom-19" d="M 69.9 170.9 Q 69.9 168.3, 71.2 166.8 Q 72.6 165.3, 75.0 165.3 Q 77.5 165.3, 78.8 166.8 Q 80.2 168.3, 80.2 170.9 Q 80.2 173.7, 78.8 175.2 Q 77.5 176.7, 75.0 176.7 Q 72.6 176.7, 71.2 175.2 Q 69.9 173.7, 69.9 170.9 M 75.0 175.5 Q 76.7 175.5, 77.7 174.3 Q 78.6 173.2, 78.6 170.9 Q 78.6 168.7, 77.7 167.6 Q 76.7 166.5, 75.0 166.5 Q 73.3 166.5, 72.4 167.6 Q 71.5 168.7, 71.5 170.9 Q 71.5 173.2, 72.4 174.3 Q 73.3 175.5, 75.0 175.5 " fill="#FF0000"/>
<path class="atom-20" d="M 14.4 113.5 L 16.0 113.5 L 16.0 118.2 L 21.7 118.2 L 21.7 113.5 L 23.2 113.5 L 23.2 124.6 L 21.7 124.6 L 21.7 119.5 L 16.0 119.5 L 16.0 124.6 L 14.4 124.6 L 14.4 113.5 " fill="#FF0000"/>
<path class="atom-20" d="M 25.5 119.0 Q 25.5 116.3, 26.8 114.8 Q 28.1 113.3, 30.6 113.3 Q 33.1 113.3, 34.4 114.8 Q 35.7 116.3, 35.7 119.0 Q 35.7 121.7, 34.4 123.3 Q 33.1 124.8, 30.6 124.8 Q 28.1 124.8, 26.8 123.3 Q 25.5 121.8, 25.5 119.0 M 30.6 123.6 Q 32.3 123.6, 33.2 122.4 Q 34.2 121.3, 34.2 119.0 Q 34.2 116.8, 33.2 115.7 Q 32.3 114.6, 30.6 114.6 Q 28.9 114.6, 28.0 115.7 Q 27.1 116.8, 27.1 119.0 Q 27.1 121.3, 28.0 122.4 Q 28.9 123.6, 30.6 123.6 " fill="#FF0000"/>
</g>
  </g>
</svg>
