<?xml version='1.0' encoding='ASCII' standalone='yes'?>
<svg xmlns="http://www.w3.org/2000/svg" xmlns:xlink="http://www.w3.org/1999/xlink" version="1.1" width="893.0px" viewBox="0 0 893.0 200.0" height="200.0px">
  <g>
    <g transform="translate(0, 0) scale(1 1) "><!-- END OF HEADER -->
<rect style="opacity:1.0;fill:#FFFFFF;stroke:none" width="276.0" height="200.0" x="0.0" y="0.0"> </rect>
<path class="bond-0 atom-0 atom-1" d="M 258.8,77.3 L 234.6,91.6" style="fill:none;fill-rule:evenodd;stroke:#000000;stroke-width:2.0px;stroke-linecap:butt;stroke-linejoin:miter;stroke-opacity:1"/>
<path class="bond-0 atom-0 atom-1" d="M 256.7,73.8 L 232.5,88.1" style="fill:none;fill-rule:evenodd;stroke:#000000;stroke-width:2.0px;stroke-linecap:butt;stroke-linejoin:miter;stroke-opacity:1"/>
<path class="bond-1 atom-1 atom-2" d="M 234.5,89.3 L 211.1,76.0" style="fill:none;fill-rule:evenodd;stroke:#000000;stroke-width:2.0px;stroke-linecap:butt;stroke-linejoin:miter;stroke-opacity:1"/>
<path class="bond-2 atom-2 atom-3" d="M 211.1,76.0 L 187.8,89.8" style="fill:none;fill-rule:evenodd;stroke:#000000;stroke-width:2.0px;stroke-linecap:butt;stroke-linejoin:miter;stroke-opacity:1"/>
<path class="bond-3 atom-3 atom-4" d="M 187.8,89.8 L 164.4,76.5" style="fill:none;fill-rule:evenodd;stroke:#000000;stroke-width:2.0px;stroke-linecap:butt;stroke-linejoin:miter;stroke-opacity:1"/>
<path class="bond-4 atom-4 atom-5" d="M 164.4,76.5 L 155.0,82.1" style="fill:none;fill-rule:evenodd;stroke:#000000;stroke-width:2.0px;stroke-linecap:butt;stroke-linejoin:miter;stroke-opacity:1"/>
<path class="bond-4 atom-4 atom-5" d="M 155.0,82.1 L 145.6,87.6" style="fill:none;fill-rule:evenodd;stroke:#FF0000;stroke-width:2.0px;stroke-linecap:butt;stroke-linejoin:miter;stroke-opacity:1"/>
<path class="bond-5 atom-5 atom-6" d="M 136.8,87.8 L 127.2,82.4" style="fill:none;fill-rule:evenodd;stroke:#FF0000;stroke-width:2.0px;stroke-linecap:butt;stroke-linejoin:miter;stroke-opacity:1"/>
<path class="bond-5 atom-5 atom-6" d="M 127.2,82.4 L 117.7,77.0" style="fill:none;fill-rule:evenodd;stroke:#000000;stroke-width:2.0px;stroke-linecap:butt;stroke-linejoin:miter;stroke-opacity:1"/>
<path class="bond-6 atom-6 atom-7" d="M 117.7,77.0 L 117.6,65.9" style="fill:none;fill-rule:evenodd;stroke:#000000;stroke-width:2.0px;stroke-linecap:butt;stroke-linejoin:miter;stroke-opacity:1"/>
<path class="bond-6 atom-6 atom-7" d="M 117.6,65.9 L 117.5,54.9" style="fill:none;fill-rule:evenodd;stroke:#FF0000;stroke-width:2.0px;stroke-linecap:butt;stroke-linejoin:miter;stroke-opacity:1"/>
<path class="bond-7 atom-6 atom-8" d="M 117.7,77.0 L 94.5,90.7" style="fill:none;fill-rule:evenodd;stroke:#000000;stroke-width:2.0px;stroke-linecap:butt;stroke-linejoin:miter;stroke-opacity:1"/>
<path class="bond-8 atom-8 atom-9" d="M 94.5,90.7 L 71.0,77.5" style="fill:none;fill-rule:evenodd;stroke:#000000;stroke-width:2.0px;stroke-linecap:butt;stroke-linejoin:miter;stroke-opacity:1"/>
<path class="bond-9 atom-9 atom-10" d="M 71.0,77.5 L 47.8,91.2" style="fill:none;fill-rule:evenodd;stroke:#000000;stroke-width:2.0px;stroke-linecap:butt;stroke-linejoin:miter;stroke-opacity:1"/>
<path class="bond-10 atom-10 atom-11" d="M 49.8,90.0 L 25.3,76.2" style="fill:none;fill-rule:evenodd;stroke:#000000;stroke-width:2.0px;stroke-linecap:butt;stroke-linejoin:miter;stroke-opacity:1"/>
<path class="bond-10 atom-10 atom-11" d="M 47.8,93.5 L 23.3,79.7" style="fill:none;fill-rule:evenodd;stroke:#000000;stroke-width:2.0px;stroke-linecap:butt;stroke-linejoin:miter;stroke-opacity:1"/>
<path class="bond-11 atom-10 atom-12" d="M 47.8,91.2 L 48.1,118.1" style="fill:none;fill-rule:evenodd;stroke:#000000;stroke-width:2.0px;stroke-linecap:butt;stroke-linejoin:miter;stroke-opacity:1"/>
<path class="bond-12 atom-12 atom-13" d="M 46.0,119.3 L 56.1,125.0" style="fill:none;fill-rule:evenodd;stroke:#000000;stroke-width:2.0px;stroke-linecap:butt;stroke-linejoin:miter;stroke-opacity:1"/>
<path class="bond-12 atom-12 atom-13" d="M 56.1,125.0 L 66.1,130.7" style="fill:none;fill-rule:evenodd;stroke:#FF0000;stroke-width:2.0px;stroke-linecap:butt;stroke-linejoin:miter;stroke-opacity:1"/>
<path class="bond-12 atom-12 atom-13" d="M 48.0,115.8 L 58.1,121.5" style="fill:none;fill-rule:evenodd;stroke:#000000;stroke-width:2.0px;stroke-linecap:butt;stroke-linejoin:miter;stroke-opacity:1"/>
<path class="bond-12 atom-12 atom-13" d="M 58.1,121.5 L 68.1,127.1" style="fill:none;fill-rule:evenodd;stroke:#FF0000;stroke-width:2.0px;stroke-linecap:butt;stroke-linejoin:miter;stroke-opacity:1"/>
<path class="bond-13 atom-12 atom-14" d="M 48.1,118.1 L 38.6,123.7" style="fill:none;fill-rule:evenodd;stroke:#000000;stroke-width:2.0px;stroke-linecap:butt;stroke-linejoin:miter;stroke-opacity:1"/>
<path class="bond-13 atom-12 atom-14" d="M 38.6,123.7 L 29.2,129.3" style="fill:none;fill-rule:evenodd;stroke:#FF0000;stroke-width:2.0px;stroke-linecap:butt;stroke-linejoin:miter;stroke-opacity:1"/>
<path class="bond-14 atom-1 atom-15" d="M 234.5,89.3 L 234.8,116.2" style="fill:none;fill-rule:evenodd;stroke:#000000;stroke-width:2.0px;stroke-linecap:butt;stroke-linejoin:miter;stroke-opacity:1"/>
<path class="bond-15 atom-15 atom-16" d="M 232.8,117.4 L 242.9,123.1" style="fill:none;fill-rule:evenodd;stroke:#000000;stroke-width:2.0px;stroke-linecap:butt;stroke-linejoin:miter;stroke-opacity:1"/>
<path class="bond-15 atom-15 atom-16" d="M 242.9,123.1 L 252.9,128.8" style="fill:none;fill-rule:evenodd;stroke:#FF0000;stroke-width:2.0px;stroke-linecap:butt;stroke-linejoin:miter;stroke-opacity:1"/>
<path class="bond-15 atom-15 atom-16" d="M 234.8,113.9 L 244.8,119.6" style="fill:none;fill-rule:evenodd;stroke:#000000;stroke-width:2.0px;stroke-linecap:butt;stroke-linejoin:miter;stroke-opacity:1"/>
<path class="bond-15 atom-15 atom-16" d="M 244.8,119.6 L 254.9,125.2" style="fill:none;fill-rule:evenodd;stroke:#FF0000;stroke-width:2.0px;stroke-linecap:butt;stroke-linejoin:miter;stroke-opacity:1"/>
<path class="bond-16 atom-15 atom-17" d="M 234.8,116.2 L 225.4,121.8" style="fill:none;fill-rule:evenodd;stroke:#000000;stroke-width:2.0px;stroke-linecap:butt;stroke-linejoin:miter;stroke-opacity:1"/>
<path class="bond-16 atom-15 atom-17" d="M 225.4,121.8 L 216.0,127.4" style="fill:none;fill-rule:evenodd;stroke:#FF0000;stroke-width:2.0px;stroke-linecap:butt;stroke-linejoin:miter;stroke-opacity:1"/>
<path d="M 233.4,88.6 L 234.5,89.3 L 234.6,90.6" style="fill:none;stroke:#000000;stroke-width:2.0px;stroke-linecap:butt;stroke-linejoin:miter;stroke-opacity:1;"/>
<path d="M 212.2,76.7 L 211.1,76.0 L 209.9,76.7" style="fill:none;stroke:#000000;stroke-width:2.0px;stroke-linecap:butt;stroke-linejoin:miter;stroke-opacity:1;"/>
<path d="M 189.0,89.1 L 187.8,89.8 L 186.7,89.1" style="fill:none;stroke:#000000;stroke-width:2.0px;stroke-linecap:butt;stroke-linejoin:miter;stroke-opacity:1;"/>
<path d="M 165.5,77.2 L 164.4,76.5 L 163.9,76.8" style="fill:none;stroke:#000000;stroke-width:2.0px;stroke-linecap:butt;stroke-linejoin:miter;stroke-opacity:1;"/>
<path d="M 95.6,90.0 L 94.5,90.7 L 93.3,90.0" style="fill:none;stroke:#000000;stroke-width:2.0px;stroke-linecap:butt;stroke-linejoin:miter;stroke-opacity:1;"/>
<path d="M 72.2,78.1 L 71.0,77.5 L 69.8,78.1" style="fill:none;stroke:#000000;stroke-width:2.0px;stroke-linecap:butt;stroke-linejoin:miter;stroke-opacity:1;"/>
<path d="M 48.9,90.5 L 47.8,91.2 L 47.8,92.5" style="fill:none;stroke:#000000;stroke-width:2.0px;stroke-linecap:butt;stroke-linejoin:miter;stroke-opacity:1;"/>
<path d="M 48.0,116.8 L 48.1,118.1 L 47.6,118.4" style="fill:none;stroke:#000000;stroke-width:2.0px;stroke-linecap:butt;stroke-linejoin:miter;stroke-opacity:1;"/>
<path d="M 234.8,114.9 L 234.8,116.2 L 234.3,116.5" style="fill:none;stroke:#000000;stroke-width:2.0px;stroke-linecap:butt;stroke-linejoin:miter;stroke-opacity:1;"/>
<path class="atom-5" d="M 137.7 90.2 Q 137.7 88.4, 138.6 87.4 Q 139.5 86.4, 141.2 86.4 Q 142.9 86.4, 143.8 87.4 Q 144.7 88.4, 144.7 90.2 Q 144.7 92.1, 143.7 93.2 Q 142.8 94.2, 141.2 94.2 Q 139.5 94.2, 138.6 93.2 Q 137.7 92.1, 137.7 90.2 M 141.2 93.3 Q 142.3 93.3, 142.9 92.6 Q 143.6 91.8, 143.6 90.2 Q 143.6 88.8, 142.9 88.0 Q 142.3 87.2, 141.2 87.2 Q 140.0 87.2, 139.4 88.0 Q 138.7 88.7, 138.7 90.2 Q 138.7 91.8, 139.4 92.6 Q 140.0 93.3, 141.2 93.3 " fill="#FF0000"/>
<path class="atom-7" d="M 113.9 50.1 Q 113.9 48.2, 114.8 47.2 Q 115.7 46.2, 117.4 46.2 Q 119.1 46.2, 120.0 47.2 Q 120.9 48.2, 120.9 50.1 Q 120.9 51.9, 120.0 53.0 Q 119.1 54.0, 117.4 54.0 Q 115.7 54.0, 114.8 53.0 Q 113.9 51.9, 113.9 50.1 M 117.4 53.1 Q 118.6 53.1, 119.2 52.4 Q 119.8 51.6, 119.8 50.1 Q 119.8 48.6, 119.2 47.8 Q 118.6 47.0, 117.4 47.0 Q 116.2 47.0, 115.6 47.8 Q 115.0 48.5, 115.0 50.1 Q 115.0 51.6, 115.6 52.4 Q 116.2 53.1, 117.4 53.1 " fill="#FF0000"/>
<path class="atom-7" d="M 122.1 46.3 L 123.1 46.3 L 123.1 49.5 L 127.0 49.5 L 127.0 46.3 L 128.1 46.3 L 128.1 53.9 L 127.0 53.9 L 127.0 50.4 L 123.1 50.4 L 123.1 53.9 L 122.1 53.9 L 122.1 46.3 " fill="#FF0000"/>
<path class="atom-13" d="M 68.0 131.4 Q 68.0 129.6, 68.9 128.5 Q 69.8 127.5, 71.5 127.5 Q 73.2 127.5, 74.1 128.5 Q 75.0 129.6, 75.0 131.4 Q 75.0 133.3, 74.1 134.3 Q 73.2 135.4, 71.5 135.4 Q 69.9 135.4, 68.9 134.3 Q 68.0 133.3, 68.0 131.4 M 71.5 134.5 Q 72.7 134.5, 73.3 133.7 Q 74.0 132.9, 74.0 131.4 Q 74.0 129.9, 73.3 129.1 Q 72.7 128.4, 71.5 128.4 Q 70.4 128.4, 69.7 129.1 Q 69.1 129.9, 69.1 131.4 Q 69.1 132.9, 69.7 133.7 Q 70.4 134.5, 71.5 134.5 " fill="#FF0000"/>
<path class="atom-14" d="M 13.8 128.1 L 14.8 128.1 L 14.8 131.3 L 18.7 131.3 L 18.7 128.1 L 19.8 128.1 L 19.8 135.7 L 18.7 135.7 L 18.7 132.2 L 14.8 132.2 L 14.8 135.7 L 13.8 135.7 L 13.8 128.1 " fill="#FF0000"/>
<path class="atom-14" d="M 21.3 131.9 Q 21.3 130.0, 22.2 129.0 Q 23.2 128.0, 24.8 128.0 Q 26.5 128.0, 27.4 129.0 Q 28.3 130.0, 28.3 131.9 Q 28.3 133.7, 27.4 134.8 Q 26.5 135.8, 24.8 135.8 Q 23.2 135.8, 22.2 134.8 Q 21.3 133.7, 21.3 131.9 M 24.8 135.0 Q 26.0 135.0, 26.6 134.2 Q 27.3 133.4, 27.3 131.9 Q 27.3 130.4, 26.6 129.6 Q 26.0 128.9, 24.8 128.9 Q 23.7 128.9, 23.0 129.6 Q 22.4 130.4, 22.4 131.9 Q 22.4 133.4, 23.0 134.2 Q 23.7 135.0, 24.8 135.0 " fill="#FF0000"/>
<path class="atom-16" d="M 254.8 129.5 Q 254.8 127.7, 255.7 126.6 Q 256.6 125.6, 258.3 125.6 Q 260.0 125.6, 260.9 126.6 Q 261.8 127.7, 261.8 129.5 Q 261.8 131.4, 260.9 132.4 Q 260.0 133.5, 258.3 133.5 Q 256.6 133.5, 255.7 132.4 Q 254.8 131.4, 254.8 129.5 M 258.3 132.6 Q 259.5 132.6, 260.1 131.8 Q 260.7 131.0, 260.7 129.5 Q 260.7 128.0, 260.1 127.2 Q 259.5 126.5, 258.3 126.5 Q 257.1 126.5, 256.5 127.2 Q 255.9 128.0, 255.9 129.5 Q 255.9 131.0, 256.5 131.8 Q 257.1 132.6, 258.3 132.6 " fill="#FF0000"/>
<path class="atom-17" d="M 200.6 126.2 L 201.6 126.2 L 201.6 129.4 L 205.5 129.4 L 205.5 126.2 L 206.5 126.2 L 206.5 133.8 L 205.5 133.8 L 205.5 130.3 L 201.6 130.3 L 201.6 133.8 L 200.6 133.8 L 200.6 126.2 " fill="#FF0000"/>
<path class="atom-17" d="M 208.1 130.0 Q 208.1 128.1, 209.0 127.1 Q 209.9 126.1, 211.6 126.1 Q 213.3 126.1, 214.2 127.1 Q 215.1 128.1, 215.1 130.0 Q 215.1 131.8, 214.2 132.9 Q 213.3 133.9, 211.6 133.9 Q 209.9 133.9, 209.0 132.9 Q 208.1 131.8, 208.1 130.0 M 211.6 133.1 Q 212.8 133.1, 213.4 132.3 Q 214.0 131.5, 214.0 130.0 Q 214.0 128.5, 213.4 127.7 Q 212.8 127.0, 211.6 127.0 Q 210.4 127.0, 209.8 127.7 Q 209.2 128.5, 209.2 130.0 Q 209.2 131.5, 209.8 132.3 Q 210.4 133.1, 211.6 133.1 " fill="#FF0000"/>
<path class="legend" d="M 129.3 181.9 Q 129.3 179.6, 130.0 177.7 Q 130.6 175.8, 131.9 173.8 L 132.8 174.4 Q 131.8 176.3, 131.2 178.0 Q 130.7 179.7, 130.7 181.9 Q 130.7 184.0, 131.2 185.8 Q 131.8 187.5, 132.8 189.4 L 131.9 190.0 Q 130.6 188.0, 130.0 186.1 Q 129.3 184.2, 129.3 181.9 " fill="#000000"/>
<path class="legend" d="M 133.7 177.3 Q 134.2 176.2, 135.1 175.6 Q 136.1 175.0, 137.5 175.0 Q 139.2 175.0, 140.2 175.9 Q 141.1 176.8, 141.1 178.5 Q 141.1 180.2, 139.9 181.7 Q 138.7 183.3, 136.1 185.2 L 141.3 185.2 L 141.3 186.4 L 133.7 186.4 L 133.7 185.4 Q 135.8 183.9, 137.1 182.8 Q 138.3 181.6, 138.9 180.6 Q 139.5 179.6, 139.5 178.6 Q 139.5 177.5, 139.0 176.9 Q 138.5 176.3, 137.5 176.3 Q 136.6 176.3, 136.0 176.6 Q 135.4 177.0, 135.0 177.8 L 133.7 177.3 " fill="#000000"/>
<path class="legend" d="M 146.3 181.9 Q 146.3 184.2, 145.6 186.1 Q 145.0 188.0, 143.7 190.0 L 142.8 189.4 Q 143.8 187.5, 144.3 185.8 Q 144.9 184.0, 144.9 181.9 Q 144.9 179.7, 144.3 178.0 Q 143.8 176.3, 142.8 174.4 L 143.7 173.8 Q 145.0 175.8, 145.6 177.7 Q 146.3 179.6, 146.3 181.9 " fill="#000000"/>
</g>
    <g transform="translate(276.0, 0) scale(1 1) "><line x1="5" y1="100" x2="35" y2="100" style="stroke:rgb(0,0,0);stroke-width:2"/>
  <line x1="34" y1="100" x2="29" y2="95" style="stroke:rgb(0,0,0);stroke-width:2"/>
  <line x1="34" y1="100" x2="29" y2="105" style="stroke:rgb(0,0,0);stroke-width:2"/>
</g>
    <g transform="translate(316.0, 0) scale(1 1) "><!-- END OF HEADER -->
<rect style="opacity:1.0;fill:#FFFFFF;stroke:none" width="304.0" height="200.0" x="0.0" y="0.0"> </rect>
<path class="bond-0 atom-0 atom-1" d="M 285.1,84.5 L 265.9,96.2" style="fill:none;fill-rule:evenodd;stroke:#000000;stroke-width:2.0px;stroke-linecap:butt;stroke-linejoin:miter;stroke-opacity:1"/>
<path class="bond-0 atom-0 atom-1" d="M 283.4,81.7 L 264.2,93.5" style="fill:none;fill-rule:evenodd;stroke:#000000;stroke-width:2.0px;stroke-linecap:butt;stroke-linejoin:miter;stroke-opacity:1"/>
<path class="bond-1 atom-1 atom-2" d="M 265.8,94.4 L 246.9,84.1" style="fill:none;fill-rule:evenodd;stroke:#000000;stroke-width:2.0px;stroke-linecap:butt;stroke-linejoin:miter;stroke-opacity:1"/>
<path class="bond-2 atom-2 atom-3" d="M 246.9,84.1 L 228.5,95.4" style="fill:none;fill-rule:evenodd;stroke:#000000;stroke-width:2.0px;stroke-linecap:butt;stroke-linejoin:miter;stroke-opacity:1"/>
<path class="bond-3 atom-3 atom-4" d="M 228.5,95.4 L 209.5,85.1" style="fill:none;fill-rule:evenodd;stroke:#000000;stroke-width:2.0px;stroke-linecap:butt;stroke-linejoin:miter;stroke-opacity:1"/>
<path class="bond-4 atom-4 atom-5" d="M 209.5,85.1 L 191.2,96.4" style="fill:none;fill-rule:evenodd;stroke:#000000;stroke-width:2.0px;stroke-linecap:butt;stroke-linejoin:miter;stroke-opacity:1"/>
<path class="bond-4 atom-4 atom-5" d="M 209.7,88.8 L 194.5,98.2" style="fill:none;fill-rule:evenodd;stroke:#000000;stroke-width:2.0px;stroke-linecap:butt;stroke-linejoin:miter;stroke-opacity:1"/>
<path class="bond-5 atom-5 atom-6" d="M 191.2,96.4 L 172.2,86.1" style="fill:none;fill-rule:evenodd;stroke:#000000;stroke-width:2.0px;stroke-linecap:butt;stroke-linejoin:miter;stroke-opacity:1"/>
<path class="bond-6 atom-6 atom-7" d="M 172.2,86.1 L 153.8,97.4" style="fill:none;fill-rule:evenodd;stroke:#000000;stroke-width:2.0px;stroke-linecap:butt;stroke-linejoin:miter;stroke-opacity:1"/>
<path class="bond-7 atom-7 atom-8" d="M 153.8,97.4 L 134.9,87.1" style="fill:none;fill-rule:evenodd;stroke:#000000;stroke-width:2.0px;stroke-linecap:butt;stroke-linejoin:miter;stroke-opacity:1"/>
<path class="bond-8 atom-8 atom-9" d="M 134.9,87.1 L 127.4,91.7" style="fill:none;fill-rule:evenodd;stroke:#000000;stroke-width:2.0px;stroke-linecap:butt;stroke-linejoin:miter;stroke-opacity:1"/>
<path class="bond-8 atom-8 atom-9" d="M 127.4,91.7 L 120.0,96.3" style="fill:none;fill-rule:evenodd;stroke:#FF0000;stroke-width:2.0px;stroke-linecap:butt;stroke-linejoin:miter;stroke-opacity:1"/>
<path class="bond-9 atom-9 atom-10" d="M 113.0,96.5 L 105.3,92.3" style="fill:none;fill-rule:evenodd;stroke:#FF0000;stroke-width:2.0px;stroke-linecap:butt;stroke-linejoin:miter;stroke-opacity:1"/>
<path class="bond-9 atom-9 atom-10" d="M 105.3,92.3 L 97.5,88.2" style="fill:none;fill-rule:evenodd;stroke:#000000;stroke-width:2.0px;stroke-linecap:butt;stroke-linejoin:miter;stroke-opacity:1"/>
<path class="bond-10 atom-10 atom-11" d="M 97.5,88.2 L 97.3,79.3" style="fill:none;fill-rule:evenodd;stroke:#000000;stroke-width:2.0px;stroke-linecap:butt;stroke-linejoin:miter;stroke-opacity:1"/>
<path class="bond-10 atom-10 atom-11" d="M 97.3,79.3 L 97.1,70.5" style="fill:none;fill-rule:evenodd;stroke:#FF0000;stroke-width:2.0px;stroke-linecap:butt;stroke-linejoin:miter;stroke-opacity:1"/>
<path class="bond-11 atom-10 atom-12" d="M 97.5,88.2 L 79.2,99.4" style="fill:none;fill-rule:evenodd;stroke:#000000;stroke-width:2.0px;stroke-linecap:butt;stroke-linejoin:miter;stroke-opacity:1"/>
<path class="bond-12 atom-12 atom-13" d="M 79.2,99.4 L 60.2,89.2" style="fill:none;fill-rule:evenodd;stroke:#000000;stroke-width:2.0px;stroke-linecap:butt;stroke-linejoin:miter;stroke-opacity:1"/>
<path class="bond-13 atom-13 atom-14" d="M 60.2,89.2 L 41.8,100.5" style="fill:none;fill-rule:evenodd;stroke:#000000;stroke-width:2.0px;stroke-linecap:butt;stroke-linejoin:miter;stroke-opacity:1"/>
<path class="bond-14 atom-14 atom-15" d="M 43.4,99.5 L 23.6,88.8" style="fill:none;fill-rule:evenodd;stroke:#000000;stroke-width:2.0px;stroke-linecap:butt;stroke-linejoin:miter;stroke-opacity:1"/>
<path class="bond-14 atom-14 atom-15" d="M 41.9,102.3 L 22.1,91.6" style="fill:none;fill-rule:evenodd;stroke:#000000;stroke-width:2.0px;stroke-linecap:butt;stroke-linejoin:miter;stroke-opacity:1"/>
<path class="bond-15 atom-14 atom-16" d="M 41.8,100.5 L 42.4,122.0" style="fill:none;fill-rule:evenodd;stroke:#000000;stroke-width:2.0px;stroke-linecap:butt;stroke-linejoin:miter;stroke-opacity:1"/>
<path class="bond-16 atom-16 atom-17" d="M 40.8,123.0 L 49.0,127.4" style="fill:none;fill-rule:evenodd;stroke:#000000;stroke-width:2.0px;stroke-linecap:butt;stroke-linejoin:miter;stroke-opacity:1"/>
<path class="bond-16 atom-16 atom-17" d="M 49.0,127.4 L 57.1,131.8" style="fill:none;fill-rule:evenodd;stroke:#FF0000;stroke-width:2.0px;stroke-linecap:butt;stroke-linejoin:miter;stroke-opacity:1"/>
<path class="bond-16 atom-16 atom-17" d="M 42.4,120.2 L 50.5,124.6" style="fill:none;fill-rule:evenodd;stroke:#000000;stroke-width:2.0px;stroke-linecap:butt;stroke-linejoin:miter;stroke-opacity:1"/>
<path class="bond-16 atom-16 atom-17" d="M 50.5,124.6 L 58.6,129.0" style="fill:none;fill-rule:evenodd;stroke:#FF0000;stroke-width:2.0px;stroke-linecap:butt;stroke-linejoin:miter;stroke-opacity:1"/>
<path class="bond-17 atom-16 atom-18" d="M 42.4,122.0 L 35.0,126.6" style="fill:none;fill-rule:evenodd;stroke:#000000;stroke-width:2.0px;stroke-linecap:butt;stroke-linejoin:miter;stroke-opacity:1"/>
<path class="bond-17 atom-16 atom-18" d="M 35.0,126.6 L 27.5,131.1" style="fill:none;fill-rule:evenodd;stroke:#FF0000;stroke-width:2.0px;stroke-linecap:butt;stroke-linejoin:miter;stroke-opacity:1"/>
<path class="bond-18 atom-5 atom-19" d="M 191.2,96.4 L 191.8,118.0" style="fill:none;fill-rule:evenodd;stroke:#000000;stroke-width:2.0px;stroke-linecap:butt;stroke-linejoin:miter;stroke-opacity:1"/>
<path class="bond-19 atom-19 atom-20" d="M 190.2,118.9 L 198.3,123.3" style="fill:none;fill-rule:evenodd;stroke:#000000;stroke-width:2.0px;stroke-linecap:butt;stroke-linejoin:miter;stroke-opacity:1"/>
<path class="bond-19 atom-19 atom-20" d="M 198.3,123.3 L 206.4,127.7" style="fill:none;fill-rule:evenodd;stroke:#FF0000;stroke-width:2.0px;stroke-linecap:butt;stroke-linejoin:miter;stroke-opacity:1"/>
<path class="bond-19 atom-19 atom-20" d="M 191.7,116.1 L 199.8,120.5" style="fill:none;fill-rule:evenodd;stroke:#000000;stroke-width:2.0px;stroke-linecap:butt;stroke-linejoin:miter;stroke-opacity:1"/>
<path class="bond-19 atom-19 atom-20" d="M 199.8,120.5 L 208.0,124.9" style="fill:none;fill-rule:evenodd;stroke:#FF0000;stroke-width:2.0px;stroke-linecap:butt;stroke-linejoin:miter;stroke-opacity:1"/>
<path class="bond-20 atom-19 atom-21" d="M 191.8,118.0 L 184.3,122.5" style="fill:none;fill-rule:evenodd;stroke:#000000;stroke-width:2.0px;stroke-linecap:butt;stroke-linejoin:miter;stroke-opacity:1"/>
<path class="bond-20 atom-19 atom-21" d="M 184.3,122.5 L 176.9,127.1" style="fill:none;fill-rule:evenodd;stroke:#FF0000;stroke-width:2.0px;stroke-linecap:butt;stroke-linejoin:miter;stroke-opacity:1"/>
<path class="bond-21 atom-1 atom-22" d="M 265.8,94.4 L 266.4,115.9" style="fill:none;fill-rule:evenodd;stroke:#000000;stroke-width:2.0px;stroke-linecap:butt;stroke-linejoin:miter;stroke-opacity:1"/>
<path class="bond-22 atom-22 atom-23" d="M 264.8,116.9 L 273.0,121.3" style="fill:none;fill-rule:evenodd;stroke:#000000;stroke-width:2.0px;stroke-linecap:butt;stroke-linejoin:miter;stroke-opacity:1"/>
<path class="bond-22 atom-22 atom-23" d="M 273.0,121.3 L 281.1,125.7" style="fill:none;fill-rule:evenodd;stroke:#FF0000;stroke-width:2.0px;stroke-linecap:butt;stroke-linejoin:miter;stroke-opacity:1"/>
<path class="bond-22 atom-22 atom-23" d="M 266.4,114.1 L 274.5,118.5" style="fill:none;fill-rule:evenodd;stroke:#000000;stroke-width:2.0px;stroke-linecap:butt;stroke-linejoin:miter;stroke-opacity:1"/>
<path class="bond-22 atom-22 atom-23" d="M 274.5,118.5 L 282.7,122.9" style="fill:none;fill-rule:evenodd;stroke:#FF0000;stroke-width:2.0px;stroke-linecap:butt;stroke-linejoin:miter;stroke-opacity:1"/>
<path class="bond-23 atom-22 atom-24" d="M 266.4,115.9 L 259.0,120.5" style="fill:none;fill-rule:evenodd;stroke:#000000;stroke-width:2.0px;stroke-linecap:butt;stroke-linejoin:miter;stroke-opacity:1"/>
<path class="bond-23 atom-22 atom-24" d="M 259.0,120.5 L 251.6,125.1" style="fill:none;fill-rule:evenodd;stroke:#FF0000;stroke-width:2.0px;stroke-linecap:butt;stroke-linejoin:miter;stroke-opacity:1"/>
<path d="M 264.9,93.9 L 265.8,94.4 L 265.9,95.4" style="fill:none;stroke:#000000;stroke-width:2.0px;stroke-linecap:butt;stroke-linejoin:miter;stroke-opacity:1;"/>
<path d="M 247.8,84.6 L 246.9,84.1 L 246.0,84.7" style="fill:none;stroke:#000000;stroke-width:2.0px;stroke-linecap:butt;stroke-linejoin:miter;stroke-opacity:1;"/>
<path d="M 229.4,94.8 L 228.5,95.4 L 227.6,94.9" style="fill:none;stroke:#000000;stroke-width:2.0px;stroke-linecap:butt;stroke-linejoin:miter;stroke-opacity:1;"/>
<path d="M 210.5,85.6 L 209.5,85.1 L 208.6,85.7" style="fill:none;stroke:#000000;stroke-width:2.0px;stroke-linecap:butt;stroke-linejoin:miter;stroke-opacity:1;"/>
<path d="M 173.2,86.6 L 172.2,86.1 L 171.3,86.7" style="fill:none;stroke:#000000;stroke-width:2.0px;stroke-linecap:butt;stroke-linejoin:miter;stroke-opacity:1;"/>
<path d="M 154.8,96.8 L 153.8,97.4 L 152.9,96.9" style="fill:none;stroke:#000000;stroke-width:2.0px;stroke-linecap:butt;stroke-linejoin:miter;stroke-opacity:1;"/>
<path d="M 135.8,87.7 L 134.9,87.1 L 134.5,87.4" style="fill:none;stroke:#000000;stroke-width:2.0px;stroke-linecap:butt;stroke-linejoin:miter;stroke-opacity:1;"/>
<path d="M 80.1,98.9 L 79.2,99.4 L 78.2,98.9" style="fill:none;stroke:#000000;stroke-width:2.0px;stroke-linecap:butt;stroke-linejoin:miter;stroke-opacity:1;"/>
<path d="M 61.1,89.7 L 60.2,89.2 L 59.3,89.7" style="fill:none;stroke:#000000;stroke-width:2.0px;stroke-linecap:butt;stroke-linejoin:miter;stroke-opacity:1;"/>
<path d="M 42.7,99.9 L 41.8,100.5 L 41.9,101.5" style="fill:none;stroke:#000000;stroke-width:2.0px;stroke-linecap:butt;stroke-linejoin:miter;stroke-opacity:1;"/>
<path d="M 42.4,120.9 L 42.4,122.0 L 42.0,122.2" style="fill:none;stroke:#000000;stroke-width:2.0px;stroke-linecap:butt;stroke-linejoin:miter;stroke-opacity:1;"/>
<path d="M 191.7,116.9 L 191.8,118.0 L 191.4,118.2" style="fill:none;stroke:#000000;stroke-width:2.0px;stroke-linecap:butt;stroke-linejoin:miter;stroke-opacity:1;"/>
<path d="M 266.4,114.8 L 266.4,115.9 L 266.1,116.2" style="fill:none;stroke:#000000;stroke-width:2.0px;stroke-linecap:butt;stroke-linejoin:miter;stroke-opacity:1;"/>
<path class="atom-9" d="M 113.7 98.4 Q 113.7 97.0, 114.4 96.2 Q 115.1 95.3, 116.5 95.3 Q 117.9 95.3, 118.6 96.2 Q 119.3 97.0, 119.3 98.4 Q 119.3 99.9, 118.6 100.8 Q 117.8 101.6, 116.5 101.6 Q 115.2 101.6, 114.4 100.8 Q 113.7 99.9, 113.7 98.4 M 116.5 100.9 Q 117.4 100.9, 117.9 100.3 Q 118.4 99.7, 118.4 98.4 Q 118.4 97.2, 117.9 96.6 Q 117.4 96.0, 116.5 96.0 Q 115.6 96.0, 115.1 96.6 Q 114.6 97.2, 114.6 98.4 Q 114.6 99.7, 115.1 100.3 Q 115.6 100.9, 116.5 100.9 " fill="#FF0000"/>
<path class="atom-11" d="M 94.1 66.6 Q 94.1 65.2, 94.9 64.3 Q 95.6 63.5, 97.0 63.5 Q 98.3 63.5, 99.0 64.3 Q 99.8 65.2, 99.8 66.6 Q 99.8 68.1, 99.0 68.9 Q 98.3 69.8, 97.0 69.8 Q 95.6 69.8, 94.9 68.9 Q 94.1 68.1, 94.1 66.6 M 97.0 69.1 Q 97.9 69.1, 98.4 68.5 Q 98.9 67.8, 98.9 66.6 Q 98.9 65.4, 98.4 64.8 Q 97.9 64.2, 97.0 64.2 Q 96.0 64.2, 95.5 64.8 Q 95.0 65.4, 95.0 66.6 Q 95.0 67.9, 95.5 68.5 Q 96.0 69.1, 97.0 69.1 " fill="#FF0000"/>
<path class="atom-11" d="M 100.7 63.6 L 101.5 63.6 L 101.5 66.2 L 104.7 66.2 L 104.7 63.6 L 105.5 63.6 L 105.5 69.7 L 104.7 69.7 L 104.7 66.9 L 101.5 66.9 L 101.5 69.7 L 100.7 69.7 L 100.7 63.6 " fill="#FF0000"/>
<path class="atom-17" d="M 58.6 132.3 Q 58.6 130.8, 59.3 130.0 Q 60.0 129.2, 61.4 129.2 Q 62.7 129.2, 63.5 130.0 Q 64.2 130.8, 64.2 132.3 Q 64.2 133.8, 63.4 134.6 Q 62.7 135.5, 61.4 135.5 Q 60.0 135.5, 59.3 134.6 Q 58.6 133.8, 58.6 132.3 M 61.4 134.8 Q 62.3 134.8, 62.8 134.2 Q 63.3 133.5, 63.3 132.3 Q 63.3 131.1, 62.8 130.5 Q 62.3 129.9, 61.4 129.9 Q 60.4 129.9, 59.9 130.5 Q 59.4 131.1, 59.4 132.3 Q 59.4 133.5, 59.9 134.2 Q 60.4 134.8, 61.4 134.8 " fill="#FF0000"/>
<path class="atom-18" d="M 15.2 130.3 L 16.0 130.3 L 16.0 132.9 L 19.2 132.9 L 19.2 130.3 L 20.0 130.3 L 20.0 136.4 L 19.2 136.4 L 19.2 133.6 L 16.0 133.6 L 16.0 136.4 L 15.2 136.4 L 15.2 130.3 " fill="#FF0000"/>
<path class="atom-18" d="M 21.2 133.3 Q 21.2 131.9, 22.0 131.0 Q 22.7 130.2, 24.0 130.2 Q 25.4 130.2, 26.1 131.0 Q 26.8 131.9, 26.8 133.3 Q 26.8 134.8, 26.1 135.6 Q 25.4 136.5, 24.0 136.5 Q 22.7 136.5, 22.0 135.6 Q 21.2 134.8, 21.2 133.3 M 24.0 135.8 Q 25.0 135.8, 25.5 135.2 Q 26.0 134.5, 26.0 133.3 Q 26.0 132.1, 25.5 131.5 Q 25.0 130.9, 24.0 130.9 Q 23.1 130.9, 22.6 131.5 Q 22.1 132.1, 22.1 133.3 Q 22.1 134.6, 22.6 135.2 Q 23.1 135.8, 24.0 135.8 " fill="#FF0000"/>
<path class="atom-20" d="M 207.9 128.2 Q 207.9 126.8, 208.6 126.0 Q 209.4 125.1, 210.7 125.1 Q 212.1 125.1, 212.8 126.0 Q 213.5 126.8, 213.5 128.2 Q 213.5 129.7, 212.8 130.6 Q 212.1 131.4, 210.7 131.4 Q 209.4 131.4, 208.6 130.6 Q 207.9 129.7, 207.9 128.2 M 210.7 130.7 Q 211.7 130.7, 212.2 130.1 Q 212.7 129.5, 212.7 128.2 Q 212.7 127.0, 212.2 126.4 Q 211.7 125.8, 210.7 125.8 Q 209.8 125.8, 209.3 126.4 Q 208.8 127.0, 208.8 128.2 Q 208.8 129.5, 209.3 130.1 Q 209.8 130.7, 210.7 130.7 " fill="#FF0000"/>
<path class="atom-21" d="M 164.5 126.2 L 165.4 126.2 L 165.4 128.8 L 168.5 128.8 L 168.5 126.2 L 169.3 126.2 L 169.3 132.3 L 168.5 132.3 L 168.5 129.5 L 165.4 129.5 L 165.4 132.3 L 164.5 132.3 L 164.5 126.2 " fill="#FF0000"/>
<path class="atom-21" d="M 170.6 129.3 Q 170.6 127.8, 171.3 127.0 Q 172.0 126.2, 173.4 126.2 Q 174.7 126.2, 175.5 127.0 Q 176.2 127.8, 176.2 129.3 Q 176.2 130.7, 175.5 131.6 Q 174.7 132.4, 173.4 132.4 Q 172.0 132.4, 171.3 131.6 Q 170.6 130.8, 170.6 129.3 M 173.4 131.7 Q 174.3 131.7, 174.8 131.1 Q 175.3 130.5, 175.3 129.3 Q 175.3 128.1, 174.8 127.5 Q 174.3 126.8, 173.4 126.8 Q 172.5 126.8, 171.9 127.4 Q 171.4 128.1, 171.4 129.3 Q 171.4 130.5, 171.9 131.1 Q 172.5 131.7, 173.4 131.7 " fill="#FF0000"/>
<path class="atom-23" d="M 282.6 126.2 Q 282.6 124.7, 283.3 123.9 Q 284.0 123.1, 285.4 123.1 Q 286.8 123.1, 287.5 123.9 Q 288.2 124.7, 288.2 126.2 Q 288.2 127.7, 287.5 128.5 Q 286.7 129.4, 285.4 129.4 Q 284.1 129.4, 283.3 128.5 Q 282.6 127.7, 282.6 126.2 M 285.4 128.7 Q 286.3 128.7, 286.8 128.1 Q 287.3 127.4, 287.3 126.2 Q 287.3 125.0, 286.8 124.4 Q 286.3 123.8, 285.4 123.8 Q 284.5 123.8, 284.0 124.4 Q 283.5 125.0, 283.5 126.2 Q 283.5 127.4, 284.0 128.1 Q 284.5 128.7, 285.4 128.7 " fill="#FF0000"/>
<path class="atom-24" d="M 239.2 124.2 L 240.1 124.2 L 240.1 126.8 L 243.2 126.8 L 243.2 124.2 L 244.0 124.2 L 244.0 130.3 L 243.2 130.3 L 243.2 127.5 L 240.1 127.5 L 240.1 130.3 L 239.2 130.3 L 239.2 124.2 " fill="#FF0000"/>
<path class="atom-24" d="M 245.3 127.2 Q 245.3 125.8, 246.0 124.9 Q 246.7 124.1, 248.1 124.1 Q 249.4 124.1, 250.1 124.9 Q 250.9 125.8, 250.9 127.2 Q 250.9 128.7, 250.1 129.6 Q 249.4 130.4, 248.1 130.4 Q 246.7 130.4, 246.0 129.6 Q 245.3 128.7, 245.3 127.2 M 248.1 129.7 Q 249.0 129.7, 249.5 129.1 Q 250.0 128.5, 250.0 127.2 Q 250.0 126.0, 249.5 125.4 Q 249.0 124.8, 248.1 124.8 Q 247.1 124.8, 246.6 125.4 Q 246.1 126.0, 246.1 127.2 Q 246.1 128.5, 246.6 129.1 Q 247.1 129.7, 248.1 129.7 " fill="#FF0000"/>
</g>
    <g transform="translate(620.0, 0) scale(1 1) "><line x1="15" y1="100" x2="25" y2="100" style="stroke:rgb(0,0,0);stroke-width:2"/>
  <line x1="20" y1="95" x2="20" y2="105" style="stroke:rgb(0,0,0);stroke-width:2"/>
</g>
    <g transform="translate(660.0, 0) scale(1 1) "><!-- END OF HEADER -->
<rect style="opacity:1.0;fill:#FFFFFF;stroke:none" width="233.0" height="200.0" x="0.0" y="0.0"> </rect>
<path class="bond-0 atom-0 atom-1" d="M 207.6,65.4 L 182.8,86.0" style="fill:none;fill-rule:evenodd;stroke:#000000;stroke-width:2.0px;stroke-linecap:butt;stroke-linejoin:miter;stroke-opacity:1"/>
<path class="bond-0 atom-0 atom-1" d="M 204.6,61.8 L 179.9,82.5" style="fill:none;fill-rule:evenodd;stroke:#000000;stroke-width:2.0px;stroke-linecap:butt;stroke-linejoin:miter;stroke-opacity:1"/>
<path class="bond-1 atom-1 atom-2" d="M 182.4,83.4 L 153.4,72.7" style="fill:none;fill-rule:evenodd;stroke:#000000;stroke-width:2.0px;stroke-linecap:butt;stroke-linejoin:miter;stroke-opacity:1"/>
<path class="bond-2 atom-2 atom-3" d="M 153.4,72.7 L 129.7,92.5" style="fill:none;fill-rule:evenodd;stroke:#000000;stroke-width:2.0px;stroke-linecap:butt;stroke-linejoin:miter;stroke-opacity:1"/>
<path class="bond-3 atom-3 atom-4" d="M 129.7,92.5 L 100.7,81.9" style="fill:none;fill-rule:evenodd;stroke:#000000;stroke-width:2.0px;stroke-linecap:butt;stroke-linejoin:miter;stroke-opacity:1"/>
<path class="bond-4 atom-4 atom-5" d="M 100.7,81.9 L 91.4,89.6" style="fill:none;fill-rule:evenodd;stroke:#000000;stroke-width:2.0px;stroke-linecap:butt;stroke-linejoin:miter;stroke-opacity:1"/>
<path class="bond-4 atom-4 atom-5" d="M 91.4,89.6 L 82.0,97.4" style="fill:none;fill-rule:evenodd;stroke:#FF0000;stroke-width:2.0px;stroke-linecap:butt;stroke-linejoin:miter;stroke-opacity:1"/>
<path class="bond-5 atom-5 atom-6" d="M 72.0,99.8 L 60.0,95.4" style="fill:none;fill-rule:evenodd;stroke:#FF0000;stroke-width:2.0px;stroke-linecap:butt;stroke-linejoin:miter;stroke-opacity:1"/>
<path class="bond-5 atom-5 atom-6" d="M 60.0,95.4 L 48.0,91.0" style="fill:none;fill-rule:evenodd;stroke:#000000;stroke-width:2.0px;stroke-linecap:butt;stroke-linejoin:miter;stroke-opacity:1"/>
<path class="bond-6 atom-6 atom-7" d="M 48.0,91.0 L 38.7,98.8" style="fill:none;fill-rule:evenodd;stroke:#000000;stroke-width:2.0px;stroke-linecap:butt;stroke-linejoin:miter;stroke-opacity:1"/>
<path class="bond-6 atom-6 atom-7" d="M 38.7,98.8 L 29.3,106.5" style="fill:none;fill-rule:evenodd;stroke:#FF0000;stroke-width:2.0px;stroke-linecap:butt;stroke-linejoin:miter;stroke-opacity:1"/>
<path class="bond-7 atom-1 atom-8" d="M 182.4,83.4 L 187.7,113.8" style="fill:none;fill-rule:evenodd;stroke:#000000;stroke-width:2.0px;stroke-linecap:butt;stroke-linejoin:miter;stroke-opacity:1"/>
<path class="bond-8 atom-8 atom-9" d="M 185.6,115.5 L 198.2,120.2" style="fill:none;fill-rule:evenodd;stroke:#000000;stroke-width:2.0px;stroke-linecap:butt;stroke-linejoin:miter;stroke-opacity:1"/>
<path class="bond-8 atom-8 atom-9" d="M 198.2,120.2 L 210.8,124.8" style="fill:none;fill-rule:evenodd;stroke:#FF0000;stroke-width:2.0px;stroke-linecap:butt;stroke-linejoin:miter;stroke-opacity:1"/>
<path class="bond-8 atom-8 atom-9" d="M 187.2,111.2 L 199.8,115.8" style="fill:none;fill-rule:evenodd;stroke:#000000;stroke-width:2.0px;stroke-linecap:butt;stroke-linejoin:miter;stroke-opacity:1"/>
<path class="bond-8 atom-8 atom-9" d="M 199.8,115.8 L 212.4,120.5" style="fill:none;fill-rule:evenodd;stroke:#FF0000;stroke-width:2.0px;stroke-linecap:butt;stroke-linejoin:miter;stroke-opacity:1"/>
<path class="bond-9 atom-8 atom-10" d="M 187.7,113.8 L 178.3,121.6" style="fill:none;fill-rule:evenodd;stroke:#000000;stroke-width:2.0px;stroke-linecap:butt;stroke-linejoin:miter;stroke-opacity:1"/>
<path class="bond-9 atom-8 atom-10" d="M 178.3,121.6 L 169.0,129.4" style="fill:none;fill-rule:evenodd;stroke:#FF0000;stroke-width:2.0px;stroke-linecap:butt;stroke-linejoin:miter;stroke-opacity:1"/>
<path d="M 180.9,82.9 L 182.4,83.4 L 182.7,84.9" style="fill:none;stroke:#000000;stroke-width:2.0px;stroke-linecap:butt;stroke-linejoin:miter;stroke-opacity:1;"/>
<path d="M 154.9,73.3 L 153.4,72.7 L 152.2,73.7" style="fill:none;stroke:#000000;stroke-width:2.0px;stroke-linecap:butt;stroke-linejoin:miter;stroke-opacity:1;"/>
<path d="M 130.9,91.5 L 129.7,92.5 L 128.2,92.0" style="fill:none;stroke:#000000;stroke-width:2.0px;stroke-linecap:butt;stroke-linejoin:miter;stroke-opacity:1;"/>
<path d="M 102.2,82.4 L 100.7,81.9 L 100.2,82.2" style="fill:none;stroke:#000000;stroke-width:2.0px;stroke-linecap:butt;stroke-linejoin:miter;stroke-opacity:1;"/>
<path d="M 48.6,91.2 L 48.0,91.0 L 47.6,91.4" style="fill:none;stroke:#000000;stroke-width:2.0px;stroke-linecap:butt;stroke-linejoin:miter;stroke-opacity:1;"/>
<path d="M 187.4,112.3 L 187.7,113.8 L 187.2,114.2" style="fill:none;stroke:#000000;stroke-width:2.0px;stroke-linecap:butt;stroke-linejoin:miter;stroke-opacity:1;"/>
<path class="atom-5" d="M 73.0 101.7 Q 73.0 99.6, 74.0 98.4 Q 75.1 97.2, 77.0 97.2 Q 78.9 97.2, 80.0 98.4 Q 81.0 99.6, 81.0 101.7 Q 81.0 103.8, 80.0 105.0 Q 78.9 106.2, 77.0 106.2 Q 75.1 106.2, 74.0 105.0 Q 73.0 103.8, 73.0 101.7 M 77.0 105.2 Q 78.3 105.2, 79.0 104.3 Q 79.8 103.4, 79.8 101.7 Q 79.8 99.9, 79.0 99.1 Q 78.3 98.2, 77.0 98.2 Q 75.7 98.2, 74.9 99.1 Q 74.2 99.9, 74.2 101.7 Q 74.2 103.4, 74.9 104.3 Q 75.7 105.2, 77.0 105.2 " fill="#FF0000"/>
<path class="atom-7" d="M 11.6 106.4 L 12.8 106.4 L 12.8 110.1 L 17.3 110.1 L 17.3 106.4 L 18.5 106.4 L 18.5 115.2 L 17.3 115.2 L 17.3 111.1 L 12.8 111.1 L 12.8 115.2 L 11.6 115.2 L 11.6 106.4 " fill="#FF0000"/>
<path class="atom-7" d="M 20.3 110.8 Q 20.3 108.7, 21.3 107.5 Q 22.4 106.3, 24.3 106.3 Q 26.2 106.3, 27.3 107.5 Q 28.3 108.7, 28.3 110.8 Q 28.3 112.9, 27.3 114.1 Q 26.2 115.3, 24.3 115.3 Q 22.4 115.3, 21.3 114.1 Q 20.3 112.9, 20.3 110.8 M 24.3 114.3 Q 25.6 114.3, 26.3 113.4 Q 27.1 112.5, 27.1 110.8 Q 27.1 109.1, 26.3 108.2 Q 25.6 107.3, 24.3 107.3 Q 23.0 107.3, 22.2 108.2 Q 21.5 109.0, 21.5 110.8 Q 21.5 112.5, 22.2 113.4 Q 23.0 114.3, 24.3 114.3 " fill="#FF0000"/>
<path class="atom-9" d="M 212.6 124.5 Q 212.6 122.4, 213.7 121.2 Q 214.7 120.1, 216.6 120.1 Q 218.6 120.1, 219.6 121.2 Q 220.7 122.4, 220.7 124.5 Q 220.7 126.6, 219.6 127.8 Q 218.6 129.0, 216.6 129.0 Q 214.7 129.0, 213.7 127.8 Q 212.6 126.6, 212.6 124.5 M 216.6 128.0 Q 218.0 128.0, 218.7 127.2 Q 219.4 126.3, 219.4 124.5 Q 219.4 122.8, 218.7 121.9 Q 218.0 121.0, 216.6 121.0 Q 215.3 121.0, 214.6 121.9 Q 213.9 122.8, 213.9 124.5 Q 213.9 126.3, 214.6 127.2 Q 215.3 128.0, 216.6 128.0 " fill="#FF0000"/>
<path class="atom-10" d="M 151.3 129.3 L 152.5 129.3 L 152.5 133.0 L 156.9 133.0 L 156.9 129.3 L 158.1 129.3 L 158.1 138.0 L 156.9 138.0 L 156.9 134.0 L 152.5 134.0 L 152.5 138.0 L 151.3 138.0 L 151.3 129.3 " fill="#FF0000"/>
<path class="atom-10" d="M 159.9 133.6 Q 159.9 131.5, 161.0 130.3 Q 162.0 129.2, 163.9 129.2 Q 165.9 129.2, 166.9 130.3 Q 168.0 131.5, 168.0 133.6 Q 168.0 135.7, 166.9 137.0 Q 165.9 138.2, 163.9 138.2 Q 162.0 138.2, 161.0 137.0 Q 159.9 135.8, 159.9 133.6 M 163.9 137.2 Q 165.3 137.2, 166.0 136.3 Q 166.7 135.4, 166.7 133.6 Q 166.7 131.9, 166.0 131.0 Q 165.3 130.2, 163.9 130.2 Q 162.6 130.2, 161.9 131.0 Q 161.2 131.9, 161.2 133.6 Q 161.2 135.4, 161.9 136.3 Q 162.6 137.2, 163.9 137.2 " fill="#FF0000"/>
</g>
  </g>
</svg>
