<?xml version='1.0' encoding='ASCII' standalone='yes'?>
<svg xmlns="http://www.w3.org/2000/svg" xmlns:xlink="http://www.w3.org/1999/xlink" version="1.1" width="534.0px" viewBox="0 0 534.0 200.0" height="200.0px">
  <g>
    <g transform="translate(0, 0) scale(1 1) "><!-- END OF HEADER -->
<rect style="opacity:1.0;fill:#FFFFFF;stroke:none" width="247.0" height="200.0" x="0.0" y="0.0"> </rect>
<path class="bond-0 atom-0 atom-1" d="M 83.9,46.5 L 75.9,60.3" style="fill:none;fill-rule:evenodd;stroke:#FF0000;stroke-width:2.0px;stroke-linecap:butt;stroke-linejoin:miter;stroke-opacity:1"/>
<path class="bond-0 atom-0 atom-1" d="M 75.9,60.3 L 67.9,74.1" style="fill:none;fill-rule:evenodd;stroke:#000000;stroke-width:2.0px;stroke-linecap:butt;stroke-linejoin:miter;stroke-opacity:1"/>
<path class="bond-0 atom-0 atom-1" d="M 78.9,43.6 L 70.9,57.4" style="fill:none;fill-rule:evenodd;stroke:#FF0000;stroke-width:2.0px;stroke-linecap:butt;stroke-linejoin:miter;stroke-opacity:1"/>
<path class="bond-0 atom-0 atom-1" d="M 70.9,57.4 L 62.9,71.2" style="fill:none;fill-rule:evenodd;stroke:#000000;stroke-width:2.0px;stroke-linecap:butt;stroke-linejoin:miter;stroke-opacity:1"/>
<path class="bond-1 atom-1 atom-2" d="M 66.3,71.2 L 50.3,71.2" style="fill:none;fill-rule:evenodd;stroke:#000000;stroke-width:2.0px;stroke-linecap:butt;stroke-linejoin:miter;stroke-opacity:1"/>
<path class="bond-1 atom-1 atom-2" d="M 50.3,71.2 L 34.2,71.2" style="fill:none;fill-rule:evenodd;stroke:#FF0000;stroke-width:2.0px;stroke-linecap:butt;stroke-linejoin:miter;stroke-opacity:1"/>
<path class="bond-2 atom-1 atom-3" d="M 66.3,71.2 L 85.4,104.4" style="fill:none;fill-rule:evenodd;stroke:#000000;stroke-width:2.0px;stroke-linecap:butt;stroke-linejoin:miter;stroke-opacity:1"/>
<path class="bond-3 atom-3 atom-4" d="M 85.4,104.4 L 123.6,104.4" style="fill:none;fill-rule:evenodd;stroke:#000000;stroke-width:2.0px;stroke-linecap:butt;stroke-linejoin:miter;stroke-opacity:1"/>
<path class="bond-4 atom-4 atom-5" d="M 123.6,104.4 L 123.6,88.7" style="fill:none;fill-rule:evenodd;stroke:#000000;stroke-width:2.0px;stroke-linecap:butt;stroke-linejoin:miter;stroke-opacity:1"/>
<path class="bond-4 atom-4 atom-5" d="M 123.6,88.7 L 123.6,73.0" style="fill:none;fill-rule:evenodd;stroke:#FF0000;stroke-width:2.0px;stroke-linecap:butt;stroke-linejoin:miter;stroke-opacity:1"/>
<path class="bond-5 atom-4 atom-6" d="M 123.6,104.4 L 161.9,104.4" style="fill:none;fill-rule:evenodd;stroke:#000000;stroke-width:2.0px;stroke-linecap:butt;stroke-linejoin:miter;stroke-opacity:1"/>
<path class="bond-6 atom-6 atom-7" d="M 161.9,104.4 L 181.0,71.2" style="fill:none;fill-rule:evenodd;stroke:#000000;stroke-width:2.0px;stroke-linecap:butt;stroke-linejoin:miter;stroke-opacity:1"/>
<path class="bond-7 atom-7 atom-8" d="M 184.3,71.2 L 176.3,57.4" style="fill:none;fill-rule:evenodd;stroke:#000000;stroke-width:2.0px;stroke-linecap:butt;stroke-linejoin:miter;stroke-opacity:1"/>
<path class="bond-7 atom-7 atom-8" d="M 176.3,57.4 L 168.3,43.6" style="fill:none;fill-rule:evenodd;stroke:#FF0000;stroke-width:2.0px;stroke-linecap:butt;stroke-linejoin:miter;stroke-opacity:1"/>
<path class="bond-7 atom-7 atom-8" d="M 179.3,74.1 L 171.3,60.3" style="fill:none;fill-rule:evenodd;stroke:#000000;stroke-width:2.0px;stroke-linecap:butt;stroke-linejoin:miter;stroke-opacity:1"/>
<path class="bond-7 atom-7 atom-8" d="M 171.3,60.3 L 163.4,46.5" style="fill:none;fill-rule:evenodd;stroke:#FF0000;stroke-width:2.0px;stroke-linecap:butt;stroke-linejoin:miter;stroke-opacity:1"/>
<path class="bond-8 atom-7 atom-9" d="M 181.0,71.2 L 197.0,71.2" style="fill:none;fill-rule:evenodd;stroke:#000000;stroke-width:2.0px;stroke-linecap:butt;stroke-linejoin:miter;stroke-opacity:1"/>
<path class="bond-8 atom-7 atom-9" d="M 197.0,71.2 L 213.0,71.2" style="fill:none;fill-rule:evenodd;stroke:#FF0000;stroke-width:2.0px;stroke-linecap:butt;stroke-linejoin:miter;stroke-opacity:1"/>
<path class="bond-9 atom-4 atom-10" d="M 123.6,104.4 L 123.6,142.6" style="fill:none;fill-rule:evenodd;stroke:#000000;stroke-width:2.0px;stroke-linecap:butt;stroke-linejoin:miter;stroke-opacity:1"/>
<path class="bond-10 atom-10 atom-11" d="M 123.6,139.3 L 109.5,147.5" style="fill:none;fill-rule:evenodd;stroke:#000000;stroke-width:2.0px;stroke-linecap:butt;stroke-linejoin:miter;stroke-opacity:1"/>
<path class="bond-10 atom-10 atom-11" d="M 109.5,147.5 L 95.3,155.6" style="fill:none;fill-rule:evenodd;stroke:#FF0000;stroke-width:2.0px;stroke-linecap:butt;stroke-linejoin:miter;stroke-opacity:1"/>
<path class="bond-10 atom-10 atom-11" d="M 126.5,144.2 L 112.3,152.4" style="fill:none;fill-rule:evenodd;stroke:#000000;stroke-width:2.0px;stroke-linecap:butt;stroke-linejoin:miter;stroke-opacity:1"/>
<path class="bond-10 atom-10 atom-11" d="M 112.3,152.4 L 98.2,160.6" style="fill:none;fill-rule:evenodd;stroke:#FF0000;stroke-width:2.0px;stroke-linecap:butt;stroke-linejoin:miter;stroke-opacity:1"/>
<path class="bond-11 atom-10 atom-12" d="M 123.6,142.6 L 137.1,150.4" style="fill:none;fill-rule:evenodd;stroke:#000000;stroke-width:2.0px;stroke-linecap:butt;stroke-linejoin:miter;stroke-opacity:1"/>
<path class="bond-11 atom-10 atom-12" d="M 137.1,150.4 L 150.5,158.1" style="fill:none;fill-rule:evenodd;stroke:#FF0000;stroke-width:2.0px;stroke-linecap:butt;stroke-linejoin:miter;stroke-opacity:1"/>
<path d="M 65.5,71.2 L 66.3,71.2 L 67.2,72.9" style="fill:none;stroke:#000000;stroke-width:2.0px;stroke-linecap:butt;stroke-linejoin:miter;stroke-opacity:1;"/>
<path d="M 84.4,102.7 L 85.4,104.4 L 87.3,104.4" style="fill:none;stroke:#000000;stroke-width:2.0px;stroke-linecap:butt;stroke-linejoin:miter;stroke-opacity:1;"/>
<path d="M 159.9,104.4 L 161.9,104.4 L 162.8,102.7" style="fill:none;stroke:#000000;stroke-width:2.0px;stroke-linecap:butt;stroke-linejoin:miter;stroke-opacity:1;"/>
<path d="M 180.0,72.9 L 181.0,71.2 L 181.8,71.2" style="fill:none;stroke:#000000;stroke-width:2.0px;stroke-linecap:butt;stroke-linejoin:miter;stroke-opacity:1;"/>
<path d="M 123.6,140.7 L 123.6,142.6 L 124.3,143.0" style="fill:none;stroke:#000000;stroke-width:2.0px;stroke-linecap:butt;stroke-linejoin:miter;stroke-opacity:1;"/>
<path class="atom-0" d="M 80.4 38.1 Q 80.4 35.5, 81.7 34.1 Q 83.0 32.6, 85.4 32.6 Q 87.8 32.6, 89.1 34.1 Q 90.3 35.5, 90.3 38.1 Q 90.3 40.8, 89.0 42.3 Q 87.7 43.8, 85.4 43.8 Q 83.0 43.8, 81.7 42.3 Q 80.4 40.8, 80.4 38.1 M 85.4 42.5 Q 87.0 42.5, 87.9 41.4 Q 88.8 40.3, 88.8 38.1 Q 88.8 36.0, 87.9 35.0 Q 87.0 33.9, 85.4 33.9 Q 83.7 33.9, 82.8 34.9 Q 81.9 36.0, 81.9 38.1 Q 81.9 40.3, 82.8 41.4 Q 83.7 42.5, 85.4 42.5 " fill="#FF0000"/>
<path class="atom-2" d="M 12.4 65.9 L 13.8 65.9 L 13.8 70.5 L 19.4 70.5 L 19.4 65.9 L 20.8 65.9 L 20.8 76.7 L 19.4 76.7 L 19.4 71.7 L 13.8 71.7 L 13.8 76.7 L 12.4 76.7 L 12.4 65.9 " fill="#FF0000"/>
<path class="atom-2" d="M 23.0 71.3 Q 23.0 68.7, 24.3 67.2 Q 25.6 65.8, 28.0 65.8 Q 30.4 65.8, 31.7 67.2 Q 33.0 68.7, 33.0 71.3 Q 33.0 73.9, 31.7 75.4 Q 30.4 76.9, 28.0 76.9 Q 25.6 76.9, 24.3 75.4 Q 23.0 73.9, 23.0 71.3 M 28.0 75.7 Q 29.7 75.7, 30.6 74.6 Q 31.5 73.4, 31.5 71.3 Q 31.5 69.1, 30.6 68.1 Q 29.7 67.0, 28.0 67.0 Q 26.4 67.0, 25.5 68.1 Q 24.6 69.1, 24.6 71.3 Q 24.6 73.5, 25.5 74.6 Q 26.4 75.7, 28.0 75.7 " fill="#FF0000"/>
<path class="atom-5" d="M 118.6 66.1 Q 118.6 63.5, 119.9 62.1 Q 121.2 60.6, 123.6 60.6 Q 126.0 60.6, 127.3 62.1 Q 128.6 63.5, 128.6 66.1 Q 128.6 68.8, 127.3 70.3 Q 126.0 71.8, 123.6 71.8 Q 121.2 71.8, 119.9 70.3 Q 118.6 68.8, 118.6 66.1 M 123.6 70.5 Q 125.3 70.5, 126.2 69.4 Q 127.1 68.3, 127.1 66.1 Q 127.1 64.0, 126.2 62.9 Q 125.3 61.9, 123.6 61.9 Q 122.0 61.9, 121.1 62.9 Q 120.2 64.0, 120.2 66.1 Q 120.2 68.3, 121.1 69.4 Q 122.0 70.5, 123.6 70.5 " fill="#FF0000"/>
<path class="atom-5" d="M 130.3 60.8 L 131.7 60.8 L 131.7 65.4 L 137.3 65.4 L 137.3 60.8 L 138.7 60.8 L 138.7 71.6 L 137.3 71.6 L 137.3 66.6 L 131.7 66.6 L 131.7 71.6 L 130.3 71.6 L 130.3 60.8 " fill="#FF0000"/>
<path class="atom-8" d="M 156.9 38.1 Q 156.9 35.5, 158.2 34.1 Q 159.5 32.6, 161.9 32.6 Q 164.3 32.6, 165.5 34.1 Q 166.8 35.5, 166.8 38.1 Q 166.8 40.8, 165.5 42.3 Q 164.2 43.8, 161.9 43.8 Q 159.5 43.8, 158.2 42.3 Q 156.9 40.8, 156.9 38.1 M 161.9 42.5 Q 163.5 42.5, 164.4 41.4 Q 165.3 40.3, 165.3 38.1 Q 165.3 36.0, 164.4 35.0 Q 163.5 33.9, 161.9 33.9 Q 160.2 33.9, 159.3 34.9 Q 158.4 36.0, 158.4 38.1 Q 158.4 40.3, 159.3 41.4 Q 160.2 42.5, 161.9 42.5 " fill="#FF0000"/>
<path class="atom-9" d="M 214.2 71.3 Q 214.2 68.7, 215.5 67.2 Q 216.8 65.8, 219.2 65.8 Q 221.6 65.8, 222.9 67.2 Q 224.2 68.7, 224.2 71.3 Q 224.2 73.9, 222.9 75.4 Q 221.6 76.9, 219.2 76.9 Q 216.8 76.9, 215.5 75.4 Q 214.2 73.9, 214.2 71.3 M 219.2 75.7 Q 220.9 75.7, 221.8 74.6 Q 222.7 73.4, 222.7 71.3 Q 222.7 69.1, 221.8 68.1 Q 220.9 67.0, 219.2 67.0 Q 217.6 67.0, 216.7 68.1 Q 215.8 69.1, 215.8 71.3 Q 215.8 73.5, 216.7 74.6 Q 217.6 75.7, 219.2 75.7 " fill="#FF0000"/>
<path class="atom-9" d="M 225.9 65.9 L 227.3 65.9 L 227.3 70.5 L 232.9 70.5 L 232.9 65.9 L 234.3 65.9 L 234.3 76.7 L 232.9 76.7 L 232.9 71.7 L 227.3 71.7 L 227.3 76.7 L 225.9 76.7 L 225.9 65.9 " fill="#FF0000"/>
<path class="atom-11" d="M 85.5 161.7 Q 85.5 159.1, 86.8 157.7 Q 88.1 156.2, 90.5 156.2 Q 92.9 156.2, 94.2 157.7 Q 95.5 159.1, 95.5 161.7 Q 95.5 164.4, 94.2 165.9 Q 92.9 167.4, 90.5 167.4 Q 88.1 167.4, 86.8 165.9 Q 85.5 164.4, 85.5 161.7 M 90.5 166.1 Q 92.2 166.1, 93.0 165.0 Q 93.9 163.9, 93.9 161.7 Q 93.9 159.6, 93.0 158.5 Q 92.2 157.5, 90.5 157.5 Q 88.8 157.5, 87.9 158.5 Q 87.1 159.6, 87.1 161.7 Q 87.1 163.9, 87.9 165.0 Q 88.8 166.1, 90.5 166.1 " fill="#FF0000"/>
<path class="atom-12" d="M 151.8 161.7 Q 151.8 159.1, 153.0 157.7 Q 154.3 156.2, 156.7 156.2 Q 159.1 156.2, 160.4 157.7 Q 161.7 159.1, 161.7 161.7 Q 161.7 164.4, 160.4 165.9 Q 159.1 167.4, 156.7 167.4 Q 154.3 167.4, 153.0 165.9 Q 151.8 164.4, 151.8 161.7 M 156.7 166.1 Q 158.4 166.1, 159.3 165.0 Q 160.2 163.9, 160.2 161.7 Q 160.2 159.6, 159.3 158.5 Q 158.4 157.5, 156.7 157.5 Q 155.1 157.5, 154.2 158.5 Q 153.3 159.6, 153.3 161.7 Q 153.3 163.9, 154.2 165.0 Q 155.1 166.1, 156.7 166.1 " fill="#FF0000"/>
<path class="atom-12" d="M 163.4 156.4 L 164.9 156.4 L 164.9 161.0 L 170.4 161.0 L 170.4 156.4 L 171.9 156.4 L 171.9 167.2 L 170.4 167.2 L 170.4 162.2 L 164.9 162.2 L 164.9 167.2 L 163.4 167.2 L 163.4 156.4 " fill="#FF0000"/>
</g>
    <g transform="translate(247.0, 0) scale(1 1) "><line x1="5" y1="100" x2="35" y2="100" style="stroke:rgb(0,0,0);stroke-width:2"/>
  <line x1="34" y1="100" x2="29" y2="95" style="stroke:rgb(0,0,0);stroke-width:2"/>
  <line x1="34" y1="100" x2="29" y2="105" style="stroke:rgb(0,0,0);stroke-width:2"/>
</g>
    <g transform="translate(287.0, 0) scale(1 1) "><!-- END OF HEADER -->
<rect style="opacity:1.0;fill:#FFFFFF;stroke:none" width="247.0" height="200.0" x="0.0" y="0.0"> </rect>
<path class="bond-0 atom-0 atom-1" d="M 188.6,123.2 L 187.4,107.2" style="fill:none;fill-rule:evenodd;stroke:#FF0000;stroke-width:2.0px;stroke-linecap:butt;stroke-linejoin:miter;stroke-opacity:1"/>
<path class="bond-0 atom-0 atom-1" d="M 187.4,107.2 L 186.2,91.1" style="fill:none;fill-rule:evenodd;stroke:#000000;stroke-width:2.0px;stroke-linecap:butt;stroke-linejoin:miter;stroke-opacity:1"/>
<path class="bond-0 atom-0 atom-1" d="M 194.2,122.8 L 193.0,106.7" style="fill:none;fill-rule:evenodd;stroke:#FF0000;stroke-width:2.0px;stroke-linecap:butt;stroke-linejoin:miter;stroke-opacity:1"/>
<path class="bond-0 atom-0 atom-1" d="M 193.0,106.7 L 191.7,90.7" style="fill:none;fill-rule:evenodd;stroke:#000000;stroke-width:2.0px;stroke-linecap:butt;stroke-linejoin:miter;stroke-opacity:1"/>
<path class="bond-1 atom-1 atom-2" d="M 189.1,92.5 L 201.4,84.1" style="fill:none;fill-rule:evenodd;stroke:#000000;stroke-width:2.0px;stroke-linecap:butt;stroke-linejoin:miter;stroke-opacity:1"/>
<path class="bond-1 atom-1 atom-2" d="M 201.4,84.1 L 213.6,75.7" style="fill:none;fill-rule:evenodd;stroke:#FF0000;stroke-width:2.0px;stroke-linecap:butt;stroke-linejoin:miter;stroke-opacity:1"/>
<path class="bond-2 atom-1 atom-3" d="M 189.1,92.5 L 155.6,76.5" style="fill:none;fill-rule:evenodd;stroke:#000000;stroke-width:2.0px;stroke-linecap:butt;stroke-linejoin:miter;stroke-opacity:1"/>
<path class="bond-3 atom-3 atom-4" d="M 155.6,76.5 L 125.0,97.5" style="fill:none;fill-rule:evenodd;stroke:#000000;stroke-width:2.0px;stroke-linecap:butt;stroke-linejoin:miter;stroke-opacity:1"/>
<path class="bond-4 atom-4 atom-5" d="M 125.0,97.5 L 127.9,134.4" style="fill:none;fill-rule:evenodd;stroke:#000000;stroke-width:2.0px;stroke-linecap:butt;stroke-linejoin:miter;stroke-opacity:1"/>
<path class="bond-5 atom-5 atom-6" d="M 125.2,136.2 L 139.7,143.2" style="fill:none;fill-rule:evenodd;stroke:#000000;stroke-width:2.0px;stroke-linecap:butt;stroke-linejoin:miter;stroke-opacity:1"/>
<path class="bond-5 atom-5 atom-6" d="M 139.7,143.2 L 154.1,150.1" style="fill:none;fill-rule:evenodd;stroke:#FF0000;stroke-width:2.0px;stroke-linecap:butt;stroke-linejoin:miter;stroke-opacity:1"/>
<path class="bond-5 atom-5 atom-6" d="M 127.6,131.2 L 142.1,138.1" style="fill:none;fill-rule:evenodd;stroke:#000000;stroke-width:2.0px;stroke-linecap:butt;stroke-linejoin:miter;stroke-opacity:1"/>
<path class="bond-5 atom-5 atom-6" d="M 142.1,138.1 L 156.5,145.0" style="fill:none;fill-rule:evenodd;stroke:#FF0000;stroke-width:2.0px;stroke-linecap:butt;stroke-linejoin:miter;stroke-opacity:1"/>
<path class="bond-6 atom-5 atom-7" d="M 127.9,134.4 L 115.6,142.8" style="fill:none;fill-rule:evenodd;stroke:#000000;stroke-width:2.0px;stroke-linecap:butt;stroke-linejoin:miter;stroke-opacity:1"/>
<path class="bond-6 atom-5 atom-7" d="M 115.6,142.8 L 103.3,151.2" style="fill:none;fill-rule:evenodd;stroke:#FF0000;stroke-width:2.0px;stroke-linecap:butt;stroke-linejoin:miter;stroke-opacity:1"/>
<path class="bond-7 atom-4 atom-8" d="M 125.0,97.5 L 91.6,81.4" style="fill:none;fill-rule:evenodd;stroke:#000000;stroke-width:2.0px;stroke-linecap:butt;stroke-linejoin:miter;stroke-opacity:1"/>
<path class="bond-8 atom-8 atom-9" d="M 91.6,81.4 L 90.4,66.3" style="fill:none;fill-rule:evenodd;stroke:#000000;stroke-width:2.0px;stroke-linecap:butt;stroke-linejoin:miter;stroke-opacity:1"/>
<path class="bond-8 atom-8 atom-9" d="M 90.4,66.3 L 89.3,51.2" style="fill:none;fill-rule:evenodd;stroke:#FF0000;stroke-width:2.0px;stroke-linecap:butt;stroke-linejoin:miter;stroke-opacity:1"/>
<path class="bond-9 atom-8 atom-10" d="M 91.6,81.4 L 61.0,102.4" style="fill:none;fill-rule:evenodd;stroke:#000000;stroke-width:2.0px;stroke-linecap:butt;stroke-linejoin:miter;stroke-opacity:1"/>
<path class="bond-10 atom-10 atom-11" d="M 58.1,101.0 L 59.3,117.0" style="fill:none;fill-rule:evenodd;stroke:#000000;stroke-width:2.0px;stroke-linecap:butt;stroke-linejoin:miter;stroke-opacity:1"/>
<path class="bond-10 atom-10 atom-11" d="M 59.3,117.0 L 60.6,133.0" style="fill:none;fill-rule:evenodd;stroke:#FF0000;stroke-width:2.0px;stroke-linecap:butt;stroke-linejoin:miter;stroke-opacity:1"/>
<path class="bond-10 atom-10 atom-11" d="M 63.6,100.6 L 64.9,116.6" style="fill:none;fill-rule:evenodd;stroke:#000000;stroke-width:2.0px;stroke-linecap:butt;stroke-linejoin:miter;stroke-opacity:1"/>
<path class="bond-10 atom-10 atom-11" d="M 64.9,116.6 L 66.1,132.6" style="fill:none;fill-rule:evenodd;stroke:#FF0000;stroke-width:2.0px;stroke-linecap:butt;stroke-linejoin:miter;stroke-opacity:1"/>
<path class="bond-11 atom-10 atom-12" d="M 61.0,102.4 L 47.3,95.8" style="fill:none;fill-rule:evenodd;stroke:#000000;stroke-width:2.0px;stroke-linecap:butt;stroke-linejoin:miter;stroke-opacity:1"/>
<path class="bond-11 atom-10 atom-12" d="M 47.3,95.8 L 33.6,89.3" style="fill:none;fill-rule:evenodd;stroke:#FF0000;stroke-width:2.0px;stroke-linecap:butt;stroke-linejoin:miter;stroke-opacity:1"/>
<path d="M 189.7,92.1 L 189.1,92.5 L 187.4,91.7" style="fill:none;stroke:#000000;stroke-width:2.0px;stroke-linecap:butt;stroke-linejoin:miter;stroke-opacity:1;"/>
<path d="M 157.3,77.3 L 155.6,76.5 L 154.1,77.5" style="fill:none;stroke:#000000;stroke-width:2.0px;stroke-linecap:butt;stroke-linejoin:miter;stroke-opacity:1;"/>
<path d="M 127.7,132.6 L 127.9,134.4 L 127.3,134.8" style="fill:none;stroke:#000000;stroke-width:2.0px;stroke-linecap:butt;stroke-linejoin:miter;stroke-opacity:1;"/>
<path d="M 62.5,101.3 L 61.0,102.4 L 60.3,102.1" style="fill:none;stroke:#000000;stroke-width:2.0px;stroke-linecap:butt;stroke-linejoin:miter;stroke-opacity:1;"/>
<path class="atom-0" d="M 187.1 129.5 Q 187.1 127.0, 188.3 125.6 Q 189.6 124.2, 191.9 124.2 Q 194.3 124.2, 195.5 125.6 Q 196.7 127.0, 196.7 129.5 Q 196.7 132.1, 195.5 133.5 Q 194.2 135.0, 191.9 135.0 Q 189.6 135.0, 188.3 133.5 Q 187.1 132.1, 187.1 129.5 M 191.9 133.8 Q 193.5 133.8, 194.4 132.7 Q 195.3 131.6, 195.3 129.5 Q 195.3 127.5, 194.4 126.4 Q 193.5 125.4, 191.9 125.4 Q 190.3 125.4, 189.4 126.4 Q 188.6 127.5, 188.6 129.5 Q 188.6 131.6, 189.4 132.7 Q 190.3 133.8, 191.9 133.8 " fill="#FF0000"/>
<path class="atom-2" d="M 214.9 71.6 Q 214.9 69.1, 216.1 67.7 Q 217.3 66.3, 219.7 66.3 Q 222.0 66.3, 223.3 67.7 Q 224.5 69.1, 224.5 71.6 Q 224.5 74.1, 223.2 75.6 Q 222.0 77.0, 219.7 77.0 Q 217.4 77.0, 216.1 75.6 Q 214.9 74.2, 214.9 71.6 M 219.7 75.9 Q 221.3 75.9, 222.1 74.8 Q 223.0 73.7, 223.0 71.6 Q 223.0 69.5, 222.1 68.5 Q 221.3 67.4, 219.7 67.4 Q 218.1 67.4, 217.2 68.5 Q 216.3 69.5, 216.3 71.6 Q 216.3 73.7, 217.2 74.8 Q 218.1 75.9, 219.7 75.9 " fill="#FF0000"/>
<path class="atom-2" d="M 226.1 66.4 L 227.6 66.4 L 227.6 70.8 L 232.9 70.8 L 232.9 66.4 L 234.3 66.4 L 234.3 76.9 L 232.9 76.9 L 232.9 72.0 L 227.6 72.0 L 227.6 76.9 L 226.1 76.9 L 226.1 66.4 " fill="#FF0000"/>
<path class="atom-6" d="M 156.5 150.5 Q 156.5 148.0, 157.8 146.6 Q 159.0 145.1, 161.3 145.1 Q 163.7 145.1, 164.9 146.6 Q 166.1 148.0, 166.1 150.5 Q 166.1 153.0, 164.9 154.5 Q 163.6 155.9, 161.3 155.9 Q 159.0 155.9, 157.8 154.5 Q 156.5 153.0, 156.5 150.5 M 161.3 154.7 Q 162.9 154.7, 163.8 153.7 Q 164.7 152.6, 164.7 150.5 Q 164.7 148.4, 163.8 147.4 Q 162.9 146.3, 161.3 146.3 Q 159.7 146.3, 158.8 147.4 Q 158.0 148.4, 158.0 150.5 Q 158.0 152.6, 158.8 153.7 Q 159.7 154.7, 161.3 154.7 " fill="#FF0000"/>
<path class="atom-7" d="M 82.1 150.2 L 83.5 150.2 L 83.5 154.7 L 88.9 154.7 L 88.9 150.2 L 90.3 150.2 L 90.3 160.7 L 88.9 160.7 L 88.9 155.8 L 83.5 155.8 L 83.5 160.7 L 82.1 160.7 L 82.1 150.2 " fill="#FF0000"/>
<path class="atom-7" d="M 92.5 155.4 Q 92.5 152.9, 93.7 151.5 Q 95.0 150.1, 97.3 150.1 Q 99.6 150.1, 100.9 151.5 Q 102.1 152.9, 102.1 155.4 Q 102.1 158.0, 100.8 159.4 Q 99.6 160.9, 97.3 160.9 Q 95.0 160.9, 93.7 159.4 Q 92.5 158.0, 92.5 155.4 M 97.3 159.7 Q 98.9 159.7, 99.7 158.6 Q 100.6 157.5, 100.6 155.4 Q 100.6 153.4, 99.7 152.3 Q 98.9 151.3, 97.3 151.3 Q 95.7 151.3, 94.8 152.3 Q 93.9 153.3, 93.9 155.4 Q 93.9 157.5, 94.8 158.6 Q 95.7 159.7, 97.3 159.7 " fill="#FF0000"/>
<path class="atom-9" d="M 83.9 44.5 Q 83.9 42.0, 85.2 40.6 Q 86.4 39.1, 88.7 39.1 Q 91.1 39.1, 92.3 40.6 Q 93.6 42.0, 93.6 44.5 Q 93.6 47.0, 92.3 48.5 Q 91.0 49.9, 88.7 49.9 Q 86.4 49.9, 85.2 48.5 Q 83.9 47.1, 83.9 44.5 M 88.7 48.7 Q 90.3 48.7, 91.2 47.7 Q 92.1 46.6, 92.1 44.5 Q 92.1 42.4, 91.2 41.4 Q 90.3 40.3, 88.7 40.3 Q 87.1 40.3, 86.3 41.4 Q 85.4 42.4, 85.4 44.5 Q 85.4 46.6, 86.3 47.7 Q 87.1 48.7, 88.7 48.7 " fill="#FF0000"/>
<path class="atom-9" d="M 95.2 39.3 L 96.6 39.3 L 96.6 43.7 L 102.0 43.7 L 102.0 39.3 L 103.4 39.3 L 103.4 49.8 L 102.0 49.8 L 102.0 44.9 L 96.6 44.9 L 96.6 49.8 L 95.2 49.8 L 95.2 39.3 " fill="#FF0000"/>
<path class="atom-11" d="M 59.0 139.4 Q 59.0 136.9, 60.3 135.5 Q 61.5 134.0, 63.8 134.0 Q 66.2 134.0, 67.4 135.5 Q 68.7 136.9, 68.7 139.4 Q 68.7 141.9, 67.4 143.4 Q 66.1 144.8, 63.8 144.8 Q 61.5 144.8, 60.3 143.4 Q 59.0 142.0, 59.0 139.4 M 63.8 143.6 Q 65.4 143.6, 66.3 142.6 Q 67.2 141.5, 67.2 139.4 Q 67.2 137.3, 66.3 136.3 Q 65.4 135.2, 63.8 135.2 Q 62.2 135.2, 61.4 136.3 Q 60.5 137.3, 60.5 139.4 Q 60.5 141.5, 61.4 142.6 Q 62.2 143.6, 63.8 143.6 " fill="#FF0000"/>
<path class="atom-12" d="M 12.4 81.2 L 13.8 81.2 L 13.8 85.6 L 19.1 85.6 L 19.1 81.2 L 20.6 81.2 L 20.6 91.7 L 19.1 91.7 L 19.1 86.8 L 13.8 86.8 L 13.8 91.7 L 12.4 91.7 L 12.4 81.2 " fill="#FF0000"/>
<path class="atom-12" d="M 22.7 86.4 Q 22.7 83.9, 24.0 82.5 Q 25.2 81.1, 27.5 81.1 Q 29.9 81.1, 31.1 82.5 Q 32.4 83.9, 32.4 86.4 Q 32.4 88.9, 31.1 90.4 Q 29.8 91.8, 27.5 91.8 Q 25.2 91.8, 24.0 90.4 Q 22.7 89.0, 22.7 86.4 M 27.5 90.6 Q 29.1 90.6, 30.0 89.6 Q 30.9 88.5, 30.9 86.4 Q 30.9 84.3, 30.0 83.3 Q 29.1 82.2, 27.5 82.2 Q 25.9 82.2, 25.1 83.3 Q 24.2 84.3, 24.2 86.4 Q 24.2 88.5, 25.1 89.6 Q 25.9 90.6, 27.5 90.6 " fill="#FF0000"/>
</g>
  </g>
</svg>
