<?xml version='1.0' encoding='ASCII' standalone='yes'?>
<svg xmlns="http://www.w3.org/2000/svg" xmlns:xlink="http://www.w3.org/1999/xlink" version="1.1" width="687.0px" viewBox="0 0 687.0 200.0" height="200.0px">
  <g>
    <g transform="translate(0, 0) scale(1 1) "><!-- END OF HEADER -->
<rect style="opacity:1.0;fill:#FFFFFF;stroke:none" width="254.0" height="200.0" x="0.0" y="0.0"> </rect>
<path class="bond-0 atom-0 atom-1" d="M 187.0,65.7 L 166.7,99.9" style="fill:none;fill-rule:evenodd;stroke:#000000;stroke-width:2.0px;stroke-linecap:butt;stroke-linejoin:miter;stroke-opacity:1"/>
<path class="bond-1 atom-1 atom-2" d="M 166.7,99.9 L 146.4,134.1" style="fill:none;fill-rule:evenodd;stroke:#000000;stroke-width:2.0px;stroke-linecap:butt;stroke-linejoin:miter;stroke-opacity:1"/>
<path class="bond-2 atom-1 atom-3" d="M 166.7,99.9 L 200.9,120.2" style="fill:none;fill-rule:evenodd;stroke:#000000;stroke-width:2.0px;stroke-linecap:butt;stroke-linejoin:miter;stroke-opacity:1"/>
<path class="bond-3 atom-3 atom-4" d="M 200.8,123.6 L 215.7,115.3" style="fill:none;fill-rule:evenodd;stroke:#000000;stroke-width:2.0px;stroke-linecap:butt;stroke-linejoin:miter;stroke-opacity:1"/>
<path class="bond-3 atom-3 atom-4" d="M 215.7,115.3 L 230.5,107.0" style="fill:none;fill-rule:evenodd;stroke:#FF0000;stroke-width:2.0px;stroke-linecap:butt;stroke-linejoin:miter;stroke-opacity:1"/>
<path class="bond-3 atom-3 atom-4" d="M 197.9,118.4 L 212.8,110.1" style="fill:none;fill-rule:evenodd;stroke:#000000;stroke-width:2.0px;stroke-linecap:butt;stroke-linejoin:miter;stroke-opacity:1"/>
<path class="bond-3 atom-3 atom-4" d="M 212.8,110.1 L 227.6,101.8" style="fill:none;fill-rule:evenodd;stroke:#FF0000;stroke-width:2.0px;stroke-linecap:butt;stroke-linejoin:miter;stroke-opacity:1"/>
<path class="bond-4 atom-3 atom-5" d="M 200.9,120.2 L 200.7,136.6" style="fill:none;fill-rule:evenodd;stroke:#000000;stroke-width:2.0px;stroke-linecap:butt;stroke-linejoin:miter;stroke-opacity:1"/>
<path class="bond-4 atom-3 atom-5" d="M 200.7,136.6 L 200.5,152.9" style="fill:none;fill-rule:evenodd;stroke:#FF0000;stroke-width:2.0px;stroke-linecap:butt;stroke-linejoin:miter;stroke-opacity:1"/>
<path class="bond-5 atom-1 atom-6" d="M 166.7,99.9 L 132.5,79.6" style="fill:none;fill-rule:evenodd;stroke:#000000;stroke-width:2.0px;stroke-linecap:butt;stroke-linejoin:miter;stroke-opacity:1"/>
<path class="bond-6 atom-6 atom-7" d="M 132.5,79.6 L 132.7,63.3" style="fill:none;fill-rule:evenodd;stroke:#000000;stroke-width:2.0px;stroke-linecap:butt;stroke-linejoin:miter;stroke-opacity:1"/>
<path class="bond-6 atom-6 atom-7" d="M 132.7,63.3 L 132.9,47.1" style="fill:none;fill-rule:evenodd;stroke:#FF0000;stroke-width:2.0px;stroke-linecap:butt;stroke-linejoin:miter;stroke-opacity:1"/>
<path class="bond-7 atom-6 atom-8" d="M 132.5,79.6 L 97.8,99.1" style="fill:none;fill-rule:evenodd;stroke:#000000;stroke-width:2.0px;stroke-linecap:butt;stroke-linejoin:miter;stroke-opacity:1"/>
<path class="bond-8 atom-8 atom-9" d="M 97.8,99.1 L 63.6,78.8" style="fill:none;fill-rule:evenodd;stroke:#000000;stroke-width:2.0px;stroke-linecap:butt;stroke-linejoin:miter;stroke-opacity:1"/>
<path class="bond-9 atom-9 atom-10" d="M 63.6,78.8 L 49.6,86.7" style="fill:none;fill-rule:evenodd;stroke:#000000;stroke-width:2.0px;stroke-linecap:butt;stroke-linejoin:miter;stroke-opacity:1"/>
<path class="bond-9 atom-9 atom-10" d="M 49.6,86.7 L 35.5,94.6" style="fill:none;fill-rule:evenodd;stroke:#FF0000;stroke-width:2.0px;stroke-linecap:butt;stroke-linejoin:miter;stroke-opacity:1"/>
<path class="bond-10 atom-8 atom-11" d="M 97.8,99.1 L 97.4,138.8" style="fill:none;fill-rule:evenodd;stroke:#000000;stroke-width:2.0px;stroke-linecap:butt;stroke-linejoin:miter;stroke-opacity:1"/>
<path class="bond-11 atom-11 atom-12" d="M 94.4,140.5 L 109.0,149.2" style="fill:none;fill-rule:evenodd;stroke:#000000;stroke-width:2.0px;stroke-linecap:butt;stroke-linejoin:miter;stroke-opacity:1"/>
<path class="bond-11 atom-11 atom-12" d="M 109.0,149.2 L 123.6,157.9" style="fill:none;fill-rule:evenodd;stroke:#FF0000;stroke-width:2.0px;stroke-linecap:butt;stroke-linejoin:miter;stroke-opacity:1"/>
<path class="bond-11 atom-11 atom-12" d="M 97.4,135.4 L 112.0,144.1" style="fill:none;fill-rule:evenodd;stroke:#000000;stroke-width:2.0px;stroke-linecap:butt;stroke-linejoin:miter;stroke-opacity:1"/>
<path class="bond-11 atom-11 atom-12" d="M 112.0,144.1 L 126.6,152.7" style="fill:none;fill-rule:evenodd;stroke:#FF0000;stroke-width:2.0px;stroke-linecap:butt;stroke-linejoin:miter;stroke-opacity:1"/>
<path class="bond-12 atom-11 atom-13" d="M 97.4,138.8 L 83.3,146.8" style="fill:none;fill-rule:evenodd;stroke:#000000;stroke-width:2.0px;stroke-linecap:butt;stroke-linejoin:miter;stroke-opacity:1"/>
<path class="bond-12 atom-11 atom-13" d="M 83.3,146.8 L 69.2,154.7" style="fill:none;fill-rule:evenodd;stroke:#FF0000;stroke-width:2.0px;stroke-linecap:butt;stroke-linejoin:miter;stroke-opacity:1"/>
<path d="M 199.2,119.2 L 200.9,120.2 L 200.9,121.0" style="fill:none;stroke:#000000;stroke-width:2.0px;stroke-linecap:butt;stroke-linejoin:miter;stroke-opacity:1;"/>
<path d="M 65.4,79.8 L 63.6,78.8 L 62.9,79.2" style="fill:none;stroke:#000000;stroke-width:2.0px;stroke-linecap:butt;stroke-linejoin:miter;stroke-opacity:1;"/>
<path d="M 97.4,136.9 L 97.4,138.8 L 96.7,139.2" style="fill:none;stroke:#000000;stroke-width:2.0px;stroke-linecap:butt;stroke-linejoin:miter;stroke-opacity:1;"/>
<path class="atom-4" d="M 230.4 100.8 Q 230.4 98.1, 231.7 96.5 Q 233.0 95.0, 235.5 95.0 Q 238.0 95.0, 239.4 96.5 Q 240.7 98.1, 240.7 100.8 Q 240.7 103.5, 239.3 105.1 Q 238.0 106.6, 235.5 106.6 Q 233.1 106.6, 231.7 105.1 Q 230.4 103.5, 230.4 100.8 M 235.5 105.3 Q 237.2 105.3, 238.2 104.2 Q 239.1 103.0, 239.1 100.8 Q 239.1 98.5, 238.2 97.4 Q 237.2 96.3, 235.5 96.3 Q 233.8 96.3, 232.9 97.4 Q 232.0 98.5, 232.0 100.8 Q 232.0 103.0, 232.9 104.2 Q 233.8 105.3, 235.5 105.3 " fill="#FF0000"/>
<path class="atom-5" d="M 195.2 160.0 Q 195.2 157.3, 196.6 155.8 Q 197.9 154.3, 200.4 154.3 Q 202.9 154.3, 204.2 155.8 Q 205.6 157.3, 205.6 160.0 Q 205.6 162.7, 204.2 164.3 Q 202.9 165.8, 200.4 165.8 Q 197.9 165.8, 196.6 164.3 Q 195.2 162.7, 195.2 160.0 M 200.4 164.5 Q 202.1 164.5, 203.0 163.4 Q 204.0 162.2, 204.0 160.0 Q 204.0 157.8, 203.0 156.7 Q 202.1 155.5, 200.4 155.5 Q 198.7 155.5, 197.7 156.6 Q 196.8 157.7, 196.8 160.0 Q 196.8 162.2, 197.7 163.4 Q 198.7 164.5, 200.4 164.5 " fill="#FF0000"/>
<path class="atom-5" d="M 207.3 154.4 L 208.8 154.4 L 208.8 159.2 L 214.6 159.2 L 214.6 154.4 L 216.1 154.4 L 216.1 165.6 L 214.6 165.6 L 214.6 160.4 L 208.8 160.4 L 208.8 165.6 L 207.3 165.6 L 207.3 154.4 " fill="#FF0000"/>
<path class="atom-7" d="M 127.8 39.9 Q 127.8 37.2, 129.1 35.7 Q 130.5 34.2, 133.0 34.2 Q 135.5 34.2, 136.8 35.7 Q 138.1 37.2, 138.1 39.9 Q 138.1 42.6, 136.8 44.2 Q 135.4 45.7, 133.0 45.7 Q 130.5 45.7, 129.1 44.2 Q 127.8 42.7, 127.8 39.9 M 133.0 44.5 Q 134.7 44.5, 135.6 43.3 Q 136.5 42.2, 136.5 39.9 Q 136.5 37.7, 135.6 36.6 Q 134.7 35.5, 133.0 35.5 Q 131.2 35.5, 130.3 36.6 Q 129.4 37.7, 129.4 39.9 Q 129.4 42.2, 130.3 43.3 Q 131.2 44.5, 133.0 44.5 " fill="#FF0000"/>
<path class="atom-7" d="M 139.9 34.3 L 141.4 34.3 L 141.4 39.1 L 147.2 39.1 L 147.2 34.3 L 148.7 34.3 L 148.7 45.6 L 147.2 45.6 L 147.2 40.4 L 141.4 40.4 L 141.4 45.6 L 139.9 45.6 L 139.9 34.3 " fill="#FF0000"/>
<path class="atom-10" d="M 12.7 92.7 L 14.2 92.7 L 14.2 97.5 L 20.0 97.5 L 20.0 92.7 L 21.5 92.7 L 21.5 104.0 L 20.0 104.0 L 20.0 98.8 L 14.2 98.8 L 14.2 104.0 L 12.7 104.0 L 12.7 92.7 " fill="#FF0000"/>
<path class="atom-10" d="M 23.8 98.3 Q 23.8 95.6, 25.2 94.1 Q 26.5 92.6, 29.0 92.6 Q 31.5 92.6, 32.8 94.1 Q 34.2 95.6, 34.2 98.3 Q 34.2 101.1, 32.8 102.6 Q 31.5 104.2, 29.0 104.2 Q 26.5 104.2, 25.2 102.6 Q 23.8 101.1, 23.8 98.3 M 29.0 102.9 Q 30.7 102.9, 31.6 101.7 Q 32.6 100.6, 32.6 98.3 Q 32.6 96.1, 31.6 95.0 Q 30.7 93.9, 29.0 93.9 Q 27.3 93.9, 26.3 95.0 Q 25.4 96.1, 25.4 98.3 Q 25.4 100.6, 26.3 101.7 Q 27.3 102.9, 29.0 102.9 " fill="#FF0000"/>
<path class="atom-12" d="M 126.4 159.2 Q 126.4 156.5, 127.7 154.9 Q 129.1 153.4, 131.6 153.4 Q 134.1 153.4, 135.4 154.9 Q 136.7 156.5, 136.7 159.2 Q 136.7 161.9, 135.4 163.5 Q 134.0 165.0, 131.6 165.0 Q 129.1 165.0, 127.7 163.5 Q 126.4 161.9, 126.4 159.2 M 131.6 163.7 Q 133.3 163.7, 134.2 162.6 Q 135.1 161.4, 135.1 159.2 Q 135.1 157.0, 134.2 155.8 Q 133.3 154.7, 131.6 154.7 Q 129.8 154.7, 128.9 155.8 Q 128.0 156.9, 128.0 159.2 Q 128.0 161.4, 128.9 162.6 Q 129.8 163.7, 131.6 163.7 " fill="#FF0000"/>
<path class="atom-13" d="M 46.4 152.8 L 47.9 152.8 L 47.9 157.5 L 53.7 157.5 L 53.7 152.8 L 55.2 152.8 L 55.2 164.0 L 53.7 164.0 L 53.7 158.8 L 47.9 158.8 L 47.9 164.0 L 46.4 164.0 L 46.4 152.8 " fill="#FF0000"/>
<path class="atom-13" d="M 57.5 158.3 Q 57.5 155.6, 58.9 154.1 Q 60.2 152.6, 62.7 152.6 Q 65.2 152.6, 66.5 154.1 Q 67.9 155.6, 67.9 158.3 Q 67.9 161.1, 66.5 162.6 Q 65.2 164.2, 62.7 164.2 Q 60.2 164.2, 58.9 162.6 Q 57.5 161.1, 57.5 158.3 M 62.7 162.9 Q 64.4 162.9, 65.3 161.8 Q 66.3 160.6, 66.3 158.3 Q 66.3 156.1, 65.3 155.0 Q 64.4 153.9, 62.7 153.9 Q 61.0 153.9, 60.1 155.0 Q 59.1 156.1, 59.1 158.3 Q 59.1 160.6, 60.1 161.8 Q 61.0 162.9, 62.7 162.9 " fill="#FF0000"/>
</g>
    <g transform="translate(254.00000000000003, 0) scale(1 1) "><line x1="5" y1="100" x2="35" y2="100" style="stroke:rgb(0,0,0);stroke-width:2"/>
  <line x1="34" y1="100" x2="29" y2="95" style="stroke:rgb(0,0,0);stroke-width:2"/>
  <line x1="34" y1="100" x2="29" y2="105" style="stroke:rgb(0,0,0);stroke-width:2"/>
</g>
    <g transform="translate(294.0, 0) scale(1 1) "><!-- END OF HEADER -->
<rect style="opacity:1.0;fill:#FFFFFF;stroke:none" width="233.0" height="200.0" x="0.0" y="0.0"> </rect>
<path class="bond-0 atom-0 atom-1" d="M 165.0,64.9 L 152.8,99.9" style="fill:none;fill-rule:evenodd;stroke:#000000;stroke-width:2.0px;stroke-linecap:butt;stroke-linejoin:miter;stroke-opacity:1"/>
<path class="bond-1 atom-1 atom-2" d="M 152.8,99.9 L 140.7,134.9" style="fill:none;fill-rule:evenodd;stroke:#000000;stroke-width:2.0px;stroke-linecap:butt;stroke-linejoin:miter;stroke-opacity:1"/>
<path class="bond-2 atom-1 atom-3" d="M 152.8,99.9 L 187.8,112.1" style="fill:none;fill-rule:evenodd;stroke:#000000;stroke-width:2.0px;stroke-linecap:butt;stroke-linejoin:miter;stroke-opacity:1"/>
<path class="bond-3 atom-3 atom-4" d="M 188.4,115.2 L 200.0,105.2" style="fill:none;fill-rule:evenodd;stroke:#000000;stroke-width:2.0px;stroke-linecap:butt;stroke-linejoin:miter;stroke-opacity:1"/>
<path class="bond-3 atom-3 atom-4" d="M 200.0,105.2 L 211.6,95.2" style="fill:none;fill-rule:evenodd;stroke:#FF0000;stroke-width:2.0px;stroke-linecap:butt;stroke-linejoin:miter;stroke-opacity:1"/>
<path class="bond-3 atom-3 atom-4" d="M 184.8,111.0 L 196.4,101.0" style="fill:none;fill-rule:evenodd;stroke:#000000;stroke-width:2.0px;stroke-linecap:butt;stroke-linejoin:miter;stroke-opacity:1"/>
<path class="bond-3 atom-3 atom-4" d="M 196.4,101.0 L 208.0,91.0" style="fill:none;fill-rule:evenodd;stroke:#FF0000;stroke-width:2.0px;stroke-linecap:butt;stroke-linejoin:miter;stroke-opacity:1"/>
<path class="bond-4 atom-3 atom-5" d="M 187.8,112.1 L 190.7,127.0" style="fill:none;fill-rule:evenodd;stroke:#000000;stroke-width:2.0px;stroke-linecap:butt;stroke-linejoin:miter;stroke-opacity:1"/>
<path class="bond-4 atom-3 atom-5" d="M 190.7,127.0 L 193.5,141.9" style="fill:none;fill-rule:evenodd;stroke:#FF0000;stroke-width:2.0px;stroke-linecap:butt;stroke-linejoin:miter;stroke-opacity:1"/>
<path class="bond-5 atom-1 atom-6" d="M 152.8,99.9 L 117.8,87.8" style="fill:none;fill-rule:evenodd;stroke:#000000;stroke-width:2.0px;stroke-linecap:butt;stroke-linejoin:miter;stroke-opacity:1"/>
<path class="bond-6 atom-6 atom-7" d="M 117.8,87.8 L 115.0,72.9" style="fill:none;fill-rule:evenodd;stroke:#000000;stroke-width:2.0px;stroke-linecap:butt;stroke-linejoin:miter;stroke-opacity:1"/>
<path class="bond-6 atom-6 atom-7" d="M 115.0,72.9 L 112.1,58.1" style="fill:none;fill-rule:evenodd;stroke:#FF0000;stroke-width:2.0px;stroke-linecap:butt;stroke-linejoin:miter;stroke-opacity:1"/>
<path class="bond-7 atom-6 atom-8" d="M 117.8,87.8 L 89.8,112.0" style="fill:none;fill-rule:evenodd;stroke:#000000;stroke-width:2.0px;stroke-linecap:butt;stroke-linejoin:miter;stroke-opacity:1"/>
<path class="bond-8 atom-8 atom-9" d="M 89.8,112.0 L 54.8,99.9" style="fill:none;fill-rule:evenodd;stroke:#000000;stroke-width:2.0px;stroke-linecap:butt;stroke-linejoin:miter;stroke-opacity:1"/>
<path class="bond-9 atom-9 atom-10" d="M 54.8,99.9 L 43.8,109.4" style="fill:none;fill-rule:evenodd;stroke:#000000;stroke-width:2.0px;stroke-linecap:butt;stroke-linejoin:miter;stroke-opacity:1"/>
<path class="bond-9 atom-9 atom-10" d="M 43.8,109.4 L 32.9,118.9" style="fill:none;fill-rule:evenodd;stroke:#FF0000;stroke-width:2.0px;stroke-linecap:butt;stroke-linejoin:miter;stroke-opacity:1"/>
<path d="M 186.1,111.5 L 187.8,112.1 L 188.0,112.8" style="fill:none;stroke:#000000;stroke-width:2.0px;stroke-linecap:butt;stroke-linejoin:miter;stroke-opacity:1;"/>
<path d="M 91.2,110.8 L 89.8,112.0 L 88.1,111.4" style="fill:none;stroke:#000000;stroke-width:2.0px;stroke-linecap:butt;stroke-linejoin:miter;stroke-opacity:1;"/>
<path d="M 56.6,100.5 L 54.8,99.9 L 54.3,100.3" style="fill:none;stroke:#000000;stroke-width:2.0px;stroke-linecap:butt;stroke-linejoin:miter;stroke-opacity:1;"/>
<path class="atom-4" d="M 211.0 87.9 Q 211.0 85.3, 212.3 83.9 Q 213.5 82.5, 215.8 82.5 Q 218.2 82.5, 219.4 83.9 Q 220.7 85.3, 220.7 87.9 Q 220.7 90.4, 219.4 91.9 Q 218.1 93.3, 215.8 93.3 Q 213.5 93.3, 212.3 91.9 Q 211.0 90.4, 211.0 87.9 M 215.8 92.1 Q 217.4 92.1, 218.3 91.0 Q 219.2 90.0, 219.2 87.9 Q 219.2 85.8, 218.3 84.8 Q 217.4 83.7, 215.8 83.7 Q 214.2 83.7, 213.4 84.7 Q 212.5 85.8, 212.5 87.9 Q 212.5 90.0, 213.4 91.0 Q 214.2 92.1, 215.8 92.1 " fill="#FF0000"/>
<path class="atom-5" d="M 190.0 148.5 Q 190.0 145.9, 191.2 144.5 Q 192.5 143.1, 194.8 143.1 Q 197.1 143.1, 198.4 144.5 Q 199.6 145.9, 199.6 148.5 Q 199.6 151.0, 198.4 152.5 Q 197.1 153.9, 194.8 153.9 Q 192.5 153.9, 191.2 152.5 Q 190.0 151.0, 190.0 148.5 M 194.8 152.7 Q 196.4 152.7, 197.3 151.7 Q 198.1 150.6, 198.1 148.5 Q 198.1 146.4, 197.3 145.4 Q 196.4 144.3, 194.8 144.3 Q 193.2 144.3, 192.3 145.4 Q 191.5 146.4, 191.5 148.5 Q 191.5 150.6, 192.3 151.7 Q 193.2 152.7, 194.8 152.7 " fill="#FF0000"/>
<path class="atom-5" d="M 201.2 143.3 L 202.7 143.3 L 202.7 147.7 L 208.0 147.7 L 208.0 143.3 L 209.5 143.3 L 209.5 153.7 L 208.0 153.7 L 208.0 148.9 L 202.7 148.9 L 202.7 153.7 L 201.2 153.7 L 201.2 143.3 " fill="#FF0000"/>
<path class="atom-7" d="M 106.0 51.4 Q 106.0 48.9, 107.3 47.5 Q 108.5 46.1, 110.9 46.1 Q 113.2 46.1, 114.4 47.5 Q 115.7 48.9, 115.7 51.4 Q 115.7 54.0, 114.4 55.4 Q 113.2 56.9, 110.9 56.9 Q 108.6 56.9, 107.3 55.4 Q 106.0 54.0, 106.0 51.4 M 110.9 55.7 Q 112.5 55.7, 113.3 54.6 Q 114.2 53.5, 114.2 51.4 Q 114.2 49.4, 113.3 48.3 Q 112.5 47.3, 110.9 47.3 Q 109.3 47.3, 108.4 48.3 Q 107.5 49.4, 107.5 51.4 Q 107.5 53.5, 108.4 54.6 Q 109.3 55.7, 110.9 55.7 " fill="#FF0000"/>
<path class="atom-7" d="M 117.3 46.2 L 118.7 46.2 L 118.7 50.7 L 124.1 50.7 L 124.1 46.2 L 125.5 46.2 L 125.5 56.7 L 124.1 56.7 L 124.1 51.9 L 118.7 51.9 L 118.7 56.7 L 117.3 56.7 L 117.3 46.2 " fill="#FF0000"/>
<path class="atom-10" d="M 11.6 118.9 L 13.1 118.9 L 13.1 123.4 L 18.4 123.4 L 18.4 118.9 L 19.9 118.9 L 19.9 129.4 L 18.4 129.4 L 18.4 124.6 L 13.1 124.6 L 13.1 129.4 L 11.6 129.4 L 11.6 118.9 " fill="#FF0000"/>
<path class="atom-10" d="M 22.0 124.1 Q 22.0 121.6, 23.3 120.2 Q 24.5 118.8, 26.8 118.8 Q 29.1 118.8, 30.4 120.2 Q 31.6 121.6, 31.6 124.1 Q 31.6 126.7, 30.4 128.1 Q 29.1 129.6, 26.8 129.6 Q 24.5 129.6, 23.3 128.1 Q 22.0 126.7, 22.0 124.1 M 26.8 128.4 Q 28.4 128.4, 29.3 127.3 Q 30.2 126.2, 30.2 124.1 Q 30.2 122.1, 29.3 121.0 Q 28.4 120.0, 26.8 120.0 Q 25.2 120.0, 24.3 121.0 Q 23.5 122.0, 23.5 124.1 Q 23.5 126.2, 24.3 127.3 Q 25.2 128.4, 26.8 128.4 " fill="#FF0000"/>
</g>
    <g transform="translate(527.0, 0) scale(1 1) "><line x1="15" y1="100" x2="25" y2="100" style="stroke:rgb(0,0,0);stroke-width:2"/>
  <line x1="20" y1="95" x2="20" y2="105" style="stroke:rgb(0,0,0);stroke-width:2"/>
</g>
    <g transform="translate(567.0, 0) scale(1 1) "><!-- END OF HEADER -->
<rect style="opacity:1.0;fill:#FFFFFF;stroke:none" width="120.0" height="200.0" x="0.0" y="0.0"> </rect>
<path class="bond-0 atom-0 atom-1" d="M 100.0,103.5 L 83.4,103.5" style="fill:none;fill-rule:evenodd;stroke:#FF0000;stroke-width:2.0px;stroke-linecap:butt;stroke-linejoin:miter;stroke-opacity:1"/>
<path class="bond-0 atom-0 atom-1" d="M 83.4,103.5 L 66.8,103.5" style="fill:none;fill-rule:evenodd;stroke:#000000;stroke-width:2.0px;stroke-linecap:butt;stroke-linejoin:miter;stroke-opacity:1"/>
<path class="bond-0 atom-0 atom-1" d="M 100.0,96.3 L 83.4,96.3" style="fill:none;fill-rule:evenodd;stroke:#FF0000;stroke-width:2.0px;stroke-linecap:butt;stroke-linejoin:miter;stroke-opacity:1"/>
<path class="bond-0 atom-0 atom-1" d="M 83.4,96.3 L 66.8,96.3" style="fill:none;fill-rule:evenodd;stroke:#000000;stroke-width:2.0px;stroke-linecap:butt;stroke-linejoin:miter;stroke-opacity:1"/>
<path class="bond-1 atom-1 atom-2" d="M 53.2,103.5 L 36.6,103.5" style="fill:none;fill-rule:evenodd;stroke:#000000;stroke-width:2.0px;stroke-linecap:butt;stroke-linejoin:miter;stroke-opacity:1"/>
<path class="bond-1 atom-1 atom-2" d="M 36.6,103.5 L 20.0,103.5" style="fill:none;fill-rule:evenodd;stroke:#FF0000;stroke-width:2.0px;stroke-linecap:butt;stroke-linejoin:miter;stroke-opacity:1"/>
<path class="bond-1 atom-1 atom-2" d="M 53.2,96.3 L 36.6,96.3" style="fill:none;fill-rule:evenodd;stroke:#000000;stroke-width:2.0px;stroke-linecap:butt;stroke-linejoin:miter;stroke-opacity:1"/>
<path class="bond-1 atom-1 atom-2" d="M 36.6,96.3 L 20.0,96.3" style="fill:none;fill-rule:evenodd;stroke:#FF0000;stroke-width:2.0px;stroke-linecap:butt;stroke-linejoin:miter;stroke-opacity:1"/>
<path class="atom-0" d="M 101.6 99.9 Q 101.6 96.7, 103.2 94.9 Q 104.8 93.1, 107.8 93.1 Q 110.8 93.1, 112.4 94.9 Q 114.0 96.7, 114.0 99.9 Q 114.0 103.2, 112.4 105.1 Q 110.8 106.9, 107.8 106.9 Q 104.8 106.9, 103.2 105.1 Q 101.6 103.2, 101.6 99.9 M 107.8 105.4 Q 109.9 105.4, 111.0 104.0 Q 112.1 102.6, 112.1 99.9 Q 112.1 97.3, 111.0 95.9 Q 109.9 94.6, 107.8 94.6 Q 105.7 94.6, 104.6 95.9 Q 103.5 97.3, 103.5 99.9 Q 103.5 102.7, 104.6 104.0 Q 105.7 105.4, 107.8 105.4 " fill="#FF0000"/>
<path class="atom-1" d="M 54.8 100.0 Q 54.8 96.6, 56.3 94.8 Q 57.9 93.1, 60.9 93.1 Q 63.7 93.1, 65.2 95.0 L 64.0 96.1 Q 62.9 94.6, 60.9 94.6 Q 58.9 94.6, 57.8 96.0 Q 56.7 97.4, 56.7 100.0 Q 56.7 102.6, 57.8 104.0 Q 59.0 105.4, 61.1 105.4 Q 62.6 105.4, 64.4 104.5 L 64.9 105.9 Q 64.2 106.4, 63.1 106.6 Q 62.1 106.9, 60.9 106.9 Q 57.9 106.9, 56.3 105.1 Q 54.8 103.3, 54.8 100.0 " fill="#000000"/>
<path class="atom-2" d="M 6.0 99.9 Q 6.0 96.7, 7.6 94.9 Q 9.2 93.1, 12.2 93.1 Q 15.2 93.1, 16.8 94.9 Q 18.4 96.7, 18.4 99.9 Q 18.4 103.2, 16.8 105.1 Q 15.2 106.9, 12.2 106.9 Q 9.2 106.9, 7.6 105.1 Q 6.0 103.2, 6.0 99.9 M 12.2 105.4 Q 14.3 105.4, 15.4 104.0 Q 16.5 102.6, 16.5 99.9 Q 16.5 97.3, 15.4 95.9 Q 14.3 94.6, 12.2 94.6 Q 10.1 94.6, 9.0 95.9 Q 7.9 97.3, 7.9 99.9 Q 7.9 102.7, 9.0 104.0 Q 10.1 105.4, 12.2 105.4 " fill="#FF0000"/>
</g>
  </g>
</svg>
