<?xml version='1.0' encoding='ASCII' standalone='yes'?>
<svg xmlns="http://www.w3.org/2000/svg" xmlns:xlink="http://www.w3.org/1999/xlink" version="1.1" width="863.0px" viewBox="0 0 863.0 200.0" height="200.0px">
  <g>
    <g transform="translate(0, 0) scale(1 1) "><!-- END OF HEADER -->
<rect style="opacity:1.0;fill:#FFFFFF;stroke:none" width="271.0" height="200.0" x="0.0" y="0.0"> </rect>
<path class="bond-0 atom-0 atom-1" d="M 175.5,29.4 L 199.4,59.9" style="fill:none;fill-rule:evenodd;stroke:#000000;stroke-width:2.0px;stroke-linecap:butt;stroke-linejoin:miter;stroke-opacity:1"/>
<path class="bond-1 atom-1 atom-2" d="M 199.4,59.9 L 184.9,95.9" style="fill:none;fill-rule:evenodd;stroke:#000000;stroke-width:2.0px;stroke-linecap:butt;stroke-linejoin:miter;stroke-opacity:1"/>
<path class="bond-2 atom-2 atom-3" d="M 184.9,95.9 L 170.5,132.0" style="fill:none;fill-rule:evenodd;stroke:#000000;stroke-width:2.0px;stroke-linecap:butt;stroke-linejoin:miter;stroke-opacity:1"/>
<path class="bond-3 atom-2 atom-4" d="M 184.9,95.9 L 221.0,110.4" style="fill:none;fill-rule:evenodd;stroke:#000000;stroke-width:2.0px;stroke-linecap:butt;stroke-linejoin:miter;stroke-opacity:1"/>
<path class="bond-4 atom-4 atom-5" d="M 221.4,113.8 L 234.2,103.7" style="fill:none;fill-rule:evenodd;stroke:#000000;stroke-width:2.0px;stroke-linecap:butt;stroke-linejoin:miter;stroke-opacity:1"/>
<path class="bond-4 atom-4 atom-5" d="M 234.2,103.7 L 247.0,93.7" style="fill:none;fill-rule:evenodd;stroke:#FF0000;stroke-width:2.0px;stroke-linecap:butt;stroke-linejoin:miter;stroke-opacity:1"/>
<path class="bond-4 atom-4 atom-5" d="M 217.8,109.2 L 230.6,99.2" style="fill:none;fill-rule:evenodd;stroke:#000000;stroke-width:2.0px;stroke-linecap:butt;stroke-linejoin:miter;stroke-opacity:1"/>
<path class="bond-4 atom-4 atom-5" d="M 230.6,99.2 L 243.4,89.1" style="fill:none;fill-rule:evenodd;stroke:#FF0000;stroke-width:2.0px;stroke-linecap:butt;stroke-linejoin:miter;stroke-opacity:1"/>
<path class="bond-5 atom-4 atom-6" d="M 221.0,110.4 L 223.2,126.2" style="fill:none;fill-rule:evenodd;stroke:#000000;stroke-width:2.0px;stroke-linecap:butt;stroke-linejoin:miter;stroke-opacity:1"/>
<path class="bond-5 atom-4 atom-6" d="M 223.2,126.2 L 225.4,142.0" style="fill:none;fill-rule:evenodd;stroke:#FF0000;stroke-width:2.0px;stroke-linecap:butt;stroke-linejoin:miter;stroke-opacity:1"/>
<path class="bond-6 atom-2 atom-7" d="M 184.9,95.9 L 148.9,81.5" style="fill:none;fill-rule:evenodd;stroke:#000000;stroke-width:2.0px;stroke-linecap:butt;stroke-linejoin:miter;stroke-opacity:1"/>
<path class="bond-7 atom-7 atom-8" d="M 148.9,81.5 L 146.7,65.7" style="fill:none;fill-rule:evenodd;stroke:#000000;stroke-width:2.0px;stroke-linecap:butt;stroke-linejoin:miter;stroke-opacity:1"/>
<path class="bond-7 atom-7 atom-8" d="M 146.7,65.7 L 144.5,50.0" style="fill:none;fill-rule:evenodd;stroke:#FF0000;stroke-width:2.0px;stroke-linecap:butt;stroke-linejoin:miter;stroke-opacity:1"/>
<path class="bond-8 atom-7 atom-9" d="M 148.9,81.5 L 118.4,105.4" style="fill:none;fill-rule:evenodd;stroke:#000000;stroke-width:2.0px;stroke-linecap:butt;stroke-linejoin:miter;stroke-opacity:1"/>
<path class="bond-9 atom-9 atom-10" d="M 118.4,105.4 L 82.4,90.9" style="fill:none;fill-rule:evenodd;stroke:#000000;stroke-width:2.0px;stroke-linecap:butt;stroke-linejoin:miter;stroke-opacity:1"/>
<path class="bond-10 atom-10 atom-11" d="M 82.4,90.9 L 46.4,76.4" style="fill:none;fill-rule:evenodd;stroke:#000000;stroke-width:2.0px;stroke-linecap:butt;stroke-linejoin:miter;stroke-opacity:1"/>
<path class="bond-11 atom-10 atom-12" d="M 82.4,90.9 L 96.9,54.9" style="fill:none;fill-rule:evenodd;stroke:#000000;stroke-width:2.0px;stroke-linecap:butt;stroke-linejoin:miter;stroke-opacity:1"/>
<path class="bond-12 atom-12 atom-13" d="M 96.9,54.9 L 87.6,43.1" style="fill:none;fill-rule:evenodd;stroke:#000000;stroke-width:2.0px;stroke-linecap:butt;stroke-linejoin:miter;stroke-opacity:1"/>
<path class="bond-12 atom-12 atom-13" d="M 87.6,43.1 L 78.4,31.4" style="fill:none;fill-rule:evenodd;stroke:#FF0000;stroke-width:2.0px;stroke-linecap:butt;stroke-linejoin:miter;stroke-opacity:1"/>
<path class="bond-13 atom-10 atom-14" d="M 82.4,90.9 L 67.9,126.9" style="fill:none;fill-rule:evenodd;stroke:#000000;stroke-width:2.0px;stroke-linecap:butt;stroke-linejoin:miter;stroke-opacity:1"/>
<path class="bond-14 atom-14 atom-15" d="M 64.6,127.4 L 74.4,139.9" style="fill:none;fill-rule:evenodd;stroke:#000000;stroke-width:2.0px;stroke-linecap:butt;stroke-linejoin:miter;stroke-opacity:1"/>
<path class="bond-14 atom-14 atom-15" d="M 74.4,139.9 L 84.2,152.4" style="fill:none;fill-rule:evenodd;stroke:#FF0000;stroke-width:2.0px;stroke-linecap:butt;stroke-linejoin:miter;stroke-opacity:1"/>
<path class="bond-14 atom-14 atom-15" d="M 69.1,123.8 L 78.9,136.3" style="fill:none;fill-rule:evenodd;stroke:#000000;stroke-width:2.0px;stroke-linecap:butt;stroke-linejoin:miter;stroke-opacity:1"/>
<path class="bond-14 atom-14 atom-15" d="M 78.9,136.3 L 88.8,148.8" style="fill:none;fill-rule:evenodd;stroke:#FF0000;stroke-width:2.0px;stroke-linecap:butt;stroke-linejoin:miter;stroke-opacity:1"/>
<path class="bond-15 atom-14 atom-16" d="M 67.9,126.9 L 51.8,129.2" style="fill:none;fill-rule:evenodd;stroke:#000000;stroke-width:2.0px;stroke-linecap:butt;stroke-linejoin:miter;stroke-opacity:1"/>
<path class="bond-15 atom-14 atom-16" d="M 51.8,129.2 L 35.8,131.5" style="fill:none;fill-rule:evenodd;stroke:#FF0000;stroke-width:2.0px;stroke-linecap:butt;stroke-linejoin:miter;stroke-opacity:1"/>
<path d="M 198.2,58.4 L 199.4,59.9 L 198.7,61.7" style="fill:none;stroke:#000000;stroke-width:2.0px;stroke-linecap:butt;stroke-linejoin:miter;stroke-opacity:1;"/>
<path d="M 219.2,109.7 L 221.0,110.4 L 221.1,111.2" style="fill:none;stroke:#000000;stroke-width:2.0px;stroke-linecap:butt;stroke-linejoin:miter;stroke-opacity:1;"/>
<path d="M 119.9,104.2 L 118.4,105.4 L 116.6,104.7" style="fill:none;stroke:#000000;stroke-width:2.0px;stroke-linecap:butt;stroke-linejoin:miter;stroke-opacity:1;"/>
<path d="M 96.1,56.7 L 96.9,54.9 L 96.4,54.3" style="fill:none;stroke:#000000;stroke-width:2.0px;stroke-linecap:butt;stroke-linejoin:miter;stroke-opacity:1;"/>
<path d="M 68.6,125.1 L 67.9,126.9 L 67.1,127.0" style="fill:none;stroke:#000000;stroke-width:2.0px;stroke-linecap:butt;stroke-linejoin:miter;stroke-opacity:1;"/>
<path class="atom-5" d="M 246.5 86.5 Q 246.5 83.9, 247.8 82.4 Q 249.1 80.9, 251.5 80.9 Q 253.9 80.9, 255.2 82.4 Q 256.6 83.9, 256.6 86.5 Q 256.6 89.2, 255.2 90.7 Q 253.9 92.2, 251.5 92.2 Q 249.1 92.2, 247.8 90.7 Q 246.5 89.2, 246.5 86.5 M 251.5 91.0 Q 253.2 91.0, 254.1 89.9 Q 255.0 88.7, 255.0 86.5 Q 255.0 84.4, 254.1 83.3 Q 253.2 82.2, 251.5 82.2 Q 249.8 82.2, 248.9 83.3 Q 248.0 84.3, 248.0 86.5 Q 248.0 88.7, 248.9 89.9 Q 249.8 91.0, 251.5 91.0 " fill="#FF0000"/>
<path class="atom-6" d="M 221.4 148.9 Q 221.4 146.2, 222.7 144.8 Q 224.0 143.3, 226.4 143.3 Q 228.9 143.3, 230.2 144.8 Q 231.5 146.2, 231.5 148.9 Q 231.5 151.6, 230.1 153.1 Q 228.8 154.6, 226.4 154.6 Q 224.0 154.6, 222.7 153.1 Q 221.4 151.6, 221.4 148.9 M 226.4 153.3 Q 228.1 153.3, 229.0 152.2 Q 229.9 151.1, 229.9 148.9 Q 229.9 146.7, 229.0 145.6 Q 228.1 144.5, 226.4 144.5 Q 224.7 144.5, 223.8 145.6 Q 222.9 146.7, 222.9 148.9 Q 222.9 151.1, 223.8 152.2 Q 224.7 153.3, 226.4 153.3 " fill="#FF0000"/>
<path class="atom-6" d="M 233.2 143.4 L 234.7 143.4 L 234.7 148.1 L 240.3 148.1 L 240.3 143.4 L 241.8 143.4 L 241.8 154.4 L 240.3 154.4 L 240.3 149.3 L 234.7 149.3 L 234.7 154.4 L 233.2 154.4 L 233.2 143.4 " fill="#FF0000"/>
<path class="atom-8" d="M 138.4 43.1 Q 138.4 40.4, 139.7 38.9 Q 141.0 37.5, 143.5 37.5 Q 145.9 37.5, 147.2 38.9 Q 148.5 40.4, 148.5 43.1 Q 148.5 45.7, 147.2 47.2 Q 145.9 48.8, 143.5 48.8 Q 141.0 48.8, 139.7 47.2 Q 138.4 45.7, 138.4 43.1 M 143.5 47.5 Q 145.1 47.5, 146.0 46.4 Q 147.0 45.3, 147.0 43.1 Q 147.0 40.9, 146.0 39.8 Q 145.1 38.7, 143.5 38.7 Q 141.8 38.7, 140.9 39.8 Q 140.0 40.9, 140.0 43.1 Q 140.0 45.3, 140.9 46.4 Q 141.8 47.5, 143.5 47.5 " fill="#FF0000"/>
<path class="atom-8" d="M 150.2 37.6 L 151.7 37.6 L 151.7 42.3 L 157.3 42.3 L 157.3 37.6 L 158.8 37.6 L 158.8 48.6 L 157.3 48.6 L 157.3 43.5 L 151.7 43.5 L 151.7 48.6 L 150.2 48.6 L 150.2 37.6 " fill="#FF0000"/>
<path class="atom-13" d="M 57.0 18.9 L 58.5 18.9 L 58.5 23.6 L 64.1 23.6 L 64.1 18.9 L 65.6 18.9 L 65.6 29.9 L 64.1 29.9 L 64.1 24.8 L 58.5 24.8 L 58.5 29.9 L 57.0 29.9 L 57.0 18.9 " fill="#FF0000"/>
<path class="atom-13" d="M 67.9 24.4 Q 67.9 21.7, 69.2 20.3 Q 70.5 18.8, 72.9 18.8 Q 75.3 18.8, 76.7 20.3 Q 78.0 21.7, 78.0 24.4 Q 78.0 27.1, 76.6 28.6 Q 75.3 30.1, 72.9 30.1 Q 70.5 30.1, 69.2 28.6 Q 67.9 27.1, 67.9 24.4 M 72.9 28.8 Q 74.6 28.8, 75.5 27.7 Q 76.4 26.6, 76.4 24.4 Q 76.4 22.2, 75.5 21.1 Q 74.6 20.0, 72.9 20.0 Q 71.2 20.0, 70.3 21.1 Q 69.4 22.2, 69.4 24.4 Q 69.4 26.6, 70.3 27.7 Q 71.2 28.8, 72.9 28.8 " fill="#FF0000"/>
<path class="atom-15" d="M 86.8 157.5 Q 86.8 154.9, 88.1 153.4 Q 89.4 151.9, 91.8 151.9 Q 94.3 151.9, 95.6 153.4 Q 96.9 154.9, 96.9 157.5 Q 96.9 160.2, 95.6 161.7 Q 94.2 163.2, 91.8 163.2 Q 89.4 163.2, 88.1 161.7 Q 86.8 160.2, 86.8 157.5 M 91.8 162.0 Q 93.5 162.0, 94.4 160.8 Q 95.3 159.7, 95.3 157.5 Q 95.3 155.3, 94.4 154.3 Q 93.5 153.2, 91.8 153.2 Q 90.1 153.2, 89.2 154.2 Q 88.3 155.3, 88.3 157.5 Q 88.3 159.7, 89.2 160.8 Q 90.1 162.0, 91.8 162.0 " fill="#FF0000"/>
<path class="atom-16" d="M 13.6 127.0 L 15.0 127.0 L 15.0 131.6 L 20.7 131.6 L 20.7 127.0 L 22.2 127.0 L 22.2 137.9 L 20.7 137.9 L 20.7 132.9 L 15.0 132.9 L 15.0 137.9 L 13.6 137.9 L 13.6 127.0 " fill="#FF0000"/>
<path class="atom-16" d="M 24.4 132.4 Q 24.4 129.8, 25.7 128.3 Q 27.0 126.8, 29.5 126.8 Q 31.9 126.8, 33.2 128.3 Q 34.5 129.8, 34.5 132.4 Q 34.5 135.1, 33.2 136.6 Q 31.9 138.1, 29.5 138.1 Q 27.0 138.1, 25.7 136.6 Q 24.4 135.1, 24.4 132.4 M 29.5 136.9 Q 31.1 136.9, 32.0 135.8 Q 32.9 134.6, 32.9 132.4 Q 32.9 130.3, 32.0 129.2 Q 31.1 128.1, 29.5 128.1 Q 27.8 128.1, 26.9 129.2 Q 26.0 130.2, 26.0 132.4 Q 26.0 134.6, 26.9 135.8 Q 27.8 136.9, 29.5 136.9 " fill="#FF0000"/>
<path class="legend" d="M 126.0 181.9 Q 126.0 179.6, 126.7 177.7 Q 127.4 175.8, 128.7 173.8 L 129.6 174.4 Q 128.5 176.3, 128.0 178.0 Q 127.5 179.7, 127.5 181.9 Q 127.5 184.0, 128.0 185.8 Q 128.5 187.5, 129.6 189.4 L 128.7 190.0 Q 127.4 188.0, 126.7 186.1 Q 126.0 184.2, 126.0 181.9 " fill="#000000"/>
<path class="legend" d="M 130.5 177.3 Q 130.9 176.2, 131.9 175.6 Q 132.9 175.0, 134.3 175.0 Q 136.0 175.0, 136.9 175.9 Q 137.9 176.8, 137.9 178.5 Q 137.9 180.2, 136.6 181.7 Q 135.4 183.3, 132.9 185.2 L 138.1 185.2 L 138.1 186.4 L 130.5 186.4 L 130.5 185.4 Q 132.6 183.9, 133.8 182.8 Q 135.1 181.6, 135.7 180.6 Q 136.3 179.6, 136.3 178.6 Q 136.3 177.5, 135.8 176.9 Q 135.2 176.3, 134.3 176.3 Q 133.3 176.3, 132.7 176.6 Q 132.1 177.0, 131.7 177.8 L 130.5 177.3 " fill="#000000"/>
<path class="legend" d="M 143.1 181.9 Q 143.1 184.2, 142.4 186.1 Q 141.7 188.0, 140.4 190.0 L 139.5 189.4 Q 140.6 187.5, 141.1 185.8 Q 141.6 184.0, 141.6 181.9 Q 141.6 179.7, 141.1 178.0 Q 140.6 176.3, 139.5 174.4 L 140.4 173.8 Q 141.7 175.8, 142.4 177.7 Q 143.1 179.6, 143.1 181.9 " fill="#000000"/>
</g>
    <g transform="translate(271.0, 0) scale(1 1) "><line x1="5" y1="100" x2="35" y2="100" style="stroke:rgb(0,0,0);stroke-width:2"/>
  <line x1="34" y1="100" x2="29" y2="95" style="stroke:rgb(0,0,0);stroke-width:2"/>
  <line x1="34" y1="100" x2="29" y2="105" style="stroke:rgb(0,0,0);stroke-width:2"/>
</g>
    <g transform="translate(311.0, 0) scale(1 1) "><!-- END OF HEADER -->
<rect style="opacity:1.0;fill:#FFFFFF;stroke:none" width="205.0" height="200.0" x="0.0" y="0.0"> </rect>
<path class="bond-0 atom-0 atom-1" d="M 122.6,44.3 L 108.8,89.2" style="fill:none;fill-rule:evenodd;stroke:#000000;stroke-width:2.0px;stroke-linecap:butt;stroke-linejoin:miter;stroke-opacity:1"/>
<path class="bond-1 atom-1 atom-2" d="M 108.8,89.2 L 95.0,134.1" style="fill:none;fill-rule:evenodd;stroke:#000000;stroke-width:2.0px;stroke-linecap:butt;stroke-linejoin:miter;stroke-opacity:1"/>
<path class="bond-2 atom-1 atom-3" d="M 108.8,89.2 L 63.9,75.4" style="fill:none;fill-rule:evenodd;stroke:#000000;stroke-width:2.0px;stroke-linecap:butt;stroke-linejoin:miter;stroke-opacity:1"/>
<path class="bond-3 atom-3 atom-4" d="M 63.9,75.4 L 50.5,87.9" style="fill:none;fill-rule:evenodd;stroke:#000000;stroke-width:2.0px;stroke-linecap:butt;stroke-linejoin:miter;stroke-opacity:1"/>
<path class="bond-3 atom-3 atom-4" d="M 50.5,87.9 L 37.2,100.3" style="fill:none;fill-rule:evenodd;stroke:#FF0000;stroke-width:2.0px;stroke-linecap:butt;stroke-linejoin:miter;stroke-opacity:1"/>
<path class="bond-4 atom-1 atom-5" d="M 108.8,89.2 L 153.7,103.0" style="fill:none;fill-rule:evenodd;stroke:#000000;stroke-width:2.0px;stroke-linecap:butt;stroke-linejoin:miter;stroke-opacity:1"/>
<path class="bond-5 atom-5 atom-6" d="M 154.7,107.0 L 168.8,93.8" style="fill:none;fill-rule:evenodd;stroke:#000000;stroke-width:2.0px;stroke-linecap:butt;stroke-linejoin:miter;stroke-opacity:1"/>
<path class="bond-5 atom-5 atom-6" d="M 168.8,93.8 L 182.9,80.7" style="fill:none;fill-rule:evenodd;stroke:#FF0000;stroke-width:2.0px;stroke-linecap:butt;stroke-linejoin:miter;stroke-opacity:1"/>
<path class="bond-5 atom-5 atom-6" d="M 149.9,101.8 L 164.0,88.7" style="fill:none;fill-rule:evenodd;stroke:#000000;stroke-width:2.0px;stroke-linecap:butt;stroke-linejoin:miter;stroke-opacity:1"/>
<path class="bond-5 atom-5 atom-6" d="M 164.0,88.7 L 178.1,75.5" style="fill:none;fill-rule:evenodd;stroke:#FF0000;stroke-width:2.0px;stroke-linecap:butt;stroke-linejoin:miter;stroke-opacity:1"/>
<path class="bond-6 atom-5 atom-7" d="M 153.7,103.0 L 158.0,121.7" style="fill:none;fill-rule:evenodd;stroke:#000000;stroke-width:2.0px;stroke-linecap:butt;stroke-linejoin:miter;stroke-opacity:1"/>
<path class="bond-6 atom-5 atom-7" d="M 158.0,121.7 L 162.4,140.5" style="fill:none;fill-rule:evenodd;stroke:#FF0000;stroke-width:2.0px;stroke-linecap:butt;stroke-linejoin:miter;stroke-opacity:1"/>
<path d="M 66.1,76.1 L 63.9,75.4 L 63.2,76.0" style="fill:none;stroke:#000000;stroke-width:2.0px;stroke-linecap:butt;stroke-linejoin:miter;stroke-opacity:1;"/>
<path d="M 151.5,102.3 L 153.7,103.0 L 154.0,103.9" style="fill:none;stroke:#000000;stroke-width:2.0px;stroke-linecap:butt;stroke-linejoin:miter;stroke-opacity:1;"/>
<path class="atom-4" d="M 10.2 100.8 L 12.1 100.8 L 12.1 106.5 L 18.9 106.5 L 18.9 100.8 L 20.7 100.8 L 20.7 114.1 L 18.9 114.1 L 18.9 108.0 L 12.1 108.0 L 12.1 114.1 L 10.2 114.1 L 10.2 100.8 " fill="#FF0000"/>
<path class="atom-4" d="M 23.4 107.5 Q 23.4 104.3, 25.0 102.5 Q 26.5 100.7, 29.5 100.7 Q 32.5 100.7, 34.0 102.5 Q 35.6 104.3, 35.6 107.5 Q 35.6 110.7, 34.0 112.5 Q 32.4 114.4, 29.5 114.4 Q 26.6 114.4, 25.0 112.5 Q 23.4 110.7, 23.4 107.5 M 29.5 112.9 Q 31.5 112.9, 32.6 111.5 Q 33.7 110.1, 33.7 107.5 Q 33.7 104.8, 32.6 103.5 Q 31.5 102.2, 29.5 102.2 Q 27.5 102.2, 26.4 103.5 Q 25.3 104.8, 25.3 107.5 Q 25.3 110.1, 26.4 111.5 Q 27.5 112.9, 29.5 112.9 " fill="#FF0000"/>
<path class="atom-6" d="M 182.0 71.0 Q 182.0 67.8, 183.6 66.0 Q 185.2 64.3, 188.1 64.3 Q 191.1 64.3, 192.7 66.0 Q 194.3 67.8, 194.3 71.0 Q 194.3 74.3, 192.7 76.1 Q 191.1 77.9, 188.1 77.9 Q 185.2 77.9, 183.6 76.1 Q 182.0 74.3, 182.0 71.0 M 188.1 76.4 Q 190.2 76.4, 191.3 75.1 Q 192.4 73.7, 192.4 71.0 Q 192.4 68.4, 191.3 67.1 Q 190.2 65.8, 188.1 65.8 Q 186.1 65.8, 185.0 67.1 Q 183.9 68.4, 183.9 71.0 Q 183.9 73.7, 185.0 75.1 Q 186.1 76.4, 188.1 76.4 " fill="#FF0000"/>
<path class="atom-7" d="M 158.2 148.8 Q 158.2 145.6, 159.7 143.8 Q 161.3 142.1, 164.3 142.1 Q 167.2 142.1, 168.8 143.8 Q 170.4 145.6, 170.4 148.8 Q 170.4 152.1, 168.8 153.9 Q 167.2 155.7, 164.3 155.7 Q 161.3 155.7, 159.7 153.9 Q 158.2 152.1, 158.2 148.8 M 164.3 154.2 Q 166.3 154.2, 167.4 152.9 Q 168.5 151.5, 168.5 148.8 Q 168.5 146.2, 167.4 144.9 Q 166.3 143.6, 164.3 143.6 Q 162.2 143.6, 161.1 144.9 Q 160.0 146.2, 160.0 148.8 Q 160.0 151.5, 161.1 152.9 Q 162.2 154.2, 164.3 154.2 " fill="#FF0000"/>
<path class="atom-7" d="M 172.4 142.2 L 174.2 142.2 L 174.2 147.9 L 181.0 147.9 L 181.0 142.2 L 182.9 142.2 L 182.9 155.5 L 181.0 155.5 L 181.0 149.4 L 174.2 149.4 L 174.2 155.5 L 172.4 155.5 L 172.4 142.2 " fill="#FF0000"/>
</g>
    <g transform="translate(516.0, 0) scale(1 1) "><line x1="15" y1="100" x2="25" y2="100" style="stroke:rgb(0,0,0);stroke-width:2"/>
  <line x1="20" y1="95" x2="20" y2="105" style="stroke:rgb(0,0,0);stroke-width:2"/>
</g>
    <g transform="translate(556.0, 0) scale(1 1) "><!-- END OF HEADER -->
<rect style="opacity:1.0;fill:#FFFFFF;stroke:none" width="307.0" height="200.0" x="0.0" y="0.0"> </rect>
<path class="bond-0 atom-0 atom-1" d="M 240.7,75.6 L 239.9,109.6" style="fill:none;fill-rule:evenodd;stroke:#000000;stroke-width:2.0px;stroke-linecap:butt;stroke-linejoin:miter;stroke-opacity:1"/>
<path class="bond-1 atom-1 atom-2" d="M 239.9,109.6 L 209.9,126.0" style="fill:none;fill-rule:evenodd;stroke:#000000;stroke-width:2.0px;stroke-linecap:butt;stroke-linejoin:miter;stroke-opacity:1"/>
<path class="bond-2 atom-2 atom-3" d="M 209.9,126.0 L 180.0,142.3" style="fill:none;fill-rule:evenodd;stroke:#000000;stroke-width:2.0px;stroke-linecap:butt;stroke-linejoin:miter;stroke-opacity:1"/>
<path class="bond-3 atom-2 atom-4" d="M 209.9,126.0 L 226.3,155.9" style="fill:none;fill-rule:evenodd;stroke:#000000;stroke-width:2.0px;stroke-linecap:butt;stroke-linejoin:miter;stroke-opacity:1"/>
<path class="bond-4 atom-4 atom-5" d="M 224.8,158.3 L 239.8,158.7" style="fill:none;fill-rule:evenodd;stroke:#000000;stroke-width:2.0px;stroke-linecap:butt;stroke-linejoin:miter;stroke-opacity:1"/>
<path class="bond-4 atom-4 atom-5" d="M 239.8,158.7 L 254.7,159.1" style="fill:none;fill-rule:evenodd;stroke:#FF0000;stroke-width:2.0px;stroke-linecap:butt;stroke-linejoin:miter;stroke-opacity:1"/>
<path class="bond-4 atom-4 atom-5" d="M 224.9,153.4 L 239.9,153.7" style="fill:none;fill-rule:evenodd;stroke:#000000;stroke-width:2.0px;stroke-linecap:butt;stroke-linejoin:miter;stroke-opacity:1"/>
<path class="bond-4 atom-4 atom-5" d="M 239.9,153.7 L 254.9,154.1" style="fill:none;fill-rule:evenodd;stroke:#FF0000;stroke-width:2.0px;stroke-linecap:butt;stroke-linejoin:miter;stroke-opacity:1"/>
<path class="bond-5 atom-4 atom-6" d="M 226.3,155.9 L 219.2,167.4" style="fill:none;fill-rule:evenodd;stroke:#000000;stroke-width:2.0px;stroke-linecap:butt;stroke-linejoin:miter;stroke-opacity:1"/>
<path class="bond-5 atom-4 atom-6" d="M 219.2,167.4 L 212.2,179.0" style="fill:none;fill-rule:evenodd;stroke:#FF0000;stroke-width:2.0px;stroke-linecap:butt;stroke-linejoin:miter;stroke-opacity:1"/>
<path class="bond-6 atom-2 atom-7" d="M 209.9,126.0 L 193.6,96.0" style="fill:none;fill-rule:evenodd;stroke:#000000;stroke-width:2.0px;stroke-linecap:butt;stroke-linejoin:miter;stroke-opacity:1"/>
<path class="bond-7 atom-7 atom-8" d="M 193.6,96.0 L 198.9,89.4" style="fill:none;fill-rule:evenodd;stroke:#000000;stroke-width:2.0px;stroke-linecap:butt;stroke-linejoin:miter;stroke-opacity:1"/>
<path class="bond-7 atom-7 atom-8" d="M 198.9,89.4 L 204.2,82.7" style="fill:none;fill-rule:evenodd;stroke:#FF0000;stroke-width:2.0px;stroke-linecap:butt;stroke-linejoin:miter;stroke-opacity:1"/>
<path class="bond-8 atom-7 atom-9" d="M 193.6,96.0 L 159.6,95.2" style="fill:none;fill-rule:evenodd;stroke:#000000;stroke-width:2.0px;stroke-linecap:butt;stroke-linejoin:miter;stroke-opacity:1"/>
<path class="bond-9 atom-9 atom-10" d="M 159.6,95.2 L 141.8,124.3" style="fill:none;fill-rule:evenodd;stroke:#000000;stroke-width:2.0px;stroke-linecap:butt;stroke-linejoin:miter;stroke-opacity:1"/>
<path class="bond-10 atom-10 atom-11" d="M 141.8,124.3 L 148.3,136.3" style="fill:none;fill-rule:evenodd;stroke:#000000;stroke-width:2.0px;stroke-linecap:butt;stroke-linejoin:miter;stroke-opacity:1"/>
<path class="bond-10 atom-10 atom-11" d="M 148.3,136.3 L 154.9,148.2" style="fill:none;fill-rule:evenodd;stroke:#FF0000;stroke-width:2.0px;stroke-linecap:butt;stroke-linejoin:miter;stroke-opacity:1"/>
<path class="bond-11 atom-10 atom-12" d="M 141.8,124.3 L 107.7,123.5" style="fill:none;fill-rule:evenodd;stroke:#000000;stroke-width:2.0px;stroke-linecap:butt;stroke-linejoin:miter;stroke-opacity:1"/>
<path class="bond-12 atom-12 atom-13" d="M 107.7,123.5 L 101.0,93.5" style="fill:none;fill-rule:evenodd;stroke:#000000;stroke-width:2.0px;stroke-linecap:butt;stroke-linejoin:miter;stroke-opacity:1"/>
<path class="bond-13 atom-12 atom-14" d="M 107.7,123.5 L 106.9,157.5" style="fill:none;fill-rule:evenodd;stroke:#000000;stroke-width:2.0px;stroke-linecap:butt;stroke-linejoin:miter;stroke-opacity:1"/>
<path class="bond-14 atom-14 atom-15" d="M 106.9,157.5 L 77.0,173.8" style="fill:none;fill-rule:evenodd;stroke:#000000;stroke-width:2.0px;stroke-linecap:butt;stroke-linejoin:miter;stroke-opacity:1"/>
<path class="bond-15 atom-12 atom-16" d="M 107.7,123.5 L 73.7,122.6" style="fill:none;fill-rule:evenodd;stroke:#000000;stroke-width:2.0px;stroke-linecap:butt;stroke-linejoin:miter;stroke-opacity:1"/>
<path class="bond-16 atom-16 atom-17" d="M 76.5,122.7 L 69.7,110.2" style="fill:none;fill-rule:evenodd;stroke:#000000;stroke-width:2.0px;stroke-linecap:butt;stroke-linejoin:miter;stroke-opacity:1"/>
<path class="bond-16 atom-16 atom-17" d="M 69.7,110.2 L 62.9,97.6" style="fill:none;fill-rule:evenodd;stroke:#FF0000;stroke-width:2.0px;stroke-linecap:butt;stroke-linejoin:miter;stroke-opacity:1"/>
<path class="bond-16 atom-16 atom-17" d="M 72.2,125.1 L 65.3,112.5" style="fill:none;fill-rule:evenodd;stroke:#000000;stroke-width:2.0px;stroke-linecap:butt;stroke-linejoin:miter;stroke-opacity:1"/>
<path class="bond-16 atom-16 atom-17" d="M 65.3,112.5 L 58.5,100.0" style="fill:none;fill-rule:evenodd;stroke:#FF0000;stroke-width:2.0px;stroke-linecap:butt;stroke-linejoin:miter;stroke-opacity:1"/>
<path class="bond-17 atom-16 atom-18" d="M 73.7,122.6 L 66.6,134.2" style="fill:none;fill-rule:evenodd;stroke:#000000;stroke-width:2.0px;stroke-linecap:butt;stroke-linejoin:miter;stroke-opacity:1"/>
<path class="bond-17 atom-16 atom-18" d="M 66.6,134.2 L 59.5,145.7" style="fill:none;fill-rule:evenodd;stroke:#FF0000;stroke-width:2.0px;stroke-linecap:butt;stroke-linejoin:miter;stroke-opacity:1"/>
<path class="bond-18 atom-9 atom-19" d="M 159.6,95.2 L 143.2,65.3" style="fill:none;fill-rule:evenodd;stroke:#000000;stroke-width:2.0px;stroke-linecap:butt;stroke-linejoin:miter;stroke-opacity:1"/>
<path class="bond-19 atom-19 atom-20" d="M 143.2,65.3 L 126.9,35.3" style="fill:none;fill-rule:evenodd;stroke:#000000;stroke-width:2.0px;stroke-linecap:butt;stroke-linejoin:miter;stroke-opacity:1"/>
<path class="bond-20 atom-19 atom-21" d="M 143.2,65.3 L 113.3,81.6" style="fill:none;fill-rule:evenodd;stroke:#000000;stroke-width:2.0px;stroke-linecap:butt;stroke-linejoin:miter;stroke-opacity:1"/>
<path class="bond-21 atom-21 atom-22" d="M 113.3,81.6 L 101.5,74.4" style="fill:none;fill-rule:evenodd;stroke:#000000;stroke-width:2.0px;stroke-linecap:butt;stroke-linejoin:miter;stroke-opacity:1"/>
<path class="bond-21 atom-21 atom-22" d="M 101.5,74.4 L 89.8,67.2" style="fill:none;fill-rule:evenodd;stroke:#FF0000;stroke-width:2.0px;stroke-linecap:butt;stroke-linejoin:miter;stroke-opacity:1"/>
<path class="bond-22 atom-19 atom-23" d="M 143.2,65.3 L 173.2,49.0" style="fill:none;fill-rule:evenodd;stroke:#000000;stroke-width:2.0px;stroke-linecap:butt;stroke-linejoin:miter;stroke-opacity:1"/>
<path class="bond-23 atom-23 atom-24" d="M 170.4,50.4 L 179.8,54.7" style="fill:none;fill-rule:evenodd;stroke:#000000;stroke-width:2.0px;stroke-linecap:butt;stroke-linejoin:miter;stroke-opacity:1"/>
<path class="bond-23 atom-23 atom-24" d="M 179.8,54.7 L 189.2,59.0" style="fill:none;fill-rule:evenodd;stroke:#FF0000;stroke-width:2.0px;stroke-linecap:butt;stroke-linejoin:miter;stroke-opacity:1"/>
<path class="bond-23 atom-23 atom-24" d="M 173.2,46.2 L 181.9,50.2" style="fill:none;fill-rule:evenodd;stroke:#000000;stroke-width:2.0px;stroke-linecap:butt;stroke-linejoin:miter;stroke-opacity:1"/>
<path class="bond-23 atom-23 atom-24" d="M 181.9,50.2 L 191.3,54.4" style="fill:none;fill-rule:evenodd;stroke:#FF0000;stroke-width:2.0px;stroke-linecap:butt;stroke-linejoin:miter;stroke-opacity:1"/>
<path class="bond-24 atom-23 atom-25" d="M 173.2,49.0 L 173.5,35.0" style="fill:none;fill-rule:evenodd;stroke:#000000;stroke-width:2.0px;stroke-linecap:butt;stroke-linejoin:miter;stroke-opacity:1"/>
<path class="bond-24 atom-23 atom-25" d="M 173.5,35.0 L 173.8,21.0" style="fill:none;fill-rule:evenodd;stroke:#FF0000;stroke-width:2.0px;stroke-linecap:butt;stroke-linejoin:miter;stroke-opacity:1"/>
<path d="M 239.9,107.9 L 239.9,109.6 L 238.4,110.5" style="fill:none;stroke:#000000;stroke-width:2.0px;stroke-linecap:butt;stroke-linejoin:miter;stroke-opacity:1;"/>
<path d="M 225.4,154.4 L 226.3,155.9 L 225.9,156.5" style="fill:none;stroke:#000000;stroke-width:2.0px;stroke-linecap:butt;stroke-linejoin:miter;stroke-opacity:1;"/>
<path d="M 106.9,155.8 L 106.9,157.5 L 105.4,158.3" style="fill:none;stroke:#000000;stroke-width:2.0px;stroke-linecap:butt;stroke-linejoin:miter;stroke-opacity:1;"/>
<path d="M 75.4,122.7 L 73.7,122.6 L 73.3,123.2" style="fill:none;stroke:#000000;stroke-width:2.0px;stroke-linecap:butt;stroke-linejoin:miter;stroke-opacity:1;"/>
<path d="M 114.8,80.8 L 113.3,81.6 L 112.7,81.2" style="fill:none;stroke:#000000;stroke-width:2.0px;stroke-linecap:butt;stroke-linejoin:miter;stroke-opacity:1;"/>
<path d="M 171.7,49.8 L 173.2,49.0 L 173.2,48.3" style="fill:none;stroke:#000000;stroke-width:2.0px;stroke-linecap:butt;stroke-linejoin:miter;stroke-opacity:1;"/>
<path class="atom-5" d="M 255.9 156.7 Q 255.9 154.4, 257.1 153.1 Q 258.2 151.8, 260.3 151.8 Q 262.5 151.8, 263.6 153.1 Q 264.8 154.4, 264.8 156.7 Q 264.8 159.1, 263.6 160.4 Q 262.5 161.7, 260.3 161.7 Q 258.2 161.7, 257.1 160.4 Q 255.9 159.1, 255.9 156.7 M 260.3 160.6 Q 261.8 160.6, 262.6 159.7 Q 263.4 158.7, 263.4 156.7 Q 263.4 154.8, 262.6 153.9 Q 261.8 152.9, 260.3 152.9 Q 258.9 152.9, 258.1 153.9 Q 257.3 154.8, 257.3 156.7 Q 257.3 158.7, 258.1 159.7 Q 258.9 160.6, 260.3 160.6 " fill="#FF0000"/>
<path class="atom-6" d="M 194.5 180.2 L 195.9 180.2 L 195.9 184.3 L 200.8 184.3 L 200.8 180.2 L 202.1 180.2 L 202.1 189.9 L 200.8 189.9 L 200.8 185.4 L 195.9 185.4 L 195.9 189.9 L 194.5 189.9 L 194.5 180.2 " fill="#FF0000"/>
<path class="atom-6" d="M 204.1 185.0 Q 204.1 182.7, 205.2 181.4 Q 206.4 180.1, 208.5 180.1 Q 210.6 180.1, 211.8 181.4 Q 212.9 182.7, 212.9 185.0 Q 212.9 187.3, 211.8 188.7 Q 210.6 190.0, 208.5 190.0 Q 206.4 190.0, 205.2 188.7 Q 204.1 187.4, 204.1 185.0 M 208.5 188.9 Q 210.0 188.9, 210.8 187.9 Q 211.6 186.9, 211.6 185.0 Q 211.6 183.1, 210.8 182.1 Q 210.0 181.2, 208.5 181.2 Q 207.0 181.2, 206.2 182.1 Q 205.4 183.1, 205.4 185.0 Q 205.4 186.9, 206.2 187.9 Q 207.0 188.9, 208.5 188.9 " fill="#FF0000"/>
<path class="atom-8" d="M 204.6 76.6 Q 204.6 74.3, 205.8 73.0 Q 206.9 71.7, 209.1 71.7 Q 211.2 71.7, 212.4 73.0 Q 213.5 74.3, 213.5 76.6 Q 213.5 78.9, 212.3 80.3 Q 211.2 81.6, 209.1 81.6 Q 206.9 81.6, 205.8 80.3 Q 204.6 78.9, 204.6 76.6 M 209.1 80.5 Q 210.5 80.5, 211.3 79.5 Q 212.1 78.5, 212.1 76.6 Q 212.1 74.7, 211.3 73.7 Q 210.5 72.8, 209.1 72.8 Q 207.6 72.8, 206.8 73.7 Q 206.0 74.7, 206.0 76.6 Q 206.0 78.5, 206.8 79.5 Q 207.6 80.5, 209.1 80.5 " fill="#FF0000"/>
<path class="atom-8" d="M 215.0 71.8 L 216.3 71.8 L 216.3 75.9 L 221.2 75.9 L 221.2 71.8 L 222.6 71.8 L 222.6 81.4 L 221.2 81.4 L 221.2 77.0 L 216.3 77.0 L 216.3 81.4 L 215.0 81.4 L 215.0 71.8 " fill="#FF0000"/>
<path class="atom-11" d="M 153.7 154.2 Q 153.7 151.9, 154.8 150.6 Q 156.0 149.3, 158.1 149.3 Q 160.3 149.3, 161.4 150.6 Q 162.5 151.9, 162.5 154.2 Q 162.5 156.6, 161.4 157.9 Q 160.2 159.2, 158.1 159.2 Q 156.0 159.2, 154.8 157.9 Q 153.7 156.6, 153.7 154.2 M 158.1 158.2 Q 159.6 158.2, 160.4 157.2 Q 161.2 156.2, 161.2 154.2 Q 161.2 152.3, 160.4 151.4 Q 159.6 150.4, 158.1 150.4 Q 156.6 150.4, 155.8 151.4 Q 155.0 152.3, 155.0 154.2 Q 155.0 156.2, 155.8 157.2 Q 156.6 158.2, 158.1 158.2 " fill="#FF0000"/>
<path class="atom-11" d="M 164.0 149.4 L 165.4 149.4 L 165.4 153.5 L 170.3 153.5 L 170.3 149.4 L 171.6 149.4 L 171.6 159.1 L 170.3 159.1 L 170.3 154.6 L 165.4 154.6 L 165.4 159.1 L 164.0 159.1 L 164.0 149.4 " fill="#FF0000"/>
<path class="atom-17" d="M 52.9 92.7 Q 52.9 90.4, 54.1 89.1 Q 55.2 87.8, 57.3 87.8 Q 59.5 87.8, 60.6 89.1 Q 61.8 90.4, 61.8 92.7 Q 61.8 95.1, 60.6 96.4 Q 59.5 97.7, 57.3 97.7 Q 55.2 97.7, 54.1 96.4 Q 52.9 95.1, 52.9 92.7 M 57.3 96.6 Q 58.8 96.6, 59.6 95.7 Q 60.4 94.7, 60.4 92.7 Q 60.4 90.8, 59.6 89.9 Q 58.8 88.9, 57.3 88.9 Q 55.9 88.9, 55.1 89.9 Q 54.3 90.8, 54.3 92.7 Q 54.3 94.7, 55.1 95.7 Q 55.9 96.6, 57.3 96.6 " fill="#FF0000"/>
<path class="atom-18" d="M 41.9 146.9 L 43.2 146.9 L 43.2 151.0 L 48.2 151.0 L 48.2 146.9 L 49.5 146.9 L 49.5 156.6 L 48.2 156.6 L 48.2 152.1 L 43.2 152.1 L 43.2 156.6 L 41.9 156.6 L 41.9 146.9 " fill="#FF0000"/>
<path class="atom-18" d="M 51.5 151.7 Q 51.5 149.4, 52.6 148.1 Q 53.8 146.8, 55.9 146.8 Q 58.0 146.8, 59.2 148.1 Q 60.3 149.4, 60.3 151.7 Q 60.3 154.1, 59.2 155.4 Q 58.0 156.7, 55.9 156.7 Q 53.8 156.7, 52.6 155.4 Q 51.5 154.1, 51.5 151.7 M 55.9 155.7 Q 57.4 155.7, 58.2 154.7 Q 59.0 153.7, 59.0 151.7 Q 59.0 149.8, 58.2 148.9 Q 57.4 147.9, 55.9 147.9 Q 54.4 147.9, 53.6 148.9 Q 52.8 149.8, 52.8 151.7 Q 52.8 153.7, 53.6 154.7 Q 54.4 155.7, 55.9 155.7 " fill="#FF0000"/>
<path class="atom-22" d="M 70.3 59.1 L 71.6 59.1 L 71.6 63.2 L 76.5 63.2 L 76.5 59.1 L 77.8 59.1 L 77.8 68.7 L 76.5 68.7 L 76.5 64.3 L 71.6 64.3 L 71.6 68.7 L 70.3 68.7 L 70.3 59.1 " fill="#FF0000"/>
<path class="atom-22" d="M 79.8 63.9 Q 79.8 61.5, 80.9 60.2 Q 82.1 58.9, 84.2 58.9 Q 86.4 58.9, 87.5 60.2 Q 88.7 61.5, 88.7 63.9 Q 88.7 66.2, 87.5 67.5 Q 86.3 68.9, 84.2 68.9 Q 82.1 68.9, 80.9 67.5 Q 79.8 66.2, 79.8 63.9 M 84.2 67.8 Q 85.7 67.8, 86.5 66.8 Q 87.3 65.8, 87.3 63.9 Q 87.3 62.0, 86.5 61.0 Q 85.7 60.0, 84.2 60.0 Q 82.8 60.0, 81.9 61.0 Q 81.2 61.9, 81.2 63.9 Q 81.2 65.8, 81.9 66.8 Q 82.8 67.8, 84.2 67.8 " fill="#FF0000"/>
<path class="atom-24" d="M 191.4 59.2 Q 191.4 56.9, 192.5 55.6 Q 193.7 54.3, 195.8 54.3 Q 197.9 54.3, 199.1 55.6 Q 200.2 56.9, 200.2 59.2 Q 200.2 61.6, 199.1 62.9 Q 197.9 64.2, 195.8 64.2 Q 193.7 64.2, 192.5 62.9 Q 191.4 61.6, 191.4 59.2 M 195.8 63.2 Q 197.3 63.2, 198.1 62.2 Q 198.9 61.2, 198.9 59.2 Q 198.9 57.4, 198.1 56.4 Q 197.3 55.4, 195.8 55.4 Q 194.3 55.4, 193.5 56.4 Q 192.7 57.3, 192.7 59.2 Q 192.7 61.2, 193.5 62.2 Q 194.3 63.2, 195.8 63.2 " fill="#FF0000"/>
<path class="atom-25" d="M 169.6 14.9 Q 169.6 12.6, 170.7 11.3 Q 171.9 10.0, 174.0 10.0 Q 176.1 10.0, 177.3 11.3 Q 178.4 12.6, 178.4 14.9 Q 178.4 17.3, 177.3 18.6 Q 176.1 19.9, 174.0 19.9 Q 171.9 19.9, 170.7 18.6 Q 169.6 17.3, 169.6 14.9 M 174.0 18.8 Q 175.5 18.8, 176.3 17.8 Q 177.1 16.8, 177.1 14.9 Q 177.1 13.0, 176.3 12.1 Q 175.5 11.1, 174.0 11.1 Q 172.5 11.1, 171.7 12.0 Q 170.9 13.0, 170.9 14.9 Q 170.9 16.9, 171.7 17.8 Q 172.5 18.8, 174.0 18.8 " fill="#FF0000"/>
<path class="atom-25" d="M 179.9 10.1 L 181.2 10.1 L 181.2 14.2 L 186.2 14.2 L 186.2 10.1 L 187.5 10.1 L 187.5 19.8 L 186.2 19.8 L 186.2 15.3 L 181.2 15.3 L 181.2 19.8 L 179.9 19.8 L 179.9 10.1 " fill="#FF0000"/>
</g>
  </g>
</svg>
