<?xml version='1.0' encoding='ASCII' standalone='yes'?>
<svg xmlns="http://www.w3.org/2000/svg" xmlns:xlink="http://www.w3.org/1999/xlink" version="1.1" width="648.0px" viewBox="0 0 648.0 200.0" height="200.0px">
  <g>
    <g transform="translate(0, 0) scale(1 1) "><!-- END OF HEADER -->
<rect style="opacity:1.0;fill:#FFFFFF;stroke:none" width="304.0" height="200.0" x="0.0" y="0.0"> </rect>
<path class="bond-0 atom-0 atom-1" d="M 131.5,114.8 L 159.0,95.5" style="fill:none;fill-rule:evenodd;stroke:#000000;stroke-width:2.0px;stroke-linecap:butt;stroke-linejoin:miter;stroke-opacity:1"/>
<path class="bond-1 atom-1 atom-2" d="M 159.0,95.5 L 178.3,123.0" style="fill:none;fill-rule:evenodd;stroke:#000000;stroke-width:2.0px;stroke-linecap:butt;stroke-linejoin:miter;stroke-opacity:1"/>
<path class="bond-2 atom-2 atom-3" d="M 178.3,123.0 L 172.6,135.3" style="fill:none;fill-rule:evenodd;stroke:#000000;stroke-width:2.0px;stroke-linecap:butt;stroke-linejoin:miter;stroke-opacity:1"/>
<path class="bond-2 atom-2 atom-3" d="M 172.6,135.3 L 166.9,147.5" style="fill:none;fill-rule:evenodd;stroke:#FF0000;stroke-width:2.0px;stroke-linecap:butt;stroke-linejoin:miter;stroke-opacity:1"/>
<path class="bond-3 atom-1 atom-4" d="M 159.0,95.5 L 186.5,76.2" style="fill:none;fill-rule:evenodd;stroke:#000000;stroke-width:2.0px;stroke-linecap:butt;stroke-linejoin:miter;stroke-opacity:1"/>
<path class="bond-4 atom-4 atom-5" d="M 186.5,76.2 L 217.0,90.4" style="fill:none;fill-rule:evenodd;stroke:#000000;stroke-width:2.0px;stroke-linecap:butt;stroke-linejoin:miter;stroke-opacity:1"/>
<path class="bond-5 atom-5 atom-6" d="M 217.0,90.4 L 202.8,120.9" style="fill:none;fill-rule:evenodd;stroke:#000000;stroke-width:2.0px;stroke-linecap:butt;stroke-linejoin:miter;stroke-opacity:1"/>
<path class="bond-6 atom-5 atom-7" d="M 217.0,90.4 L 231.1,60.0" style="fill:none;fill-rule:evenodd;stroke:#000000;stroke-width:2.0px;stroke-linecap:butt;stroke-linejoin:miter;stroke-opacity:1"/>
<path class="bond-7 atom-5 atom-8" d="M 217.0,90.4 L 247.4,104.6" style="fill:none;fill-rule:evenodd;stroke:#000000;stroke-width:2.0px;stroke-linecap:butt;stroke-linejoin:miter;stroke-opacity:1"/>
<path class="bond-8 atom-8 atom-9" d="M 244.8,103.4 L 246.0,117.9" style="fill:none;fill-rule:evenodd;stroke:#000000;stroke-width:2.0px;stroke-linecap:butt;stroke-linejoin:miter;stroke-opacity:1"/>
<path class="bond-8 atom-8 atom-9" d="M 246.0,117.9 L 247.3,132.4" style="fill:none;fill-rule:evenodd;stroke:#FF0000;stroke-width:2.0px;stroke-linecap:butt;stroke-linejoin:miter;stroke-opacity:1"/>
<path class="bond-8 atom-8 atom-9" d="M 249.8,102.9 L 251.1,117.4" style="fill:none;fill-rule:evenodd;stroke:#000000;stroke-width:2.0px;stroke-linecap:butt;stroke-linejoin:miter;stroke-opacity:1"/>
<path class="bond-8 atom-8 atom-9" d="M 251.1,117.4 L 252.3,131.9" style="fill:none;fill-rule:evenodd;stroke:#FF0000;stroke-width:2.0px;stroke-linecap:butt;stroke-linejoin:miter;stroke-opacity:1"/>
<path class="bond-9 atom-8 atom-10" d="M 247.4,104.6 L 258.4,96.9" style="fill:none;fill-rule:evenodd;stroke:#000000;stroke-width:2.0px;stroke-linecap:butt;stroke-linejoin:miter;stroke-opacity:1"/>
<path class="bond-9 atom-8 atom-10" d="M 258.4,96.9 L 269.4,89.1" style="fill:none;fill-rule:evenodd;stroke:#FF0000;stroke-width:2.0px;stroke-linecap:butt;stroke-linejoin:miter;stroke-opacity:1"/>
<path class="bond-10 atom-1 atom-11" d="M 159.0,95.5 L 139.7,68.0" style="fill:none;fill-rule:evenodd;stroke:#000000;stroke-width:2.0px;stroke-linecap:butt;stroke-linejoin:miter;stroke-opacity:1"/>
<path class="bond-11 atom-11 atom-12" d="M 139.7,68.0 L 106.3,70.9" style="fill:none;fill-rule:evenodd;stroke:#000000;stroke-width:2.0px;stroke-linecap:butt;stroke-linejoin:miter;stroke-opacity:1"/>
<path class="bond-12 atom-12 atom-13" d="M 106.3,70.9 L 72.8,73.9" style="fill:none;fill-rule:evenodd;stroke:#000000;stroke-width:2.0px;stroke-linecap:butt;stroke-linejoin:miter;stroke-opacity:1"/>
<path class="bond-13 atom-12 atom-14" d="M 106.3,70.9 L 109.2,104.4" style="fill:none;fill-rule:evenodd;stroke:#000000;stroke-width:2.0px;stroke-linecap:butt;stroke-linejoin:miter;stroke-opacity:1"/>
<path class="bond-14 atom-14 atom-15" d="M 109.2,104.4 L 81.7,123.7" style="fill:none;fill-rule:evenodd;stroke:#000000;stroke-width:2.0px;stroke-linecap:butt;stroke-linejoin:miter;stroke-opacity:1"/>
<path class="bond-15 atom-15 atom-16" d="M 81.7,123.7 L 54.2,143.0" style="fill:none;fill-rule:evenodd;stroke:#000000;stroke-width:2.0px;stroke-linecap:butt;stroke-linejoin:miter;stroke-opacity:1"/>
<path class="bond-16 atom-15 atom-17" d="M 81.7,123.7 L 62.4,96.2" style="fill:none;fill-rule:evenodd;stroke:#000000;stroke-width:2.0px;stroke-linecap:butt;stroke-linejoin:miter;stroke-opacity:1"/>
<path class="bond-17 atom-17 atom-18" d="M 62.4,96.2 L 48.4,97.4" style="fill:none;fill-rule:evenodd;stroke:#000000;stroke-width:2.0px;stroke-linecap:butt;stroke-linejoin:miter;stroke-opacity:1"/>
<path class="bond-17 atom-17 atom-18" d="M 48.4,97.4 L 34.4,98.6" style="fill:none;fill-rule:evenodd;stroke:#FF0000;stroke-width:2.0px;stroke-linecap:butt;stroke-linejoin:miter;stroke-opacity:1"/>
<path class="bond-18 atom-15 atom-19" d="M 81.7,123.7 L 101.0,151.2" style="fill:none;fill-rule:evenodd;stroke:#000000;stroke-width:2.0px;stroke-linecap:butt;stroke-linejoin:miter;stroke-opacity:1"/>
<path class="bond-19 atom-19 atom-20" d="M 99.8,153.8 L 114.5,152.5" style="fill:none;fill-rule:evenodd;stroke:#000000;stroke-width:2.0px;stroke-linecap:butt;stroke-linejoin:miter;stroke-opacity:1"/>
<path class="bond-19 atom-19 atom-20" d="M 114.5,152.5 L 129.2,151.2" style="fill:none;fill-rule:evenodd;stroke:#FF0000;stroke-width:2.0px;stroke-linecap:butt;stroke-linejoin:miter;stroke-opacity:1"/>
<path class="bond-19 atom-19 atom-20" d="M 99.3,148.8 L 114.0,147.5" style="fill:none;fill-rule:evenodd;stroke:#000000;stroke-width:2.0px;stroke-linecap:butt;stroke-linejoin:miter;stroke-opacity:1"/>
<path class="bond-19 atom-19 atom-20" d="M 114.0,147.5 L 128.7,146.2" style="fill:none;fill-rule:evenodd;stroke:#FF0000;stroke-width:2.0px;stroke-linecap:butt;stroke-linejoin:miter;stroke-opacity:1"/>
<path class="bond-20 atom-19 atom-21" d="M 101.0,151.2 L 95.3,163.5" style="fill:none;fill-rule:evenodd;stroke:#000000;stroke-width:2.0px;stroke-linecap:butt;stroke-linejoin:miter;stroke-opacity:1"/>
<path class="bond-20 atom-19 atom-21" d="M 95.3,163.5 L 89.6,175.7" style="fill:none;fill-rule:evenodd;stroke:#FF0000;stroke-width:2.0px;stroke-linecap:butt;stroke-linejoin:miter;stroke-opacity:1"/>
<path class="bond-21 atom-12 atom-22" d="M 106.3,70.9 L 103.3,37.5" style="fill:none;fill-rule:evenodd;stroke:#000000;stroke-width:2.0px;stroke-linecap:butt;stroke-linejoin:miter;stroke-opacity:1"/>
<path class="bond-22 atom-22 atom-23" d="M 105.7,35.8 L 92.6,29.7" style="fill:none;fill-rule:evenodd;stroke:#000000;stroke-width:2.0px;stroke-linecap:butt;stroke-linejoin:miter;stroke-opacity:1"/>
<path class="bond-22 atom-22 atom-23" d="M 92.6,29.7 L 79.4,23.6" style="fill:none;fill-rule:evenodd;stroke:#FF0000;stroke-width:2.0px;stroke-linecap:butt;stroke-linejoin:miter;stroke-opacity:1"/>
<path class="bond-22 atom-22 atom-23" d="M 103.6,40.4 L 90.4,34.3" style="fill:none;fill-rule:evenodd;stroke:#000000;stroke-width:2.0px;stroke-linecap:butt;stroke-linejoin:miter;stroke-opacity:1"/>
<path class="bond-22 atom-22 atom-23" d="M 90.4,34.3 L 77.3,28.1" style="fill:none;fill-rule:evenodd;stroke:#FF0000;stroke-width:2.0px;stroke-linecap:butt;stroke-linejoin:miter;stroke-opacity:1"/>
<path class="bond-23 atom-22 atom-24" d="M 103.3,37.5 L 114.3,29.8" style="fill:none;fill-rule:evenodd;stroke:#000000;stroke-width:2.0px;stroke-linecap:butt;stroke-linejoin:miter;stroke-opacity:1"/>
<path class="bond-23 atom-22 atom-24" d="M 114.3,29.8 L 125.3,22.0" style="fill:none;fill-rule:evenodd;stroke:#FF0000;stroke-width:2.0px;stroke-linecap:butt;stroke-linejoin:miter;stroke-opacity:1"/>
<path d="M 177.3,121.6 L 178.3,123.0 L 178.0,123.6" style="fill:none;stroke:#000000;stroke-width:2.0px;stroke-linecap:butt;stroke-linejoin:miter;stroke-opacity:1;"/>
<path d="M 185.1,77.2 L 186.5,76.2 L 188.0,76.9" style="fill:none;stroke:#000000;stroke-width:2.0px;stroke-linecap:butt;stroke-linejoin:miter;stroke-opacity:1;"/>
<path d="M 245.9,103.9 L 247.4,104.6 L 248.0,104.2" style="fill:none;stroke:#000000;stroke-width:2.0px;stroke-linecap:butt;stroke-linejoin:miter;stroke-opacity:1;"/>
<path d="M 140.7,69.4 L 139.7,68.0 L 138.0,68.2" style="fill:none;stroke:#000000;stroke-width:2.0px;stroke-linecap:butt;stroke-linejoin:miter;stroke-opacity:1;"/>
<path d="M 109.1,102.7 L 109.2,104.4 L 107.8,105.4" style="fill:none;stroke:#000000;stroke-width:2.0px;stroke-linecap:butt;stroke-linejoin:miter;stroke-opacity:1;"/>
<path d="M 63.4,97.6 L 62.4,96.2 L 61.7,96.2" style="fill:none;stroke:#000000;stroke-width:2.0px;stroke-linecap:butt;stroke-linejoin:miter;stroke-opacity:1;"/>
<path d="M 100.0,149.8 L 101.0,151.2 L 100.7,151.8" style="fill:none;stroke:#000000;stroke-width:2.0px;stroke-linecap:butt;stroke-linejoin:miter;stroke-opacity:1;"/>
<path d="M 103.5,39.2 L 103.3,37.5 L 103.9,37.1" style="fill:none;stroke:#000000;stroke-width:2.0px;stroke-linecap:butt;stroke-linejoin:miter;stroke-opacity:1;"/>
<path class="atom-3" d="M 150.3 148.8 L 151.6 148.8 L 151.6 152.8 L 156.5 152.8 L 156.5 148.8 L 157.8 148.8 L 157.8 158.3 L 156.5 158.3 L 156.5 153.9 L 151.6 153.9 L 151.6 158.3 L 150.3 158.3 L 150.3 148.8 " fill="#FF0000"/>
<path class="atom-3" d="M 159.7 153.5 Q 159.7 151.2, 160.9 149.9 Q 162.0 148.7, 164.1 148.7 Q 166.2 148.7, 167.3 149.9 Q 168.5 151.2, 168.5 153.5 Q 168.5 155.8, 167.3 157.1 Q 166.2 158.4, 164.1 158.4 Q 162.0 158.4, 160.9 157.1 Q 159.7 155.8, 159.7 153.5 M 164.1 157.3 Q 165.6 157.3, 166.3 156.4 Q 167.1 155.4, 167.1 153.5 Q 167.1 151.6, 166.3 150.7 Q 165.6 149.7, 164.1 149.7 Q 162.6 149.7, 161.9 150.7 Q 161.1 151.6, 161.1 153.5 Q 161.1 155.4, 161.9 156.4 Q 162.6 157.3, 164.1 157.3 " fill="#FF0000"/>
<path class="atom-9" d="M 246.0 138.1 Q 246.0 135.8, 247.1 134.5 Q 248.2 133.2, 250.3 133.2 Q 252.5 133.2, 253.6 134.5 Q 254.7 135.8, 254.7 138.1 Q 254.7 140.4, 253.6 141.7 Q 252.4 143.0, 250.3 143.0 Q 248.3 143.0, 247.1 141.7 Q 246.0 140.4, 246.0 138.1 M 250.3 141.9 Q 251.8 141.9, 252.6 141.0 Q 253.4 140.0, 253.4 138.1 Q 253.4 136.2, 252.6 135.3 Q 251.8 134.3, 250.3 134.3 Q 248.9 134.3, 248.1 135.3 Q 247.3 136.2, 247.3 138.1 Q 247.3 140.0, 248.1 141.0 Q 248.9 141.9, 250.3 141.9 " fill="#FF0000"/>
<path class="atom-10" d="M 270.5 85.3 Q 270.5 83.1, 271.7 81.8 Q 272.8 80.5, 274.9 80.5 Q 277.0 80.5, 278.1 81.8 Q 279.3 83.1, 279.3 85.3 Q 279.3 87.6, 278.1 89.0 Q 277.0 90.3, 274.9 90.3 Q 272.8 90.3, 271.7 89.0 Q 270.5 87.7, 270.5 85.3 M 274.9 89.2 Q 276.4 89.2, 277.1 88.2 Q 277.9 87.2, 277.9 85.3 Q 277.9 83.5, 277.1 82.5 Q 276.4 81.6, 274.9 81.6 Q 273.5 81.6, 272.7 82.5 Q 271.9 83.5, 271.9 85.3 Q 271.9 87.3, 272.7 88.2 Q 273.5 89.2, 274.9 89.2 " fill="#FF0000"/>
<path class="atom-10" d="M 280.8 80.6 L 282.0 80.6 L 282.0 84.7 L 286.9 84.7 L 286.9 80.6 L 288.2 80.6 L 288.2 90.1 L 286.9 90.1 L 286.9 85.7 L 282.0 85.7 L 282.0 90.1 L 280.8 90.1 L 280.8 80.6 " fill="#FF0000"/>
<path class="atom-18" d="M 15.2 94.4 L 16.5 94.4 L 16.5 98.5 L 21.4 98.5 L 21.4 94.4 L 22.6 94.4 L 22.6 103.9 L 21.4 103.9 L 21.4 99.5 L 16.5 99.5 L 16.5 103.9 L 15.2 103.9 L 15.2 94.4 " fill="#FF0000"/>
<path class="atom-18" d="M 24.6 99.2 Q 24.6 96.9, 25.7 95.6 Q 26.9 94.3, 29.0 94.3 Q 31.1 94.3, 32.2 95.6 Q 33.3 96.9, 33.3 99.2 Q 33.3 101.5, 32.2 102.8 Q 31.0 104.1, 29.0 104.1 Q 26.9 104.1, 25.7 102.8 Q 24.6 101.5, 24.6 99.2 M 29.0 103.0 Q 30.4 103.0, 31.2 102.0 Q 32.0 101.1, 32.0 99.2 Q 32.0 97.3, 31.2 96.3 Q 30.4 95.4, 29.0 95.4 Q 27.5 95.4, 26.7 96.3 Q 25.9 97.3, 25.9 99.2 Q 25.9 101.1, 26.7 102.0 Q 27.5 103.0, 29.0 103.0 " fill="#FF0000"/>
<path class="atom-20" d="M 130.1 148.3 Q 130.1 146.0, 131.2 144.7 Q 132.3 143.4, 134.4 143.4 Q 136.5 143.4, 137.7 144.7 Q 138.8 146.0, 138.8 148.3 Q 138.8 150.6, 137.7 151.9 Q 136.5 153.2, 134.4 153.2 Q 132.3 153.2, 131.2 151.9 Q 130.1 150.6, 130.1 148.3 M 134.4 152.1 Q 135.9 152.1, 136.7 151.2 Q 137.5 150.2, 137.5 148.3 Q 137.5 146.4, 136.7 145.5 Q 135.9 144.5, 134.4 144.5 Q 133.0 144.5, 132.2 145.5 Q 131.4 146.4, 131.4 148.3 Q 131.4 150.2, 132.2 151.2 Q 133.0 152.1, 134.4 152.1 " fill="#FF0000"/>
<path class="atom-21" d="M 73.0 176.9 L 74.3 176.9 L 74.3 181.0 L 79.2 181.0 L 79.2 176.9 L 80.5 176.9 L 80.5 186.5 L 79.2 186.5 L 79.2 182.1 L 74.3 182.1 L 74.3 186.5 L 73.0 186.5 L 73.0 176.9 " fill="#FF0000"/>
<path class="atom-21" d="M 82.4 181.7 Q 82.4 179.4, 83.6 178.1 Q 84.7 176.8, 86.8 176.8 Q 88.9 176.8, 90.0 178.1 Q 91.2 179.4, 91.2 181.7 Q 91.2 184.0, 90.0 185.3 Q 88.9 186.6, 86.8 186.6 Q 84.7 186.6, 83.6 185.3 Q 82.4 184.0, 82.4 181.7 M 86.8 185.5 Q 88.3 185.5, 89.0 184.6 Q 89.8 183.6, 89.8 181.7 Q 89.8 179.8, 89.0 178.9 Q 88.3 177.9, 86.8 177.9 Q 85.3 177.9, 84.6 178.8 Q 83.8 179.8, 83.8 181.7 Q 83.8 183.6, 84.6 184.6 Q 85.3 185.5, 86.8 185.5 " fill="#FF0000"/>
<path class="atom-23" d="M 68.5 23.3 Q 68.5 21.1, 69.6 19.8 Q 70.8 18.5, 72.9 18.5 Q 75.0 18.5, 76.1 19.8 Q 77.2 21.1, 77.2 23.3 Q 77.2 25.6, 76.1 27.0 Q 75.0 28.3, 72.9 28.3 Q 70.8 28.3, 69.6 27.0 Q 68.5 25.7, 68.5 23.3 M 72.9 27.2 Q 74.3 27.2, 75.1 26.2 Q 75.9 25.2, 75.9 23.3 Q 75.9 21.5, 75.1 20.5 Q 74.3 19.6, 72.9 19.6 Q 71.4 19.6, 70.6 20.5 Q 69.8 21.5, 69.8 23.3 Q 69.8 25.3, 70.6 26.2 Q 71.4 27.2, 72.9 27.2 " fill="#FF0000"/>
<path class="atom-24" d="M 126.5 18.2 Q 126.5 16.0, 127.6 14.7 Q 128.7 13.4, 130.8 13.4 Q 132.9 13.4, 134.1 14.7 Q 135.2 16.0, 135.2 18.2 Q 135.2 20.5, 134.0 21.9 Q 132.9 23.2, 130.8 23.2 Q 128.7 23.2, 127.6 21.9 Q 126.5 20.6, 126.5 18.2 M 130.8 22.1 Q 132.3 22.1, 133.1 21.1 Q 133.8 20.1, 133.8 18.2 Q 133.8 16.4, 133.1 15.4 Q 132.3 14.5, 130.8 14.5 Q 129.4 14.5, 128.6 15.4 Q 127.8 16.4, 127.8 18.2 Q 127.8 20.2, 128.6 21.1 Q 129.4 22.1, 130.8 22.1 " fill="#FF0000"/>
<path class="atom-24" d="M 136.7 13.5 L 138.0 13.5 L 138.0 17.6 L 142.8 17.6 L 142.8 13.5 L 144.1 13.5 L 144.1 23.0 L 142.8 23.0 L 142.8 18.6 L 138.0 18.6 L 138.0 23.0 L 136.7 23.0 L 136.7 13.5 " fill="#FF0000"/>
</g>
    <g transform="translate(304.0, 0) scale(1 1) "><line x1="5" y1="100" x2="35" y2="100" style="stroke:rgb(0,0,0);stroke-width:2"/>
  <line x1="34" y1="100" x2="29" y2="95" style="stroke:rgb(0,0,0);stroke-width:2"/>
  <line x1="34" y1="100" x2="29" y2="105" style="stroke:rgb(0,0,0);stroke-width:2"/>
</g>
    <g transform="translate(344.0, 0) scale(1 1) "><!-- END OF HEADER -->
<rect style="opacity:1.0;fill:#FFFFFF;stroke:none" width="304.0" height="200.0" x="0.0" y="0.0"> </rect>
<path class="bond-0 atom-0 atom-1" d="M 213.4,149.2 L 203.6,116.5" style="fill:none;fill-rule:evenodd;stroke:#000000;stroke-width:2.0px;stroke-linecap:butt;stroke-linejoin:miter;stroke-opacity:1"/>
<path class="bond-1 atom-1 atom-2" d="M 203.6,116.5 L 195.2,116.6" style="fill:none;fill-rule:evenodd;stroke:#000000;stroke-width:2.0px;stroke-linecap:butt;stroke-linejoin:miter;stroke-opacity:1"/>
<path class="bond-1 atom-1 atom-2" d="M 195.2,116.6 L 186.8,116.7" style="fill:none;fill-rule:evenodd;stroke:#FF0000;stroke-width:2.0px;stroke-linecap:butt;stroke-linejoin:miter;stroke-opacity:1"/>
<path class="bond-2 atom-1 atom-3" d="M 203.6,116.5 L 227.1,91.6" style="fill:none;fill-rule:evenodd;stroke:#000000;stroke-width:2.0px;stroke-linecap:butt;stroke-linejoin:miter;stroke-opacity:1"/>
<path class="bond-3 atom-3 atom-4" d="M 227.1,91.6 L 251.9,115.1" style="fill:none;fill-rule:evenodd;stroke:#000000;stroke-width:2.0px;stroke-linecap:butt;stroke-linejoin:miter;stroke-opacity:1"/>
<path class="bond-4 atom-3 atom-5" d="M 227.1,91.6 L 202.2,68.2" style="fill:none;fill-rule:evenodd;stroke:#000000;stroke-width:2.0px;stroke-linecap:butt;stroke-linejoin:miter;stroke-opacity:1"/>
<path class="bond-5 atom-5 atom-6" d="M 202.2,68.2 L 169.5,78.0" style="fill:none;fill-rule:evenodd;stroke:#000000;stroke-width:2.0px;stroke-linecap:butt;stroke-linejoin:miter;stroke-opacity:1"/>
<path class="bond-6 atom-6 atom-7" d="M 169.5,78.0 L 161.6,111.2" style="fill:none;fill-rule:evenodd;stroke:#000000;stroke-width:2.0px;stroke-linecap:butt;stroke-linejoin:miter;stroke-opacity:1"/>
<path class="bond-7 atom-7 atom-8" d="M 161.6,111.2 L 128.9,121.0" style="fill:none;fill-rule:evenodd;stroke:#000000;stroke-width:2.0px;stroke-linecap:butt;stroke-linejoin:miter;stroke-opacity:1"/>
<path class="bond-8 atom-8 atom-9" d="M 128.9,121.0 L 96.2,130.8" style="fill:none;fill-rule:evenodd;stroke:#000000;stroke-width:2.0px;stroke-linecap:butt;stroke-linejoin:miter;stroke-opacity:1"/>
<path class="bond-9 atom-8 atom-10" d="M 128.9,121.0 L 138.7,153.7" style="fill:none;fill-rule:evenodd;stroke:#000000;stroke-width:2.0px;stroke-linecap:butt;stroke-linejoin:miter;stroke-opacity:1"/>
<path class="bond-10 atom-10 atom-11" d="M 138.7,153.7 L 129.7,163.2" style="fill:none;fill-rule:evenodd;stroke:#000000;stroke-width:2.0px;stroke-linecap:butt;stroke-linejoin:miter;stroke-opacity:1"/>
<path class="bond-10 atom-10 atom-11" d="M 129.7,163.2 L 120.8,172.7" style="fill:none;fill-rule:evenodd;stroke:#FF0000;stroke-width:2.0px;stroke-linecap:butt;stroke-linejoin:miter;stroke-opacity:1"/>
<path class="bond-11 atom-8 atom-12" d="M 128.9,121.0 L 119.1,88.3" style="fill:none;fill-rule:evenodd;stroke:#000000;stroke-width:2.0px;stroke-linecap:butt;stroke-linejoin:miter;stroke-opacity:1"/>
<path class="bond-12 atom-12 atom-13" d="M 119.1,88.3 L 85.9,80.4" style="fill:none;fill-rule:evenodd;stroke:#000000;stroke-width:2.0px;stroke-linecap:butt;stroke-linejoin:miter;stroke-opacity:1"/>
<path class="bond-13 atom-13 atom-14" d="M 85.9,80.4 L 78.0,113.6" style="fill:none;fill-rule:evenodd;stroke:#000000;stroke-width:2.0px;stroke-linecap:butt;stroke-linejoin:miter;stroke-opacity:1"/>
<path class="bond-14 atom-13 atom-15" d="M 85.9,80.4 L 93.8,47.1" style="fill:none;fill-rule:evenodd;stroke:#000000;stroke-width:2.0px;stroke-linecap:butt;stroke-linejoin:miter;stroke-opacity:1"/>
<path class="bond-15 atom-13 atom-16" d="M 85.9,80.4 L 52.6,72.5" style="fill:none;fill-rule:evenodd;stroke:#000000;stroke-width:2.0px;stroke-linecap:butt;stroke-linejoin:miter;stroke-opacity:1"/>
<path class="bond-16 atom-16 atom-17" d="M 55.5,73.2 L 51.3,59.2" style="fill:none;fill-rule:evenodd;stroke:#000000;stroke-width:2.0px;stroke-linecap:butt;stroke-linejoin:miter;stroke-opacity:1"/>
<path class="bond-16 atom-16 atom-17" d="M 51.3,59.2 L 47.1,45.2" style="fill:none;fill-rule:evenodd;stroke:#FF0000;stroke-width:2.0px;stroke-linecap:butt;stroke-linejoin:miter;stroke-opacity:1"/>
<path class="bond-16 atom-16 atom-17" d="M 50.6,74.6 L 46.5,60.6" style="fill:none;fill-rule:evenodd;stroke:#000000;stroke-width:2.0px;stroke-linecap:butt;stroke-linejoin:miter;stroke-opacity:1"/>
<path class="bond-16 atom-16 atom-17" d="M 46.5,60.6 L 42.3,46.6" style="fill:none;fill-rule:evenodd;stroke:#FF0000;stroke-width:2.0px;stroke-linecap:butt;stroke-linejoin:miter;stroke-opacity:1"/>
<path class="bond-17 atom-16 atom-18" d="M 52.6,72.5 L 43.7,82.0" style="fill:none;fill-rule:evenodd;stroke:#000000;stroke-width:2.0px;stroke-linecap:butt;stroke-linejoin:miter;stroke-opacity:1"/>
<path class="bond-17 atom-16 atom-18" d="M 43.7,82.0 L 34.7,91.4" style="fill:none;fill-rule:evenodd;stroke:#FF0000;stroke-width:2.0px;stroke-linecap:butt;stroke-linejoin:miter;stroke-opacity:1"/>
<path class="bond-18 atom-6 atom-19" d="M 169.5,78.0 L 144.7,54.5" style="fill:none;fill-rule:evenodd;stroke:#000000;stroke-width:2.0px;stroke-linecap:butt;stroke-linejoin:miter;stroke-opacity:1"/>
<path class="bond-19 atom-19 atom-20" d="M 146.8,56.5 L 150.2,42.3" style="fill:none;fill-rule:evenodd;stroke:#000000;stroke-width:2.0px;stroke-linecap:butt;stroke-linejoin:miter;stroke-opacity:1"/>
<path class="bond-19 atom-19 atom-20" d="M 150.2,42.3 L 153.6,28.0" style="fill:none;fill-rule:evenodd;stroke:#FF0000;stroke-width:2.0px;stroke-linecap:butt;stroke-linejoin:miter;stroke-opacity:1"/>
<path class="bond-19 atom-19 atom-20" d="M 141.9,55.4 L 145.3,41.1" style="fill:none;fill-rule:evenodd;stroke:#000000;stroke-width:2.0px;stroke-linecap:butt;stroke-linejoin:miter;stroke-opacity:1"/>
<path class="bond-19 atom-19 atom-20" d="M 145.3,41.1 L 148.6,26.9" style="fill:none;fill-rule:evenodd;stroke:#FF0000;stroke-width:2.0px;stroke-linecap:butt;stroke-linejoin:miter;stroke-opacity:1"/>
<path class="bond-20 atom-19 atom-21" d="M 144.7,54.5 L 131.1,58.6" style="fill:none;fill-rule:evenodd;stroke:#000000;stroke-width:2.0px;stroke-linecap:butt;stroke-linejoin:miter;stroke-opacity:1"/>
<path class="bond-20 atom-19 atom-21" d="M 131.1,58.6 L 117.5,62.7" style="fill:none;fill-rule:evenodd;stroke:#FF0000;stroke-width:2.0px;stroke-linecap:butt;stroke-linejoin:miter;stroke-opacity:1"/>
<path class="bond-21 atom-3 atom-22" d="M 227.1,91.6 L 250.5,66.8" style="fill:none;fill-rule:evenodd;stroke:#000000;stroke-width:2.0px;stroke-linecap:butt;stroke-linejoin:miter;stroke-opacity:1"/>
<path class="bond-22 atom-22 atom-23" d="M 248.5,68.9 L 263.1,72.4" style="fill:none;fill-rule:evenodd;stroke:#000000;stroke-width:2.0px;stroke-linecap:butt;stroke-linejoin:miter;stroke-opacity:1"/>
<path class="bond-22 atom-22 atom-23" d="M 263.1,72.4 L 277.6,75.8" style="fill:none;fill-rule:evenodd;stroke:#FF0000;stroke-width:2.0px;stroke-linecap:butt;stroke-linejoin:miter;stroke-opacity:1"/>
<path class="bond-22 atom-22 atom-23" d="M 249.7,64.0 L 264.2,67.5" style="fill:none;fill-rule:evenodd;stroke:#000000;stroke-width:2.0px;stroke-linecap:butt;stroke-linejoin:miter;stroke-opacity:1"/>
<path class="bond-22 atom-22 atom-23" d="M 264.2,67.5 L 278.8,70.9" style="fill:none;fill-rule:evenodd;stroke:#FF0000;stroke-width:2.0px;stroke-linecap:butt;stroke-linejoin:miter;stroke-opacity:1"/>
<path class="bond-23 atom-22 atom-24" d="M 250.5,66.8 L 246.6,53.5" style="fill:none;fill-rule:evenodd;stroke:#000000;stroke-width:2.0px;stroke-linecap:butt;stroke-linejoin:miter;stroke-opacity:1"/>
<path class="bond-23 atom-22 atom-24" d="M 246.6,53.5 L 242.6,40.2" style="fill:none;fill-rule:evenodd;stroke:#FF0000;stroke-width:2.0px;stroke-linecap:butt;stroke-linejoin:miter;stroke-opacity:1"/>
<path d="M 203.5,69.4 L 202.2,68.2 L 200.6,68.7" style="fill:none;stroke:#000000;stroke-width:2.0px;stroke-linecap:butt;stroke-linejoin:miter;stroke-opacity:1;"/>
<path d="M 162.0,109.5 L 161.6,111.2 L 160.0,111.7" style="fill:none;stroke:#000000;stroke-width:2.0px;stroke-linecap:butt;stroke-linejoin:miter;stroke-opacity:1;"/>
<path d="M 138.2,152.1 L 138.7,153.7 L 138.2,154.2" style="fill:none;stroke:#000000;stroke-width:2.0px;stroke-linecap:butt;stroke-linejoin:miter;stroke-opacity:1;"/>
<path d="M 119.6,89.9 L 119.1,88.3 L 117.5,87.9" style="fill:none;stroke:#000000;stroke-width:2.0px;stroke-linecap:butt;stroke-linejoin:miter;stroke-opacity:1;"/>
<path d="M 54.3,72.9 L 52.6,72.5 L 52.2,73.0" style="fill:none;stroke:#000000;stroke-width:2.0px;stroke-linecap:butt;stroke-linejoin:miter;stroke-opacity:1;"/>
<path d="M 145.9,55.7 L 144.7,54.5 L 144.0,54.7" style="fill:none;stroke:#000000;stroke-width:2.0px;stroke-linecap:butt;stroke-linejoin:miter;stroke-opacity:1;"/>
<path d="M 249.4,68.0 L 250.5,66.8 L 250.3,66.1" style="fill:none;stroke:#000000;stroke-width:2.0px;stroke-linecap:butt;stroke-linejoin:miter;stroke-opacity:1;"/>
<path class="atom-2" d="M 167.2 112.0 L 168.5 112.0 L 168.5 116.1 L 173.5 116.1 L 173.5 112.0 L 174.8 112.0 L 174.8 121.6 L 173.5 121.6 L 173.5 117.2 L 168.5 117.2 L 168.5 121.6 L 167.2 121.6 L 167.2 112.0 " fill="#FF0000"/>
<path class="atom-2" d="M 176.8 116.8 Q 176.8 114.4, 177.9 113.1 Q 179.1 111.8, 181.2 111.8 Q 183.4 111.8, 184.5 113.1 Q 185.7 114.4, 185.7 116.8 Q 185.7 119.1, 184.5 120.4 Q 183.3 121.8, 181.2 121.8 Q 179.1 121.8, 177.9 120.4 Q 176.8 119.1, 176.8 116.8 M 181.2 120.7 Q 182.7 120.7, 183.5 119.7 Q 184.3 118.7, 184.3 116.8 Q 184.3 114.9, 183.5 113.9 Q 182.7 112.9, 181.2 112.9 Q 179.7 112.9, 178.9 113.9 Q 178.1 114.8, 178.1 116.8 Q 178.1 118.7, 178.9 119.7 Q 179.7 120.7, 181.2 120.7 " fill="#FF0000"/>
<path class="atom-11" d="M 101.2 173.8 L 102.5 173.8 L 102.5 177.9 L 107.5 177.9 L 107.5 173.8 L 108.8 173.8 L 108.8 183.4 L 107.5 183.4 L 107.5 179.0 L 102.5 179.0 L 102.5 183.4 L 101.2 183.4 L 101.2 173.8 " fill="#FF0000"/>
<path class="atom-11" d="M 110.8 178.6 Q 110.8 176.3, 111.9 175.0 Q 113.1 173.7, 115.2 173.7 Q 117.4 173.7, 118.5 175.0 Q 119.7 176.3, 119.7 178.6 Q 119.7 180.9, 118.5 182.3 Q 117.3 183.6, 115.2 183.6 Q 113.1 183.6, 111.9 182.3 Q 110.8 180.9, 110.8 178.6 M 115.2 182.5 Q 116.7 182.5, 117.5 181.5 Q 118.3 180.5, 118.3 178.6 Q 118.3 176.7, 117.5 175.7 Q 116.7 174.8, 115.2 174.8 Q 113.8 174.8, 112.9 175.7 Q 112.2 176.7, 112.2 178.6 Q 112.2 180.5, 112.9 181.5 Q 113.8 182.5, 115.2 182.5 " fill="#FF0000"/>
<path class="atom-17" d="M 38.4 39.8 Q 38.4 37.5, 39.6 36.2 Q 40.7 34.9, 42.9 34.9 Q 45.0 34.9, 46.2 36.2 Q 47.3 37.5, 47.3 39.8 Q 47.3 42.1, 46.1 43.5 Q 45.0 44.8, 42.9 44.8 Q 40.7 44.8, 39.6 43.5 Q 38.4 42.2, 38.4 39.8 M 42.9 43.7 Q 44.3 43.7, 45.1 42.7 Q 45.9 41.7, 45.9 39.8 Q 45.9 37.9, 45.1 36.9 Q 44.3 36.0, 42.9 36.0 Q 41.4 36.0, 40.6 36.9 Q 39.8 37.9, 39.8 39.8 Q 39.8 41.7, 40.6 42.7 Q 41.4 43.7, 42.9 43.7 " fill="#FF0000"/>
<path class="atom-18" d="M 15.2 92.5 L 16.5 92.5 L 16.5 96.7 L 21.5 96.7 L 21.5 92.5 L 22.8 92.5 L 22.8 102.2 L 21.5 102.2 L 21.5 97.7 L 16.5 97.7 L 16.5 102.2 L 15.2 102.2 L 15.2 92.5 " fill="#FF0000"/>
<path class="atom-18" d="M 24.8 97.4 Q 24.8 95.0, 25.9 93.7 Q 27.0 92.4, 29.2 92.4 Q 31.3 92.4, 32.5 93.7 Q 33.6 95.0, 33.6 97.4 Q 33.6 99.7, 32.5 101.0 Q 31.3 102.4, 29.2 102.4 Q 27.1 102.4, 25.9 101.0 Q 24.8 99.7, 24.8 97.4 M 29.2 101.3 Q 30.7 101.3, 31.5 100.3 Q 32.3 99.3, 32.3 97.4 Q 32.3 95.5, 31.5 94.5 Q 30.7 93.5, 29.2 93.5 Q 27.7 93.5, 26.9 94.5 Q 26.1 95.4, 26.1 97.4 Q 26.1 99.3, 26.9 100.3 Q 27.7 101.3, 29.2 101.3 " fill="#FF0000"/>
<path class="atom-20" d="M 148.1 21.3 Q 148.1 19.0, 149.3 17.7 Q 150.4 16.4, 152.6 16.4 Q 154.7 16.4, 155.9 17.7 Q 157.0 19.0, 157.0 21.3 Q 157.0 23.7, 155.8 25.0 Q 154.7 26.3, 152.6 26.3 Q 150.4 26.3, 149.3 25.0 Q 148.1 23.7, 148.1 21.3 M 152.6 25.2 Q 154.0 25.2, 154.8 24.3 Q 155.6 23.3, 155.6 21.3 Q 155.6 19.4, 154.8 18.5 Q 154.0 17.5, 152.6 17.5 Q 151.1 17.5, 150.3 18.5 Q 149.5 19.4, 149.5 21.3 Q 149.5 23.3, 150.3 24.3 Q 151.1 25.2, 152.6 25.2 " fill="#FF0000"/>
<path class="atom-21" d="M 98.0 59.5 L 99.3 59.5 L 99.3 63.6 L 104.2 63.6 L 104.2 59.5 L 105.5 59.5 L 105.5 69.2 L 104.2 69.2 L 104.2 64.7 L 99.3 64.7 L 99.3 69.2 L 98.0 69.2 L 98.0 59.5 " fill="#FF0000"/>
<path class="atom-21" d="M 107.5 64.3 Q 107.5 62.0, 108.7 60.7 Q 109.8 59.4, 111.9 59.4 Q 114.1 59.4, 115.2 60.7 Q 116.4 62.0, 116.4 64.3 Q 116.4 66.7, 115.2 68.0 Q 114.1 69.4, 111.9 69.4 Q 109.8 69.4, 108.7 68.0 Q 107.5 66.7, 107.5 64.3 M 111.9 68.3 Q 113.4 68.3, 114.2 67.3 Q 115.0 66.3, 115.0 64.3 Q 115.0 62.4, 114.2 61.5 Q 113.4 60.5, 111.9 60.5 Q 110.5 60.5, 109.7 61.5 Q 108.9 62.4, 108.9 64.3 Q 108.9 66.3, 109.7 67.3 Q 110.5 68.3, 111.9 68.3 " fill="#FF0000"/>
<path class="atom-23" d="M 279.3 74.7 Q 279.3 72.4, 280.5 71.1 Q 281.6 69.8, 283.8 69.8 Q 285.9 69.8, 287.1 71.1 Q 288.2 72.4, 288.2 74.7 Q 288.2 77.1, 287.0 78.4 Q 285.9 79.7, 283.8 79.7 Q 281.6 79.7, 280.5 78.4 Q 279.3 77.1, 279.3 74.7 M 283.8 78.6 Q 285.2 78.6, 286.0 77.7 Q 286.8 76.7, 286.8 74.7 Q 286.8 72.8, 286.0 71.9 Q 285.2 70.9, 283.8 70.9 Q 282.3 70.9, 281.5 71.9 Q 280.7 72.8, 280.7 74.7 Q 280.7 76.7, 281.5 77.7 Q 282.3 78.6, 283.8 78.6 " fill="#FF0000"/>
<path class="atom-24" d="M 236.3 34.1 Q 236.3 31.8, 237.4 30.5 Q 238.6 29.2, 240.7 29.2 Q 242.9 29.2, 244.0 30.5 Q 245.2 31.8, 245.2 34.1 Q 245.2 36.5, 244.0 37.8 Q 242.9 39.1, 240.7 39.1 Q 238.6 39.1, 237.4 37.8 Q 236.3 36.5, 236.3 34.1 M 240.7 38.0 Q 242.2 38.0, 243.0 37.0 Q 243.8 36.0, 243.8 34.1 Q 243.8 32.2, 243.0 31.3 Q 242.2 30.3, 240.7 30.3 Q 239.3 30.3, 238.5 31.2 Q 237.7 32.2, 237.7 34.1 Q 237.7 36.1, 238.5 37.0 Q 239.3 38.0, 240.7 38.0 " fill="#FF0000"/>
<path class="atom-24" d="M 246.7 29.3 L 248.0 29.3 L 248.0 33.4 L 252.9 33.4 L 252.9 29.3 L 254.3 29.3 L 254.3 39.0 L 252.9 39.0 L 252.9 34.5 L 248.0 34.5 L 248.0 39.0 L 246.7 39.0 L 246.7 29.3 " fill="#FF0000"/>
</g>
  </g>
</svg>
