<?xml version='1.0' encoding='ASCII' standalone='yes'?>
<svg xmlns="http://www.w3.org/2000/svg" xmlns:xlink="http://www.w3.org/1999/xlink" version="1.1" width="938.0px" viewBox="0 0 938.0 200.0" height="200.0px">
  <g>
    <g transform="translate(0, 0) scale(1 1) "><!-- END OF HEADER -->
<rect style="opacity:1.0;fill:#FFFFFF;stroke:none" width="304.0" height="200.0" x="0.0" y="0.0"> </rect>
<path class="bond-0 atom-0 atom-1" d="M 252.4,89.4 L 245.8,115.1" style="fill:none;fill-rule:evenodd;stroke:#000000;stroke-width:2.0px;stroke-linecap:butt;stroke-linejoin:miter;stroke-opacity:1"/>
<path class="bond-1 atom-1 atom-2" d="M 245.8,115.1 L 220.3,122.2" style="fill:none;fill-rule:evenodd;stroke:#000000;stroke-width:2.0px;stroke-linecap:butt;stroke-linejoin:miter;stroke-opacity:1"/>
<path class="bond-2 atom-2 atom-3" d="M 220.3,122.2 L 194.8,129.4" style="fill:none;fill-rule:evenodd;stroke:#000000;stroke-width:2.0px;stroke-linecap:butt;stroke-linejoin:miter;stroke-opacity:1"/>
<path class="bond-3 atom-2 atom-4" d="M 220.3,122.2 L 213.2,96.7" style="fill:none;fill-rule:evenodd;stroke:#000000;stroke-width:2.0px;stroke-linecap:butt;stroke-linejoin:miter;stroke-opacity:1"/>
<path class="bond-4 atom-4 atom-5" d="M 213.2,96.7 L 187.5,90.1" style="fill:none;fill-rule:evenodd;stroke:#000000;stroke-width:2.0px;stroke-linecap:butt;stroke-linejoin:miter;stroke-opacity:1"/>
<path class="bond-5 atom-5 atom-6" d="M 187.5,90.1 L 180.4,64.6" style="fill:none;fill-rule:evenodd;stroke:#000000;stroke-width:2.0px;stroke-linecap:butt;stroke-linejoin:miter;stroke-opacity:1"/>
<path class="bond-6 atom-6 atom-7" d="M 180.4,64.6 L 154.7,58.0" style="fill:none;fill-rule:evenodd;stroke:#000000;stroke-width:2.0px;stroke-linecap:butt;stroke-linejoin:miter;stroke-opacity:1"/>
<path class="bond-7 atom-7 atom-8" d="M 154.7,58.0 L 129.0,51.4" style="fill:none;fill-rule:evenodd;stroke:#000000;stroke-width:2.0px;stroke-linecap:butt;stroke-linejoin:miter;stroke-opacity:1"/>
<path class="bond-8 atom-7 atom-9" d="M 154.7,58.0 L 148.1,83.7" style="fill:none;fill-rule:evenodd;stroke:#000000;stroke-width:2.0px;stroke-linecap:butt;stroke-linejoin:miter;stroke-opacity:1"/>
<path class="bond-9 atom-9 atom-10" d="M 148.1,83.7 L 122.6,90.8" style="fill:none;fill-rule:evenodd;stroke:#000000;stroke-width:2.0px;stroke-linecap:butt;stroke-linejoin:miter;stroke-opacity:1"/>
<path class="bond-10 atom-10 atom-11" d="M 122.6,90.8 L 116.0,116.5" style="fill:none;fill-rule:evenodd;stroke:#000000;stroke-width:2.0px;stroke-linecap:butt;stroke-linejoin:miter;stroke-opacity:1"/>
<path class="bond-11 atom-11 atom-12" d="M 116.0,116.5 L 90.5,123.6" style="fill:none;fill-rule:evenodd;stroke:#000000;stroke-width:2.0px;stroke-linecap:butt;stroke-linejoin:miter;stroke-opacity:1"/>
<path class="bond-12 atom-12 atom-13" d="M 90.5,123.6 L 65.0,130.8" style="fill:none;fill-rule:evenodd;stroke:#000000;stroke-width:2.0px;stroke-linecap:butt;stroke-linejoin:miter;stroke-opacity:1"/>
<path class="bond-13 atom-12 atom-14" d="M 90.5,123.6 L 83.4,98.1" style="fill:none;fill-rule:evenodd;stroke:#000000;stroke-width:2.0px;stroke-linecap:butt;stroke-linejoin:miter;stroke-opacity:1"/>
<path class="bond-14 atom-14 atom-15" d="M 83.4,98.1 L 72.7,95.4" style="fill:none;fill-rule:evenodd;stroke:#000000;stroke-width:2.0px;stroke-linecap:butt;stroke-linejoin:miter;stroke-opacity:1"/>
<path class="bond-14 atom-14 atom-15" d="M 72.7,95.4 L 62.0,92.6" style="fill:none;fill-rule:evenodd;stroke:#FF0000;stroke-width:2.0px;stroke-linecap:butt;stroke-linejoin:miter;stroke-opacity:1"/>
<path class="bond-15 atom-12 atom-16" d="M 90.5,123.6 L 97.6,149.1" style="fill:none;fill-rule:evenodd;stroke:#000000;stroke-width:2.0px;stroke-linecap:butt;stroke-linejoin:miter;stroke-opacity:1"/>
<path class="bond-16 atom-16 atom-17" d="M 96.0,150.8 L 107.3,153.7" style="fill:none;fill-rule:evenodd;stroke:#000000;stroke-width:2.0px;stroke-linecap:butt;stroke-linejoin:miter;stroke-opacity:1"/>
<path class="bond-16 atom-16 atom-17" d="M 107.3,153.7 L 118.5,156.5" style="fill:none;fill-rule:evenodd;stroke:#FF0000;stroke-width:2.0px;stroke-linecap:butt;stroke-linejoin:miter;stroke-opacity:1"/>
<path class="bond-16 atom-16 atom-17" d="M 97.0,146.9 L 108.2,149.8" style="fill:none;fill-rule:evenodd;stroke:#000000;stroke-width:2.0px;stroke-linecap:butt;stroke-linejoin:miter;stroke-opacity:1"/>
<path class="bond-16 atom-16 atom-17" d="M 108.2,149.8 L 119.5,152.7" style="fill:none;fill-rule:evenodd;stroke:#FF0000;stroke-width:2.0px;stroke-linecap:butt;stroke-linejoin:miter;stroke-opacity:1"/>
<path class="bond-17 atom-16 atom-18" d="M 97.6,149.1 L 90.5,156.4" style="fill:none;fill-rule:evenodd;stroke:#000000;stroke-width:2.0px;stroke-linecap:butt;stroke-linejoin:miter;stroke-opacity:1"/>
<path class="bond-17 atom-16 atom-18" d="M 90.5,156.4 L 83.4,163.7" style="fill:none;fill-rule:evenodd;stroke:#FF0000;stroke-width:2.0px;stroke-linecap:butt;stroke-linejoin:miter;stroke-opacity:1"/>
<path class="bond-18 atom-7 atom-19" d="M 154.7,58.0 L 161.3,32.3" style="fill:none;fill-rule:evenodd;stroke:#000000;stroke-width:2.0px;stroke-linecap:butt;stroke-linejoin:miter;stroke-opacity:1"/>
<path class="bond-19 atom-19 atom-20" d="M 160.7,34.6 L 171.9,31.4" style="fill:none;fill-rule:evenodd;stroke:#000000;stroke-width:2.0px;stroke-linecap:butt;stroke-linejoin:miter;stroke-opacity:1"/>
<path class="bond-19 atom-19 atom-20" d="M 171.9,31.4 L 183.0,28.3" style="fill:none;fill-rule:evenodd;stroke:#FF0000;stroke-width:2.0px;stroke-linecap:butt;stroke-linejoin:miter;stroke-opacity:1"/>
<path class="bond-19 atom-19 atom-20" d="M 159.6,30.7 L 170.8,27.6" style="fill:none;fill-rule:evenodd;stroke:#000000;stroke-width:2.0px;stroke-linecap:butt;stroke-linejoin:miter;stroke-opacity:1"/>
<path class="bond-19 atom-19 atom-20" d="M 170.8,27.6 L 182.0,24.5" style="fill:none;fill-rule:evenodd;stroke:#FF0000;stroke-width:2.0px;stroke-linecap:butt;stroke-linejoin:miter;stroke-opacity:1"/>
<path class="bond-20 atom-19 atom-21" d="M 161.3,32.3 L 154.0,25.2" style="fill:none;fill-rule:evenodd;stroke:#000000;stroke-width:2.0px;stroke-linecap:butt;stroke-linejoin:miter;stroke-opacity:1"/>
<path class="bond-20 atom-19 atom-21" d="M 154.0,25.2 L 146.7,18.0" style="fill:none;fill-rule:evenodd;stroke:#FF0000;stroke-width:2.0px;stroke-linecap:butt;stroke-linejoin:miter;stroke-opacity:1"/>
<path class="bond-21 atom-2 atom-22" d="M 220.3,122.2 L 227.5,147.7" style="fill:none;fill-rule:evenodd;stroke:#000000;stroke-width:2.0px;stroke-linecap:butt;stroke-linejoin:miter;stroke-opacity:1"/>
<path class="bond-22 atom-22 atom-23" d="M 225.9,149.4 L 237.1,152.3" style="fill:none;fill-rule:evenodd;stroke:#000000;stroke-width:2.0px;stroke-linecap:butt;stroke-linejoin:miter;stroke-opacity:1"/>
<path class="bond-22 atom-22 atom-23" d="M 237.1,152.3 L 248.3,155.1" style="fill:none;fill-rule:evenodd;stroke:#FF0000;stroke-width:2.0px;stroke-linecap:butt;stroke-linejoin:miter;stroke-opacity:1"/>
<path class="bond-22 atom-22 atom-23" d="M 226.8,145.5 L 238.1,148.4" style="fill:none;fill-rule:evenodd;stroke:#000000;stroke-width:2.0px;stroke-linecap:butt;stroke-linejoin:miter;stroke-opacity:1"/>
<path class="bond-22 atom-22 atom-23" d="M 238.1,148.4 L 249.3,151.3" style="fill:none;fill-rule:evenodd;stroke:#FF0000;stroke-width:2.0px;stroke-linecap:butt;stroke-linejoin:miter;stroke-opacity:1"/>
<path class="bond-23 atom-22 atom-24" d="M 227.5,147.7 L 220.3,155.0" style="fill:none;fill-rule:evenodd;stroke:#000000;stroke-width:2.0px;stroke-linecap:butt;stroke-linejoin:miter;stroke-opacity:1"/>
<path class="bond-23 atom-22 atom-24" d="M 220.3,155.0 L 213.2,162.3" style="fill:none;fill-rule:evenodd;stroke:#FF0000;stroke-width:2.0px;stroke-linecap:butt;stroke-linejoin:miter;stroke-opacity:1"/>
<path d="M 246.2,113.8 L 245.8,115.1 L 244.6,115.4" style="fill:none;stroke:#000000;stroke-width:2.0px;stroke-linecap:butt;stroke-linejoin:miter;stroke-opacity:1;"/>
<path d="M 213.5,98.0 L 213.2,96.7 L 211.9,96.4" style="fill:none;stroke:#000000;stroke-width:2.0px;stroke-linecap:butt;stroke-linejoin:miter;stroke-opacity:1;"/>
<path d="M 188.8,90.4 L 187.5,90.1 L 187.2,88.8" style="fill:none;stroke:#000000;stroke-width:2.0px;stroke-linecap:butt;stroke-linejoin:miter;stroke-opacity:1;"/>
<path d="M 180.7,65.9 L 180.4,64.6 L 179.1,64.3" style="fill:none;stroke:#000000;stroke-width:2.0px;stroke-linecap:butt;stroke-linejoin:miter;stroke-opacity:1;"/>
<path d="M 148.5,82.4 L 148.1,83.7 L 146.8,84.0" style="fill:none;stroke:#000000;stroke-width:2.0px;stroke-linecap:butt;stroke-linejoin:miter;stroke-opacity:1;"/>
<path d="M 123.9,90.5 L 122.6,90.8 L 122.3,92.1" style="fill:none;stroke:#000000;stroke-width:2.0px;stroke-linecap:butt;stroke-linejoin:miter;stroke-opacity:1;"/>
<path d="M 116.3,115.2 L 116.0,116.5 L 114.7,116.8" style="fill:none;stroke:#000000;stroke-width:2.0px;stroke-linecap:butt;stroke-linejoin:miter;stroke-opacity:1;"/>
<path d="M 83.7,99.4 L 83.4,98.1 L 82.8,98.0" style="fill:none;stroke:#000000;stroke-width:2.0px;stroke-linecap:butt;stroke-linejoin:miter;stroke-opacity:1;"/>
<path d="M 97.3,147.9 L 97.6,149.1 L 97.3,149.5" style="fill:none;stroke:#000000;stroke-width:2.0px;stroke-linecap:butt;stroke-linejoin:miter;stroke-opacity:1;"/>
<path d="M 161.0,33.6 L 161.3,32.3 L 160.9,32.0" style="fill:none;stroke:#000000;stroke-width:2.0px;stroke-linecap:butt;stroke-linejoin:miter;stroke-opacity:1;"/>
<path d="M 227.1,146.5 L 227.5,147.7 L 227.1,148.1" style="fill:none;stroke:#000000;stroke-width:2.0px;stroke-linecap:butt;stroke-linejoin:miter;stroke-opacity:1;"/>
<path class="atom-15" d="M 46.8 87.8 L 47.8 87.8 L 47.8 91.0 L 51.7 91.0 L 51.7 87.8 L 52.7 87.8 L 52.7 95.3 L 51.7 95.3 L 51.7 91.8 L 47.8 91.8 L 47.8 95.3 L 46.8 95.3 L 46.8 87.8 " fill="#FF0000"/>
<path class="atom-15" d="M 54.2 91.5 Q 54.2 89.7, 55.1 88.7 Q 56.0 87.7, 57.7 87.7 Q 59.3 87.7, 60.2 88.7 Q 61.1 89.7, 61.1 91.5 Q 61.1 93.4, 60.2 94.4 Q 59.3 95.4, 57.7 95.4 Q 56.0 95.4, 55.1 94.4 Q 54.2 93.4, 54.2 91.5 M 57.7 94.6 Q 58.8 94.6, 59.4 93.8 Q 60.1 93.0, 60.1 91.5 Q 60.1 90.1, 59.4 89.3 Q 58.8 88.6, 57.7 88.6 Q 56.5 88.6, 55.9 89.3 Q 55.3 90.1, 55.3 91.5 Q 55.3 93.1, 55.9 93.8 Q 56.5 94.6, 57.7 94.6 " fill="#FF0000"/>
<path class="atom-17" d="M 119.9 155.7 Q 119.9 153.9, 120.7 152.9 Q 121.6 151.9, 123.3 151.9 Q 125.0 151.9, 125.9 152.9 Q 126.7 153.9, 126.7 155.7 Q 126.7 157.6, 125.8 158.6 Q 124.9 159.6, 123.3 159.6 Q 121.6 159.6, 120.7 158.6 Q 119.9 157.6, 119.9 155.7 M 123.3 158.8 Q 124.4 158.8, 125.1 158.0 Q 125.7 157.3, 125.7 155.7 Q 125.7 154.3, 125.1 153.5 Q 124.4 152.8, 123.3 152.8 Q 122.2 152.8, 121.5 153.5 Q 120.9 154.3, 120.9 155.7 Q 120.9 157.3, 121.5 158.0 Q 122.2 158.8, 123.3 158.8 " fill="#FF0000"/>
<path class="atom-18" d="M 68.2 164.4 L 69.3 164.4 L 69.3 167.6 L 73.1 167.6 L 73.1 164.4 L 74.1 164.4 L 74.1 171.9 L 73.1 171.9 L 73.1 168.4 L 69.3 168.4 L 69.3 171.9 L 68.2 171.9 L 68.2 164.4 " fill="#FF0000"/>
<path class="atom-18" d="M 75.6 168.1 Q 75.6 166.3, 76.5 165.3 Q 77.4 164.3, 79.1 164.3 Q 80.8 164.3, 81.6 165.3 Q 82.5 166.3, 82.5 168.1 Q 82.5 169.9, 81.6 171.0 Q 80.7 172.0, 79.1 172.0 Q 77.4 172.0, 76.5 171.0 Q 75.6 169.9, 75.6 168.1 M 79.1 171.2 Q 80.2 171.2, 80.8 170.4 Q 81.5 169.6, 81.5 168.1 Q 81.5 166.6, 80.8 165.9 Q 80.2 165.1, 79.1 165.1 Q 77.9 165.1, 77.3 165.9 Q 76.7 166.6, 76.7 168.1 Q 76.7 169.6, 77.3 170.4 Q 77.9 171.2, 79.1 171.2 " fill="#FF0000"/>
<path class="atom-20" d="M 183.4 25.2 Q 183.4 23.4, 184.3 22.4 Q 185.1 21.4, 186.8 21.4 Q 188.5 21.4, 189.4 22.4 Q 190.3 23.4, 190.3 25.2 Q 190.3 27.0, 189.4 28.1 Q 188.5 29.1, 186.8 29.1 Q 185.2 29.1, 184.3 28.1 Q 183.4 27.1, 183.4 25.2 M 186.8 28.3 Q 188.0 28.3, 188.6 27.5 Q 189.2 26.7, 189.2 25.2 Q 189.2 23.7, 188.6 23.0 Q 188.0 22.2, 186.8 22.2 Q 185.7 22.2, 185.0 23.0 Q 184.4 23.7, 184.4 25.2 Q 184.4 26.7, 185.0 27.5 Q 185.7 28.3, 186.8 28.3 " fill="#FF0000"/>
<path class="atom-21" d="M 131.5 10.1 L 132.5 10.1 L 132.5 13.3 L 136.3 13.3 L 136.3 10.1 L 137.4 10.1 L 137.4 17.6 L 136.3 17.6 L 136.3 14.1 L 132.5 14.1 L 132.5 17.6 L 131.5 17.6 L 131.5 10.1 " fill="#FF0000"/>
<path class="atom-21" d="M 138.9 13.8 Q 138.9 12.0, 139.8 11.0 Q 140.7 10.0, 142.3 10.0 Q 144.0 10.0, 144.9 11.0 Q 145.8 12.0, 145.8 13.8 Q 145.8 15.6, 144.9 16.7 Q 144.0 17.7, 142.3 17.7 Q 140.7 17.7, 139.8 16.7 Q 138.9 15.7, 138.9 13.8 M 142.3 16.9 Q 143.5 16.9, 144.1 16.1 Q 144.7 15.3, 144.7 13.8 Q 144.7 12.3, 144.1 11.6 Q 143.5 10.8, 142.3 10.8 Q 141.2 10.8, 140.6 11.6 Q 140.0 12.3, 140.0 13.8 Q 140.0 15.3, 140.6 16.1 Q 141.2 16.9, 142.3 16.9 " fill="#FF0000"/>
<path class="atom-23" d="M 249.7 154.3 Q 249.7 152.5, 250.6 151.5 Q 251.5 150.5, 253.1 150.5 Q 254.8 150.5, 255.7 151.5 Q 256.6 152.5, 256.6 154.3 Q 256.6 156.2, 255.7 157.2 Q 254.8 158.2, 253.1 158.2 Q 251.5 158.2, 250.6 157.2 Q 249.7 156.2, 249.7 154.3 M 253.1 157.4 Q 254.3 157.4, 254.9 156.6 Q 255.5 155.9, 255.5 154.3 Q 255.5 152.9, 254.9 152.1 Q 254.3 151.4, 253.1 151.4 Q 252.0 151.4, 251.4 152.1 Q 250.7 152.9, 250.7 154.3 Q 250.7 155.9, 251.4 156.6 Q 252.0 157.4, 253.1 157.4 " fill="#FF0000"/>
<path class="atom-24" d="M 198.1 163.0 L 199.1 163.0 L 199.1 166.2 L 202.9 166.2 L 202.9 163.0 L 203.9 163.0 L 203.9 170.5 L 202.9 170.5 L 202.9 167.0 L 199.1 167.0 L 199.1 170.5 L 198.1 170.5 L 198.1 163.0 " fill="#FF0000"/>
<path class="atom-24" d="M 205.5 166.7 Q 205.5 164.9, 206.4 163.9 Q 207.3 162.9, 208.9 162.9 Q 210.6 162.9, 211.5 163.9 Q 212.4 164.9, 212.4 166.7 Q 212.4 168.5, 211.5 169.6 Q 210.6 170.6, 208.9 170.6 Q 207.3 170.6, 206.4 169.6 Q 205.5 168.5, 205.5 166.7 M 208.9 169.7 Q 210.1 169.7, 210.7 169.0 Q 211.3 168.2, 211.3 166.7 Q 211.3 165.2, 210.7 164.5 Q 210.1 163.7, 208.9 163.7 Q 207.8 163.7, 207.2 164.5 Q 206.5 165.2, 206.5 166.7 Q 206.5 168.2, 207.2 169.0 Q 207.8 169.7, 208.9 169.7 " fill="#FF0000"/>
<path class="legend" d="M 142.7 181.9 Q 142.7 179.6, 143.4 177.7 Q 144.0 175.8, 145.3 173.8 L 146.2 174.4 Q 145.2 176.3, 144.6 178.0 Q 144.1 179.7, 144.1 181.9 Q 144.1 184.0, 144.6 185.8 Q 145.2 187.5, 146.2 189.4 L 145.3 190.0 Q 144.0 188.0, 143.4 186.1 Q 142.7 184.2, 142.7 181.9 " fill="#000000"/>
<path class="legend" d="M 147.1 177.3 Q 147.6 176.2, 148.5 175.6 Q 149.5 175.0, 150.9 175.0 Q 152.6 175.0, 153.6 175.9 Q 154.5 176.8, 154.5 178.5 Q 154.5 180.2, 153.3 181.7 Q 152.1 183.3, 149.5 185.2 L 154.7 185.2 L 154.7 186.4 L 147.1 186.4 L 147.1 185.4 Q 149.2 183.9, 150.5 182.8 Q 151.7 181.6, 152.3 180.6 Q 152.9 179.6, 152.9 178.6 Q 152.9 177.5, 152.4 176.9 Q 151.9 176.3, 150.9 176.3 Q 150.0 176.3, 149.4 176.6 Q 148.8 177.0, 148.4 177.8 L 147.1 177.3 " fill="#000000"/>
<path class="legend" d="M 159.7 181.9 Q 159.7 184.2, 159.0 186.1 Q 158.4 188.0, 157.1 190.0 L 156.2 189.4 Q 157.2 187.5, 157.7 185.8 Q 158.3 184.0, 158.3 181.9 Q 158.3 179.7, 157.7 178.0 Q 157.2 176.3, 156.2 174.4 L 157.1 173.8 Q 158.4 175.8, 159.0 177.7 Q 159.7 179.6, 159.7 181.9 " fill="#000000"/>
</g>
    <g transform="translate(304.0, 0) scale(1 1) "><line x1="5" y1="100" x2="35" y2="100" style="stroke:rgb(0,0,0);stroke-width:2"/>
  <line x1="34" y1="100" x2="29" y2="95" style="stroke:rgb(0,0,0);stroke-width:2"/>
  <line x1="34" y1="100" x2="29" y2="105" style="stroke:rgb(0,0,0);stroke-width:2"/>
</g>
    <g transform="translate(344.0, 0) scale(1 1) "><!-- END OF HEADER -->
<rect style="opacity:1.0;fill:#FFFFFF;stroke:none" width="205.0" height="200.0" x="0.0" y="0.0"> </rect>
<path class="bond-0 atom-0 atom-1" d="M 122.6,44.3 L 108.8,89.2" style="fill:none;fill-rule:evenodd;stroke:#000000;stroke-width:2.0px;stroke-linecap:butt;stroke-linejoin:miter;stroke-opacity:1"/>
<path class="bond-1 atom-1 atom-2" d="M 108.8,89.2 L 95.0,134.1" style="fill:none;fill-rule:evenodd;stroke:#000000;stroke-width:2.0px;stroke-linecap:butt;stroke-linejoin:miter;stroke-opacity:1"/>
<path class="bond-2 atom-1 atom-3" d="M 108.8,89.2 L 63.9,75.4" style="fill:none;fill-rule:evenodd;stroke:#000000;stroke-width:2.0px;stroke-linecap:butt;stroke-linejoin:miter;stroke-opacity:1"/>
<path class="bond-3 atom-3 atom-4" d="M 63.9,75.4 L 50.5,87.9" style="fill:none;fill-rule:evenodd;stroke:#000000;stroke-width:2.0px;stroke-linecap:butt;stroke-linejoin:miter;stroke-opacity:1"/>
<path class="bond-3 atom-3 atom-4" d="M 50.5,87.9 L 37.2,100.3" style="fill:none;fill-rule:evenodd;stroke:#FF0000;stroke-width:2.0px;stroke-linecap:butt;stroke-linejoin:miter;stroke-opacity:1"/>
<path class="bond-4 atom-1 atom-5" d="M 108.8,89.2 L 153.7,103.0" style="fill:none;fill-rule:evenodd;stroke:#000000;stroke-width:2.0px;stroke-linecap:butt;stroke-linejoin:miter;stroke-opacity:1"/>
<path class="bond-5 atom-5 atom-6" d="M 154.7,107.0 L 168.8,93.8" style="fill:none;fill-rule:evenodd;stroke:#000000;stroke-width:2.0px;stroke-linecap:butt;stroke-linejoin:miter;stroke-opacity:1"/>
<path class="bond-5 atom-5 atom-6" d="M 168.8,93.8 L 182.9,80.7" style="fill:none;fill-rule:evenodd;stroke:#FF0000;stroke-width:2.0px;stroke-linecap:butt;stroke-linejoin:miter;stroke-opacity:1"/>
<path class="bond-5 atom-5 atom-6" d="M 149.9,101.8 L 164.0,88.7" style="fill:none;fill-rule:evenodd;stroke:#000000;stroke-width:2.0px;stroke-linecap:butt;stroke-linejoin:miter;stroke-opacity:1"/>
<path class="bond-5 atom-5 atom-6" d="M 164.0,88.7 L 178.1,75.5" style="fill:none;fill-rule:evenodd;stroke:#FF0000;stroke-width:2.0px;stroke-linecap:butt;stroke-linejoin:miter;stroke-opacity:1"/>
<path class="bond-6 atom-5 atom-7" d="M 153.7,103.0 L 158.0,121.7" style="fill:none;fill-rule:evenodd;stroke:#000000;stroke-width:2.0px;stroke-linecap:butt;stroke-linejoin:miter;stroke-opacity:1"/>
<path class="bond-6 atom-5 atom-7" d="M 158.0,121.7 L 162.4,140.5" style="fill:none;fill-rule:evenodd;stroke:#FF0000;stroke-width:2.0px;stroke-linecap:butt;stroke-linejoin:miter;stroke-opacity:1"/>
<path d="M 66.1,76.1 L 63.9,75.4 L 63.2,76.0" style="fill:none;stroke:#000000;stroke-width:2.0px;stroke-linecap:butt;stroke-linejoin:miter;stroke-opacity:1;"/>
<path d="M 151.5,102.3 L 153.7,103.0 L 154.0,103.9" style="fill:none;stroke:#000000;stroke-width:2.0px;stroke-linecap:butt;stroke-linejoin:miter;stroke-opacity:1;"/>
<path class="atom-4" d="M 10.2 100.8 L 12.1 100.8 L 12.1 106.5 L 18.9 106.5 L 18.9 100.8 L 20.7 100.8 L 20.7 114.1 L 18.9 114.1 L 18.9 108.0 L 12.1 108.0 L 12.1 114.1 L 10.2 114.1 L 10.2 100.8 " fill="#FF0000"/>
<path class="atom-4" d="M 23.4 107.5 Q 23.4 104.3, 25.0 102.5 Q 26.5 100.7, 29.5 100.7 Q 32.5 100.7, 34.0 102.5 Q 35.6 104.3, 35.6 107.5 Q 35.6 110.7, 34.0 112.5 Q 32.4 114.4, 29.5 114.4 Q 26.6 114.4, 25.0 112.5 Q 23.4 110.7, 23.4 107.5 M 29.5 112.9 Q 31.5 112.9, 32.6 111.5 Q 33.7 110.1, 33.7 107.5 Q 33.7 104.8, 32.6 103.5 Q 31.5 102.2, 29.5 102.2 Q 27.5 102.2, 26.4 103.5 Q 25.3 104.8, 25.3 107.5 Q 25.3 110.1, 26.4 111.5 Q 27.5 112.9, 29.5 112.9 " fill="#FF0000"/>
<path class="atom-6" d="M 182.0 71.0 Q 182.0 67.8, 183.6 66.0 Q 185.2 64.3, 188.1 64.3 Q 191.1 64.3, 192.7 66.0 Q 194.3 67.8, 194.3 71.0 Q 194.3 74.3, 192.7 76.1 Q 191.1 77.9, 188.1 77.9 Q 185.2 77.9, 183.6 76.1 Q 182.0 74.3, 182.0 71.0 M 188.1 76.4 Q 190.2 76.4, 191.3 75.1 Q 192.4 73.7, 192.4 71.0 Q 192.4 68.4, 191.3 67.1 Q 190.2 65.8, 188.1 65.8 Q 186.1 65.8, 185.0 67.1 Q 183.9 68.4, 183.9 71.0 Q 183.9 73.7, 185.0 75.1 Q 186.1 76.4, 188.1 76.4 " fill="#FF0000"/>
<path class="atom-7" d="M 158.2 148.8 Q 158.2 145.6, 159.7 143.8 Q 161.3 142.1, 164.3 142.1 Q 167.2 142.1, 168.8 143.8 Q 170.4 145.6, 170.4 148.8 Q 170.4 152.1, 168.8 153.9 Q 167.2 155.7, 164.3 155.7 Q 161.3 155.7, 159.7 153.9 Q 158.2 152.1, 158.2 148.8 M 164.3 154.2 Q 166.3 154.2, 167.4 152.9 Q 168.5 151.5, 168.5 148.8 Q 168.5 146.2, 167.4 144.9 Q 166.3 143.6, 164.3 143.6 Q 162.2 143.6, 161.1 144.9 Q 160.0 146.2, 160.0 148.8 Q 160.0 151.5, 161.1 152.9 Q 162.2 154.2, 164.3 154.2 " fill="#FF0000"/>
<path class="atom-7" d="M 172.4 142.2 L 174.2 142.2 L 174.2 147.9 L 181.0 147.9 L 181.0 142.2 L 182.9 142.2 L 182.9 155.5 L 181.0 155.5 L 181.0 149.4 L 174.2 149.4 L 174.2 155.5 L 172.4 155.5 L 172.4 142.2 " fill="#FF0000"/>
</g>
    <g transform="translate(549.0, 0) scale(1 1) "><line x1="15" y1="100" x2="25" y2="100" style="stroke:rgb(0,0,0);stroke-width:2"/>
  <line x1="20" y1="95" x2="20" y2="105" style="stroke:rgb(0,0,0);stroke-width:2"/>
</g>
    <g transform="translate(589.0, 0) scale(1 1) "><!-- END OF HEADER -->
<rect style="opacity:1.0;fill:#FFFFFF;stroke:none" width="349.0" height="200.0" x="0.0" y="0.0"> </rect>
<path class="bond-0 atom-0 atom-1" d="M 298.4,40.3 L 305.4,61.7" style="fill:none;fill-rule:evenodd;stroke:#000000;stroke-width:2.0px;stroke-linecap:butt;stroke-linejoin:miter;stroke-opacity:1"/>
<path class="bond-1 atom-1 atom-2" d="M 305.4,61.7 L 290.4,78.4" style="fill:none;fill-rule:evenodd;stroke:#000000;stroke-width:2.0px;stroke-linecap:butt;stroke-linejoin:miter;stroke-opacity:1"/>
<path class="bond-2 atom-2 atom-3" d="M 290.4,78.4 L 275.4,95.2" style="fill:none;fill-rule:evenodd;stroke:#000000;stroke-width:2.0px;stroke-linecap:butt;stroke-linejoin:miter;stroke-opacity:1"/>
<path class="bond-3 atom-2 atom-4" d="M 290.4,78.4 L 273.6,63.4" style="fill:none;fill-rule:evenodd;stroke:#000000;stroke-width:2.0px;stroke-linecap:butt;stroke-linejoin:miter;stroke-opacity:1"/>
<path class="bond-4 atom-4 atom-5" d="M 273.6,63.4 L 252.2,70.4" style="fill:none;fill-rule:evenodd;stroke:#000000;stroke-width:2.0px;stroke-linecap:butt;stroke-linejoin:miter;stroke-opacity:1"/>
<path class="bond-5 atom-5 atom-6" d="M 252.2,70.4 L 235.5,55.4" style="fill:none;fill-rule:evenodd;stroke:#000000;stroke-width:2.0px;stroke-linecap:butt;stroke-linejoin:miter;stroke-opacity:1"/>
<path class="bond-6 atom-6 atom-7" d="M 235.5,55.4 L 214.1,62.4" style="fill:none;fill-rule:evenodd;stroke:#000000;stroke-width:2.0px;stroke-linecap:butt;stroke-linejoin:miter;stroke-opacity:1"/>
<path class="bond-7 atom-7 atom-8" d="M 214.1,62.4 L 192.7,69.3" style="fill:none;fill-rule:evenodd;stroke:#000000;stroke-width:2.0px;stroke-linecap:butt;stroke-linejoin:miter;stroke-opacity:1"/>
<path class="bond-8 atom-7 atom-9" d="M 214.1,62.4 L 221.1,83.7" style="fill:none;fill-rule:evenodd;stroke:#000000;stroke-width:2.0px;stroke-linecap:butt;stroke-linejoin:miter;stroke-opacity:1"/>
<path class="bond-9 atom-9 atom-10" d="M 221.1,83.7 L 206.1,100.5" style="fill:none;fill-rule:evenodd;stroke:#000000;stroke-width:2.0px;stroke-linecap:butt;stroke-linejoin:miter;stroke-opacity:1"/>
<path class="bond-10 atom-10 atom-11" d="M 206.1,100.5 L 213.1,121.9" style="fill:none;fill-rule:evenodd;stroke:#000000;stroke-width:2.0px;stroke-linecap:butt;stroke-linejoin:miter;stroke-opacity:1"/>
<path class="bond-11 atom-11 atom-12" d="M 213.1,121.9 L 198.0,138.6" style="fill:none;fill-rule:evenodd;stroke:#000000;stroke-width:2.0px;stroke-linecap:butt;stroke-linejoin:miter;stroke-opacity:1"/>
<path class="bond-12 atom-12 atom-13" d="M 198.0,138.6 L 183.0,155.4" style="fill:none;fill-rule:evenodd;stroke:#000000;stroke-width:2.0px;stroke-linecap:butt;stroke-linejoin:miter;stroke-opacity:1"/>
<path class="bond-13 atom-12 atom-14" d="M 198.0,138.6 L 214.8,153.7" style="fill:none;fill-rule:evenodd;stroke:#000000;stroke-width:2.0px;stroke-linecap:butt;stroke-linejoin:miter;stroke-opacity:1"/>
<path class="bond-14 atom-14 atom-15" d="M 214.4,155.6 L 223.7,152.5" style="fill:none;fill-rule:evenodd;stroke:#000000;stroke-width:2.0px;stroke-linecap:butt;stroke-linejoin:miter;stroke-opacity:1"/>
<path class="bond-14 atom-14 atom-15" d="M 223.7,152.5 L 233.0,149.5" style="fill:none;fill-rule:evenodd;stroke:#FF0000;stroke-width:2.0px;stroke-linecap:butt;stroke-linejoin:miter;stroke-opacity:1"/>
<path class="bond-14 atom-14 atom-15" d="M 213.3,152.4 L 222.7,149.3" style="fill:none;fill-rule:evenodd;stroke:#000000;stroke-width:2.0px;stroke-linecap:butt;stroke-linejoin:miter;stroke-opacity:1"/>
<path class="bond-14 atom-14 atom-15" d="M 222.7,149.3 L 232.0,146.3" style="fill:none;fill-rule:evenodd;stroke:#FF0000;stroke-width:2.0px;stroke-linecap:butt;stroke-linejoin:miter;stroke-opacity:1"/>
<path class="bond-15 atom-14 atom-16" d="M 214.8,153.7 L 212.9,162.7" style="fill:none;fill-rule:evenodd;stroke:#000000;stroke-width:2.0px;stroke-linecap:butt;stroke-linejoin:miter;stroke-opacity:1"/>
<path class="bond-15 atom-14 atom-16" d="M 212.9,162.7 L 211.0,171.7" style="fill:none;fill-rule:evenodd;stroke:#FF0000;stroke-width:2.0px;stroke-linecap:butt;stroke-linejoin:miter;stroke-opacity:1"/>
<path class="bond-16 atom-12 atom-17" d="M 198.0,138.6 L 181.3,123.6" style="fill:none;fill-rule:evenodd;stroke:#000000;stroke-width:2.0px;stroke-linecap:butt;stroke-linejoin:miter;stroke-opacity:1"/>
<path class="bond-17 atom-17 atom-18" d="M 181.3,123.6 L 183.2,114.6" style="fill:none;fill-rule:evenodd;stroke:#000000;stroke-width:2.0px;stroke-linecap:butt;stroke-linejoin:miter;stroke-opacity:1"/>
<path class="bond-17 atom-17 atom-18" d="M 183.2,114.6 L 185.1,105.7" style="fill:none;fill-rule:evenodd;stroke:#FF0000;stroke-width:2.0px;stroke-linecap:butt;stroke-linejoin:miter;stroke-opacity:1"/>
<path class="bond-18 atom-17 atom-19" d="M 181.3,123.6 L 159.9,130.6" style="fill:none;fill-rule:evenodd;stroke:#000000;stroke-width:2.0px;stroke-linecap:butt;stroke-linejoin:miter;stroke-opacity:1"/>
<path class="bond-19 atom-19 atom-20" d="M 159.9,130.6 L 143.1,115.6" style="fill:none;fill-rule:evenodd;stroke:#000000;stroke-width:2.0px;stroke-linecap:butt;stroke-linejoin:miter;stroke-opacity:1"/>
<path class="bond-20 atom-20 atom-21" d="M 143.1,115.6 L 121.7,122.6" style="fill:none;fill-rule:evenodd;stroke:#000000;stroke-width:2.0px;stroke-linecap:butt;stroke-linejoin:miter;stroke-opacity:1"/>
<path class="bond-21 atom-21 atom-22" d="M 121.7,122.6 L 128.7,144.0" style="fill:none;fill-rule:evenodd;stroke:#000000;stroke-width:2.0px;stroke-linecap:butt;stroke-linejoin:miter;stroke-opacity:1"/>
<path class="bond-22 atom-21 atom-23" d="M 121.7,122.6 L 114.8,101.2" style="fill:none;fill-rule:evenodd;stroke:#000000;stroke-width:2.0px;stroke-linecap:butt;stroke-linejoin:miter;stroke-opacity:1"/>
<path class="bond-23 atom-23 atom-24" d="M 114.8,101.2 L 92.7,96.5" style="fill:none;fill-rule:evenodd;stroke:#000000;stroke-width:2.0px;stroke-linecap:butt;stroke-linejoin:miter;stroke-opacity:1"/>
<path class="bond-24 atom-24 atom-25" d="M 92.7,96.5 L 85.7,75.2" style="fill:none;fill-rule:evenodd;stroke:#000000;stroke-width:2.0px;stroke-linecap:butt;stroke-linejoin:miter;stroke-opacity:1"/>
<path class="bond-25 atom-25 atom-26" d="M 85.7,75.2 L 63.7,70.5" style="fill:none;fill-rule:evenodd;stroke:#000000;stroke-width:2.0px;stroke-linecap:butt;stroke-linejoin:miter;stroke-opacity:1"/>
<path class="bond-26 atom-26 atom-27" d="M 63.7,70.5 L 59.1,92.5" style="fill:none;fill-rule:evenodd;stroke:#000000;stroke-width:2.0px;stroke-linecap:butt;stroke-linejoin:miter;stroke-opacity:1"/>
<path class="bond-27 atom-26 atom-28" d="M 63.7,70.5 L 68.4,48.5" style="fill:none;fill-rule:evenodd;stroke:#000000;stroke-width:2.0px;stroke-linecap:butt;stroke-linejoin:miter;stroke-opacity:1"/>
<path class="bond-28 atom-28 atom-29" d="M 68.4,48.5 L 51.6,33.5" style="fill:none;fill-rule:evenodd;stroke:#000000;stroke-width:2.0px;stroke-linecap:butt;stroke-linejoin:miter;stroke-opacity:1"/>
<path class="bond-29 atom-26 atom-30" d="M 63.7,70.5 L 41.7,65.9" style="fill:none;fill-rule:evenodd;stroke:#000000;stroke-width:2.0px;stroke-linecap:butt;stroke-linejoin:miter;stroke-opacity:1"/>
<path class="bond-30 atom-30 atom-31" d="M 43.6,66.3 L 40.6,57.2" style="fill:none;fill-rule:evenodd;stroke:#000000;stroke-width:2.0px;stroke-linecap:butt;stroke-linejoin:miter;stroke-opacity:1"/>
<path class="bond-30 atom-30 atom-31" d="M 40.6,57.2 L 37.6,48.0" style="fill:none;fill-rule:evenodd;stroke:#FF0000;stroke-width:2.0px;stroke-linecap:butt;stroke-linejoin:miter;stroke-opacity:1"/>
<path class="bond-30 atom-30 atom-31" d="M 40.4,67.3 L 37.4,58.2" style="fill:none;fill-rule:evenodd;stroke:#000000;stroke-width:2.0px;stroke-linecap:butt;stroke-linejoin:miter;stroke-opacity:1"/>
<path class="bond-30 atom-30 atom-31" d="M 37.4,58.2 L 34.4,49.1" style="fill:none;fill-rule:evenodd;stroke:#FF0000;stroke-width:2.0px;stroke-linecap:butt;stroke-linejoin:miter;stroke-opacity:1"/>
<path class="bond-31 atom-30 atom-32" d="M 41.7,65.9 L 36.0,72.3" style="fill:none;fill-rule:evenodd;stroke:#000000;stroke-width:2.0px;stroke-linecap:butt;stroke-linejoin:miter;stroke-opacity:1"/>
<path class="bond-31 atom-30 atom-32" d="M 36.0,72.3 L 30.2,78.7" style="fill:none;fill-rule:evenodd;stroke:#FF0000;stroke-width:2.0px;stroke-linecap:butt;stroke-linejoin:miter;stroke-opacity:1"/>
<path class="bond-32 atom-21 atom-33" d="M 121.7,122.6 L 100.4,129.6" style="fill:none;fill-rule:evenodd;stroke:#000000;stroke-width:2.0px;stroke-linecap:butt;stroke-linejoin:miter;stroke-opacity:1"/>
<path class="bond-33 atom-33 atom-34" d="M 102.2,129.0 L 95.3,122.8" style="fill:none;fill-rule:evenodd;stroke:#000000;stroke-width:2.0px;stroke-linecap:butt;stroke-linejoin:miter;stroke-opacity:1"/>
<path class="bond-33 atom-33 atom-34" d="M 95.3,122.8 L 88.4,116.6" style="fill:none;fill-rule:evenodd;stroke:#FF0000;stroke-width:2.0px;stroke-linecap:butt;stroke-linejoin:miter;stroke-opacity:1"/>
<path class="bond-33 atom-33 atom-34" d="M 100.0,131.5 L 93.1,125.3" style="fill:none;fill-rule:evenodd;stroke:#000000;stroke-width:2.0px;stroke-linecap:butt;stroke-linejoin:miter;stroke-opacity:1"/>
<path class="bond-33 atom-33 atom-34" d="M 93.1,125.3 L 86.1,119.1" style="fill:none;fill-rule:evenodd;stroke:#FF0000;stroke-width:2.0px;stroke-linecap:butt;stroke-linejoin:miter;stroke-opacity:1"/>
<path class="bond-34 atom-33 atom-35" d="M 100.4,129.6 L 98.5,138.6" style="fill:none;fill-rule:evenodd;stroke:#000000;stroke-width:2.0px;stroke-linecap:butt;stroke-linejoin:miter;stroke-opacity:1"/>
<path class="bond-34 atom-33 atom-35" d="M 98.5,138.6 L 96.6,147.6" style="fill:none;fill-rule:evenodd;stroke:#FF0000;stroke-width:2.0px;stroke-linecap:butt;stroke-linejoin:miter;stroke-opacity:1"/>
<path class="bond-35 atom-7 atom-36" d="M 214.1,62.4 L 207.1,41.0" style="fill:none;fill-rule:evenodd;stroke:#000000;stroke-width:2.0px;stroke-linecap:butt;stroke-linejoin:miter;stroke-opacity:1"/>
<path class="bond-36 atom-36 atom-37" d="M 207.7,42.8 L 213.7,36.1" style="fill:none;fill-rule:evenodd;stroke:#000000;stroke-width:2.0px;stroke-linecap:butt;stroke-linejoin:miter;stroke-opacity:1"/>
<path class="bond-36 atom-36 atom-37" d="M 213.7,36.1 L 219.7,29.4" style="fill:none;fill-rule:evenodd;stroke:#FF0000;stroke-width:2.0px;stroke-linecap:butt;stroke-linejoin:miter;stroke-opacity:1"/>
<path class="bond-36 atom-36 atom-37" d="M 205.2,40.6 L 211.2,33.9" style="fill:none;fill-rule:evenodd;stroke:#000000;stroke-width:2.0px;stroke-linecap:butt;stroke-linejoin:miter;stroke-opacity:1"/>
<path class="bond-36 atom-36 atom-37" d="M 211.2,33.9 L 217.2,27.2" style="fill:none;fill-rule:evenodd;stroke:#FF0000;stroke-width:2.0px;stroke-linecap:butt;stroke-linejoin:miter;stroke-opacity:1"/>
<path class="bond-37 atom-36 atom-38" d="M 207.1,41.0 L 197.9,39.0" style="fill:none;fill-rule:evenodd;stroke:#000000;stroke-width:2.0px;stroke-linecap:butt;stroke-linejoin:miter;stroke-opacity:1"/>
<path class="bond-37 atom-36 atom-38" d="M 197.9,39.0 L 188.8,37.1" style="fill:none;fill-rule:evenodd;stroke:#FF0000;stroke-width:2.0px;stroke-linecap:butt;stroke-linejoin:miter;stroke-opacity:1"/>
<path class="bond-38 atom-2 atom-39" d="M 290.4,78.4 L 307.1,93.4" style="fill:none;fill-rule:evenodd;stroke:#000000;stroke-width:2.0px;stroke-linecap:butt;stroke-linejoin:miter;stroke-opacity:1"/>
<path class="bond-39 atom-39 atom-40" d="M 306.7,95.4 L 316.1,92.3" style="fill:none;fill-rule:evenodd;stroke:#000000;stroke-width:2.0px;stroke-linecap:butt;stroke-linejoin:miter;stroke-opacity:1"/>
<path class="bond-39 atom-39 atom-40" d="M 316.1,92.3 L 325.4,89.3" style="fill:none;fill-rule:evenodd;stroke:#FF0000;stroke-width:2.0px;stroke-linecap:butt;stroke-linejoin:miter;stroke-opacity:1"/>
<path class="bond-39 atom-39 atom-40" d="M 305.7,92.1 L 315.0,89.1" style="fill:none;fill-rule:evenodd;stroke:#000000;stroke-width:2.0px;stroke-linecap:butt;stroke-linejoin:miter;stroke-opacity:1"/>
<path class="bond-39 atom-39 atom-40" d="M 315.0,89.1 L 324.3,86.0" style="fill:none;fill-rule:evenodd;stroke:#FF0000;stroke-width:2.0px;stroke-linecap:butt;stroke-linejoin:miter;stroke-opacity:1"/>
<path class="bond-40 atom-39 atom-41" d="M 307.1,93.4 L 305.2,102.5" style="fill:none;fill-rule:evenodd;stroke:#000000;stroke-width:2.0px;stroke-linecap:butt;stroke-linejoin:miter;stroke-opacity:1"/>
<path class="bond-40 atom-39 atom-41" d="M 305.2,102.5 L 303.3,111.5" style="fill:none;fill-rule:evenodd;stroke:#FF0000;stroke-width:2.0px;stroke-linecap:butt;stroke-linejoin:miter;stroke-opacity:1"/>
<path d="M 305.1,60.6 L 305.4,61.7 L 304.7,62.5" style="fill:none;stroke:#000000;stroke-width:2.0px;stroke-linecap:butt;stroke-linejoin:miter;stroke-opacity:1;"/>
<path d="M 274.5,64.1 L 273.6,63.4 L 272.6,63.7" style="fill:none;stroke:#000000;stroke-width:2.0px;stroke-linecap:butt;stroke-linejoin:miter;stroke-opacity:1;"/>
<path d="M 253.3,70.0 L 252.2,70.4 L 251.4,69.6" style="fill:none;stroke:#000000;stroke-width:2.0px;stroke-linecap:butt;stroke-linejoin:miter;stroke-opacity:1;"/>
<path d="M 236.3,56.1 L 235.5,55.4 L 234.4,55.7" style="fill:none;stroke:#000000;stroke-width:2.0px;stroke-linecap:butt;stroke-linejoin:miter;stroke-opacity:1;"/>
<path d="M 220.7,82.7 L 221.1,83.7 L 220.3,84.6" style="fill:none;stroke:#000000;stroke-width:2.0px;stroke-linecap:butt;stroke-linejoin:miter;stroke-opacity:1;"/>
<path d="M 206.8,99.7 L 206.1,100.5 L 206.4,101.6" style="fill:none;stroke:#000000;stroke-width:2.0px;stroke-linecap:butt;stroke-linejoin:miter;stroke-opacity:1;"/>
<path d="M 212.7,120.8 L 213.1,121.9 L 212.3,122.7" style="fill:none;stroke:#000000;stroke-width:2.0px;stroke-linecap:butt;stroke-linejoin:miter;stroke-opacity:1;"/>
<path d="M 213.9,152.9 L 214.8,153.7 L 214.7,154.1" style="fill:none;stroke:#000000;stroke-width:2.0px;stroke-linecap:butt;stroke-linejoin:miter;stroke-opacity:1;"/>
<path d="M 161.0,130.3 L 159.9,130.6 L 159.1,129.9" style="fill:none;stroke:#000000;stroke-width:2.0px;stroke-linecap:butt;stroke-linejoin:miter;stroke-opacity:1;"/>
<path d="M 144.0,116.3 L 143.1,115.6 L 142.1,115.9" style="fill:none;stroke:#000000;stroke-width:2.0px;stroke-linecap:butt;stroke-linejoin:miter;stroke-opacity:1;"/>
<path d="M 115.1,102.3 L 114.8,101.2 L 113.7,101.0" style="fill:none;stroke:#000000;stroke-width:2.0px;stroke-linecap:butt;stroke-linejoin:miter;stroke-opacity:1;"/>
<path d="M 93.8,96.8 L 92.7,96.5 L 92.4,95.5" style="fill:none;stroke:#000000;stroke-width:2.0px;stroke-linecap:butt;stroke-linejoin:miter;stroke-opacity:1;"/>
<path d="M 86.1,76.2 L 85.7,75.2 L 84.6,74.9" style="fill:none;stroke:#000000;stroke-width:2.0px;stroke-linecap:butt;stroke-linejoin:miter;stroke-opacity:1;"/>
<path d="M 68.1,49.6 L 68.4,48.5 L 67.5,47.7" style="fill:none;stroke:#000000;stroke-width:2.0px;stroke-linecap:butt;stroke-linejoin:miter;stroke-opacity:1;"/>
<path d="M 42.8,66.1 L 41.7,65.9 L 41.4,66.2" style="fill:none;stroke:#000000;stroke-width:2.0px;stroke-linecap:butt;stroke-linejoin:miter;stroke-opacity:1;"/>
<path d="M 101.4,129.2 L 100.4,129.6 L 100.3,130.0" style="fill:none;stroke:#000000;stroke-width:2.0px;stroke-linecap:butt;stroke-linejoin:miter;stroke-opacity:1;"/>
<path d="M 207.5,42.0 L 207.1,41.0 L 206.6,40.9" style="fill:none;stroke:#000000;stroke-width:2.0px;stroke-linecap:butt;stroke-linejoin:miter;stroke-opacity:1;"/>
<path d="M 306.3,92.7 L 307.1,93.4 L 307.0,93.9" style="fill:none;stroke:#000000;stroke-width:2.0px;stroke-linecap:butt;stroke-linejoin:miter;stroke-opacity:1;"/>
<path class="atom-15" d="M 233.2 146.7 Q 233.2 145.2, 234.0 144.3 Q 234.8 143.4, 236.2 143.4 Q 237.6 143.4, 238.3 144.3 Q 239.1 145.2, 239.1 146.7 Q 239.1 148.2, 238.3 149.1 Q 237.6 150.0, 236.2 150.0 Q 234.8 150.0, 234.0 149.1 Q 233.2 148.2, 233.2 146.7 M 236.2 149.3 Q 237.1 149.3, 237.7 148.6 Q 238.2 148.0, 238.2 146.7 Q 238.2 145.4, 237.7 144.8 Q 237.1 144.2, 236.2 144.2 Q 235.2 144.2, 234.7 144.8 Q 234.2 145.4, 234.2 146.7 Q 234.2 148.0, 234.7 148.6 Q 235.2 149.3, 236.2 149.3 " fill="#FF0000"/>
<path class="atom-16" d="M 207.2 175.7 Q 207.2 174.2, 208.0 173.3 Q 208.7 172.5, 210.1 172.5 Q 211.6 172.5, 212.3 173.3 Q 213.1 174.2, 213.1 175.7 Q 213.1 177.3, 212.3 178.1 Q 211.5 179.0, 210.1 179.0 Q 208.7 179.0, 208.0 178.1 Q 207.2 177.3, 207.2 175.7 M 210.1 178.3 Q 211.1 178.3, 211.6 177.6 Q 212.2 177.0, 212.2 175.7 Q 212.2 174.5, 211.6 173.8 Q 211.1 173.2, 210.1 173.2 Q 209.2 173.2, 208.6 173.8 Q 208.1 174.4, 208.1 175.7 Q 208.1 177.0, 208.6 177.6 Q 209.2 178.3, 210.1 178.3 " fill="#FF0000"/>
<path class="atom-16" d="M 214.1 172.5 L 214.9 172.5 L 214.9 175.2 L 218.2 175.2 L 218.2 172.5 L 219.1 172.5 L 219.1 178.9 L 218.2 178.9 L 218.2 176.0 L 214.9 176.0 L 214.9 178.9 L 214.1 178.9 L 214.1 172.5 " fill="#FF0000"/>
<path class="atom-18" d="M 183.0 101.6 Q 183.0 100.1, 183.7 99.2 Q 184.5 98.4, 185.9 98.4 Q 187.3 98.4, 188.1 99.2 Q 188.8 100.1, 188.8 101.6 Q 188.8 103.2, 188.1 104.0 Q 187.3 104.9, 185.9 104.9 Q 184.5 104.9, 183.7 104.0 Q 183.0 103.2, 183.0 101.6 M 185.9 104.2 Q 186.9 104.2, 187.4 103.5 Q 187.9 102.9, 187.9 101.6 Q 187.9 100.4, 187.4 99.7 Q 186.9 99.1, 185.9 99.1 Q 184.9 99.1, 184.4 99.7 Q 183.9 100.3, 183.9 101.6 Q 183.9 102.9, 184.4 103.5 Q 184.9 104.2, 185.9 104.2 " fill="#FF0000"/>
<path class="atom-18" d="M 189.8 98.4 L 190.7 98.4 L 190.7 101.2 L 194.0 101.2 L 194.0 98.4 L 194.8 98.4 L 194.8 104.8 L 194.0 104.8 L 194.0 101.9 L 190.7 101.9 L 190.7 104.8 L 189.8 104.8 L 189.8 98.4 " fill="#FF0000"/>
<path class="atom-31" d="M 31.8 44.5 Q 31.8 43.0, 32.5 42.1 Q 33.3 41.3, 34.7 41.3 Q 36.1 41.3, 36.9 42.1 Q 37.6 43.0, 37.6 44.5 Q 37.6 46.1, 36.9 46.9 Q 36.1 47.8, 34.7 47.8 Q 33.3 47.8, 32.5 46.9 Q 31.8 46.1, 31.8 44.5 M 34.7 47.1 Q 35.7 47.1, 36.2 46.4 Q 36.7 45.8, 36.7 44.5 Q 36.7 43.3, 36.2 42.6 Q 35.7 42.0, 34.7 42.0 Q 33.7 42.0, 33.2 42.6 Q 32.7 43.3, 32.7 44.5 Q 32.7 45.8, 33.2 46.4 Q 33.7 47.1, 34.7 47.1 " fill="#FF0000"/>
<path class="atom-32" d="M 17.5 79.5 L 18.3 79.5 L 18.3 82.2 L 21.6 82.2 L 21.6 79.5 L 22.4 79.5 L 22.4 85.9 L 21.6 85.9 L 21.6 82.9 L 18.3 82.9 L 18.3 85.9 L 17.5 85.9 L 17.5 79.5 " fill="#FF0000"/>
<path class="atom-32" d="M 23.7 82.7 Q 23.7 81.1, 24.5 80.3 Q 25.3 79.4, 26.7 79.4 Q 28.1 79.4, 28.8 80.3 Q 29.6 81.1, 29.6 82.7 Q 29.6 84.2, 28.8 85.1 Q 28.1 86.0, 26.7 86.0 Q 25.3 86.0, 24.5 85.1 Q 23.7 84.2, 23.7 82.7 M 26.7 85.2 Q 27.6 85.2, 28.2 84.6 Q 28.7 83.9, 28.7 82.7 Q 28.7 81.4, 28.2 80.8 Q 27.6 80.1, 26.7 80.1 Q 25.7 80.1, 25.2 80.8 Q 24.6 81.4, 24.6 82.7 Q 24.6 83.9, 25.2 84.6 Q 25.7 85.2, 26.7 85.2 " fill="#FF0000"/>
<path class="atom-34" d="M 80.7 114.6 Q 80.7 113.0, 81.4 112.2 Q 82.2 111.3, 83.6 111.3 Q 85.0 111.3, 85.8 112.2 Q 86.5 113.0, 86.5 114.6 Q 86.5 116.1, 85.8 117.0 Q 85.0 117.9, 83.6 117.9 Q 82.2 117.9, 81.4 117.0 Q 80.7 116.1, 80.7 114.6 M 83.6 117.1 Q 84.6 117.1, 85.1 116.5 Q 85.6 115.8, 85.6 114.6 Q 85.6 113.3, 85.1 112.7 Q 84.6 112.0, 83.6 112.0 Q 82.6 112.0, 82.1 112.7 Q 81.6 113.3, 81.6 114.6 Q 81.6 115.8, 82.1 116.5 Q 82.6 117.1, 83.6 117.1 " fill="#FF0000"/>
<path class="atom-35" d="M 92.8 151.6 Q 92.8 150.1, 93.6 149.2 Q 94.3 148.4, 95.7 148.4 Q 97.1 148.4, 97.9 149.2 Q 98.6 150.1, 98.6 151.6 Q 98.6 153.2, 97.9 154.0 Q 97.1 154.9, 95.7 154.9 Q 94.3 154.9, 93.6 154.0 Q 92.8 153.2, 92.8 151.6 M 95.7 154.2 Q 96.7 154.2, 97.2 153.5 Q 97.7 152.9, 97.7 151.6 Q 97.7 150.4, 97.2 149.7 Q 96.7 149.1, 95.7 149.1 Q 94.7 149.1, 94.2 149.7 Q 93.7 150.3, 93.7 151.6 Q 93.7 152.9, 94.2 153.5 Q 94.7 154.2, 95.7 154.2 " fill="#FF0000"/>
<path class="atom-35" d="M 99.6 148.4 L 100.5 148.4 L 100.5 151.1 L 103.8 151.1 L 103.8 148.4 L 104.6 148.4 L 104.6 154.8 L 103.8 154.8 L 103.8 151.9 L 100.5 151.9 L 100.5 154.8 L 99.6 154.8 L 99.6 148.4 " fill="#FF0000"/>
<path class="atom-37" d="M 219.2 24.2 Q 219.2 22.7, 220.0 21.8 Q 220.7 21.0, 222.1 21.0 Q 223.5 21.0, 224.3 21.8 Q 225.1 22.7, 225.1 24.2 Q 225.1 25.8, 224.3 26.7 Q 223.5 27.5, 222.1 27.5 Q 220.7 27.5, 220.0 26.7 Q 219.2 25.8, 219.2 24.2 M 222.1 26.8 Q 223.1 26.8, 223.6 26.2 Q 224.2 25.5, 224.2 24.2 Q 224.2 23.0, 223.6 22.3 Q 223.1 21.7, 222.1 21.7 Q 221.2 21.7, 220.6 22.3 Q 220.1 23.0, 220.1 24.2 Q 220.1 25.5, 220.6 26.2 Q 221.2 26.8, 222.1 26.8 " fill="#FF0000"/>
<path class="atom-38" d="M 175.9 33.2 L 176.7 33.2 L 176.7 35.9 L 180.0 35.9 L 180.0 33.2 L 180.8 33.2 L 180.8 39.6 L 180.0 39.6 L 180.0 36.6 L 176.7 36.6 L 176.7 39.6 L 175.9 39.6 L 175.9 33.2 " fill="#FF0000"/>
<path class="atom-38" d="M 182.2 36.3 Q 182.2 34.8, 182.9 34.0 Q 183.7 33.1, 185.1 33.1 Q 186.5 33.1, 187.3 34.0 Q 188.0 34.8, 188.0 36.3 Q 188.0 37.9, 187.2 38.8 Q 186.5 39.6, 185.1 39.6 Q 183.7 39.6, 182.9 38.8 Q 182.2 37.9, 182.2 36.3 M 185.1 38.9 Q 186.1 38.9, 186.6 38.3 Q 187.1 37.6, 187.1 36.3 Q 187.1 35.1, 186.6 34.5 Q 186.1 33.8, 185.1 33.8 Q 184.1 33.8, 183.6 34.5 Q 183.1 35.1, 183.1 36.3 Q 183.1 37.6, 183.6 38.3 Q 184.1 38.9, 185.1 38.9 " fill="#FF0000"/>
<path class="atom-40" d="M 325.6 86.5 Q 325.6 84.9, 326.4 84.1 Q 327.1 83.2, 328.5 83.2 Q 329.9 83.2, 330.7 84.1 Q 331.4 84.9, 331.4 86.5 Q 331.4 88.0, 330.7 88.9 Q 329.9 89.8, 328.5 89.8 Q 327.1 89.8, 326.4 88.9 Q 325.6 88.0, 325.6 86.5 M 328.5 89.1 Q 329.5 89.1, 330.0 88.4 Q 330.5 87.7, 330.5 86.5 Q 330.5 85.2, 330.0 84.6 Q 329.5 84.0, 328.5 84.0 Q 327.6 84.0, 327.0 84.6 Q 326.5 85.2, 326.5 86.5 Q 326.5 87.8, 327.0 88.4 Q 327.6 89.1, 328.5 89.1 " fill="#FF0000"/>
<path class="atom-41" d="M 299.6 115.5 Q 299.6 114.0, 300.3 113.1 Q 301.1 112.2, 302.5 112.2 Q 303.9 112.2, 304.7 113.1 Q 305.4 114.0, 305.4 115.5 Q 305.4 117.0, 304.7 117.9 Q 303.9 118.8, 302.5 118.8 Q 301.1 118.8, 300.3 117.9 Q 299.6 117.0, 299.6 115.5 M 302.5 118.1 Q 303.5 118.1, 304.0 117.4 Q 304.5 116.8, 304.5 115.5 Q 304.5 114.2, 304.0 113.6 Q 303.5 113.0, 302.5 113.0 Q 301.5 113.0, 301.0 113.6 Q 300.5 114.2, 300.5 115.5 Q 300.5 116.8, 301.0 117.4 Q 301.5 118.1, 302.5 118.1 " fill="#FF0000"/>
<path class="atom-41" d="M 306.4 112.3 L 307.3 112.3 L 307.3 115.0 L 310.5 115.0 L 310.5 112.3 L 311.4 112.3 L 311.4 118.7 L 310.5 118.7 L 310.5 115.7 L 307.3 115.7 L 307.3 118.7 L 306.4 118.7 L 306.4 112.3 " fill="#FF0000"/>
</g>
  </g>
</svg>
