<?xml version='1.0' encoding='ASCII' standalone='yes'?>
<svg xmlns="http://www.w3.org/2000/svg" xmlns:xlink="http://www.w3.org/1999/xlink" version="1.1" width="851.0px" viewBox="0 0 851.0 200.0" height="200.0px">
  <g>
    <g transform="translate(0, 0) scale(1 1) "><!-- END OF HEADER -->
<rect style="opacity:1.0;fill:#FFFFFF;stroke:none" width="301.0" height="200.0" x="0.0" y="0.0"> </rect>
<path class="bond-0 atom-0 atom-1" d="M 15.1,71.5 L 43.3,90.8" style="fill:none;fill-rule:evenodd;stroke:#000000;stroke-width:2.0px;stroke-linecap:butt;stroke-linejoin:miter;stroke-opacity:1"/>
<path class="bond-1 atom-1 atom-2" d="M 43.3,90.8 L 24.0,119.1" style="fill:none;fill-rule:evenodd;stroke:#000000;stroke-width:2.0px;stroke-linecap:butt;stroke-linejoin:miter;stroke-opacity:1"/>
<path class="bond-2 atom-2 atom-3" d="M 24.0,119.1 L 29.9,131.5" style="fill:none;fill-rule:evenodd;stroke:#000000;stroke-width:2.0px;stroke-linecap:butt;stroke-linejoin:miter;stroke-opacity:1"/>
<path class="bond-2 atom-2 atom-3" d="M 29.9,131.5 L 35.9,143.9" style="fill:none;fill-rule:evenodd;stroke:#FF0000;stroke-width:2.0px;stroke-linecap:butt;stroke-linejoin:miter;stroke-opacity:1"/>
<path class="bond-3 atom-1 atom-4" d="M 43.3,90.8 L 71.5,110.1" style="fill:none;fill-rule:evenodd;stroke:#000000;stroke-width:2.0px;stroke-linecap:butt;stroke-linejoin:miter;stroke-opacity:1"/>
<path class="bond-4 atom-4 atom-5" d="M 71.5,110.1 L 102.3,95.4" style="fill:none;fill-rule:evenodd;stroke:#000000;stroke-width:2.0px;stroke-linecap:butt;stroke-linejoin:miter;stroke-opacity:1"/>
<path class="bond-5 atom-5 atom-6" d="M 102.3,95.4 L 105.1,81.7" style="fill:none;fill-rule:evenodd;stroke:#000000;stroke-width:2.0px;stroke-linecap:butt;stroke-linejoin:miter;stroke-opacity:1"/>
<path class="bond-5 atom-5 atom-6" d="M 105.1,81.7 L 107.9,68.0" style="fill:none;fill-rule:evenodd;stroke:#FF0000;stroke-width:2.0px;stroke-linecap:butt;stroke-linejoin:miter;stroke-opacity:1"/>
<path class="bond-6 atom-5 atom-7" d="M 102.3,95.4 L 130.6,114.7" style="fill:none;fill-rule:evenodd;stroke:#000000;stroke-width:2.0px;stroke-linecap:butt;stroke-linejoin:miter;stroke-opacity:1"/>
<path class="bond-7 atom-7 atom-8" d="M 130.6,114.7 L 111.3,142.9" style="fill:none;fill-rule:evenodd;stroke:#000000;stroke-width:2.0px;stroke-linecap:butt;stroke-linejoin:miter;stroke-opacity:1"/>
<path class="bond-8 atom-7 atom-9" d="M 130.6,114.7 L 149.9,86.4" style="fill:none;fill-rule:evenodd;stroke:#000000;stroke-width:2.0px;stroke-linecap:butt;stroke-linejoin:miter;stroke-opacity:1"/>
<path class="bond-9 atom-9 atom-10" d="M 149.9,86.4 L 184.0,89.1" style="fill:none;fill-rule:evenodd;stroke:#000000;stroke-width:2.0px;stroke-linecap:butt;stroke-linejoin:miter;stroke-opacity:1"/>
<path class="bond-10 atom-10 atom-11" d="M 184.0,89.1 L 185.1,75.1" style="fill:none;fill-rule:evenodd;stroke:#000000;stroke-width:2.0px;stroke-linecap:butt;stroke-linejoin:miter;stroke-opacity:1"/>
<path class="bond-10 atom-10 atom-11" d="M 185.1,75.1 L 186.1,61.1" style="fill:none;fill-rule:evenodd;stroke:#FF0000;stroke-width:2.0px;stroke-linecap:butt;stroke-linejoin:miter;stroke-opacity:1"/>
<path class="bond-11 atom-10 atom-12" d="M 184.0,89.1 L 184.3,95.1" style="fill:none;fill-rule:evenodd;stroke:#000000;stroke-width:2.0px;stroke-linecap:butt;stroke-linejoin:miter;stroke-opacity:1"/>
<path class="bond-11 atom-10 atom-12" d="M 184.3,95.1 L 184.6,101.2" style="fill:none;fill-rule:evenodd;stroke:#FF0000;stroke-width:2.0px;stroke-linecap:butt;stroke-linejoin:miter;stroke-opacity:1"/>
<path class="bond-12 atom-10 atom-13" d="M 184.0,89.1 L 218.1,91.7" style="fill:none;fill-rule:evenodd;stroke:#000000;stroke-width:2.0px;stroke-linecap:butt;stroke-linejoin:miter;stroke-opacity:1"/>
<path class="bond-13 atom-13 atom-14" d="M 218.1,91.7 L 215.5,125.8" style="fill:none;fill-rule:evenodd;stroke:#000000;stroke-width:2.0px;stroke-linecap:butt;stroke-linejoin:miter;stroke-opacity:1"/>
<path class="bond-14 atom-13 atom-15" d="M 218.1,91.7 L 220.7,57.6" style="fill:none;fill-rule:evenodd;stroke:#000000;stroke-width:2.0px;stroke-linecap:butt;stroke-linejoin:miter;stroke-opacity:1"/>
<path class="bond-15 atom-13 atom-16" d="M 218.1,91.7 L 252.2,94.3" style="fill:none;fill-rule:evenodd;stroke:#000000;stroke-width:2.0px;stroke-linecap:butt;stroke-linejoin:miter;stroke-opacity:1"/>
<path class="bond-16 atom-16 atom-17" d="M 252.2,94.3 L 259.8,83.2" style="fill:none;fill-rule:evenodd;stroke:#000000;stroke-width:2.0px;stroke-linecap:butt;stroke-linejoin:miter;stroke-opacity:1"/>
<path class="bond-16 atom-16 atom-17" d="M 259.8,83.2 L 267.3,72.2" style="fill:none;fill-rule:evenodd;stroke:#FF0000;stroke-width:2.0px;stroke-linecap:butt;stroke-linejoin:miter;stroke-opacity:1"/>
<path class="bond-17 atom-7 atom-18" d="M 130.6,114.7 L 158.8,134.0" style="fill:none;fill-rule:evenodd;stroke:#000000;stroke-width:2.0px;stroke-linecap:butt;stroke-linejoin:miter;stroke-opacity:1"/>
<path class="bond-18 atom-18 atom-19" d="M 158.6,136.7 L 164.9,134.5" style="fill:none;fill-rule:evenodd;stroke:#000000;stroke-width:2.0px;stroke-linecap:butt;stroke-linejoin:miter;stroke-opacity:1"/>
<path class="bond-18 atom-18 atom-19" d="M 164.9,134.5 L 171.3,132.4" style="fill:none;fill-rule:evenodd;stroke:#FF0000;stroke-width:2.0px;stroke-linecap:butt;stroke-linejoin:miter;stroke-opacity:1"/>
<path class="bond-18 atom-18 atom-19" d="M 156.3,132.2 L 163.4,129.8" style="fill:none;fill-rule:evenodd;stroke:#000000;stroke-width:2.0px;stroke-linecap:butt;stroke-linejoin:miter;stroke-opacity:1"/>
<path class="bond-18 atom-18 atom-19" d="M 163.4,129.8 L 169.7,127.7" style="fill:none;fill-rule:evenodd;stroke:#FF0000;stroke-width:2.0px;stroke-linecap:butt;stroke-linejoin:miter;stroke-opacity:1"/>
<path class="bond-19 atom-18 atom-20" d="M 158.8,134.0 L 157.7,148.0" style="fill:none;fill-rule:evenodd;stroke:#000000;stroke-width:2.0px;stroke-linecap:butt;stroke-linejoin:miter;stroke-opacity:1"/>
<path class="bond-19 atom-18 atom-20" d="M 157.7,148.0 L 156.6,162.1" style="fill:none;fill-rule:evenodd;stroke:#FF0000;stroke-width:2.0px;stroke-linecap:butt;stroke-linejoin:miter;stroke-opacity:1"/>
<path class="bond-20 atom-1 atom-21" d="M 43.3,90.8 L 62.6,62.6" style="fill:none;fill-rule:evenodd;stroke:#000000;stroke-width:2.0px;stroke-linecap:butt;stroke-linejoin:miter;stroke-opacity:1"/>
<path class="bond-21 atom-21 atom-22" d="M 65.3,62.5 L 59.1,49.7" style="fill:none;fill-rule:evenodd;stroke:#000000;stroke-width:2.0px;stroke-linecap:butt;stroke-linejoin:miter;stroke-opacity:1"/>
<path class="bond-21 atom-21 atom-22" d="M 59.1,49.7 L 53.0,36.8" style="fill:none;fill-rule:evenodd;stroke:#FF0000;stroke-width:2.0px;stroke-linecap:butt;stroke-linejoin:miter;stroke-opacity:1"/>
<path class="bond-21 atom-21 atom-22" d="M 61.0,64.9 L 54.7,51.8" style="fill:none;fill-rule:evenodd;stroke:#000000;stroke-width:2.0px;stroke-linecap:butt;stroke-linejoin:miter;stroke-opacity:1"/>
<path class="bond-21 atom-21 atom-22" d="M 54.7,51.8 L 48.5,39.0" style="fill:none;fill-rule:evenodd;stroke:#FF0000;stroke-width:2.0px;stroke-linecap:butt;stroke-linejoin:miter;stroke-opacity:1"/>
<path class="bond-22 atom-21 atom-23" d="M 62.6,62.6 L 76.9,61.9" style="fill:none;fill-rule:evenodd;stroke:#000000;stroke-width:2.0px;stroke-linecap:butt;stroke-linejoin:miter;stroke-opacity:1"/>
<path class="bond-22 atom-21 atom-23" d="M 76.9,61.9 L 91.2,61.3" style="fill:none;fill-rule:evenodd;stroke:#FF0000;stroke-width:2.0px;stroke-linecap:butt;stroke-linejoin:miter;stroke-opacity:1"/>
<path d="M 24.9,117.6 L 24.0,119.1 L 24.3,119.7" style="fill:none;stroke:#000000;stroke-width:2.0px;stroke-linecap:butt;stroke-linejoin:miter;stroke-opacity:1;"/>
<path d="M 70.1,109.2 L 71.5,110.1 L 73.0,109.4" style="fill:none;stroke:#000000;stroke-width:2.0px;stroke-linecap:butt;stroke-linejoin:miter;stroke-opacity:1;"/>
<path d="M 148.9,87.9 L 149.9,86.4 L 151.6,86.6" style="fill:none;stroke:#000000;stroke-width:2.0px;stroke-linecap:butt;stroke-linejoin:miter;stroke-opacity:1;"/>
<path d="M 250.5,94.2 L 252.2,94.3 L 252.6,93.7" style="fill:none;stroke:#000000;stroke-width:2.0px;stroke-linecap:butt;stroke-linejoin:miter;stroke-opacity:1;"/>
<path d="M 157.4,133.0 L 158.8,134.0 L 158.7,134.7" style="fill:none;stroke:#000000;stroke-width:2.0px;stroke-linecap:butt;stroke-linejoin:miter;stroke-opacity:1;"/>
<path d="M 61.6,64.0 L 62.6,62.6 L 63.3,62.6" style="fill:none;stroke:#000000;stroke-width:2.0px;stroke-linecap:butt;stroke-linejoin:miter;stroke-opacity:1;"/>
<path class="atom-3" d="M 34.3 149.9 Q 34.3 147.6, 35.5 146.3 Q 36.6 145.0, 38.8 145.0 Q 40.9 145.0, 42.0 146.3 Q 43.2 147.6, 43.2 149.9 Q 43.2 152.3, 42.0 153.6 Q 40.9 154.9, 38.8 154.9 Q 36.6 154.9, 35.5 153.6 Q 34.3 152.3, 34.3 149.9 M 38.8 153.9 Q 40.2 153.9, 41.0 152.9 Q 41.8 151.9, 41.8 149.9 Q 41.8 148.0, 41.0 147.1 Q 40.2 146.1, 38.8 146.1 Q 37.3 146.1, 36.5 147.1 Q 35.7 148.0, 35.7 149.9 Q 35.7 151.9, 36.5 152.9 Q 37.3 153.9, 38.8 153.9 " fill="#FF0000"/>
<path class="atom-3" d="M 44.7 145.1 L 46.0 145.1 L 46.0 149.2 L 51.0 149.2 L 51.0 145.1 L 52.3 145.1 L 52.3 154.8 L 51.0 154.8 L 51.0 150.3 L 46.0 150.3 L 46.0 154.8 L 44.7 154.8 L 44.7 145.1 " fill="#FF0000"/>
<path class="atom-6" d="M 104.7 61.9 Q 104.7 59.5, 105.8 58.2 Q 107.0 56.9, 109.1 56.9 Q 111.2 56.9, 112.4 58.2 Q 113.5 59.5, 113.5 61.9 Q 113.5 64.2, 112.4 65.5 Q 111.2 66.9, 109.1 66.9 Q 107.0 66.9, 105.8 65.5 Q 104.7 64.2, 104.7 61.9 M 109.1 65.8 Q 110.6 65.8, 111.4 64.8 Q 112.2 63.8, 112.2 61.9 Q 112.2 60.0, 111.4 59.0 Q 110.6 58.0, 109.1 58.0 Q 107.6 58.0, 106.8 59.0 Q 106.0 59.9, 106.0 61.9 Q 106.0 63.8, 106.8 64.8 Q 107.6 65.8, 109.1 65.8 " fill="#FF0000"/>
<path class="atom-6" d="M 115.1 57.0 L 116.4 57.0 L 116.4 61.2 L 121.3 61.2 L 121.3 57.0 L 122.6 57.0 L 122.6 66.7 L 121.3 66.7 L 121.3 62.2 L 116.4 62.2 L 116.4 66.7 L 115.1 66.7 L 115.1 57.0 " fill="#FF0000"/>
<path class="atom-11" d="M 182.2 55.0 Q 182.2 52.7, 183.3 51.4 Q 184.5 50.1, 186.6 50.1 Q 188.8 50.1, 189.9 51.4 Q 191.1 52.7, 191.1 55.0 Q 191.1 57.3, 189.9 58.7 Q 188.7 60.0, 186.6 60.0 Q 184.5 60.0, 183.3 58.7 Q 182.2 57.3, 182.2 55.0 M 186.6 58.9 Q 188.1 58.9, 188.9 57.9 Q 189.7 56.9, 189.7 55.0 Q 189.7 53.1, 188.9 52.1 Q 188.1 51.1, 186.6 51.1 Q 185.1 51.1, 184.3 52.1 Q 183.5 53.1, 183.5 55.0 Q 183.5 56.9, 184.3 57.9 Q 185.1 58.9, 186.6 58.9 " fill="#FF0000"/>
<path class="atom-11" d="M 192.6 50.2 L 193.9 50.2 L 193.9 54.3 L 198.8 54.3 L 198.8 50.2 L 200.1 50.2 L 200.1 59.8 L 198.8 59.8 L 198.8 55.4 L 193.9 55.4 L 193.9 59.8 L 192.6 59.8 L 192.6 50.2 " fill="#FF0000"/>
<path class="atom-12" d="M 180.4 107.2 Q 180.4 104.9, 181.5 103.6 Q 182.7 102.3, 184.8 102.3 Q 187.0 102.3, 188.1 103.6 Q 189.3 104.9, 189.3 107.2 Q 189.3 109.6, 188.1 110.9 Q 186.9 112.3, 184.8 112.3 Q 182.7 112.3, 181.5 110.9 Q 180.4 109.6, 180.4 107.2 M 184.8 111.2 Q 186.3 111.2, 187.1 110.2 Q 187.9 109.2, 187.9 107.2 Q 187.9 105.3, 187.1 104.4 Q 186.3 103.4, 184.8 103.4 Q 183.3 103.4, 182.5 104.4 Q 181.7 105.3, 181.7 107.2 Q 181.7 109.2, 182.5 110.2 Q 183.3 111.2, 184.8 111.2 " fill="#FF0000"/>
<path class="atom-12" d="M 190.8 102.4 L 192.1 102.4 L 192.1 106.5 L 197.0 106.5 L 197.0 102.4 L 198.4 102.4 L 198.4 112.1 L 197.0 112.1 L 197.0 107.6 L 192.1 107.6 L 192.1 112.1 L 190.8 112.1 L 190.8 102.4 " fill="#FF0000"/>
<path class="atom-17" d="M 267.1 66.1 Q 267.1 63.8, 268.2 62.5 Q 269.4 61.2, 271.5 61.2 Q 273.7 61.2, 274.8 62.5 Q 276.0 63.8, 276.0 66.1 Q 276.0 68.4, 274.8 69.8 Q 273.6 71.1, 271.5 71.1 Q 269.4 71.1, 268.2 69.8 Q 267.1 68.4, 267.1 66.1 M 271.5 70.0 Q 273.0 70.0, 273.8 69.0 Q 274.6 68.0, 274.6 66.1 Q 274.6 64.2, 273.8 63.2 Q 273.0 62.2, 271.5 62.2 Q 270.0 62.2, 269.2 63.2 Q 268.4 64.2, 268.4 66.1 Q 268.4 68.0, 269.2 69.0 Q 270.0 70.0, 271.5 70.0 " fill="#FF0000"/>
<path class="atom-17" d="M 277.5 61.3 L 278.8 61.3 L 278.8 65.4 L 283.7 65.4 L 283.7 61.3 L 285.1 61.3 L 285.1 71.0 L 283.7 71.0 L 283.7 66.5 L 278.8 66.5 L 278.8 71.0 L 277.5 71.0 L 277.5 61.3 " fill="#FF0000"/>
<path class="atom-19" d="M 171.6 128.2 Q 171.6 125.9, 172.7 124.6 Q 173.9 123.3, 176.0 123.3 Q 178.2 123.3, 179.3 124.6 Q 180.5 125.9, 180.5 128.2 Q 180.5 130.6, 179.3 131.9 Q 178.2 133.2, 176.0 133.2 Q 173.9 133.2, 172.7 131.9 Q 171.6 130.6, 171.6 128.2 M 176.0 132.1 Q 177.5 132.1, 178.3 131.2 Q 179.1 130.2, 179.1 128.2 Q 179.1 126.3, 178.3 125.4 Q 177.5 124.4, 176.0 124.4 Q 174.6 124.4, 173.7 125.3 Q 173.0 126.3, 173.0 128.2 Q 173.0 130.2, 173.7 131.2 Q 174.6 132.1, 176.0 132.1 " fill="#FF0000"/>
<path class="atom-20" d="M 151.7 168.1 Q 151.7 165.8, 152.9 164.5 Q 154.0 163.2, 156.2 163.2 Q 158.3 163.2, 159.5 164.5 Q 160.6 165.8, 160.6 168.1 Q 160.6 170.5, 159.5 171.8 Q 158.3 173.1, 156.2 173.1 Q 154.1 173.1, 152.9 171.8 Q 151.7 170.5, 151.7 168.1 M 156.2 172.0 Q 157.7 172.0, 158.5 171.1 Q 159.3 170.1, 159.3 168.1 Q 159.3 166.2, 158.5 165.3 Q 157.7 164.3, 156.2 164.3 Q 154.7 164.3, 153.9 165.2 Q 153.1 166.2, 153.1 168.1 Q 153.1 170.1, 153.9 171.1 Q 154.7 172.0, 156.2 172.0 " fill="#FF0000"/>
<path class="atom-20" d="M 162.1 163.3 L 163.5 163.3 L 163.5 167.4 L 168.4 167.4 L 168.4 163.3 L 169.7 163.3 L 169.7 173.0 L 168.4 173.0 L 168.4 168.5 L 163.5 168.5 L 163.5 173.0 L 162.1 173.0 L 162.1 163.3 " fill="#FF0000"/>
<path class="atom-22" d="M 43.4 31.8 Q 43.4 29.5, 44.5 28.2 Q 45.7 26.9, 47.8 26.9 Q 50.0 26.9, 51.1 28.2 Q 52.3 29.5, 52.3 31.8 Q 52.3 34.1, 51.1 35.5 Q 49.9 36.8, 47.8 36.8 Q 45.7 36.8, 44.5 35.5 Q 43.4 34.2, 43.4 31.8 M 47.8 35.7 Q 49.3 35.7, 50.1 34.7 Q 50.9 33.7, 50.9 31.8 Q 50.9 29.9, 50.1 28.9 Q 49.3 28.0, 47.8 28.0 Q 46.3 28.0, 45.5 28.9 Q 44.7 29.9, 44.7 31.8 Q 44.7 33.7, 45.5 34.7 Q 46.3 35.7, 47.8 35.7 " fill="#FF0000"/>
<path class="atom-23" d="M 92.3 61.1 Q 92.3 58.7, 93.5 57.4 Q 94.6 56.1, 96.8 56.1 Q 98.9 56.1, 100.1 57.4 Q 101.2 58.7, 101.2 61.1 Q 101.2 63.4, 100.0 64.8 Q 98.9 66.1, 96.8 66.1 Q 94.6 66.1, 93.5 64.8 Q 92.3 63.4, 92.3 61.1 M 96.8 65.0 Q 98.2 65.0, 99.0 64.0 Q 99.8 63.0, 99.8 61.1 Q 99.8 59.2, 99.0 58.2 Q 98.2 57.2, 96.8 57.2 Q 95.3 57.2, 94.5 58.2 Q 93.7 59.2, 93.7 61.1 Q 93.7 63.0, 94.5 64.0 Q 95.3 65.0, 96.8 65.0 " fill="#FF0000"/>
<path class="atom-23" d="M 102.7 56.2 L 104.0 56.2 L 104.0 60.4 L 109.0 60.4 L 109.0 56.2 L 110.3 56.2 L 110.3 65.9 L 109.0 65.9 L 109.0 61.5 L 104.0 61.5 L 104.0 65.9 L 102.7 65.9 L 102.7 56.2 " fill="#FF0000"/>
</g>
    <g transform="translate(301.0, 0) scale(1 1) "><line x1="5" y1="100" x2="35" y2="100" style="stroke:rgb(0,0,0);stroke-width:2"/>
  <line x1="34" y1="100" x2="29" y2="95" style="stroke:rgb(0,0,0);stroke-width:2"/>
  <line x1="34" y1="100" x2="29" y2="105" style="stroke:rgb(0,0,0);stroke-width:2"/>
</g>
    <g transform="translate(341.0, 0) scale(1 1) "><!-- END OF HEADER -->
<rect style="opacity:1.0;fill:#FFFFFF;stroke:none" width="265.0" height="200.0" x="0.0" y="0.0"> </rect>
<path class="bond-0 atom-0 atom-1" d="M 42.9,87.4 L 79.2,99.9" style="fill:none;fill-rule:evenodd;stroke:#000000;stroke-width:2.0px;stroke-linecap:butt;stroke-linejoin:miter;stroke-opacity:1"/>
<path class="bond-1 atom-1 atom-2" d="M 79.2,99.9 L 91.7,63.6" style="fill:none;fill-rule:evenodd;stroke:#000000;stroke-width:2.0px;stroke-linecap:butt;stroke-linejoin:miter;stroke-opacity:1"/>
<path class="bond-2 atom-2 atom-3" d="M 91.7,63.6 L 82.1,52.5" style="fill:none;fill-rule:evenodd;stroke:#000000;stroke-width:2.0px;stroke-linecap:butt;stroke-linejoin:miter;stroke-opacity:1"/>
<path class="bond-2 atom-2 atom-3" d="M 82.1,52.5 L 72.5,41.5" style="fill:none;fill-rule:evenodd;stroke:#FF0000;stroke-width:2.0px;stroke-linecap:butt;stroke-linejoin:miter;stroke-opacity:1"/>
<path class="bond-3 atom-1 atom-4" d="M 79.2,99.9 L 115.6,112.4" style="fill:none;fill-rule:evenodd;stroke:#000000;stroke-width:2.0px;stroke-linecap:butt;stroke-linejoin:miter;stroke-opacity:1"/>
<path class="bond-4 atom-4 atom-5" d="M 115.6,112.4 L 144.6,87.2" style="fill:none;fill-rule:evenodd;stroke:#000000;stroke-width:2.0px;stroke-linecap:butt;stroke-linejoin:miter;stroke-opacity:1"/>
<path class="bond-5 atom-5 atom-6" d="M 144.6,87.2 L 141.5,71.8" style="fill:none;fill-rule:evenodd;stroke:#000000;stroke-width:2.0px;stroke-linecap:butt;stroke-linejoin:miter;stroke-opacity:1"/>
<path class="bond-5 atom-5 atom-6" d="M 141.5,71.8 L 138.5,56.4" style="fill:none;fill-rule:evenodd;stroke:#FF0000;stroke-width:2.0px;stroke-linecap:butt;stroke-linejoin:miter;stroke-opacity:1"/>
<path class="bond-6 atom-5 atom-7" d="M 144.6,87.2 L 180.9,99.6" style="fill:none;fill-rule:evenodd;stroke:#000000;stroke-width:2.0px;stroke-linecap:butt;stroke-linejoin:miter;stroke-opacity:1"/>
<path class="bond-7 atom-7 atom-8" d="M 180.9,99.6 L 168.4,136.0" style="fill:none;fill-rule:evenodd;stroke:#000000;stroke-width:2.0px;stroke-linecap:butt;stroke-linejoin:miter;stroke-opacity:1"/>
<path class="bond-8 atom-7 atom-9" d="M 180.9,99.6 L 193.4,63.3" style="fill:none;fill-rule:evenodd;stroke:#000000;stroke-width:2.0px;stroke-linecap:butt;stroke-linejoin:miter;stroke-opacity:1"/>
<path class="bond-9 atom-7 atom-10" d="M 180.9,99.6 L 217.3,112.1" style="fill:none;fill-rule:evenodd;stroke:#000000;stroke-width:2.0px;stroke-linecap:butt;stroke-linejoin:miter;stroke-opacity:1"/>
<path class="bond-10 atom-10 atom-11" d="M 217.9,115.4 L 229.9,105.0" style="fill:none;fill-rule:evenodd;stroke:#000000;stroke-width:2.0px;stroke-linecap:butt;stroke-linejoin:miter;stroke-opacity:1"/>
<path class="bond-10 atom-10 atom-11" d="M 229.9,105.0 L 241.9,94.5" style="fill:none;fill-rule:evenodd;stroke:#FF0000;stroke-width:2.0px;stroke-linecap:butt;stroke-linejoin:miter;stroke-opacity:1"/>
<path class="bond-10 atom-10 atom-11" d="M 214.1,111.0 L 226.1,100.6" style="fill:none;fill-rule:evenodd;stroke:#000000;stroke-width:2.0px;stroke-linecap:butt;stroke-linejoin:miter;stroke-opacity:1"/>
<path class="bond-10 atom-10 atom-11" d="M 226.1,100.6 L 238.1,90.2" style="fill:none;fill-rule:evenodd;stroke:#FF0000;stroke-width:2.0px;stroke-linecap:butt;stroke-linejoin:miter;stroke-opacity:1"/>
<path class="bond-11 atom-10 atom-12" d="M 217.3,112.1 L 220.3,127.6" style="fill:none;fill-rule:evenodd;stroke:#000000;stroke-width:2.0px;stroke-linecap:butt;stroke-linejoin:miter;stroke-opacity:1"/>
<path class="bond-11 atom-10 atom-12" d="M 220.3,127.6 L 223.3,143.1" style="fill:none;fill-rule:evenodd;stroke:#FF0000;stroke-width:2.0px;stroke-linecap:butt;stroke-linejoin:miter;stroke-opacity:1"/>
<path class="bond-12 atom-1 atom-13" d="M 79.2,99.9 L 66.7,136.3" style="fill:none;fill-rule:evenodd;stroke:#000000;stroke-width:2.0px;stroke-linecap:butt;stroke-linejoin:miter;stroke-opacity:1"/>
<path class="bond-13 atom-13 atom-14" d="M 63.5,136.9 L 73.7,148.6" style="fill:none;fill-rule:evenodd;stroke:#000000;stroke-width:2.0px;stroke-linecap:butt;stroke-linejoin:miter;stroke-opacity:1"/>
<path class="bond-13 atom-13 atom-14" d="M 73.7,148.6 L 83.9,160.4" style="fill:none;fill-rule:evenodd;stroke:#FF0000;stroke-width:2.0px;stroke-linecap:butt;stroke-linejoin:miter;stroke-opacity:1"/>
<path class="bond-13 atom-13 atom-14" d="M 67.8,133.1 L 78.0,144.9" style="fill:none;fill-rule:evenodd;stroke:#000000;stroke-width:2.0px;stroke-linecap:butt;stroke-linejoin:miter;stroke-opacity:1"/>
<path class="bond-13 atom-13 atom-14" d="M 78.0,144.9 L 88.2,156.6" style="fill:none;fill-rule:evenodd;stroke:#FF0000;stroke-width:2.0px;stroke-linecap:butt;stroke-linejoin:miter;stroke-opacity:1"/>
<path class="bond-14 atom-13 atom-15" d="M 66.7,136.3 L 51.0,139.3" style="fill:none;fill-rule:evenodd;stroke:#000000;stroke-width:2.0px;stroke-linecap:butt;stroke-linejoin:miter;stroke-opacity:1"/>
<path class="bond-14 atom-13 atom-15" d="M 51.0,139.3 L 35.3,142.4" style="fill:none;fill-rule:evenodd;stroke:#FF0000;stroke-width:2.0px;stroke-linecap:butt;stroke-linejoin:miter;stroke-opacity:1"/>
<path d="M 91.1,65.4 L 91.7,63.6 L 91.2,63.0" style="fill:none;stroke:#000000;stroke-width:2.0px;stroke-linecap:butt;stroke-linejoin:miter;stroke-opacity:1;"/>
<path d="M 113.7,111.8 L 115.6,112.4 L 117.0,111.1" style="fill:none;stroke:#000000;stroke-width:2.0px;stroke-linecap:butt;stroke-linejoin:miter;stroke-opacity:1;"/>
<path d="M 215.4,111.5 L 217.3,112.1 L 217.4,112.9" style="fill:none;stroke:#000000;stroke-width:2.0px;stroke-linecap:butt;stroke-linejoin:miter;stroke-opacity:1;"/>
<path d="M 67.3,134.5 L 66.7,136.3 L 65.9,136.4" style="fill:none;stroke:#000000;stroke-width:2.0px;stroke-linecap:butt;stroke-linejoin:miter;stroke-opacity:1;"/>
<path class="atom-3" d="M 50.7 29.2 L 52.2 29.2 L 52.2 33.8 L 57.7 33.8 L 57.7 29.2 L 59.2 29.2 L 59.2 40.1 L 57.7 40.1 L 57.7 35.0 L 52.2 35.0 L 52.2 40.1 L 50.7 40.1 L 50.7 29.2 " fill="#FF0000"/>
<path class="atom-3" d="M 61.5 34.6 Q 61.5 32.0, 62.7 30.5 Q 64.0 29.1, 66.4 29.1 Q 68.9 29.1, 70.2 30.5 Q 71.4 32.0, 71.4 34.6 Q 71.4 37.2, 70.1 38.8 Q 68.8 40.2, 66.4 40.2 Q 64.1 40.2, 62.7 38.8 Q 61.5 37.3, 61.5 34.6 M 66.4 39.0 Q 68.1 39.0, 69.0 37.9 Q 69.9 36.8, 69.9 34.6 Q 69.9 32.5, 69.0 31.4 Q 68.1 30.3, 66.4 30.3 Q 64.8 30.3, 63.9 31.4 Q 63.0 32.4, 63.0 34.6 Q 63.0 36.8, 63.9 37.9 Q 64.8 39.0, 66.4 39.0 " fill="#FF0000"/>
<path class="atom-6" d="M 132.2 49.5 Q 132.2 46.8, 133.5 45.4 Q 134.8 43.9, 137.2 43.9 Q 139.6 43.9, 140.9 45.4 Q 142.2 46.8, 142.2 49.5 Q 142.2 52.1, 140.9 53.6 Q 139.6 55.1, 137.2 55.1 Q 134.8 55.1, 133.5 53.6 Q 132.2 52.1, 132.2 49.5 M 137.2 53.9 Q 138.8 53.9, 139.7 52.8 Q 140.6 51.6, 140.6 49.5 Q 140.6 47.3, 139.7 46.2 Q 138.8 45.2, 137.2 45.2 Q 135.5 45.2, 134.6 46.2 Q 133.7 47.3, 133.7 49.5 Q 133.7 51.7, 134.6 52.8 Q 135.5 53.9, 137.2 53.9 " fill="#FF0000"/>
<path class="atom-6" d="M 143.9 44.0 L 145.4 44.0 L 145.4 48.7 L 150.9 48.7 L 150.9 44.0 L 152.4 44.0 L 152.4 54.9 L 150.9 54.9 L 150.9 49.9 L 145.4 49.9 L 145.4 54.9 L 143.9 54.9 L 143.9 44.0 " fill="#FF0000"/>
<path class="atom-11" d="M 241.3 86.9 Q 241.3 84.3, 242.5 82.8 Q 243.8 81.4, 246.3 81.4 Q 248.7 81.4, 250.0 82.8 Q 251.2 84.3, 251.2 86.9 Q 251.2 89.6, 249.9 91.1 Q 248.6 92.6, 246.3 92.6 Q 243.9 92.6, 242.5 91.1 Q 241.3 89.6, 241.3 86.9 M 246.3 91.3 Q 247.9 91.3, 248.8 90.2 Q 249.7 89.1, 249.7 86.9 Q 249.7 84.8, 248.8 83.7 Q 247.9 82.6, 246.3 82.6 Q 244.6 82.6, 243.7 83.7 Q 242.8 84.8, 242.8 86.9 Q 242.8 89.1, 243.7 90.2 Q 244.6 91.3, 246.3 91.3 " fill="#FF0000"/>
<path class="atom-12" d="M 219.6 149.9 Q 219.6 147.3, 220.9 145.8 Q 222.2 144.3, 224.6 144.3 Q 227.0 144.3, 228.3 145.8 Q 229.6 147.3, 229.6 149.9 Q 229.6 152.5, 228.3 154.0 Q 227.0 155.5, 224.6 155.5 Q 222.2 155.5, 220.9 154.0 Q 219.6 152.5, 219.6 149.9 M 224.6 154.3 Q 226.3 154.3, 227.2 153.2 Q 228.1 152.1, 228.1 149.9 Q 228.1 147.7, 227.2 146.7 Q 226.3 145.6, 224.6 145.6 Q 223.0 145.6, 222.1 146.7 Q 221.2 147.7, 221.2 149.9 Q 221.2 152.1, 222.1 153.2 Q 223.0 154.3, 224.6 154.3 " fill="#FF0000"/>
<path class="atom-12" d="M 231.3 144.5 L 232.8 144.5 L 232.8 149.1 L 238.4 149.1 L 238.4 144.5 L 239.8 144.5 L 239.8 155.4 L 238.4 155.4 L 238.4 150.3 L 232.8 150.3 L 232.8 155.4 L 231.3 155.4 L 231.3 144.5 " fill="#FF0000"/>
<path class="atom-14" d="M 87.0 165.3 Q 87.0 162.7, 88.3 161.2 Q 89.6 159.8, 92.0 159.8 Q 94.4 159.8, 95.7 161.2 Q 97.0 162.7, 97.0 165.3 Q 97.0 167.9, 95.7 169.4 Q 94.4 170.9, 92.0 170.9 Q 89.6 170.9, 88.3 169.4 Q 87.0 168.0, 87.0 165.3 M 92.0 169.7 Q 93.6 169.7, 94.5 168.6 Q 95.4 167.5, 95.4 165.3 Q 95.4 163.2, 94.5 162.1 Q 93.6 161.0, 92.0 161.0 Q 90.3 161.0, 89.4 162.1 Q 88.5 163.1, 88.5 165.3 Q 88.5 167.5, 89.4 168.6 Q 90.3 169.7, 92.0 169.7 " fill="#FF0000"/>
<path class="atom-15" d="M 13.2 138.3 L 14.7 138.3 L 14.7 142.9 L 20.3 142.9 L 20.3 138.3 L 21.8 138.3 L 21.8 149.1 L 20.3 149.1 L 20.3 144.1 L 14.7 144.1 L 14.7 149.1 L 13.2 149.1 L 13.2 138.3 " fill="#FF0000"/>
<path class="atom-15" d="M 24.0 143.7 Q 24.0 141.1, 25.3 139.6 Q 26.6 138.1, 29.0 138.1 Q 31.4 138.1, 32.7 139.6 Q 34.0 141.1, 34.0 143.7 Q 34.0 146.3, 32.7 147.8 Q 31.4 149.3, 29.0 149.3 Q 26.6 149.3, 25.3 147.8 Q 24.0 146.3, 24.0 143.7 M 29.0 148.1 Q 30.7 148.1, 31.6 147.0 Q 32.5 145.9, 32.5 143.7 Q 32.5 141.5, 31.6 140.5 Q 30.7 139.4, 29.0 139.4 Q 27.3 139.4, 26.4 140.4 Q 25.5 141.5, 25.5 143.7 Q 25.5 145.9, 26.4 147.0 Q 27.3 148.1, 29.0 148.1 " fill="#FF0000"/>
</g>
    <g transform="translate(606.0, 0) scale(1 1) "><line x1="15" y1="100" x2="25" y2="100" style="stroke:rgb(0,0,0);stroke-width:2"/>
  <line x1="20" y1="95" x2="20" y2="105" style="stroke:rgb(0,0,0);stroke-width:2"/>
</g>
    <g transform="translate(646.0, 0) scale(1 1) "><!-- END OF HEADER -->
<rect style="opacity:1.0;fill:#FFFFFF;stroke:none" width="205.0" height="200.0" x="0.0" y="0.0"> </rect>
<path class="bond-0 atom-0 atom-1" d="M 122.6,44.3 L 108.8,89.2" style="fill:none;fill-rule:evenodd;stroke:#000000;stroke-width:2.0px;stroke-linecap:butt;stroke-linejoin:miter;stroke-opacity:1"/>
<path class="bond-1 atom-1 atom-2" d="M 108.8,89.2 L 95.0,134.1" style="fill:none;fill-rule:evenodd;stroke:#000000;stroke-width:2.0px;stroke-linecap:butt;stroke-linejoin:miter;stroke-opacity:1"/>
<path class="bond-2 atom-1 atom-3" d="M 108.8,89.2 L 63.9,75.4" style="fill:none;fill-rule:evenodd;stroke:#000000;stroke-width:2.0px;stroke-linecap:butt;stroke-linejoin:miter;stroke-opacity:1"/>
<path class="bond-3 atom-3 atom-4" d="M 63.9,75.4 L 50.5,87.9" style="fill:none;fill-rule:evenodd;stroke:#000000;stroke-width:2.0px;stroke-linecap:butt;stroke-linejoin:miter;stroke-opacity:1"/>
<path class="bond-3 atom-3 atom-4" d="M 50.5,87.9 L 37.2,100.3" style="fill:none;fill-rule:evenodd;stroke:#FF0000;stroke-width:2.0px;stroke-linecap:butt;stroke-linejoin:miter;stroke-opacity:1"/>
<path class="bond-4 atom-1 atom-5" d="M 108.8,89.2 L 153.7,103.0" style="fill:none;fill-rule:evenodd;stroke:#000000;stroke-width:2.0px;stroke-linecap:butt;stroke-linejoin:miter;stroke-opacity:1"/>
<path class="bond-5 atom-5 atom-6" d="M 154.7,107.0 L 168.8,93.8" style="fill:none;fill-rule:evenodd;stroke:#000000;stroke-width:2.0px;stroke-linecap:butt;stroke-linejoin:miter;stroke-opacity:1"/>
<path class="bond-5 atom-5 atom-6" d="M 168.8,93.8 L 182.9,80.7" style="fill:none;fill-rule:evenodd;stroke:#FF0000;stroke-width:2.0px;stroke-linecap:butt;stroke-linejoin:miter;stroke-opacity:1"/>
<path class="bond-5 atom-5 atom-6" d="M 149.9,101.8 L 164.0,88.7" style="fill:none;fill-rule:evenodd;stroke:#000000;stroke-width:2.0px;stroke-linecap:butt;stroke-linejoin:miter;stroke-opacity:1"/>
<path class="bond-5 atom-5 atom-6" d="M 164.0,88.7 L 178.1,75.5" style="fill:none;fill-rule:evenodd;stroke:#FF0000;stroke-width:2.0px;stroke-linecap:butt;stroke-linejoin:miter;stroke-opacity:1"/>
<path class="bond-6 atom-5 atom-7" d="M 153.7,103.0 L 158.0,121.7" style="fill:none;fill-rule:evenodd;stroke:#000000;stroke-width:2.0px;stroke-linecap:butt;stroke-linejoin:miter;stroke-opacity:1"/>
<path class="bond-6 atom-5 atom-7" d="M 158.0,121.7 L 162.4,140.5" style="fill:none;fill-rule:evenodd;stroke:#FF0000;stroke-width:2.0px;stroke-linecap:butt;stroke-linejoin:miter;stroke-opacity:1"/>
<path d="M 66.1,76.1 L 63.9,75.4 L 63.2,76.0" style="fill:none;stroke:#000000;stroke-width:2.0px;stroke-linecap:butt;stroke-linejoin:miter;stroke-opacity:1;"/>
<path d="M 151.5,102.3 L 153.7,103.0 L 154.0,103.9" style="fill:none;stroke:#000000;stroke-width:2.0px;stroke-linecap:butt;stroke-linejoin:miter;stroke-opacity:1;"/>
<path class="atom-4" d="M 10.2 100.8 L 12.1 100.8 L 12.1 106.5 L 18.9 106.5 L 18.9 100.8 L 20.7 100.8 L 20.7 114.1 L 18.9 114.1 L 18.9 108.0 L 12.1 108.0 L 12.1 114.1 L 10.2 114.1 L 10.2 100.8 " fill="#FF0000"/>
<path class="atom-4" d="M 23.4 107.5 Q 23.4 104.3, 25.0 102.5 Q 26.5 100.7, 29.5 100.7 Q 32.5 100.7, 34.0 102.5 Q 35.6 104.3, 35.6 107.5 Q 35.6 110.7, 34.0 112.5 Q 32.4 114.4, 29.5 114.4 Q 26.6 114.4, 25.0 112.5 Q 23.4 110.7, 23.4 107.5 M 29.5 112.9 Q 31.5 112.9, 32.6 111.5 Q 33.7 110.1, 33.7 107.5 Q 33.7 104.8, 32.6 103.5 Q 31.5 102.2, 29.5 102.2 Q 27.5 102.2, 26.4 103.5 Q 25.3 104.8, 25.3 107.5 Q 25.3 110.1, 26.4 111.5 Q 27.5 112.9, 29.5 112.9 " fill="#FF0000"/>
<path class="atom-6" d="M 182.0 71.0 Q 182.0 67.8, 183.6 66.0 Q 185.2 64.3, 188.1 64.3 Q 191.1 64.3, 192.7 66.0 Q 194.3 67.8, 194.3 71.0 Q 194.3 74.3, 192.7 76.1 Q 191.1 77.9, 188.1 77.9 Q 185.2 77.9, 183.6 76.1 Q 182.0 74.3, 182.0 71.0 M 188.1 76.4 Q 190.2 76.4, 191.3 75.1 Q 192.4 73.7, 192.4 71.0 Q 192.4 68.4, 191.3 67.1 Q 190.2 65.8, 188.1 65.8 Q 186.1 65.8, 185.0 67.1 Q 183.9 68.4, 183.9 71.0 Q 183.9 73.7, 185.0 75.1 Q 186.1 76.4, 188.1 76.4 " fill="#FF0000"/>
<path class="atom-7" d="M 158.2 148.8 Q 158.2 145.6, 159.7 143.8 Q 161.3 142.1, 164.3 142.1 Q 167.2 142.1, 168.8 143.8 Q 170.4 145.6, 170.4 148.8 Q 170.4 152.1, 168.8 153.9 Q 167.2 155.7, 164.3 155.7 Q 161.3 155.7, 159.7 153.9 Q 158.2 152.1, 158.2 148.8 M 164.3 154.2 Q 166.3 154.2, 167.4 152.9 Q 168.5 151.5, 168.5 148.8 Q 168.5 146.2, 167.4 144.9 Q 166.3 143.6, 164.3 143.6 Q 162.2 143.6, 161.1 144.9 Q 160.0 146.2, 160.0 148.8 Q 160.0 151.5, 161.1 152.9 Q 162.2 154.2, 164.3 154.2 " fill="#FF0000"/>
<path class="atom-7" d="M 172.4 142.2 L 174.2 142.2 L 174.2 147.9 L 181.0 147.9 L 181.0 142.2 L 182.9 142.2 L 182.9 155.5 L 181.0 155.5 L 181.0 149.4 L 174.2 149.4 L 174.2 155.5 L 172.4 155.5 L 172.4 142.2 " fill="#FF0000"/>
</g>
  </g>
</svg>
