<?xml version='1.0' encoding='ASCII' standalone='yes'?>
<svg xmlns="http://www.w3.org/2000/svg" xmlns:xlink="http://www.w3.org/1999/xlink" version="1.1" width="938.0px" viewBox="0 0 938.0 200.0" height="200.0px">
  <g>
    <g transform="translate(0, 0) scale(1 1) "><!-- END OF HEADER -->
<rect style="opacity:1.0;fill:#FFFFFF;stroke:none" width="304.0" height="200.0" x="0.0" y="0.0"> </rect>
<path class="bond-0 atom-0 atom-1" d="M 40.7,113.9 L 63.8,97.3" style="fill:none;fill-rule:evenodd;stroke:#000000;stroke-width:2.0px;stroke-linecap:butt;stroke-linejoin:miter;stroke-opacity:1"/>
<path class="bond-1 atom-1 atom-2" d="M 63.8,97.3 L 80.4,120.4" style="fill:none;fill-rule:evenodd;stroke:#000000;stroke-width:2.0px;stroke-linecap:butt;stroke-linejoin:miter;stroke-opacity:1"/>
<path class="bond-2 atom-2 atom-3" d="M 80.4,120.4 L 92.3,119.2" style="fill:none;fill-rule:evenodd;stroke:#000000;stroke-width:2.0px;stroke-linecap:butt;stroke-linejoin:miter;stroke-opacity:1"/>
<path class="bond-2 atom-2 atom-3" d="M 92.3,119.2 L 104.1,118.0" style="fill:none;fill-rule:evenodd;stroke:#FF0000;stroke-width:2.0px;stroke-linecap:butt;stroke-linejoin:miter;stroke-opacity:1"/>
<path class="bond-3 atom-1 atom-4" d="M 63.8,97.3 L 86.9,80.7" style="fill:none;fill-rule:evenodd;stroke:#000000;stroke-width:2.0px;stroke-linecap:butt;stroke-linejoin:miter;stroke-opacity:1"/>
<path class="bond-4 atom-4 atom-5" d="M 86.9,80.7 L 112.9,92.4" style="fill:none;fill-rule:evenodd;stroke:#000000;stroke-width:2.0px;stroke-linecap:butt;stroke-linejoin:miter;stroke-opacity:1"/>
<path class="bond-5 atom-5 atom-6" d="M 112.9,92.4 L 136.0,75.8" style="fill:none;fill-rule:evenodd;stroke:#000000;stroke-width:2.0px;stroke-linecap:butt;stroke-linejoin:miter;stroke-opacity:1"/>
<path class="bond-6 atom-6 atom-7" d="M 136.0,75.8 L 161.9,87.5" style="fill:none;fill-rule:evenodd;stroke:#000000;stroke-width:2.0px;stroke-linecap:butt;stroke-linejoin:miter;stroke-opacity:1"/>
<path class="bond-7 atom-7 atom-8" d="M 161.9,87.5 L 150.2,113.5" style="fill:none;fill-rule:evenodd;stroke:#000000;stroke-width:2.0px;stroke-linecap:butt;stroke-linejoin:miter;stroke-opacity:1"/>
<path class="bond-8 atom-8 atom-9" d="M 150.2,113.5 L 156.7,122.5" style="fill:none;fill-rule:evenodd;stroke:#000000;stroke-width:2.0px;stroke-linecap:butt;stroke-linejoin:miter;stroke-opacity:1"/>
<path class="bond-8 atom-8 atom-9" d="M 156.7,122.5 L 163.2,131.6" style="fill:none;fill-rule:evenodd;stroke:#FF0000;stroke-width:2.0px;stroke-linecap:butt;stroke-linejoin:miter;stroke-opacity:1"/>
<path class="bond-9 atom-7 atom-10" d="M 161.9,87.5 L 187.9,99.2" style="fill:none;fill-rule:evenodd;stroke:#000000;stroke-width:2.0px;stroke-linecap:butt;stroke-linejoin:miter;stroke-opacity:1"/>
<path class="bond-10 atom-10 atom-11" d="M 187.9,99.2 L 211.0,82.6" style="fill:none;fill-rule:evenodd;stroke:#000000;stroke-width:2.0px;stroke-linecap:butt;stroke-linejoin:miter;stroke-opacity:1"/>
<path class="bond-11 atom-11 atom-12" d="M 211.0,82.6 L 236.9,94.4" style="fill:none;fill-rule:evenodd;stroke:#000000;stroke-width:2.0px;stroke-linecap:butt;stroke-linejoin:miter;stroke-opacity:1"/>
<path class="bond-12 atom-12 atom-13" d="M 236.9,94.4 L 262.8,106.1" style="fill:none;fill-rule:evenodd;stroke:#000000;stroke-width:2.0px;stroke-linecap:butt;stroke-linejoin:miter;stroke-opacity:1"/>
<path class="bond-13 atom-12 atom-14" d="M 236.9,94.4 L 225.2,120.3" style="fill:none;fill-rule:evenodd;stroke:#000000;stroke-width:2.0px;stroke-linecap:butt;stroke-linejoin:miter;stroke-opacity:1"/>
<path class="bond-14 atom-14 atom-15" d="M 225.2,120.3 L 231.7,129.3" style="fill:none;fill-rule:evenodd;stroke:#000000;stroke-width:2.0px;stroke-linecap:butt;stroke-linejoin:miter;stroke-opacity:1"/>
<path class="bond-14 atom-14 atom-15" d="M 231.7,129.3 L 238.2,138.4" style="fill:none;fill-rule:evenodd;stroke:#FF0000;stroke-width:2.0px;stroke-linecap:butt;stroke-linejoin:miter;stroke-opacity:1"/>
<path class="bond-15 atom-12 atom-16" d="M 236.9,94.4 L 248.6,68.4" style="fill:none;fill-rule:evenodd;stroke:#000000;stroke-width:2.0px;stroke-linecap:butt;stroke-linejoin:miter;stroke-opacity:1"/>
<path class="bond-16 atom-16 atom-17" d="M 251.1,68.2 L 244.3,58.7" style="fill:none;fill-rule:evenodd;stroke:#000000;stroke-width:2.0px;stroke-linecap:butt;stroke-linejoin:miter;stroke-opacity:1"/>
<path class="bond-16 atom-16 atom-17" d="M 244.3,58.7 L 237.4,49.2" style="fill:none;fill-rule:evenodd;stroke:#FF0000;stroke-width:2.0px;stroke-linecap:butt;stroke-linejoin:miter;stroke-opacity:1"/>
<path class="bond-16 atom-16 atom-17" d="M 247.6,70.7 L 240.8,61.2" style="fill:none;fill-rule:evenodd;stroke:#000000;stroke-width:2.0px;stroke-linecap:butt;stroke-linejoin:miter;stroke-opacity:1"/>
<path class="bond-16 atom-16 atom-17" d="M 240.8,61.2 L 234.0,51.7" style="fill:none;fill-rule:evenodd;stroke:#FF0000;stroke-width:2.0px;stroke-linecap:butt;stroke-linejoin:miter;stroke-opacity:1"/>
<path class="bond-17 atom-16 atom-18" d="M 248.6,68.4 L 260.5,67.2" style="fill:none;fill-rule:evenodd;stroke:#000000;stroke-width:2.0px;stroke-linecap:butt;stroke-linejoin:miter;stroke-opacity:1"/>
<path class="bond-17 atom-16 atom-18" d="M 260.5,67.2 L 272.3,66.1" style="fill:none;fill-rule:evenodd;stroke:#FF0000;stroke-width:2.0px;stroke-linecap:butt;stroke-linejoin:miter;stroke-opacity:1"/>
<path class="bond-18 atom-7 atom-19" d="M 161.9,87.5 L 173.6,61.6" style="fill:none;fill-rule:evenodd;stroke:#000000;stroke-width:2.0px;stroke-linecap:butt;stroke-linejoin:miter;stroke-opacity:1"/>
<path class="bond-19 atom-19 atom-20" d="M 176.1,61.3 L 169.3,51.9" style="fill:none;fill-rule:evenodd;stroke:#000000;stroke-width:2.0px;stroke-linecap:butt;stroke-linejoin:miter;stroke-opacity:1"/>
<path class="bond-19 atom-19 atom-20" d="M 169.3,51.9 L 162.5,42.4" style="fill:none;fill-rule:evenodd;stroke:#FF0000;stroke-width:2.0px;stroke-linecap:butt;stroke-linejoin:miter;stroke-opacity:1"/>
<path class="bond-19 atom-19 atom-20" d="M 172.6,63.8 L 165.8,54.3" style="fill:none;fill-rule:evenodd;stroke:#000000;stroke-width:2.0px;stroke-linecap:butt;stroke-linejoin:miter;stroke-opacity:1"/>
<path class="bond-19 atom-19 atom-20" d="M 165.8,54.3 L 159.0,44.9" style="fill:none;fill-rule:evenodd;stroke:#FF0000;stroke-width:2.0px;stroke-linecap:butt;stroke-linejoin:miter;stroke-opacity:1"/>
<path class="bond-20 atom-19 atom-21" d="M 173.6,61.6 L 185.5,60.4" style="fill:none;fill-rule:evenodd;stroke:#000000;stroke-width:2.0px;stroke-linecap:butt;stroke-linejoin:miter;stroke-opacity:1"/>
<path class="bond-20 atom-19 atom-21" d="M 185.5,60.4 L 197.3,59.2" style="fill:none;fill-rule:evenodd;stroke:#FF0000;stroke-width:2.0px;stroke-linecap:butt;stroke-linejoin:miter;stroke-opacity:1"/>
<path class="bond-21 atom-1 atom-22" d="M 63.8,97.3 L 47.2,74.2" style="fill:none;fill-rule:evenodd;stroke:#000000;stroke-width:2.0px;stroke-linecap:butt;stroke-linejoin:miter;stroke-opacity:1"/>
<path class="bond-22 atom-22 atom-23" d="M 48.2,71.9 L 35.8,73.2" style="fill:none;fill-rule:evenodd;stroke:#000000;stroke-width:2.0px;stroke-linecap:butt;stroke-linejoin:miter;stroke-opacity:1"/>
<path class="bond-22 atom-22 atom-23" d="M 35.8,73.2 L 23.3,74.4" style="fill:none;fill-rule:evenodd;stroke:#FF0000;stroke-width:2.0px;stroke-linecap:butt;stroke-linejoin:miter;stroke-opacity:1"/>
<path class="bond-22 atom-22 atom-23" d="M 48.7,76.2 L 36.2,77.4" style="fill:none;fill-rule:evenodd;stroke:#000000;stroke-width:2.0px;stroke-linecap:butt;stroke-linejoin:miter;stroke-opacity:1"/>
<path class="bond-22 atom-22 atom-23" d="M 36.2,77.4 L 23.7,78.6" style="fill:none;fill-rule:evenodd;stroke:#FF0000;stroke-width:2.0px;stroke-linecap:butt;stroke-linejoin:miter;stroke-opacity:1"/>
<path class="bond-23 atom-22 atom-24" d="M 47.2,74.2 L 51.9,63.8" style="fill:none;fill-rule:evenodd;stroke:#000000;stroke-width:2.0px;stroke-linecap:butt;stroke-linejoin:miter;stroke-opacity:1"/>
<path class="bond-23 atom-22 atom-24" d="M 51.9,63.8 L 56.6,53.4" style="fill:none;fill-rule:evenodd;stroke:#FF0000;stroke-width:2.0px;stroke-linecap:butt;stroke-linejoin:miter;stroke-opacity:1"/>
<path d="M 79.6,119.2 L 80.4,120.4 L 81.0,120.3" style="fill:none;stroke:#000000;stroke-width:2.0px;stroke-linecap:butt;stroke-linejoin:miter;stroke-opacity:1;"/>
<path d="M 85.8,81.5 L 86.9,80.7 L 88.2,81.3" style="fill:none;stroke:#000000;stroke-width:2.0px;stroke-linecap:butt;stroke-linejoin:miter;stroke-opacity:1;"/>
<path d="M 111.6,91.8 L 112.9,92.4 L 114.0,91.6" style="fill:none;stroke:#000000;stroke-width:2.0px;stroke-linecap:butt;stroke-linejoin:miter;stroke-opacity:1;"/>
<path d="M 134.8,76.6 L 136.0,75.8 L 137.3,76.4" style="fill:none;stroke:#000000;stroke-width:2.0px;stroke-linecap:butt;stroke-linejoin:miter;stroke-opacity:1;"/>
<path d="M 150.8,112.2 L 150.2,113.5 L 150.5,113.9" style="fill:none;stroke:#000000;stroke-width:2.0px;stroke-linecap:butt;stroke-linejoin:miter;stroke-opacity:1;"/>
<path d="M 186.6,98.7 L 187.9,99.2 L 189.0,98.4" style="fill:none;stroke:#000000;stroke-width:2.0px;stroke-linecap:butt;stroke-linejoin:miter;stroke-opacity:1;"/>
<path d="M 209.8,83.5 L 211.0,82.6 L 212.3,83.2" style="fill:none;stroke:#000000;stroke-width:2.0px;stroke-linecap:butt;stroke-linejoin:miter;stroke-opacity:1;"/>
<path d="M 225.8,119.0 L 225.2,120.3 L 225.5,120.7" style="fill:none;stroke:#000000;stroke-width:2.0px;stroke-linecap:butt;stroke-linejoin:miter;stroke-opacity:1;"/>
<path d="M 248.0,69.7 L 248.6,68.4 L 249.2,68.4" style="fill:none;stroke:#000000;stroke-width:2.0px;stroke-linecap:butt;stroke-linejoin:miter;stroke-opacity:1;"/>
<path d="M 173.1,62.9 L 173.6,61.6 L 174.2,61.5" style="fill:none;stroke:#000000;stroke-width:2.0px;stroke-linecap:butt;stroke-linejoin:miter;stroke-opacity:1;"/>
<path d="M 48.0,75.3 L 47.2,74.2 L 47.5,73.6" style="fill:none;stroke:#000000;stroke-width:2.0px;stroke-linecap:butt;stroke-linejoin:miter;stroke-opacity:1;"/>
<path class="atom-3" d="M 105.0 117.6 Q 105.0 115.7, 106.0 114.6 Q 106.9 113.5, 108.7 113.5 Q 110.5 113.5, 111.5 114.6 Q 112.4 115.7, 112.4 117.6 Q 112.4 119.6, 111.5 120.7 Q 110.5 121.8, 108.7 121.8 Q 107.0 121.8, 106.0 120.7 Q 105.0 119.6, 105.0 117.6 M 108.7 120.9 Q 110.0 120.9, 110.6 120.0 Q 111.3 119.2, 111.3 117.6 Q 111.3 116.0, 110.6 115.2 Q 110.0 114.4, 108.7 114.4 Q 107.5 114.4, 106.8 115.2 Q 106.2 116.0, 106.2 117.6 Q 106.2 119.2, 106.8 120.0 Q 107.5 120.9, 108.7 120.9 " fill="#FF0000"/>
<path class="atom-3" d="M 113.7 113.6 L 114.8 113.6 L 114.8 117.0 L 118.9 117.0 L 118.9 113.6 L 120.0 113.6 L 120.0 121.7 L 118.9 121.7 L 118.9 117.9 L 114.8 117.9 L 114.8 121.7 L 113.7 121.7 L 113.7 113.6 " fill="#FF0000"/>
<path class="atom-9" d="M 163.1 136.6 Q 163.1 134.7, 164.1 133.6 Q 165.0 132.5, 166.8 132.5 Q 168.6 132.5, 169.5 133.6 Q 170.5 134.7, 170.5 136.6 Q 170.5 138.5, 169.5 139.7 Q 168.6 140.8, 166.8 140.8 Q 165.0 140.8, 164.1 139.7 Q 163.1 138.6, 163.1 136.6 M 166.8 139.9 Q 168.0 139.9, 168.7 139.0 Q 169.4 138.2, 169.4 136.6 Q 169.4 135.0, 168.7 134.2 Q 168.0 133.4, 166.8 133.4 Q 165.6 133.4, 164.9 134.2 Q 164.2 135.0, 164.2 136.6 Q 164.2 138.2, 164.9 139.0 Q 165.6 139.9, 166.8 139.9 " fill="#FF0000"/>
<path class="atom-9" d="M 171.8 132.6 L 172.8 132.6 L 172.8 136.0 L 177.0 136.0 L 177.0 132.6 L 178.1 132.6 L 178.1 140.6 L 177.0 140.6 L 177.0 136.9 L 172.8 136.9 L 172.8 140.6 L 171.8 140.6 L 171.8 132.6 " fill="#FF0000"/>
<path class="atom-15" d="M 238.1 143.4 Q 238.1 141.5, 239.0 140.4 Q 240.0 139.3, 241.8 139.3 Q 243.6 139.3, 244.5 140.4 Q 245.5 141.5, 245.5 143.4 Q 245.5 145.4, 244.5 146.5 Q 243.5 147.6, 241.8 147.6 Q 240.0 147.6, 239.0 146.5 Q 238.1 145.4, 238.1 143.4 M 241.8 146.7 Q 243.0 146.7, 243.7 145.9 Q 244.3 145.0, 244.3 143.4 Q 244.3 141.8, 243.7 141.0 Q 243.0 140.2, 241.8 140.2 Q 240.6 140.2, 239.9 141.0 Q 239.2 141.8, 239.2 143.4 Q 239.2 145.1, 239.9 145.9 Q 240.6 146.7, 241.8 146.7 " fill="#FF0000"/>
<path class="atom-15" d="M 246.7 139.4 L 247.8 139.4 L 247.8 142.8 L 251.9 142.8 L 251.9 139.4 L 253.0 139.4 L 253.0 147.5 L 251.9 147.5 L 251.9 143.8 L 247.8 143.8 L 247.8 147.5 L 246.7 147.5 L 246.7 139.4 " fill="#FF0000"/>
<path class="atom-17" d="M 228.3 45.3 Q 228.3 43.4, 229.3 42.3 Q 230.2 41.2, 232.0 41.2 Q 233.8 41.2, 234.8 42.3 Q 235.7 43.4, 235.7 45.3 Q 235.7 47.3, 234.8 48.4 Q 233.8 49.5, 232.0 49.5 Q 230.2 49.5, 229.3 48.4 Q 228.3 47.3, 228.3 45.3 M 232.0 48.6 Q 233.3 48.6, 233.9 47.8 Q 234.6 46.9, 234.6 45.3 Q 234.6 43.7, 233.9 43.0 Q 233.3 42.1, 232.0 42.1 Q 230.8 42.1, 230.1 42.9 Q 229.5 43.7, 229.5 45.3 Q 229.5 47.0, 230.1 47.8 Q 230.8 48.6, 232.0 48.6 " fill="#FF0000"/>
<path class="atom-18" d="M 273.2 65.6 Q 273.2 63.7, 274.2 62.6 Q 275.2 61.5, 276.9 61.5 Q 278.7 61.5, 279.7 62.6 Q 280.6 63.7, 280.6 65.6 Q 280.6 67.6, 279.7 68.7 Q 278.7 69.8, 276.9 69.8 Q 275.2 69.8, 274.2 68.7 Q 273.2 67.6, 273.2 65.6 M 276.9 68.9 Q 278.2 68.9, 278.8 68.1 Q 279.5 67.2, 279.5 65.6 Q 279.5 64.0, 278.8 63.2 Q 278.2 62.4, 276.9 62.4 Q 275.7 62.4, 275.0 63.2 Q 274.4 64.0, 274.4 65.6 Q 274.4 67.3, 275.0 68.1 Q 275.7 68.9, 276.9 68.9 " fill="#FF0000"/>
<path class="atom-18" d="M 281.9 61.6 L 283.0 61.6 L 283.0 65.0 L 287.1 65.0 L 287.1 61.6 L 288.2 61.6 L 288.2 69.7 L 287.1 69.7 L 287.1 66.0 L 283.0 66.0 L 283.0 69.7 L 281.9 69.7 L 281.9 61.6 " fill="#FF0000"/>
<path class="atom-20" d="M 153.3 38.5 Q 153.3 36.6, 154.3 35.5 Q 155.2 34.4, 157.0 34.4 Q 158.8 34.4, 159.8 35.5 Q 160.7 36.6, 160.7 38.5 Q 160.7 40.4, 159.8 41.6 Q 158.8 42.7, 157.0 42.7 Q 155.3 42.7, 154.3 41.6 Q 153.3 40.5, 153.3 38.5 M 157.0 41.8 Q 158.3 41.8, 158.9 40.9 Q 159.6 40.1, 159.6 38.5 Q 159.6 36.9, 158.9 36.1 Q 158.3 35.3, 157.0 35.3 Q 155.8 35.3, 155.1 36.1 Q 154.5 36.9, 154.5 38.5 Q 154.5 40.1, 155.1 40.9 Q 155.8 41.8, 157.0 41.8 " fill="#FF0000"/>
<path class="atom-21" d="M 198.3 58.8 Q 198.3 56.9, 199.2 55.8 Q 200.2 54.7, 202.0 54.7 Q 203.7 54.7, 204.7 55.8 Q 205.7 56.9, 205.7 58.8 Q 205.7 60.7, 204.7 61.9 Q 203.7 63.0, 202.0 63.0 Q 200.2 63.0, 199.2 61.9 Q 198.3 60.8, 198.3 58.8 M 202.0 62.1 Q 203.2 62.1, 203.8 61.2 Q 204.5 60.4, 204.5 58.8 Q 204.5 57.2, 203.8 56.4 Q 203.2 55.6, 202.0 55.6 Q 200.7 55.6, 200.1 56.4 Q 199.4 57.2, 199.4 58.8 Q 199.4 60.4, 200.1 61.2 Q 200.7 62.1, 202.0 62.1 " fill="#FF0000"/>
<path class="atom-21" d="M 206.9 54.8 L 208.0 54.8 L 208.0 58.2 L 212.1 58.2 L 212.1 54.8 L 213.2 54.8 L 213.2 62.8 L 212.1 62.8 L 212.1 59.1 L 208.0 59.1 L 208.0 62.8 L 206.9 62.8 L 206.9 54.8 " fill="#FF0000"/>
<path class="atom-23" d="M 15.2 77.0 Q 15.2 75.1, 16.2 74.0 Q 17.1 72.9, 18.9 72.9 Q 20.7 72.9, 21.6 74.0 Q 22.6 75.1, 22.6 77.0 Q 22.6 79.0, 21.6 80.1 Q 20.7 81.2, 18.9 81.2 Q 17.1 81.2, 16.2 80.1 Q 15.2 79.0, 15.2 77.0 M 18.9 80.3 Q 20.1 80.3, 20.8 79.5 Q 21.5 78.6, 21.5 77.0 Q 21.5 75.4, 20.8 74.6 Q 20.1 73.8, 18.9 73.8 Q 17.7 73.8, 17.0 74.6 Q 16.3 75.4, 16.3 77.0 Q 16.3 78.6, 17.0 79.5 Q 17.7 80.3, 18.9 80.3 " fill="#FF0000"/>
<path class="atom-24" d="M 55.2 48.3 Q 55.2 46.3, 56.2 45.2 Q 57.2 44.2, 58.9 44.2 Q 60.7 44.2, 61.7 45.2 Q 62.6 46.3, 62.6 48.3 Q 62.6 50.2, 61.7 51.3 Q 60.7 52.4, 58.9 52.4 Q 57.2 52.4, 56.2 51.3 Q 55.2 50.2, 55.2 48.3 M 58.9 51.5 Q 60.2 51.5, 60.8 50.7 Q 61.5 49.9, 61.5 48.3 Q 61.5 46.7, 60.8 45.9 Q 60.2 45.1, 58.9 45.1 Q 57.7 45.1, 57.0 45.9 Q 56.4 46.7, 56.4 48.3 Q 56.4 49.9, 57.0 50.7 Q 57.7 51.5, 58.9 51.5 " fill="#FF0000"/>
<path class="atom-24" d="M 63.9 44.2 L 65.0 44.2 L 65.0 47.7 L 69.1 47.7 L 69.1 44.2 L 70.2 44.2 L 70.2 52.3 L 69.1 52.3 L 69.1 48.6 L 65.0 48.6 L 65.0 52.3 L 63.9 52.3 L 63.9 44.2 " fill="#FF0000"/>
<path class="legend" d="M 142.7 181.9 Q 142.7 179.6, 143.4 177.7 Q 144.0 175.8, 145.3 173.8 L 146.2 174.4 Q 145.2 176.3, 144.6 178.0 Q 144.1 179.7, 144.1 181.9 Q 144.1 184.0, 144.6 185.8 Q 145.2 187.5, 146.2 189.4 L 145.3 190.0 Q 144.0 188.0, 143.4 186.1 Q 142.7 184.2, 142.7 181.9 " fill="#000000"/>
<path class="legend" d="M 147.1 177.3 Q 147.6 176.2, 148.5 175.6 Q 149.5 175.0, 150.9 175.0 Q 152.6 175.0, 153.6 175.9 Q 154.5 176.8, 154.5 178.5 Q 154.5 180.2, 153.3 181.7 Q 152.1 183.3, 149.5 185.2 L 154.7 185.2 L 154.7 186.4 L 147.1 186.4 L 147.1 185.4 Q 149.2 183.9, 150.5 182.8 Q 151.7 181.6, 152.3 180.6 Q 152.9 179.6, 152.9 178.6 Q 152.9 177.5, 152.4 176.9 Q 151.9 176.3, 150.9 176.3 Q 150.0 176.3, 149.4 176.6 Q 148.8 177.0, 148.4 177.8 L 147.1 177.3 " fill="#000000"/>
<path class="legend" d="M 159.7 181.9 Q 159.7 184.2, 159.0 186.1 Q 158.4 188.0, 157.1 190.0 L 156.2 189.4 Q 157.2 187.5, 157.7 185.8 Q 158.3 184.0, 158.3 181.9 Q 158.3 179.7, 157.7 178.0 Q 157.2 176.3, 156.2 174.4 L 157.1 173.8 Q 158.4 175.8, 159.0 177.7 Q 159.7 179.6, 159.7 181.9 " fill="#000000"/>
</g>
    <g transform="translate(304.0, 0) scale(1 1) "><line x1="5" y1="100" x2="35" y2="100" style="stroke:rgb(0,0,0);stroke-width:2"/>
  <line x1="34" y1="100" x2="29" y2="95" style="stroke:rgb(0,0,0);stroke-width:2"/>
  <line x1="34" y1="100" x2="29" y2="105" style="stroke:rgb(0,0,0);stroke-width:2"/>
</g>
    <g transform="translate(344.0, 0) scale(1 1) "><!-- END OF HEADER -->
<rect style="opacity:1.0;fill:#FFFFFF;stroke:none" width="205.0" height="200.0" x="0.0" y="0.0"> </rect>
<path class="bond-0 atom-0 atom-1" d="M 122.6,44.3 L 108.8,89.2" style="fill:none;fill-rule:evenodd;stroke:#000000;stroke-width:2.0px;stroke-linecap:butt;stroke-linejoin:miter;stroke-opacity:1"/>
<path class="bond-1 atom-1 atom-2" d="M 108.8,89.2 L 95.0,134.1" style="fill:none;fill-rule:evenodd;stroke:#000000;stroke-width:2.0px;stroke-linecap:butt;stroke-linejoin:miter;stroke-opacity:1"/>
<path class="bond-2 atom-1 atom-3" d="M 108.8,89.2 L 63.9,75.4" style="fill:none;fill-rule:evenodd;stroke:#000000;stroke-width:2.0px;stroke-linecap:butt;stroke-linejoin:miter;stroke-opacity:1"/>
<path class="bond-3 atom-3 atom-4" d="M 63.9,75.4 L 50.5,87.9" style="fill:none;fill-rule:evenodd;stroke:#000000;stroke-width:2.0px;stroke-linecap:butt;stroke-linejoin:miter;stroke-opacity:1"/>
<path class="bond-3 atom-3 atom-4" d="M 50.5,87.9 L 37.2,100.3" style="fill:none;fill-rule:evenodd;stroke:#FF0000;stroke-width:2.0px;stroke-linecap:butt;stroke-linejoin:miter;stroke-opacity:1"/>
<path class="bond-4 atom-1 atom-5" d="M 108.8,89.2 L 153.7,103.0" style="fill:none;fill-rule:evenodd;stroke:#000000;stroke-width:2.0px;stroke-linecap:butt;stroke-linejoin:miter;stroke-opacity:1"/>
<path class="bond-5 atom-5 atom-6" d="M 154.7,107.0 L 168.8,93.8" style="fill:none;fill-rule:evenodd;stroke:#000000;stroke-width:2.0px;stroke-linecap:butt;stroke-linejoin:miter;stroke-opacity:1"/>
<path class="bond-5 atom-5 atom-6" d="M 168.8,93.8 L 182.9,80.7" style="fill:none;fill-rule:evenodd;stroke:#FF0000;stroke-width:2.0px;stroke-linecap:butt;stroke-linejoin:miter;stroke-opacity:1"/>
<path class="bond-5 atom-5 atom-6" d="M 149.9,101.8 L 164.0,88.7" style="fill:none;fill-rule:evenodd;stroke:#000000;stroke-width:2.0px;stroke-linecap:butt;stroke-linejoin:miter;stroke-opacity:1"/>
<path class="bond-5 atom-5 atom-6" d="M 164.0,88.7 L 178.1,75.5" style="fill:none;fill-rule:evenodd;stroke:#FF0000;stroke-width:2.0px;stroke-linecap:butt;stroke-linejoin:miter;stroke-opacity:1"/>
<path class="bond-6 atom-5 atom-7" d="M 153.7,103.0 L 158.0,121.7" style="fill:none;fill-rule:evenodd;stroke:#000000;stroke-width:2.0px;stroke-linecap:butt;stroke-linejoin:miter;stroke-opacity:1"/>
<path class="bond-6 atom-5 atom-7" d="M 158.0,121.7 L 162.4,140.5" style="fill:none;fill-rule:evenodd;stroke:#FF0000;stroke-width:2.0px;stroke-linecap:butt;stroke-linejoin:miter;stroke-opacity:1"/>
<path d="M 66.1,76.1 L 63.9,75.4 L 63.2,76.0" style="fill:none;stroke:#000000;stroke-width:2.0px;stroke-linecap:butt;stroke-linejoin:miter;stroke-opacity:1;"/>
<path d="M 151.5,102.3 L 153.7,103.0 L 154.0,103.9" style="fill:none;stroke:#000000;stroke-width:2.0px;stroke-linecap:butt;stroke-linejoin:miter;stroke-opacity:1;"/>
<path class="atom-4" d="M 10.2 100.8 L 12.1 100.8 L 12.1 106.5 L 18.9 106.5 L 18.9 100.8 L 20.7 100.8 L 20.7 114.1 L 18.9 114.1 L 18.9 108.0 L 12.1 108.0 L 12.1 114.1 L 10.2 114.1 L 10.2 100.8 " fill="#FF0000"/>
<path class="atom-4" d="M 23.4 107.5 Q 23.4 104.3, 25.0 102.5 Q 26.5 100.7, 29.5 100.7 Q 32.5 100.7, 34.0 102.5 Q 35.6 104.3, 35.6 107.5 Q 35.6 110.7, 34.0 112.5 Q 32.4 114.4, 29.5 114.4 Q 26.6 114.4, 25.0 112.5 Q 23.4 110.7, 23.4 107.5 M 29.5 112.9 Q 31.5 112.9, 32.6 111.5 Q 33.7 110.1, 33.7 107.5 Q 33.7 104.8, 32.6 103.5 Q 31.5 102.2, 29.5 102.2 Q 27.5 102.2, 26.4 103.5 Q 25.3 104.8, 25.3 107.5 Q 25.3 110.1, 26.4 111.5 Q 27.5 112.9, 29.5 112.9 " fill="#FF0000"/>
<path class="atom-6" d="M 182.0 71.0 Q 182.0 67.8, 183.6 66.0 Q 185.2 64.3, 188.1 64.3 Q 191.1 64.3, 192.7 66.0 Q 194.3 67.8, 194.3 71.0 Q 194.3 74.3, 192.7 76.1 Q 191.1 77.9, 188.1 77.9 Q 185.2 77.9, 183.6 76.1 Q 182.0 74.3, 182.0 71.0 M 188.1 76.4 Q 190.2 76.4, 191.3 75.1 Q 192.4 73.7, 192.4 71.0 Q 192.4 68.4, 191.3 67.1 Q 190.2 65.8, 188.1 65.8 Q 186.1 65.8, 185.0 67.1 Q 183.9 68.4, 183.9 71.0 Q 183.9 73.7, 185.0 75.1 Q 186.1 76.4, 188.1 76.4 " fill="#FF0000"/>
<path class="atom-7" d="M 158.2 148.8 Q 158.2 145.6, 159.7 143.8 Q 161.3 142.1, 164.3 142.1 Q 167.2 142.1, 168.8 143.8 Q 170.4 145.6, 170.4 148.8 Q 170.4 152.1, 168.8 153.9 Q 167.2 155.7, 164.3 155.7 Q 161.3 155.7, 159.7 153.9 Q 158.2 152.1, 158.2 148.8 M 164.3 154.2 Q 166.3 154.2, 167.4 152.9 Q 168.5 151.5, 168.5 148.8 Q 168.5 146.2, 167.4 144.9 Q 166.3 143.6, 164.3 143.6 Q 162.2 143.6, 161.1 144.9 Q 160.0 146.2, 160.0 148.8 Q 160.0 151.5, 161.1 152.9 Q 162.2 154.2, 164.3 154.2 " fill="#FF0000"/>
<path class="atom-7" d="M 172.4 142.2 L 174.2 142.2 L 174.2 147.9 L 181.0 147.9 L 181.0 142.2 L 182.9 142.2 L 182.9 155.5 L 181.0 155.5 L 181.0 149.4 L 174.2 149.4 L 174.2 155.5 L 172.4 155.5 L 172.4 142.2 " fill="#FF0000"/>
</g>
    <g transform="translate(549.0, 0) scale(1 1) "><line x1="15" y1="100" x2="25" y2="100" style="stroke:rgb(0,0,0);stroke-width:2"/>
  <line x1="20" y1="95" x2="20" y2="105" style="stroke:rgb(0,0,0);stroke-width:2"/>
</g>
    <g transform="translate(589.0, 0) scale(1 1) "><!-- END OF HEADER -->
<rect style="opacity:1.0;fill:#FFFFFF;stroke:none" width="349.0" height="200.0" x="0.0" y="0.0"> </rect>
<path class="bond-0 atom-0 atom-1" d="M 331.4,108.6 L 310.5,100.8" style="fill:none;fill-rule:evenodd;stroke:#000000;stroke-width:2.0px;stroke-linecap:butt;stroke-linejoin:miter;stroke-opacity:1"/>
<path class="bond-1 atom-1 atom-2" d="M 310.5,100.8 L 318.3,79.9" style="fill:none;fill-rule:evenodd;stroke:#000000;stroke-width:2.0px;stroke-linecap:butt;stroke-linejoin:miter;stroke-opacity:1"/>
<path class="bond-2 atom-2 atom-3" d="M 318.3,79.9 L 312.9,73.3" style="fill:none;fill-rule:evenodd;stroke:#000000;stroke-width:2.0px;stroke-linecap:butt;stroke-linejoin:miter;stroke-opacity:1"/>
<path class="bond-2 atom-2 atom-3" d="M 312.9,73.3 L 307.4,66.7" style="fill:none;fill-rule:evenodd;stroke:#FF0000;stroke-width:2.0px;stroke-linecap:butt;stroke-linejoin:miter;stroke-opacity:1"/>
<path class="bond-3 atom-1 atom-4" d="M 310.5,100.8 L 289.6,93.0" style="fill:none;fill-rule:evenodd;stroke:#000000;stroke-width:2.0px;stroke-linecap:butt;stroke-linejoin:miter;stroke-opacity:1"/>
<path class="bond-4 atom-4 atom-5" d="M 289.6,93.0 L 272.5,107.3" style="fill:none;fill-rule:evenodd;stroke:#000000;stroke-width:2.0px;stroke-linecap:butt;stroke-linejoin:miter;stroke-opacity:1"/>
<path class="bond-5 atom-5 atom-6" d="M 272.5,107.3 L 251.6,99.5" style="fill:none;fill-rule:evenodd;stroke:#000000;stroke-width:2.0px;stroke-linecap:butt;stroke-linejoin:miter;stroke-opacity:1"/>
<path class="bond-6 atom-6 atom-7" d="M 251.6,99.5 L 259.3,78.6" style="fill:none;fill-rule:evenodd;stroke:#000000;stroke-width:2.0px;stroke-linecap:butt;stroke-linejoin:miter;stroke-opacity:1"/>
<path class="bond-7 atom-7 atom-8" d="M 259.3,78.6 L 253.9,72.0" style="fill:none;fill-rule:evenodd;stroke:#000000;stroke-width:2.0px;stroke-linecap:butt;stroke-linejoin:miter;stroke-opacity:1"/>
<path class="bond-7 atom-7 atom-8" d="M 253.9,72.0 L 248.4,65.5" style="fill:none;fill-rule:evenodd;stroke:#FF0000;stroke-width:2.0px;stroke-linecap:butt;stroke-linejoin:miter;stroke-opacity:1"/>
<path class="bond-8 atom-6 atom-9" d="M 251.6,99.5 L 230.6,91.8" style="fill:none;fill-rule:evenodd;stroke:#000000;stroke-width:2.0px;stroke-linecap:butt;stroke-linejoin:miter;stroke-opacity:1"/>
<path class="bond-9 atom-9 atom-10" d="M 230.6,91.8 L 213.5,106.0" style="fill:none;fill-rule:evenodd;stroke:#000000;stroke-width:2.0px;stroke-linecap:butt;stroke-linejoin:miter;stroke-opacity:1"/>
<path class="bond-10 atom-10 atom-11" d="M 213.5,106.0 L 192.6,98.2" style="fill:none;fill-rule:evenodd;stroke:#000000;stroke-width:2.0px;stroke-linecap:butt;stroke-linejoin:miter;stroke-opacity:1"/>
<path class="bond-11 atom-11 atom-12" d="M 192.6,98.2 L 175.4,112.5" style="fill:none;fill-rule:evenodd;stroke:#000000;stroke-width:2.0px;stroke-linecap:butt;stroke-linejoin:miter;stroke-opacity:1"/>
<path class="bond-12 atom-12 atom-13" d="M 175.4,112.5 L 158.2,126.7" style="fill:none;fill-rule:evenodd;stroke:#000000;stroke-width:2.0px;stroke-linecap:butt;stroke-linejoin:miter;stroke-opacity:1"/>
<path class="bond-13 atom-12 atom-14" d="M 175.4,112.5 L 189.6,129.6" style="fill:none;fill-rule:evenodd;stroke:#000000;stroke-width:2.0px;stroke-linecap:butt;stroke-linejoin:miter;stroke-opacity:1"/>
<path class="bond-14 atom-14 atom-15" d="M 189.0,131.3 L 197.6,130.9" style="fill:none;fill-rule:evenodd;stroke:#000000;stroke-width:2.0px;stroke-linecap:butt;stroke-linejoin:miter;stroke-opacity:1"/>
<path class="bond-14 atom-14 atom-15" d="M 197.6,130.9 L 206.1,130.5" style="fill:none;fill-rule:evenodd;stroke:#FF0000;stroke-width:2.0px;stroke-linecap:butt;stroke-linejoin:miter;stroke-opacity:1"/>
<path class="bond-14 atom-14 atom-15" d="M 188.3,128.0 L 197.4,127.6" style="fill:none;fill-rule:evenodd;stroke:#000000;stroke-width:2.0px;stroke-linecap:butt;stroke-linejoin:miter;stroke-opacity:1"/>
<path class="bond-14 atom-14 atom-15" d="M 197.4,127.6 L 206.0,127.2" style="fill:none;fill-rule:evenodd;stroke:#FF0000;stroke-width:2.0px;stroke-linecap:butt;stroke-linejoin:miter;stroke-opacity:1"/>
<path class="bond-15 atom-14 atom-16" d="M 189.6,129.6 L 186.5,138.1" style="fill:none;fill-rule:evenodd;stroke:#000000;stroke-width:2.0px;stroke-linecap:butt;stroke-linejoin:miter;stroke-opacity:1"/>
<path class="bond-15 atom-14 atom-16" d="M 186.5,138.1 L 183.3,146.6" style="fill:none;fill-rule:evenodd;stroke:#FF0000;stroke-width:2.0px;stroke-linecap:butt;stroke-linejoin:miter;stroke-opacity:1"/>
<path class="bond-16 atom-12 atom-17" d="M 175.4,112.5 L 161.2,95.3" style="fill:none;fill-rule:evenodd;stroke:#000000;stroke-width:2.0px;stroke-linecap:butt;stroke-linejoin:miter;stroke-opacity:1"/>
<path class="bond-17 atom-17 atom-18" d="M 161.2,95.3 L 164.3,86.8" style="fill:none;fill-rule:evenodd;stroke:#000000;stroke-width:2.0px;stroke-linecap:butt;stroke-linejoin:miter;stroke-opacity:1"/>
<path class="bond-17 atom-17 atom-18" d="M 164.3,86.8 L 167.4,78.4" style="fill:none;fill-rule:evenodd;stroke:#FF0000;stroke-width:2.0px;stroke-linecap:butt;stroke-linejoin:miter;stroke-opacity:1"/>
<path class="bond-18 atom-17 atom-19" d="M 161.2,95.3 L 139.2,99.0" style="fill:none;fill-rule:evenodd;stroke:#000000;stroke-width:2.0px;stroke-linecap:butt;stroke-linejoin:miter;stroke-opacity:1"/>
<path class="bond-19 atom-19 atom-20" d="M 139.2,99.0 L 124.9,81.8" style="fill:none;fill-rule:evenodd;stroke:#000000;stroke-width:2.0px;stroke-linecap:butt;stroke-linejoin:miter;stroke-opacity:1"/>
<path class="bond-20 atom-20 atom-21" d="M 124.9,81.8 L 103.0,85.6" style="fill:none;fill-rule:evenodd;stroke:#000000;stroke-width:2.0px;stroke-linecap:butt;stroke-linejoin:miter;stroke-opacity:1"/>
<path class="bond-21 atom-21 atom-22" d="M 103.0,85.6 L 106.7,107.6" style="fill:none;fill-rule:evenodd;stroke:#000000;stroke-width:2.0px;stroke-linecap:butt;stroke-linejoin:miter;stroke-opacity:1"/>
<path class="bond-22 atom-22 atom-23" d="M 106.7,107.6 L 99.9,113.2" style="fill:none;fill-rule:evenodd;stroke:#000000;stroke-width:2.0px;stroke-linecap:butt;stroke-linejoin:miter;stroke-opacity:1"/>
<path class="bond-22 atom-22 atom-23" d="M 99.9,113.2 L 93.2,118.8" style="fill:none;fill-rule:evenodd;stroke:#FF0000;stroke-width:2.0px;stroke-linecap:butt;stroke-linejoin:miter;stroke-opacity:1"/>
<path class="bond-23 atom-21 atom-24" d="M 103.0,85.6 L 81.0,89.3" style="fill:none;fill-rule:evenodd;stroke:#000000;stroke-width:2.0px;stroke-linecap:butt;stroke-linejoin:miter;stroke-opacity:1"/>
<path class="bond-24 atom-24 atom-25" d="M 81.0,89.3 L 73.2,110.2" style="fill:none;fill-rule:evenodd;stroke:#000000;stroke-width:2.0px;stroke-linecap:butt;stroke-linejoin:miter;stroke-opacity:1"/>
<path class="bond-25 atom-25 atom-26" d="M 73.2,110.2 L 51.2,114.0" style="fill:none;fill-rule:evenodd;stroke:#000000;stroke-width:2.0px;stroke-linecap:butt;stroke-linejoin:miter;stroke-opacity:1"/>
<path class="bond-26 atom-26 atom-27" d="M 51.2,114.0 L 29.2,117.7" style="fill:none;fill-rule:evenodd;stroke:#000000;stroke-width:2.0px;stroke-linecap:butt;stroke-linejoin:miter;stroke-opacity:1"/>
<path class="bond-27 atom-26 atom-28" d="M 51.2,114.0 L 47.5,92.0" style="fill:none;fill-rule:evenodd;stroke:#000000;stroke-width:2.0px;stroke-linecap:butt;stroke-linejoin:miter;stroke-opacity:1"/>
<path class="bond-28 atom-28 atom-29" d="M 47.5,92.0 L 38.9,88.8" style="fill:none;fill-rule:evenodd;stroke:#000000;stroke-width:2.0px;stroke-linecap:butt;stroke-linejoin:miter;stroke-opacity:1"/>
<path class="bond-28 atom-28 atom-29" d="M 38.9,88.8 L 30.2,85.6" style="fill:none;fill-rule:evenodd;stroke:#FF0000;stroke-width:2.0px;stroke-linecap:butt;stroke-linejoin:miter;stroke-opacity:1"/>
<path class="bond-29 atom-26 atom-30" d="M 51.2,114.0 L 55.0,135.9" style="fill:none;fill-rule:evenodd;stroke:#000000;stroke-width:2.0px;stroke-linecap:butt;stroke-linejoin:miter;stroke-opacity:1"/>
<path class="bond-30 atom-30 atom-31" d="M 53.5,137.2 L 62.6,140.5" style="fill:none;fill-rule:evenodd;stroke:#000000;stroke-width:2.0px;stroke-linecap:butt;stroke-linejoin:miter;stroke-opacity:1"/>
<path class="bond-30 atom-30 atom-31" d="M 62.6,140.5 L 71.7,143.9" style="fill:none;fill-rule:evenodd;stroke:#FF0000;stroke-width:2.0px;stroke-linecap:butt;stroke-linejoin:miter;stroke-opacity:1"/>
<path class="bond-30 atom-30 atom-31" d="M 54.6,134.1 L 63.7,137.4" style="fill:none;fill-rule:evenodd;stroke:#000000;stroke-width:2.0px;stroke-linecap:butt;stroke-linejoin:miter;stroke-opacity:1"/>
<path class="bond-30 atom-30 atom-31" d="M 63.7,137.4 L 72.8,140.8" style="fill:none;fill-rule:evenodd;stroke:#FF0000;stroke-width:2.0px;stroke-linecap:butt;stroke-linejoin:miter;stroke-opacity:1"/>
<path class="bond-31 atom-30 atom-32" d="M 55.0,135.9 L 48.2,141.6" style="fill:none;fill-rule:evenodd;stroke:#000000;stroke-width:2.0px;stroke-linecap:butt;stroke-linejoin:miter;stroke-opacity:1"/>
<path class="bond-31 atom-30 atom-32" d="M 48.2,141.6 L 41.4,147.2" style="fill:none;fill-rule:evenodd;stroke:#FF0000;stroke-width:2.0px;stroke-linecap:butt;stroke-linejoin:miter;stroke-opacity:1"/>
<path class="bond-32 atom-21 atom-33" d="M 103.0,85.6 L 99.2,63.6" style="fill:none;fill-rule:evenodd;stroke:#000000;stroke-width:2.0px;stroke-linecap:butt;stroke-linejoin:miter;stroke-opacity:1"/>
<path class="bond-33 atom-33 atom-34" d="M 99.5,65.5 L 106.7,59.6" style="fill:none;fill-rule:evenodd;stroke:#000000;stroke-width:2.0px;stroke-linecap:butt;stroke-linejoin:miter;stroke-opacity:1"/>
<path class="bond-33 atom-33 atom-34" d="M 106.7,59.6 L 113.8,53.7" style="fill:none;fill-rule:evenodd;stroke:#FF0000;stroke-width:2.0px;stroke-linecap:butt;stroke-linejoin:miter;stroke-opacity:1"/>
<path class="bond-33 atom-33 atom-34" d="M 97.4,62.9 L 104.6,57.0" style="fill:none;fill-rule:evenodd;stroke:#000000;stroke-width:2.0px;stroke-linecap:butt;stroke-linejoin:miter;stroke-opacity:1"/>
<path class="bond-33 atom-33 atom-34" d="M 104.6,57.0 L 111.7,51.1" style="fill:none;fill-rule:evenodd;stroke:#FF0000;stroke-width:2.0px;stroke-linecap:butt;stroke-linejoin:miter;stroke-opacity:1"/>
<path class="bond-34 atom-33 atom-35" d="M 99.2,63.6 L 90.6,60.4" style="fill:none;fill-rule:evenodd;stroke:#000000;stroke-width:2.0px;stroke-linecap:butt;stroke-linejoin:miter;stroke-opacity:1"/>
<path class="bond-34 atom-33 atom-35" d="M 90.6,60.4 L 81.9,57.2" style="fill:none;fill-rule:evenodd;stroke:#FF0000;stroke-width:2.0px;stroke-linecap:butt;stroke-linejoin:miter;stroke-opacity:1"/>
<path class="bond-35 atom-6 atom-36" d="M 251.6,99.5 L 243.8,120.4" style="fill:none;fill-rule:evenodd;stroke:#000000;stroke-width:2.0px;stroke-linecap:butt;stroke-linejoin:miter;stroke-opacity:1"/>
<path class="bond-36 atom-36 atom-37" d="M 244.5,118.5 L 236.1,121.0" style="fill:none;fill-rule:evenodd;stroke:#000000;stroke-width:2.0px;stroke-linecap:butt;stroke-linejoin:miter;stroke-opacity:1"/>
<path class="bond-36 atom-36 atom-37" d="M 236.1,121.0 L 227.7,123.5" style="fill:none;fill-rule:evenodd;stroke:#FF0000;stroke-width:2.0px;stroke-linecap:butt;stroke-linejoin:miter;stroke-opacity:1"/>
<path class="bond-36 atom-36 atom-37" d="M 244.9,121.8 L 237.1,124.2" style="fill:none;fill-rule:evenodd;stroke:#000000;stroke-width:2.0px;stroke-linecap:butt;stroke-linejoin:miter;stroke-opacity:1"/>
<path class="bond-36 atom-36 atom-37" d="M 237.1,124.2 L 228.7,126.7" style="fill:none;fill-rule:evenodd;stroke:#FF0000;stroke-width:2.0px;stroke-linecap:butt;stroke-linejoin:miter;stroke-opacity:1"/>
<path class="bond-37 atom-36 atom-38" d="M 243.8,120.4 L 249.3,127.0" style="fill:none;fill-rule:evenodd;stroke:#000000;stroke-width:2.0px;stroke-linecap:butt;stroke-linejoin:miter;stroke-opacity:1"/>
<path class="bond-37 atom-36 atom-38" d="M 249.3,127.0 L 254.8,133.7" style="fill:none;fill-rule:evenodd;stroke:#FF0000;stroke-width:2.0px;stroke-linecap:butt;stroke-linejoin:miter;stroke-opacity:1"/>
<path class="bond-38 atom-1 atom-39" d="M 310.5,100.8 L 302.8,121.7" style="fill:none;fill-rule:evenodd;stroke:#000000;stroke-width:2.0px;stroke-linecap:butt;stroke-linejoin:miter;stroke-opacity:1"/>
<path class="bond-39 atom-39 atom-40" d="M 300.9,122.0 L 306.7,129.0" style="fill:none;fill-rule:evenodd;stroke:#000000;stroke-width:2.0px;stroke-linecap:butt;stroke-linejoin:miter;stroke-opacity:1"/>
<path class="bond-39 atom-39 atom-40" d="M 306.7,129.0 L 312.5,136.0" style="fill:none;fill-rule:evenodd;stroke:#FF0000;stroke-width:2.0px;stroke-linecap:butt;stroke-linejoin:miter;stroke-opacity:1"/>
<path class="bond-39 atom-39 atom-40" d="M 303.5,119.9 L 309.2,126.9" style="fill:none;fill-rule:evenodd;stroke:#000000;stroke-width:2.0px;stroke-linecap:butt;stroke-linejoin:miter;stroke-opacity:1"/>
<path class="bond-39 atom-39 atom-40" d="M 309.2,126.9 L 315.0,133.9" style="fill:none;fill-rule:evenodd;stroke:#FF0000;stroke-width:2.0px;stroke-linecap:butt;stroke-linejoin:miter;stroke-opacity:1"/>
<path class="bond-40 atom-39 atom-41" d="M 302.8,121.7 L 293.6,123.3" style="fill:none;fill-rule:evenodd;stroke:#000000;stroke-width:2.0px;stroke-linecap:butt;stroke-linejoin:miter;stroke-opacity:1"/>
<path class="bond-40 atom-39 atom-41" d="M 293.6,123.3 L 284.4,124.8" style="fill:none;fill-rule:evenodd;stroke:#FF0000;stroke-width:2.0px;stroke-linecap:butt;stroke-linejoin:miter;stroke-opacity:1"/>
<path d="M 317.9,80.9 L 318.3,79.9 L 318.0,79.6" style="fill:none;stroke:#000000;stroke-width:2.0px;stroke-linecap:butt;stroke-linejoin:miter;stroke-opacity:1;"/>
<path d="M 290.7,93.4 L 289.6,93.0 L 288.8,93.8" style="fill:none;stroke:#000000;stroke-width:2.0px;stroke-linecap:butt;stroke-linejoin:miter;stroke-opacity:1;"/>
<path d="M 273.3,106.6 L 272.5,107.3 L 271.4,106.9" style="fill:none;stroke:#000000;stroke-width:2.0px;stroke-linecap:butt;stroke-linejoin:miter;stroke-opacity:1;"/>
<path d="M 258.9,79.7 L 259.3,78.6 L 259.0,78.3" style="fill:none;stroke:#000000;stroke-width:2.0px;stroke-linecap:butt;stroke-linejoin:miter;stroke-opacity:1;"/>
<path d="M 231.7,92.1 L 230.6,91.8 L 229.8,92.5" style="fill:none;stroke:#000000;stroke-width:2.0px;stroke-linecap:butt;stroke-linejoin:miter;stroke-opacity:1;"/>
<path d="M 214.3,105.3 L 213.5,106.0 L 212.4,105.6" style="fill:none;stroke:#000000;stroke-width:2.0px;stroke-linecap:butt;stroke-linejoin:miter;stroke-opacity:1;"/>
<path d="M 193.6,98.6 L 192.6,98.2 L 191.7,98.9" style="fill:none;stroke:#000000;stroke-width:2.0px;stroke-linecap:butt;stroke-linejoin:miter;stroke-opacity:1;"/>
<path d="M 188.9,128.8 L 189.6,129.6 L 189.5,130.1" style="fill:none;stroke:#000000;stroke-width:2.0px;stroke-linecap:butt;stroke-linejoin:miter;stroke-opacity:1;"/>
<path d="M 140.3,98.8 L 139.2,99.0 L 138.5,98.2" style="fill:none;stroke:#000000;stroke-width:2.0px;stroke-linecap:butt;stroke-linejoin:miter;stroke-opacity:1;"/>
<path d="M 125.7,82.7 L 124.9,81.8 L 123.8,82.0" style="fill:none;stroke:#000000;stroke-width:2.0px;stroke-linecap:butt;stroke-linejoin:miter;stroke-opacity:1;"/>
<path d="M 106.5,106.5 L 106.7,107.6 L 106.4,107.8" style="fill:none;stroke:#000000;stroke-width:2.0px;stroke-linecap:butt;stroke-linejoin:miter;stroke-opacity:1;"/>
<path d="M 82.1,89.1 L 81.0,89.3 L 80.6,90.4" style="fill:none;stroke:#000000;stroke-width:2.0px;stroke-linecap:butt;stroke-linejoin:miter;stroke-opacity:1;"/>
<path d="M 73.6,109.2 L 73.2,110.2 L 72.1,110.4" style="fill:none;stroke:#000000;stroke-width:2.0px;stroke-linecap:butt;stroke-linejoin:miter;stroke-opacity:1;"/>
<path d="M 47.7,93.1 L 47.5,92.0 L 47.1,91.8" style="fill:none;stroke:#000000;stroke-width:2.0px;stroke-linecap:butt;stroke-linejoin:miter;stroke-opacity:1;"/>
<path d="M 54.8,134.8 L 55.0,135.9 L 54.6,136.2" style="fill:none;stroke:#000000;stroke-width:2.0px;stroke-linecap:butt;stroke-linejoin:miter;stroke-opacity:1;"/>
<path d="M 99.4,64.7 L 99.2,63.6 L 98.8,63.4" style="fill:none;stroke:#000000;stroke-width:2.0px;stroke-linecap:butt;stroke-linejoin:miter;stroke-opacity:1;"/>
<path d="M 244.2,119.4 L 243.8,120.4 L 244.1,120.8" style="fill:none;stroke:#000000;stroke-width:2.0px;stroke-linecap:butt;stroke-linejoin:miter;stroke-opacity:1;"/>
<path d="M 303.2,120.7 L 302.8,121.7 L 302.3,121.8" style="fill:none;stroke:#000000;stroke-width:2.0px;stroke-linecap:butt;stroke-linejoin:miter;stroke-opacity:1;"/>
<path class="atom-3" d="M 294.9 59.6 L 295.8 59.6 L 295.8 62.3 L 299.0 62.3 L 299.0 59.6 L 299.9 59.6 L 299.9 65.9 L 299.0 65.9 L 299.0 63.0 L 295.8 63.0 L 295.8 65.9 L 294.9 65.9 L 294.9 59.6 " fill="#FF0000"/>
<path class="atom-3" d="M 301.2 62.7 Q 301.2 61.2, 301.9 60.4 Q 302.7 59.5, 304.1 59.5 Q 305.5 59.5, 306.2 60.4 Q 307.0 61.2, 307.0 62.7 Q 307.0 64.3, 306.2 65.1 Q 305.5 66.0, 304.1 66.0 Q 302.7 66.0, 301.9 65.1 Q 301.2 64.3, 301.2 62.7 M 304.1 65.3 Q 305.0 65.3, 305.6 64.7 Q 306.1 64.0, 306.1 62.7 Q 306.1 61.5, 305.6 60.9 Q 305.0 60.2, 304.1 60.2 Q 303.1 60.2, 302.6 60.9 Q 302.1 61.5, 302.1 62.7 Q 302.1 64.0, 302.6 64.7 Q 303.1 65.3, 304.1 65.3 " fill="#FF0000"/>
<path class="atom-8" d="M 235.9 58.3 L 236.8 58.3 L 236.8 61.0 L 240.0 61.0 L 240.0 58.3 L 240.9 58.3 L 240.9 64.6 L 240.0 64.6 L 240.0 61.7 L 236.8 61.7 L 236.8 64.6 L 235.9 64.6 L 235.9 58.3 " fill="#FF0000"/>
<path class="atom-8" d="M 242.2 61.5 Q 242.2 59.9, 242.9 59.1 Q 243.7 58.2, 245.1 58.2 Q 246.5 58.2, 247.2 59.1 Q 248.0 59.9, 248.0 61.5 Q 248.0 63.0, 247.2 63.9 Q 246.5 64.7, 245.1 64.7 Q 243.7 64.7, 242.9 63.9 Q 242.2 63.0, 242.2 61.5 M 245.1 64.0 Q 246.0 64.0, 246.6 63.4 Q 247.1 62.7, 247.1 61.5 Q 247.1 60.2, 246.6 59.6 Q 246.0 59.0, 245.1 59.0 Q 244.1 59.0, 243.6 59.6 Q 243.1 60.2, 243.1 61.5 Q 243.1 62.7, 243.6 63.4 Q 244.1 64.0, 245.1 64.0 " fill="#FF0000"/>
<path class="atom-15" d="M 206.8 128.7 Q 206.8 127.2, 207.5 126.4 Q 208.3 125.5, 209.7 125.5 Q 211.1 125.5, 211.8 126.4 Q 212.6 127.2, 212.6 128.7 Q 212.6 130.3, 211.8 131.1 Q 211.1 132.0, 209.7 132.0 Q 208.3 132.0, 207.5 131.1 Q 206.8 130.3, 206.8 128.7 M 209.7 131.3 Q 210.6 131.3, 211.1 130.6 Q 211.7 130.0, 211.7 128.7 Q 211.7 127.5, 211.1 126.9 Q 210.6 126.2, 209.7 126.2 Q 208.7 126.2, 208.2 126.8 Q 207.7 127.5, 207.7 128.7 Q 207.7 130.0, 208.2 130.6 Q 208.7 131.3, 209.7 131.3 " fill="#FF0000"/>
<path class="atom-16" d="M 172.7 147.4 L 173.6 147.4 L 173.6 150.1 L 176.8 150.1 L 176.8 147.4 L 177.7 147.4 L 177.7 153.7 L 176.8 153.7 L 176.8 150.8 L 173.6 150.8 L 173.6 153.7 L 172.7 153.7 L 172.7 147.4 " fill="#FF0000"/>
<path class="atom-16" d="M 179.0 150.6 Q 179.0 149.0, 179.7 148.2 Q 180.5 147.3, 181.9 147.3 Q 183.3 147.3, 184.0 148.2 Q 184.8 149.0, 184.8 150.6 Q 184.8 152.1, 184.0 153.0 Q 183.2 153.8, 181.9 153.8 Q 180.5 153.8, 179.7 153.0 Q 179.0 152.1, 179.0 150.6 M 181.9 153.1 Q 182.8 153.1, 183.3 152.5 Q 183.9 151.8, 183.9 150.6 Q 183.9 149.3, 183.3 148.7 Q 182.8 148.1, 181.9 148.1 Q 180.9 148.1, 180.4 148.7 Q 179.9 149.3, 179.9 150.6 Q 179.9 151.8, 180.4 152.5 Q 180.9 153.1, 181.9 153.1 " fill="#FF0000"/>
<path class="atom-18" d="M 166.0 74.4 Q 166.0 72.9, 166.8 72.0 Q 167.5 71.2, 168.9 71.2 Q 170.3 71.2, 171.1 72.0 Q 171.8 72.9, 171.8 74.4 Q 171.8 75.9, 171.1 76.8 Q 170.3 77.7, 168.9 77.7 Q 167.5 77.7, 166.8 76.8 Q 166.0 75.9, 166.0 74.4 M 168.9 77.0 Q 169.9 77.0, 170.4 76.3 Q 170.9 75.7, 170.9 74.4 Q 170.9 73.2, 170.4 72.5 Q 169.9 71.9, 168.9 71.9 Q 168.0 71.9, 167.4 72.5 Q 166.9 73.1, 166.9 74.4 Q 166.9 75.7, 167.4 76.3 Q 168.0 77.0, 168.9 77.0 " fill="#FF0000"/>
<path class="atom-18" d="M 172.8 71.3 L 173.7 71.3 L 173.7 73.9 L 176.9 73.9 L 176.9 71.3 L 177.7 71.3 L 177.7 77.6 L 176.9 77.6 L 176.9 74.7 L 173.7 74.7 L 173.7 77.6 L 172.8 77.6 L 172.8 71.3 " fill="#FF0000"/>
<path class="atom-23" d="M 80.4 118.7 L 81.2 118.7 L 81.2 121.4 L 84.5 121.4 L 84.5 118.7 L 85.3 118.7 L 85.3 125.0 L 84.5 125.0 L 84.5 122.1 L 81.2 122.1 L 81.2 125.0 L 80.4 125.0 L 80.4 118.7 " fill="#FF0000"/>
<path class="atom-23" d="M 86.6 121.8 Q 86.6 120.3, 87.4 119.4 Q 88.1 118.6, 89.5 118.6 Q 90.9 118.6, 91.7 119.4 Q 92.4 120.3, 92.4 121.8 Q 92.4 123.3, 91.7 124.2 Q 90.9 125.1, 89.5 125.1 Q 88.1 125.1, 87.4 124.2 Q 86.6 123.4, 86.6 121.8 M 89.5 124.4 Q 90.5 124.4, 91.0 123.7 Q 91.5 123.1, 91.5 121.8 Q 91.5 120.6, 91.0 119.9 Q 90.5 119.3, 89.5 119.3 Q 88.6 119.3, 88.0 119.9 Q 87.5 120.6, 87.5 121.8 Q 87.5 123.1, 88.0 123.7 Q 88.6 124.4, 89.5 124.4 " fill="#FF0000"/>
<path class="atom-29" d="M 17.5 81.1 L 18.3 81.1 L 18.3 83.8 L 21.5 83.8 L 21.5 81.1 L 22.4 81.1 L 22.4 87.4 L 21.5 87.4 L 21.5 84.5 L 18.3 84.5 L 18.3 87.4 L 17.5 87.4 L 17.5 81.1 " fill="#FF0000"/>
<path class="atom-29" d="M 23.7 84.2 Q 23.7 82.7, 24.4 81.9 Q 25.2 81.0, 26.6 81.0 Q 28.0 81.0, 28.7 81.9 Q 29.5 82.7, 29.5 84.2 Q 29.5 85.8, 28.7 86.6 Q 28.0 87.5, 26.6 87.5 Q 25.2 87.5, 24.4 86.6 Q 23.7 85.8, 23.7 84.2 M 26.6 86.8 Q 27.5 86.8, 28.1 86.2 Q 28.6 85.5, 28.6 84.2 Q 28.6 83.0, 28.1 82.4 Q 27.5 81.7, 26.6 81.7 Q 25.6 81.7, 25.1 82.4 Q 24.6 83.0, 24.6 84.2 Q 24.6 85.5, 25.1 86.2 Q 25.6 86.8, 26.6 86.8 " fill="#FF0000"/>
<path class="atom-31" d="M 73.0 143.7 Q 73.0 142.2, 73.7 141.4 Q 74.5 140.5, 75.9 140.5 Q 77.3 140.5, 78.0 141.4 Q 78.8 142.2, 78.8 143.7 Q 78.8 145.3, 78.0 146.1 Q 77.3 147.0, 75.9 147.0 Q 74.5 147.0, 73.7 146.1 Q 73.0 145.3, 73.0 143.7 M 75.9 146.3 Q 76.8 146.3, 77.4 145.6 Q 77.9 145.0, 77.9 143.7 Q 77.9 142.5, 77.4 141.9 Q 76.8 141.2, 75.9 141.2 Q 74.9 141.2, 74.4 141.8 Q 73.9 142.5, 73.9 143.7 Q 73.9 145.0, 74.4 145.6 Q 74.9 146.3, 75.9 146.3 " fill="#FF0000"/>
<path class="atom-32" d="M 28.7 147.1 L 29.5 147.1 L 29.5 149.7 L 32.7 149.7 L 32.7 147.1 L 33.6 147.1 L 33.6 153.4 L 32.7 153.4 L 32.7 150.5 L 29.5 150.5 L 29.5 153.4 L 28.7 153.4 L 28.7 147.1 " fill="#FF0000"/>
<path class="atom-32" d="M 34.9 150.2 Q 34.9 148.7, 35.6 147.8 Q 36.4 147.0, 37.8 147.0 Q 39.2 147.0, 39.9 147.8 Q 40.7 148.7, 40.7 150.2 Q 40.7 151.7, 39.9 152.6 Q 39.2 153.5, 37.8 153.5 Q 36.4 153.5, 35.6 152.6 Q 34.9 151.7, 34.9 150.2 M 37.8 152.8 Q 38.8 152.8, 39.3 152.1 Q 39.8 151.5, 39.8 150.2 Q 39.8 149.0, 39.3 148.3 Q 38.8 147.7, 37.8 147.7 Q 36.8 147.7, 36.3 148.3 Q 35.8 148.9, 35.8 150.2 Q 35.8 151.5, 36.3 152.1 Q 36.8 152.8, 37.8 152.8 " fill="#FF0000"/>
<path class="atom-34" d="M 113.5 49.4 Q 113.5 47.9, 114.2 47.0 Q 115.0 46.2, 116.4 46.2 Q 117.8 46.2, 118.5 47.0 Q 119.3 47.9, 119.3 49.4 Q 119.3 50.9, 118.5 51.8 Q 117.8 52.7, 116.4 52.7 Q 115.0 52.7, 114.2 51.8 Q 113.5 50.9, 113.5 49.4 M 116.4 51.9 Q 117.4 51.9, 117.9 51.3 Q 118.4 50.7, 118.4 49.4 Q 118.4 48.1, 117.9 47.5 Q 117.4 46.9, 116.4 46.9 Q 115.4 46.9, 114.9 47.5 Q 114.4 48.1, 114.4 49.4 Q 114.4 50.7, 114.9 51.3 Q 115.4 51.9, 116.4 51.9 " fill="#FF0000"/>
<path class="atom-35" d="M 69.2 52.7 L 70.0 52.7 L 70.0 55.4 L 73.3 55.4 L 73.3 52.7 L 74.1 52.7 L 74.1 59.0 L 73.3 59.0 L 73.3 56.1 L 70.0 56.1 L 70.0 59.0 L 69.2 59.0 L 69.2 52.7 " fill="#FF0000"/>
<path class="atom-35" d="M 75.4 55.9 Q 75.4 54.3, 76.2 53.5 Q 76.9 52.6, 78.3 52.6 Q 79.7 52.6, 80.5 53.5 Q 81.2 54.3, 81.2 55.9 Q 81.2 57.4, 80.5 58.3 Q 79.7 59.1, 78.3 59.1 Q 76.9 59.1, 76.2 58.3 Q 75.4 57.4, 75.4 55.9 M 78.3 58.4 Q 79.3 58.4, 79.8 57.8 Q 80.3 57.1, 80.3 55.9 Q 80.3 54.6, 79.8 54.0 Q 79.3 53.4, 78.3 53.4 Q 77.4 53.4, 76.8 54.0 Q 76.3 54.6, 76.3 55.9 Q 76.3 57.1, 76.8 57.8 Q 77.4 58.4, 78.3 58.4 " fill="#FF0000"/>
<path class="atom-37" d="M 221.7 126.2 Q 221.7 124.7, 222.4 123.8 Q 223.2 123.0, 224.6 123.0 Q 226.0 123.0, 226.7 123.8 Q 227.5 124.7, 227.5 126.2 Q 227.5 127.7, 226.7 128.6 Q 225.9 129.5, 224.6 129.5 Q 223.2 129.5, 222.4 128.6 Q 221.7 127.7, 221.7 126.2 M 224.6 128.7 Q 225.5 128.7, 226.0 128.1 Q 226.6 127.5, 226.6 126.2 Q 226.6 124.9, 226.0 124.3 Q 225.5 123.7, 224.6 123.7 Q 223.6 123.7, 223.1 124.3 Q 222.6 124.9, 222.6 126.2 Q 222.6 127.5, 223.1 128.1 Q 223.6 128.7, 224.6 128.7 " fill="#FF0000"/>
<path class="atom-38" d="M 255.1 137.6 Q 255.1 136.1, 255.9 135.2 Q 256.6 134.4, 258.0 134.4 Q 259.4 134.4, 260.2 135.2 Q 260.9 136.1, 260.9 137.6 Q 260.9 139.1, 260.2 140.0 Q 259.4 140.9, 258.0 140.9 Q 256.6 140.9, 255.9 140.0 Q 255.1 139.2, 255.1 137.6 M 258.0 140.2 Q 259.0 140.2, 259.5 139.5 Q 260.0 138.9, 260.0 137.6 Q 260.0 136.4, 259.5 135.7 Q 259.0 135.1, 258.0 135.1 Q 257.1 135.1, 256.5 135.7 Q 256.0 136.4, 256.0 137.6 Q 256.0 138.9, 256.5 139.5 Q 257.1 140.2, 258.0 140.2 " fill="#FF0000"/>
<path class="atom-38" d="M 261.9 134.5 L 262.8 134.5 L 262.8 137.2 L 266.0 137.2 L 266.0 134.5 L 266.8 134.5 L 266.8 140.8 L 266.0 140.8 L 266.0 137.9 L 262.8 137.9 L 262.8 140.8 L 261.9 140.8 L 261.9 134.5 " fill="#FF0000"/>
<path class="atom-40" d="M 314.1 138.9 Q 314.1 137.4, 314.9 136.5 Q 315.6 135.7, 317.0 135.7 Q 318.4 135.7, 319.2 136.5 Q 319.9 137.4, 319.9 138.9 Q 319.9 140.4, 319.2 141.3 Q 318.4 142.2, 317.0 142.2 Q 315.6 142.2, 314.9 141.3 Q 314.1 140.4, 314.1 138.9 M 317.0 141.5 Q 318.0 141.5, 318.5 140.8 Q 319.0 140.2, 319.0 138.9 Q 319.0 137.7, 318.5 137.0 Q 318.0 136.4, 317.0 136.4 Q 316.0 136.4, 315.5 137.0 Q 315.0 137.7, 315.0 138.9 Q 315.0 140.2, 315.5 140.8 Q 316.0 141.5, 317.0 141.5 " fill="#FF0000"/>
<path class="atom-41" d="M 271.7 122.3 L 272.5 122.3 L 272.5 125.0 L 275.7 125.0 L 275.7 122.3 L 276.6 122.3 L 276.6 128.6 L 275.7 128.6 L 275.7 125.7 L 272.5 125.7 L 272.5 128.6 L 271.7 128.6 L 271.7 122.3 " fill="#FF0000"/>
<path class="atom-41" d="M 277.9 125.5 Q 277.9 123.9, 278.6 123.1 Q 279.4 122.3, 280.8 122.3 Q 282.2 122.3, 282.9 123.1 Q 283.7 123.9, 283.7 125.5 Q 283.7 127.0, 282.9 127.9 Q 282.2 128.7, 280.8 128.7 Q 279.4 128.7, 278.6 127.9 Q 277.9 127.0, 277.9 125.5 M 280.8 128.0 Q 281.8 128.0, 282.3 127.4 Q 282.8 126.7, 282.8 125.5 Q 282.8 124.2, 282.3 123.6 Q 281.8 123.0, 280.8 123.0 Q 279.8 123.0, 279.3 123.6 Q 278.8 124.2, 278.8 125.5 Q 278.8 126.7, 279.3 127.4 Q 279.8 128.0, 280.8 128.0 " fill="#FF0000"/>
</g>
  </g>
</svg>
