<?xml version='1.0' encoding='ASCII' standalone='yes'?>
<svg xmlns="http://www.w3.org/2000/svg" xmlns:xlink="http://www.w3.org/1999/xlink" version="1.1" width="961.0px" viewBox="0 0 961.0 200.0" height="200.0px">
  <g>
    <g transform="translate(0, 0) scale(1 1) "><!-- END OF HEADER -->
<rect style="opacity:1.0;fill:#FFFFFF;stroke:none" width="311.0" height="200.0" x="0.0" y="0.0"> </rect>
<path class="bond-0 atom-0 atom-1" d="M 266.8,62.2 L 244.0,87.3" style="fill:none;fill-rule:evenodd;stroke:#000000;stroke-width:2.0px;stroke-linecap:butt;stroke-linejoin:miter;stroke-opacity:1"/>
<path class="bond-1 atom-1 atom-2" d="M 244.0,87.3 L 248.2,100.5" style="fill:none;fill-rule:evenodd;stroke:#000000;stroke-width:2.0px;stroke-linecap:butt;stroke-linejoin:miter;stroke-opacity:1"/>
<path class="bond-1 atom-1 atom-2" d="M 248.2,100.5 L 252.4,113.7" style="fill:none;fill-rule:evenodd;stroke:#FF0000;stroke-width:2.0px;stroke-linecap:butt;stroke-linejoin:miter;stroke-opacity:1"/>
<path class="bond-2 atom-1 atom-3" d="M 244.0,87.3 L 210.8,80.0" style="fill:none;fill-rule:evenodd;stroke:#000000;stroke-width:2.0px;stroke-linecap:butt;stroke-linejoin:miter;stroke-opacity:1"/>
<path class="bond-3 atom-3 atom-4" d="M 210.8,80.0 L 218.1,46.8" style="fill:none;fill-rule:evenodd;stroke:#000000;stroke-width:2.0px;stroke-linecap:butt;stroke-linejoin:miter;stroke-opacity:1"/>
<path class="bond-4 atom-3 atom-5" d="M 210.8,80.0 L 203.6,113.2" style="fill:none;fill-rule:evenodd;stroke:#000000;stroke-width:2.0px;stroke-linecap:butt;stroke-linejoin:miter;stroke-opacity:1"/>
<path class="bond-5 atom-5 atom-6" d="M 203.6,113.2 L 171.2,123.5" style="fill:none;fill-rule:evenodd;stroke:#000000;stroke-width:2.0px;stroke-linecap:butt;stroke-linejoin:miter;stroke-opacity:1"/>
<path class="bond-6 atom-6 atom-7" d="M 171.2,123.5 L 157.0,92.6" style="fill:none;fill-rule:evenodd;stroke:#000000;stroke-width:2.0px;stroke-linecap:butt;stroke-linejoin:miter;stroke-opacity:1"/>
<path class="bond-7 atom-6 atom-8" d="M 171.2,123.5 L 181.5,155.9" style="fill:none;fill-rule:evenodd;stroke:#000000;stroke-width:2.0px;stroke-linecap:butt;stroke-linejoin:miter;stroke-opacity:1"/>
<path class="bond-8 atom-6 atom-9" d="M 171.2,123.5 L 138.8,133.8" style="fill:none;fill-rule:evenodd;stroke:#000000;stroke-width:2.0px;stroke-linecap:butt;stroke-linejoin:miter;stroke-opacity:1"/>
<path class="bond-9 atom-9 atom-10" d="M 138.8,133.8 L 135.9,147.4" style="fill:none;fill-rule:evenodd;stroke:#000000;stroke-width:2.0px;stroke-linecap:butt;stroke-linejoin:miter;stroke-opacity:1"/>
<path class="bond-9 atom-9 atom-10" d="M 135.9,147.4 L 132.9,161.0" style="fill:none;fill-rule:evenodd;stroke:#FF0000;stroke-width:2.0px;stroke-linecap:butt;stroke-linejoin:miter;stroke-opacity:1"/>
<path class="bond-10 atom-9 atom-11" d="M 138.8,133.8 L 113.7,110.9" style="fill:none;fill-rule:evenodd;stroke:#000000;stroke-width:2.0px;stroke-linecap:butt;stroke-linejoin:miter;stroke-opacity:1"/>
<path class="bond-11 atom-11 atom-12" d="M 113.7,110.9 L 90.9,136.1" style="fill:none;fill-rule:evenodd;stroke:#000000;stroke-width:2.0px;stroke-linecap:butt;stroke-linejoin:miter;stroke-opacity:1"/>
<path class="bond-12 atom-11 atom-13" d="M 113.7,110.9 L 88.6,88.1" style="fill:none;fill-rule:evenodd;stroke:#000000;stroke-width:2.0px;stroke-linecap:butt;stroke-linejoin:miter;stroke-opacity:1"/>
<path class="bond-13 atom-13 atom-14" d="M 88.6,88.1 L 75.2,92.4" style="fill:none;fill-rule:evenodd;stroke:#000000;stroke-width:2.0px;stroke-linecap:butt;stroke-linejoin:miter;stroke-opacity:1"/>
<path class="bond-13 atom-13 atom-14" d="M 75.2,92.4 L 61.8,96.6" style="fill:none;fill-rule:evenodd;stroke:#FF0000;stroke-width:2.0px;stroke-linecap:butt;stroke-linejoin:miter;stroke-opacity:1"/>
<path class="bond-14 atom-11 atom-15" d="M 113.7,110.9 L 136.6,85.8" style="fill:none;fill-rule:evenodd;stroke:#000000;stroke-width:2.0px;stroke-linecap:butt;stroke-linejoin:miter;stroke-opacity:1"/>
<path class="bond-15 atom-15 atom-16" d="M 136.6,85.8 L 126.3,53.5" style="fill:none;fill-rule:evenodd;stroke:#000000;stroke-width:2.0px;stroke-linecap:butt;stroke-linejoin:miter;stroke-opacity:1"/>
<path class="bond-16 atom-16 atom-17" d="M 126.3,53.5 L 116.0,21.1" style="fill:none;fill-rule:evenodd;stroke:#000000;stroke-width:2.0px;stroke-linecap:butt;stroke-linejoin:miter;stroke-opacity:1"/>
<path class="bond-17 atom-16 atom-18" d="M 126.3,53.5 L 93.9,63.8" style="fill:none;fill-rule:evenodd;stroke:#000000;stroke-width:2.0px;stroke-linecap:butt;stroke-linejoin:miter;stroke-opacity:1"/>
<path class="bond-18 atom-18 atom-19" d="M 92.0,62.0 L 89.3,67.5" style="fill:none;fill-rule:evenodd;stroke:#000000;stroke-width:2.0px;stroke-linecap:butt;stroke-linejoin:miter;stroke-opacity:1"/>
<path class="bond-18 atom-18 atom-19" d="M 89.3,67.5 L 86.6,72.9" style="fill:none;fill-rule:evenodd;stroke:#FF0000;stroke-width:2.0px;stroke-linecap:butt;stroke-linejoin:miter;stroke-opacity:1"/>
<path class="bond-18 atom-18 atom-19" d="M 97.3,62.7 L 93.8,69.7" style="fill:none;fill-rule:evenodd;stroke:#000000;stroke-width:2.0px;stroke-linecap:butt;stroke-linejoin:miter;stroke-opacity:1"/>
<path class="bond-18 atom-18 atom-19" d="M 93.8,69.7 L 91.1,75.1" style="fill:none;fill-rule:evenodd;stroke:#FF0000;stroke-width:2.0px;stroke-linecap:butt;stroke-linejoin:miter;stroke-opacity:1"/>
<path class="bond-19 atom-18 atom-20" d="M 93.9,63.8 L 84.1,54.9" style="fill:none;fill-rule:evenodd;stroke:#000000;stroke-width:2.0px;stroke-linecap:butt;stroke-linejoin:miter;stroke-opacity:1"/>
<path class="bond-19 atom-18 atom-20" d="M 84.1,54.9 L 74.4,46.0" style="fill:none;fill-rule:evenodd;stroke:#FF0000;stroke-width:2.0px;stroke-linecap:butt;stroke-linejoin:miter;stroke-opacity:1"/>
<path class="bond-20 atom-16 atom-21" d="M 126.3,53.5 L 158.7,43.2" style="fill:none;fill-rule:evenodd;stroke:#000000;stroke-width:2.0px;stroke-linecap:butt;stroke-linejoin:miter;stroke-opacity:1"/>
<path class="bond-21 atom-21 atom-22" d="M 158.7,43.2 L 165.9,10.0" style="fill:none;fill-rule:evenodd;stroke:#000000;stroke-width:2.0px;stroke-linecap:butt;stroke-linejoin:miter;stroke-opacity:1"/>
<path class="bond-22 atom-21 atom-23" d="M 158.7,43.2 L 166.1,54.3" style="fill:none;fill-rule:evenodd;stroke:#000000;stroke-width:2.0px;stroke-linecap:butt;stroke-linejoin:miter;stroke-opacity:1"/>
<path class="bond-22 atom-21 atom-23" d="M 166.1,54.3 L 173.5,65.5" style="fill:none;fill-rule:evenodd;stroke:#FF0000;stroke-width:2.0px;stroke-linecap:butt;stroke-linejoin:miter;stroke-opacity:1"/>
<path class="bond-23 atom-3 atom-24" d="M 210.8,80.0 L 177.6,72.8" style="fill:none;fill-rule:evenodd;stroke:#000000;stroke-width:2.0px;stroke-linecap:butt;stroke-linejoin:miter;stroke-opacity:1"/>
<path class="bond-24 atom-24 atom-25" d="M 177.4,69.6 L 166.6,79.0" style="fill:none;fill-rule:evenodd;stroke:#000000;stroke-width:2.0px;stroke-linecap:butt;stroke-linejoin:miter;stroke-opacity:1"/>
<path class="bond-24 atom-24 atom-25" d="M 166.6,79.0 L 155.8,88.3" style="fill:none;fill-rule:evenodd;stroke:#FF0000;stroke-width:2.0px;stroke-linecap:butt;stroke-linejoin:miter;stroke-opacity:1"/>
<path class="bond-24 atom-24 atom-25" d="M 180.7,73.4 L 169.9,82.7" style="fill:none;fill-rule:evenodd;stroke:#000000;stroke-width:2.0px;stroke-linecap:butt;stroke-linejoin:miter;stroke-opacity:1"/>
<path class="bond-24 atom-24 atom-25" d="M 169.9,82.7 L 159.0,92.1" style="fill:none;fill-rule:evenodd;stroke:#FF0000;stroke-width:2.0px;stroke-linecap:butt;stroke-linejoin:miter;stroke-opacity:1"/>
<path class="bond-25 atom-24 atom-26" d="M 177.6,72.8 L 176.7,58.9" style="fill:none;fill-rule:evenodd;stroke:#000000;stroke-width:2.0px;stroke-linecap:butt;stroke-linejoin:miter;stroke-opacity:1"/>
<path class="bond-25 atom-24 atom-26" d="M 176.7,58.9 L 175.9,45.0" style="fill:none;fill-rule:evenodd;stroke:#FF0000;stroke-width:2.0px;stroke-linecap:butt;stroke-linejoin:miter;stroke-opacity:1"/>
<path d="M 203.9,111.5 L 203.6,113.2 L 201.9,113.7" style="fill:none;stroke:#000000;stroke-width:2.0px;stroke-linecap:butt;stroke-linejoin:miter;stroke-opacity:1;"/>
<path d="M 89.9,89.2 L 88.6,88.1 L 88.0,88.3" style="fill:none;stroke:#000000;stroke-width:2.0px;stroke-linecap:butt;stroke-linejoin:miter;stroke-opacity:1;"/>
<path d="M 135.5,87.1 L 136.6,85.8 L 136.1,84.2" style="fill:none;stroke:#000000;stroke-width:2.0px;stroke-linecap:butt;stroke-linejoin:miter;stroke-opacity:1;"/>
<path d="M 95.6,63.3 L 93.9,63.8 L 93.5,63.3" style="fill:none;stroke:#000000;stroke-width:2.0px;stroke-linecap:butt;stroke-linejoin:miter;stroke-opacity:1;"/>
<path d="M 179.3,73.1 L 177.6,72.8 L 177.6,72.1" style="fill:none;stroke:#000000;stroke-width:2.0px;stroke-linecap:butt;stroke-linejoin:miter;stroke-opacity:1;"/>
<path class="atom-2" d="M 249.9 119.6 Q 249.9 117.3, 251.0 116.0 Q 252.2 114.8, 254.3 114.8 Q 256.4 114.8, 257.6 116.0 Q 258.7 117.3, 258.7 119.6 Q 258.7 122.0, 257.6 123.3 Q 256.4 124.6, 254.3 124.6 Q 252.2 124.6, 251.0 123.3 Q 249.9 122.0, 249.9 119.6 M 254.3 123.5 Q 255.8 123.5, 256.5 122.6 Q 257.4 121.6, 257.4 119.6 Q 257.4 117.8, 256.5 116.8 Q 255.8 115.8, 254.3 115.8 Q 252.8 115.8, 252.0 116.8 Q 251.2 117.7, 251.2 119.6 Q 251.2 121.6, 252.0 122.6 Q 252.8 123.5, 254.3 123.5 " fill="#FF0000"/>
<path class="atom-2" d="M 260.2 114.9 L 261.5 114.9 L 261.5 119.0 L 266.4 119.0 L 266.4 114.9 L 267.7 114.9 L 267.7 124.5 L 266.4 124.5 L 266.4 120.0 L 261.5 120.0 L 261.5 124.5 L 260.2 124.5 L 260.2 114.9 " fill="#FF0000"/>
<path class="atom-10" d="M 127.2 167.0 Q 127.2 164.7, 128.3 163.4 Q 129.5 162.1, 131.6 162.1 Q 133.7 162.1, 134.9 163.4 Q 136.0 164.7, 136.0 167.0 Q 136.0 169.4, 134.9 170.7 Q 133.7 172.0, 131.6 172.0 Q 129.5 172.0, 128.3 170.7 Q 127.2 169.4, 127.2 167.0 M 131.6 170.9 Q 133.1 170.9, 133.9 169.9 Q 134.7 168.9, 134.7 167.0 Q 134.7 165.1, 133.9 164.2 Q 133.1 163.2, 131.6 163.2 Q 130.1 163.2, 129.3 164.2 Q 128.5 165.1, 128.5 167.0 Q 128.5 169.0, 129.3 169.9 Q 130.1 170.9, 131.6 170.9 " fill="#FF0000"/>
<path class="atom-10" d="M 137.5 162.2 L 138.8 162.2 L 138.8 166.3 L 143.7 166.3 L 143.7 162.2 L 145.0 162.2 L 145.0 171.9 L 143.7 171.9 L 143.7 167.4 L 138.8 167.4 L 138.8 171.9 L 137.5 171.9 L 137.5 162.2 " fill="#FF0000"/>
<path class="atom-14" d="M 42.4 93.6 L 43.7 93.6 L 43.7 97.7 L 48.6 97.7 L 48.6 93.6 L 49.9 93.6 L 49.9 103.3 L 48.6 103.3 L 48.6 98.8 L 43.7 98.8 L 43.7 103.3 L 42.4 103.3 L 42.4 93.6 " fill="#FF0000"/>
<path class="atom-14" d="M 51.9 98.4 Q 51.9 96.1, 53.0 94.8 Q 54.1 93.5, 56.3 93.5 Q 58.4 93.5, 59.6 94.8 Q 60.7 96.1, 60.7 98.4 Q 60.7 100.8, 59.5 102.1 Q 58.4 103.4, 56.3 103.4 Q 54.2 103.4, 53.0 102.1 Q 51.9 100.8, 51.9 98.4 M 56.3 102.3 Q 57.7 102.3, 58.5 101.3 Q 59.3 100.3, 59.3 98.4 Q 59.3 96.5, 58.5 95.6 Q 57.7 94.6, 56.3 94.6 Q 54.8 94.6, 54.0 95.6 Q 53.2 96.5, 53.2 98.4 Q 53.2 100.4, 54.0 101.3 Q 54.8 102.3, 56.3 102.3 " fill="#FF0000"/>
<path class="atom-19" d="M 81.5 80.0 Q 81.5 77.7, 82.7 76.4 Q 83.8 75.1, 85.9 75.1 Q 88.1 75.1, 89.2 76.4 Q 90.4 77.7, 90.4 80.0 Q 90.4 82.3, 89.2 83.7 Q 88.0 85.0, 85.9 85.0 Q 83.8 85.0, 82.7 83.7 Q 81.5 82.3, 81.5 80.0 M 85.9 83.9 Q 87.4 83.9, 88.2 82.9 Q 89.0 81.9, 89.0 80.0 Q 89.0 78.1, 88.2 77.2 Q 87.4 76.2, 85.9 76.2 Q 84.5 76.2, 83.7 77.1 Q 82.9 78.1, 82.9 80.0 Q 82.9 81.9, 83.7 82.9 Q 84.5 83.9, 85.9 83.9 " fill="#FF0000"/>
<path class="atom-20" d="M 54.9 36.2 L 56.2 36.2 L 56.2 40.3 L 61.1 40.3 L 61.1 36.2 L 62.4 36.2 L 62.4 45.8 L 61.1 45.8 L 61.1 41.4 L 56.2 41.4 L 56.2 45.8 L 54.9 45.8 L 54.9 36.2 " fill="#FF0000"/>
<path class="atom-20" d="M 64.4 41.0 Q 64.4 38.6, 65.6 37.4 Q 66.7 36.1, 68.8 36.1 Q 71.0 36.1, 72.1 37.4 Q 73.3 38.6, 73.3 41.0 Q 73.3 43.3, 72.1 44.6 Q 70.9 45.9, 68.8 45.9 Q 66.7 45.9, 65.6 44.6 Q 64.4 43.3, 64.4 41.0 M 68.8 44.9 Q 70.3 44.9, 71.1 43.9 Q 71.9 42.9, 71.9 41.0 Q 71.9 39.1, 71.1 38.1 Q 70.3 37.2, 68.8 37.2 Q 67.4 37.2, 66.6 38.1 Q 65.8 39.1, 65.8 41.0 Q 65.8 42.9, 66.6 43.9 Q 67.4 44.9, 68.8 44.9 " fill="#FF0000"/>
<path class="atom-23" d="M 173.1 71.5 Q 173.1 69.2, 174.2 67.9 Q 175.3 66.6, 177.5 66.6 Q 179.6 66.6, 180.8 67.9 Q 181.9 69.2, 181.9 71.5 Q 181.9 73.8, 180.7 75.1 Q 179.6 76.4, 177.5 76.4 Q 175.4 76.4, 174.2 75.1 Q 173.1 73.8, 173.1 71.5 M 177.5 75.4 Q 178.9 75.4, 179.7 74.4 Q 180.5 73.4, 180.5 71.5 Q 180.5 69.6, 179.7 68.6 Q 178.9 67.7, 177.5 67.7 Q 176.0 67.7, 175.2 68.6 Q 174.4 69.6, 174.4 71.5 Q 174.4 73.4, 175.2 74.4 Q 176.0 75.4, 177.5 75.4 " fill="#FF0000"/>
<path class="atom-23" d="M 183.4 66.7 L 184.7 66.7 L 184.7 70.8 L 189.6 70.8 L 189.6 66.7 L 190.9 66.7 L 190.9 76.3 L 189.6 76.3 L 189.6 71.9 L 184.7 71.9 L 184.7 76.3 L 183.4 76.3 L 183.4 66.7 " fill="#FF0000"/>
<path class="atom-25" d="M 147.5 94.9 Q 147.5 92.6, 148.6 91.3 Q 149.7 90.0, 151.9 90.0 Q 154.0 90.0, 155.2 91.3 Q 156.3 92.6, 156.3 94.9 Q 156.3 97.3, 155.1 98.6 Q 154.0 99.9, 151.9 99.9 Q 149.8 99.9, 148.6 98.6 Q 147.5 97.3, 147.5 94.9 M 151.9 98.8 Q 153.3 98.8, 154.1 97.8 Q 154.9 96.9, 154.9 94.9 Q 154.9 93.0, 154.1 92.1 Q 153.3 91.1, 151.9 91.1 Q 150.4 91.1, 149.6 92.1 Q 148.8 93.0, 148.8 94.9 Q 148.8 96.9, 149.6 97.8 Q 150.4 98.8, 151.9 98.8 " fill="#FF0000"/>
<path class="atom-26" d="M 171.0 38.9 Q 171.0 36.6, 172.2 35.3 Q 173.3 34.0, 175.5 34.0 Q 177.6 34.0, 178.7 35.3 Q 179.9 36.6, 179.9 38.9 Q 179.9 41.2, 178.7 42.6 Q 177.6 43.9, 175.5 43.9 Q 173.3 43.9, 172.2 42.6 Q 171.0 41.3, 171.0 38.9 M 175.5 42.8 Q 176.9 42.8, 177.7 41.8 Q 178.5 40.8, 178.5 38.9 Q 178.5 37.0, 177.7 36.1 Q 176.9 35.1, 175.5 35.1 Q 174.0 35.1, 173.2 36.1 Q 172.4 37.0, 172.4 38.9 Q 172.4 40.8, 173.2 41.8 Q 174.0 42.8, 175.5 42.8 " fill="#FF0000"/>
<path class="atom-26" d="M 181.4 34.1 L 182.7 34.1 L 182.7 38.2 L 187.6 38.2 L 187.6 34.1 L 188.9 34.1 L 188.9 43.7 L 187.6 43.7 L 187.6 39.3 L 182.7 39.3 L 182.7 43.7 L 181.4 43.7 L 181.4 34.1 " fill="#FF0000"/>
<path class="atom-23" d="M 175.2,69.2 L 175.2,73.7 L 179.7,73.7 L 179.7,69.2 L 175.2,69.2" style="fill:none;stroke:#FF0000;stroke-width:2.0px;stroke-linecap:butt;stroke-linejoin:miter;stroke-opacity:1;"/>
<path class="legend" d="M 146.0 181.9 Q 146.0 179.6, 146.7 177.7 Q 147.4 175.8, 148.7 173.8 L 149.6 174.4 Q 148.5 176.3, 148.0 178.0 Q 147.5 179.7, 147.5 181.9 Q 147.5 184.0, 148.0 185.8 Q 148.5 187.5, 149.6 189.4 L 148.7 190.0 Q 147.4 188.0, 146.7 186.1 Q 146.0 184.2, 146.0 181.9 " fill="#000000"/>
<path class="legend" d="M 150.5 177.3 Q 150.9 176.2, 151.9 175.6 Q 152.9 175.0, 154.3 175.0 Q 156.0 175.0, 156.9 175.9 Q 157.9 176.8, 157.9 178.5 Q 157.9 180.2, 156.6 181.7 Q 155.4 183.3, 152.9 185.2 L 158.1 185.2 L 158.1 186.4 L 150.5 186.4 L 150.5 185.4 Q 152.6 183.9, 153.8 182.8 Q 155.1 181.6, 155.7 180.6 Q 156.3 179.6, 156.3 178.6 Q 156.3 177.5, 155.8 176.9 Q 155.2 176.3, 154.3 176.3 Q 153.3 176.3, 152.7 176.6 Q 152.1 177.0, 151.7 177.8 L 150.5 177.3 " fill="#000000"/>
<path class="legend" d="M 163.1 181.9 Q 163.1 184.2, 162.4 186.1 Q 161.7 188.0, 160.4 190.0 L 159.5 189.4 Q 160.6 187.5, 161.1 185.8 Q 161.6 184.0, 161.6 181.9 Q 161.6 179.7, 161.1 178.0 Q 160.6 176.3, 159.5 174.4 L 160.4 173.8 Q 161.7 175.8, 162.4 177.7 Q 163.1 179.6, 163.1 181.9 " fill="#000000"/>
</g>
    <g transform="translate(311.0, 0) scale(1 1) "><line x1="5" y1="100" x2="35" y2="100" style="stroke:rgb(0,0,0);stroke-width:2"/>
  <line x1="34" y1="100" x2="29" y2="95" style="stroke:rgb(0,0,0);stroke-width:2"/>
  <line x1="34" y1="100" x2="29" y2="105" style="stroke:rgb(0,0,0);stroke-width:2"/>
</g>
    <g transform="translate(351.0, 0) scale(1 1) "><!-- END OF HEADER -->
<rect style="opacity:1.0;fill:#FFFFFF;stroke:none" width="355.0" height="200.0" x="0.0" y="0.0"> </rect>
<path class="bond-0 atom-0 atom-1" d="M 292.6,22.4 L 298.6,50.1" style="fill:none;fill-rule:evenodd;stroke:#000000;stroke-width:2.0px;stroke-linecap:butt;stroke-linejoin:miter;stroke-opacity:1"/>
<path class="bond-1 atom-1 atom-2" d="M 298.6,50.1 L 309.8,53.7" style="fill:none;fill-rule:evenodd;stroke:#000000;stroke-width:2.0px;stroke-linecap:butt;stroke-linejoin:miter;stroke-opacity:1"/>
<path class="bond-1 atom-1 atom-2" d="M 309.8,53.7 L 321.0,57.3" style="fill:none;fill-rule:evenodd;stroke:#FF0000;stroke-width:2.0px;stroke-linecap:butt;stroke-linejoin:miter;stroke-opacity:1"/>
<path class="bond-2 atom-1 atom-3" d="M 298.6,50.1 L 277.6,69.1" style="fill:none;fill-rule:evenodd;stroke:#000000;stroke-width:2.0px;stroke-linecap:butt;stroke-linejoin:miter;stroke-opacity:1"/>
<path class="bond-3 atom-3 atom-4" d="M 277.6,69.1 L 258.6,48.1" style="fill:none;fill-rule:evenodd;stroke:#000000;stroke-width:2.0px;stroke-linecap:butt;stroke-linejoin:miter;stroke-opacity:1"/>
<path class="bond-4 atom-3 atom-5" d="M 277.6,69.1 L 296.6,90.1" style="fill:none;fill-rule:evenodd;stroke:#000000;stroke-width:2.0px;stroke-linecap:butt;stroke-linejoin:miter;stroke-opacity:1"/>
<path class="bond-5 atom-5 atom-6" d="M 296.6,90.1 L 287.9,117.0" style="fill:none;fill-rule:evenodd;stroke:#000000;stroke-width:2.0px;stroke-linecap:butt;stroke-linejoin:miter;stroke-opacity:1"/>
<path class="bond-6 atom-6 atom-7" d="M 287.9,117.0 L 260.1,111.7" style="fill:none;fill-rule:evenodd;stroke:#000000;stroke-width:2.0px;stroke-linecap:butt;stroke-linejoin:miter;stroke-opacity:1"/>
<path class="bond-7 atom-6 atom-8" d="M 287.9,117.0 L 314.9,125.7" style="fill:none;fill-rule:evenodd;stroke:#000000;stroke-width:2.0px;stroke-linecap:butt;stroke-linejoin:miter;stroke-opacity:1"/>
<path class="bond-8 atom-6 atom-9" d="M 287.9,117.0 L 279.2,144.0" style="fill:none;fill-rule:evenodd;stroke:#000000;stroke-width:2.0px;stroke-linecap:butt;stroke-linejoin:miter;stroke-opacity:1"/>
<path class="bond-9 atom-9 atom-10" d="M 279.2,144.0 L 286.5,152.0" style="fill:none;fill-rule:evenodd;stroke:#000000;stroke-width:2.0px;stroke-linecap:butt;stroke-linejoin:miter;stroke-opacity:1"/>
<path class="bond-9 atom-9 atom-10" d="M 286.5,152.0 L 293.7,160.0" style="fill:none;fill-rule:evenodd;stroke:#FF0000;stroke-width:2.0px;stroke-linecap:butt;stroke-linejoin:miter;stroke-opacity:1"/>
<path class="bond-10 atom-9 atom-11" d="M 279.2,144.0 L 251.5,149.9" style="fill:none;fill-rule:evenodd;stroke:#000000;stroke-width:2.0px;stroke-linecap:butt;stroke-linejoin:miter;stroke-opacity:1"/>
<path class="bond-11 atom-11 atom-12" d="M 251.5,149.9 L 257.5,177.6" style="fill:none;fill-rule:evenodd;stroke:#000000;stroke-width:2.0px;stroke-linecap:butt;stroke-linejoin:miter;stroke-opacity:1"/>
<path class="bond-12 atom-11 atom-13" d="M 251.5,149.9 L 223.9,155.9" style="fill:none;fill-rule:evenodd;stroke:#000000;stroke-width:2.0px;stroke-linecap:butt;stroke-linejoin:miter;stroke-opacity:1"/>
<path class="bond-13 atom-13 atom-14" d="M 223.9,155.9 L 219.9,153.2" style="fill:none;fill-rule:evenodd;stroke:#000000;stroke-width:2.0px;stroke-linecap:butt;stroke-linejoin:miter;stroke-opacity:1"/>
<path class="bond-13 atom-13 atom-14" d="M 219.9,153.2 L 215.9,150.6" style="fill:none;fill-rule:evenodd;stroke:#FF0000;stroke-width:2.0px;stroke-linecap:butt;stroke-linejoin:miter;stroke-opacity:1"/>
<path class="bond-14 atom-11 atom-15" d="M 251.5,149.9 L 245.6,122.2" style="fill:none;fill-rule:evenodd;stroke:#000000;stroke-width:2.0px;stroke-linecap:butt;stroke-linejoin:miter;stroke-opacity:1"/>
<path class="bond-15 atom-15 atom-16" d="M 245.6,122.2 L 218.6,113.6" style="fill:none;fill-rule:evenodd;stroke:#000000;stroke-width:2.0px;stroke-linecap:butt;stroke-linejoin:miter;stroke-opacity:1"/>
<path class="bond-16 atom-16 atom-17" d="M 218.6,113.6 L 191.7,104.9" style="fill:none;fill-rule:evenodd;stroke:#000000;stroke-width:2.0px;stroke-linecap:butt;stroke-linejoin:miter;stroke-opacity:1"/>
<path class="bond-17 atom-17 atom-18" d="M 191.7,104.9 L 170.7,123.9" style="fill:none;fill-rule:evenodd;stroke:#000000;stroke-width:2.0px;stroke-linecap:butt;stroke-linejoin:miter;stroke-opacity:1"/>
<path class="bond-18 atom-18 atom-19" d="M 170.7,123.9 L 149.7,142.9" style="fill:none;fill-rule:evenodd;stroke:#000000;stroke-width:2.0px;stroke-linecap:butt;stroke-linejoin:miter;stroke-opacity:1"/>
<path class="bond-19 atom-18 atom-20" d="M 170.7,123.9 L 189.7,144.9" style="fill:none;fill-rule:evenodd;stroke:#000000;stroke-width:2.0px;stroke-linecap:butt;stroke-linejoin:miter;stroke-opacity:1"/>
<path class="bond-20 atom-20 atom-21" d="M 189.7,144.9 L 186.1,155.9" style="fill:none;fill-rule:evenodd;stroke:#000000;stroke-width:2.0px;stroke-linecap:butt;stroke-linejoin:miter;stroke-opacity:1"/>
<path class="bond-20 atom-20 atom-21" d="M 186.1,155.9 L 182.6,166.9" style="fill:none;fill-rule:evenodd;stroke:#FF0000;stroke-width:2.0px;stroke-linecap:butt;stroke-linejoin:miter;stroke-opacity:1"/>
<path class="bond-21 atom-18 atom-22" d="M 170.7,123.9 L 151.7,102.9" style="fill:none;fill-rule:evenodd;stroke:#000000;stroke-width:2.0px;stroke-linecap:butt;stroke-linejoin:miter;stroke-opacity:1"/>
<path class="bond-22 atom-22 atom-23" d="M 151.7,102.9 L 155.2,91.9" style="fill:none;fill-rule:evenodd;stroke:#000000;stroke-width:2.0px;stroke-linecap:butt;stroke-linejoin:miter;stroke-opacity:1"/>
<path class="bond-22 atom-22 atom-23" d="M 155.2,91.9 L 158.7,81.0" style="fill:none;fill-rule:evenodd;stroke:#FF0000;stroke-width:2.0px;stroke-linecap:butt;stroke-linejoin:miter;stroke-opacity:1"/>
<path class="bond-23 atom-22 atom-24" d="M 151.7,102.9 L 124.0,108.8" style="fill:none;fill-rule:evenodd;stroke:#000000;stroke-width:2.0px;stroke-linecap:butt;stroke-linejoin:miter;stroke-opacity:1"/>
<path class="bond-24 atom-24 atom-25" d="M 124.0,108.8 L 122.5,92.2" style="fill:none;fill-rule:evenodd;stroke:#000000;stroke-width:2.0px;stroke-linecap:butt;stroke-linejoin:miter;stroke-opacity:1"/>
<path class="bond-25 atom-24 atom-26" d="M 124.0,108.8 L 129.9,136.5" style="fill:none;fill-rule:evenodd;stroke:#000000;stroke-width:2.0px;stroke-linecap:butt;stroke-linejoin:miter;stroke-opacity:1"/>
<path class="bond-26 atom-24 atom-27" d="M 124.0,108.8 L 96.3,114.8" style="fill:none;fill-rule:evenodd;stroke:#000000;stroke-width:2.0px;stroke-linecap:butt;stroke-linejoin:miter;stroke-opacity:1"/>
<path class="bond-27 atom-27 atom-28" d="M 96.3,114.8 L 77.3,93.8" style="fill:none;fill-rule:evenodd;stroke:#000000;stroke-width:2.0px;stroke-linecap:butt;stroke-linejoin:miter;stroke-opacity:1"/>
<path class="bond-28 atom-28 atom-29" d="M 77.3,93.8 L 58.3,72.8" style="fill:none;fill-rule:evenodd;stroke:#000000;stroke-width:2.0px;stroke-linecap:butt;stroke-linejoin:miter;stroke-opacity:1"/>
<path class="bond-29 atom-28 atom-30" d="M 77.3,93.8 L 98.3,74.8" style="fill:none;fill-rule:evenodd;stroke:#000000;stroke-width:2.0px;stroke-linecap:butt;stroke-linejoin:miter;stroke-opacity:1"/>
<path class="bond-30 atom-30 atom-31" d="M 96.4,76.5 L 103.1,77.8" style="fill:none;fill-rule:evenodd;stroke:#000000;stroke-width:2.0px;stroke-linecap:butt;stroke-linejoin:miter;stroke-opacity:1"/>
<path class="bond-30 atom-30 atom-31" d="M 103.1,77.8 L 109.7,79.1" style="fill:none;fill-rule:evenodd;stroke:#FF0000;stroke-width:2.0px;stroke-linecap:butt;stroke-linejoin:miter;stroke-opacity:1"/>
<path class="bond-30 atom-30 atom-31" d="M 97.8,72.6 L 103.8,73.8" style="fill:none;fill-rule:evenodd;stroke:#000000;stroke-width:2.0px;stroke-linecap:butt;stroke-linejoin:miter;stroke-opacity:1"/>
<path class="bond-30 atom-30 atom-31" d="M 103.8,73.8 L 110.5,75.0" style="fill:none;fill-rule:evenodd;stroke:#FF0000;stroke-width:2.0px;stroke-linecap:butt;stroke-linejoin:miter;stroke-opacity:1"/>
<path class="bond-31 atom-30 atom-32" d="M 98.3,74.8 L 95.9,63.5" style="fill:none;fill-rule:evenodd;stroke:#000000;stroke-width:2.0px;stroke-linecap:butt;stroke-linejoin:miter;stroke-opacity:1"/>
<path class="bond-31 atom-30 atom-32" d="M 95.9,63.5 L 93.4,52.2" style="fill:none;fill-rule:evenodd;stroke:#FF0000;stroke-width:2.0px;stroke-linecap:butt;stroke-linejoin:miter;stroke-opacity:1"/>
<path class="bond-32 atom-28 atom-33" d="M 77.3,93.8 L 56.3,112.8" style="fill:none;fill-rule:evenodd;stroke:#000000;stroke-width:2.0px;stroke-linecap:butt;stroke-linejoin:miter;stroke-opacity:1"/>
<path class="bond-33 atom-33 atom-34" d="M 56.3,112.8 L 62.3,140.5" style="fill:none;fill-rule:evenodd;stroke:#000000;stroke-width:2.0px;stroke-linecap:butt;stroke-linejoin:miter;stroke-opacity:1"/>
<path class="bond-34 atom-33 atom-35" d="M 56.3,112.8 L 45.1,109.2" style="fill:none;fill-rule:evenodd;stroke:#000000;stroke-width:2.0px;stroke-linecap:butt;stroke-linejoin:miter;stroke-opacity:1"/>
<path class="bond-34 atom-33 atom-35" d="M 45.1,109.2 L 33.9,105.6" style="fill:none;fill-rule:evenodd;stroke:#FF0000;stroke-width:2.0px;stroke-linecap:butt;stroke-linejoin:miter;stroke-opacity:1"/>
<path class="bond-35 atom-16 atom-36" d="M 218.6,113.6 L 209.9,140.5" style="fill:none;fill-rule:evenodd;stroke:#000000;stroke-width:2.0px;stroke-linecap:butt;stroke-linejoin:miter;stroke-opacity:1"/>
<path class="bond-36 atom-36 atom-37" d="M 208.1,141.4 L 213.5,151.5" style="fill:none;fill-rule:evenodd;stroke:#000000;stroke-width:2.0px;stroke-linecap:butt;stroke-linejoin:miter;stroke-opacity:1"/>
<path class="bond-36 atom-36 atom-37" d="M 213.5,151.5 L 218.8,161.5" style="fill:none;fill-rule:evenodd;stroke:#FF0000;stroke-width:2.0px;stroke-linecap:butt;stroke-linejoin:miter;stroke-opacity:1"/>
<path class="bond-36 atom-36 atom-37" d="M 210.8,137.8 L 217.1,149.5" style="fill:none;fill-rule:evenodd;stroke:#000000;stroke-width:2.0px;stroke-linecap:butt;stroke-linejoin:miter;stroke-opacity:1"/>
<path class="bond-36 atom-36 atom-37" d="M 217.1,149.5 L 222.5,159.6" style="fill:none;fill-rule:evenodd;stroke:#FF0000;stroke-width:2.0px;stroke-linecap:butt;stroke-linejoin:miter;stroke-opacity:1"/>
<path class="bond-37 atom-36 atom-38" d="M 209.9,140.5 L 199.5,145.6" style="fill:none;fill-rule:evenodd;stroke:#000000;stroke-width:2.0px;stroke-linecap:butt;stroke-linejoin:miter;stroke-opacity:1"/>
<path class="bond-37 atom-36 atom-38" d="M 199.5,145.6 L 189.1,150.7" style="fill:none;fill-rule:evenodd;stroke:#FF0000;stroke-width:2.0px;stroke-linecap:butt;stroke-linejoin:miter;stroke-opacity:1"/>
<path class="bond-38 atom-16 atom-39" d="M 218.6,113.6 L 227.3,86.6" style="fill:none;fill-rule:evenodd;stroke:#000000;stroke-width:2.0px;stroke-linecap:butt;stroke-linejoin:miter;stroke-opacity:1"/>
<path class="bond-39 atom-39 atom-40" d="M 227.3,86.6 L 208.3,65.6" style="fill:none;fill-rule:evenodd;stroke:#000000;stroke-width:2.0px;stroke-linecap:butt;stroke-linejoin:miter;stroke-opacity:1"/>
<path class="bond-40 atom-39 atom-41" d="M 227.3,86.6 L 239.2,87.0" style="fill:none;fill-rule:evenodd;stroke:#000000;stroke-width:2.0px;stroke-linecap:butt;stroke-linejoin:miter;stroke-opacity:1"/>
<path class="bond-40 atom-39 atom-41" d="M 239.2,87.0 L 251.0,87.4" style="fill:none;fill-rule:evenodd;stroke:#FF0000;stroke-width:2.0px;stroke-linecap:butt;stroke-linejoin:miter;stroke-opacity:1"/>
<path class="bond-41 atom-3 atom-42" d="M 277.6,69.1 L 256.6,88.1" style="fill:none;fill-rule:evenodd;stroke:#000000;stroke-width:2.0px;stroke-linecap:butt;stroke-linejoin:miter;stroke-opacity:1"/>
<path class="bond-42 atom-42 atom-43" d="M 254.4,86.7 L 255.5,99.1" style="fill:none;fill-rule:evenodd;stroke:#000000;stroke-width:2.0px;stroke-linecap:butt;stroke-linejoin:miter;stroke-opacity:1"/>
<path class="bond-42 atom-42 atom-43" d="M 255.5,99.1 L 256.6,111.5" style="fill:none;fill-rule:evenodd;stroke:#FF0000;stroke-width:2.0px;stroke-linecap:butt;stroke-linejoin:miter;stroke-opacity:1"/>
<path class="bond-42 atom-42 atom-43" d="M 258.5,86.3 L 259.6,98.7" style="fill:none;fill-rule:evenodd;stroke:#000000;stroke-width:2.0px;stroke-linecap:butt;stroke-linejoin:miter;stroke-opacity:1"/>
<path class="bond-42 atom-42 atom-43" d="M 259.6,98.7 L 260.7,111.1" style="fill:none;fill-rule:evenodd;stroke:#FF0000;stroke-width:2.0px;stroke-linecap:butt;stroke-linejoin:miter;stroke-opacity:1"/>
<path class="bond-43 atom-42 atom-44" d="M 256.6,88.1 L 246.9,82.0" style="fill:none;fill-rule:evenodd;stroke:#000000;stroke-width:2.0px;stroke-linecap:butt;stroke-linejoin:miter;stroke-opacity:1"/>
<path class="bond-43 atom-42 atom-44" d="M 246.9,82.0 L 237.1,76.0" style="fill:none;fill-rule:evenodd;stroke:#FF0000;stroke-width:2.0px;stroke-linecap:butt;stroke-linejoin:miter;stroke-opacity:1"/>
<path d="M 295.6,89.0 L 296.6,90.1 L 296.2,91.4" style="fill:none;stroke:#000000;stroke-width:2.0px;stroke-linecap:butt;stroke-linejoin:miter;stroke-opacity:1;"/>
<path d="M 225.2,155.6 L 223.9,155.9 L 223.7,155.8" style="fill:none;stroke:#000000;stroke-width:2.0px;stroke-linecap:butt;stroke-linejoin:miter;stroke-opacity:1;"/>
<path d="M 245.9,123.6 L 245.6,122.2 L 244.2,121.8" style="fill:none;stroke:#000000;stroke-width:2.0px;stroke-linecap:butt;stroke-linejoin:miter;stroke-opacity:1;"/>
<path d="M 193.0,105.3 L 191.7,104.9 L 190.6,105.8" style="fill:none;stroke:#000000;stroke-width:2.0px;stroke-linecap:butt;stroke-linejoin:miter;stroke-opacity:1;"/>
<path d="M 188.7,143.8 L 189.7,144.9 L 189.5,145.4" style="fill:none;stroke:#000000;stroke-width:2.0px;stroke-linecap:butt;stroke-linejoin:miter;stroke-opacity:1;"/>
<path d="M 97.7,114.5 L 96.3,114.8 L 95.4,113.7" style="fill:none;stroke:#000000;stroke-width:2.0px;stroke-linecap:butt;stroke-linejoin:miter;stroke-opacity:1;"/>
<path d="M 97.3,75.7 L 98.3,74.8 L 98.2,74.2" style="fill:none;stroke:#000000;stroke-width:2.0px;stroke-linecap:butt;stroke-linejoin:miter;stroke-opacity:1;"/>
<path d="M 210.4,139.2 L 209.9,140.5 L 209.4,140.8" style="fill:none;stroke:#000000;stroke-width:2.0px;stroke-linecap:butt;stroke-linejoin:miter;stroke-opacity:1;"/>
<path d="M 257.6,87.1 L 256.6,88.1 L 256.1,87.8" style="fill:none;stroke:#000000;stroke-width:2.0px;stroke-linecap:butt;stroke-linejoin:miter;stroke-opacity:1;"/>
<path class="atom-2" d="M 321.9 58.8 Q 321.9 56.8, 322.8 55.8 Q 323.8 54.7, 325.5 54.7 Q 327.3 54.7, 328.3 55.8 Q 329.2 56.8, 329.2 58.8 Q 329.2 60.7, 328.3 61.8 Q 327.3 62.9, 325.5 62.9 Q 323.8 62.9, 322.8 61.8 Q 321.9 60.7, 321.9 58.8 M 325.5 62.0 Q 326.8 62.0, 327.4 61.2 Q 328.1 60.4, 328.1 58.8 Q 328.1 57.2, 327.4 56.4 Q 326.8 55.6, 325.5 55.6 Q 324.3 55.6, 323.7 56.4 Q 323.0 57.2, 323.0 58.8 Q 323.0 60.4, 323.7 61.2 Q 324.3 62.0, 325.5 62.0 " fill="#FF0000"/>
<path class="atom-2" d="M 330.5 54.8 L 331.6 54.8 L 331.6 58.2 L 335.7 58.2 L 335.7 54.8 L 336.8 54.8 L 336.8 62.8 L 335.7 62.8 L 335.7 59.1 L 331.6 59.1 L 331.6 62.8 L 330.5 62.8 L 330.5 54.8 " fill="#FF0000"/>
<path class="atom-10" d="M 294.5 165.0 Q 294.5 163.1, 295.5 162.0 Q 296.4 160.9, 298.2 160.9 Q 300.0 160.9, 301.0 162.0 Q 301.9 163.1, 301.9 165.0 Q 301.9 166.9, 300.9 168.1 Q 300.0 169.2, 298.2 169.2 Q 296.5 169.2, 295.5 168.1 Q 294.5 167.0, 294.5 165.0 M 298.2 168.2 Q 299.4 168.2, 300.1 167.4 Q 300.8 166.6, 300.8 165.0 Q 300.8 163.4, 300.1 162.6 Q 299.4 161.8, 298.2 161.8 Q 297.0 161.8, 296.3 162.6 Q 295.7 163.4, 295.7 165.0 Q 295.7 166.6, 296.3 167.4 Q 297.0 168.2, 298.2 168.2 " fill="#FF0000"/>
<path class="atom-10" d="M 303.2 161.0 L 304.2 161.0 L 304.2 164.4 L 308.3 164.4 L 308.3 161.0 L 309.4 161.0 L 309.4 169.0 L 308.3 169.0 L 308.3 165.3 L 304.2 165.3 L 304.2 169.0 L 303.2 169.0 L 303.2 161.0 " fill="#FF0000"/>
<path class="atom-14" d="M 199.8 143.5 L 200.8 143.5 L 200.8 146.9 L 204.9 146.9 L 204.9 143.5 L 206.0 143.5 L 206.0 151.6 L 204.9 151.6 L 204.9 147.9 L 200.8 147.9 L 200.8 151.6 L 199.8 151.6 L 199.8 143.5 " fill="#FF0000"/>
<path class="atom-14" d="M 207.7 147.5 Q 207.7 145.6, 208.6 144.5 Q 209.6 143.4, 211.4 143.4 Q 213.1 143.4, 214.1 144.5 Q 215.0 145.6, 215.0 147.5 Q 215.0 149.5, 214.1 150.6 Q 213.1 151.7, 211.4 151.7 Q 209.6 151.7, 208.6 150.6 Q 207.7 149.5, 207.7 147.5 M 211.4 150.8 Q 212.6 150.8, 213.2 150.0 Q 213.9 149.1, 213.9 147.5 Q 213.9 146.0, 213.2 145.2 Q 212.6 144.4, 211.4 144.4 Q 210.1 144.4, 209.5 145.1 Q 208.8 145.9, 208.8 147.5 Q 208.8 149.1, 209.5 150.0 Q 210.1 150.8, 211.4 150.8 " fill="#FF0000"/>
<path class="atom-21" d="M 177.3 171.9 Q 177.3 169.9, 178.3 168.9 Q 179.2 167.8, 181.0 167.8 Q 182.8 167.8, 183.7 168.9 Q 184.7 169.9, 184.7 171.9 Q 184.7 173.8, 183.7 174.9 Q 182.7 176.0, 181.0 176.0 Q 179.2 176.0, 178.3 174.9 Q 177.3 173.8, 177.3 171.9 M 181.0 175.1 Q 182.2 175.1, 182.9 174.3 Q 183.5 173.5, 183.5 171.9 Q 183.5 170.3, 182.9 169.5 Q 182.2 168.7, 181.0 168.7 Q 179.8 168.7, 179.1 169.5 Q 178.4 170.3, 178.4 171.9 Q 178.4 173.5, 179.1 174.3 Q 179.8 175.1, 181.0 175.1 " fill="#FF0000"/>
<path class="atom-21" d="M 185.9 167.9 L 187.0 167.9 L 187.0 171.3 L 191.1 171.3 L 191.1 167.9 L 192.2 167.9 L 192.2 175.9 L 191.1 175.9 L 191.1 172.2 L 187.0 172.2 L 187.0 175.9 L 185.9 175.9 L 185.9 167.9 " fill="#FF0000"/>
<path class="atom-23" d="M 156.7 76.0 Q 156.7 74.0, 157.6 72.9 Q 158.6 71.9, 160.4 71.9 Q 162.1 71.9, 163.1 72.9 Q 164.0 74.0, 164.0 76.0 Q 164.0 77.9, 163.1 79.0 Q 162.1 80.1, 160.4 80.1 Q 158.6 80.1, 157.6 79.0 Q 156.7 77.9, 156.7 76.0 M 160.4 79.2 Q 161.6 79.2, 162.2 78.4 Q 162.9 77.6, 162.9 76.0 Q 162.9 74.4, 162.2 73.6 Q 161.6 72.8, 160.4 72.8 Q 159.1 72.8, 158.5 73.6 Q 157.8 74.4, 157.8 76.0 Q 157.8 77.6, 158.5 78.4 Q 159.1 79.2, 160.4 79.2 " fill="#FF0000"/>
<path class="atom-23" d="M 165.3 72.0 L 166.4 72.0 L 166.4 75.4 L 170.5 75.4 L 170.5 72.0 L 171.6 72.0 L 171.6 80.0 L 170.5 80.0 L 170.5 76.3 L 166.4 76.3 L 166.4 80.0 L 165.3 80.0 L 165.3 72.0 " fill="#FF0000"/>
<path class="atom-31" d="M 111.0 78.0 Q 111.0 76.0, 112.0 75.0 Q 112.9 73.9, 114.7 73.9 Q 116.5 73.9, 117.5 75.0 Q 118.4 76.0, 118.4 78.0 Q 118.4 79.9, 117.4 81.0 Q 116.5 82.1, 114.7 82.1 Q 113.0 82.1, 112.0 81.0 Q 111.0 79.9, 111.0 78.0 M 114.7 81.2 Q 115.9 81.2, 116.6 80.4 Q 117.3 79.6, 117.3 78.0 Q 117.3 76.4, 116.6 75.6 Q 115.9 74.8, 114.7 74.8 Q 113.5 74.8, 112.8 75.6 Q 112.2 76.4, 112.2 78.0 Q 112.2 79.6, 112.8 80.4 Q 113.5 81.2, 114.7 81.2 " fill="#FF0000"/>
<path class="atom-32" d="M 88.7 47.1 Q 88.7 45.2, 89.6 44.1 Q 90.6 43.1, 92.3 43.1 Q 94.1 43.1, 95.1 44.1 Q 96.0 45.2, 96.0 47.1 Q 96.0 49.1, 95.1 50.2 Q 94.1 51.3, 92.3 51.3 Q 90.6 51.3, 89.6 50.2 Q 88.7 49.1, 88.7 47.1 M 92.3 50.4 Q 93.6 50.4, 94.2 49.6 Q 94.9 48.7, 94.9 47.1 Q 94.9 45.6, 94.2 44.8 Q 93.6 44.0, 92.3 44.0 Q 91.1 44.0, 90.5 44.8 Q 89.8 45.5, 89.8 47.1 Q 89.8 48.8, 90.5 49.6 Q 91.1 50.4, 92.3 50.4 " fill="#FF0000"/>
<path class="atom-32" d="M 97.3 43.1 L 98.4 43.1 L 98.4 46.6 L 102.5 46.6 L 102.5 43.1 L 103.6 43.1 L 103.6 51.2 L 102.5 51.2 L 102.5 47.5 L 98.4 47.5 L 98.4 51.2 L 97.3 51.2 L 97.3 43.1 " fill="#FF0000"/>
<path class="atom-35" d="M 17.8 100.1 L 18.8 100.1 L 18.8 103.6 L 22.9 103.6 L 22.9 100.1 L 24.0 100.1 L 24.0 108.2 L 22.9 108.2 L 22.9 104.5 L 18.8 104.5 L 18.8 108.2 L 17.8 108.2 L 17.8 100.1 " fill="#FF0000"/>
<path class="atom-35" d="M 25.7 104.1 Q 25.7 102.2, 26.6 101.1 Q 27.6 100.1, 29.4 100.1 Q 31.1 100.1, 32.1 101.1 Q 33.0 102.2, 33.0 104.1 Q 33.0 106.1, 32.1 107.2 Q 31.1 108.3, 29.4 108.3 Q 27.6 108.3, 26.6 107.2 Q 25.7 106.1, 25.7 104.1 M 29.4 107.4 Q 30.6 107.4, 31.2 106.6 Q 31.9 105.7, 31.9 104.1 Q 31.9 102.6, 31.2 101.8 Q 30.6 101.0, 29.4 101.0 Q 28.1 101.0, 27.5 101.8 Q 26.8 102.6, 26.8 104.1 Q 26.8 105.8, 27.5 106.6 Q 28.1 107.4, 29.4 107.4 " fill="#FF0000"/>
<path class="atom-37" d="M 219.6 165.5 Q 219.6 163.6, 220.6 162.5 Q 221.5 161.4, 223.3 161.4 Q 225.1 161.4, 226.0 162.5 Q 227.0 163.6, 227.0 165.5 Q 227.0 167.5, 226.0 168.6 Q 225.1 169.7, 223.3 169.7 Q 221.5 169.7, 220.6 168.6 Q 219.6 167.5, 219.6 165.5 M 223.3 168.8 Q 224.5 168.8, 225.2 167.9 Q 225.8 167.1, 225.8 165.5 Q 225.8 163.9, 225.2 163.1 Q 224.5 162.3, 223.3 162.3 Q 222.1 162.3, 221.4 163.1 Q 220.8 163.9, 220.8 165.5 Q 220.8 167.1, 221.4 167.9 Q 222.1 168.8, 223.3 168.8 " fill="#FF0000"/>
<path class="atom-38" d="M 172.9 149.0 L 174.0 149.0 L 174.0 152.4 L 178.1 152.4 L 178.1 149.0 L 179.2 149.0 L 179.2 157.1 L 178.1 157.1 L 178.1 153.3 L 174.0 153.3 L 174.0 157.1 L 172.9 157.1 L 172.9 149.0 " fill="#FF0000"/>
<path class="atom-38" d="M 180.8 153.0 Q 180.8 151.1, 181.8 150.0 Q 182.7 148.9, 184.5 148.9 Q 186.3 148.9, 187.3 150.0 Q 188.2 151.1, 188.2 153.0 Q 188.2 155.0, 187.2 156.1 Q 186.3 157.2, 184.5 157.2 Q 182.8 157.2, 181.8 156.1 Q 180.8 155.0, 180.8 153.0 M 184.5 156.3 Q 185.7 156.3, 186.4 155.5 Q 187.1 154.6, 187.1 153.0 Q 187.1 151.4, 186.4 150.7 Q 185.7 149.8, 184.5 149.8 Q 183.3 149.8, 182.6 150.6 Q 182.0 151.4, 182.0 153.0 Q 182.0 154.6, 182.6 155.5 Q 183.3 156.3, 184.5 156.3 " fill="#FF0000"/>
<path class="atom-41" d="M 251.9 87.6 Q 251.9 85.6, 252.9 84.5 Q 253.8 83.5, 255.6 83.5 Q 257.4 83.5, 258.3 84.5 Q 259.3 85.6, 259.3 87.6 Q 259.3 89.5, 258.3 90.6 Q 257.4 91.7, 255.6 91.7 Q 253.9 91.7, 252.9 90.6 Q 251.9 89.5, 251.9 87.6 M 255.6 90.8 Q 256.8 90.8, 257.5 90.0 Q 258.2 89.2, 258.2 87.6 Q 258.2 86.0, 257.5 85.2 Q 256.8 84.4, 255.6 84.4 Q 254.4 84.4, 253.7 85.2 Q 253.1 86.0, 253.1 87.6 Q 253.1 89.2, 253.7 90.0 Q 254.4 90.8, 255.6 90.8 " fill="#FF0000"/>
<path class="atom-41" d="M 260.5 83.6 L 261.6 83.6 L 261.6 87.0 L 265.7 87.0 L 265.7 83.6 L 266.8 83.6 L 266.8 91.6 L 265.7 91.6 L 265.7 87.9 L 261.6 87.9 L 261.6 91.6 L 260.5 91.6 L 260.5 83.6 " fill="#FF0000"/>
<path class="atom-43" d="M 255.5 116.3 Q 255.5 114.4, 256.4 113.3 Q 257.4 112.2, 259.1 112.2 Q 260.9 112.2, 261.9 113.3 Q 262.8 114.4, 262.8 116.3 Q 262.8 118.2, 261.9 119.4 Q 260.9 120.5, 259.1 120.5 Q 257.4 120.5, 256.4 119.4 Q 255.5 118.3, 255.5 116.3 M 259.1 119.5 Q 260.4 119.5, 261.0 118.7 Q 261.7 117.9, 261.7 116.3 Q 261.7 114.7, 261.0 113.9 Q 260.4 113.1, 259.1 113.1 Q 257.9 113.1, 257.2 113.9 Q 256.6 114.7, 256.6 116.3 Q 256.6 117.9, 257.2 118.7 Q 257.9 119.5, 259.1 119.5 " fill="#FF0000"/>
<path class="atom-44" d="M 220.9 69.2 L 222.0 69.2 L 222.0 72.6 L 226.1 72.6 L 226.1 69.2 L 227.2 69.2 L 227.2 77.2 L 226.1 77.2 L 226.1 73.5 L 222.0 73.5 L 222.0 77.2 L 220.9 77.2 L 220.9 69.2 " fill="#FF0000"/>
<path class="atom-44" d="M 228.9 73.1 Q 228.9 71.2, 229.8 70.1 Q 230.8 69.1, 232.5 69.1 Q 234.3 69.1, 235.3 70.1 Q 236.2 71.2, 236.2 73.1 Q 236.2 75.1, 235.3 76.2 Q 234.3 77.3, 232.5 77.3 Q 230.8 77.3, 229.8 76.2 Q 228.9 75.1, 228.9 73.1 M 232.5 76.4 Q 233.8 76.4, 234.4 75.6 Q 235.1 74.8, 235.1 73.1 Q 235.1 71.6, 234.4 70.8 Q 233.8 70.0, 232.5 70.0 Q 231.3 70.0, 230.7 70.8 Q 230.0 71.6, 230.0 73.1 Q 230.0 74.8, 230.7 75.6 Q 231.3 76.4, 232.5 76.4 " fill="#FF0000"/>
<path class="atom-41" d="M 253.7,85.6 L 253.7,89.4 L 257.5,89.4 L 257.5,85.6 L 253.7,85.6" style="fill:none;stroke:#FF0000;stroke-width:2.0px;stroke-linecap:butt;stroke-linejoin:miter;stroke-opacity:1;"/>
</g>
    <g transform="translate(706.0, 0) scale(1 1) "><line x1="15" y1="100" x2="25" y2="100" style="stroke:rgb(0,0,0);stroke-width:2"/>
  <line x1="20" y1="95" x2="20" y2="105" style="stroke:rgb(0,0,0);stroke-width:2"/>
</g>
    <g transform="translate(746.0, 0) scale(1 1) "><!-- END OF HEADER -->
<rect style="opacity:1.0;fill:#FFFFFF;stroke:none" width="215.0" height="200.0" x="0.0" y="0.0"> </rect>
<path class="bond-0 atom-0 atom-1" d="M 183.7,56.0 L 158.3,99.9" style="fill:none;fill-rule:evenodd;stroke:#000000;stroke-width:2.0px;stroke-linecap:butt;stroke-linejoin:miter;stroke-opacity:1"/>
<path class="bond-1 atom-1 atom-2" d="M 158.3,99.9 L 168.4,117.4" style="fill:none;fill-rule:evenodd;stroke:#000000;stroke-width:2.0px;stroke-linecap:butt;stroke-linejoin:miter;stroke-opacity:1"/>
<path class="bond-1 atom-1 atom-2" d="M 168.4,117.4 L 178.5,134.9" style="fill:none;fill-rule:evenodd;stroke:#FF0000;stroke-width:2.0px;stroke-linecap:butt;stroke-linejoin:miter;stroke-opacity:1"/>
<path class="bond-2 atom-1 atom-3" d="M 158.3,99.9 L 107.6,99.9" style="fill:none;fill-rule:evenodd;stroke:#000000;stroke-width:2.0px;stroke-linecap:butt;stroke-linejoin:miter;stroke-opacity:1"/>
<path class="bond-3 atom-3 atom-4" d="M 107.6,99.9 L 107.6,49.2" style="fill:none;fill-rule:evenodd;stroke:#000000;stroke-width:2.0px;stroke-linecap:butt;stroke-linejoin:miter;stroke-opacity:1"/>
<path class="bond-4 atom-3 atom-5" d="M 107.6,99.9 L 107.6,150.6" style="fill:none;fill-rule:evenodd;stroke:#000000;stroke-width:2.0px;stroke-linecap:butt;stroke-linejoin:miter;stroke-opacity:1"/>
<path class="bond-5 atom-3 atom-6" d="M 107.6,99.9 L 56.9,99.9" style="fill:none;fill-rule:evenodd;stroke:#000000;stroke-width:2.0px;stroke-linecap:butt;stroke-linejoin:miter;stroke-opacity:1"/>
<path class="bond-6 atom-6 atom-7" d="M 54.7,96.1 L 44.0,114.5" style="fill:none;fill-rule:evenodd;stroke:#000000;stroke-width:2.0px;stroke-linecap:butt;stroke-linejoin:miter;stroke-opacity:1"/>
<path class="bond-6 atom-6 atom-7" d="M 44.0,114.5 L 33.4,133.0" style="fill:none;fill-rule:evenodd;stroke:#FF0000;stroke-width:2.0px;stroke-linecap:butt;stroke-linejoin:miter;stroke-opacity:1"/>
<path class="bond-6 atom-6 atom-7" d="M 61.3,99.9 L 50.6,118.3" style="fill:none;fill-rule:evenodd;stroke:#000000;stroke-width:2.0px;stroke-linecap:butt;stroke-linejoin:miter;stroke-opacity:1"/>
<path class="bond-6 atom-6 atom-7" d="M 50.6,118.3 L 40.0,136.8" style="fill:none;fill-rule:evenodd;stroke:#FF0000;stroke-width:2.0px;stroke-linecap:butt;stroke-linejoin:miter;stroke-opacity:1"/>
<path class="bond-7 atom-6 atom-8" d="M 56.9,99.9 L 46.9,82.5" style="fill:none;fill-rule:evenodd;stroke:#000000;stroke-width:2.0px;stroke-linecap:butt;stroke-linejoin:miter;stroke-opacity:1"/>
<path class="bond-7 atom-6 atom-8" d="M 46.9,82.5 L 36.8,65.1" style="fill:none;fill-rule:evenodd;stroke:#FF0000;stroke-width:2.0px;stroke-linecap:butt;stroke-linejoin:miter;stroke-opacity:1"/>
<path d="M 59.4,99.9 L 56.9,99.9 L 56.4,99.0" style="fill:none;stroke:#000000;stroke-width:2.0px;stroke-linecap:butt;stroke-linejoin:miter;stroke-opacity:1;"/>
<path class="atom-2" d="M 177.1 143.9 Q 177.1 140.4, 178.8 138.5 Q 180.5 136.5, 183.7 136.5 Q 186.9 136.5, 188.6 138.5 Q 190.3 140.4, 190.3 143.9 Q 190.3 147.3, 188.6 149.3 Q 186.8 151.3, 183.7 151.3 Q 180.5 151.3, 178.8 149.3 Q 177.1 147.4, 177.1 143.9 M 183.7 149.7 Q 185.9 149.7, 187.0 148.2 Q 188.2 146.7, 188.2 143.9 Q 188.2 141.0, 187.0 139.6 Q 185.9 138.2, 183.7 138.2 Q 181.5 138.2, 180.3 139.6 Q 179.1 141.0, 179.1 143.9 Q 179.1 146.8, 180.3 148.2 Q 181.5 149.7, 183.7 149.7 " fill="#FF0000"/>
<path class="atom-2" d="M 192.5 136.7 L 194.5 136.7 L 194.5 142.8 L 201.8 142.8 L 201.8 136.7 L 203.7 136.7 L 203.7 151.1 L 201.8 151.1 L 201.8 144.4 L 194.5 144.4 L 194.5 151.1 L 192.5 151.1 L 192.5 136.7 " fill="#FF0000"/>
<path class="atom-7" d="M 24.9 143.9 Q 24.9 140.4, 26.6 138.5 Q 28.3 136.5, 31.5 136.5 Q 34.7 136.5, 36.4 138.5 Q 38.1 140.4, 38.1 143.9 Q 38.1 147.3, 36.4 149.3 Q 34.7 151.3, 31.5 151.3 Q 28.4 151.3, 26.6 149.3 Q 24.9 147.4, 24.9 143.9 M 31.5 149.7 Q 33.7 149.7, 34.9 148.2 Q 36.1 146.7, 36.1 143.9 Q 36.1 141.0, 34.9 139.6 Q 33.7 138.2, 31.5 138.2 Q 29.3 138.2, 28.1 139.6 Q 27.0 141.0, 27.0 143.9 Q 27.0 146.8, 28.1 148.2 Q 29.3 149.7, 31.5 149.7 " fill="#FF0000"/>
<path class="atom-8" d="M 10.7 48.9 L 12.7 48.9 L 12.7 55.0 L 20.0 55.0 L 20.0 48.9 L 22.0 48.9 L 22.0 63.2 L 20.0 63.2 L 20.0 56.6 L 12.7 56.6 L 12.7 63.2 L 10.7 63.2 L 10.7 48.9 " fill="#FF0000"/>
<path class="atom-8" d="M 24.9 56.0 Q 24.9 52.6, 26.6 50.6 Q 28.3 48.7, 31.5 48.7 Q 34.7 48.7, 36.4 50.6 Q 38.1 52.6, 38.1 56.0 Q 38.1 59.5, 36.4 61.5 Q 34.7 63.5, 31.5 63.5 Q 28.4 63.5, 26.6 61.5 Q 24.9 59.5, 24.9 56.0 M 31.5 61.8 Q 33.7 61.8, 34.9 60.4 Q 36.1 58.9, 36.1 56.0 Q 36.1 53.2, 34.9 51.8 Q 33.7 50.3, 31.5 50.3 Q 29.3 50.3, 28.1 51.7 Q 27.0 53.2, 27.0 56.0 Q 27.0 58.9, 28.1 60.4 Q 29.3 61.8, 31.5 61.8 " fill="#FF0000"/>
</g>
  </g>
</svg>
