<?xml version='1.0' encoding='ASCII' standalone='yes'?>
<svg xmlns="http://www.w3.org/2000/svg" xmlns:xlink="http://www.w3.org/1999/xlink" version="1.1" width="560.0px" viewBox="0 0 560.0 200.0" height="200.0px">
  <g>
    <g transform="translate(0, 0) scale(1 1) "><!-- END OF HEADER -->
<rect style="opacity:1.0;fill:#FFFFFF;stroke:none" width="260.0" height="200.0" x="0.0" y="0.0"> </rect>
<path class="bond-0 atom-0 atom-1" d="M 175.7,51.3 L 161.4,81.9" style="fill:none;fill-rule:evenodd;stroke:#000000;stroke-width:2.0px;stroke-linecap:butt;stroke-linejoin:miter;stroke-opacity:1"/>
<path class="bond-1 atom-1 atom-2" d="M 161.4,81.9 L 127.8,84.7" style="fill:none;fill-rule:evenodd;stroke:#000000;stroke-width:2.0px;stroke-linecap:butt;stroke-linejoin:miter;stroke-opacity:1"/>
<path class="bond-2 atom-2 atom-3" d="M 127.8,84.7 L 113.4,115.3" style="fill:none;fill-rule:evenodd;stroke:#000000;stroke-width:2.0px;stroke-linecap:butt;stroke-linejoin:miter;stroke-opacity:1"/>
<path class="bond-3 atom-3 atom-4" d="M 113.4,115.3 L 121.0,126.2" style="fill:none;fill-rule:evenodd;stroke:#000000;stroke-width:2.0px;stroke-linecap:butt;stroke-linejoin:miter;stroke-opacity:1"/>
<path class="bond-3 atom-3 atom-4" d="M 121.0,126.2 L 128.6,137.0" style="fill:none;fill-rule:evenodd;stroke:#FF0000;stroke-width:2.0px;stroke-linecap:butt;stroke-linejoin:miter;stroke-opacity:1"/>
<path class="bond-4 atom-3 atom-5" d="M 113.4,115.3 L 79.8,118.1" style="fill:none;fill-rule:evenodd;stroke:#000000;stroke-width:2.0px;stroke-linecap:butt;stroke-linejoin:miter;stroke-opacity:1"/>
<path class="bond-5 atom-5 atom-6" d="M 79.8,118.1 L 65.4,148.7" style="fill:none;fill-rule:evenodd;stroke:#000000;stroke-width:2.0px;stroke-linecap:butt;stroke-linejoin:miter;stroke-opacity:1"/>
<path class="bond-6 atom-5 atom-7" d="M 79.8,118.1 L 60.5,90.4" style="fill:none;fill-rule:evenodd;stroke:#000000;stroke-width:2.0px;stroke-linecap:butt;stroke-linejoin:miter;stroke-opacity:1"/>
<path class="bond-7 atom-7 atom-8" d="M 62.1,92.8 L 68.2,79.9" style="fill:none;fill-rule:evenodd;stroke:#000000;stroke-width:2.0px;stroke-linecap:butt;stroke-linejoin:miter;stroke-opacity:1"/>
<path class="bond-7 atom-7 atom-8" d="M 68.2,79.9 L 74.2,67.1" style="fill:none;fill-rule:evenodd;stroke:#FF0000;stroke-width:2.0px;stroke-linecap:butt;stroke-linejoin:miter;stroke-opacity:1"/>
<path class="bond-7 atom-7 atom-8" d="M 57.6,90.7 L 63.6,77.8" style="fill:none;fill-rule:evenodd;stroke:#000000;stroke-width:2.0px;stroke-linecap:butt;stroke-linejoin:miter;stroke-opacity:1"/>
<path class="bond-7 atom-7 atom-8" d="M 63.6,77.8 L 69.7,64.9" style="fill:none;fill-rule:evenodd;stroke:#FF0000;stroke-width:2.0px;stroke-linecap:butt;stroke-linejoin:miter;stroke-opacity:1"/>
<path class="bond-8 atom-7 atom-9" d="M 60.5,90.4 L 46.4,91.6" style="fill:none;fill-rule:evenodd;stroke:#000000;stroke-width:2.0px;stroke-linecap:butt;stroke-linejoin:miter;stroke-opacity:1"/>
<path class="bond-8 atom-7 atom-9" d="M 46.4,91.6 L 32.3,92.8" style="fill:none;fill-rule:evenodd;stroke:#FF0000;stroke-width:2.0px;stroke-linecap:butt;stroke-linejoin:miter;stroke-opacity:1"/>
<path class="bond-9 atom-1 atom-10" d="M 161.4,81.9 L 180.7,109.6" style="fill:none;fill-rule:evenodd;stroke:#000000;stroke-width:2.0px;stroke-linecap:butt;stroke-linejoin:miter;stroke-opacity:1"/>
<path class="bond-10 atom-10 atom-11" d="M 180.7,109.6 L 166.4,140.1" style="fill:none;fill-rule:evenodd;stroke:#000000;stroke-width:2.0px;stroke-linecap:butt;stroke-linejoin:miter;stroke-opacity:1"/>
<path class="bond-11 atom-10 atom-12" d="M 180.7,109.6 L 214.3,106.7" style="fill:none;fill-rule:evenodd;stroke:#000000;stroke-width:2.0px;stroke-linecap:butt;stroke-linejoin:miter;stroke-opacity:1"/>
<path class="bond-12 atom-12 atom-13" d="M 216.0,109.1 L 222.1,96.2" style="fill:none;fill-rule:evenodd;stroke:#000000;stroke-width:2.0px;stroke-linecap:butt;stroke-linejoin:miter;stroke-opacity:1"/>
<path class="bond-12 atom-12 atom-13" d="M 222.1,96.2 L 228.1,83.3" style="fill:none;fill-rule:evenodd;stroke:#FF0000;stroke-width:2.0px;stroke-linecap:butt;stroke-linejoin:miter;stroke-opacity:1"/>
<path class="bond-12 atom-12 atom-13" d="M 211.4,106.9 L 217.5,94.0" style="fill:none;fill-rule:evenodd;stroke:#000000;stroke-width:2.0px;stroke-linecap:butt;stroke-linejoin:miter;stroke-opacity:1"/>
<path class="bond-12 atom-12 atom-13" d="M 217.5,94.0 L 223.5,81.1" style="fill:none;fill-rule:evenodd;stroke:#FF0000;stroke-width:2.0px;stroke-linecap:butt;stroke-linejoin:miter;stroke-opacity:1"/>
<path class="bond-13 atom-12 atom-14" d="M 214.3,106.7 L 221.9,117.6" style="fill:none;fill-rule:evenodd;stroke:#000000;stroke-width:2.0px;stroke-linecap:butt;stroke-linejoin:miter;stroke-opacity:1"/>
<path class="bond-13 atom-12 atom-14" d="M 221.9,117.6 L 229.5,128.4" style="fill:none;fill-rule:evenodd;stroke:#FF0000;stroke-width:2.0px;stroke-linecap:butt;stroke-linejoin:miter;stroke-opacity:1"/>
<path d="M 129.4,84.6 L 127.8,84.7 L 127.0,86.2" style="fill:none;stroke:#000000;stroke-width:2.0px;stroke-linecap:butt;stroke-linejoin:miter;stroke-opacity:1;"/>
<path d="M 61.4,91.8 L 60.5,90.4 L 59.8,90.5" style="fill:none;stroke:#000000;stroke-width:2.0px;stroke-linecap:butt;stroke-linejoin:miter;stroke-opacity:1;"/>
<path d="M 212.7,106.8 L 214.3,106.7 L 214.7,107.2" style="fill:none;stroke:#000000;stroke-width:2.0px;stroke-linecap:butt;stroke-linejoin:miter;stroke-opacity:1;"/>
<path class="atom-4" d="M 128.3 143.0 Q 128.3 140.7, 129.5 139.4 Q 130.6 138.2, 132.7 138.2 Q 134.8 138.2, 136.0 139.4 Q 137.1 140.7, 137.1 143.0 Q 137.1 145.3, 136.0 146.7 Q 134.8 148.0, 132.7 148.0 Q 130.6 148.0, 129.5 146.7 Q 128.3 145.3, 128.3 143.0 M 132.7 146.9 Q 134.2 146.9, 135.0 145.9 Q 135.8 144.9, 135.8 143.0 Q 135.8 141.1, 135.0 140.2 Q 134.2 139.2, 132.7 139.2 Q 131.3 139.2, 130.5 140.2 Q 129.7 141.1, 129.7 143.0 Q 129.7 144.9, 130.5 145.9 Q 131.3 146.9, 132.7 146.9 " fill="#FF0000"/>
<path class="atom-4" d="M 138.6 138.3 L 139.9 138.3 L 139.9 142.3 L 144.8 142.3 L 144.8 138.3 L 146.1 138.3 L 146.1 147.8 L 144.8 147.8 L 144.8 143.4 L 139.9 143.4 L 139.9 147.8 L 138.6 147.8 L 138.6 138.3 " fill="#FF0000"/>
<path class="atom-8" d="M 70.4 59.9 Q 70.4 57.6, 71.6 56.3 Q 72.7 55.0, 74.8 55.0 Q 76.9 55.0, 78.1 56.3 Q 79.2 57.6, 79.2 59.9 Q 79.2 62.2, 78.1 63.6 Q 76.9 64.9, 74.8 64.9 Q 72.7 64.9, 71.6 63.6 Q 70.4 62.2, 70.4 59.9 M 74.8 63.8 Q 76.3 63.8, 77.1 62.8 Q 77.9 61.8, 77.9 59.9 Q 77.9 58.0, 77.1 57.1 Q 76.3 56.1, 74.8 56.1 Q 73.4 56.1, 72.6 57.1 Q 71.8 58.0, 71.8 59.9 Q 71.8 61.8, 72.6 62.8 Q 73.4 63.8, 74.8 63.8 " fill="#FF0000"/>
<path class="atom-9" d="M 13.0 88.6 L 14.3 88.6 L 14.3 92.6 L 19.2 92.6 L 19.2 88.6 L 20.5 88.6 L 20.5 98.1 L 19.2 98.1 L 19.2 93.7 L 14.3 93.7 L 14.3 98.1 L 13.0 98.1 L 13.0 88.6 " fill="#FF0000"/>
<path class="atom-9" d="M 22.4 93.3 Q 22.4 91.0, 23.6 89.8 Q 24.7 88.5, 26.8 88.5 Q 29.0 88.5, 30.1 89.8 Q 31.2 91.0, 31.2 93.3 Q 31.2 95.7, 30.1 97.0 Q 28.9 98.3, 26.8 98.3 Q 24.7 98.3, 23.6 97.0 Q 22.4 95.7, 22.4 93.3 M 26.8 97.2 Q 28.3 97.2, 29.1 96.2 Q 29.9 95.3, 29.9 93.3 Q 29.9 91.5, 29.1 90.5 Q 28.3 89.6, 26.8 89.6 Q 25.4 89.6, 24.6 90.5 Q 23.8 91.4, 23.8 93.3 Q 23.8 95.3, 24.6 96.2 Q 25.4 97.2, 26.8 97.2 " fill="#FF0000"/>
<path class="atom-13" d="M 224.3 76.2 Q 224.3 73.9, 225.4 72.6 Q 226.6 71.3, 228.7 71.3 Q 230.8 71.3, 231.9 72.6 Q 233.1 73.9, 233.1 76.2 Q 233.1 78.5, 231.9 79.8 Q 230.8 81.1, 228.7 81.1 Q 226.6 81.1, 225.4 79.8 Q 224.3 78.5, 224.3 76.2 M 228.7 80.0 Q 230.1 80.0, 230.9 79.1 Q 231.7 78.1, 231.7 76.2 Q 231.7 74.3, 230.9 73.3 Q 230.1 72.4, 228.7 72.4 Q 227.2 72.4, 226.4 73.3 Q 225.6 74.3, 225.6 76.2 Q 225.6 78.1, 226.4 79.1 Q 227.2 80.0, 228.7 80.0 " fill="#FF0000"/>
<path class="atom-14" d="M 229.3 134.4 Q 229.3 132.1, 230.4 130.8 Q 231.5 129.6, 233.6 129.6 Q 235.8 129.6, 236.9 130.8 Q 238.0 132.1, 238.0 134.4 Q 238.0 136.7, 236.9 138.1 Q 235.7 139.4, 233.6 139.4 Q 231.5 139.4, 230.4 138.1 Q 229.3 136.8, 229.3 134.4 M 233.6 138.3 Q 235.1 138.3, 235.9 137.3 Q 236.7 136.3, 236.7 134.4 Q 236.7 132.5, 235.9 131.6 Q 235.1 130.6, 233.6 130.6 Q 232.2 130.6, 231.4 131.6 Q 230.6 132.5, 230.6 134.4 Q 230.6 136.4, 231.4 137.3 Q 232.2 138.3, 233.6 138.3 " fill="#FF0000"/>
<path class="atom-14" d="M 239.5 129.7 L 240.8 129.7 L 240.8 133.7 L 245.7 133.7 L 245.7 129.7 L 247.0 129.7 L 247.0 139.2 L 245.7 139.2 L 245.7 134.8 L 240.8 134.8 L 240.8 139.2 L 239.5 139.2 L 239.5 129.7 " fill="#FF0000"/>
</g>
    <g transform="translate(260.0, 0) scale(1 1) "><line x1="5" y1="100" x2="35" y2="100" style="stroke:rgb(0,0,0);stroke-width:2"/>
  <line x1="34" y1="100" x2="29" y2="95" style="stroke:rgb(0,0,0);stroke-width:2"/>
  <line x1="34" y1="100" x2="29" y2="105" style="stroke:rgb(0,0,0);stroke-width:2"/>
</g>
    <g transform="translate(300.0, 0) scale(1 1) "><!-- END OF HEADER -->
<rect style="opacity:1.0;fill:#FFFFFF;stroke:none" width="260.0" height="200.0" x="0.0" y="0.0"> </rect>
<path class="bond-0 atom-0 atom-1" d="M 236.3,68.8 L 206.3,89.5" style="fill:none;fill-rule:evenodd;stroke:#000000;stroke-width:2.0px;stroke-linecap:butt;stroke-linejoin:miter;stroke-opacity:1"/>
<path class="bond-1 atom-1 atom-2" d="M 206.3,89.5 L 173.4,74.0" style="fill:none;fill-rule:evenodd;stroke:#000000;stroke-width:2.0px;stroke-linecap:butt;stroke-linejoin:miter;stroke-opacity:1"/>
<path class="bond-2 atom-2 atom-3" d="M 173.4,74.0 L 143.5,94.7" style="fill:none;fill-rule:evenodd;stroke:#000000;stroke-width:2.0px;stroke-linecap:butt;stroke-linejoin:miter;stroke-opacity:1"/>
<path class="bond-3 atom-3 atom-4" d="M 143.5,94.7 L 110.5,79.2" style="fill:none;fill-rule:evenodd;stroke:#000000;stroke-width:2.0px;stroke-linecap:butt;stroke-linejoin:miter;stroke-opacity:1"/>
<path class="bond-4 atom-4 atom-5" d="M 110.5,79.2 L 109.3,64.3" style="fill:none;fill-rule:evenodd;stroke:#000000;stroke-width:2.0px;stroke-linecap:butt;stroke-linejoin:miter;stroke-opacity:1"/>
<path class="bond-4 atom-4 atom-5" d="M 109.3,64.3 L 108.1,49.5" style="fill:none;fill-rule:evenodd;stroke:#FF0000;stroke-width:2.0px;stroke-linecap:butt;stroke-linejoin:miter;stroke-opacity:1"/>
<path class="bond-5 atom-4 atom-6" d="M 110.5,79.2 L 80.6,99.9" style="fill:none;fill-rule:evenodd;stroke:#000000;stroke-width:2.0px;stroke-linecap:butt;stroke-linejoin:miter;stroke-opacity:1"/>
<path class="bond-6 atom-6 atom-7" d="M 80.6,99.9 L 101.3,129.9" style="fill:none;fill-rule:evenodd;stroke:#000000;stroke-width:2.0px;stroke-linecap:butt;stroke-linejoin:miter;stroke-opacity:1"/>
<path class="bond-7 atom-6 atom-8" d="M 80.6,99.9 L 59.9,70.0" style="fill:none;fill-rule:evenodd;stroke:#000000;stroke-width:2.0px;stroke-linecap:butt;stroke-linejoin:miter;stroke-opacity:1"/>
<path class="bond-8 atom-6 atom-9" d="M 80.6,99.9 L 50.7,120.7" style="fill:none;fill-rule:evenodd;stroke:#000000;stroke-width:2.0px;stroke-linecap:butt;stroke-linejoin:miter;stroke-opacity:1"/>
<path class="bond-9 atom-9 atom-10" d="M 53.3,118.9 L 39.0,112.2" style="fill:none;fill-rule:evenodd;stroke:#000000;stroke-width:2.0px;stroke-linecap:butt;stroke-linejoin:miter;stroke-opacity:1"/>
<path class="bond-9 atom-9 atom-10" d="M 39.0,112.2 L 24.8,105.4" style="fill:none;fill-rule:evenodd;stroke:#FF0000;stroke-width:2.0px;stroke-linecap:butt;stroke-linejoin:miter;stroke-opacity:1"/>
<path class="bond-9 atom-9 atom-10" d="M 50.9,123.8 L 36.7,117.1" style="fill:none;fill-rule:evenodd;stroke:#000000;stroke-width:2.0px;stroke-linecap:butt;stroke-linejoin:miter;stroke-opacity:1"/>
<path class="bond-9 atom-9 atom-10" d="M 36.7,117.1 L 22.5,110.4" style="fill:none;fill-rule:evenodd;stroke:#FF0000;stroke-width:2.0px;stroke-linecap:butt;stroke-linejoin:miter;stroke-opacity:1"/>
<path class="bond-10 atom-9 atom-11" d="M 50.7,120.7 L 51.9,135.6" style="fill:none;fill-rule:evenodd;stroke:#000000;stroke-width:2.0px;stroke-linecap:butt;stroke-linejoin:miter;stroke-opacity:1"/>
<path class="bond-10 atom-9 atom-11" d="M 51.9,135.6 L 53.1,150.5" style="fill:none;fill-rule:evenodd;stroke:#FF0000;stroke-width:2.0px;stroke-linecap:butt;stroke-linejoin:miter;stroke-opacity:1"/>
<path class="bond-11 atom-1 atom-12" d="M 206.3,89.5 L 209.3,125.8" style="fill:none;fill-rule:evenodd;stroke:#000000;stroke-width:2.0px;stroke-linecap:butt;stroke-linejoin:miter;stroke-opacity:1"/>
<path class="bond-12 atom-12 atom-13" d="M 206.7,127.6 L 221.0,134.4" style="fill:none;fill-rule:evenodd;stroke:#000000;stroke-width:2.0px;stroke-linecap:butt;stroke-linejoin:miter;stroke-opacity:1"/>
<path class="bond-12 atom-12 atom-13" d="M 221.0,134.4 L 235.2,141.1" style="fill:none;fill-rule:evenodd;stroke:#FF0000;stroke-width:2.0px;stroke-linecap:butt;stroke-linejoin:miter;stroke-opacity:1"/>
<path class="bond-12 atom-12 atom-13" d="M 209.1,122.7 L 223.3,129.4" style="fill:none;fill-rule:evenodd;stroke:#000000;stroke-width:2.0px;stroke-linecap:butt;stroke-linejoin:miter;stroke-opacity:1"/>
<path class="bond-12 atom-12 atom-13" d="M 223.3,129.4 L 237.5,136.1" style="fill:none;fill-rule:evenodd;stroke:#FF0000;stroke-width:2.0px;stroke-linecap:butt;stroke-linejoin:miter;stroke-opacity:1"/>
<path class="bond-13 atom-12 atom-14" d="M 209.3,125.8 L 197.3,134.2" style="fill:none;fill-rule:evenodd;stroke:#000000;stroke-width:2.0px;stroke-linecap:butt;stroke-linejoin:miter;stroke-opacity:1"/>
<path class="bond-13 atom-12 atom-14" d="M 197.3,134.2 L 185.3,142.5" style="fill:none;fill-rule:evenodd;stroke:#FF0000;stroke-width:2.0px;stroke-linecap:butt;stroke-linejoin:miter;stroke-opacity:1"/>
<path d="M 175.1,74.8 L 173.4,74.0 L 171.9,75.0" style="fill:none;stroke:#000000;stroke-width:2.0px;stroke-linecap:butt;stroke-linejoin:miter;stroke-opacity:1;"/>
<path d="M 145.0,93.7 L 143.5,94.7 L 141.8,94.0" style="fill:none;stroke:#000000;stroke-width:2.0px;stroke-linecap:butt;stroke-linejoin:miter;stroke-opacity:1;"/>
<path d="M 52.2,119.6 L 50.7,120.7 L 50.7,121.4" style="fill:none;stroke:#000000;stroke-width:2.0px;stroke-linecap:butt;stroke-linejoin:miter;stroke-opacity:1;"/>
<path d="M 209.2,124.0 L 209.3,125.8 L 208.7,126.3" style="fill:none;stroke:#000000;stroke-width:2.0px;stroke-linecap:butt;stroke-linejoin:miter;stroke-opacity:1;"/>
<path class="atom-5" d="M 102.8 42.9 Q 102.8 40.4, 104.0 39.0 Q 105.3 37.7, 107.5 37.7 Q 109.8 37.7, 111.1 39.0 Q 112.3 40.4, 112.3 42.9 Q 112.3 45.4, 111.0 46.8 Q 109.8 48.3, 107.5 48.3 Q 105.3 48.3, 104.0 46.8 Q 102.8 45.4, 102.8 42.9 M 107.5 47.1 Q 109.1 47.1, 110.0 46.0 Q 110.8 45.0, 110.8 42.9 Q 110.8 40.9, 110.0 39.9 Q 109.1 38.8, 107.5 38.8 Q 106.0 38.8, 105.1 39.9 Q 104.3 40.9, 104.3 42.9 Q 104.3 45.0, 105.1 46.0 Q 106.0 47.1, 107.5 47.1 " fill="#FF0000"/>
<path class="atom-5" d="M 113.9 37.8 L 115.3 37.8 L 115.3 42.2 L 120.6 42.2 L 120.6 37.8 L 122.0 37.8 L 122.0 48.1 L 120.6 48.1 L 120.6 43.3 L 115.3 43.3 L 115.3 48.1 L 113.9 48.1 L 113.9 37.8 " fill="#FF0000"/>
<path class="atom-10" d="M 13.0 105.1 Q 13.0 102.7, 14.2 101.3 Q 15.4 99.9, 17.7 99.9 Q 20.0 99.9, 21.2 101.3 Q 22.5 102.7, 22.5 105.1 Q 22.5 107.6, 21.2 109.1 Q 20.0 110.5, 17.7 110.5 Q 15.5 110.5, 14.2 109.1 Q 13.0 107.7, 13.0 105.1 M 17.7 109.3 Q 19.3 109.3, 20.2 108.3 Q 21.0 107.2, 21.0 105.1 Q 21.0 103.1, 20.2 102.1 Q 19.3 101.1, 17.7 101.1 Q 16.2 101.1, 15.3 102.1 Q 14.5 103.1, 14.5 105.1 Q 14.5 107.2, 15.3 108.3 Q 16.2 109.3, 17.7 109.3 " fill="#FF0000"/>
<path class="atom-11" d="M 48.9 157.0 Q 48.9 154.5, 50.1 153.1 Q 51.4 151.7, 53.7 151.7 Q 55.9 151.7, 57.2 153.1 Q 58.4 154.5, 58.4 157.0 Q 58.4 159.5, 57.2 160.9 Q 55.9 162.3, 53.7 162.3 Q 51.4 162.3, 50.1 160.9 Q 48.9 159.5, 48.9 157.0 M 53.7 161.2 Q 55.2 161.2, 56.1 160.1 Q 56.9 159.1, 56.9 157.0 Q 56.9 155.0, 56.1 153.9 Q 55.2 152.9, 53.7 152.9 Q 52.1 152.9, 51.2 153.9 Q 50.4 154.9, 50.4 157.0 Q 50.4 159.1, 51.2 160.1 Q 52.1 161.2, 53.7 161.2 " fill="#FF0000"/>
<path class="atom-11" d="M 60.0 151.9 L 61.4 151.9 L 61.4 156.2 L 66.7 156.2 L 66.7 151.9 L 68.1 151.9 L 68.1 162.2 L 66.7 162.2 L 66.7 157.4 L 61.4 157.4 L 61.4 162.2 L 60.0 162.2 L 60.0 151.9 " fill="#FF0000"/>
<path class="atom-13" d="M 237.5 141.4 Q 237.5 139.0, 238.8 137.6 Q 240.0 136.2, 242.3 136.2 Q 244.6 136.2, 245.8 137.6 Q 247.0 139.0, 247.0 141.4 Q 247.0 143.9, 245.8 145.4 Q 244.5 146.8, 242.3 146.8 Q 240.0 146.8, 238.8 145.4 Q 237.5 144.0, 237.5 141.4 M 242.3 145.6 Q 243.8 145.6, 244.7 144.6 Q 245.5 143.5, 245.5 141.4 Q 245.5 139.4, 244.7 138.4 Q 243.8 137.4, 242.3 137.4 Q 240.7 137.4, 239.8 138.4 Q 239.0 139.4, 239.0 141.4 Q 239.0 143.5, 239.8 144.6 Q 240.7 145.6, 242.3 145.6 " fill="#FF0000"/>
<path class="atom-14" d="M 164.5 141.5 L 165.9 141.5 L 165.9 145.9 L 171.1 145.9 L 171.1 141.5 L 172.5 141.5 L 172.5 151.8 L 171.1 151.8 L 171.1 147.0 L 165.9 147.0 L 165.9 151.8 L 164.5 151.8 L 164.5 141.5 " fill="#FF0000"/>
<path class="atom-14" d="M 174.7 146.6 Q 174.7 144.1, 175.9 142.8 Q 177.1 141.4, 179.4 141.4 Q 181.7 141.4, 182.9 142.8 Q 184.1 144.1, 184.1 146.6 Q 184.1 149.1, 182.9 150.6 Q 181.7 152.0, 179.4 152.0 Q 177.1 152.0, 175.9 150.6 Q 174.7 149.1, 174.7 146.6 M 179.4 150.8 Q 181.0 150.8, 181.8 149.7 Q 182.7 148.7, 182.7 146.6 Q 182.7 144.6, 181.8 143.6 Q 181.0 142.5, 179.4 142.5 Q 177.8 142.5, 177.0 143.6 Q 176.1 144.6, 176.1 146.6 Q 176.1 148.7, 177.0 149.7 Q 177.8 150.8, 179.4 150.8 " fill="#FF0000"/>
</g>
  </g>
</svg>
