<?xml version='1.0' encoding='ASCII' standalone='yes'?>
<svg xmlns="http://www.w3.org/2000/svg" xmlns:xlink="http://www.w3.org/1999/xlink" version="1.1" width="772.0px" viewBox="0 0 772.0 200.0" height="200.0px">
  <g>
    <g transform="translate(0, 0) scale(1 1) "><!-- END OF HEADER -->
<rect style="opacity:1.0;fill:#FFFFFF;stroke:none" width="233.0" height="200.0" x="0.0" y="0.0"> </rect>
<path class="bond-0 atom-0 atom-1" d="M 11.7,40.4 L 37.9,78.0" style="fill:none;fill-rule:evenodd;stroke:#000000;stroke-width:2.0px;stroke-linecap:butt;stroke-linejoin:miter;stroke-opacity:1"/>
<path class="bond-1 atom-1 atom-2" d="M 35.6,74.8 L 27.4,92.4" style="fill:none;fill-rule:evenodd;stroke:#000000;stroke-width:2.0px;stroke-linecap:butt;stroke-linejoin:miter;stroke-opacity:1"/>
<path class="bond-1 atom-1 atom-2" d="M 27.4,92.4 L 19.2,110.0" style="fill:none;fill-rule:evenodd;stroke:#FF0000;stroke-width:2.0px;stroke-linecap:butt;stroke-linejoin:miter;stroke-opacity:1"/>
<path class="bond-1 atom-1 atom-2" d="M 41.9,77.7 L 33.6,95.3" style="fill:none;fill-rule:evenodd;stroke:#000000;stroke-width:2.0px;stroke-linecap:butt;stroke-linejoin:miter;stroke-opacity:1"/>
<path class="bond-1 atom-1 atom-2" d="M 33.6,95.3 L 25.4,112.9" style="fill:none;fill-rule:evenodd;stroke:#FF0000;stroke-width:2.0px;stroke-linecap:butt;stroke-linejoin:miter;stroke-opacity:1"/>
<path class="bond-2 atom-1 atom-3" d="M 37.9,78.0 L 57.0,76.4" style="fill:none;fill-rule:evenodd;stroke:#000000;stroke-width:2.0px;stroke-linecap:butt;stroke-linejoin:miter;stroke-opacity:1"/>
<path class="bond-2 atom-1 atom-3" d="M 57.0,76.4 L 76.1,74.7" style="fill:none;fill-rule:evenodd;stroke:#FF0000;stroke-width:2.0px;stroke-linecap:butt;stroke-linejoin:miter;stroke-opacity:1"/>
<path class="bond-3 atom-3 atom-4" d="M 89.4,82.4 L 99.6,97.0" style="fill:none;fill-rule:evenodd;stroke:#FF0000;stroke-width:2.0px;stroke-linecap:butt;stroke-linejoin:miter;stroke-opacity:1"/>
<path class="bond-3 atom-3 atom-4" d="M 99.6,97.0 L 109.9,111.7" style="fill:none;fill-rule:evenodd;stroke:#000000;stroke-width:2.0px;stroke-linecap:butt;stroke-linejoin:miter;stroke-opacity:1"/>
<path class="bond-4 atom-4 atom-5" d="M 107.6,108.4 L 99.3,126.0" style="fill:none;fill-rule:evenodd;stroke:#000000;stroke-width:2.0px;stroke-linecap:butt;stroke-linejoin:miter;stroke-opacity:1"/>
<path class="bond-4 atom-4 atom-5" d="M 99.3,126.0 L 91.1,143.7" style="fill:none;fill-rule:evenodd;stroke:#FF0000;stroke-width:2.0px;stroke-linecap:butt;stroke-linejoin:miter;stroke-opacity:1"/>
<path class="bond-4 atom-4 atom-5" d="M 113.8,111.3 L 105.6,129.0" style="fill:none;fill-rule:evenodd;stroke:#000000;stroke-width:2.0px;stroke-linecap:butt;stroke-linejoin:miter;stroke-opacity:1"/>
<path class="bond-4 atom-4 atom-5" d="M 105.6,129.0 L 97.3,146.6" style="fill:none;fill-rule:evenodd;stroke:#FF0000;stroke-width:2.0px;stroke-linecap:butt;stroke-linejoin:miter;stroke-opacity:1"/>
<path class="bond-5 atom-4 atom-6" d="M 109.9,111.7 L 155.5,107.7" style="fill:none;fill-rule:evenodd;stroke:#000000;stroke-width:2.0px;stroke-linecap:butt;stroke-linejoin:miter;stroke-opacity:1"/>
<path class="bond-6 atom-6 atom-7" d="M 155.5,107.7 L 181.8,145.3" style="fill:none;fill-rule:evenodd;stroke:#000000;stroke-width:2.0px;stroke-linecap:butt;stroke-linejoin:miter;stroke-opacity:1"/>
<path class="bond-7 atom-6 atom-8" d="M 155.5,107.7 L 175.0,66.2" style="fill:none;fill-rule:evenodd;stroke:#000000;stroke-width:2.0px;stroke-linecap:butt;stroke-linejoin:miter;stroke-opacity:1"/>
<path class="bond-8 atom-8 atom-9" d="M 175.0,66.2 L 220.7,62.2" style="fill:none;fill-rule:evenodd;stroke:#000000;stroke-width:2.0px;stroke-linecap:butt;stroke-linejoin:miter;stroke-opacity:1"/>
<path class="bond-9 atom-8 atom-10" d="M 175.0,66.2 L 164.7,51.5" style="fill:none;fill-rule:evenodd;stroke:#000000;stroke-width:2.0px;stroke-linecap:butt;stroke-linejoin:miter;stroke-opacity:1"/>
<path class="bond-9 atom-8 atom-10" d="M 164.7,51.5 L 154.5,36.9" style="fill:none;fill-rule:evenodd;stroke:#FF0000;stroke-width:2.0px;stroke-linecap:butt;stroke-linejoin:miter;stroke-opacity:1"/>
<path d="M 36.6,76.2 L 37.9,78.0 L 38.9,77.9" style="fill:none;stroke:#000000;stroke-width:2.0px;stroke-linecap:butt;stroke-linejoin:miter;stroke-opacity:1;"/>
<path d="M 109.3,110.9 L 109.9,111.7 L 112.1,111.5" style="fill:none;stroke:#000000;stroke-width:2.0px;stroke-linecap:butt;stroke-linejoin:miter;stroke-opacity:1;"/>
<path class="atom-2" d="M 12.5 119.6 Q 12.5 116.5, 14.1 114.7 Q 15.6 113.0, 18.5 113.0 Q 21.4 113.0, 22.9 114.7 Q 24.5 116.5, 24.5 119.6 Q 24.5 122.8, 22.9 124.6 Q 21.3 126.3, 18.5 126.3 Q 15.6 126.3, 14.1 124.6 Q 12.5 122.8, 12.5 119.6 M 18.5 124.9 Q 20.5 124.9, 21.5 123.5 Q 22.6 122.2, 22.6 119.6 Q 22.6 117.1, 21.5 115.8 Q 20.5 114.5, 18.5 114.5 Q 16.5 114.5, 15.4 115.8 Q 14.4 117.0, 14.4 119.6 Q 14.4 122.2, 15.4 123.5 Q 16.5 124.9, 18.5 124.9 " fill="#FF0000"/>
<path class="atom-3" d="M 77.6 74.1 Q 77.6 71.0, 79.2 69.3 Q 80.7 67.5, 83.6 67.5 Q 86.5 67.5, 88.0 69.3 Q 89.6 71.0, 89.6 74.1 Q 89.6 77.3, 88.0 79.1 Q 86.4 80.8, 83.6 80.8 Q 80.7 80.8, 79.2 79.1 Q 77.6 77.3, 77.6 74.1 M 83.6 79.4 Q 85.6 79.4, 86.6 78.1 Q 87.7 76.7, 87.7 74.1 Q 87.7 71.6, 86.6 70.3 Q 85.6 69.0, 83.6 69.0 Q 81.6 69.0, 80.5 70.3 Q 79.5 71.5, 79.5 74.1 Q 79.5 76.7, 80.5 78.1 Q 81.6 79.4, 83.6 79.4 " fill="#FF0000"/>
<path class="atom-5" d="M 84.5 153.2 Q 84.5 150.1, 86.0 148.4 Q 87.6 146.6, 90.4 146.6 Q 93.3 146.6, 94.9 148.4 Q 96.4 150.1, 96.4 153.2 Q 96.4 156.4, 94.8 158.2 Q 93.3 160.0, 90.4 160.0 Q 87.6 160.0, 86.0 158.2 Q 84.5 156.4, 84.5 153.2 M 90.4 158.5 Q 92.4 158.5, 93.5 157.2 Q 94.6 155.8, 94.6 153.2 Q 94.6 150.7, 93.5 149.4 Q 92.4 148.1, 90.4 148.1 Q 88.5 148.1, 87.4 149.4 Q 86.3 150.7, 86.3 153.2 Q 86.3 155.9, 87.4 157.2 Q 88.5 158.5, 90.4 158.5 " fill="#FF0000"/>
<path class="atom-10" d="M 129.9 22.2 L 131.7 22.2 L 131.7 27.7 L 138.3 27.7 L 138.3 22.2 L 140.1 22.2 L 140.1 35.2 L 138.3 35.2 L 138.3 29.2 L 131.7 29.2 L 131.7 35.2 L 129.9 35.2 L 129.9 22.2 " fill="#FF0000"/>
<path class="atom-10" d="M 142.7 28.6 Q 142.7 25.5, 144.3 23.8 Q 145.8 22.0, 148.7 22.0 Q 151.6 22.0, 153.1 23.8 Q 154.7 25.5, 154.7 28.6 Q 154.7 31.8, 153.1 33.6 Q 151.5 35.4, 148.7 35.4 Q 145.8 35.4, 144.3 33.6 Q 142.7 31.8, 142.7 28.6 M 148.7 33.9 Q 150.7 33.9, 151.7 32.6 Q 152.8 31.2, 152.8 28.6 Q 152.8 26.1, 151.7 24.8 Q 150.7 23.5, 148.7 23.5 Q 146.7 23.5, 145.6 24.8 Q 144.6 26.1, 144.6 28.6 Q 144.6 31.3, 145.6 32.6 Q 146.7 33.9, 148.7 33.9 " fill="#FF0000"/>
<path class="legend" d="M 107.1 181.9 Q 107.1 179.6, 107.8 177.7 Q 108.5 175.8, 109.8 173.8 L 110.7 174.4 Q 109.6 176.3, 109.1 178.0 Q 108.6 179.7, 108.6 181.9 Q 108.6 184.0, 109.1 185.8 Q 109.6 187.5, 110.7 189.4 L 109.8 190.0 Q 108.5 188.0, 107.8 186.1 Q 107.1 184.2, 107.1 181.9 " fill="#000000"/>
<path class="legend" d="M 111.6 177.3 Q 112.0 176.2, 113.0 175.6 Q 114.0 175.0, 115.4 175.0 Q 117.1 175.0, 118.0 175.9 Q 119.0 176.8, 119.0 178.5 Q 119.0 180.2, 117.7 181.7 Q 116.5 183.3, 114.0 185.2 L 119.2 185.2 L 119.2 186.4 L 111.6 186.4 L 111.6 185.4 Q 113.7 183.9, 114.9 182.8 Q 116.2 181.6, 116.8 180.6 Q 117.4 179.6, 117.4 178.6 Q 117.4 177.5, 116.9 176.9 Q 116.3 176.3, 115.4 176.3 Q 114.5 176.3, 113.8 176.6 Q 113.2 177.0, 112.8 177.8 L 111.6 177.3 " fill="#000000"/>
<path class="legend" d="M 124.2 181.9 Q 124.2 184.2, 123.5 186.1 Q 122.8 188.0, 121.5 190.0 L 120.6 189.4 Q 121.7 187.5, 122.2 185.8 Q 122.7 184.0, 122.7 181.9 Q 122.7 179.7, 122.2 178.0 Q 121.7 176.3, 120.6 174.4 L 121.5 173.8 Q 122.8 175.8, 123.5 177.7 Q 124.2 179.6, 124.2 181.9 " fill="#000000"/>
</g>
    <g transform="translate(233.0, 0) scale(1 1) "><line x1="5" y1="100" x2="35" y2="100" style="stroke:rgb(0,0,0);stroke-width:2"/>
  <line x1="34" y1="100" x2="29" y2="95" style="stroke:rgb(0,0,0);stroke-width:2"/>
  <line x1="34" y1="100" x2="29" y2="105" style="stroke:rgb(0,0,0);stroke-width:2"/>
</g>
    <g transform="translate(273.0, 0) scale(1 1) "><!-- END OF HEADER -->
<rect style="opacity:1.0;fill:#FFFFFF;stroke:none" width="205.0" height="200.0" x="0.0" y="0.0"> </rect>
<path class="bond-0 atom-0 atom-1" d="M 139.9,49.2 L 139.9,92.3" style="fill:none;fill-rule:evenodd;stroke:#000000;stroke-width:2.0px;stroke-linecap:butt;stroke-linejoin:miter;stroke-opacity:1"/>
<path class="bond-1 atom-1 atom-2" d="M 139.9,92.3 L 155.0,101.1" style="fill:none;fill-rule:evenodd;stroke:#000000;stroke-width:2.0px;stroke-linecap:butt;stroke-linejoin:miter;stroke-opacity:1"/>
<path class="bond-1 atom-1 atom-2" d="M 155.0,101.1 L 170.2,109.8" style="fill:none;fill-rule:evenodd;stroke:#FF0000;stroke-width:2.0px;stroke-linecap:butt;stroke-linejoin:miter;stroke-opacity:1"/>
<path class="bond-2 atom-1 atom-3" d="M 139.9,92.3 L 102.6,113.9" style="fill:none;fill-rule:evenodd;stroke:#000000;stroke-width:2.0px;stroke-linecap:butt;stroke-linejoin:miter;stroke-opacity:1"/>
<path class="bond-3 atom-3 atom-4" d="M 102.6,113.9 L 102.6,157.0" style="fill:none;fill-rule:evenodd;stroke:#000000;stroke-width:2.0px;stroke-linecap:butt;stroke-linejoin:miter;stroke-opacity:1"/>
<path class="bond-4 atom-3 atom-5" d="M 102.6,113.9 L 65.2,92.3" style="fill:none;fill-rule:evenodd;stroke:#000000;stroke-width:2.0px;stroke-linecap:butt;stroke-linejoin:miter;stroke-opacity:1"/>
<path class="bond-5 atom-5 atom-6" d="M 68.5,94.2 L 68.5,75.6" style="fill:none;fill-rule:evenodd;stroke:#000000;stroke-width:2.0px;stroke-linecap:butt;stroke-linejoin:miter;stroke-opacity:1"/>
<path class="bond-5 atom-5 atom-6" d="M 68.5,75.6 L 68.5,57.0" style="fill:none;fill-rule:evenodd;stroke:#FF0000;stroke-width:2.0px;stroke-linecap:butt;stroke-linejoin:miter;stroke-opacity:1"/>
<path class="bond-5 atom-5 atom-6" d="M 62.0,94.2 L 62.0,75.6" style="fill:none;fill-rule:evenodd;stroke:#000000;stroke-width:2.0px;stroke-linecap:butt;stroke-linejoin:miter;stroke-opacity:1"/>
<path class="bond-5 atom-5 atom-6" d="M 62.0,75.6 L 62.0,57.0" style="fill:none;fill-rule:evenodd;stroke:#FF0000;stroke-width:2.0px;stroke-linecap:butt;stroke-linejoin:miter;stroke-opacity:1"/>
<path class="bond-6 atom-5 atom-7" d="M 65.2,92.3 L 50.1,101.1" style="fill:none;fill-rule:evenodd;stroke:#000000;stroke-width:2.0px;stroke-linecap:butt;stroke-linejoin:miter;stroke-opacity:1"/>
<path class="bond-6 atom-5 atom-7" d="M 50.1,101.1 L 34.9,109.8" style="fill:none;fill-rule:evenodd;stroke:#FF0000;stroke-width:2.0px;stroke-linecap:butt;stroke-linejoin:miter;stroke-opacity:1"/>
<path d="M 67.1,93.4 L 65.2,92.3 L 64.5,92.7" style="fill:none;stroke:#000000;stroke-width:2.0px;stroke-linecap:butt;stroke-linejoin:miter;stroke-opacity:1;"/>
<path class="atom-2" d="M 171.6 113.9 Q 171.6 111.0, 173.0 109.3 Q 174.5 107.7, 177.2 107.7 Q 179.9 107.7, 181.4 109.3 Q 182.8 111.0, 182.8 113.9 Q 182.8 116.9, 181.3 118.5 Q 179.9 120.2, 177.2 120.2 Q 174.5 120.2, 173.0 118.5 Q 171.6 116.9, 171.6 113.9 M 177.2 118.8 Q 179.1 118.8, 180.1 117.6 Q 181.1 116.3, 181.1 113.9 Q 181.1 111.5, 180.1 110.3 Q 179.1 109.1, 177.2 109.1 Q 175.3 109.1, 174.3 110.3 Q 173.3 111.5, 173.3 113.9 Q 173.3 116.4, 174.3 117.6 Q 175.3 118.8, 177.2 118.8 " fill="#FF0000"/>
<path class="atom-2" d="M 184.7 107.8 L 186.4 107.8 L 186.4 113.0 L 192.6 113.0 L 192.6 107.8 L 194.2 107.8 L 194.2 120.0 L 192.6 120.0 L 192.6 114.4 L 186.4 114.4 L 186.4 120.0 L 184.7 120.0 L 184.7 107.8 " fill="#FF0000"/>
<path class="atom-6" d="M 59.6 49.2 Q 59.6 46.3, 61.1 44.7 Q 62.5 43.0, 65.2 43.0 Q 67.9 43.0, 69.4 44.7 Q 70.8 46.3, 70.8 49.2 Q 70.8 52.2, 69.4 53.9 Q 67.9 55.6, 65.2 55.6 Q 62.5 55.6, 61.1 53.9 Q 59.6 52.2, 59.6 49.2 M 65.2 54.2 Q 67.1 54.2, 68.1 53.0 Q 69.1 51.7, 69.1 49.2 Q 69.1 46.9, 68.1 45.6 Q 67.1 44.4, 65.2 44.4 Q 63.4 44.4, 62.3 45.6 Q 61.4 46.8, 61.4 49.2 Q 61.4 51.7, 62.3 53.0 Q 63.4 54.2, 65.2 54.2 " fill="#FF0000"/>
<path class="atom-7" d="M 10.2 107.8 L 11.9 107.8 L 11.9 113.0 L 18.1 113.0 L 18.1 107.8 L 19.8 107.8 L 19.8 120.0 L 18.1 120.0 L 18.1 114.4 L 11.9 114.4 L 11.9 120.0 L 10.2 120.0 L 10.2 107.8 " fill="#FF0000"/>
<path class="atom-7" d="M 22.3 113.9 Q 22.3 111.0, 23.8 109.3 Q 25.2 107.7, 27.9 107.7 Q 30.6 107.7, 32.1 109.3 Q 33.5 111.0, 33.5 113.9 Q 33.5 116.9, 32.0 118.5 Q 30.6 120.2, 27.9 120.2 Q 25.2 120.2, 23.8 118.5 Q 22.3 116.9, 22.3 113.9 M 27.9 118.8 Q 29.8 118.8, 30.8 117.6 Q 31.8 116.3, 31.8 113.9 Q 31.8 111.5, 30.8 110.3 Q 29.8 109.1, 27.9 109.1 Q 26.0 109.1, 25.0 110.3 Q 24.0 111.5, 24.0 113.9 Q 24.0 116.4, 25.0 117.6 Q 26.0 118.8, 27.9 118.8 " fill="#FF0000"/>
</g>
    <g transform="translate(478.0, 0) scale(1 1) "><line x1="15" y1="100" x2="25" y2="100" style="stroke:rgb(0,0,0);stroke-width:2"/>
  <line x1="20" y1="95" x2="20" y2="105" style="stroke:rgb(0,0,0);stroke-width:2"/>
</g>
    <g transform="translate(518.0, 0) scale(1 1) "><!-- END OF HEADER -->
<rect style="opacity:1.0;fill:#FFFFFF;stroke:none" width="254.0" height="200.0" x="0.0" y="0.0"> </rect>
<path class="bond-0 atom-0 atom-1" d="M 54.3,16.4 L 54.3,58.2" style="fill:none;fill-rule:evenodd;stroke:#000000;stroke-width:2.0px;stroke-linecap:butt;stroke-linejoin:miter;stroke-opacity:1"/>
<path class="bond-1 atom-1 atom-2" d="M 54.3,54.6 L 38.8,63.5" style="fill:none;fill-rule:evenodd;stroke:#000000;stroke-width:2.0px;stroke-linecap:butt;stroke-linejoin:miter;stroke-opacity:1"/>
<path class="bond-1 atom-1 atom-2" d="M 38.8,63.5 L 23.4,72.5" style="fill:none;fill-rule:evenodd;stroke:#FF0000;stroke-width:2.0px;stroke-linecap:butt;stroke-linejoin:miter;stroke-opacity:1"/>
<path class="bond-1 atom-1 atom-2" d="M 57.5,60.0 L 42.0,69.0" style="fill:none;fill-rule:evenodd;stroke:#000000;stroke-width:2.0px;stroke-linecap:butt;stroke-linejoin:miter;stroke-opacity:1"/>
<path class="bond-1 atom-1 atom-2" d="M 42.0,69.0 L 26.5,77.9" style="fill:none;fill-rule:evenodd;stroke:#FF0000;stroke-width:2.0px;stroke-linecap:butt;stroke-linejoin:miter;stroke-opacity:1"/>
<path class="bond-2 atom-1 atom-3" d="M 54.3,58.2 L 69.0,66.7" style="fill:none;fill-rule:evenodd;stroke:#000000;stroke-width:2.0px;stroke-linecap:butt;stroke-linejoin:miter;stroke-opacity:1"/>
<path class="bond-2 atom-1 atom-3" d="M 69.0,66.7 L 83.7,75.2" style="fill:none;fill-rule:evenodd;stroke:#FF0000;stroke-width:2.0px;stroke-linecap:butt;stroke-linejoin:miter;stroke-opacity:1"/>
<path class="bond-3 atom-3 atom-4" d="M 90.5,86.7 L 90.5,103.8" style="fill:none;fill-rule:evenodd;stroke:#FF0000;stroke-width:2.0px;stroke-linecap:butt;stroke-linejoin:miter;stroke-opacity:1"/>
<path class="bond-3 atom-3 atom-4" d="M 90.5,103.8 L 90.5,120.9" style="fill:none;fill-rule:evenodd;stroke:#000000;stroke-width:2.0px;stroke-linecap:butt;stroke-linejoin:miter;stroke-opacity:1"/>
<path class="bond-4 atom-4 atom-5" d="M 90.5,117.3 L 75.0,126.2" style="fill:none;fill-rule:evenodd;stroke:#000000;stroke-width:2.0px;stroke-linecap:butt;stroke-linejoin:miter;stroke-opacity:1"/>
<path class="bond-4 atom-4 atom-5" d="M 75.0,126.2 L 59.6,135.1" style="fill:none;fill-rule:evenodd;stroke:#FF0000;stroke-width:2.0px;stroke-linecap:butt;stroke-linejoin:miter;stroke-opacity:1"/>
<path class="bond-4 atom-4 atom-5" d="M 93.6,122.7 L 78.2,131.6" style="fill:none;fill-rule:evenodd;stroke:#000000;stroke-width:2.0px;stroke-linecap:butt;stroke-linejoin:miter;stroke-opacity:1"/>
<path class="bond-4 atom-4 atom-5" d="M 78.2,131.6 L 62.7,140.6" style="fill:none;fill-rule:evenodd;stroke:#FF0000;stroke-width:2.0px;stroke-linecap:butt;stroke-linejoin:miter;stroke-opacity:1"/>
<path class="bond-5 atom-4 atom-6" d="M 90.5,120.9 L 126.7,141.8" style="fill:none;fill-rule:evenodd;stroke:#000000;stroke-width:2.0px;stroke-linecap:butt;stroke-linejoin:miter;stroke-opacity:1"/>
<path class="bond-6 atom-6 atom-7" d="M 126.7,141.8 L 126.7,183.6" style="fill:none;fill-rule:evenodd;stroke:#000000;stroke-width:2.0px;stroke-linecap:butt;stroke-linejoin:miter;stroke-opacity:1"/>
<path class="bond-7 atom-6 atom-8" d="M 126.7,141.8 L 162.9,120.9" style="fill:none;fill-rule:evenodd;stroke:#000000;stroke-width:2.0px;stroke-linecap:butt;stroke-linejoin:miter;stroke-opacity:1"/>
<path class="bond-8 atom-8 atom-9" d="M 162.9,120.9 L 199.1,141.8" style="fill:none;fill-rule:evenodd;stroke:#000000;stroke-width:2.0px;stroke-linecap:butt;stroke-linejoin:miter;stroke-opacity:1"/>
<path class="bond-9 atom-8 atom-10" d="M 162.9,120.9 L 162.9,103.8" style="fill:none;fill-rule:evenodd;stroke:#000000;stroke-width:2.0px;stroke-linecap:butt;stroke-linejoin:miter;stroke-opacity:1"/>
<path class="bond-9 atom-8 atom-10" d="M 162.9,103.8 L 162.9,86.7" style="fill:none;fill-rule:evenodd;stroke:#FF0000;stroke-width:2.0px;stroke-linecap:butt;stroke-linejoin:miter;stroke-opacity:1"/>
<path class="bond-10 atom-10 atom-11" d="M 169.7,75.2 L 184.4,66.7" style="fill:none;fill-rule:evenodd;stroke:#FF0000;stroke-width:2.0px;stroke-linecap:butt;stroke-linejoin:miter;stroke-opacity:1"/>
<path class="bond-10 atom-10 atom-11" d="M 184.4,66.7 L 199.1,58.2" style="fill:none;fill-rule:evenodd;stroke:#000000;stroke-width:2.0px;stroke-linecap:butt;stroke-linejoin:miter;stroke-opacity:1"/>
<path class="bond-11 atom-11 atom-12" d="M 199.1,58.2 L 199.1,16.4" style="fill:none;fill-rule:evenodd;stroke:#000000;stroke-width:2.0px;stroke-linecap:butt;stroke-linejoin:miter;stroke-opacity:1"/>
<path class="bond-12 atom-11 atom-13" d="M 195.9,60.0 L 211.4,69.0" style="fill:none;fill-rule:evenodd;stroke:#000000;stroke-width:2.0px;stroke-linecap:butt;stroke-linejoin:miter;stroke-opacity:1"/>
<path class="bond-12 atom-11 atom-13" d="M 211.4,69.0 L 226.9,77.9" style="fill:none;fill-rule:evenodd;stroke:#FF0000;stroke-width:2.0px;stroke-linecap:butt;stroke-linejoin:miter;stroke-opacity:1"/>
<path class="bond-12 atom-11 atom-13" d="M 199.1,54.6 L 214.6,63.5" style="fill:none;fill-rule:evenodd;stroke:#000000;stroke-width:2.0px;stroke-linecap:butt;stroke-linejoin:miter;stroke-opacity:1"/>
<path class="bond-12 atom-11 atom-13" d="M 214.6,63.5 L 230.0,72.5" style="fill:none;fill-rule:evenodd;stroke:#FF0000;stroke-width:2.0px;stroke-linecap:butt;stroke-linejoin:miter;stroke-opacity:1"/>
<path d="M 54.3,56.1 L 54.3,58.2 L 55.1,58.6" style="fill:none;stroke:#000000;stroke-width:2.0px;stroke-linecap:butt;stroke-linejoin:miter;stroke-opacity:1;"/>
<path d="M 90.5,120.0 L 90.5,120.9 L 92.3,121.9" style="fill:none;stroke:#000000;stroke-width:2.0px;stroke-linecap:butt;stroke-linejoin:miter;stroke-opacity:1;"/>
<path d="M 198.3,58.6 L 199.1,58.2 L 199.1,56.1" style="fill:none;stroke:#000000;stroke-width:2.0px;stroke-linecap:butt;stroke-linejoin:miter;stroke-opacity:1;"/>
<path class="atom-2" d="M 12.7 79.1 Q 12.7 76.3, 14.1 74.7 Q 15.5 73.1, 18.1 73.1 Q 20.8 73.1, 22.2 74.7 Q 23.6 76.3, 23.6 79.1 Q 23.6 82.0, 22.1 83.7 Q 20.7 85.3, 18.1 85.3 Q 15.5 85.3, 14.1 83.7 Q 12.7 82.0, 12.7 79.1 M 18.1 83.9 Q 19.9 83.9, 20.9 82.7 Q 21.9 81.5, 21.9 79.1 Q 21.9 76.8, 20.9 75.6 Q 19.9 74.5, 18.1 74.5 Q 16.3 74.5, 15.3 75.6 Q 14.4 76.8, 14.4 79.1 Q 14.4 81.5, 15.3 82.7 Q 16.3 83.9, 18.1 83.9 " fill="#FF0000"/>
<path class="atom-3" d="M 85.1 79.1 Q 85.1 76.3, 86.5 74.7 Q 87.9 73.1, 90.5 73.1 Q 93.1 73.1, 94.5 74.7 Q 95.9 76.3, 95.9 79.1 Q 95.9 82.0, 94.5 83.7 Q 93.1 85.3, 90.5 85.3 Q 87.9 85.3, 86.5 83.7 Q 85.1 82.0, 85.1 79.1 M 90.5 83.9 Q 92.3 83.9, 93.3 82.7 Q 94.3 81.5, 94.3 79.1 Q 94.3 76.8, 93.3 75.6 Q 92.3 74.5, 90.5 74.5 Q 88.7 74.5, 87.7 75.6 Q 86.7 76.8, 86.7 79.1 Q 86.7 81.5, 87.7 82.7 Q 88.7 83.9, 90.5 83.9 " fill="#FF0000"/>
<path class="atom-5" d="M 48.9 141.8 Q 48.9 139.0, 50.3 137.4 Q 51.7 135.8, 54.3 135.8 Q 56.9 135.8, 58.3 137.4 Q 59.8 139.0, 59.8 141.8 Q 59.8 144.7, 58.3 146.3 Q 56.9 148.0, 54.3 148.0 Q 51.7 148.0, 50.3 146.3 Q 48.9 144.7, 48.9 141.8 M 54.3 146.6 Q 56.1 146.6, 57.1 145.4 Q 58.1 144.2, 58.1 141.8 Q 58.1 139.5, 57.1 138.3 Q 56.1 137.1, 54.3 137.1 Q 52.5 137.1, 51.5 138.3 Q 50.6 139.5, 50.6 141.8 Q 50.6 144.2, 51.5 145.4 Q 52.5 146.6, 54.3 146.6 " fill="#FF0000"/>
<path class="atom-10" d="M 157.5 79.1 Q 157.5 76.3, 158.9 74.7 Q 160.3 73.1, 162.9 73.1 Q 165.5 73.1, 166.9 74.7 Q 168.3 76.3, 168.3 79.1 Q 168.3 82.0, 166.9 83.7 Q 165.5 85.3, 162.9 85.3 Q 160.3 85.3, 158.9 83.7 Q 157.5 82.0, 157.5 79.1 M 162.9 83.9 Q 164.7 83.9, 165.7 82.7 Q 166.7 81.5, 166.7 79.1 Q 166.7 76.8, 165.7 75.6 Q 164.7 74.5, 162.9 74.5 Q 161.1 74.5, 160.1 75.6 Q 159.1 76.8, 159.1 79.1 Q 159.1 81.5, 160.1 82.7 Q 161.1 83.9, 162.9 83.9 " fill="#FF0000"/>
<path class="atom-13" d="M 229.8 79.1 Q 229.8 76.3, 231.2 74.7 Q 232.6 73.1, 235.3 73.1 Q 237.9 73.1, 239.3 74.7 Q 240.7 76.3, 240.7 79.1 Q 240.7 82.0, 239.3 83.7 Q 237.9 85.3, 235.3 85.3 Q 232.7 85.3, 231.2 83.7 Q 229.8 82.0, 229.8 79.1 M 235.3 83.9 Q 237.1 83.9, 238.0 82.7 Q 239.0 81.5, 239.0 79.1 Q 239.0 76.8, 238.0 75.6 Q 237.1 74.5, 235.3 74.5 Q 233.5 74.5, 232.5 75.6 Q 231.5 76.8, 231.5 79.1 Q 231.5 81.5, 232.5 82.7 Q 233.5 83.9, 235.3 83.9 " fill="#FF0000"/>
</g>
  </g>
</svg>
