<?xml version='1.0' encoding='ASCII' standalone='yes'?>
<svg xmlns="http://www.w3.org/2000/svg" xmlns:xlink="http://www.w3.org/1999/xlink" version="1.1" width="821.0px" viewBox="0 0 821.0 200.0" height="200.0px">
  <g>
    <g transform="translate(0, 0) scale(1 1) "><!-- END OF HEADER -->
<rect style="opacity:1.0;fill:#FFFFFF;stroke:none" width="247.0" height="200.0" x="0.0" y="0.0"> </rect>
<path class="bond-0 atom-0 atom-1" d="M 40.5,60.2 L 52.4,90.9" style="fill:none;fill-rule:evenodd;stroke:#000000;stroke-width:2.0px;stroke-linecap:butt;stroke-linejoin:miter;stroke-opacity:1"/>
<path class="bond-1 atom-1 atom-2" d="M 52.4,90.9 L 64.3,121.6" style="fill:none;fill-rule:evenodd;stroke:#000000;stroke-width:2.0px;stroke-linecap:butt;stroke-linejoin:miter;stroke-opacity:1"/>
<path class="bond-2 atom-1 atom-3" d="M 52.4,90.9 L 21.7,102.8" style="fill:none;fill-rule:evenodd;stroke:#000000;stroke-width:2.0px;stroke-linecap:butt;stroke-linejoin:miter;stroke-opacity:1"/>
<path class="bond-3 atom-3 atom-4" d="M 21.7,102.8 L 19.6,116.2" style="fill:none;fill-rule:evenodd;stroke:#000000;stroke-width:2.0px;stroke-linecap:butt;stroke-linejoin:miter;stroke-opacity:1"/>
<path class="bond-3 atom-3 atom-4" d="M 19.6,116.2 L 17.5,129.5" style="fill:none;fill-rule:evenodd;stroke:#FF0000;stroke-width:2.0px;stroke-linecap:butt;stroke-linejoin:miter;stroke-opacity:1"/>
<path class="bond-4 atom-1 atom-5" d="M 52.4,90.9 L 83.1,79.0" style="fill:none;fill-rule:evenodd;stroke:#000000;stroke-width:2.0px;stroke-linecap:butt;stroke-linejoin:miter;stroke-opacity:1"/>
<path class="bond-5 atom-5 atom-6" d="M 85.3,80.8 L 87.5,66.8" style="fill:none;fill-rule:evenodd;stroke:#000000;stroke-width:2.0px;stroke-linecap:butt;stroke-linejoin:miter;stroke-opacity:1"/>
<path class="bond-5 atom-5 atom-6" d="M 87.5,66.8 L 89.6,52.9" style="fill:none;fill-rule:evenodd;stroke:#FF0000;stroke-width:2.0px;stroke-linecap:butt;stroke-linejoin:miter;stroke-opacity:1"/>
<path class="bond-5 atom-5 atom-6" d="M 80.4,80.1 L 82.6,66.1" style="fill:none;fill-rule:evenodd;stroke:#000000;stroke-width:2.0px;stroke-linecap:butt;stroke-linejoin:miter;stroke-opacity:1"/>
<path class="bond-5 atom-5 atom-6" d="M 82.6,66.1 L 84.8,52.1" style="fill:none;fill-rule:evenodd;stroke:#FF0000;stroke-width:2.0px;stroke-linecap:butt;stroke-linejoin:miter;stroke-opacity:1"/>
<path class="bond-6 atom-5 atom-7" d="M 83.1,79.0 L 93.2,87.2" style="fill:none;fill-rule:evenodd;stroke:#000000;stroke-width:2.0px;stroke-linecap:butt;stroke-linejoin:miter;stroke-opacity:1"/>
<path class="bond-6 atom-5 atom-7" d="M 93.2,87.2 L 103.3,95.4" style="fill:none;fill-rule:evenodd;stroke:#FF0000;stroke-width:2.0px;stroke-linecap:butt;stroke-linejoin:miter;stroke-opacity:1"/>
<path class="bond-7 atom-7 atom-8" d="M 114.1,97.6 L 126.7,92.7" style="fill:none;fill-rule:evenodd;stroke:#FF0000;stroke-width:2.0px;stroke-linecap:butt;stroke-linejoin:miter;stroke-opacity:1"/>
<path class="bond-7 atom-7 atom-8" d="M 126.7,92.7 L 139.4,87.8" style="fill:none;fill-rule:evenodd;stroke:#000000;stroke-width:2.0px;stroke-linecap:butt;stroke-linejoin:miter;stroke-opacity:1"/>
<path class="bond-8 atom-8 atom-9" d="M 141.6,89.6 L 143.8,75.6" style="fill:none;fill-rule:evenodd;stroke:#000000;stroke-width:2.0px;stroke-linecap:butt;stroke-linejoin:miter;stroke-opacity:1"/>
<path class="bond-8 atom-8 atom-9" d="M 143.8,75.6 L 145.9,61.6" style="fill:none;fill-rule:evenodd;stroke:#FF0000;stroke-width:2.0px;stroke-linecap:butt;stroke-linejoin:miter;stroke-opacity:1"/>
<path class="bond-8 atom-8 atom-9" d="M 136.7,88.8 L 138.9,74.8" style="fill:none;fill-rule:evenodd;stroke:#000000;stroke-width:2.0px;stroke-linecap:butt;stroke-linejoin:miter;stroke-opacity:1"/>
<path class="bond-8 atom-8 atom-9" d="M 138.9,74.8 L 141.1,60.9" style="fill:none;fill-rule:evenodd;stroke:#FF0000;stroke-width:2.0px;stroke-linecap:butt;stroke-linejoin:miter;stroke-opacity:1"/>
<path class="bond-9 atom-8 atom-10" d="M 139.4,87.8 L 165.0,108.4" style="fill:none;fill-rule:evenodd;stroke:#000000;stroke-width:2.0px;stroke-linecap:butt;stroke-linejoin:miter;stroke-opacity:1"/>
<path class="bond-10 atom-10 atom-11" d="M 165.0,108.4 L 195.7,96.6" style="fill:none;fill-rule:evenodd;stroke:#000000;stroke-width:2.0px;stroke-linecap:butt;stroke-linejoin:miter;stroke-opacity:1"/>
<path class="bond-11 atom-11 atom-12" d="M 195.7,96.6 L 205.8,104.7" style="fill:none;fill-rule:evenodd;stroke:#000000;stroke-width:2.0px;stroke-linecap:butt;stroke-linejoin:miter;stroke-opacity:1"/>
<path class="bond-11 atom-11 atom-12" d="M 205.8,104.7 L 216.0,112.9" style="fill:none;fill-rule:evenodd;stroke:#FF0000;stroke-width:2.0px;stroke-linecap:butt;stroke-linejoin:miter;stroke-opacity:1"/>
<path d="M 23.2,102.2 L 21.7,102.8 L 21.6,103.5" style="fill:none;stroke:#000000;stroke-width:2.0px;stroke-linecap:butt;stroke-linejoin:miter;stroke-opacity:1;"/>
<path d="M 81.5,79.6 L 83.1,79.0 L 83.6,79.5" style="fill:none;stroke:#000000;stroke-width:2.0px;stroke-linecap:butt;stroke-linejoin:miter;stroke-opacity:1;"/>
<path d="M 138.7,88.1 L 139.4,87.8 L 140.7,88.8" style="fill:none;stroke:#000000;stroke-width:2.0px;stroke-linecap:butt;stroke-linejoin:miter;stroke-opacity:1;"/>
<path d="M 163.7,107.4 L 165.0,108.4 L 166.5,107.8" style="fill:none;stroke:#000000;stroke-width:2.0px;stroke-linecap:butt;stroke-linejoin:miter;stroke-opacity:1;"/>
<path d="M 194.2,97.2 L 195.7,96.6 L 196.2,97.0" style="fill:none;stroke:#000000;stroke-width:2.0px;stroke-linecap:butt;stroke-linejoin:miter;stroke-opacity:1;"/>
<path class="atom-4" d="M 12.3 135.3 Q 12.3 133.1, 13.5 131.9 Q 14.6 130.6, 16.6 130.6 Q 18.7 130.6, 19.8 131.9 Q 20.9 133.1, 20.9 135.3 Q 20.9 137.6, 19.8 138.9 Q 18.7 140.2, 16.6 140.2 Q 14.6 140.2, 13.5 138.9 Q 12.3 137.6, 12.3 135.3 M 16.6 139.1 Q 18.0 139.1, 18.8 138.2 Q 19.6 137.2, 19.6 135.3 Q 19.6 133.5, 18.8 132.6 Q 18.0 131.7, 16.6 131.7 Q 15.2 131.7, 14.4 132.6 Q 13.7 133.5, 13.7 135.3 Q 13.7 137.2, 14.4 138.2 Q 15.2 139.1, 16.6 139.1 " fill="#FF0000"/>
<path class="atom-4" d="M 22.4 130.7 L 23.6 130.7 L 23.6 134.7 L 28.4 134.7 L 28.4 130.7 L 29.6 130.7 L 29.6 140.0 L 28.4 140.0 L 28.4 135.7 L 23.6 135.7 L 23.6 140.0 L 22.4 140.0 L 22.4 130.7 " fill="#FF0000"/>
<path class="atom-6" d="M 83.8 46.6 Q 83.8 44.3, 84.9 43.1 Q 86.0 41.8, 88.1 41.8 Q 90.2 41.8, 91.3 43.1 Q 92.4 44.3, 92.4 46.6 Q 92.4 48.8, 91.3 50.1 Q 90.2 51.4, 88.1 51.4 Q 86.1 51.4, 84.9 50.1 Q 83.8 48.8, 83.8 46.6 M 88.1 50.3 Q 89.5 50.3, 90.3 49.4 Q 91.1 48.4, 91.1 46.6 Q 91.1 44.7, 90.3 43.8 Q 89.5 42.9, 88.1 42.9 Q 86.7 42.9, 85.9 43.8 Q 85.2 44.7, 85.2 46.6 Q 85.2 48.4, 85.9 49.4 Q 86.7 50.3, 88.1 50.3 " fill="#FF0000"/>
<path class="atom-7" d="M 104.4 99.7 Q 104.4 97.5, 105.5 96.2 Q 106.6 95.0, 108.7 95.0 Q 110.8 95.0, 111.9 96.2 Q 113.0 97.5, 113.0 99.7 Q 113.0 102.0, 111.8 103.3 Q 110.7 104.5, 108.7 104.5 Q 106.6 104.5, 105.5 103.3 Q 104.4 102.0, 104.4 99.7 M 108.7 103.5 Q 110.1 103.5, 110.9 102.5 Q 111.7 101.6, 111.7 99.7 Q 111.7 97.9, 110.9 97.0 Q 110.1 96.0, 108.7 96.0 Q 107.3 96.0, 106.5 96.9 Q 105.7 97.9, 105.7 99.7 Q 105.7 101.6, 106.5 102.5 Q 107.3 103.5, 108.7 103.5 " fill="#FF0000"/>
<path class="atom-9" d="M 140.2 55.3 Q 140.2 53.1, 141.3 51.8 Q 142.4 50.6, 144.4 50.6 Q 146.5 50.6, 147.6 51.8 Q 148.7 53.1, 148.7 55.3 Q 148.7 57.6, 147.6 58.9 Q 146.5 60.1, 144.4 60.1 Q 142.4 60.1, 141.3 58.9 Q 140.2 57.6, 140.2 55.3 M 144.4 59.1 Q 145.9 59.1, 146.6 58.1 Q 147.4 57.2, 147.4 55.3 Q 147.4 53.5, 146.6 52.6 Q 145.9 51.6, 144.4 51.6 Q 143.0 51.6, 142.2 52.6 Q 141.5 53.5, 141.5 55.3 Q 141.5 57.2, 142.2 58.1 Q 143.0 59.1, 144.4 59.1 " fill="#FF0000"/>
<path class="atom-12" d="M 217.1 117.2 Q 217.1 115.0, 218.2 113.7 Q 219.3 112.5, 221.3 112.5 Q 223.4 112.5, 224.5 113.7 Q 225.6 115.0, 225.6 117.2 Q 225.6 119.5, 224.5 120.8 Q 223.4 122.1, 221.3 122.1 Q 219.3 122.1, 218.2 120.8 Q 217.1 119.5, 217.1 117.2 M 221.3 121.0 Q 222.8 121.0, 223.5 120.1 Q 224.3 119.1, 224.3 117.2 Q 224.3 115.4, 223.5 114.5 Q 222.8 113.5, 221.3 113.5 Q 219.9 113.5, 219.1 114.5 Q 218.4 115.4, 218.4 117.2 Q 218.4 119.1, 219.1 120.1 Q 219.9 121.0, 221.3 121.0 " fill="#FF0000"/>
<path class="atom-12" d="M 227.1 112.6 L 228.3 112.6 L 228.3 116.6 L 233.1 116.6 L 233.1 112.6 L 234.3 112.6 L 234.3 121.9 L 233.1 121.9 L 233.1 117.6 L 228.3 117.6 L 228.3 121.9 L 227.1 121.9 L 227.1 112.6 " fill="#FF0000"/>
<path class="legend" d="M 114.8 181.9 Q 114.8 179.6, 115.5 177.7 Q 116.2 175.8, 117.5 173.8 L 118.4 174.4 Q 117.3 176.3, 116.8 178.0 Q 116.3 179.7, 116.3 181.9 Q 116.3 184.0, 116.8 185.8 Q 117.3 187.5, 118.4 189.4 L 117.5 190.0 Q 116.2 188.0, 115.5 186.1 Q 114.8 184.2, 114.8 181.9 " fill="#000000"/>
<path class="legend" d="M 119.3 177.3 Q 119.7 176.2, 120.7 175.6 Q 121.7 175.0, 123.1 175.0 Q 124.8 175.0, 125.7 175.9 Q 126.7 176.8, 126.7 178.5 Q 126.7 180.2, 125.4 181.7 Q 124.2 183.3, 121.7 185.2 L 126.9 185.2 L 126.9 186.4 L 119.3 186.4 L 119.3 185.4 Q 121.4 183.9, 122.6 182.8 Q 123.9 181.6, 124.5 180.6 Q 125.1 179.6, 125.1 178.6 Q 125.1 177.5, 124.5 176.9 Q 124.0 176.3, 123.1 176.3 Q 122.1 176.3, 121.5 176.6 Q 120.9 177.0, 120.5 177.8 L 119.3 177.3 " fill="#000000"/>
<path class="legend" d="M 131.9 181.9 Q 131.9 184.2, 131.2 186.1 Q 130.5 188.0, 129.2 190.0 L 128.3 189.4 Q 129.4 187.5, 129.9 185.8 Q 130.4 184.0, 130.4 181.9 Q 130.4 179.7, 129.9 178.0 Q 129.4 176.3, 128.3 174.4 L 129.2 173.8 Q 130.5 175.8, 131.2 177.7 Q 131.9 179.6, 131.9 181.9 " fill="#000000"/>
</g>
    <g transform="translate(247.0, 0) scale(1 1) "><line x1="5" y1="100" x2="35" y2="100" style="stroke:rgb(0,0,0);stroke-width:2"/>
  <line x1="34" y1="100" x2="29" y2="95" style="stroke:rgb(0,0,0);stroke-width:2"/>
  <line x1="34" y1="100" x2="29" y2="105" style="stroke:rgb(0,0,0);stroke-width:2"/>
</g>
    <g transform="translate(287.0, 0) scale(1 1) "><!-- END OF HEADER -->
<rect style="opacity:1.0;fill:#FFFFFF;stroke:none" width="240.0" height="200.0" x="0.0" y="0.0"> </rect>
<path class="bond-0 atom-0 atom-1" d="M 12.0,77.6 L 39.6,97.2" style="fill:none;fill-rule:evenodd;stroke:#000000;stroke-width:2.0px;stroke-linecap:butt;stroke-linejoin:miter;stroke-opacity:1"/>
<path class="bond-1 atom-1 atom-2" d="M 39.6,97.2 L 36.4,130.9" style="fill:none;fill-rule:evenodd;stroke:#000000;stroke-width:2.0px;stroke-linecap:butt;stroke-linejoin:miter;stroke-opacity:1"/>
<path class="bond-2 atom-2 atom-3" d="M 36.4,130.9 L 47.4,138.7" style="fill:none;fill-rule:evenodd;stroke:#000000;stroke-width:2.0px;stroke-linecap:butt;stroke-linejoin:miter;stroke-opacity:1"/>
<path class="bond-2 atom-2 atom-3" d="M 47.4,138.7 L 58.5,146.5" style="fill:none;fill-rule:evenodd;stroke:#FF0000;stroke-width:2.0px;stroke-linecap:butt;stroke-linejoin:miter;stroke-opacity:1"/>
<path class="bond-3 atom-1 atom-4" d="M 39.6,97.2 L 70.3,83.1" style="fill:none;fill-rule:evenodd;stroke:#000000;stroke-width:2.0px;stroke-linecap:butt;stroke-linejoin:miter;stroke-opacity:1"/>
<path class="bond-4 atom-4 atom-5" d="M 72.7,84.8 L 74.1,70.3" style="fill:none;fill-rule:evenodd;stroke:#000000;stroke-width:2.0px;stroke-linecap:butt;stroke-linejoin:miter;stroke-opacity:1"/>
<path class="bond-4 atom-4 atom-5" d="M 74.1,70.3 L 75.5,55.7" style="fill:none;fill-rule:evenodd;stroke:#FF0000;stroke-width:2.0px;stroke-linecap:butt;stroke-linejoin:miter;stroke-opacity:1"/>
<path class="bond-4 atom-4 atom-5" d="M 67.7,84.3 L 69.0,69.8" style="fill:none;fill-rule:evenodd;stroke:#000000;stroke-width:2.0px;stroke-linecap:butt;stroke-linejoin:miter;stroke-opacity:1"/>
<path class="bond-4 atom-4 atom-5" d="M 69.0,69.8 L 70.4,55.3" style="fill:none;fill-rule:evenodd;stroke:#FF0000;stroke-width:2.0px;stroke-linecap:butt;stroke-linejoin:miter;stroke-opacity:1"/>
<path class="bond-5 atom-4 atom-6" d="M 70.3,83.1 L 81.4,90.9" style="fill:none;fill-rule:evenodd;stroke:#000000;stroke-width:2.0px;stroke-linecap:butt;stroke-linejoin:miter;stroke-opacity:1"/>
<path class="bond-5 atom-4 atom-6" d="M 81.4,90.9 L 92.4,98.8" style="fill:none;fill-rule:evenodd;stroke:#FF0000;stroke-width:2.0px;stroke-linecap:butt;stroke-linejoin:miter;stroke-opacity:1"/>
<path class="bond-6 atom-6 atom-7" d="M 103.4,100.2 L 116.1,94.4" style="fill:none;fill-rule:evenodd;stroke:#FF0000;stroke-width:2.0px;stroke-linecap:butt;stroke-linejoin:miter;stroke-opacity:1"/>
<path class="bond-6 atom-6 atom-7" d="M 116.1,94.4 L 128.7,88.6" style="fill:none;fill-rule:evenodd;stroke:#000000;stroke-width:2.0px;stroke-linecap:butt;stroke-linejoin:miter;stroke-opacity:1"/>
<path class="bond-7 atom-7 atom-8" d="M 131.1,90.3 L 132.4,75.8" style="fill:none;fill-rule:evenodd;stroke:#000000;stroke-width:2.0px;stroke-linecap:butt;stroke-linejoin:miter;stroke-opacity:1"/>
<path class="bond-7 atom-7 atom-8" d="M 132.4,75.8 L 133.8,61.2" style="fill:none;fill-rule:evenodd;stroke:#FF0000;stroke-width:2.0px;stroke-linecap:butt;stroke-linejoin:miter;stroke-opacity:1"/>
<path class="bond-7 atom-7 atom-8" d="M 126.0,89.8 L 127.4,75.3" style="fill:none;fill-rule:evenodd;stroke:#000000;stroke-width:2.0px;stroke-linecap:butt;stroke-linejoin:miter;stroke-opacity:1"/>
<path class="bond-7 atom-7 atom-8" d="M 127.4,75.3 L 128.8,60.8" style="fill:none;fill-rule:evenodd;stroke:#FF0000;stroke-width:2.0px;stroke-linecap:butt;stroke-linejoin:miter;stroke-opacity:1"/>
<path class="bond-8 atom-7 atom-9" d="M 128.7,88.6 L 156.3,108.2" style="fill:none;fill-rule:evenodd;stroke:#000000;stroke-width:2.0px;stroke-linecap:butt;stroke-linejoin:miter;stroke-opacity:1"/>
<path class="bond-9 atom-9 atom-10" d="M 156.3,108.2 L 187.0,94.1" style="fill:none;fill-rule:evenodd;stroke:#000000;stroke-width:2.0px;stroke-linecap:butt;stroke-linejoin:miter;stroke-opacity:1"/>
<path class="bond-10 atom-10 atom-11" d="M 187.0,94.1 L 198.1,101.9" style="fill:none;fill-rule:evenodd;stroke:#000000;stroke-width:2.0px;stroke-linecap:butt;stroke-linejoin:miter;stroke-opacity:1"/>
<path class="bond-10 atom-10 atom-11" d="M 198.1,101.9 L 209.1,109.8" style="fill:none;fill-rule:evenodd;stroke:#FF0000;stroke-width:2.0px;stroke-linecap:butt;stroke-linejoin:miter;stroke-opacity:1"/>
<path d="M 36.6,129.2 L 36.4,130.9 L 37.0,131.3" style="fill:none;stroke:#000000;stroke-width:2.0px;stroke-linecap:butt;stroke-linejoin:miter;stroke-opacity:1;"/>
<path d="M 68.8,83.8 L 70.3,83.1 L 70.9,83.5" style="fill:none;stroke:#000000;stroke-width:2.0px;stroke-linecap:butt;stroke-linejoin:miter;stroke-opacity:1;"/>
<path d="M 128.1,88.9 L 128.7,88.6 L 130.1,89.6" style="fill:none;stroke:#000000;stroke-width:2.0px;stroke-linecap:butt;stroke-linejoin:miter;stroke-opacity:1;"/>
<path d="M 154.9,107.2 L 156.3,108.2 L 157.8,107.5" style="fill:none;stroke:#000000;stroke-width:2.0px;stroke-linecap:butt;stroke-linejoin:miter;stroke-opacity:1;"/>
<path d="M 185.5,94.8 L 187.0,94.1 L 187.6,94.5" style="fill:none;stroke:#000000;stroke-width:2.0px;stroke-linecap:butt;stroke-linejoin:miter;stroke-opacity:1;"/>
<path class="atom-3" d="M 59.6 150.5 Q 59.6 148.2, 60.7 146.9 Q 61.9 145.6, 64.0 145.6 Q 66.1 145.6, 67.3 146.9 Q 68.4 148.2, 68.4 150.5 Q 68.4 152.8, 67.2 154.1 Q 66.1 155.4, 64.0 155.4 Q 61.9 155.4, 60.7 154.1 Q 59.6 152.8, 59.6 150.5 M 64.0 154.4 Q 65.5 154.4, 66.2 153.4 Q 67.0 152.4, 67.0 150.5 Q 67.0 148.6, 66.2 147.7 Q 65.5 146.7, 64.0 146.7 Q 62.5 146.7, 61.7 147.6 Q 60.9 148.6, 60.9 150.5 Q 60.9 152.4, 61.7 153.4 Q 62.5 154.4, 64.0 154.4 " fill="#FF0000"/>
<path class="atom-3" d="M 69.9 145.7 L 71.2 145.7 L 71.2 149.8 L 76.1 149.8 L 76.1 145.7 L 77.4 145.7 L 77.4 155.3 L 76.1 155.3 L 76.1 150.9 L 71.2 150.9 L 71.2 155.3 L 69.9 155.3 L 69.9 145.7 " fill="#FF0000"/>
<path class="atom-5" d="M 69.1 49.4 Q 69.1 47.1, 70.3 45.8 Q 71.4 44.6, 73.5 44.6 Q 75.6 44.6, 76.8 45.8 Q 77.9 47.1, 77.9 49.4 Q 77.9 51.8, 76.8 53.1 Q 75.6 54.4, 73.5 54.4 Q 71.4 54.4, 70.3 53.1 Q 69.1 51.8, 69.1 49.4 M 73.5 53.3 Q 75.0 53.3, 75.8 52.3 Q 76.6 51.3, 76.6 49.4 Q 76.6 47.5, 75.8 46.6 Q 75.0 45.6, 73.5 45.6 Q 72.1 45.6, 71.3 46.6 Q 70.5 47.5, 70.5 49.4 Q 70.5 51.4, 71.3 52.3 Q 72.1 53.3, 73.5 53.3 " fill="#FF0000"/>
<path class="atom-6" d="M 93.5 102.7 Q 93.5 100.4, 94.7 99.1 Q 95.8 97.8, 97.9 97.8 Q 100.1 97.8, 101.2 99.1 Q 102.3 100.4, 102.3 102.7 Q 102.3 105.0, 101.2 106.4 Q 100.0 107.7, 97.9 107.7 Q 95.8 107.7, 94.7 106.4 Q 93.5 105.0, 93.5 102.7 M 97.9 106.6 Q 99.4 106.6, 100.2 105.6 Q 101.0 104.6, 101.0 102.7 Q 101.0 100.8, 100.2 99.9 Q 99.4 98.9, 97.9 98.9 Q 96.5 98.9, 95.7 99.9 Q 94.9 100.8, 94.9 102.7 Q 94.9 104.6, 95.7 105.6 Q 96.5 106.6, 97.9 106.6 " fill="#FF0000"/>
<path class="atom-8" d="M 127.5 54.9 Q 127.5 52.6, 128.6 51.3 Q 129.7 50.1, 131.9 50.1 Q 134.0 50.1, 135.1 51.3 Q 136.3 52.6, 136.3 54.9 Q 136.3 57.3, 135.1 58.6 Q 134.0 59.9, 131.9 59.9 Q 129.8 59.9, 128.6 58.6 Q 127.5 57.3, 127.5 54.9 M 131.9 58.8 Q 133.3 58.8, 134.1 57.8 Q 134.9 56.8, 134.9 54.9 Q 134.9 53.0, 134.1 52.1 Q 133.3 51.1, 131.9 51.1 Q 130.4 51.1, 129.6 52.1 Q 128.8 53.0, 128.8 54.9 Q 128.8 56.9, 129.6 57.8 Q 130.4 58.8, 131.9 58.8 " fill="#FF0000"/>
<path class="atom-11" d="M 210.2 113.7 Q 210.2 111.4, 211.4 110.1 Q 212.5 108.8, 214.6 108.8 Q 216.7 108.8, 217.9 110.1 Q 219.0 111.4, 219.0 113.7 Q 219.0 116.0, 217.9 117.4 Q 216.7 118.7, 214.6 118.7 Q 212.5 118.7, 211.4 117.4 Q 210.2 116.0, 210.2 113.7 M 214.6 117.6 Q 216.1 117.6, 216.9 116.6 Q 217.7 115.6, 217.7 113.7 Q 217.7 111.8, 216.9 110.9 Q 216.1 109.9, 214.6 109.9 Q 213.2 109.9, 212.4 110.9 Q 211.6 111.8, 211.6 113.7 Q 211.6 115.6, 212.4 116.6 Q 213.2 117.6, 214.6 117.6 " fill="#FF0000"/>
<path class="atom-11" d="M 220.5 108.9 L 221.8 108.9 L 221.8 113.0 L 226.7 113.0 L 226.7 108.9 L 228.0 108.9 L 228.0 118.5 L 226.7 118.5 L 226.7 114.1 L 221.8 114.1 L 221.8 118.5 L 220.5 118.5 L 220.5 108.9 " fill="#FF0000"/>
</g>
    <g transform="translate(527.0, 0) scale(1 1) "><line x1="15" y1="100" x2="25" y2="100" style="stroke:rgb(0,0,0);stroke-width:2"/>
  <line x1="20" y1="95" x2="20" y2="105" style="stroke:rgb(0,0,0);stroke-width:2"/>
</g>
    <g transform="translate(567.0, 0) scale(1 1) "><!-- END OF HEADER -->
<rect style="opacity:1.0;fill:#FFFFFF;stroke:none" width="254.0" height="200.0" x="0.0" y="0.0"> </rect>
<path class="bond-0 atom-0 atom-1" d="M 209.5,57.1 L 205.4,86.6" style="fill:none;fill-rule:evenodd;stroke:#000000;stroke-width:2.0px;stroke-linecap:butt;stroke-linejoin:miter;stroke-opacity:1"/>
<path class="bond-1 atom-1 atom-2" d="M 205.4,86.6 L 214.8,93.8" style="fill:none;fill-rule:evenodd;stroke:#000000;stroke-width:2.0px;stroke-linecap:butt;stroke-linejoin:miter;stroke-opacity:1"/>
<path class="bond-1 atom-1 atom-2" d="M 214.8,93.8 L 224.1,101.0" style="fill:none;fill-rule:evenodd;stroke:#FF0000;stroke-width:2.0px;stroke-linecap:butt;stroke-linejoin:miter;stroke-opacity:1"/>
<path class="bond-2 atom-1 atom-3" d="M 205.4,86.6 L 177.9,97.8" style="fill:none;fill-rule:evenodd;stroke:#000000;stroke-width:2.0px;stroke-linecap:butt;stroke-linejoin:miter;stroke-opacity:1"/>
<path class="bond-3 atom-3 atom-4" d="M 177.9,97.8 L 166.7,70.3" style="fill:none;fill-rule:evenodd;stroke:#000000;stroke-width:2.0px;stroke-linecap:butt;stroke-linejoin:miter;stroke-opacity:1"/>
<path class="bond-4 atom-3 atom-5" d="M 177.9,97.8 L 189.2,125.3" style="fill:none;fill-rule:evenodd;stroke:#000000;stroke-width:2.0px;stroke-linecap:butt;stroke-linejoin:miter;stroke-opacity:1"/>
<path class="bond-5 atom-3 atom-6" d="M 177.9,97.8 L 150.4,109.1" style="fill:none;fill-rule:evenodd;stroke:#000000;stroke-width:2.0px;stroke-linecap:butt;stroke-linejoin:miter;stroke-opacity:1"/>
<path class="bond-6 atom-6 atom-7" d="M 148.4,107.5 L 146.6,120.2" style="fill:none;fill-rule:evenodd;stroke:#000000;stroke-width:2.0px;stroke-linecap:butt;stroke-linejoin:miter;stroke-opacity:1"/>
<path class="bond-6 atom-6 atom-7" d="M 146.6,120.2 L 144.9,133.0" style="fill:none;fill-rule:evenodd;stroke:#FF0000;stroke-width:2.0px;stroke-linecap:butt;stroke-linejoin:miter;stroke-opacity:1"/>
<path class="bond-6 atom-6 atom-7" d="M 152.8,108.1 L 151.1,120.8" style="fill:none;fill-rule:evenodd;stroke:#000000;stroke-width:2.0px;stroke-linecap:butt;stroke-linejoin:miter;stroke-opacity:1"/>
<path class="bond-6 atom-6 atom-7" d="M 151.1,120.8 L 149.3,133.6" style="fill:none;fill-rule:evenodd;stroke:#FF0000;stroke-width:2.0px;stroke-linecap:butt;stroke-linejoin:miter;stroke-opacity:1"/>
<path class="bond-7 atom-6 atom-8" d="M 150.4,109.1 L 141.1,101.8" style="fill:none;fill-rule:evenodd;stroke:#000000;stroke-width:2.0px;stroke-linecap:butt;stroke-linejoin:miter;stroke-opacity:1"/>
<path class="bond-7 atom-6 atom-8" d="M 141.1,101.8 L 131.8,94.6" style="fill:none;fill-rule:evenodd;stroke:#FF0000;stroke-width:2.0px;stroke-linecap:butt;stroke-linejoin:miter;stroke-opacity:1"/>
<path class="bond-8 atom-8 atom-9" d="M 122.1,92.8 L 110.7,97.5" style="fill:none;fill-rule:evenodd;stroke:#FF0000;stroke-width:2.0px;stroke-linecap:butt;stroke-linejoin:miter;stroke-opacity:1"/>
<path class="bond-8 atom-8 atom-9" d="M 110.7,97.5 L 99.4,102.1" style="fill:none;fill-rule:evenodd;stroke:#000000;stroke-width:2.0px;stroke-linecap:butt;stroke-linejoin:miter;stroke-opacity:1"/>
<path class="bond-9 atom-9 atom-10" d="M 97.4,100.5 L 95.6,113.3" style="fill:none;fill-rule:evenodd;stroke:#000000;stroke-width:2.0px;stroke-linecap:butt;stroke-linejoin:miter;stroke-opacity:1"/>
<path class="bond-9 atom-9 atom-10" d="M 95.6,113.3 L 93.9,126.0" style="fill:none;fill-rule:evenodd;stroke:#FF0000;stroke-width:2.0px;stroke-linecap:butt;stroke-linejoin:miter;stroke-opacity:1"/>
<path class="bond-9 atom-9 atom-10" d="M 101.8,101.1 L 100.0,113.9" style="fill:none;fill-rule:evenodd;stroke:#000000;stroke-width:2.0px;stroke-linecap:butt;stroke-linejoin:miter;stroke-opacity:1"/>
<path class="bond-9 atom-9 atom-10" d="M 100.0,113.9 L 98.3,126.6" style="fill:none;fill-rule:evenodd;stroke:#FF0000;stroke-width:2.0px;stroke-linecap:butt;stroke-linejoin:miter;stroke-opacity:1"/>
<path class="bond-10 atom-9 atom-11" d="M 99.4,102.1 L 75.9,83.9" style="fill:none;fill-rule:evenodd;stroke:#000000;stroke-width:2.0px;stroke-linecap:butt;stroke-linejoin:miter;stroke-opacity:1"/>
<path class="bond-11 atom-11 atom-12" d="M 75.9,83.9 L 48.4,95.1" style="fill:none;fill-rule:evenodd;stroke:#000000;stroke-width:2.0px;stroke-linecap:butt;stroke-linejoin:miter;stroke-opacity:1"/>
<path class="bond-12 atom-12 atom-13" d="M 48.4,95.1 L 39.1,87.9" style="fill:none;fill-rule:evenodd;stroke:#000000;stroke-width:2.0px;stroke-linecap:butt;stroke-linejoin:miter;stroke-opacity:1"/>
<path class="bond-12 atom-12 atom-13" d="M 39.1,87.9 L 29.7,80.7" style="fill:none;fill-rule:evenodd;stroke:#FF0000;stroke-width:2.0px;stroke-linecap:butt;stroke-linejoin:miter;stroke-opacity:1"/>
<path d="M 151.8,108.5 L 150.4,109.1 L 149.9,108.7" style="fill:none;stroke:#000000;stroke-width:2.0px;stroke-linecap:butt;stroke-linejoin:miter;stroke-opacity:1;"/>
<path d="M 100.0,101.9 L 99.4,102.1 L 98.2,101.2" style="fill:none;stroke:#000000;stroke-width:2.0px;stroke-linecap:butt;stroke-linejoin:miter;stroke-opacity:1;"/>
<path d="M 77.1,84.8 L 75.9,83.9 L 74.5,84.5" style="fill:none;stroke:#000000;stroke-width:2.0px;stroke-linecap:butt;stroke-linejoin:miter;stroke-opacity:1;"/>
<path d="M 49.8,94.6 L 48.4,95.1 L 47.9,94.8" style="fill:none;stroke:#000000;stroke-width:2.0px;stroke-linecap:butt;stroke-linejoin:miter;stroke-opacity:1;"/>
<path class="atom-2" d="M 225.1 104.8 Q 225.1 102.8, 226.1 101.6 Q 227.1 100.5, 228.9 100.5 Q 230.8 100.5, 231.8 101.6 Q 232.8 102.8, 232.8 104.8 Q 232.8 106.8, 231.8 108.0 Q 230.8 109.1, 228.9 109.1 Q 227.1 109.1, 226.1 108.0 Q 225.1 106.8, 225.1 104.8 M 228.9 108.2 Q 230.2 108.2, 230.9 107.3 Q 231.6 106.5, 231.6 104.8 Q 231.6 103.1, 230.9 102.3 Q 230.2 101.5, 228.9 101.5 Q 227.7 101.5, 227.0 102.3 Q 226.3 103.1, 226.3 104.8 Q 226.3 106.5, 227.0 107.3 Q 227.7 108.2, 228.9 108.2 " fill="#FF0000"/>
<path class="atom-2" d="M 234.1 100.6 L 235.3 100.6 L 235.3 104.2 L 239.6 104.2 L 239.6 100.6 L 240.7 100.6 L 240.7 109.0 L 239.6 109.0 L 239.6 105.1 L 235.3 105.1 L 235.3 109.0 L 234.1 109.0 L 234.1 100.6 " fill="#FF0000"/>
<path class="atom-7" d="M 142.5 138.5 Q 142.5 136.5, 143.5 135.4 Q 144.5 134.3, 146.4 134.3 Q 148.3 134.3, 149.3 135.4 Q 150.3 136.5, 150.3 138.5 Q 150.3 140.6, 149.2 141.7 Q 148.2 142.9, 146.4 142.9 Q 144.5 142.9, 143.5 141.7 Q 142.5 140.6, 142.5 138.5 M 146.4 141.9 Q 147.7 141.9, 148.4 141.1 Q 149.1 140.2, 149.1 138.5 Q 149.1 136.9, 148.4 136.0 Q 147.7 135.2, 146.4 135.2 Q 145.1 135.2, 144.4 136.0 Q 143.7 136.9, 143.7 138.5 Q 143.7 140.2, 144.4 141.1 Q 145.1 141.9, 146.4 141.9 " fill="#FF0000"/>
<path class="atom-8" d="M 123.0 90.9 Q 123.0 88.9, 124.0 87.7 Q 125.0 86.6, 126.9 86.6 Q 128.8 86.6, 129.8 87.7 Q 130.8 88.9, 130.8 90.9 Q 130.8 92.9, 129.8 94.1 Q 128.8 95.2, 126.9 95.2 Q 125.1 95.2, 124.0 94.1 Q 123.0 92.9, 123.0 90.9 M 126.9 94.3 Q 128.2 94.3, 128.9 93.4 Q 129.6 92.6, 129.6 90.9 Q 129.6 89.2, 128.9 88.4 Q 128.2 87.5, 126.9 87.5 Q 125.6 87.5, 124.9 88.4 Q 124.2 89.2, 124.2 90.9 Q 124.2 92.6, 124.9 93.4 Q 125.6 94.3, 126.9 94.3 " fill="#FF0000"/>
<path class="atom-10" d="M 91.5 131.6 Q 91.5 129.6, 92.5 128.4 Q 93.5 127.3, 95.4 127.3 Q 97.2 127.3, 98.2 128.4 Q 99.2 129.6, 99.2 131.6 Q 99.2 133.6, 98.2 134.8 Q 97.2 135.9, 95.4 135.9 Q 93.5 135.9, 92.5 134.8 Q 91.5 133.6, 91.5 131.6 M 95.4 135.0 Q 96.7 135.0, 97.4 134.1 Q 98.1 133.3, 98.1 131.6 Q 98.1 129.9, 97.4 129.1 Q 96.7 128.2, 95.4 128.2 Q 94.1 128.2, 93.4 129.1 Q 92.7 129.9, 92.7 131.6 Q 92.7 133.3, 93.4 134.1 Q 94.1 135.0, 95.4 135.0 " fill="#FF0000"/>
<path class="atom-13" d="M 12.7 72.8 L 13.8 72.8 L 13.8 76.4 L 18.1 76.4 L 18.1 72.8 L 19.3 72.8 L 19.3 81.2 L 18.1 81.2 L 18.1 77.3 L 13.8 77.3 L 13.8 81.2 L 12.7 81.2 L 12.7 72.8 " fill="#FF0000"/>
<path class="atom-13" d="M 21.0 77.0 Q 21.0 74.9, 22.0 73.8 Q 23.0 72.7, 24.9 72.7 Q 26.7 72.7, 27.7 73.8 Q 28.7 74.9, 28.7 77.0 Q 28.7 79.0, 27.7 80.2 Q 26.7 81.3, 24.9 81.3 Q 23.0 81.3, 22.0 80.2 Q 21.0 79.0, 21.0 77.0 M 24.9 80.4 Q 26.2 80.4, 26.9 79.5 Q 27.6 78.7, 27.6 77.0 Q 27.6 75.3, 26.9 74.5 Q 26.2 73.6, 24.9 73.6 Q 23.6 73.6, 22.9 74.5 Q 22.2 75.3, 22.2 77.0 Q 22.2 78.7, 22.9 79.5 Q 23.6 80.4, 24.9 80.4 " fill="#FF0000"/>
</g>
  </g>
</svg>
