<?xml version='1.0' encoding='ASCII' standalone='yes'?>
<svg xmlns="http://www.w3.org/2000/svg" xmlns:xlink="http://www.w3.org/1999/xlink" version="1.1" width="548.0px" viewBox="0 0 548.0 200.0" height="200.0px">
  <g>
    <g transform="translate(0, 0) scale(1 1) "><!-- END OF HEADER -->
<rect style="opacity:1.0;fill:#FFFFFF;stroke:none" width="254.0" height="200.0" x="0.0" y="0.0"> </rect>
<path class="bond-0 atom-0 atom-1" d="M 94.7,54.9 L 91.0,94.1" style="fill:none;fill-rule:evenodd;stroke:#000000;stroke-width:2.0px;stroke-linecap:butt;stroke-linejoin:miter;stroke-opacity:1"/>
<path class="bond-1 atom-1 atom-2" d="M 91.0,94.1 L 87.2,133.4" style="fill:none;fill-rule:evenodd;stroke:#000000;stroke-width:2.0px;stroke-linecap:butt;stroke-linejoin:miter;stroke-opacity:1"/>
<path class="bond-2 atom-1 atom-3" d="M 91.0,94.1 L 51.7,90.4" style="fill:none;fill-rule:evenodd;stroke:#000000;stroke-width:2.0px;stroke-linecap:butt;stroke-linejoin:miter;stroke-opacity:1"/>
<path class="bond-3 atom-3 atom-4" d="M 51.7,90.4 L 42.8,103.0" style="fill:none;fill-rule:evenodd;stroke:#000000;stroke-width:2.0px;stroke-linecap:butt;stroke-linejoin:miter;stroke-opacity:1"/>
<path class="bond-3 atom-3 atom-4" d="M 42.8,103.0 L 33.8,115.6" style="fill:none;fill-rule:evenodd;stroke:#FF0000;stroke-width:2.0px;stroke-linecap:butt;stroke-linejoin:miter;stroke-opacity:1"/>
<path class="bond-4 atom-1 atom-5" d="M 91.0,94.1 L 130.2,97.9" style="fill:none;fill-rule:evenodd;stroke:#000000;stroke-width:2.0px;stroke-linecap:butt;stroke-linejoin:miter;stroke-opacity:1"/>
<path class="bond-5 atom-5 atom-6" d="M 130.2,97.9 L 128.7,114.0" style="fill:none;fill-rule:evenodd;stroke:#000000;stroke-width:2.0px;stroke-linecap:butt;stroke-linejoin:miter;stroke-opacity:1"/>
<path class="bond-5 atom-5 atom-6" d="M 128.7,114.0 L 127.1,130.2" style="fill:none;fill-rule:evenodd;stroke:#FF0000;stroke-width:2.0px;stroke-linecap:butt;stroke-linejoin:miter;stroke-opacity:1"/>
<path class="bond-6 atom-5 atom-7" d="M 130.2,97.9 L 131.7,81.8" style="fill:none;fill-rule:evenodd;stroke:#000000;stroke-width:2.0px;stroke-linecap:butt;stroke-linejoin:miter;stroke-opacity:1"/>
<path class="bond-6 atom-5 atom-7" d="M 131.7,81.8 L 133.3,65.7" style="fill:none;fill-rule:evenodd;stroke:#FF0000;stroke-width:2.0px;stroke-linecap:butt;stroke-linejoin:miter;stroke-opacity:1"/>
<path class="bond-7 atom-5 atom-8" d="M 130.2,97.9 L 169.5,101.6" style="fill:none;fill-rule:evenodd;stroke:#000000;stroke-width:2.0px;stroke-linecap:butt;stroke-linejoin:miter;stroke-opacity:1"/>
<path class="bond-8 atom-8 atom-9" d="M 169.5,101.6 L 165.7,140.9" style="fill:none;fill-rule:evenodd;stroke:#000000;stroke-width:2.0px;stroke-linecap:butt;stroke-linejoin:miter;stroke-opacity:1"/>
<path class="bond-9 atom-8 atom-10" d="M 169.5,101.6 L 173.2,62.4" style="fill:none;fill-rule:evenodd;stroke:#000000;stroke-width:2.0px;stroke-linecap:butt;stroke-linejoin:miter;stroke-opacity:1"/>
<path class="bond-10 atom-8 atom-11" d="M 169.5,101.6 L 208.7,105.3" style="fill:none;fill-rule:evenodd;stroke:#000000;stroke-width:2.0px;stroke-linecap:butt;stroke-linejoin:miter;stroke-opacity:1"/>
<path class="bond-11 atom-11 atom-12" d="M 210.1,108.5 L 219.5,95.3" style="fill:none;fill-rule:evenodd;stroke:#000000;stroke-width:2.0px;stroke-linecap:butt;stroke-linejoin:miter;stroke-opacity:1"/>
<path class="bond-11 atom-11 atom-12" d="M 219.5,95.3 L 228.9,82.1" style="fill:none;fill-rule:evenodd;stroke:#FF0000;stroke-width:2.0px;stroke-linecap:butt;stroke-linejoin:miter;stroke-opacity:1"/>
<path class="bond-11 atom-11 atom-12" d="M 205.3,105.0 L 214.7,91.8" style="fill:none;fill-rule:evenodd;stroke:#000000;stroke-width:2.0px;stroke-linecap:butt;stroke-linejoin:miter;stroke-opacity:1"/>
<path class="bond-11 atom-11 atom-12" d="M 214.7,91.8 L 224.1,78.6" style="fill:none;fill-rule:evenodd;stroke:#FF0000;stroke-width:2.0px;stroke-linecap:butt;stroke-linejoin:miter;stroke-opacity:1"/>
<path class="bond-12 atom-11 atom-13" d="M 208.7,105.3 L 215.3,119.8" style="fill:none;fill-rule:evenodd;stroke:#000000;stroke-width:2.0px;stroke-linecap:butt;stroke-linejoin:miter;stroke-opacity:1"/>
<path class="bond-12 atom-11 atom-13" d="M 215.3,119.8 L 221.9,134.3" style="fill:none;fill-rule:evenodd;stroke:#FF0000;stroke-width:2.0px;stroke-linecap:butt;stroke-linejoin:miter;stroke-opacity:1"/>
<path d="M 53.7,90.6 L 51.7,90.4 L 51.3,91.0" style="fill:none;stroke:#000000;stroke-width:2.0px;stroke-linecap:butt;stroke-linejoin:miter;stroke-opacity:1;"/>
<path d="M 206.8,105.2 L 208.7,105.3 L 209.0,106.1" style="fill:none;stroke:#000000;stroke-width:2.0px;stroke-linecap:butt;stroke-linejoin:miter;stroke-opacity:1;"/>
<path class="atom-4" d="M 12.7 117.0 L 14.2 117.0 L 14.2 121.7 L 19.9 121.7 L 19.9 117.0 L 21.4 117.0 L 21.4 128.1 L 19.9 128.1 L 19.9 123.0 L 14.2 123.0 L 14.2 128.1 L 12.7 128.1 L 12.7 117.0 " fill="#FF0000"/>
<path class="atom-4" d="M 23.7 122.5 Q 23.7 119.8, 25.1 118.4 Q 26.4 116.9, 28.9 116.9 Q 31.3 116.9, 32.7 118.4 Q 34.0 119.8, 34.0 122.5 Q 34.0 125.2, 32.6 126.8 Q 31.3 128.3, 28.9 128.3 Q 26.4 128.3, 25.1 126.8 Q 23.7 125.3, 23.7 122.5 M 28.9 127.1 Q 30.6 127.1, 31.5 125.9 Q 32.4 124.8, 32.4 122.5 Q 32.4 120.3, 31.5 119.2 Q 30.6 118.1, 28.9 118.1 Q 27.1 118.1, 26.2 119.2 Q 25.3 120.3, 25.3 122.5 Q 25.3 124.8, 26.2 125.9 Q 27.1 127.1, 28.9 127.1 " fill="#FF0000"/>
<path class="atom-6" d="M 121.3 137.1 Q 121.3 134.5, 122.7 133.0 Q 124.0 131.5, 126.5 131.5 Q 129.0 131.5, 130.3 133.0 Q 131.6 134.5, 131.6 137.1 Q 131.6 139.9, 130.3 141.4 Q 128.9 142.9, 126.5 142.9 Q 124.0 142.9, 122.7 141.4 Q 121.3 139.9, 121.3 137.1 M 126.5 141.7 Q 128.2 141.7, 129.1 140.5 Q 130.0 139.4, 130.0 137.1 Q 130.0 135.0, 129.1 133.8 Q 128.2 132.7, 126.5 132.7 Q 124.8 132.7, 123.8 133.8 Q 122.9 134.9, 122.9 137.1 Q 122.9 139.4, 123.8 140.5 Q 124.8 141.7, 126.5 141.7 " fill="#FF0000"/>
<path class="atom-6" d="M 133.3 131.6 L 134.9 131.6 L 134.9 136.3 L 140.6 136.3 L 140.6 131.6 L 142.1 131.6 L 142.1 142.8 L 140.6 142.8 L 140.6 137.6 L 134.9 137.6 L 134.9 142.8 L 133.3 142.8 L 133.3 131.6 " fill="#FF0000"/>
<path class="atom-7" d="M 128.8 58.6 Q 128.8 56.0, 130.2 54.5 Q 131.5 53.0, 134.0 53.0 Q 136.4 53.0, 137.8 54.5 Q 139.1 56.0, 139.1 58.6 Q 139.1 61.4, 137.7 62.9 Q 136.4 64.4, 134.0 64.4 Q 131.5 64.4, 130.2 62.9 Q 128.8 61.4, 128.8 58.6 M 134.0 63.2 Q 135.7 63.2, 136.6 62.0 Q 137.5 60.9, 137.5 58.6 Q 137.5 56.5, 136.6 55.4 Q 135.7 54.2, 134.0 54.2 Q 132.3 54.2, 131.3 55.3 Q 130.4 56.4, 130.4 58.6 Q 130.4 60.9, 131.3 62.0 Q 132.3 63.2, 134.0 63.2 " fill="#FF0000"/>
<path class="atom-7" d="M 140.8 53.1 L 142.3 53.1 L 142.3 57.8 L 148.0 57.8 L 148.0 53.1 L 149.6 53.1 L 149.6 64.3 L 148.0 64.3 L 148.0 59.1 L 142.3 59.1 L 142.3 64.3 L 140.8 64.3 L 140.8 53.1 " fill="#FF0000"/>
<path class="atom-12" d="M 226.5 73.3 Q 226.5 70.6, 227.8 69.1 Q 229.1 67.6, 231.6 67.6 Q 234.1 67.6, 235.4 69.1 Q 236.7 70.6, 236.7 73.3 Q 236.7 76.0, 235.4 77.5 Q 234.0 79.0, 231.6 79.0 Q 229.1 79.0, 227.8 77.5 Q 226.5 76.0, 226.5 73.3 M 231.6 77.8 Q 233.3 77.8, 234.2 76.7 Q 235.1 75.5, 235.1 73.3 Q 235.1 71.1, 234.2 70.0 Q 233.3 68.8, 231.6 68.8 Q 229.9 68.8, 228.9 69.9 Q 228.0 71.1, 228.0 73.3 Q 228.0 75.5, 228.9 76.7 Q 229.9 77.8, 231.6 77.8 " fill="#FF0000"/>
<path class="atom-13" d="M 220.0 141.2 Q 220.0 138.6, 221.3 137.1 Q 222.6 135.6, 225.1 135.6 Q 227.6 135.6, 228.9 137.1 Q 230.2 138.6, 230.2 141.2 Q 230.2 144.0, 228.9 145.5 Q 227.5 147.0, 225.1 147.0 Q 222.6 147.0, 221.3 145.5 Q 220.0 144.0, 220.0 141.2 M 225.1 145.8 Q 226.8 145.8, 227.7 144.6 Q 228.6 143.5, 228.6 141.2 Q 228.6 139.1, 227.7 137.9 Q 226.8 136.8, 225.1 136.8 Q 223.4 136.8, 222.5 137.9 Q 221.6 139.0, 221.6 141.2 Q 221.6 143.5, 222.5 144.6 Q 223.4 145.8, 225.1 145.8 " fill="#FF0000"/>
<path class="atom-13" d="M 232.0 135.7 L 233.5 135.7 L 233.5 140.4 L 239.2 140.4 L 239.2 135.7 L 240.7 135.7 L 240.7 146.9 L 239.2 146.9 L 239.2 141.7 L 233.5 141.7 L 233.5 146.9 L 232.0 146.9 L 232.0 135.7 " fill="#FF0000"/>
</g>
    <g transform="translate(254.00000000000003, 0) scale(1 1) "><line x1="5" y1="100" x2="35" y2="100" style="stroke:rgb(0,0,0);stroke-width:2"/>
  <line x1="34" y1="100" x2="29" y2="95" style="stroke:rgb(0,0,0);stroke-width:2"/>
  <line x1="34" y1="100" x2="29" y2="105" style="stroke:rgb(0,0,0);stroke-width:2"/>
</g>
    <g transform="translate(294.0, 0) scale(1 1) "><!-- END OF HEADER -->
<rect style="opacity:1.0;fill:#FFFFFF;stroke:none" width="254.0" height="200.0" x="0.0" y="0.0"> </rect>
<path class="bond-0 atom-0 atom-1" d="M 186.6,65.5 L 166.7,99.9" style="fill:none;fill-rule:evenodd;stroke:#000000;stroke-width:2.0px;stroke-linecap:butt;stroke-linejoin:miter;stroke-opacity:1"/>
<path class="bond-1 atom-1 atom-2" d="M 166.7,99.9 L 146.8,134.3" style="fill:none;fill-rule:evenodd;stroke:#000000;stroke-width:2.0px;stroke-linecap:butt;stroke-linejoin:miter;stroke-opacity:1"/>
<path class="bond-2 atom-1 atom-3" d="M 166.7,99.9 L 201.1,119.8" style="fill:none;fill-rule:evenodd;stroke:#000000;stroke-width:2.0px;stroke-linecap:butt;stroke-linejoin:miter;stroke-opacity:1"/>
<path class="bond-3 atom-3 atom-4" d="M 201.1,123.2 L 215.8,114.7" style="fill:none;fill-rule:evenodd;stroke:#000000;stroke-width:2.0px;stroke-linecap:butt;stroke-linejoin:miter;stroke-opacity:1"/>
<path class="bond-3 atom-3 atom-4" d="M 215.8,114.7 L 230.5,106.2" style="fill:none;fill-rule:evenodd;stroke:#FF0000;stroke-width:2.0px;stroke-linecap:butt;stroke-linejoin:miter;stroke-opacity:1"/>
<path class="bond-3 atom-3 atom-4" d="M 198.1,118.1 L 212.8,109.6" style="fill:none;fill-rule:evenodd;stroke:#000000;stroke-width:2.0px;stroke-linecap:butt;stroke-linejoin:miter;stroke-opacity:1"/>
<path class="bond-3 atom-3 atom-4" d="M 212.8,109.6 L 227.6,101.1" style="fill:none;fill-rule:evenodd;stroke:#FF0000;stroke-width:2.0px;stroke-linecap:butt;stroke-linejoin:miter;stroke-opacity:1"/>
<path class="bond-4 atom-3 atom-5" d="M 201.1,119.8 L 201.1,136.2" style="fill:none;fill-rule:evenodd;stroke:#000000;stroke-width:2.0px;stroke-linecap:butt;stroke-linejoin:miter;stroke-opacity:1"/>
<path class="bond-4 atom-3 atom-5" d="M 201.1,136.2 L 201.1,152.5" style="fill:none;fill-rule:evenodd;stroke:#FF0000;stroke-width:2.0px;stroke-linecap:butt;stroke-linejoin:miter;stroke-opacity:1"/>
<path class="bond-5 atom-1 atom-6" d="M 166.7,99.9 L 132.3,80.0" style="fill:none;fill-rule:evenodd;stroke:#000000;stroke-width:2.0px;stroke-linecap:butt;stroke-linejoin:miter;stroke-opacity:1"/>
<path class="bond-6 atom-6 atom-7" d="M 132.3,80.0 L 132.3,63.8" style="fill:none;fill-rule:evenodd;stroke:#000000;stroke-width:2.0px;stroke-linecap:butt;stroke-linejoin:miter;stroke-opacity:1"/>
<path class="bond-6 atom-6 atom-7" d="M 132.3,63.8 L 132.3,47.5" style="fill:none;fill-rule:evenodd;stroke:#FF0000;stroke-width:2.0px;stroke-linecap:butt;stroke-linejoin:miter;stroke-opacity:1"/>
<path class="bond-7 atom-6 atom-8" d="M 132.3,80.0 L 97.8,99.9" style="fill:none;fill-rule:evenodd;stroke:#000000;stroke-width:2.0px;stroke-linecap:butt;stroke-linejoin:miter;stroke-opacity:1"/>
<path class="bond-8 atom-8 atom-9" d="M 97.8,99.9 L 117.7,134.3" style="fill:none;fill-rule:evenodd;stroke:#000000;stroke-width:2.0px;stroke-linecap:butt;stroke-linejoin:miter;stroke-opacity:1"/>
<path class="bond-9 atom-8 atom-10" d="M 97.8,99.9 L 78.0,65.5" style="fill:none;fill-rule:evenodd;stroke:#000000;stroke-width:2.0px;stroke-linecap:butt;stroke-linejoin:miter;stroke-opacity:1"/>
<path class="bond-10 atom-8 atom-11" d="M 97.8,99.9 L 63.4,119.8" style="fill:none;fill-rule:evenodd;stroke:#000000;stroke-width:2.0px;stroke-linecap:butt;stroke-linejoin:miter;stroke-opacity:1"/>
<path class="bond-11 atom-11 atom-12" d="M 63.4,119.8 L 63.4,136.2" style="fill:none;fill-rule:evenodd;stroke:#000000;stroke-width:2.0px;stroke-linecap:butt;stroke-linejoin:miter;stroke-opacity:1"/>
<path class="bond-11 atom-11 atom-12" d="M 63.4,136.2 L 63.4,152.5" style="fill:none;fill-rule:evenodd;stroke:#FF0000;stroke-width:2.0px;stroke-linecap:butt;stroke-linejoin:miter;stroke-opacity:1"/>
<path class="bond-12 atom-11 atom-13" d="M 63.4,119.8 L 49.4,111.7" style="fill:none;fill-rule:evenodd;stroke:#000000;stroke-width:2.0px;stroke-linecap:butt;stroke-linejoin:miter;stroke-opacity:1"/>
<path class="bond-12 atom-11 atom-13" d="M 49.4,111.7 L 35.5,103.7" style="fill:none;fill-rule:evenodd;stroke:#FF0000;stroke-width:2.0px;stroke-linecap:butt;stroke-linejoin:miter;stroke-opacity:1"/>
<path d="M 199.4,118.8 L 201.1,119.8 L 201.1,120.6" style="fill:none;stroke:#000000;stroke-width:2.0px;stroke-linecap:butt;stroke-linejoin:miter;stroke-opacity:1;"/>
<path class="atom-4" d="M 230.4 99.9 Q 230.4 97.2, 231.7 95.7 Q 233.0 94.2, 235.5 94.2 Q 238.0 94.2, 239.4 95.7 Q 240.7 97.2, 240.7 99.9 Q 240.7 102.7, 239.3 104.2 Q 238.0 105.8, 235.5 105.8 Q 233.1 105.8, 231.7 104.2 Q 230.4 102.7, 230.4 99.9 M 235.5 104.5 Q 237.2 104.5, 238.2 103.4 Q 239.1 102.2, 239.1 99.9 Q 239.1 97.7, 238.2 96.6 Q 237.2 95.5, 235.5 95.5 Q 233.8 95.5, 232.9 96.6 Q 232.0 97.7, 232.0 99.9 Q 232.0 102.2, 232.9 103.4 Q 233.8 104.5, 235.5 104.5 " fill="#FF0000"/>
<path class="atom-5" d="M 195.9 159.6 Q 195.9 156.9, 197.3 155.4 Q 198.6 153.8, 201.1 153.8 Q 203.6 153.8, 204.9 155.4 Q 206.3 156.9, 206.3 159.6 Q 206.3 162.3, 204.9 163.9 Q 203.6 165.4, 201.1 165.4 Q 198.6 165.4, 197.3 163.9 Q 195.9 162.3, 195.9 159.6 M 201.1 164.1 Q 202.8 164.1, 203.7 163.0 Q 204.7 161.8, 204.7 159.6 Q 204.7 157.4, 203.7 156.2 Q 202.8 155.1, 201.1 155.1 Q 199.4 155.1, 198.5 156.2 Q 197.5 157.3, 197.5 159.6 Q 197.5 161.8, 198.5 163.0 Q 199.4 164.1, 201.1 164.1 " fill="#FF0000"/>
<path class="atom-5" d="M 208.0 154.0 L 209.6 154.0 L 209.6 158.8 L 215.3 158.8 L 215.3 154.0 L 216.8 154.0 L 216.8 165.2 L 215.3 165.2 L 215.3 160.0 L 209.6 160.0 L 209.6 165.2 L 208.0 165.2 L 208.0 154.0 " fill="#FF0000"/>
<path class="atom-7" d="M 127.1 40.3 Q 127.1 37.6, 128.4 36.1 Q 129.8 34.6, 132.3 34.6 Q 134.8 34.6, 136.1 36.1 Q 137.4 37.6, 137.4 40.3 Q 137.4 43.1, 136.1 44.6 Q 134.7 46.2, 132.3 46.2 Q 129.8 46.2, 128.4 44.6 Q 127.1 43.1, 127.1 40.3 M 132.3 44.9 Q 134.0 44.9, 134.9 43.7 Q 135.8 42.6, 135.8 40.3 Q 135.8 38.1, 134.9 37.0 Q 134.0 35.9, 132.3 35.9 Q 130.5 35.9, 129.6 37.0 Q 128.7 38.1, 128.7 40.3 Q 128.7 42.6, 129.6 43.7 Q 130.5 44.9, 132.3 44.9 " fill="#FF0000"/>
<path class="atom-7" d="M 139.2 34.7 L 140.7 34.7 L 140.7 39.5 L 146.5 39.5 L 146.5 34.7 L 148.0 34.7 L 148.0 46.0 L 146.5 46.0 L 146.5 40.8 L 140.7 40.8 L 140.7 46.0 L 139.2 46.0 L 139.2 34.7 " fill="#FF0000"/>
<path class="atom-12" d="M 58.2 159.6 Q 58.2 156.9, 59.6 155.4 Q 60.9 153.8, 63.4 153.8 Q 65.9 153.8, 67.2 155.4 Q 68.6 156.9, 68.6 159.6 Q 68.6 162.3, 67.2 163.9 Q 65.9 165.4, 63.4 165.4 Q 60.9 165.4, 59.6 163.9 Q 58.2 162.3, 58.2 159.6 M 63.4 164.1 Q 65.1 164.1, 66.0 163.0 Q 67.0 161.8, 67.0 159.6 Q 67.0 157.4, 66.0 156.2 Q 65.1 155.1, 63.4 155.1 Q 61.7 155.1, 60.8 156.2 Q 59.8 157.3, 59.8 159.6 Q 59.8 161.8, 60.8 163.0 Q 61.7 164.1, 63.4 164.1 " fill="#FF0000"/>
<path class="atom-12" d="M 70.3 154.0 L 71.9 154.0 L 71.9 158.8 L 77.6 158.8 L 77.6 154.0 L 79.1 154.0 L 79.1 165.2 L 77.6 165.2 L 77.6 160.0 L 71.9 160.0 L 71.9 165.2 L 70.3 165.2 L 70.3 154.0 " fill="#FF0000"/>
<path class="atom-13" d="M 12.7 94.3 L 14.2 94.3 L 14.2 99.1 L 20.0 99.1 L 20.0 94.3 L 21.5 94.3 L 21.5 105.6 L 20.0 105.6 L 20.0 100.4 L 14.2 100.4 L 14.2 105.6 L 12.7 105.6 L 12.7 94.3 " fill="#FF0000"/>
<path class="atom-13" d="M 23.8 99.9 Q 23.8 97.2, 25.2 95.7 Q 26.5 94.2, 29.0 94.2 Q 31.5 94.2, 32.8 95.7 Q 34.2 97.2, 34.2 99.9 Q 34.2 102.7, 32.8 104.2 Q 31.4 105.8, 29.0 105.8 Q 26.5 105.8, 25.2 104.2 Q 23.8 102.7, 23.8 99.9 M 29.0 104.5 Q 30.7 104.5, 31.6 103.4 Q 32.6 102.2, 32.6 99.9 Q 32.6 97.7, 31.6 96.6 Q 30.7 95.5, 29.0 95.5 Q 27.3 95.5, 26.3 96.6 Q 25.4 97.7, 25.4 99.9 Q 25.4 102.2, 26.3 103.4 Q 27.3 104.5, 29.0 104.5 " fill="#FF0000"/>
</g>
  </g>
</svg>
