<?xml version='1.0' encoding='ASCII' standalone='yes'?>
<svg xmlns="http://www.w3.org/2000/svg" xmlns:xlink="http://www.w3.org/1999/xlink" version="1.1" width="915.0px" viewBox="0 0 915.0 200.0" height="200.0px">
  <g>
    <g transform="translate(0, 0) scale(1 1) "><!-- END OF HEADER -->
<rect style="opacity:1.0;fill:#FFFFFF;stroke:none" width="280.0" height="200.0" x="0.0" y="0.0"> </rect>
<path class="bond-0 atom-0 atom-1" d="M 236.9,67.5 L 220.6,98.1" style="fill:none;fill-rule:evenodd;stroke:#000000;stroke-width:2.0px;stroke-linecap:butt;stroke-linejoin:miter;stroke-opacity:1"/>
<path class="bond-1 atom-1 atom-2" d="M 220.6,98.1 L 204.3,128.6" style="fill:none;fill-rule:evenodd;stroke:#000000;stroke-width:2.0px;stroke-linecap:butt;stroke-linejoin:miter;stroke-opacity:1"/>
<path class="bond-2 atom-1 atom-3" d="M 220.6,98.1 L 251.1,114.4" style="fill:none;fill-rule:evenodd;stroke:#000000;stroke-width:2.0px;stroke-linecap:butt;stroke-linejoin:miter;stroke-opacity:1"/>
<path class="bond-3 atom-3 atom-4" d="M 251.1,114.4 L 251.6,128.7" style="fill:none;fill-rule:evenodd;stroke:#000000;stroke-width:2.0px;stroke-linecap:butt;stroke-linejoin:miter;stroke-opacity:1"/>
<path class="bond-3 atom-3 atom-4" d="M 251.6,128.7 L 252.1,142.9" style="fill:none;fill-rule:evenodd;stroke:#FF0000;stroke-width:2.0px;stroke-linecap:butt;stroke-linejoin:miter;stroke-opacity:1"/>
<path class="bond-4 atom-1 atom-5" d="M 220.6,98.1 L 190.0,81.8" style="fill:none;fill-rule:evenodd;stroke:#000000;stroke-width:2.0px;stroke-linecap:butt;stroke-linejoin:miter;stroke-opacity:1"/>
<path class="bond-5 atom-5 atom-6" d="M 190.0,81.8 L 160.6,100.1" style="fill:none;fill-rule:evenodd;stroke:#000000;stroke-width:2.0px;stroke-linecap:butt;stroke-linejoin:miter;stroke-opacity:1"/>
<path class="bond-6 atom-6 atom-7" d="M 160.6,100.1 L 161.1,114.4" style="fill:none;fill-rule:evenodd;stroke:#000000;stroke-width:2.0px;stroke-linecap:butt;stroke-linejoin:miter;stroke-opacity:1"/>
<path class="bond-6 atom-6 atom-7" d="M 161.1,114.4 L 161.6,128.7" style="fill:none;fill-rule:evenodd;stroke:#FF0000;stroke-width:2.0px;stroke-linecap:butt;stroke-linejoin:miter;stroke-opacity:1"/>
<path class="bond-7 atom-6 atom-8" d="M 160.6,100.1 L 130.0,83.8" style="fill:none;fill-rule:evenodd;stroke:#000000;stroke-width:2.0px;stroke-linecap:butt;stroke-linejoin:miter;stroke-opacity:1"/>
<path class="bond-8 atom-8 atom-9" d="M 130.0,83.8 L 146.3,53.2" style="fill:none;fill-rule:evenodd;stroke:#000000;stroke-width:2.0px;stroke-linecap:butt;stroke-linejoin:miter;stroke-opacity:1"/>
<path class="bond-9 atom-8 atom-10" d="M 130.0,83.8 L 113.7,114.3" style="fill:none;fill-rule:evenodd;stroke:#000000;stroke-width:2.0px;stroke-linecap:butt;stroke-linejoin:miter;stroke-opacity:1"/>
<path class="bond-10 atom-10 atom-11" d="M 113.7,114.3 L 79.1,115.5" style="fill:none;fill-rule:evenodd;stroke:#000000;stroke-width:2.0px;stroke-linecap:butt;stroke-linejoin:miter;stroke-opacity:1"/>
<path class="bond-11 atom-11 atom-12" d="M 79.1,115.5 L 80.3,150.1" style="fill:none;fill-rule:evenodd;stroke:#000000;stroke-width:2.0px;stroke-linecap:butt;stroke-linejoin:miter;stroke-opacity:1"/>
<path class="bond-12 atom-11 atom-13" d="M 79.1,115.5 L 75.9,95.3" style="fill:none;fill-rule:evenodd;stroke:#000000;stroke-width:2.0px;stroke-linecap:butt;stroke-linejoin:miter;stroke-opacity:1"/>
<path class="bond-13 atom-11 atom-14" d="M 79.1,115.5 L 44.5,116.7" style="fill:none;fill-rule:evenodd;stroke:#000000;stroke-width:2.0px;stroke-linecap:butt;stroke-linejoin:miter;stroke-opacity:1"/>
<path class="bond-14 atom-14 atom-15" d="M 44.5,116.7 L 38.0,128.9" style="fill:none;fill-rule:evenodd;stroke:#000000;stroke-width:2.0px;stroke-linecap:butt;stroke-linejoin:miter;stroke-opacity:1"/>
<path class="bond-14 atom-14 atom-15" d="M 38.0,128.9 L 31.4,141.2" style="fill:none;fill-rule:evenodd;stroke:#FF0000;stroke-width:2.0px;stroke-linecap:butt;stroke-linejoin:miter;stroke-opacity:1"/>
<path class="bond-15 atom-8 atom-16" d="M 130.0,83.8 L 99.5,67.5" style="fill:none;fill-rule:evenodd;stroke:#000000;stroke-width:2.0px;stroke-linecap:butt;stroke-linejoin:miter;stroke-opacity:1"/>
<path class="bond-16 atom-16 atom-17" d="M 102.0,68.8 L 101.5,53.9" style="fill:none;fill-rule:evenodd;stroke:#000000;stroke-width:2.0px;stroke-linecap:butt;stroke-linejoin:miter;stroke-opacity:1"/>
<path class="bond-16 atom-16 atom-17" d="M 101.5,53.9 L 101.0,39.0" style="fill:none;fill-rule:evenodd;stroke:#FF0000;stroke-width:2.0px;stroke-linecap:butt;stroke-linejoin:miter;stroke-opacity:1"/>
<path class="bond-16 atom-16 atom-17" d="M 97.0,68.6 L 96.5,54.1" style="fill:none;fill-rule:evenodd;stroke:#000000;stroke-width:2.0px;stroke-linecap:butt;stroke-linejoin:miter;stroke-opacity:1"/>
<path class="bond-16 atom-16 atom-17" d="M 96.5,54.1 L 96.0,39.1" style="fill:none;fill-rule:evenodd;stroke:#FF0000;stroke-width:2.0px;stroke-linecap:butt;stroke-linejoin:miter;stroke-opacity:1"/>
<path class="bond-17 atom-16 atom-18" d="M 99.5,67.5 L 93.0,70.5" style="fill:none;fill-rule:evenodd;stroke:#000000;stroke-width:2.0px;stroke-linecap:butt;stroke-linejoin:miter;stroke-opacity:1"/>
<path class="bond-17 atom-16 atom-18" d="M 93.0,70.5 L 86.5,73.5" style="fill:none;fill-rule:evenodd;stroke:#FF0000;stroke-width:2.0px;stroke-linecap:butt;stroke-linejoin:miter;stroke-opacity:1"/>
<path d="M 249.6,113.6 L 251.1,114.4 L 251.2,115.1" style="fill:none;stroke:#000000;stroke-width:2.0px;stroke-linecap:butt;stroke-linejoin:miter;stroke-opacity:1;"/>
<path d="M 191.5,82.6 L 190.0,81.8 L 188.5,82.7" style="fill:none;stroke:#000000;stroke-width:2.0px;stroke-linecap:butt;stroke-linejoin:miter;stroke-opacity:1;"/>
<path d="M 114.6,112.8 L 113.7,114.3 L 112.0,114.4" style="fill:none;stroke:#000000;stroke-width:2.0px;stroke-linecap:butt;stroke-linejoin:miter;stroke-opacity:1;"/>
<path d="M 46.2,116.6 L 44.5,116.7 L 44.2,117.3" style="fill:none;stroke:#000000;stroke-width:2.0px;stroke-linecap:butt;stroke-linejoin:miter;stroke-opacity:1;"/>
<path d="M 101.0,68.3 L 99.5,67.5 L 99.2,67.6" style="fill:none;stroke:#000000;stroke-width:2.0px;stroke-linecap:butt;stroke-linejoin:miter;stroke-opacity:1;"/>
<path class="atom-4" d="M 247.8 149.0 Q 247.8 146.7, 249.0 145.4 Q 250.1 144.0, 252.3 144.0 Q 254.5 144.0, 255.6 145.4 Q 256.8 146.7, 256.8 149.0 Q 256.8 151.4, 255.6 152.8 Q 254.4 154.1, 252.3 154.1 Q 250.1 154.1, 249.0 152.8 Q 247.8 151.4, 247.8 149.0 M 252.3 153.0 Q 253.8 153.0, 254.6 152.0 Q 255.4 151.0, 255.4 149.0 Q 255.4 147.1, 254.6 146.1 Q 253.8 145.1, 252.3 145.1 Q 250.8 145.1, 250.0 146.1 Q 249.2 147.1, 249.2 149.0 Q 249.2 151.0, 250.0 152.0 Q 250.8 153.0, 252.3 153.0 " fill="#FF0000"/>
<path class="atom-4" d="M 258.3 144.1 L 259.7 144.1 L 259.7 148.3 L 264.7 148.3 L 264.7 144.1 L 266.0 144.1 L 266.0 154.0 L 264.7 154.0 L 264.7 149.4 L 259.7 149.4 L 259.7 154.0 L 258.3 154.0 L 258.3 144.1 " fill="#FF0000"/>
<path class="atom-7" d="M 157.3 134.7 Q 157.3 132.4, 158.4 131.1 Q 159.6 129.7, 161.8 129.7 Q 163.9 129.7, 165.1 131.1 Q 166.3 132.4, 166.3 134.7 Q 166.3 137.1, 165.1 138.5 Q 163.9 139.8, 161.8 139.8 Q 159.6 139.8, 158.4 138.5 Q 157.3 137.1, 157.3 134.7 M 161.8 138.7 Q 163.3 138.7, 164.1 137.7 Q 164.9 136.7, 164.9 134.7 Q 164.9 132.8, 164.1 131.8 Q 163.3 130.9, 161.8 130.9 Q 160.3 130.9, 159.5 131.8 Q 158.6 132.8, 158.6 134.7 Q 158.6 136.7, 159.5 137.7 Q 160.3 138.7, 161.8 138.7 " fill="#FF0000"/>
<path class="atom-7" d="M 167.8 129.9 L 169.1 129.9 L 169.1 134.0 L 174.1 134.0 L 174.1 129.9 L 175.5 129.9 L 175.5 139.7 L 174.1 139.7 L 174.1 135.1 L 169.1 135.1 L 169.1 139.7 L 167.8 139.7 L 167.8 129.9 " fill="#FF0000"/>
<path class="atom-15" d="M 14.0 142.4 L 15.3 142.4 L 15.3 146.5 L 20.3 146.5 L 20.3 142.4 L 21.7 142.4 L 21.7 152.2 L 20.3 152.2 L 20.3 147.7 L 15.3 147.7 L 15.3 152.2 L 14.0 152.2 L 14.0 142.4 " fill="#FF0000"/>
<path class="atom-15" d="M 23.7 147.3 Q 23.7 144.9, 24.9 143.6 Q 26.0 142.3, 28.2 142.3 Q 30.4 142.3, 31.5 143.6 Q 32.7 144.9, 32.7 147.3 Q 32.7 149.6, 31.5 151.0 Q 30.3 152.3, 28.2 152.3 Q 26.0 152.3, 24.9 151.0 Q 23.7 149.6, 23.7 147.3 M 28.2 151.2 Q 29.7 151.2, 30.5 150.2 Q 31.3 149.2, 31.3 147.3 Q 31.3 145.3, 30.5 144.4 Q 29.7 143.4, 28.2 143.4 Q 26.7 143.4, 25.9 144.3 Q 25.1 145.3, 25.1 147.3 Q 25.1 149.2, 25.9 150.2 Q 26.7 151.2, 28.2 151.2 " fill="#FF0000"/>
<path class="atom-17" d="M 93.8 32.9 Q 93.8 30.5, 95.0 29.2 Q 96.1 27.9, 98.3 27.9 Q 100.5 27.9, 101.7 29.2 Q 102.8 30.5, 102.8 32.9 Q 102.8 35.3, 101.6 36.6 Q 100.5 38.0, 98.3 38.0 Q 96.2 38.0, 95.0 36.6 Q 93.8 35.3, 93.8 32.9 M 98.3 36.9 Q 99.8 36.9, 100.6 35.9 Q 101.4 34.8, 101.4 32.9 Q 101.4 31.0, 100.6 30.0 Q 99.8 29.0, 98.3 29.0 Q 96.8 29.0, 96.0 30.0 Q 95.2 30.9, 95.2 32.9 Q 95.2 34.9, 96.0 35.9 Q 96.8 36.9, 98.3 36.9 " fill="#FF0000"/>
<path class="atom-18" d="M 66.7 71.2 L 68.1 71.2 L 68.1 75.4 L 73.1 75.4 L 73.1 71.2 L 74.4 71.2 L 74.4 81.1 L 73.1 81.1 L 73.1 76.5 L 68.1 76.5 L 68.1 81.1 L 66.7 81.1 L 66.7 71.2 " fill="#FF0000"/>
<path class="atom-18" d="M 76.4 76.1 Q 76.4 73.8, 77.6 72.4 Q 78.8 71.1, 80.9 71.1 Q 83.1 71.1, 84.3 72.4 Q 85.4 73.8, 85.4 76.1 Q 85.4 78.5, 84.3 79.9 Q 83.1 81.2, 80.9 81.2 Q 78.8 81.2, 77.6 79.9 Q 76.4 78.5, 76.4 76.1 M 80.9 80.1 Q 82.4 80.1, 83.2 79.1 Q 84.0 78.1, 84.0 76.1 Q 84.0 74.2, 83.2 73.2 Q 82.4 72.2, 80.9 72.2 Q 79.4 72.2, 78.6 73.2 Q 77.8 74.2, 77.8 76.1 Q 77.8 78.1, 78.6 79.1 Q 79.4 80.1, 80.9 80.1 " fill="#FF0000"/>
<path class="legend" d="M 131.5 181.9 Q 131.5 179.6, 132.2 177.7 Q 132.8 175.8, 134.1 173.8 L 135.0 174.4 Q 134.0 176.3, 133.4 178.0 Q 132.9 179.7, 132.9 181.9 Q 132.9 184.0, 133.4 185.8 Q 134.0 187.5, 135.0 189.4 L 134.1 190.0 Q 132.8 188.0, 132.2 186.1 Q 131.5 184.2, 131.5 181.9 " fill="#000000"/>
<path class="legend" d="M 135.9 177.3 Q 136.4 176.2, 137.3 175.6 Q 138.3 175.0, 139.7 175.0 Q 141.4 175.0, 142.4 175.9 Q 143.3 176.8, 143.3 178.5 Q 143.3 180.2, 142.1 181.7 Q 140.9 183.3, 138.3 185.2 L 143.5 185.2 L 143.5 186.4 L 135.9 186.4 L 135.9 185.4 Q 138.0 183.9, 139.3 182.8 Q 140.5 181.6, 141.1 180.6 Q 141.7 179.6, 141.7 178.6 Q 141.7 177.5, 141.2 176.9 Q 140.7 176.3, 139.7 176.3 Q 138.8 176.3, 138.2 176.6 Q 137.6 177.0, 137.2 177.8 L 135.9 177.3 " fill="#000000"/>
<path class="legend" d="M 148.5 181.9 Q 148.5 184.2, 147.8 186.1 Q 147.2 188.0, 145.9 190.0 L 145.0 189.4 Q 146.0 187.5, 146.5 185.8 Q 147.1 184.0, 147.1 181.9 Q 147.1 179.7, 146.5 178.0 Q 146.0 176.3, 145.0 174.4 L 145.9 173.8 Q 147.2 175.8, 147.8 177.7 Q 148.5 179.6, 148.5 181.9 " fill="#000000"/>
</g>
    <g transform="translate(280.0, 0) scale(1 1) "><line x1="5" y1="100" x2="35" y2="100" style="stroke:rgb(0,0,0);stroke-width:2"/>
  <line x1="34" y1="100" x2="29" y2="95" style="stroke:rgb(0,0,0);stroke-width:2"/>
  <line x1="34" y1="100" x2="29" y2="105" style="stroke:rgb(0,0,0);stroke-width:2"/>
</g>
    <g transform="translate(320.0, 0) scale(1 1) "><!-- END OF HEADER -->
<rect style="opacity:1.0;fill:#FFFFFF;stroke:none" width="301.0" height="200.0" x="0.0" y="0.0"> </rect>
<path class="bond-0 atom-0 atom-1" d="M 177.7,36.3 L 195.9,49.4" style="fill:none;fill-rule:evenodd;stroke:#000000;stroke-width:2.0px;stroke-linecap:butt;stroke-linejoin:miter;stroke-opacity:1"/>
<path class="bond-1 atom-1 atom-2" d="M 195.9,49.4 L 229.0,67.6" style="fill:none;fill-rule:evenodd;stroke:#000000;stroke-width:2.0px;stroke-linecap:butt;stroke-linejoin:miter;stroke-opacity:1"/>
<path class="bond-2 atom-1 atom-3" d="M 195.9,49.4 L 214.1,16.2" style="fill:none;fill-rule:evenodd;stroke:#000000;stroke-width:2.0px;stroke-linecap:butt;stroke-linejoin:miter;stroke-opacity:1"/>
<path class="bond-3 atom-3 atom-4" d="M 214.1,16.2 L 230.0,15.9" style="fill:none;fill-rule:evenodd;stroke:#000000;stroke-width:2.0px;stroke-linecap:butt;stroke-linejoin:miter;stroke-opacity:1"/>
<path class="bond-3 atom-3 atom-4" d="M 230.0,15.9 L 245.9,15.5" style="fill:none;fill-rule:evenodd;stroke:#FF0000;stroke-width:2.0px;stroke-linecap:butt;stroke-linejoin:miter;stroke-opacity:1"/>
<path class="bond-4 atom-1 atom-5" d="M 195.9,49.4 L 177.6,82.5" style="fill:none;fill-rule:evenodd;stroke:#000000;stroke-width:2.0px;stroke-linecap:butt;stroke-linejoin:miter;stroke-opacity:1"/>
<path class="bond-5 atom-5 atom-6" d="M 177.6,82.5 L 139.8,83.3" style="fill:none;fill-rule:evenodd;stroke:#000000;stroke-width:2.0px;stroke-linecap:butt;stroke-linejoin:miter;stroke-opacity:1"/>
<path class="bond-6 atom-6 atom-7" d="M 139.8,83.3 L 112.3,80.5" style="fill:none;fill-rule:evenodd;stroke:#000000;stroke-width:2.0px;stroke-linecap:butt;stroke-linejoin:miter;stroke-opacity:1"/>
<path class="bond-7 atom-6 atom-8" d="M 139.8,83.3 L 139.0,45.4" style="fill:none;fill-rule:evenodd;stroke:#000000;stroke-width:2.0px;stroke-linecap:butt;stroke-linejoin:miter;stroke-opacity:1"/>
<path class="bond-8 atom-8 atom-9" d="M 141.3,43.6 L 127.2,35.9" style="fill:none;fill-rule:evenodd;stroke:#000000;stroke-width:2.0px;stroke-linecap:butt;stroke-linejoin:miter;stroke-opacity:1"/>
<path class="bond-8 atom-8 atom-9" d="M 127.2,35.9 L 113.2,28.2" style="fill:none;fill-rule:evenodd;stroke:#FF0000;stroke-width:2.0px;stroke-linecap:butt;stroke-linejoin:miter;stroke-opacity:1"/>
<path class="bond-8 atom-8 atom-9" d="M 139.0,48.5 L 124.7,40.6" style="fill:none;fill-rule:evenodd;stroke:#000000;stroke-width:2.0px;stroke-linecap:butt;stroke-linejoin:miter;stroke-opacity:1"/>
<path class="bond-8 atom-8 atom-9" d="M 124.7,40.6 L 110.6,32.9" style="fill:none;fill-rule:evenodd;stroke:#FF0000;stroke-width:2.0px;stroke-linecap:butt;stroke-linejoin:miter;stroke-opacity:1"/>
<path class="bond-9 atom-8 atom-10" d="M 139.0,45.4 L 144.7,40.9" style="fill:none;fill-rule:evenodd;stroke:#000000;stroke-width:2.0px;stroke-linecap:butt;stroke-linejoin:miter;stroke-opacity:1"/>
<path class="bond-9 atom-8 atom-10" d="M 144.7,40.9 L 150.5,36.4" style="fill:none;fill-rule:evenodd;stroke:#FF0000;stroke-width:2.0px;stroke-linecap:butt;stroke-linejoin:miter;stroke-opacity:1"/>
<path class="bond-10 atom-6 atom-11" d="M 139.8,83.3 L 140.5,121.1" style="fill:none;fill-rule:evenodd;stroke:#000000;stroke-width:2.0px;stroke-linecap:butt;stroke-linejoin:miter;stroke-opacity:1"/>
<path class="bond-11 atom-11 atom-12" d="M 140.5,121.1 L 140.8,136.8" style="fill:none;fill-rule:evenodd;stroke:#000000;stroke-width:2.0px;stroke-linecap:butt;stroke-linejoin:miter;stroke-opacity:1"/>
<path class="bond-11 atom-11 atom-12" d="M 140.8,136.8 L 141.2,152.4" style="fill:none;fill-rule:evenodd;stroke:#FF0000;stroke-width:2.0px;stroke-linecap:butt;stroke-linejoin:miter;stroke-opacity:1"/>
<path class="bond-12 atom-11 atom-13" d="M 140.5,121.1 L 178.4,120.4" style="fill:none;fill-rule:evenodd;stroke:#000000;stroke-width:2.0px;stroke-linecap:butt;stroke-linejoin:miter;stroke-opacity:1"/>
<path class="bond-13 atom-13 atom-14" d="M 178.4,120.4 L 198.0,152.8" style="fill:none;fill-rule:evenodd;stroke:#000000;stroke-width:2.0px;stroke-linecap:butt;stroke-linejoin:miter;stroke-opacity:1"/>
<path class="bond-14 atom-14 atom-15" d="M 198.0,152.8 L 230.4,133.2" style="fill:none;fill-rule:evenodd;stroke:#000000;stroke-width:2.0px;stroke-linecap:butt;stroke-linejoin:miter;stroke-opacity:1"/>
<path class="bond-15 atom-14 atom-16" d="M 198.0,152.8 L 165.6,172.4" style="fill:none;fill-rule:evenodd;stroke:#000000;stroke-width:2.0px;stroke-linecap:butt;stroke-linejoin:miter;stroke-opacity:1"/>
<path class="bond-16 atom-14 atom-17" d="M 198.0,152.8 L 217.6,185.2" style="fill:none;fill-rule:evenodd;stroke:#000000;stroke-width:2.0px;stroke-linecap:butt;stroke-linejoin:miter;stroke-opacity:1"/>
<path class="bond-17 atom-17 atom-18" d="M 217.6,185.2 L 233.4,184.9" style="fill:none;fill-rule:evenodd;stroke:#000000;stroke-width:2.0px;stroke-linecap:butt;stroke-linejoin:miter;stroke-opacity:1"/>
<path class="bond-17 atom-17 atom-18" d="M 233.4,184.9 L 249.3,184.5" style="fill:none;fill-rule:evenodd;stroke:#FF0000;stroke-width:2.0px;stroke-linecap:butt;stroke-linejoin:miter;stroke-opacity:1"/>
<path class="bond-18 atom-11 atom-19" d="M 140.5,121.1 L 102.7,121.9" style="fill:none;fill-rule:evenodd;stroke:#000000;stroke-width:2.0px;stroke-linecap:butt;stroke-linejoin:miter;stroke-opacity:1"/>
<path class="bond-19 atom-19 atom-20" d="M 102.7,121.9 L 103.4,159.8" style="fill:none;fill-rule:evenodd;stroke:#000000;stroke-width:2.0px;stroke-linecap:butt;stroke-linejoin:miter;stroke-opacity:1"/>
<path class="bond-20 atom-19 atom-21" d="M 102.7,121.9 L 98.7,94.6" style="fill:none;fill-rule:evenodd;stroke:#000000;stroke-width:2.0px;stroke-linecap:butt;stroke-linejoin:miter;stroke-opacity:1"/>
<path class="bond-21 atom-19 atom-22" d="M 102.7,121.9 L 64.8,122.7" style="fill:none;fill-rule:evenodd;stroke:#000000;stroke-width:2.0px;stroke-linecap:butt;stroke-linejoin:miter;stroke-opacity:1"/>
<path class="bond-22 atom-22 atom-23" d="M 64.8,122.7 L 57.1,109.9" style="fill:none;fill-rule:evenodd;stroke:#000000;stroke-width:2.0px;stroke-linecap:butt;stroke-linejoin:miter;stroke-opacity:1"/>
<path class="bond-22 atom-22 atom-23" d="M 57.1,109.9 L 49.3,97.0" style="fill:none;fill-rule:evenodd;stroke:#FF0000;stroke-width:2.0px;stroke-linecap:butt;stroke-linejoin:miter;stroke-opacity:1"/>
<path d="M 213.2,17.8 L 214.1,16.2 L 214.9,16.2" style="fill:none;stroke:#000000;stroke-width:2.0px;stroke-linecap:butt;stroke-linejoin:miter;stroke-opacity:1;"/>
<path d="M 178.5,80.9 L 177.6,82.5 L 175.7,82.6" style="fill:none;stroke:#000000;stroke-width:2.0px;stroke-linecap:butt;stroke-linejoin:miter;stroke-opacity:1;"/>
<path d="M 139.0,47.3 L 139.0,45.4 L 139.3,45.2" style="fill:none;stroke:#000000;stroke-width:2.0px;stroke-linecap:butt;stroke-linejoin:miter;stroke-opacity:1;"/>
<path d="M 176.5,120.4 L 178.4,120.4 L 179.4,122.0" style="fill:none;stroke:#000000;stroke-width:2.0px;stroke-linecap:butt;stroke-linejoin:miter;stroke-opacity:1;"/>
<path d="M 216.6,183.6 L 217.6,185.2 L 218.4,185.2" style="fill:none;stroke:#000000;stroke-width:2.0px;stroke-linecap:butt;stroke-linejoin:miter;stroke-opacity:1;"/>
<path d="M 66.7,122.6 L 64.8,122.7 L 64.4,122.0" style="fill:none;stroke:#000000;stroke-width:2.0px;stroke-linecap:butt;stroke-linejoin:miter;stroke-opacity:1;"/>
<path class="atom-4" d="M 247.1 15.5 Q 247.1 12.9, 248.3 11.4 Q 249.6 10.0, 252.0 10.0 Q 254.4 10.0, 255.6 11.4 Q 256.9 12.9, 256.9 15.5 Q 256.9 18.1, 255.6 19.5 Q 254.3 21.0, 252.0 21.0 Q 249.6 21.0, 248.3 19.5 Q 247.1 18.1, 247.1 15.5 M 252.0 19.8 Q 253.6 19.8, 254.5 18.7 Q 255.4 17.6, 255.4 15.5 Q 255.4 13.3, 254.5 12.3 Q 253.6 11.2, 252.0 11.2 Q 250.4 11.2, 249.5 12.3 Q 248.6 13.3, 248.6 15.5 Q 248.6 17.6, 249.5 18.7 Q 250.4 19.8, 252.0 19.8 " fill="#FF0000"/>
<path class="atom-4" d="M 258.6 10.1 L 260.0 10.1 L 260.0 14.7 L 265.5 14.7 L 265.5 10.1 L 267.0 10.1 L 267.0 20.8 L 265.5 20.8 L 265.5 15.9 L 260.0 15.9 L 260.0 20.8 L 258.6 20.8 L 258.6 10.1 " fill="#FF0000"/>
<path class="atom-9" d="M 100.9 27.2 Q 100.9 24.6, 102.2 23.2 Q 103.4 21.8, 105.8 21.8 Q 108.2 21.8, 109.5 23.2 Q 110.7 24.6, 110.7 27.2 Q 110.7 29.8, 109.5 31.3 Q 108.2 32.8, 105.8 32.8 Q 103.5 32.8, 102.2 31.3 Q 100.9 29.8, 100.9 27.2 M 105.8 31.5 Q 107.5 31.5, 108.3 30.5 Q 109.2 29.4, 109.2 27.2 Q 109.2 25.1, 108.3 24.0 Q 107.5 23.0, 105.8 23.0 Q 104.2 23.0, 103.3 24.0 Q 102.4 25.1, 102.4 27.2 Q 102.4 29.4, 103.3 30.5 Q 104.2 31.5, 105.8 31.5 " fill="#FF0000"/>
<path class="atom-10" d="M 151.6 31.7 Q 151.6 29.1, 152.9 27.6 Q 154.2 26.2, 156.6 26.2 Q 158.9 26.2, 160.2 27.6 Q 161.5 29.1, 161.5 31.7 Q 161.5 34.3, 160.2 35.7 Q 158.9 37.2, 156.6 37.2 Q 154.2 37.2, 152.9 35.7 Q 151.6 34.3, 151.6 31.7 M 156.6 36.0 Q 158.2 36.0, 159.1 34.9 Q 160.0 33.8, 160.0 31.7 Q 160.0 29.5, 159.1 28.5 Q 158.2 27.4, 156.6 27.4 Q 154.9 27.4, 154.0 28.5 Q 153.2 29.5, 153.2 31.7 Q 153.2 33.8, 154.0 34.9 Q 154.9 36.0, 156.6 36.0 " fill="#FF0000"/>
<path class="atom-10" d="M 163.2 26.3 L 164.6 26.3 L 164.6 30.9 L 170.1 30.9 L 170.1 26.3 L 171.5 26.3 L 171.5 37.0 L 170.1 37.0 L 170.1 32.1 L 164.6 32.1 L 164.6 37.0 L 163.2 37.0 L 163.2 26.3 " fill="#FF0000"/>
<path class="atom-12" d="M 136.4 159.0 Q 136.4 156.5, 137.6 155.0 Q 138.9 153.6, 141.3 153.6 Q 143.7 153.6, 144.9 155.0 Q 146.2 156.5, 146.2 159.0 Q 146.2 161.6, 144.9 163.1 Q 143.6 164.6, 141.3 164.6 Q 138.9 164.6, 137.6 163.1 Q 136.4 161.7, 136.4 159.0 M 141.3 163.4 Q 142.9 163.4, 143.8 162.3 Q 144.7 161.2, 144.7 159.0 Q 144.7 156.9, 143.8 155.9 Q 142.9 154.8, 141.3 154.8 Q 139.7 154.8, 138.8 155.9 Q 137.9 156.9, 137.9 159.0 Q 137.9 161.2, 138.8 162.3 Q 139.7 163.4, 141.3 163.4 " fill="#FF0000"/>
<path class="atom-12" d="M 147.9 153.7 L 149.3 153.7 L 149.3 158.3 L 154.8 158.3 L 154.8 153.7 L 156.3 153.7 L 156.3 164.4 L 154.8 164.4 L 154.8 159.5 L 149.3 159.5 L 149.3 164.4 L 147.9 164.4 L 147.9 153.7 " fill="#FF0000"/>
<path class="atom-18" d="M 250.5 184.4 Q 250.5 181.9, 251.8 180.4 Q 253.0 179.0, 255.4 179.0 Q 257.8 179.0, 259.1 180.4 Q 260.3 181.9, 260.3 184.4 Q 260.3 187.0, 259.0 188.5 Q 257.8 190.0, 255.4 190.0 Q 253.1 190.0, 251.8 188.5 Q 250.5 187.1, 250.5 184.4 M 255.4 188.8 Q 257.0 188.8, 257.9 187.7 Q 258.8 186.6, 258.8 184.4 Q 258.8 182.3, 257.9 181.3 Q 257.0 180.2, 255.4 180.2 Q 253.8 180.2, 252.9 181.3 Q 252.0 182.3, 252.0 184.4 Q 252.0 186.6, 252.9 187.7 Q 253.8 188.8, 255.4 188.8 " fill="#FF0000"/>
<path class="atom-18" d="M 262.0 179.1 L 263.5 179.1 L 263.5 183.7 L 268.9 183.7 L 268.9 179.1 L 270.4 179.1 L 270.4 189.8 L 268.9 189.8 L 268.9 184.9 L 263.5 184.9 L 263.5 189.8 L 262.0 189.8 L 262.0 179.1 " fill="#FF0000"/>
<path class="atom-23" d="M 29.7 85.0 L 31.2 85.0 L 31.2 89.5 L 36.6 89.5 L 36.6 85.0 L 38.1 85.0 L 38.1 95.7 L 36.6 95.7 L 36.6 90.8 L 31.2 90.8 L 31.2 95.7 L 29.7 95.7 L 29.7 85.0 " fill="#FF0000"/>
<path class="atom-23" d="M 40.3 90.3 Q 40.3 87.7, 41.6 86.3 Q 42.8 84.9, 45.2 84.9 Q 47.6 84.9, 48.9 86.3 Q 50.1 87.7, 50.1 90.3 Q 50.1 92.9, 48.9 94.4 Q 47.6 95.9, 45.2 95.9 Q 42.9 95.9, 41.6 94.4 Q 40.3 92.9, 40.3 90.3 M 45.2 94.7 Q 46.9 94.7, 47.7 93.6 Q 48.6 92.5, 48.6 90.3 Q 48.6 88.2, 47.7 87.1 Q 46.9 86.1, 45.2 86.1 Q 43.6 86.1, 42.7 87.1 Q 41.8 88.2, 41.8 90.3 Q 41.8 92.5, 42.7 93.6 Q 43.6 94.7, 45.2 94.7 " fill="#FF0000"/>
</g>
    <g transform="translate(621.0, 0) scale(1 1) "><line x1="15" y1="100" x2="25" y2="100" style="stroke:rgb(0,0,0);stroke-width:2"/>
  <line x1="20" y1="95" x2="20" y2="105" style="stroke:rgb(0,0,0);stroke-width:2"/>
</g>
    <g transform="translate(661.0, 0) scale(1 1) "><!-- END OF HEADER -->
<rect style="opacity:1.0;fill:#FFFFFF;stroke:none" width="254.0" height="200.0" x="0.0" y="0.0"> </rect>
<path class="bond-0 atom-0 atom-1" d="M 182.4,50.0 L 176.1,86.9" style="fill:none;fill-rule:evenodd;stroke:#000000;stroke-width:2.0px;stroke-linecap:butt;stroke-linejoin:miter;stroke-opacity:1"/>
<path class="bond-1 atom-1 atom-2" d="M 176.1,86.9 L 169.7,123.8" style="fill:none;fill-rule:evenodd;stroke:#000000;stroke-width:2.0px;stroke-linecap:butt;stroke-linejoin:miter;stroke-opacity:1"/>
<path class="bond-2 atom-1 atom-3" d="M 176.1,86.9 L 213.0,93.3" style="fill:none;fill-rule:evenodd;stroke:#000000;stroke-width:2.0px;stroke-linecap:butt;stroke-linejoin:miter;stroke-opacity:1"/>
<path class="bond-3 atom-3 atom-4" d="M 213.0,93.3 L 218.2,107.5" style="fill:none;fill-rule:evenodd;stroke:#000000;stroke-width:2.0px;stroke-linecap:butt;stroke-linejoin:miter;stroke-opacity:1"/>
<path class="bond-3 atom-3 atom-4" d="M 218.2,107.5 L 223.5,121.8" style="fill:none;fill-rule:evenodd;stroke:#FF0000;stroke-width:2.0px;stroke-linecap:butt;stroke-linejoin:miter;stroke-opacity:1"/>
<path class="bond-4 atom-1 atom-5" d="M 176.1,86.9 L 139.2,80.6" style="fill:none;fill-rule:evenodd;stroke:#000000;stroke-width:2.0px;stroke-linecap:butt;stroke-linejoin:miter;stroke-opacity:1"/>
<path class="bond-5 atom-5 atom-6" d="M 139.2,80.6 L 115.3,109.3" style="fill:none;fill-rule:evenodd;stroke:#000000;stroke-width:2.0px;stroke-linecap:butt;stroke-linejoin:miter;stroke-opacity:1"/>
<path class="bond-6 atom-6 atom-7" d="M 115.3,109.3 L 120.5,123.6" style="fill:none;fill-rule:evenodd;stroke:#000000;stroke-width:2.0px;stroke-linecap:butt;stroke-linejoin:miter;stroke-opacity:1"/>
<path class="bond-6 atom-6 atom-7" d="M 120.5,123.6 L 125.8,137.8" style="fill:none;fill-rule:evenodd;stroke:#FF0000;stroke-width:2.0px;stroke-linecap:butt;stroke-linejoin:miter;stroke-opacity:1"/>
<path class="bond-7 atom-6 atom-8" d="M 115.3,109.3 L 78.4,103.0" style="fill:none;fill-rule:evenodd;stroke:#000000;stroke-width:2.0px;stroke-linecap:butt;stroke-linejoin:miter;stroke-opacity:1"/>
<path class="bond-8 atom-8 atom-9" d="M 78.4,103.0 L 84.7,66.1" style="fill:none;fill-rule:evenodd;stroke:#000000;stroke-width:2.0px;stroke-linecap:butt;stroke-linejoin:miter;stroke-opacity:1"/>
<path class="bond-9 atom-8 atom-10" d="M 78.4,103.0 L 72.0,139.9" style="fill:none;fill-rule:evenodd;stroke:#000000;stroke-width:2.0px;stroke-linecap:butt;stroke-linejoin:miter;stroke-opacity:1"/>
<path class="bond-10 atom-8 atom-11" d="M 78.4,103.0 L 41.5,96.6" style="fill:none;fill-rule:evenodd;stroke:#000000;stroke-width:2.0px;stroke-linecap:butt;stroke-linejoin:miter;stroke-opacity:1"/>
<path class="bond-11 atom-11 atom-12" d="M 40.4,93.6 L 30.6,105.3" style="fill:none;fill-rule:evenodd;stroke:#000000;stroke-width:2.0px;stroke-linecap:butt;stroke-linejoin:miter;stroke-opacity:1"/>
<path class="bond-11 atom-11 atom-12" d="M 30.6,105.3 L 20.9,117.0" style="fill:none;fill-rule:evenodd;stroke:#FF0000;stroke-width:2.0px;stroke-linecap:butt;stroke-linejoin:miter;stroke-opacity:1"/>
<path class="bond-11 atom-11 atom-12" d="M 44.7,97.2 L 35.0,108.9" style="fill:none;fill-rule:evenodd;stroke:#000000;stroke-width:2.0px;stroke-linecap:butt;stroke-linejoin:miter;stroke-opacity:1"/>
<path class="bond-11 atom-11 atom-12" d="M 35.0,108.9 L 25.2,120.6" style="fill:none;fill-rule:evenodd;stroke:#FF0000;stroke-width:2.0px;stroke-linecap:butt;stroke-linejoin:miter;stroke-opacity:1"/>
<path class="bond-12 atom-11 atom-13" d="M 41.5,96.6 L 36.3,82.5" style="fill:none;fill-rule:evenodd;stroke:#000000;stroke-width:2.0px;stroke-linecap:butt;stroke-linejoin:miter;stroke-opacity:1"/>
<path class="bond-12 atom-11 atom-13" d="M 36.3,82.5 L 31.0,68.3" style="fill:none;fill-rule:evenodd;stroke:#FF0000;stroke-width:2.0px;stroke-linecap:butt;stroke-linejoin:miter;stroke-opacity:1"/>
<path d="M 211.1,92.9 L 213.0,93.3 L 213.2,94.0" style="fill:none;stroke:#000000;stroke-width:2.0px;stroke-linecap:butt;stroke-linejoin:miter;stroke-opacity:1;"/>
<path d="M 141.0,80.9 L 139.2,80.6 L 138.0,82.0" style="fill:none;stroke:#000000;stroke-width:2.0px;stroke-linecap:butt;stroke-linejoin:miter;stroke-opacity:1;"/>
<path d="M 43.3,97.0 L 41.5,96.6 L 41.2,95.9" style="fill:none;stroke:#000000;stroke-width:2.0px;stroke-linecap:butt;stroke-linejoin:miter;stroke-opacity:1;"/>
<path class="atom-4" d="M 221.0 128.4 Q 221.0 125.9, 222.3 124.4 Q 223.5 123.0, 225.9 123.0 Q 228.2 123.0, 229.5 124.4 Q 230.8 125.9, 230.8 128.4 Q 230.8 131.0, 229.5 132.4 Q 228.2 133.9, 225.9 133.9 Q 223.6 133.9, 222.3 132.4 Q 221.0 131.0, 221.0 128.4 M 225.9 132.7 Q 227.5 132.7, 228.4 131.6 Q 229.3 130.5, 229.3 128.4 Q 229.3 126.3, 228.4 125.3 Q 227.5 124.2, 225.9 124.2 Q 224.3 124.2, 223.4 125.3 Q 222.5 126.3, 222.5 128.4 Q 222.5 130.5, 223.4 131.6 Q 224.3 132.7, 225.9 132.7 " fill="#FF0000"/>
<path class="atom-4" d="M 232.4 123.1 L 233.8 123.1 L 233.8 127.6 L 239.3 127.6 L 239.3 123.1 L 240.7 123.1 L 240.7 133.7 L 239.3 133.7 L 239.3 128.8 L 233.8 128.8 L 233.8 133.7 L 232.4 133.7 L 232.4 123.1 " fill="#FF0000"/>
<path class="atom-7" d="M 123.3 144.5 Q 123.3 141.9, 124.6 140.5 Q 125.9 139.1, 128.2 139.1 Q 130.6 139.1, 131.8 140.5 Q 133.1 141.9, 133.1 144.5 Q 133.1 147.0, 131.8 148.5 Q 130.5 150.0, 128.2 150.0 Q 125.9 150.0, 124.6 148.5 Q 123.3 147.1, 123.3 144.5 M 128.2 148.8 Q 129.8 148.8, 130.7 147.7 Q 131.6 146.6, 131.6 144.5 Q 131.6 142.4, 130.7 141.3 Q 129.8 140.3, 128.2 140.3 Q 126.6 140.3, 125.7 141.3 Q 124.8 142.4, 124.8 144.5 Q 124.8 146.6, 125.7 147.7 Q 126.6 148.8, 128.2 148.8 " fill="#FF0000"/>
<path class="atom-7" d="M 134.7 139.2 L 136.2 139.2 L 136.2 143.7 L 141.6 143.7 L 141.6 139.2 L 143.0 139.2 L 143.0 149.8 L 141.6 149.8 L 141.6 144.9 L 136.2 144.9 L 136.2 149.8 L 134.7 149.8 L 134.7 139.2 " fill="#FF0000"/>
<path class="atom-12" d="M 12.7 125.4 Q 12.7 122.9, 14.0 121.5 Q 15.2 120.0, 17.6 120.0 Q 19.9 120.0, 21.2 121.5 Q 22.4 122.9, 22.4 125.4 Q 22.4 128.0, 21.2 129.5 Q 19.9 130.9, 17.6 130.9 Q 15.2 130.9, 14.0 129.5 Q 12.7 128.0, 12.7 125.4 M 17.6 129.7 Q 19.2 129.7, 20.0 128.6 Q 20.9 127.6, 20.9 125.4 Q 20.9 123.4, 20.0 122.3 Q 19.2 121.2, 17.6 121.2 Q 15.9 121.2, 15.1 122.3 Q 14.2 123.3, 14.2 125.4 Q 14.2 127.6, 15.1 128.6 Q 15.9 129.7, 17.6 129.7 " fill="#FF0000"/>
<path class="atom-13" d="M 13.2 56.3 L 14.7 56.3 L 14.7 60.8 L 20.1 60.8 L 20.1 56.3 L 21.5 56.3 L 21.5 66.9 L 20.1 66.9 L 20.1 62.0 L 14.7 62.0 L 14.7 66.9 L 13.2 66.9 L 13.2 56.3 " fill="#FF0000"/>
<path class="atom-13" d="M 23.7 61.6 Q 23.7 59.0, 25.0 57.6 Q 26.2 56.2, 28.6 56.2 Q 30.9 56.2, 32.2 57.6 Q 33.4 59.0, 33.4 61.6 Q 33.4 64.1, 32.2 65.6 Q 30.9 67.0, 28.6 67.0 Q 26.2 67.0, 25.0 65.6 Q 23.7 64.1, 23.7 61.6 M 28.6 65.9 Q 30.2 65.9, 31.0 64.8 Q 31.9 63.7, 31.9 61.6 Q 31.9 59.5, 31.0 58.4 Q 30.2 57.4, 28.6 57.4 Q 26.9 57.4, 26.1 58.4 Q 25.2 59.5, 25.2 61.6 Q 25.2 63.7, 26.1 64.8 Q 26.9 65.9, 28.6 65.9 " fill="#FF0000"/>
</g>
  </g>
</svg>
