<?xml version='1.0' encoding='ASCII' standalone='yes'?>
<svg xmlns="http://www.w3.org/2000/svg" xmlns:xlink="http://www.w3.org/1999/xlink" version="1.1" width="938.0px" viewBox="0 0 938.0 200.0" height="200.0px">
  <g>
    <g transform="translate(0, 0) scale(1 1) "><!-- END OF HEADER -->
<rect style="opacity:1.0;fill:#FFFFFF;stroke:none" width="304.0" height="200.0" x="0.0" y="0.0"> </rect>
<path class="bond-0 atom-0 atom-1" d="M 177.7,164.3 L 199.4,148.3" style="fill:none;fill-rule:evenodd;stroke:#000000;stroke-width:2.0px;stroke-linecap:butt;stroke-linejoin:miter;stroke-opacity:1"/>
<path class="bond-1 atom-1 atom-2" d="M 199.4,148.3 L 196.4,121.6" style="fill:none;fill-rule:evenodd;stroke:#000000;stroke-width:2.0px;stroke-linecap:butt;stroke-linejoin:miter;stroke-opacity:1"/>
<path class="bond-2 atom-2 atom-3" d="M 196.4,121.6 L 193.4,94.8" style="fill:none;fill-rule:evenodd;stroke:#000000;stroke-width:2.0px;stroke-linecap:butt;stroke-linejoin:miter;stroke-opacity:1"/>
<path class="bond-3 atom-2 atom-4" d="M 196.4,121.6 L 169.7,124.5" style="fill:none;fill-rule:evenodd;stroke:#000000;stroke-width:2.0px;stroke-linecap:butt;stroke-linejoin:miter;stroke-opacity:1"/>
<path class="bond-4 atom-4 atom-5" d="M 169.7,124.5 L 153.7,102.9" style="fill:none;fill-rule:evenodd;stroke:#000000;stroke-width:2.0px;stroke-linecap:butt;stroke-linejoin:miter;stroke-opacity:1"/>
<path class="bond-5 atom-5 atom-6" d="M 153.7,102.9 L 164.5,78.2" style="fill:none;fill-rule:evenodd;stroke:#000000;stroke-width:2.0px;stroke-linecap:butt;stroke-linejoin:miter;stroke-opacity:1"/>
<path class="bond-6 atom-6 atom-7" d="M 164.5,78.2 L 148.5,56.5" style="fill:none;fill-rule:evenodd;stroke:#000000;stroke-width:2.0px;stroke-linecap:butt;stroke-linejoin:miter;stroke-opacity:1"/>
<path class="bond-7 atom-7 atom-8" d="M 148.5,56.5 L 132.6,34.9" style="fill:none;fill-rule:evenodd;stroke:#000000;stroke-width:2.0px;stroke-linecap:butt;stroke-linejoin:miter;stroke-opacity:1"/>
<path class="bond-8 atom-7 atom-9" d="M 148.5,56.5 L 126.9,72.5" style="fill:none;fill-rule:evenodd;stroke:#000000;stroke-width:2.0px;stroke-linecap:butt;stroke-linejoin:miter;stroke-opacity:1"/>
<path class="bond-9 atom-9 atom-10" d="M 126.9,72.5 L 116.7,68.1" style="fill:none;fill-rule:evenodd;stroke:#000000;stroke-width:2.0px;stroke-linecap:butt;stroke-linejoin:miter;stroke-opacity:1"/>
<path class="bond-9 atom-9 atom-10" d="M 116.7,68.1 L 106.6,63.6" style="fill:none;fill-rule:evenodd;stroke:#FF0000;stroke-width:2.0px;stroke-linecap:butt;stroke-linejoin:miter;stroke-opacity:1"/>
<path class="bond-10 atom-7 atom-11" d="M 148.5,56.5 L 170.2,40.6" style="fill:none;fill-rule:evenodd;stroke:#000000;stroke-width:2.0px;stroke-linecap:butt;stroke-linejoin:miter;stroke-opacity:1"/>
<path class="bond-11 atom-11 atom-12" d="M 168.3,42.0 L 179.0,46.6" style="fill:none;fill-rule:evenodd;stroke:#000000;stroke-width:2.0px;stroke-linecap:butt;stroke-linejoin:miter;stroke-opacity:1"/>
<path class="bond-11 atom-11 atom-12" d="M 179.0,46.6 L 189.7,51.3" style="fill:none;fill-rule:evenodd;stroke:#FF0000;stroke-width:2.0px;stroke-linecap:butt;stroke-linejoin:miter;stroke-opacity:1"/>
<path class="bond-11 atom-11 atom-12" d="M 170.0,38.3 L 180.6,42.9" style="fill:none;fill-rule:evenodd;stroke:#000000;stroke-width:2.0px;stroke-linecap:butt;stroke-linejoin:miter;stroke-opacity:1"/>
<path class="bond-11 atom-11 atom-12" d="M 180.6,42.9 L 191.3,47.6" style="fill:none;fill-rule:evenodd;stroke:#FF0000;stroke-width:2.0px;stroke-linecap:butt;stroke-linejoin:miter;stroke-opacity:1"/>
<path class="bond-12 atom-11 atom-13" d="M 170.2,40.6 L 169.0,29.7" style="fill:none;fill-rule:evenodd;stroke:#000000;stroke-width:2.0px;stroke-linecap:butt;stroke-linejoin:miter;stroke-opacity:1"/>
<path class="bond-12 atom-11 atom-13" d="M 169.0,29.7 L 167.8,18.7" style="fill:none;fill-rule:evenodd;stroke:#FF0000;stroke-width:2.0px;stroke-linecap:butt;stroke-linejoin:miter;stroke-opacity:1"/>
<path class="bond-13 atom-5 atom-14" d="M 153.7,102.9 L 127.0,105.8" style="fill:none;fill-rule:evenodd;stroke:#000000;stroke-width:2.0px;stroke-linecap:butt;stroke-linejoin:miter;stroke-opacity:1"/>
<path class="bond-14 atom-14 atom-15" d="M 127.0,105.8 L 116.2,130.5" style="fill:none;fill-rule:evenodd;stroke:#000000;stroke-width:2.0px;stroke-linecap:butt;stroke-linejoin:miter;stroke-opacity:1"/>
<path class="bond-15 atom-15 atom-16" d="M 116.2,130.5 L 105.4,155.1" style="fill:none;fill-rule:evenodd;stroke:#000000;stroke-width:2.0px;stroke-linecap:butt;stroke-linejoin:miter;stroke-opacity:1"/>
<path class="bond-16 atom-15 atom-17" d="M 116.2,130.5 L 140.8,141.3" style="fill:none;fill-rule:evenodd;stroke:#000000;stroke-width:2.0px;stroke-linecap:butt;stroke-linejoin:miter;stroke-opacity:1"/>
<path class="bond-17 atom-17 atom-18" d="M 140.8,141.3 L 142.0,152.3" style="fill:none;fill-rule:evenodd;stroke:#000000;stroke-width:2.0px;stroke-linecap:butt;stroke-linejoin:miter;stroke-opacity:1"/>
<path class="bond-17 atom-17 atom-18" d="M 142.0,152.3 L 143.3,163.3" style="fill:none;fill-rule:evenodd;stroke:#FF0000;stroke-width:2.0px;stroke-linecap:butt;stroke-linejoin:miter;stroke-opacity:1"/>
<path class="bond-18 atom-15 atom-19" d="M 116.2,130.5 L 91.5,119.7" style="fill:none;fill-rule:evenodd;stroke:#000000;stroke-width:2.0px;stroke-linecap:butt;stroke-linejoin:miter;stroke-opacity:1"/>
<path class="bond-19 atom-19 atom-20" d="M 93.7,120.6 L 92.4,109.1" style="fill:none;fill-rule:evenodd;stroke:#000000;stroke-width:2.0px;stroke-linecap:butt;stroke-linejoin:miter;stroke-opacity:1"/>
<path class="bond-19 atom-19 atom-20" d="M 92.4,109.1 L 91.1,97.6" style="fill:none;fill-rule:evenodd;stroke:#FF0000;stroke-width:2.0px;stroke-linecap:butt;stroke-linejoin:miter;stroke-opacity:1"/>
<path class="bond-19 atom-19 atom-20" d="M 89.6,121.1 L 88.4,109.6" style="fill:none;fill-rule:evenodd;stroke:#000000;stroke-width:2.0px;stroke-linecap:butt;stroke-linejoin:miter;stroke-opacity:1"/>
<path class="bond-19 atom-19 atom-20" d="M 88.4,109.6 L 87.1,98.0" style="fill:none;fill-rule:evenodd;stroke:#FF0000;stroke-width:2.0px;stroke-linecap:butt;stroke-linejoin:miter;stroke-opacity:1"/>
<path class="bond-20 atom-19 atom-21" d="M 91.5,119.7 L 82.9,126.1" style="fill:none;fill-rule:evenodd;stroke:#000000;stroke-width:2.0px;stroke-linecap:butt;stroke-linejoin:miter;stroke-opacity:1"/>
<path class="bond-20 atom-19 atom-21" d="M 82.9,126.1 L 74.2,132.4" style="fill:none;fill-rule:evenodd;stroke:#FF0000;stroke-width:2.0px;stroke-linecap:butt;stroke-linejoin:miter;stroke-opacity:1"/>
<path class="bond-21 atom-2 atom-22" d="M 196.4,121.6 L 223.1,118.6" style="fill:none;fill-rule:evenodd;stroke:#000000;stroke-width:2.0px;stroke-linecap:butt;stroke-linejoin:miter;stroke-opacity:1"/>
<path class="bond-22 atom-22 atom-23" d="M 220.8,118.8 L 227.4,127.8" style="fill:none;fill-rule:evenodd;stroke:#000000;stroke-width:2.0px;stroke-linecap:butt;stroke-linejoin:miter;stroke-opacity:1"/>
<path class="bond-22 atom-22 atom-23" d="M 227.4,127.8 L 234.0,136.7" style="fill:none;fill-rule:evenodd;stroke:#FF0000;stroke-width:2.0px;stroke-linecap:butt;stroke-linejoin:miter;stroke-opacity:1"/>
<path class="bond-22 atom-22 atom-23" d="M 224.1,116.4 L 230.6,125.4" style="fill:none;fill-rule:evenodd;stroke:#000000;stroke-width:2.0px;stroke-linecap:butt;stroke-linejoin:miter;stroke-opacity:1"/>
<path class="bond-22 atom-22 atom-23" d="M 230.6,125.4 L 237.2,134.3" style="fill:none;fill-rule:evenodd;stroke:#FF0000;stroke-width:2.0px;stroke-linecap:butt;stroke-linejoin:miter;stroke-opacity:1"/>
<path class="bond-23 atom-22 atom-24" d="M 223.1,118.6 L 227.5,108.7" style="fill:none;fill-rule:evenodd;stroke:#000000;stroke-width:2.0px;stroke-linecap:butt;stroke-linejoin:miter;stroke-opacity:1"/>
<path class="bond-23 atom-22 atom-24" d="M 227.5,108.7 L 231.8,98.8" style="fill:none;fill-rule:evenodd;stroke:#FF0000;stroke-width:2.0px;stroke-linecap:butt;stroke-linejoin:miter;stroke-opacity:1"/>
<path d="M 198.3,149.1 L 199.4,148.3 L 199.2,147.0" style="fill:none;stroke:#000000;stroke-width:2.0px;stroke-linecap:butt;stroke-linejoin:miter;stroke-opacity:1;"/>
<path d="M 171.0,124.4 L 169.7,124.5 L 168.9,123.5" style="fill:none;stroke:#000000;stroke-width:2.0px;stroke-linecap:butt;stroke-linejoin:miter;stroke-opacity:1;"/>
<path d="M 164.0,79.4 L 164.5,78.2 L 163.7,77.1" style="fill:none;stroke:#000000;stroke-width:2.0px;stroke-linecap:butt;stroke-linejoin:miter;stroke-opacity:1;"/>
<path d="M 128.0,71.7 L 126.9,72.5 L 126.4,72.3" style="fill:none;stroke:#000000;stroke-width:2.0px;stroke-linecap:butt;stroke-linejoin:miter;stroke-opacity:1;"/>
<path d="M 169.1,41.4 L 170.2,40.6 L 170.2,40.0" style="fill:none;stroke:#000000;stroke-width:2.0px;stroke-linecap:butt;stroke-linejoin:miter;stroke-opacity:1;"/>
<path d="M 128.3,105.7 L 127.0,105.8 L 126.4,107.1" style="fill:none;stroke:#000000;stroke-width:2.0px;stroke-linecap:butt;stroke-linejoin:miter;stroke-opacity:1;"/>
<path d="M 139.6,140.7 L 140.8,141.3 L 140.9,141.8" style="fill:none;stroke:#000000;stroke-width:2.0px;stroke-linecap:butt;stroke-linejoin:miter;stroke-opacity:1;"/>
<path d="M 92.7,120.2 L 91.5,119.7 L 91.1,120.0" style="fill:none;stroke:#000000;stroke-width:2.0px;stroke-linecap:butt;stroke-linejoin:miter;stroke-opacity:1;"/>
<path d="M 221.8,118.7 L 223.1,118.6 L 223.4,118.1" style="fill:none;stroke:#000000;stroke-width:2.0px;stroke-linecap:butt;stroke-linejoin:miter;stroke-opacity:1;"/>
<path class="atom-10" d="M 91.2 57.9 L 92.2 57.9 L 92.2 61.2 L 96.1 61.2 L 96.1 57.9 L 97.2 57.9 L 97.2 65.6 L 96.1 65.6 L 96.1 62.0 L 92.2 62.0 L 92.2 65.6 L 91.2 65.6 L 91.2 57.9 " fill="#FF0000"/>
<path class="atom-10" d="M 98.7 61.7 Q 98.7 59.9, 99.6 58.9 Q 100.5 57.9, 102.2 57.9 Q 103.9 57.9, 104.8 58.9 Q 105.7 59.9, 105.7 61.7 Q 105.7 63.6, 104.8 64.6 Q 103.9 65.7, 102.2 65.7 Q 100.5 65.7, 99.6 64.6 Q 98.7 63.6, 98.7 61.7 M 102.2 64.8 Q 103.4 64.8, 104.0 64.0 Q 104.6 63.3, 104.6 61.7 Q 104.6 60.2, 104.0 59.5 Q 103.4 58.7, 102.2 58.7 Q 101.1 58.7, 100.4 59.5 Q 99.8 60.2, 99.8 61.7 Q 99.8 63.3, 100.4 64.0 Q 101.1 64.8, 102.2 64.8 " fill="#FF0000"/>
<path class="atom-12" d="M 191.4 51.4 Q 191.4 49.6, 192.3 48.6 Q 193.2 47.5, 194.9 47.5 Q 196.6 47.5, 197.5 48.6 Q 198.4 49.6, 198.4 51.4 Q 198.4 53.3, 197.4 54.3 Q 196.5 55.4, 194.9 55.4 Q 193.2 55.4, 192.3 54.3 Q 191.4 53.3, 191.4 51.4 M 194.9 54.5 Q 196.0 54.5, 196.7 53.7 Q 197.3 52.9, 197.3 51.4 Q 197.3 49.9, 196.7 49.2 Q 196.0 48.4, 194.9 48.4 Q 193.7 48.4, 193.1 49.1 Q 192.4 49.9, 192.4 51.4 Q 192.4 52.9, 193.1 53.7 Q 193.7 54.5, 194.9 54.5 " fill="#FF0000"/>
<path class="atom-13" d="M 163.7 13.9 Q 163.7 12.0, 164.6 11.0 Q 165.5 10.0, 167.2 10.0 Q 168.9 10.0, 169.8 11.0 Q 170.7 12.0, 170.7 13.9 Q 170.7 15.7, 169.8 16.8 Q 168.9 17.8, 167.2 17.8 Q 165.6 17.8, 164.6 16.8 Q 163.7 15.7, 163.7 13.9 M 167.2 17.0 Q 168.4 17.0, 169.0 16.2 Q 169.7 15.4, 169.7 13.9 Q 169.7 12.4, 169.0 11.6 Q 168.4 10.9, 167.2 10.9 Q 166.1 10.9, 165.4 11.6 Q 164.8 12.4, 164.8 13.9 Q 164.8 15.4, 165.4 16.2 Q 166.1 17.0, 167.2 17.0 " fill="#FF0000"/>
<path class="atom-13" d="M 171.9 10.1 L 173.0 10.1 L 173.0 13.3 L 176.9 13.3 L 176.9 10.1 L 177.9 10.1 L 177.9 17.7 L 176.9 17.7 L 176.9 14.2 L 173.0 14.2 L 173.0 17.7 L 171.9 17.7 L 171.9 10.1 " fill="#FF0000"/>
<path class="atom-18" d="M 140.3 168.0 Q 140.3 166.2, 141.2 165.2 Q 142.1 164.2, 143.8 164.2 Q 145.5 164.2, 146.4 165.2 Q 147.3 166.2, 147.3 168.0 Q 147.3 169.9, 146.4 171.0 Q 145.5 172.0, 143.8 172.0 Q 142.1 172.0, 141.2 171.0 Q 140.3 169.9, 140.3 168.0 M 143.8 171.1 Q 145.0 171.1, 145.6 170.4 Q 146.2 169.6, 146.2 168.0 Q 146.2 166.6, 145.6 165.8 Q 145.0 165.0, 143.8 165.0 Q 142.6 165.0, 142.0 165.8 Q 141.4 166.5, 141.4 168.0 Q 141.4 169.6, 142.0 170.4 Q 142.6 171.1, 143.8 171.1 " fill="#FF0000"/>
<path class="atom-18" d="M 148.5 164.3 L 149.5 164.3 L 149.5 167.5 L 153.4 167.5 L 153.4 164.3 L 154.4 164.3 L 154.4 171.9 L 153.4 171.9 L 153.4 168.4 L 149.5 168.4 L 149.5 171.9 L 148.5 171.9 L 148.5 164.3 " fill="#FF0000"/>
<path class="atom-20" d="M 85.0 93.0 Q 85.0 91.1, 85.9 90.1 Q 86.8 89.1, 88.5 89.1 Q 90.2 89.1, 91.1 90.1 Q 92.0 91.1, 92.0 93.0 Q 92.0 94.8, 91.1 95.9 Q 90.2 96.9, 88.5 96.9 Q 86.9 96.9, 85.9 95.9 Q 85.0 94.8, 85.0 93.0 M 88.5 96.1 Q 89.7 96.1, 90.3 95.3 Q 91.0 94.5, 91.0 93.0 Q 91.0 91.5, 90.3 90.7 Q 89.7 90.0, 88.5 90.0 Q 87.4 90.0, 86.7 90.7 Q 86.1 91.5, 86.1 93.0 Q 86.1 94.5, 86.7 95.3 Q 87.4 96.1, 88.5 96.1 " fill="#FF0000"/>
<path class="atom-21" d="M 58.8 131.9 L 59.9 131.9 L 59.9 135.1 L 63.8 135.1 L 63.8 131.9 L 64.8 131.9 L 64.8 139.5 L 63.8 139.5 L 63.8 136.0 L 59.9 136.0 L 59.9 139.5 L 58.8 139.5 L 58.8 131.9 " fill="#FF0000"/>
<path class="atom-21" d="M 66.3 135.7 Q 66.3 133.8, 67.3 132.8 Q 68.2 131.8, 69.8 131.8 Q 71.5 131.8, 72.4 132.8 Q 73.3 133.8, 73.3 135.7 Q 73.3 137.5, 72.4 138.6 Q 71.5 139.6, 69.8 139.6 Q 68.2 139.6, 67.3 138.6 Q 66.3 137.5, 66.3 135.7 M 69.8 138.8 Q 71.0 138.8, 71.6 138.0 Q 72.3 137.2, 72.3 135.7 Q 72.3 134.2, 71.6 133.4 Q 71.0 132.7, 69.8 132.7 Q 68.7 132.7, 68.0 133.4 Q 67.4 134.2, 67.4 135.7 Q 67.4 137.2, 68.0 138.0 Q 68.7 138.8, 69.8 138.8 " fill="#FF0000"/>
<path class="atom-23" d="M 235.6 140.3 Q 235.6 138.4, 236.5 137.4 Q 237.4 136.4, 239.1 136.4 Q 240.8 136.4, 241.7 137.4 Q 242.6 138.4, 242.6 140.3 Q 242.6 142.1, 241.7 143.2 Q 240.8 144.2, 239.1 144.2 Q 237.4 144.2, 236.5 143.2 Q 235.6 142.1, 235.6 140.3 M 239.1 143.4 Q 240.3 143.4, 240.9 142.6 Q 241.5 141.8, 241.5 140.3 Q 241.5 138.8, 240.9 138.0 Q 240.3 137.3, 239.1 137.3 Q 237.9 137.3, 237.3 138.0 Q 236.7 138.8, 236.7 140.3 Q 236.7 141.8, 237.3 142.6 Q 237.9 143.4, 239.1 143.4 " fill="#FF0000"/>
<path class="atom-24" d="M 230.4 94.0 Q 230.4 92.1, 231.3 91.1 Q 232.2 90.1, 233.9 90.1 Q 235.6 90.1, 236.5 91.1 Q 237.4 92.1, 237.4 94.0 Q 237.4 95.8, 236.5 96.9 Q 235.6 97.9, 233.9 97.9 Q 232.3 97.9, 231.3 96.9 Q 230.4 95.8, 230.4 94.0 M 233.9 97.0 Q 235.1 97.0, 235.7 96.3 Q 236.4 95.5, 236.4 94.0 Q 236.4 92.5, 235.7 91.7 Q 235.1 90.9, 233.9 90.9 Q 232.8 90.9, 232.1 91.7 Q 231.5 92.4, 231.5 94.0 Q 231.5 95.5, 232.1 96.3 Q 232.8 97.0, 233.9 97.0 " fill="#FF0000"/>
<path class="atom-24" d="M 238.6 90.2 L 239.6 90.2 L 239.6 93.4 L 243.5 93.4 L 243.5 90.2 L 244.6 90.2 L 244.6 97.8 L 243.5 97.8 L 243.5 94.3 L 239.6 94.3 L 239.6 97.8 L 238.6 97.8 L 238.6 90.2 " fill="#FF0000"/>
<path class="legend" d="M 142.7 181.9 Q 142.7 179.6, 143.4 177.7 Q 144.0 175.8, 145.3 173.8 L 146.2 174.4 Q 145.2 176.3, 144.6 178.0 Q 144.1 179.7, 144.1 181.9 Q 144.1 184.0, 144.6 185.8 Q 145.2 187.5, 146.2 189.4 L 145.3 190.0 Q 144.0 188.0, 143.4 186.1 Q 142.7 184.2, 142.7 181.9 " fill="#000000"/>
<path class="legend" d="M 147.1 177.3 Q 147.6 176.2, 148.5 175.6 Q 149.5 175.0, 150.9 175.0 Q 152.6 175.0, 153.6 175.9 Q 154.5 176.8, 154.5 178.5 Q 154.5 180.2, 153.3 181.7 Q 152.1 183.3, 149.5 185.2 L 154.7 185.2 L 154.7 186.4 L 147.1 186.4 L 147.1 185.4 Q 149.2 183.9, 150.5 182.8 Q 151.7 181.6, 152.3 180.6 Q 152.9 179.6, 152.9 178.6 Q 152.9 177.5, 152.4 176.9 Q 151.9 176.3, 150.9 176.3 Q 150.0 176.3, 149.4 176.6 Q 148.8 177.0, 148.4 177.8 L 147.1 177.3 " fill="#000000"/>
<path class="legend" d="M 159.7 181.9 Q 159.7 184.2, 159.0 186.1 Q 158.4 188.0, 157.1 190.0 L 156.2 189.4 Q 157.2 187.5, 157.7 185.8 Q 158.3 184.0, 158.3 181.9 Q 158.3 179.7, 157.7 178.0 Q 157.2 176.3, 156.2 174.4 L 157.1 173.8 Q 158.4 175.8, 159.0 177.7 Q 159.7 179.6, 159.7 181.9 " fill="#000000"/>
</g>
    <g transform="translate(304.0, 0) scale(1 1) "><line x1="5" y1="100" x2="35" y2="100" style="stroke:rgb(0,0,0);stroke-width:2"/>
  <line x1="34" y1="100" x2="29" y2="95" style="stroke:rgb(0,0,0);stroke-width:2"/>
  <line x1="34" y1="100" x2="29" y2="105" style="stroke:rgb(0,0,0);stroke-width:2"/>
</g>
    <g transform="translate(344.0, 0) scale(1 1) "><!-- END OF HEADER -->
<rect style="opacity:1.0;fill:#FFFFFF;stroke:none" width="205.0" height="200.0" x="0.0" y="0.0"> </rect>
<path class="bond-0 atom-0 atom-1" d="M 122.6,44.3 L 108.8,89.2" style="fill:none;fill-rule:evenodd;stroke:#000000;stroke-width:2.0px;stroke-linecap:butt;stroke-linejoin:miter;stroke-opacity:1"/>
<path class="bond-1 atom-1 atom-2" d="M 108.8,89.2 L 95.0,134.1" style="fill:none;fill-rule:evenodd;stroke:#000000;stroke-width:2.0px;stroke-linecap:butt;stroke-linejoin:miter;stroke-opacity:1"/>
<path class="bond-2 atom-1 atom-3" d="M 108.8,89.2 L 63.9,75.4" style="fill:none;fill-rule:evenodd;stroke:#000000;stroke-width:2.0px;stroke-linecap:butt;stroke-linejoin:miter;stroke-opacity:1"/>
<path class="bond-3 atom-3 atom-4" d="M 63.9,75.4 L 50.5,87.9" style="fill:none;fill-rule:evenodd;stroke:#000000;stroke-width:2.0px;stroke-linecap:butt;stroke-linejoin:miter;stroke-opacity:1"/>
<path class="bond-3 atom-3 atom-4" d="M 50.5,87.9 L 37.2,100.3" style="fill:none;fill-rule:evenodd;stroke:#FF0000;stroke-width:2.0px;stroke-linecap:butt;stroke-linejoin:miter;stroke-opacity:1"/>
<path class="bond-4 atom-1 atom-5" d="M 108.8,89.2 L 153.7,103.0" style="fill:none;fill-rule:evenodd;stroke:#000000;stroke-width:2.0px;stroke-linecap:butt;stroke-linejoin:miter;stroke-opacity:1"/>
<path class="bond-5 atom-5 atom-6" d="M 154.7,107.0 L 168.8,93.8" style="fill:none;fill-rule:evenodd;stroke:#000000;stroke-width:2.0px;stroke-linecap:butt;stroke-linejoin:miter;stroke-opacity:1"/>
<path class="bond-5 atom-5 atom-6" d="M 168.8,93.8 L 182.9,80.7" style="fill:none;fill-rule:evenodd;stroke:#FF0000;stroke-width:2.0px;stroke-linecap:butt;stroke-linejoin:miter;stroke-opacity:1"/>
<path class="bond-5 atom-5 atom-6" d="M 149.9,101.8 L 164.0,88.7" style="fill:none;fill-rule:evenodd;stroke:#000000;stroke-width:2.0px;stroke-linecap:butt;stroke-linejoin:miter;stroke-opacity:1"/>
<path class="bond-5 atom-5 atom-6" d="M 164.0,88.7 L 178.1,75.5" style="fill:none;fill-rule:evenodd;stroke:#FF0000;stroke-width:2.0px;stroke-linecap:butt;stroke-linejoin:miter;stroke-opacity:1"/>
<path class="bond-6 atom-5 atom-7" d="M 153.7,103.0 L 158.0,121.7" style="fill:none;fill-rule:evenodd;stroke:#000000;stroke-width:2.0px;stroke-linecap:butt;stroke-linejoin:miter;stroke-opacity:1"/>
<path class="bond-6 atom-5 atom-7" d="M 158.0,121.7 L 162.4,140.5" style="fill:none;fill-rule:evenodd;stroke:#FF0000;stroke-width:2.0px;stroke-linecap:butt;stroke-linejoin:miter;stroke-opacity:1"/>
<path d="M 66.1,76.1 L 63.9,75.4 L 63.2,76.0" style="fill:none;stroke:#000000;stroke-width:2.0px;stroke-linecap:butt;stroke-linejoin:miter;stroke-opacity:1;"/>
<path d="M 151.5,102.3 L 153.7,103.0 L 154.0,103.9" style="fill:none;stroke:#000000;stroke-width:2.0px;stroke-linecap:butt;stroke-linejoin:miter;stroke-opacity:1;"/>
<path class="atom-4" d="M 10.2 100.8 L 12.1 100.8 L 12.1 106.5 L 18.9 106.5 L 18.9 100.8 L 20.7 100.8 L 20.7 114.1 L 18.9 114.1 L 18.9 108.0 L 12.1 108.0 L 12.1 114.1 L 10.2 114.1 L 10.2 100.8 " fill="#FF0000"/>
<path class="atom-4" d="M 23.4 107.5 Q 23.4 104.3, 25.0 102.5 Q 26.5 100.7, 29.5 100.7 Q 32.5 100.7, 34.0 102.5 Q 35.6 104.3, 35.6 107.5 Q 35.6 110.7, 34.0 112.5 Q 32.4 114.4, 29.5 114.4 Q 26.6 114.4, 25.0 112.5 Q 23.4 110.7, 23.4 107.5 M 29.5 112.9 Q 31.5 112.9, 32.6 111.5 Q 33.7 110.1, 33.7 107.5 Q 33.7 104.8, 32.6 103.5 Q 31.5 102.2, 29.5 102.2 Q 27.5 102.2, 26.4 103.5 Q 25.3 104.8, 25.3 107.5 Q 25.3 110.1, 26.4 111.5 Q 27.5 112.9, 29.5 112.9 " fill="#FF0000"/>
<path class="atom-6" d="M 182.0 71.0 Q 182.0 67.8, 183.6 66.0 Q 185.2 64.3, 188.1 64.3 Q 191.1 64.3, 192.7 66.0 Q 194.3 67.8, 194.3 71.0 Q 194.3 74.3, 192.7 76.1 Q 191.1 77.9, 188.1 77.9 Q 185.2 77.9, 183.6 76.1 Q 182.0 74.3, 182.0 71.0 M 188.1 76.4 Q 190.2 76.4, 191.3 75.1 Q 192.4 73.7, 192.4 71.0 Q 192.4 68.4, 191.3 67.1 Q 190.2 65.8, 188.1 65.8 Q 186.1 65.8, 185.0 67.1 Q 183.9 68.4, 183.9 71.0 Q 183.9 73.7, 185.0 75.1 Q 186.1 76.4, 188.1 76.4 " fill="#FF0000"/>
<path class="atom-7" d="M 158.2 148.8 Q 158.2 145.6, 159.7 143.8 Q 161.3 142.1, 164.3 142.1 Q 167.2 142.1, 168.8 143.8 Q 170.4 145.6, 170.4 148.8 Q 170.4 152.1, 168.8 153.9 Q 167.2 155.7, 164.3 155.7 Q 161.3 155.7, 159.7 153.9 Q 158.2 152.1, 158.2 148.8 M 164.3 154.2 Q 166.3 154.2, 167.4 152.9 Q 168.5 151.5, 168.5 148.8 Q 168.5 146.2, 167.4 144.9 Q 166.3 143.6, 164.3 143.6 Q 162.2 143.6, 161.1 144.9 Q 160.0 146.2, 160.0 148.8 Q 160.0 151.5, 161.1 152.9 Q 162.2 154.2, 164.3 154.2 " fill="#FF0000"/>
<path class="atom-7" d="M 172.4 142.2 L 174.2 142.2 L 174.2 147.9 L 181.0 147.9 L 181.0 142.2 L 182.9 142.2 L 182.9 155.5 L 181.0 155.5 L 181.0 149.4 L 174.2 149.4 L 174.2 155.5 L 172.4 155.5 L 172.4 142.2 " fill="#FF0000"/>
</g>
    <g transform="translate(549.0, 0) scale(1 1) "><line x1="15" y1="100" x2="25" y2="100" style="stroke:rgb(0,0,0);stroke-width:2"/>
  <line x1="20" y1="95" x2="20" y2="105" style="stroke:rgb(0,0,0);stroke-width:2"/>
</g>
    <g transform="translate(589.0, 0) scale(1 1) "><!-- END OF HEADER -->
<rect style="opacity:1.0;fill:#FFFFFF;stroke:none" width="349.0" height="200.0" x="0.0" y="0.0"> </rect>
<path class="bond-0 atom-0 atom-1" d="M 230.0,175.8 L 259.5,168.8" style="fill:none;fill-rule:evenodd;stroke:#000000;stroke-width:2.0px;stroke-linecap:butt;stroke-linejoin:miter;stroke-opacity:1"/>
<path class="bond-1 atom-1 atom-2" d="M 259.5,168.8 L 268.3,139.7" style="fill:none;fill-rule:evenodd;stroke:#000000;stroke-width:2.0px;stroke-linecap:butt;stroke-linejoin:miter;stroke-opacity:1"/>
<path class="bond-2 atom-2 atom-3" d="M 268.3,139.7 L 277.0,110.6" style="fill:none;fill-rule:evenodd;stroke:#000000;stroke-width:2.0px;stroke-linecap:butt;stroke-linejoin:miter;stroke-opacity:1"/>
<path class="bond-3 atom-2 atom-4" d="M 268.3,139.7 L 239.2,131.0" style="fill:none;fill-rule:evenodd;stroke:#000000;stroke-width:2.0px;stroke-linecap:butt;stroke-linejoin:miter;stroke-opacity:1"/>
<path class="bond-4 atom-4 atom-5" d="M 239.2,131.0 L 232.2,101.4" style="fill:none;fill-rule:evenodd;stroke:#000000;stroke-width:2.0px;stroke-linecap:butt;stroke-linejoin:miter;stroke-opacity:1"/>
<path class="bond-5 atom-5 atom-6" d="M 232.2,101.4 L 254.3,80.6" style="fill:none;fill-rule:evenodd;stroke:#000000;stroke-width:2.0px;stroke-linecap:butt;stroke-linejoin:miter;stroke-opacity:1"/>
<path class="bond-6 atom-6 atom-7" d="M 254.3,80.6 L 247.3,51.1" style="fill:none;fill-rule:evenodd;stroke:#000000;stroke-width:2.0px;stroke-linecap:butt;stroke-linejoin:miter;stroke-opacity:1"/>
<path class="bond-7 atom-7 atom-8" d="M 247.3,51.1 L 240.3,21.5" style="fill:none;fill-rule:evenodd;stroke:#000000;stroke-width:2.0px;stroke-linecap:butt;stroke-linejoin:miter;stroke-opacity:1"/>
<path class="bond-8 atom-7 atom-9" d="M 247.3,51.1 L 217.7,58.0" style="fill:none;fill-rule:evenodd;stroke:#000000;stroke-width:2.0px;stroke-linecap:butt;stroke-linejoin:miter;stroke-opacity:1"/>
<path class="bond-9 atom-9 atom-10" d="M 217.7,58.0 L 209.8,49.6" style="fill:none;fill-rule:evenodd;stroke:#000000;stroke-width:2.0px;stroke-linecap:butt;stroke-linejoin:miter;stroke-opacity:1"/>
<path class="bond-9 atom-9 atom-10" d="M 209.8,49.6 L 201.8,41.2" style="fill:none;fill-rule:evenodd;stroke:#FF0000;stroke-width:2.0px;stroke-linecap:butt;stroke-linejoin:miter;stroke-opacity:1"/>
<path class="bond-10 atom-7 atom-11" d="M 247.3,51.1 L 276.8,44.1" style="fill:none;fill-rule:evenodd;stroke:#000000;stroke-width:2.0px;stroke-linecap:butt;stroke-linejoin:miter;stroke-opacity:1"/>
<path class="bond-11 atom-11 atom-12" d="M 274.3,44.7 L 282.7,53.6" style="fill:none;fill-rule:evenodd;stroke:#000000;stroke-width:2.0px;stroke-linecap:butt;stroke-linejoin:miter;stroke-opacity:1"/>
<path class="bond-11 atom-11 atom-12" d="M 282.7,53.6 L 291.1,62.5" style="fill:none;fill-rule:evenodd;stroke:#FF0000;stroke-width:2.0px;stroke-linecap:butt;stroke-linejoin:miter;stroke-opacity:1"/>
<path class="bond-11 atom-11 atom-12" d="M 277.6,41.6 L 286.0,50.5" style="fill:none;fill-rule:evenodd;stroke:#000000;stroke-width:2.0px;stroke-linecap:butt;stroke-linejoin:miter;stroke-opacity:1"/>
<path class="bond-11 atom-11 atom-12" d="M 286.0,50.5 L 294.4,59.4" style="fill:none;fill-rule:evenodd;stroke:#FF0000;stroke-width:2.0px;stroke-linecap:butt;stroke-linejoin:miter;stroke-opacity:1"/>
<path class="bond-12 atom-11 atom-13" d="M 276.8,44.1 L 280.4,32.3" style="fill:none;fill-rule:evenodd;stroke:#000000;stroke-width:2.0px;stroke-linecap:butt;stroke-linejoin:miter;stroke-opacity:1"/>
<path class="bond-12 atom-11 atom-13" d="M 280.4,32.3 L 283.9,20.5" style="fill:none;fill-rule:evenodd;stroke:#FF0000;stroke-width:2.0px;stroke-linecap:butt;stroke-linejoin:miter;stroke-opacity:1"/>
<path class="bond-13 atom-5 atom-14" d="M 232.2,101.4 L 203.1,92.7" style="fill:none;fill-rule:evenodd;stroke:#000000;stroke-width:2.0px;stroke-linecap:butt;stroke-linejoin:miter;stroke-opacity:1"/>
<path class="bond-14 atom-14 atom-15" d="M 203.1,92.7 L 181.0,113.5" style="fill:none;fill-rule:evenodd;stroke:#000000;stroke-width:2.0px;stroke-linecap:butt;stroke-linejoin:miter;stroke-opacity:1"/>
<path class="bond-15 atom-15 atom-16" d="M 181.0,113.5 L 158.9,134.4" style="fill:none;fill-rule:evenodd;stroke:#000000;stroke-width:2.0px;stroke-linecap:butt;stroke-linejoin:miter;stroke-opacity:1"/>
<path class="bond-16 atom-15 atom-17" d="M 181.0,113.5 L 201.8,135.6" style="fill:none;fill-rule:evenodd;stroke:#000000;stroke-width:2.0px;stroke-linecap:butt;stroke-linejoin:miter;stroke-opacity:1"/>
<path class="bond-17 atom-17 atom-18" d="M 200.1,133.8 L 196.3,146.3" style="fill:none;fill-rule:evenodd;stroke:#000000;stroke-width:2.0px;stroke-linecap:butt;stroke-linejoin:miter;stroke-opacity:1"/>
<path class="bond-17 atom-17 atom-18" d="M 196.3,146.3 L 192.6,158.7" style="fill:none;fill-rule:evenodd;stroke:#FF0000;stroke-width:2.0px;stroke-linecap:butt;stroke-linejoin:miter;stroke-opacity:1"/>
<path class="bond-17 atom-17 atom-18" d="M 204.2,135.7 L 200.6,147.5" style="fill:none;fill-rule:evenodd;stroke:#000000;stroke-width:2.0px;stroke-linecap:butt;stroke-linejoin:miter;stroke-opacity:1"/>
<path class="bond-17 atom-17 atom-18" d="M 200.6,147.5 L 196.9,160.0" style="fill:none;fill-rule:evenodd;stroke:#FF0000;stroke-width:2.0px;stroke-linecap:butt;stroke-linejoin:miter;stroke-opacity:1"/>
<path class="bond-18 atom-17 atom-19" d="M 201.8,135.6 L 209.3,135.7" style="fill:none;fill-rule:evenodd;stroke:#000000;stroke-width:2.0px;stroke-linecap:butt;stroke-linejoin:miter;stroke-opacity:1"/>
<path class="bond-18 atom-17 atom-19" d="M 209.3,135.7 L 216.8,135.8" style="fill:none;fill-rule:evenodd;stroke:#FF0000;stroke-width:2.0px;stroke-linecap:butt;stroke-linejoin:miter;stroke-opacity:1"/>
<path class="bond-19 atom-15 atom-20" d="M 181.0,113.5 L 160.2,91.4" style="fill:none;fill-rule:evenodd;stroke:#000000;stroke-width:2.0px;stroke-linecap:butt;stroke-linejoin:miter;stroke-opacity:1"/>
<path class="bond-20 atom-20 atom-21" d="M 160.2,91.4 L 163.7,79.6" style="fill:none;fill-rule:evenodd;stroke:#000000;stroke-width:2.0px;stroke-linecap:butt;stroke-linejoin:miter;stroke-opacity:1"/>
<path class="bond-20 atom-20 atom-21" d="M 163.7,79.6 L 167.3,67.8" style="fill:none;fill-rule:evenodd;stroke:#FF0000;stroke-width:2.0px;stroke-linecap:butt;stroke-linejoin:miter;stroke-opacity:1"/>
<path class="bond-21 atom-20 atom-22" d="M 160.2,91.4 L 130.6,98.4" style="fill:none;fill-rule:evenodd;stroke:#000000;stroke-width:2.0px;stroke-linecap:butt;stroke-linejoin:miter;stroke-opacity:1"/>
<path class="bond-22 atom-22 atom-23" d="M 130.6,98.4 L 109.8,76.3" style="fill:none;fill-rule:evenodd;stroke:#000000;stroke-width:2.0px;stroke-linecap:butt;stroke-linejoin:miter;stroke-opacity:1"/>
<path class="bond-23 atom-23 atom-24" d="M 109.8,76.3 L 80.3,83.3" style="fill:none;fill-rule:evenodd;stroke:#000000;stroke-width:2.0px;stroke-linecap:butt;stroke-linejoin:miter;stroke-opacity:1"/>
<path class="bond-24 atom-24 atom-25" d="M 80.3,83.3 L 80.1,99.5" style="fill:none;fill-rule:evenodd;stroke:#000000;stroke-width:2.0px;stroke-linecap:butt;stroke-linejoin:miter;stroke-opacity:1"/>
<path class="bond-25 atom-24 atom-26" d="M 80.3,83.3 L 73.3,53.8" style="fill:none;fill-rule:evenodd;stroke:#000000;stroke-width:2.0px;stroke-linecap:butt;stroke-linejoin:miter;stroke-opacity:1"/>
<path class="bond-26 atom-26 atom-27" d="M 73.3,53.8 L 44.2,45.1" style="fill:none;fill-rule:evenodd;stroke:#000000;stroke-width:2.0px;stroke-linecap:butt;stroke-linejoin:miter;stroke-opacity:1"/>
<path class="bond-27 atom-24 atom-28" d="M 80.3,83.3 L 50.7,90.3" style="fill:none;fill-rule:evenodd;stroke:#000000;stroke-width:2.0px;stroke-linecap:butt;stroke-linejoin:miter;stroke-opacity:1"/>
<path class="bond-28 atom-28 atom-29" d="M 48.9,88.4 L 45.2,100.9" style="fill:none;fill-rule:evenodd;stroke:#000000;stroke-width:2.0px;stroke-linecap:butt;stroke-linejoin:miter;stroke-opacity:1"/>
<path class="bond-28 atom-28 atom-29" d="M 45.2,100.9 L 41.5,113.4" style="fill:none;fill-rule:evenodd;stroke:#FF0000;stroke-width:2.0px;stroke-linecap:butt;stroke-linejoin:miter;stroke-opacity:1"/>
<path class="bond-28 atom-28 atom-29" d="M 53.2,89.7 L 49.5,102.2" style="fill:none;fill-rule:evenodd;stroke:#000000;stroke-width:2.0px;stroke-linecap:butt;stroke-linejoin:miter;stroke-opacity:1"/>
<path class="bond-28 atom-28 atom-29" d="M 49.5,102.2 L 45.7,114.7" style="fill:none;fill-rule:evenodd;stroke:#FF0000;stroke-width:2.0px;stroke-linecap:butt;stroke-linejoin:miter;stroke-opacity:1"/>
<path class="bond-29 atom-28 atom-30" d="M 50.7,90.3 L 42.8,81.9" style="fill:none;fill-rule:evenodd;stroke:#000000;stroke-width:2.0px;stroke-linecap:butt;stroke-linejoin:miter;stroke-opacity:1"/>
<path class="bond-29 atom-28 atom-30" d="M 42.8,81.9 L 34.8,73.5" style="fill:none;fill-rule:evenodd;stroke:#FF0000;stroke-width:2.0px;stroke-linecap:butt;stroke-linejoin:miter;stroke-opacity:1"/>
<path class="bond-30 atom-22 atom-31" d="M 130.6,98.4 L 121.9,127.5" style="fill:none;fill-rule:evenodd;stroke:#000000;stroke-width:2.0px;stroke-linecap:butt;stroke-linejoin:miter;stroke-opacity:1"/>
<path class="bond-31 atom-31 atom-32" d="M 121.9,127.5 L 92.4,134.5" style="fill:none;fill-rule:evenodd;stroke:#000000;stroke-width:2.0px;stroke-linecap:butt;stroke-linejoin:miter;stroke-opacity:1"/>
<path class="bond-32 atom-32 atom-33" d="M 92.4,134.5 L 62.8,141.5" style="fill:none;fill-rule:evenodd;stroke:#000000;stroke-width:2.0px;stroke-linecap:butt;stroke-linejoin:miter;stroke-opacity:1"/>
<path class="bond-33 atom-32 atom-34" d="M 92.4,134.5 L 85.4,105.0" style="fill:none;fill-rule:evenodd;stroke:#000000;stroke-width:2.0px;stroke-linecap:butt;stroke-linejoin:miter;stroke-opacity:1"/>
<path class="bond-34 atom-34 atom-35" d="M 85.4,105.0 L 72.7,104.4" style="fill:none;fill-rule:evenodd;stroke:#000000;stroke-width:2.0px;stroke-linecap:butt;stroke-linejoin:miter;stroke-opacity:1"/>
<path class="bond-34 atom-34 atom-35" d="M 72.7,104.4 L 60.0,103.8" style="fill:none;fill-rule:evenodd;stroke:#FF0000;stroke-width:2.0px;stroke-linecap:butt;stroke-linejoin:miter;stroke-opacity:1"/>
<path class="bond-35 atom-32 atom-36" d="M 92.4,134.5 L 99.4,164.1" style="fill:none;fill-rule:evenodd;stroke:#000000;stroke-width:2.0px;stroke-linecap:butt;stroke-linejoin:miter;stroke-opacity:1"/>
<path class="bond-36 atom-36 atom-37" d="M 97.5,165.8 L 110.2,169.6" style="fill:none;fill-rule:evenodd;stroke:#000000;stroke-width:2.0px;stroke-linecap:butt;stroke-linejoin:miter;stroke-opacity:1"/>
<path class="bond-36 atom-36 atom-37" d="M 110.2,169.6 L 122.9,173.4" style="fill:none;fill-rule:evenodd;stroke:#FF0000;stroke-width:2.0px;stroke-linecap:butt;stroke-linejoin:miter;stroke-opacity:1"/>
<path class="bond-36 atom-36 atom-37" d="M 98.8,161.5 L 111.5,165.4" style="fill:none;fill-rule:evenodd;stroke:#000000;stroke-width:2.0px;stroke-linecap:butt;stroke-linejoin:miter;stroke-opacity:1"/>
<path class="bond-36 atom-36 atom-37" d="M 111.5,165.4 L 124.2,169.2" style="fill:none;fill-rule:evenodd;stroke:#FF0000;stroke-width:2.0px;stroke-linecap:butt;stroke-linejoin:miter;stroke-opacity:1"/>
<path class="bond-37 atom-36 atom-38" d="M 99.4,164.1 L 90.8,172.1" style="fill:none;fill-rule:evenodd;stroke:#000000;stroke-width:2.0px;stroke-linecap:butt;stroke-linejoin:miter;stroke-opacity:1"/>
<path class="bond-37 atom-36 atom-38" d="M 90.8,172.1 L 82.2,180.2" style="fill:none;fill-rule:evenodd;stroke:#FF0000;stroke-width:2.0px;stroke-linecap:butt;stroke-linejoin:miter;stroke-opacity:1"/>
<path class="bond-38 atom-2 atom-39" d="M 268.3,139.7 L 297.3,148.4" style="fill:none;fill-rule:evenodd;stroke:#000000;stroke-width:2.0px;stroke-linecap:butt;stroke-linejoin:miter;stroke-opacity:1"/>
<path class="bond-39 atom-39 atom-40" d="M 294.9,147.7 L 297.9,160.4" style="fill:none;fill-rule:evenodd;stroke:#000000;stroke-width:2.0px;stroke-linecap:butt;stroke-linejoin:miter;stroke-opacity:1"/>
<path class="bond-39 atom-39 atom-40" d="M 297.9,160.4 L 300.9,173.2" style="fill:none;fill-rule:evenodd;stroke:#FF0000;stroke-width:2.0px;stroke-linecap:butt;stroke-linejoin:miter;stroke-opacity:1"/>
<path class="bond-39 atom-39 atom-40" d="M 299.2,146.7 L 302.2,159.4" style="fill:none;fill-rule:evenodd;stroke:#000000;stroke-width:2.0px;stroke-linecap:butt;stroke-linejoin:miter;stroke-opacity:1"/>
<path class="bond-39 atom-39 atom-40" d="M 302.2,159.4 L 305.2,172.1" style="fill:none;fill-rule:evenodd;stroke:#FF0000;stroke-width:2.0px;stroke-linecap:butt;stroke-linejoin:miter;stroke-opacity:1"/>
<path class="bond-40 atom-39 atom-41" d="M 297.3,148.4 L 305.9,140.3" style="fill:none;fill-rule:evenodd;stroke:#000000;stroke-width:2.0px;stroke-linecap:butt;stroke-linejoin:miter;stroke-opacity:1"/>
<path class="bond-40 atom-39 atom-41" d="M 305.9,140.3 L 314.5,132.2" style="fill:none;fill-rule:evenodd;stroke:#FF0000;stroke-width:2.0px;stroke-linecap:butt;stroke-linejoin:miter;stroke-opacity:1"/>
<path d="M 258.1,169.1 L 259.5,168.8 L 260.0,167.3" style="fill:none;stroke:#000000;stroke-width:2.0px;stroke-linecap:butt;stroke-linejoin:miter;stroke-opacity:1;"/>
<path d="M 240.6,131.4 L 239.2,131.0 L 238.8,129.5" style="fill:none;stroke:#000000;stroke-width:2.0px;stroke-linecap:butt;stroke-linejoin:miter;stroke-opacity:1;"/>
<path d="M 253.2,81.6 L 254.3,80.6 L 253.9,79.1" style="fill:none;stroke:#000000;stroke-width:2.0px;stroke-linecap:butt;stroke-linejoin:miter;stroke-opacity:1;"/>
<path d="M 219.2,57.7 L 217.7,58.0 L 217.3,57.6" style="fill:none;stroke:#000000;stroke-width:2.0px;stroke-linecap:butt;stroke-linejoin:miter;stroke-opacity:1;"/>
<path d="M 275.4,44.4 L 276.8,44.1 L 277.0,43.5" style="fill:none;stroke:#000000;stroke-width:2.0px;stroke-linecap:butt;stroke-linejoin:miter;stroke-opacity:1;"/>
<path d="M 204.6,93.1 L 203.1,92.7 L 202.0,93.8" style="fill:none;stroke:#000000;stroke-width:2.0px;stroke-linecap:butt;stroke-linejoin:miter;stroke-opacity:1;"/>
<path d="M 200.8,134.5 L 201.8,135.6 L 202.2,135.6" style="fill:none;stroke:#000000;stroke-width:2.0px;stroke-linecap:butt;stroke-linejoin:miter;stroke-opacity:1;"/>
<path d="M 110.9,77.4 L 109.8,76.3 L 108.3,76.7" style="fill:none;stroke:#000000;stroke-width:2.0px;stroke-linecap:butt;stroke-linejoin:miter;stroke-opacity:1;"/>
<path d="M 73.6,55.3 L 73.3,53.8 L 71.8,53.3" style="fill:none;stroke:#000000;stroke-width:2.0px;stroke-linecap:butt;stroke-linejoin:miter;stroke-opacity:1;"/>
<path d="M 52.2,90.0 L 50.7,90.3 L 50.3,89.9" style="fill:none;stroke:#000000;stroke-width:2.0px;stroke-linecap:butt;stroke-linejoin:miter;stroke-opacity:1;"/>
<path d="M 122.4,126.1 L 121.9,127.5 L 120.4,127.9" style="fill:none;stroke:#000000;stroke-width:2.0px;stroke-linecap:butt;stroke-linejoin:miter;stroke-opacity:1;"/>
<path d="M 85.7,106.4 L 85.4,105.0 L 84.7,104.9" style="fill:none;stroke:#000000;stroke-width:2.0px;stroke-linecap:butt;stroke-linejoin:miter;stroke-opacity:1;"/>
<path d="M 99.0,162.6 L 99.4,164.1 L 98.9,164.5" style="fill:none;stroke:#000000;stroke-width:2.0px;stroke-linecap:butt;stroke-linejoin:miter;stroke-opacity:1;"/>
<path d="M 295.9,148.0 L 297.3,148.4 L 297.8,148.0" style="fill:none;stroke:#000000;stroke-width:2.0px;stroke-linecap:butt;stroke-linejoin:miter;stroke-opacity:1;"/>
<path class="atom-10" d="M 184.5 31.7 L 185.6 31.7 L 185.6 35.4 L 190.0 35.4 L 190.0 31.7 L 191.2 31.7 L 191.2 40.3 L 190.0 40.3 L 190.0 36.3 L 185.6 36.3 L 185.6 40.3 L 184.5 40.3 L 184.5 31.7 " fill="#FF0000"/>
<path class="atom-10" d="M 193.0 36.0 Q 193.0 33.9, 194.0 32.8 Q 195.0 31.6, 196.9 31.6 Q 198.8 31.6, 199.8 32.8 Q 200.9 33.9, 200.9 36.0 Q 200.9 38.1, 199.8 39.3 Q 198.8 40.4, 196.9 40.4 Q 195.0 40.4, 194.0 39.3 Q 193.0 38.1, 193.0 36.0 M 196.9 39.5 Q 198.2 39.5, 198.9 38.6 Q 199.7 37.7, 199.7 36.0 Q 199.7 34.3, 198.9 33.4 Q 198.2 32.6, 196.9 32.6 Q 195.6 32.6, 194.9 33.4 Q 194.2 34.3, 194.2 36.0 Q 194.2 37.7, 194.9 38.6 Q 195.6 39.5, 196.9 39.5 " fill="#FF0000"/>
<path class="atom-12" d="M 293.7 66.2 Q 293.7 64.1, 294.7 63.0 Q 295.8 61.8, 297.7 61.8 Q 299.6 61.8, 300.6 63.0 Q 301.6 64.1, 301.6 66.2 Q 301.6 68.3, 300.6 69.5 Q 299.5 70.6, 297.7 70.6 Q 295.8 70.6, 294.7 69.5 Q 293.7 68.3, 293.7 66.2 M 297.7 69.7 Q 299.0 69.7, 299.7 68.8 Q 300.4 67.9, 300.4 66.2 Q 300.4 64.5, 299.7 63.7 Q 299.0 62.8, 297.7 62.8 Q 296.4 62.8, 295.6 63.6 Q 294.9 64.5, 294.9 66.2 Q 294.9 67.9, 295.6 68.8 Q 296.4 69.7, 297.7 69.7 " fill="#FF0000"/>
<path class="atom-13" d="M 281.6 15.0 Q 281.6 12.9, 282.6 11.8 Q 283.7 10.6, 285.6 10.6 Q 287.5 10.6, 288.5 11.8 Q 289.5 12.9, 289.5 15.0 Q 289.5 17.1, 288.5 18.3 Q 287.4 19.5, 285.6 19.5 Q 283.7 19.5, 282.6 18.3 Q 281.6 17.1, 281.6 15.0 M 285.6 18.5 Q 286.9 18.5, 287.6 17.6 Q 288.3 16.7, 288.3 15.0 Q 288.3 13.3, 287.6 12.5 Q 286.9 11.6, 285.6 11.6 Q 284.2 11.6, 283.5 12.5 Q 282.8 13.3, 282.8 15.0 Q 282.8 16.7, 283.5 17.6 Q 284.2 18.5, 285.6 18.5 " fill="#FF0000"/>
<path class="atom-13" d="M 290.8 10.7 L 292.0 10.7 L 292.0 14.4 L 296.4 14.4 L 296.4 10.7 L 297.6 10.7 L 297.6 19.3 L 296.4 19.3 L 296.4 15.4 L 292.0 15.4 L 292.0 19.3 L 290.8 19.3 L 290.8 10.7 " fill="#FF0000"/>
<path class="atom-18" d="M 189.2 164.7 Q 189.2 162.7, 190.2 161.5 Q 191.2 160.4, 193.1 160.4 Q 195.0 160.4, 196.0 161.5 Q 197.1 162.7, 197.1 164.7 Q 197.1 166.8, 196.0 168.0 Q 195.0 169.2, 193.1 169.2 Q 191.2 169.2, 190.2 168.0 Q 189.2 166.8, 189.2 164.7 M 193.1 168.2 Q 194.4 168.2, 195.1 167.4 Q 195.8 166.5, 195.8 164.7 Q 195.8 163.1, 195.1 162.2 Q 194.4 161.3, 193.1 161.3 Q 191.8 161.3, 191.1 162.2 Q 190.4 163.0, 190.4 164.7 Q 190.4 166.5, 191.1 167.4 Q 191.8 168.2, 193.1 168.2 " fill="#FF0000"/>
<path class="atom-19" d="M 217.8 135.9 Q 217.8 133.8, 218.8 132.7 Q 219.8 131.5, 221.8 131.5 Q 223.7 131.5, 224.7 132.7 Q 225.7 133.8, 225.7 135.9 Q 225.7 138.0, 224.7 139.2 Q 223.6 140.4, 221.8 140.4 Q 219.9 140.4, 218.8 139.2 Q 217.8 138.0, 217.8 135.9 M 221.8 139.4 Q 223.1 139.4, 223.8 138.5 Q 224.5 137.6, 224.5 135.9 Q 224.5 134.2, 223.8 133.4 Q 223.1 132.5, 221.8 132.5 Q 220.4 132.5, 219.7 133.3 Q 219.0 134.2, 219.0 135.9 Q 219.0 137.6, 219.7 138.5 Q 220.4 139.4, 221.8 139.4 " fill="#FF0000"/>
<path class="atom-19" d="M 227.0 131.6 L 228.2 131.6 L 228.2 135.3 L 232.6 135.3 L 232.6 131.6 L 233.8 131.6 L 233.8 140.2 L 232.6 140.2 L 232.6 136.3 L 228.2 136.3 L 228.2 140.2 L 227.0 140.2 L 227.0 131.6 " fill="#FF0000"/>
<path class="atom-21" d="M 165.0 62.4 Q 165.0 60.3, 166.0 59.2 Q 167.0 58.0, 168.9 58.0 Q 170.8 58.0, 171.8 59.2 Q 172.9 60.3, 172.9 62.4 Q 172.9 64.5, 171.8 65.7 Q 170.8 66.8, 168.9 66.8 Q 167.0 66.8, 166.0 65.7 Q 165.0 64.5, 165.0 62.4 M 168.9 65.9 Q 170.2 65.9, 170.9 65.0 Q 171.6 64.1, 171.6 62.4 Q 171.6 60.7, 170.9 59.8 Q 170.2 59.0, 168.9 59.0 Q 167.6 59.0, 166.9 59.8 Q 166.2 60.7, 166.2 62.4 Q 166.2 64.1, 166.9 65.0 Q 167.6 65.9, 168.9 65.9 " fill="#FF0000"/>
<path class="atom-21" d="M 174.2 58.1 L 175.4 58.1 L 175.4 61.8 L 179.8 61.8 L 179.8 58.1 L 180.9 58.1 L 180.9 66.7 L 179.8 66.7 L 179.8 62.7 L 175.4 62.7 L 175.4 66.7 L 174.2 66.7 L 174.2 58.1 " fill="#FF0000"/>
<path class="atom-29" d="M 38.0 119.4 Q 38.0 117.4, 39.1 116.2 Q 40.1 115.1, 42.0 115.1 Q 43.9 115.1, 44.9 116.2 Q 45.9 117.4, 45.9 119.4 Q 45.9 121.5, 44.9 122.7 Q 43.9 123.9, 42.0 123.9 Q 40.1 123.9, 39.1 122.7 Q 38.0 121.5, 38.0 119.4 M 42.0 122.9 Q 43.3 122.9, 44.0 122.0 Q 44.7 121.1, 44.7 119.4 Q 44.7 117.7, 44.0 116.9 Q 43.3 116.0, 42.0 116.0 Q 40.7 116.0, 40.0 116.9 Q 39.3 117.7, 39.3 119.4 Q 39.3 121.2, 40.0 122.0 Q 40.7 122.9, 42.0 122.9 " fill="#FF0000"/>
<path class="atom-30" d="M 17.4 64.0 L 18.6 64.0 L 18.6 67.6 L 23.0 67.6 L 23.0 64.0 L 24.2 64.0 L 24.2 72.6 L 23.0 72.6 L 23.0 68.6 L 18.6 68.6 L 18.6 72.6 L 17.4 72.6 L 17.4 64.0 " fill="#FF0000"/>
<path class="atom-30" d="M 25.9 68.2 Q 25.9 66.2, 27.0 65.0 Q 28.0 63.9, 29.9 63.9 Q 31.8 63.9, 32.8 65.0 Q 33.8 66.2, 33.8 68.2 Q 33.8 70.3, 32.8 71.5 Q 31.8 72.7, 29.9 72.7 Q 28.0 72.7, 27.0 71.5 Q 25.9 70.3, 25.9 68.2 M 29.9 71.7 Q 31.2 71.7, 31.9 70.9 Q 32.6 70.0, 32.6 68.2 Q 32.6 66.6, 31.9 65.7 Q 31.2 64.8, 29.9 64.8 Q 28.6 64.8, 27.9 65.7 Q 27.2 66.5, 27.2 68.2 Q 27.2 70.0, 27.9 70.9 Q 28.6 71.7, 29.9 71.7 " fill="#FF0000"/>
<path class="atom-35" d="M 42.6 99.3 L 43.8 99.3 L 43.8 102.9 L 48.2 102.9 L 48.2 99.3 L 49.3 99.3 L 49.3 107.9 L 48.2 107.9 L 48.2 103.9 L 43.8 103.9 L 43.8 107.9 L 42.6 107.9 L 42.6 99.3 " fill="#FF0000"/>
<path class="atom-35" d="M 51.1 103.6 Q 51.1 101.5, 52.1 100.3 Q 53.1 99.2, 55.0 99.2 Q 57.0 99.2, 58.0 100.3 Q 59.0 101.5, 59.0 103.6 Q 59.0 105.6, 58.0 106.8 Q 56.9 108.0, 55.0 108.0 Q 53.2 108.0, 52.1 106.8 Q 51.1 105.7, 51.1 103.6 M 55.0 107.0 Q 56.4 107.0, 57.1 106.2 Q 57.8 105.3, 57.8 103.6 Q 57.8 101.9, 57.1 101.0 Q 56.4 100.2, 55.0 100.2 Q 53.7 100.2, 53.0 101.0 Q 52.3 101.9, 52.3 103.6 Q 52.3 105.3, 53.0 106.2 Q 53.7 107.0, 55.0 107.0 " fill="#FF0000"/>
<path class="atom-37" d="M 124.5 172.8 Q 124.5 170.7, 125.5 169.6 Q 126.5 168.4, 128.4 168.4 Q 130.3 168.4, 131.4 169.6 Q 132.4 170.7, 132.4 172.8 Q 132.4 174.9, 131.4 176.1 Q 130.3 177.3, 128.4 177.3 Q 126.5 177.3, 125.5 176.1 Q 124.5 174.9, 124.5 172.8 M 128.4 176.3 Q 129.8 176.3, 130.5 175.4 Q 131.2 174.5, 131.2 172.8 Q 131.2 171.1, 130.5 170.3 Q 129.8 169.4, 128.4 169.4 Q 127.1 169.4, 126.4 170.2 Q 125.7 171.1, 125.7 172.8 Q 125.7 174.5, 126.4 175.4 Q 127.1 176.3, 128.4 176.3 " fill="#FF0000"/>
<path class="atom-38" d="M 64.8 180.6 L 66.0 180.6 L 66.0 184.3 L 70.4 184.3 L 70.4 180.6 L 71.6 180.6 L 71.6 189.2 L 70.4 189.2 L 70.4 185.3 L 66.0 185.3 L 66.0 189.2 L 64.8 189.2 L 64.8 180.6 " fill="#FF0000"/>
<path class="atom-38" d="M 73.3 184.9 Q 73.3 182.8, 74.3 181.7 Q 75.4 180.5, 77.3 180.5 Q 79.2 180.5, 80.2 181.7 Q 81.2 182.8, 81.2 184.9 Q 81.2 187.0, 80.2 188.2 Q 79.1 189.4, 77.3 189.4 Q 75.4 189.4, 74.3 188.2 Q 73.3 187.0, 73.3 184.9 M 77.3 188.4 Q 78.6 188.4, 79.3 187.5 Q 80.0 186.6, 80.0 184.9 Q 80.0 183.2, 79.3 182.4 Q 78.6 181.5, 77.3 181.5 Q 76.0 181.5, 75.2 182.4 Q 74.5 183.2, 74.5 184.9 Q 74.5 186.6, 75.2 187.5 Q 76.0 188.4, 77.3 188.4 " fill="#FF0000"/>
<path class="atom-40" d="M 300.4 178.0 Q 300.4 175.9, 301.4 174.8 Q 302.4 173.6, 304.3 173.6 Q 306.2 173.6, 307.3 174.8 Q 308.3 175.9, 308.3 178.0 Q 308.3 180.1, 307.2 181.3 Q 306.2 182.5, 304.3 182.5 Q 302.4 182.5, 301.4 181.3 Q 300.4 180.1, 300.4 178.0 M 304.3 181.5 Q 305.6 181.5, 306.3 180.6 Q 307.1 179.7, 307.1 178.0 Q 307.1 176.3, 306.3 175.5 Q 305.6 174.6, 304.3 174.6 Q 303.0 174.6, 302.3 175.4 Q 301.6 176.3, 301.6 178.0 Q 301.6 179.7, 302.3 180.6 Q 303.0 181.5, 304.3 181.5 " fill="#FF0000"/>
<path class="atom-41" d="M 315.5 127.6 Q 315.5 125.6, 316.5 124.4 Q 317.5 123.2, 319.4 123.2 Q 321.3 123.2, 322.4 124.4 Q 323.4 125.6, 323.4 127.6 Q 323.4 129.7, 322.4 130.9 Q 321.3 132.1, 319.4 132.1 Q 317.5 132.1, 316.5 130.9 Q 315.5 129.7, 315.5 127.6 M 319.4 131.1 Q 320.7 131.1, 321.5 130.2 Q 322.2 129.3, 322.2 127.6 Q 322.2 125.9, 321.5 125.1 Q 320.7 124.2, 319.4 124.2 Q 318.1 124.2, 317.4 125.1 Q 316.7 125.9, 316.7 127.6 Q 316.7 129.4, 317.4 130.2 Q 318.1 131.1, 319.4 131.1 " fill="#FF0000"/>
<path class="atom-41" d="M 324.7 123.3 L 325.9 123.3 L 325.9 127.0 L 330.3 127.0 L 330.3 123.3 L 331.5 123.3 L 331.5 131.9 L 330.3 131.9 L 330.3 128.0 L 325.9 128.0 L 325.9 131.9 L 324.7 131.9 L 324.7 123.3 " fill="#FF0000"/>
</g>
  </g>
</svg>
