<?xml version='1.0' encoding='ASCII' standalone='yes'?>
<svg xmlns="http://www.w3.org/2000/svg" xmlns:xlink="http://www.w3.org/1999/xlink" version="1.1" width="824.0px" viewBox="0 0 824.0 200.0" height="200.0px">
  <g>
    <g transform="translate(0, 0) scale(1 1) "><!-- END OF HEADER -->
<rect style="opacity:1.0;fill:#FFFFFF;stroke:none" width="254.0" height="200.0" x="0.0" y="0.0"> </rect>
<path class="bond-0 atom-0 atom-1" d="M 173.9,22.1 L 190.1,58.5" style="fill:none;fill-rule:evenodd;stroke:#000000;stroke-width:2.0px;stroke-linecap:butt;stroke-linejoin:miter;stroke-opacity:1"/>
<path class="bond-1 atom-1 atom-2" d="M 190.1,58.5 L 166.7,90.9" style="fill:none;fill-rule:evenodd;stroke:#000000;stroke-width:2.0px;stroke-linecap:butt;stroke-linejoin:miter;stroke-opacity:1"/>
<path class="bond-2 atom-2 atom-3" d="M 166.7,90.9 L 143.2,123.2" style="fill:none;fill-rule:evenodd;stroke:#000000;stroke-width:2.0px;stroke-linecap:butt;stroke-linejoin:miter;stroke-opacity:1"/>
<path class="bond-3 atom-2 atom-4" d="M 166.7,90.9 L 134.4,67.4" style="fill:none;fill-rule:evenodd;stroke:#000000;stroke-width:2.0px;stroke-linecap:butt;stroke-linejoin:miter;stroke-opacity:1"/>
<path class="bond-4 atom-4 atom-5" d="M 134.4,67.4 L 97.9,83.7" style="fill:none;fill-rule:evenodd;stroke:#000000;stroke-width:2.0px;stroke-linecap:butt;stroke-linejoin:miter;stroke-opacity:1"/>
<path class="bond-5 atom-5 atom-6" d="M 97.9,83.7 L 65.5,60.2" style="fill:none;fill-rule:evenodd;stroke:#000000;stroke-width:2.0px;stroke-linecap:butt;stroke-linejoin:miter;stroke-opacity:1"/>
<path class="bond-6 atom-6 atom-7" d="M 65.5,60.2 L 50.6,66.9" style="fill:none;fill-rule:evenodd;stroke:#000000;stroke-width:2.0px;stroke-linecap:butt;stroke-linejoin:miter;stroke-opacity:1"/>
<path class="bond-6 atom-6 atom-7" d="M 50.6,66.9 L 35.6,73.6" style="fill:none;fill-rule:evenodd;stroke:#FF0000;stroke-width:2.0px;stroke-linecap:butt;stroke-linejoin:miter;stroke-opacity:1"/>
<path class="bond-7 atom-5 atom-8" d="M 97.9,83.7 L 93.7,123.4" style="fill:none;fill-rule:evenodd;stroke:#000000;stroke-width:2.0px;stroke-linecap:butt;stroke-linejoin:miter;stroke-opacity:1"/>
<path class="bond-8 atom-8 atom-9" d="M 90.6,124.8 L 104.2,134.7" style="fill:none;fill-rule:evenodd;stroke:#000000;stroke-width:2.0px;stroke-linecap:butt;stroke-linejoin:miter;stroke-opacity:1"/>
<path class="bond-8 atom-8 atom-9" d="M 104.2,134.7 L 117.8,144.6" style="fill:none;fill-rule:evenodd;stroke:#FF0000;stroke-width:2.0px;stroke-linecap:butt;stroke-linejoin:miter;stroke-opacity:1"/>
<path class="bond-8 atom-8 atom-9" d="M 94.1,120.0 L 107.7,129.8" style="fill:none;fill-rule:evenodd;stroke:#000000;stroke-width:2.0px;stroke-linecap:butt;stroke-linejoin:miter;stroke-opacity:1"/>
<path class="bond-8 atom-8 atom-9" d="M 107.7,129.8 L 121.3,139.7" style="fill:none;fill-rule:evenodd;stroke:#FF0000;stroke-width:2.0px;stroke-linecap:butt;stroke-linejoin:miter;stroke-opacity:1"/>
<path class="bond-9 atom-8 atom-10" d="M 93.7,123.4 L 78.7,130.1" style="fill:none;fill-rule:evenodd;stroke:#000000;stroke-width:2.0px;stroke-linecap:butt;stroke-linejoin:miter;stroke-opacity:1"/>
<path class="bond-9 atom-8 atom-10" d="M 78.7,130.1 L 63.8,136.8" style="fill:none;fill-rule:evenodd;stroke:#FF0000;stroke-width:2.0px;stroke-linecap:butt;stroke-linejoin:miter;stroke-opacity:1"/>
<path class="bond-10 atom-2 atom-11" d="M 166.7,90.9 L 199.0,114.3" style="fill:none;fill-rule:evenodd;stroke:#000000;stroke-width:2.0px;stroke-linecap:butt;stroke-linejoin:miter;stroke-opacity:1"/>
<path class="bond-11 atom-11 atom-12" d="M 198.7,117.8 L 214.4,110.7" style="fill:none;fill-rule:evenodd;stroke:#000000;stroke-width:2.0px;stroke-linecap:butt;stroke-linejoin:miter;stroke-opacity:1"/>
<path class="bond-11 atom-11 atom-12" d="M 214.4,110.7 L 230.2,103.7" style="fill:none;fill-rule:evenodd;stroke:#FF0000;stroke-width:2.0px;stroke-linecap:butt;stroke-linejoin:miter;stroke-opacity:1"/>
<path class="bond-11 atom-11 atom-12" d="M 196.2,112.3 L 212.0,105.3" style="fill:none;fill-rule:evenodd;stroke:#000000;stroke-width:2.0px;stroke-linecap:butt;stroke-linejoin:miter;stroke-opacity:1"/>
<path class="bond-11 atom-11 atom-12" d="M 212.0,105.3 L 227.8,98.2" style="fill:none;fill-rule:evenodd;stroke:#FF0000;stroke-width:2.0px;stroke-linecap:butt;stroke-linejoin:miter;stroke-opacity:1"/>
<path class="bond-12 atom-11 atom-13" d="M 199.0,114.3 L 197.3,130.7" style="fill:none;fill-rule:evenodd;stroke:#000000;stroke-width:2.0px;stroke-linecap:butt;stroke-linejoin:miter;stroke-opacity:1"/>
<path class="bond-12 atom-11 atom-13" d="M 197.3,130.7 L 195.6,147.0" style="fill:none;fill-rule:evenodd;stroke:#FF0000;stroke-width:2.0px;stroke-linecap:butt;stroke-linejoin:miter;stroke-opacity:1"/>
<path d="M 189.3,56.7 L 190.1,58.5 L 189.0,60.1" style="fill:none;stroke:#000000;stroke-width:2.0px;stroke-linecap:butt;stroke-linejoin:miter;stroke-opacity:1;"/>
<path d="M 136.0,68.6 L 134.4,67.4 L 132.5,68.2" style="fill:none;stroke:#000000;stroke-width:2.0px;stroke-linecap:butt;stroke-linejoin:miter;stroke-opacity:1;"/>
<path d="M 67.2,61.4 L 65.5,60.2 L 64.8,60.6" style="fill:none;stroke:#000000;stroke-width:2.0px;stroke-linecap:butt;stroke-linejoin:miter;stroke-opacity:1;"/>
<path d="M 93.9,121.4 L 93.7,123.4 L 93.0,123.7" style="fill:none;stroke:#000000;stroke-width:2.0px;stroke-linecap:butt;stroke-linejoin:miter;stroke-opacity:1;"/>
<path d="M 197.4,113.1 L 199.0,114.3 L 198.9,115.1" style="fill:none;stroke:#000000;stroke-width:2.0px;stroke-linecap:butt;stroke-linejoin:miter;stroke-opacity:1;"/>
<path class="atom-7" d="M 12.7 70.9 L 14.2 70.9 L 14.2 75.7 L 20.0 75.7 L 20.0 70.9 L 21.6 70.9 L 21.6 82.2 L 20.0 82.2 L 20.0 77.0 L 14.2 77.0 L 14.2 82.2 L 12.7 82.2 L 12.7 70.9 " fill="#FF0000"/>
<path class="atom-7" d="M 23.9 76.5 Q 23.9 73.8, 25.2 72.3 Q 26.6 70.8, 29.1 70.8 Q 31.6 70.8, 32.9 72.3 Q 34.3 73.8, 34.3 76.5 Q 34.3 79.3, 32.9 80.8 Q 31.5 82.4, 29.1 82.4 Q 26.6 82.4, 25.2 80.8 Q 23.9 79.3, 23.9 76.5 M 29.1 81.1 Q 30.8 81.1, 31.7 80.0 Q 32.7 78.8, 32.7 76.5 Q 32.7 74.3, 31.7 73.2 Q 30.8 72.1, 29.1 72.1 Q 27.3 72.1, 26.4 73.2 Q 25.5 74.3, 25.5 76.5 Q 25.5 78.8, 26.4 80.0 Q 27.3 81.1, 29.1 81.1 " fill="#FF0000"/>
<path class="atom-9" d="M 120.9 146.9 Q 120.9 144.2, 122.2 142.7 Q 123.6 141.2, 126.1 141.2 Q 128.6 141.2, 129.9 142.7 Q 131.3 144.2, 131.3 146.9 Q 131.3 149.7, 129.9 151.2 Q 128.5 152.8, 126.1 152.8 Q 123.6 152.8, 122.2 151.2 Q 120.9 149.7, 120.9 146.9 M 126.1 151.5 Q 127.8 151.5, 128.7 150.3 Q 129.7 149.2, 129.7 146.9 Q 129.7 144.7, 128.7 143.6 Q 127.8 142.4, 126.1 142.4 Q 124.3 142.4, 123.4 143.5 Q 122.5 144.7, 122.5 146.9 Q 122.5 149.2, 123.4 150.3 Q 124.3 151.5, 126.1 151.5 " fill="#FF0000"/>
<path class="atom-10" d="M 40.9 134.1 L 42.4 134.1 L 42.4 138.9 L 48.2 138.9 L 48.2 134.1 L 49.7 134.1 L 49.7 145.4 L 48.2 145.4 L 48.2 140.2 L 42.4 140.2 L 42.4 145.4 L 40.9 145.4 L 40.9 134.1 " fill="#FF0000"/>
<path class="atom-10" d="M 52.1 139.7 Q 52.1 137.0, 53.4 135.5 Q 54.7 134.0, 57.3 134.0 Q 59.8 134.0, 61.1 135.5 Q 62.4 137.0, 62.4 139.7 Q 62.4 142.5, 61.1 144.0 Q 59.7 145.6, 57.3 145.6 Q 54.8 145.6, 53.4 144.0 Q 52.1 142.5, 52.1 139.7 M 57.3 144.3 Q 59.0 144.3, 59.9 143.2 Q 60.8 142.0, 60.8 139.7 Q 60.8 137.5, 59.9 136.4 Q 59.0 135.2, 57.3 135.2 Q 55.5 135.2, 54.6 136.4 Q 53.7 137.5, 53.7 139.7 Q 53.7 142.0, 54.6 143.2 Q 55.5 144.3, 57.3 144.3 " fill="#FF0000"/>
<path class="atom-12" d="M 230.3 98.1 Q 230.3 95.4, 231.7 93.8 Q 233.0 92.3, 235.5 92.3 Q 238.0 92.3, 239.4 93.8 Q 240.7 95.4, 240.7 98.1 Q 240.7 100.8, 239.3 102.4 Q 238.0 103.9, 235.5 103.9 Q 233.0 103.9, 231.7 102.4 Q 230.3 100.8, 230.3 98.1 M 235.5 102.7 Q 237.2 102.7, 238.2 101.5 Q 239.1 100.3, 239.1 98.1 Q 239.1 95.9, 238.2 94.7 Q 237.2 93.6, 235.5 93.6 Q 233.8 93.6, 232.8 94.7 Q 231.9 95.8, 231.9 98.1 Q 231.9 100.4, 232.8 101.5 Q 233.8 102.7, 235.5 102.7 " fill="#FF0000"/>
<path class="atom-13" d="M 189.7 154.1 Q 189.7 151.4, 191.0 149.8 Q 192.4 148.3, 194.9 148.3 Q 197.4 148.3, 198.7 149.8 Q 200.1 151.4, 200.1 154.1 Q 200.1 156.8, 198.7 158.4 Q 197.4 159.9, 194.9 159.9 Q 192.4 159.9, 191.0 158.4 Q 189.7 156.8, 189.7 154.1 M 194.9 158.7 Q 196.6 158.7, 197.5 157.5 Q 198.5 156.4, 198.5 154.1 Q 198.5 151.9, 197.5 150.7 Q 196.6 149.6, 194.9 149.6 Q 193.2 149.6, 192.2 150.7 Q 191.3 151.8, 191.3 154.1 Q 191.3 156.4, 192.2 157.5 Q 193.2 158.7, 194.9 158.7 " fill="#FF0000"/>
<path class="atom-13" d="M 201.8 148.5 L 203.4 148.5 L 203.4 153.3 L 209.2 153.3 L 209.2 148.5 L 210.7 148.5 L 210.7 159.8 L 209.2 159.8 L 209.2 154.5 L 203.4 154.5 L 203.4 159.8 L 201.8 159.8 L 201.8 148.5 " fill="#FF0000"/>
<path class="legend" d="M 118.2 181.9 Q 118.2 179.6, 118.9 177.7 Q 119.5 175.8, 120.8 173.8 L 121.7 174.4 Q 120.7 176.3, 120.1 178.0 Q 119.6 179.7, 119.6 181.9 Q 119.6 184.0, 120.1 185.8 Q 120.7 187.5, 121.7 189.4 L 120.8 190.0 Q 119.5 188.0, 118.9 186.1 Q 118.2 184.2, 118.2 181.9 " fill="#000000"/>
<path class="legend" d="M 122.6 177.3 Q 123.1 176.2, 124.0 175.6 Q 125.0 175.0, 126.4 175.0 Q 128.1 175.0, 129.1 175.9 Q 130.0 176.8, 130.0 178.5 Q 130.0 180.2, 128.8 181.7 Q 127.6 183.3, 125.0 185.2 L 130.2 185.2 L 130.2 186.4 L 122.6 186.4 L 122.6 185.4 Q 124.7 183.9, 126.0 182.8 Q 127.2 181.6, 127.8 180.6 Q 128.4 179.6, 128.4 178.6 Q 128.4 177.5, 127.9 176.9 Q 127.4 176.3, 126.4 176.3 Q 125.5 176.3, 124.9 176.6 Q 124.3 177.0, 123.9 177.8 L 122.6 177.3 " fill="#000000"/>
<path class="legend" d="M 135.2 181.9 Q 135.2 184.2, 134.5 186.1 Q 133.9 188.0, 132.6 190.0 L 131.7 189.4 Q 132.7 187.5, 133.2 185.8 Q 133.8 184.0, 133.8 181.9 Q 133.8 179.7, 133.2 178.0 Q 132.7 176.3, 131.7 174.4 L 132.6 173.8 Q 133.9 175.8, 134.5 177.7 Q 135.2 179.6, 135.2 181.9 " fill="#000000"/>
</g>
    <g transform="translate(254.00000000000003, 0) scale(1 1) "><line x1="5" y1="100" x2="35" y2="100" style="stroke:rgb(0,0,0);stroke-width:2"/>
  <line x1="34" y1="100" x2="29" y2="95" style="stroke:rgb(0,0,0);stroke-width:2"/>
  <line x1="34" y1="100" x2="29" y2="105" style="stroke:rgb(0,0,0);stroke-width:2"/>
</g>
    <g transform="translate(294.0, 0) scale(1 1) "><!-- END OF HEADER -->
<rect style="opacity:1.0;fill:#FFFFFF;stroke:none" width="205.0" height="200.0" x="0.0" y="0.0"> </rect>
<path class="bond-0 atom-0 atom-1" d="M 194.2,91.6 L 155.8,127.3" style="fill:none;fill-rule:evenodd;stroke:#000000;stroke-width:2.0px;stroke-linecap:butt;stroke-linejoin:miter;stroke-opacity:1"/>
<path class="bond-1 atom-1 atom-2" d="M 155.8,127.3 L 105.7,111.9" style="fill:none;fill-rule:evenodd;stroke:#000000;stroke-width:2.0px;stroke-linecap:butt;stroke-linejoin:miter;stroke-opacity:1"/>
<path class="bond-2 atom-2 atom-3" d="M 105.7,111.9 L 121.1,61.8" style="fill:none;fill-rule:evenodd;stroke:#000000;stroke-width:2.0px;stroke-linecap:butt;stroke-linejoin:miter;stroke-opacity:1"/>
<path class="bond-3 atom-2 atom-4" d="M 105.7,111.9 L 90.3,162.1" style="fill:none;fill-rule:evenodd;stroke:#000000;stroke-width:2.0px;stroke-linecap:butt;stroke-linejoin:miter;stroke-opacity:1"/>
<path class="bond-4 atom-2 atom-5" d="M 105.7,111.9 L 55.5,96.5" style="fill:none;fill-rule:evenodd;stroke:#000000;stroke-width:2.0px;stroke-linecap:butt;stroke-linejoin:miter;stroke-opacity:1"/>
<path class="bond-5 atom-5 atom-6" d="M 54.5,92.1 L 38.7,106.8" style="fill:none;fill-rule:evenodd;stroke:#000000;stroke-width:2.0px;stroke-linecap:butt;stroke-linejoin:miter;stroke-opacity:1"/>
<path class="bond-5 atom-5 atom-6" d="M 38.7,106.8 L 22.9,121.5" style="fill:none;fill-rule:evenodd;stroke:#FF0000;stroke-width:2.0px;stroke-linecap:butt;stroke-linejoin:miter;stroke-opacity:1"/>
<path class="bond-5 atom-5 atom-6" d="M 59.8,97.9 L 44.1,112.5" style="fill:none;fill-rule:evenodd;stroke:#000000;stroke-width:2.0px;stroke-linecap:butt;stroke-linejoin:miter;stroke-opacity:1"/>
<path class="bond-5 atom-5 atom-6" d="M 44.1,112.5 L 28.3,127.2" style="fill:none;fill-rule:evenodd;stroke:#FF0000;stroke-width:2.0px;stroke-linecap:butt;stroke-linejoin:miter;stroke-opacity:1"/>
<path class="bond-6 atom-5 atom-7" d="M 55.5,96.5 L 50.7,75.7" style="fill:none;fill-rule:evenodd;stroke:#000000;stroke-width:2.0px;stroke-linecap:butt;stroke-linejoin:miter;stroke-opacity:1"/>
<path class="bond-6 atom-5 atom-7" d="M 50.7,75.7 L 45.9,54.9" style="fill:none;fill-rule:evenodd;stroke:#FF0000;stroke-width:2.0px;stroke-linecap:butt;stroke-linejoin:miter;stroke-opacity:1"/>
<path d="M 157.8,125.6 L 155.8,127.3 L 153.3,126.6" style="fill:none;stroke:#000000;stroke-width:2.0px;stroke-linecap:butt;stroke-linejoin:miter;stroke-opacity:1;"/>
<path d="M 58.0,97.3 L 55.5,96.5 L 55.3,95.5" style="fill:none;stroke:#000000;stroke-width:2.0px;stroke-linecap:butt;stroke-linejoin:miter;stroke-opacity:1;"/>
<path class="atom-6" d="M 10.2 132.3 Q 10.2 128.8, 12.0 126.8 Q 13.8 124.8, 17.1 124.8 Q 20.4 124.8, 22.1 126.8 Q 23.9 128.8, 23.9 132.3 Q 23.9 135.9, 22.1 138.0 Q 20.3 140.0, 17.1 140.0 Q 13.8 140.0, 12.0 138.0 Q 10.2 136.0, 10.2 132.3 M 17.1 138.4 Q 19.3 138.4, 20.6 136.8 Q 21.8 135.3, 21.8 132.3 Q 21.8 129.4, 20.6 127.9 Q 19.3 126.5, 17.1 126.5 Q 14.8 126.5, 13.6 127.9 Q 12.3 129.4, 12.3 132.3 Q 12.3 135.3, 13.6 136.8 Q 14.8 138.4, 17.1 138.4 " fill="#FF0000"/>
<path class="atom-7" d="M 36.9 45.4 Q 36.9 41.9, 38.7 39.9 Q 40.4 37.9, 43.7 37.9 Q 47.0 37.9, 48.8 39.9 Q 50.6 41.9, 50.6 45.4 Q 50.6 49.1, 48.8 51.1 Q 47.0 53.1, 43.7 53.1 Q 40.5 53.1, 38.7 51.1 Q 36.9 49.1, 36.9 45.4 M 43.7 51.5 Q 46.0 51.5, 47.2 50.0 Q 48.5 48.4, 48.5 45.4 Q 48.5 42.5, 47.2 41.1 Q 46.0 39.6, 43.7 39.6 Q 41.5 39.6, 40.2 41.0 Q 39.0 42.5, 39.0 45.4 Q 39.0 48.4, 40.2 50.0 Q 41.5 51.5, 43.7 51.5 " fill="#FF0000"/>
<path class="atom-7" d="M 52.9 38.1 L 54.9 38.1 L 54.9 44.4 L 62.5 44.4 L 62.5 38.1 L 64.5 38.1 L 64.5 52.9 L 62.5 52.9 L 62.5 46.1 L 54.9 46.1 L 54.9 52.9 L 52.9 52.9 L 52.9 38.1 " fill="#FF0000"/>
</g>
    <g transform="translate(499.0, 0) scale(1 1) "><line x1="15" y1="100" x2="25" y2="100" style="stroke:rgb(0,0,0);stroke-width:2"/>
  <line x1="20" y1="95" x2="20" y2="105" style="stroke:rgb(0,0,0);stroke-width:2"/>
</g>
    <g transform="translate(539.0, 0) scale(1 1) "><!-- END OF HEADER -->
<rect style="opacity:1.0;fill:#FFFFFF;stroke:none" width="285.0" height="200.0" x="0.0" y="0.0"> </rect>
<path class="bond-0 atom-0 atom-1" d="M 63.7,10.0 L 101.5,17.0" style="fill:none;fill-rule:evenodd;stroke:#000000;stroke-width:2.0px;stroke-linecap:butt;stroke-linejoin:miter;stroke-opacity:1"/>
<path class="bond-1 atom-1 atom-2" d="M 101.5,17.0 L 114.4,53.2" style="fill:none;fill-rule:evenodd;stroke:#000000;stroke-width:2.0px;stroke-linecap:butt;stroke-linejoin:miter;stroke-opacity:1"/>
<path class="bond-2 atom-2 atom-3" d="M 114.4,53.2 L 127.3,89.5" style="fill:none;fill-rule:evenodd;stroke:#000000;stroke-width:2.0px;stroke-linecap:butt;stroke-linejoin:miter;stroke-opacity:1"/>
<path class="bond-3 atom-3 atom-4" d="M 127.3,89.5 L 102.3,118.8" style="fill:none;fill-rule:evenodd;stroke:#000000;stroke-width:2.0px;stroke-linecap:butt;stroke-linejoin:miter;stroke-opacity:1"/>
<path class="bond-4 atom-4 atom-5" d="M 102.3,118.8 L 64.5,111.8" style="fill:none;fill-rule:evenodd;stroke:#000000;stroke-width:2.0px;stroke-linecap:butt;stroke-linejoin:miter;stroke-opacity:1"/>
<path class="bond-5 atom-5 atom-6" d="M 64.5,111.8 L 54.9,123.1" style="fill:none;fill-rule:evenodd;stroke:#000000;stroke-width:2.0px;stroke-linecap:butt;stroke-linejoin:miter;stroke-opacity:1"/>
<path class="bond-5 atom-5 atom-6" d="M 54.9,123.1 L 45.3,134.3" style="fill:none;fill-rule:evenodd;stroke:#FF0000;stroke-width:2.0px;stroke-linecap:butt;stroke-linejoin:miter;stroke-opacity:1"/>
<path class="bond-6 atom-4 atom-7" d="M 102.3,118.8 L 115.2,155.0" style="fill:none;fill-rule:evenodd;stroke:#000000;stroke-width:2.0px;stroke-linecap:butt;stroke-linejoin:miter;stroke-opacity:1"/>
<path class="bond-7 atom-7 atom-8" d="M 113.1,157.5 L 129.7,160.6" style="fill:none;fill-rule:evenodd;stroke:#000000;stroke-width:2.0px;stroke-linecap:butt;stroke-linejoin:miter;stroke-opacity:1"/>
<path class="bond-7 atom-7 atom-8" d="M 129.7,160.6 L 146.3,163.6" style="fill:none;fill-rule:evenodd;stroke:#FF0000;stroke-width:2.0px;stroke-linecap:butt;stroke-linejoin:miter;stroke-opacity:1"/>
<path class="bond-7 atom-7 atom-8" d="M 114.1,152.0 L 130.7,155.0" style="fill:none;fill-rule:evenodd;stroke:#000000;stroke-width:2.0px;stroke-linecap:butt;stroke-linejoin:miter;stroke-opacity:1"/>
<path class="bond-7 atom-7 atom-8" d="M 130.7,155.0 L 147.3,158.1" style="fill:none;fill-rule:evenodd;stroke:#FF0000;stroke-width:2.0px;stroke-linecap:butt;stroke-linejoin:miter;stroke-opacity:1"/>
<path class="bond-8 atom-7 atom-9" d="M 115.2,155.0 L 105.6,166.3" style="fill:none;fill-rule:evenodd;stroke:#000000;stroke-width:2.0px;stroke-linecap:butt;stroke-linejoin:miter;stroke-opacity:1"/>
<path class="bond-8 atom-7 atom-9" d="M 105.6,166.3 L 96.0,177.6" style="fill:none;fill-rule:evenodd;stroke:#FF0000;stroke-width:2.0px;stroke-linecap:butt;stroke-linejoin:miter;stroke-opacity:1"/>
<path class="bond-9 atom-2 atom-10" d="M 114.4,53.2 L 150.7,40.3" style="fill:none;fill-rule:evenodd;stroke:#000000;stroke-width:2.0px;stroke-linecap:butt;stroke-linejoin:miter;stroke-opacity:1"/>
<path class="bond-10 atom-10 atom-11" d="M 150.7,40.3 L 180.0,65.3" style="fill:none;fill-rule:evenodd;stroke:#000000;stroke-width:2.0px;stroke-linecap:butt;stroke-linejoin:miter;stroke-opacity:1"/>
<path class="bond-11 atom-11 atom-12" d="M 180.0,65.3 L 216.2,52.4" style="fill:none;fill-rule:evenodd;stroke:#000000;stroke-width:2.0px;stroke-linecap:butt;stroke-linejoin:miter;stroke-opacity:1"/>
<path class="bond-12 atom-12 atom-13" d="M 216.2,52.4 L 227.7,62.2" style="fill:none;fill-rule:evenodd;stroke:#000000;stroke-width:2.0px;stroke-linecap:butt;stroke-linejoin:miter;stroke-opacity:1"/>
<path class="bond-12 atom-12 atom-13" d="M 227.7,62.2 L 239.3,72.1" style="fill:none;fill-rule:evenodd;stroke:#FF0000;stroke-width:2.0px;stroke-linecap:butt;stroke-linejoin:miter;stroke-opacity:1"/>
<path class="bond-13 atom-11 atom-14" d="M 180.0,65.3 L 173.0,103.2" style="fill:none;fill-rule:evenodd;stroke:#000000;stroke-width:2.0px;stroke-linecap:butt;stroke-linejoin:miter;stroke-opacity:1"/>
<path class="bond-14 atom-14 atom-15" d="M 173.6,99.9 L 157.8,105.5" style="fill:none;fill-rule:evenodd;stroke:#000000;stroke-width:2.0px;stroke-linecap:butt;stroke-linejoin:miter;stroke-opacity:1"/>
<path class="bond-14 atom-14 atom-15" d="M 157.8,105.5 L 142.0,111.1" style="fill:none;fill-rule:evenodd;stroke:#FF0000;stroke-width:2.0px;stroke-linecap:butt;stroke-linejoin:miter;stroke-opacity:1"/>
<path class="bond-14 atom-14 atom-15" d="M 175.5,105.3 L 159.7,110.9" style="fill:none;fill-rule:evenodd;stroke:#000000;stroke-width:2.0px;stroke-linecap:butt;stroke-linejoin:miter;stroke-opacity:1"/>
<path class="bond-14 atom-14 atom-15" d="M 159.7,110.9 L 143.9,116.5" style="fill:none;fill-rule:evenodd;stroke:#FF0000;stroke-width:2.0px;stroke-linecap:butt;stroke-linejoin:miter;stroke-opacity:1"/>
<path class="bond-15 atom-14 atom-16" d="M 173.0,103.2 L 184.5,113.0" style="fill:none;fill-rule:evenodd;stroke:#000000;stroke-width:2.0px;stroke-linecap:butt;stroke-linejoin:miter;stroke-opacity:1"/>
<path class="bond-15 atom-14 atom-16" d="M 184.5,113.0 L 196.0,122.8" style="fill:none;fill-rule:evenodd;stroke:#FF0000;stroke-width:2.0px;stroke-linecap:butt;stroke-linejoin:miter;stroke-opacity:1"/>
<path class="bond-16 atom-2 atom-17" d="M 114.4,53.2 L 78.2,66.1" style="fill:none;fill-rule:evenodd;stroke:#000000;stroke-width:2.0px;stroke-linecap:butt;stroke-linejoin:miter;stroke-opacity:1"/>
<path class="bond-17 atom-17 atom-18" d="M 81.2,65.0 L 69.1,54.7" style="fill:none;fill-rule:evenodd;stroke:#000000;stroke-width:2.0px;stroke-linecap:butt;stroke-linejoin:miter;stroke-opacity:1"/>
<path class="bond-17 atom-17 atom-18" d="M 69.1,54.7 L 57.0,44.3" style="fill:none;fill-rule:evenodd;stroke:#FF0000;stroke-width:2.0px;stroke-linecap:butt;stroke-linejoin:miter;stroke-opacity:1"/>
<path class="bond-17 atom-17 atom-18" d="M 76.9,68.8 L 65.4,59.0" style="fill:none;fill-rule:evenodd;stroke:#000000;stroke-width:2.0px;stroke-linecap:butt;stroke-linejoin:miter;stroke-opacity:1"/>
<path class="bond-17 atom-17 atom-18" d="M 65.4,59.0 L 53.3,48.6" style="fill:none;fill-rule:evenodd;stroke:#FF0000;stroke-width:2.0px;stroke-linecap:butt;stroke-linejoin:miter;stroke-opacity:1"/>
<path class="bond-18 atom-17 atom-19" d="M 78.2,66.1 L 74.5,74.2" style="fill:none;fill-rule:evenodd;stroke:#000000;stroke-width:2.0px;stroke-linecap:butt;stroke-linejoin:miter;stroke-opacity:1"/>
<path class="bond-18 atom-17 atom-19" d="M 74.5,74.2 L 70.8,82.3" style="fill:none;fill-rule:evenodd;stroke:#FF0000;stroke-width:2.0px;stroke-linecap:butt;stroke-linejoin:miter;stroke-opacity:1"/>
<path d="M 99.6,16.6 L 101.5,17.0 L 102.2,18.8" style="fill:none;stroke:#000000;stroke-width:2.0px;stroke-linecap:butt;stroke-linejoin:miter;stroke-opacity:1;"/>
<path d="M 126.7,87.7 L 127.3,89.5 L 126.0,91.0" style="fill:none;stroke:#000000;stroke-width:2.0px;stroke-linecap:butt;stroke-linejoin:miter;stroke-opacity:1;"/>
<path d="M 66.4,112.2 L 64.5,111.8 L 64.0,112.4" style="fill:none;stroke:#000000;stroke-width:2.0px;stroke-linecap:butt;stroke-linejoin:miter;stroke-opacity:1;"/>
<path d="M 114.6,153.2 L 115.2,155.0 L 114.7,155.6" style="fill:none;stroke:#000000;stroke-width:2.0px;stroke-linecap:butt;stroke-linejoin:miter;stroke-opacity:1;"/>
<path d="M 148.9,41.0 L 150.7,40.3 L 152.1,41.6" style="fill:none;stroke:#000000;stroke-width:2.0px;stroke-linecap:butt;stroke-linejoin:miter;stroke-opacity:1;"/>
<path d="M 214.4,53.1 L 216.2,52.4 L 216.8,52.9" style="fill:none;stroke:#000000;stroke-width:2.0px;stroke-linecap:butt;stroke-linejoin:miter;stroke-opacity:1;"/>
<path d="M 173.3,101.3 L 173.0,103.2 L 173.6,103.6" style="fill:none;stroke:#000000;stroke-width:2.0px;stroke-linecap:butt;stroke-linejoin:miter;stroke-opacity:1;"/>
<path d="M 80.0,65.5 L 78.2,66.1 L 78.0,66.5" style="fill:none;stroke:#000000;stroke-width:2.0px;stroke-linecap:butt;stroke-linejoin:miter;stroke-opacity:1;"/>
<path class="atom-6" d="M 23.8 135.7 L 25.2 135.7 L 25.2 140.3 L 30.8 140.3 L 30.8 135.7 L 32.3 135.7 L 32.3 146.6 L 30.8 146.6 L 30.8 141.6 L 25.2 141.6 L 25.2 146.6 L 23.8 146.6 L 23.8 135.7 " fill="#FF0000"/>
<path class="atom-6" d="M 34.5 141.1 Q 34.5 138.5, 35.8 137.0 Q 37.1 135.6, 39.5 135.6 Q 42.0 135.6, 43.2 137.0 Q 44.5 138.5, 44.5 141.1 Q 44.5 143.8, 43.2 145.3 Q 41.9 146.8, 39.5 146.8 Q 37.1 146.8, 35.8 145.3 Q 34.5 143.8, 34.5 141.1 M 39.5 145.5 Q 41.2 145.5, 42.1 144.4 Q 43.0 143.3, 43.0 141.1 Q 43.0 139.0, 42.1 137.9 Q 41.2 136.8, 39.5 136.8 Q 37.9 136.8, 37.0 137.9 Q 36.1 139.0, 36.1 141.1 Q 36.1 143.3, 37.0 144.4 Q 37.9 145.5, 39.5 145.5 " fill="#FF0000"/>
<path class="atom-8" d="M 148.1 162.0 Q 148.1 159.4, 149.4 158.0 Q 150.6 156.5, 153.1 156.5 Q 155.5 156.5, 156.8 158.0 Q 158.1 159.4, 158.1 162.0 Q 158.1 164.7, 156.8 166.2 Q 155.4 167.7, 153.1 167.7 Q 150.7 167.7, 149.4 166.2 Q 148.1 164.7, 148.1 162.0 M 153.1 166.5 Q 154.7 166.5, 155.6 165.3 Q 156.5 164.2, 156.5 162.0 Q 156.5 159.9, 155.6 158.8 Q 154.7 157.7, 153.1 157.7 Q 151.4 157.7, 150.5 158.8 Q 149.6 159.9, 149.6 162.0 Q 149.6 164.2, 150.5 165.3 Q 151.4 166.5, 153.1 166.5 " fill="#FF0000"/>
<path class="atom-9" d="M 74.5 178.9 L 76.0 178.9 L 76.0 183.6 L 81.5 183.6 L 81.5 178.9 L 83.0 178.9 L 83.0 189.8 L 81.5 189.8 L 81.5 184.8 L 76.0 184.8 L 76.0 189.8 L 74.5 189.8 L 74.5 178.9 " fill="#FF0000"/>
<path class="atom-9" d="M 85.3 184.4 Q 85.3 181.7, 86.6 180.3 Q 87.8 178.8, 90.3 178.8 Q 92.7 178.8, 94.0 180.3 Q 95.3 181.7, 95.3 184.4 Q 95.3 187.0, 94.0 188.5 Q 92.6 190.0, 90.3 190.0 Q 87.9 190.0, 86.6 188.5 Q 85.3 187.0, 85.3 184.4 M 90.3 188.8 Q 91.9 188.8, 92.8 187.7 Q 93.7 186.5, 93.7 184.4 Q 93.7 182.2, 92.8 181.1 Q 91.9 180.0, 90.3 180.0 Q 88.6 180.0, 87.7 181.1 Q 86.8 182.2, 86.8 184.4 Q 86.8 186.6, 87.7 187.7 Q 88.6 188.8, 90.3 188.8 " fill="#FF0000"/>
<path class="atom-13" d="M 240.5 77.4 Q 240.5 74.8, 241.8 73.3 Q 243.1 71.9, 245.5 71.9 Q 247.9 71.9, 249.2 73.3 Q 250.5 74.8, 250.5 77.4 Q 250.5 80.1, 249.2 81.6 Q 247.9 83.1, 245.5 83.1 Q 243.1 83.1, 241.8 81.6 Q 240.5 80.1, 240.5 77.4 M 245.5 81.8 Q 247.2 81.8, 248.1 80.7 Q 249.0 79.6, 249.0 77.4 Q 249.0 75.3, 248.1 74.2 Q 247.2 73.1, 245.5 73.1 Q 243.8 73.1, 242.9 74.2 Q 242.0 75.3, 242.0 77.4 Q 242.0 79.6, 242.9 80.7 Q 243.8 81.8, 245.5 81.8 " fill="#FF0000"/>
<path class="atom-13" d="M 252.2 72.0 L 253.7 72.0 L 253.7 76.6 L 259.3 76.6 L 259.3 72.0 L 260.7 72.0 L 260.7 82.9 L 259.3 82.9 L 259.3 77.9 L 253.7 77.9 L 253.7 82.9 L 252.2 82.9 L 252.2 72.0 " fill="#FF0000"/>
<path class="atom-15" d="M 131.7 116.1 Q 131.7 113.4, 133.0 112.0 Q 134.3 110.5, 136.7 110.5 Q 139.1 110.5, 140.4 112.0 Q 141.7 113.4, 141.7 116.1 Q 141.7 118.7, 140.4 120.2 Q 139.1 121.7, 136.7 121.7 Q 134.3 121.7, 133.0 120.2 Q 131.7 118.7, 131.7 116.1 M 136.7 120.5 Q 138.4 120.5, 139.3 119.4 Q 140.2 118.2, 140.2 116.1 Q 140.2 113.9, 139.3 112.8 Q 138.4 111.8, 136.7 111.8 Q 135.1 111.8, 134.2 112.8 Q 133.3 113.9, 133.3 116.1 Q 133.3 118.3, 134.2 119.4 Q 135.1 120.5, 136.7 120.5 " fill="#FF0000"/>
<path class="atom-16" d="M 197.3 128.1 Q 197.3 125.5, 198.6 124.1 Q 199.9 122.6, 202.3 122.6 Q 204.7 122.6, 206.0 124.1 Q 207.3 125.5, 207.3 128.1 Q 207.3 130.8, 206.0 132.3 Q 204.7 133.8, 202.3 133.8 Q 199.9 133.8, 198.6 132.3 Q 197.3 130.8, 197.3 128.1 M 202.3 132.6 Q 203.9 132.6, 204.8 131.5 Q 205.7 130.3, 205.7 128.1 Q 205.7 126.0, 204.8 124.9 Q 203.9 123.8, 202.3 123.8 Q 200.6 123.8, 199.7 124.9 Q 198.8 126.0, 198.8 128.1 Q 198.8 130.3, 199.7 131.5 Q 200.6 132.6, 202.3 132.6 " fill="#FF0000"/>
<path class="atom-16" d="M 209.0 122.7 L 210.4 122.7 L 210.4 127.4 L 216.0 127.4 L 216.0 122.7 L 217.5 122.7 L 217.5 133.6 L 216.0 133.6 L 216.0 128.6 L 210.4 128.6 L 210.4 133.6 L 209.0 133.6 L 209.0 122.7 " fill="#FF0000"/>
<path class="atom-18" d="M 43.9 41.2 Q 43.9 38.6, 45.2 37.1 Q 46.5 35.6, 48.9 35.6 Q 51.3 35.6, 52.6 37.1 Q 53.9 38.6, 53.9 41.2 Q 53.9 43.8, 52.6 45.3 Q 51.3 46.8, 48.9 46.8 Q 46.5 46.8, 45.2 45.3 Q 43.9 43.8, 43.9 41.2 M 48.9 45.6 Q 50.5 45.6, 51.4 44.5 Q 52.3 43.4, 52.3 41.2 Q 52.3 39.0, 51.4 38.0 Q 50.5 36.9, 48.9 36.9 Q 47.2 36.9, 46.3 38.0 Q 45.4 39.0, 45.4 41.2 Q 45.4 43.4, 46.3 44.5 Q 47.2 45.6, 48.9 45.6 " fill="#FF0000"/>
<path class="atom-19" d="M 51.9 83.7 L 53.4 83.7 L 53.4 88.3 L 59.0 88.3 L 59.0 83.7 L 60.5 83.7 L 60.5 94.6 L 59.0 94.6 L 59.0 89.6 L 53.4 89.6 L 53.4 94.6 L 51.9 94.6 L 51.9 83.7 " fill="#FF0000"/>
<path class="atom-19" d="M 62.7 89.1 Q 62.7 86.5, 64.0 85.0 Q 65.3 83.6, 67.7 83.6 Q 70.1 83.6, 71.4 85.0 Q 72.7 86.5, 72.7 89.1 Q 72.7 91.8, 71.4 93.3 Q 70.1 94.8, 67.7 94.8 Q 65.3 94.8, 64.0 93.3 Q 62.7 91.8, 62.7 89.1 M 67.7 93.5 Q 69.4 93.5, 70.3 92.4 Q 71.2 91.3, 71.2 89.1 Q 71.2 87.0, 70.3 85.9 Q 69.4 84.8, 67.7 84.8 Q 66.0 84.8, 65.1 85.9 Q 64.2 87.0, 64.2 89.1 Q 64.2 91.3, 65.1 92.4 Q 66.0 93.5, 67.7 93.5 " fill="#FF0000"/>
</g>
  </g>
</svg>
