<?xml version='1.0' encoding='ASCII' standalone='yes'?>
<svg xmlns="http://www.w3.org/2000/svg" xmlns:xlink="http://www.w3.org/1999/xlink" version="1.1" width="946.0px" viewBox="0 0 946.0 200.0" height="200.0px">
  <g>
    <g transform="translate(0, 0) scale(1 1) "><!-- END OF HEADER -->
<rect style="opacity:1.0;fill:#FFFFFF;stroke:none" width="304.0" height="200.0" x="0.0" y="0.0"> </rect>
<path class="bond-0 atom-0 atom-1" d="M 136.9,149.6 L 130.1,123.6" style="fill:none;fill-rule:evenodd;stroke:#000000;stroke-width:2.0px;stroke-linecap:butt;stroke-linejoin:miter;stroke-opacity:1"/>
<path class="bond-1 atom-1 atom-2" d="M 130.1,123.6 L 104.1,116.4" style="fill:none;fill-rule:evenodd;stroke:#000000;stroke-width:2.0px;stroke-linecap:butt;stroke-linejoin:miter;stroke-opacity:1"/>
<path class="bond-2 atom-2 atom-3" d="M 104.1,116.4 L 97.3,90.3" style="fill:none;fill-rule:evenodd;stroke:#000000;stroke-width:2.0px;stroke-linecap:butt;stroke-linejoin:miter;stroke-opacity:1"/>
<path class="bond-3 atom-3 atom-4" d="M 97.3,90.3 L 104.7,83.1" style="fill:none;fill-rule:evenodd;stroke:#000000;stroke-width:2.0px;stroke-linecap:butt;stroke-linejoin:miter;stroke-opacity:1"/>
<path class="bond-3 atom-3 atom-4" d="M 104.7,83.1 L 112.1,75.8" style="fill:none;fill-rule:evenodd;stroke:#FF0000;stroke-width:2.0px;stroke-linecap:butt;stroke-linejoin:miter;stroke-opacity:1"/>
<path class="bond-4 atom-3 atom-5" d="M 97.3,90.3 L 71.4,83.2" style="fill:none;fill-rule:evenodd;stroke:#000000;stroke-width:2.0px;stroke-linecap:butt;stroke-linejoin:miter;stroke-opacity:1"/>
<path class="bond-5 atom-5 atom-6" d="M 71.4,83.2 L 64.2,109.1" style="fill:none;fill-rule:evenodd;stroke:#000000;stroke-width:2.0px;stroke-linecap:butt;stroke-linejoin:miter;stroke-opacity:1"/>
<path class="bond-6 atom-5 atom-7" d="M 71.4,83.2 L 78.5,57.2" style="fill:none;fill-rule:evenodd;stroke:#000000;stroke-width:2.0px;stroke-linecap:butt;stroke-linejoin:miter;stroke-opacity:1"/>
<path class="bond-7 atom-5 atom-8" d="M 71.4,83.2 L 45.4,76.0" style="fill:none;fill-rule:evenodd;stroke:#000000;stroke-width:2.0px;stroke-linecap:butt;stroke-linejoin:miter;stroke-opacity:1"/>
<path class="bond-8 atom-8 atom-9" d="M 47.7,76.6 L 44.8,65.5" style="fill:none;fill-rule:evenodd;stroke:#000000;stroke-width:2.0px;stroke-linecap:butt;stroke-linejoin:miter;stroke-opacity:1"/>
<path class="bond-8 atom-8 atom-9" d="M 44.8,65.5 L 41.9,54.3" style="fill:none;fill-rule:evenodd;stroke:#FF0000;stroke-width:2.0px;stroke-linecap:butt;stroke-linejoin:miter;stroke-opacity:1"/>
<path class="bond-8 atom-8 atom-9" d="M 43.8,77.7 L 40.9,66.5" style="fill:none;fill-rule:evenodd;stroke:#000000;stroke-width:2.0px;stroke-linecap:butt;stroke-linejoin:miter;stroke-opacity:1"/>
<path class="bond-8 atom-8 atom-9" d="M 40.9,66.5 L 37.9,55.3" style="fill:none;fill-rule:evenodd;stroke:#FF0000;stroke-width:2.0px;stroke-linecap:butt;stroke-linejoin:miter;stroke-opacity:1"/>
<path class="bond-9 atom-8 atom-10" d="M 45.4,76.0 L 38.0,83.3" style="fill:none;fill-rule:evenodd;stroke:#000000;stroke-width:2.0px;stroke-linecap:butt;stroke-linejoin:miter;stroke-opacity:1"/>
<path class="bond-9 atom-8 atom-10" d="M 38.0,83.3 L 30.6,90.6" style="fill:none;fill-rule:evenodd;stroke:#FF0000;stroke-width:2.0px;stroke-linecap:butt;stroke-linejoin:miter;stroke-opacity:1"/>
<path class="bond-10 atom-1 atom-11" d="M 130.1,123.6 L 149.3,104.7" style="fill:none;fill-rule:evenodd;stroke:#000000;stroke-width:2.0px;stroke-linecap:butt;stroke-linejoin:miter;stroke-opacity:1"/>
<path class="bond-11 atom-11 atom-12" d="M 149.3,104.7 L 146.5,94.1" style="fill:none;fill-rule:evenodd;stroke:#000000;stroke-width:2.0px;stroke-linecap:butt;stroke-linejoin:miter;stroke-opacity:1"/>
<path class="bond-11 atom-11 atom-12" d="M 146.5,94.1 L 143.8,83.5" style="fill:none;fill-rule:evenodd;stroke:#FF0000;stroke-width:2.0px;stroke-linecap:butt;stroke-linejoin:miter;stroke-opacity:1"/>
<path class="bond-12 atom-11 atom-13" d="M 149.3,104.7 L 175.2,111.8" style="fill:none;fill-rule:evenodd;stroke:#000000;stroke-width:2.0px;stroke-linecap:butt;stroke-linejoin:miter;stroke-opacity:1"/>
<path class="bond-13 atom-13 atom-14" d="M 175.2,111.8 L 182.0,137.9" style="fill:none;fill-rule:evenodd;stroke:#000000;stroke-width:2.0px;stroke-linecap:butt;stroke-linejoin:miter;stroke-opacity:1"/>
<path class="bond-14 atom-14 atom-15" d="M 182.0,137.9 L 192.8,140.9" style="fill:none;fill-rule:evenodd;stroke:#000000;stroke-width:2.0px;stroke-linecap:butt;stroke-linejoin:miter;stroke-opacity:1"/>
<path class="bond-14 atom-14 atom-15" d="M 192.8,140.9 L 203.6,143.8" style="fill:none;fill-rule:evenodd;stroke:#FF0000;stroke-width:2.0px;stroke-linecap:butt;stroke-linejoin:miter;stroke-opacity:1"/>
<path class="bond-15 atom-13 atom-16" d="M 175.2,111.8 L 194.4,92.9" style="fill:none;fill-rule:evenodd;stroke:#000000;stroke-width:2.0px;stroke-linecap:butt;stroke-linejoin:miter;stroke-opacity:1"/>
<path class="bond-16 atom-16 atom-17" d="M 194.4,92.9 L 220.4,100.1" style="fill:none;fill-rule:evenodd;stroke:#000000;stroke-width:2.0px;stroke-linecap:butt;stroke-linejoin:miter;stroke-opacity:1"/>
<path class="bond-17 atom-17 atom-18" d="M 220.4,100.1 L 223.1,110.7" style="fill:none;fill-rule:evenodd;stroke:#000000;stroke-width:2.0px;stroke-linecap:butt;stroke-linejoin:miter;stroke-opacity:1"/>
<path class="bond-17 atom-17 atom-18" d="M 223.1,110.7 L 225.9,121.4" style="fill:none;fill-rule:evenodd;stroke:#FF0000;stroke-width:2.0px;stroke-linecap:butt;stroke-linejoin:miter;stroke-opacity:1"/>
<path class="bond-18 atom-17 atom-19" d="M 220.4,100.1 L 239.6,81.2" style="fill:none;fill-rule:evenodd;stroke:#000000;stroke-width:2.0px;stroke-linecap:butt;stroke-linejoin:miter;stroke-opacity:1"/>
<path class="bond-19 atom-19 atom-20" d="M 239.6,81.2 L 220.7,62.0" style="fill:none;fill-rule:evenodd;stroke:#000000;stroke-width:2.0px;stroke-linecap:butt;stroke-linejoin:miter;stroke-opacity:1"/>
<path class="bond-20 atom-19 atom-21" d="M 239.6,81.2 L 258.5,100.4" style="fill:none;fill-rule:evenodd;stroke:#000000;stroke-width:2.0px;stroke-linecap:butt;stroke-linejoin:miter;stroke-opacity:1"/>
<path class="bond-21 atom-19 atom-22" d="M 239.6,81.2 L 258.7,62.3" style="fill:none;fill-rule:evenodd;stroke:#000000;stroke-width:2.0px;stroke-linecap:butt;stroke-linejoin:miter;stroke-opacity:1"/>
<path class="bond-22 atom-22 atom-23" d="M 257.1,63.9 L 268.4,67.1" style="fill:none;fill-rule:evenodd;stroke:#000000;stroke-width:2.0px;stroke-linecap:butt;stroke-linejoin:miter;stroke-opacity:1"/>
<path class="bond-22 atom-22 atom-23" d="M 268.4,67.1 L 279.8,70.2" style="fill:none;fill-rule:evenodd;stroke:#FF0000;stroke-width:2.0px;stroke-linecap:butt;stroke-linejoin:miter;stroke-opacity:1"/>
<path class="bond-22 atom-22 atom-23" d="M 258.1,60.0 L 269.5,63.2" style="fill:none;fill-rule:evenodd;stroke:#000000;stroke-width:2.0px;stroke-linecap:butt;stroke-linejoin:miter;stroke-opacity:1"/>
<path class="bond-22 atom-22 atom-23" d="M 269.5,63.2 L 280.8,66.3" style="fill:none;fill-rule:evenodd;stroke:#FF0000;stroke-width:2.0px;stroke-linecap:butt;stroke-linejoin:miter;stroke-opacity:1"/>
<path class="bond-23 atom-22 atom-24" d="M 258.7,62.3 L 256.0,51.7" style="fill:none;fill-rule:evenodd;stroke:#000000;stroke-width:2.0px;stroke-linecap:butt;stroke-linejoin:miter;stroke-opacity:1"/>
<path class="bond-23 atom-22 atom-24" d="M 256.0,51.7 L 253.2,41.1" style="fill:none;fill-rule:evenodd;stroke:#FF0000;stroke-width:2.0px;stroke-linecap:butt;stroke-linejoin:miter;stroke-opacity:1"/>
<path d="M 105.4,116.8 L 104.1,116.4 L 103.8,115.1" style="fill:none;stroke:#000000;stroke-width:2.0px;stroke-linecap:butt;stroke-linejoin:miter;stroke-opacity:1;"/>
<path d="M 46.7,76.4 L 45.4,76.0 L 45.0,76.4" style="fill:none;stroke:#000000;stroke-width:2.0px;stroke-linecap:butt;stroke-linejoin:miter;stroke-opacity:1;"/>
<path d="M 181.7,136.6 L 182.0,137.9 L 182.5,138.0" style="fill:none;stroke:#000000;stroke-width:2.0px;stroke-linecap:butt;stroke-linejoin:miter;stroke-opacity:1;"/>
<path d="M 193.4,93.9 L 194.4,92.9 L 195.7,93.3" style="fill:none;stroke:#000000;stroke-width:2.0px;stroke-linecap:butt;stroke-linejoin:miter;stroke-opacity:1;"/>
<path d="M 257.8,63.2 L 258.7,62.3 L 258.6,61.8" style="fill:none;stroke:#000000;stroke-width:2.0px;stroke-linecap:butt;stroke-linejoin:miter;stroke-opacity:1;"/>
<path class="atom-4" d="M 113.0 71.5 Q 113.0 69.6, 113.9 68.6 Q 114.8 67.6, 116.5 67.6 Q 118.2 67.6, 119.1 68.6 Q 120.0 69.6, 120.0 71.5 Q 120.0 73.3, 119.1 74.4 Q 118.2 75.4, 116.5 75.4 Q 114.8 75.4, 113.9 74.4 Q 113.0 73.3, 113.0 71.5 M 116.5 74.6 Q 117.7 74.6, 118.3 73.8 Q 118.9 73.0, 118.9 71.5 Q 118.9 70.0, 118.3 69.2 Q 117.7 68.4, 116.5 68.4 Q 115.4 68.4, 114.7 69.2 Q 114.1 70.0, 114.1 71.5 Q 114.1 73.0, 114.7 73.8 Q 115.4 74.6, 116.5 74.6 " fill="#FF0000"/>
<path class="atom-4" d="M 121.2 67.7 L 122.2 67.7 L 122.2 70.9 L 126.1 70.9 L 126.1 67.7 L 127.2 67.7 L 127.2 75.3 L 126.1 75.3 L 126.1 71.8 L 122.2 71.8 L 122.2 75.3 L 121.2 75.3 L 121.2 67.7 " fill="#FF0000"/>
<path class="atom-9" d="M 35.1 50.0 Q 35.1 48.2, 36.0 47.1 Q 36.9 46.1, 38.6 46.1 Q 40.3 46.1, 41.2 47.1 Q 42.1 48.2, 42.1 50.0 Q 42.1 51.8, 41.2 52.9 Q 40.3 53.9, 38.6 53.9 Q 37.0 53.9, 36.0 52.9 Q 35.1 51.8, 35.1 50.0 M 38.6 53.1 Q 39.8 53.1, 40.4 52.3 Q 41.1 51.5, 41.1 50.0 Q 41.1 48.5, 40.4 47.7 Q 39.8 47.0, 38.6 47.0 Q 37.5 47.0, 36.8 47.7 Q 36.2 48.5, 36.2 50.0 Q 36.2 51.5, 36.8 52.3 Q 37.5 53.1, 38.6 53.1 " fill="#FF0000"/>
<path class="atom-10" d="M 15.2 91.2 L 16.2 91.2 L 16.2 94.4 L 20.1 94.4 L 20.1 91.2 L 21.2 91.2 L 21.2 98.8 L 20.1 98.8 L 20.1 95.3 L 16.2 95.3 L 16.2 98.8 L 15.2 98.8 L 15.2 91.2 " fill="#FF0000"/>
<path class="atom-10" d="M 22.7 94.9 Q 22.7 93.1, 23.6 92.1 Q 24.5 91.1, 26.2 91.1 Q 27.9 91.1, 28.8 92.1 Q 29.7 93.1, 29.7 94.9 Q 29.7 96.8, 28.8 97.9 Q 27.9 98.9, 26.2 98.9 Q 24.6 98.9, 23.6 97.9 Q 22.7 96.8, 22.7 94.9 M 26.2 98.0 Q 27.4 98.0, 28.0 97.3 Q 28.7 96.5, 28.7 94.9 Q 28.7 93.5, 28.0 92.7 Q 27.4 91.9, 26.2 91.9 Q 25.1 91.9, 24.4 92.7 Q 23.8 93.4, 23.8 94.9 Q 23.8 96.5, 24.4 97.3 Q 25.1 98.0, 26.2 98.0 " fill="#FF0000"/>
<path class="atom-12" d="M 139.0 78.6 Q 139.0 76.8, 139.9 75.8 Q 140.8 74.7, 142.5 74.7 Q 144.2 74.7, 145.1 75.8 Q 146.0 76.8, 146.0 78.6 Q 146.0 80.5, 145.1 81.5 Q 144.2 82.6, 142.5 82.6 Q 140.8 82.6, 139.9 81.5 Q 139.0 80.5, 139.0 78.6 M 142.5 81.7 Q 143.6 81.7, 144.3 80.9 Q 144.9 80.2, 144.9 78.6 Q 144.9 77.1, 144.3 76.4 Q 143.6 75.6, 142.5 75.6 Q 141.3 75.6, 140.7 76.4 Q 140.1 77.1, 140.1 78.6 Q 140.1 80.2, 140.7 80.9 Q 141.3 81.7, 142.5 81.7 " fill="#FF0000"/>
<path class="atom-12" d="M 147.2 74.8 L 148.2 74.8 L 148.2 78.1 L 152.1 78.1 L 152.1 74.8 L 153.1 74.8 L 153.1 82.5 L 152.1 82.5 L 152.1 78.9 L 148.2 78.9 L 148.2 82.5 L 147.2 82.5 L 147.2 74.8 " fill="#FF0000"/>
<path class="atom-15" d="M 204.5 145.1 Q 204.5 143.2, 205.4 142.2 Q 206.3 141.2, 208.0 141.2 Q 209.7 141.2, 210.6 142.2 Q 211.5 143.2, 211.5 145.1 Q 211.5 146.9, 210.6 148.0 Q 209.6 149.0, 208.0 149.0 Q 206.3 149.0, 205.4 148.0 Q 204.5 146.9, 204.5 145.1 M 208.0 148.2 Q 209.1 148.2, 209.8 147.4 Q 210.4 146.6, 210.4 145.1 Q 210.4 143.6, 209.8 142.8 Q 209.1 142.1, 208.0 142.1 Q 206.8 142.1, 206.2 142.8 Q 205.5 143.6, 205.5 145.1 Q 205.5 146.6, 206.2 147.4 Q 206.8 148.2, 208.0 148.2 " fill="#FF0000"/>
<path class="atom-15" d="M 212.7 141.3 L 213.7 141.3 L 213.7 144.5 L 217.6 144.5 L 217.6 141.3 L 218.6 141.3 L 218.6 148.9 L 217.6 148.9 L 217.6 145.4 L 213.7 145.4 L 213.7 148.9 L 212.7 148.9 L 212.7 141.3 " fill="#FF0000"/>
<path class="atom-18" d="M 223.6 126.2 Q 223.6 124.3, 224.6 123.3 Q 225.5 122.3, 227.2 122.3 Q 228.8 122.3, 229.7 123.3 Q 230.7 124.3, 230.7 126.2 Q 230.7 128.0, 229.7 129.1 Q 228.8 130.1, 227.2 130.1 Q 225.5 130.1, 224.6 129.1 Q 223.6 128.0, 223.6 126.2 M 227.2 129.3 Q 228.3 129.3, 228.9 128.5 Q 229.6 127.7, 229.6 126.2 Q 229.6 124.7, 228.9 123.9 Q 228.3 123.2, 227.2 123.2 Q 226.0 123.2, 225.4 123.9 Q 224.7 124.7, 224.7 126.2 Q 224.7 127.7, 225.4 128.5 Q 226.0 129.3, 227.2 129.3 " fill="#FF0000"/>
<path class="atom-18" d="M 231.8 122.4 L 232.9 122.4 L 232.9 125.6 L 236.8 125.6 L 236.8 122.4 L 237.8 122.4 L 237.8 130.0 L 236.8 130.0 L 236.8 126.5 L 232.9 126.5 L 232.9 130.0 L 231.8 130.0 L 231.8 122.4 " fill="#FF0000"/>
<path class="atom-23" d="M 281.2 69.5 Q 281.2 67.6, 282.1 66.6 Q 283.0 65.6, 284.7 65.6 Q 286.4 65.6, 287.3 66.6 Q 288.2 67.6, 288.2 69.5 Q 288.2 71.3, 287.3 72.4 Q 286.4 73.4, 284.7 73.4 Q 283.0 73.4, 282.1 72.4 Q 281.2 71.3, 281.2 69.5 M 284.7 72.6 Q 285.9 72.6, 286.5 71.8 Q 287.1 71.0, 287.1 69.5 Q 287.1 68.0, 286.5 67.2 Q 285.9 66.5, 284.7 66.5 Q 283.5 66.5, 282.9 67.2 Q 282.3 68.0, 282.3 69.5 Q 282.3 71.0, 282.9 71.8 Q 283.5 72.6, 284.7 72.6 " fill="#FF0000"/>
<path class="atom-24" d="M 248.5 36.2 Q 248.5 34.4, 249.4 33.4 Q 250.3 32.4, 252.0 32.4 Q 253.6 32.4, 254.6 33.4 Q 255.5 34.4, 255.5 36.2 Q 255.5 38.1, 254.5 39.1 Q 253.6 40.2, 252.0 40.2 Q 250.3 40.2, 249.4 39.1 Q 248.5 38.1, 248.5 36.2 M 252.0 39.3 Q 253.1 39.3, 253.7 38.6 Q 254.4 37.8, 254.4 36.2 Q 254.4 34.7, 253.7 34.0 Q 253.1 33.2, 252.0 33.2 Q 250.8 33.2, 250.2 34.0 Q 249.5 34.7, 249.5 36.2 Q 249.5 37.8, 250.2 38.6 Q 250.8 39.3, 252.0 39.3 " fill="#FF0000"/>
<path class="atom-24" d="M 256.6 32.4 L 257.7 32.4 L 257.7 35.7 L 261.6 35.7 L 261.6 32.4 L 262.6 32.4 L 262.6 40.1 L 261.6 40.1 L 261.6 36.6 L 257.7 36.6 L 257.7 40.1 L 256.6 40.1 L 256.6 32.4 " fill="#FF0000"/>
<path class="legend" d="M 142.7 181.9 Q 142.7 179.6, 143.4 177.7 Q 144.0 175.8, 145.3 173.8 L 146.2 174.4 Q 145.2 176.3, 144.6 178.0 Q 144.1 179.7, 144.1 181.9 Q 144.1 184.0, 144.6 185.8 Q 145.2 187.5, 146.2 189.4 L 145.3 190.0 Q 144.0 188.0, 143.4 186.1 Q 142.7 184.2, 142.7 181.9 " fill="#000000"/>
<path class="legend" d="M 147.1 177.3 Q 147.6 176.2, 148.5 175.6 Q 149.5 175.0, 150.9 175.0 Q 152.6 175.0, 153.6 175.9 Q 154.5 176.8, 154.5 178.5 Q 154.5 180.2, 153.3 181.7 Q 152.1 183.3, 149.5 185.2 L 154.7 185.2 L 154.7 186.4 L 147.1 186.4 L 147.1 185.4 Q 149.2 183.9, 150.5 182.8 Q 151.7 181.6, 152.3 180.6 Q 152.9 179.6, 152.9 178.6 Q 152.9 177.5, 152.4 176.9 Q 151.9 176.3, 150.9 176.3 Q 150.0 176.3, 149.4 176.6 Q 148.8 177.0, 148.4 177.8 L 147.1 177.3 " fill="#000000"/>
<path class="legend" d="M 159.7 181.9 Q 159.7 184.2, 159.0 186.1 Q 158.4 188.0, 157.1 190.0 L 156.2 189.4 Q 157.2 187.5, 157.7 185.8 Q 158.3 184.0, 158.3 181.9 Q 158.3 179.7, 157.7 178.0 Q 157.2 176.3, 156.2 174.4 L 157.1 173.8 Q 158.4 175.8, 159.0 177.7 Q 159.7 179.6, 159.7 181.9 " fill="#000000"/>
</g>
    <g transform="translate(304.0, 0) scale(1 1) "><line x1="5" y1="100" x2="35" y2="100" style="stroke:rgb(0,0,0);stroke-width:2"/>
  <line x1="34" y1="100" x2="29" y2="95" style="stroke:rgb(0,0,0);stroke-width:2"/>
  <line x1="34" y1="100" x2="29" y2="105" style="stroke:rgb(0,0,0);stroke-width:2"/>
</g>
    <g transform="translate(344.0, 0) scale(1 1) "><!-- END OF HEADER -->
<rect style="opacity:1.0;fill:#FFFFFF;stroke:none" width="215.0" height="200.0" x="0.0" y="0.0"> </rect>
<path class="bond-0 atom-0 atom-1" d="M 183.7,56.0 L 158.3,99.9" style="fill:none;fill-rule:evenodd;stroke:#000000;stroke-width:2.0px;stroke-linecap:butt;stroke-linejoin:miter;stroke-opacity:1"/>
<path class="bond-1 atom-1 atom-2" d="M 158.3,99.9 L 168.4,117.4" style="fill:none;fill-rule:evenodd;stroke:#000000;stroke-width:2.0px;stroke-linecap:butt;stroke-linejoin:miter;stroke-opacity:1"/>
<path class="bond-1 atom-1 atom-2" d="M 168.4,117.4 L 178.5,134.9" style="fill:none;fill-rule:evenodd;stroke:#FF0000;stroke-width:2.0px;stroke-linecap:butt;stroke-linejoin:miter;stroke-opacity:1"/>
<path class="bond-2 atom-1 atom-3" d="M 158.3,99.9 L 107.6,99.9" style="fill:none;fill-rule:evenodd;stroke:#000000;stroke-width:2.0px;stroke-linecap:butt;stroke-linejoin:miter;stroke-opacity:1"/>
<path class="bond-3 atom-3 atom-4" d="M 107.6,99.9 L 107.6,49.2" style="fill:none;fill-rule:evenodd;stroke:#000000;stroke-width:2.0px;stroke-linecap:butt;stroke-linejoin:miter;stroke-opacity:1"/>
<path class="bond-4 atom-3 atom-5" d="M 107.6,99.9 L 107.6,150.6" style="fill:none;fill-rule:evenodd;stroke:#000000;stroke-width:2.0px;stroke-linecap:butt;stroke-linejoin:miter;stroke-opacity:1"/>
<path class="bond-5 atom-3 atom-6" d="M 107.6,99.9 L 56.9,99.9" style="fill:none;fill-rule:evenodd;stroke:#000000;stroke-width:2.0px;stroke-linecap:butt;stroke-linejoin:miter;stroke-opacity:1"/>
<path class="bond-6 atom-6 atom-7" d="M 54.7,96.1 L 44.0,114.5" style="fill:none;fill-rule:evenodd;stroke:#000000;stroke-width:2.0px;stroke-linecap:butt;stroke-linejoin:miter;stroke-opacity:1"/>
<path class="bond-6 atom-6 atom-7" d="M 44.0,114.5 L 33.4,133.0" style="fill:none;fill-rule:evenodd;stroke:#FF0000;stroke-width:2.0px;stroke-linecap:butt;stroke-linejoin:miter;stroke-opacity:1"/>
<path class="bond-6 atom-6 atom-7" d="M 61.3,99.9 L 50.6,118.3" style="fill:none;fill-rule:evenodd;stroke:#000000;stroke-width:2.0px;stroke-linecap:butt;stroke-linejoin:miter;stroke-opacity:1"/>
<path class="bond-6 atom-6 atom-7" d="M 50.6,118.3 L 40.0,136.8" style="fill:none;fill-rule:evenodd;stroke:#FF0000;stroke-width:2.0px;stroke-linecap:butt;stroke-linejoin:miter;stroke-opacity:1"/>
<path class="bond-7 atom-6 atom-8" d="M 56.9,99.9 L 46.9,82.5" style="fill:none;fill-rule:evenodd;stroke:#000000;stroke-width:2.0px;stroke-linecap:butt;stroke-linejoin:miter;stroke-opacity:1"/>
<path class="bond-7 atom-6 atom-8" d="M 46.9,82.5 L 36.8,65.1" style="fill:none;fill-rule:evenodd;stroke:#FF0000;stroke-width:2.0px;stroke-linecap:butt;stroke-linejoin:miter;stroke-opacity:1"/>
<path d="M 59.4,99.9 L 56.9,99.9 L 56.4,99.0" style="fill:none;stroke:#000000;stroke-width:2.0px;stroke-linecap:butt;stroke-linejoin:miter;stroke-opacity:1;"/>
<path class="atom-2" d="M 177.1 143.9 Q 177.1 140.4, 178.8 138.5 Q 180.5 136.5, 183.7 136.5 Q 186.9 136.5, 188.6 138.5 Q 190.3 140.4, 190.3 143.9 Q 190.3 147.3, 188.6 149.3 Q 186.8 151.3, 183.7 151.3 Q 180.5 151.3, 178.8 149.3 Q 177.1 147.4, 177.1 143.9 M 183.7 149.7 Q 185.9 149.7, 187.0 148.2 Q 188.2 146.7, 188.2 143.9 Q 188.2 141.0, 187.0 139.6 Q 185.9 138.2, 183.7 138.2 Q 181.5 138.2, 180.3 139.6 Q 179.1 141.0, 179.1 143.9 Q 179.1 146.8, 180.3 148.2 Q 181.5 149.7, 183.7 149.7 " fill="#FF0000"/>
<path class="atom-2" d="M 192.5 136.7 L 194.5 136.7 L 194.5 142.8 L 201.8 142.8 L 201.8 136.7 L 203.7 136.7 L 203.7 151.1 L 201.8 151.1 L 201.8 144.4 L 194.5 144.4 L 194.5 151.1 L 192.5 151.1 L 192.5 136.7 " fill="#FF0000"/>
<path class="atom-7" d="M 24.9 143.9 Q 24.9 140.4, 26.6 138.5 Q 28.3 136.5, 31.5 136.5 Q 34.7 136.5, 36.4 138.5 Q 38.1 140.4, 38.1 143.9 Q 38.1 147.3, 36.4 149.3 Q 34.7 151.3, 31.5 151.3 Q 28.4 151.3, 26.6 149.3 Q 24.9 147.4, 24.9 143.9 M 31.5 149.7 Q 33.7 149.7, 34.9 148.2 Q 36.1 146.7, 36.1 143.9 Q 36.1 141.0, 34.9 139.6 Q 33.7 138.2, 31.5 138.2 Q 29.3 138.2, 28.1 139.6 Q 27.0 141.0, 27.0 143.9 Q 27.0 146.8, 28.1 148.2 Q 29.3 149.7, 31.5 149.7 " fill="#FF0000"/>
<path class="atom-8" d="M 10.7 48.9 L 12.7 48.9 L 12.7 55.0 L 20.0 55.0 L 20.0 48.9 L 22.0 48.9 L 22.0 63.2 L 20.0 63.2 L 20.0 56.6 L 12.7 56.6 L 12.7 63.2 L 10.7 63.2 L 10.7 48.9 " fill="#FF0000"/>
<path class="atom-8" d="M 24.9 56.0 Q 24.9 52.6, 26.6 50.6 Q 28.3 48.7, 31.5 48.7 Q 34.7 48.7, 36.4 50.6 Q 38.1 52.6, 38.1 56.0 Q 38.1 59.5, 36.4 61.5 Q 34.7 63.5, 31.5 63.5 Q 28.4 63.5, 26.6 61.5 Q 24.9 59.5, 24.9 56.0 M 31.5 61.8 Q 33.7 61.8, 34.9 60.4 Q 36.1 58.9, 36.1 56.0 Q 36.1 53.2, 34.9 51.8 Q 33.7 50.3, 31.5 50.3 Q 29.3 50.3, 28.1 51.7 Q 27.0 53.2, 27.0 56.0 Q 27.0 58.9, 28.1 60.4 Q 29.3 61.8, 31.5 61.8 " fill="#FF0000"/>
</g>
    <g transform="translate(559.0, 0) scale(1 1) "><line x1="15" y1="100" x2="25" y2="100" style="stroke:rgb(0,0,0);stroke-width:2"/>
  <line x1="20" y1="95" x2="20" y2="105" style="stroke:rgb(0,0,0);stroke-width:2"/>
</g>
    <g transform="translate(599.0, 0) scale(1 1) "><!-- END OF HEADER -->
<rect style="opacity:1.0;fill:#FFFFFF;stroke:none" width="347.0" height="200.0" x="0.0" y="0.0"> </rect>
<path class="bond-0 atom-0 atom-1" d="M 129.4,153.2 L 119.0,132.6" style="fill:none;fill-rule:evenodd;stroke:#000000;stroke-width:2.0px;stroke-linecap:butt;stroke-linejoin:miter;stroke-opacity:1"/>
<path class="bond-1 atom-1 atom-2" d="M 119.0,132.6 L 95.9,131.3" style="fill:none;fill-rule:evenodd;stroke:#000000;stroke-width:2.0px;stroke-linecap:butt;stroke-linejoin:miter;stroke-opacity:1"/>
<path class="bond-2 atom-2 atom-3" d="M 95.9,131.3 L 85.5,110.7" style="fill:none;fill-rule:evenodd;stroke:#000000;stroke-width:2.0px;stroke-linecap:butt;stroke-linejoin:miter;stroke-opacity:1"/>
<path class="bond-3 atom-3 atom-4" d="M 85.5,110.7 L 90.5,103.2" style="fill:none;fill-rule:evenodd;stroke:#000000;stroke-width:2.0px;stroke-linecap:butt;stroke-linejoin:miter;stroke-opacity:1"/>
<path class="bond-3 atom-3 atom-4" d="M 90.5,103.2 L 95.4,95.6" style="fill:none;fill-rule:evenodd;stroke:#FF0000;stroke-width:2.0px;stroke-linecap:butt;stroke-linejoin:miter;stroke-opacity:1"/>
<path class="bond-4 atom-3 atom-5" d="M 85.5,110.7 L 62.5,109.5" style="fill:none;fill-rule:evenodd;stroke:#000000;stroke-width:2.0px;stroke-linecap:butt;stroke-linejoin:miter;stroke-opacity:1"/>
<path class="bond-5 atom-5 atom-6" d="M 62.5,109.5 L 61.2,132.5" style="fill:none;fill-rule:evenodd;stroke:#000000;stroke-width:2.0px;stroke-linecap:butt;stroke-linejoin:miter;stroke-opacity:1"/>
<path class="bond-6 atom-5 atom-7" d="M 62.5,109.5 L 63.7,86.4" style="fill:none;fill-rule:evenodd;stroke:#000000;stroke-width:2.0px;stroke-linecap:butt;stroke-linejoin:miter;stroke-opacity:1"/>
<path class="bond-7 atom-5 atom-8" d="M 62.5,109.5 L 39.4,108.2" style="fill:none;fill-rule:evenodd;stroke:#000000;stroke-width:2.0px;stroke-linecap:butt;stroke-linejoin:miter;stroke-opacity:1"/>
<path class="bond-8 atom-8 atom-9" d="M 41.4,108.3 L 37.0,99.6" style="fill:none;fill-rule:evenodd;stroke:#000000;stroke-width:2.0px;stroke-linecap:butt;stroke-linejoin:miter;stroke-opacity:1"/>
<path class="bond-8 atom-8 atom-9" d="M 37.0,99.6 L 32.7,91.0" style="fill:none;fill-rule:evenodd;stroke:#FF0000;stroke-width:2.0px;stroke-linecap:butt;stroke-linejoin:miter;stroke-opacity:1"/>
<path class="bond-8 atom-8 atom-9" d="M 38.3,109.9 L 34.0,101.2" style="fill:none;fill-rule:evenodd;stroke:#000000;stroke-width:2.0px;stroke-linecap:butt;stroke-linejoin:miter;stroke-opacity:1"/>
<path class="bond-8 atom-8 atom-9" d="M 34.0,101.2 L 29.6,92.5" style="fill:none;fill-rule:evenodd;stroke:#FF0000;stroke-width:2.0px;stroke-linecap:butt;stroke-linejoin:miter;stroke-opacity:1"/>
<path class="bond-9 atom-8 atom-10" d="M 39.4,108.2 L 34.4,115.8" style="fill:none;fill-rule:evenodd;stroke:#000000;stroke-width:2.0px;stroke-linecap:butt;stroke-linejoin:miter;stroke-opacity:1"/>
<path class="bond-9 atom-8 atom-10" d="M 34.4,115.8 L 29.5,123.4" style="fill:none;fill-rule:evenodd;stroke:#FF0000;stroke-width:2.0px;stroke-linecap:butt;stroke-linejoin:miter;stroke-opacity:1"/>
<path class="bond-10 atom-1 atom-11" d="M 119.0,132.6 L 131.6,113.3" style="fill:none;fill-rule:evenodd;stroke:#000000;stroke-width:2.0px;stroke-linecap:butt;stroke-linejoin:miter;stroke-opacity:1"/>
<path class="bond-11 atom-11 atom-12" d="M 131.6,113.3 L 127.4,105.1" style="fill:none;fill-rule:evenodd;stroke:#000000;stroke-width:2.0px;stroke-linecap:butt;stroke-linejoin:miter;stroke-opacity:1"/>
<path class="bond-11 atom-11 atom-12" d="M 127.4,105.1 L 123.3,96.9" style="fill:none;fill-rule:evenodd;stroke:#FF0000;stroke-width:2.0px;stroke-linecap:butt;stroke-linejoin:miter;stroke-opacity:1"/>
<path class="bond-12 atom-11 atom-13" d="M 131.6,113.3 L 154.6,114.5" style="fill:none;fill-rule:evenodd;stroke:#000000;stroke-width:2.0px;stroke-linecap:butt;stroke-linejoin:miter;stroke-opacity:1"/>
<path class="bond-13 atom-13 atom-14" d="M 154.6,114.5 L 165.1,135.1" style="fill:none;fill-rule:evenodd;stroke:#000000;stroke-width:2.0px;stroke-linecap:butt;stroke-linejoin:miter;stroke-opacity:1"/>
<path class="bond-14 atom-14 atom-15" d="M 165.1,135.1 L 174.7,135.7" style="fill:none;fill-rule:evenodd;stroke:#000000;stroke-width:2.0px;stroke-linecap:butt;stroke-linejoin:miter;stroke-opacity:1"/>
<path class="bond-14 atom-14 atom-15" d="M 174.7,135.7 L 184.3,136.2" style="fill:none;fill-rule:evenodd;stroke:#FF0000;stroke-width:2.0px;stroke-linecap:butt;stroke-linejoin:miter;stroke-opacity:1"/>
<path class="bond-15 atom-13 atom-16" d="M 154.6,114.5 L 167.3,95.2" style="fill:none;fill-rule:evenodd;stroke:#000000;stroke-width:2.0px;stroke-linecap:butt;stroke-linejoin:miter;stroke-opacity:1"/>
<path class="bond-16 atom-16 atom-17" d="M 167.3,95.2 L 190.3,96.5" style="fill:none;fill-rule:evenodd;stroke:#000000;stroke-width:2.0px;stroke-linecap:butt;stroke-linejoin:miter;stroke-opacity:1"/>
<path class="bond-17 atom-17 atom-18" d="M 190.3,96.5 L 189.8,106.0" style="fill:none;fill-rule:evenodd;stroke:#000000;stroke-width:2.0px;stroke-linecap:butt;stroke-linejoin:miter;stroke-opacity:1"/>
<path class="bond-17 atom-17 atom-18" d="M 189.8,106.0 L 189.3,115.5" style="fill:none;fill-rule:evenodd;stroke:#FF0000;stroke-width:2.0px;stroke-linecap:butt;stroke-linejoin:miter;stroke-opacity:1"/>
<path class="bond-18 atom-17 atom-19" d="M 190.3,96.5 L 213.3,97.8" style="fill:none;fill-rule:evenodd;stroke:#000000;stroke-width:2.0px;stroke-linecap:butt;stroke-linejoin:miter;stroke-opacity:1"/>
<path class="bond-19 atom-19 atom-20" d="M 213.3,97.8 L 223.8,118.4" style="fill:none;fill-rule:evenodd;stroke:#000000;stroke-width:2.0px;stroke-linecap:butt;stroke-linejoin:miter;stroke-opacity:1"/>
<path class="bond-20 atom-20 atom-21" d="M 223.8,118.4 L 233.4,118.9" style="fill:none;fill-rule:evenodd;stroke:#000000;stroke-width:2.0px;stroke-linecap:butt;stroke-linejoin:miter;stroke-opacity:1"/>
<path class="bond-20 atom-20 atom-21" d="M 233.4,118.9 L 243.0,119.4" style="fill:none;fill-rule:evenodd;stroke:#FF0000;stroke-width:2.0px;stroke-linecap:butt;stroke-linejoin:miter;stroke-opacity:1"/>
<path class="bond-21 atom-19 atom-22" d="M 213.3,97.8 L 226.0,78.5" style="fill:none;fill-rule:evenodd;stroke:#000000;stroke-width:2.0px;stroke-linecap:butt;stroke-linejoin:miter;stroke-opacity:1"/>
<path class="bond-22 atom-22 atom-23" d="M 226.0,78.5 L 221.8,70.2" style="fill:none;fill-rule:evenodd;stroke:#000000;stroke-width:2.0px;stroke-linecap:butt;stroke-linejoin:miter;stroke-opacity:1"/>
<path class="bond-22 atom-22 atom-23" d="M 221.8,70.2 L 217.7,62.0" style="fill:none;fill-rule:evenodd;stroke:#FF0000;stroke-width:2.0px;stroke-linecap:butt;stroke-linejoin:miter;stroke-opacity:1"/>
<path class="bond-23 atom-22 atom-24" d="M 226.0,78.5 L 249.0,79.7" style="fill:none;fill-rule:evenodd;stroke:#000000;stroke-width:2.0px;stroke-linecap:butt;stroke-linejoin:miter;stroke-opacity:1"/>
<path class="bond-24 atom-24 atom-25" d="M 249.0,79.7 L 261.6,60.4" style="fill:none;fill-rule:evenodd;stroke:#000000;stroke-width:2.0px;stroke-linecap:butt;stroke-linejoin:miter;stroke-opacity:1"/>
<path class="bond-25 atom-24 atom-26" d="M 249.0,79.7 L 259.4,100.3" style="fill:none;fill-rule:evenodd;stroke:#000000;stroke-width:2.0px;stroke-linecap:butt;stroke-linejoin:miter;stroke-opacity:1"/>
<path class="bond-26 atom-26 atom-27" d="M 259.4,100.3 L 282.5,101.6" style="fill:none;fill-rule:evenodd;stroke:#000000;stroke-width:2.0px;stroke-linecap:butt;stroke-linejoin:miter;stroke-opacity:1"/>
<path class="bond-27 atom-27 atom-28" d="M 282.5,101.6 L 287.4,94.0" style="fill:none;fill-rule:evenodd;stroke:#000000;stroke-width:2.0px;stroke-linecap:butt;stroke-linejoin:miter;stroke-opacity:1"/>
<path class="bond-27 atom-27 atom-28" d="M 287.4,94.0 L 292.4,86.5" style="fill:none;fill-rule:evenodd;stroke:#FF0000;stroke-width:2.0px;stroke-linecap:butt;stroke-linejoin:miter;stroke-opacity:1"/>
<path class="bond-28 atom-27 atom-29" d="M 282.5,101.6 L 292.9,122.2" style="fill:none;fill-rule:evenodd;stroke:#000000;stroke-width:2.0px;stroke-linecap:butt;stroke-linejoin:miter;stroke-opacity:1"/>
<path class="bond-29 atom-29 atom-30" d="M 292.9,122.2 L 272.3,132.6" style="fill:none;fill-rule:evenodd;stroke:#000000;stroke-width:2.0px;stroke-linecap:butt;stroke-linejoin:miter;stroke-opacity:1"/>
<path class="bond-30 atom-29 atom-31" d="M 292.9,122.2 L 313.5,111.8" style="fill:none;fill-rule:evenodd;stroke:#000000;stroke-width:2.0px;stroke-linecap:butt;stroke-linejoin:miter;stroke-opacity:1"/>
<path class="bond-31 atom-29 atom-32" d="M 292.9,122.2 L 303.3,142.8" style="fill:none;fill-rule:evenodd;stroke:#000000;stroke-width:2.0px;stroke-linecap:butt;stroke-linejoin:miter;stroke-opacity:1"/>
<path class="bond-32 atom-32 atom-33" d="M 302.2,144.5 L 312.4,145.0" style="fill:none;fill-rule:evenodd;stroke:#000000;stroke-width:2.0px;stroke-linecap:butt;stroke-linejoin:miter;stroke-opacity:1"/>
<path class="bond-32 atom-32 atom-33" d="M 312.4,145.0 L 322.5,145.6" style="fill:none;fill-rule:evenodd;stroke:#FF0000;stroke-width:2.0px;stroke-linecap:butt;stroke-linejoin:miter;stroke-opacity:1"/>
<path class="bond-32 atom-32 atom-33" d="M 302.4,141.0 L 312.5,141.6" style="fill:none;fill-rule:evenodd;stroke:#000000;stroke-width:2.0px;stroke-linecap:butt;stroke-linejoin:miter;stroke-opacity:1"/>
<path class="bond-32 atom-32 atom-33" d="M 312.5,141.6 L 322.7,142.1" style="fill:none;fill-rule:evenodd;stroke:#FF0000;stroke-width:2.0px;stroke-linecap:butt;stroke-linejoin:miter;stroke-opacity:1"/>
<path class="bond-33 atom-32 atom-34" d="M 303.3,142.8 L 298.3,150.4" style="fill:none;fill-rule:evenodd;stroke:#000000;stroke-width:2.0px;stroke-linecap:butt;stroke-linejoin:miter;stroke-opacity:1"/>
<path class="bond-33 atom-32 atom-34" d="M 298.3,150.4 L 293.3,158.0" style="fill:none;fill-rule:evenodd;stroke:#FF0000;stroke-width:2.0px;stroke-linecap:butt;stroke-linejoin:miter;stroke-opacity:1"/>
<path class="bond-34 atom-17 atom-35" d="M 190.3,96.5 L 191.6,73.5" style="fill:none;fill-rule:evenodd;stroke:#000000;stroke-width:2.0px;stroke-linecap:butt;stroke-linejoin:miter;stroke-opacity:1"/>
<path class="bond-35 atom-35 atom-36" d="M 191.6,73.5 L 168.5,72.2" style="fill:none;fill-rule:evenodd;stroke:#000000;stroke-width:2.0px;stroke-linecap:butt;stroke-linejoin:miter;stroke-opacity:1"/>
<path class="bond-36 atom-35 atom-37" d="M 191.6,73.5 L 214.6,74.7" style="fill:none;fill-rule:evenodd;stroke:#000000;stroke-width:2.0px;stroke-linecap:butt;stroke-linejoin:miter;stroke-opacity:1"/>
<path class="bond-37 atom-35 atom-38" d="M 191.6,73.5 L 192.9,50.4" style="fill:none;fill-rule:evenodd;stroke:#000000;stroke-width:2.0px;stroke-linecap:butt;stroke-linejoin:miter;stroke-opacity:1"/>
<path class="bond-38 atom-38 atom-39" d="M 192.7,52.4 L 201.6,47.9" style="fill:none;fill-rule:evenodd;stroke:#000000;stroke-width:2.0px;stroke-linecap:butt;stroke-linejoin:miter;stroke-opacity:1"/>
<path class="bond-38 atom-38 atom-39" d="M 201.6,47.9 L 210.5,43.5" style="fill:none;fill-rule:evenodd;stroke:#FF0000;stroke-width:2.0px;stroke-linecap:butt;stroke-linejoin:miter;stroke-opacity:1"/>
<path class="bond-38 atom-38 atom-39" d="M 191.2,49.3 L 200.0,44.8" style="fill:none;fill-rule:evenodd;stroke:#000000;stroke-width:2.0px;stroke-linecap:butt;stroke-linejoin:miter;stroke-opacity:1"/>
<path class="bond-38 atom-38 atom-39" d="M 200.0,44.8 L 208.9,40.4" style="fill:none;fill-rule:evenodd;stroke:#FF0000;stroke-width:2.0px;stroke-linecap:butt;stroke-linejoin:miter;stroke-opacity:1"/>
<path class="bond-39 atom-38 atom-40" d="M 192.9,50.4 L 185.1,45.3" style="fill:none;fill-rule:evenodd;stroke:#000000;stroke-width:2.0px;stroke-linecap:butt;stroke-linejoin:miter;stroke-opacity:1"/>
<path class="bond-39 atom-38 atom-40" d="M 185.1,45.3 L 177.3,40.3" style="fill:none;fill-rule:evenodd;stroke:#FF0000;stroke-width:2.0px;stroke-linecap:butt;stroke-linejoin:miter;stroke-opacity:1"/>
<path d="M 97.1,131.4 L 95.9,131.3 L 95.4,130.3" style="fill:none;stroke:#000000;stroke-width:2.0px;stroke-linecap:butt;stroke-linejoin:miter;stroke-opacity:1;"/>
<path d="M 40.6,108.2 L 39.4,108.2 L 39.2,108.6" style="fill:none;stroke:#000000;stroke-width:2.0px;stroke-linecap:butt;stroke-linejoin:miter;stroke-opacity:1;"/>
<path d="M 164.5,134.1 L 165.1,135.1 L 165.5,135.2" style="fill:none;stroke:#000000;stroke-width:2.0px;stroke-linecap:butt;stroke-linejoin:miter;stroke-opacity:1;"/>
<path d="M 166.6,96.2 L 167.3,95.2 L 168.4,95.3" style="fill:none;stroke:#000000;stroke-width:2.0px;stroke-linecap:butt;stroke-linejoin:miter;stroke-opacity:1;"/>
<path d="M 223.2,117.3 L 223.8,118.4 L 224.2,118.4" style="fill:none;stroke:#000000;stroke-width:2.0px;stroke-linecap:butt;stroke-linejoin:miter;stroke-opacity:1;"/>
<path d="M 258.9,99.3 L 259.4,100.3 L 260.6,100.4" style="fill:none;stroke:#000000;stroke-width:2.0px;stroke-linecap:butt;stroke-linejoin:miter;stroke-opacity:1;"/>
<path d="M 302.8,141.8 L 303.3,142.8 L 303.1,143.2" style="fill:none;stroke:#000000;stroke-width:2.0px;stroke-linecap:butt;stroke-linejoin:miter;stroke-opacity:1;"/>
<path d="M 192.8,51.6 L 192.9,50.4 L 192.5,50.2" style="fill:none;stroke:#000000;stroke-width:2.0px;stroke-linecap:butt;stroke-linejoin:miter;stroke-opacity:1;"/>
<path class="atom-4" d="M 95.1 91.4 Q 95.1 89.9, 95.9 89.0 Q 96.7 88.1, 98.1 88.1 Q 99.6 88.1, 100.4 89.0 Q 101.1 89.9, 101.1 91.4 Q 101.1 93.0, 100.4 93.9 Q 99.6 94.8, 98.1 94.8 Q 96.7 94.8, 95.9 93.9 Q 95.1 93.0, 95.1 91.4 M 98.1 94.1 Q 99.1 94.1, 99.7 93.4 Q 100.2 92.7, 100.2 91.4 Q 100.2 90.1, 99.7 89.5 Q 99.1 88.8, 98.1 88.8 Q 97.1 88.8, 96.6 89.5 Q 96.1 90.1, 96.1 91.4 Q 96.1 92.7, 96.6 93.4 Q 97.1 94.1, 98.1 94.1 " fill="#FF0000"/>
<path class="atom-4" d="M 102.2 88.2 L 103.0 88.2 L 103.0 91.0 L 106.4 91.0 L 106.4 88.2 L 107.3 88.2 L 107.3 94.7 L 106.4 94.7 L 106.4 91.7 L 103.0 91.7 L 103.0 94.7 L 102.2 94.7 L 102.2 88.2 " fill="#FF0000"/>
<path class="atom-9" d="M 26.0 87.6 Q 26.0 86.0, 26.8 85.2 Q 27.6 84.3, 29.0 84.3 Q 30.5 84.3, 31.2 85.2 Q 32.0 86.0, 32.0 87.6 Q 32.0 89.2, 31.2 90.1 Q 30.4 91.0, 29.0 91.0 Q 27.6 91.0, 26.8 90.1 Q 26.0 89.2, 26.0 87.6 M 29.0 90.3 Q 30.0 90.3, 30.5 89.6 Q 31.1 88.9, 31.1 87.6 Q 31.1 86.3, 30.5 85.7 Q 30.0 85.0, 29.0 85.0 Q 28.0 85.0, 27.5 85.7 Q 26.9 86.3, 26.9 87.6 Q 26.9 88.9, 27.5 89.6 Q 28.0 90.3, 29.0 90.3 " fill="#FF0000"/>
<path class="atom-10" d="M 17.4 124.3 L 18.2 124.3 L 18.2 127.0 L 21.6 127.0 L 21.6 124.3 L 22.5 124.3 L 22.5 130.8 L 21.6 130.8 L 21.6 127.8 L 18.2 127.8 L 18.2 130.8 L 17.4 130.8 L 17.4 124.3 " fill="#FF0000"/>
<path class="atom-10" d="M 23.8 127.5 Q 23.8 125.9, 24.6 125.1 Q 25.4 124.2, 26.8 124.2 Q 28.3 124.2, 29.0 125.1 Q 29.8 125.9, 29.8 127.5 Q 29.8 129.1, 29.0 130.0 Q 28.2 130.9, 26.8 130.9 Q 25.4 130.9, 24.6 130.0 Q 23.8 129.1, 23.8 127.5 M 26.8 130.2 Q 27.8 130.2, 28.3 129.5 Q 28.9 128.8, 28.9 127.5 Q 28.9 126.2, 28.3 125.6 Q 27.8 124.9, 26.8 124.9 Q 25.8 124.9, 25.3 125.6 Q 24.7 126.2, 24.7 127.5 Q 24.7 128.8, 25.3 129.5 Q 25.8 130.2, 26.8 130.2 " fill="#FF0000"/>
<path class="atom-12" d="M 111.7 89.5 L 112.6 89.5 L 112.6 92.2 L 116.0 92.2 L 116.0 89.5 L 116.8 89.5 L 116.8 96.0 L 116.0 96.0 L 116.0 93.0 L 112.6 93.0 L 112.6 96.0 L 111.7 96.0 L 111.7 89.5 " fill="#FF0000"/>
<path class="atom-12" d="M 118.2 92.7 Q 118.2 91.1, 119.0 90.3 Q 119.7 89.4, 121.2 89.4 Q 122.6 89.4, 123.4 90.3 Q 124.2 91.1, 124.2 92.7 Q 124.2 94.3, 123.4 95.2 Q 122.6 96.1, 121.2 96.1 Q 119.7 96.1, 119.0 95.2 Q 118.2 94.3, 118.2 92.7 M 121.2 95.4 Q 122.2 95.4, 122.7 94.7 Q 123.3 94.0, 123.3 92.7 Q 123.3 91.4, 122.7 90.8 Q 122.2 90.1, 121.2 90.1 Q 120.2 90.1, 119.6 90.8 Q 119.1 91.4, 119.1 92.7 Q 119.1 94.0, 119.6 94.7 Q 120.2 95.4, 121.2 95.4 " fill="#FF0000"/>
<path class="atom-15" d="M 185.1 136.4 Q 185.1 134.9, 185.9 134.0 Q 186.6 133.1, 188.1 133.1 Q 189.5 133.1, 190.3 134.0 Q 191.1 134.9, 191.1 136.4 Q 191.1 138.0, 190.3 138.9 Q 189.5 139.8, 188.1 139.8 Q 186.7 139.8, 185.9 138.9 Q 185.1 138.0, 185.1 136.4 M 188.1 139.1 Q 189.1 139.1, 189.6 138.4 Q 190.2 137.7, 190.2 136.4 Q 190.2 135.1, 189.6 134.5 Q 189.1 133.8, 188.1 133.8 Q 187.1 133.8, 186.6 134.5 Q 186.0 135.1, 186.0 136.4 Q 186.0 137.8, 186.6 138.4 Q 187.1 139.1, 188.1 139.1 " fill="#FF0000"/>
<path class="atom-15" d="M 192.1 133.2 L 193.0 133.2 L 193.0 136.0 L 196.3 136.0 L 196.3 133.2 L 197.2 133.2 L 197.2 139.7 L 196.3 139.7 L 196.3 136.7 L 193.0 136.7 L 193.0 139.7 L 192.1 139.7 L 192.1 133.2 " fill="#FF0000"/>
<path class="atom-18" d="M 186.0 119.6 Q 186.0 118.0, 186.8 117.1 Q 187.6 116.2, 189.0 116.2 Q 190.5 116.2, 191.3 117.1 Q 192.0 118.0, 192.0 119.6 Q 192.0 121.2, 191.2 122.1 Q 190.5 123.0, 189.0 123.0 Q 187.6 123.0, 186.8 122.1 Q 186.0 121.2, 186.0 119.6 M 189.0 122.2 Q 190.0 122.2, 190.6 121.5 Q 191.1 120.9, 191.1 119.6 Q 191.1 118.3, 190.6 117.6 Q 190.0 117.0, 189.0 117.0 Q 188.0 117.0, 187.5 117.6 Q 187.0 118.3, 187.0 119.6 Q 187.0 120.9, 187.5 121.5 Q 188.0 122.2, 189.0 122.2 " fill="#FF0000"/>
<path class="atom-18" d="M 193.0 116.3 L 193.9 116.3 L 193.9 119.1 L 197.3 119.1 L 197.3 116.3 L 198.2 116.3 L 198.2 122.9 L 197.3 122.9 L 197.3 119.8 L 193.9 119.8 L 193.9 122.9 L 193.0 122.9 L 193.0 116.3 " fill="#FF0000"/>
<path class="atom-21" d="M 243.8 119.7 Q 243.8 118.1, 244.6 117.2 Q 245.4 116.3, 246.8 116.3 Q 248.3 116.3, 249.0 117.2 Q 249.8 118.1, 249.8 119.7 Q 249.8 121.3, 249.0 122.2 Q 248.2 123.1, 246.8 123.1 Q 245.4 123.1, 244.6 122.2 Q 243.8 121.3, 243.8 119.7 M 246.8 122.3 Q 247.8 122.3, 248.3 121.6 Q 248.9 121.0, 248.9 119.7 Q 248.9 118.4, 248.3 117.7 Q 247.8 117.1, 246.8 117.1 Q 245.8 117.1, 245.3 117.7 Q 244.7 118.4, 244.7 119.7 Q 244.7 121.0, 245.3 121.6 Q 245.8 122.3, 246.8 122.3 " fill="#FF0000"/>
<path class="atom-21" d="M 250.8 116.4 L 251.7 116.4 L 251.7 119.2 L 255.1 119.2 L 255.1 116.4 L 255.9 116.4 L 255.9 122.9 L 255.1 122.9 L 255.1 119.9 L 251.7 119.9 L 251.7 122.9 L 250.8 122.9 L 250.8 116.4 " fill="#FF0000"/>
<path class="atom-23" d="M 206.1 54.6 L 207.0 54.6 L 207.0 57.4 L 210.3 57.4 L 210.3 54.6 L 211.2 54.6 L 211.2 61.2 L 210.3 61.2 L 210.3 58.2 L 207.0 58.2 L 207.0 61.2 L 206.1 61.2 L 206.1 54.6 " fill="#FF0000"/>
<path class="atom-23" d="M 212.6 57.9 Q 212.6 56.3, 213.3 55.4 Q 214.1 54.6, 215.6 54.6 Q 217.0 54.6, 217.8 55.4 Q 218.6 56.3, 218.6 57.9 Q 218.6 59.5, 217.8 60.4 Q 217.0 61.3, 215.6 61.3 Q 214.1 61.3, 213.3 60.4 Q 212.6 59.5, 212.6 57.9 M 215.6 60.5 Q 216.6 60.5, 217.1 59.9 Q 217.6 59.2, 217.6 57.9 Q 217.6 56.6, 217.1 56.0 Q 216.6 55.3, 215.6 55.3 Q 214.6 55.3, 214.0 55.9 Q 213.5 56.6, 213.5 57.9 Q 213.5 59.2, 214.0 59.9 Q 214.6 60.5, 215.6 60.5 " fill="#FF0000"/>
<path class="atom-28" d="M 292.1 82.3 Q 292.1 80.7, 292.9 79.9 Q 293.6 79.0, 295.1 79.0 Q 296.5 79.0, 297.3 79.9 Q 298.1 80.7, 298.1 82.3 Q 298.1 83.9, 297.3 84.8 Q 296.5 85.7, 295.1 85.7 Q 293.7 85.7, 292.9 84.8 Q 292.1 83.9, 292.1 82.3 M 295.1 85.0 Q 296.1 85.0, 296.6 84.3 Q 297.2 83.6, 297.2 82.3 Q 297.2 81.0, 296.6 80.4 Q 296.1 79.7, 295.1 79.7 Q 294.1 79.7, 293.6 80.4 Q 293.0 81.0, 293.0 82.3 Q 293.0 83.6, 293.6 84.3 Q 294.1 85.0, 295.1 85.0 " fill="#FF0000"/>
<path class="atom-28" d="M 299.1 79.1 L 300.0 79.1 L 300.0 81.8 L 303.3 81.8 L 303.3 79.1 L 304.2 79.1 L 304.2 85.6 L 303.3 85.6 L 303.3 82.6 L 300.0 82.6 L 300.0 85.6 L 299.1 85.6 L 299.1 79.1 " fill="#FF0000"/>
<path class="atom-33" d="M 323.3 144.1 Q 323.3 142.5, 324.1 141.6 Q 324.9 140.8, 326.3 140.8 Q 327.8 140.8, 328.6 141.6 Q 329.4 142.5, 329.4 144.1 Q 329.4 145.7, 328.6 146.6 Q 327.8 147.5, 326.3 147.5 Q 324.9 147.5, 324.1 146.6 Q 323.3 145.7, 323.3 144.1 M 326.3 146.7 Q 327.3 146.7, 327.9 146.1 Q 328.4 145.4, 328.4 144.1 Q 328.4 142.8, 327.9 142.1 Q 327.3 141.5, 326.3 141.5 Q 325.4 141.5, 324.8 142.1 Q 324.3 142.8, 324.3 144.1 Q 324.3 145.4, 324.8 146.1 Q 325.4 146.7, 326.3 146.7 " fill="#FF0000"/>
<path class="atom-34" d="M 281.2 158.9 L 282.1 158.9 L 282.1 161.6 L 285.5 161.6 L 285.5 158.9 L 286.3 158.9 L 286.3 165.4 L 285.5 165.4 L 285.5 162.4 L 282.1 162.4 L 282.1 165.4 L 281.2 165.4 L 281.2 158.9 " fill="#FF0000"/>
<path class="atom-34" d="M 287.7 162.1 Q 287.7 160.6, 288.5 159.7 Q 289.2 158.8, 290.7 158.8 Q 292.1 158.8, 292.9 159.7 Q 293.7 160.6, 293.7 162.1 Q 293.7 163.7, 292.9 164.6 Q 292.1 165.5, 290.7 165.5 Q 289.2 165.5, 288.5 164.6 Q 287.7 163.7, 287.7 162.1 M 290.7 164.8 Q 291.7 164.8, 292.2 164.1 Q 292.8 163.4, 292.8 162.1 Q 292.8 160.8, 292.2 160.2 Q 291.7 159.5, 290.7 159.5 Q 289.7 159.5, 289.1 160.2 Q 288.6 160.8, 288.6 162.1 Q 288.6 163.4, 289.1 164.1 Q 289.7 164.8, 290.7 164.8 " fill="#FF0000"/>
<path class="atom-39" d="M 210.4 40.0 Q 210.4 38.5, 211.2 37.6 Q 212.0 36.7, 213.4 36.7 Q 214.9 36.7, 215.7 37.6 Q 216.4 38.5, 216.4 40.0 Q 216.4 41.6, 215.7 42.5 Q 214.9 43.4, 213.4 43.4 Q 212.0 43.4, 211.2 42.5 Q 210.4 41.6, 210.4 40.0 M 213.4 42.7 Q 214.4 42.7, 215.0 42.0 Q 215.5 41.3, 215.5 40.0 Q 215.5 38.7, 215.0 38.1 Q 214.4 37.4, 213.4 37.4 Q 212.4 37.4, 211.9 38.1 Q 211.4 38.7, 211.4 40.0 Q 211.4 41.3, 211.9 42.0 Q 212.4 42.7, 213.4 42.7 " fill="#FF0000"/>
<path class="atom-40" d="M 164.1 34.6 L 165.0 34.6 L 165.0 37.3 L 168.3 37.3 L 168.3 34.6 L 169.2 34.6 L 169.2 41.1 L 168.3 41.1 L 168.3 38.1 L 165.0 38.1 L 165.0 41.1 L 164.1 41.1 L 164.1 34.6 " fill="#FF0000"/>
<path class="atom-40" d="M 170.5 37.8 Q 170.5 36.2, 171.3 35.4 Q 172.1 34.5, 173.5 34.5 Q 175.0 34.5, 175.8 35.4 Q 176.5 36.2, 176.5 37.8 Q 176.5 39.4, 175.8 40.3 Q 175.0 41.2, 173.5 41.2 Q 172.1 41.2, 171.3 40.3 Q 170.5 39.4, 170.5 37.8 M 173.5 40.5 Q 174.5 40.5, 175.1 39.8 Q 175.6 39.1, 175.6 37.8 Q 175.6 36.5, 175.1 35.9 Q 174.5 35.2, 173.5 35.2 Q 172.5 35.2, 172.0 35.9 Q 171.5 36.5, 171.5 37.8 Q 171.5 39.1, 172.0 39.8 Q 172.5 40.5, 173.5 40.5 " fill="#FF0000"/>
</g>
  </g>
</svg>
