<?xml version='1.0' encoding='ASCII' standalone='yes'?>
<svg xmlns="http://www.w3.org/2000/svg" xmlns:xlink="http://www.w3.org/1999/xlink" version="1.1" width="877.0px" viewBox="0 0 877.0 200.0" height="200.0px">
  <g>
    <g transform="translate(0, 0) scale(1 1) "><!-- END OF HEADER -->
<rect style="opacity:1.0;fill:#FFFFFF;stroke:none" width="271.0" height="200.0" x="0.0" y="0.0"> </rect>
<path class="bond-0 atom-0 atom-1" d="M 218.4,44.3 L 208.9,71.8" style="fill:none;fill-rule:evenodd;stroke:#000000;stroke-width:2.0px;stroke-linecap:butt;stroke-linejoin:miter;stroke-opacity:1"/>
<path class="bond-0 atom-0 atom-1" d="M 214.5,42.9 L 205.0,70.4" style="fill:none;fill-rule:evenodd;stroke:#000000;stroke-width:2.0px;stroke-linecap:butt;stroke-linejoin:miter;stroke-opacity:1"/>
<path class="bond-1 atom-1 atom-2" d="M 207.3,69.9 L 180.0,75.2" style="fill:none;fill-rule:evenodd;stroke:#000000;stroke-width:2.0px;stroke-linecap:butt;stroke-linejoin:miter;stroke-opacity:1"/>
<path class="bond-2 atom-2 atom-3" d="M 180.0,75.2 L 170.9,101.5" style="fill:none;fill-rule:evenodd;stroke:#000000;stroke-width:2.0px;stroke-linecap:butt;stroke-linejoin:miter;stroke-opacity:1"/>
<path class="bond-3 atom-3 atom-4" d="M 170.9,101.5 L 143.5,106.8" style="fill:none;fill-rule:evenodd;stroke:#000000;stroke-width:2.0px;stroke-linecap:butt;stroke-linejoin:miter;stroke-opacity:1"/>
<path class="bond-4 atom-4 atom-5" d="M 143.5,106.8 L 145.7,118.0" style="fill:none;fill-rule:evenodd;stroke:#000000;stroke-width:2.0px;stroke-linecap:butt;stroke-linejoin:miter;stroke-opacity:1"/>
<path class="bond-4 atom-4 atom-5" d="M 145.7,118.0 L 147.8,129.2" style="fill:none;fill-rule:evenodd;stroke:#FF0000;stroke-width:2.0px;stroke-linecap:butt;stroke-linejoin:miter;stroke-opacity:1"/>
<path class="bond-5 atom-4 atom-6" d="M 143.5,106.8 L 141.4,95.6" style="fill:none;fill-rule:evenodd;stroke:#000000;stroke-width:2.0px;stroke-linecap:butt;stroke-linejoin:miter;stroke-opacity:1"/>
<path class="bond-5 atom-4 atom-6" d="M 141.4,95.6 L 139.2,84.5" style="fill:none;fill-rule:evenodd;stroke:#FF0000;stroke-width:2.0px;stroke-linecap:butt;stroke-linejoin:miter;stroke-opacity:1"/>
<path class="bond-6 atom-4 atom-7" d="M 143.5,106.8 L 116.1,112.1" style="fill:none;fill-rule:evenodd;stroke:#000000;stroke-width:2.0px;stroke-linecap:butt;stroke-linejoin:miter;stroke-opacity:1"/>
<path class="bond-7 atom-7 atom-8" d="M 114.6,110.2 L 105.1,137.7" style="fill:none;fill-rule:evenodd;stroke:#000000;stroke-width:2.0px;stroke-linecap:butt;stroke-linejoin:miter;stroke-opacity:1"/>
<path class="bond-7 atom-7 atom-8" d="M 118.5,111.6 L 109.0,139.1" style="fill:none;fill-rule:evenodd;stroke:#000000;stroke-width:2.0px;stroke-linecap:butt;stroke-linejoin:miter;stroke-opacity:1"/>
<path class="bond-8 atom-7 atom-9" d="M 116.1,112.1 L 97.9,91.0" style="fill:none;fill-rule:evenodd;stroke:#000000;stroke-width:2.0px;stroke-linecap:butt;stroke-linejoin:miter;stroke-opacity:1"/>
<path class="bond-9 atom-9 atom-10" d="M 97.9,91.0 L 70.6,96.3" style="fill:none;fill-rule:evenodd;stroke:#000000;stroke-width:2.0px;stroke-linecap:butt;stroke-linejoin:miter;stroke-opacity:1"/>
<path class="bond-10 atom-10 atom-11" d="M 70.6,96.3 L 52.3,75.2" style="fill:none;fill-rule:evenodd;stroke:#000000;stroke-width:2.0px;stroke-linecap:butt;stroke-linejoin:miter;stroke-opacity:1"/>
<path class="bond-11 atom-11 atom-12" d="M 53.9,77.0 L 57.8,65.8" style="fill:none;fill-rule:evenodd;stroke:#000000;stroke-width:2.0px;stroke-linecap:butt;stroke-linejoin:miter;stroke-opacity:1"/>
<path class="bond-11 atom-11 atom-12" d="M 57.8,65.8 L 61.7,54.6" style="fill:none;fill-rule:evenodd;stroke:#FF0000;stroke-width:2.0px;stroke-linecap:butt;stroke-linejoin:miter;stroke-opacity:1"/>
<path class="bond-11 atom-11 atom-12" d="M 49.9,75.7 L 53.8,64.4" style="fill:none;fill-rule:evenodd;stroke:#000000;stroke-width:2.0px;stroke-linecap:butt;stroke-linejoin:miter;stroke-opacity:1"/>
<path class="bond-11 atom-11 atom-12" d="M 53.8,64.4 L 57.7,53.2" style="fill:none;fill-rule:evenodd;stroke:#FF0000;stroke-width:2.0px;stroke-linecap:butt;stroke-linejoin:miter;stroke-opacity:1"/>
<path class="bond-12 atom-11 atom-13" d="M 52.3,75.2 L 40.9,77.4" style="fill:none;fill-rule:evenodd;stroke:#000000;stroke-width:2.0px;stroke-linecap:butt;stroke-linejoin:miter;stroke-opacity:1"/>
<path class="bond-12 atom-11 atom-13" d="M 40.9,77.4 L 29.5,79.6" style="fill:none;fill-rule:evenodd;stroke:#FF0000;stroke-width:2.0px;stroke-linecap:butt;stroke-linejoin:miter;stroke-opacity:1"/>
<path class="bond-13 atom-1 atom-14" d="M 207.3,69.9 L 225.6,91.0" style="fill:none;fill-rule:evenodd;stroke:#000000;stroke-width:2.0px;stroke-linecap:butt;stroke-linejoin:miter;stroke-opacity:1"/>
<path class="bond-14 atom-14 atom-15" d="M 224.8,93.3 L 236.8,91.0" style="fill:none;fill-rule:evenodd;stroke:#000000;stroke-width:2.0px;stroke-linecap:butt;stroke-linejoin:miter;stroke-opacity:1"/>
<path class="bond-14 atom-14 atom-15" d="M 236.8,91.0 L 248.8,88.7" style="fill:none;fill-rule:evenodd;stroke:#FF0000;stroke-width:2.0px;stroke-linecap:butt;stroke-linejoin:miter;stroke-opacity:1"/>
<path class="bond-14 atom-14 atom-15" d="M 224.0,89.2 L 236.0,86.9" style="fill:none;fill-rule:evenodd;stroke:#000000;stroke-width:2.0px;stroke-linecap:butt;stroke-linejoin:miter;stroke-opacity:1"/>
<path class="bond-14 atom-14 atom-15" d="M 236.0,86.9 L 248.0,84.6" style="fill:none;fill-rule:evenodd;stroke:#FF0000;stroke-width:2.0px;stroke-linecap:butt;stroke-linejoin:miter;stroke-opacity:1"/>
<path class="bond-15 atom-14 atom-16" d="M 225.6,91.0 L 221.9,101.7" style="fill:none;fill-rule:evenodd;stroke:#000000;stroke-width:2.0px;stroke-linecap:butt;stroke-linejoin:miter;stroke-opacity:1"/>
<path class="bond-15 atom-14 atom-16" d="M 221.9,101.7 L 218.2,112.4" style="fill:none;fill-rule:evenodd;stroke:#FF0000;stroke-width:2.0px;stroke-linecap:butt;stroke-linejoin:miter;stroke-opacity:1"/>
<path d="M 206.0,70.2 L 207.3,69.9 L 208.2,71.0" style="fill:none;stroke:#000000;stroke-width:2.0px;stroke-linecap:butt;stroke-linejoin:miter;stroke-opacity:1;"/>
<path d="M 181.3,74.9 L 180.0,75.2 L 179.5,76.5" style="fill:none;stroke:#000000;stroke-width:2.0px;stroke-linecap:butt;stroke-linejoin:miter;stroke-opacity:1;"/>
<path d="M 171.3,100.2 L 170.9,101.5 L 169.5,101.8" style="fill:none;stroke:#000000;stroke-width:2.0px;stroke-linecap:butt;stroke-linejoin:miter;stroke-opacity:1;"/>
<path d="M 117.5,111.8 L 116.1,112.1 L 115.2,111.0" style="fill:none;stroke:#000000;stroke-width:2.0px;stroke-linecap:butt;stroke-linejoin:miter;stroke-opacity:1;"/>
<path d="M 98.8,92.1 L 97.9,91.0 L 96.5,91.3" style="fill:none;stroke:#000000;stroke-width:2.0px;stroke-linecap:butt;stroke-linejoin:miter;stroke-opacity:1;"/>
<path d="M 71.9,96.0 L 70.6,96.3 L 69.6,95.2" style="fill:none;stroke:#000000;stroke-width:2.0px;stroke-linecap:butt;stroke-linejoin:miter;stroke-opacity:1;"/>
<path d="M 53.2,76.3 L 52.3,75.2 L 51.7,75.3" style="fill:none;stroke:#000000;stroke-width:2.0px;stroke-linecap:butt;stroke-linejoin:miter;stroke-opacity:1;"/>
<path d="M 224.7,89.9 L 225.6,91.0 L 225.4,91.5" style="fill:none;stroke:#000000;stroke-width:2.0px;stroke-linecap:butt;stroke-linejoin:miter;stroke-opacity:1;"/>
<path class="atom-5" d="M 145.1 134.2 Q 145.1 132.3, 146.1 131.2 Q 147.0 130.2, 148.8 130.2 Q 150.5 130.2, 151.5 131.2 Q 152.4 132.3, 152.4 134.2 Q 152.4 136.1, 151.4 137.2 Q 150.5 138.3, 148.8 138.3 Q 147.0 138.3, 146.1 137.2 Q 145.1 136.1, 145.1 134.2 M 148.8 137.4 Q 150.0 137.4, 150.6 136.6 Q 151.3 135.8, 151.3 134.2 Q 151.3 132.6, 150.6 131.8 Q 150.0 131.1, 148.8 131.1 Q 147.6 131.1, 146.9 131.8 Q 146.3 132.6, 146.3 134.2 Q 146.3 135.8, 146.9 136.6 Q 147.6 137.4, 148.8 137.4 " fill="#FF0000"/>
<path class="atom-5" d="M 153.6 130.2 L 154.7 130.2 L 154.7 133.6 L 158.7 133.6 L 158.7 130.2 L 159.8 130.2 L 159.8 138.1 L 158.7 138.1 L 158.7 134.5 L 154.7 134.5 L 154.7 138.1 L 153.6 138.1 L 153.6 130.2 " fill="#FF0000"/>
<path class="atom-6" d="M 134.6 79.5 Q 134.6 77.6, 135.6 76.5 Q 136.5 75.4, 138.2 75.4 Q 140.0 75.4, 140.9 76.5 Q 141.9 77.6, 141.9 79.5 Q 141.9 81.4, 140.9 82.5 Q 140.0 83.5, 138.2 83.5 Q 136.5 83.5, 135.6 82.5 Q 134.6 81.4, 134.6 79.5 M 138.2 82.7 Q 139.4 82.7, 140.1 81.9 Q 140.7 81.0, 140.7 79.5 Q 140.7 77.9, 140.1 77.1 Q 139.4 76.3, 138.2 76.3 Q 137.0 76.3, 136.4 77.1 Q 135.7 77.9, 135.7 79.5 Q 135.7 81.1, 136.4 81.9 Q 137.0 82.7, 138.2 82.7 " fill="#FF0000"/>
<path class="atom-6" d="M 143.1 75.5 L 144.2 75.5 L 144.2 78.9 L 148.2 78.9 L 148.2 75.5 L 149.3 75.5 L 149.3 83.4 L 148.2 83.4 L 148.2 79.8 L 144.2 79.8 L 144.2 83.4 L 143.1 83.4 L 143.1 75.5 " fill="#FF0000"/>
<path class="atom-12" d="M 57.8 48.9 Q 57.8 47.0, 58.8 46.0 Q 59.7 44.9, 61.4 44.9 Q 63.2 44.9, 64.1 46.0 Q 65.1 47.0, 65.1 48.9 Q 65.1 50.8, 64.1 51.9 Q 63.2 53.0, 61.4 53.0 Q 59.7 53.0, 58.8 51.9 Q 57.8 50.8, 57.8 48.9 M 61.4 52.1 Q 62.6 52.1, 63.3 51.3 Q 63.9 50.5, 63.9 48.9 Q 63.9 47.4, 63.3 46.6 Q 62.6 45.8, 61.4 45.8 Q 60.2 45.8, 59.6 46.6 Q 58.9 47.3, 58.9 48.9 Q 58.9 50.5, 59.6 51.3 Q 60.2 52.1, 61.4 52.1 " fill="#FF0000"/>
<path class="atom-13" d="M 13.5 76.6 L 14.6 76.6 L 14.6 79.9 L 18.7 79.9 L 18.7 76.6 L 19.7 76.6 L 19.7 84.5 L 18.7 84.5 L 18.7 80.8 L 14.6 80.8 L 14.6 84.5 L 13.5 84.5 L 13.5 76.6 " fill="#FF0000"/>
<path class="atom-13" d="M 21.3 80.5 Q 21.3 78.6, 22.3 77.5 Q 23.2 76.5, 25.0 76.5 Q 26.7 76.5, 27.6 77.5 Q 28.6 78.6, 28.6 80.5 Q 28.6 82.4, 27.6 83.5 Q 26.7 84.6, 25.0 84.6 Q 23.2 84.6, 22.3 83.5 Q 21.3 82.4, 21.3 80.5 M 25.0 83.7 Q 26.2 83.7, 26.8 82.9 Q 27.5 82.1, 27.5 80.5 Q 27.5 78.9, 26.8 78.2 Q 26.2 77.4, 25.0 77.4 Q 23.8 77.4, 23.1 78.2 Q 22.5 78.9, 22.5 80.5 Q 22.5 82.1, 23.1 82.9 Q 23.8 83.7, 25.0 83.7 " fill="#FF0000"/>
<path class="atom-15" d="M 249.3 85.8 Q 249.3 83.9, 250.2 82.8 Q 251.2 81.7, 252.9 81.7 Q 254.7 81.7, 255.6 82.8 Q 256.6 83.9, 256.6 85.8 Q 256.6 87.7, 255.6 88.8 Q 254.7 89.8, 252.9 89.8 Q 251.2 89.8, 250.2 88.8 Q 249.3 87.7, 249.3 85.8 M 252.9 89.0 Q 254.1 89.0, 254.8 88.2 Q 255.4 87.3, 255.4 85.8 Q 255.4 84.2, 254.8 83.4 Q 254.1 82.6, 252.9 82.6 Q 251.7 82.6, 251.1 83.4 Q 250.4 84.2, 250.4 85.8 Q 250.4 87.4, 251.1 88.2 Q 251.7 89.0, 252.9 89.0 " fill="#FF0000"/>
<path class="atom-16" d="M 212.8 117.3 Q 212.8 115.5, 213.8 114.4 Q 214.7 113.3, 216.5 113.3 Q 218.2 113.3, 219.1 114.4 Q 220.1 115.5, 220.1 117.3 Q 220.1 119.3, 219.1 120.4 Q 218.2 121.4, 216.5 121.4 Q 214.7 121.4, 213.8 120.4 Q 212.8 119.3, 212.8 117.3 M 216.5 120.5 Q 217.7 120.5, 218.3 119.7 Q 219.0 118.9, 219.0 117.3 Q 219.0 115.8, 218.3 115.0 Q 217.7 114.2, 216.5 114.2 Q 215.3 114.2, 214.6 115.0 Q 213.9 115.8, 213.9 117.3 Q 213.9 118.9, 214.6 119.7 Q 215.3 120.5, 216.5 120.5 " fill="#FF0000"/>
<path class="atom-16" d="M 221.3 113.4 L 222.4 113.4 L 222.4 116.8 L 226.4 116.8 L 226.4 113.4 L 227.5 113.4 L 227.5 121.3 L 226.4 121.3 L 226.4 117.7 L 222.4 117.7 L 222.4 121.3 L 221.3 121.3 L 221.3 113.4 " fill="#FF0000"/>
<path class="legend" d="M 126.0 181.9 Q 126.0 179.6, 126.7 177.7 Q 127.4 175.8, 128.7 173.8 L 129.6 174.4 Q 128.5 176.3, 128.0 178.0 Q 127.5 179.7, 127.5 181.9 Q 127.5 184.0, 128.0 185.8 Q 128.5 187.5, 129.6 189.4 L 128.7 190.0 Q 127.4 188.0, 126.7 186.1 Q 126.0 184.2, 126.0 181.9 " fill="#000000"/>
<path class="legend" d="M 130.5 177.3 Q 130.9 176.2, 131.9 175.6 Q 132.9 175.0, 134.3 175.0 Q 136.0 175.0, 136.9 175.9 Q 137.9 176.8, 137.9 178.5 Q 137.9 180.2, 136.6 181.7 Q 135.4 183.3, 132.9 185.2 L 138.1 185.2 L 138.1 186.4 L 130.5 186.4 L 130.5 185.4 Q 132.6 183.9, 133.8 182.8 Q 135.1 181.6, 135.7 180.6 Q 136.3 179.6, 136.3 178.6 Q 136.3 177.5, 135.8 176.9 Q 135.2 176.3, 134.3 176.3 Q 133.3 176.3, 132.7 176.6 Q 132.1 177.0, 131.7 177.8 L 130.5 177.3 " fill="#000000"/>
<path class="legend" d="M 143.1 181.9 Q 143.1 184.2, 142.4 186.1 Q 141.7 188.0, 140.4 190.0 L 139.5 189.4 Q 140.6 187.5, 141.1 185.8 Q 141.6 184.0, 141.6 181.9 Q 141.6 179.7, 141.1 178.0 Q 140.6 176.3, 139.5 174.4 L 140.4 173.8 Q 141.7 175.8, 142.4 177.7 Q 143.1 179.6, 143.1 181.9 " fill="#000000"/>
</g>
    <g transform="translate(271.0, 0) scale(1 1) "><line x1="5" y1="100" x2="35" y2="100" style="stroke:rgb(0,0,0);stroke-width:2"/>
  <line x1="34" y1="100" x2="29" y2="95" style="stroke:rgb(0,0,0);stroke-width:2"/>
  <line x1="34" y1="100" x2="29" y2="105" style="stroke:rgb(0,0,0);stroke-width:2"/>
</g>
    <g transform="translate(311.0, 0) scale(1 1) "><!-- END OF HEADER -->
<rect style="opacity:1.0;fill:#FFFFFF;stroke:none" width="225.0" height="200.0" x="0.0" y="0.0"> </rect>
<path class="bond-0 atom-0 atom-1" d="M 171.6,52.6 L 147.9,83.8" style="fill:none;fill-rule:evenodd;stroke:#000000;stroke-width:2.0px;stroke-linecap:butt;stroke-linejoin:miter;stroke-opacity:1"/>
<path class="bond-0 atom-0 atom-1" d="M 167.2,49.2 L 143.4,80.3" style="fill:none;fill-rule:evenodd;stroke:#000000;stroke-width:2.0px;stroke-linecap:butt;stroke-linejoin:miter;stroke-opacity:1"/>
<path class="bond-1 atom-1 atom-2" d="M 146.7,80.8 L 109.4,76.0" style="fill:none;fill-rule:evenodd;stroke:#000000;stroke-width:2.0px;stroke-linecap:butt;stroke-linejoin:miter;stroke-opacity:1"/>
<path class="bond-2 atom-2 atom-3" d="M 109.4,76.0 L 86.6,105.9" style="fill:none;fill-rule:evenodd;stroke:#000000;stroke-width:2.0px;stroke-linecap:butt;stroke-linejoin:miter;stroke-opacity:1"/>
<path class="bond-3 atom-3 atom-4" d="M 86.6,105.9 L 49.4,101.1" style="fill:none;fill-rule:evenodd;stroke:#000000;stroke-width:2.0px;stroke-linecap:butt;stroke-linejoin:miter;stroke-opacity:1"/>
<path class="bond-4 atom-4 atom-5" d="M 52.6,101.5 L 46.5,86.8" style="fill:none;fill-rule:evenodd;stroke:#000000;stroke-width:2.0px;stroke-linecap:butt;stroke-linejoin:miter;stroke-opacity:1"/>
<path class="bond-4 atom-4 atom-5" d="M 46.5,86.8 L 40.3,72.1" style="fill:none;fill-rule:evenodd;stroke:#FF0000;stroke-width:2.0px;stroke-linecap:butt;stroke-linejoin:miter;stroke-opacity:1"/>
<path class="bond-4 atom-4 atom-5" d="M 47.4,103.7 L 41.3,89.0" style="fill:none;fill-rule:evenodd;stroke:#000000;stroke-width:2.0px;stroke-linecap:butt;stroke-linejoin:miter;stroke-opacity:1"/>
<path class="bond-4 atom-4 atom-5" d="M 41.3,89.0 L 35.1,74.3" style="fill:none;fill-rule:evenodd;stroke:#FF0000;stroke-width:2.0px;stroke-linecap:butt;stroke-linejoin:miter;stroke-opacity:1"/>
<path class="bond-5 atom-4 atom-6" d="M 49.4,101.1 L 40.5,112.7" style="fill:none;fill-rule:evenodd;stroke:#000000;stroke-width:2.0px;stroke-linecap:butt;stroke-linejoin:miter;stroke-opacity:1"/>
<path class="bond-5 atom-4 atom-6" d="M 40.5,112.7 L 31.7,124.3" style="fill:none;fill-rule:evenodd;stroke:#FF0000;stroke-width:2.0px;stroke-linecap:butt;stroke-linejoin:miter;stroke-opacity:1"/>
<path class="bond-6 atom-1 atom-7" d="M 146.7,80.8 L 161.1,115.4" style="fill:none;fill-rule:evenodd;stroke:#000000;stroke-width:2.0px;stroke-linecap:butt;stroke-linejoin:miter;stroke-opacity:1"/>
<path class="bond-7 atom-7 atom-8" d="M 161.1,115.4 L 152.3,127.0" style="fill:none;fill-rule:evenodd;stroke:#000000;stroke-width:2.0px;stroke-linecap:butt;stroke-linejoin:miter;stroke-opacity:1"/>
<path class="bond-7 atom-7 atom-8" d="M 152.3,127.0 L 143.4,138.7" style="fill:none;fill-rule:evenodd;stroke:#FF0000;stroke-width:2.0px;stroke-linecap:butt;stroke-linejoin:miter;stroke-opacity:1"/>
<path class="bond-8 atom-7 atom-9" d="M 161.1,115.4 L 176.7,117.4" style="fill:none;fill-rule:evenodd;stroke:#000000;stroke-width:2.0px;stroke-linecap:butt;stroke-linejoin:miter;stroke-opacity:1"/>
<path class="bond-8 atom-7 atom-9" d="M 176.7,117.4 L 192.3,119.4" style="fill:none;fill-rule:evenodd;stroke:#FF0000;stroke-width:2.0px;stroke-linecap:butt;stroke-linejoin:miter;stroke-opacity:1"/>
<path d="M 144.8,80.5 L 146.7,80.8 L 147.4,82.5" style="fill:none;stroke:#000000;stroke-width:2.0px;stroke-linecap:butt;stroke-linejoin:miter;stroke-opacity:1;"/>
<path d="M 111.3,76.2 L 109.4,76.0 L 108.3,77.5" style="fill:none;stroke:#000000;stroke-width:2.0px;stroke-linecap:butt;stroke-linejoin:miter;stroke-opacity:1;"/>
<path d="M 87.8,104.4 L 86.6,105.9 L 84.8,105.6" style="fill:none;stroke:#000000;stroke-width:2.0px;stroke-linecap:butt;stroke-linejoin:miter;stroke-opacity:1;"/>
<path d="M 51.3,101.3 L 49.4,101.1 L 49.0,101.7" style="fill:none;stroke:#000000;stroke-width:2.0px;stroke-linecap:butt;stroke-linejoin:miter;stroke-opacity:1;"/>
<path class="atom-5" d="M 30.0 66.5 Q 30.0 63.9, 31.3 62.5 Q 32.5 61.1, 34.9 61.1 Q 37.3 61.1, 38.5 62.5 Q 39.8 63.9, 39.8 66.5 Q 39.8 69.1, 38.5 70.5 Q 37.2 72.0, 34.9 72.0 Q 32.6 72.0, 31.3 70.5 Q 30.0 69.1, 30.0 66.5 M 34.9 70.8 Q 36.5 70.8, 37.4 69.7 Q 38.3 68.6, 38.3 66.5 Q 38.3 64.4, 37.4 63.3 Q 36.5 62.3, 34.9 62.3 Q 33.3 62.3, 32.4 63.3 Q 31.5 64.4, 31.5 66.5 Q 31.5 68.6, 32.4 69.7 Q 33.3 70.8, 34.9 70.8 " fill="#FF0000"/>
<path class="atom-6" d="M 11.2 125.7 L 12.7 125.7 L 12.7 130.2 L 18.1 130.2 L 18.1 125.7 L 19.6 125.7 L 19.6 136.3 L 18.1 136.3 L 18.1 131.4 L 12.7 131.4 L 12.7 136.3 L 11.2 136.3 L 11.2 125.7 " fill="#FF0000"/>
<path class="atom-6" d="M 21.8 131.0 Q 21.8 128.4, 23.0 127.0 Q 24.3 125.6, 26.6 125.6 Q 29.0 125.6, 30.3 127.0 Q 31.5 128.4, 31.5 131.0 Q 31.5 133.6, 30.2 135.0 Q 29.0 136.5, 26.6 136.5 Q 24.3 136.5, 23.0 135.0 Q 21.8 133.6, 21.8 131.0 M 26.6 135.3 Q 28.3 135.3, 29.1 134.2 Q 30.0 133.1, 30.0 131.0 Q 30.0 128.9, 29.1 127.8 Q 28.3 126.8, 26.6 126.8 Q 25.0 126.8, 24.1 127.8 Q 23.3 128.9, 23.3 131.0 Q 23.3 133.1, 24.1 134.2 Q 25.0 135.3, 26.6 135.3 " fill="#FF0000"/>
<path class="atom-8" d="M 123.0 140.0 L 124.4 140.0 L 124.4 144.5 L 129.9 144.5 L 129.9 140.0 L 131.3 140.0 L 131.3 150.7 L 129.9 150.7 L 129.9 145.7 L 124.4 145.7 L 124.4 150.7 L 123.0 150.7 L 123.0 140.0 " fill="#FF0000"/>
<path class="atom-8" d="M 133.5 145.3 Q 133.5 142.8, 134.8 141.3 Q 136.0 139.9, 138.4 139.9 Q 140.7 139.9, 142.0 141.3 Q 143.3 142.8, 143.3 145.3 Q 143.3 147.9, 142.0 149.4 Q 140.7 150.8, 138.4 150.8 Q 136.0 150.8, 134.8 149.4 Q 133.5 147.9, 133.5 145.3 M 138.4 149.6 Q 140.0 149.6, 140.9 148.5 Q 141.8 147.4, 141.8 145.3 Q 141.8 143.2, 140.9 142.2 Q 140.0 141.1, 138.4 141.1 Q 136.8 141.1, 135.9 142.2 Q 135.0 143.2, 135.0 145.3 Q 135.0 147.5, 135.9 148.5 Q 136.8 149.6, 138.4 149.6 " fill="#FF0000"/>
<path class="atom-9" d="M 193.5 120.2 Q 193.5 117.7, 194.8 116.2 Q 196.0 114.8, 198.4 114.8 Q 200.7 114.8, 202.0 116.2 Q 203.3 117.7, 203.3 120.2 Q 203.3 122.8, 202.0 124.3 Q 200.7 125.7, 198.4 125.7 Q 196.0 125.7, 194.8 124.3 Q 193.5 122.8, 193.5 120.2 M 198.4 124.5 Q 200.0 124.5, 200.9 123.4 Q 201.8 122.3, 201.8 120.2 Q 201.8 118.1, 200.9 117.1 Q 200.0 116.0, 198.4 116.0 Q 196.8 116.0, 195.9 117.1 Q 195.0 118.1, 195.0 120.2 Q 195.0 122.4, 195.9 123.4 Q 196.8 124.5, 198.4 124.5 " fill="#FF0000"/>
<path class="atom-9" d="M 204.9 114.9 L 206.4 114.9 L 206.4 119.4 L 211.8 119.4 L 211.8 114.9 L 213.3 114.9 L 213.3 125.6 L 211.8 125.6 L 211.8 120.6 L 206.4 120.6 L 206.4 125.6 L 204.9 125.6 L 204.9 114.9 " fill="#FF0000"/>
</g>
    <g transform="translate(536.0, 0) scale(1 1) "><line x1="15" y1="100" x2="25" y2="100" style="stroke:rgb(0,0,0);stroke-width:2"/>
  <line x1="20" y1="95" x2="20" y2="105" style="stroke:rgb(0,0,0);stroke-width:2"/>
</g>
    <g transform="translate(576.0, 0) scale(1 1) "><!-- END OF HEADER -->
<rect style="opacity:1.0;fill:#FFFFFF;stroke:none" width="301.0" height="200.0" x="0.0" y="0.0"> </rect>
<path class="bond-0 atom-0 atom-1" d="M 92.5,71.1 L 124.4,66.5" style="fill:none;fill-rule:evenodd;stroke:#000000;stroke-width:2.0px;stroke-linecap:butt;stroke-linejoin:miter;stroke-opacity:1"/>
<path class="bond-0 atom-0 atom-1" d="M 93.1,75.7 L 125.1,71.1" style="fill:none;fill-rule:evenodd;stroke:#000000;stroke-width:2.0px;stroke-linecap:butt;stroke-linejoin:miter;stroke-opacity:1"/>
<path class="bond-1 atom-1 atom-2" d="M 123.4,69.0 L 142.6,93.3" style="fill:none;fill-rule:evenodd;stroke:#000000;stroke-width:2.0px;stroke-linecap:butt;stroke-linejoin:miter;stroke-opacity:1"/>
<path class="bond-2 atom-2 atom-3" d="M 142.6,93.3 L 173.2,88.9" style="fill:none;fill-rule:evenodd;stroke:#000000;stroke-width:2.0px;stroke-linecap:butt;stroke-linejoin:miter;stroke-opacity:1"/>
<path class="bond-3 atom-3 atom-4" d="M 173.2,88.9 L 192.4,113.2" style="fill:none;fill-rule:evenodd;stroke:#000000;stroke-width:2.0px;stroke-linecap:butt;stroke-linejoin:miter;stroke-opacity:1"/>
<path class="bond-4 atom-4 atom-5" d="M 192.4,113.2 L 223.0,108.8" style="fill:none;fill-rule:evenodd;stroke:#000000;stroke-width:2.0px;stroke-linecap:butt;stroke-linejoin:miter;stroke-opacity:1"/>
<path class="bond-5 atom-5 atom-6" d="M 223.0,108.8 L 242.2,133.1" style="fill:none;fill-rule:evenodd;stroke:#000000;stroke-width:2.0px;stroke-linecap:butt;stroke-linejoin:miter;stroke-opacity:1"/>
<path class="bond-6 atom-6 atom-7" d="M 240.5,131.0 L 235.6,143.2" style="fill:none;fill-rule:evenodd;stroke:#000000;stroke-width:2.0px;stroke-linecap:butt;stroke-linejoin:miter;stroke-opacity:1"/>
<path class="bond-6 atom-6 atom-7" d="M 235.6,143.2 L 230.7,155.5" style="fill:none;fill-rule:evenodd;stroke:#FF0000;stroke-width:2.0px;stroke-linecap:butt;stroke-linejoin:miter;stroke-opacity:1"/>
<path class="bond-6 atom-6 atom-7" d="M 244.8,132.7 L 239.9,145.0" style="fill:none;fill-rule:evenodd;stroke:#000000;stroke-width:2.0px;stroke-linecap:butt;stroke-linejoin:miter;stroke-opacity:1"/>
<path class="bond-6 atom-6 atom-7" d="M 239.9,145.0 L 235.0,157.2" style="fill:none;fill-rule:evenodd;stroke:#FF0000;stroke-width:2.0px;stroke-linecap:butt;stroke-linejoin:miter;stroke-opacity:1"/>
<path class="bond-7 atom-6 atom-8" d="M 242.2,133.1 L 255.0,131.2" style="fill:none;fill-rule:evenodd;stroke:#000000;stroke-width:2.0px;stroke-linecap:butt;stroke-linejoin:miter;stroke-opacity:1"/>
<path class="bond-7 atom-6 atom-8" d="M 255.0,131.2 L 267.8,129.4" style="fill:none;fill-rule:evenodd;stroke:#FF0000;stroke-width:2.0px;stroke-linecap:butt;stroke-linejoin:miter;stroke-opacity:1"/>
<path class="bond-8 atom-4 atom-9" d="M 192.4,113.2 L 180.9,141.9" style="fill:none;fill-rule:evenodd;stroke:#000000;stroke-width:2.0px;stroke-linecap:butt;stroke-linejoin:miter;stroke-opacity:1"/>
<path class="bond-9 atom-9 atom-10" d="M 178.2,142.3 L 198.2,167.7" style="fill:none;fill-rule:evenodd;stroke:#000000;stroke-width:2.0px;stroke-linecap:butt;stroke-linejoin:miter;stroke-opacity:1"/>
<path class="bond-9 atom-9 atom-10" d="M 181.9,139.4 L 201.9,164.8" style="fill:none;fill-rule:evenodd;stroke:#000000;stroke-width:2.0px;stroke-linecap:butt;stroke-linejoin:miter;stroke-opacity:1"/>
<path class="bond-10 atom-9 atom-11" d="M 180.9,141.9 L 150.3,146.4" style="fill:none;fill-rule:evenodd;stroke:#000000;stroke-width:2.0px;stroke-linecap:butt;stroke-linejoin:miter;stroke-opacity:1"/>
<path class="bond-11 atom-11 atom-12" d="M 150.3,146.4 L 148.5,133.8" style="fill:none;fill-rule:evenodd;stroke:#000000;stroke-width:2.0px;stroke-linecap:butt;stroke-linejoin:miter;stroke-opacity:1"/>
<path class="bond-11 atom-11 atom-12" d="M 148.5,133.8 L 146.6,121.3" style="fill:none;fill-rule:evenodd;stroke:#FF0000;stroke-width:2.0px;stroke-linecap:butt;stroke-linejoin:miter;stroke-opacity:1"/>
<path class="bond-12 atom-11 atom-13" d="M 150.3,146.4 L 152.1,158.9" style="fill:none;fill-rule:evenodd;stroke:#000000;stroke-width:2.0px;stroke-linecap:butt;stroke-linejoin:miter;stroke-opacity:1"/>
<path class="bond-12 atom-11 atom-13" d="M 152.1,158.9 L 153.9,171.5" style="fill:none;fill-rule:evenodd;stroke:#FF0000;stroke-width:2.0px;stroke-linecap:butt;stroke-linejoin:miter;stroke-opacity:1"/>
<path class="bond-13 atom-11 atom-14" d="M 150.3,146.4 L 119.6,150.8" style="fill:none;fill-rule:evenodd;stroke:#000000;stroke-width:2.0px;stroke-linecap:butt;stroke-linejoin:miter;stroke-opacity:1"/>
<path class="bond-14 atom-14 atom-15" d="M 119.6,150.8 L 100.5,126.5" style="fill:none;fill-rule:evenodd;stroke:#000000;stroke-width:2.0px;stroke-linecap:butt;stroke-linejoin:miter;stroke-opacity:1"/>
<path class="bond-15 atom-15 atom-16" d="M 100.5,126.5 L 69.8,130.9" style="fill:none;fill-rule:evenodd;stroke:#000000;stroke-width:2.0px;stroke-linecap:butt;stroke-linejoin:miter;stroke-opacity:1"/>
<path class="bond-16 atom-16 atom-17" d="M 72.5,130.5 L 52.5,105.1" style="fill:none;fill-rule:evenodd;stroke:#000000;stroke-width:2.0px;stroke-linecap:butt;stroke-linejoin:miter;stroke-opacity:1"/>
<path class="bond-16 atom-16 atom-17" d="M 68.9,133.4 L 48.9,108.0" style="fill:none;fill-rule:evenodd;stroke:#000000;stroke-width:2.0px;stroke-linecap:butt;stroke-linejoin:miter;stroke-opacity:1"/>
<path class="bond-17 atom-16 atom-18" d="M 69.8,130.9 L 58.4,159.6" style="fill:none;fill-rule:evenodd;stroke:#000000;stroke-width:2.0px;stroke-linecap:butt;stroke-linejoin:miter;stroke-opacity:1"/>
<path class="bond-18 atom-18 atom-19" d="M 55.7,160.0 L 63.6,170.0" style="fill:none;fill-rule:evenodd;stroke:#000000;stroke-width:2.0px;stroke-linecap:butt;stroke-linejoin:miter;stroke-opacity:1"/>
<path class="bond-18 atom-18 atom-19" d="M 63.6,170.0 L 71.4,179.9" style="fill:none;fill-rule:evenodd;stroke:#FF0000;stroke-width:2.0px;stroke-linecap:butt;stroke-linejoin:miter;stroke-opacity:1"/>
<path class="bond-18 atom-18 atom-19" d="M 59.4,157.1 L 67.2,167.1" style="fill:none;fill-rule:evenodd;stroke:#000000;stroke-width:2.0px;stroke-linecap:butt;stroke-linejoin:miter;stroke-opacity:1"/>
<path class="bond-18 atom-18 atom-19" d="M 67.2,167.1 L 75.0,177.1" style="fill:none;fill-rule:evenodd;stroke:#FF0000;stroke-width:2.0px;stroke-linecap:butt;stroke-linejoin:miter;stroke-opacity:1"/>
<path class="bond-19 atom-18 atom-20" d="M 58.4,159.6 L 45.6,161.5" style="fill:none;fill-rule:evenodd;stroke:#000000;stroke-width:2.0px;stroke-linecap:butt;stroke-linejoin:miter;stroke-opacity:1"/>
<path class="bond-19 atom-18 atom-20" d="M 45.6,161.5 L 32.8,163.3" style="fill:none;fill-rule:evenodd;stroke:#FF0000;stroke-width:2.0px;stroke-linecap:butt;stroke-linejoin:miter;stroke-opacity:1"/>
<path class="bond-20 atom-1 atom-21" d="M 123.4,69.0 L 134.9,40.2" style="fill:none;fill-rule:evenodd;stroke:#000000;stroke-width:2.0px;stroke-linecap:butt;stroke-linejoin:miter;stroke-opacity:1"/>
<path class="bond-21 atom-21 atom-22" d="M 137.6,39.8 L 129.8,30.0" style="fill:none;fill-rule:evenodd;stroke:#000000;stroke-width:2.0px;stroke-linecap:butt;stroke-linejoin:miter;stroke-opacity:1"/>
<path class="bond-21 atom-21 atom-22" d="M 129.8,30.0 L 122.0,20.1" style="fill:none;fill-rule:evenodd;stroke:#FF0000;stroke-width:2.0px;stroke-linecap:butt;stroke-linejoin:miter;stroke-opacity:1"/>
<path class="bond-21 atom-21 atom-22" d="M 133.9,42.7 L 126.1,32.8" style="fill:none;fill-rule:evenodd;stroke:#000000;stroke-width:2.0px;stroke-linecap:butt;stroke-linejoin:miter;stroke-opacity:1"/>
<path class="bond-21 atom-21 atom-22" d="M 126.1,32.8 L 118.4,22.9" style="fill:none;fill-rule:evenodd;stroke:#FF0000;stroke-width:2.0px;stroke-linecap:butt;stroke-linejoin:miter;stroke-opacity:1"/>
<path class="bond-22 atom-21 atom-23" d="M 134.9,40.2 L 147.7,38.4" style="fill:none;fill-rule:evenodd;stroke:#000000;stroke-width:2.0px;stroke-linecap:butt;stroke-linejoin:miter;stroke-opacity:1"/>
<path class="bond-22 atom-21 atom-23" d="M 147.7,38.4 L 160.5,36.5" style="fill:none;fill-rule:evenodd;stroke:#FF0000;stroke-width:2.0px;stroke-linecap:butt;stroke-linejoin:miter;stroke-opacity:1"/>
<path d="M 124.4,70.2 L 123.4,69.0 L 124.0,67.5" style="fill:none;stroke:#000000;stroke-width:2.0px;stroke-linecap:butt;stroke-linejoin:miter;stroke-opacity:1;"/>
<path d="M 141.6,92.1 L 142.6,93.3 L 144.1,93.1" style="fill:none;stroke:#000000;stroke-width:2.0px;stroke-linecap:butt;stroke-linejoin:miter;stroke-opacity:1;"/>
<path d="M 171.7,89.1 L 173.2,88.9 L 174.2,90.1" style="fill:none;stroke:#000000;stroke-width:2.0px;stroke-linecap:butt;stroke-linejoin:miter;stroke-opacity:1;"/>
<path d="M 221.5,109.0 L 223.0,108.8 L 224.0,110.0" style="fill:none;stroke:#000000;stroke-width:2.0px;stroke-linecap:butt;stroke-linejoin:miter;stroke-opacity:1;"/>
<path d="M 241.2,131.9 L 242.2,133.1 L 242.8,133.0" style="fill:none;stroke:#000000;stroke-width:2.0px;stroke-linecap:butt;stroke-linejoin:miter;stroke-opacity:1;"/>
<path d="M 181.5,140.5 L 180.9,141.9 L 179.4,142.1" style="fill:none;stroke:#000000;stroke-width:2.0px;stroke-linecap:butt;stroke-linejoin:miter;stroke-opacity:1;"/>
<path d="M 121.2,150.6 L 119.6,150.8 L 118.7,149.6" style="fill:none;stroke:#000000;stroke-width:2.0px;stroke-linecap:butt;stroke-linejoin:miter;stroke-opacity:1;"/>
<path d="M 101.4,127.7 L 100.5,126.5 L 98.9,126.7" style="fill:none;stroke:#000000;stroke-width:2.0px;stroke-linecap:butt;stroke-linejoin:miter;stroke-opacity:1;"/>
<path d="M 71.4,130.7 L 69.8,130.9 L 69.3,132.3" style="fill:none;stroke:#000000;stroke-width:2.0px;stroke-linecap:butt;stroke-linejoin:miter;stroke-opacity:1;"/>
<path d="M 58.9,158.2 L 58.4,159.6 L 57.7,159.7" style="fill:none;stroke:#000000;stroke-width:2.0px;stroke-linecap:butt;stroke-linejoin:miter;stroke-opacity:1;"/>
<path d="M 134.4,41.7 L 134.9,40.2 L 135.6,40.1" style="fill:none;stroke:#000000;stroke-width:2.0px;stroke-linecap:butt;stroke-linejoin:miter;stroke-opacity:1;"/>
<path class="atom-7" d="M 226.7 161.8 Q 226.7 159.7, 227.7 158.6 Q 228.7 157.4, 230.7 157.4 Q 232.6 157.4, 233.7 158.6 Q 234.7 159.7, 234.7 161.8 Q 234.7 164.0, 233.7 165.2 Q 232.6 166.4, 230.7 166.4 Q 228.8 166.4, 227.7 165.2 Q 226.7 164.0, 226.7 161.8 M 230.7 165.4 Q 232.0 165.4, 232.7 164.5 Q 233.5 163.6, 233.5 161.8 Q 233.5 160.1, 232.7 159.2 Q 232.0 158.4, 230.7 158.4 Q 229.3 158.4, 228.6 159.2 Q 227.9 160.1, 227.9 161.8 Q 227.9 163.6, 228.6 164.5 Q 229.3 165.4, 230.7 165.4 " fill="#FF0000"/>
<path class="atom-8" d="M 268.8 128.7 Q 268.8 126.6, 269.8 125.4 Q 270.9 124.2, 272.8 124.2 Q 274.7 124.2, 275.8 125.4 Q 276.8 126.6, 276.8 128.7 Q 276.8 130.8, 275.8 132.0 Q 274.7 133.2, 272.8 133.2 Q 270.9 133.2, 269.8 132.0 Q 268.8 130.8, 268.8 128.7 M 272.8 132.2 Q 274.1 132.2, 274.9 131.3 Q 275.6 130.4, 275.6 128.7 Q 275.6 126.9, 274.9 126.1 Q 274.1 125.2, 272.8 125.2 Q 271.5 125.2, 270.7 126.1 Q 270.0 126.9, 270.0 128.7 Q 270.0 130.4, 270.7 131.3 Q 271.5 132.2, 272.8 132.2 " fill="#FF0000"/>
<path class="atom-8" d="M 278.2 124.3 L 279.4 124.3 L 279.4 128.0 L 283.9 128.0 L 283.9 124.3 L 285.1 124.3 L 285.1 133.1 L 283.9 133.1 L 283.9 129.0 L 279.4 129.0 L 279.4 133.1 L 278.2 133.1 L 278.2 124.3 " fill="#FF0000"/>
<path class="atom-12" d="M 141.8 115.7 Q 141.8 113.6, 142.9 112.5 Q 143.9 111.3, 145.8 111.3 Q 147.8 111.3, 148.8 112.5 Q 149.9 113.6, 149.9 115.7 Q 149.9 117.9, 148.8 119.1 Q 147.8 120.3, 145.8 120.3 Q 143.9 120.3, 142.9 119.1 Q 141.8 117.9, 141.8 115.7 M 145.8 119.3 Q 147.2 119.3, 147.9 118.4 Q 148.6 117.5, 148.6 115.7 Q 148.6 114.0, 147.9 113.2 Q 147.2 112.3, 145.8 112.3 Q 144.5 112.3, 143.8 113.1 Q 143.1 114.0, 143.1 115.7 Q 143.1 117.5, 143.8 118.4 Q 144.5 119.3, 145.8 119.3 " fill="#FF0000"/>
<path class="atom-12" d="M 151.2 111.4 L 152.4 111.4 L 152.4 115.1 L 156.9 115.1 L 156.9 111.4 L 158.1 111.4 L 158.1 120.1 L 156.9 120.1 L 156.9 116.1 L 152.4 116.1 L 152.4 120.1 L 151.2 120.1 L 151.2 111.4 " fill="#FF0000"/>
<path class="atom-13" d="M 150.7 177.0 Q 150.7 174.9, 151.7 173.7 Q 152.8 172.6, 154.7 172.6 Q 156.6 172.6, 157.7 173.7 Q 158.7 174.9, 158.7 177.0 Q 158.7 179.1, 157.7 180.4 Q 156.6 181.6, 154.7 181.6 Q 152.8 181.6, 151.7 180.4 Q 150.7 179.2, 150.7 177.0 M 154.7 180.6 Q 156.0 180.6, 156.7 179.7 Q 157.5 178.8, 157.5 177.0 Q 157.5 175.3, 156.7 174.4 Q 156.0 173.5, 154.7 173.5 Q 153.4 173.5, 152.6 174.4 Q 151.9 175.3, 151.9 177.0 Q 151.9 178.8, 152.6 179.7 Q 153.4 180.6, 154.7 180.6 " fill="#FF0000"/>
<path class="atom-13" d="M 160.1 172.7 L 161.3 172.7 L 161.3 176.4 L 165.8 176.4 L 165.8 172.7 L 166.9 172.7 L 166.9 181.4 L 165.8 181.4 L 165.8 177.4 L 161.3 177.4 L 161.3 181.4 L 160.1 181.4 L 160.1 172.7 " fill="#FF0000"/>
<path class="atom-19" d="M 73.5 184.0 Q 73.5 181.9, 74.5 180.7 Q 75.6 179.5, 77.5 179.5 Q 79.5 179.5, 80.5 180.7 Q 81.5 181.9, 81.5 184.0 Q 81.5 186.1, 80.5 187.3 Q 79.4 188.5, 77.5 188.5 Q 75.6 188.5, 74.5 187.3 Q 73.5 186.1, 73.5 184.0 M 77.5 187.5 Q 78.9 187.5, 79.6 186.6 Q 80.3 185.7, 80.3 184.0 Q 80.3 182.3, 79.6 181.4 Q 78.9 180.5, 77.5 180.5 Q 76.2 180.5, 75.4 181.4 Q 74.7 182.2, 74.7 184.0 Q 74.7 185.7, 75.4 186.6 Q 76.2 187.5, 77.5 187.5 " fill="#FF0000"/>
<path class="atom-20" d="M 15.0 159.7 L 16.2 159.7 L 16.2 163.5 L 20.7 163.5 L 20.7 159.7 L 21.9 159.7 L 21.9 168.5 L 20.7 168.5 L 20.7 164.4 L 16.2 164.4 L 16.2 168.5 L 15.0 168.5 L 15.0 159.7 " fill="#FF0000"/>
<path class="atom-20" d="M 23.7 164.1 Q 23.7 162.0, 24.7 160.8 Q 25.8 159.6, 27.7 159.6 Q 29.7 159.6, 30.7 160.8 Q 31.8 162.0, 31.8 164.1 Q 31.8 166.2, 30.7 167.4 Q 29.6 168.6, 27.7 168.6 Q 25.8 168.6, 24.7 167.4 Q 23.7 166.2, 23.7 164.1 M 27.7 167.6 Q 29.1 167.6, 29.8 166.7 Q 30.5 165.8, 30.5 164.1 Q 30.5 162.4, 29.8 161.5 Q 29.1 160.6, 27.7 160.6 Q 26.4 160.6, 25.7 161.5 Q 24.9 162.4, 24.9 164.1 Q 24.9 165.9, 25.7 166.7 Q 26.4 167.6, 27.7 167.6 " fill="#FF0000"/>
<path class="atom-22" d="M 111.8 15.9 Q 111.8 13.8, 112.8 12.7 Q 113.8 11.5, 115.8 11.5 Q 117.7 11.5, 118.8 12.7 Q 119.8 13.8, 119.8 15.9 Q 119.8 18.1, 118.7 19.3 Q 117.7 20.5, 115.8 20.5 Q 113.8 20.5, 112.8 19.3 Q 111.8 18.1, 111.8 15.9 M 115.8 19.5 Q 117.1 19.5, 117.8 18.6 Q 118.6 17.7, 118.6 15.9 Q 118.6 14.2, 117.8 13.4 Q 117.1 12.5, 115.8 12.5 Q 114.4 12.5, 113.7 13.3 Q 113.0 14.2, 113.0 15.9 Q 113.0 17.7, 113.7 18.6 Q 114.4 19.5, 115.8 19.5 " fill="#FF0000"/>
<path class="atom-23" d="M 161.5 35.8 Q 161.5 33.7, 162.6 32.5 Q 163.6 31.4, 165.6 31.4 Q 167.5 31.4, 168.5 32.5 Q 169.6 33.7, 169.6 35.8 Q 169.6 38.0, 168.5 39.2 Q 167.5 40.4, 165.6 40.4 Q 163.6 40.4, 162.6 39.2 Q 161.5 38.0, 161.5 35.8 M 165.6 39.4 Q 166.9 39.4, 167.6 38.5 Q 168.3 37.6, 168.3 35.8 Q 168.3 34.1, 167.6 33.2 Q 166.9 32.4, 165.6 32.4 Q 164.2 32.4, 163.5 33.2 Q 162.8 34.1, 162.8 35.8 Q 162.8 37.6, 163.5 38.5 Q 164.2 39.4, 165.6 39.4 " fill="#FF0000"/>
<path class="atom-23" d="M 171.0 31.5 L 172.1 31.5 L 172.1 35.2 L 176.6 35.2 L 176.6 31.5 L 177.8 31.5 L 177.8 40.2 L 176.6 40.2 L 176.6 36.2 L 172.1 36.2 L 172.1 40.2 L 171.0 40.2 L 171.0 31.5 " fill="#FF0000"/>
</g>
  </g>
</svg>
