<?xml version='1.0' encoding='ASCII' standalone='yes'?>
<svg xmlns="http://www.w3.org/2000/svg" xmlns:xlink="http://www.w3.org/1999/xlink" version="1.1" width="813.0px" viewBox="0 0 813.0 200.0" height="200.0px">
  <g>
    <g transform="translate(0, 0) scale(1 1) "><!-- END OF HEADER -->
<rect style="opacity:1.0;fill:#FFFFFF;stroke:none" width="247.0" height="200.0" x="0.0" y="0.0"> </rect>
<path class="bond-0 atom-0 atom-1" d="M 192.1,17.4 L 178.5,26.2" style="fill:none;fill-rule:evenodd;stroke:#FF0000;stroke-width:2.0px;stroke-linecap:butt;stroke-linejoin:miter;stroke-opacity:1"/>
<path class="bond-0 atom-0 atom-1" d="M 178.5,26.2 L 165.0,35.0" style="fill:none;fill-rule:evenodd;stroke:#000000;stroke-width:2.0px;stroke-linecap:butt;stroke-linejoin:miter;stroke-opacity:1"/>
<path class="bond-0 atom-0 atom-1" d="M 195.3,22.5 L 181.8,31.3" style="fill:none;fill-rule:evenodd;stroke:#FF0000;stroke-width:2.0px;stroke-linecap:butt;stroke-linejoin:miter;stroke-opacity:1"/>
<path class="bond-0 atom-0 atom-1" d="M 181.8,31.3 L 171.1,38.1" style="fill:none;fill-rule:evenodd;stroke:#000000;stroke-width:2.0px;stroke-linecap:butt;stroke-linejoin:miter;stroke-opacity:1"/>
<path class="bond-1 atom-1 atom-2" d="M 165.0,35.0 L 167.0,75.0" style="fill:none;fill-rule:evenodd;stroke:#000000;stroke-width:2.0px;stroke-linecap:butt;stroke-linejoin:miter;stroke-opacity:1"/>
<path class="bond-2 atom-2 atom-3" d="M 167.0,75.0 L 133.3,96.8" style="fill:none;fill-rule:evenodd;stroke:#000000;stroke-width:2.0px;stroke-linecap:butt;stroke-linejoin:miter;stroke-opacity:1"/>
<path class="bond-3 atom-3 atom-4" d="M 133.3,96.8 L 124.8,83.6" style="fill:none;fill-rule:evenodd;stroke:#000000;stroke-width:2.0px;stroke-linecap:butt;stroke-linejoin:miter;stroke-opacity:1"/>
<path class="bond-3 atom-3 atom-4" d="M 124.8,83.6 L 116.3,70.4" style="fill:none;fill-rule:evenodd;stroke:#FF0000;stroke-width:2.0px;stroke-linecap:butt;stroke-linejoin:miter;stroke-opacity:1"/>
<path class="bond-4 atom-3 atom-5" d="M 133.3,96.8 L 99.7,118.5" style="fill:none;fill-rule:evenodd;stroke:#000000;stroke-width:2.0px;stroke-linecap:butt;stroke-linejoin:miter;stroke-opacity:1"/>
<path class="bond-5 atom-5 atom-6" d="M 99.7,118.5 L 64.0,100.3" style="fill:none;fill-rule:evenodd;stroke:#000000;stroke-width:2.0px;stroke-linecap:butt;stroke-linejoin:miter;stroke-opacity:1"/>
<path class="bond-6 atom-6 atom-7" d="M 67.1,101.9 L 66.2,84.6" style="fill:none;fill-rule:evenodd;stroke:#000000;stroke-width:2.0px;stroke-linecap:butt;stroke-linejoin:miter;stroke-opacity:1"/>
<path class="bond-6 atom-6 atom-7" d="M 66.2,84.6 L 65.4,67.3" style="fill:none;fill-rule:evenodd;stroke:#FF0000;stroke-width:2.0px;stroke-linecap:butt;stroke-linejoin:miter;stroke-opacity:1"/>
<path class="bond-6 atom-6 atom-7" d="M 61.1,102.2 L 60.2,84.9" style="fill:none;fill-rule:evenodd;stroke:#000000;stroke-width:2.0px;stroke-linecap:butt;stroke-linejoin:miter;stroke-opacity:1"/>
<path class="bond-6 atom-6 atom-7" d="M 60.2,84.9 L 59.4,67.6" style="fill:none;fill-rule:evenodd;stroke:#FF0000;stroke-width:2.0px;stroke-linecap:butt;stroke-linejoin:miter;stroke-opacity:1"/>
<path class="bond-7 atom-6 atom-8" d="M 64.0,100.3 L 50.5,109.0" style="fill:none;fill-rule:evenodd;stroke:#000000;stroke-width:2.0px;stroke-linecap:butt;stroke-linejoin:miter;stroke-opacity:1"/>
<path class="bond-7 atom-6 atom-8" d="M 50.5,109.0 L 36.9,117.8" style="fill:none;fill-rule:evenodd;stroke:#FF0000;stroke-width:2.0px;stroke-linecap:butt;stroke-linejoin:miter;stroke-opacity:1"/>
<path class="bond-8 atom-3 atom-9" d="M 133.3,96.8 L 155.1,130.4" style="fill:none;fill-rule:evenodd;stroke:#000000;stroke-width:2.0px;stroke-linecap:butt;stroke-linejoin:miter;stroke-opacity:1"/>
<path class="bond-9 atom-9 atom-10" d="M 153.2,127.5 L 145.5,142.6" style="fill:none;fill-rule:evenodd;stroke:#000000;stroke-width:2.0px;stroke-linecap:butt;stroke-linejoin:miter;stroke-opacity:1"/>
<path class="bond-9 atom-9 atom-10" d="M 145.5,142.6 L 137.8,157.7" style="fill:none;fill-rule:evenodd;stroke:#FF0000;stroke-width:2.0px;stroke-linecap:butt;stroke-linejoin:miter;stroke-opacity:1"/>
<path class="bond-9 atom-9 atom-10" d="M 158.6,130.2 L 150.9,145.3" style="fill:none;fill-rule:evenodd;stroke:#000000;stroke-width:2.0px;stroke-linecap:butt;stroke-linejoin:miter;stroke-opacity:1"/>
<path class="bond-9 atom-9 atom-10" d="M 150.9,145.3 L 143.1,160.4" style="fill:none;fill-rule:evenodd;stroke:#FF0000;stroke-width:2.0px;stroke-linecap:butt;stroke-linejoin:miter;stroke-opacity:1"/>
<path class="bond-10 atom-9 atom-11" d="M 155.1,130.4 L 171.8,129.6" style="fill:none;fill-rule:evenodd;stroke:#000000;stroke-width:2.0px;stroke-linecap:butt;stroke-linejoin:miter;stroke-opacity:1"/>
<path class="bond-10 atom-9 atom-11" d="M 171.8,129.6 L 188.6,128.7" style="fill:none;fill-rule:evenodd;stroke:#FF0000;stroke-width:2.0px;stroke-linecap:butt;stroke-linejoin:miter;stroke-opacity:1"/>
<path class="bond-11 atom-11 atom-12" d="M 199.8,135.6 L 212.3,155.0" style="fill:none;fill-rule:evenodd;stroke:#FF0000;stroke-width:2.0px;stroke-linecap:butt;stroke-linejoin:miter;stroke-opacity:1"/>
<path d="M 165.6,34.5 L 165.0,35.0 L 165.1,37.0" style="fill:none;stroke:#000000;stroke-width:2.0px;stroke-linecap:butt;stroke-linejoin:miter;stroke-opacity:1;"/>
<path d="M 166.9,73.0 L 167.0,75.0 L 165.3,76.1" style="fill:none;stroke:#000000;stroke-width:2.0px;stroke-linecap:butt;stroke-linejoin:miter;stroke-opacity:1;"/>
<path d="M 101.4,117.4 L 99.7,118.5 L 97.9,117.6" style="fill:none;stroke:#000000;stroke-width:2.0px;stroke-linecap:butt;stroke-linejoin:miter;stroke-opacity:1;"/>
<path d="M 65.8,101.2 L 64.0,100.3 L 63.3,100.7" style="fill:none;stroke:#000000;stroke-width:2.0px;stroke-linecap:butt;stroke-linejoin:miter;stroke-opacity:1;"/>
<path d="M 154.0,128.7 L 155.1,130.4 L 155.9,130.4" style="fill:none;stroke:#000000;stroke-width:2.0px;stroke-linecap:butt;stroke-linejoin:miter;stroke-opacity:1;"/>
<path class="atom-0" d="M 195.0 15.8 Q 195.0 13.0, 196.4 11.5 Q 197.7 10.0, 200.2 10.0 Q 202.7 10.0, 204.1 11.5 Q 205.4 13.0, 205.4 15.8 Q 205.4 18.5, 204.1 20.1 Q 202.7 21.7, 200.2 21.7 Q 197.7 21.7, 196.4 20.1 Q 195.0 18.5, 195.0 15.8 M 200.2 20.4 Q 202.0 20.4, 202.9 19.2 Q 203.8 18.0, 203.8 15.8 Q 203.8 13.5, 202.9 12.4 Q 202.0 11.3, 200.2 11.3 Q 198.5 11.3, 197.6 12.4 Q 196.6 13.5, 196.6 15.8 Q 196.6 18.1, 197.6 19.2 Q 198.5 20.4, 200.2 20.4 " fill="#FF0000"/>
<path class="atom-4" d="M 95.2 57.5 L 96.7 57.5 L 96.7 62.3 L 102.5 62.3 L 102.5 57.5 L 104.0 57.5 L 104.0 68.9 L 102.5 68.9 L 102.5 63.6 L 96.7 63.6 L 96.7 68.9 L 95.2 68.9 L 95.2 57.5 " fill="#FF0000"/>
<path class="atom-4" d="M 106.4 63.2 Q 106.4 60.4, 107.7 58.9 Q 109.1 57.4, 111.6 57.4 Q 114.1 57.4, 115.4 58.9 Q 116.8 60.4, 116.8 63.2 Q 116.8 65.9, 115.4 67.5 Q 114.1 69.0, 111.6 69.0 Q 109.1 69.0, 107.7 67.5 Q 106.4 65.9, 106.4 63.2 M 111.6 67.8 Q 113.3 67.8, 114.2 66.6 Q 115.2 65.4, 115.2 63.2 Q 115.2 60.9, 114.2 59.8 Q 113.3 58.7, 111.6 58.7 Q 109.8 58.7, 108.9 59.8 Q 108.0 60.9, 108.0 63.2 Q 108.0 65.4, 108.9 66.6 Q 109.8 67.8, 111.6 67.8 " fill="#FF0000"/>
<path class="atom-7" d="M 56.8 60.3 Q 56.8 57.6, 58.1 56.0 Q 59.5 54.5, 62.0 54.5 Q 64.5 54.5, 65.9 56.0 Q 67.2 57.6, 67.2 60.3 Q 67.2 63.0, 65.8 64.6 Q 64.5 66.2, 62.0 66.2 Q 59.5 66.2, 58.1 64.6 Q 56.8 63.1, 56.8 60.3 M 62.0 64.9 Q 63.7 64.9, 64.7 63.7 Q 65.6 62.6, 65.6 60.3 Q 65.6 58.1, 64.7 56.9 Q 63.7 55.8, 62.0 55.8 Q 60.3 55.8, 59.3 56.9 Q 58.4 58.0, 58.4 60.3 Q 58.4 62.6, 59.3 63.7 Q 60.3 64.9, 62.0 64.9 " fill="#FF0000"/>
<path class="atom-8" d="M 14.0 116.4 L 15.5 116.4 L 15.5 121.3 L 21.3 121.3 L 21.3 116.4 L 22.8 116.4 L 22.8 127.8 L 21.3 127.8 L 21.3 122.5 L 15.5 122.5 L 15.5 127.8 L 14.0 127.8 L 14.0 116.4 " fill="#FF0000"/>
<path class="atom-8" d="M 25.2 122.1 Q 25.2 119.4, 26.5 117.8 Q 27.9 116.3, 30.4 116.3 Q 32.9 116.3, 34.2 117.8 Q 35.6 119.4, 35.6 122.1 Q 35.6 124.8, 34.2 126.4 Q 32.9 128.0, 30.4 128.0 Q 27.9 128.0, 26.5 126.4 Q 25.2 124.8, 25.2 122.1 M 30.4 126.7 Q 32.1 126.7, 33.0 125.5 Q 34.0 124.4, 34.0 122.1 Q 34.0 119.8, 33.0 118.7 Q 32.1 117.6, 30.4 117.6 Q 28.6 117.6, 27.7 118.7 Q 26.8 119.8, 26.8 122.1 Q 26.8 124.4, 27.7 125.5 Q 28.6 126.7, 30.4 126.7 " fill="#FF0000"/>
<path class="atom-10" d="M 131.6 166.1 Q 131.6 163.4, 133.0 161.9 Q 134.3 160.3, 136.8 160.3 Q 139.4 160.3, 140.7 161.9 Q 142.1 163.4, 142.1 166.1 Q 142.1 168.9, 140.7 170.4 Q 139.3 172.0, 136.8 172.0 Q 134.3 172.0, 133.0 170.4 Q 131.6 168.9, 131.6 166.1 M 136.8 170.7 Q 138.6 170.7, 139.5 169.6 Q 140.5 168.4, 140.5 166.1 Q 140.5 163.9, 139.5 162.8 Q 138.6 161.6, 136.8 161.6 Q 135.1 161.6, 134.2 162.8 Q 133.2 163.9, 133.2 166.1 Q 133.2 168.4, 134.2 169.6 Q 135.1 170.7, 136.8 170.7 " fill="#FF0000"/>
<path class="atom-11" d="M 189.9 128.4 Q 189.9 125.7, 191.3 124.2 Q 192.6 122.6, 195.1 122.6 Q 197.6 122.6, 199.0 124.2 Q 200.3 125.7, 200.3 128.4 Q 200.3 131.2, 199.0 132.7 Q 197.6 134.3, 195.1 134.3 Q 192.6 134.3, 191.3 132.7 Q 189.9 131.2, 189.9 128.4 M 195.1 133.0 Q 196.9 133.0, 197.8 131.9 Q 198.7 130.7, 198.7 128.4 Q 198.7 126.2, 197.8 125.1 Q 196.9 123.9, 195.1 123.9 Q 193.4 123.9, 192.4 125.1 Q 191.5 126.2, 191.5 128.4 Q 191.5 130.7, 192.4 131.9 Q 193.4 133.0, 195.1 133.0 " fill="#FF0000"/>
<path class="atom-12" d="M 211.7 162.1 Q 211.7 159.3, 213.0 157.8 Q 214.4 156.3, 216.9 156.3 Q 219.4 156.3, 220.8 157.8 Q 222.1 159.3, 222.1 162.1 Q 222.1 164.8, 220.7 166.4 Q 219.4 167.9, 216.9 167.9 Q 214.4 167.9, 213.0 166.4 Q 211.7 164.8, 211.7 162.1 M 216.9 166.7 Q 218.6 166.7, 219.5 165.5 Q 220.5 164.3, 220.5 162.1 Q 220.5 159.8, 219.5 158.7 Q 218.6 157.6, 216.9 157.6 Q 215.2 157.6, 214.2 158.7 Q 213.3 159.8, 213.3 162.1 Q 213.3 164.4, 214.2 165.5 Q 215.2 166.7, 216.9 166.7 " fill="#FF0000"/>
<path class="atom-12" d="M 223.9 156.4 L 225.4 156.4 L 225.4 161.2 L 231.2 161.2 L 231.2 156.4 L 232.7 156.4 L 232.7 167.8 L 231.2 167.8 L 231.2 162.5 L 225.4 162.5 L 225.4 167.8 L 223.9 167.8 L 223.9 156.4 " fill="#FF0000"/>
<path class="legend" d="M 114.8 181.9 Q 114.8 179.6, 115.5 177.7 Q 116.2 175.8, 117.5 173.8 L 118.4 174.4 Q 117.3 176.3, 116.8 178.0 Q 116.3 179.7, 116.3 181.9 Q 116.3 184.0, 116.8 185.8 Q 117.3 187.5, 118.4 189.4 L 117.5 190.0 Q 116.2 188.0, 115.5 186.1 Q 114.8 184.2, 114.8 181.9 " fill="#000000"/>
<path class="legend" d="M 119.3 177.3 Q 119.7 176.2, 120.7 175.6 Q 121.7 175.0, 123.1 175.0 Q 124.8 175.0, 125.7 175.9 Q 126.7 176.8, 126.7 178.5 Q 126.7 180.2, 125.4 181.7 Q 124.2 183.3, 121.7 185.2 L 126.9 185.2 L 126.9 186.4 L 119.3 186.4 L 119.3 185.4 Q 121.4 183.9, 122.6 182.8 Q 123.9 181.6, 124.5 180.6 Q 125.1 179.6, 125.1 178.6 Q 125.1 177.5, 124.5 176.9 Q 124.0 176.3, 123.1 176.3 Q 122.1 176.3, 121.5 176.6 Q 120.9 177.0, 120.5 177.8 L 119.3 177.3 " fill="#000000"/>
<path class="legend" d="M 131.9 181.9 Q 131.9 184.2, 131.2 186.1 Q 130.5 188.0, 129.2 190.0 L 128.3 189.4 Q 129.4 187.5, 129.9 185.8 Q 130.4 184.0, 130.4 181.9 Q 130.4 179.7, 129.9 178.0 Q 129.4 176.3, 128.3 174.4 L 129.2 173.8 Q 130.5 175.8, 131.2 177.7 Q 131.9 179.6, 131.9 181.9 " fill="#000000"/>
</g>
    <g transform="translate(247.0, 0) scale(1 1) "><line x1="5" y1="100" x2="35" y2="100" style="stroke:rgb(0,0,0);stroke-width:2"/>
  <line x1="34" y1="100" x2="29" y2="95" style="stroke:rgb(0,0,0);stroke-width:2"/>
  <line x1="34" y1="100" x2="29" y2="105" style="stroke:rgb(0,0,0);stroke-width:2"/>
</g>
    <g transform="translate(287.0, 0) scale(1 1) "><!-- END OF HEADER -->
<rect style="opacity:1.0;fill:#FFFFFF;stroke:none" width="215.0" height="200.0" x="0.0" y="0.0"> </rect>
<path class="bond-0 atom-0 atom-1" d="M 194.9,111.7 L 182.3,105.8" style="fill:none;fill-rule:evenodd;stroke:#FF0000;stroke-width:2.0px;stroke-linecap:butt;stroke-linejoin:miter;stroke-opacity:1"/>
<path class="bond-0 atom-0 atom-1" d="M 182.3,105.8 L 169.7,99.8" style="fill:none;fill-rule:evenodd;stroke:#000000;stroke-width:2.0px;stroke-linecap:butt;stroke-linejoin:miter;stroke-opacity:1"/>
<path class="bond-0 atom-0 atom-1" d="M 192.7,116.3 L 180.1,110.4" style="fill:none;fill-rule:evenodd;stroke:#FF0000;stroke-width:2.0px;stroke-linecap:butt;stroke-linejoin:miter;stroke-opacity:1"/>
<path class="bond-0 atom-0 atom-1" d="M 180.1,110.4 L 170.2,105.7" style="fill:none;fill-rule:evenodd;stroke:#000000;stroke-width:2.0px;stroke-linecap:butt;stroke-linejoin:miter;stroke-opacity:1"/>
<path class="bond-1 atom-1 atom-2" d="M 169.7,99.8 L 141.8,119.2" style="fill:none;fill-rule:evenodd;stroke:#000000;stroke-width:2.0px;stroke-linecap:butt;stroke-linejoin:miter;stroke-opacity:1"/>
<path class="bond-2 atom-2 atom-3" d="M 141.8,119.2 L 111.1,104.7" style="fill:none;fill-rule:evenodd;stroke:#000000;stroke-width:2.0px;stroke-linecap:butt;stroke-linejoin:miter;stroke-opacity:1"/>
<path class="bond-3 atom-3 atom-4" d="M 111.1,104.7 L 110.0,90.9" style="fill:none;fill-rule:evenodd;stroke:#000000;stroke-width:2.0px;stroke-linecap:butt;stroke-linejoin:miter;stroke-opacity:1"/>
<path class="bond-3 atom-3 atom-4" d="M 110.0,90.9 L 108.8,77.0" style="fill:none;fill-rule:evenodd;stroke:#FF0000;stroke-width:2.0px;stroke-linecap:butt;stroke-linejoin:miter;stroke-opacity:1"/>
<path class="bond-4 atom-3 atom-5" d="M 111.1,104.7 L 83.2,124.1" style="fill:none;fill-rule:evenodd;stroke:#000000;stroke-width:2.0px;stroke-linecap:butt;stroke-linejoin:miter;stroke-opacity:1"/>
<path class="bond-5 atom-5 atom-6" d="M 83.2,124.1 L 52.5,109.6" style="fill:none;fill-rule:evenodd;stroke:#000000;stroke-width:2.0px;stroke-linecap:butt;stroke-linejoin:miter;stroke-opacity:1"/>
<path class="bond-6 atom-6 atom-7" d="M 55.2,110.9 L 54.0,96.3" style="fill:none;fill-rule:evenodd;stroke:#000000;stroke-width:2.0px;stroke-linecap:butt;stroke-linejoin:miter;stroke-opacity:1"/>
<path class="bond-6 atom-6 atom-7" d="M 54.0,96.3 L 52.8,81.7" style="fill:none;fill-rule:evenodd;stroke:#FF0000;stroke-width:2.0px;stroke-linecap:butt;stroke-linejoin:miter;stroke-opacity:1"/>
<path class="bond-6 atom-6 atom-7" d="M 50.1,111.3 L 48.9,96.7" style="fill:none;fill-rule:evenodd;stroke:#000000;stroke-width:2.0px;stroke-linecap:butt;stroke-linejoin:miter;stroke-opacity:1"/>
<path class="bond-6 atom-6 atom-7" d="M 48.9,96.7 L 47.7,82.1" style="fill:none;fill-rule:evenodd;stroke:#FF0000;stroke-width:2.0px;stroke-linecap:butt;stroke-linejoin:miter;stroke-opacity:1"/>
<path class="bond-7 atom-6 atom-8" d="M 52.5,109.6 L 41.4,117.4" style="fill:none;fill-rule:evenodd;stroke:#000000;stroke-width:2.0px;stroke-linecap:butt;stroke-linejoin:miter;stroke-opacity:1"/>
<path class="bond-7 atom-6 atom-8" d="M 41.4,117.4 L 30.2,125.1" style="fill:none;fill-rule:evenodd;stroke:#FF0000;stroke-width:2.0px;stroke-linecap:butt;stroke-linejoin:miter;stroke-opacity:1"/>
<path d="M 170.4,100.1 L 169.7,99.8 L 168.3,100.8" style="fill:none;stroke:#000000;stroke-width:2.0px;stroke-linecap:butt;stroke-linejoin:miter;stroke-opacity:1;"/>
<path d="M 143.2,118.2 L 141.8,119.2 L 140.3,118.5" style="fill:none;stroke:#000000;stroke-width:2.0px;stroke-linecap:butt;stroke-linejoin:miter;stroke-opacity:1;"/>
<path d="M 84.6,123.1 L 83.2,124.1 L 81.7,123.4" style="fill:none;stroke:#000000;stroke-width:2.0px;stroke-linecap:butt;stroke-linejoin:miter;stroke-opacity:1;"/>
<path d="M 54.1,110.3 L 52.5,109.6 L 52.0,110.0" style="fill:none;stroke:#000000;stroke-width:2.0px;stroke-linecap:butt;stroke-linejoin:miter;stroke-opacity:1;"/>
<path class="atom-0" d="M 194.9 116.7 Q 194.9 114.3, 196.1 113.1 Q 197.2 111.8, 199.3 111.8 Q 201.5 111.8, 202.6 113.1 Q 203.8 114.3, 203.8 116.7 Q 203.8 119.0, 202.6 120.3 Q 201.4 121.6, 199.3 121.6 Q 197.2 121.6, 196.1 120.3 Q 194.9 119.0, 194.9 116.7 M 199.3 120.6 Q 200.8 120.6, 201.6 119.6 Q 202.4 118.6, 202.4 116.7 Q 202.4 114.8, 201.6 113.8 Q 200.8 112.9, 199.3 112.9 Q 197.9 112.9, 197.1 113.8 Q 196.3 114.8, 196.3 116.7 Q 196.3 118.6, 197.1 119.6 Q 197.9 120.6, 199.3 120.6 " fill="#FF0000"/>
<path class="atom-4" d="M 103.9 70.9 Q 103.9 68.6, 105.0 67.3 Q 106.2 66.0, 108.3 66.0 Q 110.4 66.0, 111.6 67.3 Q 112.7 68.6, 112.7 70.9 Q 112.7 73.3, 111.6 74.6 Q 110.4 75.9, 108.3 75.9 Q 106.2 75.9, 105.0 74.6 Q 103.9 73.3, 103.9 70.9 M 108.3 74.8 Q 109.8 74.8, 110.6 73.8 Q 111.4 72.9, 111.4 70.9 Q 111.4 69.0, 110.6 68.1 Q 109.8 67.1, 108.3 67.1 Q 106.9 67.1, 106.0 68.1 Q 105.3 69.0, 105.3 70.9 Q 105.3 72.9, 106.0 73.8 Q 106.9 74.8, 108.3 74.8 " fill="#FF0000"/>
<path class="atom-4" d="M 114.2 66.1 L 115.5 66.1 L 115.5 70.2 L 120.4 70.2 L 120.4 66.1 L 121.7 66.1 L 121.7 75.8 L 120.4 75.8 L 120.4 71.3 L 115.5 71.3 L 115.5 75.8 L 114.2 75.8 L 114.2 66.1 " fill="#FF0000"/>
<path class="atom-7" d="M 45.3 75.8 Q 45.3 73.5, 46.5 72.2 Q 47.6 70.9, 49.7 70.9 Q 51.9 70.9, 53.0 72.2 Q 54.1 73.5, 54.1 75.8 Q 54.1 78.1, 53.0 79.5 Q 51.8 80.8, 49.7 80.8 Q 47.6 80.8, 46.5 79.5 Q 45.3 78.2, 45.3 75.8 M 49.7 79.7 Q 51.2 79.7, 52.0 78.7 Q 52.8 77.7, 52.8 75.8 Q 52.8 73.9, 52.0 73.0 Q 51.2 72.0, 49.7 72.0 Q 48.3 72.0, 47.5 73.0 Q 46.7 73.9, 46.7 75.8 Q 46.7 77.7, 47.5 78.7 Q 48.3 79.7, 49.7 79.7 " fill="#FF0000"/>
<path class="atom-8" d="M 10.8 124.2 L 12.1 124.2 L 12.1 128.3 L 17.0 128.3 L 17.0 124.2 L 18.3 124.2 L 18.3 133.8 L 17.0 133.8 L 17.0 129.4 L 12.1 129.4 L 12.1 133.8 L 10.8 133.8 L 10.8 124.2 " fill="#FF0000"/>
<path class="atom-8" d="M 20.2 129.0 Q 20.2 126.7, 21.4 125.4 Q 22.5 124.1, 24.7 124.1 Q 26.8 124.1, 27.9 125.4 Q 29.1 126.7, 29.1 129.0 Q 29.1 131.3, 27.9 132.6 Q 26.8 134.0, 24.7 134.0 Q 22.5 134.0, 21.4 132.6 Q 20.2 131.3, 20.2 129.0 M 24.7 132.9 Q 26.1 132.9, 26.9 131.9 Q 27.7 130.9, 27.7 129.0 Q 27.7 127.1, 26.9 126.1 Q 26.1 125.2, 24.7 125.2 Q 23.2 125.2, 22.4 126.1 Q 21.6 127.1, 21.6 129.0 Q 21.6 130.9, 22.4 131.9 Q 23.2 132.9, 24.7 132.9 " fill="#FF0000"/>
</g>
    <g transform="translate(502.0, 0) scale(1 1) "><line x1="15" y1="100" x2="25" y2="100" style="stroke:rgb(0,0,0);stroke-width:2"/>
  <line x1="20" y1="95" x2="20" y2="105" style="stroke:rgb(0,0,0);stroke-width:2"/>
</g>
    <g transform="translate(542.0, 0) scale(1 1) "><!-- END OF HEADER -->
<rect style="opacity:1.0;fill:#FFFFFF;stroke:none" width="271.0" height="200.0" x="0.0" y="0.0"> </rect>
<path class="bond-0 atom-0 atom-1" d="M 222.7,83.1 L 206.9,81.5" style="fill:none;fill-rule:evenodd;stroke:#FF0000;stroke-width:2.0px;stroke-linecap:butt;stroke-linejoin:miter;stroke-opacity:1"/>
<path class="bond-0 atom-0 atom-1" d="M 206.9,81.5 L 191.0,80.0" style="fill:none;fill-rule:evenodd;stroke:#000000;stroke-width:2.0px;stroke-linecap:butt;stroke-linejoin:miter;stroke-opacity:1"/>
<path class="bond-0 atom-0 atom-1" d="M 222.2,88.8 L 206.3,87.2" style="fill:none;fill-rule:evenodd;stroke:#FF0000;stroke-width:2.0px;stroke-linecap:butt;stroke-linejoin:miter;stroke-opacity:1"/>
<path class="bond-0 atom-0 atom-1" d="M 206.3,87.2 L 193.7,86.0" style="fill:none;fill-rule:evenodd;stroke:#000000;stroke-width:2.0px;stroke-linecap:butt;stroke-linejoin:miter;stroke-opacity:1"/>
<path class="bond-1 atom-1 atom-2" d="M 191.0,80.0 L 168.7,111.0" style="fill:none;fill-rule:evenodd;stroke:#000000;stroke-width:2.0px;stroke-linecap:butt;stroke-linejoin:miter;stroke-opacity:1"/>
<path class="bond-2 atom-2 atom-3" d="M 168.7,111.0 L 184.5,145.8" style="fill:none;fill-rule:evenodd;stroke:#000000;stroke-width:2.0px;stroke-linecap:butt;stroke-linejoin:miter;stroke-opacity:1"/>
<path class="bond-3 atom-3 atom-4" d="M 183.1,142.8 L 173.9,155.6" style="fill:none;fill-rule:evenodd;stroke:#000000;stroke-width:2.0px;stroke-linecap:butt;stroke-linejoin:miter;stroke-opacity:1"/>
<path class="bond-3 atom-3 atom-4" d="M 173.9,155.6 L 164.7,168.5" style="fill:none;fill-rule:evenodd;stroke:#FF0000;stroke-width:2.0px;stroke-linecap:butt;stroke-linejoin:miter;stroke-opacity:1"/>
<path class="bond-3 atom-3 atom-4" d="M 187.8,146.1 L 178.6,159.0" style="fill:none;fill-rule:evenodd;stroke:#000000;stroke-width:2.0px;stroke-linecap:butt;stroke-linejoin:miter;stroke-opacity:1"/>
<path class="bond-3 atom-3 atom-4" d="M 178.6,159.0 L 169.4,171.8" style="fill:none;fill-rule:evenodd;stroke:#FF0000;stroke-width:2.0px;stroke-linecap:butt;stroke-linejoin:miter;stroke-opacity:1"/>
<path class="bond-4 atom-3 atom-5" d="M 184.5,145.8 L 200.4,147.4" style="fill:none;fill-rule:evenodd;stroke:#000000;stroke-width:2.0px;stroke-linecap:butt;stroke-linejoin:miter;stroke-opacity:1"/>
<path class="bond-4 atom-3 atom-5" d="M 200.4,147.4 L 216.3,148.9" style="fill:none;fill-rule:evenodd;stroke:#FF0000;stroke-width:2.0px;stroke-linecap:butt;stroke-linejoin:miter;stroke-opacity:1"/>
<path class="bond-5 atom-5 atom-6" d="M 225.6,156.5 L 235.2,177.6" style="fill:none;fill-rule:evenodd;stroke:#FF0000;stroke-width:2.0px;stroke-linecap:butt;stroke-linejoin:miter;stroke-opacity:1"/>
<path class="bond-6 atom-2 atom-7" d="M 168.7,111.0 L 130.7,107.3" style="fill:none;fill-rule:evenodd;stroke:#000000;stroke-width:2.0px;stroke-linecap:butt;stroke-linejoin:miter;stroke-opacity:1"/>
<path class="bond-7 atom-7 atom-8" d="M 130.7,107.3 L 129.1,122.9" style="fill:none;fill-rule:evenodd;stroke:#000000;stroke-width:2.0px;stroke-linecap:butt;stroke-linejoin:miter;stroke-opacity:1"/>
<path class="bond-7 atom-7 atom-8" d="M 129.1,122.9 L 127.6,138.5" style="fill:none;fill-rule:evenodd;stroke:#FF0000;stroke-width:2.0px;stroke-linecap:butt;stroke-linejoin:miter;stroke-opacity:1"/>
<path class="bond-8 atom-7 atom-9" d="M 130.7,107.3 L 92.7,103.5" style="fill:none;fill-rule:evenodd;stroke:#000000;stroke-width:2.0px;stroke-linecap:butt;stroke-linejoin:miter;stroke-opacity:1"/>
<path class="bond-9 atom-9 atom-10" d="M 92.7,103.5 L 70.4,134.6" style="fill:none;fill-rule:evenodd;stroke:#000000;stroke-width:2.0px;stroke-linecap:butt;stroke-linejoin:miter;stroke-opacity:1"/>
<path class="bond-10 atom-10 atom-11" d="M 67.1,134.2 L 73.8,149.0" style="fill:none;fill-rule:evenodd;stroke:#000000;stroke-width:2.0px;stroke-linecap:butt;stroke-linejoin:miter;stroke-opacity:1"/>
<path class="bond-10 atom-10 atom-11" d="M 73.8,149.0 L 80.5,163.8" style="fill:none;fill-rule:evenodd;stroke:#FF0000;stroke-width:2.0px;stroke-linecap:butt;stroke-linejoin:miter;stroke-opacity:1"/>
<path class="bond-10 atom-10 atom-11" d="M 72.3,131.9 L 79.0,146.7" style="fill:none;fill-rule:evenodd;stroke:#000000;stroke-width:2.0px;stroke-linecap:butt;stroke-linejoin:miter;stroke-opacity:1"/>
<path class="bond-10 atom-10 atom-11" d="M 79.0,146.7 L 85.7,161.4" style="fill:none;fill-rule:evenodd;stroke:#FF0000;stroke-width:2.0px;stroke-linecap:butt;stroke-linejoin:miter;stroke-opacity:1"/>
<path class="bond-11 atom-10 atom-12" d="M 70.4,134.6 L 54.5,133.0" style="fill:none;fill-rule:evenodd;stroke:#000000;stroke-width:2.0px;stroke-linecap:butt;stroke-linejoin:miter;stroke-opacity:1"/>
<path class="bond-11 atom-10 atom-12" d="M 54.5,133.0 L 38.6,131.4" style="fill:none;fill-rule:evenodd;stroke:#FF0000;stroke-width:2.0px;stroke-linecap:butt;stroke-linejoin:miter;stroke-opacity:1"/>
<path class="bond-12 atom-7 atom-13" d="M 130.7,107.3 L 134.4,69.2" style="fill:none;fill-rule:evenodd;stroke:#000000;stroke-width:2.0px;stroke-linecap:butt;stroke-linejoin:miter;stroke-opacity:1"/>
<path class="bond-13 atom-13 atom-14" d="M 137.4,67.9 L 124.4,58.5" style="fill:none;fill-rule:evenodd;stroke:#000000;stroke-width:2.0px;stroke-linecap:butt;stroke-linejoin:miter;stroke-opacity:1"/>
<path class="bond-13 atom-13 atom-14" d="M 124.4,58.5 L 111.3,49.1" style="fill:none;fill-rule:evenodd;stroke:#FF0000;stroke-width:2.0px;stroke-linecap:butt;stroke-linejoin:miter;stroke-opacity:1"/>
<path class="bond-13 atom-13 atom-14" d="M 134.1,72.5 L 121.0,63.2" style="fill:none;fill-rule:evenodd;stroke:#000000;stroke-width:2.0px;stroke-linecap:butt;stroke-linejoin:miter;stroke-opacity:1"/>
<path class="bond-13 atom-13 atom-14" d="M 121.0,63.2 L 107.9,53.8" style="fill:none;fill-rule:evenodd;stroke:#FF0000;stroke-width:2.0px;stroke-linecap:butt;stroke-linejoin:miter;stroke-opacity:1"/>
<path class="bond-14 atom-13 atom-15" d="M 134.4,69.2 L 148.7,62.8" style="fill:none;fill-rule:evenodd;stroke:#000000;stroke-width:2.0px;stroke-linecap:butt;stroke-linejoin:miter;stroke-opacity:1"/>
<path class="bond-14 atom-13 atom-15" d="M 148.7,62.8 L 163.0,56.3" style="fill:none;fill-rule:evenodd;stroke:#FF0000;stroke-width:2.0px;stroke-linecap:butt;stroke-linejoin:miter;stroke-opacity:1"/>
<path class="bond-15 atom-15 atom-16" d="M 169.9,46.8 L 172.3,22.4" style="fill:none;fill-rule:evenodd;stroke:#FF0000;stroke-width:2.0px;stroke-linecap:butt;stroke-linejoin:miter;stroke-opacity:1"/>
<path d="M 191.8,80.0 L 191.0,80.0 L 189.8,81.5" style="fill:none;stroke:#000000;stroke-width:2.0px;stroke-linecap:butt;stroke-linejoin:miter;stroke-opacity:1;"/>
<path d="M 183.7,144.1 L 184.5,145.8 L 185.3,145.9" style="fill:none;stroke:#000000;stroke-width:2.0px;stroke-linecap:butt;stroke-linejoin:miter;stroke-opacity:1;"/>
<path d="M 94.6,103.7 L 92.7,103.5 L 91.6,105.1" style="fill:none;stroke:#000000;stroke-width:2.0px;stroke-linecap:butt;stroke-linejoin:miter;stroke-opacity:1;"/>
<path d="M 71.5,133.0 L 70.4,134.6 L 69.6,134.5" style="fill:none;stroke:#000000;stroke-width:2.0px;stroke-linecap:butt;stroke-linejoin:miter;stroke-opacity:1;"/>
<path d="M 134.2,71.1 L 134.4,69.2 L 135.1,68.9" style="fill:none;stroke:#000000;stroke-width:2.0px;stroke-linecap:butt;stroke-linejoin:miter;stroke-opacity:1;"/>
<path class="atom-0" d="M 223.7 86.6 Q 223.7 84.0, 225.0 82.5 Q 226.3 81.1, 228.7 81.1 Q 231.1 81.1, 232.4 82.5 Q 233.7 84.0, 233.7 86.6 Q 233.7 89.2, 232.4 90.7 Q 231.1 92.2, 228.7 92.2 Q 226.3 92.2, 225.0 90.7 Q 223.7 89.2, 223.7 86.6 M 228.7 91.0 Q 230.3 91.0, 231.2 89.9 Q 232.1 88.8, 232.1 86.6 Q 232.1 84.5, 231.2 83.4 Q 230.3 82.3, 228.7 82.3 Q 227.0 82.3, 226.1 83.4 Q 225.3 84.5, 225.3 86.6 Q 225.3 88.8, 226.1 89.9 Q 227.0 91.0, 228.7 91.0 " fill="#FF0000"/>
<path class="atom-4" d="M 157.2 176.9 Q 157.2 174.3, 158.5 172.8 Q 159.8 171.4, 162.2 171.4 Q 164.6 171.4, 165.9 172.8 Q 167.2 174.3, 167.2 176.9 Q 167.2 179.5, 165.9 181.0 Q 164.6 182.5, 162.2 182.5 Q 159.8 182.5, 158.5 181.0 Q 157.2 179.5, 157.2 176.9 M 162.2 181.3 Q 163.9 181.3, 164.7 180.2 Q 165.6 179.1, 165.6 176.9 Q 165.6 174.8, 164.7 173.7 Q 163.9 172.6, 162.2 172.6 Q 160.6 172.6, 159.7 173.7 Q 158.8 174.8, 158.8 176.9 Q 158.8 179.1, 159.7 180.2 Q 160.6 181.3, 162.2 181.3 " fill="#FF0000"/>
<path class="atom-5" d="M 217.5 149.6 Q 217.5 147.0, 218.8 145.5 Q 220.1 144.1, 222.5 144.1 Q 224.9 144.1, 226.2 145.5 Q 227.4 147.0, 227.4 149.6 Q 227.4 152.2, 226.1 153.7 Q 224.8 155.2, 222.5 155.2 Q 220.1 155.2, 218.8 153.7 Q 217.5 152.2, 217.5 149.6 M 222.5 154.0 Q 224.1 154.0, 225.0 152.9 Q 225.9 151.8, 225.9 149.6 Q 225.9 147.5, 225.0 146.4 Q 224.1 145.3, 222.5 145.3 Q 220.8 145.3, 219.9 146.4 Q 219.0 147.5, 219.0 149.6 Q 219.0 151.8, 219.9 152.9 Q 220.8 154.0, 222.5 154.0 " fill="#FF0000"/>
<path class="atom-6" d="M 233.3 184.4 Q 233.3 181.8, 234.6 180.3 Q 235.8 178.9, 238.2 178.9 Q 240.6 178.9, 241.9 180.3 Q 243.2 181.8, 243.2 184.4 Q 243.2 187.0, 241.9 188.5 Q 240.6 190.0, 238.2 190.0 Q 235.9 190.0, 234.6 188.5 Q 233.3 187.0, 233.3 184.4 M 238.2 188.8 Q 239.9 188.8, 240.8 187.7 Q 241.7 186.6, 241.7 184.4 Q 241.7 182.3, 240.8 181.2 Q 239.9 180.1, 238.2 180.1 Q 236.6 180.1, 235.7 181.2 Q 234.8 182.3, 234.8 184.4 Q 234.8 186.6, 235.7 187.7 Q 236.6 188.8, 238.2 188.8 " fill="#FF0000"/>
<path class="atom-6" d="M 244.9 179.0 L 246.4 179.0 L 246.4 183.6 L 251.9 183.6 L 251.9 179.0 L 253.4 179.0 L 253.4 189.8 L 251.9 189.8 L 251.9 184.8 L 246.4 184.8 L 246.4 189.8 L 244.9 189.8 L 244.9 179.0 " fill="#FF0000"/>
<path class="atom-8" d="M 122.0 145.3 Q 122.0 142.7, 123.3 141.3 Q 124.5 139.8, 126.9 139.8 Q 129.3 139.8, 130.6 141.3 Q 131.9 142.7, 131.9 145.3 Q 131.9 147.9, 130.6 149.4 Q 129.3 150.9, 126.9 150.9 Q 124.6 150.9, 123.3 149.4 Q 122.0 148.0, 122.0 145.3 M 126.9 149.7 Q 128.6 149.7, 129.5 148.6 Q 130.4 147.5, 130.4 145.3 Q 130.4 143.2, 129.5 142.1 Q 128.6 141.0, 126.9 141.0 Q 125.3 141.0, 124.4 142.1 Q 123.5 143.2, 123.5 145.3 Q 123.5 147.5, 124.4 148.6 Q 125.3 149.7, 126.9 149.7 " fill="#FF0000"/>
<path class="atom-8" d="M 133.6 139.9 L 135.1 139.9 L 135.1 144.5 L 140.6 144.5 L 140.6 139.9 L 142.1 139.9 L 142.1 150.8 L 140.6 150.8 L 140.6 145.8 L 135.1 145.8 L 135.1 150.8 L 133.6 150.8 L 133.6 139.9 " fill="#FF0000"/>
<path class="atom-11" d="M 81.2 169.4 Q 81.2 166.8, 82.5 165.3 Q 83.8 163.9, 86.2 163.9 Q 88.6 163.9, 89.9 165.3 Q 91.1 166.8, 91.1 169.4 Q 91.1 172.0, 89.8 173.5 Q 88.5 175.0, 86.2 175.0 Q 83.8 175.0, 82.5 173.5 Q 81.2 172.0, 81.2 169.4 M 86.2 173.8 Q 87.8 173.8, 88.7 172.7 Q 89.6 171.6, 89.6 169.4 Q 89.6 167.3, 88.7 166.2 Q 87.8 165.1, 86.2 165.1 Q 84.5 165.1, 83.6 166.2 Q 82.7 167.3, 82.7 169.4 Q 82.7 171.6, 83.6 172.7 Q 84.5 173.8, 86.2 173.8 " fill="#FF0000"/>
<path class="atom-12" d="M 16.7 125.5 L 18.2 125.5 L 18.2 130.1 L 23.7 130.1 L 23.7 125.5 L 25.2 125.5 L 25.2 136.3 L 23.7 136.3 L 23.7 131.3 L 18.2 131.3 L 18.2 136.3 L 16.7 136.3 L 16.7 125.5 " fill="#FF0000"/>
<path class="atom-12" d="M 27.4 130.8 Q 27.4 128.2, 28.7 126.8 Q 30.0 125.3, 32.4 125.3 Q 34.8 125.3, 36.1 126.8 Q 37.4 128.2, 37.4 130.8 Q 37.4 133.5, 36.1 135.0 Q 34.8 136.4, 32.4 136.4 Q 30.0 136.4, 28.7 135.0 Q 27.4 133.5, 27.4 130.8 M 32.4 135.2 Q 34.0 135.2, 34.9 134.1 Q 35.8 133.0, 35.8 130.8 Q 35.8 128.7, 34.9 127.6 Q 34.0 126.6, 32.4 126.6 Q 30.7 126.6, 29.8 127.6 Q 29.0 128.7, 29.0 130.8 Q 29.0 133.0, 29.8 134.1 Q 30.7 135.2, 32.4 135.2 " fill="#FF0000"/>
<path class="atom-14" d="M 98.4 47.0 Q 98.4 44.4, 99.7 43.0 Q 101.0 41.5, 103.4 41.5 Q 105.8 41.5, 107.1 43.0 Q 108.4 44.4, 108.4 47.0 Q 108.4 49.6, 107.1 51.1 Q 105.8 52.6, 103.4 52.6 Q 101.0 52.6, 99.7 51.1 Q 98.4 49.7, 98.4 47.0 M 103.4 51.4 Q 105.0 51.4, 105.9 50.3 Q 106.8 49.2, 106.8 47.0 Q 106.8 44.9, 105.9 43.8 Q 105.0 42.7, 103.4 42.7 Q 101.7 42.7, 100.8 43.8 Q 99.9 44.9, 99.9 47.0 Q 99.9 49.2, 100.8 50.3 Q 101.7 51.4, 103.4 51.4 " fill="#FF0000"/>
<path class="atom-15" d="M 164.3 53.5 Q 164.3 50.9, 165.6 49.5 Q 166.8 48.0, 169.2 48.0 Q 171.6 48.0, 172.9 49.5 Q 174.2 50.9, 174.2 53.5 Q 174.2 56.1, 172.9 57.6 Q 171.6 59.1, 169.2 59.1 Q 166.9 59.1, 165.6 57.6 Q 164.3 56.2, 164.3 53.5 M 169.2 57.9 Q 170.9 57.9, 171.8 56.8 Q 172.7 55.7, 172.7 53.5 Q 172.7 51.4, 171.8 50.3 Q 170.9 49.2, 169.2 49.2 Q 167.6 49.2, 166.7 50.3 Q 165.8 51.4, 165.8 53.5 Q 165.8 55.7, 166.7 56.8 Q 167.6 57.9, 169.2 57.9 " fill="#FF0000"/>
<path class="atom-16" d="M 168.0 15.5 Q 168.0 12.9, 169.3 11.5 Q 170.6 10.0, 173.0 10.0 Q 175.4 10.0, 176.7 11.5 Q 178.0 12.9, 178.0 15.5 Q 178.0 18.1, 176.7 19.6 Q 175.4 21.1, 173.0 21.1 Q 170.6 21.1, 169.3 19.6 Q 168.0 18.1, 168.0 15.5 M 173.0 19.9 Q 174.6 19.9, 175.5 18.8 Q 176.4 17.7, 176.4 15.5 Q 176.4 13.4, 175.5 12.3 Q 174.6 11.2, 173.0 11.2 Q 171.3 11.2, 170.4 12.3 Q 169.5 13.4, 169.5 15.5 Q 169.5 17.7, 170.4 18.8 Q 171.3 19.9, 173.0 19.9 " fill="#FF0000"/>
<path class="atom-16" d="M 179.6 10.1 L 181.1 10.1 L 181.1 14.7 L 186.6 14.7 L 186.6 10.1 L 188.1 10.1 L 188.1 20.9 L 186.6 20.9 L 186.6 15.9 L 181.1 15.9 L 181.1 20.9 L 179.6 20.9 L 179.6 10.1 " fill="#FF0000"/>
</g>
  </g>
</svg>
