<?xml version='1.0' encoding='ASCII' standalone='yes'?>
<svg xmlns="http://www.w3.org/2000/svg" xmlns:xlink="http://www.w3.org/1999/xlink" version="1.1" width="844.0px" viewBox="0 0 844.0 200.0" height="200.0px">
  <g>
    <g transform="translate(0, 0) scale(1 1) "><!-- END OF HEADER -->
<rect style="opacity:1.0;fill:#FFFFFF;stroke:none" width="260.0" height="200.0" x="0.0" y="0.0"> </rect>
<path class="bond-0 atom-0 atom-1" d="M 228.2,64.7 L 200.6,83.8" style="fill:none;fill-rule:evenodd;stroke:#000000;stroke-width:2.0px;stroke-linecap:butt;stroke-linejoin:miter;stroke-opacity:1"/>
<path class="bond-1 atom-1 atom-2" d="M 200.6,83.8 L 170.2,69.5" style="fill:none;fill-rule:evenodd;stroke:#000000;stroke-width:2.0px;stroke-linecap:butt;stroke-linejoin:miter;stroke-opacity:1"/>
<path class="bond-2 atom-2 atom-3" d="M 170.2,69.5 L 159.2,77.2" style="fill:none;fill-rule:evenodd;stroke:#000000;stroke-width:2.0px;stroke-linecap:butt;stroke-linejoin:miter;stroke-opacity:1"/>
<path class="bond-2 atom-2 atom-3" d="M 159.2,77.2 L 148.1,84.8" style="fill:none;fill-rule:evenodd;stroke:#FF0000;stroke-width:2.0px;stroke-linecap:butt;stroke-linejoin:miter;stroke-opacity:1"/>
<path class="bond-3 atom-3 atom-4" d="M 137.2,86.0 L 124.7,80.2" style="fill:none;fill-rule:evenodd;stroke:#FF0000;stroke-width:2.0px;stroke-linecap:butt;stroke-linejoin:miter;stroke-opacity:1"/>
<path class="bond-3 atom-3 atom-4" d="M 124.7,80.2 L 112.3,74.3" style="fill:none;fill-rule:evenodd;stroke:#000000;stroke-width:2.0px;stroke-linecap:butt;stroke-linejoin:miter;stroke-opacity:1"/>
<path class="bond-4 atom-4 atom-5" d="M 114.9,75.5 L 113.7,61.1" style="fill:none;fill-rule:evenodd;stroke:#000000;stroke-width:2.0px;stroke-linecap:butt;stroke-linejoin:miter;stroke-opacity:1"/>
<path class="bond-4 atom-4 atom-5" d="M 113.7,61.1 L 112.5,46.7" style="fill:none;fill-rule:evenodd;stroke:#FF0000;stroke-width:2.0px;stroke-linecap:butt;stroke-linejoin:miter;stroke-opacity:1"/>
<path class="bond-4 atom-4 atom-5" d="M 109.9,75.9 L 108.7,61.5" style="fill:none;fill-rule:evenodd;stroke:#000000;stroke-width:2.0px;stroke-linecap:butt;stroke-linejoin:miter;stroke-opacity:1"/>
<path class="bond-4 atom-4 atom-5" d="M 108.7,61.5 L 107.5,47.1" style="fill:none;fill-rule:evenodd;stroke:#FF0000;stroke-width:2.0px;stroke-linecap:butt;stroke-linejoin:miter;stroke-opacity:1"/>
<path class="bond-5 atom-4 atom-6" d="M 112.3,74.3 L 84.7,93.4" style="fill:none;fill-rule:evenodd;stroke:#000000;stroke-width:2.0px;stroke-linecap:butt;stroke-linejoin:miter;stroke-opacity:1"/>
<path class="bond-6 atom-6 atom-7" d="M 84.7,93.4 L 65.6,65.8" style="fill:none;fill-rule:evenodd;stroke:#000000;stroke-width:2.0px;stroke-linecap:butt;stroke-linejoin:miter;stroke-opacity:1"/>
<path class="bond-7 atom-6 atom-8" d="M 84.7,93.4 L 103.8,121.0" style="fill:none;fill-rule:evenodd;stroke:#000000;stroke-width:2.0px;stroke-linecap:butt;stroke-linejoin:miter;stroke-opacity:1"/>
<path class="bond-8 atom-6 atom-9" d="M 84.7,93.4 L 57.1,112.5" style="fill:none;fill-rule:evenodd;stroke:#000000;stroke-width:2.0px;stroke-linecap:butt;stroke-linejoin:miter;stroke-opacity:1"/>
<path class="bond-9 atom-9 atom-10" d="M 57.1,112.5 L 59.9,146.0" style="fill:none;fill-rule:evenodd;stroke:#000000;stroke-width:2.0px;stroke-linecap:butt;stroke-linejoin:miter;stroke-opacity:1"/>
<path class="bond-10 atom-9 atom-11" d="M 57.1,112.5 L 44.7,106.6" style="fill:none;fill-rule:evenodd;stroke:#000000;stroke-width:2.0px;stroke-linecap:butt;stroke-linejoin:miter;stroke-opacity:1"/>
<path class="bond-10 atom-9 atom-11" d="M 44.7,106.6 L 32.2,100.8" style="fill:none;fill-rule:evenodd;stroke:#FF0000;stroke-width:2.0px;stroke-linecap:butt;stroke-linejoin:miter;stroke-opacity:1"/>
<path class="bond-11 atom-1 atom-12" d="M 200.6,83.8 L 203.4,117.3" style="fill:none;fill-rule:evenodd;stroke:#000000;stroke-width:2.0px;stroke-linecap:butt;stroke-linejoin:miter;stroke-opacity:1"/>
<path class="bond-12 atom-12 atom-13" d="M 203.4,117.3 L 191.9,125.2" style="fill:none;fill-rule:evenodd;stroke:#000000;stroke-width:2.0px;stroke-linecap:butt;stroke-linejoin:miter;stroke-opacity:1"/>
<path class="bond-12 atom-12 atom-13" d="M 191.9,125.2 L 180.5,133.2" style="fill:none;fill-rule:evenodd;stroke:#0000FF;stroke-width:2.0px;stroke-linecap:butt;stroke-linejoin:miter;stroke-opacity:1"/>
<path class="bond-13 atom-12 atom-14" d="M 203.4,117.3 L 215.8,123.2" style="fill:none;fill-rule:evenodd;stroke:#000000;stroke-width:2.0px;stroke-linecap:butt;stroke-linejoin:miter;stroke-opacity:1"/>
<path class="bond-13 atom-12 atom-14" d="M 215.8,123.2 L 228.2,129.1" style="fill:none;fill-rule:evenodd;stroke:#FF0000;stroke-width:2.0px;stroke-linecap:butt;stroke-linejoin:miter;stroke-opacity:1"/>
<path d="M 171.8,70.2 L 170.2,69.5 L 169.7,69.9" style="fill:none;stroke:#000000;stroke-width:2.0px;stroke-linecap:butt;stroke-linejoin:miter;stroke-opacity:1;"/>
<path d="M 112.9,74.6 L 112.3,74.3 L 110.9,75.2" style="fill:none;stroke:#000000;stroke-width:2.0px;stroke-linecap:butt;stroke-linejoin:miter;stroke-opacity:1;"/>
<path class="atom-3" d="M 138.3 88.7 Q 138.3 86.4, 139.4 85.1 Q 140.5 83.8, 142.7 83.8 Q 144.8 83.8, 145.9 85.1 Q 147.0 86.4, 147.0 88.7 Q 147.0 91.0, 145.9 92.3 Q 144.7 93.6, 142.7 93.6 Q 140.6 93.6, 139.4 92.3 Q 138.3 91.0, 138.3 88.7 M 142.7 92.5 Q 144.1 92.5, 144.9 91.5 Q 145.7 90.6, 145.7 88.7 Q 145.7 86.8, 144.9 85.8 Q 144.1 84.9, 142.7 84.9 Q 141.2 84.9, 140.4 85.8 Q 139.6 86.8, 139.6 88.7 Q 139.6 90.6, 140.4 91.5 Q 141.2 92.5, 142.7 92.5 " fill="#FF0000"/>
<path class="atom-5" d="M 105.2 40.9 Q 105.2 38.6, 106.3 37.3 Q 107.4 36.0, 109.5 36.0 Q 111.6 36.0, 112.8 37.3 Q 113.9 38.6, 113.9 40.9 Q 113.9 43.2, 112.8 44.5 Q 111.6 45.8, 109.5 45.8 Q 107.4 45.8, 106.3 44.5 Q 105.2 43.2, 105.2 40.9 M 109.5 44.7 Q 111.0 44.7, 111.8 43.7 Q 112.6 42.8, 112.6 40.9 Q 112.6 39.0, 111.8 38.0 Q 111.0 37.1, 109.5 37.1 Q 108.1 37.1, 107.3 38.0 Q 106.5 39.0, 106.5 40.9 Q 106.5 42.8, 107.3 43.7 Q 108.1 44.7, 109.5 44.7 " fill="#FF0000"/>
<path class="atom-11" d="M 13.0 93.5 L 14.3 93.5 L 14.3 97.5 L 19.2 97.5 L 19.2 93.5 L 20.4 93.5 L 20.4 103.0 L 19.2 103.0 L 19.2 98.6 L 14.3 98.6 L 14.3 103.0 L 13.0 103.0 L 13.0 93.5 " fill="#FF0000"/>
<path class="atom-11" d="M 22.4 98.2 Q 22.4 95.9, 23.5 94.7 Q 24.6 93.4, 26.8 93.4 Q 28.9 93.4, 30.0 94.7 Q 31.1 95.9, 31.1 98.2 Q 31.1 100.5, 30.0 101.8 Q 28.8 103.1, 26.8 103.1 Q 24.7 103.1, 23.5 101.8 Q 22.4 100.5, 22.4 98.2 M 26.8 102.1 Q 28.2 102.1, 29.0 101.1 Q 29.8 100.1, 29.8 98.2 Q 29.8 96.3, 29.0 95.4 Q 28.2 94.5, 26.8 94.5 Q 25.3 94.5, 24.5 95.4 Q 23.7 96.3, 23.7 98.2 Q 23.7 100.1, 24.5 101.1 Q 25.3 102.1, 26.8 102.1 " fill="#FF0000"/>
<path class="atom-13" d="M 157.4 131.7 L 158.7 131.7 L 158.7 135.7 L 163.6 135.7 L 163.6 131.7 L 164.9 131.7 L 164.9 141.2 L 163.6 141.2 L 163.6 136.8 L 158.7 136.8 L 158.7 141.2 L 157.4 141.2 L 157.4 131.7 " fill="#0000FF"/>
<path class="atom-13" d="M 166.7 140.8 Q 166.9 140.2, 167.5 139.9 Q 168.0 139.6, 168.8 139.6 Q 169.8 139.6, 170.3 140.1 Q 170.8 140.6, 170.8 141.5 Q 170.8 142.5, 170.1 143.3 Q 169.4 144.2, 168.0 145.2 L 170.9 145.2 L 170.9 145.9 L 166.7 145.9 L 166.7 145.3 Q 167.9 144.5, 168.6 143.9 Q 169.3 143.3, 169.6 142.7 Q 169.9 142.1, 169.9 141.6 Q 169.9 141.0, 169.6 140.6 Q 169.3 140.3, 168.8 140.3 Q 168.3 140.3, 168.0 140.5 Q 167.6 140.7, 167.4 141.2 L 166.7 140.8 " fill="#0000FF"/>
<path class="atom-13" d="M 173.7 131.7 L 176.8 136.7 Q 177.1 137.2, 177.6 138.1 Q 178.1 139.0, 178.1 139.1 L 178.1 131.7 L 179.4 131.7 L 179.4 141.2 L 178.1 141.2 L 174.7 135.7 Q 174.3 135.0, 173.9 134.3 Q 173.5 133.5, 173.4 133.3 L 173.4 141.2 L 172.2 141.2 L 172.2 131.7 L 173.7 131.7 " fill="#0000FF"/>
<path class="atom-14" d="M 229.4 131.7 Q 229.4 129.4, 230.5 128.1 Q 231.6 126.8, 233.7 126.8 Q 235.8 126.8, 237.0 128.1 Q 238.1 129.4, 238.1 131.7 Q 238.1 134.0, 236.9 135.3 Q 235.8 136.6, 233.7 136.6 Q 231.6 136.6, 230.5 135.3 Q 229.4 134.0, 229.4 131.7 M 233.7 135.5 Q 235.2 135.5, 235.9 134.6 Q 236.7 133.6, 236.7 131.7 Q 236.7 129.8, 235.9 128.9 Q 235.2 127.9, 233.7 127.9 Q 232.3 127.9, 231.5 128.8 Q 230.7 129.8, 230.7 131.7 Q 230.7 133.6, 231.5 134.6 Q 232.3 135.5, 233.7 135.5 " fill="#FF0000"/>
<path class="atom-14" d="M 239.6 126.9 L 240.8 126.9 L 240.8 131.0 L 245.7 131.0 L 245.7 126.9 L 247.0 126.9 L 247.0 136.4 L 245.7 136.4 L 245.7 132.1 L 240.8 132.1 L 240.8 136.4 L 239.6 136.4 L 239.6 126.9 " fill="#FF0000"/>
<path class="legend" d="M 121.5 181.9 Q 121.5 179.6, 122.2 177.7 Q 122.8 175.8, 124.1 173.8 L 125.0 174.4 Q 124.0 176.3, 123.4 178.0 Q 122.9 179.7, 122.9 181.9 Q 122.9 184.0, 123.4 185.8 Q 124.0 187.5, 125.0 189.4 L 124.1 190.0 Q 122.8 188.0, 122.2 186.1 Q 121.5 184.2, 121.5 181.9 " fill="#000000"/>
<path class="legend" d="M 125.9 177.3 Q 126.4 176.2, 127.3 175.6 Q 128.3 175.0, 129.7 175.0 Q 131.4 175.0, 132.4 175.9 Q 133.3 176.8, 133.3 178.5 Q 133.3 180.2, 132.1 181.7 Q 130.9 183.3, 128.3 185.2 L 133.5 185.2 L 133.5 186.4 L 125.9 186.4 L 125.9 185.4 Q 128.0 183.9, 129.3 182.8 Q 130.5 181.6, 131.1 180.6 Q 131.7 179.6, 131.7 178.6 Q 131.7 177.5, 131.2 176.9 Q 130.7 176.3, 129.7 176.3 Q 128.8 176.3, 128.2 176.6 Q 127.6 177.0, 127.2 177.8 L 125.9 177.3 " fill="#000000"/>
<path class="legend" d="M 138.5 181.9 Q 138.5 184.2, 137.8 186.1 Q 137.2 188.0, 135.9 190.0 L 135.0 189.4 Q 136.0 187.5, 136.5 185.8 Q 137.1 184.0, 137.1 181.9 Q 137.1 179.7, 136.5 178.0 Q 136.0 176.3, 135.0 174.4 L 135.9 173.8 Q 137.2 175.8, 137.8 177.7 Q 138.5 179.6, 138.5 181.9 " fill="#000000"/>
</g>
    <g transform="translate(260.0, 0) scale(1 1) "><line x1="5" y1="100" x2="35" y2="100" style="stroke:rgb(0,0,0);stroke-width:2"/>
  <line x1="34" y1="100" x2="29" y2="95" style="stroke:rgb(0,0,0);stroke-width:2"/>
  <line x1="34" y1="100" x2="29" y2="105" style="stroke:rgb(0,0,0);stroke-width:2"/>
</g>
    <g transform="translate(300.0, 0) scale(1 1) "><!-- END OF HEADER -->
<rect style="opacity:1.0;fill:#FFFFFF;stroke:none" width="289.0" height="200.0" x="0.0" y="0.0"> </rect>
<path class="bond-0 atom-0 atom-1" d="M 14.5,84.7 L 43.6,85.0" style="fill:none;fill-rule:evenodd;stroke:#000000;stroke-width:2.0px;stroke-linecap:butt;stroke-linejoin:miter;stroke-opacity:1"/>
<path class="bond-1 atom-1 atom-2" d="M 43.6,85.0 L 57.9,110.5" style="fill:none;fill-rule:evenodd;stroke:#000000;stroke-width:2.0px;stroke-linecap:butt;stroke-linejoin:miter;stroke-opacity:1"/>
<path class="bond-2 atom-2 atom-3" d="M 57.9,110.5 L 70.1,110.7" style="fill:none;fill-rule:evenodd;stroke:#000000;stroke-width:2.0px;stroke-linecap:butt;stroke-linejoin:miter;stroke-opacity:1"/>
<path class="bond-2 atom-2 atom-3" d="M 70.1,110.7 L 82.3,110.8" style="fill:none;fill-rule:evenodd;stroke:#FF0000;stroke-width:2.0px;stroke-linecap:butt;stroke-linejoin:miter;stroke-opacity:1"/>
<path class="bond-3 atom-3 atom-4" d="M 90.1,116.1 L 95.7,126.2" style="fill:none;fill-rule:evenodd;stroke:#FF0000;stroke-width:2.0px;stroke-linecap:butt;stroke-linejoin:miter;stroke-opacity:1"/>
<path class="bond-3 atom-3 atom-4" d="M 95.7,126.2 L 101.4,136.3" style="fill:none;fill-rule:evenodd;stroke:#000000;stroke-width:2.0px;stroke-linecap:butt;stroke-linejoin:miter;stroke-opacity:1"/>
<path class="bond-4 atom-4 atom-5" d="M 101.4,136.3 L 95.4,146.3" style="fill:none;fill-rule:evenodd;stroke:#000000;stroke-width:2.0px;stroke-linecap:butt;stroke-linejoin:miter;stroke-opacity:1"/>
<path class="bond-4 atom-4 atom-5" d="M 95.4,146.3 L 89.5,156.3" style="fill:none;fill-rule:evenodd;stroke:#0000FF;stroke-width:2.0px;stroke-linecap:butt;stroke-linejoin:miter;stroke-opacity:1"/>
<path class="bond-5 atom-4 atom-6" d="M 101.4,136.3 L 130.6,136.7" style="fill:none;fill-rule:evenodd;stroke:#000000;stroke-width:2.0px;stroke-linecap:butt;stroke-linejoin:miter;stroke-opacity:1"/>
<path class="bond-6 atom-6 atom-7" d="M 130.6,136.7 L 144.8,162.2" style="fill:none;fill-rule:evenodd;stroke:#000000;stroke-width:2.0px;stroke-linecap:butt;stroke-linejoin:miter;stroke-opacity:1"/>
<path class="bond-7 atom-6 atom-8" d="M 130.6,136.7 L 145.5,111.6" style="fill:none;fill-rule:evenodd;stroke:#000000;stroke-width:2.0px;stroke-linecap:butt;stroke-linejoin:miter;stroke-opacity:1"/>
<path class="bond-8 atom-8 atom-9" d="M 145.5,111.6 L 157.7,111.8" style="fill:none;fill-rule:evenodd;stroke:#000000;stroke-width:2.0px;stroke-linecap:butt;stroke-linejoin:miter;stroke-opacity:1"/>
<path class="bond-8 atom-8 atom-9" d="M 157.7,111.8 L 169.9,111.9" style="fill:none;fill-rule:evenodd;stroke:#FF0000;stroke-width:2.0px;stroke-linecap:butt;stroke-linejoin:miter;stroke-opacity:1"/>
<path class="bond-9 atom-9 atom-10" d="M 177.7,106.9 L 183.7,96.9" style="fill:none;fill-rule:evenodd;stroke:#FF0000;stroke-width:2.0px;stroke-linecap:butt;stroke-linejoin:miter;stroke-opacity:1"/>
<path class="bond-9 atom-9 atom-10" d="M 183.7,96.9 L 189.6,86.9" style="fill:none;fill-rule:evenodd;stroke:#000000;stroke-width:2.0px;stroke-linecap:butt;stroke-linejoin:miter;stroke-opacity:1"/>
<path class="bond-10 atom-10 atom-11" d="M 192.1,86.9 L 186.2,76.3" style="fill:none;fill-rule:evenodd;stroke:#000000;stroke-width:2.0px;stroke-linecap:butt;stroke-linejoin:miter;stroke-opacity:1"/>
<path class="bond-10 atom-10 atom-11" d="M 186.2,76.3 L 180.2,65.6" style="fill:none;fill-rule:evenodd;stroke:#FF0000;stroke-width:2.0px;stroke-linecap:butt;stroke-linejoin:miter;stroke-opacity:1"/>
<path class="bond-10 atom-10 atom-11" d="M 188.3,89.1 L 182.3,78.4" style="fill:none;fill-rule:evenodd;stroke:#000000;stroke-width:2.0px;stroke-linecap:butt;stroke-linejoin:miter;stroke-opacity:1"/>
<path class="bond-10 atom-10 atom-11" d="M 182.3,78.4 L 176.4,67.8" style="fill:none;fill-rule:evenodd;stroke:#FF0000;stroke-width:2.0px;stroke-linecap:butt;stroke-linejoin:miter;stroke-opacity:1"/>
<path class="bond-11 atom-10 atom-12" d="M 189.6,86.9 L 218.8,87.3" style="fill:none;fill-rule:evenodd;stroke:#000000;stroke-width:2.0px;stroke-linecap:butt;stroke-linejoin:miter;stroke-opacity:1"/>
<path class="bond-12 atom-12 atom-13" d="M 218.8,87.3 L 219.2,58.1" style="fill:none;fill-rule:evenodd;stroke:#000000;stroke-width:2.0px;stroke-linecap:butt;stroke-linejoin:miter;stroke-opacity:1"/>
<path class="bond-13 atom-12 atom-14" d="M 218.8,87.3 L 218.4,116.5" style="fill:none;fill-rule:evenodd;stroke:#000000;stroke-width:2.0px;stroke-linecap:butt;stroke-linejoin:miter;stroke-opacity:1"/>
<path class="bond-14 atom-12 atom-15" d="M 218.8,87.3 L 248.0,87.7" style="fill:none;fill-rule:evenodd;stroke:#000000;stroke-width:2.0px;stroke-linecap:butt;stroke-linejoin:miter;stroke-opacity:1"/>
<path class="bond-15 atom-15 atom-16" d="M 248.0,87.7 L 262.3,113.1" style="fill:none;fill-rule:evenodd;stroke:#000000;stroke-width:2.0px;stroke-linecap:butt;stroke-linejoin:miter;stroke-opacity:1"/>
<path class="bond-16 atom-15 atom-17" d="M 248.0,87.7 L 253.9,77.7" style="fill:none;fill-rule:evenodd;stroke:#000000;stroke-width:2.0px;stroke-linecap:butt;stroke-linejoin:miter;stroke-opacity:1"/>
<path class="bond-16 atom-15 atom-17" d="M 253.9,77.7 L 259.8,67.8" style="fill:none;fill-rule:evenodd;stroke:#FF0000;stroke-width:2.0px;stroke-linecap:butt;stroke-linejoin:miter;stroke-opacity:1"/>
<path class="bond-17 atom-1 atom-18" d="M 43.6,85.0 L 58.6,59.9" style="fill:none;fill-rule:evenodd;stroke:#000000;stroke-width:2.0px;stroke-linecap:butt;stroke-linejoin:miter;stroke-opacity:1"/>
<path class="bond-18 atom-18 atom-19" d="M 58.6,59.9 L 71.1,60.1" style="fill:none;fill-rule:evenodd;stroke:#000000;stroke-width:2.0px;stroke-linecap:butt;stroke-linejoin:miter;stroke-opacity:1"/>
<path class="bond-18 atom-18 atom-19" d="M 71.1,60.1 L 83.7,60.3" style="fill:none;fill-rule:evenodd;stroke:#0000FF;stroke-width:2.0px;stroke-linecap:butt;stroke-linejoin:miter;stroke-opacity:1"/>
<path class="bond-19 atom-18 atom-20" d="M 58.6,59.9 L 52.9,49.8" style="fill:none;fill-rule:evenodd;stroke:#000000;stroke-width:2.0px;stroke-linecap:butt;stroke-linejoin:miter;stroke-opacity:1"/>
<path class="bond-19 atom-18 atom-20" d="M 52.9,49.8 L 47.2,39.7" style="fill:none;fill-rule:evenodd;stroke:#FF0000;stroke-width:2.0px;stroke-linecap:butt;stroke-linejoin:miter;stroke-opacity:1"/>
<path d="M 57.2,109.2 L 57.9,110.5 L 58.5,110.5" style="fill:none;stroke:#000000;stroke-width:2.0px;stroke-linecap:butt;stroke-linejoin:miter;stroke-opacity:1;"/>
<path d="M 144.7,112.9 L 145.5,111.6 L 146.1,111.6" style="fill:none;stroke:#000000;stroke-width:2.0px;stroke-linecap:butt;stroke-linejoin:miter;stroke-opacity:1;"/>
<path d="M 189.3,87.4 L 189.6,86.9 L 191.1,86.9" style="fill:none;stroke:#000000;stroke-width:2.0px;stroke-linecap:butt;stroke-linejoin:miter;stroke-opacity:1;"/>
<path class="atom-3" d="M 83.3 110.9 Q 83.3 108.9, 84.3 107.8 Q 85.3 106.7, 87.1 106.7 Q 88.9 106.7, 89.9 107.8 Q 90.9 108.9, 90.9 110.9 Q 90.9 112.9, 89.9 114.1 Q 88.9 115.2, 87.1 115.2 Q 85.3 115.2, 84.3 114.1 Q 83.3 112.9, 83.3 110.9 M 87.1 114.3 Q 88.4 114.3, 89.0 113.4 Q 89.7 112.6, 89.7 110.9 Q 89.7 109.3, 89.0 108.5 Q 88.4 107.6, 87.1 107.6 Q 85.8 107.6, 85.2 108.4 Q 84.5 109.3, 84.5 110.9 Q 84.5 112.6, 85.2 113.4 Q 85.8 114.3, 87.1 114.3 " fill="#FF0000"/>
<path class="atom-5" d="M 70.5 157.3 L 71.6 157.3 L 71.6 160.8 L 75.8 160.8 L 75.8 157.3 L 77.0 157.3 L 77.0 165.6 L 75.8 165.6 L 75.8 161.8 L 71.6 161.8 L 71.6 165.6 L 70.5 165.6 L 70.5 157.3 " fill="#0000FF"/>
<path class="atom-5" d="M 78.6 165.3 Q 78.8 164.8, 79.3 164.5 Q 79.7 164.2, 80.4 164.2 Q 81.2 164.2, 81.7 164.6 Q 82.2 165.1, 82.2 165.9 Q 82.2 166.7, 81.6 167.4 Q 81.0 168.2, 79.7 169.1 L 82.2 169.1 L 82.2 169.7 L 78.6 169.7 L 78.6 169.2 Q 79.6 168.5, 80.2 167.9 Q 80.8 167.4, 81.1 166.9 Q 81.4 166.4, 81.4 165.9 Q 81.4 165.4, 81.1 165.1 Q 80.9 164.8, 80.4 164.8 Q 80.0 164.8, 79.7 165.0 Q 79.4 165.2, 79.2 165.6 L 78.6 165.3 " fill="#0000FF"/>
<path class="atom-5" d="M 84.6 157.3 L 87.3 161.7 Q 87.6 162.1, 88.0 162.9 Q 88.5 163.7, 88.5 163.7 L 88.5 157.3 L 89.6 157.3 L 89.6 165.6 L 88.5 165.6 L 85.5 160.8 Q 85.2 160.2, 84.8 159.6 Q 84.5 158.9, 84.4 158.7 L 84.4 165.6 L 83.3 165.6 L 83.3 157.3 L 84.6 157.3 " fill="#0000FF"/>
<path class="atom-9" d="M 170.9 112.0 Q 170.9 110.0, 171.9 108.9 Q 172.8 107.8, 174.7 107.8 Q 176.5 107.8, 177.5 108.9 Q 178.5 110.0, 178.5 112.0 Q 178.5 114.0, 177.5 115.2 Q 176.5 116.3, 174.7 116.3 Q 172.9 116.3, 171.9 115.2 Q 170.9 114.0, 170.9 112.0 M 174.7 115.4 Q 175.9 115.4, 176.6 114.5 Q 177.3 113.7, 177.3 112.0 Q 177.3 110.4, 176.6 109.6 Q 175.9 108.8, 174.7 108.8 Q 173.4 108.8, 172.7 109.6 Q 172.0 110.4, 172.0 112.0 Q 172.0 113.7, 172.7 114.5 Q 173.4 115.4, 174.7 115.4 " fill="#FF0000"/>
<path class="atom-11" d="M 171.5 61.5 Q 171.5 59.5, 172.5 58.4 Q 173.5 57.3, 175.3 57.3 Q 177.2 57.3, 178.1 58.4 Q 179.1 59.5, 179.1 61.5 Q 179.1 63.5, 178.1 64.6 Q 177.1 65.7, 175.3 65.7 Q 173.5 65.7, 172.5 64.6 Q 171.5 63.5, 171.5 61.5 M 175.3 64.8 Q 176.6 64.8, 177.3 64.0 Q 178.0 63.1, 178.0 61.5 Q 178.0 59.8, 177.3 59.0 Q 176.6 58.2, 175.3 58.2 Q 174.1 58.2, 173.4 59.0 Q 172.7 59.8, 172.7 61.5 Q 172.7 63.1, 173.4 64.0 Q 174.1 64.8, 175.3 64.8 " fill="#FF0000"/>
<path class="atom-17" d="M 259.1 62.6 Q 259.1 60.6, 260.1 59.5 Q 261.1 58.4, 262.9 58.4 Q 264.7 58.4, 265.7 59.5 Q 266.7 60.6, 266.7 62.6 Q 266.7 64.6, 265.7 65.7 Q 264.7 66.9, 262.9 66.9 Q 261.1 66.9, 260.1 65.7 Q 259.1 64.6, 259.1 62.6 M 262.9 65.9 Q 264.2 65.9, 264.8 65.1 Q 265.5 64.2, 265.5 62.6 Q 265.5 61.0, 264.8 60.1 Q 264.2 59.3, 262.9 59.3 Q 261.6 59.3, 260.9 60.1 Q 260.3 61.0, 260.3 62.6 Q 260.3 64.3, 260.9 65.1 Q 261.6 65.9, 262.9 65.9 " fill="#FF0000"/>
<path class="atom-17" d="M 268.0 58.5 L 269.1 58.5 L 269.1 62.0 L 273.3 62.0 L 273.3 58.5 L 274.4 58.5 L 274.4 66.7 L 273.3 66.7 L 273.3 62.9 L 269.1 62.9 L 269.1 66.7 L 268.0 66.7 L 268.0 58.5 " fill="#FF0000"/>
<path class="atom-19" d="M 85.9 56.2 L 88.6 60.6 Q 88.9 61.0, 89.3 61.8 Q 89.8 62.6, 89.8 62.6 L 89.8 56.2 L 90.9 56.2 L 90.9 64.5 L 89.8 64.5 L 86.8 59.7 Q 86.5 59.1, 86.1 58.5 Q 85.8 57.8, 85.7 57.6 L 85.7 64.5 L 84.6 64.5 L 84.6 56.2 L 85.9 56.2 " fill="#0000FF"/>
<path class="atom-19" d="M 92.5 56.2 L 93.6 56.2 L 93.6 59.7 L 97.8 59.7 L 97.8 56.2 L 98.9 56.2 L 98.9 64.5 L 97.8 64.5 L 97.8 60.6 L 93.6 60.6 L 93.6 64.5 L 92.5 64.5 L 92.5 56.2 " fill="#0000FF"/>
<path class="atom-19" d="M 100.6 64.2 Q 100.8 63.6, 101.2 63.4 Q 101.7 63.1, 102.4 63.1 Q 103.2 63.1, 103.7 63.5 Q 104.1 64.0, 104.1 64.8 Q 104.1 65.6, 103.5 66.3 Q 102.9 67.1, 101.7 68.0 L 104.2 68.0 L 104.2 68.6 L 100.5 68.6 L 100.5 68.1 Q 101.6 67.3, 102.2 66.8 Q 102.8 66.3, 103.1 65.8 Q 103.4 65.3, 103.4 64.8 Q 103.4 64.3, 103.1 64.0 Q 102.8 63.7, 102.4 63.7 Q 101.9 63.7, 101.6 63.9 Q 101.3 64.0, 101.1 64.4 L 100.6 64.2 " fill="#0000FF"/>
<path class="atom-20" d="M 32.3 30.4 L 33.5 30.4 L 33.5 33.9 L 37.7 33.9 L 37.7 30.4 L 38.8 30.4 L 38.8 38.7 L 37.7 38.7 L 37.7 34.8 L 33.5 34.8 L 33.5 38.7 L 32.3 38.7 L 32.3 30.4 " fill="#FF0000"/>
<path class="atom-20" d="M 40.5 34.5 Q 40.5 32.5, 41.5 31.4 Q 42.5 30.3, 44.3 30.3 Q 46.1 30.3, 47.1 31.4 Q 48.1 32.5, 48.1 34.5 Q 48.1 36.5, 47.1 37.7 Q 46.1 38.8, 44.3 38.8 Q 42.5 38.8, 41.5 37.7 Q 40.5 36.5, 40.5 34.5 M 44.3 37.8 Q 45.6 37.8, 46.2 37.0 Q 46.9 36.2, 46.9 34.5 Q 46.9 32.9, 46.2 32.1 Q 45.6 31.2, 44.3 31.2 Q 43.0 31.2, 42.3 32.0 Q 41.7 32.9, 41.7 34.5 Q 41.7 36.2, 42.3 37.0 Q 43.0 37.8, 44.3 37.8 " fill="#FF0000"/>
</g>
    <g transform="translate(589.0, 0) scale(1 1) "><line x1="15" y1="100" x2="25" y2="100" style="stroke:rgb(0,0,0);stroke-width:2"/>
  <line x1="20" y1="95" x2="20" y2="105" style="stroke:rgb(0,0,0);stroke-width:2"/>
</g>
    <g transform="translate(629.0, 0) scale(1 1) "><!-- END OF HEADER -->
<rect style="opacity:1.0;fill:#FFFFFF;stroke:none" width="215.0" height="200.0" x="0.0" y="0.0"> </rect>
<path class="bond-0 atom-0 atom-1" d="M 183.7,56.0 L 158.3,99.9" style="fill:none;fill-rule:evenodd;stroke:#000000;stroke-width:2.0px;stroke-linecap:butt;stroke-linejoin:miter;stroke-opacity:1"/>
<path class="bond-1 atom-1 atom-2" d="M 158.3,99.9 L 168.4,117.4" style="fill:none;fill-rule:evenodd;stroke:#000000;stroke-width:2.0px;stroke-linecap:butt;stroke-linejoin:miter;stroke-opacity:1"/>
<path class="bond-1 atom-1 atom-2" d="M 168.4,117.4 L 178.5,134.9" style="fill:none;fill-rule:evenodd;stroke:#FF0000;stroke-width:2.0px;stroke-linecap:butt;stroke-linejoin:miter;stroke-opacity:1"/>
<path class="bond-2 atom-1 atom-3" d="M 158.3,99.9 L 107.6,99.9" style="fill:none;fill-rule:evenodd;stroke:#000000;stroke-width:2.0px;stroke-linecap:butt;stroke-linejoin:miter;stroke-opacity:1"/>
<path class="bond-3 atom-3 atom-4" d="M 107.6,99.9 L 107.6,49.2" style="fill:none;fill-rule:evenodd;stroke:#000000;stroke-width:2.0px;stroke-linecap:butt;stroke-linejoin:miter;stroke-opacity:1"/>
<path class="bond-4 atom-3 atom-5" d="M 107.6,99.9 L 107.6,150.6" style="fill:none;fill-rule:evenodd;stroke:#000000;stroke-width:2.0px;stroke-linecap:butt;stroke-linejoin:miter;stroke-opacity:1"/>
<path class="bond-5 atom-3 atom-6" d="M 107.6,99.9 L 56.9,99.9" style="fill:none;fill-rule:evenodd;stroke:#000000;stroke-width:2.0px;stroke-linecap:butt;stroke-linejoin:miter;stroke-opacity:1"/>
<path class="bond-6 atom-6 atom-7" d="M 54.7,96.1 L 44.0,114.5" style="fill:none;fill-rule:evenodd;stroke:#000000;stroke-width:2.0px;stroke-linecap:butt;stroke-linejoin:miter;stroke-opacity:1"/>
<path class="bond-6 atom-6 atom-7" d="M 44.0,114.5 L 33.4,133.0" style="fill:none;fill-rule:evenodd;stroke:#FF0000;stroke-width:2.0px;stroke-linecap:butt;stroke-linejoin:miter;stroke-opacity:1"/>
<path class="bond-6 atom-6 atom-7" d="M 61.3,99.9 L 50.6,118.3" style="fill:none;fill-rule:evenodd;stroke:#000000;stroke-width:2.0px;stroke-linecap:butt;stroke-linejoin:miter;stroke-opacity:1"/>
<path class="bond-6 atom-6 atom-7" d="M 50.6,118.3 L 40.0,136.8" style="fill:none;fill-rule:evenodd;stroke:#FF0000;stroke-width:2.0px;stroke-linecap:butt;stroke-linejoin:miter;stroke-opacity:1"/>
<path class="bond-7 atom-6 atom-8" d="M 56.9,99.9 L 46.9,82.5" style="fill:none;fill-rule:evenodd;stroke:#000000;stroke-width:2.0px;stroke-linecap:butt;stroke-linejoin:miter;stroke-opacity:1"/>
<path class="bond-7 atom-6 atom-8" d="M 46.9,82.5 L 36.8,65.1" style="fill:none;fill-rule:evenodd;stroke:#FF0000;stroke-width:2.0px;stroke-linecap:butt;stroke-linejoin:miter;stroke-opacity:1"/>
<path d="M 59.4,99.9 L 56.9,99.9 L 56.4,99.0" style="fill:none;stroke:#000000;stroke-width:2.0px;stroke-linecap:butt;stroke-linejoin:miter;stroke-opacity:1;"/>
<path class="atom-2" d="M 177.1 143.9 Q 177.1 140.4, 178.8 138.5 Q 180.5 136.5, 183.7 136.5 Q 186.9 136.5, 188.6 138.5 Q 190.3 140.4, 190.3 143.9 Q 190.3 147.3, 188.6 149.3 Q 186.8 151.3, 183.7 151.3 Q 180.5 151.3, 178.8 149.3 Q 177.1 147.4, 177.1 143.9 M 183.7 149.7 Q 185.9 149.7, 187.0 148.2 Q 188.2 146.7, 188.2 143.9 Q 188.2 141.0, 187.0 139.6 Q 185.9 138.2, 183.7 138.2 Q 181.5 138.2, 180.3 139.6 Q 179.1 141.0, 179.1 143.9 Q 179.1 146.8, 180.3 148.2 Q 181.5 149.7, 183.7 149.7 " fill="#FF0000"/>
<path class="atom-2" d="M 192.5 136.7 L 194.5 136.7 L 194.5 142.8 L 201.8 142.8 L 201.8 136.7 L 203.7 136.7 L 203.7 151.1 L 201.8 151.1 L 201.8 144.4 L 194.5 144.4 L 194.5 151.1 L 192.5 151.1 L 192.5 136.7 " fill="#FF0000"/>
<path class="atom-7" d="M 24.9 143.9 Q 24.9 140.4, 26.6 138.5 Q 28.3 136.5, 31.5 136.5 Q 34.7 136.5, 36.4 138.5 Q 38.1 140.4, 38.1 143.9 Q 38.1 147.3, 36.4 149.3 Q 34.7 151.3, 31.5 151.3 Q 28.4 151.3, 26.6 149.3 Q 24.9 147.4, 24.9 143.9 M 31.5 149.7 Q 33.7 149.7, 34.9 148.2 Q 36.1 146.7, 36.1 143.9 Q 36.1 141.0, 34.9 139.6 Q 33.7 138.2, 31.5 138.2 Q 29.3 138.2, 28.1 139.6 Q 27.0 141.0, 27.0 143.9 Q 27.0 146.8, 28.1 148.2 Q 29.3 149.7, 31.5 149.7 " fill="#FF0000"/>
<path class="atom-8" d="M 10.7 48.9 L 12.7 48.9 L 12.7 55.0 L 20.0 55.0 L 20.0 48.9 L 22.0 48.9 L 22.0 63.2 L 20.0 63.2 L 20.0 56.6 L 12.7 56.6 L 12.7 63.2 L 10.7 63.2 L 10.7 48.9 " fill="#FF0000"/>
<path class="atom-8" d="M 24.9 56.0 Q 24.9 52.6, 26.6 50.6 Q 28.3 48.7, 31.5 48.7 Q 34.7 48.7, 36.4 50.6 Q 38.1 52.6, 38.1 56.0 Q 38.1 59.5, 36.4 61.5 Q 34.7 63.5, 31.5 63.5 Q 28.4 63.5, 26.6 61.5 Q 24.9 59.5, 24.9 56.0 M 31.5 61.8 Q 33.7 61.8, 34.9 60.4 Q 36.1 58.9, 36.1 56.0 Q 36.1 53.2, 34.9 51.8 Q 33.7 50.3, 31.5 50.3 Q 29.3 50.3, 28.1 51.7 Q 27.0 53.2, 27.0 56.0 Q 27.0 58.9, 28.1 60.4 Q 29.3 61.8, 31.5 61.8 " fill="#FF0000"/>
</g>
  </g>
</svg>
