<?xml version='1.0' encoding='ASCII' standalone='yes'?>
<svg xmlns="http://www.w3.org/2000/svg" xmlns:xlink="http://www.w3.org/1999/xlink" version="1.1" width="938.0px" viewBox="0 0 938.0 200.0" height="200.0px">
  <g>
    <g transform="translate(0, 0) scale(1 1) "><!-- END OF HEADER -->
<rect style="opacity:1.0;fill:#FFFFFF;stroke:none" width="304.0" height="200.0" x="0.0" y="0.0"> </rect>
<path class="bond-0 atom-0 atom-1" d="M 32.3,125.0 L 63.0,123.0" style="fill:none;fill-rule:evenodd;stroke:#000000;stroke-width:2.0px;stroke-linecap:butt;stroke-linejoin:miter;stroke-opacity:1"/>
<path class="bond-1 atom-1 atom-2" d="M 63.0,123.0 L 64.9,153.8" style="fill:none;fill-rule:evenodd;stroke:#000000;stroke-width:2.0px;stroke-linecap:butt;stroke-linejoin:miter;stroke-opacity:1"/>
<path class="bond-2 atom-2 atom-3" d="M 64.9,153.8 L 76.2,159.4" style="fill:none;fill-rule:evenodd;stroke:#000000;stroke-width:2.0px;stroke-linecap:butt;stroke-linejoin:miter;stroke-opacity:1"/>
<path class="bond-2 atom-2 atom-3" d="M 76.2,159.4 L 87.5,165.0" style="fill:none;fill-rule:evenodd;stroke:#FF0000;stroke-width:2.0px;stroke-linecap:butt;stroke-linejoin:miter;stroke-opacity:1"/>
<path class="bond-3 atom-1 atom-4" d="M 63.0,123.0 L 93.7,121.1" style="fill:none;fill-rule:evenodd;stroke:#000000;stroke-width:2.0px;stroke-linecap:butt;stroke-linejoin:miter;stroke-opacity:1"/>
<path class="bond-4 atom-4 atom-5" d="M 93.7,121.1 L 107.4,93.6" style="fill:none;fill-rule:evenodd;stroke:#000000;stroke-width:2.0px;stroke-linecap:butt;stroke-linejoin:miter;stroke-opacity:1"/>
<path class="bond-5 atom-5 atom-6" d="M 107.4,93.6 L 138.1,91.6" style="fill:none;fill-rule:evenodd;stroke:#000000;stroke-width:2.0px;stroke-linecap:butt;stroke-linejoin:miter;stroke-opacity:1"/>
<path class="bond-6 atom-6 atom-7" d="M 138.1,91.6 L 151.8,64.1" style="fill:none;fill-rule:evenodd;stroke:#000000;stroke-width:2.0px;stroke-linecap:butt;stroke-linejoin:miter;stroke-opacity:1"/>
<path class="bond-7 atom-7 atom-8" d="M 151.8,64.1 L 182.6,62.2" style="fill:none;fill-rule:evenodd;stroke:#000000;stroke-width:2.0px;stroke-linecap:butt;stroke-linejoin:miter;stroke-opacity:1"/>
<path class="bond-8 atom-8 atom-9" d="M 182.6,62.2 L 213.3,60.2" style="fill:none;fill-rule:evenodd;stroke:#000000;stroke-width:2.0px;stroke-linecap:butt;stroke-linejoin:miter;stroke-opacity:1"/>
<path class="bond-9 atom-8 atom-10" d="M 182.6,62.2 L 184.5,92.9" style="fill:none;fill-rule:evenodd;stroke:#000000;stroke-width:2.0px;stroke-linecap:butt;stroke-linejoin:miter;stroke-opacity:1"/>
<path class="bond-10 atom-10 atom-11" d="M 184.5,92.9 L 212.0,106.6" style="fill:none;fill-rule:evenodd;stroke:#000000;stroke-width:2.0px;stroke-linecap:butt;stroke-linejoin:miter;stroke-opacity:1"/>
<path class="bond-11 atom-11 atom-12" d="M 212.0,106.6 L 214.0,137.3" style="fill:none;fill-rule:evenodd;stroke:#000000;stroke-width:2.0px;stroke-linecap:butt;stroke-linejoin:miter;stroke-opacity:1"/>
<path class="bond-12 atom-12 atom-13" d="M 214.0,137.3 L 215.9,168.0" style="fill:none;fill-rule:evenodd;stroke:#000000;stroke-width:2.0px;stroke-linecap:butt;stroke-linejoin:miter;stroke-opacity:1"/>
<path class="bond-13 atom-12 atom-14" d="M 214.0,137.3 L 183.2,139.2" style="fill:none;fill-rule:evenodd;stroke:#000000;stroke-width:2.0px;stroke-linecap:butt;stroke-linejoin:miter;stroke-opacity:1"/>
<path class="bond-14 atom-14 atom-15" d="M 183.2,139.2 L 177.7,150.3" style="fill:none;fill-rule:evenodd;stroke:#000000;stroke-width:2.0px;stroke-linecap:butt;stroke-linejoin:miter;stroke-opacity:1"/>
<path class="bond-14 atom-14 atom-15" d="M 177.7,150.3 L 172.2,161.4" style="fill:none;fill-rule:evenodd;stroke:#FF0000;stroke-width:2.0px;stroke-linecap:butt;stroke-linejoin:miter;stroke-opacity:1"/>
<path class="bond-15 atom-12 atom-16" d="M 214.0,137.3 L 244.7,135.4" style="fill:none;fill-rule:evenodd;stroke:#000000;stroke-width:2.0px;stroke-linecap:butt;stroke-linejoin:miter;stroke-opacity:1"/>
<path class="bond-16 atom-16 atom-17" d="M 246.2,137.6 L 251.9,126.0" style="fill:none;fill-rule:evenodd;stroke:#000000;stroke-width:2.0px;stroke-linecap:butt;stroke-linejoin:miter;stroke-opacity:1"/>
<path class="bond-16 atom-16 atom-17" d="M 251.9,126.0 L 257.7,114.4" style="fill:none;fill-rule:evenodd;stroke:#FF0000;stroke-width:2.0px;stroke-linecap:butt;stroke-linejoin:miter;stroke-opacity:1"/>
<path class="bond-16 atom-16 atom-17" d="M 242.0,135.5 L 247.8,123.9" style="fill:none;fill-rule:evenodd;stroke:#000000;stroke-width:2.0px;stroke-linecap:butt;stroke-linejoin:miter;stroke-opacity:1"/>
<path class="bond-16 atom-16 atom-17" d="M 247.8,123.9 L 253.6,112.3" style="fill:none;fill-rule:evenodd;stroke:#FF0000;stroke-width:2.0px;stroke-linecap:butt;stroke-linejoin:miter;stroke-opacity:1"/>
<path class="bond-17 atom-16 atom-18" d="M 244.7,135.4 L 251.4,145.5" style="fill:none;fill-rule:evenodd;stroke:#000000;stroke-width:2.0px;stroke-linecap:butt;stroke-linejoin:miter;stroke-opacity:1"/>
<path class="bond-17 atom-16 atom-18" d="M 251.4,145.5 L 258.1,155.6" style="fill:none;fill-rule:evenodd;stroke:#FF0000;stroke-width:2.0px;stroke-linecap:butt;stroke-linejoin:miter;stroke-opacity:1"/>
<path class="bond-18 atom-8 atom-19" d="M 182.6,62.2 L 180.6,31.4" style="fill:none;fill-rule:evenodd;stroke:#000000;stroke-width:2.0px;stroke-linecap:butt;stroke-linejoin:miter;stroke-opacity:1"/>
<path class="bond-19 atom-19 atom-20" d="M 182.9,30.0 L 171.0,24.1" style="fill:none;fill-rule:evenodd;stroke:#000000;stroke-width:2.0px;stroke-linecap:butt;stroke-linejoin:miter;stroke-opacity:1"/>
<path class="bond-19 atom-19 atom-20" d="M 171.0,24.1 L 159.1,18.2" style="fill:none;fill-rule:evenodd;stroke:#FF0000;stroke-width:2.0px;stroke-linecap:butt;stroke-linejoin:miter;stroke-opacity:1"/>
<path class="bond-19 atom-19 atom-20" d="M 180.8,34.1 L 168.9,28.2" style="fill:none;fill-rule:evenodd;stroke:#000000;stroke-width:2.0px;stroke-linecap:butt;stroke-linejoin:miter;stroke-opacity:1"/>
<path class="bond-19 atom-19 atom-20" d="M 168.9,28.2 L 157.1,22.3" style="fill:none;fill-rule:evenodd;stroke:#FF0000;stroke-width:2.0px;stroke-linecap:butt;stroke-linejoin:miter;stroke-opacity:1"/>
<path class="bond-20 atom-19 atom-21" d="M 180.6,31.4 L 191.0,24.6" style="fill:none;fill-rule:evenodd;stroke:#000000;stroke-width:2.0px;stroke-linecap:butt;stroke-linejoin:miter;stroke-opacity:1"/>
<path class="bond-20 atom-19 atom-21" d="M 191.0,24.6 L 201.3,17.7" style="fill:none;fill-rule:evenodd;stroke:#FF0000;stroke-width:2.0px;stroke-linecap:butt;stroke-linejoin:miter;stroke-opacity:1"/>
<path class="bond-21 atom-1 atom-22" d="M 63.0,123.0 L 61.1,92.3" style="fill:none;fill-rule:evenodd;stroke:#000000;stroke-width:2.0px;stroke-linecap:butt;stroke-linejoin:miter;stroke-opacity:1"/>
<path class="bond-22 atom-22 atom-23" d="M 63.3,90.8 L 51.4,84.9" style="fill:none;fill-rule:evenodd;stroke:#000000;stroke-width:2.0px;stroke-linecap:butt;stroke-linejoin:miter;stroke-opacity:1"/>
<path class="bond-22 atom-22 atom-23" d="M 51.4,84.9 L 39.6,79.0" style="fill:none;fill-rule:evenodd;stroke:#FF0000;stroke-width:2.0px;stroke-linecap:butt;stroke-linejoin:miter;stroke-opacity:1"/>
<path class="bond-22 atom-22 atom-23" d="M 61.2,95.0 L 49.4,89.1" style="fill:none;fill-rule:evenodd;stroke:#000000;stroke-width:2.0px;stroke-linecap:butt;stroke-linejoin:miter;stroke-opacity:1"/>
<path class="bond-22 atom-22 atom-23" d="M 49.4,89.1 L 37.5,83.2" style="fill:none;fill-rule:evenodd;stroke:#FF0000;stroke-width:2.0px;stroke-linecap:butt;stroke-linejoin:miter;stroke-opacity:1"/>
<path class="bond-23 atom-22 atom-24" d="M 61.1,92.3 L 71.4,85.5" style="fill:none;fill-rule:evenodd;stroke:#000000;stroke-width:2.0px;stroke-linecap:butt;stroke-linejoin:miter;stroke-opacity:1"/>
<path class="bond-23 atom-22 atom-24" d="M 71.4,85.5 L 81.7,78.6" style="fill:none;fill-rule:evenodd;stroke:#FF0000;stroke-width:2.0px;stroke-linecap:butt;stroke-linejoin:miter;stroke-opacity:1"/>
<path d="M 64.8,152.2 L 64.9,153.8 L 65.5,154.0" style="fill:none;stroke:#000000;stroke-width:2.0px;stroke-linecap:butt;stroke-linejoin:miter;stroke-opacity:1;"/>
<path d="M 92.2,121.2 L 93.7,121.1 L 94.4,119.7" style="fill:none;stroke:#000000;stroke-width:2.0px;stroke-linecap:butt;stroke-linejoin:miter;stroke-opacity:1;"/>
<path d="M 106.7,94.9 L 107.4,93.6 L 109.0,93.5" style="fill:none;stroke:#000000;stroke-width:2.0px;stroke-linecap:butt;stroke-linejoin:miter;stroke-opacity:1;"/>
<path d="M 136.6,91.7 L 138.1,91.6 L 138.8,90.3" style="fill:none;stroke:#000000;stroke-width:2.0px;stroke-linecap:butt;stroke-linejoin:miter;stroke-opacity:1;"/>
<path d="M 151.2,65.4 L 151.8,64.1 L 153.4,64.0" style="fill:none;stroke:#000000;stroke-width:2.0px;stroke-linecap:butt;stroke-linejoin:miter;stroke-opacity:1;"/>
<path d="M 184.4,91.3 L 184.5,92.9 L 185.9,93.6" style="fill:none;stroke:#000000;stroke-width:2.0px;stroke-linecap:butt;stroke-linejoin:miter;stroke-opacity:1;"/>
<path d="M 210.7,105.9 L 212.0,106.6 L 212.1,108.1" style="fill:none;stroke:#000000;stroke-width:2.0px;stroke-linecap:butt;stroke-linejoin:miter;stroke-opacity:1;"/>
<path d="M 184.8,139.1 L 183.2,139.2 L 183.0,139.8" style="fill:none;stroke:#000000;stroke-width:2.0px;stroke-linecap:butt;stroke-linejoin:miter;stroke-opacity:1;"/>
<path d="M 243.1,135.5 L 244.7,135.4 L 245.0,135.9" style="fill:none;stroke:#000000;stroke-width:2.0px;stroke-linecap:butt;stroke-linejoin:miter;stroke-opacity:1;"/>
<path d="M 180.7,33.0 L 180.6,31.4 L 181.2,31.1" style="fill:none;stroke:#000000;stroke-width:2.0px;stroke-linecap:butt;stroke-linejoin:miter;stroke-opacity:1;"/>
<path d="M 61.2,93.8 L 61.1,92.3 L 61.6,92.0" style="fill:none;stroke:#000000;stroke-width:2.0px;stroke-linecap:butt;stroke-linejoin:miter;stroke-opacity:1;"/>
<path class="atom-3" d="M 88.5 167.5 Q 88.5 165.4, 89.5 164.2 Q 90.5 163.0, 92.5 163.0 Q 94.4 163.0, 95.4 164.2 Q 96.5 165.4, 96.5 167.5 Q 96.5 169.6, 95.4 170.8 Q 94.4 172.0, 92.5 172.0 Q 90.6 172.0, 89.5 170.8 Q 88.5 169.6, 88.5 167.5 M 92.5 171.0 Q 93.8 171.0, 94.5 170.1 Q 95.3 169.2, 95.3 167.5 Q 95.3 165.8, 94.5 164.9 Q 93.8 164.0, 92.5 164.0 Q 91.2 164.0, 90.4 164.9 Q 89.7 165.8, 89.7 167.5 Q 89.7 169.2, 90.4 170.1 Q 91.2 171.0, 92.5 171.0 " fill="#FF0000"/>
<path class="atom-3" d="M 97.8 163.1 L 99.0 163.1 L 99.0 166.9 L 103.5 166.9 L 103.5 163.1 L 104.7 163.1 L 104.7 171.9 L 103.5 171.9 L 103.5 167.8 L 99.0 167.8 L 99.0 171.9 L 97.8 171.9 L 97.8 163.1 " fill="#FF0000"/>
<path class="atom-15" d="M 156.9 162.5 L 158.1 162.5 L 158.1 166.2 L 162.6 166.2 L 162.6 162.5 L 163.8 162.5 L 163.8 171.2 L 162.6 171.2 L 162.6 167.2 L 158.1 167.2 L 158.1 171.2 L 156.9 171.2 L 156.9 162.5 " fill="#FF0000"/>
<path class="atom-15" d="M 165.5 166.8 Q 165.5 164.7, 166.6 163.5 Q 167.6 162.4, 169.5 162.4 Q 171.5 162.4, 172.5 163.5 Q 173.5 164.7, 173.5 166.8 Q 173.5 168.9, 172.5 170.1 Q 171.5 171.3, 169.5 171.3 Q 167.6 171.3, 166.6 170.1 Q 165.5 168.9, 165.5 166.8 M 169.5 170.3 Q 170.9 170.3, 171.6 169.4 Q 172.3 168.6, 172.3 166.8 Q 172.3 165.1, 171.6 164.2 Q 170.9 163.4, 169.5 163.4 Q 168.2 163.4, 167.5 164.2 Q 166.8 165.1, 166.8 166.8 Q 166.8 168.6, 167.5 169.4 Q 168.2 170.3, 169.5 170.3 " fill="#FF0000"/>
<path class="atom-17" d="M 254.4 107.8 Q 254.4 105.7, 255.4 104.6 Q 256.5 103.4, 258.4 103.4 Q 260.3 103.4, 261.4 104.6 Q 262.4 105.7, 262.4 107.8 Q 262.4 110.0, 261.3 111.2 Q 260.3 112.4, 258.4 112.4 Q 256.5 112.4, 255.4 111.2 Q 254.4 110.0, 254.4 107.8 M 258.4 111.4 Q 259.7 111.4, 260.4 110.5 Q 261.2 109.6, 261.2 107.8 Q 261.2 106.1, 260.4 105.3 Q 259.7 104.4, 258.4 104.4 Q 257.1 104.4, 256.3 105.3 Q 255.6 106.1, 255.6 107.8 Q 255.6 109.6, 256.3 110.5 Q 257.1 111.4, 258.4 111.4 " fill="#FF0000"/>
<path class="atom-18" d="M 257.7 161.0 Q 257.7 159.0, 258.7 157.8 Q 259.8 156.6, 261.7 156.6 Q 263.6 156.6, 264.7 157.8 Q 265.7 159.0, 265.7 161.0 Q 265.7 163.2, 264.7 164.4 Q 263.6 165.6, 261.7 165.6 Q 259.8 165.6, 258.7 164.4 Q 257.7 163.2, 257.7 161.0 M 261.7 164.6 Q 263.0 164.6, 263.8 163.7 Q 264.5 162.8, 264.5 161.0 Q 264.5 159.3, 263.8 158.5 Q 263.0 157.6, 261.7 157.6 Q 260.4 157.6, 259.7 158.5 Q 258.9 159.3, 258.9 161.0 Q 258.9 162.8, 259.7 163.7 Q 260.4 164.6, 261.7 164.6 " fill="#FF0000"/>
<path class="atom-18" d="M 267.1 156.7 L 268.2 156.7 L 268.2 160.4 L 272.7 160.4 L 272.7 156.7 L 273.9 156.7 L 273.9 165.4 L 272.7 165.4 L 272.7 161.4 L 268.2 161.4 L 268.2 165.4 L 267.1 165.4 L 267.1 156.7 " fill="#FF0000"/>
<path class="atom-20" d="M 149.1 17.8 Q 149.1 15.7, 150.1 14.5 Q 151.1 13.3, 153.1 13.3 Q 155.0 13.3, 156.0 14.5 Q 157.1 15.7, 157.1 17.8 Q 157.1 19.9, 156.0 21.1 Q 155.0 22.3, 153.1 22.3 Q 151.2 22.3, 150.1 21.1 Q 149.1 19.9, 149.1 17.8 M 153.1 21.3 Q 154.4 21.3, 155.1 20.4 Q 155.9 19.5, 155.9 17.8 Q 155.9 16.0, 155.1 15.2 Q 154.4 14.3, 153.1 14.3 Q 151.8 14.3, 151.0 15.2 Q 150.3 16.0, 150.3 17.8 Q 150.3 19.5, 151.0 20.4 Q 151.8 21.3, 153.1 21.3 " fill="#FF0000"/>
<path class="atom-21" d="M 202.3 14.4 Q 202.3 12.3, 203.3 11.2 Q 204.4 10.0, 206.3 10.0 Q 208.2 10.0, 209.3 11.2 Q 210.3 12.3, 210.3 14.4 Q 210.3 16.6, 209.2 17.8 Q 208.2 19.0, 206.3 19.0 Q 204.4 19.0, 203.3 17.8 Q 202.3 16.6, 202.3 14.4 M 206.3 18.0 Q 207.6 18.0, 208.3 17.1 Q 209.1 16.2, 209.1 14.4 Q 209.1 12.7, 208.3 11.9 Q 207.6 11.0, 206.3 11.0 Q 205.0 11.0, 204.2 11.8 Q 203.5 12.7, 203.5 14.4 Q 203.5 16.2, 204.2 17.1 Q 205.0 18.0, 206.3 18.0 " fill="#FF0000"/>
<path class="atom-21" d="M 211.7 10.1 L 212.8 10.1 L 212.8 13.8 L 217.3 13.8 L 217.3 10.1 L 218.5 10.1 L 218.5 18.8 L 217.3 18.8 L 217.3 14.8 L 212.8 14.8 L 212.8 18.8 L 211.7 18.8 L 211.7 10.1 " fill="#FF0000"/>
<path class="atom-23" d="M 29.5 78.6 Q 29.5 76.5, 30.5 75.4 Q 31.6 74.2, 33.5 74.2 Q 35.4 74.2, 36.5 75.4 Q 37.5 76.5, 37.5 78.6 Q 37.5 80.8, 36.5 82.0 Q 35.4 83.2, 33.5 83.2 Q 31.6 83.2, 30.5 82.0 Q 29.5 80.8, 29.5 78.6 M 33.5 82.2 Q 34.8 82.2, 35.6 81.3 Q 36.3 80.4, 36.3 78.6 Q 36.3 76.9, 35.6 76.1 Q 34.8 75.2, 33.5 75.2 Q 32.2 75.2, 31.5 76.1 Q 30.7 76.9, 30.7 78.6 Q 30.7 80.4, 31.5 81.3 Q 32.2 82.2, 33.5 82.2 " fill="#FF0000"/>
<path class="atom-24" d="M 82.7 75.3 Q 82.7 73.2, 83.8 72.1 Q 84.8 70.9, 86.7 70.9 Q 88.7 70.9, 89.7 72.1 Q 90.7 73.2, 90.7 75.3 Q 90.7 77.4, 89.7 78.6 Q 88.6 79.8, 86.7 79.8 Q 84.8 79.8, 83.8 78.6 Q 82.7 77.4, 82.7 75.3 M 86.7 78.8 Q 88.1 78.8, 88.8 78.0 Q 89.5 77.1, 89.5 75.3 Q 89.5 73.6, 88.8 72.7 Q 88.1 71.9, 86.7 71.9 Q 85.4 71.9, 84.7 72.7 Q 84.0 73.6, 84.0 75.3 Q 84.0 77.1, 84.7 78.0 Q 85.4 78.8, 86.7 78.8 " fill="#FF0000"/>
<path class="atom-24" d="M 92.1 71.0 L 93.3 71.0 L 93.3 74.7 L 97.7 74.7 L 97.7 71.0 L 98.9 71.0 L 98.9 79.7 L 97.7 79.7 L 97.7 75.7 L 93.3 75.7 L 93.3 79.7 L 92.1 79.7 L 92.1 71.0 " fill="#FF0000"/>
<path class="legend" d="M 142.7 181.9 Q 142.7 179.6, 143.4 177.7 Q 144.0 175.8, 145.3 173.8 L 146.2 174.4 Q 145.2 176.3, 144.6 178.0 Q 144.1 179.7, 144.1 181.9 Q 144.1 184.0, 144.6 185.8 Q 145.2 187.5, 146.2 189.4 L 145.3 190.0 Q 144.0 188.0, 143.4 186.1 Q 142.7 184.2, 142.7 181.9 " fill="#000000"/>
<path class="legend" d="M 147.1 177.3 Q 147.6 176.2, 148.5 175.6 Q 149.5 175.0, 150.9 175.0 Q 152.6 175.0, 153.6 175.9 Q 154.5 176.8, 154.5 178.5 Q 154.5 180.2, 153.3 181.7 Q 152.1 183.3, 149.5 185.2 L 154.7 185.2 L 154.7 186.4 L 147.1 186.4 L 147.1 185.4 Q 149.2 183.9, 150.5 182.8 Q 151.7 181.6, 152.3 180.6 Q 152.9 179.6, 152.9 178.6 Q 152.9 177.5, 152.4 176.9 Q 151.9 176.3, 150.9 176.3 Q 150.0 176.3, 149.4 176.6 Q 148.8 177.0, 148.4 177.8 L 147.1 177.3 " fill="#000000"/>
<path class="legend" d="M 159.7 181.9 Q 159.7 184.2, 159.0 186.1 Q 158.4 188.0, 157.1 190.0 L 156.2 189.4 Q 157.2 187.5, 157.7 185.8 Q 158.3 184.0, 158.3 181.9 Q 158.3 179.7, 157.7 178.0 Q 157.2 176.3, 156.2 174.4 L 157.1 173.8 Q 158.4 175.8, 159.0 177.7 Q 159.7 179.6, 159.7 181.9 " fill="#000000"/>
</g>
    <g transform="translate(304.0, 0) scale(1 1) "><line x1="5" y1="100" x2="35" y2="100" style="stroke:rgb(0,0,0);stroke-width:2"/>
  <line x1="34" y1="100" x2="29" y2="95" style="stroke:rgb(0,0,0);stroke-width:2"/>
  <line x1="34" y1="100" x2="29" y2="105" style="stroke:rgb(0,0,0);stroke-width:2"/>
</g>
    <g transform="translate(344.0, 0) scale(1 1) "><!-- END OF HEADER -->
<rect style="opacity:1.0;fill:#FFFFFF;stroke:none" width="349.0" height="200.0" x="0.0" y="0.0"> </rect>
<path class="bond-0 atom-0 atom-1" d="M 305.0,177.6 L 285.1,160.7" style="fill:none;fill-rule:evenodd;stroke:#000000;stroke-width:2.0px;stroke-linecap:butt;stroke-linejoin:miter;stroke-opacity:1"/>
<path class="bond-1 atom-1 atom-2" d="M 285.1,160.7 L 268.1,180.5" style="fill:none;fill-rule:evenodd;stroke:#000000;stroke-width:2.0px;stroke-linecap:butt;stroke-linejoin:miter;stroke-opacity:1"/>
<path class="bond-2 atom-2 atom-3" d="M 268.1,180.5 L 257.4,178.6" style="fill:none;fill-rule:evenodd;stroke:#000000;stroke-width:2.0px;stroke-linecap:butt;stroke-linejoin:miter;stroke-opacity:1"/>
<path class="bond-2 atom-2 atom-3" d="M 257.4,178.6 L 246.7,176.6" style="fill:none;fill-rule:evenodd;stroke:#FF0000;stroke-width:2.0px;stroke-linecap:butt;stroke-linejoin:miter;stroke-opacity:1"/>
<path class="bond-3 atom-1 atom-4" d="M 285.1,160.7 L 265.2,143.7" style="fill:none;fill-rule:evenodd;stroke:#000000;stroke-width:2.0px;stroke-linecap:butt;stroke-linejoin:miter;stroke-opacity:1"/>
<path class="bond-4 atom-4 atom-5" d="M 265.2,143.7 L 270.0,118.0" style="fill:none;fill-rule:evenodd;stroke:#000000;stroke-width:2.0px;stroke-linecap:butt;stroke-linejoin:miter;stroke-opacity:1"/>
<path class="bond-5 atom-5 atom-6" d="M 270.0,118.0 L 250.1,101.0" style="fill:none;fill-rule:evenodd;stroke:#000000;stroke-width:2.0px;stroke-linecap:butt;stroke-linejoin:miter;stroke-opacity:1"/>
<path class="bond-6 atom-6 atom-7" d="M 250.1,101.0 L 254.9,75.3" style="fill:none;fill-rule:evenodd;stroke:#000000;stroke-width:2.0px;stroke-linecap:butt;stroke-linejoin:miter;stroke-opacity:1"/>
<path class="bond-7 atom-7 atom-8" d="M 254.9,75.3 L 235.0,58.3" style="fill:none;fill-rule:evenodd;stroke:#000000;stroke-width:2.0px;stroke-linecap:butt;stroke-linejoin:miter;stroke-opacity:1"/>
<path class="bond-8 atom-8 atom-9" d="M 235.0,58.3 L 215.1,41.3" style="fill:none;fill-rule:evenodd;stroke:#000000;stroke-width:2.0px;stroke-linecap:butt;stroke-linejoin:miter;stroke-opacity:1"/>
<path class="bond-9 atom-8 atom-10" d="M 235.0,58.3 L 218.0,78.2" style="fill:none;fill-rule:evenodd;stroke:#000000;stroke-width:2.0px;stroke-linecap:butt;stroke-linejoin:miter;stroke-opacity:1"/>
<path class="bond-10 atom-10 atom-11" d="M 218.0,78.2 L 192.3,73.4" style="fill:none;fill-rule:evenodd;stroke:#000000;stroke-width:2.0px;stroke-linecap:butt;stroke-linejoin:miter;stroke-opacity:1"/>
<path class="bond-11 atom-11 atom-12" d="M 192.3,73.4 L 175.3,93.3" style="fill:none;fill-rule:evenodd;stroke:#000000;stroke-width:2.0px;stroke-linecap:butt;stroke-linejoin:miter;stroke-opacity:1"/>
<path class="bond-12 atom-12 atom-13" d="M 175.3,93.3 L 158.3,113.2" style="fill:none;fill-rule:evenodd;stroke:#000000;stroke-width:2.0px;stroke-linecap:butt;stroke-linejoin:miter;stroke-opacity:1"/>
<path class="bond-13 atom-13 atom-14" d="M 158.3,113.2 L 132.6,108.4" style="fill:none;fill-rule:evenodd;stroke:#000000;stroke-width:2.0px;stroke-linecap:butt;stroke-linejoin:miter;stroke-opacity:1"/>
<path class="bond-14 atom-14 atom-15" d="M 132.6,108.4 L 115.6,128.3" style="fill:none;fill-rule:evenodd;stroke:#000000;stroke-width:2.0px;stroke-linecap:butt;stroke-linejoin:miter;stroke-opacity:1"/>
<path class="bond-15 atom-15 atom-16" d="M 115.6,128.3 L 89.9,123.6" style="fill:none;fill-rule:evenodd;stroke:#000000;stroke-width:2.0px;stroke-linecap:butt;stroke-linejoin:miter;stroke-opacity:1"/>
<path class="bond-16 atom-16 atom-17" d="M 89.9,123.6 L 72.9,143.4" style="fill:none;fill-rule:evenodd;stroke:#000000;stroke-width:2.0px;stroke-linecap:butt;stroke-linejoin:miter;stroke-opacity:1"/>
<path class="bond-17 atom-17 atom-18" d="M 72.9,143.4 L 56.0,163.3" style="fill:none;fill-rule:evenodd;stroke:#000000;stroke-width:2.0px;stroke-linecap:butt;stroke-linejoin:miter;stroke-opacity:1"/>
<path class="bond-18 atom-17 atom-19" d="M 72.9,143.4 L 92.8,160.4" style="fill:none;fill-rule:evenodd;stroke:#000000;stroke-width:2.0px;stroke-linecap:butt;stroke-linejoin:miter;stroke-opacity:1"/>
<path class="bond-19 atom-19 atom-20" d="M 92.8,160.4 L 90.9,171.0" style="fill:none;fill-rule:evenodd;stroke:#000000;stroke-width:2.0px;stroke-linecap:butt;stroke-linejoin:miter;stroke-opacity:1"/>
<path class="bond-19 atom-19 atom-20" d="M 90.9,171.0 L 88.9,181.5" style="fill:none;fill-rule:evenodd;stroke:#FF0000;stroke-width:2.0px;stroke-linecap:butt;stroke-linejoin:miter;stroke-opacity:1"/>
<path class="bond-20 atom-17 atom-21" d="M 72.9,143.4 L 53.0,126.5" style="fill:none;fill-rule:evenodd;stroke:#000000;stroke-width:2.0px;stroke-linecap:butt;stroke-linejoin:miter;stroke-opacity:1"/>
<path class="bond-21 atom-21 atom-22" d="M 54.8,127.9 L 56.8,116.9" style="fill:none;fill-rule:evenodd;stroke:#000000;stroke-width:2.0px;stroke-linecap:butt;stroke-linejoin:miter;stroke-opacity:1"/>
<path class="bond-21 atom-21 atom-22" d="M 56.8,116.9 L 58.9,105.8" style="fill:none;fill-rule:evenodd;stroke:#FF0000;stroke-width:2.0px;stroke-linecap:butt;stroke-linejoin:miter;stroke-opacity:1"/>
<path class="bond-21 atom-21 atom-22" d="M 50.9,127.2 L 53.0,116.2" style="fill:none;fill-rule:evenodd;stroke:#000000;stroke-width:2.0px;stroke-linecap:butt;stroke-linejoin:miter;stroke-opacity:1"/>
<path class="bond-21 atom-21 atom-22" d="M 53.0,116.2 L 55.0,105.1" style="fill:none;fill-rule:evenodd;stroke:#FF0000;stroke-width:2.0px;stroke-linecap:butt;stroke-linejoin:miter;stroke-opacity:1"/>
<path class="bond-22 atom-21 atom-23" d="M 53.0,126.5 L 42.9,130.1" style="fill:none;fill-rule:evenodd;stroke:#000000;stroke-width:2.0px;stroke-linecap:butt;stroke-linejoin:miter;stroke-opacity:1"/>
<path class="bond-22 atom-21 atom-23" d="M 42.9,130.1 L 32.7,133.7" style="fill:none;fill-rule:evenodd;stroke:#FF0000;stroke-width:2.0px;stroke-linecap:butt;stroke-linejoin:miter;stroke-opacity:1"/>
<path class="bond-23 atom-12 atom-24" d="M 175.3,93.3 L 155.4,76.3" style="fill:none;fill-rule:evenodd;stroke:#000000;stroke-width:2.0px;stroke-linecap:butt;stroke-linejoin:miter;stroke-opacity:1"/>
<path class="bond-24 atom-24 atom-25" d="M 155.4,76.3 L 130.8,85.1" style="fill:none;fill-rule:evenodd;stroke:#000000;stroke-width:2.0px;stroke-linecap:butt;stroke-linejoin:miter;stroke-opacity:1"/>
<path class="bond-25 atom-25 atom-26" d="M 130.8,85.1 L 110.9,68.1" style="fill:none;fill-rule:evenodd;stroke:#000000;stroke-width:2.0px;stroke-linecap:butt;stroke-linejoin:miter;stroke-opacity:1"/>
<path class="bond-26 atom-26 atom-27" d="M 110.9,68.1 L 91.0,51.1" style="fill:none;fill-rule:evenodd;stroke:#000000;stroke-width:2.0px;stroke-linecap:butt;stroke-linejoin:miter;stroke-opacity:1"/>
<path class="bond-27 atom-26 atom-28" d="M 110.9,68.1 L 127.9,48.2" style="fill:none;fill-rule:evenodd;stroke:#000000;stroke-width:2.0px;stroke-linecap:butt;stroke-linejoin:miter;stroke-opacity:1"/>
<path class="bond-28 atom-28 atom-29" d="M 127.9,48.2 L 138.6,50.2" style="fill:none;fill-rule:evenodd;stroke:#000000;stroke-width:2.0px;stroke-linecap:butt;stroke-linejoin:miter;stroke-opacity:1"/>
<path class="bond-28 atom-28 atom-29" d="M 138.6,50.2 L 149.3,52.2" style="fill:none;fill-rule:evenodd;stroke:#FF0000;stroke-width:2.0px;stroke-linecap:butt;stroke-linejoin:miter;stroke-opacity:1"/>
<path class="bond-29 atom-26 atom-30" d="M 110.9,68.1 L 93.9,88.0" style="fill:none;fill-rule:evenodd;stroke:#000000;stroke-width:2.0px;stroke-linecap:butt;stroke-linejoin:miter;stroke-opacity:1"/>
<path class="bond-30 atom-30 atom-31" d="M 91.7,87.6 L 95.4,98.1" style="fill:none;fill-rule:evenodd;stroke:#000000;stroke-width:2.0px;stroke-linecap:butt;stroke-linejoin:miter;stroke-opacity:1"/>
<path class="bond-30 atom-30 atom-31" d="M 95.4,98.1 L 99.1,108.7" style="fill:none;fill-rule:evenodd;stroke:#FF0000;stroke-width:2.0px;stroke-linecap:butt;stroke-linejoin:miter;stroke-opacity:1"/>
<path class="bond-30 atom-30 atom-31" d="M 95.4,86.2 L 99.1,96.8" style="fill:none;fill-rule:evenodd;stroke:#000000;stroke-width:2.0px;stroke-linecap:butt;stroke-linejoin:miter;stroke-opacity:1"/>
<path class="bond-30 atom-30 atom-31" d="M 99.1,96.8 L 102.8,107.3" style="fill:none;fill-rule:evenodd;stroke:#FF0000;stroke-width:2.0px;stroke-linecap:butt;stroke-linejoin:miter;stroke-opacity:1"/>
<path class="bond-31 atom-30 atom-32" d="M 93.9,88.0 L 83.2,86.0" style="fill:none;fill-rule:evenodd;stroke:#000000;stroke-width:2.0px;stroke-linecap:butt;stroke-linejoin:miter;stroke-opacity:1"/>
<path class="bond-31 atom-30 atom-32" d="M 83.2,86.0 L 72.4,84.0" style="fill:none;fill-rule:evenodd;stroke:#FF0000;stroke-width:2.0px;stroke-linecap:butt;stroke-linejoin:miter;stroke-opacity:1"/>
<path class="bond-32 atom-12 atom-33" d="M 175.3,93.3 L 195.2,110.3" style="fill:none;fill-rule:evenodd;stroke:#000000;stroke-width:2.0px;stroke-linecap:butt;stroke-linejoin:miter;stroke-opacity:1"/>
<path class="bond-33 atom-33 atom-34" d="M 194.8,112.5 L 205.5,108.7" style="fill:none;fill-rule:evenodd;stroke:#000000;stroke-width:2.0px;stroke-linecap:butt;stroke-linejoin:miter;stroke-opacity:1"/>
<path class="bond-33 atom-33 atom-34" d="M 205.5,108.7 L 216.2,104.9" style="fill:none;fill-rule:evenodd;stroke:#FF0000;stroke-width:2.0px;stroke-linecap:butt;stroke-linejoin:miter;stroke-opacity:1"/>
<path class="bond-33 atom-33 atom-34" d="M 193.5,108.8 L 204.2,105.0" style="fill:none;fill-rule:evenodd;stroke:#000000;stroke-width:2.0px;stroke-linecap:butt;stroke-linejoin:miter;stroke-opacity:1"/>
<path class="bond-33 atom-33 atom-34" d="M 204.2,105.0 L 214.9,101.2" style="fill:none;fill-rule:evenodd;stroke:#FF0000;stroke-width:2.0px;stroke-linecap:butt;stroke-linejoin:miter;stroke-opacity:1"/>
<path class="bond-34 atom-33 atom-35" d="M 195.2,110.3 L 193.2,120.8" style="fill:none;fill-rule:evenodd;stroke:#000000;stroke-width:2.0px;stroke-linecap:butt;stroke-linejoin:miter;stroke-opacity:1"/>
<path class="bond-34 atom-33 atom-35" d="M 193.2,120.8 L 191.3,131.4" style="fill:none;fill-rule:evenodd;stroke:#FF0000;stroke-width:2.0px;stroke-linecap:butt;stroke-linejoin:miter;stroke-opacity:1"/>
<path class="bond-35 atom-8 atom-36" d="M 235.0,58.3 L 252.0,38.4" style="fill:none;fill-rule:evenodd;stroke:#000000;stroke-width:2.0px;stroke-linecap:butt;stroke-linejoin:miter;stroke-opacity:1"/>
<path class="bond-36 atom-36 atom-37" d="M 250.5,40.1 L 261.8,42.2" style="fill:none;fill-rule:evenodd;stroke:#000000;stroke-width:2.0px;stroke-linecap:butt;stroke-linejoin:miter;stroke-opacity:1"/>
<path class="bond-36 atom-36 atom-37" d="M 261.8,42.2 L 273.1,44.3" style="fill:none;fill-rule:evenodd;stroke:#FF0000;stroke-width:2.0px;stroke-linecap:butt;stroke-linejoin:miter;stroke-opacity:1"/>
<path class="bond-36 atom-36 atom-37" d="M 251.2,36.3 L 262.5,38.3" style="fill:none;fill-rule:evenodd;stroke:#000000;stroke-width:2.0px;stroke-linecap:butt;stroke-linejoin:miter;stroke-opacity:1"/>
<path class="bond-36 atom-36 atom-37" d="M 262.5,38.3 L 273.8,40.4" style="fill:none;fill-rule:evenodd;stroke:#FF0000;stroke-width:2.0px;stroke-linecap:butt;stroke-linejoin:miter;stroke-opacity:1"/>
<path class="bond-37 atom-36 atom-38" d="M 252.0,38.4 L 248.4,28.4" style="fill:none;fill-rule:evenodd;stroke:#000000;stroke-width:2.0px;stroke-linecap:butt;stroke-linejoin:miter;stroke-opacity:1"/>
<path class="bond-37 atom-36 atom-38" d="M 248.4,28.4 L 244.9,18.5" style="fill:none;fill-rule:evenodd;stroke:#FF0000;stroke-width:2.0px;stroke-linecap:butt;stroke-linejoin:miter;stroke-opacity:1"/>
<path class="bond-38 atom-1 atom-39" d="M 285.1,160.7 L 302.1,140.8" style="fill:none;fill-rule:evenodd;stroke:#000000;stroke-width:2.0px;stroke-linecap:butt;stroke-linejoin:miter;stroke-opacity:1"/>
<path class="bond-39 atom-39 atom-40" d="M 300.6,142.5 L 311.9,144.6" style="fill:none;fill-rule:evenodd;stroke:#000000;stroke-width:2.0px;stroke-linecap:butt;stroke-linejoin:miter;stroke-opacity:1"/>
<path class="bond-39 atom-39 atom-40" d="M 311.9,144.6 L 323.2,146.7" style="fill:none;fill-rule:evenodd;stroke:#FF0000;stroke-width:2.0px;stroke-linecap:butt;stroke-linejoin:miter;stroke-opacity:1"/>
<path class="bond-39 atom-39 atom-40" d="M 301.3,138.6 L 312.6,140.7" style="fill:none;fill-rule:evenodd;stroke:#000000;stroke-width:2.0px;stroke-linecap:butt;stroke-linejoin:miter;stroke-opacity:1"/>
<path class="bond-39 atom-39 atom-40" d="M 312.6,140.7 L 323.9,142.8" style="fill:none;fill-rule:evenodd;stroke:#FF0000;stroke-width:2.0px;stroke-linecap:butt;stroke-linejoin:miter;stroke-opacity:1"/>
<path class="bond-40 atom-39 atom-41" d="M 302.1,140.8 L 298.6,130.8" style="fill:none;fill-rule:evenodd;stroke:#000000;stroke-width:2.0px;stroke-linecap:butt;stroke-linejoin:miter;stroke-opacity:1"/>
<path class="bond-40 atom-39 atom-41" d="M 298.6,130.8 L 295.0,120.8" style="fill:none;fill-rule:evenodd;stroke:#FF0000;stroke-width:2.0px;stroke-linecap:butt;stroke-linejoin:miter;stroke-opacity:1"/>
<path d="M 269.0,179.5 L 268.1,180.5 L 267.6,180.4" style="fill:none;stroke:#000000;stroke-width:2.0px;stroke-linecap:butt;stroke-linejoin:miter;stroke-opacity:1;"/>
<path d="M 266.2,144.5 L 265.2,143.7 L 265.5,142.4" style="fill:none;stroke:#000000;stroke-width:2.0px;stroke-linecap:butt;stroke-linejoin:miter;stroke-opacity:1;"/>
<path d="M 269.8,119.2 L 270.0,118.0 L 269.0,117.1" style="fill:none;stroke:#000000;stroke-width:2.0px;stroke-linecap:butt;stroke-linejoin:miter;stroke-opacity:1;"/>
<path d="M 251.1,101.8 L 250.1,101.0 L 250.3,99.7" style="fill:none;stroke:#000000;stroke-width:2.0px;stroke-linecap:butt;stroke-linejoin:miter;stroke-opacity:1;"/>
<path d="M 254.6,76.5 L 254.9,75.3 L 253.9,74.4" style="fill:none;stroke:#000000;stroke-width:2.0px;stroke-linecap:butt;stroke-linejoin:miter;stroke-opacity:1;"/>
<path d="M 218.8,77.2 L 218.0,78.2 L 216.7,77.9" style="fill:none;stroke:#000000;stroke-width:2.0px;stroke-linecap:butt;stroke-linejoin:miter;stroke-opacity:1;"/>
<path d="M 193.6,73.6 L 192.3,73.4 L 191.4,74.4" style="fill:none;stroke:#000000;stroke-width:2.0px;stroke-linecap:butt;stroke-linejoin:miter;stroke-opacity:1;"/>
<path d="M 159.2,112.2 L 158.3,113.2 L 157.0,113.0" style="fill:none;stroke:#000000;stroke-width:2.0px;stroke-linecap:butt;stroke-linejoin:miter;stroke-opacity:1;"/>
<path d="M 133.9,108.7 L 132.6,108.4 L 131.8,109.4" style="fill:none;stroke:#000000;stroke-width:2.0px;stroke-linecap:butt;stroke-linejoin:miter;stroke-opacity:1;"/>
<path d="M 116.5,127.3 L 115.6,128.3 L 114.3,128.1" style="fill:none;stroke:#000000;stroke-width:2.0px;stroke-linecap:butt;stroke-linejoin:miter;stroke-opacity:1;"/>
<path d="M 91.2,123.8 L 89.9,123.6 L 89.1,124.6" style="fill:none;stroke:#000000;stroke-width:2.0px;stroke-linecap:butt;stroke-linejoin:miter;stroke-opacity:1;"/>
<path d="M 91.8,159.6 L 92.8,160.4 L 92.7,161.0" style="fill:none;stroke:#000000;stroke-width:2.0px;stroke-linecap:butt;stroke-linejoin:miter;stroke-opacity:1;"/>
<path d="M 54.0,127.3 L 53.0,126.5 L 52.5,126.6" style="fill:none;stroke:#000000;stroke-width:2.0px;stroke-linecap:butt;stroke-linejoin:miter;stroke-opacity:1;"/>
<path d="M 156.4,77.2 L 155.4,76.3 L 154.2,76.8" style="fill:none;stroke:#000000;stroke-width:2.0px;stroke-linecap:butt;stroke-linejoin:miter;stroke-opacity:1;"/>
<path d="M 132.0,84.6 L 130.8,85.1 L 129.8,84.2" style="fill:none;stroke:#000000;stroke-width:2.0px;stroke-linecap:butt;stroke-linejoin:miter;stroke-opacity:1;"/>
<path d="M 127.0,49.2 L 127.9,48.2 L 128.4,48.3" style="fill:none;stroke:#000000;stroke-width:2.0px;stroke-linecap:butt;stroke-linejoin:miter;stroke-opacity:1;"/>
<path d="M 94.7,87.0 L 93.9,88.0 L 93.4,87.9" style="fill:none;stroke:#000000;stroke-width:2.0px;stroke-linecap:butt;stroke-linejoin:miter;stroke-opacity:1;"/>
<path d="M 194.2,109.4 L 195.2,110.3 L 195.1,110.8" style="fill:none;stroke:#000000;stroke-width:2.0px;stroke-linecap:butt;stroke-linejoin:miter;stroke-opacity:1;"/>
<path d="M 251.1,39.4 L 252.0,38.4 L 251.8,37.9" style="fill:none;stroke:#000000;stroke-width:2.0px;stroke-linecap:butt;stroke-linejoin:miter;stroke-opacity:1;"/>
<path d="M 301.3,141.8 L 302.1,140.8 L 301.9,140.3" style="fill:none;stroke:#000000;stroke-width:2.0px;stroke-linecap:butt;stroke-linejoin:miter;stroke-opacity:1;"/>
<path class="atom-3" d="M 231.7 172.1 L 232.7 172.1 L 232.7 175.3 L 236.5 175.3 L 236.5 172.1 L 237.5 172.1 L 237.5 179.5 L 236.5 179.5 L 236.5 176.1 L 232.7 176.1 L 232.7 179.5 L 231.7 179.5 L 231.7 172.1 " fill="#FF0000"/>
<path class="atom-3" d="M 239.0 175.8 Q 239.0 174.0, 239.9 173.0 Q 240.8 172.0, 242.4 172.0 Q 244.1 172.0, 245.0 173.0 Q 245.8 174.0, 245.8 175.8 Q 245.8 177.6, 244.9 178.6 Q 244.1 179.6, 242.4 179.6 Q 240.8 179.6, 239.9 178.6 Q 239.0 177.6, 239.0 175.8 M 242.4 178.8 Q 243.6 178.8, 244.2 178.1 Q 244.8 177.3, 244.8 175.8 Q 244.8 174.3, 244.2 173.6 Q 243.6 172.9, 242.4 172.9 Q 241.3 172.9, 240.7 173.6 Q 240.1 174.3, 240.1 175.8 Q 240.1 177.3, 240.7 178.1 Q 241.3 178.8, 242.4 178.8 " fill="#FF0000"/>
<path class="atom-20" d="M 84.7 186.2 Q 84.7 184.4, 85.5 183.4 Q 86.4 182.4, 88.1 182.4 Q 89.7 182.4, 90.6 183.4 Q 91.5 184.4, 91.5 186.2 Q 91.5 188.0, 90.6 189.0 Q 89.7 190.0, 88.1 190.0 Q 86.4 190.0, 85.5 189.0 Q 84.7 188.0, 84.7 186.2 M 88.1 189.2 Q 89.2 189.2, 89.8 188.4 Q 90.4 187.6, 90.4 186.2 Q 90.4 184.7, 89.8 184.0 Q 89.2 183.2, 88.1 183.2 Q 86.9 183.2, 86.3 184.0 Q 85.7 184.7, 85.7 186.2 Q 85.7 187.7, 86.3 188.4 Q 86.9 189.2, 88.1 189.2 " fill="#FF0000"/>
<path class="atom-20" d="M 92.6 182.5 L 93.6 182.5 L 93.6 185.6 L 97.4 185.6 L 97.4 182.5 L 98.4 182.5 L 98.4 189.9 L 97.4 189.9 L 97.4 186.5 L 93.6 186.5 L 93.6 189.9 L 92.6 189.9 L 92.6 182.5 " fill="#FF0000"/>
<path class="atom-22" d="M 54.4 100.8 Q 54.4 99.0, 55.3 98.0 Q 56.2 97.0, 57.8 97.0 Q 59.4 97.0, 60.3 98.0 Q 61.2 99.0, 61.2 100.8 Q 61.2 102.6, 60.3 103.6 Q 59.4 104.6, 57.8 104.6 Q 56.2 104.6, 55.3 103.6 Q 54.4 102.6, 54.4 100.8 M 57.8 103.8 Q 58.9 103.8, 59.5 103.0 Q 60.2 102.3, 60.2 100.8 Q 60.2 99.3, 59.5 98.6 Q 58.9 97.8, 57.8 97.8 Q 56.7 97.8, 56.1 98.6 Q 55.5 99.3, 55.5 100.8 Q 55.5 102.3, 56.1 103.0 Q 56.7 103.8, 57.8 103.8 " fill="#FF0000"/>
<path class="atom-23" d="M 17.7 131.5 L 18.7 131.5 L 18.7 134.7 L 22.5 134.7 L 22.5 131.5 L 23.5 131.5 L 23.5 138.9 L 22.5 138.9 L 22.5 135.5 L 18.7 135.5 L 18.7 138.9 L 17.7 138.9 L 17.7 131.5 " fill="#FF0000"/>
<path class="atom-23" d="M 25.0 135.2 Q 25.0 133.4, 25.9 132.4 Q 26.8 131.5, 28.4 131.5 Q 30.0 131.5, 30.9 132.4 Q 31.8 133.4, 31.8 135.2 Q 31.8 137.0, 30.9 138.0 Q 30.0 139.1, 28.4 139.1 Q 26.8 139.1, 25.9 138.0 Q 25.0 137.0, 25.0 135.2 M 28.4 138.2 Q 29.5 138.2, 30.1 137.5 Q 30.7 136.7, 30.7 135.2 Q 30.7 133.8, 30.1 133.0 Q 29.5 132.3, 28.4 132.3 Q 27.3 132.3, 26.6 133.0 Q 26.0 133.8, 26.0 135.2 Q 26.0 136.7, 26.6 137.5 Q 27.3 138.2, 28.4 138.2 " fill="#FF0000"/>
<path class="atom-29" d="M 150.2 53.0 Q 150.2 51.2, 151.0 50.2 Q 151.9 49.2, 153.6 49.2 Q 155.2 49.2, 156.1 50.2 Q 157.0 51.2, 157.0 53.0 Q 157.0 54.8, 156.1 55.8 Q 155.2 56.8, 153.6 56.8 Q 151.9 56.8, 151.0 55.8 Q 150.2 54.8, 150.2 53.0 M 153.6 56.0 Q 154.7 56.0, 155.3 55.2 Q 155.9 54.5, 155.9 53.0 Q 155.9 51.5, 155.3 50.8 Q 154.7 50.0, 153.6 50.0 Q 152.4 50.0, 151.8 50.8 Q 151.2 51.5, 151.2 53.0 Q 151.2 54.5, 151.8 55.2 Q 152.4 56.0, 153.6 56.0 " fill="#FF0000"/>
<path class="atom-29" d="M 158.1 49.3 L 159.1 49.3 L 159.1 52.4 L 162.9 52.4 L 162.9 49.3 L 163.9 49.3 L 163.9 56.7 L 162.9 56.7 L 162.9 53.3 L 159.1 53.3 L 159.1 56.7 L 158.1 56.7 L 158.1 49.3 " fill="#FF0000"/>
<path class="atom-31" d="M 99.2 112.6 Q 99.2 110.9, 100.1 109.9 Q 101.0 108.9, 102.6 108.9 Q 104.3 108.9, 105.2 109.9 Q 106.0 110.9, 106.0 112.6 Q 106.0 114.4, 105.1 115.5 Q 104.3 116.5, 102.6 116.5 Q 101.0 116.5, 100.1 115.5 Q 99.2 114.4, 99.2 112.6 M 102.6 115.6 Q 103.8 115.6, 104.4 114.9 Q 105.0 114.1, 105.0 112.6 Q 105.0 111.2, 104.4 110.4 Q 103.8 109.7, 102.6 109.7 Q 101.5 109.7, 100.9 110.4 Q 100.3 111.2, 100.3 112.6 Q 100.3 114.1, 100.9 114.9 Q 101.5 115.6, 102.6 115.6 " fill="#FF0000"/>
<path class="atom-32" d="M 57.5 79.5 L 58.5 79.5 L 58.5 82.7 L 62.3 82.7 L 62.3 79.5 L 63.3 79.5 L 63.3 86.9 L 62.3 86.9 L 62.3 83.5 L 58.5 83.5 L 58.5 86.9 L 57.5 86.9 L 57.5 79.5 " fill="#FF0000"/>
<path class="atom-32" d="M 64.8 83.2 Q 64.8 81.4, 65.7 80.5 Q 66.5 79.5, 68.2 79.5 Q 69.8 79.5, 70.7 80.5 Q 71.6 81.4, 71.6 83.2 Q 71.6 85.0, 70.7 86.0 Q 69.8 87.1, 68.2 87.1 Q 66.5 87.1, 65.7 86.0 Q 64.8 85.0, 64.8 83.2 M 68.2 86.2 Q 69.3 86.2, 69.9 85.5 Q 70.5 84.7, 70.5 83.2 Q 70.5 81.8, 69.9 81.0 Q 69.3 80.3, 68.2 80.3 Q 67.1 80.3, 66.4 81.0 Q 65.8 81.8, 65.8 83.2 Q 65.8 84.7, 66.4 85.5 Q 67.1 86.2, 68.2 86.2 " fill="#FF0000"/>
<path class="atom-34" d="M 216.4 101.6 Q 216.4 99.8, 217.3 98.8 Q 218.2 97.8, 219.8 97.8 Q 221.5 97.8, 222.4 98.8 Q 223.2 99.8, 223.2 101.6 Q 223.2 103.4, 222.4 104.4 Q 221.5 105.4, 219.8 105.4 Q 218.2 105.4, 217.3 104.4 Q 216.4 103.4, 216.4 101.6 M 219.8 104.6 Q 221.0 104.6, 221.6 103.8 Q 222.2 103.1, 222.2 101.6 Q 222.2 100.1, 221.6 99.4 Q 221.0 98.6, 219.8 98.6 Q 218.7 98.6, 218.1 99.4 Q 217.5 100.1, 217.5 101.6 Q 217.5 103.1, 218.1 103.8 Q 218.7 104.6, 219.8 104.6 " fill="#FF0000"/>
<path class="atom-35" d="M 187.0 136.0 Q 187.0 134.2, 187.9 133.2 Q 188.8 132.3, 190.4 132.3 Q 192.1 132.3, 193.0 133.2 Q 193.8 134.2, 193.8 136.0 Q 193.8 137.8, 192.9 138.8 Q 192.1 139.9, 190.4 139.9 Q 188.8 139.9, 187.9 138.8 Q 187.0 137.8, 187.0 136.0 M 190.4 139.0 Q 191.6 139.0, 192.2 138.3 Q 192.8 137.5, 192.8 136.0 Q 192.8 134.6, 192.2 133.8 Q 191.6 133.1, 190.4 133.1 Q 189.3 133.1, 188.7 133.8 Q 188.1 134.6, 188.1 136.0 Q 188.1 137.5, 188.7 138.3 Q 189.3 139.0, 190.4 139.0 " fill="#FF0000"/>
<path class="atom-35" d="M 195.0 132.3 L 196.0 132.3 L 196.0 135.5 L 199.8 135.5 L 199.8 132.3 L 200.8 132.3 L 200.8 139.7 L 199.8 139.7 L 199.8 136.3 L 196.0 136.3 L 196.0 139.7 L 195.0 139.7 L 195.0 132.3 " fill="#FF0000"/>
<path class="atom-37" d="M 274.3 43.2 Q 274.3 41.4, 275.2 40.4 Q 276.0 39.4, 277.7 39.4 Q 279.3 39.4, 280.2 40.4 Q 281.1 41.4, 281.1 43.2 Q 281.1 45.0, 280.2 46.0 Q 279.3 47.0, 277.7 47.0 Q 276.0 47.0, 275.2 46.0 Q 274.3 45.0, 274.3 43.2 M 277.7 46.2 Q 278.8 46.2, 279.4 45.4 Q 280.0 44.7, 280.0 43.2 Q 280.0 41.7, 279.4 41.0 Q 278.8 40.2, 277.7 40.2 Q 276.5 40.2, 275.9 41.0 Q 275.3 41.7, 275.3 43.2 Q 275.3 44.7, 275.9 45.4 Q 276.5 46.2, 277.7 46.2 " fill="#FF0000"/>
<path class="atom-38" d="M 239.8 13.8 Q 239.8 12.0, 240.7 11.0 Q 241.6 10.0, 243.2 10.0 Q 244.9 10.0, 245.7 11.0 Q 246.6 12.0, 246.6 13.8 Q 246.6 15.6, 245.7 16.6 Q 244.8 17.6, 243.2 17.6 Q 241.6 17.6, 240.7 16.6 Q 239.8 15.6, 239.8 13.8 M 243.2 16.8 Q 244.4 16.8, 245.0 16.0 Q 245.6 15.3, 245.6 13.8 Q 245.6 12.3, 245.0 11.6 Q 244.4 10.8, 243.2 10.8 Q 242.1 10.8, 241.5 11.6 Q 240.9 12.3, 240.9 13.8 Q 240.9 15.3, 241.5 16.0 Q 242.1 16.8, 243.2 16.8 " fill="#FF0000"/>
<path class="atom-38" d="M 247.8 10.1 L 248.8 10.1 L 248.8 13.2 L 252.6 13.2 L 252.6 10.1 L 253.6 10.1 L 253.6 17.5 L 252.6 17.5 L 252.6 14.1 L 248.8 14.1 L 248.8 17.5 L 247.8 17.5 L 247.8 10.1 " fill="#FF0000"/>
<path class="atom-40" d="M 324.4 145.5 Q 324.4 143.8, 325.3 142.8 Q 326.2 141.8, 327.8 141.8 Q 329.5 141.8, 330.3 142.8 Q 331.2 143.8, 331.2 145.5 Q 331.2 147.3, 330.3 148.4 Q 329.4 149.4, 327.8 149.4 Q 326.2 149.4, 325.3 148.4 Q 324.4 147.4, 324.4 145.5 M 327.8 148.5 Q 328.9 148.5, 329.6 147.8 Q 330.2 147.0, 330.2 145.5 Q 330.2 144.1, 329.6 143.4 Q 328.9 142.6, 327.8 142.6 Q 326.7 142.6, 326.1 143.3 Q 325.5 144.1, 325.5 145.5 Q 325.5 147.0, 326.1 147.8 Q 326.7 148.5, 327.8 148.5 " fill="#FF0000"/>
<path class="atom-41" d="M 290.0 116.1 Q 290.0 114.4, 290.8 113.4 Q 291.7 112.4, 293.4 112.4 Q 295.0 112.4, 295.9 113.4 Q 296.8 114.4, 296.8 116.1 Q 296.8 117.9, 295.9 119.0 Q 295.0 120.0, 293.4 120.0 Q 291.7 120.0, 290.8 119.0 Q 290.0 117.9, 290.0 116.1 M 293.4 119.1 Q 294.5 119.1, 295.1 118.4 Q 295.7 117.6, 295.7 116.1 Q 295.7 114.7, 295.1 113.9 Q 294.5 113.2, 293.4 113.2 Q 292.2 113.2, 291.6 113.9 Q 291.0 114.7, 291.0 116.1 Q 291.0 117.6, 291.6 118.4 Q 292.2 119.1, 293.4 119.1 " fill="#FF0000"/>
<path class="atom-41" d="M 297.9 112.5 L 298.9 112.5 L 298.9 115.6 L 302.7 115.6 L 302.7 112.5 L 303.7 112.5 L 303.7 119.9 L 302.7 119.9 L 302.7 116.4 L 298.9 116.4 L 298.9 119.9 L 297.9 119.9 L 297.9 112.5 " fill="#FF0000"/>
</g>
    <g transform="translate(693.0, 0) scale(1 1) "><line x1="15" y1="100" x2="25" y2="100" style="stroke:rgb(0,0,0);stroke-width:2"/>
  <line x1="20" y1="95" x2="20" y2="105" style="stroke:rgb(0,0,0);stroke-width:2"/>
</g>
    <g transform="translate(733.0, 0) scale(1 1) "><!-- END OF HEADER -->
<rect style="opacity:1.0;fill:#FFFFFF;stroke:none" width="205.0" height="200.0" x="0.0" y="0.0"> </rect>
<path class="bond-0 atom-0 atom-1" d="M 122.6,44.3 L 108.8,89.2" style="fill:none;fill-rule:evenodd;stroke:#000000;stroke-width:2.0px;stroke-linecap:butt;stroke-linejoin:miter;stroke-opacity:1"/>
<path class="bond-1 atom-1 atom-2" d="M 108.8,89.2 L 95.0,134.1" style="fill:none;fill-rule:evenodd;stroke:#000000;stroke-width:2.0px;stroke-linecap:butt;stroke-linejoin:miter;stroke-opacity:1"/>
<path class="bond-2 atom-1 atom-3" d="M 108.8,89.2 L 63.9,75.4" style="fill:none;fill-rule:evenodd;stroke:#000000;stroke-width:2.0px;stroke-linecap:butt;stroke-linejoin:miter;stroke-opacity:1"/>
<path class="bond-3 atom-3 atom-4" d="M 63.9,75.4 L 50.5,87.9" style="fill:none;fill-rule:evenodd;stroke:#000000;stroke-width:2.0px;stroke-linecap:butt;stroke-linejoin:miter;stroke-opacity:1"/>
<path class="bond-3 atom-3 atom-4" d="M 50.5,87.9 L 37.2,100.3" style="fill:none;fill-rule:evenodd;stroke:#FF0000;stroke-width:2.0px;stroke-linecap:butt;stroke-linejoin:miter;stroke-opacity:1"/>
<path class="bond-4 atom-1 atom-5" d="M 108.8,89.2 L 153.7,103.0" style="fill:none;fill-rule:evenodd;stroke:#000000;stroke-width:2.0px;stroke-linecap:butt;stroke-linejoin:miter;stroke-opacity:1"/>
<path class="bond-5 atom-5 atom-6" d="M 154.7,107.0 L 168.8,93.8" style="fill:none;fill-rule:evenodd;stroke:#000000;stroke-width:2.0px;stroke-linecap:butt;stroke-linejoin:miter;stroke-opacity:1"/>
<path class="bond-5 atom-5 atom-6" d="M 168.8,93.8 L 182.9,80.7" style="fill:none;fill-rule:evenodd;stroke:#FF0000;stroke-width:2.0px;stroke-linecap:butt;stroke-linejoin:miter;stroke-opacity:1"/>
<path class="bond-5 atom-5 atom-6" d="M 149.9,101.8 L 164.0,88.7" style="fill:none;fill-rule:evenodd;stroke:#000000;stroke-width:2.0px;stroke-linecap:butt;stroke-linejoin:miter;stroke-opacity:1"/>
<path class="bond-5 atom-5 atom-6" d="M 164.0,88.7 L 178.1,75.5" style="fill:none;fill-rule:evenodd;stroke:#FF0000;stroke-width:2.0px;stroke-linecap:butt;stroke-linejoin:miter;stroke-opacity:1"/>
<path class="bond-6 atom-5 atom-7" d="M 153.7,103.0 L 158.0,121.7" style="fill:none;fill-rule:evenodd;stroke:#000000;stroke-width:2.0px;stroke-linecap:butt;stroke-linejoin:miter;stroke-opacity:1"/>
<path class="bond-6 atom-5 atom-7" d="M 158.0,121.7 L 162.4,140.5" style="fill:none;fill-rule:evenodd;stroke:#FF0000;stroke-width:2.0px;stroke-linecap:butt;stroke-linejoin:miter;stroke-opacity:1"/>
<path d="M 66.1,76.1 L 63.9,75.4 L 63.2,76.0" style="fill:none;stroke:#000000;stroke-width:2.0px;stroke-linecap:butt;stroke-linejoin:miter;stroke-opacity:1;"/>
<path d="M 151.5,102.3 L 153.7,103.0 L 154.0,103.9" style="fill:none;stroke:#000000;stroke-width:2.0px;stroke-linecap:butt;stroke-linejoin:miter;stroke-opacity:1;"/>
<path class="atom-4" d="M 10.2 100.8 L 12.1 100.8 L 12.1 106.5 L 18.9 106.5 L 18.9 100.8 L 20.7 100.8 L 20.7 114.1 L 18.9 114.1 L 18.9 108.0 L 12.1 108.0 L 12.1 114.1 L 10.2 114.1 L 10.2 100.8 " fill="#FF0000"/>
<path class="atom-4" d="M 23.4 107.5 Q 23.4 104.3, 25.0 102.5 Q 26.5 100.7, 29.5 100.7 Q 32.5 100.7, 34.0 102.5 Q 35.6 104.3, 35.6 107.5 Q 35.6 110.7, 34.0 112.5 Q 32.4 114.4, 29.5 114.4 Q 26.6 114.4, 25.0 112.5 Q 23.4 110.7, 23.4 107.5 M 29.5 112.9 Q 31.5 112.9, 32.6 111.5 Q 33.7 110.1, 33.7 107.5 Q 33.7 104.8, 32.6 103.5 Q 31.5 102.2, 29.5 102.2 Q 27.5 102.2, 26.4 103.5 Q 25.3 104.8, 25.3 107.5 Q 25.3 110.1, 26.4 111.5 Q 27.5 112.9, 29.5 112.9 " fill="#FF0000"/>
<path class="atom-6" d="M 182.0 71.0 Q 182.0 67.8, 183.6 66.0 Q 185.2 64.3, 188.1 64.3 Q 191.1 64.3, 192.7 66.0 Q 194.3 67.8, 194.3 71.0 Q 194.3 74.3, 192.7 76.1 Q 191.1 77.9, 188.1 77.9 Q 185.2 77.9, 183.6 76.1 Q 182.0 74.3, 182.0 71.0 M 188.1 76.4 Q 190.2 76.4, 191.3 75.1 Q 192.4 73.7, 192.4 71.0 Q 192.4 68.4, 191.3 67.1 Q 190.2 65.8, 188.1 65.8 Q 186.1 65.8, 185.0 67.1 Q 183.9 68.4, 183.9 71.0 Q 183.9 73.7, 185.0 75.1 Q 186.1 76.4, 188.1 76.4 " fill="#FF0000"/>
<path class="atom-7" d="M 158.2 148.8 Q 158.2 145.6, 159.7 143.8 Q 161.3 142.1, 164.3 142.1 Q 167.2 142.1, 168.8 143.8 Q 170.4 145.6, 170.4 148.8 Q 170.4 152.1, 168.8 153.9 Q 167.2 155.7, 164.3 155.7 Q 161.3 155.7, 159.7 153.9 Q 158.2 152.1, 158.2 148.8 M 164.3 154.2 Q 166.3 154.2, 167.4 152.9 Q 168.5 151.5, 168.5 148.8 Q 168.5 146.2, 167.4 144.9 Q 166.3 143.6, 164.3 143.6 Q 162.2 143.6, 161.1 144.9 Q 160.0 146.2, 160.0 148.8 Q 160.0 151.5, 161.1 152.9 Q 162.2 154.2, 164.3 154.2 " fill="#FF0000"/>
<path class="atom-7" d="M 172.4 142.2 L 174.2 142.2 L 174.2 147.9 L 181.0 147.9 L 181.0 142.2 L 182.9 142.2 L 182.9 155.5 L 181.0 155.5 L 181.0 149.4 L 174.2 149.4 L 174.2 155.5 L 172.4 155.5 L 172.4 142.2 " fill="#FF0000"/>
</g>
  </g>
</svg>
