<?xml version='1.0' encoding='ASCII' standalone='yes'?>
<svg xmlns="http://www.w3.org/2000/svg" xmlns:xlink="http://www.w3.org/1999/xlink" version="1.1" width="946.0px" viewBox="0 0 946.0 200.0" height="200.0px">
  <g>
    <g transform="translate(0, 0) scale(1 1) "><!-- END OF HEADER -->
<rect style="opacity:1.0;fill:#FFFFFF;stroke:none" width="304.0" height="200.0" x="0.0" y="0.0"> </rect>
<path class="bond-0 atom-0 atom-1" d="M 188.6,42.3 L 183.4,68.4" style="fill:none;fill-rule:evenodd;stroke:#000000;stroke-width:2.0px;stroke-linecap:butt;stroke-linejoin:miter;stroke-opacity:1"/>
<path class="bond-1 atom-1 atom-2" d="M 183.4,68.4 L 151.3,75.1" style="fill:none;fill-rule:evenodd;stroke:#000000;stroke-width:2.0px;stroke-linecap:butt;stroke-linejoin:miter;stroke-opacity:1"/>
<path class="bond-2 atom-2 atom-3" d="M 151.3,75.1 L 141.0,106.3" style="fill:none;fill-rule:evenodd;stroke:#000000;stroke-width:2.0px;stroke-linecap:butt;stroke-linejoin:miter;stroke-opacity:1"/>
<path class="bond-3 atom-3 atom-4" d="M 141.0,106.3 L 108.9,112.9" style="fill:none;fill-rule:evenodd;stroke:#000000;stroke-width:2.0px;stroke-linecap:butt;stroke-linejoin:miter;stroke-opacity:1"/>
<path class="bond-4 atom-4 atom-5" d="M 108.9,112.9 L 76.8,119.6" style="fill:none;fill-rule:evenodd;stroke:#000000;stroke-width:2.0px;stroke-linecap:butt;stroke-linejoin:miter;stroke-opacity:1"/>
<path class="bond-5 atom-4 atom-6" d="M 108.9,112.9 L 115.6,145.1" style="fill:none;fill-rule:evenodd;stroke:#000000;stroke-width:2.0px;stroke-linecap:butt;stroke-linejoin:miter;stroke-opacity:1"/>
<path class="bond-6 atom-6 atom-7" d="M 115.6,145.1 L 106.0,153.6" style="fill:none;fill-rule:evenodd;stroke:#000000;stroke-width:2.0px;stroke-linecap:butt;stroke-linejoin:miter;stroke-opacity:1"/>
<path class="bond-6 atom-6 atom-7" d="M 106.0,153.6 L 96.4,162.2" style="fill:none;fill-rule:evenodd;stroke:#FF0000;stroke-width:2.0px;stroke-linecap:butt;stroke-linejoin:miter;stroke-opacity:1"/>
<path class="bond-7 atom-4 atom-8" d="M 108.9,112.9 L 102.2,80.8" style="fill:none;fill-rule:evenodd;stroke:#000000;stroke-width:2.0px;stroke-linecap:butt;stroke-linejoin:miter;stroke-opacity:1"/>
<path class="bond-8 atom-8 atom-9" d="M 102.2,80.8 L 71.0,70.6" style="fill:none;fill-rule:evenodd;stroke:#000000;stroke-width:2.0px;stroke-linecap:butt;stroke-linejoin:miter;stroke-opacity:1"/>
<path class="bond-9 atom-9 atom-10" d="M 71.0,70.6 L 39.9,60.3" style="fill:none;fill-rule:evenodd;stroke:#000000;stroke-width:2.0px;stroke-linecap:butt;stroke-linejoin:miter;stroke-opacity:1"/>
<path class="bond-10 atom-9 atom-11" d="M 71.0,70.6 L 60.8,101.7" style="fill:none;fill-rule:evenodd;stroke:#000000;stroke-width:2.0px;stroke-linecap:butt;stroke-linejoin:miter;stroke-opacity:1"/>
<path class="bond-11 atom-11 atom-12" d="M 60.8,101.7 L 47.4,104.5" style="fill:none;fill-rule:evenodd;stroke:#000000;stroke-width:2.0px;stroke-linecap:butt;stroke-linejoin:miter;stroke-opacity:1"/>
<path class="bond-11 atom-11 atom-12" d="M 47.4,104.5 L 34.0,107.3" style="fill:none;fill-rule:evenodd;stroke:#FF0000;stroke-width:2.0px;stroke-linecap:butt;stroke-linejoin:miter;stroke-opacity:1"/>
<path class="bond-12 atom-9 atom-13" d="M 71.0,70.6 L 81.3,39.4" style="fill:none;fill-rule:evenodd;stroke:#000000;stroke-width:2.0px;stroke-linecap:butt;stroke-linejoin:miter;stroke-opacity:1"/>
<path class="bond-13 atom-13 atom-14" d="M 80.4,42.1 L 94.5,39.1" style="fill:none;fill-rule:evenodd;stroke:#000000;stroke-width:2.0px;stroke-linecap:butt;stroke-linejoin:miter;stroke-opacity:1"/>
<path class="bond-13 atom-13 atom-14" d="M 94.5,39.1 L 108.6,36.2" style="fill:none;fill-rule:evenodd;stroke:#FF0000;stroke-width:2.0px;stroke-linecap:butt;stroke-linejoin:miter;stroke-opacity:1"/>
<path class="bond-13 atom-13 atom-14" d="M 79.4,37.3 L 93.5,34.4" style="fill:none;fill-rule:evenodd;stroke:#000000;stroke-width:2.0px;stroke-linecap:butt;stroke-linejoin:miter;stroke-opacity:1"/>
<path class="bond-13 atom-13 atom-14" d="M 93.5,34.4 L 107.6,31.4" style="fill:none;fill-rule:evenodd;stroke:#FF0000;stroke-width:2.0px;stroke-linecap:butt;stroke-linejoin:miter;stroke-opacity:1"/>
<path class="bond-14 atom-13 atom-15" d="M 81.3,39.4 L 73.0,30.1" style="fill:none;fill-rule:evenodd;stroke:#000000;stroke-width:2.0px;stroke-linecap:butt;stroke-linejoin:miter;stroke-opacity:1"/>
<path class="bond-14 atom-13 atom-15" d="M 73.0,30.1 L 64.7,20.8" style="fill:none;fill-rule:evenodd;stroke:#FF0000;stroke-width:2.0px;stroke-linecap:butt;stroke-linejoin:miter;stroke-opacity:1"/>
<path class="bond-15 atom-1 atom-16" d="M 183.4,68.4 L 205.2,92.9" style="fill:none;fill-rule:evenodd;stroke:#000000;stroke-width:2.0px;stroke-linecap:butt;stroke-linejoin:miter;stroke-opacity:1"/>
<path class="bond-16 atom-16 atom-17" d="M 205.2,92.9 L 237.4,86.2" style="fill:none;fill-rule:evenodd;stroke:#000000;stroke-width:2.0px;stroke-linecap:butt;stroke-linejoin:miter;stroke-opacity:1"/>
<path class="bond-17 atom-17 atom-18" d="M 237.4,86.2 L 269.5,79.5" style="fill:none;fill-rule:evenodd;stroke:#000000;stroke-width:2.0px;stroke-linecap:butt;stroke-linejoin:miter;stroke-opacity:1"/>
<path class="bond-18 atom-17 atom-19" d="M 237.4,86.2 L 244.1,118.3" style="fill:none;fill-rule:evenodd;stroke:#000000;stroke-width:2.0px;stroke-linecap:butt;stroke-linejoin:miter;stroke-opacity:1"/>
<path class="bond-19 atom-19 atom-20" d="M 243.5,115.6 L 233.4,124.6" style="fill:none;fill-rule:evenodd;stroke:#000000;stroke-width:2.0px;stroke-linecap:butt;stroke-linejoin:miter;stroke-opacity:1"/>
<path class="bond-19 atom-19 atom-20" d="M 233.4,124.6 L 223.3,133.6" style="fill:none;fill-rule:evenodd;stroke:#FF0000;stroke-width:2.0px;stroke-linecap:butt;stroke-linejoin:miter;stroke-opacity:1"/>
<path class="bond-19 atom-19 atom-20" d="M 246.7,119.2 L 236.6,128.2" style="fill:none;fill-rule:evenodd;stroke:#000000;stroke-width:2.0px;stroke-linecap:butt;stroke-linejoin:miter;stroke-opacity:1"/>
<path class="bond-19 atom-19 atom-20" d="M 236.6,128.2 L 226.5,137.2" style="fill:none;fill-rule:evenodd;stroke:#FF0000;stroke-width:2.0px;stroke-linecap:butt;stroke-linejoin:miter;stroke-opacity:1"/>
<path class="bond-20 atom-19 atom-21" d="M 244.1,118.3 L 257.0,122.6" style="fill:none;fill-rule:evenodd;stroke:#000000;stroke-width:2.0px;stroke-linecap:butt;stroke-linejoin:miter;stroke-opacity:1"/>
<path class="bond-20 atom-19 atom-21" d="M 257.0,122.6 L 269.9,126.8" style="fill:none;fill-rule:evenodd;stroke:#FF0000;stroke-width:2.0px;stroke-linecap:butt;stroke-linejoin:miter;stroke-opacity:1"/>
<path class="bond-21 atom-17 atom-22" d="M 237.4,86.2 L 230.7,54.1" style="fill:none;fill-rule:evenodd;stroke:#000000;stroke-width:2.0px;stroke-linecap:butt;stroke-linejoin:miter;stroke-opacity:1"/>
<path class="bond-22 atom-22 atom-23" d="M 230.7,54.1 L 255.1,32.2" style="fill:none;fill-rule:evenodd;stroke:#000000;stroke-width:2.0px;stroke-linecap:butt;stroke-linejoin:miter;stroke-opacity:1"/>
<path class="bond-23 atom-22 atom-24" d="M 230.7,54.1 L 221.3,49.7" style="fill:none;fill-rule:evenodd;stroke:#000000;stroke-width:2.0px;stroke-linecap:butt;stroke-linejoin:miter;stroke-opacity:1"/>
<path class="bond-23 atom-22 atom-24" d="M 221.3,49.7 L 212.0,45.2" style="fill:none;fill-rule:evenodd;stroke:#FF0000;stroke-width:2.0px;stroke-linecap:butt;stroke-linejoin:miter;stroke-opacity:1"/>
<path d="M 152.9,74.8 L 151.3,75.1 L 150.8,76.7" style="fill:none;stroke:#000000;stroke-width:2.0px;stroke-linecap:butt;stroke-linejoin:miter;stroke-opacity:1;"/>
<path d="M 141.5,104.7 L 141.0,106.3 L 139.4,106.6" style="fill:none;stroke:#000000;stroke-width:2.0px;stroke-linecap:butt;stroke-linejoin:miter;stroke-opacity:1;"/>
<path d="M 115.2,143.5 L 115.6,145.1 L 115.1,145.5" style="fill:none;stroke:#000000;stroke-width:2.0px;stroke-linecap:butt;stroke-linejoin:miter;stroke-opacity:1;"/>
<path d="M 102.5,82.4 L 102.2,80.8 L 100.6,80.3" style="fill:none;stroke:#000000;stroke-width:2.0px;stroke-linecap:butt;stroke-linejoin:miter;stroke-opacity:1;"/>
<path d="M 61.3,100.2 L 60.8,101.7 L 60.1,101.9" style="fill:none;stroke:#000000;stroke-width:2.0px;stroke-linecap:butt;stroke-linejoin:miter;stroke-opacity:1;"/>
<path d="M 80.8,41.0 L 81.3,39.4 L 80.9,38.9" style="fill:none;stroke:#000000;stroke-width:2.0px;stroke-linecap:butt;stroke-linejoin:miter;stroke-opacity:1;"/>
<path d="M 204.1,91.6 L 205.2,92.9 L 206.8,92.5" style="fill:none;stroke:#000000;stroke-width:2.0px;stroke-linecap:butt;stroke-linejoin:miter;stroke-opacity:1;"/>
<path d="M 243.7,116.7 L 244.1,118.3 L 244.7,118.5" style="fill:none;stroke:#000000;stroke-width:2.0px;stroke-linecap:butt;stroke-linejoin:miter;stroke-opacity:1;"/>
<path class="atom-7" d="M 77.7 162.3 L 78.9 162.3 L 78.9 166.3 L 83.7 166.3 L 83.7 162.3 L 84.9 162.3 L 84.9 171.6 L 83.7 171.6 L 83.7 167.3 L 78.9 167.3 L 78.9 171.6 L 77.7 171.6 L 77.7 162.3 " fill="#FF0000"/>
<path class="atom-7" d="M 86.8 167.0 Q 86.8 164.7, 87.9 163.5 Q 89.0 162.2, 91.1 162.2 Q 93.2 162.2, 94.3 163.5 Q 95.4 164.7, 95.4 167.0 Q 95.4 169.2, 94.3 170.5 Q 93.1 171.8, 91.1 171.8 Q 89.1 171.8, 87.9 170.5 Q 86.8 169.2, 86.8 167.0 M 91.1 170.7 Q 92.5 170.7, 93.3 169.8 Q 94.1 168.8, 94.1 167.0 Q 94.1 165.1, 93.3 164.2 Q 92.5 163.3, 91.1 163.3 Q 89.7 163.3, 88.9 164.2 Q 88.1 165.1, 88.1 167.0 Q 88.1 168.8, 88.9 169.8 Q 89.7 170.7, 91.1 170.7 " fill="#FF0000"/>
<path class="atom-12" d="M 15.2 103.8 L 16.5 103.8 L 16.5 107.8 L 21.2 107.8 L 21.2 103.8 L 22.5 103.8 L 22.5 113.1 L 21.2 113.1 L 21.2 108.8 L 16.5 108.8 L 16.5 113.1 L 15.2 113.1 L 15.2 103.8 " fill="#FF0000"/>
<path class="atom-12" d="M 24.4 108.4 Q 24.4 106.2, 25.5 105.0 Q 26.6 103.7, 28.6 103.7 Q 30.7 103.7, 31.8 105.0 Q 32.9 106.2, 32.9 108.4 Q 32.9 110.7, 31.8 112.0 Q 30.7 113.3, 28.6 113.3 Q 26.6 113.3, 25.5 112.0 Q 24.4 110.7, 24.4 108.4 M 28.6 112.2 Q 30.1 112.2, 30.8 111.3 Q 31.6 110.3, 31.6 108.4 Q 31.6 106.6, 30.8 105.7 Q 30.1 104.8, 28.6 104.8 Q 27.2 104.8, 26.4 105.7 Q 25.7 106.6, 25.7 108.4 Q 25.7 110.3, 26.4 111.3 Q 27.2 112.2, 28.6 112.2 " fill="#FF0000"/>
<path class="atom-14" d="M 109.1 32.7 Q 109.1 30.5, 110.2 29.3 Q 111.4 28.0, 113.4 28.0 Q 115.5 28.0, 116.6 29.3 Q 117.7 30.5, 117.7 32.7 Q 117.7 35.0, 116.6 36.3 Q 115.4 37.6, 113.4 37.6 Q 111.4 37.6, 110.2 36.3 Q 109.1 35.0, 109.1 32.7 M 113.4 36.5 Q 114.8 36.5, 115.6 35.6 Q 116.4 34.6, 116.4 32.7 Q 116.4 30.9, 115.6 30.0 Q 114.8 29.1, 113.4 29.1 Q 112.0 29.1, 111.2 30.0 Q 110.5 30.9, 110.5 32.7 Q 110.5 34.6, 111.2 35.6 Q 112.0 36.5, 113.4 36.5 " fill="#FF0000"/>
<path class="atom-15" d="M 46.0 10.3 L 47.3 10.3 L 47.3 14.3 L 52.0 14.3 L 52.0 10.3 L 53.3 10.3 L 53.3 19.6 L 52.0 19.6 L 52.0 15.3 L 47.3 15.3 L 47.3 19.6 L 46.0 19.6 L 46.0 10.3 " fill="#FF0000"/>
<path class="atom-15" d="M 55.2 15.0 Q 55.2 12.7, 56.3 11.5 Q 57.4 10.2, 59.4 10.2 Q 61.5 10.2, 62.6 11.5 Q 63.7 12.7, 63.7 15.0 Q 63.7 17.2, 62.6 18.5 Q 61.5 19.8, 59.4 19.8 Q 57.4 19.8, 56.3 18.5 Q 55.2 17.2, 55.2 15.0 M 59.4 18.7 Q 60.9 18.7, 61.6 17.8 Q 62.4 16.8, 62.4 15.0 Q 62.4 13.1, 61.6 12.2 Q 60.9 11.3, 59.4 11.3 Q 58.0 11.3, 57.2 12.2 Q 56.5 13.1, 56.5 15.0 Q 56.5 16.8, 57.2 17.8 Q 58.0 18.7, 59.4 18.7 " fill="#FF0000"/>
<path class="atom-20" d="M 215.3 140.2 Q 215.3 138.0, 216.4 136.7 Q 217.5 135.5, 219.6 135.5 Q 221.6 135.5, 222.7 136.7 Q 223.8 138.0, 223.8 140.2 Q 223.8 142.4, 222.7 143.7 Q 221.6 145.0, 219.6 145.0 Q 217.5 145.0, 216.4 143.7 Q 215.3 142.5, 215.3 140.2 M 219.6 143.9 Q 221.0 143.9, 221.8 143.0 Q 222.5 142.0, 222.5 140.2 Q 222.5 138.4, 221.8 137.4 Q 221.0 136.5, 219.6 136.5 Q 218.2 136.5, 217.4 137.4 Q 216.6 138.3, 216.6 140.2 Q 216.6 142.1, 217.4 143.0 Q 218.2 143.9, 219.6 143.9 " fill="#FF0000"/>
<path class="atom-21" d="M 271.0 128.6 Q 271.0 126.4, 272.1 125.1 Q 273.2 123.9, 275.2 123.9 Q 277.3 123.9, 278.4 125.1 Q 279.5 126.4, 279.5 128.6 Q 279.5 130.8, 278.4 132.1 Q 277.3 133.4, 275.2 133.4 Q 273.2 133.4, 272.1 132.1 Q 271.0 130.9, 271.0 128.6 M 275.2 132.4 Q 276.6 132.4, 277.4 131.4 Q 278.2 130.5, 278.2 128.6 Q 278.2 126.8, 277.4 125.8 Q 276.6 124.9, 275.2 124.9 Q 273.8 124.9, 273.0 125.8 Q 272.3 126.8, 272.3 128.6 Q 272.3 130.5, 273.0 131.4 Q 273.8 132.4, 275.2 132.4 " fill="#FF0000"/>
<path class="atom-21" d="M 280.9 124.0 L 282.2 124.0 L 282.2 127.9 L 286.9 127.9 L 286.9 124.0 L 288.2 124.0 L 288.2 133.3 L 286.9 133.3 L 286.9 129.0 L 282.2 129.0 L 282.2 133.3 L 280.9 133.3 L 280.9 124.0 " fill="#FF0000"/>
<path class="atom-24" d="M 193.2 38.1 L 194.4 38.1 L 194.4 42.1 L 199.2 42.1 L 199.2 38.1 L 200.5 38.1 L 200.5 47.4 L 199.2 47.4 L 199.2 43.1 L 194.4 43.1 L 194.4 47.4 L 193.2 47.4 L 193.2 38.1 " fill="#FF0000"/>
<path class="atom-24" d="M 202.4 42.8 Q 202.4 40.5, 203.5 39.3 Q 204.6 38.0, 206.6 38.0 Q 208.7 38.0, 209.8 39.3 Q 210.9 40.5, 210.9 42.8 Q 210.9 45.0, 209.8 46.3 Q 208.7 47.6, 206.6 47.6 Q 204.6 47.6, 203.5 46.3 Q 202.4 45.0, 202.4 42.8 M 206.6 46.5 Q 208.0 46.5, 208.8 45.6 Q 209.6 44.6, 209.6 42.8 Q 209.6 40.9, 208.8 40.0 Q 208.0 39.1, 206.6 39.1 Q 205.2 39.1, 204.4 40.0 Q 203.7 40.9, 203.7 42.8 Q 203.7 44.6, 204.4 45.6 Q 205.2 46.5, 206.6 46.5 " fill="#FF0000"/>
<path class="legend" d="M 142.7 181.9 Q 142.7 179.6, 143.4 177.7 Q 144.0 175.8, 145.3 173.8 L 146.2 174.4 Q 145.2 176.3, 144.6 178.0 Q 144.1 179.7, 144.1 181.9 Q 144.1 184.0, 144.6 185.8 Q 145.2 187.5, 146.2 189.4 L 145.3 190.0 Q 144.0 188.0, 143.4 186.1 Q 142.7 184.2, 142.7 181.9 " fill="#000000"/>
<path class="legend" d="M 147.1 177.3 Q 147.6 176.2, 148.5 175.6 Q 149.5 175.0, 150.9 175.0 Q 152.6 175.0, 153.6 175.9 Q 154.5 176.8, 154.5 178.5 Q 154.5 180.2, 153.3 181.7 Q 152.1 183.3, 149.5 185.2 L 154.7 185.2 L 154.7 186.4 L 147.1 186.4 L 147.1 185.4 Q 149.2 183.9, 150.5 182.8 Q 151.7 181.6, 152.3 180.6 Q 152.9 179.6, 152.9 178.6 Q 152.9 177.5, 152.4 176.9 Q 151.9 176.3, 150.9 176.3 Q 150.0 176.3, 149.4 176.6 Q 148.8 177.0, 148.4 177.8 L 147.1 177.3 " fill="#000000"/>
<path class="legend" d="M 159.7 181.9 Q 159.7 184.2, 159.0 186.1 Q 158.4 188.0, 157.1 190.0 L 156.2 189.4 Q 157.2 187.5, 157.7 185.8 Q 158.3 184.0, 158.3 181.9 Q 158.3 179.7, 157.7 178.0 Q 157.2 176.3, 156.2 174.4 L 157.1 173.8 Q 158.4 175.8, 159.0 177.7 Q 159.7 179.6, 159.7 181.9 " fill="#000000"/>
</g>
    <g transform="translate(304.0, 0) scale(1 1) "><line x1="5" y1="100" x2="35" y2="100" style="stroke:rgb(0,0,0);stroke-width:2"/>
  <line x1="34" y1="100" x2="29" y2="95" style="stroke:rgb(0,0,0);stroke-width:2"/>
  <line x1="34" y1="100" x2="29" y2="105" style="stroke:rgb(0,0,0);stroke-width:2"/>
</g>
    <g transform="translate(344.0, 0) scale(1 1) "><!-- END OF HEADER -->
<rect style="opacity:1.0;fill:#FFFFFF;stroke:none" width="347.0" height="200.0" x="0.0" y="0.0"> </rect>
<path class="bond-0 atom-0 atom-1" d="M 117.1,60.2 L 134.6,68.9" style="fill:none;fill-rule:evenodd;stroke:#000000;stroke-width:2.0px;stroke-linecap:butt;stroke-linejoin:miter;stroke-opacity:1"/>
<path class="bond-1 atom-1 atom-2" d="M 134.6,68.9 L 133.1,93.0" style="fill:none;fill-rule:evenodd;stroke:#000000;stroke-width:2.0px;stroke-linecap:butt;stroke-linejoin:miter;stroke-opacity:1"/>
<path class="bond-2 atom-2 atom-3" d="M 133.1,93.0 L 153.2,106.3" style="fill:none;fill-rule:evenodd;stroke:#000000;stroke-width:2.0px;stroke-linecap:butt;stroke-linejoin:miter;stroke-opacity:1"/>
<path class="bond-3 atom-3 atom-4" d="M 153.2,106.3 L 151.7,130.4" style="fill:none;fill-rule:evenodd;stroke:#000000;stroke-width:2.0px;stroke-linecap:butt;stroke-linejoin:miter;stroke-opacity:1"/>
<path class="bond-4 atom-4 atom-5" d="M 151.7,130.4 L 150.2,154.5" style="fill:none;fill-rule:evenodd;stroke:#000000;stroke-width:2.0px;stroke-linecap:butt;stroke-linejoin:miter;stroke-opacity:1"/>
<path class="bond-5 atom-4 atom-6" d="M 151.7,130.4 L 175.8,131.9" style="fill:none;fill-rule:evenodd;stroke:#000000;stroke-width:2.0px;stroke-linecap:butt;stroke-linejoin:miter;stroke-opacity:1"/>
<path class="bond-6 atom-6 atom-7" d="M 175.8,131.9 L 180.1,140.6" style="fill:none;fill-rule:evenodd;stroke:#000000;stroke-width:2.0px;stroke-linecap:butt;stroke-linejoin:miter;stroke-opacity:1"/>
<path class="bond-6 atom-6 atom-7" d="M 180.1,140.6 L 184.4,149.3" style="fill:none;fill-rule:evenodd;stroke:#FF0000;stroke-width:2.0px;stroke-linecap:butt;stroke-linejoin:miter;stroke-opacity:1"/>
<path class="bond-7 atom-4 atom-8" d="M 151.7,130.4 L 127.6,128.9" style="fill:none;fill-rule:evenodd;stroke:#000000;stroke-width:2.0px;stroke-linecap:butt;stroke-linejoin:miter;stroke-opacity:1"/>
<path class="bond-8 atom-8 atom-9" d="M 127.6,128.9 L 114.3,149.0" style="fill:none;fill-rule:evenodd;stroke:#000000;stroke-width:2.0px;stroke-linecap:butt;stroke-linejoin:miter;stroke-opacity:1"/>
<path class="bond-9 atom-9 atom-10" d="M 114.3,149.0 L 100.9,169.1" style="fill:none;fill-rule:evenodd;stroke:#000000;stroke-width:2.0px;stroke-linecap:butt;stroke-linejoin:miter;stroke-opacity:1"/>
<path class="bond-10 atom-9 atom-11" d="M 114.3,149.0 L 134.4,162.4" style="fill:none;fill-rule:evenodd;stroke:#000000;stroke-width:2.0px;stroke-linecap:butt;stroke-linejoin:miter;stroke-opacity:1"/>
<path class="bond-11 atom-11 atom-12" d="M 134.4,162.4 L 133.8,172.3" style="fill:none;fill-rule:evenodd;stroke:#000000;stroke-width:2.0px;stroke-linecap:butt;stroke-linejoin:miter;stroke-opacity:1"/>
<path class="bond-11 atom-11 atom-12" d="M 133.8,172.3 L 133.1,182.2" style="fill:none;fill-rule:evenodd;stroke:#FF0000;stroke-width:2.0px;stroke-linecap:butt;stroke-linejoin:miter;stroke-opacity:1"/>
<path class="bond-12 atom-9 atom-13" d="M 114.3,149.0 L 94.2,135.7" style="fill:none;fill-rule:evenodd;stroke:#000000;stroke-width:2.0px;stroke-linecap:butt;stroke-linejoin:miter;stroke-opacity:1"/>
<path class="bond-13 atom-13 atom-14" d="M 95.9,136.8 L 96.5,126.4" style="fill:none;fill-rule:evenodd;stroke:#000000;stroke-width:2.0px;stroke-linecap:butt;stroke-linejoin:miter;stroke-opacity:1"/>
<path class="bond-13 atom-13 atom-14" d="M 96.5,126.4 L 97.2,116.0" style="fill:none;fill-rule:evenodd;stroke:#FF0000;stroke-width:2.0px;stroke-linecap:butt;stroke-linejoin:miter;stroke-opacity:1"/>
<path class="bond-13 atom-13 atom-14" d="M 92.3,136.6 L 93.0,126.2" style="fill:none;fill-rule:evenodd;stroke:#000000;stroke-width:2.0px;stroke-linecap:butt;stroke-linejoin:miter;stroke-opacity:1"/>
<path class="bond-13 atom-13 atom-14" d="M 93.0,126.2 L 93.6,115.8" style="fill:none;fill-rule:evenodd;stroke:#FF0000;stroke-width:2.0px;stroke-linecap:butt;stroke-linejoin:miter;stroke-opacity:1"/>
<path class="bond-14 atom-13 atom-15" d="M 94.2,135.7 L 85.3,140.1" style="fill:none;fill-rule:evenodd;stroke:#000000;stroke-width:2.0px;stroke-linecap:butt;stroke-linejoin:miter;stroke-opacity:1"/>
<path class="bond-14 atom-13 atom-15" d="M 85.3,140.1 L 76.5,144.5" style="fill:none;fill-rule:evenodd;stroke:#FF0000;stroke-width:2.0px;stroke-linecap:butt;stroke-linejoin:miter;stroke-opacity:1"/>
<path class="bond-15 atom-1 atom-16" d="M 134.6,68.9 L 156.2,58.2" style="fill:none;fill-rule:evenodd;stroke:#000000;stroke-width:2.0px;stroke-linecap:butt;stroke-linejoin:miter;stroke-opacity:1"/>
<path class="bond-16 atom-16 atom-17" d="M 156.2,58.2 L 176.3,71.5" style="fill:none;fill-rule:evenodd;stroke:#000000;stroke-width:2.0px;stroke-linecap:butt;stroke-linejoin:miter;stroke-opacity:1"/>
<path class="bond-17 atom-17 atom-18" d="M 176.3,71.5 L 194.8,65.0" style="fill:none;fill-rule:evenodd;stroke:#000000;stroke-width:2.0px;stroke-linecap:butt;stroke-linejoin:miter;stroke-opacity:1"/>
<path class="bond-18 atom-17 atom-19" d="M 176.3,71.5 L 174.8,95.6" style="fill:none;fill-rule:evenodd;stroke:#000000;stroke-width:2.0px;stroke-linecap:butt;stroke-linejoin:miter;stroke-opacity:1"/>
<path class="bond-19 atom-19 atom-20" d="M 174.8,95.6 L 194.9,108.9" style="fill:none;fill-rule:evenodd;stroke:#000000;stroke-width:2.0px;stroke-linecap:butt;stroke-linejoin:miter;stroke-opacity:1"/>
<path class="bond-20 atom-20 atom-21" d="M 194.9,108.9 L 216.5,98.2" style="fill:none;fill-rule:evenodd;stroke:#000000;stroke-width:2.0px;stroke-linecap:butt;stroke-linejoin:miter;stroke-opacity:1"/>
<path class="bond-21 atom-21 atom-22" d="M 216.5,98.2 L 238.1,87.5" style="fill:none;fill-rule:evenodd;stroke:#000000;stroke-width:2.0px;stroke-linecap:butt;stroke-linejoin:miter;stroke-opacity:1"/>
<path class="bond-22 atom-21 atom-23" d="M 216.5,98.2 L 205.8,76.6" style="fill:none;fill-rule:evenodd;stroke:#000000;stroke-width:2.0px;stroke-linecap:butt;stroke-linejoin:miter;stroke-opacity:1"/>
<path class="bond-23 atom-23 atom-24" d="M 205.8,76.6 L 211.0,68.7" style="fill:none;fill-rule:evenodd;stroke:#000000;stroke-width:2.0px;stroke-linecap:butt;stroke-linejoin:miter;stroke-opacity:1"/>
<path class="bond-23 atom-23 atom-24" d="M 211.0,68.7 L 216.3,60.8" style="fill:none;fill-rule:evenodd;stroke:#FF0000;stroke-width:2.0px;stroke-linecap:butt;stroke-linejoin:miter;stroke-opacity:1"/>
<path class="bond-24 atom-21 atom-25" d="M 216.5,98.2 L 227.3,119.8" style="fill:none;fill-rule:evenodd;stroke:#000000;stroke-width:2.0px;stroke-linecap:butt;stroke-linejoin:miter;stroke-opacity:1"/>
<path class="bond-25 atom-25 atom-26" d="M 227.3,119.8 L 251.4,121.3" style="fill:none;fill-rule:evenodd;stroke:#000000;stroke-width:2.0px;stroke-linecap:butt;stroke-linejoin:miter;stroke-opacity:1"/>
<path class="bond-26 atom-26 atom-27" d="M 251.4,121.3 L 275.4,122.8" style="fill:none;fill-rule:evenodd;stroke:#000000;stroke-width:2.0px;stroke-linecap:butt;stroke-linejoin:miter;stroke-opacity:1"/>
<path class="bond-27 atom-26 atom-28" d="M 251.4,121.3 L 252.9,97.2" style="fill:none;fill-rule:evenodd;stroke:#000000;stroke-width:2.0px;stroke-linecap:butt;stroke-linejoin:miter;stroke-opacity:1"/>
<path class="bond-28 atom-28 atom-29" d="M 252.9,97.2 L 261.7,92.8" style="fill:none;fill-rule:evenodd;stroke:#000000;stroke-width:2.0px;stroke-linecap:butt;stroke-linejoin:miter;stroke-opacity:1"/>
<path class="bond-28 atom-28 atom-29" d="M 261.7,92.8 L 270.6,88.5" style="fill:none;fill-rule:evenodd;stroke:#FF0000;stroke-width:2.0px;stroke-linecap:butt;stroke-linejoin:miter;stroke-opacity:1"/>
<path class="bond-29 atom-26 atom-30" d="M 251.4,121.3 L 249.8,145.4" style="fill:none;fill-rule:evenodd;stroke:#000000;stroke-width:2.0px;stroke-linecap:butt;stroke-linejoin:miter;stroke-opacity:1"/>
<path class="bond-30 atom-30 atom-31" d="M 250.0,143.4 L 240.7,148.0" style="fill:none;fill-rule:evenodd;stroke:#000000;stroke-width:2.0px;stroke-linecap:butt;stroke-linejoin:miter;stroke-opacity:1"/>
<path class="bond-30 atom-30 atom-31" d="M 240.7,148.0 L 231.4,152.6" style="fill:none;fill-rule:evenodd;stroke:#FF0000;stroke-width:2.0px;stroke-linecap:butt;stroke-linejoin:miter;stroke-opacity:1"/>
<path class="bond-30 atom-30 atom-31" d="M 251.6,146.5 L 242.3,151.2" style="fill:none;fill-rule:evenodd;stroke:#000000;stroke-width:2.0px;stroke-linecap:butt;stroke-linejoin:miter;stroke-opacity:1"/>
<path class="bond-30 atom-30 atom-31" d="M 242.3,151.2 L 232.9,155.8" style="fill:none;fill-rule:evenodd;stroke:#FF0000;stroke-width:2.0px;stroke-linecap:butt;stroke-linejoin:miter;stroke-opacity:1"/>
<path class="bond-31 atom-30 atom-32" d="M 249.8,145.4 L 257.9,150.8" style="fill:none;fill-rule:evenodd;stroke:#000000;stroke-width:2.0px;stroke-linecap:butt;stroke-linejoin:miter;stroke-opacity:1"/>
<path class="bond-31 atom-30 atom-32" d="M 257.9,150.8 L 266.0,156.2" style="fill:none;fill-rule:evenodd;stroke:#FF0000;stroke-width:2.0px;stroke-linecap:butt;stroke-linejoin:miter;stroke-opacity:1"/>
<path class="bond-32 atom-16 atom-33" d="M 156.2,58.2 L 157.7,34.1" style="fill:none;fill-rule:evenodd;stroke:#000000;stroke-width:2.0px;stroke-linecap:butt;stroke-linejoin:miter;stroke-opacity:1"/>
<path class="bond-33 atom-33 atom-34" d="M 157.7,34.1 L 159.2,10.0" style="fill:none;fill-rule:evenodd;stroke:#000000;stroke-width:2.0px;stroke-linecap:butt;stroke-linejoin:miter;stroke-opacity:1"/>
<path class="bond-34 atom-33 atom-35" d="M 157.7,34.1 L 181.8,35.6" style="fill:none;fill-rule:evenodd;stroke:#000000;stroke-width:2.0px;stroke-linecap:butt;stroke-linejoin:miter;stroke-opacity:1"/>
<path class="bond-35 atom-35 atom-36" d="M 182.9,37.2 L 188.3,29.0" style="fill:none;fill-rule:evenodd;stroke:#000000;stroke-width:2.0px;stroke-linecap:butt;stroke-linejoin:miter;stroke-opacity:1"/>
<path class="bond-35 atom-35 atom-36" d="M 188.3,29.0 L 193.8,20.8" style="fill:none;fill-rule:evenodd;stroke:#FF0000;stroke-width:2.0px;stroke-linecap:butt;stroke-linejoin:miter;stroke-opacity:1"/>
<path class="bond-35 atom-35 atom-36" d="M 179.8,35.5 L 185.4,27.0" style="fill:none;fill-rule:evenodd;stroke:#000000;stroke-width:2.0px;stroke-linecap:butt;stroke-linejoin:miter;stroke-opacity:1"/>
<path class="bond-35 atom-35 atom-36" d="M 185.4,27.0 L 190.8,18.8" style="fill:none;fill-rule:evenodd;stroke:#FF0000;stroke-width:2.0px;stroke-linecap:butt;stroke-linejoin:miter;stroke-opacity:1"/>
<path class="bond-36 atom-35 atom-37" d="M 181.8,35.6 L 185.8,41.6" style="fill:none;fill-rule:evenodd;stroke:#000000;stroke-width:2.0px;stroke-linecap:butt;stroke-linejoin:miter;stroke-opacity:1"/>
<path class="bond-36 atom-35 atom-37" d="M 185.8,41.6 L 189.8,47.7" style="fill:none;fill-rule:evenodd;stroke:#FF0000;stroke-width:2.0px;stroke-linecap:butt;stroke-linejoin:miter;stroke-opacity:1"/>
<path class="bond-37 atom-33 atom-38" d="M 157.7,34.1 L 133.7,32.6" style="fill:none;fill-rule:evenodd;stroke:#000000;stroke-width:2.0px;stroke-linecap:butt;stroke-linejoin:miter;stroke-opacity:1"/>
<path class="bond-38 atom-38 atom-39" d="M 133.7,32.6 L 122.9,11.0" style="fill:none;fill-rule:evenodd;stroke:#000000;stroke-width:2.0px;stroke-linecap:butt;stroke-linejoin:miter;stroke-opacity:1"/>
<path class="bond-39 atom-38 atom-40" d="M 133.7,32.6 L 129.1,37.9" style="fill:none;fill-rule:evenodd;stroke:#000000;stroke-width:2.0px;stroke-linecap:butt;stroke-linejoin:miter;stroke-opacity:1"/>
<path class="bond-39 atom-38 atom-40" d="M 129.1,37.9 L 124.6,43.2" style="fill:none;fill-rule:evenodd;stroke:#FF0000;stroke-width:2.0px;stroke-linecap:butt;stroke-linejoin:miter;stroke-opacity:1"/>
<path d="M 133.2,91.8 L 133.1,93.0 L 134.1,93.7" style="fill:none;stroke:#000000;stroke-width:2.0px;stroke-linecap:butt;stroke-linejoin:miter;stroke-opacity:1;"/>
<path d="M 152.2,105.7 L 153.2,106.3 L 153.1,107.5" style="fill:none;stroke:#000000;stroke-width:2.0px;stroke-linecap:butt;stroke-linejoin:miter;stroke-opacity:1;"/>
<path d="M 174.6,131.8 L 175.8,131.9 L 176.0,132.4" style="fill:none;stroke:#000000;stroke-width:2.0px;stroke-linecap:butt;stroke-linejoin:miter;stroke-opacity:1;"/>
<path d="M 128.8,129.0 L 127.6,128.9 L 127.0,129.9" style="fill:none;stroke:#000000;stroke-width:2.0px;stroke-linecap:butt;stroke-linejoin:miter;stroke-opacity:1;"/>
<path d="M 133.4,161.7 L 134.4,162.4 L 134.3,162.9" style="fill:none;stroke:#000000;stroke-width:2.0px;stroke-linecap:butt;stroke-linejoin:miter;stroke-opacity:1;"/>
<path d="M 95.2,136.3 L 94.2,135.7 L 93.7,135.9" style="fill:none;stroke:#000000;stroke-width:2.0px;stroke-linecap:butt;stroke-linejoin:miter;stroke-opacity:1;"/>
<path d="M 174.9,94.4 L 174.8,95.6 L 175.8,96.3" style="fill:none;stroke:#000000;stroke-width:2.0px;stroke-linecap:butt;stroke-linejoin:miter;stroke-opacity:1;"/>
<path d="M 193.9,108.3 L 194.9,108.9 L 196.0,108.4" style="fill:none;stroke:#000000;stroke-width:2.0px;stroke-linecap:butt;stroke-linejoin:miter;stroke-opacity:1;"/>
<path d="M 206.3,77.7 L 205.8,76.6 L 206.1,76.2" style="fill:none;stroke:#000000;stroke-width:2.0px;stroke-linecap:butt;stroke-linejoin:miter;stroke-opacity:1;"/>
<path d="M 226.7,118.7 L 227.3,119.8 L 228.5,119.9" style="fill:none;stroke:#000000;stroke-width:2.0px;stroke-linecap:butt;stroke-linejoin:miter;stroke-opacity:1;"/>
<path d="M 252.8,98.4 L 252.9,97.2 L 253.3,97.0" style="fill:none;stroke:#000000;stroke-width:2.0px;stroke-linecap:butt;stroke-linejoin:miter;stroke-opacity:1;"/>
<path d="M 249.9,144.2 L 249.8,145.4 L 250.3,145.7" style="fill:none;stroke:#000000;stroke-width:2.0px;stroke-linecap:butt;stroke-linejoin:miter;stroke-opacity:1;"/>
<path d="M 180.6,35.5 L 181.8,35.6 L 182.0,35.9" style="fill:none;stroke:#000000;stroke-width:2.0px;stroke-linecap:butt;stroke-linejoin:miter;stroke-opacity:1;"/>
<path class="atom-7" d="M 183.4 153.6 Q 183.4 151.9, 184.2 151.0 Q 185.0 150.1, 186.5 150.1 Q 188.0 150.1, 188.9 151.0 Q 189.7 151.9, 189.7 153.6 Q 189.7 155.2, 188.8 156.2 Q 188.0 157.1, 186.5 157.1 Q 185.0 157.1, 184.2 156.2 Q 183.4 155.2, 183.4 153.6 M 186.5 156.3 Q 187.6 156.3, 188.1 155.6 Q 188.7 154.9, 188.7 153.6 Q 188.7 152.2, 188.1 151.5 Q 187.6 150.8, 186.5 150.8 Q 185.5 150.8, 184.9 151.5 Q 184.4 152.2, 184.4 153.6 Q 184.4 154.9, 184.9 155.6 Q 185.5 156.3, 186.5 156.3 " fill="#FF0000"/>
<path class="atom-7" d="M 190.7 150.2 L 191.7 150.2 L 191.7 153.1 L 195.1 153.1 L 195.1 150.2 L 196.1 150.2 L 196.1 157.0 L 195.1 157.0 L 195.1 153.8 L 191.7 153.8 L 191.7 157.0 L 190.7 157.0 L 190.7 150.2 " fill="#FF0000"/>
<path class="atom-12" d="M 129.7 186.5 Q 129.7 184.8, 130.5 183.9 Q 131.4 183.0, 132.9 183.0 Q 134.4 183.0, 135.2 183.9 Q 136.0 184.8, 136.0 186.5 Q 136.0 188.1, 135.2 189.1 Q 134.4 190.0, 132.9 190.0 Q 131.4 190.0, 130.5 189.1 Q 129.7 188.1, 129.7 186.5 M 132.9 189.2 Q 133.9 189.2, 134.5 188.5 Q 135.0 187.8, 135.0 186.5 Q 135.0 185.1, 134.5 184.4 Q 133.9 183.8, 132.9 183.8 Q 131.8 183.8, 131.3 184.4 Q 130.7 185.1, 130.7 186.5 Q 130.7 187.8, 131.3 188.5 Q 131.8 189.2, 132.9 189.2 " fill="#FF0000"/>
<path class="atom-12" d="M 137.1 183.1 L 138.0 183.1 L 138.0 186.0 L 141.5 186.0 L 141.5 183.1 L 142.4 183.1 L 142.4 189.9 L 141.5 189.9 L 141.5 186.7 L 138.0 186.7 L 138.0 189.9 L 137.1 189.9 L 137.1 183.1 " fill="#FF0000"/>
<path class="atom-14" d="M 92.5 111.6 Q 92.5 110.0, 93.4 109.0 Q 94.2 108.1, 95.7 108.1 Q 97.2 108.1, 98.0 109.0 Q 98.8 110.0, 98.8 111.6 Q 98.8 113.3, 98.0 114.2 Q 97.2 115.1, 95.7 115.1 Q 94.2 115.1, 93.4 114.2 Q 92.5 113.3, 92.5 111.6 M 95.7 114.4 Q 96.7 114.4, 97.3 113.7 Q 97.9 113.0, 97.9 111.6 Q 97.9 110.3, 97.3 109.6 Q 96.7 108.9, 95.7 108.9 Q 94.6 108.9, 94.1 109.6 Q 93.5 110.2, 93.5 111.6 Q 93.5 113.0, 94.1 113.7 Q 94.6 114.4, 95.7 114.4 " fill="#FF0000"/>
<path class="atom-15" d="M 62.7 143.0 L 63.6 143.0 L 63.6 145.9 L 67.1 145.9 L 67.1 143.0 L 68.0 143.0 L 68.0 149.9 L 67.1 149.9 L 67.1 146.7 L 63.6 146.7 L 63.6 149.9 L 62.7 149.9 L 62.7 143.0 " fill="#FF0000"/>
<path class="atom-15" d="M 69.4 146.4 Q 69.4 144.8, 70.2 143.9 Q 71.0 142.9, 72.6 142.9 Q 74.1 142.9, 74.9 143.9 Q 75.7 144.8, 75.7 146.4 Q 75.7 148.1, 74.9 149.0 Q 74.1 150.0, 72.6 150.0 Q 71.1 150.0, 70.2 149.0 Q 69.4 148.1, 69.4 146.4 M 72.6 149.2 Q 73.6 149.2, 74.2 148.5 Q 74.7 147.8, 74.7 146.4 Q 74.7 145.1, 74.2 144.4 Q 73.6 143.7, 72.6 143.7 Q 71.5 143.7, 71.0 144.4 Q 70.4 145.1, 70.4 146.4 Q 70.4 147.8, 71.0 148.5 Q 71.5 149.2, 72.6 149.2 " fill="#FF0000"/>
<path class="atom-24" d="M 216.0 56.5 Q 216.0 54.9, 216.8 54.0 Q 217.6 53.0, 219.1 53.0 Q 220.7 53.0, 221.5 54.0 Q 222.3 54.9, 222.3 56.5 Q 222.3 58.2, 221.5 59.1 Q 220.6 60.1, 219.1 60.1 Q 217.6 60.1, 216.8 59.1 Q 216.0 58.2, 216.0 56.5 M 219.1 59.3 Q 220.2 59.3, 220.8 58.6 Q 221.3 57.9, 221.3 56.5 Q 221.3 55.2, 220.8 54.5 Q 220.2 53.8, 219.1 53.8 Q 218.1 53.8, 217.5 54.5 Q 217.0 55.2, 217.0 56.5 Q 217.0 57.9, 217.5 58.6 Q 218.1 59.3, 219.1 59.3 " fill="#FF0000"/>
<path class="atom-24" d="M 223.3 53.1 L 224.3 53.1 L 224.3 56.0 L 227.8 56.0 L 227.8 53.1 L 228.7 53.1 L 228.7 59.9 L 227.8 59.9 L 227.8 56.8 L 224.3 56.8 L 224.3 59.9 L 223.3 59.9 L 223.3 53.1 " fill="#FF0000"/>
<path class="atom-29" d="M 271.3 86.5 Q 271.3 84.9, 272.1 84.0 Q 273.0 83.1, 274.5 83.1 Q 276.0 83.1, 276.8 84.0 Q 277.6 84.9, 277.6 86.5 Q 277.6 88.2, 276.8 89.1 Q 276.0 90.1, 274.5 90.1 Q 273.0 90.1, 272.1 89.1 Q 271.3 88.2, 271.3 86.5 M 274.5 89.3 Q 275.5 89.3, 276.1 88.6 Q 276.6 87.9, 276.6 86.5 Q 276.6 85.2, 276.1 84.5 Q 275.5 83.8, 274.5 83.8 Q 273.4 83.8, 272.9 84.5 Q 272.3 85.2, 272.3 86.5 Q 272.3 87.9, 272.9 88.6 Q 273.4 89.3, 274.5 89.3 " fill="#FF0000"/>
<path class="atom-29" d="M 278.7 83.1 L 279.6 83.1 L 279.6 86.0 L 283.1 86.0 L 283.1 83.1 L 284.0 83.1 L 284.0 90.0 L 283.1 90.0 L 283.1 86.8 L 279.6 86.8 L 279.6 90.0 L 278.7 90.0 L 278.7 83.1 " fill="#FF0000"/>
<path class="atom-31" d="M 225.1 156.2 Q 225.1 154.5, 225.9 153.6 Q 226.7 152.7, 228.2 152.7 Q 229.8 152.7, 230.6 153.6 Q 231.4 154.5, 231.4 156.2 Q 231.4 157.8, 230.6 158.8 Q 229.7 159.7, 228.2 159.7 Q 226.7 159.7, 225.9 158.8 Q 225.1 157.8, 225.1 156.2 M 228.2 158.9 Q 229.3 158.9, 229.8 158.2 Q 230.4 157.5, 230.4 156.2 Q 230.4 154.8, 229.8 154.1 Q 229.3 153.5, 228.2 153.5 Q 227.2 153.5, 226.6 154.1 Q 226.1 154.8, 226.1 156.2 Q 226.1 157.5, 226.6 158.2 Q 227.2 158.9, 228.2 158.9 " fill="#FF0000"/>
<path class="atom-32" d="M 266.8 158.8 Q 266.8 157.1, 267.6 156.2 Q 268.4 155.3, 270.0 155.3 Q 271.5 155.3, 272.3 156.2 Q 273.1 157.1, 273.1 158.8 Q 273.1 160.4, 272.3 161.4 Q 271.4 162.3, 270.0 162.3 Q 268.4 162.3, 267.6 161.4 Q 266.8 160.4, 266.8 158.8 M 270.0 161.5 Q 271.0 161.5, 271.6 160.8 Q 272.1 160.1, 272.1 158.8 Q 272.1 157.4, 271.6 156.8 Q 271.0 156.1, 270.0 156.1 Q 268.9 156.1, 268.3 156.7 Q 267.8 157.4, 267.8 158.8 Q 267.8 160.2, 268.3 160.8 Q 268.9 161.5, 270.0 161.5 " fill="#FF0000"/>
<path class="atom-32" d="M 274.2 155.4 L 275.1 155.4 L 275.1 158.3 L 278.6 158.3 L 278.6 155.4 L 279.5 155.4 L 279.5 162.2 L 278.6 162.2 L 278.6 159.1 L 275.1 159.1 L 275.1 162.2 L 274.2 162.2 L 274.2 155.4 " fill="#FF0000"/>
<path class="atom-36" d="M 192.0 15.5 Q 192.0 13.9, 192.8 12.9 Q 193.7 12.0, 195.2 12.0 Q 196.7 12.0, 197.5 12.9 Q 198.3 13.9, 198.3 15.5 Q 198.3 17.2, 197.5 18.1 Q 196.7 19.0, 195.2 19.0 Q 193.7 19.0, 192.8 18.1 Q 192.0 17.2, 192.0 15.5 M 195.2 18.3 Q 196.2 18.3, 196.8 17.6 Q 197.3 16.9, 197.3 15.5 Q 197.3 14.2, 196.8 13.5 Q 196.2 12.8, 195.2 12.8 Q 194.1 12.8, 193.6 13.5 Q 193.0 14.2, 193.0 15.5 Q 193.0 16.9, 193.6 17.6 Q 194.1 18.3, 195.2 18.3 " fill="#FF0000"/>
<path class="atom-37" d="M 189.4 51.9 Q 189.4 50.3, 190.3 49.4 Q 191.1 48.4, 192.6 48.4 Q 194.1 48.4, 194.9 49.4 Q 195.7 50.3, 195.7 51.9 Q 195.7 53.6, 194.9 54.5 Q 194.1 55.5, 192.6 55.5 Q 191.1 55.5, 190.3 54.5 Q 189.4 53.6, 189.4 51.9 M 192.6 54.7 Q 193.6 54.7, 194.2 54.0 Q 194.8 53.3, 194.8 51.9 Q 194.8 50.6, 194.2 49.9 Q 193.6 49.2, 192.6 49.2 Q 191.5 49.2, 191.0 49.9 Q 190.4 50.6, 190.4 51.9 Q 190.4 53.3, 191.0 54.0 Q 191.5 54.7, 192.6 54.7 " fill="#FF0000"/>
<path class="atom-37" d="M 196.8 48.5 L 197.7 48.5 L 197.7 51.4 L 201.2 51.4 L 201.2 48.5 L 202.1 48.5 L 202.1 55.4 L 201.2 55.4 L 201.2 52.2 L 197.7 52.2 L 197.7 55.4 L 196.8 55.4 L 196.8 48.5 " fill="#FF0000"/>
<path class="atom-40" d="M 111.1 44.0 L 112.0 44.0 L 112.0 46.9 L 115.5 46.9 L 115.5 44.0 L 116.4 44.0 L 116.4 50.9 L 115.5 50.9 L 115.5 47.7 L 112.0 47.7 L 112.0 50.9 L 111.1 50.9 L 111.1 44.0 " fill="#FF0000"/>
<path class="atom-40" d="M 117.8 47.4 Q 117.8 45.8, 118.6 44.9 Q 119.4 44.0, 120.9 44.0 Q 122.5 44.0, 123.3 44.9 Q 124.1 45.8, 124.1 47.4 Q 124.1 49.1, 123.3 50.0 Q 122.4 51.0, 120.9 51.0 Q 119.4 51.0, 118.6 50.0 Q 117.8 49.1, 117.8 47.4 M 120.9 50.2 Q 122.0 50.2, 122.5 49.5 Q 123.1 48.8, 123.1 47.4 Q 123.1 46.1, 122.5 45.4 Q 122.0 44.7, 120.9 44.7 Q 119.9 44.7, 119.3 45.4 Q 118.8 46.1, 118.8 47.4 Q 118.8 48.8, 119.3 49.5 Q 119.9 50.2, 120.9 50.2 " fill="#FF0000"/>
</g>
    <g transform="translate(691.0, 0) scale(1 1) "><line x1="15" y1="100" x2="25" y2="100" style="stroke:rgb(0,0,0);stroke-width:2"/>
  <line x1="20" y1="95" x2="20" y2="105" style="stroke:rgb(0,0,0);stroke-width:2"/>
</g>
    <g transform="translate(731.0, 0) scale(1 1) "><!-- END OF HEADER -->
<rect style="opacity:1.0;fill:#FFFFFF;stroke:none" width="215.0" height="200.0" x="0.0" y="0.0"> </rect>
<path class="bond-0 atom-0 atom-1" d="M 183.7,56.0 L 158.3,99.9" style="fill:none;fill-rule:evenodd;stroke:#000000;stroke-width:2.0px;stroke-linecap:butt;stroke-linejoin:miter;stroke-opacity:1"/>
<path class="bond-1 atom-1 atom-2" d="M 158.3,99.9 L 168.4,117.4" style="fill:none;fill-rule:evenodd;stroke:#000000;stroke-width:2.0px;stroke-linecap:butt;stroke-linejoin:miter;stroke-opacity:1"/>
<path class="bond-1 atom-1 atom-2" d="M 168.4,117.4 L 178.5,134.9" style="fill:none;fill-rule:evenodd;stroke:#FF0000;stroke-width:2.0px;stroke-linecap:butt;stroke-linejoin:miter;stroke-opacity:1"/>
<path class="bond-2 atom-1 atom-3" d="M 158.3,99.9 L 107.6,99.9" style="fill:none;fill-rule:evenodd;stroke:#000000;stroke-width:2.0px;stroke-linecap:butt;stroke-linejoin:miter;stroke-opacity:1"/>
<path class="bond-3 atom-3 atom-4" d="M 107.6,99.9 L 107.6,49.2" style="fill:none;fill-rule:evenodd;stroke:#000000;stroke-width:2.0px;stroke-linecap:butt;stroke-linejoin:miter;stroke-opacity:1"/>
<path class="bond-4 atom-3 atom-5" d="M 107.6,99.9 L 107.6,150.6" style="fill:none;fill-rule:evenodd;stroke:#000000;stroke-width:2.0px;stroke-linecap:butt;stroke-linejoin:miter;stroke-opacity:1"/>
<path class="bond-5 atom-3 atom-6" d="M 107.6,99.9 L 56.9,99.9" style="fill:none;fill-rule:evenodd;stroke:#000000;stroke-width:2.0px;stroke-linecap:butt;stroke-linejoin:miter;stroke-opacity:1"/>
<path class="bond-6 atom-6 atom-7" d="M 54.7,96.1 L 44.0,114.5" style="fill:none;fill-rule:evenodd;stroke:#000000;stroke-width:2.0px;stroke-linecap:butt;stroke-linejoin:miter;stroke-opacity:1"/>
<path class="bond-6 atom-6 atom-7" d="M 44.0,114.5 L 33.4,133.0" style="fill:none;fill-rule:evenodd;stroke:#FF0000;stroke-width:2.0px;stroke-linecap:butt;stroke-linejoin:miter;stroke-opacity:1"/>
<path class="bond-6 atom-6 atom-7" d="M 61.3,99.9 L 50.6,118.3" style="fill:none;fill-rule:evenodd;stroke:#000000;stroke-width:2.0px;stroke-linecap:butt;stroke-linejoin:miter;stroke-opacity:1"/>
<path class="bond-6 atom-6 atom-7" d="M 50.6,118.3 L 40.0,136.8" style="fill:none;fill-rule:evenodd;stroke:#FF0000;stroke-width:2.0px;stroke-linecap:butt;stroke-linejoin:miter;stroke-opacity:1"/>
<path class="bond-7 atom-6 atom-8" d="M 56.9,99.9 L 46.9,82.5" style="fill:none;fill-rule:evenodd;stroke:#000000;stroke-width:2.0px;stroke-linecap:butt;stroke-linejoin:miter;stroke-opacity:1"/>
<path class="bond-7 atom-6 atom-8" d="M 46.9,82.5 L 36.8,65.1" style="fill:none;fill-rule:evenodd;stroke:#FF0000;stroke-width:2.0px;stroke-linecap:butt;stroke-linejoin:miter;stroke-opacity:1"/>
<path d="M 59.4,99.9 L 56.9,99.9 L 56.4,99.0" style="fill:none;stroke:#000000;stroke-width:2.0px;stroke-linecap:butt;stroke-linejoin:miter;stroke-opacity:1;"/>
<path class="atom-2" d="M 177.1 143.9 Q 177.1 140.4, 178.8 138.5 Q 180.5 136.5, 183.7 136.5 Q 186.9 136.5, 188.6 138.5 Q 190.3 140.4, 190.3 143.9 Q 190.3 147.3, 188.6 149.3 Q 186.8 151.3, 183.7 151.3 Q 180.5 151.3, 178.8 149.3 Q 177.1 147.4, 177.1 143.9 M 183.7 149.7 Q 185.9 149.7, 187.0 148.2 Q 188.2 146.7, 188.2 143.9 Q 188.2 141.0, 187.0 139.6 Q 185.9 138.2, 183.7 138.2 Q 181.5 138.2, 180.3 139.6 Q 179.1 141.0, 179.1 143.9 Q 179.1 146.8, 180.3 148.2 Q 181.5 149.7, 183.7 149.7 " fill="#FF0000"/>
<path class="atom-2" d="M 192.5 136.7 L 194.5 136.7 L 194.5 142.8 L 201.8 142.8 L 201.8 136.7 L 203.7 136.7 L 203.7 151.1 L 201.8 151.1 L 201.8 144.4 L 194.5 144.4 L 194.5 151.1 L 192.5 151.1 L 192.5 136.7 " fill="#FF0000"/>
<path class="atom-7" d="M 24.9 143.9 Q 24.9 140.4, 26.6 138.5 Q 28.3 136.5, 31.5 136.5 Q 34.7 136.5, 36.4 138.5 Q 38.1 140.4, 38.1 143.9 Q 38.1 147.3, 36.4 149.3 Q 34.7 151.3, 31.5 151.3 Q 28.4 151.3, 26.6 149.3 Q 24.9 147.4, 24.9 143.9 M 31.5 149.7 Q 33.7 149.7, 34.9 148.2 Q 36.1 146.7, 36.1 143.9 Q 36.1 141.0, 34.9 139.6 Q 33.7 138.2, 31.5 138.2 Q 29.3 138.2, 28.1 139.6 Q 27.0 141.0, 27.0 143.9 Q 27.0 146.8, 28.1 148.2 Q 29.3 149.7, 31.5 149.7 " fill="#FF0000"/>
<path class="atom-8" d="M 10.7 48.9 L 12.7 48.9 L 12.7 55.0 L 20.0 55.0 L 20.0 48.9 L 22.0 48.9 L 22.0 63.2 L 20.0 63.2 L 20.0 56.6 L 12.7 56.6 L 12.7 63.2 L 10.7 63.2 L 10.7 48.9 " fill="#FF0000"/>
<path class="atom-8" d="M 24.9 56.0 Q 24.9 52.6, 26.6 50.6 Q 28.3 48.7, 31.5 48.7 Q 34.7 48.7, 36.4 50.6 Q 38.1 52.6, 38.1 56.0 Q 38.1 59.5, 36.4 61.5 Q 34.7 63.5, 31.5 63.5 Q 28.4 63.5, 26.6 61.5 Q 24.9 59.5, 24.9 56.0 M 31.5 61.8 Q 33.7 61.8, 34.9 60.4 Q 36.1 58.9, 36.1 56.0 Q 36.1 53.2, 34.9 51.8 Q 33.7 50.3, 31.5 50.3 Q 29.3 50.3, 28.1 51.7 Q 27.0 53.2, 27.0 56.0 Q 27.0 58.9, 28.1 60.4 Q 29.3 61.8, 31.5 61.8 " fill="#FF0000"/>
</g>
  </g>
</svg>
