<?xml version='1.0' encoding='ASCII' standalone='yes'?>
<svg xmlns="http://www.w3.org/2000/svg" xmlns:xlink="http://www.w3.org/1999/xlink" version="1.1" width="875.0px" viewBox="0 0 875.0 200.0" height="200.0px">
  <g>
    <g transform="translate(0, 0) scale(1 1) "><!-- END OF HEADER -->
<rect style="opacity:1.0;fill:#FFFFFF;stroke:none" width="265.0" height="200.0" x="0.0" y="0.0"> </rect>
<path class="bond-0 atom-0 atom-1" d="M 13.2,76.0 L 42.6,61.9" style="fill:none;fill-rule:evenodd;stroke:#000000;stroke-width:2.0px;stroke-linecap:butt;stroke-linejoin:miter;stroke-opacity:1"/>
<path class="bond-1 atom-1 atom-2" d="M 42.6,61.9 L 69.5,80.2" style="fill:none;fill-rule:evenodd;stroke:#000000;stroke-width:2.0px;stroke-linecap:butt;stroke-linejoin:miter;stroke-opacity:1"/>
<path class="bond-2 atom-2 atom-3" d="M 69.5,80.2 L 51.2,107.1" style="fill:none;fill-rule:evenodd;stroke:#000000;stroke-width:2.0px;stroke-linecap:butt;stroke-linejoin:miter;stroke-opacity:1"/>
<path class="bond-3 atom-2 atom-4" d="M 69.5,80.2 L 87.9,53.3" style="fill:none;fill-rule:evenodd;stroke:#000000;stroke-width:2.0px;stroke-linecap:butt;stroke-linejoin:miter;stroke-opacity:1"/>
<path class="bond-4 atom-2 atom-5" d="M 69.5,80.2 L 96.5,98.5" style="fill:none;fill-rule:evenodd;stroke:#000000;stroke-width:2.0px;stroke-linecap:butt;stroke-linejoin:miter;stroke-opacity:1"/>
<path class="bond-5 atom-5 atom-6" d="M 96.5,98.5 L 95.5,111.9" style="fill:none;fill-rule:evenodd;stroke:#000000;stroke-width:2.0px;stroke-linecap:butt;stroke-linejoin:miter;stroke-opacity:1"/>
<path class="bond-5 atom-5 atom-6" d="M 95.5,111.9 L 94.5,125.3" style="fill:none;fill-rule:evenodd;stroke:#FF0000;stroke-width:2.0px;stroke-linecap:butt;stroke-linejoin:miter;stroke-opacity:1"/>
<path class="bond-6 atom-5 atom-7" d="M 96.5,98.5 L 108.5,92.8" style="fill:none;fill-rule:evenodd;stroke:#000000;stroke-width:2.0px;stroke-linecap:butt;stroke-linejoin:miter;stroke-opacity:1"/>
<path class="bond-6 atom-5 atom-7" d="M 108.5,92.8 L 120.5,87.0" style="fill:none;fill-rule:evenodd;stroke:#FF0000;stroke-width:2.0px;stroke-linecap:butt;stroke-linejoin:miter;stroke-opacity:1"/>
<path class="bond-7 atom-7 atom-8" d="M 131.1,88.0 L 141.9,95.4" style="fill:none;fill-rule:evenodd;stroke:#FF0000;stroke-width:2.0px;stroke-linecap:butt;stroke-linejoin:miter;stroke-opacity:1"/>
<path class="bond-7 atom-7 atom-8" d="M 141.9,95.4 L 152.7,102.7" style="fill:none;fill-rule:evenodd;stroke:#000000;stroke-width:2.0px;stroke-linecap:butt;stroke-linejoin:miter;stroke-opacity:1"/>
<path class="bond-8 atom-8 atom-9" d="M 150.4,101.2 L 149.3,115.2" style="fill:none;fill-rule:evenodd;stroke:#000000;stroke-width:2.0px;stroke-linecap:butt;stroke-linejoin:miter;stroke-opacity:1"/>
<path class="bond-8 atom-8 atom-9" d="M 149.3,115.2 L 148.3,129.3" style="fill:none;fill-rule:evenodd;stroke:#FF0000;stroke-width:2.0px;stroke-linecap:butt;stroke-linejoin:miter;stroke-opacity:1"/>
<path class="bond-8 atom-8 atom-9" d="M 155.3,101.5 L 154.2,115.6" style="fill:none;fill-rule:evenodd;stroke:#000000;stroke-width:2.0px;stroke-linecap:butt;stroke-linejoin:miter;stroke-opacity:1"/>
<path class="bond-8 atom-8 atom-9" d="M 154.2,115.6 L 153.2,129.7" style="fill:none;fill-rule:evenodd;stroke:#FF0000;stroke-width:2.0px;stroke-linecap:butt;stroke-linejoin:miter;stroke-opacity:1"/>
<path class="bond-9 atom-8 atom-10" d="M 152.7,102.7 L 182.1,88.6" style="fill:none;fill-rule:evenodd;stroke:#000000;stroke-width:2.0px;stroke-linecap:butt;stroke-linejoin:miter;stroke-opacity:1"/>
<path class="bond-10 atom-10 atom-11" d="M 182.1,88.6 L 196.2,117.9" style="fill:none;fill-rule:evenodd;stroke:#000000;stroke-width:2.0px;stroke-linecap:butt;stroke-linejoin:miter;stroke-opacity:1"/>
<path class="bond-11 atom-10 atom-12" d="M 182.1,88.6 L 167.9,59.2" style="fill:none;fill-rule:evenodd;stroke:#000000;stroke-width:2.0px;stroke-linecap:butt;stroke-linejoin:miter;stroke-opacity:1"/>
<path class="bond-12 atom-10 atom-13" d="M 182.1,88.6 L 211.4,74.4" style="fill:none;fill-rule:evenodd;stroke:#000000;stroke-width:2.0px;stroke-linecap:butt;stroke-linejoin:miter;stroke-opacity:1"/>
<path class="bond-13 atom-13 atom-14" d="M 211.4,74.4 L 213.9,42.0" style="fill:none;fill-rule:evenodd;stroke:#000000;stroke-width:2.0px;stroke-linecap:butt;stroke-linejoin:miter;stroke-opacity:1"/>
<path class="bond-14 atom-13 atom-15" d="M 211.4,74.4 L 222.2,81.8" style="fill:none;fill-rule:evenodd;stroke:#000000;stroke-width:2.0px;stroke-linecap:butt;stroke-linejoin:miter;stroke-opacity:1"/>
<path class="bond-14 atom-13 atom-15" d="M 222.2,81.8 L 233.0,89.2" style="fill:none;fill-rule:evenodd;stroke:#FF0000;stroke-width:2.0px;stroke-linecap:butt;stroke-linejoin:miter;stroke-opacity:1"/>
<path d="M 41.1,62.6 L 42.6,61.9 L 43.9,62.8" style="fill:none;stroke:#000000;stroke-width:2.0px;stroke-linecap:butt;stroke-linejoin:miter;stroke-opacity:1;"/>
<path d="M 152.2,102.4 L 152.7,102.7 L 154.2,102.0" style="fill:none;stroke:#000000;stroke-width:2.0px;stroke-linecap:butt;stroke-linejoin:miter;stroke-opacity:1;"/>
<path class="atom-6" d="M 89.8 131.1 Q 89.8 128.8, 90.9 127.6 Q 92.0 126.4, 94.0 126.4 Q 96.1 126.4, 97.2 127.6 Q 98.3 128.8, 98.3 131.1 Q 98.3 133.3, 97.2 134.6 Q 96.1 135.8, 94.0 135.8 Q 92.0 135.8, 90.9 134.6 Q 89.8 133.3, 89.8 131.1 M 94.0 134.8 Q 95.4 134.8, 96.2 133.9 Q 97.0 132.9, 97.0 131.1 Q 97.0 129.3, 96.2 128.3 Q 95.4 127.4, 94.0 127.4 Q 92.6 127.4, 91.9 128.3 Q 91.1 129.2, 91.1 131.1 Q 91.1 132.9, 91.9 133.9 Q 92.6 134.8, 94.0 134.8 " fill="#FF0000"/>
<path class="atom-6" d="M 99.7 126.5 L 101.0 126.5 L 101.0 130.4 L 105.7 130.4 L 105.7 126.5 L 106.9 126.5 L 106.9 135.7 L 105.7 135.7 L 105.7 131.4 L 101.0 131.4 L 101.0 135.7 L 99.7 135.7 L 99.7 126.5 " fill="#FF0000"/>
<path class="atom-7" d="M 121.6 84.4 Q 121.6 82.2, 122.7 81.0 Q 123.8 79.7, 125.8 79.7 Q 127.9 79.7, 128.9 81.0 Q 130.0 82.2, 130.0 84.4 Q 130.0 86.7, 128.9 87.9 Q 127.8 89.2, 125.8 89.2 Q 123.8 89.2, 122.7 87.9 Q 121.6 86.7, 121.6 84.4 M 125.8 88.2 Q 127.2 88.2, 128.0 87.2 Q 128.7 86.3, 128.7 84.4 Q 128.7 82.6, 128.0 81.7 Q 127.2 80.8, 125.8 80.8 Q 124.4 80.8, 123.6 81.7 Q 122.9 82.6, 122.9 84.4 Q 122.9 86.3, 123.6 87.2 Q 124.4 88.2, 125.8 88.2 " fill="#FF0000"/>
<path class="atom-9" d="M 146.1 135.3 Q 146.1 133.0, 147.2 131.8 Q 148.3 130.6, 150.3 130.6 Q 152.4 130.6, 153.4 131.8 Q 154.5 133.0, 154.5 135.3 Q 154.5 137.5, 153.4 138.8 Q 152.3 140.0, 150.3 140.0 Q 148.3 140.0, 147.2 138.8 Q 146.1 137.5, 146.1 135.3 M 150.3 139.0 Q 151.7 139.0, 152.5 138.1 Q 153.2 137.1, 153.2 135.3 Q 153.2 133.4, 152.5 132.5 Q 151.7 131.6, 150.3 131.6 Q 148.9 131.6, 148.1 132.5 Q 147.4 133.4, 147.4 135.3 Q 147.4 137.1, 148.1 138.1 Q 148.9 139.0, 150.3 139.0 " fill="#FF0000"/>
<path class="atom-15" d="M 234.1 92.8 Q 234.1 90.6, 235.2 89.4 Q 236.3 88.1, 238.4 88.1 Q 240.4 88.1, 241.5 89.4 Q 242.6 90.6, 242.6 92.8 Q 242.6 95.1, 241.5 96.3 Q 240.4 97.6, 238.4 97.6 Q 236.3 97.6, 235.2 96.3 Q 234.1 95.1, 234.1 92.8 M 238.4 96.6 Q 239.8 96.6, 240.5 95.6 Q 241.3 94.7, 241.3 92.8 Q 241.3 91.0, 240.5 90.1 Q 239.8 89.2, 238.4 89.2 Q 237.0 89.2, 236.2 90.1 Q 235.4 91.0, 235.4 92.8 Q 235.4 94.7, 236.2 95.6 Q 237.0 96.6, 238.4 96.6 " fill="#FF0000"/>
<path class="atom-15" d="M 244.0 88.2 L 245.3 88.2 L 245.3 92.2 L 250.0 92.2 L 250.0 88.2 L 251.2 88.2 L 251.2 97.5 L 250.0 97.5 L 250.0 93.2 L 245.3 93.2 L 245.3 97.5 L 244.0 97.5 L 244.0 88.2 " fill="#FF0000"/>
<path class="legend" d="M 123.7 181.9 Q 123.7 179.6, 124.4 177.7 Q 125.1 175.8, 126.4 173.8 L 127.3 174.4 Q 126.2 176.3, 125.7 178.0 Q 125.2 179.7, 125.2 181.9 Q 125.2 184.0, 125.7 185.8 Q 126.2 187.5, 127.3 189.4 L 126.4 190.0 Q 125.1 188.0, 124.4 186.1 Q 123.7 184.2, 123.7 181.9 " fill="#000000"/>
<path class="legend" d="M 128.2 177.3 Q 128.6 176.2, 129.6 175.6 Q 130.6 175.0, 132.0 175.0 Q 133.7 175.0, 134.6 175.9 Q 135.6 176.8, 135.6 178.5 Q 135.6 180.2, 134.3 181.7 Q 133.1 183.3, 130.6 185.2 L 135.8 185.2 L 135.8 186.4 L 128.2 186.4 L 128.2 185.4 Q 130.3 183.9, 131.5 182.8 Q 132.8 181.6, 133.4 180.6 Q 134.0 179.6, 134.0 178.6 Q 134.0 177.5, 133.4 176.9 Q 132.9 176.3, 132.0 176.3 Q 131.1 176.3, 130.4 176.6 Q 129.8 177.0, 129.4 177.8 L 128.2 177.3 " fill="#000000"/>
<path class="legend" d="M 140.8 181.9 Q 140.8 184.2, 140.1 186.1 Q 139.4 188.0, 138.1 190.0 L 137.2 189.4 Q 138.3 187.5, 138.8 185.8 Q 139.3 184.0, 139.3 181.9 Q 139.3 179.7, 138.8 178.0 Q 138.3 176.3, 137.2 174.4 L 138.1 173.8 Q 139.4 175.8, 140.1 177.7 Q 140.8 179.6, 140.8 181.9 " fill="#000000"/>
</g>
    <g transform="translate(265.0, 0) scale(1 1) "><line x1="5" y1="100" x2="35" y2="100" style="stroke:rgb(0,0,0);stroke-width:2"/>
  <line x1="34" y1="100" x2="29" y2="95" style="stroke:rgb(0,0,0);stroke-width:2"/>
  <line x1="34" y1="100" x2="29" y2="105" style="stroke:rgb(0,0,0);stroke-width:2"/>
</g>
    <g transform="translate(305.0, 0) scale(1 1) "><!-- END OF HEADER -->
<rect style="opacity:1.0;fill:#FFFFFF;stroke:none" width="265.0" height="200.0" x="0.0" y="0.0"> </rect>
<path class="bond-0 atom-0 atom-1" d="M 13.2,85.0 L 42.6,70.9" style="fill:none;fill-rule:evenodd;stroke:#000000;stroke-width:2.0px;stroke-linecap:butt;stroke-linejoin:miter;stroke-opacity:1"/>
<path class="bond-1 atom-1 atom-2" d="M 42.6,70.9 L 69.5,89.2" style="fill:none;fill-rule:evenodd;stroke:#000000;stroke-width:2.0px;stroke-linecap:butt;stroke-linejoin:miter;stroke-opacity:1"/>
<path class="bond-2 atom-2 atom-3" d="M 69.5,89.2 L 51.2,116.1" style="fill:none;fill-rule:evenodd;stroke:#000000;stroke-width:2.0px;stroke-linecap:butt;stroke-linejoin:miter;stroke-opacity:1"/>
<path class="bond-3 atom-2 atom-4" d="M 69.5,89.2 L 87.9,62.3" style="fill:none;fill-rule:evenodd;stroke:#000000;stroke-width:2.0px;stroke-linecap:butt;stroke-linejoin:miter;stroke-opacity:1"/>
<path class="bond-4 atom-2 atom-5" d="M 69.5,89.2 L 96.5,107.5" style="fill:none;fill-rule:evenodd;stroke:#000000;stroke-width:2.0px;stroke-linecap:butt;stroke-linejoin:miter;stroke-opacity:1"/>
<path class="bond-5 atom-5 atom-6" d="M 96.5,107.5 L 95.5,120.9" style="fill:none;fill-rule:evenodd;stroke:#000000;stroke-width:2.0px;stroke-linecap:butt;stroke-linejoin:miter;stroke-opacity:1"/>
<path class="bond-5 atom-5 atom-6" d="M 95.5,120.9 L 94.5,134.3" style="fill:none;fill-rule:evenodd;stroke:#FF0000;stroke-width:2.0px;stroke-linecap:butt;stroke-linejoin:miter;stroke-opacity:1"/>
<path class="bond-6 atom-5 atom-7" d="M 96.5,107.5 L 108.5,101.8" style="fill:none;fill-rule:evenodd;stroke:#000000;stroke-width:2.0px;stroke-linecap:butt;stroke-linejoin:miter;stroke-opacity:1"/>
<path class="bond-6 atom-5 atom-7" d="M 108.5,101.8 L 120.5,96.0" style="fill:none;fill-rule:evenodd;stroke:#FF0000;stroke-width:2.0px;stroke-linecap:butt;stroke-linejoin:miter;stroke-opacity:1"/>
<path class="bond-7 atom-7 atom-8" d="M 131.1,97.0 L 141.9,104.4" style="fill:none;fill-rule:evenodd;stroke:#FF0000;stroke-width:2.0px;stroke-linecap:butt;stroke-linejoin:miter;stroke-opacity:1"/>
<path class="bond-7 atom-7 atom-8" d="M 141.9,104.4 L 152.7,111.7" style="fill:none;fill-rule:evenodd;stroke:#000000;stroke-width:2.0px;stroke-linecap:butt;stroke-linejoin:miter;stroke-opacity:1"/>
<path class="bond-8 atom-8 atom-9" d="M 152.7,111.7 L 151.7,125.1" style="fill:none;fill-rule:evenodd;stroke:#000000;stroke-width:2.0px;stroke-linecap:butt;stroke-linejoin:miter;stroke-opacity:1"/>
<path class="bond-8 atom-8 atom-9" d="M 151.7,125.1 L 150.7,138.5" style="fill:none;fill-rule:evenodd;stroke:#FF0000;stroke-width:2.0px;stroke-linecap:butt;stroke-linejoin:miter;stroke-opacity:1"/>
<path class="bond-9 atom-8 atom-10" d="M 152.7,111.7 L 182.1,97.6" style="fill:none;fill-rule:evenodd;stroke:#000000;stroke-width:2.0px;stroke-linecap:butt;stroke-linejoin:miter;stroke-opacity:1"/>
<path class="bond-10 atom-10 atom-11" d="M 182.1,97.6 L 196.2,126.9" style="fill:none;fill-rule:evenodd;stroke:#000000;stroke-width:2.0px;stroke-linecap:butt;stroke-linejoin:miter;stroke-opacity:1"/>
<path class="bond-11 atom-10 atom-12" d="M 182.1,97.6 L 167.9,68.2" style="fill:none;fill-rule:evenodd;stroke:#000000;stroke-width:2.0px;stroke-linecap:butt;stroke-linejoin:miter;stroke-opacity:1"/>
<path class="bond-12 atom-10 atom-13" d="M 182.1,97.6 L 211.4,83.4" style="fill:none;fill-rule:evenodd;stroke:#000000;stroke-width:2.0px;stroke-linecap:butt;stroke-linejoin:miter;stroke-opacity:1"/>
<path class="bond-13 atom-13 atom-14" d="M 211.4,83.4 L 213.9,51.0" style="fill:none;fill-rule:evenodd;stroke:#000000;stroke-width:2.0px;stroke-linecap:butt;stroke-linejoin:miter;stroke-opacity:1"/>
<path class="bond-14 atom-13 atom-15" d="M 211.4,83.4 L 222.2,90.8" style="fill:none;fill-rule:evenodd;stroke:#000000;stroke-width:2.0px;stroke-linecap:butt;stroke-linejoin:miter;stroke-opacity:1"/>
<path class="bond-14 atom-13 atom-15" d="M 222.2,90.8 L 233.0,98.2" style="fill:none;fill-rule:evenodd;stroke:#FF0000;stroke-width:2.0px;stroke-linecap:butt;stroke-linejoin:miter;stroke-opacity:1"/>
<path d="M 41.1,71.6 L 42.6,70.9 L 43.9,71.8" style="fill:none;stroke:#000000;stroke-width:2.0px;stroke-linecap:butt;stroke-linejoin:miter;stroke-opacity:1;"/>
<path class="atom-6" d="M 89.8 140.1 Q 89.8 137.8, 90.9 136.6 Q 92.0 135.4, 94.0 135.4 Q 96.1 135.4, 97.2 136.6 Q 98.3 137.8, 98.3 140.1 Q 98.3 142.3, 97.2 143.6 Q 96.1 144.8, 94.0 144.8 Q 92.0 144.8, 90.9 143.6 Q 89.8 142.3, 89.8 140.1 M 94.0 143.8 Q 95.4 143.8, 96.2 142.9 Q 97.0 141.9, 97.0 140.1 Q 97.0 138.3, 96.2 137.3 Q 95.4 136.4, 94.0 136.4 Q 92.6 136.4, 91.9 137.3 Q 91.1 138.2, 91.1 140.1 Q 91.1 141.9, 91.9 142.9 Q 92.6 143.8, 94.0 143.8 " fill="#FF0000"/>
<path class="atom-6" d="M 99.7 135.5 L 101.0 135.5 L 101.0 139.4 L 105.7 139.4 L 105.7 135.5 L 106.9 135.5 L 106.9 144.7 L 105.7 144.7 L 105.7 140.4 L 101.0 140.4 L 101.0 144.7 L 99.7 144.7 L 99.7 135.5 " fill="#FF0000"/>
<path class="atom-7" d="M 121.6 93.4 Q 121.6 91.2, 122.7 90.0 Q 123.8 88.7, 125.8 88.7 Q 127.9 88.7, 128.9 90.0 Q 130.0 91.2, 130.0 93.4 Q 130.0 95.7, 128.9 96.9 Q 127.8 98.2, 125.8 98.2 Q 123.8 98.2, 122.7 96.9 Q 121.6 95.7, 121.6 93.4 M 125.8 97.2 Q 127.2 97.2, 128.0 96.2 Q 128.7 95.3, 128.7 93.4 Q 128.7 91.6, 128.0 90.7 Q 127.2 89.8, 125.8 89.8 Q 124.4 89.8, 123.6 90.7 Q 122.9 91.6, 122.9 93.4 Q 122.9 95.3, 123.6 96.2 Q 124.4 97.2, 125.8 97.2 " fill="#FF0000"/>
<path class="atom-9" d="M 146.1 144.3 Q 146.1 142.0, 147.2 140.8 Q 148.3 139.6, 150.3 139.6 Q 152.4 139.6, 153.4 140.8 Q 154.5 142.0, 154.5 144.3 Q 154.5 146.5, 153.4 147.8 Q 152.3 149.0, 150.3 149.0 Q 148.3 149.0, 147.2 147.8 Q 146.1 146.5, 146.1 144.3 M 150.3 148.0 Q 151.7 148.0, 152.5 147.1 Q 153.2 146.1, 153.2 144.3 Q 153.2 142.4, 152.5 141.5 Q 151.7 140.6, 150.3 140.6 Q 148.9 140.6, 148.1 141.5 Q 147.4 142.4, 147.4 144.3 Q 147.4 146.1, 148.1 147.1 Q 148.9 148.0, 150.3 148.0 " fill="#FF0000"/>
<path class="atom-9" d="M 156.0 139.7 L 157.2 139.7 L 157.2 143.6 L 161.9 143.6 L 161.9 139.7 L 163.2 139.7 L 163.2 148.9 L 161.9 148.9 L 161.9 144.6 L 157.2 144.6 L 157.2 148.9 L 156.0 148.9 L 156.0 139.7 " fill="#FF0000"/>
<path class="atom-15" d="M 234.1 101.8 Q 234.1 99.6, 235.2 98.4 Q 236.3 97.1, 238.4 97.1 Q 240.4 97.1, 241.5 98.4 Q 242.6 99.6, 242.6 101.8 Q 242.6 104.1, 241.5 105.3 Q 240.4 106.6, 238.4 106.6 Q 236.3 106.6, 235.2 105.3 Q 234.1 104.1, 234.1 101.8 M 238.4 105.6 Q 239.8 105.6, 240.5 104.6 Q 241.3 103.7, 241.3 101.8 Q 241.3 100.0, 240.5 99.1 Q 239.8 98.2, 238.4 98.2 Q 237.0 98.2, 236.2 99.1 Q 235.4 100.0, 235.4 101.8 Q 235.4 103.7, 236.2 104.6 Q 237.0 105.6, 238.4 105.6 " fill="#FF0000"/>
<path class="atom-15" d="M 244.0 97.2 L 245.3 97.2 L 245.3 101.2 L 250.0 101.2 L 250.0 97.2 L 251.2 97.2 L 251.2 106.5 L 250.0 106.5 L 250.0 102.2 L 245.3 102.2 L 245.3 106.5 L 244.0 106.5 L 244.0 97.2 " fill="#FF0000"/>
</g>
    <g transform="translate(570.0, 0) scale(1 1) "><line x1="15" y1="100" x2="25" y2="100" style="stroke:rgb(0,0,0);stroke-width:2"/>
  <line x1="20" y1="95" x2="20" y2="105" style="stroke:rgb(0,0,0);stroke-width:2"/>
</g>
    <g transform="translate(610.0, 0) scale(1 1) "><!-- END OF HEADER -->
<rect style="opacity:1.0;fill:#FFFFFF;stroke:none" width="265.0" height="200.0" x="0.0" y="0.0"> </rect>
<path class="bond-0 atom-0 atom-1" d="M 13.2,85.0 L 42.6,70.9" style="fill:none;fill-rule:evenodd;stroke:#000000;stroke-width:2.0px;stroke-linecap:butt;stroke-linejoin:miter;stroke-opacity:1"/>
<path class="bond-1 atom-1 atom-2" d="M 42.6,70.9 L 69.5,89.2" style="fill:none;fill-rule:evenodd;stroke:#000000;stroke-width:2.0px;stroke-linecap:butt;stroke-linejoin:miter;stroke-opacity:1"/>
<path class="bond-2 atom-2 atom-3" d="M 69.5,89.2 L 51.2,116.1" style="fill:none;fill-rule:evenodd;stroke:#000000;stroke-width:2.0px;stroke-linecap:butt;stroke-linejoin:miter;stroke-opacity:1"/>
<path class="bond-3 atom-2 atom-4" d="M 69.5,89.2 L 87.9,62.3" style="fill:none;fill-rule:evenodd;stroke:#000000;stroke-width:2.0px;stroke-linecap:butt;stroke-linejoin:miter;stroke-opacity:1"/>
<path class="bond-4 atom-2 atom-5" d="M 69.5,89.2 L 96.5,107.5" style="fill:none;fill-rule:evenodd;stroke:#000000;stroke-width:2.0px;stroke-linecap:butt;stroke-linejoin:miter;stroke-opacity:1"/>
<path class="bond-5 atom-5 atom-6" d="M 94.1,106.0 L 93.1,120.0" style="fill:none;fill-rule:evenodd;stroke:#000000;stroke-width:2.0px;stroke-linecap:butt;stroke-linejoin:miter;stroke-opacity:1"/>
<path class="bond-5 atom-5 atom-6" d="M 93.1,120.0 L 92.0,134.1" style="fill:none;fill-rule:evenodd;stroke:#FF0000;stroke-width:2.0px;stroke-linecap:butt;stroke-linejoin:miter;stroke-opacity:1"/>
<path class="bond-5 atom-5 atom-6" d="M 99.0,106.3 L 97.9,120.4" style="fill:none;fill-rule:evenodd;stroke:#000000;stroke-width:2.0px;stroke-linecap:butt;stroke-linejoin:miter;stroke-opacity:1"/>
<path class="bond-5 atom-5 atom-6" d="M 97.9,120.4 L 96.9,134.5" style="fill:none;fill-rule:evenodd;stroke:#FF0000;stroke-width:2.0px;stroke-linecap:butt;stroke-linejoin:miter;stroke-opacity:1"/>
<path class="bond-6 atom-5 atom-7" d="M 96.5,107.5 L 108.5,101.8" style="fill:none;fill-rule:evenodd;stroke:#000000;stroke-width:2.0px;stroke-linecap:butt;stroke-linejoin:miter;stroke-opacity:1"/>
<path class="bond-6 atom-5 atom-7" d="M 108.5,101.8 L 120.5,96.0" style="fill:none;fill-rule:evenodd;stroke:#FF0000;stroke-width:2.0px;stroke-linecap:butt;stroke-linejoin:miter;stroke-opacity:1"/>
<path class="bond-7 atom-7 atom-8" d="M 131.1,97.0 L 141.9,104.4" style="fill:none;fill-rule:evenodd;stroke:#FF0000;stroke-width:2.0px;stroke-linecap:butt;stroke-linejoin:miter;stroke-opacity:1"/>
<path class="bond-7 atom-7 atom-8" d="M 141.9,104.4 L 152.7,111.7" style="fill:none;fill-rule:evenodd;stroke:#000000;stroke-width:2.0px;stroke-linecap:butt;stroke-linejoin:miter;stroke-opacity:1"/>
<path class="bond-8 atom-8 atom-9" d="M 150.4,110.2 L 149.3,124.2" style="fill:none;fill-rule:evenodd;stroke:#000000;stroke-width:2.0px;stroke-linecap:butt;stroke-linejoin:miter;stroke-opacity:1"/>
<path class="bond-8 atom-8 atom-9" d="M 149.3,124.2 L 148.3,138.3" style="fill:none;fill-rule:evenodd;stroke:#FF0000;stroke-width:2.0px;stroke-linecap:butt;stroke-linejoin:miter;stroke-opacity:1"/>
<path class="bond-8 atom-8 atom-9" d="M 155.3,110.5 L 154.2,124.6" style="fill:none;fill-rule:evenodd;stroke:#000000;stroke-width:2.0px;stroke-linecap:butt;stroke-linejoin:miter;stroke-opacity:1"/>
<path class="bond-8 atom-8 atom-9" d="M 154.2,124.6 L 153.2,138.7" style="fill:none;fill-rule:evenodd;stroke:#FF0000;stroke-width:2.0px;stroke-linecap:butt;stroke-linejoin:miter;stroke-opacity:1"/>
<path class="bond-9 atom-8 atom-10" d="M 152.7,111.7 L 182.1,97.6" style="fill:none;fill-rule:evenodd;stroke:#000000;stroke-width:2.0px;stroke-linecap:butt;stroke-linejoin:miter;stroke-opacity:1"/>
<path class="bond-10 atom-10 atom-11" d="M 182.1,97.6 L 196.2,126.9" style="fill:none;fill-rule:evenodd;stroke:#000000;stroke-width:2.0px;stroke-linecap:butt;stroke-linejoin:miter;stroke-opacity:1"/>
<path class="bond-11 atom-10 atom-12" d="M 182.1,97.6 L 167.9,68.2" style="fill:none;fill-rule:evenodd;stroke:#000000;stroke-width:2.0px;stroke-linecap:butt;stroke-linejoin:miter;stroke-opacity:1"/>
<path class="bond-12 atom-10 atom-13" d="M 182.1,97.6 L 211.4,83.4" style="fill:none;fill-rule:evenodd;stroke:#000000;stroke-width:2.0px;stroke-linecap:butt;stroke-linejoin:miter;stroke-opacity:1"/>
<path class="bond-13 atom-13 atom-14" d="M 211.4,83.4 L 213.9,51.0" style="fill:none;fill-rule:evenodd;stroke:#000000;stroke-width:2.0px;stroke-linecap:butt;stroke-linejoin:miter;stroke-opacity:1"/>
<path class="bond-14 atom-13 atom-15" d="M 211.4,83.4 L 222.2,90.8" style="fill:none;fill-rule:evenodd;stroke:#000000;stroke-width:2.0px;stroke-linecap:butt;stroke-linejoin:miter;stroke-opacity:1"/>
<path class="bond-14 atom-13 atom-15" d="M 222.2,90.8 L 233.0,98.2" style="fill:none;fill-rule:evenodd;stroke:#FF0000;stroke-width:2.0px;stroke-linecap:butt;stroke-linejoin:miter;stroke-opacity:1"/>
<path d="M 41.1,71.6 L 42.6,70.9 L 43.9,71.8" style="fill:none;stroke:#000000;stroke-width:2.0px;stroke-linecap:butt;stroke-linejoin:miter;stroke-opacity:1;"/>
<path d="M 95.1,106.6 L 96.5,107.5 L 97.1,107.3" style="fill:none;stroke:#000000;stroke-width:2.0px;stroke-linecap:butt;stroke-linejoin:miter;stroke-opacity:1;"/>
<path d="M 152.2,111.4 L 152.7,111.7 L 154.2,111.0" style="fill:none;stroke:#000000;stroke-width:2.0px;stroke-linecap:butt;stroke-linejoin:miter;stroke-opacity:1;"/>
<path class="atom-6" d="M 89.8 140.1 Q 89.8 137.8, 90.9 136.6 Q 92.0 135.4, 94.0 135.4 Q 96.1 135.4, 97.2 136.6 Q 98.3 137.8, 98.3 140.1 Q 98.3 142.3, 97.2 143.6 Q 96.1 144.8, 94.0 144.8 Q 92.0 144.8, 90.9 143.6 Q 89.8 142.3, 89.8 140.1 M 94.0 143.8 Q 95.4 143.8, 96.2 142.9 Q 97.0 141.9, 97.0 140.1 Q 97.0 138.3, 96.2 137.3 Q 95.4 136.4, 94.0 136.4 Q 92.6 136.4, 91.9 137.3 Q 91.1 138.2, 91.1 140.1 Q 91.1 141.9, 91.9 142.9 Q 92.6 143.8, 94.0 143.8 " fill="#FF0000"/>
<path class="atom-7" d="M 121.6 93.4 Q 121.6 91.2, 122.7 90.0 Q 123.8 88.7, 125.8 88.7 Q 127.9 88.7, 128.9 90.0 Q 130.0 91.2, 130.0 93.4 Q 130.0 95.7, 128.9 96.9 Q 127.8 98.2, 125.8 98.2 Q 123.8 98.2, 122.7 96.9 Q 121.6 95.7, 121.6 93.4 M 125.8 97.2 Q 127.2 97.2, 128.0 96.2 Q 128.7 95.3, 128.7 93.4 Q 128.7 91.6, 128.0 90.7 Q 127.2 89.8, 125.8 89.8 Q 124.4 89.8, 123.6 90.7 Q 122.9 91.6, 122.9 93.4 Q 122.9 95.3, 123.6 96.2 Q 124.4 97.2, 125.8 97.2 " fill="#FF0000"/>
<path class="atom-9" d="M 146.1 144.3 Q 146.1 142.0, 147.2 140.8 Q 148.3 139.6, 150.3 139.6 Q 152.4 139.6, 153.4 140.8 Q 154.5 142.0, 154.5 144.3 Q 154.5 146.5, 153.4 147.8 Q 152.3 149.0, 150.3 149.0 Q 148.3 149.0, 147.2 147.8 Q 146.1 146.5, 146.1 144.3 M 150.3 148.0 Q 151.7 148.0, 152.5 147.1 Q 153.2 146.1, 153.2 144.3 Q 153.2 142.4, 152.5 141.5 Q 151.7 140.6, 150.3 140.6 Q 148.9 140.6, 148.1 141.5 Q 147.4 142.4, 147.4 144.3 Q 147.4 146.1, 148.1 147.1 Q 148.9 148.0, 150.3 148.0 " fill="#FF0000"/>
<path class="atom-15" d="M 234.1 101.8 Q 234.1 99.6, 235.2 98.4 Q 236.3 97.1, 238.4 97.1 Q 240.4 97.1, 241.5 98.4 Q 242.6 99.6, 242.6 101.8 Q 242.6 104.1, 241.5 105.3 Q 240.4 106.6, 238.4 106.6 Q 236.3 106.6, 235.2 105.3 Q 234.1 104.1, 234.1 101.8 M 238.4 105.6 Q 239.8 105.6, 240.5 104.6 Q 241.3 103.7, 241.3 101.8 Q 241.3 100.0, 240.5 99.1 Q 239.8 98.2, 238.4 98.2 Q 237.0 98.2, 236.2 99.1 Q 235.4 100.0, 235.4 101.8 Q 235.4 103.7, 236.2 104.6 Q 237.0 105.6, 238.4 105.6 " fill="#FF0000"/>
<path class="atom-15" d="M 244.0 97.2 L 245.3 97.2 L 245.3 101.2 L 250.0 101.2 L 250.0 97.2 L 251.2 97.2 L 251.2 106.5 L 250.0 106.5 L 250.0 102.2 L 245.3 102.2 L 245.3 106.5 L 244.0 106.5 L 244.0 97.2 " fill="#FF0000"/>
</g>
  </g>
</svg>
