<?xml version='1.0' encoding='ASCII' standalone='yes'?>
<svg xmlns="http://www.w3.org/2000/svg" xmlns:xlink="http://www.w3.org/1999/xlink" version="1.1" width="912.0px" viewBox="0 0 912.0 200.0" height="200.0px">
  <g>
    <g transform="translate(0, 0) scale(1 1) "><!-- END OF HEADER -->
<rect style="opacity:1.0;fill:#FFFFFF;stroke:none" width="289.0" height="200.0" x="0.0" y="0.0"> </rect>
<path class="bond-0 atom-0 atom-1" d="M 253.3,45.4 L 222.6,71.7" style="fill:none;fill-rule:evenodd;stroke:#000000;stroke-width:2.0px;stroke-linecap:butt;stroke-linejoin:miter;stroke-opacity:1"/>
<path class="bond-1 atom-1 atom-2" d="M 222.6,71.7 L 184.5,58.2" style="fill:none;fill-rule:evenodd;stroke:#000000;stroke-width:2.0px;stroke-linecap:butt;stroke-linejoin:miter;stroke-opacity:1"/>
<path class="bond-2 atom-2 atom-3" d="M 184.5,58.2 L 153.9,84.5" style="fill:none;fill-rule:evenodd;stroke:#000000;stroke-width:2.0px;stroke-linecap:butt;stroke-linejoin:miter;stroke-opacity:1"/>
<path class="bond-3 atom-3 atom-4" d="M 153.9,84.5 L 127.6,53.8" style="fill:none;fill-rule:evenodd;stroke:#000000;stroke-width:2.0px;stroke-linecap:butt;stroke-linejoin:miter;stroke-opacity:1"/>
<path class="bond-4 atom-4 atom-5" d="M 127.6,53.8 L 133.1,38.4" style="fill:none;fill-rule:evenodd;stroke:#000000;stroke-width:2.0px;stroke-linecap:butt;stroke-linejoin:miter;stroke-opacity:1"/>
<path class="bond-4 atom-4 atom-5" d="M 133.1,38.4 L 138.5,23.0" style="fill:none;fill-rule:evenodd;stroke:#FF0000;stroke-width:2.0px;stroke-linecap:butt;stroke-linejoin:miter;stroke-opacity:1"/>
<path class="bond-5 atom-3 atom-6" d="M 153.9,84.5 L 123.2,110.7" style="fill:none;fill-rule:evenodd;stroke:#000000;stroke-width:2.0px;stroke-linecap:butt;stroke-linejoin:miter;stroke-opacity:1"/>
<path class="bond-6 atom-6 atom-7" d="M 123.2,110.7 L 85.2,97.3" style="fill:none;fill-rule:evenodd;stroke:#000000;stroke-width:2.0px;stroke-linecap:butt;stroke-linejoin:miter;stroke-opacity:1"/>
<path class="bond-7 atom-7 atom-8" d="M 85.2,97.3 L 47.1,83.9" style="fill:none;fill-rule:evenodd;stroke:#000000;stroke-width:2.0px;stroke-linecap:butt;stroke-linejoin:miter;stroke-opacity:1"/>
<path class="bond-8 atom-7 atom-9" d="M 85.2,97.3 L 71.8,135.4" style="fill:none;fill-rule:evenodd;stroke:#000000;stroke-width:2.0px;stroke-linecap:butt;stroke-linejoin:miter;stroke-opacity:1"/>
<path class="bond-9 atom-9 atom-10" d="M 68.4,136.0 L 79.1,148.5" style="fill:none;fill-rule:evenodd;stroke:#000000;stroke-width:2.0px;stroke-linecap:butt;stroke-linejoin:miter;stroke-opacity:1"/>
<path class="bond-9 atom-9 atom-10" d="M 79.1,148.5 L 89.7,160.9" style="fill:none;fill-rule:evenodd;stroke:#FF0000;stroke-width:2.0px;stroke-linecap:butt;stroke-linejoin:miter;stroke-opacity:1"/>
<path class="bond-9 atom-9 atom-10" d="M 72.9,132.2 L 83.6,144.6" style="fill:none;fill-rule:evenodd;stroke:#000000;stroke-width:2.0px;stroke-linecap:butt;stroke-linejoin:miter;stroke-opacity:1"/>
<path class="bond-9 atom-9 atom-10" d="M 83.6,144.6 L 94.2,157.0" style="fill:none;fill-rule:evenodd;stroke:#FF0000;stroke-width:2.0px;stroke-linecap:butt;stroke-linejoin:miter;stroke-opacity:1"/>
<path class="bond-10 atom-9 atom-11" d="M 71.8,135.4 L 55.2,138.5" style="fill:none;fill-rule:evenodd;stroke:#000000;stroke-width:2.0px;stroke-linecap:butt;stroke-linejoin:miter;stroke-opacity:1"/>
<path class="bond-10 atom-9 atom-11" d="M 55.2,138.5 L 38.6,141.6" style="fill:none;fill-rule:evenodd;stroke:#FF0000;stroke-width:2.0px;stroke-linecap:butt;stroke-linejoin:miter;stroke-opacity:1"/>
<path class="bond-11 atom-7 atom-12" d="M 85.2,97.3 L 98.6,59.3" style="fill:none;fill-rule:evenodd;stroke:#000000;stroke-width:2.0px;stroke-linecap:butt;stroke-linejoin:miter;stroke-opacity:1"/>
<path class="bond-12 atom-12 atom-13" d="M 98.6,59.3 L 118.1,50.3" style="fill:none;fill-rule:evenodd;stroke:#000000;stroke-width:2.0px;stroke-linecap:butt;stroke-linejoin:miter;stroke-opacity:1"/>
<path class="bond-13 atom-12 atom-14" d="M 98.6,59.3 L 88.6,47.6" style="fill:none;fill-rule:evenodd;stroke:#000000;stroke-width:2.0px;stroke-linecap:butt;stroke-linejoin:miter;stroke-opacity:1"/>
<path class="bond-13 atom-12 atom-14" d="M 88.6,47.6 L 78.6,35.9" style="fill:none;fill-rule:evenodd;stroke:#FF0000;stroke-width:2.0px;stroke-linecap:butt;stroke-linejoin:miter;stroke-opacity:1"/>
<path class="bond-14 atom-3 atom-15" d="M 153.9,84.5 L 180.2,115.1" style="fill:none;fill-rule:evenodd;stroke:#000000;stroke-width:2.0px;stroke-linecap:butt;stroke-linejoin:miter;stroke-opacity:1"/>
<path class="bond-15 atom-15 atom-16" d="M 179.1,118.0 L 196.4,119.1" style="fill:none;fill-rule:evenodd;stroke:#000000;stroke-width:2.0px;stroke-linecap:butt;stroke-linejoin:miter;stroke-opacity:1"/>
<path class="bond-15 atom-15 atom-16" d="M 196.4,119.1 L 213.7,120.1" style="fill:none;fill-rule:evenodd;stroke:#FF0000;stroke-width:2.0px;stroke-linecap:butt;stroke-linejoin:miter;stroke-opacity:1"/>
<path class="bond-15 atom-15 atom-16" d="M 177.5,112.0 L 196.8,113.2" style="fill:none;fill-rule:evenodd;stroke:#000000;stroke-width:2.0px;stroke-linecap:butt;stroke-linejoin:miter;stroke-opacity:1"/>
<path class="bond-15 atom-15 atom-16" d="M 196.8,113.2 L 214.1,114.2" style="fill:none;fill-rule:evenodd;stroke:#FF0000;stroke-width:2.0px;stroke-linecap:butt;stroke-linejoin:miter;stroke-opacity:1"/>
<path class="bond-16 atom-15 atom-17" d="M 180.2,115.1 L 174.7,130.6" style="fill:none;fill-rule:evenodd;stroke:#000000;stroke-width:2.0px;stroke-linecap:butt;stroke-linejoin:miter;stroke-opacity:1"/>
<path class="bond-16 atom-15 atom-17" d="M 174.7,130.6 L 169.2,146.1" style="fill:none;fill-rule:evenodd;stroke:#FF0000;stroke-width:2.0px;stroke-linecap:butt;stroke-linejoin:miter;stroke-opacity:1"/>
<path class="bond-17 atom-1 atom-18" d="M 222.6,71.7 L 230.0,111.3" style="fill:none;fill-rule:evenodd;stroke:#000000;stroke-width:2.0px;stroke-linecap:butt;stroke-linejoin:miter;stroke-opacity:1"/>
<path class="bond-18 atom-18 atom-19" d="M 227.4,113.5 L 244.0,119.4" style="fill:none;fill-rule:evenodd;stroke:#000000;stroke-width:2.0px;stroke-linecap:butt;stroke-linejoin:miter;stroke-opacity:1"/>
<path class="bond-18 atom-18 atom-19" d="M 244.0,119.4 L 260.6,125.2" style="fill:none;fill-rule:evenodd;stroke:#FF0000;stroke-width:2.0px;stroke-linecap:butt;stroke-linejoin:miter;stroke-opacity:1"/>
<path class="bond-18 atom-18 atom-19" d="M 229.4,108.0 L 246.0,113.8" style="fill:none;fill-rule:evenodd;stroke:#000000;stroke-width:2.0px;stroke-linecap:butt;stroke-linejoin:miter;stroke-opacity:1"/>
<path class="bond-18 atom-18 atom-19" d="M 246.0,113.8 L 262.5,119.6" style="fill:none;fill-rule:evenodd;stroke:#FF0000;stroke-width:2.0px;stroke-linecap:butt;stroke-linejoin:miter;stroke-opacity:1"/>
<path class="bond-19 atom-18 atom-20" d="M 230.0,111.3 L 218.0,121.6" style="fill:none;fill-rule:evenodd;stroke:#000000;stroke-width:2.0px;stroke-linecap:butt;stroke-linejoin:miter;stroke-opacity:1"/>
<path class="bond-19 atom-18 atom-20" d="M 218.0,121.6 L 205.9,132.0" style="fill:none;fill-rule:evenodd;stroke:#FF0000;stroke-width:2.0px;stroke-linecap:butt;stroke-linejoin:miter;stroke-opacity:1"/>
<path d="M 186.5,58.9 L 184.5,58.2 L 183.0,59.5" style="fill:none;stroke:#000000;stroke-width:2.0px;stroke-linecap:butt;stroke-linejoin:miter;stroke-opacity:1;"/>
<path d="M 129.0,55.4 L 127.6,53.8 L 127.9,53.1" style="fill:none;stroke:#000000;stroke-width:2.0px;stroke-linecap:butt;stroke-linejoin:miter;stroke-opacity:1;"/>
<path d="M 124.8,109.4 L 123.2,110.7 L 121.3,110.1" style="fill:none;stroke:#000000;stroke-width:2.0px;stroke-linecap:butt;stroke-linejoin:miter;stroke-opacity:1;"/>
<path d="M 72.4,133.5 L 71.8,135.4 L 70.9,135.5" style="fill:none;stroke:#000000;stroke-width:2.0px;stroke-linecap:butt;stroke-linejoin:miter;stroke-opacity:1;"/>
<path d="M 178.8,113.6 L 180.2,115.1 L 179.9,115.9" style="fill:none;stroke:#000000;stroke-width:2.0px;stroke-linecap:butt;stroke-linejoin:miter;stroke-opacity:1;"/>
<path d="M 229.7,109.3 L 230.0,111.3 L 229.4,111.8" style="fill:none;stroke:#000000;stroke-width:2.0px;stroke-linecap:butt;stroke-linejoin:miter;stroke-opacity:1;"/>
<path class="atom-5" d="M 135.8 15.8 Q 135.8 13.1, 137.2 11.5 Q 138.5 10.0, 141.1 10.0 Q 143.6 10.0, 144.9 11.5 Q 146.3 13.1, 146.3 15.8 Q 146.3 18.6, 144.9 20.2 Q 143.6 21.7, 141.1 21.7 Q 138.5 21.7, 137.2 20.2 Q 135.8 18.6, 135.8 15.8 M 141.1 20.4 Q 142.8 20.4, 143.7 19.3 Q 144.7 18.1, 144.7 15.8 Q 144.7 13.6, 143.7 12.4 Q 142.8 11.3, 141.1 11.3 Q 139.3 11.3, 138.4 12.4 Q 137.4 13.6, 137.4 15.8 Q 137.4 18.1, 138.4 19.3 Q 139.3 20.4, 141.1 20.4 " fill="#FF0000"/>
<path class="atom-5" d="M 148.1 10.1 L 149.6 10.1 L 149.6 15.0 L 155.5 15.0 L 155.5 10.1 L 157.0 10.1 L 157.0 21.6 L 155.5 21.6 L 155.5 16.3 L 149.6 16.3 L 149.6 21.6 L 148.1 21.6 L 148.1 10.1 " fill="#FF0000"/>
<path class="atom-10" d="M 92.8 166.1 Q 92.8 163.3, 94.1 161.8 Q 95.5 160.3, 98.0 160.3 Q 100.6 160.3, 101.9 161.8 Q 103.3 163.3, 103.3 166.1 Q 103.3 168.9, 101.9 170.4 Q 100.5 172.0, 98.0 172.0 Q 95.5 172.0, 94.1 170.4 Q 92.8 168.9, 92.8 166.1 M 98.0 170.7 Q 99.8 170.7, 100.7 169.5 Q 101.7 168.4, 101.7 166.1 Q 101.7 163.8, 100.7 162.7 Q 99.8 161.6, 98.0 161.6 Q 96.3 161.6, 95.3 162.7 Q 94.4 163.8, 94.4 166.1 Q 94.4 168.4, 95.3 169.5 Q 96.3 170.7, 98.0 170.7 " fill="#FF0000"/>
<path class="atom-11" d="M 15.6 137.2 L 17.1 137.2 L 17.1 142.0 L 23.0 142.0 L 23.0 137.2 L 24.5 137.2 L 24.5 148.6 L 23.0 148.6 L 23.0 143.3 L 17.1 143.3 L 17.1 148.6 L 15.6 148.6 L 15.6 137.2 " fill="#FF0000"/>
<path class="atom-11" d="M 26.9 142.8 Q 26.9 140.1, 28.2 138.6 Q 29.6 137.0, 32.1 137.0 Q 34.6 137.0, 36.0 138.6 Q 37.3 140.1, 37.3 142.8 Q 37.3 145.6, 36.0 147.2 Q 34.6 148.8, 32.1 148.8 Q 29.6 148.8, 28.2 147.2 Q 26.9 145.6, 26.9 142.8 M 32.1 147.5 Q 33.8 147.5, 34.8 146.3 Q 35.7 145.1, 35.7 142.8 Q 35.7 140.6, 34.8 139.5 Q 33.8 138.3, 32.1 138.3 Q 30.4 138.3, 29.4 139.5 Q 28.5 140.6, 28.5 142.8 Q 28.5 145.1, 29.4 146.3 Q 30.4 147.5, 32.1 147.5 " fill="#FF0000"/>
<path class="atom-14" d="M 55.8 23.0 L 57.4 23.0 L 57.4 27.8 L 63.2 27.8 L 63.2 23.0 L 64.8 23.0 L 64.8 34.4 L 63.2 34.4 L 63.2 29.1 L 57.4 29.1 L 57.4 34.4 L 55.8 34.4 L 55.8 23.0 " fill="#FF0000"/>
<path class="atom-14" d="M 67.1 28.7 Q 67.1 25.9, 68.5 24.4 Q 69.8 22.8, 72.3 22.8 Q 74.9 22.8, 76.2 24.4 Q 77.6 25.9, 77.6 28.7 Q 77.6 31.4, 76.2 33.0 Q 74.8 34.6, 72.3 34.6 Q 69.8 34.6, 68.5 33.0 Q 67.1 31.4, 67.1 28.7 M 72.3 33.3 Q 74.1 33.3, 75.0 32.1 Q 76.0 30.9, 76.0 28.7 Q 76.0 26.4, 75.0 25.3 Q 74.1 24.1, 72.3 24.1 Q 70.6 24.1, 69.7 25.3 Q 68.7 26.4, 68.7 28.7 Q 68.7 31.0, 69.7 32.1 Q 70.6 33.3, 72.3 33.3 " fill="#FF0000"/>
<path class="atom-16" d="M 215.2 117.6 Q 215.2 114.8, 216.5 113.3 Q 217.9 111.8, 220.4 111.8 Q 223.0 111.8, 224.3 113.3 Q 225.7 114.8, 225.7 117.6 Q 225.7 120.4, 224.3 121.9 Q 222.9 123.5, 220.4 123.5 Q 217.9 123.5, 216.5 121.9 Q 215.2 120.4, 215.2 117.6 M 220.4 122.2 Q 222.2 122.2, 223.1 121.0 Q 224.1 119.9, 224.1 117.6 Q 224.1 115.3, 223.1 114.2 Q 222.2 113.1, 220.4 113.1 Q 218.7 113.1, 217.7 114.2 Q 216.8 115.3, 216.8 117.6 Q 216.8 119.9, 217.7 121.0 Q 218.7 122.2, 220.4 122.2 " fill="#FF0000"/>
<path class="atom-17" d="M 161.5 153.2 Q 161.5 150.5, 162.8 149.0 Q 164.2 147.4, 166.7 147.4 Q 169.3 147.4, 170.6 149.0 Q 172.0 150.5, 172.0 153.2 Q 172.0 156.0, 170.6 157.6 Q 169.2 159.2, 166.7 159.2 Q 164.2 159.2, 162.8 157.6 Q 161.5 156.0, 161.5 153.2 M 166.7 157.9 Q 168.5 157.9, 169.4 156.7 Q 170.4 155.5, 170.4 153.2 Q 170.4 151.0, 169.4 149.9 Q 168.5 148.7, 166.7 148.7 Q 165.0 148.7, 164.0 149.8 Q 163.1 151.0, 163.1 153.2 Q 163.1 155.5, 164.0 156.7 Q 165.0 157.9, 166.7 157.9 " fill="#FF0000"/>
<path class="atom-17" d="M 173.8 147.6 L 175.3 147.6 L 175.3 152.4 L 181.2 152.4 L 181.2 147.6 L 182.7 147.6 L 182.7 159.0 L 181.2 159.0 L 181.2 153.7 L 175.3 153.7 L 175.3 159.0 L 173.8 159.0 L 173.8 147.6 " fill="#FF0000"/>
<path class="atom-19" d="M 262.8 124.8 Q 262.8 122.0, 264.2 120.5 Q 265.6 119.0, 268.1 119.0 Q 270.6 119.0, 272.0 120.5 Q 273.3 122.0, 273.3 124.8 Q 273.3 127.5, 272.0 129.1 Q 270.6 130.7, 268.1 130.7 Q 265.6 130.7, 264.2 129.1 Q 262.8 127.6, 262.8 124.8 M 268.1 129.4 Q 269.8 129.4, 270.8 128.2 Q 271.7 127.1, 271.7 124.8 Q 271.7 122.5, 270.8 121.4 Q 269.8 120.2, 268.1 120.2 Q 266.3 120.2, 265.4 121.4 Q 264.5 122.5, 264.5 124.8 Q 264.5 127.1, 265.4 128.2 Q 266.3 129.4, 268.1 129.4 " fill="#FF0000"/>
<path class="atom-20" d="M 182.8 131.9 L 184.4 131.9 L 184.4 136.8 L 190.2 136.8 L 190.2 131.9 L 191.8 131.9 L 191.8 143.4 L 190.2 143.4 L 190.2 138.1 L 184.4 138.1 L 184.4 143.4 L 182.8 143.4 L 182.8 131.9 " fill="#FF0000"/>
<path class="atom-20" d="M 194.1 137.6 Q 194.1 134.9, 195.5 133.3 Q 196.8 131.8, 199.4 131.8 Q 201.9 131.8, 203.3 133.3 Q 204.6 134.9, 204.6 137.6 Q 204.6 140.4, 203.2 142.0 Q 201.9 143.5, 199.4 143.5 Q 196.9 143.5, 195.5 142.0 Q 194.1 140.4, 194.1 137.6 M 199.4 142.2 Q 201.1 142.2, 202.1 141.1 Q 203.0 139.9, 203.0 137.6 Q 203.0 135.4, 202.1 134.2 Q 201.1 133.1, 199.4 133.1 Q 197.6 133.1, 196.7 134.2 Q 195.7 135.3, 195.7 137.6 Q 195.7 139.9, 196.7 141.1 Q 197.6 142.2, 199.4 142.2 " fill="#FF0000"/>
<path class="legend" d="M 135.9 181.9 Q 135.9 179.6, 136.6 177.7 Q 137.3 175.8, 138.6 173.8 L 139.5 174.4 Q 138.4 176.3, 137.9 178.0 Q 137.4 179.7, 137.4 181.9 Q 137.4 184.0, 137.9 185.8 Q 138.4 187.5, 139.5 189.4 L 138.6 190.0 Q 137.3 188.0, 136.6 186.1 Q 135.9 184.2, 135.9 181.9 " fill="#000000"/>
<path class="legend" d="M 140.4 177.3 Q 140.8 176.2, 141.8 175.6 Q 142.8 175.0, 144.2 175.0 Q 145.9 175.0, 146.8 175.9 Q 147.8 176.8, 147.8 178.5 Q 147.8 180.2, 146.5 181.7 Q 145.3 183.3, 142.8 185.2 L 148.0 185.2 L 148.0 186.4 L 140.4 186.4 L 140.4 185.4 Q 142.5 183.9, 143.7 182.8 Q 145.0 181.6, 145.6 180.6 Q 146.2 179.6, 146.2 178.6 Q 146.2 177.5, 145.6 176.9 Q 145.1 176.3, 144.2 176.3 Q 143.2 176.3, 142.6 176.6 Q 142.0 177.0, 141.6 177.8 L 140.4 177.3 " fill="#000000"/>
<path class="legend" d="M 153.0 181.9 Q 153.0 184.2, 152.3 186.1 Q 151.6 188.0, 150.3 190.0 L 149.4 189.4 Q 150.5 187.5, 151.0 185.8 Q 151.5 184.0, 151.5 181.9 Q 151.5 179.7, 151.0 178.0 Q 150.5 176.3, 149.4 174.4 L 150.3 173.8 Q 151.6 175.8, 152.3 177.7 Q 153.0 179.6, 153.0 181.9 " fill="#000000"/>
</g>
    <g transform="translate(289.0, 0) scale(1 1) "><line x1="5" y1="100" x2="35" y2="100" style="stroke:rgb(0,0,0);stroke-width:2"/>
  <line x1="34" y1="100" x2="29" y2="95" style="stroke:rgb(0,0,0);stroke-width:2"/>
  <line x1="34" y1="100" x2="29" y2="105" style="stroke:rgb(0,0,0);stroke-width:2"/>
</g>
    <g transform="translate(329.0, 0) scale(1 1) "><!-- END OF HEADER -->
<rect style="opacity:1.0;fill:#FFFFFF;stroke:none" width="328.0" height="200.0" x="0.0" y="0.0"> </rect>
<path class="bond-0 atom-0 atom-1" d="M 293.2,141.9 L 266.4,118.6" style="fill:none;fill-rule:evenodd;stroke:#000000;stroke-width:2.0px;stroke-linecap:butt;stroke-linejoin:miter;stroke-opacity:1"/>
<path class="bond-1 atom-1 atom-2" d="M 266.4,118.6 L 232.9,130.2" style="fill:none;fill-rule:evenodd;stroke:#000000;stroke-width:2.0px;stroke-linecap:butt;stroke-linejoin:miter;stroke-opacity:1"/>
<path class="bond-2 atom-2 atom-3" d="M 232.9,130.2 L 206.2,106.9" style="fill:none;fill-rule:evenodd;stroke:#000000;stroke-width:2.0px;stroke-linecap:butt;stroke-linejoin:miter;stroke-opacity:1"/>
<path class="bond-3 atom-3 atom-4" d="M 206.2,106.9 L 182.9,133.6" style="fill:none;fill-rule:evenodd;stroke:#000000;stroke-width:2.0px;stroke-linecap:butt;stroke-linejoin:miter;stroke-opacity:1"/>
<path class="bond-4 atom-4 atom-5" d="M 182.9,133.6 L 187.5,147.3" style="fill:none;fill-rule:evenodd;stroke:#000000;stroke-width:2.0px;stroke-linecap:butt;stroke-linejoin:miter;stroke-opacity:1"/>
<path class="bond-4 atom-4 atom-5" d="M 187.5,147.3 L 192.2,160.9" style="fill:none;fill-rule:evenodd;stroke:#FF0000;stroke-width:2.0px;stroke-linecap:butt;stroke-linejoin:miter;stroke-opacity:1"/>
<path class="bond-5 atom-3 atom-6" d="M 206.2,106.9 L 179.4,83.6" style="fill:none;fill-rule:evenodd;stroke:#000000;stroke-width:2.0px;stroke-linecap:butt;stroke-linejoin:miter;stroke-opacity:1"/>
<path class="bond-6 atom-6 atom-7" d="M 179.4,83.6 L 145.9,95.1" style="fill:none;fill-rule:evenodd;stroke:#000000;stroke-width:2.0px;stroke-linecap:butt;stroke-linejoin:miter;stroke-opacity:1"/>
<path class="bond-7 atom-7 atom-8" d="M 145.9,95.1 L 116.1,114.4" style="fill:none;fill-rule:evenodd;stroke:#000000;stroke-width:2.0px;stroke-linecap:butt;stroke-linejoin:miter;stroke-opacity:1"/>
<path class="bond-8 atom-7 atom-9" d="M 145.9,95.1 L 157.4,128.6" style="fill:none;fill-rule:evenodd;stroke:#000000;stroke-width:2.0px;stroke-linecap:butt;stroke-linejoin:miter;stroke-opacity:1"/>
<path class="bond-9 atom-9 atom-10" d="M 155.6,130.7 L 161.6,133.5" style="fill:none;fill-rule:evenodd;stroke:#000000;stroke-width:2.0px;stroke-linecap:butt;stroke-linejoin:miter;stroke-opacity:1"/>
<path class="bond-9 atom-9 atom-10" d="M 161.6,133.5 L 167.6,136.3" style="fill:none;fill-rule:evenodd;stroke:#FF0000;stroke-width:2.0px;stroke-linecap:butt;stroke-linejoin:miter;stroke-opacity:1"/>
<path class="bond-9 atom-9 atom-10" d="M 156.2,125.2 L 163.8,128.7" style="fill:none;fill-rule:evenodd;stroke:#000000;stroke-width:2.0px;stroke-linecap:butt;stroke-linejoin:miter;stroke-opacity:1"/>
<path class="bond-9 atom-9 atom-10" d="M 163.8,128.7 L 169.8,131.5" style="fill:none;fill-rule:evenodd;stroke:#FF0000;stroke-width:2.0px;stroke-linecap:butt;stroke-linejoin:miter;stroke-opacity:1"/>
<path class="bond-10 atom-9 atom-11" d="M 157.4,128.6 L 148.4,138.9" style="fill:none;fill-rule:evenodd;stroke:#000000;stroke-width:2.0px;stroke-linecap:butt;stroke-linejoin:miter;stroke-opacity:1"/>
<path class="bond-10 atom-9 atom-11" d="M 148.4,138.9 L 139.5,149.1" style="fill:none;fill-rule:evenodd;stroke:#FF0000;stroke-width:2.0px;stroke-linecap:butt;stroke-linejoin:miter;stroke-opacity:1"/>
<path class="bond-11 atom-7 atom-12" d="M 145.9,95.1 L 134.4,61.5" style="fill:none;fill-rule:evenodd;stroke:#000000;stroke-width:2.0px;stroke-linecap:butt;stroke-linejoin:miter;stroke-opacity:1"/>
<path class="bond-12 atom-12 atom-13" d="M 134.4,61.5 L 122.8,28.0" style="fill:none;fill-rule:evenodd;stroke:#000000;stroke-width:2.0px;stroke-linecap:butt;stroke-linejoin:miter;stroke-opacity:1"/>
<path class="bond-13 atom-12 atom-14" d="M 134.4,61.5 L 148.3,56.8" style="fill:none;fill-rule:evenodd;stroke:#000000;stroke-width:2.0px;stroke-linecap:butt;stroke-linejoin:miter;stroke-opacity:1"/>
<path class="bond-13 atom-12 atom-14" d="M 148.3,56.8 L 162.1,52.0" style="fill:none;fill-rule:evenodd;stroke:#FF0000;stroke-width:2.0px;stroke-linecap:butt;stroke-linejoin:miter;stroke-opacity:1"/>
<path class="bond-14 atom-12 atom-15" d="M 134.4,61.5 L 100.8,73.0" style="fill:none;fill-rule:evenodd;stroke:#000000;stroke-width:2.0px;stroke-linecap:butt;stroke-linejoin:miter;stroke-opacity:1"/>
<path class="bond-15 atom-15 atom-16" d="M 100.8,73.0 L 89.3,39.5" style="fill:none;fill-rule:evenodd;stroke:#000000;stroke-width:2.0px;stroke-linecap:butt;stroke-linejoin:miter;stroke-opacity:1"/>
<path class="bond-16 atom-16 atom-17" d="M 89.3,39.5 L 74.8,36.7" style="fill:none;fill-rule:evenodd;stroke:#000000;stroke-width:2.0px;stroke-linecap:butt;stroke-linejoin:miter;stroke-opacity:1"/>
<path class="bond-16 atom-16 atom-17" d="M 74.8,36.7 L 60.3,33.8" style="fill:none;fill-rule:evenodd;stroke:#FF0000;stroke-width:2.0px;stroke-linecap:butt;stroke-linejoin:miter;stroke-opacity:1"/>
<path class="bond-17 atom-15 atom-18" d="M 100.8,73.0 L 112.3,106.6" style="fill:none;fill-rule:evenodd;stroke:#000000;stroke-width:2.0px;stroke-linecap:butt;stroke-linejoin:miter;stroke-opacity:1"/>
<path class="bond-18 atom-18 atom-19" d="M 112.3,106.6 L 89.0,133.3" style="fill:none;fill-rule:evenodd;stroke:#000000;stroke-width:2.0px;stroke-linecap:butt;stroke-linejoin:miter;stroke-opacity:1"/>
<path class="bond-19 atom-19 atom-20" d="M 89.0,133.3 L 100.5,166.9" style="fill:none;fill-rule:evenodd;stroke:#000000;stroke-width:2.0px;stroke-linecap:butt;stroke-linejoin:miter;stroke-opacity:1"/>
<path class="bond-20 atom-19 atom-21" d="M 89.0,133.3 L 54.2,126.5" style="fill:none;fill-rule:evenodd;stroke:#000000;stroke-width:2.0px;stroke-linecap:butt;stroke-linejoin:miter;stroke-opacity:1"/>
<path class="bond-21 atom-21 atom-22" d="M 57.2,127.1 L 52.3,112.8" style="fill:none;fill-rule:evenodd;stroke:#000000;stroke-width:2.0px;stroke-linecap:butt;stroke-linejoin:miter;stroke-opacity:1"/>
<path class="bond-21 atom-21 atom-22" d="M 52.3,112.8 L 47.4,98.5" style="fill:none;fill-rule:evenodd;stroke:#FF0000;stroke-width:2.0px;stroke-linecap:butt;stroke-linejoin:miter;stroke-opacity:1"/>
<path class="bond-21 atom-21 atom-22" d="M 52.2,128.8 L 47.3,114.5" style="fill:none;fill-rule:evenodd;stroke:#000000;stroke-width:2.0px;stroke-linecap:butt;stroke-linejoin:miter;stroke-opacity:1"/>
<path class="bond-21 atom-21 atom-22" d="M 47.3,114.5 L 42.4,100.2" style="fill:none;fill-rule:evenodd;stroke:#FF0000;stroke-width:2.0px;stroke-linecap:butt;stroke-linejoin:miter;stroke-opacity:1"/>
<path class="bond-22 atom-21 atom-23" d="M 54.2,126.5 L 45.3,136.8" style="fill:none;fill-rule:evenodd;stroke:#000000;stroke-width:2.0px;stroke-linecap:butt;stroke-linejoin:miter;stroke-opacity:1"/>
<path class="bond-22 atom-21 atom-23" d="M 45.3,136.8 L 36.4,147.0" style="fill:none;fill-rule:evenodd;stroke:#FF0000;stroke-width:2.0px;stroke-linecap:butt;stroke-linejoin:miter;stroke-opacity:1"/>
<path class="bond-23 atom-15 atom-24" d="M 100.8,73.0 L 67.3,84.6" style="fill:none;fill-rule:evenodd;stroke:#000000;stroke-width:2.0px;stroke-linecap:butt;stroke-linejoin:miter;stroke-opacity:1"/>
<path class="bond-24 atom-24 atom-25" d="M 70.1,83.6 L 59.1,73.9" style="fill:none;fill-rule:evenodd;stroke:#000000;stroke-width:2.0px;stroke-linecap:butt;stroke-linejoin:miter;stroke-opacity:1"/>
<path class="bond-24 atom-24 atom-25" d="M 59.1,73.9 L 48.0,64.3" style="fill:none;fill-rule:evenodd;stroke:#FF0000;stroke-width:2.0px;stroke-linecap:butt;stroke-linejoin:miter;stroke-opacity:1"/>
<path class="bond-24 atom-24 atom-25" d="M 66.1,87.0 L 55.6,77.9" style="fill:none;fill-rule:evenodd;stroke:#000000;stroke-width:2.0px;stroke-linecap:butt;stroke-linejoin:miter;stroke-opacity:1"/>
<path class="bond-24 atom-24 atom-25" d="M 55.6,77.9 L 44.6,68.3" style="fill:none;fill-rule:evenodd;stroke:#FF0000;stroke-width:2.0px;stroke-linecap:butt;stroke-linejoin:miter;stroke-opacity:1"/>
<path class="bond-25 atom-24 atom-26" d="M 67.3,84.6 L 61.2,97.5" style="fill:none;fill-rule:evenodd;stroke:#000000;stroke-width:2.0px;stroke-linecap:butt;stroke-linejoin:miter;stroke-opacity:1"/>
<path class="bond-25 atom-24 atom-26" d="M 61.2,97.5 L 55.2,110.4" style="fill:none;fill-rule:evenodd;stroke:#FF0000;stroke-width:2.0px;stroke-linecap:butt;stroke-linejoin:miter;stroke-opacity:1"/>
<path class="bond-26 atom-3 atom-27" d="M 206.2,106.9 L 229.5,80.1" style="fill:none;fill-rule:evenodd;stroke:#000000;stroke-width:2.0px;stroke-linecap:butt;stroke-linejoin:miter;stroke-opacity:1"/>
<path class="bond-27 atom-27 atom-28" d="M 227.1,82.9 L 243.1,82.0" style="fill:none;fill-rule:evenodd;stroke:#000000;stroke-width:2.0px;stroke-linecap:butt;stroke-linejoin:miter;stroke-opacity:1"/>
<path class="bond-27 atom-27 atom-28" d="M 243.1,82.0 L 259.2,81.2" style="fill:none;fill-rule:evenodd;stroke:#FF0000;stroke-width:2.0px;stroke-linecap:butt;stroke-linejoin:miter;stroke-opacity:1"/>
<path class="bond-27 atom-27 atom-28" d="M 228.6,77.5 L 242.9,76.8" style="fill:none;fill-rule:evenodd;stroke:#000000;stroke-width:2.0px;stroke-linecap:butt;stroke-linejoin:miter;stroke-opacity:1"/>
<path class="bond-27 atom-27 atom-28" d="M 242.9,76.8 L 259.0,76.0" style="fill:none;fill-rule:evenodd;stroke:#FF0000;stroke-width:2.0px;stroke-linecap:butt;stroke-linejoin:miter;stroke-opacity:1"/>
<path class="bond-28 atom-27 atom-29" d="M 229.5,80.1 L 224.8,66.5" style="fill:none;fill-rule:evenodd;stroke:#000000;stroke-width:2.0px;stroke-linecap:butt;stroke-linejoin:miter;stroke-opacity:1"/>
<path class="bond-28 atom-27 atom-29" d="M 224.8,66.5 L 220.1,53.0" style="fill:none;fill-rule:evenodd;stroke:#FF0000;stroke-width:2.0px;stroke-linecap:butt;stroke-linejoin:miter;stroke-opacity:1"/>
<path class="bond-29 atom-1 atom-30" d="M 266.4,118.6 L 273.2,83.8" style="fill:none;fill-rule:evenodd;stroke:#000000;stroke-width:2.0px;stroke-linecap:butt;stroke-linejoin:miter;stroke-opacity:1"/>
<path class="bond-30 atom-30 atom-31" d="M 272.7,86.8 L 287.3,81.8" style="fill:none;fill-rule:evenodd;stroke:#000000;stroke-width:2.0px;stroke-linecap:butt;stroke-linejoin:miter;stroke-opacity:1"/>
<path class="bond-30 atom-30 atom-31" d="M 287.3,81.8 L 301.9,76.8" style="fill:none;fill-rule:evenodd;stroke:#FF0000;stroke-width:2.0px;stroke-linecap:butt;stroke-linejoin:miter;stroke-opacity:1"/>
<path class="bond-30 atom-30 atom-31" d="M 271.0,81.9 L 285.6,76.8" style="fill:none;fill-rule:evenodd;stroke:#000000;stroke-width:2.0px;stroke-linecap:butt;stroke-linejoin:miter;stroke-opacity:1"/>
<path class="bond-30 atom-30 atom-31" d="M 285.6,76.8 L 300.2,71.8" style="fill:none;fill-rule:evenodd;stroke:#FF0000;stroke-width:2.0px;stroke-linecap:butt;stroke-linejoin:miter;stroke-opacity:1"/>
<path class="bond-31 atom-30 atom-32" d="M 273.2,83.8 L 262.8,74.7" style="fill:none;fill-rule:evenodd;stroke:#000000;stroke-width:2.0px;stroke-linecap:butt;stroke-linejoin:miter;stroke-opacity:1"/>
<path class="bond-31 atom-30 atom-32" d="M 262.8,74.7 L 252.3,65.6" style="fill:none;fill-rule:evenodd;stroke:#FF0000;stroke-width:2.0px;stroke-linecap:butt;stroke-linejoin:miter;stroke-opacity:1"/>
<path d="M 234.6,129.6 L 232.9,130.2 L 231.6,129.0" style="fill:none;stroke:#000000;stroke-width:2.0px;stroke-linecap:butt;stroke-linejoin:miter;stroke-opacity:1;"/>
<path d="M 184.0,132.3 L 182.9,133.6 L 183.1,134.3" style="fill:none;stroke:#000000;stroke-width:2.0px;stroke-linecap:butt;stroke-linejoin:miter;stroke-opacity:1;"/>
<path d="M 180.8,84.7 L 179.4,83.6 L 177.7,84.1" style="fill:none;stroke:#000000;stroke-width:2.0px;stroke-linecap:butt;stroke-linejoin:miter;stroke-opacity:1;"/>
<path d="M 156.8,126.9 L 157.4,128.6 L 156.9,129.1" style="fill:none;stroke:#000000;stroke-width:2.0px;stroke-linecap:butt;stroke-linejoin:miter;stroke-opacity:1;"/>
<path d="M 89.9,41.2 L 89.3,39.5 L 88.6,39.4" style="fill:none;stroke:#000000;stroke-width:2.0px;stroke-linecap:butt;stroke-linejoin:miter;stroke-opacity:1;"/>
<path d="M 111.8,104.9 L 112.3,106.6 L 111.2,107.9" style="fill:none;stroke:#000000;stroke-width:2.0px;stroke-linecap:butt;stroke-linejoin:miter;stroke-opacity:1;"/>
<path d="M 56.0,126.9 L 54.2,126.5 L 53.8,127.0" style="fill:none;stroke:#000000;stroke-width:2.0px;stroke-linecap:butt;stroke-linejoin:miter;stroke-opacity:1;"/>
<path d="M 68.9,84.0 L 67.3,84.6 L 67.0,85.2" style="fill:none;stroke:#000000;stroke-width:2.0px;stroke-linecap:butt;stroke-linejoin:miter;stroke-opacity:1;"/>
<path d="M 228.3,81.5 L 229.5,80.1 L 229.2,79.4" style="fill:none;stroke:#000000;stroke-width:2.0px;stroke-linecap:butt;stroke-linejoin:miter;stroke-opacity:1;"/>
<path d="M 272.9,85.6 L 273.2,83.8 L 272.7,83.4" style="fill:none;stroke:#000000;stroke-width:2.0px;stroke-linecap:butt;stroke-linejoin:miter;stroke-opacity:1;"/>
<path class="atom-5" d="M 189.8 167.2 Q 189.8 164.8, 191.0 163.4 Q 192.1 162.1, 194.4 162.1 Q 196.6 162.1, 197.8 163.4 Q 199.0 164.8, 199.0 167.2 Q 199.0 169.6, 197.8 171.0 Q 196.6 172.4, 194.4 172.4 Q 192.2 172.4, 191.0 171.0 Q 189.8 169.6, 189.8 167.2 M 194.4 171.2 Q 195.9 171.2, 196.7 170.2 Q 197.6 169.2, 197.6 167.2 Q 197.6 165.2, 196.7 164.2 Q 195.9 163.2, 194.4 163.2 Q 192.8 163.2, 192.0 164.2 Q 191.2 165.2, 191.2 167.2 Q 191.2 169.2, 192.0 170.2 Q 192.8 171.2, 194.4 171.2 " fill="#FF0000"/>
<path class="atom-5" d="M 200.5 162.2 L 201.9 162.2 L 201.9 166.5 L 207.0 166.5 L 207.0 162.2 L 208.4 162.2 L 208.4 172.2 L 207.0 172.2 L 207.0 167.6 L 201.9 167.6 L 201.9 172.2 L 200.5 172.2 L 200.5 162.2 " fill="#FF0000"/>
<path class="atom-10" d="M 169.8 136.6 Q 169.8 134.2, 171.0 132.9 Q 172.2 131.5, 174.5 131.5 Q 176.7 131.5, 177.9 132.9 Q 179.1 134.2, 179.1 136.6 Q 179.1 139.1, 177.9 140.5 Q 176.7 141.8, 174.5 141.8 Q 172.2 141.8, 171.0 140.5 Q 169.8 139.1, 169.8 136.6 M 174.5 140.7 Q 176.0 140.7, 176.8 139.7 Q 177.6 138.7, 177.6 136.6 Q 177.6 134.7, 176.8 133.7 Q 176.0 132.7, 174.5 132.7 Q 172.9 132.7, 172.1 133.7 Q 171.3 134.6, 171.3 136.6 Q 171.3 138.7, 172.1 139.7 Q 172.9 140.7, 174.5 140.7 " fill="#FF0000"/>
<path class="atom-11" d="M 119.6 150.4 L 120.9 150.4 L 120.9 154.7 L 126.1 154.7 L 126.1 150.4 L 127.4 150.4 L 127.4 160.4 L 126.1 160.4 L 126.1 155.8 L 120.9 155.8 L 120.9 160.4 L 119.6 160.4 L 119.6 150.4 " fill="#FF0000"/>
<path class="atom-11" d="M 129.5 155.4 Q 129.5 153.0, 130.7 151.6 Q 131.9 150.3, 134.1 150.3 Q 136.3 150.3, 137.5 151.6 Q 138.7 153.0, 138.7 155.4 Q 138.7 157.8, 137.5 159.2 Q 136.3 160.6, 134.1 160.6 Q 131.9 160.6, 130.7 159.2 Q 129.5 157.8, 129.5 155.4 M 134.1 159.5 Q 135.6 159.5, 136.4 158.4 Q 137.3 157.4, 137.3 155.4 Q 137.3 153.4, 136.4 152.4 Q 135.6 151.4, 134.1 151.4 Q 132.6 151.4, 131.7 152.4 Q 130.9 153.4, 130.9 155.4 Q 130.9 157.4, 131.7 158.4 Q 132.6 159.5, 134.1 159.5 " fill="#FF0000"/>
<path class="atom-14" d="M 163.3 50.1 Q 163.3 47.6, 164.5 46.3 Q 165.7 44.9, 167.9 44.9 Q 170.1 44.9, 171.3 46.3 Q 172.5 47.6, 172.5 50.1 Q 172.5 52.5, 171.3 53.9 Q 170.1 55.3, 167.9 55.3 Q 165.7 55.3, 164.5 53.9 Q 163.3 52.5, 163.3 50.1 M 167.9 54.1 Q 169.4 54.1, 170.3 53.1 Q 171.1 52.1, 171.1 50.1 Q 171.1 48.1, 170.3 47.1 Q 169.4 46.1, 167.9 46.1 Q 166.4 46.1, 165.5 47.1 Q 164.7 48.1, 164.7 50.1 Q 164.7 52.1, 165.5 53.1 Q 166.4 54.1, 167.9 54.1 " fill="#FF0000"/>
<path class="atom-14" d="M 174.1 45.1 L 175.4 45.1 L 175.4 49.3 L 180.6 49.3 L 180.6 45.1 L 181.9 45.1 L 181.9 55.1 L 180.6 55.1 L 180.6 50.5 L 175.4 50.5 L 175.4 55.1 L 174.1 55.1 L 174.1 45.1 " fill="#FF0000"/>
<path class="atom-17" d="M 40.0 27.7 L 41.3 27.7 L 41.3 32.0 L 46.5 32.0 L 46.5 27.7 L 47.8 27.7 L 47.8 37.8 L 46.5 37.8 L 46.5 33.1 L 41.3 33.1 L 41.3 37.8 L 40.0 37.8 L 40.0 27.7 " fill="#FF0000"/>
<path class="atom-17" d="M 49.9 32.7 Q 49.9 30.3, 51.1 29.0 Q 52.3 27.6, 54.5 27.6 Q 56.7 27.6, 57.9 29.0 Q 59.1 30.3, 59.1 32.7 Q 59.1 35.2, 57.9 36.6 Q 56.7 37.9, 54.5 37.9 Q 52.3 37.9, 51.1 36.6 Q 49.9 35.2, 49.9 32.7 M 54.5 36.8 Q 56.0 36.8, 56.9 35.8 Q 57.7 34.7, 57.7 32.7 Q 57.7 30.8, 56.9 29.8 Q 56.0 28.8, 54.5 28.8 Q 53.0 28.8, 52.1 29.7 Q 51.3 30.7, 51.3 32.7 Q 51.3 34.8, 52.1 35.8 Q 53.0 36.8, 54.5 36.8 " fill="#FF0000"/>
<path class="atom-22" d="M 38.1 93.0 Q 38.1 90.6, 39.3 89.2 Q 40.5 87.9, 42.7 87.9 Q 44.9 87.9, 46.1 89.2 Q 47.3 90.6, 47.3 93.0 Q 47.3 95.4, 46.1 96.8 Q 44.9 98.2, 42.7 98.2 Q 40.5 98.2, 39.3 96.8 Q 38.1 95.5, 38.1 93.0 M 42.7 97.1 Q 44.2 97.1, 45.1 96.1 Q 45.9 95.0, 45.9 93.0 Q 45.9 91.0, 45.1 90.0 Q 44.2 89.0, 42.7 89.0 Q 41.2 89.0, 40.3 90.0 Q 39.5 91.0, 39.5 93.0 Q 39.5 95.0, 40.3 96.1 Q 41.2 97.1, 42.7 97.1 " fill="#FF0000"/>
<path class="atom-23" d="M 16.4 148.3 L 17.8 148.3 L 17.8 152.6 L 22.9 152.6 L 22.9 148.3 L 24.3 148.3 L 24.3 158.3 L 22.9 158.3 L 22.9 153.7 L 17.8 153.7 L 17.8 158.3 L 16.4 158.3 L 16.4 148.3 " fill="#FF0000"/>
<path class="atom-23" d="M 26.3 153.3 Q 26.3 150.9, 27.5 149.5 Q 28.7 148.2, 30.9 148.2 Q 33.2 148.2, 34.3 149.5 Q 35.5 150.9, 35.5 153.3 Q 35.5 155.7, 34.3 157.1 Q 33.1 158.5, 30.9 158.5 Q 28.7 158.5, 27.5 157.1 Q 26.3 155.7, 26.3 153.3 M 30.9 157.4 Q 32.5 157.4, 33.3 156.3 Q 34.1 155.3, 34.1 153.3 Q 34.1 151.3, 33.3 150.3 Q 32.5 149.3, 30.9 149.3 Q 29.4 149.3, 28.6 150.3 Q 27.7 151.3, 27.7 153.3 Q 27.7 155.3, 28.6 156.3 Q 29.4 157.4, 30.9 157.4 " fill="#FF0000"/>
<path class="atom-25" d="M 35.9 61.3 Q 35.9 58.9, 37.1 57.5 Q 38.3 56.2, 40.5 56.2 Q 42.8 56.2, 43.9 57.5 Q 45.1 58.9, 45.1 61.3 Q 45.1 63.7, 43.9 65.1 Q 42.7 66.5, 40.5 66.5 Q 38.3 66.5, 37.1 65.1 Q 35.9 63.7, 35.9 61.3 M 40.5 65.4 Q 42.1 65.4, 42.9 64.3 Q 43.7 63.3, 43.7 61.3 Q 43.7 59.3, 42.9 58.3 Q 42.1 57.3, 40.5 57.3 Q 39.0 57.3, 38.2 58.3 Q 37.3 59.3, 37.3 61.3 Q 37.3 63.3, 38.2 64.3 Q 39.0 65.4, 40.5 65.4 " fill="#FF0000"/>
<path class="atom-26" d="M 37.7 111.7 L 39.1 111.7 L 39.1 116.0 L 44.2 116.0 L 44.2 111.7 L 45.6 111.7 L 45.6 121.8 L 44.2 121.8 L 44.2 117.1 L 39.1 117.1 L 39.1 121.8 L 37.7 121.8 L 37.7 111.7 " fill="#FF0000"/>
<path class="atom-26" d="M 47.6 116.7 Q 47.6 114.3, 48.8 112.9 Q 50.0 111.6, 52.2 111.6 Q 54.5 111.6, 55.7 112.9 Q 56.9 114.3, 56.9 116.7 Q 56.9 119.1, 55.7 120.5 Q 54.4 121.9, 52.2 121.9 Q 50.0 121.9, 48.8 120.5 Q 47.6 119.2, 47.6 116.7 M 52.2 120.8 Q 53.8 120.8, 54.6 119.8 Q 55.4 118.7, 55.4 116.7 Q 55.4 114.7, 54.6 113.7 Q 53.8 112.7, 52.2 112.7 Q 50.7 112.7, 49.9 113.7 Q 49.1 114.7, 49.1 116.7 Q 49.1 118.7, 49.9 119.8 Q 50.7 120.8, 52.2 120.8 " fill="#FF0000"/>
<path class="atom-28" d="M 260.3 78.3 Q 260.3 75.9, 261.4 74.6 Q 262.6 73.2, 264.9 73.2 Q 267.1 73.2, 268.3 74.6 Q 269.5 75.9, 269.5 78.3 Q 269.5 80.8, 268.3 82.2 Q 267.1 83.5, 264.9 83.5 Q 262.7 83.5, 261.4 82.2 Q 260.3 80.8, 260.3 78.3 M 264.9 82.4 Q 266.4 82.4, 267.2 81.4 Q 268.1 80.3, 268.1 78.3 Q 268.1 76.4, 267.2 75.4 Q 266.4 74.4, 264.9 74.4 Q 263.3 74.4, 262.5 75.4 Q 261.7 76.3, 261.7 78.3 Q 261.7 80.4, 262.5 81.4 Q 263.3 82.4, 264.9 82.4 " fill="#FF0000"/>
<path class="atom-29" d="M 213.3 46.6 Q 213.3 44.2, 214.5 42.8 Q 215.7 41.5, 217.9 41.5 Q 220.2 41.5, 221.4 42.8 Q 222.6 44.2, 222.6 46.6 Q 222.6 49.0, 221.3 50.4 Q 220.1 51.8, 217.9 51.8 Q 215.7 51.8, 214.5 50.4 Q 213.3 49.1, 213.3 46.6 M 217.9 50.7 Q 219.5 50.7, 220.3 49.7 Q 221.1 48.6, 221.1 46.6 Q 221.1 44.6, 220.3 43.6 Q 219.5 42.6, 217.9 42.6 Q 216.4 42.6, 215.6 43.6 Q 214.7 44.6, 214.7 46.6 Q 214.7 48.6, 215.6 49.7 Q 216.4 50.7, 217.9 50.7 " fill="#FF0000"/>
<path class="atom-29" d="M 224.1 41.6 L 225.5 41.6 L 225.5 45.9 L 230.6 45.9 L 230.6 41.6 L 232.0 41.6 L 232.0 51.7 L 230.6 51.7 L 230.6 47.0 L 225.5 47.0 L 225.5 51.7 L 224.1 51.7 L 224.1 41.6 " fill="#FF0000"/>
<path class="atom-31" d="M 302.2 72.4 Q 302.2 69.9, 303.4 68.6 Q 304.6 67.3, 306.8 67.3 Q 309.0 67.3, 310.2 68.6 Q 311.4 69.9, 311.4 72.4 Q 311.4 74.8, 310.2 76.2 Q 309.0 77.6, 306.8 77.6 Q 304.6 77.6, 303.4 76.2 Q 302.2 74.8, 302.2 72.4 M 306.8 76.4 Q 308.3 76.4, 309.1 75.4 Q 310.0 74.4, 310.0 72.4 Q 310.0 70.4, 309.1 69.4 Q 308.3 68.4, 306.8 68.4 Q 305.3 68.4, 304.4 69.4 Q 303.6 70.4, 303.6 72.4 Q 303.6 74.4, 304.4 75.4 Q 305.3 76.4, 306.8 76.4 " fill="#FF0000"/>
<path class="atom-32" d="M 232.0 55.6 L 233.3 55.6 L 233.3 59.9 L 238.5 59.9 L 238.5 55.6 L 239.8 55.6 L 239.8 65.6 L 238.5 65.6 L 238.5 61.0 L 233.3 61.0 L 233.3 65.6 L 232.0 65.6 L 232.0 55.6 " fill="#FF0000"/>
<path class="atom-32" d="M 241.9 60.6 Q 241.9 58.2, 243.1 56.8 Q 244.3 55.5, 246.5 55.5 Q 248.7 55.5, 249.9 56.8 Q 251.1 58.2, 251.1 60.6 Q 251.1 63.0, 249.9 64.4 Q 248.7 65.8, 246.5 65.8 Q 244.3 65.8, 243.1 64.4 Q 241.9 63.0, 241.9 60.6 M 246.5 64.6 Q 248.0 64.6, 248.9 63.6 Q 249.7 62.6, 249.7 60.6 Q 249.7 58.6, 248.9 57.6 Q 248.0 56.6, 246.5 56.6 Q 245.0 56.6, 244.1 57.6 Q 243.3 58.6, 243.3 60.6 Q 243.3 62.6, 244.1 63.6 Q 245.0 64.6, 246.5 64.6 " fill="#FF0000"/>
</g>
    <g transform="translate(657.0, 0) scale(1 1) "><line x1="15" y1="100" x2="25" y2="100" style="stroke:rgb(0,0,0);stroke-width:2"/>
  <line x1="20" y1="95" x2="20" y2="105" style="stroke:rgb(0,0,0);stroke-width:2"/>
</g>
    <g transform="translate(697.0, 0) scale(1 1) "><!-- END OF HEADER -->
<rect style="opacity:1.0;fill:#FFFFFF;stroke:none" width="215.0" height="200.0" x="0.0" y="0.0"> </rect>
<path class="bond-0 atom-0 atom-1" d="M 183.7,56.0 L 158.3,99.9" style="fill:none;fill-rule:evenodd;stroke:#000000;stroke-width:2.0px;stroke-linecap:butt;stroke-linejoin:miter;stroke-opacity:1"/>
<path class="bond-1 atom-1 atom-2" d="M 158.3,99.9 L 168.4,117.4" style="fill:none;fill-rule:evenodd;stroke:#000000;stroke-width:2.0px;stroke-linecap:butt;stroke-linejoin:miter;stroke-opacity:1"/>
<path class="bond-1 atom-1 atom-2" d="M 168.4,117.4 L 178.5,134.9" style="fill:none;fill-rule:evenodd;stroke:#FF0000;stroke-width:2.0px;stroke-linecap:butt;stroke-linejoin:miter;stroke-opacity:1"/>
<path class="bond-2 atom-1 atom-3" d="M 158.3,99.9 L 107.6,99.9" style="fill:none;fill-rule:evenodd;stroke:#000000;stroke-width:2.0px;stroke-linecap:butt;stroke-linejoin:miter;stroke-opacity:1"/>
<path class="bond-3 atom-3 atom-4" d="M 107.6,99.9 L 107.6,49.2" style="fill:none;fill-rule:evenodd;stroke:#000000;stroke-width:2.0px;stroke-linecap:butt;stroke-linejoin:miter;stroke-opacity:1"/>
<path class="bond-4 atom-3 atom-5" d="M 107.6,99.9 L 107.6,150.6" style="fill:none;fill-rule:evenodd;stroke:#000000;stroke-width:2.0px;stroke-linecap:butt;stroke-linejoin:miter;stroke-opacity:1"/>
<path class="bond-5 atom-3 atom-6" d="M 107.6,99.9 L 56.9,99.9" style="fill:none;fill-rule:evenodd;stroke:#000000;stroke-width:2.0px;stroke-linecap:butt;stroke-linejoin:miter;stroke-opacity:1"/>
<path class="bond-6 atom-6 atom-7" d="M 54.7,96.1 L 44.0,114.5" style="fill:none;fill-rule:evenodd;stroke:#000000;stroke-width:2.0px;stroke-linecap:butt;stroke-linejoin:miter;stroke-opacity:1"/>
<path class="bond-6 atom-6 atom-7" d="M 44.0,114.5 L 33.4,133.0" style="fill:none;fill-rule:evenodd;stroke:#FF0000;stroke-width:2.0px;stroke-linecap:butt;stroke-linejoin:miter;stroke-opacity:1"/>
<path class="bond-6 atom-6 atom-7" d="M 61.3,99.9 L 50.6,118.3" style="fill:none;fill-rule:evenodd;stroke:#000000;stroke-width:2.0px;stroke-linecap:butt;stroke-linejoin:miter;stroke-opacity:1"/>
<path class="bond-6 atom-6 atom-7" d="M 50.6,118.3 L 40.0,136.8" style="fill:none;fill-rule:evenodd;stroke:#FF0000;stroke-width:2.0px;stroke-linecap:butt;stroke-linejoin:miter;stroke-opacity:1"/>
<path class="bond-7 atom-6 atom-8" d="M 56.9,99.9 L 46.9,82.5" style="fill:none;fill-rule:evenodd;stroke:#000000;stroke-width:2.0px;stroke-linecap:butt;stroke-linejoin:miter;stroke-opacity:1"/>
<path class="bond-7 atom-6 atom-8" d="M 46.9,82.5 L 36.8,65.1" style="fill:none;fill-rule:evenodd;stroke:#FF0000;stroke-width:2.0px;stroke-linecap:butt;stroke-linejoin:miter;stroke-opacity:1"/>
<path d="M 59.4,99.9 L 56.9,99.9 L 56.4,99.0" style="fill:none;stroke:#000000;stroke-width:2.0px;stroke-linecap:butt;stroke-linejoin:miter;stroke-opacity:1;"/>
<path class="atom-2" d="M 177.1 143.9 Q 177.1 140.4, 178.8 138.5 Q 180.5 136.5, 183.7 136.5 Q 186.9 136.5, 188.6 138.5 Q 190.3 140.4, 190.3 143.9 Q 190.3 147.3, 188.6 149.3 Q 186.8 151.3, 183.7 151.3 Q 180.5 151.3, 178.8 149.3 Q 177.1 147.4, 177.1 143.9 M 183.7 149.7 Q 185.9 149.7, 187.0 148.2 Q 188.2 146.7, 188.2 143.9 Q 188.2 141.0, 187.0 139.6 Q 185.9 138.2, 183.7 138.2 Q 181.5 138.2, 180.3 139.6 Q 179.1 141.0, 179.1 143.9 Q 179.1 146.8, 180.3 148.2 Q 181.5 149.7, 183.7 149.7 " fill="#FF0000"/>
<path class="atom-2" d="M 192.5 136.7 L 194.5 136.7 L 194.5 142.8 L 201.8 142.8 L 201.8 136.7 L 203.7 136.7 L 203.7 151.1 L 201.8 151.1 L 201.8 144.4 L 194.5 144.4 L 194.5 151.1 L 192.5 151.1 L 192.5 136.7 " fill="#FF0000"/>
<path class="atom-7" d="M 24.9 143.9 Q 24.9 140.4, 26.6 138.5 Q 28.3 136.5, 31.5 136.5 Q 34.7 136.5, 36.4 138.5 Q 38.1 140.4, 38.1 143.9 Q 38.1 147.3, 36.4 149.3 Q 34.7 151.3, 31.5 151.3 Q 28.4 151.3, 26.6 149.3 Q 24.9 147.4, 24.9 143.9 M 31.5 149.7 Q 33.7 149.7, 34.9 148.2 Q 36.1 146.7, 36.1 143.9 Q 36.1 141.0, 34.9 139.6 Q 33.7 138.2, 31.5 138.2 Q 29.3 138.2, 28.1 139.6 Q 27.0 141.0, 27.0 143.9 Q 27.0 146.8, 28.1 148.2 Q 29.3 149.7, 31.5 149.7 " fill="#FF0000"/>
<path class="atom-8" d="M 10.7 48.9 L 12.7 48.9 L 12.7 55.0 L 20.0 55.0 L 20.0 48.9 L 22.0 48.9 L 22.0 63.2 L 20.0 63.2 L 20.0 56.6 L 12.7 56.6 L 12.7 63.2 L 10.7 63.2 L 10.7 48.9 " fill="#FF0000"/>
<path class="atom-8" d="M 24.9 56.0 Q 24.9 52.6, 26.6 50.6 Q 28.3 48.7, 31.5 48.7 Q 34.7 48.7, 36.4 50.6 Q 38.1 52.6, 38.1 56.0 Q 38.1 59.5, 36.4 61.5 Q 34.7 63.5, 31.5 63.5 Q 28.4 63.5, 26.6 61.5 Q 24.9 59.5, 24.9 56.0 M 31.5 61.8 Q 33.7 61.8, 34.9 60.4 Q 36.1 58.9, 36.1 56.0 Q 36.1 53.2, 34.9 51.8 Q 33.7 50.3, 31.5 50.3 Q 29.3 50.3, 28.1 51.7 Q 27.0 53.2, 27.0 56.0 Q 27.0 58.9, 28.1 60.4 Q 29.3 61.8, 31.5 61.8 " fill="#FF0000"/>
</g>
  </g>
</svg>
