<?xml version='1.0' encoding='ASCII' standalone='yes'?>
<svg xmlns="http://www.w3.org/2000/svg" xmlns:xlink="http://www.w3.org/1999/xlink" version="1.1" width="860.0px" viewBox="0 0 860.0 200.0" height="200.0px">
  <g>
    <g transform="translate(0, 0) scale(1 1) "><!-- END OF HEADER -->
<rect style="opacity:1.0;fill:#FFFFFF;stroke:none" width="260.0" height="200.0" x="0.0" y="0.0"> </rect>
<path class="bond-0 atom-0 atom-1" d="M 195.7,55.6 L 177.7,88.2" style="fill:none;fill-rule:evenodd;stroke:#000000;stroke-width:2.0px;stroke-linecap:butt;stroke-linejoin:miter;stroke-opacity:1"/>
<path class="bond-1 atom-1 atom-2" d="M 177.7,88.2 L 159.8,120.8" style="fill:none;fill-rule:evenodd;stroke:#000000;stroke-width:2.0px;stroke-linecap:butt;stroke-linejoin:miter;stroke-opacity:1"/>
<path class="bond-2 atom-1 atom-3" d="M 177.7,88.2 L 145.1,70.3" style="fill:none;fill-rule:evenodd;stroke:#000000;stroke-width:2.0px;stroke-linecap:butt;stroke-linejoin:miter;stroke-opacity:1"/>
<path class="bond-3 atom-3 atom-4" d="M 145.1,70.3 L 132.2,78.1" style="fill:none;fill-rule:evenodd;stroke:#000000;stroke-width:2.0px;stroke-linecap:butt;stroke-linejoin:miter;stroke-opacity:1"/>
<path class="bond-3 atom-3 atom-4" d="M 132.2,78.1 L 119.4,85.9" style="fill:none;fill-rule:evenodd;stroke:#FF0000;stroke-width:2.0px;stroke-linecap:butt;stroke-linejoin:miter;stroke-opacity:1"/>
<path class="bond-4 atom-4 atom-5" d="M 107.2,86.2 L 94.0,78.9" style="fill:none;fill-rule:evenodd;stroke:#FF0000;stroke-width:2.0px;stroke-linecap:butt;stroke-linejoin:miter;stroke-opacity:1"/>
<path class="bond-4 atom-4 atom-5" d="M 94.0,78.9 L 80.7,71.6" style="fill:none;fill-rule:evenodd;stroke:#000000;stroke-width:2.0px;stroke-linecap:butt;stroke-linejoin:miter;stroke-opacity:1"/>
<path class="bond-5 atom-5 atom-6" d="M 83.5,73.2 L 83.2,57.1" style="fill:none;fill-rule:evenodd;stroke:#000000;stroke-width:2.0px;stroke-linecap:butt;stroke-linejoin:miter;stroke-opacity:1"/>
<path class="bond-5 atom-5 atom-6" d="M 83.2,57.1 L 82.8,41.1" style="fill:none;fill-rule:evenodd;stroke:#FF0000;stroke-width:2.0px;stroke-linecap:butt;stroke-linejoin:miter;stroke-opacity:1"/>
<path class="bond-5 atom-5 atom-6" d="M 77.9,73.3 L 77.6,57.3" style="fill:none;fill-rule:evenodd;stroke:#000000;stroke-width:2.0px;stroke-linecap:butt;stroke-linejoin:miter;stroke-opacity:1"/>
<path class="bond-5 atom-5 atom-6" d="M 77.6,57.3 L 77.3,41.2" style="fill:none;fill-rule:evenodd;stroke:#FF0000;stroke-width:2.0px;stroke-linecap:butt;stroke-linejoin:miter;stroke-opacity:1"/>
<path class="bond-6 atom-5 atom-7" d="M 80.7,71.6 L 48.9,90.9" style="fill:none;fill-rule:evenodd;stroke:#000000;stroke-width:2.0px;stroke-linecap:butt;stroke-linejoin:miter;stroke-opacity:1"/>
<path class="bond-7 atom-7 atom-8" d="M 48.9,90.9 L 29.6,59.1" style="fill:none;fill-rule:evenodd;stroke:#000000;stroke-width:2.0px;stroke-linecap:butt;stroke-linejoin:miter;stroke-opacity:1"/>
<path class="bond-8 atom-7 atom-9" d="M 48.9,90.9 L 68.2,122.7" style="fill:none;fill-rule:evenodd;stroke:#000000;stroke-width:2.0px;stroke-linecap:butt;stroke-linejoin:miter;stroke-opacity:1"/>
<path class="bond-9 atom-7 atom-10" d="M 48.9,90.9 L 17.1,110.2" style="fill:none;fill-rule:evenodd;stroke:#000000;stroke-width:2.0px;stroke-linecap:butt;stroke-linejoin:miter;stroke-opacity:1"/>
<path class="bond-10 atom-10 atom-11" d="M 17.1,110.2 L 17.4,125.5" style="fill:none;fill-rule:evenodd;stroke:#000000;stroke-width:2.0px;stroke-linecap:butt;stroke-linejoin:miter;stroke-opacity:1"/>
<path class="bond-10 atom-10 atom-11" d="M 17.4,125.5 L 17.7,140.8" style="fill:none;fill-rule:evenodd;stroke:#FF0000;stroke-width:2.0px;stroke-linecap:butt;stroke-linejoin:miter;stroke-opacity:1"/>
<path class="bond-11 atom-1 atom-12" d="M 177.7,88.2 L 210.3,106.1" style="fill:none;fill-rule:evenodd;stroke:#000000;stroke-width:2.0px;stroke-linecap:butt;stroke-linejoin:miter;stroke-opacity:1"/>
<path class="bond-12 atom-12 atom-13" d="M 210.4,109.3 L 224.0,101.1" style="fill:none;fill-rule:evenodd;stroke:#000000;stroke-width:2.0px;stroke-linecap:butt;stroke-linejoin:miter;stroke-opacity:1"/>
<path class="bond-12 atom-12 atom-13" d="M 224.0,101.1 L 237.5,92.9" style="fill:none;fill-rule:evenodd;stroke:#FF0000;stroke-width:2.0px;stroke-linecap:butt;stroke-linejoin:miter;stroke-opacity:1"/>
<path class="bond-12 atom-12 atom-13" d="M 207.5,104.6 L 221.1,96.3" style="fill:none;fill-rule:evenodd;stroke:#000000;stroke-width:2.0px;stroke-linecap:butt;stroke-linejoin:miter;stroke-opacity:1"/>
<path class="bond-12 atom-12 atom-13" d="M 221.1,96.3 L 234.7,88.1" style="fill:none;fill-rule:evenodd;stroke:#FF0000;stroke-width:2.0px;stroke-linecap:butt;stroke-linejoin:miter;stroke-opacity:1"/>
<path class="bond-13 atom-12 atom-14" d="M 210.3,106.1 L 210.7,121.4" style="fill:none;fill-rule:evenodd;stroke:#000000;stroke-width:2.0px;stroke-linecap:butt;stroke-linejoin:miter;stroke-opacity:1"/>
<path class="bond-13 atom-12 atom-14" d="M 210.7,121.4 L 211.0,136.8" style="fill:none;fill-rule:evenodd;stroke:#FF0000;stroke-width:2.0px;stroke-linecap:butt;stroke-linejoin:miter;stroke-opacity:1"/>
<path d="M 146.8,71.2 L 145.1,70.3 L 144.5,70.7" style="fill:none;stroke:#000000;stroke-width:2.0px;stroke-linecap:butt;stroke-linejoin:miter;stroke-opacity:1;"/>
<path d="M 81.4,72.0 L 80.7,71.6 L 79.1,72.6" style="fill:none;stroke:#000000;stroke-width:2.0px;stroke-linecap:butt;stroke-linejoin:miter;stroke-opacity:1;"/>
<path d="M 18.6,109.2 L 17.1,110.2 L 17.1,111.0" style="fill:none;stroke:#000000;stroke-width:2.0px;stroke-linecap:butt;stroke-linejoin:miter;stroke-opacity:1;"/>
<path d="M 208.7,105.2 L 210.3,106.1 L 210.4,106.9" style="fill:none;stroke:#000000;stroke-width:2.0px;stroke-linecap:butt;stroke-linejoin:miter;stroke-opacity:1;"/>
<path class="atom-4" d="M 108.5 89.6 Q 108.5 87.1, 109.7 85.6 Q 111.0 84.2, 113.3 84.2 Q 115.6 84.2, 116.9 85.6 Q 118.1 87.1, 118.1 89.6 Q 118.1 92.1, 116.9 93.6 Q 115.6 95.0, 113.3 95.0 Q 111.0 95.0, 109.7 93.6 Q 108.5 92.2, 108.5 89.6 M 113.3 93.9 Q 114.9 93.9, 115.8 92.8 Q 116.7 91.7, 116.7 89.6 Q 116.7 87.5, 115.8 86.5 Q 114.9 85.4, 113.3 85.4 Q 111.7 85.4, 110.8 86.5 Q 110.0 87.5, 110.0 89.6 Q 110.0 91.7, 110.8 92.8 Q 111.7 93.9, 113.3 93.9 " fill="#FF0000"/>
<path class="atom-6" d="M 75.1 34.5 Q 75.1 31.9, 76.3 30.5 Q 77.6 29.1, 79.9 29.1 Q 82.2 29.1, 83.5 30.5 Q 84.7 31.9, 84.7 34.5 Q 84.7 37.0, 83.5 38.5 Q 82.2 39.9, 79.9 39.9 Q 77.6 39.9, 76.3 38.5 Q 75.1 37.0, 75.1 34.5 M 79.9 38.7 Q 81.5 38.7, 82.4 37.7 Q 83.3 36.6, 83.3 34.5 Q 83.3 32.4, 82.4 31.4 Q 81.5 30.3, 79.9 30.3 Q 78.3 30.3, 77.4 31.3 Q 76.6 32.4, 76.6 34.5 Q 76.6 36.6, 77.4 37.7 Q 78.3 38.7, 79.9 38.7 " fill="#FF0000"/>
<path class="atom-11" d="M 13.0 147.4 Q 13.0 144.9, 14.3 143.5 Q 15.5 142.1, 17.8 142.1 Q 20.2 142.1, 21.4 143.5 Q 22.7 144.9, 22.7 147.4 Q 22.7 150.0, 21.4 151.4 Q 20.1 152.9, 17.8 152.9 Q 15.5 152.9, 14.3 151.4 Q 13.0 150.0, 13.0 147.4 M 17.8 151.7 Q 19.4 151.7, 20.3 150.6 Q 21.2 149.5, 21.2 147.4 Q 21.2 145.4, 20.3 144.3 Q 19.4 143.3, 17.8 143.3 Q 16.2 143.3, 15.4 144.3 Q 14.5 145.3, 14.5 147.4 Q 14.5 149.6, 15.4 150.6 Q 16.2 151.7, 17.8 151.7 " fill="#FF0000"/>
<path class="atom-11" d="M 24.3 142.2 L 25.7 142.2 L 25.7 146.7 L 31.1 146.7 L 31.1 142.2 L 32.6 142.2 L 32.6 152.7 L 31.1 152.7 L 31.1 147.9 L 25.7 147.9 L 25.7 152.7 L 24.3 152.7 L 24.3 142.2 " fill="#FF0000"/>
<path class="atom-13" d="M 237.3 86.9 Q 237.3 84.3, 238.6 82.9 Q 239.8 81.5, 242.2 81.5 Q 244.5 81.5, 245.7 82.9 Q 247.0 84.3, 247.0 86.9 Q 247.0 89.4, 245.7 90.9 Q 244.5 92.3, 242.2 92.3 Q 239.8 92.3, 238.6 90.9 Q 237.3 89.4, 237.3 86.9 M 242.2 91.1 Q 243.8 91.1, 244.6 90.1 Q 245.5 89.0, 245.5 86.9 Q 245.5 84.8, 244.6 83.8 Q 243.8 82.7, 242.2 82.7 Q 240.6 82.7, 239.7 83.7 Q 238.8 84.8, 238.8 86.9 Q 238.8 89.0, 239.7 90.1 Q 240.6 91.1, 242.2 91.1 " fill="#FF0000"/>
<path class="atom-14" d="M 206.3 143.3 Q 206.3 140.8, 207.5 139.4 Q 208.8 138.0, 211.1 138.0 Q 213.5 138.0, 214.7 139.4 Q 216.0 140.8, 216.0 143.3 Q 216.0 145.9, 214.7 147.4 Q 213.4 148.8, 211.1 148.8 Q 208.8 148.8, 207.5 147.4 Q 206.3 145.9, 206.3 143.3 M 211.1 147.6 Q 212.7 147.6, 213.6 146.5 Q 214.5 145.5, 214.5 143.3 Q 214.5 141.3, 213.6 140.2 Q 212.7 139.2, 211.1 139.2 Q 209.5 139.2, 208.6 140.2 Q 207.8 141.3, 207.8 143.3 Q 207.8 145.5, 208.6 146.5 Q 209.5 147.6, 211.1 147.6 " fill="#FF0000"/>
<path class="atom-14" d="M 217.6 138.1 L 219.0 138.1 L 219.0 142.6 L 224.4 142.6 L 224.4 138.1 L 225.8 138.1 L 225.8 148.6 L 224.4 148.6 L 224.4 143.8 L 219.0 143.8 L 219.0 148.6 L 217.6 148.6 L 217.6 138.1 " fill="#FF0000"/>
<path class="legend" d="M 121.5 181.9 Q 121.5 179.6, 122.2 177.7 Q 122.8 175.8, 124.1 173.8 L 125.0 174.4 Q 124.0 176.3, 123.4 178.0 Q 122.9 179.7, 122.9 181.9 Q 122.9 184.0, 123.4 185.8 Q 124.0 187.5, 125.0 189.4 L 124.1 190.0 Q 122.8 188.0, 122.2 186.1 Q 121.5 184.2, 121.5 181.9 " fill="#000000"/>
<path class="legend" d="M 125.9 177.3 Q 126.4 176.2, 127.3 175.6 Q 128.3 175.0, 129.7 175.0 Q 131.4 175.0, 132.4 175.9 Q 133.3 176.8, 133.3 178.5 Q 133.3 180.2, 132.1 181.7 Q 130.9 183.3, 128.3 185.2 L 133.5 185.2 L 133.5 186.4 L 125.9 186.4 L 125.9 185.4 Q 128.0 183.9, 129.3 182.8 Q 130.5 181.6, 131.1 180.6 Q 131.7 179.6, 131.7 178.6 Q 131.7 177.5, 131.2 176.9 Q 130.7 176.3, 129.7 176.3 Q 128.8 176.3, 128.2 176.6 Q 127.6 177.0, 127.2 177.8 L 125.9 177.3 " fill="#000000"/>
<path class="legend" d="M 138.5 181.9 Q 138.5 184.2, 137.8 186.1 Q 137.2 188.0, 135.9 190.0 L 135.0 189.4 Q 136.0 187.5, 136.5 185.8 Q 137.1 184.0, 137.1 181.9 Q 137.1 179.7, 136.5 178.0 Q 136.0 176.3, 135.0 174.4 L 135.9 173.8 Q 137.2 175.8, 137.8 177.7 Q 138.5 179.6, 138.5 181.9 " fill="#000000"/>
</g>
    <g transform="translate(260.0, 0) scale(1 1) "><line x1="5" y1="100" x2="35" y2="100" style="stroke:rgb(0,0,0);stroke-width:2"/>
  <line x1="34" y1="100" x2="29" y2="95" style="stroke:rgb(0,0,0);stroke-width:2"/>
  <line x1="34" y1="100" x2="29" y2="105" style="stroke:rgb(0,0,0);stroke-width:2"/>
</g>
    <g transform="translate(300.0, 0) scale(1 1) "><!-- END OF HEADER -->
<rect style="opacity:1.0;fill:#FFFFFF;stroke:none" width="260.0" height="200.0" x="0.0" y="0.0"> </rect>
<path class="bond-0 atom-0 atom-1" d="M 27.0,67.7 L 46.5,99.9" style="fill:none;fill-rule:evenodd;stroke:#000000;stroke-width:2.0px;stroke-linecap:butt;stroke-linejoin:miter;stroke-opacity:1"/>
<path class="bond-1 atom-1 atom-2" d="M 46.5,99.9 L 66.0,132.2" style="fill:none;fill-rule:evenodd;stroke:#000000;stroke-width:2.0px;stroke-linecap:butt;stroke-linejoin:miter;stroke-opacity:1"/>
<path class="bond-2 atom-1 atom-3" d="M 46.5,99.9 L 14.3,119.5" style="fill:none;fill-rule:evenodd;stroke:#000000;stroke-width:2.0px;stroke-linecap:butt;stroke-linejoin:miter;stroke-opacity:1"/>
<path class="bond-3 atom-3 atom-4" d="M 14.3,119.5 L 14.6,135.0" style="fill:none;fill-rule:evenodd;stroke:#000000;stroke-width:2.0px;stroke-linecap:butt;stroke-linejoin:miter;stroke-opacity:1"/>
<path class="bond-3 atom-3 atom-4" d="M 14.6,135.0 L 14.9,150.5" style="fill:none;fill-rule:evenodd;stroke:#FF0000;stroke-width:2.0px;stroke-linecap:butt;stroke-linejoin:miter;stroke-opacity:1"/>
<path class="bond-3 atom-3 atom-4" d="M 20.0,122.6 L 20.3,134.8" style="fill:none;fill-rule:evenodd;stroke:#000000;stroke-width:2.0px;stroke-linecap:butt;stroke-linejoin:miter;stroke-opacity:1"/>
<path class="bond-3 atom-3 atom-4" d="M 20.3,134.8 L 20.6,150.4" style="fill:none;fill-rule:evenodd;stroke:#FF0000;stroke-width:2.0px;stroke-linecap:butt;stroke-linejoin:miter;stroke-opacity:1"/>
<path class="bond-4 atom-1 atom-5" d="M 46.5,99.9 L 78.7,80.4" style="fill:none;fill-rule:evenodd;stroke:#000000;stroke-width:2.0px;stroke-linecap:butt;stroke-linejoin:miter;stroke-opacity:1"/>
<path class="bond-5 atom-5 atom-6" d="M 81.5,82.0 L 81.2,65.8" style="fill:none;fill-rule:evenodd;stroke:#000000;stroke-width:2.0px;stroke-linecap:butt;stroke-linejoin:miter;stroke-opacity:1"/>
<path class="bond-5 atom-5 atom-6" d="M 81.2,65.8 L 80.9,49.5" style="fill:none;fill-rule:evenodd;stroke:#FF0000;stroke-width:2.0px;stroke-linecap:butt;stroke-linejoin:miter;stroke-opacity:1"/>
<path class="bond-5 atom-5 atom-6" d="M 75.9,82.1 L 75.6,65.9" style="fill:none;fill-rule:evenodd;stroke:#000000;stroke-width:2.0px;stroke-linecap:butt;stroke-linejoin:miter;stroke-opacity:1"/>
<path class="bond-5 atom-5 atom-6" d="M 75.6,65.9 L 75.2,49.6" style="fill:none;fill-rule:evenodd;stroke:#FF0000;stroke-width:2.0px;stroke-linecap:butt;stroke-linejoin:miter;stroke-opacity:1"/>
<path class="bond-6 atom-5 atom-7" d="M 78.7,80.4 L 92.1,87.8" style="fill:none;fill-rule:evenodd;stroke:#000000;stroke-width:2.0px;stroke-linecap:butt;stroke-linejoin:miter;stroke-opacity:1"/>
<path class="bond-6 atom-5 atom-7" d="M 92.1,87.8 L 105.6,95.2" style="fill:none;fill-rule:evenodd;stroke:#FF0000;stroke-width:2.0px;stroke-linecap:butt;stroke-linejoin:miter;stroke-opacity:1"/>
<path class="bond-7 atom-7 atom-8" d="M 117.8,94.9 L 130.9,87.0" style="fill:none;fill-rule:evenodd;stroke:#FF0000;stroke-width:2.0px;stroke-linecap:butt;stroke-linejoin:miter;stroke-opacity:1"/>
<path class="bond-7 atom-7 atom-8" d="M 130.9,87.0 L 143.9,79.1" style="fill:none;fill-rule:evenodd;stroke:#000000;stroke-width:2.0px;stroke-linecap:butt;stroke-linejoin:miter;stroke-opacity:1"/>
<path class="bond-8 atom-8 atom-9" d="M 143.9,79.1 L 176.9,97.2" style="fill:none;fill-rule:evenodd;stroke:#000000;stroke-width:2.0px;stroke-linecap:butt;stroke-linejoin:miter;stroke-opacity:1"/>
<path class="bond-9 atom-9 atom-10" d="M 176.9,97.2 L 158.8,130.2" style="fill:none;fill-rule:evenodd;stroke:#000000;stroke-width:2.0px;stroke-linecap:butt;stroke-linejoin:miter;stroke-opacity:1"/>
<path class="bond-10 atom-9 atom-11" d="M 176.9,97.2 L 195.0,64.2" style="fill:none;fill-rule:evenodd;stroke:#000000;stroke-width:2.0px;stroke-linecap:butt;stroke-linejoin:miter;stroke-opacity:1"/>
<path class="bond-11 atom-9 atom-12" d="M 176.9,97.2 L 209.9,115.3" style="fill:none;fill-rule:evenodd;stroke:#000000;stroke-width:2.0px;stroke-linecap:butt;stroke-linejoin:miter;stroke-opacity:1"/>
<path class="bond-12 atom-12 atom-13" d="M 210.0,118.6 L 223.7,110.3" style="fill:none;fill-rule:evenodd;stroke:#000000;stroke-width:2.0px;stroke-linecap:butt;stroke-linejoin:miter;stroke-opacity:1"/>
<path class="bond-12 atom-12 atom-13" d="M 223.7,110.3 L 237.4,102.0" style="fill:none;fill-rule:evenodd;stroke:#FF0000;stroke-width:2.0px;stroke-linecap:butt;stroke-linejoin:miter;stroke-opacity:1"/>
<path class="bond-12 atom-12 atom-13" d="M 207.0,113.8 L 220.8,105.4" style="fill:none;fill-rule:evenodd;stroke:#000000;stroke-width:2.0px;stroke-linecap:butt;stroke-linejoin:miter;stroke-opacity:1"/>
<path class="bond-12 atom-12 atom-13" d="M 220.8,105.4 L 234.5,97.1" style="fill:none;fill-rule:evenodd;stroke:#FF0000;stroke-width:2.0px;stroke-linecap:butt;stroke-linejoin:miter;stroke-opacity:1"/>
<path class="bond-13 atom-12 atom-14" d="M 209.9,115.3 L 210.2,130.8" style="fill:none;fill-rule:evenodd;stroke:#000000;stroke-width:2.0px;stroke-linecap:butt;stroke-linejoin:miter;stroke-opacity:1"/>
<path class="bond-13 atom-12 atom-14" d="M 210.2,130.8 L 210.6,146.3" style="fill:none;fill-rule:evenodd;stroke:#FF0000;stroke-width:2.0px;stroke-linecap:butt;stroke-linejoin:miter;stroke-opacity:1"/>
<path d="M 15.9,118.5 L 14.3,119.5 L 14.3,120.2" style="fill:none;stroke:#000000;stroke-width:2.0px;stroke-linecap:butt;stroke-linejoin:miter;stroke-opacity:1;"/>
<path d="M 77.1,81.4 L 78.7,80.4 L 79.4,80.8" style="fill:none;stroke:#000000;stroke-width:2.0px;stroke-linecap:butt;stroke-linejoin:miter;stroke-opacity:1;"/>
<path d="M 143.2,79.5 L 143.9,79.1 L 145.5,80.0" style="fill:none;stroke:#000000;stroke-width:2.0px;stroke-linecap:butt;stroke-linejoin:miter;stroke-opacity:1;"/>
<path d="M 208.2,114.4 L 209.9,115.3 L 209.9,116.1" style="fill:none;stroke:#000000;stroke-width:2.0px;stroke-linecap:butt;stroke-linejoin:miter;stroke-opacity:1;"/>
<path class="atom-4" d="M 13.0 157.1 Q 13.0 154.5, 14.3 153.1 Q 15.5 151.7, 17.9 151.7 Q 20.3 151.7, 21.5 153.1 Q 22.8 154.5, 22.8 157.1 Q 22.8 159.7, 21.5 161.1 Q 20.2 162.6, 17.9 162.6 Q 15.5 162.6, 14.3 161.1 Q 13.0 159.7, 13.0 157.1 M 17.9 161.4 Q 19.5 161.4, 20.4 160.3 Q 21.3 159.2, 21.3 157.1 Q 21.3 155.0, 20.4 153.9 Q 19.5 152.9, 17.9 152.9 Q 16.3 152.9, 15.4 153.9 Q 14.5 155.0, 14.5 157.1 Q 14.5 159.2, 15.4 160.3 Q 16.3 161.4, 17.9 161.4 " fill="#FF0000"/>
<path class="atom-6" d="M 73.0 42.8 Q 73.0 40.3, 74.3 38.8 Q 75.5 37.4, 77.9 37.4 Q 80.3 37.4, 81.5 38.8 Q 82.8 40.3, 82.8 42.8 Q 82.8 45.4, 81.5 46.9 Q 80.2 48.3, 77.9 48.3 Q 75.5 48.3, 74.3 46.9 Q 73.0 45.4, 73.0 42.8 M 77.9 47.1 Q 79.5 47.1, 80.4 46.1 Q 81.3 45.0, 81.3 42.8 Q 81.3 40.7, 80.4 39.7 Q 79.5 38.6, 77.9 38.6 Q 76.3 38.6, 75.4 39.7 Q 74.5 40.7, 74.5 42.8 Q 74.5 45.0, 75.4 46.1 Q 76.3 47.1, 77.9 47.1 " fill="#FF0000"/>
<path class="atom-7" d="M 106.8 98.6 Q 106.8 96.0, 108.1 94.6 Q 109.3 93.2, 111.7 93.2 Q 114.1 93.2, 115.3 94.6 Q 116.6 96.0, 116.6 98.6 Q 116.6 101.2, 115.3 102.7 Q 114.0 104.1, 111.7 104.1 Q 109.3 104.1, 108.1 102.7 Q 106.8 101.2, 106.8 98.6 M 111.7 102.9 Q 113.3 102.9, 114.2 101.8 Q 115.1 100.7, 115.1 98.6 Q 115.1 96.5, 114.2 95.5 Q 113.3 94.4, 111.7 94.4 Q 110.1 94.4, 109.2 95.4 Q 108.3 96.5, 108.3 98.6 Q 108.3 100.8, 109.2 101.8 Q 110.1 102.9, 111.7 102.9 " fill="#FF0000"/>
<path class="atom-13" d="M 237.2 95.8 Q 237.2 93.3, 238.5 91.9 Q 239.7 90.4, 242.1 90.4 Q 244.5 90.4, 245.7 91.9 Q 247.0 93.3, 247.0 95.8 Q 247.0 98.4, 245.7 99.9 Q 244.4 101.4, 242.1 101.4 Q 239.8 101.4, 238.5 99.9 Q 237.2 98.5, 237.2 95.8 M 242.1 100.2 Q 243.7 100.2, 244.6 99.1 Q 245.5 98.0, 245.5 95.8 Q 245.5 93.8, 244.6 92.7 Q 243.7 91.6, 242.1 91.6 Q 240.5 91.6, 239.6 92.7 Q 238.7 93.7, 238.7 95.8 Q 238.7 98.0, 239.6 99.1 Q 240.5 100.2, 242.1 100.2 " fill="#FF0000"/>
<path class="atom-14" d="M 205.8 153.0 Q 205.8 150.4, 207.1 149.0 Q 208.3 147.6, 210.7 147.6 Q 213.1 147.6, 214.3 149.0 Q 215.6 150.4, 215.6 153.0 Q 215.6 155.6, 214.3 157.1 Q 213.0 158.5, 210.7 158.5 Q 208.3 158.5, 207.1 157.1 Q 205.8 155.6, 205.8 153.0 M 210.7 157.3 Q 212.3 157.3, 213.2 156.2 Q 214.1 155.1, 214.1 153.0 Q 214.1 150.9, 213.2 149.9 Q 212.3 148.8, 210.7 148.8 Q 209.1 148.8, 208.2 149.8 Q 207.3 150.9, 207.3 153.0 Q 207.3 155.2, 208.2 156.2 Q 209.1 157.3, 210.7 157.3 " fill="#FF0000"/>
<path class="atom-14" d="M 217.2 147.7 L 218.7 147.7 L 218.7 152.2 L 224.1 152.2 L 224.1 147.7 L 225.6 147.7 L 225.6 158.4 L 224.1 158.4 L 224.1 153.4 L 218.7 153.4 L 218.7 158.4 L 217.2 158.4 L 217.2 147.7 " fill="#FF0000"/>
</g>
    <g transform="translate(560.0, 0) scale(1 1) "><line x1="15" y1="100" x2="25" y2="100" style="stroke:rgb(0,0,0);stroke-width:2"/>
  <line x1="20" y1="95" x2="20" y2="105" style="stroke:rgb(0,0,0);stroke-width:2"/>
</g>
    <g transform="translate(600.0, 0) scale(1 1) "><!-- END OF HEADER -->
<rect style="opacity:1.0;fill:#FFFFFF;stroke:none" width="260.0" height="200.0" x="0.0" y="0.0"> </rect>
<path class="bond-0 atom-0 atom-1" d="M 195.7,64.6 L 177.7,97.2" style="fill:none;fill-rule:evenodd;stroke:#000000;stroke-width:2.0px;stroke-linecap:butt;stroke-linejoin:miter;stroke-opacity:1"/>
<path class="bond-1 atom-1 atom-2" d="M 177.7,97.2 L 159.8,129.8" style="fill:none;fill-rule:evenodd;stroke:#000000;stroke-width:2.0px;stroke-linecap:butt;stroke-linejoin:miter;stroke-opacity:1"/>
<path class="bond-2 atom-1 atom-3" d="M 177.7,97.2 L 145.1,79.3" style="fill:none;fill-rule:evenodd;stroke:#000000;stroke-width:2.0px;stroke-linecap:butt;stroke-linejoin:miter;stroke-opacity:1"/>
<path class="bond-3 atom-3 atom-4" d="M 145.1,79.3 L 132.2,87.1" style="fill:none;fill-rule:evenodd;stroke:#000000;stroke-width:2.0px;stroke-linecap:butt;stroke-linejoin:miter;stroke-opacity:1"/>
<path class="bond-3 atom-3 atom-4" d="M 132.2,87.1 L 119.4,94.9" style="fill:none;fill-rule:evenodd;stroke:#FF0000;stroke-width:2.0px;stroke-linecap:butt;stroke-linejoin:miter;stroke-opacity:1"/>
<path class="bond-4 atom-4 atom-5" d="M 107.2,95.2 L 94.0,87.9" style="fill:none;fill-rule:evenodd;stroke:#FF0000;stroke-width:2.0px;stroke-linecap:butt;stroke-linejoin:miter;stroke-opacity:1"/>
<path class="bond-4 atom-4 atom-5" d="M 94.0,87.9 L 80.7,80.6" style="fill:none;fill-rule:evenodd;stroke:#000000;stroke-width:2.0px;stroke-linecap:butt;stroke-linejoin:miter;stroke-opacity:1"/>
<path class="bond-5 atom-5 atom-6" d="M 80.7,80.6 L 80.4,65.4" style="fill:none;fill-rule:evenodd;stroke:#000000;stroke-width:2.0px;stroke-linecap:butt;stroke-linejoin:miter;stroke-opacity:1"/>
<path class="bond-5 atom-5 atom-6" d="M 80.4,65.4 L 80.1,50.2" style="fill:none;fill-rule:evenodd;stroke:#FF0000;stroke-width:2.0px;stroke-linecap:butt;stroke-linejoin:miter;stroke-opacity:1"/>
<path class="bond-6 atom-5 atom-7" d="M 80.7,80.6 L 48.9,99.9" style="fill:none;fill-rule:evenodd;stroke:#000000;stroke-width:2.0px;stroke-linecap:butt;stroke-linejoin:miter;stroke-opacity:1"/>
<path class="bond-7 atom-7 atom-8" d="M 48.9,99.9 L 29.6,68.1" style="fill:none;fill-rule:evenodd;stroke:#000000;stroke-width:2.0px;stroke-linecap:butt;stroke-linejoin:miter;stroke-opacity:1"/>
<path class="bond-8 atom-7 atom-9" d="M 48.9,99.9 L 68.2,131.7" style="fill:none;fill-rule:evenodd;stroke:#000000;stroke-width:2.0px;stroke-linecap:butt;stroke-linejoin:miter;stroke-opacity:1"/>
<path class="bond-9 atom-7 atom-10" d="M 48.9,99.9 L 17.1,119.2" style="fill:none;fill-rule:evenodd;stroke:#000000;stroke-width:2.0px;stroke-linecap:butt;stroke-linejoin:miter;stroke-opacity:1"/>
<path class="bond-10 atom-10 atom-11" d="M 17.1,119.2 L 17.4,134.5" style="fill:none;fill-rule:evenodd;stroke:#000000;stroke-width:2.0px;stroke-linecap:butt;stroke-linejoin:miter;stroke-opacity:1"/>
<path class="bond-10 atom-10 atom-11" d="M 17.4,134.5 L 17.7,149.8" style="fill:none;fill-rule:evenodd;stroke:#FF0000;stroke-width:2.0px;stroke-linecap:butt;stroke-linejoin:miter;stroke-opacity:1"/>
<path class="bond-11 atom-1 atom-12" d="M 177.7,97.2 L 210.3,115.1" style="fill:none;fill-rule:evenodd;stroke:#000000;stroke-width:2.0px;stroke-linecap:butt;stroke-linejoin:miter;stroke-opacity:1"/>
<path class="bond-12 atom-12 atom-13" d="M 210.4,118.3 L 224.0,110.1" style="fill:none;fill-rule:evenodd;stroke:#000000;stroke-width:2.0px;stroke-linecap:butt;stroke-linejoin:miter;stroke-opacity:1"/>
<path class="bond-12 atom-12 atom-13" d="M 224.0,110.1 L 237.5,101.9" style="fill:none;fill-rule:evenodd;stroke:#FF0000;stroke-width:2.0px;stroke-linecap:butt;stroke-linejoin:miter;stroke-opacity:1"/>
<path class="bond-12 atom-12 atom-13" d="M 207.5,113.6 L 221.1,105.3" style="fill:none;fill-rule:evenodd;stroke:#000000;stroke-width:2.0px;stroke-linecap:butt;stroke-linejoin:miter;stroke-opacity:1"/>
<path class="bond-12 atom-12 atom-13" d="M 221.1,105.3 L 234.7,97.1" style="fill:none;fill-rule:evenodd;stroke:#FF0000;stroke-width:2.0px;stroke-linecap:butt;stroke-linejoin:miter;stroke-opacity:1"/>
<path class="bond-13 atom-12 atom-14" d="M 210.3,115.1 L 210.7,130.4" style="fill:none;fill-rule:evenodd;stroke:#000000;stroke-width:2.0px;stroke-linecap:butt;stroke-linejoin:miter;stroke-opacity:1"/>
<path class="bond-13 atom-12 atom-14" d="M 210.7,130.4 L 211.0,145.8" style="fill:none;fill-rule:evenodd;stroke:#FF0000;stroke-width:2.0px;stroke-linecap:butt;stroke-linejoin:miter;stroke-opacity:1"/>
<path d="M 146.8,80.2 L 145.1,79.3 L 144.5,79.7" style="fill:none;stroke:#000000;stroke-width:2.0px;stroke-linecap:butt;stroke-linejoin:miter;stroke-opacity:1;"/>
<path d="M 18.6,118.2 L 17.1,119.2 L 17.1,120.0" style="fill:none;stroke:#000000;stroke-width:2.0px;stroke-linecap:butt;stroke-linejoin:miter;stroke-opacity:1;"/>
<path d="M 208.7,114.2 L 210.3,115.1 L 210.4,115.9" style="fill:none;stroke:#000000;stroke-width:2.0px;stroke-linecap:butt;stroke-linejoin:miter;stroke-opacity:1;"/>
<path class="atom-4" d="M 108.5 98.6 Q 108.5 96.1, 109.7 94.6 Q 111.0 93.2, 113.3 93.2 Q 115.6 93.2, 116.9 94.6 Q 118.1 96.1, 118.1 98.6 Q 118.1 101.1, 116.9 102.6 Q 115.6 104.0, 113.3 104.0 Q 111.0 104.0, 109.7 102.6 Q 108.5 101.2, 108.5 98.6 M 113.3 102.9 Q 114.9 102.9, 115.8 101.8 Q 116.7 100.7, 116.7 98.6 Q 116.7 96.5, 115.8 95.5 Q 114.9 94.4, 113.3 94.4 Q 111.7 94.4, 110.8 95.5 Q 110.0 96.5, 110.0 98.6 Q 110.0 100.7, 110.8 101.8 Q 111.7 102.9, 113.3 102.9 " fill="#FF0000"/>
<path class="atom-6" d="M 75.1 43.5 Q 75.1 40.9, 76.3 39.5 Q 77.6 38.1, 79.9 38.1 Q 82.2 38.1, 83.5 39.5 Q 84.7 40.9, 84.7 43.5 Q 84.7 46.0, 83.5 47.5 Q 82.2 48.9, 79.9 48.9 Q 77.6 48.9, 76.3 47.5 Q 75.1 46.0, 75.1 43.5 M 79.9 47.7 Q 81.5 47.7, 82.4 46.7 Q 83.3 45.6, 83.3 43.5 Q 83.3 41.4, 82.4 40.4 Q 81.5 39.3, 79.9 39.3 Q 78.3 39.3, 77.4 40.3 Q 76.6 41.4, 76.6 43.5 Q 76.6 45.6, 77.4 46.7 Q 78.3 47.7, 79.9 47.7 " fill="#FF0000"/>
<path class="atom-6" d="M 86.4 38.2 L 87.8 38.2 L 87.8 42.7 L 93.2 42.7 L 93.2 38.2 L 94.6 38.2 L 94.6 48.8 L 93.2 48.8 L 93.2 43.9 L 87.8 43.9 L 87.8 48.8 L 86.4 48.8 L 86.4 38.2 " fill="#FF0000"/>
<path class="atom-11" d="M 13.0 156.4 Q 13.0 153.9, 14.3 152.5 Q 15.5 151.1, 17.8 151.1 Q 20.2 151.1, 21.4 152.5 Q 22.7 153.9, 22.7 156.4 Q 22.7 159.0, 21.4 160.4 Q 20.1 161.9, 17.8 161.9 Q 15.5 161.9, 14.3 160.4 Q 13.0 159.0, 13.0 156.4 M 17.8 160.7 Q 19.4 160.7, 20.3 159.6 Q 21.2 158.5, 21.2 156.4 Q 21.2 154.4, 20.3 153.3 Q 19.4 152.3, 17.8 152.3 Q 16.2 152.3, 15.4 153.3 Q 14.5 154.3, 14.5 156.4 Q 14.5 158.6, 15.4 159.6 Q 16.2 160.7, 17.8 160.7 " fill="#FF0000"/>
<path class="atom-11" d="M 24.3 151.2 L 25.7 151.2 L 25.7 155.7 L 31.1 155.7 L 31.1 151.2 L 32.6 151.2 L 32.6 161.7 L 31.1 161.7 L 31.1 156.9 L 25.7 156.9 L 25.7 161.7 L 24.3 161.7 L 24.3 151.2 " fill="#FF0000"/>
<path class="atom-13" d="M 237.3 95.9 Q 237.3 93.3, 238.6 91.9 Q 239.8 90.5, 242.2 90.5 Q 244.5 90.5, 245.7 91.9 Q 247.0 93.3, 247.0 95.9 Q 247.0 98.4, 245.7 99.9 Q 244.5 101.3, 242.2 101.3 Q 239.8 101.3, 238.6 99.9 Q 237.3 98.4, 237.3 95.9 M 242.2 100.1 Q 243.8 100.1, 244.6 99.1 Q 245.5 98.0, 245.5 95.9 Q 245.5 93.8, 244.6 92.8 Q 243.8 91.7, 242.2 91.7 Q 240.6 91.7, 239.7 92.7 Q 238.8 93.8, 238.8 95.9 Q 238.8 98.0, 239.7 99.1 Q 240.6 100.1, 242.2 100.1 " fill="#FF0000"/>
<path class="atom-14" d="M 206.3 152.3 Q 206.3 149.8, 207.5 148.4 Q 208.8 147.0, 211.1 147.0 Q 213.5 147.0, 214.7 148.4 Q 216.0 149.8, 216.0 152.3 Q 216.0 154.9, 214.7 156.4 Q 213.4 157.8, 211.1 157.8 Q 208.8 157.8, 207.5 156.4 Q 206.3 154.9, 206.3 152.3 M 211.1 156.6 Q 212.7 156.6, 213.6 155.5 Q 214.5 154.5, 214.5 152.3 Q 214.5 150.3, 213.6 149.2 Q 212.7 148.2, 211.1 148.2 Q 209.5 148.2, 208.6 149.2 Q 207.8 150.3, 207.8 152.3 Q 207.8 154.5, 208.6 155.5 Q 209.5 156.6, 211.1 156.6 " fill="#FF0000"/>
<path class="atom-14" d="M 217.6 147.1 L 219.0 147.1 L 219.0 151.6 L 224.4 151.6 L 224.4 147.1 L 225.8 147.1 L 225.8 157.6 L 224.4 157.6 L 224.4 152.8 L 219.0 152.8 L 219.0 157.6 L 217.6 157.6 L 217.6 147.1 " fill="#FF0000"/>
</g>
  </g>
</svg>
