<?xml version='1.0' encoding='ASCII' standalone='yes'?>
<svg xmlns="http://www.w3.org/2000/svg" xmlns:xlink="http://www.w3.org/1999/xlink" version="1.1" width="905.0px" viewBox="0 0 905.0 200.0" height="200.0px">
  <g>
    <g transform="translate(0, 0) scale(1 1) "><!-- END OF HEADER -->
<rect style="opacity:1.0;fill:#FFFFFF;stroke:none" width="289.0" height="200.0" x="0.0" y="0.0"> </rect>
<path class="bond-0 atom-0 atom-1" d="M 14.5,81.2 L 38.0,93.8" style="fill:none;fill-rule:evenodd;stroke:#000000;stroke-width:2.0px;stroke-linecap:butt;stroke-linejoin:miter;stroke-opacity:1"/>
<path class="bond-1 atom-1 atom-2" d="M 38.0,93.8 L 25.4,117.3" style="fill:none;fill-rule:evenodd;stroke:#000000;stroke-width:2.0px;stroke-linecap:butt;stroke-linejoin:miter;stroke-opacity:1"/>
<path class="bond-2 atom-2 atom-3" d="M 25.4,117.3 L 30.9,126.4" style="fill:none;fill-rule:evenodd;stroke:#000000;stroke-width:2.0px;stroke-linecap:butt;stroke-linejoin:miter;stroke-opacity:1"/>
<path class="bond-2 atom-2 atom-3" d="M 30.9,126.4 L 36.5,135.4" style="fill:none;fill-rule:evenodd;stroke:#FF0000;stroke-width:2.0px;stroke-linecap:butt;stroke-linejoin:miter;stroke-opacity:1"/>
<path class="bond-3 atom-1 atom-4" d="M 38.0,93.8 L 61.5,106.4" style="fill:none;fill-rule:evenodd;stroke:#000000;stroke-width:2.0px;stroke-linecap:butt;stroke-linejoin:miter;stroke-opacity:1"/>
<path class="bond-4 atom-4 atom-5" d="M 61.5,106.4 L 84.3,92.4" style="fill:none;fill-rule:evenodd;stroke:#000000;stroke-width:2.0px;stroke-linecap:butt;stroke-linejoin:miter;stroke-opacity:1"/>
<path class="bond-5 atom-5 atom-6" d="M 84.3,92.4 L 107.8,105.0" style="fill:none;fill-rule:evenodd;stroke:#000000;stroke-width:2.0px;stroke-linecap:butt;stroke-linejoin:miter;stroke-opacity:1"/>
<path class="bond-6 atom-6 atom-7" d="M 107.8,105.0 L 130.5,90.9" style="fill:none;fill-rule:evenodd;stroke:#000000;stroke-width:2.0px;stroke-linecap:butt;stroke-linejoin:miter;stroke-opacity:1"/>
<path class="bond-7 atom-7 atom-8" d="M 130.5,90.9 L 154.1,103.6" style="fill:none;fill-rule:evenodd;stroke:#000000;stroke-width:2.0px;stroke-linecap:butt;stroke-linejoin:miter;stroke-opacity:1"/>
<path class="bond-8 atom-8 atom-9" d="M 154.1,103.6 L 176.8,89.5" style="fill:none;fill-rule:evenodd;stroke:#000000;stroke-width:2.0px;stroke-linecap:butt;stroke-linejoin:miter;stroke-opacity:1"/>
<path class="bond-9 atom-9 atom-10" d="M 176.8,89.5 L 200.4,102.2" style="fill:none;fill-rule:evenodd;stroke:#000000;stroke-width:2.0px;stroke-linecap:butt;stroke-linejoin:miter;stroke-opacity:1"/>
<path class="bond-10 atom-10 atom-11" d="M 200.4,102.2 L 223.1,88.1" style="fill:none;fill-rule:evenodd;stroke:#000000;stroke-width:2.0px;stroke-linecap:butt;stroke-linejoin:miter;stroke-opacity:1"/>
<path class="bond-11 atom-11 atom-12" d="M 223.1,88.1 L 245.8,74.0" style="fill:none;fill-rule:evenodd;stroke:#000000;stroke-width:2.0px;stroke-linecap:butt;stroke-linejoin:miter;stroke-opacity:1"/>
<path class="bond-12 atom-11 atom-13" d="M 223.1,88.1 L 209.0,65.4" style="fill:none;fill-rule:evenodd;stroke:#000000;stroke-width:2.0px;stroke-linecap:butt;stroke-linejoin:miter;stroke-opacity:1"/>
<path class="bond-13 atom-13 atom-14" d="M 209.0,65.4 L 214.0,56.0" style="fill:none;fill-rule:evenodd;stroke:#000000;stroke-width:2.0px;stroke-linecap:butt;stroke-linejoin:miter;stroke-opacity:1"/>
<path class="bond-13 atom-13 atom-14" d="M 214.0,56.0 L 219.1,46.6" style="fill:none;fill-rule:evenodd;stroke:#FF0000;stroke-width:2.0px;stroke-linecap:butt;stroke-linejoin:miter;stroke-opacity:1"/>
<path class="bond-14 atom-11 atom-15" d="M 223.1,88.1 L 237.2,110.8" style="fill:none;fill-rule:evenodd;stroke:#000000;stroke-width:2.0px;stroke-linecap:butt;stroke-linejoin:miter;stroke-opacity:1"/>
<path class="bond-15 atom-15 atom-16" d="M 235.9,108.8 L 230.6,118.8" style="fill:none;fill-rule:evenodd;stroke:#000000;stroke-width:2.0px;stroke-linecap:butt;stroke-linejoin:miter;stroke-opacity:1"/>
<path class="bond-15 atom-15 atom-16" d="M 230.6,118.8 L 225.3,128.7" style="fill:none;fill-rule:evenodd;stroke:#FF0000;stroke-width:2.0px;stroke-linecap:butt;stroke-linejoin:miter;stroke-opacity:1"/>
<path class="bond-15 atom-15 atom-16" d="M 239.5,110.7 L 234.1,120.7" style="fill:none;fill-rule:evenodd;stroke:#000000;stroke-width:2.0px;stroke-linecap:butt;stroke-linejoin:miter;stroke-opacity:1"/>
<path class="bond-15 atom-15 atom-16" d="M 234.1,120.7 L 228.8,130.6" style="fill:none;fill-rule:evenodd;stroke:#FF0000;stroke-width:2.0px;stroke-linecap:butt;stroke-linejoin:miter;stroke-opacity:1"/>
<path class="bond-16 atom-15 atom-17" d="M 237.2,110.8 L 248.3,110.5" style="fill:none;fill-rule:evenodd;stroke:#000000;stroke-width:2.0px;stroke-linecap:butt;stroke-linejoin:miter;stroke-opacity:1"/>
<path class="bond-16 atom-15 atom-17" d="M 248.3,110.5 L 259.5,110.1" style="fill:none;fill-rule:evenodd;stroke:#FF0000;stroke-width:2.0px;stroke-linecap:butt;stroke-linejoin:miter;stroke-opacity:1"/>
<path class="bond-17 atom-1 atom-18" d="M 38.0,93.8 L 50.6,70.2" style="fill:none;fill-rule:evenodd;stroke:#000000;stroke-width:2.0px;stroke-linecap:butt;stroke-linejoin:miter;stroke-opacity:1"/>
<path class="bond-18 atom-18 atom-19" d="M 53.0,70.2 L 47.1,60.7" style="fill:none;fill-rule:evenodd;stroke:#000000;stroke-width:2.0px;stroke-linecap:butt;stroke-linejoin:miter;stroke-opacity:1"/>
<path class="bond-18 atom-18 atom-19" d="M 47.1,60.7 L 41.3,51.3" style="fill:none;fill-rule:evenodd;stroke:#FF0000;stroke-width:2.0px;stroke-linecap:butt;stroke-linejoin:miter;stroke-opacity:1"/>
<path class="bond-18 atom-18 atom-19" d="M 49.5,72.3 L 43.7,62.8" style="fill:none;fill-rule:evenodd;stroke:#000000;stroke-width:2.0px;stroke-linecap:butt;stroke-linejoin:miter;stroke-opacity:1"/>
<path class="bond-18 atom-18 atom-19" d="M 43.7,62.8 L 37.9,53.4" style="fill:none;fill-rule:evenodd;stroke:#FF0000;stroke-width:2.0px;stroke-linecap:butt;stroke-linejoin:miter;stroke-opacity:1"/>
<path class="bond-19 atom-18 atom-20" d="M 50.6,70.2 L 61.8,69.9" style="fill:none;fill-rule:evenodd;stroke:#000000;stroke-width:2.0px;stroke-linecap:butt;stroke-linejoin:miter;stroke-opacity:1"/>
<path class="bond-19 atom-18 atom-20" d="M 61.8,69.9 L 73.0,69.6" style="fill:none;fill-rule:evenodd;stroke:#FF0000;stroke-width:2.0px;stroke-linecap:butt;stroke-linejoin:miter;stroke-opacity:1"/>
<path d="M 26.0,116.2 L 25.4,117.3 L 25.6,117.8" style="fill:none;stroke:#000000;stroke-width:2.0px;stroke-linecap:butt;stroke-linejoin:miter;stroke-opacity:1;"/>
<path d="M 60.4,105.8 L 61.5,106.4 L 62.7,105.7" style="fill:none;stroke:#000000;stroke-width:2.0px;stroke-linecap:butt;stroke-linejoin:miter;stroke-opacity:1;"/>
<path d="M 83.1,93.1 L 84.3,92.4 L 85.4,93.0" style="fill:none;stroke:#000000;stroke-width:2.0px;stroke-linecap:butt;stroke-linejoin:miter;stroke-opacity:1;"/>
<path d="M 106.6,104.4 L 107.8,105.0 L 109.0,104.3" style="fill:none;stroke:#000000;stroke-width:2.0px;stroke-linecap:butt;stroke-linejoin:miter;stroke-opacity:1;"/>
<path d="M 129.4,91.6 L 130.5,90.9 L 131.7,91.6" style="fill:none;stroke:#000000;stroke-width:2.0px;stroke-linecap:butt;stroke-linejoin:miter;stroke-opacity:1;"/>
<path d="M 152.9,103.0 L 154.1,103.6 L 155.2,102.9" style="fill:none;stroke:#000000;stroke-width:2.0px;stroke-linecap:butt;stroke-linejoin:miter;stroke-opacity:1;"/>
<path d="M 175.7,90.2 L 176.8,89.5 L 178.0,90.1" style="fill:none;stroke:#000000;stroke-width:2.0px;stroke-linecap:butt;stroke-linejoin:miter;stroke-opacity:1;"/>
<path d="M 199.2,101.5 L 200.4,102.2 L 201.5,101.5" style="fill:none;stroke:#000000;stroke-width:2.0px;stroke-linecap:butt;stroke-linejoin:miter;stroke-opacity:1;"/>
<path d="M 209.7,66.5 L 209.0,65.4 L 209.3,64.9" style="fill:none;stroke:#000000;stroke-width:2.0px;stroke-linecap:butt;stroke-linejoin:miter;stroke-opacity:1;"/>
<path d="M 236.5,109.7 L 237.2,110.8 L 237.7,110.8" style="fill:none;stroke:#000000;stroke-width:2.0px;stroke-linecap:butt;stroke-linejoin:miter;stroke-opacity:1;"/>
<path d="M 50.0,71.4 L 50.6,70.2 L 51.2,70.2" style="fill:none;stroke:#000000;stroke-width:2.0px;stroke-linecap:butt;stroke-linejoin:miter;stroke-opacity:1;"/>
<path class="atom-3" d="M 36.0 140.1 Q 36.0 138.3, 36.8 137.3 Q 37.7 136.2, 39.4 136.2 Q 41.1 136.2, 42.0 137.3 Q 42.9 138.3, 42.9 140.1 Q 42.9 141.9, 42.0 143.0 Q 41.1 144.0, 39.4 144.0 Q 37.8 144.0, 36.8 143.0 Q 36.0 141.9, 36.0 140.1 M 39.4 143.2 Q 40.6 143.2, 41.2 142.4 Q 41.8 141.6, 41.8 140.1 Q 41.8 138.6, 41.2 137.9 Q 40.6 137.1, 39.4 137.1 Q 38.3 137.1, 37.6 137.8 Q 37.0 138.6, 37.0 140.1 Q 37.0 141.6, 37.6 142.4 Q 38.3 143.2, 39.4 143.2 " fill="#FF0000"/>
<path class="atom-3" d="M 44.1 136.3 L 45.1 136.3 L 45.1 139.5 L 49.0 139.5 L 49.0 136.3 L 50.0 136.3 L 50.0 143.9 L 49.0 143.9 L 49.0 140.4 L 45.1 140.4 L 45.1 143.9 L 44.1 143.9 L 44.1 136.3 " fill="#FF0000"/>
<path class="atom-14" d="M 218.2 41.8 Q 218.2 40.0, 219.1 39.0 Q 220.0 38.0, 221.7 38.0 Q 223.3 38.0, 224.2 39.0 Q 225.1 40.0, 225.1 41.8 Q 225.1 43.7, 224.2 44.7 Q 223.3 45.8, 221.7 45.8 Q 220.0 45.8, 219.1 44.7 Q 218.2 43.7, 218.2 41.8 M 221.7 44.9 Q 222.8 44.9, 223.4 44.1 Q 224.1 43.4, 224.1 41.8 Q 224.1 40.3, 223.4 39.6 Q 222.8 38.8, 221.7 38.8 Q 220.5 38.8, 219.9 39.6 Q 219.3 40.3, 219.3 41.8 Q 219.3 43.4, 219.9 44.1 Q 220.5 44.9, 221.7 44.9 " fill="#FF0000"/>
<path class="atom-14" d="M 226.3 38.1 L 227.3 38.1 L 227.3 41.3 L 231.2 41.3 L 231.2 38.1 L 232.2 38.1 L 232.2 45.6 L 231.2 45.6 L 231.2 42.1 L 227.3 42.1 L 227.3 45.6 L 226.3 45.6 L 226.3 38.1 " fill="#FF0000"/>
<path class="atom-16" d="M 221.0 134.4 Q 221.0 132.6, 221.9 131.5 Q 222.8 130.5, 224.5 130.5 Q 226.2 130.5, 227.1 131.5 Q 228.0 132.6, 228.0 134.4 Q 228.0 136.2, 227.1 137.3 Q 226.2 138.3, 224.5 138.3 Q 222.8 138.3, 221.9 137.3 Q 221.0 136.2, 221.0 134.4 M 224.5 137.4 Q 225.7 137.4, 226.3 136.7 Q 226.9 135.9, 226.9 134.4 Q 226.9 132.9, 226.3 132.1 Q 225.7 131.4, 224.5 131.4 Q 223.4 131.4, 222.7 132.1 Q 222.1 132.9, 222.1 134.4 Q 222.1 135.9, 222.7 136.7 Q 223.4 137.4, 224.5 137.4 " fill="#FF0000"/>
<path class="atom-17" d="M 260.4 110.0 Q 260.4 108.2, 261.3 107.2 Q 262.2 106.2, 263.9 106.2 Q 265.6 106.2, 266.5 107.2 Q 267.3 108.2, 267.3 110.0 Q 267.3 111.8, 266.4 112.9 Q 265.5 113.9, 263.9 113.9 Q 262.2 113.9, 261.3 112.9 Q 260.4 111.9, 260.4 110.0 M 263.9 113.1 Q 265.0 113.1, 265.6 112.3 Q 266.3 111.5, 266.3 110.0 Q 266.3 108.5, 265.6 107.8 Q 265.0 107.0, 263.9 107.0 Q 262.7 107.0, 262.1 107.8 Q 261.5 108.5, 261.5 110.0 Q 261.5 111.5, 262.1 112.3 Q 262.7 113.1, 263.9 113.1 " fill="#FF0000"/>
<path class="atom-17" d="M 268.5 106.2 L 269.6 106.2 L 269.6 109.5 L 273.4 109.5 L 273.4 106.2 L 274.4 106.2 L 274.4 113.8 L 273.4 113.8 L 273.4 110.3 L 269.6 110.3 L 269.6 113.8 L 268.5 113.8 L 268.5 106.2 " fill="#FF0000"/>
<path class="atom-19" d="M 33.1 47.5 Q 33.1 45.7, 34.0 44.7 Q 34.9 43.7, 36.6 43.7 Q 38.2 43.7, 39.1 44.7 Q 40.0 45.7, 40.0 47.5 Q 40.0 49.4, 39.1 50.4 Q 38.2 51.5, 36.6 51.5 Q 34.9 51.5, 34.0 50.4 Q 33.1 49.4, 33.1 47.5 M 36.6 50.6 Q 37.7 50.6, 38.3 49.8 Q 39.0 49.1, 39.0 47.5 Q 39.0 46.1, 38.3 45.3 Q 37.7 44.6, 36.6 44.6 Q 35.4 44.6, 34.8 45.3 Q 34.2 46.0, 34.2 47.5 Q 34.2 49.1, 34.8 49.8 Q 35.4 50.6, 36.6 50.6 " fill="#FF0000"/>
<path class="atom-20" d="M 73.9 69.4 Q 73.9 67.6, 74.8 66.6 Q 75.7 65.6, 77.4 65.6 Q 79.0 65.6, 79.9 66.6 Q 80.8 67.6, 80.8 69.4 Q 80.8 71.3, 79.9 72.3 Q 79.0 73.4, 77.4 73.4 Q 75.7 73.4, 74.8 72.3 Q 73.9 71.3, 73.9 69.4 M 77.4 72.5 Q 78.5 72.5, 79.1 71.7 Q 79.8 71.0, 79.8 69.4 Q 79.8 68.0, 79.1 67.2 Q 78.5 66.5, 77.4 66.5 Q 76.2 66.5, 75.6 67.2 Q 75.0 67.9, 75.0 69.4 Q 75.0 71.0, 75.6 71.7 Q 76.2 72.5, 77.4 72.5 " fill="#FF0000"/>
<path class="atom-20" d="M 82.0 65.7 L 83.0 65.7 L 83.0 68.9 L 86.9 68.9 L 86.9 65.7 L 87.9 65.7 L 87.9 73.3 L 86.9 73.3 L 86.9 69.8 L 83.0 69.8 L 83.0 73.3 L 82.0 73.3 L 82.0 65.7 " fill="#FF0000"/>
<path class="legend" d="M 135.9 181.9 Q 135.9 179.6, 136.6 177.7 Q 137.3 175.8, 138.6 173.8 L 139.5 174.4 Q 138.4 176.3, 137.9 178.0 Q 137.4 179.7, 137.4 181.9 Q 137.4 184.0, 137.9 185.8 Q 138.4 187.5, 139.5 189.4 L 138.6 190.0 Q 137.3 188.0, 136.6 186.1 Q 135.9 184.2, 135.9 181.9 " fill="#000000"/>
<path class="legend" d="M 140.4 177.3 Q 140.8 176.2, 141.8 175.6 Q 142.8 175.0, 144.2 175.0 Q 145.9 175.0, 146.8 175.9 Q 147.8 176.8, 147.8 178.5 Q 147.8 180.2, 146.5 181.7 Q 145.3 183.3, 142.8 185.2 L 148.0 185.2 L 148.0 186.4 L 140.4 186.4 L 140.4 185.4 Q 142.5 183.9, 143.7 182.8 Q 145.0 181.6, 145.6 180.6 Q 146.2 179.6, 146.2 178.6 Q 146.2 177.5, 145.6 176.9 Q 145.1 176.3, 144.2 176.3 Q 143.2 176.3, 142.6 176.6 Q 142.0 177.0, 141.6 177.8 L 140.4 177.3 " fill="#000000"/>
<path class="legend" d="M 153.0 181.9 Q 153.0 184.2, 152.3 186.1 Q 151.6 188.0, 150.3 190.0 L 149.4 189.4 Q 150.5 187.5, 151.0 185.8 Q 151.5 184.0, 151.5 181.9 Q 151.5 179.7, 151.0 178.0 Q 150.5 176.3, 149.4 174.4 L 150.3 173.8 Q 151.6 175.8, 152.3 177.7 Q 153.0 179.6, 153.0 181.9 " fill="#000000"/>
</g>
    <g transform="translate(289.0, 0) scale(1 1) "><line x1="5" y1="100" x2="35" y2="100" style="stroke:rgb(0,0,0);stroke-width:2"/>
  <line x1="34" y1="100" x2="29" y2="95" style="stroke:rgb(0,0,0);stroke-width:2"/>
  <line x1="34" y1="100" x2="29" y2="105" style="stroke:rgb(0,0,0);stroke-width:2"/>
</g>
    <g transform="translate(329.0, 0) scale(1 1) "><!-- END OF HEADER -->
<rect style="opacity:1.0;fill:#FFFFFF;stroke:none" width="331.0" height="200.0" x="0.0" y="0.0"> </rect>
<path class="bond-0 atom-0 atom-1" d="M 16.6,83.0 L 36.9,92.4" style="fill:none;fill-rule:evenodd;stroke:#000000;stroke-width:2.0px;stroke-linecap:butt;stroke-linejoin:miter;stroke-opacity:1"/>
<path class="bond-1 atom-1 atom-2" d="M 36.9,92.4 L 27.6,112.8" style="fill:none;fill-rule:evenodd;stroke:#000000;stroke-width:2.0px;stroke-linecap:butt;stroke-linejoin:miter;stroke-opacity:1"/>
<path class="bond-2 atom-2 atom-3" d="M 27.6,112.8 L 32.6,120.0" style="fill:none;fill-rule:evenodd;stroke:#000000;stroke-width:2.0px;stroke-linecap:butt;stroke-linejoin:miter;stroke-opacity:1"/>
<path class="bond-2 atom-2 atom-3" d="M 32.6,120.0 L 37.7,127.2" style="fill:none;fill-rule:evenodd;stroke:#FF0000;stroke-width:2.0px;stroke-linecap:butt;stroke-linejoin:miter;stroke-opacity:1"/>
<path class="bond-3 atom-1 atom-4" d="M 36.9,92.4 L 57.3,101.8" style="fill:none;fill-rule:evenodd;stroke:#000000;stroke-width:2.0px;stroke-linecap:butt;stroke-linejoin:miter;stroke-opacity:1"/>
<path class="bond-4 atom-4 atom-5" d="M 57.3,101.8 L 75.7,88.9" style="fill:none;fill-rule:evenodd;stroke:#000000;stroke-width:2.0px;stroke-linecap:butt;stroke-linejoin:miter;stroke-opacity:1"/>
<path class="bond-5 atom-5 atom-6" d="M 75.7,88.9 L 96.1,98.3" style="fill:none;fill-rule:evenodd;stroke:#000000;stroke-width:2.0px;stroke-linecap:butt;stroke-linejoin:miter;stroke-opacity:1"/>
<path class="bond-6 atom-6 atom-7" d="M 96.1,98.3 L 114.4,85.3" style="fill:none;fill-rule:evenodd;stroke:#000000;stroke-width:2.0px;stroke-linecap:butt;stroke-linejoin:miter;stroke-opacity:1"/>
<path class="bond-7 atom-7 atom-8" d="M 114.4,85.3 L 134.8,94.7" style="fill:none;fill-rule:evenodd;stroke:#000000;stroke-width:2.0px;stroke-linecap:butt;stroke-linejoin:miter;stroke-opacity:1"/>
<path class="bond-8 atom-8 atom-9" d="M 134.8,94.7 L 153.1,81.7" style="fill:none;fill-rule:evenodd;stroke:#000000;stroke-width:2.0px;stroke-linecap:butt;stroke-linejoin:miter;stroke-opacity:1"/>
<path class="bond-9 atom-9 atom-10" d="M 153.1,81.7 L 173.5,91.1" style="fill:none;fill-rule:evenodd;stroke:#000000;stroke-width:2.0px;stroke-linecap:butt;stroke-linejoin:miter;stroke-opacity:1"/>
<path class="bond-10 atom-10 atom-11" d="M 173.5,91.1 L 191.9,78.1" style="fill:none;fill-rule:evenodd;stroke:#000000;stroke-width:2.0px;stroke-linecap:butt;stroke-linejoin:miter;stroke-opacity:1"/>
<path class="bond-11 atom-11 atom-12" d="M 191.9,78.1 L 212.3,87.5" style="fill:none;fill-rule:evenodd;stroke:#000000;stroke-width:2.0px;stroke-linecap:butt;stroke-linejoin:miter;stroke-opacity:1"/>
<path class="bond-12 atom-12 atom-13" d="M 212.3,87.5 L 230.6,74.5" style="fill:none;fill-rule:evenodd;stroke:#000000;stroke-width:2.0px;stroke-linecap:butt;stroke-linejoin:miter;stroke-opacity:1"/>
<path class="bond-13 atom-13 atom-14" d="M 230.6,74.5 L 251.0,83.9" style="fill:none;fill-rule:evenodd;stroke:#000000;stroke-width:2.0px;stroke-linecap:butt;stroke-linejoin:miter;stroke-opacity:1"/>
<path class="bond-14 atom-14 atom-15" d="M 251.0,83.9 L 269.3,71.0" style="fill:none;fill-rule:evenodd;stroke:#000000;stroke-width:2.0px;stroke-linecap:butt;stroke-linejoin:miter;stroke-opacity:1"/>
<path class="bond-15 atom-15 atom-16" d="M 269.3,71.0 L 287.7,58.0" style="fill:none;fill-rule:evenodd;stroke:#000000;stroke-width:2.0px;stroke-linecap:butt;stroke-linejoin:miter;stroke-opacity:1"/>
<path class="bond-16 atom-15 atom-17" d="M 269.3,71.0 L 256.4,52.6" style="fill:none;fill-rule:evenodd;stroke:#000000;stroke-width:2.0px;stroke-linecap:butt;stroke-linejoin:miter;stroke-opacity:1"/>
<path class="bond-17 atom-17 atom-18" d="M 256.4,52.6 L 260.1,44.5" style="fill:none;fill-rule:evenodd;stroke:#000000;stroke-width:2.0px;stroke-linecap:butt;stroke-linejoin:miter;stroke-opacity:1"/>
<path class="bond-17 atom-17 atom-18" d="M 260.1,44.5 L 263.9,36.3" style="fill:none;fill-rule:evenodd;stroke:#FF0000;stroke-width:2.0px;stroke-linecap:butt;stroke-linejoin:miter;stroke-opacity:1"/>
<path class="bond-18 atom-15 atom-19" d="M 269.3,71.0 L 282.3,89.3" style="fill:none;fill-rule:evenodd;stroke:#000000;stroke-width:2.0px;stroke-linecap:butt;stroke-linejoin:miter;stroke-opacity:1"/>
<path class="bond-19 atom-19 atom-20" d="M 281.2,87.7 L 277.2,96.4" style="fill:none;fill-rule:evenodd;stroke:#000000;stroke-width:2.0px;stroke-linecap:butt;stroke-linejoin:miter;stroke-opacity:1"/>
<path class="bond-19 atom-19 atom-20" d="M 277.2,96.4 L 273.2,105.0" style="fill:none;fill-rule:evenodd;stroke:#FF0000;stroke-width:2.0px;stroke-linecap:butt;stroke-linejoin:miter;stroke-opacity:1"/>
<path class="bond-19 atom-19 atom-20" d="M 284.2,89.1 L 280.3,97.8" style="fill:none;fill-rule:evenodd;stroke:#000000;stroke-width:2.0px;stroke-linecap:butt;stroke-linejoin:miter;stroke-opacity:1"/>
<path class="bond-19 atom-19 atom-20" d="M 280.3,97.8 L 276.3,106.4" style="fill:none;fill-rule:evenodd;stroke:#FF0000;stroke-width:2.0px;stroke-linecap:butt;stroke-linejoin:miter;stroke-opacity:1"/>
<path class="bond-20 atom-19 atom-21" d="M 282.3,89.3 L 291.7,88.4" style="fill:none;fill-rule:evenodd;stroke:#000000;stroke-width:2.0px;stroke-linecap:butt;stroke-linejoin:miter;stroke-opacity:1"/>
<path class="bond-20 atom-19 atom-21" d="M 291.7,88.4 L 301.0,87.6" style="fill:none;fill-rule:evenodd;stroke:#FF0000;stroke-width:2.0px;stroke-linecap:butt;stroke-linejoin:miter;stroke-opacity:1"/>
<path class="bond-21 atom-10 atom-22" d="M 173.5,91.1 L 175.6,113.5" style="fill:none;fill-rule:evenodd;stroke:#000000;stroke-width:2.0px;stroke-linecap:butt;stroke-linejoin:miter;stroke-opacity:1"/>
<path class="bond-22 atom-22 atom-23" d="M 175.6,113.5 L 196.0,122.8" style="fill:none;fill-rule:evenodd;stroke:#000000;stroke-width:2.0px;stroke-linecap:butt;stroke-linejoin:miter;stroke-opacity:1"/>
<path class="bond-23 atom-23 atom-24" d="M 196.0,122.8 L 198.1,145.2" style="fill:none;fill-rule:evenodd;stroke:#000000;stroke-width:2.0px;stroke-linecap:butt;stroke-linejoin:miter;stroke-opacity:1"/>
<path class="bond-24 atom-24 atom-25" d="M 198.1,145.2 L 200.1,167.6" style="fill:none;fill-rule:evenodd;stroke:#000000;stroke-width:2.0px;stroke-linecap:butt;stroke-linejoin:miter;stroke-opacity:1"/>
<path class="bond-25 atom-24 atom-26" d="M 198.1,145.2 L 175.7,147.3" style="fill:none;fill-rule:evenodd;stroke:#000000;stroke-width:2.0px;stroke-linecap:butt;stroke-linejoin:miter;stroke-opacity:1"/>
<path class="bond-26 atom-26 atom-27" d="M 175.7,147.3 L 171.9,155.5" style="fill:none;fill-rule:evenodd;stroke:#000000;stroke-width:2.0px;stroke-linecap:butt;stroke-linejoin:miter;stroke-opacity:1"/>
<path class="bond-26 atom-26 atom-27" d="M 171.9,155.5 L 168.1,163.7" style="fill:none;fill-rule:evenodd;stroke:#FF0000;stroke-width:2.0px;stroke-linecap:butt;stroke-linejoin:miter;stroke-opacity:1"/>
<path class="bond-27 atom-24 atom-28" d="M 198.1,145.2 L 220.4,143.1" style="fill:none;fill-rule:evenodd;stroke:#000000;stroke-width:2.0px;stroke-linecap:butt;stroke-linejoin:miter;stroke-opacity:1"/>
<path class="bond-28 atom-28 atom-29" d="M 221.6,144.7 L 225.5,136.1" style="fill:none;fill-rule:evenodd;stroke:#000000;stroke-width:2.0px;stroke-linecap:butt;stroke-linejoin:miter;stroke-opacity:1"/>
<path class="bond-28 atom-28 atom-29" d="M 225.5,136.1 L 229.5,127.5" style="fill:none;fill-rule:evenodd;stroke:#FF0000;stroke-width:2.0px;stroke-linecap:butt;stroke-linejoin:miter;stroke-opacity:1"/>
<path class="bond-28 atom-28 atom-29" d="M 218.5,143.3 L 222.5,134.7" style="fill:none;fill-rule:evenodd;stroke:#000000;stroke-width:2.0px;stroke-linecap:butt;stroke-linejoin:miter;stroke-opacity:1"/>
<path class="bond-28 atom-28 atom-29" d="M 222.5,134.7 L 226.4,126.1" style="fill:none;fill-rule:evenodd;stroke:#FF0000;stroke-width:2.0px;stroke-linecap:butt;stroke-linejoin:miter;stroke-opacity:1"/>
<path class="bond-29 atom-28 atom-30" d="M 220.4,143.1 L 225.5,150.3" style="fill:none;fill-rule:evenodd;stroke:#000000;stroke-width:2.0px;stroke-linecap:butt;stroke-linejoin:miter;stroke-opacity:1"/>
<path class="bond-29 atom-28 atom-30" d="M 225.5,150.3 L 230.6,157.5" style="fill:none;fill-rule:evenodd;stroke:#FF0000;stroke-width:2.0px;stroke-linecap:butt;stroke-linejoin:miter;stroke-opacity:1"/>
<path class="bond-30 atom-1 atom-31" d="M 36.9,92.4 L 46.3,72.0" style="fill:none;fill-rule:evenodd;stroke:#000000;stroke-width:2.0px;stroke-linecap:butt;stroke-linejoin:miter;stroke-opacity:1"/>
<path class="bond-31 atom-31 atom-32" d="M 48.3,71.9 L 42.9,64.3" style="fill:none;fill-rule:evenodd;stroke:#000000;stroke-width:2.0px;stroke-linecap:butt;stroke-linejoin:miter;stroke-opacity:1"/>
<path class="bond-31 atom-31 atom-32" d="M 42.9,64.3 L 37.6,56.8" style="fill:none;fill-rule:evenodd;stroke:#FF0000;stroke-width:2.0px;stroke-linecap:butt;stroke-linejoin:miter;stroke-opacity:1"/>
<path class="bond-31 atom-31 atom-32" d="M 45.5,73.8 L 40.2,66.3" style="fill:none;fill-rule:evenodd;stroke:#000000;stroke-width:2.0px;stroke-linecap:butt;stroke-linejoin:miter;stroke-opacity:1"/>
<path class="bond-31 atom-31 atom-32" d="M 40.2,66.3 L 34.9,58.7" style="fill:none;fill-rule:evenodd;stroke:#FF0000;stroke-width:2.0px;stroke-linecap:butt;stroke-linejoin:miter;stroke-opacity:1"/>
<path class="bond-32 atom-31 atom-33" d="M 46.3,72.0 L 55.7,71.2" style="fill:none;fill-rule:evenodd;stroke:#000000;stroke-width:2.0px;stroke-linecap:butt;stroke-linejoin:miter;stroke-opacity:1"/>
<path class="bond-32 atom-31 atom-33" d="M 55.7,71.2 L 65.0,70.3" style="fill:none;fill-rule:evenodd;stroke:#FF0000;stroke-width:2.0px;stroke-linecap:butt;stroke-linejoin:miter;stroke-opacity:1"/>
<path d="M 28.0,111.8 L 27.6,112.8 L 27.8,113.2" style="fill:none;stroke:#000000;stroke-width:2.0px;stroke-linecap:butt;stroke-linejoin:miter;stroke-opacity:1;"/>
<path d="M 56.3,101.4 L 57.3,101.8 L 58.3,101.2" style="fill:none;stroke:#000000;stroke-width:2.0px;stroke-linecap:butt;stroke-linejoin:miter;stroke-opacity:1;"/>
<path d="M 74.8,89.5 L 75.7,88.9 L 76.7,89.3" style="fill:none;stroke:#000000;stroke-width:2.0px;stroke-linecap:butt;stroke-linejoin:miter;stroke-opacity:1;"/>
<path d="M 95.1,97.8 L 96.1,98.3 L 97.0,97.6" style="fill:none;stroke:#000000;stroke-width:2.0px;stroke-linecap:butt;stroke-linejoin:miter;stroke-opacity:1;"/>
<path d="M 113.5,85.9 L 114.4,85.3 L 115.4,85.7" style="fill:none;stroke:#000000;stroke-width:2.0px;stroke-linecap:butt;stroke-linejoin:miter;stroke-opacity:1;"/>
<path d="M 133.8,94.2 L 134.8,94.7 L 135.7,94.0" style="fill:none;stroke:#000000;stroke-width:2.0px;stroke-linecap:butt;stroke-linejoin:miter;stroke-opacity:1;"/>
<path d="M 152.2,82.3 L 153.1,81.7 L 154.2,82.2" style="fill:none;stroke:#000000;stroke-width:2.0px;stroke-linecap:butt;stroke-linejoin:miter;stroke-opacity:1;"/>
<path d="M 191.0,78.8 L 191.9,78.1 L 192.9,78.6" style="fill:none;stroke:#000000;stroke-width:2.0px;stroke-linecap:butt;stroke-linejoin:miter;stroke-opacity:1;"/>
<path d="M 211.3,87.0 L 212.3,87.5 L 213.2,86.9" style="fill:none;stroke:#000000;stroke-width:2.0px;stroke-linecap:butt;stroke-linejoin:miter;stroke-opacity:1;"/>
<path d="M 229.7,75.2 L 230.6,74.5 L 231.6,75.0" style="fill:none;stroke:#000000;stroke-width:2.0px;stroke-linecap:butt;stroke-linejoin:miter;stroke-opacity:1;"/>
<path d="M 250.0,83.5 L 251.0,83.9 L 251.9,83.3" style="fill:none;stroke:#000000;stroke-width:2.0px;stroke-linecap:butt;stroke-linejoin:miter;stroke-opacity:1;"/>
<path d="M 257.0,53.5 L 256.4,52.6 L 256.6,52.2" style="fill:none;stroke:#000000;stroke-width:2.0px;stroke-linecap:butt;stroke-linejoin:miter;stroke-opacity:1;"/>
<path d="M 281.7,88.4 L 282.3,89.3 L 282.8,89.3" style="fill:none;stroke:#000000;stroke-width:2.0px;stroke-linecap:butt;stroke-linejoin:miter;stroke-opacity:1;"/>
<path d="M 175.5,112.3 L 175.6,113.5 L 176.6,113.9" style="fill:none;stroke:#000000;stroke-width:2.0px;stroke-linecap:butt;stroke-linejoin:miter;stroke-opacity:1;"/>
<path d="M 195.0,122.4 L 196.0,122.8 L 196.1,124.0" style="fill:none;stroke:#000000;stroke-width:2.0px;stroke-linecap:butt;stroke-linejoin:miter;stroke-opacity:1;"/>
<path d="M 176.8,147.2 L 175.7,147.3 L 175.5,147.7" style="fill:none;stroke:#000000;stroke-width:2.0px;stroke-linecap:butt;stroke-linejoin:miter;stroke-opacity:1;"/>
<path d="M 219.3,143.2 L 220.4,143.1 L 220.7,143.5" style="fill:none;stroke:#000000;stroke-width:2.0px;stroke-linecap:butt;stroke-linejoin:miter;stroke-opacity:1;"/>
<path d="M 45.9,73.1 L 46.3,72.0 L 46.8,72.0" style="fill:none;stroke:#000000;stroke-width:2.0px;stroke-linecap:butt;stroke-linejoin:miter;stroke-opacity:1;"/>
<path class="atom-3" d="M 37.6 131.2 Q 37.6 129.7, 38.4 128.8 Q 39.1 128.0, 40.5 128.0 Q 41.9 128.0, 42.7 128.8 Q 43.4 129.7, 43.4 131.2 Q 43.4 132.7, 42.7 133.6 Q 41.9 134.5, 40.5 134.5 Q 39.1 134.5, 38.4 133.6 Q 37.6 132.7, 37.6 131.2 M 40.5 133.8 Q 41.5 133.8, 42.0 133.1 Q 42.5 132.5, 42.5 131.2 Q 42.5 129.9, 42.0 129.3 Q 41.5 128.7, 40.5 128.7 Q 39.6 128.7, 39.0 129.3 Q 38.5 129.9, 38.5 131.2 Q 38.5 132.5, 39.0 133.1 Q 39.6 133.8, 40.5 133.8 " fill="#FF0000"/>
<path class="atom-3" d="M 44.4 128.0 L 45.3 128.0 L 45.3 130.7 L 48.6 130.7 L 48.6 128.0 L 49.4 128.0 L 49.4 134.4 L 48.6 134.4 L 48.6 131.4 L 45.3 131.4 L 45.3 134.4 L 44.4 134.4 L 44.4 128.0 " fill="#FF0000"/>
<path class="atom-18" d="M 262.8 32.2 Q 262.8 30.7, 263.6 29.9 Q 264.3 29.0, 265.8 29.0 Q 267.2 29.0, 267.9 29.9 Q 268.7 30.7, 268.7 32.2 Q 268.7 33.8, 267.9 34.7 Q 267.1 35.5, 265.8 35.5 Q 264.4 35.5, 263.6 34.7 Q 262.8 33.8, 262.8 32.2 M 265.8 34.8 Q 266.7 34.8, 267.2 34.2 Q 267.8 33.5, 267.8 32.2 Q 267.8 31.0, 267.2 30.4 Q 266.7 29.7, 265.8 29.7 Q 264.8 29.7, 264.3 30.4 Q 263.7 31.0, 263.7 32.2 Q 263.7 33.5, 264.3 34.2 Q 264.8 34.8, 265.8 34.8 " fill="#FF0000"/>
<path class="atom-18" d="M 269.7 29.1 L 270.5 29.1 L 270.5 31.8 L 273.8 31.8 L 273.8 29.1 L 274.6 29.1 L 274.6 35.4 L 273.8 35.4 L 273.8 32.5 L 270.5 32.5 L 270.5 35.4 L 269.7 35.4 L 269.7 29.1 " fill="#FF0000"/>
<path class="atom-20" d="M 270.0 109.7 Q 270.0 108.2, 270.7 107.3 Q 271.5 106.5, 272.9 106.5 Q 274.3 106.5, 275.1 107.3 Q 275.8 108.2, 275.8 109.7 Q 275.8 111.3, 275.1 112.1 Q 274.3 113.0, 272.9 113.0 Q 271.5 113.0, 270.7 112.1 Q 270.0 111.3, 270.0 109.7 M 272.9 112.3 Q 273.9 112.3, 274.4 111.6 Q 274.9 111.0, 274.9 109.7 Q 274.9 108.5, 274.4 107.8 Q 273.9 107.2, 272.9 107.2 Q 271.9 107.2, 271.4 107.8 Q 270.9 108.5, 270.9 109.7 Q 270.9 111.0, 271.4 111.6 Q 271.9 112.3, 272.9 112.3 " fill="#FF0000"/>
<path class="atom-21" d="M 301.7 87.2 Q 301.7 85.7, 302.5 84.9 Q 303.3 84.0, 304.7 84.0 Q 306.1 84.0, 306.8 84.9 Q 307.6 85.7, 307.6 87.2 Q 307.6 88.8, 306.8 89.7 Q 306.1 90.5, 304.7 90.5 Q 303.3 90.5, 302.5 89.7 Q 301.7 88.8, 301.7 87.2 M 304.7 89.8 Q 305.6 89.8, 306.2 89.2 Q 306.7 88.5, 306.7 87.2 Q 306.7 86.0, 306.2 85.4 Q 305.6 84.7, 304.7 84.7 Q 303.7 84.7, 303.2 85.4 Q 302.6 86.0, 302.6 87.2 Q 302.6 88.5, 303.2 89.2 Q 303.7 89.8, 304.7 89.8 " fill="#FF0000"/>
<path class="atom-21" d="M 308.6 84.1 L 309.4 84.1 L 309.4 86.8 L 312.7 86.8 L 312.7 84.1 L 313.6 84.1 L 313.6 90.4 L 312.7 90.4 L 312.7 87.5 L 309.4 87.5 L 309.4 90.4 L 308.6 90.4 L 308.6 84.1 " fill="#FF0000"/>
<path class="atom-27" d="M 157.1 164.5 L 158.0 164.5 L 158.0 167.2 L 161.2 167.2 L 161.2 164.5 L 162.1 164.5 L 162.1 170.9 L 161.2 170.9 L 161.2 167.9 L 158.0 167.9 L 158.0 170.9 L 157.1 170.9 L 157.1 164.5 " fill="#FF0000"/>
<path class="atom-27" d="M 163.4 167.7 Q 163.4 166.2, 164.2 165.3 Q 164.9 164.5, 166.3 164.5 Q 167.7 164.5, 168.5 165.3 Q 169.2 166.2, 169.2 167.7 Q 169.2 169.2, 168.5 170.1 Q 167.7 171.0, 166.3 171.0 Q 164.9 171.0, 164.2 170.1 Q 163.4 169.2, 163.4 167.7 M 166.3 170.3 Q 167.3 170.3, 167.8 169.6 Q 168.3 169.0, 168.3 167.7 Q 168.3 166.4, 167.8 165.8 Q 167.3 165.2, 166.3 165.2 Q 165.3 165.2, 164.8 165.8 Q 164.3 166.4, 164.3 167.7 Q 164.3 169.0, 164.8 169.6 Q 165.3 170.3, 166.3 170.3 " fill="#FF0000"/>
<path class="atom-29" d="M 226.9 122.8 Q 226.9 121.2, 227.7 120.4 Q 228.4 119.5, 229.8 119.5 Q 231.2 119.5, 232.0 120.4 Q 232.7 121.2, 232.7 122.8 Q 232.7 124.3, 232.0 125.2 Q 231.2 126.1, 229.8 126.1 Q 228.4 126.1, 227.7 125.2 Q 226.9 124.3, 226.9 122.8 M 229.8 125.3 Q 230.8 125.3, 231.3 124.7 Q 231.8 124.0, 231.8 122.8 Q 231.8 121.5, 231.3 120.9 Q 230.8 120.2, 229.8 120.2 Q 228.9 120.2, 228.3 120.9 Q 227.8 121.5, 227.8 122.8 Q 227.8 124.0, 228.3 124.7 Q 228.9 125.3, 229.8 125.3 " fill="#FF0000"/>
<path class="atom-30" d="M 230.5 161.5 Q 230.5 160.0, 231.2 159.1 Q 232.0 158.3, 233.4 158.3 Q 234.8 158.3, 235.6 159.1 Q 236.3 160.0, 236.3 161.5 Q 236.3 163.0, 235.6 163.9 Q 234.8 164.8, 233.4 164.8 Q 232.0 164.8, 231.2 163.9 Q 230.5 163.0, 230.5 161.5 M 233.4 164.1 Q 234.4 164.1, 234.9 163.4 Q 235.4 162.8, 235.4 161.5 Q 235.4 160.2, 234.9 159.6 Q 234.4 159.0, 233.4 159.0 Q 232.4 159.0, 231.9 159.6 Q 231.4 160.2, 231.4 161.5 Q 231.4 162.8, 231.9 163.4 Q 232.4 164.1, 233.4 164.1 " fill="#FF0000"/>
<path class="atom-30" d="M 237.3 158.3 L 238.2 158.3 L 238.2 161.0 L 241.4 161.0 L 241.4 158.3 L 242.3 158.3 L 242.3 164.7 L 241.4 164.7 L 241.4 161.7 L 238.2 161.7 L 238.2 164.7 L 237.3 164.7 L 237.3 158.3 " fill="#FF0000"/>
<path class="atom-32" d="M 30.4 53.7 Q 30.4 52.2, 31.2 51.3 Q 32.0 50.5, 33.4 50.5 Q 34.8 50.5, 35.5 51.3 Q 36.3 52.2, 36.3 53.7 Q 36.3 55.3, 35.5 56.2 Q 34.8 57.0, 33.4 57.0 Q 32.0 57.0, 31.2 56.2 Q 30.4 55.3, 30.4 53.7 M 33.4 56.3 Q 34.3 56.3, 34.9 55.7 Q 35.4 55.0, 35.4 53.7 Q 35.4 52.5, 34.9 51.8 Q 34.3 51.2, 33.4 51.2 Q 32.4 51.2, 31.9 51.8 Q 31.3 52.5, 31.3 53.7 Q 31.3 55.0, 31.9 55.7 Q 32.4 56.3, 33.4 56.3 " fill="#FF0000"/>
<path class="atom-33" d="M 65.8 70.0 Q 65.8 68.5, 66.5 67.6 Q 67.3 66.8, 68.7 66.8 Q 70.1 66.8, 70.9 67.6 Q 71.6 68.5, 71.6 70.0 Q 71.6 71.5, 70.9 72.4 Q 70.1 73.3, 68.7 73.3 Q 67.3 73.3, 66.5 72.4 Q 65.8 71.5, 65.8 70.0 M 68.7 72.6 Q 69.7 72.6, 70.2 71.9 Q 70.7 71.3, 70.7 70.0 Q 70.7 68.7, 70.2 68.1 Q 69.7 67.5, 68.7 67.5 Q 67.7 67.5, 67.2 68.1 Q 66.7 68.7, 66.7 70.0 Q 66.7 71.3, 67.2 71.9 Q 67.7 72.6, 68.7 72.6 " fill="#FF0000"/>
<path class="atom-33" d="M 72.6 66.8 L 73.5 66.8 L 73.5 69.5 L 76.7 69.5 L 76.7 66.8 L 77.6 66.8 L 77.6 73.2 L 76.7 73.2 L 76.7 70.3 L 73.5 70.3 L 73.5 73.2 L 72.6 73.2 L 72.6 66.8 " fill="#FF0000"/>
</g>
    <g transform="translate(660.0, 0) scale(1 1) "><line x1="15" y1="100" x2="25" y2="100" style="stroke:rgb(0,0,0);stroke-width:2"/>
  <line x1="20" y1="95" x2="20" y2="105" style="stroke:rgb(0,0,0);stroke-width:2"/>
</g>
    <g transform="translate(700.0, 0) scale(1 1) "><!-- END OF HEADER -->
<rect style="opacity:1.0;fill:#FFFFFF;stroke:none" width="205.0" height="200.0" x="0.0" y="0.0"> </rect>
<path class="bond-0 atom-0 atom-1" d="M 122.6,44.3 L 108.8,89.2" style="fill:none;fill-rule:evenodd;stroke:#000000;stroke-width:2.0px;stroke-linecap:butt;stroke-linejoin:miter;stroke-opacity:1"/>
<path class="bond-1 atom-1 atom-2" d="M 108.8,89.2 L 95.0,134.1" style="fill:none;fill-rule:evenodd;stroke:#000000;stroke-width:2.0px;stroke-linecap:butt;stroke-linejoin:miter;stroke-opacity:1"/>
<path class="bond-2 atom-1 atom-3" d="M 108.8,89.2 L 63.9,75.4" style="fill:none;fill-rule:evenodd;stroke:#000000;stroke-width:2.0px;stroke-linecap:butt;stroke-linejoin:miter;stroke-opacity:1"/>
<path class="bond-3 atom-3 atom-4" d="M 63.9,75.4 L 50.5,87.9" style="fill:none;fill-rule:evenodd;stroke:#000000;stroke-width:2.0px;stroke-linecap:butt;stroke-linejoin:miter;stroke-opacity:1"/>
<path class="bond-3 atom-3 atom-4" d="M 50.5,87.9 L 37.2,100.3" style="fill:none;fill-rule:evenodd;stroke:#FF0000;stroke-width:2.0px;stroke-linecap:butt;stroke-linejoin:miter;stroke-opacity:1"/>
<path class="bond-4 atom-1 atom-5" d="M 108.8,89.2 L 153.7,103.0" style="fill:none;fill-rule:evenodd;stroke:#000000;stroke-width:2.0px;stroke-linecap:butt;stroke-linejoin:miter;stroke-opacity:1"/>
<path class="bond-5 atom-5 atom-6" d="M 154.7,107.0 L 168.8,93.8" style="fill:none;fill-rule:evenodd;stroke:#000000;stroke-width:2.0px;stroke-linecap:butt;stroke-linejoin:miter;stroke-opacity:1"/>
<path class="bond-5 atom-5 atom-6" d="M 168.8,93.8 L 182.9,80.7" style="fill:none;fill-rule:evenodd;stroke:#FF0000;stroke-width:2.0px;stroke-linecap:butt;stroke-linejoin:miter;stroke-opacity:1"/>
<path class="bond-5 atom-5 atom-6" d="M 149.9,101.8 L 164.0,88.7" style="fill:none;fill-rule:evenodd;stroke:#000000;stroke-width:2.0px;stroke-linecap:butt;stroke-linejoin:miter;stroke-opacity:1"/>
<path class="bond-5 atom-5 atom-6" d="M 164.0,88.7 L 178.1,75.5" style="fill:none;fill-rule:evenodd;stroke:#FF0000;stroke-width:2.0px;stroke-linecap:butt;stroke-linejoin:miter;stroke-opacity:1"/>
<path class="bond-6 atom-5 atom-7" d="M 153.7,103.0 L 158.0,121.7" style="fill:none;fill-rule:evenodd;stroke:#000000;stroke-width:2.0px;stroke-linecap:butt;stroke-linejoin:miter;stroke-opacity:1"/>
<path class="bond-6 atom-5 atom-7" d="M 158.0,121.7 L 162.4,140.5" style="fill:none;fill-rule:evenodd;stroke:#FF0000;stroke-width:2.0px;stroke-linecap:butt;stroke-linejoin:miter;stroke-opacity:1"/>
<path d="M 66.1,76.1 L 63.9,75.4 L 63.2,76.0" style="fill:none;stroke:#000000;stroke-width:2.0px;stroke-linecap:butt;stroke-linejoin:miter;stroke-opacity:1;"/>
<path d="M 151.5,102.3 L 153.7,103.0 L 154.0,103.9" style="fill:none;stroke:#000000;stroke-width:2.0px;stroke-linecap:butt;stroke-linejoin:miter;stroke-opacity:1;"/>
<path class="atom-4" d="M 10.2 100.8 L 12.1 100.8 L 12.1 106.5 L 18.9 106.5 L 18.9 100.8 L 20.7 100.8 L 20.7 114.1 L 18.9 114.1 L 18.9 108.0 L 12.1 108.0 L 12.1 114.1 L 10.2 114.1 L 10.2 100.8 " fill="#FF0000"/>
<path class="atom-4" d="M 23.4 107.5 Q 23.4 104.3, 25.0 102.5 Q 26.5 100.7, 29.5 100.7 Q 32.5 100.7, 34.0 102.5 Q 35.6 104.3, 35.6 107.5 Q 35.6 110.7, 34.0 112.5 Q 32.4 114.4, 29.5 114.4 Q 26.6 114.4, 25.0 112.5 Q 23.4 110.7, 23.4 107.5 M 29.5 112.9 Q 31.5 112.9, 32.6 111.5 Q 33.7 110.1, 33.7 107.5 Q 33.7 104.8, 32.6 103.5 Q 31.5 102.2, 29.5 102.2 Q 27.5 102.2, 26.4 103.5 Q 25.3 104.8, 25.3 107.5 Q 25.3 110.1, 26.4 111.5 Q 27.5 112.9, 29.5 112.9 " fill="#FF0000"/>
<path class="atom-6" d="M 182.0 71.0 Q 182.0 67.8, 183.6 66.0 Q 185.2 64.3, 188.1 64.3 Q 191.1 64.3, 192.7 66.0 Q 194.3 67.8, 194.3 71.0 Q 194.3 74.3, 192.7 76.1 Q 191.1 77.9, 188.1 77.9 Q 185.2 77.9, 183.6 76.1 Q 182.0 74.3, 182.0 71.0 M 188.1 76.4 Q 190.2 76.4, 191.3 75.1 Q 192.4 73.7, 192.4 71.0 Q 192.4 68.4, 191.3 67.1 Q 190.2 65.8, 188.1 65.8 Q 186.1 65.8, 185.0 67.1 Q 183.9 68.4, 183.9 71.0 Q 183.9 73.7, 185.0 75.1 Q 186.1 76.4, 188.1 76.4 " fill="#FF0000"/>
<path class="atom-7" d="M 158.2 148.8 Q 158.2 145.6, 159.7 143.8 Q 161.3 142.1, 164.3 142.1 Q 167.2 142.1, 168.8 143.8 Q 170.4 145.6, 170.4 148.8 Q 170.4 152.1, 168.8 153.9 Q 167.2 155.7, 164.3 155.7 Q 161.3 155.7, 159.7 153.9 Q 158.2 152.1, 158.2 148.8 M 164.3 154.2 Q 166.3 154.2, 167.4 152.9 Q 168.5 151.5, 168.5 148.8 Q 168.5 146.2, 167.4 144.9 Q 166.3 143.6, 164.3 143.6 Q 162.2 143.6, 161.1 144.9 Q 160.0 146.2, 160.0 148.8 Q 160.0 151.5, 161.1 152.9 Q 162.2 154.2, 164.3 154.2 " fill="#FF0000"/>
<path class="atom-7" d="M 172.4 142.2 L 174.2 142.2 L 174.2 147.9 L 181.0 147.9 L 181.0 142.2 L 182.9 142.2 L 182.9 155.5 L 181.0 155.5 L 181.0 149.4 L 174.2 149.4 L 174.2 155.5 L 172.4 155.5 L 172.4 142.2 " fill="#FF0000"/>
</g>
  </g>
</svg>
