<?xml version='1.0' encoding='ASCII' standalone='yes'?>
<svg xmlns="http://www.w3.org/2000/svg" xmlns:xlink="http://www.w3.org/1999/xlink" version="1.1" width="946.0px" viewBox="0 0 946.0 200.0" height="200.0px">
  <g>
    <g transform="translate(0, 0) scale(1 1) "><!-- END OF HEADER -->
<rect style="opacity:1.0;fill:#FFFFFF;stroke:none" width="301.0" height="200.0" x="0.0" y="0.0"> </rect>
<path class="bond-0 atom-0 atom-1" d="M 273.0,80.0 L 252.1,98.1" style="fill:none;fill-rule:evenodd;stroke:#000000;stroke-width:2.0px;stroke-linecap:butt;stroke-linejoin:miter;stroke-opacity:1"/>
<path class="bond-0 atom-0 atom-1" d="M 270.4,77.0 L 249.5,95.0" style="fill:none;fill-rule:evenodd;stroke:#000000;stroke-width:2.0px;stroke-linecap:butt;stroke-linejoin:miter;stroke-opacity:1"/>
<path class="bond-1 atom-1 atom-2" d="M 251.6,95.8 L 226.6,87.0" style="fill:none;fill-rule:evenodd;stroke:#000000;stroke-width:2.0px;stroke-linecap:butt;stroke-linejoin:miter;stroke-opacity:1"/>
<path class="bond-2 atom-2 atom-3" d="M 226.6,87.0 L 206.5,104.3" style="fill:none;fill-rule:evenodd;stroke:#000000;stroke-width:2.0px;stroke-linecap:butt;stroke-linejoin:miter;stroke-opacity:1"/>
<path class="bond-3 atom-3 atom-4" d="M 206.5,104.3 L 181.4,95.6" style="fill:none;fill-rule:evenodd;stroke:#000000;stroke-width:2.0px;stroke-linecap:butt;stroke-linejoin:miter;stroke-opacity:1"/>
<path class="bond-4 atom-4 atom-5" d="M 181.4,95.6 L 185.0,85.5" style="fill:none;fill-rule:evenodd;stroke:#000000;stroke-width:2.0px;stroke-linecap:butt;stroke-linejoin:miter;stroke-opacity:1"/>
<path class="bond-4 atom-4 atom-5" d="M 185.0,85.5 L 188.5,75.3" style="fill:none;fill-rule:evenodd;stroke:#FF0000;stroke-width:2.0px;stroke-linecap:butt;stroke-linejoin:miter;stroke-opacity:1"/>
<path class="bond-5 atom-4 atom-6" d="M 181.4,95.6 L 177.9,105.8" style="fill:none;fill-rule:evenodd;stroke:#000000;stroke-width:2.0px;stroke-linecap:butt;stroke-linejoin:miter;stroke-opacity:1"/>
<path class="bond-5 atom-4 atom-6" d="M 177.9,105.8 L 174.3,116.0" style="fill:none;fill-rule:evenodd;stroke:#FF0000;stroke-width:2.0px;stroke-linecap:butt;stroke-linejoin:miter;stroke-opacity:1"/>
<path class="bond-6 atom-4 atom-7" d="M 181.4,95.6 L 156.4,86.8" style="fill:none;fill-rule:evenodd;stroke:#000000;stroke-width:2.0px;stroke-linecap:butt;stroke-linejoin:miter;stroke-opacity:1"/>
<path class="bond-7 atom-7 atom-8" d="M 156.4,86.8 L 151.5,60.8" style="fill:none;fill-rule:evenodd;stroke:#000000;stroke-width:2.0px;stroke-linecap:butt;stroke-linejoin:miter;stroke-opacity:1"/>
<path class="bond-8 atom-8 atom-9" d="M 151.5,60.8 L 126.4,52.0" style="fill:none;fill-rule:evenodd;stroke:#000000;stroke-width:2.0px;stroke-linecap:butt;stroke-linejoin:miter;stroke-opacity:1"/>
<path class="bond-9 atom-9 atom-10" d="M 128.6,52.8 L 123.5,25.6" style="fill:none;fill-rule:evenodd;stroke:#000000;stroke-width:2.0px;stroke-linecap:butt;stroke-linejoin:miter;stroke-opacity:1"/>
<path class="bond-9 atom-9 atom-10" d="M 124.7,53.5 L 119.5,26.3" style="fill:none;fill-rule:evenodd;stroke:#000000;stroke-width:2.0px;stroke-linecap:butt;stroke-linejoin:miter;stroke-opacity:1"/>
<path class="bond-10 atom-9 atom-11" d="M 126.4,52.0 L 106.3,69.3" style="fill:none;fill-rule:evenodd;stroke:#000000;stroke-width:2.0px;stroke-linecap:butt;stroke-linejoin:miter;stroke-opacity:1"/>
<path class="bond-11 atom-11 atom-12" d="M 106.3,69.3 L 113.0,77.0" style="fill:none;fill-rule:evenodd;stroke:#000000;stroke-width:2.0px;stroke-linecap:butt;stroke-linejoin:miter;stroke-opacity:1"/>
<path class="bond-11 atom-11 atom-12" d="M 113.0,77.0 L 119.6,84.7" style="fill:none;fill-rule:evenodd;stroke:#FF0000;stroke-width:2.0px;stroke-linecap:butt;stroke-linejoin:miter;stroke-opacity:1"/>
<path class="bond-12 atom-11 atom-13" d="M 106.3,69.3 L 99.7,61.7" style="fill:none;fill-rule:evenodd;stroke:#000000;stroke-width:2.0px;stroke-linecap:butt;stroke-linejoin:miter;stroke-opacity:1"/>
<path class="bond-12 atom-11 atom-13" d="M 99.7,61.7 L 93.2,54.0" style="fill:none;fill-rule:evenodd;stroke:#FF0000;stroke-width:2.0px;stroke-linecap:butt;stroke-linejoin:miter;stroke-opacity:1"/>
<path class="bond-13 atom-11 atom-14" d="M 106.3,69.3 L 86.2,86.6" style="fill:none;fill-rule:evenodd;stroke:#000000;stroke-width:2.0px;stroke-linecap:butt;stroke-linejoin:miter;stroke-opacity:1"/>
<path class="bond-14 atom-14 atom-15" d="M 86.2,86.6 L 91.2,112.7" style="fill:none;fill-rule:evenodd;stroke:#000000;stroke-width:2.0px;stroke-linecap:butt;stroke-linejoin:miter;stroke-opacity:1"/>
<path class="bond-15 atom-15 atom-16" d="M 91.2,112.7 L 71.1,130.0" style="fill:none;fill-rule:evenodd;stroke:#000000;stroke-width:2.0px;stroke-linecap:butt;stroke-linejoin:miter;stroke-opacity:1"/>
<path class="bond-16 atom-16 atom-17" d="M 68.9,129.2 L 74.0,156.4" style="fill:none;fill-rule:evenodd;stroke:#000000;stroke-width:2.0px;stroke-linecap:butt;stroke-linejoin:miter;stroke-opacity:1"/>
<path class="bond-16 atom-16 atom-17" d="M 72.8,128.5 L 77.9,155.7" style="fill:none;fill-rule:evenodd;stroke:#000000;stroke-width:2.0px;stroke-linecap:butt;stroke-linejoin:miter;stroke-opacity:1"/>
<path class="bond-17 atom-16 atom-18" d="M 71.1,130.0 L 46.0,121.2" style="fill:none;fill-rule:evenodd;stroke:#000000;stroke-width:2.0px;stroke-linecap:butt;stroke-linejoin:miter;stroke-opacity:1"/>
<path class="bond-18 atom-18 atom-19" d="M 48.2,122.0 L 46.1,110.8" style="fill:none;fill-rule:evenodd;stroke:#000000;stroke-width:2.0px;stroke-linecap:butt;stroke-linejoin:miter;stroke-opacity:1"/>
<path class="bond-18 atom-18 atom-19" d="M 46.1,110.8 L 43.9,99.6" style="fill:none;fill-rule:evenodd;stroke:#FF0000;stroke-width:2.0px;stroke-linecap:butt;stroke-linejoin:miter;stroke-opacity:1"/>
<path class="bond-18 atom-18 atom-19" d="M 44.3,122.7 L 42.2,111.5" style="fill:none;fill-rule:evenodd;stroke:#000000;stroke-width:2.0px;stroke-linecap:butt;stroke-linejoin:miter;stroke-opacity:1"/>
<path class="bond-18 atom-18 atom-19" d="M 42.2,111.5 L 40.0,100.3" style="fill:none;fill-rule:evenodd;stroke:#FF0000;stroke-width:2.0px;stroke-linecap:butt;stroke-linejoin:miter;stroke-opacity:1"/>
<path class="bond-19 atom-18 atom-20" d="M 46.0,121.2 L 38.1,128.0" style="fill:none;fill-rule:evenodd;stroke:#000000;stroke-width:2.0px;stroke-linecap:butt;stroke-linejoin:miter;stroke-opacity:1"/>
<path class="bond-19 atom-18 atom-20" d="M 38.1,128.0 L 30.2,134.8" style="fill:none;fill-rule:evenodd;stroke:#FF0000;stroke-width:2.0px;stroke-linecap:butt;stroke-linejoin:miter;stroke-opacity:1"/>
<path class="bond-20 atom-1 atom-21" d="M 251.6,95.8 L 256.6,121.9" style="fill:none;fill-rule:evenodd;stroke:#000000;stroke-width:2.0px;stroke-linecap:butt;stroke-linejoin:miter;stroke-opacity:1"/>
<path class="bond-21 atom-21 atom-22" d="M 254.8,123.4 L 265.7,127.2" style="fill:none;fill-rule:evenodd;stroke:#000000;stroke-width:2.0px;stroke-linecap:butt;stroke-linejoin:miter;stroke-opacity:1"/>
<path class="bond-21 atom-21 atom-22" d="M 265.7,127.2 L 276.6,131.0" style="fill:none;fill-rule:evenodd;stroke:#FF0000;stroke-width:2.0px;stroke-linecap:butt;stroke-linejoin:miter;stroke-opacity:1"/>
<path class="bond-21 atom-21 atom-22" d="M 256.1,119.6 L 267.0,123.4" style="fill:none;fill-rule:evenodd;stroke:#000000;stroke-width:2.0px;stroke-linecap:butt;stroke-linejoin:miter;stroke-opacity:1"/>
<path class="bond-21 atom-21 atom-22" d="M 267.0,123.4 L 277.9,127.2" style="fill:none;fill-rule:evenodd;stroke:#FF0000;stroke-width:2.0px;stroke-linecap:butt;stroke-linejoin:miter;stroke-opacity:1"/>
<path class="bond-22 atom-21 atom-23" d="M 256.6,121.9 L 248.7,128.7" style="fill:none;fill-rule:evenodd;stroke:#000000;stroke-width:2.0px;stroke-linecap:butt;stroke-linejoin:miter;stroke-opacity:1"/>
<path class="bond-22 atom-21 atom-23" d="M 248.7,128.7 L 240.8,135.4" style="fill:none;fill-rule:evenodd;stroke:#FF0000;stroke-width:2.0px;stroke-linecap:butt;stroke-linejoin:miter;stroke-opacity:1"/>
<path d="M 250.4,95.4 L 251.6,95.8 L 251.9,97.1" style="fill:none;stroke:#000000;stroke-width:2.0px;stroke-linecap:butt;stroke-linejoin:miter;stroke-opacity:1;"/>
<path d="M 227.8,87.5 L 226.6,87.0 L 225.6,87.9" style="fill:none;stroke:#000000;stroke-width:2.0px;stroke-linecap:butt;stroke-linejoin:miter;stroke-opacity:1;"/>
<path d="M 207.5,103.5 L 206.5,104.3 L 205.2,103.9" style="fill:none;stroke:#000000;stroke-width:2.0px;stroke-linecap:butt;stroke-linejoin:miter;stroke-opacity:1;"/>
<path d="M 157.7,87.3 L 156.4,86.8 L 156.2,85.5" style="fill:none;stroke:#000000;stroke-width:2.0px;stroke-linecap:butt;stroke-linejoin:miter;stroke-opacity:1;"/>
<path d="M 151.7,62.1 L 151.5,60.8 L 150.2,60.3" style="fill:none;stroke:#000000;stroke-width:2.0px;stroke-linecap:butt;stroke-linejoin:miter;stroke-opacity:1;"/>
<path d="M 127.7,52.4 L 126.4,52.0 L 125.4,52.9" style="fill:none;stroke:#000000;stroke-width:2.0px;stroke-linecap:butt;stroke-linejoin:miter;stroke-opacity:1;"/>
<path d="M 87.2,85.8 L 86.2,86.6 L 86.5,87.9" style="fill:none;stroke:#000000;stroke-width:2.0px;stroke-linecap:butt;stroke-linejoin:miter;stroke-opacity:1;"/>
<path d="M 90.9,111.4 L 91.2,112.7 L 90.2,113.5" style="fill:none;stroke:#000000;stroke-width:2.0px;stroke-linecap:butt;stroke-linejoin:miter;stroke-opacity:1;"/>
<path d="M 72.1,129.1 L 71.1,130.0 L 69.8,129.6" style="fill:none;stroke:#000000;stroke-width:2.0px;stroke-linecap:butt;stroke-linejoin:miter;stroke-opacity:1;"/>
<path d="M 47.3,121.7 L 46.0,121.2 L 45.6,121.6" style="fill:none;stroke:#000000;stroke-width:2.0px;stroke-linecap:butt;stroke-linejoin:miter;stroke-opacity:1;"/>
<path d="M 256.3,120.6 L 256.6,121.9 L 256.2,122.2" style="fill:none;stroke:#000000;stroke-width:2.0px;stroke-linecap:butt;stroke-linejoin:miter;stroke-opacity:1;"/>
<path class="atom-5" d="M 186.8 70.6 Q 186.8 68.8, 187.6 67.8 Q 188.5 66.8, 190.2 66.8 Q 191.9 66.8, 192.8 67.8 Q 193.7 68.8, 193.7 70.6 Q 193.7 72.4, 192.8 73.4 Q 191.8 74.5, 190.2 74.5 Q 188.5 74.5, 187.6 73.4 Q 186.8 72.4, 186.8 70.6 M 190.2 73.6 Q 191.4 73.6, 192.0 72.9 Q 192.6 72.1, 192.6 70.6 Q 192.6 69.1, 192.0 68.4 Q 191.4 67.6, 190.2 67.6 Q 189.1 67.6, 188.4 68.3 Q 187.8 69.1, 187.8 70.6 Q 187.8 72.1, 188.4 72.9 Q 189.1 73.6, 190.2 73.6 " fill="#FF0000"/>
<path class="atom-5" d="M 194.8 66.8 L 195.8 66.8 L 195.8 70.0 L 199.7 70.0 L 199.7 66.8 L 200.7 66.8 L 200.7 74.3 L 199.7 74.3 L 199.7 70.9 L 195.8 70.9 L 195.8 74.3 L 194.8 74.3 L 194.8 66.8 " fill="#FF0000"/>
<path class="atom-6" d="M 169.2 120.6 Q 169.2 118.8, 170.1 117.8 Q 171.0 116.8, 172.7 116.8 Q 174.4 116.8, 175.2 117.8 Q 176.1 118.8, 176.1 120.6 Q 176.1 122.5, 175.2 123.5 Q 174.3 124.5, 172.7 124.5 Q 171.0 124.5, 170.1 123.5 Q 169.2 122.5, 169.2 120.6 M 172.7 123.7 Q 173.8 123.7, 174.5 122.9 Q 175.1 122.2, 175.1 120.6 Q 175.1 119.2, 174.5 118.4 Q 173.8 117.7, 172.7 117.7 Q 171.5 117.7, 170.9 118.4 Q 170.3 119.2, 170.3 120.6 Q 170.3 122.2, 170.9 122.9 Q 171.5 123.7, 172.7 123.7 " fill="#FF0000"/>
<path class="atom-6" d="M 177.3 116.9 L 178.3 116.9 L 178.3 120.1 L 182.2 120.1 L 182.2 116.9 L 183.2 116.9 L 183.2 124.4 L 182.2 124.4 L 182.2 121.0 L 178.3 121.0 L 178.3 124.4 L 177.3 124.4 L 177.3 116.9 " fill="#FF0000"/>
<path class="atom-12" d="M 120.2 89.4 Q 120.2 87.6, 121.1 86.6 Q 122.0 85.6, 123.6 85.6 Q 125.3 85.6, 126.2 86.6 Q 127.1 87.6, 127.1 89.4 Q 127.1 91.3, 126.2 92.3 Q 125.3 93.3, 123.6 93.3 Q 122.0 93.3, 121.1 92.3 Q 120.2 91.3, 120.2 89.4 M 123.6 92.5 Q 124.8 92.5, 125.4 91.7 Q 126.0 90.9, 126.0 89.4 Q 126.0 88.0, 125.4 87.2 Q 124.8 86.5, 123.6 86.5 Q 122.5 86.5, 121.9 87.2 Q 121.2 88.0, 121.2 89.4 Q 121.2 91.0, 121.9 91.7 Q 122.5 92.5, 123.6 92.5 " fill="#FF0000"/>
<path class="atom-12" d="M 128.3 85.7 L 129.3 85.7 L 129.3 88.9 L 133.1 88.9 L 133.1 85.7 L 134.1 85.7 L 134.1 93.2 L 133.1 93.2 L 133.1 89.7 L 129.3 89.7 L 129.3 93.2 L 128.3 93.2 L 128.3 85.7 " fill="#FF0000"/>
<path class="atom-13" d="M 78.2 45.5 L 79.2 45.5 L 79.2 48.7 L 83.0 48.7 L 83.0 45.5 L 84.0 45.5 L 84.0 53.0 L 83.0 53.0 L 83.0 49.5 L 79.2 49.5 L 79.2 53.0 L 78.2 53.0 L 78.2 45.5 " fill="#FF0000"/>
<path class="atom-13" d="M 85.6 49.2 Q 85.6 47.4, 86.5 46.4 Q 87.4 45.4, 89.0 45.4 Q 90.7 45.4, 91.6 46.4 Q 92.5 47.4, 92.5 49.2 Q 92.5 51.1, 91.6 52.1 Q 90.7 53.1, 89.0 53.1 Q 87.4 53.1, 86.5 52.1 Q 85.6 51.1, 85.6 49.2 M 89.0 52.3 Q 90.2 52.3, 90.8 51.5 Q 91.4 50.7, 91.4 49.2 Q 91.4 47.8, 90.8 47.0 Q 90.2 46.3, 89.0 46.3 Q 87.9 46.3, 87.3 47.0 Q 86.6 47.7, 86.6 49.2 Q 86.6 50.8, 87.3 51.5 Q 87.9 52.3, 89.0 52.3 " fill="#FF0000"/>
<path class="atom-19" d="M 37.6 95.2 Q 37.6 93.4, 38.5 92.4 Q 39.4 91.4, 41.1 91.4 Q 42.8 91.4, 43.6 92.4 Q 44.5 93.4, 44.5 95.2 Q 44.5 97.0, 43.6 98.1 Q 42.7 99.1, 41.1 99.1 Q 39.4 99.1, 38.5 98.1 Q 37.6 97.0, 37.6 95.2 M 41.1 98.2 Q 42.2 98.2, 42.8 97.5 Q 43.5 96.7, 43.5 95.2 Q 43.5 93.7, 42.8 93.0 Q 42.2 92.2, 41.1 92.2 Q 39.9 92.2, 39.3 93.0 Q 38.7 93.7, 38.7 95.2 Q 38.7 96.7, 39.3 97.5 Q 39.9 98.2, 41.1 98.2 " fill="#FF0000"/>
<path class="atom-20" d="M 15.0 134.8 L 16.1 134.8 L 16.1 138.0 L 19.9 138.0 L 19.9 134.8 L 20.9 134.8 L 20.9 142.3 L 19.9 142.3 L 19.9 138.9 L 16.1 138.9 L 16.1 142.3 L 15.0 142.3 L 15.0 134.8 " fill="#FF0000"/>
<path class="atom-20" d="M 22.5 138.6 Q 22.5 136.8, 23.4 135.7 Q 24.3 134.7, 25.9 134.7 Q 27.6 134.7, 28.5 135.7 Q 29.4 136.8, 29.4 138.6 Q 29.4 140.4, 28.5 141.4 Q 27.6 142.5, 25.9 142.5 Q 24.3 142.5, 23.4 141.4 Q 22.5 140.4, 22.5 138.6 M 25.9 141.6 Q 27.1 141.6, 27.7 140.8 Q 28.3 140.1, 28.3 138.6 Q 28.3 137.1, 27.7 136.3 Q 27.1 135.6, 25.9 135.6 Q 24.8 135.6, 24.1 136.3 Q 23.5 137.1, 23.5 138.6 Q 23.5 140.1, 24.1 140.8 Q 24.8 141.6, 25.9 141.6 " fill="#FF0000"/>
<path class="atom-22" d="M 278.2 130.6 Q 278.2 128.8, 279.0 127.8 Q 279.9 126.8, 281.6 126.8 Q 283.3 126.8, 284.2 127.8 Q 285.1 128.8, 285.1 130.6 Q 285.1 132.5, 284.1 133.5 Q 283.2 134.5, 281.6 134.5 Q 279.9 134.5, 279.0 133.5 Q 278.2 132.5, 278.2 130.6 M 281.6 133.7 Q 282.7 133.7, 283.4 132.9 Q 284.0 132.1, 284.0 130.6 Q 284.0 129.2, 283.4 128.4 Q 282.7 127.7, 281.6 127.7 Q 280.5 127.7, 279.8 128.4 Q 279.2 129.2, 279.2 130.6 Q 279.2 132.2, 279.8 132.9 Q 280.5 133.7, 281.6 133.7 " fill="#FF0000"/>
<path class="atom-23" d="M 225.6 135.5 L 226.6 135.5 L 226.6 138.6 L 230.5 138.6 L 230.5 135.5 L 231.5 135.5 L 231.5 143.0 L 230.5 143.0 L 230.5 139.5 L 226.6 139.5 L 226.6 143.0 L 225.6 143.0 L 225.6 135.5 " fill="#FF0000"/>
<path class="atom-23" d="M 233.0 139.2 Q 233.0 137.4, 233.9 136.4 Q 234.8 135.4, 236.5 135.4 Q 238.1 135.4, 239.0 136.4 Q 239.9 137.4, 239.9 139.2 Q 239.9 141.0, 239.0 142.1 Q 238.1 143.1, 236.5 143.1 Q 234.8 143.1, 233.9 142.1 Q 233.0 141.0, 233.0 139.2 M 236.5 142.2 Q 237.6 142.2, 238.2 141.5 Q 238.8 140.7, 238.8 139.2 Q 238.8 137.7, 238.2 137.0 Q 237.6 136.2, 236.5 136.2 Q 235.3 136.2, 234.7 137.0 Q 234.1 137.7, 234.1 139.2 Q 234.1 140.7, 234.7 141.5 Q 235.3 142.2, 236.5 142.2 " fill="#FF0000"/>
<path class="legend" d="M 141.5 181.9 Q 141.5 179.6, 142.2 177.7 Q 142.9 175.8, 144.2 173.8 L 145.1 174.4 Q 144.0 176.3, 143.5 178.0 Q 143.0 179.7, 143.0 181.9 Q 143.0 184.0, 143.5 185.8 Q 144.0 187.5, 145.1 189.4 L 144.2 190.0 Q 142.9 188.0, 142.2 186.1 Q 141.5 184.2, 141.5 181.9 " fill="#000000"/>
<path class="legend" d="M 146.0 177.3 Q 146.4 176.2, 147.4 175.6 Q 148.4 175.0, 149.8 175.0 Q 151.5 175.0, 152.4 175.9 Q 153.4 176.8, 153.4 178.5 Q 153.4 180.2, 152.1 181.7 Q 150.9 183.3, 148.4 185.2 L 153.6 185.2 L 153.6 186.4 L 146.0 186.4 L 146.0 185.4 Q 148.1 183.9, 149.3 182.8 Q 150.6 181.6, 151.2 180.6 Q 151.8 179.6, 151.8 178.6 Q 151.8 177.5, 151.2 176.9 Q 150.7 176.3, 149.8 176.3 Q 148.8 176.3, 148.2 176.6 Q 147.6 177.0, 147.2 177.8 L 146.0 177.3 " fill="#000000"/>
<path class="legend" d="M 158.6 181.9 Q 158.6 184.2, 157.9 186.1 Q 157.2 188.0, 155.9 190.0 L 155.0 189.4 Q 156.1 187.5, 156.6 185.8 Q 157.1 184.0, 157.1 181.9 Q 157.1 179.7, 156.6 178.0 Q 156.1 176.3, 155.0 174.4 L 155.9 173.8 Q 157.2 175.8, 157.9 177.7 Q 158.6 179.6, 158.6 181.9 " fill="#000000"/>
</g>
    <g transform="translate(301.0, 0) scale(1 1) "><line x1="5" y1="100" x2="35" y2="100" style="stroke:rgb(0,0,0);stroke-width:2"/>
  <line x1="34" y1="100" x2="29" y2="95" style="stroke:rgb(0,0,0);stroke-width:2"/>
  <line x1="34" y1="100" x2="29" y2="105" style="stroke:rgb(0,0,0);stroke-width:2"/>
</g>
    <g transform="translate(341.0, 0) scale(1 1) "><!-- END OF HEADER -->
<rect style="opacity:1.0;fill:#FFFFFF;stroke:none" width="225.0" height="200.0" x="0.0" y="0.0"> </rect>
<path class="bond-0 atom-0 atom-1" d="M 180.0,50.1 L 155.0,82.9" style="fill:none;fill-rule:evenodd;stroke:#000000;stroke-width:2.0px;stroke-linecap:butt;stroke-linejoin:miter;stroke-opacity:1"/>
<path class="bond-0 atom-0 atom-1" d="M 175.3,46.5 L 150.3,79.3" style="fill:none;fill-rule:evenodd;stroke:#000000;stroke-width:2.0px;stroke-linecap:butt;stroke-linejoin:miter;stroke-opacity:1"/>
<path class="bond-1 atom-1 atom-2" d="M 153.7,79.8 L 114.5,74.7" style="fill:none;fill-rule:evenodd;stroke:#000000;stroke-width:2.0px;stroke-linecap:butt;stroke-linejoin:miter;stroke-opacity:1"/>
<path class="bond-2 atom-2 atom-3" d="M 114.5,74.7 L 90.6,106.2" style="fill:none;fill-rule:evenodd;stroke:#000000;stroke-width:2.0px;stroke-linecap:butt;stroke-linejoin:miter;stroke-opacity:1"/>
<path class="bond-3 atom-3 atom-4" d="M 90.6,106.2 L 51.4,101.1" style="fill:none;fill-rule:evenodd;stroke:#000000;stroke-width:2.0px;stroke-linecap:butt;stroke-linejoin:miter;stroke-opacity:1"/>
<path class="bond-4 atom-4 atom-5" d="M 51.4,101.1 L 42.1,113.4" style="fill:none;fill-rule:evenodd;stroke:#000000;stroke-width:2.0px;stroke-linecap:butt;stroke-linejoin:miter;stroke-opacity:1"/>
<path class="bond-4 atom-4 atom-5" d="M 42.1,113.4 L 32.7,125.6" style="fill:none;fill-rule:evenodd;stroke:#FF0000;stroke-width:2.0px;stroke-linecap:butt;stroke-linejoin:miter;stroke-opacity:1"/>
<path class="bond-5 atom-4 atom-6" d="M 51.4,101.1 L 45.2,86.5" style="fill:none;fill-rule:evenodd;stroke:#000000;stroke-width:2.0px;stroke-linecap:butt;stroke-linejoin:miter;stroke-opacity:1"/>
<path class="bond-5 atom-4 atom-6" d="M 45.2,86.5 L 39.1,71.8" style="fill:none;fill-rule:evenodd;stroke:#FF0000;stroke-width:2.0px;stroke-linecap:butt;stroke-linejoin:miter;stroke-opacity:1"/>
<path class="bond-6 atom-1 atom-7" d="M 153.7,79.8 L 168.9,116.2" style="fill:none;fill-rule:evenodd;stroke:#000000;stroke-width:2.0px;stroke-linecap:butt;stroke-linejoin:miter;stroke-opacity:1"/>
<path class="bond-7 atom-7 atom-8" d="M 166.9,118.9 L 184.1,121.1" style="fill:none;fill-rule:evenodd;stroke:#000000;stroke-width:2.0px;stroke-linecap:butt;stroke-linejoin:miter;stroke-opacity:1"/>
<path class="bond-7 atom-7 atom-8" d="M 184.1,121.1 L 201.3,123.3" style="fill:none;fill-rule:evenodd;stroke:#FF0000;stroke-width:2.0px;stroke-linecap:butt;stroke-linejoin:miter;stroke-opacity:1"/>
<path class="bond-7 atom-7 atom-8" d="M 167.6,113.0 L 184.8,115.3" style="fill:none;fill-rule:evenodd;stroke:#000000;stroke-width:2.0px;stroke-linecap:butt;stroke-linejoin:miter;stroke-opacity:1"/>
<path class="bond-7 atom-7 atom-8" d="M 184.8,115.3 L 202.1,117.5" style="fill:none;fill-rule:evenodd;stroke:#FF0000;stroke-width:2.0px;stroke-linecap:butt;stroke-linejoin:miter;stroke-opacity:1"/>
<path class="bond-8 atom-7 atom-9" d="M 168.9,116.2 L 159.6,128.4" style="fill:none;fill-rule:evenodd;stroke:#000000;stroke-width:2.0px;stroke-linecap:butt;stroke-linejoin:miter;stroke-opacity:1"/>
<path class="bond-8 atom-7 atom-9" d="M 159.6,128.4 L 150.3,140.7" style="fill:none;fill-rule:evenodd;stroke:#FF0000;stroke-width:2.0px;stroke-linecap:butt;stroke-linejoin:miter;stroke-opacity:1"/>
<path d="M 151.7,79.5 L 153.7,79.8 L 154.4,81.6" style="fill:none;stroke:#000000;stroke-width:2.0px;stroke-linecap:butt;stroke-linejoin:miter;stroke-opacity:1;"/>
<path d="M 116.5,75.0 L 114.5,74.7 L 113.3,76.3" style="fill:none;stroke:#000000;stroke-width:2.0px;stroke-linecap:butt;stroke-linejoin:miter;stroke-opacity:1;"/>
<path d="M 91.8,104.6 L 90.6,106.2 L 88.6,105.9" style="fill:none;stroke:#000000;stroke-width:2.0px;stroke-linecap:butt;stroke-linejoin:miter;stroke-opacity:1;"/>
<path d="M 168.2,114.4 L 168.9,116.2 L 168.5,116.8" style="fill:none;stroke:#000000;stroke-width:2.0px;stroke-linecap:butt;stroke-linejoin:miter;stroke-opacity:1;"/>
<path class="atom-5" d="M 11.2 127.0 L 12.8 127.0 L 12.8 131.8 L 18.5 131.8 L 18.5 127.0 L 20.0 127.0 L 20.0 138.2 L 18.5 138.2 L 18.5 133.1 L 12.8 133.1 L 12.8 138.2 L 11.2 138.2 L 11.2 127.0 " fill="#FF0000"/>
<path class="atom-5" d="M 22.3 132.6 Q 22.3 129.9, 23.6 128.4 Q 25.0 126.9, 27.4 126.9 Q 29.9 126.9, 31.2 128.4 Q 32.6 129.9, 32.6 132.6 Q 32.6 135.3, 31.2 136.9 Q 29.9 138.4, 27.4 138.4 Q 25.0 138.4, 23.6 136.9 Q 22.3 135.3, 22.3 132.6 M 27.4 137.1 Q 29.1 137.1, 30.1 136.0 Q 31.0 134.8, 31.0 132.6 Q 31.0 130.4, 30.1 129.3 Q 29.1 128.2, 27.4 128.2 Q 25.7 128.2, 24.8 129.3 Q 23.9 130.4, 23.9 132.6 Q 23.9 134.9, 24.8 136.0 Q 25.7 137.1, 27.4 137.1 " fill="#FF0000"/>
<path class="atom-6" d="M 19.9 59.2 L 21.5 59.2 L 21.5 63.9 L 27.2 63.9 L 27.2 59.2 L 28.7 59.2 L 28.7 70.4 L 27.2 70.4 L 27.2 65.2 L 21.5 65.2 L 21.5 70.4 L 19.9 70.4 L 19.9 59.2 " fill="#FF0000"/>
<path class="atom-6" d="M 31.0 64.7 Q 31.0 62.0, 32.3 60.5 Q 33.7 59.0, 36.1 59.0 Q 38.6 59.0, 39.9 60.5 Q 41.3 62.0, 41.3 64.7 Q 41.3 67.4, 39.9 69.0 Q 38.6 70.5, 36.1 70.5 Q 33.7 70.5, 32.3 69.0 Q 31.0 67.5, 31.0 64.7 M 36.1 69.3 Q 37.8 69.3, 38.8 68.1 Q 39.7 67.0, 39.7 64.7 Q 39.7 62.5, 38.8 61.4 Q 37.8 60.3, 36.1 60.3 Q 34.4 60.3, 33.5 61.4 Q 32.6 62.5, 32.6 64.7 Q 32.6 67.0, 33.5 68.1 Q 34.4 69.3, 36.1 69.3 " fill="#FF0000"/>
<path class="atom-8" d="M 203.0 121.3 Q 203.0 118.6, 204.3 117.1 Q 205.6 115.6, 208.1 115.6 Q 210.6 115.6, 211.9 117.1 Q 213.2 118.6, 213.2 121.3 Q 213.2 124.0, 211.9 125.5 Q 210.6 127.1, 208.1 127.1 Q 205.6 127.1, 204.3 125.5 Q 203.0 124.0, 203.0 121.3 M 208.1 125.8 Q 209.8 125.8, 210.7 124.7 Q 211.7 123.5, 211.7 121.3 Q 211.7 119.1, 210.7 118.0 Q 209.8 116.8, 208.1 116.8 Q 206.4 116.8, 205.5 117.9 Q 204.6 119.0, 204.6 121.3 Q 204.6 123.5, 205.5 124.7 Q 206.4 125.8, 208.1 125.8 " fill="#FF0000"/>
<path class="atom-9" d="M 128.8 142.1 L 130.3 142.1 L 130.3 146.9 L 136.0 146.9 L 136.0 142.1 L 137.6 142.1 L 137.6 153.3 L 136.0 153.3 L 136.0 148.1 L 130.3 148.1 L 130.3 153.3 L 128.8 153.3 L 128.8 142.1 " fill="#FF0000"/>
<path class="atom-9" d="M 139.9 147.7 Q 139.9 145.0, 141.2 143.5 Q 142.5 142.0, 145.0 142.0 Q 147.5 142.0, 148.8 143.5 Q 150.1 145.0, 150.1 147.7 Q 150.1 150.4, 148.8 151.9 Q 147.4 153.5, 145.0 153.5 Q 142.5 153.5, 141.2 151.9 Q 139.9 150.4, 139.9 147.7 M 145.0 152.2 Q 146.7 152.2, 147.6 151.1 Q 148.5 149.9, 148.5 147.7 Q 148.5 145.5, 147.6 144.4 Q 146.7 143.2, 145.0 143.2 Q 143.3 143.2, 142.3 144.3 Q 141.4 145.4, 141.4 147.7 Q 141.4 149.9, 142.3 151.1 Q 143.3 152.2, 145.0 152.2 " fill="#FF0000"/>
</g>
    <g transform="translate(566.0, 0) scale(1 1) "><line x1="15" y1="100" x2="25" y2="100" style="stroke:rgb(0,0,0);stroke-width:2"/>
  <line x1="20" y1="95" x2="20" y2="105" style="stroke:rgb(0,0,0);stroke-width:2"/>
</g>
    <g transform="translate(606.0, 0) scale(1 1) "><!-- END OF HEADER -->
<rect style="opacity:1.0;fill:#FFFFFF;stroke:none" width="340.0" height="200.0" x="0.0" y="0.0"> </rect>
<path class="bond-0 atom-0 atom-1" d="M 291.4,57.6 L 290.9,76.4" style="fill:none;fill-rule:evenodd;stroke:#000000;stroke-width:2.0px;stroke-linecap:butt;stroke-linejoin:miter;stroke-opacity:1"/>
<path class="bond-0 atom-0 atom-1" d="M 288.7,57.6 L 288.2,76.3" style="fill:none;fill-rule:evenodd;stroke:#000000;stroke-width:2.0px;stroke-linecap:butt;stroke-linejoin:miter;stroke-opacity:1"/>
<path class="bond-1 atom-1 atom-2" d="M 289.6,75.5 L 273.8,84.1" style="fill:none;fill-rule:evenodd;stroke:#000000;stroke-width:2.0px;stroke-linecap:butt;stroke-linejoin:miter;stroke-opacity:1"/>
<path class="bond-2 atom-2 atom-3" d="M 273.8,84.1 L 273.3,102.0" style="fill:none;fill-rule:evenodd;stroke:#000000;stroke-width:2.0px;stroke-linecap:butt;stroke-linejoin:miter;stroke-opacity:1"/>
<path class="bond-3 atom-3 atom-4" d="M 273.3,102.0 L 257.6,110.6" style="fill:none;fill-rule:evenodd;stroke:#000000;stroke-width:2.0px;stroke-linecap:butt;stroke-linejoin:miter;stroke-opacity:1"/>
<path class="bond-4 atom-4 atom-5" d="M 257.6,110.6 L 261.0,116.9" style="fill:none;fill-rule:evenodd;stroke:#000000;stroke-width:2.0px;stroke-linecap:butt;stroke-linejoin:miter;stroke-opacity:1"/>
<path class="bond-4 atom-4 atom-5" d="M 261.0,116.9 L 264.4,123.2" style="fill:none;fill-rule:evenodd;stroke:#FF0000;stroke-width:2.0px;stroke-linecap:butt;stroke-linejoin:miter;stroke-opacity:1"/>
<path class="bond-5 atom-4 atom-6" d="M 257.6,110.6 L 254.2,104.3" style="fill:none;fill-rule:evenodd;stroke:#000000;stroke-width:2.0px;stroke-linecap:butt;stroke-linejoin:miter;stroke-opacity:1"/>
<path class="bond-5 atom-4 atom-6" d="M 254.2,104.3 L 250.8,98.0" style="fill:none;fill-rule:evenodd;stroke:#FF0000;stroke-width:2.0px;stroke-linecap:butt;stroke-linejoin:miter;stroke-opacity:1"/>
<path class="bond-6 atom-4 atom-7" d="M 257.6,110.6 L 241.8,119.1" style="fill:none;fill-rule:evenodd;stroke:#000000;stroke-width:2.0px;stroke-linecap:butt;stroke-linejoin:miter;stroke-opacity:1"/>
<path class="bond-7 atom-7 atom-8" d="M 240.5,118.3 L 240.0,137.0" style="fill:none;fill-rule:evenodd;stroke:#000000;stroke-width:2.0px;stroke-linecap:butt;stroke-linejoin:miter;stroke-opacity:1"/>
<path class="bond-7 atom-7 atom-8" d="M 243.2,118.4 L 242.7,137.1" style="fill:none;fill-rule:evenodd;stroke:#000000;stroke-width:2.0px;stroke-linecap:butt;stroke-linejoin:miter;stroke-opacity:1"/>
<path class="bond-8 atom-7 atom-9" d="M 241.8,119.1 L 226.5,109.7" style="fill:none;fill-rule:evenodd;stroke:#000000;stroke-width:2.0px;stroke-linecap:butt;stroke-linejoin:miter;stroke-opacity:1"/>
<path class="bond-9 atom-9 atom-10" d="M 226.5,109.7 L 210.7,118.3" style="fill:none;fill-rule:evenodd;stroke:#000000;stroke-width:2.0px;stroke-linecap:butt;stroke-linejoin:miter;stroke-opacity:1"/>
<path class="bond-10 atom-10 atom-11" d="M 210.7,118.3 L 195.4,108.9" style="fill:none;fill-rule:evenodd;stroke:#000000;stroke-width:2.0px;stroke-linecap:butt;stroke-linejoin:miter;stroke-opacity:1"/>
<path class="bond-11 atom-11 atom-12" d="M 195.4,108.9 L 179.7,117.5" style="fill:none;fill-rule:evenodd;stroke:#000000;stroke-width:2.0px;stroke-linecap:butt;stroke-linejoin:miter;stroke-opacity:1"/>
<path class="bond-11 atom-11 atom-12" d="M 195.4,112.0 L 182.3,119.1" style="fill:none;fill-rule:evenodd;stroke:#000000;stroke-width:2.0px;stroke-linecap:butt;stroke-linejoin:miter;stroke-opacity:1"/>
<path class="bond-12 atom-12 atom-13" d="M 179.7,117.5 L 164.4,108.1" style="fill:none;fill-rule:evenodd;stroke:#000000;stroke-width:2.0px;stroke-linecap:butt;stroke-linejoin:miter;stroke-opacity:1"/>
<path class="bond-13 atom-13 atom-14" d="M 164.4,108.1 L 148.6,116.6" style="fill:none;fill-rule:evenodd;stroke:#000000;stroke-width:2.0px;stroke-linecap:butt;stroke-linejoin:miter;stroke-opacity:1"/>
<path class="bond-14 atom-14 atom-15" d="M 148.6,116.6 L 133.3,107.2" style="fill:none;fill-rule:evenodd;stroke:#000000;stroke-width:2.0px;stroke-linecap:butt;stroke-linejoin:miter;stroke-opacity:1"/>
<path class="bond-15 atom-15 atom-16" d="M 133.3,107.2 L 137.0,101.2" style="fill:none;fill-rule:evenodd;stroke:#000000;stroke-width:2.0px;stroke-linecap:butt;stroke-linejoin:miter;stroke-opacity:1"/>
<path class="bond-15 atom-15 atom-16" d="M 137.0,101.2 L 140.7,95.2" style="fill:none;fill-rule:evenodd;stroke:#FF0000;stroke-width:2.0px;stroke-linecap:butt;stroke-linejoin:miter;stroke-opacity:1"/>
<path class="bond-16 atom-15 atom-17" d="M 133.3,107.2 L 129.6,113.3" style="fill:none;fill-rule:evenodd;stroke:#000000;stroke-width:2.0px;stroke-linecap:butt;stroke-linejoin:miter;stroke-opacity:1"/>
<path class="bond-16 atom-15 atom-17" d="M 129.6,113.3 L 125.9,119.4" style="fill:none;fill-rule:evenodd;stroke:#FF0000;stroke-width:2.0px;stroke-linecap:butt;stroke-linejoin:miter;stroke-opacity:1"/>
<path class="bond-17 atom-15 atom-18" d="M 133.3,107.2 L 118.0,97.9" style="fill:none;fill-rule:evenodd;stroke:#000000;stroke-width:2.0px;stroke-linecap:butt;stroke-linejoin:miter;stroke-opacity:1"/>
<path class="bond-18 atom-18 atom-19" d="M 118.0,97.9 L 118.5,79.9" style="fill:none;fill-rule:evenodd;stroke:#000000;stroke-width:2.0px;stroke-linecap:butt;stroke-linejoin:miter;stroke-opacity:1"/>
<path class="bond-19 atom-19 atom-20" d="M 118.5,79.9 L 103.2,70.5" style="fill:none;fill-rule:evenodd;stroke:#000000;stroke-width:2.0px;stroke-linecap:butt;stroke-linejoin:miter;stroke-opacity:1"/>
<path class="bond-20 atom-20 atom-21" d="M 104.5,71.4 L 105.0,52.6" style="fill:none;fill-rule:evenodd;stroke:#000000;stroke-width:2.0px;stroke-linecap:butt;stroke-linejoin:miter;stroke-opacity:1"/>
<path class="bond-20 atom-20 atom-21" d="M 101.8,71.3 L 102.4,52.6" style="fill:none;fill-rule:evenodd;stroke:#000000;stroke-width:2.0px;stroke-linecap:butt;stroke-linejoin:miter;stroke-opacity:1"/>
<path class="bond-21 atom-20 atom-22" d="M 103.2,70.5 L 87.4,79.1" style="fill:none;fill-rule:evenodd;stroke:#000000;stroke-width:2.0px;stroke-linecap:butt;stroke-linejoin:miter;stroke-opacity:1"/>
<path class="bond-22 atom-22 atom-23" d="M 87.4,79.1 L 90.9,85.4" style="fill:none;fill-rule:evenodd;stroke:#000000;stroke-width:2.0px;stroke-linecap:butt;stroke-linejoin:miter;stroke-opacity:1"/>
<path class="bond-22 atom-22 atom-23" d="M 90.9,85.4 L 94.3,91.7" style="fill:none;fill-rule:evenodd;stroke:#FF0000;stroke-width:2.0px;stroke-linecap:butt;stroke-linejoin:miter;stroke-opacity:1"/>
<path class="bond-23 atom-22 atom-24" d="M 87.4,79.1 L 84.0,72.8" style="fill:none;fill-rule:evenodd;stroke:#000000;stroke-width:2.0px;stroke-linecap:butt;stroke-linejoin:miter;stroke-opacity:1"/>
<path class="bond-23 atom-22 atom-24" d="M 84.0,72.8 L 80.6,66.6" style="fill:none;fill-rule:evenodd;stroke:#FF0000;stroke-width:2.0px;stroke-linecap:butt;stroke-linejoin:miter;stroke-opacity:1"/>
<path class="bond-24 atom-22 atom-25" d="M 87.4,79.1 L 71.7,87.6" style="fill:none;fill-rule:evenodd;stroke:#000000;stroke-width:2.0px;stroke-linecap:butt;stroke-linejoin:miter;stroke-opacity:1"/>
<path class="bond-25 atom-25 atom-26" d="M 71.7,87.6 L 71.2,105.6" style="fill:none;fill-rule:evenodd;stroke:#000000;stroke-width:2.0px;stroke-linecap:butt;stroke-linejoin:miter;stroke-opacity:1"/>
<path class="bond-26 atom-26 atom-27" d="M 71.2,105.6 L 55.4,114.1" style="fill:none;fill-rule:evenodd;stroke:#000000;stroke-width:2.0px;stroke-linecap:butt;stroke-linejoin:miter;stroke-opacity:1"/>
<path class="bond-27 atom-27 atom-28" d="M 54.1,113.3 L 53.6,132.0" style="fill:none;fill-rule:evenodd;stroke:#000000;stroke-width:2.0px;stroke-linecap:butt;stroke-linejoin:miter;stroke-opacity:1"/>
<path class="bond-27 atom-27 atom-28" d="M 56.8,113.4 L 56.3,132.1" style="fill:none;fill-rule:evenodd;stroke:#000000;stroke-width:2.0px;stroke-linecap:butt;stroke-linejoin:miter;stroke-opacity:1"/>
<path class="bond-28 atom-27 atom-29" d="M 55.4,114.1 L 40.1,104.7" style="fill:none;fill-rule:evenodd;stroke:#000000;stroke-width:2.0px;stroke-linecap:butt;stroke-linejoin:miter;stroke-opacity:1"/>
<path class="bond-29 atom-29 atom-30" d="M 41.4,105.6 L 41.7,97.8" style="fill:none;fill-rule:evenodd;stroke:#000000;stroke-width:2.0px;stroke-linecap:butt;stroke-linejoin:miter;stroke-opacity:1"/>
<path class="bond-29 atom-29 atom-30" d="M 41.7,97.8 L 41.9,90.1" style="fill:none;fill-rule:evenodd;stroke:#FF0000;stroke-width:2.0px;stroke-linecap:butt;stroke-linejoin:miter;stroke-opacity:1"/>
<path class="bond-29 atom-29 atom-30" d="M 38.8,105.5 L 39.0,97.7" style="fill:none;fill-rule:evenodd;stroke:#000000;stroke-width:2.0px;stroke-linecap:butt;stroke-linejoin:miter;stroke-opacity:1"/>
<path class="bond-29 atom-29 atom-30" d="M 39.0,97.7 L 39.2,90.0" style="fill:none;fill-rule:evenodd;stroke:#FF0000;stroke-width:2.0px;stroke-linecap:butt;stroke-linejoin:miter;stroke-opacity:1"/>
<path class="bond-30 atom-29 atom-31" d="M 40.1,104.7 L 33.7,108.2" style="fill:none;fill-rule:evenodd;stroke:#000000;stroke-width:2.0px;stroke-linecap:butt;stroke-linejoin:miter;stroke-opacity:1"/>
<path class="bond-30 atom-29 atom-31" d="M 33.7,108.2 L 27.3,111.7" style="fill:none;fill-rule:evenodd;stroke:#FF0000;stroke-width:2.0px;stroke-linecap:butt;stroke-linejoin:miter;stroke-opacity:1"/>
<path class="bond-31 atom-12 atom-32" d="M 179.7,117.5 L 179.2,135.4" style="fill:none;fill-rule:evenodd;stroke:#000000;stroke-width:2.0px;stroke-linecap:butt;stroke-linejoin:miter;stroke-opacity:1"/>
<path class="bond-32 atom-32 atom-33" d="M 177.8,136.1 L 184.3,140.1" style="fill:none;fill-rule:evenodd;stroke:#000000;stroke-width:2.0px;stroke-linecap:butt;stroke-linejoin:miter;stroke-opacity:1"/>
<path class="bond-32 atom-32 atom-33" d="M 184.3,140.1 L 190.9,144.1" style="fill:none;fill-rule:evenodd;stroke:#FF0000;stroke-width:2.0px;stroke-linecap:butt;stroke-linejoin:miter;stroke-opacity:1"/>
<path class="bond-32 atom-32 atom-33" d="M 179.2,133.8 L 185.7,137.8" style="fill:none;fill-rule:evenodd;stroke:#000000;stroke-width:2.0px;stroke-linecap:butt;stroke-linejoin:miter;stroke-opacity:1"/>
<path class="bond-32 atom-32 atom-33" d="M 185.7,137.8 L 192.3,141.8" style="fill:none;fill-rule:evenodd;stroke:#FF0000;stroke-width:2.0px;stroke-linecap:butt;stroke-linejoin:miter;stroke-opacity:1"/>
<path class="bond-33 atom-32 atom-34" d="M 179.2,135.4 L 172.8,138.9" style="fill:none;fill-rule:evenodd;stroke:#000000;stroke-width:2.0px;stroke-linecap:butt;stroke-linejoin:miter;stroke-opacity:1"/>
<path class="bond-33 atom-32 atom-34" d="M 172.8,138.9 L 166.3,142.4" style="fill:none;fill-rule:evenodd;stroke:#FF0000;stroke-width:2.0px;stroke-linecap:butt;stroke-linejoin:miter;stroke-opacity:1"/>
<path class="bond-34 atom-1 atom-35" d="M 289.6,75.5 L 304.9,84.9" style="fill:none;fill-rule:evenodd;stroke:#000000;stroke-width:2.0px;stroke-linecap:butt;stroke-linejoin:miter;stroke-opacity:1"/>
<path class="bond-35 atom-35 atom-36" d="M 304.9,86.5 L 311.6,82.8" style="fill:none;fill-rule:evenodd;stroke:#000000;stroke-width:2.0px;stroke-linecap:butt;stroke-linejoin:miter;stroke-opacity:1"/>
<path class="bond-35 atom-35 atom-36" d="M 311.6,82.8 L 318.4,79.1" style="fill:none;fill-rule:evenodd;stroke:#FF0000;stroke-width:2.0px;stroke-linecap:butt;stroke-linejoin:miter;stroke-opacity:1"/>
<path class="bond-35 atom-35 atom-36" d="M 303.6,84.1 L 310.3,80.4" style="fill:none;fill-rule:evenodd;stroke:#000000;stroke-width:2.0px;stroke-linecap:butt;stroke-linejoin:miter;stroke-opacity:1"/>
<path class="bond-35 atom-35 atom-36" d="M 310.3,80.4 L 317.1,76.8" style="fill:none;fill-rule:evenodd;stroke:#FF0000;stroke-width:2.0px;stroke-linecap:butt;stroke-linejoin:miter;stroke-opacity:1"/>
<path class="bond-36 atom-35 atom-37" d="M 304.9,84.9 L 304.7,92.3" style="fill:none;fill-rule:evenodd;stroke:#000000;stroke-width:2.0px;stroke-linecap:butt;stroke-linejoin:miter;stroke-opacity:1"/>
<path class="bond-36 atom-35 atom-37" d="M 304.7,92.3 L 304.5,99.7" style="fill:none;fill-rule:evenodd;stroke:#FF0000;stroke-width:2.0px;stroke-linecap:butt;stroke-linejoin:miter;stroke-opacity:1"/>
<path d="M 288.8,76.0 L 289.6,75.5 L 290.4,76.0" style="fill:none;stroke:#000000;stroke-width:2.0px;stroke-linecap:butt;stroke-linejoin:miter;stroke-opacity:1;"/>
<path d="M 274.6,83.7 L 273.8,84.1 L 273.8,85.0" style="fill:none;stroke:#000000;stroke-width:2.0px;stroke-linecap:butt;stroke-linejoin:miter;stroke-opacity:1;"/>
<path d="M 273.4,101.1 L 273.3,102.0 L 272.6,102.5" style="fill:none;stroke:#000000;stroke-width:2.0px;stroke-linecap:butt;stroke-linejoin:miter;stroke-opacity:1;"/>
<path d="M 242.6,118.7 L 241.8,119.1 L 241.0,118.7" style="fill:none;stroke:#000000;stroke-width:2.0px;stroke-linecap:butt;stroke-linejoin:miter;stroke-opacity:1;"/>
<path d="M 227.3,110.2 L 226.5,109.7 L 225.7,110.2" style="fill:none;stroke:#000000;stroke-width:2.0px;stroke-linecap:butt;stroke-linejoin:miter;stroke-opacity:1;"/>
<path d="M 211.5,117.9 L 210.7,118.3 L 210.0,117.8" style="fill:none;stroke:#000000;stroke-width:2.0px;stroke-linecap:butt;stroke-linejoin:miter;stroke-opacity:1;"/>
<path d="M 196.2,109.4 L 195.4,108.9 L 194.7,109.3" style="fill:none;stroke:#000000;stroke-width:2.0px;stroke-linecap:butt;stroke-linejoin:miter;stroke-opacity:1;"/>
<path d="M 165.1,108.5 L 164.4,108.1 L 163.6,108.5" style="fill:none;stroke:#000000;stroke-width:2.0px;stroke-linecap:butt;stroke-linejoin:miter;stroke-opacity:1;"/>
<path d="M 149.4,116.2 L 148.6,116.6 L 147.8,116.2" style="fill:none;stroke:#000000;stroke-width:2.0px;stroke-linecap:butt;stroke-linejoin:miter;stroke-opacity:1;"/>
<path d="M 118.8,98.3 L 118.0,97.9 L 118.0,97.0" style="fill:none;stroke:#000000;stroke-width:2.0px;stroke-linecap:butt;stroke-linejoin:miter;stroke-opacity:1;"/>
<path d="M 118.5,80.8 L 118.5,79.9 L 117.7,79.5" style="fill:none;stroke:#000000;stroke-width:2.0px;stroke-linecap:butt;stroke-linejoin:miter;stroke-opacity:1;"/>
<path d="M 104.0,71.0 L 103.2,70.5 L 102.4,71.0" style="fill:none;stroke:#000000;stroke-width:2.0px;stroke-linecap:butt;stroke-linejoin:miter;stroke-opacity:1;"/>
<path d="M 72.5,87.2 L 71.7,87.6 L 71.6,88.5" style="fill:none;stroke:#000000;stroke-width:2.0px;stroke-linecap:butt;stroke-linejoin:miter;stroke-opacity:1;"/>
<path d="M 71.2,104.7 L 71.2,105.6 L 70.4,106.0" style="fill:none;stroke:#000000;stroke-width:2.0px;stroke-linecap:butt;stroke-linejoin:miter;stroke-opacity:1;"/>
<path d="M 56.2,113.7 L 55.4,114.1 L 54.7,113.7" style="fill:none;stroke:#000000;stroke-width:2.0px;stroke-linecap:butt;stroke-linejoin:miter;stroke-opacity:1;"/>
<path d="M 40.9,105.2 L 40.1,104.7 L 39.8,104.9" style="fill:none;stroke:#000000;stroke-width:2.0px;stroke-linecap:butt;stroke-linejoin:miter;stroke-opacity:1;"/>
<path d="M 179.2,134.5 L 179.2,135.4 L 178.9,135.6" style="fill:none;stroke:#000000;stroke-width:2.0px;stroke-linecap:butt;stroke-linejoin:miter;stroke-opacity:1;"/>
<path d="M 304.1,84.5 L 304.9,84.9 L 304.9,85.3" style="fill:none;stroke:#000000;stroke-width:2.0px;stroke-linecap:butt;stroke-linejoin:miter;stroke-opacity:1;"/>
<path class="atom-5" d="M 263.8 126.4 Q 263.8 125.1, 264.4 124.5 Q 265.0 123.8, 266.1 123.8 Q 267.3 123.8, 267.9 124.5 Q 268.5 125.1, 268.5 126.4 Q 268.5 127.6, 267.8 128.3 Q 267.2 129.0, 266.1 129.0 Q 265.0 129.0, 264.4 128.3 Q 263.8 127.6, 263.8 126.4 M 266.1 128.4 Q 266.9 128.4, 267.3 127.9 Q 267.7 127.4, 267.7 126.4 Q 267.7 125.4, 267.3 124.9 Q 266.9 124.4, 266.1 124.4 Q 265.4 124.4, 264.9 124.9 Q 264.5 125.4, 264.5 126.4 Q 264.5 127.4, 264.9 127.9 Q 265.4 128.4, 266.1 128.4 " fill="#FF0000"/>
<path class="atom-5" d="M 269.2 123.8 L 269.9 123.8 L 269.9 126.0 L 272.5 126.0 L 272.5 123.8 L 273.2 123.8 L 273.2 128.9 L 272.5 128.9 L 272.5 126.6 L 269.9 126.6 L 269.9 128.9 L 269.2 128.9 L 269.2 123.8 " fill="#FF0000"/>
<path class="atom-6" d="M 241.7 92.3 L 242.4 92.3 L 242.4 94.5 L 245.0 94.5 L 245.0 92.3 L 245.7 92.3 L 245.7 97.4 L 245.0 97.4 L 245.0 95.0 L 242.4 95.0 L 242.4 97.4 L 241.7 97.4 L 241.7 92.3 " fill="#FF0000"/>
<path class="atom-6" d="M 246.7 94.8 Q 246.7 93.6, 247.3 92.9 Q 247.9 92.2, 249.0 92.2 Q 250.2 92.2, 250.8 92.9 Q 251.4 93.6, 251.4 94.8 Q 251.4 96.1, 250.7 96.8 Q 250.1 97.5, 249.0 97.5 Q 247.9 97.5, 247.3 96.8 Q 246.7 96.1, 246.7 94.8 M 249.0 96.9 Q 249.8 96.9, 250.2 96.4 Q 250.6 95.8, 250.6 94.8 Q 250.6 93.8, 250.2 93.3 Q 249.8 92.8, 249.0 92.8 Q 248.2 92.8, 247.8 93.3 Q 247.4 93.8, 247.4 94.8 Q 247.4 95.8, 247.8 96.4 Q 248.2 96.9, 249.0 96.9 " fill="#FF0000"/>
<path class="atom-16" d="M 140.4 92.0 Q 140.4 90.7, 141.0 90.1 Q 141.6 89.4, 142.7 89.4 Q 143.8 89.4, 144.4 90.1 Q 145.0 90.7, 145.0 92.0 Q 145.0 93.2, 144.4 93.9 Q 143.8 94.6, 142.7 94.6 Q 141.6 94.6, 141.0 93.9 Q 140.4 93.2, 140.4 92.0 M 142.7 94.0 Q 143.5 94.0, 143.9 93.5 Q 144.3 93.0, 144.3 92.0 Q 144.3 91.0, 143.9 90.5 Q 143.5 90.0, 142.7 90.0 Q 141.9 90.0, 141.5 90.5 Q 141.1 91.0, 141.1 92.0 Q 141.1 93.0, 141.5 93.5 Q 141.9 94.0, 142.7 94.0 " fill="#FF0000"/>
<path class="atom-16" d="M 145.8 89.4 L 146.5 89.4 L 146.5 91.6 L 149.1 91.6 L 149.1 89.4 L 149.8 89.4 L 149.8 94.5 L 149.1 94.5 L 149.1 92.2 L 146.5 92.2 L 146.5 94.5 L 145.8 94.5 L 145.8 89.4 " fill="#FF0000"/>
<path class="atom-17" d="M 116.6 120.0 L 117.3 120.0 L 117.3 122.2 L 119.9 122.2 L 119.9 120.0 L 120.6 120.0 L 120.6 125.1 L 119.9 125.1 L 119.9 122.8 L 117.3 122.8 L 117.3 125.1 L 116.6 125.1 L 116.6 120.0 " fill="#FF0000"/>
<path class="atom-17" d="M 121.6 122.6 Q 121.6 121.3, 122.2 120.6 Q 122.8 120.0, 123.9 120.0 Q 125.1 120.0, 125.7 120.6 Q 126.3 121.3, 126.3 122.6 Q 126.3 123.8, 125.7 124.5 Q 125.0 125.2, 123.9 125.2 Q 122.8 125.2, 122.2 124.5 Q 121.6 123.8, 121.6 122.6 M 123.9 124.6 Q 124.7 124.6, 125.1 124.1 Q 125.5 123.6, 125.5 122.6 Q 125.5 121.6, 125.1 121.1 Q 124.7 120.5, 123.9 120.5 Q 123.2 120.5, 122.7 121.0 Q 122.3 121.5, 122.3 122.6 Q 122.3 123.6, 122.7 124.1 Q 123.2 124.6, 123.9 124.6 " fill="#FF0000"/>
<path class="atom-23" d="M 93.7 94.9 Q 93.7 93.7, 94.3 93.0 Q 94.9 92.3, 96.0 92.3 Q 97.1 92.3, 97.7 93.0 Q 98.3 93.7, 98.3 94.9 Q 98.3 96.1, 97.7 96.8 Q 97.1 97.5, 96.0 97.5 Q 94.9 97.5, 94.3 96.8 Q 93.7 96.1, 93.7 94.9 M 96.0 96.9 Q 96.8 96.9, 97.2 96.4 Q 97.6 95.9, 97.6 94.9 Q 97.6 93.9, 97.2 93.4 Q 96.8 92.9, 96.0 92.9 Q 95.2 92.9, 94.8 93.4 Q 94.4 93.9, 94.4 94.9 Q 94.4 95.9, 94.8 96.4 Q 95.2 96.9, 96.0 96.9 " fill="#FF0000"/>
<path class="atom-23" d="M 99.1 92.4 L 99.8 92.4 L 99.8 94.5 L 102.4 94.5 L 102.4 92.4 L 103.1 92.4 L 103.1 97.4 L 102.4 97.4 L 102.4 95.1 L 99.8 95.1 L 99.8 97.4 L 99.1 97.4 L 99.1 92.4 " fill="#FF0000"/>
<path class="atom-24" d="M 71.5 60.8 L 72.2 60.8 L 72.2 63.0 L 74.8 63.0 L 74.8 60.8 L 75.5 60.8 L 75.5 65.9 L 74.8 65.9 L 74.8 63.5 L 72.2 63.5 L 72.2 65.9 L 71.5 65.9 L 71.5 60.8 " fill="#FF0000"/>
<path class="atom-24" d="M 76.6 63.3 Q 76.6 62.1, 77.2 61.4 Q 77.8 60.7, 78.9 60.7 Q 80.0 60.7, 80.6 61.4 Q 81.2 62.1, 81.2 63.3 Q 81.2 64.6, 80.6 65.3 Q 80.0 66.0, 78.9 66.0 Q 77.8 66.0, 77.2 65.3 Q 76.6 64.6, 76.6 63.3 M 78.9 65.4 Q 79.7 65.4, 80.1 64.9 Q 80.5 64.4, 80.5 63.3 Q 80.5 62.3, 80.1 61.8 Q 79.7 61.3, 78.9 61.3 Q 78.1 61.3, 77.7 61.8 Q 77.3 62.3, 77.3 63.3 Q 77.3 64.4, 77.7 64.9 Q 78.1 65.4, 78.9 65.4 " fill="#FF0000"/>
<path class="atom-30" d="M 38.3 86.8 Q 38.3 85.6, 38.9 84.9 Q 39.5 84.2, 40.6 84.2 Q 41.7 84.2, 42.3 84.9 Q 42.9 85.6, 42.9 86.8 Q 42.9 88.1, 42.3 88.8 Q 41.7 89.5, 40.6 89.5 Q 39.5 89.5, 38.9 88.8 Q 38.3 88.1, 38.3 86.8 M 40.6 88.9 Q 41.4 88.9, 41.8 88.4 Q 42.2 87.8, 42.2 86.8 Q 42.2 85.8, 41.8 85.3 Q 41.4 84.8, 40.6 84.8 Q 39.8 84.8, 39.4 85.3 Q 39.0 85.8, 39.0 86.8 Q 39.0 87.8, 39.4 88.4 Q 39.8 88.9, 40.6 88.9 " fill="#FF0000"/>
<path class="atom-31" d="M 17.0 110.8 L 17.7 110.8 L 17.7 112.9 L 20.3 112.9 L 20.3 110.8 L 21.0 110.8 L 21.0 115.9 L 20.3 115.9 L 20.3 113.5 L 17.7 113.5 L 17.7 115.9 L 17.0 115.9 L 17.0 110.8 " fill="#FF0000"/>
<path class="atom-31" d="M 22.0 113.3 Q 22.0 112.1, 22.6 111.4 Q 23.2 110.7, 24.4 110.7 Q 25.5 110.7, 26.1 111.4 Q 26.7 112.1, 26.7 113.3 Q 26.7 114.5, 26.1 115.2 Q 25.5 115.9, 24.4 115.9 Q 23.2 115.9, 22.6 115.2 Q 22.0 114.5, 22.0 113.3 M 24.4 115.4 Q 25.1 115.4, 25.5 114.9 Q 26.0 114.3, 26.0 113.3 Q 26.0 112.3, 25.5 111.8 Q 25.1 111.3, 24.4 111.3 Q 23.6 111.3, 23.2 111.8 Q 22.7 112.3, 22.7 113.3 Q 22.7 114.3, 23.2 114.9 Q 23.6 115.4, 24.4 115.4 " fill="#FF0000"/>
<path class="atom-33" d="M 192.2 144.8 Q 192.2 143.6, 192.8 142.9 Q 193.4 142.2, 194.5 142.2 Q 195.6 142.2, 196.2 142.9 Q 196.8 143.6, 196.8 144.8 Q 196.8 146.0, 196.2 146.7 Q 195.6 147.4, 194.5 147.4 Q 193.4 147.4, 192.8 146.7 Q 192.2 146.0, 192.2 144.8 M 194.5 146.9 Q 195.3 146.9, 195.7 146.3 Q 196.1 145.8, 196.1 144.8 Q 196.1 143.8, 195.7 143.3 Q 195.3 142.8, 194.5 142.8 Q 193.7 142.8, 193.3 143.3 Q 192.9 143.8, 192.9 144.8 Q 192.9 145.8, 193.3 146.3 Q 193.7 146.9, 194.5 146.9 " fill="#FF0000"/>
<path class="atom-34" d="M 156.1 141.4 L 156.8 141.4 L 156.8 143.6 L 159.4 143.6 L 159.4 141.4 L 160.0 141.4 L 160.0 146.5 L 159.4 146.5 L 159.4 144.2 L 156.8 144.2 L 156.8 146.5 L 156.1 146.5 L 156.1 141.4 " fill="#FF0000"/>
<path class="atom-34" d="M 161.1 144.0 Q 161.1 142.7, 161.7 142.1 Q 162.3 141.4, 163.4 141.4 Q 164.5 141.4, 165.1 142.1 Q 165.8 142.7, 165.8 144.0 Q 165.8 145.2, 165.1 145.9 Q 164.5 146.6, 163.4 146.6 Q 162.3 146.6, 161.7 145.9 Q 161.1 145.2, 161.1 144.0 M 163.4 146.0 Q 164.2 146.0, 164.6 145.5 Q 165.0 145.0, 165.0 144.0 Q 165.0 143.0, 164.6 142.5 Q 164.2 142.0, 163.4 142.0 Q 162.6 142.0, 162.2 142.5 Q 161.8 143.0, 161.8 144.0 Q 161.8 145.0, 162.2 145.5 Q 162.6 146.0, 163.4 146.0 " fill="#FF0000"/>
<path class="atom-36" d="M 318.3 76.4 Q 318.3 75.2, 318.9 74.5 Q 319.5 73.8, 320.7 73.8 Q 321.8 73.8, 322.4 74.5 Q 323.0 75.2, 323.0 76.4 Q 323.0 77.6, 322.4 78.3 Q 321.8 79.0, 320.7 79.0 Q 319.5 79.0, 318.9 78.3 Q 318.3 77.6, 318.3 76.4 M 320.7 78.5 Q 321.4 78.5, 321.9 77.9 Q 322.3 77.4, 322.3 76.4 Q 322.3 75.4, 321.9 74.9 Q 321.4 74.4, 320.7 74.4 Q 319.9 74.4, 319.5 74.9 Q 319.1 75.4, 319.1 76.4 Q 319.1 77.4, 319.5 77.9 Q 319.9 78.5, 320.7 78.5 " fill="#FF0000"/>
<path class="atom-37" d="M 302.1 102.9 Q 302.1 101.7, 302.7 101.0 Q 303.3 100.3, 304.4 100.3 Q 305.5 100.3, 306.1 101.0 Q 306.7 101.7, 306.7 102.9 Q 306.7 104.1, 306.1 104.8 Q 305.5 105.5, 304.4 105.5 Q 303.3 105.5, 302.7 104.8 Q 302.1 104.1, 302.1 102.9 M 304.4 104.9 Q 305.2 104.9, 305.6 104.4 Q 306.0 103.9, 306.0 102.9 Q 306.0 101.9, 305.6 101.4 Q 305.2 100.9, 304.4 100.9 Q 303.6 100.9, 303.2 101.4 Q 302.8 101.9, 302.8 102.9 Q 302.8 103.9, 303.2 104.4 Q 303.6 104.9, 304.4 104.9 " fill="#FF0000"/>
<path class="atom-37" d="M 307.5 100.4 L 308.2 100.4 L 308.2 102.5 L 310.8 102.5 L 310.8 100.4 L 311.5 100.4 L 311.5 105.4 L 310.8 105.4 L 310.8 103.1 L 308.2 103.1 L 308.2 105.4 L 307.5 105.4 L 307.5 100.4 " fill="#FF0000"/>
</g>
  </g>
</svg>
