<?xml version='1.0' encoding='ASCII' standalone='yes'?>
<svg xmlns="http://www.w3.org/2000/svg" xmlns:xlink="http://www.w3.org/1999/xlink" version="1.1" width="850.0px" viewBox="0 0 850.0 200.0" height="200.0px">
  <g>
    <g transform="translate(0, 0) scale(1 1) "><!-- END OF HEADER -->
<rect style="opacity:1.0;fill:#FFFFFF;stroke:none" width="260.0" height="200.0" x="0.0" y="0.0"> </rect>
<path class="bond-0 atom-0 atom-1" d="M 236.7,63.7 L 208.0,83.6" style="fill:none;fill-rule:evenodd;stroke:#000000;stroke-width:2.0px;stroke-linecap:butt;stroke-linejoin:miter;stroke-opacity:1"/>
<path class="bond-1 atom-1 atom-2" d="M 208.0,83.6 L 176.5,68.7" style="fill:none;fill-rule:evenodd;stroke:#000000;stroke-width:2.0px;stroke-linecap:butt;stroke-linejoin:miter;stroke-opacity:1"/>
<path class="bond-2 atom-2 atom-3" d="M 176.5,68.7 L 165.0,76.6" style="fill:none;fill-rule:evenodd;stroke:#000000;stroke-width:2.0px;stroke-linecap:butt;stroke-linejoin:miter;stroke-opacity:1"/>
<path class="bond-2 atom-2 atom-3" d="M 165.0,76.6 L 153.5,84.6" style="fill:none;fill-rule:evenodd;stroke:#FF0000;stroke-width:2.0px;stroke-linecap:butt;stroke-linejoin:miter;stroke-opacity:1"/>
<path class="bond-3 atom-3 atom-4" d="M 142.1,85.8 L 129.2,79.7" style="fill:none;fill-rule:evenodd;stroke:#FF0000;stroke-width:2.0px;stroke-linecap:butt;stroke-linejoin:miter;stroke-opacity:1"/>
<path class="bond-3 atom-3 atom-4" d="M 129.2,79.7 L 116.2,73.6" style="fill:none;fill-rule:evenodd;stroke:#000000;stroke-width:2.0px;stroke-linecap:butt;stroke-linejoin:miter;stroke-opacity:1"/>
<path class="bond-4 atom-4 atom-5" d="M 119.0,74.9 L 117.7,59.9" style="fill:none;fill-rule:evenodd;stroke:#000000;stroke-width:2.0px;stroke-linecap:butt;stroke-linejoin:miter;stroke-opacity:1"/>
<path class="bond-4 atom-4 atom-5" d="M 117.7,59.9 L 116.5,44.9" style="fill:none;fill-rule:evenodd;stroke:#FF0000;stroke-width:2.0px;stroke-linecap:butt;stroke-linejoin:miter;stroke-opacity:1"/>
<path class="bond-4 atom-4 atom-5" d="M 113.7,75.3 L 112.5,60.4" style="fill:none;fill-rule:evenodd;stroke:#000000;stroke-width:2.0px;stroke-linecap:butt;stroke-linejoin:miter;stroke-opacity:1"/>
<path class="bond-4 atom-4 atom-5" d="M 112.5,60.4 L 111.3,45.4" style="fill:none;fill-rule:evenodd;stroke:#FF0000;stroke-width:2.0px;stroke-linecap:butt;stroke-linejoin:miter;stroke-opacity:1"/>
<path class="bond-5 atom-4 atom-6" d="M 116.2,73.6 L 87.5,93.5" style="fill:none;fill-rule:evenodd;stroke:#000000;stroke-width:2.0px;stroke-linecap:butt;stroke-linejoin:miter;stroke-opacity:1"/>
<path class="bond-6 atom-6 atom-7" d="M 87.5,93.5 L 67.7,64.8" style="fill:none;fill-rule:evenodd;stroke:#000000;stroke-width:2.0px;stroke-linecap:butt;stroke-linejoin:miter;stroke-opacity:1"/>
<path class="bond-7 atom-6 atom-8" d="M 87.5,93.5 L 107.4,122.2" style="fill:none;fill-rule:evenodd;stroke:#000000;stroke-width:2.0px;stroke-linecap:butt;stroke-linejoin:miter;stroke-opacity:1"/>
<path class="bond-8 atom-6 atom-9" d="M 87.5,93.5 L 58.9,113.4" style="fill:none;fill-rule:evenodd;stroke:#000000;stroke-width:2.0px;stroke-linecap:butt;stroke-linejoin:miter;stroke-opacity:1"/>
<path class="bond-9 atom-9 atom-10" d="M 58.9,113.4 L 61.7,148.2" style="fill:none;fill-rule:evenodd;stroke:#000000;stroke-width:2.0px;stroke-linecap:butt;stroke-linejoin:miter;stroke-opacity:1"/>
<path class="bond-10 atom-9 atom-11" d="M 58.9,113.4 L 45.9,107.3" style="fill:none;fill-rule:evenodd;stroke:#000000;stroke-width:2.0px;stroke-linecap:butt;stroke-linejoin:miter;stroke-opacity:1"/>
<path class="bond-10 atom-9 atom-11" d="M 45.9,107.3 L 33.0,101.2" style="fill:none;fill-rule:evenodd;stroke:#FF0000;stroke-width:2.0px;stroke-linecap:butt;stroke-linejoin:miter;stroke-opacity:1"/>
<path class="bond-11 atom-1 atom-12" d="M 208.0,83.6 L 210.9,118.3" style="fill:none;fill-rule:evenodd;stroke:#000000;stroke-width:2.0px;stroke-linecap:butt;stroke-linejoin:miter;stroke-opacity:1"/>
<path class="bond-12 atom-12 atom-13" d="M 208.4,120.1 L 222.0,126.5" style="fill:none;fill-rule:evenodd;stroke:#000000;stroke-width:2.0px;stroke-linecap:butt;stroke-linejoin:miter;stroke-opacity:1"/>
<path class="bond-12 atom-12 atom-13" d="M 222.0,126.5 L 235.7,132.9" style="fill:none;fill-rule:evenodd;stroke:#FF0000;stroke-width:2.0px;stroke-linecap:butt;stroke-linejoin:miter;stroke-opacity:1"/>
<path class="bond-12 atom-12 atom-13" d="M 210.7,115.3 L 224.3,121.8" style="fill:none;fill-rule:evenodd;stroke:#000000;stroke-width:2.0px;stroke-linecap:butt;stroke-linejoin:miter;stroke-opacity:1"/>
<path class="bond-12 atom-12 atom-13" d="M 224.3,121.8 L 237.9,128.2" style="fill:none;fill-rule:evenodd;stroke:#FF0000;stroke-width:2.0px;stroke-linecap:butt;stroke-linejoin:miter;stroke-opacity:1"/>
<path class="bond-13 atom-12 atom-14" d="M 210.9,118.3 L 199.4,126.3" style="fill:none;fill-rule:evenodd;stroke:#000000;stroke-width:2.0px;stroke-linecap:butt;stroke-linejoin:miter;stroke-opacity:1"/>
<path class="bond-13 atom-12 atom-14" d="M 199.4,126.3 L 187.9,134.3" style="fill:none;fill-rule:evenodd;stroke:#FF0000;stroke-width:2.0px;stroke-linecap:butt;stroke-linejoin:miter;stroke-opacity:1"/>
<path d="M 178.1,69.4 L 176.5,68.7 L 175.9,69.1" style="fill:none;stroke:#000000;stroke-width:2.0px;stroke-linecap:butt;stroke-linejoin:miter;stroke-opacity:1;"/>
<path d="M 116.9,73.9 L 116.2,73.6 L 114.8,74.6" style="fill:none;stroke:#000000;stroke-width:2.0px;stroke-linecap:butt;stroke-linejoin:miter;stroke-opacity:1;"/>
<path d="M 210.8,116.6 L 210.9,118.3 L 210.3,118.7" style="fill:none;stroke:#000000;stroke-width:2.0px;stroke-linecap:butt;stroke-linejoin:miter;stroke-opacity:1;"/>
<path class="atom-3" d="M 143.3 88.6 Q 143.3 86.2, 144.4 84.9 Q 145.6 83.5, 147.8 83.5 Q 150.0 83.5, 151.2 84.9 Q 152.3 86.2, 152.3 88.6 Q 152.3 91.0, 151.1 92.3 Q 150.0 93.7, 147.8 93.7 Q 145.6 93.7, 144.4 92.3 Q 143.3 91.0, 143.3 88.6 M 147.8 92.6 Q 149.3 92.6, 150.1 91.6 Q 150.9 90.5, 150.9 88.6 Q 150.9 86.6, 150.1 85.6 Q 149.3 84.6, 147.8 84.6 Q 146.3 84.6, 145.5 85.6 Q 144.6 86.6, 144.6 88.6 Q 144.6 90.6, 145.5 91.6 Q 146.3 92.6, 147.8 92.6 " fill="#FF0000"/>
<path class="atom-5" d="M 108.8 38.9 Q 108.8 36.5, 110.0 35.2 Q 111.2 33.8, 113.4 33.8 Q 115.6 33.8, 116.7 35.2 Q 117.9 36.5, 117.9 38.9 Q 117.9 41.3, 116.7 42.6 Q 115.5 44.0, 113.4 44.0 Q 111.2 44.0, 110.0 42.6 Q 108.8 41.3, 108.8 38.9 M 113.4 42.9 Q 114.9 42.9, 115.7 41.9 Q 116.5 40.9, 116.5 38.9 Q 116.5 36.9, 115.7 35.9 Q 114.9 35.0, 113.4 35.0 Q 111.9 35.0, 111.0 35.9 Q 110.2 36.9, 110.2 38.9 Q 110.2 40.9, 111.0 41.9 Q 111.9 42.9, 113.4 42.9 " fill="#FF0000"/>
<path class="atom-11" d="M 13.0 93.6 L 14.3 93.6 L 14.3 97.8 L 19.4 97.8 L 19.4 93.6 L 20.7 93.6 L 20.7 103.5 L 19.4 103.5 L 19.4 98.9 L 14.3 98.9 L 14.3 103.5 L 13.0 103.5 L 13.0 93.6 " fill="#FF0000"/>
<path class="atom-11" d="M 22.8 98.5 Q 22.8 96.1, 23.9 94.8 Q 25.1 93.5, 27.3 93.5 Q 29.5 93.5, 30.7 94.8 Q 31.8 96.1, 31.8 98.5 Q 31.8 100.9, 30.6 102.3 Q 29.5 103.6, 27.3 103.6 Q 25.1 103.6, 23.9 102.3 Q 22.8 100.9, 22.8 98.5 M 27.3 102.5 Q 28.8 102.5, 29.6 101.5 Q 30.4 100.5, 30.4 98.5 Q 30.4 96.6, 29.6 95.6 Q 28.8 94.6, 27.3 94.6 Q 25.8 94.6, 25.0 95.6 Q 24.2 96.5, 24.2 98.5 Q 24.2 100.5, 25.0 101.5 Q 25.8 102.5, 27.3 102.5 " fill="#FF0000"/>
<path class="atom-13" d="M 237.9 133.3 Q 237.9 130.9, 239.1 129.6 Q 240.3 128.3, 242.5 128.3 Q 244.7 128.3, 245.8 129.6 Q 247.0 130.9, 247.0 133.3 Q 247.0 135.7, 245.8 137.0 Q 244.6 138.4, 242.5 138.4 Q 240.3 138.4, 239.1 137.0 Q 237.9 135.7, 237.9 133.3 M 242.5 137.3 Q 244.0 137.3, 244.8 136.3 Q 245.6 135.3, 245.6 133.3 Q 245.6 131.3, 244.8 130.4 Q 244.0 129.4, 242.5 129.4 Q 241.0 129.4, 240.1 130.3 Q 239.3 131.3, 239.3 133.3 Q 239.3 135.3, 240.1 136.3 Q 241.0 137.3, 242.5 137.3 " fill="#FF0000"/>
<path class="atom-14" d="M 167.9 133.3 L 169.3 133.3 L 169.3 137.5 L 174.3 137.5 L 174.3 133.3 L 175.7 133.3 L 175.7 143.2 L 174.3 143.2 L 174.3 138.7 L 169.3 138.7 L 169.3 143.2 L 167.9 143.2 L 167.9 133.3 " fill="#FF0000"/>
<path class="atom-14" d="M 177.7 138.2 Q 177.7 135.9, 178.9 134.5 Q 180.0 133.2, 182.2 133.2 Q 184.4 133.2, 185.6 134.5 Q 186.8 135.9, 186.8 138.2 Q 186.8 140.6, 185.6 142.0 Q 184.4 143.4, 182.2 143.4 Q 180.0 143.4, 178.9 142.0 Q 177.7 140.7, 177.7 138.2 M 182.2 142.3 Q 183.7 142.3, 184.5 141.2 Q 185.4 140.2, 185.4 138.2 Q 185.4 136.3, 184.5 135.3 Q 183.7 134.3, 182.2 134.3 Q 180.7 134.3, 179.9 135.3 Q 179.1 136.3, 179.1 138.2 Q 179.1 140.2, 179.9 141.2 Q 180.7 142.3, 182.2 142.3 " fill="#FF0000"/>
<path class="legend" d="M 121.5 181.9 Q 121.5 179.6, 122.2 177.7 Q 122.8 175.8, 124.1 173.8 L 125.0 174.4 Q 124.0 176.3, 123.4 178.0 Q 122.9 179.7, 122.9 181.9 Q 122.9 184.0, 123.4 185.8 Q 124.0 187.5, 125.0 189.4 L 124.1 190.0 Q 122.8 188.0, 122.2 186.1 Q 121.5 184.2, 121.5 181.9 " fill="#000000"/>
<path class="legend" d="M 125.9 177.3 Q 126.4 176.2, 127.3 175.6 Q 128.3 175.0, 129.7 175.0 Q 131.4 175.0, 132.4 175.9 Q 133.3 176.8, 133.3 178.5 Q 133.3 180.2, 132.1 181.7 Q 130.9 183.3, 128.3 185.2 L 133.5 185.2 L 133.5 186.4 L 125.9 186.4 L 125.9 185.4 Q 128.0 183.9, 129.3 182.8 Q 130.5 181.6, 131.1 180.6 Q 131.7 179.6, 131.7 178.6 Q 131.7 177.5, 131.2 176.9 Q 130.7 176.3, 129.7 176.3 Q 128.8 176.3, 128.2 176.6 Q 127.6 177.0, 127.2 177.8 L 125.9 177.3 " fill="#000000"/>
<path class="legend" d="M 138.5 181.9 Q 138.5 184.2, 137.8 186.1 Q 137.2 188.0, 135.9 190.0 L 135.0 189.4 Q 136.0 187.5, 136.5 185.8 Q 137.1 184.0, 137.1 181.9 Q 137.1 179.7, 136.5 178.0 Q 136.0 176.3, 135.0 174.4 L 135.9 173.8 Q 137.2 175.8, 137.8 177.7 Q 138.5 179.6, 138.5 181.9 " fill="#000000"/>
</g>
    <g transform="translate(260.0, 0) scale(1 1) "><line x1="5" y1="100" x2="35" y2="100" style="stroke:rgb(0,0,0);stroke-width:2"/>
  <line x1="34" y1="100" x2="29" y2="95" style="stroke:rgb(0,0,0);stroke-width:2"/>
  <line x1="34" y1="100" x2="29" y2="105" style="stroke:rgb(0,0,0);stroke-width:2"/>
</g>
    <g transform="translate(300.0, 0) scale(1 1) "><!-- END OF HEADER -->
<rect style="opacity:1.0;fill:#FFFFFF;stroke:none" width="225.0" height="200.0" x="0.0" y="0.0"> </rect>
<path class="bond-0 atom-0 atom-1" d="M 11.2,78.1 L 29.2,75.0" style="fill:none;fill-rule:evenodd;stroke:#000000;stroke-width:2.0px;stroke-linecap:butt;stroke-linejoin:miter;stroke-opacity:1"/>
<path class="bond-0 atom-0 atom-1" d="M 29.2,75.0 L 47.1,71.9" style="fill:none;fill-rule:evenodd;stroke:#FF0000;stroke-width:2.0px;stroke-linecap:butt;stroke-linejoin:miter;stroke-opacity:1"/>
<path class="bond-1 atom-1 atom-2" d="M 60.8,78.6 L 71.5,91.4" style="fill:none;fill-rule:evenodd;stroke:#FF0000;stroke-width:2.0px;stroke-linecap:butt;stroke-linejoin:miter;stroke-opacity:1"/>
<path class="bond-1 atom-1 atom-2" d="M 71.5,91.4 L 82.1,104.2" style="fill:none;fill-rule:evenodd;stroke:#000000;stroke-width:2.0px;stroke-linecap:butt;stroke-linejoin:miter;stroke-opacity:1"/>
<path class="bond-2 atom-2 atom-3" d="M 79.7,101.3 L 73.3,118.8" style="fill:none;fill-rule:evenodd;stroke:#000000;stroke-width:2.0px;stroke-linecap:butt;stroke-linejoin:miter;stroke-opacity:1"/>
<path class="bond-2 atom-2 atom-3" d="M 73.3,118.8 L 66.8,136.3" style="fill:none;fill-rule:evenodd;stroke:#FF0000;stroke-width:2.0px;stroke-linecap:butt;stroke-linejoin:miter;stroke-opacity:1"/>
<path class="bond-2 atom-2 atom-3" d="M 85.9,103.6 L 79.4,121.1" style="fill:none;fill-rule:evenodd;stroke:#000000;stroke-width:2.0px;stroke-linecap:butt;stroke-linejoin:miter;stroke-opacity:1"/>
<path class="bond-2 atom-2 atom-3" d="M 79.4,121.1 L 73.0,138.6" style="fill:none;fill-rule:evenodd;stroke:#FF0000;stroke-width:2.0px;stroke-linecap:butt;stroke-linejoin:miter;stroke-opacity:1"/>
<path class="bond-3 atom-2 atom-4" d="M 82.1,104.2 L 125.1,96.8" style="fill:none;fill-rule:evenodd;stroke:#000000;stroke-width:2.0px;stroke-linecap:butt;stroke-linejoin:miter;stroke-opacity:1"/>
<path class="bond-4 atom-4 atom-5" d="M 125.1,96.8 L 132.5,139.8" style="fill:none;fill-rule:evenodd;stroke:#000000;stroke-width:2.0px;stroke-linecap:butt;stroke-linejoin:miter;stroke-opacity:1"/>
<path class="bond-5 atom-4 atom-6" d="M 125.1,96.8 L 117.7,53.8" style="fill:none;fill-rule:evenodd;stroke:#000000;stroke-width:2.0px;stroke-linecap:butt;stroke-linejoin:miter;stroke-opacity:1"/>
<path class="bond-6 atom-4 atom-7" d="M 125.1,96.8 L 168.1,89.4" style="fill:none;fill-rule:evenodd;stroke:#000000;stroke-width:2.0px;stroke-linecap:butt;stroke-linejoin:miter;stroke-opacity:1"/>
<path class="bond-7 atom-7 atom-8" d="M 168.1,89.4 L 183.1,48.4" style="fill:none;fill-rule:evenodd;stroke:#000000;stroke-width:2.0px;stroke-linecap:butt;stroke-linejoin:miter;stroke-opacity:1"/>
<path class="bond-8 atom-7 atom-9" d="M 168.1,89.4 L 178.8,102.3" style="fill:none;fill-rule:evenodd;stroke:#000000;stroke-width:2.0px;stroke-linecap:butt;stroke-linejoin:miter;stroke-opacity:1"/>
<path class="bond-8 atom-7 atom-9" d="M 178.8,102.3 L 189.6,115.2" style="fill:none;fill-rule:evenodd;stroke:#FF0000;stroke-width:2.0px;stroke-linecap:butt;stroke-linejoin:miter;stroke-opacity:1"/>
<path d="M 81.6,103.6 L 82.1,104.2 L 84.3,103.8" style="fill:none;stroke:#000000;stroke-width:2.0px;stroke-linecap:butt;stroke-linejoin:miter;stroke-opacity:1;"/>
<path class="atom-1" d="M 48.6 70.7 Q 48.6 67.8, 50.0 66.1 Q 51.5 64.4, 54.2 64.4 Q 57.0 64.4, 58.4 66.1 Q 59.9 67.8, 59.9 70.7 Q 59.9 73.7, 58.4 75.4 Q 56.9 77.1, 54.2 77.1 Q 51.5 77.1, 50.0 75.4 Q 48.6 73.7, 48.6 70.7 M 54.2 75.7 Q 56.1 75.7, 57.1 74.5 Q 58.1 73.2, 58.1 70.7 Q 58.1 68.3, 57.1 67.1 Q 56.1 65.8, 54.2 65.8 Q 52.3 65.8, 51.3 67.1 Q 50.3 68.3, 50.3 70.7 Q 50.3 73.2, 51.3 74.5 Q 52.3 75.7, 54.2 75.7 " fill="#FF0000"/>
<path class="atom-3" d="M 61.4 145.2 Q 61.4 142.2, 62.9 140.5 Q 64.3 138.9, 67.1 138.9 Q 69.8 138.9, 71.3 140.5 Q 72.7 142.2, 72.7 145.2 Q 72.7 148.2, 71.3 149.9 Q 69.8 151.6, 67.1 151.6 Q 64.4 151.6, 62.9 149.9 Q 61.4 148.2, 61.4 145.2 M 67.1 150.2 Q 69.0 150.2, 70.0 148.9 Q 71.0 147.6, 71.0 145.2 Q 71.0 142.7, 70.0 141.5 Q 69.0 140.3, 67.1 140.3 Q 65.2 140.3, 64.2 141.5 Q 63.1 142.7, 63.1 145.2 Q 63.1 147.7, 64.2 148.9 Q 65.2 150.2, 67.1 150.2 " fill="#FF0000"/>
<path class="atom-9" d="M 190.3 122.9 Q 190.3 119.9, 191.8 118.3 Q 193.3 116.6, 196.0 116.6 Q 198.7 116.6, 200.2 118.3 Q 201.7 119.9, 201.7 122.9 Q 201.7 125.9, 200.2 127.6 Q 198.7 129.3, 196.0 129.3 Q 193.3 129.3, 191.8 127.6 Q 190.3 125.9, 190.3 122.9 M 196.0 127.9 Q 197.9 127.9, 198.9 126.7 Q 199.9 125.4, 199.9 122.9 Q 199.9 120.5, 198.9 119.3 Q 197.9 118.0, 196.0 118.0 Q 194.1 118.0, 193.1 119.2 Q 192.1 120.5, 192.1 122.9 Q 192.1 125.4, 193.1 126.7 Q 194.1 127.9, 196.0 127.9 " fill="#FF0000"/>
<path class="atom-9" d="M 203.6 116.8 L 205.3 116.8 L 205.3 122.0 L 211.6 122.0 L 211.6 116.8 L 213.3 116.8 L 213.3 129.1 L 211.6 129.1 L 211.6 123.4 L 205.3 123.4 L 205.3 129.1 L 203.6 129.1 L 203.6 116.8 " fill="#FF0000"/>
</g>
    <g transform="translate(525.0, 0) scale(1 1) "><line x1="15" y1="100" x2="25" y2="100" style="stroke:rgb(0,0,0);stroke-width:2"/>
  <line x1="20" y1="95" x2="20" y2="105" style="stroke:rgb(0,0,0);stroke-width:2"/>
</g>
    <g transform="translate(565.0, 0) scale(1 1) "><!-- END OF HEADER -->
<rect style="opacity:1.0;fill:#FFFFFF;stroke:none" width="285.0" height="200.0" x="0.0" y="0.0"> </rect>
<path class="bond-0 atom-0 atom-1" d="M 234.2,54.3 L 229.3,88.6" style="fill:none;fill-rule:evenodd;stroke:#000000;stroke-width:2.0px;stroke-linecap:butt;stroke-linejoin:miter;stroke-opacity:1"/>
<path class="bond-1 atom-1 atom-2" d="M 229.3,88.6 L 240.1,97.1" style="fill:none;fill-rule:evenodd;stroke:#000000;stroke-width:2.0px;stroke-linecap:butt;stroke-linejoin:miter;stroke-opacity:1"/>
<path class="bond-1 atom-1 atom-2" d="M 240.1,97.1 L 250.9,105.6" style="fill:none;fill-rule:evenodd;stroke:#FF0000;stroke-width:2.0px;stroke-linecap:butt;stroke-linejoin:miter;stroke-opacity:1"/>
<path class="bond-2 atom-1 atom-3" d="M 229.3,88.6 L 197.1,101.5" style="fill:none;fill-rule:evenodd;stroke:#000000;stroke-width:2.0px;stroke-linecap:butt;stroke-linejoin:miter;stroke-opacity:1"/>
<path class="bond-3 atom-3 atom-4" d="M 197.1,101.5 L 184.2,69.3" style="fill:none;fill-rule:evenodd;stroke:#000000;stroke-width:2.0px;stroke-linecap:butt;stroke-linejoin:miter;stroke-opacity:1"/>
<path class="bond-4 atom-3 atom-5" d="M 197.1,101.5 L 210.0,133.7" style="fill:none;fill-rule:evenodd;stroke:#000000;stroke-width:2.0px;stroke-linecap:butt;stroke-linejoin:miter;stroke-opacity:1"/>
<path class="bond-5 atom-3 atom-6" d="M 197.1,101.5 L 164.9,114.4" style="fill:none;fill-rule:evenodd;stroke:#000000;stroke-width:2.0px;stroke-linecap:butt;stroke-linejoin:miter;stroke-opacity:1"/>
<path class="bond-6 atom-6 atom-7" d="M 162.5,112.5 L 160.4,127.4" style="fill:none;fill-rule:evenodd;stroke:#000000;stroke-width:2.0px;stroke-linecap:butt;stroke-linejoin:miter;stroke-opacity:1"/>
<path class="bond-6 atom-6 atom-7" d="M 160.4,127.4 L 158.3,142.2" style="fill:none;fill-rule:evenodd;stroke:#FF0000;stroke-width:2.0px;stroke-linecap:butt;stroke-linejoin:miter;stroke-opacity:1"/>
<path class="bond-6 atom-6 atom-7" d="M 167.7,113.3 L 165.6,128.1" style="fill:none;fill-rule:evenodd;stroke:#000000;stroke-width:2.0px;stroke-linecap:butt;stroke-linejoin:miter;stroke-opacity:1"/>
<path class="bond-6 atom-6 atom-7" d="M 165.6,128.1 L 163.4,143.0" style="fill:none;fill-rule:evenodd;stroke:#FF0000;stroke-width:2.0px;stroke-linecap:butt;stroke-linejoin:miter;stroke-opacity:1"/>
<path class="bond-7 atom-6 atom-8" d="M 164.9,114.4 L 154.1,105.9" style="fill:none;fill-rule:evenodd;stroke:#000000;stroke-width:2.0px;stroke-linecap:butt;stroke-linejoin:miter;stroke-opacity:1"/>
<path class="bond-7 atom-6 atom-8" d="M 154.1,105.9 L 143.3,97.4" style="fill:none;fill-rule:evenodd;stroke:#FF0000;stroke-width:2.0px;stroke-linecap:butt;stroke-linejoin:miter;stroke-opacity:1"/>
<path class="bond-8 atom-8 atom-9" d="M 132.0,95.2 L 118.7,100.5" style="fill:none;fill-rule:evenodd;stroke:#FF0000;stroke-width:2.0px;stroke-linecap:butt;stroke-linejoin:miter;stroke-opacity:1"/>
<path class="bond-8 atom-8 atom-9" d="M 118.7,100.5 L 105.5,105.9" style="fill:none;fill-rule:evenodd;stroke:#000000;stroke-width:2.0px;stroke-linecap:butt;stroke-linejoin:miter;stroke-opacity:1"/>
<path class="bond-9 atom-9 atom-10" d="M 105.5,105.9 L 78.2,84.4" style="fill:none;fill-rule:evenodd;stroke:#000000;stroke-width:2.0px;stroke-linecap:butt;stroke-linejoin:miter;stroke-opacity:1"/>
<path class="bond-10 atom-10 atom-11" d="M 78.2,84.4 L 99.6,57.2" style="fill:none;fill-rule:evenodd;stroke:#000000;stroke-width:2.0px;stroke-linecap:butt;stroke-linejoin:miter;stroke-opacity:1"/>
<path class="bond-11 atom-10 atom-12" d="M 78.2,84.4 L 50.9,63.0" style="fill:none;fill-rule:evenodd;stroke:#000000;stroke-width:2.0px;stroke-linecap:butt;stroke-linejoin:miter;stroke-opacity:1"/>
<path class="bond-12 atom-12 atom-13" d="M 51.4,60.0 L 37.4,65.6" style="fill:none;fill-rule:evenodd;stroke:#000000;stroke-width:2.0px;stroke-linecap:butt;stroke-linejoin:miter;stroke-opacity:1"/>
<path class="bond-12 atom-12 atom-13" d="M 37.4,65.6 L 23.4,71.2" style="fill:none;fill-rule:evenodd;stroke:#FF0000;stroke-width:2.0px;stroke-linecap:butt;stroke-linejoin:miter;stroke-opacity:1"/>
<path class="bond-12 atom-12 atom-13" d="M 53.3,64.9 L 39.3,70.5" style="fill:none;fill-rule:evenodd;stroke:#000000;stroke-width:2.0px;stroke-linecap:butt;stroke-linejoin:miter;stroke-opacity:1"/>
<path class="bond-12 atom-12 atom-13" d="M 39.3,70.5 L 25.4,76.1" style="fill:none;fill-rule:evenodd;stroke:#FF0000;stroke-width:2.0px;stroke-linecap:butt;stroke-linejoin:miter;stroke-opacity:1"/>
<path class="bond-13 atom-12 atom-14" d="M 50.9,63.0 L 52.9,49.0" style="fill:none;fill-rule:evenodd;stroke:#000000;stroke-width:2.0px;stroke-linecap:butt;stroke-linejoin:miter;stroke-opacity:1"/>
<path class="bond-13 atom-12 atom-14" d="M 52.9,49.0 L 55.0,35.0" style="fill:none;fill-rule:evenodd;stroke:#FF0000;stroke-width:2.0px;stroke-linecap:butt;stroke-linejoin:miter;stroke-opacity:1"/>
<path class="bond-14 atom-10 atom-15" d="M 78.2,84.4 L 56.8,111.7" style="fill:none;fill-rule:evenodd;stroke:#000000;stroke-width:2.0px;stroke-linecap:butt;stroke-linejoin:miter;stroke-opacity:1"/>
<path class="bond-15 atom-15 atom-16" d="M 56.8,111.7 L 22.5,106.8" style="fill:none;fill-rule:evenodd;stroke:#000000;stroke-width:2.0px;stroke-linecap:butt;stroke-linejoin:miter;stroke-opacity:1"/>
<path class="bond-16 atom-15 atom-17" d="M 56.8,111.7 L 69.7,143.9" style="fill:none;fill-rule:evenodd;stroke:#000000;stroke-width:2.0px;stroke-linecap:butt;stroke-linejoin:miter;stroke-opacity:1"/>
<path class="bond-17 atom-17 atom-18" d="M 67.8,146.2 L 82.9,148.4" style="fill:none;fill-rule:evenodd;stroke:#000000;stroke-width:2.0px;stroke-linecap:butt;stroke-linejoin:miter;stroke-opacity:1"/>
<path class="bond-17 atom-17 atom-18" d="M 82.9,148.4 L 98.0,150.6" style="fill:none;fill-rule:evenodd;stroke:#FF0000;stroke-width:2.0px;stroke-linecap:butt;stroke-linejoin:miter;stroke-opacity:1"/>
<path class="bond-17 atom-17 atom-18" d="M 68.6,141.1 L 83.6,143.3" style="fill:none;fill-rule:evenodd;stroke:#000000;stroke-width:2.0px;stroke-linecap:butt;stroke-linejoin:miter;stroke-opacity:1"/>
<path class="bond-17 atom-17 atom-18" d="M 83.6,143.3 L 98.7,145.4" style="fill:none;fill-rule:evenodd;stroke:#FF0000;stroke-width:2.0px;stroke-linecap:butt;stroke-linejoin:miter;stroke-opacity:1"/>
<path class="bond-18 atom-17 atom-19" d="M 69.7,143.9 L 61.4,154.5" style="fill:none;fill-rule:evenodd;stroke:#000000;stroke-width:2.0px;stroke-linecap:butt;stroke-linejoin:miter;stroke-opacity:1"/>
<path class="bond-18 atom-17 atom-19" d="M 61.4,154.5 L 53.1,165.0" style="fill:none;fill-rule:evenodd;stroke:#FF0000;stroke-width:2.0px;stroke-linecap:butt;stroke-linejoin:miter;stroke-opacity:1"/>
<path d="M 166.5,113.7 L 164.9,114.4 L 164.4,114.0" style="fill:none;stroke:#000000;stroke-width:2.0px;stroke-linecap:butt;stroke-linejoin:miter;stroke-opacity:1;"/>
<path d="M 106.1,105.6 L 105.5,105.9 L 104.1,104.8" style="fill:none;stroke:#000000;stroke-width:2.0px;stroke-linecap:butt;stroke-linejoin:miter;stroke-opacity:1;"/>
<path d="M 52.3,64.1 L 50.9,63.0 L 51.0,62.3" style="fill:none;stroke:#000000;stroke-width:2.0px;stroke-linecap:butt;stroke-linejoin:miter;stroke-opacity:1;"/>
<path d="M 69.0,142.3 L 69.7,143.9 L 69.3,144.4" style="fill:none;stroke:#000000;stroke-width:2.0px;stroke-linecap:butt;stroke-linejoin:miter;stroke-opacity:1;"/>
<path class="atom-2" d="M 252.0 110.0 Q 252.0 107.7, 253.2 106.4 Q 254.4 105.0, 256.5 105.0 Q 258.7 105.0, 259.9 106.4 Q 261.0 107.7, 261.0 110.0 Q 261.0 112.4, 259.9 113.8 Q 258.7 115.1, 256.5 115.1 Q 254.4 115.1, 253.2 113.8 Q 252.0 112.4, 252.0 110.0 M 256.5 114.0 Q 258.0 114.0, 258.8 113.0 Q 259.7 112.0, 259.7 110.0 Q 259.7 108.1, 258.8 107.1 Q 258.0 106.1, 256.5 106.1 Q 255.0 106.1, 254.2 107.1 Q 253.4 108.1, 253.4 110.0 Q 253.4 112.0, 254.2 113.0 Q 255.0 114.0, 256.5 114.0 " fill="#FF0000"/>
<path class="atom-2" d="M 262.6 105.1 L 263.9 105.1 L 263.9 109.3 L 268.9 109.3 L 268.9 105.1 L 270.2 105.1 L 270.2 115.0 L 268.9 115.0 L 268.9 110.4 L 263.9 110.4 L 263.9 115.0 L 262.6 115.0 L 262.6 105.1 " fill="#FF0000"/>
<path class="atom-7" d="M 155.5 148.7 Q 155.5 146.4, 156.6 145.1 Q 157.8 143.7, 160.0 143.7 Q 162.2 143.7, 163.3 145.1 Q 164.5 146.4, 164.5 148.7 Q 164.5 151.1, 163.3 152.5 Q 162.1 153.8, 160.0 153.8 Q 157.8 153.8, 156.6 152.5 Q 155.5 151.1, 155.5 148.7 M 160.0 152.7 Q 161.5 152.7, 162.3 151.7 Q 163.1 150.7, 163.1 148.7 Q 163.1 146.8, 162.3 145.8 Q 161.5 144.8, 160.0 144.8 Q 158.5 144.8, 157.7 145.8 Q 156.9 146.8, 156.9 148.7 Q 156.9 150.7, 157.7 151.7 Q 158.5 152.7, 160.0 152.7 " fill="#FF0000"/>
<path class="atom-8" d="M 133.1 93.0 Q 133.1 90.6, 134.3 89.3 Q 135.5 88.0, 137.6 88.0 Q 139.8 88.0, 141.0 89.3 Q 142.2 90.6, 142.2 93.0 Q 142.2 95.4, 141.0 96.7 Q 139.8 98.1, 137.6 98.1 Q 135.5 98.1, 134.3 96.7 Q 133.1 95.4, 133.1 93.0 M 137.6 97.0 Q 139.1 97.0, 139.9 96.0 Q 140.8 95.0, 140.8 93.0 Q 140.8 91.1, 139.9 90.1 Q 139.1 89.1, 137.6 89.1 Q 136.1 89.1, 135.3 90.1 Q 134.5 91.0, 134.5 93.0 Q 134.5 95.0, 135.3 96.0 Q 136.1 97.0, 137.6 97.0 " fill="#FF0000"/>
<path class="atom-13" d="M 14.3 75.9 Q 14.3 73.6, 15.4 72.3 Q 16.6 71.0, 18.8 71.0 Q 20.9 71.0, 22.1 72.3 Q 23.3 73.6, 23.3 75.9 Q 23.3 78.3, 22.1 79.7 Q 20.9 81.0, 18.8 81.0 Q 16.6 81.0, 15.4 79.7 Q 14.3 78.3, 14.3 75.9 M 18.8 79.9 Q 20.3 79.9, 21.1 78.9 Q 21.9 77.9, 21.9 75.9 Q 21.9 74.0, 21.1 73.0 Q 20.3 72.1, 18.8 72.1 Q 17.3 72.1, 16.4 73.0 Q 15.6 74.0, 15.6 75.9 Q 15.6 77.9, 16.4 78.9 Q 17.3 79.9, 18.8 79.9 " fill="#FF0000"/>
<path class="atom-14" d="M 51.4 28.7 Q 51.4 26.4, 52.5 25.1 Q 53.7 23.7, 55.9 23.7 Q 58.0 23.7, 59.2 25.1 Q 60.4 26.4, 60.4 28.7 Q 60.4 31.1, 59.2 32.5 Q 58.0 33.8, 55.9 33.8 Q 53.7 33.8, 52.5 32.5 Q 51.4 31.1, 51.4 28.7 M 55.9 32.7 Q 57.4 32.7, 58.2 31.7 Q 59.0 30.7, 59.0 28.7 Q 59.0 26.8, 58.2 25.8 Q 57.4 24.8, 55.9 24.8 Q 54.4 24.8, 53.5 25.8 Q 52.7 26.8, 52.7 28.7 Q 52.7 30.7, 53.5 31.7 Q 54.4 32.7, 55.9 32.7 " fill="#FF0000"/>
<path class="atom-14" d="M 61.9 23.8 L 63.2 23.8 L 63.2 28.0 L 68.2 28.0 L 68.2 23.8 L 69.6 23.8 L 69.6 33.7 L 68.2 33.7 L 68.2 29.1 L 63.2 29.1 L 63.2 33.7 L 61.9 33.7 L 61.9 23.8 " fill="#FF0000"/>
<path class="atom-18" d="M 99.5 148.8 Q 99.5 146.5, 100.7 145.2 Q 101.8 143.8, 104.0 143.8 Q 106.2 143.8, 107.3 145.2 Q 108.5 146.5, 108.5 148.8 Q 108.5 151.2, 107.3 152.6 Q 106.1 153.9, 104.0 153.9 Q 101.8 153.9, 100.7 152.6 Q 99.5 151.2, 99.5 148.8 M 104.0 152.8 Q 105.5 152.8, 106.3 151.8 Q 107.1 150.8, 107.1 148.8 Q 107.1 146.9, 106.3 145.9 Q 105.5 144.9, 104.0 144.9 Q 102.5 144.9, 101.7 145.9 Q 100.9 146.9, 100.9 148.8 Q 100.9 150.8, 101.7 151.8 Q 102.5 152.8, 104.0 152.8 " fill="#FF0000"/>
<path class="atom-19" d="M 34.1 166.3 L 35.4 166.3 L 35.4 170.5 L 40.4 170.5 L 40.4 166.3 L 41.7 166.3 L 41.7 176.1 L 40.4 176.1 L 40.4 171.6 L 35.4 171.6 L 35.4 176.1 L 34.1 176.1 L 34.1 166.3 " fill="#FF0000"/>
<path class="atom-19" d="M 43.8 171.2 Q 43.8 168.8, 44.9 167.5 Q 46.1 166.2, 48.3 166.2 Q 50.4 166.2, 51.6 167.5 Q 52.8 168.8, 52.8 171.2 Q 52.8 173.6, 51.6 174.9 Q 50.4 176.3, 48.3 176.3 Q 46.1 176.3, 44.9 174.9 Q 43.8 173.6, 43.8 171.2 M 48.3 175.2 Q 49.8 175.2, 50.6 174.2 Q 51.4 173.1, 51.4 171.2 Q 51.4 169.2, 50.6 168.3 Q 49.8 167.3, 48.3 167.3 Q 46.8 167.3, 45.9 168.3 Q 45.1 169.2, 45.1 171.2 Q 45.1 173.2, 45.9 174.2 Q 46.8 175.2, 48.3 175.2 " fill="#FF0000"/>
</g>
  </g>
</svg>
