<?xml version='1.0' encoding='ASCII' standalone='yes'?>
<svg xmlns="http://www.w3.org/2000/svg" xmlns:xlink="http://www.w3.org/1999/xlink" version="1.1" width="753.0px" viewBox="0 0 753.0 200.0" height="200.0px">
  <g>
    <g transform="translate(0, 0) scale(1 1) "><!-- END OF HEADER -->
<rect style="opacity:1.0;fill:#FFFFFF;stroke:none" width="225.0" height="200.0" x="0.0" y="0.0"> </rect>
<path class="bond-0 atom-0 atom-1" d="M 11.2,113.3 L 52.3,95.0" style="fill:none;fill-rule:evenodd;stroke:#000000;stroke-width:2.0px;stroke-linecap:butt;stroke-linejoin:miter;stroke-opacity:1"/>
<path class="bond-1 atom-1 atom-2" d="M 52.3,95.0 L 88.8,121.3" style="fill:none;fill-rule:evenodd;stroke:#000000;stroke-width:2.0px;stroke-linecap:butt;stroke-linejoin:miter;stroke-opacity:1"/>
<path class="bond-2 atom-2 atom-3" d="M 88.8,121.3 L 129.9,103.0" style="fill:none;fill-rule:evenodd;stroke:#000000;stroke-width:2.0px;stroke-linecap:butt;stroke-linejoin:miter;stroke-opacity:1"/>
<path class="bond-3 atom-3 atom-4" d="M 129.9,103.0 L 111.5,61.9" style="fill:none;fill-rule:evenodd;stroke:#000000;stroke-width:2.0px;stroke-linecap:butt;stroke-linejoin:miter;stroke-opacity:1"/>
<path class="bond-4 atom-3 atom-5" d="M 129.9,103.0 L 148.2,144.0" style="fill:none;fill-rule:evenodd;stroke:#000000;stroke-width:2.0px;stroke-linecap:butt;stroke-linejoin:miter;stroke-opacity:1"/>
<path class="bond-5 atom-5 atom-6" d="M 148.2,144.0 L 193.0,148.6" style="fill:none;fill-rule:evenodd;stroke:#000000;stroke-width:2.0px;stroke-linecap:butt;stroke-linejoin:miter;stroke-opacity:1"/>
<path class="bond-6 atom-3 atom-7" d="M 129.9,103.0 L 170.9,84.6" style="fill:none;fill-rule:evenodd;stroke:#000000;stroke-width:2.0px;stroke-linecap:butt;stroke-linejoin:miter;stroke-opacity:1"/>
<path class="bond-7 atom-7 atom-8" d="M 167.4,86.2 L 182.7,97.3" style="fill:none;fill-rule:evenodd;stroke:#000000;stroke-width:2.0px;stroke-linecap:butt;stroke-linejoin:miter;stroke-opacity:1"/>
<path class="bond-7 atom-7 atom-8" d="M 182.7,97.3 L 198.1,108.4" style="fill:none;fill-rule:evenodd;stroke:#FF0000;stroke-width:2.0px;stroke-linecap:butt;stroke-linejoin:miter;stroke-opacity:1"/>
<path class="bond-7 atom-7 atom-8" d="M 171.3,80.7 L 186.7,91.8" style="fill:none;fill-rule:evenodd;stroke:#000000;stroke-width:2.0px;stroke-linecap:butt;stroke-linejoin:miter;stroke-opacity:1"/>
<path class="bond-7 atom-7 atom-8" d="M 186.7,91.8 L 202.0,102.9" style="fill:none;fill-rule:evenodd;stroke:#FF0000;stroke-width:2.0px;stroke-linecap:butt;stroke-linejoin:miter;stroke-opacity:1"/>
<path class="bond-8 atom-7 atom-9" d="M 170.9,84.6 L 172.8,66.2" style="fill:none;fill-rule:evenodd;stroke:#000000;stroke-width:2.0px;stroke-linecap:butt;stroke-linejoin:miter;stroke-opacity:1"/>
<path class="bond-8 atom-7 atom-9" d="M 172.8,66.2 L 174.7,47.9" style="fill:none;fill-rule:evenodd;stroke:#FF0000;stroke-width:2.0px;stroke-linecap:butt;stroke-linejoin:miter;stroke-opacity:1"/>
<path d="M 50.3,95.9 L 52.3,95.0 L 54.1,96.3" style="fill:none;stroke:#000000;stroke-width:2.0px;stroke-linecap:butt;stroke-linejoin:miter;stroke-opacity:1;"/>
<path d="M 87.0,120.0 L 88.8,121.3 L 90.8,120.4" style="fill:none;stroke:#000000;stroke-width:2.0px;stroke-linecap:butt;stroke-linejoin:miter;stroke-opacity:1;"/>
<path d="M 147.3,142.0 L 148.2,144.0 L 150.5,144.3" style="fill:none;stroke:#000000;stroke-width:2.0px;stroke-linecap:butt;stroke-linejoin:miter;stroke-opacity:1;"/>
<path d="M 168.9,85.5 L 170.9,84.6 L 171.0,83.7" style="fill:none;stroke:#000000;stroke-width:2.0px;stroke-linecap:butt;stroke-linejoin:miter;stroke-opacity:1;"/>
<path class="atom-8" d="M 201.5 111.0 Q 201.5 107.9, 203.1 106.2 Q 204.6 104.5, 207.4 104.5 Q 210.2 104.5, 211.7 106.2 Q 213.2 107.9, 213.2 111.0 Q 213.2 114.1, 211.7 115.8 Q 210.2 117.6, 207.4 117.6 Q 204.6 117.6, 203.1 115.8 Q 201.5 114.1, 201.5 111.0 M 207.4 116.1 Q 209.3 116.1, 210.4 114.9 Q 211.4 113.5, 211.4 111.0 Q 211.4 108.5, 210.4 107.2 Q 209.3 105.9, 207.4 105.9 Q 205.5 105.9, 204.4 107.2 Q 203.3 108.5, 203.3 111.0 Q 203.3 113.6, 204.4 114.9 Q 205.5 116.1, 207.4 116.1 " fill="#FF0000"/>
<path class="atom-9" d="M 169.7 39.8 Q 169.7 36.8, 171.2 35.1 Q 172.7 33.4, 175.6 33.4 Q 178.4 33.4, 179.9 35.1 Q 181.4 36.8, 181.4 39.8 Q 181.4 42.9, 179.9 44.7 Q 178.3 46.4, 175.6 46.4 Q 172.7 46.4, 171.2 44.7 Q 169.7 43.0, 169.7 39.8 M 175.6 45.0 Q 177.5 45.0, 178.5 43.7 Q 179.6 42.4, 179.6 39.8 Q 179.6 37.3, 178.5 36.1 Q 177.5 34.8, 175.6 34.8 Q 173.6 34.8, 172.5 36.1 Q 171.5 37.3, 171.5 39.8 Q 171.5 42.4, 172.5 43.7 Q 173.6 45.0, 175.6 45.0 " fill="#FF0000"/>
<path class="atom-9" d="M 183.4 33.5 L 185.1 33.5 L 185.1 38.9 L 191.6 38.9 L 191.6 33.5 L 193.4 33.5 L 193.4 46.2 L 191.6 46.2 L 191.6 40.4 L 185.1 40.4 L 185.1 46.2 L 183.4 46.2 L 183.4 33.5 " fill="#FF0000"/>
<path class="legend" d="M 103.7 181.9 Q 103.7 179.6, 104.4 177.7 Q 105.1 175.8, 106.4 173.8 L 107.3 174.4 Q 106.2 176.3, 105.7 178.0 Q 105.2 179.7, 105.2 181.9 Q 105.2 184.0, 105.7 185.8 Q 106.2 187.5, 107.3 189.4 L 106.4 190.0 Q 105.1 188.0, 104.4 186.1 Q 103.7 184.2, 103.7 181.9 " fill="#000000"/>
<path class="legend" d="M 108.2 177.3 Q 108.6 176.2, 109.6 175.6 Q 110.6 175.0, 112.0 175.0 Q 113.7 175.0, 114.6 175.9 Q 115.6 176.8, 115.6 178.5 Q 115.6 180.2, 114.3 181.7 Q 113.1 183.3, 110.6 185.2 L 115.8 185.2 L 115.8 186.4 L 108.2 186.4 L 108.2 185.4 Q 110.3 183.9, 111.5 182.8 Q 112.8 181.6, 113.4 180.6 Q 114.0 179.6, 114.0 178.6 Q 114.0 177.5, 113.5 176.9 Q 112.9 176.3, 112.0 176.3 Q 111.0 176.3, 110.4 176.6 Q 109.8 177.0, 109.4 177.8 L 108.2 177.3 " fill="#000000"/>
<path class="legend" d="M 120.8 181.9 Q 120.8 184.2, 120.1 186.1 Q 119.4 188.0, 118.1 190.0 L 117.2 189.4 Q 118.3 187.5, 118.8 185.8 Q 119.3 184.0, 119.3 181.9 Q 119.3 179.7, 118.8 178.0 Q 118.3 176.3, 117.2 174.4 L 118.1 173.8 Q 119.4 175.8, 120.1 177.7 Q 120.8 179.6, 120.8 181.9 " fill="#000000"/>
</g>
    <g transform="translate(225.0, 0) scale(1 1) "><line x1="5" y1="100" x2="35" y2="100" style="stroke:rgb(0,0,0);stroke-width:2"/>
  <line x1="34" y1="100" x2="29" y2="95" style="stroke:rgb(0,0,0);stroke-width:2"/>
  <line x1="34" y1="100" x2="29" y2="105" style="stroke:rgb(0,0,0);stroke-width:2"/>
</g>
    <g transform="translate(265.0, 0) scale(1 1) "><!-- END OF HEADER -->
<rect style="opacity:1.0;fill:#FFFFFF;stroke:none" width="233.0" height="200.0" x="0.0" y="0.0"> </rect>
<path class="bond-0 atom-0 atom-1" d="M 11.7,122.4 L 54.7,104.6" style="fill:none;fill-rule:evenodd;stroke:#000000;stroke-width:2.0px;stroke-linecap:butt;stroke-linejoin:miter;stroke-opacity:1"/>
<path class="bond-1 atom-1 atom-2" d="M 54.7,104.6 L 91.6,133.1" style="fill:none;fill-rule:evenodd;stroke:#000000;stroke-width:2.0px;stroke-linecap:butt;stroke-linejoin:miter;stroke-opacity:1"/>
<path class="bond-2 atom-2 atom-3" d="M 91.6,133.1 L 134.7,115.3" style="fill:none;fill-rule:evenodd;stroke:#000000;stroke-width:2.0px;stroke-linecap:butt;stroke-linejoin:miter;stroke-opacity:1"/>
<path class="bond-3 atom-3 atom-4" d="M 134.7,115.3 L 116.9,72.3" style="fill:none;fill-rule:evenodd;stroke:#000000;stroke-width:2.0px;stroke-linecap:butt;stroke-linejoin:miter;stroke-opacity:1"/>
<path class="bond-4 atom-4 atom-5" d="M 116.9,72.3 L 145.4,35.4" style="fill:none;fill-rule:evenodd;stroke:#000000;stroke-width:2.0px;stroke-linecap:butt;stroke-linejoin:miter;stroke-opacity:1"/>
<path class="bond-5 atom-3 atom-6" d="M 134.7,115.3 L 152.4,158.4" style="fill:none;fill-rule:evenodd;stroke:#000000;stroke-width:2.0px;stroke-linecap:butt;stroke-linejoin:miter;stroke-opacity:1"/>
<path class="bond-6 atom-6 atom-7" d="M 152.4,158.4 L 198.5,164.6" style="fill:none;fill-rule:evenodd;stroke:#000000;stroke-width:2.0px;stroke-linecap:butt;stroke-linejoin:miter;stroke-opacity:1"/>
<path class="bond-7 atom-3 atom-8" d="M 134.7,115.3 L 177.7,97.6" style="fill:none;fill-rule:evenodd;stroke:#000000;stroke-width:2.0px;stroke-linecap:butt;stroke-linejoin:miter;stroke-opacity:1"/>
<path class="bond-8 atom-8 atom-9" d="M 174.0,99.2 L 189.4,111.1" style="fill:none;fill-rule:evenodd;stroke:#000000;stroke-width:2.0px;stroke-linecap:butt;stroke-linejoin:miter;stroke-opacity:1"/>
<path class="bond-8 atom-8 atom-9" d="M 189.4,111.1 L 204.9,123.0" style="fill:none;fill-rule:evenodd;stroke:#FF0000;stroke-width:2.0px;stroke-linecap:butt;stroke-linejoin:miter;stroke-opacity:1"/>
<path class="bond-8 atom-8 atom-9" d="M 178.3,93.6 L 193.7,105.5" style="fill:none;fill-rule:evenodd;stroke:#000000;stroke-width:2.0px;stroke-linecap:butt;stroke-linejoin:miter;stroke-opacity:1"/>
<path class="bond-8 atom-8 atom-9" d="M 193.7,105.5 L 209.1,117.4" style="fill:none;fill-rule:evenodd;stroke:#FF0000;stroke-width:2.0px;stroke-linecap:butt;stroke-linejoin:miter;stroke-opacity:1"/>
<path class="bond-9 atom-8 atom-10" d="M 177.7,97.6 L 180.2,78.8" style="fill:none;fill-rule:evenodd;stroke:#000000;stroke-width:2.0px;stroke-linecap:butt;stroke-linejoin:miter;stroke-opacity:1"/>
<path class="bond-9 atom-8 atom-10" d="M 180.2,78.8 L 182.8,59.9" style="fill:none;fill-rule:evenodd;stroke:#FF0000;stroke-width:2.0px;stroke-linecap:butt;stroke-linejoin:miter;stroke-opacity:1"/>
<path d="M 52.6,105.5 L 54.7,104.6 L 56.6,106.1" style="fill:none;stroke:#000000;stroke-width:2.0px;stroke-linecap:butt;stroke-linejoin:miter;stroke-opacity:1;"/>
<path d="M 89.7,131.6 L 91.6,133.1 L 93.7,132.2" style="fill:none;stroke:#000000;stroke-width:2.0px;stroke-linecap:butt;stroke-linejoin:miter;stroke-opacity:1;"/>
<path d="M 117.8,74.4 L 116.9,72.3 L 118.4,70.4" style="fill:none;stroke:#000000;stroke-width:2.0px;stroke-linecap:butt;stroke-linejoin:miter;stroke-opacity:1;"/>
<path d="M 151.5,156.3 L 152.4,158.4 L 154.7,158.7" style="fill:none;stroke:#000000;stroke-width:2.0px;stroke-linecap:butt;stroke-linejoin:miter;stroke-opacity:1;"/>
<path d="M 175.6,98.5 L 177.7,97.6 L 177.8,96.7" style="fill:none;stroke:#000000;stroke-width:2.0px;stroke-linecap:butt;stroke-linejoin:miter;stroke-opacity:1;"/>
<path class="atom-9" d="M 208.5 126.1 Q 208.5 122.9, 210.1 121.2 Q 211.7 119.4, 214.6 119.4 Q 217.5 119.4, 219.1 121.2 Q 220.7 122.9, 220.7 126.1 Q 220.7 129.3, 219.1 131.1 Q 217.5 132.9, 214.6 132.9 Q 211.7 132.9, 210.1 131.1 Q 208.5 129.3, 208.5 126.1 M 214.6 131.4 Q 216.6 131.4, 217.7 130.1 Q 218.8 128.7, 218.8 126.1 Q 218.8 123.5, 217.7 122.2 Q 216.6 120.9, 214.6 120.9 Q 212.6 120.9, 211.5 122.2 Q 210.4 123.5, 210.4 126.1 Q 210.4 128.8, 211.5 130.1 Q 212.6 131.4, 214.6 131.4 " fill="#FF0000"/>
<path class="atom-10" d="M 177.8 51.5 Q 177.8 48.3, 179.4 46.6 Q 181.0 44.8, 183.9 44.8 Q 186.8 44.8, 188.4 46.6 Q 190.0 48.3, 190.0 51.5 Q 190.0 54.7, 188.4 56.5 Q 186.8 58.3, 183.9 58.3 Q 181.0 58.3, 179.4 56.5 Q 177.8 54.7, 177.8 51.5 M 183.9 56.9 Q 185.9 56.9, 187.0 55.5 Q 188.1 54.2, 188.1 51.5 Q 188.1 48.9, 187.0 47.6 Q 185.9 46.3, 183.9 46.3 Q 181.9 46.3, 180.8 47.6 Q 179.7 48.9, 179.7 51.5 Q 179.7 54.2, 180.8 55.5 Q 181.9 56.9, 183.9 56.9 " fill="#FF0000"/>
<path class="atom-10" d="M 192.0 45.0 L 193.8 45.0 L 193.8 50.6 L 200.5 50.6 L 200.5 45.0 L 202.3 45.0 L 202.3 58.1 L 200.5 58.1 L 200.5 52.0 L 193.8 52.0 L 193.8 58.1 L 192.0 58.1 L 192.0 45.0 " fill="#FF0000"/>
</g>
    <g transform="translate(498.0, 0) scale(1 1) "><line x1="15" y1="100" x2="25" y2="100" style="stroke:rgb(0,0,0);stroke-width:2"/>
  <line x1="20" y1="95" x2="20" y2="105" style="stroke:rgb(0,0,0);stroke-width:2"/>
</g>
    <g transform="translate(538.0, 0) scale(1 1) "><!-- END OF HEADER -->
<rect style="opacity:1.0;fill:#FFFFFF;stroke:none" width="215.0" height="200.0" x="0.0" y="0.0"> </rect>
<path class="bond-0 atom-0 atom-1" d="M 10.8,103.9 L 52.3,91.7" style="fill:none;fill-rule:evenodd;stroke:#000000;stroke-width:2.0px;stroke-linecap:butt;stroke-linejoin:miter;stroke-opacity:1"/>
<path class="bond-1 atom-1 atom-2" d="M 52.3,91.7 L 83.6,121.6" style="fill:none;fill-rule:evenodd;stroke:#000000;stroke-width:2.0px;stroke-linecap:butt;stroke-linejoin:miter;stroke-opacity:1"/>
<path class="bond-2 atom-2 atom-3" d="M 83.6,121.6 L 125.2,109.4" style="fill:none;fill-rule:evenodd;stroke:#000000;stroke-width:2.0px;stroke-linecap:butt;stroke-linejoin:miter;stroke-opacity:1"/>
<path class="bond-3 atom-3 atom-4" d="M 125.2,109.4 L 113.1,67.9" style="fill:none;fill-rule:evenodd;stroke:#000000;stroke-width:2.0px;stroke-linecap:butt;stroke-linejoin:miter;stroke-opacity:1"/>
<path class="bond-4 atom-3 atom-5" d="M 125.2,109.4 L 137.4,151.0" style="fill:none;fill-rule:evenodd;stroke:#000000;stroke-width:2.0px;stroke-linecap:butt;stroke-linejoin:miter;stroke-opacity:1"/>
<path class="bond-5 atom-3 atom-6" d="M 125.2,109.4 L 166.8,97.3" style="fill:none;fill-rule:evenodd;stroke:#000000;stroke-width:2.0px;stroke-linecap:butt;stroke-linejoin:miter;stroke-opacity:1"/>
<path class="bond-6 atom-6 atom-7" d="M 163.2,98.3 L 176.0,110.6" style="fill:none;fill-rule:evenodd;stroke:#000000;stroke-width:2.0px;stroke-linecap:butt;stroke-linejoin:miter;stroke-opacity:1"/>
<path class="bond-6 atom-6 atom-7" d="M 176.0,110.6 L 188.8,122.8" style="fill:none;fill-rule:evenodd;stroke:#FF0000;stroke-width:2.0px;stroke-linecap:butt;stroke-linejoin:miter;stroke-opacity:1"/>
<path class="bond-6 atom-6 atom-7" d="M 167.7,93.6 L 180.5,105.9" style="fill:none;fill-rule:evenodd;stroke:#000000;stroke-width:2.0px;stroke-linecap:butt;stroke-linejoin:miter;stroke-opacity:1"/>
<path class="bond-6 atom-6 atom-7" d="M 180.5,105.9 L 193.3,118.1" style="fill:none;fill-rule:evenodd;stroke:#FF0000;stroke-width:2.0px;stroke-linecap:butt;stroke-linejoin:miter;stroke-opacity:1"/>
<path class="bond-7 atom-6 atom-8" d="M 166.8,97.3 L 171.0,80.1" style="fill:none;fill-rule:evenodd;stroke:#000000;stroke-width:2.0px;stroke-linecap:butt;stroke-linejoin:miter;stroke-opacity:1"/>
<path class="bond-7 atom-6 atom-8" d="M 171.0,80.1 L 175.1,63.0" style="fill:none;fill-rule:evenodd;stroke:#FF0000;stroke-width:2.0px;stroke-linecap:butt;stroke-linejoin:miter;stroke-opacity:1"/>
<path d="M 50.2,92.3 L 52.3,91.7 L 53.9,93.2" style="fill:none;stroke:#000000;stroke-width:2.0px;stroke-linecap:butt;stroke-linejoin:miter;stroke-opacity:1;"/>
<path d="M 82.1,120.1 L 83.6,121.6 L 85.7,121.0" style="fill:none;stroke:#000000;stroke-width:2.0px;stroke-linecap:butt;stroke-linejoin:miter;stroke-opacity:1;"/>
<path d="M 164.7,97.9 L 166.8,97.3 L 167.0,96.4" style="fill:none;stroke:#000000;stroke-width:2.0px;stroke-linecap:butt;stroke-linejoin:miter;stroke-opacity:1;"/>
<path class="atom-7" d="M 192.5 127.2 Q 192.5 124.3, 193.9 122.6 Q 195.4 121.0, 198.1 121.0 Q 200.8 121.0, 202.3 122.6 Q 203.7 124.3, 203.7 127.2 Q 203.7 130.2, 202.3 131.9 Q 200.8 133.6, 198.1 133.6 Q 195.4 133.6, 193.9 131.9 Q 192.5 130.2, 192.5 127.2 M 198.1 132.2 Q 200.0 132.2, 201.0 131.0 Q 202.0 129.7, 202.0 127.2 Q 202.0 124.8, 201.0 123.6 Q 200.0 122.4, 198.1 122.4 Q 196.2 122.4, 195.2 123.6 Q 194.2 124.8, 194.2 127.2 Q 194.2 129.7, 195.2 131.0 Q 196.2 132.2, 198.1 132.2 " fill="#FF0000"/>
<path class="atom-8" d="M 171.4 55.2 Q 171.4 52.3, 172.9 50.6 Q 174.3 49.0, 177.0 49.0 Q 179.8 49.0, 181.2 50.6 Q 182.7 52.3, 182.7 55.2 Q 182.7 58.2, 181.2 59.9 Q 179.7 61.6, 177.0 61.6 Q 174.3 61.6, 172.9 59.9 Q 171.4 58.2, 171.4 55.2 M 177.0 60.2 Q 178.9 60.2, 179.9 58.9 Q 180.9 57.7, 180.9 55.2 Q 180.9 52.8, 179.9 51.6 Q 178.9 50.4, 177.0 50.4 Q 175.2 50.4, 174.2 51.6 Q 173.1 52.8, 173.1 55.2 Q 173.1 57.7, 174.2 58.9 Q 175.2 60.2, 177.0 60.2 " fill="#FF0000"/>
<path class="atom-8" d="M 184.6 49.1 L 186.3 49.1 L 186.3 54.3 L 192.5 54.3 L 192.5 49.1 L 194.2 49.1 L 194.2 61.4 L 192.5 61.4 L 192.5 55.7 L 186.3 55.7 L 186.3 61.4 L 184.6 61.4 L 184.6 49.1 " fill="#FF0000"/>
</g>
  </g>
</svg>
