<?xml version='1.0' encoding='ASCII' standalone='yes'?>
<svg xmlns="http://www.w3.org/2000/svg" xmlns:xlink="http://www.w3.org/1999/xlink" version="1.1" width="780.0px" viewBox="0 0 780.0 200.0" height="200.0px">
  <g>
    <g transform="translate(0, 0) scale(1 1) "><!-- END OF HEADER -->
<rect style="opacity:1.0;fill:#FFFFFF;stroke:none" width="247.0" height="200.0" x="0.0" y="0.0"> </rect>
<path class="bond-0 atom-0 atom-1" d="M 213.2,53.0 L 206.8,64.0" style="fill:none;fill-rule:evenodd;stroke:#0000FF;stroke-width:2.0px;stroke-linecap:butt;stroke-linejoin:miter;stroke-opacity:1"/>
<path class="bond-0 atom-0 atom-1" d="M 206.8,64.0 L 200.5,75.0" style="fill:none;fill-rule:evenodd;stroke:#000000;stroke-width:2.0px;stroke-linecap:butt;stroke-linejoin:miter;stroke-opacity:1"/>
<path class="bond-1 atom-1 atom-2" d="M 200.5,75.0 L 206.8,86.0" style="fill:none;fill-rule:evenodd;stroke:#000000;stroke-width:2.0px;stroke-linecap:butt;stroke-linejoin:miter;stroke-opacity:1"/>
<path class="bond-1 atom-1 atom-2" d="M 206.8,86.0 L 213.2,97.0" style="fill:none;fill-rule:evenodd;stroke:#FF0000;stroke-width:2.0px;stroke-linecap:butt;stroke-linejoin:miter;stroke-opacity:1"/>
<path class="bond-2 atom-1 atom-3" d="M 200.5,75.0 L 168.6,75.0" style="fill:none;fill-rule:evenodd;stroke:#000000;stroke-width:2.0px;stroke-linecap:butt;stroke-linejoin:miter;stroke-opacity:1"/>
<path class="bond-3 atom-3 atom-4" d="M 168.6,75.0 L 152.7,102.6" style="fill:none;fill-rule:evenodd;stroke:#000000;stroke-width:2.0px;stroke-linecap:butt;stroke-linejoin:miter;stroke-opacity:1"/>
<path class="bond-3 atom-3 atom-4" d="M 171.4,79.8 L 156.9,105.0" style="fill:none;fill-rule:evenodd;stroke:#000000;stroke-width:2.0px;stroke-linecap:butt;stroke-linejoin:miter;stroke-opacity:1"/>
<path class="bond-4 atom-4 atom-5" d="M 152.7,102.6 L 120.9,102.6" style="fill:none;fill-rule:evenodd;stroke:#000000;stroke-width:2.0px;stroke-linecap:butt;stroke-linejoin:miter;stroke-opacity:1"/>
<path class="bond-5 atom-5 atom-6" d="M 120.9,102.6 L 120.9,115.7" style="fill:none;fill-rule:evenodd;stroke:#000000;stroke-width:2.0px;stroke-linecap:butt;stroke-linejoin:miter;stroke-opacity:1"/>
<path class="bond-5 atom-5 atom-6" d="M 120.9,115.7 L 120.9,128.8" style="fill:none;fill-rule:evenodd;stroke:#FF0000;stroke-width:2.0px;stroke-linecap:butt;stroke-linejoin:miter;stroke-opacity:1"/>
<path class="bond-6 atom-5 atom-7" d="M 120.9,102.6 L 120.9,89.5" style="fill:none;fill-rule:evenodd;stroke:#000000;stroke-width:2.0px;stroke-linecap:butt;stroke-linejoin:miter;stroke-opacity:1"/>
<path class="bond-6 atom-5 atom-7" d="M 120.9,89.5 L 120.9,76.5" style="fill:none;fill-rule:evenodd;stroke:#FF0000;stroke-width:2.0px;stroke-linecap:butt;stroke-linejoin:miter;stroke-opacity:1"/>
<path class="bond-7 atom-5 atom-8" d="M 120.9,102.6 L 89.1,102.6" style="fill:none;fill-rule:evenodd;stroke:#000000;stroke-width:2.0px;stroke-linecap:butt;stroke-linejoin:miter;stroke-opacity:1"/>
<path class="bond-8 atom-8 atom-9" d="M 89.1,102.6 L 73.1,75.0" style="fill:none;fill-rule:evenodd;stroke:#000000;stroke-width:2.0px;stroke-linecap:butt;stroke-linejoin:miter;stroke-opacity:1"/>
<path class="bond-8 atom-8 atom-9" d="M 91.8,97.8 L 77.3,72.6" style="fill:none;fill-rule:evenodd;stroke:#000000;stroke-width:2.0px;stroke-linecap:butt;stroke-linejoin:miter;stroke-opacity:1"/>
<path class="bond-9 atom-9 atom-10" d="M 73.1,75.0 L 41.3,75.0" style="fill:none;fill-rule:evenodd;stroke:#000000;stroke-width:2.0px;stroke-linecap:butt;stroke-linejoin:miter;stroke-opacity:1"/>
<path class="bond-10 atom-10 atom-11" d="M 39.9,72.6 L 33.2,84.2" style="fill:none;fill-rule:evenodd;stroke:#000000;stroke-width:2.0px;stroke-linecap:butt;stroke-linejoin:miter;stroke-opacity:1"/>
<path class="bond-10 atom-10 atom-11" d="M 33.2,84.2 L 26.6,95.8" style="fill:none;fill-rule:evenodd;stroke:#FF0000;stroke-width:2.0px;stroke-linecap:butt;stroke-linejoin:miter;stroke-opacity:1"/>
<path class="bond-10 atom-10 atom-11" d="M 44.1,75.0 L 37.4,86.6" style="fill:none;fill-rule:evenodd;stroke:#000000;stroke-width:2.0px;stroke-linecap:butt;stroke-linejoin:miter;stroke-opacity:1"/>
<path class="bond-10 atom-10 atom-11" d="M 37.4,86.6 L 30.7,98.2" style="fill:none;fill-rule:evenodd;stroke:#FF0000;stroke-width:2.0px;stroke-linecap:butt;stroke-linejoin:miter;stroke-opacity:1"/>
<path class="bond-11 atom-10 atom-12" d="M 41.3,75.0 L 35.0,64.1" style="fill:none;fill-rule:evenodd;stroke:#000000;stroke-width:2.0px;stroke-linecap:butt;stroke-linejoin:miter;stroke-opacity:1"/>
<path class="bond-11 atom-10 atom-12" d="M 35.0,64.1 L 28.7,53.2" style="fill:none;fill-rule:evenodd;stroke:#FF0000;stroke-width:2.0px;stroke-linecap:butt;stroke-linejoin:miter;stroke-opacity:1"/>
<path d="M 170.2,75.0 L 168.6,75.0 L 167.9,76.4" style="fill:none;stroke:#000000;stroke-width:2.0px;stroke-linecap:butt;stroke-linejoin:miter;stroke-opacity:1;"/>
<path d="M 153.5,101.2 L 152.7,102.6 L 151.1,102.6" style="fill:none;stroke:#000000;stroke-width:2.0px;stroke-linecap:butt;stroke-linejoin:miter;stroke-opacity:1;"/>
<path d="M 90.7,102.6 L 89.1,102.6 L 88.3,101.2" style="fill:none;stroke:#000000;stroke-width:2.0px;stroke-linecap:butt;stroke-linejoin:miter;stroke-opacity:1;"/>
<path d="M 73.9,76.4 L 73.1,75.0 L 71.6,75.0" style="fill:none;stroke:#000000;stroke-width:2.0px;stroke-linecap:butt;stroke-linejoin:miter;stroke-opacity:1;"/>
<path d="M 42.9,75.0 L 41.3,75.0 L 41.0,74.5" style="fill:none;stroke:#000000;stroke-width:2.0px;stroke-linecap:butt;stroke-linejoin:miter;stroke-opacity:1;"/>
<path class="atom-0" d="M 214.4 42.9 L 217.4 47.7 Q 217.7 48.2, 218.1 49.0 Q 218.6 49.9, 218.6 49.9 L 218.6 42.9 L 219.8 42.9 L 219.8 52.0 L 218.6 52.0 L 215.4 46.7 Q 215.0 46.1, 214.6 45.4 Q 214.3 44.7, 214.1 44.5 L 214.1 52.0 L 213.0 52.0 L 213.0 42.9 L 214.4 42.9 " fill="#0000FF"/>
<path class="atom-0" d="M 221.5 42.9 L 222.8 42.9 L 222.8 46.8 L 227.4 46.8 L 227.4 42.9 L 228.6 42.9 L 228.6 52.0 L 227.4 52.0 L 227.4 47.8 L 222.8 47.8 L 222.8 52.0 L 221.5 52.0 L 221.5 42.9 " fill="#0000FF"/>
<path class="atom-0" d="M 230.4 51.6 Q 230.6 51.1, 231.1 50.8 Q 231.6 50.4, 232.3 50.4 Q 233.2 50.4, 233.7 50.9 Q 234.2 51.4, 234.2 52.3 Q 234.2 53.2, 233.6 54.0 Q 232.9 54.8, 231.6 55.8 L 234.4 55.8 L 234.4 56.5 L 230.3 56.5 L 230.3 55.9 Q 231.5 55.1, 232.1 54.5 Q 232.8 53.9, 233.1 53.4 Q 233.4 52.9, 233.4 52.3 Q 233.4 51.8, 233.1 51.4 Q 232.8 51.1, 232.3 51.1 Q 231.9 51.1, 231.5 51.3 Q 231.2 51.5, 231.0 51.9 L 230.4 51.6 " fill="#0000FF"/>
<path class="atom-2" d="M 212.3 102.6 Q 212.3 100.4, 213.3 99.2 Q 214.4 98.0, 216.4 98.0 Q 218.4 98.0, 219.5 99.2 Q 220.5 100.4, 220.5 102.6 Q 220.5 104.8, 219.5 106.0 Q 218.4 107.3, 216.4 107.3 Q 214.4 107.3, 213.3 106.0 Q 212.3 104.8, 212.3 102.6 M 216.4 106.3 Q 217.8 106.3, 218.5 105.3 Q 219.3 104.4, 219.3 102.6 Q 219.3 100.8, 218.5 99.9 Q 217.8 99.0, 216.4 99.0 Q 215.0 99.0, 214.3 99.9 Q 213.5 100.8, 213.5 102.6 Q 213.5 104.4, 214.3 105.3 Q 215.0 106.3, 216.4 106.3 " fill="#FF0000"/>
<path class="atom-2" d="M 221.9 98.1 L 223.2 98.1 L 223.2 102.0 L 227.8 102.0 L 227.8 98.1 L 229.0 98.1 L 229.0 107.1 L 227.8 107.1 L 227.8 103.0 L 223.2 103.0 L 223.2 107.1 L 221.9 107.1 L 221.9 98.1 " fill="#FF0000"/>
<path class="atom-6" d="M 116.8 134.4 Q 116.8 132.3, 117.8 131.1 Q 118.9 129.9, 120.9 129.9 Q 122.9 129.9, 124.0 131.1 Q 125.0 132.3, 125.0 134.4 Q 125.0 136.6, 124.0 137.9 Q 122.9 139.1, 120.9 139.1 Q 118.9 139.1, 117.8 137.9 Q 116.8 136.6, 116.8 134.4 M 120.9 138.1 Q 122.3 138.1, 123.0 137.2 Q 123.8 136.3, 123.8 134.4 Q 123.8 132.7, 123.0 131.8 Q 122.3 130.9, 120.9 130.9 Q 119.5 130.9, 118.8 131.8 Q 118.0 132.7, 118.0 134.4 Q 118.0 136.3, 118.8 137.2 Q 119.5 138.1, 120.9 138.1 " fill="#FF0000"/>
<path class="atom-6" d="M 126.4 130.0 L 127.7 130.0 L 127.7 133.8 L 132.3 133.8 L 132.3 130.0 L 133.5 130.0 L 133.5 139.0 L 132.3 139.0 L 132.3 134.8 L 127.7 134.8 L 127.7 139.0 L 126.4 139.0 L 126.4 130.0 " fill="#FF0000"/>
<path class="atom-7" d="M 116.8 70.8 Q 116.8 68.6, 117.8 67.4 Q 118.9 66.2, 120.9 66.2 Q 122.9 66.2, 124.0 67.4 Q 125.0 68.6, 125.0 70.8 Q 125.0 73.0, 124.0 74.2 Q 122.9 75.4, 120.9 75.4 Q 118.9 75.4, 117.8 74.2 Q 116.8 73.0, 116.8 70.8 M 120.9 74.4 Q 122.3 74.4, 123.0 73.5 Q 123.8 72.6, 123.8 70.8 Q 123.8 69.0, 123.0 68.1 Q 122.3 67.2, 120.9 67.2 Q 119.5 67.2, 118.8 68.1 Q 118.0 69.0, 118.0 70.8 Q 118.0 72.6, 118.8 73.5 Q 119.5 74.4, 120.9 74.4 " fill="#FF0000"/>
<path class="atom-7" d="M 126.4 66.3 L 127.7 66.3 L 127.7 70.1 L 132.3 70.1 L 132.3 66.3 L 133.5 66.3 L 133.5 75.3 L 132.3 75.3 L 132.3 71.1 L 127.7 71.1 L 127.7 75.3 L 126.4 75.3 L 126.4 66.3 " fill="#FF0000"/>
<path class="atom-11" d="M 21.3 102.6 Q 21.3 100.4, 22.3 99.2 Q 23.4 98.0, 25.4 98.0 Q 27.4 98.0, 28.5 99.2 Q 29.5 100.4, 29.5 102.6 Q 29.5 104.8, 28.4 106.0 Q 27.4 107.3, 25.4 107.3 Q 23.4 107.3, 22.3 106.0 Q 21.3 104.8, 21.3 102.6 M 25.4 106.3 Q 26.8 106.3, 27.5 105.3 Q 28.3 104.4, 28.3 102.6 Q 28.3 100.8, 27.5 99.9 Q 26.8 99.0, 25.4 99.0 Q 24.0 99.0, 23.3 99.9 Q 22.5 100.8, 22.5 102.6 Q 22.5 104.4, 23.3 105.3 Q 24.0 106.3, 25.4 106.3 " fill="#FF0000"/>
<path class="atom-12" d="M 12.3 43.0 L 13.6 43.0 L 13.6 46.8 L 18.2 46.8 L 18.2 43.0 L 19.4 43.0 L 19.4 52.0 L 18.2 52.0 L 18.2 47.8 L 13.6 47.8 L 13.6 52.0 L 12.3 52.0 L 12.3 43.0 " fill="#FF0000"/>
<path class="atom-12" d="M 21.3 47.5 Q 21.3 45.3, 22.3 44.1 Q 23.4 42.9, 25.4 42.9 Q 27.4 42.9, 28.5 44.1 Q 29.5 45.3, 29.5 47.5 Q 29.5 49.7, 28.4 50.9 Q 27.4 52.1, 25.4 52.1 Q 23.4 52.1, 22.3 50.9 Q 21.3 49.7, 21.3 47.5 M 25.4 51.1 Q 26.8 51.1, 27.5 50.2 Q 28.3 49.3, 28.3 47.5 Q 28.3 45.7, 27.5 44.8 Q 26.8 43.9, 25.4 43.9 Q 24.0 43.9, 23.3 44.8 Q 22.5 45.7, 22.5 47.5 Q 22.5 49.3, 23.3 50.2 Q 24.0 51.1, 25.4 51.1 " fill="#FF0000"/>
<path class="legend" d="M 114.8 181.9 Q 114.8 179.6, 115.5 177.7 Q 116.2 175.8, 117.5 173.8 L 118.4 174.4 Q 117.3 176.3, 116.8 178.0 Q 116.3 179.7, 116.3 181.9 Q 116.3 184.0, 116.8 185.8 Q 117.3 187.5, 118.4 189.4 L 117.5 190.0 Q 116.2 188.0, 115.5 186.1 Q 114.8 184.2, 114.8 181.9 " fill="#000000"/>
<path class="legend" d="M 119.3 177.3 Q 119.7 176.2, 120.7 175.6 Q 121.7 175.0, 123.1 175.0 Q 124.8 175.0, 125.7 175.9 Q 126.7 176.8, 126.7 178.5 Q 126.7 180.2, 125.4 181.7 Q 124.2 183.3, 121.7 185.2 L 126.9 185.2 L 126.9 186.4 L 119.3 186.4 L 119.3 185.4 Q 121.4 183.9, 122.6 182.8 Q 123.9 181.6, 124.5 180.6 Q 125.1 179.6, 125.1 178.6 Q 125.1 177.5, 124.5 176.9 Q 124.0 176.3, 123.1 176.3 Q 122.1 176.3, 121.5 176.6 Q 120.9 177.0, 120.5 177.8 L 119.3 177.3 " fill="#000000"/>
<path class="legend" d="M 131.9 181.9 Q 131.9 184.2, 131.2 186.1 Q 130.5 188.0, 129.2 190.0 L 128.3 189.4 Q 129.4 187.5, 129.9 185.8 Q 130.4 184.0, 130.4 181.9 Q 130.4 179.7, 129.9 178.0 Q 129.4 176.3, 128.3 174.4 L 129.2 173.8 Q 130.5 175.8, 131.2 177.7 Q 131.9 179.6, 131.9 181.9 " fill="#000000"/>
</g>
    <g transform="translate(247.0, 0) scale(1 1) "><line x1="5" y1="100" x2="35" y2="100" style="stroke:rgb(0,0,0);stroke-width:2"/>
  <line x1="34" y1="100" x2="29" y2="95" style="stroke:rgb(0,0,0);stroke-width:2"/>
  <line x1="34" y1="100" x2="29" y2="105" style="stroke:rgb(0,0,0);stroke-width:2"/>
</g>
    <g transform="translate(287.0, 0) scale(1 1) "><!-- END OF HEADER -->
<rect style="opacity:1.0;fill:#FFFFFF;stroke:none" width="289.0" height="200.0" x="0.0" y="0.0"> </rect>
<path class="bond-0 atom-0 atom-1" d="M 256.3,87.0 L 250.4,95.7" style="fill:none;fill-rule:evenodd;stroke:#0000FF;stroke-width:2.0px;stroke-linecap:butt;stroke-linejoin:miter;stroke-opacity:1"/>
<path class="bond-0 atom-0 atom-1" d="M 250.4,95.7 L 244.5,104.4" style="fill:none;fill-rule:evenodd;stroke:#000000;stroke-width:2.0px;stroke-linecap:butt;stroke-linejoin:miter;stroke-opacity:1"/>
<path class="bond-1 atom-1 atom-2" d="M 244.5,104.4 L 249.2,114.0" style="fill:none;fill-rule:evenodd;stroke:#000000;stroke-width:2.0px;stroke-linecap:butt;stroke-linejoin:miter;stroke-opacity:1"/>
<path class="bond-1 atom-1 atom-2" d="M 249.2,114.0 L 253.8,123.7" style="fill:none;fill-rule:evenodd;stroke:#FF0000;stroke-width:2.0px;stroke-linecap:butt;stroke-linejoin:miter;stroke-opacity:1"/>
<path class="bond-2 atom-1 atom-3" d="M 244.5,104.4 L 218.0,102.5" style="fill:none;fill-rule:evenodd;stroke:#000000;stroke-width:2.0px;stroke-linecap:butt;stroke-linejoin:miter;stroke-opacity:1"/>
<path class="bond-3 atom-3 atom-4" d="M 218.0,102.5 L 203.1,124.5" style="fill:none;fill-rule:evenodd;stroke:#000000;stroke-width:2.0px;stroke-linecap:butt;stroke-linejoin:miter;stroke-opacity:1"/>
<path class="bond-3 atom-3 atom-4" d="M 220.0,106.6 L 206.4,126.7" style="fill:none;fill-rule:evenodd;stroke:#000000;stroke-width:2.0px;stroke-linecap:butt;stroke-linejoin:miter;stroke-opacity:1"/>
<path class="bond-4 atom-4 atom-5" d="M 203.1,124.5 L 176.5,122.6" style="fill:none;fill-rule:evenodd;stroke:#000000;stroke-width:2.0px;stroke-linecap:butt;stroke-linejoin:miter;stroke-opacity:1"/>
<path class="bond-5 atom-5 atom-6" d="M 176.5,122.6 L 175.8,133.5" style="fill:none;fill-rule:evenodd;stroke:#000000;stroke-width:2.0px;stroke-linecap:butt;stroke-linejoin:miter;stroke-opacity:1"/>
<path class="bond-5 atom-5 atom-6" d="M 175.8,133.5 L 175.0,144.4" style="fill:none;fill-rule:evenodd;stroke:#FF0000;stroke-width:2.0px;stroke-linecap:butt;stroke-linejoin:miter;stroke-opacity:1"/>
<path class="bond-6 atom-5 atom-7" d="M 176.5,122.6 L 177.3,111.7" style="fill:none;fill-rule:evenodd;stroke:#000000;stroke-width:2.0px;stroke-linecap:butt;stroke-linejoin:miter;stroke-opacity:1"/>
<path class="bond-6 atom-5 atom-7" d="M 177.3,111.7 L 178.1,100.9" style="fill:none;fill-rule:evenodd;stroke:#FF0000;stroke-width:2.0px;stroke-linecap:butt;stroke-linejoin:miter;stroke-opacity:1"/>
<path class="bond-7 atom-5 atom-8" d="M 176.5,122.6 L 150.0,120.7" style="fill:none;fill-rule:evenodd;stroke:#000000;stroke-width:2.0px;stroke-linecap:butt;stroke-linejoin:miter;stroke-opacity:1"/>
<path class="bond-8 atom-8 atom-9" d="M 150.0,120.7 L 138.4,96.7" style="fill:none;fill-rule:evenodd;stroke:#000000;stroke-width:2.0px;stroke-linecap:butt;stroke-linejoin:miter;stroke-opacity:1"/>
<path class="bond-8 atom-8 atom-9" d="M 152.6,116.8 L 143.0,97.1" style="fill:none;fill-rule:evenodd;stroke:#000000;stroke-width:2.0px;stroke-linecap:butt;stroke-linejoin:miter;stroke-opacity:1"/>
<path class="bond-9 atom-9 atom-10" d="M 138.4,96.7 L 153.3,74.7" style="fill:none;fill-rule:evenodd;stroke:#000000;stroke-width:2.0px;stroke-linecap:butt;stroke-linejoin:miter;stroke-opacity:1"/>
<path class="bond-10 atom-10 atom-11" d="M 152.1,76.6 L 163.7,77.5" style="fill:none;fill-rule:evenodd;stroke:#000000;stroke-width:2.0px;stroke-linecap:butt;stroke-linejoin:miter;stroke-opacity:1"/>
<path class="bond-10 atom-10 atom-11" d="M 163.7,77.5 L 175.4,78.3" style="fill:none;fill-rule:evenodd;stroke:#FF0000;stroke-width:2.0px;stroke-linecap:butt;stroke-linejoin:miter;stroke-opacity:1"/>
<path class="bond-10 atom-10 atom-11" d="M 152.3,72.6 L 164.0,73.5" style="fill:none;fill-rule:evenodd;stroke:#000000;stroke-width:2.0px;stroke-linecap:butt;stroke-linejoin:miter;stroke-opacity:1"/>
<path class="bond-10 atom-10 atom-11" d="M 164.0,73.5 L 175.7,74.3" style="fill:none;fill-rule:evenodd;stroke:#FF0000;stroke-width:2.0px;stroke-linecap:butt;stroke-linejoin:miter;stroke-opacity:1"/>
<path class="bond-11 atom-10 atom-12" d="M 153.3,74.7 L 148.7,65.1" style="fill:none;fill-rule:evenodd;stroke:#000000;stroke-width:2.0px;stroke-linecap:butt;stroke-linejoin:miter;stroke-opacity:1"/>
<path class="bond-11 atom-10 atom-12" d="M 148.7,65.1 L 144.1,55.6" style="fill:none;fill-rule:evenodd;stroke:#FF0000;stroke-width:2.0px;stroke-linecap:butt;stroke-linejoin:miter;stroke-opacity:1"/>
<path class="bond-12 atom-9 atom-13" d="M 138.4,96.7 L 111.9,94.8" style="fill:none;fill-rule:evenodd;stroke:#000000;stroke-width:2.0px;stroke-linecap:butt;stroke-linejoin:miter;stroke-opacity:1"/>
<path class="bond-13 atom-13 atom-14" d="M 111.9,94.8 L 111.1,105.7" style="fill:none;fill-rule:evenodd;stroke:#000000;stroke-width:2.0px;stroke-linecap:butt;stroke-linejoin:miter;stroke-opacity:1"/>
<path class="bond-13 atom-13 atom-14" d="M 111.1,105.7 L 110.3,116.6" style="fill:none;fill-rule:evenodd;stroke:#FF0000;stroke-width:2.0px;stroke-linecap:butt;stroke-linejoin:miter;stroke-opacity:1"/>
<path class="bond-14 atom-13 atom-15" d="M 111.9,94.8 L 112.7,83.9" style="fill:none;fill-rule:evenodd;stroke:#000000;stroke-width:2.0px;stroke-linecap:butt;stroke-linejoin:miter;stroke-opacity:1"/>
<path class="bond-14 atom-13 atom-15" d="M 112.7,83.9 L 113.5,73.1" style="fill:none;fill-rule:evenodd;stroke:#FF0000;stroke-width:2.0px;stroke-linecap:butt;stroke-linejoin:miter;stroke-opacity:1"/>
<path class="bond-15 atom-13 atom-16" d="M 111.9,94.8 L 85.4,92.9" style="fill:none;fill-rule:evenodd;stroke:#000000;stroke-width:2.0px;stroke-linecap:butt;stroke-linejoin:miter;stroke-opacity:1"/>
<path class="bond-16 atom-16 atom-17" d="M 85.4,92.9 L 70.4,114.9" style="fill:none;fill-rule:evenodd;stroke:#000000;stroke-width:2.0px;stroke-linecap:butt;stroke-linejoin:miter;stroke-opacity:1"/>
<path class="bond-16 atom-16 atom-17" d="M 87.4,97.0 L 73.7,117.1" style="fill:none;fill-rule:evenodd;stroke:#000000;stroke-width:2.0px;stroke-linecap:butt;stroke-linejoin:miter;stroke-opacity:1"/>
<path class="bond-17 atom-17 atom-18" d="M 70.4,114.9 L 43.9,113.0" style="fill:none;fill-rule:evenodd;stroke:#000000;stroke-width:2.0px;stroke-linecap:butt;stroke-linejoin:miter;stroke-opacity:1"/>
<path class="bond-18 atom-18 atom-19" d="M 43.9,113.0 L 38.0,121.6" style="fill:none;fill-rule:evenodd;stroke:#000000;stroke-width:2.0px;stroke-linecap:butt;stroke-linejoin:miter;stroke-opacity:1"/>
<path class="bond-18 atom-18 atom-19" d="M 38.0,121.6 L 32.1,130.3" style="fill:none;fill-rule:evenodd;stroke:#0000FF;stroke-width:2.0px;stroke-linecap:butt;stroke-linejoin:miter;stroke-opacity:1"/>
<path class="bond-19 atom-18 atom-20" d="M 43.9,113.0 L 39.3,103.4" style="fill:none;fill-rule:evenodd;stroke:#000000;stroke-width:2.0px;stroke-linecap:butt;stroke-linejoin:miter;stroke-opacity:1"/>
<path class="bond-19 atom-18 atom-20" d="M 39.3,103.4 L 34.6,93.8" style="fill:none;fill-rule:evenodd;stroke:#FF0000;stroke-width:2.0px;stroke-linecap:butt;stroke-linejoin:miter;stroke-opacity:1"/>
<path d="M 219.3,102.6 L 218.0,102.5 L 217.3,103.6" style="fill:none;stroke:#000000;stroke-width:2.0px;stroke-linecap:butt;stroke-linejoin:miter;stroke-opacity:1;"/>
<path d="M 203.8,123.4 L 203.1,124.5 L 201.7,124.4" style="fill:none;stroke:#000000;stroke-width:2.0px;stroke-linecap:butt;stroke-linejoin:miter;stroke-opacity:1;"/>
<path d="M 151.3,120.8 L 150.0,120.7 L 149.4,119.5" style="fill:none;stroke:#000000;stroke-width:2.0px;stroke-linecap:butt;stroke-linejoin:miter;stroke-opacity:1;"/>
<path d="M 152.6,75.8 L 153.3,74.7 L 153.1,74.2" style="fill:none;stroke:#000000;stroke-width:2.0px;stroke-linecap:butt;stroke-linejoin:miter;stroke-opacity:1;"/>
<path d="M 86.7,93.0 L 85.4,92.9 L 84.6,94.0" style="fill:none;stroke:#000000;stroke-width:2.0px;stroke-linecap:butt;stroke-linejoin:miter;stroke-opacity:1;"/>
<path d="M 71.2,113.8 L 70.4,114.9 L 69.1,114.8" style="fill:none;stroke:#000000;stroke-width:2.0px;stroke-linecap:butt;stroke-linejoin:miter;stroke-opacity:1;"/>
<path class="atom-0" d="M 257.8 78.6 L 260.3 82.6 Q 260.5 83.0, 260.9 83.7 Q 261.3 84.4, 261.3 84.5 L 261.3 78.6 L 262.3 78.6 L 262.3 86.2 L 261.3 86.2 L 258.6 81.8 Q 258.3 81.3, 258.0 80.7 Q 257.7 80.1, 257.6 79.9 L 257.6 86.2 L 256.6 86.2 L 256.6 78.6 L 257.8 78.6 " fill="#0000FF"/>
<path class="atom-0" d="M 263.7 78.6 L 264.8 78.6 L 264.8 81.8 L 268.6 81.8 L 268.6 78.6 L 269.6 78.6 L 269.6 86.2 L 268.6 86.2 L 268.6 82.7 L 264.8 82.7 L 264.8 86.2 L 263.7 86.2 L 263.7 78.6 " fill="#0000FF"/>
<path class="atom-0" d="M 271.1 85.9 Q 271.3 85.4, 271.7 85.2 Q 272.2 84.9, 272.8 84.9 Q 273.5 84.9, 273.9 85.3 Q 274.4 85.7, 274.4 86.4 Q 274.4 87.2, 273.8 87.9 Q 273.3 88.6, 272.2 89.4 L 274.4 89.4 L 274.4 89.9 L 271.1 89.9 L 271.1 89.5 Q 272.0 88.8, 272.6 88.3 Q 273.1 87.8, 273.4 87.4 Q 273.7 86.9, 273.7 86.5 Q 273.7 86.0, 273.4 85.7 Q 273.2 85.5, 272.8 85.5 Q 272.4 85.5, 272.1 85.6 Q 271.8 85.8, 271.6 86.2 L 271.1 85.9 " fill="#0000FF"/>
<path class="atom-2" d="M 252.7 128.4 Q 252.7 126.6, 253.6 125.6 Q 254.5 124.5, 256.1 124.5 Q 257.8 124.5, 258.7 125.6 Q 259.6 126.6, 259.6 128.4 Q 259.6 130.2, 258.7 131.2 Q 257.8 132.3, 256.1 132.3 Q 254.5 132.3, 253.6 131.2 Q 252.7 130.2, 252.7 128.4 M 256.1 131.4 Q 257.3 131.4, 257.9 130.7 Q 258.5 129.9, 258.5 128.4 Q 258.5 126.9, 257.9 126.1 Q 257.3 125.4, 256.1 125.4 Q 255.0 125.4, 254.3 126.1 Q 253.7 126.9, 253.7 128.4 Q 253.7 129.9, 254.3 130.7 Q 255.0 131.4, 256.1 131.4 " fill="#FF0000"/>
<path class="atom-2" d="M 260.8 124.6 L 261.8 124.6 L 261.8 127.8 L 265.6 127.8 L 265.6 124.6 L 266.6 124.6 L 266.6 132.2 L 265.6 132.2 L 265.6 128.7 L 261.8 128.7 L 261.8 132.2 L 260.8 132.2 L 260.8 124.6 " fill="#FF0000"/>
<path class="atom-6" d="M 171.2 149.1 Q 171.2 147.3, 172.1 146.3 Q 173.0 145.3, 174.6 145.3 Q 176.3 145.3, 177.2 146.3 Q 178.1 147.3, 178.1 149.1 Q 178.1 151.0, 177.2 152.0 Q 176.3 153.0, 174.6 153.0 Q 173.0 153.0, 172.1 152.0 Q 171.2 151.0, 171.2 149.1 M 174.6 152.2 Q 175.8 152.2, 176.4 151.4 Q 177.0 150.6, 177.0 149.1 Q 177.0 147.6, 176.4 146.9 Q 175.8 146.1, 174.6 146.1 Q 173.5 146.1, 172.8 146.9 Q 172.2 147.6, 172.2 149.1 Q 172.2 150.6, 172.8 151.4 Q 173.5 152.2, 174.6 152.2 " fill="#FF0000"/>
<path class="atom-6" d="M 179.2 145.4 L 180.3 145.4 L 180.3 148.6 L 184.1 148.6 L 184.1 145.4 L 185.1 145.4 L 185.1 152.9 L 184.1 152.9 L 184.1 149.4 L 180.3 149.4 L 180.3 152.9 L 179.2 152.9 L 179.2 145.4 " fill="#FF0000"/>
<path class="atom-7" d="M 175.0 96.1 Q 175.0 94.3, 175.9 93.3 Q 176.8 92.2, 178.5 92.2 Q 180.1 92.2, 181.0 93.3 Q 181.9 94.3, 181.9 96.1 Q 181.9 97.9, 181.0 98.9 Q 180.1 100.0, 178.5 100.0 Q 176.8 100.0, 175.9 98.9 Q 175.0 97.9, 175.0 96.1 M 178.5 99.1 Q 179.6 99.1, 180.2 98.4 Q 180.9 97.6, 180.9 96.1 Q 180.9 94.6, 180.2 93.9 Q 179.6 93.1, 178.5 93.1 Q 177.3 93.1, 176.7 93.8 Q 176.1 94.6, 176.1 96.1 Q 176.1 97.6, 176.7 98.4 Q 177.3 99.1, 178.5 99.1 " fill="#FF0000"/>
<path class="atom-7" d="M 183.1 92.3 L 184.1 92.3 L 184.1 95.5 L 188.0 95.5 L 188.0 92.3 L 189.0 92.3 L 189.0 99.9 L 188.0 99.9 L 188.0 96.4 L 184.1 96.4 L 184.1 99.9 L 183.1 99.9 L 183.1 92.3 " fill="#FF0000"/>
<path class="atom-11" d="M 176.4 76.7 Q 176.4 74.8, 177.3 73.8 Q 178.2 72.8, 179.9 72.8 Q 181.5 72.8, 182.4 73.8 Q 183.3 74.8, 183.3 76.7 Q 183.3 78.5, 182.4 79.5 Q 181.5 80.6, 179.9 80.6 Q 178.2 80.6, 177.3 79.5 Q 176.4 78.5, 176.4 76.7 M 179.9 79.7 Q 181.0 79.7, 181.6 78.9 Q 182.3 78.2, 182.3 76.7 Q 182.3 75.2, 181.6 74.4 Q 181.0 73.7, 179.9 73.7 Q 178.7 73.7, 178.1 74.4 Q 177.5 75.2, 177.5 76.7 Q 177.5 78.2, 178.1 78.9 Q 178.7 79.7, 179.9 79.7 " fill="#FF0000"/>
<path class="atom-12" d="M 130.9 47.1 L 131.9 47.1 L 131.9 50.3 L 135.7 50.3 L 135.7 47.1 L 136.7 47.1 L 136.7 54.6 L 135.7 54.6 L 135.7 51.1 L 131.9 51.1 L 131.9 54.6 L 130.9 54.6 L 130.9 47.1 " fill="#FF0000"/>
<path class="atom-12" d="M 138.3 50.8 Q 138.3 49.0, 139.2 48.0 Q 140.1 47.0, 141.8 47.0 Q 143.4 47.0, 144.3 48.0 Q 145.2 49.0, 145.2 50.8 Q 145.2 52.6, 144.3 53.7 Q 143.4 54.7, 141.8 54.7 Q 140.1 54.7, 139.2 53.7 Q 138.3 52.6, 138.3 50.8 M 141.8 53.9 Q 142.9 53.9, 143.5 53.1 Q 144.1 52.3, 144.1 50.8 Q 144.1 49.3, 143.5 48.6 Q 142.9 47.8, 141.8 47.8 Q 140.6 47.8, 140.0 48.6 Q 139.4 49.3, 139.4 50.8 Q 139.4 52.3, 140.0 53.1 Q 140.6 53.9, 141.8 53.9 " fill="#FF0000"/>
<path class="atom-14" d="M 106.5 121.3 Q 106.5 119.5, 107.4 118.5 Q 108.3 117.5, 110.0 117.5 Q 111.6 117.5, 112.5 118.5 Q 113.4 119.5, 113.4 121.3 Q 113.4 123.2, 112.5 124.2 Q 111.6 125.3, 110.0 125.3 Q 108.3 125.3, 107.4 124.2 Q 106.5 123.2, 106.5 121.3 M 110.0 124.4 Q 111.1 124.4, 111.7 123.6 Q 112.4 122.9, 112.4 121.3 Q 112.4 119.9, 111.7 119.1 Q 111.1 118.4, 110.0 118.4 Q 108.8 118.4, 108.2 119.1 Q 107.6 119.9, 107.6 121.3 Q 107.6 122.9, 108.2 123.6 Q 108.8 124.4, 110.0 124.4 " fill="#FF0000"/>
<path class="atom-14" d="M 114.6 117.6 L 115.6 117.6 L 115.6 120.8 L 119.5 120.8 L 119.5 117.6 L 120.5 117.6 L 120.5 125.1 L 119.5 125.1 L 119.5 121.7 L 115.6 121.7 L 115.6 125.1 L 114.6 125.1 L 114.6 117.6 " fill="#FF0000"/>
<path class="atom-15" d="M 110.4 68.3 Q 110.4 66.5, 111.3 65.5 Q 112.1 64.5, 113.8 64.5 Q 115.5 64.5, 116.4 65.5 Q 117.3 66.5, 117.3 68.3 Q 117.3 70.1, 116.4 71.2 Q 115.5 72.2, 113.8 72.2 Q 112.2 72.2, 111.3 71.2 Q 110.4 70.1, 110.4 68.3 M 113.8 71.3 Q 115.0 71.3, 115.6 70.6 Q 116.2 69.8, 116.2 68.3 Q 116.2 66.8, 115.6 66.1 Q 115.0 65.3, 113.8 65.3 Q 112.7 65.3, 112.0 66.1 Q 111.4 66.8, 111.4 68.3 Q 111.4 69.8, 112.0 70.6 Q 112.7 71.3, 113.8 71.3 " fill="#FF0000"/>
<path class="atom-15" d="M 118.4 64.5 L 119.5 64.5 L 119.5 67.8 L 123.3 67.8 L 123.3 64.5 L 124.3 64.5 L 124.3 72.1 L 123.3 72.1 L 123.3 68.6 L 119.5 68.6 L 119.5 72.1 L 118.4 72.1 L 118.4 64.5 " fill="#FF0000"/>
<path class="atom-19" d="M 14.4 131.2 L 15.5 131.2 L 15.5 134.4 L 19.3 134.4 L 19.3 131.2 L 20.3 131.2 L 20.3 138.7 L 19.3 138.7 L 19.3 135.3 L 15.5 135.3 L 15.5 138.7 L 14.4 138.7 L 14.4 131.2 " fill="#0000FF"/>
<path class="atom-19" d="M 21.8 138.5 Q 22.0 138.0, 22.4 137.7 Q 22.9 137.5, 23.5 137.5 Q 24.2 137.5, 24.6 137.9 Q 25.1 138.3, 25.1 139.0 Q 25.1 139.8, 24.5 140.4 Q 24.0 141.1, 22.9 141.9 L 25.2 141.9 L 25.2 142.5 L 21.8 142.5 L 21.8 142.0 Q 22.7 141.4, 23.3 140.9 Q 23.8 140.4, 24.1 139.9 Q 24.4 139.5, 24.4 139.1 Q 24.4 138.6, 24.1 138.3 Q 23.9 138.0, 23.5 138.0 Q 23.1 138.0, 22.8 138.2 Q 22.5 138.4, 22.4 138.7 L 21.8 138.5 " fill="#0000FF"/>
<path class="atom-19" d="M 27.3 131.2 L 29.8 135.2 Q 30.0 135.6, 30.4 136.3 Q 30.8 137.0, 30.8 137.1 L 30.8 131.2 L 31.8 131.2 L 31.8 138.7 L 30.8 138.7 L 28.2 134.4 Q 27.9 133.9, 27.5 133.3 Q 27.2 132.7, 27.1 132.5 L 27.1 138.7 L 26.1 138.7 L 26.1 131.2 L 27.3 131.2 " fill="#0000FF"/>
<path class="atom-20" d="M 21.4 85.3 L 22.4 85.3 L 22.4 88.5 L 26.3 88.5 L 26.3 85.3 L 27.3 85.3 L 27.3 92.8 L 26.3 92.8 L 26.3 89.4 L 22.4 89.4 L 22.4 92.8 L 21.4 92.8 L 21.4 85.3 " fill="#FF0000"/>
<path class="atom-20" d="M 28.9 89.1 Q 28.9 87.2, 29.8 86.2 Q 30.6 85.2, 32.3 85.2 Q 34.0 85.2, 34.9 86.2 Q 35.8 87.2, 35.8 89.1 Q 35.8 90.9, 34.9 91.9 Q 34.0 93.0, 32.3 93.0 Q 30.7 93.0, 29.8 91.9 Q 28.9 90.9, 28.9 89.1 M 32.3 92.1 Q 33.5 92.1, 34.1 91.3 Q 34.7 90.6, 34.7 89.1 Q 34.7 87.6, 34.1 86.8 Q 33.5 86.1, 32.3 86.1 Q 31.2 86.1, 30.5 86.8 Q 29.9 87.6, 29.9 89.1 Q 29.9 90.6, 30.5 91.3 Q 31.2 92.1, 32.3 92.1 " fill="#FF0000"/>
</g>
    <g transform="translate(576.0, 0) scale(1 1) "><line x1="15" y1="100" x2="25" y2="100" style="stroke:rgb(0,0,0);stroke-width:2"/>
  <line x1="20" y1="95" x2="20" y2="105" style="stroke:rgb(0,0,0);stroke-width:2"/>
</g>
    <g transform="translate(616.0, 0) scale(1 1) "><!-- END OF HEADER -->
<rect style="opacity:1.0;fill:#FFFFFF;stroke:none" width="164.0" height="200.0" x="0.0" y="0.0"> </rect>
<path class="bond-0 atom-0 atom-1" d="M 8.2,87.6 L 50.7,63.1" style="fill:none;fill-rule:evenodd;stroke:#000000;stroke-width:2.0px;stroke-linecap:butt;stroke-linejoin:miter;stroke-opacity:1"/>
<path class="bond-0 atom-0 atom-1" d="M 11.9,94.0 L 50.7,71.6" style="fill:none;fill-rule:evenodd;stroke:#000000;stroke-width:2.0px;stroke-linecap:butt;stroke-linejoin:miter;stroke-opacity:1"/>
<path class="bond-1 atom-1 atom-2" d="M 50.7,63.1 L 93.2,87.6" style="fill:none;fill-rule:evenodd;stroke:#000000;stroke-width:2.0px;stroke-linecap:butt;stroke-linejoin:miter;stroke-opacity:1"/>
<path class="bond-2 atom-2 atom-3" d="M 89.6,85.5 L 89.6,106.8" style="fill:none;fill-rule:evenodd;stroke:#000000;stroke-width:2.0px;stroke-linecap:butt;stroke-linejoin:miter;stroke-opacity:1"/>
<path class="bond-2 atom-2 atom-3" d="M 89.6,106.8 L 89.6,128.1" style="fill:none;fill-rule:evenodd;stroke:#FF0000;stroke-width:2.0px;stroke-linecap:butt;stroke-linejoin:miter;stroke-opacity:1"/>
<path class="bond-2 atom-2 atom-3" d="M 96.9,85.5 L 96.9,106.8" style="fill:none;fill-rule:evenodd;stroke:#000000;stroke-width:2.0px;stroke-linecap:butt;stroke-linejoin:miter;stroke-opacity:1"/>
<path class="bond-2 atom-2 atom-3" d="M 96.9,106.8 L 96.9,128.1" style="fill:none;fill-rule:evenodd;stroke:#FF0000;stroke-width:2.0px;stroke-linecap:butt;stroke-linejoin:miter;stroke-opacity:1"/>
<path class="bond-3 atom-2 atom-4" d="M 93.2,87.6 L 110.5,77.7" style="fill:none;fill-rule:evenodd;stroke:#000000;stroke-width:2.0px;stroke-linecap:butt;stroke-linejoin:miter;stroke-opacity:1"/>
<path class="bond-3 atom-2 atom-4" d="M 110.5,77.7 L 127.8,67.7" style="fill:none;fill-rule:evenodd;stroke:#FF0000;stroke-width:2.0px;stroke-linecap:butt;stroke-linejoin:miter;stroke-opacity:1"/>
<path d="M 48.6,64.3 L 50.7,63.1 L 52.8,64.3" style="fill:none;stroke:#000000;stroke-width:2.0px;stroke-linecap:butt;stroke-linejoin:miter;stroke-opacity:1;"/>
<path d="M 91.1,86.4 L 93.2,87.6 L 94.1,87.1" style="fill:none;stroke:#000000;stroke-width:2.0px;stroke-linecap:butt;stroke-linejoin:miter;stroke-opacity:1;"/>
<path class="atom-3" d="M 86.9 136.8 Q 86.9 133.4, 88.5 131.6 Q 90.2 129.7, 93.2 129.7 Q 96.3 129.7, 98.0 131.6 Q 99.6 133.4, 99.6 136.8 Q 99.6 140.1, 98.0 142.1 Q 96.3 144.0, 93.2 144.0 Q 90.2 144.0, 88.5 142.1 Q 86.9 140.2, 86.9 136.8 M 93.2 142.4 Q 95.4 142.4, 96.5 141.0 Q 97.7 139.5, 97.7 136.8 Q 97.7 134.0, 96.5 132.7 Q 95.4 131.3, 93.2 131.3 Q 91.1 131.3, 90.0 132.6 Q 88.8 134.0, 88.8 136.8 Q 88.8 139.6, 90.0 141.0 Q 91.1 142.4, 93.2 142.4 " fill="#FF0000"/>
<path class="atom-4" d="M 129.4 63.1 Q 129.4 59.8, 131.0 57.9 Q 132.7 56.0, 135.8 56.0 Q 138.9 56.0, 140.5 57.9 Q 142.2 59.8, 142.2 63.1 Q 142.2 66.5, 140.5 68.4 Q 138.8 70.3, 135.8 70.3 Q 132.7 70.3, 131.0 68.4 Q 129.4 66.5, 129.4 63.1 M 135.8 68.7 Q 137.9 68.7, 139.0 67.3 Q 140.2 65.9, 140.2 63.1 Q 140.2 60.4, 139.0 59.0 Q 137.9 57.6, 135.8 57.6 Q 133.7 57.6, 132.5 59.0 Q 131.4 60.4, 131.4 63.1 Q 131.4 65.9, 132.5 67.3 Q 133.7 68.7, 135.8 68.7 " fill="#FF0000"/>
<path class="atom-4" d="M 144.3 56.2 L 146.2 56.2 L 146.2 62.1 L 153.3 62.1 L 153.3 56.2 L 155.2 56.2 L 155.2 70.1 L 153.3 70.1 L 153.3 63.7 L 146.2 63.7 L 146.2 70.1 L 144.3 70.1 L 144.3 56.2 " fill="#FF0000"/>
</g>
  </g>
</svg>
