<?xml version='1.0' encoding='ASCII' standalone='yes'?>
<svg xmlns="http://www.w3.org/2000/svg" xmlns:xlink="http://www.w3.org/1999/xlink" version="1.1" width="795.0px" viewBox="0 0 795.0 200.0" height="200.0px">
  <g>
    <g transform="translate(0, 0) scale(1 1) "><!-- END OF HEADER -->
<rect style="opacity:1.0;fill:#FFFFFF;stroke:none" width="240.0" height="200.0" x="0.0" y="0.0"> </rect>
<path class="bond-0 atom-0 atom-1" d="M 224.6,29.4 L 194.0,66.0" style="fill:none;fill-rule:evenodd;stroke:#000000;stroke-width:2.0px;stroke-linecap:butt;stroke-linejoin:miter;stroke-opacity:1"/>
<path class="bond-1 atom-1 atom-2" d="M 189.8,65.2 L 196.2,77.7" style="fill:none;fill-rule:evenodd;stroke:#000000;stroke-width:2.0px;stroke-linecap:butt;stroke-linejoin:miter;stroke-opacity:1"/>
<path class="bond-1 atom-1 atom-2" d="M 196.2,77.7 L 202.5,90.2" style="fill:none;fill-rule:evenodd;stroke:#FF0000;stroke-width:2.0px;stroke-linecap:butt;stroke-linejoin:miter;stroke-opacity:1"/>
<path class="bond-1 atom-1 atom-2" d="M 196.3,63.1 L 202.2,74.6" style="fill:none;fill-rule:evenodd;stroke:#000000;stroke-width:2.0px;stroke-linecap:butt;stroke-linejoin:miter;stroke-opacity:1"/>
<path class="bond-1 atom-1 atom-2" d="M 202.2,74.6 L 208.6,87.1" style="fill:none;fill-rule:evenodd;stroke:#FF0000;stroke-width:2.0px;stroke-linecap:butt;stroke-linejoin:miter;stroke-opacity:1"/>
<path class="bond-2 atom-1 atom-3" d="M 194.0,66.0 L 147.0,57.8" style="fill:none;fill-rule:evenodd;stroke:#000000;stroke-width:2.0px;stroke-linecap:butt;stroke-linejoin:miter;stroke-opacity:1"/>
<path class="bond-3 atom-3 atom-4" d="M 147.0,57.8 L 116.4,94.4" style="fill:none;fill-rule:evenodd;stroke:#000000;stroke-width:2.0px;stroke-linecap:butt;stroke-linejoin:miter;stroke-opacity:1"/>
<path class="bond-4 atom-4 atom-5" d="M 116.4,94.4 L 85.8,131.0" style="fill:none;fill-rule:evenodd;stroke:#000000;stroke-width:2.0px;stroke-linecap:butt;stroke-linejoin:miter;stroke-opacity:1"/>
<path class="bond-5 atom-4 atom-6" d="M 116.4,94.4 L 79.8,63.8" style="fill:none;fill-rule:evenodd;stroke:#000000;stroke-width:2.0px;stroke-linecap:butt;stroke-linejoin:miter;stroke-opacity:1"/>
<path class="bond-6 atom-6 atom-7" d="M 82.8,66.4 L 86.3,46.2" style="fill:none;fill-rule:evenodd;stroke:#000000;stroke-width:2.0px;stroke-linecap:butt;stroke-linejoin:miter;stroke-opacity:1"/>
<path class="bond-6 atom-6 atom-7" d="M 86.3,46.2 L 89.8,26.0" style="fill:none;fill-rule:evenodd;stroke:#FF0000;stroke-width:2.0px;stroke-linecap:butt;stroke-linejoin:miter;stroke-opacity:1"/>
<path class="bond-6 atom-6 atom-7" d="M 76.1,65.2 L 79.6,45.0" style="fill:none;fill-rule:evenodd;stroke:#000000;stroke-width:2.0px;stroke-linecap:butt;stroke-linejoin:miter;stroke-opacity:1"/>
<path class="bond-6 atom-6 atom-7" d="M 79.6,45.0 L 83.1,24.8" style="fill:none;fill-rule:evenodd;stroke:#FF0000;stroke-width:2.0px;stroke-linecap:butt;stroke-linejoin:miter;stroke-opacity:1"/>
<path class="bond-7 atom-6 atom-8" d="M 79.8,63.8 L 61.2,70.6" style="fill:none;fill-rule:evenodd;stroke:#000000;stroke-width:2.0px;stroke-linecap:butt;stroke-linejoin:miter;stroke-opacity:1"/>
<path class="bond-7 atom-6 atom-8" d="M 61.2,70.6 L 42.7,77.4" style="fill:none;fill-rule:evenodd;stroke:#FF0000;stroke-width:2.0px;stroke-linecap:butt;stroke-linejoin:miter;stroke-opacity:1"/>
<path class="bond-8 atom-4 atom-9" d="M 116.4,94.4 L 153.0,125.0" style="fill:none;fill-rule:evenodd;stroke:#000000;stroke-width:2.0px;stroke-linecap:butt;stroke-linejoin:miter;stroke-opacity:1"/>
<path class="bond-9 atom-9 atom-10" d="M 153.0,125.0 L 144.8,172.0" style="fill:none;fill-rule:evenodd;stroke:#000000;stroke-width:2.0px;stroke-linecap:butt;stroke-linejoin:miter;stroke-opacity:1"/>
<path class="bond-10 atom-9 atom-11" d="M 153.0,125.0 L 166.1,121.9" style="fill:none;fill-rule:evenodd;stroke:#000000;stroke-width:2.0px;stroke-linecap:butt;stroke-linejoin:miter;stroke-opacity:1"/>
<path class="bond-10 atom-9 atom-11" d="M 166.1,121.9 L 179.2,118.9" style="fill:none;fill-rule:evenodd;stroke:#FF0000;stroke-width:2.0px;stroke-linecap:butt;stroke-linejoin:miter;stroke-opacity:1"/>
<path d="M 195.5,64.1 L 194.0,66.0 L 191.6,65.6" style="fill:none;stroke:#000000;stroke-width:2.0px;stroke-linecap:butt;stroke-linejoin:miter;stroke-opacity:1;"/>
<path d="M 149.3,58.2 L 147.0,57.8 L 145.4,59.6" style="fill:none;stroke:#000000;stroke-width:2.0px;stroke-linecap:butt;stroke-linejoin:miter;stroke-opacity:1;"/>
<path d="M 81.6,65.4 L 79.8,63.8 L 78.9,64.2" style="fill:none;stroke:#000000;stroke-width:2.0px;stroke-linecap:butt;stroke-linejoin:miter;stroke-opacity:1;"/>
<path class="atom-2" d="M 203.6 97.0 Q 203.6 93.7, 205.2 91.9 Q 206.8 90.1, 209.8 90.1 Q 212.8 90.1, 214.4 91.9 Q 216.0 93.7, 216.0 97.0 Q 216.0 100.3, 214.4 102.1 Q 212.8 104.0, 209.8 104.0 Q 206.9 104.0, 205.2 102.1 Q 203.6 100.3, 203.6 97.0 M 209.8 102.4 Q 211.9 102.4, 213.0 101.1 Q 214.1 99.7, 214.1 97.0 Q 214.1 94.3, 213.0 93.0 Q 211.9 91.6, 209.8 91.6 Q 207.8 91.6, 206.7 93.0 Q 205.5 94.3, 205.5 97.0 Q 205.5 99.7, 206.7 101.1 Q 207.8 102.4, 209.8 102.4 " fill="#FF0000"/>
<path class="atom-7" d="M 81.8 16.9 Q 81.8 13.6, 83.4 11.8 Q 85.0 10.0, 88.0 10.0 Q 91.0 10.0, 92.6 11.8 Q 94.2 13.6, 94.2 16.9 Q 94.2 20.2, 92.5 22.0 Q 90.9 23.9, 88.0 23.9 Q 85.0 23.9, 83.4 22.0 Q 81.8 20.2, 81.8 16.9 M 88.0 22.3 Q 90.0 22.3, 91.1 21.0 Q 92.2 19.6, 92.2 16.9 Q 92.2 14.2, 91.1 12.9 Q 90.0 11.5, 88.0 11.5 Q 85.9 11.5, 84.8 12.9 Q 83.7 14.2, 83.7 16.9 Q 83.7 19.6, 84.8 21.0 Q 85.9 22.3, 88.0 22.3 " fill="#FF0000"/>
<path class="atom-8" d="M 15.4 73.6 L 17.3 73.6 L 17.3 79.3 L 24.2 79.3 L 24.2 73.6 L 26.0 73.6 L 26.0 87.1 L 24.2 87.1 L 24.2 80.8 L 17.3 80.8 L 17.3 87.1 L 15.4 87.1 L 15.4 73.6 " fill="#FF0000"/>
<path class="atom-8" d="M 28.8 80.3 Q 28.8 77.0, 30.4 75.2 Q 32.0 73.4, 35.0 73.4 Q 38.0 73.4, 39.6 75.2 Q 41.2 77.0, 41.2 80.3 Q 41.2 83.6, 39.6 85.4 Q 37.9 87.3, 35.0 87.3 Q 32.0 87.3, 30.4 85.4 Q 28.8 83.6, 28.8 80.3 M 35.0 85.8 Q 37.0 85.8, 38.2 84.4 Q 39.3 83.0, 39.3 80.3 Q 39.3 77.6, 38.2 76.3 Q 37.0 74.9, 35.0 74.9 Q 32.9 74.9, 31.8 76.3 Q 30.7 77.6, 30.7 80.3 Q 30.7 83.0, 31.8 84.4 Q 32.9 85.8, 35.0 85.8 " fill="#FF0000"/>
<path class="atom-11" d="M 180.7 117.1 Q 180.7 113.9, 182.3 112.1 Q 183.9 110.3, 186.9 110.3 Q 189.9 110.3, 191.5 112.1 Q 193.1 113.9, 193.1 117.1 Q 193.1 120.4, 191.5 122.3 Q 189.8 124.1, 186.9 124.1 Q 183.9 124.1, 182.3 122.3 Q 180.7 120.4, 180.7 117.1 M 186.9 122.6 Q 188.9 122.6, 190.0 121.2 Q 191.2 119.8, 191.2 117.1 Q 191.2 114.5, 190.0 113.1 Q 188.9 111.8, 186.9 111.8 Q 184.8 111.8, 183.7 113.1 Q 182.6 114.5, 182.6 117.1 Q 182.6 119.9, 183.7 121.2 Q 184.8 122.6, 186.9 122.6 " fill="#FF0000"/>
<path class="atom-11" d="M 195.2 110.4 L 197.0 110.4 L 197.0 116.2 L 203.9 116.2 L 203.9 110.4 L 205.8 110.4 L 205.8 123.9 L 203.9 123.9 L 203.9 117.7 L 197.0 117.7 L 197.0 123.9 L 195.2 123.9 L 195.2 110.4 " fill="#FF0000"/>
<path class="legend" d="M 111.5 181.9 Q 111.5 179.6, 112.2 177.7 Q 112.8 175.8, 114.1 173.8 L 115.0 174.4 Q 114.0 176.3, 113.4 178.0 Q 112.9 179.7, 112.9 181.9 Q 112.9 184.0, 113.4 185.8 Q 114.0 187.5, 115.0 189.4 L 114.1 190.0 Q 112.8 188.0, 112.2 186.1 Q 111.5 184.2, 111.5 181.9 " fill="#000000"/>
<path class="legend" d="M 115.9 177.3 Q 116.4 176.2, 117.3 175.6 Q 118.3 175.0, 119.7 175.0 Q 121.4 175.0, 122.4 175.9 Q 123.3 176.8, 123.3 178.5 Q 123.3 180.2, 122.1 181.7 Q 120.9 183.3, 118.3 185.2 L 123.5 185.2 L 123.5 186.4 L 115.9 186.4 L 115.9 185.4 Q 118.0 183.9, 119.3 182.8 Q 120.5 181.6, 121.1 180.6 Q 121.7 179.6, 121.7 178.6 Q 121.7 177.5, 121.2 176.9 Q 120.7 176.3, 119.7 176.3 Q 118.8 176.3, 118.2 176.6 Q 117.6 177.0, 117.2 177.8 L 115.9 177.3 " fill="#000000"/>
<path class="legend" d="M 128.5 181.9 Q 128.5 184.2, 127.8 186.1 Q 127.2 188.0, 125.9 190.0 L 125.0 189.4 Q 126.0 187.5, 126.5 185.8 Q 127.1 184.0, 127.1 181.9 Q 127.1 179.7, 126.5 178.0 Q 126.0 176.3, 125.0 174.4 L 125.9 173.8 Q 127.2 175.8, 127.8 177.7 Q 128.5 179.6, 128.5 181.9 " fill="#000000"/>
</g>
    <g transform="translate(240.0, 0) scale(1 1) "><line x1="5" y1="100" x2="35" y2="100" style="stroke:rgb(0,0,0);stroke-width:2"/>
  <line x1="34" y1="100" x2="29" y2="95" style="stroke:rgb(0,0,0);stroke-width:2"/>
  <line x1="34" y1="100" x2="29" y2="105" style="stroke:rgb(0,0,0);stroke-width:2"/>
</g>
    <g transform="translate(280.0, 0) scale(1 1) "><!-- END OF HEADER -->
<rect style="opacity:1.0;fill:#FFFFFF;stroke:none" width="260.0" height="200.0" x="0.0" y="0.0"> </rect>
<path class="bond-0 atom-0 atom-1" d="M 247.0,86.9 L 211.4,110.1" style="fill:none;fill-rule:evenodd;stroke:#000000;stroke-width:2.0px;stroke-linecap:butt;stroke-linejoin:miter;stroke-opacity:1"/>
<path class="bond-1 atom-1 atom-2" d="M 208.3,108.5 L 209.3,126.8" style="fill:none;fill-rule:evenodd;stroke:#000000;stroke-width:2.0px;stroke-linecap:butt;stroke-linejoin:miter;stroke-opacity:1"/>
<path class="bond-1 atom-1 atom-2" d="M 209.3,126.8 L 210.3,145.2" style="fill:none;fill-rule:evenodd;stroke:#FF0000;stroke-width:2.0px;stroke-linecap:butt;stroke-linejoin:miter;stroke-opacity:1"/>
<path class="bond-1 atom-1 atom-2" d="M 214.4,108.1 L 215.4,126.5" style="fill:none;fill-rule:evenodd;stroke:#000000;stroke-width:2.0px;stroke-linecap:butt;stroke-linejoin:miter;stroke-opacity:1"/>
<path class="bond-1 atom-1 atom-2" d="M 215.4,126.5 L 216.4,144.9" style="fill:none;fill-rule:evenodd;stroke:#FF0000;stroke-width:2.0px;stroke-linecap:butt;stroke-linejoin:miter;stroke-opacity:1"/>
<path class="bond-2 atom-1 atom-3" d="M 211.4,110.1 L 173.5,90.8" style="fill:none;fill-rule:evenodd;stroke:#000000;stroke-width:2.0px;stroke-linecap:butt;stroke-linejoin:miter;stroke-opacity:1"/>
<path class="bond-3 atom-3 atom-4" d="M 173.5,90.8 L 138.0,114.0" style="fill:none;fill-rule:evenodd;stroke:#000000;stroke-width:2.0px;stroke-linecap:butt;stroke-linejoin:miter;stroke-opacity:1"/>
<path class="bond-4 atom-4 atom-5" d="M 138.0,114.0 L 138.9,131.5" style="fill:none;fill-rule:evenodd;stroke:#000000;stroke-width:2.0px;stroke-linecap:butt;stroke-linejoin:miter;stroke-opacity:1"/>
<path class="bond-4 atom-4 atom-5" d="M 138.9,131.5 L 139.9,149.0" style="fill:none;fill-rule:evenodd;stroke:#FF0000;stroke-width:2.0px;stroke-linecap:butt;stroke-linejoin:miter;stroke-opacity:1"/>
<path class="bond-5 atom-4 atom-6" d="M 138.0,114.0 L 100.1,94.8" style="fill:none;fill-rule:evenodd;stroke:#000000;stroke-width:2.0px;stroke-linecap:butt;stroke-linejoin:miter;stroke-opacity:1"/>
<path class="bond-6 atom-6 atom-7" d="M 100.1,94.8 L 119.3,56.9" style="fill:none;fill-rule:evenodd;stroke:#000000;stroke-width:2.0px;stroke-linecap:butt;stroke-linejoin:miter;stroke-opacity:1"/>
<path class="bond-7 atom-6 atom-8" d="M 100.1,94.8 L 80.9,132.7" style="fill:none;fill-rule:evenodd;stroke:#000000;stroke-width:2.0px;stroke-linecap:butt;stroke-linejoin:miter;stroke-opacity:1"/>
<path class="bond-8 atom-8 atom-9" d="M 80.9,132.7 L 38.5,135.0" style="fill:none;fill-rule:evenodd;stroke:#000000;stroke-width:2.0px;stroke-linecap:butt;stroke-linejoin:miter;stroke-opacity:1"/>
<path class="bond-9 atom-9 atom-10" d="M 38.5,135.0 L 19.3,172.9" style="fill:none;fill-rule:evenodd;stroke:#000000;stroke-width:2.0px;stroke-linecap:butt;stroke-linejoin:miter;stroke-opacity:1"/>
<path class="bond-10 atom-9 atom-11" d="M 42.3,134.8 L 34.8,125.9" style="fill:none;fill-rule:evenodd;stroke:#000000;stroke-width:2.0px;stroke-linecap:butt;stroke-linejoin:miter;stroke-opacity:1"/>
<path class="bond-10 atom-9 atom-11" d="M 34.8,125.9 L 27.3,117.0" style="fill:none;fill-rule:evenodd;stroke:#FF0000;stroke-width:2.0px;stroke-linecap:butt;stroke-linejoin:miter;stroke-opacity:1"/>
<path class="bond-10 atom-9 atom-11" d="M 37.0,138.0 L 30.1,129.8" style="fill:none;fill-rule:evenodd;stroke:#000000;stroke-width:2.0px;stroke-linecap:butt;stroke-linejoin:miter;stroke-opacity:1"/>
<path class="bond-10 atom-9 atom-11" d="M 30.1,129.8 L 22.6,120.9" style="fill:none;fill-rule:evenodd;stroke:#FF0000;stroke-width:2.0px;stroke-linecap:butt;stroke-linejoin:miter;stroke-opacity:1"/>
<path class="bond-11 atom-6 atom-12" d="M 100.1,94.8 L 62.2,75.6" style="fill:none;fill-rule:evenodd;stroke:#000000;stroke-width:2.0px;stroke-linecap:butt;stroke-linejoin:miter;stroke-opacity:1"/>
<path class="bond-12 atom-12 atom-13" d="M 62.0,72.3 L 51.0,77.7" style="fill:none;fill-rule:evenodd;stroke:#000000;stroke-width:2.0px;stroke-linecap:butt;stroke-linejoin:miter;stroke-opacity:1"/>
<path class="bond-12 atom-12 atom-13" d="M 51.0,77.7 L 39.9,83.1" style="fill:none;fill-rule:evenodd;stroke:#FF0000;stroke-width:2.0px;stroke-linecap:butt;stroke-linejoin:miter;stroke-opacity:1"/>
<path class="bond-12 atom-12 atom-13" d="M 65.6,77.3 L 53.7,83.2" style="fill:none;fill-rule:evenodd;stroke:#000000;stroke-width:2.0px;stroke-linecap:butt;stroke-linejoin:miter;stroke-opacity:1"/>
<path class="bond-12 atom-12 atom-13" d="M 53.7,83.2 L 42.6,88.6" style="fill:none;fill-rule:evenodd;stroke:#FF0000;stroke-width:2.0px;stroke-linecap:butt;stroke-linejoin:miter;stroke-opacity:1"/>
<path class="bond-13 atom-12 atom-14" d="M 62.2,75.6 L 61.3,58.2" style="fill:none;fill-rule:evenodd;stroke:#000000;stroke-width:2.0px;stroke-linecap:butt;stroke-linejoin:miter;stroke-opacity:1"/>
<path class="bond-13 atom-12 atom-14" d="M 61.3,58.2 L 60.3,40.8" style="fill:none;fill-rule:evenodd;stroke:#FF0000;stroke-width:2.0px;stroke-linecap:butt;stroke-linejoin:miter;stroke-opacity:1"/>
<path d="M 213.2,108.9 L 211.4,110.1 L 209.5,109.1" style="fill:none;stroke:#000000;stroke-width:2.0px;stroke-linecap:butt;stroke-linejoin:miter;stroke-opacity:1;"/>
<path d="M 175.4,91.8 L 173.5,90.8 L 171.8,92.0" style="fill:none;stroke:#000000;stroke-width:2.0px;stroke-linecap:butt;stroke-linejoin:miter;stroke-opacity:1;"/>
<path d="M 81.8,130.8 L 80.9,132.7 L 78.8,132.8" style="fill:none;stroke:#000000;stroke-width:2.0px;stroke-linecap:butt;stroke-linejoin:miter;stroke-opacity:1;"/>
<path d="M 40.6,134.9 L 38.5,135.0 L 37.5,136.9" style="fill:none;stroke:#000000;stroke-width:2.0px;stroke-linecap:butt;stroke-linejoin:miter;stroke-opacity:1;"/>
<path d="M 64.1,76.6 L 62.2,75.6 L 62.2,74.7" style="fill:none;stroke:#000000;stroke-width:2.0px;stroke-linecap:butt;stroke-linejoin:miter;stroke-opacity:1;"/>
<path class="atom-2" d="M 208.2 152.5 Q 208.2 149.6, 209.6 148.0 Q 211.1 146.4, 213.7 146.4 Q 216.4 146.4, 217.8 148.0 Q 219.2 149.6, 219.2 152.5 Q 219.2 155.4, 217.8 157.1 Q 216.4 158.7, 213.7 158.7 Q 211.1 158.7, 209.6 157.1 Q 208.2 155.4, 208.2 152.5 M 213.7 157.4 Q 215.6 157.4, 216.5 156.2 Q 217.5 154.9, 217.5 152.5 Q 217.5 150.1, 216.5 149.0 Q 215.6 147.7, 213.7 147.7 Q 211.9 147.7, 210.9 148.9 Q 209.9 150.1, 209.9 152.5 Q 209.9 154.9, 210.9 156.2 Q 211.9 157.4, 213.7 157.4 " fill="#FF0000"/>
<path class="atom-5" d="M 134.7 156.5 Q 134.7 153.6, 136.2 152.0 Q 137.6 150.4, 140.3 150.4 Q 142.9 150.4, 144.4 152.0 Q 145.8 153.6, 145.8 156.5 Q 145.8 159.4, 144.3 161.1 Q 142.9 162.7, 140.3 162.7 Q 137.6 162.7, 136.2 161.1 Q 134.7 159.4, 134.7 156.5 M 140.3 161.4 Q 142.1 161.4, 143.1 160.1 Q 144.1 158.9, 144.1 156.5 Q 144.1 154.1, 143.1 152.9 Q 142.1 151.7, 140.3 151.7 Q 138.4 151.7, 137.4 152.9 Q 136.4 154.1, 136.4 156.5 Q 136.4 158.9, 137.4 160.1 Q 138.4 161.4, 140.3 161.4 " fill="#FF0000"/>
<path class="atom-5" d="M 147.7 150.5 L 149.3 150.5 L 149.3 155.6 L 155.4 155.6 L 155.4 150.5 L 157.1 150.5 L 157.1 162.5 L 155.4 162.5 L 155.4 157.0 L 149.3 157.0 L 149.3 162.5 L 147.7 162.5 L 147.7 150.5 " fill="#FF0000"/>
<path class="atom-11" d="M 13.0 111.4 Q 13.0 108.5, 14.4 106.9 Q 15.9 105.2, 18.5 105.2 Q 21.2 105.2, 22.6 106.9 Q 24.0 108.5, 24.0 111.4 Q 24.0 114.3, 22.6 115.9 Q 21.2 117.6, 18.5 117.6 Q 15.9 117.6, 14.4 115.9 Q 13.0 114.3, 13.0 111.4 M 18.5 116.2 Q 20.4 116.2, 21.3 115.0 Q 22.3 113.8, 22.3 111.4 Q 22.3 109.0, 21.3 107.8 Q 20.4 106.6, 18.5 106.6 Q 16.7 106.6, 15.7 107.8 Q 14.7 109.0, 14.7 111.4 Q 14.7 113.8, 15.7 115.0 Q 16.7 116.2, 18.5 116.2 " fill="#FF0000"/>
<path class="atom-13" d="M 28.9 89.3 Q 28.9 86.4, 30.3 84.8 Q 31.7 83.2, 34.4 83.2 Q 37.1 83.2, 38.5 84.8 Q 39.9 86.4, 39.9 89.3 Q 39.9 92.2, 38.5 93.9 Q 37.0 95.5, 34.4 95.5 Q 31.8 95.5, 30.3 93.9 Q 28.9 92.2, 28.9 89.3 M 34.4 94.1 Q 36.2 94.1, 37.2 92.9 Q 38.2 91.7, 38.2 89.3 Q 38.2 86.9, 37.2 85.7 Q 36.2 84.5, 34.4 84.5 Q 32.6 84.5, 31.6 85.7 Q 30.6 86.9, 30.6 89.3 Q 30.6 91.7, 31.6 92.9 Q 32.6 94.1, 34.4 94.1 " fill="#FF0000"/>
<path class="atom-14" d="M 54.4 33.2 Q 54.4 30.3, 55.8 28.7 Q 57.2 27.1, 59.9 27.1 Q 62.6 27.1, 64.0 28.7 Q 65.4 30.3, 65.4 33.2 Q 65.4 36.2, 64.0 37.8 Q 62.5 39.5, 59.9 39.5 Q 57.3 39.5, 55.8 37.8 Q 54.4 36.2, 54.4 33.2 M 59.9 38.1 Q 61.7 38.1, 62.7 36.9 Q 63.7 35.6, 63.7 33.2 Q 63.7 30.9, 62.7 29.7 Q 61.7 28.5, 59.9 28.5 Q 58.1 28.5, 57.1 29.7 Q 56.1 30.9, 56.1 33.2 Q 56.1 35.7, 57.1 36.9 Q 58.1 38.1, 59.9 38.1 " fill="#FF0000"/>
<path class="atom-14" d="M 67.3 27.3 L 68.9 27.3 L 68.9 32.4 L 75.1 32.4 L 75.1 27.3 L 76.7 27.3 L 76.7 39.3 L 75.1 39.3 L 75.1 33.7 L 68.9 33.7 L 68.9 39.3 L 67.3 39.3 L 67.3 27.3 " fill="#FF0000"/>
</g>
    <g transform="translate(540.0, 0) scale(1 1) "><line x1="15" y1="100" x2="25" y2="100" style="stroke:rgb(0,0,0);stroke-width:2"/>
  <line x1="20" y1="95" x2="20" y2="105" style="stroke:rgb(0,0,0);stroke-width:2"/>
</g>
    <g transform="translate(580.0, 0) scale(1 1) "><!-- END OF HEADER -->
<rect style="opacity:1.0;fill:#FFFFFF;stroke:none" width="215.0" height="200.0" x="0.0" y="0.0"> </rect>
<path class="bond-0 atom-0 atom-1" d="M 183.7,56.0 L 158.3,99.9" style="fill:none;fill-rule:evenodd;stroke:#000000;stroke-width:2.0px;stroke-linecap:butt;stroke-linejoin:miter;stroke-opacity:1"/>
<path class="bond-1 atom-1 atom-2" d="M 158.3,99.9 L 168.4,117.4" style="fill:none;fill-rule:evenodd;stroke:#000000;stroke-width:2.0px;stroke-linecap:butt;stroke-linejoin:miter;stroke-opacity:1"/>
<path class="bond-1 atom-1 atom-2" d="M 168.4,117.4 L 178.5,134.9" style="fill:none;fill-rule:evenodd;stroke:#FF0000;stroke-width:2.0px;stroke-linecap:butt;stroke-linejoin:miter;stroke-opacity:1"/>
<path class="bond-2 atom-1 atom-3" d="M 158.3,99.9 L 107.6,99.9" style="fill:none;fill-rule:evenodd;stroke:#000000;stroke-width:2.0px;stroke-linecap:butt;stroke-linejoin:miter;stroke-opacity:1"/>
<path class="bond-3 atom-3 atom-4" d="M 107.6,99.9 L 107.6,49.2" style="fill:none;fill-rule:evenodd;stroke:#000000;stroke-width:2.0px;stroke-linecap:butt;stroke-linejoin:miter;stroke-opacity:1"/>
<path class="bond-4 atom-3 atom-5" d="M 107.6,99.9 L 107.6,150.6" style="fill:none;fill-rule:evenodd;stroke:#000000;stroke-width:2.0px;stroke-linecap:butt;stroke-linejoin:miter;stroke-opacity:1"/>
<path class="bond-5 atom-3 atom-6" d="M 107.6,99.9 L 56.9,99.9" style="fill:none;fill-rule:evenodd;stroke:#000000;stroke-width:2.0px;stroke-linecap:butt;stroke-linejoin:miter;stroke-opacity:1"/>
<path class="bond-6 atom-6 atom-7" d="M 54.7,96.1 L 44.0,114.5" style="fill:none;fill-rule:evenodd;stroke:#000000;stroke-width:2.0px;stroke-linecap:butt;stroke-linejoin:miter;stroke-opacity:1"/>
<path class="bond-6 atom-6 atom-7" d="M 44.0,114.5 L 33.4,133.0" style="fill:none;fill-rule:evenodd;stroke:#FF0000;stroke-width:2.0px;stroke-linecap:butt;stroke-linejoin:miter;stroke-opacity:1"/>
<path class="bond-6 atom-6 atom-7" d="M 61.3,99.9 L 50.6,118.3" style="fill:none;fill-rule:evenodd;stroke:#000000;stroke-width:2.0px;stroke-linecap:butt;stroke-linejoin:miter;stroke-opacity:1"/>
<path class="bond-6 atom-6 atom-7" d="M 50.6,118.3 L 40.0,136.8" style="fill:none;fill-rule:evenodd;stroke:#FF0000;stroke-width:2.0px;stroke-linecap:butt;stroke-linejoin:miter;stroke-opacity:1"/>
<path class="bond-7 atom-6 atom-8" d="M 56.9,99.9 L 46.9,82.5" style="fill:none;fill-rule:evenodd;stroke:#000000;stroke-width:2.0px;stroke-linecap:butt;stroke-linejoin:miter;stroke-opacity:1"/>
<path class="bond-7 atom-6 atom-8" d="M 46.9,82.5 L 36.8,65.1" style="fill:none;fill-rule:evenodd;stroke:#FF0000;stroke-width:2.0px;stroke-linecap:butt;stroke-linejoin:miter;stroke-opacity:1"/>
<path d="M 59.4,99.9 L 56.9,99.9 L 56.4,99.0" style="fill:none;stroke:#000000;stroke-width:2.0px;stroke-linecap:butt;stroke-linejoin:miter;stroke-opacity:1;"/>
<path class="atom-2" d="M 177.1 143.9 Q 177.1 140.4, 178.8 138.5 Q 180.5 136.5, 183.7 136.5 Q 186.9 136.5, 188.6 138.5 Q 190.3 140.4, 190.3 143.9 Q 190.3 147.3, 188.6 149.3 Q 186.8 151.3, 183.7 151.3 Q 180.5 151.3, 178.8 149.3 Q 177.1 147.4, 177.1 143.9 M 183.7 149.7 Q 185.9 149.7, 187.0 148.2 Q 188.2 146.7, 188.2 143.9 Q 188.2 141.0, 187.0 139.6 Q 185.9 138.2, 183.7 138.2 Q 181.5 138.2, 180.3 139.6 Q 179.1 141.0, 179.1 143.9 Q 179.1 146.8, 180.3 148.2 Q 181.5 149.7, 183.7 149.7 " fill="#FF0000"/>
<path class="atom-2" d="M 192.5 136.7 L 194.5 136.7 L 194.5 142.8 L 201.8 142.8 L 201.8 136.7 L 203.7 136.7 L 203.7 151.1 L 201.8 151.1 L 201.8 144.4 L 194.5 144.4 L 194.5 151.1 L 192.5 151.1 L 192.5 136.7 " fill="#FF0000"/>
<path class="atom-7" d="M 24.9 143.9 Q 24.9 140.4, 26.6 138.5 Q 28.3 136.5, 31.5 136.5 Q 34.7 136.5, 36.4 138.5 Q 38.1 140.4, 38.1 143.9 Q 38.1 147.3, 36.4 149.3 Q 34.7 151.3, 31.5 151.3 Q 28.4 151.3, 26.6 149.3 Q 24.9 147.4, 24.9 143.9 M 31.5 149.7 Q 33.7 149.7, 34.9 148.2 Q 36.1 146.7, 36.1 143.9 Q 36.1 141.0, 34.9 139.6 Q 33.7 138.2, 31.5 138.2 Q 29.3 138.2, 28.1 139.6 Q 27.0 141.0, 27.0 143.9 Q 27.0 146.8, 28.1 148.2 Q 29.3 149.7, 31.5 149.7 " fill="#FF0000"/>
<path class="atom-8" d="M 10.7 48.9 L 12.7 48.9 L 12.7 55.0 L 20.0 55.0 L 20.0 48.9 L 22.0 48.9 L 22.0 63.2 L 20.0 63.2 L 20.0 56.6 L 12.7 56.6 L 12.7 63.2 L 10.7 63.2 L 10.7 48.9 " fill="#FF0000"/>
<path class="atom-8" d="M 24.9 56.0 Q 24.9 52.6, 26.6 50.6 Q 28.3 48.7, 31.5 48.7 Q 34.7 48.7, 36.4 50.6 Q 38.1 52.6, 38.1 56.0 Q 38.1 59.5, 36.4 61.5 Q 34.7 63.5, 31.5 63.5 Q 28.4 63.5, 26.6 61.5 Q 24.9 59.5, 24.9 56.0 M 31.5 61.8 Q 33.7 61.8, 34.9 60.4 Q 36.1 58.9, 36.1 56.0 Q 36.1 53.2, 34.9 51.8 Q 33.7 50.3, 31.5 50.3 Q 29.3 50.3, 28.1 51.7 Q 27.0 53.2, 27.0 56.0 Q 27.0 58.9, 28.1 60.4 Q 29.3 61.8, 31.5 61.8 " fill="#FF0000"/>
</g>
  </g>
</svg>
