<?xml version='1.0' encoding='ASCII' standalone='yes'?>
<svg xmlns="http://www.w3.org/2000/svg" xmlns:xlink="http://www.w3.org/1999/xlink" version="1.1" width="905.0px" viewBox="0 0 905.0 200.0" height="200.0px">
  <g>
    <g transform="translate(0, 0) scale(1 1) "><!-- END OF HEADER -->
<rect style="opacity:1.0;fill:#FFFFFF;stroke:none" width="289.0" height="200.0" x="0.0" y="0.0"> </rect>
<path class="bond-0 atom-0 atom-1" d="M 14.5,77.0 L 41.0,89.9" style="fill:none;fill-rule:evenodd;stroke:#000000;stroke-width:2.0px;stroke-linecap:butt;stroke-linejoin:miter;stroke-opacity:1"/>
<path class="bond-1 atom-1 atom-2" d="M 41.0,89.9 L 28.1,116.4" style="fill:none;fill-rule:evenodd;stroke:#000000;stroke-width:2.0px;stroke-linecap:butt;stroke-linejoin:miter;stroke-opacity:1"/>
<path class="bond-2 atom-2 atom-3" d="M 28.1,116.4 L 34.6,126.1" style="fill:none;fill-rule:evenodd;stroke:#000000;stroke-width:2.0px;stroke-linecap:butt;stroke-linejoin:miter;stroke-opacity:1"/>
<path class="bond-2 atom-2 atom-3" d="M 34.6,126.1 L 41.1,135.7" style="fill:none;fill-rule:evenodd;stroke:#FF0000;stroke-width:2.0px;stroke-linecap:butt;stroke-linejoin:miter;stroke-opacity:1"/>
<path class="bond-3 atom-1 atom-4" d="M 41.0,89.9 L 67.5,102.8" style="fill:none;fill-rule:evenodd;stroke:#000000;stroke-width:2.0px;stroke-linecap:butt;stroke-linejoin:miter;stroke-opacity:1"/>
<path class="bond-4 atom-4 atom-5" d="M 67.5,102.8 L 92.0,86.3" style="fill:none;fill-rule:evenodd;stroke:#000000;stroke-width:2.0px;stroke-linecap:butt;stroke-linejoin:miter;stroke-opacity:1"/>
<path class="bond-5 atom-5 atom-6" d="M 92.0,86.3 L 118.5,99.2" style="fill:none;fill-rule:evenodd;stroke:#000000;stroke-width:2.0px;stroke-linecap:butt;stroke-linejoin:miter;stroke-opacity:1"/>
<path class="bond-6 atom-6 atom-7" d="M 118.5,99.2 L 142.9,82.7" style="fill:none;fill-rule:evenodd;stroke:#000000;stroke-width:2.0px;stroke-linecap:butt;stroke-linejoin:miter;stroke-opacity:1"/>
<path class="bond-7 atom-7 atom-8" d="M 142.9,82.7 L 142.1,70.6" style="fill:none;fill-rule:evenodd;stroke:#000000;stroke-width:2.0px;stroke-linecap:butt;stroke-linejoin:miter;stroke-opacity:1"/>
<path class="bond-7 atom-7 atom-8" d="M 142.1,70.6 L 141.2,58.6" style="fill:none;fill-rule:evenodd;stroke:#FF0000;stroke-width:2.0px;stroke-linecap:butt;stroke-linejoin:miter;stroke-opacity:1"/>
<path class="bond-8 atom-7 atom-9" d="M 142.9,82.7 L 169.5,95.6" style="fill:none;fill-rule:evenodd;stroke:#000000;stroke-width:2.0px;stroke-linecap:butt;stroke-linejoin:miter;stroke-opacity:1"/>
<path class="bond-9 atom-9 atom-10" d="M 169.5,95.6 L 193.9,79.1" style="fill:none;fill-rule:evenodd;stroke:#000000;stroke-width:2.0px;stroke-linecap:butt;stroke-linejoin:miter;stroke-opacity:1"/>
<path class="bond-10 atom-10 atom-11" d="M 193.9,79.1 L 220.4,92.0" style="fill:none;fill-rule:evenodd;stroke:#000000;stroke-width:2.0px;stroke-linecap:butt;stroke-linejoin:miter;stroke-opacity:1"/>
<path class="bond-11 atom-11 atom-12" d="M 220.4,92.0 L 247.0,104.9" style="fill:none;fill-rule:evenodd;stroke:#000000;stroke-width:2.0px;stroke-linecap:butt;stroke-linejoin:miter;stroke-opacity:1"/>
<path class="bond-12 atom-11 atom-13" d="M 220.4,92.0 L 207.5,118.5" style="fill:none;fill-rule:evenodd;stroke:#000000;stroke-width:2.0px;stroke-linecap:butt;stroke-linejoin:miter;stroke-opacity:1"/>
<path class="bond-13 atom-13 atom-14" d="M 207.5,118.5 L 214.0,128.1" style="fill:none;fill-rule:evenodd;stroke:#000000;stroke-width:2.0px;stroke-linecap:butt;stroke-linejoin:miter;stroke-opacity:1"/>
<path class="bond-13 atom-13 atom-14" d="M 214.0,128.1 L 220.5,137.7" style="fill:none;fill-rule:evenodd;stroke:#FF0000;stroke-width:2.0px;stroke-linecap:butt;stroke-linejoin:miter;stroke-opacity:1"/>
<path class="bond-14 atom-11 atom-15" d="M 220.4,92.0 L 233.3,65.4" style="fill:none;fill-rule:evenodd;stroke:#000000;stroke-width:2.0px;stroke-linecap:butt;stroke-linejoin:miter;stroke-opacity:1"/>
<path class="bond-15 atom-15 atom-16" d="M 235.9,65.3 L 229.1,55.2" style="fill:none;fill-rule:evenodd;stroke:#000000;stroke-width:2.0px;stroke-linecap:butt;stroke-linejoin:miter;stroke-opacity:1"/>
<path class="bond-15 atom-15 atom-16" d="M 229.1,55.2 L 222.3,45.1" style="fill:none;fill-rule:evenodd;stroke:#FF0000;stroke-width:2.0px;stroke-linecap:butt;stroke-linejoin:miter;stroke-opacity:1"/>
<path class="bond-15 atom-15 atom-16" d="M 232.2,67.7 L 225.4,57.6" style="fill:none;fill-rule:evenodd;stroke:#000000;stroke-width:2.0px;stroke-linecap:butt;stroke-linejoin:miter;stroke-opacity:1"/>
<path class="bond-15 atom-15 atom-16" d="M 225.4,57.6 L 218.6,47.6" style="fill:none;fill-rule:evenodd;stroke:#FF0000;stroke-width:2.0px;stroke-linecap:butt;stroke-linejoin:miter;stroke-opacity:1"/>
<path class="bond-16 atom-15 atom-17" d="M 233.3,65.4 L 245.7,64.6" style="fill:none;fill-rule:evenodd;stroke:#000000;stroke-width:2.0px;stroke-linecap:butt;stroke-linejoin:miter;stroke-opacity:1"/>
<path class="bond-16 atom-15 atom-17" d="M 245.7,64.6 L 258.0,63.7" style="fill:none;fill-rule:evenodd;stroke:#FF0000;stroke-width:2.0px;stroke-linecap:butt;stroke-linejoin:miter;stroke-opacity:1"/>
<path class="bond-17 atom-1 atom-18" d="M 41.0,89.9 L 53.9,63.4" style="fill:none;fill-rule:evenodd;stroke:#000000;stroke-width:2.0px;stroke-linecap:butt;stroke-linejoin:miter;stroke-opacity:1"/>
<path class="bond-18 atom-18 atom-19" d="M 56.4,63.2 L 49.6,53.1" style="fill:none;fill-rule:evenodd;stroke:#000000;stroke-width:2.0px;stroke-linecap:butt;stroke-linejoin:miter;stroke-opacity:1"/>
<path class="bond-18 atom-18 atom-19" d="M 49.6,53.1 L 42.8,43.0" style="fill:none;fill-rule:evenodd;stroke:#FF0000;stroke-width:2.0px;stroke-linecap:butt;stroke-linejoin:miter;stroke-opacity:1"/>
<path class="bond-18 atom-18 atom-19" d="M 52.8,65.7 L 46.0,55.6" style="fill:none;fill-rule:evenodd;stroke:#000000;stroke-width:2.0px;stroke-linecap:butt;stroke-linejoin:miter;stroke-opacity:1"/>
<path class="bond-18 atom-18 atom-19" d="M 46.0,55.6 L 39.1,45.5" style="fill:none;fill-rule:evenodd;stroke:#FF0000;stroke-width:2.0px;stroke-linecap:butt;stroke-linejoin:miter;stroke-opacity:1"/>
<path class="bond-19 atom-18 atom-20" d="M 53.9,63.4 L 66.2,62.5" style="fill:none;fill-rule:evenodd;stroke:#000000;stroke-width:2.0px;stroke-linecap:butt;stroke-linejoin:miter;stroke-opacity:1"/>
<path class="bond-19 atom-18 atom-20" d="M 66.2,62.5 L 78.5,61.6" style="fill:none;fill-rule:evenodd;stroke:#FF0000;stroke-width:2.0px;stroke-linecap:butt;stroke-linejoin:miter;stroke-opacity:1"/>
<path d="M 28.7,115.1 L 28.1,116.4 L 28.4,116.9" style="fill:none;stroke:#000000;stroke-width:2.0px;stroke-linecap:butt;stroke-linejoin:miter;stroke-opacity:1;"/>
<path d="M 66.2,102.2 L 67.5,102.8 L 68.7,102.0" style="fill:none;stroke:#000000;stroke-width:2.0px;stroke-linecap:butt;stroke-linejoin:miter;stroke-opacity:1;"/>
<path d="M 90.7,87.1 L 92.0,86.3 L 93.3,86.9" style="fill:none;stroke:#000000;stroke-width:2.0px;stroke-linecap:butt;stroke-linejoin:miter;stroke-opacity:1;"/>
<path d="M 117.2,98.6 L 118.5,99.2 L 119.7,98.4" style="fill:none;stroke:#000000;stroke-width:2.0px;stroke-linecap:butt;stroke-linejoin:miter;stroke-opacity:1;"/>
<path d="M 168.1,94.9 L 169.5,95.6 L 170.7,94.8" style="fill:none;stroke:#000000;stroke-width:2.0px;stroke-linecap:butt;stroke-linejoin:miter;stroke-opacity:1;"/>
<path d="M 192.7,79.9 L 193.9,79.1 L 195.2,79.7" style="fill:none;stroke:#000000;stroke-width:2.0px;stroke-linecap:butt;stroke-linejoin:miter;stroke-opacity:1;"/>
<path d="M 208.2,117.2 L 207.5,118.5 L 207.9,119.0" style="fill:none;stroke:#000000;stroke-width:2.0px;stroke-linecap:butt;stroke-linejoin:miter;stroke-opacity:1;"/>
<path d="M 232.7,66.8 L 233.3,65.4 L 234.0,65.4" style="fill:none;stroke:#000000;stroke-width:2.0px;stroke-linecap:butt;stroke-linejoin:miter;stroke-opacity:1;"/>
<path d="M 53.2,64.7 L 53.9,63.4 L 54.5,63.3" style="fill:none;stroke:#000000;stroke-width:2.0px;stroke-linecap:butt;stroke-linejoin:miter;stroke-opacity:1;"/>
<path class="atom-3" d="M 40.8 140.9 Q 40.8 138.9, 41.8 137.8 Q 42.7 136.7, 44.6 136.7 Q 46.4 136.7, 47.4 137.8 Q 48.4 138.9, 48.4 140.9 Q 48.4 142.9, 47.4 144.1 Q 46.4 145.2, 44.6 145.2 Q 42.8 145.2, 41.8 144.1 Q 40.8 142.9, 40.8 140.9 M 44.6 144.3 Q 45.9 144.3, 46.6 143.4 Q 47.3 142.6, 47.3 140.9 Q 47.3 139.3, 46.6 138.4 Q 45.9 137.6, 44.6 137.6 Q 43.3 137.6, 42.6 138.4 Q 41.9 139.2, 41.9 140.9 Q 41.9 142.6, 42.6 143.4 Q 43.3 144.3, 44.6 144.3 " fill="#FF0000"/>
<path class="atom-3" d="M 49.7 136.7 L 50.9 136.7 L 50.9 140.3 L 55.1 140.3 L 55.1 136.7 L 56.3 136.7 L 56.3 145.1 L 55.1 145.1 L 55.1 141.2 L 50.9 141.2 L 50.9 145.1 L 49.7 145.1 L 49.7 136.7 " fill="#FF0000"/>
<path class="atom-8" d="M 137.0 53.3 Q 137.0 51.3, 138.0 50.1 Q 139.0 49.0, 140.8 49.0 Q 142.7 49.0, 143.7 50.1 Q 144.7 51.3, 144.7 53.3 Q 144.7 55.3, 143.7 56.5 Q 142.7 57.6, 140.8 57.6 Q 139.0 57.6, 138.0 56.5 Q 137.0 55.3, 137.0 53.3 M 140.8 56.7 Q 142.1 56.7, 142.8 55.8 Q 143.5 54.9, 143.5 53.3 Q 143.5 51.6, 142.8 50.8 Q 142.1 50.0, 140.8 50.0 Q 139.6 50.0, 138.9 50.8 Q 138.2 51.6, 138.2 53.3 Q 138.2 55.0, 138.9 55.8 Q 139.6 56.7, 140.8 56.7 " fill="#FF0000"/>
<path class="atom-8" d="M 146.0 49.1 L 147.1 49.1 L 147.1 52.7 L 151.4 52.7 L 151.4 49.1 L 152.5 49.1 L 152.5 57.5 L 151.4 57.5 L 151.4 53.6 L 147.1 53.6 L 147.1 57.5 L 146.0 57.5 L 146.0 49.1 " fill="#FF0000"/>
<path class="atom-14" d="M 220.2 143.0 Q 220.2 141.0, 221.2 139.8 Q 222.2 138.7, 224.1 138.7 Q 225.9 138.7, 226.9 139.8 Q 227.9 141.0, 227.9 143.0 Q 227.9 145.0, 226.9 146.2 Q 225.9 147.3, 224.1 147.3 Q 222.2 147.3, 221.2 146.2 Q 220.2 145.0, 220.2 143.0 M 224.1 146.4 Q 225.3 146.4, 226.0 145.5 Q 226.7 144.6, 226.7 143.0 Q 226.7 141.3, 226.0 140.5 Q 225.3 139.7, 224.1 139.7 Q 222.8 139.7, 222.1 140.5 Q 221.4 141.3, 221.4 143.0 Q 221.4 144.7, 222.1 145.5 Q 222.8 146.4, 224.1 146.4 " fill="#FF0000"/>
<path class="atom-14" d="M 229.2 138.8 L 230.3 138.8 L 230.3 142.4 L 234.6 142.4 L 234.6 138.8 L 235.7 138.8 L 235.7 147.2 L 234.6 147.2 L 234.6 143.3 L 230.3 143.3 L 230.3 147.2 L 229.2 147.2 L 229.2 138.8 " fill="#FF0000"/>
<path class="atom-16" d="M 213.0 41.0 Q 213.0 39.0, 214.0 37.9 Q 215.0 36.8, 216.8 36.8 Q 218.7 36.8, 219.7 37.9 Q 220.7 39.0, 220.7 41.0 Q 220.7 43.0, 219.7 44.2 Q 218.7 45.3, 216.8 45.3 Q 215.0 45.3, 214.0 44.2 Q 213.0 43.1, 213.0 41.0 M 216.8 44.4 Q 218.1 44.4, 218.8 43.6 Q 219.5 42.7, 219.5 41.0 Q 219.5 39.4, 218.8 38.5 Q 218.1 37.7, 216.8 37.7 Q 215.5 37.7, 214.9 38.5 Q 214.2 39.4, 214.2 41.0 Q 214.2 42.7, 214.9 43.6 Q 215.5 44.4, 216.8 44.4 " fill="#FF0000"/>
<path class="atom-17" d="M 258.9 63.4 Q 258.9 61.4, 259.9 60.2 Q 260.9 59.1, 262.8 59.1 Q 264.6 59.1, 265.6 60.2 Q 266.6 61.4, 266.6 63.4 Q 266.6 65.4, 265.6 66.6 Q 264.6 67.7, 262.8 67.7 Q 260.9 67.7, 259.9 66.6 Q 258.9 65.4, 258.9 63.4 M 262.8 66.8 Q 264.1 66.8, 264.7 65.9 Q 265.4 65.0, 265.4 63.4 Q 265.4 61.7, 264.7 60.9 Q 264.1 60.1, 262.8 60.1 Q 261.5 60.1, 260.8 60.9 Q 260.1 61.7, 260.1 63.4 Q 260.1 65.1, 260.8 65.9 Q 261.5 66.8, 262.8 66.8 " fill="#FF0000"/>
<path class="atom-17" d="M 267.9 59.2 L 269.0 59.2 L 269.0 62.8 L 273.3 62.8 L 273.3 59.2 L 274.5 59.2 L 274.5 67.6 L 273.3 67.6 L 273.3 63.7 L 269.0 63.7 L 269.0 67.6 L 267.9 67.6 L 267.9 59.2 " fill="#FF0000"/>
<path class="atom-19" d="M 33.5 39.0 Q 33.5 36.9, 34.5 35.8 Q 35.5 34.7, 37.4 34.7 Q 39.2 34.7, 40.2 35.8 Q 41.2 36.9, 41.2 39.0 Q 41.2 41.0, 40.2 42.1 Q 39.2 43.3, 37.4 43.3 Q 35.5 43.3, 34.5 42.1 Q 33.5 41.0, 33.5 39.0 M 37.4 42.3 Q 38.6 42.3, 39.3 41.5 Q 40.0 40.6, 40.0 39.0 Q 40.0 37.3, 39.3 36.5 Q 38.6 35.6, 37.4 35.6 Q 36.1 35.6, 35.4 36.5 Q 34.7 37.3, 34.7 39.0 Q 34.7 40.6, 35.4 41.5 Q 36.1 42.3, 37.4 42.3 " fill="#FF0000"/>
<path class="atom-20" d="M 79.5 61.3 Q 79.5 59.3, 80.5 58.2 Q 81.5 57.1, 83.3 57.1 Q 85.2 57.1, 86.2 58.2 Q 87.2 59.3, 87.2 61.3 Q 87.2 63.3, 86.2 64.5 Q 85.1 65.6, 83.3 65.6 Q 81.5 65.6, 80.5 64.5 Q 79.5 63.4, 79.5 61.3 M 83.3 64.7 Q 84.6 64.7, 85.3 63.8 Q 86.0 63.0, 86.0 61.3 Q 86.0 59.7, 85.3 58.8 Q 84.6 58.0, 83.3 58.0 Q 82.0 58.0, 81.3 58.8 Q 80.7 59.7, 80.7 61.3 Q 80.7 63.0, 81.3 63.8 Q 82.0 64.7, 83.3 64.7 " fill="#FF0000"/>
<path class="atom-20" d="M 88.5 57.2 L 89.6 57.2 L 89.6 60.7 L 93.9 60.7 L 93.9 57.2 L 95.0 57.2 L 95.0 65.5 L 93.9 65.5 L 93.9 61.7 L 89.6 61.7 L 89.6 65.5 L 88.5 65.5 L 88.5 57.2 " fill="#FF0000"/>
<path class="legend" d="M 135.9 181.9 Q 135.9 179.6, 136.6 177.7 Q 137.3 175.8, 138.6 173.8 L 139.5 174.4 Q 138.4 176.3, 137.9 178.0 Q 137.4 179.7, 137.4 181.9 Q 137.4 184.0, 137.9 185.8 Q 138.4 187.5, 139.5 189.4 L 138.6 190.0 Q 137.3 188.0, 136.6 186.1 Q 135.9 184.2, 135.9 181.9 " fill="#000000"/>
<path class="legend" d="M 140.4 177.3 Q 140.8 176.2, 141.8 175.6 Q 142.8 175.0, 144.2 175.0 Q 145.9 175.0, 146.8 175.9 Q 147.8 176.8, 147.8 178.5 Q 147.8 180.2, 146.5 181.7 Q 145.3 183.3, 142.8 185.2 L 148.0 185.2 L 148.0 186.4 L 140.4 186.4 L 140.4 185.4 Q 142.5 183.9, 143.7 182.8 Q 145.0 181.6, 145.6 180.6 Q 146.2 179.6, 146.2 178.6 Q 146.2 177.5, 145.6 176.9 Q 145.1 176.3, 144.2 176.3 Q 143.2 176.3, 142.6 176.6 Q 142.0 177.0, 141.6 177.8 L 140.4 177.3 " fill="#000000"/>
<path class="legend" d="M 153.0 181.9 Q 153.0 184.2, 152.3 186.1 Q 151.6 188.0, 150.3 190.0 L 149.4 189.4 Q 150.5 187.5, 151.0 185.8 Q 151.5 184.0, 151.5 181.9 Q 151.5 179.7, 151.0 178.0 Q 150.5 176.3, 149.4 174.4 L 150.3 173.8 Q 151.6 175.8, 152.3 177.7 Q 153.0 179.6, 153.0 181.9 " fill="#000000"/>
</g>
    <g transform="translate(289.0, 0) scale(1 1) "><line x1="5" y1="100" x2="35" y2="100" style="stroke:rgb(0,0,0);stroke-width:2"/>
  <line x1="34" y1="100" x2="29" y2="95" style="stroke:rgb(0,0,0);stroke-width:2"/>
  <line x1="34" y1="100" x2="29" y2="105" style="stroke:rgb(0,0,0);stroke-width:2"/>
</g>
    <g transform="translate(329.0, 0) scale(1 1) "><!-- END OF HEADER -->
<rect style="opacity:1.0;fill:#FFFFFF;stroke:none" width="205.0" height="200.0" x="0.0" y="0.0"> </rect>
<path class="bond-0 atom-0 atom-1" d="M 122.6,44.3 L 108.8,89.2" style="fill:none;fill-rule:evenodd;stroke:#000000;stroke-width:2.0px;stroke-linecap:butt;stroke-linejoin:miter;stroke-opacity:1"/>
<path class="bond-1 atom-1 atom-2" d="M 108.8,89.2 L 95.0,134.1" style="fill:none;fill-rule:evenodd;stroke:#000000;stroke-width:2.0px;stroke-linecap:butt;stroke-linejoin:miter;stroke-opacity:1"/>
<path class="bond-2 atom-1 atom-3" d="M 108.8,89.2 L 63.9,75.4" style="fill:none;fill-rule:evenodd;stroke:#000000;stroke-width:2.0px;stroke-linecap:butt;stroke-linejoin:miter;stroke-opacity:1"/>
<path class="bond-3 atom-3 atom-4" d="M 63.9,75.4 L 50.5,87.9" style="fill:none;fill-rule:evenodd;stroke:#000000;stroke-width:2.0px;stroke-linecap:butt;stroke-linejoin:miter;stroke-opacity:1"/>
<path class="bond-3 atom-3 atom-4" d="M 50.5,87.9 L 37.2,100.3" style="fill:none;fill-rule:evenodd;stroke:#FF0000;stroke-width:2.0px;stroke-linecap:butt;stroke-linejoin:miter;stroke-opacity:1"/>
<path class="bond-4 atom-1 atom-5" d="M 108.8,89.2 L 153.7,103.0" style="fill:none;fill-rule:evenodd;stroke:#000000;stroke-width:2.0px;stroke-linecap:butt;stroke-linejoin:miter;stroke-opacity:1"/>
<path class="bond-5 atom-5 atom-6" d="M 154.7,107.0 L 168.8,93.8" style="fill:none;fill-rule:evenodd;stroke:#000000;stroke-width:2.0px;stroke-linecap:butt;stroke-linejoin:miter;stroke-opacity:1"/>
<path class="bond-5 atom-5 atom-6" d="M 168.8,93.8 L 182.9,80.7" style="fill:none;fill-rule:evenodd;stroke:#FF0000;stroke-width:2.0px;stroke-linecap:butt;stroke-linejoin:miter;stroke-opacity:1"/>
<path class="bond-5 atom-5 atom-6" d="M 149.9,101.8 L 164.0,88.7" style="fill:none;fill-rule:evenodd;stroke:#000000;stroke-width:2.0px;stroke-linecap:butt;stroke-linejoin:miter;stroke-opacity:1"/>
<path class="bond-5 atom-5 atom-6" d="M 164.0,88.7 L 178.1,75.5" style="fill:none;fill-rule:evenodd;stroke:#FF0000;stroke-width:2.0px;stroke-linecap:butt;stroke-linejoin:miter;stroke-opacity:1"/>
<path class="bond-6 atom-5 atom-7" d="M 153.7,103.0 L 158.0,121.7" style="fill:none;fill-rule:evenodd;stroke:#000000;stroke-width:2.0px;stroke-linecap:butt;stroke-linejoin:miter;stroke-opacity:1"/>
<path class="bond-6 atom-5 atom-7" d="M 158.0,121.7 L 162.4,140.5" style="fill:none;fill-rule:evenodd;stroke:#FF0000;stroke-width:2.0px;stroke-linecap:butt;stroke-linejoin:miter;stroke-opacity:1"/>
<path d="M 66.1,76.1 L 63.9,75.4 L 63.2,76.0" style="fill:none;stroke:#000000;stroke-width:2.0px;stroke-linecap:butt;stroke-linejoin:miter;stroke-opacity:1;"/>
<path d="M 151.5,102.3 L 153.7,103.0 L 154.0,103.9" style="fill:none;stroke:#000000;stroke-width:2.0px;stroke-linecap:butt;stroke-linejoin:miter;stroke-opacity:1;"/>
<path class="atom-4" d="M 10.2 100.8 L 12.1 100.8 L 12.1 106.5 L 18.9 106.5 L 18.9 100.8 L 20.7 100.8 L 20.7 114.1 L 18.9 114.1 L 18.9 108.0 L 12.1 108.0 L 12.1 114.1 L 10.2 114.1 L 10.2 100.8 " fill="#FF0000"/>
<path class="atom-4" d="M 23.4 107.5 Q 23.4 104.3, 25.0 102.5 Q 26.5 100.7, 29.5 100.7 Q 32.5 100.7, 34.0 102.5 Q 35.6 104.3, 35.6 107.5 Q 35.6 110.7, 34.0 112.5 Q 32.4 114.4, 29.5 114.4 Q 26.6 114.4, 25.0 112.5 Q 23.4 110.7, 23.4 107.5 M 29.5 112.9 Q 31.5 112.9, 32.6 111.5 Q 33.7 110.1, 33.7 107.5 Q 33.7 104.8, 32.6 103.5 Q 31.5 102.2, 29.5 102.2 Q 27.5 102.2, 26.4 103.5 Q 25.3 104.8, 25.3 107.5 Q 25.3 110.1, 26.4 111.5 Q 27.5 112.9, 29.5 112.9 " fill="#FF0000"/>
<path class="atom-6" d="M 182.0 71.0 Q 182.0 67.8, 183.6 66.0 Q 185.2 64.3, 188.1 64.3 Q 191.1 64.3, 192.7 66.0 Q 194.3 67.8, 194.3 71.0 Q 194.3 74.3, 192.7 76.1 Q 191.1 77.9, 188.1 77.9 Q 185.2 77.9, 183.6 76.1 Q 182.0 74.3, 182.0 71.0 M 188.1 76.4 Q 190.2 76.4, 191.3 75.1 Q 192.4 73.7, 192.4 71.0 Q 192.4 68.4, 191.3 67.1 Q 190.2 65.8, 188.1 65.8 Q 186.1 65.8, 185.0 67.1 Q 183.9 68.4, 183.9 71.0 Q 183.9 73.7, 185.0 75.1 Q 186.1 76.4, 188.1 76.4 " fill="#FF0000"/>
<path class="atom-7" d="M 158.2 148.8 Q 158.2 145.6, 159.7 143.8 Q 161.3 142.1, 164.3 142.1 Q 167.2 142.1, 168.8 143.8 Q 170.4 145.6, 170.4 148.8 Q 170.4 152.1, 168.8 153.9 Q 167.2 155.7, 164.3 155.7 Q 161.3 155.7, 159.7 153.9 Q 158.2 152.1, 158.2 148.8 M 164.3 154.2 Q 166.3 154.2, 167.4 152.9 Q 168.5 151.5, 168.5 148.8 Q 168.5 146.2, 167.4 144.9 Q 166.3 143.6, 164.3 143.6 Q 162.2 143.6, 161.1 144.9 Q 160.0 146.2, 160.0 148.8 Q 160.0 151.5, 161.1 152.9 Q 162.2 154.2, 164.3 154.2 " fill="#FF0000"/>
<path class="atom-7" d="M 172.4 142.2 L 174.2 142.2 L 174.2 147.9 L 181.0 147.9 L 181.0 142.2 L 182.9 142.2 L 182.9 155.5 L 181.0 155.5 L 181.0 149.4 L 174.2 149.4 L 174.2 155.5 L 172.4 155.5 L 172.4 142.2 " fill="#FF0000"/>
</g>
    <g transform="translate(534.0, 0) scale(1 1) "><line x1="15" y1="100" x2="25" y2="100" style="stroke:rgb(0,0,0);stroke-width:2"/>
  <line x1="20" y1="95" x2="20" y2="105" style="stroke:rgb(0,0,0);stroke-width:2"/>
</g>
    <g transform="translate(574.0, 0) scale(1 1) "><!-- END OF HEADER -->
<rect style="opacity:1.0;fill:#FFFFFF;stroke:none" width="331.0" height="200.0" x="0.0" y="0.0"> </rect>
<path class="bond-0 atom-0 atom-1" d="M 16.6,68.3 L 31.6,82.7" style="fill:none;fill-rule:evenodd;stroke:#000000;stroke-width:2.0px;stroke-linecap:butt;stroke-linejoin:miter;stroke-opacity:1"/>
<path class="bond-1 atom-1 atom-2" d="M 31.6,82.7 L 17.2,97.8" style="fill:none;fill-rule:evenodd;stroke:#000000;stroke-width:2.0px;stroke-linecap:butt;stroke-linejoin:miter;stroke-opacity:1"/>
<path class="bond-2 atom-2 atom-3" d="M 17.2,97.8 L 19.6,106.0" style="fill:none;fill-rule:evenodd;stroke:#000000;stroke-width:2.0px;stroke-linecap:butt;stroke-linejoin:miter;stroke-opacity:1"/>
<path class="bond-2 atom-2 atom-3" d="M 19.6,106.0 L 22.0,114.1" style="fill:none;fill-rule:evenodd;stroke:#FF0000;stroke-width:2.0px;stroke-linecap:butt;stroke-linejoin:miter;stroke-opacity:1"/>
<path class="bond-3 atom-1 atom-4" d="M 31.6,82.7 L 46.7,97.1" style="fill:none;fill-rule:evenodd;stroke:#000000;stroke-width:2.0px;stroke-linecap:butt;stroke-linejoin:miter;stroke-opacity:1"/>
<path class="bond-4 atom-4 atom-5" d="M 46.7,97.1 L 66.7,91.3" style="fill:none;fill-rule:evenodd;stroke:#000000;stroke-width:2.0px;stroke-linecap:butt;stroke-linejoin:miter;stroke-opacity:1"/>
<path class="bond-5 atom-5 atom-6" d="M 66.7,91.3 L 81.8,105.7" style="fill:none;fill-rule:evenodd;stroke:#000000;stroke-width:2.0px;stroke-linecap:butt;stroke-linejoin:miter;stroke-opacity:1"/>
<path class="bond-6 atom-6 atom-7" d="M 81.8,105.7 L 101.8,99.8" style="fill:none;fill-rule:evenodd;stroke:#000000;stroke-width:2.0px;stroke-linecap:butt;stroke-linejoin:miter;stroke-opacity:1"/>
<path class="bond-7 atom-7 atom-8" d="M 101.8,99.8 L 103.8,91.6" style="fill:none;fill-rule:evenodd;stroke:#000000;stroke-width:2.0px;stroke-linecap:butt;stroke-linejoin:miter;stroke-opacity:1"/>
<path class="bond-7 atom-7 atom-8" d="M 103.8,91.6 L 105.8,83.3" style="fill:none;fill-rule:evenodd;stroke:#FF0000;stroke-width:2.0px;stroke-linecap:butt;stroke-linejoin:miter;stroke-opacity:1"/>
<path class="bond-8 atom-7 atom-9" d="M 101.8,99.8 L 116.8,114.2" style="fill:none;fill-rule:evenodd;stroke:#000000;stroke-width:2.0px;stroke-linecap:butt;stroke-linejoin:miter;stroke-opacity:1"/>
<path class="bond-9 atom-9 atom-10" d="M 116.8,114.2 L 136.8,108.3" style="fill:none;fill-rule:evenodd;stroke:#000000;stroke-width:2.0px;stroke-linecap:butt;stroke-linejoin:miter;stroke-opacity:1"/>
<path class="bond-10 atom-10 atom-11" d="M 136.8,108.3 L 138.9,100.1" style="fill:none;fill-rule:evenodd;stroke:#000000;stroke-width:2.0px;stroke-linecap:butt;stroke-linejoin:miter;stroke-opacity:1"/>
<path class="bond-10 atom-10 atom-11" d="M 138.9,100.1 L 140.9,91.8" style="fill:none;fill-rule:evenodd;stroke:#FF0000;stroke-width:2.0px;stroke-linecap:butt;stroke-linejoin:miter;stroke-opacity:1"/>
<path class="bond-11 atom-10 atom-12" d="M 136.8,108.3 L 151.9,122.7" style="fill:none;fill-rule:evenodd;stroke:#000000;stroke-width:2.0px;stroke-linecap:butt;stroke-linejoin:miter;stroke-opacity:1"/>
<path class="bond-12 atom-12 atom-13" d="M 151.9,122.7 L 137.5,137.8" style="fill:none;fill-rule:evenodd;stroke:#000000;stroke-width:2.0px;stroke-linecap:butt;stroke-linejoin:miter;stroke-opacity:1"/>
<path class="bond-13 atom-12 atom-14" d="M 151.9,122.7 L 166.3,107.6" style="fill:none;fill-rule:evenodd;stroke:#000000;stroke-width:2.0px;stroke-linecap:butt;stroke-linejoin:miter;stroke-opacity:1"/>
<path class="bond-14 atom-14 atom-15" d="M 166.3,107.6 L 186.6,112.6" style="fill:none;fill-rule:evenodd;stroke:#000000;stroke-width:2.0px;stroke-linecap:butt;stroke-linejoin:miter;stroke-opacity:1"/>
<path class="bond-15 atom-15 atom-16" d="M 186.6,112.6 L 201.0,97.5" style="fill:none;fill-rule:evenodd;stroke:#000000;stroke-width:2.0px;stroke-linecap:butt;stroke-linejoin:miter;stroke-opacity:1"/>
<path class="bond-16 atom-16 atom-17" d="M 201.0,97.5 L 221.2,102.4" style="fill:none;fill-rule:evenodd;stroke:#000000;stroke-width:2.0px;stroke-linecap:butt;stroke-linejoin:miter;stroke-opacity:1"/>
<path class="bond-17 atom-17 atom-18" d="M 221.2,102.4 L 223.6,110.6" style="fill:none;fill-rule:evenodd;stroke:#000000;stroke-width:2.0px;stroke-linecap:butt;stroke-linejoin:miter;stroke-opacity:1"/>
<path class="bond-17 atom-17 atom-18" d="M 223.6,110.6 L 226.0,118.7" style="fill:none;fill-rule:evenodd;stroke:#FF0000;stroke-width:2.0px;stroke-linecap:butt;stroke-linejoin:miter;stroke-opacity:1"/>
<path class="bond-18 atom-17 atom-19" d="M 221.2,102.4 L 235.6,87.3" style="fill:none;fill-rule:evenodd;stroke:#000000;stroke-width:2.0px;stroke-linecap:butt;stroke-linejoin:miter;stroke-opacity:1"/>
<path class="bond-19 atom-19 atom-20" d="M 235.6,87.3 L 255.8,92.3" style="fill:none;fill-rule:evenodd;stroke:#000000;stroke-width:2.0px;stroke-linecap:butt;stroke-linejoin:miter;stroke-opacity:1"/>
<path class="bond-20 atom-20 atom-21" d="M 255.8,92.3 L 270.2,77.2" style="fill:none;fill-rule:evenodd;stroke:#000000;stroke-width:2.0px;stroke-linecap:butt;stroke-linejoin:miter;stroke-opacity:1"/>
<path class="bond-21 atom-21 atom-22" d="M 270.2,77.2 L 284.6,62.1" style="fill:none;fill-rule:evenodd;stroke:#000000;stroke-width:2.0px;stroke-linecap:butt;stroke-linejoin:miter;stroke-opacity:1"/>
<path class="bond-22 atom-21 atom-23" d="M 270.2,77.2 L 255.2,62.8" style="fill:none;fill-rule:evenodd;stroke:#000000;stroke-width:2.0px;stroke-linecap:butt;stroke-linejoin:miter;stroke-opacity:1"/>
<path class="bond-23 atom-23 atom-24" d="M 255.2,62.8 L 257.2,54.6" style="fill:none;fill-rule:evenodd;stroke:#000000;stroke-width:2.0px;stroke-linecap:butt;stroke-linejoin:miter;stroke-opacity:1"/>
<path class="bond-23 atom-23 atom-24" d="M 257.2,54.6 L 259.2,46.3" style="fill:none;fill-rule:evenodd;stroke:#FF0000;stroke-width:2.0px;stroke-linecap:butt;stroke-linejoin:miter;stroke-opacity:1"/>
<path class="bond-24 atom-21 atom-25" d="M 270.2,77.2 L 285.3,91.6" style="fill:none;fill-rule:evenodd;stroke:#000000;stroke-width:2.0px;stroke-linecap:butt;stroke-linejoin:miter;stroke-opacity:1"/>
<path class="bond-25 atom-25 atom-26" d="M 284.0,90.3 L 281.9,99.1" style="fill:none;fill-rule:evenodd;stroke:#000000;stroke-width:2.0px;stroke-linecap:butt;stroke-linejoin:miter;stroke-opacity:1"/>
<path class="bond-25 atom-25 atom-26" d="M 281.9,99.1 L 279.8,107.8" style="fill:none;fill-rule:evenodd;stroke:#FF0000;stroke-width:2.0px;stroke-linecap:butt;stroke-linejoin:miter;stroke-opacity:1"/>
<path class="bond-25 atom-25 atom-26" d="M 287.0,91.1 L 284.9,99.8" style="fill:none;fill-rule:evenodd;stroke:#000000;stroke-width:2.0px;stroke-linecap:butt;stroke-linejoin:miter;stroke-opacity:1"/>
<path class="bond-25 atom-25 atom-26" d="M 284.9,99.8 L 282.8,108.5" style="fill:none;fill-rule:evenodd;stroke:#FF0000;stroke-width:2.0px;stroke-linecap:butt;stroke-linejoin:miter;stroke-opacity:1"/>
<path class="bond-26 atom-25 atom-27" d="M 285.3,91.6 L 293.6,89.1" style="fill:none;fill-rule:evenodd;stroke:#000000;stroke-width:2.0px;stroke-linecap:butt;stroke-linejoin:miter;stroke-opacity:1"/>
<path class="bond-26 atom-25 atom-27" d="M 293.6,89.1 L 301.9,86.7" style="fill:none;fill-rule:evenodd;stroke:#FF0000;stroke-width:2.0px;stroke-linecap:butt;stroke-linejoin:miter;stroke-opacity:1"/>
<path class="bond-27 atom-12 atom-28" d="M 151.9,122.7 L 167.0,137.1" style="fill:none;fill-rule:evenodd;stroke:#000000;stroke-width:2.0px;stroke-linecap:butt;stroke-linejoin:miter;stroke-opacity:1"/>
<path class="bond-28 atom-28 atom-29" d="M 166.6,138.9 L 175.3,136.3" style="fill:none;fill-rule:evenodd;stroke:#000000;stroke-width:2.0px;stroke-linecap:butt;stroke-linejoin:miter;stroke-opacity:1"/>
<path class="bond-28 atom-28 atom-29" d="M 175.3,136.3 L 184.0,133.7" style="fill:none;fill-rule:evenodd;stroke:#FF0000;stroke-width:2.0px;stroke-linecap:butt;stroke-linejoin:miter;stroke-opacity:1"/>
<path class="bond-28 atom-28 atom-29" d="M 165.7,135.9 L 174.4,133.3" style="fill:none;fill-rule:evenodd;stroke:#000000;stroke-width:2.0px;stroke-linecap:butt;stroke-linejoin:miter;stroke-opacity:1"/>
<path class="bond-28 atom-28 atom-29" d="M 174.4,133.3 L 183.2,130.7" style="fill:none;fill-rule:evenodd;stroke:#FF0000;stroke-width:2.0px;stroke-linecap:butt;stroke-linejoin:miter;stroke-opacity:1"/>
<path class="bond-29 atom-28 atom-30" d="M 167.0,137.1 L 165.0,145.4" style="fill:none;fill-rule:evenodd;stroke:#000000;stroke-width:2.0px;stroke-linecap:butt;stroke-linejoin:miter;stroke-opacity:1"/>
<path class="bond-29 atom-28 atom-30" d="M 165.0,145.4 L 163.0,153.7" style="fill:none;fill-rule:evenodd;stroke:#FF0000;stroke-width:2.0px;stroke-linecap:butt;stroke-linejoin:miter;stroke-opacity:1"/>
<path class="bond-30 atom-1 atom-31" d="M 31.6,82.7 L 46.0,67.7" style="fill:none;fill-rule:evenodd;stroke:#000000;stroke-width:2.0px;stroke-linecap:butt;stroke-linejoin:miter;stroke-opacity:1"/>
<path class="bond-31 atom-31 atom-32" d="M 47.8,68.1 L 45.3,59.5" style="fill:none;fill-rule:evenodd;stroke:#000000;stroke-width:2.0px;stroke-linecap:butt;stroke-linejoin:miter;stroke-opacity:1"/>
<path class="bond-31 atom-31 atom-32" d="M 45.3,59.5 L 42.8,51.0" style="fill:none;fill-rule:evenodd;stroke:#FF0000;stroke-width:2.0px;stroke-linecap:butt;stroke-linejoin:miter;stroke-opacity:1"/>
<path class="bond-31 atom-31 atom-32" d="M 44.8,69.0 L 42.3,60.4" style="fill:none;fill-rule:evenodd;stroke:#000000;stroke-width:2.0px;stroke-linecap:butt;stroke-linejoin:miter;stroke-opacity:1"/>
<path class="bond-31 atom-31 atom-32" d="M 42.3,60.4 L 39.8,51.9" style="fill:none;fill-rule:evenodd;stroke:#FF0000;stroke-width:2.0px;stroke-linecap:butt;stroke-linejoin:miter;stroke-opacity:1"/>
<path class="bond-32 atom-31 atom-33" d="M 46.0,67.7 L 54.4,69.7" style="fill:none;fill-rule:evenodd;stroke:#000000;stroke-width:2.0px;stroke-linecap:butt;stroke-linejoin:miter;stroke-opacity:1"/>
<path class="bond-32 atom-31 atom-33" d="M 54.4,69.7 L 62.9,71.8" style="fill:none;fill-rule:evenodd;stroke:#FF0000;stroke-width:2.0px;stroke-linecap:butt;stroke-linejoin:miter;stroke-opacity:1"/>
<path d="M 18.0,97.1 L 17.2,97.8 L 17.4,98.2" style="fill:none;stroke:#000000;stroke-width:2.0px;stroke-linecap:butt;stroke-linejoin:miter;stroke-opacity:1;"/>
<path d="M 45.9,96.4 L 46.7,97.1 L 47.7,96.8" style="fill:none;stroke:#000000;stroke-width:2.0px;stroke-linecap:butt;stroke-linejoin:miter;stroke-opacity:1;"/>
<path d="M 65.7,91.6 L 66.7,91.3 L 67.5,92.0" style="fill:none;stroke:#000000;stroke-width:2.0px;stroke-linecap:butt;stroke-linejoin:miter;stroke-opacity:1;"/>
<path d="M 81.0,104.9 L 81.8,105.7 L 82.8,105.4" style="fill:none;stroke:#000000;stroke-width:2.0px;stroke-linecap:butt;stroke-linejoin:miter;stroke-opacity:1;"/>
<path d="M 116.1,113.5 L 116.8,114.2 L 117.8,113.9" style="fill:none;stroke:#000000;stroke-width:2.0px;stroke-linecap:butt;stroke-linejoin:miter;stroke-opacity:1;"/>
<path d="M 165.6,108.4 L 166.3,107.6 L 167.3,107.9" style="fill:none;stroke:#000000;stroke-width:2.0px;stroke-linecap:butt;stroke-linejoin:miter;stroke-opacity:1;"/>
<path d="M 185.5,112.3 L 186.6,112.6 L 187.3,111.8" style="fill:none;stroke:#000000;stroke-width:2.0px;stroke-linecap:butt;stroke-linejoin:miter;stroke-opacity:1;"/>
<path d="M 200.2,98.2 L 201.0,97.5 L 202.0,97.7" style="fill:none;stroke:#000000;stroke-width:2.0px;stroke-linecap:butt;stroke-linejoin:miter;stroke-opacity:1;"/>
<path d="M 234.9,88.1 L 235.6,87.3 L 236.6,87.6" style="fill:none;stroke:#000000;stroke-width:2.0px;stroke-linecap:butt;stroke-linejoin:miter;stroke-opacity:1;"/>
<path d="M 254.8,92.0 L 255.8,92.3 L 256.6,91.5" style="fill:none;stroke:#000000;stroke-width:2.0px;stroke-linecap:butt;stroke-linejoin:miter;stroke-opacity:1;"/>
<path d="M 255.9,63.5 L 255.2,62.8 L 255.3,62.4" style="fill:none;stroke:#000000;stroke-width:2.0px;stroke-linecap:butt;stroke-linejoin:miter;stroke-opacity:1;"/>
<path d="M 284.6,90.9 L 285.3,91.6 L 285.7,91.5" style="fill:none;stroke:#000000;stroke-width:2.0px;stroke-linecap:butt;stroke-linejoin:miter;stroke-opacity:1;"/>
<path d="M 166.2,136.4 L 167.0,137.1 L 166.9,137.5" style="fill:none;stroke:#000000;stroke-width:2.0px;stroke-linecap:butt;stroke-linejoin:miter;stroke-opacity:1;"/>
<path d="M 45.3,68.4 L 46.0,67.7 L 46.4,67.8" style="fill:none;stroke:#000000;stroke-width:2.0px;stroke-linecap:butt;stroke-linejoin:miter;stroke-opacity:1;"/>
<path class="atom-3" d="M 20.4 117.8 Q 20.4 116.4, 21.1 115.6 Q 21.8 114.8, 23.1 114.8 Q 24.4 114.8, 25.1 115.6 Q 25.8 116.4, 25.8 117.8 Q 25.8 119.3, 25.1 120.1 Q 24.4 120.9, 23.1 120.9 Q 21.8 120.9, 21.1 120.1 Q 20.4 119.3, 20.4 117.8 M 23.1 120.2 Q 24.0 120.2, 24.5 119.6 Q 25.0 119.0, 25.0 117.8 Q 25.0 116.7, 24.5 116.1 Q 24.0 115.5, 23.1 115.5 Q 22.2 115.5, 21.7 116.1 Q 21.2 116.7, 21.2 117.8 Q 21.2 119.0, 21.7 119.6 Q 22.2 120.2, 23.1 120.2 " fill="#FF0000"/>
<path class="atom-3" d="M 26.7 114.9 L 27.5 114.9 L 27.5 117.4 L 30.5 117.4 L 30.5 114.9 L 31.3 114.9 L 31.3 120.8 L 30.5 120.8 L 30.5 118.1 L 27.5 118.1 L 27.5 120.8 L 26.7 120.8 L 26.7 114.9 " fill="#FF0000"/>
<path class="atom-8" d="M 104.0 79.6 Q 104.0 78.1, 104.7 77.4 Q 105.4 76.6, 106.7 76.6 Q 108.0 76.6, 108.7 77.4 Q 109.4 78.1, 109.4 79.6 Q 109.4 81.0, 108.7 81.8 Q 108.0 82.6, 106.7 82.6 Q 105.4 82.6, 104.7 81.8 Q 104.0 81.0, 104.0 79.6 M 106.7 82.0 Q 107.6 82.0, 108.1 81.4 Q 108.6 80.7, 108.6 79.6 Q 108.6 78.4, 108.1 77.8 Q 107.6 77.2, 106.7 77.2 Q 105.8 77.2, 105.3 77.8 Q 104.8 78.4, 104.8 79.6 Q 104.8 80.8, 105.3 81.4 Q 105.8 82.0, 106.7 82.0 " fill="#FF0000"/>
<path class="atom-8" d="M 110.3 76.6 L 111.1 76.6 L 111.1 79.1 L 114.1 79.1 L 114.1 76.6 L 114.9 76.6 L 114.9 82.5 L 114.1 82.5 L 114.1 79.8 L 111.1 79.8 L 111.1 82.5 L 110.3 82.5 L 110.3 76.6 " fill="#FF0000"/>
<path class="atom-11" d="M 139.1 88.1 Q 139.1 86.7, 139.8 85.9 Q 140.5 85.1, 141.8 85.1 Q 143.1 85.1, 143.8 85.9 Q 144.5 86.7, 144.5 88.1 Q 144.5 89.5, 143.8 90.3 Q 143.1 91.2, 141.8 91.2 Q 140.5 91.2, 139.8 90.3 Q 139.1 89.5, 139.1 88.1 M 141.8 90.5 Q 142.7 90.5, 143.2 89.9 Q 143.6 89.3, 143.6 88.1 Q 143.6 86.9, 143.2 86.4 Q 142.7 85.8, 141.8 85.8 Q 140.9 85.8, 140.4 86.3 Q 139.9 86.9, 139.9 88.1 Q 139.9 89.3, 140.4 89.9 Q 140.9 90.5, 141.8 90.5 " fill="#FF0000"/>
<path class="atom-11" d="M 145.4 85.2 L 146.2 85.2 L 146.2 87.7 L 149.2 87.7 L 149.2 85.2 L 150.0 85.2 L 150.0 91.1 L 149.2 91.1 L 149.2 88.3 L 146.2 88.3 L 146.2 91.1 L 145.4 91.1 L 145.4 85.2 " fill="#FF0000"/>
<path class="atom-18" d="M 224.4 122.4 Q 224.4 121.0, 225.1 120.2 Q 225.8 119.4, 227.1 119.4 Q 228.4 119.4, 229.1 120.2 Q 229.8 121.0, 229.8 122.4 Q 229.8 123.9, 229.1 124.7 Q 228.4 125.5, 227.1 125.5 Q 225.8 125.5, 225.1 124.7 Q 224.4 123.9, 224.4 122.4 M 227.1 124.8 Q 228.0 124.8, 228.4 124.2 Q 228.9 123.6, 228.9 122.4 Q 228.9 121.3, 228.4 120.7 Q 228.0 120.1, 227.1 120.1 Q 226.2 120.1, 225.7 120.7 Q 225.2 121.3, 225.2 122.4 Q 225.2 123.6, 225.7 124.2 Q 226.2 124.8, 227.1 124.8 " fill="#FF0000"/>
<path class="atom-18" d="M 230.7 119.5 L 231.5 119.5 L 231.5 122.0 L 234.5 122.0 L 234.5 119.5 L 235.3 119.5 L 235.3 125.4 L 234.5 125.4 L 234.5 122.7 L 231.5 122.7 L 231.5 125.4 L 230.7 125.4 L 230.7 119.5 " fill="#FF0000"/>
<path class="atom-24" d="M 257.4 42.6 Q 257.4 41.2, 258.1 40.4 Q 258.8 39.6, 260.1 39.6 Q 261.4 39.6, 262.1 40.4 Q 262.8 41.2, 262.8 42.6 Q 262.8 44.0, 262.1 44.8 Q 261.4 45.6, 260.1 45.6 Q 258.8 45.6, 258.1 44.8 Q 257.4 44.0, 257.4 42.6 M 260.1 45.0 Q 261.0 45.0, 261.5 44.4 Q 262.0 43.8, 262.0 42.6 Q 262.0 41.4, 261.5 40.8 Q 261.0 40.2, 260.1 40.2 Q 259.2 40.2, 258.7 40.8 Q 258.2 41.4, 258.2 42.6 Q 258.2 43.8, 258.7 44.4 Q 259.2 45.0, 260.1 45.0 " fill="#FF0000"/>
<path class="atom-24" d="M 263.7 39.6 L 264.5 39.6 L 264.5 42.1 L 267.5 42.1 L 267.5 39.6 L 268.3 39.6 L 268.3 45.5 L 267.5 45.5 L 267.5 42.8 L 264.5 42.8 L 264.5 45.5 L 263.7 45.5 L 263.7 39.6 " fill="#FF0000"/>
<path class="atom-26" d="M 277.7 111.8 Q 277.7 110.4, 278.4 109.6 Q 279.1 108.8, 280.4 108.8 Q 281.7 108.8, 282.4 109.6 Q 283.1 110.4, 283.1 111.8 Q 283.1 113.3, 282.4 114.1 Q 281.7 114.9, 280.4 114.9 Q 279.1 114.9, 278.4 114.1 Q 277.7 113.3, 277.7 111.8 M 280.4 114.2 Q 281.3 114.2, 281.8 113.6 Q 282.3 113.0, 282.3 111.8 Q 282.3 110.7, 281.8 110.1 Q 281.3 109.5, 280.4 109.5 Q 279.5 109.5, 279.0 110.1 Q 278.5 110.7, 278.5 111.8 Q 278.5 113.0, 279.0 113.6 Q 279.5 114.2, 280.4 114.2 " fill="#FF0000"/>
<path class="atom-27" d="M 302.6 85.7 Q 302.6 84.3, 303.3 83.5 Q 304.0 82.7, 305.3 82.7 Q 306.6 82.7, 307.3 83.5 Q 308.0 84.3, 308.0 85.7 Q 308.0 87.2, 307.3 88.0 Q 306.6 88.8, 305.3 88.8 Q 304.0 88.8, 303.3 88.0 Q 302.6 87.2, 302.6 85.7 M 305.3 88.1 Q 306.2 88.1, 306.7 87.5 Q 307.2 86.9, 307.2 85.7 Q 307.2 84.6, 306.7 84.0 Q 306.2 83.4, 305.3 83.4 Q 304.4 83.4, 303.9 84.0 Q 303.4 84.6, 303.4 85.7 Q 303.4 86.9, 303.9 87.5 Q 304.4 88.1, 305.3 88.1 " fill="#FF0000"/>
<path class="atom-27" d="M 308.9 82.8 L 309.7 82.8 L 309.7 85.3 L 312.7 85.3 L 312.7 82.8 L 313.5 82.8 L 313.5 88.7 L 312.7 88.7 L 312.7 86.0 L 309.7 86.0 L 309.7 88.7 L 308.9 88.7 L 308.9 82.8 " fill="#FF0000"/>
<path class="atom-29" d="M 184.3 131.3 Q 184.3 129.8, 185.0 129.1 Q 185.7 128.3, 187.0 128.3 Q 188.3 128.3, 189.0 129.1 Q 189.7 129.8, 189.7 131.3 Q 189.7 132.7, 189.0 133.5 Q 188.3 134.3, 187.0 134.3 Q 185.7 134.3, 185.0 133.5 Q 184.3 132.7, 184.3 131.3 M 187.0 133.7 Q 187.9 133.7, 188.4 133.1 Q 188.9 132.4, 188.9 131.3 Q 188.9 130.1, 188.4 129.5 Q 187.9 128.9, 187.0 128.9 Q 186.1 128.9, 185.6 129.5 Q 185.1 130.1, 185.1 131.3 Q 185.1 132.5, 185.6 133.1 Q 186.1 133.7, 187.0 133.7 " fill="#FF0000"/>
<path class="atom-30" d="M 159.4 157.4 Q 159.4 156.0, 160.1 155.2 Q 160.8 154.4, 162.1 154.4 Q 163.4 154.4, 164.1 155.2 Q 164.8 156.0, 164.8 157.4 Q 164.8 158.8, 164.1 159.6 Q 163.4 160.4, 162.1 160.4 Q 160.8 160.4, 160.1 159.6 Q 159.4 158.8, 159.4 157.4 M 162.1 159.8 Q 163.0 159.8, 163.5 159.2 Q 163.9 158.6, 163.9 157.4 Q 163.9 156.2, 163.5 155.6 Q 163.0 155.0, 162.1 155.0 Q 161.2 155.0, 160.7 155.6 Q 160.2 156.2, 160.2 157.4 Q 160.2 158.6, 160.7 159.2 Q 161.2 159.8, 162.1 159.8 " fill="#FF0000"/>
<path class="atom-30" d="M 165.7 154.4 L 166.5 154.4 L 166.5 156.9 L 169.5 156.9 L 169.5 154.4 L 170.3 154.4 L 170.3 160.3 L 169.5 160.3 L 169.5 157.6 L 166.5 157.6 L 166.5 160.3 L 165.7 160.3 L 165.7 154.4 " fill="#FF0000"/>
<path class="atom-32" d="M 37.4 47.7 Q 37.4 46.3, 38.1 45.5 Q 38.8 44.7, 40.2 44.7 Q 41.5 44.7, 42.2 45.5 Q 42.9 46.3, 42.9 47.7 Q 42.9 49.1, 42.2 49.9 Q 41.4 50.7, 40.2 50.7 Q 38.9 50.7, 38.1 49.9 Q 37.4 49.1, 37.4 47.7 M 40.2 50.1 Q 41.1 50.1, 41.5 49.5 Q 42.0 48.9, 42.0 47.7 Q 42.0 46.5, 41.5 45.9 Q 41.1 45.3, 40.2 45.3 Q 39.3 45.3, 38.8 45.9 Q 38.3 46.5, 38.3 47.7 Q 38.3 48.9, 38.8 49.5 Q 39.3 50.1, 40.2 50.1 " fill="#FF0000"/>
<path class="atom-33" d="M 63.6 72.6 Q 63.6 71.2, 64.3 70.4 Q 65.0 69.6, 66.3 69.6 Q 67.6 69.6, 68.3 70.4 Q 69.0 71.2, 69.0 72.6 Q 69.0 74.0, 68.3 74.9 Q 67.6 75.7, 66.3 75.7 Q 65.0 75.7, 64.3 74.9 Q 63.6 74.0, 63.6 72.6 M 66.3 75.0 Q 67.2 75.0, 67.6 74.4 Q 68.1 73.8, 68.1 72.6 Q 68.1 71.4, 67.6 70.9 Q 67.2 70.3, 66.3 70.3 Q 65.4 70.3, 64.9 70.9 Q 64.4 71.4, 64.4 72.6 Q 64.4 73.8, 64.9 74.4 Q 65.4 75.0, 66.3 75.0 " fill="#FF0000"/>
<path class="atom-33" d="M 69.9 69.7 L 70.7 69.7 L 70.7 72.2 L 73.7 72.2 L 73.7 69.7 L 74.5 69.7 L 74.5 75.6 L 73.7 75.6 L 73.7 72.8 L 70.7 72.8 L 70.7 75.6 L 69.9 75.6 L 69.9 69.7 " fill="#FF0000"/>
</g>
  </g>
</svg>
