<?xml version='1.0' encoding='ASCII' standalone='yes'?>
<svg xmlns="http://www.w3.org/2000/svg" xmlns:xlink="http://www.w3.org/1999/xlink" version="1.1" width="560.0px" viewBox="0 0 560.0 200.0" height="200.0px">
  <g>
    <g transform="translate(0, 0) scale(1 1) "><!-- END OF HEADER -->
<rect style="opacity:1.0;fill:#FFFFFF;stroke:none" width="260.0" height="200.0" x="0.0" y="0.0"> </rect>
<path class="bond-0 atom-0 atom-1" d="M 28.4,105.2 L 35.6,92.7" style="fill:none;fill-rule:evenodd;stroke:#FF0000;stroke-width:2.0px;stroke-linecap:butt;stroke-linejoin:miter;stroke-opacity:1"/>
<path class="bond-0 atom-0 atom-1" d="M 35.6,92.7 L 42.8,80.2" style="fill:none;fill-rule:evenodd;stroke:#000000;stroke-width:2.0px;stroke-linecap:butt;stroke-linejoin:miter;stroke-opacity:1"/>
<path class="bond-0 atom-0 atom-1" d="M 32.8,107.7 L 40.0,95.2" style="fill:none;fill-rule:evenodd;stroke:#FF0000;stroke-width:2.0px;stroke-linecap:butt;stroke-linejoin:miter;stroke-opacity:1"/>
<path class="bond-0 atom-0 atom-1" d="M 40.0,95.2 L 47.3,82.7" style="fill:none;fill-rule:evenodd;stroke:#000000;stroke-width:2.0px;stroke-linecap:butt;stroke-linejoin:miter;stroke-opacity:1"/>
<path class="bond-1 atom-1 atom-2" d="M 44.3,82.7 L 37.5,70.9" style="fill:none;fill-rule:evenodd;stroke:#000000;stroke-width:2.0px;stroke-linecap:butt;stroke-linejoin:miter;stroke-opacity:1"/>
<path class="bond-1 atom-1 atom-2" d="M 37.5,70.9 L 30.7,59.2" style="fill:none;fill-rule:evenodd;stroke:#FF0000;stroke-width:2.0px;stroke-linecap:butt;stroke-linejoin:miter;stroke-opacity:1"/>
<path class="bond-2 atom-1 atom-3" d="M 44.3,82.7 L 78.7,82.7" style="fill:none;fill-rule:evenodd;stroke:#000000;stroke-width:2.0px;stroke-linecap:butt;stroke-linejoin:miter;stroke-opacity:1"/>
<path class="bond-3 atom-3 atom-4" d="M 80.2,85.3 L 87.3,72.9" style="fill:none;fill-rule:evenodd;stroke:#000000;stroke-width:2.0px;stroke-linecap:butt;stroke-linejoin:miter;stroke-opacity:1"/>
<path class="bond-3 atom-3 atom-4" d="M 87.3,72.9 L 94.5,60.5" style="fill:none;fill-rule:evenodd;stroke:#FF0000;stroke-width:2.0px;stroke-linecap:butt;stroke-linejoin:miter;stroke-opacity:1"/>
<path class="bond-3 atom-3 atom-4" d="M 75.7,82.7 L 82.9,70.3" style="fill:none;fill-rule:evenodd;stroke:#000000;stroke-width:2.0px;stroke-linecap:butt;stroke-linejoin:miter;stroke-opacity:1"/>
<path class="bond-3 atom-3 atom-4" d="M 82.9,70.3 L 90.0,57.9" style="fill:none;fill-rule:evenodd;stroke:#FF0000;stroke-width:2.0px;stroke-linecap:butt;stroke-linejoin:miter;stroke-opacity:1"/>
<path class="bond-4 atom-3 atom-5" d="M 78.7,82.7 L 95.9,112.5" style="fill:none;fill-rule:evenodd;stroke:#000000;stroke-width:2.0px;stroke-linecap:butt;stroke-linejoin:miter;stroke-opacity:1"/>
<path class="bond-5 atom-5 atom-6" d="M 95.9,112.5 L 130.2,112.5" style="fill:none;fill-rule:evenodd;stroke:#000000;stroke-width:2.0px;stroke-linecap:butt;stroke-linejoin:miter;stroke-opacity:1"/>
<path class="bond-6 atom-6 atom-7" d="M 130.2,112.5 L 130.2,126.7" style="fill:none;fill-rule:evenodd;stroke:#000000;stroke-width:2.0px;stroke-linecap:butt;stroke-linejoin:miter;stroke-opacity:1"/>
<path class="bond-6 atom-6 atom-7" d="M 130.2,126.7 L 130.2,140.8" style="fill:none;fill-rule:evenodd;stroke:#FF0000;stroke-width:2.0px;stroke-linecap:butt;stroke-linejoin:miter;stroke-opacity:1"/>
<path class="bond-7 atom-6 atom-8" d="M 130.2,112.5 L 130.2,98.4" style="fill:none;fill-rule:evenodd;stroke:#000000;stroke-width:2.0px;stroke-linecap:butt;stroke-linejoin:miter;stroke-opacity:1"/>
<path class="bond-7 atom-6 atom-8" d="M 130.2,98.4 L 130.2,84.3" style="fill:none;fill-rule:evenodd;stroke:#FF0000;stroke-width:2.0px;stroke-linecap:butt;stroke-linejoin:miter;stroke-opacity:1"/>
<path class="bond-8 atom-6 atom-9" d="M 130.2,112.5 L 164.6,112.5" style="fill:none;fill-rule:evenodd;stroke:#000000;stroke-width:2.0px;stroke-linecap:butt;stroke-linejoin:miter;stroke-opacity:1"/>
<path class="bond-9 atom-9 atom-10" d="M 164.6,112.5 L 181.8,82.7" style="fill:none;fill-rule:evenodd;stroke:#000000;stroke-width:2.0px;stroke-linecap:butt;stroke-linejoin:miter;stroke-opacity:1"/>
<path class="bond-10 atom-10 atom-11" d="M 184.8,82.7 L 177.6,70.3" style="fill:none;fill-rule:evenodd;stroke:#000000;stroke-width:2.0px;stroke-linecap:butt;stroke-linejoin:miter;stroke-opacity:1"/>
<path class="bond-10 atom-10 atom-11" d="M 177.6,70.3 L 170.4,57.9" style="fill:none;fill-rule:evenodd;stroke:#FF0000;stroke-width:2.0px;stroke-linecap:butt;stroke-linejoin:miter;stroke-opacity:1"/>
<path class="bond-10 atom-10 atom-11" d="M 180.3,85.3 L 173.2,72.9" style="fill:none;fill-rule:evenodd;stroke:#000000;stroke-width:2.0px;stroke-linecap:butt;stroke-linejoin:miter;stroke-opacity:1"/>
<path class="bond-10 atom-10 atom-11" d="M 173.2,72.9 L 166.0,60.5" style="fill:none;fill-rule:evenodd;stroke:#FF0000;stroke-width:2.0px;stroke-linecap:butt;stroke-linejoin:miter;stroke-opacity:1"/>
<path class="bond-11 atom-10 atom-12" d="M 181.8,82.7 L 216.2,82.7" style="fill:none;fill-rule:evenodd;stroke:#000000;stroke-width:2.0px;stroke-linecap:butt;stroke-linejoin:miter;stroke-opacity:1"/>
<path class="bond-12 atom-12 atom-13" d="M 213.2,82.7 L 220.4,95.2" style="fill:none;fill-rule:evenodd;stroke:#000000;stroke-width:2.0px;stroke-linecap:butt;stroke-linejoin:miter;stroke-opacity:1"/>
<path class="bond-12 atom-12 atom-13" d="M 220.4,95.2 L 227.7,107.7" style="fill:none;fill-rule:evenodd;stroke:#FF0000;stroke-width:2.0px;stroke-linecap:butt;stroke-linejoin:miter;stroke-opacity:1"/>
<path class="bond-12 atom-12 atom-13" d="M 217.7,80.2 L 224.9,92.7" style="fill:none;fill-rule:evenodd;stroke:#000000;stroke-width:2.0px;stroke-linecap:butt;stroke-linejoin:miter;stroke-opacity:1"/>
<path class="bond-12 atom-12 atom-13" d="M 224.9,92.7 L 232.1,105.2" style="fill:none;fill-rule:evenodd;stroke:#FF0000;stroke-width:2.0px;stroke-linecap:butt;stroke-linejoin:miter;stroke-opacity:1"/>
<path class="bond-13 atom-12 atom-14" d="M 216.2,82.7 L 223.0,70.9" style="fill:none;fill-rule:evenodd;stroke:#000000;stroke-width:2.0px;stroke-linecap:butt;stroke-linejoin:miter;stroke-opacity:1"/>
<path class="bond-13 atom-12 atom-14" d="M 223.0,70.9 L 229.8,59.2" style="fill:none;fill-rule:evenodd;stroke:#FF0000;stroke-width:2.0px;stroke-linecap:butt;stroke-linejoin:miter;stroke-opacity:1"/>
<path d="M 43.9,82.1 L 44.3,82.7 L 46.0,82.7" style="fill:none;stroke:#000000;stroke-width:2.0px;stroke-linecap:butt;stroke-linejoin:miter;stroke-opacity:1;"/>
<path d="M 76.9,82.7 L 78.7,82.7 L 79.5,84.2" style="fill:none;stroke:#000000;stroke-width:2.0px;stroke-linecap:butt;stroke-linejoin:miter;stroke-opacity:1;"/>
<path d="M 95.0,111.0 L 95.9,112.5 L 97.6,112.5" style="fill:none;stroke:#000000;stroke-width:2.0px;stroke-linecap:butt;stroke-linejoin:miter;stroke-opacity:1;"/>
<path d="M 162.9,112.5 L 164.6,112.5 L 165.5,111.0" style="fill:none;stroke:#000000;stroke-width:2.0px;stroke-linecap:butt;stroke-linejoin:miter;stroke-opacity:1;"/>
<path d="M 181.0,84.2 L 181.8,82.7 L 183.5,82.7" style="fill:none;stroke:#000000;stroke-width:2.0px;stroke-linecap:butt;stroke-linejoin:miter;stroke-opacity:1;"/>
<path d="M 214.5,82.7 L 216.2,82.7 L 216.5,82.1" style="fill:none;stroke:#000000;stroke-width:2.0px;stroke-linecap:butt;stroke-linejoin:miter;stroke-opacity:1;"/>
<path class="atom-0" d="M 22.6 112.5 Q 22.6 110.2, 23.8 108.9 Q 24.9 107.6, 27.1 107.6 Q 29.2 107.6, 30.4 108.9 Q 31.6 110.2, 31.6 112.5 Q 31.6 114.9, 30.4 116.3 Q 29.2 117.6, 27.1 117.6 Q 24.9 117.6, 23.8 116.3 Q 22.6 114.9, 22.6 112.5 M 27.1 116.5 Q 28.6 116.5, 29.4 115.5 Q 30.2 114.5, 30.2 112.5 Q 30.2 110.6, 29.4 109.7 Q 28.6 108.7, 27.1 108.7 Q 25.6 108.7, 24.8 109.6 Q 24.0 110.6, 24.0 112.5 Q 24.0 114.5, 24.8 115.5 Q 25.6 116.5, 27.1 116.5 " fill="#FF0000"/>
<path class="atom-2" d="M 13.0 48.1 L 14.3 48.1 L 14.3 52.3 L 19.3 52.3 L 19.3 48.1 L 20.6 48.1 L 20.6 57.9 L 19.3 57.9 L 19.3 53.4 L 14.3 53.4 L 14.3 57.9 L 13.0 57.9 L 13.0 48.1 " fill="#FF0000"/>
<path class="atom-2" d="M 22.6 53.0 Q 22.6 50.6, 23.8 49.3 Q 24.9 48.0, 27.1 48.0 Q 29.2 48.0, 30.4 49.3 Q 31.6 50.6, 31.6 53.0 Q 31.6 55.3, 30.4 56.7 Q 29.2 58.0, 27.1 58.0 Q 24.9 58.0, 23.8 56.7 Q 22.6 55.4, 22.6 53.0 M 27.1 56.9 Q 28.6 56.9, 29.4 55.9 Q 30.2 54.9, 30.2 53.0 Q 30.2 51.1, 29.4 50.1 Q 28.6 49.1, 27.1 49.1 Q 25.6 49.1, 24.8 50.1 Q 24.0 51.1, 24.0 53.0 Q 24.0 54.9, 24.8 55.9 Q 25.6 56.9, 27.1 56.9 " fill="#FF0000"/>
<path class="atom-4" d="M 91.4 53.0 Q 91.4 50.6, 92.5 49.3 Q 93.7 48.0, 95.9 48.0 Q 98.0 48.0, 99.2 49.3 Q 100.3 50.6, 100.3 53.0 Q 100.3 55.3, 99.2 56.7 Q 98.0 58.0, 95.9 58.0 Q 93.7 58.0, 92.5 56.7 Q 91.4 55.4, 91.4 53.0 M 95.9 56.9 Q 97.3 56.9, 98.1 55.9 Q 99.0 54.9, 99.0 53.0 Q 99.0 51.1, 98.1 50.1 Q 97.3 49.1, 95.9 49.1 Q 94.4 49.1, 93.6 50.1 Q 92.8 51.1, 92.8 53.0 Q 92.8 54.9, 93.6 55.9 Q 94.4 56.9, 95.9 56.9 " fill="#FF0000"/>
<path class="atom-7" d="M 125.8 146.9 Q 125.8 144.6, 126.9 143.3 Q 128.1 142.0, 130.2 142.0 Q 132.4 142.0, 133.6 143.3 Q 134.7 144.6, 134.7 146.9 Q 134.7 149.3, 133.5 150.6 Q 132.4 152.0, 130.2 152.0 Q 128.1 152.0, 126.9 150.6 Q 125.8 149.3, 125.8 146.9 M 130.2 150.9 Q 131.7 150.9, 132.5 149.9 Q 133.3 148.9, 133.3 146.9 Q 133.3 145.0, 132.5 144.0 Q 131.7 143.1, 130.2 143.1 Q 128.8 143.1, 127.9 144.0 Q 127.1 145.0, 127.1 146.9 Q 127.1 148.9, 127.9 149.9 Q 128.8 150.9, 130.2 150.9 " fill="#FF0000"/>
<path class="atom-7" d="M 136.2 142.1 L 137.5 142.1 L 137.5 146.2 L 142.5 146.2 L 142.5 142.1 L 143.8 142.1 L 143.8 151.8 L 142.5 151.8 L 142.5 147.3 L 137.5 147.3 L 137.5 151.8 L 136.2 151.8 L 136.2 142.1 " fill="#FF0000"/>
<path class="atom-8" d="M 125.8 78.2 Q 125.8 75.8, 126.9 74.5 Q 128.1 73.2, 130.2 73.2 Q 132.4 73.2, 133.6 74.5 Q 134.7 75.8, 134.7 78.2 Q 134.7 80.5, 133.5 81.9 Q 132.4 83.2, 130.2 83.2 Q 128.1 83.2, 126.9 81.9 Q 125.8 80.5, 125.8 78.2 M 130.2 82.1 Q 131.7 82.1, 132.5 81.1 Q 133.3 80.1, 133.3 78.2 Q 133.3 76.2, 132.5 75.3 Q 131.7 74.3, 130.2 74.3 Q 128.8 74.3, 127.9 75.3 Q 127.1 76.2, 127.1 78.2 Q 127.1 80.1, 127.9 81.1 Q 128.8 82.1, 130.2 82.1 " fill="#FF0000"/>
<path class="atom-8" d="M 136.2 73.3 L 137.5 73.3 L 137.5 77.5 L 142.5 77.5 L 142.5 73.3 L 143.8 73.3 L 143.8 83.0 L 142.5 83.0 L 142.5 78.6 L 137.5 78.6 L 137.5 83.0 L 136.2 83.0 L 136.2 73.3 " fill="#FF0000"/>
<path class="atom-11" d="M 160.2 53.0 Q 160.2 50.6, 161.3 49.3 Q 162.5 48.0, 164.6 48.0 Q 166.8 48.0, 167.9 49.3 Q 169.1 50.6, 169.1 53.0 Q 169.1 55.3, 167.9 56.7 Q 166.8 58.0, 164.6 58.0 Q 162.5 58.0, 161.3 56.7 Q 160.2 55.4, 160.2 53.0 M 164.6 56.9 Q 166.1 56.9, 166.9 55.9 Q 167.7 54.9, 167.7 53.0 Q 167.7 51.1, 166.9 50.1 Q 166.1 49.1, 164.6 49.1 Q 163.1 49.1, 162.3 50.1 Q 161.5 51.1, 161.5 53.0 Q 161.5 54.9, 162.3 55.9 Q 163.1 56.9, 164.6 56.9 " fill="#FF0000"/>
<path class="atom-13" d="M 228.9 112.5 Q 228.9 110.2, 230.1 108.9 Q 231.2 107.6, 233.4 107.6 Q 235.6 107.6, 236.7 108.9 Q 237.9 110.2, 237.9 112.5 Q 237.9 114.9, 236.7 116.3 Q 235.5 117.6, 233.4 117.6 Q 231.2 117.6, 230.1 116.3 Q 228.9 114.9, 228.9 112.5 M 233.4 116.5 Q 234.9 116.5, 235.7 115.5 Q 236.5 114.5, 236.5 112.5 Q 236.5 110.6, 235.7 109.7 Q 234.9 108.7, 233.4 108.7 Q 231.9 108.7, 231.1 109.6 Q 230.3 110.6, 230.3 112.5 Q 230.3 114.5, 231.1 115.5 Q 231.9 116.5, 233.4 116.5 " fill="#FF0000"/>
<path class="atom-14" d="M 228.9 53.0 Q 228.9 50.6, 230.1 49.3 Q 231.2 48.0, 233.4 48.0 Q 235.6 48.0, 236.7 49.3 Q 237.9 50.6, 237.9 53.0 Q 237.9 55.3, 236.7 56.7 Q 235.5 58.0, 233.4 58.0 Q 231.2 58.0, 230.1 56.7 Q 228.9 55.4, 228.9 53.0 M 233.4 56.9 Q 234.9 56.9, 235.7 55.9 Q 236.5 54.9, 236.5 53.0 Q 236.5 51.1, 235.7 50.1 Q 234.9 49.1, 233.4 49.1 Q 231.9 49.1, 231.1 50.1 Q 230.3 51.1, 230.3 53.0 Q 230.3 54.9, 231.1 55.9 Q 231.9 56.9, 233.4 56.9 " fill="#FF0000"/>
<path class="atom-14" d="M 239.4 48.1 L 240.7 48.1 L 240.7 52.3 L 245.7 52.3 L 245.7 48.1 L 247.0 48.1 L 247.0 57.9 L 245.7 57.9 L 245.7 53.4 L 240.7 53.4 L 240.7 57.9 L 239.4 57.9 L 239.4 48.1 " fill="#FF0000"/>
</g>
    <g transform="translate(260.0, 0) scale(1 1) "><line x1="5" y1="100" x2="35" y2="100" style="stroke:rgb(0,0,0);stroke-width:2"/>
  <line x1="34" y1="100" x2="29" y2="95" style="stroke:rgb(0,0,0);stroke-width:2"/>
  <line x1="34" y1="100" x2="29" y2="105" style="stroke:rgb(0,0,0);stroke-width:2"/>
</g>
    <g transform="translate(300.0, 0) scale(1 1) "><!-- END OF HEADER -->
<rect style="opacity:1.0;fill:#FFFFFF;stroke:none" width="260.0" height="200.0" x="0.0" y="0.0"> </rect>
<path class="bond-0 atom-0 atom-1" d="M 43.0,123.8 L 48.5,107.4" style="fill:none;fill-rule:evenodd;stroke:#FF0000;stroke-width:2.0px;stroke-linecap:butt;stroke-linejoin:miter;stroke-opacity:1"/>
<path class="bond-0 atom-0 atom-1" d="M 48.5,107.4 L 54.0,91.0" style="fill:none;fill-rule:evenodd;stroke:#000000;stroke-width:2.0px;stroke-linecap:butt;stroke-linejoin:miter;stroke-opacity:1"/>
<path class="bond-0 atom-0 atom-1" d="M 48.7,125.8 L 54.2,109.3" style="fill:none;fill-rule:evenodd;stroke:#FF0000;stroke-width:2.0px;stroke-linecap:butt;stroke-linejoin:miter;stroke-opacity:1"/>
<path class="bond-0 atom-0 atom-1" d="M 54.2,109.3 L 59.8,92.9" style="fill:none;fill-rule:evenodd;stroke:#000000;stroke-width:2.0px;stroke-linecap:butt;stroke-linejoin:miter;stroke-opacity:1"/>
<path class="bond-1 atom-1 atom-2" d="M 56.3,93.6 L 46.2,82.1" style="fill:none;fill-rule:evenodd;stroke:#000000;stroke-width:2.0px;stroke-linecap:butt;stroke-linejoin:miter;stroke-opacity:1"/>
<path class="bond-1 atom-1 atom-2" d="M 46.2,82.1 L 36.0,70.6" style="fill:none;fill-rule:evenodd;stroke:#FF0000;stroke-width:2.0px;stroke-linecap:butt;stroke-linejoin:miter;stroke-opacity:1"/>
<path class="bond-2 atom-1 atom-3" d="M 56.3,93.6 L 96.0,85.6" style="fill:none;fill-rule:evenodd;stroke:#000000;stroke-width:2.0px;stroke-linecap:butt;stroke-linejoin:miter;stroke-opacity:1"/>
<path class="bond-3 atom-3 atom-4" d="M 98.3,88.2 L 103.8,71.9" style="fill:none;fill-rule:evenodd;stroke:#000000;stroke-width:2.0px;stroke-linecap:butt;stroke-linejoin:miter;stroke-opacity:1"/>
<path class="bond-3 atom-3 atom-4" d="M 103.8,71.9 L 109.3,55.5" style="fill:none;fill-rule:evenodd;stroke:#FF0000;stroke-width:2.0px;stroke-linecap:butt;stroke-linejoin:miter;stroke-opacity:1"/>
<path class="bond-3 atom-3 atom-4" d="M 92.6,86.3 L 98.1,69.9" style="fill:none;fill-rule:evenodd;stroke:#000000;stroke-width:2.0px;stroke-linecap:butt;stroke-linejoin:miter;stroke-opacity:1"/>
<path class="bond-3 atom-3 atom-4" d="M 98.1,69.9 L 103.6,53.6" style="fill:none;fill-rule:evenodd;stroke:#FF0000;stroke-width:2.0px;stroke-linecap:butt;stroke-linejoin:miter;stroke-opacity:1"/>
<path class="bond-4 atom-3 atom-5" d="M 96.0,85.6 L 122.8,115.9" style="fill:none;fill-rule:evenodd;stroke:#000000;stroke-width:2.0px;stroke-linecap:butt;stroke-linejoin:miter;stroke-opacity:1"/>
<path class="bond-5 atom-5 atom-6" d="M 122.8,115.9 L 162.4,107.9" style="fill:none;fill-rule:evenodd;stroke:#000000;stroke-width:2.0px;stroke-linecap:butt;stroke-linejoin:miter;stroke-opacity:1"/>
<path class="bond-6 atom-6 atom-7" d="M 162.4,107.9 L 175.3,69.6" style="fill:none;fill-rule:evenodd;stroke:#000000;stroke-width:2.0px;stroke-linecap:butt;stroke-linejoin:miter;stroke-opacity:1"/>
<path class="bond-7 atom-7 atom-8" d="M 178.8,68.9 L 168.0,56.7" style="fill:none;fill-rule:evenodd;stroke:#000000;stroke-width:2.0px;stroke-linecap:butt;stroke-linejoin:miter;stroke-opacity:1"/>
<path class="bond-7 atom-7 atom-8" d="M 168.0,56.7 L 157.3,44.5" style="fill:none;fill-rule:evenodd;stroke:#FF0000;stroke-width:2.0px;stroke-linecap:butt;stroke-linejoin:miter;stroke-opacity:1"/>
<path class="bond-7 atom-7 atom-8" d="M 174.2,72.9 L 163.5,60.7" style="fill:none;fill-rule:evenodd;stroke:#000000;stroke-width:2.0px;stroke-linecap:butt;stroke-linejoin:miter;stroke-opacity:1"/>
<path class="bond-7 atom-7 atom-8" d="M 163.5,60.7 L 152.7,48.5" style="fill:none;fill-rule:evenodd;stroke:#FF0000;stroke-width:2.0px;stroke-linecap:butt;stroke-linejoin:miter;stroke-opacity:1"/>
<path class="bond-8 atom-7 atom-9" d="M 175.3,69.6 L 215.0,61.6" style="fill:none;fill-rule:evenodd;stroke:#000000;stroke-width:2.0px;stroke-linecap:butt;stroke-linejoin:miter;stroke-opacity:1"/>
<path class="bond-9 atom-9 atom-10" d="M 211.5,62.3 L 222.4,74.5" style="fill:none;fill-rule:evenodd;stroke:#000000;stroke-width:2.0px;stroke-linecap:butt;stroke-linejoin:miter;stroke-opacity:1"/>
<path class="bond-9 atom-9 atom-10" d="M 222.4,74.5 L 233.2,86.8" style="fill:none;fill-rule:evenodd;stroke:#FF0000;stroke-width:2.0px;stroke-linecap:butt;stroke-linejoin:miter;stroke-opacity:1"/>
<path class="bond-9 atom-9 atom-10" d="M 216.1,58.2 L 226.9,70.5" style="fill:none;fill-rule:evenodd;stroke:#000000;stroke-width:2.0px;stroke-linecap:butt;stroke-linejoin:miter;stroke-opacity:1"/>
<path class="bond-9 atom-9 atom-10" d="M 226.9,70.5 L 237.7,82.8" style="fill:none;fill-rule:evenodd;stroke:#FF0000;stroke-width:2.0px;stroke-linecap:butt;stroke-linejoin:miter;stroke-opacity:1"/>
<path class="bond-10 atom-9 atom-11" d="M 215.0,61.6 L 220.2,46.0" style="fill:none;fill-rule:evenodd;stroke:#000000;stroke-width:2.0px;stroke-linecap:butt;stroke-linejoin:miter;stroke-opacity:1"/>
<path class="bond-10 atom-9 atom-11" d="M 220.2,46.0 L 225.4,30.5" style="fill:none;fill-rule:evenodd;stroke:#FF0000;stroke-width:2.0px;stroke-linecap:butt;stroke-linejoin:miter;stroke-opacity:1"/>
<path class="bond-11 atom-6 atom-12" d="M 162.4,107.9 L 189.2,138.3" style="fill:none;fill-rule:evenodd;stroke:#000000;stroke-width:2.0px;stroke-linecap:butt;stroke-linejoin:miter;stroke-opacity:1"/>
<path class="bond-12 atom-12 atom-13" d="M 189.2,138.3 L 205.7,134.9" style="fill:none;fill-rule:evenodd;stroke:#000000;stroke-width:2.0px;stroke-linecap:butt;stroke-linejoin:miter;stroke-opacity:1"/>
<path class="bond-12 atom-12 atom-13" d="M 205.7,134.9 L 222.3,131.6" style="fill:none;fill-rule:evenodd;stroke:#FF0000;stroke-width:2.0px;stroke-linecap:butt;stroke-linejoin:miter;stroke-opacity:1"/>
<path class="bond-13 atom-12 atom-14" d="M 189.2,138.3 L 183.9,153.9" style="fill:none;fill-rule:evenodd;stroke:#000000;stroke-width:2.0px;stroke-linecap:butt;stroke-linejoin:miter;stroke-opacity:1"/>
<path class="bond-13 atom-12 atom-14" d="M 183.9,153.9 L 178.7,169.5" style="fill:none;fill-rule:evenodd;stroke:#FF0000;stroke-width:2.0px;stroke-linecap:butt;stroke-linejoin:miter;stroke-opacity:1"/>
<path d="M 55.8,93.0 L 56.3,93.6 L 58.3,93.2" style="fill:none;stroke:#000000;stroke-width:2.0px;stroke-linecap:butt;stroke-linejoin:miter;stroke-opacity:1;"/>
<path d="M 94.0,86.0 L 96.0,85.6 L 97.3,87.1" style="fill:none;stroke:#000000;stroke-width:2.0px;stroke-linecap:butt;stroke-linejoin:miter;stroke-opacity:1;"/>
<path d="M 121.4,114.4 L 122.8,115.9 L 124.7,115.5" style="fill:none;stroke:#000000;stroke-width:2.0px;stroke-linecap:butt;stroke-linejoin:miter;stroke-opacity:1;"/>
<path d="M 174.7,71.5 L 175.3,69.6 L 177.3,69.2" style="fill:none;stroke:#000000;stroke-width:2.0px;stroke-linecap:butt;stroke-linejoin:miter;stroke-opacity:1;"/>
<path d="M 213.0,62.0 L 215.0,61.6 L 215.2,60.8" style="fill:none;stroke:#000000;stroke-width:2.0px;stroke-linecap:butt;stroke-linejoin:miter;stroke-opacity:1;"/>
<path class="atom-0" d="M 38.2 132.0 Q 38.2 129.2, 39.5 127.7 Q 40.9 126.2, 43.4 126.2 Q 46.0 126.2, 47.3 127.7 Q 48.7 129.2, 48.7 132.0 Q 48.7 134.8, 47.3 136.3 Q 46.0 137.9, 43.4 137.9 Q 40.9 137.9, 39.5 136.3 Q 38.2 134.8, 38.2 132.0 M 43.4 136.6 Q 45.2 136.6, 46.1 135.5 Q 47.1 134.3, 47.1 132.0 Q 47.1 129.7, 46.1 128.6 Q 45.2 127.4, 43.4 127.4 Q 41.7 127.4, 40.7 128.6 Q 39.8 129.7, 39.8 132.0 Q 39.8 134.3, 40.7 135.5 Q 41.7 136.6, 43.4 136.6 " fill="#FF0000"/>
<path class="atom-2" d="M 13.0 57.6 L 14.6 57.6 L 14.6 62.5 L 20.4 62.5 L 20.4 57.6 L 22.0 57.6 L 22.0 69.0 L 20.4 69.0 L 20.4 63.8 L 14.6 63.8 L 14.6 69.0 L 13.0 69.0 L 13.0 57.6 " fill="#FF0000"/>
<path class="atom-2" d="M 24.3 63.3 Q 24.3 60.5, 25.7 59.0 Q 27.0 57.5, 29.6 57.5 Q 32.1 57.5, 33.5 59.0 Q 34.8 60.5, 34.8 63.3 Q 34.8 66.1, 33.5 67.7 Q 32.1 69.2, 29.6 69.2 Q 27.1 69.2, 25.7 67.7 Q 24.3 66.1, 24.3 63.3 M 29.6 67.9 Q 31.3 67.9, 32.3 66.8 Q 33.2 65.6, 33.2 63.3 Q 33.2 61.0, 32.3 59.9 Q 31.3 58.8, 29.6 58.8 Q 27.8 58.8, 26.9 59.9 Q 25.9 61.0, 25.9 63.3 Q 25.9 65.6, 26.9 66.8 Q 27.8 67.9, 29.6 67.9 " fill="#FF0000"/>
<path class="atom-4" d="M 103.6 47.3 Q 103.6 44.5, 105.0 43.0 Q 106.4 41.4, 108.9 41.4 Q 111.4 41.4, 112.8 43.0 Q 114.2 44.5, 114.2 47.3 Q 114.2 50.1, 112.8 51.6 Q 111.4 53.2, 108.9 53.2 Q 106.4 53.2, 105.0 51.6 Q 103.6 50.1, 103.6 47.3 M 108.9 51.9 Q 110.6 51.9, 111.6 50.7 Q 112.5 49.6, 112.5 47.3 Q 112.5 45.0, 111.6 43.9 Q 110.6 42.7, 108.9 42.7 Q 107.1 42.7, 106.2 43.9 Q 105.3 45.0, 105.3 47.3 Q 105.3 49.6, 106.2 50.7 Q 107.1 51.9, 108.9 51.9 " fill="#FF0000"/>
<path class="atom-8" d="M 143.3 39.3 Q 143.3 36.5, 144.7 35.0 Q 146.0 33.4, 148.6 33.4 Q 151.1 33.4, 152.5 35.0 Q 153.8 36.5, 153.8 39.3 Q 153.8 42.0, 152.4 43.6 Q 151.1 45.2, 148.6 45.2 Q 146.0 45.2, 144.7 43.6 Q 143.3 42.1, 143.3 39.3 M 148.6 43.9 Q 150.3 43.9, 151.2 42.7 Q 152.2 41.6, 152.2 39.3 Q 152.2 37.0, 151.2 35.9 Q 150.3 34.7, 148.6 34.7 Q 146.8 34.7, 145.8 35.9 Q 144.9 37.0, 144.9 39.3 Q 144.9 41.6, 145.8 42.7 Q 146.8 43.9, 148.6 43.9 " fill="#FF0000"/>
<path class="atom-10" d="M 236.5 91.9 Q 236.5 89.2, 237.8 87.6 Q 239.2 86.1, 241.7 86.1 Q 244.3 86.1, 245.6 87.6 Q 247.0 89.2, 247.0 91.9 Q 247.0 94.7, 245.6 96.3 Q 244.2 97.9, 241.7 97.9 Q 239.2 97.9, 237.8 96.3 Q 236.5 94.7, 236.5 91.9 M 241.7 96.6 Q 243.5 96.6, 244.4 95.4 Q 245.4 94.2, 245.4 91.9 Q 245.4 89.7, 244.4 88.6 Q 243.5 87.4, 241.7 87.4 Q 240.0 87.4, 239.0 88.5 Q 238.1 89.7, 238.1 91.9 Q 238.1 94.2, 239.0 95.4 Q 240.0 96.6, 241.7 96.6 " fill="#FF0000"/>
<path class="atom-11" d="M 222.6 23.2 Q 222.6 20.5, 224.0 19.0 Q 225.3 17.4, 227.9 17.4 Q 230.4 17.4, 231.8 19.0 Q 233.1 20.5, 233.1 23.2 Q 233.1 26.0, 231.8 27.6 Q 230.4 29.2, 227.9 29.2 Q 225.3 29.2, 224.0 27.6 Q 222.6 26.0, 222.6 23.2 M 227.9 27.9 Q 229.6 27.9, 230.6 26.7 Q 231.5 25.5, 231.5 23.2 Q 231.5 21.0, 230.6 19.9 Q 229.6 18.7, 227.9 18.7 Q 226.1 18.7, 225.2 19.8 Q 224.2 21.0, 224.2 23.2 Q 224.2 25.6, 225.2 26.7 Q 226.1 27.9, 227.9 27.9 " fill="#FF0000"/>
<path class="atom-11" d="M 234.9 17.5 L 236.5 17.5 L 236.5 22.4 L 242.3 22.4 L 242.3 17.5 L 243.9 17.5 L 243.9 29.0 L 242.3 29.0 L 242.3 23.7 L 236.5 23.7 L 236.5 29.0 L 234.9 29.0 L 234.9 17.5 " fill="#FF0000"/>
<path class="atom-13" d="M 223.6 130.3 Q 223.6 127.5, 224.9 126.0 Q 226.3 124.5, 228.8 124.5 Q 231.4 124.5, 232.7 126.0 Q 234.1 127.5, 234.1 130.3 Q 234.1 133.1, 232.7 134.7 Q 231.4 136.2, 228.8 136.2 Q 226.3 136.2, 224.9 134.7 Q 223.6 133.1, 223.6 130.3 M 228.8 134.9 Q 230.6 134.9, 231.5 133.8 Q 232.5 132.6, 232.5 130.3 Q 232.5 128.0, 231.5 126.9 Q 230.6 125.8, 228.8 125.8 Q 227.1 125.8, 226.1 126.9 Q 225.2 128.0, 225.2 130.3 Q 225.2 132.6, 226.1 133.8 Q 227.1 134.9, 228.8 134.9 " fill="#FF0000"/>
<path class="atom-13" d="M 235.9 124.6 L 237.4 124.6 L 237.4 129.5 L 243.3 129.5 L 243.3 124.6 L 244.9 124.6 L 244.9 136.0 L 243.3 136.0 L 243.3 130.8 L 237.4 130.8 L 237.4 136.0 L 235.9 136.0 L 235.9 124.6 " fill="#FF0000"/>
<path class="atom-14" d="M 171.0 176.6 Q 171.0 173.9, 172.4 172.4 Q 173.8 170.8, 176.3 170.8 Q 178.8 170.8, 180.2 172.4 Q 181.6 173.9, 181.6 176.6 Q 181.6 179.4, 180.2 181.0 Q 178.8 182.6, 176.3 182.6 Q 173.8 182.6, 172.4 181.0 Q 171.0 179.4, 171.0 176.6 M 176.3 181.3 Q 178.0 181.3, 179.0 180.1 Q 179.9 178.9, 179.9 176.6 Q 179.9 174.4, 179.0 173.3 Q 178.0 172.1, 176.3 172.1 Q 174.5 172.1, 173.6 173.2 Q 172.7 174.4, 172.7 176.6 Q 172.7 179.0, 173.6 180.1 Q 174.5 181.3, 176.3 181.3 " fill="#FF0000"/>
<path class="atom-14" d="M 183.3 170.9 L 184.9 170.9 L 184.9 175.8 L 190.7 175.8 L 190.7 170.9 L 192.3 170.9 L 192.3 182.4 L 190.7 182.4 L 190.7 177.1 L 184.9 177.1 L 184.9 182.4 L 183.3 182.4 L 183.3 170.9 " fill="#FF0000"/>
</g>
  </g>
</svg>
