<?xml version='1.0' encoding='ASCII' standalone='yes'?>
<svg xmlns="http://www.w3.org/2000/svg" xmlns:xlink="http://www.w3.org/1999/xlink" version="1.1" width="843.0px" viewBox="0 0 843.0 200.0" height="200.0px">
  <g>
    <g transform="translate(0, 0) scale(1 1) "><!-- END OF HEADER -->
<rect style="opacity:1.0;fill:#FFFFFF;stroke:none" width="265.0" height="200.0" x="0.0" y="0.0"> </rect>
<path class="bond-0 atom-0 atom-1" d="M 203.8,47.7 L 190.9,77.7" style="fill:none;fill-rule:evenodd;stroke:#000000;stroke-width:2.0px;stroke-linecap:butt;stroke-linejoin:miter;stroke-opacity:1"/>
<path class="bond-1 atom-1 atom-2" d="M 190.9,77.7 L 178.0,107.7" style="fill:none;fill-rule:evenodd;stroke:#000000;stroke-width:2.0px;stroke-linecap:butt;stroke-linejoin:miter;stroke-opacity:1"/>
<path class="bond-2 atom-1 atom-3" d="M 190.9,77.7 L 160.9,64.8" style="fill:none;fill-rule:evenodd;stroke:#000000;stroke-width:2.0px;stroke-linecap:butt;stroke-linejoin:miter;stroke-opacity:1"/>
<path class="bond-3 atom-3 atom-4" d="M 160.9,64.8 L 134.7,84.3" style="fill:none;fill-rule:evenodd;stroke:#000000;stroke-width:2.0px;stroke-linecap:butt;stroke-linejoin:miter;stroke-opacity:1"/>
<path class="bond-4 atom-4 atom-5" d="M 134.7,84.3 L 104.7,71.4" style="fill:none;fill-rule:evenodd;stroke:#000000;stroke-width:2.0px;stroke-linecap:butt;stroke-linejoin:miter;stroke-opacity:1"/>
<path class="bond-5 atom-5 atom-6" d="M 104.7,71.4 L 78.6,90.9" style="fill:none;fill-rule:evenodd;stroke:#000000;stroke-width:2.0px;stroke-linecap:butt;stroke-linejoin:miter;stroke-opacity:1"/>
<path class="bond-6 atom-6 atom-7" d="M 78.6,90.9 L 52.4,110.4" style="fill:none;fill-rule:evenodd;stroke:#000000;stroke-width:2.0px;stroke-linecap:butt;stroke-linejoin:miter;stroke-opacity:1"/>
<path class="bond-7 atom-6 atom-8" d="M 78.6,90.9 L 98.1,117.1" style="fill:none;fill-rule:evenodd;stroke:#000000;stroke-width:2.0px;stroke-linecap:butt;stroke-linejoin:miter;stroke-opacity:1"/>
<path class="bond-8 atom-8 atom-9" d="M 98.1,117.1 L 92.9,129.2" style="fill:none;fill-rule:evenodd;stroke:#000000;stroke-width:2.0px;stroke-linecap:butt;stroke-linejoin:miter;stroke-opacity:1"/>
<path class="bond-8 atom-8 atom-9" d="M 92.9,129.2 L 87.7,141.3" style="fill:none;fill-rule:evenodd;stroke:#FF0000;stroke-width:2.0px;stroke-linecap:butt;stroke-linejoin:miter;stroke-opacity:1"/>
<path class="bond-9 atom-6 atom-10" d="M 78.6,90.9 L 59.0,64.8" style="fill:none;fill-rule:evenodd;stroke:#000000;stroke-width:2.0px;stroke-linecap:butt;stroke-linejoin:miter;stroke-opacity:1"/>
<path class="bond-10 atom-10 atom-11" d="M 60.7,67.0 L 66.2,54.3" style="fill:none;fill-rule:evenodd;stroke:#000000;stroke-width:2.0px;stroke-linecap:butt;stroke-linejoin:miter;stroke-opacity:1"/>
<path class="bond-10 atom-10 atom-11" d="M 66.2,54.3 L 71.7,41.6" style="fill:none;fill-rule:evenodd;stroke:#FF0000;stroke-width:2.0px;stroke-linecap:butt;stroke-linejoin:miter;stroke-opacity:1"/>
<path class="bond-10 atom-10 atom-11" d="M 56.2,65.1 L 61.7,52.4" style="fill:none;fill-rule:evenodd;stroke:#000000;stroke-width:2.0px;stroke-linecap:butt;stroke-linejoin:miter;stroke-opacity:1"/>
<path class="bond-10 atom-10 atom-11" d="M 61.7,52.4 L 67.2,39.7" style="fill:none;fill-rule:evenodd;stroke:#FF0000;stroke-width:2.0px;stroke-linecap:butt;stroke-linejoin:miter;stroke-opacity:1"/>
<path class="bond-11 atom-10 atom-12" d="M 59.0,64.8 L 45.5,66.4" style="fill:none;fill-rule:evenodd;stroke:#000000;stroke-width:2.0px;stroke-linecap:butt;stroke-linejoin:miter;stroke-opacity:1"/>
<path class="bond-11 atom-10 atom-12" d="M 45.5,66.4 L 31.9,68.0" style="fill:none;fill-rule:evenodd;stroke:#FF0000;stroke-width:2.0px;stroke-linecap:butt;stroke-linejoin:miter;stroke-opacity:1"/>
<path class="bond-12 atom-1 atom-13" d="M 190.9,77.7 L 220.8,90.6" style="fill:none;fill-rule:evenodd;stroke:#000000;stroke-width:2.0px;stroke-linecap:butt;stroke-linejoin:miter;stroke-opacity:1"/>
<path class="bond-13 atom-13 atom-14" d="M 221.2,93.4 L 232.2,85.2" style="fill:none;fill-rule:evenodd;stroke:#000000;stroke-width:2.0px;stroke-linecap:butt;stroke-linejoin:miter;stroke-opacity:1"/>
<path class="bond-13 atom-13 atom-14" d="M 232.2,85.2 L 243.1,77.0" style="fill:none;fill-rule:evenodd;stroke:#FF0000;stroke-width:2.0px;stroke-linecap:butt;stroke-linejoin:miter;stroke-opacity:1"/>
<path class="bond-13 atom-13 atom-14" d="M 218.2,89.5 L 229.2,81.3" style="fill:none;fill-rule:evenodd;stroke:#000000;stroke-width:2.0px;stroke-linecap:butt;stroke-linejoin:miter;stroke-opacity:1"/>
<path class="bond-13 atom-13 atom-14" d="M 229.2,81.3 L 240.2,73.1" style="fill:none;fill-rule:evenodd;stroke:#FF0000;stroke-width:2.0px;stroke-linecap:butt;stroke-linejoin:miter;stroke-opacity:1"/>
<path class="bond-14 atom-13 atom-15" d="M 220.8,90.6 L 222.4,103.9" style="fill:none;fill-rule:evenodd;stroke:#000000;stroke-width:2.0px;stroke-linecap:butt;stroke-linejoin:miter;stroke-opacity:1"/>
<path class="bond-14 atom-13 atom-15" d="M 222.4,103.9 L 224.0,117.2" style="fill:none;fill-rule:evenodd;stroke:#FF0000;stroke-width:2.0px;stroke-linecap:butt;stroke-linejoin:miter;stroke-opacity:1"/>
<path d="M 162.4,65.4 L 160.9,64.8 L 159.6,65.8" style="fill:none;stroke:#000000;stroke-width:2.0px;stroke-linecap:butt;stroke-linejoin:miter;stroke-opacity:1;"/>
<path d="M 136.0,83.3 L 134.7,84.3 L 133.2,83.7" style="fill:none;stroke:#000000;stroke-width:2.0px;stroke-linecap:butt;stroke-linejoin:miter;stroke-opacity:1;"/>
<path d="M 106.2,72.1 L 104.7,71.4 L 103.4,72.4" style="fill:none;stroke:#000000;stroke-width:2.0px;stroke-linecap:butt;stroke-linejoin:miter;stroke-opacity:1;"/>
<path d="M 97.1,115.8 L 98.1,117.1 L 97.8,117.7" style="fill:none;stroke:#000000;stroke-width:2.0px;stroke-linecap:butt;stroke-linejoin:miter;stroke-opacity:1;"/>
<path d="M 60.0,66.1 L 59.0,64.8 L 58.4,64.8" style="fill:none;stroke:#000000;stroke-width:2.0px;stroke-linecap:butt;stroke-linejoin:miter;stroke-opacity:1;"/>
<path d="M 219.3,89.9 L 220.8,90.6 L 220.9,91.2" style="fill:none;stroke:#000000;stroke-width:2.0px;stroke-linecap:butt;stroke-linejoin:miter;stroke-opacity:1;"/>
<path class="atom-9" d="M 71.8 142.5 L 73.1 142.5 L 73.1 146.4 L 77.8 146.4 L 77.8 142.5 L 79.0 142.5 L 79.0 151.8 L 77.8 151.8 L 77.8 147.5 L 73.1 147.5 L 73.1 151.8 L 71.8 151.8 L 71.8 142.5 " fill="#FF0000"/>
<path class="atom-9" d="M 80.9 147.1 Q 80.9 144.9, 82.0 143.6 Q 83.1 142.4, 85.2 142.4 Q 87.2 142.4, 88.3 143.6 Q 89.4 144.9, 89.4 147.1 Q 89.4 149.3, 88.3 150.6 Q 87.2 151.9, 85.2 151.9 Q 83.1 151.9, 82.0 150.6 Q 80.9 149.4, 80.9 147.1 M 85.2 150.9 Q 86.6 150.9, 87.3 149.9 Q 88.1 149.0, 88.1 147.1 Q 88.1 145.3, 87.3 144.4 Q 86.6 143.4, 85.2 143.4 Q 83.8 143.4, 83.0 144.4 Q 82.2 145.3, 82.2 147.1 Q 82.2 149.0, 83.0 149.9 Q 83.8 150.9, 85.2 150.9 " fill="#FF0000"/>
<path class="atom-11" d="M 67.7 34.8 Q 67.7 32.6, 68.8 31.3 Q 69.9 30.1, 71.9 30.1 Q 74.0 30.1, 75.1 31.3 Q 76.2 32.6, 76.2 34.8 Q 76.2 37.1, 75.1 38.3 Q 74.0 39.6, 71.9 39.6 Q 69.9 39.6, 68.8 38.3 Q 67.7 37.1, 67.7 34.8 M 71.9 38.6 Q 73.3 38.6, 74.1 37.6 Q 74.9 36.7, 74.9 34.8 Q 74.9 33.0, 74.1 32.1 Q 73.3 31.1, 71.9 31.1 Q 70.5 31.1, 69.8 32.1 Q 69.0 33.0, 69.0 34.8 Q 69.0 36.7, 69.8 37.6 Q 70.5 38.6, 71.9 38.6 " fill="#FF0000"/>
<path class="atom-12" d="M 13.2 64.0 L 14.5 64.0 L 14.5 67.9 L 19.2 67.9 L 19.2 64.0 L 20.5 64.0 L 20.5 73.3 L 19.2 73.3 L 19.2 69.0 L 14.5 69.0 L 14.5 73.3 L 13.2 73.3 L 13.2 64.0 " fill="#FF0000"/>
<path class="atom-12" d="M 22.4 68.6 Q 22.4 66.4, 23.5 65.2 Q 24.6 63.9, 26.6 63.9 Q 28.7 63.9, 29.8 65.2 Q 30.9 66.4, 30.9 68.6 Q 30.9 70.9, 29.8 72.1 Q 28.6 73.4, 26.6 73.4 Q 24.6 73.4, 23.5 72.1 Q 22.4 70.9, 22.4 68.6 M 26.6 72.4 Q 28.0 72.4, 28.8 71.4 Q 29.6 70.5, 29.6 68.6 Q 29.6 66.8, 28.8 65.9 Q 28.0 65.0, 26.6 65.0 Q 25.2 65.0, 24.4 65.9 Q 23.7 66.8, 23.7 68.6 Q 23.7 70.5, 24.4 71.4 Q 25.2 72.4, 26.6 72.4 " fill="#FF0000"/>
<path class="atom-14" d="M 242.8 71.1 Q 242.8 68.9, 243.9 67.6 Q 245.0 66.4, 247.0 66.4 Q 249.1 66.4, 250.2 67.6 Q 251.2 68.9, 251.2 71.1 Q 251.2 73.3, 250.1 74.6 Q 249.0 75.9, 247.0 75.9 Q 245.0 75.9, 243.9 74.6 Q 242.8 73.3, 242.8 71.1 M 247.0 74.8 Q 248.4 74.8, 249.2 73.9 Q 249.9 72.9, 249.9 71.1 Q 249.9 69.3, 249.2 68.4 Q 248.4 67.4, 247.0 67.4 Q 245.6 67.4, 244.8 68.3 Q 244.1 69.3, 244.1 71.1 Q 244.1 73.0, 244.8 73.9 Q 245.6 74.8, 247.0 74.8 " fill="#FF0000"/>
<path class="atom-15" d="M 220.4 123.0 Q 220.4 120.8, 221.5 119.6 Q 222.6 118.3, 224.7 118.3 Q 226.7 118.3, 227.8 119.6 Q 228.9 120.8, 228.9 123.0 Q 228.9 125.3, 227.8 126.6 Q 226.7 127.8, 224.7 127.8 Q 222.6 127.8, 221.5 126.6 Q 220.4 125.3, 220.4 123.0 M 224.7 126.8 Q 226.1 126.8, 226.8 125.8 Q 227.6 124.9, 227.6 123.0 Q 227.6 121.2, 226.8 120.3 Q 226.1 119.4, 224.7 119.4 Q 223.3 119.4, 222.5 120.3 Q 221.7 121.2, 221.7 123.0 Q 221.7 124.9, 222.5 125.8 Q 223.3 126.8, 224.7 126.8 " fill="#FF0000"/>
<path class="atom-15" d="M 230.3 118.4 L 231.6 118.4 L 231.6 122.4 L 236.3 122.4 L 236.3 118.4 L 237.6 118.4 L 237.6 127.7 L 236.3 127.7 L 236.3 123.4 L 231.6 123.4 L 231.6 127.7 L 230.3 127.7 L 230.3 118.4 " fill="#FF0000"/>
<path class="legend" d="M 123.7 181.9 Q 123.7 179.6, 124.4 177.7 Q 125.1 175.8, 126.4 173.8 L 127.3 174.4 Q 126.2 176.3, 125.7 178.0 Q 125.2 179.7, 125.2 181.9 Q 125.2 184.0, 125.7 185.8 Q 126.2 187.5, 127.3 189.4 L 126.4 190.0 Q 125.1 188.0, 124.4 186.1 Q 123.7 184.2, 123.7 181.9 " fill="#000000"/>
<path class="legend" d="M 128.2 177.3 Q 128.6 176.2, 129.6 175.6 Q 130.6 175.0, 132.0 175.0 Q 133.7 175.0, 134.6 175.9 Q 135.6 176.8, 135.6 178.5 Q 135.6 180.2, 134.3 181.7 Q 133.1 183.3, 130.6 185.2 L 135.8 185.2 L 135.8 186.4 L 128.2 186.4 L 128.2 185.4 Q 130.3 183.9, 131.5 182.8 Q 132.8 181.6, 133.4 180.6 Q 134.0 179.6, 134.0 178.6 Q 134.0 177.5, 133.4 176.9 Q 132.9 176.3, 132.0 176.3 Q 131.1 176.3, 130.4 176.6 Q 129.8 177.0, 129.4 177.8 L 128.2 177.3 " fill="#000000"/>
<path class="legend" d="M 140.8 181.9 Q 140.8 184.2, 140.1 186.1 Q 139.4 188.0, 138.1 190.0 L 137.2 189.4 Q 138.3 187.5, 138.8 185.8 Q 139.3 184.0, 139.3 181.9 Q 139.3 179.7, 138.8 178.0 Q 138.3 176.3, 137.2 174.4 L 138.1 173.8 Q 139.4 175.8, 140.1 177.7 Q 140.8 179.6, 140.8 181.9 " fill="#000000"/>
</g>
    <g transform="translate(265.0, 0) scale(1 1) "><line x1="5" y1="100" x2="35" y2="100" style="stroke:rgb(0,0,0);stroke-width:2"/>
  <line x1="34" y1="100" x2="29" y2="95" style="stroke:rgb(0,0,0);stroke-width:2"/>
  <line x1="34" y1="100" x2="29" y2="105" style="stroke:rgb(0,0,0);stroke-width:2"/>
</g>
    <g transform="translate(305.0, 0) scale(1 1) "><!-- END OF HEADER -->
<rect style="opacity:1.0;fill:#FFFFFF;stroke:none" width="194.0" height="200.0" x="0.0" y="0.0"> </rect>
<path class="bond-0 atom-0 atom-1" d="M 128.2,32.5 L 103.6,75.1" style="fill:none;fill-rule:evenodd;stroke:#000000;stroke-width:2.0px;stroke-linecap:butt;stroke-linejoin:miter;stroke-opacity:1"/>
<path class="bond-1 atom-1 atom-2" d="M 103.6,75.1 L 54.4,75.1" style="fill:none;fill-rule:evenodd;stroke:#000000;stroke-width:2.0px;stroke-linecap:butt;stroke-linejoin:miter;stroke-opacity:1"/>
<path class="bond-2 atom-2 atom-3" d="M 54.4,75.1 L 44.6,92.0" style="fill:none;fill-rule:evenodd;stroke:#000000;stroke-width:2.0px;stroke-linecap:butt;stroke-linejoin:miter;stroke-opacity:1"/>
<path class="bond-2 atom-2 atom-3" d="M 44.6,92.0 L 34.8,109.0" style="fill:none;fill-rule:evenodd;stroke:#FF0000;stroke-width:2.0px;stroke-linecap:butt;stroke-linejoin:miter;stroke-opacity:1"/>
<path class="bond-3 atom-1 atom-4" d="M 103.6,75.1 L 128.2,117.7" style="fill:none;fill-rule:evenodd;stroke:#000000;stroke-width:2.0px;stroke-linecap:butt;stroke-linejoin:miter;stroke-opacity:1"/>
<path class="bond-4 atom-4 atom-5" d="M 126.0,121.3 L 147.7,121.3" style="fill:none;fill-rule:evenodd;stroke:#000000;stroke-width:2.0px;stroke-linecap:butt;stroke-linejoin:miter;stroke-opacity:1"/>
<path class="bond-4 atom-4 atom-5" d="M 147.7,121.3 L 169.3,121.3" style="fill:none;fill-rule:evenodd;stroke:#FF0000;stroke-width:2.0px;stroke-linecap:butt;stroke-linejoin:miter;stroke-opacity:1"/>
<path class="bond-4 atom-4 atom-5" d="M 126.0,114.0 L 147.7,114.0" style="fill:none;fill-rule:evenodd;stroke:#000000;stroke-width:2.0px;stroke-linecap:butt;stroke-linejoin:miter;stroke-opacity:1"/>
<path class="bond-4 atom-4 atom-5" d="M 147.7,114.0 L 169.3,114.0" style="fill:none;fill-rule:evenodd;stroke:#FF0000;stroke-width:2.0px;stroke-linecap:butt;stroke-linejoin:miter;stroke-opacity:1"/>
<path class="bond-5 atom-4 atom-6" d="M 128.2,117.7 L 118.4,134.6" style="fill:none;fill-rule:evenodd;stroke:#000000;stroke-width:2.0px;stroke-linecap:butt;stroke-linejoin:miter;stroke-opacity:1"/>
<path class="bond-5 atom-4 atom-6" d="M 118.4,134.6 L 108.6,151.6" style="fill:none;fill-rule:evenodd;stroke:#FF0000;stroke-width:2.0px;stroke-linecap:butt;stroke-linejoin:miter;stroke-opacity:1"/>
<path d="M 56.9,75.1 L 54.4,75.1 L 53.9,75.9" style="fill:none;stroke:#000000;stroke-width:2.0px;stroke-linecap:butt;stroke-linejoin:miter;stroke-opacity:1;"/>
<path d="M 126.9,115.5 L 128.2,117.7 L 127.7,118.5" style="fill:none;stroke:#000000;stroke-width:2.0px;stroke-linecap:butt;stroke-linejoin:miter;stroke-opacity:1;"/>
<path class="atom-3" d="M 9.7 110.8 L 11.6 110.8 L 11.6 116.7 L 18.7 116.7 L 18.7 110.8 L 20.6 110.8 L 20.6 124.7 L 18.7 124.7 L 18.7 118.3 L 11.6 118.3 L 11.6 124.7 L 9.7 124.7 L 9.7 110.8 " fill="#FF0000"/>
<path class="atom-3" d="M 23.4 117.7 Q 23.4 114.4, 25.1 112.5 Q 26.8 110.6, 29.8 110.6 Q 32.9 110.6, 34.6 112.5 Q 36.2 114.4, 36.2 117.7 Q 36.2 121.1, 34.6 123.0 Q 32.9 124.9, 29.8 124.9 Q 26.8 124.9, 25.1 123.0 Q 23.4 121.1, 23.4 117.7 M 29.8 123.3 Q 32.0 123.3, 33.1 121.9 Q 34.3 120.5, 34.3 117.7 Q 34.3 115.0, 33.1 113.6 Q 32.0 112.2, 29.8 112.2 Q 27.7 112.2, 26.6 113.6 Q 25.4 114.9, 25.4 117.7 Q 25.4 120.5, 26.6 121.9 Q 27.7 123.3, 29.8 123.3 " fill="#FF0000"/>
<path class="atom-5" d="M 170.9 117.7 Q 170.9 114.4, 172.6 112.5 Q 174.2 110.6, 177.3 110.6 Q 180.4 110.6, 182.0 112.5 Q 183.7 114.4, 183.7 117.7 Q 183.7 121.1, 182.0 123.0 Q 180.4 124.9, 177.3 124.9 Q 174.2 124.9, 172.6 123.0 Q 170.9 121.1, 170.9 117.7 M 177.3 123.3 Q 179.4 123.3, 180.6 121.9 Q 181.7 120.5, 181.7 117.7 Q 181.7 115.0, 180.6 113.6 Q 179.4 112.2, 177.3 112.2 Q 175.2 112.2, 174.0 113.6 Q 172.9 114.9, 172.9 117.7 Q 172.9 120.5, 174.0 121.9 Q 175.2 123.3, 177.3 123.3 " fill="#FF0000"/>
<path class="atom-6" d="M 83.4 153.3 L 85.3 153.3 L 85.3 159.3 L 92.4 159.3 L 92.4 153.3 L 94.3 153.3 L 94.3 167.3 L 92.4 167.3 L 92.4 160.8 L 85.3 160.8 L 85.3 167.3 L 83.4 167.3 L 83.4 153.3 " fill="#FF0000"/>
<path class="atom-6" d="M 97.2 160.3 Q 97.2 156.9, 98.8 155.1 Q 100.5 153.2, 103.6 153.2 Q 106.7 153.2, 108.3 155.1 Q 110.0 156.9, 110.0 160.3 Q 110.0 163.7, 108.3 165.6 Q 106.6 167.5, 103.6 167.5 Q 100.5 167.5, 98.8 165.6 Q 97.2 163.7, 97.2 160.3 M 103.6 165.9 Q 105.7 165.9, 106.8 164.5 Q 108.0 163.1, 108.0 160.3 Q 108.0 157.5, 106.8 156.2 Q 105.7 154.8, 103.6 154.8 Q 101.5 154.8, 100.3 156.1 Q 99.1 157.5, 99.1 160.3 Q 99.1 163.1, 100.3 164.5 Q 101.5 165.9, 103.6 165.9 " fill="#FF0000"/>
</g>
    <g transform="translate(499.0, 0) scale(1 1) "><line x1="15" y1="100" x2="25" y2="100" style="stroke:rgb(0,0,0);stroke-width:2"/>
  <line x1="20" y1="95" x2="20" y2="105" style="stroke:rgb(0,0,0);stroke-width:2"/>
</g>
    <g transform="translate(539.0, 0) scale(1 1) "><!-- END OF HEADER -->
<rect style="opacity:1.0;fill:#FFFFFF;stroke:none" width="304.0" height="200.0" x="0.0" y="0.0"> </rect>
<path class="bond-0 atom-0 atom-1" d="M 248.4,40.2 L 232.9,65.5" style="fill:none;fill-rule:evenodd;stroke:#000000;stroke-width:2.0px;stroke-linecap:butt;stroke-linejoin:miter;stroke-opacity:1"/>
<path class="bond-1 atom-1 atom-2" d="M 232.9,65.5 L 217.5,90.9" style="fill:none;fill-rule:evenodd;stroke:#000000;stroke-width:2.0px;stroke-linecap:butt;stroke-linejoin:miter;stroke-opacity:1"/>
<path class="bond-2 atom-1 atom-3" d="M 232.9,65.5 L 207.6,50.1" style="fill:none;fill-rule:evenodd;stroke:#000000;stroke-width:2.0px;stroke-linecap:butt;stroke-linejoin:miter;stroke-opacity:1"/>
<path class="bond-3 atom-3 atom-4" d="M 207.6,50.1 L 181.5,64.4" style="fill:none;fill-rule:evenodd;stroke:#000000;stroke-width:2.0px;stroke-linecap:butt;stroke-linejoin:miter;stroke-opacity:1"/>
<path class="bond-4 atom-4 atom-5" d="M 181.5,64.4 L 156.2,48.9" style="fill:none;fill-rule:evenodd;stroke:#000000;stroke-width:2.0px;stroke-linecap:butt;stroke-linejoin:miter;stroke-opacity:1"/>
<path class="bond-5 atom-5 atom-6" d="M 156.2,48.9 L 130.2,63.2" style="fill:none;fill-rule:evenodd;stroke:#000000;stroke-width:2.0px;stroke-linecap:butt;stroke-linejoin:miter;stroke-opacity:1"/>
<path class="bond-6 atom-6 atom-7" d="M 130.2,63.2 L 104.8,47.7" style="fill:none;fill-rule:evenodd;stroke:#000000;stroke-width:2.0px;stroke-linecap:butt;stroke-linejoin:miter;stroke-opacity:1"/>
<path class="bond-7 atom-7 atom-8" d="M 104.8,47.7 L 78.8,62.0" style="fill:none;fill-rule:evenodd;stroke:#000000;stroke-width:2.0px;stroke-linecap:butt;stroke-linejoin:miter;stroke-opacity:1"/>
<path class="bond-8 atom-8 atom-9" d="M 78.8,62.0 L 93.0,88.0" style="fill:none;fill-rule:evenodd;stroke:#000000;stroke-width:2.0px;stroke-linecap:butt;stroke-linejoin:miter;stroke-opacity:1"/>
<path class="bond-9 atom-8 atom-10" d="M 78.8,62.0 L 64.5,36.0" style="fill:none;fill-rule:evenodd;stroke:#000000;stroke-width:2.0px;stroke-linecap:butt;stroke-linejoin:miter;stroke-opacity:1"/>
<path class="bond-10 atom-8 atom-11" d="M 78.8,62.0 L 52.7,76.2" style="fill:none;fill-rule:evenodd;stroke:#000000;stroke-width:2.0px;stroke-linecap:butt;stroke-linejoin:miter;stroke-opacity:1"/>
<path class="bond-11 atom-11 atom-12" d="M 50.5,74.9 L 50.2,87.8" style="fill:none;fill-rule:evenodd;stroke:#000000;stroke-width:2.0px;stroke-linecap:butt;stroke-linejoin:miter;stroke-opacity:1"/>
<path class="bond-11 atom-11 atom-12" d="M 50.2,87.8 L 49.9,100.6" style="fill:none;fill-rule:evenodd;stroke:#FF0000;stroke-width:2.0px;stroke-linecap:butt;stroke-linejoin:miter;stroke-opacity:1"/>
<path class="bond-11 atom-11 atom-12" d="M 55.0,75.0 L 54.7,87.9" style="fill:none;fill-rule:evenodd;stroke:#000000;stroke-width:2.0px;stroke-linecap:butt;stroke-linejoin:miter;stroke-opacity:1"/>
<path class="bond-11 atom-11 atom-12" d="M 54.7,87.9 L 54.4,100.7" style="fill:none;fill-rule:evenodd;stroke:#FF0000;stroke-width:2.0px;stroke-linecap:butt;stroke-linejoin:miter;stroke-opacity:1"/>
<path class="bond-12 atom-11 atom-13" d="M 52.7,76.2 L 42.5,70.0" style="fill:none;fill-rule:evenodd;stroke:#000000;stroke-width:2.0px;stroke-linecap:butt;stroke-linejoin:miter;stroke-opacity:1"/>
<path class="bond-12 atom-11 atom-13" d="M 42.5,70.0 L 32.2,63.8" style="fill:none;fill-rule:evenodd;stroke:#FF0000;stroke-width:2.0px;stroke-linecap:butt;stroke-linejoin:miter;stroke-opacity:1"/>
<path class="bond-13 atom-6 atom-14" d="M 130.2,63.2 L 129.5,92.8" style="fill:none;fill-rule:evenodd;stroke:#000000;stroke-width:2.0px;stroke-linecap:butt;stroke-linejoin:miter;stroke-opacity:1"/>
<path class="bond-14 atom-14 atom-15" d="M 129.5,92.8 L 154.8,108.3" style="fill:none;fill-rule:evenodd;stroke:#000000;stroke-width:2.0px;stroke-linecap:butt;stroke-linejoin:miter;stroke-opacity:1"/>
<path class="bond-15 atom-15 atom-16" d="M 154.8,108.3 L 180.2,123.7" style="fill:none;fill-rule:evenodd;stroke:#000000;stroke-width:2.0px;stroke-linecap:butt;stroke-linejoin:miter;stroke-opacity:1"/>
<path class="bond-16 atom-15 atom-17" d="M 154.8,108.3 L 170.3,82.9" style="fill:none;fill-rule:evenodd;stroke:#000000;stroke-width:2.0px;stroke-linecap:butt;stroke-linejoin:miter;stroke-opacity:1"/>
<path class="bond-17 atom-17 atom-18" d="M 170.3,82.9 L 182.7,83.2" style="fill:none;fill-rule:evenodd;stroke:#000000;stroke-width:2.0px;stroke-linecap:butt;stroke-linejoin:miter;stroke-opacity:1"/>
<path class="bond-17 atom-17 atom-18" d="M 182.7,83.2 L 195.1,83.5" style="fill:none;fill-rule:evenodd;stroke:#FF0000;stroke-width:2.0px;stroke-linecap:butt;stroke-linejoin:miter;stroke-opacity:1"/>
<path class="bond-18 atom-15 atom-19" d="M 154.8,108.3 L 139.4,133.6" style="fill:none;fill-rule:evenodd;stroke:#000000;stroke-width:2.0px;stroke-linecap:butt;stroke-linejoin:miter;stroke-opacity:1"/>
<path class="bond-19 atom-19 atom-20" d="M 140.7,131.4 L 127.7,131.1" style="fill:none;fill-rule:evenodd;stroke:#000000;stroke-width:2.0px;stroke-linecap:butt;stroke-linejoin:miter;stroke-opacity:1"/>
<path class="bond-19 atom-19 atom-20" d="M 127.7,131.1 L 114.6,130.8" style="fill:none;fill-rule:evenodd;stroke:#FF0000;stroke-width:2.0px;stroke-linecap:butt;stroke-linejoin:miter;stroke-opacity:1"/>
<path class="bond-19 atom-19 atom-20" d="M 140.6,135.9 L 127.6,135.6" style="fill:none;fill-rule:evenodd;stroke:#000000;stroke-width:2.0px;stroke-linecap:butt;stroke-linejoin:miter;stroke-opacity:1"/>
<path class="bond-19 atom-19 atom-20" d="M 127.6,135.6 L 114.5,135.3" style="fill:none;fill-rule:evenodd;stroke:#FF0000;stroke-width:2.0px;stroke-linecap:butt;stroke-linejoin:miter;stroke-opacity:1"/>
<path class="bond-20 atom-19 atom-21" d="M 139.4,133.6 L 145.1,144.0" style="fill:none;fill-rule:evenodd;stroke:#000000;stroke-width:2.0px;stroke-linecap:butt;stroke-linejoin:miter;stroke-opacity:1"/>
<path class="bond-20 atom-19 atom-21" d="M 145.1,144.0 L 150.8,154.4" style="fill:none;fill-rule:evenodd;stroke:#FF0000;stroke-width:2.0px;stroke-linecap:butt;stroke-linejoin:miter;stroke-opacity:1"/>
<path class="bond-21 atom-1 atom-22" d="M 232.9,65.5 L 258.3,81.0" style="fill:none;fill-rule:evenodd;stroke:#000000;stroke-width:2.0px;stroke-linecap:butt;stroke-linejoin:miter;stroke-opacity:1"/>
<path class="bond-22 atom-22 atom-23" d="M 258.2,83.5 L 269.4,77.4" style="fill:none;fill-rule:evenodd;stroke:#000000;stroke-width:2.0px;stroke-linecap:butt;stroke-linejoin:miter;stroke-opacity:1"/>
<path class="bond-22 atom-22 atom-23" d="M 269.4,77.4 L 280.6,71.3" style="fill:none;fill-rule:evenodd;stroke:#FF0000;stroke-width:2.0px;stroke-linecap:butt;stroke-linejoin:miter;stroke-opacity:1"/>
<path class="bond-22 atom-22 atom-23" d="M 256.1,79.6 L 267.3,73.5" style="fill:none;fill-rule:evenodd;stroke:#000000;stroke-width:2.0px;stroke-linecap:butt;stroke-linejoin:miter;stroke-opacity:1"/>
<path class="bond-22 atom-22 atom-23" d="M 267.3,73.5 L 278.4,67.4" style="fill:none;fill-rule:evenodd;stroke:#FF0000;stroke-width:2.0px;stroke-linecap:butt;stroke-linejoin:miter;stroke-opacity:1"/>
<path class="bond-23 atom-22 atom-24" d="M 258.3,81.0 L 258.0,93.2" style="fill:none;fill-rule:evenodd;stroke:#000000;stroke-width:2.0px;stroke-linecap:butt;stroke-linejoin:miter;stroke-opacity:1"/>
<path class="bond-23 atom-22 atom-24" d="M 258.0,93.2 L 257.7,105.4" style="fill:none;fill-rule:evenodd;stroke:#FF0000;stroke-width:2.0px;stroke-linecap:butt;stroke-linejoin:miter;stroke-opacity:1"/>
<path d="M 208.9,50.9 L 207.6,50.1 L 206.3,50.8" style="fill:none;stroke:#000000;stroke-width:2.0px;stroke-linecap:butt;stroke-linejoin:miter;stroke-opacity:1;"/>
<path d="M 182.9,63.6 L 181.5,64.4 L 180.3,63.6" style="fill:none;stroke:#000000;stroke-width:2.0px;stroke-linecap:butt;stroke-linejoin:miter;stroke-opacity:1;"/>
<path d="M 157.5,49.7 L 156.2,48.9 L 154.9,49.6" style="fill:none;stroke:#000000;stroke-width:2.0px;stroke-linecap:butt;stroke-linejoin:miter;stroke-opacity:1;"/>
<path d="M 106.1,48.5 L 104.8,47.7 L 103.5,48.5" style="fill:none;stroke:#000000;stroke-width:2.0px;stroke-linecap:butt;stroke-linejoin:miter;stroke-opacity:1;"/>
<path d="M 54.0,75.5 L 52.7,76.2 L 52.2,75.9" style="fill:none;stroke:#000000;stroke-width:2.0px;stroke-linecap:butt;stroke-linejoin:miter;stroke-opacity:1;"/>
<path d="M 129.5,91.4 L 129.5,92.8 L 130.7,93.6" style="fill:none;stroke:#000000;stroke-width:2.0px;stroke-linecap:butt;stroke-linejoin:miter;stroke-opacity:1;"/>
<path d="M 169.5,84.2 L 170.3,82.9 L 170.9,82.9" style="fill:none;stroke:#000000;stroke-width:2.0px;stroke-linecap:butt;stroke-linejoin:miter;stroke-opacity:1;"/>
<path d="M 140.2,132.4 L 139.4,133.6 L 139.7,134.1" style="fill:none;stroke:#000000;stroke-width:2.0px;stroke-linecap:butt;stroke-linejoin:miter;stroke-opacity:1;"/>
<path d="M 257.0,80.2 L 258.3,81.0 L 258.3,81.6" style="fill:none;stroke:#000000;stroke-width:2.0px;stroke-linecap:butt;stroke-linejoin:miter;stroke-opacity:1;"/>
<path class="atom-12" d="M 48.2 105.9 Q 48.2 103.9, 49.2 102.8 Q 50.2 101.7, 52.0 101.7 Q 53.9 101.7, 54.9 102.8 Q 55.9 103.9, 55.9 105.9 Q 55.9 108.0, 54.9 109.1 Q 53.9 110.3, 52.0 110.3 Q 50.2 110.3, 49.2 109.1 Q 48.2 108.0, 48.2 105.9 M 52.0 109.3 Q 53.3 109.3, 54.0 108.5 Q 54.7 107.6, 54.7 105.9 Q 54.7 104.3, 54.0 103.5 Q 53.3 102.6, 52.0 102.6 Q 50.8 102.6, 50.1 103.4 Q 49.4 104.3, 49.4 105.9 Q 49.4 107.6, 50.1 108.5 Q 50.8 109.3, 52.0 109.3 " fill="#FF0000"/>
<path class="atom-13" d="M 15.2 56.7 L 16.3 56.7 L 16.3 60.2 L 20.6 60.2 L 20.6 56.7 L 21.8 56.7 L 21.8 65.1 L 20.6 65.1 L 20.6 61.2 L 16.3 61.2 L 16.3 65.1 L 15.2 65.1 L 15.2 56.7 " fill="#FF0000"/>
<path class="atom-13" d="M 23.5 60.8 Q 23.5 58.8, 24.5 57.7 Q 25.5 56.6, 27.4 56.6 Q 29.2 56.6, 30.2 57.7 Q 31.2 58.8, 31.2 60.8 Q 31.2 62.9, 30.2 64.0 Q 29.2 65.2, 27.4 65.2 Q 25.5 65.2, 24.5 64.0 Q 23.5 62.9, 23.5 60.8 M 27.4 64.2 Q 28.6 64.2, 29.3 63.4 Q 30.0 62.5, 30.0 60.8 Q 30.0 59.2, 29.3 58.4 Q 28.6 57.5, 27.4 57.5 Q 26.1 57.5, 25.4 58.3 Q 24.7 59.2, 24.7 60.8 Q 24.7 62.5, 25.4 63.4 Q 26.1 64.2, 27.4 64.2 " fill="#FF0000"/>
<path class="atom-18" d="M 196.1 83.6 Q 196.1 81.6, 197.1 80.5 Q 198.1 79.3, 199.9 79.3 Q 201.8 79.3, 202.8 80.5 Q 203.8 81.6, 203.8 83.6 Q 203.8 85.7, 202.8 86.8 Q 201.8 88.0, 199.9 88.0 Q 198.1 88.0, 197.1 86.8 Q 196.1 85.7, 196.1 83.6 M 199.9 87.0 Q 201.2 87.0, 201.9 86.2 Q 202.6 85.3, 202.6 83.6 Q 202.6 82.0, 201.9 81.1 Q 201.2 80.3, 199.9 80.3 Q 198.6 80.3, 197.9 81.1 Q 197.3 82.0, 197.3 83.6 Q 197.3 85.3, 197.9 86.2 Q 198.6 87.0, 199.9 87.0 " fill="#FF0000"/>
<path class="atom-18" d="M 205.1 79.4 L 206.2 79.4 L 206.2 83.0 L 210.5 83.0 L 210.5 79.4 L 211.7 79.4 L 211.7 87.8 L 210.5 87.8 L 210.5 84.0 L 206.2 84.0 L 206.2 87.8 L 205.1 87.8 L 205.1 79.4 " fill="#FF0000"/>
<path class="atom-20" d="M 105.9 133.0 Q 105.9 131.0, 106.9 129.8 Q 107.9 128.7, 109.7 128.7 Q 111.6 128.7, 112.6 129.8 Q 113.6 131.0, 113.6 133.0 Q 113.6 135.0, 112.6 136.2 Q 111.6 137.3, 109.7 137.3 Q 107.9 137.3, 106.9 136.2 Q 105.9 135.0, 105.9 133.0 M 109.7 136.4 Q 111.0 136.4, 111.7 135.5 Q 112.4 134.7, 112.4 133.0 Q 112.4 131.3, 111.7 130.5 Q 111.0 129.6, 109.7 129.6 Q 108.4 129.6, 107.7 130.5 Q 107.1 131.3, 107.1 133.0 Q 107.1 134.7, 107.7 135.5 Q 108.4 136.4, 109.7 136.4 " fill="#FF0000"/>
<path class="atom-21" d="M 149.8 159.7 Q 149.8 157.7, 150.8 156.5 Q 151.8 155.4, 153.6 155.4 Q 155.5 155.4, 156.5 156.5 Q 157.5 157.7, 157.5 159.7 Q 157.5 161.7, 156.5 162.9 Q 155.5 164.0, 153.6 164.0 Q 151.8 164.0, 150.8 162.9 Q 149.8 161.7, 149.8 159.7 M 153.6 163.1 Q 154.9 163.1, 155.6 162.2 Q 156.3 161.4, 156.3 159.7 Q 156.3 158.0, 155.6 157.2 Q 154.9 156.4, 153.6 156.4 Q 152.4 156.4, 151.7 157.2 Q 151.0 158.0, 151.0 159.7 Q 151.0 161.4, 151.7 162.2 Q 152.4 163.1, 153.6 163.1 " fill="#FF0000"/>
<path class="atom-21" d="M 158.8 155.5 L 160.0 155.5 L 160.0 159.1 L 164.3 159.1 L 164.3 155.5 L 165.4 155.5 L 165.4 163.9 L 164.3 163.9 L 164.3 160.0 L 160.0 160.0 L 160.0 163.9 L 158.8 163.9 L 158.8 155.5 " fill="#FF0000"/>
<path class="atom-23" d="M 280.5 66.7 Q 280.5 64.7, 281.5 63.6 Q 282.5 62.5, 284.3 62.5 Q 286.2 62.5, 287.2 63.6 Q 288.2 64.7, 288.2 66.7 Q 288.2 68.8, 287.2 69.9 Q 286.2 71.1, 284.3 71.1 Q 282.5 71.1, 281.5 69.9 Q 280.5 68.8, 280.5 66.7 M 284.3 70.1 Q 285.6 70.1, 286.3 69.3 Q 287.0 68.4, 287.0 66.7 Q 287.0 65.1, 286.3 64.3 Q 285.6 63.4, 284.3 63.4 Q 283.1 63.4, 282.4 64.2 Q 281.7 65.1, 281.7 66.7 Q 281.7 68.4, 282.4 69.3 Q 283.1 70.1, 284.3 70.1 " fill="#FF0000"/>
<path class="atom-24" d="M 253.8 110.7 Q 253.8 108.6, 254.8 107.5 Q 255.8 106.4, 257.6 106.4 Q 259.5 106.4, 260.5 107.5 Q 261.5 108.6, 261.5 110.7 Q 261.5 112.7, 260.5 113.9 Q 259.5 115.0, 257.6 115.0 Q 255.8 115.0, 254.8 113.9 Q 253.8 112.7, 253.8 110.7 M 257.6 114.1 Q 258.9 114.1, 259.6 113.2 Q 260.3 112.3, 260.3 110.7 Q 260.3 109.0, 259.6 108.2 Q 258.9 107.3, 257.6 107.3 Q 256.3 107.3, 255.6 108.2 Q 254.9 109.0, 254.9 110.7 Q 254.9 112.4, 255.6 113.2 Q 256.3 114.1, 257.6 114.1 " fill="#FF0000"/>
<path class="atom-24" d="M 262.8 106.5 L 263.9 106.5 L 263.9 110.0 L 268.2 110.0 L 268.2 106.5 L 269.4 106.5 L 269.4 114.9 L 268.2 114.9 L 268.2 111.0 L 263.9 111.0 L 263.9 114.9 L 262.8 114.9 L 262.8 106.5 " fill="#FF0000"/>
</g>
  </g>
</svg>
