<?xml version='1.0' encoding='ASCII' standalone='yes'?>
<svg xmlns="http://www.w3.org/2000/svg" xmlns:xlink="http://www.w3.org/1999/xlink" version="1.1" width="885.0px" viewBox="0 0 885.0 200.0" height="200.0px">
  <g>
    <g transform="translate(0, 0) scale(1 1) "><!-- END OF HEADER -->
<rect style="opacity:1.0;fill:#FFFFFF;stroke:none" width="280.0" height="200.0" x="0.0" y="0.0"> </rect>
<path class="bond-0 atom-0 atom-1" d="M 206.7,10.0 L 218.7,38.9" style="fill:none;fill-rule:evenodd;stroke:#000000;stroke-width:2.0px;stroke-linecap:butt;stroke-linejoin:miter;stroke-opacity:1"/>
<path class="bond-1 atom-1 atom-2" d="M 218.7,38.9 L 199.7,63.7" style="fill:none;fill-rule:evenodd;stroke:#000000;stroke-width:2.0px;stroke-linecap:butt;stroke-linejoin:miter;stroke-opacity:1"/>
<path class="bond-2 atom-2 atom-3" d="M 199.7,63.7 L 211.7,92.6" style="fill:none;fill-rule:evenodd;stroke:#000000;stroke-width:2.0px;stroke-linecap:butt;stroke-linejoin:miter;stroke-opacity:1"/>
<path class="bond-3 atom-3 atom-4" d="M 211.7,92.6 L 192.7,117.4" style="fill:none;fill-rule:evenodd;stroke:#000000;stroke-width:2.0px;stroke-linecap:butt;stroke-linejoin:miter;stroke-opacity:1"/>
<path class="bond-4 atom-4 atom-5" d="M 192.7,117.4 L 173.7,142.2" style="fill:none;fill-rule:evenodd;stroke:#000000;stroke-width:2.0px;stroke-linecap:butt;stroke-linejoin:miter;stroke-opacity:1"/>
<path class="bond-5 atom-4 atom-6" d="M 192.7,117.4 L 167.9,98.4" style="fill:none;fill-rule:evenodd;stroke:#000000;stroke-width:2.0px;stroke-linecap:butt;stroke-linejoin:miter;stroke-opacity:1"/>
<path class="bond-6 atom-6 atom-7" d="M 167.9,98.4 L 139.0,110.4" style="fill:none;fill-rule:evenodd;stroke:#000000;stroke-width:2.0px;stroke-linecap:butt;stroke-linejoin:miter;stroke-opacity:1"/>
<path class="bond-7 atom-7 atom-8" d="M 139.0,110.4 L 114.2,91.4" style="fill:none;fill-rule:evenodd;stroke:#000000;stroke-width:2.0px;stroke-linecap:butt;stroke-linejoin:miter;stroke-opacity:1"/>
<path class="bond-8 atom-8 atom-9" d="M 114.2,91.4 L 85.3,103.4" style="fill:none;fill-rule:evenodd;stroke:#000000;stroke-width:2.0px;stroke-linecap:butt;stroke-linejoin:miter;stroke-opacity:1"/>
<path class="bond-9 atom-9 atom-10" d="M 85.3,103.4 L 56.5,115.4" style="fill:none;fill-rule:evenodd;stroke:#000000;stroke-width:2.0px;stroke-linecap:butt;stroke-linejoin:miter;stroke-opacity:1"/>
<path class="bond-10 atom-9 atom-11" d="M 85.3,103.4 L 97.3,132.3" style="fill:none;fill-rule:evenodd;stroke:#000000;stroke-width:2.0px;stroke-linecap:butt;stroke-linejoin:miter;stroke-opacity:1"/>
<path class="bond-11 atom-11 atom-12" d="M 97.3,132.3 L 89.9,141.9" style="fill:none;fill-rule:evenodd;stroke:#000000;stroke-width:2.0px;stroke-linecap:butt;stroke-linejoin:miter;stroke-opacity:1"/>
<path class="bond-11 atom-11 atom-12" d="M 89.9,141.9 L 82.6,151.6" style="fill:none;fill-rule:evenodd;stroke:#FF0000;stroke-width:2.0px;stroke-linecap:butt;stroke-linejoin:miter;stroke-opacity:1"/>
<path class="bond-12 atom-9 atom-13" d="M 85.3,103.4 L 73.3,74.5" style="fill:none;fill-rule:evenodd;stroke:#000000;stroke-width:2.0px;stroke-linecap:butt;stroke-linejoin:miter;stroke-opacity:1"/>
<path class="bond-13 atom-13 atom-14" d="M 74.4,77.0 L 82.1,66.9" style="fill:none;fill-rule:evenodd;stroke:#000000;stroke-width:2.0px;stroke-linecap:butt;stroke-linejoin:miter;stroke-opacity:1"/>
<path class="bond-13 atom-13 atom-14" d="M 82.1,66.9 L 89.9,56.8" style="fill:none;fill-rule:evenodd;stroke:#FF0000;stroke-width:2.0px;stroke-linecap:butt;stroke-linejoin:miter;stroke-opacity:1"/>
<path class="bond-13 atom-13 atom-14" d="M 70.6,74.2 L 78.4,64.1" style="fill:none;fill-rule:evenodd;stroke:#000000;stroke-width:2.0px;stroke-linecap:butt;stroke-linejoin:miter;stroke-opacity:1"/>
<path class="bond-13 atom-13 atom-14" d="M 78.4,64.1 L 86.1,53.9" style="fill:none;fill-rule:evenodd;stroke:#FF0000;stroke-width:2.0px;stroke-linecap:butt;stroke-linejoin:miter;stroke-opacity:1"/>
<path class="bond-14 atom-13 atom-15" d="M 73.3,74.5 L 60.4,72.9" style="fill:none;fill-rule:evenodd;stroke:#000000;stroke-width:2.0px;stroke-linecap:butt;stroke-linejoin:miter;stroke-opacity:1"/>
<path class="bond-14 atom-13 atom-15" d="M 60.4,72.9 L 47.4,71.2" style="fill:none;fill-rule:evenodd;stroke:#FF0000;stroke-width:2.0px;stroke-linecap:butt;stroke-linejoin:miter;stroke-opacity:1"/>
<path class="bond-15 atom-4 atom-16" d="M 192.7,117.4 L 217.6,136.4" style="fill:none;fill-rule:evenodd;stroke:#000000;stroke-width:2.0px;stroke-linecap:butt;stroke-linejoin:miter;stroke-opacity:1"/>
<path class="bond-16 atom-16 atom-17" d="M 217.2,139.1 L 229.7,133.9" style="fill:none;fill-rule:evenodd;stroke:#000000;stroke-width:2.0px;stroke-linecap:butt;stroke-linejoin:miter;stroke-opacity:1"/>
<path class="bond-16 atom-16 atom-17" d="M 229.7,133.9 L 242.2,128.7" style="fill:none;fill-rule:evenodd;stroke:#FF0000;stroke-width:2.0px;stroke-linecap:butt;stroke-linejoin:miter;stroke-opacity:1"/>
<path class="bond-16 atom-16 atom-17" d="M 215.4,134.7 L 227.9,129.5" style="fill:none;fill-rule:evenodd;stroke:#000000;stroke-width:2.0px;stroke-linecap:butt;stroke-linejoin:miter;stroke-opacity:1"/>
<path class="bond-16 atom-16 atom-17" d="M 227.9,129.5 L 240.4,124.3" style="fill:none;fill-rule:evenodd;stroke:#FF0000;stroke-width:2.0px;stroke-linecap:butt;stroke-linejoin:miter;stroke-opacity:1"/>
<path class="bond-17 atom-16 atom-18" d="M 217.6,136.4 L 215.9,149.1" style="fill:none;fill-rule:evenodd;stroke:#000000;stroke-width:2.0px;stroke-linecap:butt;stroke-linejoin:miter;stroke-opacity:1"/>
<path class="bond-17 atom-16 atom-18" d="M 215.9,149.1 L 214.2,161.9" style="fill:none;fill-rule:evenodd;stroke:#FF0000;stroke-width:2.0px;stroke-linecap:butt;stroke-linejoin:miter;stroke-opacity:1"/>
<path d="M 218.1,37.4 L 218.7,38.9 L 217.8,40.1" style="fill:none;stroke:#000000;stroke-width:2.0px;stroke-linecap:butt;stroke-linejoin:miter;stroke-opacity:1;"/>
<path d="M 200.7,62.5 L 199.7,63.7 L 200.3,65.1" style="fill:none;stroke:#000000;stroke-width:2.0px;stroke-linecap:butt;stroke-linejoin:miter;stroke-opacity:1;"/>
<path d="M 211.1,91.1 L 211.7,92.6 L 210.8,93.8" style="fill:none;stroke:#000000;stroke-width:2.0px;stroke-linecap:butt;stroke-linejoin:miter;stroke-opacity:1;"/>
<path d="M 169.1,99.3 L 167.9,98.4 L 166.4,99.0" style="fill:none;stroke:#000000;stroke-width:2.0px;stroke-linecap:butt;stroke-linejoin:miter;stroke-opacity:1;"/>
<path d="M 140.5,109.8 L 139.0,110.4 L 137.8,109.4" style="fill:none;stroke:#000000;stroke-width:2.0px;stroke-linecap:butt;stroke-linejoin:miter;stroke-opacity:1;"/>
<path d="M 115.4,92.4 L 114.2,91.4 L 112.8,92.0" style="fill:none;stroke:#000000;stroke-width:2.0px;stroke-linecap:butt;stroke-linejoin:miter;stroke-opacity:1;"/>
<path d="M 96.7,130.8 L 97.3,132.3 L 97.0,132.8" style="fill:none;stroke:#000000;stroke-width:2.0px;stroke-linecap:butt;stroke-linejoin:miter;stroke-opacity:1;"/>
<path d="M 73.9,76.0 L 73.3,74.5 L 72.7,74.5" style="fill:none;stroke:#000000;stroke-width:2.0px;stroke-linecap:butt;stroke-linejoin:miter;stroke-opacity:1;"/>
<path d="M 216.3,135.4 L 217.6,136.4 L 217.5,137.0" style="fill:none;stroke:#000000;stroke-width:2.0px;stroke-linecap:butt;stroke-linejoin:miter;stroke-opacity:1;"/>
<path class="atom-12" d="M 65.5 152.7 L 66.7 152.7 L 66.7 156.5 L 71.3 156.5 L 71.3 152.7 L 72.5 152.7 L 72.5 161.6 L 71.3 161.6 L 71.3 157.5 L 66.7 157.5 L 66.7 161.6 L 65.5 161.6 L 65.5 152.7 " fill="#FF0000"/>
<path class="atom-12" d="M 74.3 157.1 Q 74.3 155.0, 75.3 153.8 Q 76.4 152.6, 78.3 152.6 Q 80.3 152.6, 81.4 153.8 Q 82.4 155.0, 82.4 157.1 Q 82.4 159.3, 81.3 160.5 Q 80.3 161.7, 78.3 161.7 Q 76.4 161.7, 75.3 160.5 Q 74.3 159.3, 74.3 157.1 M 78.3 160.7 Q 79.7 160.7, 80.4 159.8 Q 81.2 158.9, 81.2 157.1 Q 81.2 155.4, 80.4 154.5 Q 79.7 153.6, 78.3 153.6 Q 77.0 153.6, 76.3 154.5 Q 75.5 155.4, 75.5 157.1 Q 75.5 158.9, 76.3 159.8 Q 77.0 160.7, 78.3 160.7 " fill="#FF0000"/>
<path class="atom-14" d="M 88.3 49.7 Q 88.3 47.6, 89.3 46.4 Q 90.4 45.2, 92.3 45.2 Q 94.3 45.2, 95.3 46.4 Q 96.4 47.6, 96.4 49.7 Q 96.4 51.9, 95.3 53.1 Q 94.3 54.3, 92.3 54.3 Q 90.4 54.3, 89.3 53.1 Q 88.3 51.9, 88.3 49.7 M 92.3 53.3 Q 93.7 53.3, 94.4 52.4 Q 95.1 51.5, 95.1 49.7 Q 95.1 48.0, 94.4 47.1 Q 93.7 46.2, 92.3 46.2 Q 91.0 46.2, 90.2 47.1 Q 89.5 48.0, 89.5 49.7 Q 89.5 51.5, 90.2 52.4 Q 91.0 53.3, 92.3 53.3 " fill="#FF0000"/>
<path class="atom-15" d="M 29.5 66.1 L 30.7 66.1 L 30.7 69.9 L 35.2 69.9 L 35.2 66.1 L 36.4 66.1 L 36.4 75.0 L 35.2 75.0 L 35.2 70.9 L 30.7 70.9 L 30.7 75.0 L 29.5 75.0 L 29.5 66.1 " fill="#FF0000"/>
<path class="atom-15" d="M 38.3 70.5 Q 38.3 68.4, 39.3 67.2 Q 40.4 66.0, 42.3 66.0 Q 44.3 66.0, 45.3 67.2 Q 46.4 68.4, 46.4 70.5 Q 46.4 72.7, 45.3 73.9 Q 44.3 75.1, 42.3 75.1 Q 40.4 75.1, 39.3 73.9 Q 38.3 72.7, 38.3 70.5 M 42.3 74.1 Q 43.7 74.1, 44.4 73.2 Q 45.1 72.3, 45.1 70.5 Q 45.1 68.8, 44.4 67.9 Q 43.7 67.0, 42.3 67.0 Q 41.0 67.0, 40.2 67.9 Q 39.5 68.8, 39.5 70.5 Q 39.5 72.3, 40.2 73.2 Q 41.0 74.1, 42.3 74.1 " fill="#FF0000"/>
<path class="atom-17" d="M 242.4 124.4 Q 242.4 122.3, 243.4 121.1 Q 244.5 119.9, 246.4 119.9 Q 248.4 119.9, 249.4 121.1 Q 250.5 122.3, 250.5 124.4 Q 250.5 126.6, 249.4 127.8 Q 248.4 129.0, 246.4 129.0 Q 244.5 129.0, 243.4 127.8 Q 242.4 126.6, 242.4 124.4 M 246.4 128.0 Q 247.8 128.0, 248.5 127.1 Q 249.2 126.2, 249.2 124.4 Q 249.2 122.7, 248.5 121.8 Q 247.8 120.9, 246.4 120.9 Q 245.1 120.9, 244.3 121.8 Q 243.6 122.7, 243.6 124.4 Q 243.6 126.2, 244.3 127.1 Q 245.1 128.0, 246.4 128.0 " fill="#FF0000"/>
<path class="atom-18" d="M 209.5 167.4 Q 209.5 165.3, 210.5 164.1 Q 211.6 162.9, 213.5 162.9 Q 215.5 162.9, 216.5 164.1 Q 217.6 165.3, 217.6 167.4 Q 217.6 169.6, 216.5 170.8 Q 215.5 172.0, 213.5 172.0 Q 211.6 172.0, 210.5 170.8 Q 209.5 169.6, 209.5 167.4 M 213.5 171.0 Q 214.9 171.0, 215.6 170.1 Q 216.3 169.2, 216.3 167.4 Q 216.3 165.7, 215.6 164.8 Q 214.9 163.9, 213.5 163.9 Q 212.2 163.9, 211.4 164.8 Q 210.7 165.7, 210.7 167.4 Q 210.7 169.2, 211.4 170.1 Q 212.2 171.0, 213.5 171.0 " fill="#FF0000"/>
<path class="atom-18" d="M 219.0 163.0 L 220.2 163.0 L 220.2 166.8 L 224.7 166.8 L 224.7 163.0 L 225.9 163.0 L 225.9 171.9 L 224.7 171.9 L 224.7 167.8 L 220.2 167.8 L 220.2 171.9 L 219.0 171.9 L 219.0 163.0 " fill="#FF0000"/>
<path class="legend" d="M 131.5 181.9 Q 131.5 179.6, 132.2 177.7 Q 132.8 175.8, 134.1 173.8 L 135.0 174.4 Q 134.0 176.3, 133.4 178.0 Q 132.9 179.7, 132.9 181.9 Q 132.9 184.0, 133.4 185.8 Q 134.0 187.5, 135.0 189.4 L 134.1 190.0 Q 132.8 188.0, 132.2 186.1 Q 131.5 184.2, 131.5 181.9 " fill="#000000"/>
<path class="legend" d="M 135.9 177.3 Q 136.4 176.2, 137.3 175.6 Q 138.3 175.0, 139.7 175.0 Q 141.4 175.0, 142.4 175.9 Q 143.3 176.8, 143.3 178.5 Q 143.3 180.2, 142.1 181.7 Q 140.9 183.3, 138.3 185.2 L 143.5 185.2 L 143.5 186.4 L 135.9 186.4 L 135.9 185.4 Q 138.0 183.9, 139.3 182.8 Q 140.5 181.6, 141.1 180.6 Q 141.7 179.6, 141.7 178.6 Q 141.7 177.5, 141.2 176.9 Q 140.7 176.3, 139.7 176.3 Q 138.8 176.3, 138.2 176.6 Q 137.6 177.0, 137.2 177.8 L 135.9 177.3 " fill="#000000"/>
<path class="legend" d="M 148.5 181.9 Q 148.5 184.2, 147.8 186.1 Q 147.2 188.0, 145.9 190.0 L 145.0 189.4 Q 146.0 187.5, 146.5 185.8 Q 147.1 184.0, 147.1 181.9 Q 147.1 179.7, 146.5 178.0 Q 146.0 176.3, 145.0 174.4 L 145.9 173.8 Q 147.2 175.8, 147.8 177.7 Q 148.5 179.6, 148.5 181.9 " fill="#000000"/>
</g>
    <g transform="translate(280.0, 0) scale(1 1) "><line x1="5" y1="100" x2="35" y2="100" style="stroke:rgb(0,0,0);stroke-width:2"/>
  <line x1="34" y1="100" x2="29" y2="95" style="stroke:rgb(0,0,0);stroke-width:2"/>
  <line x1="34" y1="100" x2="29" y2="105" style="stroke:rgb(0,0,0);stroke-width:2"/>
</g>
    <g transform="translate(320.0, 0) scale(1 1) "><!-- END OF HEADER -->
<rect style="opacity:1.0;fill:#FFFFFF;stroke:none" width="320.0" height="200.0" x="0.0" y="0.0"> </rect>
<path class="bond-0 atom-0 atom-1" d="M 214.6,26.0 L 237.3,42.8" style="fill:none;fill-rule:evenodd;stroke:#000000;stroke-width:2.0px;stroke-linecap:butt;stroke-linejoin:miter;stroke-opacity:1"/>
<path class="bond-1 atom-1 atom-2" d="M 237.3,42.8 L 234.1,70.8" style="fill:none;fill-rule:evenodd;stroke:#000000;stroke-width:2.0px;stroke-linecap:butt;stroke-linejoin:miter;stroke-opacity:1"/>
<path class="bond-2 atom-2 atom-3" d="M 234.1,70.8 L 256.8,87.6" style="fill:none;fill-rule:evenodd;stroke:#000000;stroke-width:2.0px;stroke-linecap:butt;stroke-linejoin:miter;stroke-opacity:1"/>
<path class="bond-3 atom-3 atom-4" d="M 256.8,87.6 L 253.6,115.6" style="fill:none;fill-rule:evenodd;stroke:#000000;stroke-width:2.0px;stroke-linecap:butt;stroke-linejoin:miter;stroke-opacity:1"/>
<path class="bond-4 atom-4 atom-5" d="M 253.6,115.6 L 250.4,143.6" style="fill:none;fill-rule:evenodd;stroke:#000000;stroke-width:2.0px;stroke-linecap:butt;stroke-linejoin:miter;stroke-opacity:1"/>
<path class="bond-5 atom-4 atom-6" d="M 253.6,115.6 L 225.5,112.4" style="fill:none;fill-rule:evenodd;stroke:#000000;stroke-width:2.0px;stroke-linecap:butt;stroke-linejoin:miter;stroke-opacity:1"/>
<path class="bond-6 atom-6 atom-7" d="M 225.5,112.4 L 208.7,135.1" style="fill:none;fill-rule:evenodd;stroke:#000000;stroke-width:2.0px;stroke-linecap:butt;stroke-linejoin:miter;stroke-opacity:1"/>
<path class="bond-7 atom-7 atom-8" d="M 208.7,135.1 L 180.7,131.9" style="fill:none;fill-rule:evenodd;stroke:#000000;stroke-width:2.0px;stroke-linecap:butt;stroke-linejoin:miter;stroke-opacity:1"/>
<path class="bond-8 atom-8 atom-9" d="M 180.7,131.9 L 163.9,154.6" style="fill:none;fill-rule:evenodd;stroke:#000000;stroke-width:2.0px;stroke-linecap:butt;stroke-linejoin:miter;stroke-opacity:1"/>
<path class="bond-9 atom-9 atom-10" d="M 163.9,154.6 L 135.9,151.4" style="fill:none;fill-rule:evenodd;stroke:#000000;stroke-width:2.0px;stroke-linecap:butt;stroke-linejoin:miter;stroke-opacity:1"/>
<path class="bond-10 atom-10 atom-11" d="M 135.9,151.4 L 119.1,174.0" style="fill:none;fill-rule:evenodd;stroke:#000000;stroke-width:2.0px;stroke-linecap:butt;stroke-linejoin:miter;stroke-opacity:1"/>
<path class="bond-11 atom-8 atom-12" d="M 180.7,131.9 L 169.5,106.0" style="fill:none;fill-rule:evenodd;stroke:#000000;stroke-width:2.0px;stroke-linecap:butt;stroke-linejoin:miter;stroke-opacity:1"/>
<path class="bond-12 atom-12 atom-13" d="M 169.5,106.0 L 195.3,94.8" style="fill:none;fill-rule:evenodd;stroke:#000000;stroke-width:2.0px;stroke-linecap:butt;stroke-linejoin:miter;stroke-opacity:1"/>
<path class="bond-13 atom-12 atom-14" d="M 169.5,106.0 L 143.6,117.2" style="fill:none;fill-rule:evenodd;stroke:#000000;stroke-width:2.0px;stroke-linecap:butt;stroke-linejoin:miter;stroke-opacity:1"/>
<path class="bond-14 atom-14 atom-15" d="M 143.6,117.2 L 120.9,100.5" style="fill:none;fill-rule:evenodd;stroke:#000000;stroke-width:2.0px;stroke-linecap:butt;stroke-linejoin:miter;stroke-opacity:1"/>
<path class="bond-15 atom-15 atom-16" d="M 120.9,100.5 L 95.0,111.7" style="fill:none;fill-rule:evenodd;stroke:#000000;stroke-width:2.0px;stroke-linecap:butt;stroke-linejoin:miter;stroke-opacity:1"/>
<path class="bond-16 atom-16 atom-17" d="M 95.0,111.7 L 72.4,94.9" style="fill:none;fill-rule:evenodd;stroke:#000000;stroke-width:2.0px;stroke-linecap:butt;stroke-linejoin:miter;stroke-opacity:1"/>
<path class="bond-17 atom-17 atom-18" d="M 72.4,94.9 L 49.7,78.1" style="fill:none;fill-rule:evenodd;stroke:#000000;stroke-width:2.0px;stroke-linecap:butt;stroke-linejoin:miter;stroke-opacity:1"/>
<path class="bond-18 atom-17 atom-19" d="M 72.4,94.9 L 89.2,72.3" style="fill:none;fill-rule:evenodd;stroke:#000000;stroke-width:2.0px;stroke-linecap:butt;stroke-linejoin:miter;stroke-opacity:1"/>
<path class="bond-19 atom-19 atom-20" d="M 89.2,72.3 L 84.6,61.9" style="fill:none;fill-rule:evenodd;stroke:#000000;stroke-width:2.0px;stroke-linecap:butt;stroke-linejoin:miter;stroke-opacity:1"/>
<path class="bond-19 atom-19 atom-20" d="M 84.6,61.9 L 80.1,51.5" style="fill:none;fill-rule:evenodd;stroke:#FF0000;stroke-width:2.0px;stroke-linecap:butt;stroke-linejoin:miter;stroke-opacity:1"/>
<path class="bond-20 atom-17 atom-21" d="M 72.4,94.9 L 55.6,117.6" style="fill:none;fill-rule:evenodd;stroke:#000000;stroke-width:2.0px;stroke-linecap:butt;stroke-linejoin:miter;stroke-opacity:1"/>
<path class="bond-21 atom-21 atom-22" d="M 53.2,117.3 L 57.9,128.3" style="fill:none;fill-rule:evenodd;stroke:#000000;stroke-width:2.0px;stroke-linecap:butt;stroke-linejoin:miter;stroke-opacity:1"/>
<path class="bond-21 atom-21 atom-22" d="M 57.9,128.3 L 62.7,139.3" style="fill:none;fill-rule:evenodd;stroke:#FF0000;stroke-width:2.0px;stroke-linecap:butt;stroke-linejoin:miter;stroke-opacity:1"/>
<path class="bond-21 atom-21 atom-22" d="M 57.0,115.6 L 61.8,126.7" style="fill:none;fill-rule:evenodd;stroke:#000000;stroke-width:2.0px;stroke-linecap:butt;stroke-linejoin:miter;stroke-opacity:1"/>
<path class="bond-21 atom-21 atom-22" d="M 61.8,126.7 L 66.6,137.7" style="fill:none;fill-rule:evenodd;stroke:#FF0000;stroke-width:2.0px;stroke-linecap:butt;stroke-linejoin:miter;stroke-opacity:1"/>
<path class="bond-22 atom-21 atom-23" d="M 55.6,117.6 L 43.9,116.3" style="fill:none;fill-rule:evenodd;stroke:#000000;stroke-width:2.0px;stroke-linecap:butt;stroke-linejoin:miter;stroke-opacity:1"/>
<path class="bond-22 atom-21 atom-23" d="M 43.9,116.3 L 32.2,114.9" style="fill:none;fill-rule:evenodd;stroke:#FF0000;stroke-width:2.0px;stroke-linecap:butt;stroke-linejoin:miter;stroke-opacity:1"/>
<path class="bond-23 atom-12 atom-24" d="M 169.5,106.0 L 158.2,80.1" style="fill:none;fill-rule:evenodd;stroke:#000000;stroke-width:2.0px;stroke-linecap:butt;stroke-linejoin:miter;stroke-opacity:1"/>
<path class="bond-24 atom-24 atom-25" d="M 159.7,78.2 L 147.4,76.8" style="fill:none;fill-rule:evenodd;stroke:#000000;stroke-width:2.0px;stroke-linecap:butt;stroke-linejoin:miter;stroke-opacity:1"/>
<path class="bond-24 atom-24 atom-25" d="M 147.4,76.8 L 135.0,75.4" style="fill:none;fill-rule:evenodd;stroke:#FF0000;stroke-width:2.0px;stroke-linecap:butt;stroke-linejoin:miter;stroke-opacity:1"/>
<path class="bond-24 atom-24 atom-25" d="M 159.2,82.4 L 146.9,81.0" style="fill:none;fill-rule:evenodd;stroke:#000000;stroke-width:2.0px;stroke-linecap:butt;stroke-linejoin:miter;stroke-opacity:1"/>
<path class="bond-24 atom-24 atom-25" d="M 146.9,81.0 L 134.6,79.6" style="fill:none;fill-rule:evenodd;stroke:#FF0000;stroke-width:2.0px;stroke-linecap:butt;stroke-linejoin:miter;stroke-opacity:1"/>
<path class="bond-25 atom-24 atom-26" d="M 158.2,80.1 L 164.7,71.3" style="fill:none;fill-rule:evenodd;stroke:#000000;stroke-width:2.0px;stroke-linecap:butt;stroke-linejoin:miter;stroke-opacity:1"/>
<path class="bond-25 atom-24 atom-26" d="M 164.7,71.3 L 171.2,62.5" style="fill:none;fill-rule:evenodd;stroke:#FF0000;stroke-width:2.0px;stroke-linecap:butt;stroke-linejoin:miter;stroke-opacity:1"/>
<path class="bond-26 atom-4 atom-27" d="M 253.6,115.6 L 281.6,118.8" style="fill:none;fill-rule:evenodd;stroke:#000000;stroke-width:2.0px;stroke-linecap:butt;stroke-linejoin:miter;stroke-opacity:1"/>
<path class="bond-27 atom-27 atom-28" d="M 282.6,121.0 L 289.4,111.8" style="fill:none;fill-rule:evenodd;stroke:#000000;stroke-width:2.0px;stroke-linecap:butt;stroke-linejoin:miter;stroke-opacity:1"/>
<path class="bond-27 atom-27 atom-28" d="M 289.4,111.8 L 296.3,102.5" style="fill:none;fill-rule:evenodd;stroke:#FF0000;stroke-width:2.0px;stroke-linecap:butt;stroke-linejoin:miter;stroke-opacity:1"/>
<path class="bond-27 atom-27 atom-28" d="M 279.2,118.5 L 286.0,109.2" style="fill:none;fill-rule:evenodd;stroke:#000000;stroke-width:2.0px;stroke-linecap:butt;stroke-linejoin:miter;stroke-opacity:1"/>
<path class="bond-27 atom-27 atom-28" d="M 286.0,109.2 L 292.9,100.0" style="fill:none;fill-rule:evenodd;stroke:#FF0000;stroke-width:2.0px;stroke-linecap:butt;stroke-linejoin:miter;stroke-opacity:1"/>
<path class="bond-28 atom-27 atom-29" d="M 281.6,118.8 L 286.1,129.2" style="fill:none;fill-rule:evenodd;stroke:#000000;stroke-width:2.0px;stroke-linecap:butt;stroke-linejoin:miter;stroke-opacity:1"/>
<path class="bond-28 atom-27 atom-29" d="M 286.1,129.2 L 290.7,139.7" style="fill:none;fill-rule:evenodd;stroke:#FF0000;stroke-width:2.0px;stroke-linecap:butt;stroke-linejoin:miter;stroke-opacity:1"/>
<path d="M 236.1,41.9 L 237.3,42.8 L 237.1,44.2" style="fill:none;stroke:#000000;stroke-width:2.0px;stroke-linecap:butt;stroke-linejoin:miter;stroke-opacity:1;"/>
<path d="M 234.2,69.4 L 234.1,70.8 L 235.2,71.6" style="fill:none;stroke:#000000;stroke-width:2.0px;stroke-linecap:butt;stroke-linejoin:miter;stroke-opacity:1;"/>
<path d="M 255.6,86.7 L 256.8,87.6 L 256.6,89.0" style="fill:none;stroke:#000000;stroke-width:2.0px;stroke-linecap:butt;stroke-linejoin:miter;stroke-opacity:1;"/>
<path d="M 226.9,112.6 L 225.5,112.4 L 224.7,113.5" style="fill:none;stroke:#000000;stroke-width:2.0px;stroke-linecap:butt;stroke-linejoin:miter;stroke-opacity:1;"/>
<path d="M 209.6,133.9 L 208.7,135.1 L 207.3,134.9" style="fill:none;stroke:#000000;stroke-width:2.0px;stroke-linecap:butt;stroke-linejoin:miter;stroke-opacity:1;"/>
<path d="M 164.8,153.4 L 163.9,154.6 L 162.5,154.4" style="fill:none;stroke:#000000;stroke-width:2.0px;stroke-linecap:butt;stroke-linejoin:miter;stroke-opacity:1;"/>
<path d="M 137.3,151.5 L 135.9,151.4 L 135.1,152.5" style="fill:none;stroke:#000000;stroke-width:2.0px;stroke-linecap:butt;stroke-linejoin:miter;stroke-opacity:1;"/>
<path d="M 144.9,116.7 L 143.6,117.2 L 142.5,116.4" style="fill:none;stroke:#000000;stroke-width:2.0px;stroke-linecap:butt;stroke-linejoin:miter;stroke-opacity:1;"/>
<path d="M 122.1,101.3 L 120.9,100.5 L 119.6,101.0" style="fill:none;stroke:#000000;stroke-width:2.0px;stroke-linecap:butt;stroke-linejoin:miter;stroke-opacity:1;"/>
<path d="M 96.3,111.1 L 95.0,111.7 L 93.9,110.9" style="fill:none;stroke:#000000;stroke-width:2.0px;stroke-linecap:butt;stroke-linejoin:miter;stroke-opacity:1;"/>
<path d="M 88.3,73.4 L 89.2,72.3 L 88.9,71.7" style="fill:none;stroke:#000000;stroke-width:2.0px;stroke-linecap:butt;stroke-linejoin:miter;stroke-opacity:1;"/>
<path d="M 56.4,116.5 L 55.6,117.6 L 55.0,117.5" style="fill:none;stroke:#000000;stroke-width:2.0px;stroke-linecap:butt;stroke-linejoin:miter;stroke-opacity:1;"/>
<path d="M 158.8,81.4 L 158.2,80.1 L 158.6,79.7" style="fill:none;stroke:#000000;stroke-width:2.0px;stroke-linecap:butt;stroke-linejoin:miter;stroke-opacity:1;"/>
<path d="M 280.2,118.6 L 281.6,118.8 L 281.8,119.3" style="fill:none;stroke:#000000;stroke-width:2.0px;stroke-linecap:butt;stroke-linejoin:miter;stroke-opacity:1;"/>
<path class="atom-20" d="M 66.4 42.4 L 67.4 42.4 L 67.4 45.8 L 71.5 45.8 L 71.5 42.4 L 72.6 42.4 L 72.6 50.4 L 71.5 50.4 L 71.5 46.7 L 67.4 46.7 L 67.4 50.4 L 66.4 50.4 L 66.4 42.4 " fill="#FF0000"/>
<path class="atom-20" d="M 74.2 46.4 Q 74.2 44.5, 75.2 43.4 Q 76.1 42.3, 77.9 42.3 Q 79.7 42.3, 80.6 43.4 Q 81.6 44.5, 81.6 46.4 Q 81.6 48.3, 80.6 49.4 Q 79.7 50.5, 77.9 50.5 Q 76.2 50.5, 75.2 49.4 Q 74.2 48.4, 74.2 46.4 M 77.9 49.6 Q 79.1 49.6, 79.8 48.8 Q 80.4 48.0, 80.4 46.4 Q 80.4 44.8, 79.8 44.0 Q 79.1 43.2, 77.9 43.2 Q 76.7 43.2, 76.0 44.0 Q 75.4 44.8, 75.4 46.4 Q 75.4 48.0, 76.0 48.8 Q 76.7 49.6, 77.9 49.6 " fill="#FF0000"/>
<path class="atom-22" d="M 63.2 143.5 Q 63.2 141.6, 64.1 140.5 Q 65.1 139.4, 66.8 139.4 Q 68.6 139.4, 69.6 140.5 Q 70.5 141.6, 70.5 143.5 Q 70.5 145.4, 69.5 146.5 Q 68.6 147.6, 66.8 147.6 Q 65.1 147.6, 64.1 146.5 Q 63.2 145.5, 63.2 143.5 M 66.8 146.7 Q 68.1 146.7, 68.7 145.9 Q 69.4 145.1, 69.4 143.5 Q 69.4 141.9, 68.7 141.1 Q 68.1 140.3, 66.8 140.3 Q 65.6 140.3, 64.9 141.1 Q 64.3 141.9, 64.3 143.5 Q 64.3 145.1, 64.9 145.9 Q 65.6 146.7, 66.8 146.7 " fill="#FF0000"/>
<path class="atom-23" d="M 16.0 110.5 L 17.1 110.5 L 17.1 113.9 L 21.2 113.9 L 21.2 110.5 L 22.3 110.5 L 22.3 118.4 L 21.2 118.4 L 21.2 114.8 L 17.1 114.8 L 17.1 118.4 L 16.0 118.4 L 16.0 110.5 " fill="#FF0000"/>
<path class="atom-23" d="M 23.9 114.4 Q 23.9 112.5, 24.8 111.4 Q 25.8 110.4, 27.6 110.4 Q 29.3 110.4, 30.3 111.4 Q 31.2 112.5, 31.2 114.4 Q 31.2 116.4, 30.3 117.5 Q 29.3 118.6, 27.6 118.6 Q 25.8 118.6, 24.8 117.5 Q 23.9 116.4, 23.9 114.4 M 27.6 117.7 Q 28.8 117.7, 29.4 116.9 Q 30.1 116.0, 30.1 114.4 Q 30.1 112.9, 29.4 112.1 Q 28.8 111.3, 27.6 111.3 Q 26.3 111.3, 25.7 112.1 Q 25.0 112.8, 25.0 114.4 Q 25.0 116.0, 25.7 116.9 Q 26.3 117.7, 27.6 117.7 " fill="#FF0000"/>
<path class="atom-25" d="M 126.5 77.0 Q 126.5 75.0, 127.5 74.0 Q 128.4 72.9, 130.2 72.9 Q 132.0 72.9, 132.9 74.0 Q 133.9 75.0, 133.9 77.0 Q 133.9 78.9, 132.9 80.0 Q 131.9 81.1, 130.2 81.1 Q 128.4 81.1, 127.5 80.0 Q 126.5 78.9, 126.5 77.0 M 130.2 80.2 Q 131.4 80.2, 132.1 79.4 Q 132.7 78.6, 132.7 77.0 Q 132.7 75.4, 132.1 74.6 Q 131.4 73.8, 130.2 73.8 Q 129.0 73.8, 128.3 74.6 Q 127.7 75.4, 127.7 77.0 Q 127.7 78.6, 128.3 79.4 Q 129.0 80.2, 130.2 80.2 " fill="#FF0000"/>
<path class="atom-26" d="M 171.3 57.5 Q 171.3 55.6, 172.3 54.5 Q 173.2 53.4, 175.0 53.4 Q 176.8 53.4, 177.7 54.5 Q 178.7 55.6, 178.7 57.5 Q 178.7 59.4, 177.7 60.5 Q 176.8 61.6, 175.0 61.6 Q 173.2 61.6, 172.3 60.5 Q 171.3 59.4, 171.3 57.5 M 175.0 60.7 Q 176.2 60.7, 176.9 59.9 Q 177.5 59.1, 177.5 57.5 Q 177.5 55.9, 176.9 55.1 Q 176.2 54.3, 175.0 54.3 Q 173.8 54.3, 173.1 55.1 Q 172.5 55.9, 172.5 57.5 Q 172.5 59.1, 173.1 59.9 Q 173.8 60.7, 175.0 60.7 " fill="#FF0000"/>
<path class="atom-26" d="M 179.9 53.5 L 181.0 53.5 L 181.0 56.9 L 185.1 56.9 L 185.1 53.5 L 186.2 53.5 L 186.2 61.5 L 185.1 61.5 L 185.1 57.8 L 181.0 57.8 L 181.0 61.5 L 179.9 61.5 L 179.9 53.5 " fill="#FF0000"/>
<path class="atom-28" d="M 294.7 96.1 Q 294.7 94.2, 295.7 93.2 Q 296.6 92.1, 298.4 92.1 Q 300.1 92.1, 301.1 93.2 Q 302.0 94.2, 302.0 96.1 Q 302.0 98.1, 301.1 99.2 Q 300.1 100.3, 298.4 100.3 Q 296.6 100.3, 295.7 99.2 Q 294.7 98.1, 294.7 96.1 M 298.4 99.4 Q 299.6 99.4, 300.2 98.6 Q 300.9 97.7, 300.9 96.1 Q 300.9 94.6, 300.2 93.8 Q 299.6 93.0, 298.4 93.0 Q 297.2 93.0, 296.5 93.8 Q 295.8 94.6, 295.8 96.1 Q 295.8 97.8, 296.5 98.6 Q 297.2 99.4, 298.4 99.4 " fill="#FF0000"/>
<path class="atom-29" d="M 289.2 144.7 Q 289.2 142.8, 290.1 141.7 Q 291.1 140.6, 292.8 140.6 Q 294.6 140.6, 295.6 141.7 Q 296.5 142.8, 296.5 144.7 Q 296.5 146.6, 295.5 147.7 Q 294.6 148.8, 292.8 148.8 Q 291.1 148.8, 290.1 147.7 Q 289.2 146.6, 289.2 144.7 M 292.8 147.9 Q 294.1 147.9, 294.7 147.1 Q 295.4 146.3, 295.4 144.7 Q 295.4 143.1, 294.7 142.3 Q 294.1 141.5, 292.8 141.5 Q 291.6 141.5, 291.0 142.3 Q 290.3 143.1, 290.3 144.7 Q 290.3 146.3, 291.0 147.1 Q 291.6 147.9, 292.8 147.9 " fill="#FF0000"/>
<path class="atom-29" d="M 297.7 140.7 L 298.8 140.7 L 298.8 144.1 L 302.9 144.1 L 302.9 140.7 L 304.0 140.7 L 304.0 148.7 L 302.9 148.7 L 302.9 145.0 L 298.8 145.0 L 298.8 148.7 L 297.7 148.7 L 297.7 140.7 " fill="#FF0000"/>
</g>
    <g transform="translate(640.0, 0) scale(1 1) "><line x1="15" y1="100" x2="25" y2="100" style="stroke:rgb(0,0,0);stroke-width:2"/>
  <line x1="20" y1="95" x2="20" y2="105" style="stroke:rgb(0,0,0);stroke-width:2"/>
</g>
    <g transform="translate(680.0, 0) scale(1 1) "><!-- END OF HEADER -->
<rect style="opacity:1.0;fill:#FFFFFF;stroke:none" width="205.0" height="200.0" x="0.0" y="0.0"> </rect>
<path class="bond-0 atom-0 atom-1" d="M 122.6,44.3 L 108.8,89.2" style="fill:none;fill-rule:evenodd;stroke:#000000;stroke-width:2.0px;stroke-linecap:butt;stroke-linejoin:miter;stroke-opacity:1"/>
<path class="bond-1 atom-1 atom-2" d="M 108.8,89.2 L 95.0,134.1" style="fill:none;fill-rule:evenodd;stroke:#000000;stroke-width:2.0px;stroke-linecap:butt;stroke-linejoin:miter;stroke-opacity:1"/>
<path class="bond-2 atom-1 atom-3" d="M 108.8,89.2 L 63.9,75.4" style="fill:none;fill-rule:evenodd;stroke:#000000;stroke-width:2.0px;stroke-linecap:butt;stroke-linejoin:miter;stroke-opacity:1"/>
<path class="bond-3 atom-3 atom-4" d="M 63.9,75.4 L 50.5,87.9" style="fill:none;fill-rule:evenodd;stroke:#000000;stroke-width:2.0px;stroke-linecap:butt;stroke-linejoin:miter;stroke-opacity:1"/>
<path class="bond-3 atom-3 atom-4" d="M 50.5,87.9 L 37.2,100.3" style="fill:none;fill-rule:evenodd;stroke:#FF0000;stroke-width:2.0px;stroke-linecap:butt;stroke-linejoin:miter;stroke-opacity:1"/>
<path class="bond-4 atom-1 atom-5" d="M 108.8,89.2 L 153.7,103.0" style="fill:none;fill-rule:evenodd;stroke:#000000;stroke-width:2.0px;stroke-linecap:butt;stroke-linejoin:miter;stroke-opacity:1"/>
<path class="bond-5 atom-5 atom-6" d="M 154.7,107.0 L 168.8,93.8" style="fill:none;fill-rule:evenodd;stroke:#000000;stroke-width:2.0px;stroke-linecap:butt;stroke-linejoin:miter;stroke-opacity:1"/>
<path class="bond-5 atom-5 atom-6" d="M 168.8,93.8 L 182.9,80.7" style="fill:none;fill-rule:evenodd;stroke:#FF0000;stroke-width:2.0px;stroke-linecap:butt;stroke-linejoin:miter;stroke-opacity:1"/>
<path class="bond-5 atom-5 atom-6" d="M 149.9,101.8 L 164.0,88.7" style="fill:none;fill-rule:evenodd;stroke:#000000;stroke-width:2.0px;stroke-linecap:butt;stroke-linejoin:miter;stroke-opacity:1"/>
<path class="bond-5 atom-5 atom-6" d="M 164.0,88.7 L 178.1,75.5" style="fill:none;fill-rule:evenodd;stroke:#FF0000;stroke-width:2.0px;stroke-linecap:butt;stroke-linejoin:miter;stroke-opacity:1"/>
<path class="bond-6 atom-5 atom-7" d="M 153.7,103.0 L 158.0,121.7" style="fill:none;fill-rule:evenodd;stroke:#000000;stroke-width:2.0px;stroke-linecap:butt;stroke-linejoin:miter;stroke-opacity:1"/>
<path class="bond-6 atom-5 atom-7" d="M 158.0,121.7 L 162.4,140.5" style="fill:none;fill-rule:evenodd;stroke:#FF0000;stroke-width:2.0px;stroke-linecap:butt;stroke-linejoin:miter;stroke-opacity:1"/>
<path d="M 66.1,76.1 L 63.9,75.4 L 63.2,76.0" style="fill:none;stroke:#000000;stroke-width:2.0px;stroke-linecap:butt;stroke-linejoin:miter;stroke-opacity:1;"/>
<path d="M 151.5,102.3 L 153.7,103.0 L 154.0,103.9" style="fill:none;stroke:#000000;stroke-width:2.0px;stroke-linecap:butt;stroke-linejoin:miter;stroke-opacity:1;"/>
<path class="atom-4" d="M 10.2 100.8 L 12.1 100.8 L 12.1 106.5 L 18.9 106.5 L 18.9 100.8 L 20.7 100.8 L 20.7 114.1 L 18.9 114.1 L 18.9 108.0 L 12.1 108.0 L 12.1 114.1 L 10.2 114.1 L 10.2 100.8 " fill="#FF0000"/>
<path class="atom-4" d="M 23.4 107.5 Q 23.4 104.3, 25.0 102.5 Q 26.5 100.7, 29.5 100.7 Q 32.5 100.7, 34.0 102.5 Q 35.6 104.3, 35.6 107.5 Q 35.6 110.7, 34.0 112.5 Q 32.4 114.4, 29.5 114.4 Q 26.6 114.4, 25.0 112.5 Q 23.4 110.7, 23.4 107.5 M 29.5 112.9 Q 31.5 112.9, 32.6 111.5 Q 33.7 110.1, 33.7 107.5 Q 33.7 104.8, 32.6 103.5 Q 31.5 102.2, 29.5 102.2 Q 27.5 102.2, 26.4 103.5 Q 25.3 104.8, 25.3 107.5 Q 25.3 110.1, 26.4 111.5 Q 27.5 112.9, 29.5 112.9 " fill="#FF0000"/>
<path class="atom-6" d="M 182.0 71.0 Q 182.0 67.8, 183.6 66.0 Q 185.2 64.3, 188.1 64.3 Q 191.1 64.3, 192.7 66.0 Q 194.3 67.8, 194.3 71.0 Q 194.3 74.3, 192.7 76.1 Q 191.1 77.9, 188.1 77.9 Q 185.2 77.9, 183.6 76.1 Q 182.0 74.3, 182.0 71.0 M 188.1 76.4 Q 190.2 76.4, 191.3 75.1 Q 192.4 73.7, 192.4 71.0 Q 192.4 68.4, 191.3 67.1 Q 190.2 65.8, 188.1 65.8 Q 186.1 65.8, 185.0 67.1 Q 183.9 68.4, 183.9 71.0 Q 183.9 73.7, 185.0 75.1 Q 186.1 76.4, 188.1 76.4 " fill="#FF0000"/>
<path class="atom-7" d="M 158.2 148.8 Q 158.2 145.6, 159.7 143.8 Q 161.3 142.1, 164.3 142.1 Q 167.2 142.1, 168.8 143.8 Q 170.4 145.6, 170.4 148.8 Q 170.4 152.1, 168.8 153.9 Q 167.2 155.7, 164.3 155.7 Q 161.3 155.7, 159.7 153.9 Q 158.2 152.1, 158.2 148.8 M 164.3 154.2 Q 166.3 154.2, 167.4 152.9 Q 168.5 151.5, 168.5 148.8 Q 168.5 146.2, 167.4 144.9 Q 166.3 143.6, 164.3 143.6 Q 162.2 143.6, 161.1 144.9 Q 160.0 146.2, 160.0 148.8 Q 160.0 151.5, 161.1 152.9 Q 162.2 154.2, 164.3 154.2 " fill="#FF0000"/>
<path class="atom-7" d="M 172.4 142.2 L 174.2 142.2 L 174.2 147.9 L 181.0 147.9 L 181.0 142.2 L 182.9 142.2 L 182.9 155.5 L 181.0 155.5 L 181.0 149.4 L 174.2 149.4 L 174.2 155.5 L 172.4 155.5 L 172.4 142.2 " fill="#FF0000"/>
</g>
  </g>
</svg>
