<?xml version='1.0' encoding='ASCII' standalone='yes'?>
<svg xmlns="http://www.w3.org/2000/svg" xmlns:xlink="http://www.w3.org/1999/xlink" version="1.1" width="946.0px" viewBox="0 0 946.0 200.0" height="200.0px">
  <g>
    <g transform="translate(0, 0) scale(1 1) "><!-- END OF HEADER -->
<rect style="opacity:1.0;fill:#FFFFFF;stroke:none" width="304.0" height="200.0" x="0.0" y="0.0"> </rect>
<path class="bond-0 atom-0 atom-1" d="M 211.5,138.7 L 202.0,107.0" style="fill:none;fill-rule:evenodd;stroke:#000000;stroke-width:2.0px;stroke-linecap:butt;stroke-linejoin:miter;stroke-opacity:1"/>
<path class="bond-1 atom-1 atom-2" d="M 202.0,107.0 L 193.8,107.1" style="fill:none;fill-rule:evenodd;stroke:#000000;stroke-width:2.0px;stroke-linecap:butt;stroke-linejoin:miter;stroke-opacity:1"/>
<path class="bond-1 atom-1 atom-2" d="M 193.8,107.1 L 185.7,107.2" style="fill:none;fill-rule:evenodd;stroke:#FF0000;stroke-width:2.0px;stroke-linecap:butt;stroke-linejoin:miter;stroke-opacity:1"/>
<path class="bond-2 atom-1 atom-3" d="M 202.0,107.0 L 224.7,82.9" style="fill:none;fill-rule:evenodd;stroke:#000000;stroke-width:2.0px;stroke-linecap:butt;stroke-linejoin:miter;stroke-opacity:1"/>
<path class="bond-3 atom-3 atom-4" d="M 224.7,82.9 L 248.8,105.6" style="fill:none;fill-rule:evenodd;stroke:#000000;stroke-width:2.0px;stroke-linecap:butt;stroke-linejoin:miter;stroke-opacity:1"/>
<path class="bond-4 atom-3 atom-5" d="M 224.7,82.9 L 200.7,60.2" style="fill:none;fill-rule:evenodd;stroke:#000000;stroke-width:2.0px;stroke-linecap:butt;stroke-linejoin:miter;stroke-opacity:1"/>
<path class="bond-5 atom-5 atom-6" d="M 200.7,60.2 L 169.0,69.7" style="fill:none;fill-rule:evenodd;stroke:#000000;stroke-width:2.0px;stroke-linecap:butt;stroke-linejoin:miter;stroke-opacity:1"/>
<path class="bond-6 atom-6 atom-7" d="M 169.0,69.7 L 161.3,101.9" style="fill:none;fill-rule:evenodd;stroke:#000000;stroke-width:2.0px;stroke-linecap:butt;stroke-linejoin:miter;stroke-opacity:1"/>
<path class="bond-7 atom-7 atom-8" d="M 161.3,101.9 L 129.6,111.3" style="fill:none;fill-rule:evenodd;stroke:#000000;stroke-width:2.0px;stroke-linecap:butt;stroke-linejoin:miter;stroke-opacity:1"/>
<path class="bond-8 atom-8 atom-9" d="M 129.6,111.3 L 97.9,120.8" style="fill:none;fill-rule:evenodd;stroke:#000000;stroke-width:2.0px;stroke-linecap:butt;stroke-linejoin:miter;stroke-opacity:1"/>
<path class="bond-9 atom-8 atom-10" d="M 129.6,111.3 L 139.1,143.1" style="fill:none;fill-rule:evenodd;stroke:#000000;stroke-width:2.0px;stroke-linecap:butt;stroke-linejoin:miter;stroke-opacity:1"/>
<path class="bond-10 atom-10 atom-11" d="M 139.1,143.1 L 130.4,152.2" style="fill:none;fill-rule:evenodd;stroke:#000000;stroke-width:2.0px;stroke-linecap:butt;stroke-linejoin:miter;stroke-opacity:1"/>
<path class="bond-10 atom-10 atom-11" d="M 130.4,152.2 L 121.7,161.4" style="fill:none;fill-rule:evenodd;stroke:#FF0000;stroke-width:2.0px;stroke-linecap:butt;stroke-linejoin:miter;stroke-opacity:1"/>
<path class="bond-11 atom-8 atom-12" d="M 129.6,111.3 L 120.1,79.6" style="fill:none;fill-rule:evenodd;stroke:#000000;stroke-width:2.0px;stroke-linecap:butt;stroke-linejoin:miter;stroke-opacity:1"/>
<path class="bond-12 atom-12 atom-13" d="M 120.1,79.6 L 87.9,72.0" style="fill:none;fill-rule:evenodd;stroke:#000000;stroke-width:2.0px;stroke-linecap:butt;stroke-linejoin:miter;stroke-opacity:1"/>
<path class="bond-13 atom-13 atom-14" d="M 87.9,72.0 L 80.3,104.2" style="fill:none;fill-rule:evenodd;stroke:#000000;stroke-width:2.0px;stroke-linecap:butt;stroke-linejoin:miter;stroke-opacity:1"/>
<path class="bond-14 atom-13 atom-15" d="M 87.9,72.0 L 95.6,39.8" style="fill:none;fill-rule:evenodd;stroke:#000000;stroke-width:2.0px;stroke-linecap:butt;stroke-linejoin:miter;stroke-opacity:1"/>
<path class="bond-15 atom-13 atom-16" d="M 87.9,72.0 L 55.7,64.3" style="fill:none;fill-rule:evenodd;stroke:#000000;stroke-width:2.0px;stroke-linecap:butt;stroke-linejoin:miter;stroke-opacity:1"/>
<path class="bond-16 atom-16 atom-17" d="M 58.5,65.0 L 54.4,51.4" style="fill:none;fill-rule:evenodd;stroke:#000000;stroke-width:2.0px;stroke-linecap:butt;stroke-linejoin:miter;stroke-opacity:1"/>
<path class="bond-16 atom-16 atom-17" d="M 54.4,51.4 L 50.4,37.9" style="fill:none;fill-rule:evenodd;stroke:#FF0000;stroke-width:2.0px;stroke-linecap:butt;stroke-linejoin:miter;stroke-opacity:1"/>
<path class="bond-16 atom-16 atom-17" d="M 53.8,66.4 L 49.7,52.8" style="fill:none;fill-rule:evenodd;stroke:#000000;stroke-width:2.0px;stroke-linecap:butt;stroke-linejoin:miter;stroke-opacity:1"/>
<path class="bond-16 atom-16 atom-17" d="M 49.7,52.8 L 45.7,39.3" style="fill:none;fill-rule:evenodd;stroke:#FF0000;stroke-width:2.0px;stroke-linecap:butt;stroke-linejoin:miter;stroke-opacity:1"/>
<path class="bond-17 atom-16 atom-18" d="M 55.7,64.3 L 47.1,73.5" style="fill:none;fill-rule:evenodd;stroke:#000000;stroke-width:2.0px;stroke-linecap:butt;stroke-linejoin:miter;stroke-opacity:1"/>
<path class="bond-17 atom-16 atom-18" d="M 47.1,73.5 L 38.4,82.7" style="fill:none;fill-rule:evenodd;stroke:#FF0000;stroke-width:2.0px;stroke-linecap:butt;stroke-linejoin:miter;stroke-opacity:1"/>
<path class="bond-18 atom-6 atom-19" d="M 169.0,69.7 L 144.9,46.9" style="fill:none;fill-rule:evenodd;stroke:#000000;stroke-width:2.0px;stroke-linecap:butt;stroke-linejoin:miter;stroke-opacity:1"/>
<path class="bond-19 atom-19 atom-20" d="M 146.9,48.9 L 150.2,35.1" style="fill:none;fill-rule:evenodd;stroke:#000000;stroke-width:2.0px;stroke-linecap:butt;stroke-linejoin:miter;stroke-opacity:1"/>
<path class="bond-19 atom-19 atom-20" d="M 150.2,35.1 L 153.5,21.3" style="fill:none;fill-rule:evenodd;stroke:#FF0000;stroke-width:2.0px;stroke-linecap:butt;stroke-linejoin:miter;stroke-opacity:1"/>
<path class="bond-19 atom-19 atom-20" d="M 142.2,47.7 L 145.5,33.9" style="fill:none;fill-rule:evenodd;stroke:#000000;stroke-width:2.0px;stroke-linecap:butt;stroke-linejoin:miter;stroke-opacity:1"/>
<path class="bond-19 atom-19 atom-20" d="M 145.5,33.9 L 148.7,20.1" style="fill:none;fill-rule:evenodd;stroke:#FF0000;stroke-width:2.0px;stroke-linecap:butt;stroke-linejoin:miter;stroke-opacity:1"/>
<path class="bond-20 atom-19 atom-21" d="M 144.9,46.9 L 131.7,50.9" style="fill:none;fill-rule:evenodd;stroke:#000000;stroke-width:2.0px;stroke-linecap:butt;stroke-linejoin:miter;stroke-opacity:1"/>
<path class="bond-20 atom-19 atom-21" d="M 131.7,50.9 L 118.6,54.8" style="fill:none;fill-rule:evenodd;stroke:#FF0000;stroke-width:2.0px;stroke-linecap:butt;stroke-linejoin:miter;stroke-opacity:1"/>
<path class="bond-21 atom-3 atom-22" d="M 224.7,82.9 L 247.5,58.8" style="fill:none;fill-rule:evenodd;stroke:#000000;stroke-width:2.0px;stroke-linecap:butt;stroke-linejoin:miter;stroke-opacity:1"/>
<path class="bond-22 atom-22 atom-23" d="M 245.5,60.9 L 259.6,64.2" style="fill:none;fill-rule:evenodd;stroke:#000000;stroke-width:2.0px;stroke-linecap:butt;stroke-linejoin:miter;stroke-opacity:1"/>
<path class="bond-22 atom-22 atom-23" d="M 259.6,64.2 L 273.7,67.6" style="fill:none;fill-rule:evenodd;stroke:#FF0000;stroke-width:2.0px;stroke-linecap:butt;stroke-linejoin:miter;stroke-opacity:1"/>
<path class="bond-22 atom-22 atom-23" d="M 246.6,56.1 L 260.7,59.5" style="fill:none;fill-rule:evenodd;stroke:#000000;stroke-width:2.0px;stroke-linecap:butt;stroke-linejoin:miter;stroke-opacity:1"/>
<path class="bond-22 atom-22 atom-23" d="M 260.7,59.5 L 274.8,62.8" style="fill:none;fill-rule:evenodd;stroke:#FF0000;stroke-width:2.0px;stroke-linecap:butt;stroke-linejoin:miter;stroke-opacity:1"/>
<path class="bond-23 atom-22 atom-24" d="M 247.5,58.8 L 243.6,46.0" style="fill:none;fill-rule:evenodd;stroke:#000000;stroke-width:2.0px;stroke-linecap:butt;stroke-linejoin:miter;stroke-opacity:1"/>
<path class="bond-23 atom-22 atom-24" d="M 243.6,46.0 L 239.8,33.1" style="fill:none;fill-rule:evenodd;stroke:#FF0000;stroke-width:2.0px;stroke-linecap:butt;stroke-linejoin:miter;stroke-opacity:1"/>
<path d="M 201.9,61.3 L 200.7,60.2 L 199.1,60.7" style="fill:none;stroke:#000000;stroke-width:2.0px;stroke-linecap:butt;stroke-linejoin:miter;stroke-opacity:1;"/>
<path d="M 161.7,100.3 L 161.3,101.9 L 159.7,102.3" style="fill:none;stroke:#000000;stroke-width:2.0px;stroke-linecap:butt;stroke-linejoin:miter;stroke-opacity:1;"/>
<path d="M 138.6,141.5 L 139.1,143.1 L 138.7,143.5" style="fill:none;stroke:#000000;stroke-width:2.0px;stroke-linecap:butt;stroke-linejoin:miter;stroke-opacity:1;"/>
<path d="M 120.6,81.2 L 120.1,79.6 L 118.5,79.3" style="fill:none;stroke:#000000;stroke-width:2.0px;stroke-linecap:butt;stroke-linejoin:miter;stroke-opacity:1;"/>
<path d="M 57.3,64.7 L 55.7,64.3 L 55.3,64.8" style="fill:none;stroke:#000000;stroke-width:2.0px;stroke-linecap:butt;stroke-linejoin:miter;stroke-opacity:1;"/>
<path d="M 146.1,48.1 L 144.9,46.9 L 144.2,47.1" style="fill:none;stroke:#000000;stroke-width:2.0px;stroke-linecap:butt;stroke-linejoin:miter;stroke-opacity:1;"/>
<path d="M 246.3,60.0 L 247.5,58.8 L 247.3,58.2" style="fill:none;stroke:#000000;stroke-width:2.0px;stroke-linecap:butt;stroke-linejoin:miter;stroke-opacity:1;"/>
<path class="atom-2" d="M 166.7 102.6 L 168.0 102.6 L 168.0 106.6 L 172.8 106.6 L 172.8 102.6 L 174.1 102.6 L 174.1 112.0 L 172.8 112.0 L 172.8 107.6 L 168.0 107.6 L 168.0 112.0 L 166.7 112.0 L 166.7 102.6 " fill="#FF0000"/>
<path class="atom-2" d="M 176.0 107.2 Q 176.0 105.0, 177.1 103.7 Q 178.2 102.5, 180.3 102.5 Q 182.4 102.5, 183.5 103.7 Q 184.6 105.0, 184.6 107.2 Q 184.6 109.5, 183.5 110.8 Q 182.4 112.1, 180.3 112.1 Q 178.2 112.1, 177.1 110.8 Q 176.0 109.5, 176.0 107.2 M 180.3 111.0 Q 181.7 111.0, 182.5 110.1 Q 183.3 109.1, 183.3 107.2 Q 183.3 105.4, 182.5 104.5 Q 181.7 103.5, 180.3 103.5 Q 178.9 103.5, 178.1 104.5 Q 177.3 105.4, 177.3 107.2 Q 177.3 109.1, 178.1 110.1 Q 178.9 111.0, 180.3 111.0 " fill="#FF0000"/>
<path class="atom-11" d="M 102.8 162.5 L 104.1 162.5 L 104.1 166.5 L 108.9 166.5 L 108.9 162.5 L 110.1 162.5 L 110.1 171.9 L 108.9 171.9 L 108.9 167.5 L 104.1 167.5 L 104.1 171.9 L 102.8 171.9 L 102.8 162.5 " fill="#FF0000"/>
<path class="atom-11" d="M 112.1 167.1 Q 112.1 164.9, 113.2 163.6 Q 114.3 162.4, 116.4 162.4 Q 118.4 162.4, 119.6 163.6 Q 120.7 164.9, 120.7 167.1 Q 120.7 169.4, 119.5 170.7 Q 118.4 172.0, 116.4 172.0 Q 114.3 172.0, 113.2 170.7 Q 112.1 169.4, 112.1 167.1 M 116.4 170.9 Q 117.8 170.9, 118.6 170.0 Q 119.3 169.0, 119.3 167.1 Q 119.3 165.3, 118.6 164.4 Q 117.8 163.4, 116.4 163.4 Q 114.9 163.4, 114.2 164.4 Q 113.4 165.3, 113.4 167.1 Q 113.4 169.0, 114.2 170.0 Q 114.9 170.9, 116.4 170.9 " fill="#FF0000"/>
<path class="atom-17" d="M 41.9 32.7 Q 41.9 30.4, 43.1 29.2 Q 44.2 27.9, 46.2 27.9 Q 48.3 27.9, 49.4 29.2 Q 50.5 30.4, 50.5 32.7 Q 50.5 34.9, 49.4 36.2 Q 48.3 37.5, 46.2 37.5 Q 44.2 37.5, 43.1 36.2 Q 41.9 35.0, 41.9 32.7 M 46.2 36.5 Q 47.7 36.5, 48.4 35.5 Q 49.2 34.5, 49.2 32.7 Q 49.2 30.8, 48.4 29.9 Q 47.7 29.0, 46.2 29.0 Q 44.8 29.0, 44.0 29.9 Q 43.3 30.8, 43.3 32.7 Q 43.3 34.6, 44.0 35.5 Q 44.8 36.5, 46.2 36.5 " fill="#FF0000"/>
<path class="atom-18" d="M 19.4 83.8 L 20.7 83.8 L 20.7 87.8 L 25.5 87.8 L 25.5 83.8 L 26.8 83.8 L 26.8 93.1 L 25.5 93.1 L 25.5 88.8 L 20.7 88.8 L 20.7 93.1 L 19.4 93.1 L 19.4 83.8 " fill="#FF0000"/>
<path class="atom-18" d="M 28.7 88.4 Q 28.7 86.2, 29.8 84.9 Q 30.9 83.7, 33.0 83.7 Q 35.1 83.7, 36.2 84.9 Q 37.3 86.2, 37.3 88.4 Q 37.3 90.7, 36.2 92.0 Q 35.1 93.3, 33.0 93.3 Q 30.9 93.3, 29.8 92.0 Q 28.7 90.7, 28.7 88.4 M 33.0 92.2 Q 34.4 92.2, 35.2 91.3 Q 36.0 90.3, 36.0 88.4 Q 36.0 86.6, 35.2 85.7 Q 34.4 84.7, 33.0 84.7 Q 31.6 84.7, 30.8 85.7 Q 30.0 86.6, 30.0 88.4 Q 30.0 90.3, 30.8 91.3 Q 31.6 92.2, 33.0 92.2 " fill="#FF0000"/>
<path class="atom-20" d="M 148.2 14.8 Q 148.2 12.5, 149.3 11.3 Q 150.5 10.0, 152.5 10.0 Q 154.6 10.0, 155.7 11.3 Q 156.8 12.5, 156.8 14.8 Q 156.8 17.0, 155.7 18.3 Q 154.6 19.6, 152.5 19.6 Q 150.5 19.6, 149.3 18.3 Q 148.2 17.1, 148.2 14.8 M 152.5 18.6 Q 154.0 18.6, 154.7 17.6 Q 155.5 16.6, 155.5 14.8 Q 155.5 12.9, 154.7 12.0 Q 154.0 11.1, 152.5 11.1 Q 151.1 11.1, 150.3 12.0 Q 149.6 12.9, 149.6 14.8 Q 149.6 16.7, 150.3 17.6 Q 151.1 18.6, 152.5 18.6 " fill="#FF0000"/>
<path class="atom-21" d="M 99.6 51.8 L 100.9 51.8 L 100.9 55.8 L 105.7 55.8 L 105.7 51.8 L 107.0 51.8 L 107.0 61.2 L 105.7 61.2 L 105.7 56.8 L 100.9 56.8 L 100.9 61.2 L 99.6 61.2 L 99.6 51.8 " fill="#FF0000"/>
<path class="atom-21" d="M 108.9 56.4 Q 108.9 54.2, 110.0 52.9 Q 111.1 51.7, 113.2 51.7 Q 115.3 51.7, 116.4 52.9 Q 117.5 54.2, 117.5 56.4 Q 117.5 58.7, 116.4 60.0 Q 115.2 61.3, 113.2 61.3 Q 111.1 61.3, 110.0 60.0 Q 108.9 58.7, 108.9 56.4 M 113.2 60.2 Q 114.6 60.2, 115.4 59.3 Q 116.2 58.3, 116.2 56.4 Q 116.2 54.6, 115.4 53.7 Q 114.6 52.7, 113.2 52.7 Q 111.8 52.7, 111.0 53.7 Q 110.2 54.6, 110.2 56.4 Q 110.2 58.3, 111.0 59.3 Q 111.8 60.2, 113.2 60.2 " fill="#FF0000"/>
<path class="atom-23" d="M 275.4 66.5 Q 275.4 64.3, 276.5 63.0 Q 277.6 61.7, 279.7 61.7 Q 281.7 61.7, 282.8 63.0 Q 284.0 64.3, 284.0 66.5 Q 284.0 68.8, 282.8 70.1 Q 281.7 71.4, 279.7 71.4 Q 277.6 71.4, 276.5 70.1 Q 275.4 68.8, 275.4 66.5 M 279.7 70.3 Q 281.1 70.3, 281.9 69.4 Q 282.6 68.4, 282.6 66.5 Q 282.6 64.7, 281.9 63.7 Q 281.1 62.8, 279.7 62.8 Q 278.2 62.8, 277.4 63.7 Q 276.7 64.7, 276.7 66.5 Q 276.7 68.4, 277.4 69.4 Q 278.2 70.3, 279.7 70.3 " fill="#FF0000"/>
<path class="atom-24" d="M 233.7 27.2 Q 233.7 24.9, 234.8 23.6 Q 235.9 22.4, 238.0 22.4 Q 240.1 22.4, 241.2 23.6 Q 242.3 24.9, 242.3 27.2 Q 242.3 29.4, 241.2 30.7 Q 240.0 32.0, 238.0 32.0 Q 235.9 32.0, 234.8 30.7 Q 233.7 29.4, 233.7 27.2 M 238.0 31.0 Q 239.4 31.0, 240.2 30.0 Q 241.0 29.0, 241.0 27.2 Q 241.0 25.3, 240.2 24.4 Q 239.4 23.4, 238.0 23.4 Q 236.5 23.4, 235.8 24.4 Q 235.0 25.3, 235.0 27.2 Q 235.0 29.0, 235.8 30.0 Q 236.5 31.0, 238.0 31.0 " fill="#FF0000"/>
<path class="atom-24" d="M 243.7 22.5 L 245.0 22.5 L 245.0 26.5 L 249.8 26.5 L 249.8 22.5 L 251.1 22.5 L 251.1 31.9 L 249.8 31.9 L 249.8 27.5 L 245.0 27.5 L 245.0 31.9 L 243.7 31.9 L 243.7 22.5 " fill="#FF0000"/>
<path class="legend" d="M 142.7 181.9 Q 142.7 179.6, 143.4 177.7 Q 144.0 175.8, 145.3 173.8 L 146.2 174.4 Q 145.2 176.3, 144.6 178.0 Q 144.1 179.7, 144.1 181.9 Q 144.1 184.0, 144.6 185.8 Q 145.2 187.5, 146.2 189.4 L 145.3 190.0 Q 144.0 188.0, 143.4 186.1 Q 142.7 184.2, 142.7 181.9 " fill="#000000"/>
<path class="legend" d="M 147.1 177.3 Q 147.6 176.2, 148.5 175.6 Q 149.5 175.0, 150.9 175.0 Q 152.6 175.0, 153.6 175.9 Q 154.5 176.8, 154.5 178.5 Q 154.5 180.2, 153.3 181.7 Q 152.1 183.3, 149.5 185.2 L 154.7 185.2 L 154.7 186.4 L 147.1 186.4 L 147.1 185.4 Q 149.2 183.9, 150.5 182.8 Q 151.7 181.6, 152.3 180.6 Q 152.9 179.6, 152.9 178.6 Q 152.9 177.5, 152.4 176.9 Q 151.9 176.3, 150.9 176.3 Q 150.0 176.3, 149.4 176.6 Q 148.8 177.0, 148.4 177.8 L 147.1 177.3 " fill="#000000"/>
<path class="legend" d="M 159.7 181.9 Q 159.7 184.2, 159.0 186.1 Q 158.4 188.0, 157.1 190.0 L 156.2 189.4 Q 157.2 187.5, 157.7 185.8 Q 158.3 184.0, 158.3 181.9 Q 158.3 179.7, 157.7 178.0 Q 157.2 176.3, 156.2 174.4 L 157.1 173.8 Q 158.4 175.8, 159.0 177.7 Q 159.7 179.6, 159.7 181.9 " fill="#000000"/>
</g>
    <g transform="translate(304.0, 0) scale(1 1) "><line x1="5" y1="100" x2="35" y2="100" style="stroke:rgb(0,0,0);stroke-width:2"/>
  <line x1="34" y1="100" x2="29" y2="95" style="stroke:rgb(0,0,0);stroke-width:2"/>
  <line x1="34" y1="100" x2="29" y2="105" style="stroke:rgb(0,0,0);stroke-width:2"/>
</g>
    <g transform="translate(344.0, 0) scale(1 1) "><!-- END OF HEADER -->
<rect style="opacity:1.0;fill:#FFFFFF;stroke:none" width="347.0" height="200.0" x="0.0" y="0.0"> </rect>
<path class="bond-0 atom-0 atom-1" d="M 163.9,57.4 L 156.4,81.5" style="fill:none;fill-rule:evenodd;stroke:#000000;stroke-width:2.0px;stroke-linecap:butt;stroke-linejoin:miter;stroke-opacity:1"/>
<path class="bond-1 atom-1 atom-2" d="M 156.4,81.5 L 150.2,81.3" style="fill:none;fill-rule:evenodd;stroke:#000000;stroke-width:2.0px;stroke-linecap:butt;stroke-linejoin:miter;stroke-opacity:1"/>
<path class="bond-1 atom-1 atom-2" d="M 150.2,81.3 L 144.0,81.2" style="fill:none;fill-rule:evenodd;stroke:#FF0000;stroke-width:2.0px;stroke-linecap:butt;stroke-linejoin:miter;stroke-opacity:1"/>
<path class="bond-2 atom-1 atom-3" d="M 156.4,81.5 L 173.5,99.9" style="fill:none;fill-rule:evenodd;stroke:#000000;stroke-width:2.0px;stroke-linecap:butt;stroke-linejoin:miter;stroke-opacity:1"/>
<path class="bond-3 atom-3 atom-4" d="M 173.5,99.9 L 155.0,117.1" style="fill:none;fill-rule:evenodd;stroke:#000000;stroke-width:2.0px;stroke-linecap:butt;stroke-linejoin:miter;stroke-opacity:1"/>
<path class="bond-4 atom-4 atom-5" d="M 155.0,117.1 L 131.0,109.6" style="fill:none;fill-rule:evenodd;stroke:#000000;stroke-width:2.0px;stroke-linecap:butt;stroke-linejoin:miter;stroke-opacity:1"/>
<path class="bond-5 atom-5 atom-6" d="M 131.0,109.6 L 125.4,85.1" style="fill:none;fill-rule:evenodd;stroke:#000000;stroke-width:2.0px;stroke-linecap:butt;stroke-linejoin:miter;stroke-opacity:1"/>
<path class="bond-6 atom-6 atom-7" d="M 125.4,85.1 L 101.3,77.6" style="fill:none;fill-rule:evenodd;stroke:#000000;stroke-width:2.0px;stroke-linecap:butt;stroke-linejoin:miter;stroke-opacity:1"/>
<path class="bond-7 atom-7 atom-8" d="M 101.3,77.6 L 77.3,70.2" style="fill:none;fill-rule:evenodd;stroke:#000000;stroke-width:2.0px;stroke-linecap:butt;stroke-linejoin:miter;stroke-opacity:1"/>
<path class="bond-8 atom-7 atom-9" d="M 101.3,77.6 L 108.8,53.5" style="fill:none;fill-rule:evenodd;stroke:#000000;stroke-width:2.0px;stroke-linecap:butt;stroke-linejoin:miter;stroke-opacity:1"/>
<path class="bond-9 atom-9 atom-10" d="M 108.8,53.5 L 102.3,46.5" style="fill:none;fill-rule:evenodd;stroke:#000000;stroke-width:2.0px;stroke-linecap:butt;stroke-linejoin:miter;stroke-opacity:1"/>
<path class="bond-9 atom-9 atom-10" d="M 102.3,46.5 L 95.8,39.5" style="fill:none;fill-rule:evenodd;stroke:#FF0000;stroke-width:2.0px;stroke-linecap:butt;stroke-linejoin:miter;stroke-opacity:1"/>
<path class="bond-10 atom-7 atom-11" d="M 101.3,77.6 L 93.9,101.7" style="fill:none;fill-rule:evenodd;stroke:#000000;stroke-width:2.0px;stroke-linecap:butt;stroke-linejoin:miter;stroke-opacity:1"/>
<path class="bond-11 atom-11 atom-12" d="M 93.9,101.7 L 69.3,107.2" style="fill:none;fill-rule:evenodd;stroke:#000000;stroke-width:2.0px;stroke-linecap:butt;stroke-linejoin:miter;stroke-opacity:1"/>
<path class="bond-12 atom-12 atom-13" d="M 69.3,107.2 L 63.8,82.7" style="fill:none;fill-rule:evenodd;stroke:#000000;stroke-width:2.0px;stroke-linecap:butt;stroke-linejoin:miter;stroke-opacity:1"/>
<path class="bond-13 atom-12 atom-14" d="M 69.3,107.2 L 74.9,131.8" style="fill:none;fill-rule:evenodd;stroke:#000000;stroke-width:2.0px;stroke-linecap:butt;stroke-linejoin:miter;stroke-opacity:1"/>
<path class="bond-14 atom-12 atom-15" d="M 69.3,107.2 L 44.8,112.8" style="fill:none;fill-rule:evenodd;stroke:#000000;stroke-width:2.0px;stroke-linecap:butt;stroke-linejoin:miter;stroke-opacity:1"/>
<path class="bond-15 atom-15 atom-16" d="M 43.3,111.3 L 40.1,121.6" style="fill:none;fill-rule:evenodd;stroke:#000000;stroke-width:2.0px;stroke-linecap:butt;stroke-linejoin:miter;stroke-opacity:1"/>
<path class="bond-15 atom-15 atom-16" d="M 40.1,121.6 L 36.9,131.9" style="fill:none;fill-rule:evenodd;stroke:#FF0000;stroke-width:2.0px;stroke-linecap:butt;stroke-linejoin:miter;stroke-opacity:1"/>
<path class="bond-15 atom-15 atom-16" d="M 46.9,112.4 L 43.7,122.7" style="fill:none;fill-rule:evenodd;stroke:#000000;stroke-width:2.0px;stroke-linecap:butt;stroke-linejoin:miter;stroke-opacity:1"/>
<path class="bond-15 atom-15 atom-16" d="M 43.7,122.7 L 40.5,133.0" style="fill:none;fill-rule:evenodd;stroke:#FF0000;stroke-width:2.0px;stroke-linecap:butt;stroke-linejoin:miter;stroke-opacity:1"/>
<path class="bond-16 atom-15 atom-17" d="M 44.8,112.8 L 38.3,105.8" style="fill:none;fill-rule:evenodd;stroke:#000000;stroke-width:2.0px;stroke-linecap:butt;stroke-linejoin:miter;stroke-opacity:1"/>
<path class="bond-16 atom-15 atom-17" d="M 38.3,105.8 L 31.8,98.8" style="fill:none;fill-rule:evenodd;stroke:#FF0000;stroke-width:2.0px;stroke-linecap:butt;stroke-linejoin:miter;stroke-opacity:1"/>
<path class="bond-17 atom-5 atom-18" d="M 131.0,109.6 L 112.5,126.7" style="fill:none;fill-rule:evenodd;stroke:#000000;stroke-width:2.0px;stroke-linecap:butt;stroke-linejoin:miter;stroke-opacity:1"/>
<path class="bond-18 atom-18 atom-19" d="M 110.5,126.1 L 112.9,136.7" style="fill:none;fill-rule:evenodd;stroke:#000000;stroke-width:2.0px;stroke-linecap:butt;stroke-linejoin:miter;stroke-opacity:1"/>
<path class="bond-18 atom-18 atom-19" d="M 112.9,136.7 L 115.3,147.3" style="fill:none;fill-rule:evenodd;stroke:#FF0000;stroke-width:2.0px;stroke-linecap:butt;stroke-linejoin:miter;stroke-opacity:1"/>
<path class="bond-18 atom-18 atom-19" d="M 114.1,125.3 L 116.5,135.9" style="fill:none;fill-rule:evenodd;stroke:#000000;stroke-width:2.0px;stroke-linecap:butt;stroke-linejoin:miter;stroke-opacity:1"/>
<path class="bond-18 atom-18 atom-19" d="M 116.5,135.9 L 118.9,146.4" style="fill:none;fill-rule:evenodd;stroke:#FF0000;stroke-width:2.0px;stroke-linecap:butt;stroke-linejoin:miter;stroke-opacity:1"/>
<path class="bond-19 atom-18 atom-20" d="M 112.5,126.7 L 102.5,123.6" style="fill:none;fill-rule:evenodd;stroke:#000000;stroke-width:2.0px;stroke-linecap:butt;stroke-linejoin:miter;stroke-opacity:1"/>
<path class="bond-19 atom-18 atom-20" d="M 102.5,123.6 L 92.5,120.5" style="fill:none;fill-rule:evenodd;stroke:#FF0000;stroke-width:2.0px;stroke-linecap:butt;stroke-linejoin:miter;stroke-opacity:1"/>
<path class="bond-20 atom-3 atom-21" d="M 173.5,99.9 L 192.0,82.8" style="fill:none;fill-rule:evenodd;stroke:#000000;stroke-width:2.0px;stroke-linecap:butt;stroke-linejoin:miter;stroke-opacity:1"/>
<path class="bond-21 atom-21 atom-22" d="M 192.0,82.8 L 216.1,90.3" style="fill:none;fill-rule:evenodd;stroke:#000000;stroke-width:2.0px;stroke-linecap:butt;stroke-linejoin:miter;stroke-opacity:1"/>
<path class="bond-22 atom-22 atom-23" d="M 216.1,90.3 L 221.6,114.8" style="fill:none;fill-rule:evenodd;stroke:#000000;stroke-width:2.0px;stroke-linecap:butt;stroke-linejoin:miter;stroke-opacity:1"/>
<path class="bond-23 atom-23 atom-24" d="M 221.6,114.8 L 245.7,122.3" style="fill:none;fill-rule:evenodd;stroke:#000000;stroke-width:2.0px;stroke-linecap:butt;stroke-linejoin:miter;stroke-opacity:1"/>
<path class="bond-24 atom-24 atom-25" d="M 245.7,122.3 L 269.8,129.7" style="fill:none;fill-rule:evenodd;stroke:#000000;stroke-width:2.0px;stroke-linecap:butt;stroke-linejoin:miter;stroke-opacity:1"/>
<path class="bond-25 atom-24 atom-26" d="M 245.7,122.3 L 238.3,146.3" style="fill:none;fill-rule:evenodd;stroke:#000000;stroke-width:2.0px;stroke-linecap:butt;stroke-linejoin:miter;stroke-opacity:1"/>
<path class="bond-26 atom-26 atom-27" d="M 238.3,146.3 L 244.8,153.4" style="fill:none;fill-rule:evenodd;stroke:#000000;stroke-width:2.0px;stroke-linecap:butt;stroke-linejoin:miter;stroke-opacity:1"/>
<path class="bond-26 atom-26 atom-27" d="M 244.8,153.4 L 251.3,160.4" style="fill:none;fill-rule:evenodd;stroke:#FF0000;stroke-width:2.0px;stroke-linecap:butt;stroke-linejoin:miter;stroke-opacity:1"/>
<path class="bond-27 atom-24 atom-28" d="M 245.7,122.3 L 253.2,98.2" style="fill:none;fill-rule:evenodd;stroke:#000000;stroke-width:2.0px;stroke-linecap:butt;stroke-linejoin:miter;stroke-opacity:1"/>
<path class="bond-28 atom-28 atom-29" d="M 253.2,98.2 L 277.7,92.6" style="fill:none;fill-rule:evenodd;stroke:#000000;stroke-width:2.0px;stroke-linecap:butt;stroke-linejoin:miter;stroke-opacity:1"/>
<path class="bond-29 atom-29 atom-30" d="M 277.7,92.6 L 283.3,117.2" style="fill:none;fill-rule:evenodd;stroke:#000000;stroke-width:2.0px;stroke-linecap:butt;stroke-linejoin:miter;stroke-opacity:1"/>
<path class="bond-30 atom-29 atom-31" d="M 277.7,92.6 L 272.1,68.1" style="fill:none;fill-rule:evenodd;stroke:#000000;stroke-width:2.0px;stroke-linecap:butt;stroke-linejoin:miter;stroke-opacity:1"/>
<path class="bond-31 atom-29 atom-32" d="M 277.7,92.6 L 302.3,87.1" style="fill:none;fill-rule:evenodd;stroke:#000000;stroke-width:2.0px;stroke-linecap:butt;stroke-linejoin:miter;stroke-opacity:1"/>
<path class="bond-32 atom-32 atom-33" d="M 303.7,88.6 L 306.9,78.4" style="fill:none;fill-rule:evenodd;stroke:#000000;stroke-width:2.0px;stroke-linecap:butt;stroke-linejoin:miter;stroke-opacity:1"/>
<path class="bond-32 atom-32 atom-33" d="M 306.9,78.4 L 310.1,68.1" style="fill:none;fill-rule:evenodd;stroke:#FF0000;stroke-width:2.0px;stroke-linecap:butt;stroke-linejoin:miter;stroke-opacity:1"/>
<path class="bond-32 atom-32 atom-33" d="M 300.2,87.5 L 303.4,77.3" style="fill:none;fill-rule:evenodd;stroke:#000000;stroke-width:2.0px;stroke-linecap:butt;stroke-linejoin:miter;stroke-opacity:1"/>
<path class="bond-32 atom-32 atom-33" d="M 303.4,77.3 L 306.5,67.0" style="fill:none;fill-rule:evenodd;stroke:#FF0000;stroke-width:2.0px;stroke-linecap:butt;stroke-linejoin:miter;stroke-opacity:1"/>
<path class="bond-33 atom-32 atom-34" d="M 302.3,87.1 L 308.8,94.1" style="fill:none;fill-rule:evenodd;stroke:#000000;stroke-width:2.0px;stroke-linecap:butt;stroke-linejoin:miter;stroke-opacity:1"/>
<path class="bond-33 atom-32 atom-34" d="M 308.8,94.1 L 315.3,101.1" style="fill:none;fill-rule:evenodd;stroke:#FF0000;stroke-width:2.0px;stroke-linecap:butt;stroke-linejoin:miter;stroke-opacity:1"/>
<path class="bond-34 atom-22 atom-35" d="M 216.1,90.3 L 234.5,73.2" style="fill:none;fill-rule:evenodd;stroke:#000000;stroke-width:2.0px;stroke-linecap:butt;stroke-linejoin:miter;stroke-opacity:1"/>
<path class="bond-35 atom-35 atom-36" d="M 233.0,74.6 L 243.5,77.9" style="fill:none;fill-rule:evenodd;stroke:#000000;stroke-width:2.0px;stroke-linecap:butt;stroke-linejoin:miter;stroke-opacity:1"/>
<path class="bond-35 atom-35 atom-36" d="M 243.5,77.9 L 254.0,81.1" style="fill:none;fill-rule:evenodd;stroke:#FF0000;stroke-width:2.0px;stroke-linecap:butt;stroke-linejoin:miter;stroke-opacity:1"/>
<path class="bond-35 atom-35 atom-36" d="M 234.1,71.1 L 244.6,74.3" style="fill:none;fill-rule:evenodd;stroke:#000000;stroke-width:2.0px;stroke-linecap:butt;stroke-linejoin:miter;stroke-opacity:1"/>
<path class="bond-35 atom-35 atom-36" d="M 244.6,74.3 L 255.1,77.6" style="fill:none;fill-rule:evenodd;stroke:#FF0000;stroke-width:2.0px;stroke-linecap:butt;stroke-linejoin:miter;stroke-opacity:1"/>
<path class="bond-36 atom-35 atom-37" d="M 234.5,73.2 L 232.3,63.2" style="fill:none;fill-rule:evenodd;stroke:#000000;stroke-width:2.0px;stroke-linecap:butt;stroke-linejoin:miter;stroke-opacity:1"/>
<path class="bond-36 atom-35 atom-37" d="M 232.3,63.2 L 230.0,53.1" style="fill:none;fill-rule:evenodd;stroke:#FF0000;stroke-width:2.0px;stroke-linecap:butt;stroke-linejoin:miter;stroke-opacity:1"/>
<path class="bond-37 atom-3 atom-38" d="M 173.5,99.9 L 190.6,118.4" style="fill:none;fill-rule:evenodd;stroke:#000000;stroke-width:2.0px;stroke-linecap:butt;stroke-linejoin:miter;stroke-opacity:1"/>
<path class="bond-38 atom-38 atom-39" d="M 189.2,116.9 L 186.0,127.2" style="fill:none;fill-rule:evenodd;stroke:#000000;stroke-width:2.0px;stroke-linecap:butt;stroke-linejoin:miter;stroke-opacity:1"/>
<path class="bond-38 atom-38 atom-39" d="M 186.0,127.2 L 182.8,137.5" style="fill:none;fill-rule:evenodd;stroke:#FF0000;stroke-width:2.0px;stroke-linecap:butt;stroke-linejoin:miter;stroke-opacity:1"/>
<path class="bond-38 atom-38 atom-39" d="M 192.6,118.5 L 189.5,128.3" style="fill:none;fill-rule:evenodd;stroke:#000000;stroke-width:2.0px;stroke-linecap:butt;stroke-linejoin:miter;stroke-opacity:1"/>
<path class="bond-38 atom-38 atom-39" d="M 189.5,128.3 L 186.3,138.6" style="fill:none;fill-rule:evenodd;stroke:#FF0000;stroke-width:2.0px;stroke-linecap:butt;stroke-linejoin:miter;stroke-opacity:1"/>
<path class="bond-39 atom-38 atom-40" d="M 190.6,118.4 L 196.9,118.6" style="fill:none;fill-rule:evenodd;stroke:#000000;stroke-width:2.0px;stroke-linecap:butt;stroke-linejoin:miter;stroke-opacity:1"/>
<path class="bond-39 atom-38 atom-40" d="M 196.9,118.6 L 203.1,118.7" style="fill:none;fill-rule:evenodd;stroke:#FF0000;stroke-width:2.0px;stroke-linecap:butt;stroke-linejoin:miter;stroke-opacity:1"/>
<path d="M 156.0,116.2 L 155.0,117.1 L 153.8,116.7" style="fill:none;stroke:#000000;stroke-width:2.0px;stroke-linecap:butt;stroke-linejoin:miter;stroke-opacity:1;"/>
<path d="M 125.7,86.3 L 125.4,85.1 L 124.2,84.7" style="fill:none;stroke:#000000;stroke-width:2.0px;stroke-linecap:butt;stroke-linejoin:miter;stroke-opacity:1;"/>
<path d="M 108.4,54.7 L 108.8,53.5 L 108.5,53.2" style="fill:none;stroke:#000000;stroke-width:2.0px;stroke-linecap:butt;stroke-linejoin:miter;stroke-opacity:1;"/>
<path d="M 94.3,100.5 L 93.9,101.7 L 92.7,101.9" style="fill:none;stroke:#000000;stroke-width:2.0px;stroke-linecap:butt;stroke-linejoin:miter;stroke-opacity:1;"/>
<path d="M 46.0,112.5 L 44.8,112.8 L 44.5,112.5" style="fill:none;stroke:#000000;stroke-width:2.0px;stroke-linecap:butt;stroke-linejoin:miter;stroke-opacity:1;"/>
<path d="M 113.4,125.9 L 112.5,126.7 L 112.0,126.6" style="fill:none;stroke:#000000;stroke-width:2.0px;stroke-linecap:butt;stroke-linejoin:miter;stroke-opacity:1;"/>
<path d="M 191.1,83.7 L 192.0,82.8 L 193.2,83.2" style="fill:none;stroke:#000000;stroke-width:2.0px;stroke-linecap:butt;stroke-linejoin:miter;stroke-opacity:1;"/>
<path d="M 221.4,113.6 L 221.6,114.8 L 222.8,115.2" style="fill:none;stroke:#000000;stroke-width:2.0px;stroke-linecap:butt;stroke-linejoin:miter;stroke-opacity:1;"/>
<path d="M 238.6,145.1 L 238.3,146.3 L 238.6,146.7" style="fill:none;stroke:#000000;stroke-width:2.0px;stroke-linecap:butt;stroke-linejoin:miter;stroke-opacity:1;"/>
<path d="M 252.8,99.4 L 253.2,98.2 L 254.4,97.9" style="fill:none;stroke:#000000;stroke-width:2.0px;stroke-linecap:butt;stroke-linejoin:miter;stroke-opacity:1;"/>
<path d="M 301.0,87.3 L 302.3,87.1 L 302.6,87.4" style="fill:none;stroke:#000000;stroke-width:2.0px;stroke-linecap:butt;stroke-linejoin:miter;stroke-opacity:1;"/>
<path d="M 233.6,74.0 L 234.5,73.2 L 234.4,72.7" style="fill:none;stroke:#000000;stroke-width:2.0px;stroke-linecap:butt;stroke-linejoin:miter;stroke-opacity:1;"/>
<path d="M 189.8,117.5 L 190.6,118.4 L 191.0,118.4" style="fill:none;stroke:#000000;stroke-width:2.0px;stroke-linecap:butt;stroke-linejoin:miter;stroke-opacity:1;"/>
<path class="atom-2" d="M 129.6 77.6 L 130.5 77.6 L 130.5 80.6 L 134.2 80.6 L 134.2 77.6 L 135.2 77.6 L 135.2 84.7 L 134.2 84.7 L 134.2 81.4 L 130.5 81.4 L 130.5 84.7 L 129.6 84.7 L 129.6 77.6 " fill="#FF0000"/>
<path class="atom-2" d="M 136.6 81.1 Q 136.6 79.4, 137.5 78.5 Q 138.3 77.5, 139.9 77.5 Q 141.5 77.5, 142.3 78.5 Q 143.2 79.4, 143.2 81.1 Q 143.2 82.9, 142.3 83.9 Q 141.5 84.8, 139.9 84.8 Q 138.3 84.8, 137.5 83.9 Q 136.6 82.9, 136.6 81.1 M 139.9 84.0 Q 141.0 84.0, 141.6 83.3 Q 142.2 82.6, 142.2 81.1 Q 142.2 79.7, 141.6 79.0 Q 141.0 78.3, 139.9 78.3 Q 138.8 78.3, 138.2 79.0 Q 137.6 79.7, 137.6 81.1 Q 137.6 82.6, 138.2 83.3 Q 138.8 84.0, 139.9 84.0 " fill="#FF0000"/>
<path class="atom-10" d="M 81.4 31.5 L 82.3 31.5 L 82.3 34.6 L 86.0 34.6 L 86.0 31.5 L 86.9 31.5 L 86.9 38.7 L 86.0 38.7 L 86.0 35.4 L 82.3 35.4 L 82.3 38.7 L 81.4 38.7 L 81.4 31.5 " fill="#FF0000"/>
<path class="atom-10" d="M 88.4 35.1 Q 88.4 33.4, 89.3 32.4 Q 90.1 31.5, 91.7 31.5 Q 93.3 31.5, 94.1 32.4 Q 95.0 33.4, 95.0 35.1 Q 95.0 36.8, 94.1 37.8 Q 93.2 38.8, 91.7 38.8 Q 90.1 38.8, 89.3 37.8 Q 88.4 36.8, 88.4 35.1 M 91.7 38.0 Q 92.8 38.0, 93.4 37.3 Q 93.9 36.5, 93.9 35.1 Q 93.9 33.7, 93.4 33.0 Q 92.8 32.3, 91.7 32.3 Q 90.6 32.3, 90.0 33.0 Q 89.4 33.7, 89.4 35.1 Q 89.4 36.5, 90.0 37.3 Q 90.6 38.0, 91.7 38.0 " fill="#FF0000"/>
<path class="atom-16" d="M 34.1 136.9 Q 34.1 135.2, 34.9 134.2 Q 35.8 133.3, 37.3 133.3 Q 38.9 133.3, 39.8 134.2 Q 40.6 135.2, 40.6 136.9 Q 40.6 138.6, 39.8 139.6 Q 38.9 140.6, 37.3 140.6 Q 35.8 140.6, 34.9 139.6 Q 34.1 138.6, 34.1 136.9 M 37.3 139.8 Q 38.4 139.8, 39.0 139.1 Q 39.6 138.3, 39.6 136.9 Q 39.6 135.5, 39.0 134.8 Q 38.4 134.1, 37.3 134.1 Q 36.2 134.1, 35.7 134.8 Q 35.1 135.5, 35.1 136.9 Q 35.1 138.3, 35.7 139.1 Q 36.2 139.8, 37.3 139.8 " fill="#FF0000"/>
<path class="atom-17" d="M 17.4 90.8 L 18.3 90.8 L 18.3 93.9 L 22.0 93.9 L 22.0 90.8 L 22.9 90.8 L 22.9 98.0 L 22.0 98.0 L 22.0 94.7 L 18.3 94.7 L 18.3 98.0 L 17.4 98.0 L 17.4 90.8 " fill="#FF0000"/>
<path class="atom-17" d="M 24.4 94.4 Q 24.4 92.7, 25.2 91.7 Q 26.1 90.7, 27.7 90.7 Q 29.2 90.7, 30.1 91.7 Q 30.9 92.7, 30.9 94.4 Q 30.9 96.1, 30.1 97.1 Q 29.2 98.1, 27.7 98.1 Q 26.1 98.1, 25.2 97.1 Q 24.4 96.1, 24.4 94.4 M 27.7 97.3 Q 28.8 97.3, 29.3 96.5 Q 29.9 95.8, 29.9 94.4 Q 29.9 93.0, 29.3 92.3 Q 28.8 91.5, 27.7 91.5 Q 26.6 91.5, 26.0 92.3 Q 25.4 93.0, 25.4 94.4 Q 25.4 95.8, 26.0 96.5 Q 26.6 97.3, 27.7 97.3 " fill="#FF0000"/>
<path class="atom-19" d="M 114.8 151.3 Q 114.8 149.6, 115.7 148.6 Q 116.5 147.7, 118.1 147.7 Q 119.7 147.7, 120.5 148.6 Q 121.4 149.6, 121.4 151.3 Q 121.4 153.0, 120.5 154.0 Q 119.7 155.0, 118.1 155.0 Q 116.5 155.0, 115.7 154.0 Q 114.8 153.0, 114.8 151.3 M 118.1 154.2 Q 119.2 154.2, 119.8 153.5 Q 120.4 152.7, 120.4 151.3 Q 120.4 149.9, 119.8 149.2 Q 119.2 148.5, 118.1 148.5 Q 117.0 148.5, 116.4 149.2 Q 115.8 149.9, 115.8 151.3 Q 115.8 152.7, 116.4 153.5 Q 117.0 154.2, 118.1 154.2 " fill="#FF0000"/>
<path class="atom-20" d="M 78.1 115.8 L 79.1 115.8 L 79.1 118.8 L 82.7 118.8 L 82.7 115.8 L 83.7 115.8 L 83.7 122.9 L 82.7 122.9 L 82.7 119.6 L 79.1 119.6 L 79.1 122.9 L 78.1 122.9 L 78.1 115.8 " fill="#FF0000"/>
<path class="atom-20" d="M 85.2 119.3 Q 85.2 117.6, 86.0 116.6 Q 86.9 115.7, 88.4 115.7 Q 90.0 115.7, 90.9 116.6 Q 91.7 117.6, 91.7 119.3 Q 91.7 121.0, 90.9 122.0 Q 90.0 123.0, 88.4 123.0 Q 86.9 123.0, 86.0 122.0 Q 85.2 121.0, 85.2 119.3 M 88.4 122.2 Q 89.5 122.2, 90.1 121.5 Q 90.7 120.7, 90.7 119.3 Q 90.7 117.9, 90.1 117.2 Q 89.5 116.5, 88.4 116.5 Q 87.4 116.5, 86.8 117.2 Q 86.2 117.9, 86.2 119.3 Q 86.2 120.7, 86.8 121.5 Q 87.4 122.2, 88.4 122.2 " fill="#FF0000"/>
<path class="atom-27" d="M 252.1 164.8 Q 252.1 163.1, 252.9 162.2 Q 253.8 161.2, 255.4 161.2 Q 257.0 161.2, 257.8 162.2 Q 258.6 163.1, 258.6 164.8 Q 258.6 166.6, 257.8 167.6 Q 256.9 168.5, 255.4 168.5 Q 253.8 168.5, 252.9 167.6 Q 252.1 166.6, 252.1 164.8 M 255.4 167.7 Q 256.5 167.7, 257.0 167.0 Q 257.6 166.3, 257.6 164.8 Q 257.6 163.4, 257.0 162.7 Q 256.5 162.0, 255.4 162.0 Q 254.3 162.0, 253.7 162.7 Q 253.1 163.4, 253.1 164.8 Q 253.1 166.3, 253.7 167.0 Q 254.3 167.7, 255.4 167.7 " fill="#FF0000"/>
<path class="atom-27" d="M 259.8 161.3 L 260.7 161.3 L 260.7 164.3 L 264.4 164.3 L 264.4 161.3 L 265.3 161.3 L 265.3 168.4 L 264.4 168.4 L 264.4 165.1 L 260.7 165.1 L 260.7 168.4 L 259.8 168.4 L 259.8 161.3 " fill="#FF0000"/>
<path class="atom-33" d="M 306.4 63.0 Q 306.4 61.3, 307.3 60.4 Q 308.1 59.4, 309.7 59.4 Q 311.3 59.4, 312.1 60.4 Q 313.0 61.3, 313.0 63.0 Q 313.0 64.8, 312.1 65.7 Q 311.3 66.7, 309.7 66.7 Q 308.1 66.7, 307.3 65.7 Q 306.4 64.8, 306.4 63.0 M 309.7 65.9 Q 310.8 65.9, 311.4 65.2 Q 312.0 64.5, 312.0 63.0 Q 312.0 61.6, 311.4 60.9 Q 310.8 60.2, 309.7 60.2 Q 308.6 60.2, 308.0 60.9 Q 307.5 61.6, 307.5 63.0 Q 307.5 64.5, 308.0 65.2 Q 308.6 65.9, 309.7 65.9 " fill="#FF0000"/>
<path class="atom-34" d="M 316.1 105.6 Q 316.1 103.8, 317.0 102.9 Q 317.8 101.9, 319.4 101.9 Q 321.0 101.9, 321.8 102.9 Q 322.7 103.8, 322.7 105.6 Q 322.7 107.3, 321.8 108.3 Q 320.9 109.3, 319.4 109.3 Q 317.8 109.3, 317.0 108.3 Q 316.1 107.3, 316.1 105.6 M 319.4 108.5 Q 320.5 108.5, 321.1 107.7 Q 321.7 107.0, 321.7 105.6 Q 321.7 104.2, 321.1 103.5 Q 320.5 102.7, 319.4 102.7 Q 318.3 102.7, 317.7 103.4 Q 317.1 104.2, 317.1 105.6 Q 317.1 107.0, 317.7 107.7 Q 318.3 108.5, 319.4 108.5 " fill="#FF0000"/>
<path class="atom-34" d="M 323.8 102.0 L 324.7 102.0 L 324.7 105.0 L 328.4 105.0 L 328.4 102.0 L 329.4 102.0 L 329.4 109.1 L 328.4 109.1 L 328.4 105.9 L 324.7 105.9 L 324.7 109.1 L 323.8 109.1 L 323.8 102.0 " fill="#FF0000"/>
<path class="atom-36" d="M 255.3 80.6 Q 255.3 78.9, 256.2 78.0 Q 257.0 77.0, 258.6 77.0 Q 260.2 77.0, 261.0 78.0 Q 261.9 78.9, 261.9 80.6 Q 261.9 82.4, 261.0 83.4 Q 260.2 84.3, 258.6 84.3 Q 257.0 84.3, 256.2 83.4 Q 255.3 82.4, 255.3 80.6 M 258.6 83.5 Q 259.7 83.5, 260.3 82.8 Q 260.9 82.1, 260.9 80.6 Q 260.9 79.2, 260.3 78.5 Q 259.7 77.8, 258.6 77.8 Q 257.5 77.8, 256.9 78.5 Q 256.3 79.2, 256.3 80.6 Q 256.3 82.1, 256.9 82.8 Q 257.5 83.5, 258.6 83.5 " fill="#FF0000"/>
<path class="atom-37" d="M 225.7 48.6 Q 225.7 46.9, 226.5 46.0 Q 227.4 45.0, 229.0 45.0 Q 230.5 45.0, 231.4 46.0 Q 232.2 46.9, 232.2 48.6 Q 232.2 50.4, 231.4 51.3 Q 230.5 52.3, 229.0 52.3 Q 227.4 52.3, 226.5 51.3 Q 225.7 50.4, 225.7 48.6 M 229.0 51.5 Q 230.1 51.5, 230.6 50.8 Q 231.2 50.1, 231.2 48.6 Q 231.2 47.2, 230.6 46.5 Q 230.1 45.8, 229.0 45.8 Q 227.9 45.8, 227.3 46.5 Q 226.7 47.2, 226.7 48.6 Q 226.7 50.1, 227.3 50.8 Q 227.9 51.5, 229.0 51.5 " fill="#FF0000"/>
<path class="atom-37" d="M 233.3 45.1 L 234.3 45.1 L 234.3 48.1 L 238.0 48.1 L 238.0 45.1 L 238.9 45.1 L 238.9 52.2 L 238.0 52.2 L 238.0 48.9 L 234.3 48.9 L 234.3 52.2 L 233.3 52.2 L 233.3 45.1 " fill="#FF0000"/>
<path class="atom-39" d="M 179.9 142.5 Q 179.9 140.8, 180.8 139.8 Q 181.6 138.9, 183.2 138.9 Q 184.8 138.9, 185.6 139.8 Q 186.5 140.8, 186.5 142.5 Q 186.5 144.2, 185.6 145.2 Q 184.8 146.2, 183.2 146.2 Q 181.6 146.2, 180.8 145.2 Q 179.9 144.2, 179.9 142.5 M 183.2 145.4 Q 184.3 145.4, 184.9 144.7 Q 185.5 143.9, 185.5 142.5 Q 185.5 141.1, 184.9 140.4 Q 184.3 139.7, 183.2 139.7 Q 182.1 139.7, 181.5 140.4 Q 180.9 141.1, 180.9 142.5 Q 180.9 143.9, 181.5 144.7 Q 182.1 145.4, 183.2 145.4 " fill="#FF0000"/>
<path class="atom-40" d="M 203.9 118.8 Q 203.9 117.1, 204.7 116.1 Q 205.6 115.2, 207.2 115.2 Q 208.7 115.2, 209.6 116.1 Q 210.4 117.1, 210.4 118.8 Q 210.4 120.5, 209.6 121.5 Q 208.7 122.5, 207.2 122.5 Q 205.6 122.5, 204.7 121.5 Q 203.9 120.5, 203.9 118.8 M 207.2 121.7 Q 208.2 121.7, 208.8 121.0 Q 209.4 120.2, 209.4 118.8 Q 209.4 117.4, 208.8 116.7 Q 208.2 116.0, 207.2 116.0 Q 206.1 116.0, 205.5 116.7 Q 204.9 117.4, 204.9 118.8 Q 204.9 120.2, 205.5 121.0 Q 206.1 121.7, 207.2 121.7 " fill="#FF0000"/>
<path class="atom-40" d="M 211.5 115.2 L 212.5 115.2 L 212.5 118.3 L 216.2 118.3 L 216.2 115.2 L 217.1 115.2 L 217.1 122.4 L 216.2 122.4 L 216.2 119.1 L 212.5 119.1 L 212.5 122.4 L 211.5 122.4 L 211.5 115.2 " fill="#FF0000"/>
</g>
    <g transform="translate(691.0, 0) scale(1 1) "><line x1="15" y1="100" x2="25" y2="100" style="stroke:rgb(0,0,0);stroke-width:2"/>
  <line x1="20" y1="95" x2="20" y2="105" style="stroke:rgb(0,0,0);stroke-width:2"/>
</g>
    <g transform="translate(731.0, 0) scale(1 1) "><!-- END OF HEADER -->
<rect style="opacity:1.0;fill:#FFFFFF;stroke:none" width="215.0" height="200.0" x="0.0" y="0.0"> </rect>
<path class="bond-0 atom-0 atom-1" d="M 183.7,56.0 L 158.3,99.9" style="fill:none;fill-rule:evenodd;stroke:#000000;stroke-width:2.0px;stroke-linecap:butt;stroke-linejoin:miter;stroke-opacity:1"/>
<path class="bond-1 atom-1 atom-2" d="M 158.3,99.9 L 168.4,117.4" style="fill:none;fill-rule:evenodd;stroke:#000000;stroke-width:2.0px;stroke-linecap:butt;stroke-linejoin:miter;stroke-opacity:1"/>
<path class="bond-1 atom-1 atom-2" d="M 168.4,117.4 L 178.5,134.9" style="fill:none;fill-rule:evenodd;stroke:#FF0000;stroke-width:2.0px;stroke-linecap:butt;stroke-linejoin:miter;stroke-opacity:1"/>
<path class="bond-2 atom-1 atom-3" d="M 158.3,99.9 L 107.6,99.9" style="fill:none;fill-rule:evenodd;stroke:#000000;stroke-width:2.0px;stroke-linecap:butt;stroke-linejoin:miter;stroke-opacity:1"/>
<path class="bond-3 atom-3 atom-4" d="M 107.6,99.9 L 107.6,49.2" style="fill:none;fill-rule:evenodd;stroke:#000000;stroke-width:2.0px;stroke-linecap:butt;stroke-linejoin:miter;stroke-opacity:1"/>
<path class="bond-4 atom-3 atom-5" d="M 107.6,99.9 L 107.6,150.6" style="fill:none;fill-rule:evenodd;stroke:#000000;stroke-width:2.0px;stroke-linecap:butt;stroke-linejoin:miter;stroke-opacity:1"/>
<path class="bond-5 atom-3 atom-6" d="M 107.6,99.9 L 56.9,99.9" style="fill:none;fill-rule:evenodd;stroke:#000000;stroke-width:2.0px;stroke-linecap:butt;stroke-linejoin:miter;stroke-opacity:1"/>
<path class="bond-6 atom-6 atom-7" d="M 54.7,96.1 L 44.0,114.5" style="fill:none;fill-rule:evenodd;stroke:#000000;stroke-width:2.0px;stroke-linecap:butt;stroke-linejoin:miter;stroke-opacity:1"/>
<path class="bond-6 atom-6 atom-7" d="M 44.0,114.5 L 33.4,133.0" style="fill:none;fill-rule:evenodd;stroke:#FF0000;stroke-width:2.0px;stroke-linecap:butt;stroke-linejoin:miter;stroke-opacity:1"/>
<path class="bond-6 atom-6 atom-7" d="M 61.3,99.9 L 50.6,118.3" style="fill:none;fill-rule:evenodd;stroke:#000000;stroke-width:2.0px;stroke-linecap:butt;stroke-linejoin:miter;stroke-opacity:1"/>
<path class="bond-6 atom-6 atom-7" d="M 50.6,118.3 L 40.0,136.8" style="fill:none;fill-rule:evenodd;stroke:#FF0000;stroke-width:2.0px;stroke-linecap:butt;stroke-linejoin:miter;stroke-opacity:1"/>
<path class="bond-7 atom-6 atom-8" d="M 56.9,99.9 L 46.9,82.5" style="fill:none;fill-rule:evenodd;stroke:#000000;stroke-width:2.0px;stroke-linecap:butt;stroke-linejoin:miter;stroke-opacity:1"/>
<path class="bond-7 atom-6 atom-8" d="M 46.9,82.5 L 36.8,65.1" style="fill:none;fill-rule:evenodd;stroke:#FF0000;stroke-width:2.0px;stroke-linecap:butt;stroke-linejoin:miter;stroke-opacity:1"/>
<path d="M 59.4,99.9 L 56.9,99.9 L 56.4,99.0" style="fill:none;stroke:#000000;stroke-width:2.0px;stroke-linecap:butt;stroke-linejoin:miter;stroke-opacity:1;"/>
<path class="atom-2" d="M 177.1 143.9 Q 177.1 140.4, 178.8 138.5 Q 180.5 136.5, 183.7 136.5 Q 186.9 136.5, 188.6 138.5 Q 190.3 140.4, 190.3 143.9 Q 190.3 147.3, 188.6 149.3 Q 186.8 151.3, 183.7 151.3 Q 180.5 151.3, 178.8 149.3 Q 177.1 147.4, 177.1 143.9 M 183.7 149.7 Q 185.9 149.7, 187.0 148.2 Q 188.2 146.7, 188.2 143.9 Q 188.2 141.0, 187.0 139.6 Q 185.9 138.2, 183.7 138.2 Q 181.5 138.2, 180.3 139.6 Q 179.1 141.0, 179.1 143.9 Q 179.1 146.8, 180.3 148.2 Q 181.5 149.7, 183.7 149.7 " fill="#FF0000"/>
<path class="atom-2" d="M 192.5 136.7 L 194.5 136.7 L 194.5 142.8 L 201.8 142.8 L 201.8 136.7 L 203.7 136.7 L 203.7 151.1 L 201.8 151.1 L 201.8 144.4 L 194.5 144.4 L 194.5 151.1 L 192.5 151.1 L 192.5 136.7 " fill="#FF0000"/>
<path class="atom-7" d="M 24.9 143.9 Q 24.9 140.4, 26.6 138.5 Q 28.3 136.5, 31.5 136.5 Q 34.7 136.5, 36.4 138.5 Q 38.1 140.4, 38.1 143.9 Q 38.1 147.3, 36.4 149.3 Q 34.7 151.3, 31.5 151.3 Q 28.4 151.3, 26.6 149.3 Q 24.9 147.4, 24.9 143.9 M 31.5 149.7 Q 33.7 149.7, 34.9 148.2 Q 36.1 146.7, 36.1 143.9 Q 36.1 141.0, 34.9 139.6 Q 33.7 138.2, 31.5 138.2 Q 29.3 138.2, 28.1 139.6 Q 27.0 141.0, 27.0 143.9 Q 27.0 146.8, 28.1 148.2 Q 29.3 149.7, 31.5 149.7 " fill="#FF0000"/>
<path class="atom-8" d="M 10.7 48.9 L 12.7 48.9 L 12.7 55.0 L 20.0 55.0 L 20.0 48.9 L 22.0 48.9 L 22.0 63.2 L 20.0 63.2 L 20.0 56.6 L 12.7 56.6 L 12.7 63.2 L 10.7 63.2 L 10.7 48.9 " fill="#FF0000"/>
<path class="atom-8" d="M 24.9 56.0 Q 24.9 52.6, 26.6 50.6 Q 28.3 48.7, 31.5 48.7 Q 34.7 48.7, 36.4 50.6 Q 38.1 52.6, 38.1 56.0 Q 38.1 59.5, 36.4 61.5 Q 34.7 63.5, 31.5 63.5 Q 28.4 63.5, 26.6 61.5 Q 24.9 59.5, 24.9 56.0 M 31.5 61.8 Q 33.7 61.8, 34.9 60.4 Q 36.1 58.9, 36.1 56.0 Q 36.1 53.2, 34.9 51.8 Q 33.7 50.3, 31.5 50.3 Q 29.3 50.3, 28.1 51.7 Q 27.0 53.2, 27.0 56.0 Q 27.0 58.9, 28.1 60.4 Q 29.3 61.8, 31.5 61.8 " fill="#FF0000"/>
</g>
  </g>
</svg>
