<?xml version='1.0' encoding='ASCII' standalone='yes'?>
<svg xmlns="http://www.w3.org/2000/svg" xmlns:xlink="http://www.w3.org/1999/xlink" version="1.1" width="844.0px" viewBox="0 0 844.0 200.0" height="200.0px">
  <g>
    <g transform="translate(0, 0) scale(1 1) "><!-- END OF HEADER -->
<rect style="opacity:1.0;fill:#FFFFFF;stroke:none" width="260.0" height="200.0" x="0.0" y="0.0"> </rect>
<path class="bond-0 atom-0 atom-1" d="M 222.4,51.3 L 201.7,76.7" style="fill:none;fill-rule:evenodd;stroke:#000000;stroke-width:2.0px;stroke-linecap:butt;stroke-linejoin:miter;stroke-opacity:1"/>
<path class="bond-0 atom-0 atom-1" d="M 218.8,48.3 L 198.1,73.7" style="fill:none;fill-rule:evenodd;stroke:#000000;stroke-width:2.0px;stroke-linecap:butt;stroke-linejoin:miter;stroke-opacity:1"/>
<path class="bond-1 atom-1 atom-2" d="M 200.7,74.2 L 169.7,69.2" style="fill:none;fill-rule:evenodd;stroke:#000000;stroke-width:2.0px;stroke-linecap:butt;stroke-linejoin:miter;stroke-opacity:1"/>
<path class="bond-2 atom-2 atom-3" d="M 169.7,69.2 L 149.9,93.5" style="fill:none;fill-rule:evenodd;stroke:#000000;stroke-width:2.0px;stroke-linecap:butt;stroke-linejoin:miter;stroke-opacity:1"/>
<path class="bond-3 atom-3 atom-4" d="M 149.9,93.5 L 118.9,88.5" style="fill:none;fill-rule:evenodd;stroke:#000000;stroke-width:2.0px;stroke-linecap:butt;stroke-linejoin:miter;stroke-opacity:1"/>
<path class="bond-4 atom-4 atom-5" d="M 118.9,88.5 L 114.4,76.7" style="fill:none;fill-rule:evenodd;stroke:#000000;stroke-width:2.0px;stroke-linecap:butt;stroke-linejoin:miter;stroke-opacity:1"/>
<path class="bond-4 atom-4 atom-5" d="M 114.4,76.7 L 109.9,64.8" style="fill:none;fill-rule:evenodd;stroke:#FF0000;stroke-width:2.0px;stroke-linecap:butt;stroke-linejoin:miter;stroke-opacity:1"/>
<path class="bond-5 atom-4 atom-6" d="M 118.9,88.5 L 99.0,112.8" style="fill:none;fill-rule:evenodd;stroke:#000000;stroke-width:2.0px;stroke-linecap:butt;stroke-linejoin:miter;stroke-opacity:1"/>
<path class="bond-6 atom-6 atom-7" d="M 99.0,112.8 L 68.0,107.8" style="fill:none;fill-rule:evenodd;stroke:#000000;stroke-width:2.0px;stroke-linecap:butt;stroke-linejoin:miter;stroke-opacity:1"/>
<path class="bond-7 atom-7 atom-8" d="M 67.1,105.3 L 46.4,130.7" style="fill:none;fill-rule:evenodd;stroke:#000000;stroke-width:2.0px;stroke-linecap:butt;stroke-linejoin:miter;stroke-opacity:1"/>
<path class="bond-7 atom-7 atom-8" d="M 70.7,108.3 L 50.0,133.7" style="fill:none;fill-rule:evenodd;stroke:#000000;stroke-width:2.0px;stroke-linecap:butt;stroke-linejoin:miter;stroke-opacity:1"/>
<path class="bond-8 atom-7 atom-9" d="M 68.0,107.8 L 56.9,78.5" style="fill:none;fill-rule:evenodd;stroke:#000000;stroke-width:2.0px;stroke-linecap:butt;stroke-linejoin:miter;stroke-opacity:1"/>
<path class="bond-9 atom-9 atom-10" d="M 57.8,81.0 L 65.9,71.1" style="fill:none;fill-rule:evenodd;stroke:#000000;stroke-width:2.0px;stroke-linecap:butt;stroke-linejoin:miter;stroke-opacity:1"/>
<path class="bond-9 atom-9 atom-10" d="M 65.9,71.1 L 73.9,61.3" style="fill:none;fill-rule:evenodd;stroke:#FF0000;stroke-width:2.0px;stroke-linecap:butt;stroke-linejoin:miter;stroke-opacity:1"/>
<path class="bond-9 atom-9 atom-10" d="M 54.2,78.0 L 62.2,68.2" style="fill:none;fill-rule:evenodd;stroke:#000000;stroke-width:2.0px;stroke-linecap:butt;stroke-linejoin:miter;stroke-opacity:1"/>
<path class="bond-9 atom-9 atom-10" d="M 62.2,68.2 L 70.3,58.3" style="fill:none;fill-rule:evenodd;stroke:#FF0000;stroke-width:2.0px;stroke-linecap:butt;stroke-linejoin:miter;stroke-opacity:1"/>
<path class="bond-10 atom-9 atom-11" d="M 56.9,78.5 L 43.9,76.4" style="fill:none;fill-rule:evenodd;stroke:#000000;stroke-width:2.0px;stroke-linecap:butt;stroke-linejoin:miter;stroke-opacity:1"/>
<path class="bond-10 atom-9 atom-11" d="M 43.9,76.4 L 31.0,74.3" style="fill:none;fill-rule:evenodd;stroke:#FF0000;stroke-width:2.0px;stroke-linecap:butt;stroke-linejoin:miter;stroke-opacity:1"/>
<path class="bond-11 atom-1 atom-12" d="M 200.7,74.2 L 211.9,103.5" style="fill:none;fill-rule:evenodd;stroke:#000000;stroke-width:2.0px;stroke-linecap:butt;stroke-linejoin:miter;stroke-opacity:1"/>
<path class="bond-12 atom-12 atom-13" d="M 210.2,105.6 L 223.8,107.8" style="fill:none;fill-rule:evenodd;stroke:#000000;stroke-width:2.0px;stroke-linecap:butt;stroke-linejoin:miter;stroke-opacity:1"/>
<path class="bond-12 atom-12 atom-13" d="M 223.8,107.8 L 237.4,110.0" style="fill:none;fill-rule:evenodd;stroke:#FF0000;stroke-width:2.0px;stroke-linecap:butt;stroke-linejoin:miter;stroke-opacity:1"/>
<path class="bond-12 atom-12 atom-13" d="M 210.9,101.0 L 224.6,103.2" style="fill:none;fill-rule:evenodd;stroke:#000000;stroke-width:2.0px;stroke-linecap:butt;stroke-linejoin:miter;stroke-opacity:1"/>
<path class="bond-12 atom-12 atom-13" d="M 224.6,103.2 L 238.2,105.4" style="fill:none;fill-rule:evenodd;stroke:#FF0000;stroke-width:2.0px;stroke-linecap:butt;stroke-linejoin:miter;stroke-opacity:1"/>
<path class="bond-13 atom-12 atom-14" d="M 211.9,103.5 L 204.2,112.9" style="fill:none;fill-rule:evenodd;stroke:#000000;stroke-width:2.0px;stroke-linecap:butt;stroke-linejoin:miter;stroke-opacity:1"/>
<path class="bond-13 atom-12 atom-14" d="M 204.2,112.9 L 196.6,122.3" style="fill:none;fill-rule:evenodd;stroke:#FF0000;stroke-width:2.0px;stroke-linecap:butt;stroke-linejoin:miter;stroke-opacity:1"/>
<path d="M 199.2,73.9 L 200.7,74.2 L 201.3,75.6" style="fill:none;stroke:#000000;stroke-width:2.0px;stroke-linecap:butt;stroke-linejoin:miter;stroke-opacity:1;"/>
<path d="M 171.3,69.4 L 169.7,69.2 L 168.7,70.4" style="fill:none;stroke:#000000;stroke-width:2.0px;stroke-linecap:butt;stroke-linejoin:miter;stroke-opacity:1;"/>
<path d="M 150.9,92.3 L 149.9,93.5 L 148.3,93.3" style="fill:none;stroke:#000000;stroke-width:2.0px;stroke-linecap:butt;stroke-linejoin:miter;stroke-opacity:1;"/>
<path d="M 100.0,111.6 L 99.0,112.8 L 97.5,112.6" style="fill:none;stroke:#000000;stroke-width:2.0px;stroke-linecap:butt;stroke-linejoin:miter;stroke-opacity:1;"/>
<path d="M 69.6,108.1 L 68.0,107.8 L 67.5,106.4" style="fill:none;stroke:#000000;stroke-width:2.0px;stroke-linecap:butt;stroke-linejoin:miter;stroke-opacity:1;"/>
<path d="M 57.4,79.9 L 56.9,78.5 L 56.2,78.4" style="fill:none;stroke:#000000;stroke-width:2.0px;stroke-linecap:butt;stroke-linejoin:miter;stroke-opacity:1;"/>
<path d="M 211.4,102.1 L 211.9,103.5 L 211.5,104.0" style="fill:none;stroke:#000000;stroke-width:2.0px;stroke-linecap:butt;stroke-linejoin:miter;stroke-opacity:1;"/>
<path class="atom-5" d="M 94.9 54.7 L 96.1 54.7 L 96.1 58.5 L 100.6 58.5 L 100.6 54.7 L 101.8 54.7 L 101.8 63.6 L 100.6 63.6 L 100.6 59.5 L 96.1 59.5 L 96.1 63.6 L 94.9 63.6 L 94.9 54.7 " fill="#FF0000"/>
<path class="atom-5" d="M 103.6 59.2 Q 103.6 57.0, 104.7 55.8 Q 105.8 54.6, 107.7 54.6 Q 109.7 54.6, 110.8 55.8 Q 111.8 57.0, 111.8 59.2 Q 111.8 61.3, 110.7 62.6 Q 109.7 63.8, 107.7 63.8 Q 105.8 63.8, 104.7 62.6 Q 103.6 61.3, 103.6 59.2 M 107.7 62.8 Q 109.1 62.8, 109.8 61.9 Q 110.6 60.9, 110.6 59.2 Q 110.6 57.4, 109.8 56.5 Q 109.1 55.6, 107.7 55.6 Q 106.4 55.6, 105.6 56.5 Q 104.9 57.4, 104.9 59.2 Q 104.9 61.0, 105.6 61.9 Q 106.4 62.8, 107.7 62.8 " fill="#FF0000"/>
<path class="atom-10" d="M 72.6 54.1 Q 72.6 52.0, 73.7 50.8 Q 74.7 49.6, 76.7 49.6 Q 78.7 49.6, 79.7 50.8 Q 80.8 52.0, 80.8 54.1 Q 80.8 56.3, 79.7 57.5 Q 78.7 58.8, 76.7 58.8 Q 74.8 58.8, 73.7 57.5 Q 72.6 56.3, 72.6 54.1 M 76.7 57.8 Q 78.1 57.8, 78.8 56.8 Q 79.5 55.9, 79.5 54.1 Q 79.5 52.4, 78.8 51.5 Q 78.1 50.6, 76.7 50.6 Q 75.4 50.6, 74.6 51.5 Q 73.9 52.4, 73.9 54.1 Q 73.9 55.9, 74.6 56.8 Q 75.4 57.8, 76.7 57.8 " fill="#FF0000"/>
<path class="atom-11" d="M 13.0 69.1 L 14.2 69.1 L 14.2 72.8 L 18.8 72.8 L 18.8 69.1 L 20.0 69.1 L 20.0 78.0 L 18.8 78.0 L 18.8 73.8 L 14.2 73.8 L 14.2 78.0 L 13.0 78.0 L 13.0 69.1 " fill="#FF0000"/>
<path class="atom-11" d="M 21.8 73.5 Q 21.8 71.3, 22.8 70.2 Q 23.9 69.0, 25.9 69.0 Q 27.8 69.0, 28.9 70.2 Q 30.0 71.3, 30.0 73.5 Q 30.0 75.6, 28.9 76.9 Q 27.8 78.1, 25.9 78.1 Q 23.9 78.1, 22.8 76.9 Q 21.8 75.7, 21.8 73.5 M 25.9 77.1 Q 27.2 77.1, 28.0 76.2 Q 28.7 75.3, 28.7 73.5 Q 28.7 71.7, 28.0 70.9 Q 27.2 70.0, 25.9 70.0 Q 24.5 70.0, 23.8 70.8 Q 23.0 71.7, 23.0 73.5 Q 23.0 75.3, 23.8 76.2 Q 24.5 77.1, 25.9 77.1 " fill="#FF0000"/>
<path class="atom-13" d="M 238.8 108.6 Q 238.8 106.4, 239.9 105.2 Q 240.9 104.0, 242.9 104.0 Q 244.9 104.0, 245.9 105.2 Q 247.0 106.4, 247.0 108.6 Q 247.0 110.7, 245.9 112.0 Q 244.9 113.2, 242.9 113.2 Q 241.0 113.2, 239.9 112.0 Q 238.8 110.7, 238.8 108.6 M 242.9 112.2 Q 244.3 112.2, 245.0 111.3 Q 245.7 110.4, 245.7 108.6 Q 245.7 106.8, 245.0 105.9 Q 244.3 105.1, 242.9 105.1 Q 241.6 105.1, 240.8 105.9 Q 240.1 106.8, 240.1 108.6 Q 240.1 110.4, 240.8 111.3 Q 241.6 112.2, 242.9 112.2 " fill="#FF0000"/>
<path class="atom-14" d="M 179.2 123.5 L 180.4 123.5 L 180.4 127.3 L 185.0 127.3 L 185.0 123.5 L 186.2 123.5 L 186.2 132.4 L 185.0 132.4 L 185.0 128.3 L 180.4 128.3 L 180.4 132.4 L 179.2 132.4 L 179.2 123.5 " fill="#FF0000"/>
<path class="atom-14" d="M 188.0 127.9 Q 188.0 125.8, 189.0 124.6 Q 190.1 123.4, 192.1 123.4 Q 194.0 123.4, 195.1 124.6 Q 196.1 125.8, 196.1 127.9 Q 196.1 130.1, 195.1 131.3 Q 194.0 132.5, 192.1 132.5 Q 190.1 132.5, 189.0 131.3 Q 188.0 130.1, 188.0 127.9 M 192.1 131.5 Q 193.4 131.5, 194.2 130.6 Q 194.9 129.7, 194.9 127.9 Q 194.9 126.2, 194.2 125.3 Q 193.4 124.4, 192.1 124.4 Q 190.7 124.4, 190.0 125.3 Q 189.2 126.1, 189.2 127.9 Q 189.2 129.7, 190.0 130.6 Q 190.7 131.5, 192.1 131.5 " fill="#FF0000"/>
<path class="legend" d="M 121.5 181.9 Q 121.5 179.6, 122.2 177.7 Q 122.8 175.8, 124.1 173.8 L 125.0 174.4 Q 124.0 176.3, 123.4 178.0 Q 122.9 179.7, 122.9 181.9 Q 122.9 184.0, 123.4 185.8 Q 124.0 187.5, 125.0 189.4 L 124.1 190.0 Q 122.8 188.0, 122.2 186.1 Q 121.5 184.2, 121.5 181.9 " fill="#000000"/>
<path class="legend" d="M 125.9 177.3 Q 126.4 176.2, 127.3 175.6 Q 128.3 175.0, 129.7 175.0 Q 131.4 175.0, 132.4 175.9 Q 133.3 176.8, 133.3 178.5 Q 133.3 180.2, 132.1 181.7 Q 130.9 183.3, 128.3 185.2 L 133.5 185.2 L 133.5 186.4 L 125.9 186.4 L 125.9 185.4 Q 128.0 183.9, 129.3 182.8 Q 130.5 181.6, 131.1 180.6 Q 131.7 179.6, 131.7 178.6 Q 131.7 177.5, 131.2 176.9 Q 130.7 176.3, 129.7 176.3 Q 128.8 176.3, 128.2 176.6 Q 127.6 177.0, 127.2 177.8 L 125.9 177.3 " fill="#000000"/>
<path class="legend" d="M 138.5 181.9 Q 138.5 184.2, 137.8 186.1 Q 137.2 188.0, 135.9 190.0 L 135.0 189.4 Q 136.0 187.5, 136.5 185.8 Q 137.1 184.0, 137.1 181.9 Q 137.1 179.7, 136.5 178.0 Q 136.0 176.3, 135.0 174.4 L 135.9 173.8 Q 137.2 175.8, 137.8 177.7 Q 138.5 179.6, 138.5 181.9 " fill="#000000"/>
</g>
    <g transform="translate(260.0, 0) scale(1 1) "><line x1="5" y1="100" x2="35" y2="100" style="stroke:rgb(0,0,0);stroke-width:2"/>
  <line x1="34" y1="100" x2="29" y2="95" style="stroke:rgb(0,0,0);stroke-width:2"/>
  <line x1="34" y1="100" x2="29" y2="105" style="stroke:rgb(0,0,0);stroke-width:2"/>
</g>
    <g transform="translate(300.0, 0) scale(1 1) "><!-- END OF HEADER -->
<rect style="opacity:1.0;fill:#FFFFFF;stroke:none" width="215.0" height="200.0" x="0.0" y="0.0"> </rect>
<path class="bond-0 atom-0 atom-1" d="M 181.8,55.4 L 153.7,83.1" style="fill:none;fill-rule:evenodd;stroke:#000000;stroke-width:2.0px;stroke-linecap:butt;stroke-linejoin:miter;stroke-opacity:1"/>
<path class="bond-0 atom-0 atom-1" d="M 177.9,51.4 L 149.8,79.1" style="fill:none;fill-rule:evenodd;stroke:#000000;stroke-width:2.0px;stroke-linecap:butt;stroke-linejoin:miter;stroke-opacity:1"/>
<path class="bond-1 atom-1 atom-2" d="M 152.9,79.9 L 116.5,69.9" style="fill:none;fill-rule:evenodd;stroke:#000000;stroke-width:2.0px;stroke-linecap:butt;stroke-linejoin:miter;stroke-opacity:1"/>
<path class="bond-2 atom-2 atom-3" d="M 116.5,69.9 L 89.6,96.4" style="fill:none;fill-rule:evenodd;stroke:#000000;stroke-width:2.0px;stroke-linecap:butt;stroke-linejoin:miter;stroke-opacity:1"/>
<path class="bond-3 atom-3 atom-4" d="M 89.6,96.4 L 53.2,86.3" style="fill:none;fill-rule:evenodd;stroke:#000000;stroke-width:2.0px;stroke-linecap:butt;stroke-linejoin:miter;stroke-opacity:1"/>
<path class="bond-4 atom-4 atom-5" d="M 53.2,86.3 L 42.8,96.5" style="fill:none;fill-rule:evenodd;stroke:#000000;stroke-width:2.0px;stroke-linecap:butt;stroke-linejoin:miter;stroke-opacity:1"/>
<path class="bond-4 atom-4 atom-5" d="M 42.8,96.5 L 32.4,106.8" style="fill:none;fill-rule:evenodd;stroke:#FF0000;stroke-width:2.0px;stroke-linecap:butt;stroke-linejoin:miter;stroke-opacity:1"/>
<path class="bond-5 atom-1 atom-6" d="M 152.9,79.9 L 162.4,116.5" style="fill:none;fill-rule:evenodd;stroke:#000000;stroke-width:2.0px;stroke-linecap:butt;stroke-linejoin:miter;stroke-opacity:1"/>
<path class="bond-6 atom-6 atom-7" d="M 160.1,118.8 L 176.0,123.2" style="fill:none;fill-rule:evenodd;stroke:#000000;stroke-width:2.0px;stroke-linecap:butt;stroke-linejoin:miter;stroke-opacity:1"/>
<path class="bond-6 atom-6 atom-7" d="M 176.0,123.2 L 191.9,127.6" style="fill:none;fill-rule:evenodd;stroke:#FF0000;stroke-width:2.0px;stroke-linecap:butt;stroke-linejoin:miter;stroke-opacity:1"/>
<path class="bond-6 atom-6 atom-7" d="M 161.6,113.3 L 177.5,117.7" style="fill:none;fill-rule:evenodd;stroke:#000000;stroke-width:2.0px;stroke-linecap:butt;stroke-linejoin:miter;stroke-opacity:1"/>
<path class="bond-6 atom-6 atom-7" d="M 177.5,117.7 L 193.4,122.1" style="fill:none;fill-rule:evenodd;stroke:#FF0000;stroke-width:2.0px;stroke-linecap:butt;stroke-linejoin:miter;stroke-opacity:1"/>
<path class="bond-7 atom-6 atom-8" d="M 162.4,116.5 L 152.0,126.7" style="fill:none;fill-rule:evenodd;stroke:#000000;stroke-width:2.0px;stroke-linecap:butt;stroke-linejoin:miter;stroke-opacity:1"/>
<path class="bond-7 atom-6 atom-8" d="M 152.0,126.7 L 141.7,137.0" style="fill:none;fill-rule:evenodd;stroke:#FF0000;stroke-width:2.0px;stroke-linecap:butt;stroke-linejoin:miter;stroke-opacity:1"/>
<path d="M 151.1,79.4 L 152.9,79.9 L 153.4,81.8" style="fill:none;stroke:#000000;stroke-width:2.0px;stroke-linecap:butt;stroke-linejoin:miter;stroke-opacity:1;"/>
<path d="M 118.3,70.4 L 116.5,69.9 L 115.2,71.2" style="fill:none;stroke:#000000;stroke-width:2.0px;stroke-linecap:butt;stroke-linejoin:miter;stroke-opacity:1;"/>
<path d="M 90.9,95.1 L 89.6,96.4 L 87.8,95.9" style="fill:none;stroke:#000000;stroke-width:2.0px;stroke-linecap:butt;stroke-linejoin:miter;stroke-opacity:1;"/>
<path d="M 55.0,86.8 L 53.2,86.3 L 52.6,86.8" style="fill:none;stroke:#000000;stroke-width:2.0px;stroke-linecap:butt;stroke-linejoin:miter;stroke-opacity:1;"/>
<path d="M 161.9,114.7 L 162.4,116.5 L 161.9,117.0" style="fill:none;stroke:#000000;stroke-width:2.0px;stroke-linecap:butt;stroke-linejoin:miter;stroke-opacity:1;"/>
<path class="atom-5" d="M 10.7 107.5 L 12.2 107.5 L 12.2 112.1 L 17.7 112.1 L 17.7 107.5 L 19.1 107.5 L 19.1 118.2 L 17.7 118.2 L 17.7 113.3 L 12.2 113.3 L 12.2 118.2 L 10.7 118.2 L 10.7 107.5 " fill="#FF0000"/>
<path class="atom-5" d="M 21.3 112.9 Q 21.3 110.3, 22.6 108.8 Q 23.9 107.4, 26.2 107.4 Q 28.6 107.4, 29.9 108.8 Q 31.1 110.3, 31.1 112.9 Q 31.1 115.5, 29.9 116.9 Q 28.6 118.4, 26.2 118.4 Q 23.9 118.4, 22.6 116.9 Q 21.3 115.5, 21.3 112.9 M 26.2 117.2 Q 27.9 117.2, 28.7 116.1 Q 29.6 115.0, 29.6 112.9 Q 29.6 110.8, 28.7 109.7 Q 27.9 108.6, 26.2 108.6 Q 24.6 108.6, 23.7 109.7 Q 22.8 110.7, 22.8 112.9 Q 22.8 115.0, 23.7 116.1 Q 24.6 117.2, 26.2 117.2 " fill="#FF0000"/>
<path class="atom-7" d="M 193.9 126.6 Q 193.9 124.0, 195.2 122.6 Q 196.5 121.2, 198.8 121.2 Q 201.2 121.2, 202.5 122.6 Q 203.8 124.0, 203.8 126.6 Q 203.8 129.2, 202.5 130.7 Q 201.2 132.1, 198.8 132.1 Q 196.5 132.1, 195.2 130.7 Q 193.9 129.2, 193.9 126.6 M 198.8 130.9 Q 200.5 130.9, 201.3 129.9 Q 202.2 128.7, 202.2 126.6 Q 202.2 124.5, 201.3 123.4 Q 200.5 122.4, 198.8 122.4 Q 197.2 122.4, 196.3 123.4 Q 195.4 124.5, 195.4 126.6 Q 195.4 128.8, 196.3 129.9 Q 197.2 130.9, 198.8 130.9 " fill="#FF0000"/>
<path class="atom-8" d="M 120.0 137.7 L 121.5 137.7 L 121.5 142.3 L 126.9 142.3 L 126.9 137.7 L 128.4 137.7 L 128.4 148.4 L 126.9 148.4 L 126.9 143.5 L 121.5 143.5 L 121.5 148.4 L 120.0 148.4 L 120.0 137.7 " fill="#FF0000"/>
<path class="atom-8" d="M 130.6 143.0 Q 130.6 140.5, 131.8 139.0 Q 133.1 137.6, 135.5 137.6 Q 137.9 137.6, 139.1 139.0 Q 140.4 140.5, 140.4 143.0 Q 140.4 145.6, 139.1 147.1 Q 137.8 148.6, 135.5 148.6 Q 133.1 148.6, 131.8 147.1 Q 130.6 145.7, 130.6 143.0 M 135.5 147.4 Q 137.1 147.4, 138.0 146.3 Q 138.9 145.2, 138.9 143.0 Q 138.9 140.9, 138.0 139.9 Q 137.1 138.8, 135.5 138.8 Q 133.9 138.8, 133.0 139.9 Q 132.1 140.9, 132.1 143.0 Q 132.1 145.2, 133.0 146.3 Q 133.9 147.4, 135.5 147.4 " fill="#FF0000"/>
</g>
    <g transform="translate(515.0, 0) scale(1 1) "><line x1="15" y1="100" x2="25" y2="100" style="stroke:rgb(0,0,0);stroke-width:2"/>
  <line x1="20" y1="95" x2="20" y2="105" style="stroke:rgb(0,0,0);stroke-width:2"/>
</g>
    <g transform="translate(555.0, 0) scale(1 1) "><!-- END OF HEADER -->
<rect style="opacity:1.0;fill:#FFFFFF;stroke:none" width="289.0" height="200.0" x="0.0" y="0.0"> </rect>
<path class="bond-0 atom-0 atom-1" d="M 263.6,56.9 L 238.2,76.6" style="fill:none;fill-rule:evenodd;stroke:#000000;stroke-width:2.0px;stroke-linecap:butt;stroke-linejoin:miter;stroke-opacity:1"/>
<path class="bond-0 atom-0 atom-1" d="M 260.7,53.3 L 235.4,72.9" style="fill:none;fill-rule:evenodd;stroke:#000000;stroke-width:2.0px;stroke-linecap:butt;stroke-linejoin:miter;stroke-opacity:1"/>
<path class="bond-1 atom-1 atom-2" d="M 237.9,73.9 L 209.4,62.3" style="fill:none;fill-rule:evenodd;stroke:#000000;stroke-width:2.0px;stroke-linecap:butt;stroke-linejoin:miter;stroke-opacity:1"/>
<path class="bond-2 atom-2 atom-3" d="M 209.4,62.3 L 185.2,81.1" style="fill:none;fill-rule:evenodd;stroke:#000000;stroke-width:2.0px;stroke-linecap:butt;stroke-linejoin:miter;stroke-opacity:1"/>
<path class="bond-3 atom-3 atom-4" d="M 185.2,81.1 L 156.7,69.5" style="fill:none;fill-rule:evenodd;stroke:#000000;stroke-width:2.0px;stroke-linecap:butt;stroke-linejoin:miter;stroke-opacity:1"/>
<path class="bond-4 atom-4 atom-5" d="M 156.7,69.5 L 155.0,57.1" style="fill:none;fill-rule:evenodd;stroke:#000000;stroke-width:2.0px;stroke-linecap:butt;stroke-linejoin:miter;stroke-opacity:1"/>
<path class="bond-4 atom-4 atom-5" d="M 155.0,57.1 L 153.3,44.6" style="fill:none;fill-rule:evenodd;stroke:#FF0000;stroke-width:2.0px;stroke-linecap:butt;stroke-linejoin:miter;stroke-opacity:1"/>
<path class="bond-5 atom-4 atom-6" d="M 156.7,69.5 L 132.5,88.3" style="fill:none;fill-rule:evenodd;stroke:#000000;stroke-width:2.0px;stroke-linecap:butt;stroke-linejoin:miter;stroke-opacity:1"/>
<path class="bond-6 atom-6 atom-7" d="M 132.5,88.3 L 104.0,76.7" style="fill:none;fill-rule:evenodd;stroke:#000000;stroke-width:2.0px;stroke-linecap:butt;stroke-linejoin:miter;stroke-opacity:1"/>
<path class="bond-7 atom-7 atom-8" d="M 104.0,76.7 L 79.7,95.5" style="fill:none;fill-rule:evenodd;stroke:#000000;stroke-width:2.0px;stroke-linecap:butt;stroke-linejoin:miter;stroke-opacity:1"/>
<path class="bond-8 atom-8 atom-9" d="M 77.3,94.5 L 81.6,126.2" style="fill:none;fill-rule:evenodd;stroke:#000000;stroke-width:2.0px;stroke-linecap:butt;stroke-linejoin:miter;stroke-opacity:1"/>
<path class="bond-8 atom-8 atom-9" d="M 81.8,93.9 L 86.2,125.6" style="fill:none;fill-rule:evenodd;stroke:#000000;stroke-width:2.0px;stroke-linecap:butt;stroke-linejoin:miter;stroke-opacity:1"/>
<path class="bond-9 atom-8 atom-10" d="M 79.7,95.5 L 51.3,83.9" style="fill:none;fill-rule:evenodd;stroke:#000000;stroke-width:2.0px;stroke-linecap:butt;stroke-linejoin:miter;stroke-opacity:1"/>
<path class="bond-10 atom-10 atom-11" d="M 53.8,84.9 L 52.0,71.8" style="fill:none;fill-rule:evenodd;stroke:#000000;stroke-width:2.0px;stroke-linecap:butt;stroke-linejoin:miter;stroke-opacity:1"/>
<path class="bond-10 atom-10 atom-11" d="M 52.0,71.8 L 50.2,58.7" style="fill:none;fill-rule:evenodd;stroke:#FF0000;stroke-width:2.0px;stroke-linecap:butt;stroke-linejoin:miter;stroke-opacity:1"/>
<path class="bond-10 atom-10 atom-11" d="M 49.2,85.5 L 47.4,72.4" style="fill:none;fill-rule:evenodd;stroke:#000000;stroke-width:2.0px;stroke-linecap:butt;stroke-linejoin:miter;stroke-opacity:1"/>
<path class="bond-10 atom-10 atom-11" d="M 47.4,72.4 L 45.6,59.3" style="fill:none;fill-rule:evenodd;stroke:#FF0000;stroke-width:2.0px;stroke-linecap:butt;stroke-linejoin:miter;stroke-opacity:1"/>
<path class="bond-11 atom-10 atom-12" d="M 51.3,83.9 L 41.7,91.3" style="fill:none;fill-rule:evenodd;stroke:#000000;stroke-width:2.0px;stroke-linecap:butt;stroke-linejoin:miter;stroke-opacity:1"/>
<path class="bond-11 atom-10 atom-12" d="M 41.7,91.3 L 32.0,98.8" style="fill:none;fill-rule:evenodd;stroke:#FF0000;stroke-width:2.0px;stroke-linecap:butt;stroke-linejoin:miter;stroke-opacity:1"/>
<path class="bond-12 atom-6 atom-13" d="M 132.5,88.3 L 136.6,118.7" style="fill:none;fill-rule:evenodd;stroke:#000000;stroke-width:2.0px;stroke-linecap:butt;stroke-linejoin:miter;stroke-opacity:1"/>
<path class="bond-13 atom-13 atom-14" d="M 136.2,116.1 L 110.9,135.7" style="fill:none;fill-rule:evenodd;stroke:#000000;stroke-width:2.0px;stroke-linecap:butt;stroke-linejoin:miter;stroke-opacity:1"/>
<path class="bond-13 atom-13 atom-14" d="M 139.1,119.7 L 113.7,139.4" style="fill:none;fill-rule:evenodd;stroke:#000000;stroke-width:2.0px;stroke-linecap:butt;stroke-linejoin:miter;stroke-opacity:1"/>
<path class="bond-14 atom-13 atom-15" d="M 136.6,118.7 L 165.0,130.4" style="fill:none;fill-rule:evenodd;stroke:#000000;stroke-width:2.0px;stroke-linecap:butt;stroke-linejoin:miter;stroke-opacity:1"/>
<path class="bond-15 atom-15 atom-16" d="M 165.4,133.0 L 175.6,125.1" style="fill:none;fill-rule:evenodd;stroke:#000000;stroke-width:2.0px;stroke-linecap:butt;stroke-linejoin:miter;stroke-opacity:1"/>
<path class="bond-15 atom-15 atom-16" d="M 175.6,125.1 L 185.7,117.3" style="fill:none;fill-rule:evenodd;stroke:#FF0000;stroke-width:2.0px;stroke-linecap:butt;stroke-linejoin:miter;stroke-opacity:1"/>
<path class="bond-15 atom-15 atom-16" d="M 162.6,129.4 L 172.7,121.5" style="fill:none;fill-rule:evenodd;stroke:#000000;stroke-width:2.0px;stroke-linecap:butt;stroke-linejoin:miter;stroke-opacity:1"/>
<path class="bond-15 atom-15 atom-16" d="M 172.7,121.5 L 182.9,113.6" style="fill:none;fill-rule:evenodd;stroke:#FF0000;stroke-width:2.0px;stroke-linecap:butt;stroke-linejoin:miter;stroke-opacity:1"/>
<path class="bond-16 atom-15 atom-17" d="M 165.0,130.4 L 166.7,142.9" style="fill:none;fill-rule:evenodd;stroke:#000000;stroke-width:2.0px;stroke-linecap:butt;stroke-linejoin:miter;stroke-opacity:1"/>
<path class="bond-16 atom-15 atom-17" d="M 166.7,142.9 L 168.4,155.4" style="fill:none;fill-rule:evenodd;stroke:#FF0000;stroke-width:2.0px;stroke-linecap:butt;stroke-linejoin:miter;stroke-opacity:1"/>
<path class="bond-17 atom-1 atom-18" d="M 237.9,73.9 L 242.0,104.4" style="fill:none;fill-rule:evenodd;stroke:#000000;stroke-width:2.0px;stroke-linecap:butt;stroke-linejoin:miter;stroke-opacity:1"/>
<path class="bond-18 atom-18 atom-19" d="M 239.9,106.0 L 252.3,111.0" style="fill:none;fill-rule:evenodd;stroke:#000000;stroke-width:2.0px;stroke-linecap:butt;stroke-linejoin:miter;stroke-opacity:1"/>
<path class="bond-18 atom-18 atom-19" d="M 252.3,111.0 L 264.6,116.1" style="fill:none;fill-rule:evenodd;stroke:#FF0000;stroke-width:2.0px;stroke-linecap:butt;stroke-linejoin:miter;stroke-opacity:1"/>
<path class="bond-18 atom-18 atom-19" d="M 241.7,101.7 L 254.0,106.8" style="fill:none;fill-rule:evenodd;stroke:#000000;stroke-width:2.0px;stroke-linecap:butt;stroke-linejoin:miter;stroke-opacity:1"/>
<path class="bond-18 atom-18 atom-19" d="M 254.0,106.8 L 266.3,111.8" style="fill:none;fill-rule:evenodd;stroke:#FF0000;stroke-width:2.0px;stroke-linecap:butt;stroke-linejoin:miter;stroke-opacity:1"/>
<path class="bond-19 atom-18 atom-20" d="M 242.0,104.4 L 232.4,111.8" style="fill:none;fill-rule:evenodd;stroke:#000000;stroke-width:2.0px;stroke-linecap:butt;stroke-linejoin:miter;stroke-opacity:1"/>
<path class="bond-19 atom-18 atom-20" d="M 232.4,111.8 L 222.8,119.3" style="fill:none;fill-rule:evenodd;stroke:#FF0000;stroke-width:2.0px;stroke-linecap:butt;stroke-linejoin:miter;stroke-opacity:1"/>
<path d="M 236.5,73.4 L 237.9,73.9 L 238.1,75.5" style="fill:none;stroke:#000000;stroke-width:2.0px;stroke-linecap:butt;stroke-linejoin:miter;stroke-opacity:1;"/>
<path d="M 210.9,62.9 L 209.4,62.3 L 208.2,63.3" style="fill:none;stroke:#000000;stroke-width:2.0px;stroke-linecap:butt;stroke-linejoin:miter;stroke-opacity:1;"/>
<path d="M 186.4,80.2 L 185.2,81.1 L 183.7,80.5" style="fill:none;stroke:#000000;stroke-width:2.0px;stroke-linecap:butt;stroke-linejoin:miter;stroke-opacity:1;"/>
<path d="M 105.4,77.3 L 104.0,76.7 L 102.8,77.6" style="fill:none;stroke:#000000;stroke-width:2.0px;stroke-linecap:butt;stroke-linejoin:miter;stroke-opacity:1;"/>
<path d="M 81.0,94.6 L 79.7,95.5 L 78.3,94.9" style="fill:none;stroke:#000000;stroke-width:2.0px;stroke-linecap:butt;stroke-linejoin:miter;stroke-opacity:1;"/>
<path d="M 52.7,84.5 L 51.3,83.9 L 50.8,84.2" style="fill:none;stroke:#000000;stroke-width:2.0px;stroke-linecap:butt;stroke-linejoin:miter;stroke-opacity:1;"/>
<path d="M 136.4,117.2 L 136.6,118.7 L 138.0,119.3" style="fill:none;stroke:#000000;stroke-width:2.0px;stroke-linecap:butt;stroke-linejoin:miter;stroke-opacity:1;"/>
<path d="M 163.6,129.8 L 165.0,130.4 L 165.1,131.0" style="fill:none;stroke:#000000;stroke-width:2.0px;stroke-linecap:butt;stroke-linejoin:miter;stroke-opacity:1;"/>
<path d="M 241.8,102.8 L 242.0,104.4 L 241.5,104.7" style="fill:none;stroke:#000000;stroke-width:2.0px;stroke-linecap:butt;stroke-linejoin:miter;stroke-opacity:1;"/>
<path class="atom-5" d="M 148.6 39.1 Q 148.6 37.0, 149.6 35.8 Q 150.7 34.7, 152.6 34.7 Q 154.5 34.7, 155.5 35.8 Q 156.6 37.0, 156.6 39.1 Q 156.6 41.2, 155.5 42.4 Q 154.5 43.6, 152.6 43.6 Q 150.7 43.6, 149.6 42.4 Q 148.6 41.2, 148.6 39.1 M 152.6 42.6 Q 153.9 42.6, 154.6 41.7 Q 155.4 40.8, 155.4 39.1 Q 155.4 37.4, 154.6 36.5 Q 153.9 35.7, 152.6 35.7 Q 151.3 35.7, 150.5 36.5 Q 149.8 37.4, 149.8 39.1 Q 149.8 40.8, 150.5 41.7 Q 151.3 42.6, 152.6 42.6 " fill="#FF0000"/>
<path class="atom-5" d="M 157.9 34.8 L 159.1 34.8 L 159.1 38.5 L 163.6 38.5 L 163.6 34.8 L 164.7 34.8 L 164.7 43.5 L 163.6 43.5 L 163.6 39.4 L 159.1 39.4 L 159.1 43.5 L 157.9 43.5 L 157.9 34.8 " fill="#FF0000"/>
<path class="atom-11" d="M 43.2 53.5 Q 43.2 51.4, 44.2 50.2 Q 45.2 49.0, 47.2 49.0 Q 49.1 49.0, 50.1 50.2 Q 51.2 51.4, 51.2 53.5 Q 51.2 55.6, 50.1 56.8 Q 49.1 58.0, 47.2 58.0 Q 45.2 58.0, 44.2 56.8 Q 43.2 55.6, 43.2 53.5 M 47.2 57.0 Q 48.5 57.0, 49.2 56.1 Q 49.9 55.2, 49.9 53.5 Q 49.9 51.8, 49.2 50.9 Q 48.5 50.0, 47.2 50.0 Q 45.8 50.0, 45.1 50.9 Q 44.4 51.7, 44.4 53.5 Q 44.4 55.2, 45.1 56.1 Q 45.8 57.0, 47.2 57.0 " fill="#FF0000"/>
<path class="atom-12" d="M 14.4 98.4 L 15.6 98.4 L 15.6 102.1 L 20.1 102.1 L 20.1 98.4 L 21.3 98.4 L 21.3 107.1 L 20.1 107.1 L 20.1 103.1 L 15.6 103.1 L 15.6 107.1 L 14.4 107.1 L 14.4 98.4 " fill="#FF0000"/>
<path class="atom-12" d="M 23.0 102.7 Q 23.0 100.6, 24.1 99.5 Q 25.1 98.3, 27.0 98.3 Q 29.0 98.3, 30.0 99.5 Q 31.0 100.6, 31.0 102.7 Q 31.0 104.8, 30.0 106.0 Q 28.9 107.2, 27.0 107.2 Q 25.1 107.2, 24.1 106.0 Q 23.0 104.8, 23.0 102.7 M 27.0 106.2 Q 28.4 106.2, 29.1 105.3 Q 29.8 104.5, 29.8 102.7 Q 29.8 101.0, 29.1 100.1 Q 28.4 99.3, 27.0 99.3 Q 25.7 99.3, 25.0 100.1 Q 24.3 101.0, 24.3 102.7 Q 24.3 104.5, 25.0 105.3 Q 25.7 106.2, 27.0 106.2 " fill="#FF0000"/>
<path class="atom-16" d="M 185.3 111.6 Q 185.3 109.5, 186.4 108.3 Q 187.4 107.2, 189.3 107.2 Q 191.2 107.2, 192.3 108.3 Q 193.3 109.5, 193.3 111.6 Q 193.3 113.7, 192.3 114.9 Q 191.2 116.1, 189.3 116.1 Q 187.4 116.1, 186.4 114.9 Q 185.3 113.7, 185.3 111.6 M 189.3 115.1 Q 190.6 115.1, 191.4 114.2 Q 192.1 113.3, 192.1 111.6 Q 192.1 109.9, 191.4 109.0 Q 190.6 108.1, 189.3 108.1 Q 188.0 108.1, 187.3 109.0 Q 186.6 109.9, 186.6 111.6 Q 186.6 113.3, 187.3 114.2 Q 188.0 115.1, 189.3 115.1 " fill="#FF0000"/>
<path class="atom-17" d="M 165.2 160.8 Q 165.2 158.7, 166.2 157.6 Q 167.3 156.4, 169.2 156.4 Q 171.1 156.4, 172.1 157.6 Q 173.2 158.7, 173.2 160.8 Q 173.2 162.9, 172.1 164.1 Q 171.1 165.3, 169.2 165.3 Q 167.3 165.3, 166.2 164.1 Q 165.2 162.9, 165.2 160.8 M 169.2 164.3 Q 170.5 164.3, 171.2 163.5 Q 171.9 162.6, 171.9 160.8 Q 171.9 159.1, 171.2 158.3 Q 170.5 157.4, 169.2 157.4 Q 167.9 157.4, 167.1 158.2 Q 166.4 159.1, 166.4 160.8 Q 166.4 162.6, 167.1 163.5 Q 167.9 164.3, 169.2 164.3 " fill="#FF0000"/>
<path class="atom-17" d="M 174.5 156.5 L 175.7 156.5 L 175.7 160.2 L 180.2 160.2 L 180.2 156.5 L 181.3 156.5 L 181.3 165.2 L 180.2 165.2 L 180.2 161.2 L 175.7 161.2 L 175.7 165.2 L 174.5 165.2 L 174.5 156.5 " fill="#FF0000"/>
<path class="atom-19" d="M 266.5 116.0 Q 266.5 113.9, 267.5 112.8 Q 268.5 111.6, 270.5 111.6 Q 272.4 111.6, 273.4 112.8 Q 274.4 113.9, 274.4 116.0 Q 274.4 118.1, 273.4 119.3 Q 272.4 120.5, 270.5 120.5 Q 268.5 120.5, 267.5 119.3 Q 266.5 118.1, 266.5 116.0 M 270.5 119.5 Q 271.8 119.5, 272.5 118.7 Q 273.2 117.8, 273.2 116.0 Q 273.2 114.3, 272.5 113.4 Q 271.8 112.6, 270.5 112.6 Q 269.1 112.6, 268.4 113.4 Q 267.7 114.3, 267.7 116.0 Q 267.7 117.8, 268.4 118.7 Q 269.1 119.5, 270.5 119.5 " fill="#FF0000"/>
<path class="atom-20" d="M 205.2 118.9 L 206.3 118.9 L 206.3 122.6 L 210.8 122.6 L 210.8 118.9 L 212.0 118.9 L 212.0 127.6 L 210.8 127.6 L 210.8 123.6 L 206.3 123.6 L 206.3 127.6 L 205.2 127.6 L 205.2 118.9 " fill="#FF0000"/>
<path class="atom-20" d="M 213.8 123.2 Q 213.8 121.1, 214.8 119.9 Q 215.8 118.8, 217.7 118.8 Q 219.7 118.8, 220.7 119.9 Q 221.7 121.1, 221.7 123.2 Q 221.7 125.3, 220.7 126.5 Q 219.7 127.7, 217.7 127.7 Q 215.8 127.7, 214.8 126.5 Q 213.8 125.3, 213.8 123.2 M 217.7 126.7 Q 219.1 126.7, 219.8 125.8 Q 220.5 124.9, 220.5 123.2 Q 220.5 121.5, 219.8 120.6 Q 219.1 119.8, 217.7 119.8 Q 216.4 119.8, 215.7 120.6 Q 215.0 121.5, 215.0 123.2 Q 215.0 125.0, 215.7 125.8 Q 216.4 126.7, 217.7 126.7 " fill="#FF0000"/>
</g>
  </g>
</svg>
