<?xml version='1.0' encoding='ASCII' standalone='yes'?>
<svg xmlns="http://www.w3.org/2000/svg" xmlns:xlink="http://www.w3.org/1999/xlink" version="1.1" width="800.0px" viewBox="0 0 800.0 200.0" height="200.0px">
  <g>
    <g transform="translate(0, 0) scale(1 1) "><!-- END OF HEADER -->
<rect style="opacity:1.0;fill:#FFFFFF;stroke:none" width="240.0" height="200.0" x="0.0" y="0.0"> </rect>
<path class="bond-0 atom-0 atom-1" d="M 142.3,31.4 L 168.9,59.4" style="fill:none;fill-rule:evenodd;stroke:#000000;stroke-width:2.0px;stroke-linecap:butt;stroke-linejoin:miter;stroke-opacity:1"/>
<path class="bond-1 atom-1 atom-2" d="M 168.9,59.4 L 157.9,96.4" style="fill:none;fill-rule:evenodd;stroke:#000000;stroke-width:2.0px;stroke-linecap:butt;stroke-linejoin:miter;stroke-opacity:1"/>
<path class="bond-2 atom-2 atom-3" d="M 157.9,96.4 L 146.9,133.4" style="fill:none;fill-rule:evenodd;stroke:#000000;stroke-width:2.0px;stroke-linecap:butt;stroke-linejoin:miter;stroke-opacity:1"/>
<path class="bond-3 atom-2 atom-4" d="M 157.9,96.4 L 120.9,85.4" style="fill:none;fill-rule:evenodd;stroke:#000000;stroke-width:2.0px;stroke-linecap:butt;stroke-linejoin:miter;stroke-opacity:1"/>
<path class="bond-4 atom-4 atom-5" d="M 120.9,85.4 L 110.0,95.7" style="fill:none;fill-rule:evenodd;stroke:#000000;stroke-width:2.0px;stroke-linecap:butt;stroke-linejoin:miter;stroke-opacity:1"/>
<path class="bond-4 atom-4 atom-5" d="M 110.0,95.7 L 99.2,106.0" style="fill:none;fill-rule:evenodd;stroke:#FF0000;stroke-width:2.0px;stroke-linecap:butt;stroke-linejoin:miter;stroke-opacity:1"/>
<path class="bond-5 atom-5 atom-6" d="M 86.6,110.1 L 71.2,105.6" style="fill:none;fill-rule:evenodd;stroke:#FF0000;stroke-width:2.0px;stroke-linecap:butt;stroke-linejoin:miter;stroke-opacity:1"/>
<path class="bond-5 atom-5 atom-6" d="M 71.2,105.6 L 55.8,101.0" style="fill:none;fill-rule:evenodd;stroke:#000000;stroke-width:2.0px;stroke-linecap:butt;stroke-linejoin:miter;stroke-opacity:1"/>
<path class="bond-6 atom-6 atom-7" d="M 59.1,102.0 L 55.2,85.8" style="fill:none;fill-rule:evenodd;stroke:#000000;stroke-width:2.0px;stroke-linecap:butt;stroke-linejoin:miter;stroke-opacity:1"/>
<path class="bond-6 atom-6 atom-7" d="M 55.2,85.8 L 51.3,69.7" style="fill:none;fill-rule:evenodd;stroke:#FF0000;stroke-width:2.0px;stroke-linecap:butt;stroke-linejoin:miter;stroke-opacity:1"/>
<path class="bond-6 atom-6 atom-7" d="M 53.4,103.3 L 49.6,87.2" style="fill:none;fill-rule:evenodd;stroke:#000000;stroke-width:2.0px;stroke-linecap:butt;stroke-linejoin:miter;stroke-opacity:1"/>
<path class="bond-6 atom-6 atom-7" d="M 49.6,87.2 L 45.7,71.1" style="fill:none;fill-rule:evenodd;stroke:#FF0000;stroke-width:2.0px;stroke-linecap:butt;stroke-linejoin:miter;stroke-opacity:1"/>
<path class="bond-7 atom-6 atom-8" d="M 55.8,101.0 L 45.0,111.3" style="fill:none;fill-rule:evenodd;stroke:#000000;stroke-width:2.0px;stroke-linecap:butt;stroke-linejoin:miter;stroke-opacity:1"/>
<path class="bond-7 atom-6 atom-8" d="M 45.0,111.3 L 34.1,121.6" style="fill:none;fill-rule:evenodd;stroke:#FF0000;stroke-width:2.0px;stroke-linecap:butt;stroke-linejoin:miter;stroke-opacity:1"/>
<path class="bond-8 atom-2 atom-9" d="M 157.9,96.4 L 195.0,107.4" style="fill:none;fill-rule:evenodd;stroke:#000000;stroke-width:2.0px;stroke-linecap:butt;stroke-linejoin:miter;stroke-opacity:1"/>
<path class="bond-9 atom-9 atom-10" d="M 195.7,110.6 L 207.2,99.8" style="fill:none;fill-rule:evenodd;stroke:#000000;stroke-width:2.0px;stroke-linecap:butt;stroke-linejoin:miter;stroke-opacity:1"/>
<path class="bond-9 atom-9 atom-10" d="M 207.2,99.8 L 218.7,88.9" style="fill:none;fill-rule:evenodd;stroke:#FF0000;stroke-width:2.0px;stroke-linecap:butt;stroke-linejoin:miter;stroke-opacity:1"/>
<path class="bond-9 atom-9 atom-10" d="M 191.7,106.4 L 203.2,95.6" style="fill:none;fill-rule:evenodd;stroke:#000000;stroke-width:2.0px;stroke-linecap:butt;stroke-linejoin:miter;stroke-opacity:1"/>
<path class="bond-9 atom-9 atom-10" d="M 203.2,95.6 L 214.7,84.7" style="fill:none;fill-rule:evenodd;stroke:#FF0000;stroke-width:2.0px;stroke-linecap:butt;stroke-linejoin:miter;stroke-opacity:1"/>
<path class="bond-10 atom-9 atom-11" d="M 195.0,107.4 L 198.6,122.8" style="fill:none;fill-rule:evenodd;stroke:#000000;stroke-width:2.0px;stroke-linecap:butt;stroke-linejoin:miter;stroke-opacity:1"/>
<path class="bond-10 atom-9 atom-11" d="M 198.6,122.8 L 202.3,138.1" style="fill:none;fill-rule:evenodd;stroke:#FF0000;stroke-width:2.0px;stroke-linecap:butt;stroke-linejoin:miter;stroke-opacity:1"/>
<path d="M 167.6,58.0 L 168.9,59.4 L 168.4,61.2" style="fill:none;stroke:#000000;stroke-width:2.0px;stroke-linecap:butt;stroke-linejoin:miter;stroke-opacity:1;"/>
<path d="M 122.8,86.0 L 120.9,85.4 L 120.4,85.9" style="fill:none;stroke:#000000;stroke-width:2.0px;stroke-linecap:butt;stroke-linejoin:miter;stroke-opacity:1;"/>
<path d="M 56.6,101.2 L 55.8,101.0 L 55.3,101.5" style="fill:none;stroke:#000000;stroke-width:2.0px;stroke-linecap:butt;stroke-linejoin:miter;stroke-opacity:1;"/>
<path d="M 193.1,106.8 L 195.0,107.4 L 195.1,108.2" style="fill:none;stroke:#000000;stroke-width:2.0px;stroke-linecap:butt;stroke-linejoin:miter;stroke-opacity:1;"/>
<path class="atom-5" d="M 87.9 112.0 Q 87.9 109.4, 89.2 107.9 Q 90.4 106.5, 92.9 106.5 Q 95.3 106.5, 96.6 107.9 Q 97.9 109.4, 97.9 112.0 Q 97.9 114.7, 96.6 116.2 Q 95.3 117.7, 92.9 117.7 Q 90.5 117.7, 89.2 116.2 Q 87.9 114.7, 87.9 112.0 M 92.9 116.5 Q 94.5 116.5, 95.4 115.3 Q 96.4 114.2, 96.4 112.0 Q 96.4 109.9, 95.4 108.8 Q 94.5 107.7, 92.9 107.7 Q 91.2 107.7, 90.3 108.8 Q 89.4 109.9, 89.4 112.0 Q 89.4 114.2, 90.3 115.3 Q 91.2 116.5, 92.9 116.5 " fill="#FF0000"/>
<path class="atom-7" d="M 41.8 63.5 Q 41.8 60.8, 43.1 59.4 Q 44.4 57.9, 46.9 57.9 Q 49.3 57.9, 50.6 59.4 Q 51.9 60.8, 51.9 63.5 Q 51.9 66.1, 50.6 67.6 Q 49.2 69.1, 46.9 69.1 Q 44.4 69.1, 43.1 67.6 Q 41.8 66.1, 41.8 63.5 M 46.9 67.9 Q 48.5 67.9, 49.4 66.8 Q 50.3 65.7, 50.3 63.5 Q 50.3 61.3, 49.4 60.2 Q 48.5 59.1, 46.9 59.1 Q 45.2 59.1, 44.3 60.2 Q 43.4 61.3, 43.4 63.5 Q 43.4 65.7, 44.3 66.8 Q 45.2 67.9, 46.9 67.9 " fill="#FF0000"/>
<path class="atom-8" d="M 12.0 122.2 L 13.5 122.2 L 13.5 126.8 L 19.1 126.8 L 19.1 122.2 L 20.6 122.2 L 20.6 133.1 L 19.1 133.1 L 19.1 128.1 L 13.5 128.1 L 13.5 133.1 L 12.0 133.1 L 12.0 122.2 " fill="#FF0000"/>
<path class="atom-8" d="M 22.8 127.6 Q 22.8 125.0, 24.1 123.5 Q 25.4 122.0, 27.8 122.0 Q 30.2 122.0, 31.5 123.5 Q 32.8 125.0, 32.8 127.6 Q 32.8 130.3, 31.5 131.8 Q 30.2 133.3, 27.8 133.3 Q 25.4 133.3, 24.1 131.8 Q 22.8 130.3, 22.8 127.6 M 27.8 132.0 Q 29.5 132.0, 30.4 130.9 Q 31.3 129.8, 31.3 127.6 Q 31.3 125.5, 30.4 124.4 Q 29.5 123.3, 27.8 123.3 Q 26.2 123.3, 25.2 124.4 Q 24.3 125.4, 24.3 127.6 Q 24.3 129.8, 25.2 130.9 Q 26.2 132.0, 27.8 132.0 " fill="#FF0000"/>
<path class="atom-10" d="M 218.0 80.9 Q 218.0 78.2, 219.3 76.8 Q 220.6 75.3, 223.0 75.3 Q 225.4 75.3, 226.7 76.8 Q 228.0 78.2, 228.0 80.9 Q 228.0 83.5, 226.7 85.0 Q 225.4 86.5, 223.0 86.5 Q 220.6 86.5, 219.3 85.0 Q 218.0 83.5, 218.0 80.9 M 223.0 85.3 Q 224.6 85.3, 225.5 84.2 Q 226.5 83.0, 226.5 80.9 Q 226.5 78.7, 225.5 77.6 Q 224.6 76.5, 223.0 76.5 Q 221.3 76.5, 220.4 77.6 Q 219.5 78.7, 219.5 80.9 Q 219.5 83.1, 220.4 84.2 Q 221.3 85.3, 223.0 85.3 " fill="#FF0000"/>
<path class="atom-11" d="M 198.9 145.0 Q 198.9 142.4, 200.2 140.9 Q 201.5 139.4, 203.9 139.4 Q 206.4 139.4, 207.7 140.9 Q 209.0 142.4, 209.0 145.0 Q 209.0 147.6, 207.7 149.2 Q 206.3 150.6, 203.9 150.6 Q 201.5 150.6, 200.2 149.2 Q 198.9 147.7, 198.9 145.0 M 203.9 149.4 Q 205.6 149.4, 206.5 148.3 Q 207.4 147.2, 207.4 145.0 Q 207.4 142.8, 206.5 141.8 Q 205.6 140.7, 203.9 140.7 Q 202.3 140.7, 201.4 141.7 Q 200.5 142.8, 200.5 145.0 Q 200.5 147.2, 201.4 148.3 Q 202.3 149.4, 203.9 149.4 " fill="#FF0000"/>
<path class="atom-11" d="M 210.7 139.5 L 212.2 139.5 L 212.2 144.2 L 217.7 144.2 L 217.7 139.5 L 219.2 139.5 L 219.2 150.5 L 217.7 150.5 L 217.7 145.4 L 212.2 145.4 L 212.2 150.5 L 210.7 150.5 L 210.7 139.5 " fill="#FF0000"/>
<path class="legend" d="M 111.5 181.9 Q 111.5 179.6, 112.2 177.7 Q 112.8 175.8, 114.1 173.8 L 115.0 174.4 Q 114.0 176.3, 113.4 178.0 Q 112.9 179.7, 112.9 181.9 Q 112.9 184.0, 113.4 185.8 Q 114.0 187.5, 115.0 189.4 L 114.1 190.0 Q 112.8 188.0, 112.2 186.1 Q 111.5 184.2, 111.5 181.9 " fill="#000000"/>
<path class="legend" d="M 115.9 177.3 Q 116.4 176.2, 117.3 175.6 Q 118.3 175.0, 119.7 175.0 Q 121.4 175.0, 122.4 175.9 Q 123.3 176.8, 123.3 178.5 Q 123.3 180.2, 122.1 181.7 Q 120.9 183.3, 118.3 185.2 L 123.5 185.2 L 123.5 186.4 L 115.9 186.4 L 115.9 185.4 Q 118.0 183.9, 119.3 182.8 Q 120.5 181.6, 121.1 180.6 Q 121.7 179.6, 121.7 178.6 Q 121.7 177.5, 121.2 176.9 Q 120.7 176.3, 119.7 176.3 Q 118.8 176.3, 118.2 176.6 Q 117.6 177.0, 117.2 177.8 L 115.9 177.3 " fill="#000000"/>
<path class="legend" d="M 128.5 181.9 Q 128.5 184.2, 127.8 186.1 Q 127.2 188.0, 125.9 190.0 L 125.0 189.4 Q 126.0 187.5, 126.5 185.8 Q 127.1 184.0, 127.1 181.9 Q 127.1 179.7, 126.5 178.0 Q 126.0 176.3, 125.0 174.4 L 125.9 173.8 Q 127.2 175.8, 127.8 177.7 Q 128.5 179.6, 128.5 181.9 " fill="#000000"/>
</g>
    <g transform="translate(240.0, 0) scale(1 1) "><line x1="5" y1="100" x2="35" y2="100" style="stroke:rgb(0,0,0);stroke-width:2"/>
  <line x1="34" y1="100" x2="29" y2="95" style="stroke:rgb(0,0,0);stroke-width:2"/>
  <line x1="34" y1="100" x2="29" y2="105" style="stroke:rgb(0,0,0);stroke-width:2"/>
</g>
    <g transform="translate(280.0, 0) scale(1 1) "><!-- END OF HEADER -->
<rect style="opacity:1.0;fill:#FFFFFF;stroke:none" width="247.0" height="200.0" x="0.0" y="0.0"> </rect>
<path class="bond-0 atom-0 atom-1" d="M 33.9,43.3 L 72.7,51.9" style="fill:none;fill-rule:evenodd;stroke:#000000;stroke-width:2.0px;stroke-linecap:butt;stroke-linejoin:miter;stroke-opacity:1"/>
<path class="bond-1 atom-1 atom-2" d="M 72.7,51.9 L 84.6,89.7" style="fill:none;fill-rule:evenodd;stroke:#000000;stroke-width:2.0px;stroke-linecap:butt;stroke-linejoin:miter;stroke-opacity:1"/>
<path class="bond-2 atom-2 atom-3" d="M 84.6,89.7 L 96.5,127.5" style="fill:none;fill-rule:evenodd;stroke:#000000;stroke-width:2.0px;stroke-linecap:butt;stroke-linejoin:miter;stroke-opacity:1"/>
<path class="bond-3 atom-3 atom-4" d="M 96.5,127.5 L 69.6,156.7" style="fill:none;fill-rule:evenodd;stroke:#000000;stroke-width:2.0px;stroke-linecap:butt;stroke-linejoin:miter;stroke-opacity:1"/>
<path class="bond-4 atom-2 atom-5" d="M 84.6,89.7 L 122.4,77.8" style="fill:none;fill-rule:evenodd;stroke:#000000;stroke-width:2.0px;stroke-linecap:butt;stroke-linejoin:miter;stroke-opacity:1"/>
<path class="bond-5 atom-5 atom-6" d="M 122.4,77.8 L 133.8,88.2" style="fill:none;fill-rule:evenodd;stroke:#000000;stroke-width:2.0px;stroke-linecap:butt;stroke-linejoin:miter;stroke-opacity:1"/>
<path class="bond-5 atom-5 atom-6" d="M 133.8,88.2 L 145.1,98.7" style="fill:none;fill-rule:evenodd;stroke:#FF0000;stroke-width:2.0px;stroke-linecap:butt;stroke-linejoin:miter;stroke-opacity:1"/>
<path class="bond-6 atom-6 atom-7" d="M 158.1,102.6 L 173.8,97.6" style="fill:none;fill-rule:evenodd;stroke:#FF0000;stroke-width:2.0px;stroke-linecap:butt;stroke-linejoin:miter;stroke-opacity:1"/>
<path class="bond-6 atom-6 atom-7" d="M 173.8,97.6 L 189.4,92.7" style="fill:none;fill-rule:evenodd;stroke:#000000;stroke-width:2.0px;stroke-linecap:butt;stroke-linejoin:miter;stroke-opacity:1"/>
<path class="bond-7 atom-7 atom-8" d="M 192.0,95.0 L 195.7,78.4" style="fill:none;fill-rule:evenodd;stroke:#000000;stroke-width:2.0px;stroke-linecap:butt;stroke-linejoin:miter;stroke-opacity:1"/>
<path class="bond-7 atom-7 atom-8" d="M 195.7,78.4 L 199.4,61.8" style="fill:none;fill-rule:evenodd;stroke:#FF0000;stroke-width:2.0px;stroke-linecap:butt;stroke-linejoin:miter;stroke-opacity:1"/>
<path class="bond-7 atom-7 atom-8" d="M 186.2,93.7 L 189.9,77.1" style="fill:none;fill-rule:evenodd;stroke:#000000;stroke-width:2.0px;stroke-linecap:butt;stroke-linejoin:miter;stroke-opacity:1"/>
<path class="bond-7 atom-7 atom-8" d="M 189.9,77.1 L 193.6,60.5" style="fill:none;fill-rule:evenodd;stroke:#FF0000;stroke-width:2.0px;stroke-linecap:butt;stroke-linejoin:miter;stroke-opacity:1"/>
<path class="bond-8 atom-7 atom-9" d="M 189.4,92.7 L 200.8,103.2" style="fill:none;fill-rule:evenodd;stroke:#000000;stroke-width:2.0px;stroke-linecap:butt;stroke-linejoin:miter;stroke-opacity:1"/>
<path class="bond-8 atom-7 atom-9" d="M 200.8,103.2 L 212.2,113.6" style="fill:none;fill-rule:evenodd;stroke:#FF0000;stroke-width:2.0px;stroke-linecap:butt;stroke-linejoin:miter;stroke-opacity:1"/>
<path class="bond-9 atom-2 atom-10" d="M 84.6,89.7 L 46.7,101.6" style="fill:none;fill-rule:evenodd;stroke:#000000;stroke-width:2.0px;stroke-linecap:butt;stroke-linejoin:miter;stroke-opacity:1"/>
<path class="bond-10 atom-10 atom-11" d="M 50.0,100.6 L 38.0,89.5" style="fill:none;fill-rule:evenodd;stroke:#000000;stroke-width:2.0px;stroke-linecap:butt;stroke-linejoin:miter;stroke-opacity:1"/>
<path class="bond-10 atom-10 atom-11" d="M 38.0,89.5 L 26.0,78.5" style="fill:none;fill-rule:evenodd;stroke:#FF0000;stroke-width:2.0px;stroke-linecap:butt;stroke-linejoin:miter;stroke-opacity:1"/>
<path class="bond-10 atom-10 atom-11" d="M 46.0,104.9 L 34.0,93.9" style="fill:none;fill-rule:evenodd;stroke:#000000;stroke-width:2.0px;stroke-linecap:butt;stroke-linejoin:miter;stroke-opacity:1"/>
<path class="bond-10 atom-10 atom-11" d="M 34.0,93.9 L 22.0,82.9" style="fill:none;fill-rule:evenodd;stroke:#FF0000;stroke-width:2.0px;stroke-linecap:butt;stroke-linejoin:miter;stroke-opacity:1"/>
<path class="bond-11 atom-10 atom-12" d="M 46.7,101.6 L 43.2,117.5" style="fill:none;fill-rule:evenodd;stroke:#000000;stroke-width:2.0px;stroke-linecap:butt;stroke-linejoin:miter;stroke-opacity:1"/>
<path class="bond-11 atom-10 atom-12" d="M 43.2,117.5 L 39.7,133.3" style="fill:none;fill-rule:evenodd;stroke:#FF0000;stroke-width:2.0px;stroke-linecap:butt;stroke-linejoin:miter;stroke-opacity:1"/>
<path d="M 70.7,51.4 L 72.7,51.9 L 73.3,53.8" style="fill:none;stroke:#000000;stroke-width:2.0px;stroke-linecap:butt;stroke-linejoin:miter;stroke-opacity:1;"/>
<path d="M 95.9,125.6 L 96.5,127.5 L 95.1,129.0" style="fill:none;stroke:#000000;stroke-width:2.0px;stroke-linecap:butt;stroke-linejoin:miter;stroke-opacity:1;"/>
<path d="M 120.5,78.4 L 122.4,77.8 L 123.0,78.3" style="fill:none;stroke:#000000;stroke-width:2.0px;stroke-linecap:butt;stroke-linejoin:miter;stroke-opacity:1;"/>
<path d="M 188.7,93.0 L 189.4,92.7 L 190.0,93.2" style="fill:none;stroke:#000000;stroke-width:2.0px;stroke-linecap:butt;stroke-linejoin:miter;stroke-opacity:1;"/>
<path d="M 48.6,101.0 L 46.7,101.6 L 46.5,102.4" style="fill:none;stroke:#000000;stroke-width:2.0px;stroke-linecap:butt;stroke-linejoin:miter;stroke-opacity:1;"/>
<path class="atom-6" d="M 146.5 104.6 Q 146.5 101.9, 147.8 100.4 Q 149.1 98.9, 151.6 98.9 Q 154.1 98.9, 155.4 100.4 Q 156.8 101.9, 156.8 104.6 Q 156.8 107.4, 155.4 108.9 Q 154.1 110.5, 151.6 110.5 Q 149.1 110.5, 147.8 108.9 Q 146.5 107.4, 146.5 104.6 M 151.6 109.2 Q 153.3 109.2, 154.2 108.1 Q 155.2 106.9, 155.2 104.6 Q 155.2 102.4, 154.2 101.3 Q 153.3 100.2, 151.6 100.2 Q 149.9 100.2, 149.0 101.3 Q 148.0 102.4, 148.0 104.6 Q 148.0 106.9, 149.0 108.1 Q 149.9 109.2, 151.6 109.2 " fill="#FF0000"/>
<path class="atom-8" d="M 192.9 54.0 Q 192.9 51.3, 194.2 49.8 Q 195.6 48.3, 198.0 48.3 Q 200.5 48.3, 201.9 49.8 Q 203.2 51.3, 203.2 54.0 Q 203.2 56.8, 201.9 58.3 Q 200.5 59.9, 198.0 59.9 Q 195.6 59.9, 194.2 58.3 Q 192.9 56.8, 192.9 54.0 M 198.0 58.6 Q 199.8 58.6, 200.7 57.4 Q 201.6 56.3, 201.6 54.0 Q 201.6 51.8, 200.7 50.7 Q 199.8 49.6, 198.0 49.6 Q 196.3 49.6, 195.4 50.7 Q 194.5 51.8, 194.5 54.0 Q 194.5 56.3, 195.4 57.4 Q 196.3 58.6, 198.0 58.6 " fill="#FF0000"/>
<path class="atom-9" d="M 213.5 119.6 Q 213.5 116.9, 214.8 115.4 Q 216.2 113.8, 218.7 113.8 Q 221.1 113.8, 222.5 115.4 Q 223.8 116.9, 223.8 119.6 Q 223.8 122.3, 222.5 123.8 Q 221.1 125.4, 218.7 125.4 Q 216.2 125.4, 214.8 123.8 Q 213.5 122.3, 213.5 119.6 M 218.7 124.1 Q 220.4 124.1, 221.3 123.0 Q 222.2 121.8, 222.2 119.6 Q 222.2 117.3, 221.3 116.2 Q 220.4 115.1, 218.7 115.1 Q 216.9 115.1, 216.0 116.2 Q 215.1 117.3, 215.1 119.6 Q 215.1 121.8, 216.0 123.0 Q 216.9 124.1, 218.7 124.1 " fill="#FF0000"/>
<path class="atom-9" d="M 225.6 114.0 L 227.1 114.0 L 227.1 118.7 L 232.8 118.7 L 232.8 114.0 L 234.3 114.0 L 234.3 125.2 L 232.8 125.2 L 232.8 120.0 L 227.1 120.0 L 227.1 125.2 L 225.6 125.2 L 225.6 114.0 " fill="#FF0000"/>
<path class="atom-11" d="M 12.3 74.8 Q 12.3 72.1, 13.7 70.6 Q 15.0 69.1, 17.5 69.1 Q 20.0 69.1, 21.3 70.6 Q 22.7 72.1, 22.7 74.8 Q 22.7 77.5, 21.3 79.1 Q 20.0 80.6, 17.5 80.6 Q 15.0 80.6, 13.7 79.1 Q 12.3 77.6, 12.3 74.8 M 17.5 79.4 Q 19.2 79.4, 20.1 78.2 Q 21.1 77.1, 21.1 74.8 Q 21.1 72.6, 20.1 71.5 Q 19.2 70.4, 17.5 70.4 Q 15.8 70.4, 14.9 71.5 Q 13.9 72.6, 13.9 74.8 Q 13.9 77.1, 14.9 78.2 Q 15.8 79.4, 17.5 79.4 " fill="#FF0000"/>
<path class="atom-12" d="M 33.0 140.3 Q 33.0 137.6, 34.3 136.1 Q 35.6 134.6, 38.1 134.6 Q 40.6 134.6, 41.9 136.1 Q 43.3 137.6, 43.3 140.3 Q 43.3 143.1, 41.9 144.6 Q 40.6 146.2, 38.1 146.2 Q 35.6 146.2, 34.3 144.6 Q 33.0 143.1, 33.0 140.3 M 38.1 144.9 Q 39.8 144.9, 40.7 143.7 Q 41.7 142.6, 41.7 140.3 Q 41.7 138.1, 40.7 137.0 Q 39.8 135.9, 38.1 135.9 Q 36.4 135.9, 35.5 137.0 Q 34.5 138.1, 34.5 140.3 Q 34.5 142.6, 35.5 143.7 Q 36.4 144.9, 38.1 144.9 " fill="#FF0000"/>
<path class="atom-12" d="M 45.0 134.8 L 46.5 134.8 L 46.5 139.5 L 52.3 139.5 L 52.3 134.8 L 53.8 134.8 L 53.8 146.0 L 52.3 146.0 L 52.3 140.8 L 46.5 140.8 L 46.5 146.0 L 45.0 146.0 L 45.0 134.8 " fill="#FF0000"/>
</g>
    <g transform="translate(527.0, 0) scale(1 1) "><line x1="15" y1="100" x2="25" y2="100" style="stroke:rgb(0,0,0);stroke-width:2"/>
  <line x1="20" y1="95" x2="20" y2="105" style="stroke:rgb(0,0,0);stroke-width:2"/>
</g>
    <g transform="translate(567.0, 0) scale(1 1) "><!-- END OF HEADER -->
<rect style="opacity:1.0;fill:#FFFFFF;stroke:none" width="233.0" height="200.0" x="0.0" y="0.0"> </rect>
<path class="bond-0 atom-0 atom-1" d="M 162.8,56.0 L 152.9,92.2" style="fill:none;fill-rule:evenodd;stroke:#000000;stroke-width:2.0px;stroke-linecap:butt;stroke-linejoin:miter;stroke-opacity:1"/>
<path class="bond-1 atom-1 atom-2" d="M 152.9,92.2 L 142.9,128.4" style="fill:none;fill-rule:evenodd;stroke:#000000;stroke-width:2.0px;stroke-linecap:butt;stroke-linejoin:miter;stroke-opacity:1"/>
<path class="bond-2 atom-1 atom-3" d="M 152.9,92.2 L 116.7,82.2" style="fill:none;fill-rule:evenodd;stroke:#000000;stroke-width:2.0px;stroke-linecap:butt;stroke-linejoin:miter;stroke-opacity:1"/>
<path class="bond-3 atom-3 atom-4" d="M 116.7,82.2 L 106.4,92.4" style="fill:none;fill-rule:evenodd;stroke:#000000;stroke-width:2.0px;stroke-linecap:butt;stroke-linejoin:miter;stroke-opacity:1"/>
<path class="bond-3 atom-3 atom-4" d="M 106.4,92.4 L 96.1,102.5" style="fill:none;fill-rule:evenodd;stroke:#FF0000;stroke-width:2.0px;stroke-linecap:butt;stroke-linejoin:miter;stroke-opacity:1"/>
<path class="bond-4 atom-4 atom-5" d="M 83.8,106.9 L 68.8,102.7" style="fill:none;fill-rule:evenodd;stroke:#FF0000;stroke-width:2.0px;stroke-linecap:butt;stroke-linejoin:miter;stroke-opacity:1"/>
<path class="bond-4 atom-4 atom-5" d="M 68.8,102.7 L 53.8,98.6" style="fill:none;fill-rule:evenodd;stroke:#000000;stroke-width:2.0px;stroke-linecap:butt;stroke-linejoin:miter;stroke-opacity:1"/>
<path class="bond-5 atom-5 atom-6" d="M 56.9,99.4 L 52.8,83.9" style="fill:none;fill-rule:evenodd;stroke:#000000;stroke-width:2.0px;stroke-linecap:butt;stroke-linejoin:miter;stroke-opacity:1"/>
<path class="bond-5 atom-5 atom-6" d="M 52.8,83.9 L 48.8,68.3" style="fill:none;fill-rule:evenodd;stroke:#FF0000;stroke-width:2.0px;stroke-linecap:butt;stroke-linejoin:miter;stroke-opacity:1"/>
<path class="bond-5 atom-5 atom-6" d="M 51.4,100.9 L 47.4,85.3" style="fill:none;fill-rule:evenodd;stroke:#000000;stroke-width:2.0px;stroke-linecap:butt;stroke-linejoin:miter;stroke-opacity:1"/>
<path class="bond-5 atom-5 atom-6" d="M 47.4,85.3 L 43.3,69.7" style="fill:none;fill-rule:evenodd;stroke:#FF0000;stroke-width:2.0px;stroke-linecap:butt;stroke-linejoin:miter;stroke-opacity:1"/>
<path class="bond-6 atom-5 atom-7" d="M 53.8,98.6 L 43.5,108.7" style="fill:none;fill-rule:evenodd;stroke:#000000;stroke-width:2.0px;stroke-linecap:butt;stroke-linejoin:miter;stroke-opacity:1"/>
<path class="bond-6 atom-5 atom-7" d="M 43.5,108.7 L 33.1,118.9" style="fill:none;fill-rule:evenodd;stroke:#FF0000;stroke-width:2.0px;stroke-linecap:butt;stroke-linejoin:miter;stroke-opacity:1"/>
<path class="bond-7 atom-1 atom-8" d="M 152.9,92.2 L 189.0,102.1" style="fill:none;fill-rule:evenodd;stroke:#000000;stroke-width:2.0px;stroke-linecap:butt;stroke-linejoin:miter;stroke-opacity:1"/>
<path class="bond-8 atom-8 atom-9" d="M 189.9,105.3 L 200.7,94.6" style="fill:none;fill-rule:evenodd;stroke:#000000;stroke-width:2.0px;stroke-linecap:butt;stroke-linejoin:miter;stroke-opacity:1"/>
<path class="bond-8 atom-8 atom-9" d="M 200.7,94.6 L 211.6,83.8" style="fill:none;fill-rule:evenodd;stroke:#FF0000;stroke-width:2.0px;stroke-linecap:butt;stroke-linejoin:miter;stroke-opacity:1"/>
<path class="bond-8 atom-8 atom-9" d="M 185.9,101.3 L 196.8,90.6" style="fill:none;fill-rule:evenodd;stroke:#000000;stroke-width:2.0px;stroke-linecap:butt;stroke-linejoin:miter;stroke-opacity:1"/>
<path class="bond-8 atom-8 atom-9" d="M 196.8,90.6 L 207.7,79.8" style="fill:none;fill-rule:evenodd;stroke:#FF0000;stroke-width:2.0px;stroke-linecap:butt;stroke-linejoin:miter;stroke-opacity:1"/>
<path class="bond-9 atom-8 atom-10" d="M 189.0,102.1 L 192.9,117.0" style="fill:none;fill-rule:evenodd;stroke:#000000;stroke-width:2.0px;stroke-linecap:butt;stroke-linejoin:miter;stroke-opacity:1"/>
<path class="bond-9 atom-8 atom-10" d="M 192.9,117.0 L 196.8,131.9" style="fill:none;fill-rule:evenodd;stroke:#FF0000;stroke-width:2.0px;stroke-linecap:butt;stroke-linejoin:miter;stroke-opacity:1"/>
<path d="M 118.5,82.7 L 116.7,82.2 L 116.2,82.7" style="fill:none;stroke:#000000;stroke-width:2.0px;stroke-linecap:butt;stroke-linejoin:miter;stroke-opacity:1;"/>
<path d="M 54.5,98.8 L 53.8,98.6 L 53.2,99.1" style="fill:none;stroke:#000000;stroke-width:2.0px;stroke-linecap:butt;stroke-linejoin:miter;stroke-opacity:1;"/>
<path d="M 187.2,101.6 L 189.0,102.1 L 189.2,102.9" style="fill:none;stroke:#000000;stroke-width:2.0px;stroke-linecap:butt;stroke-linejoin:miter;stroke-opacity:1;"/>
<path class="atom-4" d="M 85.1 108.6 Q 85.1 106.0, 86.3 104.6 Q 87.6 103.2, 89.9 103.2 Q 92.3 103.2, 93.6 104.6 Q 94.8 106.0, 94.8 108.6 Q 94.8 111.2, 93.5 112.6 Q 92.3 114.1, 89.9 114.1 Q 87.6 114.1, 86.3 112.6 Q 85.1 111.2, 85.1 108.6 M 89.9 112.9 Q 91.6 112.9, 92.4 111.8 Q 93.3 110.7, 93.3 108.6 Q 93.3 106.5, 92.4 105.4 Q 91.6 104.4, 89.9 104.4 Q 88.3 104.4, 87.4 105.4 Q 86.6 106.5, 86.6 108.6 Q 86.6 110.7, 87.4 111.8 Q 88.3 112.9, 89.9 112.9 " fill="#FF0000"/>
<path class="atom-6" d="M 39.4 62.3 Q 39.4 59.7, 40.7 58.3 Q 41.9 56.9, 44.3 56.9 Q 46.7 56.9, 47.9 58.3 Q 49.2 59.7, 49.2 62.3 Q 49.2 64.9, 47.9 66.3 Q 46.6 67.8, 44.3 67.8 Q 42.0 67.8, 40.7 66.3 Q 39.4 64.9, 39.4 62.3 M 44.3 66.6 Q 45.9 66.6, 46.8 65.5 Q 47.7 64.4, 47.7 62.3 Q 47.7 60.2, 46.8 59.1 Q 45.9 58.1, 44.3 58.1 Q 42.7 58.1, 41.8 59.1 Q 40.9 60.2, 40.9 62.3 Q 40.9 64.4, 41.8 65.5 Q 42.7 66.6, 44.3 66.6 " fill="#FF0000"/>
<path class="atom-7" d="M 11.7 119.7 L 13.1 119.7 L 13.1 124.2 L 18.5 124.2 L 18.5 119.7 L 20.0 119.7 L 20.0 130.3 L 18.5 130.3 L 18.5 125.4 L 13.1 125.4 L 13.1 130.3 L 11.7 130.3 L 11.7 119.7 " fill="#FF0000"/>
<path class="atom-7" d="M 22.1 124.9 Q 22.1 122.4, 23.4 121.0 Q 24.7 119.5, 27.0 119.5 Q 29.4 119.5, 30.6 121.0 Q 31.9 122.4, 31.9 124.9 Q 31.9 127.5, 30.6 129.0 Q 29.4 130.5, 27.0 130.5 Q 24.7 130.5, 23.4 129.0 Q 22.1 127.5, 22.1 124.9 M 27.0 129.3 Q 28.6 129.3, 29.5 128.2 Q 30.4 127.1, 30.4 124.9 Q 30.4 122.9, 29.5 121.8 Q 28.6 120.7, 27.0 120.7 Q 25.4 120.7, 24.5 121.8 Q 23.6 122.8, 23.6 124.9 Q 23.6 127.1, 24.5 128.2 Q 25.4 129.3, 27.0 129.3 " fill="#FF0000"/>
<path class="atom-9" d="M 210.9 75.8 Q 210.9 73.3, 212.2 71.9 Q 213.4 70.4, 215.8 70.4 Q 218.1 70.4, 219.4 71.9 Q 220.7 73.3, 220.7 75.8 Q 220.7 78.4, 219.4 79.9 Q 218.1 81.3, 215.8 81.3 Q 213.4 81.3, 212.2 79.9 Q 210.9 78.4, 210.9 75.8 M 215.8 80.1 Q 217.4 80.1, 218.3 79.1 Q 219.1 78.0, 219.1 75.8 Q 219.1 73.7, 218.3 72.7 Q 217.4 71.6, 215.8 71.6 Q 214.1 71.6, 213.3 72.7 Q 212.4 73.7, 212.4 75.8 Q 212.4 78.0, 213.3 79.1 Q 214.1 80.1, 215.8 80.1 " fill="#FF0000"/>
<path class="atom-10" d="M 193.6 138.5 Q 193.6 135.9, 194.9 134.5 Q 196.1 133.1, 198.5 133.1 Q 200.8 133.1, 202.1 134.5 Q 203.4 135.9, 203.4 138.5 Q 203.4 141.1, 202.1 142.6 Q 200.8 144.0, 198.5 144.0 Q 196.2 144.0, 194.9 142.6 Q 193.6 141.1, 193.6 138.5 M 198.5 142.8 Q 200.1 142.8, 201.0 141.7 Q 201.9 140.6, 201.9 138.5 Q 201.9 136.4, 201.0 135.4 Q 200.1 134.3, 198.5 134.3 Q 196.9 134.3, 196.0 135.3 Q 195.1 136.4, 195.1 138.5 Q 195.1 140.6, 196.0 141.7 Q 196.9 142.8, 198.5 142.8 " fill="#FF0000"/>
<path class="atom-10" d="M 205.0 133.2 L 206.5 133.2 L 206.5 137.7 L 211.9 137.7 L 211.9 133.2 L 213.3 133.2 L 213.3 143.8 L 211.9 143.8 L 211.9 138.9 L 206.5 138.9 L 206.5 143.8 L 205.0 143.8 L 205.0 133.2 " fill="#FF0000"/>
</g>
  </g>
</svg>
