<?xml version='1.0' encoding='ASCII' standalone='yes'?>
<svg xmlns="http://www.w3.org/2000/svg" xmlns:xlink="http://www.w3.org/1999/xlink" version="1.1" width="966.0px" viewBox="0 0 966.0 200.0" height="200.0px">
  <g>
    <g transform="translate(0, 0) scale(1 1) "><!-- END OF HEADER -->
<rect style="opacity:1.0;fill:#FFFFFF;stroke:none" width="317.0" height="200.0" x="0.0" y="0.0"> </rect>
<path class="bond-0 atom-0 atom-1" d="M 196.1,10.0 L 192.4,38.2" style="fill:none;fill-rule:evenodd;stroke:#000000;stroke-width:2.0px;stroke-linecap:butt;stroke-linejoin:miter;stroke-opacity:1"/>
<path class="bond-1 atom-1 atom-2" d="M 192.4,38.2 L 166.2,49.1" style="fill:none;fill-rule:evenodd;stroke:#000000;stroke-width:2.0px;stroke-linecap:butt;stroke-linejoin:miter;stroke-opacity:1"/>
<path class="bond-2 atom-2 atom-3" d="M 166.2,49.1 L 155.3,22.9" style="fill:none;fill-rule:evenodd;stroke:#000000;stroke-width:2.0px;stroke-linecap:butt;stroke-linejoin:miter;stroke-opacity:1"/>
<path class="bond-3 atom-3 atom-4" d="M 155.3,22.9 L 143.5,21.3" style="fill:none;fill-rule:evenodd;stroke:#000000;stroke-width:2.0px;stroke-linecap:butt;stroke-linejoin:miter;stroke-opacity:1"/>
<path class="bond-3 atom-3 atom-4" d="M 143.5,21.3 L 131.7,19.8" style="fill:none;fill-rule:evenodd;stroke:#FF0000;stroke-width:2.0px;stroke-linecap:butt;stroke-linejoin:miter;stroke-opacity:1"/>
<path class="bond-4 atom-2 atom-5" d="M 166.2,49.1 L 140.0,60.0" style="fill:none;fill-rule:evenodd;stroke:#000000;stroke-width:2.0px;stroke-linecap:butt;stroke-linejoin:miter;stroke-opacity:1"/>
<path class="bond-5 atom-5 atom-6" d="M 140.0,60.0 L 117.4,42.7" style="fill:none;fill-rule:evenodd;stroke:#000000;stroke-width:2.0px;stroke-linecap:butt;stroke-linejoin:miter;stroke-opacity:1"/>
<path class="bond-6 atom-6 atom-7" d="M 117.4,42.7 L 91.2,53.7" style="fill:none;fill-rule:evenodd;stroke:#000000;stroke-width:2.0px;stroke-linecap:butt;stroke-linejoin:miter;stroke-opacity:1"/>
<path class="bond-7 atom-7 atom-8" d="M 91.2,53.7 L 64.9,64.6" style="fill:none;fill-rule:evenodd;stroke:#000000;stroke-width:2.0px;stroke-linecap:butt;stroke-linejoin:miter;stroke-opacity:1"/>
<path class="bond-8 atom-7 atom-9" d="M 91.2,53.7 L 80.2,27.4" style="fill:none;fill-rule:evenodd;stroke:#000000;stroke-width:2.0px;stroke-linecap:butt;stroke-linejoin:miter;stroke-opacity:1"/>
<path class="bond-9 atom-9 atom-10" d="M 80.2,27.4 L 68.5,25.9" style="fill:none;fill-rule:evenodd;stroke:#000000;stroke-width:2.0px;stroke-linecap:butt;stroke-linejoin:miter;stroke-opacity:1"/>
<path class="bond-9 atom-9 atom-10" d="M 68.5,25.9 L 56.7,24.4" style="fill:none;fill-rule:evenodd;stroke:#FF0000;stroke-width:2.0px;stroke-linecap:butt;stroke-linejoin:miter;stroke-opacity:1"/>
<path class="bond-10 atom-7 atom-11" d="M 91.2,53.7 L 102.1,79.9" style="fill:none;fill-rule:evenodd;stroke:#000000;stroke-width:2.0px;stroke-linecap:butt;stroke-linejoin:miter;stroke-opacity:1"/>
<path class="bond-11 atom-11 atom-12" d="M 102.1,79.9 L 84.8,102.5" style="fill:none;fill-rule:evenodd;stroke:#000000;stroke-width:2.0px;stroke-linecap:butt;stroke-linejoin:miter;stroke-opacity:1"/>
<path class="bond-12 atom-12 atom-13" d="M 84.8,102.5 L 95.7,128.7" style="fill:none;fill-rule:evenodd;stroke:#000000;stroke-width:2.0px;stroke-linecap:butt;stroke-linejoin:miter;stroke-opacity:1"/>
<path class="bond-13 atom-13 atom-14" d="M 95.7,128.7 L 106.6,154.9" style="fill:none;fill-rule:evenodd;stroke:#000000;stroke-width:2.0px;stroke-linecap:butt;stroke-linejoin:miter;stroke-opacity:1"/>
<path class="bond-14 atom-13 atom-15" d="M 95.7,128.7 L 122.0,117.8" style="fill:none;fill-rule:evenodd;stroke:#000000;stroke-width:2.0px;stroke-linecap:butt;stroke-linejoin:miter;stroke-opacity:1"/>
<path class="bond-15 atom-15 atom-16" d="M 122.0,117.8 L 130.9,124.7" style="fill:none;fill-rule:evenodd;stroke:#000000;stroke-width:2.0px;stroke-linecap:butt;stroke-linejoin:miter;stroke-opacity:1"/>
<path class="bond-15 atom-15 atom-16" d="M 130.9,124.7 L 139.9,131.5" style="fill:none;fill-rule:evenodd;stroke:#FF0000;stroke-width:2.0px;stroke-linecap:butt;stroke-linejoin:miter;stroke-opacity:1"/>
<path class="bond-16 atom-13 atom-17" d="M 95.7,128.7 L 69.5,139.6" style="fill:none;fill-rule:evenodd;stroke:#000000;stroke-width:2.0px;stroke-linecap:butt;stroke-linejoin:miter;stroke-opacity:1"/>
<path class="bond-17 atom-17 atom-18" d="M 71.8,138.7 L 62.3,131.4" style="fill:none;fill-rule:evenodd;stroke:#000000;stroke-width:2.0px;stroke-linecap:butt;stroke-linejoin:miter;stroke-opacity:1"/>
<path class="bond-17 atom-17 atom-18" d="M 62.3,131.4 L 52.9,124.2" style="fill:none;fill-rule:evenodd;stroke:#FF0000;stroke-width:2.0px;stroke-linecap:butt;stroke-linejoin:miter;stroke-opacity:1"/>
<path class="bond-17 atom-17 atom-18" d="M 69.2,142.1 L 59.7,134.8" style="fill:none;fill-rule:evenodd;stroke:#000000;stroke-width:2.0px;stroke-linecap:butt;stroke-linejoin:miter;stroke-opacity:1"/>
<path class="bond-17 atom-17 atom-18" d="M 59.7,134.8 L 50.3,127.6" style="fill:none;fill-rule:evenodd;stroke:#FF0000;stroke-width:2.0px;stroke-linecap:butt;stroke-linejoin:miter;stroke-opacity:1"/>
<path class="bond-18 atom-17 atom-19" d="M 69.5,139.6 L 68.0,151.2" style="fill:none;fill-rule:evenodd;stroke:#000000;stroke-width:2.0px;stroke-linecap:butt;stroke-linejoin:miter;stroke-opacity:1"/>
<path class="bond-18 atom-17 atom-19" d="M 68.0,151.2 L 66.5,162.8" style="fill:none;fill-rule:evenodd;stroke:#FF0000;stroke-width:2.0px;stroke-linecap:butt;stroke-linejoin:miter;stroke-opacity:1"/>
<path class="bond-19 atom-2 atom-20" d="M 166.2,49.1 L 177.1,75.3" style="fill:none;fill-rule:evenodd;stroke:#000000;stroke-width:2.0px;stroke-linecap:butt;stroke-linejoin:miter;stroke-opacity:1"/>
<path class="bond-20 atom-20 atom-21" d="M 177.1,75.3 L 205.3,79.0" style="fill:none;fill-rule:evenodd;stroke:#000000;stroke-width:2.0px;stroke-linecap:butt;stroke-linejoin:miter;stroke-opacity:1"/>
<path class="bond-21 atom-21 atom-22" d="M 205.3,79.0 L 216.2,105.2" style="fill:none;fill-rule:evenodd;stroke:#000000;stroke-width:2.0px;stroke-linecap:butt;stroke-linejoin:miter;stroke-opacity:1"/>
<path class="bond-22 atom-22 atom-23" d="M 216.2,105.2 L 227.1,131.5" style="fill:none;fill-rule:evenodd;stroke:#000000;stroke-width:2.0px;stroke-linecap:butt;stroke-linejoin:miter;stroke-opacity:1"/>
<path class="bond-23 atom-22 atom-24" d="M 216.2,105.2 L 242.5,94.3" style="fill:none;fill-rule:evenodd;stroke:#000000;stroke-width:2.0px;stroke-linecap:butt;stroke-linejoin:miter;stroke-opacity:1"/>
<path class="bond-24 atom-24 atom-25" d="M 242.5,94.3 L 251.4,101.2" style="fill:none;fill-rule:evenodd;stroke:#000000;stroke-width:2.0px;stroke-linecap:butt;stroke-linejoin:miter;stroke-opacity:1"/>
<path class="bond-24 atom-24 atom-25" d="M 251.4,101.2 L 260.4,108.0" style="fill:none;fill-rule:evenodd;stroke:#FF0000;stroke-width:2.0px;stroke-linecap:butt;stroke-linejoin:miter;stroke-opacity:1"/>
<path class="bond-25 atom-22 atom-26" d="M 216.2,105.2 L 190.0,116.1" style="fill:none;fill-rule:evenodd;stroke:#000000;stroke-width:2.0px;stroke-linecap:butt;stroke-linejoin:miter;stroke-opacity:1"/>
<path class="bond-26 atom-26 atom-27" d="M 192.3,115.2 L 182.8,108.0" style="fill:none;fill-rule:evenodd;stroke:#000000;stroke-width:2.0px;stroke-linecap:butt;stroke-linejoin:miter;stroke-opacity:1"/>
<path class="bond-26 atom-26 atom-27" d="M 182.8,108.0 L 173.3,100.7" style="fill:none;fill-rule:evenodd;stroke:#FF0000;stroke-width:2.0px;stroke-linecap:butt;stroke-linejoin:miter;stroke-opacity:1"/>
<path class="bond-26 atom-26 atom-27" d="M 189.7,118.6 L 180.2,111.4" style="fill:none;fill-rule:evenodd;stroke:#000000;stroke-width:2.0px;stroke-linecap:butt;stroke-linejoin:miter;stroke-opacity:1"/>
<path class="bond-26 atom-26 atom-27" d="M 180.2,111.4 L 170.7,104.1" style="fill:none;fill-rule:evenodd;stroke:#FF0000;stroke-width:2.0px;stroke-linecap:butt;stroke-linejoin:miter;stroke-opacity:1"/>
<path class="bond-27 atom-26 atom-28" d="M 190.0,116.1 L 188.5,127.7" style="fill:none;fill-rule:evenodd;stroke:#000000;stroke-width:2.0px;stroke-linecap:butt;stroke-linejoin:miter;stroke-opacity:1"/>
<path class="bond-27 atom-26 atom-28" d="M 188.5,127.7 L 187.0,139.3" style="fill:none;fill-rule:evenodd;stroke:#FF0000;stroke-width:2.0px;stroke-linecap:butt;stroke-linejoin:miter;stroke-opacity:1"/>
<path d="M 192.6,36.8 L 192.4,38.2 L 191.1,38.7" style="fill:none;stroke:#000000;stroke-width:2.0px;stroke-linecap:butt;stroke-linejoin:miter;stroke-opacity:1;"/>
<path d="M 155.8,24.2 L 155.3,22.9 L 154.7,22.8" style="fill:none;stroke:#000000;stroke-width:2.0px;stroke-linecap:butt;stroke-linejoin:miter;stroke-opacity:1;"/>
<path d="M 141.3,59.5 L 140.0,60.0 L 138.8,59.1" style="fill:none;stroke:#000000;stroke-width:2.0px;stroke-linecap:butt;stroke-linejoin:miter;stroke-opacity:1;"/>
<path d="M 118.5,43.6 L 117.4,42.7 L 116.1,43.3" style="fill:none;stroke:#000000;stroke-width:2.0px;stroke-linecap:butt;stroke-linejoin:miter;stroke-opacity:1;"/>
<path d="M 80.8,28.7 L 80.2,27.4 L 79.7,27.4" style="fill:none;stroke:#000000;stroke-width:2.0px;stroke-linecap:butt;stroke-linejoin:miter;stroke-opacity:1;"/>
<path d="M 101.5,78.6 L 102.1,79.9 L 101.2,81.0" style="fill:none;stroke:#000000;stroke-width:2.0px;stroke-linecap:butt;stroke-linejoin:miter;stroke-opacity:1;"/>
<path d="M 85.7,101.3 L 84.8,102.5 L 85.4,103.8" style="fill:none;stroke:#000000;stroke-width:2.0px;stroke-linecap:butt;stroke-linejoin:miter;stroke-opacity:1;"/>
<path d="M 120.7,118.3 L 122.0,117.8 L 122.4,118.1" style="fill:none;stroke:#000000;stroke-width:2.0px;stroke-linecap:butt;stroke-linejoin:miter;stroke-opacity:1;"/>
<path d="M 70.8,139.1 L 69.5,139.6 L 69.4,140.2" style="fill:none;stroke:#000000;stroke-width:2.0px;stroke-linecap:butt;stroke-linejoin:miter;stroke-opacity:1;"/>
<path d="M 176.6,74.0 L 177.1,75.3 L 178.5,75.5" style="fill:none;stroke:#000000;stroke-width:2.0px;stroke-linecap:butt;stroke-linejoin:miter;stroke-opacity:1;"/>
<path d="M 203.9,78.8 L 205.3,79.0 L 205.9,80.3" style="fill:none;stroke:#000000;stroke-width:2.0px;stroke-linecap:butt;stroke-linejoin:miter;stroke-opacity:1;"/>
<path d="M 241.1,94.9 L 242.5,94.3 L 242.9,94.7" style="fill:none;stroke:#000000;stroke-width:2.0px;stroke-linecap:butt;stroke-linejoin:miter;stroke-opacity:1;"/>
<path d="M 191.3,115.6 L 190.0,116.1 L 189.9,116.7" style="fill:none;stroke:#000000;stroke-width:2.0px;stroke-linecap:butt;stroke-linejoin:miter;stroke-opacity:1;"/>
<path class="atom-4" d="M 115.5 15.2 L 116.6 15.2 L 116.6 18.6 L 120.7 18.6 L 120.7 15.2 L 121.8 15.2 L 121.8 23.3 L 120.7 23.3 L 120.7 19.5 L 116.6 19.5 L 116.6 23.3 L 115.5 23.3 L 115.5 15.2 " fill="#FF0000"/>
<path class="atom-4" d="M 123.4 19.2 Q 123.4 17.3, 124.4 16.2 Q 125.3 15.1, 127.1 15.1 Q 128.9 15.1, 129.9 16.2 Q 130.8 17.3, 130.8 19.2 Q 130.8 21.2, 129.8 22.3 Q 128.9 23.4, 127.1 23.4 Q 125.3 23.4, 124.4 22.3 Q 123.4 21.2, 123.4 19.2 M 127.1 22.5 Q 128.3 22.5, 129.0 21.7 Q 129.7 20.8, 129.7 19.2 Q 129.7 17.6, 129.0 16.8 Q 128.3 16.0, 127.1 16.0 Q 125.9 16.0, 125.2 16.8 Q 124.6 17.6, 124.6 19.2 Q 124.6 20.8, 125.2 21.7 Q 125.9 22.5, 127.1 22.5 " fill="#FF0000"/>
<path class="atom-10" d="M 40.4 19.8 L 41.5 19.8 L 41.5 23.2 L 45.6 23.2 L 45.6 19.8 L 46.7 19.8 L 46.7 27.8 L 45.6 27.8 L 45.6 24.1 L 41.5 24.1 L 41.5 27.8 L 40.4 27.8 L 40.4 19.8 " fill="#FF0000"/>
<path class="atom-10" d="M 48.4 23.8 Q 48.4 21.9, 49.3 20.8 Q 50.3 19.7, 52.1 19.7 Q 53.9 19.7, 54.8 20.8 Q 55.8 21.9, 55.8 23.8 Q 55.8 25.7, 54.8 26.9 Q 53.8 28.0, 52.1 28.0 Q 50.3 28.0, 49.3 26.9 Q 48.4 25.8, 48.4 23.8 M 52.1 27.0 Q 53.3 27.0, 54.0 26.2 Q 54.6 25.4, 54.6 23.8 Q 54.6 22.2, 54.0 21.4 Q 53.3 20.6, 52.1 20.6 Q 50.8 20.6, 50.2 21.4 Q 49.5 22.2, 49.5 23.8 Q 49.5 25.4, 50.2 26.2 Q 50.8 27.0, 52.1 27.0 " fill="#FF0000"/>
<path class="atom-16" d="M 140.8 135.1 Q 140.8 133.1, 141.8 132.1 Q 142.8 131.0, 144.5 131.0 Q 146.3 131.0, 147.3 132.1 Q 148.2 133.1, 148.2 135.1 Q 148.2 137.0, 147.3 138.1 Q 146.3 139.3, 144.5 139.3 Q 142.8 139.3, 141.8 138.1 Q 140.8 137.0, 140.8 135.1 M 144.5 138.3 Q 145.8 138.3, 146.4 137.5 Q 147.1 136.7, 147.1 135.1 Q 147.1 133.5, 146.4 132.7 Q 145.8 131.9, 144.5 131.9 Q 143.3 131.9, 142.6 132.7 Q 142.0 133.5, 142.0 135.1 Q 142.0 136.7, 142.6 137.5 Q 143.3 138.3, 144.5 138.3 " fill="#FF0000"/>
<path class="atom-16" d="M 149.5 131.1 L 150.6 131.1 L 150.6 134.5 L 154.7 134.5 L 154.7 131.1 L 155.8 131.1 L 155.8 139.1 L 154.7 139.1 L 154.7 135.4 L 150.6 135.4 L 150.6 139.1 L 149.5 139.1 L 149.5 131.1 " fill="#FF0000"/>
<path class="atom-18" d="M 43.2 122.4 Q 43.2 120.5, 44.2 119.4 Q 45.1 118.3, 46.9 118.3 Q 48.7 118.3, 49.7 119.4 Q 50.6 120.5, 50.6 122.4 Q 50.6 124.3, 49.7 125.5 Q 48.7 126.6, 46.9 126.6 Q 45.2 126.6, 44.2 125.5 Q 43.2 124.4, 43.2 122.4 M 46.9 125.6 Q 48.2 125.6, 48.8 124.8 Q 49.5 124.0, 49.5 122.4 Q 49.5 120.8, 48.8 120.0 Q 48.2 119.2, 46.9 119.2 Q 45.7 119.2, 45.0 120.0 Q 44.4 120.8, 44.4 122.4 Q 44.4 124.0, 45.0 124.8 Q 45.7 125.6, 46.9 125.6 " fill="#FF0000"/>
<path class="atom-19" d="M 62.1 167.8 Q 62.1 165.9, 63.1 164.8 Q 64.0 163.7, 65.8 163.7 Q 67.6 163.7, 68.6 164.8 Q 69.5 165.9, 69.5 167.8 Q 69.5 169.8, 68.6 170.9 Q 67.6 172.0, 65.8 172.0 Q 64.1 172.0, 63.1 170.9 Q 62.1 169.8, 62.1 167.8 M 65.8 171.1 Q 67.1 171.1, 67.7 170.3 Q 68.4 169.4, 68.4 167.8 Q 68.4 166.2, 67.7 165.5 Q 67.1 164.6, 65.8 164.6 Q 64.6 164.6, 63.9 165.4 Q 63.3 166.2, 63.3 167.8 Q 63.3 169.5, 63.9 170.3 Q 64.6 171.1, 65.8 171.1 " fill="#FF0000"/>
<path class="atom-19" d="M 70.8 163.8 L 71.9 163.8 L 71.9 167.2 L 76.0 167.2 L 76.0 163.8 L 77.1 163.8 L 77.1 171.9 L 76.0 171.9 L 76.0 168.2 L 71.9 168.2 L 71.9 171.9 L 70.8 171.9 L 70.8 163.8 " fill="#FF0000"/>
<path class="atom-25" d="M 261.3 111.6 Q 261.3 109.7, 262.3 108.6 Q 263.2 107.5, 265.0 107.5 Q 266.8 107.5, 267.8 108.6 Q 268.7 109.7, 268.7 111.6 Q 268.7 113.6, 267.8 114.7 Q 266.8 115.8, 265.0 115.8 Q 263.3 115.8, 262.3 114.7 Q 261.3 113.6, 261.3 111.6 M 265.0 114.9 Q 266.3 114.9, 266.9 114.0 Q 267.6 113.2, 267.6 111.6 Q 267.6 110.0, 266.9 109.2 Q 266.3 108.4, 265.0 108.4 Q 263.8 108.4, 263.1 109.2 Q 262.5 110.0, 262.5 111.6 Q 262.5 113.2, 263.1 114.0 Q 263.8 114.9, 265.0 114.9 " fill="#FF0000"/>
<path class="atom-25" d="M 270.0 107.6 L 271.1 107.6 L 271.1 111.0 L 275.2 111.0 L 275.2 107.6 L 276.3 107.6 L 276.3 115.6 L 275.2 115.6 L 275.2 111.9 L 271.1 111.9 L 271.1 115.6 L 270.0 115.6 L 270.0 107.6 " fill="#FF0000"/>
<path class="atom-27" d="M 163.7 98.9 Q 163.7 97.0, 164.7 95.9 Q 165.6 94.8, 167.4 94.8 Q 169.2 94.8, 170.2 95.9 Q 171.1 97.0, 171.1 98.9 Q 171.1 100.9, 170.1 102.0 Q 169.2 103.1, 167.4 103.1 Q 165.6 103.1, 164.7 102.0 Q 163.7 100.9, 163.7 98.9 M 167.4 102.2 Q 168.6 102.2, 169.3 101.4 Q 170.0 100.5, 170.0 98.9 Q 170.0 97.3, 169.3 96.5 Q 168.6 95.7, 167.4 95.7 Q 166.2 95.7, 165.5 96.5 Q 164.9 97.3, 164.9 98.9 Q 164.9 100.5, 165.5 101.4 Q 166.2 102.2, 167.4 102.2 " fill="#FF0000"/>
<path class="atom-28" d="M 182.6 144.4 Q 182.6 142.4, 183.6 141.3 Q 184.5 140.3, 186.3 140.3 Q 188.1 140.3, 189.1 141.3 Q 190.0 142.4, 190.0 144.4 Q 190.0 146.3, 189.0 147.4 Q 188.1 148.5, 186.3 148.5 Q 184.5 148.5, 183.6 147.4 Q 182.6 146.3, 182.6 144.4 M 186.3 147.6 Q 187.5 147.6, 188.2 146.8 Q 188.9 146.0, 188.9 144.4 Q 188.9 142.8, 188.2 142.0 Q 187.5 141.2, 186.3 141.2 Q 185.1 141.2, 184.4 142.0 Q 183.8 142.8, 183.8 144.4 Q 183.8 146.0, 184.4 146.8 Q 185.1 147.6, 186.3 147.6 " fill="#FF0000"/>
<path class="atom-28" d="M 191.3 140.4 L 192.4 140.4 L 192.4 143.8 L 196.5 143.8 L 196.5 140.4 L 197.6 140.4 L 197.6 148.4 L 196.5 148.4 L 196.5 144.7 L 192.4 144.7 L 192.4 148.4 L 191.3 148.4 L 191.3 140.4 " fill="#FF0000"/>
<path class="legend" d="M 149.3 181.9 Q 149.3 179.6, 150.0 177.7 Q 150.7 175.8, 152.0 173.8 L 152.9 174.4 Q 151.8 176.3, 151.3 178.0 Q 150.8 179.7, 150.8 181.9 Q 150.8 184.0, 151.3 185.8 Q 151.8 187.5, 152.9 189.4 L 152.0 190.0 Q 150.7 188.0, 150.0 186.1 Q 149.3 184.2, 149.3 181.9 " fill="#000000"/>
<path class="legend" d="M 153.8 177.3 Q 154.2 176.2, 155.2 175.6 Q 156.2 175.0, 157.6 175.0 Q 159.3 175.0, 160.2 175.9 Q 161.2 176.8, 161.2 178.5 Q 161.2 180.2, 159.9 181.7 Q 158.7 183.3, 156.2 185.2 L 161.4 185.2 L 161.4 186.4 L 153.8 186.4 L 153.8 185.4 Q 155.9 183.9, 157.1 182.8 Q 158.4 181.6, 159.0 180.6 Q 159.6 179.6, 159.6 178.6 Q 159.6 177.5, 159.0 176.9 Q 158.5 176.3, 157.6 176.3 Q 156.6 176.3, 156.0 176.6 Q 155.4 177.0, 155.0 177.8 L 153.8 177.3 " fill="#000000"/>
<path class="legend" d="M 166.4 181.9 Q 166.4 184.2, 165.7 186.1 Q 165.0 188.0, 163.7 190.0 L 162.8 189.4 Q 163.9 187.5, 164.4 185.8 Q 164.9 184.0, 164.9 181.9 Q 164.9 179.7, 164.4 178.0 Q 163.9 176.3, 162.8 174.4 L 163.7 173.8 Q 165.0 175.8, 165.7 177.7 Q 166.4 179.6, 166.4 181.9 " fill="#000000"/>
</g>
    <g transform="translate(317.0, 0) scale(1 1) "><line x1="5" y1="100" x2="35" y2="100" style="stroke:rgb(0,0,0);stroke-width:2"/>
  <line x1="34" y1="100" x2="29" y2="95" style="stroke:rgb(0,0,0);stroke-width:2"/>
  <line x1="34" y1="100" x2="29" y2="105" style="stroke:rgb(0,0,0);stroke-width:2"/>
</g>
    <g transform="translate(357.0, 0) scale(1 1) "><!-- END OF HEADER -->
<rect style="opacity:1.0;fill:#FFFFFF;stroke:none" width="205.0" height="200.0" x="0.0" y="0.0"> </rect>
<path class="bond-0 atom-0 atom-1" d="M 122.6,44.3 L 108.8,89.2" style="fill:none;fill-rule:evenodd;stroke:#000000;stroke-width:2.0px;stroke-linecap:butt;stroke-linejoin:miter;stroke-opacity:1"/>
<path class="bond-1 atom-1 atom-2" d="M 108.8,89.2 L 95.0,134.1" style="fill:none;fill-rule:evenodd;stroke:#000000;stroke-width:2.0px;stroke-linecap:butt;stroke-linejoin:miter;stroke-opacity:1"/>
<path class="bond-2 atom-1 atom-3" d="M 108.8,89.2 L 63.9,75.4" style="fill:none;fill-rule:evenodd;stroke:#000000;stroke-width:2.0px;stroke-linecap:butt;stroke-linejoin:miter;stroke-opacity:1"/>
<path class="bond-3 atom-3 atom-4" d="M 63.9,75.4 L 50.5,87.9" style="fill:none;fill-rule:evenodd;stroke:#000000;stroke-width:2.0px;stroke-linecap:butt;stroke-linejoin:miter;stroke-opacity:1"/>
<path class="bond-3 atom-3 atom-4" d="M 50.5,87.9 L 37.2,100.3" style="fill:none;fill-rule:evenodd;stroke:#FF0000;stroke-width:2.0px;stroke-linecap:butt;stroke-linejoin:miter;stroke-opacity:1"/>
<path class="bond-4 atom-1 atom-5" d="M 108.8,89.2 L 153.7,103.0" style="fill:none;fill-rule:evenodd;stroke:#000000;stroke-width:2.0px;stroke-linecap:butt;stroke-linejoin:miter;stroke-opacity:1"/>
<path class="bond-5 atom-5 atom-6" d="M 154.7,107.0 L 168.8,93.8" style="fill:none;fill-rule:evenodd;stroke:#000000;stroke-width:2.0px;stroke-linecap:butt;stroke-linejoin:miter;stroke-opacity:1"/>
<path class="bond-5 atom-5 atom-6" d="M 168.8,93.8 L 182.9,80.7" style="fill:none;fill-rule:evenodd;stroke:#FF0000;stroke-width:2.0px;stroke-linecap:butt;stroke-linejoin:miter;stroke-opacity:1"/>
<path class="bond-5 atom-5 atom-6" d="M 149.9,101.8 L 164.0,88.7" style="fill:none;fill-rule:evenodd;stroke:#000000;stroke-width:2.0px;stroke-linecap:butt;stroke-linejoin:miter;stroke-opacity:1"/>
<path class="bond-5 atom-5 atom-6" d="M 164.0,88.7 L 178.1,75.5" style="fill:none;fill-rule:evenodd;stroke:#FF0000;stroke-width:2.0px;stroke-linecap:butt;stroke-linejoin:miter;stroke-opacity:1"/>
<path class="bond-6 atom-5 atom-7" d="M 153.7,103.0 L 158.0,121.7" style="fill:none;fill-rule:evenodd;stroke:#000000;stroke-width:2.0px;stroke-linecap:butt;stroke-linejoin:miter;stroke-opacity:1"/>
<path class="bond-6 atom-5 atom-7" d="M 158.0,121.7 L 162.4,140.5" style="fill:none;fill-rule:evenodd;stroke:#FF0000;stroke-width:2.0px;stroke-linecap:butt;stroke-linejoin:miter;stroke-opacity:1"/>
<path d="M 66.1,76.1 L 63.9,75.4 L 63.2,76.0" style="fill:none;stroke:#000000;stroke-width:2.0px;stroke-linecap:butt;stroke-linejoin:miter;stroke-opacity:1;"/>
<path d="M 151.5,102.3 L 153.7,103.0 L 154.0,103.9" style="fill:none;stroke:#000000;stroke-width:2.0px;stroke-linecap:butt;stroke-linejoin:miter;stroke-opacity:1;"/>
<path class="atom-4" d="M 10.2 100.8 L 12.1 100.8 L 12.1 106.5 L 18.9 106.5 L 18.9 100.8 L 20.7 100.8 L 20.7 114.1 L 18.9 114.1 L 18.9 108.0 L 12.1 108.0 L 12.1 114.1 L 10.2 114.1 L 10.2 100.8 " fill="#FF0000"/>
<path class="atom-4" d="M 23.4 107.5 Q 23.4 104.3, 25.0 102.5 Q 26.5 100.7, 29.5 100.7 Q 32.5 100.7, 34.0 102.5 Q 35.6 104.3, 35.6 107.5 Q 35.6 110.7, 34.0 112.5 Q 32.4 114.4, 29.5 114.4 Q 26.6 114.4, 25.0 112.5 Q 23.4 110.7, 23.4 107.5 M 29.5 112.9 Q 31.5 112.9, 32.6 111.5 Q 33.7 110.1, 33.7 107.5 Q 33.7 104.8, 32.6 103.5 Q 31.5 102.2, 29.5 102.2 Q 27.5 102.2, 26.4 103.5 Q 25.3 104.8, 25.3 107.5 Q 25.3 110.1, 26.4 111.5 Q 27.5 112.9, 29.5 112.9 " fill="#FF0000"/>
<path class="atom-6" d="M 182.0 71.0 Q 182.0 67.8, 183.6 66.0 Q 185.2 64.3, 188.1 64.3 Q 191.1 64.3, 192.7 66.0 Q 194.3 67.8, 194.3 71.0 Q 194.3 74.3, 192.7 76.1 Q 191.1 77.9, 188.1 77.9 Q 185.2 77.9, 183.6 76.1 Q 182.0 74.3, 182.0 71.0 M 188.1 76.4 Q 190.2 76.4, 191.3 75.1 Q 192.4 73.7, 192.4 71.0 Q 192.4 68.4, 191.3 67.1 Q 190.2 65.8, 188.1 65.8 Q 186.1 65.8, 185.0 67.1 Q 183.9 68.4, 183.9 71.0 Q 183.9 73.7, 185.0 75.1 Q 186.1 76.4, 188.1 76.4 " fill="#FF0000"/>
<path class="atom-7" d="M 158.2 148.8 Q 158.2 145.6, 159.7 143.8 Q 161.3 142.1, 164.3 142.1 Q 167.2 142.1, 168.8 143.8 Q 170.4 145.6, 170.4 148.8 Q 170.4 152.1, 168.8 153.9 Q 167.2 155.7, 164.3 155.7 Q 161.3 155.7, 159.7 153.9 Q 158.2 152.1, 158.2 148.8 M 164.3 154.2 Q 166.3 154.2, 167.4 152.9 Q 168.5 151.5, 168.5 148.8 Q 168.5 146.2, 167.4 144.9 Q 166.3 143.6, 164.3 143.6 Q 162.2 143.6, 161.1 144.9 Q 160.0 146.2, 160.0 148.8 Q 160.0 151.5, 161.1 152.9 Q 162.2 154.2, 164.3 154.2 " fill="#FF0000"/>
<path class="atom-7" d="M 172.4 142.2 L 174.2 142.2 L 174.2 147.9 L 181.0 147.9 L 181.0 142.2 L 182.9 142.2 L 182.9 155.5 L 181.0 155.5 L 181.0 149.4 L 174.2 149.4 L 174.2 155.5 L 172.4 155.5 L 172.4 142.2 " fill="#FF0000"/>
</g>
    <g transform="translate(562.0, 0) scale(1 1) "><line x1="15" y1="100" x2="25" y2="100" style="stroke:rgb(0,0,0);stroke-width:2"/>
  <line x1="20" y1="95" x2="20" y2="105" style="stroke:rgb(0,0,0);stroke-width:2"/>
</g>
    <g transform="translate(602.0, 0) scale(1 1) "><!-- END OF HEADER -->
<rect style="opacity:1.0;fill:#FFFFFF;stroke:none" width="364.0" height="200.0" x="0.0" y="0.0"> </rect>
<path class="bond-0 atom-0 atom-1" d="M 227.4,30.8 L 234.0,52.1" style="fill:none;fill-rule:evenodd;stroke:#000000;stroke-width:2.0px;stroke-linecap:butt;stroke-linejoin:miter;stroke-opacity:1"/>
<path class="bond-1 atom-1 atom-2" d="M 234.0,52.1 L 218.9,68.5" style="fill:none;fill-rule:evenodd;stroke:#000000;stroke-width:2.0px;stroke-linecap:butt;stroke-linejoin:miter;stroke-opacity:1"/>
<path class="bond-2 atom-2 atom-3" d="M 218.9,68.5 L 202.5,53.4" style="fill:none;fill-rule:evenodd;stroke:#000000;stroke-width:2.0px;stroke-linecap:butt;stroke-linejoin:miter;stroke-opacity:1"/>
<path class="bond-3 atom-3 atom-4" d="M 202.5,53.4 L 193.7,56.1" style="fill:none;fill-rule:evenodd;stroke:#000000;stroke-width:2.0px;stroke-linecap:butt;stroke-linejoin:miter;stroke-opacity:1"/>
<path class="bond-3 atom-3 atom-4" d="M 193.7,56.1 L 184.9,58.9" style="fill:none;fill-rule:evenodd;stroke:#FF0000;stroke-width:2.0px;stroke-linecap:butt;stroke-linejoin:miter;stroke-opacity:1"/>
<path class="bond-4 atom-2 atom-5" d="M 218.9,68.5 L 203.8,84.9" style="fill:none;fill-rule:evenodd;stroke:#000000;stroke-width:2.0px;stroke-linecap:butt;stroke-linejoin:miter;stroke-opacity:1"/>
<path class="bond-5 atom-5 atom-6" d="M 203.8,84.9 L 182.1,80.0" style="fill:none;fill-rule:evenodd;stroke:#000000;stroke-width:2.0px;stroke-linecap:butt;stroke-linejoin:miter;stroke-opacity:1"/>
<path class="bond-6 atom-6 atom-7" d="M 182.1,80.0 L 167.0,96.4" style="fill:none;fill-rule:evenodd;stroke:#000000;stroke-width:2.0px;stroke-linecap:butt;stroke-linejoin:miter;stroke-opacity:1"/>
<path class="bond-7 atom-7 atom-8" d="M 167.0,96.4 L 145.3,91.5" style="fill:none;fill-rule:evenodd;stroke:#000000;stroke-width:2.0px;stroke-linecap:butt;stroke-linejoin:miter;stroke-opacity:1"/>
<path class="bond-8 atom-8 atom-9" d="M 145.3,91.5 L 150.1,69.8" style="fill:none;fill-rule:evenodd;stroke:#000000;stroke-width:2.0px;stroke-linecap:butt;stroke-linejoin:miter;stroke-opacity:1"/>
<path class="bond-9 atom-9 atom-10" d="M 150.1,69.8 L 143.8,63.9" style="fill:none;fill-rule:evenodd;stroke:#000000;stroke-width:2.0px;stroke-linecap:butt;stroke-linejoin:miter;stroke-opacity:1"/>
<path class="bond-9 atom-9 atom-10" d="M 143.8,63.9 L 137.4,58.0" style="fill:none;fill-rule:evenodd;stroke:#FF0000;stroke-width:2.0px;stroke-linecap:butt;stroke-linejoin:miter;stroke-opacity:1"/>
<path class="bond-10 atom-8 atom-11" d="M 145.3,91.5 L 123.5,86.6" style="fill:none;fill-rule:evenodd;stroke:#000000;stroke-width:2.0px;stroke-linecap:butt;stroke-linejoin:miter;stroke-opacity:1"/>
<path class="bond-11 atom-11 atom-12" d="M 123.5,86.6 L 116.9,65.4" style="fill:none;fill-rule:evenodd;stroke:#000000;stroke-width:2.0px;stroke-linecap:butt;stroke-linejoin:miter;stroke-opacity:1"/>
<path class="bond-12 atom-12 atom-13" d="M 116.9,65.4 L 95.1,60.5" style="fill:none;fill-rule:evenodd;stroke:#000000;stroke-width:2.0px;stroke-linecap:butt;stroke-linejoin:miter;stroke-opacity:1"/>
<path class="bond-13 atom-13 atom-14" d="M 95.1,60.5 L 73.4,55.7" style="fill:none;fill-rule:evenodd;stroke:#000000;stroke-width:2.0px;stroke-linecap:butt;stroke-linejoin:miter;stroke-opacity:1"/>
<path class="bond-14 atom-13 atom-15" d="M 95.1,60.5 L 100.0,38.8" style="fill:none;fill-rule:evenodd;stroke:#000000;stroke-width:2.0px;stroke-linecap:butt;stroke-linejoin:miter;stroke-opacity:1"/>
<path class="bond-15 atom-15 atom-16" d="M 100.0,38.8 L 93.6,32.9" style="fill:none;fill-rule:evenodd;stroke:#000000;stroke-width:2.0px;stroke-linecap:butt;stroke-linejoin:miter;stroke-opacity:1"/>
<path class="bond-15 atom-15 atom-16" d="M 93.6,32.9 L 87.3,27.0" style="fill:none;fill-rule:evenodd;stroke:#FF0000;stroke-width:2.0px;stroke-linecap:butt;stroke-linejoin:miter;stroke-opacity:1"/>
<path class="bond-16 atom-13 atom-17" d="M 95.1,60.5 L 90.3,82.3" style="fill:none;fill-rule:evenodd;stroke:#000000;stroke-width:2.0px;stroke-linecap:butt;stroke-linejoin:miter;stroke-opacity:1"/>
<path class="bond-17 atom-17 atom-18" d="M 90.3,82.3 L 69.0,88.9" style="fill:none;fill-rule:evenodd;stroke:#000000;stroke-width:2.0px;stroke-linecap:butt;stroke-linejoin:miter;stroke-opacity:1"/>
<path class="bond-18 atom-18 atom-19" d="M 69.0,88.9 L 64.1,110.6" style="fill:none;fill-rule:evenodd;stroke:#000000;stroke-width:2.0px;stroke-linecap:butt;stroke-linejoin:miter;stroke-opacity:1"/>
<path class="bond-19 atom-19 atom-20" d="M 64.1,110.6 L 59.3,132.4" style="fill:none;fill-rule:evenodd;stroke:#000000;stroke-width:2.0px;stroke-linecap:butt;stroke-linejoin:miter;stroke-opacity:1"/>
<path class="bond-20 atom-19 atom-21" d="M 64.1,110.6 L 85.9,115.5" style="fill:none;fill-rule:evenodd;stroke:#000000;stroke-width:2.0px;stroke-linecap:butt;stroke-linejoin:miter;stroke-opacity:1"/>
<path class="bond-21 atom-21 atom-22" d="M 85.9,115.5 L 88.6,124.2" style="fill:none;fill-rule:evenodd;stroke:#000000;stroke-width:2.0px;stroke-linecap:butt;stroke-linejoin:miter;stroke-opacity:1"/>
<path class="bond-21 atom-21 atom-22" d="M 88.6,124.2 L 91.3,132.8" style="fill:none;fill-rule:evenodd;stroke:#FF0000;stroke-width:2.0px;stroke-linecap:butt;stroke-linejoin:miter;stroke-opacity:1"/>
<path class="bond-22 atom-19 atom-23" d="M 64.1,110.6 L 42.4,105.8" style="fill:none;fill-rule:evenodd;stroke:#000000;stroke-width:2.0px;stroke-linecap:butt;stroke-linejoin:miter;stroke-opacity:1"/>
<path class="bond-23 atom-23 atom-24" d="M 44.3,106.2 L 41.5,97.1" style="fill:none;fill-rule:evenodd;stroke:#000000;stroke-width:2.0px;stroke-linecap:butt;stroke-linejoin:miter;stroke-opacity:1"/>
<path class="bond-23 atom-23 atom-24" d="M 41.5,97.1 L 38.6,88.0" style="fill:none;fill-rule:evenodd;stroke:#FF0000;stroke-width:2.0px;stroke-linecap:butt;stroke-linejoin:miter;stroke-opacity:1"/>
<path class="bond-23 atom-23 atom-24" d="M 41.1,107.2 L 38.3,98.1" style="fill:none;fill-rule:evenodd;stroke:#000000;stroke-width:2.0px;stroke-linecap:butt;stroke-linejoin:miter;stroke-opacity:1"/>
<path class="bond-23 atom-23 atom-24" d="M 38.3,98.1 L 35.4,89.0" style="fill:none;fill-rule:evenodd;stroke:#FF0000;stroke-width:2.0px;stroke-linecap:butt;stroke-linejoin:miter;stroke-opacity:1"/>
<path class="bond-24 atom-23 atom-25" d="M 42.4,105.8 L 36.7,112.0" style="fill:none;fill-rule:evenodd;stroke:#000000;stroke-width:2.0px;stroke-linecap:butt;stroke-linejoin:miter;stroke-opacity:1"/>
<path class="bond-24 atom-23 atom-25" d="M 36.7,112.0 L 30.9,118.2" style="fill:none;fill-rule:evenodd;stroke:#FF0000;stroke-width:2.0px;stroke-linecap:butt;stroke-linejoin:miter;stroke-opacity:1"/>
<path class="bond-25 atom-8 atom-26" d="M 145.3,91.5 L 140.4,113.3" style="fill:none;fill-rule:evenodd;stroke:#000000;stroke-width:2.0px;stroke-linecap:butt;stroke-linejoin:miter;stroke-opacity:1"/>
<path class="bond-26 atom-26 atom-27" d="M 140.4,113.3 L 156.8,128.3" style="fill:none;fill-rule:evenodd;stroke:#000000;stroke-width:2.0px;stroke-linecap:butt;stroke-linejoin:miter;stroke-opacity:1"/>
<path class="bond-27 atom-27 atom-28" d="M 156.8,128.3 L 151.9,150.1" style="fill:none;fill-rule:evenodd;stroke:#000000;stroke-width:2.0px;stroke-linecap:butt;stroke-linejoin:miter;stroke-opacity:1"/>
<path class="bond-28 atom-28 atom-29" d="M 151.9,150.1 L 147.1,171.8" style="fill:none;fill-rule:evenodd;stroke:#000000;stroke-width:2.0px;stroke-linecap:butt;stroke-linejoin:miter;stroke-opacity:1"/>
<path class="bond-29 atom-28 atom-30" d="M 151.9,150.1 L 173.7,154.9" style="fill:none;fill-rule:evenodd;stroke:#000000;stroke-width:2.0px;stroke-linecap:butt;stroke-linejoin:miter;stroke-opacity:1"/>
<path class="bond-30 atom-30 atom-31" d="M 173.7,154.9 L 176.4,163.6" style="fill:none;fill-rule:evenodd;stroke:#000000;stroke-width:2.0px;stroke-linecap:butt;stroke-linejoin:miter;stroke-opacity:1"/>
<path class="bond-30 atom-30 atom-31" d="M 176.4,163.6 L 179.1,172.3" style="fill:none;fill-rule:evenodd;stroke:#FF0000;stroke-width:2.0px;stroke-linecap:butt;stroke-linejoin:miter;stroke-opacity:1"/>
<path class="bond-31 atom-28 atom-32" d="M 151.9,150.1 L 130.2,145.2" style="fill:none;fill-rule:evenodd;stroke:#000000;stroke-width:2.0px;stroke-linecap:butt;stroke-linejoin:miter;stroke-opacity:1"/>
<path class="bond-32 atom-32 atom-33" d="M 132.1,145.6 L 129.2,136.6" style="fill:none;fill-rule:evenodd;stroke:#000000;stroke-width:2.0px;stroke-linecap:butt;stroke-linejoin:miter;stroke-opacity:1"/>
<path class="bond-32 atom-32 atom-33" d="M 129.2,136.6 L 126.4,127.5" style="fill:none;fill-rule:evenodd;stroke:#FF0000;stroke-width:2.0px;stroke-linecap:butt;stroke-linejoin:miter;stroke-opacity:1"/>
<path class="bond-32 atom-32 atom-33" d="M 128.9,146.6 L 126.0,137.5" style="fill:none;fill-rule:evenodd;stroke:#000000;stroke-width:2.0px;stroke-linecap:butt;stroke-linejoin:miter;stroke-opacity:1"/>
<path class="bond-32 atom-32 atom-33" d="M 126.0,137.5 L 123.2,128.5" style="fill:none;fill-rule:evenodd;stroke:#FF0000;stroke-width:2.0px;stroke-linecap:butt;stroke-linejoin:miter;stroke-opacity:1"/>
<path class="bond-33 atom-32 atom-34" d="M 130.2,145.2 L 124.5,151.4" style="fill:none;fill-rule:evenodd;stroke:#000000;stroke-width:2.0px;stroke-linecap:butt;stroke-linejoin:miter;stroke-opacity:1"/>
<path class="bond-33 atom-32 atom-34" d="M 124.5,151.4 L 118.7,157.7" style="fill:none;fill-rule:evenodd;stroke:#FF0000;stroke-width:2.0px;stroke-linecap:butt;stroke-linejoin:miter;stroke-opacity:1"/>
<path class="bond-34 atom-2 atom-35" d="M 218.9,68.5 L 235.3,83.6" style="fill:none;fill-rule:evenodd;stroke:#000000;stroke-width:2.0px;stroke-linecap:butt;stroke-linejoin:miter;stroke-opacity:1"/>
<path class="bond-35 atom-35 atom-36" d="M 235.3,83.6 L 230.4,105.3" style="fill:none;fill-rule:evenodd;stroke:#000000;stroke-width:2.0px;stroke-linecap:butt;stroke-linejoin:miter;stroke-opacity:1"/>
<path class="bond-36 atom-36 atom-37" d="M 230.4,105.3 L 246.8,120.4" style="fill:none;fill-rule:evenodd;stroke:#000000;stroke-width:2.0px;stroke-linecap:butt;stroke-linejoin:miter;stroke-opacity:1"/>
<path class="bond-37 atom-37 atom-38" d="M 246.8,120.4 L 263.2,135.5" style="fill:none;fill-rule:evenodd;stroke:#000000;stroke-width:2.0px;stroke-linecap:butt;stroke-linejoin:miter;stroke-opacity:1"/>
<path class="bond-38 atom-37 atom-39" d="M 246.8,120.4 L 231.7,136.8" style="fill:none;fill-rule:evenodd;stroke:#000000;stroke-width:2.0px;stroke-linecap:butt;stroke-linejoin:miter;stroke-opacity:1"/>
<path class="bond-39 atom-39 atom-40" d="M 231.7,136.8 L 234.5,145.4" style="fill:none;fill-rule:evenodd;stroke:#000000;stroke-width:2.0px;stroke-linecap:butt;stroke-linejoin:miter;stroke-opacity:1"/>
<path class="bond-39 atom-39 atom-40" d="M 234.5,145.4 L 237.2,154.1" style="fill:none;fill-rule:evenodd;stroke:#FF0000;stroke-width:2.0px;stroke-linecap:butt;stroke-linejoin:miter;stroke-opacity:1"/>
<path class="bond-40 atom-37 atom-41" d="M 246.8,120.4 L 261.9,104.0" style="fill:none;fill-rule:evenodd;stroke:#000000;stroke-width:2.0px;stroke-linecap:butt;stroke-linejoin:miter;stroke-opacity:1"/>
<path class="bond-41 atom-41 atom-42" d="M 261.9,104.0 L 283.7,108.9" style="fill:none;fill-rule:evenodd;stroke:#000000;stroke-width:2.0px;stroke-linecap:butt;stroke-linejoin:miter;stroke-opacity:1"/>
<path class="bond-42 atom-42 atom-43" d="M 283.7,108.9 L 298.7,92.5" style="fill:none;fill-rule:evenodd;stroke:#000000;stroke-width:2.0px;stroke-linecap:butt;stroke-linejoin:miter;stroke-opacity:1"/>
<path class="bond-43 atom-43 atom-44" d="M 298.7,92.5 L 313.8,76.1" style="fill:none;fill-rule:evenodd;stroke:#000000;stroke-width:2.0px;stroke-linecap:butt;stroke-linejoin:miter;stroke-opacity:1"/>
<path class="bond-44 atom-43 atom-45" d="M 298.7,92.5 L 282.3,77.4" style="fill:none;fill-rule:evenodd;stroke:#000000;stroke-width:2.0px;stroke-linecap:butt;stroke-linejoin:miter;stroke-opacity:1"/>
<path class="bond-45 atom-45 atom-46" d="M 282.3,77.4 L 284.3,68.5" style="fill:none;fill-rule:evenodd;stroke:#000000;stroke-width:2.0px;stroke-linecap:butt;stroke-linejoin:miter;stroke-opacity:1"/>
<path class="bond-45 atom-45 atom-46" d="M 284.3,68.5 L 286.3,59.7" style="fill:none;fill-rule:evenodd;stroke:#FF0000;stroke-width:2.0px;stroke-linecap:butt;stroke-linejoin:miter;stroke-opacity:1"/>
<path class="bond-46 atom-43 atom-47" d="M 298.7,92.5 L 315.1,107.6" style="fill:none;fill-rule:evenodd;stroke:#000000;stroke-width:2.0px;stroke-linecap:butt;stroke-linejoin:miter;stroke-opacity:1"/>
<path class="bond-47 atom-47 atom-48" d="M 313.7,106.2 L 311.6,115.6" style="fill:none;fill-rule:evenodd;stroke:#000000;stroke-width:2.0px;stroke-linecap:butt;stroke-linejoin:miter;stroke-opacity:1"/>
<path class="bond-47 atom-47 atom-48" d="M 311.6,115.6 L 309.5,125.0" style="fill:none;fill-rule:evenodd;stroke:#FF0000;stroke-width:2.0px;stroke-linecap:butt;stroke-linejoin:miter;stroke-opacity:1"/>
<path class="bond-47 atom-47 atom-48" d="M 317.0,107.0 L 314.9,116.4" style="fill:none;fill-rule:evenodd;stroke:#000000;stroke-width:2.0px;stroke-linecap:butt;stroke-linejoin:miter;stroke-opacity:1"/>
<path class="bond-47 atom-47 atom-48" d="M 314.9,116.4 L 312.8,125.7" style="fill:none;fill-rule:evenodd;stroke:#FF0000;stroke-width:2.0px;stroke-linecap:butt;stroke-linejoin:miter;stroke-opacity:1"/>
<path class="bond-48 atom-47 atom-49" d="M 315.1,107.6 L 323.9,104.8" style="fill:none;fill-rule:evenodd;stroke:#000000;stroke-width:2.0px;stroke-linecap:butt;stroke-linejoin:miter;stroke-opacity:1"/>
<path class="bond-48 atom-47 atom-49" d="M 323.9,104.8 L 332.8,102.0" style="fill:none;fill-rule:evenodd;stroke:#FF0000;stroke-width:2.0px;stroke-linecap:butt;stroke-linejoin:miter;stroke-opacity:1"/>
<path d="M 233.7,51.0 L 234.0,52.1 L 233.2,52.9" style="fill:none;stroke:#000000;stroke-width:2.0px;stroke-linecap:butt;stroke-linejoin:miter;stroke-opacity:1;"/>
<path d="M 203.3,54.1 L 202.5,53.4 L 202.1,53.5" style="fill:none;stroke:#000000;stroke-width:2.0px;stroke-linecap:butt;stroke-linejoin:miter;stroke-opacity:1;"/>
<path d="M 204.6,84.0 L 203.8,84.9 L 202.7,84.6" style="fill:none;stroke:#000000;stroke-width:2.0px;stroke-linecap:butt;stroke-linejoin:miter;stroke-opacity:1;"/>
<path d="M 183.2,80.2 L 182.1,80.0 L 181.3,80.8" style="fill:none;stroke:#000000;stroke-width:2.0px;stroke-linecap:butt;stroke-linejoin:miter;stroke-opacity:1;"/>
<path d="M 167.8,95.6 L 167.0,96.4 L 165.9,96.1" style="fill:none;stroke:#000000;stroke-width:2.0px;stroke-linecap:butt;stroke-linejoin:miter;stroke-opacity:1;"/>
<path d="M 149.9,70.9 L 150.1,69.8 L 149.8,69.5" style="fill:none;stroke:#000000;stroke-width:2.0px;stroke-linecap:butt;stroke-linejoin:miter;stroke-opacity:1;"/>
<path d="M 124.6,86.9 L 123.5,86.6 L 123.2,85.6" style="fill:none;stroke:#000000;stroke-width:2.0px;stroke-linecap:butt;stroke-linejoin:miter;stroke-opacity:1;"/>
<path d="M 117.2,66.5 L 116.9,65.4 L 115.8,65.1" style="fill:none;stroke:#000000;stroke-width:2.0px;stroke-linecap:butt;stroke-linejoin:miter;stroke-opacity:1;"/>
<path d="M 99.8,39.9 L 100.0,38.8 L 99.7,38.5" style="fill:none;stroke:#000000;stroke-width:2.0px;stroke-linecap:butt;stroke-linejoin:miter;stroke-opacity:1;"/>
<path d="M 90.5,81.2 L 90.3,82.3 L 89.2,82.6" style="fill:none;stroke:#000000;stroke-width:2.0px;stroke-linecap:butt;stroke-linejoin:miter;stroke-opacity:1;"/>
<path d="M 70.1,88.6 L 69.0,88.9 L 68.8,90.0" style="fill:none;stroke:#000000;stroke-width:2.0px;stroke-linecap:butt;stroke-linejoin:miter;stroke-opacity:1;"/>
<path d="M 84.8,115.3 L 85.9,115.5 L 86.0,115.9" style="fill:none;stroke:#000000;stroke-width:2.0px;stroke-linecap:butt;stroke-linejoin:miter;stroke-opacity:1;"/>
<path d="M 43.5,106.0 L 42.4,105.8 L 42.1,106.1" style="fill:none;stroke:#000000;stroke-width:2.0px;stroke-linecap:butt;stroke-linejoin:miter;stroke-opacity:1;"/>
<path d="M 140.6,112.2 L 140.4,113.3 L 141.2,114.0" style="fill:none;stroke:#000000;stroke-width:2.0px;stroke-linecap:butt;stroke-linejoin:miter;stroke-opacity:1;"/>
<path d="M 156.0,127.6 L 156.8,128.3 L 156.5,129.4" style="fill:none;stroke:#000000;stroke-width:2.0px;stroke-linecap:butt;stroke-linejoin:miter;stroke-opacity:1;"/>
<path d="M 172.6,154.7 L 173.7,154.9 L 173.8,155.4" style="fill:none;stroke:#000000;stroke-width:2.0px;stroke-linecap:butt;stroke-linejoin:miter;stroke-opacity:1;"/>
<path d="M 131.3,145.5 L 130.2,145.2 L 129.9,145.5" style="fill:none;stroke:#000000;stroke-width:2.0px;stroke-linecap:butt;stroke-linejoin:miter;stroke-opacity:1;"/>
<path d="M 234.5,82.8 L 235.3,83.6 L 235.1,84.6" style="fill:none;stroke:#000000;stroke-width:2.0px;stroke-linecap:butt;stroke-linejoin:miter;stroke-opacity:1;"/>
<path d="M 230.7,104.2 L 230.4,105.3 L 231.3,106.1" style="fill:none;stroke:#000000;stroke-width:2.0px;stroke-linecap:butt;stroke-linejoin:miter;stroke-opacity:1;"/>
<path d="M 232.5,136.0 L 231.7,136.8 L 231.9,137.2" style="fill:none;stroke:#000000;stroke-width:2.0px;stroke-linecap:butt;stroke-linejoin:miter;stroke-opacity:1;"/>
<path d="M 261.2,104.8 L 261.9,104.0 L 263.0,104.2" style="fill:none;stroke:#000000;stroke-width:2.0px;stroke-linecap:butt;stroke-linejoin:miter;stroke-opacity:1;"/>
<path d="M 282.6,108.6 L 283.7,108.9 L 284.4,108.0" style="fill:none;stroke:#000000;stroke-width:2.0px;stroke-linecap:butt;stroke-linejoin:miter;stroke-opacity:1;"/>
<path d="M 283.2,78.1 L 282.3,77.4 L 282.4,76.9" style="fill:none;stroke:#000000;stroke-width:2.0px;stroke-linecap:butt;stroke-linejoin:miter;stroke-opacity:1;"/>
<path d="M 314.3,106.8 L 315.1,107.6 L 315.6,107.4" style="fill:none;stroke:#000000;stroke-width:2.0px;stroke-linecap:butt;stroke-linejoin:miter;stroke-opacity:1;"/>
<path class="atom-4" d="M 172.1 56.9 L 173.0 56.9 L 173.0 59.6 L 176.2 59.6 L 176.2 56.9 L 177.1 56.9 L 177.1 63.2 L 176.2 63.2 L 176.2 60.3 L 173.0 60.3 L 173.0 63.2 L 172.1 63.2 L 172.1 56.9 " fill="#FF0000"/>
<path class="atom-4" d="M 178.4 60.1 Q 178.4 58.5, 179.1 57.7 Q 179.9 56.9, 181.3 56.9 Q 182.7 56.9, 183.4 57.7 Q 184.2 58.5, 184.2 60.1 Q 184.2 61.6, 183.4 62.5 Q 182.6 63.3, 181.3 63.3 Q 179.9 63.3, 179.1 62.5 Q 178.4 61.6, 178.4 60.1 M 181.3 62.6 Q 182.2 62.6, 182.7 62.0 Q 183.3 61.3, 183.3 60.1 Q 183.3 58.8, 182.7 58.2 Q 182.2 57.6, 181.3 57.6 Q 180.3 57.6, 179.8 58.2 Q 179.3 58.8, 179.3 60.1 Q 179.3 61.3, 179.8 62.0 Q 180.3 62.6, 181.3 62.6 " fill="#FF0000"/>
<path class="atom-10" d="M 124.6 51.6 L 125.5 51.6 L 125.5 54.3 L 128.7 54.3 L 128.7 51.6 L 129.6 51.6 L 129.6 57.9 L 128.7 57.9 L 128.7 55.0 L 125.5 55.0 L 125.5 57.9 L 124.6 57.9 L 124.6 51.6 " fill="#FF0000"/>
<path class="atom-10" d="M 130.9 54.7 Q 130.9 53.2, 131.6 52.4 Q 132.4 51.5, 133.8 51.5 Q 135.1 51.5, 135.9 52.4 Q 136.6 53.2, 136.6 54.7 Q 136.6 56.2, 135.9 57.1 Q 135.1 58.0, 133.8 58.0 Q 132.4 58.0, 131.6 57.1 Q 130.9 56.3, 130.9 54.7 M 133.8 57.3 Q 134.7 57.3, 135.2 56.6 Q 135.8 56.0, 135.8 54.7 Q 135.8 53.5, 135.2 52.9 Q 134.7 52.2, 133.8 52.2 Q 132.8 52.2, 132.3 52.8 Q 131.7 53.5, 131.7 54.7 Q 131.7 56.0, 132.3 56.6 Q 132.8 57.3, 133.8 57.3 " fill="#FF0000"/>
<path class="atom-16" d="M 74.5 20.6 L 75.4 20.6 L 75.4 23.3 L 78.6 23.3 L 78.6 20.6 L 79.4 20.6 L 79.4 26.9 L 78.6 26.9 L 78.6 24.0 L 75.4 24.0 L 75.4 26.9 L 74.5 26.9 L 74.5 20.6 " fill="#FF0000"/>
<path class="atom-16" d="M 80.7 23.7 Q 80.7 22.2, 81.5 21.4 Q 82.2 20.5, 83.6 20.5 Q 85.0 20.5, 85.8 21.4 Q 86.5 22.2, 86.5 23.7 Q 86.5 25.2, 85.8 26.1 Q 85.0 27.0, 83.6 27.0 Q 82.2 27.0, 81.5 26.1 Q 80.7 25.3, 80.7 23.7 M 83.6 26.3 Q 84.6 26.3, 85.1 25.6 Q 85.6 25.0, 85.6 23.7 Q 85.6 22.5, 85.1 21.9 Q 84.6 21.2, 83.6 21.2 Q 82.7 21.2, 82.1 21.8 Q 81.6 22.5, 81.6 23.7 Q 81.6 25.0, 82.1 25.6 Q 82.7 26.3, 83.6 26.3 " fill="#FF0000"/>
<path class="atom-22" d="M 89.6 136.8 Q 89.6 135.3, 90.4 134.4 Q 91.1 133.6, 92.5 133.6 Q 93.9 133.6, 94.7 134.4 Q 95.4 135.3, 95.4 136.8 Q 95.4 138.3, 94.7 139.2 Q 93.9 140.1, 92.5 140.1 Q 91.1 140.1, 90.4 139.2 Q 89.6 138.3, 89.6 136.8 M 92.5 139.3 Q 93.5 139.3, 94.0 138.7 Q 94.5 138.1, 94.5 136.8 Q 94.5 135.6, 94.0 134.9 Q 93.5 134.3, 92.5 134.3 Q 91.6 134.3, 91.0 134.9 Q 90.5 135.5, 90.5 136.8 Q 90.5 138.1, 91.0 138.7 Q 91.6 139.3, 92.5 139.3 " fill="#FF0000"/>
<path class="atom-22" d="M 96.4 133.7 L 97.3 133.7 L 97.3 136.3 L 100.5 136.3 L 100.5 133.7 L 101.4 133.7 L 101.4 140.0 L 100.5 140.0 L 100.5 137.1 L 97.3 137.1 L 97.3 140.0 L 96.4 140.0 L 96.4 133.7 " fill="#FF0000"/>
<path class="atom-24" d="M 32.9 84.5 Q 32.9 83.0, 33.6 82.2 Q 34.4 81.3, 35.8 81.3 Q 37.2 81.3, 37.9 82.2 Q 38.7 83.0, 38.7 84.5 Q 38.7 86.1, 37.9 86.9 Q 37.1 87.8, 35.8 87.8 Q 34.4 87.8, 33.6 86.9 Q 32.9 86.1, 32.9 84.5 M 35.8 87.1 Q 36.7 87.1, 37.2 86.5 Q 37.8 85.8, 37.8 84.5 Q 37.8 83.3, 37.2 82.7 Q 36.7 82.0, 35.8 82.0 Q 34.8 82.0, 34.3 82.7 Q 33.8 83.3, 33.8 84.5 Q 33.8 85.8, 34.3 86.5 Q 34.8 87.1, 35.8 87.1 " fill="#FF0000"/>
<path class="atom-25" d="M 18.2 119.0 L 19.1 119.0 L 19.1 121.7 L 22.3 121.7 L 22.3 119.0 L 23.1 119.0 L 23.1 125.4 L 22.3 125.4 L 22.3 122.4 L 19.1 122.4 L 19.1 125.4 L 18.2 125.4 L 18.2 119.0 " fill="#FF0000"/>
<path class="atom-25" d="M 24.4 122.2 Q 24.4 120.7, 25.2 119.8 Q 25.9 119.0, 27.3 119.0 Q 28.7 119.0, 29.5 119.8 Q 30.2 120.7, 30.2 122.2 Q 30.2 123.7, 29.5 124.6 Q 28.7 125.5, 27.3 125.5 Q 25.9 125.5, 25.2 124.6 Q 24.4 123.7, 24.4 122.2 M 27.3 124.7 Q 28.3 124.7, 28.8 124.1 Q 29.3 123.4, 29.3 122.2 Q 29.3 120.9, 28.8 120.3 Q 28.3 119.7, 27.3 119.7 Q 26.4 119.7, 25.8 120.3 Q 25.3 120.9, 25.3 122.2 Q 25.3 123.5, 25.8 124.1 Q 26.4 124.7, 27.3 124.7 " fill="#FF0000"/>
<path class="atom-31" d="M 177.4 176.2 Q 177.4 174.7, 178.2 173.9 Q 178.9 173.0, 180.3 173.0 Q 181.7 173.0, 182.5 173.9 Q 183.2 174.7, 183.2 176.2 Q 183.2 177.8, 182.5 178.6 Q 181.7 179.5, 180.3 179.5 Q 178.9 179.5, 178.2 178.6 Q 177.4 177.8, 177.4 176.2 M 180.3 178.8 Q 181.3 178.8, 181.8 178.1 Q 182.3 177.5, 182.3 176.2 Q 182.3 175.0, 181.8 174.4 Q 181.3 173.7, 180.3 173.7 Q 179.4 173.7, 178.8 174.4 Q 178.3 175.0, 178.3 176.2 Q 178.3 177.5, 178.8 178.1 Q 179.4 178.8, 180.3 178.8 " fill="#FF0000"/>
<path class="atom-31" d="M 184.2 173.1 L 185.0 173.1 L 185.0 175.8 L 188.3 175.8 L 188.3 173.1 L 189.1 173.1 L 189.1 179.4 L 188.3 179.4 L 188.3 176.5 L 185.0 176.5 L 185.0 179.4 L 184.2 179.4 L 184.2 173.1 " fill="#FF0000"/>
<path class="atom-33" d="M 120.6 124.0 Q 120.6 122.5, 121.4 121.6 Q 122.1 120.8, 123.5 120.8 Q 124.9 120.8, 125.7 121.6 Q 126.4 122.5, 126.4 124.0 Q 126.4 125.5, 125.7 126.4 Q 124.9 127.2, 123.5 127.2 Q 122.1 127.2, 121.4 126.4 Q 120.6 125.5, 120.6 124.0 M 123.5 126.5 Q 124.5 126.5, 125.0 125.9 Q 125.5 125.2, 125.5 124.0 Q 125.5 122.7, 125.0 122.1 Q 124.5 121.5, 123.5 121.5 Q 122.6 121.5, 122.0 122.1 Q 121.5 122.7, 121.5 124.0 Q 121.5 125.2, 122.0 125.9 Q 122.6 126.5, 123.5 126.5 " fill="#FF0000"/>
<path class="atom-34" d="M 106.0 158.5 L 106.8 158.5 L 106.8 161.2 L 110.1 161.2 L 110.1 158.5 L 110.9 158.5 L 110.9 164.8 L 110.1 164.8 L 110.1 161.9 L 106.8 161.9 L 106.8 164.8 L 106.0 164.8 L 106.0 158.5 " fill="#FF0000"/>
<path class="atom-34" d="M 112.2 161.6 Q 112.2 160.1, 113.0 159.3 Q 113.7 158.4, 115.1 158.4 Q 116.5 158.4, 117.2 159.3 Q 118.0 160.1, 118.0 161.6 Q 118.0 163.1, 117.2 164.0 Q 116.5 164.9, 115.1 164.9 Q 113.7 164.9, 113.0 164.0 Q 112.2 163.2, 112.2 161.6 M 115.1 164.2 Q 116.1 164.2, 116.6 163.5 Q 117.1 162.9, 117.1 161.6 Q 117.1 160.4, 116.6 159.8 Q 116.1 159.1, 115.1 159.1 Q 114.1 159.1, 113.6 159.7 Q 113.1 160.4, 113.1 161.6 Q 113.1 162.9, 113.6 163.5 Q 114.1 164.2, 115.1 164.2 " fill="#FF0000"/>
<path class="atom-40" d="M 235.5 158.1 Q 235.5 156.5, 236.2 155.7 Q 237.0 154.8, 238.4 154.8 Q 239.8 154.8, 240.5 155.7 Q 241.3 156.5, 241.3 158.1 Q 241.3 159.6, 240.5 160.5 Q 239.8 161.3, 238.4 161.3 Q 237.0 161.3, 236.2 160.5 Q 235.5 159.6, 235.5 158.1 M 238.4 160.6 Q 239.4 160.6, 239.9 160.0 Q 240.4 159.3, 240.4 158.1 Q 240.4 156.8, 239.9 156.2 Q 239.4 155.6, 238.4 155.6 Q 237.4 155.6, 236.9 156.2 Q 236.4 156.8, 236.4 158.1 Q 236.4 159.3, 236.9 160.0 Q 237.4 160.6, 238.4 160.6 " fill="#FF0000"/>
<path class="atom-40" d="M 242.3 154.9 L 243.1 154.9 L 243.1 157.6 L 246.4 157.6 L 246.4 154.9 L 247.2 154.9 L 247.2 161.2 L 246.4 161.2 L 246.4 158.3 L 243.1 158.3 L 243.1 161.2 L 242.3 161.2 L 242.3 154.9 " fill="#FF0000"/>
<path class="atom-46" d="M 284.3 55.7 Q 284.3 54.2, 285.1 53.3 Q 285.8 52.5, 287.2 52.5 Q 288.6 52.5, 289.4 53.3 Q 290.1 54.2, 290.1 55.7 Q 290.1 57.2, 289.4 58.1 Q 288.6 58.9, 287.2 58.9 Q 285.8 58.9, 285.1 58.1 Q 284.3 57.2, 284.3 55.7 M 287.2 58.2 Q 288.2 58.2, 288.7 57.6 Q 289.2 56.9, 289.2 55.7 Q 289.2 54.4, 288.7 53.8 Q 288.2 53.2, 287.2 53.2 Q 286.3 53.2, 285.7 53.8 Q 285.2 54.4, 285.2 55.7 Q 285.2 56.9, 285.7 57.6 Q 286.3 58.2, 287.2 58.2 " fill="#FF0000"/>
<path class="atom-46" d="M 291.1 52.5 L 291.9 52.5 L 291.9 55.2 L 295.2 55.2 L 295.2 52.5 L 296.0 52.5 L 296.0 58.8 L 295.2 58.8 L 295.2 55.9 L 291.9 55.9 L 291.9 58.8 L 291.1 58.8 L 291.1 52.5 " fill="#FF0000"/>
<path class="atom-48" d="M 307.4 129.3 Q 307.4 127.8, 308.1 127.0 Q 308.9 126.1, 310.3 126.1 Q 311.7 126.1, 312.4 127.0 Q 313.2 127.8, 313.2 129.3 Q 313.2 130.8, 312.4 131.7 Q 311.6 132.6, 310.3 132.6 Q 308.9 132.6, 308.1 131.7 Q 307.4 130.9, 307.4 129.3 M 310.3 131.9 Q 311.2 131.9, 311.7 131.2 Q 312.3 130.6, 312.3 129.3 Q 312.3 128.1, 311.7 127.4 Q 311.2 126.8, 310.3 126.8 Q 309.3 126.8, 308.8 127.4 Q 308.3 128.1, 308.3 129.3 Q 308.3 130.6, 308.8 131.2 Q 309.3 131.9, 310.3 131.9 " fill="#FF0000"/>
<path class="atom-49" d="M 333.5 100.9 Q 333.5 99.4, 334.2 98.6 Q 335.0 97.7, 336.4 97.7 Q 337.8 97.7, 338.5 98.6 Q 339.3 99.4, 339.3 100.9 Q 339.3 102.5, 338.5 103.3 Q 337.8 104.2, 336.4 104.2 Q 335.0 104.2, 334.2 103.3 Q 333.5 102.5, 333.5 100.9 M 336.4 103.5 Q 337.3 103.5, 337.9 102.8 Q 338.4 102.2, 338.4 100.9 Q 338.4 99.7, 337.9 99.1 Q 337.3 98.4, 336.4 98.4 Q 335.4 98.4, 334.9 99.1 Q 334.4 99.7, 334.4 100.9 Q 334.4 102.2, 334.9 102.8 Q 335.4 103.5, 336.4 103.5 " fill="#FF0000"/>
<path class="atom-49" d="M 340.3 97.8 L 341.1 97.8 L 341.1 100.5 L 344.3 100.5 L 344.3 97.8 L 345.2 97.8 L 345.2 104.1 L 344.3 104.1 L 344.3 101.2 L 341.1 101.2 L 341.1 104.1 L 340.3 104.1 L 340.3 97.8 " fill="#FF0000"/>
</g>
  </g>
</svg>
