<?xml version='1.0' encoding='ASCII' standalone='yes'?>
<svg xmlns="http://www.w3.org/2000/svg" xmlns:xlink="http://www.w3.org/1999/xlink" version="1.1" width="961.0px" viewBox="0 0 961.0 200.0" height="200.0px">
  <g>
    <g transform="translate(0, 0) scale(1 1) "><!-- END OF HEADER -->
<rect style="opacity:1.0;fill:#FFFFFF;stroke:none" width="311.0" height="200.0" x="0.0" y="0.0"> </rect>
<path class="bond-0 atom-0 atom-1" d="M 16.5,84.7 L 47.0,73.0" style="fill:none;fill-rule:evenodd;stroke:#000000;stroke-width:2.0px;stroke-linecap:butt;stroke-linejoin:miter;stroke-opacity:1"/>
<path class="bond-1 atom-1 atom-2" d="M 47.0,73.0 L 49.1,59.8" style="fill:none;fill-rule:evenodd;stroke:#000000;stroke-width:2.0px;stroke-linecap:butt;stroke-linejoin:miter;stroke-opacity:1"/>
<path class="bond-1 atom-1 atom-2" d="M 49.1,59.8 L 51.2,46.6" style="fill:none;fill-rule:evenodd;stroke:#FF0000;stroke-width:2.0px;stroke-linecap:butt;stroke-linejoin:miter;stroke-opacity:1"/>
<path class="bond-2 atom-1 atom-3" d="M 47.0,73.0 L 72.3,93.6" style="fill:none;fill-rule:evenodd;stroke:#000000;stroke-width:2.0px;stroke-linecap:butt;stroke-linejoin:miter;stroke-opacity:1"/>
<path class="bond-3 atom-3 atom-4" d="M 72.3,93.6 L 51.7,119.0" style="fill:none;fill-rule:evenodd;stroke:#000000;stroke-width:2.0px;stroke-linecap:butt;stroke-linejoin:miter;stroke-opacity:1"/>
<path class="bond-4 atom-3 atom-5" d="M 72.3,93.6 L 92.9,68.3" style="fill:none;fill-rule:evenodd;stroke:#000000;stroke-width:2.0px;stroke-linecap:butt;stroke-linejoin:miter;stroke-opacity:1"/>
<path class="bond-5 atom-5 atom-6" d="M 92.9,68.3 L 125.1,73.5" style="fill:none;fill-rule:evenodd;stroke:#000000;stroke-width:2.0px;stroke-linecap:butt;stroke-linejoin:miter;stroke-opacity:1"/>
<path class="bond-6 atom-6 atom-7" d="M 125.1,73.5 L 130.3,41.3" style="fill:none;fill-rule:evenodd;stroke:#000000;stroke-width:2.0px;stroke-linecap:butt;stroke-linejoin:miter;stroke-opacity:1"/>
<path class="bond-7 atom-6 atom-8" d="M 125.1,73.5 L 124.4,92.8" style="fill:none;fill-rule:evenodd;stroke:#000000;stroke-width:2.0px;stroke-linecap:butt;stroke-linejoin:miter;stroke-opacity:1"/>
<path class="bond-8 atom-6 atom-9" d="M 125.1,73.5 L 157.3,78.7" style="fill:none;fill-rule:evenodd;stroke:#000000;stroke-width:2.0px;stroke-linecap:butt;stroke-linejoin:miter;stroke-opacity:1"/>
<path class="bond-9 atom-9 atom-10" d="M 157.3,78.7 L 169.0,109.2" style="fill:none;fill-rule:evenodd;stroke:#000000;stroke-width:2.0px;stroke-linecap:butt;stroke-linejoin:miter;stroke-opacity:1"/>
<path class="bond-10 atom-10 atom-11" d="M 169.0,109.2 L 201.2,114.4" style="fill:none;fill-rule:evenodd;stroke:#000000;stroke-width:2.0px;stroke-linecap:butt;stroke-linejoin:miter;stroke-opacity:1"/>
<path class="bond-11 atom-11 atom-12" d="M 201.2,114.4 L 221.8,120.3" style="fill:none;fill-rule:evenodd;stroke:#000000;stroke-width:2.0px;stroke-linecap:butt;stroke-linejoin:miter;stroke-opacity:1"/>
<path class="bond-12 atom-11 atom-13" d="M 201.2,114.4 L 196.0,146.6" style="fill:none;fill-rule:evenodd;stroke:#000000;stroke-width:2.0px;stroke-linecap:butt;stroke-linejoin:miter;stroke-opacity:1"/>
<path class="bond-13 atom-13 atom-14" d="M 196.0,146.6 L 206.0,154.7" style="fill:none;fill-rule:evenodd;stroke:#000000;stroke-width:2.0px;stroke-linecap:butt;stroke-linejoin:miter;stroke-opacity:1"/>
<path class="bond-13 atom-13 atom-14" d="M 206.0,154.7 L 216.1,162.9" style="fill:none;fill-rule:evenodd;stroke:#FF0000;stroke-width:2.0px;stroke-linecap:butt;stroke-linejoin:miter;stroke-opacity:1"/>
<path class="bond-14 atom-11 atom-15" d="M 201.2,114.4 L 206.4,82.1" style="fill:none;fill-rule:evenodd;stroke:#000000;stroke-width:2.0px;stroke-linecap:butt;stroke-linejoin:miter;stroke-opacity:1"/>
<path class="bond-15 atom-15 atom-16" d="M 206.4,82.1 L 236.9,70.5" style="fill:none;fill-rule:evenodd;stroke:#000000;stroke-width:2.0px;stroke-linecap:butt;stroke-linejoin:miter;stroke-opacity:1"/>
<path class="bond-16 atom-16 atom-17" d="M 236.9,70.5 L 267.4,58.9" style="fill:none;fill-rule:evenodd;stroke:#000000;stroke-width:2.0px;stroke-linecap:butt;stroke-linejoin:miter;stroke-opacity:1"/>
<path class="bond-17 atom-16 atom-18" d="M 236.9,70.5 L 225.2,40.0" style="fill:none;fill-rule:evenodd;stroke:#000000;stroke-width:2.0px;stroke-linecap:butt;stroke-linejoin:miter;stroke-opacity:1"/>
<path class="bond-18 atom-18 atom-19" d="M 226.9,37.9 L 212.8,35.7" style="fill:none;fill-rule:evenodd;stroke:#000000;stroke-width:2.0px;stroke-linecap:butt;stroke-linejoin:miter;stroke-opacity:1"/>
<path class="bond-18 atom-18 atom-19" d="M 212.8,35.7 L 198.6,33.4" style="fill:none;fill-rule:evenodd;stroke:#FF0000;stroke-width:2.0px;stroke-linecap:butt;stroke-linejoin:miter;stroke-opacity:1"/>
<path class="bond-18 atom-18 atom-19" d="M 226.2,42.5 L 212.1,40.2" style="fill:none;fill-rule:evenodd;stroke:#000000;stroke-width:2.0px;stroke-linecap:butt;stroke-linejoin:miter;stroke-opacity:1"/>
<path class="bond-18 atom-18 atom-19" d="M 212.1,40.2 L 197.9,37.9" style="fill:none;fill-rule:evenodd;stroke:#FF0000;stroke-width:2.0px;stroke-linecap:butt;stroke-linejoin:miter;stroke-opacity:1"/>
<path class="bond-19 atom-18 atom-20" d="M 225.2,40.0 L 233.2,30.3" style="fill:none;fill-rule:evenodd;stroke:#000000;stroke-width:2.0px;stroke-linecap:butt;stroke-linejoin:miter;stroke-opacity:1"/>
<path class="bond-19 atom-18 atom-20" d="M 233.2,30.3 L 241.1,20.5" style="fill:none;fill-rule:evenodd;stroke:#FF0000;stroke-width:2.0px;stroke-linecap:butt;stroke-linejoin:miter;stroke-opacity:1"/>
<path class="bond-20 atom-16 atom-21" d="M 236.9,70.5 L 248.5,101.0" style="fill:none;fill-rule:evenodd;stroke:#000000;stroke-width:2.0px;stroke-linecap:butt;stroke-linejoin:miter;stroke-opacity:1"/>
<path class="bond-21 atom-21 atom-22" d="M 248.5,101.0 L 237.1,119.1" style="fill:none;fill-rule:evenodd;stroke:#000000;stroke-width:2.0px;stroke-linecap:butt;stroke-linejoin:miter;stroke-opacity:1"/>
<path class="bond-22 atom-21 atom-23" d="M 248.5,101.0 L 262.0,103.2" style="fill:none;fill-rule:evenodd;stroke:#000000;stroke-width:2.0px;stroke-linecap:butt;stroke-linejoin:miter;stroke-opacity:1"/>
<path class="bond-22 atom-21 atom-23" d="M 262.0,103.2 L 275.5,105.3" style="fill:none;fill-rule:evenodd;stroke:#FF0000;stroke-width:2.0px;stroke-linecap:butt;stroke-linejoin:miter;stroke-opacity:1"/>
<path class="bond-23 atom-3 atom-24" d="M 72.3,93.6 L 97.6,114.2" style="fill:none;fill-rule:evenodd;stroke:#000000;stroke-width:2.0px;stroke-linecap:butt;stroke-linejoin:miter;stroke-opacity:1"/>
<path class="bond-24 atom-24 atom-25" d="M 97.2,116.7 L 104.4,114.9" style="fill:none;fill-rule:evenodd;stroke:#000000;stroke-width:2.0px;stroke-linecap:butt;stroke-linejoin:miter;stroke-opacity:1"/>
<path class="bond-24 atom-24 atom-25" d="M 104.4,114.9 L 111.6,113.1" style="fill:none;fill-rule:evenodd;stroke:#FF0000;stroke-width:2.0px;stroke-linecap:butt;stroke-linejoin:miter;stroke-opacity:1"/>
<path class="bond-24 atom-24 atom-25" d="M 95.4,112.4 L 103.3,110.4" style="fill:none;fill-rule:evenodd;stroke:#000000;stroke-width:2.0px;stroke-linecap:butt;stroke-linejoin:miter;stroke-opacity:1"/>
<path class="bond-24 atom-24 atom-25" d="M 103.3,110.4 L 110.5,108.7" style="fill:none;fill-rule:evenodd;stroke:#FF0000;stroke-width:2.0px;stroke-linecap:butt;stroke-linejoin:miter;stroke-opacity:1"/>
<path class="bond-25 atom-24 atom-26" d="M 97.6,114.2 L 95.5,127.5" style="fill:none;fill-rule:evenodd;stroke:#000000;stroke-width:2.0px;stroke-linecap:butt;stroke-linejoin:miter;stroke-opacity:1"/>
<path class="bond-25 atom-24 atom-26" d="M 95.5,127.5 L 93.3,140.8" style="fill:none;fill-rule:evenodd;stroke:#FF0000;stroke-width:2.0px;stroke-linecap:butt;stroke-linejoin:miter;stroke-opacity:1"/>
<path d="M 91.8,69.6 L 92.9,68.3 L 94.5,68.6" style="fill:none;stroke:#000000;stroke-width:2.0px;stroke-linecap:butt;stroke-linejoin:miter;stroke-opacity:1;"/>
<path d="M 155.7,78.4 L 157.3,78.7 L 157.9,80.2" style="fill:none;stroke:#000000;stroke-width:2.0px;stroke-linecap:butt;stroke-linejoin:miter;stroke-opacity:1;"/>
<path d="M 168.4,107.6 L 169.0,109.2 L 170.6,109.4" style="fill:none;stroke:#000000;stroke-width:2.0px;stroke-linecap:butt;stroke-linejoin:miter;stroke-opacity:1;"/>
<path d="M 196.3,145.0 L 196.0,146.6 L 196.5,147.0" style="fill:none;stroke:#000000;stroke-width:2.0px;stroke-linecap:butt;stroke-linejoin:miter;stroke-opacity:1;"/>
<path d="M 206.1,83.7 L 206.4,82.1 L 207.9,81.5" style="fill:none;stroke:#000000;stroke-width:2.0px;stroke-linecap:butt;stroke-linejoin:miter;stroke-opacity:1;"/>
<path d="M 225.8,41.5 L 225.2,40.0 L 225.6,39.5" style="fill:none;stroke:#000000;stroke-width:2.0px;stroke-linecap:butt;stroke-linejoin:miter;stroke-opacity:1;"/>
<path d="M 96.3,113.2 L 97.6,114.2 L 97.5,114.9" style="fill:none;stroke:#000000;stroke-width:2.0px;stroke-linecap:butt;stroke-linejoin:miter;stroke-opacity:1;"/>
<path class="atom-2" d="M 47.9 40.8 Q 47.9 38.6, 49.0 37.4 Q 50.1 36.1, 52.1 36.1 Q 54.2 36.1, 55.3 37.4 Q 56.4 38.6, 56.4 40.8 Q 56.4 43.1, 55.3 44.4 Q 54.2 45.6, 52.1 45.6 Q 50.1 45.6, 49.0 44.4 Q 47.9 43.1, 47.9 40.8 M 52.1 44.6 Q 53.5 44.6, 54.3 43.6 Q 55.1 42.7, 55.1 40.8 Q 55.1 39.0, 54.3 38.1 Q 53.5 37.2, 52.1 37.2 Q 50.7 37.2, 50.0 38.1 Q 49.2 39.0, 49.2 40.8 Q 49.2 42.7, 50.0 43.6 Q 50.7 44.6, 52.1 44.6 " fill="#FF0000"/>
<path class="atom-2" d="M 57.8 36.2 L 59.1 36.2 L 59.1 40.2 L 63.8 40.2 L 63.8 36.2 L 65.1 36.2 L 65.1 45.5 L 63.8 45.5 L 63.8 41.2 L 59.1 41.2 L 59.1 45.5 L 57.8 45.5 L 57.8 36.2 " fill="#FF0000"/>
<path class="atom-14" d="M 217.1 167.2 Q 217.1 165.0, 218.2 163.7 Q 219.3 162.5, 221.3 162.5 Q 223.4 162.5, 224.5 163.7 Q 225.6 165.0, 225.6 167.2 Q 225.6 169.5, 224.5 170.7 Q 223.4 172.0, 221.3 172.0 Q 219.3 172.0, 218.2 170.7 Q 217.1 169.5, 217.1 167.2 M 221.3 171.0 Q 222.7 171.0, 223.5 170.0 Q 224.3 169.1, 224.3 167.2 Q 224.3 165.4, 223.5 164.5 Q 222.7 163.6, 221.3 163.6 Q 219.9 163.6, 219.2 164.5 Q 218.4 165.4, 218.4 167.2 Q 218.4 169.1, 219.2 170.0 Q 219.9 171.0, 221.3 171.0 " fill="#FF0000"/>
<path class="atom-14" d="M 227.0 162.6 L 228.3 162.6 L 228.3 166.5 L 233.0 166.5 L 233.0 162.6 L 234.2 162.6 L 234.2 171.9 L 233.0 171.9 L 233.0 167.6 L 228.3 167.6 L 228.3 171.9 L 227.0 171.9 L 227.0 162.6 " fill="#FF0000"/>
<path class="atom-19" d="M 188.8 34.8 Q 188.8 32.6, 189.9 31.4 Q 191.0 30.1, 193.0 30.1 Q 195.1 30.1, 196.2 31.4 Q 197.3 32.6, 197.3 34.8 Q 197.3 37.1, 196.2 38.4 Q 195.0 39.6, 193.0 39.6 Q 191.0 39.6, 189.9 38.4 Q 188.8 37.1, 188.8 34.8 M 193.0 38.6 Q 194.4 38.6, 195.2 37.6 Q 196.0 36.7, 196.0 34.8 Q 196.0 33.0, 195.2 32.1 Q 194.4 31.2, 193.0 31.2 Q 191.6 31.2, 190.8 32.1 Q 190.1 33.0, 190.1 34.8 Q 190.1 36.7, 190.8 37.6 Q 191.6 38.6, 193.0 38.6 " fill="#FF0000"/>
<path class="atom-20" d="M 241.6 14.7 Q 241.6 12.5, 242.7 11.2 Q 243.8 10.0, 245.8 10.0 Q 247.9 10.0, 249.0 11.2 Q 250.1 12.5, 250.1 14.7 Q 250.1 16.9, 249.0 18.2 Q 247.9 19.5, 245.8 19.5 Q 243.8 19.5, 242.7 18.2 Q 241.6 17.0, 241.6 14.7 M 245.8 18.4 Q 247.3 18.4, 248.0 17.5 Q 248.8 16.6, 248.8 14.7 Q 248.8 12.9, 248.0 12.0 Q 247.3 11.0, 245.8 11.0 Q 244.4 11.0, 243.7 12.0 Q 242.9 12.9, 242.9 14.7 Q 242.9 16.6, 243.7 17.5 Q 244.4 18.4, 245.8 18.4 " fill="#FF0000"/>
<path class="atom-20" d="M 251.5 10.1 L 252.8 10.1 L 252.8 14.0 L 257.5 14.0 L 257.5 10.1 L 258.8 10.1 L 258.8 19.3 L 257.5 19.3 L 257.5 15.1 L 252.8 15.1 L 252.8 19.3 L 251.5 19.3 L 251.5 10.1 " fill="#FF0000"/>
<path class="atom-23" d="M 276.5 106.2 Q 276.5 104.0, 277.6 102.7 Q 278.7 101.5, 280.7 101.5 Q 282.8 101.5, 283.9 102.7 Q 285.0 104.0, 285.0 106.2 Q 285.0 108.4, 283.9 109.7 Q 282.8 111.0, 280.7 111.0 Q 278.7 111.0, 277.6 109.7 Q 276.5 108.5, 276.5 106.2 M 280.7 110.0 Q 282.1 110.0, 282.9 109.0 Q 283.7 108.1, 283.7 106.2 Q 283.7 104.4, 282.9 103.5 Q 282.1 102.5, 280.7 102.5 Q 279.3 102.5, 278.5 103.5 Q 277.8 104.4, 277.8 106.2 Q 277.8 108.1, 278.5 109.0 Q 279.3 110.0, 280.7 110.0 " fill="#FF0000"/>
<path class="atom-23" d="M 286.4 101.6 L 287.7 101.6 L 287.7 105.5 L 292.4 105.5 L 292.4 101.6 L 293.6 101.6 L 293.6 110.9 L 292.4 110.9 L 292.4 106.6 L 287.7 106.6 L 287.7 110.9 L 286.4 110.9 L 286.4 101.6 " fill="#FF0000"/>
<path class="atom-25" d="M 112.1 109.6 Q 112.1 107.4, 113.2 106.2 Q 114.3 104.9, 116.3 104.9 Q 118.4 104.9, 119.5 106.2 Q 120.6 107.4, 120.6 109.6 Q 120.6 111.9, 119.4 113.2 Q 118.3 114.4, 116.3 114.4 Q 114.3 114.4, 113.2 113.2 Q 112.1 111.9, 112.1 109.6 M 116.3 113.4 Q 117.7 113.4, 118.5 112.4 Q 119.2 111.5, 119.2 109.6 Q 119.2 107.8, 118.5 106.9 Q 117.7 106.0, 116.3 106.0 Q 114.9 106.0, 114.1 106.9 Q 113.4 107.8, 113.4 109.6 Q 113.4 111.5, 114.1 112.4 Q 114.9 113.4, 116.3 113.4 " fill="#FF0000"/>
<path class="atom-26" d="M 88.2 146.5 Q 88.2 144.3, 89.3 143.0 Q 90.4 141.8, 92.4 141.8 Q 94.5 141.8, 95.6 143.0 Q 96.7 144.3, 96.7 146.5 Q 96.7 148.7, 95.6 150.0 Q 94.4 151.3, 92.4 151.3 Q 90.4 151.3, 89.3 150.0 Q 88.2 148.7, 88.2 146.5 M 92.4 150.2 Q 93.8 150.2, 94.6 149.3 Q 95.4 148.3, 95.4 146.5 Q 95.4 144.7, 94.6 143.8 Q 93.8 142.8, 92.4 142.8 Q 91.0 142.8, 90.2 143.7 Q 89.5 144.7, 89.5 146.5 Q 89.5 148.4, 90.2 149.3 Q 91.0 150.2, 92.4 150.2 " fill="#FF0000"/>
<path class="atom-26" d="M 98.1 141.9 L 99.4 141.9 L 99.4 145.8 L 104.1 145.8 L 104.1 141.9 L 105.3 141.9 L 105.3 151.1 L 104.1 151.1 L 104.1 146.9 L 99.4 146.9 L 99.4 151.1 L 98.1 151.1 L 98.1 141.9 " fill="#FF0000"/>
<path class="legend" d="M 146.0 181.9 Q 146.0 179.6, 146.7 177.7 Q 147.4 175.8, 148.7 173.8 L 149.6 174.4 Q 148.5 176.3, 148.0 178.0 Q 147.5 179.7, 147.5 181.9 Q 147.5 184.0, 148.0 185.8 Q 148.5 187.5, 149.6 189.4 L 148.7 190.0 Q 147.4 188.0, 146.7 186.1 Q 146.0 184.2, 146.0 181.9 " fill="#000000"/>
<path class="legend" d="M 150.5 177.3 Q 150.9 176.2, 151.9 175.6 Q 152.9 175.0, 154.3 175.0 Q 156.0 175.0, 156.9 175.9 Q 157.9 176.8, 157.9 178.5 Q 157.9 180.2, 156.6 181.7 Q 155.4 183.3, 152.9 185.2 L 158.1 185.2 L 158.1 186.4 L 150.5 186.4 L 150.5 185.4 Q 152.6 183.9, 153.8 182.8 Q 155.1 181.6, 155.7 180.6 Q 156.3 179.6, 156.3 178.6 Q 156.3 177.5, 155.8 176.9 Q 155.2 176.3, 154.3 176.3 Q 153.3 176.3, 152.7 176.6 Q 152.1 177.0, 151.7 177.8 L 150.5 177.3 " fill="#000000"/>
<path class="legend" d="M 163.1 181.9 Q 163.1 184.2, 162.4 186.1 Q 161.7 188.0, 160.4 190.0 L 159.5 189.4 Q 160.6 187.5, 161.1 185.8 Q 161.6 184.0, 161.6 181.9 Q 161.6 179.7, 161.1 178.0 Q 160.6 176.3, 159.5 174.4 L 160.4 173.8 Q 161.7 175.8, 162.4 177.7 Q 163.1 179.6, 163.1 181.9 " fill="#000000"/>
</g>
    <g transform="translate(311.0, 0) scale(1 1) "><line x1="5" y1="100" x2="35" y2="100" style="stroke:rgb(0,0,0);stroke-width:2"/>
  <line x1="34" y1="100" x2="29" y2="95" style="stroke:rgb(0,0,0);stroke-width:2"/>
  <line x1="34" y1="100" x2="29" y2="105" style="stroke:rgb(0,0,0);stroke-width:2"/>
</g>
    <g transform="translate(351.0, 0) scale(1 1) "><!-- END OF HEADER -->
<rect style="opacity:1.0;fill:#FFFFFF;stroke:none" width="355.0" height="200.0" x="0.0" y="0.0"> </rect>
<path class="bond-0 atom-0 atom-1" d="M 38.1,41.6 L 62.4,40.7" style="fill:none;fill-rule:evenodd;stroke:#000000;stroke-width:2.0px;stroke-linecap:butt;stroke-linejoin:miter;stroke-opacity:1"/>
<path class="bond-1 atom-1 atom-2" d="M 62.4,40.7 L 67.0,32.2" style="fill:none;fill-rule:evenodd;stroke:#000000;stroke-width:2.0px;stroke-linecap:butt;stroke-linejoin:miter;stroke-opacity:1"/>
<path class="bond-1 atom-1 atom-2" d="M 67.0,32.2 L 71.5,23.6" style="fill:none;fill-rule:evenodd;stroke:#FF0000;stroke-width:2.0px;stroke-linecap:butt;stroke-linejoin:miter;stroke-opacity:1"/>
<path class="bond-2 atom-1 atom-3" d="M 62.4,40.7 L 75.3,61.4" style="fill:none;fill-rule:evenodd;stroke:#000000;stroke-width:2.0px;stroke-linecap:butt;stroke-linejoin:miter;stroke-opacity:1"/>
<path class="bond-3 atom-3 atom-4" d="M 75.3,61.4 L 54.7,74.2" style="fill:none;fill-rule:evenodd;stroke:#000000;stroke-width:2.0px;stroke-linecap:butt;stroke-linejoin:miter;stroke-opacity:1"/>
<path class="bond-4 atom-3 atom-5" d="M 75.3,61.4 L 96.0,48.5" style="fill:none;fill-rule:evenodd;stroke:#000000;stroke-width:2.0px;stroke-linecap:butt;stroke-linejoin:miter;stroke-opacity:1"/>
<path class="bond-5 atom-5 atom-6" d="M 96.0,48.5 L 117.4,59.9" style="fill:none;fill-rule:evenodd;stroke:#000000;stroke-width:2.0px;stroke-linecap:butt;stroke-linejoin:miter;stroke-opacity:1"/>
<path class="bond-6 atom-6 atom-7" d="M 117.4,59.9 L 128.9,38.4" style="fill:none;fill-rule:evenodd;stroke:#000000;stroke-width:2.0px;stroke-linecap:butt;stroke-linejoin:miter;stroke-opacity:1"/>
<path class="bond-7 atom-6 atom-8" d="M 117.4,59.9 L 108.7,82.6" style="fill:none;fill-rule:evenodd;stroke:#000000;stroke-width:2.0px;stroke-linecap:butt;stroke-linejoin:miter;stroke-opacity:1"/>
<path class="bond-8 atom-6 atom-9" d="M 117.4,59.9 L 138.9,71.4" style="fill:none;fill-rule:evenodd;stroke:#000000;stroke-width:2.0px;stroke-linecap:butt;stroke-linejoin:miter;stroke-opacity:1"/>
<path class="bond-9 atom-9 atom-10" d="M 138.9,71.4 L 139.7,95.7" style="fill:none;fill-rule:evenodd;stroke:#000000;stroke-width:2.0px;stroke-linecap:butt;stroke-linejoin:miter;stroke-opacity:1"/>
<path class="bond-10 atom-10 atom-11" d="M 139.7,95.7 L 161.2,107.1" style="fill:none;fill-rule:evenodd;stroke:#000000;stroke-width:2.0px;stroke-linecap:butt;stroke-linejoin:miter;stroke-opacity:1"/>
<path class="bond-11 atom-11 atom-12" d="M 161.2,107.1 L 172.6,85.6" style="fill:none;fill-rule:evenodd;stroke:#000000;stroke-width:2.0px;stroke-linecap:butt;stroke-linejoin:miter;stroke-opacity:1"/>
<path class="bond-12 atom-12 atom-13" d="M 172.6,85.6 L 167.6,77.5" style="fill:none;fill-rule:evenodd;stroke:#000000;stroke-width:2.0px;stroke-linecap:butt;stroke-linejoin:miter;stroke-opacity:1"/>
<path class="bond-12 atom-12 atom-13" d="M 167.6,77.5 L 162.5,69.4" style="fill:none;fill-rule:evenodd;stroke:#FF0000;stroke-width:2.0px;stroke-linecap:butt;stroke-linejoin:miter;stroke-opacity:1"/>
<path class="bond-13 atom-11 atom-14" d="M 161.2,107.1 L 182.7,118.5" style="fill:none;fill-rule:evenodd;stroke:#000000;stroke-width:2.0px;stroke-linecap:butt;stroke-linejoin:miter;stroke-opacity:1"/>
<path class="bond-14 atom-14 atom-15" d="M 182.7,118.5 L 203.3,105.7" style="fill:none;fill-rule:evenodd;stroke:#000000;stroke-width:2.0px;stroke-linecap:butt;stroke-linejoin:miter;stroke-opacity:1"/>
<path class="bond-15 atom-15 atom-16" d="M 203.3,105.7 L 216.2,126.3" style="fill:none;fill-rule:evenodd;stroke:#000000;stroke-width:2.0px;stroke-linecap:butt;stroke-linejoin:miter;stroke-opacity:1"/>
<path class="bond-16 atom-15 atom-17" d="M 203.3,105.7 L 190.4,85.0" style="fill:none;fill-rule:evenodd;stroke:#000000;stroke-width:2.0px;stroke-linecap:butt;stroke-linejoin:miter;stroke-opacity:1"/>
<path class="bond-17 atom-15 atom-18" d="M 203.3,105.7 L 224.0,92.8" style="fill:none;fill-rule:evenodd;stroke:#000000;stroke-width:2.0px;stroke-linecap:butt;stroke-linejoin:miter;stroke-opacity:1"/>
<path class="bond-18 atom-18 atom-19" d="M 224.0,92.8 L 245.4,104.2" style="fill:none;fill-rule:evenodd;stroke:#000000;stroke-width:2.0px;stroke-linecap:butt;stroke-linejoin:miter;stroke-opacity:1"/>
<path class="bond-19 atom-19 atom-20" d="M 245.4,104.2 L 266.1,91.3" style="fill:none;fill-rule:evenodd;stroke:#000000;stroke-width:2.0px;stroke-linecap:butt;stroke-linejoin:miter;stroke-opacity:1"/>
<path class="bond-20 atom-20 atom-21" d="M 266.1,91.3 L 280.5,84.6" style="fill:none;fill-rule:evenodd;stroke:#000000;stroke-width:2.0px;stroke-linecap:butt;stroke-linejoin:miter;stroke-opacity:1"/>
<path class="bond-21 atom-20 atom-22" d="M 266.1,91.3 L 279.0,112.0" style="fill:none;fill-rule:evenodd;stroke:#000000;stroke-width:2.0px;stroke-linecap:butt;stroke-linejoin:miter;stroke-opacity:1"/>
<path class="bond-22 atom-22 atom-23" d="M 279.0,112.0 L 289.1,111.6" style="fill:none;fill-rule:evenodd;stroke:#000000;stroke-width:2.0px;stroke-linecap:butt;stroke-linejoin:miter;stroke-opacity:1"/>
<path class="bond-22 atom-22 atom-23" d="M 289.1,111.6 L 299.3,111.3" style="fill:none;fill-rule:evenodd;stroke:#FF0000;stroke-width:2.0px;stroke-linecap:butt;stroke-linejoin:miter;stroke-opacity:1"/>
<path class="bond-23 atom-20 atom-24" d="M 266.1,91.3 L 253.2,70.7" style="fill:none;fill-rule:evenodd;stroke:#000000;stroke-width:2.0px;stroke-linecap:butt;stroke-linejoin:miter;stroke-opacity:1"/>
<path class="bond-24 atom-24 atom-25" d="M 253.2,70.7 L 264.6,49.2" style="fill:none;fill-rule:evenodd;stroke:#000000;stroke-width:2.0px;stroke-linecap:butt;stroke-linejoin:miter;stroke-opacity:1"/>
<path class="bond-25 atom-25 atom-26" d="M 264.6,49.2 L 276.1,27.8" style="fill:none;fill-rule:evenodd;stroke:#000000;stroke-width:2.0px;stroke-linecap:butt;stroke-linejoin:miter;stroke-opacity:1"/>
<path class="bond-26 atom-25 atom-27" d="M 264.6,49.2 L 243.2,37.8" style="fill:none;fill-rule:evenodd;stroke:#000000;stroke-width:2.0px;stroke-linecap:butt;stroke-linejoin:miter;stroke-opacity:1"/>
<path class="bond-27 atom-27 atom-28" d="M 243.1,35.7 L 234.3,41.2" style="fill:none;fill-rule:evenodd;stroke:#000000;stroke-width:2.0px;stroke-linecap:butt;stroke-linejoin:miter;stroke-opacity:1"/>
<path class="bond-27 atom-27 atom-28" d="M 234.3,41.2 L 225.5,46.7" style="fill:none;fill-rule:evenodd;stroke:#FF0000;stroke-width:2.0px;stroke-linecap:butt;stroke-linejoin:miter;stroke-opacity:1"/>
<path class="bond-27 atom-27 atom-28" d="M 245.0,38.8 L 236.2,44.2" style="fill:none;fill-rule:evenodd;stroke:#000000;stroke-width:2.0px;stroke-linecap:butt;stroke-linejoin:miter;stroke-opacity:1"/>
<path class="bond-27 atom-27 atom-28" d="M 236.2,44.2 L 227.4,49.7" style="fill:none;fill-rule:evenodd;stroke:#FF0000;stroke-width:2.0px;stroke-linecap:butt;stroke-linejoin:miter;stroke-opacity:1"/>
<path class="bond-28 atom-27 atom-29" d="M 243.2,37.8 L 242.8,27.8" style="fill:none;fill-rule:evenodd;stroke:#000000;stroke-width:2.0px;stroke-linecap:butt;stroke-linejoin:miter;stroke-opacity:1"/>
<path class="bond-28 atom-27 atom-29" d="M 242.8,27.8 L 242.5,17.9" style="fill:none;fill-rule:evenodd;stroke:#FF0000;stroke-width:2.0px;stroke-linecap:butt;stroke-linejoin:miter;stroke-opacity:1"/>
<path class="bond-29 atom-25 atom-30" d="M 264.6,49.2 L 286.1,60.7" style="fill:none;fill-rule:evenodd;stroke:#000000;stroke-width:2.0px;stroke-linecap:butt;stroke-linejoin:miter;stroke-opacity:1"/>
<path class="bond-30 atom-30 atom-31" d="M 286.1,60.7 L 288.6,76.4" style="fill:none;fill-rule:evenodd;stroke:#000000;stroke-width:2.0px;stroke-linecap:butt;stroke-linejoin:miter;stroke-opacity:1"/>
<path class="bond-31 atom-30 atom-32" d="M 286.1,60.7 L 294.5,55.5" style="fill:none;fill-rule:evenodd;stroke:#000000;stroke-width:2.0px;stroke-linecap:butt;stroke-linejoin:miter;stroke-opacity:1"/>
<path class="bond-31 atom-30 atom-32" d="M 294.5,55.5 L 302.8,50.3" style="fill:none;fill-rule:evenodd;stroke:#FF0000;stroke-width:2.0px;stroke-linecap:butt;stroke-linejoin:miter;stroke-opacity:1"/>
<path class="bond-32 atom-11 atom-33" d="M 161.2,107.1 L 149.8,128.6" style="fill:none;fill-rule:evenodd;stroke:#000000;stroke-width:2.0px;stroke-linecap:butt;stroke-linejoin:miter;stroke-opacity:1"/>
<path class="bond-33 atom-33 atom-34" d="M 149.8,128.6 L 162.6,149.2" style="fill:none;fill-rule:evenodd;stroke:#000000;stroke-width:2.0px;stroke-linecap:butt;stroke-linejoin:miter;stroke-opacity:1"/>
<path class="bond-34 atom-34 atom-35" d="M 162.6,149.2 L 175.5,169.9" style="fill:none;fill-rule:evenodd;stroke:#000000;stroke-width:2.0px;stroke-linecap:butt;stroke-linejoin:miter;stroke-opacity:1"/>
<path class="bond-35 atom-34 atom-36" d="M 162.6,149.2 L 142.0,162.1" style="fill:none;fill-rule:evenodd;stroke:#000000;stroke-width:2.0px;stroke-linecap:butt;stroke-linejoin:miter;stroke-opacity:1"/>
<path class="bond-36 atom-36 atom-37" d="M 143.8,161.0 L 134.5,156.1" style="fill:none;fill-rule:evenodd;stroke:#000000;stroke-width:2.0px;stroke-linecap:butt;stroke-linejoin:miter;stroke-opacity:1"/>
<path class="bond-36 atom-36 atom-37" d="M 134.5,156.1 L 125.3,151.2" style="fill:none;fill-rule:evenodd;stroke:#FF0000;stroke-width:2.0px;stroke-linecap:butt;stroke-linejoin:miter;stroke-opacity:1"/>
<path class="bond-36 atom-36 atom-37" d="M 142.1,164.1 L 132.9,159.2" style="fill:none;fill-rule:evenodd;stroke:#000000;stroke-width:2.0px;stroke-linecap:butt;stroke-linejoin:miter;stroke-opacity:1"/>
<path class="bond-36 atom-36 atom-37" d="M 132.9,159.2 L 123.6,154.3" style="fill:none;fill-rule:evenodd;stroke:#FF0000;stroke-width:2.0px;stroke-linecap:butt;stroke-linejoin:miter;stroke-opacity:1"/>
<path class="bond-37 atom-36 atom-38" d="M 142.0,162.1 L 142.4,172.1" style="fill:none;fill-rule:evenodd;stroke:#000000;stroke-width:2.0px;stroke-linecap:butt;stroke-linejoin:miter;stroke-opacity:1"/>
<path class="bond-37 atom-36 atom-38" d="M 142.4,172.1 L 142.7,182.1" style="fill:none;fill-rule:evenodd;stroke:#FF0000;stroke-width:2.0px;stroke-linecap:butt;stroke-linejoin:miter;stroke-opacity:1"/>
<path class="bond-38 atom-34 atom-39" d="M 162.6,149.2 L 183.3,136.3" style="fill:none;fill-rule:evenodd;stroke:#000000;stroke-width:2.0px;stroke-linecap:butt;stroke-linejoin:miter;stroke-opacity:1"/>
<path class="bond-39 atom-39 atom-40" d="M 183.3,136.3 L 204.8,147.8" style="fill:none;fill-rule:evenodd;stroke:#000000;stroke-width:2.0px;stroke-linecap:butt;stroke-linejoin:miter;stroke-opacity:1"/>
<path class="bond-40 atom-39 atom-41" d="M 183.3,136.3 L 184.2,132.2" style="fill:none;fill-rule:evenodd;stroke:#000000;stroke-width:2.0px;stroke-linecap:butt;stroke-linejoin:miter;stroke-opacity:1"/>
<path class="bond-40 atom-39 atom-41" d="M 184.2,132.2 L 185.1,128.1" style="fill:none;fill-rule:evenodd;stroke:#FF0000;stroke-width:2.0px;stroke-linecap:butt;stroke-linejoin:miter;stroke-opacity:1"/>
<path class="bond-41 atom-3 atom-42" d="M 75.3,61.4 L 88.2,82.0" style="fill:none;fill-rule:evenodd;stroke:#000000;stroke-width:2.0px;stroke-linecap:butt;stroke-linejoin:miter;stroke-opacity:1"/>
<path class="bond-42 atom-42 atom-43" d="M 87.3,83.7 L 97.8,84.6" style="fill:none;fill-rule:evenodd;stroke:#000000;stroke-width:2.0px;stroke-linecap:butt;stroke-linejoin:miter;stroke-opacity:1"/>
<path class="bond-42 atom-42 atom-43" d="M 97.8,84.6 L 108.3,85.6" style="fill:none;fill-rule:evenodd;stroke:#FF0000;stroke-width:2.0px;stroke-linecap:butt;stroke-linejoin:miter;stroke-opacity:1"/>
<path class="bond-42 atom-42 atom-43" d="M 87.0,80.1 L 98.1,81.1" style="fill:none;fill-rule:evenodd;stroke:#000000;stroke-width:2.0px;stroke-linecap:butt;stroke-linejoin:miter;stroke-opacity:1"/>
<path class="bond-42 atom-42 atom-43" d="M 98.1,81.1 L 108.6,82.0" style="fill:none;fill-rule:evenodd;stroke:#FF0000;stroke-width:2.0px;stroke-linecap:butt;stroke-linejoin:miter;stroke-opacity:1"/>
<path class="bond-43 atom-42 atom-44" d="M 88.2,82.0 L 83.6,90.6" style="fill:none;fill-rule:evenodd;stroke:#000000;stroke-width:2.0px;stroke-linecap:butt;stroke-linejoin:miter;stroke-opacity:1"/>
<path class="bond-43 atom-42 atom-44" d="M 83.6,90.6 L 79.0,99.2" style="fill:none;fill-rule:evenodd;stroke:#FF0000;stroke-width:2.0px;stroke-linecap:butt;stroke-linejoin:miter;stroke-opacity:1"/>
<path d="M 94.9,49.1 L 96.0,48.5 L 97.0,49.1" style="fill:none;stroke:#000000;stroke-width:2.0px;stroke-linecap:butt;stroke-linejoin:miter;stroke-opacity:1;"/>
<path d="M 137.8,70.8 L 138.9,71.4 L 138.9,72.6" style="fill:none;stroke:#000000;stroke-width:2.0px;stroke-linecap:butt;stroke-linejoin:miter;stroke-opacity:1;"/>
<path d="M 139.7,94.5 L 139.7,95.7 L 140.8,96.2" style="fill:none;stroke:#000000;stroke-width:2.0px;stroke-linecap:butt;stroke-linejoin:miter;stroke-opacity:1;"/>
<path d="M 172.1,86.7 L 172.6,85.6 L 172.4,85.2" style="fill:none;stroke:#000000;stroke-width:2.0px;stroke-linecap:butt;stroke-linejoin:miter;stroke-opacity:1;"/>
<path d="M 181.6,118.0 L 182.7,118.5 L 183.7,117.9" style="fill:none;stroke:#000000;stroke-width:2.0px;stroke-linecap:butt;stroke-linejoin:miter;stroke-opacity:1;"/>
<path d="M 222.9,93.4 L 224.0,92.8 L 225.0,93.4" style="fill:none;stroke:#000000;stroke-width:2.0px;stroke-linecap:butt;stroke-linejoin:miter;stroke-opacity:1;"/>
<path d="M 244.4,103.7 L 245.4,104.2 L 246.5,103.6" style="fill:none;stroke:#000000;stroke-width:2.0px;stroke-linecap:butt;stroke-linejoin:miter;stroke-opacity:1;"/>
<path d="M 278.3,111.0 L 279.0,112.0 L 279.5,112.0" style="fill:none;stroke:#000000;stroke-width:2.0px;stroke-linecap:butt;stroke-linejoin:miter;stroke-opacity:1;"/>
<path d="M 253.8,71.7 L 253.2,70.7 L 253.8,69.6" style="fill:none;stroke:#000000;stroke-width:2.0px;stroke-linecap:butt;stroke-linejoin:miter;stroke-opacity:1;"/>
<path d="M 244.2,38.4 L 243.2,37.8 L 243.1,37.3" style="fill:none;stroke:#000000;stroke-width:2.0px;stroke-linecap:butt;stroke-linejoin:miter;stroke-opacity:1;"/>
<path d="M 150.3,127.5 L 149.8,128.6 L 150.4,129.6" style="fill:none;stroke:#000000;stroke-width:2.0px;stroke-linecap:butt;stroke-linejoin:miter;stroke-opacity:1;"/>
<path d="M 143.0,161.5 L 142.0,162.1 L 142.0,162.6" style="fill:none;stroke:#000000;stroke-width:2.0px;stroke-linecap:butt;stroke-linejoin:miter;stroke-opacity:1;"/>
<path d="M 87.6,81.0 L 88.2,82.0 L 88.0,82.4" style="fill:none;stroke:#000000;stroke-width:2.0px;stroke-linecap:butt;stroke-linejoin:miter;stroke-opacity:1;"/>
<path class="atom-2" d="M 70.7 19.3 Q 70.7 17.6, 71.5 16.7 Q 72.4 15.8, 73.9 15.8 Q 75.4 15.8, 76.2 16.7 Q 77.0 17.6, 77.0 19.3 Q 77.0 20.9, 76.2 21.9 Q 75.4 22.8, 73.9 22.8 Q 72.4 22.8, 71.5 21.9 Q 70.7 21.0, 70.7 19.3 M 73.9 22.1 Q 74.9 22.1, 75.5 21.4 Q 76.1 20.6, 76.1 19.3 Q 76.1 17.9, 75.5 17.2 Q 74.9 16.5, 73.9 16.5 Q 72.8 16.5, 72.3 17.2 Q 71.7 17.9, 71.7 19.3 Q 71.7 20.7, 72.3 21.4 Q 72.8 22.1, 73.9 22.1 " fill="#FF0000"/>
<path class="atom-2" d="M 78.1 15.8 L 79.0 15.8 L 79.0 18.8 L 82.6 18.8 L 82.6 15.8 L 83.5 15.8 L 83.5 22.7 L 82.6 22.7 L 82.6 19.5 L 79.0 19.5 L 79.0 22.7 L 78.1 22.7 L 78.1 15.8 " fill="#FF0000"/>
<path class="atom-13" d="M 149.8 61.6 L 150.7 61.6 L 150.7 64.5 L 154.3 64.5 L 154.3 61.6 L 155.2 61.6 L 155.2 68.5 L 154.3 68.5 L 154.3 65.3 L 150.7 65.3 L 150.7 68.5 L 149.8 68.5 L 149.8 61.6 " fill="#FF0000"/>
<path class="atom-13" d="M 156.6 65.0 Q 156.6 63.4, 157.4 62.4 Q 158.2 61.5, 159.8 61.5 Q 161.3 61.5, 162.1 62.4 Q 162.9 63.4, 162.9 65.0 Q 162.9 66.7, 162.1 67.6 Q 161.3 68.6, 159.8 68.6 Q 158.2 68.6, 157.4 67.6 Q 156.6 66.7, 156.6 65.0 M 159.8 67.8 Q 160.8 67.8, 161.4 67.1 Q 162.0 66.4, 162.0 65.0 Q 162.0 63.7, 161.4 63.0 Q 160.8 62.3, 159.8 62.3 Q 158.7 62.3, 158.1 63.0 Q 157.6 63.7, 157.6 65.0 Q 157.6 66.4, 158.1 67.1 Q 158.7 67.8, 159.8 67.8 " fill="#FF0000"/>
<path class="atom-23" d="M 300.1 111.2 Q 300.1 109.5, 300.9 108.6 Q 301.7 107.7, 303.3 107.7 Q 304.8 107.7, 305.6 108.6 Q 306.4 109.5, 306.4 111.2 Q 306.4 112.8, 305.6 113.8 Q 304.8 114.7, 303.3 114.7 Q 301.7 114.7, 300.9 113.8 Q 300.1 112.9, 300.1 111.2 M 303.3 114.0 Q 304.3 114.0, 304.9 113.3 Q 305.5 112.6, 305.5 111.2 Q 305.5 109.8, 304.9 109.1 Q 304.3 108.4, 303.3 108.4 Q 302.2 108.4, 301.6 109.1 Q 301.1 109.8, 301.1 111.2 Q 301.1 112.6, 301.6 113.3 Q 302.2 114.0, 303.3 114.0 " fill="#FF0000"/>
<path class="atom-23" d="M 307.5 107.7 L 308.4 107.7 L 308.4 110.7 L 312.0 110.7 L 312.0 107.7 L 312.9 107.7 L 312.9 114.6 L 312.0 114.6 L 312.0 111.5 L 308.4 111.5 L 308.4 114.6 L 307.5 114.6 L 307.5 107.7 " fill="#FF0000"/>
<path class="atom-28" d="M 219.4 50.7 Q 219.4 49.0, 220.2 48.1 Q 221.0 47.2, 222.5 47.2 Q 224.0 47.2, 224.9 48.1 Q 225.7 49.0, 225.7 50.7 Q 225.7 52.4, 224.9 53.3 Q 224.0 54.3, 222.5 54.3 Q 221.0 54.3, 220.2 53.3 Q 219.4 52.4, 219.4 50.7 M 222.5 53.5 Q 223.6 53.5, 224.1 52.8 Q 224.7 52.1, 224.7 50.7 Q 224.7 49.3, 224.1 48.7 Q 223.6 48.0, 222.5 48.0 Q 221.5 48.0, 220.9 48.7 Q 220.3 49.3, 220.3 50.7 Q 220.3 52.1, 220.9 52.8 Q 221.5 53.5, 222.5 53.5 " fill="#FF0000"/>
<path class="atom-29" d="M 239.2 13.5 Q 239.2 11.8, 240.0 10.9 Q 240.8 10.0, 242.3 10.0 Q 243.9 10.0, 244.7 10.9 Q 245.5 11.8, 245.5 13.5 Q 245.5 15.2, 244.7 16.1 Q 243.8 17.1, 242.3 17.1 Q 240.8 17.1, 240.0 16.1 Q 239.2 15.2, 239.2 13.5 M 242.3 16.3 Q 243.4 16.3, 243.9 15.6 Q 244.5 14.9, 244.5 13.5 Q 244.5 12.2, 243.9 11.5 Q 243.4 10.8, 242.3 10.8 Q 241.3 10.8, 240.7 11.5 Q 240.1 12.1, 240.1 13.5 Q 240.1 14.9, 240.7 15.6 Q 241.3 16.3, 242.3 16.3 " fill="#FF0000"/>
<path class="atom-29" d="M 246.6 10.1 L 247.5 10.1 L 247.5 13.0 L 251.0 13.0 L 251.0 10.1 L 252.0 10.1 L 252.0 17.0 L 251.0 17.0 L 251.0 13.8 L 247.5 13.8 L 247.5 17.0 L 246.6 17.0 L 246.6 10.1 " fill="#FF0000"/>
<path class="atom-32" d="M 303.6 47.8 Q 303.6 46.2, 304.4 45.2 Q 305.2 44.3, 306.7 44.3 Q 308.3 44.3, 309.1 45.2 Q 309.9 46.2, 309.9 47.8 Q 309.9 49.5, 309.1 50.4 Q 308.3 51.4, 306.7 51.4 Q 305.2 51.4, 304.4 50.4 Q 303.6 49.5, 303.6 47.8 M 306.7 50.6 Q 307.8 50.6, 308.4 49.9 Q 308.9 49.2, 308.9 47.8 Q 308.9 46.5, 308.4 45.8 Q 307.8 45.1, 306.7 45.1 Q 305.7 45.1, 305.1 45.8 Q 304.6 46.4, 304.6 47.8 Q 304.6 49.2, 305.1 49.9 Q 305.7 50.6, 306.7 50.6 " fill="#FF0000"/>
<path class="atom-32" d="M 311.0 44.4 L 311.9 44.4 L 311.9 47.3 L 315.4 47.3 L 315.4 44.4 L 316.4 44.4 L 316.4 51.3 L 315.4 51.3 L 315.4 48.1 L 311.9 48.1 L 311.9 51.3 L 311.0 51.3 L 311.0 44.4 " fill="#FF0000"/>
<path class="atom-37" d="M 117.4 150.7 Q 117.4 149.0, 118.2 148.1 Q 119.0 147.2, 120.5 147.2 Q 122.1 147.2, 122.9 148.1 Q 123.7 149.0, 123.7 150.7 Q 123.7 152.4, 122.9 153.3 Q 122.0 154.3, 120.5 154.3 Q 119.0 154.3, 118.2 153.3 Q 117.4 152.4, 117.4 150.7 M 120.5 153.5 Q 121.6 153.5, 122.2 152.8 Q 122.7 152.1, 122.7 150.7 Q 122.7 149.3, 122.2 148.6 Q 121.6 148.0, 120.5 148.0 Q 119.5 148.0, 118.9 148.6 Q 118.3 149.3, 118.3 150.7 Q 118.3 152.1, 118.9 152.8 Q 119.5 153.5, 120.5 153.5 " fill="#FF0000"/>
<path class="atom-38" d="M 139.7 186.4 Q 139.7 184.8, 140.5 183.8 Q 141.3 182.9, 142.8 182.9 Q 144.4 182.9, 145.2 183.8 Q 146.0 184.8, 146.0 186.4 Q 146.0 188.1, 145.2 189.1 Q 144.3 190.0, 142.8 190.0 Q 141.3 190.0, 140.5 189.1 Q 139.7 188.1, 139.7 186.4 M 142.8 189.2 Q 143.9 189.2, 144.5 188.5 Q 145.0 187.8, 145.0 186.4 Q 145.0 185.1, 144.5 184.4 Q 143.9 183.7, 142.8 183.7 Q 141.8 183.7, 141.2 184.4 Q 140.7 185.1, 140.7 186.4 Q 140.7 187.8, 141.2 188.5 Q 141.8 189.2, 142.8 189.2 " fill="#FF0000"/>
<path class="atom-38" d="M 147.1 183.0 L 148.0 183.0 L 148.0 185.9 L 151.5 185.9 L 151.5 183.0 L 152.5 183.0 L 152.5 189.9 L 151.5 189.9 L 151.5 186.7 L 148.0 186.7 L 148.0 189.9 L 147.1 189.9 L 147.1 183.0 " fill="#FF0000"/>
<path class="atom-41" d="M 182.8 123.7 Q 182.8 122.1, 183.6 121.1 Q 184.5 120.2, 186.0 120.2 Q 187.5 120.2, 188.3 121.1 Q 189.2 122.1, 189.2 123.7 Q 189.2 125.4, 188.3 126.3 Q 187.5 127.3, 186.0 127.3 Q 184.5 127.3, 183.6 126.3 Q 182.8 125.4, 182.8 123.7 M 186.0 126.5 Q 187.0 126.5, 187.6 125.8 Q 188.2 125.1, 188.2 123.7 Q 188.2 122.4, 187.6 121.7 Q 187.0 121.0, 186.0 121.0 Q 184.9 121.0, 184.4 121.7 Q 183.8 122.4, 183.8 123.7 Q 183.8 125.1, 184.4 125.8 Q 184.9 126.5, 186.0 126.5 " fill="#FF0000"/>
<path class="atom-41" d="M 190.2 120.3 L 191.2 120.3 L 191.2 123.2 L 194.7 123.2 L 194.7 120.3 L 195.6 120.3 L 195.6 127.2 L 194.7 127.2 L 194.7 124.0 L 191.2 124.0 L 191.2 127.2 L 190.2 127.2 L 190.2 120.3 " fill="#FF0000"/>
<path class="atom-43" d="M 109.3 84.2 Q 109.3 82.5, 110.1 81.6 Q 110.9 80.7, 112.4 80.7 Q 114.0 80.7, 114.8 81.6 Q 115.6 82.5, 115.6 84.2 Q 115.6 85.8, 114.8 86.8 Q 113.9 87.7, 112.4 87.7 Q 110.9 87.7, 110.1 86.8 Q 109.3 85.8, 109.3 84.2 M 112.4 87.0 Q 113.5 87.0, 114.0 86.3 Q 114.6 85.5, 114.6 84.2 Q 114.6 82.8, 114.0 82.1 Q 113.5 81.4, 112.4 81.4 Q 111.4 81.4, 110.8 82.1 Q 110.2 82.8, 110.2 84.2 Q 110.2 85.5, 110.8 86.3 Q 111.4 87.0, 112.4 87.0 " fill="#FF0000"/>
<path class="atom-44" d="M 66.8 100.1 L 67.7 100.1 L 67.7 103.0 L 71.3 103.0 L 71.3 100.1 L 72.2 100.1 L 72.2 107.0 L 71.3 107.0 L 71.3 103.8 L 67.7 103.8 L 67.7 107.0 L 66.8 107.0 L 66.8 100.1 " fill="#FF0000"/>
<path class="atom-44" d="M 73.6 103.5 Q 73.6 101.8, 74.4 100.9 Q 75.2 100.0, 76.8 100.0 Q 78.3 100.0, 79.1 100.9 Q 79.9 101.8, 79.9 103.5 Q 79.9 105.2, 79.1 106.1 Q 78.3 107.1, 76.8 107.1 Q 75.2 107.1, 74.4 106.1 Q 73.6 105.2, 73.6 103.5 M 76.8 106.3 Q 77.8 106.3, 78.4 105.6 Q 79.0 104.9, 79.0 103.5 Q 79.0 102.1, 78.4 101.5 Q 77.8 100.8, 76.8 100.8 Q 75.7 100.8, 75.1 101.4 Q 74.6 102.1, 74.6 103.5 Q 74.6 104.9, 75.1 105.6 Q 75.7 106.3, 76.8 106.3 " fill="#FF0000"/>
</g>
    <g transform="translate(706.0, 0) scale(1 1) "><line x1="15" y1="100" x2="25" y2="100" style="stroke:rgb(0,0,0);stroke-width:2"/>
  <line x1="20" y1="95" x2="20" y2="105" style="stroke:rgb(0,0,0);stroke-width:2"/>
</g>
    <g transform="translate(746.0, 0) scale(1 1) "><!-- END OF HEADER -->
<rect style="opacity:1.0;fill:#FFFFFF;stroke:none" width="215.0" height="200.0" x="0.0" y="0.0"> </rect>
<path class="bond-0 atom-0 atom-1" d="M 183.7,56.0 L 158.3,99.9" style="fill:none;fill-rule:evenodd;stroke:#000000;stroke-width:2.0px;stroke-linecap:butt;stroke-linejoin:miter;stroke-opacity:1"/>
<path class="bond-1 atom-1 atom-2" d="M 158.3,99.9 L 168.4,117.4" style="fill:none;fill-rule:evenodd;stroke:#000000;stroke-width:2.0px;stroke-linecap:butt;stroke-linejoin:miter;stroke-opacity:1"/>
<path class="bond-1 atom-1 atom-2" d="M 168.4,117.4 L 178.5,134.9" style="fill:none;fill-rule:evenodd;stroke:#FF0000;stroke-width:2.0px;stroke-linecap:butt;stroke-linejoin:miter;stroke-opacity:1"/>
<path class="bond-2 atom-1 atom-3" d="M 158.3,99.9 L 107.6,99.9" style="fill:none;fill-rule:evenodd;stroke:#000000;stroke-width:2.0px;stroke-linecap:butt;stroke-linejoin:miter;stroke-opacity:1"/>
<path class="bond-3 atom-3 atom-4" d="M 107.6,99.9 L 107.6,49.2" style="fill:none;fill-rule:evenodd;stroke:#000000;stroke-width:2.0px;stroke-linecap:butt;stroke-linejoin:miter;stroke-opacity:1"/>
<path class="bond-4 atom-3 atom-5" d="M 107.6,99.9 L 107.6,150.6" style="fill:none;fill-rule:evenodd;stroke:#000000;stroke-width:2.0px;stroke-linecap:butt;stroke-linejoin:miter;stroke-opacity:1"/>
<path class="bond-5 atom-3 atom-6" d="M 107.6,99.9 L 56.9,99.9" style="fill:none;fill-rule:evenodd;stroke:#000000;stroke-width:2.0px;stroke-linecap:butt;stroke-linejoin:miter;stroke-opacity:1"/>
<path class="bond-6 atom-6 atom-7" d="M 54.7,96.1 L 44.0,114.5" style="fill:none;fill-rule:evenodd;stroke:#000000;stroke-width:2.0px;stroke-linecap:butt;stroke-linejoin:miter;stroke-opacity:1"/>
<path class="bond-6 atom-6 atom-7" d="M 44.0,114.5 L 33.4,133.0" style="fill:none;fill-rule:evenodd;stroke:#FF0000;stroke-width:2.0px;stroke-linecap:butt;stroke-linejoin:miter;stroke-opacity:1"/>
<path class="bond-6 atom-6 atom-7" d="M 61.3,99.9 L 50.6,118.3" style="fill:none;fill-rule:evenodd;stroke:#000000;stroke-width:2.0px;stroke-linecap:butt;stroke-linejoin:miter;stroke-opacity:1"/>
<path class="bond-6 atom-6 atom-7" d="M 50.6,118.3 L 40.0,136.8" style="fill:none;fill-rule:evenodd;stroke:#FF0000;stroke-width:2.0px;stroke-linecap:butt;stroke-linejoin:miter;stroke-opacity:1"/>
<path class="bond-7 atom-6 atom-8" d="M 56.9,99.9 L 46.9,82.5" style="fill:none;fill-rule:evenodd;stroke:#000000;stroke-width:2.0px;stroke-linecap:butt;stroke-linejoin:miter;stroke-opacity:1"/>
<path class="bond-7 atom-6 atom-8" d="M 46.9,82.5 L 36.8,65.1" style="fill:none;fill-rule:evenodd;stroke:#FF0000;stroke-width:2.0px;stroke-linecap:butt;stroke-linejoin:miter;stroke-opacity:1"/>
<path d="M 59.4,99.9 L 56.9,99.9 L 56.4,99.0" style="fill:none;stroke:#000000;stroke-width:2.0px;stroke-linecap:butt;stroke-linejoin:miter;stroke-opacity:1;"/>
<path class="atom-2" d="M 177.1 143.9 Q 177.1 140.4, 178.8 138.5 Q 180.5 136.5, 183.7 136.5 Q 186.9 136.5, 188.6 138.5 Q 190.3 140.4, 190.3 143.9 Q 190.3 147.3, 188.6 149.3 Q 186.8 151.3, 183.7 151.3 Q 180.5 151.3, 178.8 149.3 Q 177.1 147.4, 177.1 143.9 M 183.7 149.7 Q 185.9 149.7, 187.0 148.2 Q 188.2 146.7, 188.2 143.9 Q 188.2 141.0, 187.0 139.6 Q 185.9 138.2, 183.7 138.2 Q 181.5 138.2, 180.3 139.6 Q 179.1 141.0, 179.1 143.9 Q 179.1 146.8, 180.3 148.2 Q 181.5 149.7, 183.7 149.7 " fill="#FF0000"/>
<path class="atom-2" d="M 192.5 136.7 L 194.5 136.7 L 194.5 142.8 L 201.8 142.8 L 201.8 136.7 L 203.7 136.7 L 203.7 151.1 L 201.8 151.1 L 201.8 144.4 L 194.5 144.4 L 194.5 151.1 L 192.5 151.1 L 192.5 136.7 " fill="#FF0000"/>
<path class="atom-7" d="M 24.9 143.9 Q 24.9 140.4, 26.6 138.5 Q 28.3 136.5, 31.5 136.5 Q 34.7 136.5, 36.4 138.5 Q 38.1 140.4, 38.1 143.9 Q 38.1 147.3, 36.4 149.3 Q 34.7 151.3, 31.5 151.3 Q 28.4 151.3, 26.6 149.3 Q 24.9 147.4, 24.9 143.9 M 31.5 149.7 Q 33.7 149.7, 34.9 148.2 Q 36.1 146.7, 36.1 143.9 Q 36.1 141.0, 34.9 139.6 Q 33.7 138.2, 31.5 138.2 Q 29.3 138.2, 28.1 139.6 Q 27.0 141.0, 27.0 143.9 Q 27.0 146.8, 28.1 148.2 Q 29.3 149.7, 31.5 149.7 " fill="#FF0000"/>
<path class="atom-8" d="M 10.7 48.9 L 12.7 48.9 L 12.7 55.0 L 20.0 55.0 L 20.0 48.9 L 22.0 48.9 L 22.0 63.2 L 20.0 63.2 L 20.0 56.6 L 12.7 56.6 L 12.7 63.2 L 10.7 63.2 L 10.7 48.9 " fill="#FF0000"/>
<path class="atom-8" d="M 24.9 56.0 Q 24.9 52.6, 26.6 50.6 Q 28.3 48.7, 31.5 48.7 Q 34.7 48.7, 36.4 50.6 Q 38.1 52.6, 38.1 56.0 Q 38.1 59.5, 36.4 61.5 Q 34.7 63.5, 31.5 63.5 Q 28.4 63.5, 26.6 61.5 Q 24.9 59.5, 24.9 56.0 M 31.5 61.8 Q 33.7 61.8, 34.9 60.4 Q 36.1 58.9, 36.1 56.0 Q 36.1 53.2, 34.9 51.8 Q 33.7 50.3, 31.5 50.3 Q 29.3 50.3, 28.1 51.7 Q 27.0 53.2, 27.0 56.0 Q 27.0 58.9, 28.1 60.4 Q 29.3 61.8, 31.5 61.8 " fill="#FF0000"/>
</g>
  </g>
</svg>
