<?xml version='1.0' encoding='ASCII' standalone='yes'?>
<svg xmlns="http://www.w3.org/2000/svg" xmlns:xlink="http://www.w3.org/1999/xlink" version="1.1" width="966.0px" viewBox="0 0 966.0 200.0" height="200.0px">
  <g>
    <g transform="translate(0, 0) scale(1 1) "><!-- END OF HEADER -->
<rect style="opacity:1.0;fill:#FFFFFF;stroke:none" width="317.0" height="200.0" x="0.0" y="0.0"> </rect>
<path class="bond-0 atom-0 atom-1" d="M 177.0,10.0 L 191.6,31.3" style="fill:none;fill-rule:evenodd;stroke:#000000;stroke-width:2.0px;stroke-linecap:butt;stroke-linejoin:miter;stroke-opacity:1"/>
<path class="bond-1 atom-1 atom-2" d="M 191.6,31.3 L 180.6,54.6" style="fill:none;fill-rule:evenodd;stroke:#000000;stroke-width:2.0px;stroke-linecap:butt;stroke-linejoin:miter;stroke-opacity:1"/>
<path class="bond-2 atom-2 atom-3" d="M 180.6,54.6 L 169.5,78.0" style="fill:none;fill-rule:evenodd;stroke:#000000;stroke-width:2.0px;stroke-linecap:butt;stroke-linejoin:miter;stroke-opacity:1"/>
<path class="bond-3 atom-2 atom-4" d="M 180.6,54.6 L 157.2,43.5" style="fill:none;fill-rule:evenodd;stroke:#000000;stroke-width:2.0px;stroke-linecap:butt;stroke-linejoin:miter;stroke-opacity:1"/>
<path class="bond-4 atom-4 atom-5" d="M 157.2,43.5 L 135.9,58.2" style="fill:none;fill-rule:evenodd;stroke:#000000;stroke-width:2.0px;stroke-linecap:butt;stroke-linejoin:miter;stroke-opacity:1"/>
<path class="bond-5 atom-5 atom-6" d="M 135.9,58.2 L 112.6,47.2" style="fill:none;fill-rule:evenodd;stroke:#000000;stroke-width:2.0px;stroke-linecap:butt;stroke-linejoin:miter;stroke-opacity:1"/>
<path class="bond-6 atom-6 atom-7" d="M 112.6,47.2 L 91.3,61.8" style="fill:none;fill-rule:evenodd;stroke:#000000;stroke-width:2.0px;stroke-linecap:butt;stroke-linejoin:miter;stroke-opacity:1"/>
<path class="bond-7 atom-7 atom-8" d="M 91.3,61.8 L 70.0,76.5" style="fill:none;fill-rule:evenodd;stroke:#000000;stroke-width:2.0px;stroke-linecap:butt;stroke-linejoin:miter;stroke-opacity:1"/>
<path class="bond-8 atom-7 atom-9" d="M 91.3,61.8 L 76.6,40.6" style="fill:none;fill-rule:evenodd;stroke:#000000;stroke-width:2.0px;stroke-linecap:butt;stroke-linejoin:miter;stroke-opacity:1"/>
<path class="bond-9 atom-9 atom-10" d="M 76.6,40.6 L 65.9,41.4" style="fill:none;fill-rule:evenodd;stroke:#000000;stroke-width:2.0px;stroke-linecap:butt;stroke-linejoin:miter;stroke-opacity:1"/>
<path class="bond-9 atom-9 atom-10" d="M 65.9,41.4 L 55.1,42.3" style="fill:none;fill-rule:evenodd;stroke:#FF0000;stroke-width:2.0px;stroke-linecap:butt;stroke-linejoin:miter;stroke-opacity:1"/>
<path class="bond-10 atom-7 atom-11" d="M 91.3,61.8 L 106.0,83.1" style="fill:none;fill-rule:evenodd;stroke:#000000;stroke-width:2.0px;stroke-linecap:butt;stroke-linejoin:miter;stroke-opacity:1"/>
<path class="bond-11 atom-11 atom-12" d="M 106.0,83.1 L 94.9,106.5" style="fill:none;fill-rule:evenodd;stroke:#000000;stroke-width:2.0px;stroke-linecap:butt;stroke-linejoin:miter;stroke-opacity:1"/>
<path class="bond-12 atom-12 atom-13" d="M 94.9,106.5 L 109.6,127.7" style="fill:none;fill-rule:evenodd;stroke:#000000;stroke-width:2.0px;stroke-linecap:butt;stroke-linejoin:miter;stroke-opacity:1"/>
<path class="bond-13 atom-13 atom-14" d="M 109.6,127.7 L 124.3,149.0" style="fill:none;fill-rule:evenodd;stroke:#000000;stroke-width:2.0px;stroke-linecap:butt;stroke-linejoin:miter;stroke-opacity:1"/>
<path class="bond-14 atom-13 atom-15" d="M 109.6,127.7 L 130.9,113.0" style="fill:none;fill-rule:evenodd;stroke:#000000;stroke-width:2.0px;stroke-linecap:butt;stroke-linejoin:miter;stroke-opacity:1"/>
<path class="bond-15 atom-15 atom-16" d="M 130.9,113.0 L 140.5,117.6" style="fill:none;fill-rule:evenodd;stroke:#000000;stroke-width:2.0px;stroke-linecap:butt;stroke-linejoin:miter;stroke-opacity:1"/>
<path class="bond-15 atom-15 atom-16" d="M 140.5,117.6 L 150.0,122.1" style="fill:none;fill-rule:evenodd;stroke:#FF0000;stroke-width:2.0px;stroke-linecap:butt;stroke-linejoin:miter;stroke-opacity:1"/>
<path class="bond-16 atom-13 atom-17" d="M 109.6,127.7 L 88.3,142.4" style="fill:none;fill-rule:evenodd;stroke:#000000;stroke-width:2.0px;stroke-linecap:butt;stroke-linejoin:miter;stroke-opacity:1"/>
<path class="bond-17 atom-17 atom-18" d="M 90.2,141.1 L 80.1,136.4" style="fill:none;fill-rule:evenodd;stroke:#000000;stroke-width:2.0px;stroke-linecap:butt;stroke-linejoin:miter;stroke-opacity:1"/>
<path class="bond-17 atom-17 atom-18" d="M 80.1,136.4 L 70.0,131.6" style="fill:none;fill-rule:evenodd;stroke:#FF0000;stroke-width:2.0px;stroke-linecap:butt;stroke-linejoin:miter;stroke-opacity:1"/>
<path class="bond-17 atom-17 atom-18" d="M 88.5,144.7 L 78.4,139.9" style="fill:none;fill-rule:evenodd;stroke:#000000;stroke-width:2.0px;stroke-linecap:butt;stroke-linejoin:miter;stroke-opacity:1"/>
<path class="bond-17 atom-17 atom-18" d="M 78.4,139.9 L 68.4,135.1" style="fill:none;fill-rule:evenodd;stroke:#FF0000;stroke-width:2.0px;stroke-linecap:butt;stroke-linejoin:miter;stroke-opacity:1"/>
<path class="bond-18 atom-17 atom-19" d="M 88.3,142.4 L 89.2,153.0" style="fill:none;fill-rule:evenodd;stroke:#000000;stroke-width:2.0px;stroke-linecap:butt;stroke-linejoin:miter;stroke-opacity:1"/>
<path class="bond-18 atom-17 atom-19" d="M 89.2,153.0 L 90.1,163.6" style="fill:none;fill-rule:evenodd;stroke:#FF0000;stroke-width:2.0px;stroke-linecap:butt;stroke-linejoin:miter;stroke-opacity:1"/>
<path class="bond-19 atom-2 atom-20" d="M 180.6,54.6 L 203.9,65.7" style="fill:none;fill-rule:evenodd;stroke:#000000;stroke-width:2.0px;stroke-linecap:butt;stroke-linejoin:miter;stroke-opacity:1"/>
<path class="bond-20 atom-20 atom-21" d="M 203.9,65.7 L 206.0,91.5" style="fill:none;fill-rule:evenodd;stroke:#000000;stroke-width:2.0px;stroke-linecap:butt;stroke-linejoin:miter;stroke-opacity:1"/>
<path class="bond-21 atom-21 atom-22" d="M 206.0,91.5 L 229.4,102.5" style="fill:none;fill-rule:evenodd;stroke:#000000;stroke-width:2.0px;stroke-linecap:butt;stroke-linejoin:miter;stroke-opacity:1"/>
<path class="bond-22 atom-22 atom-23" d="M 229.4,102.5 L 252.7,113.6" style="fill:none;fill-rule:evenodd;stroke:#000000;stroke-width:2.0px;stroke-linecap:butt;stroke-linejoin:miter;stroke-opacity:1"/>
<path class="bond-23 atom-22 atom-24" d="M 229.4,102.5 L 240.4,79.2" style="fill:none;fill-rule:evenodd;stroke:#000000;stroke-width:2.0px;stroke-linecap:butt;stroke-linejoin:miter;stroke-opacity:1"/>
<path class="bond-24 atom-24 atom-25" d="M 240.4,79.2 L 251.2,78.3" style="fill:none;fill-rule:evenodd;stroke:#000000;stroke-width:2.0px;stroke-linecap:butt;stroke-linejoin:miter;stroke-opacity:1"/>
<path class="bond-24 atom-24 atom-25" d="M 251.2,78.3 L 262.0,77.4" style="fill:none;fill-rule:evenodd;stroke:#FF0000;stroke-width:2.0px;stroke-linecap:butt;stroke-linejoin:miter;stroke-opacity:1"/>
<path class="bond-25 atom-22 atom-26" d="M 229.4,102.5 L 218.3,125.9" style="fill:none;fill-rule:evenodd;stroke:#000000;stroke-width:2.0px;stroke-linecap:butt;stroke-linejoin:miter;stroke-opacity:1"/>
<path class="bond-26 atom-26 atom-27" d="M 219.2,123.9 L 207.9,124.8" style="fill:none;fill-rule:evenodd;stroke:#000000;stroke-width:2.0px;stroke-linecap:butt;stroke-linejoin:miter;stroke-opacity:1"/>
<path class="bond-26 atom-26 atom-27" d="M 207.9,124.8 L 196.6,125.7" style="fill:none;fill-rule:evenodd;stroke:#FF0000;stroke-width:2.0px;stroke-linecap:butt;stroke-linejoin:miter;stroke-opacity:1"/>
<path class="bond-26 atom-26 atom-27" d="M 219.5,127.7 L 208.2,128.7" style="fill:none;fill-rule:evenodd;stroke:#000000;stroke-width:2.0px;stroke-linecap:butt;stroke-linejoin:miter;stroke-opacity:1"/>
<path class="bond-26 atom-26 atom-27" d="M 208.2,128.7 L 196.9,129.6" style="fill:none;fill-rule:evenodd;stroke:#FF0000;stroke-width:2.0px;stroke-linecap:butt;stroke-linejoin:miter;stroke-opacity:1"/>
<path class="bond-27 atom-26 atom-28" d="M 218.3,125.9 L 224.0,134.3" style="fill:none;fill-rule:evenodd;stroke:#000000;stroke-width:2.0px;stroke-linecap:butt;stroke-linejoin:miter;stroke-opacity:1"/>
<path class="bond-27 atom-26 atom-28" d="M 224.0,134.3 L 229.8,142.6" style="fill:none;fill-rule:evenodd;stroke:#FF0000;stroke-width:2.0px;stroke-linecap:butt;stroke-linejoin:miter;stroke-opacity:1"/>
<path d="M 190.9,30.2 L 191.6,31.3 L 191.1,32.4" style="fill:none;stroke:#000000;stroke-width:2.0px;stroke-linecap:butt;stroke-linejoin:miter;stroke-opacity:1;"/>
<path d="M 158.4,44.1 L 157.2,43.5 L 156.1,44.3" style="fill:none;stroke:#000000;stroke-width:2.0px;stroke-linecap:butt;stroke-linejoin:miter;stroke-opacity:1;"/>
<path d="M 137.0,57.5 L 135.9,58.2 L 134.8,57.7" style="fill:none;stroke:#000000;stroke-width:2.0px;stroke-linecap:butt;stroke-linejoin:miter;stroke-opacity:1;"/>
<path d="M 113.8,47.7 L 112.6,47.2 L 111.5,47.9" style="fill:none;stroke:#000000;stroke-width:2.0px;stroke-linecap:butt;stroke-linejoin:miter;stroke-opacity:1;"/>
<path d="M 77.4,41.6 L 76.6,40.6 L 76.1,40.6" style="fill:none;stroke:#000000;stroke-width:2.0px;stroke-linecap:butt;stroke-linejoin:miter;stroke-opacity:1;"/>
<path d="M 105.3,82.0 L 106.0,83.1 L 105.4,84.3" style="fill:none;stroke:#000000;stroke-width:2.0px;stroke-linecap:butt;stroke-linejoin:miter;stroke-opacity:1;"/>
<path d="M 95.5,105.3 L 94.9,106.5 L 95.7,107.5" style="fill:none;stroke:#000000;stroke-width:2.0px;stroke-linecap:butt;stroke-linejoin:miter;stroke-opacity:1;"/>
<path d="M 129.8,113.8 L 130.9,113.0 L 131.4,113.3" style="fill:none;stroke:#000000;stroke-width:2.0px;stroke-linecap:butt;stroke-linejoin:miter;stroke-opacity:1;"/>
<path d="M 89.4,141.7 L 88.3,142.4 L 88.4,143.0" style="fill:none;stroke:#000000;stroke-width:2.0px;stroke-linecap:butt;stroke-linejoin:miter;stroke-opacity:1;"/>
<path d="M 202.7,65.1 L 203.9,65.7 L 204.0,67.0" style="fill:none;stroke:#000000;stroke-width:2.0px;stroke-linecap:butt;stroke-linejoin:miter;stroke-opacity:1;"/>
<path d="M 205.9,90.2 L 206.0,91.5 L 207.2,92.0" style="fill:none;stroke:#000000;stroke-width:2.0px;stroke-linecap:butt;stroke-linejoin:miter;stroke-opacity:1;"/>
<path d="M 239.9,80.4 L 240.4,79.2 L 241.0,79.1" style="fill:none;stroke:#000000;stroke-width:2.0px;stroke-linecap:butt;stroke-linejoin:miter;stroke-opacity:1;"/>
<path d="M 218.8,124.7 L 218.3,125.9 L 218.6,126.3" style="fill:none;stroke:#000000;stroke-width:2.0px;stroke-linecap:butt;stroke-linejoin:miter;stroke-opacity:1;"/>
<path class="atom-10" d="M 40.3 39.0 L 41.3 39.0 L 41.3 42.2 L 45.0 42.2 L 45.0 39.0 L 46.0 39.0 L 46.0 46.4 L 45.0 46.4 L 45.0 43.0 L 41.3 43.0 L 41.3 46.4 L 40.3 46.4 L 40.3 39.0 " fill="#FF0000"/>
<path class="atom-10" d="M 47.5 42.7 Q 47.5 40.9, 48.4 39.9 Q 49.2 39.0, 50.9 39.0 Q 52.5 39.0, 53.4 39.9 Q 54.2 40.9, 54.2 42.7 Q 54.2 44.5, 53.3 45.5 Q 52.5 46.5, 50.9 46.5 Q 49.3 46.5, 48.4 45.5 Q 47.5 44.5, 47.5 42.7 M 50.9 45.6 Q 52.0 45.6, 52.6 44.9 Q 53.2 44.1, 53.2 42.7 Q 53.2 41.2, 52.6 40.5 Q 52.0 39.8, 50.9 39.8 Q 49.8 39.8, 49.1 40.5 Q 48.5 41.2, 48.5 42.7 Q 48.5 44.2, 49.1 44.9 Q 49.8 45.6, 50.9 45.6 " fill="#FF0000"/>
<path class="atom-16" d="M 150.9 124.1 Q 150.9 122.4, 151.7 121.4 Q 152.6 120.4, 154.2 120.4 Q 155.9 120.4, 156.7 121.4 Q 157.6 122.4, 157.6 124.1 Q 157.6 125.9, 156.7 126.9 Q 155.8 127.9, 154.2 127.9 Q 152.6 127.9, 151.7 126.9 Q 150.9 125.9, 150.9 124.1 M 154.2 127.1 Q 155.4 127.1, 156.0 126.4 Q 156.6 125.6, 156.6 124.1 Q 156.6 122.7, 156.0 122.0 Q 155.4 121.3, 154.2 121.3 Q 153.1 121.3, 152.5 122.0 Q 151.9 122.7, 151.9 124.1 Q 151.9 125.6, 152.5 126.4 Q 153.1 127.1, 154.2 127.1 " fill="#FF0000"/>
<path class="atom-16" d="M 158.7 120.5 L 159.7 120.5 L 159.7 123.6 L 163.5 123.6 L 163.5 120.5 L 164.5 120.5 L 164.5 127.8 L 163.5 127.8 L 163.5 124.4 L 159.7 124.4 L 159.7 127.8 L 158.7 127.8 L 158.7 120.5 " fill="#FF0000"/>
<path class="atom-18" d="M 61.6 131.4 Q 61.6 129.6, 62.5 128.6 Q 63.4 127.6, 65.0 127.6 Q 66.6 127.6, 67.5 128.6 Q 68.4 129.6, 68.4 131.4 Q 68.4 133.1, 67.5 134.2 Q 66.6 135.2, 65.0 135.2 Q 63.4 135.2, 62.5 134.2 Q 61.6 133.2, 61.6 131.4 M 65.0 134.3 Q 66.1 134.3, 66.7 133.6 Q 67.3 132.8, 67.3 131.4 Q 67.3 129.9, 66.7 129.2 Q 66.1 128.5, 65.0 128.5 Q 63.9 128.5, 63.3 129.2 Q 62.7 129.9, 62.7 131.4 Q 62.7 132.8, 63.3 133.6 Q 63.9 134.3, 65.0 134.3 " fill="#FF0000"/>
<path class="atom-19" d="M 87.1 168.2 Q 87.1 166.4, 87.9 165.5 Q 88.8 164.5, 90.4 164.5 Q 92.1 164.5, 92.9 165.5 Q 93.8 166.4, 93.8 168.2 Q 93.8 170.0, 92.9 171.0 Q 92.0 172.0, 90.4 172.0 Q 88.8 172.0, 87.9 171.0 Q 87.1 170.0, 87.1 168.2 M 90.4 171.2 Q 91.5 171.2, 92.1 170.4 Q 92.8 169.7, 92.8 168.2 Q 92.8 166.8, 92.1 166.0 Q 91.5 165.3, 90.4 165.3 Q 89.3 165.3, 88.7 166.0 Q 88.1 166.8, 88.1 168.2 Q 88.1 169.7, 88.7 170.4 Q 89.3 171.2, 90.4 171.2 " fill="#FF0000"/>
<path class="atom-19" d="M 94.9 164.6 L 95.9 164.6 L 95.9 167.7 L 99.7 167.7 L 99.7 164.6 L 100.7 164.6 L 100.7 171.9 L 99.7 171.9 L 99.7 168.5 L 95.9 168.5 L 95.9 171.9 L 94.9 171.9 L 94.9 164.6 " fill="#FF0000"/>
<path class="atom-25" d="M 262.8 77.1 Q 262.8 75.4, 263.7 74.4 Q 264.6 73.4, 266.2 73.4 Q 267.8 73.4, 268.7 74.4 Q 269.6 75.4, 269.6 77.1 Q 269.6 78.9, 268.7 79.9 Q 267.8 80.9, 266.2 80.9 Q 264.6 80.9, 263.7 79.9 Q 262.8 78.9, 262.8 77.1 M 266.2 80.1 Q 267.3 80.1, 267.9 79.3 Q 268.5 78.6, 268.5 77.1 Q 268.5 75.7, 267.9 75.0 Q 267.3 74.2, 266.2 74.2 Q 265.1 74.2, 264.5 75.0 Q 263.9 75.7, 263.9 77.1 Q 263.9 78.6, 264.5 79.3 Q 265.1 80.1, 266.2 80.1 " fill="#FF0000"/>
<path class="atom-25" d="M 270.7 73.5 L 271.7 73.5 L 271.7 76.6 L 275.4 76.6 L 275.4 73.5 L 276.4 73.5 L 276.4 80.8 L 275.4 80.8 L 275.4 77.4 L 271.7 77.4 L 271.7 80.8 L 270.7 80.8 L 270.7 73.5 " fill="#FF0000"/>
<path class="atom-27" d="M 189.2 128.0 Q 189.2 126.2, 190.0 125.3 Q 190.9 124.3, 192.5 124.3 Q 194.1 124.3, 195.0 125.3 Q 195.9 126.2, 195.9 128.0 Q 195.9 129.8, 195.0 130.8 Q 194.1 131.8, 192.5 131.8 Q 190.9 131.8, 190.0 130.8 Q 189.2 129.8, 189.2 128.0 M 192.5 131.0 Q 193.6 131.0, 194.2 130.2 Q 194.8 129.5, 194.8 128.0 Q 194.8 126.6, 194.2 125.8 Q 193.6 125.1, 192.5 125.1 Q 191.4 125.1, 190.8 125.8 Q 190.2 126.6, 190.2 128.0 Q 190.2 129.5, 190.8 130.2 Q 191.4 131.0, 192.5 131.0 " fill="#FF0000"/>
<path class="atom-28" d="M 229.6 147.2 Q 229.6 145.4, 230.5 144.4 Q 231.3 143.5, 233.0 143.5 Q 234.6 143.5, 235.5 144.4 Q 236.3 145.4, 236.3 147.2 Q 236.3 149.0, 235.4 150.0 Q 234.6 151.0, 233.0 151.0 Q 231.4 151.0, 230.5 150.0 Q 229.6 149.0, 229.6 147.2 M 233.0 150.2 Q 234.1 150.2, 234.7 149.4 Q 235.3 148.7, 235.3 147.2 Q 235.3 145.7, 234.7 145.0 Q 234.1 144.3, 233.0 144.3 Q 231.8 144.3, 231.2 145.0 Q 230.6 145.7, 230.6 147.2 Q 230.6 148.7, 231.2 149.4 Q 231.8 150.2, 233.0 150.2 " fill="#FF0000"/>
<path class="atom-28" d="M 237.5 143.5 L 238.5 143.5 L 238.5 146.7 L 242.2 146.7 L 242.2 143.5 L 243.2 143.5 L 243.2 150.9 L 242.2 150.9 L 242.2 147.5 L 238.5 147.5 L 238.5 150.9 L 237.5 150.9 L 237.5 143.5 " fill="#FF0000"/>
<path class="legend" d="M 149.3 181.9 Q 149.3 179.6, 150.0 177.7 Q 150.7 175.8, 152.0 173.8 L 152.9 174.4 Q 151.8 176.3, 151.3 178.0 Q 150.8 179.7, 150.8 181.9 Q 150.8 184.0, 151.3 185.8 Q 151.8 187.5, 152.9 189.4 L 152.0 190.0 Q 150.7 188.0, 150.0 186.1 Q 149.3 184.2, 149.3 181.9 " fill="#000000"/>
<path class="legend" d="M 153.8 177.3 Q 154.2 176.2, 155.2 175.6 Q 156.2 175.0, 157.6 175.0 Q 159.3 175.0, 160.2 175.9 Q 161.2 176.8, 161.2 178.5 Q 161.2 180.2, 159.9 181.7 Q 158.7 183.3, 156.2 185.2 L 161.4 185.2 L 161.4 186.4 L 153.8 186.4 L 153.8 185.4 Q 155.9 183.9, 157.1 182.8 Q 158.4 181.6, 159.0 180.6 Q 159.6 179.6, 159.6 178.6 Q 159.6 177.5, 159.1 176.9 Q 158.5 176.3, 157.6 176.3 Q 156.7 176.3, 156.0 176.6 Q 155.4 177.0, 155.0 177.8 L 153.8 177.3 " fill="#000000"/>
<path class="legend" d="M 166.4 181.9 Q 166.4 184.2, 165.7 186.1 Q 165.0 188.0, 163.7 190.0 L 162.8 189.4 Q 163.9 187.5, 164.4 185.8 Q 164.9 184.0, 164.9 181.9 Q 164.9 179.7, 164.4 178.0 Q 163.9 176.3, 162.8 174.4 L 163.7 173.8 Q 165.0 175.8, 165.7 177.7 Q 166.4 179.6, 166.4 181.9 " fill="#000000"/>
</g>
    <g transform="translate(317.0, 0) scale(1 1) "><line x1="5" y1="100" x2="35" y2="100" style="stroke:rgb(0,0,0);stroke-width:2"/>
  <line x1="34" y1="100" x2="29" y2="95" style="stroke:rgb(0,0,0);stroke-width:2"/>
  <line x1="34" y1="100" x2="29" y2="105" style="stroke:rgb(0,0,0);stroke-width:2"/>
</g>
    <g transform="translate(357.0, 0) scale(1 1) "><!-- END OF HEADER -->
<rect style="opacity:1.0;fill:#FFFFFF;stroke:none" width="205.0" height="200.0" x="0.0" y="0.0"> </rect>
<path class="bond-0 atom-0 atom-1" d="M 122.6,44.3 L 108.8,89.2" style="fill:none;fill-rule:evenodd;stroke:#000000;stroke-width:2.0px;stroke-linecap:butt;stroke-linejoin:miter;stroke-opacity:1"/>
<path class="bond-1 atom-1 atom-2" d="M 108.8,89.2 L 95.0,134.1" style="fill:none;fill-rule:evenodd;stroke:#000000;stroke-width:2.0px;stroke-linecap:butt;stroke-linejoin:miter;stroke-opacity:1"/>
<path class="bond-2 atom-1 atom-3" d="M 108.8,89.2 L 63.9,75.4" style="fill:none;fill-rule:evenodd;stroke:#000000;stroke-width:2.0px;stroke-linecap:butt;stroke-linejoin:miter;stroke-opacity:1"/>
<path class="bond-3 atom-3 atom-4" d="M 63.9,75.4 L 50.5,87.9" style="fill:none;fill-rule:evenodd;stroke:#000000;stroke-width:2.0px;stroke-linecap:butt;stroke-linejoin:miter;stroke-opacity:1"/>
<path class="bond-3 atom-3 atom-4" d="M 50.5,87.9 L 37.2,100.3" style="fill:none;fill-rule:evenodd;stroke:#FF0000;stroke-width:2.0px;stroke-linecap:butt;stroke-linejoin:miter;stroke-opacity:1"/>
<path class="bond-4 atom-1 atom-5" d="M 108.8,89.2 L 153.7,103.0" style="fill:none;fill-rule:evenodd;stroke:#000000;stroke-width:2.0px;stroke-linecap:butt;stroke-linejoin:miter;stroke-opacity:1"/>
<path class="bond-5 atom-5 atom-6" d="M 154.7,107.0 L 168.8,93.8" style="fill:none;fill-rule:evenodd;stroke:#000000;stroke-width:2.0px;stroke-linecap:butt;stroke-linejoin:miter;stroke-opacity:1"/>
<path class="bond-5 atom-5 atom-6" d="M 168.8,93.8 L 182.9,80.7" style="fill:none;fill-rule:evenodd;stroke:#FF0000;stroke-width:2.0px;stroke-linecap:butt;stroke-linejoin:miter;stroke-opacity:1"/>
<path class="bond-5 atom-5 atom-6" d="M 149.9,101.8 L 164.0,88.7" style="fill:none;fill-rule:evenodd;stroke:#000000;stroke-width:2.0px;stroke-linecap:butt;stroke-linejoin:miter;stroke-opacity:1"/>
<path class="bond-5 atom-5 atom-6" d="M 164.0,88.7 L 178.1,75.5" style="fill:none;fill-rule:evenodd;stroke:#FF0000;stroke-width:2.0px;stroke-linecap:butt;stroke-linejoin:miter;stroke-opacity:1"/>
<path class="bond-6 atom-5 atom-7" d="M 153.7,103.0 L 158.0,121.7" style="fill:none;fill-rule:evenodd;stroke:#000000;stroke-width:2.0px;stroke-linecap:butt;stroke-linejoin:miter;stroke-opacity:1"/>
<path class="bond-6 atom-5 atom-7" d="M 158.0,121.7 L 162.4,140.5" style="fill:none;fill-rule:evenodd;stroke:#FF0000;stroke-width:2.0px;stroke-linecap:butt;stroke-linejoin:miter;stroke-opacity:1"/>
<path d="M 66.1,76.1 L 63.9,75.4 L 63.2,76.0" style="fill:none;stroke:#000000;stroke-width:2.0px;stroke-linecap:butt;stroke-linejoin:miter;stroke-opacity:1;"/>
<path d="M 151.5,102.3 L 153.7,103.0 L 154.0,103.9" style="fill:none;stroke:#000000;stroke-width:2.0px;stroke-linecap:butt;stroke-linejoin:miter;stroke-opacity:1;"/>
<path class="atom-4" d="M 10.2 100.8 L 12.1 100.8 L 12.1 106.5 L 18.9 106.5 L 18.9 100.8 L 20.7 100.8 L 20.7 114.1 L 18.9 114.1 L 18.9 108.0 L 12.1 108.0 L 12.1 114.1 L 10.2 114.1 L 10.2 100.8 " fill="#FF0000"/>
<path class="atom-4" d="M 23.4 107.5 Q 23.4 104.3, 25.0 102.5 Q 26.5 100.7, 29.5 100.7 Q 32.5 100.7, 34.0 102.5 Q 35.6 104.3, 35.6 107.5 Q 35.6 110.7, 34.0 112.5 Q 32.4 114.4, 29.5 114.4 Q 26.6 114.4, 25.0 112.5 Q 23.4 110.7, 23.4 107.5 M 29.5 112.9 Q 31.5 112.9, 32.6 111.5 Q 33.7 110.1, 33.7 107.5 Q 33.7 104.8, 32.6 103.5 Q 31.5 102.2, 29.5 102.2 Q 27.5 102.2, 26.4 103.5 Q 25.3 104.8, 25.3 107.5 Q 25.3 110.1, 26.4 111.5 Q 27.5 112.9, 29.5 112.9 " fill="#FF0000"/>
<path class="atom-6" d="M 182.0 71.0 Q 182.0 67.8, 183.6 66.0 Q 185.2 64.3, 188.1 64.3 Q 191.1 64.3, 192.7 66.0 Q 194.3 67.8, 194.3 71.0 Q 194.3 74.3, 192.7 76.1 Q 191.1 77.9, 188.1 77.9 Q 185.2 77.9, 183.6 76.1 Q 182.0 74.3, 182.0 71.0 M 188.1 76.4 Q 190.2 76.4, 191.3 75.1 Q 192.4 73.7, 192.4 71.0 Q 192.4 68.4, 191.3 67.1 Q 190.2 65.8, 188.1 65.8 Q 186.1 65.8, 185.0 67.1 Q 183.9 68.4, 183.9 71.0 Q 183.9 73.7, 185.0 75.1 Q 186.1 76.4, 188.1 76.4 " fill="#FF0000"/>
<path class="atom-7" d="M 158.2 148.8 Q 158.2 145.6, 159.7 143.8 Q 161.3 142.1, 164.3 142.1 Q 167.2 142.1, 168.8 143.8 Q 170.4 145.6, 170.4 148.8 Q 170.4 152.1, 168.8 153.9 Q 167.2 155.7, 164.3 155.7 Q 161.3 155.7, 159.7 153.9 Q 158.2 152.1, 158.2 148.8 M 164.3 154.2 Q 166.3 154.2, 167.4 152.9 Q 168.5 151.5, 168.5 148.8 Q 168.5 146.2, 167.4 144.9 Q 166.3 143.6, 164.3 143.6 Q 162.2 143.6, 161.1 144.9 Q 160.0 146.2, 160.0 148.8 Q 160.0 151.5, 161.1 152.9 Q 162.2 154.2, 164.3 154.2 " fill="#FF0000"/>
<path class="atom-7" d="M 172.4 142.2 L 174.2 142.2 L 174.2 147.9 L 181.0 147.9 L 181.0 142.2 L 182.9 142.2 L 182.9 155.5 L 181.0 155.5 L 181.0 149.4 L 174.2 149.4 L 174.2 155.5 L 172.4 155.5 L 172.4 142.2 " fill="#FF0000"/>
</g>
    <g transform="translate(562.0, 0) scale(1 1) "><line x1="15" y1="100" x2="25" y2="100" style="stroke:rgb(0,0,0);stroke-width:2"/>
  <line x1="20" y1="95" x2="20" y2="105" style="stroke:rgb(0,0,0);stroke-width:2"/>
</g>
    <g transform="translate(602.0, 0) scale(1 1) "><!-- END OF HEADER -->
<rect style="opacity:1.0;fill:#FFFFFF;stroke:none" width="364.0" height="200.0" x="0.0" y="0.0"> </rect>
<path class="bond-0 atom-0 atom-1" d="M 292.7,115.7 L 276.4,127.7" style="fill:none;fill-rule:evenodd;stroke:#000000;stroke-width:2.0px;stroke-linecap:butt;stroke-linejoin:miter;stroke-opacity:1"/>
<path class="bond-1 atom-1 atom-2" d="M 276.4,127.7 L 257.9,119.5" style="fill:none;fill-rule:evenodd;stroke:#000000;stroke-width:2.0px;stroke-linecap:butt;stroke-linejoin:miter;stroke-opacity:1"/>
<path class="bond-2 atom-2 atom-3" d="M 257.9,119.5 L 239.4,111.4" style="fill:none;fill-rule:evenodd;stroke:#000000;stroke-width:2.0px;stroke-linecap:butt;stroke-linejoin:miter;stroke-opacity:1"/>
<path class="bond-3 atom-2 atom-4" d="M 257.9,119.5 L 266.1,101.0" style="fill:none;fill-rule:evenodd;stroke:#000000;stroke-width:2.0px;stroke-linecap:butt;stroke-linejoin:miter;stroke-opacity:1"/>
<path class="bond-4 atom-4 atom-5" d="M 266.1,101.0 L 254.1,84.7" style="fill:none;fill-rule:evenodd;stroke:#000000;stroke-width:2.0px;stroke-linecap:butt;stroke-linejoin:miter;stroke-opacity:1"/>
<path class="bond-5 atom-5 atom-6" d="M 254.1,84.7 L 262.3,66.2" style="fill:none;fill-rule:evenodd;stroke:#000000;stroke-width:2.0px;stroke-linecap:butt;stroke-linejoin:miter;stroke-opacity:1"/>
<path class="bond-6 atom-6 atom-7" d="M 262.3,66.2 L 250.3,49.9" style="fill:none;fill-rule:evenodd;stroke:#000000;stroke-width:2.0px;stroke-linecap:butt;stroke-linejoin:miter;stroke-opacity:1"/>
<path class="bond-7 atom-7 atom-8" d="M 250.3,49.9 L 246.2,40.0" style="fill:none;fill-rule:evenodd;stroke:#000000;stroke-width:2.0px;stroke-linecap:butt;stroke-linejoin:miter;stroke-opacity:1"/>
<path class="bond-8 atom-7 atom-9" d="M 250.3,49.9 L 266.6,37.9" style="fill:none;fill-rule:evenodd;stroke:#000000;stroke-width:2.0px;stroke-linecap:butt;stroke-linejoin:miter;stroke-opacity:1"/>
<path class="bond-9 atom-9 atom-10" d="M 266.6,37.9 L 265.7,29.7" style="fill:none;fill-rule:evenodd;stroke:#000000;stroke-width:2.0px;stroke-linecap:butt;stroke-linejoin:miter;stroke-opacity:1"/>
<path class="bond-9 atom-9 atom-10" d="M 265.7,29.7 L 264.8,21.5" style="fill:none;fill-rule:evenodd;stroke:#FF0000;stroke-width:2.0px;stroke-linecap:butt;stroke-linejoin:miter;stroke-opacity:1"/>
<path class="bond-10 atom-7 atom-11" d="M 250.3,49.9 L 234.0,61.9" style="fill:none;fill-rule:evenodd;stroke:#000000;stroke-width:2.0px;stroke-linecap:butt;stroke-linejoin:miter;stroke-opacity:1"/>
<path class="bond-11 atom-11 atom-12" d="M 234.0,61.9 L 215.5,53.7" style="fill:none;fill-rule:evenodd;stroke:#000000;stroke-width:2.0px;stroke-linecap:butt;stroke-linejoin:miter;stroke-opacity:1"/>
<path class="bond-12 atom-12 atom-13" d="M 215.5,53.7 L 199.2,65.7" style="fill:none;fill-rule:evenodd;stroke:#000000;stroke-width:2.0px;stroke-linecap:butt;stroke-linejoin:miter;stroke-opacity:1"/>
<path class="bond-13 atom-13 atom-14" d="M 199.2,65.7 L 180.7,57.5" style="fill:none;fill-rule:evenodd;stroke:#000000;stroke-width:2.0px;stroke-linecap:butt;stroke-linejoin:miter;stroke-opacity:1"/>
<path class="bond-14 atom-14 atom-15" d="M 180.7,57.5 L 183.7,39.6" style="fill:none;fill-rule:evenodd;stroke:#000000;stroke-width:2.0px;stroke-linecap:butt;stroke-linejoin:miter;stroke-opacity:1"/>
<path class="bond-15 atom-14 atom-16" d="M 180.7,57.5 L 172.5,76.0" style="fill:none;fill-rule:evenodd;stroke:#000000;stroke-width:2.0px;stroke-linecap:butt;stroke-linejoin:miter;stroke-opacity:1"/>
<path class="bond-16 atom-16 atom-17" d="M 172.5,76.0 L 152.4,78.2" style="fill:none;fill-rule:evenodd;stroke:#000000;stroke-width:2.0px;stroke-linecap:butt;stroke-linejoin:miter;stroke-opacity:1"/>
<path class="bond-17 atom-14 atom-18" d="M 180.7,57.5 L 162.1,49.4" style="fill:none;fill-rule:evenodd;stroke:#000000;stroke-width:2.0px;stroke-linecap:butt;stroke-linejoin:miter;stroke-opacity:1"/>
<path class="bond-18 atom-18 atom-19" d="M 162.1,49.4 L 145.8,61.3" style="fill:none;fill-rule:evenodd;stroke:#000000;stroke-width:2.0px;stroke-linecap:butt;stroke-linejoin:miter;stroke-opacity:1"/>
<path class="bond-19 atom-19 atom-20" d="M 145.8,61.3 L 127.3,53.2" style="fill:none;fill-rule:evenodd;stroke:#000000;stroke-width:2.0px;stroke-linecap:butt;stroke-linejoin:miter;stroke-opacity:1"/>
<path class="bond-20 atom-20 atom-21" d="M 127.3,53.2 L 111.0,65.1" style="fill:none;fill-rule:evenodd;stroke:#000000;stroke-width:2.0px;stroke-linecap:butt;stroke-linejoin:miter;stroke-opacity:1"/>
<path class="bond-21 atom-21 atom-22" d="M 111.0,65.1 L 94.7,77.1" style="fill:none;fill-rule:evenodd;stroke:#000000;stroke-width:2.0px;stroke-linecap:butt;stroke-linejoin:miter;stroke-opacity:1"/>
<path class="bond-22 atom-21 atom-23" d="M 111.0,65.1 L 99.1,48.8" style="fill:none;fill-rule:evenodd;stroke:#000000;stroke-width:2.0px;stroke-linecap:butt;stroke-linejoin:miter;stroke-opacity:1"/>
<path class="bond-23 atom-23 atom-24" d="M 99.1,48.8 L 90.6,49.8" style="fill:none;fill-rule:evenodd;stroke:#000000;stroke-width:2.0px;stroke-linecap:butt;stroke-linejoin:miter;stroke-opacity:1"/>
<path class="bond-23 atom-23 atom-24" d="M 90.6,49.8 L 82.2,50.7" style="fill:none;fill-rule:evenodd;stroke:#FF0000;stroke-width:2.0px;stroke-linecap:butt;stroke-linejoin:miter;stroke-opacity:1"/>
<path class="bond-24 atom-21 atom-25" d="M 111.0,65.1 L 123.0,81.5" style="fill:none;fill-rule:evenodd;stroke:#000000;stroke-width:2.0px;stroke-linecap:butt;stroke-linejoin:miter;stroke-opacity:1"/>
<path class="bond-25 atom-25 atom-26" d="M 123.0,81.5 L 114.8,100.0" style="fill:none;fill-rule:evenodd;stroke:#000000;stroke-width:2.0px;stroke-linecap:butt;stroke-linejoin:miter;stroke-opacity:1"/>
<path class="bond-26 atom-26 atom-27" d="M 114.8,100.0 L 126.8,116.3" style="fill:none;fill-rule:evenodd;stroke:#000000;stroke-width:2.0px;stroke-linecap:butt;stroke-linejoin:miter;stroke-opacity:1"/>
<path class="bond-27 atom-27 atom-28" d="M 126.8,116.3 L 138.7,132.6" style="fill:none;fill-rule:evenodd;stroke:#000000;stroke-width:2.0px;stroke-linecap:butt;stroke-linejoin:miter;stroke-opacity:1"/>
<path class="bond-28 atom-27 atom-29" d="M 126.8,116.3 L 143.1,104.3" style="fill:none;fill-rule:evenodd;stroke:#000000;stroke-width:2.0px;stroke-linecap:butt;stroke-linejoin:miter;stroke-opacity:1"/>
<path class="bond-29 atom-29 atom-30" d="M 143.1,104.3 L 150.7,107.7" style="fill:none;fill-rule:evenodd;stroke:#000000;stroke-width:2.0px;stroke-linecap:butt;stroke-linejoin:miter;stroke-opacity:1"/>
<path class="bond-29 atom-29 atom-30" d="M 150.7,107.7 L 158.3,111.0" style="fill:none;fill-rule:evenodd;stroke:#FF0000;stroke-width:2.0px;stroke-linecap:butt;stroke-linejoin:miter;stroke-opacity:1"/>
<path class="bond-30 atom-27 atom-31" d="M 126.8,116.3 L 110.5,128.2" style="fill:none;fill-rule:evenodd;stroke:#000000;stroke-width:2.0px;stroke-linecap:butt;stroke-linejoin:miter;stroke-opacity:1"/>
<path class="bond-31 atom-31 atom-32" d="M 111.9,127.2 L 103.8,123.7" style="fill:none;fill-rule:evenodd;stroke:#000000;stroke-width:2.0px;stroke-linecap:butt;stroke-linejoin:miter;stroke-opacity:1"/>
<path class="bond-31 atom-31 atom-32" d="M 103.8,123.7 L 95.8,120.2" style="fill:none;fill-rule:evenodd;stroke:#FF0000;stroke-width:2.0px;stroke-linecap:butt;stroke-linejoin:miter;stroke-opacity:1"/>
<path class="bond-31 atom-31 atom-32" d="M 110.7,129.9 L 102.6,126.4" style="fill:none;fill-rule:evenodd;stroke:#000000;stroke-width:2.0px;stroke-linecap:butt;stroke-linejoin:miter;stroke-opacity:1"/>
<path class="bond-31 atom-31 atom-32" d="M 102.6,126.4 L 94.6,122.9" style="fill:none;fill-rule:evenodd;stroke:#FF0000;stroke-width:2.0px;stroke-linecap:butt;stroke-linejoin:miter;stroke-opacity:1"/>
<path class="bond-32 atom-31 atom-33" d="M 110.5,128.2 L 111.4,136.5" style="fill:none;fill-rule:evenodd;stroke:#000000;stroke-width:2.0px;stroke-linecap:butt;stroke-linejoin:miter;stroke-opacity:1"/>
<path class="bond-32 atom-31 atom-33" d="M 111.4,136.5 L 112.3,144.8" style="fill:none;fill-rule:evenodd;stroke:#FF0000;stroke-width:2.0px;stroke-linecap:butt;stroke-linejoin:miter;stroke-opacity:1"/>
<path class="bond-33 atom-12 atom-34" d="M 215.5,53.7 L 213.3,33.6" style="fill:none;fill-rule:evenodd;stroke:#000000;stroke-width:2.0px;stroke-linecap:butt;stroke-linejoin:miter;stroke-opacity:1"/>
<path class="bond-34 atom-34 atom-35" d="M 213.3,33.6 L 211.1,13.5" style="fill:none;fill-rule:evenodd;stroke:#000000;stroke-width:2.0px;stroke-linecap:butt;stroke-linejoin:miter;stroke-opacity:1"/>
<path class="bond-35 atom-34 atom-36" d="M 213.3,33.6 L 193.2,35.8" style="fill:none;fill-rule:evenodd;stroke:#000000;stroke-width:2.0px;stroke-linecap:butt;stroke-linejoin:miter;stroke-opacity:1"/>
<path class="bond-36 atom-36 atom-37" d="M 193.2,35.8 L 188.5,29.5" style="fill:none;fill-rule:evenodd;stroke:#000000;stroke-width:2.0px;stroke-linecap:butt;stroke-linejoin:miter;stroke-opacity:1"/>
<path class="bond-36 atom-36 atom-37" d="M 188.5,29.5 L 183.9,23.1" style="fill:none;fill-rule:evenodd;stroke:#FF0000;stroke-width:2.0px;stroke-linecap:butt;stroke-linejoin:miter;stroke-opacity:1"/>
<path class="bond-37 atom-34 atom-38" d="M 213.3,33.6 L 233.4,31.4" style="fill:none;fill-rule:evenodd;stroke:#000000;stroke-width:2.0px;stroke-linecap:butt;stroke-linejoin:miter;stroke-opacity:1"/>
<path class="bond-38 atom-38 atom-39" d="M 231.3,31.6 L 234.4,34.2" style="fill:none;fill-rule:evenodd;stroke:#000000;stroke-width:2.0px;stroke-linecap:butt;stroke-linejoin:miter;stroke-opacity:1"/>
<path class="bond-38 atom-38 atom-39" d="M 234.4,34.2 L 237.4,36.7" style="fill:none;fill-rule:evenodd;stroke:#FF0000;stroke-width:2.0px;stroke-linecap:butt;stroke-linejoin:miter;stroke-opacity:1"/>
<path class="bond-38 atom-38 atom-39" d="M 234.0,30.0 L 236.3,31.9" style="fill:none;fill-rule:evenodd;stroke:#000000;stroke-width:2.0px;stroke-linecap:butt;stroke-linejoin:miter;stroke-opacity:1"/>
<path class="bond-38 atom-38 atom-39" d="M 236.3,31.9 L 239.3,34.4" style="fill:none;fill-rule:evenodd;stroke:#FF0000;stroke-width:2.0px;stroke-linecap:butt;stroke-linejoin:miter;stroke-opacity:1"/>
<path class="bond-39 atom-38 atom-40" d="M 233.4,31.4 L 236.6,24.0" style="fill:none;fill-rule:evenodd;stroke:#000000;stroke-width:2.0px;stroke-linecap:butt;stroke-linejoin:miter;stroke-opacity:1"/>
<path class="bond-39 atom-38 atom-40" d="M 236.6,24.0 L 239.9,16.5" style="fill:none;fill-rule:evenodd;stroke:#FF0000;stroke-width:2.0px;stroke-linecap:butt;stroke-linejoin:miter;stroke-opacity:1"/>
<path class="bond-40 atom-2 atom-41" d="M 257.9,119.5 L 249.8,138.1" style="fill:none;fill-rule:evenodd;stroke:#000000;stroke-width:2.0px;stroke-linecap:butt;stroke-linejoin:miter;stroke-opacity:1"/>
<path class="bond-41 atom-41 atom-42" d="M 249.8,138.1 L 229.7,140.3" style="fill:none;fill-rule:evenodd;stroke:#000000;stroke-width:2.0px;stroke-linecap:butt;stroke-linejoin:miter;stroke-opacity:1"/>
<path class="bond-42 atom-42 atom-43" d="M 229.7,140.3 L 221.5,158.8" style="fill:none;fill-rule:evenodd;stroke:#000000;stroke-width:2.0px;stroke-linecap:butt;stroke-linejoin:miter;stroke-opacity:1"/>
<path class="bond-43 atom-43 atom-44" d="M 221.5,158.8 L 213.4,177.3" style="fill:none;fill-rule:evenodd;stroke:#000000;stroke-width:2.0px;stroke-linecap:butt;stroke-linejoin:miter;stroke-opacity:1"/>
<path class="bond-44 atom-43 atom-45" d="M 221.5,158.8 L 240.0,166.9" style="fill:none;fill-rule:evenodd;stroke:#000000;stroke-width:2.0px;stroke-linecap:butt;stroke-linejoin:miter;stroke-opacity:1"/>
<path class="bond-45 atom-45 atom-46" d="M 240.0,166.9 L 240.9,175.2" style="fill:none;fill-rule:evenodd;stroke:#000000;stroke-width:2.0px;stroke-linecap:butt;stroke-linejoin:miter;stroke-opacity:1"/>
<path class="bond-45 atom-45 atom-46" d="M 240.9,175.2 L 241.8,183.5" style="fill:none;fill-rule:evenodd;stroke:#FF0000;stroke-width:2.0px;stroke-linecap:butt;stroke-linejoin:miter;stroke-opacity:1"/>
<path class="bond-46 atom-43 atom-47" d="M 221.5,158.8 L 203.0,150.6" style="fill:none;fill-rule:evenodd;stroke:#000000;stroke-width:2.0px;stroke-linecap:butt;stroke-linejoin:miter;stroke-opacity:1"/>
<path class="bond-47 atom-47 atom-48" d="M 204.6,151.3 L 203.6,142.7" style="fill:none;fill-rule:evenodd;stroke:#000000;stroke-width:2.0px;stroke-linecap:butt;stroke-linejoin:miter;stroke-opacity:1"/>
<path class="bond-47 atom-47 atom-48" d="M 203.6,142.7 L 202.7,134.0" style="fill:none;fill-rule:evenodd;stroke:#FF0000;stroke-width:2.0px;stroke-linecap:butt;stroke-linejoin:miter;stroke-opacity:1"/>
<path class="bond-47 atom-47 atom-48" d="M 201.6,151.6 L 200.7,143.0" style="fill:none;fill-rule:evenodd;stroke:#000000;stroke-width:2.0px;stroke-linecap:butt;stroke-linejoin:miter;stroke-opacity:1"/>
<path class="bond-47 atom-47 atom-48" d="M 200.7,143.0 L 199.7,134.3" style="fill:none;fill-rule:evenodd;stroke:#FF0000;stroke-width:2.0px;stroke-linecap:butt;stroke-linejoin:miter;stroke-opacity:1"/>
<path class="bond-48 atom-47 atom-49" d="M 203.0,150.6 L 196.5,155.4" style="fill:none;fill-rule:evenodd;stroke:#000000;stroke-width:2.0px;stroke-linecap:butt;stroke-linejoin:miter;stroke-opacity:1"/>
<path class="bond-48 atom-47 atom-49" d="M 196.5,155.4 L 190.0,160.2" style="fill:none;fill-rule:evenodd;stroke:#FF0000;stroke-width:2.0px;stroke-linecap:butt;stroke-linejoin:miter;stroke-opacity:1"/>
<path d="M 277.2,127.1 L 276.4,127.7 L 275.5,127.3" style="fill:none;stroke:#000000;stroke-width:2.0px;stroke-linecap:butt;stroke-linejoin:miter;stroke-opacity:1;"/>
<path d="M 265.7,102.0 L 266.1,101.0 L 265.5,100.2" style="fill:none;stroke:#000000;stroke-width:2.0px;stroke-linecap:butt;stroke-linejoin:miter;stroke-opacity:1;"/>
<path d="M 254.7,85.5 L 254.1,84.7 L 254.5,83.8" style="fill:none;stroke:#000000;stroke-width:2.0px;stroke-linecap:butt;stroke-linejoin:miter;stroke-opacity:1;"/>
<path d="M 261.8,67.1 L 262.3,66.2 L 261.7,65.4" style="fill:none;stroke:#000000;stroke-width:2.0px;stroke-linecap:butt;stroke-linejoin:miter;stroke-opacity:1;"/>
<path d="M 265.8,38.5 L 266.6,37.9 L 266.6,37.5" style="fill:none;stroke:#000000;stroke-width:2.0px;stroke-linecap:butt;stroke-linejoin:miter;stroke-opacity:1;"/>
<path d="M 234.8,61.3 L 234.0,61.9 L 233.1,61.5" style="fill:none;stroke:#000000;stroke-width:2.0px;stroke-linecap:butt;stroke-linejoin:miter;stroke-opacity:1;"/>
<path d="M 200.0,65.1 L 199.2,65.7 L 198.2,65.3" style="fill:none;stroke:#000000;stroke-width:2.0px;stroke-linecap:butt;stroke-linejoin:miter;stroke-opacity:1;"/>
<path d="M 172.9,75.1 L 172.5,76.0 L 171.5,76.1" style="fill:none;stroke:#000000;stroke-width:2.0px;stroke-linecap:butt;stroke-linejoin:miter;stroke-opacity:1;"/>
<path d="M 163.1,49.8 L 162.1,49.4 L 161.3,50.0" style="fill:none;stroke:#000000;stroke-width:2.0px;stroke-linecap:butt;stroke-linejoin:miter;stroke-opacity:1;"/>
<path d="M 146.6,60.7 L 145.8,61.3 L 144.9,60.9" style="fill:none;stroke:#000000;stroke-width:2.0px;stroke-linecap:butt;stroke-linejoin:miter;stroke-opacity:1;"/>
<path d="M 128.2,53.6 L 127.3,53.2 L 126.5,53.8" style="fill:none;stroke:#000000;stroke-width:2.0px;stroke-linecap:butt;stroke-linejoin:miter;stroke-opacity:1;"/>
<path d="M 99.6,49.7 L 99.1,48.8 L 98.6,48.9" style="fill:none;stroke:#000000;stroke-width:2.0px;stroke-linecap:butt;stroke-linejoin:miter;stroke-opacity:1;"/>
<path d="M 122.4,80.6 L 123.0,81.5 L 122.6,82.4" style="fill:none;stroke:#000000;stroke-width:2.0px;stroke-linecap:butt;stroke-linejoin:miter;stroke-opacity:1;"/>
<path d="M 115.2,99.0 L 114.8,100.0 L 115.4,100.8" style="fill:none;stroke:#000000;stroke-width:2.0px;stroke-linecap:butt;stroke-linejoin:miter;stroke-opacity:1;"/>
<path d="M 142.3,104.9 L 143.1,104.3 L 143.5,104.5" style="fill:none;stroke:#000000;stroke-width:2.0px;stroke-linecap:butt;stroke-linejoin:miter;stroke-opacity:1;"/>
<path d="M 111.3,127.6 L 110.5,128.2 L 110.5,128.6" style="fill:none;stroke:#000000;stroke-width:2.0px;stroke-linecap:butt;stroke-linejoin:miter;stroke-opacity:1;"/>
<path d="M 194.2,35.7 L 193.2,35.8 L 192.9,35.5" style="fill:none;stroke:#000000;stroke-width:2.0px;stroke-linecap:butt;stroke-linejoin:miter;stroke-opacity:1;"/>
<path d="M 232.4,31.5 L 233.4,31.4 L 233.5,31.0" style="fill:none;stroke:#000000;stroke-width:2.0px;stroke-linecap:butt;stroke-linejoin:miter;stroke-opacity:1;"/>
<path d="M 250.2,137.1 L 249.8,138.1 L 248.8,138.2" style="fill:none;stroke:#000000;stroke-width:2.0px;stroke-linecap:butt;stroke-linejoin:miter;stroke-opacity:1;"/>
<path d="M 230.7,140.1 L 229.7,140.3 L 229.3,141.2" style="fill:none;stroke:#000000;stroke-width:2.0px;stroke-linecap:butt;stroke-linejoin:miter;stroke-opacity:1;"/>
<path d="M 239.1,166.5 L 240.0,166.9 L 240.1,167.3" style="fill:none;stroke:#000000;stroke-width:2.0px;stroke-linecap:butt;stroke-linejoin:miter;stroke-opacity:1;"/>
<path d="M 203.9,151.0 L 203.0,150.6 L 202.7,150.9" style="fill:none;stroke:#000000;stroke-width:2.0px;stroke-linecap:butt;stroke-linejoin:miter;stroke-opacity:1;"/>
<path class="atom-10" d="M 261.8 17.9 Q 261.8 16.5, 262.5 15.7 Q 263.1 14.9, 264.4 14.9 Q 265.7 14.9, 266.4 15.7 Q 267.0 16.5, 267.0 17.9 Q 267.0 19.2, 266.3 20.0 Q 265.7 20.8, 264.4 20.8 Q 263.1 20.8, 262.5 20.0 Q 261.8 19.3, 261.8 17.9 M 264.4 20.2 Q 265.3 20.2, 265.7 19.6 Q 266.2 19.0, 266.2 17.9 Q 266.2 16.7, 265.7 16.2 Q 265.3 15.6, 264.4 15.6 Q 263.5 15.6, 263.1 16.2 Q 262.6 16.7, 262.6 17.9 Q 262.6 19.0, 263.1 19.6 Q 263.5 20.2, 264.4 20.2 " fill="#FF0000"/>
<path class="atom-10" d="M 267.9 15.0 L 268.7 15.0 L 268.7 17.4 L 271.6 17.4 L 271.6 15.0 L 272.4 15.0 L 272.4 20.7 L 271.6 20.7 L 271.6 18.1 L 268.7 18.1 L 268.7 20.7 L 267.9 20.7 L 267.9 15.0 " fill="#FF0000"/>
<path class="atom-24" d="M 70.7 48.2 L 71.4 48.2 L 71.4 50.6 L 74.4 50.6 L 74.4 48.2 L 75.1 48.2 L 75.1 53.9 L 74.4 53.9 L 74.4 51.3 L 71.4 51.3 L 71.4 53.9 L 70.7 53.9 L 70.7 48.2 " fill="#FF0000"/>
<path class="atom-24" d="M 76.3 51.1 Q 76.3 49.7, 77.0 48.9 Q 77.7 48.1, 78.9 48.1 Q 80.2 48.1, 80.9 48.9 Q 81.6 49.7, 81.6 51.1 Q 81.6 52.4, 80.9 53.2 Q 80.2 54.0, 78.9 54.0 Q 77.7 54.0, 77.0 53.2 Q 76.3 52.5, 76.3 51.1 M 78.9 53.4 Q 79.8 53.4, 80.3 52.8 Q 80.8 52.2, 80.8 51.1 Q 80.8 49.9, 80.3 49.4 Q 79.8 48.8, 78.9 48.8 Q 78.1 48.8, 77.6 49.4 Q 77.1 49.9, 77.1 51.1 Q 77.1 52.2, 77.6 52.8 Q 78.1 53.4, 78.9 53.4 " fill="#FF0000"/>
<path class="atom-30" d="M 159.0 112.5 Q 159.0 111.1, 159.6 110.3 Q 160.3 109.6, 161.6 109.6 Q 162.9 109.6, 163.5 110.3 Q 164.2 111.1, 164.2 112.5 Q 164.2 113.9, 163.5 114.7 Q 162.9 115.5, 161.6 115.5 Q 160.3 115.5, 159.6 114.7 Q 159.0 113.9, 159.0 112.5 M 161.6 114.8 Q 162.5 114.8, 162.9 114.2 Q 163.4 113.6, 163.4 112.5 Q 163.4 111.4, 162.9 110.8 Q 162.5 110.2, 161.6 110.2 Q 160.7 110.2, 160.2 110.8 Q 159.8 111.3, 159.8 112.5 Q 159.8 113.6, 160.2 114.2 Q 160.7 114.8, 161.6 114.8 " fill="#FF0000"/>
<path class="atom-30" d="M 165.1 109.6 L 165.9 109.6 L 165.9 112.1 L 168.8 112.1 L 168.8 109.6 L 169.6 109.6 L 169.6 115.4 L 168.8 115.4 L 168.8 112.7 L 165.9 112.7 L 165.9 115.4 L 165.1 115.4 L 165.1 109.6 " fill="#FF0000"/>
<path class="atom-32" d="M 89.3 120.1 Q 89.3 118.7, 90.0 118.0 Q 90.7 117.2, 92.0 117.2 Q 93.2 117.2, 93.9 118.0 Q 94.6 118.7, 94.6 120.1 Q 94.6 121.5, 93.9 122.3 Q 93.2 123.1, 92.0 123.1 Q 90.7 123.1, 90.0 122.3 Q 89.3 121.5, 89.3 120.1 M 92.0 122.4 Q 92.8 122.4, 93.3 121.8 Q 93.8 121.3, 93.8 120.1 Q 93.8 119.0, 93.3 118.4 Q 92.8 117.8, 92.0 117.8 Q 91.1 117.8, 90.6 118.4 Q 90.1 119.0, 90.1 120.1 Q 90.1 121.3, 90.6 121.8 Q 91.1 122.4, 92.0 122.4 " fill="#FF0000"/>
<path class="atom-33" d="M 110.0 148.4 Q 110.0 147.0, 110.7 146.2 Q 111.4 145.4, 112.7 145.4 Q 113.9 145.4, 114.6 146.2 Q 115.3 147.0, 115.3 148.4 Q 115.3 149.7, 114.6 150.5 Q 113.9 151.3, 112.7 151.3 Q 111.4 151.3, 110.7 150.5 Q 110.0 149.8, 110.0 148.4 M 112.7 150.7 Q 113.5 150.7, 114.0 150.1 Q 114.5 149.5, 114.5 148.4 Q 114.5 147.2, 114.0 146.7 Q 113.5 146.1, 112.7 146.1 Q 111.8 146.1, 111.3 146.7 Q 110.8 147.2, 110.8 148.4 Q 110.8 149.5, 111.3 150.1 Q 111.8 150.7, 112.7 150.7 " fill="#FF0000"/>
<path class="atom-33" d="M 116.2 145.5 L 117.0 145.5 L 117.0 147.9 L 119.9 147.9 L 119.9 145.5 L 120.7 145.5 L 120.7 151.2 L 119.9 151.2 L 119.9 148.6 L 117.0 148.6 L 117.0 151.2 L 116.2 151.2 L 116.2 145.5 " fill="#FF0000"/>
<path class="atom-37" d="M 172.9 16.7 L 173.7 16.7 L 173.7 19.1 L 176.6 19.1 L 176.6 16.7 L 177.4 16.7 L 177.4 22.4 L 176.6 22.4 L 176.6 19.7 L 173.7 19.7 L 173.7 22.4 L 172.9 22.4 L 172.9 16.7 " fill="#FF0000"/>
<path class="atom-37" d="M 178.6 19.5 Q 178.6 18.1, 179.3 17.4 Q 179.9 16.6, 181.2 16.6 Q 182.5 16.6, 183.2 17.4 Q 183.8 18.1, 183.8 19.5 Q 183.8 20.9, 183.2 21.7 Q 182.5 22.5, 181.2 22.5 Q 179.9 22.5, 179.3 21.7 Q 178.6 20.9, 178.6 19.5 M 181.2 21.8 Q 182.1 21.8, 182.6 21.3 Q 183.0 20.7, 183.0 19.5 Q 183.0 18.4, 182.6 17.8 Q 182.1 17.2, 181.2 17.2 Q 180.3 17.2, 179.9 17.8 Q 179.4 18.4, 179.4 19.5 Q 179.4 20.7, 179.9 21.3 Q 180.3 21.8, 181.2 21.8 " fill="#FF0000"/>
<path class="atom-39" d="M 239.0 38.3 Q 239.0 36.9, 239.7 36.2 Q 240.4 35.4, 241.6 35.4 Q 242.9 35.4, 243.6 36.2 Q 244.3 36.9, 244.3 38.3 Q 244.3 39.7, 243.6 40.5 Q 242.9 41.3, 241.6 41.3 Q 240.4 41.3, 239.7 40.5 Q 239.0 39.7, 239.0 38.3 M 241.6 40.6 Q 242.5 40.6, 243.0 40.0 Q 243.5 39.4, 243.5 38.3 Q 243.5 37.2, 243.0 36.6 Q 242.5 36.0, 241.6 36.0 Q 240.8 36.0, 240.3 36.6 Q 239.8 37.2, 239.8 38.3 Q 239.8 39.5, 240.3 40.0 Q 240.8 40.6, 241.6 40.6 " fill="#FF0000"/>
<path class="atom-40" d="M 238.9 12.9 Q 238.9 11.5, 239.6 10.8 Q 240.3 10.0, 241.5 10.0 Q 242.8 10.0, 243.5 10.8 Q 244.2 11.5, 244.2 12.9 Q 244.2 14.3, 243.5 15.1 Q 242.8 15.9, 241.5 15.9 Q 240.3 15.9, 239.6 15.1 Q 238.9 14.3, 238.9 12.9 M 241.5 15.2 Q 242.4 15.2, 242.9 14.7 Q 243.3 14.1, 243.3 12.9 Q 243.3 11.8, 242.9 11.2 Q 242.4 10.6, 241.5 10.6 Q 240.6 10.6, 240.2 11.2 Q 239.7 11.8, 239.7 12.9 Q 239.7 14.1, 240.2 14.7 Q 240.6 15.2, 241.5 15.2 " fill="#FF0000"/>
<path class="atom-40" d="M 245.0 10.1 L 245.8 10.1 L 245.8 12.5 L 248.7 12.5 L 248.7 10.1 L 249.5 10.1 L 249.5 15.8 L 248.7 15.8 L 248.7 13.1 L 245.8 13.1 L 245.8 15.8 L 245.0 15.8 L 245.0 10.1 " fill="#FF0000"/>
<path class="atom-46" d="M 239.6 187.0 Q 239.6 185.7, 240.3 184.9 Q 241.0 184.1, 242.2 184.1 Q 243.5 184.1, 244.2 184.9 Q 244.9 185.7, 244.9 187.0 Q 244.9 188.4, 244.2 189.2 Q 243.5 190.0, 242.2 190.0 Q 241.0 190.0, 240.3 189.2 Q 239.6 188.4, 239.6 187.0 M 242.2 189.4 Q 243.1 189.4, 243.6 188.8 Q 244.1 188.2, 244.1 187.0 Q 244.1 185.9, 243.6 185.3 Q 243.1 184.8, 242.2 184.8 Q 241.4 184.8, 240.9 185.3 Q 240.4 185.9, 240.4 187.0 Q 240.4 188.2, 240.9 188.8 Q 241.4 189.4, 242.2 189.4 " fill="#FF0000"/>
<path class="atom-46" d="M 245.8 184.2 L 246.5 184.2 L 246.5 186.6 L 249.5 186.6 L 249.5 184.2 L 250.2 184.2 L 250.2 189.9 L 249.5 189.9 L 249.5 187.3 L 246.5 187.3 L 246.5 189.9 L 245.8 189.9 L 245.8 184.2 " fill="#FF0000"/>
<path class="atom-48" d="M 198.2 130.5 Q 198.2 129.2, 198.9 128.4 Q 199.5 127.6, 200.8 127.6 Q 202.1 127.6, 202.8 128.4 Q 203.4 129.2, 203.4 130.5 Q 203.4 131.9, 202.8 132.7 Q 202.1 133.5, 200.8 133.5 Q 199.5 133.5, 198.9 132.7 Q 198.2 131.9, 198.2 130.5 M 200.8 132.9 Q 201.7 132.9, 202.2 132.3 Q 202.6 131.7, 202.6 130.5 Q 202.6 129.4, 202.2 128.8 Q 201.7 128.3, 200.8 128.3 Q 199.9 128.3, 199.5 128.8 Q 199.0 129.4, 199.0 130.5 Q 199.0 131.7, 199.5 132.3 Q 199.9 132.9, 200.8 132.9 " fill="#FF0000"/>
<path class="atom-49" d="M 178.4 159.7 L 179.2 159.7 L 179.2 162.2 L 182.1 162.2 L 182.1 159.7 L 182.9 159.7 L 182.9 165.5 L 182.1 165.5 L 182.1 162.8 L 179.2 162.8 L 179.2 165.5 L 178.4 165.5 L 178.4 159.7 " fill="#FF0000"/>
<path class="atom-49" d="M 184.1 162.6 Q 184.1 161.2, 184.7 160.4 Q 185.4 159.7, 186.7 159.7 Q 188.0 159.7, 188.6 160.4 Q 189.3 161.2, 189.3 162.6 Q 189.3 164.0, 188.6 164.8 Q 188.0 165.6, 186.7 165.6 Q 185.4 165.6, 184.7 164.8 Q 184.1 164.0, 184.1 162.6 M 186.7 164.9 Q 187.6 164.9, 188.0 164.3 Q 188.5 163.7, 188.5 162.6 Q 188.5 161.5, 188.0 160.9 Q 187.6 160.3, 186.7 160.3 Q 185.8 160.3, 185.3 160.9 Q 184.9 161.5, 184.9 162.6 Q 184.9 163.7, 185.3 164.3 Q 185.8 164.9, 186.7 164.9 " fill="#FF0000"/>
</g>
  </g>
</svg>
