<?xml version='1.0' encoding='ASCII' standalone='yes'?>
<svg xmlns="http://www.w3.org/2000/svg" xmlns:xlink="http://www.w3.org/1999/xlink" version="1.1" width="926.0px" viewBox="0 0 926.0 200.0" height="200.0px">
  <g>
    <g transform="translate(0, 0) scale(1 1) "><!-- END OF HEADER -->
<rect style="opacity:1.0;fill:#FFFFFF;stroke:none" width="301.0" height="200.0" x="0.0" y="0.0"> </rect>
<path class="bond-0 atom-0 atom-1" d="M 68.5,49.6 L 82.9,74.0" style="fill:none;fill-rule:evenodd;stroke:#000000;stroke-width:2.0px;stroke-linecap:butt;stroke-linejoin:miter;stroke-opacity:1"/>
<path class="bond-1 atom-1 atom-2" d="M 82.9,74.0 L 94.7,73.9" style="fill:none;fill-rule:evenodd;stroke:#000000;stroke-width:2.0px;stroke-linecap:butt;stroke-linejoin:miter;stroke-opacity:1"/>
<path class="bond-1 atom-1 atom-2" d="M 94.7,73.9 L 106.6,73.8" style="fill:none;fill-rule:evenodd;stroke:#FF0000;stroke-width:2.0px;stroke-linecap:butt;stroke-linejoin:miter;stroke-opacity:1"/>
<path class="bond-2 atom-2 atom-3" d="M 114.2,78.8 L 119.8,88.5" style="fill:none;fill-rule:evenodd;stroke:#FF0000;stroke-width:2.0px;stroke-linecap:butt;stroke-linejoin:miter;stroke-opacity:1"/>
<path class="bond-2 atom-2 atom-3" d="M 119.8,88.5 L 125.5,98.1" style="fill:none;fill-rule:evenodd;stroke:#000000;stroke-width:2.0px;stroke-linecap:butt;stroke-linejoin:miter;stroke-opacity:1"/>
<path class="bond-3 atom-3 atom-4" d="M 125.5,98.1 L 153.8,97.9" style="fill:none;fill-rule:evenodd;stroke:#000000;stroke-width:2.0px;stroke-linecap:butt;stroke-linejoin:miter;stroke-opacity:1"/>
<path class="bond-4 atom-4 atom-5" d="M 153.8,97.9 L 153.6,69.6" style="fill:none;fill-rule:evenodd;stroke:#000000;stroke-width:2.0px;stroke-linecap:butt;stroke-linejoin:miter;stroke-opacity:1"/>
<path class="bond-5 atom-4 atom-6" d="M 153.8,97.9 L 154.0,126.2" style="fill:none;fill-rule:evenodd;stroke:#000000;stroke-width:2.0px;stroke-linecap:butt;stroke-linejoin:miter;stroke-opacity:1"/>
<path class="bond-6 atom-4 atom-7" d="M 153.8,97.9 L 182.1,97.7" style="fill:none;fill-rule:evenodd;stroke:#000000;stroke-width:2.0px;stroke-linecap:butt;stroke-linejoin:miter;stroke-opacity:1"/>
<path class="bond-7 atom-7 atom-8" d="M 179.7,97.7 L 185.7,107.9" style="fill:none;fill-rule:evenodd;stroke:#000000;stroke-width:2.0px;stroke-linecap:butt;stroke-linejoin:miter;stroke-opacity:1"/>
<path class="bond-7 atom-7 atom-8" d="M 185.7,107.9 L 191.7,118.2" style="fill:none;fill-rule:evenodd;stroke:#FF0000;stroke-width:2.0px;stroke-linecap:butt;stroke-linejoin:miter;stroke-opacity:1"/>
<path class="bond-7 atom-7 atom-8" d="M 183.3,95.6 L 189.3,105.8" style="fill:none;fill-rule:evenodd;stroke:#000000;stroke-width:2.0px;stroke-linecap:butt;stroke-linejoin:miter;stroke-opacity:1"/>
<path class="bond-7 atom-7 atom-8" d="M 189.3,105.8 L 195.4,116.0" style="fill:none;fill-rule:evenodd;stroke:#FF0000;stroke-width:2.0px;stroke-linecap:butt;stroke-linejoin:miter;stroke-opacity:1"/>
<path class="bond-8 atom-7 atom-9" d="M 182.1,97.7 L 187.6,87.9" style="fill:none;fill-rule:evenodd;stroke:#000000;stroke-width:2.0px;stroke-linecap:butt;stroke-linejoin:miter;stroke-opacity:1"/>
<path class="bond-8 atom-7 atom-9" d="M 187.6,87.9 L 193.2,78.2" style="fill:none;fill-rule:evenodd;stroke:#FF0000;stroke-width:2.0px;stroke-linecap:butt;stroke-linejoin:miter;stroke-opacity:1"/>
<path class="bond-9 atom-9 atom-10" d="M 200.7,73.0 L 212.5,72.9" style="fill:none;fill-rule:evenodd;stroke:#FF0000;stroke-width:2.0px;stroke-linecap:butt;stroke-linejoin:miter;stroke-opacity:1"/>
<path class="bond-9 atom-9 atom-10" d="M 212.5,72.9 L 224.4,72.8" style="fill:none;fill-rule:evenodd;stroke:#000000;stroke-width:2.0px;stroke-linecap:butt;stroke-linejoin:miter;stroke-opacity:1"/>
<path class="bond-10 atom-10 atom-11" d="M 224.4,72.8 L 238.3,48.2" style="fill:none;fill-rule:evenodd;stroke:#000000;stroke-width:2.0px;stroke-linecap:butt;stroke-linejoin:miter;stroke-opacity:1"/>
<path class="bond-11 atom-10 atom-12" d="M 224.4,72.8 L 238.7,97.2" style="fill:none;fill-rule:evenodd;stroke:#000000;stroke-width:2.0px;stroke-linecap:butt;stroke-linejoin:miter;stroke-opacity:1"/>
<path class="bond-12 atom-12 atom-13" d="M 238.7,97.2 L 214.3,111.6" style="fill:none;fill-rule:evenodd;stroke:#000000;stroke-width:2.0px;stroke-linecap:butt;stroke-linejoin:miter;stroke-opacity:1"/>
<path class="bond-13 atom-12 atom-14" d="M 238.7,97.2 L 263.1,82.9" style="fill:none;fill-rule:evenodd;stroke:#000000;stroke-width:2.0px;stroke-linecap:butt;stroke-linejoin:miter;stroke-opacity:1"/>
<path class="bond-14 atom-12 atom-15" d="M 238.7,97.2 L 253.1,121.6" style="fill:none;fill-rule:evenodd;stroke:#000000;stroke-width:2.0px;stroke-linecap:butt;stroke-linejoin:miter;stroke-opacity:1"/>
<path class="bond-15 atom-15 atom-16" d="M 251.9,123.8 L 264.3,123.7" style="fill:none;fill-rule:evenodd;stroke:#000000;stroke-width:2.0px;stroke-linecap:butt;stroke-linejoin:miter;stroke-opacity:1"/>
<path class="bond-15 atom-15 atom-16" d="M 264.3,123.7 L 276.8,123.6" style="fill:none;fill-rule:evenodd;stroke:#FF0000;stroke-width:2.0px;stroke-linecap:butt;stroke-linejoin:miter;stroke-opacity:1"/>
<path class="bond-15 atom-15 atom-16" d="M 251.8,119.5 L 264.3,119.4" style="fill:none;fill-rule:evenodd;stroke:#000000;stroke-width:2.0px;stroke-linecap:butt;stroke-linejoin:miter;stroke-opacity:1"/>
<path class="bond-15 atom-15 atom-16" d="M 264.3,119.4 L 276.7,119.3" style="fill:none;fill-rule:evenodd;stroke:#FF0000;stroke-width:2.0px;stroke-linecap:butt;stroke-linejoin:miter;stroke-opacity:1"/>
<path class="bond-16 atom-15 atom-17" d="M 253.1,121.6 L 247.5,131.5" style="fill:none;fill-rule:evenodd;stroke:#000000;stroke-width:2.0px;stroke-linecap:butt;stroke-linejoin:miter;stroke-opacity:1"/>
<path class="bond-16 atom-15 atom-17" d="M 247.5,131.5 L 241.9,141.3" style="fill:none;fill-rule:evenodd;stroke:#FF0000;stroke-width:2.0px;stroke-linecap:butt;stroke-linejoin:miter;stroke-opacity:1"/>
<path class="bond-17 atom-1 atom-18" d="M 82.9,74.0 L 68.9,98.6" style="fill:none;fill-rule:evenodd;stroke:#000000;stroke-width:2.0px;stroke-linecap:butt;stroke-linejoin:miter;stroke-opacity:1"/>
<path class="bond-18 atom-18 atom-19" d="M 68.9,98.6 L 44.3,84.6" style="fill:none;fill-rule:evenodd;stroke:#000000;stroke-width:2.0px;stroke-linecap:butt;stroke-linejoin:miter;stroke-opacity:1"/>
<path class="bond-19 atom-18 atom-20" d="M 68.9,98.6 L 93.5,112.5" style="fill:none;fill-rule:evenodd;stroke:#000000;stroke-width:2.0px;stroke-linecap:butt;stroke-linejoin:miter;stroke-opacity:1"/>
<path class="bond-20 atom-18 atom-21" d="M 68.9,98.6 L 54.9,123.2" style="fill:none;fill-rule:evenodd;stroke:#000000;stroke-width:2.0px;stroke-linecap:butt;stroke-linejoin:miter;stroke-opacity:1"/>
<path class="bond-21 atom-21 atom-22" d="M 52.5,123.2 L 58.5,133.5" style="fill:none;fill-rule:evenodd;stroke:#000000;stroke-width:2.0px;stroke-linecap:butt;stroke-linejoin:miter;stroke-opacity:1"/>
<path class="bond-21 atom-21 atom-22" d="M 58.5,133.5 L 64.5,143.7" style="fill:none;fill-rule:evenodd;stroke:#FF0000;stroke-width:2.0px;stroke-linecap:butt;stroke-linejoin:miter;stroke-opacity:1"/>
<path class="bond-21 atom-21 atom-22" d="M 56.2,121.1 L 62.2,131.3" style="fill:none;fill-rule:evenodd;stroke:#000000;stroke-width:2.0px;stroke-linecap:butt;stroke-linejoin:miter;stroke-opacity:1"/>
<path class="bond-21 atom-21 atom-22" d="M 62.2,131.3 L 68.2,141.5" style="fill:none;fill-rule:evenodd;stroke:#FF0000;stroke-width:2.0px;stroke-linecap:butt;stroke-linejoin:miter;stroke-opacity:1"/>
<path class="bond-22 atom-21 atom-23" d="M 54.9,123.2 L 43.1,123.3" style="fill:none;fill-rule:evenodd;stroke:#000000;stroke-width:2.0px;stroke-linecap:butt;stroke-linejoin:miter;stroke-opacity:1"/>
<path class="bond-22 atom-21 atom-23" d="M 43.1,123.3 L 31.3,123.4" style="fill:none;fill-rule:evenodd;stroke:#FF0000;stroke-width:2.0px;stroke-linecap:butt;stroke-linejoin:miter;stroke-opacity:1"/>
<path d="M 125.2,97.7 L 125.5,98.1 L 126.9,98.1" style="fill:none;stroke:#000000;stroke-width:2.0px;stroke-linecap:butt;stroke-linejoin:miter;stroke-opacity:1;"/>
<path d="M 180.7,97.7 L 182.1,97.7 L 182.4,97.2" style="fill:none;stroke:#000000;stroke-width:2.0px;stroke-linecap:butt;stroke-linejoin:miter;stroke-opacity:1;"/>
<path d="M 252.4,120.4 L 253.1,121.6 L 252.8,122.1" style="fill:none;stroke:#000000;stroke-width:2.0px;stroke-linecap:butt;stroke-linejoin:miter;stroke-opacity:1;"/>
<path d="M 55.6,122.0 L 54.9,123.2 L 54.4,123.2" style="fill:none;stroke:#000000;stroke-width:2.0px;stroke-linecap:butt;stroke-linejoin:miter;stroke-opacity:1;"/>
<path class="atom-2" d="M 107.5 73.8 Q 107.5 71.8, 108.4 70.8 Q 109.4 69.7, 111.2 69.7 Q 112.9 69.7, 113.9 70.8 Q 114.8 71.8, 114.8 73.8 Q 114.8 75.7, 113.9 76.8 Q 112.9 77.9, 111.2 77.9 Q 109.4 77.9, 108.4 76.8 Q 107.5 75.7, 107.5 73.8 M 111.2 77.0 Q 112.4 77.0, 113.0 76.2 Q 113.7 75.4, 113.7 73.8 Q 113.7 72.2, 113.0 71.4 Q 112.4 70.6, 111.2 70.6 Q 109.9 70.6, 109.3 71.4 Q 108.6 72.2, 108.6 73.8 Q 108.6 75.4, 109.3 76.2 Q 109.9 77.0, 111.2 77.0 " fill="#FF0000"/>
<path class="atom-8" d="M 192.8 122.1 Q 192.8 120.2, 193.7 119.1 Q 194.7 118.0, 196.5 118.0 Q 198.2 118.0, 199.2 119.1 Q 200.1 120.2, 200.1 122.1 Q 200.1 124.1, 199.2 125.2 Q 198.2 126.3, 196.5 126.3 Q 194.7 126.3, 193.7 125.2 Q 192.8 124.1, 192.8 122.1 M 196.5 125.4 Q 197.7 125.4, 198.3 124.5 Q 199.0 123.7, 199.0 122.1 Q 199.0 120.5, 198.3 119.7 Q 197.7 118.9, 196.5 118.9 Q 195.2 118.9, 194.6 119.7 Q 193.9 120.5, 193.9 122.1 Q 193.9 123.7, 194.6 124.5 Q 195.2 125.4, 196.5 125.4 " fill="#FF0000"/>
<path class="atom-9" d="M 192.4 73.1 Q 192.4 71.2, 193.3 70.1 Q 194.3 69.0, 196.1 69.0 Q 197.9 69.0, 198.8 70.1 Q 199.8 71.2, 199.8 73.1 Q 199.8 75.0, 198.8 76.1 Q 197.8 77.2, 196.1 77.2 Q 194.3 77.2, 193.3 76.1 Q 192.4 75.0, 192.4 73.1 M 196.1 76.3 Q 197.3 76.3, 198.0 75.5 Q 198.6 74.7, 198.6 73.1 Q 198.6 71.5, 198.0 70.7 Q 197.3 69.9, 196.1 69.9 Q 194.9 69.9, 194.2 70.7 Q 193.5 71.5, 193.5 73.1 Q 193.5 74.7, 194.2 75.5 Q 194.9 76.3, 196.1 76.3 " fill="#FF0000"/>
<path class="atom-16" d="M 277.7 121.4 Q 277.7 119.5, 278.6 118.4 Q 279.6 117.4, 281.4 117.4 Q 283.1 117.4, 284.1 118.4 Q 285.1 119.5, 285.1 121.4 Q 285.1 123.4, 284.1 124.5 Q 283.1 125.6, 281.4 125.6 Q 279.6 125.6, 278.6 124.5 Q 277.7 123.4, 277.7 121.4 M 281.4 124.7 Q 282.6 124.7, 283.2 123.9 Q 283.9 123.0, 283.9 121.4 Q 283.9 119.9, 283.2 119.1 Q 282.6 118.3, 281.4 118.3 Q 280.1 118.3, 279.5 119.1 Q 278.8 119.9, 278.8 121.4 Q 278.8 123.1, 279.5 123.9 Q 280.1 124.7, 281.4 124.7 " fill="#FF0000"/>
<path class="atom-17" d="M 227.5 142.3 L 228.6 142.3 L 228.6 145.7 L 232.7 145.7 L 232.7 142.3 L 233.8 142.3 L 233.8 150.3 L 232.7 150.3 L 232.7 146.6 L 228.6 146.6 L 228.6 150.3 L 227.5 150.3 L 227.5 142.3 " fill="#FF0000"/>
<path class="atom-17" d="M 235.4 146.3 Q 235.4 144.4, 236.4 143.3 Q 237.3 142.2, 239.1 142.2 Q 240.9 142.2, 241.8 143.3 Q 242.8 144.4, 242.8 146.3 Q 242.8 148.2, 241.8 149.3 Q 240.9 150.4, 239.1 150.4 Q 237.3 150.4, 236.4 149.3 Q 235.4 148.2, 235.4 146.3 M 239.1 149.5 Q 240.3 149.5, 241.0 148.7 Q 241.7 147.9, 241.7 146.3 Q 241.7 144.7, 241.0 143.9 Q 240.3 143.1, 239.1 143.1 Q 237.9 143.1, 237.2 143.9 Q 236.6 144.7, 236.6 146.3 Q 236.6 147.9, 237.2 148.7 Q 237.9 149.5, 239.1 149.5 " fill="#FF0000"/>
<path class="atom-22" d="M 65.6 147.6 Q 65.6 145.7, 66.6 144.6 Q 67.5 143.6, 69.3 143.6 Q 71.1 143.6, 72.0 144.6 Q 73.0 145.7, 73.0 147.6 Q 73.0 149.6, 72.0 150.7 Q 71.0 151.8, 69.3 151.8 Q 67.5 151.8, 66.6 150.7 Q 65.6 149.6, 65.6 147.6 M 69.3 150.9 Q 70.5 150.9, 71.2 150.1 Q 71.8 149.2, 71.8 147.6 Q 71.8 146.1, 71.2 145.3 Q 70.5 144.5, 69.3 144.5 Q 68.1 144.5, 67.4 145.2 Q 66.7 146.0, 66.7 147.6 Q 66.7 149.2, 67.4 150.1 Q 68.1 150.9, 69.3 150.9 " fill="#FF0000"/>
<path class="atom-23" d="M 15.0 119.5 L 16.1 119.5 L 16.1 122.9 L 20.2 122.9 L 20.2 119.5 L 21.3 119.5 L 21.3 127.5 L 20.2 127.5 L 20.2 123.8 L 16.1 123.8 L 16.1 127.5 L 15.0 127.5 L 15.0 119.5 " fill="#FF0000"/>
<path class="atom-23" d="M 23.0 123.5 Q 23.0 121.5, 23.9 120.5 Q 24.9 119.4, 26.6 119.4 Q 28.4 119.4, 29.4 120.5 Q 30.3 121.5, 30.3 123.5 Q 30.3 125.4, 29.4 126.5 Q 28.4 127.6, 26.6 127.6 Q 24.9 127.6, 23.9 126.5 Q 23.0 125.4, 23.0 123.5 M 26.6 126.7 Q 27.9 126.7, 28.5 125.9 Q 29.2 125.1, 29.2 123.5 Q 29.2 121.9, 28.5 121.1 Q 27.9 120.3, 26.6 120.3 Q 25.4 120.3, 24.8 121.1 Q 24.1 121.9, 24.1 123.5 Q 24.1 125.1, 24.8 125.9 Q 25.4 126.7, 26.6 126.7 " fill="#FF0000"/>
</g>
    <g transform="translate(301.0, 0) scale(1 1) "><line x1="15" y1="100" x2="25" y2="100" style="stroke:rgb(0,0,0);stroke-width:2"/>
  <line x1="20" y1="95" x2="20" y2="105" style="stroke:rgb(0,0,0);stroke-width:2"/>
</g>
    <g transform="translate(341.0, 0) scale(1 1) "><!-- END OF HEADER -->
<rect style="opacity:1.0;fill:#FFFFFF;stroke:none" width="25.0" height="200.0" x="0.0" y="0.0"> </rect>
<path class="atom-0" d="M 1.2 93.4 L 2.5 93.4 L 2.5 97.2 L 7.0 97.2 L 7.0 93.4 L 8.2 93.4 L 8.2 102.3 L 7.0 102.3 L 7.0 98.2 L 2.5 98.2 L 2.5 102.3 L 1.2 102.3 L 1.2 93.4 " fill="#FF0000"/>
<path class="atom-0" d="M 10.0 102.0 Q 10.2 101.4, 10.7 101.1 Q 11.2 100.8, 11.9 100.8 Q 12.8 100.8, 13.3 101.3 Q 13.8 101.7, 13.8 102.6 Q 13.8 103.5, 13.2 104.3 Q 12.5 105.1, 11.2 106.0 L 13.9 106.0 L 13.9 106.7 L 10.0 106.7 L 10.0 106.2 Q 11.1 105.4, 11.7 104.8 Q 12.4 104.2, 12.7 103.7 Q 13.0 103.2, 13.0 102.6 Q 13.0 102.1, 12.7 101.8 Q 12.4 101.4, 11.9 101.4 Q 11.5 101.4, 11.1 101.6 Q 10.8 101.8, 10.6 102.2 L 10.0 102.0 " fill="#FF0000"/>
<path class="atom-0" d="M 15.1 97.8 Q 15.1 95.7, 16.2 94.5 Q 17.2 93.3, 19.2 93.3 Q 21.1 93.3, 22.2 94.5 Q 23.2 95.7, 23.2 97.8 Q 23.2 100.0, 22.2 101.2 Q 21.1 102.4, 19.2 102.4 Q 17.2 102.4, 16.2 101.2 Q 15.1 100.0, 15.1 97.8 M 19.2 101.4 Q 20.5 101.4, 21.3 100.5 Q 22.0 99.6, 22.0 97.8 Q 22.0 96.1, 21.3 95.2 Q 20.5 94.3, 19.2 94.3 Q 17.8 94.3, 17.1 95.2 Q 16.4 96.1, 16.4 97.8 Q 16.4 99.6, 17.1 100.5 Q 17.8 101.4, 19.2 101.4 " fill="#FF0000"/>
</g>
    <g transform="translate(366.0, 0) scale(1 1) "><line x1="5" y1="100" x2="35" y2="100" style="stroke:rgb(0,0,0);stroke-width:2"/>
  <line x1="34" y1="100" x2="29" y2="95" style="stroke:rgb(0,0,0);stroke-width:2"/>
  <line x1="34" y1="100" x2="29" y2="105" style="stroke:rgb(0,0,0);stroke-width:2"/>
</g>
    <g transform="translate(406.0, 0) scale(1 1) "><!-- END OF HEADER -->
<rect style="opacity:1.0;fill:#FFFFFF;stroke:none" width="265.0" height="200.0" x="0.0" y="0.0"> </rect>
<path class="bond-0 atom-0 atom-1" d="M 84.2,37.8 L 99.7,68.6" style="fill:none;fill-rule:evenodd;stroke:#000000;stroke-width:2.0px;stroke-linecap:butt;stroke-linejoin:miter;stroke-opacity:1"/>
<path class="bond-1 atom-1 atom-2" d="M 99.7,68.6 L 114.2,69.4" style="fill:none;fill-rule:evenodd;stroke:#000000;stroke-width:2.0px;stroke-linecap:butt;stroke-linejoin:miter;stroke-opacity:1"/>
<path class="bond-1 atom-1 atom-2" d="M 114.2,69.4 L 128.6,70.3" style="fill:none;fill-rule:evenodd;stroke:#FF0000;stroke-width:2.0px;stroke-linecap:butt;stroke-linejoin:miter;stroke-opacity:1"/>
<path class="bond-2 atom-2 atom-3" d="M 137.3,76.8 L 143.5,89.1" style="fill:none;fill-rule:evenodd;stroke:#FF0000;stroke-width:2.0px;stroke-linecap:butt;stroke-linejoin:miter;stroke-opacity:1"/>
<path class="bond-2 atom-2 atom-3" d="M 143.5,89.1 L 149.7,101.4" style="fill:none;fill-rule:evenodd;stroke:#000000;stroke-width:2.0px;stroke-linecap:butt;stroke-linejoin:miter;stroke-opacity:1"/>
<path class="bond-3 atom-3 atom-4" d="M 149.7,101.4 L 184.2,103.4" style="fill:none;fill-rule:evenodd;stroke:#000000;stroke-width:2.0px;stroke-linecap:butt;stroke-linejoin:miter;stroke-opacity:1"/>
<path class="bond-4 atom-4 atom-5" d="M 184.2,103.4 L 186.2,68.9" style="fill:none;fill-rule:evenodd;stroke:#000000;stroke-width:2.0px;stroke-linecap:butt;stroke-linejoin:miter;stroke-opacity:1"/>
<path class="bond-5 atom-4 atom-6" d="M 184.2,103.4 L 182.2,137.9" style="fill:none;fill-rule:evenodd;stroke:#000000;stroke-width:2.0px;stroke-linecap:butt;stroke-linejoin:miter;stroke-opacity:1"/>
<path class="bond-6 atom-4 atom-7" d="M 184.2,103.4 L 218.6,105.4" style="fill:none;fill-rule:evenodd;stroke:#000000;stroke-width:2.0px;stroke-linecap:butt;stroke-linejoin:miter;stroke-opacity:1"/>
<path class="bond-7 atom-7 atom-8" d="M 215.7,105.2 L 222.2,118.3" style="fill:none;fill-rule:evenodd;stroke:#000000;stroke-width:2.0px;stroke-linecap:butt;stroke-linejoin:miter;stroke-opacity:1"/>
<path class="bond-7 atom-7 atom-8" d="M 222.2,118.3 L 228.8,131.3" style="fill:none;fill-rule:evenodd;stroke:#FF0000;stroke-width:2.0px;stroke-linecap:butt;stroke-linejoin:miter;stroke-opacity:1"/>
<path class="bond-7 atom-7 atom-8" d="M 220.3,102.9 L 226.8,115.9" style="fill:none;fill-rule:evenodd;stroke:#000000;stroke-width:2.0px;stroke-linecap:butt;stroke-linejoin:miter;stroke-opacity:1"/>
<path class="bond-7 atom-7 atom-8" d="M 226.8,115.9 L 233.4,129.0" style="fill:none;fill-rule:evenodd;stroke:#FF0000;stroke-width:2.0px;stroke-linecap:butt;stroke-linejoin:miter;stroke-opacity:1"/>
<path class="bond-8 atom-7 atom-9" d="M 218.6,105.4 L 226.1,94.1" style="fill:none;fill-rule:evenodd;stroke:#000000;stroke-width:2.0px;stroke-linecap:butt;stroke-linejoin:miter;stroke-opacity:1"/>
<path class="bond-8 atom-7 atom-9" d="M 226.1,94.1 L 233.5,82.8" style="fill:none;fill-rule:evenodd;stroke:#FF0000;stroke-width:2.0px;stroke-linecap:butt;stroke-linejoin:miter;stroke-opacity:1"/>
<path class="bond-9 atom-1 atom-10" d="M 99.7,68.6 L 80.8,97.5" style="fill:none;fill-rule:evenodd;stroke:#000000;stroke-width:2.0px;stroke-linecap:butt;stroke-linejoin:miter;stroke-opacity:1"/>
<path class="bond-10 atom-10 atom-11" d="M 80.8,97.5 L 51.9,78.5" style="fill:none;fill-rule:evenodd;stroke:#000000;stroke-width:2.0px;stroke-linecap:butt;stroke-linejoin:miter;stroke-opacity:1"/>
<path class="bond-11 atom-10 atom-12" d="M 80.8,97.5 L 109.7,116.4" style="fill:none;fill-rule:evenodd;stroke:#000000;stroke-width:2.0px;stroke-linecap:butt;stroke-linejoin:miter;stroke-opacity:1"/>
<path class="bond-12 atom-10 atom-13" d="M 80.8,97.5 L 61.9,126.3" style="fill:none;fill-rule:evenodd;stroke:#000000;stroke-width:2.0px;stroke-linecap:butt;stroke-linejoin:miter;stroke-opacity:1"/>
<path class="bond-13 atom-13 atom-14" d="M 58.9,126.1 L 65.4,139.2" style="fill:none;fill-rule:evenodd;stroke:#000000;stroke-width:2.0px;stroke-linecap:butt;stroke-linejoin:miter;stroke-opacity:1"/>
<path class="bond-13 atom-13 atom-14" d="M 65.4,139.2 L 72.0,152.2" style="fill:none;fill-rule:evenodd;stroke:#FF0000;stroke-width:2.0px;stroke-linecap:butt;stroke-linejoin:miter;stroke-opacity:1"/>
<path class="bond-13 atom-13 atom-14" d="M 63.5,123.8 L 70.1,136.9" style="fill:none;fill-rule:evenodd;stroke:#000000;stroke-width:2.0px;stroke-linecap:butt;stroke-linejoin:miter;stroke-opacity:1"/>
<path class="bond-13 atom-13 atom-14" d="M 70.1,136.9 L 76.6,149.9" style="fill:none;fill-rule:evenodd;stroke:#FF0000;stroke-width:2.0px;stroke-linecap:butt;stroke-linejoin:miter;stroke-opacity:1"/>
<path class="bond-14 atom-13 atom-15" d="M 61.9,126.3 L 47.4,125.5" style="fill:none;fill-rule:evenodd;stroke:#000000;stroke-width:2.0px;stroke-linecap:butt;stroke-linejoin:miter;stroke-opacity:1"/>
<path class="bond-14 atom-13 atom-15" d="M 47.4,125.5 L 33.0,124.6" style="fill:none;fill-rule:evenodd;stroke:#FF0000;stroke-width:2.0px;stroke-linecap:butt;stroke-linejoin:miter;stroke-opacity:1"/>
<path d="M 149.4,100.8 L 149.7,101.4 L 151.4,101.5" style="fill:none;stroke:#000000;stroke-width:2.0px;stroke-linecap:butt;stroke-linejoin:miter;stroke-opacity:1;"/>
<path d="M 216.9,105.3 L 218.6,105.4 L 219.0,104.8" style="fill:none;stroke:#000000;stroke-width:2.0px;stroke-linecap:butt;stroke-linejoin:miter;stroke-opacity:1;"/>
<path d="M 62.8,124.9 L 61.9,126.3 L 61.1,126.3" style="fill:none;stroke:#000000;stroke-width:2.0px;stroke-linecap:butt;stroke-linejoin:miter;stroke-opacity:1;"/>
<path class="atom-2" d="M 129.7 70.6 Q 129.7 68.3, 130.9 67.0 Q 132.0 65.6, 134.2 65.6 Q 136.4 65.6, 137.5 67.0 Q 138.7 68.3, 138.7 70.6 Q 138.7 73.0, 137.5 74.3 Q 136.3 75.7, 134.2 75.7 Q 132.1 75.7, 130.9 74.3 Q 129.7 73.0, 129.7 70.6 M 134.2 74.6 Q 135.7 74.6, 136.5 73.6 Q 137.3 72.6, 137.3 70.6 Q 137.3 68.7, 136.5 67.7 Q 135.7 66.7, 134.2 66.7 Q 132.7 66.7, 131.9 67.7 Q 131.1 68.7, 131.1 70.6 Q 131.1 72.6, 131.9 73.6 Q 132.7 74.6, 134.2 74.6 " fill="#FF0000"/>
<path class="atom-8" d="M 229.7 136.2 Q 229.7 133.9, 230.8 132.6 Q 232.0 131.3, 234.2 131.3 Q 236.3 131.3, 237.5 132.6 Q 238.6 133.9, 238.6 136.2 Q 238.6 138.6, 237.5 140.0 Q 236.3 141.3, 234.2 141.3 Q 232.0 141.3, 230.8 140.0 Q 229.7 138.6, 229.7 136.2 M 234.2 140.2 Q 235.6 140.2, 236.4 139.2 Q 237.3 138.2, 237.3 136.2 Q 237.3 134.3, 236.4 133.4 Q 235.6 132.4, 234.2 132.4 Q 232.7 132.4, 231.9 133.3 Q 231.1 134.3, 231.1 136.2 Q 231.1 138.2, 231.9 139.2 Q 232.7 140.2, 234.2 140.2 " fill="#FF0000"/>
<path class="atom-9" d="M 233.1 76.6 Q 233.1 74.2, 234.3 72.9 Q 235.4 71.6, 237.6 71.6 Q 239.8 71.6, 240.9 72.9 Q 242.1 74.2, 242.1 76.6 Q 242.1 78.9, 240.9 80.3 Q 239.7 81.6, 237.6 81.6 Q 235.4 81.6, 234.3 80.3 Q 233.1 78.9, 233.1 76.6 M 237.6 80.5 Q 239.1 80.5, 239.9 79.5 Q 240.7 78.5, 240.7 76.6 Q 240.7 74.6, 239.9 73.7 Q 239.1 72.7, 237.6 72.7 Q 236.1 72.7, 235.3 73.7 Q 234.5 74.6, 234.5 76.6 Q 234.5 78.5, 235.3 79.5 Q 236.1 80.5, 237.6 80.5 " fill="#FF0000"/>
<path class="atom-9" d="M 243.6 71.7 L 244.9 71.7 L 244.9 75.9 L 249.9 75.9 L 249.9 71.7 L 251.2 71.7 L 251.2 81.5 L 249.9 81.5 L 249.9 77.0 L 244.9 77.0 L 244.9 81.5 L 243.6 81.5 L 243.6 71.7 " fill="#FF0000"/>
<path class="atom-14" d="M 72.9 157.2 Q 72.9 154.8, 74.0 153.5 Q 75.2 152.2, 77.4 152.2 Q 79.5 152.2, 80.7 153.5 Q 81.9 154.8, 81.9 157.2 Q 81.9 159.5, 80.7 160.9 Q 79.5 162.2, 77.4 162.2 Q 75.2 162.2, 74.0 160.9 Q 72.9 159.6, 72.9 157.2 M 77.4 161.1 Q 78.9 161.1, 79.7 160.1 Q 80.5 159.1, 80.5 157.2 Q 80.5 155.2, 79.7 154.3 Q 78.9 153.3, 77.4 153.3 Q 75.9 153.3, 75.1 154.3 Q 74.3 155.2, 74.3 157.2 Q 74.3 159.1, 75.1 160.1 Q 75.9 161.1, 77.4 161.1 " fill="#FF0000"/>
<path class="atom-15" d="M 13.2 119.5 L 14.6 119.5 L 14.6 123.6 L 19.6 123.6 L 19.6 119.5 L 20.9 119.5 L 20.9 129.3 L 19.6 129.3 L 19.6 124.8 L 14.6 124.8 L 14.6 129.3 L 13.2 129.3 L 13.2 119.5 " fill="#FF0000"/>
<path class="atom-15" d="M 22.9 124.3 Q 22.9 122.0, 24.1 120.7 Q 25.2 119.4, 27.4 119.4 Q 29.6 119.4, 30.7 120.7 Q 31.9 122.0, 31.9 124.3 Q 31.9 126.7, 30.7 128.1 Q 29.5 129.4, 27.4 129.4 Q 25.2 129.4, 24.1 128.1 Q 22.9 126.7, 22.9 124.3 M 27.4 128.3 Q 28.9 128.3, 29.7 127.3 Q 30.5 126.3, 30.5 124.3 Q 30.5 122.4, 29.7 121.5 Q 28.9 120.5, 27.4 120.5 Q 25.9 120.5, 25.1 121.5 Q 24.3 122.4, 24.3 124.3 Q 24.3 126.3, 25.1 127.3 Q 25.9 128.3, 27.4 128.3 " fill="#FF0000"/>
</g>
    <g transform="translate(671.0, 0) scale(1 1) "><line x1="15" y1="100" x2="25" y2="100" style="stroke:rgb(0,0,0);stroke-width:2"/>
  <line x1="20" y1="95" x2="20" y2="105" style="stroke:rgb(0,0,0);stroke-width:2"/>
</g>
    <g transform="translate(711.0, 0) scale(1 1) "><!-- END OF HEADER -->
<rect style="opacity:1.0;fill:#FFFFFF;stroke:none" width="215.0" height="200.0" x="0.0" y="0.0"> </rect>
<path class="bond-0 atom-0 atom-1" d="M 183.7,56.0 L 158.3,99.9" style="fill:none;fill-rule:evenodd;stroke:#000000;stroke-width:2.0px;stroke-linecap:butt;stroke-linejoin:miter;stroke-opacity:1"/>
<path class="bond-1 atom-1 atom-2" d="M 158.3,99.9 L 168.4,117.4" style="fill:none;fill-rule:evenodd;stroke:#000000;stroke-width:2.0px;stroke-linecap:butt;stroke-linejoin:miter;stroke-opacity:1"/>
<path class="bond-1 atom-1 atom-2" d="M 168.4,117.4 L 178.5,134.9" style="fill:none;fill-rule:evenodd;stroke:#FF0000;stroke-width:2.0px;stroke-linecap:butt;stroke-linejoin:miter;stroke-opacity:1"/>
<path class="bond-2 atom-1 atom-3" d="M 158.3,99.9 L 107.6,99.9" style="fill:none;fill-rule:evenodd;stroke:#000000;stroke-width:2.0px;stroke-linecap:butt;stroke-linejoin:miter;stroke-opacity:1"/>
<path class="bond-3 atom-3 atom-4" d="M 107.6,99.9 L 107.6,49.2" style="fill:none;fill-rule:evenodd;stroke:#000000;stroke-width:2.0px;stroke-linecap:butt;stroke-linejoin:miter;stroke-opacity:1"/>
<path class="bond-4 atom-3 atom-5" d="M 107.6,99.9 L 107.6,150.6" style="fill:none;fill-rule:evenodd;stroke:#000000;stroke-width:2.0px;stroke-linecap:butt;stroke-linejoin:miter;stroke-opacity:1"/>
<path class="bond-5 atom-3 atom-6" d="M 107.6,99.9 L 56.9,99.9" style="fill:none;fill-rule:evenodd;stroke:#000000;stroke-width:2.0px;stroke-linecap:butt;stroke-linejoin:miter;stroke-opacity:1"/>
<path class="bond-6 atom-6 atom-7" d="M 54.7,96.1 L 44.0,114.5" style="fill:none;fill-rule:evenodd;stroke:#000000;stroke-width:2.0px;stroke-linecap:butt;stroke-linejoin:miter;stroke-opacity:1"/>
<path class="bond-6 atom-6 atom-7" d="M 44.0,114.5 L 33.4,133.0" style="fill:none;fill-rule:evenodd;stroke:#FF0000;stroke-width:2.0px;stroke-linecap:butt;stroke-linejoin:miter;stroke-opacity:1"/>
<path class="bond-6 atom-6 atom-7" d="M 61.3,99.9 L 50.6,118.3" style="fill:none;fill-rule:evenodd;stroke:#000000;stroke-width:2.0px;stroke-linecap:butt;stroke-linejoin:miter;stroke-opacity:1"/>
<path class="bond-6 atom-6 atom-7" d="M 50.6,118.3 L 40.0,136.8" style="fill:none;fill-rule:evenodd;stroke:#FF0000;stroke-width:2.0px;stroke-linecap:butt;stroke-linejoin:miter;stroke-opacity:1"/>
<path class="bond-7 atom-6 atom-8" d="M 56.9,99.9 L 46.9,82.5" style="fill:none;fill-rule:evenodd;stroke:#000000;stroke-width:2.0px;stroke-linecap:butt;stroke-linejoin:miter;stroke-opacity:1"/>
<path class="bond-7 atom-6 atom-8" d="M 46.9,82.5 L 36.8,65.1" style="fill:none;fill-rule:evenodd;stroke:#FF0000;stroke-width:2.0px;stroke-linecap:butt;stroke-linejoin:miter;stroke-opacity:1"/>
<path d="M 59.4,99.9 L 56.9,99.9 L 56.4,99.0" style="fill:none;stroke:#000000;stroke-width:2.0px;stroke-linecap:butt;stroke-linejoin:miter;stroke-opacity:1;"/>
<path class="atom-2" d="M 177.1 143.9 Q 177.1 140.4, 178.8 138.5 Q 180.5 136.5, 183.7 136.5 Q 186.9 136.5, 188.6 138.5 Q 190.3 140.4, 190.3 143.9 Q 190.3 147.3, 188.6 149.3 Q 186.8 151.3, 183.7 151.3 Q 180.5 151.3, 178.8 149.3 Q 177.1 147.4, 177.1 143.9 M 183.7 149.7 Q 185.9 149.7, 187.0 148.2 Q 188.2 146.7, 188.2 143.9 Q 188.2 141.0, 187.0 139.6 Q 185.9 138.2, 183.7 138.2 Q 181.5 138.2, 180.3 139.6 Q 179.1 141.0, 179.1 143.9 Q 179.1 146.8, 180.3 148.2 Q 181.5 149.7, 183.7 149.7 " fill="#FF0000"/>
<path class="atom-2" d="M 192.5 136.7 L 194.5 136.7 L 194.5 142.8 L 201.8 142.8 L 201.8 136.7 L 203.7 136.7 L 203.7 151.1 L 201.8 151.1 L 201.8 144.4 L 194.5 144.4 L 194.5 151.1 L 192.5 151.1 L 192.5 136.7 " fill="#FF0000"/>
<path class="atom-7" d="M 24.9 143.9 Q 24.9 140.4, 26.6 138.5 Q 28.3 136.5, 31.5 136.5 Q 34.7 136.5, 36.4 138.5 Q 38.1 140.4, 38.1 143.9 Q 38.1 147.3, 36.4 149.3 Q 34.7 151.3, 31.5 151.3 Q 28.4 151.3, 26.6 149.3 Q 24.9 147.4, 24.9 143.9 M 31.5 149.7 Q 33.7 149.7, 34.9 148.2 Q 36.1 146.7, 36.1 143.9 Q 36.1 141.0, 34.9 139.6 Q 33.7 138.2, 31.5 138.2 Q 29.3 138.2, 28.1 139.6 Q 27.0 141.0, 27.0 143.9 Q 27.0 146.8, 28.1 148.2 Q 29.3 149.7, 31.5 149.7 " fill="#FF0000"/>
<path class="atom-8" d="M 10.7 48.9 L 12.7 48.9 L 12.7 55.0 L 20.0 55.0 L 20.0 48.9 L 22.0 48.9 L 22.0 63.2 L 20.0 63.2 L 20.0 56.6 L 12.7 56.6 L 12.7 63.2 L 10.7 63.2 L 10.7 48.9 " fill="#FF0000"/>
<path class="atom-8" d="M 24.9 56.0 Q 24.9 52.6, 26.6 50.6 Q 28.3 48.7, 31.5 48.7 Q 34.7 48.7, 36.4 50.6 Q 38.1 52.6, 38.1 56.0 Q 38.1 59.5, 36.4 61.5 Q 34.7 63.5, 31.5 63.5 Q 28.4 63.5, 26.6 61.5 Q 24.9 59.5, 24.9 56.0 M 31.5 61.8 Q 33.7 61.8, 34.9 60.4 Q 36.1 58.9, 36.1 56.0 Q 36.1 53.2, 34.9 51.8 Q 33.7 50.3, 31.5 50.3 Q 29.3 50.3, 28.1 51.7 Q 27.0 53.2, 27.0 56.0 Q 27.0 58.9, 28.1 60.4 Q 29.3 61.8, 31.5 61.8 " fill="#FF0000"/>
</g>
  </g>
</svg>
