<?xml version='1.0' encoding='ASCII' standalone='yes'?>
<svg xmlns="http://www.w3.org/2000/svg" xmlns:xlink="http://www.w3.org/1999/xlink" version="1.1" width="939.0px" viewBox="0 0 939.0 200.0" height="200.0px">
  <g>
    <g transform="translate(0, 0) scale(1 1) "><!-- END OF HEADER -->
<rect style="opacity:1.0;fill:#FFFFFF;stroke:none" width="301.0" height="200.0" x="0.0" y="0.0"> </rect>
<path class="bond-0 atom-0 atom-1" d="M 285.1,29.9 L 261.1,65.6" style="fill:none;fill-rule:evenodd;stroke:#000000;stroke-width:2.0px;stroke-linecap:butt;stroke-linejoin:miter;stroke-opacity:1"/>
<path class="bond-1 atom-1 atom-2" d="M 261.1,65.6 L 280.0,104.3" style="fill:none;fill-rule:evenodd;stroke:#000000;stroke-width:2.0px;stroke-linecap:butt;stroke-linejoin:miter;stroke-opacity:1"/>
<path class="bond-2 atom-2 atom-3" d="M 280.0,104.3 L 275.4,111.1" style="fill:none;fill-rule:evenodd;stroke:#000000;stroke-width:2.0px;stroke-linecap:butt;stroke-linejoin:miter;stroke-opacity:1"/>
<path class="bond-2 atom-2 atom-3" d="M 275.4,111.1 L 270.9,117.9" style="fill:none;fill-rule:evenodd;stroke:#FF0000;stroke-width:2.0px;stroke-linecap:butt;stroke-linejoin:miter;stroke-opacity:1"/>
<path class="bond-3 atom-1 atom-4" d="M 261.1,65.6 L 218.2,62.7" style="fill:none;fill-rule:evenodd;stroke:#000000;stroke-width:2.0px;stroke-linecap:butt;stroke-linejoin:miter;stroke-opacity:1"/>
<path class="bond-4 atom-4 atom-5" d="M 218.2,62.7 L 194.2,98.4" style="fill:none;fill-rule:evenodd;stroke:#000000;stroke-width:2.0px;stroke-linecap:butt;stroke-linejoin:miter;stroke-opacity:1"/>
<path class="bond-5 atom-5 atom-6" d="M 194.2,98.4 L 170.2,134.1" style="fill:none;fill-rule:evenodd;stroke:#000000;stroke-width:2.0px;stroke-linecap:butt;stroke-linejoin:miter;stroke-opacity:1"/>
<path class="bond-6 atom-6 atom-7" d="M 170.2,134.1 L 127.3,131.2" style="fill:none;fill-rule:evenodd;stroke:#000000;stroke-width:2.0px;stroke-linecap:butt;stroke-linejoin:miter;stroke-opacity:1"/>
<path class="bond-7 atom-7 atom-8" d="M 127.3,131.2 L 111.6,162.3" style="fill:none;fill-rule:evenodd;stroke:#000000;stroke-width:2.0px;stroke-linecap:butt;stroke-linejoin:miter;stroke-opacity:1"/>
<path class="bond-8 atom-7 atom-9" d="M 127.3,131.2 L 108.4,92.6" style="fill:none;fill-rule:evenodd;stroke:#000000;stroke-width:2.0px;stroke-linecap:butt;stroke-linejoin:miter;stroke-opacity:1"/>
<path class="bond-9 atom-9 atom-10" d="M 108.4,92.6 L 65.5,89.7" style="fill:none;fill-rule:evenodd;stroke:#000000;stroke-width:2.0px;stroke-linecap:butt;stroke-linejoin:miter;stroke-opacity:1"/>
<path class="bond-10 atom-10 atom-11" d="M 65.5,89.7 L 22.6,86.8" style="fill:none;fill-rule:evenodd;stroke:#000000;stroke-width:2.0px;stroke-linecap:butt;stroke-linejoin:miter;stroke-opacity:1"/>
<path class="bond-11 atom-10 atom-12" d="M 65.5,89.7 L 68.4,46.8" style="fill:none;fill-rule:evenodd;stroke:#000000;stroke-width:2.0px;stroke-linecap:butt;stroke-linejoin:miter;stroke-opacity:1"/>
<path class="bond-12 atom-12 atom-13" d="M 68.1,50.3 L 84.8,42.1" style="fill:none;fill-rule:evenodd;stroke:#000000;stroke-width:2.0px;stroke-linecap:butt;stroke-linejoin:miter;stroke-opacity:1"/>
<path class="bond-12 atom-12 atom-13" d="M 84.8,42.1 L 101.4,34.0" style="fill:none;fill-rule:evenodd;stroke:#FF0000;stroke-width:2.0px;stroke-linecap:butt;stroke-linejoin:miter;stroke-opacity:1"/>
<path class="bond-12 atom-12 atom-13" d="M 65.5,44.9 L 82.1,36.7" style="fill:none;fill-rule:evenodd;stroke:#000000;stroke-width:2.0px;stroke-linecap:butt;stroke-linejoin:miter;stroke-opacity:1"/>
<path class="bond-12 atom-12 atom-13" d="M 82.1,36.7 L 98.8,28.6" style="fill:none;fill-rule:evenodd;stroke:#FF0000;stroke-width:2.0px;stroke-linecap:butt;stroke-linejoin:miter;stroke-opacity:1"/>
<path class="bond-13 atom-12 atom-14" d="M 68.4,46.8 L 54.0,37.1" style="fill:none;fill-rule:evenodd;stroke:#000000;stroke-width:2.0px;stroke-linecap:butt;stroke-linejoin:miter;stroke-opacity:1"/>
<path class="bond-13 atom-12 atom-14" d="M 54.0,37.1 L 39.6,27.5" style="fill:none;fill-rule:evenodd;stroke:#FF0000;stroke-width:2.0px;stroke-linecap:butt;stroke-linejoin:miter;stroke-opacity:1"/>
<path class="bond-14 atom-10 atom-15" d="M 65.5,89.7 L 62.6,132.6" style="fill:none;fill-rule:evenodd;stroke:#000000;stroke-width:2.0px;stroke-linecap:butt;stroke-linejoin:miter;stroke-opacity:1"/>
<path class="bond-15 atom-15 atom-16" d="M 62.6,132.6 L 23.9,151.6" style="fill:none;fill-rule:evenodd;stroke:#000000;stroke-width:2.0px;stroke-linecap:butt;stroke-linejoin:miter;stroke-opacity:1"/>
<path class="bond-16 atom-15 atom-17" d="M 62.6,132.6 L 72.3,141.0" style="fill:none;fill-rule:evenodd;stroke:#000000;stroke-width:2.0px;stroke-linecap:butt;stroke-linejoin:miter;stroke-opacity:1"/>
<path class="bond-16 atom-15 atom-17" d="M 72.3,141.0 L 82.0,149.4" style="fill:none;fill-rule:evenodd;stroke:#FF0000;stroke-width:2.0px;stroke-linecap:butt;stroke-linejoin:miter;stroke-opacity:1"/>
<path class="bond-17 atom-5 atom-18" d="M 194.2,98.4 L 158.5,74.5" style="fill:none;fill-rule:evenodd;stroke:#000000;stroke-width:2.0px;stroke-linecap:butt;stroke-linejoin:miter;stroke-opacity:1"/>
<path class="bond-18 atom-18 atom-19" d="M 161.4,76.4 L 162.6,57.9" style="fill:none;fill-rule:evenodd;stroke:#000000;stroke-width:2.0px;stroke-linecap:butt;stroke-linejoin:miter;stroke-opacity:1"/>
<path class="bond-18 atom-18 atom-19" d="M 162.6,57.9 L 163.9,39.4" style="fill:none;fill-rule:evenodd;stroke:#FF0000;stroke-width:2.0px;stroke-linecap:butt;stroke-linejoin:miter;stroke-opacity:1"/>
<path class="bond-18 atom-18 atom-19" d="M 155.4,75.1 L 156.6,57.5" style="fill:none;fill-rule:evenodd;stroke:#000000;stroke-width:2.0px;stroke-linecap:butt;stroke-linejoin:miter;stroke-opacity:1"/>
<path class="bond-18 atom-18 atom-19" d="M 156.6,57.5 L 157.9,39.0" style="fill:none;fill-rule:evenodd;stroke:#FF0000;stroke-width:2.0px;stroke-linecap:butt;stroke-linejoin:miter;stroke-opacity:1"/>
<path class="bond-19 atom-18 atom-20" d="M 158.5,74.5 L 148.1,76.7" style="fill:none;fill-rule:evenodd;stroke:#000000;stroke-width:2.0px;stroke-linecap:butt;stroke-linejoin:miter;stroke-opacity:1"/>
<path class="bond-19 atom-18 atom-20" d="M 148.1,76.7 L 137.8,78.9" style="fill:none;fill-rule:evenodd;stroke:#FF0000;stroke-width:2.0px;stroke-linecap:butt;stroke-linejoin:miter;stroke-opacity:1"/>
<path class="bond-20 atom-5 atom-21" d="M 194.2,98.4 L 229.9,122.4" style="fill:none;fill-rule:evenodd;stroke:#000000;stroke-width:2.0px;stroke-linecap:butt;stroke-linejoin:miter;stroke-opacity:1"/>
<path class="bond-21 atom-21 atom-22" d="M 229.9,122.4 L 227.0,165.3" style="fill:none;fill-rule:evenodd;stroke:#000000;stroke-width:2.0px;stroke-linecap:butt;stroke-linejoin:miter;stroke-opacity:1"/>
<path class="bond-22 atom-21 atom-23" d="M 229.9,122.4 L 237.6,120.8" style="fill:none;fill-rule:evenodd;stroke:#000000;stroke-width:2.0px;stroke-linecap:butt;stroke-linejoin:miter;stroke-opacity:1"/>
<path class="bond-22 atom-21 atom-23" d="M 237.6,120.8 L 245.3,119.1" style="fill:none;fill-rule:evenodd;stroke:#FF0000;stroke-width:2.0px;stroke-linecap:butt;stroke-linejoin:miter;stroke-opacity:1"/>
<path d="M 279.1,102.3 L 280.0,104.3 L 279.8,104.6" style="fill:none;stroke:#000000;stroke-width:2.0px;stroke-linecap:butt;stroke-linejoin:miter;stroke-opacity:1;"/>
<path d="M 220.3,62.9 L 218.2,62.7 L 217.0,64.5" style="fill:none;stroke:#000000;stroke-width:2.0px;stroke-linecap:butt;stroke-linejoin:miter;stroke-opacity:1;"/>
<path d="M 171.4,132.4 L 170.2,134.1 L 168.1,134.0" style="fill:none;stroke:#000000;stroke-width:2.0px;stroke-linecap:butt;stroke-linejoin:miter;stroke-opacity:1;"/>
<path d="M 109.3,94.6 L 108.4,92.6 L 106.2,92.5" style="fill:none;stroke:#000000;stroke-width:2.0px;stroke-linecap:butt;stroke-linejoin:miter;stroke-opacity:1;"/>
<path d="M 68.2,49.0 L 68.4,46.8 L 67.7,46.3" style="fill:none;stroke:#000000;stroke-width:2.0px;stroke-linecap:butt;stroke-linejoin:miter;stroke-opacity:1;"/>
<path d="M 160.3,75.7 L 158.5,74.5 L 158.0,74.6" style="fill:none;stroke:#000000;stroke-width:2.0px;stroke-linecap:butt;stroke-linejoin:miter;stroke-opacity:1;"/>
<path class="atom-3" d="M 248.2 119.3 L 249.9 119.3 L 249.9 124.5 L 256.1 124.5 L 256.1 119.3 L 257.8 119.3 L 257.8 131.5 L 256.1 131.5 L 256.1 125.9 L 249.9 125.9 L 249.9 131.5 L 248.2 131.5 L 248.2 119.3 " fill="#FF0000"/>
<path class="atom-3" d="M 260.3 125.4 Q 260.3 122.5, 261.7 120.8 Q 263.2 119.2, 265.9 119.2 Q 268.6 119.2, 270.0 120.8 Q 271.4 122.5, 271.4 125.4 Q 271.4 128.3, 270.0 130.0 Q 268.5 131.7, 265.9 131.7 Q 263.2 131.7, 261.7 130.0 Q 260.3 128.4, 260.3 125.4 M 265.9 130.3 Q 267.7 130.3, 268.7 129.1 Q 269.7 127.8, 269.7 125.4 Q 269.7 123.0, 268.7 121.8 Q 267.7 120.6, 265.9 120.6 Q 264.0 120.6, 263.0 121.8 Q 262.0 123.0, 262.0 125.4 Q 262.0 127.8, 263.0 129.1 Q 264.0 130.3, 265.9 130.3 " fill="#FF0000"/>
<path class="atom-13" d="M 101.4 27.9 Q 101.4 25.0, 102.8 23.3 Q 104.3 21.7, 107.0 21.7 Q 109.7 21.7, 111.1 23.3 Q 112.6 25.0, 112.6 27.9 Q 112.6 30.9, 111.1 32.6 Q 109.7 34.2, 107.0 34.2 Q 104.3 34.2, 102.8 32.6 Q 101.4 30.9, 101.4 27.9 M 107.0 32.8 Q 108.8 32.8, 109.8 31.6 Q 110.9 30.3, 110.9 27.9 Q 110.9 25.5, 109.8 24.3 Q 108.8 23.1, 107.0 23.1 Q 105.1 23.1, 104.1 24.3 Q 103.1 25.5, 103.1 27.9 Q 103.1 30.4, 104.1 31.6 Q 105.1 32.8, 107.0 32.8 " fill="#FF0000"/>
<path class="atom-14" d="M 15.0 16.8 L 16.7 16.8 L 16.7 22.0 L 22.9 22.0 L 22.9 16.8 L 24.6 16.8 L 24.6 29.0 L 22.9 29.0 L 22.9 23.4 L 16.7 23.4 L 16.7 29.0 L 15.0 29.0 L 15.0 16.8 " fill="#FF0000"/>
<path class="atom-14" d="M 27.1 22.9 Q 27.1 19.9, 28.5 18.3 Q 30.0 16.7, 32.7 16.7 Q 35.4 16.7, 36.8 18.3 Q 38.3 19.9, 38.3 22.9 Q 38.3 25.8, 36.8 27.5 Q 35.3 29.2, 32.7 29.2 Q 30.0 29.2, 28.5 27.5 Q 27.1 25.8, 27.1 22.9 M 32.7 27.8 Q 34.5 27.8, 35.5 26.6 Q 36.5 25.3, 36.5 22.9 Q 36.5 20.5, 35.5 19.3 Q 34.5 18.1, 32.7 18.1 Q 30.8 18.1, 29.8 19.3 Q 28.8 20.5, 28.8 22.9 Q 28.8 25.3, 29.8 26.6 Q 30.8 27.8, 32.7 27.8 " fill="#FF0000"/>
<path class="atom-17" d="M 83.3 155.5 Q 83.3 152.5, 84.8 150.9 Q 86.2 149.3, 88.9 149.3 Q 91.6 149.3, 93.0 150.9 Q 94.5 152.5, 94.5 155.5 Q 94.5 158.4, 93.0 160.1 Q 91.6 161.8, 88.9 161.8 Q 86.2 161.8, 84.8 160.1 Q 83.3 158.4, 83.3 155.5 M 88.9 160.4 Q 90.8 160.4, 91.8 159.2 Q 92.8 157.9, 92.8 155.5 Q 92.8 153.1, 91.8 151.9 Q 90.8 150.6, 88.9 150.6 Q 87.0 150.6, 86.0 151.8 Q 85.0 153.1, 85.0 155.5 Q 85.0 157.9, 86.0 159.2 Q 87.0 160.4, 88.9 160.4 " fill="#FF0000"/>
<path class="atom-17" d="M 96.4 149.4 L 98.0 149.4 L 98.0 154.6 L 104.3 154.6 L 104.3 149.4 L 105.9 149.4 L 105.9 161.6 L 104.3 161.6 L 104.3 156.0 L 98.0 156.0 L 98.0 161.6 L 96.4 161.6 L 96.4 149.4 " fill="#FF0000"/>
<path class="atom-19" d="M 155.8 31.6 Q 155.8 28.7, 157.3 27.0 Q 158.7 25.4, 161.4 25.4 Q 164.1 25.4, 165.5 27.0 Q 167.0 28.7, 167.0 31.6 Q 167.0 34.6, 165.5 36.2 Q 164.1 37.9, 161.4 37.9 Q 158.7 37.9, 157.3 36.2 Q 155.8 34.6, 155.8 31.6 M 161.4 36.5 Q 163.3 36.5, 164.3 35.3 Q 165.3 34.0, 165.3 31.6 Q 165.3 29.2, 164.3 28.0 Q 163.3 26.8, 161.4 26.8 Q 159.5 26.8, 158.5 28.0 Q 157.5 29.2, 157.5 31.6 Q 157.5 34.1, 158.5 35.3 Q 159.5 36.5, 161.4 36.5 " fill="#FF0000"/>
<path class="atom-20" d="M 113.3 74.4 L 114.9 74.4 L 114.9 79.5 L 121.2 79.5 L 121.2 74.4 L 122.8 74.4 L 122.8 86.6 L 121.2 86.6 L 121.2 80.9 L 114.9 80.9 L 114.9 86.6 L 113.3 86.6 L 113.3 74.4 " fill="#FF0000"/>
<path class="atom-20" d="M 125.3 80.4 Q 125.3 77.5, 126.8 75.9 Q 128.2 74.2, 130.9 74.2 Q 133.6 74.2, 135.0 75.9 Q 136.5 77.5, 136.5 80.4 Q 136.5 83.4, 135.0 85.1 Q 133.6 86.7, 130.9 86.7 Q 128.2 86.7, 126.8 85.1 Q 125.3 83.4, 125.3 80.4 M 130.9 85.4 Q 132.8 85.4, 133.8 84.1 Q 134.8 82.9, 134.8 80.4 Q 134.8 78.0, 133.8 76.8 Q 132.8 75.6, 130.9 75.6 Q 129.0 75.6, 128.0 76.8 Q 127.0 78.0, 127.0 80.4 Q 127.0 82.9, 128.0 84.1 Q 129.0 85.4, 130.9 85.4 " fill="#FF0000"/>
<path class="atom-23" d="M 246.7 117.7 Q 246.7 114.7, 248.1 113.1 Q 249.5 111.5, 252.2 111.5 Q 254.9 111.5, 256.4 113.1 Q 257.8 114.7, 257.8 117.7 Q 257.8 120.6, 256.4 122.3 Q 254.9 124.0, 252.2 124.0 Q 249.6 124.0, 248.1 122.3 Q 246.7 120.6, 246.7 117.7 M 252.2 122.6 Q 254.1 122.6, 255.1 121.3 Q 256.1 120.1, 256.1 117.7 Q 256.1 115.3, 255.1 114.1 Q 254.1 112.8, 252.2 112.8 Q 250.4 112.8, 249.4 114.0 Q 248.4 115.2, 248.4 117.7 Q 248.4 120.1, 249.4 121.3 Q 250.4 122.6, 252.2 122.6 " fill="#FF0000"/>
<path class="atom-23" d="M 259.7 111.6 L 261.4 111.6 L 261.4 116.8 L 267.6 116.8 L 267.6 111.6 L 269.3 111.6 L 269.3 123.8 L 267.6 123.8 L 267.6 118.1 L 261.4 118.1 L 261.4 123.8 L 259.7 123.8 L 259.7 111.6 " fill="#FF0000"/>
<path class="legend" d="M 141.5 181.9 Q 141.5 179.6, 142.2 177.7 Q 142.9 175.8, 144.2 173.8 L 145.1 174.4 Q 144.0 176.3, 143.5 178.0 Q 143.0 179.7, 143.0 181.9 Q 143.0 184.0, 143.5 185.8 Q 144.0 187.5, 145.1 189.4 L 144.2 190.0 Q 142.9 188.0, 142.2 186.1 Q 141.5 184.2, 141.5 181.9 " fill="#000000"/>
<path class="legend" d="M 146.0 177.3 Q 146.4 176.2, 147.4 175.6 Q 148.4 175.0, 149.8 175.0 Q 151.5 175.0, 152.4 175.9 Q 153.4 176.8, 153.4 178.5 Q 153.4 180.2, 152.1 181.7 Q 150.9 183.3, 148.4 185.2 L 153.6 185.2 L 153.6 186.4 L 146.0 186.4 L 146.0 185.4 Q 148.1 183.9, 149.3 182.8 Q 150.6 181.6, 151.2 180.6 Q 151.8 179.6, 151.8 178.6 Q 151.8 177.5, 151.2 176.9 Q 150.7 176.3, 149.8 176.3 Q 148.8 176.3, 148.2 176.6 Q 147.6 177.0, 147.2 177.8 L 146.0 177.3 " fill="#000000"/>
<path class="legend" d="M 158.6 181.9 Q 158.6 184.2, 157.9 186.1 Q 157.2 188.0, 155.9 190.0 L 155.0 189.4 Q 156.1 187.5, 156.6 185.8 Q 157.1 184.0, 157.1 181.9 Q 157.1 179.7, 156.6 178.0 Q 156.1 176.3, 155.0 174.4 L 155.9 173.8 Q 157.2 175.8, 157.9 177.7 Q 158.6 179.6, 158.6 181.9 " fill="#000000"/>
</g>
    <g transform="translate(301.0, 0) scale(1 1) "><line x1="5" y1="100" x2="35" y2="100" style="stroke:rgb(0,0,0);stroke-width:2"/>
  <line x1="34" y1="100" x2="29" y2="95" style="stroke:rgb(0,0,0);stroke-width:2"/>
  <line x1="34" y1="100" x2="29" y2="105" style="stroke:rgb(0,0,0);stroke-width:2"/>
</g>
    <g transform="translate(341.0, 0) scale(1 1) "><!-- END OF HEADER -->
<rect style="opacity:1.0;fill:#FFFFFF;stroke:none" width="343.0" height="200.0" x="0.0" y="0.0"> </rect>
<path class="bond-0 atom-0 atom-1" d="M 297.2,33.9 L 293.8,61.6" style="fill:none;fill-rule:evenodd;stroke:#000000;stroke-width:2.0px;stroke-linecap:butt;stroke-linejoin:miter;stroke-opacity:1"/>
<path class="bond-1 atom-1 atom-2" d="M 293.8,61.6 L 316.1,78.4" style="fill:none;fill-rule:evenodd;stroke:#000000;stroke-width:2.0px;stroke-linecap:butt;stroke-linejoin:miter;stroke-opacity:1"/>
<path class="bond-2 atom-2 atom-3" d="M 316.1,78.4 L 314.7,89.8" style="fill:none;fill-rule:evenodd;stroke:#000000;stroke-width:2.0px;stroke-linecap:butt;stroke-linejoin:miter;stroke-opacity:1"/>
<path class="bond-2 atom-2 atom-3" d="M 314.7,89.8 L 313.3,101.2" style="fill:none;fill-rule:evenodd;stroke:#FF0000;stroke-width:2.0px;stroke-linecap:butt;stroke-linejoin:miter;stroke-opacity:1"/>
<path class="bond-3 atom-1 atom-4" d="M 293.8,61.6 L 268.2,72.5" style="fill:none;fill-rule:evenodd;stroke:#000000;stroke-width:2.0px;stroke-linecap:butt;stroke-linejoin:miter;stroke-opacity:1"/>
<path class="bond-4 atom-4 atom-5" d="M 268.2,72.5 L 264.8,100.2" style="fill:none;fill-rule:evenodd;stroke:#000000;stroke-width:2.0px;stroke-linecap:butt;stroke-linejoin:miter;stroke-opacity:1"/>
<path class="bond-5 atom-5 atom-6" d="M 264.8,100.2 L 261.4,127.9" style="fill:none;fill-rule:evenodd;stroke:#000000;stroke-width:2.0px;stroke-linecap:butt;stroke-linejoin:miter;stroke-opacity:1"/>
<path class="bond-6 atom-6 atom-7" d="M 261.4,127.9 L 235.8,138.8" style="fill:none;fill-rule:evenodd;stroke:#000000;stroke-width:2.0px;stroke-linecap:butt;stroke-linejoin:miter;stroke-opacity:1"/>
<path class="bond-7 atom-7 atom-8" d="M 235.8,138.8 L 232.4,166.5" style="fill:none;fill-rule:evenodd;stroke:#000000;stroke-width:2.0px;stroke-linecap:butt;stroke-linejoin:miter;stroke-opacity:1"/>
<path class="bond-8 atom-7 atom-9" d="M 235.8,138.8 L 213.5,122.0" style="fill:none;fill-rule:evenodd;stroke:#000000;stroke-width:2.0px;stroke-linecap:butt;stroke-linejoin:miter;stroke-opacity:1"/>
<path class="bond-9 atom-9 atom-10" d="M 213.5,122.0 L 187.8,133.0" style="fill:none;fill-rule:evenodd;stroke:#000000;stroke-width:2.0px;stroke-linecap:butt;stroke-linejoin:miter;stroke-opacity:1"/>
<path class="bond-10 atom-10 atom-11" d="M 187.8,133.0 L 184.4,160.6" style="fill:none;fill-rule:evenodd;stroke:#000000;stroke-width:2.0px;stroke-linecap:butt;stroke-linejoin:miter;stroke-opacity:1"/>
<path class="bond-11 atom-11 atom-12" d="M 184.4,160.6 L 179.1,162.9" style="fill:none;fill-rule:evenodd;stroke:#000000;stroke-width:2.0px;stroke-linecap:butt;stroke-linejoin:miter;stroke-opacity:1"/>
<path class="bond-11 atom-11 atom-12" d="M 179.1,162.9 L 173.8,165.2" style="fill:none;fill-rule:evenodd;stroke:#FF0000;stroke-width:2.0px;stroke-linecap:butt;stroke-linejoin:miter;stroke-opacity:1"/>
<path class="bond-12 atom-10 atom-13" d="M 187.8,133.0 L 165.5,116.2" style="fill:none;fill-rule:evenodd;stroke:#000000;stroke-width:2.0px;stroke-linecap:butt;stroke-linejoin:miter;stroke-opacity:1"/>
<path class="bond-13 atom-13 atom-14" d="M 165.5,116.2 L 139.9,127.1" style="fill:none;fill-rule:evenodd;stroke:#000000;stroke-width:2.0px;stroke-linecap:butt;stroke-linejoin:miter;stroke-opacity:1"/>
<path class="bond-14 atom-14 atom-15" d="M 139.9,127.1 L 114.2,138.1" style="fill:none;fill-rule:evenodd;stroke:#000000;stroke-width:2.0px;stroke-linecap:butt;stroke-linejoin:miter;stroke-opacity:1"/>
<path class="bond-15 atom-15 atom-16" d="M 114.2,138.1 L 91.9,121.3" style="fill:none;fill-rule:evenodd;stroke:#000000;stroke-width:2.0px;stroke-linecap:butt;stroke-linejoin:miter;stroke-opacity:1"/>
<path class="bond-16 atom-16 atom-17" d="M 91.9,121.3 L 72.4,132.6" style="fill:none;fill-rule:evenodd;stroke:#000000;stroke-width:2.0px;stroke-linecap:butt;stroke-linejoin:miter;stroke-opacity:1"/>
<path class="bond-17 atom-16 atom-18" d="M 91.9,121.3 L 95.3,93.6" style="fill:none;fill-rule:evenodd;stroke:#000000;stroke-width:2.0px;stroke-linecap:butt;stroke-linejoin:miter;stroke-opacity:1"/>
<path class="bond-18 atom-18 atom-19" d="M 95.3,93.6 L 73.0,76.9" style="fill:none;fill-rule:evenodd;stroke:#000000;stroke-width:2.0px;stroke-linecap:butt;stroke-linejoin:miter;stroke-opacity:1"/>
<path class="bond-19 atom-19 atom-20" d="M 73.0,76.9 L 50.7,60.1" style="fill:none;fill-rule:evenodd;stroke:#000000;stroke-width:2.0px;stroke-linecap:butt;stroke-linejoin:miter;stroke-opacity:1"/>
<path class="bond-20 atom-19 atom-21" d="M 73.0,76.9 L 89.8,54.6" style="fill:none;fill-rule:evenodd;stroke:#000000;stroke-width:2.0px;stroke-linecap:butt;stroke-linejoin:miter;stroke-opacity:1"/>
<path class="bond-21 atom-21 atom-22" d="M 92.1,54.9 L 87.4,44.0" style="fill:none;fill-rule:evenodd;stroke:#000000;stroke-width:2.0px;stroke-linecap:butt;stroke-linejoin:miter;stroke-opacity:1"/>
<path class="bond-21 atom-21 atom-22" d="M 87.4,44.0 L 82.8,33.1" style="fill:none;fill-rule:evenodd;stroke:#FF0000;stroke-width:2.0px;stroke-linecap:butt;stroke-linejoin:miter;stroke-opacity:1"/>
<path class="bond-21 atom-21 atom-22" d="M 88.4,56.4 L 83.8,45.6" style="fill:none;fill-rule:evenodd;stroke:#000000;stroke-width:2.0px;stroke-linecap:butt;stroke-linejoin:miter;stroke-opacity:1"/>
<path class="bond-21 atom-21 atom-22" d="M 83.8,45.6 L 79.1,34.7" style="fill:none;fill-rule:evenodd;stroke:#FF0000;stroke-width:2.0px;stroke-linecap:butt;stroke-linejoin:miter;stroke-opacity:1"/>
<path class="bond-22 atom-21 atom-23" d="M 89.8,54.6 L 101.4,56.0" style="fill:none;fill-rule:evenodd;stroke:#000000;stroke-width:2.0px;stroke-linecap:butt;stroke-linejoin:miter;stroke-opacity:1"/>
<path class="bond-22 atom-21 atom-23" d="M 101.4,56.0 L 112.9,57.4" style="fill:none;fill-rule:evenodd;stroke:#FF0000;stroke-width:2.0px;stroke-linecap:butt;stroke-linejoin:miter;stroke-opacity:1"/>
<path class="bond-23 atom-19 atom-24" d="M 73.0,76.9 L 56.3,99.1" style="fill:none;fill-rule:evenodd;stroke:#000000;stroke-width:2.0px;stroke-linecap:butt;stroke-linejoin:miter;stroke-opacity:1"/>
<path class="bond-24 atom-24 atom-25" d="M 56.3,99.1 L 62.5,120.9" style="fill:none;fill-rule:evenodd;stroke:#000000;stroke-width:2.0px;stroke-linecap:butt;stroke-linejoin:miter;stroke-opacity:1"/>
<path class="bond-25 atom-24 atom-26" d="M 56.3,99.1 L 44.7,97.7" style="fill:none;fill-rule:evenodd;stroke:#000000;stroke-width:2.0px;stroke-linecap:butt;stroke-linejoin:miter;stroke-opacity:1"/>
<path class="bond-25 atom-24 atom-26" d="M 44.7,97.7 L 33.1,96.3" style="fill:none;fill-rule:evenodd;stroke:#FF0000;stroke-width:2.0px;stroke-linecap:butt;stroke-linejoin:miter;stroke-opacity:1"/>
<path class="bond-26 atom-14 atom-27" d="M 139.9,127.1 L 129.0,101.5" style="fill:none;fill-rule:evenodd;stroke:#000000;stroke-width:2.0px;stroke-linecap:butt;stroke-linejoin:miter;stroke-opacity:1"/>
<path class="bond-27 atom-27 atom-28" d="M 129.9,103.6 L 136.7,94.5" style="fill:none;fill-rule:evenodd;stroke:#000000;stroke-width:2.0px;stroke-linecap:butt;stroke-linejoin:miter;stroke-opacity:1"/>
<path class="bond-27 atom-27 atom-28" d="M 136.7,94.5 L 143.6,85.4" style="fill:none;fill-rule:evenodd;stroke:#FF0000;stroke-width:2.0px;stroke-linecap:butt;stroke-linejoin:miter;stroke-opacity:1"/>
<path class="bond-27 atom-27 atom-28" d="M 127.0,100.7 L 133.5,92.1" style="fill:none;fill-rule:evenodd;stroke:#000000;stroke-width:2.0px;stroke-linecap:butt;stroke-linejoin:miter;stroke-opacity:1"/>
<path class="bond-27 atom-27 atom-28" d="M 133.5,92.1 L 140.3,83.0" style="fill:none;fill-rule:evenodd;stroke:#FF0000;stroke-width:2.0px;stroke-linecap:butt;stroke-linejoin:miter;stroke-opacity:1"/>
<path class="bond-28 atom-27 atom-29" d="M 129.0,101.5 L 122.7,99.1" style="fill:none;fill-rule:evenodd;stroke:#000000;stroke-width:2.0px;stroke-linecap:butt;stroke-linejoin:miter;stroke-opacity:1"/>
<path class="bond-28 atom-27 atom-29" d="M 122.7,99.1 L 116.4,96.7" style="fill:none;fill-rule:evenodd;stroke:#FF0000;stroke-width:2.0px;stroke-linecap:butt;stroke-linejoin:miter;stroke-opacity:1"/>
<path class="bond-29 atom-14 atom-30" d="M 139.9,127.1 L 150.8,152.8" style="fill:none;fill-rule:evenodd;stroke:#000000;stroke-width:2.0px;stroke-linecap:butt;stroke-linejoin:miter;stroke-opacity:1"/>
<path class="bond-30 atom-30 atom-31" d="M 150.8,152.8 L 134.0,175.1" style="fill:none;fill-rule:evenodd;stroke:#000000;stroke-width:2.0px;stroke-linecap:butt;stroke-linejoin:miter;stroke-opacity:1"/>
<path class="bond-31 atom-30 atom-32" d="M 150.8,152.8 L 155.5,154.6" style="fill:none;fill-rule:evenodd;stroke:#000000;stroke-width:2.0px;stroke-linecap:butt;stroke-linejoin:miter;stroke-opacity:1"/>
<path class="bond-31 atom-30 atom-32" d="M 155.5,154.6 L 160.1,156.4" style="fill:none;fill-rule:evenodd;stroke:#FF0000;stroke-width:2.0px;stroke-linecap:butt;stroke-linejoin:miter;stroke-opacity:1"/>
<path class="bond-32 atom-5 atom-33" d="M 264.8,100.2 L 237.1,96.8" style="fill:none;fill-rule:evenodd;stroke:#000000;stroke-width:2.0px;stroke-linecap:butt;stroke-linejoin:miter;stroke-opacity:1"/>
<path class="bond-33 atom-33 atom-34" d="M 239.4,97.1 L 234.8,86.3" style="fill:none;fill-rule:evenodd;stroke:#000000;stroke-width:2.0px;stroke-linecap:butt;stroke-linejoin:miter;stroke-opacity:1"/>
<path class="bond-33 atom-33 atom-34" d="M 234.8,86.3 L 230.2,75.4" style="fill:none;fill-rule:evenodd;stroke:#FF0000;stroke-width:2.0px;stroke-linecap:butt;stroke-linejoin:miter;stroke-opacity:1"/>
<path class="bond-33 atom-33 atom-34" d="M 235.5,98.1 L 231.1,87.8" style="fill:none;fill-rule:evenodd;stroke:#000000;stroke-width:2.0px;stroke-linecap:butt;stroke-linejoin:miter;stroke-opacity:1"/>
<path class="bond-33 atom-33 atom-34" d="M 231.1,87.8 L 226.5,77.0" style="fill:none;fill-rule:evenodd;stroke:#FF0000;stroke-width:2.0px;stroke-linecap:butt;stroke-linejoin:miter;stroke-opacity:1"/>
<path class="bond-34 atom-33 atom-35" d="M 237.1,96.8 L 228.5,103.8" style="fill:none;fill-rule:evenodd;stroke:#000000;stroke-width:2.0px;stroke-linecap:butt;stroke-linejoin:miter;stroke-opacity:1"/>
<path class="bond-34 atom-33 atom-35" d="M 228.5,103.8 L 220.0,110.7" style="fill:none;fill-rule:evenodd;stroke:#FF0000;stroke-width:2.0px;stroke-linecap:butt;stroke-linejoin:miter;stroke-opacity:1"/>
<path class="bond-35 atom-5 atom-36" d="M 264.8,100.2 L 292.5,103.6" style="fill:none;fill-rule:evenodd;stroke:#000000;stroke-width:2.0px;stroke-linecap:butt;stroke-linejoin:miter;stroke-opacity:1"/>
<path class="bond-36 atom-36 atom-37" d="M 292.5,103.6 L 303.4,129.2" style="fill:none;fill-rule:evenodd;stroke:#000000;stroke-width:2.0px;stroke-linecap:butt;stroke-linejoin:miter;stroke-opacity:1"/>
<path class="bond-37 atom-36 atom-38" d="M 292.5,103.6 L 301.0,96.6" style="fill:none;fill-rule:evenodd;stroke:#000000;stroke-width:2.0px;stroke-linecap:butt;stroke-linejoin:miter;stroke-opacity:1"/>
<path class="bond-37 atom-36 atom-38" d="M 301.0,96.6 L 309.6,89.7" style="fill:none;fill-rule:evenodd;stroke:#FF0000;stroke-width:2.0px;stroke-linecap:butt;stroke-linejoin:miter;stroke-opacity:1"/>
<path d="M 315.0,77.5 L 316.1,78.4 L 316.0,78.9" style="fill:none;stroke:#000000;stroke-width:2.0px;stroke-linecap:butt;stroke-linejoin:miter;stroke-opacity:1;"/>
<path d="M 269.4,72.0 L 268.2,72.5 L 268.0,73.9" style="fill:none;stroke:#000000;stroke-width:2.0px;stroke-linecap:butt;stroke-linejoin:miter;stroke-opacity:1;"/>
<path d="M 261.6,126.5 L 261.4,127.9 L 260.1,128.4" style="fill:none;stroke:#000000;stroke-width:2.0px;stroke-linecap:butt;stroke-linejoin:miter;stroke-opacity:1;"/>
<path d="M 214.6,122.9 L 213.5,122.0 L 212.2,122.6" style="fill:none;stroke:#000000;stroke-width:2.0px;stroke-linecap:butt;stroke-linejoin:miter;stroke-opacity:1;"/>
<path d="M 184.6,159.3 L 184.4,160.6 L 184.2,160.8" style="fill:none;stroke:#000000;stroke-width:2.0px;stroke-linecap:butt;stroke-linejoin:miter;stroke-opacity:1;"/>
<path d="M 166.6,117.0 L 165.5,116.2 L 164.2,116.8" style="fill:none;stroke:#000000;stroke-width:2.0px;stroke-linecap:butt;stroke-linejoin:miter;stroke-opacity:1;"/>
<path d="M 115.5,137.5 L 114.2,138.1 L 113.1,137.2" style="fill:none;stroke:#000000;stroke-width:2.0px;stroke-linecap:butt;stroke-linejoin:miter;stroke-opacity:1;"/>
<path d="M 95.1,95.0 L 95.3,93.6 L 94.2,92.8" style="fill:none;stroke:#000000;stroke-width:2.0px;stroke-linecap:butt;stroke-linejoin:miter;stroke-opacity:1;"/>
<path d="M 88.9,55.7 L 89.8,54.6 L 90.3,54.6" style="fill:none;stroke:#000000;stroke-width:2.0px;stroke-linecap:butt;stroke-linejoin:miter;stroke-opacity:1;"/>
<path d="M 129.5,102.8 L 129.0,101.5 L 128.6,101.4" style="fill:none;stroke:#000000;stroke-width:2.0px;stroke-linecap:butt;stroke-linejoin:miter;stroke-opacity:1;"/>
<path d="M 238.5,97.0 L 237.1,96.8 L 236.7,97.2" style="fill:none;stroke:#000000;stroke-width:2.0px;stroke-linecap:butt;stroke-linejoin:miter;stroke-opacity:1;"/>
<path class="atom-3" d="M 309.1 106.1 Q 309.1 104.2, 310.0 103.1 Q 311.0 102.0, 312.7 102.0 Q 314.5 102.0, 315.4 103.1 Q 316.4 104.2, 316.4 106.1 Q 316.4 108.0, 315.4 109.1 Q 314.5 110.2, 312.7 110.2 Q 311.0 110.2, 310.0 109.1 Q 309.1 108.0, 309.1 106.1 M 312.7 109.3 Q 313.9 109.3, 314.6 108.5 Q 315.2 107.6, 315.2 106.1 Q 315.2 104.5, 314.6 103.7 Q 313.9 102.9, 312.7 102.9 Q 311.5 102.9, 310.9 103.7 Q 310.2 104.5, 310.2 106.1 Q 310.2 107.7, 310.9 108.5 Q 311.5 109.3, 312.7 109.3 " fill="#FF0000"/>
<path class="atom-3" d="M 317.6 102.1 L 318.7 102.1 L 318.7 105.5 L 322.7 105.5 L 322.7 102.1 L 323.8 102.1 L 323.8 110.0 L 322.7 110.0 L 322.7 106.4 L 318.7 106.4 L 318.7 110.0 L 317.6 110.0 L 317.6 102.1 " fill="#FF0000"/>
<path class="atom-12" d="M 157.9 163.2 L 158.9 163.2 L 158.9 166.6 L 163.0 166.6 L 163.0 163.2 L 164.1 163.2 L 164.1 171.1 L 163.0 171.1 L 163.0 167.4 L 158.9 167.4 L 158.9 171.1 L 157.9 171.1 L 157.9 163.2 " fill="#FF0000"/>
<path class="atom-12" d="M 165.7 167.1 Q 165.7 165.2, 166.6 164.2 Q 167.5 163.1, 169.3 163.1 Q 171.0 163.1, 172.0 164.2 Q 172.9 165.2, 172.9 167.1 Q 172.9 169.0, 172.0 170.1 Q 171.0 171.2, 169.3 171.2 Q 167.6 171.2, 166.6 170.1 Q 165.7 169.1, 165.7 167.1 M 169.3 170.3 Q 170.5 170.3, 171.1 169.5 Q 171.8 168.7, 171.8 167.1 Q 171.8 165.6, 171.1 164.8 Q 170.5 164.0, 169.3 164.0 Q 168.1 164.0, 167.4 164.8 Q 166.8 165.6, 166.8 167.1 Q 166.8 168.7, 167.4 169.5 Q 168.1 170.3, 169.3 170.3 " fill="#FF0000"/>
<path class="atom-22" d="M 75.2 28.9 Q 75.2 27.0, 76.2 26.0 Q 77.1 24.9, 78.8 24.9 Q 80.6 24.9, 81.5 26.0 Q 82.5 27.0, 82.5 28.9 Q 82.5 30.9, 81.5 32.0 Q 80.6 33.0, 78.8 33.0 Q 77.1 33.0, 76.2 32.0 Q 75.2 30.9, 75.2 28.9 M 78.8 32.1 Q 80.1 32.1, 80.7 31.3 Q 81.4 30.5, 81.4 28.9 Q 81.4 27.4, 80.7 26.6 Q 80.1 25.8, 78.8 25.8 Q 77.6 25.8, 77.0 26.6 Q 76.3 27.4, 76.3 28.9 Q 76.3 30.5, 77.0 31.3 Q 77.6 32.1, 78.8 32.1 " fill="#FF0000"/>
<path class="atom-23" d="M 113.8 58.0 Q 113.8 56.1, 114.8 55.0 Q 115.7 53.9, 117.4 53.9 Q 119.2 53.9, 120.1 55.0 Q 121.1 56.1, 121.1 58.0 Q 121.1 59.9, 120.1 61.0 Q 119.2 62.1, 117.4 62.1 Q 115.7 62.1, 114.8 61.0 Q 113.8 59.9, 113.8 58.0 M 117.4 61.2 Q 118.7 61.2, 119.3 60.4 Q 120.0 59.5, 120.0 58.0 Q 120.0 56.4, 119.3 55.6 Q 118.7 54.8, 117.4 54.8 Q 116.2 54.8, 115.6 55.6 Q 114.9 56.4, 114.9 58.0 Q 114.9 59.6, 115.6 60.4 Q 116.2 61.2, 117.4 61.2 " fill="#FF0000"/>
<path class="atom-23" d="M 122.3 54.0 L 123.4 54.0 L 123.4 57.4 L 127.4 57.4 L 127.4 54.0 L 128.5 54.0 L 128.5 61.9 L 127.4 61.9 L 127.4 58.3 L 123.4 58.3 L 123.4 61.9 L 122.3 61.9 L 122.3 54.0 " fill="#FF0000"/>
<path class="atom-26" d="M 17.2 91.9 L 18.2 91.9 L 18.2 95.2 L 22.3 95.2 L 22.3 91.9 L 23.3 91.9 L 23.3 99.8 L 22.3 99.8 L 22.3 96.1 L 18.2 96.1 L 18.2 99.8 L 17.2 99.8 L 17.2 91.9 " fill="#FF0000"/>
<path class="atom-26" d="M 24.9 95.8 Q 24.9 93.9, 25.9 92.8 Q 26.8 91.8, 28.6 91.8 Q 30.3 91.8, 31.3 92.8 Q 32.2 93.9, 32.2 95.8 Q 32.2 97.7, 31.3 98.8 Q 30.3 99.9, 28.6 99.9 Q 26.8 99.9, 25.9 98.8 Q 24.9 97.7, 24.9 95.8 M 28.6 99.0 Q 29.8 99.0, 30.4 98.2 Q 31.1 97.4, 31.1 95.8 Q 31.1 94.2, 30.4 93.5 Q 29.8 92.7, 28.6 92.7 Q 27.4 92.7, 26.7 93.5 Q 26.1 94.2, 26.1 95.8 Q 26.1 97.4, 26.7 98.2 Q 27.4 99.0, 28.6 99.0 " fill="#FF0000"/>
<path class="atom-28" d="M 142.1 79.2 Q 142.1 77.3, 143.0 76.3 Q 144.0 75.2, 145.7 75.2 Q 147.5 75.2, 148.4 76.3 Q 149.3 77.3, 149.3 79.2 Q 149.3 81.1, 148.4 82.2 Q 147.4 83.3, 145.7 83.3 Q 144.0 83.3, 143.0 82.2 Q 142.1 81.1, 142.1 79.2 M 145.7 82.4 Q 146.9 82.4, 147.6 81.6 Q 148.2 80.8, 148.2 79.2 Q 148.2 77.7, 147.6 76.9 Q 146.9 76.1, 145.7 76.1 Q 144.5 76.1, 143.8 76.9 Q 143.2 77.7, 143.2 79.2 Q 143.2 80.8, 143.8 81.6 Q 144.5 82.4, 145.7 82.4 " fill="#FF0000"/>
<path class="atom-29" d="M 100.4 91.0 L 101.5 91.0 L 101.5 94.4 L 105.5 94.4 L 105.5 91.0 L 106.6 91.0 L 106.6 98.9 L 105.5 98.9 L 105.5 95.3 L 101.5 95.3 L 101.5 98.9 L 100.4 98.9 L 100.4 91.0 " fill="#FF0000"/>
<path class="atom-29" d="M 108.2 95.0 Q 108.2 93.1, 109.2 92.0 Q 110.1 90.9, 111.9 90.9 Q 113.6 90.9, 114.6 92.0 Q 115.5 93.1, 115.5 95.0 Q 115.5 96.9, 114.5 98.0 Q 113.6 99.1, 111.9 99.1 Q 110.1 99.1, 109.2 98.0 Q 108.2 96.9, 108.2 95.0 M 111.9 98.2 Q 113.1 98.2, 113.7 97.4 Q 114.4 96.5, 114.4 95.0 Q 114.4 93.4, 113.7 92.6 Q 113.1 91.8, 111.9 91.8 Q 110.7 91.8, 110.0 92.6 Q 109.4 93.4, 109.4 95.0 Q 109.4 96.6, 110.0 97.4 Q 110.7 98.2, 111.9 98.2 " fill="#FF0000"/>
<path class="atom-32" d="M 161.0 158.1 Q 161.0 156.2, 161.9 155.2 Q 162.9 154.1, 164.6 154.1 Q 166.4 154.1, 167.3 155.2 Q 168.3 156.2, 168.3 158.1 Q 168.3 160.0, 167.3 161.1 Q 166.4 162.2, 164.6 162.2 Q 162.9 162.2, 161.9 161.1 Q 161.0 160.0, 161.0 158.1 M 164.6 161.3 Q 165.8 161.3, 166.5 160.5 Q 167.1 159.7, 167.1 158.1 Q 167.1 156.6, 166.5 155.8 Q 165.8 155.0, 164.6 155.0 Q 163.4 155.0, 162.8 155.8 Q 162.1 156.5, 162.1 158.1 Q 162.1 159.7, 162.8 160.5 Q 163.4 161.3, 164.6 161.3 " fill="#FF0000"/>
<path class="atom-32" d="M 169.5 154.2 L 170.6 154.2 L 170.6 157.5 L 174.6 157.5 L 174.6 154.2 L 175.7 154.2 L 175.7 162.1 L 174.6 162.1 L 174.6 158.4 L 170.6 158.4 L 170.6 162.1 L 169.5 162.1 L 169.5 154.2 " fill="#FF0000"/>
<path class="atom-34" d="M 222.6 71.2 Q 222.6 69.3, 223.5 68.2 Q 224.4 67.2, 226.2 67.2 Q 227.9 67.2, 228.9 68.2 Q 229.8 69.3, 229.8 71.2 Q 229.8 73.1, 228.9 74.2 Q 227.9 75.3, 226.2 75.3 Q 224.4 75.3, 223.5 74.2 Q 222.6 73.1, 222.6 71.2 M 226.2 74.4 Q 227.4 74.4, 228.0 73.6 Q 228.7 72.8, 228.7 71.2 Q 228.7 69.6, 228.0 68.9 Q 227.4 68.1, 226.2 68.1 Q 225.0 68.1, 224.3 68.9 Q 223.7 69.6, 223.7 71.2 Q 223.7 72.8, 224.3 73.6 Q 225.0 74.4, 226.2 74.4 " fill="#FF0000"/>
<path class="atom-35" d="M 204.0 110.5 L 205.1 110.5 L 205.1 113.9 L 209.1 113.9 L 209.1 110.5 L 210.2 110.5 L 210.2 118.4 L 209.1 118.4 L 209.1 114.7 L 205.1 114.7 L 205.1 118.4 L 204.0 118.4 L 204.0 110.5 " fill="#FF0000"/>
<path class="atom-35" d="M 211.8 114.4 Q 211.8 112.5, 212.8 111.5 Q 213.7 110.4, 215.5 110.4 Q 217.2 110.4, 218.1 111.5 Q 219.1 112.5, 219.1 114.4 Q 219.1 116.3, 218.1 117.4 Q 217.2 118.5, 215.5 118.5 Q 213.7 118.5, 212.8 117.4 Q 211.8 116.4, 211.8 114.4 M 215.5 117.6 Q 216.7 117.6, 217.3 116.8 Q 218.0 116.0, 218.0 114.4 Q 218.0 112.9, 217.3 112.1 Q 216.7 111.3, 215.5 111.3 Q 214.2 111.3, 213.6 112.1 Q 212.9 112.9, 212.9 114.4 Q 212.9 116.0, 213.6 116.8 Q 214.2 117.6, 215.5 117.6 " fill="#FF0000"/>
<path class="atom-38" d="M 310.5 86.0 Q 310.5 84.1, 311.4 83.1 Q 312.4 82.0, 314.1 82.0 Q 315.9 82.0, 316.8 83.1 Q 317.7 84.1, 317.7 86.0 Q 317.7 87.9, 316.8 89.0 Q 315.8 90.1, 314.1 90.1 Q 312.4 90.1, 311.4 89.0 Q 310.5 88.0, 310.5 86.0 M 314.1 89.2 Q 315.3 89.2, 316.0 88.4 Q 316.6 87.6, 316.6 86.0 Q 316.6 84.5, 316.0 83.7 Q 315.3 82.9, 314.1 82.9 Q 312.9 82.9, 312.3 83.7 Q 311.6 84.5, 311.6 86.0 Q 311.6 87.6, 312.3 88.4 Q 312.9 89.2, 314.1 89.2 " fill="#FF0000"/>
<path class="atom-38" d="M 319.0 82.1 L 320.0 82.1 L 320.0 85.5 L 324.1 85.5 L 324.1 82.1 L 325.2 82.1 L 325.2 90.0 L 324.1 90.0 L 324.1 86.3 L 320.0 86.3 L 320.0 90.0 L 319.0 90.0 L 319.0 82.1 " fill="#FF0000"/>
</g>
    <g transform="translate(684.0, 0) scale(1 1) "><line x1="15" y1="100" x2="25" y2="100" style="stroke:rgb(0,0,0);stroke-width:2"/>
  <line x1="20" y1="95" x2="20" y2="105" style="stroke:rgb(0,0,0);stroke-width:2"/>
</g>
    <g transform="translate(724.0, 0) scale(1 1) "><!-- END OF HEADER -->
<rect style="opacity:1.0;fill:#FFFFFF;stroke:none" width="215.0" height="200.0" x="0.0" y="0.0"> </rect>
<path class="bond-0 atom-0 atom-1" d="M 183.7,56.0 L 158.3,99.9" style="fill:none;fill-rule:evenodd;stroke:#000000;stroke-width:2.0px;stroke-linecap:butt;stroke-linejoin:miter;stroke-opacity:1"/>
<path class="bond-1 atom-1 atom-2" d="M 158.3,99.9 L 168.4,117.4" style="fill:none;fill-rule:evenodd;stroke:#000000;stroke-width:2.0px;stroke-linecap:butt;stroke-linejoin:miter;stroke-opacity:1"/>
<path class="bond-1 atom-1 atom-2" d="M 168.4,117.4 L 178.5,134.9" style="fill:none;fill-rule:evenodd;stroke:#FF0000;stroke-width:2.0px;stroke-linecap:butt;stroke-linejoin:miter;stroke-opacity:1"/>
<path class="bond-2 atom-1 atom-3" d="M 158.3,99.9 L 107.6,99.9" style="fill:none;fill-rule:evenodd;stroke:#000000;stroke-width:2.0px;stroke-linecap:butt;stroke-linejoin:miter;stroke-opacity:1"/>
<path class="bond-3 atom-3 atom-4" d="M 107.6,99.9 L 107.6,49.2" style="fill:none;fill-rule:evenodd;stroke:#000000;stroke-width:2.0px;stroke-linecap:butt;stroke-linejoin:miter;stroke-opacity:1"/>
<path class="bond-4 atom-3 atom-5" d="M 107.6,99.9 L 107.6,150.6" style="fill:none;fill-rule:evenodd;stroke:#000000;stroke-width:2.0px;stroke-linecap:butt;stroke-linejoin:miter;stroke-opacity:1"/>
<path class="bond-5 atom-3 atom-6" d="M 107.6,99.9 L 56.9,99.9" style="fill:none;fill-rule:evenodd;stroke:#000000;stroke-width:2.0px;stroke-linecap:butt;stroke-linejoin:miter;stroke-opacity:1"/>
<path class="bond-6 atom-6 atom-7" d="M 54.7,96.1 L 44.0,114.5" style="fill:none;fill-rule:evenodd;stroke:#000000;stroke-width:2.0px;stroke-linecap:butt;stroke-linejoin:miter;stroke-opacity:1"/>
<path class="bond-6 atom-6 atom-7" d="M 44.0,114.5 L 33.4,133.0" style="fill:none;fill-rule:evenodd;stroke:#FF0000;stroke-width:2.0px;stroke-linecap:butt;stroke-linejoin:miter;stroke-opacity:1"/>
<path class="bond-6 atom-6 atom-7" d="M 61.3,99.9 L 50.6,118.3" style="fill:none;fill-rule:evenodd;stroke:#000000;stroke-width:2.0px;stroke-linecap:butt;stroke-linejoin:miter;stroke-opacity:1"/>
<path class="bond-6 atom-6 atom-7" d="M 50.6,118.3 L 40.0,136.8" style="fill:none;fill-rule:evenodd;stroke:#FF0000;stroke-width:2.0px;stroke-linecap:butt;stroke-linejoin:miter;stroke-opacity:1"/>
<path class="bond-7 atom-6 atom-8" d="M 56.9,99.9 L 46.9,82.5" style="fill:none;fill-rule:evenodd;stroke:#000000;stroke-width:2.0px;stroke-linecap:butt;stroke-linejoin:miter;stroke-opacity:1"/>
<path class="bond-7 atom-6 atom-8" d="M 46.9,82.5 L 36.8,65.1" style="fill:none;fill-rule:evenodd;stroke:#FF0000;stroke-width:2.0px;stroke-linecap:butt;stroke-linejoin:miter;stroke-opacity:1"/>
<path d="M 59.4,99.9 L 56.9,99.9 L 56.4,99.0" style="fill:none;stroke:#000000;stroke-width:2.0px;stroke-linecap:butt;stroke-linejoin:miter;stroke-opacity:1;"/>
<path class="atom-2" d="M 177.1 143.9 Q 177.1 140.4, 178.8 138.5 Q 180.5 136.5, 183.7 136.5 Q 186.9 136.5, 188.6 138.5 Q 190.3 140.4, 190.3 143.9 Q 190.3 147.3, 188.6 149.3 Q 186.8 151.3, 183.7 151.3 Q 180.5 151.3, 178.8 149.3 Q 177.1 147.4, 177.1 143.9 M 183.7 149.7 Q 185.9 149.7, 187.0 148.2 Q 188.2 146.7, 188.2 143.9 Q 188.2 141.0, 187.0 139.6 Q 185.9 138.2, 183.7 138.2 Q 181.5 138.2, 180.3 139.6 Q 179.1 141.0, 179.1 143.9 Q 179.1 146.8, 180.3 148.2 Q 181.5 149.7, 183.7 149.7 " fill="#FF0000"/>
<path class="atom-2" d="M 192.5 136.7 L 194.5 136.7 L 194.5 142.8 L 201.8 142.8 L 201.8 136.7 L 203.7 136.7 L 203.7 151.1 L 201.8 151.1 L 201.8 144.4 L 194.5 144.4 L 194.5 151.1 L 192.5 151.1 L 192.5 136.7 " fill="#FF0000"/>
<path class="atom-7" d="M 24.9 143.9 Q 24.9 140.4, 26.6 138.5 Q 28.3 136.5, 31.5 136.5 Q 34.7 136.5, 36.4 138.5 Q 38.1 140.4, 38.1 143.9 Q 38.1 147.3, 36.4 149.3 Q 34.7 151.3, 31.5 151.3 Q 28.4 151.3, 26.6 149.3 Q 24.9 147.4, 24.9 143.9 M 31.5 149.7 Q 33.7 149.7, 34.9 148.2 Q 36.1 146.7, 36.1 143.9 Q 36.1 141.0, 34.9 139.6 Q 33.7 138.2, 31.5 138.2 Q 29.3 138.2, 28.1 139.6 Q 27.0 141.0, 27.0 143.9 Q 27.0 146.8, 28.1 148.2 Q 29.3 149.7, 31.5 149.7 " fill="#FF0000"/>
<path class="atom-8" d="M 10.7 48.9 L 12.7 48.9 L 12.7 55.0 L 20.0 55.0 L 20.0 48.9 L 22.0 48.9 L 22.0 63.2 L 20.0 63.2 L 20.0 56.6 L 12.7 56.6 L 12.7 63.2 L 10.7 63.2 L 10.7 48.9 " fill="#FF0000"/>
<path class="atom-8" d="M 24.9 56.0 Q 24.9 52.6, 26.6 50.6 Q 28.3 48.7, 31.5 48.7 Q 34.7 48.7, 36.4 50.6 Q 38.1 52.6, 38.1 56.0 Q 38.1 59.5, 36.4 61.5 Q 34.7 63.5, 31.5 63.5 Q 28.4 63.5, 26.6 61.5 Q 24.9 59.5, 24.9 56.0 M 31.5 61.8 Q 33.7 61.8, 34.9 60.4 Q 36.1 58.9, 36.1 56.0 Q 36.1 53.2, 34.9 51.8 Q 33.7 50.3, 31.5 50.3 Q 29.3 50.3, 28.1 51.7 Q 27.0 53.2, 27.0 56.0 Q 27.0 58.9, 28.1 60.4 Q 29.3 61.8, 31.5 61.8 " fill="#FF0000"/>
</g>
  </g>
</svg>
