<?xml version='1.0' encoding='ASCII' standalone='yes'?>
<svg xmlns="http://www.w3.org/2000/svg" xmlns:xlink="http://www.w3.org/1999/xlink" version="1.1" width="753.0px" viewBox="0 0 753.0 200.0" height="200.0px">
  <g>
    <g transform="translate(0, 0) scale(1 1) "><!-- END OF HEADER -->
<rect style="opacity:1.0;fill:#FFFFFF;stroke:none" width="225.0" height="200.0" x="0.0" y="0.0"> </rect>
<path class="bond-0 atom-0 atom-1" d="M 54.4,32.8 L 101.3,46.9" style="fill:none;fill-rule:evenodd;stroke:#000000;stroke-width:2.0px;stroke-linecap:butt;stroke-linejoin:miter;stroke-opacity:1"/>
<path class="bond-1 atom-1 atom-2" d="M 101.3,46.9 L 112.6,94.5" style="fill:none;fill-rule:evenodd;stroke:#000000;stroke-width:2.0px;stroke-linecap:butt;stroke-linejoin:miter;stroke-opacity:1"/>
<path class="bond-2 atom-2 atom-3" d="M 112.6,94.5 L 123.9,142.2" style="fill:none;fill-rule:evenodd;stroke:#000000;stroke-width:2.0px;stroke-linecap:butt;stroke-linejoin:miter;stroke-opacity:1"/>
<path class="bond-3 atom-2 atom-4" d="M 112.6,94.5 L 64.9,105.8" style="fill:none;fill-rule:evenodd;stroke:#000000;stroke-width:2.0px;stroke-linecap:butt;stroke-linejoin:miter;stroke-opacity:1"/>
<path class="bond-4 atom-4 atom-5" d="M 64.9,105.8 L 50.9,152.7" style="fill:none;fill-rule:evenodd;stroke:#000000;stroke-width:2.0px;stroke-linecap:butt;stroke-linejoin:miter;stroke-opacity:1"/>
<path class="bond-5 atom-4 atom-6" d="M 64.9,105.8 L 52.1,92.2" style="fill:none;fill-rule:evenodd;stroke:#000000;stroke-width:2.0px;stroke-linecap:butt;stroke-linejoin:miter;stroke-opacity:1"/>
<path class="bond-5 atom-4 atom-6" d="M 52.1,92.2 L 39.3,78.7" style="fill:none;fill-rule:evenodd;stroke:#FF0000;stroke-width:2.0px;stroke-linecap:butt;stroke-linejoin:miter;stroke-opacity:1"/>
<path class="bond-6 atom-2 atom-7" d="M 112.6,94.5 L 160.2,83.2" style="fill:none;fill-rule:evenodd;stroke:#000000;stroke-width:2.0px;stroke-linecap:butt;stroke-linejoin:miter;stroke-opacity:1"/>
<path class="bond-7 atom-7 atom-8" d="M 160.2,83.2 L 173.1,96.8" style="fill:none;fill-rule:evenodd;stroke:#000000;stroke-width:2.0px;stroke-linecap:butt;stroke-linejoin:miter;stroke-opacity:1"/>
<path class="bond-7 atom-7 atom-8" d="M 173.1,96.8 L 185.9,110.4" style="fill:none;fill-rule:evenodd;stroke:#FF0000;stroke-width:2.0px;stroke-linecap:butt;stroke-linejoin:miter;stroke-opacity:1"/>
<path class="bond-8 atom-7 atom-9" d="M 160.2,83.2 L 165.9,64.2" style="fill:none;fill-rule:evenodd;stroke:#000000;stroke-width:2.0px;stroke-linecap:butt;stroke-linejoin:miter;stroke-opacity:1"/>
<path class="bond-8 atom-7 atom-9" d="M 165.9,64.2 L 171.6,45.1" style="fill:none;fill-rule:evenodd;stroke:#FF0000;stroke-width:2.0px;stroke-linecap:butt;stroke-linejoin:miter;stroke-opacity:1"/>
<path d="M 98.9,46.1 L 101.3,46.9 L 101.9,49.2" style="fill:none;stroke:#000000;stroke-width:2.0px;stroke-linecap:butt;stroke-linejoin:miter;stroke-opacity:1;"/>
<path class="atom-6" d="M 11.2 63.3 L 13.1 63.3 L 13.1 69.2 L 20.2 69.2 L 20.2 63.3 L 22.1 63.3 L 22.1 77.2 L 20.2 77.2 L 20.2 70.8 L 13.1 70.8 L 13.1 77.2 L 11.2 77.2 L 11.2 63.3 " fill="#FF0000"/>
<path class="atom-6" d="M 24.9 70.2 Q 24.9 66.9, 26.6 65.0 Q 28.2 63.2, 31.3 63.2 Q 34.4 63.2, 36.0 65.0 Q 37.7 66.9, 37.7 70.2 Q 37.7 73.6, 36.0 75.5 Q 34.4 77.4, 31.3 77.4 Q 28.3 77.4, 26.6 75.5 Q 24.9 73.6, 24.9 70.2 M 31.3 75.9 Q 33.4 75.9, 34.6 74.4 Q 35.7 73.0, 35.7 70.2 Q 35.7 67.5, 34.6 66.1 Q 33.4 64.8, 31.3 64.8 Q 29.2 64.8, 28.0 66.1 Q 26.9 67.5, 26.9 70.2 Q 26.9 73.0, 28.0 74.4 Q 29.2 75.9, 31.3 75.9 " fill="#FF0000"/>
<path class="atom-8" d="M 187.5 118.9 Q 187.5 115.5, 189.1 113.7 Q 190.8 111.8, 193.9 111.8 Q 196.9 111.8, 198.6 113.7 Q 200.2 115.5, 200.2 118.9 Q 200.2 122.2, 198.6 124.1 Q 196.9 126.0, 193.9 126.0 Q 190.8 126.0, 189.1 124.1 Q 187.5 122.2, 187.5 118.9 M 193.9 124.5 Q 196.0 124.5, 197.1 123.1 Q 198.3 121.6, 198.3 118.9 Q 198.3 116.1, 197.1 114.8 Q 196.0 113.4, 193.9 113.4 Q 191.8 113.4, 190.6 114.7 Q 189.5 116.1, 189.5 118.9 Q 189.5 121.7, 190.6 123.1 Q 191.8 124.5, 193.9 124.5 " fill="#FF0000"/>
<path class="atom-8" d="M 202.4 112.0 L 204.3 112.0 L 204.3 117.9 L 211.4 117.9 L 211.4 112.0 L 213.2 112.0 L 213.2 125.8 L 211.4 125.8 L 211.4 119.4 L 204.3 119.4 L 204.3 125.8 L 202.4 125.8 L 202.4 112.0 " fill="#FF0000"/>
<path class="atom-9" d="M 167.9 36.3 Q 167.9 33.0, 169.6 31.1 Q 171.2 29.3, 174.3 29.3 Q 177.4 29.3, 179.0 31.1 Q 180.7 33.0, 180.7 36.3 Q 180.7 39.7, 179.0 41.6 Q 177.3 43.5, 174.3 43.5 Q 171.2 43.5, 169.6 41.6 Q 167.9 39.7, 167.9 36.3 M 174.3 41.9 Q 176.4 41.9, 177.5 40.5 Q 178.7 39.1, 178.7 36.3 Q 178.7 33.6, 177.5 32.2 Q 176.4 30.8, 174.3 30.8 Q 172.2 30.8, 171.0 32.2 Q 169.9 33.6, 169.9 36.3 Q 169.9 39.1, 171.0 40.5 Q 172.2 41.9, 174.3 41.9 " fill="#FF0000"/>
<path class="atom-9" d="M 182.8 29.4 L 184.7 29.4 L 184.7 35.3 L 191.8 35.3 L 191.8 29.4 L 193.7 29.4 L 193.7 43.3 L 191.8 43.3 L 191.8 36.9 L 184.7 36.9 L 184.7 43.3 L 182.8 43.3 L 182.8 29.4 " fill="#FF0000"/>
<path class="legend" d="M 103.7 181.9 Q 103.7 179.6, 104.4 177.7 Q 105.1 175.8, 106.4 173.8 L 107.3 174.4 Q 106.2 176.3, 105.7 178.0 Q 105.2 179.7, 105.2 181.9 Q 105.2 184.0, 105.7 185.8 Q 106.2 187.5, 107.3 189.4 L 106.4 190.0 Q 105.1 188.0, 104.4 186.1 Q 103.7 184.2, 103.7 181.9 " fill="#000000"/>
<path class="legend" d="M 108.2 177.3 Q 108.6 176.2, 109.6 175.6 Q 110.6 175.0, 112.0 175.0 Q 113.7 175.0, 114.6 175.9 Q 115.6 176.8, 115.6 178.5 Q 115.6 180.2, 114.3 181.7 Q 113.1 183.3, 110.6 185.2 L 115.8 185.2 L 115.8 186.4 L 108.2 186.4 L 108.2 185.4 Q 110.3 183.9, 111.5 182.8 Q 112.8 181.6, 113.4 180.6 Q 114.0 179.6, 114.0 178.6 Q 114.0 177.5, 113.5 176.9 Q 112.9 176.3, 112.0 176.3 Q 111.0 176.3, 110.4 176.6 Q 109.8 177.0, 109.4 177.8 L 108.2 177.3 " fill="#000000"/>
<path class="legend" d="M 120.8 181.9 Q 120.8 184.2, 120.1 186.1 Q 119.4 188.0, 118.1 190.0 L 117.2 189.4 Q 118.3 187.5, 118.8 185.8 Q 119.3 184.0, 119.3 181.9 Q 119.3 179.7, 118.8 178.0 Q 118.3 176.3, 117.2 174.4 L 118.1 173.8 Q 119.4 175.8, 120.1 177.7 Q 120.8 179.6, 120.8 181.9 " fill="#000000"/>
</g>
    <g transform="translate(225.0, 0) scale(1 1) "><line x1="5" y1="100" x2="35" y2="100" style="stroke:rgb(0,0,0);stroke-width:2"/>
  <line x1="34" y1="100" x2="29" y2="95" style="stroke:rgb(0,0,0);stroke-width:2"/>
  <line x1="34" y1="100" x2="29" y2="105" style="stroke:rgb(0,0,0);stroke-width:2"/>
</g>
    <g transform="translate(265.0, 0) scale(1 1) "><!-- END OF HEADER -->
<rect style="opacity:1.0;fill:#FFFFFF;stroke:none" width="233.0" height="200.0" x="0.0" y="0.0"> </rect>
<path class="bond-0 atom-0 atom-1" d="M 58.1,37.7 L 107.8,53.5" style="fill:none;fill-rule:evenodd;stroke:#000000;stroke-width:2.0px;stroke-linecap:butt;stroke-linejoin:miter;stroke-opacity:1"/>
<path class="bond-1 atom-1 atom-2" d="M 107.8,53.5 L 118.9,104.3" style="fill:none;fill-rule:evenodd;stroke:#000000;stroke-width:2.0px;stroke-linecap:butt;stroke-linejoin:miter;stroke-opacity:1"/>
<path class="bond-2 atom-2 atom-3" d="M 118.9,104.3 L 130.1,155.2" style="fill:none;fill-rule:evenodd;stroke:#000000;stroke-width:2.0px;stroke-linecap:butt;stroke-linejoin:miter;stroke-opacity:1"/>
<path class="bond-3 atom-2 atom-4" d="M 118.9,104.3 L 68.1,115.5" style="fill:none;fill-rule:evenodd;stroke:#000000;stroke-width:2.0px;stroke-linecap:butt;stroke-linejoin:miter;stroke-opacity:1"/>
<path class="bond-4 atom-4 atom-5" d="M 68.1,115.5 L 52.3,165.1" style="fill:none;fill-rule:evenodd;stroke:#000000;stroke-width:2.0px;stroke-linecap:butt;stroke-linejoin:miter;stroke-opacity:1"/>
<path class="bond-5 atom-4 atom-6" d="M 68.1,115.5 L 54.8,100.9" style="fill:none;fill-rule:evenodd;stroke:#000000;stroke-width:2.0px;stroke-linecap:butt;stroke-linejoin:miter;stroke-opacity:1"/>
<path class="bond-5 atom-4 atom-6" d="M 54.8,100.9 L 41.5,86.4" style="fill:none;fill-rule:evenodd;stroke:#FF0000;stroke-width:2.0px;stroke-linecap:butt;stroke-linejoin:miter;stroke-opacity:1"/>
<path class="bond-6 atom-2 atom-7" d="M 118.9,104.3 L 169.8,93.2" style="fill:none;fill-rule:evenodd;stroke:#000000;stroke-width:2.0px;stroke-linecap:butt;stroke-linejoin:miter;stroke-opacity:1"/>
<path class="bond-7 atom-7 atom-8" d="M 169.8,93.2 L 220.7,82.0" style="fill:none;fill-rule:evenodd;stroke:#000000;stroke-width:2.0px;stroke-linecap:butt;stroke-linejoin:miter;stroke-opacity:1"/>
<path class="bond-8 atom-7 atom-9" d="M 169.8,93.2 L 165.2,72.4" style="fill:none;fill-rule:evenodd;stroke:#000000;stroke-width:2.0px;stroke-linecap:butt;stroke-linejoin:miter;stroke-opacity:1"/>
<path class="bond-8 atom-7 atom-9" d="M 165.2,72.4 L 160.7,51.7" style="fill:none;fill-rule:evenodd;stroke:#FF0000;stroke-width:2.0px;stroke-linecap:butt;stroke-linejoin:miter;stroke-opacity:1"/>
<path class="bond-9 atom-7 atom-10" d="M 169.8,93.2 L 174.4,114.0" style="fill:none;fill-rule:evenodd;stroke:#000000;stroke-width:2.0px;stroke-linecap:butt;stroke-linejoin:miter;stroke-opacity:1"/>
<path class="bond-9 atom-7 atom-10" d="M 174.4,114.0 L 179.0,134.8" style="fill:none;fill-rule:evenodd;stroke:#FF0000;stroke-width:2.0px;stroke-linecap:butt;stroke-linejoin:miter;stroke-opacity:1"/>
<path d="M 105.3,52.7 L 107.8,53.5 L 108.3,56.0" style="fill:none;stroke:#000000;stroke-width:2.0px;stroke-linecap:butt;stroke-linejoin:miter;stroke-opacity:1;"/>
<path class="atom-6" d="M 11.6 69.8 L 13.6 69.8 L 13.6 76.0 L 21.2 76.0 L 21.2 69.8 L 23.2 69.8 L 23.2 84.5 L 21.2 84.5 L 21.2 77.7 L 13.6 77.7 L 13.6 84.5 L 11.6 84.5 L 11.6 69.8 " fill="#FF0000"/>
<path class="atom-6" d="M 26.2 77.1 Q 26.2 73.6, 28.0 71.6 Q 29.7 69.6, 33.0 69.6 Q 36.3 69.6, 38.0 71.6 Q 39.7 73.6, 39.7 77.1 Q 39.7 80.7, 38.0 82.7 Q 36.2 84.8, 33.0 84.8 Q 29.7 84.8, 28.0 82.7 Q 26.2 80.7, 26.2 77.1 M 33.0 83.1 Q 35.2 83.1, 36.4 81.6 Q 37.7 80.1, 37.7 77.1 Q 37.7 74.2, 36.4 72.8 Q 35.2 71.3, 33.0 71.3 Q 30.7 71.3, 29.5 72.7 Q 28.3 74.2, 28.3 77.1 Q 28.3 80.1, 29.5 81.6 Q 30.7 83.1, 33.0 83.1 " fill="#FF0000"/>
<path class="atom-9" d="M 151.8 42.3 Q 151.8 38.8, 153.6 36.8 Q 155.3 34.9, 158.6 34.9 Q 161.9 34.9, 163.6 36.8 Q 165.4 38.8, 165.4 42.3 Q 165.4 45.9, 163.6 48.0 Q 161.8 50.0, 158.6 50.0 Q 155.4 50.0, 153.6 48.0 Q 151.8 46.0, 151.8 42.3 M 158.6 48.3 Q 160.9 48.3, 162.1 46.8 Q 163.3 45.3, 163.3 42.3 Q 163.3 39.5, 162.1 38.0 Q 160.9 36.5, 158.6 36.5 Q 156.4 36.5, 155.1 38.0 Q 153.9 39.4, 153.9 42.3 Q 153.9 45.3, 155.1 46.8 Q 156.4 48.3, 158.6 48.3 " fill="#FF0000"/>
<path class="atom-9" d="M 167.7 35.0 L 169.7 35.0 L 169.7 41.3 L 177.2 41.3 L 177.2 35.0 L 179.2 35.0 L 179.2 49.8 L 177.2 49.8 L 177.2 43.0 L 169.7 43.0 L 169.7 49.8 L 167.7 49.8 L 167.7 35.0 " fill="#FF0000"/>
<path class="atom-10" d="M 174.2 144.1 Q 174.2 140.5, 176.0 138.5 Q 177.7 136.6, 181.0 136.6 Q 184.2 136.6, 186.0 138.5 Q 187.7 140.5, 187.7 144.1 Q 187.7 147.6, 186.0 149.7 Q 184.2 151.7, 181.0 151.7 Q 177.7 151.7, 176.0 149.7 Q 174.2 147.7, 174.2 144.1 M 181.0 150.0 Q 183.2 150.0, 184.4 148.5 Q 185.7 147.0, 185.7 144.1 Q 185.7 141.2, 184.4 139.7 Q 183.2 138.2, 181.0 138.2 Q 178.7 138.2, 177.5 139.7 Q 176.3 141.1, 176.3 144.1 Q 176.3 147.0, 177.5 148.5 Q 178.7 150.0, 181.0 150.0 " fill="#FF0000"/>
<path class="atom-10" d="M 190.0 136.7 L 192.0 136.7 L 192.0 143.0 L 199.6 143.0 L 199.6 136.7 L 201.6 136.7 L 201.6 151.5 L 199.6 151.5 L 199.6 144.7 L 192.0 144.7 L 192.0 151.5 L 190.0 151.5 L 190.0 136.7 " fill="#FF0000"/>
</g>
    <g transform="translate(498.0, 0) scale(1 1) "><line x1="15" y1="100" x2="25" y2="100" style="stroke:rgb(0,0,0);stroke-width:2"/>
  <line x1="20" y1="95" x2="20" y2="105" style="stroke:rgb(0,0,0);stroke-width:2"/>
</g>
    <g transform="translate(538.0, 0) scale(1 1) "><!-- END OF HEADER -->
<rect style="opacity:1.0;fill:#FFFFFF;stroke:none" width="215.0" height="200.0" x="0.0" y="0.0"> </rect>
<path class="bond-0 atom-0 atom-1" d="M 183.7,56.0 L 158.3,99.9" style="fill:none;fill-rule:evenodd;stroke:#000000;stroke-width:2.0px;stroke-linecap:butt;stroke-linejoin:miter;stroke-opacity:1"/>
<path class="bond-1 atom-1 atom-2" d="M 158.3,99.9 L 168.4,117.4" style="fill:none;fill-rule:evenodd;stroke:#000000;stroke-width:2.0px;stroke-linecap:butt;stroke-linejoin:miter;stroke-opacity:1"/>
<path class="bond-1 atom-1 atom-2" d="M 168.4,117.4 L 178.5,134.9" style="fill:none;fill-rule:evenodd;stroke:#FF0000;stroke-width:2.0px;stroke-linecap:butt;stroke-linejoin:miter;stroke-opacity:1"/>
<path class="bond-2 atom-1 atom-3" d="M 158.3,99.9 L 107.6,99.9" style="fill:none;fill-rule:evenodd;stroke:#000000;stroke-width:2.0px;stroke-linecap:butt;stroke-linejoin:miter;stroke-opacity:1"/>
<path class="bond-3 atom-3 atom-4" d="M 107.6,99.9 L 107.6,49.2" style="fill:none;fill-rule:evenodd;stroke:#000000;stroke-width:2.0px;stroke-linecap:butt;stroke-linejoin:miter;stroke-opacity:1"/>
<path class="bond-4 atom-3 atom-5" d="M 107.6,99.9 L 107.6,150.6" style="fill:none;fill-rule:evenodd;stroke:#000000;stroke-width:2.0px;stroke-linecap:butt;stroke-linejoin:miter;stroke-opacity:1"/>
<path class="bond-5 atom-3 atom-6" d="M 107.6,99.9 L 56.9,99.9" style="fill:none;fill-rule:evenodd;stroke:#000000;stroke-width:2.0px;stroke-linecap:butt;stroke-linejoin:miter;stroke-opacity:1"/>
<path class="bond-6 atom-6 atom-7" d="M 56.9,99.9 L 46.9,82.5" style="fill:none;fill-rule:evenodd;stroke:#000000;stroke-width:2.0px;stroke-linecap:butt;stroke-linejoin:miter;stroke-opacity:1"/>
<path class="bond-6 atom-6 atom-7" d="M 46.9,82.5 L 36.8,65.1" style="fill:none;fill-rule:evenodd;stroke:#FF0000;stroke-width:2.0px;stroke-linecap:butt;stroke-linejoin:miter;stroke-opacity:1"/>
<path class="bond-7 atom-6 atom-8" d="M 56.9,99.9 L 46.8,117.4" style="fill:none;fill-rule:evenodd;stroke:#000000;stroke-width:2.0px;stroke-linecap:butt;stroke-linejoin:miter;stroke-opacity:1"/>
<path class="bond-7 atom-6 atom-8" d="M 46.8,117.4 L 36.7,134.9" style="fill:none;fill-rule:evenodd;stroke:#FF0000;stroke-width:2.0px;stroke-linecap:butt;stroke-linejoin:miter;stroke-opacity:1"/>
<path class="atom-2" d="M 177.1 143.9 Q 177.1 140.4, 178.8 138.5 Q 180.5 136.5, 183.7 136.5 Q 186.9 136.5, 188.6 138.5 Q 190.3 140.4, 190.3 143.9 Q 190.3 147.3, 188.6 149.3 Q 186.8 151.3, 183.7 151.3 Q 180.5 151.3, 178.8 149.3 Q 177.1 147.4, 177.1 143.9 M 183.7 149.7 Q 185.9 149.7, 187.0 148.2 Q 188.2 146.7, 188.2 143.9 Q 188.2 141.0, 187.0 139.6 Q 185.9 138.2, 183.7 138.2 Q 181.5 138.2, 180.3 139.6 Q 179.1 141.0, 179.1 143.9 Q 179.1 146.8, 180.3 148.2 Q 181.5 149.7, 183.7 149.7 " fill="#FF0000"/>
<path class="atom-2" d="M 192.5 136.7 L 194.5 136.7 L 194.5 142.8 L 201.8 142.8 L 201.8 136.7 L 203.7 136.7 L 203.7 151.1 L 201.8 151.1 L 201.8 144.4 L 194.5 144.4 L 194.5 151.1 L 192.5 151.1 L 192.5 136.7 " fill="#FF0000"/>
<path class="atom-7" d="M 10.7 48.9 L 12.7 48.9 L 12.7 55.0 L 20.0 55.0 L 20.0 48.9 L 22.0 48.9 L 22.0 63.2 L 20.0 63.2 L 20.0 56.6 L 12.7 56.6 L 12.7 63.2 L 10.7 63.2 L 10.7 48.9 " fill="#FF0000"/>
<path class="atom-7" d="M 24.9 56.0 Q 24.9 52.6, 26.6 50.6 Q 28.3 48.7, 31.5 48.7 Q 34.7 48.7, 36.4 50.6 Q 38.1 52.6, 38.1 56.0 Q 38.1 59.5, 36.4 61.5 Q 34.7 63.5, 31.5 63.5 Q 28.4 63.5, 26.6 61.5 Q 24.9 59.5, 24.9 56.0 M 31.5 61.8 Q 33.7 61.8, 34.9 60.4 Q 36.1 58.9, 36.1 56.0 Q 36.1 53.2, 34.9 51.8 Q 33.7 50.3, 31.5 50.3 Q 29.3 50.3, 28.1 51.7 Q 27.0 53.2, 27.0 56.0 Q 27.0 58.9, 28.1 60.4 Q 29.3 61.8, 31.5 61.8 " fill="#FF0000"/>
<path class="atom-8" d="M 10.7 136.7 L 12.7 136.7 L 12.7 142.8 L 20.0 142.8 L 20.0 136.7 L 22.0 136.7 L 22.0 151.1 L 20.0 151.1 L 20.0 144.4 L 12.7 144.4 L 12.7 151.1 L 10.7 151.1 L 10.7 136.7 " fill="#FF0000"/>
<path class="atom-8" d="M 24.9 143.9 Q 24.9 140.4, 26.6 138.5 Q 28.3 136.5, 31.5 136.5 Q 34.7 136.5, 36.4 138.5 Q 38.1 140.4, 38.1 143.9 Q 38.1 147.3, 36.4 149.3 Q 34.7 151.3, 31.5 151.3 Q 28.4 151.3, 26.6 149.3 Q 24.9 147.4, 24.9 143.9 M 31.5 149.7 Q 33.7 149.7, 34.9 148.2 Q 36.1 146.7, 36.1 143.9 Q 36.1 141.0, 34.9 139.6 Q 33.7 138.2, 31.5 138.2 Q 29.3 138.2, 28.1 139.6 Q 27.0 141.0, 27.0 143.9 Q 27.0 146.8, 28.1 148.2 Q 29.3 149.7, 31.5 149.7 " fill="#FF0000"/>
</g>
  </g>
</svg>
