<?xml version='1.0' encoding='ASCII' standalone='yes'?>
<svg xmlns="http://www.w3.org/2000/svg" xmlns:xlink="http://www.w3.org/1999/xlink" version="1.1" width="846.0px" viewBox="0 0 846.0 200.0" height="200.0px">
  <g>
    <g transform="translate(0, 0) scale(1 1) "><!-- END OF HEADER -->
<rect style="opacity:1.0;fill:#FFFFFF;stroke:none" width="271.0" height="200.0" x="0.0" y="0.0"> </rect>
<path class="bond-0 atom-0 atom-1" d="M 97.1,38.9 L 107.7,71.8" style="fill:none;fill-rule:evenodd;stroke:#000000;stroke-width:2.0px;stroke-linecap:butt;stroke-linejoin:miter;stroke-opacity:1"/>
<path class="bond-1 atom-1 atom-2" d="M 107.7,71.8 L 121.8,74.8" style="fill:none;fill-rule:evenodd;stroke:#000000;stroke-width:2.0px;stroke-linecap:butt;stroke-linejoin:miter;stroke-opacity:1"/>
<path class="bond-1 atom-1 atom-2" d="M 121.8,74.8 L 135.9,77.8" style="fill:none;fill-rule:evenodd;stroke:#FF0000;stroke-width:2.0px;stroke-linecap:butt;stroke-linejoin:miter;stroke-opacity:1"/>
<path class="bond-2 atom-2 atom-3" d="M 143.5,85.2 L 147.9,98.5" style="fill:none;fill-rule:evenodd;stroke:#FF0000;stroke-width:2.0px;stroke-linecap:butt;stroke-linejoin:miter;stroke-opacity:1"/>
<path class="bond-2 atom-2 atom-3" d="M 147.9,98.5 L 152.2,111.8" style="fill:none;fill-rule:evenodd;stroke:#000000;stroke-width:2.0px;stroke-linecap:butt;stroke-linejoin:miter;stroke-opacity:1"/>
<path class="bond-3 atom-3 atom-4" d="M 151.3,109.0 L 141.9,119.3" style="fill:none;fill-rule:evenodd;stroke:#000000;stroke-width:2.0px;stroke-linecap:butt;stroke-linejoin:miter;stroke-opacity:1"/>
<path class="bond-3 atom-3 atom-4" d="M 141.9,119.3 L 132.6,129.7" style="fill:none;fill-rule:evenodd;stroke:#FF0000;stroke-width:2.0px;stroke-linecap:butt;stroke-linejoin:miter;stroke-opacity:1"/>
<path class="bond-3 atom-3 atom-4" d="M 155.1,112.5 L 145.8,122.8" style="fill:none;fill-rule:evenodd;stroke:#000000;stroke-width:2.0px;stroke-linecap:butt;stroke-linejoin:miter;stroke-opacity:1"/>
<path class="bond-3 atom-3 atom-4" d="M 145.8,122.8 L 136.5,133.2" style="fill:none;fill-rule:evenodd;stroke:#FF0000;stroke-width:2.0px;stroke-linecap:butt;stroke-linejoin:miter;stroke-opacity:1"/>
<path class="bond-4 atom-3 atom-5" d="M 152.2,111.8 L 186.0,119.0" style="fill:none;fill-rule:evenodd;stroke:#000000;stroke-width:2.0px;stroke-linecap:butt;stroke-linejoin:miter;stroke-opacity:1"/>
<path class="bond-5 atom-5 atom-6" d="M 186.0,119.0 L 178.8,152.8" style="fill:none;fill-rule:evenodd;stroke:#000000;stroke-width:2.0px;stroke-linecap:butt;stroke-linejoin:miter;stroke-opacity:1"/>
<path class="bond-6 atom-5 atom-7" d="M 186.0,119.0 L 193.2,85.2" style="fill:none;fill-rule:evenodd;stroke:#000000;stroke-width:2.0px;stroke-linecap:butt;stroke-linejoin:miter;stroke-opacity:1"/>
<path class="bond-7 atom-7 atom-8" d="M 193.2,85.2 L 206.8,80.8" style="fill:none;fill-rule:evenodd;stroke:#000000;stroke-width:2.0px;stroke-linecap:butt;stroke-linejoin:miter;stroke-opacity:1"/>
<path class="bond-7 atom-7 atom-8" d="M 206.8,80.8 L 220.4,76.4" style="fill:none;fill-rule:evenodd;stroke:#FF0000;stroke-width:2.0px;stroke-linecap:butt;stroke-linejoin:miter;stroke-opacity:1"/>
<path class="bond-8 atom-5 atom-9" d="M 186.0,119.0 L 219.8,126.2" style="fill:none;fill-rule:evenodd;stroke:#000000;stroke-width:2.0px;stroke-linecap:butt;stroke-linejoin:miter;stroke-opacity:1"/>
<path class="bond-9 atom-9 atom-10" d="M 219.8,126.2 L 228.5,116.5" style="fill:none;fill-rule:evenodd;stroke:#000000;stroke-width:2.0px;stroke-linecap:butt;stroke-linejoin:miter;stroke-opacity:1"/>
<path class="bond-9 atom-9 atom-10" d="M 228.5,116.5 L 237.3,106.8" style="fill:none;fill-rule:evenodd;stroke:#FF0000;stroke-width:2.0px;stroke-linecap:butt;stroke-linejoin:miter;stroke-opacity:1"/>
<path class="bond-10 atom-1 atom-11" d="M 107.7,71.8 L 84.6,97.5" style="fill:none;fill-rule:evenodd;stroke:#000000;stroke-width:2.0px;stroke-linecap:butt;stroke-linejoin:miter;stroke-opacity:1"/>
<path class="bond-11 atom-11 atom-12" d="M 84.6,97.5 L 58.9,74.3" style="fill:none;fill-rule:evenodd;stroke:#000000;stroke-width:2.0px;stroke-linecap:butt;stroke-linejoin:miter;stroke-opacity:1"/>
<path class="bond-12 atom-11 atom-13" d="M 84.6,97.5 L 110.3,120.6" style="fill:none;fill-rule:evenodd;stroke:#000000;stroke-width:2.0px;stroke-linecap:butt;stroke-linejoin:miter;stroke-opacity:1"/>
<path class="bond-13 atom-11 atom-14" d="M 84.6,97.5 L 61.5,123.1" style="fill:none;fill-rule:evenodd;stroke:#000000;stroke-width:2.0px;stroke-linecap:butt;stroke-linejoin:miter;stroke-opacity:1"/>
<path class="bond-14 atom-14 atom-15" d="M 58.6,122.5 L 63.1,136.6" style="fill:none;fill-rule:evenodd;stroke:#000000;stroke-width:2.0px;stroke-linecap:butt;stroke-linejoin:miter;stroke-opacity:1"/>
<path class="bond-14 atom-14 atom-15" d="M 63.1,136.6 L 67.7,150.7" style="fill:none;fill-rule:evenodd;stroke:#FF0000;stroke-width:2.0px;stroke-linecap:butt;stroke-linejoin:miter;stroke-opacity:1"/>
<path class="bond-14 atom-14 atom-15" d="M 63.5,120.9 L 68.1,135.0" style="fill:none;fill-rule:evenodd;stroke:#000000;stroke-width:2.0px;stroke-linecap:butt;stroke-linejoin:miter;stroke-opacity:1"/>
<path class="bond-14 atom-14 atom-15" d="M 68.1,135.0 L 72.6,149.1" style="fill:none;fill-rule:evenodd;stroke:#FF0000;stroke-width:2.0px;stroke-linecap:butt;stroke-linejoin:miter;stroke-opacity:1"/>
<path class="bond-15 atom-14 atom-16" d="M 61.5,123.1 L 47.4,120.1" style="fill:none;fill-rule:evenodd;stroke:#000000;stroke-width:2.0px;stroke-linecap:butt;stroke-linejoin:miter;stroke-opacity:1"/>
<path class="bond-15 atom-14 atom-16" d="M 47.4,120.1 L 33.3,117.1" style="fill:none;fill-rule:evenodd;stroke:#FF0000;stroke-width:2.0px;stroke-linecap:butt;stroke-linejoin:miter;stroke-opacity:1"/>
<path d="M 152.0,111.2 L 152.2,111.8 L 153.9,112.2" style="fill:none;stroke:#000000;stroke-width:2.0px;stroke-linecap:butt;stroke-linejoin:miter;stroke-opacity:1;"/>
<path d="M 192.8,86.9 L 193.2,85.2 L 193.8,85.0" style="fill:none;stroke:#000000;stroke-width:2.0px;stroke-linecap:butt;stroke-linejoin:miter;stroke-opacity:1;"/>
<path d="M 218.1,125.9 L 219.8,126.2 L 220.2,125.7" style="fill:none;stroke:#000000;stroke-width:2.0px;stroke-linecap:butt;stroke-linejoin:miter;stroke-opacity:1;"/>
<path d="M 62.6,121.8 L 61.5,123.1 L 60.8,123.0" style="fill:none;stroke:#000000;stroke-width:2.0px;stroke-linecap:butt;stroke-linejoin:miter;stroke-opacity:1;"/>
<path class="atom-2" d="M 137.0 79.0 Q 137.0 76.7, 138.2 75.3 Q 139.4 74.0, 141.5 74.0 Q 143.7 74.0, 144.9 75.3 Q 146.0 76.7, 146.0 79.0 Q 146.0 81.4, 144.8 82.7 Q 143.7 84.1, 141.5 84.1 Q 139.4 84.1, 138.2 82.7 Q 137.0 81.4, 137.0 79.0 M 141.5 83.0 Q 143.0 83.0, 143.8 82.0 Q 144.6 81.0, 144.6 79.0 Q 144.6 77.1, 143.8 76.1 Q 143.0 75.1, 141.5 75.1 Q 140.0 75.1, 139.2 76.1 Q 138.4 77.1, 138.4 79.0 Q 138.4 81.0, 139.2 82.0 Q 140.0 83.0, 141.5 83.0 " fill="#FF0000"/>
<path class="atom-4" d="M 124.6 137.5 Q 124.6 135.2, 125.7 133.9 Q 126.9 132.6, 129.1 132.6 Q 131.2 132.6, 132.4 133.9 Q 133.6 135.2, 133.6 137.5 Q 133.6 139.9, 132.4 141.3 Q 131.2 142.6, 129.1 142.6 Q 126.9 142.6, 125.7 141.3 Q 124.6 139.9, 124.6 137.5 M 129.1 141.5 Q 130.6 141.5, 131.4 140.5 Q 132.2 139.5, 132.2 137.5 Q 132.2 135.6, 131.4 134.6 Q 130.6 133.7, 129.1 133.7 Q 127.6 133.7, 126.8 134.6 Q 126.0 135.6, 126.0 137.5 Q 126.0 139.5, 126.8 140.5 Q 127.6 141.5, 129.1 141.5 " fill="#FF0000"/>
<path class="atom-8" d="M 221.5 74.6 Q 221.5 72.3, 222.7 71.0 Q 223.9 69.6, 226.0 69.6 Q 228.2 69.6, 229.4 71.0 Q 230.5 72.3, 230.5 74.6 Q 230.5 77.0, 229.3 78.3 Q 228.2 79.7, 226.0 79.7 Q 223.9 79.7, 222.7 78.3 Q 221.5 77.0, 221.5 74.6 M 226.0 78.6 Q 227.5 78.6, 228.3 77.6 Q 229.1 76.6, 229.1 74.6 Q 229.1 72.7, 228.3 71.7 Q 227.5 70.7, 226.0 70.7 Q 224.5 70.7, 223.7 71.7 Q 222.9 72.7, 222.9 74.6 Q 222.9 76.6, 223.7 77.6 Q 224.5 78.6, 226.0 78.6 " fill="#FF0000"/>
<path class="atom-8" d="M 232.0 69.7 L 233.4 69.7 L 233.4 73.9 L 238.4 73.9 L 238.4 69.7 L 239.7 69.7 L 239.7 79.5 L 238.4 79.5 L 238.4 75.0 L 233.4 75.0 L 233.4 79.5 L 232.0 79.5 L 232.0 69.7 " fill="#FF0000"/>
<path class="atom-10" d="M 238.4 100.6 Q 238.4 98.2, 239.6 96.9 Q 240.7 95.6, 242.9 95.6 Q 245.1 95.6, 246.2 96.9 Q 247.4 98.2, 247.4 100.6 Q 247.4 103.0, 246.2 104.3 Q 245.0 105.7, 242.9 105.7 Q 240.7 105.7, 239.6 104.3 Q 238.4 103.0, 238.4 100.6 M 242.9 104.6 Q 244.4 104.6, 245.2 103.6 Q 246.0 102.6, 246.0 100.6 Q 246.0 98.7, 245.2 97.7 Q 244.4 96.7, 242.9 96.7 Q 241.4 96.7, 240.6 97.7 Q 239.8 98.7, 239.8 100.6 Q 239.8 102.6, 240.6 103.6 Q 241.4 104.6, 242.9 104.6 " fill="#FF0000"/>
<path class="atom-10" d="M 248.9 95.7 L 250.2 95.7 L 250.2 99.9 L 255.2 99.9 L 255.2 95.7 L 256.6 95.7 L 256.6 105.5 L 255.2 105.5 L 255.2 101.0 L 250.2 101.0 L 250.2 105.5 L 248.9 105.5 L 248.9 95.7 " fill="#FF0000"/>
<path class="atom-15" d="M 67.7 156.0 Q 67.7 153.6, 68.8 152.3 Q 70.0 151.0, 72.2 151.0 Q 74.3 151.0, 75.5 152.3 Q 76.6 153.6, 76.6 156.0 Q 76.6 158.4, 75.5 159.7 Q 74.3 161.1, 72.2 161.1 Q 70.0 161.1, 68.8 159.7 Q 67.7 158.4, 67.7 156.0 M 72.2 160.0 Q 73.6 160.0, 74.4 159.0 Q 75.3 158.0, 75.3 156.0 Q 75.3 154.1, 74.4 153.1 Q 73.6 152.1, 72.2 152.1 Q 70.7 152.1, 69.8 153.1 Q 69.0 154.1, 69.0 156.0 Q 69.0 158.0, 69.8 159.0 Q 70.7 160.0, 72.2 160.0 " fill="#FF0000"/>
<path class="atom-16" d="M 13.5 111.1 L 14.9 111.1 L 14.9 115.2 L 19.9 115.2 L 19.9 111.1 L 21.2 111.1 L 21.2 120.9 L 19.9 120.9 L 19.9 116.3 L 14.9 116.3 L 14.9 120.9 L 13.5 120.9 L 13.5 111.1 " fill="#FF0000"/>
<path class="atom-16" d="M 23.2 115.9 Q 23.2 113.6, 24.4 112.3 Q 25.5 111.0, 27.7 111.0 Q 29.9 111.0, 31.0 112.3 Q 32.2 113.6, 32.2 115.9 Q 32.2 118.3, 31.0 119.7 Q 29.8 121.0, 27.7 121.0 Q 25.5 121.0, 24.4 119.7 Q 23.2 118.3, 23.2 115.9 M 27.7 119.9 Q 29.2 119.9, 30.0 118.9 Q 30.8 117.9, 30.8 115.9 Q 30.8 114.0, 30.0 113.1 Q 29.2 112.1, 27.7 112.1 Q 26.2 112.1, 25.4 113.0 Q 24.6 114.0, 24.6 115.9 Q 24.6 117.9, 25.4 118.9 Q 26.2 119.9, 27.7 119.9 " fill="#FF0000"/>
</g>
    <g transform="translate(271.0, 0) scale(1 1) "><line x1="15" y1="100" x2="25" y2="100" style="stroke:rgb(0,0,0);stroke-width:2"/>
  <line x1="20" y1="95" x2="20" y2="105" style="stroke:rgb(0,0,0);stroke-width:2"/>
</g>
    <g transform="translate(311.0, 0) scale(1 1) "><!-- END OF HEADER -->
<rect style="opacity:1.0;fill:#FFFFFF;stroke:none" width="25.0" height="200.0" x="0.0" y="0.0"> </rect>
<path class="atom-0" d="M 1.2 93.4 L 2.5 93.4 L 2.5 97.2 L 7.0 97.2 L 7.0 93.4 L 8.2 93.4 L 8.2 102.3 L 7.0 102.3 L 7.0 98.2 L 2.5 98.2 L 2.5 102.3 L 1.2 102.3 L 1.2 93.4 " fill="#FF0000"/>
<path class="atom-0" d="M 10.0 102.0 Q 10.2 101.4, 10.7 101.1 Q 11.2 100.8, 11.9 100.8 Q 12.8 100.8, 13.3 101.3 Q 13.8 101.7, 13.8 102.6 Q 13.8 103.5, 13.2 104.3 Q 12.5 105.1, 11.2 106.0 L 13.9 106.0 L 13.9 106.7 L 10.0 106.7 L 10.0 106.2 Q 11.1 105.4, 11.7 104.8 Q 12.4 104.2, 12.7 103.7 Q 13.0 103.2, 13.0 102.6 Q 13.0 102.1, 12.7 101.8 Q 12.4 101.4, 11.9 101.4 Q 11.5 101.4, 11.1 101.6 Q 10.8 101.8, 10.6 102.2 L 10.0 102.0 " fill="#FF0000"/>
<path class="atom-0" d="M 15.1 97.8 Q 15.1 95.7, 16.2 94.5 Q 17.2 93.3, 19.2 93.3 Q 21.1 93.3, 22.2 94.5 Q 23.2 95.7, 23.2 97.8 Q 23.2 100.0, 22.2 101.2 Q 21.1 102.4, 19.2 102.4 Q 17.2 102.4, 16.2 101.2 Q 15.1 100.0, 15.1 97.8 M 19.2 101.4 Q 20.5 101.4, 21.3 100.5 Q 22.0 99.6, 22.0 97.8 Q 22.0 96.1, 21.3 95.2 Q 20.5 94.3, 19.2 94.3 Q 17.8 94.3, 17.1 95.2 Q 16.4 96.1, 16.4 97.8 Q 16.4 99.6, 17.1 100.5 Q 17.8 101.4, 19.2 101.4 " fill="#FF0000"/>
</g>
    <g transform="translate(336.0, 0) scale(1 1) "><line x1="5" y1="100" x2="35" y2="100" style="stroke:rgb(0,0,0);stroke-width:2"/>
  <line x1="34" y1="100" x2="29" y2="95" style="stroke:rgb(0,0,0);stroke-width:2"/>
  <line x1="34" y1="100" x2="29" y2="105" style="stroke:rgb(0,0,0);stroke-width:2"/>
</g>
    <g transform="translate(376.0, 0) scale(1 1) "><!-- END OF HEADER -->
<rect style="opacity:1.0;fill:#FFFFFF;stroke:none" width="215.0" height="200.0" x="0.0" y="0.0"> </rect>
<path class="bond-0 atom-0 atom-1" d="M 124.2,30.1 L 114.3,79.6" style="fill:none;fill-rule:evenodd;stroke:#000000;stroke-width:2.0px;stroke-linecap:butt;stroke-linejoin:miter;stroke-opacity:1"/>
<path class="bond-1 atom-1 atom-2" d="M 114.3,79.6 L 104.4,129.2" style="fill:none;fill-rule:evenodd;stroke:#000000;stroke-width:2.0px;stroke-linecap:butt;stroke-linejoin:miter;stroke-opacity:1"/>
<path class="bond-2 atom-2 atom-3" d="M 104.4,129.2 L 119.3,142.2" style="fill:none;fill-rule:evenodd;stroke:#000000;stroke-width:2.0px;stroke-linecap:butt;stroke-linejoin:miter;stroke-opacity:1"/>
<path class="bond-2 atom-2 atom-3" d="M 119.3,142.2 L 134.2,155.3" style="fill:none;fill-rule:evenodd;stroke:#FF0000;stroke-width:2.0px;stroke-linecap:butt;stroke-linejoin:miter;stroke-opacity:1"/>
<path class="bond-3 atom-1 atom-4" d="M 114.3,79.6 L 64.8,69.7" style="fill:none;fill-rule:evenodd;stroke:#000000;stroke-width:2.0px;stroke-linecap:butt;stroke-linejoin:miter;stroke-opacity:1"/>
<path class="bond-4 atom-4 atom-5" d="M 64.8,69.7 L 52.0,84.3" style="fill:none;fill-rule:evenodd;stroke:#000000;stroke-width:2.0px;stroke-linecap:butt;stroke-linejoin:miter;stroke-opacity:1"/>
<path class="bond-4 atom-4 atom-5" d="M 52.0,84.3 L 39.3,98.8" style="fill:none;fill-rule:evenodd;stroke:#FF0000;stroke-width:2.0px;stroke-linecap:butt;stroke-linejoin:miter;stroke-opacity:1"/>
<path class="bond-5 atom-1 atom-6" d="M 114.3,79.6 L 163.9,89.5" style="fill:none;fill-rule:evenodd;stroke:#000000;stroke-width:2.0px;stroke-linecap:butt;stroke-linejoin:miter;stroke-opacity:1"/>
<path class="bond-6 atom-6 atom-7" d="M 165.3,93.6 L 178.6,78.4" style="fill:none;fill-rule:evenodd;stroke:#000000;stroke-width:2.0px;stroke-linecap:butt;stroke-linejoin:miter;stroke-opacity:1"/>
<path class="bond-6 atom-6 atom-7" d="M 178.6,78.4 L 192.0,63.1" style="fill:none;fill-rule:evenodd;stroke:#FF0000;stroke-width:2.0px;stroke-linecap:butt;stroke-linejoin:miter;stroke-opacity:1"/>
<path class="bond-6 atom-6 atom-7" d="M 159.6,88.6 L 173.0,73.4" style="fill:none;fill-rule:evenodd;stroke:#000000;stroke-width:2.0px;stroke-linecap:butt;stroke-linejoin:miter;stroke-opacity:1"/>
<path class="bond-6 atom-6 atom-7" d="M 173.0,73.4 L 186.3,58.1" style="fill:none;fill-rule:evenodd;stroke:#FF0000;stroke-width:2.0px;stroke-linecap:butt;stroke-linejoin:miter;stroke-opacity:1"/>
<path class="bond-7 atom-6 atom-8" d="M 163.9,89.5 L 170.5,108.9" style="fill:none;fill-rule:evenodd;stroke:#000000;stroke-width:2.0px;stroke-linecap:butt;stroke-linejoin:miter;stroke-opacity:1"/>
<path class="bond-7 atom-6 atom-8" d="M 170.5,108.9 L 177.1,128.4" style="fill:none;fill-rule:evenodd;stroke:#FF0000;stroke-width:2.0px;stroke-linecap:butt;stroke-linejoin:miter;stroke-opacity:1"/>
<path d="M 104.9,126.7 L 104.4,129.2 L 105.2,129.8" style="fill:none;stroke:#000000;stroke-width:2.0px;stroke-linecap:butt;stroke-linejoin:miter;stroke-opacity:1;"/>
<path d="M 67.2,70.2 L 64.8,69.7 L 64.1,70.5" style="fill:none;stroke:#000000;stroke-width:2.0px;stroke-linecap:butt;stroke-linejoin:miter;stroke-opacity:1;"/>
<path d="M 161.4,89.0 L 163.9,89.5 L 164.2,90.5" style="fill:none;stroke:#000000;stroke-width:2.0px;stroke-linecap:butt;stroke-linejoin:miter;stroke-opacity:1;"/>
<path class="atom-3" d="M 135.9 162.5 Q 135.9 159.1, 137.6 157.2 Q 139.3 155.2, 142.4 155.2 Q 145.6 155.2, 147.3 157.2 Q 149.0 159.1, 149.0 162.5 Q 149.0 166.0, 147.3 168.0 Q 145.6 169.9, 142.4 169.9 Q 139.3 169.9, 137.6 168.0 Q 135.9 166.0, 135.9 162.5 M 142.4 168.3 Q 144.6 168.3, 145.8 166.9 Q 147.0 165.4, 147.0 162.5 Q 147.0 159.7, 145.8 158.3 Q 144.6 156.9, 142.4 156.9 Q 140.2 156.9, 139.1 158.3 Q 137.9 159.7, 137.9 162.5 Q 137.9 165.4, 139.1 166.9 Q 140.2 168.3, 142.4 168.3 " fill="#FF0000"/>
<path class="atom-3" d="M 151.2 155.4 L 153.2 155.4 L 153.2 161.5 L 160.5 161.5 L 160.5 155.4 L 162.4 155.4 L 162.4 169.7 L 160.5 169.7 L 160.5 163.1 L 153.2 163.1 L 153.2 169.7 L 151.2 169.7 L 151.2 155.4 " fill="#FF0000"/>
<path class="atom-5" d="M 10.7 100.7 L 12.7 100.7 L 12.7 106.7 L 20.0 106.7 L 20.0 100.7 L 21.9 100.7 L 21.9 115.0 L 20.0 115.0 L 20.0 108.4 L 12.7 108.4 L 12.7 115.0 L 10.7 115.0 L 10.7 100.7 " fill="#FF0000"/>
<path class="atom-5" d="M 24.9 107.8 Q 24.9 104.3, 26.6 102.4 Q 28.3 100.5, 31.4 100.5 Q 34.6 100.5, 36.3 102.4 Q 38.0 104.3, 38.0 107.8 Q 38.0 111.2, 36.3 113.2 Q 34.6 115.2, 31.4 115.2 Q 28.3 115.2, 26.6 113.2 Q 24.9 111.3, 24.9 107.8 M 31.4 113.6 Q 33.6 113.6, 34.8 112.1 Q 36.0 110.6, 36.0 107.8 Q 36.0 105.0, 34.8 103.5 Q 33.6 102.1, 31.4 102.1 Q 29.3 102.1, 28.1 103.5 Q 26.9 104.9, 26.9 107.8 Q 26.9 110.7, 28.1 112.1 Q 29.3 113.6, 31.4 113.6 " fill="#FF0000"/>
<path class="atom-7" d="M 190.6 51.5 Q 190.6 48.1, 192.3 46.2 Q 194.0 44.3, 197.2 44.3 Q 200.4 44.3, 202.1 46.2 Q 203.8 48.1, 203.8 51.5 Q 203.8 55.0, 202.0 57.0 Q 200.3 59.0, 197.2 59.0 Q 194.0 59.0, 192.3 57.0 Q 190.6 55.0, 190.6 51.5 M 197.2 57.3 Q 199.4 57.3, 200.5 55.9 Q 201.7 54.4, 201.7 51.5 Q 201.7 48.7, 200.5 47.3 Q 199.4 45.9, 197.2 45.9 Q 195.0 45.9, 193.8 47.3 Q 192.6 48.7, 192.6 51.5 Q 192.6 54.4, 193.8 55.9 Q 195.0 57.3, 197.2 57.3 " fill="#FF0000"/>
<path class="atom-8" d="M 173.5 137.4 Q 173.5 133.9, 175.2 132.0 Q 176.9 130.1, 180.1 130.1 Q 183.3 130.1, 185.0 132.0 Q 186.7 133.9, 186.7 137.4 Q 186.7 140.8, 184.9 142.8 Q 183.2 144.8, 180.1 144.8 Q 176.9 144.8, 175.2 142.8 Q 173.5 140.9, 173.5 137.4 M 180.1 143.2 Q 182.3 143.2, 183.4 141.7 Q 184.6 140.2, 184.6 137.4 Q 184.6 134.6, 183.4 133.1 Q 182.3 131.7, 180.1 131.7 Q 177.9 131.7, 176.7 133.1 Q 175.5 134.5, 175.5 137.4 Q 175.5 140.3, 176.7 141.7 Q 177.9 143.2, 180.1 143.2 " fill="#FF0000"/>
<path class="atom-8" d="M 188.9 130.2 L 190.8 130.2 L 190.8 136.3 L 198.1 136.3 L 198.1 130.2 L 200.1 130.2 L 200.1 144.6 L 198.1 144.6 L 198.1 137.9 L 190.8 137.9 L 190.8 144.6 L 188.9 144.6 L 188.9 130.2 " fill="#FF0000"/>
</g>
    <g transform="translate(591.0, 0) scale(1 1) "><line x1="15" y1="100" x2="25" y2="100" style="stroke:rgb(0,0,0);stroke-width:2"/>
  <line x1="20" y1="95" x2="20" y2="105" style="stroke:rgb(0,0,0);stroke-width:2"/>
</g>
    <g transform="translate(631.0, 0) scale(1 1) "><!-- END OF HEADER -->
<rect style="opacity:1.0;fill:#FFFFFF;stroke:none" width="215.0" height="200.0" x="0.0" y="0.0"> </rect>
<path class="bond-0 atom-0 atom-1" d="M 183.7,56.0 L 158.3,99.9" style="fill:none;fill-rule:evenodd;stroke:#000000;stroke-width:2.0px;stroke-linecap:butt;stroke-linejoin:miter;stroke-opacity:1"/>
<path class="bond-1 atom-1 atom-2" d="M 158.3,99.9 L 168.4,117.4" style="fill:none;fill-rule:evenodd;stroke:#000000;stroke-width:2.0px;stroke-linecap:butt;stroke-linejoin:miter;stroke-opacity:1"/>
<path class="bond-1 atom-1 atom-2" d="M 168.4,117.4 L 178.5,134.9" style="fill:none;fill-rule:evenodd;stroke:#FF0000;stroke-width:2.0px;stroke-linecap:butt;stroke-linejoin:miter;stroke-opacity:1"/>
<path class="bond-2 atom-1 atom-3" d="M 158.3,99.9 L 107.6,99.9" style="fill:none;fill-rule:evenodd;stroke:#000000;stroke-width:2.0px;stroke-linecap:butt;stroke-linejoin:miter;stroke-opacity:1"/>
<path class="bond-3 atom-3 atom-4" d="M 107.6,99.9 L 107.6,49.2" style="fill:none;fill-rule:evenodd;stroke:#000000;stroke-width:2.0px;stroke-linecap:butt;stroke-linejoin:miter;stroke-opacity:1"/>
<path class="bond-4 atom-3 atom-5" d="M 107.6,99.9 L 107.6,150.6" style="fill:none;fill-rule:evenodd;stroke:#000000;stroke-width:2.0px;stroke-linecap:butt;stroke-linejoin:miter;stroke-opacity:1"/>
<path class="bond-5 atom-3 atom-6" d="M 107.6,99.9 L 56.9,99.9" style="fill:none;fill-rule:evenodd;stroke:#000000;stroke-width:2.0px;stroke-linecap:butt;stroke-linejoin:miter;stroke-opacity:1"/>
<path class="bond-6 atom-6 atom-7" d="M 54.7,96.1 L 44.0,114.5" style="fill:none;fill-rule:evenodd;stroke:#000000;stroke-width:2.0px;stroke-linecap:butt;stroke-linejoin:miter;stroke-opacity:1"/>
<path class="bond-6 atom-6 atom-7" d="M 44.0,114.5 L 33.4,133.0" style="fill:none;fill-rule:evenodd;stroke:#FF0000;stroke-width:2.0px;stroke-linecap:butt;stroke-linejoin:miter;stroke-opacity:1"/>
<path class="bond-6 atom-6 atom-7" d="M 61.3,99.9 L 50.6,118.3" style="fill:none;fill-rule:evenodd;stroke:#000000;stroke-width:2.0px;stroke-linecap:butt;stroke-linejoin:miter;stroke-opacity:1"/>
<path class="bond-6 atom-6 atom-7" d="M 50.6,118.3 L 40.0,136.8" style="fill:none;fill-rule:evenodd;stroke:#FF0000;stroke-width:2.0px;stroke-linecap:butt;stroke-linejoin:miter;stroke-opacity:1"/>
<path class="bond-7 atom-6 atom-8" d="M 56.9,99.9 L 46.9,82.5" style="fill:none;fill-rule:evenodd;stroke:#000000;stroke-width:2.0px;stroke-linecap:butt;stroke-linejoin:miter;stroke-opacity:1"/>
<path class="bond-7 atom-6 atom-8" d="M 46.9,82.5 L 36.8,65.1" style="fill:none;fill-rule:evenodd;stroke:#FF0000;stroke-width:2.0px;stroke-linecap:butt;stroke-linejoin:miter;stroke-opacity:1"/>
<path d="M 59.4,99.9 L 56.9,99.9 L 56.4,99.0" style="fill:none;stroke:#000000;stroke-width:2.0px;stroke-linecap:butt;stroke-linejoin:miter;stroke-opacity:1;"/>
<path class="atom-2" d="M 177.1 143.9 Q 177.1 140.4, 178.8 138.5 Q 180.5 136.5, 183.7 136.5 Q 186.9 136.5, 188.6 138.5 Q 190.3 140.4, 190.3 143.9 Q 190.3 147.3, 188.6 149.3 Q 186.8 151.3, 183.7 151.3 Q 180.5 151.3, 178.8 149.3 Q 177.1 147.4, 177.1 143.9 M 183.7 149.7 Q 185.9 149.7, 187.0 148.2 Q 188.2 146.7, 188.2 143.9 Q 188.2 141.0, 187.0 139.6 Q 185.9 138.2, 183.7 138.2 Q 181.5 138.2, 180.3 139.6 Q 179.1 141.0, 179.1 143.9 Q 179.1 146.8, 180.3 148.2 Q 181.5 149.7, 183.7 149.7 " fill="#FF0000"/>
<path class="atom-2" d="M 192.5 136.7 L 194.5 136.7 L 194.5 142.8 L 201.8 142.8 L 201.8 136.7 L 203.7 136.7 L 203.7 151.1 L 201.8 151.1 L 201.8 144.4 L 194.5 144.4 L 194.5 151.1 L 192.5 151.1 L 192.5 136.7 " fill="#FF0000"/>
<path class="atom-7" d="M 24.9 143.9 Q 24.9 140.4, 26.6 138.5 Q 28.3 136.5, 31.5 136.5 Q 34.7 136.5, 36.4 138.5 Q 38.1 140.4, 38.1 143.9 Q 38.1 147.3, 36.4 149.3 Q 34.7 151.3, 31.5 151.3 Q 28.4 151.3, 26.6 149.3 Q 24.9 147.4, 24.9 143.9 M 31.5 149.7 Q 33.7 149.7, 34.9 148.2 Q 36.1 146.7, 36.1 143.9 Q 36.1 141.0, 34.9 139.6 Q 33.7 138.2, 31.5 138.2 Q 29.3 138.2, 28.1 139.6 Q 27.0 141.0, 27.0 143.9 Q 27.0 146.8, 28.1 148.2 Q 29.3 149.7, 31.5 149.7 " fill="#FF0000"/>
<path class="atom-8" d="M 10.7 48.9 L 12.7 48.9 L 12.7 55.0 L 20.0 55.0 L 20.0 48.9 L 22.0 48.9 L 22.0 63.2 L 20.0 63.2 L 20.0 56.6 L 12.7 56.6 L 12.7 63.2 L 10.7 63.2 L 10.7 48.9 " fill="#FF0000"/>
<path class="atom-8" d="M 24.9 56.0 Q 24.9 52.6, 26.6 50.6 Q 28.3 48.7, 31.5 48.7 Q 34.7 48.7, 36.4 50.6 Q 38.1 52.6, 38.1 56.0 Q 38.1 59.5, 36.4 61.5 Q 34.7 63.5, 31.5 63.5 Q 28.4 63.5, 26.6 61.5 Q 24.9 59.5, 24.9 56.0 M 31.5 61.8 Q 33.7 61.8, 34.9 60.4 Q 36.1 58.9, 36.1 56.0 Q 36.1 53.2, 34.9 51.8 Q 33.7 50.3, 31.5 50.3 Q 29.3 50.3, 28.1 51.7 Q 27.0 53.2, 27.0 56.0 Q 27.0 58.9, 28.1 60.4 Q 29.3 61.8, 31.5 61.8 " fill="#FF0000"/>
</g>
  </g>
</svg>
