<?xml version='1.0' encoding='ASCII' standalone='yes'?>
<svg xmlns="http://www.w3.org/2000/svg" xmlns:xlink="http://www.w3.org/1999/xlink" version="1.1" width="912.0px" viewBox="0 0 912.0 200.0" height="200.0px">
  <g>
    <g transform="translate(0, 0) scale(1 1) "><!-- END OF HEADER -->
<rect style="opacity:1.0;fill:#FFFFFF;stroke:none" width="289.0" height="200.0" x="0.0" y="0.0"> </rect>
<path class="bond-0 atom-0 atom-1" d="M 32.8,93.0 L 64.8,77.0" style="fill:none;fill-rule:evenodd;stroke:#000000;stroke-width:2.0px;stroke-linecap:butt;stroke-linejoin:miter;stroke-opacity:1"/>
<path class="bond-1 atom-1 atom-2" d="M 64.8,77.0 L 96.8,61.0" style="fill:none;fill-rule:evenodd;stroke:#000000;stroke-width:2.0px;stroke-linecap:butt;stroke-linejoin:miter;stroke-opacity:1"/>
<path class="bond-2 atom-1 atom-3" d="M 64.8,77.0 L 48.8,45.0" style="fill:none;fill-rule:evenodd;stroke:#000000;stroke-width:2.0px;stroke-linecap:butt;stroke-linejoin:miter;stroke-opacity:1"/>
<path class="bond-3 atom-3 atom-4" d="M 48.8,45.0 L 56.5,33.3" style="fill:none;fill-rule:evenodd;stroke:#000000;stroke-width:2.0px;stroke-linecap:butt;stroke-linejoin:miter;stroke-opacity:1"/>
<path class="bond-3 atom-3 atom-4" d="M 56.5,33.3 L 64.3,21.6" style="fill:none;fill-rule:evenodd;stroke:#FF0000;stroke-width:2.0px;stroke-linecap:butt;stroke-linejoin:miter;stroke-opacity:1"/>
<path class="bond-4 atom-1 atom-5" d="M 64.8,77.0 L 80.8,109.1" style="fill:none;fill-rule:evenodd;stroke:#000000;stroke-width:2.0px;stroke-linecap:butt;stroke-linejoin:miter;stroke-opacity:1"/>
<path class="bond-5 atom-5 atom-6" d="M 80.8,109.1 L 116.5,111.2" style="fill:none;fill-rule:evenodd;stroke:#000000;stroke-width:2.0px;stroke-linecap:butt;stroke-linejoin:miter;stroke-opacity:1"/>
<path class="bond-6 atom-6 atom-7" d="M 116.5,111.2 L 118.7,75.5" style="fill:none;fill-rule:evenodd;stroke:#000000;stroke-width:2.0px;stroke-linecap:butt;stroke-linejoin:miter;stroke-opacity:1"/>
<path class="bond-7 atom-7 atom-8" d="M 118.7,75.5 L 131.8,69.0" style="fill:none;fill-rule:evenodd;stroke:#000000;stroke-width:2.0px;stroke-linecap:butt;stroke-linejoin:miter;stroke-opacity:1"/>
<path class="bond-7 atom-7 atom-8" d="M 131.8,69.0 L 144.9,62.4" style="fill:none;fill-rule:evenodd;stroke:#FF0000;stroke-width:2.0px;stroke-linecap:butt;stroke-linejoin:miter;stroke-opacity:1"/>
<path class="bond-8 atom-6 atom-9" d="M 116.5,111.2 L 152.3,113.4" style="fill:none;fill-rule:evenodd;stroke:#000000;stroke-width:2.0px;stroke-linecap:butt;stroke-linejoin:miter;stroke-opacity:1"/>
<path class="bond-9 atom-9 atom-10" d="M 152.3,113.4 L 172.0,83.5" style="fill:none;fill-rule:evenodd;stroke:#000000;stroke-width:2.0px;stroke-linecap:butt;stroke-linejoin:miter;stroke-opacity:1"/>
<path class="bond-10 atom-10 atom-11" d="M 172.0,83.5 L 207.8,85.7" style="fill:none;fill-rule:evenodd;stroke:#000000;stroke-width:2.0px;stroke-linecap:butt;stroke-linejoin:miter;stroke-opacity:1"/>
<path class="bond-11 atom-11 atom-12" d="M 207.8,85.7 L 243.5,87.9" style="fill:none;fill-rule:evenodd;stroke:#000000;stroke-width:2.0px;stroke-linecap:butt;stroke-linejoin:miter;stroke-opacity:1"/>
<path class="bond-12 atom-11 atom-13" d="M 207.8,85.7 L 205.6,121.4" style="fill:none;fill-rule:evenodd;stroke:#000000;stroke-width:2.0px;stroke-linecap:butt;stroke-linejoin:miter;stroke-opacity:1"/>
<path class="bond-13 atom-13 atom-14" d="M 205.6,121.4 L 217.6,129.4" style="fill:none;fill-rule:evenodd;stroke:#000000;stroke-width:2.0px;stroke-linecap:butt;stroke-linejoin:miter;stroke-opacity:1"/>
<path class="bond-13 atom-13 atom-14" d="M 217.6,129.4 L 229.6,137.3" style="fill:none;fill-rule:evenodd;stroke:#FF0000;stroke-width:2.0px;stroke-linecap:butt;stroke-linejoin:miter;stroke-opacity:1"/>
<path class="bond-14 atom-11 atom-15" d="M 207.8,85.7 L 209.9,50.0" style="fill:none;fill-rule:evenodd;stroke:#000000;stroke-width:2.0px;stroke-linecap:butt;stroke-linejoin:miter;stroke-opacity:1"/>
<path class="bond-15 atom-15 atom-16" d="M 212.7,48.6 L 200.0,40.2" style="fill:none;fill-rule:evenodd;stroke:#000000;stroke-width:2.0px;stroke-linecap:butt;stroke-linejoin:miter;stroke-opacity:1"/>
<path class="bond-15 atom-15 atom-16" d="M 200.0,40.2 L 187.4,31.8" style="fill:none;fill-rule:evenodd;stroke:#FF0000;stroke-width:2.0px;stroke-linecap:butt;stroke-linejoin:miter;stroke-opacity:1"/>
<path class="bond-15 atom-15 atom-16" d="M 209.7,53.1 L 197.1,44.7" style="fill:none;fill-rule:evenodd;stroke:#000000;stroke-width:2.0px;stroke-linecap:butt;stroke-linejoin:miter;stroke-opacity:1"/>
<path class="bond-15 atom-15 atom-16" d="M 197.1,44.7 L 184.4,36.3" style="fill:none;fill-rule:evenodd;stroke:#FF0000;stroke-width:2.0px;stroke-linecap:butt;stroke-linejoin:miter;stroke-opacity:1"/>
<path class="bond-16 atom-15 atom-17" d="M 209.9,50.0 L 223.0,43.4" style="fill:none;fill-rule:evenodd;stroke:#000000;stroke-width:2.0px;stroke-linecap:butt;stroke-linejoin:miter;stroke-opacity:1"/>
<path class="bond-16 atom-15 atom-17" d="M 223.0,43.4 L 236.1,36.9" style="fill:none;fill-rule:evenodd;stroke:#FF0000;stroke-width:2.0px;stroke-linecap:butt;stroke-linejoin:miter;stroke-opacity:1"/>
<path class="bond-17 atom-6 atom-18" d="M 116.5,111.2 L 114.4,147.0" style="fill:none;fill-rule:evenodd;stroke:#000000;stroke-width:2.0px;stroke-linecap:butt;stroke-linejoin:miter;stroke-opacity:1"/>
<path class="bond-18 atom-18 atom-19" d="M 114.6,143.9 L 100.8,150.8" style="fill:none;fill-rule:evenodd;stroke:#000000;stroke-width:2.0px;stroke-linecap:butt;stroke-linejoin:miter;stroke-opacity:1"/>
<path class="bond-18 atom-18 atom-19" d="M 100.8,150.8 L 87.0,157.6" style="fill:none;fill-rule:evenodd;stroke:#FF0000;stroke-width:2.0px;stroke-linecap:butt;stroke-linejoin:miter;stroke-opacity:1"/>
<path class="bond-18 atom-18 atom-19" d="M 117.0,148.7 L 103.2,155.6" style="fill:none;fill-rule:evenodd;stroke:#000000;stroke-width:2.0px;stroke-linecap:butt;stroke-linejoin:miter;stroke-opacity:1"/>
<path class="bond-18 atom-18 atom-19" d="M 103.2,155.6 L 89.4,162.5" style="fill:none;fill-rule:evenodd;stroke:#FF0000;stroke-width:2.0px;stroke-linecap:butt;stroke-linejoin:miter;stroke-opacity:1"/>
<path class="bond-19 atom-18 atom-20" d="M 114.4,147.0 L 126.4,154.9" style="fill:none;fill-rule:evenodd;stroke:#000000;stroke-width:2.0px;stroke-linecap:butt;stroke-linejoin:miter;stroke-opacity:1"/>
<path class="bond-19 atom-18 atom-20" d="M 126.4,154.9 L 138.4,162.9" style="fill:none;fill-rule:evenodd;stroke:#FF0000;stroke-width:2.0px;stroke-linecap:butt;stroke-linejoin:miter;stroke-opacity:1"/>
<path d="M 49.6,46.6 L 48.8,45.0 L 49.2,44.4" style="fill:none;stroke:#000000;stroke-width:2.0px;stroke-linecap:butt;stroke-linejoin:miter;stroke-opacity:1;"/>
<path d="M 80.0,107.5 L 80.8,109.1 L 82.6,109.2" style="fill:none;stroke:#000000;stroke-width:2.0px;stroke-linecap:butt;stroke-linejoin:miter;stroke-opacity:1;"/>
<path d="M 118.6,77.3 L 118.7,75.5 L 119.4,75.2" style="fill:none;stroke:#000000;stroke-width:2.0px;stroke-linecap:butt;stroke-linejoin:miter;stroke-opacity:1;"/>
<path d="M 150.5,113.3 L 152.3,113.4 L 153.3,111.9" style="fill:none;stroke:#000000;stroke-width:2.0px;stroke-linecap:butt;stroke-linejoin:miter;stroke-opacity:1;"/>
<path d="M 171.0,85.0 L 172.0,83.5 L 173.8,83.6" style="fill:none;stroke:#000000;stroke-width:2.0px;stroke-linecap:butt;stroke-linejoin:miter;stroke-opacity:1;"/>
<path d="M 205.7,119.6 L 205.6,121.4 L 206.2,121.8" style="fill:none;stroke:#000000;stroke-width:2.0px;stroke-linecap:butt;stroke-linejoin:miter;stroke-opacity:1;"/>
<path d="M 209.8,51.7 L 209.9,50.0 L 210.6,49.6" style="fill:none;stroke:#000000;stroke-width:2.0px;stroke-linecap:butt;stroke-linejoin:miter;stroke-opacity:1;"/>
<path d="M 114.5,145.2 L 114.4,147.0 L 115.0,147.4" style="fill:none;stroke:#000000;stroke-width:2.0px;stroke-linecap:butt;stroke-linejoin:miter;stroke-opacity:1;"/>
<path class="atom-4" d="M 63.9 15.2 Q 63.9 12.7, 65.1 11.4 Q 66.3 10.0, 68.6 10.0 Q 70.8 10.0, 72.0 11.4 Q 73.2 12.7, 73.2 15.2 Q 73.2 17.6, 72.0 19.0 Q 70.8 20.4, 68.6 20.4 Q 66.3 20.4, 65.1 19.0 Q 63.9 17.6, 63.9 15.2 M 68.6 19.3 Q 70.1 19.3, 70.9 18.2 Q 71.8 17.2, 71.8 15.2 Q 71.8 13.2, 70.9 12.2 Q 70.1 11.1, 68.6 11.1 Q 67.0 11.1, 66.2 12.1 Q 65.3 13.2, 65.3 15.2 Q 65.3 17.2, 66.2 18.2 Q 67.0 19.3, 68.6 19.3 " fill="#FF0000"/>
<path class="atom-4" d="M 74.8 10.1 L 76.2 10.1 L 76.2 14.4 L 81.4 14.4 L 81.4 10.1 L 82.7 10.1 L 82.7 20.3 L 81.4 20.3 L 81.4 15.6 L 76.2 15.6 L 76.2 20.3 L 74.8 20.3 L 74.8 10.1 " fill="#FF0000"/>
<path class="atom-8" d="M 146.1 59.5 Q 146.1 57.1, 147.3 55.7 Q 148.5 54.4, 150.7 54.4 Q 153.0 54.4, 154.2 55.7 Q 155.4 57.1, 155.4 59.5 Q 155.4 62.0, 154.2 63.4 Q 153.0 64.8, 150.7 64.8 Q 148.5 64.8, 147.3 63.4 Q 146.1 62.0, 146.1 59.5 M 150.7 63.6 Q 152.3 63.6, 153.1 62.6 Q 154.0 61.6, 154.0 59.5 Q 154.0 57.5, 153.1 56.5 Q 152.3 55.5, 150.7 55.5 Q 149.2 55.5, 148.3 56.5 Q 147.5 57.5, 147.5 59.5 Q 147.5 61.6, 148.3 62.6 Q 149.2 63.6, 150.7 63.6 " fill="#FF0000"/>
<path class="atom-8" d="M 157.0 54.5 L 158.3 54.5 L 158.3 58.8 L 163.5 58.8 L 163.5 54.5 L 164.9 54.5 L 164.9 64.6 L 163.5 64.6 L 163.5 59.9 L 158.3 59.9 L 158.3 64.6 L 157.0 64.6 L 157.0 54.5 " fill="#FF0000"/>
<path class="atom-14" d="M 230.8 141.2 Q 230.8 138.8, 232.0 137.4 Q 233.2 136.1, 235.5 136.1 Q 237.7 136.1, 238.9 137.4 Q 240.1 138.8, 240.1 141.2 Q 240.1 143.7, 238.9 145.1 Q 237.7 146.5, 235.5 146.5 Q 233.2 146.5, 232.0 145.1 Q 230.8 143.7, 230.8 141.2 M 235.5 145.3 Q 237.0 145.3, 237.8 144.3 Q 238.7 143.2, 238.7 141.2 Q 238.7 139.2, 237.8 138.2 Q 237.0 137.2, 235.5 137.2 Q 233.9 137.2, 233.1 138.2 Q 232.2 139.2, 232.2 141.2 Q 232.2 143.3, 233.1 144.3 Q 233.9 145.3, 235.5 145.3 " fill="#FF0000"/>
<path class="atom-14" d="M 241.7 136.2 L 243.1 136.2 L 243.1 140.5 L 248.3 140.5 L 248.3 136.2 L 249.6 136.2 L 249.6 146.3 L 248.3 146.3 L 248.3 141.6 L 243.1 141.6 L 243.1 146.3 L 241.7 146.3 L 241.7 136.2 " fill="#FF0000"/>
<path class="atom-16" d="M 175.4 30.2 Q 175.4 27.8, 176.6 26.4 Q 177.8 25.1, 180.1 25.1 Q 182.3 25.1, 183.5 26.4 Q 184.7 27.8, 184.7 30.2 Q 184.7 32.7, 183.5 34.1 Q 182.3 35.5, 180.1 35.5 Q 177.8 35.5, 176.6 34.1 Q 175.4 32.7, 175.4 30.2 M 180.1 34.4 Q 181.6 34.4, 182.4 33.3 Q 183.3 32.3, 183.3 30.2 Q 183.3 28.3, 182.4 27.2 Q 181.6 26.2, 180.1 26.2 Q 178.5 26.2, 177.7 27.2 Q 176.8 28.2, 176.8 30.2 Q 176.8 32.3, 177.7 33.3 Q 178.5 34.4, 180.1 34.4 " fill="#FF0000"/>
<path class="atom-17" d="M 237.3 34.0 Q 237.3 31.6, 238.5 30.2 Q 239.7 28.8, 242.0 28.8 Q 244.2 28.8, 245.4 30.2 Q 246.6 31.6, 246.6 34.0 Q 246.6 36.5, 245.4 37.9 Q 244.2 39.3, 242.0 39.3 Q 239.7 39.3, 238.5 37.9 Q 237.3 36.5, 237.3 34.0 M 242.0 38.1 Q 243.5 38.1, 244.3 37.1 Q 245.2 36.0, 245.2 34.0 Q 245.2 32.0, 244.3 31.0 Q 243.5 30.0, 242.0 30.0 Q 240.4 30.0, 239.6 31.0 Q 238.7 32.0, 238.7 34.0 Q 238.7 36.0, 239.6 37.1 Q 240.4 38.1, 242.0 38.1 " fill="#FF0000"/>
<path class="atom-17" d="M 248.2 29.0 L 249.6 29.0 L 249.6 33.3 L 254.8 33.3 L 254.8 29.0 L 256.1 29.0 L 256.1 39.1 L 254.8 39.1 L 254.8 34.4 L 249.6 34.4 L 249.6 39.1 L 248.2 39.1 L 248.2 29.0 " fill="#FF0000"/>
<path class="atom-19" d="M 77.7 163.0 Q 77.7 160.6, 78.9 159.2 Q 80.1 157.8, 82.3 157.8 Q 84.6 157.8, 85.8 159.2 Q 87.0 160.6, 87.0 163.0 Q 87.0 165.5, 85.8 166.9 Q 84.6 168.2, 82.3 168.2 Q 80.1 168.2, 78.9 166.9 Q 77.7 165.5, 77.7 163.0 M 82.3 167.1 Q 83.9 167.1, 84.7 166.1 Q 85.6 165.0, 85.6 163.0 Q 85.6 161.0, 84.7 160.0 Q 83.9 159.0, 82.3 159.0 Q 80.8 159.0, 79.9 160.0 Q 79.1 161.0, 79.1 163.0 Q 79.1 165.0, 79.9 166.1 Q 80.8 167.1, 82.3 167.1 " fill="#FF0000"/>
<path class="atom-20" d="M 139.6 166.7 Q 139.6 164.3, 140.8 162.9 Q 142.0 161.6, 144.2 161.6 Q 146.5 161.6, 147.7 162.9 Q 148.9 164.3, 148.9 166.7 Q 148.9 169.2, 147.7 170.6 Q 146.5 172.0, 144.2 172.0 Q 142.0 172.0, 140.8 170.6 Q 139.6 169.2, 139.6 166.7 M 144.2 170.9 Q 145.8 170.9, 146.6 169.8 Q 147.5 168.8, 147.5 166.7 Q 147.5 164.8, 146.6 163.8 Q 145.8 162.7, 144.2 162.7 Q 142.7 162.7, 141.8 163.7 Q 141.0 164.7, 141.0 166.7 Q 141.0 168.8, 141.8 169.8 Q 142.7 170.9, 144.2 170.9 " fill="#FF0000"/>
<path class="atom-20" d="M 150.5 161.7 L 151.8 161.7 L 151.8 166.0 L 157.0 166.0 L 157.0 161.7 L 158.4 161.7 L 158.4 171.8 L 157.0 171.8 L 157.0 167.2 L 151.8 167.2 L 151.8 171.8 L 150.5 171.8 L 150.5 161.7 " fill="#FF0000"/>
<path class="legend" d="M 135.9 181.9 Q 135.9 179.6, 136.6 177.7 Q 137.3 175.8, 138.6 173.8 L 139.5 174.4 Q 138.4 176.3, 137.9 178.0 Q 137.4 179.7, 137.4 181.9 Q 137.4 184.0, 137.9 185.8 Q 138.4 187.5, 139.5 189.4 L 138.6 190.0 Q 137.3 188.0, 136.6 186.1 Q 135.9 184.2, 135.9 181.9 " fill="#000000"/>
<path class="legend" d="M 140.4 177.3 Q 140.8 176.2, 141.8 175.6 Q 142.8 175.0, 144.2 175.0 Q 145.9 175.0, 146.8 175.9 Q 147.8 176.8, 147.8 178.5 Q 147.8 180.2, 146.5 181.7 Q 145.3 183.3, 142.8 185.2 L 148.0 185.2 L 148.0 186.4 L 140.4 186.4 L 140.4 185.4 Q 142.5 183.9, 143.7 182.8 Q 145.0 181.6, 145.6 180.6 Q 146.2 179.6, 146.2 178.6 Q 146.2 177.5, 145.6 176.9 Q 145.1 176.3, 144.2 176.3 Q 143.2 176.3, 142.6 176.6 Q 142.0 177.0, 141.6 177.8 L 140.4 177.3 " fill="#000000"/>
<path class="legend" d="M 153.0 181.9 Q 153.0 184.2, 152.3 186.1 Q 151.6 188.0, 150.3 190.0 L 149.4 189.4 Q 150.5 187.5, 151.0 185.8 Q 151.5 184.0, 151.5 181.9 Q 151.5 179.7, 151.0 178.0 Q 150.5 176.3, 149.4 174.4 L 150.3 173.8 Q 151.6 175.8, 152.3 177.7 Q 153.0 179.6, 153.0 181.9 " fill="#000000"/>
</g>
    <g transform="translate(289.0, 0) scale(1 1) "><line x1="5" y1="100" x2="35" y2="100" style="stroke:rgb(0,0,0);stroke-width:2"/>
  <line x1="34" y1="100" x2="29" y2="95" style="stroke:rgb(0,0,0);stroke-width:2"/>
  <line x1="34" y1="100" x2="29" y2="105" style="stroke:rgb(0,0,0);stroke-width:2"/>
</g>
    <g transform="translate(329.0, 0) scale(1 1) "><!-- END OF HEADER -->
<rect style="opacity:1.0;fill:#FFFFFF;stroke:none" width="215.0" height="200.0" x="0.0" y="0.0"> </rect>
<path class="bond-0 atom-0 atom-1" d="M 61.9,36.0 L 106.2,60.7" style="fill:none;fill-rule:evenodd;stroke:#000000;stroke-width:2.0px;stroke-linecap:butt;stroke-linejoin:miter;stroke-opacity:1"/>
<path class="bond-1 atom-1 atom-2" d="M 106.2,60.7 L 107.0,111.4" style="fill:none;fill-rule:evenodd;stroke:#000000;stroke-width:2.0px;stroke-linecap:butt;stroke-linejoin:miter;stroke-opacity:1"/>
<path class="bond-2 atom-2 atom-3" d="M 107.0,111.4 L 107.7,162.2" style="fill:none;fill-rule:evenodd;stroke:#000000;stroke-width:2.0px;stroke-linecap:butt;stroke-linejoin:miter;stroke-opacity:1"/>
<path class="bond-3 atom-2 atom-4" d="M 107.0,111.4 L 56.2,112.2" style="fill:none;fill-rule:evenodd;stroke:#000000;stroke-width:2.0px;stroke-linecap:butt;stroke-linejoin:miter;stroke-opacity:1"/>
<path class="bond-4 atom-4 atom-5" d="M 56.2,112.2 L 46.4,129.9" style="fill:none;fill-rule:evenodd;stroke:#000000;stroke-width:2.0px;stroke-linecap:butt;stroke-linejoin:miter;stroke-opacity:1"/>
<path class="bond-4 atom-4 atom-5" d="M 46.4,129.9 L 36.5,147.6" style="fill:none;fill-rule:evenodd;stroke:#FF0000;stroke-width:2.0px;stroke-linecap:butt;stroke-linejoin:miter;stroke-opacity:1"/>
<path class="bond-5 atom-2 atom-6" d="M 107.0,111.4 L 157.7,110.7" style="fill:none;fill-rule:evenodd;stroke:#000000;stroke-width:2.0px;stroke-linecap:butt;stroke-linejoin:miter;stroke-opacity:1"/>
<path class="bond-6 atom-6 atom-7" d="M 159.9,114.5 L 170.3,95.9" style="fill:none;fill-rule:evenodd;stroke:#000000;stroke-width:2.0px;stroke-linecap:butt;stroke-linejoin:miter;stroke-opacity:1"/>
<path class="bond-6 atom-6 atom-7" d="M 170.3,95.9 L 180.6,77.4" style="fill:none;fill-rule:evenodd;stroke:#FF0000;stroke-width:2.0px;stroke-linecap:butt;stroke-linejoin:miter;stroke-opacity:1"/>
<path class="bond-6 atom-6 atom-7" d="M 153.3,110.8 L 163.6,92.2" style="fill:none;fill-rule:evenodd;stroke:#000000;stroke-width:2.0px;stroke-linecap:butt;stroke-linejoin:miter;stroke-opacity:1"/>
<path class="bond-6 atom-6 atom-7" d="M 163.6,92.2 L 173.9,73.7" style="fill:none;fill-rule:evenodd;stroke:#FF0000;stroke-width:2.0px;stroke-linecap:butt;stroke-linejoin:miter;stroke-opacity:1"/>
<path class="bond-7 atom-6 atom-8" d="M 157.7,110.7 L 168.0,128.0" style="fill:none;fill-rule:evenodd;stroke:#000000;stroke-width:2.0px;stroke-linecap:butt;stroke-linejoin:miter;stroke-opacity:1"/>
<path class="bond-7 atom-6 atom-8" d="M 168.0,128.0 L 178.3,145.3" style="fill:none;fill-rule:evenodd;stroke:#FF0000;stroke-width:2.0px;stroke-linecap:butt;stroke-linejoin:miter;stroke-opacity:1"/>
<path d="M 104.0,59.5 L 106.2,60.7 L 106.2,63.3" style="fill:none;stroke:#000000;stroke-width:2.0px;stroke-linecap:butt;stroke-linejoin:miter;stroke-opacity:1;"/>
<path d="M 58.8,112.2 L 56.2,112.2 L 55.7,113.1" style="fill:none;stroke:#000000;stroke-width:2.0px;stroke-linecap:butt;stroke-linejoin:miter;stroke-opacity:1;"/>
<path d="M 155.1,110.7 L 157.7,110.7 L 158.2,111.6" style="fill:none;stroke:#000000;stroke-width:2.0px;stroke-linecap:butt;stroke-linejoin:miter;stroke-opacity:1;"/>
<path class="atom-5" d="M 10.8 149.4 L 12.7 149.4 L 12.7 155.5 L 20.0 155.5 L 20.0 149.4 L 22.0 149.4 L 22.0 163.8 L 20.0 163.8 L 20.0 157.1 L 12.7 157.1 L 12.7 163.8 L 10.8 163.8 L 10.8 149.4 " fill="#FF0000"/>
<path class="atom-5" d="M 24.9 156.5 Q 24.9 153.1, 26.6 151.2 Q 28.3 149.2, 31.5 149.2 Q 34.7 149.2, 36.4 151.2 Q 38.1 153.1, 38.1 156.5 Q 38.1 160.0, 36.4 162.0 Q 34.7 164.0, 31.5 164.0 Q 28.4 164.0, 26.6 162.0 Q 24.9 160.0, 24.9 156.5 M 31.5 162.4 Q 33.7 162.4, 34.9 160.9 Q 36.1 159.4, 36.1 156.5 Q 36.1 153.7, 34.9 152.3 Q 33.7 150.9, 31.5 150.9 Q 29.3 150.9, 28.1 152.3 Q 27.0 153.7, 27.0 156.5 Q 27.0 159.4, 28.1 160.9 Q 29.3 162.4, 31.5 162.4 " fill="#FF0000"/>
<path class="atom-7" d="M 175.8 66.4 Q 175.8 63.0, 177.5 61.1 Q 179.2 59.1, 182.4 59.1 Q 185.6 59.1, 187.3 61.1 Q 189.0 63.0, 189.0 66.4 Q 189.0 69.9, 187.2 71.9 Q 185.5 73.9, 182.4 73.9 Q 179.2 73.9, 177.5 71.9 Q 175.8 69.9, 175.8 66.4 M 182.4 72.2 Q 184.6 72.2, 185.7 70.8 Q 186.9 69.3, 186.9 66.4 Q 186.9 63.6, 185.7 62.2 Q 184.6 60.7, 182.4 60.7 Q 180.2 60.7, 179.0 62.2 Q 177.8 63.6, 177.8 66.4 Q 177.8 69.3, 179.0 70.8 Q 180.2 72.2, 182.4 72.2 " fill="#FF0000"/>
<path class="atom-8" d="M 177.1 154.3 Q 177.1 150.8, 178.8 148.9 Q 180.5 147.0, 183.7 147.0 Q 186.9 147.0, 188.6 148.9 Q 190.3 150.8, 190.3 154.3 Q 190.3 157.8, 188.5 159.7 Q 186.8 161.7, 183.7 161.7 Q 180.5 161.7, 178.8 159.7 Q 177.1 157.8, 177.1 154.3 M 183.7 160.1 Q 185.9 160.1, 187.0 158.6 Q 188.2 157.2, 188.2 154.3 Q 188.2 151.5, 187.0 150.0 Q 185.9 148.6, 183.7 148.6 Q 181.5 148.6, 180.3 150.0 Q 179.1 151.4, 179.1 154.3 Q 179.1 157.2, 180.3 158.6 Q 181.5 160.1, 183.7 160.1 " fill="#FF0000"/>
<path class="atom-8" d="M 192.5 147.1 L 194.5 147.1 L 194.5 153.2 L 201.8 153.2 L 201.8 147.1 L 203.8 147.1 L 203.8 161.5 L 201.8 161.5 L 201.8 154.9 L 194.5 154.9 L 194.5 161.5 L 192.5 161.5 L 192.5 147.1 " fill="#FF0000"/>
</g>
    <g transform="translate(544.0, 0) scale(1 1) "><line x1="15" y1="100" x2="25" y2="100" style="stroke:rgb(0,0,0);stroke-width:2"/>
  <line x1="20" y1="95" x2="20" y2="105" style="stroke:rgb(0,0,0);stroke-width:2"/>
</g>
    <g transform="translate(584.0, 0) scale(1 1) "><!-- END OF HEADER -->
<rect style="opacity:1.0;fill:#FFFFFF;stroke:none" width="328.0" height="200.0" x="0.0" y="0.0"> </rect>
<path class="bond-0 atom-0 atom-1" d="M 16.9,91.4 L 37.6,112.6" style="fill:none;fill-rule:evenodd;stroke:#000000;stroke-width:2.0px;stroke-linecap:butt;stroke-linejoin:miter;stroke-opacity:1"/>
<path class="bond-1 atom-1 atom-2" d="M 37.6,112.6 L 58.2,133.7" style="fill:none;fill-rule:evenodd;stroke:#000000;stroke-width:2.0px;stroke-linecap:butt;stroke-linejoin:miter;stroke-opacity:1"/>
<path class="bond-2 atom-1 atom-3" d="M 37.6,112.6 L 16.4,133.2" style="fill:none;fill-rule:evenodd;stroke:#000000;stroke-width:2.0px;stroke-linecap:butt;stroke-linejoin:miter;stroke-opacity:1"/>
<path class="bond-3 atom-3 atom-4" d="M 16.4,133.2 L 19.4,145.0" style="fill:none;fill-rule:evenodd;stroke:#000000;stroke-width:2.0px;stroke-linecap:butt;stroke-linejoin:miter;stroke-opacity:1"/>
<path class="bond-3 atom-3 atom-4" d="M 19.4,145.0 L 22.4,156.7" style="fill:none;fill-rule:evenodd;stroke:#FF0000;stroke-width:2.0px;stroke-linecap:butt;stroke-linejoin:miter;stroke-opacity:1"/>
<path class="bond-4 atom-1 atom-5" d="M 37.6,112.6 L 58.7,91.9" style="fill:none;fill-rule:evenodd;stroke:#000000;stroke-width:2.0px;stroke-linecap:butt;stroke-linejoin:miter;stroke-opacity:1"/>
<path class="bond-5 atom-5 atom-6" d="M 58.7,91.9 L 87.2,99.9" style="fill:none;fill-rule:evenodd;stroke:#000000;stroke-width:2.0px;stroke-linecap:butt;stroke-linejoin:miter;stroke-opacity:1"/>
<path class="bond-6 atom-6 atom-7" d="M 87.2,99.9 L 79.2,128.4" style="fill:none;fill-rule:evenodd;stroke:#000000;stroke-width:2.0px;stroke-linecap:butt;stroke-linejoin:miter;stroke-opacity:1"/>
<path class="bond-7 atom-7 atom-8" d="M 79.2,128.4 L 87.1,136.5" style="fill:none;fill-rule:evenodd;stroke:#000000;stroke-width:2.0px;stroke-linecap:butt;stroke-linejoin:miter;stroke-opacity:1"/>
<path class="bond-7 atom-7 atom-8" d="M 87.1,136.5 L 95.0,144.6" style="fill:none;fill-rule:evenodd;stroke:#FF0000;stroke-width:2.0px;stroke-linecap:butt;stroke-linejoin:miter;stroke-opacity:1"/>
<path class="bond-8 atom-6 atom-9" d="M 87.2,99.9 L 115.6,107.9" style="fill:none;fill-rule:evenodd;stroke:#000000;stroke-width:2.0px;stroke-linecap:butt;stroke-linejoin:miter;stroke-opacity:1"/>
<path class="bond-9 atom-9 atom-10" d="M 115.6,107.9 L 136.8,87.3" style="fill:none;fill-rule:evenodd;stroke:#000000;stroke-width:2.0px;stroke-linecap:butt;stroke-linejoin:miter;stroke-opacity:1"/>
<path class="bond-10 atom-10 atom-11" d="M 136.8,87.3 L 126.2,73.4" style="fill:none;fill-rule:evenodd;stroke:#000000;stroke-width:2.0px;stroke-linecap:butt;stroke-linejoin:miter;stroke-opacity:1"/>
<path class="bond-11 atom-10 atom-12" d="M 136.8,87.3 L 157.9,66.6" style="fill:none;fill-rule:evenodd;stroke:#000000;stroke-width:2.0px;stroke-linecap:butt;stroke-linejoin:miter;stroke-opacity:1"/>
<path class="bond-12 atom-12 atom-13" d="M 157.9,66.6 L 154.9,55.0" style="fill:none;fill-rule:evenodd;stroke:#000000;stroke-width:2.0px;stroke-linecap:butt;stroke-linejoin:miter;stroke-opacity:1"/>
<path class="bond-12 atom-12 atom-13" d="M 154.9,55.0 L 152.0,43.3" style="fill:none;fill-rule:evenodd;stroke:#FF0000;stroke-width:2.0px;stroke-linecap:butt;stroke-linejoin:miter;stroke-opacity:1"/>
<path class="bond-13 atom-10 atom-14" d="M 136.8,87.3 L 157.4,108.4" style="fill:none;fill-rule:evenodd;stroke:#000000;stroke-width:2.0px;stroke-linecap:butt;stroke-linejoin:miter;stroke-opacity:1"/>
<path class="bond-14 atom-14 atom-15" d="M 157.4,108.4 L 186.0,101.1" style="fill:none;fill-rule:evenodd;stroke:#000000;stroke-width:2.0px;stroke-linecap:butt;stroke-linejoin:miter;stroke-opacity:1"/>
<path class="bond-15 atom-15 atom-16" d="M 186.0,101.1 L 178.7,72.5" style="fill:none;fill-rule:evenodd;stroke:#000000;stroke-width:2.0px;stroke-linecap:butt;stroke-linejoin:miter;stroke-opacity:1"/>
<path class="bond-16 atom-16 atom-17" d="M 178.7,72.5 L 186.9,64.5" style="fill:none;fill-rule:evenodd;stroke:#000000;stroke-width:2.0px;stroke-linecap:butt;stroke-linejoin:miter;stroke-opacity:1"/>
<path class="bond-16 atom-16 atom-17" d="M 186.9,64.5 L 195.1,56.5" style="fill:none;fill-rule:evenodd;stroke:#FF0000;stroke-width:2.0px;stroke-linecap:butt;stroke-linejoin:miter;stroke-opacity:1"/>
<path class="bond-17 atom-15 atom-18" d="M 186.0,101.1 L 214.7,93.8" style="fill:none;fill-rule:evenodd;stroke:#000000;stroke-width:2.0px;stroke-linecap:butt;stroke-linejoin:miter;stroke-opacity:1"/>
<path class="bond-18 atom-18 atom-19" d="M 214.7,93.8 L 235.3,115.0" style="fill:none;fill-rule:evenodd;stroke:#000000;stroke-width:2.0px;stroke-linecap:butt;stroke-linejoin:miter;stroke-opacity:1"/>
<path class="bond-19 atom-19 atom-20" d="M 235.3,115.0 L 264.0,107.7" style="fill:none;fill-rule:evenodd;stroke:#000000;stroke-width:2.0px;stroke-linecap:butt;stroke-linejoin:miter;stroke-opacity:1"/>
<path class="bond-20 atom-20 atom-21" d="M 264.0,107.7 L 292.6,100.4" style="fill:none;fill-rule:evenodd;stroke:#000000;stroke-width:2.0px;stroke-linecap:butt;stroke-linejoin:miter;stroke-opacity:1"/>
<path class="bond-21 atom-20 atom-22" d="M 264.0,107.7 L 256.7,79.0" style="fill:none;fill-rule:evenodd;stroke:#000000;stroke-width:2.0px;stroke-linecap:butt;stroke-linejoin:miter;stroke-opacity:1"/>
<path class="bond-22 atom-22 atom-23" d="M 256.7,79.0 L 264.8,71.1" style="fill:none;fill-rule:evenodd;stroke:#000000;stroke-width:2.0px;stroke-linecap:butt;stroke-linejoin:miter;stroke-opacity:1"/>
<path class="bond-22 atom-22 atom-23" d="M 264.8,71.1 L 273.0,63.1" style="fill:none;fill-rule:evenodd;stroke:#FF0000;stroke-width:2.0px;stroke-linecap:butt;stroke-linejoin:miter;stroke-opacity:1"/>
<path class="bond-23 atom-20 atom-24" d="M 264.0,107.7 L 271.3,136.3" style="fill:none;fill-rule:evenodd;stroke:#000000;stroke-width:2.0px;stroke-linecap:butt;stroke-linejoin:miter;stroke-opacity:1"/>
<path class="bond-24 atom-24 atom-25" d="M 270.6,133.9 L 262.0,142.3" style="fill:none;fill-rule:evenodd;stroke:#000000;stroke-width:2.0px;stroke-linecap:butt;stroke-linejoin:miter;stroke-opacity:1"/>
<path class="bond-24 atom-24 atom-25" d="M 262.0,142.3 L 253.4,150.7" style="fill:none;fill-rule:evenodd;stroke:#FF0000;stroke-width:2.0px;stroke-linecap:butt;stroke-linejoin:miter;stroke-opacity:1"/>
<path class="bond-24 atom-24 atom-25" d="M 273.7,137.0 L 265.0,145.4" style="fill:none;fill-rule:evenodd;stroke:#000000;stroke-width:2.0px;stroke-linecap:butt;stroke-linejoin:miter;stroke-opacity:1"/>
<path class="bond-24 atom-24 atom-25" d="M 265.0,145.4 L 256.4,153.8" style="fill:none;fill-rule:evenodd;stroke:#FF0000;stroke-width:2.0px;stroke-linecap:butt;stroke-linejoin:miter;stroke-opacity:1"/>
<path class="bond-25 atom-24 atom-26" d="M 271.3,136.3 L 283.1,139.6" style="fill:none;fill-rule:evenodd;stroke:#000000;stroke-width:2.0px;stroke-linecap:butt;stroke-linejoin:miter;stroke-opacity:1"/>
<path class="bond-25 atom-24 atom-26" d="M 283.1,139.6 L 294.9,143.0" style="fill:none;fill-rule:evenodd;stroke:#FF0000;stroke-width:2.0px;stroke-linecap:butt;stroke-linejoin:miter;stroke-opacity:1"/>
<path class="bond-26 atom-15 atom-27" d="M 186.0,101.1 L 193.3,129.8" style="fill:none;fill-rule:evenodd;stroke:#000000;stroke-width:2.0px;stroke-linecap:butt;stroke-linejoin:miter;stroke-opacity:1"/>
<path class="bond-27 atom-27 atom-28" d="M 192.7,127.4 L 184.1,135.8" style="fill:none;fill-rule:evenodd;stroke:#000000;stroke-width:2.0px;stroke-linecap:butt;stroke-linejoin:miter;stroke-opacity:1"/>
<path class="bond-27 atom-27 atom-28" d="M 184.1,135.8 L 175.5,144.2" style="fill:none;fill-rule:evenodd;stroke:#FF0000;stroke-width:2.0px;stroke-linecap:butt;stroke-linejoin:miter;stroke-opacity:1"/>
<path class="bond-27 atom-27 atom-28" d="M 195.7,130.5 L 187.1,138.9" style="fill:none;fill-rule:evenodd;stroke:#000000;stroke-width:2.0px;stroke-linecap:butt;stroke-linejoin:miter;stroke-opacity:1"/>
<path class="bond-27 atom-27 atom-28" d="M 187.1,138.9 L 178.5,147.3" style="fill:none;fill-rule:evenodd;stroke:#FF0000;stroke-width:2.0px;stroke-linecap:butt;stroke-linejoin:miter;stroke-opacity:1"/>
<path class="bond-28 atom-27 atom-29" d="M 193.3,129.8 L 205.2,133.1" style="fill:none;fill-rule:evenodd;stroke:#000000;stroke-width:2.0px;stroke-linecap:butt;stroke-linejoin:miter;stroke-opacity:1"/>
<path class="bond-28 atom-27 atom-29" d="M 205.2,133.1 L 217.0,136.4" style="fill:none;fill-rule:evenodd;stroke:#FF0000;stroke-width:2.0px;stroke-linecap:butt;stroke-linejoin:miter;stroke-opacity:1"/>
<path class="bond-29 atom-6 atom-30" d="M 87.2,99.9 L 95.1,71.5" style="fill:none;fill-rule:evenodd;stroke:#000000;stroke-width:2.0px;stroke-linecap:butt;stroke-linejoin:miter;stroke-opacity:1"/>
<path class="bond-30 atom-30 atom-31" d="M 94.4,74.1 L 100.9,71.6" style="fill:none;fill-rule:evenodd;stroke:#000000;stroke-width:2.0px;stroke-linecap:butt;stroke-linejoin:miter;stroke-opacity:1"/>
<path class="bond-30 atom-30 atom-31" d="M 100.9,71.6 L 107.4,69.0" style="fill:none;fill-rule:evenodd;stroke:#FF0000;stroke-width:2.0px;stroke-linecap:butt;stroke-linejoin:miter;stroke-opacity:1"/>
<path class="bond-30 atom-30 atom-31" d="M 93.5,69.8 L 99.3,67.5" style="fill:none;fill-rule:evenodd;stroke:#000000;stroke-width:2.0px;stroke-linecap:butt;stroke-linejoin:miter;stroke-opacity:1"/>
<path class="bond-30 atom-30 atom-31" d="M 99.3,67.5 L 105.8,65.0" style="fill:none;fill-rule:evenodd;stroke:#FF0000;stroke-width:2.0px;stroke-linecap:butt;stroke-linejoin:miter;stroke-opacity:1"/>
<path class="bond-31 atom-30 atom-32" d="M 95.1,71.5 L 87.2,63.4" style="fill:none;fill-rule:evenodd;stroke:#000000;stroke-width:2.0px;stroke-linecap:butt;stroke-linejoin:miter;stroke-opacity:1"/>
<path class="bond-31 atom-30 atom-32" d="M 87.2,63.4 L 79.3,55.2" style="fill:none;fill-rule:evenodd;stroke:#FF0000;stroke-width:2.0px;stroke-linecap:butt;stroke-linejoin:miter;stroke-opacity:1"/>
<path d="M 17.5,132.2 L 16.4,133.2 L 16.5,133.8" style="fill:none;stroke:#000000;stroke-width:2.0px;stroke-linecap:butt;stroke-linejoin:miter;stroke-opacity:1;"/>
<path d="M 57.6,93.0 L 58.7,91.9 L 60.1,92.3" style="fill:none;stroke:#000000;stroke-width:2.0px;stroke-linecap:butt;stroke-linejoin:miter;stroke-opacity:1;"/>
<path d="M 79.6,127.0 L 79.2,128.4 L 79.6,128.8" style="fill:none;stroke:#000000;stroke-width:2.0px;stroke-linecap:butt;stroke-linejoin:miter;stroke-opacity:1;"/>
<path d="M 114.2,107.5 L 115.6,107.9 L 116.7,106.9" style="fill:none;stroke:#000000;stroke-width:2.0px;stroke-linecap:butt;stroke-linejoin:miter;stroke-opacity:1;"/>
<path d="M 156.8,67.7 L 157.9,66.6 L 157.8,66.1" style="fill:none;stroke:#000000;stroke-width:2.0px;stroke-linecap:butt;stroke-linejoin:miter;stroke-opacity:1;"/>
<path d="M 156.4,107.4 L 157.4,108.4 L 158.8,108.1" style="fill:none;stroke:#000000;stroke-width:2.0px;stroke-linecap:butt;stroke-linejoin:miter;stroke-opacity:1;"/>
<path d="M 179.1,73.9 L 178.7,72.5 L 179.1,72.1" style="fill:none;stroke:#000000;stroke-width:2.0px;stroke-linecap:butt;stroke-linejoin:miter;stroke-opacity:1;"/>
<path d="M 213.2,94.2 L 214.7,93.8 L 215.7,94.9" style="fill:none;stroke:#000000;stroke-width:2.0px;stroke-linecap:butt;stroke-linejoin:miter;stroke-opacity:1;"/>
<path d="M 234.3,113.9 L 235.3,115.0 L 236.7,114.6" style="fill:none;stroke:#000000;stroke-width:2.0px;stroke-linecap:butt;stroke-linejoin:miter;stroke-opacity:1;"/>
<path d="M 257.0,80.5 L 256.7,79.0 L 257.1,78.6" style="fill:none;stroke:#000000;stroke-width:2.0px;stroke-linecap:butt;stroke-linejoin:miter;stroke-opacity:1;"/>
<path d="M 270.9,134.9 L 271.3,136.3 L 271.8,136.5" style="fill:none;stroke:#000000;stroke-width:2.0px;stroke-linecap:butt;stroke-linejoin:miter;stroke-opacity:1;"/>
<path d="M 193.0,128.3 L 193.3,129.8 L 193.9,129.9" style="fill:none;stroke:#000000;stroke-width:2.0px;stroke-linecap:butt;stroke-linejoin:miter;stroke-opacity:1;"/>
<path d="M 94.7,72.9 L 95.1,71.5 L 94.8,71.1" style="fill:none;stroke:#000000;stroke-width:2.0px;stroke-linecap:butt;stroke-linejoin:miter;stroke-opacity:1;"/>
<path class="atom-4" d="M 19.9 161.9 Q 19.9 159.9, 20.9 158.8 Q 21.8 157.6, 23.7 157.6 Q 25.6 157.6, 26.6 158.8 Q 27.5 159.9, 27.5 161.9 Q 27.5 163.9, 26.5 165.1 Q 25.5 166.2, 23.7 166.2 Q 21.9 166.2, 20.9 165.1 Q 19.9 163.9, 19.9 161.9 M 23.7 165.3 Q 25.0 165.3, 25.7 164.4 Q 26.4 163.6, 26.4 161.9 Q 26.4 160.2, 25.7 159.4 Q 25.0 158.6, 23.7 158.6 Q 22.4 158.6, 21.7 159.4 Q 21.0 160.2, 21.0 161.9 Q 21.0 163.6, 21.7 164.4 Q 22.4 165.3, 23.7 165.3 " fill="#FF0000"/>
<path class="atom-4" d="M 28.8 157.7 L 30.0 157.7 L 30.0 161.3 L 34.3 161.3 L 34.3 157.7 L 35.4 157.7 L 35.4 166.1 L 34.3 166.1 L 34.3 162.2 L 30.0 162.2 L 30.0 166.1 L 28.8 166.1 L 28.8 157.7 " fill="#FF0000"/>
<path class="atom-8" d="M 96.0 149.6 Q 96.0 147.6, 97.0 146.4 Q 97.9 145.3, 99.8 145.3 Q 101.7 145.3, 102.6 146.4 Q 103.6 147.6, 103.6 149.6 Q 103.6 151.6, 102.6 152.8 Q 101.6 153.9, 99.8 153.9 Q 98.0 153.9, 97.0 152.8 Q 96.0 151.6, 96.0 149.6 M 99.8 153.0 Q 101.1 153.0, 101.8 152.1 Q 102.5 151.2, 102.5 149.6 Q 102.5 147.9, 101.8 147.1 Q 101.1 146.3, 99.8 146.3 Q 98.5 146.3, 97.8 147.1 Q 97.1 147.9, 97.1 149.6 Q 97.1 151.3, 97.8 152.1 Q 98.5 153.0, 99.8 153.0 " fill="#FF0000"/>
<path class="atom-8" d="M 104.9 145.4 L 106.1 145.4 L 106.1 149.0 L 110.4 149.0 L 110.4 145.4 L 111.5 145.4 L 111.5 153.8 L 110.4 153.8 L 110.4 149.9 L 106.1 149.9 L 106.1 153.8 L 104.9 153.8 L 104.9 145.4 " fill="#FF0000"/>
<path class="atom-13" d="M 146.8 38.0 Q 146.8 36.0, 147.8 34.9 Q 148.7 33.8, 150.6 33.8 Q 152.5 33.8, 153.5 34.9 Q 154.4 36.0, 154.4 38.0 Q 154.4 40.1, 153.4 41.2 Q 152.4 42.4, 150.6 42.4 Q 148.8 42.4, 147.8 41.2 Q 146.8 40.1, 146.8 38.0 M 150.6 41.4 Q 151.9 41.4, 152.6 40.6 Q 153.3 39.7, 153.3 38.0 Q 153.3 36.4, 152.6 35.6 Q 151.9 34.7, 150.6 34.7 Q 149.3 34.7, 148.6 35.5 Q 147.9 36.4, 147.9 38.0 Q 147.9 39.7, 148.6 40.6 Q 149.3 41.4, 150.6 41.4 " fill="#FF0000"/>
<path class="atom-13" d="M 155.7 33.9 L 156.9 33.9 L 156.9 37.4 L 161.2 37.4 L 161.2 33.9 L 162.3 33.9 L 162.3 42.2 L 161.2 42.2 L 161.2 38.4 L 156.9 38.4 L 156.9 42.2 L 155.7 42.2 L 155.7 33.9 " fill="#FF0000"/>
<path class="atom-17" d="M 196.0 51.9 Q 196.0 49.9, 197.0 48.7 Q 198.0 47.6, 199.9 47.6 Q 201.7 47.6, 202.7 48.7 Q 203.7 49.9, 203.7 51.9 Q 203.7 53.9, 202.7 55.1 Q 201.7 56.2, 199.9 56.2 Q 198.0 56.2, 197.0 55.1 Q 196.0 53.9, 196.0 51.9 M 199.9 55.3 Q 201.2 55.3, 201.8 54.4 Q 202.5 53.6, 202.5 51.9 Q 202.5 50.2, 201.8 49.4 Q 201.2 48.6, 199.9 48.6 Q 198.6 48.6, 197.9 49.4 Q 197.2 50.2, 197.2 51.9 Q 197.2 53.6, 197.9 54.4 Q 198.6 55.3, 199.9 55.3 " fill="#FF0000"/>
<path class="atom-17" d="M 205.0 47.7 L 206.2 47.7 L 206.2 51.3 L 210.4 51.3 L 210.4 47.7 L 211.6 47.7 L 211.6 56.1 L 210.4 56.1 L 210.4 52.2 L 206.2 52.2 L 206.2 56.1 L 205.0 56.1 L 205.0 47.7 " fill="#FF0000"/>
<path class="atom-23" d="M 274.0 58.4 Q 274.0 56.4, 275.0 55.3 Q 275.9 54.2, 277.8 54.2 Q 279.7 54.2, 280.7 55.3 Q 281.6 56.4, 281.6 58.4 Q 281.6 60.5, 280.6 61.6 Q 279.6 62.8, 277.8 62.8 Q 276.0 62.8, 275.0 61.6 Q 274.0 60.5, 274.0 58.4 M 277.8 61.8 Q 279.1 61.8, 279.8 61.0 Q 280.5 60.1, 280.5 58.4 Q 280.5 56.8, 279.8 56.0 Q 279.1 55.1, 277.8 55.1 Q 276.5 55.1, 275.8 55.9 Q 275.1 56.8, 275.1 58.4 Q 275.1 60.1, 275.8 61.0 Q 276.5 61.8, 277.8 61.8 " fill="#FF0000"/>
<path class="atom-23" d="M 282.9 54.3 L 284.1 54.3 L 284.1 57.8 L 288.4 57.8 L 288.4 54.3 L 289.5 54.3 L 289.5 62.6 L 288.4 62.6 L 288.4 58.8 L 284.1 58.8 L 284.1 62.6 L 282.9 62.6 L 282.9 54.3 " fill="#FF0000"/>
<path class="atom-25" d="M 246.3 157.0 Q 246.3 155.0, 247.3 153.9 Q 248.2 152.7, 250.1 152.7 Q 252.0 152.7, 253.0 153.9 Q 253.9 155.0, 253.9 157.0 Q 253.9 159.0, 252.9 160.2 Q 251.9 161.3, 250.1 161.3 Q 248.3 161.3, 247.3 160.2 Q 246.3 159.0, 246.3 157.0 M 250.1 160.4 Q 251.4 160.4, 252.1 159.5 Q 252.8 158.7, 252.8 157.0 Q 252.8 155.3, 252.1 154.5 Q 251.4 153.7, 250.1 153.7 Q 248.8 153.7, 248.1 154.5 Q 247.4 155.3, 247.4 157.0 Q 247.4 158.7, 248.1 159.5 Q 248.8 160.4, 250.1 160.4 " fill="#FF0000"/>
<path class="atom-26" d="M 295.9 144.3 Q 295.9 142.3, 296.9 141.2 Q 297.9 140.1, 299.7 140.1 Q 301.6 140.1, 302.6 141.2 Q 303.5 142.3, 303.5 144.3 Q 303.5 146.4, 302.5 147.5 Q 301.5 148.7, 299.7 148.7 Q 297.9 148.7, 296.9 147.5 Q 295.9 146.4, 295.9 144.3 M 299.7 147.7 Q 301.0 147.7, 301.7 146.9 Q 302.4 146.0, 302.4 144.3 Q 302.4 142.7, 301.7 141.9 Q 301.0 141.0, 299.7 141.0 Q 298.4 141.0, 297.7 141.9 Q 297.0 142.7, 297.0 144.3 Q 297.0 146.0, 297.7 146.9 Q 298.4 147.7, 299.7 147.7 " fill="#FF0000"/>
<path class="atom-26" d="M 304.9 140.2 L 306.0 140.2 L 306.0 143.7 L 310.3 143.7 L 310.3 140.2 L 311.4 140.2 L 311.4 148.6 L 310.3 148.6 L 310.3 144.7 L 306.0 144.7 L 306.0 148.6 L 304.9 148.6 L 304.9 140.2 " fill="#FF0000"/>
<path class="atom-28" d="M 168.3 150.4 Q 168.3 148.4, 169.3 147.3 Q 170.3 146.2, 172.2 146.2 Q 174.0 146.2, 175.0 147.3 Q 176.0 148.4, 176.0 150.4 Q 176.0 152.5, 175.0 153.6 Q 174.0 154.8, 172.2 154.8 Q 170.3 154.8, 169.3 153.6 Q 168.3 152.5, 168.3 150.4 M 172.2 153.8 Q 173.5 153.8, 174.1 153.0 Q 174.8 152.1, 174.8 150.4 Q 174.8 148.8, 174.1 148.0 Q 173.5 147.1, 172.2 147.1 Q 170.9 147.1, 170.2 148.0 Q 169.5 148.8, 169.5 150.4 Q 169.5 152.1, 170.2 153.0 Q 170.9 153.8, 172.2 153.8 " fill="#FF0000"/>
<path class="atom-29" d="M 217.9 137.8 Q 217.9 135.8, 218.9 134.7 Q 219.9 133.5, 221.8 133.5 Q 223.6 133.5, 224.6 134.7 Q 225.6 135.8, 225.6 137.8 Q 225.6 139.8, 224.6 141.0 Q 223.6 142.1, 221.8 142.1 Q 219.9 142.1, 218.9 141.0 Q 217.9 139.8, 217.9 137.8 M 221.8 141.2 Q 223.1 141.2, 223.8 140.3 Q 224.4 139.5, 224.4 137.8 Q 224.4 136.2, 223.8 135.3 Q 223.1 134.5, 221.8 134.5 Q 220.5 134.5, 219.8 135.3 Q 219.1 136.1, 219.1 137.8 Q 219.1 139.5, 219.8 140.3 Q 220.5 141.2, 221.8 141.2 " fill="#FF0000"/>
<path class="atom-29" d="M 226.9 133.6 L 228.1 133.6 L 228.1 137.2 L 232.3 137.2 L 232.3 133.6 L 233.5 133.6 L 233.5 142.0 L 232.3 142.0 L 232.3 138.1 L 228.1 138.1 L 228.1 142.0 L 226.9 142.0 L 226.9 133.6 " fill="#FF0000"/>
<path class="atom-31" d="M 107.6 65.2 Q 107.6 63.2, 108.6 62.0 Q 109.6 60.9, 111.4 60.9 Q 113.3 60.9, 114.3 62.0 Q 115.2 63.2, 115.2 65.2 Q 115.2 67.2, 114.2 68.4 Q 113.2 69.5, 111.4 69.5 Q 109.6 69.5, 108.6 68.4 Q 107.6 67.2, 107.6 65.2 M 111.4 68.6 Q 112.7 68.6, 113.4 67.7 Q 114.1 66.8, 114.1 65.2 Q 114.1 63.5, 113.4 62.7 Q 112.7 61.9, 111.4 61.9 Q 110.1 61.9, 109.4 62.7 Q 108.7 63.5, 108.7 65.2 Q 108.7 66.9, 109.4 67.7 Q 110.1 68.6, 111.4 68.6 " fill="#FF0000"/>
<path class="atom-32" d="M 62.4 46.2 L 63.5 46.2 L 63.5 49.8 L 67.8 49.8 L 67.8 46.2 L 68.9 46.2 L 68.9 54.6 L 67.8 54.6 L 67.8 50.7 L 63.5 50.7 L 63.5 54.6 L 62.4 54.6 L 62.4 46.2 " fill="#FF0000"/>
<path class="atom-32" d="M 70.7 50.4 Q 70.7 48.3, 71.7 47.2 Q 72.7 46.1, 74.5 46.1 Q 76.4 46.1, 77.4 47.2 Q 78.3 48.3, 78.3 50.4 Q 78.3 52.4, 77.3 53.5 Q 76.3 54.7, 74.5 54.7 Q 72.7 54.7, 71.7 53.5 Q 70.7 52.4, 70.7 50.4 M 74.5 53.7 Q 75.8 53.7, 76.5 52.9 Q 77.2 52.0, 77.2 50.4 Q 77.2 48.7, 76.5 47.9 Q 75.8 47.0, 74.5 47.0 Q 73.2 47.0, 72.5 47.9 Q 71.8 48.7, 71.8 50.4 Q 71.8 52.0, 72.5 52.9 Q 73.2 53.7, 74.5 53.7 " fill="#FF0000"/>
</g>
  </g>
</svg>
