<?xml version='1.0' encoding='ASCII' standalone='yes'?>
<svg xmlns="http://www.w3.org/2000/svg" xmlns:xlink="http://www.w3.org/1999/xlink" version="1.1" width="740.0px" viewBox="0 0 740.0 200.0" height="200.0px">
  <g>
    <g transform="translate(0, 0) scale(1 1) "><!-- END OF HEADER -->
<rect style="opacity:1.0;fill:#FFFFFF;stroke:none" width="225.0" height="200.0" x="0.0" y="0.0"> </rect>
<path class="bond-0 atom-0 atom-1" d="M 213.2,71.1 L 176.1,110.5" style="fill:none;fill-rule:evenodd;stroke:#000000;stroke-width:2.0px;stroke-linecap:butt;stroke-linejoin:miter;stroke-opacity:1"/>
<path class="bond-1 atom-1 atom-2" d="M 176.1,110.5 L 182.4,131.7" style="fill:none;fill-rule:evenodd;stroke:#000000;stroke-width:2.0px;stroke-linecap:butt;stroke-linejoin:miter;stroke-opacity:1"/>
<path class="bond-1 atom-1 atom-2" d="M 182.4,131.7 L 188.7,152.8" style="fill:none;fill-rule:evenodd;stroke:#FF0000;stroke-width:2.0px;stroke-linecap:butt;stroke-linejoin:miter;stroke-opacity:1"/>
<path class="bond-2 atom-1 atom-3" d="M 176.1,110.5 L 123.3,98.0" style="fill:none;fill-rule:evenodd;stroke:#000000;stroke-width:2.0px;stroke-linecap:butt;stroke-linejoin:miter;stroke-opacity:1"/>
<path class="bond-3 atom-3 atom-4" d="M 123.3,98.0 L 135.9,45.3" style="fill:none;fill-rule:evenodd;stroke:#000000;stroke-width:2.0px;stroke-linecap:butt;stroke-linejoin:miter;stroke-opacity:1"/>
<path class="bond-4 atom-3 atom-5" d="M 123.3,98.0 L 110.8,150.7" style="fill:none;fill-rule:evenodd;stroke:#000000;stroke-width:2.0px;stroke-linecap:butt;stroke-linejoin:miter;stroke-opacity:1"/>
<path class="bond-5 atom-5 atom-6" d="M 110.8,150.7 L 89.3,157.1" style="fill:none;fill-rule:evenodd;stroke:#000000;stroke-width:2.0px;stroke-linecap:butt;stroke-linejoin:miter;stroke-opacity:1"/>
<path class="bond-5 atom-5 atom-6" d="M 89.3,157.1 L 67.8,163.6" style="fill:none;fill-rule:evenodd;stroke:#FF0000;stroke-width:2.0px;stroke-linecap:butt;stroke-linejoin:miter;stroke-opacity:1"/>
<path class="bond-6 atom-3 atom-7" d="M 123.3,98.0 L 70.6,85.5" style="fill:none;fill-rule:evenodd;stroke:#000000;stroke-width:2.0px;stroke-linecap:butt;stroke-linejoin:miter;stroke-opacity:1"/>
<path class="bond-7 atom-7 atom-8" d="M 70.6,85.5 L 64.3,64.4" style="fill:none;fill-rule:evenodd;stroke:#000000;stroke-width:2.0px;stroke-linecap:butt;stroke-linejoin:miter;stroke-opacity:1"/>
<path class="bond-7 atom-7 atom-8" d="M 64.3,64.4 L 58.0,43.3" style="fill:none;fill-rule:evenodd;stroke:#FF0000;stroke-width:2.0px;stroke-linecap:butt;stroke-linejoin:miter;stroke-opacity:1"/>
<path class="bond-8 atom-7 atom-9" d="M 70.6,85.5 L 56.5,100.5" style="fill:none;fill-rule:evenodd;stroke:#000000;stroke-width:2.0px;stroke-linecap:butt;stroke-linejoin:miter;stroke-opacity:1"/>
<path class="bond-8 atom-7 atom-9" d="M 56.5,100.5 L 42.3,115.5" style="fill:none;fill-rule:evenodd;stroke:#FF0000;stroke-width:2.0px;stroke-linecap:butt;stroke-linejoin:miter;stroke-opacity:1"/>
<path d="M 111.5,148.0 L 110.8,150.7 L 109.8,151.0" style="fill:none;stroke:#000000;stroke-width:2.0px;stroke-linecap:butt;stroke-linejoin:miter;stroke-opacity:1;"/>
<path class="atom-2" d="M 184.5 162.4 Q 184.5 158.7, 186.4 156.7 Q 188.2 154.6, 191.6 154.6 Q 195.0 154.6, 196.8 156.7 Q 198.6 158.7, 198.6 162.4 Q 198.6 166.2, 196.8 168.3 Q 194.9 170.4, 191.6 170.4 Q 188.2 170.4, 186.4 168.3 Q 184.5 166.2, 184.5 162.4 M 191.6 168.6 Q 193.9 168.6, 195.2 167.1 Q 196.5 165.5, 196.5 162.4 Q 196.5 159.4, 195.2 157.9 Q 193.9 156.4, 191.6 156.4 Q 189.2 156.4, 188.0 157.9 Q 186.7 159.4, 186.7 162.4 Q 186.7 165.5, 188.0 167.1 Q 189.2 168.6, 191.6 168.6 " fill="#FF0000"/>
<path class="atom-2" d="M 201.0 154.8 L 203.1 154.8 L 203.1 161.3 L 210.9 161.3 L 210.9 154.8 L 213.0 154.8 L 213.0 170.1 L 210.9 170.1 L 210.9 163.1 L 203.1 163.1 L 203.1 170.1 L 201.0 170.1 L 201.0 154.8 " fill="#FF0000"/>
<path class="atom-6" d="M 36.7 158.6 L 38.8 158.6 L 38.8 165.1 L 46.7 165.1 L 46.7 158.6 L 48.7 158.6 L 48.7 174.0 L 46.7 174.0 L 46.7 166.9 L 38.8 166.9 L 38.8 174.0 L 36.7 174.0 L 36.7 158.6 " fill="#FF0000"/>
<path class="atom-6" d="M 51.9 166.2 Q 51.9 162.6, 53.7 160.5 Q 55.5 158.4, 58.9 158.4 Q 62.3 158.4, 64.2 160.5 Q 66.0 162.6, 66.0 166.2 Q 66.0 170.0, 64.1 172.1 Q 62.3 174.2, 58.9 174.2 Q 55.6 174.2, 53.7 172.1 Q 51.9 170.0, 51.9 166.2 M 58.9 172.5 Q 61.3 172.5, 62.5 170.9 Q 63.8 169.3, 63.8 166.2 Q 63.8 163.2, 62.5 161.7 Q 61.3 160.2, 58.9 160.2 Q 56.6 160.2, 55.3 161.7 Q 54.1 163.2, 54.1 166.2 Q 54.1 169.3, 55.3 170.9 Q 56.6 172.5, 58.9 172.5 " fill="#FF0000"/>
<path class="atom-8" d="M 48.1 33.6 Q 48.1 29.9, 49.9 27.9 Q 51.7 25.8, 55.1 25.8 Q 58.5 25.8, 60.3 27.9 Q 62.2 29.9, 62.2 33.6 Q 62.2 37.3, 60.3 39.4 Q 58.5 41.6, 55.1 41.6 Q 51.7 41.6, 49.9 39.4 Q 48.1 37.3, 48.1 33.6 M 55.1 39.8 Q 57.4 39.8, 58.7 38.3 Q 60.0 36.7, 60.0 33.6 Q 60.0 30.6, 58.7 29.1 Q 57.4 27.5, 55.1 27.5 Q 52.8 27.5, 51.5 29.0 Q 50.2 30.6, 50.2 33.6 Q 50.2 36.7, 51.5 38.3 Q 52.8 39.8, 55.1 39.8 " fill="#FF0000"/>
<path class="atom-8" d="M 64.5 26.0 L 66.6 26.0 L 66.6 32.5 L 74.5 32.5 L 74.5 26.0 L 76.5 26.0 L 76.5 41.3 L 74.5 41.3 L 74.5 34.2 L 66.6 34.2 L 66.6 41.3 L 64.5 41.3 L 64.5 26.0 " fill="#FF0000"/>
<path class="atom-9" d="M 11.2 117.3 L 13.3 117.3 L 13.3 123.8 L 21.2 123.8 L 21.2 117.3 L 23.3 117.3 L 23.3 132.6 L 21.2 132.6 L 21.2 125.5 L 13.3 125.5 L 13.3 132.6 L 11.2 132.6 L 11.2 117.3 " fill="#FF0000"/>
<path class="atom-9" d="M 26.4 124.9 Q 26.4 121.2, 28.2 119.2 Q 30.0 117.1, 33.4 117.1 Q 36.8 117.1, 38.7 119.2 Q 40.5 121.2, 40.5 124.9 Q 40.5 128.6, 38.6 130.8 Q 36.8 132.9, 33.4 132.9 Q 30.1 132.9, 28.2 130.8 Q 26.4 128.7, 26.4 124.9 M 33.4 131.1 Q 35.8 131.1, 37.0 129.6 Q 38.3 128.0, 38.3 124.9 Q 38.3 121.9, 37.0 120.4 Q 35.8 118.8, 33.4 118.8 Q 31.1 118.8, 29.8 120.4 Q 28.6 121.9, 28.6 124.9 Q 28.6 128.0, 29.8 129.6 Q 31.1 131.1, 33.4 131.1 " fill="#FF0000"/>
</g>
    <g transform="translate(225.0, 0) scale(1 1) "><line x1="15" y1="100" x2="25" y2="100" style="stroke:rgb(0,0,0);stroke-width:2"/>
  <line x1="20" y1="95" x2="20" y2="105" style="stroke:rgb(0,0,0);stroke-width:2"/>
</g>
    <g transform="translate(265.0, 0) scale(1 1) "><!-- END OF HEADER -->
<rect style="opacity:1.0;fill:#FFFFFF;stroke:none" width="85.0" height="200.0" x="0.0" y="0.0"> </rect>
<path class="bond-0 atom-0 atom-1" d="M 21.9,95.3 L 62.6,95.3" style="fill:none;fill-rule:evenodd;stroke:#FF0000;stroke-width:2.0px;stroke-linecap:butt;stroke-linejoin:miter;stroke-opacity:1"/>
<path class="bond-0 atom-0 atom-1" d="M 21.9,104.4 L 62.6,104.4" style="fill:none;fill-rule:evenodd;stroke:#FF0000;stroke-width:2.0px;stroke-linecap:butt;stroke-linejoin:miter;stroke-opacity:1"/>
<path class="atom-0" d="M 4.3 99.9 Q 4.3 95.8, 6.3 93.5 Q 8.3 91.2, 12.1 91.2 Q 15.9 91.2, 17.9 93.5 Q 19.9 95.8, 19.9 99.9 Q 19.9 104.1, 17.9 106.4 Q 15.8 108.8, 12.1 108.8 Q 8.3 108.8, 6.3 106.4 Q 4.3 104.1, 4.3 99.9 M 12.1 106.8 Q 14.7 106.8, 16.1 105.1 Q 17.5 103.3, 17.5 99.9 Q 17.5 96.6, 16.1 94.9 Q 14.7 93.2, 12.1 93.2 Q 9.5 93.2, 8.1 94.8 Q 6.7 96.5, 6.7 99.9 Q 6.7 103.4, 8.1 105.1 Q 9.5 106.8, 12.1 106.8 " fill="#FF0000"/>
<path class="atom-1" d="M 64.6 99.9 Q 64.6 95.8, 66.6 93.5 Q 68.6 91.2, 72.4 91.2 Q 76.2 91.2, 78.2 93.5 Q 80.2 95.8, 80.2 99.9 Q 80.2 104.1, 78.2 106.4 Q 76.1 108.8, 72.4 108.8 Q 68.6 108.8, 66.6 106.4 Q 64.6 104.1, 64.6 99.9 M 72.4 106.8 Q 75.0 106.8, 76.4 105.1 Q 77.8 103.3, 77.8 99.9 Q 77.8 96.6, 76.4 94.9 Q 75.0 93.2, 72.4 93.2 Q 69.8 93.2, 68.4 94.8 Q 67.0 96.5, 67.0 99.9 Q 67.0 103.4, 68.4 105.1 Q 69.8 106.8, 72.4 106.8 " fill="#FF0000"/>
</g>
    <g transform="translate(350.0, 0) scale(1 1) "><line x1="5" y1="100" x2="35" y2="100" style="stroke:rgb(0,0,0);stroke-width:2"/>
  <line x1="34" y1="100" x2="29" y2="95" style="stroke:rgb(0,0,0);stroke-width:2"/>
  <line x1="34" y1="100" x2="29" y2="105" style="stroke:rgb(0,0,0);stroke-width:2"/>
</g>
    <g transform="translate(390.0, 0) scale(1 1) "><!-- END OF HEADER -->
<rect style="opacity:1.0;fill:#FFFFFF;stroke:none" width="225.0" height="200.0" x="0.0" y="0.0"> </rect>
<path class="bond-0 atom-0 atom-1" d="M 213.2,68.7 L 173.0,111.3" style="fill:none;fill-rule:evenodd;stroke:#000000;stroke-width:2.0px;stroke-linecap:butt;stroke-linejoin:miter;stroke-opacity:1"/>
<path class="bond-1 atom-1 atom-2" d="M 173.0,111.3 L 179.9,134.2" style="fill:none;fill-rule:evenodd;stroke:#000000;stroke-width:2.0px;stroke-linecap:butt;stroke-linejoin:miter;stroke-opacity:1"/>
<path class="bond-1 atom-1 atom-2" d="M 179.9,134.2 L 186.7,157.1" style="fill:none;fill-rule:evenodd;stroke:#FF0000;stroke-width:2.0px;stroke-linecap:butt;stroke-linejoin:miter;stroke-opacity:1"/>
<path class="bond-2 atom-1 atom-3" d="M 173.0,111.3 L 116.1,97.8" style="fill:none;fill-rule:evenodd;stroke:#000000;stroke-width:2.0px;stroke-linecap:butt;stroke-linejoin:miter;stroke-opacity:1"/>
<path class="bond-3 atom-3 atom-4" d="M 116.1,97.8 L 129.6,40.8" style="fill:none;fill-rule:evenodd;stroke:#000000;stroke-width:2.0px;stroke-linecap:butt;stroke-linejoin:miter;stroke-opacity:1"/>
<path class="bond-4 atom-3 atom-5" d="M 116.1,97.8 L 102.5,154.8" style="fill:none;fill-rule:evenodd;stroke:#000000;stroke-width:2.0px;stroke-linecap:butt;stroke-linejoin:miter;stroke-opacity:1"/>
<path class="bond-5 atom-5 atom-6" d="M 102.5,154.8 L 79.3,161.8" style="fill:none;fill-rule:evenodd;stroke:#000000;stroke-width:2.0px;stroke-linecap:butt;stroke-linejoin:miter;stroke-opacity:1"/>
<path class="bond-5 atom-5 atom-6" d="M 79.3,161.8 L 56.0,168.7" style="fill:none;fill-rule:evenodd;stroke:#FF0000;stroke-width:2.0px;stroke-linecap:butt;stroke-linejoin:miter;stroke-opacity:1"/>
<path class="bond-6 atom-3 atom-7" d="M 116.1,97.8 L 59.1,84.3" style="fill:none;fill-rule:evenodd;stroke:#000000;stroke-width:2.0px;stroke-linecap:butt;stroke-linejoin:miter;stroke-opacity:1"/>
<path class="bond-7 atom-7 atom-8" d="M 57.6,79.4 L 41.4,96.6" style="fill:none;fill-rule:evenodd;stroke:#000000;stroke-width:2.0px;stroke-linecap:butt;stroke-linejoin:miter;stroke-opacity:1"/>
<path class="bond-7 atom-7 atom-8" d="M 41.4,96.6 L 25.2,113.7" style="fill:none;fill-rule:evenodd;stroke:#FF0000;stroke-width:2.0px;stroke-linecap:butt;stroke-linejoin:miter;stroke-opacity:1"/>
<path class="bond-7 atom-7 atom-8" d="M 64.0,85.5 L 47.8,102.6" style="fill:none;fill-rule:evenodd;stroke:#000000;stroke-width:2.0px;stroke-linecap:butt;stroke-linejoin:miter;stroke-opacity:1"/>
<path class="bond-7 atom-7 atom-8" d="M 47.8,102.6 L 31.6,119.8" style="fill:none;fill-rule:evenodd;stroke:#FF0000;stroke-width:2.0px;stroke-linecap:butt;stroke-linejoin:miter;stroke-opacity:1"/>
<path class="bond-8 atom-7 atom-9" d="M 59.1,84.3 L 52.3,61.5" style="fill:none;fill-rule:evenodd;stroke:#000000;stroke-width:2.0px;stroke-linecap:butt;stroke-linejoin:miter;stroke-opacity:1"/>
<path class="bond-8 atom-7 atom-9" d="M 52.3,61.5 L 45.4,38.7" style="fill:none;fill-rule:evenodd;stroke:#FF0000;stroke-width:2.0px;stroke-linecap:butt;stroke-linejoin:miter;stroke-opacity:1"/>
<path d="M 103.2,151.9 L 102.5,154.8 L 101.4,155.1" style="fill:none;stroke:#000000;stroke-width:2.0px;stroke-linecap:butt;stroke-linejoin:miter;stroke-opacity:1;"/>
<path d="M 61.9,85.0 L 59.1,84.3 L 58.7,83.1" style="fill:none;stroke:#000000;stroke-width:2.0px;stroke-linecap:butt;stroke-linejoin:miter;stroke-opacity:1;"/>
<path class="atom-2" d="M 182.2 167.5 Q 182.2 163.5, 184.2 161.3 Q 186.2 159.1, 189.8 159.1 Q 193.5 159.1, 195.5 161.3 Q 197.4 163.5, 197.4 167.5 Q 197.4 171.5, 195.5 173.8 Q 193.5 176.1, 189.8 176.1 Q 186.2 176.1, 184.2 173.8 Q 182.2 171.5, 182.2 167.5 M 189.8 174.2 Q 192.4 174.2, 193.7 172.5 Q 195.1 170.8, 195.1 167.5 Q 195.1 164.2, 193.7 162.6 Q 192.4 160.9, 189.8 160.9 Q 187.3 160.9, 185.9 162.6 Q 184.6 164.2, 184.6 167.5 Q 184.6 170.8, 185.9 172.5 Q 187.3 174.2, 189.8 174.2 " fill="#FF0000"/>
<path class="atom-2" d="M 200.0 159.2 L 202.3 159.2 L 202.3 166.3 L 210.8 166.3 L 210.8 159.2 L 213.0 159.2 L 213.0 175.8 L 210.8 175.8 L 210.8 168.2 L 202.3 168.2 L 202.3 175.8 L 200.0 175.8 L 200.0 159.2 " fill="#FF0000"/>
<path class="atom-6" d="M 22.4 163.4 L 24.7 163.4 L 24.7 170.4 L 33.2 170.4 L 33.2 163.4 L 35.4 163.4 L 35.4 180.0 L 33.2 180.0 L 33.2 172.3 L 24.7 172.3 L 24.7 180.0 L 22.4 180.0 L 22.4 163.4 " fill="#FF0000"/>
<path class="atom-6" d="M 38.8 171.6 Q 38.8 167.6, 40.8 165.4 Q 42.7 163.2, 46.4 163.2 Q 50.1 163.2, 52.1 165.4 Q 54.0 167.6, 54.0 171.6 Q 54.0 175.7, 52.0 177.9 Q 50.1 180.2, 46.4 180.2 Q 42.8 180.2, 40.8 177.9 Q 38.8 175.7, 38.8 171.6 M 46.4 178.3 Q 49.0 178.3, 50.3 176.7 Q 51.7 174.9, 51.7 171.6 Q 51.7 168.4, 50.3 166.7 Q 49.0 165.1, 46.4 165.1 Q 43.9 165.1, 42.5 166.7 Q 41.1 168.3, 41.1 171.6 Q 41.1 175.0, 42.5 176.7 Q 43.9 178.3, 46.4 178.3 " fill="#FF0000"/>
<path class="atom-8" d="M 11.2 126.9 Q 11.2 122.9, 13.2 120.7 Q 15.2 118.5, 18.9 118.5 Q 22.5 118.5, 24.5 120.7 Q 26.5 122.9, 26.5 126.9 Q 26.5 131.0, 24.5 133.2 Q 22.5 135.5, 18.9 135.5 Q 15.2 135.5, 13.2 133.2 Q 11.2 131.0, 11.2 126.9 M 18.9 133.6 Q 21.4 133.6, 22.8 132.0 Q 24.1 130.2, 24.1 126.9 Q 24.1 123.7, 22.8 122.0 Q 21.4 120.4, 18.9 120.4 Q 16.3 120.4, 15.0 122.0 Q 13.6 123.6, 13.6 126.9 Q 13.6 130.3, 15.0 132.0 Q 16.3 133.6, 18.9 133.6 " fill="#FF0000"/>
<path class="atom-9" d="M 34.7 28.2 Q 34.7 24.2, 36.6 22.0 Q 38.6 19.8, 42.3 19.8 Q 46.0 19.8, 47.9 22.0 Q 49.9 24.2, 49.9 28.2 Q 49.9 32.2, 47.9 34.5 Q 45.9 36.8, 42.3 36.8 Q 38.6 36.8, 36.6 34.5 Q 34.7 32.3, 34.7 28.2 M 42.3 34.9 Q 44.8 34.9, 46.2 33.3 Q 47.6 31.5, 47.6 28.2 Q 47.6 25.0, 46.2 23.3 Q 44.8 21.7, 42.3 21.7 Q 39.8 21.7, 38.4 23.3 Q 37.0 24.9, 37.0 28.2 Q 37.0 31.6, 38.4 33.3 Q 39.8 34.9, 42.3 34.9 " fill="#FF0000"/>
<path class="atom-9" d="M 52.5 20.0 L 54.7 20.0 L 54.7 27.0 L 63.2 27.0 L 63.2 20.0 L 65.5 20.0 L 65.5 36.6 L 63.2 36.6 L 63.2 28.9 L 54.7 28.9 L 54.7 36.6 L 52.5 36.6 L 52.5 20.0 " fill="#FF0000"/>
</g>
    <g transform="translate(615.0, 0) scale(1 1) "><line x1="15" y1="100" x2="25" y2="100" style="stroke:rgb(0,0,0);stroke-width:2"/>
  <line x1="20" y1="95" x2="20" y2="105" style="stroke:rgb(0,0,0);stroke-width:2"/>
</g>
    <g transform="translate(655.0, 0) scale(1 1) "><!-- END OF HEADER -->
<rect style="opacity:1.0;fill:#FFFFFF;stroke:none" width="85.0" height="200.0" x="0.0" y="0.0"> </rect>
<path class="bond-0 atom-0 atom-1" d="M 28.4,99.9 L 56.7,99.9" style="fill:none;fill-rule:evenodd;stroke:#FF0000;stroke-width:2.0px;stroke-linecap:butt;stroke-linejoin:miter;stroke-opacity:1"/>
<path class="atom-0" d="M 4.2 94.0 L 5.9 94.0 L 5.9 99.1 L 12.0 99.1 L 12.0 94.0 L 13.6 94.0 L 13.6 105.9 L 12.0 105.9 L 12.0 100.4 L 5.9 100.4 L 5.9 105.9 L 4.2 105.9 L 4.2 94.0 " fill="#FF0000"/>
<path class="atom-0" d="M 16.0 99.9 Q 16.0 97.1, 17.4 95.5 Q 18.9 93.9, 21.5 93.9 Q 24.1 93.9, 25.6 95.5 Q 27.0 97.1, 27.0 99.9 Q 27.0 102.8, 25.5 104.5 Q 24.1 106.1, 21.5 106.1 Q 18.9 106.1, 17.4 104.5 Q 16.0 102.9, 16.0 99.9 M 21.5 104.8 Q 23.3 104.8, 24.3 103.6 Q 25.3 102.3, 25.3 99.9 Q 25.3 97.6, 24.3 96.4 Q 23.3 95.2, 21.5 95.2 Q 19.7 95.2, 18.7 96.4 Q 17.7 97.6, 17.7 99.9 Q 17.7 102.3, 18.7 103.6 Q 19.7 104.8, 21.5 104.8 " fill="#FF0000"/>
<path class="atom-1" d="M 58.1 99.9 Q 58.1 97.1, 59.5 95.5 Q 60.9 93.9, 63.6 93.9 Q 66.2 93.9, 67.7 95.5 Q 69.1 97.1, 69.1 99.9 Q 69.1 102.8, 67.6 104.5 Q 66.2 106.1, 63.6 106.1 Q 61.0 106.1, 59.5 104.5 Q 58.1 102.9, 58.1 99.9 M 63.6 104.8 Q 65.4 104.8, 66.4 103.6 Q 67.4 102.3, 67.4 99.9 Q 67.4 97.6, 66.4 96.4 Q 65.4 95.2, 63.6 95.2 Q 61.8 95.2, 60.8 96.4 Q 59.8 97.6, 59.8 99.9 Q 59.8 102.3, 60.8 103.6 Q 61.8 104.8, 63.6 104.8 " fill="#FF0000"/>
<path class="atom-1" d="M 70.9 94.0 L 72.5 94.0 L 72.5 99.1 L 78.6 99.1 L 78.6 94.0 L 80.2 94.0 L 80.2 105.9 L 78.6 105.9 L 78.6 100.4 L 72.5 100.4 L 72.5 105.9 L 70.9 105.9 L 70.9 94.0 " fill="#FF0000"/>
</g>
  </g>
</svg>
