<?xml version='1.0' encoding='ASCII' standalone='yes'?>
<svg xmlns="http://www.w3.org/2000/svg" xmlns:xlink="http://www.w3.org/1999/xlink" version="1.1" width="870.0px" viewBox="0 0 870.0 200.0" height="200.0px">
  <g>
    <g transform="translate(0, 0) scale(1 1) "><!-- END OF HEADER -->
<rect style="opacity:1.0;fill:#FFFFFF;stroke:none" width="271.0" height="200.0" x="0.0" y="0.0"> </rect>
<path class="bond-0 atom-0 atom-1" d="M 174.9,25.7 L 199.1,56.1" style="fill:none;fill-rule:evenodd;stroke:#000000;stroke-width:2.0px;stroke-linecap:butt;stroke-linejoin:miter;stroke-opacity:1"/>
<path class="bond-1 atom-1 atom-2" d="M 199.1,56.1 L 184.9,92.3" style="fill:none;fill-rule:evenodd;stroke:#000000;stroke-width:2.0px;stroke-linecap:butt;stroke-linejoin:miter;stroke-opacity:1"/>
<path class="bond-2 atom-2 atom-3" d="M 184.9,92.3 L 170.7,128.5" style="fill:none;fill-rule:evenodd;stroke:#000000;stroke-width:2.0px;stroke-linecap:butt;stroke-linejoin:miter;stroke-opacity:1"/>
<path class="bond-3 atom-2 atom-4" d="M 184.9,92.3 L 148.7,78.1" style="fill:none;fill-rule:evenodd;stroke:#000000;stroke-width:2.0px;stroke-linecap:butt;stroke-linejoin:miter;stroke-opacity:1"/>
<path class="bond-4 atom-4 atom-5" d="M 148.7,78.1 L 118.3,102.3" style="fill:none;fill-rule:evenodd;stroke:#000000;stroke-width:2.0px;stroke-linecap:butt;stroke-linejoin:miter;stroke-opacity:1"/>
<path class="bond-5 atom-5 atom-6" d="M 118.3,102.3 L 82.1,88.1" style="fill:none;fill-rule:evenodd;stroke:#000000;stroke-width:2.0px;stroke-linecap:butt;stroke-linejoin:miter;stroke-opacity:1"/>
<path class="bond-6 atom-6 atom-7" d="M 82.1,88.1 L 45.9,73.9" style="fill:none;fill-rule:evenodd;stroke:#000000;stroke-width:2.0px;stroke-linecap:butt;stroke-linejoin:miter;stroke-opacity:1"/>
<path class="bond-7 atom-6 atom-8" d="M 82.1,88.1 L 67.9,124.3" style="fill:none;fill-rule:evenodd;stroke:#000000;stroke-width:2.0px;stroke-linecap:butt;stroke-linejoin:miter;stroke-opacity:1"/>
<path class="bond-8 atom-8 atom-9" d="M 64.6,124.8 L 74.5,137.3" style="fill:none;fill-rule:evenodd;stroke:#000000;stroke-width:2.0px;stroke-linecap:butt;stroke-linejoin:miter;stroke-opacity:1"/>
<path class="bond-8 atom-8 atom-9" d="M 74.5,137.3 L 84.4,149.7" style="fill:none;fill-rule:evenodd;stroke:#FF0000;stroke-width:2.0px;stroke-linecap:butt;stroke-linejoin:miter;stroke-opacity:1"/>
<path class="bond-8 atom-8 atom-9" d="M 69.2,121.2 L 79.1,133.6" style="fill:none;fill-rule:evenodd;stroke:#000000;stroke-width:2.0px;stroke-linecap:butt;stroke-linejoin:miter;stroke-opacity:1"/>
<path class="bond-8 atom-8 atom-9" d="M 79.1,133.6 L 89.0,146.1" style="fill:none;fill-rule:evenodd;stroke:#FF0000;stroke-width:2.0px;stroke-linecap:butt;stroke-linejoin:miter;stroke-opacity:1"/>
<path class="bond-9 atom-8 atom-10" d="M 67.9,124.3 L 51.9,126.7" style="fill:none;fill-rule:evenodd;stroke:#000000;stroke-width:2.0px;stroke-linecap:butt;stroke-linejoin:miter;stroke-opacity:1"/>
<path class="bond-9 atom-8 atom-10" d="M 51.9,126.7 L 35.8,129.2" style="fill:none;fill-rule:evenodd;stroke:#FF0000;stroke-width:2.0px;stroke-linecap:butt;stroke-linejoin:miter;stroke-opacity:1"/>
<path class="bond-10 atom-6 atom-11" d="M 82.1,88.1 L 96.3,51.9" style="fill:none;fill-rule:evenodd;stroke:#000000;stroke-width:2.0px;stroke-linecap:butt;stroke-linejoin:miter;stroke-opacity:1"/>
<path class="bond-11 atom-11 atom-12" d="M 96.3,51.9 L 72.1,21.5" style="fill:none;fill-rule:evenodd;stroke:#000000;stroke-width:2.0px;stroke-linecap:butt;stroke-linejoin:miter;stroke-opacity:1"/>
<path class="bond-12 atom-11 atom-13" d="M 96.3,51.9 L 112.4,49.5" style="fill:none;fill-rule:evenodd;stroke:#000000;stroke-width:2.0px;stroke-linecap:butt;stroke-linejoin:miter;stroke-opacity:1"/>
<path class="bond-12 atom-11 atom-13" d="M 112.4,49.5 L 128.4,47.1" style="fill:none;fill-rule:evenodd;stroke:#FF0000;stroke-width:2.0px;stroke-linecap:butt;stroke-linejoin:miter;stroke-opacity:1"/>
<path class="bond-13 atom-2 atom-14" d="M 184.9,92.3 L 221.1,106.5" style="fill:none;fill-rule:evenodd;stroke:#000000;stroke-width:2.0px;stroke-linecap:butt;stroke-linejoin:miter;stroke-opacity:1"/>
<path class="bond-14 atom-14 atom-15" d="M 221.6,109.9 L 234.3,99.7" style="fill:none;fill-rule:evenodd;stroke:#000000;stroke-width:2.0px;stroke-linecap:butt;stroke-linejoin:miter;stroke-opacity:1"/>
<path class="bond-14 atom-14 atom-15" d="M 234.3,99.7 L 247.0,89.6" style="fill:none;fill-rule:evenodd;stroke:#FF0000;stroke-width:2.0px;stroke-linecap:butt;stroke-linejoin:miter;stroke-opacity:1"/>
<path class="bond-14 atom-14 atom-15" d="M 218.0,105.3 L 230.7,95.2" style="fill:none;fill-rule:evenodd;stroke:#000000;stroke-width:2.0px;stroke-linecap:butt;stroke-linejoin:miter;stroke-opacity:1"/>
<path class="bond-14 atom-14 atom-15" d="M 230.7,95.2 L 243.3,85.1" style="fill:none;fill-rule:evenodd;stroke:#FF0000;stroke-width:2.0px;stroke-linecap:butt;stroke-linejoin:miter;stroke-opacity:1"/>
<path class="bond-15 atom-14 atom-16" d="M 221.1,106.5 L 223.5,122.3" style="fill:none;fill-rule:evenodd;stroke:#000000;stroke-width:2.0px;stroke-linecap:butt;stroke-linejoin:miter;stroke-opacity:1"/>
<path class="bond-15 atom-14 atom-16" d="M 223.5,122.3 L 225.9,138.1" style="fill:none;fill-rule:evenodd;stroke:#FF0000;stroke-width:2.0px;stroke-linecap:butt;stroke-linejoin:miter;stroke-opacity:1"/>
<path d="M 197.9,54.6 L 199.1,56.1 L 198.4,57.9" style="fill:none;stroke:#000000;stroke-width:2.0px;stroke-linecap:butt;stroke-linejoin:miter;stroke-opacity:1;"/>
<path d="M 150.5,78.8 L 148.7,78.1 L 147.2,79.3" style="fill:none;stroke:#000000;stroke-width:2.0px;stroke-linecap:butt;stroke-linejoin:miter;stroke-opacity:1;"/>
<path d="M 119.8,101.1 L 118.3,102.3 L 116.5,101.6" style="fill:none;stroke:#000000;stroke-width:2.0px;stroke-linecap:butt;stroke-linejoin:miter;stroke-opacity:1;"/>
<path d="M 68.6,122.5 L 67.9,124.3 L 67.1,124.4" style="fill:none;stroke:#000000;stroke-width:2.0px;stroke-linecap:butt;stroke-linejoin:miter;stroke-opacity:1;"/>
<path d="M 219.3,105.8 L 221.1,106.5 L 221.2,107.3" style="fill:none;stroke:#000000;stroke-width:2.0px;stroke-linecap:butt;stroke-linejoin:miter;stroke-opacity:1;"/>
<path class="atom-9" d="M 87.1 154.7 Q 87.1 152.1, 88.4 150.6 Q 89.7 149.2, 92.2 149.2 Q 94.6 149.2, 95.9 150.6 Q 97.2 152.1, 97.2 154.7 Q 97.2 157.4, 95.9 158.9 Q 94.6 160.5, 92.2 160.5 Q 89.7 160.5, 88.4 158.9 Q 87.1 157.4, 87.1 154.7 M 92.2 159.2 Q 93.8 159.2, 94.7 158.1 Q 95.7 157.0, 95.7 154.7 Q 95.7 152.6, 94.7 151.5 Q 93.8 150.4, 92.2 150.4 Q 90.5 150.4, 89.6 151.5 Q 88.7 152.6, 88.7 154.7 Q 88.7 157.0, 89.6 158.1 Q 90.5 159.2, 92.2 159.2 " fill="#FF0000"/>
<path class="atom-10" d="M 13.5 124.7 L 15.0 124.7 L 15.0 129.3 L 20.7 129.3 L 20.7 124.7 L 22.2 124.7 L 22.2 135.7 L 20.7 135.7 L 20.7 130.6 L 15.0 130.6 L 15.0 135.7 L 13.5 135.7 L 13.5 124.7 " fill="#FF0000"/>
<path class="atom-10" d="M 24.4 130.1 Q 24.4 127.5, 25.7 126.0 Q 27.0 124.5, 29.5 124.5 Q 31.9 124.5, 33.2 126.0 Q 34.5 127.5, 34.5 130.1 Q 34.5 132.8, 33.2 134.3 Q 31.9 135.8, 29.5 135.8 Q 27.1 135.8, 25.7 134.3 Q 24.4 132.8, 24.4 130.1 M 29.5 134.6 Q 31.2 134.6, 32.1 133.5 Q 33.0 132.3, 33.0 130.1 Q 33.0 128.0, 32.1 126.9 Q 31.2 125.8, 29.5 125.8 Q 27.8 125.8, 26.9 126.9 Q 26.0 128.0, 26.0 130.1 Q 26.0 132.4, 26.9 133.5 Q 27.8 134.6, 29.5 134.6 " fill="#FF0000"/>
<path class="atom-13" d="M 129.7 46.2 Q 129.7 43.5, 131.0 42.1 Q 132.3 40.6, 134.8 40.6 Q 137.2 40.6, 138.5 42.1 Q 139.8 43.5, 139.8 46.2 Q 139.8 48.9, 138.5 50.4 Q 137.2 51.9, 134.8 51.9 Q 132.4 51.9, 131.0 50.4 Q 129.7 48.9, 129.7 46.2 M 134.8 50.6 Q 136.5 50.6, 137.4 49.5 Q 138.3 48.4, 138.3 46.2 Q 138.3 44.0, 137.4 42.9 Q 136.5 41.8, 134.8 41.8 Q 133.1 41.8, 132.2 42.9 Q 131.3 44.0, 131.3 46.2 Q 131.3 48.4, 132.2 49.5 Q 133.1 50.6, 134.8 50.6 " fill="#FF0000"/>
<path class="atom-13" d="M 141.6 40.7 L 143.0 40.7 L 143.0 45.4 L 148.7 45.4 L 148.7 40.7 L 150.2 40.7 L 150.2 51.7 L 148.7 51.7 L 148.7 46.6 L 143.0 46.6 L 143.0 51.7 L 141.6 51.7 L 141.6 40.7 " fill="#FF0000"/>
<path class="atom-15" d="M 246.4 82.3 Q 246.4 79.7, 247.7 78.2 Q 249.1 76.7, 251.5 76.7 Q 253.9 76.7, 255.2 78.2 Q 256.6 79.7, 256.6 82.3 Q 256.6 85.0, 255.2 86.5 Q 253.9 88.0, 251.5 88.0 Q 249.1 88.0, 247.7 86.5 Q 246.4 85.0, 246.4 82.3 M 251.5 86.8 Q 253.2 86.8, 254.1 85.7 Q 255.0 84.5, 255.0 82.3 Q 255.0 80.2, 254.1 79.1 Q 253.2 78.0, 251.5 78.0 Q 249.8 78.0, 248.9 79.1 Q 248.0 80.1, 248.0 82.3 Q 248.0 84.5, 248.9 85.7 Q 249.8 86.8, 251.5 86.8 " fill="#FF0000"/>
<path class="atom-16" d="M 221.8 145.0 Q 221.8 142.4, 223.1 140.9 Q 224.4 139.4, 226.9 139.4 Q 229.3 139.4, 230.6 140.9 Q 231.9 142.4, 231.9 145.0 Q 231.9 147.7, 230.6 149.2 Q 229.3 150.7, 226.9 150.7 Q 224.5 150.7, 223.1 149.2 Q 221.8 147.7, 221.8 145.0 M 226.9 149.5 Q 228.6 149.5, 229.5 148.3 Q 230.4 147.2, 230.4 145.0 Q 230.4 142.8, 229.5 141.8 Q 228.6 140.6, 226.9 140.6 Q 225.2 140.6, 224.3 141.7 Q 223.4 142.8, 223.4 145.0 Q 223.4 147.2, 224.3 148.3 Q 225.2 149.5, 226.9 149.5 " fill="#FF0000"/>
<path class="atom-16" d="M 233.7 139.5 L 235.1 139.5 L 235.1 144.2 L 240.8 144.2 L 240.8 139.5 L 242.3 139.5 L 242.3 150.5 L 240.8 150.5 L 240.8 145.5 L 235.1 145.5 L 235.1 150.5 L 233.7 150.5 L 233.7 139.5 " fill="#FF0000"/>
<path class="legend" d="M 126.0 181.9 Q 126.0 179.6, 126.7 177.7 Q 127.4 175.8, 128.7 173.8 L 129.6 174.4 Q 128.5 176.3, 128.0 178.0 Q 127.5 179.7, 127.5 181.9 Q 127.5 184.0, 128.0 185.8 Q 128.5 187.5, 129.6 189.4 L 128.7 190.0 Q 127.4 188.0, 126.7 186.1 Q 126.0 184.2, 126.0 181.9 " fill="#000000"/>
<path class="legend" d="M 130.5 177.3 Q 130.9 176.2, 131.9 175.6 Q 132.9 175.0, 134.3 175.0 Q 136.0 175.0, 136.9 175.9 Q 137.9 176.8, 137.9 178.5 Q 137.9 180.2, 136.6 181.7 Q 135.4 183.3, 132.9 185.2 L 138.1 185.2 L 138.1 186.4 L 130.5 186.4 L 130.5 185.4 Q 132.6 183.9, 133.8 182.8 Q 135.1 181.6, 135.7 180.6 Q 136.3 179.6, 136.3 178.6 Q 136.3 177.5, 135.8 176.9 Q 135.2 176.3, 134.3 176.3 Q 133.3 176.3, 132.7 176.6 Q 132.1 177.0, 131.7 177.8 L 130.5 177.3 " fill="#000000"/>
<path class="legend" d="M 143.1 181.9 Q 143.1 184.2, 142.4 186.1 Q 141.7 188.0, 140.4 190.0 L 139.5 189.4 Q 140.6 187.5, 141.1 185.8 Q 141.6 184.0, 141.6 181.9 Q 141.6 179.7, 141.1 178.0 Q 140.6 176.3, 139.5 174.4 L 140.4 173.8 Q 141.7 175.8, 142.4 177.7 Q 143.1 179.6, 143.1 181.9 " fill="#000000"/>
</g>
    <g transform="translate(271.0, 0) scale(1 1) "><line x1="5" y1="100" x2="35" y2="100" style="stroke:rgb(0,0,0);stroke-width:2"/>
  <line x1="34" y1="100" x2="29" y2="95" style="stroke:rgb(0,0,0);stroke-width:2"/>
  <line x1="34" y1="100" x2="29" y2="105" style="stroke:rgb(0,0,0);stroke-width:2"/>
</g>
    <g transform="translate(311.0, 0) scale(1 1) "><!-- END OF HEADER -->
<rect style="opacity:1.0;fill:#FFFFFF;stroke:none" width="304.0" height="200.0" x="0.0" y="0.0"> </rect>
<path class="bond-0 atom-0 atom-1" d="M 245.8,67.8 L 247.7,101.5" style="fill:none;fill-rule:evenodd;stroke:#000000;stroke-width:2.0px;stroke-linecap:butt;stroke-linejoin:miter;stroke-opacity:1"/>
<path class="bond-1 atom-1 atom-2" d="M 247.7,101.5 L 219.4,120.0" style="fill:none;fill-rule:evenodd;stroke:#000000;stroke-width:2.0px;stroke-linecap:butt;stroke-linejoin:miter;stroke-opacity:1"/>
<path class="bond-2 atom-2 atom-3" d="M 219.4,120.0 L 191.1,138.5" style="fill:none;fill-rule:evenodd;stroke:#000000;stroke-width:2.0px;stroke-linecap:butt;stroke-linejoin:miter;stroke-opacity:1"/>
<path class="bond-3 atom-2 atom-4" d="M 219.4,120.0 L 200.9,91.7" style="fill:none;fill-rule:evenodd;stroke:#000000;stroke-width:2.0px;stroke-linecap:butt;stroke-linejoin:miter;stroke-opacity:1"/>
<path class="bond-4 atom-4 atom-5" d="M 200.9,91.7 L 167.1,93.5" style="fill:none;fill-rule:evenodd;stroke:#000000;stroke-width:2.0px;stroke-linecap:butt;stroke-linejoin:miter;stroke-opacity:1"/>
<path class="bond-5 atom-5 atom-6" d="M 167.1,93.5 L 148.7,65.2" style="fill:none;fill-rule:evenodd;stroke:#000000;stroke-width:2.0px;stroke-linecap:butt;stroke-linejoin:miter;stroke-opacity:1"/>
<path class="bond-6 atom-6 atom-7" d="M 148.7,65.2 L 114.9,67.1" style="fill:none;fill-rule:evenodd;stroke:#000000;stroke-width:2.0px;stroke-linecap:butt;stroke-linejoin:miter;stroke-opacity:1"/>
<path class="bond-7 atom-7 atom-8" d="M 114.9,67.1 L 81.2,68.9" style="fill:none;fill-rule:evenodd;stroke:#000000;stroke-width:2.0px;stroke-linecap:butt;stroke-linejoin:miter;stroke-opacity:1"/>
<path class="bond-8 atom-7 atom-9" d="M 114.9,67.1 L 116.8,100.8" style="fill:none;fill-rule:evenodd;stroke:#000000;stroke-width:2.0px;stroke-linecap:butt;stroke-linejoin:miter;stroke-opacity:1"/>
<path class="bond-9 atom-9 atom-10" d="M 116.8,100.8 L 88.5,119.3" style="fill:none;fill-rule:evenodd;stroke:#000000;stroke-width:2.0px;stroke-linecap:butt;stroke-linejoin:miter;stroke-opacity:1"/>
<path class="bond-10 atom-10 atom-11" d="M 88.5,119.3 L 90.3,153.0" style="fill:none;fill-rule:evenodd;stroke:#000000;stroke-width:2.0px;stroke-linecap:butt;stroke-linejoin:miter;stroke-opacity:1"/>
<path class="bond-11 atom-11 atom-12" d="M 90.3,153.0 L 92.1,186.8" style="fill:none;fill-rule:evenodd;stroke:#000000;stroke-width:2.0px;stroke-linecap:butt;stroke-linejoin:miter;stroke-opacity:1"/>
<path class="bond-12 atom-11 atom-13" d="M 90.3,153.0 L 56.6,154.9" style="fill:none;fill-rule:evenodd;stroke:#000000;stroke-width:2.0px;stroke-linecap:butt;stroke-linejoin:miter;stroke-opacity:1"/>
<path class="bond-13 atom-13 atom-14" d="M 59.5,154.7 L 51.8,143.0" style="fill:none;fill-rule:evenodd;stroke:#000000;stroke-width:2.0px;stroke-linecap:butt;stroke-linejoin:miter;stroke-opacity:1"/>
<path class="bond-13 atom-13 atom-14" d="M 51.8,143.0 L 44.2,131.3" style="fill:none;fill-rule:evenodd;stroke:#FF0000;stroke-width:2.0px;stroke-linecap:butt;stroke-linejoin:miter;stroke-opacity:1"/>
<path class="bond-13 atom-13 atom-14" d="M 55.2,157.5 L 47.6,145.8" style="fill:none;fill-rule:evenodd;stroke:#000000;stroke-width:2.0px;stroke-linecap:butt;stroke-linejoin:miter;stroke-opacity:1"/>
<path class="bond-13 atom-13 atom-14" d="M 47.6,145.8 L 39.9,134.0" style="fill:none;fill-rule:evenodd;stroke:#FF0000;stroke-width:2.0px;stroke-linecap:butt;stroke-linejoin:miter;stroke-opacity:1"/>
<path class="bond-14 atom-13 atom-15" d="M 56.6,154.9 L 50.4,167.0" style="fill:none;fill-rule:evenodd;stroke:#000000;stroke-width:2.0px;stroke-linecap:butt;stroke-linejoin:miter;stroke-opacity:1"/>
<path class="bond-14 atom-13 atom-15" d="M 50.4,167.0 L 44.3,179.1" style="fill:none;fill-rule:evenodd;stroke:#FF0000;stroke-width:2.0px;stroke-linecap:butt;stroke-linejoin:miter;stroke-opacity:1"/>
<path class="bond-15 atom-11 atom-16" d="M 90.3,153.0 L 124.1,151.2" style="fill:none;fill-rule:evenodd;stroke:#000000;stroke-width:2.0px;stroke-linecap:butt;stroke-linejoin:miter;stroke-opacity:1"/>
<path class="bond-16 atom-16 atom-17" d="M 124.1,151.2 L 142.5,179.5" style="fill:none;fill-rule:evenodd;stroke:#000000;stroke-width:2.0px;stroke-linecap:butt;stroke-linejoin:miter;stroke-opacity:1"/>
<path class="bond-17 atom-16 atom-18" d="M 124.1,151.2 L 130.1,139.2" style="fill:none;fill-rule:evenodd;stroke:#000000;stroke-width:2.0px;stroke-linecap:butt;stroke-linejoin:miter;stroke-opacity:1"/>
<path class="bond-17 atom-16 atom-18" d="M 130.1,139.2 L 136.2,127.1" style="fill:none;fill-rule:evenodd;stroke:#FF0000;stroke-width:2.0px;stroke-linecap:butt;stroke-linejoin:miter;stroke-opacity:1"/>
<path class="bond-18 atom-7 atom-19" d="M 114.9,67.1 L 113.1,33.3" style="fill:none;fill-rule:evenodd;stroke:#000000;stroke-width:2.0px;stroke-linecap:butt;stroke-linejoin:miter;stroke-opacity:1"/>
<path class="bond-19 atom-19 atom-20" d="M 113.2,36.2 L 125.3,28.4" style="fill:none;fill-rule:evenodd;stroke:#000000;stroke-width:2.0px;stroke-linecap:butt;stroke-linejoin:miter;stroke-opacity:1"/>
<path class="bond-19 atom-19 atom-20" d="M 125.3,28.4 L 137.3,20.6" style="fill:none;fill-rule:evenodd;stroke:#FF0000;stroke-width:2.0px;stroke-linecap:butt;stroke-linejoin:miter;stroke-opacity:1"/>
<path class="bond-19 atom-19 atom-20" d="M 110.5,32.0 L 122.5,24.1" style="fill:none;fill-rule:evenodd;stroke:#000000;stroke-width:2.0px;stroke-linecap:butt;stroke-linejoin:miter;stroke-opacity:1"/>
<path class="bond-19 atom-19 atom-20" d="M 122.5,24.1 L 134.5,16.3" style="fill:none;fill-rule:evenodd;stroke:#FF0000;stroke-width:2.0px;stroke-linecap:butt;stroke-linejoin:miter;stroke-opacity:1"/>
<path class="bond-20 atom-19 atom-21" d="M 113.1,33.3 L 100.8,27.1" style="fill:none;fill-rule:evenodd;stroke:#000000;stroke-width:2.0px;stroke-linecap:butt;stroke-linejoin:miter;stroke-opacity:1"/>
<path class="bond-20 atom-19 atom-21" d="M 100.8,27.1 L 88.4,20.8" style="fill:none;fill-rule:evenodd;stroke:#FF0000;stroke-width:2.0px;stroke-linecap:butt;stroke-linejoin:miter;stroke-opacity:1"/>
<path class="bond-21 atom-2 atom-22" d="M 219.4,120.0 L 237.8,148.3" style="fill:none;fill-rule:evenodd;stroke:#000000;stroke-width:2.0px;stroke-linecap:butt;stroke-linejoin:miter;stroke-opacity:1"/>
<path class="bond-22 atom-22 atom-23" d="M 236.5,150.9 L 251.4,150.1" style="fill:none;fill-rule:evenodd;stroke:#000000;stroke-width:2.0px;stroke-linecap:butt;stroke-linejoin:miter;stroke-opacity:1"/>
<path class="bond-22 atom-22 atom-23" d="M 251.4,150.1 L 266.2,149.3" style="fill:none;fill-rule:evenodd;stroke:#FF0000;stroke-width:2.0px;stroke-linecap:butt;stroke-linejoin:miter;stroke-opacity:1"/>
<path class="bond-22 atom-22 atom-23" d="M 236.2,145.8 L 251.1,145.0" style="fill:none;fill-rule:evenodd;stroke:#000000;stroke-width:2.0px;stroke-linecap:butt;stroke-linejoin:miter;stroke-opacity:1"/>
<path class="bond-22 atom-22 atom-23" d="M 251.1,145.0 L 265.9,144.2" style="fill:none;fill-rule:evenodd;stroke:#FF0000;stroke-width:2.0px;stroke-linecap:butt;stroke-linejoin:miter;stroke-opacity:1"/>
<path class="bond-23 atom-22 atom-24" d="M 237.8,148.3 L 231.7,160.4" style="fill:none;fill-rule:evenodd;stroke:#000000;stroke-width:2.0px;stroke-linecap:butt;stroke-linejoin:miter;stroke-opacity:1"/>
<path class="bond-23 atom-22 atom-24" d="M 231.7,160.4 L 225.6,172.5" style="fill:none;fill-rule:evenodd;stroke:#FF0000;stroke-width:2.0px;stroke-linecap:butt;stroke-linejoin:miter;stroke-opacity:1"/>
<path d="M 247.6,99.8 L 247.7,101.5 L 246.3,102.4" style="fill:none;stroke:#000000;stroke-width:2.0px;stroke-linecap:butt;stroke-linejoin:miter;stroke-opacity:1;"/>
<path d="M 201.8,93.1 L 200.9,91.7 L 199.2,91.8" style="fill:none;stroke:#000000;stroke-width:2.0px;stroke-linecap:butt;stroke-linejoin:miter;stroke-opacity:1;"/>
<path d="M 168.8,93.4 L 167.1,93.5 L 166.2,92.1" style="fill:none;stroke:#000000;stroke-width:2.0px;stroke-linecap:butt;stroke-linejoin:miter;stroke-opacity:1;"/>
<path d="M 149.6,66.6 L 148.7,65.2 L 147.0,65.3" style="fill:none;stroke:#000000;stroke-width:2.0px;stroke-linecap:butt;stroke-linejoin:miter;stroke-opacity:1;"/>
<path d="M 116.7,99.1 L 116.8,100.8 L 115.4,101.7" style="fill:none;stroke:#000000;stroke-width:2.0px;stroke-linecap:butt;stroke-linejoin:miter;stroke-opacity:1;"/>
<path d="M 89.9,118.4 L 88.5,119.3 L 88.6,121.0" style="fill:none;stroke:#000000;stroke-width:2.0px;stroke-linecap:butt;stroke-linejoin:miter;stroke-opacity:1;"/>
<path d="M 58.2,154.8 L 56.6,154.9 L 56.2,155.5" style="fill:none;stroke:#000000;stroke-width:2.0px;stroke-linecap:butt;stroke-linejoin:miter;stroke-opacity:1;"/>
<path d="M 113.2,35.0 L 113.1,33.3 L 112.5,33.0" style="fill:none;stroke:#000000;stroke-width:2.0px;stroke-linecap:butt;stroke-linejoin:miter;stroke-opacity:1;"/>
<path d="M 236.9,146.9 L 237.8,148.3 L 237.5,148.9" style="fill:none;stroke:#000000;stroke-width:2.0px;stroke-linecap:butt;stroke-linejoin:miter;stroke-opacity:1;"/>
<path class="atom-14" d="M 33.7 126.6 Q 33.7 124.3, 34.8 123.0 Q 36.0 121.7, 38.1 121.7 Q 40.2 121.7, 41.3 123.0 Q 42.5 124.3, 42.5 126.6 Q 42.5 128.9, 41.3 130.2 Q 40.2 131.5, 38.1 131.5 Q 36.0 131.5, 34.8 130.2 Q 33.7 128.9, 33.7 126.6 M 38.1 130.5 Q 39.5 130.5, 40.3 129.5 Q 41.1 128.5, 41.1 126.6 Q 41.1 124.7, 40.3 123.8 Q 39.5 122.8, 38.1 122.8 Q 36.6 122.8, 35.8 123.7 Q 35.0 124.7, 35.0 126.6 Q 35.0 128.5, 35.8 129.5 Q 36.6 130.5, 38.1 130.5 " fill="#FF0000"/>
<path class="atom-15" d="M 27.4 180.3 L 28.7 180.3 L 28.7 184.3 L 33.6 184.3 L 33.6 180.3 L 34.9 180.3 L 34.9 189.9 L 33.6 189.9 L 33.6 185.4 L 28.7 185.4 L 28.7 189.9 L 27.4 189.9 L 27.4 180.3 " fill="#FF0000"/>
<path class="atom-15" d="M 36.9 185.0 Q 36.9 182.7, 38.0 181.5 Q 39.2 180.2, 41.3 180.2 Q 43.4 180.2, 44.5 181.5 Q 45.7 182.7, 45.7 185.0 Q 45.7 187.4, 44.5 188.7 Q 43.4 190.0, 41.3 190.0 Q 39.2 190.0, 38.0 188.7 Q 36.9 187.4, 36.9 185.0 M 41.3 188.9 Q 42.7 188.9, 43.5 187.9 Q 44.3 187.0, 44.3 185.0 Q 44.3 183.2, 43.5 182.2 Q 42.7 181.3, 41.3 181.3 Q 39.8 181.3, 39.0 182.2 Q 38.2 183.1, 38.2 185.0 Q 38.2 187.0, 39.0 187.9 Q 39.8 188.9, 41.3 188.9 " fill="#FF0000"/>
<path class="atom-18" d="M 134.9 121.1 Q 134.9 118.8, 136.1 117.5 Q 137.2 116.2, 139.3 116.2 Q 141.5 116.2, 142.6 117.5 Q 143.7 118.8, 143.7 121.1 Q 143.7 123.4, 142.6 124.7 Q 141.4 126.0, 139.3 126.0 Q 137.2 126.0, 136.1 124.7 Q 134.9 123.4, 134.9 121.1 M 139.3 124.9 Q 140.8 124.9, 141.6 124.0 Q 142.4 123.0, 142.4 121.1 Q 142.4 119.2, 141.6 118.2 Q 140.8 117.3, 139.3 117.3 Q 137.9 117.3, 137.1 118.2 Q 136.3 119.2, 136.3 121.1 Q 136.3 123.0, 137.1 124.0 Q 137.9 124.9, 139.3 124.9 " fill="#FF0000"/>
<path class="atom-18" d="M 145.2 116.3 L 146.5 116.3 L 146.5 120.4 L 151.4 120.4 L 151.4 116.3 L 152.7 116.3 L 152.7 125.9 L 151.4 125.9 L 151.4 121.5 L 146.5 121.5 L 146.5 125.9 L 145.2 125.9 L 145.2 116.3 " fill="#FF0000"/>
<path class="atom-20" d="M 137.0 14.9 Q 137.0 12.6, 138.1 11.3 Q 139.3 10.0, 141.4 10.0 Q 143.5 10.0, 144.7 11.3 Q 145.8 12.6, 145.8 14.9 Q 145.8 17.2, 144.6 18.5 Q 143.5 19.8, 141.4 19.8 Q 139.3 19.8, 138.1 18.5 Q 137.0 17.2, 137.0 14.9 M 141.4 18.7 Q 142.9 18.7, 143.6 17.8 Q 144.4 16.8, 144.4 14.9 Q 144.4 13.0, 143.6 12.0 Q 142.9 11.1, 141.4 11.1 Q 139.9 11.1, 139.1 12.0 Q 138.4 13.0, 138.4 14.9 Q 138.4 16.8, 139.1 17.8 Q 139.9 18.7, 141.4 18.7 " fill="#FF0000"/>
<path class="atom-21" d="M 69.1 13.3 L 70.4 13.3 L 70.4 17.4 L 75.3 17.4 L 75.3 13.3 L 76.6 13.3 L 76.6 22.9 L 75.3 22.9 L 75.3 18.4 L 70.4 18.4 L 70.4 22.9 L 69.1 22.9 L 69.1 13.3 " fill="#FF0000"/>
<path class="atom-21" d="M 78.5 18.1 Q 78.5 15.8, 79.7 14.5 Q 80.8 13.2, 82.9 13.2 Q 85.1 13.2, 86.2 14.5 Q 87.3 15.8, 87.3 18.1 Q 87.3 20.4, 86.2 21.7 Q 85.0 23.0, 82.9 23.0 Q 80.8 23.0, 79.7 21.7 Q 78.5 20.4, 78.5 18.1 M 82.9 21.9 Q 84.4 21.9, 85.2 21.0 Q 86.0 20.0, 86.0 18.1 Q 86.0 16.2, 85.2 15.2 Q 84.4 14.3, 82.9 14.3 Q 81.5 14.3, 80.7 15.2 Q 79.9 16.2, 79.9 18.1 Q 79.9 20.0, 80.7 21.0 Q 81.5 21.9, 82.9 21.9 " fill="#FF0000"/>
<path class="atom-23" d="M 267.2 146.5 Q 267.2 144.2, 268.3 142.9 Q 269.5 141.6, 271.6 141.6 Q 273.7 141.6, 274.8 142.9 Q 276.0 144.2, 276.0 146.5 Q 276.0 148.8, 274.8 150.1 Q 273.7 151.4, 271.6 151.4 Q 269.5 151.4, 268.3 150.1 Q 267.2 148.8, 267.2 146.5 M 271.6 150.4 Q 273.0 150.4, 273.8 149.4 Q 274.6 148.4, 274.6 146.5 Q 274.6 144.6, 273.8 143.7 Q 273.0 142.7, 271.6 142.7 Q 270.1 142.7, 269.3 143.6 Q 268.5 144.6, 268.5 146.5 Q 268.5 148.4, 269.3 149.4 Q 270.1 150.4, 271.6 150.4 " fill="#FF0000"/>
<path class="atom-24" d="M 208.7 173.7 L 210.0 173.7 L 210.0 177.8 L 214.9 177.8 L 214.9 173.7 L 216.2 173.7 L 216.2 183.3 L 214.9 183.3 L 214.9 178.9 L 210.0 178.9 L 210.0 183.3 L 208.7 183.3 L 208.7 173.7 " fill="#FF0000"/>
<path class="atom-24" d="M 218.2 178.5 Q 218.2 176.2, 219.3 174.9 Q 220.4 173.6, 222.6 173.6 Q 224.7 173.6, 225.8 174.9 Q 226.9 176.2, 226.9 178.5 Q 226.9 180.8, 225.8 182.1 Q 224.6 183.4, 222.6 183.4 Q 220.4 183.4, 219.3 182.1 Q 218.2 180.8, 218.2 178.5 M 222.6 182.3 Q 224.0 182.3, 224.8 181.4 Q 225.6 180.4, 225.6 178.5 Q 225.6 176.6, 224.8 175.6 Q 224.0 174.7, 222.6 174.7 Q 221.1 174.7, 220.3 175.6 Q 219.5 176.6, 219.5 178.5 Q 219.5 180.4, 220.3 181.4 Q 221.1 182.3, 222.6 182.3 " fill="#FF0000"/>
</g>
    <g transform="translate(615.0, 0) scale(1 1) "><line x1="15" y1="100" x2="25" y2="100" style="stroke:rgb(0,0,0);stroke-width:2"/>
  <line x1="20" y1="95" x2="20" y2="105" style="stroke:rgb(0,0,0);stroke-width:2"/>
</g>
    <g transform="translate(655.0, 0) scale(1 1) "><!-- END OF HEADER -->
<rect style="opacity:1.0;fill:#FFFFFF;stroke:none" width="215.0" height="200.0" x="0.0" y="0.0"> </rect>
<path class="bond-0 atom-0 atom-1" d="M 183.7,56.0 L 158.3,99.9" style="fill:none;fill-rule:evenodd;stroke:#000000;stroke-width:2.0px;stroke-linecap:butt;stroke-linejoin:miter;stroke-opacity:1"/>
<path class="bond-1 atom-1 atom-2" d="M 158.3,99.9 L 168.4,117.4" style="fill:none;fill-rule:evenodd;stroke:#000000;stroke-width:2.0px;stroke-linecap:butt;stroke-linejoin:miter;stroke-opacity:1"/>
<path class="bond-1 atom-1 atom-2" d="M 168.4,117.4 L 178.5,134.9" style="fill:none;fill-rule:evenodd;stroke:#FF0000;stroke-width:2.0px;stroke-linecap:butt;stroke-linejoin:miter;stroke-opacity:1"/>
<path class="bond-2 atom-1 atom-3" d="M 158.3,99.9 L 107.6,99.9" style="fill:none;fill-rule:evenodd;stroke:#000000;stroke-width:2.0px;stroke-linecap:butt;stroke-linejoin:miter;stroke-opacity:1"/>
<path class="bond-3 atom-3 atom-4" d="M 107.6,99.9 L 107.6,49.2" style="fill:none;fill-rule:evenodd;stroke:#000000;stroke-width:2.0px;stroke-linecap:butt;stroke-linejoin:miter;stroke-opacity:1"/>
<path class="bond-4 atom-3 atom-5" d="M 107.6,99.9 L 107.6,150.6" style="fill:none;fill-rule:evenodd;stroke:#000000;stroke-width:2.0px;stroke-linecap:butt;stroke-linejoin:miter;stroke-opacity:1"/>
<path class="bond-5 atom-3 atom-6" d="M 107.6,99.9 L 56.9,99.9" style="fill:none;fill-rule:evenodd;stroke:#000000;stroke-width:2.0px;stroke-linecap:butt;stroke-linejoin:miter;stroke-opacity:1"/>
<path class="bond-6 atom-6 atom-7" d="M 54.7,96.1 L 44.0,114.5" style="fill:none;fill-rule:evenodd;stroke:#000000;stroke-width:2.0px;stroke-linecap:butt;stroke-linejoin:miter;stroke-opacity:1"/>
<path class="bond-6 atom-6 atom-7" d="M 44.0,114.5 L 33.4,133.0" style="fill:none;fill-rule:evenodd;stroke:#FF0000;stroke-width:2.0px;stroke-linecap:butt;stroke-linejoin:miter;stroke-opacity:1"/>
<path class="bond-6 atom-6 atom-7" d="M 61.3,99.9 L 50.6,118.3" style="fill:none;fill-rule:evenodd;stroke:#000000;stroke-width:2.0px;stroke-linecap:butt;stroke-linejoin:miter;stroke-opacity:1"/>
<path class="bond-6 atom-6 atom-7" d="M 50.6,118.3 L 40.0,136.8" style="fill:none;fill-rule:evenodd;stroke:#FF0000;stroke-width:2.0px;stroke-linecap:butt;stroke-linejoin:miter;stroke-opacity:1"/>
<path class="bond-7 atom-6 atom-8" d="M 56.9,99.9 L 46.9,82.5" style="fill:none;fill-rule:evenodd;stroke:#000000;stroke-width:2.0px;stroke-linecap:butt;stroke-linejoin:miter;stroke-opacity:1"/>
<path class="bond-7 atom-6 atom-8" d="M 46.9,82.5 L 36.8,65.1" style="fill:none;fill-rule:evenodd;stroke:#FF0000;stroke-width:2.0px;stroke-linecap:butt;stroke-linejoin:miter;stroke-opacity:1"/>
<path d="M 59.4,99.9 L 56.9,99.9 L 56.4,99.0" style="fill:none;stroke:#000000;stroke-width:2.0px;stroke-linecap:butt;stroke-linejoin:miter;stroke-opacity:1;"/>
<path class="atom-2" d="M 177.1 143.9 Q 177.1 140.4, 178.8 138.5 Q 180.5 136.5, 183.7 136.5 Q 186.9 136.5, 188.6 138.5 Q 190.3 140.4, 190.3 143.9 Q 190.3 147.3, 188.6 149.3 Q 186.8 151.3, 183.7 151.3 Q 180.5 151.3, 178.8 149.3 Q 177.1 147.4, 177.1 143.9 M 183.7 149.7 Q 185.9 149.7, 187.0 148.2 Q 188.2 146.7, 188.2 143.9 Q 188.2 141.0, 187.0 139.6 Q 185.9 138.2, 183.7 138.2 Q 181.5 138.2, 180.3 139.6 Q 179.1 141.0, 179.1 143.9 Q 179.1 146.8, 180.3 148.2 Q 181.5 149.7, 183.7 149.7 " fill="#FF0000"/>
<path class="atom-2" d="M 192.5 136.7 L 194.5 136.7 L 194.5 142.8 L 201.8 142.8 L 201.8 136.7 L 203.7 136.7 L 203.7 151.1 L 201.8 151.1 L 201.8 144.4 L 194.5 144.4 L 194.5 151.1 L 192.5 151.1 L 192.5 136.7 " fill="#FF0000"/>
<path class="atom-7" d="M 24.9 143.9 Q 24.9 140.4, 26.6 138.5 Q 28.3 136.5, 31.5 136.5 Q 34.7 136.5, 36.4 138.5 Q 38.1 140.4, 38.1 143.9 Q 38.1 147.3, 36.4 149.3 Q 34.7 151.3, 31.5 151.3 Q 28.4 151.3, 26.6 149.3 Q 24.9 147.4, 24.9 143.9 M 31.5 149.7 Q 33.7 149.7, 34.9 148.2 Q 36.1 146.7, 36.1 143.9 Q 36.1 141.0, 34.9 139.6 Q 33.7 138.2, 31.5 138.2 Q 29.3 138.2, 28.1 139.6 Q 27.0 141.0, 27.0 143.9 Q 27.0 146.8, 28.1 148.2 Q 29.3 149.7, 31.5 149.7 " fill="#FF0000"/>
<path class="atom-8" d="M 10.7 48.9 L 12.7 48.9 L 12.7 55.0 L 20.0 55.0 L 20.0 48.9 L 22.0 48.9 L 22.0 63.2 L 20.0 63.2 L 20.0 56.6 L 12.7 56.6 L 12.7 63.2 L 10.7 63.2 L 10.7 48.9 " fill="#FF0000"/>
<path class="atom-8" d="M 24.9 56.0 Q 24.9 52.6, 26.6 50.6 Q 28.3 48.7, 31.5 48.7 Q 34.7 48.7, 36.4 50.6 Q 38.1 52.6, 38.1 56.0 Q 38.1 59.5, 36.4 61.5 Q 34.7 63.5, 31.5 63.5 Q 28.4 63.5, 26.6 61.5 Q 24.9 59.5, 24.9 56.0 M 31.5 61.8 Q 33.7 61.8, 34.9 60.4 Q 36.1 58.9, 36.1 56.0 Q 36.1 53.2, 34.9 51.8 Q 33.7 50.3, 31.5 50.3 Q 29.3 50.3, 28.1 51.7 Q 27.0 53.2, 27.0 56.0 Q 27.0 58.9, 28.1 60.4 Q 29.3 61.8, 31.5 61.8 " fill="#FF0000"/>
</g>
  </g>
</svg>
