<?xml version='1.0' encoding='ASCII' standalone='yes'?>
<svg xmlns="http://www.w3.org/2000/svg" xmlns:xlink="http://www.w3.org/1999/xlink" version="1.1" width="863.0px" viewBox="0 0 863.0 200.0" height="200.0px">
  <g>
    <g transform="translate(0, 0) scale(1 1) "><!-- END OF HEADER -->
<rect style="opacity:1.0;fill:#FFFFFF;stroke:none" width="271.0" height="200.0" x="0.0" y="0.0"> </rect>
<path class="bond-0 atom-0 atom-1" d="M 13.6,69.6 L 44.4,90.9" style="fill:none;fill-rule:evenodd;stroke:#000000;stroke-width:2.0px;stroke-linecap:butt;stroke-linejoin:miter;stroke-opacity:1"/>
<path class="bond-1 atom-1 atom-2" d="M 44.4,90.9 L 23.1,121.8" style="fill:none;fill-rule:evenodd;stroke:#000000;stroke-width:2.0px;stroke-linecap:butt;stroke-linejoin:miter;stroke-opacity:1"/>
<path class="bond-2 atom-2 atom-3" d="M 23.1,121.8 L 29.6,135.4" style="fill:none;fill-rule:evenodd;stroke:#000000;stroke-width:2.0px;stroke-linecap:butt;stroke-linejoin:miter;stroke-opacity:1"/>
<path class="bond-2 atom-2 atom-3" d="M 29.6,135.4 L 36.1,149.1" style="fill:none;fill-rule:evenodd;stroke:#FF0000;stroke-width:2.0px;stroke-linecap:butt;stroke-linejoin:miter;stroke-opacity:1"/>
<path class="bond-3 atom-1 atom-4" d="M 44.4,90.9 L 75.3,112.2" style="fill:none;fill-rule:evenodd;stroke:#000000;stroke-width:2.0px;stroke-linecap:butt;stroke-linejoin:miter;stroke-opacity:1"/>
<path class="bond-4 atom-4 atom-5" d="M 75.3,112.2 L 109.2,96.1" style="fill:none;fill-rule:evenodd;stroke:#000000;stroke-width:2.0px;stroke-linecap:butt;stroke-linejoin:miter;stroke-opacity:1"/>
<path class="bond-5 atom-5 atom-6" d="M 109.2,96.1 L 140.1,117.4" style="fill:none;fill-rule:evenodd;stroke:#000000;stroke-width:2.0px;stroke-linecap:butt;stroke-linejoin:miter;stroke-opacity:1"/>
<path class="bond-6 atom-6 atom-7" d="M 140.1,117.4 L 173.9,101.3" style="fill:none;fill-rule:evenodd;stroke:#000000;stroke-width:2.0px;stroke-linecap:butt;stroke-linejoin:miter;stroke-opacity:1"/>
<path class="bond-7 atom-7 atom-8" d="M 173.9,101.3 L 157.9,67.5" style="fill:none;fill-rule:evenodd;stroke:#000000;stroke-width:2.0px;stroke-linecap:butt;stroke-linejoin:miter;stroke-opacity:1"/>
<path class="bond-8 atom-7 atom-9" d="M 173.9,101.3 L 190.0,135.2" style="fill:none;fill-rule:evenodd;stroke:#000000;stroke-width:2.0px;stroke-linecap:butt;stroke-linejoin:miter;stroke-opacity:1"/>
<path class="bond-9 atom-7 atom-10" d="M 173.9,101.3 L 207.8,85.3" style="fill:none;fill-rule:evenodd;stroke:#000000;stroke-width:2.0px;stroke-linecap:butt;stroke-linejoin:miter;stroke-opacity:1"/>
<path class="bond-10 atom-10 atom-11" d="M 207.8,85.3 L 221.7,78.7" style="fill:none;fill-rule:evenodd;stroke:#000000;stroke-width:2.0px;stroke-linecap:butt;stroke-linejoin:miter;stroke-opacity:1"/>
<path class="bond-10 atom-10 atom-11" d="M 221.7,78.7 L 235.6,72.1" style="fill:none;fill-rule:evenodd;stroke:#FF0000;stroke-width:2.0px;stroke-linecap:butt;stroke-linejoin:miter;stroke-opacity:1"/>
<path class="bond-11 atom-10 atom-12" d="M 207.8,85.3 L 201.4,71.7" style="fill:none;fill-rule:evenodd;stroke:#000000;stroke-width:2.0px;stroke-linecap:butt;stroke-linejoin:miter;stroke-opacity:1"/>
<path class="bond-11 atom-10 atom-12" d="M 201.4,71.7 L 195.0,58.1" style="fill:none;fill-rule:evenodd;stroke:#FF0000;stroke-width:2.0px;stroke-linecap:butt;stroke-linejoin:miter;stroke-opacity:1"/>
<path class="bond-12 atom-10 atom-13" d="M 207.8,85.3 L 214.3,98.9" style="fill:none;fill-rule:evenodd;stroke:#000000;stroke-width:2.0px;stroke-linecap:butt;stroke-linejoin:miter;stroke-opacity:1"/>
<path class="bond-12 atom-10 atom-13" d="M 214.3,98.9 L 220.8,112.5" style="fill:none;fill-rule:evenodd;stroke:#FF0000;stroke-width:2.0px;stroke-linecap:butt;stroke-linejoin:miter;stroke-opacity:1"/>
<path class="bond-13 atom-1 atom-14" d="M 44.4,90.9 L 65.7,60.0" style="fill:none;fill-rule:evenodd;stroke:#000000;stroke-width:2.0px;stroke-linecap:butt;stroke-linejoin:miter;stroke-opacity:1"/>
<path class="bond-14 atom-14 atom-15" d="M 69.0,60.3 L 62.2,46.0" style="fill:none;fill-rule:evenodd;stroke:#000000;stroke-width:2.0px;stroke-linecap:butt;stroke-linejoin:miter;stroke-opacity:1"/>
<path class="bond-14 atom-14 atom-15" d="M 62.2,46.0 L 55.4,31.7" style="fill:none;fill-rule:evenodd;stroke:#FF0000;stroke-width:2.0px;stroke-linecap:butt;stroke-linejoin:miter;stroke-opacity:1"/>
<path class="bond-14 atom-14 atom-15" d="M 63.9,62.7 L 57.1,48.4" style="fill:none;fill-rule:evenodd;stroke:#000000;stroke-width:2.0px;stroke-linecap:butt;stroke-linejoin:miter;stroke-opacity:1"/>
<path class="bond-14 atom-14 atom-15" d="M 57.1,48.4 L 50.3,34.1" style="fill:none;fill-rule:evenodd;stroke:#FF0000;stroke-width:2.0px;stroke-linecap:butt;stroke-linejoin:miter;stroke-opacity:1"/>
<path class="bond-15 atom-14 atom-16" d="M 65.7,60.0 L 81.4,61.3" style="fill:none;fill-rule:evenodd;stroke:#000000;stroke-width:2.0px;stroke-linecap:butt;stroke-linejoin:miter;stroke-opacity:1"/>
<path class="bond-15 atom-14 atom-16" d="M 81.4,61.3 L 97.0,62.6" style="fill:none;fill-rule:evenodd;stroke:#FF0000;stroke-width:2.0px;stroke-linecap:butt;stroke-linejoin:miter;stroke-opacity:1"/>
<path d="M 24.2,120.2 L 23.1,121.8 L 23.4,122.5" style="fill:none;stroke:#000000;stroke-width:2.0px;stroke-linecap:butt;stroke-linejoin:miter;stroke-opacity:1;"/>
<path d="M 73.8,111.2 L 75.3,112.2 L 77.0,111.4" style="fill:none;stroke:#000000;stroke-width:2.0px;stroke-linecap:butt;stroke-linejoin:miter;stroke-opacity:1;"/>
<path d="M 107.5,96.9 L 109.2,96.1 L 110.7,97.2" style="fill:none;stroke:#000000;stroke-width:2.0px;stroke-linecap:butt;stroke-linejoin:miter;stroke-opacity:1;"/>
<path d="M 138.5,116.4 L 140.1,117.4 L 141.8,116.6" style="fill:none;stroke:#000000;stroke-width:2.0px;stroke-linecap:butt;stroke-linejoin:miter;stroke-opacity:1;"/>
<path d="M 64.7,61.6 L 65.7,60.0 L 66.5,60.1" style="fill:none;stroke:#000000;stroke-width:2.0px;stroke-linecap:butt;stroke-linejoin:miter;stroke-opacity:1;"/>
<path class="atom-3" d="M 34.3 155.7 Q 34.3 153.2, 35.6 151.7 Q 36.9 150.3, 39.2 150.3 Q 41.6 150.3, 42.8 151.7 Q 44.1 153.2, 44.1 155.7 Q 44.1 158.3, 42.8 159.8 Q 41.5 161.2, 39.2 161.2 Q 36.9 161.2, 35.6 159.8 Q 34.3 158.3, 34.3 155.7 M 39.2 160.0 Q 40.8 160.0, 41.7 158.9 Q 42.6 157.8, 42.6 155.7 Q 42.6 153.6, 41.7 152.6 Q 40.8 151.5, 39.2 151.5 Q 37.6 151.5, 36.7 152.6 Q 35.8 153.6, 35.8 155.7 Q 35.8 157.9, 36.7 158.9 Q 37.6 160.0, 39.2 160.0 " fill="#FF0000"/>
<path class="atom-3" d="M 45.7 150.4 L 47.2 150.4 L 47.2 154.9 L 52.6 154.9 L 52.6 150.4 L 54.1 150.4 L 54.1 161.0 L 52.6 161.0 L 52.6 156.1 L 47.2 156.1 L 47.2 161.0 L 45.7 161.0 L 45.7 150.4 " fill="#FF0000"/>
<path class="atom-11" d="M 236.8 69.2 Q 236.8 66.6, 238.1 65.2 Q 239.4 63.8, 241.7 63.8 Q 244.1 63.8, 245.3 65.2 Q 246.6 66.6, 246.6 69.2 Q 246.6 71.8, 245.3 73.2 Q 244.0 74.7, 241.7 74.7 Q 239.4 74.7, 238.1 73.2 Q 236.8 71.8, 236.8 69.2 M 241.7 73.5 Q 243.3 73.5, 244.2 72.4 Q 245.1 71.3, 245.1 69.2 Q 245.1 67.1, 244.2 66.1 Q 243.3 65.0, 241.7 65.0 Q 240.1 65.0, 239.2 66.0 Q 238.3 67.1, 238.3 69.2 Q 238.3 71.3, 239.2 72.4 Q 240.1 73.5, 241.7 73.5 " fill="#FF0000"/>
<path class="atom-11" d="M 248.2 63.9 L 249.7 63.9 L 249.7 68.4 L 255.1 68.4 L 255.1 63.9 L 256.6 63.9 L 256.6 74.5 L 255.1 74.5 L 255.1 69.6 L 249.7 69.6 L 249.7 74.5 L 248.2 74.5 L 248.2 63.9 " fill="#FF0000"/>
<path class="atom-12" d="M 176.4 46.1 L 177.8 46.1 L 177.8 50.6 L 183.2 50.6 L 183.2 46.1 L 184.7 46.1 L 184.7 56.7 L 183.2 56.7 L 183.2 51.8 L 177.8 51.8 L 177.8 56.7 L 176.4 56.7 L 176.4 46.1 " fill="#FF0000"/>
<path class="atom-12" d="M 186.9 51.4 Q 186.9 48.8, 188.1 47.4 Q 189.4 46.0, 191.7 46.0 Q 194.1 46.0, 195.4 47.4 Q 196.6 48.8, 196.6 51.4 Q 196.6 54.0, 195.3 55.4 Q 194.1 56.9, 191.7 56.9 Q 189.4 56.9, 188.1 55.4 Q 186.9 54.0, 186.9 51.4 M 191.7 55.7 Q 193.4 55.7, 194.2 54.6 Q 195.1 53.5, 195.1 51.4 Q 195.1 49.3, 194.2 48.3 Q 193.4 47.2, 191.7 47.2 Q 190.1 47.2, 189.2 48.2 Q 188.4 49.3, 188.4 51.4 Q 188.4 53.5, 189.2 54.6 Q 190.1 55.7, 191.7 55.7 " fill="#FF0000"/>
<path class="atom-13" d="M 219.0 119.2 Q 219.0 116.6, 220.3 115.2 Q 221.6 113.8, 223.9 113.8 Q 226.3 113.8, 227.5 115.2 Q 228.8 116.6, 228.8 119.2 Q 228.8 121.7, 227.5 123.2 Q 226.2 124.7, 223.9 124.7 Q 221.6 124.7, 220.3 123.2 Q 219.0 121.8, 219.0 119.2 M 223.9 123.5 Q 225.5 123.5, 226.4 122.4 Q 227.3 121.3, 227.3 119.2 Q 227.3 117.1, 226.4 116.0 Q 225.5 115.0, 223.9 115.0 Q 222.3 115.0, 221.4 116.0 Q 220.5 117.1, 220.5 119.2 Q 220.5 121.3, 221.4 122.4 Q 222.3 123.5, 223.9 123.5 " fill="#FF0000"/>
<path class="atom-13" d="M 230.4 113.9 L 231.9 113.9 L 231.9 118.4 L 237.3 118.4 L 237.3 113.9 L 238.8 113.9 L 238.8 124.5 L 237.3 124.5 L 237.3 119.6 L 231.9 119.6 L 231.9 124.5 L 230.4 124.5 L 230.4 113.9 " fill="#FF0000"/>
<path class="atom-15" d="M 44.8 26.2 Q 44.8 23.6, 46.0 22.2 Q 47.3 20.8, 49.6 20.8 Q 52.0 20.8, 53.3 22.2 Q 54.5 23.6, 54.5 26.2 Q 54.5 28.8, 53.2 30.2 Q 52.0 31.7, 49.6 31.7 Q 47.3 31.7, 46.0 30.2 Q 44.8 28.8, 44.8 26.2 M 49.6 30.5 Q 51.3 30.5, 52.1 29.4 Q 53.0 28.3, 53.0 26.2 Q 53.0 24.1, 52.1 23.1 Q 51.3 22.0, 49.6 22.0 Q 48.0 22.0, 47.1 23.0 Q 46.3 24.1, 46.3 26.2 Q 46.3 28.3, 47.1 29.4 Q 48.0 30.5, 49.6 30.5 " fill="#FF0000"/>
<path class="atom-16" d="M 98.2 63.1 Q 98.2 60.5, 99.5 59.1 Q 100.8 57.7, 103.1 57.7 Q 105.5 57.7, 106.7 59.1 Q 108.0 60.5, 108.0 63.1 Q 108.0 65.7, 106.7 67.1 Q 105.4 68.6, 103.1 68.6 Q 100.8 68.6, 99.5 67.1 Q 98.2 65.7, 98.2 63.1 M 103.1 67.4 Q 104.7 67.4, 105.6 66.3 Q 106.5 65.2, 106.5 63.1 Q 106.5 61.0, 105.6 59.9 Q 104.7 58.9, 103.1 58.9 Q 101.5 58.9, 100.6 59.9 Q 99.7 61.0, 99.7 63.1 Q 99.7 65.2, 100.6 66.3 Q 101.5 67.4, 103.1 67.4 " fill="#FF0000"/>
<path class="atom-16" d="M 109.6 57.8 L 111.1 57.8 L 111.1 62.3 L 116.5 62.3 L 116.5 57.8 L 118.0 57.8 L 118.0 68.4 L 116.5 68.4 L 116.5 63.5 L 111.1 63.5 L 111.1 68.4 L 109.6 68.4 L 109.6 57.8 " fill="#FF0000"/>
<path class="legend" d="M 126.0 181.9 Q 126.0 179.6, 126.7 177.7 Q 127.4 175.8, 128.7 173.8 L 129.6 174.4 Q 128.5 176.3, 128.0 178.0 Q 127.5 179.7, 127.5 181.9 Q 127.5 184.0, 128.0 185.8 Q 128.5 187.5, 129.6 189.4 L 128.7 190.0 Q 127.4 188.0, 126.7 186.1 Q 126.0 184.2, 126.0 181.9 " fill="#000000"/>
<path class="legend" d="M 130.5 177.3 Q 130.9 176.2, 131.9 175.6 Q 132.9 175.0, 134.3 175.0 Q 136.0 175.0, 136.9 175.9 Q 137.9 176.8, 137.9 178.5 Q 137.9 180.2, 136.6 181.7 Q 135.4 183.3, 132.9 185.2 L 138.1 185.2 L 138.1 186.4 L 130.5 186.4 L 130.5 185.4 Q 132.6 183.9, 133.8 182.8 Q 135.1 181.6, 135.7 180.6 Q 136.3 179.6, 136.3 178.6 Q 136.3 177.5, 135.8 176.9 Q 135.2 176.3, 134.3 176.3 Q 133.3 176.3, 132.7 176.6 Q 132.1 177.0, 131.7 177.8 L 130.5 177.3 " fill="#000000"/>
<path class="legend" d="M 143.1 181.9 Q 143.1 184.2, 142.4 186.1 Q 141.7 188.0, 140.4 190.0 L 139.5 189.4 Q 140.6 187.5, 141.1 185.8 Q 141.6 184.0, 141.6 181.9 Q 141.6 179.7, 141.1 178.0 Q 140.6 176.3, 139.5 174.4 L 140.4 173.8 Q 141.7 175.8, 142.4 177.7 Q 143.1 179.6, 143.1 181.9 " fill="#000000"/>
</g>
    <g transform="translate(271.0, 0) scale(1 1) "><line x1="5" y1="100" x2="35" y2="100" style="stroke:rgb(0,0,0);stroke-width:2"/>
  <line x1="34" y1="100" x2="29" y2="95" style="stroke:rgb(0,0,0);stroke-width:2"/>
  <line x1="34" y1="100" x2="29" y2="105" style="stroke:rgb(0,0,0);stroke-width:2"/>
</g>
    <g transform="translate(311.0, 0) scale(1 1) "><!-- END OF HEADER -->
<rect style="opacity:1.0;fill:#FFFFFF;stroke:none" width="205.0" height="200.0" x="0.0" y="0.0"> </rect>
<path class="bond-0 atom-0 atom-1" d="M 122.6,44.3 L 108.8,89.2" style="fill:none;fill-rule:evenodd;stroke:#000000;stroke-width:2.0px;stroke-linecap:butt;stroke-linejoin:miter;stroke-opacity:1"/>
<path class="bond-1 atom-1 atom-2" d="M 108.8,89.2 L 95.0,134.1" style="fill:none;fill-rule:evenodd;stroke:#000000;stroke-width:2.0px;stroke-linecap:butt;stroke-linejoin:miter;stroke-opacity:1"/>
<path class="bond-2 atom-1 atom-3" d="M 108.8,89.2 L 63.9,75.4" style="fill:none;fill-rule:evenodd;stroke:#000000;stroke-width:2.0px;stroke-linecap:butt;stroke-linejoin:miter;stroke-opacity:1"/>
<path class="bond-3 atom-3 atom-4" d="M 63.9,75.4 L 50.5,87.9" style="fill:none;fill-rule:evenodd;stroke:#000000;stroke-width:2.0px;stroke-linecap:butt;stroke-linejoin:miter;stroke-opacity:1"/>
<path class="bond-3 atom-3 atom-4" d="M 50.5,87.9 L 37.2,100.3" style="fill:none;fill-rule:evenodd;stroke:#FF0000;stroke-width:2.0px;stroke-linecap:butt;stroke-linejoin:miter;stroke-opacity:1"/>
<path class="bond-4 atom-1 atom-5" d="M 108.8,89.2 L 153.7,103.0" style="fill:none;fill-rule:evenodd;stroke:#000000;stroke-width:2.0px;stroke-linecap:butt;stroke-linejoin:miter;stroke-opacity:1"/>
<path class="bond-5 atom-5 atom-6" d="M 154.7,107.0 L 168.8,93.8" style="fill:none;fill-rule:evenodd;stroke:#000000;stroke-width:2.0px;stroke-linecap:butt;stroke-linejoin:miter;stroke-opacity:1"/>
<path class="bond-5 atom-5 atom-6" d="M 168.8,93.8 L 182.9,80.7" style="fill:none;fill-rule:evenodd;stroke:#FF0000;stroke-width:2.0px;stroke-linecap:butt;stroke-linejoin:miter;stroke-opacity:1"/>
<path class="bond-5 atom-5 atom-6" d="M 149.9,101.8 L 164.0,88.7" style="fill:none;fill-rule:evenodd;stroke:#000000;stroke-width:2.0px;stroke-linecap:butt;stroke-linejoin:miter;stroke-opacity:1"/>
<path class="bond-5 atom-5 atom-6" d="M 164.0,88.7 L 178.1,75.5" style="fill:none;fill-rule:evenodd;stroke:#FF0000;stroke-width:2.0px;stroke-linecap:butt;stroke-linejoin:miter;stroke-opacity:1"/>
<path class="bond-6 atom-5 atom-7" d="M 153.7,103.0 L 158.0,121.7" style="fill:none;fill-rule:evenodd;stroke:#000000;stroke-width:2.0px;stroke-linecap:butt;stroke-linejoin:miter;stroke-opacity:1"/>
<path class="bond-6 atom-5 atom-7" d="M 158.0,121.7 L 162.4,140.5" style="fill:none;fill-rule:evenodd;stroke:#FF0000;stroke-width:2.0px;stroke-linecap:butt;stroke-linejoin:miter;stroke-opacity:1"/>
<path d="M 66.1,76.1 L 63.9,75.4 L 63.2,76.0" style="fill:none;stroke:#000000;stroke-width:2.0px;stroke-linecap:butt;stroke-linejoin:miter;stroke-opacity:1;"/>
<path d="M 151.5,102.3 L 153.7,103.0 L 154.0,103.9" style="fill:none;stroke:#000000;stroke-width:2.0px;stroke-linecap:butt;stroke-linejoin:miter;stroke-opacity:1;"/>
<path class="atom-4" d="M 10.2 100.8 L 12.1 100.8 L 12.1 106.5 L 18.9 106.5 L 18.9 100.8 L 20.7 100.8 L 20.7 114.1 L 18.9 114.1 L 18.9 108.0 L 12.1 108.0 L 12.1 114.1 L 10.2 114.1 L 10.2 100.8 " fill="#FF0000"/>
<path class="atom-4" d="M 23.4 107.5 Q 23.4 104.3, 25.0 102.5 Q 26.5 100.7, 29.5 100.7 Q 32.5 100.7, 34.0 102.5 Q 35.6 104.3, 35.6 107.5 Q 35.6 110.7, 34.0 112.5 Q 32.4 114.4, 29.5 114.4 Q 26.6 114.4, 25.0 112.5 Q 23.4 110.7, 23.4 107.5 M 29.5 112.9 Q 31.5 112.9, 32.6 111.5 Q 33.7 110.1, 33.7 107.5 Q 33.7 104.8, 32.6 103.5 Q 31.5 102.2, 29.5 102.2 Q 27.5 102.2, 26.4 103.5 Q 25.3 104.8, 25.3 107.5 Q 25.3 110.1, 26.4 111.5 Q 27.5 112.9, 29.5 112.9 " fill="#FF0000"/>
<path class="atom-6" d="M 182.0 71.0 Q 182.0 67.8, 183.6 66.0 Q 185.2 64.3, 188.1 64.3 Q 191.1 64.3, 192.7 66.0 Q 194.3 67.8, 194.3 71.0 Q 194.3 74.3, 192.7 76.1 Q 191.1 77.9, 188.1 77.9 Q 185.2 77.9, 183.6 76.1 Q 182.0 74.3, 182.0 71.0 M 188.1 76.4 Q 190.2 76.4, 191.3 75.1 Q 192.4 73.7, 192.4 71.0 Q 192.4 68.4, 191.3 67.1 Q 190.2 65.8, 188.1 65.8 Q 186.1 65.8, 185.0 67.1 Q 183.9 68.4, 183.9 71.0 Q 183.9 73.7, 185.0 75.1 Q 186.1 76.4, 188.1 76.4 " fill="#FF0000"/>
<path class="atom-7" d="M 158.2 148.8 Q 158.2 145.6, 159.7 143.8 Q 161.3 142.1, 164.3 142.1 Q 167.2 142.1, 168.8 143.8 Q 170.4 145.6, 170.4 148.8 Q 170.4 152.1, 168.8 153.9 Q 167.2 155.7, 164.3 155.7 Q 161.3 155.7, 159.7 153.9 Q 158.2 152.1, 158.2 148.8 M 164.3 154.2 Q 166.3 154.2, 167.4 152.9 Q 168.5 151.5, 168.5 148.8 Q 168.5 146.2, 167.4 144.9 Q 166.3 143.6, 164.3 143.6 Q 162.2 143.6, 161.1 144.9 Q 160.0 146.2, 160.0 148.8 Q 160.0 151.5, 161.1 152.9 Q 162.2 154.2, 164.3 154.2 " fill="#FF0000"/>
<path class="atom-7" d="M 172.4 142.2 L 174.2 142.2 L 174.2 147.9 L 181.0 147.9 L 181.0 142.2 L 182.9 142.2 L 182.9 155.5 L 181.0 155.5 L 181.0 149.4 L 174.2 149.4 L 174.2 155.5 L 172.4 155.5 L 172.4 142.2 " fill="#FF0000"/>
</g>
    <g transform="translate(516.0, 0) scale(1 1) "><line x1="15" y1="100" x2="25" y2="100" style="stroke:rgb(0,0,0);stroke-width:2"/>
  <line x1="20" y1="95" x2="20" y2="105" style="stroke:rgb(0,0,0);stroke-width:2"/>
</g>
    <g transform="translate(556.0, 0) scale(1 1) "><!-- END OF HEADER -->
<rect style="opacity:1.0;fill:#FFFFFF;stroke:none" width="307.0" height="200.0" x="0.0" y="0.0"> </rect>
<path class="bond-0 atom-0 atom-1" d="M 247.9,21.6 L 223.3,37.4" style="fill:none;fill-rule:evenodd;stroke:#000000;stroke-width:2.0px;stroke-linecap:butt;stroke-linejoin:miter;stroke-opacity:1"/>
<path class="bond-1 atom-1 atom-2" d="M 223.3,37.4 L 207.5,12.8" style="fill:none;fill-rule:evenodd;stroke:#000000;stroke-width:2.0px;stroke-linecap:butt;stroke-linejoin:miter;stroke-opacity:1"/>
<path class="bond-2 atom-2 atom-3" d="M 207.5,12.8 L 195.3,13.4" style="fill:none;fill-rule:evenodd;stroke:#000000;stroke-width:2.0px;stroke-linecap:butt;stroke-linejoin:miter;stroke-opacity:1"/>
<path class="bond-2 atom-2 atom-3" d="M 195.3,13.4 L 183.1,14.0" style="fill:none;fill-rule:evenodd;stroke:#FF0000;stroke-width:2.0px;stroke-linecap:butt;stroke-linejoin:miter;stroke-opacity:1"/>
<path class="bond-3 atom-1 atom-4" d="M 223.3,37.4 L 198.7,53.2" style="fill:none;fill-rule:evenodd;stroke:#000000;stroke-width:2.0px;stroke-linecap:butt;stroke-linejoin:miter;stroke-opacity:1"/>
<path class="bond-4 atom-4 atom-5" d="M 198.7,53.2 L 200.1,82.4" style="fill:none;fill-rule:evenodd;stroke:#000000;stroke-width:2.0px;stroke-linecap:butt;stroke-linejoin:miter;stroke-opacity:1"/>
<path class="bond-5 atom-5 atom-6" d="M 200.1,82.4 L 175.5,98.1" style="fill:none;fill-rule:evenodd;stroke:#000000;stroke-width:2.0px;stroke-linecap:butt;stroke-linejoin:miter;stroke-opacity:1"/>
<path class="bond-6 atom-6 atom-7" d="M 175.5,98.1 L 176.9,127.3" style="fill:none;fill-rule:evenodd;stroke:#000000;stroke-width:2.0px;stroke-linecap:butt;stroke-linejoin:miter;stroke-opacity:1"/>
<path class="bond-7 atom-7 atom-8" d="M 176.9,127.3 L 206.1,125.9" style="fill:none;fill-rule:evenodd;stroke:#000000;stroke-width:2.0px;stroke-linecap:butt;stroke-linejoin:miter;stroke-opacity:1"/>
<path class="bond-8 atom-7 atom-9" d="M 176.9,127.3 L 147.7,128.7" style="fill:none;fill-rule:evenodd;stroke:#000000;stroke-width:2.0px;stroke-linecap:butt;stroke-linejoin:miter;stroke-opacity:1"/>
<path class="bond-9 atom-9 atom-10" d="M 147.7,128.7 L 131.9,104.1" style="fill:none;fill-rule:evenodd;stroke:#000000;stroke-width:2.0px;stroke-linecap:butt;stroke-linejoin:miter;stroke-opacity:1"/>
<path class="bond-10 atom-10 atom-11" d="M 131.9,104.1 L 102.7,105.5" style="fill:none;fill-rule:evenodd;stroke:#000000;stroke-width:2.0px;stroke-linecap:butt;stroke-linejoin:miter;stroke-opacity:1"/>
<path class="bond-11 atom-11 atom-12" d="M 102.7,105.5 L 87.0,80.9" style="fill:none;fill-rule:evenodd;stroke:#000000;stroke-width:2.0px;stroke-linecap:butt;stroke-linejoin:miter;stroke-opacity:1"/>
<path class="bond-12 atom-12 atom-13" d="M 87.0,80.9 L 111.5,65.1" style="fill:none;fill-rule:evenodd;stroke:#000000;stroke-width:2.0px;stroke-linecap:butt;stroke-linejoin:miter;stroke-opacity:1"/>
<path class="bond-13 atom-12 atom-14" d="M 87.0,80.9 L 62.4,96.7" style="fill:none;fill-rule:evenodd;stroke:#000000;stroke-width:2.0px;stroke-linecap:butt;stroke-linejoin:miter;stroke-opacity:1"/>
<path class="bond-14 atom-12 atom-15" d="M 87.0,80.9 L 71.2,56.3" style="fill:none;fill-rule:evenodd;stroke:#000000;stroke-width:2.0px;stroke-linecap:butt;stroke-linejoin:miter;stroke-opacity:1"/>
<path class="bond-15 atom-15 atom-16" d="M 71.2,56.3 L 65.0,46.7" style="fill:none;fill-rule:evenodd;stroke:#000000;stroke-width:2.0px;stroke-linecap:butt;stroke-linejoin:miter;stroke-opacity:1"/>
<path class="bond-15 atom-15 atom-16" d="M 65.0,46.7 L 58.8,37.0" style="fill:none;fill-rule:evenodd;stroke:#FF0000;stroke-width:2.0px;stroke-linecap:butt;stroke-linejoin:miter;stroke-opacity:1"/>
<path class="bond-16 atom-15 atom-17" d="M 71.2,56.3 L 81.1,50.0" style="fill:none;fill-rule:evenodd;stroke:#000000;stroke-width:2.0px;stroke-linecap:butt;stroke-linejoin:miter;stroke-opacity:1"/>
<path class="bond-16 atom-15 atom-17" d="M 81.1,50.0 L 91.0,43.6" style="fill:none;fill-rule:evenodd;stroke:#FF0000;stroke-width:2.0px;stroke-linecap:butt;stroke-linejoin:miter;stroke-opacity:1"/>
<path class="bond-17 atom-15 atom-18" d="M 71.2,56.3 L 61.3,62.7" style="fill:none;fill-rule:evenodd;stroke:#000000;stroke-width:2.0px;stroke-linecap:butt;stroke-linejoin:miter;stroke-opacity:1"/>
<path class="bond-17 atom-15 atom-18" d="M 61.3,62.7 L 51.4,69.1" style="fill:none;fill-rule:evenodd;stroke:#FF0000;stroke-width:2.0px;stroke-linecap:butt;stroke-linejoin:miter;stroke-opacity:1"/>
<path class="bond-18 atom-7 atom-19" d="M 176.9,127.3 L 178.3,156.5" style="fill:none;fill-rule:evenodd;stroke:#000000;stroke-width:2.0px;stroke-linecap:butt;stroke-linejoin:miter;stroke-opacity:1"/>
<path class="bond-19 atom-19 atom-20" d="M 178.3,156.5 L 178.8,168.5" style="fill:none;fill-rule:evenodd;stroke:#000000;stroke-width:2.0px;stroke-linecap:butt;stroke-linejoin:miter;stroke-opacity:1"/>
<path class="bond-19 atom-19 atom-20" d="M 178.8,168.5 L 179.4,180.5" style="fill:none;fill-rule:evenodd;stroke:#FF0000;stroke-width:2.0px;stroke-linecap:butt;stroke-linejoin:miter;stroke-opacity:1"/>
<path class="bond-20 atom-19 atom-21" d="M 178.3,156.5 L 190.5,155.9" style="fill:none;fill-rule:evenodd;stroke:#000000;stroke-width:2.0px;stroke-linecap:butt;stroke-linejoin:miter;stroke-opacity:1"/>
<path class="bond-20 atom-19 atom-21" d="M 190.5,155.9 L 202.7,155.4" style="fill:none;fill-rule:evenodd;stroke:#FF0000;stroke-width:2.0px;stroke-linecap:butt;stroke-linejoin:miter;stroke-opacity:1"/>
<path class="bond-21 atom-19 atom-22" d="M 178.3,156.5 L 166.1,157.1" style="fill:none;fill-rule:evenodd;stroke:#000000;stroke-width:2.0px;stroke-linecap:butt;stroke-linejoin:miter;stroke-opacity:1"/>
<path class="bond-21 atom-19 atom-22" d="M 166.1,157.1 L 153.9,157.7" style="fill:none;fill-rule:evenodd;stroke:#FF0000;stroke-width:2.0px;stroke-linecap:butt;stroke-linejoin:miter;stroke-opacity:1"/>
<path class="bond-22 atom-1 atom-23" d="M 223.3,37.4 L 239.1,62.0" style="fill:none;fill-rule:evenodd;stroke:#000000;stroke-width:2.0px;stroke-linecap:butt;stroke-linejoin:miter;stroke-opacity:1"/>
<path class="bond-23 atom-23 atom-24" d="M 237.9,64.2 L 250.8,63.6" style="fill:none;fill-rule:evenodd;stroke:#000000;stroke-width:2.0px;stroke-linecap:butt;stroke-linejoin:miter;stroke-opacity:1"/>
<path class="bond-23 atom-23 atom-24" d="M 250.8,63.6 L 263.6,63.0" style="fill:none;fill-rule:evenodd;stroke:#FF0000;stroke-width:2.0px;stroke-linecap:butt;stroke-linejoin:miter;stroke-opacity:1"/>
<path class="bond-23 atom-23 atom-24" d="M 237.7,59.8 L 250.6,59.2" style="fill:none;fill-rule:evenodd;stroke:#000000;stroke-width:2.0px;stroke-linecap:butt;stroke-linejoin:miter;stroke-opacity:1"/>
<path class="bond-23 atom-23 atom-24" d="M 250.6,59.2 L 263.4,58.6" style="fill:none;fill-rule:evenodd;stroke:#FF0000;stroke-width:2.0px;stroke-linecap:butt;stroke-linejoin:miter;stroke-opacity:1"/>
<path class="bond-24 atom-23 atom-25" d="M 239.1,62.0 L 233.7,72.4" style="fill:none;fill-rule:evenodd;stroke:#000000;stroke-width:2.0px;stroke-linecap:butt;stroke-linejoin:miter;stroke-opacity:1"/>
<path class="bond-24 atom-23 atom-25" d="M 233.7,72.4 L 228.4,82.8" style="fill:none;fill-rule:evenodd;stroke:#FF0000;stroke-width:2.0px;stroke-linecap:butt;stroke-linejoin:miter;stroke-opacity:1"/>
<path d="M 208.3,14.0 L 207.5,12.8 L 206.9,12.8" style="fill:none;stroke:#000000;stroke-width:2.0px;stroke-linecap:butt;stroke-linejoin:miter;stroke-opacity:1;"/>
<path d="M 200.0,52.4 L 198.7,53.2 L 198.8,54.6" style="fill:none;stroke:#000000;stroke-width:2.0px;stroke-linecap:butt;stroke-linejoin:miter;stroke-opacity:1;"/>
<path d="M 200.0,80.9 L 200.1,82.4 L 198.9,83.1" style="fill:none;stroke:#000000;stroke-width:2.0px;stroke-linecap:butt;stroke-linejoin:miter;stroke-opacity:1;"/>
<path d="M 176.7,97.4 L 175.5,98.1 L 175.6,99.6" style="fill:none;stroke:#000000;stroke-width:2.0px;stroke-linecap:butt;stroke-linejoin:miter;stroke-opacity:1;"/>
<path d="M 149.2,128.6 L 147.7,128.7 L 146.9,127.5" style="fill:none;stroke:#000000;stroke-width:2.0px;stroke-linecap:butt;stroke-linejoin:miter;stroke-opacity:1;"/>
<path d="M 132.7,105.3 L 131.9,104.1 L 130.5,104.2" style="fill:none;stroke:#000000;stroke-width:2.0px;stroke-linecap:butt;stroke-linejoin:miter;stroke-opacity:1;"/>
<path d="M 104.2,105.4 L 102.7,105.5 L 102.0,104.3" style="fill:none;stroke:#000000;stroke-width:2.0px;stroke-linecap:butt;stroke-linejoin:miter;stroke-opacity:1;"/>
<path d="M 238.3,60.7 L 239.1,62.0 L 238.8,62.5" style="fill:none;stroke:#000000;stroke-width:2.0px;stroke-linecap:butt;stroke-linejoin:miter;stroke-opacity:1;"/>
<path class="atom-3" d="M 166.4 10.1 L 167.5 10.1 L 167.5 13.6 L 171.7 13.6 L 171.7 10.1 L 172.8 10.1 L 172.8 18.4 L 171.7 18.4 L 171.7 14.5 L 167.5 14.5 L 167.5 18.4 L 166.4 18.4 L 166.4 10.1 " fill="#FF0000"/>
<path class="atom-3" d="M 174.5 14.2 Q 174.5 12.2, 175.5 11.1 Q 176.5 10.0, 178.3 10.0 Q 180.2 10.0, 181.2 11.1 Q 182.1 12.2, 182.1 14.2 Q 182.1 16.2, 181.1 17.4 Q 180.2 18.5, 178.3 18.5 Q 176.5 18.5, 175.5 17.4 Q 174.5 16.2, 174.5 14.2 M 178.3 17.6 Q 179.6 17.6, 180.3 16.7 Q 181.0 15.9, 181.0 14.2 Q 181.0 12.6, 180.3 11.8 Q 179.6 10.9, 178.3 10.9 Q 177.1 10.9, 176.4 11.8 Q 175.7 12.6, 175.7 14.2 Q 175.7 15.9, 176.4 16.7 Q 177.1 17.6, 178.3 17.6 " fill="#FF0000"/>
<path class="atom-16" d="M 43.4 27.7 L 44.5 27.7 L 44.5 31.2 L 48.8 31.2 L 48.8 27.7 L 49.9 27.7 L 49.9 35.9 L 48.8 35.9 L 48.8 32.1 L 44.5 32.1 L 44.5 35.9 L 43.4 35.9 L 43.4 27.7 " fill="#FF0000"/>
<path class="atom-16" d="M 51.6 31.8 Q 51.6 29.8, 52.6 28.7 Q 53.6 27.6, 55.4 27.6 Q 57.2 27.6, 58.2 28.7 Q 59.2 29.8, 59.2 31.8 Q 59.2 33.8, 58.2 34.9 Q 57.2 36.1, 55.4 36.1 Q 53.6 36.1, 52.6 34.9 Q 51.6 33.8, 51.6 31.8 M 55.4 35.1 Q 56.7 35.1, 57.3 34.3 Q 58.0 33.4, 58.0 31.8 Q 58.0 30.1, 57.3 29.3 Q 56.7 28.5, 55.4 28.5 Q 54.1 28.5, 53.4 29.3 Q 52.8 30.1, 52.8 31.8 Q 52.8 33.4, 53.4 34.3 Q 54.1 35.1, 55.4 35.1 " fill="#FF0000"/>
<path class="atom-17" d="M 92.0 40.6 Q 92.0 38.6, 92.9 37.5 Q 93.9 36.4, 95.8 36.4 Q 97.6 36.4, 98.6 37.5 Q 99.6 38.6, 99.6 40.6 Q 99.6 42.6, 98.6 43.7 Q 97.6 44.9, 95.8 44.9 Q 93.9 44.9, 92.9 43.7 Q 92.0 42.6, 92.0 40.6 M 95.8 43.9 Q 97.0 43.9, 97.7 43.1 Q 98.4 42.2, 98.4 40.6 Q 98.4 38.9, 97.7 38.1 Q 97.0 37.3, 95.8 37.3 Q 94.5 37.3, 93.8 38.1 Q 93.1 38.9, 93.1 40.6 Q 93.1 42.2, 93.8 43.1 Q 94.5 43.9, 95.8 43.9 " fill="#FF0000"/>
<path class="atom-17" d="M 100.8 36.5 L 102.0 36.5 L 102.0 40.0 L 106.2 40.0 L 106.2 36.5 L 107.3 36.5 L 107.3 44.7 L 106.2 44.7 L 106.2 40.9 L 102.0 40.9 L 102.0 44.7 L 100.8 44.7 L 100.8 36.5 " fill="#FF0000"/>
<path class="atom-18" d="M 34.6 68.0 L 35.7 68.0 L 35.7 71.5 L 40.0 71.5 L 40.0 68.0 L 41.1 68.0 L 41.1 76.3 L 40.0 76.3 L 40.0 72.5 L 35.7 72.5 L 35.7 76.3 L 34.6 76.3 L 34.6 68.0 " fill="#FF0000"/>
<path class="atom-18" d="M 42.8 72.1 Q 42.8 70.2, 43.8 69.0 Q 44.8 67.9, 46.6 67.9 Q 48.4 67.9, 49.4 69.0 Q 50.4 70.2, 50.4 72.1 Q 50.4 74.1, 49.4 75.3 Q 48.4 76.4, 46.6 76.4 Q 44.8 76.4, 43.8 75.3 Q 42.8 74.2, 42.8 72.1 M 46.6 75.5 Q 47.9 75.5, 48.5 74.7 Q 49.2 73.8, 49.2 72.1 Q 49.2 70.5, 48.5 69.7 Q 47.9 68.9, 46.6 68.9 Q 45.3 68.9, 44.6 69.7 Q 44.0 70.5, 44.0 72.1 Q 44.0 73.8, 44.6 74.7 Q 45.3 75.5, 46.6 75.5 " fill="#FF0000"/>
<path class="atom-20" d="M 175.9 185.7 Q 175.9 183.7, 176.8 182.6 Q 177.8 181.5, 179.7 181.5 Q 181.5 181.5, 182.5 182.6 Q 183.5 183.7, 183.5 185.7 Q 183.5 187.7, 182.5 188.9 Q 181.5 190.0, 179.7 190.0 Q 177.8 190.0, 176.8 188.9 Q 175.9 187.7, 175.9 185.7 M 179.7 189.1 Q 180.9 189.1, 181.6 188.2 Q 182.3 187.4, 182.3 185.7 Q 182.3 184.1, 181.6 183.3 Q 180.9 182.4, 179.7 182.4 Q 178.4 182.4, 177.7 183.3 Q 177.0 184.1, 177.0 185.7 Q 177.0 187.4, 177.7 188.2 Q 178.4 189.1, 179.7 189.1 " fill="#FF0000"/>
<path class="atom-20" d="M 184.7 181.6 L 185.9 181.6 L 185.9 185.1 L 190.1 185.1 L 190.1 181.6 L 191.2 181.6 L 191.2 189.9 L 190.1 189.9 L 190.1 186.1 L 185.9 186.1 L 185.9 189.9 L 184.7 189.9 L 184.7 181.6 " fill="#FF0000"/>
<path class="atom-21" d="M 203.7 155.2 Q 203.7 153.2, 204.6 152.1 Q 205.6 150.9, 207.5 150.9 Q 209.3 150.9, 210.3 152.1 Q 211.3 153.2, 211.3 155.2 Q 211.3 157.2, 210.3 158.3 Q 209.3 159.4, 207.5 159.4 Q 205.6 159.4, 204.6 158.3 Q 203.7 157.2, 203.7 155.2 M 207.5 158.5 Q 208.7 158.5, 209.4 157.7 Q 210.1 156.8, 210.1 155.2 Q 210.1 153.5, 209.4 152.7 Q 208.7 151.9, 207.5 151.9 Q 206.2 151.9, 205.5 152.7 Q 204.8 153.5, 204.8 155.2 Q 204.8 156.8, 205.5 157.7 Q 206.2 158.5, 207.5 158.5 " fill="#FF0000"/>
<path class="atom-21" d="M 212.5 151.0 L 213.7 151.0 L 213.7 154.6 L 217.9 154.6 L 217.9 151.0 L 219.0 151.0 L 219.0 159.3 L 217.9 159.3 L 217.9 155.5 L 213.7 155.5 L 213.7 159.3 L 212.5 159.3 L 212.5 151.0 " fill="#FF0000"/>
<path class="atom-22" d="M 137.1 153.8 L 138.2 153.8 L 138.2 157.3 L 142.5 157.3 L 142.5 153.8 L 143.6 153.8 L 143.6 162.1 L 142.5 162.1 L 142.5 158.2 L 138.2 158.2 L 138.2 162.1 L 137.1 162.1 L 137.1 153.8 " fill="#FF0000"/>
<path class="atom-22" d="M 145.3 157.9 Q 145.3 155.9, 146.3 154.8 Q 147.3 153.7, 149.1 153.7 Q 150.9 153.7, 151.9 154.8 Q 152.9 155.9, 152.9 157.9 Q 152.9 159.9, 151.9 161.1 Q 150.9 162.2, 149.1 162.2 Q 147.3 162.2, 146.3 161.1 Q 145.3 159.9, 145.3 157.9 M 149.1 161.3 Q 150.4 161.3, 151.0 160.4 Q 151.7 159.6, 151.7 157.9 Q 151.7 156.3, 151.0 155.5 Q 150.4 154.6, 149.1 154.6 Q 147.8 154.6, 147.1 155.5 Q 146.5 156.3, 146.5 157.9 Q 146.5 159.6, 147.1 160.4 Q 147.8 161.3, 149.1 161.3 " fill="#FF0000"/>
<path class="atom-24" d="M 264.5 60.6 Q 264.5 58.6, 265.5 57.5 Q 266.4 56.4, 268.3 56.4 Q 270.1 56.4, 271.1 57.5 Q 272.1 58.6, 272.1 60.6 Q 272.1 62.6, 271.1 63.8 Q 270.1 64.9, 268.3 64.9 Q 266.5 64.9, 265.5 63.8 Q 264.5 62.6, 264.5 60.6 M 268.3 64.0 Q 269.5 64.0, 270.2 63.1 Q 270.9 62.3, 270.9 60.6 Q 270.9 59.0, 270.2 58.2 Q 269.5 57.3, 268.3 57.3 Q 267.0 57.3, 266.3 58.2 Q 265.6 59.0, 265.6 60.6 Q 265.6 62.3, 266.3 63.1 Q 267.0 64.0, 268.3 64.0 " fill="#FF0000"/>
<path class="atom-25" d="M 213.7 83.8 L 214.8 83.8 L 214.8 87.4 L 219.1 87.4 L 219.1 83.8 L 220.2 83.8 L 220.2 92.1 L 219.1 92.1 L 219.1 88.3 L 214.8 88.3 L 214.8 92.1 L 213.7 92.1 L 213.7 83.8 " fill="#FF0000"/>
<path class="atom-25" d="M 221.9 88.0 Q 221.9 86.0, 222.9 84.9 Q 223.9 83.7, 225.7 83.7 Q 227.5 83.7, 228.5 84.9 Q 229.5 86.0, 229.5 88.0 Q 229.5 90.0, 228.5 91.1 Q 227.5 92.2, 225.7 92.2 Q 223.9 92.2, 222.9 91.1 Q 221.9 90.0, 221.9 88.0 M 225.7 91.3 Q 227.0 91.3, 227.6 90.5 Q 228.3 89.6, 228.3 88.0 Q 228.3 86.3, 227.6 85.5 Q 227.0 84.7, 225.7 84.7 Q 224.4 84.7, 223.7 85.5 Q 223.1 86.3, 223.1 88.0 Q 223.1 89.6, 223.7 90.5 Q 224.4 91.3, 225.7 91.3 " fill="#FF0000"/>
</g>
  </g>
</svg>
