<?xml version='1.0' encoding='ASCII' standalone='yes'?>
<svg xmlns="http://www.w3.org/2000/svg" xmlns:xlink="http://www.w3.org/1999/xlink" version="1.1" width="560.0px" viewBox="0 0 560.0 200.0" height="200.0px">
  <g>
    <g transform="translate(0, 0) scale(1 1) "><!-- END OF HEADER -->
<rect style="opacity:1.0;fill:#FFFFFF;stroke:none" width="260.0" height="200.0" x="0.0" y="0.0"> </rect>
<path class="bond-0 atom-0 atom-1" d="M 189.9,39.9 L 203.6,71.8" style="fill:none;fill-rule:evenodd;stroke:#000000;stroke-width:2.0px;stroke-linecap:butt;stroke-linejoin:miter;stroke-opacity:1"/>
<path class="bond-1 atom-1 atom-2" d="M 203.6,71.8 L 182.8,99.6" style="fill:none;fill-rule:evenodd;stroke:#000000;stroke-width:2.0px;stroke-linecap:butt;stroke-linejoin:miter;stroke-opacity:1"/>
<path class="bond-2 atom-2 atom-3" d="M 182.8,99.6 L 161.9,127.4" style="fill:none;fill-rule:evenodd;stroke:#000000;stroke-width:2.0px;stroke-linecap:butt;stroke-linejoin:miter;stroke-opacity:1"/>
<path class="bond-3 atom-2 atom-4" d="M 182.8,99.6 L 155.0,78.8" style="fill:none;fill-rule:evenodd;stroke:#000000;stroke-width:2.0px;stroke-linecap:butt;stroke-linejoin:miter;stroke-opacity:1"/>
<path class="bond-4 atom-4 atom-5" d="M 155.0,78.8 L 141.8,84.4" style="fill:none;fill-rule:evenodd;stroke:#000000;stroke-width:2.0px;stroke-linecap:butt;stroke-linejoin:miter;stroke-opacity:1"/>
<path class="bond-4 atom-4 atom-5" d="M 141.8,84.4 L 128.7,90.1" style="fill:none;fill-rule:evenodd;stroke:#FF0000;stroke-width:2.0px;stroke-linecap:butt;stroke-linejoin:miter;stroke-opacity:1"/>
<path class="bond-5 atom-5 atom-6" d="M 117.4,88.3 L 106.3,80.0" style="fill:none;fill-rule:evenodd;stroke:#FF0000;stroke-width:2.0px;stroke-linecap:butt;stroke-linejoin:miter;stroke-opacity:1"/>
<path class="bond-5 atom-5 atom-6" d="M 106.3,80.0 L 95.2,71.7" style="fill:none;fill-rule:evenodd;stroke:#000000;stroke-width:2.0px;stroke-linecap:butt;stroke-linejoin:miter;stroke-opacity:1"/>
<path class="bond-6 atom-6 atom-7" d="M 95.2,71.7 L 63.3,85.3" style="fill:none;fill-rule:evenodd;stroke:#000000;stroke-width:2.0px;stroke-linecap:butt;stroke-linejoin:miter;stroke-opacity:1"/>
<path class="bond-7 atom-7 atom-8" d="M 63.3,85.3 L 35.5,64.5" style="fill:none;fill-rule:evenodd;stroke:#000000;stroke-width:2.0px;stroke-linecap:butt;stroke-linejoin:miter;stroke-opacity:1"/>
<path class="bond-8 atom-7 atom-9" d="M 63.3,85.3 L 59.2,119.8" style="fill:none;fill-rule:evenodd;stroke:#000000;stroke-width:2.0px;stroke-linecap:butt;stroke-linejoin:miter;stroke-opacity:1"/>
<path class="bond-9 atom-9 atom-10" d="M 56.4,121.0 L 68.1,129.7" style="fill:none;fill-rule:evenodd;stroke:#000000;stroke-width:2.0px;stroke-linecap:butt;stroke-linejoin:miter;stroke-opacity:1"/>
<path class="bond-9 atom-9 atom-10" d="M 68.1,129.7 L 79.7,138.5" style="fill:none;fill-rule:evenodd;stroke:#FF0000;stroke-width:2.0px;stroke-linecap:butt;stroke-linejoin:miter;stroke-opacity:1"/>
<path class="bond-9 atom-9 atom-10" d="M 59.5,116.8 L 71.2,125.6" style="fill:none;fill-rule:evenodd;stroke:#000000;stroke-width:2.0px;stroke-linecap:butt;stroke-linejoin:miter;stroke-opacity:1"/>
<path class="bond-9 atom-9 atom-10" d="M 71.2,125.6 L 82.9,134.3" style="fill:none;fill-rule:evenodd;stroke:#FF0000;stroke-width:2.0px;stroke-linecap:butt;stroke-linejoin:miter;stroke-opacity:1"/>
<path class="bond-10 atom-9 atom-11" d="M 59.2,119.8 L 46.0,125.4" style="fill:none;fill-rule:evenodd;stroke:#000000;stroke-width:2.0px;stroke-linecap:butt;stroke-linejoin:miter;stroke-opacity:1"/>
<path class="bond-10 atom-9 atom-11" d="M 46.0,125.4 L 32.9,131.1" style="fill:none;fill-rule:evenodd;stroke:#FF0000;stroke-width:2.0px;stroke-linecap:butt;stroke-linejoin:miter;stroke-opacity:1"/>
<path class="bond-11 atom-2 atom-12" d="M 182.8,99.6 L 210.6,120.5" style="fill:none;fill-rule:evenodd;stroke:#000000;stroke-width:2.0px;stroke-linecap:butt;stroke-linejoin:miter;stroke-opacity:1"/>
<path class="bond-12 atom-12 atom-13" d="M 210.2,123.5 L 224.0,117.5" style="fill:none;fill-rule:evenodd;stroke:#000000;stroke-width:2.0px;stroke-linecap:butt;stroke-linejoin:miter;stroke-opacity:1"/>
<path class="bond-12 atom-12 atom-13" d="M 224.0,117.5 L 237.8,111.6" style="fill:none;fill-rule:evenodd;stroke:#FF0000;stroke-width:2.0px;stroke-linecap:butt;stroke-linejoin:miter;stroke-opacity:1"/>
<path class="bond-12 atom-12 atom-13" d="M 208.1,118.7 L 222.0,112.8" style="fill:none;fill-rule:evenodd;stroke:#000000;stroke-width:2.0px;stroke-linecap:butt;stroke-linejoin:miter;stroke-opacity:1"/>
<path class="bond-12 atom-12 atom-13" d="M 222.0,112.8 L 235.8,106.8" style="fill:none;fill-rule:evenodd;stroke:#FF0000;stroke-width:2.0px;stroke-linecap:butt;stroke-linejoin:miter;stroke-opacity:1"/>
<path class="bond-13 atom-12 atom-14" d="M 210.6,120.5 L 208.9,134.7" style="fill:none;fill-rule:evenodd;stroke:#000000;stroke-width:2.0px;stroke-linecap:butt;stroke-linejoin:miter;stroke-opacity:1"/>
<path class="bond-13 atom-12 atom-14" d="M 208.9,134.7 L 207.2,148.8" style="fill:none;fill-rule:evenodd;stroke:#FF0000;stroke-width:2.0px;stroke-linecap:butt;stroke-linejoin:miter;stroke-opacity:1"/>
<path d="M 202.9,70.3 L 203.6,71.8 L 202.5,73.2" style="fill:none;stroke:#000000;stroke-width:2.0px;stroke-linecap:butt;stroke-linejoin:miter;stroke-opacity:1;"/>
<path d="M 156.3,79.9 L 155.0,78.8 L 154.3,79.1" style="fill:none;stroke:#000000;stroke-width:2.0px;stroke-linecap:butt;stroke-linejoin:miter;stroke-opacity:1;"/>
<path d="M 95.8,72.1 L 95.2,71.7 L 93.6,72.4" style="fill:none;stroke:#000000;stroke-width:2.0px;stroke-linecap:butt;stroke-linejoin:miter;stroke-opacity:1;"/>
<path d="M 59.4,118.1 L 59.2,119.8 L 58.5,120.1" style="fill:none;stroke:#000000;stroke-width:2.0px;stroke-linecap:butt;stroke-linejoin:miter;stroke-opacity:1;"/>
<path d="M 209.2,119.4 L 210.6,120.5 L 210.5,121.2" style="fill:none;stroke:#000000;stroke-width:2.0px;stroke-linecap:butt;stroke-linejoin:miter;stroke-opacity:1;"/>
<path class="atom-5" d="M 118.5 92.5 Q 118.5 90.2, 119.7 88.8 Q 120.8 87.5, 123.0 87.5 Q 125.2 87.5, 126.4 88.8 Q 127.5 90.2, 127.5 92.5 Q 127.5 94.9, 126.4 96.3 Q 125.2 97.6, 123.0 97.6 Q 120.9 97.6, 119.7 96.3 Q 118.5 94.9, 118.5 92.5 M 123.0 96.5 Q 124.5 96.5, 125.3 95.5 Q 126.1 94.5, 126.1 92.5 Q 126.1 90.6, 125.3 89.6 Q 124.5 88.6, 123.0 88.6 Q 121.5 88.6, 120.7 89.6 Q 119.9 90.6, 119.9 92.5 Q 119.9 94.5, 120.7 95.5 Q 121.5 96.5, 123.0 96.5 " fill="#FF0000"/>
<path class="atom-10" d="M 82.4 140.7 Q 82.4 138.3, 83.6 137.0 Q 84.8 135.7, 87.0 135.7 Q 89.1 135.7, 90.3 137.0 Q 91.5 138.3, 91.5 140.7 Q 91.5 143.1, 90.3 144.4 Q 89.1 145.8, 87.0 145.8 Q 84.8 145.8, 83.6 144.4 Q 82.4 143.1, 82.4 140.7 M 87.0 144.7 Q 88.5 144.7, 89.3 143.7 Q 90.1 142.6, 90.1 140.7 Q 90.1 138.7, 89.3 137.8 Q 88.5 136.8, 87.0 136.8 Q 85.5 136.8, 84.6 137.8 Q 83.8 138.7, 83.8 140.7 Q 83.8 142.7, 84.6 143.7 Q 85.5 144.7, 87.0 144.7 " fill="#FF0000"/>
<path class="atom-11" d="M 13.0 128.6 L 14.3 128.6 L 14.3 132.8 L 19.4 132.8 L 19.4 128.6 L 20.7 128.6 L 20.7 138.5 L 19.4 138.5 L 19.4 133.9 L 14.3 133.9 L 14.3 138.5 L 13.0 138.5 L 13.0 128.6 " fill="#FF0000"/>
<path class="atom-11" d="M 22.7 133.5 Q 22.7 131.1, 23.9 129.8 Q 25.0 128.5, 27.2 128.5 Q 29.4 128.5, 30.6 129.8 Q 31.7 131.1, 31.7 133.5 Q 31.7 135.9, 30.6 137.3 Q 29.4 138.6, 27.2 138.6 Q 25.1 138.6, 23.9 137.3 Q 22.7 135.9, 22.7 133.5 M 27.2 137.5 Q 28.7 137.5, 29.5 136.5 Q 30.4 135.5, 30.4 133.5 Q 30.4 131.6, 29.5 130.6 Q 28.7 129.6, 27.2 129.6 Q 25.7 129.6, 24.9 130.6 Q 24.1 131.6, 24.1 133.5 Q 24.1 135.5, 24.9 136.5 Q 25.7 137.5, 27.2 137.5 " fill="#FF0000"/>
<path class="atom-13" d="M 238.0 106.8 Q 238.0 104.5, 239.1 103.2 Q 240.3 101.8, 242.5 101.8 Q 244.7 101.8, 245.8 103.2 Q 247.0 104.5, 247.0 106.8 Q 247.0 109.2, 245.8 110.6 Q 244.6 111.9, 242.5 111.9 Q 240.3 111.9, 239.1 110.6 Q 238.0 109.2, 238.0 106.8 M 242.5 110.8 Q 244.0 110.8, 244.8 109.8 Q 245.6 108.8, 245.6 106.8 Q 245.6 104.9, 244.8 103.9 Q 244.0 102.9, 242.5 102.9 Q 241.0 102.9, 240.2 103.9 Q 239.4 104.9, 239.4 106.8 Q 239.4 108.8, 240.2 109.8 Q 241.0 110.8, 242.5 110.8 " fill="#FF0000"/>
<path class="atom-14" d="M 201.9 155.0 Q 201.9 152.6, 203.1 151.3 Q 204.2 150.0, 206.4 150.0 Q 208.6 150.0, 209.8 151.3 Q 210.9 152.6, 210.9 155.0 Q 210.9 157.4, 209.8 158.7 Q 208.6 160.1, 206.4 160.1 Q 204.3 160.1, 203.1 158.7 Q 201.9 157.4, 201.9 155.0 M 206.4 159.0 Q 207.9 159.0, 208.7 158.0 Q 209.5 157.0, 209.5 155.0 Q 209.5 153.1, 208.7 152.1 Q 207.9 151.1, 206.4 151.1 Q 204.9 151.1, 204.1 152.1 Q 203.3 153.0, 203.3 155.0 Q 203.3 157.0, 204.1 158.0 Q 204.9 159.0, 206.4 159.0 " fill="#FF0000"/>
<path class="atom-14" d="M 212.5 150.1 L 213.8 150.1 L 213.8 154.3 L 218.8 154.3 L 218.8 150.1 L 220.2 150.1 L 220.2 159.9 L 218.8 159.9 L 218.8 155.4 L 213.8 155.4 L 213.8 159.9 L 212.5 159.9 L 212.5 150.1 " fill="#FF0000"/>
</g>
    <g transform="translate(260.0, 0) scale(1 1) "><line x1="5" y1="100" x2="35" y2="100" style="stroke:rgb(0,0,0);stroke-width:2"/>
  <line x1="34" y1="100" x2="29" y2="95" style="stroke:rgb(0,0,0);stroke-width:2"/>
  <line x1="34" y1="100" x2="29" y2="105" style="stroke:rgb(0,0,0);stroke-width:2"/>
</g>
    <g transform="translate(300.0, 0) scale(1 1) "><!-- END OF HEADER -->
<rect style="opacity:1.0;fill:#FFFFFF;stroke:none" width="260.0" height="200.0" x="0.0" y="0.0"> </rect>
<path class="bond-0 atom-0 atom-1" d="M 193.0,43.5 L 182.6,78.0" style="fill:none;fill-rule:evenodd;stroke:#000000;stroke-width:2.0px;stroke-linecap:butt;stroke-linejoin:miter;stroke-opacity:1"/>
<path class="bond-1 atom-1 atom-2" d="M 182.6,78.0 L 147.5,86.2" style="fill:none;fill-rule:evenodd;stroke:#000000;stroke-width:2.0px;stroke-linecap:butt;stroke-linejoin:miter;stroke-opacity:1"/>
<path class="bond-2 atom-2 atom-3" d="M 147.5,86.2 L 143.3,100.2" style="fill:none;fill-rule:evenodd;stroke:#000000;stroke-width:2.0px;stroke-linecap:butt;stroke-linejoin:miter;stroke-opacity:1"/>
<path class="bond-2 atom-2 atom-3" d="M 143.3,100.2 L 139.0,114.3" style="fill:none;fill-rule:evenodd;stroke:#FF0000;stroke-width:2.0px;stroke-linecap:butt;stroke-linejoin:miter;stroke-opacity:1"/>
<path class="bond-3 atom-3 atom-4" d="M 131.2,122.0 L 116.6,125.4" style="fill:none;fill-rule:evenodd;stroke:#FF0000;stroke-width:2.0px;stroke-linecap:butt;stroke-linejoin:miter;stroke-opacity:1"/>
<path class="bond-3 atom-3 atom-4" d="M 116.6,125.4 L 102.0,128.8" style="fill:none;fill-rule:evenodd;stroke:#000000;stroke-width:2.0px;stroke-linecap:butt;stroke-linejoin:miter;stroke-opacity:1"/>
<path class="bond-4 atom-4 atom-5" d="M 102.0,128.8 L 91.6,163.3" style="fill:none;fill-rule:evenodd;stroke:#000000;stroke-width:2.0px;stroke-linecap:butt;stroke-linejoin:miter;stroke-opacity:1"/>
<path class="bond-5 atom-4 atom-6" d="M 102.0,128.8 L 77.4,102.6" style="fill:none;fill-rule:evenodd;stroke:#000000;stroke-width:2.0px;stroke-linecap:butt;stroke-linejoin:miter;stroke-opacity:1"/>
<path class="bond-6 atom-6 atom-7" d="M 77.4,102.6 L 103.7,77.9" style="fill:none;fill-rule:evenodd;stroke:#000000;stroke-width:2.0px;stroke-linecap:butt;stroke-linejoin:miter;stroke-opacity:1"/>
<path class="bond-7 atom-6 atom-8" d="M 77.4,102.6 L 51.1,127.2" style="fill:none;fill-rule:evenodd;stroke:#000000;stroke-width:2.0px;stroke-linecap:butt;stroke-linejoin:miter;stroke-opacity:1"/>
<path class="bond-8 atom-6 atom-9" d="M 77.4,102.6 L 52.8,76.3" style="fill:none;fill-rule:evenodd;stroke:#000000;stroke-width:2.0px;stroke-linecap:butt;stroke-linejoin:miter;stroke-opacity:1"/>
<path class="bond-9 atom-9 atom-10" d="M 53.7,73.3 L 38.3,76.9" style="fill:none;fill-rule:evenodd;stroke:#000000;stroke-width:2.0px;stroke-linecap:butt;stroke-linejoin:miter;stroke-opacity:1"/>
<path class="bond-9 atom-9 atom-10" d="M 38.3,76.9 L 22.9,80.5" style="fill:none;fill-rule:evenodd;stroke:#FF0000;stroke-width:2.0px;stroke-linecap:butt;stroke-linejoin:miter;stroke-opacity:1"/>
<path class="bond-9 atom-9 atom-10" d="M 54.9,78.6 L 39.5,82.2" style="fill:none;fill-rule:evenodd;stroke:#000000;stroke-width:2.0px;stroke-linecap:butt;stroke-linejoin:miter;stroke-opacity:1"/>
<path class="bond-9 atom-9 atom-10" d="M 39.5,82.2 L 24.2,85.8" style="fill:none;fill-rule:evenodd;stroke:#FF0000;stroke-width:2.0px;stroke-linecap:butt;stroke-linejoin:miter;stroke-opacity:1"/>
<path class="bond-10 atom-9 atom-11" d="M 52.8,76.3 L 57.0,62.3" style="fill:none;fill-rule:evenodd;stroke:#000000;stroke-width:2.0px;stroke-linecap:butt;stroke-linejoin:miter;stroke-opacity:1"/>
<path class="bond-10 atom-9 atom-11" d="M 57.0,62.3 L 61.2,48.3" style="fill:none;fill-rule:evenodd;stroke:#FF0000;stroke-width:2.0px;stroke-linecap:butt;stroke-linejoin:miter;stroke-opacity:1"/>
<path class="bond-11 atom-1 atom-12" d="M 182.6,78.0 L 207.2,104.2" style="fill:none;fill-rule:evenodd;stroke:#000000;stroke-width:2.0px;stroke-linecap:butt;stroke-linejoin:miter;stroke-opacity:1"/>
<path class="bond-12 atom-12 atom-13" d="M 206.3,107.2 L 221.7,103.6" style="fill:none;fill-rule:evenodd;stroke:#000000;stroke-width:2.0px;stroke-linecap:butt;stroke-linejoin:miter;stroke-opacity:1"/>
<path class="bond-12 atom-12 atom-13" d="M 221.7,103.6 L 237.1,100.0" style="fill:none;fill-rule:evenodd;stroke:#FF0000;stroke-width:2.0px;stroke-linecap:butt;stroke-linejoin:miter;stroke-opacity:1"/>
<path class="bond-12 atom-12 atom-13" d="M 205.1,102.0 L 220.5,98.4" style="fill:none;fill-rule:evenodd;stroke:#000000;stroke-width:2.0px;stroke-linecap:butt;stroke-linejoin:miter;stroke-opacity:1"/>
<path class="bond-12 atom-12 atom-13" d="M 220.5,98.4 L 235.8,94.8" style="fill:none;fill-rule:evenodd;stroke:#FF0000;stroke-width:2.0px;stroke-linecap:butt;stroke-linejoin:miter;stroke-opacity:1"/>
<path class="bond-13 atom-12 atom-14" d="M 207.2,104.2 L 203.0,118.3" style="fill:none;fill-rule:evenodd;stroke:#000000;stroke-width:2.0px;stroke-linecap:butt;stroke-linejoin:miter;stroke-opacity:1"/>
<path class="bond-13 atom-12 atom-14" d="M 203.0,118.3 L 198.7,132.4" style="fill:none;fill-rule:evenodd;stroke:#FF0000;stroke-width:2.0px;stroke-linecap:butt;stroke-linejoin:miter;stroke-opacity:1"/>
<path d="M 149.3,85.8 L 147.5,86.2 L 147.3,86.9" style="fill:none;stroke:#000000;stroke-width:2.0px;stroke-linecap:butt;stroke-linejoin:miter;stroke-opacity:1;"/>
<path d="M 54.0,77.6 L 52.8,76.3 L 53.0,75.6" style="fill:none;stroke:#000000;stroke-width:2.0px;stroke-linecap:butt;stroke-linejoin:miter;stroke-opacity:1;"/>
<path d="M 206.0,102.9 L 207.2,104.2 L 207.0,104.9" style="fill:none;stroke:#000000;stroke-width:2.0px;stroke-linecap:butt;stroke-linejoin:miter;stroke-opacity:1;"/>
<path class="atom-3" d="M 132.4 120.7 Q 132.4 118.2, 133.6 116.9 Q 134.8 115.5, 137.1 115.5 Q 139.4 115.5, 140.6 116.9 Q 141.8 118.2, 141.8 120.7 Q 141.8 123.2, 140.6 124.6 Q 139.3 126.0, 137.1 126.0 Q 134.9 126.0, 133.6 124.6 Q 132.4 123.2, 132.4 120.7 M 137.1 124.8 Q 138.7 124.8, 139.5 123.8 Q 140.3 122.7, 140.3 120.7 Q 140.3 118.7, 139.5 117.7 Q 138.7 116.6, 137.1 116.6 Q 135.5 116.6, 134.7 117.7 Q 133.9 118.7, 133.9 120.7 Q 133.9 122.7, 134.7 123.8 Q 135.5 124.8, 137.1 124.8 " fill="#FF0000"/>
<path class="atom-10" d="M 13.0 84.5 Q 13.0 82.1, 14.2 80.7 Q 15.4 79.4, 17.7 79.4 Q 19.9 79.4, 21.2 80.7 Q 22.4 82.1, 22.4 84.5 Q 22.4 87.0, 21.1 88.4 Q 19.9 89.8, 17.7 89.8 Q 15.4 89.8, 14.2 88.4 Q 13.0 87.0, 13.0 84.5 M 17.7 88.7 Q 19.2 88.7, 20.1 87.6 Q 20.9 86.6, 20.9 84.5 Q 20.9 82.5, 20.1 81.5 Q 19.2 80.5, 17.7 80.5 Q 16.1 80.5, 15.3 81.5 Q 14.4 82.5, 14.4 84.5 Q 14.4 86.6, 15.3 87.6 Q 16.1 88.7, 17.7 88.7 " fill="#FF0000"/>
<path class="atom-11" d="M 58.5 41.9 Q 58.5 39.4, 59.7 38.0 Q 60.9 36.7, 63.2 36.7 Q 65.4 36.7, 66.7 38.0 Q 67.9 39.4, 67.9 41.9 Q 67.9 44.3, 66.6 45.8 Q 65.4 47.2, 63.2 47.2 Q 60.9 47.2, 59.7 45.8 Q 58.5 44.4, 58.5 41.9 M 63.2 46.0 Q 64.7 46.0, 65.6 45.0 Q 66.4 43.9, 66.4 41.9 Q 66.4 39.9, 65.6 38.9 Q 64.7 37.8, 63.2 37.8 Q 61.6 37.8, 60.8 38.8 Q 59.9 39.8, 59.9 41.9 Q 59.9 43.9, 60.8 45.0 Q 61.6 46.0, 63.2 46.0 " fill="#FF0000"/>
<path class="atom-11" d="M 69.5 36.8 L 70.8 36.8 L 70.8 41.1 L 76.1 41.1 L 76.1 36.8 L 77.4 36.8 L 77.4 47.0 L 76.1 47.0 L 76.1 42.3 L 70.8 42.3 L 70.8 47.0 L 69.5 47.0 L 69.5 36.8 " fill="#FF0000"/>
<path class="atom-13" d="M 237.6 96.1 Q 237.6 93.6, 238.8 92.2 Q 240.1 90.9, 242.3 90.9 Q 244.6 90.9, 245.8 92.2 Q 247.0 93.6, 247.0 96.1 Q 247.0 98.5, 245.8 100.0 Q 244.6 101.4, 242.3 101.4 Q 240.1 101.4, 238.8 100.0 Q 237.6 98.6, 237.6 96.1 M 242.3 100.2 Q 243.9 100.2, 244.7 99.2 Q 245.6 98.1, 245.6 96.1 Q 245.6 94.1, 244.7 93.1 Q 243.9 92.0, 242.3 92.0 Q 240.8 92.0, 239.9 93.0 Q 239.1 94.0, 239.1 96.1 Q 239.1 98.1, 239.9 99.2 Q 240.8 100.2, 242.3 100.2 " fill="#FF0000"/>
<path class="atom-14" d="M 192.1 138.7 Q 192.1 136.3, 193.3 134.9 Q 194.6 133.6, 196.8 133.6 Q 199.1 133.6, 200.3 134.9 Q 201.5 136.3, 201.5 138.7 Q 201.5 141.2, 200.3 142.6 Q 199.0 144.0, 196.8 144.0 Q 194.6 144.0, 193.3 142.6 Q 192.1 141.2, 192.1 138.7 M 196.8 142.9 Q 198.4 142.9, 199.2 141.8 Q 200.1 140.8, 200.1 138.7 Q 200.1 136.7, 199.2 135.7 Q 198.4 134.7, 196.8 134.7 Q 195.3 134.7, 194.4 135.7 Q 193.6 136.7, 193.6 138.7 Q 193.6 140.8, 194.4 141.8 Q 195.3 142.9, 196.8 142.9 " fill="#FF0000"/>
<path class="atom-14" d="M 203.1 133.7 L 204.5 133.7 L 204.5 138.0 L 209.7 138.0 L 209.7 133.7 L 211.1 133.7 L 211.1 143.9 L 209.7 143.9 L 209.7 139.2 L 204.5 139.2 L 204.5 143.9 L 203.1 143.9 L 203.1 133.7 " fill="#FF0000"/>
</g>
  </g>
</svg>
