<?xml version='1.0' encoding='ASCII' standalone='yes'?>
<svg xmlns="http://www.w3.org/2000/svg" xmlns:xlink="http://www.w3.org/1999/xlink" version="1.1" width="937.0px" viewBox="0 0 937.0 200.0" height="200.0px">
  <g>
    <g transform="translate(0, 0) scale(1 1) "><!-- END OF HEADER -->
<rect style="opacity:1.0;fill:#FFFFFF;stroke:none" width="289.0" height="200.0" x="0.0" y="0.0"> </rect>
<path class="bond-0 atom-0 atom-1" d="M 79.8,29.7 L 78.5,62.7" style="fill:none;fill-rule:evenodd;stroke:#000000;stroke-width:2.0px;stroke-linecap:butt;stroke-linejoin:miter;stroke-opacity:1"/>
<path class="bond-1 atom-1 atom-2" d="M 78.5,62.7 L 77.2,95.6" style="fill:none;fill-rule:evenodd;stroke:#000000;stroke-width:2.0px;stroke-linecap:butt;stroke-linejoin:miter;stroke-opacity:1"/>
<path class="bond-2 atom-1 atom-3" d="M 78.5,62.7 L 45.5,61.4" style="fill:none;fill-rule:evenodd;stroke:#000000;stroke-width:2.0px;stroke-linecap:butt;stroke-linejoin:miter;stroke-opacity:1"/>
<path class="bond-3 atom-3 atom-4" d="M 45.5,61.4 L 38.6,72.5" style="fill:none;fill-rule:evenodd;stroke:#000000;stroke-width:2.0px;stroke-linecap:butt;stroke-linejoin:miter;stroke-opacity:1"/>
<path class="bond-3 atom-3 atom-4" d="M 38.6,72.5 L 31.6,83.5" style="fill:none;fill-rule:evenodd;stroke:#FF0000;stroke-width:2.0px;stroke-linecap:butt;stroke-linejoin:miter;stroke-opacity:1"/>
<path class="bond-4 atom-1 atom-5" d="M 78.5,62.7 L 111.5,64.0" style="fill:none;fill-rule:evenodd;stroke:#000000;stroke-width:2.0px;stroke-linecap:butt;stroke-linejoin:miter;stroke-opacity:1"/>
<path class="bond-5 atom-5 atom-6" d="M 111.5,64.0 L 118.4,53.0" style="fill:none;fill-rule:evenodd;stroke:#000000;stroke-width:2.0px;stroke-linecap:butt;stroke-linejoin:miter;stroke-opacity:1"/>
<path class="bond-5 atom-5 atom-6" d="M 118.4,53.0 L 125.3,42.0" style="fill:none;fill-rule:evenodd;stroke:#FF0000;stroke-width:2.0px;stroke-linecap:butt;stroke-linejoin:miter;stroke-opacity:1"/>
<path class="bond-6 atom-5 atom-7" d="M 111.5,64.0 L 126.8,93.1" style="fill:none;fill-rule:evenodd;stroke:#000000;stroke-width:2.0px;stroke-linecap:butt;stroke-linejoin:miter;stroke-opacity:1"/>
<path class="bond-7 atom-7 atom-8" d="M 126.8,93.1 L 97.6,108.5" style="fill:none;fill-rule:evenodd;stroke:#000000;stroke-width:2.0px;stroke-linecap:butt;stroke-linejoin:miter;stroke-opacity:1"/>
<path class="bond-8 atom-7 atom-9" d="M 126.8,93.1 L 156.0,77.8" style="fill:none;fill-rule:evenodd;stroke:#000000;stroke-width:2.0px;stroke-linecap:butt;stroke-linejoin:miter;stroke-opacity:1"/>
<path class="bond-9 atom-9 atom-10" d="M 156.0,77.8 L 183.9,95.3" style="fill:none;fill-rule:evenodd;stroke:#000000;stroke-width:2.0px;stroke-linecap:butt;stroke-linejoin:miter;stroke-opacity:1"/>
<path class="bond-10 atom-10 atom-11" d="M 183.9,95.3 L 184.7,104.4" style="fill:none;fill-rule:evenodd;stroke:#000000;stroke-width:2.0px;stroke-linecap:butt;stroke-linejoin:miter;stroke-opacity:1"/>
<path class="bond-10 atom-10 atom-11" d="M 184.7,104.4 L 185.4,113.5" style="fill:none;fill-rule:evenodd;stroke:#FF0000;stroke-width:2.0px;stroke-linecap:butt;stroke-linejoin:miter;stroke-opacity:1"/>
<path class="bond-11 atom-10 atom-12" d="M 183.9,95.3 L 213.1,80.0" style="fill:none;fill-rule:evenodd;stroke:#000000;stroke-width:2.0px;stroke-linecap:butt;stroke-linejoin:miter;stroke-opacity:1"/>
<path class="bond-12 atom-12 atom-13" d="M 213.1,80.0 L 197.7,50.8" style="fill:none;fill-rule:evenodd;stroke:#000000;stroke-width:2.0px;stroke-linecap:butt;stroke-linejoin:miter;stroke-opacity:1"/>
<path class="bond-13 atom-12 atom-14" d="M 213.1,80.0 L 228.5,109.1" style="fill:none;fill-rule:evenodd;stroke:#000000;stroke-width:2.0px;stroke-linecap:butt;stroke-linejoin:miter;stroke-opacity:1"/>
<path class="bond-14 atom-12 atom-15" d="M 213.1,80.0 L 242.3,64.6" style="fill:none;fill-rule:evenodd;stroke:#000000;stroke-width:2.0px;stroke-linecap:butt;stroke-linejoin:miter;stroke-opacity:1"/>
<path class="bond-15 atom-15 atom-16" d="M 239.8,65.9 L 251.7,73.4" style="fill:none;fill-rule:evenodd;stroke:#000000;stroke-width:2.0px;stroke-linecap:butt;stroke-linejoin:miter;stroke-opacity:1"/>
<path class="bond-15 atom-15 atom-16" d="M 251.7,73.4 L 263.5,80.8" style="fill:none;fill-rule:evenodd;stroke:#FF0000;stroke-width:2.0px;stroke-linecap:butt;stroke-linejoin:miter;stroke-opacity:1"/>
<path class="bond-15 atom-15 atom-16" d="M 242.4,61.8 L 254.2,69.3" style="fill:none;fill-rule:evenodd;stroke:#000000;stroke-width:2.0px;stroke-linecap:butt;stroke-linejoin:miter;stroke-opacity:1"/>
<path class="bond-15 atom-15 atom-16" d="M 254.2,69.3 L 266.1,76.8" style="fill:none;fill-rule:evenodd;stroke:#FF0000;stroke-width:2.0px;stroke-linecap:butt;stroke-linejoin:miter;stroke-opacity:1"/>
<path class="bond-16 atom-15 atom-17" d="M 242.3,64.6 L 242.8,51.1" style="fill:none;fill-rule:evenodd;stroke:#000000;stroke-width:2.0px;stroke-linecap:butt;stroke-linejoin:miter;stroke-opacity:1"/>
<path class="bond-16 atom-15 atom-17" d="M 242.8,51.1 L 243.3,37.6" style="fill:none;fill-rule:evenodd;stroke:#FF0000;stroke-width:2.0px;stroke-linecap:butt;stroke-linejoin:miter;stroke-opacity:1"/>
<path class="bond-17 atom-7 atom-18" d="M 126.8,93.1 L 142.2,122.3" style="fill:none;fill-rule:evenodd;stroke:#000000;stroke-width:2.0px;stroke-linecap:butt;stroke-linejoin:miter;stroke-opacity:1"/>
<path class="bond-18 atom-18 atom-19" d="M 140.8,124.5 L 150.5,126.1" style="fill:none;fill-rule:evenodd;stroke:#000000;stroke-width:2.0px;stroke-linecap:butt;stroke-linejoin:miter;stroke-opacity:1"/>
<path class="bond-18 atom-18 atom-19" d="M 150.5,126.1 L 160.2,127.7" style="fill:none;fill-rule:evenodd;stroke:#FF0000;stroke-width:2.0px;stroke-linecap:butt;stroke-linejoin:miter;stroke-opacity:1"/>
<path class="bond-18 atom-18 atom-19" d="M 140.8,119.6 L 151.3,121.3" style="fill:none;fill-rule:evenodd;stroke:#000000;stroke-width:2.0px;stroke-linecap:butt;stroke-linejoin:miter;stroke-opacity:1"/>
<path class="bond-18 atom-18 atom-19" d="M 151.3,121.3 L 161.0,122.9" style="fill:none;fill-rule:evenodd;stroke:#FF0000;stroke-width:2.0px;stroke-linecap:butt;stroke-linejoin:miter;stroke-opacity:1"/>
<path class="bond-19 atom-18 atom-20" d="M 142.2,122.3 L 135.2,133.4" style="fill:none;fill-rule:evenodd;stroke:#000000;stroke-width:2.0px;stroke-linecap:butt;stroke-linejoin:miter;stroke-opacity:1"/>
<path class="bond-19 atom-18 atom-20" d="M 135.2,133.4 L 128.3,144.4" style="fill:none;fill-rule:evenodd;stroke:#FF0000;stroke-width:2.0px;stroke-linecap:butt;stroke-linejoin:miter;stroke-opacity:1"/>
<path d="M 47.2,61.5 L 45.5,61.4 L 45.2,62.0" style="fill:none;stroke:#000000;stroke-width:2.0px;stroke-linecap:butt;stroke-linejoin:miter;stroke-opacity:1;"/>
<path d="M 154.5,78.5 L 156.0,77.8 L 157.4,78.6" style="fill:none;stroke:#000000;stroke-width:2.0px;stroke-linecap:butt;stroke-linejoin:miter;stroke-opacity:1;"/>
<path d="M 240.8,65.4 L 242.3,64.6 L 242.3,63.9" style="fill:none;stroke:#000000;stroke-width:2.0px;stroke-linecap:butt;stroke-linejoin:miter;stroke-opacity:1;"/>
<path d="M 141.4,120.9 L 142.2,122.3 L 141.9,122.9" style="fill:none;stroke:#000000;stroke-width:2.0px;stroke-linecap:butt;stroke-linejoin:miter;stroke-opacity:1;"/>
<path class="atom-4" d="M 14.4 84.7 L 15.7 84.7 L 15.7 88.7 L 20.5 88.7 L 20.5 84.7 L 21.8 84.7 L 21.8 94.0 L 20.5 94.0 L 20.5 89.7 L 15.7 89.7 L 15.7 94.0 L 14.4 94.0 L 14.4 84.7 " fill="#FF0000"/>
<path class="atom-4" d="M 23.7 89.3 Q 23.7 87.1, 24.8 85.8 Q 25.9 84.6, 28.0 84.6 Q 30.0 84.6, 31.1 85.8 Q 32.2 87.1, 32.2 89.3 Q 32.2 91.6, 31.1 92.9 Q 30.0 94.2, 28.0 94.2 Q 25.9 94.2, 24.8 92.9 Q 23.7 91.6, 23.7 89.3 M 28.0 93.1 Q 29.4 93.1, 30.2 92.2 Q 30.9 91.2, 30.9 89.3 Q 30.9 87.5, 30.2 86.6 Q 29.4 85.6, 28.0 85.6 Q 26.5 85.6, 25.8 86.6 Q 25.0 87.5, 25.0 89.3 Q 25.0 91.2, 25.8 92.2 Q 26.5 93.1, 28.0 93.1 " fill="#FF0000"/>
<path class="atom-6" d="M 124.7 36.1 Q 124.7 33.8, 125.9 32.6 Q 127.0 31.3, 129.0 31.3 Q 131.1 31.3, 132.2 32.6 Q 133.3 33.8, 133.3 36.1 Q 133.3 38.4, 132.2 39.6 Q 131.1 40.9, 129.0 40.9 Q 127.0 40.9, 125.9 39.6 Q 124.7 38.4, 124.7 36.1 M 129.0 39.9 Q 130.5 39.9, 131.2 38.9 Q 132.0 38.0, 132.0 36.1 Q 132.0 34.3, 131.2 33.3 Q 130.5 32.4, 129.0 32.4 Q 127.6 32.4, 126.8 33.3 Q 126.1 34.2, 126.1 36.1 Q 126.1 38.0, 126.8 38.9 Q 127.6 39.9, 129.0 39.9 " fill="#FF0000"/>
<path class="atom-6" d="M 134.8 31.4 L 136.0 31.4 L 136.0 35.4 L 140.8 35.4 L 140.8 31.4 L 142.1 31.4 L 142.1 40.8 L 140.8 40.8 L 140.8 36.5 L 136.0 36.5 L 136.0 40.8 L 134.8 40.8 L 134.8 31.4 " fill="#FF0000"/>
<path class="atom-11" d="M 181.6 119.3 Q 181.6 117.1, 182.7 115.8 Q 183.8 114.6, 185.9 114.6 Q 188.0 114.6, 189.1 115.8 Q 190.2 117.1, 190.2 119.3 Q 190.2 121.6, 189.1 122.9 Q 188.0 124.2, 185.9 124.2 Q 183.9 124.2, 182.7 122.9 Q 181.6 121.6, 181.6 119.3 M 185.9 123.1 Q 187.3 123.1, 188.1 122.2 Q 188.9 121.2, 188.9 119.3 Q 188.9 117.5, 188.1 116.6 Q 187.3 115.6, 185.9 115.6 Q 184.5 115.6, 183.7 116.6 Q 182.9 117.5, 182.9 119.3 Q 182.9 121.2, 183.7 122.2 Q 184.5 123.1, 185.9 123.1 " fill="#FF0000"/>
<path class="atom-11" d="M 191.7 114.7 L 192.9 114.7 L 192.9 118.7 L 197.7 118.7 L 197.7 114.7 L 199.0 114.7 L 199.0 124.0 L 197.7 124.0 L 197.7 119.7 L 192.9 119.7 L 192.9 124.0 L 191.7 124.0 L 191.7 114.7 " fill="#FF0000"/>
<path class="atom-16" d="M 265.9 82.2 Q 265.9 80.0, 267.0 78.7 Q 268.1 77.5, 270.2 77.5 Q 272.2 77.5, 273.3 78.7 Q 274.4 80.0, 274.4 82.2 Q 274.4 84.5, 273.3 85.8 Q 272.2 87.0, 270.2 87.0 Q 268.1 87.0, 267.0 85.8 Q 265.9 84.5, 265.9 82.2 M 270.2 86.0 Q 271.6 86.0, 272.4 85.0 Q 273.1 84.1, 273.1 82.2 Q 273.1 80.4, 272.4 79.4 Q 271.6 78.5, 270.2 78.5 Q 268.7 78.5, 268.0 79.4 Q 267.2 80.4, 267.2 82.2 Q 267.2 84.1, 268.0 85.0 Q 268.7 86.0, 270.2 86.0 " fill="#FF0000"/>
<path class="atom-17" d="M 239.2 31.7 Q 239.2 29.4, 240.4 28.2 Q 241.5 26.9, 243.5 26.9 Q 245.6 26.9, 246.7 28.2 Q 247.8 29.4, 247.8 31.7 Q 247.8 33.9, 246.7 35.2 Q 245.6 36.5, 243.5 36.5 Q 241.5 36.5, 240.4 35.2 Q 239.2 33.9, 239.2 31.7 M 243.5 35.5 Q 245.0 35.5, 245.7 34.5 Q 246.5 33.5, 246.5 31.7 Q 246.5 29.8, 245.7 28.9 Q 245.0 28.0, 243.5 28.0 Q 242.1 28.0, 241.3 28.9 Q 240.6 29.8, 240.6 31.7 Q 240.6 33.6, 241.3 34.5 Q 242.1 35.5, 243.5 35.5 " fill="#FF0000"/>
<path class="atom-17" d="M 249.3 27.0 L 250.5 27.0 L 250.5 31.0 L 255.3 31.0 L 255.3 27.0 L 256.6 27.0 L 256.6 36.4 L 255.3 36.4 L 255.3 32.0 L 250.5 32.0 L 250.5 36.4 L 249.3 36.4 L 249.3 27.0 " fill="#FF0000"/>
<path class="atom-19" d="M 161.6 126.2 Q 161.6 123.9, 162.8 122.7 Q 163.9 121.4, 165.9 121.4 Q 168.0 121.4, 169.1 122.7 Q 170.2 123.9, 170.2 126.2 Q 170.2 128.5, 169.1 129.8 Q 168.0 131.0, 165.9 131.0 Q 163.9 131.0, 162.8 129.8 Q 161.6 128.5, 161.6 126.2 M 165.9 130.0 Q 167.4 130.0, 168.1 129.0 Q 168.9 128.1, 168.9 126.2 Q 168.9 124.4, 168.1 123.4 Q 167.4 122.5, 165.9 122.5 Q 164.5 122.5, 163.7 123.4 Q 163.0 124.3, 163.0 126.2 Q 163.0 128.1, 163.7 129.0 Q 164.5 130.0, 165.9 130.0 " fill="#FF0000"/>
<path class="atom-20" d="M 111.1 145.6 L 112.4 145.6 L 112.4 149.6 L 117.2 149.6 L 117.2 145.6 L 118.4 145.6 L 118.4 154.9 L 117.2 154.9 L 117.2 150.6 L 112.4 150.6 L 112.4 154.9 L 111.1 154.9 L 111.1 145.6 " fill="#FF0000"/>
<path class="atom-20" d="M 120.3 150.2 Q 120.3 148.0, 121.4 146.7 Q 122.5 145.5, 124.6 145.5 Q 126.7 145.5, 127.8 146.7 Q 128.9 148.0, 128.9 150.2 Q 128.9 152.5, 127.8 153.8 Q 126.7 155.1, 124.6 155.1 Q 122.6 155.1, 121.4 153.8 Q 120.3 152.5, 120.3 150.2 M 124.6 154.0 Q 126.0 154.0, 126.8 153.1 Q 127.6 152.1, 127.6 150.2 Q 127.6 148.4, 126.8 147.5 Q 126.0 146.5, 124.6 146.5 Q 123.2 146.5, 122.4 147.5 Q 121.7 148.4, 121.7 150.2 Q 121.7 152.1, 122.4 153.1 Q 123.2 154.0, 124.6 154.0 " fill="#FF0000"/>
<path class="legend" d="M 135.9 181.9 Q 135.9 179.6, 136.6 177.7 Q 137.3 175.8, 138.6 173.8 L 139.5 174.4 Q 138.4 176.3, 137.9 178.0 Q 137.4 179.7, 137.4 181.9 Q 137.4 184.0, 137.9 185.8 Q 138.4 187.5, 139.5 189.4 L 138.6 190.0 Q 137.3 188.0, 136.6 186.1 Q 135.9 184.2, 135.9 181.9 " fill="#000000"/>
<path class="legend" d="M 140.4 177.3 Q 140.8 176.2, 141.8 175.6 Q 142.8 175.0, 144.2 175.0 Q 145.9 175.0, 146.8 175.9 Q 147.8 176.8, 147.8 178.5 Q 147.8 180.2, 146.5 181.7 Q 145.3 183.3, 142.8 185.2 L 148.0 185.2 L 148.0 186.4 L 140.4 186.4 L 140.4 185.4 Q 142.5 183.9, 143.7 182.8 Q 145.0 181.6, 145.6 180.6 Q 146.2 179.6, 146.2 178.6 Q 146.2 177.5, 145.6 176.9 Q 145.1 176.3, 144.2 176.3 Q 143.2 176.3, 142.6 176.6 Q 142.0 177.0, 141.6 177.8 L 140.4 177.3 " fill="#000000"/>
<path class="legend" d="M 153.0 181.9 Q 153.0 184.2, 152.3 186.1 Q 151.6 188.0, 150.3 190.0 L 149.4 189.4 Q 150.5 187.5, 151.0 185.8 Q 151.5 184.0, 151.5 181.9 Q 151.5 179.7, 151.0 178.0 Q 150.5 176.3, 149.4 174.4 L 150.3 173.8 Q 151.6 175.8, 152.3 177.7 Q 153.0 179.6, 153.0 181.9 " fill="#000000"/>
</g>
    <g transform="translate(289.0, 0) scale(1 1) "><line x1="5" y1="100" x2="35" y2="100" style="stroke:rgb(0,0,0);stroke-width:2"/>
  <line x1="34" y1="100" x2="29" y2="95" style="stroke:rgb(0,0,0);stroke-width:2"/>
  <line x1="34" y1="100" x2="29" y2="105" style="stroke:rgb(0,0,0);stroke-width:2"/>
</g>
    <g transform="translate(329.0, 0) scale(1 1) "><!-- END OF HEADER -->
<rect style="opacity:1.0;fill:#FFFFFF;stroke:none" width="254.0" height="200.0" x="0.0" y="0.0"> </rect>
<path class="bond-0 atom-0 atom-1" d="M 204.2,48.4 L 181.7,79.6" style="fill:none;fill-rule:evenodd;stroke:#000000;stroke-width:2.0px;stroke-linecap:butt;stroke-linejoin:miter;stroke-opacity:1"/>
<path class="bond-1 atom-1 atom-2" d="M 181.7,79.6 L 143.4,75.7" style="fill:none;fill-rule:evenodd;stroke:#000000;stroke-width:2.0px;stroke-linecap:butt;stroke-linejoin:miter;stroke-opacity:1"/>
<path class="bond-2 atom-2 atom-3" d="M 143.4,75.7 L 120.8,106.9" style="fill:none;fill-rule:evenodd;stroke:#000000;stroke-width:2.0px;stroke-linecap:butt;stroke-linejoin:miter;stroke-opacity:1"/>
<path class="bond-3 atom-3 atom-4" d="M 120.8,106.9 L 127.2,121.0" style="fill:none;fill-rule:evenodd;stroke:#000000;stroke-width:2.0px;stroke-linecap:butt;stroke-linejoin:miter;stroke-opacity:1"/>
<path class="bond-3 atom-3 atom-4" d="M 127.2,121.0 L 133.5,135.2" style="fill:none;fill-rule:evenodd;stroke:#FF0000;stroke-width:2.0px;stroke-linecap:butt;stroke-linejoin:miter;stroke-opacity:1"/>
<path class="bond-4 atom-3 atom-5" d="M 120.8,106.9 L 82.5,102.9" style="fill:none;fill-rule:evenodd;stroke:#000000;stroke-width:2.0px;stroke-linecap:butt;stroke-linejoin:miter;stroke-opacity:1"/>
<path class="bond-5 atom-5 atom-6" d="M 82.5,102.9 L 86.4,64.6" style="fill:none;fill-rule:evenodd;stroke:#000000;stroke-width:2.0px;stroke-linecap:butt;stroke-linejoin:miter;stroke-opacity:1"/>
<path class="bond-6 atom-5 atom-7" d="M 82.5,102.9 L 78.6,141.2" style="fill:none;fill-rule:evenodd;stroke:#000000;stroke-width:2.0px;stroke-linecap:butt;stroke-linejoin:miter;stroke-opacity:1"/>
<path class="bond-7 atom-5 atom-8" d="M 82.5,102.9 L 44.2,99.0" style="fill:none;fill-rule:evenodd;stroke:#000000;stroke-width:2.0px;stroke-linecap:butt;stroke-linejoin:miter;stroke-opacity:1"/>
<path class="bond-8 atom-8 atom-9" d="M 42.8,95.9 L 33.5,108.8" style="fill:none;fill-rule:evenodd;stroke:#000000;stroke-width:2.0px;stroke-linecap:butt;stroke-linejoin:miter;stroke-opacity:1"/>
<path class="bond-8 atom-8 atom-9" d="M 33.5,108.8 L 24.2,121.7" style="fill:none;fill-rule:evenodd;stroke:#FF0000;stroke-width:2.0px;stroke-linecap:butt;stroke-linejoin:miter;stroke-opacity:1"/>
<path class="bond-8 atom-8 atom-9" d="M 47.5,99.3 L 38.2,112.2" style="fill:none;fill-rule:evenodd;stroke:#000000;stroke-width:2.0px;stroke-linecap:butt;stroke-linejoin:miter;stroke-opacity:1"/>
<path class="bond-8 atom-8 atom-9" d="M 38.2,112.2 L 28.9,125.1" style="fill:none;fill-rule:evenodd;stroke:#FF0000;stroke-width:2.0px;stroke-linecap:butt;stroke-linejoin:miter;stroke-opacity:1"/>
<path class="bond-9 atom-8 atom-10" d="M 44.2,99.0 L 37.9,84.9" style="fill:none;fill-rule:evenodd;stroke:#000000;stroke-width:2.0px;stroke-linecap:butt;stroke-linejoin:miter;stroke-opacity:1"/>
<path class="bond-9 atom-8 atom-10" d="M 37.9,84.9 L 31.6,70.8" style="fill:none;fill-rule:evenodd;stroke:#FF0000;stroke-width:2.0px;stroke-linecap:butt;stroke-linejoin:miter;stroke-opacity:1"/>
<path class="bond-10 atom-1 atom-11" d="M 181.7,79.6 L 197.4,114.7" style="fill:none;fill-rule:evenodd;stroke:#000000;stroke-width:2.0px;stroke-linecap:butt;stroke-linejoin:miter;stroke-opacity:1"/>
<path class="bond-11 atom-11 atom-12" d="M 195.4,117.4 L 212.3,119.2" style="fill:none;fill-rule:evenodd;stroke:#000000;stroke-width:2.0px;stroke-linecap:butt;stroke-linejoin:miter;stroke-opacity:1"/>
<path class="bond-11 atom-11 atom-12" d="M 212.3,119.2 L 229.1,120.9" style="fill:none;fill-rule:evenodd;stroke:#FF0000;stroke-width:2.0px;stroke-linecap:butt;stroke-linejoin:miter;stroke-opacity:1"/>
<path class="bond-11 atom-11 atom-12" d="M 196.0,111.7 L 212.9,113.4" style="fill:none;fill-rule:evenodd;stroke:#000000;stroke-width:2.0px;stroke-linecap:butt;stroke-linejoin:miter;stroke-opacity:1"/>
<path class="bond-11 atom-11 atom-12" d="M 212.9,113.4 L 229.7,115.1" style="fill:none;fill-rule:evenodd;stroke:#FF0000;stroke-width:2.0px;stroke-linecap:butt;stroke-linejoin:miter;stroke-opacity:1"/>
<path class="bond-12 atom-11 atom-13" d="M 197.4,114.7 L 188.6,126.9" style="fill:none;fill-rule:evenodd;stroke:#000000;stroke-width:2.0px;stroke-linecap:butt;stroke-linejoin:miter;stroke-opacity:1"/>
<path class="bond-12 atom-11 atom-13" d="M 188.6,126.9 L 179.7,139.1" style="fill:none;fill-rule:evenodd;stroke:#FF0000;stroke-width:2.0px;stroke-linecap:butt;stroke-linejoin:miter;stroke-opacity:1"/>
<path d="M 145.3,75.9 L 143.4,75.7 L 142.2,77.2" style="fill:none;stroke:#000000;stroke-width:2.0px;stroke-linecap:butt;stroke-linejoin:miter;stroke-opacity:1;"/>
<path d="M 46.1,99.2 L 44.2,99.0 L 43.9,98.3" style="fill:none;stroke:#000000;stroke-width:2.0px;stroke-linecap:butt;stroke-linejoin:miter;stroke-opacity:1;"/>
<path d="M 196.6,113.0 L 197.4,114.7 L 197.0,115.3" style="fill:none;stroke:#000000;stroke-width:2.0px;stroke-linecap:butt;stroke-linejoin:miter;stroke-opacity:1;"/>
<path class="atom-4" d="M 131.5 142.0 Q 131.5 139.4, 132.8 137.9 Q 134.1 136.5, 136.5 136.5 Q 139.0 136.5, 140.3 137.9 Q 141.5 139.4, 141.5 142.0 Q 141.5 144.7, 140.2 146.2 Q 138.9 147.7, 136.5 147.7 Q 134.1 147.7, 132.8 146.2 Q 131.5 144.7, 131.5 142.0 M 136.5 146.4 Q 138.2 146.4, 139.1 145.3 Q 140.0 144.2, 140.0 142.0 Q 140.0 139.9, 139.1 138.8 Q 138.2 137.7, 136.5 137.7 Q 134.9 137.7, 134.0 138.8 Q 133.1 139.9, 133.1 142.0 Q 133.1 144.2, 134.0 145.3 Q 134.9 146.4, 136.5 146.4 " fill="#FF0000"/>
<path class="atom-4" d="M 143.2 136.6 L 144.7 136.6 L 144.7 141.2 L 150.3 141.2 L 150.3 136.6 L 151.8 136.6 L 151.8 147.5 L 150.3 147.5 L 150.3 142.5 L 144.7 142.5 L 144.7 147.5 L 143.2 147.5 L 143.2 136.6 " fill="#FF0000"/>
<path class="atom-9" d="M 16.6 130.2 Q 16.6 127.6, 17.9 126.1 Q 19.2 124.7, 21.7 124.7 Q 24.1 124.7, 25.4 126.1 Q 26.7 127.6, 26.7 130.2 Q 26.7 132.9, 25.3 134.4 Q 24.0 135.9, 21.7 135.9 Q 19.2 135.9, 17.9 134.4 Q 16.6 132.9, 16.6 130.2 M 21.7 134.6 Q 23.3 134.6, 24.2 133.5 Q 25.1 132.4, 25.1 130.2 Q 25.1 128.1, 24.2 127.0 Q 23.3 125.9, 21.7 125.9 Q 20.0 125.9, 19.1 127.0 Q 18.2 128.0, 18.2 130.2 Q 18.2 132.4, 19.1 133.5 Q 20.0 134.6, 21.7 134.6 " fill="#FF0000"/>
<path class="atom-10" d="M 12.7 58.4 L 14.2 58.4 L 14.2 63.1 L 19.8 63.1 L 19.8 58.4 L 21.2 58.4 L 21.2 69.4 L 19.8 69.4 L 19.8 64.3 L 14.2 64.3 L 14.2 69.4 L 12.7 69.4 L 12.7 58.4 " fill="#FF0000"/>
<path class="atom-10" d="M 23.5 63.9 Q 23.5 61.3, 24.8 59.8 Q 26.1 58.3, 28.5 58.3 Q 30.9 58.3, 32.2 59.8 Q 33.5 61.3, 33.5 63.9 Q 33.5 66.5, 32.2 68.0 Q 30.9 69.5, 28.5 69.5 Q 26.1 69.5, 24.8 68.0 Q 23.5 66.5, 23.5 63.9 M 28.5 68.3 Q 30.1 68.3, 31.0 67.2 Q 31.9 66.1, 31.9 63.9 Q 31.9 61.7, 31.0 60.7 Q 30.1 59.6, 28.5 59.6 Q 26.8 59.6, 25.9 60.6 Q 25.0 61.7, 25.0 63.9 Q 25.0 66.1, 25.9 67.2 Q 26.8 68.3, 28.5 68.3 " fill="#FF0000"/>
<path class="atom-12" d="M 230.7 118.7 Q 230.7 116.1, 232.0 114.6 Q 233.3 113.2, 235.7 113.2 Q 238.1 113.2, 239.4 114.6 Q 240.7 116.1, 240.7 118.7 Q 240.7 121.3, 239.4 122.9 Q 238.1 124.3, 235.7 124.3 Q 233.3 124.3, 232.0 122.9 Q 230.7 121.4, 230.7 118.7 M 235.7 123.1 Q 237.4 123.1, 238.3 122.0 Q 239.2 120.9, 239.2 118.7 Q 239.2 116.6, 238.3 115.5 Q 237.4 114.4, 235.7 114.4 Q 234.0 114.4, 233.1 115.5 Q 232.2 116.5, 232.2 118.7 Q 232.2 120.9, 233.1 122.0 Q 234.0 123.1, 235.7 123.1 " fill="#FF0000"/>
<path class="atom-13" d="M 159.1 140.5 L 160.5 140.5 L 160.5 145.2 L 166.1 145.2 L 166.1 140.5 L 167.6 140.5 L 167.6 151.4 L 166.1 151.4 L 166.1 146.4 L 160.5 146.4 L 160.5 151.4 L 159.1 151.4 L 159.1 140.5 " fill="#FF0000"/>
<path class="atom-13" d="M 169.8 146.0 Q 169.8 143.3, 171.1 141.9 Q 172.4 140.4, 174.8 140.4 Q 177.3 140.4, 178.6 141.9 Q 179.8 143.3, 179.8 146.0 Q 179.8 148.6, 178.5 150.1 Q 177.2 151.6, 174.8 151.6 Q 172.4 151.6, 171.1 150.1 Q 169.8 148.6, 169.8 146.0 M 174.8 150.4 Q 176.5 150.4, 177.4 149.3 Q 178.3 148.1, 178.3 146.0 Q 178.3 143.8, 177.4 142.7 Q 176.5 141.6, 174.8 141.6 Q 173.2 141.6, 172.3 142.7 Q 171.4 143.8, 171.4 146.0 Q 171.4 148.2, 172.3 149.3 Q 173.2 150.4, 174.8 150.4 " fill="#FF0000"/>
</g>
    <g transform="translate(583.0, 0) scale(1 1) "><line x1="15" y1="100" x2="25" y2="100" style="stroke:rgb(0,0,0);stroke-width:2"/>
  <line x1="20" y1="95" x2="20" y2="105" style="stroke:rgb(0,0,0);stroke-width:2"/>
</g>
    <g transform="translate(623.0, 0) scale(1 1) "><!-- END OF HEADER -->
<rect style="opacity:1.0;fill:#FFFFFF;stroke:none" width="314.0" height="200.0" x="0.0" y="0.0"> </rect>
<path class="bond-0 atom-0 atom-1" d="M 153.7,12.4 L 129.1,34.6" style="fill:none;fill-rule:evenodd;stroke:#000000;stroke-width:2.0px;stroke-linecap:butt;stroke-linejoin:miter;stroke-opacity:1"/>
<path class="bond-1 atom-1 atom-2" d="M 129.1,34.6 L 104.6,56.8" style="fill:none;fill-rule:evenodd;stroke:#000000;stroke-width:2.0px;stroke-linecap:butt;stroke-linejoin:miter;stroke-opacity:1"/>
<path class="bond-2 atom-1 atom-3" d="M 129.1,34.6 L 106.9,10.0" style="fill:none;fill-rule:evenodd;stroke:#000000;stroke-width:2.0px;stroke-linecap:butt;stroke-linejoin:miter;stroke-opacity:1"/>
<path class="bond-3 atom-3 atom-4" d="M 106.9,10.0 L 93.4,12.9" style="fill:none;fill-rule:evenodd;stroke:#000000;stroke-width:2.0px;stroke-linecap:butt;stroke-linejoin:miter;stroke-opacity:1"/>
<path class="bond-3 atom-3 atom-4" d="M 93.4,12.9 L 79.9,15.8" style="fill:none;fill-rule:evenodd;stroke:#FF0000;stroke-width:2.0px;stroke-linecap:butt;stroke-linejoin:miter;stroke-opacity:1"/>
<path class="bond-4 atom-1 atom-5" d="M 129.1,34.6 L 151.3,59.1" style="fill:none;fill-rule:evenodd;stroke:#000000;stroke-width:2.0px;stroke-linecap:butt;stroke-linejoin:miter;stroke-opacity:1"/>
<path class="bond-5 atom-5 atom-6" d="M 151.3,59.1 L 164.3,54.6" style="fill:none;fill-rule:evenodd;stroke:#000000;stroke-width:2.0px;stroke-linecap:butt;stroke-linejoin:miter;stroke-opacity:1"/>
<path class="bond-5 atom-5 atom-6" d="M 164.3,54.6 L 177.2,50.2" style="fill:none;fill-rule:evenodd;stroke:#FF0000;stroke-width:2.0px;stroke-linecap:butt;stroke-linejoin:miter;stroke-opacity:1"/>
<path class="bond-6 atom-5 atom-7" d="M 151.3,59.1 L 141.1,90.6" style="fill:none;fill-rule:evenodd;stroke:#000000;stroke-width:2.0px;stroke-linecap:butt;stroke-linejoin:miter;stroke-opacity:1"/>
<path class="bond-7 atom-7 atom-8" d="M 141.1,90.6 L 108.8,97.6" style="fill:none;fill-rule:evenodd;stroke:#000000;stroke-width:2.0px;stroke-linecap:butt;stroke-linejoin:miter;stroke-opacity:1"/>
<path class="bond-8 atom-8 atom-9" d="M 108.8,97.6 L 100.4,88.2" style="fill:none;fill-rule:evenodd;stroke:#000000;stroke-width:2.0px;stroke-linecap:butt;stroke-linejoin:miter;stroke-opacity:1"/>
<path class="bond-8 atom-8 atom-9" d="M 100.4,88.2 L 91.9,78.9" style="fill:none;fill-rule:evenodd;stroke:#FF0000;stroke-width:2.0px;stroke-linecap:butt;stroke-linejoin:miter;stroke-opacity:1"/>
<path class="bond-9 atom-8 atom-10" d="M 108.8,97.6 L 98.6,129.1" style="fill:none;fill-rule:evenodd;stroke:#000000;stroke-width:2.0px;stroke-linecap:butt;stroke-linejoin:miter;stroke-opacity:1"/>
<path class="bond-10 atom-10 atom-11" d="M 98.6,129.1 L 113.5,138.4" style="fill:none;fill-rule:evenodd;stroke:#000000;stroke-width:2.0px;stroke-linecap:butt;stroke-linejoin:miter;stroke-opacity:1"/>
<path class="bond-11 atom-10 atom-12" d="M 98.6,129.1 L 67.1,118.9" style="fill:none;fill-rule:evenodd;stroke:#000000;stroke-width:2.0px;stroke-linecap:butt;stroke-linejoin:miter;stroke-opacity:1"/>
<path class="bond-12 atom-10 atom-13" d="M 98.6,129.1 L 88.4,160.6" style="fill:none;fill-rule:evenodd;stroke:#000000;stroke-width:2.0px;stroke-linecap:butt;stroke-linejoin:miter;stroke-opacity:1"/>
<path class="bond-13 atom-13 atom-14" d="M 85.7,161.1 L 94.6,171.0" style="fill:none;fill-rule:evenodd;stroke:#000000;stroke-width:2.0px;stroke-linecap:butt;stroke-linejoin:miter;stroke-opacity:1"/>
<path class="bond-13 atom-13 atom-14" d="M 94.6,171.0 L 103.6,180.9" style="fill:none;fill-rule:evenodd;stroke:#FF0000;stroke-width:2.0px;stroke-linecap:butt;stroke-linejoin:miter;stroke-opacity:1"/>
<path class="bond-13 atom-13 atom-14" d="M 89.3,157.9 L 98.2,167.8" style="fill:none;fill-rule:evenodd;stroke:#000000;stroke-width:2.0px;stroke-linecap:butt;stroke-linejoin:miter;stroke-opacity:1"/>
<path class="bond-13 atom-13 atom-14" d="M 98.2,167.8 L 107.1,177.7" style="fill:none;fill-rule:evenodd;stroke:#FF0000;stroke-width:2.0px;stroke-linecap:butt;stroke-linejoin:miter;stroke-opacity:1"/>
<path class="bond-14 atom-13 atom-15" d="M 88.4,160.6 L 74.9,163.4" style="fill:none;fill-rule:evenodd;stroke:#000000;stroke-width:2.0px;stroke-linecap:butt;stroke-linejoin:miter;stroke-opacity:1"/>
<path class="bond-14 atom-13 atom-15" d="M 74.9,163.4 L 61.4,166.3" style="fill:none;fill-rule:evenodd;stroke:#FF0000;stroke-width:2.0px;stroke-linecap:butt;stroke-linejoin:miter;stroke-opacity:1"/>
<path class="bond-15 atom-7 atom-16" d="M 141.1,90.6 L 163.3,115.2" style="fill:none;fill-rule:evenodd;stroke:#000000;stroke-width:2.0px;stroke-linecap:butt;stroke-linejoin:miter;stroke-opacity:1"/>
<path class="bond-16 atom-16 atom-17" d="M 163.3,115.2 L 185.5,139.7" style="fill:none;fill-rule:evenodd;stroke:#000000;stroke-width:2.0px;stroke-linecap:butt;stroke-linejoin:miter;stroke-opacity:1"/>
<path class="bond-17 atom-16 atom-18" d="M 163.3,115.2 L 138.8,137.4" style="fill:none;fill-rule:evenodd;stroke:#000000;stroke-width:2.0px;stroke-linecap:butt;stroke-linejoin:miter;stroke-opacity:1"/>
<path class="bond-18 atom-18 atom-19" d="M 141.2,135.1 L 134.0,134.6" style="fill:none;fill-rule:evenodd;stroke:#000000;stroke-width:2.0px;stroke-linecap:butt;stroke-linejoin:miter;stroke-opacity:1"/>
<path class="bond-18 atom-18 atom-19" d="M 134.0,134.6 L 126.7,134.2" style="fill:none;fill-rule:evenodd;stroke:#FF0000;stroke-width:2.0px;stroke-linecap:butt;stroke-linejoin:miter;stroke-opacity:1"/>
<path class="bond-18 atom-18 atom-19" d="M 139.3,139.8 L 133.7,139.4" style="fill:none;fill-rule:evenodd;stroke:#000000;stroke-width:2.0px;stroke-linecap:butt;stroke-linejoin:miter;stroke-opacity:1"/>
<path class="bond-18 atom-18 atom-19" d="M 133.7,139.4 L 126.4,138.9" style="fill:none;fill-rule:evenodd;stroke:#FF0000;stroke-width:2.0px;stroke-linecap:butt;stroke-linejoin:miter;stroke-opacity:1"/>
<path class="bond-19 atom-18 atom-20" d="M 138.8,137.4 L 141.6,150.7" style="fill:none;fill-rule:evenodd;stroke:#000000;stroke-width:2.0px;stroke-linecap:butt;stroke-linejoin:miter;stroke-opacity:1"/>
<path class="bond-19 atom-18 atom-20" d="M 141.6,150.7 L 144.5,163.9" style="fill:none;fill-rule:evenodd;stroke:#FF0000;stroke-width:2.0px;stroke-linecap:butt;stroke-linejoin:miter;stroke-opacity:1"/>
<path class="bond-20 atom-16 atom-21" d="M 163.3,115.2 L 187.9,93.0" style="fill:none;fill-rule:evenodd;stroke:#000000;stroke-width:2.0px;stroke-linecap:butt;stroke-linejoin:miter;stroke-opacity:1"/>
<path class="bond-21 atom-21 atom-22" d="M 187.9,93.0 L 186.7,79.5" style="fill:none;fill-rule:evenodd;stroke:#000000;stroke-width:2.0px;stroke-linecap:butt;stroke-linejoin:miter;stroke-opacity:1"/>
<path class="bond-21 atom-21 atom-22" d="M 186.7,79.5 L 185.5,66.0" style="fill:none;fill-rule:evenodd;stroke:#FF0000;stroke-width:2.0px;stroke-linecap:butt;stroke-linejoin:miter;stroke-opacity:1"/>
<path class="bond-22 atom-21 atom-23" d="M 187.9,93.0 L 219.4,103.2" style="fill:none;fill-rule:evenodd;stroke:#000000;stroke-width:2.0px;stroke-linecap:butt;stroke-linejoin:miter;stroke-opacity:1"/>
<path class="bond-23 atom-23 atom-24" d="M 219.4,103.2 L 229.6,71.7" style="fill:none;fill-rule:evenodd;stroke:#000000;stroke-width:2.0px;stroke-linecap:butt;stroke-linejoin:miter;stroke-opacity:1"/>
<path class="bond-24 atom-23 atom-25" d="M 219.4,103.2 L 209.2,134.7" style="fill:none;fill-rule:evenodd;stroke:#000000;stroke-width:2.0px;stroke-linecap:butt;stroke-linejoin:miter;stroke-opacity:1"/>
<path class="bond-25 atom-23 atom-26" d="M 219.4,103.2 L 250.9,113.4" style="fill:none;fill-rule:evenodd;stroke:#000000;stroke-width:2.0px;stroke-linecap:butt;stroke-linejoin:miter;stroke-opacity:1"/>
<path class="bond-26 atom-26 atom-27" d="M 250.9,113.4 L 253.7,126.6" style="fill:none;fill-rule:evenodd;stroke:#000000;stroke-width:2.0px;stroke-linecap:butt;stroke-linejoin:miter;stroke-opacity:1"/>
<path class="bond-26 atom-26 atom-27" d="M 253.7,126.6 L 256.6,139.9" style="fill:none;fill-rule:evenodd;stroke:#FF0000;stroke-width:2.0px;stroke-linecap:butt;stroke-linejoin:miter;stroke-opacity:1"/>
<path d="M 108.0,11.2 L 106.9,10.0 L 106.3,10.1" style="fill:none;stroke:#000000;stroke-width:2.0px;stroke-linecap:butt;stroke-linejoin:miter;stroke-opacity:1;"/>
<path d="M 88.9,159.0 L 88.4,160.6 L 87.7,160.7" style="fill:none;stroke:#000000;stroke-width:2.0px;stroke-linecap:butt;stroke-linejoin:miter;stroke-opacity:1;"/>
<path d="M 140.0,136.3 L 138.8,137.4 L 138.9,138.0" style="fill:none;stroke:#000000;stroke-width:2.0px;stroke-linecap:butt;stroke-linejoin:miter;stroke-opacity:1;"/>
<path d="M 249.3,112.8 L 250.9,113.4 L 251.0,114.0" style="fill:none;stroke:#000000;stroke-width:2.0px;stroke-linecap:butt;stroke-linejoin:miter;stroke-opacity:1;"/>
<path class="atom-4" d="M 61.0 12.3 L 62.3 12.3 L 62.3 16.3 L 67.1 16.3 L 67.1 12.3 L 68.3 12.3 L 68.3 21.7 L 67.1 21.7 L 67.1 17.3 L 62.3 17.3 L 62.3 21.7 L 61.0 21.7 L 61.0 12.3 " fill="#FF0000"/>
<path class="atom-4" d="M 70.3 17.0 Q 70.3 14.7, 71.4 13.5 Q 72.5 12.2, 74.6 12.2 Q 76.7 12.2, 77.8 13.5 Q 78.9 14.7, 78.9 17.0 Q 78.9 19.2, 77.8 20.5 Q 76.6 21.8, 74.6 21.8 Q 72.5 21.8, 71.4 20.5 Q 70.3 19.3, 70.3 17.0 M 74.6 20.8 Q 76.0 20.8, 76.8 19.8 Q 77.6 18.8, 77.6 17.0 Q 77.6 15.1, 76.8 14.2 Q 76.0 13.3, 74.6 13.3 Q 73.1 13.3, 72.4 14.2 Q 71.6 15.1, 71.6 17.0 Q 71.6 18.9, 72.4 19.8 Q 73.1 20.8, 74.6 20.8 " fill="#FF0000"/>
<path class="atom-6" d="M 178.3 48.3 Q 178.3 46.1, 179.4 44.8 Q 180.5 43.6, 182.6 43.6 Q 184.7 43.6, 185.8 44.8 Q 186.9 46.1, 186.9 48.3 Q 186.9 50.6, 185.8 51.9 Q 184.6 53.2, 182.6 53.2 Q 180.5 53.2, 179.4 51.9 Q 178.3 50.6, 178.3 48.3 M 182.6 52.1 Q 184.0 52.1, 184.8 51.2 Q 185.6 50.2, 185.6 48.3 Q 185.6 46.5, 184.8 45.6 Q 184.0 44.6, 182.6 44.6 Q 181.2 44.6, 180.4 45.5 Q 179.6 46.5, 179.6 48.3 Q 179.6 50.2, 180.4 51.2 Q 181.2 52.1, 182.6 52.1 " fill="#FF0000"/>
<path class="atom-6" d="M 188.4 43.7 L 189.6 43.7 L 189.6 47.6 L 194.4 47.6 L 194.4 43.7 L 195.7 43.7 L 195.7 53.0 L 194.4 53.0 L 194.4 48.7 L 189.6 48.7 L 189.6 53.0 L 188.4 53.0 L 188.4 43.7 " fill="#FF0000"/>
<path class="atom-9" d="M 73.0 68.4 L 74.3 68.4 L 74.3 72.3 L 79.1 72.3 L 79.1 68.4 L 80.4 68.4 L 80.4 77.7 L 79.1 77.7 L 79.1 73.4 L 74.3 73.4 L 74.3 77.7 L 73.0 77.7 L 73.0 68.4 " fill="#FF0000"/>
<path class="atom-9" d="M 82.3 73.0 Q 82.3 70.8, 83.4 69.5 Q 84.5 68.3, 86.6 68.3 Q 88.7 68.3, 89.8 69.5 Q 90.9 70.8, 90.9 73.0 Q 90.9 75.3, 89.8 76.6 Q 88.6 77.9, 86.6 77.9 Q 84.5 77.9, 83.4 76.6 Q 82.3 75.3, 82.3 73.0 M 86.6 76.8 Q 88.0 76.8, 88.8 75.9 Q 89.6 74.9, 89.6 73.0 Q 89.6 71.2, 88.8 70.3 Q 88.0 69.3, 86.6 69.3 Q 85.2 69.3, 84.4 70.2 Q 83.6 71.2, 83.6 73.0 Q 83.6 74.9, 84.4 75.9 Q 85.2 76.8, 86.6 76.8 " fill="#FF0000"/>
<path class="atom-14" d="M 106.3 185.1 Q 106.3 182.9, 107.4 181.6 Q 108.5 180.4, 110.6 180.4 Q 112.7 180.4, 113.8 181.6 Q 114.9 182.9, 114.9 185.1 Q 114.9 187.4, 113.8 188.7 Q 112.7 190.0, 110.6 190.0 Q 108.5 190.0, 107.4 188.7 Q 106.3 187.4, 106.3 185.1 M 110.6 188.9 Q 112.0 188.9, 112.8 188.0 Q 113.6 187.0, 113.6 185.1 Q 113.6 183.3, 112.8 182.4 Q 112.0 181.4, 110.6 181.4 Q 109.2 181.4, 108.4 182.4 Q 107.6 183.3, 107.6 185.1 Q 107.6 187.0, 108.4 188.0 Q 109.2 188.9, 110.6 188.9 " fill="#FF0000"/>
<path class="atom-15" d="M 42.5 162.9 L 43.8 162.9 L 43.8 166.8 L 48.6 166.8 L 48.6 162.9 L 49.8 162.9 L 49.8 172.2 L 48.6 172.2 L 48.6 167.9 L 43.8 167.9 L 43.8 172.2 L 42.5 172.2 L 42.5 162.9 " fill="#FF0000"/>
<path class="atom-15" d="M 51.7 167.5 Q 51.7 165.3, 52.9 164.0 Q 54.0 162.7, 56.0 162.7 Q 58.1 162.7, 59.2 164.0 Q 60.4 165.3, 60.4 167.5 Q 60.4 169.8, 59.2 171.1 Q 58.1 172.4, 56.0 172.4 Q 54.0 172.4, 52.9 171.1 Q 51.7 169.8, 51.7 167.5 M 56.0 171.3 Q 57.5 171.3, 58.2 170.4 Q 59.0 169.4, 59.0 167.5 Q 59.0 165.7, 58.2 164.7 Q 57.5 163.8, 56.0 163.8 Q 54.6 163.8, 53.8 164.7 Q 53.1 165.7, 53.1 167.5 Q 53.1 169.4, 53.8 170.4 Q 54.6 171.3, 56.0 171.3 " fill="#FF0000"/>
<path class="atom-19" d="M 116.9 136.2 Q 116.9 134.0, 118.0 132.7 Q 119.1 131.4, 121.2 131.4 Q 123.3 131.4, 124.4 132.7 Q 125.5 134.0, 125.5 136.2 Q 125.5 138.5, 124.4 139.8 Q 123.3 141.1, 121.2 141.1 Q 119.1 141.1, 118.0 139.8 Q 116.9 138.5, 116.9 136.2 M 121.2 140.0 Q 122.6 140.0, 123.4 139.0 Q 124.2 138.1, 124.2 136.2 Q 124.2 134.4, 123.4 133.4 Q 122.6 132.5, 121.2 132.5 Q 119.8 132.5, 119.0 133.4 Q 118.2 134.3, 118.2 136.2 Q 118.2 138.1, 119.0 139.0 Q 119.8 140.0, 121.2 140.0 " fill="#FF0000"/>
<path class="atom-20" d="M 141.4 169.8 Q 141.4 167.5, 142.5 166.3 Q 143.6 165.0, 145.7 165.0 Q 147.8 165.0, 148.9 166.3 Q 150.0 167.5, 150.0 169.8 Q 150.0 172.0, 148.9 173.3 Q 147.7 174.6, 145.7 174.6 Q 143.6 174.6, 142.5 173.3 Q 141.4 172.1, 141.4 169.8 M 145.7 173.6 Q 147.1 173.6, 147.9 172.6 Q 148.7 171.6, 148.7 169.8 Q 148.7 167.9, 147.9 167.0 Q 147.1 166.1, 145.7 166.1 Q 144.3 166.1, 143.5 167.0 Q 142.7 167.9, 142.7 169.8 Q 142.7 171.7, 143.5 172.6 Q 144.3 173.6, 145.7 173.6 " fill="#FF0000"/>
<path class="atom-20" d="M 151.5 165.1 L 152.7 165.1 L 152.7 169.1 L 157.5 169.1 L 157.5 165.1 L 158.8 165.1 L 158.8 174.5 L 157.5 174.5 L 157.5 170.2 L 152.7 170.2 L 152.7 174.5 L 151.5 174.5 L 151.5 165.1 " fill="#FF0000"/>
<path class="atom-22" d="M 180.6 60.1 Q 180.6 57.8, 181.8 56.5 Q 182.9 55.3, 185.0 55.3 Q 187.0 55.3, 188.1 56.5 Q 189.3 57.8, 189.3 60.1 Q 189.3 62.3, 188.1 63.6 Q 187.0 64.9, 185.0 64.9 Q 182.9 64.9, 181.8 63.6 Q 180.6 62.3, 180.6 60.1 M 185.0 63.9 Q 186.4 63.9, 187.1 62.9 Q 187.9 61.9, 187.9 60.1 Q 187.9 58.2, 187.1 57.3 Q 186.4 56.3, 185.0 56.3 Q 183.5 56.3, 182.7 57.3 Q 182.0 58.2, 182.0 60.1 Q 182.0 61.9, 182.7 62.9 Q 183.5 63.9, 185.0 63.9 " fill="#FF0000"/>
<path class="atom-22" d="M 190.7 55.4 L 192.0 55.4 L 192.0 59.4 L 196.8 59.4 L 196.8 55.4 L 198.0 55.4 L 198.0 64.8 L 196.8 64.8 L 196.8 60.4 L 192.0 60.4 L 192.0 64.8 L 190.7 64.8 L 190.7 55.4 " fill="#FF0000"/>
<path class="atom-27" d="M 253.5 145.7 Q 253.5 143.5, 254.6 142.2 Q 255.7 141.0, 257.8 141.0 Q 259.9 141.0, 261.0 142.2 Q 262.1 143.5, 262.1 145.7 Q 262.1 148.0, 261.0 149.3 Q 259.9 150.6, 257.8 150.6 Q 255.8 150.6, 254.6 149.3 Q 253.5 148.0, 253.5 145.7 M 257.8 149.5 Q 259.2 149.5, 260.0 148.6 Q 260.8 147.6, 260.8 145.7 Q 260.8 143.9, 260.0 143.0 Q 259.2 142.0, 257.8 142.0 Q 256.4 142.0, 255.6 143.0 Q 254.8 143.9, 254.8 145.7 Q 254.8 147.6, 255.6 148.6 Q 256.4 149.5, 257.8 149.5 " fill="#FF0000"/>
<path class="atom-27" d="M 263.6 141.1 L 264.8 141.1 L 264.8 145.1 L 269.6 145.1 L 269.6 141.1 L 270.9 141.1 L 270.9 150.5 L 269.6 150.5 L 269.6 146.1 L 264.8 146.1 L 264.8 150.5 L 263.6 150.5 L 263.6 141.1 " fill="#FF0000"/>
</g>
  </g>
</svg>
