<?xml version='1.0' encoding='ASCII' standalone='yes'?>
<svg xmlns="http://www.w3.org/2000/svg" xmlns:xlink="http://www.w3.org/1999/xlink" version="1.1" width="953.0px" viewBox="0 0 953.0 200.0" height="200.0px">
  <g>
    <g transform="translate(0, 0) scale(1 1) "><!-- END OF HEADER -->
<rect style="opacity:1.0;fill:#FFFFFF;stroke:none" width="311.0" height="200.0" x="0.0" y="0.0"> </rect>
<path class="bond-0 atom-0 atom-1" d="M 293.1,43.9 L 294.6,71.0" style="fill:none;fill-rule:evenodd;stroke:#000000;stroke-width:2.0px;stroke-linecap:butt;stroke-linejoin:miter;stroke-opacity:1"/>
<path class="bond-1 atom-1 atom-2" d="M 294.6,71.0 L 271.8,85.7" style="fill:none;fill-rule:evenodd;stroke:#000000;stroke-width:2.0px;stroke-linecap:butt;stroke-linejoin:miter;stroke-opacity:1"/>
<path class="bond-2 atom-2 atom-3" d="M 271.8,85.7 L 257.1,63.0" style="fill:none;fill-rule:evenodd;stroke:#000000;stroke-width:2.0px;stroke-linecap:butt;stroke-linejoin:miter;stroke-opacity:1"/>
<path class="bond-3 atom-2 atom-4" d="M 271.8,85.7 L 286.6,108.5" style="fill:none;fill-rule:evenodd;stroke:#000000;stroke-width:2.0px;stroke-linecap:butt;stroke-linejoin:miter;stroke-opacity:1"/>
<path class="bond-4 atom-2 atom-5" d="M 271.8,85.7 L 249.1,100.5" style="fill:none;fill-rule:evenodd;stroke:#000000;stroke-width:2.0px;stroke-linecap:butt;stroke-linejoin:miter;stroke-opacity:1"/>
<path class="bond-5 atom-5 atom-6" d="M 249.1,100.5 L 225.0,88.2" style="fill:none;fill-rule:evenodd;stroke:#000000;stroke-width:2.0px;stroke-linecap:butt;stroke-linejoin:miter;stroke-opacity:1"/>
<path class="bond-6 atom-6 atom-7" d="M 225.0,88.2 L 202.2,102.9" style="fill:none;fill-rule:evenodd;stroke:#000000;stroke-width:2.0px;stroke-linecap:butt;stroke-linejoin:miter;stroke-opacity:1"/>
<path class="bond-7 atom-7 atom-8" d="M 202.2,102.9 L 217.0,125.7" style="fill:none;fill-rule:evenodd;stroke:#000000;stroke-width:2.0px;stroke-linecap:butt;stroke-linejoin:miter;stroke-opacity:1"/>
<path class="bond-8 atom-7 atom-9" d="M 202.2,102.9 L 187.5,80.2" style="fill:none;fill-rule:evenodd;stroke:#000000;stroke-width:2.0px;stroke-linecap:butt;stroke-linejoin:miter;stroke-opacity:1"/>
<path class="bond-9 atom-9 atom-10" d="M 187.5,80.2 L 160.4,81.6" style="fill:none;fill-rule:evenodd;stroke:#000000;stroke-width:2.0px;stroke-linecap:butt;stroke-linejoin:miter;stroke-opacity:1"/>
<path class="bond-10 atom-10 atom-11" d="M 160.4,81.6 L 145.7,58.9" style="fill:none;fill-rule:evenodd;stroke:#000000;stroke-width:2.0px;stroke-linecap:butt;stroke-linejoin:miter;stroke-opacity:1"/>
<path class="bond-11 atom-11 atom-12" d="M 145.7,58.9 L 118.6,60.3" style="fill:none;fill-rule:evenodd;stroke:#000000;stroke-width:2.0px;stroke-linecap:butt;stroke-linejoin:miter;stroke-opacity:1"/>
<path class="bond-12 atom-12 atom-13" d="M 118.6,60.3 L 120.0,87.4" style="fill:none;fill-rule:evenodd;stroke:#000000;stroke-width:2.0px;stroke-linecap:butt;stroke-linejoin:miter;stroke-opacity:1"/>
<path class="bond-13 atom-12 atom-14" d="M 118.6,60.3 L 117.2,33.3" style="fill:none;fill-rule:evenodd;stroke:#000000;stroke-width:2.0px;stroke-linecap:butt;stroke-linejoin:miter;stroke-opacity:1"/>
<path class="bond-14 atom-12 atom-15" d="M 118.6,60.3 L 91.6,61.7" style="fill:none;fill-rule:evenodd;stroke:#000000;stroke-width:2.0px;stroke-linecap:butt;stroke-linejoin:miter;stroke-opacity:1"/>
<path class="bond-15 atom-15 atom-16" d="M 91.6,61.7 L 79.3,85.9" style="fill:none;fill-rule:evenodd;stroke:#000000;stroke-width:2.0px;stroke-linecap:butt;stroke-linejoin:miter;stroke-opacity:1"/>
<path class="bond-16 atom-16 atom-17" d="M 79.3,85.9 L 52.2,87.3" style="fill:none;fill-rule:evenodd;stroke:#000000;stroke-width:2.0px;stroke-linecap:butt;stroke-linejoin:miter;stroke-opacity:1"/>
<path class="bond-17 atom-17 atom-18" d="M 52.2,87.3 L 25.1,88.7" style="fill:none;fill-rule:evenodd;stroke:#000000;stroke-width:2.0px;stroke-linecap:butt;stroke-linejoin:miter;stroke-opacity:1"/>
<path class="bond-18 atom-17 atom-19" d="M 52.2,87.3 L 50.8,60.2" style="fill:none;fill-rule:evenodd;stroke:#000000;stroke-width:2.0px;stroke-linecap:butt;stroke-linejoin:miter;stroke-opacity:1"/>
<path class="bond-19 atom-19 atom-20" d="M 50.8,60.2 L 40.9,55.2" style="fill:none;fill-rule:evenodd;stroke:#000000;stroke-width:2.0px;stroke-linecap:butt;stroke-linejoin:miter;stroke-opacity:1"/>
<path class="bond-19 atom-19 atom-20" d="M 40.9,55.2 L 31.1,50.2" style="fill:none;fill-rule:evenodd;stroke:#FF0000;stroke-width:2.0px;stroke-linecap:butt;stroke-linejoin:miter;stroke-opacity:1"/>
<path class="bond-20 atom-17 atom-21" d="M 52.2,87.3 L 53.6,114.3" style="fill:none;fill-rule:evenodd;stroke:#000000;stroke-width:2.0px;stroke-linecap:butt;stroke-linejoin:miter;stroke-opacity:1"/>
<path class="bond-21 atom-21 atom-22" d="M 51.6,115.6 L 62.0,120.9" style="fill:none;fill-rule:evenodd;stroke:#000000;stroke-width:2.0px;stroke-linecap:butt;stroke-linejoin:miter;stroke-opacity:1"/>
<path class="bond-21 atom-21 atom-22" d="M 62.0,120.9 L 72.4,126.2" style="fill:none;fill-rule:evenodd;stroke:#FF0000;stroke-width:2.0px;stroke-linecap:butt;stroke-linejoin:miter;stroke-opacity:1"/>
<path class="bond-21 atom-21 atom-22" d="M 53.5,112.0 L 63.9,117.3" style="fill:none;fill-rule:evenodd;stroke:#000000;stroke-width:2.0px;stroke-linecap:butt;stroke-linejoin:miter;stroke-opacity:1"/>
<path class="bond-21 atom-21 atom-22" d="M 63.9,117.3 L 74.3,122.6" style="fill:none;fill-rule:evenodd;stroke:#FF0000;stroke-width:2.0px;stroke-linecap:butt;stroke-linejoin:miter;stroke-opacity:1"/>
<path class="bond-22 atom-21 atom-23" d="M 53.6,114.3 L 44.5,120.3" style="fill:none;fill-rule:evenodd;stroke:#000000;stroke-width:2.0px;stroke-linecap:butt;stroke-linejoin:miter;stroke-opacity:1"/>
<path class="bond-22 atom-21 atom-23" d="M 44.5,120.3 L 35.3,126.2" style="fill:none;fill-rule:evenodd;stroke:#FF0000;stroke-width:2.0px;stroke-linecap:butt;stroke-linejoin:miter;stroke-opacity:1"/>
<path class="bond-23 atom-7 atom-24" d="M 202.2,102.9 L 179.5,117.7" style="fill:none;fill-rule:evenodd;stroke:#000000;stroke-width:2.0px;stroke-linecap:butt;stroke-linejoin:miter;stroke-opacity:1"/>
<path class="bond-24 atom-24 atom-25" d="M 181.5,116.4 L 171.1,111.1" style="fill:none;fill-rule:evenodd;stroke:#000000;stroke-width:2.0px;stroke-linecap:butt;stroke-linejoin:miter;stroke-opacity:1"/>
<path class="bond-24 atom-24 atom-25" d="M 171.1,111.1 L 160.7,105.8" style="fill:none;fill-rule:evenodd;stroke:#FF0000;stroke-width:2.0px;stroke-linecap:butt;stroke-linejoin:miter;stroke-opacity:1"/>
<path class="bond-24 atom-24 atom-25" d="M 179.6,120.0 L 169.3,114.7" style="fill:none;fill-rule:evenodd;stroke:#000000;stroke-width:2.0px;stroke-linecap:butt;stroke-linejoin:miter;stroke-opacity:1"/>
<path class="bond-24 atom-24 atom-25" d="M 169.3,114.7 L 158.9,109.4" style="fill:none;fill-rule:evenodd;stroke:#FF0000;stroke-width:2.0px;stroke-linecap:butt;stroke-linejoin:miter;stroke-opacity:1"/>
<path class="bond-25 atom-24 atom-26" d="M 179.5,117.7 L 180.1,128.8" style="fill:none;fill-rule:evenodd;stroke:#000000;stroke-width:2.0px;stroke-linecap:butt;stroke-linejoin:miter;stroke-opacity:1"/>
<path class="bond-25 atom-24 atom-26" d="M 180.1,128.8 L 180.7,140.0" style="fill:none;fill-rule:evenodd;stroke:#FF0000;stroke-width:2.0px;stroke-linecap:butt;stroke-linejoin:miter;stroke-opacity:1"/>
<path d="M 294.5,69.6 L 294.6,71.0 L 293.4,71.7" style="fill:none;stroke:#000000;stroke-width:2.0px;stroke-linecap:butt;stroke-linejoin:miter;stroke-opacity:1;"/>
<path d="M 250.2,99.7 L 249.1,100.5 L 247.9,99.9" style="fill:none;stroke:#000000;stroke-width:2.0px;stroke-linecap:butt;stroke-linejoin:miter;stroke-opacity:1;"/>
<path d="M 226.2,88.8 L 225.0,88.2 L 223.8,88.9" style="fill:none;stroke:#000000;stroke-width:2.0px;stroke-linecap:butt;stroke-linejoin:miter;stroke-opacity:1;"/>
<path d="M 188.2,81.3 L 187.5,80.2 L 186.1,80.3" style="fill:none;stroke:#000000;stroke-width:2.0px;stroke-linecap:butt;stroke-linejoin:miter;stroke-opacity:1;"/>
<path d="M 161.8,81.6 L 160.4,81.6 L 159.7,80.5" style="fill:none;stroke:#000000;stroke-width:2.0px;stroke-linecap:butt;stroke-linejoin:miter;stroke-opacity:1;"/>
<path d="M 146.4,60.0 L 145.7,58.9 L 144.3,59.0" style="fill:none;stroke:#000000;stroke-width:2.0px;stroke-linecap:butt;stroke-linejoin:miter;stroke-opacity:1;"/>
<path d="M 92.9,61.7 L 91.6,61.7 L 90.9,62.9" style="fill:none;stroke:#000000;stroke-width:2.0px;stroke-linecap:butt;stroke-linejoin:miter;stroke-opacity:1;"/>
<path d="M 79.9,84.7 L 79.3,85.9 L 77.9,85.9" style="fill:none;stroke:#000000;stroke-width:2.0px;stroke-linecap:butt;stroke-linejoin:miter;stroke-opacity:1;"/>
<path d="M 50.9,61.6 L 50.8,60.2 L 50.3,60.0" style="fill:none;stroke:#000000;stroke-width:2.0px;stroke-linecap:butt;stroke-linejoin:miter;stroke-opacity:1;"/>
<path d="M 53.5,113.0 L 53.6,114.3 L 53.2,114.6" style="fill:none;stroke:#000000;stroke-width:2.0px;stroke-linecap:butt;stroke-linejoin:miter;stroke-opacity:1;"/>
<path d="M 180.7,116.9 L 179.5,117.7 L 179.5,118.2" style="fill:none;stroke:#000000;stroke-width:2.0px;stroke-linecap:butt;stroke-linejoin:miter;stroke-opacity:1;"/>
<path class="atom-20" d="M 15.5 44.1 L 16.6 44.1 L 16.6 47.4 L 20.5 47.4 L 20.5 44.1 L 21.6 44.1 L 21.6 51.8 L 20.5 51.8 L 20.5 48.3 L 16.6 48.3 L 16.6 51.8 L 15.5 51.8 L 15.5 44.1 " fill="#FF0000"/>
<path class="atom-20" d="M 23.1 47.9 Q 23.1 46.1, 24.0 45.1 Q 24.9 44.0, 26.6 44.0 Q 28.4 44.0, 29.3 45.1 Q 30.2 46.1, 30.2 47.9 Q 30.2 49.8, 29.3 50.9 Q 28.3 51.9, 26.6 51.9 Q 25.0 51.9, 24.0 50.9 Q 23.1 49.8, 23.1 47.9 M 26.6 51.1 Q 27.8 51.1, 28.4 50.3 Q 29.1 49.5, 29.1 47.9 Q 29.1 46.4, 28.4 45.7 Q 27.8 44.9, 26.6 44.9 Q 25.5 44.9, 24.8 45.7 Q 24.2 46.4, 24.2 47.9 Q 24.2 49.5, 24.8 50.3 Q 25.5 51.1, 26.6 51.1 " fill="#FF0000"/>
<path class="atom-22" d="M 74.2 126.7 Q 74.2 124.8, 75.1 123.8 Q 76.1 122.8, 77.8 122.8 Q 79.5 122.8, 80.4 123.8 Q 81.3 124.8, 81.3 126.7 Q 81.3 128.5, 80.4 129.6 Q 79.4 130.6, 77.8 130.6 Q 76.1 130.6, 75.1 129.6 Q 74.2 128.5, 74.2 126.7 M 77.8 129.8 Q 78.9 129.8, 79.6 129.0 Q 80.2 128.2, 80.2 126.7 Q 80.2 125.2, 79.6 124.4 Q 78.9 123.6, 77.8 123.6 Q 76.6 123.6, 75.9 124.4 Q 75.3 125.1, 75.3 126.7 Q 75.3 128.2, 75.9 129.0 Q 76.6 129.8, 77.8 129.8 " fill="#FF0000"/>
<path class="atom-23" d="M 19.8 125.3 L 20.8 125.3 L 20.8 128.6 L 24.8 128.6 L 24.8 125.3 L 25.8 125.3 L 25.8 133.0 L 24.8 133.0 L 24.8 129.4 L 20.8 129.4 L 20.8 133.0 L 19.8 133.0 L 19.8 125.3 " fill="#FF0000"/>
<path class="atom-23" d="M 27.4 129.1 Q 27.4 127.3, 28.3 126.2 Q 29.2 125.2, 30.9 125.2 Q 32.6 125.2, 33.5 126.2 Q 34.4 127.3, 34.4 129.1 Q 34.4 131.0, 33.5 132.0 Q 32.6 133.1, 30.9 133.1 Q 29.2 133.1, 28.3 132.0 Q 27.4 131.0, 27.4 129.1 M 30.9 132.2 Q 32.1 132.2, 32.7 131.4 Q 33.3 130.7, 33.3 129.1 Q 33.3 127.6, 32.7 126.8 Q 32.1 126.1, 30.9 126.1 Q 29.7 126.1, 29.1 126.8 Q 28.5 127.6, 28.5 129.1 Q 28.5 130.7, 29.1 131.4 Q 29.7 132.2, 30.9 132.2 " fill="#FF0000"/>
<path class="atom-25" d="M 151.9 105.4 Q 151.9 103.6, 152.8 102.5 Q 153.7 101.5, 155.4 101.5 Q 157.1 101.5, 158.0 102.5 Q 158.9 103.6, 158.9 105.4 Q 158.9 107.3, 158.0 108.3 Q 157.1 109.4, 155.4 109.4 Q 153.7 109.4, 152.8 108.3 Q 151.9 107.3, 151.9 105.4 M 155.4 108.5 Q 156.5 108.5, 157.2 107.7 Q 157.8 106.9, 157.8 105.4 Q 157.8 103.9, 157.2 103.1 Q 156.5 102.4, 155.4 102.4 Q 154.2 102.4, 153.6 103.1 Q 152.9 103.9, 152.9 105.4 Q 152.9 107.0, 153.6 107.7 Q 154.2 108.5, 155.4 108.5 " fill="#FF0000"/>
<path class="atom-26" d="M 177.4 144.8 Q 177.4 142.9, 178.3 141.9 Q 179.2 140.9, 180.9 140.9 Q 182.6 140.9, 183.5 141.9 Q 184.5 142.9, 184.5 144.8 Q 184.5 146.6, 183.5 147.7 Q 182.6 148.7, 180.9 148.7 Q 179.2 148.7, 178.3 147.7 Q 177.4 146.6, 177.4 144.8 M 180.9 147.9 Q 182.1 147.9, 182.7 147.1 Q 183.4 146.3, 183.4 144.8 Q 183.4 143.3, 182.7 142.5 Q 182.1 141.7, 180.9 141.7 Q 179.8 141.7, 179.1 142.5 Q 178.5 143.2, 178.5 144.8 Q 178.5 146.3, 179.1 147.1 Q 179.8 147.9, 180.9 147.9 " fill="#FF0000"/>
<path class="atom-26" d="M 185.6 141.0 L 186.7 141.0 L 186.7 144.2 L 190.6 144.2 L 190.6 141.0 L 191.6 141.0 L 191.6 148.6 L 190.6 148.6 L 190.6 145.1 L 186.7 145.1 L 186.7 148.6 L 185.6 148.6 L 185.6 141.0 " fill="#FF0000"/>
<path class="legend" d="M 146.0 181.9 Q 146.0 179.6, 146.7 177.7 Q 147.4 175.8, 148.7 173.8 L 149.6 174.4 Q 148.5 176.3, 148.0 178.0 Q 147.5 179.7, 147.5 181.9 Q 147.5 184.0, 148.0 185.8 Q 148.5 187.5, 149.6 189.4 L 148.7 190.0 Q 147.4 188.0, 146.7 186.1 Q 146.0 184.2, 146.0 181.9 " fill="#000000"/>
<path class="legend" d="M 150.5 177.3 Q 150.9 176.2, 151.9 175.6 Q 152.9 175.0, 154.3 175.0 Q 156.0 175.0, 156.9 175.9 Q 157.9 176.8, 157.9 178.5 Q 157.9 180.2, 156.6 181.7 Q 155.4 183.3, 152.9 185.2 L 158.1 185.2 L 158.1 186.4 L 150.5 186.4 L 150.5 185.4 Q 152.6 183.9, 153.8 182.8 Q 155.1 181.6, 155.7 180.6 Q 156.3 179.6, 156.3 178.6 Q 156.3 177.5, 155.8 176.9 Q 155.2 176.3, 154.3 176.3 Q 153.3 176.3, 152.7 176.6 Q 152.1 177.0, 151.7 177.8 L 150.5 177.3 " fill="#000000"/>
<path class="legend" d="M 163.1 181.9 Q 163.1 184.2, 162.4 186.1 Q 161.7 188.0, 160.4 190.0 L 159.5 189.4 Q 160.6 187.5, 161.1 185.8 Q 161.6 184.0, 161.6 181.9 Q 161.6 179.7, 161.1 178.0 Q 160.6 176.3, 159.5 174.4 L 160.4 173.8 Q 161.7 175.8, 162.4 177.7 Q 163.1 179.6, 163.1 181.9 " fill="#000000"/>
</g>
    <g transform="translate(311.0, 0) scale(1 1) "><line x1="5" y1="100" x2="35" y2="100" style="stroke:rgb(0,0,0);stroke-width:2"/>
  <line x1="34" y1="100" x2="29" y2="95" style="stroke:rgb(0,0,0);stroke-width:2"/>
  <line x1="34" y1="100" x2="29" y2="105" style="stroke:rgb(0,0,0);stroke-width:2"/>
</g>
    <g transform="translate(351.0, 0) scale(1 1) "><!-- END OF HEADER -->
<rect style="opacity:1.0;fill:#FFFFFF;stroke:none" width="205.0" height="200.0" x="0.0" y="0.0"> </rect>
<path class="bond-0 atom-0 atom-1" d="M 122.6,44.3 L 108.8,89.2" style="fill:none;fill-rule:evenodd;stroke:#000000;stroke-width:2.0px;stroke-linecap:butt;stroke-linejoin:miter;stroke-opacity:1"/>
<path class="bond-1 atom-1 atom-2" d="M 108.8,89.2 L 95.0,134.1" style="fill:none;fill-rule:evenodd;stroke:#000000;stroke-width:2.0px;stroke-linecap:butt;stroke-linejoin:miter;stroke-opacity:1"/>
<path class="bond-2 atom-1 atom-3" d="M 108.8,89.2 L 63.9,75.4" style="fill:none;fill-rule:evenodd;stroke:#000000;stroke-width:2.0px;stroke-linecap:butt;stroke-linejoin:miter;stroke-opacity:1"/>
<path class="bond-3 atom-3 atom-4" d="M 63.9,75.4 L 50.5,87.9" style="fill:none;fill-rule:evenodd;stroke:#000000;stroke-width:2.0px;stroke-linecap:butt;stroke-linejoin:miter;stroke-opacity:1"/>
<path class="bond-3 atom-3 atom-4" d="M 50.5,87.9 L 37.2,100.3" style="fill:none;fill-rule:evenodd;stroke:#FF0000;stroke-width:2.0px;stroke-linecap:butt;stroke-linejoin:miter;stroke-opacity:1"/>
<path class="bond-4 atom-1 atom-5" d="M 108.8,89.2 L 153.7,103.0" style="fill:none;fill-rule:evenodd;stroke:#000000;stroke-width:2.0px;stroke-linecap:butt;stroke-linejoin:miter;stroke-opacity:1"/>
<path class="bond-5 atom-5 atom-6" d="M 154.7,107.0 L 168.8,93.8" style="fill:none;fill-rule:evenodd;stroke:#000000;stroke-width:2.0px;stroke-linecap:butt;stroke-linejoin:miter;stroke-opacity:1"/>
<path class="bond-5 atom-5 atom-6" d="M 168.8,93.8 L 182.9,80.7" style="fill:none;fill-rule:evenodd;stroke:#FF0000;stroke-width:2.0px;stroke-linecap:butt;stroke-linejoin:miter;stroke-opacity:1"/>
<path class="bond-5 atom-5 atom-6" d="M 149.9,101.8 L 164.0,88.7" style="fill:none;fill-rule:evenodd;stroke:#000000;stroke-width:2.0px;stroke-linecap:butt;stroke-linejoin:miter;stroke-opacity:1"/>
<path class="bond-5 atom-5 atom-6" d="M 164.0,88.7 L 178.1,75.5" style="fill:none;fill-rule:evenodd;stroke:#FF0000;stroke-width:2.0px;stroke-linecap:butt;stroke-linejoin:miter;stroke-opacity:1"/>
<path class="bond-6 atom-5 atom-7" d="M 153.7,103.0 L 158.0,121.7" style="fill:none;fill-rule:evenodd;stroke:#000000;stroke-width:2.0px;stroke-linecap:butt;stroke-linejoin:miter;stroke-opacity:1"/>
<path class="bond-6 atom-5 atom-7" d="M 158.0,121.7 L 162.4,140.5" style="fill:none;fill-rule:evenodd;stroke:#FF0000;stroke-width:2.0px;stroke-linecap:butt;stroke-linejoin:miter;stroke-opacity:1"/>
<path d="M 66.1,76.1 L 63.9,75.4 L 63.2,76.0" style="fill:none;stroke:#000000;stroke-width:2.0px;stroke-linecap:butt;stroke-linejoin:miter;stroke-opacity:1;"/>
<path d="M 151.5,102.3 L 153.7,103.0 L 154.0,103.9" style="fill:none;stroke:#000000;stroke-width:2.0px;stroke-linecap:butt;stroke-linejoin:miter;stroke-opacity:1;"/>
<path class="atom-4" d="M 10.2 100.8 L 12.1 100.8 L 12.1 106.5 L 18.9 106.5 L 18.9 100.8 L 20.7 100.8 L 20.7 114.1 L 18.9 114.1 L 18.9 108.0 L 12.1 108.0 L 12.1 114.1 L 10.2 114.1 L 10.2 100.8 " fill="#FF0000"/>
<path class="atom-4" d="M 23.4 107.5 Q 23.4 104.3, 25.0 102.5 Q 26.5 100.7, 29.5 100.7 Q 32.5 100.7, 34.0 102.5 Q 35.6 104.3, 35.6 107.5 Q 35.6 110.7, 34.0 112.5 Q 32.4 114.4, 29.5 114.4 Q 26.6 114.4, 25.0 112.5 Q 23.4 110.7, 23.4 107.5 M 29.5 112.9 Q 31.5 112.9, 32.6 111.5 Q 33.7 110.1, 33.7 107.5 Q 33.7 104.8, 32.6 103.5 Q 31.5 102.2, 29.5 102.2 Q 27.5 102.2, 26.4 103.5 Q 25.3 104.8, 25.3 107.5 Q 25.3 110.1, 26.4 111.5 Q 27.5 112.9, 29.5 112.9 " fill="#FF0000"/>
<path class="atom-6" d="M 182.0 71.0 Q 182.0 67.8, 183.6 66.0 Q 185.2 64.3, 188.1 64.3 Q 191.1 64.3, 192.7 66.0 Q 194.3 67.8, 194.3 71.0 Q 194.3 74.3, 192.7 76.1 Q 191.1 77.9, 188.1 77.9 Q 185.2 77.9, 183.6 76.1 Q 182.0 74.3, 182.0 71.0 M 188.1 76.4 Q 190.2 76.4, 191.3 75.1 Q 192.4 73.7, 192.4 71.0 Q 192.4 68.4, 191.3 67.1 Q 190.2 65.8, 188.1 65.8 Q 186.1 65.8, 185.0 67.1 Q 183.9 68.4, 183.9 71.0 Q 183.9 73.7, 185.0 75.1 Q 186.1 76.4, 188.1 76.4 " fill="#FF0000"/>
<path class="atom-7" d="M 158.2 148.8 Q 158.2 145.6, 159.7 143.8 Q 161.3 142.1, 164.3 142.1 Q 167.2 142.1, 168.8 143.8 Q 170.4 145.6, 170.4 148.8 Q 170.4 152.1, 168.8 153.9 Q 167.2 155.7, 164.3 155.7 Q 161.3 155.7, 159.7 153.9 Q 158.2 152.1, 158.2 148.8 M 164.3 154.2 Q 166.3 154.2, 167.4 152.9 Q 168.5 151.5, 168.5 148.8 Q 168.5 146.2, 167.4 144.9 Q 166.3 143.6, 164.3 143.6 Q 162.2 143.6, 161.1 144.9 Q 160.0 146.2, 160.0 148.8 Q 160.0 151.5, 161.1 152.9 Q 162.2 154.2, 164.3 154.2 " fill="#FF0000"/>
<path class="atom-7" d="M 172.4 142.2 L 174.2 142.2 L 174.2 147.9 L 181.0 147.9 L 181.0 142.2 L 182.9 142.2 L 182.9 155.5 L 181.0 155.5 L 181.0 149.4 L 174.2 149.4 L 174.2 155.5 L 172.4 155.5 L 172.4 142.2 " fill="#FF0000"/>
</g>
    <g transform="translate(556.0, 0) scale(1 1) "><line x1="15" y1="100" x2="25" y2="100" style="stroke:rgb(0,0,0);stroke-width:2"/>
  <line x1="20" y1="95" x2="20" y2="105" style="stroke:rgb(0,0,0);stroke-width:2"/>
</g>
    <g transform="translate(596.0, 0) scale(1 1) "><!-- END OF HEADER -->
<rect style="opacity:1.0;fill:#FFFFFF;stroke:none" width="357.0" height="200.0" x="0.0" y="0.0"> </rect>
<path class="bond-0 atom-0 atom-1" d="M 69.6,149.6 L 57.0,132.5" style="fill:none;fill-rule:evenodd;stroke:#000000;stroke-width:2.0px;stroke-linecap:butt;stroke-linejoin:miter;stroke-opacity:1"/>
<path class="bond-1 atom-1 atom-2" d="M 57.0,132.5 L 65.5,113.0" style="fill:none;fill-rule:evenodd;stroke:#000000;stroke-width:2.0px;stroke-linecap:butt;stroke-linejoin:miter;stroke-opacity:1"/>
<path class="bond-2 atom-2 atom-3" d="M 65.5,113.0 L 85.0,121.5" style="fill:none;fill-rule:evenodd;stroke:#000000;stroke-width:2.0px;stroke-linecap:butt;stroke-linejoin:miter;stroke-opacity:1"/>
<path class="bond-3 atom-2 atom-4" d="M 65.5,113.0 L 46.1,104.5" style="fill:none;fill-rule:evenodd;stroke:#000000;stroke-width:2.0px;stroke-linecap:butt;stroke-linejoin:miter;stroke-opacity:1"/>
<path class="bond-4 atom-2 atom-5" d="M 65.5,113.0 L 74.0,93.6" style="fill:none;fill-rule:evenodd;stroke:#000000;stroke-width:2.0px;stroke-linecap:butt;stroke-linejoin:miter;stroke-opacity:1"/>
<path class="bond-5 atom-5 atom-6" d="M 74.0,93.6 L 95.2,91.2" style="fill:none;fill-rule:evenodd;stroke:#000000;stroke-width:2.0px;stroke-linecap:butt;stroke-linejoin:miter;stroke-opacity:1"/>
<path class="bond-6 atom-6 atom-7" d="M 95.2,91.2 L 103.7,71.7" style="fill:none;fill-rule:evenodd;stroke:#000000;stroke-width:2.0px;stroke-linecap:butt;stroke-linejoin:miter;stroke-opacity:1"/>
<path class="bond-7 atom-7 atom-8" d="M 103.7,71.7 L 84.2,63.2" style="fill:none;fill-rule:evenodd;stroke:#000000;stroke-width:2.0px;stroke-linecap:butt;stroke-linejoin:miter;stroke-opacity:1"/>
<path class="bond-8 atom-7 atom-9" d="M 103.7,71.7 L 123.2,80.2" style="fill:none;fill-rule:evenodd;stroke:#000000;stroke-width:2.0px;stroke-linecap:butt;stroke-linejoin:miter;stroke-opacity:1"/>
<path class="bond-9 atom-9 atom-10" d="M 123.2,80.2 L 140.3,67.6" style="fill:none;fill-rule:evenodd;stroke:#000000;stroke-width:2.0px;stroke-linecap:butt;stroke-linejoin:miter;stroke-opacity:1"/>
<path class="bond-10 atom-10 atom-11" d="M 140.3,67.6 L 159.7,76.1" style="fill:none;fill-rule:evenodd;stroke:#000000;stroke-width:2.0px;stroke-linecap:butt;stroke-linejoin:miter;stroke-opacity:1"/>
<path class="bond-11 atom-11 atom-12" d="M 159.7,76.1 L 176.9,63.5" style="fill:none;fill-rule:evenodd;stroke:#000000;stroke-width:2.0px;stroke-linecap:butt;stroke-linejoin:miter;stroke-opacity:1"/>
<path class="bond-12 atom-12 atom-13" d="M 176.9,63.5 L 189.5,80.6" style="fill:none;fill-rule:evenodd;stroke:#000000;stroke-width:2.0px;stroke-linecap:butt;stroke-linejoin:miter;stroke-opacity:1"/>
<path class="bond-13 atom-12 atom-14" d="M 176.9,63.5 L 164.2,46.4" style="fill:none;fill-rule:evenodd;stroke:#000000;stroke-width:2.0px;stroke-linecap:butt;stroke-linejoin:miter;stroke-opacity:1"/>
<path class="bond-14 atom-12 atom-15" d="M 176.9,63.5 L 194.0,50.9" style="fill:none;fill-rule:evenodd;stroke:#000000;stroke-width:2.0px;stroke-linecap:butt;stroke-linejoin:miter;stroke-opacity:1"/>
<path class="bond-15 atom-15 atom-16" d="M 194.0,50.9 L 213.4,59.4" style="fill:none;fill-rule:evenodd;stroke:#000000;stroke-width:2.0px;stroke-linecap:butt;stroke-linejoin:miter;stroke-opacity:1"/>
<path class="bond-16 atom-16 atom-17" d="M 213.4,59.4 L 215.8,80.5" style="fill:none;fill-rule:evenodd;stroke:#000000;stroke-width:2.0px;stroke-linecap:butt;stroke-linejoin:miter;stroke-opacity:1"/>
<path class="bond-17 atom-17 atom-18" d="M 215.8,80.5 L 235.3,89.0" style="fill:none;fill-rule:evenodd;stroke:#000000;stroke-width:2.0px;stroke-linecap:butt;stroke-linejoin:miter;stroke-opacity:1"/>
<path class="bond-18 atom-18 atom-19" d="M 235.3,89.0 L 237.7,110.2" style="fill:none;fill-rule:evenodd;stroke:#000000;stroke-width:2.0px;stroke-linecap:butt;stroke-linejoin:miter;stroke-opacity:1"/>
<path class="bond-19 atom-19 atom-20" d="M 237.7,110.2 L 216.5,112.5" style="fill:none;fill-rule:evenodd;stroke:#000000;stroke-width:2.0px;stroke-linecap:butt;stroke-linejoin:miter;stroke-opacity:1"/>
<path class="bond-20 atom-19 atom-21" d="M 237.7,110.2 L 258.8,107.8" style="fill:none;fill-rule:evenodd;stroke:#000000;stroke-width:2.0px;stroke-linecap:butt;stroke-linejoin:miter;stroke-opacity:1"/>
<path class="bond-21 atom-19 atom-22" d="M 237.7,110.2 L 240.0,131.3" style="fill:none;fill-rule:evenodd;stroke:#000000;stroke-width:2.0px;stroke-linecap:butt;stroke-linejoin:miter;stroke-opacity:1"/>
<path class="bond-22 atom-22 atom-23" d="M 240.0,131.3 L 222.9,143.9" style="fill:none;fill-rule:evenodd;stroke:#000000;stroke-width:2.0px;stroke-linecap:butt;stroke-linejoin:miter;stroke-opacity:1"/>
<path class="bond-23 atom-23 atom-24" d="M 222.9,143.9 L 225.3,165.0" style="fill:none;fill-rule:evenodd;stroke:#000000;stroke-width:2.0px;stroke-linecap:butt;stroke-linejoin:miter;stroke-opacity:1"/>
<path class="bond-24 atom-24 atom-25" d="M 225.3,165.0 L 227.7,186.1" style="fill:none;fill-rule:evenodd;stroke:#000000;stroke-width:2.0px;stroke-linecap:butt;stroke-linejoin:miter;stroke-opacity:1"/>
<path class="bond-25 atom-24 atom-26" d="M 225.3,165.0 L 246.4,162.6" style="fill:none;fill-rule:evenodd;stroke:#000000;stroke-width:2.0px;stroke-linecap:butt;stroke-linejoin:miter;stroke-opacity:1"/>
<path class="bond-26 atom-26 atom-27" d="M 246.4,162.6 L 251.3,169.3" style="fill:none;fill-rule:evenodd;stroke:#000000;stroke-width:2.0px;stroke-linecap:butt;stroke-linejoin:miter;stroke-opacity:1"/>
<path class="bond-26 atom-26 atom-27" d="M 251.3,169.3 L 256.3,176.0" style="fill:none;fill-rule:evenodd;stroke:#FF0000;stroke-width:2.0px;stroke-linecap:butt;stroke-linejoin:miter;stroke-opacity:1"/>
<path class="bond-27 atom-24 atom-28" d="M 225.3,165.0 L 204.2,167.4" style="fill:none;fill-rule:evenodd;stroke:#000000;stroke-width:2.0px;stroke-linecap:butt;stroke-linejoin:miter;stroke-opacity:1"/>
<path class="bond-28 atom-28 atom-29" d="M 206.0,167.2 L 200.8,160.2" style="fill:none;fill-rule:evenodd;stroke:#000000;stroke-width:2.0px;stroke-linecap:butt;stroke-linejoin:miter;stroke-opacity:1"/>
<path class="bond-28 atom-28 atom-29" d="M 200.8,160.2 L 195.7,153.2" style="fill:none;fill-rule:evenodd;stroke:#FF0000;stroke-width:2.0px;stroke-linecap:butt;stroke-linejoin:miter;stroke-opacity:1"/>
<path class="bond-28 atom-28 atom-29" d="M 203.4,169.1 L 198.3,162.1" style="fill:none;fill-rule:evenodd;stroke:#000000;stroke-width:2.0px;stroke-linecap:butt;stroke-linejoin:miter;stroke-opacity:1"/>
<path class="bond-28 atom-28 atom-29" d="M 198.3,162.1 L 193.1,155.1" style="fill:none;fill-rule:evenodd;stroke:#FF0000;stroke-width:2.0px;stroke-linecap:butt;stroke-linejoin:miter;stroke-opacity:1"/>
<path class="bond-29 atom-28 atom-30" d="M 204.2,167.4 L 200.7,175.3" style="fill:none;fill-rule:evenodd;stroke:#000000;stroke-width:2.0px;stroke-linecap:butt;stroke-linejoin:miter;stroke-opacity:1"/>
<path class="bond-29 atom-28 atom-30" d="M 200.7,175.3 L 197.3,183.1" style="fill:none;fill-rule:evenodd;stroke:#FF0000;stroke-width:2.0px;stroke-linecap:butt;stroke-linejoin:miter;stroke-opacity:1"/>
<path class="bond-30 atom-16 atom-31" d="M 213.4,59.4 L 230.5,46.8" style="fill:none;fill-rule:evenodd;stroke:#000000;stroke-width:2.0px;stroke-linecap:butt;stroke-linejoin:miter;stroke-opacity:1"/>
<path class="bond-31 atom-31 atom-32" d="M 230.5,46.8 L 217.9,29.7" style="fill:none;fill-rule:evenodd;stroke:#000000;stroke-width:2.0px;stroke-linecap:butt;stroke-linejoin:miter;stroke-opacity:1"/>
<path class="bond-32 atom-31 atom-33" d="M 230.5,46.8 L 243.2,63.9" style="fill:none;fill-rule:evenodd;stroke:#000000;stroke-width:2.0px;stroke-linecap:butt;stroke-linejoin:miter;stroke-opacity:1"/>
<path class="bond-33 atom-33 atom-34" d="M 243.2,63.9 L 264.3,61.5" style="fill:none;fill-rule:evenodd;stroke:#000000;stroke-width:2.0px;stroke-linecap:butt;stroke-linejoin:miter;stroke-opacity:1"/>
<path class="bond-34 atom-34 atom-35" d="M 264.3,61.5 L 276.9,78.6" style="fill:none;fill-rule:evenodd;stroke:#000000;stroke-width:2.0px;stroke-linecap:butt;stroke-linejoin:miter;stroke-opacity:1"/>
<path class="bond-35 atom-35 atom-36" d="M 276.9,78.6 L 294.0,66.0" style="fill:none;fill-rule:evenodd;stroke:#000000;stroke-width:2.0px;stroke-linecap:butt;stroke-linejoin:miter;stroke-opacity:1"/>
<path class="bond-36 atom-35 atom-37" d="M 276.9,78.6 L 259.8,91.2" style="fill:none;fill-rule:evenodd;stroke:#000000;stroke-width:2.0px;stroke-linecap:butt;stroke-linejoin:miter;stroke-opacity:1"/>
<path class="bond-37 atom-35 atom-38" d="M 276.9,78.6 L 289.5,95.7" style="fill:none;fill-rule:evenodd;stroke:#000000;stroke-width:2.0px;stroke-linecap:butt;stroke-linejoin:miter;stroke-opacity:1"/>
<path class="bond-38 atom-38 atom-39" d="M 289.5,95.7 L 310.6,93.4" style="fill:none;fill-rule:evenodd;stroke:#000000;stroke-width:2.0px;stroke-linecap:butt;stroke-linejoin:miter;stroke-opacity:1"/>
<path class="bond-39 atom-31 atom-40" d="M 230.5,46.8 L 247.7,34.2" style="fill:none;fill-rule:evenodd;stroke:#000000;stroke-width:2.0px;stroke-linecap:butt;stroke-linejoin:miter;stroke-opacity:1"/>
<path class="bond-40 atom-40 atom-41" d="M 249.3,34.9 L 248.3,25.8" style="fill:none;fill-rule:evenodd;stroke:#000000;stroke-width:2.0px;stroke-linecap:butt;stroke-linejoin:miter;stroke-opacity:1"/>
<path class="bond-40 atom-40 atom-41" d="M 248.3,25.8 L 247.3,16.7" style="fill:none;fill-rule:evenodd;stroke:#FF0000;stroke-width:2.0px;stroke-linecap:butt;stroke-linejoin:miter;stroke-opacity:1"/>
<path class="bond-40 atom-40 atom-41" d="M 246.2,35.3 L 245.2,26.2" style="fill:none;fill-rule:evenodd;stroke:#000000;stroke-width:2.0px;stroke-linecap:butt;stroke-linejoin:miter;stroke-opacity:1"/>
<path class="bond-40 atom-40 atom-41" d="M 245.2,26.2 L 244.1,17.1" style="fill:none;fill-rule:evenodd;stroke:#FF0000;stroke-width:2.0px;stroke-linecap:butt;stroke-linejoin:miter;stroke-opacity:1"/>
<path class="bond-41 atom-40 atom-42" d="M 247.7,34.2 L 255.7,37.7" style="fill:none;fill-rule:evenodd;stroke:#000000;stroke-width:2.0px;stroke-linecap:butt;stroke-linejoin:miter;stroke-opacity:1"/>
<path class="bond-41 atom-40 atom-42" d="M 255.7,37.7 L 263.7,41.2" style="fill:none;fill-rule:evenodd;stroke:#FF0000;stroke-width:2.0px;stroke-linecap:butt;stroke-linejoin:miter;stroke-opacity:1"/>
<path class="bond-42 atom-7 atom-43" d="M 103.7,71.7 L 112.2,52.2" style="fill:none;fill-rule:evenodd;stroke:#000000;stroke-width:2.0px;stroke-linecap:butt;stroke-linejoin:miter;stroke-opacity:1"/>
<path class="bond-43 atom-43 atom-44" d="M 111.5,53.9 L 120.7,52.9" style="fill:none;fill-rule:evenodd;stroke:#000000;stroke-width:2.0px;stroke-linecap:butt;stroke-linejoin:miter;stroke-opacity:1"/>
<path class="bond-43 atom-43 atom-44" d="M 120.7,52.9 L 130.0,51.8" style="fill:none;fill-rule:evenodd;stroke:#FF0000;stroke-width:2.0px;stroke-linecap:butt;stroke-linejoin:miter;stroke-opacity:1"/>
<path class="bond-43 atom-43 atom-44" d="M 111.1,50.8 L 120.4,49.7" style="fill:none;fill-rule:evenodd;stroke:#000000;stroke-width:2.0px;stroke-linecap:butt;stroke-linejoin:miter;stroke-opacity:1"/>
<path class="bond-43 atom-43 atom-44" d="M 120.4,49.7 L 129.7,48.7" style="fill:none;fill-rule:evenodd;stroke:#FF0000;stroke-width:2.0px;stroke-linecap:butt;stroke-linejoin:miter;stroke-opacity:1"/>
<path class="bond-44 atom-43 atom-45" d="M 112.2,52.2 L 107.3,45.6" style="fill:none;fill-rule:evenodd;stroke:#000000;stroke-width:2.0px;stroke-linecap:butt;stroke-linejoin:miter;stroke-opacity:1"/>
<path class="bond-44 atom-43 atom-45" d="M 107.3,45.6 L 102.4,39.0" style="fill:none;fill-rule:evenodd;stroke:#FF0000;stroke-width:2.0px;stroke-linecap:butt;stroke-linejoin:miter;stroke-opacity:1"/>
<path d="M 57.7,133.4 L 57.0,132.5 L 57.5,131.5" style="fill:none;stroke:#000000;stroke-width:2.0px;stroke-linecap:butt;stroke-linejoin:miter;stroke-opacity:1;"/>
<path d="M 73.6,94.5 L 74.0,93.6 L 75.1,93.4" style="fill:none;stroke:#000000;stroke-width:2.0px;stroke-linecap:butt;stroke-linejoin:miter;stroke-opacity:1;"/>
<path d="M 94.1,91.3 L 95.2,91.2 L 95.6,90.2" style="fill:none;stroke:#000000;stroke-width:2.0px;stroke-linecap:butt;stroke-linejoin:miter;stroke-opacity:1;"/>
<path d="M 122.2,79.8 L 123.2,80.2 L 124.0,79.6" style="fill:none;stroke:#000000;stroke-width:2.0px;stroke-linecap:butt;stroke-linejoin:miter;stroke-opacity:1;"/>
<path d="M 139.4,68.2 L 140.3,67.6 L 141.2,68.0" style="fill:none;stroke:#000000;stroke-width:2.0px;stroke-linecap:butt;stroke-linejoin:miter;stroke-opacity:1;"/>
<path d="M 158.8,75.7 L 159.7,76.1 L 160.6,75.5" style="fill:none;stroke:#000000;stroke-width:2.0px;stroke-linecap:butt;stroke-linejoin:miter;stroke-opacity:1;"/>
<path d="M 193.1,51.5 L 194.0,50.9 L 194.9,51.3" style="fill:none;stroke:#000000;stroke-width:2.0px;stroke-linecap:butt;stroke-linejoin:miter;stroke-opacity:1;"/>
<path d="M 215.7,79.5 L 215.8,80.5 L 216.8,80.9" style="fill:none;stroke:#000000;stroke-width:2.0px;stroke-linecap:butt;stroke-linejoin:miter;stroke-opacity:1;"/>
<path d="M 234.3,88.6 L 235.3,89.0 L 235.4,90.1" style="fill:none;stroke:#000000;stroke-width:2.0px;stroke-linecap:butt;stroke-linejoin:miter;stroke-opacity:1;"/>
<path d="M 239.9,130.2 L 240.0,131.3 L 239.2,131.9" style="fill:none;stroke:#000000;stroke-width:2.0px;stroke-linecap:butt;stroke-linejoin:miter;stroke-opacity:1;"/>
<path d="M 223.8,143.3 L 222.9,143.9 L 223.0,144.9" style="fill:none;stroke:#000000;stroke-width:2.0px;stroke-linecap:butt;stroke-linejoin:miter;stroke-opacity:1;"/>
<path d="M 245.4,162.8 L 246.4,162.6 L 246.7,163.0" style="fill:none;stroke:#000000;stroke-width:2.0px;stroke-linecap:butt;stroke-linejoin:miter;stroke-opacity:1;"/>
<path d="M 205.2,167.3 L 204.2,167.4 L 204.0,167.8" style="fill:none;stroke:#000000;stroke-width:2.0px;stroke-linecap:butt;stroke-linejoin:miter;stroke-opacity:1;"/>
<path d="M 242.5,63.0 L 243.2,63.9 L 244.2,63.8" style="fill:none;stroke:#000000;stroke-width:2.0px;stroke-linecap:butt;stroke-linejoin:miter;stroke-opacity:1;"/>
<path d="M 263.2,61.6 L 264.3,61.5 L 264.9,62.4" style="fill:none;stroke:#000000;stroke-width:2.0px;stroke-linecap:butt;stroke-linejoin:miter;stroke-opacity:1;"/>
<path d="M 288.9,94.9 L 289.5,95.7 L 290.6,95.6" style="fill:none;stroke:#000000;stroke-width:2.0px;stroke-linecap:butt;stroke-linejoin:miter;stroke-opacity:1;"/>
<path d="M 246.8,34.8 L 247.7,34.2 L 248.1,34.3" style="fill:none;stroke:#000000;stroke-width:2.0px;stroke-linecap:butt;stroke-linejoin:miter;stroke-opacity:1;"/>
<path d="M 111.8,53.2 L 112.2,52.2 L 111.9,51.9" style="fill:none;stroke:#000000;stroke-width:2.0px;stroke-linecap:butt;stroke-linejoin:miter;stroke-opacity:1;"/>
<path class="atom-27" d="M 256.3 179.8 Q 256.3 178.3, 257.0 177.5 Q 257.7 176.7, 259.0 176.7 Q 260.4 176.7, 261.1 177.5 Q 261.8 178.3, 261.8 179.8 Q 261.8 181.2, 261.1 182.1 Q 260.3 182.9, 259.0 182.9 Q 257.7 182.9, 257.0 182.1 Q 256.3 181.2, 256.3 179.8 M 259.0 182.2 Q 259.9 182.2, 260.4 181.6 Q 260.9 181.0, 260.9 179.8 Q 260.9 178.6, 260.4 178.0 Q 259.9 177.4, 259.0 177.4 Q 258.1 177.4, 257.6 178.0 Q 257.1 178.6, 257.1 179.8 Q 257.1 181.0, 257.6 181.6 Q 258.1 182.2, 259.0 182.2 " fill="#FF0000"/>
<path class="atom-27" d="M 262.7 176.8 L 263.5 176.8 L 263.5 179.3 L 266.6 179.3 L 266.6 176.8 L 267.4 176.8 L 267.4 182.8 L 266.6 182.8 L 266.6 180.0 L 263.5 180.0 L 263.5 182.8 L 262.7 182.8 L 262.7 176.8 " fill="#FF0000"/>
<path class="atom-29" d="M 188.8 150.3 Q 188.8 148.8, 189.5 148.0 Q 190.2 147.2, 191.6 147.2 Q 192.9 147.2, 193.6 148.0 Q 194.3 148.8, 194.3 150.3 Q 194.3 151.8, 193.6 152.6 Q 192.9 153.4, 191.6 153.4 Q 190.2 153.4, 189.5 152.6 Q 188.8 151.8, 188.8 150.3 M 191.6 152.7 Q 192.5 152.7, 193.0 152.1 Q 193.5 151.5, 193.5 150.3 Q 193.5 149.1, 193.0 148.5 Q 192.5 147.9, 191.6 147.9 Q 190.6 147.9, 190.1 148.5 Q 189.6 149.1, 189.6 150.3 Q 189.6 151.5, 190.1 152.1 Q 190.6 152.7, 191.6 152.7 " fill="#FF0000"/>
<path class="atom-30" d="M 187.0 183.9 L 187.8 183.9 L 187.8 186.4 L 190.8 186.4 L 190.8 183.9 L 191.7 183.9 L 191.7 189.9 L 190.8 189.9 L 190.8 187.1 L 187.8 187.1 L 187.8 189.9 L 187.0 189.9 L 187.0 183.9 " fill="#FF0000"/>
<path class="atom-30" d="M 192.9 186.9 Q 192.9 185.4, 193.6 184.6 Q 194.3 183.8, 195.7 183.8 Q 197.0 183.8, 197.7 184.6 Q 198.4 185.4, 198.4 186.9 Q 198.4 188.3, 197.7 189.2 Q 197.0 190.0, 195.7 190.0 Q 194.3 190.0, 193.6 189.2 Q 192.9 188.4, 192.9 186.9 M 195.7 189.3 Q 196.6 189.3, 197.1 188.7 Q 197.6 188.1, 197.6 186.9 Q 197.6 185.7, 197.1 185.1 Q 196.6 184.5, 195.7 184.5 Q 194.7 184.5, 194.2 185.1 Q 193.7 185.7, 193.7 186.9 Q 193.7 188.1, 194.2 188.7 Q 194.7 189.3, 195.7 189.3 " fill="#FF0000"/>
<path class="atom-41" d="M 242.5 13.1 Q 242.5 11.6, 243.2 10.8 Q 244.0 10.0, 245.3 10.0 Q 246.6 10.0, 247.3 10.8 Q 248.1 11.6, 248.1 13.1 Q 248.1 14.5, 247.3 15.4 Q 246.6 16.2, 245.3 16.2 Q 244.0 16.2, 243.2 15.4 Q 242.5 14.5, 242.5 13.1 M 245.3 15.5 Q 246.2 15.5, 246.7 14.9 Q 247.2 14.3, 247.2 13.1 Q 247.2 11.9, 246.7 11.3 Q 246.2 10.7, 245.3 10.7 Q 244.4 10.7, 243.9 11.3 Q 243.4 11.9, 243.4 13.1 Q 243.4 14.3, 243.9 14.9 Q 244.4 15.5, 245.3 15.5 " fill="#FF0000"/>
<path class="atom-42" d="M 264.4 42.7 Q 264.4 41.2, 265.1 40.4 Q 265.8 39.6, 267.1 39.6 Q 268.5 39.6, 269.2 40.4 Q 269.9 41.2, 269.9 42.7 Q 269.9 44.2, 269.2 45.0 Q 268.5 45.8, 267.1 45.8 Q 265.8 45.8, 265.1 45.0 Q 264.4 44.2, 264.4 42.7 M 267.1 45.1 Q 268.1 45.1, 268.5 44.5 Q 269.0 43.9, 269.0 42.7 Q 269.0 41.5, 268.5 40.9 Q 268.1 40.3, 267.1 40.3 Q 266.2 40.3, 265.7 40.9 Q 265.2 41.5, 265.2 42.7 Q 265.2 43.9, 265.7 44.5 Q 266.2 45.1, 267.1 45.1 " fill="#FF0000"/>
<path class="atom-42" d="M 270.8 39.7 L 271.7 39.7 L 271.7 42.3 L 274.7 42.3 L 274.7 39.7 L 275.5 39.7 L 275.5 45.7 L 274.7 45.7 L 274.7 42.9 L 271.7 42.9 L 271.7 45.7 L 270.8 45.7 L 270.8 39.7 " fill="#FF0000"/>
<path class="atom-44" d="M 130.5 49.9 Q 130.5 48.4, 131.3 47.6 Q 132.0 46.8, 133.3 46.8 Q 134.6 46.8, 135.4 47.6 Q 136.1 48.4, 136.1 49.9 Q 136.1 51.3, 135.4 52.2 Q 134.6 53.0, 133.3 53.0 Q 132.0 53.0, 131.3 52.2 Q 130.5 51.4, 130.5 49.9 M 133.3 52.3 Q 134.2 52.3, 134.7 51.7 Q 135.2 51.1, 135.2 49.9 Q 135.2 48.7, 134.7 48.1 Q 134.2 47.5, 133.3 47.5 Q 132.4 47.5, 131.9 48.1 Q 131.4 48.7, 131.4 49.9 Q 131.4 51.1, 131.9 51.7 Q 132.4 52.3, 133.3 52.3 " fill="#FF0000"/>
<path class="atom-45" d="M 90.9 32.1 L 91.7 32.1 L 91.7 34.7 L 94.8 34.7 L 94.8 32.1 L 95.6 32.1 L 95.6 38.2 L 94.8 38.2 L 94.8 35.4 L 91.7 35.4 L 91.7 38.2 L 90.9 38.2 L 90.9 32.1 " fill="#FF0000"/>
<path class="atom-45" d="M 96.8 35.1 Q 96.8 33.7, 97.5 32.9 Q 98.2 32.1, 99.6 32.1 Q 100.9 32.1, 101.6 32.9 Q 102.3 33.7, 102.3 35.1 Q 102.3 36.6, 101.6 37.4 Q 100.9 38.3, 99.6 38.3 Q 98.2 38.3, 97.5 37.4 Q 96.8 36.6, 96.8 35.1 M 99.6 37.6 Q 100.5 37.6, 101.0 37.0 Q 101.5 36.3, 101.5 35.1 Q 101.5 34.0, 101.0 33.4 Q 100.5 32.8, 99.6 32.8 Q 98.7 32.8, 98.2 33.4 Q 97.7 34.0, 97.7 35.1 Q 97.7 36.4, 98.2 37.0 Q 98.7 37.6, 99.6 37.6 " fill="#FF0000"/>
</g>
  </g>
</svg>
