<?xml version='1.0' encoding='ASCII' standalone='yes'?>
<svg xmlns="http://www.w3.org/2000/svg" xmlns:xlink="http://www.w3.org/1999/xlink" version="1.1" width="844.0px" viewBox="0 0 844.0 200.0" height="200.0px">
  <g>
    <g transform="translate(0, 0) scale(1 1) "><!-- END OF HEADER -->
<rect style="opacity:1.0;fill:#FFFFFF;stroke:none" width="260.0" height="200.0" x="0.0" y="0.0"> </rect>
<path class="bond-0 atom-0 atom-1" d="M 188.4,44.6 L 179.6,81.2" style="fill:none;fill-rule:evenodd;stroke:#000000;stroke-width:2.0px;stroke-linecap:butt;stroke-linejoin:miter;stroke-opacity:1"/>
<path class="bond-1 atom-1 atom-2" d="M 179.6,81.2 L 170.8,117.8" style="fill:none;fill-rule:evenodd;stroke:#000000;stroke-width:2.0px;stroke-linecap:butt;stroke-linejoin:miter;stroke-opacity:1"/>
<path class="bond-2 atom-1 atom-3" d="M 179.6,81.2 L 143.0,72.4" style="fill:none;fill-rule:evenodd;stroke:#000000;stroke-width:2.0px;stroke-linecap:butt;stroke-linejoin:miter;stroke-opacity:1"/>
<path class="bond-3 atom-3 atom-4" d="M 143.0,72.4 L 117.0,99.7" style="fill:none;fill-rule:evenodd;stroke:#000000;stroke-width:2.0px;stroke-linecap:butt;stroke-linejoin:miter;stroke-opacity:1"/>
<path class="bond-4 atom-4 atom-5" d="M 117.0,99.7 L 121.4,114.4" style="fill:none;fill-rule:evenodd;stroke:#000000;stroke-width:2.0px;stroke-linecap:butt;stroke-linejoin:miter;stroke-opacity:1"/>
<path class="bond-4 atom-4 atom-5" d="M 121.4,114.4 L 125.8,129.2" style="fill:none;fill-rule:evenodd;stroke:#FF0000;stroke-width:2.0px;stroke-linecap:butt;stroke-linejoin:miter;stroke-opacity:1"/>
<path class="bond-5 atom-4 atom-6" d="M 117.0,99.7 L 80.4,90.9" style="fill:none;fill-rule:evenodd;stroke:#000000;stroke-width:2.0px;stroke-linecap:butt;stroke-linejoin:miter;stroke-opacity:1"/>
<path class="bond-6 atom-6 atom-7" d="M 80.4,90.9 L 89.2,54.3" style="fill:none;fill-rule:evenodd;stroke:#000000;stroke-width:2.0px;stroke-linecap:butt;stroke-linejoin:miter;stroke-opacity:1"/>
<path class="bond-7 atom-6 atom-8" d="M 80.4,90.9 L 71.6,127.5" style="fill:none;fill-rule:evenodd;stroke:#000000;stroke-width:2.0px;stroke-linecap:butt;stroke-linejoin:miter;stroke-opacity:1"/>
<path class="bond-8 atom-6 atom-9" d="M 80.4,90.9 L 43.8,82.1" style="fill:none;fill-rule:evenodd;stroke:#000000;stroke-width:2.0px;stroke-linecap:butt;stroke-linejoin:miter;stroke-opacity:1"/>
<path class="bond-9 atom-9 atom-10" d="M 42.9,79.0 L 32.4,90.0" style="fill:none;fill-rule:evenodd;stroke:#000000;stroke-width:2.0px;stroke-linecap:butt;stroke-linejoin:miter;stroke-opacity:1"/>
<path class="bond-9 atom-9 atom-10" d="M 32.4,90.0 L 22.0,101.0" style="fill:none;fill-rule:evenodd;stroke:#FF0000;stroke-width:2.0px;stroke-linecap:butt;stroke-linejoin:miter;stroke-opacity:1"/>
<path class="bond-9 atom-9 atom-10" d="M 47.0,82.9 L 36.5,93.9" style="fill:none;fill-rule:evenodd;stroke:#000000;stroke-width:2.0px;stroke-linecap:butt;stroke-linejoin:miter;stroke-opacity:1"/>
<path class="bond-9 atom-9 atom-10" d="M 36.5,93.9 L 26.1,104.9" style="fill:none;fill-rule:evenodd;stroke:#FF0000;stroke-width:2.0px;stroke-linecap:butt;stroke-linejoin:miter;stroke-opacity:1"/>
<path class="bond-10 atom-9 atom-11" d="M 43.8,82.1 L 39.5,67.5" style="fill:none;fill-rule:evenodd;stroke:#000000;stroke-width:2.0px;stroke-linecap:butt;stroke-linejoin:miter;stroke-opacity:1"/>
<path class="bond-10 atom-9 atom-11" d="M 39.5,67.5 L 35.1,52.8" style="fill:none;fill-rule:evenodd;stroke:#FF0000;stroke-width:2.0px;stroke-linecap:butt;stroke-linejoin:miter;stroke-opacity:1"/>
<path class="bond-11 atom-1 atom-12" d="M 179.6,81.2 L 216.2,90.0" style="fill:none;fill-rule:evenodd;stroke:#000000;stroke-width:2.0px;stroke-linecap:butt;stroke-linejoin:miter;stroke-opacity:1"/>
<path class="bond-12 atom-12 atom-13" d="M 217.1,93.1 L 227.6,82.1" style="fill:none;fill-rule:evenodd;stroke:#000000;stroke-width:2.0px;stroke-linecap:butt;stroke-linejoin:miter;stroke-opacity:1"/>
<path class="bond-12 atom-12 atom-13" d="M 227.6,82.1 L 238.0,71.1" style="fill:none;fill-rule:evenodd;stroke:#FF0000;stroke-width:2.0px;stroke-linecap:butt;stroke-linejoin:miter;stroke-opacity:1"/>
<path class="bond-12 atom-12 atom-13" d="M 213.0,89.2 L 223.5,78.2" style="fill:none;fill-rule:evenodd;stroke:#000000;stroke-width:2.0px;stroke-linecap:butt;stroke-linejoin:miter;stroke-opacity:1"/>
<path class="bond-12 atom-12 atom-13" d="M 223.5,78.2 L 233.9,67.2" style="fill:none;fill-rule:evenodd;stroke:#FF0000;stroke-width:2.0px;stroke-linecap:butt;stroke-linejoin:miter;stroke-opacity:1"/>
<path class="bond-13 atom-12 atom-14" d="M 216.2,90.0 L 220.5,104.7" style="fill:none;fill-rule:evenodd;stroke:#000000;stroke-width:2.0px;stroke-linecap:butt;stroke-linejoin:miter;stroke-opacity:1"/>
<path class="bond-13 atom-12 atom-14" d="M 220.5,104.7 L 224.9,119.5" style="fill:none;fill-rule:evenodd;stroke:#FF0000;stroke-width:2.0px;stroke-linecap:butt;stroke-linejoin:miter;stroke-opacity:1"/>
<path d="M 144.8,72.8 L 143.0,72.4 L 141.7,73.8" style="fill:none;stroke:#000000;stroke-width:2.0px;stroke-linecap:butt;stroke-linejoin:miter;stroke-opacity:1;"/>
<path d="M 45.6,82.6 L 43.8,82.1 L 43.6,81.4" style="fill:none;stroke:#000000;stroke-width:2.0px;stroke-linecap:butt;stroke-linejoin:miter;stroke-opacity:1;"/>
<path d="M 214.4,89.5 L 216.2,90.0 L 216.4,90.7" style="fill:none;stroke:#000000;stroke-width:2.0px;stroke-linecap:butt;stroke-linejoin:miter;stroke-opacity:1;"/>
<path class="atom-5" d="M 122.8 135.8 Q 122.8 133.3, 124.1 131.9 Q 125.4 130.4, 127.7 130.4 Q 130.1 130.4, 131.4 131.9 Q 132.6 133.3, 132.6 135.8 Q 132.6 138.4, 131.3 139.9 Q 130.1 141.4, 127.7 141.4 Q 125.4 141.4, 124.1 139.9 Q 122.8 138.4, 122.8 135.8 M 127.7 140.2 Q 129.4 140.2, 130.2 139.1 Q 131.1 138.0, 131.1 135.8 Q 131.1 133.8, 130.2 132.7 Q 129.4 131.6, 127.7 131.6 Q 126.1 131.6, 125.2 132.7 Q 124.3 133.7, 124.3 135.8 Q 124.3 138.0, 125.2 139.1 Q 126.1 140.2, 127.7 140.2 " fill="#FF0000"/>
<path class="atom-5" d="M 134.3 130.5 L 135.7 130.5 L 135.7 135.1 L 141.2 135.1 L 141.2 130.5 L 142.6 130.5 L 142.6 141.2 L 141.2 141.2 L 141.2 136.3 L 135.7 136.3 L 135.7 141.2 L 134.3 141.2 L 134.3 130.5 " fill="#FF0000"/>
<path class="atom-10" d="M 13.0 109.5 Q 13.0 106.9, 14.3 105.5 Q 15.5 104.0, 17.9 104.0 Q 20.3 104.0, 21.5 105.5 Q 22.8 106.9, 22.8 109.5 Q 22.8 112.1, 21.5 113.5 Q 20.2 115.0, 17.9 115.0 Q 15.5 115.0, 14.3 113.5 Q 13.0 112.1, 13.0 109.5 M 17.9 113.8 Q 19.5 113.8, 20.4 112.7 Q 21.3 111.6, 21.3 109.5 Q 21.3 107.4, 20.4 106.3 Q 19.5 105.2, 17.9 105.2 Q 16.3 105.2, 15.4 106.3 Q 14.5 107.4, 14.5 109.5 Q 14.5 111.6, 15.4 112.7 Q 16.3 113.8, 17.9 113.8 " fill="#FF0000"/>
<path class="atom-11" d="M 28.2 46.1 Q 28.2 43.5, 29.5 42.1 Q 30.8 40.6, 33.1 40.6 Q 35.5 40.6, 36.8 42.1 Q 38.0 43.5, 38.0 46.1 Q 38.0 48.6, 36.7 50.1 Q 35.5 51.6, 33.1 51.6 Q 30.8 51.6, 29.5 50.1 Q 28.2 48.7, 28.2 46.1 M 33.1 50.4 Q 34.8 50.4, 35.6 49.3 Q 36.5 48.2, 36.5 46.1 Q 36.5 44.0, 35.6 42.9 Q 34.8 41.8, 33.1 41.8 Q 31.5 41.8, 30.6 42.9 Q 29.7 43.9, 29.7 46.1 Q 29.7 48.2, 30.6 49.3 Q 31.5 50.4, 33.1 50.4 " fill="#FF0000"/>
<path class="atom-11" d="M 39.7 40.7 L 41.1 40.7 L 41.1 45.3 L 46.6 45.3 L 46.6 40.7 L 48.0 40.7 L 48.0 51.4 L 46.6 51.4 L 46.6 46.5 L 41.1 46.5 L 41.1 51.4 L 39.7 51.4 L 39.7 40.7 " fill="#FF0000"/>
<path class="atom-13" d="M 237.2 62.7 Q 237.2 60.1, 238.5 58.7 Q 239.7 57.3, 242.1 57.3 Q 244.5 57.3, 245.7 58.7 Q 247.0 60.1, 247.0 62.7 Q 247.0 65.3, 245.7 66.8 Q 244.4 68.2, 242.1 68.2 Q 239.8 68.2, 238.5 66.8 Q 237.2 65.3, 237.2 62.7 M 242.1 67.0 Q 243.7 67.0, 244.6 65.9 Q 245.5 64.8, 245.5 62.7 Q 245.5 60.6, 244.6 59.6 Q 243.7 58.5, 242.1 58.5 Q 240.5 58.5, 239.6 59.5 Q 238.7 60.6, 238.7 62.7 Q 238.7 64.9, 239.6 65.9 Q 240.5 67.0, 242.1 67.0 " fill="#FF0000"/>
<path class="atom-14" d="M 222.0 126.1 Q 222.0 123.6, 223.2 122.1 Q 224.5 120.7, 226.9 120.7 Q 229.2 120.7, 230.5 122.1 Q 231.8 123.6, 231.8 126.1 Q 231.8 128.7, 230.5 130.2 Q 229.2 131.6, 226.9 131.6 Q 224.5 131.6, 223.2 130.2 Q 222.0 128.7, 222.0 126.1 M 226.9 130.4 Q 228.5 130.4, 229.4 129.4 Q 230.3 128.3, 230.3 126.1 Q 230.3 124.0, 229.4 123.0 Q 228.5 121.9, 226.9 121.9 Q 225.2 121.9, 224.4 123.0 Q 223.5 124.0, 223.5 126.1 Q 223.5 128.3, 224.4 129.4 Q 225.2 130.4, 226.9 130.4 " fill="#FF0000"/>
<path class="atom-14" d="M 233.4 120.8 L 234.9 120.8 L 234.9 125.4 L 240.3 125.4 L 240.3 120.8 L 241.8 120.8 L 241.8 131.5 L 240.3 131.5 L 240.3 126.6 L 234.9 126.6 L 234.9 131.5 L 233.4 131.5 L 233.4 120.8 " fill="#FF0000"/>
<path class="legend" d="M 121.5 181.9 Q 121.5 179.6, 122.2 177.7 Q 122.8 175.8, 124.1 173.8 L 125.0 174.4 Q 124.0 176.3, 123.4 178.0 Q 122.9 179.7, 122.9 181.9 Q 122.9 184.0, 123.4 185.8 Q 124.0 187.5, 125.0 189.4 L 124.1 190.0 Q 122.8 188.0, 122.2 186.1 Q 121.5 184.2, 121.5 181.9 " fill="#000000"/>
<path class="legend" d="M 125.9 177.3 Q 126.4 176.2, 127.3 175.6 Q 128.3 175.0, 129.7 175.0 Q 131.4 175.0, 132.4 175.9 Q 133.3 176.8, 133.3 178.5 Q 133.3 180.2, 132.1 181.7 Q 130.9 183.3, 128.3 185.2 L 133.5 185.2 L 133.5 186.4 L 125.9 186.4 L 125.9 185.4 Q 128.0 183.9, 129.3 182.8 Q 130.5 181.6, 131.1 180.6 Q 131.7 179.6, 131.7 178.6 Q 131.7 177.5, 131.2 176.9 Q 130.7 176.3, 129.7 176.3 Q 128.8 176.3, 128.2 176.6 Q 127.6 177.0, 127.2 177.8 L 125.9 177.3 " fill="#000000"/>
<path class="legend" d="M 138.5 181.9 Q 138.5 184.2, 137.8 186.1 Q 137.2 188.0, 135.9 190.0 L 135.0 189.4 Q 136.0 187.5, 136.5 185.8 Q 137.1 184.0, 137.1 181.9 Q 137.1 179.7, 136.5 178.0 Q 136.0 176.3, 135.0 174.4 L 135.9 173.8 Q 137.2 175.8, 137.8 177.7 Q 138.5 179.6, 138.5 181.9 " fill="#000000"/>
</g>
    <g transform="translate(260.0, 0) scale(1 1) "><line x1="5" y1="100" x2="35" y2="100" style="stroke:rgb(0,0,0);stroke-width:2"/>
  <line x1="34" y1="100" x2="29" y2="95" style="stroke:rgb(0,0,0);stroke-width:2"/>
  <line x1="34" y1="100" x2="29" y2="105" style="stroke:rgb(0,0,0);stroke-width:2"/>
</g>
    <g transform="translate(300.0, 0) scale(1 1) "><!-- END OF HEADER -->
<rect style="opacity:1.0;fill:#FFFFFF;stroke:none" width="215.0" height="200.0" x="0.0" y="0.0"> </rect>
<path class="bond-0 atom-0 atom-1" d="M 183.7,56.0 L 158.3,99.9" style="fill:none;fill-rule:evenodd;stroke:#000000;stroke-width:2.0px;stroke-linecap:butt;stroke-linejoin:miter;stroke-opacity:1"/>
<path class="bond-1 atom-1 atom-2" d="M 158.3,99.9 L 168.4,117.4" style="fill:none;fill-rule:evenodd;stroke:#000000;stroke-width:2.0px;stroke-linecap:butt;stroke-linejoin:miter;stroke-opacity:1"/>
<path class="bond-1 atom-1 atom-2" d="M 168.4,117.4 L 178.5,134.9" style="fill:none;fill-rule:evenodd;stroke:#FF0000;stroke-width:2.0px;stroke-linecap:butt;stroke-linejoin:miter;stroke-opacity:1"/>
<path class="bond-2 atom-1 atom-3" d="M 158.3,99.9 L 107.6,99.9" style="fill:none;fill-rule:evenodd;stroke:#000000;stroke-width:2.0px;stroke-linecap:butt;stroke-linejoin:miter;stroke-opacity:1"/>
<path class="bond-3 atom-3 atom-4" d="M 107.6,99.9 L 107.6,49.2" style="fill:none;fill-rule:evenodd;stroke:#000000;stroke-width:2.0px;stroke-linecap:butt;stroke-linejoin:miter;stroke-opacity:1"/>
<path class="bond-4 atom-3 atom-5" d="M 107.6,99.9 L 107.6,150.6" style="fill:none;fill-rule:evenodd;stroke:#000000;stroke-width:2.0px;stroke-linecap:butt;stroke-linejoin:miter;stroke-opacity:1"/>
<path class="bond-5 atom-3 atom-6" d="M 107.6,99.9 L 56.9,99.9" style="fill:none;fill-rule:evenodd;stroke:#000000;stroke-width:2.0px;stroke-linecap:butt;stroke-linejoin:miter;stroke-opacity:1"/>
<path class="bond-6 atom-6 atom-7" d="M 54.7,96.1 L 44.0,114.5" style="fill:none;fill-rule:evenodd;stroke:#000000;stroke-width:2.0px;stroke-linecap:butt;stroke-linejoin:miter;stroke-opacity:1"/>
<path class="bond-6 atom-6 atom-7" d="M 44.0,114.5 L 33.4,133.0" style="fill:none;fill-rule:evenodd;stroke:#FF0000;stroke-width:2.0px;stroke-linecap:butt;stroke-linejoin:miter;stroke-opacity:1"/>
<path class="bond-6 atom-6 atom-7" d="M 61.3,99.9 L 50.6,118.3" style="fill:none;fill-rule:evenodd;stroke:#000000;stroke-width:2.0px;stroke-linecap:butt;stroke-linejoin:miter;stroke-opacity:1"/>
<path class="bond-6 atom-6 atom-7" d="M 50.6,118.3 L 40.0,136.8" style="fill:none;fill-rule:evenodd;stroke:#FF0000;stroke-width:2.0px;stroke-linecap:butt;stroke-linejoin:miter;stroke-opacity:1"/>
<path class="bond-7 atom-6 atom-8" d="M 56.9,99.9 L 46.9,82.5" style="fill:none;fill-rule:evenodd;stroke:#000000;stroke-width:2.0px;stroke-linecap:butt;stroke-linejoin:miter;stroke-opacity:1"/>
<path class="bond-7 atom-6 atom-8" d="M 46.9,82.5 L 36.8,65.1" style="fill:none;fill-rule:evenodd;stroke:#FF0000;stroke-width:2.0px;stroke-linecap:butt;stroke-linejoin:miter;stroke-opacity:1"/>
<path d="M 59.4,99.9 L 56.9,99.9 L 56.4,99.0" style="fill:none;stroke:#000000;stroke-width:2.0px;stroke-linecap:butt;stroke-linejoin:miter;stroke-opacity:1;"/>
<path class="atom-2" d="M 177.1 143.9 Q 177.1 140.4, 178.8 138.5 Q 180.5 136.5, 183.7 136.5 Q 186.9 136.5, 188.6 138.5 Q 190.3 140.4, 190.3 143.9 Q 190.3 147.3, 188.6 149.3 Q 186.8 151.3, 183.7 151.3 Q 180.5 151.3, 178.8 149.3 Q 177.1 147.4, 177.1 143.9 M 183.7 149.7 Q 185.9 149.7, 187.0 148.2 Q 188.2 146.7, 188.2 143.9 Q 188.2 141.0, 187.0 139.6 Q 185.9 138.2, 183.7 138.2 Q 181.5 138.2, 180.3 139.6 Q 179.1 141.0, 179.1 143.9 Q 179.1 146.8, 180.3 148.2 Q 181.5 149.7, 183.7 149.7 " fill="#FF0000"/>
<path class="atom-2" d="M 192.5 136.7 L 194.5 136.7 L 194.5 142.8 L 201.8 142.8 L 201.8 136.7 L 203.7 136.7 L 203.7 151.1 L 201.8 151.1 L 201.8 144.4 L 194.5 144.4 L 194.5 151.1 L 192.5 151.1 L 192.5 136.7 " fill="#FF0000"/>
<path class="atom-7" d="M 24.9 143.9 Q 24.9 140.4, 26.6 138.5 Q 28.3 136.5, 31.5 136.5 Q 34.7 136.5, 36.4 138.5 Q 38.1 140.4, 38.1 143.9 Q 38.1 147.3, 36.4 149.3 Q 34.7 151.3, 31.5 151.3 Q 28.4 151.3, 26.6 149.3 Q 24.9 147.4, 24.9 143.9 M 31.5 149.7 Q 33.7 149.7, 34.9 148.2 Q 36.1 146.7, 36.1 143.9 Q 36.1 141.0, 34.9 139.6 Q 33.7 138.2, 31.5 138.2 Q 29.3 138.2, 28.1 139.6 Q 27.0 141.0, 27.0 143.9 Q 27.0 146.8, 28.1 148.2 Q 29.3 149.7, 31.5 149.7 " fill="#FF0000"/>
<path class="atom-8" d="M 10.7 48.9 L 12.7 48.9 L 12.7 55.0 L 20.0 55.0 L 20.0 48.9 L 22.0 48.9 L 22.0 63.2 L 20.0 63.2 L 20.0 56.6 L 12.7 56.6 L 12.7 63.2 L 10.7 63.2 L 10.7 48.9 " fill="#FF0000"/>
<path class="atom-8" d="M 24.9 56.0 Q 24.9 52.6, 26.6 50.6 Q 28.3 48.7, 31.5 48.7 Q 34.7 48.7, 36.4 50.6 Q 38.1 52.6, 38.1 56.0 Q 38.1 59.5, 36.4 61.5 Q 34.7 63.5, 31.5 63.5 Q 28.4 63.5, 26.6 61.5 Q 24.9 59.5, 24.9 56.0 M 31.5 61.8 Q 33.7 61.8, 34.9 60.4 Q 36.1 58.9, 36.1 56.0 Q 36.1 53.2, 34.9 51.8 Q 33.7 50.3, 31.5 50.3 Q 29.3 50.3, 28.1 51.7 Q 27.0 53.2, 27.0 56.0 Q 27.0 58.9, 28.1 60.4 Q 29.3 61.8, 31.5 61.8 " fill="#FF0000"/>
</g>
    <g transform="translate(515.0, 0) scale(1 1) "><line x1="15" y1="100" x2="25" y2="100" style="stroke:rgb(0,0,0);stroke-width:2"/>
  <line x1="20" y1="95" x2="20" y2="105" style="stroke:rgb(0,0,0);stroke-width:2"/>
</g>
    <g transform="translate(555.0, 0) scale(1 1) "><!-- END OF HEADER -->
<rect style="opacity:1.0;fill:#FFFFFF;stroke:none" width="289.0" height="200.0" x="0.0" y="0.0"> </rect>
<path class="bond-0 atom-0 atom-1" d="M 72.0,54.6 L 100.2,75.4" style="fill:none;fill-rule:evenodd;stroke:#000000;stroke-width:2.0px;stroke-linecap:butt;stroke-linejoin:miter;stroke-opacity:1"/>
<path class="bond-1 atom-1 atom-2" d="M 100.2,75.4 L 128.5,96.3" style="fill:none;fill-rule:evenodd;stroke:#000000;stroke-width:2.0px;stroke-linecap:butt;stroke-linejoin:miter;stroke-opacity:1"/>
<path class="bond-2 atom-1 atom-3" d="M 100.2,75.4 L 79.4,103.7" style="fill:none;fill-rule:evenodd;stroke:#000000;stroke-width:2.0px;stroke-linecap:butt;stroke-linejoin:miter;stroke-opacity:1"/>
<path class="bond-3 atom-3 atom-4" d="M 79.4,103.7 L 93.5,135.9" style="fill:none;fill-rule:evenodd;stroke:#000000;stroke-width:2.0px;stroke-linecap:butt;stroke-linejoin:miter;stroke-opacity:1"/>
<path class="bond-4 atom-4 atom-5" d="M 93.5,135.9 L 107.6,168.0" style="fill:none;fill-rule:evenodd;stroke:#000000;stroke-width:2.0px;stroke-linecap:butt;stroke-linejoin:miter;stroke-opacity:1"/>
<path class="bond-5 atom-4 atom-6" d="M 93.5,135.9 L 125.7,121.8" style="fill:none;fill-rule:evenodd;stroke:#000000;stroke-width:2.0px;stroke-linecap:butt;stroke-linejoin:miter;stroke-opacity:1"/>
<path class="bond-6 atom-6 atom-7" d="M 125.7,121.8 L 153.9,142.6" style="fill:none;fill-rule:evenodd;stroke:#000000;stroke-width:2.0px;stroke-linecap:butt;stroke-linejoin:miter;stroke-opacity:1"/>
<path class="bond-7 atom-7 atom-8" d="M 153.9,142.6 L 152.3,157.0" style="fill:none;fill-rule:evenodd;stroke:#000000;stroke-width:2.0px;stroke-linecap:butt;stroke-linejoin:miter;stroke-opacity:1"/>
<path class="bond-7 atom-7 atom-8" d="M 152.3,157.0 L 150.7,171.3" style="fill:none;fill-rule:evenodd;stroke:#FF0000;stroke-width:2.0px;stroke-linecap:butt;stroke-linejoin:miter;stroke-opacity:1"/>
<path class="bond-8 atom-7 atom-9" d="M 153.9,142.6 L 186.1,128.5" style="fill:none;fill-rule:evenodd;stroke:#000000;stroke-width:2.0px;stroke-linecap:butt;stroke-linejoin:miter;stroke-opacity:1"/>
<path class="bond-9 atom-9 atom-10" d="M 186.1,128.5 L 172.0,96.4" style="fill:none;fill-rule:evenodd;stroke:#000000;stroke-width:2.0px;stroke-linecap:butt;stroke-linejoin:miter;stroke-opacity:1"/>
<path class="bond-10 atom-9 atom-11" d="M 186.1,128.5 L 200.1,160.7" style="fill:none;fill-rule:evenodd;stroke:#000000;stroke-width:2.0px;stroke-linecap:butt;stroke-linejoin:miter;stroke-opacity:1"/>
<path class="bond-11 atom-9 atom-12" d="M 186.1,128.5 L 218.2,114.5" style="fill:none;fill-rule:evenodd;stroke:#000000;stroke-width:2.0px;stroke-linecap:butt;stroke-linejoin:miter;stroke-opacity:1"/>
<path class="bond-12 atom-12 atom-13" d="M 220.7,116.3 L 222.4,101.2" style="fill:none;fill-rule:evenodd;stroke:#000000;stroke-width:2.0px;stroke-linecap:butt;stroke-linejoin:miter;stroke-opacity:1"/>
<path class="bond-12 atom-12 atom-13" d="M 222.4,101.2 L 224.0,86.2" style="fill:none;fill-rule:evenodd;stroke:#FF0000;stroke-width:2.0px;stroke-linecap:butt;stroke-linejoin:miter;stroke-opacity:1"/>
<path class="bond-12 atom-12 atom-13" d="M 215.4,115.7 L 217.1,100.7" style="fill:none;fill-rule:evenodd;stroke:#000000;stroke-width:2.0px;stroke-linecap:butt;stroke-linejoin:miter;stroke-opacity:1"/>
<path class="bond-12 atom-12 atom-13" d="M 217.1,100.7 L 218.8,85.6" style="fill:none;fill-rule:evenodd;stroke:#FF0000;stroke-width:2.0px;stroke-linecap:butt;stroke-linejoin:miter;stroke-opacity:1"/>
<path class="bond-13 atom-12 atom-14" d="M 218.2,114.5 L 229.5,122.8" style="fill:none;fill-rule:evenodd;stroke:#000000;stroke-width:2.0px;stroke-linecap:butt;stroke-linejoin:miter;stroke-opacity:1"/>
<path class="bond-13 atom-12 atom-14" d="M 229.5,122.8 L 240.8,131.1" style="fill:none;fill-rule:evenodd;stroke:#FF0000;stroke-width:2.0px;stroke-linecap:butt;stroke-linejoin:miter;stroke-opacity:1"/>
<path class="bond-14 atom-4 atom-15" d="M 93.5,135.9 L 61.3,149.9" style="fill:none;fill-rule:evenodd;stroke:#000000;stroke-width:2.0px;stroke-linecap:butt;stroke-linejoin:miter;stroke-opacity:1"/>
<path class="bond-15 atom-15 atom-16" d="M 64.1,148.7 L 52.2,140.0" style="fill:none;fill-rule:evenodd;stroke:#000000;stroke-width:2.0px;stroke-linecap:butt;stroke-linejoin:miter;stroke-opacity:1"/>
<path class="bond-15 atom-15 atom-16" d="M 52.2,140.0 L 40.4,131.2" style="fill:none;fill-rule:evenodd;stroke:#FF0000;stroke-width:2.0px;stroke-linecap:butt;stroke-linejoin:miter;stroke-opacity:1"/>
<path class="bond-15 atom-15 atom-16" d="M 61.0,153.0 L 49.1,144.2" style="fill:none;fill-rule:evenodd;stroke:#000000;stroke-width:2.0px;stroke-linecap:butt;stroke-linejoin:miter;stroke-opacity:1"/>
<path class="bond-15 atom-15 atom-16" d="M 49.1,144.2 L 37.2,135.5" style="fill:none;fill-rule:evenodd;stroke:#FF0000;stroke-width:2.0px;stroke-linecap:butt;stroke-linejoin:miter;stroke-opacity:1"/>
<path class="bond-16 atom-15 atom-17" d="M 61.3,149.9 L 59.7,164.3" style="fill:none;fill-rule:evenodd;stroke:#000000;stroke-width:2.0px;stroke-linecap:butt;stroke-linejoin:miter;stroke-opacity:1"/>
<path class="bond-16 atom-15 atom-17" d="M 59.7,164.3 L 58.1,178.6" style="fill:none;fill-rule:evenodd;stroke:#FF0000;stroke-width:2.0px;stroke-linecap:butt;stroke-linejoin:miter;stroke-opacity:1"/>
<path class="bond-17 atom-1 atom-18" d="M 100.2,75.4 L 121.1,47.2" style="fill:none;fill-rule:evenodd;stroke:#000000;stroke-width:2.0px;stroke-linecap:butt;stroke-linejoin:miter;stroke-opacity:1"/>
<path class="bond-18 atom-18 atom-19" d="M 124.1,47.5 L 118.1,33.9" style="fill:none;fill-rule:evenodd;stroke:#000000;stroke-width:2.0px;stroke-linecap:butt;stroke-linejoin:miter;stroke-opacity:1"/>
<path class="bond-18 atom-18 atom-19" d="M 118.1,33.9 L 112.2,20.3" style="fill:none;fill-rule:evenodd;stroke:#FF0000;stroke-width:2.0px;stroke-linecap:butt;stroke-linejoin:miter;stroke-opacity:1"/>
<path class="bond-18 atom-18 atom-19" d="M 119.3,49.6 L 113.3,36.0" style="fill:none;fill-rule:evenodd;stroke:#000000;stroke-width:2.0px;stroke-linecap:butt;stroke-linejoin:miter;stroke-opacity:1"/>
<path class="bond-18 atom-18 atom-19" d="M 113.3,36.0 L 107.3,22.4" style="fill:none;fill-rule:evenodd;stroke:#FF0000;stroke-width:2.0px;stroke-linecap:butt;stroke-linejoin:miter;stroke-opacity:1"/>
<path class="bond-19 atom-18 atom-20" d="M 121.1,47.2 L 135.6,48.8" style="fill:none;fill-rule:evenodd;stroke:#000000;stroke-width:2.0px;stroke-linecap:butt;stroke-linejoin:miter;stroke-opacity:1"/>
<path class="bond-19 atom-18 atom-20" d="M 135.6,48.8 L 150.2,50.4" style="fill:none;fill-rule:evenodd;stroke:#FF0000;stroke-width:2.0px;stroke-linecap:butt;stroke-linejoin:miter;stroke-opacity:1"/>
<path d="M 80.5,102.3 L 79.4,103.7 L 80.1,105.3" style="fill:none;stroke:#000000;stroke-width:2.0px;stroke-linecap:butt;stroke-linejoin:miter;stroke-opacity:1;"/>
<path d="M 124.0,122.5 L 125.7,121.8 L 127.1,122.8" style="fill:none;stroke:#000000;stroke-width:2.0px;stroke-linecap:butt;stroke-linejoin:miter;stroke-opacity:1;"/>
<path d="M 216.6,115.2 L 218.2,114.5 L 218.8,114.9" style="fill:none;stroke:#000000;stroke-width:2.0px;stroke-linecap:butt;stroke-linejoin:miter;stroke-opacity:1;"/>
<path d="M 63.0,149.2 L 61.3,149.9 L 61.3,150.7" style="fill:none;stroke:#000000;stroke-width:2.0px;stroke-linecap:butt;stroke-linejoin:miter;stroke-opacity:1;"/>
<path d="M 120.0,48.6 L 121.1,47.2 L 121.8,47.3" style="fill:none;stroke:#000000;stroke-width:2.0px;stroke-linecap:butt;stroke-linejoin:miter;stroke-opacity:1;"/>
<path class="atom-8" d="M 145.5 177.5 Q 145.5 175.1, 146.6 173.8 Q 147.8 172.5, 150.0 172.5 Q 152.2 172.5, 153.4 173.8 Q 154.6 175.1, 154.6 177.5 Q 154.6 179.9, 153.4 181.3 Q 152.2 182.7, 150.0 182.7 Q 147.8 182.7, 146.6 181.3 Q 145.5 179.9, 145.5 177.5 M 150.0 181.5 Q 151.5 181.5, 152.4 180.5 Q 153.2 179.5, 153.2 177.5 Q 153.2 175.6, 152.4 174.6 Q 151.5 173.6, 150.0 173.6 Q 148.5 173.6, 147.7 174.6 Q 146.9 175.6, 146.9 177.5 Q 146.9 179.5, 147.7 180.5 Q 148.5 181.5, 150.0 181.5 " fill="#FF0000"/>
<path class="atom-8" d="M 156.1 172.6 L 157.5 172.6 L 157.5 176.8 L 162.6 176.8 L 162.6 172.6 L 163.9 172.6 L 163.9 182.5 L 162.6 182.5 L 162.6 177.9 L 157.5 177.9 L 157.5 182.5 L 156.1 182.5 L 156.1 172.6 " fill="#FF0000"/>
<path class="atom-13" d="M 217.6 79.6 Q 217.6 77.2, 218.7 75.9 Q 219.9 74.6, 222.1 74.6 Q 224.3 74.6, 225.5 75.9 Q 226.7 77.2, 226.7 79.6 Q 226.7 82.0, 225.5 83.4 Q 224.3 84.8, 222.1 84.8 Q 219.9 84.8, 218.7 83.4 Q 217.6 82.0, 217.6 79.6 M 222.1 83.6 Q 223.6 83.6, 224.5 82.6 Q 225.3 81.6, 225.3 79.6 Q 225.3 77.7, 224.5 76.7 Q 223.6 75.7, 222.1 75.7 Q 220.6 75.7, 219.8 76.7 Q 219.0 77.6, 219.0 79.6 Q 219.0 81.6, 219.8 82.6 Q 220.6 83.6, 222.1 83.6 " fill="#FF0000"/>
<path class="atom-14" d="M 241.9 135.3 Q 241.9 132.9, 243.1 131.6 Q 244.3 130.3, 246.5 130.3 Q 248.7 130.3, 249.9 131.6 Q 251.1 132.9, 251.1 135.3 Q 251.1 137.7, 249.9 139.1 Q 248.7 140.5, 246.5 140.5 Q 244.3 140.5, 243.1 139.1 Q 241.9 137.7, 241.9 135.3 M 246.5 139.3 Q 248.0 139.3, 248.8 138.3 Q 249.7 137.3, 249.7 135.3 Q 249.7 133.4, 248.8 132.4 Q 248.0 131.4, 246.5 131.4 Q 245.0 131.4, 244.1 132.4 Q 243.3 133.3, 243.3 135.3 Q 243.3 137.3, 244.1 138.3 Q 245.0 139.3, 246.5 139.3 " fill="#FF0000"/>
<path class="atom-14" d="M 252.6 130.4 L 254.0 130.4 L 254.0 134.6 L 259.0 134.6 L 259.0 130.4 L 260.4 130.4 L 260.4 140.3 L 259.0 140.3 L 259.0 135.7 L 254.0 135.7 L 254.0 140.3 L 252.6 140.3 L 252.6 130.4 " fill="#FF0000"/>
<path class="atom-16" d="M 28.5 129.2 Q 28.5 126.8, 29.7 125.4 Q 30.9 124.1, 33.1 124.1 Q 35.3 124.1, 36.5 125.4 Q 37.6 126.8, 37.6 129.2 Q 37.6 131.6, 36.4 132.9 Q 35.3 134.3, 33.1 134.3 Q 30.9 134.3, 29.7 132.9 Q 28.5 131.6, 28.5 129.2 M 33.1 133.2 Q 34.6 133.2, 35.4 132.2 Q 36.2 131.1, 36.2 129.2 Q 36.2 127.2, 35.4 126.2 Q 34.6 125.2, 33.1 125.2 Q 31.6 125.2, 30.7 126.2 Q 29.9 127.2, 29.9 129.2 Q 29.9 131.2, 30.7 132.2 Q 31.6 133.2, 33.1 133.2 " fill="#FF0000"/>
<path class="atom-17" d="M 52.9 184.8 Q 52.9 182.5, 54.1 181.1 Q 55.2 179.8, 57.5 179.8 Q 59.7 179.8, 60.8 181.1 Q 62.0 182.5, 62.0 184.8 Q 62.0 187.3, 60.8 188.6 Q 59.6 190.0, 57.5 190.0 Q 55.3 190.0, 54.1 188.6 Q 52.9 187.3, 52.9 184.8 M 57.5 188.9 Q 59.0 188.9, 59.8 187.9 Q 60.6 186.8, 60.6 184.8 Q 60.6 182.9, 59.8 181.9 Q 59.0 180.9, 57.5 180.9 Q 55.9 180.9, 55.1 181.9 Q 54.3 182.9, 54.3 184.8 Q 54.3 186.9, 55.1 187.9 Q 55.9 188.9, 57.5 188.9 " fill="#FF0000"/>
<path class="atom-17" d="M 63.6 179.9 L 64.9 179.9 L 64.9 184.1 L 70.0 184.1 L 70.0 179.9 L 71.3 179.9 L 71.3 189.8 L 70.0 189.8 L 70.0 185.3 L 64.9 185.3 L 64.9 189.8 L 63.6 189.8 L 63.6 179.9 " fill="#FF0000"/>
<path class="atom-19" d="M 102.4 15.1 Q 102.4 12.7, 103.6 11.3 Q 104.8 10.0, 107.0 10.0 Q 109.2 10.0, 110.4 11.3 Q 111.5 12.7, 111.5 15.1 Q 111.5 17.5, 110.4 18.8 Q 109.2 20.2, 107.0 20.2 Q 104.8 20.2, 103.6 18.8 Q 102.4 17.5, 102.4 15.1 M 107.0 19.1 Q 108.5 19.1, 109.3 18.1 Q 110.1 17.0, 110.1 15.1 Q 110.1 13.1, 109.3 12.1 Q 108.5 11.1, 107.0 11.1 Q 105.5 11.1, 104.6 12.1 Q 103.8 13.1, 103.8 15.1 Q 103.8 17.1, 104.6 18.1 Q 105.5 19.1, 107.0 19.1 " fill="#FF0000"/>
<path class="atom-20" d="M 151.4 51.1 Q 151.4 48.7, 152.6 47.4 Q 153.7 46.0, 155.9 46.0 Q 158.1 46.0, 159.3 47.4 Q 160.5 48.7, 160.5 51.1 Q 160.5 53.5, 159.3 54.9 Q 158.1 56.3, 155.9 56.3 Q 153.7 56.3, 152.6 54.9 Q 151.4 53.5, 151.4 51.1 M 155.9 55.1 Q 157.5 55.1, 158.3 54.1 Q 159.1 53.1, 159.1 51.1 Q 159.1 49.2, 158.3 48.2 Q 157.5 47.2, 155.9 47.2 Q 154.4 47.2, 153.6 48.2 Q 152.8 49.1, 152.8 51.1 Q 152.8 53.1, 153.6 54.1 Q 154.4 55.1, 155.9 55.1 " fill="#FF0000"/>
<path class="atom-20" d="M 162.0 46.2 L 163.4 46.2 L 163.4 50.4 L 168.5 50.4 L 168.5 46.2 L 169.8 46.2 L 169.8 56.1 L 168.5 56.1 L 168.5 51.5 L 163.4 51.5 L 163.4 56.1 L 162.0 56.1 L 162.0 46.2 " fill="#FF0000"/>
</g>
  </g>
</svg>
