<?xml version='1.0' encoding='ASCII' standalone='yes'?>
<svg xmlns="http://www.w3.org/2000/svg" xmlns:xlink="http://www.w3.org/1999/xlink" version="1.1" width="813.0px" viewBox="0 0 813.0 200.0" height="200.0px">
  <g>
    <g transform="translate(0, 0) scale(1 1) "><!-- END OF HEADER -->
<rect style="opacity:1.0;fill:#FFFFFF;stroke:none" width="247.0" height="200.0" x="0.0" y="0.0"> </rect>
<path class="bond-0 atom-0 atom-1" d="M 223.3,48.7 L 191.6,71.7" style="fill:none;fill-rule:evenodd;stroke:#000000;stroke-width:2.0px;stroke-linecap:butt;stroke-linejoin:miter;stroke-opacity:1"/>
<path class="bond-0 atom-0 atom-1" d="M 220.0,44.1 L 188.3,67.1" style="fill:none;fill-rule:evenodd;stroke:#000000;stroke-width:2.0px;stroke-linecap:butt;stroke-linejoin:miter;stroke-opacity:1"/>
<path class="bond-1 atom-1 atom-2" d="M 191.3,68.5 L 157.0,53.2" style="fill:none;fill-rule:evenodd;stroke:#000000;stroke-width:2.0px;stroke-linecap:butt;stroke-linejoin:miter;stroke-opacity:1"/>
<path class="bond-2 atom-2 atom-3" d="M 157.0,53.2 L 126.6,75.2" style="fill:none;fill-rule:evenodd;stroke:#000000;stroke-width:2.0px;stroke-linecap:butt;stroke-linejoin:miter;stroke-opacity:1"/>
<path class="bond-3 atom-3 atom-4" d="M 126.6,75.2 L 130.6,112.6" style="fill:none;fill-rule:evenodd;stroke:#000000;stroke-width:2.0px;stroke-linecap:butt;stroke-linejoin:miter;stroke-opacity:1"/>
<path class="bond-4 atom-4 atom-5" d="M 130.6,112.6 L 118.4,121.4" style="fill:none;fill-rule:evenodd;stroke:#000000;stroke-width:2.0px;stroke-linecap:butt;stroke-linejoin:miter;stroke-opacity:1"/>
<path class="bond-4 atom-4 atom-5" d="M 118.4,121.4 L 106.3,130.2" style="fill:none;fill-rule:evenodd;stroke:#FF0000;stroke-width:2.0px;stroke-linecap:butt;stroke-linejoin:miter;stroke-opacity:1"/>
<path class="bond-4 atom-4 atom-5" d="M 124.6,109.9 L 115.1,116.8" style="fill:none;fill-rule:evenodd;stroke:#000000;stroke-width:2.0px;stroke-linecap:butt;stroke-linejoin:miter;stroke-opacity:1"/>
<path class="bond-4 atom-4 atom-5" d="M 115.1,116.8 L 103.0,125.6" style="fill:none;fill-rule:evenodd;stroke:#FF0000;stroke-width:2.0px;stroke-linecap:butt;stroke-linejoin:miter;stroke-opacity:1"/>
<path class="bond-5 atom-3 atom-6" d="M 126.6,75.2 L 92.4,60.0" style="fill:none;fill-rule:evenodd;stroke:#000000;stroke-width:2.0px;stroke-linecap:butt;stroke-linejoin:miter;stroke-opacity:1"/>
<path class="bond-6 atom-6 atom-7" d="M 92.4,60.0 L 62.0,82.0" style="fill:none;fill-rule:evenodd;stroke:#000000;stroke-width:2.0px;stroke-linecap:butt;stroke-linejoin:miter;stroke-opacity:1"/>
<path class="bond-7 atom-7 atom-8" d="M 59.0,80.7 L 60.7,96.9" style="fill:none;fill-rule:evenodd;stroke:#000000;stroke-width:2.0px;stroke-linecap:butt;stroke-linejoin:miter;stroke-opacity:1"/>
<path class="bond-7 atom-7 atom-8" d="M 60.7,96.9 L 62.4,113.0" style="fill:none;fill-rule:evenodd;stroke:#FF0000;stroke-width:2.0px;stroke-linecap:butt;stroke-linejoin:miter;stroke-opacity:1"/>
<path class="bond-7 atom-7 atom-8" d="M 64.6,80.1 L 66.3,96.3" style="fill:none;fill-rule:evenodd;stroke:#000000;stroke-width:2.0px;stroke-linecap:butt;stroke-linejoin:miter;stroke-opacity:1"/>
<path class="bond-7 atom-7 atom-8" d="M 66.3,96.3 L 68.0,112.5" style="fill:none;fill-rule:evenodd;stroke:#FF0000;stroke-width:2.0px;stroke-linecap:butt;stroke-linejoin:miter;stroke-opacity:1"/>
<path class="bond-8 atom-7 atom-9" d="M 62.0,82.0 L 47.9,75.8" style="fill:none;fill-rule:evenodd;stroke:#000000;stroke-width:2.0px;stroke-linecap:butt;stroke-linejoin:miter;stroke-opacity:1"/>
<path class="bond-8 atom-7 atom-9" d="M 47.9,75.8 L 33.8,69.5" style="fill:none;fill-rule:evenodd;stroke:#FF0000;stroke-width:2.0px;stroke-linecap:butt;stroke-linejoin:miter;stroke-opacity:1"/>
<path class="bond-9 atom-1 atom-10" d="M 191.3,68.5 L 195.2,105.8" style="fill:none;fill-rule:evenodd;stroke:#000000;stroke-width:2.0px;stroke-linecap:butt;stroke-linejoin:miter;stroke-opacity:1"/>
<path class="bond-10 atom-10 atom-11" d="M 192.6,107.7 L 207.4,114.3" style="fill:none;fill-rule:evenodd;stroke:#000000;stroke-width:2.0px;stroke-linecap:butt;stroke-linejoin:miter;stroke-opacity:1"/>
<path class="bond-10 atom-10 atom-11" d="M 207.4,114.3 L 222.2,120.9" style="fill:none;fill-rule:evenodd;stroke:#FF0000;stroke-width:2.0px;stroke-linecap:butt;stroke-linejoin:miter;stroke-opacity:1"/>
<path class="bond-10 atom-10 atom-11" d="M 194.9,102.5 L 209.7,109.1" style="fill:none;fill-rule:evenodd;stroke:#000000;stroke-width:2.0px;stroke-linecap:butt;stroke-linejoin:miter;stroke-opacity:1"/>
<path class="bond-10 atom-10 atom-11" d="M 209.7,109.1 L 224.5,115.7" style="fill:none;fill-rule:evenodd;stroke:#FF0000;stroke-width:2.0px;stroke-linecap:butt;stroke-linejoin:miter;stroke-opacity:1"/>
<path class="bond-11 atom-10 atom-12" d="M 195.2,105.8 L 183.1,114.6" style="fill:none;fill-rule:evenodd;stroke:#000000;stroke-width:2.0px;stroke-linecap:butt;stroke-linejoin:miter;stroke-opacity:1"/>
<path class="bond-11 atom-10 atom-12" d="M 183.1,114.6 L 171.0,123.4" style="fill:none;fill-rule:evenodd;stroke:#FF0000;stroke-width:2.0px;stroke-linecap:butt;stroke-linejoin:miter;stroke-opacity:1"/>
<path d="M 189.6,67.7 L 191.3,68.5 L 191.5,70.3" style="fill:none;stroke:#000000;stroke-width:2.0px;stroke-linecap:butt;stroke-linejoin:miter;stroke-opacity:1;"/>
<path d="M 158.7,54.0 L 157.0,53.2 L 155.5,54.3" style="fill:none;stroke:#000000;stroke-width:2.0px;stroke-linecap:butt;stroke-linejoin:miter;stroke-opacity:1;"/>
<path d="M 130.4,110.7 L 130.6,112.6 L 130.0,113.0" style="fill:none;stroke:#000000;stroke-width:2.0px;stroke-linecap:butt;stroke-linejoin:miter;stroke-opacity:1;"/>
<path d="M 94.1,60.8 L 92.4,60.0 L 90.8,61.1" style="fill:none;stroke:#000000;stroke-width:2.0px;stroke-linecap:butt;stroke-linejoin:miter;stroke-opacity:1;"/>
<path d="M 63.5,80.9 L 62.0,82.0 L 61.3,81.7" style="fill:none;stroke:#000000;stroke-width:2.0px;stroke-linecap:butt;stroke-linejoin:miter;stroke-opacity:1;"/>
<path d="M 195.0,103.9 L 195.2,105.8 L 194.6,106.2" style="fill:none;stroke:#000000;stroke-width:2.0px;stroke-linecap:butt;stroke-linejoin:miter;stroke-opacity:1;"/>
<path class="atom-5" d="M 93.7 132.4 Q 93.7 129.8, 94.9 128.4 Q 96.2 127.0, 98.6 127.0 Q 100.9 127.0, 102.2 128.4 Q 103.4 129.8, 103.4 132.4 Q 103.4 135.0, 102.2 136.4 Q 100.9 137.9, 98.6 137.9 Q 96.2 137.9, 94.9 136.4 Q 93.7 135.0, 93.7 132.4 M 98.6 136.7 Q 100.2 136.7, 101.0 135.6 Q 101.9 134.5, 101.9 132.4 Q 101.9 130.3, 101.0 129.2 Q 100.2 128.2, 98.6 128.2 Q 96.9 128.2, 96.0 129.2 Q 95.2 130.3, 95.2 132.4 Q 95.2 134.5, 96.0 135.6 Q 96.9 136.7, 98.6 136.7 " fill="#FF0000"/>
<path class="atom-8" d="M 61.0 119.4 Q 61.0 116.8, 62.3 115.4 Q 63.6 114.0, 65.9 114.0 Q 68.3 114.0, 69.5 115.4 Q 70.8 116.8, 70.8 119.4 Q 70.8 122.0, 69.5 123.4 Q 68.3 124.9, 65.9 124.9 Q 63.6 124.9, 62.3 123.4 Q 61.0 122.0, 61.0 119.4 M 65.9 123.7 Q 67.5 123.7, 68.4 122.6 Q 69.3 121.5, 69.3 119.4 Q 69.3 117.3, 68.4 116.3 Q 67.5 115.2, 65.9 115.2 Q 64.3 115.2, 63.4 116.2 Q 62.5 117.3, 62.5 119.4 Q 62.5 121.5, 63.4 122.6 Q 64.3 123.7, 65.9 123.7 " fill="#FF0000"/>
<path class="atom-9" d="M 12.3 61.5 L 13.8 61.5 L 13.8 66.1 L 19.2 66.1 L 19.2 61.5 L 20.7 61.5 L 20.7 72.2 L 19.2 72.2 L 19.2 67.3 L 13.8 67.3 L 13.8 72.2 L 12.3 72.2 L 12.3 61.5 " fill="#FF0000"/>
<path class="atom-9" d="M 22.8 66.8 Q 22.8 64.3, 24.1 62.8 Q 25.4 61.4, 27.7 61.4 Q 30.1 61.4, 31.3 62.8 Q 32.6 64.3, 32.6 66.8 Q 32.6 69.4, 31.3 70.9 Q 30.0 72.3, 27.7 72.3 Q 25.4 72.3, 24.1 70.9 Q 22.8 69.4, 22.8 66.8 M 27.7 71.1 Q 29.3 71.1, 30.2 70.0 Q 31.1 68.9, 31.1 66.8 Q 31.1 64.7, 30.2 63.7 Q 29.3 62.6, 27.7 62.6 Q 26.1 62.6, 25.2 63.7 Q 24.3 64.7, 24.3 66.8 Q 24.3 69.0, 25.2 70.0 Q 26.1 71.1, 27.7 71.1 " fill="#FF0000"/>
<path class="atom-11" d="M 224.6 121.1 Q 224.6 118.5, 225.9 117.1 Q 227.1 115.7, 229.5 115.7 Q 231.8 115.7, 233.1 117.1 Q 234.3 118.5, 234.3 121.1 Q 234.3 123.6, 233.1 125.1 Q 231.8 126.6, 229.5 126.6 Q 227.1 126.6, 225.9 125.1 Q 224.6 123.7, 224.6 121.1 M 229.5 125.4 Q 231.1 125.4, 232.0 124.3 Q 232.8 123.2, 232.8 121.1 Q 232.8 119.0, 232.0 117.9 Q 231.1 116.9, 229.5 116.9 Q 227.9 116.9, 227.0 117.9 Q 226.1 119.0, 226.1 121.1 Q 226.1 123.2, 227.0 124.3 Q 227.9 125.4, 229.5 125.4 " fill="#FF0000"/>
<path class="atom-12" d="M 149.5 122.6 L 150.9 122.6 L 150.9 127.1 L 156.3 127.1 L 156.3 122.6 L 157.8 122.6 L 157.8 133.2 L 156.3 133.2 L 156.3 128.3 L 150.9 128.3 L 150.9 133.2 L 149.5 133.2 L 149.5 122.6 " fill="#FF0000"/>
<path class="atom-12" d="M 160.0 127.9 Q 160.0 125.3, 161.2 123.9 Q 162.5 122.5, 164.8 122.5 Q 167.2 122.5, 168.5 123.9 Q 169.7 125.3, 169.7 127.9 Q 169.7 130.4, 168.4 131.9 Q 167.2 133.4, 164.8 133.4 Q 162.5 133.4, 161.2 131.9 Q 160.0 130.5, 160.0 127.9 M 164.8 132.2 Q 166.5 132.2, 167.3 131.1 Q 168.2 130.0, 168.2 127.9 Q 168.2 125.8, 167.3 124.7 Q 166.5 123.7, 164.8 123.7 Q 163.2 123.7, 162.3 124.7 Q 161.5 125.8, 161.5 127.9 Q 161.5 130.0, 162.3 131.1 Q 163.2 132.2, 164.8 132.2 " fill="#FF0000"/>
<path class="legend" d="M 114.8 181.9 Q 114.8 179.6, 115.5 177.7 Q 116.2 175.8, 117.5 173.8 L 118.4 174.4 Q 117.3 176.3, 116.8 178.0 Q 116.3 179.7, 116.3 181.9 Q 116.3 184.0, 116.8 185.8 Q 117.3 187.5, 118.4 189.4 L 117.5 190.0 Q 116.2 188.0, 115.5 186.1 Q 114.8 184.2, 114.8 181.9 " fill="#000000"/>
<path class="legend" d="M 119.3 177.3 Q 119.7 176.2, 120.7 175.6 Q 121.7 175.0, 123.1 175.0 Q 124.8 175.0, 125.7 175.9 Q 126.7 176.8, 126.7 178.5 Q 126.7 180.2, 125.4 181.7 Q 124.2 183.3, 121.7 185.2 L 126.9 185.2 L 126.9 186.4 L 119.3 186.4 L 119.3 185.4 Q 121.4 183.9, 122.6 182.8 Q 123.9 181.6, 124.5 180.6 Q 125.1 179.6, 125.1 178.6 Q 125.1 177.5, 124.5 176.9 Q 124.0 176.3, 123.1 176.3 Q 122.1 176.3, 121.5 176.6 Q 120.9 177.0, 120.5 177.8 L 119.3 177.3 " fill="#000000"/>
<path class="legend" d="M 131.9 181.9 Q 131.9 184.2, 131.2 186.1 Q 130.5 188.0, 129.2 190.0 L 128.3 189.4 Q 129.4 187.5, 129.9 185.8 Q 130.4 184.0, 130.4 181.9 Q 130.4 179.7, 129.9 178.0 Q 129.4 176.3, 128.3 174.4 L 129.2 173.8 Q 130.5 175.8, 131.2 177.7 Q 131.9 179.6, 131.9 181.9 " fill="#000000"/>
</g>
    <g transform="translate(247.0, 0) scale(1 1) "><line x1="5" y1="100" x2="35" y2="100" style="stroke:rgb(0,0,0);stroke-width:2"/>
  <line x1="34" y1="100" x2="29" y2="95" style="stroke:rgb(0,0,0);stroke-width:2"/>
  <line x1="34" y1="100" x2="29" y2="105" style="stroke:rgb(0,0,0);stroke-width:2"/>
</g>
    <g transform="translate(287.0, 0) scale(1 1) "><!-- END OF HEADER -->
<rect style="opacity:1.0;fill:#FFFFFF;stroke:none" width="271.0" height="200.0" x="0.0" y="0.0"> </rect>
<path class="bond-0 atom-0 atom-1" d="M 185.3,22.9 L 190.3,61.6" style="fill:none;fill-rule:evenodd;stroke:#000000;stroke-width:2.0px;stroke-linecap:butt;stroke-linejoin:miter;stroke-opacity:1"/>
<path class="bond-0 atom-0 atom-1" d="M 179.8,23.6 L 184.8,62.4" style="fill:none;fill-rule:evenodd;stroke:#000000;stroke-width:2.0px;stroke-linecap:butt;stroke-linejoin:miter;stroke-opacity:1"/>
<path class="bond-1 atom-1 atom-2" d="M 187.3,60.4 L 221.9,74.8" style="fill:none;fill-rule:evenodd;stroke:#000000;stroke-width:2.0px;stroke-linecap:butt;stroke-linejoin:miter;stroke-opacity:1"/>
<path class="bond-2 atom-2 atom-3" d="M 222.3,78.0 L 234.8,68.5" style="fill:none;fill-rule:evenodd;stroke:#000000;stroke-width:2.0px;stroke-linecap:butt;stroke-linejoin:miter;stroke-opacity:1"/>
<path class="bond-2 atom-2 atom-3" d="M 234.8,68.5 L 247.3,59.0" style="fill:none;fill-rule:evenodd;stroke:#FF0000;stroke-width:2.0px;stroke-linecap:butt;stroke-linejoin:miter;stroke-opacity:1"/>
<path class="bond-2 atom-2 atom-3" d="M 218.9,73.6 L 231.4,64.0" style="fill:none;fill-rule:evenodd;stroke:#000000;stroke-width:2.0px;stroke-linecap:butt;stroke-linejoin:miter;stroke-opacity:1"/>
<path class="bond-2 atom-2 atom-3" d="M 231.4,64.0 L 243.9,54.5" style="fill:none;fill-rule:evenodd;stroke:#FF0000;stroke-width:2.0px;stroke-linecap:butt;stroke-linejoin:miter;stroke-opacity:1"/>
<path class="bond-3 atom-2 atom-4" d="M 221.9,74.8 L 223.9,90.1" style="fill:none;fill-rule:evenodd;stroke:#000000;stroke-width:2.0px;stroke-linecap:butt;stroke-linejoin:miter;stroke-opacity:1"/>
<path class="bond-3 atom-2 atom-4" d="M 223.9,90.1 L 225.8,105.4" style="fill:none;fill-rule:evenodd;stroke:#FF0000;stroke-width:2.0px;stroke-linecap:butt;stroke-linejoin:miter;stroke-opacity:1"/>
<path class="bond-4 atom-1 atom-5" d="M 187.3,60.4 L 157.6,83.1" style="fill:none;fill-rule:evenodd;stroke:#000000;stroke-width:2.0px;stroke-linecap:butt;stroke-linejoin:miter;stroke-opacity:1"/>
<path class="bond-5 atom-5 atom-6" d="M 157.6,83.1 L 162.4,120.3" style="fill:none;fill-rule:evenodd;stroke:#000000;stroke-width:2.0px;stroke-linecap:butt;stroke-linejoin:miter;stroke-opacity:1"/>
<path class="bond-6 atom-6 atom-7" d="M 162.4,120.3 L 132.6,143.0" style="fill:none;fill-rule:evenodd;stroke:#000000;stroke-width:2.0px;stroke-linecap:butt;stroke-linejoin:miter;stroke-opacity:1"/>
<path class="bond-7 atom-7 atom-8" d="M 135.2,141.0 L 120.2,134.8" style="fill:none;fill-rule:evenodd;stroke:#000000;stroke-width:2.0px;stroke-linecap:butt;stroke-linejoin:miter;stroke-opacity:1"/>
<path class="bond-7 atom-7 atom-8" d="M 120.2,134.8 L 105.2,128.5" style="fill:none;fill-rule:evenodd;stroke:#FF0000;stroke-width:2.0px;stroke-linecap:butt;stroke-linejoin:miter;stroke-opacity:1"/>
<path class="bond-7 atom-7 atom-8" d="M 133.0,146.2 L 118.0,139.9" style="fill:none;fill-rule:evenodd;stroke:#000000;stroke-width:2.0px;stroke-linecap:butt;stroke-linejoin:miter;stroke-opacity:1"/>
<path class="bond-7 atom-7 atom-8" d="M 118.0,139.9 L 103.0,133.7" style="fill:none;fill-rule:evenodd;stroke:#FF0000;stroke-width:2.0px;stroke-linecap:butt;stroke-linejoin:miter;stroke-opacity:1"/>
<path class="bond-8 atom-7 atom-9" d="M 132.6,143.0 L 134.6,158.3" style="fill:none;fill-rule:evenodd;stroke:#000000;stroke-width:2.0px;stroke-linecap:butt;stroke-linejoin:miter;stroke-opacity:1"/>
<path class="bond-8 atom-7 atom-9" d="M 134.6,158.3 L 136.5,173.5" style="fill:none;fill-rule:evenodd;stroke:#FF0000;stroke-width:2.0px;stroke-linecap:butt;stroke-linejoin:miter;stroke-opacity:1"/>
<path class="bond-9 atom-5 atom-10" d="M 157.6,83.1 L 123.0,68.7" style="fill:none;fill-rule:evenodd;stroke:#000000;stroke-width:2.0px;stroke-linecap:butt;stroke-linejoin:miter;stroke-opacity:1"/>
<path class="bond-10 atom-10 atom-11" d="M 123.0,68.7 L 118.2,31.5" style="fill:none;fill-rule:evenodd;stroke:#000000;stroke-width:2.0px;stroke-linecap:butt;stroke-linejoin:miter;stroke-opacity:1"/>
<path class="bond-11 atom-11 atom-12" d="M 118.2,31.5 L 104.0,25.6" style="fill:none;fill-rule:evenodd;stroke:#000000;stroke-width:2.0px;stroke-linecap:butt;stroke-linejoin:miter;stroke-opacity:1"/>
<path class="bond-11 atom-11 atom-12" d="M 104.0,25.6 L 89.8,19.7" style="fill:none;fill-rule:evenodd;stroke:#FF0000;stroke-width:2.0px;stroke-linecap:butt;stroke-linejoin:miter;stroke-opacity:1"/>
<path class="bond-11 atom-11 atom-12" d="M 113.1,35.5 L 101.8,30.8" style="fill:none;fill-rule:evenodd;stroke:#000000;stroke-width:2.0px;stroke-linecap:butt;stroke-linejoin:miter;stroke-opacity:1"/>
<path class="bond-11 atom-11 atom-12" d="M 101.8,30.8 L 87.6,24.9" style="fill:none;fill-rule:evenodd;stroke:#FF0000;stroke-width:2.0px;stroke-linecap:butt;stroke-linejoin:miter;stroke-opacity:1"/>
<path class="bond-12 atom-10 atom-13" d="M 123.0,68.7 L 93.2,91.4" style="fill:none;fill-rule:evenodd;stroke:#000000;stroke-width:2.0px;stroke-linecap:butt;stroke-linejoin:miter;stroke-opacity:1"/>
<path class="bond-13 atom-13 atom-14" d="M 93.2,91.4 L 58.7,77.0" style="fill:none;fill-rule:evenodd;stroke:#000000;stroke-width:2.0px;stroke-linecap:butt;stroke-linejoin:miter;stroke-opacity:1"/>
<path class="bond-14 atom-14 atom-15" d="M 61.7,78.2 L 59.6,62.2" style="fill:none;fill-rule:evenodd;stroke:#000000;stroke-width:2.0px;stroke-linecap:butt;stroke-linejoin:miter;stroke-opacity:1"/>
<path class="bond-14 atom-14 atom-15" d="M 59.6,62.2 L 57.5,46.2" style="fill:none;fill-rule:evenodd;stroke:#FF0000;stroke-width:2.0px;stroke-linecap:butt;stroke-linejoin:miter;stroke-opacity:1"/>
<path class="bond-14 atom-14 atom-15" d="M 56.1,79.0 L 54.0,63.0" style="fill:none;fill-rule:evenodd;stroke:#000000;stroke-width:2.0px;stroke-linecap:butt;stroke-linejoin:miter;stroke-opacity:1"/>
<path class="bond-14 atom-14 atom-15" d="M 54.0,63.0 L 52.0,47.0" style="fill:none;fill-rule:evenodd;stroke:#FF0000;stroke-width:2.0px;stroke-linecap:butt;stroke-linejoin:miter;stroke-opacity:1"/>
<path class="bond-15 atom-14 atom-16" d="M 58.7,77.0 L 46.8,86.0" style="fill:none;fill-rule:evenodd;stroke:#000000;stroke-width:2.0px;stroke-linecap:butt;stroke-linejoin:miter;stroke-opacity:1"/>
<path class="bond-15 atom-14 atom-16" d="M 46.8,86.0 L 35.0,95.1" style="fill:none;fill-rule:evenodd;stroke:#FF0000;stroke-width:2.0px;stroke-linecap:butt;stroke-linejoin:miter;stroke-opacity:1"/>
<path d="M 189.1,61.1 L 187.3,60.4 L 185.9,61.5" style="fill:none;stroke:#000000;stroke-width:2.0px;stroke-linecap:butt;stroke-linejoin:miter;stroke-opacity:1;"/>
<path d="M 220.2,74.1 L 221.9,74.8 L 222.0,75.6" style="fill:none;stroke:#000000;stroke-width:2.0px;stroke-linecap:butt;stroke-linejoin:miter;stroke-opacity:1;"/>
<path d="M 162.1,118.4 L 162.4,120.3 L 160.9,121.4" style="fill:none;stroke:#000000;stroke-width:2.0px;stroke-linecap:butt;stroke-linejoin:miter;stroke-opacity:1;"/>
<path d="M 134.1,141.8 L 132.6,143.0 L 132.7,143.7" style="fill:none;stroke:#000000;stroke-width:2.0px;stroke-linecap:butt;stroke-linejoin:miter;stroke-opacity:1;"/>
<path d="M 118.5,33.4 L 118.2,31.5 L 117.5,31.2" style="fill:none;stroke:#000000;stroke-width:2.0px;stroke-linecap:butt;stroke-linejoin:miter;stroke-opacity:1;"/>
<path d="M 94.7,90.3 L 93.2,91.4 L 91.5,90.7" style="fill:none;stroke:#000000;stroke-width:2.0px;stroke-linecap:butt;stroke-linejoin:miter;stroke-opacity:1;"/>
<path d="M 60.4,77.7 L 58.7,77.0 L 58.1,77.4" style="fill:none;stroke:#000000;stroke-width:2.0px;stroke-linecap:butt;stroke-linejoin:miter;stroke-opacity:1;"/>
<path class="atom-3" d="M 246.8 52.1 Q 246.8 49.6, 248.1 48.1 Q 249.3 46.7, 251.7 46.7 Q 254.0 46.7, 255.3 48.1 Q 256.6 49.6, 256.6 52.1 Q 256.6 54.7, 255.3 56.2 Q 254.0 57.6, 251.7 57.6 Q 249.3 57.6, 248.1 56.2 Q 246.8 54.7, 246.8 52.1 M 251.7 56.4 Q 253.3 56.4, 254.2 55.3 Q 255.1 54.2, 255.1 52.1 Q 255.1 50.0, 254.2 49.0 Q 253.3 47.9, 251.7 47.9 Q 250.1 47.9, 249.2 49.0 Q 248.3 50.0, 248.3 52.1 Q 248.3 54.3, 249.2 55.3 Q 250.1 56.4, 251.7 56.4 " fill="#FF0000"/>
<path class="atom-4" d="M 221.8 112.0 Q 221.8 109.4, 223.1 108.0 Q 224.3 106.6, 226.7 106.6 Q 229.1 106.6, 230.3 108.0 Q 231.6 109.4, 231.6 112.0 Q 231.6 114.6, 230.3 116.0 Q 229.0 117.5, 226.7 117.5 Q 224.4 117.5, 223.1 116.0 Q 221.8 114.6, 221.8 112.0 M 226.7 116.3 Q 228.3 116.3, 229.2 115.2 Q 230.1 114.1, 230.1 112.0 Q 230.1 109.9, 229.2 108.9 Q 228.3 107.8, 226.7 107.8 Q 225.1 107.8, 224.2 108.8 Q 223.3 109.9, 223.3 112.0 Q 223.3 114.1, 224.2 115.2 Q 225.1 116.3, 226.7 116.3 " fill="#FF0000"/>
<path class="atom-4" d="M 233.2 106.7 L 234.7 106.7 L 234.7 111.2 L 240.1 111.2 L 240.1 106.7 L 241.5 106.7 L 241.5 117.3 L 240.1 117.3 L 240.1 112.4 L 234.7 112.4 L 234.7 117.3 L 233.2 117.3 L 233.2 106.7 " fill="#FF0000"/>
<path class="atom-8" d="M 93.2 128.6 Q 93.2 126.0, 94.4 124.6 Q 95.7 123.2, 98.0 123.2 Q 100.4 123.2, 101.6 124.6 Q 102.9 126.0, 102.9 128.6 Q 102.9 131.2, 101.6 132.6 Q 100.3 134.1, 98.0 134.1 Q 95.7 134.1, 94.4 132.6 Q 93.2 131.2, 93.2 128.6 M 98.0 132.9 Q 99.6 132.9, 100.5 131.8 Q 101.4 130.7, 101.4 128.6 Q 101.4 126.5, 100.5 125.5 Q 99.6 124.4, 98.0 124.4 Q 96.4 124.4, 95.5 125.4 Q 94.7 126.5, 94.7 128.6 Q 94.7 130.7, 95.5 131.8 Q 96.4 132.9, 98.0 132.9 " fill="#FF0000"/>
<path class="atom-9" d="M 132.5 180.2 Q 132.5 177.6, 133.8 176.2 Q 135.0 174.8, 137.4 174.8 Q 139.7 174.8, 141.0 176.2 Q 142.3 177.6, 142.3 180.2 Q 142.3 182.7, 141.0 184.2 Q 139.7 185.7, 137.4 185.7 Q 135.0 185.7, 133.8 184.2 Q 132.5 182.7, 132.5 180.2 M 137.4 184.5 Q 139.0 184.5, 139.9 183.4 Q 140.8 182.3, 140.8 180.2 Q 140.8 178.1, 139.9 177.0 Q 139.0 176.0, 137.4 176.0 Q 135.8 176.0, 134.9 177.0 Q 134.0 178.1, 134.0 180.2 Q 134.0 182.3, 134.9 183.4 Q 135.8 184.5, 137.4 184.5 " fill="#FF0000"/>
<path class="atom-9" d="M 143.9 174.9 L 145.3 174.9 L 145.3 179.4 L 150.8 179.4 L 150.8 174.9 L 152.2 174.9 L 152.2 185.5 L 150.8 185.5 L 150.8 180.6 L 145.3 180.6 L 145.3 185.5 L 143.9 185.5 L 143.9 174.9 " fill="#FF0000"/>
<path class="atom-12" d="M 77.7 19.7 Q 77.7 17.2, 79.0 15.8 Q 80.2 14.3, 82.6 14.3 Q 84.9 14.3, 86.2 15.8 Q 87.4 17.2, 87.4 19.7 Q 87.4 22.3, 86.2 23.8 Q 84.9 25.2, 82.6 25.2 Q 80.2 25.2, 79.0 23.8 Q 77.7 22.3, 77.7 19.7 M 82.6 24.0 Q 84.2 24.0, 85.1 23.0 Q 85.9 21.9, 85.9 19.7 Q 85.9 17.7, 85.1 16.6 Q 84.2 15.5, 82.6 15.5 Q 80.9 15.5, 80.1 16.6 Q 79.2 17.6, 79.2 19.7 Q 79.2 21.9, 80.1 23.0 Q 80.9 24.0, 82.6 24.0 " fill="#FF0000"/>
<path class="atom-15" d="M 49.0 39.9 Q 49.0 37.3, 50.3 35.9 Q 51.5 34.5, 53.9 34.5 Q 56.2 34.5, 57.5 35.9 Q 58.7 37.3, 58.7 39.9 Q 58.7 42.4, 57.5 43.9 Q 56.2 45.4, 53.9 45.4 Q 51.5 45.4, 50.3 43.9 Q 49.0 42.5, 49.0 39.9 M 53.9 44.2 Q 55.5 44.2, 56.4 43.1 Q 57.2 42.0, 57.2 39.9 Q 57.2 37.8, 56.4 36.7 Q 55.5 35.7, 53.9 35.7 Q 52.3 35.7, 51.4 36.7 Q 50.5 37.8, 50.5 39.9 Q 50.5 42.0, 51.4 43.1 Q 52.3 44.2, 53.9 44.2 " fill="#FF0000"/>
<path class="atom-16" d="M 13.5 94.5 L 15.0 94.5 L 15.0 99.0 L 20.4 99.0 L 20.4 94.5 L 21.8 94.5 L 21.8 105.1 L 20.4 105.1 L 20.4 100.2 L 15.0 100.2 L 15.0 105.1 L 13.5 105.1 L 13.5 94.5 " fill="#FF0000"/>
<path class="atom-16" d="M 24.0 99.7 Q 24.0 97.2, 25.3 95.8 Q 26.5 94.3, 28.9 94.3 Q 31.2 94.3, 32.5 95.8 Q 33.8 97.2, 33.8 99.7 Q 33.8 102.3, 32.5 103.8 Q 31.2 105.2, 28.9 105.2 Q 26.6 105.2, 25.3 103.8 Q 24.0 102.3, 24.0 99.7 M 28.9 104.0 Q 30.5 104.0, 31.4 103.0 Q 32.3 101.9, 32.3 99.7 Q 32.3 97.7, 31.4 96.6 Q 30.5 95.5, 28.9 95.5 Q 27.3 95.5, 26.4 96.6 Q 25.5 97.6, 25.5 99.7 Q 25.5 101.9, 26.4 103.0 Q 27.3 104.0, 28.9 104.0 " fill="#FF0000"/>
</g>
    <g transform="translate(558.0, 0) scale(1 1) "><line x1="15" y1="100" x2="25" y2="100" style="stroke:rgb(0,0,0);stroke-width:2"/>
  <line x1="20" y1="95" x2="20" y2="105" style="stroke:rgb(0,0,0);stroke-width:2"/>
</g>
    <g transform="translate(598.0, 0) scale(1 1) "><!-- END OF HEADER -->
<rect style="opacity:1.0;fill:#FFFFFF;stroke:none" width="215.0" height="200.0" x="0.0" y="0.0"> </rect>
<path class="bond-0 atom-0 atom-1" d="M 180.3,52.3 L 150.3,81.9" style="fill:none;fill-rule:evenodd;stroke:#000000;stroke-width:2.0px;stroke-linecap:butt;stroke-linejoin:miter;stroke-opacity:1"/>
<path class="bond-0 atom-0 atom-1" d="M 176.1,48.0 L 146.0,77.6" style="fill:none;fill-rule:evenodd;stroke:#000000;stroke-width:2.0px;stroke-linecap:butt;stroke-linejoin:miter;stroke-opacity:1"/>
<path class="bond-1 atom-1 atom-2" d="M 149.4,78.5 L 110.4,67.8" style="fill:none;fill-rule:evenodd;stroke:#000000;stroke-width:2.0px;stroke-linecap:butt;stroke-linejoin:miter;stroke-opacity:1"/>
<path class="bond-2 atom-2 atom-3" d="M 110.4,67.8 L 81.6,96.1" style="fill:none;fill-rule:evenodd;stroke:#000000;stroke-width:2.0px;stroke-linecap:butt;stroke-linejoin:miter;stroke-opacity:1"/>
<path class="bond-3 atom-3 atom-4" d="M 81.6,96.1 L 42.7,85.4" style="fill:none;fill-rule:evenodd;stroke:#000000;stroke-width:2.0px;stroke-linecap:butt;stroke-linejoin:miter;stroke-opacity:1"/>
<path class="bond-4 atom-4 atom-5" d="M 42.7,85.4 L 31.6,96.3" style="fill:none;fill-rule:evenodd;stroke:#000000;stroke-width:2.0px;stroke-linecap:butt;stroke-linejoin:miter;stroke-opacity:1"/>
<path class="bond-4 atom-4 atom-5" d="M 31.6,96.3 L 20.5,107.2" style="fill:none;fill-rule:evenodd;stroke:#FF0000;stroke-width:2.0px;stroke-linecap:butt;stroke-linejoin:miter;stroke-opacity:1"/>
<path class="bond-4 atom-4 atom-5" d="M 44.4,92.1 L 35.8,100.6" style="fill:none;fill-rule:evenodd;stroke:#000000;stroke-width:2.0px;stroke-linecap:butt;stroke-linejoin:miter;stroke-opacity:1"/>
<path class="bond-4 atom-4 atom-5" d="M 35.8,100.6 L 24.7,111.6" style="fill:none;fill-rule:evenodd;stroke:#FF0000;stroke-width:2.0px;stroke-linecap:butt;stroke-linejoin:miter;stroke-opacity:1"/>
<path class="bond-5 atom-1 atom-6" d="M 149.4,78.5 L 159.5,117.7" style="fill:none;fill-rule:evenodd;stroke:#000000;stroke-width:2.0px;stroke-linecap:butt;stroke-linejoin:miter;stroke-opacity:1"/>
<path class="bond-6 atom-6 atom-7" d="M 157.0,120.1 L 174.1,124.8" style="fill:none;fill-rule:evenodd;stroke:#000000;stroke-width:2.0px;stroke-linecap:butt;stroke-linejoin:miter;stroke-opacity:1"/>
<path class="bond-6 atom-6 atom-7" d="M 174.1,124.8 L 191.1,129.5" style="fill:none;fill-rule:evenodd;stroke:#FF0000;stroke-width:2.0px;stroke-linecap:butt;stroke-linejoin:miter;stroke-opacity:1"/>
<path class="bond-6 atom-6 atom-7" d="M 158.7,114.3 L 175.7,119.0" style="fill:none;fill-rule:evenodd;stroke:#000000;stroke-width:2.0px;stroke-linecap:butt;stroke-linejoin:miter;stroke-opacity:1"/>
<path class="bond-6 atom-6 atom-7" d="M 175.7,119.0 L 192.7,123.7" style="fill:none;fill-rule:evenodd;stroke:#FF0000;stroke-width:2.0px;stroke-linecap:butt;stroke-linejoin:miter;stroke-opacity:1"/>
<path class="bond-7 atom-6 atom-8" d="M 159.5,117.7 L 148.4,128.6" style="fill:none;fill-rule:evenodd;stroke:#000000;stroke-width:2.0px;stroke-linecap:butt;stroke-linejoin:miter;stroke-opacity:1"/>
<path class="bond-7 atom-6 atom-8" d="M 148.4,128.6 L 137.3,139.5" style="fill:none;fill-rule:evenodd;stroke:#FF0000;stroke-width:2.0px;stroke-linecap:butt;stroke-linejoin:miter;stroke-opacity:1"/>
<path d="M 147.4,78.0 L 149.4,78.5 L 149.9,80.5" style="fill:none;stroke:#000000;stroke-width:2.0px;stroke-linecap:butt;stroke-linejoin:miter;stroke-opacity:1;"/>
<path d="M 112.4,68.3 L 110.4,67.8 L 109.0,69.2" style="fill:none;stroke:#000000;stroke-width:2.0px;stroke-linecap:butt;stroke-linejoin:miter;stroke-opacity:1;"/>
<path d="M 83.1,94.7 L 81.6,96.1 L 79.7,95.6" style="fill:none;stroke:#000000;stroke-width:2.0px;stroke-linecap:butt;stroke-linejoin:miter;stroke-opacity:1;"/>
<path d="M 44.6,85.9 L 42.7,85.4 L 42.1,85.9" style="fill:none;stroke:#000000;stroke-width:2.0px;stroke-linecap:butt;stroke-linejoin:miter;stroke-opacity:1;"/>
<path d="M 159.0,115.7 L 159.5,117.7 L 159.0,118.2" style="fill:none;stroke:#000000;stroke-width:2.0px;stroke-linecap:butt;stroke-linejoin:miter;stroke-opacity:1;"/>
<path class="atom-5" d="M 10.7 115.9 Q 10.7 113.2, 12.1 111.6 Q 13.5 110.1, 16.0 110.1 Q 18.5 110.1, 19.9 111.6 Q 21.3 113.2, 21.3 115.9 Q 21.3 118.7, 19.9 120.3 Q 18.5 121.8, 16.0 121.8 Q 13.5 121.8, 12.1 120.3 Q 10.7 118.7, 10.7 115.9 M 16.0 120.5 Q 17.7 120.5, 18.7 119.4 Q 19.6 118.2, 19.6 115.9 Q 19.6 113.7, 18.7 112.5 Q 17.7 111.4, 16.0 111.4 Q 14.3 111.4, 13.3 112.5 Q 12.4 113.6, 12.4 115.9 Q 12.4 118.2, 13.3 119.4 Q 14.3 120.5, 16.0 120.5 " fill="#FF0000"/>
<path class="atom-7" d="M 193.2 128.5 Q 193.2 125.7, 194.6 124.2 Q 196.0 122.6, 198.5 122.6 Q 201.0 122.6, 202.4 124.2 Q 203.7 125.7, 203.7 128.5 Q 203.7 131.2, 202.4 132.8 Q 201.0 134.4, 198.5 134.4 Q 196.0 134.4, 194.6 132.8 Q 193.2 131.2, 193.2 128.5 M 198.5 133.1 Q 200.2 133.1, 201.2 131.9 Q 202.1 130.7, 202.1 128.5 Q 202.1 126.2, 201.2 125.1 Q 200.2 123.9, 198.5 123.9 Q 196.8 123.9, 195.8 125.1 Q 194.9 126.2, 194.9 128.5 Q 194.9 130.8, 195.8 131.9 Q 196.8 133.1, 198.5 133.1 " fill="#FF0000"/>
<path class="atom-8" d="M 114.2 140.4 L 115.7 140.4 L 115.7 145.2 L 121.6 145.2 L 121.6 140.4 L 123.1 140.4 L 123.1 151.8 L 121.6 151.8 L 121.6 146.5 L 115.7 146.5 L 115.7 151.8 L 114.2 151.8 L 114.2 140.4 " fill="#FF0000"/>
<path class="atom-8" d="M 125.5 146.0 Q 125.5 143.3, 126.8 141.8 Q 128.2 140.2, 130.7 140.2 Q 133.3 140.2, 134.6 141.8 Q 136.0 143.3, 136.0 146.0 Q 136.0 148.8, 134.6 150.4 Q 133.2 152.0, 130.7 152.0 Q 128.2 152.0, 126.8 150.4 Q 125.5 148.8, 125.5 146.0 M 130.7 150.7 Q 132.5 150.7, 133.4 149.5 Q 134.4 148.3, 134.4 146.0 Q 134.4 143.8, 133.4 142.7 Q 132.5 141.5, 130.7 141.5 Q 129.0 141.5, 128.0 142.6 Q 127.1 143.8, 127.1 146.0 Q 127.1 148.4, 128.0 149.5 Q 129.0 150.7, 130.7 150.7 " fill="#FF0000"/>
</g>
  </g>
</svg>
