<?xml version='1.0' encoding='ASCII' standalone='yes'?>
<svg xmlns="http://www.w3.org/2000/svg" xmlns:xlink="http://www.w3.org/1999/xlink" version="1.1" width="824.0px" viewBox="0 0 824.0 200.0" height="200.0px">
  <g>
    <g transform="translate(0, 0) scale(1 1) "><!-- END OF HEADER -->
<rect style="opacity:1.0;fill:#FFFFFF;stroke:none" width="254.0" height="200.0" x="0.0" y="0.0"> </rect>
<path class="bond-0 atom-0 atom-1" d="M 132.9,41.6 L 155.8,79.6" style="fill:none;fill-rule:evenodd;stroke:#000000;stroke-width:2.0px;stroke-linecap:butt;stroke-linejoin:miter;stroke-opacity:1"/>
<path class="bond-1 atom-1 atom-2" d="M 155.8,79.6 L 200.2,78.9" style="fill:none;fill-rule:evenodd;stroke:#000000;stroke-width:2.0px;stroke-linecap:butt;stroke-linejoin:miter;stroke-opacity:1"/>
<path class="bond-2 atom-2 atom-3" d="M 202.2,82.2 L 211.2,65.9" style="fill:none;fill-rule:evenodd;stroke:#000000;stroke-width:2.0px;stroke-linecap:butt;stroke-linejoin:miter;stroke-opacity:1"/>
<path class="bond-2 atom-2 atom-3" d="M 211.2,65.9 L 220.2,49.6" style="fill:none;fill-rule:evenodd;stroke:#FF0000;stroke-width:2.0px;stroke-linecap:butt;stroke-linejoin:miter;stroke-opacity:1"/>
<path class="bond-2 atom-2 atom-3" d="M 196.4,78.9 L 205.4,62.7" style="fill:none;fill-rule:evenodd;stroke:#000000;stroke-width:2.0px;stroke-linecap:butt;stroke-linejoin:miter;stroke-opacity:1"/>
<path class="bond-2 atom-2 atom-3" d="M 205.4,62.7 L 214.4,46.4" style="fill:none;fill-rule:evenodd;stroke:#FF0000;stroke-width:2.0px;stroke-linecap:butt;stroke-linejoin:miter;stroke-opacity:1"/>
<path class="bond-3 atom-2 atom-4" d="M 200.2,78.9 L 209.3,94.0" style="fill:none;fill-rule:evenodd;stroke:#000000;stroke-width:2.0px;stroke-linecap:butt;stroke-linejoin:miter;stroke-opacity:1"/>
<path class="bond-3 atom-2 atom-4" d="M 209.3,94.0 L 218.4,109.1" style="fill:none;fill-rule:evenodd;stroke:#FF0000;stroke-width:2.0px;stroke-linecap:butt;stroke-linejoin:miter;stroke-opacity:1"/>
<path class="bond-4 atom-1 atom-5" d="M 155.8,79.6 L 134.3,118.5" style="fill:none;fill-rule:evenodd;stroke:#000000;stroke-width:2.0px;stroke-linecap:butt;stroke-linejoin:miter;stroke-opacity:1"/>
<path class="bond-5 atom-5 atom-6" d="M 134.3,118.5 L 112.7,157.4" style="fill:none;fill-rule:evenodd;stroke:#000000;stroke-width:2.0px;stroke-linecap:butt;stroke-linejoin:miter;stroke-opacity:1"/>
<path class="bond-6 atom-5 atom-7" d="M 134.3,118.5 L 150.1,127.3" style="fill:none;fill-rule:evenodd;stroke:#000000;stroke-width:2.0px;stroke-linecap:butt;stroke-linejoin:miter;stroke-opacity:1"/>
<path class="bond-6 atom-5 atom-7" d="M 150.1,127.3 L 165.9,136.0" style="fill:none;fill-rule:evenodd;stroke:#FF0000;stroke-width:2.0px;stroke-linecap:butt;stroke-linejoin:miter;stroke-opacity:1"/>
<path class="bond-7 atom-5 atom-8" d="M 134.3,118.5 L 95.4,97.0" style="fill:none;fill-rule:evenodd;stroke:#000000;stroke-width:2.0px;stroke-linecap:butt;stroke-linejoin:miter;stroke-opacity:1"/>
<path class="bond-8 atom-8 atom-9" d="M 95.4,97.0 L 117.0,58.1" style="fill:none;fill-rule:evenodd;stroke:#000000;stroke-width:2.0px;stroke-linecap:butt;stroke-linejoin:miter;stroke-opacity:1"/>
<path class="bond-9 atom-8 atom-10" d="M 95.4,97.0 L 73.9,135.8" style="fill:none;fill-rule:evenodd;stroke:#000000;stroke-width:2.0px;stroke-linecap:butt;stroke-linejoin:miter;stroke-opacity:1"/>
<path class="bond-10 atom-8 atom-11" d="M 95.4,97.0 L 56.6,75.4" style="fill:none;fill-rule:evenodd;stroke:#000000;stroke-width:2.0px;stroke-linecap:butt;stroke-linejoin:miter;stroke-opacity:1"/>
<path class="bond-11 atom-11 atom-12" d="M 56.5,71.6 L 40.2,81.3" style="fill:none;fill-rule:evenodd;stroke:#000000;stroke-width:2.0px;stroke-linecap:butt;stroke-linejoin:miter;stroke-opacity:1"/>
<path class="bond-11 atom-11 atom-12" d="M 40.2,81.3 L 24.0,91.1" style="fill:none;fill-rule:evenodd;stroke:#FF0000;stroke-width:2.0px;stroke-linecap:butt;stroke-linejoin:miter;stroke-opacity:1"/>
<path class="bond-11 atom-11 atom-12" d="M 59.9,77.3 L 43.7,87.1" style="fill:none;fill-rule:evenodd;stroke:#000000;stroke-width:2.0px;stroke-linecap:butt;stroke-linejoin:miter;stroke-opacity:1"/>
<path class="bond-11 atom-11 atom-12" d="M 43.7,87.1 L 27.4,96.8" style="fill:none;fill-rule:evenodd;stroke:#FF0000;stroke-width:2.0px;stroke-linecap:butt;stroke-linejoin:miter;stroke-opacity:1"/>
<path class="bond-12 atom-11 atom-13" d="M 56.6,75.4 L 56.2,57.2" style="fill:none;fill-rule:evenodd;stroke:#000000;stroke-width:2.0px;stroke-linecap:butt;stroke-linejoin:miter;stroke-opacity:1"/>
<path class="bond-12 atom-11 atom-13" d="M 56.2,57.2 L 55.9,39.0" style="fill:none;fill-rule:evenodd;stroke:#FF0000;stroke-width:2.0px;stroke-linecap:butt;stroke-linejoin:miter;stroke-opacity:1"/>
<path d="M 198.0,78.9 L 200.2,78.9 L 200.7,79.6" style="fill:none;stroke:#000000;stroke-width:2.0px;stroke-linecap:butt;stroke-linejoin:miter;stroke-opacity:1;"/>
<path d="M 58.5,76.5 L 56.6,75.4 L 56.5,74.5" style="fill:none;stroke:#000000;stroke-width:2.0px;stroke-linecap:butt;stroke-linejoin:miter;stroke-opacity:1;"/>
<path class="atom-3" d="M 216.0 40.0 Q 216.0 37.0, 217.5 35.3 Q 219.0 33.6, 221.8 33.6 Q 224.6 33.6, 226.0 35.3 Q 227.5 37.0, 227.5 40.0 Q 227.5 43.1, 226.0 44.8 Q 224.5 46.5, 221.8 46.5 Q 219.0 46.5, 217.5 44.8 Q 216.0 43.1, 216.0 40.0 M 221.8 45.1 Q 223.7 45.1, 224.7 43.8 Q 225.8 42.6, 225.8 40.0 Q 225.8 37.6, 224.7 36.3 Q 223.7 35.1, 221.8 35.1 Q 219.8 35.1, 218.8 36.3 Q 217.8 37.5, 217.8 40.0 Q 217.8 42.6, 218.8 43.8 Q 219.8 45.1, 221.8 45.1 " fill="#FF0000"/>
<path class="atom-4" d="M 217.3 117.0 Q 217.3 113.9, 218.8 112.3 Q 220.3 110.6, 223.1 110.6 Q 225.9 110.6, 227.4 112.3 Q 228.9 113.9, 228.9 117.0 Q 228.9 120.0, 227.4 121.8 Q 225.9 123.5, 223.1 123.5 Q 220.3 123.5, 218.8 121.8 Q 217.3 120.0, 217.3 117.0 M 223.1 122.1 Q 225.0 122.1, 226.1 120.8 Q 227.1 119.5, 227.1 117.0 Q 227.1 114.5, 226.1 113.3 Q 225.0 112.0, 223.1 112.0 Q 221.2 112.0, 220.2 113.2 Q 219.1 114.5, 219.1 117.0 Q 219.1 119.5, 220.2 120.8 Q 221.2 122.1, 223.1 122.1 " fill="#FF0000"/>
<path class="atom-4" d="M 230.9 110.7 L 232.6 110.7 L 232.6 116.1 L 239.0 116.1 L 239.0 110.7 L 240.7 110.7 L 240.7 123.3 L 239.0 123.3 L 239.0 117.5 L 232.6 117.5 L 232.6 123.3 L 230.9 123.3 L 230.9 110.7 " fill="#FF0000"/>
<path class="atom-7" d="M 167.4 140.1 Q 167.4 137.0, 168.9 135.4 Q 170.3 133.7, 173.1 133.7 Q 175.9 133.7, 177.4 135.4 Q 178.9 137.0, 178.9 140.1 Q 178.9 143.1, 177.4 144.9 Q 175.9 146.6, 173.1 146.6 Q 170.4 146.6, 168.9 144.9 Q 167.4 143.1, 167.4 140.1 M 173.1 145.2 Q 175.1 145.2, 176.1 143.9 Q 177.1 142.6, 177.1 140.1 Q 177.1 137.6, 176.1 136.4 Q 175.1 135.1, 173.1 135.1 Q 171.2 135.1, 170.2 136.3 Q 169.1 137.6, 169.1 140.1 Q 169.1 142.6, 170.2 143.9 Q 171.2 145.2, 173.1 145.2 " fill="#FF0000"/>
<path class="atom-7" d="M 180.9 133.8 L 182.6 133.8 L 182.6 139.2 L 189.0 139.2 L 189.0 133.8 L 190.7 133.8 L 190.7 146.4 L 189.0 146.4 L 189.0 140.6 L 182.6 140.6 L 182.6 146.4 L 180.9 146.4 L 180.9 133.8 " fill="#FF0000"/>
<path class="atom-12" d="M 12.7 98.4 Q 12.7 95.3, 14.2 93.6 Q 15.7 92.0, 18.5 92.0 Q 21.3 92.0, 22.8 93.6 Q 24.3 95.3, 24.3 98.4 Q 24.3 101.4, 22.7 103.1 Q 21.2 104.9, 18.5 104.9 Q 15.7 104.9, 14.2 103.1 Q 12.7 101.4, 12.7 98.4 M 18.5 103.5 Q 20.4 103.5, 21.4 102.2 Q 22.5 100.9, 22.5 98.4 Q 22.5 95.9, 21.4 94.6 Q 20.4 93.4, 18.5 93.4 Q 16.6 93.4, 15.5 94.6 Q 14.5 95.9, 14.5 98.4 Q 14.5 100.9, 15.5 102.2 Q 16.6 103.5, 18.5 103.5 " fill="#FF0000"/>
<path class="atom-13" d="M 50.0 31.0 Q 50.0 28.0, 51.5 26.3 Q 53.0 24.6, 55.8 24.6 Q 58.6 24.6, 60.1 26.3 Q 61.5 28.0, 61.5 31.0 Q 61.5 34.1, 60.0 35.8 Q 58.5 37.6, 55.8 37.6 Q 53.0 37.6, 51.5 35.8 Q 50.0 34.1, 50.0 31.0 M 55.8 36.1 Q 57.7 36.1, 58.7 34.9 Q 59.8 33.6, 59.8 31.0 Q 59.8 28.6, 58.7 27.3 Q 57.7 26.1, 55.8 26.1 Q 53.9 26.1, 52.8 27.3 Q 51.8 28.6, 51.8 31.0 Q 51.8 33.6, 52.8 34.9 Q 53.9 36.1, 55.8 36.1 " fill="#FF0000"/>
<path class="atom-13" d="M 63.5 24.8 L 65.2 24.8 L 65.2 30.1 L 71.6 30.1 L 71.6 24.8 L 73.4 24.8 L 73.4 37.4 L 71.6 37.4 L 71.6 31.6 L 65.2 31.6 L 65.2 37.4 L 63.5 37.4 L 63.5 24.8 " fill="#FF0000"/>
<path class="legend" d="M 118.2 181.9 Q 118.2 179.6, 118.9 177.7 Q 119.5 175.8, 120.8 173.8 L 121.7 174.4 Q 120.7 176.3, 120.1 178.0 Q 119.6 179.7, 119.6 181.9 Q 119.6 184.0, 120.1 185.8 Q 120.7 187.5, 121.7 189.4 L 120.8 190.0 Q 119.5 188.0, 118.9 186.1 Q 118.2 184.2, 118.2 181.9 " fill="#000000"/>
<path class="legend" d="M 122.6 177.3 Q 123.1 176.2, 124.0 175.6 Q 125.0 175.0, 126.4 175.0 Q 128.1 175.0, 129.1 175.9 Q 130.0 176.8, 130.0 178.5 Q 130.0 180.2, 128.8 181.7 Q 127.6 183.3, 125.0 185.2 L 130.2 185.2 L 130.2 186.4 L 122.6 186.4 L 122.6 185.4 Q 124.7 183.9, 126.0 182.8 Q 127.2 181.6, 127.8 180.6 Q 128.4 179.6, 128.4 178.6 Q 128.4 177.5, 127.9 176.9 Q 127.4 176.3, 126.4 176.3 Q 125.5 176.3, 124.9 176.6 Q 124.3 177.0, 123.9 177.8 L 122.6 177.3 " fill="#000000"/>
<path class="legend" d="M 135.2 181.9 Q 135.2 184.2, 134.5 186.1 Q 133.9 188.0, 132.6 190.0 L 131.7 189.4 Q 132.7 187.5, 133.2 185.8 Q 133.8 184.0, 133.8 181.9 Q 133.8 179.7, 133.2 178.0 Q 132.7 176.3, 131.7 174.4 L 132.6 173.8 Q 133.9 175.8, 134.5 177.7 Q 135.2 179.6, 135.2 181.9 " fill="#000000"/>
</g>
    <g transform="translate(254.00000000000003, 0) scale(1 1) "><line x1="5" y1="100" x2="35" y2="100" style="stroke:rgb(0,0,0);stroke-width:2"/>
  <line x1="34" y1="100" x2="29" y2="95" style="stroke:rgb(0,0,0);stroke-width:2"/>
  <line x1="34" y1="100" x2="29" y2="105" style="stroke:rgb(0,0,0);stroke-width:2"/>
</g>
    <g transform="translate(294.0, 0) scale(1 1) "><!-- END OF HEADER -->
<rect style="opacity:1.0;fill:#FFFFFF;stroke:none" width="205.0" height="200.0" x="0.0" y="0.0"> </rect>
<path class="bond-0 atom-0 atom-1" d="M 139.9,49.2 L 139.9,92.3" style="fill:none;fill-rule:evenodd;stroke:#000000;stroke-width:2.0px;stroke-linecap:butt;stroke-linejoin:miter;stroke-opacity:1"/>
<path class="bond-1 atom-1 atom-2" d="M 139.9,92.3 L 155.0,101.1" style="fill:none;fill-rule:evenodd;stroke:#000000;stroke-width:2.0px;stroke-linecap:butt;stroke-linejoin:miter;stroke-opacity:1"/>
<path class="bond-1 atom-1 atom-2" d="M 155.0,101.1 L 170.2,109.8" style="fill:none;fill-rule:evenodd;stroke:#FF0000;stroke-width:2.0px;stroke-linecap:butt;stroke-linejoin:miter;stroke-opacity:1"/>
<path class="bond-2 atom-1 atom-3" d="M 139.9,92.3 L 102.6,113.9" style="fill:none;fill-rule:evenodd;stroke:#000000;stroke-width:2.0px;stroke-linecap:butt;stroke-linejoin:miter;stroke-opacity:1"/>
<path class="bond-3 atom-3 atom-4" d="M 102.6,113.9 L 102.6,157.0" style="fill:none;fill-rule:evenodd;stroke:#000000;stroke-width:2.0px;stroke-linecap:butt;stroke-linejoin:miter;stroke-opacity:1"/>
<path class="bond-4 atom-3 atom-5" d="M 102.6,113.9 L 65.2,92.3" style="fill:none;fill-rule:evenodd;stroke:#000000;stroke-width:2.0px;stroke-linecap:butt;stroke-linejoin:miter;stroke-opacity:1"/>
<path class="bond-5 atom-5 atom-6" d="M 68.5,94.2 L 68.5,75.6" style="fill:none;fill-rule:evenodd;stroke:#000000;stroke-width:2.0px;stroke-linecap:butt;stroke-linejoin:miter;stroke-opacity:1"/>
<path class="bond-5 atom-5 atom-6" d="M 68.5,75.6 L 68.5,57.0" style="fill:none;fill-rule:evenodd;stroke:#FF0000;stroke-width:2.0px;stroke-linecap:butt;stroke-linejoin:miter;stroke-opacity:1"/>
<path class="bond-5 atom-5 atom-6" d="M 62.0,94.2 L 62.0,75.6" style="fill:none;fill-rule:evenodd;stroke:#000000;stroke-width:2.0px;stroke-linecap:butt;stroke-linejoin:miter;stroke-opacity:1"/>
<path class="bond-5 atom-5 atom-6" d="M 62.0,75.6 L 62.0,57.0" style="fill:none;fill-rule:evenodd;stroke:#FF0000;stroke-width:2.0px;stroke-linecap:butt;stroke-linejoin:miter;stroke-opacity:1"/>
<path class="bond-6 atom-5 atom-7" d="M 65.2,92.3 L 50.1,101.1" style="fill:none;fill-rule:evenodd;stroke:#000000;stroke-width:2.0px;stroke-linecap:butt;stroke-linejoin:miter;stroke-opacity:1"/>
<path class="bond-6 atom-5 atom-7" d="M 50.1,101.1 L 34.9,109.8" style="fill:none;fill-rule:evenodd;stroke:#FF0000;stroke-width:2.0px;stroke-linecap:butt;stroke-linejoin:miter;stroke-opacity:1"/>
<path d="M 67.1,93.4 L 65.2,92.3 L 64.5,92.7" style="fill:none;stroke:#000000;stroke-width:2.0px;stroke-linecap:butt;stroke-linejoin:miter;stroke-opacity:1;"/>
<path class="atom-2" d="M 171.6 113.9 Q 171.6 111.0, 173.0 109.3 Q 174.5 107.7, 177.2 107.7 Q 179.9 107.7, 181.4 109.3 Q 182.8 111.0, 182.8 113.9 Q 182.8 116.9, 181.3 118.5 Q 179.9 120.2, 177.2 120.2 Q 174.5 120.2, 173.0 118.5 Q 171.6 116.9, 171.6 113.9 M 177.2 118.8 Q 179.1 118.8, 180.1 117.6 Q 181.1 116.3, 181.1 113.9 Q 181.1 111.5, 180.1 110.3 Q 179.1 109.1, 177.2 109.1 Q 175.3 109.1, 174.3 110.3 Q 173.3 111.5, 173.3 113.9 Q 173.3 116.4, 174.3 117.6 Q 175.3 118.8, 177.2 118.8 " fill="#FF0000"/>
<path class="atom-2" d="M 184.7 107.8 L 186.4 107.8 L 186.4 113.0 L 192.6 113.0 L 192.6 107.8 L 194.2 107.8 L 194.2 120.0 L 192.6 120.0 L 192.6 114.4 L 186.4 114.4 L 186.4 120.0 L 184.7 120.0 L 184.7 107.8 " fill="#FF0000"/>
<path class="atom-6" d="M 59.6 49.2 Q 59.6 46.3, 61.1 44.7 Q 62.5 43.0, 65.2 43.0 Q 67.9 43.0, 69.4 44.7 Q 70.8 46.3, 70.8 49.2 Q 70.8 52.2, 69.4 53.9 Q 67.9 55.6, 65.2 55.6 Q 62.5 55.6, 61.1 53.9 Q 59.6 52.2, 59.6 49.2 M 65.2 54.2 Q 67.1 54.2, 68.1 53.0 Q 69.1 51.7, 69.1 49.2 Q 69.1 46.9, 68.1 45.6 Q 67.1 44.4, 65.2 44.4 Q 63.4 44.4, 62.3 45.6 Q 61.4 46.8, 61.4 49.2 Q 61.4 51.7, 62.3 53.0 Q 63.4 54.2, 65.2 54.2 " fill="#FF0000"/>
<path class="atom-7" d="M 10.2 107.8 L 11.9 107.8 L 11.9 113.0 L 18.1 113.0 L 18.1 107.8 L 19.8 107.8 L 19.8 120.0 L 18.1 120.0 L 18.1 114.4 L 11.9 114.4 L 11.9 120.0 L 10.2 120.0 L 10.2 107.8 " fill="#FF0000"/>
<path class="atom-7" d="M 22.3 113.9 Q 22.3 111.0, 23.8 109.3 Q 25.2 107.7, 27.9 107.7 Q 30.6 107.7, 32.1 109.3 Q 33.5 111.0, 33.5 113.9 Q 33.5 116.9, 32.0 118.5 Q 30.6 120.2, 27.9 120.2 Q 25.2 120.2, 23.8 118.5 Q 22.3 116.9, 22.3 113.9 M 27.9 118.8 Q 29.8 118.8, 30.8 117.6 Q 31.8 116.3, 31.8 113.9 Q 31.8 111.5, 30.8 110.3 Q 29.8 109.1, 27.9 109.1 Q 26.0 109.1, 25.0 110.3 Q 24.0 111.5, 24.0 113.9 Q 24.0 116.4, 25.0 117.6 Q 26.0 118.8, 27.9 118.8 " fill="#FF0000"/>
</g>
    <g transform="translate(499.0, 0) scale(1 1) "><line x1="15" y1="100" x2="25" y2="100" style="stroke:rgb(0,0,0);stroke-width:2"/>
  <line x1="20" y1="95" x2="20" y2="105" style="stroke:rgb(0,0,0);stroke-width:2"/>
</g>
    <g transform="translate(539.0, 0) scale(1 1) "><!-- END OF HEADER -->
<rect style="opacity:1.0;fill:#FFFFFF;stroke:none" width="285.0" height="200.0" x="0.0" y="0.0"> </rect>
<path class="bond-0 atom-0 atom-1" d="M 178.8,90.8 L 186.6,118.6" style="fill:none;fill-rule:evenodd;stroke:#000000;stroke-width:2.0px;stroke-linecap:butt;stroke-linejoin:miter;stroke-opacity:1"/>
<path class="bond-1 atom-1 atom-2" d="M 186.6,118.6 L 201.9,155.1" style="fill:none;fill-rule:evenodd;stroke:#000000;stroke-width:2.0px;stroke-linecap:butt;stroke-linejoin:miter;stroke-opacity:1"/>
<path class="bond-2 atom-1 atom-3" d="M 186.6,118.6 L 223.1,103.3" style="fill:none;fill-rule:evenodd;stroke:#000000;stroke-width:2.0px;stroke-linecap:butt;stroke-linejoin:miter;stroke-opacity:1"/>
<path class="bond-3 atom-3 atom-4" d="M 225.7,105.3 L 227.8,88.4" style="fill:none;fill-rule:evenodd;stroke:#000000;stroke-width:2.0px;stroke-linecap:butt;stroke-linejoin:miter;stroke-opacity:1"/>
<path class="bond-3 atom-3 atom-4" d="M 227.8,88.4 L 230.0,71.5" style="fill:none;fill-rule:evenodd;stroke:#FF0000;stroke-width:2.0px;stroke-linecap:butt;stroke-linejoin:miter;stroke-opacity:1"/>
<path class="bond-3 atom-3 atom-4" d="M 220.1,104.6 L 222.3,87.7" style="fill:none;fill-rule:evenodd;stroke:#000000;stroke-width:2.0px;stroke-linecap:butt;stroke-linejoin:miter;stroke-opacity:1"/>
<path class="bond-3 atom-3 atom-4" d="M 222.3,87.7 L 224.4,70.8" style="fill:none;fill-rule:evenodd;stroke:#FF0000;stroke-width:2.0px;stroke-linecap:butt;stroke-linejoin:miter;stroke-opacity:1"/>
<path class="bond-4 atom-3 atom-5" d="M 223.1,103.3 L 235.7,112.9" style="fill:none;fill-rule:evenodd;stroke:#000000;stroke-width:2.0px;stroke-linecap:butt;stroke-linejoin:miter;stroke-opacity:1"/>
<path class="bond-4 atom-3 atom-5" d="M 235.7,112.9 L 248.2,122.4" style="fill:none;fill-rule:evenodd;stroke:#FF0000;stroke-width:2.0px;stroke-linecap:butt;stroke-linejoin:miter;stroke-opacity:1"/>
<path class="bond-5 atom-1 atom-6" d="M 186.6,118.6 L 150.2,133.9" style="fill:none;fill-rule:evenodd;stroke:#000000;stroke-width:2.0px;stroke-linecap:butt;stroke-linejoin:miter;stroke-opacity:1"/>
<path class="bond-6 atom-6 atom-7" d="M 150.2,133.9 L 125.1,148.2" style="fill:none;fill-rule:evenodd;stroke:#000000;stroke-width:2.0px;stroke-linecap:butt;stroke-linejoin:miter;stroke-opacity:1"/>
<path class="bond-7 atom-6 atom-8" d="M 150.2,133.9 L 156.4,148.7" style="fill:none;fill-rule:evenodd;stroke:#000000;stroke-width:2.0px;stroke-linecap:butt;stroke-linejoin:miter;stroke-opacity:1"/>
<path class="bond-7 atom-6 atom-8" d="M 156.4,148.7 L 162.6,163.5" style="fill:none;fill-rule:evenodd;stroke:#FF0000;stroke-width:2.0px;stroke-linecap:butt;stroke-linejoin:miter;stroke-opacity:1"/>
<path class="bond-8 atom-6 atom-9" d="M 150.2,133.9 L 134.9,97.4" style="fill:none;fill-rule:evenodd;stroke:#000000;stroke-width:2.0px;stroke-linecap:butt;stroke-linejoin:miter;stroke-opacity:1"/>
<path class="bond-9 atom-9 atom-10" d="M 134.9,97.4 L 159.9,83.1" style="fill:none;fill-rule:evenodd;stroke:#000000;stroke-width:2.0px;stroke-linecap:butt;stroke-linejoin:miter;stroke-opacity:1"/>
<path class="bond-10 atom-9 atom-11" d="M 134.9,97.4 L 119.6,60.9" style="fill:none;fill-rule:evenodd;stroke:#000000;stroke-width:2.0px;stroke-linecap:butt;stroke-linejoin:miter;stroke-opacity:1"/>
<path class="bond-11 atom-11 atom-12" d="M 121.4,58.5 L 104.9,54.3" style="fill:none;fill-rule:evenodd;stroke:#000000;stroke-width:2.0px;stroke-linecap:butt;stroke-linejoin:miter;stroke-opacity:1"/>
<path class="bond-11 atom-11 atom-12" d="M 104.9,54.3 L 88.3,50.1" style="fill:none;fill-rule:evenodd;stroke:#FF0000;stroke-width:2.0px;stroke-linecap:butt;stroke-linejoin:miter;stroke-opacity:1"/>
<path class="bond-11 atom-11 atom-12" d="M 120.9,64.2 L 103.5,59.7" style="fill:none;fill-rule:evenodd;stroke:#000000;stroke-width:2.0px;stroke-linecap:butt;stroke-linejoin:miter;stroke-opacity:1"/>
<path class="bond-11 atom-11 atom-12" d="M 103.5,59.7 L 86.9,55.5" style="fill:none;fill-rule:evenodd;stroke:#FF0000;stroke-width:2.0px;stroke-linecap:butt;stroke-linejoin:miter;stroke-opacity:1"/>
<path class="bond-12 atom-11 atom-13" d="M 119.6,60.9 L 128.9,48.7" style="fill:none;fill-rule:evenodd;stroke:#000000;stroke-width:2.0px;stroke-linecap:butt;stroke-linejoin:miter;stroke-opacity:1"/>
<path class="bond-12 atom-11 atom-13" d="M 128.9,48.7 L 138.2,36.5" style="fill:none;fill-rule:evenodd;stroke:#FF0000;stroke-width:2.0px;stroke-linecap:butt;stroke-linejoin:miter;stroke-opacity:1"/>
<path class="bond-13 atom-9 atom-14" d="M 134.9,97.4 L 98.4,112.7" style="fill:none;fill-rule:evenodd;stroke:#000000;stroke-width:2.0px;stroke-linecap:butt;stroke-linejoin:miter;stroke-opacity:1"/>
<path class="bond-14 atom-14 atom-15" d="M 98.4,112.7 L 106.2,140.5" style="fill:none;fill-rule:evenodd;stroke:#000000;stroke-width:2.0px;stroke-linecap:butt;stroke-linejoin:miter;stroke-opacity:1"/>
<path class="bond-15 atom-14 atom-16" d="M 98.4,112.7 L 78.8,78.4" style="fill:none;fill-rule:evenodd;stroke:#000000;stroke-width:2.0px;stroke-linecap:butt;stroke-linejoin:miter;stroke-opacity:1"/>
<path class="bond-16 atom-14 atom-17" d="M 98.4,112.7 L 61.9,128.0" style="fill:none;fill-rule:evenodd;stroke:#000000;stroke-width:2.0px;stroke-linecap:butt;stroke-linejoin:miter;stroke-opacity:1"/>
<path class="bond-17 atom-17 atom-18" d="M 59.4,126.0 L 57.2,143.0" style="fill:none;fill-rule:evenodd;stroke:#000000;stroke-width:2.0px;stroke-linecap:butt;stroke-linejoin:miter;stroke-opacity:1"/>
<path class="bond-17 atom-17 atom-18" d="M 57.2,143.0 L 55.0,160.0" style="fill:none;fill-rule:evenodd;stroke:#FF0000;stroke-width:2.0px;stroke-linecap:butt;stroke-linejoin:miter;stroke-opacity:1"/>
<path class="bond-17 atom-17 atom-18" d="M 64.9,126.7 L 62.7,143.7" style="fill:none;fill-rule:evenodd;stroke:#000000;stroke-width:2.0px;stroke-linecap:butt;stroke-linejoin:miter;stroke-opacity:1"/>
<path class="bond-17 atom-17 atom-18" d="M 62.7,143.7 L 60.6,160.7" style="fill:none;fill-rule:evenodd;stroke:#FF0000;stroke-width:2.0px;stroke-linecap:butt;stroke-linejoin:miter;stroke-opacity:1"/>
<path class="bond-18 atom-17 atom-19" d="M 61.9,128.0 L 49.4,118.4" style="fill:none;fill-rule:evenodd;stroke:#000000;stroke-width:2.0px;stroke-linecap:butt;stroke-linejoin:miter;stroke-opacity:1"/>
<path class="bond-18 atom-17 atom-19" d="M 49.4,118.4 L 36.8,108.9" style="fill:none;fill-rule:evenodd;stroke:#FF0000;stroke-width:2.0px;stroke-linecap:butt;stroke-linejoin:miter;stroke-opacity:1"/>
<path d="M 221.3,104.1 L 223.1,103.3 L 223.7,103.8" style="fill:none;stroke:#000000;stroke-width:2.0px;stroke-linecap:butt;stroke-linejoin:miter;stroke-opacity:1;"/>
<path d="M 120.4,62.8 L 119.6,60.9 L 120.1,60.3" style="fill:none;stroke:#000000;stroke-width:2.0px;stroke-linecap:butt;stroke-linejoin:miter;stroke-opacity:1;"/>
<path d="M 63.8,127.2 L 61.9,128.0 L 61.3,127.5" style="fill:none;stroke:#000000;stroke-width:2.0px;stroke-linecap:butt;stroke-linejoin:miter;stroke-opacity:1;"/>
<path class="atom-4" d="M 223.0 64.1 Q 223.0 61.4, 224.3 59.9 Q 225.6 58.4, 228.1 58.4 Q 230.6 58.4, 231.9 59.9 Q 233.3 61.4, 233.3 64.1 Q 233.3 66.8, 231.9 68.4 Q 230.6 69.9, 228.1 69.9 Q 225.7 69.9, 224.3 68.4 Q 223.0 66.8, 223.0 64.1 M 228.1 68.6 Q 229.8 68.6, 230.7 67.5 Q 231.7 66.4, 231.7 64.1 Q 231.7 61.9, 230.7 60.8 Q 229.8 59.7, 228.1 59.7 Q 226.4 59.7, 225.5 60.8 Q 224.6 61.9, 224.6 64.1 Q 224.6 66.4, 225.5 67.5 Q 226.4 68.6, 228.1 68.6 " fill="#FF0000"/>
<path class="atom-5" d="M 249.5 127.3 Q 249.5 124.6, 250.8 123.1 Q 252.1 121.6, 254.6 121.6 Q 257.1 121.6, 258.4 123.1 Q 259.7 124.6, 259.7 127.3 Q 259.7 130.0, 258.4 131.6 Q 257.1 133.1, 254.6 133.1 Q 252.1 133.1, 250.8 131.6 Q 249.5 130.0, 249.5 127.3 M 254.6 131.8 Q 256.3 131.8, 257.2 130.7 Q 258.2 129.5, 258.2 127.3 Q 258.2 125.1, 257.2 124.0 Q 256.3 122.9, 254.6 122.9 Q 252.9 122.9, 252.0 124.0 Q 251.0 125.1, 251.0 127.3 Q 251.0 129.5, 252.0 130.7 Q 252.9 131.8, 254.6 131.8 " fill="#FF0000"/>
<path class="atom-5" d="M 261.5 121.7 L 263.0 121.7 L 263.0 126.5 L 268.7 126.5 L 268.7 121.7 L 270.2 121.7 L 270.2 132.9 L 268.7 132.9 L 268.7 127.7 L 263.0 127.7 L 263.0 132.9 L 261.5 132.9 L 261.5 121.7 " fill="#FF0000"/>
<path class="atom-8" d="M 160.3 170.4 Q 160.3 167.7, 161.6 166.2 Q 163.0 164.7, 165.5 164.7 Q 167.9 164.7, 169.3 166.2 Q 170.6 167.7, 170.6 170.4 Q 170.6 173.1, 169.3 174.7 Q 167.9 176.2, 165.5 176.2 Q 163.0 176.2, 161.6 174.7 Q 160.3 173.1, 160.3 170.4 M 165.5 174.9 Q 167.2 174.9, 168.1 173.8 Q 169.0 172.6, 169.0 170.4 Q 169.0 168.2, 168.1 167.1 Q 167.2 166.0, 165.5 166.0 Q 163.8 166.0, 162.8 167.1 Q 161.9 168.2, 161.9 170.4 Q 161.9 172.7, 162.8 173.8 Q 163.8 174.9, 165.5 174.9 " fill="#FF0000"/>
<path class="atom-8" d="M 172.3 164.8 L 173.9 164.8 L 173.9 169.6 L 179.6 169.6 L 179.6 164.8 L 181.1 164.8 L 181.1 176.0 L 179.6 176.0 L 179.6 170.9 L 173.9 170.9 L 173.9 176.0 L 172.3 176.0 L 172.3 164.8 " fill="#FF0000"/>
<path class="atom-12" d="M 76.1 51.2 Q 76.1 48.5, 77.4 47.0 Q 78.8 45.5, 81.3 45.5 Q 83.7 45.5, 85.1 47.0 Q 86.4 48.5, 86.4 51.2 Q 86.4 54.0, 85.1 55.5 Q 83.7 57.0, 81.3 57.0 Q 78.8 57.0, 77.4 55.5 Q 76.1 54.0, 76.1 51.2 M 81.3 55.8 Q 83.0 55.8, 83.9 54.6 Q 84.8 53.5, 84.8 51.2 Q 84.8 49.0, 83.9 47.9 Q 83.0 46.8, 81.3 46.8 Q 79.6 46.8, 78.6 47.9 Q 77.7 49.0, 77.7 51.2 Q 77.7 53.5, 78.6 54.6 Q 79.6 55.8, 81.3 55.8 " fill="#FF0000"/>
<path class="atom-13" d="M 138.4 29.5 Q 138.4 26.8, 139.7 25.3 Q 141.1 23.8, 143.5 23.8 Q 146.0 23.8, 147.3 25.3 Q 148.7 26.8, 148.7 29.5 Q 148.7 32.2, 147.3 33.8 Q 146.0 35.3, 143.5 35.3 Q 141.1 35.3, 139.7 33.8 Q 138.4 32.2, 138.4 29.5 M 143.5 34.0 Q 145.2 34.0, 146.2 32.9 Q 147.1 31.7, 147.1 29.5 Q 147.1 27.3, 146.2 26.2 Q 145.2 25.1, 143.5 25.1 Q 141.8 25.1, 140.9 26.2 Q 140.0 27.3, 140.0 29.5 Q 140.0 31.8, 140.9 32.9 Q 141.8 34.0, 143.5 34.0 " fill="#FF0000"/>
<path class="atom-13" d="M 150.4 23.9 L 151.9 23.9 L 151.9 28.7 L 157.7 28.7 L 157.7 23.9 L 159.2 23.9 L 159.2 35.1 L 157.7 35.1 L 157.7 30.0 L 151.9 30.0 L 151.9 35.1 L 150.4 35.1 L 150.4 23.9 " fill="#FF0000"/>
<path class="atom-18" d="M 51.8 167.3 Q 51.8 164.6, 53.1 163.1 Q 54.5 161.6, 56.9 161.6 Q 59.4 161.6, 60.7 163.1 Q 62.1 164.6, 62.1 167.3 Q 62.1 170.0, 60.7 171.5 Q 59.4 173.1, 56.9 173.1 Q 54.5 173.1, 53.1 171.5 Q 51.8 170.0, 51.8 167.3 M 56.9 171.8 Q 58.6 171.8, 59.6 170.7 Q 60.5 169.5, 60.5 167.3 Q 60.5 165.1, 59.6 164.0 Q 58.6 162.8, 56.9 162.8 Q 55.2 162.8, 54.3 163.9 Q 53.4 165.0, 53.4 167.3 Q 53.4 169.5, 54.3 170.7 Q 55.2 171.8, 56.9 171.8 " fill="#FF0000"/>
<path class="atom-19" d="M 14.2 98.5 L 15.8 98.5 L 15.8 103.3 L 21.5 103.3 L 21.5 98.5 L 23.0 98.5 L 23.0 109.7 L 21.5 109.7 L 21.5 104.5 L 15.8 104.5 L 15.8 109.7 L 14.2 109.7 L 14.2 98.5 " fill="#FF0000"/>
<path class="atom-19" d="M 25.3 104.1 Q 25.3 101.4, 26.6 99.9 Q 28.0 98.4, 30.5 98.4 Q 32.9 98.4, 34.3 99.9 Q 35.6 101.4, 35.6 104.1 Q 35.6 106.8, 34.2 108.4 Q 32.9 109.9, 30.5 109.9 Q 28.0 109.9, 26.6 108.4 Q 25.3 106.8, 25.3 104.1 M 30.5 108.6 Q 32.2 108.6, 33.1 107.5 Q 34.0 106.3, 34.0 104.1 Q 34.0 101.9, 33.1 100.8 Q 32.2 99.7, 30.5 99.7 Q 28.7 99.7, 27.8 100.8 Q 26.9 101.9, 26.9 104.1 Q 26.9 106.3, 27.8 107.5 Q 28.7 108.6, 30.5 108.6 " fill="#FF0000"/>
</g>
  </g>
</svg>
