<?xml version='1.0' encoding='ASCII' standalone='yes'?>
<svg xmlns="http://www.w3.org/2000/svg" xmlns:xlink="http://www.w3.org/1999/xlink" version="1.1" width="687.0px" viewBox="0 0 687.0 200.0" height="200.0px">
  <g>
    <g transform="translate(0, 0) scale(1 1) "><!-- END OF HEADER -->
<rect style="opacity:1.0;fill:#FFFFFF;stroke:none" width="254.0" height="200.0" x="0.0" y="0.0"> </rect>
<path class="bond-0 atom-0 atom-1" d="M 183.5,59.4 L 175.0,95.1" style="fill:none;fill-rule:evenodd;stroke:#000000;stroke-width:2.0px;stroke-linecap:butt;stroke-linejoin:miter;stroke-opacity:1"/>
<path class="bond-1 atom-1 atom-2" d="M 175.0,95.1 L 166.5,130.8" style="fill:none;fill-rule:evenodd;stroke:#000000;stroke-width:2.0px;stroke-linecap:butt;stroke-linejoin:miter;stroke-opacity:1"/>
<path class="bond-2 atom-1 atom-3" d="M 175.0,95.1 L 139.3,86.6" style="fill:none;fill-rule:evenodd;stroke:#000000;stroke-width:2.0px;stroke-linecap:butt;stroke-linejoin:miter;stroke-opacity:1"/>
<path class="bond-3 atom-3 atom-4" d="M 139.3,86.6 L 114.1,113.2" style="fill:none;fill-rule:evenodd;stroke:#000000;stroke-width:2.0px;stroke-linecap:butt;stroke-linejoin:miter;stroke-opacity:1"/>
<path class="bond-4 atom-4 atom-5" d="M 114.1,113.2 L 78.4,104.7" style="fill:none;fill-rule:evenodd;stroke:#000000;stroke-width:2.0px;stroke-linecap:butt;stroke-linejoin:miter;stroke-opacity:1"/>
<path class="bond-5 atom-5 atom-6" d="M 78.4,104.7 L 86.9,69.0" style="fill:none;fill-rule:evenodd;stroke:#000000;stroke-width:2.0px;stroke-linecap:butt;stroke-linejoin:miter;stroke-opacity:1"/>
<path class="bond-6 atom-5 atom-7" d="M 78.4,104.7 L 69.9,140.4" style="fill:none;fill-rule:evenodd;stroke:#000000;stroke-width:2.0px;stroke-linecap:butt;stroke-linejoin:miter;stroke-opacity:1"/>
<path class="bond-7 atom-5 atom-8" d="M 78.4,104.7 L 42.7,96.2" style="fill:none;fill-rule:evenodd;stroke:#000000;stroke-width:2.0px;stroke-linecap:butt;stroke-linejoin:miter;stroke-opacity:1"/>
<path class="bond-8 atom-8 atom-9" d="M 41.8,93.2 L 31.6,103.9" style="fill:none;fill-rule:evenodd;stroke:#000000;stroke-width:2.0px;stroke-linecap:butt;stroke-linejoin:miter;stroke-opacity:1"/>
<path class="bond-8 atom-8 atom-9" d="M 31.6,103.9 L 21.5,114.7" style="fill:none;fill-rule:evenodd;stroke:#FF0000;stroke-width:2.0px;stroke-linecap:butt;stroke-linejoin:miter;stroke-opacity:1"/>
<path class="bond-8 atom-8 atom-9" d="M 45.8,97.0 L 35.6,107.7" style="fill:none;fill-rule:evenodd;stroke:#000000;stroke-width:2.0px;stroke-linecap:butt;stroke-linejoin:miter;stroke-opacity:1"/>
<path class="bond-8 atom-8 atom-9" d="M 35.6,107.7 L 25.5,118.5" style="fill:none;fill-rule:evenodd;stroke:#FF0000;stroke-width:2.0px;stroke-linecap:butt;stroke-linejoin:miter;stroke-opacity:1"/>
<path class="bond-9 atom-8 atom-10" d="M 42.7,96.2 L 38.4,82.0" style="fill:none;fill-rule:evenodd;stroke:#000000;stroke-width:2.0px;stroke-linecap:butt;stroke-linejoin:miter;stroke-opacity:1"/>
<path class="bond-9 atom-8 atom-10" d="M 38.4,82.0 L 34.2,67.7" style="fill:none;fill-rule:evenodd;stroke:#FF0000;stroke-width:2.0px;stroke-linecap:butt;stroke-linejoin:miter;stroke-opacity:1"/>
<path class="bond-10 atom-1 atom-11" d="M 175.0,95.1 L 210.7,103.6" style="fill:none;fill-rule:evenodd;stroke:#000000;stroke-width:2.0px;stroke-linecap:butt;stroke-linejoin:miter;stroke-opacity:1"/>
<path class="bond-11 atom-11 atom-12" d="M 211.6,106.7 L 221.8,95.9" style="fill:none;fill-rule:evenodd;stroke:#000000;stroke-width:2.0px;stroke-linecap:butt;stroke-linejoin:miter;stroke-opacity:1"/>
<path class="bond-11 atom-11 atom-12" d="M 221.8,95.9 L 231.9,85.2" style="fill:none;fill-rule:evenodd;stroke:#FF0000;stroke-width:2.0px;stroke-linecap:butt;stroke-linejoin:miter;stroke-opacity:1"/>
<path class="bond-11 atom-11 atom-12" d="M 207.6,102.9 L 217.8,92.1" style="fill:none;fill-rule:evenodd;stroke:#000000;stroke-width:2.0px;stroke-linecap:butt;stroke-linejoin:miter;stroke-opacity:1"/>
<path class="bond-11 atom-11 atom-12" d="M 217.8,92.1 L 227.9,81.4" style="fill:none;fill-rule:evenodd;stroke:#FF0000;stroke-width:2.0px;stroke-linecap:butt;stroke-linejoin:miter;stroke-opacity:1"/>
<path class="bond-12 atom-11 atom-13" d="M 210.7,103.6 L 215.0,118.0" style="fill:none;fill-rule:evenodd;stroke:#000000;stroke-width:2.0px;stroke-linecap:butt;stroke-linejoin:miter;stroke-opacity:1"/>
<path class="bond-12 atom-11 atom-13" d="M 215.0,118.0 L 219.3,132.3" style="fill:none;fill-rule:evenodd;stroke:#FF0000;stroke-width:2.0px;stroke-linecap:butt;stroke-linejoin:miter;stroke-opacity:1"/>
<path d="M 141.1,87.0 L 139.3,86.6 L 138.0,87.9" style="fill:none;stroke:#000000;stroke-width:2.0px;stroke-linecap:butt;stroke-linejoin:miter;stroke-opacity:1;"/>
<path d="M 115.4,111.9 L 114.1,113.2 L 112.3,112.8" style="fill:none;stroke:#000000;stroke-width:2.0px;stroke-linecap:butt;stroke-linejoin:miter;stroke-opacity:1;"/>
<path d="M 44.5,96.7 L 42.7,96.2 L 42.5,95.5" style="fill:none;stroke:#000000;stroke-width:2.0px;stroke-linecap:butt;stroke-linejoin:miter;stroke-opacity:1;"/>
<path d="M 208.9,103.2 L 210.7,103.6 L 210.9,104.3" style="fill:none;stroke:#000000;stroke-width:2.0px;stroke-linecap:butt;stroke-linejoin:miter;stroke-opacity:1;"/>
<path class="atom-9" d="M 12.7 122.9 Q 12.7 120.4, 13.9 119.0 Q 15.2 117.6, 17.5 117.6 Q 19.8 117.6, 21.0 119.0 Q 22.2 120.4, 22.2 122.9 Q 22.2 125.4, 21.0 126.9 Q 19.7 128.3, 17.5 128.3 Q 15.2 128.3, 13.9 126.9 Q 12.7 125.5, 12.7 122.9 M 17.5 127.1 Q 19.1 127.1, 19.9 126.1 Q 20.8 125.0, 20.8 122.9 Q 20.8 120.9, 19.9 119.8 Q 19.1 118.8, 17.5 118.8 Q 15.9 118.8, 15.0 119.8 Q 14.2 120.9, 14.2 122.9 Q 14.2 125.0, 15.0 126.1 Q 15.9 127.1, 17.5 127.1 " fill="#FF0000"/>
<path class="atom-10" d="M 27.4 61.1 Q 27.4 58.6, 28.7 57.2 Q 29.9 55.8, 32.2 55.8 Q 34.5 55.8, 35.8 57.2 Q 37.0 58.6, 37.0 61.1 Q 37.0 63.6, 35.7 65.0 Q 34.5 66.5, 32.2 66.5 Q 29.9 66.5, 28.7 65.0 Q 27.4 63.6, 27.4 61.1 M 32.2 65.3 Q 33.8 65.3, 34.7 64.2 Q 35.5 63.2, 35.5 61.1 Q 35.5 59.0, 34.7 58.0 Q 33.8 57.0, 32.2 57.0 Q 30.6 57.0, 29.8 58.0 Q 28.9 59.0, 28.9 61.1 Q 28.9 63.2, 29.8 64.2 Q 30.6 65.3, 32.2 65.3 " fill="#FF0000"/>
<path class="atom-10" d="M 38.6 55.9 L 40.0 55.9 L 40.0 60.3 L 45.3 60.3 L 45.3 55.9 L 46.7 55.9 L 46.7 66.3 L 45.3 66.3 L 45.3 61.5 L 40.0 61.5 L 40.0 66.3 L 38.6 66.3 L 38.6 55.9 " fill="#FF0000"/>
<path class="atom-12" d="M 231.2 77.0 Q 231.2 74.5, 232.4 73.1 Q 233.6 71.7, 235.9 71.7 Q 238.2 71.7, 239.5 73.1 Q 240.7 74.5, 240.7 77.0 Q 240.7 79.5, 239.5 80.9 Q 238.2 82.4, 235.9 82.4 Q 233.6 82.4, 232.4 80.9 Q 231.2 79.5, 231.2 77.0 M 235.9 81.2 Q 237.5 81.2, 238.4 80.1 Q 239.2 79.1, 239.2 77.0 Q 239.2 74.9, 238.4 73.9 Q 237.5 72.9, 235.9 72.9 Q 234.3 72.9, 233.5 73.9 Q 232.6 74.9, 232.6 77.0 Q 232.6 79.1, 233.5 80.1 Q 234.3 81.2, 235.9 81.2 " fill="#FF0000"/>
<path class="atom-13" d="M 216.4 138.8 Q 216.4 136.3, 217.6 134.9 Q 218.9 133.5, 221.2 133.5 Q 223.5 133.5, 224.7 134.9 Q 226.0 136.3, 226.0 138.8 Q 226.0 141.3, 224.7 142.8 Q 223.5 144.2, 221.2 144.2 Q 218.9 144.2, 217.6 142.8 Q 216.4 141.4, 216.4 138.8 M 221.2 143.0 Q 222.8 143.0, 223.6 142.0 Q 224.5 140.9, 224.5 138.8 Q 224.5 136.8, 223.6 135.7 Q 222.8 134.7, 221.2 134.7 Q 219.6 134.7, 218.7 135.7 Q 217.9 136.8, 217.9 138.8 Q 217.9 140.9, 218.7 142.0 Q 219.6 143.0, 221.2 143.0 " fill="#FF0000"/>
<path class="atom-13" d="M 227.6 133.6 L 229.0 133.6 L 229.0 138.1 L 234.3 138.1 L 234.3 133.6 L 235.7 133.6 L 235.7 144.0 L 234.3 144.0 L 234.3 139.2 L 229.0 139.2 L 229.0 144.0 L 227.6 144.0 L 227.6 133.6 " fill="#FF0000"/>
</g>
    <g transform="translate(254.00000000000003, 0) scale(1 1) "><line x1="5" y1="100" x2="35" y2="100" style="stroke:rgb(0,0,0);stroke-width:2"/>
  <line x1="34" y1="100" x2="29" y2="95" style="stroke:rgb(0,0,0);stroke-width:2"/>
  <line x1="34" y1="100" x2="29" y2="105" style="stroke:rgb(0,0,0);stroke-width:2"/>
</g>
    <g transform="translate(294.0, 0) scale(1 1) "><!-- END OF HEADER -->
<rect style="opacity:1.0;fill:#FFFFFF;stroke:none" width="233.0" height="200.0" x="0.0" y="0.0"> </rect>
<path class="bond-0 atom-0 atom-1" d="M 11.7,73.0 L 40.5,101.5" style="fill:none;fill-rule:evenodd;stroke:#000000;stroke-width:2.0px;stroke-linecap:butt;stroke-linejoin:miter;stroke-opacity:1"/>
<path class="bond-1 atom-1 atom-2" d="M 40.5,101.5 L 30.3,140.7" style="fill:none;fill-rule:evenodd;stroke:#000000;stroke-width:2.0px;stroke-linecap:butt;stroke-linejoin:miter;stroke-opacity:1"/>
<path class="bond-2 atom-1 atom-3" d="M 40.5,101.5 L 79.6,90.7" style="fill:none;fill-rule:evenodd;stroke:#000000;stroke-width:2.0px;stroke-linecap:butt;stroke-linejoin:miter;stroke-opacity:1"/>
<path class="bond-3 atom-3 atom-4" d="M 79.6,90.7 L 108.4,119.1" style="fill:none;fill-rule:evenodd;stroke:#000000;stroke-width:2.0px;stroke-linecap:butt;stroke-linejoin:miter;stroke-opacity:1"/>
<path class="bond-4 atom-4 atom-5" d="M 108.4,119.1 L 147.5,108.4" style="fill:none;fill-rule:evenodd;stroke:#000000;stroke-width:2.0px;stroke-linecap:butt;stroke-linejoin:miter;stroke-opacity:1"/>
<path class="bond-5 atom-5 atom-6" d="M 147.5,108.4 L 136.7,69.3" style="fill:none;fill-rule:evenodd;stroke:#000000;stroke-width:2.0px;stroke-linecap:butt;stroke-linejoin:miter;stroke-opacity:1"/>
<path class="bond-6 atom-5 atom-7" d="M 147.5,108.4 L 158.2,147.4" style="fill:none;fill-rule:evenodd;stroke:#000000;stroke-width:2.0px;stroke-linecap:butt;stroke-linejoin:miter;stroke-opacity:1"/>
<path class="bond-7 atom-5 atom-8" d="M 147.5,108.4 L 186.5,97.6" style="fill:none;fill-rule:evenodd;stroke:#000000;stroke-width:2.0px;stroke-linecap:butt;stroke-linejoin:miter;stroke-opacity:1"/>
<path class="bond-8 atom-8 atom-9" d="M 183.1,98.5 L 194.9,110.1" style="fill:none;fill-rule:evenodd;stroke:#000000;stroke-width:2.0px;stroke-linecap:butt;stroke-linejoin:miter;stroke-opacity:1"/>
<path class="bond-8 atom-8 atom-9" d="M 194.9,110.1 L 206.6,121.7" style="fill:none;fill-rule:evenodd;stroke:#FF0000;stroke-width:2.0px;stroke-linecap:butt;stroke-linejoin:miter;stroke-opacity:1"/>
<path class="bond-8 atom-8 atom-9" d="M 187.4,94.2 L 199.2,105.8" style="fill:none;fill-rule:evenodd;stroke:#000000;stroke-width:2.0px;stroke-linecap:butt;stroke-linejoin:miter;stroke-opacity:1"/>
<path class="bond-8 atom-8 atom-9" d="M 199.2,105.8 L 210.9,117.4" style="fill:none;fill-rule:evenodd;stroke:#FF0000;stroke-width:2.0px;stroke-linecap:butt;stroke-linejoin:miter;stroke-opacity:1"/>
<path class="bond-9 atom-8 atom-10" d="M 186.5,97.6 L 190.7,81.6" style="fill:none;fill-rule:evenodd;stroke:#000000;stroke-width:2.0px;stroke-linecap:butt;stroke-linejoin:miter;stroke-opacity:1"/>
<path class="bond-9 atom-8 atom-10" d="M 190.7,81.6 L 194.8,65.7" style="fill:none;fill-rule:evenodd;stroke:#FF0000;stroke-width:2.0px;stroke-linecap:butt;stroke-linejoin:miter;stroke-opacity:1"/>
<path d="M 77.6,91.2 L 79.6,90.7 L 81.0,92.1" style="fill:none;stroke:#000000;stroke-width:2.0px;stroke-linecap:butt;stroke-linejoin:miter;stroke-opacity:1;"/>
<path d="M 107.0,117.7 L 108.4,119.1 L 110.4,118.6" style="fill:none;stroke:#000000;stroke-width:2.0px;stroke-linecap:butt;stroke-linejoin:miter;stroke-opacity:1;"/>
<path d="M 184.6,98.1 L 186.5,97.6 L 186.7,96.8" style="fill:none;stroke:#000000;stroke-width:2.0px;stroke-linecap:butt;stroke-linejoin:miter;stroke-opacity:1;"/>
<path class="atom-9" d="M 210.1 126.1 Q 210.1 123.3, 211.5 121.8 Q 212.8 120.2, 215.4 120.2 Q 217.9 120.2, 219.3 121.8 Q 220.7 123.3, 220.7 126.1 Q 220.7 128.9, 219.3 130.4 Q 217.9 132.0, 215.4 132.0 Q 212.9 132.0, 211.5 130.4 Q 210.1 128.9, 210.1 126.1 M 215.4 130.7 Q 217.1 130.7, 218.1 129.5 Q 219.0 128.4, 219.0 126.1 Q 219.0 123.8, 218.1 122.7 Q 217.1 121.5, 215.4 121.5 Q 213.6 121.5, 212.7 122.7 Q 211.7 123.8, 211.7 126.1 Q 211.7 128.4, 212.7 129.5 Q 213.6 130.7, 215.4 130.7 " fill="#FF0000"/>
<path class="atom-10" d="M 191.5 58.4 Q 191.5 55.7, 192.8 54.1 Q 194.2 52.6, 196.7 52.6 Q 199.3 52.6, 200.6 54.1 Q 202.0 55.7, 202.0 58.4 Q 202.0 61.2, 200.6 62.8 Q 199.2 64.4, 196.7 64.4 Q 194.2 64.4, 192.8 62.8 Q 191.5 61.2, 191.5 58.4 M 196.7 63.1 Q 198.5 63.1, 199.4 61.9 Q 200.4 60.7, 200.4 58.4 Q 200.4 56.2, 199.4 55.0 Q 198.5 53.9, 196.7 53.9 Q 195.0 53.9, 194.0 55.0 Q 193.1 56.1, 193.1 58.4 Q 193.1 60.7, 194.0 61.9 Q 195.0 63.1, 196.7 63.1 " fill="#FF0000"/>
<path class="atom-10" d="M 203.8 52.7 L 205.3 52.7 L 205.3 57.6 L 211.2 57.6 L 211.2 52.7 L 212.8 52.7 L 212.8 64.2 L 211.2 64.2 L 211.2 58.9 L 205.3 58.9 L 205.3 64.2 L 203.8 64.2 L 203.8 52.7 " fill="#FF0000"/>
</g>
    <g transform="translate(527.0, 0) scale(1 1) "><line x1="15" y1="100" x2="25" y2="100" style="stroke:rgb(0,0,0);stroke-width:2"/>
  <line x1="20" y1="95" x2="20" y2="105" style="stroke:rgb(0,0,0);stroke-width:2"/>
</g>
    <g transform="translate(567.0, 0) scale(1 1) "><!-- END OF HEADER -->
<rect style="opacity:1.0;fill:#FFFFFF;stroke:none" width="120.0" height="200.0" x="0.0" y="0.0"> </rect>
<path class="bond-0 atom-0 atom-1" d="M 100.0,103.5 L 83.4,103.5" style="fill:none;fill-rule:evenodd;stroke:#FF0000;stroke-width:2.0px;stroke-linecap:butt;stroke-linejoin:miter;stroke-opacity:1"/>
<path class="bond-0 atom-0 atom-1" d="M 83.4,103.5 L 66.8,103.5" style="fill:none;fill-rule:evenodd;stroke:#000000;stroke-width:2.0px;stroke-linecap:butt;stroke-linejoin:miter;stroke-opacity:1"/>
<path class="bond-0 atom-0 atom-1" d="M 100.0,96.3 L 83.4,96.3" style="fill:none;fill-rule:evenodd;stroke:#FF0000;stroke-width:2.0px;stroke-linecap:butt;stroke-linejoin:miter;stroke-opacity:1"/>
<path class="bond-0 atom-0 atom-1" d="M 83.4,96.3 L 66.8,96.3" style="fill:none;fill-rule:evenodd;stroke:#000000;stroke-width:2.0px;stroke-linecap:butt;stroke-linejoin:miter;stroke-opacity:1"/>
<path class="bond-1 atom-1 atom-2" d="M 53.2,103.5 L 36.6,103.5" style="fill:none;fill-rule:evenodd;stroke:#000000;stroke-width:2.0px;stroke-linecap:butt;stroke-linejoin:miter;stroke-opacity:1"/>
<path class="bond-1 atom-1 atom-2" d="M 36.6,103.5 L 20.0,103.5" style="fill:none;fill-rule:evenodd;stroke:#FF0000;stroke-width:2.0px;stroke-linecap:butt;stroke-linejoin:miter;stroke-opacity:1"/>
<path class="bond-1 atom-1 atom-2" d="M 53.2,96.3 L 36.6,96.3" style="fill:none;fill-rule:evenodd;stroke:#000000;stroke-width:2.0px;stroke-linecap:butt;stroke-linejoin:miter;stroke-opacity:1"/>
<path class="bond-1 atom-1 atom-2" d="M 36.6,96.3 L 20.0,96.3" style="fill:none;fill-rule:evenodd;stroke:#FF0000;stroke-width:2.0px;stroke-linecap:butt;stroke-linejoin:miter;stroke-opacity:1"/>
<path class="atom-0" d="M 101.6 99.9 Q 101.6 96.7, 103.2 94.9 Q 104.8 93.1, 107.8 93.1 Q 110.8 93.1, 112.4 94.9 Q 114.0 96.7, 114.0 99.9 Q 114.0 103.2, 112.4 105.1 Q 110.8 106.9, 107.8 106.9 Q 104.8 106.9, 103.2 105.1 Q 101.6 103.2, 101.6 99.9 M 107.8 105.4 Q 109.9 105.4, 111.0 104.0 Q 112.1 102.6, 112.1 99.9 Q 112.1 97.3, 111.0 95.9 Q 109.9 94.6, 107.8 94.6 Q 105.7 94.6, 104.6 95.9 Q 103.5 97.3, 103.5 99.9 Q 103.5 102.7, 104.6 104.0 Q 105.7 105.4, 107.8 105.4 " fill="#FF0000"/>
<path class="atom-1" d="M 54.8 100.0 Q 54.8 96.6, 56.3 94.8 Q 57.9 93.1, 60.9 93.1 Q 63.7 93.1, 65.2 95.0 L 64.0 96.1 Q 62.9 94.6, 60.9 94.6 Q 58.9 94.6, 57.8 96.0 Q 56.7 97.4, 56.7 100.0 Q 56.7 102.6, 57.8 104.0 Q 59.0 105.4, 61.1 105.4 Q 62.6 105.4, 64.4 104.5 L 64.9 105.9 Q 64.2 106.4, 63.1 106.6 Q 62.1 106.9, 60.9 106.9 Q 57.9 106.9, 56.3 105.1 Q 54.8 103.3, 54.8 100.0 " fill="#000000"/>
<path class="atom-2" d="M 6.0 99.9 Q 6.0 96.7, 7.6 94.9 Q 9.2 93.1, 12.2 93.1 Q 15.2 93.1, 16.8 94.9 Q 18.4 96.7, 18.4 99.9 Q 18.4 103.2, 16.8 105.1 Q 15.2 106.9, 12.2 106.9 Q 9.2 106.9, 7.6 105.1 Q 6.0 103.2, 6.0 99.9 M 12.2 105.4 Q 14.3 105.4, 15.4 104.0 Q 16.5 102.6, 16.5 99.9 Q 16.5 97.3, 15.4 95.9 Q 14.3 94.6, 12.2 94.6 Q 10.1 94.6, 9.0 95.9 Q 7.9 97.3, 7.9 99.9 Q 7.9 102.7, 9.0 104.0 Q 10.1 105.4, 12.2 105.4 " fill="#FF0000"/>
</g>
  </g>
</svg>
