<?xml version='1.0' encoding='ASCII' standalone='yes'?>
<svg xmlns="http://www.w3.org/2000/svg" xmlns:xlink="http://www.w3.org/1999/xlink" version="1.1" width="844.0px" viewBox="0 0 844.0 200.0" height="200.0px">
  <g>
    <g transform="translate(0, 0) scale(1 1) "><!-- END OF HEADER -->
<rect style="opacity:1.0;fill:#FFFFFF;stroke:none" width="260.0" height="200.0" x="0.0" y="0.0"> </rect>
<path class="bond-0 atom-0 atom-1" d="M 110.7,10.0 L 126.5,52.6" style="fill:none;fill-rule:evenodd;stroke:#000000;stroke-width:2.0px;stroke-linecap:butt;stroke-linejoin:miter;stroke-opacity:1"/>
<path class="bond-1 atom-1 atom-2" d="M 126.5,52.6 L 134.9,52.0" style="fill:none;fill-rule:evenodd;stroke:#000000;stroke-width:2.0px;stroke-linecap:butt;stroke-linejoin:miter;stroke-opacity:1"/>
<path class="bond-1 atom-1 atom-2" d="M 134.9,52.0 L 143.2,51.3" style="fill:none;fill-rule:evenodd;stroke:#FF0000;stroke-width:2.0px;stroke-linecap:butt;stroke-linejoin:miter;stroke-opacity:1"/>
<path class="bond-2 atom-1 atom-3" d="M 126.5,52.6 L 97.5,87.6" style="fill:none;fill-rule:evenodd;stroke:#000000;stroke-width:2.0px;stroke-linecap:butt;stroke-linejoin:miter;stroke-opacity:1"/>
<path class="bond-3 atom-3 atom-4" d="M 97.5,87.6 L 62.5,58.6" style="fill:none;fill-rule:evenodd;stroke:#000000;stroke-width:2.0px;stroke-linecap:butt;stroke-linejoin:miter;stroke-opacity:1"/>
<path class="bond-4 atom-3 atom-5" d="M 97.5,87.6 L 132.5,116.6" style="fill:none;fill-rule:evenodd;stroke:#000000;stroke-width:2.0px;stroke-linecap:butt;stroke-linejoin:miter;stroke-opacity:1"/>
<path class="bond-5 atom-5 atom-6" d="M 132.5,116.6 L 175.1,100.8" style="fill:none;fill-rule:evenodd;stroke:#000000;stroke-width:2.0px;stroke-linecap:butt;stroke-linejoin:miter;stroke-opacity:1"/>
<path class="bond-6 atom-6 atom-7" d="M 175.1,100.8 L 217.8,85.0" style="fill:none;fill-rule:evenodd;stroke:#000000;stroke-width:2.0px;stroke-linecap:butt;stroke-linejoin:miter;stroke-opacity:1"/>
<path class="bond-7 atom-6 atom-8" d="M 175.1,100.8 L 159.3,58.2" style="fill:none;fill-rule:evenodd;stroke:#000000;stroke-width:2.0px;stroke-linecap:butt;stroke-linejoin:miter;stroke-opacity:1"/>
<path class="bond-8 atom-8 atom-9" d="M 159.3,58.2 L 170.4,44.8" style="fill:none;fill-rule:evenodd;stroke:#000000;stroke-width:2.0px;stroke-linecap:butt;stroke-linejoin:miter;stroke-opacity:1"/>
<path class="bond-8 atom-8 atom-9" d="M 170.4,44.8 L 181.6,31.3" style="fill:none;fill-rule:evenodd;stroke:#FF0000;stroke-width:2.0px;stroke-linecap:butt;stroke-linejoin:miter;stroke-opacity:1"/>
<path class="bond-8 atom-8 atom-9" d="M 166.8,59.5 L 175.5,49.0" style="fill:none;fill-rule:evenodd;stroke:#000000;stroke-width:2.0px;stroke-linecap:butt;stroke-linejoin:miter;stroke-opacity:1"/>
<path class="bond-8 atom-8 atom-9" d="M 175.5,49.0 L 186.6,35.5" style="fill:none;fill-rule:evenodd;stroke:#FF0000;stroke-width:2.0px;stroke-linecap:butt;stroke-linejoin:miter;stroke-opacity:1"/>
<path class="bond-9 atom-6 atom-10" d="M 175.1,100.8 L 191.0,143.4" style="fill:none;fill-rule:evenodd;stroke:#000000;stroke-width:2.0px;stroke-linecap:butt;stroke-linejoin:miter;stroke-opacity:1"/>
<path class="bond-10 atom-10 atom-11" d="M 191.0,143.4 L 209.7,146.6" style="fill:none;fill-rule:evenodd;stroke:#000000;stroke-width:2.0px;stroke-linecap:butt;stroke-linejoin:miter;stroke-opacity:1"/>
<path class="bond-10 atom-10 atom-11" d="M 209.7,146.6 L 228.4,149.8" style="fill:none;fill-rule:evenodd;stroke:#FF0000;stroke-width:2.0px;stroke-linecap:butt;stroke-linejoin:miter;stroke-opacity:1"/>
<path class="bond-10 atom-10 atom-11" d="M 195.8,137.6 L 210.8,140.1" style="fill:none;fill-rule:evenodd;stroke:#000000;stroke-width:2.0px;stroke-linecap:butt;stroke-linejoin:miter;stroke-opacity:1"/>
<path class="bond-10 atom-10 atom-11" d="M 210.8,140.1 L 229.5,143.3" style="fill:none;fill-rule:evenodd;stroke:#FF0000;stroke-width:2.0px;stroke-linecap:butt;stroke-linejoin:miter;stroke-opacity:1"/>
<path class="bond-11 atom-3 atom-12" d="M 97.5,87.6 L 68.5,122.7" style="fill:none;fill-rule:evenodd;stroke:#000000;stroke-width:2.0px;stroke-linecap:butt;stroke-linejoin:miter;stroke-opacity:1"/>
<path class="bond-12 atom-12 atom-13" d="M 70.9,119.7 L 51.2,116.4" style="fill:none;fill-rule:evenodd;stroke:#000000;stroke-width:2.0px;stroke-linecap:butt;stroke-linejoin:miter;stroke-opacity:1"/>
<path class="bond-12 atom-12 atom-13" d="M 51.2,116.4 L 31.6,113.1" style="fill:none;fill-rule:evenodd;stroke:#FF0000;stroke-width:2.0px;stroke-linecap:butt;stroke-linejoin:miter;stroke-opacity:1"/>
<path class="bond-12 atom-12 atom-13" d="M 69.8,126.2 L 50.1,122.9" style="fill:none;fill-rule:evenodd;stroke:#000000;stroke-width:2.0px;stroke-linecap:butt;stroke-linejoin:miter;stroke-opacity:1"/>
<path class="bond-12 atom-12 atom-13" d="M 50.1,122.9 L 30.5,119.6" style="fill:none;fill-rule:evenodd;stroke:#FF0000;stroke-width:2.0px;stroke-linecap:butt;stroke-linejoin:miter;stroke-opacity:1"/>
<path class="bond-13 atom-12 atom-14" d="M 68.5,122.7 L 74.9,140.0" style="fill:none;fill-rule:evenodd;stroke:#000000;stroke-width:2.0px;stroke-linecap:butt;stroke-linejoin:miter;stroke-opacity:1"/>
<path class="bond-13 atom-12 atom-14" d="M 74.9,140.0 L 81.4,157.3" style="fill:none;fill-rule:evenodd;stroke:#FF0000;stroke-width:2.0px;stroke-linecap:butt;stroke-linejoin:miter;stroke-opacity:1"/>
<path d="M 130.8,115.2 L 132.5,116.6 L 134.6,115.9" style="fill:none;stroke:#000000;stroke-width:2.0px;stroke-linecap:butt;stroke-linejoin:miter;stroke-opacity:1;"/>
<path d="M 160.1,60.3 L 159.3,58.2 L 159.9,57.5" style="fill:none;stroke:#000000;stroke-width:2.0px;stroke-linecap:butt;stroke-linejoin:miter;stroke-opacity:1;"/>
<path d="M 190.2,141.3 L 191.0,143.4 L 191.9,143.6" style="fill:none;stroke:#000000;stroke-width:2.0px;stroke-linecap:butt;stroke-linejoin:miter;stroke-opacity:1;"/>
<path d="M 69.9,120.9 L 68.5,122.7 L 68.8,123.5" style="fill:none;stroke:#000000;stroke-width:2.0px;stroke-linecap:butt;stroke-linejoin:miter;stroke-opacity:1;"/>
<path class="atom-2" d="M 144.7 50.8 Q 144.7 47.7, 146.2 46.0 Q 147.7 44.3, 150.6 44.3 Q 153.4 44.3, 155.0 46.0 Q 156.5 47.7, 156.5 50.8 Q 156.5 53.9, 155.0 55.7 Q 153.4 57.5, 150.6 57.5 Q 147.7 57.5, 146.2 55.7 Q 144.7 54.0, 144.7 50.8 M 150.6 56.0 Q 152.6 56.0, 153.6 54.7 Q 154.7 53.4, 154.7 50.8 Q 154.7 48.3, 153.6 47.0 Q 152.6 45.7, 150.6 45.7 Q 148.6 45.7, 147.5 47.0 Q 146.5 48.3, 146.5 50.8 Q 146.5 53.4, 147.5 54.7 Q 148.6 56.0, 150.6 56.0 " fill="#FF0000"/>
<path class="atom-2" d="M 158.5 44.4 L 160.2 44.4 L 160.2 49.9 L 166.8 49.9 L 166.8 44.4 L 168.6 44.4 L 168.6 57.3 L 166.8 57.3 L 166.8 51.3 L 160.2 51.3 L 160.2 57.3 L 158.5 57.3 L 158.5 44.4 " fill="#FF0000"/>
<path class="atom-9" d="M 184.9 25.3 Q 184.9 22.2, 186.5 20.5 Q 188.0 18.8, 190.9 18.8 Q 193.7 18.8, 195.2 20.5 Q 196.8 22.2, 196.8 25.3 Q 196.8 28.4, 195.2 30.2 Q 193.7 32.0, 190.9 32.0 Q 188.0 32.0, 186.5 30.2 Q 184.9 28.5, 184.9 25.3 M 190.9 30.5 Q 192.8 30.5, 193.9 29.2 Q 194.9 27.9, 194.9 25.3 Q 194.9 22.8, 193.9 21.5 Q 192.8 20.2, 190.9 20.2 Q 188.9 20.2, 187.8 21.5 Q 186.8 22.8, 186.8 25.3 Q 186.8 27.9, 187.8 29.2 Q 188.9 30.5, 190.9 30.5 " fill="#FF0000"/>
<path class="atom-11" d="M 230.4 147.8 Q 230.4 144.8, 232.0 143.0 Q 233.5 141.3, 236.3 141.3 Q 239.2 141.3, 240.7 143.0 Q 242.3 144.8, 242.3 147.8 Q 242.3 151.0, 240.7 152.8 Q 239.2 154.5, 236.3 154.5 Q 233.5 154.5, 232.0 152.8 Q 230.4 151.0, 230.4 147.8 M 236.3 153.1 Q 238.3 153.1, 239.4 151.8 Q 240.4 150.4, 240.4 147.8 Q 240.4 145.3, 239.4 144.0 Q 238.3 142.8, 236.3 142.8 Q 234.4 142.8, 233.3 144.0 Q 232.2 145.3, 232.2 147.8 Q 232.2 150.4, 233.3 151.8 Q 234.4 153.1, 236.3 153.1 " fill="#FF0000"/>
<path class="atom-13" d="M 17.7 115.1 Q 17.7 112.0, 19.3 110.3 Q 20.8 108.5, 23.7 108.5 Q 26.5 108.5, 28.0 110.3 Q 29.6 112.0, 29.6 115.1 Q 29.6 118.2, 28.0 120.0 Q 26.5 121.8, 23.7 121.8 Q 20.8 121.8, 19.3 120.0 Q 17.7 118.2, 17.7 115.1 M 23.7 120.3 Q 25.6 120.3, 26.7 119.0 Q 27.8 117.7, 27.8 115.1 Q 27.8 112.6, 26.7 111.3 Q 25.6 110.0, 23.7 110.0 Q 21.7 110.0, 20.6 111.3 Q 19.6 112.5, 19.6 115.1 Q 19.6 117.7, 20.6 119.0 Q 21.7 120.3, 23.7 120.3 " fill="#FF0000"/>
<path class="atom-14" d="M 78.4 165.3 Q 78.4 162.2, 79.9 160.5 Q 81.5 158.8, 84.3 158.8 Q 87.2 158.8, 88.7 160.5 Q 90.2 162.2, 90.2 165.3 Q 90.2 168.5, 88.7 170.2 Q 87.1 172.0, 84.3 172.0 Q 81.5 172.0, 79.9 170.2 Q 78.4 168.5, 78.4 165.3 M 84.3 170.5 Q 86.3 170.5, 87.3 169.2 Q 88.4 167.9, 88.4 165.3 Q 88.4 162.8, 87.3 161.5 Q 86.3 160.2, 84.3 160.2 Q 82.3 160.2, 81.3 161.5 Q 80.2 162.8, 80.2 165.3 Q 80.2 167.9, 81.3 169.2 Q 82.3 170.5, 84.3 170.5 " fill="#FF0000"/>
<path class="atom-14" d="M 92.2 158.9 L 94.0 158.9 L 94.0 164.4 L 100.6 164.4 L 100.6 158.9 L 102.3 158.9 L 102.3 171.8 L 100.6 171.8 L 100.6 165.9 L 94.0 165.9 L 94.0 171.8 L 92.2 171.8 L 92.2 158.9 " fill="#FF0000"/>
<path class="legend" d="M 121.5 181.9 Q 121.5 179.6, 122.2 177.7 Q 122.8 175.8, 124.1 173.8 L 125.0 174.4 Q 124.0 176.3, 123.4 178.0 Q 122.9 179.7, 122.9 181.9 Q 122.9 184.0, 123.4 185.8 Q 124.0 187.5, 125.0 189.4 L 124.1 190.0 Q 122.8 188.0, 122.2 186.1 Q 121.5 184.2, 121.5 181.9 " fill="#000000"/>
<path class="legend" d="M 125.9 177.3 Q 126.4 176.2, 127.3 175.6 Q 128.3 175.0, 129.7 175.0 Q 131.4 175.0, 132.4 175.9 Q 133.3 176.8, 133.3 178.5 Q 133.3 180.2, 132.1 181.7 Q 130.9 183.3, 128.3 185.2 L 133.5 185.2 L 133.5 186.4 L 125.9 186.4 L 125.9 185.4 Q 128.0 183.9, 129.3 182.8 Q 130.5 181.6, 131.1 180.6 Q 131.7 179.6, 131.7 178.6 Q 131.7 177.5, 131.2 176.9 Q 130.7 176.3, 129.7 176.3 Q 128.8 176.3, 128.2 176.6 Q 127.6 177.0, 127.2 177.8 L 125.9 177.3 " fill="#000000"/>
<path class="legend" d="M 138.5 181.9 Q 138.5 184.2, 137.8 186.1 Q 137.2 188.0, 135.9 190.0 L 135.0 189.4 Q 136.0 187.5, 136.5 185.8 Q 137.1 184.0, 137.1 181.9 Q 137.1 179.7, 136.5 178.0 Q 136.0 176.3, 135.0 174.4 L 135.9 173.8 Q 137.2 175.8, 137.8 177.7 Q 138.5 179.6, 138.5 181.9 " fill="#000000"/>
</g>
    <g transform="translate(260.0, 0) scale(1 1) "><line x1="5" y1="100" x2="35" y2="100" style="stroke:rgb(0,0,0);stroke-width:2"/>
  <line x1="34" y1="100" x2="29" y2="95" style="stroke:rgb(0,0,0);stroke-width:2"/>
  <line x1="34" y1="100" x2="29" y2="105" style="stroke:rgb(0,0,0);stroke-width:2"/>
</g>
    <g transform="translate(300.0, 0) scale(1 1) "><!-- END OF HEADER -->
<rect style="opacity:1.0;fill:#FFFFFF;stroke:none" width="289.0" height="200.0" x="0.0" y="0.0"> </rect>
<path class="bond-0 atom-0 atom-1" d="M 14.5,73.9 L 52.0,95.6" style="fill:none;fill-rule:evenodd;stroke:#000000;stroke-width:2.0px;stroke-linecap:butt;stroke-linejoin:miter;stroke-opacity:1"/>
<path class="bond-1 atom-1 atom-2" d="M 52.0,95.6 L 73.7,58.1" style="fill:none;fill-rule:evenodd;stroke:#000000;stroke-width:2.0px;stroke-linecap:butt;stroke-linejoin:miter;stroke-opacity:1"/>
<path class="bond-2 atom-2 atom-3" d="M 73.7,58.1 L 65.1,43.2" style="fill:none;fill-rule:evenodd;stroke:#000000;stroke-width:2.0px;stroke-linecap:butt;stroke-linejoin:miter;stroke-opacity:1"/>
<path class="bond-2 atom-2 atom-3" d="M 65.1,43.2 L 56.5,28.3" style="fill:none;fill-rule:evenodd;stroke:#FF0000;stroke-width:2.0px;stroke-linecap:butt;stroke-linejoin:miter;stroke-opacity:1"/>
<path class="bond-2 atom-2 atom-3" d="M 66.3,58.1 L 59.6,46.4" style="fill:none;fill-rule:evenodd;stroke:#000000;stroke-width:2.0px;stroke-linecap:butt;stroke-linejoin:miter;stroke-opacity:1"/>
<path class="bond-2 atom-2 atom-3" d="M 59.6,46.4 L 51.0,31.5" style="fill:none;fill-rule:evenodd;stroke:#FF0000;stroke-width:2.0px;stroke-linecap:butt;stroke-linejoin:miter;stroke-opacity:1"/>
<path class="bond-3 atom-1 atom-4" d="M 52.0,95.6 L 30.3,133.2" style="fill:none;fill-rule:evenodd;stroke:#000000;stroke-width:2.0px;stroke-linecap:butt;stroke-linejoin:miter;stroke-opacity:1"/>
<path class="bond-4 atom-4 atom-5" d="M 30.3,133.2 L 39.0,148.1" style="fill:none;fill-rule:evenodd;stroke:#000000;stroke-width:2.0px;stroke-linecap:butt;stroke-linejoin:miter;stroke-opacity:1"/>
<path class="bond-4 atom-4 atom-5" d="M 39.0,148.1 L 47.6,163.1" style="fill:none;fill-rule:evenodd;stroke:#FF0000;stroke-width:2.0px;stroke-linecap:butt;stroke-linejoin:miter;stroke-opacity:1"/>
<path class="bond-4 atom-4 atom-5" d="M 37.7,133.2 L 44.5,145.0" style="fill:none;fill-rule:evenodd;stroke:#000000;stroke-width:2.0px;stroke-linecap:butt;stroke-linejoin:miter;stroke-opacity:1"/>
<path class="bond-4 atom-4 atom-5" d="M 44.5,145.0 L 53.1,159.9" style="fill:none;fill-rule:evenodd;stroke:#FF0000;stroke-width:2.0px;stroke-linecap:butt;stroke-linejoin:miter;stroke-opacity:1"/>
<path class="bond-5 atom-1 atom-6" d="M 52.0,95.6 L 89.5,117.3" style="fill:none;fill-rule:evenodd;stroke:#000000;stroke-width:2.0px;stroke-linecap:butt;stroke-linejoin:miter;stroke-opacity:1"/>
<path class="bond-6 atom-6 atom-7" d="M 89.5,117.3 L 127.1,95.6" style="fill:none;fill-rule:evenodd;stroke:#000000;stroke-width:2.0px;stroke-linecap:butt;stroke-linejoin:miter;stroke-opacity:1"/>
<path class="bond-7 atom-7 atom-8" d="M 127.1,95.6 L 127.1,77.8" style="fill:none;fill-rule:evenodd;stroke:#000000;stroke-width:2.0px;stroke-linecap:butt;stroke-linejoin:miter;stroke-opacity:1"/>
<path class="bond-7 atom-7 atom-8" d="M 127.1,77.8 L 127.1,60.1" style="fill:none;fill-rule:evenodd;stroke:#FF0000;stroke-width:2.0px;stroke-linecap:butt;stroke-linejoin:miter;stroke-opacity:1"/>
<path class="bond-8 atom-7 atom-9" d="M 127.1,95.6 L 164.6,117.3" style="fill:none;fill-rule:evenodd;stroke:#000000;stroke-width:2.0px;stroke-linecap:butt;stroke-linejoin:miter;stroke-opacity:1"/>
<path class="bond-9 atom-9 atom-10" d="M 164.6,117.3 L 143.0,154.9" style="fill:none;fill-rule:evenodd;stroke:#000000;stroke-width:2.0px;stroke-linecap:butt;stroke-linejoin:miter;stroke-opacity:1"/>
<path class="bond-10 atom-9 atom-11" d="M 164.6,117.3 L 186.3,79.8" style="fill:none;fill-rule:evenodd;stroke:#000000;stroke-width:2.0px;stroke-linecap:butt;stroke-linejoin:miter;stroke-opacity:1"/>
<path class="bond-11 atom-11 atom-12" d="M 186.3,79.8 L 229.7,79.8" style="fill:none;fill-rule:evenodd;stroke:#000000;stroke-width:2.0px;stroke-linecap:butt;stroke-linejoin:miter;stroke-opacity:1"/>
<path class="bond-12 atom-12 atom-13" d="M 229.7,79.8 L 273.0,79.8" style="fill:none;fill-rule:evenodd;stroke:#000000;stroke-width:2.0px;stroke-linecap:butt;stroke-linejoin:miter;stroke-opacity:1"/>
<path class="bond-13 atom-12 atom-14" d="M 229.7,79.8 L 229.7,123.1" style="fill:none;fill-rule:evenodd;stroke:#000000;stroke-width:2.0px;stroke-linecap:butt;stroke-linejoin:miter;stroke-opacity:1"/>
<path class="bond-14 atom-14 atom-15" d="M 229.7,123.1 L 244.9,131.9" style="fill:none;fill-rule:evenodd;stroke:#000000;stroke-width:2.0px;stroke-linecap:butt;stroke-linejoin:miter;stroke-opacity:1"/>
<path class="bond-14 atom-14 atom-15" d="M 244.9,131.9 L 260.2,140.7" style="fill:none;fill-rule:evenodd;stroke:#FF0000;stroke-width:2.0px;stroke-linecap:butt;stroke-linejoin:miter;stroke-opacity:1"/>
<path class="bond-14 atom-14 atom-15" d="M 236.0,119.4 L 248.1,126.4" style="fill:none;fill-rule:evenodd;stroke:#000000;stroke-width:2.0px;stroke-linecap:butt;stroke-linejoin:miter;stroke-opacity:1"/>
<path class="bond-14 atom-14 atom-15" d="M 248.1,126.4 L 263.4,135.2" style="fill:none;fill-rule:evenodd;stroke:#FF0000;stroke-width:2.0px;stroke-linecap:butt;stroke-linejoin:miter;stroke-opacity:1"/>
<path class="bond-15 atom-12 atom-16" d="M 229.7,79.8 L 229.7,36.4" style="fill:none;fill-rule:evenodd;stroke:#000000;stroke-width:2.0px;stroke-linecap:butt;stroke-linejoin:miter;stroke-opacity:1"/>
<path class="bond-16 atom-16 atom-17" d="M 229.7,36.4 L 244.9,27.6" style="fill:none;fill-rule:evenodd;stroke:#000000;stroke-width:2.0px;stroke-linecap:butt;stroke-linejoin:miter;stroke-opacity:1"/>
<path class="bond-16 atom-16 atom-17" d="M 244.9,27.6 L 260.2,18.8" style="fill:none;fill-rule:evenodd;stroke:#FF0000;stroke-width:2.0px;stroke-linecap:butt;stroke-linejoin:miter;stroke-opacity:1"/>
<path class="bond-16 atom-16 atom-17" d="M 236.0,40.1 L 248.1,33.1" style="fill:none;fill-rule:evenodd;stroke:#000000;stroke-width:2.0px;stroke-linecap:butt;stroke-linejoin:miter;stroke-opacity:1"/>
<path class="bond-16 atom-16 atom-17" d="M 248.1,33.1 L 263.4,24.3" style="fill:none;fill-rule:evenodd;stroke:#FF0000;stroke-width:2.0px;stroke-linecap:butt;stroke-linejoin:miter;stroke-opacity:1"/>
<path class="bond-17 atom-9 atom-18" d="M 164.6,117.3 L 202.2,139.0" style="fill:none;fill-rule:evenodd;stroke:#000000;stroke-width:2.0px;stroke-linecap:butt;stroke-linejoin:miter;stroke-opacity:1"/>
<path class="bond-18 atom-18 atom-19" d="M 199.0,137.1 L 199.0,155.9" style="fill:none;fill-rule:evenodd;stroke:#000000;stroke-width:2.0px;stroke-linecap:butt;stroke-linejoin:miter;stroke-opacity:1"/>
<path class="bond-18 atom-18 atom-19" d="M 199.0,155.9 L 199.0,174.7" style="fill:none;fill-rule:evenodd;stroke:#FF0000;stroke-width:2.0px;stroke-linecap:butt;stroke-linejoin:miter;stroke-opacity:1"/>
<path class="bond-18 atom-18 atom-19" d="M 205.4,138.1 L 205.4,155.9" style="fill:none;fill-rule:evenodd;stroke:#000000;stroke-width:2.0px;stroke-linecap:butt;stroke-linejoin:miter;stroke-opacity:1"/>
<path class="bond-18 atom-18 atom-19" d="M 205.4,155.9 L 205.4,174.7" style="fill:none;fill-rule:evenodd;stroke:#FF0000;stroke-width:2.0px;stroke-linecap:butt;stroke-linejoin:miter;stroke-opacity:1"/>
<path class="bond-19 atom-18 atom-20" d="M 202.2,139.0 L 209.7,136.8" style="fill:none;fill-rule:evenodd;stroke:#000000;stroke-width:2.0px;stroke-linecap:butt;stroke-linejoin:miter;stroke-opacity:1"/>
<path class="bond-19 atom-18 atom-20" d="M 209.7,136.8 L 217.3,134.6" style="fill:none;fill-rule:evenodd;stroke:#FF0000;stroke-width:2.0px;stroke-linecap:butt;stroke-linejoin:miter;stroke-opacity:1"/>
<path d="M 72.6,60.0 L 73.7,58.1 L 73.2,57.3" style="fill:none;stroke:#000000;stroke-width:2.0px;stroke-linecap:butt;stroke-linejoin:miter;stroke-opacity:1;"/>
<path d="M 31.4,131.3 L 30.3,133.2 L 30.8,133.9" style="fill:none;stroke:#000000;stroke-width:2.0px;stroke-linecap:butt;stroke-linejoin:miter;stroke-opacity:1;"/>
<path d="M 87.7,116.2 L 89.5,117.3 L 91.4,116.2" style="fill:none;stroke:#000000;stroke-width:2.0px;stroke-linecap:butt;stroke-linejoin:miter;stroke-opacity:1;"/>
<path d="M 185.2,81.6 L 186.3,79.8 L 188.5,79.8" style="fill:none;stroke:#000000;stroke-width:2.0px;stroke-linecap:butt;stroke-linejoin:miter;stroke-opacity:1;"/>
<path d="M 229.7,120.9 L 229.7,123.1 L 230.4,123.6" style="fill:none;stroke:#000000;stroke-width:2.0px;stroke-linecap:butt;stroke-linejoin:miter;stroke-opacity:1;"/>
<path d="M 229.7,38.6 L 229.7,36.4 L 230.4,36.0" style="fill:none;stroke:#000000;stroke-width:2.0px;stroke-linecap:butt;stroke-linejoin:miter;stroke-opacity:1;"/>
<path d="M 200.3,137.9 L 202.2,139.0 L 202.6,138.9" style="fill:none;stroke:#000000;stroke-width:2.0px;stroke-linecap:butt;stroke-linejoin:miter;stroke-opacity:1;"/>
<path class="atom-3" d="M 43.6 22.2 Q 43.6 19.2, 45.1 17.6 Q 46.5 15.9, 49.2 15.9 Q 52.0 15.9, 53.4 17.6 Q 54.9 19.2, 54.9 22.2 Q 54.9 25.1, 53.4 26.8 Q 51.9 28.5, 49.2 28.5 Q 46.5 28.5, 45.1 26.8 Q 43.6 25.2, 43.6 22.2 M 49.2 27.1 Q 51.1 27.1, 52.1 25.9 Q 53.1 24.6, 53.1 22.2 Q 53.1 19.7, 52.1 18.5 Q 51.1 17.3, 49.2 17.3 Q 47.4 17.3, 46.4 18.5 Q 45.3 19.7, 45.3 22.2 Q 45.3 24.6, 46.4 25.9 Q 47.4 27.1, 49.2 27.1 " fill="#FF0000"/>
<path class="atom-5" d="M 49.1 169.2 Q 49.1 166.2, 50.6 164.6 Q 52.0 162.9, 54.7 162.9 Q 57.5 162.9, 58.9 164.6 Q 60.4 166.2, 60.4 169.2 Q 60.4 172.2, 58.9 173.9 Q 57.4 175.5, 54.7 175.5 Q 52.0 175.5, 50.6 173.9 Q 49.1 172.2, 49.1 169.2 M 54.7 174.1 Q 56.6 174.1, 57.6 172.9 Q 58.7 171.6, 58.7 169.2 Q 58.7 166.8, 57.6 165.5 Q 56.6 164.3, 54.7 164.3 Q 52.9 164.3, 51.9 165.5 Q 50.8 166.7, 50.8 169.2 Q 50.8 171.7, 51.9 172.9 Q 52.9 174.1, 54.7 174.1 " fill="#FF0000"/>
<path class="atom-8" d="M 121.5 52.3 Q 121.5 49.4, 122.9 47.7 Q 124.4 46.1, 127.1 46.1 Q 129.8 46.1, 131.3 47.7 Q 132.7 49.4, 132.7 52.3 Q 132.7 55.3, 131.3 57.0 Q 129.8 58.7, 127.1 58.7 Q 124.4 58.7, 122.9 57.0 Q 121.5 55.3, 121.5 52.3 M 127.1 57.3 Q 129.0 57.3, 130.0 56.0 Q 131.0 54.8, 131.0 52.3 Q 131.0 49.9, 130.0 48.7 Q 129.0 47.4, 127.1 47.4 Q 125.2 47.4, 124.2 48.7 Q 123.2 49.9, 123.2 52.3 Q 123.2 54.8, 124.2 56.0 Q 125.2 57.3, 127.1 57.3 " fill="#FF0000"/>
<path class="atom-8" d="M 134.6 46.2 L 136.3 46.2 L 136.3 51.4 L 142.6 51.4 L 142.6 46.2 L 144.2 46.2 L 144.2 58.5 L 142.6 58.5 L 142.6 52.8 L 136.3 52.8 L 136.3 58.5 L 134.6 58.5 L 134.6 46.2 " fill="#FF0000"/>
<path class="atom-15" d="M 263.2 142.1 Q 263.2 139.1, 264.6 137.5 Q 266.1 135.8, 268.8 135.8 Q 271.5 135.8, 273.0 137.5 Q 274.5 139.1, 274.5 142.1 Q 274.5 145.1, 273.0 146.8 Q 271.5 148.4, 268.8 148.4 Q 266.1 148.4, 264.6 146.8 Q 263.2 145.1, 263.2 142.1 M 268.8 147.1 Q 270.7 147.1, 271.7 145.8 Q 272.7 144.5, 272.7 142.1 Q 272.7 139.7, 271.7 138.5 Q 270.7 137.2, 268.8 137.2 Q 266.9 137.2, 265.9 138.4 Q 264.9 139.6, 264.9 142.1 Q 264.9 144.6, 265.9 145.8 Q 266.9 147.1, 268.8 147.1 " fill="#FF0000"/>
<path class="atom-17" d="M 263.2 17.5 Q 263.2 14.6, 264.6 12.9 Q 266.1 11.3, 268.8 11.3 Q 271.5 11.3, 273.0 12.9 Q 274.4 14.6, 274.4 17.5 Q 274.4 20.5, 273.0 22.2 Q 271.5 23.9, 268.8 23.9 Q 266.1 23.9, 264.6 22.2 Q 263.2 20.5, 263.2 17.5 M 268.8 22.5 Q 270.7 22.5, 271.7 21.2 Q 272.7 20.0, 272.7 17.5 Q 272.7 15.1, 271.7 13.9 Q 270.7 12.6, 268.8 12.6 Q 266.9 12.6, 265.9 13.9 Q 264.9 15.1, 264.9 17.5 Q 264.9 20.0, 265.9 21.2 Q 266.9 22.5, 268.8 22.5 " fill="#FF0000"/>
<path class="atom-19" d="M 196.6 182.4 Q 196.6 179.4, 198.0 177.8 Q 199.5 176.1, 202.2 176.1 Q 204.9 176.1, 206.4 177.8 Q 207.8 179.4, 207.8 182.4 Q 207.8 185.4, 206.4 187.1 Q 204.9 188.7, 202.2 188.7 Q 199.5 188.7, 198.0 187.1 Q 196.6 185.4, 196.6 182.4 M 202.2 187.4 Q 204.1 187.4, 205.1 186.1 Q 206.1 184.8, 206.1 182.4 Q 206.1 180.0, 205.1 178.7 Q 204.1 177.5, 202.2 177.5 Q 200.3 177.5, 199.3 178.7 Q 198.3 179.9, 198.3 182.4 Q 198.3 184.9, 199.3 186.1 Q 200.3 187.4, 202.2 187.4 " fill="#FF0000"/>
<path class="atom-20" d="M 218.7 132.7 Q 218.7 129.7, 220.2 128.1 Q 221.6 126.4, 224.3 126.4 Q 227.1 126.4, 228.5 128.1 Q 230.0 129.7, 230.0 132.7 Q 230.0 135.6, 228.5 137.3 Q 227.0 139.0, 224.3 139.0 Q 221.6 139.0, 220.2 137.3 Q 218.7 135.7, 218.7 132.7 M 224.3 137.6 Q 226.2 137.6, 227.2 136.4 Q 228.2 135.1, 228.2 132.7 Q 228.2 130.3, 227.2 129.0 Q 226.2 127.8, 224.3 127.8 Q 222.5 127.8, 221.4 129.0 Q 220.4 130.2, 220.4 132.7 Q 220.4 135.1, 221.4 136.4 Q 222.5 137.6, 224.3 137.6 " fill="#FF0000"/>
<path class="atom-20" d="M 231.9 126.6 L 233.6 126.6 L 233.6 131.8 L 239.8 131.8 L 239.8 126.6 L 241.5 126.6 L 241.5 138.8 L 239.8 138.8 L 239.8 133.2 L 233.6 133.2 L 233.6 138.8 L 231.9 138.8 L 231.9 126.6 " fill="#FF0000"/>
</g>
    <g transform="translate(589.0, 0) scale(1 1) "><line x1="15" y1="100" x2="25" y2="100" style="stroke:rgb(0,0,0);stroke-width:2"/>
  <line x1="20" y1="95" x2="20" y2="105" style="stroke:rgb(0,0,0);stroke-width:2"/>
</g>
    <g transform="translate(629.0, 0) scale(1 1) "><!-- END OF HEADER -->
<rect style="opacity:1.0;fill:#FFFFFF;stroke:none" width="215.0" height="200.0" x="0.0" y="0.0"> </rect>
<path class="bond-0 atom-0 atom-1" d="M 183.7,56.0 L 158.3,99.9" style="fill:none;fill-rule:evenodd;stroke:#000000;stroke-width:2.0px;stroke-linecap:butt;stroke-linejoin:miter;stroke-opacity:1"/>
<path class="bond-1 atom-1 atom-2" d="M 158.3,99.9 L 168.4,117.4" style="fill:none;fill-rule:evenodd;stroke:#000000;stroke-width:2.0px;stroke-linecap:butt;stroke-linejoin:miter;stroke-opacity:1"/>
<path class="bond-1 atom-1 atom-2" d="M 168.4,117.4 L 178.5,134.9" style="fill:none;fill-rule:evenodd;stroke:#FF0000;stroke-width:2.0px;stroke-linecap:butt;stroke-linejoin:miter;stroke-opacity:1"/>
<path class="bond-2 atom-1 atom-3" d="M 158.3,99.9 L 107.6,99.9" style="fill:none;fill-rule:evenodd;stroke:#000000;stroke-width:2.0px;stroke-linecap:butt;stroke-linejoin:miter;stroke-opacity:1"/>
<path class="bond-3 atom-3 atom-4" d="M 107.6,99.9 L 107.6,49.2" style="fill:none;fill-rule:evenodd;stroke:#000000;stroke-width:2.0px;stroke-linecap:butt;stroke-linejoin:miter;stroke-opacity:1"/>
<path class="bond-4 atom-3 atom-5" d="M 107.6,99.9 L 107.6,150.6" style="fill:none;fill-rule:evenodd;stroke:#000000;stroke-width:2.0px;stroke-linecap:butt;stroke-linejoin:miter;stroke-opacity:1"/>
<path class="bond-5 atom-3 atom-6" d="M 107.6,99.9 L 56.9,99.9" style="fill:none;fill-rule:evenodd;stroke:#000000;stroke-width:2.0px;stroke-linecap:butt;stroke-linejoin:miter;stroke-opacity:1"/>
<path class="bond-6 atom-6 atom-7" d="M 54.7,96.1 L 44.0,114.5" style="fill:none;fill-rule:evenodd;stroke:#000000;stroke-width:2.0px;stroke-linecap:butt;stroke-linejoin:miter;stroke-opacity:1"/>
<path class="bond-6 atom-6 atom-7" d="M 44.0,114.5 L 33.4,133.0" style="fill:none;fill-rule:evenodd;stroke:#FF0000;stroke-width:2.0px;stroke-linecap:butt;stroke-linejoin:miter;stroke-opacity:1"/>
<path class="bond-6 atom-6 atom-7" d="M 61.3,99.9 L 50.6,118.3" style="fill:none;fill-rule:evenodd;stroke:#000000;stroke-width:2.0px;stroke-linecap:butt;stroke-linejoin:miter;stroke-opacity:1"/>
<path class="bond-6 atom-6 atom-7" d="M 50.6,118.3 L 40.0,136.8" style="fill:none;fill-rule:evenodd;stroke:#FF0000;stroke-width:2.0px;stroke-linecap:butt;stroke-linejoin:miter;stroke-opacity:1"/>
<path class="bond-7 atom-6 atom-8" d="M 56.9,99.9 L 46.9,82.5" style="fill:none;fill-rule:evenodd;stroke:#000000;stroke-width:2.0px;stroke-linecap:butt;stroke-linejoin:miter;stroke-opacity:1"/>
<path class="bond-7 atom-6 atom-8" d="M 46.9,82.5 L 36.8,65.1" style="fill:none;fill-rule:evenodd;stroke:#FF0000;stroke-width:2.0px;stroke-linecap:butt;stroke-linejoin:miter;stroke-opacity:1"/>
<path d="M 59.4,99.9 L 56.9,99.9 L 56.4,99.0" style="fill:none;stroke:#000000;stroke-width:2.0px;stroke-linecap:butt;stroke-linejoin:miter;stroke-opacity:1;"/>
<path class="atom-2" d="M 177.1 143.9 Q 177.1 140.4, 178.8 138.5 Q 180.5 136.5, 183.7 136.5 Q 186.9 136.5, 188.6 138.5 Q 190.3 140.4, 190.3 143.9 Q 190.3 147.3, 188.6 149.3 Q 186.8 151.3, 183.7 151.3 Q 180.5 151.3, 178.8 149.3 Q 177.1 147.4, 177.1 143.9 M 183.7 149.7 Q 185.9 149.7, 187.0 148.2 Q 188.2 146.7, 188.2 143.9 Q 188.2 141.0, 187.0 139.6 Q 185.9 138.2, 183.7 138.2 Q 181.5 138.2, 180.3 139.6 Q 179.1 141.0, 179.1 143.9 Q 179.1 146.8, 180.3 148.2 Q 181.5 149.7, 183.7 149.7 " fill="#FF0000"/>
<path class="atom-2" d="M 192.5 136.7 L 194.5 136.7 L 194.5 142.8 L 201.8 142.8 L 201.8 136.7 L 203.7 136.7 L 203.7 151.1 L 201.8 151.1 L 201.8 144.4 L 194.5 144.4 L 194.5 151.1 L 192.5 151.1 L 192.5 136.7 " fill="#FF0000"/>
<path class="atom-7" d="M 24.9 143.9 Q 24.9 140.4, 26.6 138.5 Q 28.3 136.5, 31.5 136.5 Q 34.7 136.5, 36.4 138.5 Q 38.1 140.4, 38.1 143.9 Q 38.1 147.3, 36.4 149.3 Q 34.7 151.3, 31.5 151.3 Q 28.4 151.3, 26.6 149.3 Q 24.9 147.4, 24.9 143.9 M 31.5 149.7 Q 33.7 149.7, 34.9 148.2 Q 36.1 146.7, 36.1 143.9 Q 36.1 141.0, 34.9 139.6 Q 33.7 138.2, 31.5 138.2 Q 29.3 138.2, 28.1 139.6 Q 27.0 141.0, 27.0 143.9 Q 27.0 146.8, 28.1 148.2 Q 29.3 149.7, 31.5 149.7 " fill="#FF0000"/>
<path class="atom-8" d="M 10.7 48.9 L 12.7 48.9 L 12.7 55.0 L 20.0 55.0 L 20.0 48.9 L 22.0 48.9 L 22.0 63.2 L 20.0 63.2 L 20.0 56.6 L 12.7 56.6 L 12.7 63.2 L 10.7 63.2 L 10.7 48.9 " fill="#FF0000"/>
<path class="atom-8" d="M 24.9 56.0 Q 24.9 52.6, 26.6 50.6 Q 28.3 48.7, 31.5 48.7 Q 34.7 48.7, 36.4 50.6 Q 38.1 52.6, 38.1 56.0 Q 38.1 59.5, 36.4 61.5 Q 34.7 63.5, 31.5 63.5 Q 28.4 63.5, 26.6 61.5 Q 24.9 59.5, 24.9 56.0 M 31.5 61.8 Q 33.7 61.8, 34.9 60.4 Q 36.1 58.9, 36.1 56.0 Q 36.1 53.2, 34.9 51.8 Q 33.7 50.3, 31.5 50.3 Q 29.3 50.3, 28.1 51.7 Q 27.0 53.2, 27.0 56.0 Q 27.0 58.9, 28.1 60.4 Q 29.3 61.8, 31.5 61.8 " fill="#FF0000"/>
</g>
  </g>
</svg>
