<?xml version='1.0' encoding='ASCII' standalone='yes'?>
<svg xmlns="http://www.w3.org/2000/svg" xmlns:xlink="http://www.w3.org/1999/xlink" version="1.1" width="829.0px" viewBox="0 0 829.0 200.0" height="200.0px">
  <g>
    <g transform="translate(0, 0) scale(1 1) "><!-- END OF HEADER -->
<rect style="opacity:1.0;fill:#FFFFFF;stroke:none" width="254.0" height="200.0" x="0.0" y="0.0"> </rect>
<path class="bond-0 atom-0 atom-1" d="M 240.7,87.6 L 206.4,109.6" style="fill:none;fill-rule:evenodd;stroke:#000000;stroke-width:2.0px;stroke-linecap:butt;stroke-linejoin:miter;stroke-opacity:1"/>
<path class="bond-1 atom-1 atom-2" d="M 206.4,109.6 L 170.3,90.9" style="fill:none;fill-rule:evenodd;stroke:#000000;stroke-width:2.0px;stroke-linecap:butt;stroke-linejoin:miter;stroke-opacity:1"/>
<path class="bond-2 atom-2 atom-3" d="M 170.3,90.9 L 151.6,127.1" style="fill:none;fill-rule:evenodd;stroke:#000000;stroke-width:2.0px;stroke-linecap:butt;stroke-linejoin:miter;stroke-opacity:1"/>
<path class="bond-3 atom-3 atom-4" d="M 151.6,127.1 L 160.2,140.6" style="fill:none;fill-rule:evenodd;stroke:#000000;stroke-width:2.0px;stroke-linecap:butt;stroke-linejoin:miter;stroke-opacity:1"/>
<path class="bond-3 atom-3 atom-4" d="M 160.2,140.6 L 168.9,154.2" style="fill:none;fill-rule:evenodd;stroke:#FF0000;stroke-width:2.0px;stroke-linecap:butt;stroke-linejoin:miter;stroke-opacity:1"/>
<path class="bond-4 atom-2 atom-5" d="M 170.3,90.9 L 134.1,72.2" style="fill:none;fill-rule:evenodd;stroke:#000000;stroke-width:2.0px;stroke-linecap:butt;stroke-linejoin:miter;stroke-opacity:1"/>
<path class="bond-5 atom-5 atom-6" d="M 134.1,72.2 L 99.8,94.2" style="fill:none;fill-rule:evenodd;stroke:#000000;stroke-width:2.0px;stroke-linecap:butt;stroke-linejoin:miter;stroke-opacity:1"/>
<path class="bond-6 atom-6 atom-7" d="M 99.8,94.2 L 101.7,134.8" style="fill:none;fill-rule:evenodd;stroke:#000000;stroke-width:2.0px;stroke-linecap:butt;stroke-linejoin:miter;stroke-opacity:1"/>
<path class="bond-7 atom-6 atom-8" d="M 99.8,94.2 L 63.7,75.5" style="fill:none;fill-rule:evenodd;stroke:#000000;stroke-width:2.0px;stroke-linecap:butt;stroke-linejoin:miter;stroke-opacity:1"/>
<path class="bond-8 atom-8 atom-9" d="M 66.8,77.1 L 66.0,59.6" style="fill:none;fill-rule:evenodd;stroke:#000000;stroke-width:2.0px;stroke-linecap:butt;stroke-linejoin:miter;stroke-opacity:1"/>
<path class="bond-8 atom-8 atom-9" d="M 66.0,59.6 L 65.2,42.0" style="fill:none;fill-rule:evenodd;stroke:#FF0000;stroke-width:2.0px;stroke-linecap:butt;stroke-linejoin:miter;stroke-opacity:1"/>
<path class="bond-8 atom-8 atom-9" d="M 60.7,77.4 L 59.9,59.8" style="fill:none;fill-rule:evenodd;stroke:#000000;stroke-width:2.0px;stroke-linecap:butt;stroke-linejoin:miter;stroke-opacity:1"/>
<path class="bond-8 atom-8 atom-9" d="M 59.9,59.8 L 59.1,42.3" style="fill:none;fill-rule:evenodd;stroke:#FF0000;stroke-width:2.0px;stroke-linecap:butt;stroke-linejoin:miter;stroke-opacity:1"/>
<path class="bond-9 atom-8 atom-10" d="M 63.7,75.5 L 49.8,84.3" style="fill:none;fill-rule:evenodd;stroke:#000000;stroke-width:2.0px;stroke-linecap:butt;stroke-linejoin:miter;stroke-opacity:1"/>
<path class="bond-9 atom-8 atom-10" d="M 49.8,84.3 L 36.0,93.2" style="fill:none;fill-rule:evenodd;stroke:#FF0000;stroke-width:2.0px;stroke-linecap:butt;stroke-linejoin:miter;stroke-opacity:1"/>
<path class="bond-10 atom-2 atom-11" d="M 170.3,90.9 L 189.0,54.7" style="fill:none;fill-rule:evenodd;stroke:#000000;stroke-width:2.0px;stroke-linecap:butt;stroke-linejoin:miter;stroke-opacity:1"/>
<path class="bond-11 atom-11 atom-12" d="M 187.3,57.9 L 205.2,57.1" style="fill:none;fill-rule:evenodd;stroke:#000000;stroke-width:2.0px;stroke-linecap:butt;stroke-linejoin:miter;stroke-opacity:1"/>
<path class="bond-11 atom-11 atom-12" d="M 205.2,57.1 L 223.1,56.2" style="fill:none;fill-rule:evenodd;stroke:#FF0000;stroke-width:2.0px;stroke-linecap:butt;stroke-linejoin:miter;stroke-opacity:1"/>
<path class="bond-11 atom-11 atom-12" d="M 187.1,51.8 L 205.0,51.0" style="fill:none;fill-rule:evenodd;stroke:#000000;stroke-width:2.0px;stroke-linecap:butt;stroke-linejoin:miter;stroke-opacity:1"/>
<path class="bond-11 atom-11 atom-12" d="M 205.0,51.0 L 222.9,50.1" style="fill:none;fill-rule:evenodd;stroke:#FF0000;stroke-width:2.0px;stroke-linecap:butt;stroke-linejoin:miter;stroke-opacity:1"/>
<path class="bond-12 atom-11 atom-13" d="M 189.0,54.7 L 180.3,41.3" style="fill:none;fill-rule:evenodd;stroke:#000000;stroke-width:2.0px;stroke-linecap:butt;stroke-linejoin:miter;stroke-opacity:1"/>
<path class="bond-12 atom-11 atom-13" d="M 180.3,41.3 L 171.7,27.8" style="fill:none;fill-rule:evenodd;stroke:#FF0000;stroke-width:2.0px;stroke-linecap:butt;stroke-linejoin:miter;stroke-opacity:1"/>
<path d="M 208.1,108.5 L 206.4,109.6 L 204.6,108.7" style="fill:none;stroke:#000000;stroke-width:2.0px;stroke-linecap:butt;stroke-linejoin:miter;stroke-opacity:1;"/>
<path d="M 152.5,125.3 L 151.6,127.1 L 152.0,127.8" style="fill:none;stroke:#000000;stroke-width:2.0px;stroke-linecap:butt;stroke-linejoin:miter;stroke-opacity:1;"/>
<path d="M 135.9,73.1 L 134.1,72.2 L 132.4,73.3" style="fill:none;stroke:#000000;stroke-width:2.0px;stroke-linecap:butt;stroke-linejoin:miter;stroke-opacity:1;"/>
<path d="M 65.5,76.4 L 63.7,75.5 L 63.0,75.9" style="fill:none;stroke:#000000;stroke-width:2.0px;stroke-linecap:butt;stroke-linejoin:miter;stroke-opacity:1;"/>
<path d="M 188.0,56.6 L 189.0,54.7 L 188.5,54.1" style="fill:none;stroke:#000000;stroke-width:2.0px;stroke-linecap:butt;stroke-linejoin:miter;stroke-opacity:1;"/>
<path class="atom-4" d="M 168.2 161.4 Q 168.2 158.6, 169.6 157.1 Q 171.0 155.5, 173.5 155.5 Q 176.1 155.5, 177.4 157.1 Q 178.8 158.6, 178.8 161.4 Q 178.8 164.2, 177.4 165.8 Q 176.0 167.4, 173.5 167.4 Q 171.0 167.4, 169.6 165.8 Q 168.2 164.2, 168.2 161.4 M 173.5 166.1 Q 175.3 166.1, 176.2 164.9 Q 177.2 163.7, 177.2 161.4 Q 177.2 159.1, 176.2 158.0 Q 175.3 156.8, 173.5 156.8 Q 171.8 156.8, 170.8 158.0 Q 169.9 159.1, 169.9 161.4 Q 169.9 163.7, 170.8 164.9 Q 171.8 166.1, 173.5 166.1 " fill="#FF0000"/>
<path class="atom-4" d="M 180.6 155.7 L 182.2 155.7 L 182.2 160.6 L 188.1 160.6 L 188.1 155.7 L 189.6 155.7 L 189.6 167.2 L 188.1 167.2 L 188.1 161.9 L 182.2 161.9 L 182.2 167.2 L 180.6 167.2 L 180.6 155.7 " fill="#FF0000"/>
<path class="atom-9" d="M 56.5 34.8 Q 56.5 32.1, 57.8 30.5 Q 59.2 29.0, 61.8 29.0 Q 64.3 29.0, 65.7 30.5 Q 67.1 32.1, 67.1 34.8 Q 67.1 37.6, 65.7 39.2 Q 64.3 40.8, 61.8 40.8 Q 59.2 40.8, 57.8 39.2 Q 56.5 37.7, 56.5 34.8 M 61.8 39.5 Q 63.5 39.5, 64.5 38.3 Q 65.4 37.1, 65.4 34.8 Q 65.4 32.6, 64.5 31.4 Q 63.5 30.3, 61.8 30.3 Q 60.0 30.3, 59.1 31.4 Q 58.1 32.6, 58.1 34.8 Q 58.1 37.2, 59.1 38.3 Q 60.0 39.5, 61.8 39.5 " fill="#FF0000"/>
<path class="atom-10" d="M 12.7 91.7 L 14.3 91.7 L 14.3 96.6 L 20.2 96.6 L 20.2 91.7 L 21.7 91.7 L 21.7 103.3 L 20.2 103.3 L 20.2 97.9 L 14.3 97.9 L 14.3 103.3 L 12.7 103.3 L 12.7 91.7 " fill="#FF0000"/>
<path class="atom-10" d="M 24.1 97.5 Q 24.1 94.7, 25.5 93.2 Q 26.8 91.6, 29.4 91.6 Q 31.9 91.6, 33.3 93.2 Q 34.7 94.7, 34.7 97.5 Q 34.7 100.3, 33.3 101.9 Q 31.9 103.4, 29.4 103.4 Q 26.8 103.4, 25.5 101.9 Q 24.1 100.3, 24.1 97.5 M 29.4 102.1 Q 31.1 102.1, 32.1 101.0 Q 33.0 99.8, 33.0 97.5 Q 33.0 95.2, 32.1 94.1 Q 31.1 92.9, 29.4 92.9 Q 27.6 92.9, 26.7 94.1 Q 25.7 95.2, 25.7 97.5 Q 25.7 99.8, 26.7 101.0 Q 27.6 102.1, 29.4 102.1 " fill="#FF0000"/>
<path class="atom-12" d="M 224.3 52.9 Q 224.3 50.1, 225.7 48.6 Q 227.1 47.0, 229.6 47.0 Q 232.2 47.0, 233.6 48.6 Q 234.9 50.1, 234.9 52.9 Q 234.9 55.7, 233.5 57.3 Q 232.2 58.9, 229.6 58.9 Q 227.1 58.9, 225.7 57.3 Q 224.3 55.7, 224.3 52.9 M 229.6 57.6 Q 231.4 57.6, 232.3 56.4 Q 233.3 55.2, 233.3 52.9 Q 233.3 50.6, 232.3 49.5 Q 231.4 48.3, 229.6 48.3 Q 227.9 48.3, 226.9 49.5 Q 226.0 50.6, 226.0 52.9 Q 226.0 55.2, 226.9 56.4 Q 227.9 57.6, 229.6 57.6 " fill="#FF0000"/>
<path class="atom-13" d="M 150.3 14.8 L 151.9 14.8 L 151.9 19.7 L 157.8 19.7 L 157.8 14.8 L 159.3 14.8 L 159.3 26.3 L 157.8 26.3 L 157.8 21.0 L 151.9 21.0 L 151.9 26.3 L 150.3 26.3 L 150.3 14.8 " fill="#FF0000"/>
<path class="atom-13" d="M 161.7 20.5 Q 161.7 17.7, 163.1 16.2 Q 164.4 14.6, 167.0 14.6 Q 169.6 14.6, 170.9 16.2 Q 172.3 17.7, 172.3 20.5 Q 172.3 23.3, 170.9 24.9 Q 169.5 26.5, 167.0 26.5 Q 164.5 26.5, 163.1 24.9 Q 161.7 23.3, 161.7 20.5 M 167.0 25.2 Q 168.8 25.2, 169.7 24.0 Q 170.7 22.8, 170.7 20.5 Q 170.7 18.2, 169.7 17.1 Q 168.8 15.9, 167.0 15.9 Q 165.2 15.9, 164.3 17.1 Q 163.3 18.2, 163.3 20.5 Q 163.3 22.8, 164.3 24.0 Q 165.2 25.2, 167.0 25.2 " fill="#FF0000"/>
<path class="legend" d="M 118.2 181.9 Q 118.2 179.6, 118.9 177.7 Q 119.5 175.8, 120.8 173.8 L 121.7 174.4 Q 120.7 176.3, 120.1 178.0 Q 119.6 179.7, 119.6 181.9 Q 119.6 184.0, 120.1 185.8 Q 120.7 187.5, 121.7 189.4 L 120.8 190.0 Q 119.5 188.0, 118.9 186.1 Q 118.2 184.2, 118.2 181.9 " fill="#000000"/>
<path class="legend" d="M 122.6 177.3 Q 123.1 176.2, 124.0 175.6 Q 125.0 175.0, 126.4 175.0 Q 128.1 175.0, 129.1 175.9 Q 130.0 176.8, 130.0 178.5 Q 130.0 180.2, 128.8 181.7 Q 127.6 183.3, 125.0 185.2 L 130.2 185.2 L 130.2 186.4 L 122.6 186.4 L 122.6 185.4 Q 124.7 183.9, 126.0 182.8 Q 127.2 181.6, 127.8 180.6 Q 128.4 179.6, 128.4 178.6 Q 128.4 177.5, 127.9 176.9 Q 127.4 176.3, 126.4 176.3 Q 125.5 176.3, 124.9 176.6 Q 124.3 177.0, 123.9 177.8 L 122.6 177.3 " fill="#000000"/>
<path class="legend" d="M 135.2 181.9 Q 135.2 184.2, 134.5 186.1 Q 133.9 188.0, 132.6 190.0 L 131.7 189.4 Q 132.7 187.5, 133.2 185.8 Q 133.8 184.0, 133.8 181.9 Q 133.8 179.7, 133.2 178.0 Q 132.7 176.3, 131.7 174.4 L 132.6 173.8 Q 133.9 175.8, 134.5 177.7 Q 135.2 179.6, 135.2 181.9 " fill="#000000"/>
</g>
    <g transform="translate(254.00000000000003, 0) scale(1 1) "><line x1="5" y1="100" x2="35" y2="100" style="stroke:rgb(0,0,0);stroke-width:2"/>
  <line x1="34" y1="100" x2="29" y2="95" style="stroke:rgb(0,0,0);stroke-width:2"/>
  <line x1="34" y1="100" x2="29" y2="105" style="stroke:rgb(0,0,0);stroke-width:2"/>
</g>
    <g transform="translate(294.0, 0) scale(1 1) "><!-- END OF HEADER -->
<rect style="opacity:1.0;fill:#FFFFFF;stroke:none" width="215.0" height="200.0" x="0.0" y="0.0"> </rect>
<path class="bond-0 atom-0 atom-1" d="M 61.9,36.0 L 106.2,60.7" style="fill:none;fill-rule:evenodd;stroke:#000000;stroke-width:2.0px;stroke-linecap:butt;stroke-linejoin:miter;stroke-opacity:1"/>
<path class="bond-1 atom-1 atom-2" d="M 106.2,60.7 L 107.0,111.4" style="fill:none;fill-rule:evenodd;stroke:#000000;stroke-width:2.0px;stroke-linecap:butt;stroke-linejoin:miter;stroke-opacity:1"/>
<path class="bond-2 atom-2 atom-3" d="M 107.0,111.4 L 107.7,162.2" style="fill:none;fill-rule:evenodd;stroke:#000000;stroke-width:2.0px;stroke-linecap:butt;stroke-linejoin:miter;stroke-opacity:1"/>
<path class="bond-3 atom-2 atom-4" d="M 107.0,111.4 L 56.2,112.2" style="fill:none;fill-rule:evenodd;stroke:#000000;stroke-width:2.0px;stroke-linecap:butt;stroke-linejoin:miter;stroke-opacity:1"/>
<path class="bond-4 atom-4 atom-5" d="M 56.2,112.2 L 46.4,129.9" style="fill:none;fill-rule:evenodd;stroke:#000000;stroke-width:2.0px;stroke-linecap:butt;stroke-linejoin:miter;stroke-opacity:1"/>
<path class="bond-4 atom-4 atom-5" d="M 46.4,129.9 L 36.5,147.6" style="fill:none;fill-rule:evenodd;stroke:#FF0000;stroke-width:2.0px;stroke-linecap:butt;stroke-linejoin:miter;stroke-opacity:1"/>
<path class="bond-5 atom-2 atom-6" d="M 107.0,111.4 L 157.7,110.7" style="fill:none;fill-rule:evenodd;stroke:#000000;stroke-width:2.0px;stroke-linecap:butt;stroke-linejoin:miter;stroke-opacity:1"/>
<path class="bond-6 atom-6 atom-7" d="M 159.9,114.5 L 170.3,95.9" style="fill:none;fill-rule:evenodd;stroke:#000000;stroke-width:2.0px;stroke-linecap:butt;stroke-linejoin:miter;stroke-opacity:1"/>
<path class="bond-6 atom-6 atom-7" d="M 170.3,95.9 L 180.6,77.4" style="fill:none;fill-rule:evenodd;stroke:#FF0000;stroke-width:2.0px;stroke-linecap:butt;stroke-linejoin:miter;stroke-opacity:1"/>
<path class="bond-6 atom-6 atom-7" d="M 153.3,110.8 L 163.6,92.2" style="fill:none;fill-rule:evenodd;stroke:#000000;stroke-width:2.0px;stroke-linecap:butt;stroke-linejoin:miter;stroke-opacity:1"/>
<path class="bond-6 atom-6 atom-7" d="M 163.6,92.2 L 173.9,73.7" style="fill:none;fill-rule:evenodd;stroke:#FF0000;stroke-width:2.0px;stroke-linecap:butt;stroke-linejoin:miter;stroke-opacity:1"/>
<path class="bond-7 atom-6 atom-8" d="M 157.7,110.7 L 168.0,128.0" style="fill:none;fill-rule:evenodd;stroke:#000000;stroke-width:2.0px;stroke-linecap:butt;stroke-linejoin:miter;stroke-opacity:1"/>
<path class="bond-7 atom-6 atom-8" d="M 168.0,128.0 L 178.3,145.3" style="fill:none;fill-rule:evenodd;stroke:#FF0000;stroke-width:2.0px;stroke-linecap:butt;stroke-linejoin:miter;stroke-opacity:1"/>
<path d="M 104.0,59.5 L 106.2,60.7 L 106.2,63.3" style="fill:none;stroke:#000000;stroke-width:2.0px;stroke-linecap:butt;stroke-linejoin:miter;stroke-opacity:1;"/>
<path d="M 58.8,112.2 L 56.2,112.2 L 55.7,113.1" style="fill:none;stroke:#000000;stroke-width:2.0px;stroke-linecap:butt;stroke-linejoin:miter;stroke-opacity:1;"/>
<path d="M 155.1,110.7 L 157.7,110.7 L 158.2,111.6" style="fill:none;stroke:#000000;stroke-width:2.0px;stroke-linecap:butt;stroke-linejoin:miter;stroke-opacity:1;"/>
<path class="atom-5" d="M 10.8 149.4 L 12.7 149.4 L 12.7 155.5 L 20.0 155.5 L 20.0 149.4 L 22.0 149.4 L 22.0 163.8 L 20.0 163.8 L 20.0 157.1 L 12.7 157.1 L 12.7 163.8 L 10.8 163.8 L 10.8 149.4 " fill="#FF0000"/>
<path class="atom-5" d="M 24.9 156.5 Q 24.9 153.1, 26.6 151.2 Q 28.3 149.2, 31.5 149.2 Q 34.7 149.2, 36.4 151.2 Q 38.1 153.1, 38.1 156.5 Q 38.1 160.0, 36.4 162.0 Q 34.7 164.0, 31.5 164.0 Q 28.4 164.0, 26.6 162.0 Q 24.9 160.0, 24.9 156.5 M 31.5 162.4 Q 33.7 162.4, 34.9 160.9 Q 36.1 159.4, 36.1 156.5 Q 36.1 153.7, 34.9 152.3 Q 33.7 150.9, 31.5 150.9 Q 29.3 150.9, 28.1 152.3 Q 27.0 153.7, 27.0 156.5 Q 27.0 159.4, 28.1 160.9 Q 29.3 162.4, 31.5 162.4 " fill="#FF0000"/>
<path class="atom-7" d="M 175.8 66.4 Q 175.8 63.0, 177.5 61.1 Q 179.2 59.1, 182.4 59.1 Q 185.6 59.1, 187.3 61.1 Q 189.0 63.0, 189.0 66.4 Q 189.0 69.9, 187.2 71.9 Q 185.5 73.9, 182.4 73.9 Q 179.2 73.9, 177.5 71.9 Q 175.8 69.9, 175.8 66.4 M 182.4 72.2 Q 184.6 72.2, 185.7 70.8 Q 186.9 69.3, 186.9 66.4 Q 186.9 63.6, 185.7 62.2 Q 184.6 60.7, 182.4 60.7 Q 180.2 60.7, 179.0 62.2 Q 177.8 63.6, 177.8 66.4 Q 177.8 69.3, 179.0 70.8 Q 180.2 72.2, 182.4 72.2 " fill="#FF0000"/>
<path class="atom-8" d="M 177.1 154.3 Q 177.1 150.8, 178.8 148.9 Q 180.5 147.0, 183.7 147.0 Q 186.9 147.0, 188.6 148.9 Q 190.3 150.8, 190.3 154.3 Q 190.3 157.8, 188.5 159.7 Q 186.8 161.7, 183.7 161.7 Q 180.5 161.7, 178.8 159.7 Q 177.1 157.8, 177.1 154.3 M 183.7 160.1 Q 185.9 160.1, 187.0 158.6 Q 188.2 157.2, 188.2 154.3 Q 188.2 151.5, 187.0 150.0 Q 185.9 148.6, 183.7 148.6 Q 181.5 148.6, 180.3 150.0 Q 179.1 151.4, 179.1 154.3 Q 179.1 157.2, 180.3 158.6 Q 181.5 160.1, 183.7 160.1 " fill="#FF0000"/>
<path class="atom-8" d="M 192.5 147.1 L 194.5 147.1 L 194.5 153.2 L 201.8 153.2 L 201.8 147.1 L 203.8 147.1 L 203.8 161.5 L 201.8 161.5 L 201.8 154.9 L 194.5 154.9 L 194.5 161.5 L 192.5 161.5 L 192.5 147.1 " fill="#FF0000"/>
</g>
    <g transform="translate(509.0, 0) scale(1 1) "><line x1="15" y1="100" x2="25" y2="100" style="stroke:rgb(0,0,0);stroke-width:2"/>
  <line x1="20" y1="95" x2="20" y2="105" style="stroke:rgb(0,0,0);stroke-width:2"/>
</g>
    <g transform="translate(549.0, 0) scale(1 1) "><!-- END OF HEADER -->
<rect style="opacity:1.0;fill:#FFFFFF;stroke:none" width="280.0" height="200.0" x="0.0" y="0.0"> </rect>
<path class="bond-0 atom-0 atom-1" d="M 266.0,81.9 L 234.1,108.3" style="fill:none;fill-rule:evenodd;stroke:#000000;stroke-width:2.0px;stroke-linecap:butt;stroke-linejoin:miter;stroke-opacity:1"/>
<path class="bond-1 atom-1 atom-2" d="M 234.1,108.3 L 195.3,93.9" style="fill:none;fill-rule:evenodd;stroke:#000000;stroke-width:2.0px;stroke-linecap:butt;stroke-linejoin:miter;stroke-opacity:1"/>
<path class="bond-2 atom-2 atom-3" d="M 195.3,93.9 L 180.9,132.7" style="fill:none;fill-rule:evenodd;stroke:#000000;stroke-width:2.0px;stroke-linecap:butt;stroke-linejoin:miter;stroke-opacity:1"/>
<path class="bond-3 atom-3 atom-4" d="M 180.9,132.7 L 191.1,145.0" style="fill:none;fill-rule:evenodd;stroke:#000000;stroke-width:2.0px;stroke-linecap:butt;stroke-linejoin:miter;stroke-opacity:1"/>
<path class="bond-3 atom-3 atom-4" d="M 191.1,145.0 L 201.3,157.3" style="fill:none;fill-rule:evenodd;stroke:#FF0000;stroke-width:2.0px;stroke-linecap:butt;stroke-linejoin:miter;stroke-opacity:1"/>
<path class="bond-4 atom-2 atom-5" d="M 195.3,93.9 L 156.5,79.5" style="fill:none;fill-rule:evenodd;stroke:#000000;stroke-width:2.0px;stroke-linecap:butt;stroke-linejoin:miter;stroke-opacity:1"/>
<path class="bond-5 atom-5 atom-6" d="M 156.5,79.5 L 124.6,105.9" style="fill:none;fill-rule:evenodd;stroke:#000000;stroke-width:2.0px;stroke-linecap:butt;stroke-linejoin:miter;stroke-opacity:1"/>
<path class="bond-6 atom-6 atom-7" d="M 124.6,105.9 L 92.8,132.4" style="fill:none;fill-rule:evenodd;stroke:#000000;stroke-width:2.0px;stroke-linecap:butt;stroke-linejoin:miter;stroke-opacity:1"/>
<path class="bond-7 atom-6 atom-8" d="M 124.6,105.9 L 151.0,137.8" style="fill:none;fill-rule:evenodd;stroke:#000000;stroke-width:2.0px;stroke-linecap:butt;stroke-linejoin:miter;stroke-opacity:1"/>
<path class="bond-8 atom-8 atom-9" d="M 148.8,135.1 L 142.7,151.7" style="fill:none;fill-rule:evenodd;stroke:#000000;stroke-width:2.0px;stroke-linecap:butt;stroke-linejoin:miter;stroke-opacity:1"/>
<path class="bond-8 atom-8 atom-9" d="M 142.7,151.7 L 136.5,168.3" style="fill:none;fill-rule:evenodd;stroke:#FF0000;stroke-width:2.0px;stroke-linecap:butt;stroke-linejoin:miter;stroke-opacity:1"/>
<path class="bond-8 atom-8 atom-9" d="M 154.2,138.0 L 148.3,153.8" style="fill:none;fill-rule:evenodd;stroke:#000000;stroke-width:2.0px;stroke-linecap:butt;stroke-linejoin:miter;stroke-opacity:1"/>
<path class="bond-8 atom-8 atom-9" d="M 148.3,153.8 L 142.2,170.4" style="fill:none;fill-rule:evenodd;stroke:#FF0000;stroke-width:2.0px;stroke-linecap:butt;stroke-linejoin:miter;stroke-opacity:1"/>
<path class="bond-9 atom-8 atom-10" d="M 151.0,137.8 L 158.7,138.4" style="fill:none;fill-rule:evenodd;stroke:#000000;stroke-width:2.0px;stroke-linecap:butt;stroke-linejoin:miter;stroke-opacity:1"/>
<path class="bond-9 atom-8 atom-10" d="M 158.7,138.4 L 166.3,139.0" style="fill:none;fill-rule:evenodd;stroke:#FF0000;stroke-width:2.0px;stroke-linecap:butt;stroke-linejoin:miter;stroke-opacity:1"/>
<path class="bond-10 atom-6 atom-11" d="M 124.6,105.9 L 98.2,74.1" style="fill:none;fill-rule:evenodd;stroke:#000000;stroke-width:2.0px;stroke-linecap:butt;stroke-linejoin:miter;stroke-opacity:1"/>
<path class="bond-11 atom-11 atom-12" d="M 98.2,74.1 L 112.6,35.2" style="fill:none;fill-rule:evenodd;stroke:#000000;stroke-width:2.0px;stroke-linecap:butt;stroke-linejoin:miter;stroke-opacity:1"/>
<path class="bond-12 atom-11 atom-13" d="M 98.2,74.1 L 57.4,81.0" style="fill:none;fill-rule:evenodd;stroke:#000000;stroke-width:2.0px;stroke-linecap:butt;stroke-linejoin:miter;stroke-opacity:1"/>
<path class="bond-13 atom-13 atom-14" d="M 55.2,78.3 L 49.0,94.9" style="fill:none;fill-rule:evenodd;stroke:#000000;stroke-width:2.0px;stroke-linecap:butt;stroke-linejoin:miter;stroke-opacity:1"/>
<path class="bond-13 atom-13 atom-14" d="M 49.0,94.9 L 42.9,111.5" style="fill:none;fill-rule:evenodd;stroke:#FF0000;stroke-width:2.0px;stroke-linecap:butt;stroke-linejoin:miter;stroke-opacity:1"/>
<path class="bond-13 atom-13 atom-14" d="M 60.8,80.4 L 54.7,97.0" style="fill:none;fill-rule:evenodd;stroke:#000000;stroke-width:2.0px;stroke-linecap:butt;stroke-linejoin:miter;stroke-opacity:1"/>
<path class="bond-13 atom-13 atom-14" d="M 54.7,97.0 L 48.5,113.6" style="fill:none;fill-rule:evenodd;stroke:#FF0000;stroke-width:2.0px;stroke-linecap:butt;stroke-linejoin:miter;stroke-opacity:1"/>
<path class="bond-14 atom-13 atom-15" d="M 57.4,81.0 L 47.3,68.8" style="fill:none;fill-rule:evenodd;stroke:#000000;stroke-width:2.0px;stroke-linecap:butt;stroke-linejoin:miter;stroke-opacity:1"/>
<path class="bond-14 atom-13 atom-15" d="M 47.3,68.8 L 37.1,56.6" style="fill:none;fill-rule:evenodd;stroke:#FF0000;stroke-width:2.0px;stroke-linecap:butt;stroke-linejoin:miter;stroke-opacity:1"/>
<path class="bond-15 atom-2 atom-16" d="M 195.3,93.9 L 209.7,55.1" style="fill:none;fill-rule:evenodd;stroke:#000000;stroke-width:2.0px;stroke-linecap:butt;stroke-linejoin:miter;stroke-opacity:1"/>
<path class="bond-16 atom-16 atom-17" d="M 208.5,58.3 L 226.4,55.3" style="fill:none;fill-rule:evenodd;stroke:#000000;stroke-width:2.0px;stroke-linecap:butt;stroke-linejoin:miter;stroke-opacity:1"/>
<path class="bond-16 atom-16 atom-17" d="M 226.4,55.3 L 244.3,52.2" style="fill:none;fill-rule:evenodd;stroke:#FF0000;stroke-width:2.0px;stroke-linecap:butt;stroke-linejoin:miter;stroke-opacity:1"/>
<path class="bond-16 atom-16 atom-17" d="M 207.5,52.4 L 225.4,49.3" style="fill:none;fill-rule:evenodd;stroke:#000000;stroke-width:2.0px;stroke-linecap:butt;stroke-linejoin:miter;stroke-opacity:1"/>
<path class="bond-16 atom-16 atom-17" d="M 225.4,49.3 L 243.3,46.3" style="fill:none;fill-rule:evenodd;stroke:#FF0000;stroke-width:2.0px;stroke-linecap:butt;stroke-linejoin:miter;stroke-opacity:1"/>
<path class="bond-17 atom-16 atom-18" d="M 209.7,55.1 L 199.6,42.9" style="fill:none;fill-rule:evenodd;stroke:#000000;stroke-width:2.0px;stroke-linecap:butt;stroke-linejoin:miter;stroke-opacity:1"/>
<path class="bond-17 atom-16 atom-18" d="M 199.6,42.9 L 189.4,30.6" style="fill:none;fill-rule:evenodd;stroke:#FF0000;stroke-width:2.0px;stroke-linecap:butt;stroke-linejoin:miter;stroke-opacity:1"/>
<path d="M 235.7,107.0 L 234.1,108.3 L 232.2,107.6" style="fill:none;stroke:#000000;stroke-width:2.0px;stroke-linecap:butt;stroke-linejoin:miter;stroke-opacity:1;"/>
<path d="M 181.6,130.8 L 180.9,132.7 L 181.4,133.3" style="fill:none;stroke:#000000;stroke-width:2.0px;stroke-linecap:butt;stroke-linejoin:miter;stroke-opacity:1;"/>
<path d="M 158.4,80.2 L 156.5,79.5 L 154.9,80.8" style="fill:none;stroke:#000000;stroke-width:2.0px;stroke-linecap:butt;stroke-linejoin:miter;stroke-opacity:1;"/>
<path d="M 149.7,136.2 L 151.0,137.8 L 151.4,137.8" style="fill:none;stroke:#000000;stroke-width:2.0px;stroke-linecap:butt;stroke-linejoin:miter;stroke-opacity:1;"/>
<path d="M 59.4,80.7 L 57.4,81.0 L 56.9,80.4" style="fill:none;stroke:#000000;stroke-width:2.0px;stroke-linecap:butt;stroke-linejoin:miter;stroke-opacity:1;"/>
<path d="M 209.0,57.0 L 209.7,55.1 L 209.2,54.5" style="fill:none;stroke:#000000;stroke-width:2.0px;stroke-linecap:butt;stroke-linejoin:miter;stroke-opacity:1;"/>
<path class="atom-4" d="M 202.0 164.6 Q 202.0 161.8, 203.4 160.2 Q 204.7 158.7, 207.3 158.7 Q 209.9 158.7, 211.3 160.2 Q 212.7 161.8, 212.7 164.6 Q 212.7 167.5, 211.3 169.1 Q 209.9 170.7, 207.3 170.7 Q 204.8 170.7, 203.4 169.1 Q 202.0 167.5, 202.0 164.6 M 207.3 169.4 Q 209.1 169.4, 210.1 168.2 Q 211.1 167.0, 211.1 164.6 Q 211.1 162.3, 210.1 161.2 Q 209.1 160.0, 207.3 160.0 Q 205.6 160.0, 204.6 161.1 Q 203.6 162.3, 203.6 164.6 Q 203.6 167.0, 204.6 168.2 Q 205.6 169.4, 207.3 169.4 " fill="#FF0000"/>
<path class="atom-4" d="M 214.6 158.8 L 216.1 158.8 L 216.1 163.8 L 222.1 163.8 L 222.1 158.8 L 223.7 158.8 L 223.7 170.5 L 222.1 170.5 L 222.1 165.1 L 216.1 165.1 L 216.1 170.5 L 214.6 170.5 L 214.6 158.8 " fill="#FF0000"/>
<path class="atom-9" d="M 131.3 176.6 Q 131.3 173.8, 132.7 172.3 Q 134.1 170.7, 136.7 170.7 Q 139.3 170.7, 140.6 172.3 Q 142.0 173.8, 142.0 176.6 Q 142.0 179.5, 140.6 181.1 Q 139.2 182.7, 136.7 182.7 Q 134.1 182.7, 132.7 181.1 Q 131.3 179.5, 131.3 176.6 M 136.7 181.4 Q 138.4 181.4, 139.4 180.2 Q 140.4 179.0, 140.4 176.6 Q 140.4 174.3, 139.4 173.2 Q 138.4 172.0, 136.7 172.0 Q 134.9 172.0, 133.9 173.2 Q 132.9 174.3, 132.9 176.6 Q 132.9 179.0, 133.9 180.2 Q 134.9 181.4, 136.7 181.4 " fill="#FF0000"/>
<path class="atom-10" d="M 167.6 139.5 Q 167.6 136.7, 169.0 135.1 Q 170.4 133.5, 173.0 133.5 Q 175.6 133.5, 177.0 135.1 Q 178.4 136.7, 178.4 139.5 Q 178.4 142.3, 177.0 144.0 Q 175.6 145.6, 173.0 145.6 Q 170.4 145.6, 169.0 144.0 Q 167.6 142.4, 167.6 139.5 M 173.0 144.2 Q 174.8 144.2, 175.7 143.1 Q 176.7 141.8, 176.7 139.5 Q 176.7 137.2, 175.7 136.0 Q 174.8 134.9, 173.0 134.9 Q 171.2 134.9, 170.2 136.0 Q 169.3 137.2, 169.3 139.5 Q 169.3 141.9, 170.2 143.1 Q 171.2 144.2, 173.0 144.2 " fill="#FF0000"/>
<path class="atom-10" d="M 180.2 133.7 L 181.8 133.7 L 181.8 138.7 L 187.8 138.7 L 187.8 133.7 L 189.4 133.7 L 189.4 145.4 L 187.8 145.4 L 187.8 140.0 L 181.8 140.0 L 181.8 145.4 L 180.2 145.4 L 180.2 133.7 " fill="#FF0000"/>
<path class="atom-14" d="M 37.6 119.9 Q 37.6 117.0, 39.0 115.5 Q 40.4 113.9, 43.0 113.9 Q 45.6 113.9, 47.0 115.5 Q 48.4 117.0, 48.4 119.9 Q 48.4 122.7, 47.0 124.3 Q 45.6 125.9, 43.0 125.9 Q 40.4 125.9, 39.0 124.3 Q 37.6 122.7, 37.6 119.9 M 43.0 124.6 Q 44.8 124.6, 45.7 123.4 Q 46.7 122.2, 46.7 119.9 Q 46.7 117.6, 45.7 116.4 Q 44.8 115.2, 43.0 115.2 Q 41.2 115.2, 40.2 116.4 Q 39.3 117.5, 39.3 119.9 Q 39.3 122.2, 40.2 123.4 Q 41.2 124.6, 43.0 124.6 " fill="#FF0000"/>
<path class="atom-15" d="M 14.0 43.3 L 15.6 43.3 L 15.6 48.3 L 21.6 48.3 L 21.6 43.3 L 23.2 43.3 L 23.2 55.1 L 21.6 55.1 L 21.6 49.7 L 15.6 49.7 L 15.6 55.1 L 14.0 55.1 L 14.0 43.3 " fill="#FF0000"/>
<path class="atom-15" d="M 25.6 49.2 Q 25.6 46.4, 27.0 44.8 Q 28.4 43.2, 31.0 43.2 Q 33.6 43.2, 35.0 44.8 Q 36.3 46.4, 36.3 49.2 Q 36.3 52.0, 34.9 53.6 Q 33.5 55.2, 31.0 55.2 Q 28.4 55.2, 27.0 53.6 Q 25.6 52.0, 25.6 49.2 M 31.0 53.9 Q 32.7 53.9, 33.7 52.7 Q 34.7 51.5, 34.7 49.2 Q 34.7 46.9, 33.7 45.7 Q 32.7 44.5, 31.0 44.5 Q 29.2 44.5, 28.2 45.7 Q 27.2 46.9, 27.2 49.2 Q 27.2 51.5, 28.2 52.7 Q 29.2 53.9, 31.0 53.9 " fill="#FF0000"/>
<path class="atom-17" d="M 245.1 48.2 Q 245.1 45.3, 246.5 43.8 Q 247.9 42.2, 250.5 42.2 Q 253.1 42.2, 254.5 43.8 Q 255.9 45.3, 255.9 48.2 Q 255.9 51.0, 254.5 52.6 Q 253.1 54.2, 250.5 54.2 Q 247.9 54.2, 246.5 52.6 Q 245.1 51.0, 245.1 48.2 M 250.5 52.9 Q 252.3 52.9, 253.3 51.7 Q 254.2 50.5, 254.2 48.2 Q 254.2 45.9, 253.3 44.7 Q 252.3 43.5, 250.5 43.5 Q 248.7 43.5, 247.7 44.7 Q 246.8 45.8, 246.8 48.2 Q 246.8 50.5, 247.7 51.7 Q 248.7 52.9, 250.5 52.9 " fill="#FF0000"/>
<path class="atom-18" d="M 166.3 17.4 L 167.9 17.4 L 167.9 22.4 L 173.9 22.4 L 173.9 17.4 L 175.5 17.4 L 175.5 29.1 L 173.9 29.1 L 173.9 23.7 L 167.9 23.7 L 167.9 29.1 L 166.3 29.1 L 166.3 17.4 " fill="#FF0000"/>
<path class="atom-18" d="M 177.9 23.2 Q 177.9 20.4, 179.3 18.8 Q 180.7 17.3, 183.3 17.3 Q 185.9 17.3, 187.3 18.8 Q 188.7 20.4, 188.7 23.2 Q 188.7 26.1, 187.2 27.7 Q 185.8 29.3, 183.3 29.3 Q 180.7 29.3, 179.3 27.7 Q 177.9 26.1, 177.9 23.2 M 183.3 28.0 Q 185.1 28.0, 186.0 26.8 Q 187.0 25.6, 187.0 23.2 Q 187.0 20.9, 186.0 19.8 Q 185.1 18.6, 183.3 18.6 Q 181.5 18.6, 180.5 19.8 Q 179.5 20.9, 179.5 23.2 Q 179.5 25.6, 180.5 26.8 Q 181.5 28.0, 183.3 28.0 " fill="#FF0000"/>
</g>
  </g>
</svg>
