<?xml version='1.0' encoding='ASCII' standalone='yes'?>
<svg xmlns="http://www.w3.org/2000/svg" xmlns:xlink="http://www.w3.org/1999/xlink" version="1.1" width="931.0px" viewBox="0 0 931.0 200.0" height="200.0px">
  <g>
    <g transform="translate(0, 0) scale(1 1) "><!-- END OF HEADER -->
<rect style="opacity:1.0;fill:#FFFFFF;stroke:none" width="301.0" height="200.0" x="0.0" y="0.0"> </rect>
<path class="bond-0 atom-0 atom-1" d="M 15.1,95.6 L 41.8,103.0" style="fill:none;fill-rule:evenodd;stroke:#000000;stroke-width:2.0px;stroke-linecap:butt;stroke-linejoin:miter;stroke-opacity:1"/>
<path class="bond-1 atom-1 atom-2" d="M 41.8,103.0 L 34.4,129.7" style="fill:none;fill-rule:evenodd;stroke:#000000;stroke-width:2.0px;stroke-linecap:butt;stroke-linejoin:miter;stroke-opacity:1"/>
<path class="bond-2 atom-2 atom-3" d="M 34.4,129.7 L 41.9,137.3" style="fill:none;fill-rule:evenodd;stroke:#000000;stroke-width:2.0px;stroke-linecap:butt;stroke-linejoin:miter;stroke-opacity:1"/>
<path class="bond-2 atom-2 atom-3" d="M 41.9,137.3 L 49.4,144.9" style="fill:none;fill-rule:evenodd;stroke:#FF0000;stroke-width:2.0px;stroke-linecap:butt;stroke-linejoin:miter;stroke-opacity:1"/>
<path class="bond-3 atom-1 atom-4" d="M 41.8,103.0 L 68.6,110.3" style="fill:none;fill-rule:evenodd;stroke:#000000;stroke-width:2.0px;stroke-linecap:butt;stroke-linejoin:miter;stroke-opacity:1"/>
<path class="bond-4 atom-4 atom-5" d="M 68.6,110.3 L 88.4,90.8" style="fill:none;fill-rule:evenodd;stroke:#000000;stroke-width:2.0px;stroke-linecap:butt;stroke-linejoin:miter;stroke-opacity:1"/>
<path class="bond-5 atom-5 atom-6" d="M 88.4,90.8 L 115.2,98.2" style="fill:none;fill-rule:evenodd;stroke:#000000;stroke-width:2.0px;stroke-linecap:butt;stroke-linejoin:miter;stroke-opacity:1"/>
<path class="bond-6 atom-6 atom-7" d="M 115.2,98.2 L 134.9,78.7" style="fill:none;fill-rule:evenodd;stroke:#000000;stroke-width:2.0px;stroke-linecap:butt;stroke-linejoin:miter;stroke-opacity:1"/>
<path class="bond-7 atom-7 atom-8" d="M 134.9,78.7 L 115.4,59.0" style="fill:none;fill-rule:evenodd;stroke:#000000;stroke-width:2.0px;stroke-linecap:butt;stroke-linejoin:miter;stroke-opacity:1"/>
<path class="bond-8 atom-7 atom-9" d="M 134.9,78.7 L 154.4,98.5" style="fill:none;fill-rule:evenodd;stroke:#000000;stroke-width:2.0px;stroke-linecap:butt;stroke-linejoin:miter;stroke-opacity:1"/>
<path class="bond-9 atom-9 atom-10" d="M 154.4,98.5 L 181.3,91.5" style="fill:none;fill-rule:evenodd;stroke:#000000;stroke-width:2.0px;stroke-linecap:butt;stroke-linejoin:miter;stroke-opacity:1"/>
<path class="bond-10 atom-10 atom-11" d="M 181.3,91.5 L 200.8,111.3" style="fill:none;fill-rule:evenodd;stroke:#000000;stroke-width:2.0px;stroke-linecap:butt;stroke-linejoin:miter;stroke-opacity:1"/>
<path class="bond-11 atom-11 atom-12" d="M 200.8,111.3 L 227.7,104.3" style="fill:none;fill-rule:evenodd;stroke:#000000;stroke-width:2.0px;stroke-linecap:butt;stroke-linejoin:miter;stroke-opacity:1"/>
<path class="bond-12 atom-12 atom-13" d="M 227.7,104.3 L 220.7,77.4" style="fill:none;fill-rule:evenodd;stroke:#000000;stroke-width:2.0px;stroke-linecap:butt;stroke-linejoin:miter;stroke-opacity:1"/>
<path class="bond-13 atom-12 atom-14" d="M 227.7,104.3 L 234.7,131.2" style="fill:none;fill-rule:evenodd;stroke:#000000;stroke-width:2.0px;stroke-linecap:butt;stroke-linejoin:miter;stroke-opacity:1"/>
<path class="bond-14 atom-12 atom-15" d="M 227.7,104.3 L 254.6,97.3" style="fill:none;fill-rule:evenodd;stroke:#000000;stroke-width:2.0px;stroke-linecap:butt;stroke-linejoin:miter;stroke-opacity:1"/>
<path class="bond-15 atom-15 atom-16" d="M 254.6,97.3 L 257.6,86.4" style="fill:none;fill-rule:evenodd;stroke:#000000;stroke-width:2.0px;stroke-linecap:butt;stroke-linejoin:miter;stroke-opacity:1"/>
<path class="bond-15 atom-15 atom-16" d="M 257.6,86.4 L 260.6,75.6" style="fill:none;fill-rule:evenodd;stroke:#FF0000;stroke-width:2.0px;stroke-linecap:butt;stroke-linejoin:miter;stroke-opacity:1"/>
<path class="bond-16 atom-15 atom-17" d="M 254.6,97.3 L 262.0,104.9" style="fill:none;fill-rule:evenodd;stroke:#000000;stroke-width:2.0px;stroke-linecap:butt;stroke-linejoin:miter;stroke-opacity:1"/>
<path class="bond-16 atom-15 atom-17" d="M 262.0,104.9 L 269.5,112.5" style="fill:none;fill-rule:evenodd;stroke:#FF0000;stroke-width:2.0px;stroke-linecap:butt;stroke-linejoin:miter;stroke-opacity:1"/>
<path class="bond-17 atom-7 atom-18" d="M 134.9,78.7 L 154.7,59.2" style="fill:none;fill-rule:evenodd;stroke:#000000;stroke-width:2.0px;stroke-linecap:butt;stroke-linejoin:miter;stroke-opacity:1"/>
<path class="bond-18 atom-18 atom-19" d="M 154.7,59.2 L 151.9,48.3" style="fill:none;fill-rule:evenodd;stroke:#000000;stroke-width:2.0px;stroke-linecap:butt;stroke-linejoin:miter;stroke-opacity:1"/>
<path class="bond-18 atom-18 atom-19" d="M 151.9,48.3 L 149.0,37.4" style="fill:none;fill-rule:evenodd;stroke:#FF0000;stroke-width:2.0px;stroke-linecap:butt;stroke-linejoin:miter;stroke-opacity:1"/>
<path class="bond-19 atom-18 atom-20" d="M 154.7,59.2 L 165.8,62.3" style="fill:none;fill-rule:evenodd;stroke:#000000;stroke-width:2.0px;stroke-linecap:butt;stroke-linejoin:miter;stroke-opacity:1"/>
<path class="bond-19 atom-18 atom-20" d="M 165.8,62.3 L 177.0,65.4" style="fill:none;fill-rule:evenodd;stroke:#FF0000;stroke-width:2.0px;stroke-linecap:butt;stroke-linejoin:miter;stroke-opacity:1"/>
<path class="bond-20 atom-1 atom-21" d="M 41.8,103.0 L 49.2,76.2" style="fill:none;fill-rule:evenodd;stroke:#000000;stroke-width:2.0px;stroke-linecap:butt;stroke-linejoin:miter;stroke-opacity:1"/>
<path class="bond-21 atom-21 atom-22" d="M 51.5,75.6 L 43.6,67.6" style="fill:none;fill-rule:evenodd;stroke:#000000;stroke-width:2.0px;stroke-linecap:butt;stroke-linejoin:miter;stroke-opacity:1"/>
<path class="bond-21 atom-21 atom-22" d="M 43.6,67.6 L 35.7,59.5" style="fill:none;fill-rule:evenodd;stroke:#FF0000;stroke-width:2.0px;stroke-linecap:butt;stroke-linejoin:miter;stroke-opacity:1"/>
<path class="bond-21 atom-21 atom-22" d="M 48.6,78.5 L 40.7,70.5" style="fill:none;fill-rule:evenodd;stroke:#000000;stroke-width:2.0px;stroke-linecap:butt;stroke-linejoin:miter;stroke-opacity:1"/>
<path class="bond-21 atom-21 atom-22" d="M 40.7,70.5 L 32.8,62.5" style="fill:none;fill-rule:evenodd;stroke:#FF0000;stroke-width:2.0px;stroke-linecap:butt;stroke-linejoin:miter;stroke-opacity:1"/>
<path class="bond-22 atom-21 atom-23" d="M 49.2,76.2 L 60.4,73.3" style="fill:none;fill-rule:evenodd;stroke:#000000;stroke-width:2.0px;stroke-linecap:butt;stroke-linejoin:miter;stroke-opacity:1"/>
<path class="bond-22 atom-21 atom-23" d="M 60.4,73.3 L 71.6,70.4" style="fill:none;fill-rule:evenodd;stroke:#FF0000;stroke-width:2.0px;stroke-linecap:butt;stroke-linejoin:miter;stroke-opacity:1"/>
<path d="M 34.8,128.4 L 34.4,129.7 L 34.8,130.1" style="fill:none;stroke:#000000;stroke-width:2.0px;stroke-linecap:butt;stroke-linejoin:miter;stroke-opacity:1;"/>
<path d="M 67.3,110.0 L 68.6,110.3 L 69.6,109.4" style="fill:none;stroke:#000000;stroke-width:2.0px;stroke-linecap:butt;stroke-linejoin:miter;stroke-opacity:1;"/>
<path d="M 87.4,91.8 L 88.4,90.8 L 89.7,91.2" style="fill:none;stroke:#000000;stroke-width:2.0px;stroke-linecap:butt;stroke-linejoin:miter;stroke-opacity:1;"/>
<path d="M 113.8,97.9 L 115.2,98.2 L 116.1,97.3" style="fill:none;stroke:#000000;stroke-width:2.0px;stroke-linecap:butt;stroke-linejoin:miter;stroke-opacity:1;"/>
<path d="M 153.5,97.5 L 154.4,98.5 L 155.8,98.2" style="fill:none;stroke:#000000;stroke-width:2.0px;stroke-linecap:butt;stroke-linejoin:miter;stroke-opacity:1;"/>
<path d="M 180.0,91.9 L 181.3,91.5 L 182.3,92.5" style="fill:none;stroke:#000000;stroke-width:2.0px;stroke-linecap:butt;stroke-linejoin:miter;stroke-opacity:1;"/>
<path d="M 199.8,110.3 L 200.8,111.3 L 202.2,111.0" style="fill:none;stroke:#000000;stroke-width:2.0px;stroke-linecap:butt;stroke-linejoin:miter;stroke-opacity:1;"/>
<path d="M 48.8,77.5 L 49.2,76.2 L 49.8,76.0" style="fill:none;stroke:#000000;stroke-width:2.0px;stroke-linecap:butt;stroke-linejoin:miter;stroke-opacity:1;"/>
<path class="atom-3" d="M 50.3 149.5 Q 50.3 147.7, 51.3 146.6 Q 52.2 145.5, 53.9 145.5 Q 55.7 145.5, 56.6 146.6 Q 57.5 147.7, 57.5 149.5 Q 57.5 151.4, 56.6 152.5 Q 55.7 153.6, 53.9 153.6 Q 52.2 153.6, 51.3 152.5 Q 50.3 151.5, 50.3 149.5 M 53.9 152.7 Q 55.1 152.7, 55.8 151.9 Q 56.4 151.1, 56.4 149.5 Q 56.4 148.0, 55.8 147.2 Q 55.1 146.4, 53.9 146.4 Q 52.7 146.4, 52.1 147.2 Q 51.4 148.0, 51.4 149.5 Q 51.4 151.1, 52.1 151.9 Q 52.7 152.7, 53.9 152.7 " fill="#FF0000"/>
<path class="atom-3" d="M 58.8 145.6 L 59.8 145.6 L 59.8 149.0 L 63.9 149.0 L 63.9 145.6 L 64.9 145.6 L 64.9 153.5 L 63.9 153.5 L 63.9 149.9 L 59.8 149.9 L 59.8 153.5 L 58.8 153.5 L 58.8 145.6 " fill="#FF0000"/>
<path class="atom-16" d="M 258.3 70.6 Q 258.3 68.7, 259.3 67.6 Q 260.2 66.6, 261.9 66.6 Q 263.7 66.6, 264.6 67.6 Q 265.6 68.7, 265.6 70.6 Q 265.6 72.5, 264.6 73.6 Q 263.7 74.6, 261.9 74.6 Q 260.2 74.6, 259.3 73.6 Q 258.3 72.5, 258.3 70.6 M 261.9 73.8 Q 263.1 73.8, 263.8 73.0 Q 264.4 72.1, 264.4 70.6 Q 264.4 69.0, 263.8 68.2 Q 263.1 67.5, 261.9 67.5 Q 260.7 67.5, 260.1 68.2 Q 259.4 69.0, 259.4 70.6 Q 259.4 72.2, 260.1 73.0 Q 260.7 73.8, 261.9 73.8 " fill="#FF0000"/>
<path class="atom-16" d="M 266.8 66.7 L 267.8 66.7 L 267.8 70.0 L 271.9 70.0 L 271.9 66.7 L 272.9 66.7 L 272.9 74.5 L 271.9 74.5 L 271.9 70.9 L 267.8 70.9 L 267.8 74.5 L 266.8 74.5 L 266.8 66.7 " fill="#FF0000"/>
<path class="atom-17" d="M 270.4 117.1 Q 270.4 115.2, 271.4 114.2 Q 272.3 113.1, 274.1 113.1 Q 275.8 113.1, 276.7 114.2 Q 277.7 115.2, 277.7 117.1 Q 277.7 119.0, 276.7 120.1 Q 275.8 121.2, 274.1 121.2 Q 272.3 121.2, 271.4 120.1 Q 270.4 119.0, 270.4 117.1 M 274.1 120.3 Q 275.3 120.3, 275.9 119.5 Q 276.6 118.7, 276.6 117.1 Q 276.6 115.6, 275.9 114.8 Q 275.3 114.0, 274.1 114.0 Q 272.9 114.0, 272.2 114.8 Q 271.6 115.6, 271.6 117.1 Q 271.6 118.7, 272.2 119.5 Q 272.9 120.3, 274.1 120.3 " fill="#FF0000"/>
<path class="atom-17" d="M 278.9 113.2 L 280.0 113.2 L 280.0 116.6 L 284.0 116.6 L 284.0 113.2 L 285.1 113.2 L 285.1 121.1 L 284.0 121.1 L 284.0 117.4 L 280.0 117.4 L 280.0 121.1 L 278.9 121.1 L 278.9 113.2 " fill="#FF0000"/>
<path class="atom-19" d="M 144.1 32.4 Q 144.1 30.5, 145.0 29.4 Q 146.0 28.4, 147.7 28.4 Q 149.5 28.4, 150.4 29.4 Q 151.3 30.5, 151.3 32.4 Q 151.3 34.3, 150.4 35.4 Q 149.4 36.5, 147.7 36.5 Q 146.0 36.5, 145.0 35.4 Q 144.1 34.3, 144.1 32.4 M 147.7 35.6 Q 148.9 35.6, 149.6 34.8 Q 150.2 34.0, 150.2 32.4 Q 150.2 30.8, 149.6 30.1 Q 148.9 29.3, 147.7 29.3 Q 146.5 29.3, 145.9 30.1 Q 145.2 30.8, 145.2 32.4 Q 145.2 34.0, 145.9 34.8 Q 146.5 35.6, 147.7 35.6 " fill="#FF0000"/>
<path class="atom-19" d="M 152.6 28.5 L 153.6 28.5 L 153.6 31.8 L 157.6 31.8 L 157.6 28.5 L 158.7 28.5 L 158.7 36.3 L 157.6 36.3 L 157.6 32.7 L 153.6 32.7 L 153.6 36.3 L 152.6 36.3 L 152.6 28.5 " fill="#FF0000"/>
<path class="atom-20" d="M 177.9 66.6 Q 177.9 64.8, 178.8 63.7 Q 179.7 62.6, 181.5 62.6 Q 183.2 62.6, 184.2 63.7 Q 185.1 64.8, 185.1 66.6 Q 185.1 68.6, 184.2 69.6 Q 183.2 70.7, 181.5 70.7 Q 179.8 70.7, 178.8 69.6 Q 177.9 68.6, 177.9 66.6 M 181.5 69.8 Q 182.7 69.8, 183.3 69.0 Q 184.0 68.2, 184.0 66.6 Q 184.0 65.1, 183.3 64.3 Q 182.7 63.5, 181.5 63.5 Q 180.3 63.5, 179.6 64.3 Q 179.0 65.1, 179.0 66.6 Q 179.0 68.2, 179.6 69.0 Q 180.3 69.8, 181.5 69.8 " fill="#FF0000"/>
<path class="atom-20" d="M 186.3 62.7 L 187.4 62.7 L 187.4 66.1 L 191.4 66.1 L 191.4 62.7 L 192.5 62.7 L 192.5 70.6 L 191.4 70.6 L 191.4 67.0 L 187.4 67.0 L 187.4 70.6 L 186.3 70.6 L 186.3 62.7 " fill="#FF0000"/>
<path class="atom-22" d="M 26.1 56.4 Q 26.1 54.5, 27.0 53.5 Q 28.0 52.4, 29.7 52.4 Q 31.5 52.4, 32.4 53.5 Q 33.3 54.5, 33.3 56.4 Q 33.3 58.3, 32.4 59.4 Q 31.4 60.5, 29.7 60.5 Q 28.0 60.5, 27.0 59.4 Q 26.1 58.3, 26.1 56.4 M 29.7 59.6 Q 30.9 59.6, 31.6 58.8 Q 32.2 58.0, 32.2 56.4 Q 32.2 54.9, 31.6 54.1 Q 30.9 53.3, 29.7 53.3 Q 28.5 53.3, 27.9 54.1 Q 27.2 54.9, 27.2 56.4 Q 27.2 58.0, 27.9 58.8 Q 28.5 59.6, 29.7 59.6 " fill="#FF0000"/>
<path class="atom-23" d="M 72.5 69.2 Q 72.5 67.3, 73.4 66.3 Q 74.3 65.2, 76.1 65.2 Q 77.8 65.2, 78.8 66.3 Q 79.7 67.3, 79.7 69.2 Q 79.7 71.1, 78.8 72.2 Q 77.8 73.3, 76.1 73.3 Q 74.4 73.3, 73.4 72.2 Q 72.5 71.1, 72.5 69.2 M 76.1 72.4 Q 77.3 72.4, 77.9 71.6 Q 78.6 70.8, 78.6 69.2 Q 78.6 67.7, 77.9 66.9 Q 77.3 66.1, 76.1 66.1 Q 74.9 66.1, 74.2 66.9 Q 73.6 67.7, 73.6 69.2 Q 73.6 70.8, 74.2 71.6 Q 74.9 72.4, 76.1 72.4 " fill="#FF0000"/>
<path class="atom-23" d="M 80.9 65.3 L 82.0 65.3 L 82.0 68.6 L 86.0 68.6 L 86.0 65.3 L 87.1 65.3 L 87.1 73.2 L 86.0 73.2 L 86.0 69.5 L 82.0 69.5 L 82.0 73.2 L 80.9 73.2 L 80.9 65.3 " fill="#FF0000"/>
<path class="legend" d="M 141.5 181.9 Q 141.5 179.6, 142.2 177.7 Q 142.9 175.8, 144.2 173.8 L 145.1 174.4 Q 144.0 176.3, 143.5 178.0 Q 143.0 179.7, 143.0 181.9 Q 143.0 184.0, 143.5 185.8 Q 144.0 187.5, 145.1 189.4 L 144.2 190.0 Q 142.9 188.0, 142.2 186.1 Q 141.5 184.2, 141.5 181.9 " fill="#000000"/>
<path class="legend" d="M 146.0 177.3 Q 146.4 176.2, 147.4 175.6 Q 148.4 175.0, 149.8 175.0 Q 151.5 175.0, 152.4 175.9 Q 153.4 176.8, 153.4 178.5 Q 153.4 180.2, 152.1 181.7 Q 150.9 183.3, 148.4 185.2 L 153.6 185.2 L 153.6 186.4 L 146.0 186.4 L 146.0 185.4 Q 148.1 183.9, 149.3 182.8 Q 150.6 181.6, 151.2 180.6 Q 151.8 179.6, 151.8 178.6 Q 151.8 177.5, 151.2 176.9 Q 150.7 176.3, 149.8 176.3 Q 148.8 176.3, 148.2 176.6 Q 147.6 177.0, 147.2 177.8 L 146.0 177.3 " fill="#000000"/>
<path class="legend" d="M 158.6 181.9 Q 158.6 184.2, 157.9 186.1 Q 157.2 188.0, 155.9 190.0 L 155.0 189.4 Q 156.1 187.5, 156.6 185.8 Q 157.1 184.0, 157.1 181.9 Q 157.1 179.7, 156.6 178.0 Q 156.1 176.3, 155.0 174.4 L 155.9 173.8 Q 157.2 175.8, 157.9 177.7 Q 158.6 179.6, 158.6 181.9 " fill="#000000"/>
</g>
    <g transform="translate(301.0, 0) scale(1 1) "><line x1="5" y1="100" x2="35" y2="100" style="stroke:rgb(0,0,0);stroke-width:2"/>
  <line x1="34" y1="100" x2="29" y2="95" style="stroke:rgb(0,0,0);stroke-width:2"/>
  <line x1="34" y1="100" x2="29" y2="105" style="stroke:rgb(0,0,0);stroke-width:2"/>
</g>
    <g transform="translate(341.0, 0) scale(1 1) "><!-- END OF HEADER -->
<rect style="opacity:1.0;fill:#FFFFFF;stroke:none" width="345.0" height="200.0" x="0.0" y="0.0"> </rect>
<path class="bond-0 atom-0 atom-1" d="M 79.8,132.8 L 96.6,143.4" style="fill:none;fill-rule:evenodd;stroke:#000000;stroke-width:2.0px;stroke-linecap:butt;stroke-linejoin:miter;stroke-opacity:1"/>
<path class="bond-1 atom-1 atom-2" d="M 96.6,143.4 L 107.1,126.6" style="fill:none;fill-rule:evenodd;stroke:#000000;stroke-width:2.0px;stroke-linecap:butt;stroke-linejoin:miter;stroke-opacity:1"/>
<path class="bond-2 atom-2 atom-3" d="M 107.1,126.6 L 103.5,119.7" style="fill:none;fill-rule:evenodd;stroke:#000000;stroke-width:2.0px;stroke-linecap:butt;stroke-linejoin:miter;stroke-opacity:1"/>
<path class="bond-2 atom-2 atom-3" d="M 103.5,119.7 L 99.8,112.7" style="fill:none;fill-rule:evenodd;stroke:#FF0000;stroke-width:2.0px;stroke-linecap:butt;stroke-linejoin:miter;stroke-opacity:1"/>
<path class="bond-3 atom-1 atom-4" d="M 96.6,143.4 L 113.3,154.0" style="fill:none;fill-rule:evenodd;stroke:#000000;stroke-width:2.0px;stroke-linecap:butt;stroke-linejoin:miter;stroke-opacity:1"/>
<path class="bond-4 atom-4 atom-5" d="M 113.3,154.0 L 130.9,144.8" style="fill:none;fill-rule:evenodd;stroke:#000000;stroke-width:2.0px;stroke-linecap:butt;stroke-linejoin:miter;stroke-opacity:1"/>
<path class="bond-5 atom-5 atom-6" d="M 130.9,144.8 L 147.6,155.3" style="fill:none;fill-rule:evenodd;stroke:#000000;stroke-width:2.0px;stroke-linecap:butt;stroke-linejoin:miter;stroke-opacity:1"/>
<path class="bond-6 atom-6 atom-7" d="M 147.6,155.3 L 165.2,146.1" style="fill:none;fill-rule:evenodd;stroke:#000000;stroke-width:2.0px;stroke-linecap:butt;stroke-linejoin:miter;stroke-opacity:1"/>
<path class="bond-7 atom-7 atom-8" d="M 165.2,146.1 L 181.9,156.7" style="fill:none;fill-rule:evenodd;stroke:#000000;stroke-width:2.0px;stroke-linecap:butt;stroke-linejoin:miter;stroke-opacity:1"/>
<path class="bond-8 atom-8 atom-9" d="M 181.9,156.7 L 171.3,173.5" style="fill:none;fill-rule:evenodd;stroke:#000000;stroke-width:2.0px;stroke-linecap:butt;stroke-linejoin:miter;stroke-opacity:1"/>
<path class="bond-9 atom-8 atom-10" d="M 181.9,156.7 L 192.5,139.9" style="fill:none;fill-rule:evenodd;stroke:#000000;stroke-width:2.0px;stroke-linecap:butt;stroke-linejoin:miter;stroke-opacity:1"/>
<path class="bond-10 atom-10 atom-11" d="M 192.5,139.9 L 212.3,140.7" style="fill:none;fill-rule:evenodd;stroke:#000000;stroke-width:2.0px;stroke-linecap:butt;stroke-linejoin:miter;stroke-opacity:1"/>
<path class="bond-11 atom-11 atom-12" d="M 212.3,140.7 L 222.9,124.0" style="fill:none;fill-rule:evenodd;stroke:#000000;stroke-width:2.0px;stroke-linecap:butt;stroke-linejoin:miter;stroke-opacity:1"/>
<path class="bond-12 atom-12 atom-13" d="M 222.9,124.0 L 242.7,124.7" style="fill:none;fill-rule:evenodd;stroke:#000000;stroke-width:2.0px;stroke-linecap:butt;stroke-linejoin:miter;stroke-opacity:1"/>
<path class="bond-13 atom-13 atom-14" d="M 242.7,124.7 L 241.9,144.5" style="fill:none;fill-rule:evenodd;stroke:#000000;stroke-width:2.0px;stroke-linecap:butt;stroke-linejoin:miter;stroke-opacity:1"/>
<path class="bond-14 atom-13 atom-15" d="M 242.7,124.7 L 243.5,104.9" style="fill:none;fill-rule:evenodd;stroke:#000000;stroke-width:2.0px;stroke-linecap:butt;stroke-linejoin:miter;stroke-opacity:1"/>
<path class="bond-15 atom-13 atom-16" d="M 242.7,124.7 L 262.5,125.5" style="fill:none;fill-rule:evenodd;stroke:#000000;stroke-width:2.0px;stroke-linecap:butt;stroke-linejoin:miter;stroke-opacity:1"/>
<path class="bond-16 atom-16 atom-17" d="M 262.5,125.5 L 266.2,132.6" style="fill:none;fill-rule:evenodd;stroke:#000000;stroke-width:2.0px;stroke-linecap:butt;stroke-linejoin:miter;stroke-opacity:1"/>
<path class="bond-16 atom-16 atom-17" d="M 266.2,132.6 L 269.9,139.6" style="fill:none;fill-rule:evenodd;stroke:#FF0000;stroke-width:2.0px;stroke-linecap:butt;stroke-linejoin:miter;stroke-opacity:1"/>
<path class="bond-17 atom-16 atom-18" d="M 262.5,125.5 L 266.6,118.9" style="fill:none;fill-rule:evenodd;stroke:#000000;stroke-width:2.0px;stroke-linecap:butt;stroke-linejoin:miter;stroke-opacity:1"/>
<path class="bond-17 atom-16 atom-18" d="M 266.6,118.9 L 270.8,112.4" style="fill:none;fill-rule:evenodd;stroke:#FF0000;stroke-width:2.0px;stroke-linecap:butt;stroke-linejoin:miter;stroke-opacity:1"/>
<path class="bond-18 atom-8 atom-19" d="M 181.9,156.7 L 198.7,167.3" style="fill:none;fill-rule:evenodd;stroke:#000000;stroke-width:2.0px;stroke-linecap:butt;stroke-linejoin:miter;stroke-opacity:1"/>
<path class="bond-19 atom-19 atom-20" d="M 198.7,167.3 L 198.3,175.4" style="fill:none;fill-rule:evenodd;stroke:#000000;stroke-width:2.0px;stroke-linecap:butt;stroke-linejoin:miter;stroke-opacity:1"/>
<path class="bond-19 atom-19 atom-20" d="M 198.3,175.4 L 198.0,183.6" style="fill:none;fill-rule:evenodd;stroke:#FF0000;stroke-width:2.0px;stroke-linecap:butt;stroke-linejoin:miter;stroke-opacity:1"/>
<path class="bond-20 atom-19 atom-21" d="M 198.7,167.3 L 205.8,163.5" style="fill:none;fill-rule:evenodd;stroke:#000000;stroke-width:2.0px;stroke-linecap:butt;stroke-linejoin:miter;stroke-opacity:1"/>
<path class="bond-20 atom-19 atom-21" d="M 205.8,163.5 L 213.0,159.7" style="fill:none;fill-rule:evenodd;stroke:#FF0000;stroke-width:2.0px;stroke-linecap:butt;stroke-linejoin:miter;stroke-opacity:1"/>
<path class="bond-21 atom-5 atom-22" d="M 130.9,144.8 L 131.6,125.0" style="fill:none;fill-rule:evenodd;stroke:#000000;stroke-width:2.0px;stroke-linecap:butt;stroke-linejoin:miter;stroke-opacity:1"/>
<path class="bond-22 atom-22 atom-23" d="M 131.6,125.0 L 149.2,115.7" style="fill:none;fill-rule:evenodd;stroke:#000000;stroke-width:2.0px;stroke-linecap:butt;stroke-linejoin:miter;stroke-opacity:1"/>
<path class="bond-23 atom-23 atom-24" d="M 149.2,115.7 L 158.4,133.3" style="fill:none;fill-rule:evenodd;stroke:#000000;stroke-width:2.0px;stroke-linecap:butt;stroke-linejoin:miter;stroke-opacity:1"/>
<path class="bond-24 atom-23 atom-25" d="M 149.2,115.7 L 140.0,98.2" style="fill:none;fill-rule:evenodd;stroke:#000000;stroke-width:2.0px;stroke-linecap:butt;stroke-linejoin:miter;stroke-opacity:1"/>
<path class="bond-25 atom-25 atom-26" d="M 140.0,98.2 L 150.5,81.4" style="fill:none;fill-rule:evenodd;stroke:#000000;stroke-width:2.0px;stroke-linecap:butt;stroke-linejoin:miter;stroke-opacity:1"/>
<path class="bond-26 atom-26 atom-27" d="M 150.5,81.4 L 141.3,63.9" style="fill:none;fill-rule:evenodd;stroke:#000000;stroke-width:2.0px;stroke-linecap:butt;stroke-linejoin:miter;stroke-opacity:1"/>
<path class="bond-27 atom-27 atom-28" d="M 141.3,63.9 L 151.9,47.1" style="fill:none;fill-rule:evenodd;stroke:#000000;stroke-width:2.0px;stroke-linecap:butt;stroke-linejoin:miter;stroke-opacity:1"/>
<path class="bond-28 atom-28 atom-29" d="M 151.9,47.1 L 168.7,57.7" style="fill:none;fill-rule:evenodd;stroke:#000000;stroke-width:2.0px;stroke-linecap:butt;stroke-linejoin:miter;stroke-opacity:1"/>
<path class="bond-29 atom-28 atom-30" d="M 151.9,47.1 L 135.1,36.6" style="fill:none;fill-rule:evenodd;stroke:#000000;stroke-width:2.0px;stroke-linecap:butt;stroke-linejoin:miter;stroke-opacity:1"/>
<path class="bond-30 atom-28 atom-31" d="M 151.9,47.1 L 162.5,30.4" style="fill:none;fill-rule:evenodd;stroke:#000000;stroke-width:2.0px;stroke-linecap:butt;stroke-linejoin:miter;stroke-opacity:1"/>
<path class="bond-31 atom-31 atom-32" d="M 162.5,30.4 L 170.8,30.7" style="fill:none;fill-rule:evenodd;stroke:#000000;stroke-width:2.0px;stroke-linecap:butt;stroke-linejoin:miter;stroke-opacity:1"/>
<path class="bond-31 atom-31 atom-32" d="M 170.8,30.7 L 179.0,31.0" style="fill:none;fill-rule:evenodd;stroke:#FF0000;stroke-width:2.0px;stroke-linecap:butt;stroke-linejoin:miter;stroke-opacity:1"/>
<path class="bond-32 atom-31 atom-33" d="M 162.5,30.4 L 158.8,23.4" style="fill:none;fill-rule:evenodd;stroke:#000000;stroke-width:2.0px;stroke-linecap:butt;stroke-linejoin:miter;stroke-opacity:1"/>
<path class="bond-32 atom-31 atom-33" d="M 158.8,23.4 L 155.1,16.4" style="fill:none;fill-rule:evenodd;stroke:#FF0000;stroke-width:2.0px;stroke-linecap:butt;stroke-linejoin:miter;stroke-opacity:1"/>
<path class="bond-33 atom-23 atom-34" d="M 149.2,115.7 L 166.7,106.5" style="fill:none;fill-rule:evenodd;stroke:#000000;stroke-width:2.0px;stroke-linecap:butt;stroke-linejoin:miter;stroke-opacity:1"/>
<path class="bond-34 atom-34 atom-35" d="M 166.7,106.5 L 173.5,110.8" style="fill:none;fill-rule:evenodd;stroke:#000000;stroke-width:2.0px;stroke-linecap:butt;stroke-linejoin:miter;stroke-opacity:1"/>
<path class="bond-34 atom-34 atom-35" d="M 173.5,110.8 L 180.2,115.0" style="fill:none;fill-rule:evenodd;stroke:#FF0000;stroke-width:2.0px;stroke-linecap:butt;stroke-linejoin:miter;stroke-opacity:1"/>
<path class="bond-35 atom-34 atom-36" d="M 166.7,106.5 L 167.0,98.4" style="fill:none;fill-rule:evenodd;stroke:#000000;stroke-width:2.0px;stroke-linecap:butt;stroke-linejoin:miter;stroke-opacity:1"/>
<path class="bond-35 atom-34 atom-36" d="M 167.0,98.4 L 167.4,90.3" style="fill:none;fill-rule:evenodd;stroke:#FF0000;stroke-width:2.0px;stroke-linecap:butt;stroke-linejoin:miter;stroke-opacity:1"/>
<path class="bond-36 atom-1 atom-37" d="M 96.6,143.4 L 86.0,160.2" style="fill:none;fill-rule:evenodd;stroke:#000000;stroke-width:2.0px;stroke-linecap:butt;stroke-linejoin:miter;stroke-opacity:1"/>
<path class="bond-37 atom-37 atom-38" d="M 86.9,158.7 L 78.2,158.4" style="fill:none;fill-rule:evenodd;stroke:#000000;stroke-width:2.0px;stroke-linecap:butt;stroke-linejoin:miter;stroke-opacity:1"/>
<path class="bond-37 atom-37 atom-38" d="M 78.2,158.4 L 69.5,158.0" style="fill:none;fill-rule:evenodd;stroke:#FF0000;stroke-width:2.0px;stroke-linecap:butt;stroke-linejoin:miter;stroke-opacity:1"/>
<path class="bond-37 atom-37 atom-38" d="M 86.8,161.7 L 78.1,161.3" style="fill:none;fill-rule:evenodd;stroke:#000000;stroke-width:2.0px;stroke-linecap:butt;stroke-linejoin:miter;stroke-opacity:1"/>
<path class="bond-37 atom-37 atom-38" d="M 78.1,161.3 L 69.3,161.0" style="fill:none;fill-rule:evenodd;stroke:#FF0000;stroke-width:2.0px;stroke-linecap:butt;stroke-linejoin:miter;stroke-opacity:1"/>
<path class="bond-38 atom-37 atom-39" d="M 86.0,160.2 L 89.7,167.2" style="fill:none;fill-rule:evenodd;stroke:#000000;stroke-width:2.0px;stroke-linecap:butt;stroke-linejoin:miter;stroke-opacity:1"/>
<path class="bond-38 atom-37 atom-39" d="M 89.7,167.2 L 93.4,174.2" style="fill:none;fill-rule:evenodd;stroke:#FF0000;stroke-width:2.0px;stroke-linecap:butt;stroke-linejoin:miter;stroke-opacity:1"/>
<path d="M 106.6,127.5 L 107.1,126.6 L 107.0,126.3" style="fill:none;stroke:#000000;stroke-width:2.0px;stroke-linecap:butt;stroke-linejoin:miter;stroke-opacity:1;"/>
<path d="M 112.5,153.4 L 113.3,154.0 L 114.2,153.5" style="fill:none;stroke:#000000;stroke-width:2.0px;stroke-linecap:butt;stroke-linejoin:miter;stroke-opacity:1;"/>
<path d="M 146.8,154.8 L 147.6,155.3 L 148.5,154.9" style="fill:none;stroke:#000000;stroke-width:2.0px;stroke-linecap:butt;stroke-linejoin:miter;stroke-opacity:1;"/>
<path d="M 164.3,146.6 L 165.2,146.1 L 166.0,146.6" style="fill:none;stroke:#000000;stroke-width:2.0px;stroke-linecap:butt;stroke-linejoin:miter;stroke-opacity:1;"/>
<path d="M 192.0,140.8 L 192.5,139.9 L 193.5,140.0" style="fill:none;stroke:#000000;stroke-width:2.0px;stroke-linecap:butt;stroke-linejoin:miter;stroke-opacity:1;"/>
<path d="M 211.3,140.7 L 212.3,140.7 L 212.8,139.9" style="fill:none;stroke:#000000;stroke-width:2.0px;stroke-linecap:butt;stroke-linejoin:miter;stroke-opacity:1;"/>
<path d="M 222.3,124.8 L 222.9,124.0 L 223.9,124.0" style="fill:none;stroke:#000000;stroke-width:2.0px;stroke-linecap:butt;stroke-linejoin:miter;stroke-opacity:1;"/>
<path d="M 131.6,125.9 L 131.6,125.0 L 132.5,124.5" style="fill:none;stroke:#000000;stroke-width:2.0px;stroke-linecap:butt;stroke-linejoin:miter;stroke-opacity:1;"/>
<path d="M 140.4,99.1 L 140.0,98.2 L 140.5,97.4" style="fill:none;stroke:#000000;stroke-width:2.0px;stroke-linecap:butt;stroke-linejoin:miter;stroke-opacity:1;"/>
<path d="M 150.0,82.3 L 150.5,81.4 L 150.1,80.6" style="fill:none;stroke:#000000;stroke-width:2.0px;stroke-linecap:butt;stroke-linejoin:miter;stroke-opacity:1;"/>
<path d="M 141.8,64.8 L 141.3,63.9 L 141.8,63.1" style="fill:none;stroke:#000000;stroke-width:2.0px;stroke-linecap:butt;stroke-linejoin:miter;stroke-opacity:1;"/>
<path d="M 86.5,159.3 L 86.0,160.2 L 86.2,160.5" style="fill:none;stroke:#000000;stroke-width:2.0px;stroke-linecap:butt;stroke-linejoin:miter;stroke-opacity:1;"/>
<path class="atom-3" d="M 89.8 106.3 L 90.6 106.3 L 90.6 108.7 L 93.4 108.7 L 93.4 106.3 L 94.2 106.3 L 94.2 111.9 L 93.4 111.9 L 93.4 109.3 L 90.6 109.3 L 90.6 111.9 L 89.8 111.9 L 89.8 106.3 " fill="#FF0000"/>
<path class="atom-3" d="M 95.3 109.1 Q 95.3 107.8, 96.0 107.0 Q 96.7 106.3, 97.9 106.3 Q 99.2 106.3, 99.8 107.0 Q 100.5 107.8, 100.5 109.1 Q 100.5 110.5, 99.8 111.3 Q 99.1 112.0, 97.9 112.0 Q 96.7 112.0, 96.0 111.3 Q 95.3 110.5, 95.3 109.1 M 97.9 111.4 Q 98.8 111.4, 99.2 110.8 Q 99.7 110.2, 99.7 109.1 Q 99.7 108.0, 99.2 107.5 Q 98.8 106.9, 97.9 106.9 Q 97.1 106.9, 96.6 107.5 Q 96.1 108.0, 96.1 109.1 Q 96.1 110.3, 96.6 110.8 Q 97.1 111.4, 97.9 111.4 " fill="#FF0000"/>
<path class="atom-17" d="M 269.1 143.1 Q 269.1 141.7, 269.8 141.0 Q 270.5 140.2, 271.7 140.2 Q 272.9 140.2, 273.6 141.0 Q 274.3 141.7, 274.3 143.1 Q 274.3 144.5, 273.6 145.2 Q 272.9 146.0, 271.7 146.0 Q 270.5 146.0, 269.8 145.2 Q 269.1 144.5, 269.1 143.1 M 271.7 145.4 Q 272.6 145.4, 273.0 144.8 Q 273.5 144.2, 273.5 143.1 Q 273.5 142.0, 273.0 141.4 Q 272.6 140.9, 271.7 140.9 Q 270.8 140.9, 270.4 141.4 Q 269.9 142.0, 269.9 143.1 Q 269.9 144.2, 270.4 144.8 Q 270.8 145.4, 271.7 145.4 " fill="#FF0000"/>
<path class="atom-17" d="M 275.1 140.3 L 275.9 140.3 L 275.9 142.7 L 278.8 142.7 L 278.8 140.3 L 279.5 140.3 L 279.5 145.9 L 278.8 145.9 L 278.8 143.3 L 275.9 143.3 L 275.9 145.9 L 275.1 145.9 L 275.1 140.3 " fill="#FF0000"/>
<path class="atom-18" d="M 270.5 108.8 Q 270.5 107.4, 271.1 106.7 Q 271.8 105.9, 273.1 105.9 Q 274.3 105.9, 275.0 106.7 Q 275.6 107.4, 275.6 108.8 Q 275.6 110.2, 275.0 110.9 Q 274.3 111.7, 273.1 111.7 Q 271.8 111.7, 271.1 110.9 Q 270.5 110.2, 270.5 108.8 M 273.1 111.1 Q 273.9 111.1, 274.4 110.5 Q 274.8 109.9, 274.8 108.8 Q 274.8 107.7, 274.4 107.1 Q 273.9 106.6, 273.1 106.6 Q 272.2 106.6, 271.7 107.1 Q 271.3 107.7, 271.3 108.8 Q 271.3 109.9, 271.7 110.5 Q 272.2 111.1, 273.1 111.1 " fill="#FF0000"/>
<path class="atom-18" d="M 276.5 106.0 L 277.3 106.0 L 277.3 108.4 L 280.1 108.4 L 280.1 106.0 L 280.9 106.0 L 280.9 111.6 L 280.1 111.6 L 280.1 109.0 L 277.3 109.0 L 277.3 111.6 L 276.5 111.6 L 276.5 106.0 " fill="#FF0000"/>
<path class="atom-20" d="M 195.3 187.1 Q 195.3 185.7, 196.0 185.0 Q 196.6 184.2, 197.9 184.2 Q 199.1 184.2, 199.8 185.0 Q 200.5 185.7, 200.5 187.1 Q 200.5 188.5, 199.8 189.2 Q 199.1 190.0, 197.9 190.0 Q 196.6 190.0, 196.0 189.2 Q 195.3 188.5, 195.3 187.1 M 197.9 189.4 Q 198.7 189.4, 199.2 188.8 Q 199.7 188.2, 199.7 187.1 Q 199.7 186.0, 199.2 185.4 Q 198.7 184.9, 197.9 184.9 Q 197.0 184.9, 196.6 185.4 Q 196.1 186.0, 196.1 187.1 Q 196.1 188.2, 196.6 188.8 Q 197.0 189.4, 197.9 189.4 " fill="#FF0000"/>
<path class="atom-20" d="M 201.3 184.3 L 202.1 184.3 L 202.1 186.7 L 205.0 186.7 L 205.0 184.3 L 205.7 184.3 L 205.7 189.9 L 205.0 189.9 L 205.0 187.3 L 202.1 187.3 L 202.1 189.9 L 201.3 189.9 L 201.3 184.3 " fill="#FF0000"/>
<path class="atom-21" d="M 213.6 158.1 Q 213.6 156.7, 214.3 156.0 Q 215.0 155.2, 216.2 155.2 Q 217.5 155.2, 218.1 156.0 Q 218.8 156.7, 218.8 158.1 Q 218.8 159.4, 218.1 160.2 Q 217.4 161.0, 216.2 161.0 Q 215.0 161.0, 214.3 160.2 Q 213.6 159.4, 213.6 158.1 M 216.2 160.3 Q 217.1 160.3, 217.5 159.8 Q 218.0 159.2, 218.0 158.1 Q 218.0 157.0, 217.5 156.4 Q 217.1 155.8, 216.2 155.8 Q 215.4 155.8, 214.9 156.4 Q 214.4 157.0, 214.4 158.1 Q 214.4 159.2, 214.9 159.8 Q 215.4 160.3, 216.2 160.3 " fill="#FF0000"/>
<path class="atom-21" d="M 219.7 155.3 L 220.4 155.3 L 220.4 157.7 L 223.3 157.7 L 223.3 155.3 L 224.1 155.3 L 224.1 160.9 L 223.3 160.9 L 223.3 158.3 L 220.4 158.3 L 220.4 160.9 L 219.7 160.9 L 219.7 155.3 " fill="#FF0000"/>
<path class="atom-32" d="M 179.7 31.2 Q 179.7 29.8, 180.4 29.1 Q 181.0 28.3, 182.3 28.3 Q 183.5 28.3, 184.2 29.1 Q 184.9 29.8, 184.9 31.2 Q 184.9 32.5, 184.2 33.3 Q 183.5 34.1, 182.3 34.1 Q 181.0 34.1, 180.4 33.3 Q 179.7 32.5, 179.7 31.2 M 182.3 33.5 Q 183.1 33.5, 183.6 32.9 Q 184.1 32.3, 184.1 31.2 Q 184.1 30.1, 183.6 29.5 Q 183.1 29.0, 182.3 29.0 Q 181.4 29.0, 181.0 29.5 Q 180.5 30.1, 180.5 31.2 Q 180.5 32.3, 181.0 32.9 Q 181.4 33.5, 182.3 33.5 " fill="#FF0000"/>
<path class="atom-32" d="M 185.7 28.4 L 186.5 28.4 L 186.5 30.8 L 189.4 30.8 L 189.4 28.4 L 190.1 28.4 L 190.1 34.0 L 189.4 34.0 L 189.4 31.4 L 186.5 31.4 L 186.5 34.0 L 185.7 34.0 L 185.7 28.4 " fill="#FF0000"/>
<path class="atom-33" d="M 145.1 10.1 L 145.9 10.1 L 145.9 12.4 L 148.8 12.4 L 148.8 10.1 L 149.5 10.1 L 149.5 15.7 L 148.8 15.7 L 148.8 13.1 L 145.9 13.1 L 145.9 15.7 L 145.1 15.7 L 145.1 10.1 " fill="#FF0000"/>
<path class="atom-33" d="M 150.7 12.9 Q 150.7 11.5, 151.3 10.8 Q 152.0 10.0, 153.3 10.0 Q 154.5 10.0, 155.2 10.8 Q 155.8 11.5, 155.8 12.9 Q 155.8 14.2, 155.2 15.0 Q 154.5 15.8, 153.3 15.8 Q 152.0 15.8, 151.3 15.0 Q 150.7 14.2, 150.7 12.9 M 153.3 15.1 Q 154.1 15.1, 154.6 14.6 Q 155.0 14.0, 155.0 12.9 Q 155.0 11.8, 154.6 11.2 Q 154.1 10.6, 153.3 10.6 Q 152.4 10.6, 151.9 11.2 Q 151.5 11.7, 151.5 12.9 Q 151.5 14.0, 151.9 14.6 Q 152.4 15.1, 153.3 15.1 " fill="#FF0000"/>
<path class="atom-35" d="M 180.9 117.1 Q 180.9 115.8, 181.6 115.0 Q 182.2 114.3, 183.5 114.3 Q 184.7 114.3, 185.4 115.0 Q 186.1 115.8, 186.1 117.1 Q 186.1 118.5, 185.4 119.2 Q 184.7 120.0, 183.5 120.0 Q 182.2 120.0, 181.6 119.2 Q 180.9 118.5, 180.9 117.1 M 183.5 119.4 Q 184.3 119.4, 184.8 118.8 Q 185.3 118.2, 185.3 117.1 Q 185.3 116.0, 184.8 115.4 Q 184.3 114.9, 183.5 114.9 Q 182.6 114.9, 182.2 115.4 Q 181.7 116.0, 181.7 117.1 Q 181.7 118.2, 182.2 118.8 Q 182.6 119.4, 183.5 119.4 " fill="#FF0000"/>
<path class="atom-35" d="M 186.9 114.3 L 187.7 114.3 L 187.7 116.7 L 190.6 116.7 L 190.6 114.3 L 191.3 114.3 L 191.3 119.9 L 190.6 119.9 L 190.6 117.3 L 187.7 117.3 L 187.7 119.9 L 186.9 119.9 L 186.9 114.3 " fill="#FF0000"/>
<path class="atom-36" d="M 164.9 86.7 Q 164.9 85.4, 165.6 84.6 Q 166.3 83.9, 167.5 83.9 Q 168.8 83.9, 169.4 84.6 Q 170.1 85.4, 170.1 86.7 Q 170.1 88.1, 169.4 88.9 Q 168.7 89.6, 167.5 89.6 Q 166.3 89.6, 165.6 88.9 Q 164.9 88.1, 164.9 86.7 M 167.5 89.0 Q 168.4 89.0, 168.8 88.4 Q 169.3 87.8, 169.3 86.7 Q 169.3 85.6, 168.8 85.1 Q 168.4 84.5, 167.5 84.5 Q 166.7 84.5, 166.2 85.1 Q 165.7 85.6, 165.7 86.7 Q 165.7 87.9, 166.2 88.4 Q 166.7 89.0, 167.5 89.0 " fill="#FF0000"/>
<path class="atom-36" d="M 171.0 83.9 L 171.7 83.9 L 171.7 86.3 L 174.6 86.3 L 174.6 83.9 L 175.3 83.9 L 175.3 89.5 L 174.6 89.5 L 174.6 87.0 L 171.7 87.0 L 171.7 89.5 L 171.0 89.5 L 171.0 83.9 " fill="#FF0000"/>
<path class="atom-38" d="M 63.6 159.4 Q 63.6 158.0, 64.3 157.3 Q 64.9 156.5, 66.2 156.5 Q 67.4 156.5, 68.1 157.3 Q 68.8 158.0, 68.8 159.4 Q 68.8 160.8, 68.1 161.5 Q 67.4 162.3, 66.2 162.3 Q 64.9 162.3, 64.3 161.5 Q 63.6 160.8, 63.6 159.4 M 66.2 161.7 Q 67.0 161.7, 67.5 161.1 Q 68.0 160.5, 68.0 159.4 Q 68.0 158.3, 67.5 157.7 Q 67.0 157.2, 66.2 157.2 Q 65.3 157.2, 64.9 157.7 Q 64.4 158.3, 64.4 159.4 Q 64.4 160.5, 64.9 161.1 Q 65.3 161.7, 66.2 161.7 " fill="#FF0000"/>
<path class="atom-39" d="M 92.6 177.7 Q 92.6 176.4, 93.3 175.6 Q 94.0 174.9, 95.2 174.9 Q 96.4 174.9, 97.1 175.6 Q 97.8 176.4, 97.8 177.7 Q 97.8 179.1, 97.1 179.9 Q 96.4 180.6, 95.2 180.6 Q 94.0 180.6, 93.3 179.9 Q 92.6 179.1, 92.6 177.7 M 95.2 180.0 Q 96.1 180.0, 96.5 179.4 Q 97.0 178.8, 97.0 177.7 Q 97.0 176.6, 96.5 176.1 Q 96.1 175.5, 95.2 175.5 Q 94.3 175.5, 93.9 176.0 Q 93.4 176.6, 93.4 177.7 Q 93.4 178.8, 93.9 179.4 Q 94.3 180.0, 95.2 180.0 " fill="#FF0000"/>
<path class="atom-39" d="M 98.7 174.9 L 99.4 174.9 L 99.4 177.3 L 102.3 177.3 L 102.3 174.9 L 103.0 174.9 L 103.0 180.5 L 102.3 180.5 L 102.3 177.9 L 99.4 177.9 L 99.4 180.5 L 98.7 180.5 L 98.7 174.9 " fill="#FF0000"/>
</g>
    <g transform="translate(686.0, 0) scale(1 1) "><line x1="15" y1="100" x2="25" y2="100" style="stroke:rgb(0,0,0);stroke-width:2"/>
  <line x1="20" y1="95" x2="20" y2="105" style="stroke:rgb(0,0,0);stroke-width:2"/>
</g>
    <g transform="translate(726.0, 0) scale(1 1) "><!-- END OF HEADER -->
<rect style="opacity:1.0;fill:#FFFFFF;stroke:none" width="205.0" height="200.0" x="0.0" y="0.0"> </rect>
<path class="bond-0 atom-0 atom-1" d="M 122.6,44.3 L 108.8,89.2" style="fill:none;fill-rule:evenodd;stroke:#000000;stroke-width:2.0px;stroke-linecap:butt;stroke-linejoin:miter;stroke-opacity:1"/>
<path class="bond-1 atom-1 atom-2" d="M 108.8,89.2 L 95.0,134.1" style="fill:none;fill-rule:evenodd;stroke:#000000;stroke-width:2.0px;stroke-linecap:butt;stroke-linejoin:miter;stroke-opacity:1"/>
<path class="bond-2 atom-1 atom-3" d="M 108.8,89.2 L 63.9,75.4" style="fill:none;fill-rule:evenodd;stroke:#000000;stroke-width:2.0px;stroke-linecap:butt;stroke-linejoin:miter;stroke-opacity:1"/>
<path class="bond-3 atom-3 atom-4" d="M 63.9,75.4 L 50.5,87.9" style="fill:none;fill-rule:evenodd;stroke:#000000;stroke-width:2.0px;stroke-linecap:butt;stroke-linejoin:miter;stroke-opacity:1"/>
<path class="bond-3 atom-3 atom-4" d="M 50.5,87.9 L 37.2,100.3" style="fill:none;fill-rule:evenodd;stroke:#FF0000;stroke-width:2.0px;stroke-linecap:butt;stroke-linejoin:miter;stroke-opacity:1"/>
<path class="bond-4 atom-1 atom-5" d="M 108.8,89.2 L 153.7,103.0" style="fill:none;fill-rule:evenodd;stroke:#000000;stroke-width:2.0px;stroke-linecap:butt;stroke-linejoin:miter;stroke-opacity:1"/>
<path class="bond-5 atom-5 atom-6" d="M 154.7,107.0 L 168.8,93.8" style="fill:none;fill-rule:evenodd;stroke:#000000;stroke-width:2.0px;stroke-linecap:butt;stroke-linejoin:miter;stroke-opacity:1"/>
<path class="bond-5 atom-5 atom-6" d="M 168.8,93.8 L 182.9,80.7" style="fill:none;fill-rule:evenodd;stroke:#FF0000;stroke-width:2.0px;stroke-linecap:butt;stroke-linejoin:miter;stroke-opacity:1"/>
<path class="bond-5 atom-5 atom-6" d="M 149.9,101.8 L 164.0,88.7" style="fill:none;fill-rule:evenodd;stroke:#000000;stroke-width:2.0px;stroke-linecap:butt;stroke-linejoin:miter;stroke-opacity:1"/>
<path class="bond-5 atom-5 atom-6" d="M 164.0,88.7 L 178.1,75.5" style="fill:none;fill-rule:evenodd;stroke:#FF0000;stroke-width:2.0px;stroke-linecap:butt;stroke-linejoin:miter;stroke-opacity:1"/>
<path class="bond-6 atom-5 atom-7" d="M 153.7,103.0 L 158.0,121.7" style="fill:none;fill-rule:evenodd;stroke:#000000;stroke-width:2.0px;stroke-linecap:butt;stroke-linejoin:miter;stroke-opacity:1"/>
<path class="bond-6 atom-5 atom-7" d="M 158.0,121.7 L 162.4,140.5" style="fill:none;fill-rule:evenodd;stroke:#FF0000;stroke-width:2.0px;stroke-linecap:butt;stroke-linejoin:miter;stroke-opacity:1"/>
<path d="M 66.1,76.1 L 63.9,75.4 L 63.2,76.0" style="fill:none;stroke:#000000;stroke-width:2.0px;stroke-linecap:butt;stroke-linejoin:miter;stroke-opacity:1;"/>
<path d="M 151.5,102.3 L 153.7,103.0 L 154.0,103.9" style="fill:none;stroke:#000000;stroke-width:2.0px;stroke-linecap:butt;stroke-linejoin:miter;stroke-opacity:1;"/>
<path class="atom-4" d="M 10.2 100.8 L 12.1 100.8 L 12.1 106.5 L 18.9 106.5 L 18.9 100.8 L 20.7 100.8 L 20.7 114.1 L 18.9 114.1 L 18.9 108.0 L 12.1 108.0 L 12.1 114.1 L 10.2 114.1 L 10.2 100.8 " fill="#FF0000"/>
<path class="atom-4" d="M 23.4 107.5 Q 23.4 104.3, 25.0 102.5 Q 26.5 100.7, 29.5 100.7 Q 32.5 100.7, 34.0 102.5 Q 35.6 104.3, 35.6 107.5 Q 35.6 110.7, 34.0 112.5 Q 32.4 114.4, 29.5 114.4 Q 26.6 114.4, 25.0 112.5 Q 23.4 110.7, 23.4 107.5 M 29.5 112.9 Q 31.5 112.9, 32.6 111.5 Q 33.7 110.1, 33.7 107.5 Q 33.7 104.8, 32.6 103.5 Q 31.5 102.2, 29.5 102.2 Q 27.5 102.2, 26.4 103.5 Q 25.3 104.8, 25.3 107.5 Q 25.3 110.1, 26.4 111.5 Q 27.5 112.9, 29.5 112.9 " fill="#FF0000"/>
<path class="atom-6" d="M 182.0 71.0 Q 182.0 67.8, 183.6 66.0 Q 185.2 64.3, 188.1 64.3 Q 191.1 64.3, 192.7 66.0 Q 194.3 67.8, 194.3 71.0 Q 194.3 74.3, 192.7 76.1 Q 191.1 77.9, 188.1 77.9 Q 185.2 77.9, 183.6 76.1 Q 182.0 74.3, 182.0 71.0 M 188.1 76.4 Q 190.2 76.4, 191.3 75.1 Q 192.4 73.7, 192.4 71.0 Q 192.4 68.4, 191.3 67.1 Q 190.2 65.8, 188.1 65.8 Q 186.1 65.8, 185.0 67.1 Q 183.9 68.4, 183.9 71.0 Q 183.9 73.7, 185.0 75.1 Q 186.1 76.4, 188.1 76.4 " fill="#FF0000"/>
<path class="atom-7" d="M 158.2 148.8 Q 158.2 145.6, 159.7 143.8 Q 161.3 142.1, 164.3 142.1 Q 167.2 142.1, 168.8 143.8 Q 170.4 145.6, 170.4 148.8 Q 170.4 152.1, 168.8 153.9 Q 167.2 155.7, 164.3 155.7 Q 161.3 155.7, 159.7 153.9 Q 158.2 152.1, 158.2 148.8 M 164.3 154.2 Q 166.3 154.2, 167.4 152.9 Q 168.5 151.5, 168.5 148.8 Q 168.5 146.2, 167.4 144.9 Q 166.3 143.6, 164.3 143.6 Q 162.2 143.6, 161.1 144.9 Q 160.0 146.2, 160.0 148.8 Q 160.0 151.5, 161.1 152.9 Q 162.2 154.2, 164.3 154.2 " fill="#FF0000"/>
<path class="atom-7" d="M 172.4 142.2 L 174.2 142.2 L 174.2 147.9 L 181.0 147.9 L 181.0 142.2 L 182.9 142.2 L 182.9 155.5 L 181.0 155.5 L 181.0 149.4 L 174.2 149.4 L 174.2 155.5 L 172.4 155.5 L 172.4 142.2 " fill="#FF0000"/>
</g>
  </g>
</svg>
