<?xml version='1.0' encoding='ASCII' standalone='yes'?>
<svg xmlns="http://www.w3.org/2000/svg" xmlns:xlink="http://www.w3.org/1999/xlink" version="1.1" width="945.0px" viewBox="0 0 945.0 200.0" height="200.0px">
  <g>
    <g transform="translate(0, 0) scale(1 1) "><!-- END OF HEADER -->
<rect style="opacity:1.0;fill:#FFFFFF;stroke:none" width="307.0" height="200.0" x="0.0" y="0.0"> </rect>
<path class="bond-0 atom-0 atom-1" d="M 291.4,99.9 L 265.4,112.0" style="fill:none;fill-rule:evenodd;stroke:#000000;stroke-width:2.0px;stroke-linecap:butt;stroke-linejoin:miter;stroke-opacity:1"/>
<path class="bond-1 atom-1 atom-2" d="M 265.4,112.0 L 241.9,95.6" style="fill:none;fill-rule:evenodd;stroke:#000000;stroke-width:2.0px;stroke-linecap:butt;stroke-linejoin:miter;stroke-opacity:1"/>
<path class="bond-2 atom-2 atom-3" d="M 241.9,95.6 L 225.5,119.1" style="fill:none;fill-rule:evenodd;stroke:#000000;stroke-width:2.0px;stroke-linecap:butt;stroke-linejoin:miter;stroke-opacity:1"/>
<path class="bond-3 atom-3 atom-4" d="M 225.5,119.1 L 213.6,118.0" style="fill:none;fill-rule:evenodd;stroke:#000000;stroke-width:2.0px;stroke-linecap:butt;stroke-linejoin:miter;stroke-opacity:1"/>
<path class="bond-3 atom-3 atom-4" d="M 213.6,118.0 L 201.7,117.0" style="fill:none;fill-rule:evenodd;stroke:#FF0000;stroke-width:2.0px;stroke-linecap:butt;stroke-linejoin:miter;stroke-opacity:1"/>
<path class="bond-4 atom-2 atom-5" d="M 241.9,95.6 L 218.5,79.2" style="fill:none;fill-rule:evenodd;stroke:#000000;stroke-width:2.0px;stroke-linecap:butt;stroke-linejoin:miter;stroke-opacity:1"/>
<path class="bond-5 atom-5 atom-6" d="M 218.5,79.2 L 192.5,91.3" style="fill:none;fill-rule:evenodd;stroke:#000000;stroke-width:2.0px;stroke-linecap:butt;stroke-linejoin:miter;stroke-opacity:1"/>
<path class="bond-6 atom-6 atom-7" d="M 192.5,91.3 L 169.0,74.9" style="fill:none;fill-rule:evenodd;stroke:#000000;stroke-width:2.0px;stroke-linecap:butt;stroke-linejoin:miter;stroke-opacity:1"/>
<path class="bond-7 atom-7 atom-8" d="M 169.0,74.9 L 143.1,87.0" style="fill:none;fill-rule:evenodd;stroke:#000000;stroke-width:2.0px;stroke-linecap:butt;stroke-linejoin:miter;stroke-opacity:1"/>
<path class="bond-8 atom-8 atom-9" d="M 143.1,87.0 L 155.2,113.0" style="fill:none;fill-rule:evenodd;stroke:#000000;stroke-width:2.0px;stroke-linecap:butt;stroke-linejoin:miter;stroke-opacity:1"/>
<path class="bond-9 atom-9 atom-10" d="M 155.2,113.0 L 148.8,122.2" style="fill:none;fill-rule:evenodd;stroke:#000000;stroke-width:2.0px;stroke-linecap:butt;stroke-linejoin:miter;stroke-opacity:1"/>
<path class="bond-9 atom-9 atom-10" d="M 148.8,122.2 L 142.3,131.4" style="fill:none;fill-rule:evenodd;stroke:#FF0000;stroke-width:2.0px;stroke-linecap:butt;stroke-linejoin:miter;stroke-opacity:1"/>
<path class="bond-10 atom-8 atom-11" d="M 143.1,87.0 L 117.2,99.1" style="fill:none;fill-rule:evenodd;stroke:#000000;stroke-width:2.0px;stroke-linecap:butt;stroke-linejoin:miter;stroke-opacity:1"/>
<path class="bond-11 atom-11 atom-12" d="M 117.2,99.1 L 93.7,82.7" style="fill:none;fill-rule:evenodd;stroke:#000000;stroke-width:2.0px;stroke-linecap:butt;stroke-linejoin:miter;stroke-opacity:1"/>
<path class="bond-12 atom-12 atom-13" d="M 93.7,82.7 L 67.7,94.9" style="fill:none;fill-rule:evenodd;stroke:#000000;stroke-width:2.0px;stroke-linecap:butt;stroke-linejoin:miter;stroke-opacity:1"/>
<path class="bond-13 atom-13 atom-14" d="M 67.7,94.9 L 41.8,107.0" style="fill:none;fill-rule:evenodd;stroke:#000000;stroke-width:2.0px;stroke-linecap:butt;stroke-linejoin:miter;stroke-opacity:1"/>
<path class="bond-14 atom-13 atom-15" d="M 67.7,94.9 L 79.9,120.8" style="fill:none;fill-rule:evenodd;stroke:#000000;stroke-width:2.0px;stroke-linecap:butt;stroke-linejoin:miter;stroke-opacity:1"/>
<path class="bond-15 atom-15 atom-16" d="M 79.9,120.8 L 73.4,130.0" style="fill:none;fill-rule:evenodd;stroke:#000000;stroke-width:2.0px;stroke-linecap:butt;stroke-linejoin:miter;stroke-opacity:1"/>
<path class="bond-15 atom-15 atom-16" d="M 73.4,130.0 L 67.0,139.2" style="fill:none;fill-rule:evenodd;stroke:#FF0000;stroke-width:2.0px;stroke-linecap:butt;stroke-linejoin:miter;stroke-opacity:1"/>
<path class="bond-16 atom-13 atom-17" d="M 67.7,94.9 L 55.6,68.9" style="fill:none;fill-rule:evenodd;stroke:#000000;stroke-width:2.0px;stroke-linecap:butt;stroke-linejoin:miter;stroke-opacity:1"/>
<path class="bond-17 atom-17 atom-18" d="M 56.7,71.2 L 63.4,61.5" style="fill:none;fill-rule:evenodd;stroke:#000000;stroke-width:2.0px;stroke-linecap:butt;stroke-linejoin:miter;stroke-opacity:1"/>
<path class="bond-17 atom-17 atom-18" d="M 63.4,61.5 L 70.2,51.8" style="fill:none;fill-rule:evenodd;stroke:#FF0000;stroke-width:2.0px;stroke-linecap:butt;stroke-linejoin:miter;stroke-opacity:1"/>
<path class="bond-17 atom-17 atom-18" d="M 53.1,68.7 L 59.9,59.0" style="fill:none;fill-rule:evenodd;stroke:#000000;stroke-width:2.0px;stroke-linecap:butt;stroke-linejoin:miter;stroke-opacity:1"/>
<path class="bond-17 atom-17 atom-18" d="M 59.9,59.0 L 66.6,49.4" style="fill:none;fill-rule:evenodd;stroke:#FF0000;stroke-width:2.0px;stroke-linecap:butt;stroke-linejoin:miter;stroke-opacity:1"/>
<path class="bond-18 atom-17 atom-19" d="M 55.6,68.9 L 43.7,67.9" style="fill:none;fill-rule:evenodd;stroke:#000000;stroke-width:2.0px;stroke-linecap:butt;stroke-linejoin:miter;stroke-opacity:1"/>
<path class="bond-18 atom-17 atom-19" d="M 43.7,67.9 L 31.8,66.8" style="fill:none;fill-rule:evenodd;stroke:#FF0000;stroke-width:2.0px;stroke-linecap:butt;stroke-linejoin:miter;stroke-opacity:1"/>
<path class="bond-19 atom-8 atom-20" d="M 143.1,87.0 L 131.0,61.1" style="fill:none;fill-rule:evenodd;stroke:#000000;stroke-width:2.0px;stroke-linecap:butt;stroke-linejoin:miter;stroke-opacity:1"/>
<path class="bond-20 atom-20 atom-21" d="M 132.0,63.3 L 138.8,53.7" style="fill:none;fill-rule:evenodd;stroke:#000000;stroke-width:2.0px;stroke-linecap:butt;stroke-linejoin:miter;stroke-opacity:1"/>
<path class="bond-20 atom-20 atom-21" d="M 138.8,53.7 L 145.5,44.0" style="fill:none;fill-rule:evenodd;stroke:#FF0000;stroke-width:2.0px;stroke-linecap:butt;stroke-linejoin:miter;stroke-opacity:1"/>
<path class="bond-20 atom-20 atom-21" d="M 128.5,60.9 L 135.3,51.2" style="fill:none;fill-rule:evenodd;stroke:#000000;stroke-width:2.0px;stroke-linecap:butt;stroke-linejoin:miter;stroke-opacity:1"/>
<path class="bond-20 atom-20 atom-21" d="M 135.3,51.2 L 142.0,41.5" style="fill:none;fill-rule:evenodd;stroke:#FF0000;stroke-width:2.0px;stroke-linecap:butt;stroke-linejoin:miter;stroke-opacity:1"/>
<path class="bond-21 atom-20 atom-22" d="M 131.0,61.1 L 119.0,60.0" style="fill:none;fill-rule:evenodd;stroke:#000000;stroke-width:2.0px;stroke-linecap:butt;stroke-linejoin:miter;stroke-opacity:1"/>
<path class="bond-21 atom-20 atom-22" d="M 119.0,60.0 L 107.1,59.0" style="fill:none;fill-rule:evenodd;stroke:#FF0000;stroke-width:2.0px;stroke-linecap:butt;stroke-linejoin:miter;stroke-opacity:1"/>
<path class="bond-22 atom-2 atom-23" d="M 241.9,95.6 L 258.3,72.1" style="fill:none;fill-rule:evenodd;stroke:#000000;stroke-width:2.0px;stroke-linecap:butt;stroke-linejoin:miter;stroke-opacity:1"/>
<path class="bond-23 atom-23 atom-24" d="M 256.9,74.1 L 269.5,75.2" style="fill:none;fill-rule:evenodd;stroke:#000000;stroke-width:2.0px;stroke-linecap:butt;stroke-linejoin:miter;stroke-opacity:1"/>
<path class="bond-23 atom-23 atom-24" d="M 269.5,75.2 L 282.0,76.3" style="fill:none;fill-rule:evenodd;stroke:#FF0000;stroke-width:2.0px;stroke-linecap:butt;stroke-linejoin:miter;stroke-opacity:1"/>
<path class="bond-23 atom-23 atom-24" d="M 257.3,69.9 L 269.8,70.9" style="fill:none;fill-rule:evenodd;stroke:#000000;stroke-width:2.0px;stroke-linecap:butt;stroke-linejoin:miter;stroke-opacity:1"/>
<path class="bond-23 atom-23 atom-24" d="M 269.8,70.9 L 282.4,72.0" style="fill:none;fill-rule:evenodd;stroke:#FF0000;stroke-width:2.0px;stroke-linecap:butt;stroke-linejoin:miter;stroke-opacity:1"/>
<path class="bond-24 atom-23 atom-25" d="M 258.3,72.1 L 253.5,61.7" style="fill:none;fill-rule:evenodd;stroke:#000000;stroke-width:2.0px;stroke-linecap:butt;stroke-linejoin:miter;stroke-opacity:1"/>
<path class="bond-24 atom-23 atom-25" d="M 253.5,61.7 L 248.6,51.3" style="fill:none;fill-rule:evenodd;stroke:#FF0000;stroke-width:2.0px;stroke-linecap:butt;stroke-linejoin:miter;stroke-opacity:1"/>
<path d="M 266.7,111.4 L 265.4,112.0 L 264.2,111.2" style="fill:none;stroke:#000000;stroke-width:2.0px;stroke-linecap:butt;stroke-linejoin:miter;stroke-opacity:1;"/>
<path d="M 226.3,117.9 L 225.5,119.1 L 224.9,119.0" style="fill:none;stroke:#000000;stroke-width:2.0px;stroke-linecap:butt;stroke-linejoin:miter;stroke-opacity:1;"/>
<path d="M 219.6,80.0 L 218.5,79.2 L 217.2,79.8" style="fill:none;stroke:#000000;stroke-width:2.0px;stroke-linecap:butt;stroke-linejoin:miter;stroke-opacity:1;"/>
<path d="M 193.8,90.7 L 192.5,91.3 L 191.3,90.5" style="fill:none;stroke:#000000;stroke-width:2.0px;stroke-linecap:butt;stroke-linejoin:miter;stroke-opacity:1;"/>
<path d="M 170.2,75.7 L 169.0,74.9 L 167.7,75.5" style="fill:none;stroke:#000000;stroke-width:2.0px;stroke-linecap:butt;stroke-linejoin:miter;stroke-opacity:1;"/>
<path d="M 154.6,111.7 L 155.2,113.0 L 154.9,113.4" style="fill:none;stroke:#000000;stroke-width:2.0px;stroke-linecap:butt;stroke-linejoin:miter;stroke-opacity:1;"/>
<path d="M 118.5,98.5 L 117.2,99.1 L 116.0,98.3" style="fill:none;stroke:#000000;stroke-width:2.0px;stroke-linecap:butt;stroke-linejoin:miter;stroke-opacity:1;"/>
<path d="M 94.9,83.6 L 93.7,82.7 L 92.4,83.3" style="fill:none;stroke:#000000;stroke-width:2.0px;stroke-linecap:butt;stroke-linejoin:miter;stroke-opacity:1;"/>
<path d="M 79.3,119.5 L 79.9,120.8 L 79.5,121.3" style="fill:none;stroke:#000000;stroke-width:2.0px;stroke-linecap:butt;stroke-linejoin:miter;stroke-opacity:1;"/>
<path d="M 56.2,70.2 L 55.6,68.9 L 55.0,68.9" style="fill:none;stroke:#000000;stroke-width:2.0px;stroke-linecap:butt;stroke-linejoin:miter;stroke-opacity:1;"/>
<path d="M 131.6,62.4 L 131.0,61.1 L 130.4,61.0" style="fill:none;stroke:#000000;stroke-width:2.0px;stroke-linecap:butt;stroke-linejoin:miter;stroke-opacity:1;"/>
<path d="M 257.5,73.3 L 258.3,72.1 L 258.1,71.6" style="fill:none;stroke:#000000;stroke-width:2.0px;stroke-linecap:butt;stroke-linejoin:miter;stroke-opacity:1;"/>
<path class="atom-4" d="M 185.3 112.6 L 186.4 112.6 L 186.4 116.0 L 190.5 116.0 L 190.5 112.6 L 191.6 112.6 L 191.6 120.7 L 190.5 120.7 L 190.5 116.9 L 186.4 116.9 L 186.4 120.7 L 185.3 120.7 L 185.3 112.6 " fill="#FF0000"/>
<path class="atom-4" d="M 193.3 116.6 Q 193.3 114.7, 194.2 113.6 Q 195.2 112.5, 197.0 112.5 Q 198.8 112.5, 199.8 113.6 Q 200.7 114.7, 200.7 116.6 Q 200.7 118.6, 199.7 119.7 Q 198.8 120.8, 197.0 120.8 Q 195.2 120.8, 194.2 119.7 Q 193.3 118.6, 193.3 116.6 M 197.0 119.9 Q 198.2 119.9, 198.9 119.1 Q 199.6 118.2, 199.6 116.6 Q 199.6 115.0, 198.9 114.2 Q 198.2 113.4, 197.0 113.4 Q 195.8 113.4, 195.1 114.2 Q 194.4 115.0, 194.4 116.6 Q 194.4 118.2, 195.1 119.1 Q 195.8 119.9, 197.0 119.9 " fill="#FF0000"/>
<path class="atom-10" d="M 127.1 132.4 L 128.2 132.4 L 128.2 135.9 L 132.3 135.9 L 132.3 132.4 L 133.4 132.4 L 133.4 140.5 L 132.3 140.5 L 132.3 136.8 L 128.2 136.8 L 128.2 140.5 L 127.1 140.5 L 127.1 132.4 " fill="#FF0000"/>
<path class="atom-10" d="M 135.1 136.5 Q 135.1 134.5, 136.1 133.4 Q 137.0 132.3, 138.8 132.3 Q 140.6 132.3, 141.6 133.4 Q 142.5 134.5, 142.5 136.5 Q 142.5 138.4, 141.6 139.5 Q 140.6 140.7, 138.8 140.7 Q 137.0 140.7, 136.1 139.5 Q 135.1 138.4, 135.1 136.5 M 138.8 139.7 Q 140.1 139.7, 140.7 138.9 Q 141.4 138.1, 141.4 136.5 Q 141.4 134.9, 140.7 134.1 Q 140.1 133.2, 138.8 133.2 Q 137.6 133.2, 136.9 134.1 Q 136.2 134.9, 136.2 136.5 Q 136.2 138.1, 136.9 138.9 Q 137.6 139.7, 138.8 139.7 " fill="#FF0000"/>
<path class="atom-16" d="M 51.7 140.3 L 52.8 140.3 L 52.8 143.7 L 57.0 143.7 L 57.0 140.3 L 58.1 140.3 L 58.1 148.4 L 57.0 148.4 L 57.0 144.6 L 52.8 144.6 L 52.8 148.4 L 51.7 148.4 L 51.7 140.3 " fill="#FF0000"/>
<path class="atom-16" d="M 59.7 144.3 Q 59.7 142.4, 60.7 141.3 Q 61.7 140.2, 63.5 140.2 Q 65.3 140.2, 66.2 141.3 Q 67.2 142.4, 67.2 144.3 Q 67.2 146.3, 66.2 147.4 Q 65.2 148.5, 63.5 148.5 Q 61.7 148.5, 60.7 147.4 Q 59.7 146.3, 59.7 144.3 M 63.5 147.6 Q 64.7 147.6, 65.4 146.8 Q 66.0 145.9, 66.0 144.3 Q 66.0 142.7, 65.4 141.9 Q 64.7 141.1, 63.5 141.1 Q 62.2 141.1, 61.5 141.9 Q 60.9 142.7, 60.9 144.3 Q 60.9 145.9, 61.5 146.8 Q 62.2 147.6, 63.5 147.6 " fill="#FF0000"/>
<path class="atom-18" d="M 68.3 45.5 Q 68.3 43.5, 69.3 42.4 Q 70.2 41.3, 72.0 41.3 Q 73.8 41.3, 74.8 42.4 Q 75.7 43.5, 75.7 45.5 Q 75.7 47.4, 74.8 48.6 Q 73.8 49.7, 72.0 49.7 Q 70.2 49.7, 69.3 48.6 Q 68.3 47.4, 68.3 45.5 M 72.0 48.8 Q 73.3 48.8, 73.9 47.9 Q 74.6 47.1, 74.6 45.5 Q 74.6 43.9, 73.9 43.1 Q 73.3 42.3, 72.0 42.3 Q 70.8 42.3, 70.1 43.1 Q 69.4 43.9, 69.4 45.5 Q 69.4 47.1, 70.1 47.9 Q 70.8 48.8, 72.0 48.8 " fill="#FF0000"/>
<path class="atom-19" d="M 15.3 62.4 L 16.4 62.4 L 16.4 65.9 L 20.6 65.9 L 20.6 62.4 L 21.7 62.4 L 21.7 70.5 L 20.6 70.5 L 20.6 66.8 L 16.4 66.8 L 16.4 70.5 L 15.3 70.5 L 15.3 62.4 " fill="#FF0000"/>
<path class="atom-19" d="M 23.4 66.5 Q 23.4 64.5, 24.3 63.4 Q 25.3 62.3, 27.1 62.3 Q 28.9 62.3, 29.8 63.4 Q 30.8 64.5, 30.8 66.5 Q 30.8 68.4, 29.8 69.6 Q 28.9 70.7, 27.1 70.7 Q 25.3 70.7, 24.3 69.6 Q 23.4 68.4, 23.4 66.5 M 27.1 69.8 Q 28.3 69.8, 29.0 68.9 Q 29.7 68.1, 29.7 66.5 Q 29.7 64.9, 29.0 64.1 Q 28.3 63.3, 27.1 63.3 Q 25.8 63.3, 25.2 64.1 Q 24.5 64.9, 24.5 66.5 Q 24.5 68.1, 25.2 68.9 Q 25.8 69.8, 27.1 69.8 " fill="#FF0000"/>
<path class="atom-21" d="M 143.7 37.6 Q 143.7 35.7, 144.6 34.6 Q 145.6 33.5, 147.4 33.5 Q 149.2 33.5, 150.1 34.6 Q 151.1 35.7, 151.1 37.6 Q 151.1 39.6, 150.1 40.7 Q 149.2 41.8, 147.4 41.8 Q 145.6 41.8, 144.6 40.7 Q 143.7 39.6, 143.7 37.6 M 147.4 40.9 Q 148.6 40.9, 149.3 40.1 Q 150.0 39.2, 150.0 37.6 Q 150.0 36.0, 149.3 35.2 Q 148.6 34.4, 147.4 34.4 Q 146.1 34.4, 145.5 35.2 Q 144.8 36.0, 144.8 37.6 Q 144.8 39.3, 145.5 40.1 Q 146.1 40.9, 147.4 40.9 " fill="#FF0000"/>
<path class="atom-22" d="M 90.7 54.6 L 91.8 54.6 L 91.8 58.0 L 96.0 58.0 L 96.0 54.6 L 97.1 54.6 L 97.1 62.7 L 96.0 62.7 L 96.0 59.0 L 91.8 59.0 L 91.8 62.7 L 90.7 62.7 L 90.7 54.6 " fill="#FF0000"/>
<path class="atom-22" d="M 98.7 58.6 Q 98.7 56.7, 99.7 55.6 Q 100.6 54.5, 102.4 54.5 Q 104.2 54.5, 105.2 55.6 Q 106.2 56.7, 106.2 58.6 Q 106.2 60.6, 105.2 61.7 Q 104.2 62.8, 102.4 62.8 Q 100.7 62.8, 99.7 61.7 Q 98.7 60.6, 98.7 58.6 M 102.4 61.9 Q 103.7 61.9, 104.3 61.1 Q 105.0 60.2, 105.0 58.6 Q 105.0 57.0, 104.3 56.2 Q 103.7 55.4, 102.4 55.4 Q 101.2 55.4, 100.5 56.2 Q 99.9 57.0, 99.9 58.6 Q 99.9 60.3, 100.5 61.1 Q 101.2 61.9, 102.4 61.9 " fill="#FF0000"/>
<path class="atom-24" d="M 283.1 74.6 Q 283.1 72.7, 284.1 71.6 Q 285.1 70.5, 286.9 70.5 Q 288.7 70.5, 289.6 71.6 Q 290.6 72.7, 290.6 74.6 Q 290.6 76.6, 289.6 77.7 Q 288.6 78.8, 286.9 78.8 Q 285.1 78.8, 284.1 77.7 Q 283.1 76.6, 283.1 74.6 M 286.9 77.9 Q 288.1 77.9, 288.8 77.1 Q 289.4 76.2, 289.4 74.6 Q 289.4 73.0, 288.8 72.2 Q 288.1 71.4, 286.9 71.4 Q 285.6 71.4, 285.0 72.2 Q 284.3 73.0, 284.3 74.6 Q 284.3 76.2, 285.0 77.1 Q 285.6 77.9, 286.9 77.9 " fill="#FF0000"/>
<path class="atom-25" d="M 234.5 42.2 L 235.6 42.2 L 235.6 45.6 L 239.7 45.6 L 239.7 42.2 L 240.8 42.2 L 240.8 50.3 L 239.7 50.3 L 239.7 46.5 L 235.6 46.5 L 235.6 50.3 L 234.5 50.3 L 234.5 42.2 " fill="#FF0000"/>
<path class="atom-25" d="M 242.5 46.2 Q 242.5 44.2, 243.5 43.2 Q 244.4 42.1, 246.2 42.1 Q 248.0 42.1, 249.0 43.2 Q 249.9 44.2, 249.9 46.2 Q 249.9 48.2, 249.0 49.3 Q 248.0 50.4, 246.2 50.4 Q 244.4 50.4, 243.5 49.3 Q 242.5 48.2, 242.5 46.2 M 246.2 49.5 Q 247.5 49.5, 248.1 48.6 Q 248.8 47.8, 248.8 46.2 Q 248.8 44.6, 248.1 43.8 Q 247.5 43.0, 246.2 43.0 Q 245.0 43.0, 244.3 43.8 Q 243.6 44.6, 243.6 46.2 Q 243.6 47.8, 244.3 48.6 Q 245.0 49.5, 246.2 49.5 " fill="#FF0000"/>
<path class="legend" d="M 144.8 181.9 Q 144.8 179.6, 145.5 177.7 Q 146.2 175.8, 147.5 173.8 L 148.4 174.4 Q 147.3 176.3, 146.8 178.0 Q 146.3 179.7, 146.3 181.9 Q 146.3 184.0, 146.8 185.8 Q 147.3 187.5, 148.4 189.4 L 147.5 190.0 Q 146.2 188.0, 145.5 186.1 Q 144.8 184.2, 144.8 181.9 " fill="#000000"/>
<path class="legend" d="M 149.3 177.3 Q 149.7 176.2, 150.7 175.6 Q 151.7 175.0, 153.1 175.0 Q 154.8 175.0, 155.7 175.9 Q 156.7 176.8, 156.7 178.5 Q 156.7 180.2, 155.4 181.7 Q 154.2 183.3, 151.7 185.2 L 156.9 185.2 L 156.9 186.4 L 149.3 186.4 L 149.3 185.4 Q 151.4 183.9, 152.6 182.8 Q 153.9 181.6, 154.5 180.6 Q 155.1 179.6, 155.1 178.6 Q 155.1 177.5, 154.6 176.9 Q 154.0 176.3, 153.1 176.3 Q 152.2 176.3, 151.5 176.6 Q 150.9 177.0, 150.5 177.8 L 149.3 177.3 " fill="#000000"/>
<path class="legend" d="M 161.9 181.9 Q 161.9 184.2, 161.2 186.1 Q 160.5 188.0, 159.2 190.0 L 158.3 189.4 Q 159.4 187.5, 159.9 185.8 Q 160.4 184.0, 160.4 181.9 Q 160.4 179.7, 159.9 178.0 Q 159.4 176.3, 158.3 174.4 L 159.2 173.8 Q 160.5 175.8, 161.2 177.7 Q 161.9 179.6, 161.9 181.9 " fill="#000000"/>
</g>
    <g transform="translate(307.0, 0) scale(1 1) "><line x1="5" y1="100" x2="35" y2="100" style="stroke:rgb(0,0,0);stroke-width:2"/>
  <line x1="34" y1="100" x2="29" y2="95" style="stroke:rgb(0,0,0);stroke-width:2"/>
  <line x1="34" y1="100" x2="29" y2="105" style="stroke:rgb(0,0,0);stroke-width:2"/>
</g>
    <g transform="translate(347.0, 0) scale(1 1) "><!-- END OF HEADER -->
<rect style="opacity:1.0;fill:#FFFFFF;stroke:none" width="353.0" height="200.0" x="0.0" y="0.0"> </rect>
<path class="bond-0 atom-0 atom-1" d="M 17.7,102.6 L 35.4,112.1" style="fill:none;fill-rule:evenodd;stroke:#000000;stroke-width:2.0px;stroke-linecap:butt;stroke-linejoin:miter;stroke-opacity:1"/>
<path class="bond-1 atom-1 atom-2" d="M 35.4,112.1 L 52.4,101.4" style="fill:none;fill-rule:evenodd;stroke:#000000;stroke-width:2.0px;stroke-linecap:butt;stroke-linejoin:miter;stroke-opacity:1"/>
<path class="bond-2 atom-2 atom-3" d="M 52.4,101.4 L 63.1,118.5" style="fill:none;fill-rule:evenodd;stroke:#000000;stroke-width:2.0px;stroke-linecap:butt;stroke-linejoin:miter;stroke-opacity:1"/>
<path class="bond-3 atom-3 atom-4" d="M 63.1,118.5 L 59.3,125.6" style="fill:none;fill-rule:evenodd;stroke:#000000;stroke-width:2.0px;stroke-linecap:butt;stroke-linejoin:miter;stroke-opacity:1"/>
<path class="bond-3 atom-3 atom-4" d="M 59.3,125.6 L 55.6,132.7" style="fill:none;fill-rule:evenodd;stroke:#FF0000;stroke-width:2.0px;stroke-linecap:butt;stroke-linejoin:miter;stroke-opacity:1"/>
<path class="bond-4 atom-2 atom-5" d="M 52.4,101.4 L 69.5,90.8" style="fill:none;fill-rule:evenodd;stroke:#000000;stroke-width:2.0px;stroke-linecap:butt;stroke-linejoin:miter;stroke-opacity:1"/>
<path class="bond-5 atom-5 atom-6" d="M 69.5,90.8 L 87.2,100.2" style="fill:none;fill-rule:evenodd;stroke:#000000;stroke-width:2.0px;stroke-linecap:butt;stroke-linejoin:miter;stroke-opacity:1"/>
<path class="bond-6 atom-6 atom-7" d="M 87.2,100.2 L 104.3,89.5" style="fill:none;fill-rule:evenodd;stroke:#000000;stroke-width:2.0px;stroke-linecap:butt;stroke-linejoin:miter;stroke-opacity:1"/>
<path class="bond-7 atom-7 atom-8" d="M 104.3,89.5 L 122.0,98.9" style="fill:none;fill-rule:evenodd;stroke:#000000;stroke-width:2.0px;stroke-linecap:butt;stroke-linejoin:miter;stroke-opacity:1"/>
<path class="bond-8 atom-8 atom-9" d="M 122.0,98.9 L 131.4,81.2" style="fill:none;fill-rule:evenodd;stroke:#000000;stroke-width:2.0px;stroke-linecap:butt;stroke-linejoin:miter;stroke-opacity:1"/>
<path class="bond-9 atom-9 atom-10" d="M 131.4,81.2 L 127.2,74.5" style="fill:none;fill-rule:evenodd;stroke:#000000;stroke-width:2.0px;stroke-linecap:butt;stroke-linejoin:miter;stroke-opacity:1"/>
<path class="bond-9 atom-9 atom-10" d="M 127.2,74.5 L 123.1,67.8" style="fill:none;fill-rule:evenodd;stroke:#FF0000;stroke-width:2.0px;stroke-linecap:butt;stroke-linejoin:miter;stroke-opacity:1"/>
<path class="bond-10 atom-8 atom-11" d="M 122.0,98.9 L 139.8,108.4" style="fill:none;fill-rule:evenodd;stroke:#000000;stroke-width:2.0px;stroke-linecap:butt;stroke-linejoin:miter;stroke-opacity:1"/>
<path class="bond-11 atom-11 atom-12" d="M 139.8,108.4 L 156.8,97.7" style="fill:none;fill-rule:evenodd;stroke:#000000;stroke-width:2.0px;stroke-linecap:butt;stroke-linejoin:miter;stroke-opacity:1"/>
<path class="bond-12 atom-12 atom-13" d="M 156.8,97.7 L 156.1,77.6" style="fill:none;fill-rule:evenodd;stroke:#000000;stroke-width:2.0px;stroke-linecap:butt;stroke-linejoin:miter;stroke-opacity:1"/>
<path class="bond-13 atom-12 atom-14" d="M 156.8,97.7 L 174.6,107.1" style="fill:none;fill-rule:evenodd;stroke:#000000;stroke-width:2.0px;stroke-linecap:butt;stroke-linejoin:miter;stroke-opacity:1"/>
<path class="bond-14 atom-14 atom-15" d="M 174.6,107.1 L 165.1,124.9" style="fill:none;fill-rule:evenodd;stroke:#000000;stroke-width:2.0px;stroke-linecap:butt;stroke-linejoin:miter;stroke-opacity:1"/>
<path class="bond-15 atom-15 atom-16" d="M 165.1,124.9 L 169.3,131.6" style="fill:none;fill-rule:evenodd;stroke:#000000;stroke-width:2.0px;stroke-linecap:butt;stroke-linejoin:miter;stroke-opacity:1"/>
<path class="bond-15 atom-15 atom-16" d="M 169.3,131.6 L 173.6,138.4" style="fill:none;fill-rule:evenodd;stroke:#FF0000;stroke-width:2.0px;stroke-linecap:butt;stroke-linejoin:miter;stroke-opacity:1"/>
<path class="bond-16 atom-14 atom-17" d="M 174.6,107.1 L 192.3,116.6" style="fill:none;fill-rule:evenodd;stroke:#000000;stroke-width:2.0px;stroke-linecap:butt;stroke-linejoin:miter;stroke-opacity:1"/>
<path class="bond-17 atom-17 atom-18" d="M 192.3,116.6 L 209.3,105.9" style="fill:none;fill-rule:evenodd;stroke:#000000;stroke-width:2.0px;stroke-linecap:butt;stroke-linejoin:miter;stroke-opacity:1"/>
<path class="bond-18 atom-18 atom-19" d="M 209.3,105.9 L 227.1,115.3" style="fill:none;fill-rule:evenodd;stroke:#000000;stroke-width:2.0px;stroke-linecap:butt;stroke-linejoin:miter;stroke-opacity:1"/>
<path class="bond-19 atom-19 atom-20" d="M 227.1,115.3 L 244.1,104.7" style="fill:none;fill-rule:evenodd;stroke:#000000;stroke-width:2.0px;stroke-linecap:butt;stroke-linejoin:miter;stroke-opacity:1"/>
<path class="bond-20 atom-20 atom-21" d="M 244.1,104.7 L 233.5,87.6" style="fill:none;fill-rule:evenodd;stroke:#000000;stroke-width:2.0px;stroke-linecap:butt;stroke-linejoin:miter;stroke-opacity:1"/>
<path class="bond-21 atom-21 atom-22" d="M 233.5,87.6 L 237.2,80.6" style="fill:none;fill-rule:evenodd;stroke:#000000;stroke-width:2.0px;stroke-linecap:butt;stroke-linejoin:miter;stroke-opacity:1"/>
<path class="bond-21 atom-21 atom-22" d="M 237.2,80.6 L 241.0,73.5" style="fill:none;fill-rule:evenodd;stroke:#FF0000;stroke-width:2.0px;stroke-linecap:butt;stroke-linejoin:miter;stroke-opacity:1"/>
<path class="bond-22 atom-20 atom-23" d="M 244.1,104.7 L 261.2,94.0" style="fill:none;fill-rule:evenodd;stroke:#000000;stroke-width:2.0px;stroke-linecap:butt;stroke-linejoin:miter;stroke-opacity:1"/>
<path class="bond-23 atom-23 atom-24" d="M 261.2,94.0 L 278.9,103.4" style="fill:none;fill-rule:evenodd;stroke:#000000;stroke-width:2.0px;stroke-linecap:butt;stroke-linejoin:miter;stroke-opacity:1"/>
<path class="bond-24 atom-24 atom-25" d="M 278.9,103.4 L 296.0,92.8" style="fill:none;fill-rule:evenodd;stroke:#000000;stroke-width:2.0px;stroke-linecap:butt;stroke-linejoin:miter;stroke-opacity:1"/>
<path class="bond-25 atom-25 atom-26" d="M 296.0,92.8 L 313.0,82.1" style="fill:none;fill-rule:evenodd;stroke:#000000;stroke-width:2.0px;stroke-linecap:butt;stroke-linejoin:miter;stroke-opacity:1"/>
<path class="bond-26 atom-25 atom-27" d="M 296.0,92.8 L 285.3,75.7" style="fill:none;fill-rule:evenodd;stroke:#000000;stroke-width:2.0px;stroke-linecap:butt;stroke-linejoin:miter;stroke-opacity:1"/>
<path class="bond-27 atom-27 atom-28" d="M 285.3,75.7 L 289.0,68.7" style="fill:none;fill-rule:evenodd;stroke:#000000;stroke-width:2.0px;stroke-linecap:butt;stroke-linejoin:miter;stroke-opacity:1"/>
<path class="bond-27 atom-27 atom-28" d="M 289.0,68.7 L 292.8,61.6" style="fill:none;fill-rule:evenodd;stroke:#FF0000;stroke-width:2.0px;stroke-linecap:butt;stroke-linejoin:miter;stroke-opacity:1"/>
<path class="bond-28 atom-25 atom-29" d="M 296.0,92.8 L 306.6,109.8" style="fill:none;fill-rule:evenodd;stroke:#000000;stroke-width:2.0px;stroke-linecap:butt;stroke-linejoin:miter;stroke-opacity:1"/>
<path class="bond-29 atom-29 atom-30" d="M 305.7,108.3 L 301.7,115.8" style="fill:none;fill-rule:evenodd;stroke:#000000;stroke-width:2.0px;stroke-linecap:butt;stroke-linejoin:miter;stroke-opacity:1"/>
<path class="bond-29 atom-29 atom-30" d="M 301.7,115.8 L 297.7,123.3" style="fill:none;fill-rule:evenodd;stroke:#FF0000;stroke-width:2.0px;stroke-linecap:butt;stroke-linejoin:miter;stroke-opacity:1"/>
<path class="bond-29 atom-29 atom-30" d="M 308.4,109.8 L 304.4,117.2" style="fill:none;fill-rule:evenodd;stroke:#000000;stroke-width:2.0px;stroke-linecap:butt;stroke-linejoin:miter;stroke-opacity:1"/>
<path class="bond-29 atom-29 atom-30" d="M 304.4,117.2 L 300.4,124.7" style="fill:none;fill-rule:evenodd;stroke:#FF0000;stroke-width:2.0px;stroke-linecap:butt;stroke-linejoin:miter;stroke-opacity:1"/>
<path class="bond-30 atom-29 atom-31" d="M 306.6,109.8 L 315.0,109.5" style="fill:none;fill-rule:evenodd;stroke:#000000;stroke-width:2.0px;stroke-linecap:butt;stroke-linejoin:miter;stroke-opacity:1"/>
<path class="bond-30 atom-29 atom-31" d="M 315.0,109.5 L 323.4,109.2" style="fill:none;fill-rule:evenodd;stroke:#FF0000;stroke-width:2.0px;stroke-linecap:butt;stroke-linejoin:miter;stroke-opacity:1"/>
<path class="bond-31 atom-20 atom-32" d="M 244.1,104.7 L 254.8,121.7" style="fill:none;fill-rule:evenodd;stroke:#000000;stroke-width:2.0px;stroke-linecap:butt;stroke-linejoin:miter;stroke-opacity:1"/>
<path class="bond-32 atom-32 atom-33" d="M 253.9,120.2 L 249.9,127.7" style="fill:none;fill-rule:evenodd;stroke:#000000;stroke-width:2.0px;stroke-linecap:butt;stroke-linejoin:miter;stroke-opacity:1"/>
<path class="bond-32 atom-32 atom-33" d="M 249.9,127.7 L 245.9,135.2" style="fill:none;fill-rule:evenodd;stroke:#FF0000;stroke-width:2.0px;stroke-linecap:butt;stroke-linejoin:miter;stroke-opacity:1"/>
<path class="bond-32 atom-32 atom-33" d="M 256.5,121.6 L 252.6,129.1" style="fill:none;fill-rule:evenodd;stroke:#000000;stroke-width:2.0px;stroke-linecap:butt;stroke-linejoin:miter;stroke-opacity:1"/>
<path class="bond-32 atom-32 atom-33" d="M 252.6,129.1 L 248.6,136.6" style="fill:none;fill-rule:evenodd;stroke:#FF0000;stroke-width:2.0px;stroke-linecap:butt;stroke-linejoin:miter;stroke-opacity:1"/>
<path class="bond-33 atom-32 atom-34" d="M 254.8,121.7 L 263.2,121.4" style="fill:none;fill-rule:evenodd;stroke:#000000;stroke-width:2.0px;stroke-linecap:butt;stroke-linejoin:miter;stroke-opacity:1"/>
<path class="bond-33 atom-32 atom-34" d="M 263.2,121.4 L 271.6,121.1" style="fill:none;fill-rule:evenodd;stroke:#FF0000;stroke-width:2.0px;stroke-linecap:butt;stroke-linejoin:miter;stroke-opacity:1"/>
<path class="bond-34 atom-14 atom-35" d="M 174.6,107.1 L 184.0,89.4" style="fill:none;fill-rule:evenodd;stroke:#000000;stroke-width:2.0px;stroke-linecap:butt;stroke-linejoin:miter;stroke-opacity:1"/>
<path class="bond-35 atom-35 atom-36" d="M 185.7,89.3 L 181.3,82.3" style="fill:none;fill-rule:evenodd;stroke:#000000;stroke-width:2.0px;stroke-linecap:butt;stroke-linejoin:miter;stroke-opacity:1"/>
<path class="bond-35 atom-35 atom-36" d="M 181.3,82.3 L 176.9,75.2" style="fill:none;fill-rule:evenodd;stroke:#FF0000;stroke-width:2.0px;stroke-linecap:butt;stroke-linejoin:miter;stroke-opacity:1"/>
<path class="bond-35 atom-35 atom-36" d="M 183.2,90.9 L 178.7,83.9" style="fill:none;fill-rule:evenodd;stroke:#000000;stroke-width:2.0px;stroke-linecap:butt;stroke-linejoin:miter;stroke-opacity:1"/>
<path class="bond-35 atom-35 atom-36" d="M 178.7,83.9 L 174.3,76.8" style="fill:none;fill-rule:evenodd;stroke:#FF0000;stroke-width:2.0px;stroke-linecap:butt;stroke-linejoin:miter;stroke-opacity:1"/>
<path class="bond-36 atom-35 atom-37" d="M 184.0,89.4 L 192.4,89.1" style="fill:none;fill-rule:evenodd;stroke:#000000;stroke-width:2.0px;stroke-linecap:butt;stroke-linejoin:miter;stroke-opacity:1"/>
<path class="bond-36 atom-35 atom-37" d="M 192.4,89.1 L 200.8,88.8" style="fill:none;fill-rule:evenodd;stroke:#FF0000;stroke-width:2.0px;stroke-linecap:butt;stroke-linejoin:miter;stroke-opacity:1"/>
<path class="bond-37 atom-8 atom-38" d="M 122.0,98.9 L 112.6,116.7" style="fill:none;fill-rule:evenodd;stroke:#000000;stroke-width:2.0px;stroke-linecap:butt;stroke-linejoin:miter;stroke-opacity:1"/>
<path class="bond-38 atom-38 atom-39" d="M 113.4,115.2 L 104.6,115.5" style="fill:none;fill-rule:evenodd;stroke:#000000;stroke-width:2.0px;stroke-linecap:butt;stroke-linejoin:miter;stroke-opacity:1"/>
<path class="bond-38 atom-38 atom-39" d="M 104.6,115.5 L 95.7,115.8" style="fill:none;fill-rule:evenodd;stroke:#FF0000;stroke-width:2.0px;stroke-linecap:butt;stroke-linejoin:miter;stroke-opacity:1"/>
<path class="bond-38 atom-38 atom-39" d="M 113.5,118.2 L 104.7,118.5" style="fill:none;fill-rule:evenodd;stroke:#000000;stroke-width:2.0px;stroke-linecap:butt;stroke-linejoin:miter;stroke-opacity:1"/>
<path class="bond-38 atom-38 atom-39" d="M 104.7,118.5 L 95.8,118.8" style="fill:none;fill-rule:evenodd;stroke:#FF0000;stroke-width:2.0px;stroke-linecap:butt;stroke-linejoin:miter;stroke-opacity:1"/>
<path class="bond-39 atom-38 atom-40" d="M 112.6,116.7 L 116.8,123.4" style="fill:none;fill-rule:evenodd;stroke:#000000;stroke-width:2.0px;stroke-linecap:butt;stroke-linejoin:miter;stroke-opacity:1"/>
<path class="bond-39 atom-38 atom-40" d="M 116.8,123.4 L 121.0,130.2" style="fill:none;fill-rule:evenodd;stroke:#FF0000;stroke-width:2.0px;stroke-linecap:butt;stroke-linejoin:miter;stroke-opacity:1"/>
<path class="bond-40 atom-2 atom-41" d="M 52.4,101.4 L 41.8,84.4" style="fill:none;fill-rule:evenodd;stroke:#000000;stroke-width:2.0px;stroke-linecap:butt;stroke-linejoin:miter;stroke-opacity:1"/>
<path class="bond-41 atom-41 atom-42" d="M 42.6,82.8 L 33.8,83.2" style="fill:none;fill-rule:evenodd;stroke:#000000;stroke-width:2.0px;stroke-linecap:butt;stroke-linejoin:miter;stroke-opacity:1"/>
<path class="bond-41 atom-41 atom-42" d="M 33.8,83.2 L 24.9,83.5" style="fill:none;fill-rule:evenodd;stroke:#FF0000;stroke-width:2.0px;stroke-linecap:butt;stroke-linejoin:miter;stroke-opacity:1"/>
<path class="bond-41 atom-41 atom-42" d="M 42.7,85.9 L 33.9,86.2" style="fill:none;fill-rule:evenodd;stroke:#000000;stroke-width:2.0px;stroke-linecap:butt;stroke-linejoin:miter;stroke-opacity:1"/>
<path class="bond-41 atom-41 atom-42" d="M 33.9,86.2 L 25.0,86.5" style="fill:none;fill-rule:evenodd;stroke:#FF0000;stroke-width:2.0px;stroke-linecap:butt;stroke-linejoin:miter;stroke-opacity:1"/>
<path class="bond-42 atom-41 atom-43" d="M 41.8,84.4 L 45.5,77.3" style="fill:none;fill-rule:evenodd;stroke:#000000;stroke-width:2.0px;stroke-linecap:butt;stroke-linejoin:miter;stroke-opacity:1"/>
<path class="bond-42 atom-41 atom-43" d="M 45.5,77.3 L 49.3,70.3" style="fill:none;fill-rule:evenodd;stroke:#FF0000;stroke-width:2.0px;stroke-linecap:butt;stroke-linejoin:miter;stroke-opacity:1"/>
<path d="M 34.5,111.6 L 35.4,112.1 L 36.3,111.5" style="fill:none;stroke:#000000;stroke-width:2.0px;stroke-linecap:butt;stroke-linejoin:miter;stroke-opacity:1;"/>
<path d="M 62.6,117.6 L 63.1,118.5 L 62.9,118.8" style="fill:none;stroke:#000000;stroke-width:2.0px;stroke-linecap:butt;stroke-linejoin:miter;stroke-opacity:1;"/>
<path d="M 68.6,91.3 L 69.5,90.8 L 70.4,91.2" style="fill:none;stroke:#000000;stroke-width:2.0px;stroke-linecap:butt;stroke-linejoin:miter;stroke-opacity:1;"/>
<path d="M 86.3,99.7 L 87.2,100.2 L 88.1,99.6" style="fill:none;stroke:#000000;stroke-width:2.0px;stroke-linecap:butt;stroke-linejoin:miter;stroke-opacity:1;"/>
<path d="M 103.4,90.1 L 104.3,89.5 L 105.2,90.0" style="fill:none;stroke:#000000;stroke-width:2.0px;stroke-linecap:butt;stroke-linejoin:miter;stroke-opacity:1;"/>
<path d="M 131.0,82.1 L 131.4,81.2 L 131.2,80.9" style="fill:none;stroke:#000000;stroke-width:2.0px;stroke-linecap:butt;stroke-linejoin:miter;stroke-opacity:1;"/>
<path d="M 138.9,107.9 L 139.8,108.4 L 140.6,107.8" style="fill:none;stroke:#000000;stroke-width:2.0px;stroke-linecap:butt;stroke-linejoin:miter;stroke-opacity:1;"/>
<path d="M 165.6,124.0 L 165.1,124.9 L 165.3,125.2" style="fill:none;stroke:#000000;stroke-width:2.0px;stroke-linecap:butt;stroke-linejoin:miter;stroke-opacity:1;"/>
<path d="M 191.4,116.1 L 192.3,116.6 L 193.2,116.0" style="fill:none;stroke:#000000;stroke-width:2.0px;stroke-linecap:butt;stroke-linejoin:miter;stroke-opacity:1;"/>
<path d="M 208.5,106.4 L 209.3,105.9 L 210.2,106.4" style="fill:none;stroke:#000000;stroke-width:2.0px;stroke-linecap:butt;stroke-linejoin:miter;stroke-opacity:1;"/>
<path d="M 226.2,114.9 L 227.1,115.3 L 227.9,114.8" style="fill:none;stroke:#000000;stroke-width:2.0px;stroke-linecap:butt;stroke-linejoin:miter;stroke-opacity:1;"/>
<path d="M 234.0,88.5 L 233.5,87.6 L 233.7,87.3" style="fill:none;stroke:#000000;stroke-width:2.0px;stroke-linecap:butt;stroke-linejoin:miter;stroke-opacity:1;"/>
<path d="M 260.3,94.5 L 261.2,94.0 L 262.1,94.5" style="fill:none;stroke:#000000;stroke-width:2.0px;stroke-linecap:butt;stroke-linejoin:miter;stroke-opacity:1;"/>
<path d="M 278.0,103.0 L 278.9,103.4 L 279.8,102.9" style="fill:none;stroke:#000000;stroke-width:2.0px;stroke-linecap:butt;stroke-linejoin:miter;stroke-opacity:1;"/>
<path d="M 285.8,76.6 L 285.3,75.7 L 285.5,75.4" style="fill:none;stroke:#000000;stroke-width:2.0px;stroke-linecap:butt;stroke-linejoin:miter;stroke-opacity:1;"/>
<path d="M 306.1,109.0 L 306.6,109.8 L 307.0,109.8" style="fill:none;stroke:#000000;stroke-width:2.0px;stroke-linecap:butt;stroke-linejoin:miter;stroke-opacity:1;"/>
<path d="M 254.3,120.9 L 254.8,121.7 L 255.2,121.7" style="fill:none;stroke:#000000;stroke-width:2.0px;stroke-linecap:butt;stroke-linejoin:miter;stroke-opacity:1;"/>
<path d="M 183.5,90.3 L 184.0,89.4 L 184.4,89.4" style="fill:none;stroke:#000000;stroke-width:2.0px;stroke-linecap:butt;stroke-linejoin:miter;stroke-opacity:1;"/>
<path d="M 113.1,115.8 L 112.6,116.7 L 112.8,117.0" style="fill:none;stroke:#000000;stroke-width:2.0px;stroke-linecap:butt;stroke-linejoin:miter;stroke-opacity:1;"/>
<path d="M 42.3,85.2 L 41.8,84.4 L 42.0,84.0" style="fill:none;stroke:#000000;stroke-width:2.0px;stroke-linecap:butt;stroke-linejoin:miter;stroke-opacity:1;"/>
<path class="atom-4" d="M 45.4 133.4 L 46.2 133.4 L 46.2 135.8 L 49.1 135.8 L 49.1 133.4 L 49.9 133.4 L 49.9 139.1 L 49.1 139.1 L 49.1 136.5 L 46.2 136.5 L 46.2 139.1 L 45.4 139.1 L 45.4 133.4 " fill="#FF0000"/>
<path class="atom-4" d="M 51.1 136.2 Q 51.1 134.9, 51.7 134.1 Q 52.4 133.3, 53.7 133.3 Q 54.9 133.3, 55.6 134.1 Q 56.3 134.9, 56.3 136.2 Q 56.3 137.6, 55.6 138.4 Q 54.9 139.2, 53.7 139.2 Q 52.4 139.2, 51.7 138.4 Q 51.1 137.6, 51.1 136.2 M 53.7 138.5 Q 54.5 138.5, 55.0 137.9 Q 55.5 137.4, 55.5 136.2 Q 55.5 135.1, 55.0 134.5 Q 54.5 134.0, 53.7 134.0 Q 52.8 134.0, 52.3 134.5 Q 51.9 135.1, 51.9 136.2 Q 51.9 137.4, 52.3 137.9 Q 52.8 138.5, 53.7 138.5 " fill="#FF0000"/>
<path class="atom-10" d="M 112.5 61.3 L 113.3 61.3 L 113.3 63.8 L 116.2 63.8 L 116.2 61.3 L 117.0 61.3 L 117.0 67.0 L 116.2 67.0 L 116.2 64.4 L 113.3 64.4 L 113.3 67.0 L 112.5 67.0 L 112.5 61.3 " fill="#FF0000"/>
<path class="atom-10" d="M 118.2 64.2 Q 118.2 62.8, 118.8 62.0 Q 119.5 61.3, 120.8 61.3 Q 122.0 61.3, 122.7 62.0 Q 123.4 62.8, 123.4 64.2 Q 123.4 65.6, 122.7 66.3 Q 122.0 67.1, 120.8 67.1 Q 119.5 67.1, 118.8 66.3 Q 118.2 65.6, 118.2 64.2 M 120.8 66.5 Q 121.6 66.5, 122.1 65.9 Q 122.6 65.3, 122.6 64.2 Q 122.6 63.1, 122.1 62.5 Q 121.6 61.9, 120.8 61.9 Q 119.9 61.9, 119.4 62.5 Q 119.0 63.0, 119.0 64.2 Q 119.0 65.3, 119.4 65.9 Q 119.9 66.5, 120.8 66.5 " fill="#FF0000"/>
<path class="atom-16" d="M 173.2 141.9 Q 173.2 140.6, 173.8 139.8 Q 174.5 139.0, 175.8 139.0 Q 177.0 139.0, 177.7 139.8 Q 178.4 140.6, 178.4 141.9 Q 178.4 143.3, 177.7 144.1 Q 177.0 144.9, 175.8 144.9 Q 174.5 144.9, 173.8 144.1 Q 173.2 143.3, 173.2 141.9 M 175.8 144.2 Q 176.7 144.2, 177.1 143.7 Q 177.6 143.1, 177.6 141.9 Q 177.6 140.8, 177.1 140.3 Q 176.7 139.7, 175.8 139.7 Q 174.9 139.7, 174.4 140.3 Q 174.0 140.8, 174.0 141.9 Q 174.0 143.1, 174.4 143.7 Q 174.9 144.2, 175.8 144.2 " fill="#FF0000"/>
<path class="atom-16" d="M 179.3 139.1 L 180.1 139.1 L 180.1 141.5 L 183.0 141.5 L 183.0 139.1 L 183.7 139.1 L 183.7 144.8 L 183.0 144.8 L 183.0 142.2 L 180.1 142.2 L 180.1 144.8 L 179.3 144.8 L 179.3 139.1 " fill="#FF0000"/>
<path class="atom-22" d="M 240.3 69.9 Q 240.3 68.5, 241.0 67.8 Q 241.6 67.0, 242.9 67.0 Q 244.2 67.0, 244.8 67.8 Q 245.5 68.5, 245.5 69.9 Q 245.5 71.3, 244.8 72.1 Q 244.1 72.8, 242.9 72.8 Q 241.6 72.8, 241.0 72.1 Q 240.3 71.3, 240.3 69.9 M 242.9 72.2 Q 243.8 72.2, 244.2 71.6 Q 244.7 71.0, 244.7 69.9 Q 244.7 68.8, 244.2 68.2 Q 243.8 67.6, 242.9 67.6 Q 242.0 67.6, 241.6 68.2 Q 241.1 68.8, 241.1 69.9 Q 241.1 71.0, 241.6 71.6 Q 242.0 72.2, 242.9 72.2 " fill="#FF0000"/>
<path class="atom-22" d="M 246.4 67.1 L 247.2 67.1 L 247.2 69.5 L 250.1 69.5 L 250.1 67.1 L 250.8 67.1 L 250.8 72.8 L 250.1 72.8 L 250.1 70.1 L 247.2 70.1 L 247.2 72.8 L 246.4 72.8 L 246.4 67.1 " fill="#FF0000"/>
<path class="atom-28" d="M 292.1 58.0 Q 292.1 56.6, 292.8 55.9 Q 293.5 55.1, 294.7 55.1 Q 296.0 55.1, 296.7 55.9 Q 297.3 56.6, 297.3 58.0 Q 297.3 59.4, 296.6 60.2 Q 296.0 61.0, 294.7 61.0 Q 293.5 61.0, 292.8 60.2 Q 292.1 59.4, 292.1 58.0 M 294.7 60.3 Q 295.6 60.3, 296.1 59.7 Q 296.5 59.1, 296.5 58.0 Q 296.5 56.9, 296.1 56.3 Q 295.6 55.8, 294.7 55.8 Q 293.9 55.8, 293.4 56.3 Q 292.9 56.9, 292.9 58.0 Q 292.9 59.2, 293.4 59.7 Q 293.9 60.3, 294.7 60.3 " fill="#FF0000"/>
<path class="atom-28" d="M 298.2 55.2 L 299.0 55.2 L 299.0 57.6 L 301.9 57.6 L 301.9 55.2 L 302.7 55.2 L 302.7 60.9 L 301.9 60.9 L 301.9 58.2 L 299.0 58.2 L 299.0 60.9 L 298.2 60.9 L 298.2 55.2 " fill="#FF0000"/>
<path class="atom-30" d="M 294.6 127.6 Q 294.6 126.2, 295.3 125.4 Q 295.9 124.7, 297.2 124.7 Q 298.4 124.7, 299.1 125.4 Q 299.8 126.2, 299.8 127.6 Q 299.8 129.0, 299.1 129.7 Q 298.4 130.5, 297.2 130.5 Q 295.9 130.5, 295.3 129.7 Q 294.6 129.0, 294.6 127.6 M 297.2 129.9 Q 298.1 129.9, 298.5 129.3 Q 299.0 128.7, 299.0 127.6 Q 299.0 126.5, 298.5 125.9 Q 298.1 125.3, 297.2 125.3 Q 296.3 125.3, 295.8 125.9 Q 295.4 126.5, 295.4 127.6 Q 295.4 128.7, 295.8 129.3 Q 296.3 129.9, 297.2 129.9 " fill="#FF0000"/>
<path class="atom-31" d="M 324.1 109.1 Q 324.1 107.7, 324.8 107.0 Q 325.4 106.2, 326.7 106.2 Q 328.0 106.2, 328.6 107.0 Q 329.3 107.7, 329.3 109.1 Q 329.3 110.5, 328.6 111.3 Q 327.9 112.1, 326.7 112.1 Q 325.4 112.1, 324.8 111.3 Q 324.1 110.5, 324.1 109.1 M 326.7 111.4 Q 327.6 111.4, 328.0 110.8 Q 328.5 110.3, 328.5 109.1 Q 328.5 108.0, 328.0 107.4 Q 327.6 106.9, 326.7 106.9 Q 325.8 106.9, 325.4 107.4 Q 324.9 108.0, 324.9 109.1 Q 324.9 110.3, 325.4 110.8 Q 325.8 111.4, 326.7 111.4 " fill="#FF0000"/>
<path class="atom-31" d="M 330.2 106.3 L 331.0 106.3 L 331.0 108.7 L 333.9 108.7 L 333.9 106.3 L 334.6 106.3 L 334.6 112.0 L 333.9 112.0 L 333.9 109.3 L 331.0 109.3 L 331.0 112.0 L 330.2 112.0 L 330.2 106.3 " fill="#FF0000"/>
<path class="atom-33" d="M 242.7 139.5 Q 242.7 138.1, 243.4 137.3 Q 244.1 136.6, 245.4 136.6 Q 246.6 136.6, 247.3 137.3 Q 248.0 138.1, 248.0 139.5 Q 248.0 140.9, 247.3 141.6 Q 246.6 142.4, 245.4 142.4 Q 244.1 142.4, 243.4 141.6 Q 242.7 140.9, 242.7 139.5 M 245.4 141.8 Q 246.2 141.8, 246.7 141.2 Q 247.2 140.6, 247.2 139.5 Q 247.2 138.4, 246.7 137.8 Q 246.2 137.2, 245.4 137.2 Q 244.5 137.2, 244.0 137.8 Q 243.6 138.3, 243.6 139.5 Q 243.6 140.6, 244.0 141.2 Q 244.5 141.8, 245.4 141.8 " fill="#FF0000"/>
<path class="atom-34" d="M 272.3 121.0 Q 272.3 119.6, 272.9 118.9 Q 273.6 118.1, 274.9 118.1 Q 276.1 118.1, 276.8 118.9 Q 277.5 119.6, 277.5 121.0 Q 277.5 122.4, 276.8 123.2 Q 276.1 124.0, 274.9 124.0 Q 273.6 124.0, 272.9 123.2 Q 272.3 122.4, 272.3 121.0 M 274.9 123.3 Q 275.7 123.3, 276.2 122.7 Q 276.7 122.2, 276.7 121.0 Q 276.7 119.9, 276.2 119.3 Q 275.7 118.8, 274.9 118.8 Q 274.0 118.8, 273.5 119.3 Q 273.1 119.9, 273.1 121.0 Q 273.1 122.2, 273.5 122.7 Q 274.0 123.3, 274.9 123.3 " fill="#FF0000"/>
<path class="atom-34" d="M 278.4 118.2 L 279.1 118.2 L 279.1 120.6 L 282.1 120.6 L 282.1 118.2 L 282.8 118.2 L 282.8 123.9 L 282.1 123.9 L 282.1 121.2 L 279.1 121.2 L 279.1 123.9 L 278.4 123.9 L 278.4 118.2 " fill="#FF0000"/>
<path class="atom-36" d="M 170.7 72.4 Q 170.7 71.0, 171.4 70.2 Q 172.1 69.5, 173.3 69.5 Q 174.6 69.5, 175.3 70.2 Q 175.9 71.0, 175.9 72.4 Q 175.9 73.7, 175.2 74.5 Q 174.6 75.3, 173.3 75.3 Q 172.1 75.3, 171.4 74.5 Q 170.7 73.8, 170.7 72.4 M 173.3 74.7 Q 174.2 74.7, 174.7 74.1 Q 175.1 73.5, 175.1 72.4 Q 175.1 71.2, 174.7 70.7 Q 174.2 70.1, 173.3 70.1 Q 172.4 70.1, 172.0 70.7 Q 171.5 71.2, 171.5 72.4 Q 171.5 73.5, 172.0 74.1 Q 172.4 74.7, 173.3 74.7 " fill="#FF0000"/>
<path class="atom-37" d="M 201.4 88.7 Q 201.4 87.3, 202.1 86.6 Q 202.8 85.8, 204.1 85.8 Q 205.3 85.8, 206.0 86.6 Q 206.7 87.3, 206.7 88.7 Q 206.7 90.1, 206.0 90.9 Q 205.3 91.6, 204.1 91.6 Q 202.8 91.6, 202.1 90.9 Q 201.4 90.1, 201.4 88.7 M 204.1 91.0 Q 204.9 91.0, 205.4 90.4 Q 205.9 89.8, 205.9 88.7 Q 205.9 87.6, 205.4 87.0 Q 204.9 86.4, 204.1 86.4 Q 203.2 86.4, 202.7 87.0 Q 202.3 87.6, 202.3 88.7 Q 202.3 89.8, 202.7 90.4 Q 203.2 91.0, 204.1 91.0 " fill="#FF0000"/>
<path class="atom-37" d="M 207.6 85.9 L 208.3 85.9 L 208.3 88.3 L 211.2 88.3 L 211.2 85.9 L 212.0 85.9 L 212.0 91.6 L 211.2 91.6 L 211.2 88.9 L 208.3 88.9 L 208.3 91.6 L 207.6 91.6 L 207.6 85.9 " fill="#FF0000"/>
<path class="atom-39" d="M 89.9 117.4 Q 89.9 116.1, 90.6 115.3 Q 91.2 114.5, 92.5 114.5 Q 93.8 114.5, 94.4 115.3 Q 95.1 116.1, 95.1 117.4 Q 95.1 118.8, 94.4 119.6 Q 93.7 120.4, 92.5 120.4 Q 91.2 120.4, 90.6 119.6 Q 89.9 118.8, 89.9 117.4 M 92.5 119.7 Q 93.4 119.7, 93.8 119.2 Q 94.3 118.6, 94.3 117.4 Q 94.3 116.3, 93.8 115.7 Q 93.4 115.2, 92.5 115.2 Q 91.6 115.2, 91.2 115.7 Q 90.7 116.3, 90.7 117.4 Q 90.7 118.6, 91.2 119.2 Q 91.6 119.7, 92.5 119.7 " fill="#FF0000"/>
<path class="atom-40" d="M 120.6 133.7 Q 120.6 132.4, 121.3 131.6 Q 122.0 130.9, 123.2 130.9 Q 124.5 130.9, 125.2 131.6 Q 125.9 132.4, 125.9 133.7 Q 125.9 135.1, 125.2 135.9 Q 124.5 136.7, 123.2 136.7 Q 122.0 136.7, 121.3 135.9 Q 120.6 135.1, 120.6 133.7 M 123.2 136.1 Q 124.1 136.1, 124.6 135.5 Q 125.1 134.9, 125.1 133.7 Q 125.1 132.6, 124.6 132.1 Q 124.1 131.5, 123.2 131.5 Q 122.4 131.5, 121.9 132.1 Q 121.4 132.6, 121.4 133.7 Q 121.4 134.9, 121.9 135.5 Q 122.4 136.1, 123.2 136.1 " fill="#FF0000"/>
<path class="atom-40" d="M 126.7 130.9 L 127.5 130.9 L 127.5 133.3 L 130.4 133.3 L 130.4 130.9 L 131.2 130.9 L 131.2 136.6 L 130.4 136.6 L 130.4 134.0 L 127.5 134.0 L 127.5 136.6 L 126.7 136.6 L 126.7 130.9 " fill="#FF0000"/>
<path class="atom-42" d="M 19.1 85.1 Q 19.1 83.7, 19.8 83.0 Q 20.4 82.2, 21.7 82.2 Q 23.0 82.2, 23.6 83.0 Q 24.3 83.7, 24.3 85.1 Q 24.3 86.5, 23.6 87.3 Q 22.9 88.1, 21.7 88.1 Q 20.4 88.1, 19.8 87.3 Q 19.1 86.5, 19.1 85.1 M 21.7 87.4 Q 22.6 87.4, 23.0 86.8 Q 23.5 86.2, 23.5 85.1 Q 23.5 84.0, 23.0 83.4 Q 22.6 82.9, 21.7 82.9 Q 20.8 82.9, 20.4 83.4 Q 19.9 84.0, 19.9 85.1 Q 19.9 86.3, 20.4 86.8 Q 20.8 87.4, 21.7 87.4 " fill="#FF0000"/>
<path class="atom-43" d="M 48.6 66.6 Q 48.6 65.3, 49.3 64.5 Q 49.9 63.7, 51.2 63.7 Q 52.5 63.7, 53.1 64.5 Q 53.8 65.3, 53.8 66.6 Q 53.8 68.0, 53.1 68.8 Q 52.4 69.6, 51.2 69.6 Q 49.9 69.6, 49.3 68.8 Q 48.6 68.0, 48.6 66.6 M 51.2 68.9 Q 52.1 68.9, 52.5 68.4 Q 53.0 67.8, 53.0 66.6 Q 53.0 65.5, 52.5 65.0 Q 52.1 64.4, 51.2 64.4 Q 50.3 64.4, 49.9 65.0 Q 49.4 65.5, 49.4 66.6 Q 49.4 67.8, 49.9 68.4 Q 50.3 68.9, 51.2 68.9 " fill="#FF0000"/>
<path class="atom-43" d="M 54.7 63.8 L 55.5 63.8 L 55.5 66.2 L 58.4 66.2 L 58.4 63.8 L 59.2 63.8 L 59.2 69.5 L 58.4 69.5 L 58.4 66.9 L 55.5 66.9 L 55.5 69.5 L 54.7 69.5 L 54.7 63.8 " fill="#FF0000"/>
</g>
    <g transform="translate(700.0, 0) scale(1 1) "><line x1="15" y1="100" x2="25" y2="100" style="stroke:rgb(0,0,0);stroke-width:2"/>
  <line x1="20" y1="95" x2="20" y2="105" style="stroke:rgb(0,0,0);stroke-width:2"/>
</g>
    <g transform="translate(740.0, 0) scale(1 1) "><!-- END OF HEADER -->
<rect style="opacity:1.0;fill:#FFFFFF;stroke:none" width="205.0" height="200.0" x="0.0" y="0.0"> </rect>
<path class="bond-0 atom-0 atom-1" d="M 122.6,44.3 L 108.8,89.2" style="fill:none;fill-rule:evenodd;stroke:#000000;stroke-width:2.0px;stroke-linecap:butt;stroke-linejoin:miter;stroke-opacity:1"/>
<path class="bond-1 atom-1 atom-2" d="M 108.8,89.2 L 95.0,134.1" style="fill:none;fill-rule:evenodd;stroke:#000000;stroke-width:2.0px;stroke-linecap:butt;stroke-linejoin:miter;stroke-opacity:1"/>
<path class="bond-2 atom-1 atom-3" d="M 108.8,89.2 L 63.9,75.4" style="fill:none;fill-rule:evenodd;stroke:#000000;stroke-width:2.0px;stroke-linecap:butt;stroke-linejoin:miter;stroke-opacity:1"/>
<path class="bond-3 atom-3 atom-4" d="M 63.9,75.4 L 50.5,87.9" style="fill:none;fill-rule:evenodd;stroke:#000000;stroke-width:2.0px;stroke-linecap:butt;stroke-linejoin:miter;stroke-opacity:1"/>
<path class="bond-3 atom-3 atom-4" d="M 50.5,87.9 L 37.2,100.3" style="fill:none;fill-rule:evenodd;stroke:#FF0000;stroke-width:2.0px;stroke-linecap:butt;stroke-linejoin:miter;stroke-opacity:1"/>
<path class="bond-4 atom-1 atom-5" d="M 108.8,89.2 L 153.7,103.0" style="fill:none;fill-rule:evenodd;stroke:#000000;stroke-width:2.0px;stroke-linecap:butt;stroke-linejoin:miter;stroke-opacity:1"/>
<path class="bond-5 atom-5 atom-6" d="M 154.7,107.0 L 168.8,93.8" style="fill:none;fill-rule:evenodd;stroke:#000000;stroke-width:2.0px;stroke-linecap:butt;stroke-linejoin:miter;stroke-opacity:1"/>
<path class="bond-5 atom-5 atom-6" d="M 168.8,93.8 L 182.9,80.7" style="fill:none;fill-rule:evenodd;stroke:#FF0000;stroke-width:2.0px;stroke-linecap:butt;stroke-linejoin:miter;stroke-opacity:1"/>
<path class="bond-5 atom-5 atom-6" d="M 149.9,101.8 L 164.0,88.7" style="fill:none;fill-rule:evenodd;stroke:#000000;stroke-width:2.0px;stroke-linecap:butt;stroke-linejoin:miter;stroke-opacity:1"/>
<path class="bond-5 atom-5 atom-6" d="M 164.0,88.7 L 178.1,75.5" style="fill:none;fill-rule:evenodd;stroke:#FF0000;stroke-width:2.0px;stroke-linecap:butt;stroke-linejoin:miter;stroke-opacity:1"/>
<path class="bond-6 atom-5 atom-7" d="M 153.7,103.0 L 158.0,121.7" style="fill:none;fill-rule:evenodd;stroke:#000000;stroke-width:2.0px;stroke-linecap:butt;stroke-linejoin:miter;stroke-opacity:1"/>
<path class="bond-6 atom-5 atom-7" d="M 158.0,121.7 L 162.4,140.5" style="fill:none;fill-rule:evenodd;stroke:#FF0000;stroke-width:2.0px;stroke-linecap:butt;stroke-linejoin:miter;stroke-opacity:1"/>
<path d="M 66.1,76.1 L 63.9,75.4 L 63.2,76.0" style="fill:none;stroke:#000000;stroke-width:2.0px;stroke-linecap:butt;stroke-linejoin:miter;stroke-opacity:1;"/>
<path d="M 151.5,102.3 L 153.7,103.0 L 154.0,103.9" style="fill:none;stroke:#000000;stroke-width:2.0px;stroke-linecap:butt;stroke-linejoin:miter;stroke-opacity:1;"/>
<path class="atom-4" d="M 10.2 100.8 L 12.1 100.8 L 12.1 106.5 L 18.9 106.5 L 18.9 100.8 L 20.7 100.8 L 20.7 114.1 L 18.9 114.1 L 18.9 108.0 L 12.1 108.0 L 12.1 114.1 L 10.2 114.1 L 10.2 100.8 " fill="#FF0000"/>
<path class="atom-4" d="M 23.4 107.5 Q 23.4 104.3, 25.0 102.5 Q 26.5 100.7, 29.5 100.7 Q 32.5 100.7, 34.0 102.5 Q 35.6 104.3, 35.6 107.5 Q 35.6 110.7, 34.0 112.5 Q 32.4 114.4, 29.5 114.4 Q 26.6 114.4, 25.0 112.5 Q 23.4 110.7, 23.4 107.5 M 29.5 112.9 Q 31.5 112.9, 32.6 111.5 Q 33.7 110.1, 33.7 107.5 Q 33.7 104.8, 32.6 103.5 Q 31.5 102.2, 29.5 102.2 Q 27.5 102.2, 26.4 103.5 Q 25.3 104.8, 25.3 107.5 Q 25.3 110.1, 26.4 111.5 Q 27.5 112.9, 29.5 112.9 " fill="#FF0000"/>
<path class="atom-6" d="M 182.0 71.0 Q 182.0 67.8, 183.6 66.0 Q 185.2 64.3, 188.1 64.3 Q 191.1 64.3, 192.7 66.0 Q 194.3 67.8, 194.3 71.0 Q 194.3 74.3, 192.7 76.1 Q 191.1 77.9, 188.1 77.9 Q 185.2 77.9, 183.6 76.1 Q 182.0 74.3, 182.0 71.0 M 188.1 76.4 Q 190.2 76.4, 191.3 75.1 Q 192.4 73.7, 192.4 71.0 Q 192.4 68.4, 191.3 67.1 Q 190.2 65.8, 188.1 65.8 Q 186.1 65.8, 185.0 67.1 Q 183.9 68.4, 183.9 71.0 Q 183.9 73.7, 185.0 75.1 Q 186.1 76.4, 188.1 76.4 " fill="#FF0000"/>
<path class="atom-7" d="M 158.2 148.8 Q 158.2 145.6, 159.7 143.8 Q 161.3 142.1, 164.3 142.1 Q 167.2 142.1, 168.8 143.8 Q 170.4 145.6, 170.4 148.8 Q 170.4 152.1, 168.8 153.9 Q 167.2 155.7, 164.3 155.7 Q 161.3 155.7, 159.7 153.9 Q 158.2 152.1, 158.2 148.8 M 164.3 154.2 Q 166.3 154.2, 167.4 152.9 Q 168.5 151.5, 168.5 148.8 Q 168.5 146.2, 167.4 144.9 Q 166.3 143.6, 164.3 143.6 Q 162.2 143.6, 161.1 144.9 Q 160.0 146.2, 160.0 148.8 Q 160.0 151.5, 161.1 152.9 Q 162.2 154.2, 164.3 154.2 " fill="#FF0000"/>
<path class="atom-7" d="M 172.4 142.2 L 174.2 142.2 L 174.2 147.9 L 181.0 147.9 L 181.0 142.2 L 182.9 142.2 L 182.9 155.5 L 181.0 155.5 L 181.0 149.4 L 174.2 149.4 L 174.2 155.5 L 172.4 155.5 L 172.4 142.2 " fill="#FF0000"/>
</g>
  </g>
</svg>
