<?xml version='1.0' encoding='ASCII' standalone='yes'?>
<svg xmlns="http://www.w3.org/2000/svg" xmlns:xlink="http://www.w3.org/1999/xlink" version="1.1" width="753.0px" viewBox="0 0 753.0 200.0" height="200.0px">
  <g>
    <g transform="translate(0, 0) scale(1 1) "><!-- END OF HEADER -->
<rect style="opacity:1.0;fill:#FFFFFF;stroke:none" width="225.0" height="200.0" x="0.0" y="0.0"> </rect>
<path class="bond-0 atom-0 atom-1" d="M 11.2,112.3 L 52.7,94.8" style="fill:none;fill-rule:evenodd;stroke:#000000;stroke-width:2.0px;stroke-linecap:butt;stroke-linejoin:miter;stroke-opacity:1"/>
<path class="bond-1 atom-1 atom-2" d="M 52.7,94.8 L 55.0,76.6" style="fill:none;fill-rule:evenodd;stroke:#000000;stroke-width:2.0px;stroke-linecap:butt;stroke-linejoin:miter;stroke-opacity:1"/>
<path class="bond-1 atom-1 atom-2" d="M 55.0,76.6 L 57.3,58.3" style="fill:none;fill-rule:evenodd;stroke:#FF0000;stroke-width:2.0px;stroke-linecap:butt;stroke-linejoin:miter;stroke-opacity:1"/>
<path class="bond-2 atom-1 atom-3" d="M 52.7,94.8 L 88.6,122.0" style="fill:none;fill-rule:evenodd;stroke:#000000;stroke-width:2.0px;stroke-linecap:butt;stroke-linejoin:miter;stroke-opacity:1"/>
<path class="bond-3 atom-3 atom-4" d="M 88.6,122.0 L 130.1,104.5" style="fill:none;fill-rule:evenodd;stroke:#000000;stroke-width:2.0px;stroke-linecap:butt;stroke-linejoin:miter;stroke-opacity:1"/>
<path class="bond-4 atom-4 atom-5" d="M 130.1,104.5 L 112.6,63.1" style="fill:none;fill-rule:evenodd;stroke:#000000;stroke-width:2.0px;stroke-linecap:butt;stroke-linejoin:miter;stroke-opacity:1"/>
<path class="bond-5 atom-4 atom-6" d="M 130.1,104.5 L 147.5,146.0" style="fill:none;fill-rule:evenodd;stroke:#000000;stroke-width:2.0px;stroke-linecap:butt;stroke-linejoin:miter;stroke-opacity:1"/>
<path class="bond-6 atom-4 atom-7" d="M 130.1,104.5 L 171.5,87.1" style="fill:none;fill-rule:evenodd;stroke:#000000;stroke-width:2.0px;stroke-linecap:butt;stroke-linejoin:miter;stroke-opacity:1"/>
<path class="bond-7 atom-7 atom-8" d="M 167.9,88.6 L 183.0,100.0" style="fill:none;fill-rule:evenodd;stroke:#000000;stroke-width:2.0px;stroke-linecap:butt;stroke-linejoin:miter;stroke-opacity:1"/>
<path class="bond-7 atom-7 atom-8" d="M 183.0,100.0 L 198.0,111.4" style="fill:none;fill-rule:evenodd;stroke:#FF0000;stroke-width:2.0px;stroke-linecap:butt;stroke-linejoin:miter;stroke-opacity:1"/>
<path class="bond-7 atom-7 atom-8" d="M 172.0,83.2 L 187.1,94.6" style="fill:none;fill-rule:evenodd;stroke:#000000;stroke-width:2.0px;stroke-linecap:butt;stroke-linejoin:miter;stroke-opacity:1"/>
<path class="bond-7 atom-7 atom-8" d="M 187.1,94.6 L 202.1,106.0" style="fill:none;fill-rule:evenodd;stroke:#FF0000;stroke-width:2.0px;stroke-linecap:butt;stroke-linejoin:miter;stroke-opacity:1"/>
<path class="bond-8 atom-7 atom-9" d="M 171.5,87.1 L 173.8,68.8" style="fill:none;fill-rule:evenodd;stroke:#000000;stroke-width:2.0px;stroke-linecap:butt;stroke-linejoin:miter;stroke-opacity:1"/>
<path class="bond-8 atom-7 atom-9" d="M 173.8,68.8 L 176.1,50.6" style="fill:none;fill-rule:evenodd;stroke:#FF0000;stroke-width:2.0px;stroke-linecap:butt;stroke-linejoin:miter;stroke-opacity:1"/>
<path d="M 86.8,120.6 L 88.6,122.0 L 90.7,121.1" style="fill:none;stroke:#000000;stroke-width:2.0px;stroke-linecap:butt;stroke-linejoin:miter;stroke-opacity:1;"/>
<path d="M 169.5,88.0 L 171.5,87.1 L 171.7,86.2" style="fill:none;stroke:#000000;stroke-width:2.0px;stroke-linecap:butt;stroke-linejoin:miter;stroke-opacity:1;"/>
<path class="atom-2" d="M 52.5 50.2 Q 52.5 47.1, 54.0 45.4 Q 55.5 43.7, 58.3 43.7 Q 61.2 43.7, 62.7 45.4 Q 64.2 47.1, 64.2 50.2 Q 64.2 53.3, 62.7 55.1 Q 61.1 56.8, 58.3 56.8 Q 55.5 56.8, 54.0 55.1 Q 52.5 53.3, 52.5 50.2 M 58.3 55.4 Q 60.3 55.4, 61.3 54.1 Q 62.4 52.8, 62.4 50.2 Q 62.4 47.7, 61.3 46.4 Q 60.3 45.2, 58.3 45.2 Q 56.4 45.2, 55.3 46.4 Q 54.3 47.7, 54.3 50.2 Q 54.3 52.8, 55.3 54.1 Q 56.4 55.4, 58.3 55.4 " fill="#FF0000"/>
<path class="atom-2" d="M 66.2 43.9 L 67.9 43.9 L 67.9 49.3 L 74.4 49.3 L 74.4 43.9 L 76.1 43.9 L 76.1 56.6 L 74.4 56.6 L 74.4 50.7 L 67.9 50.7 L 67.9 56.6 L 66.2 56.6 L 66.2 43.9 " fill="#FF0000"/>
<path class="atom-8" d="M 201.5 114.3 Q 201.5 111.2, 203.1 109.5 Q 204.6 107.8, 207.4 107.8 Q 210.2 107.8, 211.7 109.5 Q 213.3 111.2, 213.3 114.3 Q 213.3 117.4, 211.7 119.2 Q 210.2 120.9, 207.4 120.9 Q 204.6 120.9, 203.1 119.2 Q 201.5 117.4, 201.5 114.3 M 207.4 119.5 Q 209.3 119.5, 210.4 118.2 Q 211.4 116.9, 211.4 114.3 Q 211.4 111.8, 210.4 110.5 Q 209.3 109.3, 207.4 109.3 Q 205.5 109.3, 204.4 110.5 Q 203.3 111.8, 203.3 114.3 Q 203.3 116.9, 204.4 118.2 Q 205.5 119.5, 207.4 119.5 " fill="#FF0000"/>
<path class="atom-9" d="M 171.3 42.5 Q 171.3 39.4, 172.8 37.7 Q 174.3 36.0, 177.2 36.0 Q 180.0 36.0, 181.5 37.7 Q 183.0 39.4, 183.0 42.5 Q 183.0 45.6, 181.5 47.3 Q 179.9 49.1, 177.2 49.1 Q 174.3 49.1, 172.8 47.3 Q 171.3 45.6, 171.3 42.5 M 177.2 47.6 Q 179.1 47.6, 180.1 46.3 Q 181.2 45.0, 181.2 42.5 Q 181.2 40.0, 180.1 38.7 Q 179.1 37.4, 177.2 37.4 Q 175.2 37.4, 174.1 38.7 Q 173.1 39.9, 173.1 42.5 Q 173.1 45.0, 174.1 46.3 Q 175.2 47.6, 177.2 47.6 " fill="#FF0000"/>
<path class="atom-9" d="M 185.0 36.1 L 186.7 36.1 L 186.7 41.5 L 193.2 41.5 L 193.2 36.1 L 195.0 36.1 L 195.0 48.9 L 193.2 48.9 L 193.2 43.0 L 186.7 43.0 L 186.7 48.9 L 185.0 48.9 L 185.0 36.1 " fill="#FF0000"/>
<path class="legend" d="M 103.7 181.9 Q 103.7 179.6, 104.4 177.7 Q 105.1 175.8, 106.4 173.8 L 107.3 174.4 Q 106.2 176.3, 105.7 178.0 Q 105.2 179.7, 105.2 181.9 Q 105.2 184.0, 105.7 185.8 Q 106.2 187.5, 107.3 189.4 L 106.4 190.0 Q 105.1 188.0, 104.4 186.1 Q 103.7 184.2, 103.7 181.9 " fill="#000000"/>
<path class="legend" d="M 108.2 177.3 Q 108.6 176.2, 109.6 175.6 Q 110.6 175.0, 112.0 175.0 Q 113.7 175.0, 114.6 175.9 Q 115.6 176.8, 115.6 178.5 Q 115.6 180.2, 114.3 181.7 Q 113.1 183.3, 110.6 185.2 L 115.8 185.2 L 115.8 186.4 L 108.2 186.4 L 108.2 185.4 Q 110.3 183.9, 111.5 182.8 Q 112.8 181.6, 113.4 180.6 Q 114.0 179.6, 114.0 178.6 Q 114.0 177.5, 113.5 176.9 Q 112.9 176.3, 112.0 176.3 Q 111.0 176.3, 110.4 176.6 Q 109.8 177.0, 109.4 177.8 L 108.2 177.3 " fill="#000000"/>
<path class="legend" d="M 120.8 181.9 Q 120.8 184.2, 120.1 186.1 Q 119.4 188.0, 118.1 190.0 L 117.2 189.4 Q 118.3 187.5, 118.8 185.8 Q 119.3 184.0, 119.3 181.9 Q 119.3 179.7, 118.8 178.0 Q 118.3 176.3, 117.2 174.4 L 118.1 173.8 Q 119.4 175.8, 120.1 177.7 Q 120.8 179.6, 120.8 181.9 " fill="#000000"/>
</g>
    <g transform="translate(225.0, 0) scale(1 1) "><line x1="5" y1="100" x2="35" y2="100" style="stroke:rgb(0,0,0);stroke-width:2"/>
  <line x1="34" y1="100" x2="29" y2="95" style="stroke:rgb(0,0,0);stroke-width:2"/>
  <line x1="34" y1="100" x2="29" y2="105" style="stroke:rgb(0,0,0);stroke-width:2"/>
</g>
    <g transform="translate(265.0, 0) scale(1 1) "><!-- END OF HEADER -->
<rect style="opacity:1.0;fill:#FFFFFF;stroke:none" width="215.0" height="200.0" x="0.0" y="0.0"> </rect>
<path class="bond-0 atom-0 atom-1" d="M 143.0,53.2 L 131.8,91.3" style="fill:none;fill-rule:evenodd;stroke:#000000;stroke-width:2.0px;stroke-linecap:butt;stroke-linejoin:miter;stroke-opacity:1"/>
<path class="bond-1 atom-1 atom-2" d="M 131.8,91.3 L 120.7,129.3" style="fill:none;fill-rule:evenodd;stroke:#000000;stroke-width:2.0px;stroke-linecap:butt;stroke-linejoin:miter;stroke-opacity:1"/>
<path class="bond-2 atom-1 atom-3" d="M 131.8,91.3 L 93.8,80.1" style="fill:none;fill-rule:evenodd;stroke:#000000;stroke-width:2.0px;stroke-linecap:butt;stroke-linejoin:miter;stroke-opacity:1"/>
<path class="bond-3 atom-3 atom-4" d="M 93.8,80.1 L 65.1,107.5" style="fill:none;fill-rule:evenodd;stroke:#000000;stroke-width:2.0px;stroke-linecap:butt;stroke-linejoin:miter;stroke-opacity:1"/>
<path class="bond-4 atom-4 atom-5" d="M 65.1,107.5 L 49.3,102.9" style="fill:none;fill-rule:evenodd;stroke:#000000;stroke-width:2.0px;stroke-linecap:butt;stroke-linejoin:miter;stroke-opacity:1"/>
<path class="bond-4 atom-4 atom-5" d="M 49.3,102.9 L 33.5,98.3" style="fill:none;fill-rule:evenodd;stroke:#FF0000;stroke-width:2.0px;stroke-linecap:butt;stroke-linejoin:miter;stroke-opacity:1"/>
<path class="bond-5 atom-1 atom-6" d="M 131.8,91.3 L 169.9,102.4" style="fill:none;fill-rule:evenodd;stroke:#000000;stroke-width:2.0px;stroke-linecap:butt;stroke-linejoin:miter;stroke-opacity:1"/>
<path class="bond-6 atom-6 atom-7" d="M 170.7,105.7 L 182.5,94.5" style="fill:none;fill-rule:evenodd;stroke:#000000;stroke-width:2.0px;stroke-linecap:butt;stroke-linejoin:miter;stroke-opacity:1"/>
<path class="bond-6 atom-6 atom-7" d="M 182.5,94.5 L 194.2,83.3" style="fill:none;fill-rule:evenodd;stroke:#FF0000;stroke-width:2.0px;stroke-linecap:butt;stroke-linejoin:miter;stroke-opacity:1"/>
<path class="bond-6 atom-6 atom-7" d="M 166.6,101.4 L 178.3,90.2" style="fill:none;fill-rule:evenodd;stroke:#000000;stroke-width:2.0px;stroke-linecap:butt;stroke-linejoin:miter;stroke-opacity:1"/>
<path class="bond-6 atom-6 atom-7" d="M 178.3,90.2 L 190.1,79.0" style="fill:none;fill-rule:evenodd;stroke:#FF0000;stroke-width:2.0px;stroke-linecap:butt;stroke-linejoin:miter;stroke-opacity:1"/>
<path class="bond-7 atom-6 atom-8" d="M 169.9,102.4 L 173.7,118.2" style="fill:none;fill-rule:evenodd;stroke:#000000;stroke-width:2.0px;stroke-linecap:butt;stroke-linejoin:miter;stroke-opacity:1"/>
<path class="bond-7 atom-6 atom-8" d="M 173.7,118.2 L 177.6,134.0" style="fill:none;fill-rule:evenodd;stroke:#FF0000;stroke-width:2.0px;stroke-linecap:butt;stroke-linejoin:miter;stroke-opacity:1"/>
<path d="M 95.7,80.7 L 93.8,80.1 L 92.3,81.5" style="fill:none;stroke:#000000;stroke-width:2.0px;stroke-linecap:butt;stroke-linejoin:miter;stroke-opacity:1;"/>
<path d="M 66.5,106.2 L 65.1,107.5 L 64.3,107.3" style="fill:none;stroke:#000000;stroke-width:2.0px;stroke-linecap:butt;stroke-linejoin:miter;stroke-opacity:1;"/>
<path d="M 168.0,101.9 L 169.9,102.4 L 170.1,103.2" style="fill:none;stroke:#000000;stroke-width:2.0px;stroke-linecap:butt;stroke-linejoin:miter;stroke-opacity:1;"/>
<path class="atom-5" d="M 10.8 90.8 L 12.3 90.8 L 12.3 95.6 L 18.0 95.6 L 18.0 90.8 L 19.5 90.8 L 19.5 102.1 L 18.0 102.1 L 18.0 96.9 L 12.3 96.9 L 12.3 102.1 L 10.8 102.1 L 10.8 90.8 " fill="#FF0000"/>
<path class="atom-5" d="M 21.8 96.4 Q 21.8 93.7, 23.2 92.2 Q 24.5 90.7, 27.0 90.7 Q 29.5 90.7, 30.8 92.2 Q 32.2 93.7, 32.2 96.4 Q 32.2 99.1, 30.8 100.7 Q 29.5 102.2, 27.0 102.2 Q 24.5 102.2, 23.2 100.7 Q 21.8 99.2, 21.8 96.4 M 27.0 101.0 Q 28.7 101.0, 29.6 99.8 Q 30.6 98.7, 30.6 96.4 Q 30.6 94.2, 29.6 93.1 Q 28.7 92.0, 27.0 92.0 Q 25.3 92.0, 24.4 93.1 Q 23.4 94.2, 23.4 96.4 Q 23.4 98.7, 24.4 99.8 Q 25.3 101.0, 27.0 101.0 " fill="#FF0000"/>
<path class="atom-7" d="M 193.4 75.0 Q 193.4 72.3, 194.8 70.8 Q 196.1 69.3, 198.6 69.3 Q 201.1 69.3, 202.4 70.8 Q 203.7 72.3, 203.7 75.0 Q 203.7 77.8, 202.4 79.3 Q 201.1 80.9, 198.6 80.9 Q 196.1 80.9, 194.8 79.3 Q 193.4 77.8, 193.4 75.0 M 198.6 79.6 Q 200.3 79.6, 201.2 78.5 Q 202.2 77.3, 202.2 75.0 Q 202.2 72.8, 201.2 71.7 Q 200.3 70.6, 198.6 70.6 Q 196.9 70.6, 195.9 71.7 Q 195.0 72.8, 195.0 75.0 Q 195.0 77.3, 195.9 78.5 Q 196.9 79.6, 198.6 79.6 " fill="#FF0000"/>
<path class="atom-8" d="M 174.1 141.0 Q 174.1 138.3, 175.5 136.8 Q 176.8 135.3, 179.3 135.3 Q 181.8 135.3, 183.1 136.8 Q 184.5 138.3, 184.5 141.0 Q 184.5 143.7, 183.1 145.3 Q 181.8 146.8, 179.3 146.8 Q 176.8 146.8, 175.5 145.3 Q 174.1 143.7, 174.1 141.0 M 179.3 145.5 Q 181.0 145.5, 181.9 144.4 Q 182.9 143.2, 182.9 141.0 Q 182.9 138.8, 181.9 137.7 Q 181.0 136.5, 179.3 136.5 Q 177.6 136.5, 176.6 137.7 Q 175.7 138.8, 175.7 141.0 Q 175.7 143.3, 176.6 144.4 Q 177.6 145.5, 179.3 145.5 " fill="#FF0000"/>
<path class="atom-8" d="M 186.2 135.4 L 187.7 135.4 L 187.7 140.2 L 193.5 140.2 L 193.5 135.4 L 195.0 135.4 L 195.0 146.6 L 193.5 146.6 L 193.5 141.4 L 187.7 141.4 L 187.7 146.6 L 186.2 146.6 L 186.2 135.4 " fill="#FF0000"/>
</g>
    <g transform="translate(480.0, 0) scale(1 1) "><line x1="15" y1="100" x2="25" y2="100" style="stroke:rgb(0,0,0);stroke-width:2"/>
  <line x1="20" y1="95" x2="20" y2="105" style="stroke:rgb(0,0,0);stroke-width:2"/>
</g>
    <g transform="translate(520.0, 0) scale(1 1) "><!-- END OF HEADER -->
<rect style="opacity:1.0;fill:#FFFFFF;stroke:none" width="233.0" height="200.0" x="0.0" y="0.0"> </rect>
<path class="bond-0 atom-0 atom-1" d="M 220.7,99.0 L 188.6,122.0" style="fill:none;fill-rule:evenodd;stroke:#000000;stroke-width:2.0px;stroke-linecap:butt;stroke-linejoin:miter;stroke-opacity:1"/>
<path class="bond-1 atom-1 atom-2" d="M 188.6,122.0 L 152.7,105.8" style="fill:none;fill-rule:evenodd;stroke:#000000;stroke-width:2.0px;stroke-linecap:butt;stroke-linejoin:miter;stroke-opacity:1"/>
<path class="bond-2 atom-2 atom-3" d="M 152.7,105.8 L 151.1,89.7" style="fill:none;fill-rule:evenodd;stroke:#000000;stroke-width:2.0px;stroke-linecap:butt;stroke-linejoin:miter;stroke-opacity:1"/>
<path class="bond-2 atom-2 atom-3" d="M 151.1,89.7 L 149.5,73.7" style="fill:none;fill-rule:evenodd;stroke:#FF0000;stroke-width:2.0px;stroke-linecap:butt;stroke-linejoin:miter;stroke-opacity:1"/>
<path class="bond-3 atom-2 atom-4" d="M 152.7,105.8 L 120.7,128.8" style="fill:none;fill-rule:evenodd;stroke:#000000;stroke-width:2.0px;stroke-linecap:butt;stroke-linejoin:miter;stroke-opacity:1"/>
<path class="bond-4 atom-4 atom-5" d="M 120.7,128.8 L 84.7,112.6" style="fill:none;fill-rule:evenodd;stroke:#000000;stroke-width:2.0px;stroke-linecap:butt;stroke-linejoin:miter;stroke-opacity:1"/>
<path class="bond-5 atom-5 atom-6" d="M 84.7,112.6 L 100.9,76.6" style="fill:none;fill-rule:evenodd;stroke:#000000;stroke-width:2.0px;stroke-linecap:butt;stroke-linejoin:miter;stroke-opacity:1"/>
<path class="bond-6 atom-5 atom-7" d="M 84.7,112.6 L 68.5,148.5" style="fill:none;fill-rule:evenodd;stroke:#000000;stroke-width:2.0px;stroke-linecap:butt;stroke-linejoin:miter;stroke-opacity:1"/>
<path class="bond-7 atom-5 atom-8" d="M 84.7,112.6 L 48.8,96.4" style="fill:none;fill-rule:evenodd;stroke:#000000;stroke-width:2.0px;stroke-linecap:butt;stroke-linejoin:miter;stroke-opacity:1"/>
<path class="bond-8 atom-8 atom-9" d="M 48.4,93.0 L 35.0,102.7" style="fill:none;fill-rule:evenodd;stroke:#000000;stroke-width:2.0px;stroke-linecap:butt;stroke-linejoin:miter;stroke-opacity:1"/>
<path class="bond-8 atom-8 atom-9" d="M 35.0,102.7 L 21.5,112.4" style="fill:none;fill-rule:evenodd;stroke:#FF0000;stroke-width:2.0px;stroke-linecap:butt;stroke-linejoin:miter;stroke-opacity:1"/>
<path class="bond-8 atom-8 atom-9" d="M 51.9,97.8 L 38.4,107.5" style="fill:none;fill-rule:evenodd;stroke:#000000;stroke-width:2.0px;stroke-linecap:butt;stroke-linejoin:miter;stroke-opacity:1"/>
<path class="bond-8 atom-8 atom-9" d="M 38.4,107.5 L 24.9,117.2" style="fill:none;fill-rule:evenodd;stroke:#FF0000;stroke-width:2.0px;stroke-linecap:butt;stroke-linejoin:miter;stroke-opacity:1"/>
<path class="bond-9 atom-8 atom-10" d="M 48.8,96.4 L 47.2,80.3" style="fill:none;fill-rule:evenodd;stroke:#000000;stroke-width:2.0px;stroke-linecap:butt;stroke-linejoin:miter;stroke-opacity:1"/>
<path class="bond-9 atom-8 atom-10" d="M 47.2,80.3 L 45.6,64.2" style="fill:none;fill-rule:evenodd;stroke:#FF0000;stroke-width:2.0px;stroke-linecap:butt;stroke-linejoin:miter;stroke-opacity:1"/>
<path d="M 190.2,120.8 L 188.6,122.0 L 186.8,121.2" style="fill:none;stroke:#000000;stroke-width:2.0px;stroke-linecap:butt;stroke-linejoin:miter;stroke-opacity:1;"/>
<path d="M 122.3,127.6 L 120.7,128.8 L 118.9,128.0" style="fill:none;stroke:#000000;stroke-width:2.0px;stroke-linecap:butt;stroke-linejoin:miter;stroke-opacity:1;"/>
<path d="M 50.6,97.2 L 48.8,96.4 L 48.7,95.6" style="fill:none;stroke:#000000;stroke-width:2.0px;stroke-linecap:butt;stroke-linejoin:miter;stroke-opacity:1;"/>
<path class="atom-3" d="M 143.6 66.6 Q 143.6 63.9, 145.0 62.4 Q 146.3 60.9, 148.8 60.9 Q 151.2 60.9, 152.6 62.4 Q 153.9 63.9, 153.9 66.6 Q 153.9 69.3, 152.5 70.8 Q 151.2 72.3, 148.8 72.3 Q 146.3 72.3, 145.0 70.8 Q 143.6 69.3, 143.6 66.6 M 148.8 71.1 Q 150.5 71.1, 151.4 70.0 Q 152.3 68.8, 152.3 66.6 Q 152.3 64.4, 151.4 63.3 Q 150.5 62.1, 148.8 62.1 Q 147.1 62.1, 146.1 63.2 Q 145.2 64.4, 145.2 66.6 Q 145.2 68.8, 146.1 70.0 Q 147.1 71.1, 148.8 71.1 " fill="#FF0000"/>
<path class="atom-3" d="M 155.6 61.0 L 157.1 61.0 L 157.1 65.8 L 162.8 65.8 L 162.8 61.0 L 164.4 61.0 L 164.4 72.2 L 162.8 72.2 L 162.8 67.0 L 157.1 67.0 L 157.1 72.2 L 155.6 72.2 L 155.6 61.0 " fill="#FF0000"/>
<path class="atom-9" d="M 11.6 119.4 Q 11.6 116.7, 13.0 115.2 Q 14.3 113.7, 16.8 113.7 Q 19.3 113.7, 20.6 115.2 Q 21.9 116.7, 21.9 119.4 Q 21.9 122.1, 20.6 123.7 Q 19.2 125.2, 16.8 125.2 Q 14.3 125.2, 13.0 123.7 Q 11.6 122.1, 11.6 119.4 M 16.8 123.9 Q 18.5 123.9, 19.4 122.8 Q 20.3 121.7, 20.3 119.4 Q 20.3 117.2, 19.4 116.1 Q 18.5 115.0, 16.8 115.0 Q 15.1 115.0, 14.1 116.1 Q 13.2 117.2, 13.2 119.4 Q 13.2 121.7, 14.1 122.8 Q 15.1 123.9, 16.8 123.9 " fill="#FF0000"/>
<path class="atom-10" d="M 39.7 57.2 Q 39.7 54.5, 41.1 53.0 Q 42.4 51.5, 44.9 51.5 Q 47.3 51.5, 48.7 53.0 Q 50.0 54.5, 50.0 57.2 Q 50.0 59.9, 48.6 61.4 Q 47.3 62.9, 44.9 62.9 Q 42.4 62.9, 41.1 61.4 Q 39.7 59.9, 39.7 57.2 M 44.9 61.7 Q 46.6 61.7, 47.5 60.5 Q 48.4 59.4, 48.4 57.2 Q 48.4 55.0, 47.5 53.9 Q 46.6 52.7, 44.9 52.7 Q 43.2 52.7, 42.2 53.8 Q 41.3 55.0, 41.3 57.2 Q 41.3 59.4, 42.2 60.5 Q 43.2 61.7, 44.9 61.7 " fill="#FF0000"/>
<path class="atom-10" d="M 51.7 51.6 L 53.2 51.6 L 53.2 56.4 L 58.9 56.4 L 58.9 51.6 L 60.5 51.6 L 60.5 62.8 L 58.9 62.8 L 58.9 57.6 L 53.2 57.6 L 53.2 62.8 L 51.7 62.8 L 51.7 51.6 " fill="#FF0000"/>
</g>
  </g>
</svg>
