<?xml version='1.0' encoding='ASCII' standalone='yes'?>
<svg xmlns="http://www.w3.org/2000/svg" xmlns:xlink="http://www.w3.org/1999/xlink" version="1.1" width="915.0px" viewBox="0 0 915.0 200.0" height="200.0px">
  <g>
    <g transform="translate(0, 0) scale(1 1) "><!-- END OF HEADER -->
<rect style="opacity:1.0;fill:#FFFFFF;stroke:none" width="280.0" height="200.0" x="0.0" y="0.0"> </rect>
<path class="bond-0 atom-0 atom-1" d="M 16.5,102.9 L 41.3,88.6" style="fill:none;fill-rule:evenodd;stroke:#000000;stroke-width:2.0px;stroke-linecap:butt;stroke-linejoin:miter;stroke-opacity:1"/>
<path class="bond-0 atom-0 atom-1" d="M 18.6,106.4 L 43.4,92.1" style="fill:none;fill-rule:evenodd;stroke:#000000;stroke-width:2.0px;stroke-linecap:butt;stroke-linejoin:miter;stroke-opacity:1"/>
<path class="bond-1 atom-1 atom-2" d="M 41.3,90.9 L 65.1,104.7" style="fill:none;fill-rule:evenodd;stroke:#000000;stroke-width:2.0px;stroke-linecap:butt;stroke-linejoin:miter;stroke-opacity:1"/>
<path class="bond-2 atom-2 atom-3" d="M 65.1,104.7 L 88.8,90.9" style="fill:none;fill-rule:evenodd;stroke:#000000;stroke-width:2.0px;stroke-linecap:butt;stroke-linejoin:miter;stroke-opacity:1"/>
<path class="bond-3 atom-3 atom-4" d="M 88.8,90.9 L 112.6,104.7" style="fill:none;fill-rule:evenodd;stroke:#000000;stroke-width:2.0px;stroke-linecap:butt;stroke-linejoin:miter;stroke-opacity:1"/>
<path class="bond-4 atom-4 atom-5" d="M 110.5,103.5 L 110.5,115.4" style="fill:none;fill-rule:evenodd;stroke:#000000;stroke-width:2.0px;stroke-linecap:butt;stroke-linejoin:miter;stroke-opacity:1"/>
<path class="bond-4 atom-4 atom-5" d="M 110.5,115.4 L 110.5,127.3" style="fill:none;fill-rule:evenodd;stroke:#FF0000;stroke-width:2.0px;stroke-linecap:butt;stroke-linejoin:miter;stroke-opacity:1"/>
<path class="bond-4 atom-4 atom-5" d="M 114.7,103.5 L 114.7,115.4" style="fill:none;fill-rule:evenodd;stroke:#000000;stroke-width:2.0px;stroke-linecap:butt;stroke-linejoin:miter;stroke-opacity:1"/>
<path class="bond-4 atom-4 atom-5" d="M 114.7,115.4 L 114.7,127.3" style="fill:none;fill-rule:evenodd;stroke:#FF0000;stroke-width:2.0px;stroke-linecap:butt;stroke-linejoin:miter;stroke-opacity:1"/>
<path class="bond-5 atom-4 atom-6" d="M 112.6,104.7 L 122.2,99.1" style="fill:none;fill-rule:evenodd;stroke:#000000;stroke-width:2.0px;stroke-linecap:butt;stroke-linejoin:miter;stroke-opacity:1"/>
<path class="bond-5 atom-4 atom-6" d="M 122.2,99.1 L 131.9,93.5" style="fill:none;fill-rule:evenodd;stroke:#FF0000;stroke-width:2.0px;stroke-linecap:butt;stroke-linejoin:miter;stroke-opacity:1"/>
<path class="bond-6 atom-6 atom-7" d="M 140.8,93.5 L 150.5,99.1" style="fill:none;fill-rule:evenodd;stroke:#FF0000;stroke-width:2.0px;stroke-linecap:butt;stroke-linejoin:miter;stroke-opacity:1"/>
<path class="bond-6 atom-6 atom-7" d="M 150.5,99.1 L 160.1,104.7" style="fill:none;fill-rule:evenodd;stroke:#000000;stroke-width:2.0px;stroke-linecap:butt;stroke-linejoin:miter;stroke-opacity:1"/>
<path class="bond-7 atom-7 atom-8" d="M 160.1,104.7 L 160.1,116.0" style="fill:none;fill-rule:evenodd;stroke:#000000;stroke-width:2.0px;stroke-linecap:butt;stroke-linejoin:miter;stroke-opacity:1"/>
<path class="bond-7 atom-7 atom-8" d="M 160.1,116.0 L 160.1,127.3" style="fill:none;fill-rule:evenodd;stroke:#FF0000;stroke-width:2.0px;stroke-linecap:butt;stroke-linejoin:miter;stroke-opacity:1"/>
<path class="bond-8 atom-7 atom-9" d="M 160.1,104.7 L 183.9,90.9" style="fill:none;fill-rule:evenodd;stroke:#000000;stroke-width:2.0px;stroke-linecap:butt;stroke-linejoin:miter;stroke-opacity:1"/>
<path class="bond-9 atom-9 atom-10" d="M 183.9,90.9 L 207.6,104.7" style="fill:none;fill-rule:evenodd;stroke:#000000;stroke-width:2.0px;stroke-linecap:butt;stroke-linejoin:miter;stroke-opacity:1"/>
<path class="bond-10 atom-10 atom-11" d="M 207.6,104.7 L 231.4,90.9" style="fill:none;fill-rule:evenodd;stroke:#000000;stroke-width:2.0px;stroke-linecap:butt;stroke-linejoin:miter;stroke-opacity:1"/>
<path class="bond-11 atom-11 atom-12" d="M 229.3,92.1 L 254.1,106.4" style="fill:none;fill-rule:evenodd;stroke:#000000;stroke-width:2.0px;stroke-linecap:butt;stroke-linejoin:miter;stroke-opacity:1"/>
<path class="bond-11 atom-11 atom-12" d="M 231.4,88.6 L 256.2,102.9" style="fill:none;fill-rule:evenodd;stroke:#000000;stroke-width:2.0px;stroke-linecap:butt;stroke-linejoin:miter;stroke-opacity:1"/>
<path class="bond-12 atom-11 atom-13" d="M 231.4,90.9 L 231.4,63.5" style="fill:none;fill-rule:evenodd;stroke:#000000;stroke-width:2.0px;stroke-linecap:butt;stroke-linejoin:miter;stroke-opacity:1"/>
<path class="bond-13 atom-13 atom-14" d="M 233.4,62.3 L 223.3,56.5" style="fill:none;fill-rule:evenodd;stroke:#000000;stroke-width:2.0px;stroke-linecap:butt;stroke-linejoin:miter;stroke-opacity:1"/>
<path class="bond-13 atom-13 atom-14" d="M 223.3,56.5 L 213.1,50.6" style="fill:none;fill-rule:evenodd;stroke:#FF0000;stroke-width:2.0px;stroke-linecap:butt;stroke-linejoin:miter;stroke-opacity:1"/>
<path class="bond-13 atom-13 atom-14" d="M 231.4,65.9 L 221.2,60.0" style="fill:none;fill-rule:evenodd;stroke:#000000;stroke-width:2.0px;stroke-linecap:butt;stroke-linejoin:miter;stroke-opacity:1"/>
<path class="bond-13 atom-13 atom-14" d="M 221.2,60.0 L 211.1,54.2" style="fill:none;fill-rule:evenodd;stroke:#FF0000;stroke-width:2.0px;stroke-linecap:butt;stroke-linejoin:miter;stroke-opacity:1"/>
<path class="bond-14 atom-13 atom-15" d="M 231.4,63.5 L 241.0,57.9" style="fill:none;fill-rule:evenodd;stroke:#000000;stroke-width:2.0px;stroke-linecap:butt;stroke-linejoin:miter;stroke-opacity:1"/>
<path class="bond-14 atom-13 atom-15" d="M 241.0,57.9 L 250.7,52.4" style="fill:none;fill-rule:evenodd;stroke:#FF0000;stroke-width:2.0px;stroke-linecap:butt;stroke-linejoin:miter;stroke-opacity:1"/>
<path class="bond-15 atom-1 atom-16" d="M 41.3,90.9 L 41.3,63.5" style="fill:none;fill-rule:evenodd;stroke:#000000;stroke-width:2.0px;stroke-linecap:butt;stroke-linejoin:miter;stroke-opacity:1"/>
<path class="bond-16 atom-16 atom-17" d="M 43.4,62.3 L 33.2,56.5" style="fill:none;fill-rule:evenodd;stroke:#000000;stroke-width:2.0px;stroke-linecap:butt;stroke-linejoin:miter;stroke-opacity:1"/>
<path class="bond-16 atom-16 atom-17" d="M 33.2,56.5 L 23.1,50.6" style="fill:none;fill-rule:evenodd;stroke:#FF0000;stroke-width:2.0px;stroke-linecap:butt;stroke-linejoin:miter;stroke-opacity:1"/>
<path class="bond-16 atom-16 atom-17" d="M 41.3,65.9 L 31.2,60.0" style="fill:none;fill-rule:evenodd;stroke:#000000;stroke-width:2.0px;stroke-linecap:butt;stroke-linejoin:miter;stroke-opacity:1"/>
<path class="bond-16 atom-16 atom-17" d="M 31.2,60.0 L 21.0,54.2" style="fill:none;fill-rule:evenodd;stroke:#FF0000;stroke-width:2.0px;stroke-linecap:butt;stroke-linejoin:miter;stroke-opacity:1"/>
<path class="bond-17 atom-16 atom-18" d="M 41.3,63.5 L 51.0,57.9" style="fill:none;fill-rule:evenodd;stroke:#000000;stroke-width:2.0px;stroke-linecap:butt;stroke-linejoin:miter;stroke-opacity:1"/>
<path class="bond-17 atom-16 atom-18" d="M 51.0,57.9 L 60.6,52.4" style="fill:none;fill-rule:evenodd;stroke:#FF0000;stroke-width:2.0px;stroke-linecap:butt;stroke-linejoin:miter;stroke-opacity:1"/>
<path d="M 42.5,91.6 L 41.3,90.9 L 41.3,89.6" style="fill:none;stroke:#000000;stroke-width:2.0px;stroke-linecap:butt;stroke-linejoin:miter;stroke-opacity:1;"/>
<path d="M 63.9,104.0 L 65.1,104.7 L 66.3,104.0" style="fill:none;stroke:#000000;stroke-width:2.0px;stroke-linecap:butt;stroke-linejoin:miter;stroke-opacity:1;"/>
<path d="M 87.7,91.6 L 88.8,90.9 L 90.0,91.6" style="fill:none;stroke:#000000;stroke-width:2.0px;stroke-linecap:butt;stroke-linejoin:miter;stroke-opacity:1;"/>
<path d="M 111.4,104.0 L 112.6,104.7 L 113.1,104.4" style="fill:none;stroke:#000000;stroke-width:2.0px;stroke-linecap:butt;stroke-linejoin:miter;stroke-opacity:1;"/>
<path d="M 182.7,91.6 L 183.9,90.9 L 185.1,91.6" style="fill:none;stroke:#000000;stroke-width:2.0px;stroke-linecap:butt;stroke-linejoin:miter;stroke-opacity:1;"/>
<path d="M 206.4,104.0 L 207.6,104.7 L 208.8,104.0" style="fill:none;stroke:#000000;stroke-width:2.0px;stroke-linecap:butt;stroke-linejoin:miter;stroke-opacity:1;"/>
<path d="M 230.2,91.6 L 231.4,90.9 L 231.4,89.6" style="fill:none;stroke:#000000;stroke-width:2.0px;stroke-linecap:butt;stroke-linejoin:miter;stroke-opacity:1;"/>
<path d="M 231.4,64.9 L 231.4,63.5 L 231.9,63.2" style="fill:none;stroke:#000000;stroke-width:2.0px;stroke-linecap:butt;stroke-linejoin:miter;stroke-opacity:1;"/>
<path d="M 41.3,64.9 L 41.3,63.5 L 41.8,63.2" style="fill:none;stroke:#000000;stroke-width:2.0px;stroke-linecap:butt;stroke-linejoin:miter;stroke-opacity:1;"/>
<path class="atom-5" d="M 109.0 132.1 Q 109.0 130.2, 110.0 129.2 Q 110.9 128.2, 112.6 128.2 Q 114.3 128.2, 115.2 129.2 Q 116.2 130.2, 116.2 132.1 Q 116.2 134.0, 115.2 135.1 Q 114.3 136.1, 112.6 136.1 Q 110.9 136.1, 110.0 135.1 Q 109.0 134.0, 109.0 132.1 M 112.6 135.3 Q 113.8 135.3, 114.4 134.5 Q 115.1 133.7, 115.1 132.1 Q 115.1 130.6, 114.4 129.8 Q 113.8 129.0, 112.6 129.0 Q 111.4 129.0, 110.8 129.8 Q 110.1 130.6, 110.1 132.1 Q 110.1 133.7, 110.8 134.5 Q 111.4 135.3, 112.6 135.3 " fill="#FF0000"/>
<path class="atom-6" d="M 132.8 91.0 Q 132.8 89.1, 133.7 88.1 Q 134.6 87.0, 136.4 87.0 Q 138.1 87.0, 139.0 88.1 Q 139.9 89.1, 139.9 91.0 Q 139.9 92.8, 139.0 93.9 Q 138.1 95.0, 136.4 95.0 Q 134.6 95.0, 133.7 93.9 Q 132.8 92.9, 132.8 91.0 M 136.4 94.1 Q 137.5 94.1, 138.2 93.3 Q 138.8 92.5, 138.8 91.0 Q 138.8 89.4, 138.2 88.7 Q 137.5 87.9, 136.4 87.9 Q 135.2 87.9, 134.5 88.7 Q 133.9 89.4, 133.9 91.0 Q 133.9 92.5, 134.5 93.3 Q 135.2 94.1, 136.4 94.1 " fill="#FF0000"/>
<path class="atom-8" d="M 156.5 132.1 Q 156.5 130.2, 157.5 129.2 Q 158.4 128.2, 160.1 128.2 Q 161.8 128.2, 162.8 129.2 Q 163.7 130.2, 163.7 132.1 Q 163.7 134.0, 162.7 135.1 Q 161.8 136.1, 160.1 136.1 Q 158.4 136.1, 157.5 135.1 Q 156.5 134.0, 156.5 132.1 M 160.1 135.3 Q 161.3 135.3, 161.9 134.5 Q 162.6 133.7, 162.6 132.1 Q 162.6 130.6, 161.9 129.8 Q 161.3 129.0, 160.1 129.0 Q 158.9 129.0, 158.3 129.8 Q 157.6 130.6, 157.6 132.1 Q 157.6 133.7, 158.3 134.5 Q 158.9 135.3, 160.1 135.3 " fill="#FF0000"/>
<path class="atom-8" d="M 164.9 128.2 L 165.9 128.2 L 165.9 131.6 L 169.9 131.6 L 169.9 128.2 L 171.0 128.2 L 171.0 136.0 L 169.9 136.0 L 169.9 132.4 L 165.9 132.4 L 165.9 136.0 L 164.9 136.0 L 164.9 128.2 " fill="#FF0000"/>
<path class="atom-14" d="M 204.1 49.8 Q 204.1 47.9, 205.0 46.9 Q 205.9 45.9, 207.6 45.9 Q 209.4 45.9, 210.3 46.9 Q 211.2 47.9, 211.2 49.8 Q 211.2 51.7, 210.3 52.8 Q 209.3 53.8, 207.6 53.8 Q 205.9 53.8, 205.0 52.8 Q 204.1 51.7, 204.1 49.8 M 207.6 53.0 Q 208.8 53.0, 209.5 52.2 Q 210.1 51.4, 210.1 49.8 Q 210.1 48.3, 209.5 47.5 Q 208.8 46.7, 207.6 46.7 Q 206.4 46.7, 205.8 47.5 Q 205.2 48.3, 205.2 49.8 Q 205.2 51.4, 205.8 52.2 Q 206.4 53.0, 207.6 53.0 " fill="#FF0000"/>
<path class="atom-15" d="M 251.6 49.8 Q 251.6 47.9, 252.5 46.9 Q 253.4 45.9, 255.1 45.9 Q 256.9 45.9, 257.8 46.9 Q 258.7 47.9, 258.7 49.8 Q 258.7 51.7, 257.8 52.8 Q 256.8 53.8, 255.1 53.8 Q 253.4 53.8, 252.5 52.8 Q 251.6 51.7, 251.6 49.8 M 255.1 53.0 Q 256.3 53.0, 257.0 52.2 Q 257.6 51.4, 257.6 49.8 Q 257.6 48.3, 257.0 47.5 Q 256.3 46.7, 255.1 46.7 Q 254.0 46.7, 253.3 47.5 Q 252.7 48.3, 252.7 49.8 Q 252.7 51.4, 253.3 52.2 Q 254.0 53.0, 255.1 53.0 " fill="#FF0000"/>
<path class="atom-15" d="M 259.9 45.9 L 261.0 45.9 L 261.0 49.3 L 264.9 49.3 L 264.9 45.9 L 266.0 45.9 L 266.0 53.7 L 264.9 53.7 L 264.9 50.1 L 261.0 50.1 L 261.0 53.7 L 259.9 53.7 L 259.9 45.9 " fill="#FF0000"/>
<path class="atom-17" d="M 14.0 49.8 Q 14.0 47.9, 14.9 46.9 Q 15.8 45.9, 17.6 45.9 Q 19.3 45.9, 20.2 46.9 Q 21.1 47.9, 21.1 49.8 Q 21.1 51.7, 20.2 52.8 Q 19.3 53.8, 17.6 53.8 Q 15.9 53.8, 14.9 52.8 Q 14.0 51.7, 14.0 49.8 M 17.6 53.0 Q 18.8 53.0, 19.4 52.2 Q 20.0 51.4, 20.0 49.8 Q 20.0 48.3, 19.4 47.5 Q 18.8 46.7, 17.6 46.7 Q 16.4 46.7, 15.7 47.5 Q 15.1 48.3, 15.1 49.8 Q 15.1 51.4, 15.7 52.2 Q 16.4 53.0, 17.6 53.0 " fill="#FF0000"/>
<path class="atom-18" d="M 61.5 49.8 Q 61.5 47.9, 62.4 46.9 Q 63.4 45.9, 65.1 45.9 Q 66.8 45.9, 67.7 46.9 Q 68.6 47.9, 68.6 49.8 Q 68.6 51.7, 67.7 52.8 Q 66.8 53.8, 65.1 53.8 Q 63.4 53.8, 62.4 52.8 Q 61.5 51.7, 61.5 49.8 M 65.1 53.0 Q 66.3 53.0, 66.9 52.2 Q 67.6 51.4, 67.6 49.8 Q 67.6 48.3, 66.9 47.5 Q 66.3 46.7, 65.1 46.7 Q 63.9 46.7, 63.2 47.5 Q 62.6 48.3, 62.6 49.8 Q 62.6 51.4, 63.2 52.2 Q 63.9 53.0, 65.1 53.0 " fill="#FF0000"/>
<path class="atom-18" d="M 69.9 45.9 L 70.9 45.9 L 70.9 49.3 L 74.9 49.3 L 74.9 45.9 L 75.9 45.9 L 75.9 53.7 L 74.9 53.7 L 74.9 50.1 L 70.9 50.1 L 70.9 53.7 L 69.9 53.7 L 69.9 45.9 " fill="#FF0000"/>
<path class="legend" d="M 131.5 181.9 Q 131.5 179.6, 132.2 177.7 Q 132.8 175.8, 134.1 173.8 L 135.0 174.4 Q 134.0 176.3, 133.4 178.0 Q 132.9 179.7, 132.9 181.9 Q 132.9 184.0, 133.4 185.8 Q 134.0 187.5, 135.0 189.4 L 134.1 190.0 Q 132.8 188.0, 132.2 186.1 Q 131.5 184.2, 131.5 181.9 " fill="#000000"/>
<path class="legend" d="M 135.9 177.3 Q 136.4 176.2, 137.3 175.6 Q 138.3 175.0, 139.7 175.0 Q 141.4 175.0, 142.4 175.9 Q 143.3 176.8, 143.3 178.5 Q 143.3 180.2, 142.1 181.7 Q 140.9 183.3, 138.3 185.2 L 143.5 185.2 L 143.5 186.4 L 135.9 186.4 L 135.9 185.4 Q 138.0 183.9, 139.3 182.8 Q 140.5 181.6, 141.1 180.6 Q 141.7 179.6, 141.7 178.6 Q 141.7 177.5, 141.2 176.9 Q 140.7 176.3, 139.7 176.3 Q 138.8 176.3, 138.2 176.6 Q 137.6 177.0, 137.2 177.8 L 135.9 177.3 " fill="#000000"/>
<path class="legend" d="M 148.5 181.9 Q 148.5 184.2, 147.8 186.1 Q 147.2 188.0, 145.9 190.0 L 145.0 189.4 Q 146.0 187.5, 146.5 185.8 Q 147.1 184.0, 147.1 181.9 Q 147.1 179.7, 146.5 178.0 Q 146.0 176.3, 145.0 174.4 L 145.9 173.8 Q 147.2 175.8, 147.8 177.7 Q 148.5 179.6, 148.5 181.9 " fill="#000000"/>
</g>
    <g transform="translate(280.0, 0) scale(1 1) "><line x1="5" y1="100" x2="35" y2="100" style="stroke:rgb(0,0,0);stroke-width:2"/>
  <line x1="34" y1="100" x2="29" y2="95" style="stroke:rgb(0,0,0);stroke-width:2"/>
  <line x1="34" y1="100" x2="29" y2="105" style="stroke:rgb(0,0,0);stroke-width:2"/>
</g>
    <g transform="translate(320.0, 0) scale(1 1) "><!-- END OF HEADER -->
<rect style="opacity:1.0;fill:#FFFFFF;stroke:none" width="254.0" height="200.0" x="0.0" y="0.0"> </rect>
<path class="bond-0 atom-0 atom-1" d="M 200.7,51.6 L 188.3,81.7" style="fill:none;fill-rule:evenodd;stroke:#000000;stroke-width:2.0px;stroke-linecap:butt;stroke-linejoin:miter;stroke-opacity:1"/>
<path class="bond-0 atom-0 atom-1" d="M 196.4,49.8 L 183.9,79.9" style="fill:none;fill-rule:evenodd;stroke:#000000;stroke-width:2.0px;stroke-linecap:butt;stroke-linejoin:miter;stroke-opacity:1"/>
<path class="bond-1 atom-1 atom-2" d="M 186.6,79.6 L 155.6,83.7" style="fill:none;fill-rule:evenodd;stroke:#000000;stroke-width:2.0px;stroke-linecap:butt;stroke-linejoin:miter;stroke-opacity:1"/>
<path class="bond-2 atom-2 atom-3" d="M 155.6,83.7 L 143.7,112.6" style="fill:none;fill-rule:evenodd;stroke:#000000;stroke-width:2.0px;stroke-linecap:butt;stroke-linejoin:miter;stroke-opacity:1"/>
<path class="bond-3 atom-3 atom-4" d="M 143.7,112.6 L 112.7,116.7" style="fill:none;fill-rule:evenodd;stroke:#000000;stroke-width:2.0px;stroke-linecap:butt;stroke-linejoin:miter;stroke-opacity:1"/>
<path class="bond-4 atom-4 atom-5" d="M 112.7,116.7 L 107.9,128.4" style="fill:none;fill-rule:evenodd;stroke:#000000;stroke-width:2.0px;stroke-linecap:butt;stroke-linejoin:miter;stroke-opacity:1"/>
<path class="bond-4 atom-4 atom-5" d="M 107.9,128.4 L 103.1,140.1" style="fill:none;fill-rule:evenodd;stroke:#FF0000;stroke-width:2.0px;stroke-linecap:butt;stroke-linejoin:miter;stroke-opacity:1"/>
<path class="bond-5 atom-4 atom-6" d="M 112.7,116.7 L 105.4,107.1" style="fill:none;fill-rule:evenodd;stroke:#000000;stroke-width:2.0px;stroke-linecap:butt;stroke-linejoin:miter;stroke-opacity:1"/>
<path class="bond-5 atom-4 atom-6" d="M 105.4,107.1 L 98.0,97.6" style="fill:none;fill-rule:evenodd;stroke:#FF0000;stroke-width:2.0px;stroke-linecap:butt;stroke-linejoin:miter;stroke-opacity:1"/>
<path class="bond-6 atom-6 atom-7" d="M 88.6,92.6 L 75.7,94.3" style="fill:none;fill-rule:evenodd;stroke:#FF0000;stroke-width:2.0px;stroke-linecap:butt;stroke-linejoin:miter;stroke-opacity:1"/>
<path class="bond-6 atom-6 atom-7" d="M 75.7,94.3 L 62.7,96.1" style="fill:none;fill-rule:evenodd;stroke:#000000;stroke-width:2.0px;stroke-linecap:butt;stroke-linejoin:miter;stroke-opacity:1"/>
<path class="bond-7 atom-7 atom-8" d="M 61.1,93.9 L 56.0,106.2" style="fill:none;fill-rule:evenodd;stroke:#000000;stroke-width:2.0px;stroke-linecap:butt;stroke-linejoin:miter;stroke-opacity:1"/>
<path class="bond-7 atom-7 atom-8" d="M 56.0,106.2 L 50.9,118.5" style="fill:none;fill-rule:evenodd;stroke:#FF0000;stroke-width:2.0px;stroke-linecap:butt;stroke-linejoin:miter;stroke-opacity:1"/>
<path class="bond-7 atom-7 atom-8" d="M 65.4,95.7 L 60.3,108.0" style="fill:none;fill-rule:evenodd;stroke:#000000;stroke-width:2.0px;stroke-linecap:butt;stroke-linejoin:miter;stroke-opacity:1"/>
<path class="bond-7 atom-7 atom-8" d="M 60.3,108.0 L 55.2,120.3" style="fill:none;fill-rule:evenodd;stroke:#FF0000;stroke-width:2.0px;stroke-linecap:butt;stroke-linejoin:miter;stroke-opacity:1"/>
<path class="bond-8 atom-7 atom-9" d="M 62.7,96.1 L 43.7,71.3" style="fill:none;fill-rule:evenodd;stroke:#000000;stroke-width:2.0px;stroke-linecap:butt;stroke-linejoin:miter;stroke-opacity:1"/>
<path class="bond-9 atom-9 atom-10" d="M 43.7,71.3 L 12.7,75.4" style="fill:none;fill-rule:evenodd;stroke:#000000;stroke-width:2.0px;stroke-linecap:butt;stroke-linejoin:miter;stroke-opacity:1"/>
<path class="bond-10 atom-1 atom-11" d="M 186.6,79.6 L 205.7,104.3" style="fill:none;fill-rule:evenodd;stroke:#000000;stroke-width:2.0px;stroke-linecap:butt;stroke-linejoin:miter;stroke-opacity:1"/>
<path class="bond-11 atom-11 atom-12" d="M 204.6,106.8 L 218.2,105.0" style="fill:none;fill-rule:evenodd;stroke:#000000;stroke-width:2.0px;stroke-linecap:butt;stroke-linejoin:miter;stroke-opacity:1"/>
<path class="bond-11 atom-11 atom-12" d="M 218.2,105.0 L 231.9,103.2" style="fill:none;fill-rule:evenodd;stroke:#FF0000;stroke-width:2.0px;stroke-linecap:butt;stroke-linejoin:miter;stroke-opacity:1"/>
<path class="bond-11 atom-11 atom-12" d="M 204.0,102.2 L 217.6,100.4" style="fill:none;fill-rule:evenodd;stroke:#000000;stroke-width:2.0px;stroke-linecap:butt;stroke-linejoin:miter;stroke-opacity:1"/>
<path class="bond-11 atom-11 atom-12" d="M 217.6,100.4 L 231.2,98.6" style="fill:none;fill-rule:evenodd;stroke:#FF0000;stroke-width:2.0px;stroke-linecap:butt;stroke-linejoin:miter;stroke-opacity:1"/>
<path class="bond-12 atom-11 atom-13" d="M 205.7,104.3 L 200.8,116.0" style="fill:none;fill-rule:evenodd;stroke:#000000;stroke-width:2.0px;stroke-linecap:butt;stroke-linejoin:miter;stroke-opacity:1"/>
<path class="bond-12 atom-11 atom-13" d="M 200.8,116.0 L 196.0,127.7" style="fill:none;fill-rule:evenodd;stroke:#FF0000;stroke-width:2.0px;stroke-linecap:butt;stroke-linejoin:miter;stroke-opacity:1"/>
<path d="M 185.1,79.8 L 186.6,79.6 L 187.6,80.8" style="fill:none;stroke:#000000;stroke-width:2.0px;stroke-linecap:butt;stroke-linejoin:miter;stroke-opacity:1;"/>
<path d="M 157.2,83.5 L 155.6,83.7 L 155.0,85.1" style="fill:none;stroke:#000000;stroke-width:2.0px;stroke-linecap:butt;stroke-linejoin:miter;stroke-opacity:1;"/>
<path d="M 144.3,111.1 L 143.7,112.6 L 142.2,112.8" style="fill:none;stroke:#000000;stroke-width:2.0px;stroke-linecap:butt;stroke-linejoin:miter;stroke-opacity:1;"/>
<path d="M 63.4,96.0 L 62.7,96.1 L 61.8,94.8" style="fill:none;stroke:#000000;stroke-width:2.0px;stroke-linecap:butt;stroke-linejoin:miter;stroke-opacity:1;"/>
<path d="M 44.6,72.5 L 43.7,71.3 L 42.1,71.5" style="fill:none;stroke:#000000;stroke-width:2.0px;stroke-linecap:butt;stroke-linejoin:miter;stroke-opacity:1;"/>
<path d="M 204.7,103.1 L 205.7,104.3 L 205.4,104.9" style="fill:none;stroke:#000000;stroke-width:2.0px;stroke-linecap:butt;stroke-linejoin:miter;stroke-opacity:1;"/>
<path class="atom-5" d="M 88.0 141.2 L 89.2 141.2 L 89.2 145.0 L 93.8 145.0 L 93.8 141.2 L 95.0 141.2 L 95.0 150.1 L 93.8 150.1 L 93.8 146.0 L 89.2 146.0 L 89.2 150.1 L 88.0 150.1 L 88.0 141.2 " fill="#FF0000"/>
<path class="atom-5" d="M 96.8 145.6 Q 96.8 143.5, 97.8 142.3 Q 98.9 141.1, 100.8 141.1 Q 102.8 141.1, 103.8 142.3 Q 104.9 143.5, 104.9 145.6 Q 104.9 147.8, 103.8 149.0 Q 102.8 150.2, 100.8 150.2 Q 98.9 150.2, 97.8 149.0 Q 96.8 147.8, 96.8 145.6 M 100.8 149.2 Q 102.2 149.2, 102.9 148.3 Q 103.6 147.4, 103.6 145.6 Q 103.6 143.9, 102.9 143.0 Q 102.2 142.1, 100.8 142.1 Q 99.5 142.1, 98.7 143.0 Q 98.0 143.9, 98.0 145.6 Q 98.0 147.4, 98.7 148.3 Q 99.5 149.2, 100.8 149.2 " fill="#FF0000"/>
<path class="atom-6" d="M 89.6 92.0 Q 89.6 89.8, 90.7 88.6 Q 91.7 87.5, 93.7 87.5 Q 95.7 87.5, 96.7 88.6 Q 97.8 89.8, 97.8 92.0 Q 97.8 94.1, 96.7 95.3 Q 95.6 96.5, 93.7 96.5 Q 91.7 96.5, 90.7 95.3 Q 89.6 94.1, 89.6 92.0 M 93.7 95.5 Q 95.0 95.5, 95.8 94.6 Q 96.5 93.7, 96.5 92.0 Q 96.5 90.2, 95.8 89.3 Q 95.0 88.5, 93.7 88.5 Q 92.3 88.5, 91.6 89.3 Q 90.9 90.2, 90.9 92.0 Q 90.9 93.7, 91.6 94.6 Q 92.3 95.5, 93.7 95.5 " fill="#FF0000"/>
<path class="atom-8" d="M 46.7 125.0 Q 46.7 122.8, 47.8 121.6 Q 48.8 120.5, 50.8 120.5 Q 52.8 120.5, 53.8 121.6 Q 54.9 122.8, 54.9 125.0 Q 54.9 127.1, 53.8 128.3 Q 52.7 129.5, 50.8 129.5 Q 48.9 129.5, 47.8 128.3 Q 46.7 127.1, 46.7 125.0 M 50.8 128.5 Q 52.2 128.5, 52.9 127.6 Q 53.6 126.7, 53.6 125.0 Q 53.6 123.2, 52.9 122.3 Q 52.2 121.5, 50.8 121.5 Q 49.5 121.5, 48.7 122.3 Q 48.0 123.2, 48.0 125.0 Q 48.0 126.7, 48.7 127.6 Q 49.5 128.5, 50.8 128.5 " fill="#FF0000"/>
<path class="atom-12" d="M 232.6 100.3 Q 232.6 98.1, 233.6 96.9 Q 234.7 95.8, 236.6 95.8 Q 238.6 95.8, 239.7 96.9 Q 240.7 98.1, 240.7 100.3 Q 240.7 102.4, 239.6 103.6 Q 238.6 104.8, 236.6 104.8 Q 234.7 104.8, 233.6 103.6 Q 232.6 102.4, 232.6 100.3 M 236.6 103.8 Q 238.0 103.8, 238.7 102.9 Q 239.5 102.0, 239.5 100.3 Q 239.5 98.5, 238.7 97.6 Q 238.0 96.8, 236.6 96.8 Q 235.3 96.8, 234.6 97.6 Q 233.8 98.5, 233.8 100.3 Q 233.8 102.0, 234.6 102.9 Q 235.3 103.8, 236.6 103.8 " fill="#FF0000"/>
<path class="atom-13" d="M 180.9 128.9 L 182.1 128.9 L 182.1 132.6 L 186.7 132.6 L 186.7 128.9 L 187.9 128.9 L 187.9 137.7 L 186.7 137.7 L 186.7 133.6 L 182.1 133.6 L 182.1 137.7 L 180.9 137.7 L 180.9 128.9 " fill="#FF0000"/>
<path class="atom-13" d="M 189.7 133.3 Q 189.7 131.1, 190.7 129.9 Q 191.8 128.8, 193.7 128.8 Q 195.7 128.8, 196.8 129.9 Q 197.8 131.1, 197.8 133.3 Q 197.8 135.4, 196.7 136.6 Q 195.7 137.8, 193.7 137.8 Q 191.8 137.8, 190.7 136.6 Q 189.7 135.4, 189.7 133.3 M 193.7 136.8 Q 195.1 136.8, 195.8 135.9 Q 196.6 135.0, 196.6 133.3 Q 196.6 131.5, 195.8 130.6 Q 195.1 129.8, 193.7 129.8 Q 192.4 129.8, 191.7 130.6 Q 190.9 131.5, 190.9 133.3 Q 190.9 135.0, 191.7 135.9 Q 192.4 136.8, 193.7 136.8 " fill="#FF0000"/>
</g>
    <g transform="translate(574.0, 0) scale(1 1) "><line x1="15" y1="100" x2="25" y2="100" style="stroke:rgb(0,0,0);stroke-width:2"/>
  <line x1="20" y1="95" x2="20" y2="105" style="stroke:rgb(0,0,0);stroke-width:2"/>
</g>
    <g transform="translate(614.0, 0) scale(1 1) "><!-- END OF HEADER -->
<rect style="opacity:1.0;fill:#FFFFFF;stroke:none" width="301.0" height="200.0" x="0.0" y="0.0"> </rect>
<path class="bond-0 atom-0 atom-1" d="M 59.9,74.9 L 59.2,98.7" style="fill:none;fill-rule:evenodd;stroke:#000000;stroke-width:2.0px;stroke-linecap:butt;stroke-linejoin:miter;stroke-opacity:1"/>
<path class="bond-0 atom-0 atom-1" d="M 56.5,74.8 L 55.8,98.6" style="fill:none;fill-rule:evenodd;stroke:#000000;stroke-width:2.0px;stroke-linecap:butt;stroke-linejoin:miter;stroke-opacity:1"/>
<path class="bond-1 atom-1 atom-2" d="M 57.6,97.6 L 77.0,109.6" style="fill:none;fill-rule:evenodd;stroke:#000000;stroke-width:2.0px;stroke-linecap:butt;stroke-linejoin:miter;stroke-opacity:1"/>
<path class="bond-2 atom-2 atom-3" d="M 77.0,109.6 L 97.1,98.8" style="fill:none;fill-rule:evenodd;stroke:#000000;stroke-width:2.0px;stroke-linecap:butt;stroke-linejoin:miter;stroke-opacity:1"/>
<path class="bond-2 atom-2 atom-3" d="M 77.1,105.7 L 93.7,96.7" style="fill:none;fill-rule:evenodd;stroke:#000000;stroke-width:2.0px;stroke-linecap:butt;stroke-linejoin:miter;stroke-opacity:1"/>
<path class="bond-3 atom-3 atom-4" d="M 97.1,98.8 L 116.5,110.8" style="fill:none;fill-rule:evenodd;stroke:#000000;stroke-width:2.0px;stroke-linecap:butt;stroke-linejoin:miter;stroke-opacity:1"/>
<path class="bond-4 atom-4 atom-5" d="M 116.5,110.8 L 136.6,99.9" style="fill:none;fill-rule:evenodd;stroke:#000000;stroke-width:2.0px;stroke-linecap:butt;stroke-linejoin:miter;stroke-opacity:1"/>
<path class="bond-5 atom-5 atom-6" d="M 136.6,99.9 L 156.1,111.9" style="fill:none;fill-rule:evenodd;stroke:#000000;stroke-width:2.0px;stroke-linecap:butt;stroke-linejoin:miter;stroke-opacity:1"/>
<path class="bond-6 atom-6 atom-7" d="M 154.4,110.9 L 154.1,120.8" style="fill:none;fill-rule:evenodd;stroke:#000000;stroke-width:2.0px;stroke-linecap:butt;stroke-linejoin:miter;stroke-opacity:1"/>
<path class="bond-6 atom-6 atom-7" d="M 154.1,120.8 L 153.8,130.7" style="fill:none;fill-rule:evenodd;stroke:#FF0000;stroke-width:2.0px;stroke-linecap:butt;stroke-linejoin:miter;stroke-opacity:1"/>
<path class="bond-6 atom-6 atom-7" d="M 157.8,111.0 L 157.5,120.9" style="fill:none;fill-rule:evenodd;stroke:#000000;stroke-width:2.0px;stroke-linecap:butt;stroke-linejoin:miter;stroke-opacity:1"/>
<path class="bond-6 atom-6 atom-7" d="M 157.5,120.9 L 157.2,130.8" style="fill:none;fill-rule:evenodd;stroke:#FF0000;stroke-width:2.0px;stroke-linecap:butt;stroke-linejoin:miter;stroke-opacity:1"/>
<path class="bond-7 atom-6 atom-8" d="M 156.1,111.9 L 164.3,107.5" style="fill:none;fill-rule:evenodd;stroke:#000000;stroke-width:2.0px;stroke-linecap:butt;stroke-linejoin:miter;stroke-opacity:1"/>
<path class="bond-7 atom-6 atom-8" d="M 164.3,107.5 L 172.4,103.1" style="fill:none;fill-rule:evenodd;stroke:#FF0000;stroke-width:2.0px;stroke-linecap:butt;stroke-linejoin:miter;stroke-opacity:1"/>
<path class="bond-8 atom-8 atom-9" d="M 179.9,103.4 L 187.7,108.3" style="fill:none;fill-rule:evenodd;stroke:#FF0000;stroke-width:2.0px;stroke-linecap:butt;stroke-linejoin:miter;stroke-opacity:1"/>
<path class="bond-8 atom-8 atom-9" d="M 187.7,108.3 L 195.6,113.1" style="fill:none;fill-rule:evenodd;stroke:#000000;stroke-width:2.0px;stroke-linecap:butt;stroke-linejoin:miter;stroke-opacity:1"/>
<path class="bond-9 atom-9 atom-10" d="M 195.6,113.1 L 195.3,122.5" style="fill:none;fill-rule:evenodd;stroke:#000000;stroke-width:2.0px;stroke-linecap:butt;stroke-linejoin:miter;stroke-opacity:1"/>
<path class="bond-9 atom-9 atom-10" d="M 195.3,122.5 L 195.0,131.9" style="fill:none;fill-rule:evenodd;stroke:#FF0000;stroke-width:2.0px;stroke-linecap:butt;stroke-linejoin:miter;stroke-opacity:1"/>
<path class="bond-10 atom-9 atom-11" d="M 195.6,113.1 L 215.7,102.3" style="fill:none;fill-rule:evenodd;stroke:#000000;stroke-width:2.0px;stroke-linecap:butt;stroke-linejoin:miter;stroke-opacity:1"/>
<path class="bond-11 atom-11 atom-12" d="M 215.7,102.3 L 235.1,114.3" style="fill:none;fill-rule:evenodd;stroke:#000000;stroke-width:2.0px;stroke-linecap:butt;stroke-linejoin:miter;stroke-opacity:1"/>
<path class="bond-12 atom-12 atom-13" d="M 235.1,114.3 L 255.2,103.4" style="fill:none;fill-rule:evenodd;stroke:#000000;stroke-width:2.0px;stroke-linecap:butt;stroke-linejoin:miter;stroke-opacity:1"/>
<path class="bond-13 atom-13 atom-14" d="M 253.5,104.4 L 273.8,116.9" style="fill:none;fill-rule:evenodd;stroke:#000000;stroke-width:2.0px;stroke-linecap:butt;stroke-linejoin:miter;stroke-opacity:1"/>
<path class="bond-13 atom-13 atom-14" d="M 255.3,101.5 L 275.6,114.0" style="fill:none;fill-rule:evenodd;stroke:#000000;stroke-width:2.0px;stroke-linecap:butt;stroke-linejoin:miter;stroke-opacity:1"/>
<path class="bond-14 atom-13 atom-15" d="M 255.2,103.4 L 255.9,80.6" style="fill:none;fill-rule:evenodd;stroke:#000000;stroke-width:2.0px;stroke-linecap:butt;stroke-linejoin:miter;stroke-opacity:1"/>
<path class="bond-15 atom-15 atom-16" d="M 257.7,79.7 L 249.4,74.6" style="fill:none;fill-rule:evenodd;stroke:#000000;stroke-width:2.0px;stroke-linecap:butt;stroke-linejoin:miter;stroke-opacity:1"/>
<path class="bond-15 atom-15 atom-16" d="M 249.4,74.6 L 241.1,69.4" style="fill:none;fill-rule:evenodd;stroke:#FF0000;stroke-width:2.0px;stroke-linecap:butt;stroke-linejoin:miter;stroke-opacity:1"/>
<path class="bond-15 atom-15 atom-16" d="M 255.9,82.6 L 247.6,77.5" style="fill:none;fill-rule:evenodd;stroke:#000000;stroke-width:2.0px;stroke-linecap:butt;stroke-linejoin:miter;stroke-opacity:1"/>
<path class="bond-15 atom-15 atom-16" d="M 247.6,77.5 L 239.3,72.4" style="fill:none;fill-rule:evenodd;stroke:#FF0000;stroke-width:2.0px;stroke-linecap:butt;stroke-linejoin:miter;stroke-opacity:1"/>
<path class="bond-16 atom-15 atom-17" d="M 255.9,80.6 L 264.1,76.2" style="fill:none;fill-rule:evenodd;stroke:#000000;stroke-width:2.0px;stroke-linecap:butt;stroke-linejoin:miter;stroke-opacity:1"/>
<path class="bond-16 atom-15 atom-17" d="M 264.1,76.2 L 272.3,71.8" style="fill:none;fill-rule:evenodd;stroke:#FF0000;stroke-width:2.0px;stroke-linecap:butt;stroke-linejoin:miter;stroke-opacity:1"/>
<path class="bond-17 atom-3 atom-18" d="M 97.1,98.8 L 97.8,76.0" style="fill:none;fill-rule:evenodd;stroke:#000000;stroke-width:2.0px;stroke-linecap:butt;stroke-linejoin:miter;stroke-opacity:1"/>
<path class="bond-18 atom-18 atom-19" d="M 99.5,75.0 L 91.2,69.9" style="fill:none;fill-rule:evenodd;stroke:#000000;stroke-width:2.0px;stroke-linecap:butt;stroke-linejoin:miter;stroke-opacity:1"/>
<path class="bond-18 atom-18 atom-19" d="M 91.2,69.9 L 83.0,64.8" style="fill:none;fill-rule:evenodd;stroke:#FF0000;stroke-width:2.0px;stroke-linecap:butt;stroke-linejoin:miter;stroke-opacity:1"/>
<path class="bond-18 atom-18 atom-19" d="M 97.7,77.9 L 89.4,72.8" style="fill:none;fill-rule:evenodd;stroke:#000000;stroke-width:2.0px;stroke-linecap:butt;stroke-linejoin:miter;stroke-opacity:1"/>
<path class="bond-18 atom-18 atom-19" d="M 89.4,72.8 L 81.2,67.7" style="fill:none;fill-rule:evenodd;stroke:#FF0000;stroke-width:2.0px;stroke-linecap:butt;stroke-linejoin:miter;stroke-opacity:1"/>
<path class="bond-19 atom-18 atom-20" d="M 97.8,76.0 L 106.0,71.5" style="fill:none;fill-rule:evenodd;stroke:#000000;stroke-width:2.0px;stroke-linecap:butt;stroke-linejoin:miter;stroke-opacity:1"/>
<path class="bond-19 atom-18 atom-20" d="M 106.0,71.5 L 114.1,67.1" style="fill:none;fill-rule:evenodd;stroke:#FF0000;stroke-width:2.0px;stroke-linecap:butt;stroke-linejoin:miter;stroke-opacity:1"/>
<path class="bond-20 atom-1 atom-21" d="M 57.6,97.6 L 37.5,108.5" style="fill:none;fill-rule:evenodd;stroke:#000000;stroke-width:2.0px;stroke-linecap:butt;stroke-linejoin:miter;stroke-opacity:1"/>
<path class="bond-21 atom-21 atom-22" d="M 39.2,107.5 L 30.9,102.4" style="fill:none;fill-rule:evenodd;stroke:#000000;stroke-width:2.0px;stroke-linecap:butt;stroke-linejoin:miter;stroke-opacity:1"/>
<path class="bond-21 atom-21 atom-22" d="M 30.9,102.4 L 22.6,97.3" style="fill:none;fill-rule:evenodd;stroke:#FF0000;stroke-width:2.0px;stroke-linecap:butt;stroke-linejoin:miter;stroke-opacity:1"/>
<path class="bond-21 atom-21 atom-22" d="M 37.4,110.4 L 29.1,105.3" style="fill:none;fill-rule:evenodd;stroke:#000000;stroke-width:2.0px;stroke-linecap:butt;stroke-linejoin:miter;stroke-opacity:1"/>
<path class="bond-21 atom-21 atom-22" d="M 29.1,105.3 L 20.8,100.2" style="fill:none;fill-rule:evenodd;stroke:#FF0000;stroke-width:2.0px;stroke-linecap:butt;stroke-linejoin:miter;stroke-opacity:1"/>
<path class="bond-22 atom-21 atom-23" d="M 37.5,108.5 L 37.2,117.9" style="fill:none;fill-rule:evenodd;stroke:#000000;stroke-width:2.0px;stroke-linecap:butt;stroke-linejoin:miter;stroke-opacity:1"/>
<path class="bond-22 atom-21 atom-23" d="M 37.2,117.9 L 36.9,127.3" style="fill:none;fill-rule:evenodd;stroke:#FF0000;stroke-width:2.0px;stroke-linecap:butt;stroke-linejoin:miter;stroke-opacity:1"/>
<path d="M 58.5,98.2 L 57.6,97.6 L 56.6,98.2" style="fill:none;stroke:#000000;stroke-width:2.0px;stroke-linecap:butt;stroke-linejoin:miter;stroke-opacity:1;"/>
<path d="M 76.0,109.0 L 77.0,109.6 L 78.0,109.1" style="fill:none;stroke:#000000;stroke-width:2.0px;stroke-linecap:butt;stroke-linejoin:miter;stroke-opacity:1;"/>
<path d="M 115.6,110.2 L 116.5,110.8 L 117.5,110.2" style="fill:none;stroke:#000000;stroke-width:2.0px;stroke-linecap:butt;stroke-linejoin:miter;stroke-opacity:1;"/>
<path d="M 135.6,100.5 L 136.6,99.9 L 137.6,100.5" style="fill:none;stroke:#000000;stroke-width:2.0px;stroke-linecap:butt;stroke-linejoin:miter;stroke-opacity:1;"/>
<path d="M 155.1,111.3 L 156.1,111.9 L 156.5,111.7" style="fill:none;stroke:#000000;stroke-width:2.0px;stroke-linecap:butt;stroke-linejoin:miter;stroke-opacity:1;"/>
<path d="M 214.7,102.8 L 215.7,102.3 L 216.7,102.9" style="fill:none;stroke:#000000;stroke-width:2.0px;stroke-linecap:butt;stroke-linejoin:miter;stroke-opacity:1;"/>
<path d="M 234.2,113.7 L 235.1,114.3 L 236.1,113.7" style="fill:none;stroke:#000000;stroke-width:2.0px;stroke-linecap:butt;stroke-linejoin:miter;stroke-opacity:1;"/>
<path d="M 254.2,104.0 L 255.2,103.4 L 255.3,102.3" style="fill:none;stroke:#000000;stroke-width:2.0px;stroke-linecap:butt;stroke-linejoin:miter;stroke-opacity:1;"/>
<path d="M 255.9,81.7 L 255.9,80.6 L 256.3,80.4" style="fill:none;stroke:#000000;stroke-width:2.0px;stroke-linecap:butt;stroke-linejoin:miter;stroke-opacity:1;"/>
<path d="M 97.7,77.1 L 97.8,76.0 L 98.2,75.7" style="fill:none;stroke:#000000;stroke-width:2.0px;stroke-linecap:butt;stroke-linejoin:miter;stroke-opacity:1;"/>
<path d="M 38.5,107.9 L 37.5,108.5 L 37.4,108.9" style="fill:none;stroke:#000000;stroke-width:2.0px;stroke-linecap:butt;stroke-linejoin:miter;stroke-opacity:1;"/>
<path class="atom-7" d="M 152.4 134.8 Q 152.4 133.2, 153.2 132.4 Q 154.0 131.5, 155.4 131.5 Q 156.8 131.5, 157.6 132.4 Q 158.4 133.2, 158.4 134.8 Q 158.4 136.4, 157.6 137.3 Q 156.8 138.1, 155.4 138.1 Q 154.0 138.1, 153.2 137.3 Q 152.4 136.4, 152.4 134.8 M 155.4 137.4 Q 156.4 137.4, 156.9 136.8 Q 157.5 136.1, 157.5 134.8 Q 157.5 133.5, 156.9 132.9 Q 156.4 132.2, 155.4 132.2 Q 154.4 132.2, 153.9 132.9 Q 153.3 133.5, 153.3 134.8 Q 153.3 136.1, 153.9 136.8 Q 154.4 137.4, 155.4 137.4 " fill="#FF0000"/>
<path class="atom-8" d="M 173.2 101.1 Q 173.2 99.6, 174.0 98.7 Q 174.7 97.8, 176.2 97.8 Q 177.6 97.8, 178.4 98.7 Q 179.1 99.6, 179.1 101.1 Q 179.1 102.7, 178.4 103.6 Q 177.6 104.5, 176.2 104.5 Q 174.7 104.5, 174.0 103.6 Q 173.2 102.7, 173.2 101.1 M 176.2 103.7 Q 177.2 103.7, 177.7 103.1 Q 178.2 102.4, 178.2 101.1 Q 178.2 99.9, 177.7 99.2 Q 177.2 98.6, 176.2 98.6 Q 175.2 98.6, 174.6 99.2 Q 174.1 99.8, 174.1 101.1 Q 174.1 102.4, 174.6 103.1 Q 175.2 103.7, 176.2 103.7 " fill="#FF0000"/>
<path class="atom-10" d="M 192.0 135.9 Q 192.0 134.4, 192.7 133.5 Q 193.5 132.7, 194.9 132.7 Q 196.4 132.7, 197.1 133.5 Q 197.9 134.4, 197.9 135.9 Q 197.9 137.5, 197.1 138.4 Q 196.3 139.3, 194.9 139.3 Q 193.5 139.3, 192.7 138.4 Q 192.0 137.5, 192.0 135.9 M 194.9 138.6 Q 195.9 138.6, 196.4 137.9 Q 197.0 137.2, 197.0 135.9 Q 197.0 134.7, 196.4 134.0 Q 195.9 133.4, 194.9 133.4 Q 193.9 133.4, 193.4 134.0 Q 192.9 134.7, 192.9 135.9 Q 192.9 137.3, 193.4 137.9 Q 193.9 138.6, 194.9 138.6 " fill="#FF0000"/>
<path class="atom-10" d="M 198.9 132.7 L 199.8 132.7 L 199.8 135.5 L 203.1 135.5 L 203.1 132.7 L 204.0 132.7 L 204.0 139.2 L 203.1 139.2 L 203.1 136.2 L 199.8 136.2 L 199.8 139.2 L 198.9 139.2 L 198.9 132.7 " fill="#FF0000"/>
<path class="atom-16" d="M 233.5 68.6 Q 233.5 67.1, 234.3 66.2 Q 235.0 65.3, 236.5 65.3 Q 237.9 65.3, 238.7 66.2 Q 239.4 67.1, 239.4 68.6 Q 239.4 70.2, 238.7 71.1 Q 237.9 72.0, 236.5 72.0 Q 235.1 72.0, 234.3 71.1 Q 233.5 70.2, 233.5 68.6 M 236.5 71.2 Q 237.5 71.2, 238.0 70.6 Q 238.5 69.9, 238.5 68.6 Q 238.5 67.4, 238.0 66.7 Q 237.5 66.1, 236.5 66.1 Q 235.5 66.1, 235.0 66.7 Q 234.4 67.3, 234.4 68.6 Q 234.4 69.9, 235.0 70.6 Q 235.5 71.2, 236.5 71.2 " fill="#FF0000"/>
<path class="atom-17" d="M 273.0 69.8 Q 273.0 68.2, 273.8 67.4 Q 274.6 66.5, 276.0 66.5 Q 277.4 66.5, 278.2 67.4 Q 279.0 68.2, 279.0 69.8 Q 279.0 71.4, 278.2 72.3 Q 277.4 73.1, 276.0 73.1 Q 274.6 73.1, 273.8 72.3 Q 273.0 71.4, 273.0 69.8 M 276.0 72.4 Q 277.0 72.4, 277.5 71.7 Q 278.1 71.1, 278.1 69.8 Q 278.1 68.5, 277.5 67.9 Q 277.0 67.2, 276.0 67.2 Q 275.0 67.2, 274.5 67.9 Q 274.0 68.5, 274.0 69.8 Q 274.0 71.1, 274.5 71.7 Q 275.0 72.4, 276.0 72.4 " fill="#FF0000"/>
<path class="atom-17" d="M 280.0 66.6 L 280.9 66.6 L 280.9 69.3 L 284.2 69.3 L 284.2 66.6 L 285.0 66.6 L 285.0 73.0 L 284.2 73.0 L 284.2 70.0 L 280.9 70.0 L 280.9 73.0 L 280.0 73.0 L 280.0 66.6 " fill="#FF0000"/>
<path class="atom-19" d="M 75.4 64.0 Q 75.4 62.4, 76.1 61.6 Q 76.9 60.7, 78.3 60.7 Q 79.8 60.7, 80.5 61.6 Q 81.3 62.4, 81.3 64.0 Q 81.3 65.6, 80.5 66.5 Q 79.7 67.3, 78.3 67.3 Q 76.9 67.3, 76.1 66.5 Q 75.4 65.6, 75.4 64.0 M 78.3 66.6 Q 79.3 66.6, 79.8 66.0 Q 80.4 65.3, 80.4 64.0 Q 80.4 62.7, 79.8 62.1 Q 79.3 61.4, 78.3 61.4 Q 77.3 61.4, 76.8 62.1 Q 76.3 62.7, 76.3 64.0 Q 76.3 65.3, 76.8 66.0 Q 77.3 66.6, 78.3 66.6 " fill="#FF0000"/>
<path class="atom-20" d="M 114.9 65.1 Q 114.9 63.6, 115.7 62.7 Q 116.4 61.9, 117.9 61.9 Q 119.3 61.9, 120.1 62.7 Q 120.8 63.6, 120.8 65.1 Q 120.8 66.7, 120.1 67.6 Q 119.3 68.5, 117.9 68.5 Q 116.4 68.5, 115.7 67.6 Q 114.9 66.7, 114.9 65.1 M 117.9 67.8 Q 118.9 67.8, 119.4 67.1 Q 119.9 66.4, 119.9 65.1 Q 119.9 63.9, 119.4 63.2 Q 118.9 62.6, 117.9 62.6 Q 116.9 62.6, 116.3 63.2 Q 115.8 63.9, 115.8 65.1 Q 115.8 66.5, 116.3 67.1 Q 116.9 67.8, 117.9 67.8 " fill="#FF0000"/>
<path class="atom-20" d="M 121.8 61.9 L 122.7 61.9 L 122.7 64.7 L 126.0 64.7 L 126.0 61.9 L 126.9 61.9 L 126.9 68.4 L 126.0 68.4 L 126.0 65.4 L 122.7 65.4 L 122.7 68.4 L 121.8 68.4 L 121.8 61.9 " fill="#FF0000"/>
<path class="atom-22" d="M 15.1 96.5 Q 15.1 94.9, 15.8 94.1 Q 16.6 93.2, 18.0 93.2 Q 19.5 93.2, 20.2 94.1 Q 21.0 94.9, 21.0 96.5 Q 21.0 98.1, 20.2 99.0 Q 19.4 99.8, 18.0 99.8 Q 16.6 99.8, 15.8 99.0 Q 15.1 98.1, 15.1 96.5 M 18.0 99.1 Q 19.0 99.1, 19.5 98.5 Q 20.1 97.8, 20.1 96.5 Q 20.1 95.2, 19.5 94.6 Q 19.0 93.9, 18.0 93.9 Q 17.0 93.9, 16.5 94.6 Q 16.0 95.2, 16.0 96.5 Q 16.0 97.8, 16.5 98.5 Q 17.0 99.1, 18.0 99.1 " fill="#FF0000"/>
<path class="atom-23" d="M 33.8 131.3 Q 33.8 129.8, 34.6 128.9 Q 35.3 128.0, 36.8 128.0 Q 38.2 128.0, 39.0 128.9 Q 39.8 129.8, 39.8 131.3 Q 39.8 132.9, 39.0 133.8 Q 38.2 134.7, 36.8 134.7 Q 35.4 134.7, 34.6 133.8 Q 33.8 132.9, 33.8 131.3 M 36.8 133.9 Q 37.8 133.9, 38.3 133.3 Q 38.8 132.6, 38.8 131.3 Q 38.8 130.0, 38.3 129.4 Q 37.8 128.8, 36.8 128.8 Q 35.8 128.8, 35.3 129.4 Q 34.7 130.0, 34.7 131.3 Q 34.7 132.6, 35.3 133.3 Q 35.8 133.9, 36.8 133.9 " fill="#FF0000"/>
<path class="atom-23" d="M 40.8 128.1 L 41.6 128.1 L 41.6 130.8 L 44.9 130.8 L 44.9 128.1 L 45.8 128.1 L 45.8 134.6 L 44.9 134.6 L 44.9 131.6 L 41.6 131.6 L 41.6 134.6 L 40.8 134.6 L 40.8 128.1 " fill="#FF0000"/>
</g>
  </g>
</svg>
