<?xml version='1.0' encoding='ASCII' standalone='yes'?>
<svg xmlns="http://www.w3.org/2000/svg" xmlns:xlink="http://www.w3.org/1999/xlink" version="1.1" width="838.0px" viewBox="0 0 838.0 200.0" height="200.0px">
  <g>
    <g transform="translate(0, 0) scale(1 1) "><!-- END OF HEADER -->
<rect style="opacity:1.0;fill:#FFFFFF;stroke:none" width="260.0" height="200.0" x="0.0" y="0.0"> </rect>
<path class="bond-0 atom-0 atom-1" d="M 27.0,58.7 L 46.5,90.9" style="fill:none;fill-rule:evenodd;stroke:#000000;stroke-width:2.0px;stroke-linecap:butt;stroke-linejoin:miter;stroke-opacity:1"/>
<path class="bond-1 atom-1 atom-2" d="M 46.5,90.9 L 66.0,123.2" style="fill:none;fill-rule:evenodd;stroke:#000000;stroke-width:2.0px;stroke-linecap:butt;stroke-linejoin:miter;stroke-opacity:1"/>
<path class="bond-2 atom-1 atom-3" d="M 46.5,90.9 L 14.3,110.5" style="fill:none;fill-rule:evenodd;stroke:#000000;stroke-width:2.0px;stroke-linecap:butt;stroke-linejoin:miter;stroke-opacity:1"/>
<path class="bond-3 atom-3 atom-4" d="M 14.3,110.5 L 14.6,126.0" style="fill:none;fill-rule:evenodd;stroke:#000000;stroke-width:2.0px;stroke-linecap:butt;stroke-linejoin:miter;stroke-opacity:1"/>
<path class="bond-3 atom-3 atom-4" d="M 14.6,126.0 L 14.9,141.5" style="fill:none;fill-rule:evenodd;stroke:#FF0000;stroke-width:2.0px;stroke-linecap:butt;stroke-linejoin:miter;stroke-opacity:1"/>
<path class="bond-3 atom-3 atom-4" d="M 20.0,113.6 L 20.3,125.8" style="fill:none;fill-rule:evenodd;stroke:#000000;stroke-width:2.0px;stroke-linecap:butt;stroke-linejoin:miter;stroke-opacity:1"/>
<path class="bond-3 atom-3 atom-4" d="M 20.3,125.8 L 20.6,141.4" style="fill:none;fill-rule:evenodd;stroke:#FF0000;stroke-width:2.0px;stroke-linecap:butt;stroke-linejoin:miter;stroke-opacity:1"/>
<path class="bond-4 atom-1 atom-5" d="M 46.5,90.9 L 78.7,71.4" style="fill:none;fill-rule:evenodd;stroke:#000000;stroke-width:2.0px;stroke-linecap:butt;stroke-linejoin:miter;stroke-opacity:1"/>
<path class="bond-5 atom-5 atom-6" d="M 81.5,73.0 L 81.2,56.8" style="fill:none;fill-rule:evenodd;stroke:#000000;stroke-width:2.0px;stroke-linecap:butt;stroke-linejoin:miter;stroke-opacity:1"/>
<path class="bond-5 atom-5 atom-6" d="M 81.2,56.8 L 80.9,40.5" style="fill:none;fill-rule:evenodd;stroke:#FF0000;stroke-width:2.0px;stroke-linecap:butt;stroke-linejoin:miter;stroke-opacity:1"/>
<path class="bond-5 atom-5 atom-6" d="M 75.9,73.1 L 75.6,56.9" style="fill:none;fill-rule:evenodd;stroke:#000000;stroke-width:2.0px;stroke-linecap:butt;stroke-linejoin:miter;stroke-opacity:1"/>
<path class="bond-5 atom-5 atom-6" d="M 75.6,56.9 L 75.2,40.6" style="fill:none;fill-rule:evenodd;stroke:#FF0000;stroke-width:2.0px;stroke-linecap:butt;stroke-linejoin:miter;stroke-opacity:1"/>
<path class="bond-6 atom-5 atom-7" d="M 78.7,71.4 L 92.1,78.8" style="fill:none;fill-rule:evenodd;stroke:#000000;stroke-width:2.0px;stroke-linecap:butt;stroke-linejoin:miter;stroke-opacity:1"/>
<path class="bond-6 atom-5 atom-7" d="M 92.1,78.8 L 105.6,86.2" style="fill:none;fill-rule:evenodd;stroke:#FF0000;stroke-width:2.0px;stroke-linecap:butt;stroke-linejoin:miter;stroke-opacity:1"/>
<path class="bond-7 atom-7 atom-8" d="M 117.8,85.9 L 130.9,78.0" style="fill:none;fill-rule:evenodd;stroke:#FF0000;stroke-width:2.0px;stroke-linecap:butt;stroke-linejoin:miter;stroke-opacity:1"/>
<path class="bond-7 atom-7 atom-8" d="M 130.9,78.0 L 143.9,70.1" style="fill:none;fill-rule:evenodd;stroke:#000000;stroke-width:2.0px;stroke-linecap:butt;stroke-linejoin:miter;stroke-opacity:1"/>
<path class="bond-8 atom-8 atom-9" d="M 143.9,70.1 L 176.9,88.2" style="fill:none;fill-rule:evenodd;stroke:#000000;stroke-width:2.0px;stroke-linecap:butt;stroke-linejoin:miter;stroke-opacity:1"/>
<path class="bond-9 atom-9 atom-10" d="M 176.9,88.2 L 158.8,121.2" style="fill:none;fill-rule:evenodd;stroke:#000000;stroke-width:2.0px;stroke-linecap:butt;stroke-linejoin:miter;stroke-opacity:1"/>
<path class="bond-10 atom-9 atom-11" d="M 176.9,88.2 L 195.0,55.2" style="fill:none;fill-rule:evenodd;stroke:#000000;stroke-width:2.0px;stroke-linecap:butt;stroke-linejoin:miter;stroke-opacity:1"/>
<path class="bond-11 atom-9 atom-12" d="M 176.9,88.2 L 209.9,106.3" style="fill:none;fill-rule:evenodd;stroke:#000000;stroke-width:2.0px;stroke-linecap:butt;stroke-linejoin:miter;stroke-opacity:1"/>
<path class="bond-12 atom-12 atom-13" d="M 210.0,109.6 L 223.7,101.3" style="fill:none;fill-rule:evenodd;stroke:#000000;stroke-width:2.0px;stroke-linecap:butt;stroke-linejoin:miter;stroke-opacity:1"/>
<path class="bond-12 atom-12 atom-13" d="M 223.7,101.3 L 237.4,93.0" style="fill:none;fill-rule:evenodd;stroke:#FF0000;stroke-width:2.0px;stroke-linecap:butt;stroke-linejoin:miter;stroke-opacity:1"/>
<path class="bond-12 atom-12 atom-13" d="M 207.0,104.8 L 220.8,96.4" style="fill:none;fill-rule:evenodd;stroke:#000000;stroke-width:2.0px;stroke-linecap:butt;stroke-linejoin:miter;stroke-opacity:1"/>
<path class="bond-12 atom-12 atom-13" d="M 220.8,96.4 L 234.5,88.1" style="fill:none;fill-rule:evenodd;stroke:#FF0000;stroke-width:2.0px;stroke-linecap:butt;stroke-linejoin:miter;stroke-opacity:1"/>
<path class="bond-13 atom-12 atom-14" d="M 209.9,106.3 L 210.2,121.8" style="fill:none;fill-rule:evenodd;stroke:#000000;stroke-width:2.0px;stroke-linecap:butt;stroke-linejoin:miter;stroke-opacity:1"/>
<path class="bond-13 atom-12 atom-14" d="M 210.2,121.8 L 210.6,137.3" style="fill:none;fill-rule:evenodd;stroke:#FF0000;stroke-width:2.0px;stroke-linecap:butt;stroke-linejoin:miter;stroke-opacity:1"/>
<path d="M 15.9,109.5 L 14.3,110.5 L 14.3,111.2" style="fill:none;stroke:#000000;stroke-width:2.0px;stroke-linecap:butt;stroke-linejoin:miter;stroke-opacity:1;"/>
<path d="M 77.1,72.4 L 78.7,71.4 L 79.4,71.8" style="fill:none;stroke:#000000;stroke-width:2.0px;stroke-linecap:butt;stroke-linejoin:miter;stroke-opacity:1;"/>
<path d="M 143.2,70.5 L 143.9,70.1 L 145.5,71.0" style="fill:none;stroke:#000000;stroke-width:2.0px;stroke-linecap:butt;stroke-linejoin:miter;stroke-opacity:1;"/>
<path d="M 208.2,105.4 L 209.9,106.3 L 209.9,107.1" style="fill:none;stroke:#000000;stroke-width:2.0px;stroke-linecap:butt;stroke-linejoin:miter;stroke-opacity:1;"/>
<path class="atom-4" d="M 13.0 148.1 Q 13.0 145.5, 14.3 144.1 Q 15.5 142.7, 17.9 142.7 Q 20.3 142.7, 21.5 144.1 Q 22.8 145.5, 22.8 148.1 Q 22.8 150.7, 21.5 152.1 Q 20.2 153.6, 17.9 153.6 Q 15.5 153.6, 14.3 152.1 Q 13.0 150.7, 13.0 148.1 M 17.9 152.4 Q 19.5 152.4, 20.4 151.3 Q 21.3 150.2, 21.3 148.1 Q 21.3 146.0, 20.4 144.9 Q 19.5 143.9, 17.9 143.9 Q 16.3 143.9, 15.4 144.9 Q 14.5 146.0, 14.5 148.1 Q 14.5 150.2, 15.4 151.3 Q 16.3 152.4, 17.9 152.4 " fill="#FF0000"/>
<path class="atom-6" d="M 73.0 33.8 Q 73.0 31.3, 74.3 29.8 Q 75.5 28.4, 77.9 28.4 Q 80.3 28.4, 81.5 29.8 Q 82.8 31.3, 82.8 33.8 Q 82.8 36.4, 81.5 37.9 Q 80.2 39.3, 77.9 39.3 Q 75.5 39.3, 74.3 37.9 Q 73.0 36.4, 73.0 33.8 M 77.9 38.1 Q 79.5 38.1, 80.4 37.1 Q 81.3 36.0, 81.3 33.8 Q 81.3 31.7, 80.4 30.7 Q 79.5 29.6, 77.9 29.6 Q 76.3 29.6, 75.4 30.7 Q 74.5 31.7, 74.5 33.8 Q 74.5 36.0, 75.4 37.1 Q 76.3 38.1, 77.9 38.1 " fill="#FF0000"/>
<path class="atom-7" d="M 106.8 89.6 Q 106.8 87.0, 108.1 85.6 Q 109.3 84.2, 111.7 84.2 Q 114.1 84.2, 115.3 85.6 Q 116.6 87.0, 116.6 89.6 Q 116.6 92.2, 115.3 93.7 Q 114.0 95.1, 111.7 95.1 Q 109.3 95.1, 108.1 93.7 Q 106.8 92.2, 106.8 89.6 M 111.7 93.9 Q 113.3 93.9, 114.2 92.8 Q 115.1 91.7, 115.1 89.6 Q 115.1 87.5, 114.2 86.5 Q 113.3 85.4, 111.7 85.4 Q 110.1 85.4, 109.2 86.4 Q 108.3 87.5, 108.3 89.6 Q 108.3 91.8, 109.2 92.8 Q 110.1 93.9, 111.7 93.9 " fill="#FF0000"/>
<path class="atom-13" d="M 237.2 86.8 Q 237.2 84.3, 238.5 82.9 Q 239.7 81.4, 242.1 81.4 Q 244.5 81.4, 245.7 82.9 Q 247.0 84.3, 247.0 86.8 Q 247.0 89.4, 245.7 90.9 Q 244.4 92.4, 242.1 92.4 Q 239.8 92.4, 238.5 90.9 Q 237.2 89.5, 237.2 86.8 M 242.1 91.2 Q 243.7 91.2, 244.6 90.1 Q 245.5 89.0, 245.5 86.8 Q 245.5 84.8, 244.6 83.7 Q 243.7 82.6, 242.1 82.6 Q 240.5 82.6, 239.6 83.7 Q 238.7 84.7, 238.7 86.8 Q 238.7 89.0, 239.6 90.1 Q 240.5 91.2, 242.1 91.2 " fill="#FF0000"/>
<path class="atom-14" d="M 205.8 144.0 Q 205.8 141.4, 207.1 140.0 Q 208.3 138.6, 210.7 138.6 Q 213.1 138.6, 214.3 140.0 Q 215.6 141.4, 215.6 144.0 Q 215.6 146.6, 214.3 148.1 Q 213.0 149.5, 210.7 149.5 Q 208.3 149.5, 207.1 148.1 Q 205.8 146.6, 205.8 144.0 M 210.7 148.3 Q 212.3 148.3, 213.2 147.2 Q 214.1 146.1, 214.1 144.0 Q 214.1 141.9, 213.2 140.9 Q 212.3 139.8, 210.7 139.8 Q 209.1 139.8, 208.2 140.8 Q 207.3 141.9, 207.3 144.0 Q 207.3 146.2, 208.2 147.2 Q 209.1 148.3, 210.7 148.3 " fill="#FF0000"/>
<path class="atom-14" d="M 217.2 138.7 L 218.7 138.7 L 218.7 143.2 L 224.1 143.2 L 224.1 138.7 L 225.6 138.7 L 225.6 149.4 L 224.1 149.4 L 224.1 144.4 L 218.7 144.4 L 218.7 149.4 L 217.2 149.4 L 217.2 138.7 " fill="#FF0000"/>
<path class="legend" d="M 121.5 181.9 Q 121.5 179.6, 122.2 177.7 Q 122.8 175.8, 124.1 173.8 L 125.0 174.4 Q 124.0 176.3, 123.4 178.0 Q 122.9 179.7, 122.9 181.9 Q 122.9 184.0, 123.4 185.8 Q 124.0 187.5, 125.0 189.4 L 124.1 190.0 Q 122.8 188.0, 122.2 186.1 Q 121.5 184.2, 121.5 181.9 " fill="#000000"/>
<path class="legend" d="M 125.9 177.3 Q 126.4 176.2, 127.3 175.6 Q 128.3 175.0, 129.7 175.0 Q 131.4 175.0, 132.4 175.9 Q 133.3 176.8, 133.3 178.5 Q 133.3 180.2, 132.1 181.7 Q 130.9 183.3, 128.3 185.2 L 133.5 185.2 L 133.5 186.4 L 125.9 186.4 L 125.9 185.4 Q 128.0 183.9, 129.3 182.8 Q 130.5 181.6, 131.1 180.6 Q 131.7 179.6, 131.7 178.6 Q 131.7 177.5, 131.2 176.9 Q 130.7 176.3, 129.7 176.3 Q 128.8 176.3, 128.2 176.6 Q 127.6 177.0, 127.2 177.8 L 125.9 177.3 " fill="#000000"/>
<path class="legend" d="M 138.5 181.9 Q 138.5 184.2, 137.8 186.1 Q 137.2 188.0, 135.9 190.0 L 135.0 189.4 Q 136.0 187.5, 136.5 185.8 Q 137.1 184.0, 137.1 181.9 Q 137.1 179.7, 136.5 178.0 Q 136.0 176.3, 135.0 174.4 L 135.9 173.8 Q 137.2 175.8, 137.8 177.7 Q 138.5 179.6, 138.5 181.9 " fill="#000000"/>
</g>
    <g transform="translate(260.0, 0) scale(1 1) "><line x1="5" y1="100" x2="35" y2="100" style="stroke:rgb(0,0,0);stroke-width:2"/>
  <line x1="34" y1="100" x2="29" y2="95" style="stroke:rgb(0,0,0);stroke-width:2"/>
  <line x1="34" y1="100" x2="29" y2="105" style="stroke:rgb(0,0,0);stroke-width:2"/>
</g>
    <g transform="translate(300.0, 0) scale(1 1) "><!-- END OF HEADER -->
<rect style="opacity:1.0;fill:#FFFFFF;stroke:none" width="293.0" height="200.0" x="0.0" y="0.0"> </rect>
<path class="bond-0 atom-0 atom-1" d="M 28.8,71.4 L 43.1,97.5" style="fill:none;fill-rule:evenodd;stroke:#000000;stroke-width:2.0px;stroke-linecap:butt;stroke-linejoin:miter;stroke-opacity:1"/>
<path class="bond-1 atom-1 atom-2" d="M 43.1,97.5 L 57.4,123.6" style="fill:none;fill-rule:evenodd;stroke:#000000;stroke-width:2.0px;stroke-linecap:butt;stroke-linejoin:miter;stroke-opacity:1"/>
<path class="bond-2 atom-1 atom-3" d="M 43.1,97.5 L 17.0,111.8" style="fill:none;fill-rule:evenodd;stroke:#000000;stroke-width:2.0px;stroke-linecap:butt;stroke-linejoin:miter;stroke-opacity:1"/>
<path class="bond-3 atom-3 atom-4" d="M 17.0,111.8 L 16.7,124.0" style="fill:none;fill-rule:evenodd;stroke:#000000;stroke-width:2.0px;stroke-linecap:butt;stroke-linejoin:miter;stroke-opacity:1"/>
<path class="bond-3 atom-3 atom-4" d="M 16.7,124.0 L 16.4,136.3" style="fill:none;fill-rule:evenodd;stroke:#FF0000;stroke-width:2.0px;stroke-linecap:butt;stroke-linejoin:miter;stroke-opacity:1"/>
<path class="bond-3 atom-3 atom-4" d="M 21.4,114.4 L 21.2,124.1" style="fill:none;fill-rule:evenodd;stroke:#000000;stroke-width:2.0px;stroke-linecap:butt;stroke-linejoin:miter;stroke-opacity:1"/>
<path class="bond-3 atom-3 atom-4" d="M 21.2,124.1 L 20.9,136.4" style="fill:none;fill-rule:evenodd;stroke:#FF0000;stroke-width:2.0px;stroke-linecap:butt;stroke-linejoin:miter;stroke-opacity:1"/>
<path class="bond-4 atom-1 atom-5" d="M 43.1,97.5 L 69.2,83.2" style="fill:none;fill-rule:evenodd;stroke:#000000;stroke-width:2.0px;stroke-linecap:butt;stroke-linejoin:miter;stroke-opacity:1"/>
<path class="bond-5 atom-5 atom-6" d="M 71.4,84.6 L 71.7,71.7" style="fill:none;fill-rule:evenodd;stroke:#000000;stroke-width:2.0px;stroke-linecap:butt;stroke-linejoin:miter;stroke-opacity:1"/>
<path class="bond-5 atom-5 atom-6" d="M 71.7,71.7 L 72.0,58.9" style="fill:none;fill-rule:evenodd;stroke:#FF0000;stroke-width:2.0px;stroke-linecap:butt;stroke-linejoin:miter;stroke-opacity:1"/>
<path class="bond-5 atom-5 atom-6" d="M 67.0,84.5 L 67.3,71.6" style="fill:none;fill-rule:evenodd;stroke:#000000;stroke-width:2.0px;stroke-linecap:butt;stroke-linejoin:miter;stroke-opacity:1"/>
<path class="bond-5 atom-5 atom-6" d="M 67.3,71.6 L 67.6,58.8" style="fill:none;fill-rule:evenodd;stroke:#FF0000;stroke-width:2.0px;stroke-linecap:butt;stroke-linejoin:miter;stroke-opacity:1"/>
<path class="bond-6 atom-5 atom-7" d="M 69.2,83.2 L 79.5,89.5" style="fill:none;fill-rule:evenodd;stroke:#000000;stroke-width:2.0px;stroke-linecap:butt;stroke-linejoin:miter;stroke-opacity:1"/>
<path class="bond-6 atom-5 atom-7" d="M 79.5,89.5 L 89.8,95.8" style="fill:none;fill-rule:evenodd;stroke:#FF0000;stroke-width:2.0px;stroke-linecap:butt;stroke-linejoin:miter;stroke-opacity:1"/>
<path class="bond-7 atom-7 atom-8" d="M 99.5,96.1 L 110.1,90.3" style="fill:none;fill-rule:evenodd;stroke:#FF0000;stroke-width:2.0px;stroke-linecap:butt;stroke-linejoin:miter;stroke-opacity:1"/>
<path class="bond-7 atom-7 atom-8" d="M 110.1,90.3 L 120.7,84.5" style="fill:none;fill-rule:evenodd;stroke:#000000;stroke-width:2.0px;stroke-linecap:butt;stroke-linejoin:miter;stroke-opacity:1"/>
<path class="bond-8 atom-8 atom-9" d="M 120.7,84.5 L 146.2,99.9" style="fill:none;fill-rule:evenodd;stroke:#000000;stroke-width:2.0px;stroke-linecap:butt;stroke-linejoin:miter;stroke-opacity:1"/>
<path class="bond-9 atom-9 atom-10" d="M 146.2,99.9 L 130.7,125.3" style="fill:none;fill-rule:evenodd;stroke:#000000;stroke-width:2.0px;stroke-linecap:butt;stroke-linejoin:miter;stroke-opacity:1"/>
<path class="bond-10 atom-9 atom-11" d="M 146.2,99.9 L 161.6,74.5" style="fill:none;fill-rule:evenodd;stroke:#000000;stroke-width:2.0px;stroke-linecap:butt;stroke-linejoin:miter;stroke-opacity:1"/>
<path class="bond-11 atom-9 atom-12" d="M 146.2,99.9 L 171.6,115.4" style="fill:none;fill-rule:evenodd;stroke:#000000;stroke-width:2.0px;stroke-linecap:butt;stroke-linejoin:miter;stroke-opacity:1"/>
<path class="bond-12 atom-12 atom-13" d="M 169.4,114.1 L 169.1,127.0" style="fill:none;fill-rule:evenodd;stroke:#000000;stroke-width:2.0px;stroke-linecap:butt;stroke-linejoin:miter;stroke-opacity:1"/>
<path class="bond-12 atom-12 atom-13" d="M 169.1,127.0 L 168.7,139.9" style="fill:none;fill-rule:evenodd;stroke:#FF0000;stroke-width:2.0px;stroke-linecap:butt;stroke-linejoin:miter;stroke-opacity:1"/>
<path class="bond-12 atom-12 atom-13" d="M 173.8,114.2 L 173.5,127.1" style="fill:none;fill-rule:evenodd;stroke:#000000;stroke-width:2.0px;stroke-linecap:butt;stroke-linejoin:miter;stroke-opacity:1"/>
<path class="bond-12 atom-12 atom-13" d="M 173.5,127.1 L 173.2,140.0" style="fill:none;fill-rule:evenodd;stroke:#FF0000;stroke-width:2.0px;stroke-linecap:butt;stroke-linejoin:miter;stroke-opacity:1"/>
<path class="bond-13 atom-12 atom-14" d="M 171.6,115.4 L 182.2,109.6" style="fill:none;fill-rule:evenodd;stroke:#000000;stroke-width:2.0px;stroke-linecap:butt;stroke-linejoin:miter;stroke-opacity:1"/>
<path class="bond-13 atom-12 atom-14" d="M 182.2,109.6 L 192.8,103.8" style="fill:none;fill-rule:evenodd;stroke:#FF0000;stroke-width:2.0px;stroke-linecap:butt;stroke-linejoin:miter;stroke-opacity:1"/>
<path class="bond-14 atom-14 atom-15" d="M 202.5,104.1 L 212.8,110.4" style="fill:none;fill-rule:evenodd;stroke:#FF0000;stroke-width:2.0px;stroke-linecap:butt;stroke-linejoin:miter;stroke-opacity:1"/>
<path class="bond-14 atom-14 atom-15" d="M 212.8,110.4 L 223.1,116.6" style="fill:none;fill-rule:evenodd;stroke:#000000;stroke-width:2.0px;stroke-linecap:butt;stroke-linejoin:miter;stroke-opacity:1"/>
<path class="bond-15 atom-15 atom-16" d="M 220.9,115.3 L 220.6,128.2" style="fill:none;fill-rule:evenodd;stroke:#000000;stroke-width:2.0px;stroke-linecap:butt;stroke-linejoin:miter;stroke-opacity:1"/>
<path class="bond-15 atom-15 atom-16" d="M 220.6,128.2 L 220.3,141.1" style="fill:none;fill-rule:evenodd;stroke:#FF0000;stroke-width:2.0px;stroke-linecap:butt;stroke-linejoin:miter;stroke-opacity:1"/>
<path class="bond-15 atom-15 atom-16" d="M 225.3,115.4 L 225.0,128.3" style="fill:none;fill-rule:evenodd;stroke:#000000;stroke-width:2.0px;stroke-linecap:butt;stroke-linejoin:miter;stroke-opacity:1"/>
<path class="bond-15 atom-15 atom-16" d="M 225.0,128.3 L 224.7,141.2" style="fill:none;fill-rule:evenodd;stroke:#FF0000;stroke-width:2.0px;stroke-linecap:butt;stroke-linejoin:miter;stroke-opacity:1"/>
<path class="bond-16 atom-15 atom-17" d="M 223.1,116.6 L 249.2,102.4" style="fill:none;fill-rule:evenodd;stroke:#000000;stroke-width:2.0px;stroke-linecap:butt;stroke-linejoin:miter;stroke-opacity:1"/>
<path class="bond-17 atom-17 atom-18" d="M 249.2,102.4 L 263.5,128.5" style="fill:none;fill-rule:evenodd;stroke:#000000;stroke-width:2.0px;stroke-linecap:butt;stroke-linejoin:miter;stroke-opacity:1"/>
<path class="bond-18 atom-17 atom-19" d="M 249.2,102.4 L 234.9,76.3" style="fill:none;fill-rule:evenodd;stroke:#000000;stroke-width:2.0px;stroke-linecap:butt;stroke-linejoin:miter;stroke-opacity:1"/>
<path class="bond-19 atom-17 atom-20" d="M 249.2,102.4 L 275.3,88.1" style="fill:none;fill-rule:evenodd;stroke:#000000;stroke-width:2.0px;stroke-linecap:butt;stroke-linejoin:miter;stroke-opacity:1"/>
<path class="bond-20 atom-20 atom-21" d="M 275.3,88.1 L 275.6,75.9" style="fill:none;fill-rule:evenodd;stroke:#000000;stroke-width:2.0px;stroke-linecap:butt;stroke-linejoin:miter;stroke-opacity:1"/>
<path class="bond-20 atom-20 atom-21" d="M 275.6,75.9 L 275.9,63.7" style="fill:none;fill-rule:evenodd;stroke:#FF0000;stroke-width:2.0px;stroke-linecap:butt;stroke-linejoin:miter;stroke-opacity:1"/>
<path class="bond-20 atom-20 atom-21" d="M 270.9,85.4 L 271.1,75.8" style="fill:none;fill-rule:evenodd;stroke:#000000;stroke-width:2.0px;stroke-linecap:butt;stroke-linejoin:miter;stroke-opacity:1"/>
<path class="bond-20 atom-20 atom-21" d="M 271.1,75.8 L 271.4,63.6" style="fill:none;fill-rule:evenodd;stroke:#FF0000;stroke-width:2.0px;stroke-linecap:butt;stroke-linejoin:miter;stroke-opacity:1"/>
<path d="M 18.3,111.0 L 17.0,111.8 L 17.0,112.4" style="fill:none;stroke:#000000;stroke-width:2.0px;stroke-linecap:butt;stroke-linejoin:miter;stroke-opacity:1;"/>
<path d="M 67.9,83.9 L 69.2,83.2 L 69.7,83.5" style="fill:none;stroke:#000000;stroke-width:2.0px;stroke-linecap:butt;stroke-linejoin:miter;stroke-opacity:1;"/>
<path d="M 120.2,84.7 L 120.7,84.5 L 122.0,85.2" style="fill:none;stroke:#000000;stroke-width:2.0px;stroke-linecap:butt;stroke-linejoin:miter;stroke-opacity:1;"/>
<path d="M 170.3,114.6 L 171.6,115.4 L 172.1,115.1" style="fill:none;stroke:#000000;stroke-width:2.0px;stroke-linecap:butt;stroke-linejoin:miter;stroke-opacity:1;"/>
<path d="M 222.6,116.3 L 223.1,116.6 L 224.4,115.9" style="fill:none;stroke:#000000;stroke-width:2.0px;stroke-linecap:butt;stroke-linejoin:miter;stroke-opacity:1;"/>
<path d="M 274.0,88.8 L 275.3,88.1 L 275.3,87.5" style="fill:none;stroke:#000000;stroke-width:2.0px;stroke-linecap:butt;stroke-linejoin:miter;stroke-opacity:1;"/>
<path class="atom-4" d="M 14.7 141.6 Q 14.7 139.5, 15.6 138.4 Q 16.6 137.3, 18.5 137.3 Q 20.4 137.3, 21.4 138.4 Q 22.4 139.5, 22.4 141.6 Q 22.4 143.6, 21.4 144.8 Q 20.4 145.9, 18.5 145.9 Q 16.7 145.9, 15.6 144.8 Q 14.7 143.6, 14.7 141.6 M 18.5 145.0 Q 19.8 145.0, 20.5 144.1 Q 21.2 143.3, 21.2 141.6 Q 21.2 139.9, 20.5 139.1 Q 19.8 138.2, 18.5 138.2 Q 17.2 138.2, 16.5 139.1 Q 15.8 139.9, 15.8 141.6 Q 15.8 143.3, 16.5 144.1 Q 17.2 145.0, 18.5 145.0 " fill="#FF0000"/>
<path class="atom-6" d="M 66.1 53.5 Q 66.1 51.5, 67.1 50.4 Q 68.1 49.2, 69.9 49.2 Q 71.8 49.2, 72.8 50.4 Q 73.8 51.5, 73.8 53.5 Q 73.8 55.6, 72.8 56.7 Q 71.8 57.9, 69.9 57.9 Q 68.1 57.9, 67.1 56.7 Q 66.1 55.6, 66.1 53.5 M 69.9 56.9 Q 71.2 56.9, 71.9 56.1 Q 72.6 55.2, 72.6 53.5 Q 72.6 51.9, 71.9 51.0 Q 71.2 50.2, 69.9 50.2 Q 68.6 50.2, 67.9 51.0 Q 67.2 51.8, 67.2 53.5 Q 67.2 55.2, 67.9 56.1 Q 68.6 56.9, 69.9 56.9 " fill="#FF0000"/>
<path class="atom-7" d="M 90.8 98.7 Q 90.8 96.7, 91.8 95.6 Q 92.8 94.5, 94.6 94.5 Q 96.5 94.5, 97.5 95.6 Q 98.5 96.7, 98.5 98.7 Q 98.5 100.8, 97.5 101.9 Q 96.5 103.1, 94.6 103.1 Q 92.8 103.1, 91.8 101.9 Q 90.8 100.8, 90.8 98.7 M 94.6 102.2 Q 95.9 102.2, 96.6 101.3 Q 97.3 100.4, 97.3 98.7 Q 97.3 97.1, 96.6 96.2 Q 95.9 95.4, 94.6 95.4 Q 93.3 95.4, 92.6 96.2 Q 92.0 97.1, 92.0 98.7 Q 92.0 100.4, 92.6 101.3 Q 93.3 102.2, 94.6 102.2 " fill="#FF0000"/>
<path class="atom-13" d="M 167.0 145.2 Q 167.0 143.2, 168.0 142.0 Q 169.0 140.9, 170.9 140.9 Q 172.7 140.9, 173.7 142.0 Q 174.7 143.2, 174.7 145.2 Q 174.7 147.2, 173.7 148.4 Q 172.7 149.6, 170.9 149.6 Q 169.0 149.6, 168.0 148.4 Q 167.0 147.2, 167.0 145.2 M 170.9 148.6 Q 172.1 148.6, 172.8 147.7 Q 173.5 146.9, 173.5 145.2 Q 173.5 143.5, 172.8 142.7 Q 172.1 141.9, 170.9 141.9 Q 169.6 141.9, 168.9 142.7 Q 168.2 143.5, 168.2 145.2 Q 168.2 146.9, 168.9 147.7 Q 169.6 148.6, 170.9 148.6 " fill="#FF0000"/>
<path class="atom-14" d="M 193.8 101.2 Q 193.8 99.2, 194.8 98.0 Q 195.8 96.9, 197.7 96.9 Q 199.5 96.9, 200.5 98.0 Q 201.5 99.2, 201.5 101.2 Q 201.5 103.2, 200.5 104.4 Q 199.5 105.5, 197.7 105.5 Q 195.8 105.5, 194.8 104.4 Q 193.8 103.2, 193.8 101.2 M 197.7 104.6 Q 199.0 104.6, 199.6 103.7 Q 200.3 102.9, 200.3 101.2 Q 200.3 99.5, 199.6 98.7 Q 199.0 97.8, 197.7 97.8 Q 196.4 97.8, 195.7 98.7 Q 195.0 99.5, 195.0 101.2 Q 195.0 102.9, 195.7 103.7 Q 196.4 104.6, 197.7 104.6 " fill="#FF0000"/>
<path class="atom-16" d="M 218.5 146.4 Q 218.5 144.4, 219.5 143.3 Q 220.5 142.1, 222.4 142.1 Q 224.2 142.1, 225.2 143.3 Q 226.2 144.4, 226.2 146.4 Q 226.2 148.5, 225.2 149.6 Q 224.2 150.8, 222.4 150.8 Q 220.5 150.8, 219.5 149.6 Q 218.5 148.5, 218.5 146.4 M 222.4 149.8 Q 223.7 149.8, 224.3 149.0 Q 225.1 148.1, 225.1 146.4 Q 225.1 144.8, 224.3 143.9 Q 223.7 143.1, 222.4 143.1 Q 221.1 143.1, 220.4 143.9 Q 219.7 144.7, 219.7 146.4 Q 219.7 148.1, 220.4 149.0 Q 221.1 149.8, 222.4 149.8 " fill="#FF0000"/>
<path class="atom-21" d="M 269.9 58.3 Q 269.9 56.3, 270.9 55.2 Q 271.9 54.1, 273.8 54.1 Q 275.7 54.1, 276.7 55.2 Q 277.6 56.3, 277.6 58.3 Q 277.6 60.4, 276.6 61.6 Q 275.6 62.7, 273.8 62.7 Q 271.9 62.7, 270.9 61.6 Q 269.9 60.4, 269.9 58.3 M 273.8 61.8 Q 275.1 61.8, 275.8 60.9 Q 276.5 60.0, 276.5 58.3 Q 276.5 56.7, 275.8 55.9 Q 275.1 55.0, 273.8 55.0 Q 272.5 55.0, 271.8 55.8 Q 271.1 56.7, 271.1 58.3 Q 271.1 60.0, 271.8 60.9 Q 272.5 61.8, 273.8 61.8 " fill="#FF0000"/>
</g>
    <g transform="translate(593.0, 0) scale(1 1) "><line x1="15" y1="100" x2="25" y2="100" style="stroke:rgb(0,0,0);stroke-width:2"/>
  <line x1="20" y1="95" x2="20" y2="105" style="stroke:rgb(0,0,0);stroke-width:2"/>
</g>
    <g transform="translate(633.0, 0) scale(1 1) "><!-- END OF HEADER -->
<rect style="opacity:1.0;fill:#FFFFFF;stroke:none" width="205.0" height="200.0" x="0.0" y="0.0"> </rect>
<path class="bond-0 atom-0 atom-1" d="M 122.6,44.3 L 108.8,89.2" style="fill:none;fill-rule:evenodd;stroke:#000000;stroke-width:2.0px;stroke-linecap:butt;stroke-linejoin:miter;stroke-opacity:1"/>
<path class="bond-1 atom-1 atom-2" d="M 108.8,89.2 L 95.0,134.1" style="fill:none;fill-rule:evenodd;stroke:#000000;stroke-width:2.0px;stroke-linecap:butt;stroke-linejoin:miter;stroke-opacity:1"/>
<path class="bond-2 atom-1 atom-3" d="M 108.8,89.2 L 63.9,75.4" style="fill:none;fill-rule:evenodd;stroke:#000000;stroke-width:2.0px;stroke-linecap:butt;stroke-linejoin:miter;stroke-opacity:1"/>
<path class="bond-3 atom-3 atom-4" d="M 63.9,75.4 L 50.5,87.9" style="fill:none;fill-rule:evenodd;stroke:#000000;stroke-width:2.0px;stroke-linecap:butt;stroke-linejoin:miter;stroke-opacity:1"/>
<path class="bond-3 atom-3 atom-4" d="M 50.5,87.9 L 37.2,100.3" style="fill:none;fill-rule:evenodd;stroke:#FF0000;stroke-width:2.0px;stroke-linecap:butt;stroke-linejoin:miter;stroke-opacity:1"/>
<path class="bond-4 atom-1 atom-5" d="M 108.8,89.2 L 153.7,103.0" style="fill:none;fill-rule:evenodd;stroke:#000000;stroke-width:2.0px;stroke-linecap:butt;stroke-linejoin:miter;stroke-opacity:1"/>
<path class="bond-5 atom-5 atom-6" d="M 154.7,107.0 L 168.8,93.8" style="fill:none;fill-rule:evenodd;stroke:#000000;stroke-width:2.0px;stroke-linecap:butt;stroke-linejoin:miter;stroke-opacity:1"/>
<path class="bond-5 atom-5 atom-6" d="M 168.8,93.8 L 182.9,80.7" style="fill:none;fill-rule:evenodd;stroke:#FF0000;stroke-width:2.0px;stroke-linecap:butt;stroke-linejoin:miter;stroke-opacity:1"/>
<path class="bond-5 atom-5 atom-6" d="M 149.9,101.8 L 164.0,88.7" style="fill:none;fill-rule:evenodd;stroke:#000000;stroke-width:2.0px;stroke-linecap:butt;stroke-linejoin:miter;stroke-opacity:1"/>
<path class="bond-5 atom-5 atom-6" d="M 164.0,88.7 L 178.1,75.5" style="fill:none;fill-rule:evenodd;stroke:#FF0000;stroke-width:2.0px;stroke-linecap:butt;stroke-linejoin:miter;stroke-opacity:1"/>
<path class="bond-6 atom-5 atom-7" d="M 153.7,103.0 L 158.0,121.7" style="fill:none;fill-rule:evenodd;stroke:#000000;stroke-width:2.0px;stroke-linecap:butt;stroke-linejoin:miter;stroke-opacity:1"/>
<path class="bond-6 atom-5 atom-7" d="M 158.0,121.7 L 162.4,140.5" style="fill:none;fill-rule:evenodd;stroke:#FF0000;stroke-width:2.0px;stroke-linecap:butt;stroke-linejoin:miter;stroke-opacity:1"/>
<path d="M 66.1,76.1 L 63.9,75.4 L 63.2,76.0" style="fill:none;stroke:#000000;stroke-width:2.0px;stroke-linecap:butt;stroke-linejoin:miter;stroke-opacity:1;"/>
<path d="M 151.5,102.3 L 153.7,103.0 L 154.0,103.9" style="fill:none;stroke:#000000;stroke-width:2.0px;stroke-linecap:butt;stroke-linejoin:miter;stroke-opacity:1;"/>
<path class="atom-4" d="M 10.2 100.8 L 12.1 100.8 L 12.1 106.5 L 18.9 106.5 L 18.9 100.8 L 20.7 100.8 L 20.7 114.1 L 18.9 114.1 L 18.9 108.0 L 12.1 108.0 L 12.1 114.1 L 10.2 114.1 L 10.2 100.8 " fill="#FF0000"/>
<path class="atom-4" d="M 23.4 107.5 Q 23.4 104.3, 25.0 102.5 Q 26.5 100.7, 29.5 100.7 Q 32.5 100.7, 34.0 102.5 Q 35.6 104.3, 35.6 107.5 Q 35.6 110.7, 34.0 112.5 Q 32.4 114.4, 29.5 114.4 Q 26.6 114.4, 25.0 112.5 Q 23.4 110.7, 23.4 107.5 M 29.5 112.9 Q 31.5 112.9, 32.6 111.5 Q 33.7 110.1, 33.7 107.5 Q 33.7 104.8, 32.6 103.5 Q 31.5 102.2, 29.5 102.2 Q 27.5 102.2, 26.4 103.5 Q 25.3 104.8, 25.3 107.5 Q 25.3 110.1, 26.4 111.5 Q 27.5 112.9, 29.5 112.9 " fill="#FF0000"/>
<path class="atom-6" d="M 182.0 71.0 Q 182.0 67.8, 183.6 66.0 Q 185.2 64.3, 188.1 64.3 Q 191.1 64.3, 192.7 66.0 Q 194.3 67.8, 194.3 71.0 Q 194.3 74.3, 192.7 76.1 Q 191.1 77.9, 188.1 77.9 Q 185.2 77.9, 183.6 76.1 Q 182.0 74.3, 182.0 71.0 M 188.1 76.4 Q 190.2 76.4, 191.3 75.1 Q 192.4 73.7, 192.4 71.0 Q 192.4 68.4, 191.3 67.1 Q 190.2 65.8, 188.1 65.8 Q 186.1 65.8, 185.0 67.1 Q 183.9 68.4, 183.9 71.0 Q 183.9 73.7, 185.0 75.1 Q 186.1 76.4, 188.1 76.4 " fill="#FF0000"/>
<path class="atom-7" d="M 158.2 148.8 Q 158.2 145.6, 159.7 143.8 Q 161.3 142.1, 164.3 142.1 Q 167.2 142.1, 168.8 143.8 Q 170.4 145.6, 170.4 148.8 Q 170.4 152.1, 168.8 153.9 Q 167.2 155.7, 164.3 155.7 Q 161.3 155.7, 159.7 153.9 Q 158.2 152.1, 158.2 148.8 M 164.3 154.2 Q 166.3 154.2, 167.4 152.9 Q 168.5 151.5, 168.5 148.8 Q 168.5 146.2, 167.4 144.9 Q 166.3 143.6, 164.3 143.6 Q 162.2 143.6, 161.1 144.9 Q 160.0 146.2, 160.0 148.8 Q 160.0 151.5, 161.1 152.9 Q 162.2 154.2, 164.3 154.2 " fill="#FF0000"/>
<path class="atom-7" d="M 172.4 142.2 L 174.2 142.2 L 174.2 147.9 L 181.0 147.9 L 181.0 142.2 L 182.9 142.2 L 182.9 155.5 L 181.0 155.5 L 181.0 149.4 L 174.2 149.4 L 174.2 155.5 L 172.4 155.5 L 172.4 142.2 " fill="#FF0000"/>
</g>
  </g>
</svg>
