<?xml version='1.0' encoding='ASCII' standalone='yes'?>
<svg xmlns="http://www.w3.org/2000/svg" xmlns:xlink="http://www.w3.org/1999/xlink" version="1.1" width="870.0px" viewBox="0 0 870.0 200.0" height="200.0px">
  <g>
    <g transform="translate(0, 0) scale(1 1) "><!-- END OF HEADER -->
<rect style="opacity:1.0;fill:#FFFFFF;stroke:none" width="271.0" height="200.0" x="0.0" y="0.0"> </rect>
<path class="bond-0 atom-0 atom-1" d="M 91.2,160.5 L 114.7,125.9" style="fill:none;fill-rule:evenodd;stroke:#000000;stroke-width:2.0px;stroke-linecap:butt;stroke-linejoin:miter;stroke-opacity:1"/>
<path class="bond-1 atom-1 atom-2" d="M 114.7,125.9 L 121.9,128.3" style="fill:none;fill-rule:evenodd;stroke:#000000;stroke-width:2.0px;stroke-linecap:butt;stroke-linejoin:miter;stroke-opacity:1"/>
<path class="bond-1 atom-1 atom-2" d="M 121.9,128.3 L 129.0,130.6" style="fill:none;fill-rule:evenodd;stroke:#FF0000;stroke-width:2.0px;stroke-linecap:butt;stroke-linejoin:miter;stroke-opacity:1"/>
<path class="bond-2 atom-1 atom-3" d="M 114.7,125.9 L 96.5,88.2" style="fill:none;fill-rule:evenodd;stroke:#000000;stroke-width:2.0px;stroke-linecap:butt;stroke-linejoin:miter;stroke-opacity:1"/>
<path class="bond-3 atom-3 atom-4" d="M 96.5,88.2 L 58.9,106.4" style="fill:none;fill-rule:evenodd;stroke:#000000;stroke-width:2.0px;stroke-linecap:butt;stroke-linejoin:miter;stroke-opacity:1"/>
<path class="bond-4 atom-3 atom-5" d="M 96.5,88.2 L 134.2,70.1" style="fill:none;fill-rule:evenodd;stroke:#000000;stroke-width:2.0px;stroke-linecap:butt;stroke-linejoin:miter;stroke-opacity:1"/>
<path class="bond-5 atom-5 atom-6" d="M 134.2,70.1 L 168.8,93.6" style="fill:none;fill-rule:evenodd;stroke:#000000;stroke-width:2.0px;stroke-linecap:butt;stroke-linejoin:miter;stroke-opacity:1"/>
<path class="bond-6 atom-6 atom-7" d="M 168.8,93.6 L 203.3,117.1" style="fill:none;fill-rule:evenodd;stroke:#000000;stroke-width:2.0px;stroke-linecap:butt;stroke-linejoin:miter;stroke-opacity:1"/>
<path class="bond-7 atom-6 atom-8" d="M 168.8,93.6 L 145.2,128.2" style="fill:none;fill-rule:evenodd;stroke:#000000;stroke-width:2.0px;stroke-linecap:butt;stroke-linejoin:miter;stroke-opacity:1"/>
<path class="bond-8 atom-8 atom-9" d="M 145.2,128.2 L 152.5,143.3" style="fill:none;fill-rule:evenodd;stroke:#000000;stroke-width:2.0px;stroke-linecap:butt;stroke-linejoin:miter;stroke-opacity:1"/>
<path class="bond-8 atom-8 atom-9" d="M 152.5,143.3 L 159.9,158.5" style="fill:none;fill-rule:evenodd;stroke:#FF0000;stroke-width:2.0px;stroke-linecap:butt;stroke-linejoin:miter;stroke-opacity:1"/>
<path class="bond-9 atom-8 atom-10" d="M 145.2,128.2 L 128.0,131.1" style="fill:none;fill-rule:evenodd;stroke:#000000;stroke-width:2.0px;stroke-linecap:butt;stroke-linejoin:miter;stroke-opacity:1"/>
<path class="bond-9 atom-8 atom-10" d="M 128.0,131.1 L 110.8,134.1" style="fill:none;fill-rule:evenodd;stroke:#FF0000;stroke-width:2.0px;stroke-linecap:butt;stroke-linejoin:miter;stroke-opacity:1"/>
<path class="bond-10 atom-6 atom-11" d="M 168.8,93.6 L 192.3,59.0" style="fill:none;fill-rule:evenodd;stroke:#000000;stroke-width:2.0px;stroke-linecap:butt;stroke-linejoin:miter;stroke-opacity:1"/>
<path class="bond-11 atom-11 atom-12" d="M 192.3,59.0 L 209.8,60.3" style="fill:none;fill-rule:evenodd;stroke:#000000;stroke-width:2.0px;stroke-linecap:butt;stroke-linejoin:miter;stroke-opacity:1"/>
<path class="bond-11 atom-11 atom-12" d="M 209.8,60.3 L 227.2,61.6" style="fill:none;fill-rule:evenodd;stroke:#FF0000;stroke-width:2.0px;stroke-linecap:butt;stroke-linejoin:miter;stroke-opacity:1"/>
<path class="bond-12 atom-11 atom-13" d="M 192.3,59.0 L 185.0,44.0" style="fill:none;fill-rule:evenodd;stroke:#000000;stroke-width:2.0px;stroke-linecap:butt;stroke-linejoin:miter;stroke-opacity:1"/>
<path class="bond-12 atom-11 atom-13" d="M 185.0,44.0 L 177.8,28.9" style="fill:none;fill-rule:evenodd;stroke:#FF0000;stroke-width:2.0px;stroke-linecap:butt;stroke-linejoin:miter;stroke-opacity:1"/>
<path class="bond-13 atom-3 atom-14" d="M 96.5,88.2 L 78.4,50.6" style="fill:none;fill-rule:evenodd;stroke:#000000;stroke-width:2.0px;stroke-linecap:butt;stroke-linejoin:miter;stroke-opacity:1"/>
<path class="bond-14 atom-14 atom-15" d="M 79.9,53.7 L 89.6,39.5" style="fill:none;fill-rule:evenodd;stroke:#000000;stroke-width:2.0px;stroke-linecap:butt;stroke-linejoin:miter;stroke-opacity:1"/>
<path class="bond-14 atom-14 atom-15" d="M 89.6,39.5 L 99.3,25.2" style="fill:none;fill-rule:evenodd;stroke:#FF0000;stroke-width:2.0px;stroke-linecap:butt;stroke-linejoin:miter;stroke-opacity:1"/>
<path class="bond-14 atom-14 atom-15" d="M 74.9,50.3 L 84.6,36.0" style="fill:none;fill-rule:evenodd;stroke:#000000;stroke-width:2.0px;stroke-linecap:butt;stroke-linejoin:miter;stroke-opacity:1"/>
<path class="bond-14 atom-14 atom-15" d="M 84.6,36.0 L 94.3,21.8" style="fill:none;fill-rule:evenodd;stroke:#FF0000;stroke-width:2.0px;stroke-linecap:butt;stroke-linejoin:miter;stroke-opacity:1"/>
<path class="bond-15 atom-14 atom-16" d="M 78.4,50.6 L 60.9,49.3" style="fill:none;fill-rule:evenodd;stroke:#000000;stroke-width:2.0px;stroke-linecap:butt;stroke-linejoin:miter;stroke-opacity:1"/>
<path class="bond-15 atom-14 atom-16" d="M 60.9,49.3 L 43.4,48.0" style="fill:none;fill-rule:evenodd;stroke:#FF0000;stroke-width:2.0px;stroke-linecap:butt;stroke-linejoin:miter;stroke-opacity:1"/>
<path d="M 132.3,71.0 L 134.2,70.1 L 135.9,71.2" style="fill:none;stroke:#000000;stroke-width:2.0px;stroke-linecap:butt;stroke-linejoin:miter;stroke-opacity:1;"/>
<path d="M 79.3,52.4 L 78.4,50.6 L 77.5,50.5" style="fill:none;stroke:#000000;stroke-width:2.0px;stroke-linecap:butt;stroke-linejoin:miter;stroke-opacity:1;"/>
<path class="atom-2" d="M 130.4 132.9 Q 130.4 130.0, 131.8 128.5 Q 133.2 126.9, 135.8 126.9 Q 138.4 126.9, 139.8 128.5 Q 141.2 130.0, 141.2 132.9 Q 141.2 135.8, 139.8 137.4 Q 138.4 139.0, 135.8 139.0 Q 133.2 139.0, 131.8 137.4 Q 130.4 135.8, 130.4 132.9 M 135.8 137.7 Q 137.6 137.7, 138.6 136.5 Q 139.6 135.3, 139.6 132.9 Q 139.6 130.6, 138.6 129.4 Q 137.6 128.2, 135.8 128.2 Q 134.0 128.2, 133.0 129.4 Q 132.0 130.5, 132.0 132.9 Q 132.0 135.3, 133.0 136.5 Q 134.0 137.7, 135.8 137.7 " fill="#FF0000"/>
<path class="atom-2" d="M 143.1 127.0 L 144.7 127.0 L 144.7 132.0 L 150.8 132.0 L 150.8 127.0 L 152.4 127.0 L 152.4 138.8 L 150.8 138.8 L 150.8 133.4 L 144.7 133.4 L 144.7 138.8 L 143.1 138.8 L 143.1 127.0 " fill="#FF0000"/>
<path class="atom-9" d="M 158.0 165.9 Q 158.0 163.0, 159.4 161.4 Q 160.8 159.8, 163.4 159.8 Q 166.0 159.8, 167.4 161.4 Q 168.8 163.0, 168.8 165.9 Q 168.8 168.7, 167.4 170.4 Q 166.0 172.0, 163.4 172.0 Q 160.8 172.0, 159.4 170.4 Q 158.0 168.8, 158.0 165.9 M 163.4 170.7 Q 165.2 170.7, 166.2 169.5 Q 167.2 168.2, 167.2 165.9 Q 167.2 163.5, 166.2 162.4 Q 165.2 161.2, 163.4 161.2 Q 161.6 161.2, 160.6 162.3 Q 159.6 163.5, 159.6 165.9 Q 159.6 168.3, 160.6 169.5 Q 161.6 170.7, 163.4 170.7 " fill="#FF0000"/>
<path class="atom-9" d="M 170.7 160.0 L 172.3 160.0 L 172.3 165.0 L 178.3 165.0 L 178.3 160.0 L 179.9 160.0 L 179.9 171.8 L 178.3 171.8 L 178.3 166.3 L 172.3 166.3 L 172.3 171.8 L 170.7 171.8 L 170.7 160.0 " fill="#FF0000"/>
<path class="atom-10" d="M 86.9 129.4 L 88.5 129.4 L 88.5 134.4 L 94.5 134.4 L 94.5 129.4 L 96.2 129.4 L 96.2 141.2 L 94.5 141.2 L 94.5 135.8 L 88.5 135.8 L 88.5 141.2 L 86.9 141.2 L 86.9 129.4 " fill="#FF0000"/>
<path class="atom-10" d="M 98.6 135.3 Q 98.6 132.4, 100.0 130.8 Q 101.4 129.3, 104.0 129.3 Q 106.6 129.3, 108.0 130.8 Q 109.5 132.4, 109.5 135.3 Q 109.5 138.2, 108.0 139.8 Q 106.6 141.4, 104.0 141.4 Q 101.4 141.4, 100.0 139.8 Q 98.6 138.2, 98.6 135.3 M 104.0 140.1 Q 105.8 140.1, 106.8 138.9 Q 107.8 137.6, 107.8 135.3 Q 107.8 132.9, 106.8 131.8 Q 105.8 130.6, 104.0 130.6 Q 102.2 130.6, 101.2 131.8 Q 100.3 132.9, 100.3 135.3 Q 100.3 137.7, 101.2 138.9 Q 102.2 140.1, 104.0 140.1 " fill="#FF0000"/>
<path class="atom-12" d="M 228.6 62.2 Q 228.6 59.3, 230.0 57.7 Q 231.4 56.1, 234.0 56.1 Q 236.6 56.1, 238.0 57.7 Q 239.5 59.3, 239.5 62.2 Q 239.5 65.0, 238.0 66.7 Q 236.6 68.3, 234.0 68.3 Q 231.4 68.3, 230.0 66.7 Q 228.6 65.1, 228.6 62.2 M 234.0 67.0 Q 235.8 67.0, 236.8 65.8 Q 237.8 64.5, 237.8 62.2 Q 237.8 59.8, 236.8 58.7 Q 235.8 57.5, 234.0 57.5 Q 232.2 57.5, 231.2 58.7 Q 230.3 59.8, 230.3 62.2 Q 230.3 64.6, 231.2 65.8 Q 232.2 67.0, 234.0 67.0 " fill="#FF0000"/>
<path class="atom-12" d="M 241.3 56.3 L 242.9 56.3 L 242.9 61.3 L 249.0 61.3 L 249.0 56.3 L 250.6 56.3 L 250.6 68.1 L 249.0 68.1 L 249.0 62.7 L 242.9 62.7 L 242.9 68.1 L 241.3 68.1 L 241.3 56.3 " fill="#FF0000"/>
<path class="atom-13" d="M 157.0 15.5 L 158.6 15.5 L 158.6 20.5 L 164.7 20.5 L 164.7 15.5 L 166.3 15.5 L 166.3 27.4 L 164.7 27.4 L 164.7 21.9 L 158.6 21.9 L 158.6 27.4 L 157.0 27.4 L 157.0 15.5 " fill="#FF0000"/>
<path class="atom-13" d="M 168.7 21.4 Q 168.7 18.6, 170.1 17.0 Q 171.5 15.4, 174.1 15.4 Q 176.8 15.4, 178.2 17.0 Q 179.6 18.6, 179.6 21.4 Q 179.6 24.3, 178.2 25.9 Q 176.7 27.5, 174.1 27.5 Q 171.5 27.5, 170.1 25.9 Q 168.7 24.3, 168.7 21.4 M 174.1 26.2 Q 176.0 26.2, 176.9 25.0 Q 177.9 23.8, 177.9 21.4 Q 177.9 19.1, 176.9 17.9 Q 176.0 16.7, 174.1 16.7 Q 172.3 16.7, 171.4 17.9 Q 170.4 19.1, 170.4 21.4 Q 170.4 23.8, 171.4 25.0 Q 172.3 26.2, 174.1 26.2 " fill="#FF0000"/>
<path class="atom-15" d="M 96.5 16.0 Q 96.5 13.2, 97.9 11.6 Q 99.3 10.0, 101.9 10.0 Q 104.5 10.0, 105.9 11.6 Q 107.3 13.2, 107.3 16.0 Q 107.3 18.9, 105.9 20.5 Q 104.5 22.2, 101.9 22.2 Q 99.3 22.2, 97.9 20.5 Q 96.5 18.9, 96.5 16.0 M 101.9 20.8 Q 103.7 20.8, 104.7 19.6 Q 105.7 18.4, 105.7 16.0 Q 105.7 13.7, 104.7 12.5 Q 103.7 11.3, 101.9 11.3 Q 100.1 11.3, 99.1 12.5 Q 98.1 13.7, 98.1 16.0 Q 98.1 18.4, 99.1 19.6 Q 100.1 20.8, 101.9 20.8 " fill="#FF0000"/>
<path class="atom-16" d="M 19.5 41.6 L 21.1 41.6 L 21.1 46.6 L 27.2 46.6 L 27.2 41.6 L 28.8 41.6 L 28.8 53.4 L 27.2 53.4 L 27.2 48.0 L 21.1 48.0 L 21.1 53.4 L 19.5 53.4 L 19.5 41.6 " fill="#FF0000"/>
<path class="atom-16" d="M 31.2 47.5 Q 31.2 44.6, 32.6 43.1 Q 34.0 41.5, 36.7 41.5 Q 39.3 41.5, 40.7 43.1 Q 42.1 44.6, 42.1 47.5 Q 42.1 50.4, 40.7 52.0 Q 39.3 53.6, 36.7 53.6 Q 34.1 53.6, 32.6 52.0 Q 31.2 50.4, 31.2 47.5 M 36.7 52.3 Q 38.5 52.3, 39.4 51.1 Q 40.4 49.9, 40.4 47.5 Q 40.4 45.2, 39.4 44.0 Q 38.5 42.8, 36.7 42.8 Q 34.9 42.8, 33.9 44.0 Q 32.9 45.1, 32.9 47.5 Q 32.9 49.9, 33.9 51.1 Q 34.9 52.3, 36.7 52.3 " fill="#FF0000"/>
<path class="legend" d="M 126.0 181.9 Q 126.0 179.6, 126.7 177.7 Q 127.4 175.8, 128.7 173.8 L 129.6 174.4 Q 128.5 176.3, 128.0 178.0 Q 127.5 179.7, 127.5 181.9 Q 127.5 184.0, 128.0 185.8 Q 128.5 187.5, 129.6 189.4 L 128.7 190.0 Q 127.4 188.0, 126.7 186.1 Q 126.0 184.2, 126.0 181.9 " fill="#000000"/>
<path class="legend" d="M 130.5 177.3 Q 130.9 176.2, 131.9 175.6 Q 132.9 175.0, 134.3 175.0 Q 136.0 175.0, 136.9 175.9 Q 137.9 176.8, 137.9 178.5 Q 137.9 180.2, 136.6 181.7 Q 135.4 183.3, 132.9 185.2 L 138.1 185.2 L 138.1 186.4 L 130.5 186.4 L 130.5 185.4 Q 132.6 183.9, 133.8 182.8 Q 135.1 181.6, 135.7 180.6 Q 136.3 179.6, 136.3 178.6 Q 136.3 177.5, 135.8 176.9 Q 135.2 176.3, 134.3 176.3 Q 133.3 176.3, 132.7 176.6 Q 132.1 177.0, 131.7 177.8 L 130.5 177.3 " fill="#000000"/>
<path class="legend" d="M 143.1 181.9 Q 143.1 184.2, 142.4 186.1 Q 141.7 188.0, 140.4 190.0 L 139.5 189.4 Q 140.6 187.5, 141.1 185.8 Q 141.6 184.0, 141.6 181.9 Q 141.6 179.7, 141.1 178.0 Q 140.6 176.3, 139.5 174.4 L 140.4 173.8 Q 141.7 175.8, 142.4 177.7 Q 143.1 179.6, 143.1 181.9 " fill="#000000"/>
</g>
    <g transform="translate(271.0, 0) scale(1 1) "><line x1="5" y1="100" x2="35" y2="100" style="stroke:rgb(0,0,0);stroke-width:2"/>
  <line x1="34" y1="100" x2="29" y2="95" style="stroke:rgb(0,0,0);stroke-width:2"/>
  <line x1="34" y1="100" x2="29" y2="105" style="stroke:rgb(0,0,0);stroke-width:2"/>
</g>
    <g transform="translate(311.0, 0) scale(1 1) "><!-- END OF HEADER -->
<rect style="opacity:1.0;fill:#FFFFFF;stroke:none" width="304.0" height="200.0" x="0.0" y="0.0"> </rect>
<path class="bond-0 atom-0 atom-1" d="M 15.2,67.0 L 54.9,66.5" style="fill:none;fill-rule:evenodd;stroke:#000000;stroke-width:2.0px;stroke-linecap:butt;stroke-linejoin:miter;stroke-opacity:1"/>
<path class="bond-1 atom-1 atom-2" d="M 54.9,66.5 L 62.6,52.8" style="fill:none;fill-rule:evenodd;stroke:#000000;stroke-width:2.0px;stroke-linecap:butt;stroke-linejoin:miter;stroke-opacity:1"/>
<path class="bond-1 atom-1 atom-2" d="M 62.6,52.8 L 70.3,39.1" style="fill:none;fill-rule:evenodd;stroke:#FF0000;stroke-width:2.0px;stroke-linecap:butt;stroke-linejoin:miter;stroke-opacity:1"/>
<path class="bond-2 atom-1 atom-3" d="M 54.9,66.5 L 75.1,100.7" style="fill:none;fill-rule:evenodd;stroke:#000000;stroke-width:2.0px;stroke-linecap:butt;stroke-linejoin:miter;stroke-opacity:1"/>
<path class="bond-3 atom-3 atom-4" d="M 75.1,100.7 L 41.0,120.9" style="fill:none;fill-rule:evenodd;stroke:#000000;stroke-width:2.0px;stroke-linecap:butt;stroke-linejoin:miter;stroke-opacity:1"/>
<path class="bond-4 atom-3 atom-5" d="M 75.1,100.7 L 109.3,80.4" style="fill:none;fill-rule:evenodd;stroke:#000000;stroke-width:2.0px;stroke-linecap:butt;stroke-linejoin:miter;stroke-opacity:1"/>
<path class="bond-5 atom-5 atom-6" d="M 109.3,80.4 L 143.8,99.9" style="fill:none;fill-rule:evenodd;stroke:#000000;stroke-width:2.0px;stroke-linecap:butt;stroke-linejoin:miter;stroke-opacity:1"/>
<path class="bond-6 atom-6 atom-7" d="M 143.8,99.9 L 178.4,119.4" style="fill:none;fill-rule:evenodd;stroke:#000000;stroke-width:2.0px;stroke-linecap:butt;stroke-linejoin:miter;stroke-opacity:1"/>
<path class="bond-7 atom-7 atom-8" d="M 178.4,119.4 L 212.6,99.2" style="fill:none;fill-rule:evenodd;stroke:#000000;stroke-width:2.0px;stroke-linecap:butt;stroke-linejoin:miter;stroke-opacity:1"/>
<path class="bond-8 atom-8 atom-9" d="M 212.6,99.2 L 246.7,78.9" style="fill:none;fill-rule:evenodd;stroke:#000000;stroke-width:2.0px;stroke-linecap:butt;stroke-linejoin:miter;stroke-opacity:1"/>
<path class="bond-9 atom-8 atom-10" d="M 212.6,99.2 L 192.4,65.0" style="fill:none;fill-rule:evenodd;stroke:#000000;stroke-width:2.0px;stroke-linecap:butt;stroke-linejoin:miter;stroke-opacity:1"/>
<path class="bond-10 atom-10 atom-11" d="M 192.4,65.0 L 200.1,51.3" style="fill:none;fill-rule:evenodd;stroke:#000000;stroke-width:2.0px;stroke-linecap:butt;stroke-linejoin:miter;stroke-opacity:1"/>
<path class="bond-10 atom-10 atom-11" d="M 200.1,51.3 L 207.8,37.6" style="fill:none;fill-rule:evenodd;stroke:#FF0000;stroke-width:2.0px;stroke-linecap:butt;stroke-linejoin:miter;stroke-opacity:1"/>
<path class="bond-11 atom-10 atom-12" d="M 192.4,65.0 L 185.3,63.3" style="fill:none;fill-rule:evenodd;stroke:#000000;stroke-width:2.0px;stroke-linecap:butt;stroke-linejoin:miter;stroke-opacity:1"/>
<path class="bond-11 atom-10 atom-12" d="M 185.3,63.3 L 178.3,61.7" style="fill:none;fill-rule:evenodd;stroke:#FF0000;stroke-width:2.0px;stroke-linecap:butt;stroke-linejoin:miter;stroke-opacity:1"/>
<path class="bond-12 atom-8 atom-13" d="M 212.6,99.2 L 232.8,133.3" style="fill:none;fill-rule:evenodd;stroke:#000000;stroke-width:2.0px;stroke-linecap:butt;stroke-linejoin:miter;stroke-opacity:1"/>
<path class="bond-13 atom-13 atom-14" d="M 232.8,133.3 L 249.4,133.1" style="fill:none;fill-rule:evenodd;stroke:#000000;stroke-width:2.0px;stroke-linecap:butt;stroke-linejoin:miter;stroke-opacity:1"/>
<path class="bond-13 atom-13 atom-14" d="M 249.4,133.1 L 266.1,132.9" style="fill:none;fill-rule:evenodd;stroke:#FF0000;stroke-width:2.0px;stroke-linecap:butt;stroke-linejoin:miter;stroke-opacity:1"/>
<path class="bond-14 atom-13 atom-15" d="M 232.8,133.3 L 225.0,147.1" style="fill:none;fill-rule:evenodd;stroke:#000000;stroke-width:2.0px;stroke-linecap:butt;stroke-linejoin:miter;stroke-opacity:1"/>
<path class="bond-14 atom-13 atom-15" d="M 225.0,147.1 L 217.3,160.9" style="fill:none;fill-rule:evenodd;stroke:#FF0000;stroke-width:2.0px;stroke-linecap:butt;stroke-linejoin:miter;stroke-opacity:1"/>
<path class="bond-15 atom-6 atom-16" d="M 143.8,99.9 L 124.4,134.5" style="fill:none;fill-rule:evenodd;stroke:#000000;stroke-width:2.0px;stroke-linecap:butt;stroke-linejoin:miter;stroke-opacity:1"/>
<path class="bond-16 atom-16 atom-17" d="M 124.4,134.5 L 132.4,148.1" style="fill:none;fill-rule:evenodd;stroke:#000000;stroke-width:2.0px;stroke-linecap:butt;stroke-linejoin:miter;stroke-opacity:1"/>
<path class="bond-16 atom-16 atom-17" d="M 132.4,148.1 L 140.5,161.7" style="fill:none;fill-rule:evenodd;stroke:#FF0000;stroke-width:2.0px;stroke-linecap:butt;stroke-linejoin:miter;stroke-opacity:1"/>
<path class="bond-17 atom-16 atom-18" d="M 124.4,134.5 L 108.4,138.7" style="fill:none;fill-rule:evenodd;stroke:#000000;stroke-width:2.0px;stroke-linecap:butt;stroke-linejoin:miter;stroke-opacity:1"/>
<path class="bond-17 atom-16 atom-18" d="M 108.4,138.7 L 92.4,142.8" style="fill:none;fill-rule:evenodd;stroke:#FF0000;stroke-width:2.0px;stroke-linecap:butt;stroke-linejoin:miter;stroke-opacity:1"/>
<path class="bond-18 atom-6 atom-19" d="M 143.8,99.9 L 163.3,65.3" style="fill:none;fill-rule:evenodd;stroke:#000000;stroke-width:2.0px;stroke-linecap:butt;stroke-linejoin:miter;stroke-opacity:1"/>
<path class="bond-19 atom-19 atom-20" d="M 163.3,65.3 L 179.3,61.2" style="fill:none;fill-rule:evenodd;stroke:#000000;stroke-width:2.0px;stroke-linecap:butt;stroke-linejoin:miter;stroke-opacity:1"/>
<path class="bond-19 atom-19 atom-20" d="M 179.3,61.2 L 195.3,57.0" style="fill:none;fill-rule:evenodd;stroke:#FF0000;stroke-width:2.0px;stroke-linecap:butt;stroke-linejoin:miter;stroke-opacity:1"/>
<path class="bond-20 atom-19 atom-21" d="M 163.3,65.3 L 155.3,51.8" style="fill:none;fill-rule:evenodd;stroke:#000000;stroke-width:2.0px;stroke-linecap:butt;stroke-linejoin:miter;stroke-opacity:1"/>
<path class="bond-20 atom-19 atom-21" d="M 155.3,51.8 L 147.3,38.3" style="fill:none;fill-rule:evenodd;stroke:#FF0000;stroke-width:2.0px;stroke-linecap:butt;stroke-linejoin:miter;stroke-opacity:1"/>
<path class="bond-21 atom-3 atom-22" d="M 75.1,100.7 L 95.3,134.8" style="fill:none;fill-rule:evenodd;stroke:#000000;stroke-width:2.0px;stroke-linecap:butt;stroke-linejoin:miter;stroke-opacity:1"/>
<path class="bond-22 atom-22 atom-23" d="M 93.8,137.5 L 110.3,141.4" style="fill:none;fill-rule:evenodd;stroke:#000000;stroke-width:2.0px;stroke-linecap:butt;stroke-linejoin:miter;stroke-opacity:1"/>
<path class="bond-22 atom-22 atom-23" d="M 110.3,141.4 L 126.8,145.3" style="fill:none;fill-rule:evenodd;stroke:#FF0000;stroke-width:2.0px;stroke-linecap:butt;stroke-linejoin:miter;stroke-opacity:1"/>
<path class="bond-22 atom-22 atom-23" d="M 93.3,131.3 L 111.7,135.7" style="fill:none;fill-rule:evenodd;stroke:#000000;stroke-width:2.0px;stroke-linecap:butt;stroke-linejoin:miter;stroke-opacity:1"/>
<path class="bond-22 atom-22 atom-23" d="M 111.7,135.7 L 128.2,139.6" style="fill:none;fill-rule:evenodd;stroke:#FF0000;stroke-width:2.0px;stroke-linecap:butt;stroke-linejoin:miter;stroke-opacity:1"/>
<path class="bond-23 atom-22 atom-24" d="M 95.3,134.8 L 87.6,148.6" style="fill:none;fill-rule:evenodd;stroke:#000000;stroke-width:2.0px;stroke-linecap:butt;stroke-linejoin:miter;stroke-opacity:1"/>
<path class="bond-23 atom-22 atom-24" d="M 87.6,148.6 L 79.8,162.4" style="fill:none;fill-rule:evenodd;stroke:#FF0000;stroke-width:2.0px;stroke-linecap:butt;stroke-linejoin:miter;stroke-opacity:1"/>
<path d="M 107.6,81.5 L 109.3,80.4 L 111.0,81.4" style="fill:none;stroke:#000000;stroke-width:2.0px;stroke-linecap:butt;stroke-linejoin:miter;stroke-opacity:1;"/>
<path d="M 176.7,118.4 L 178.4,119.4 L 180.1,118.4" style="fill:none;stroke:#000000;stroke-width:2.0px;stroke-linecap:butt;stroke-linejoin:miter;stroke-opacity:1;"/>
<path d="M 94.3,133.1 L 95.3,134.8 L 94.9,135.5" style="fill:none;stroke:#000000;stroke-width:2.0px;stroke-linecap:butt;stroke-linejoin:miter;stroke-opacity:1;"/>
<path class="atom-2" d="M 69.2 32.0 Q 69.2 29.3, 70.5 27.8 Q 71.9 26.2, 74.4 26.2 Q 76.8 26.2, 78.2 27.8 Q 79.5 29.3, 79.5 32.0 Q 79.5 34.7, 78.2 36.2 Q 76.8 37.8, 74.4 37.8 Q 71.9 37.8, 70.5 36.2 Q 69.2 34.7, 69.2 32.0 M 74.4 36.5 Q 76.1 36.5, 77.0 35.4 Q 77.9 34.2, 77.9 32.0 Q 77.9 29.8, 77.0 28.6 Q 76.1 27.5, 74.4 27.5 Q 72.6 27.5, 71.7 28.6 Q 70.8 29.7, 70.8 32.0 Q 70.8 34.2, 71.7 35.4 Q 72.6 36.5, 74.4 36.5 " fill="#FF0000"/>
<path class="atom-2" d="M 81.3 26.4 L 82.8 26.4 L 82.8 31.2 L 88.5 31.2 L 88.5 26.4 L 90.1 26.4 L 90.1 37.6 L 88.5 37.6 L 88.5 32.4 L 82.8 32.4 L 82.8 37.6 L 81.3 37.6 L 81.3 26.4 " fill="#FF0000"/>
<path class="atom-11" d="M 206.7 30.4 Q 206.7 27.7, 208.0 26.2 Q 209.3 24.7, 211.8 24.7 Q 214.3 24.7, 215.7 26.2 Q 217.0 27.7, 217.0 30.4 Q 217.0 33.2, 215.6 34.7 Q 214.3 36.3, 211.8 36.3 Q 209.4 36.3, 208.0 34.7 Q 206.7 33.2, 206.7 30.4 M 211.8 35.0 Q 213.5 35.0, 214.5 33.9 Q 215.4 32.7, 215.4 30.4 Q 215.4 28.2, 214.5 27.1 Q 213.5 26.0, 211.8 26.0 Q 210.1 26.0, 209.2 27.1 Q 208.3 28.2, 208.3 30.4 Q 208.3 32.7, 209.2 33.9 Q 210.1 35.0, 211.8 35.0 " fill="#FF0000"/>
<path class="atom-11" d="M 218.7 24.9 L 220.3 24.9 L 220.3 29.6 L 226.0 29.6 L 226.0 24.9 L 227.5 24.9 L 227.5 36.1 L 226.0 36.1 L 226.0 30.9 L 220.3 30.9 L 220.3 36.1 L 218.7 36.1 L 218.7 24.9 " fill="#FF0000"/>
<path class="atom-12" d="M 155.6 54.6 L 157.1 54.6 L 157.1 59.3 L 162.9 59.3 L 162.9 54.6 L 164.4 54.6 L 164.4 65.8 L 162.9 65.8 L 162.9 60.6 L 157.1 60.6 L 157.1 65.8 L 155.6 65.8 L 155.6 54.6 " fill="#FF0000"/>
<path class="atom-12" d="M 166.7 60.2 Q 166.7 57.5, 168.0 56.0 Q 169.4 54.4, 171.8 54.4 Q 174.3 54.4, 175.7 56.0 Q 177.0 57.5, 177.0 60.2 Q 177.0 62.9, 175.7 64.4 Q 174.3 66.0, 171.8 66.0 Q 169.4 66.0, 168.0 64.4 Q 166.7 62.9, 166.7 60.2 M 171.8 64.7 Q 173.6 64.7, 174.5 63.6 Q 175.4 62.4, 175.4 60.2 Q 175.4 58.0, 174.5 56.8 Q 173.6 55.7, 171.8 55.7 Q 170.1 55.7, 169.2 56.8 Q 168.3 57.9, 168.3 60.2 Q 168.3 62.4, 169.2 63.6 Q 170.1 64.7, 171.8 64.7 " fill="#FF0000"/>
<path class="atom-14" d="M 267.3 132.9 Q 267.3 130.2, 268.7 128.7 Q 270.0 127.2, 272.5 127.2 Q 275.0 127.2, 276.3 128.7 Q 277.7 130.2, 277.7 132.9 Q 277.7 135.6, 276.3 137.2 Q 275.0 138.7, 272.5 138.7 Q 270.0 138.7, 268.7 137.2 Q 267.3 135.6, 267.3 132.9 M 272.5 137.5 Q 274.2 137.5, 275.1 136.3 Q 276.1 135.2, 276.1 132.9 Q 276.1 130.7, 275.1 129.6 Q 274.2 128.5, 272.5 128.5 Q 270.8 128.5, 269.8 129.6 Q 268.9 130.7, 268.9 132.9 Q 268.9 135.2, 269.8 136.3 Q 270.8 137.5, 272.5 137.5 " fill="#FF0000"/>
<path class="atom-14" d="M 279.4 127.3 L 280.9 127.3 L 280.9 132.1 L 286.7 132.1 L 286.7 127.3 L 288.2 127.3 L 288.2 138.6 L 286.7 138.6 L 286.7 133.4 L 280.9 133.4 L 280.9 138.6 L 279.4 138.6 L 279.4 127.3 " fill="#FF0000"/>
<path class="atom-15" d="M 197.1 162.3 L 198.6 162.3 L 198.6 167.1 L 204.4 167.1 L 204.4 162.3 L 205.9 162.3 L 205.9 173.6 L 204.4 173.6 L 204.4 168.4 L 198.6 168.4 L 198.6 173.6 L 197.1 173.6 L 197.1 162.3 " fill="#FF0000"/>
<path class="atom-15" d="M 208.2 167.9 Q 208.2 165.2, 209.5 163.7 Q 210.9 162.2, 213.3 162.2 Q 215.8 162.2, 217.2 163.7 Q 218.5 165.2, 218.5 167.9 Q 218.5 170.7, 217.2 172.2 Q 215.8 173.8, 213.3 173.8 Q 210.9 173.8, 209.5 172.2 Q 208.2 170.7, 208.2 167.9 M 213.3 172.5 Q 215.1 172.5, 216.0 171.3 Q 216.9 170.2, 216.9 167.9 Q 216.9 165.7, 216.0 164.6 Q 215.1 163.5, 213.3 163.5 Q 211.6 163.5, 210.7 164.6 Q 209.8 165.7, 209.8 167.9 Q 209.8 170.2, 210.7 171.3 Q 211.6 172.5, 213.3 172.5 " fill="#FF0000"/>
<path class="atom-17" d="M 139.4 168.7 Q 139.4 166.0, 140.8 164.5 Q 142.1 163.0, 144.6 163.0 Q 147.1 163.0, 148.4 164.5 Q 149.8 166.0, 149.8 168.7 Q 149.8 171.4, 148.4 173.0 Q 147.1 174.5, 144.6 174.5 Q 142.1 174.5, 140.8 173.0 Q 139.4 171.4, 139.4 168.7 M 144.6 173.2 Q 146.3 173.2, 147.2 172.1 Q 148.2 170.9, 148.2 168.7 Q 148.2 166.5, 147.2 165.4 Q 146.3 164.2, 144.6 164.2 Q 142.9 164.2, 142.0 165.3 Q 141.0 166.5, 141.0 168.7 Q 141.0 171.0, 142.0 172.1 Q 142.9 173.2, 144.6 173.2 " fill="#FF0000"/>
<path class="atom-17" d="M 151.5 163.1 L 153.0 163.1 L 153.0 167.9 L 158.8 167.9 L 158.8 163.1 L 160.3 163.1 L 160.3 174.3 L 158.8 174.3 L 158.8 169.1 L 153.0 169.1 L 153.0 174.3 L 151.5 174.3 L 151.5 163.1 " fill="#FF0000"/>
<path class="atom-18" d="M 69.7 139.0 L 71.2 139.0 L 71.2 143.8 L 77.0 143.8 L 77.0 139.0 L 78.5 139.0 L 78.5 150.2 L 77.0 150.2 L 77.0 145.0 L 71.2 145.0 L 71.2 150.2 L 69.7 150.2 L 69.7 139.0 " fill="#FF0000"/>
<path class="atom-18" d="M 80.8 144.6 Q 80.8 141.9, 82.2 140.4 Q 83.5 138.8, 86.0 138.8 Q 88.5 138.8, 89.8 140.4 Q 91.1 141.9, 91.1 144.6 Q 91.1 147.3, 89.8 148.8 Q 88.4 150.4, 86.0 150.4 Q 83.5 150.4, 82.2 148.8 Q 80.8 147.3, 80.8 144.6 M 86.0 149.1 Q 87.7 149.1, 88.6 148.0 Q 89.6 146.8, 89.6 144.6 Q 89.6 142.4, 88.6 141.2 Q 87.7 140.1, 86.0 140.1 Q 84.3 140.1, 83.3 141.2 Q 82.4 142.3, 82.4 144.6 Q 82.4 146.8, 83.3 148.0 Q 84.3 149.1, 86.0 149.1 " fill="#FF0000"/>
<path class="atom-20" d="M 196.6 55.3 Q 196.6 52.6, 197.9 51.1 Q 199.2 49.6, 201.7 49.6 Q 204.2 49.6, 205.5 51.1 Q 206.9 52.6, 206.9 55.3 Q 206.9 58.1, 205.5 59.6 Q 204.2 61.2, 201.7 61.2 Q 199.2 61.2, 197.9 59.6 Q 196.6 58.1, 196.6 55.3 M 201.7 59.9 Q 203.4 59.9, 204.3 58.7 Q 205.3 57.6, 205.3 55.3 Q 205.3 53.1, 204.3 52.0 Q 203.4 50.9, 201.7 50.9 Q 200.0 50.9, 199.1 52.0 Q 198.1 53.1, 198.1 55.3 Q 198.1 57.6, 199.1 58.7 Q 200.0 59.9, 201.7 59.9 " fill="#FF0000"/>
<path class="atom-20" d="M 208.6 49.7 L 210.1 49.7 L 210.1 54.5 L 215.9 54.5 L 215.9 49.7 L 217.4 49.7 L 217.4 61.0 L 215.9 61.0 L 215.9 55.8 L 210.1 55.8 L 210.1 61.0 L 208.6 61.0 L 208.6 49.7 " fill="#FF0000"/>
<path class="atom-21" d="M 126.8 25.6 L 128.4 25.6 L 128.4 30.4 L 134.1 30.4 L 134.1 25.6 L 135.6 25.6 L 135.6 36.9 L 134.1 36.9 L 134.1 31.7 L 128.4 31.7 L 128.4 36.9 L 126.8 36.9 L 126.8 25.6 " fill="#FF0000"/>
<path class="atom-21" d="M 137.9 31.2 Q 137.9 28.5, 139.3 27.0 Q 140.6 25.5, 143.1 25.5 Q 145.6 25.5, 146.9 27.0 Q 148.3 28.5, 148.3 31.2 Q 148.3 33.9, 146.9 35.5 Q 145.6 37.0, 143.1 37.0 Q 140.6 37.0, 139.3 35.5 Q 137.9 34.0, 137.9 31.2 M 143.1 35.8 Q 144.8 35.8, 145.7 34.6 Q 146.7 33.5, 146.7 31.2 Q 146.7 29.0, 145.7 27.9 Q 144.8 26.8, 143.1 26.8 Q 141.4 26.8, 140.4 27.9 Q 139.5 29.0, 139.5 31.2 Q 139.5 33.5, 140.4 34.6 Q 141.4 35.8, 143.1 35.8 " fill="#FF0000"/>
<path class="atom-23" d="M 128.8 144.0 Q 128.8 141.3, 130.1 139.8 Q 131.5 138.3, 133.9 138.3 Q 136.4 138.3, 137.8 139.8 Q 139.1 141.3, 139.1 144.0 Q 139.1 146.8, 137.8 148.3 Q 136.4 149.9, 133.9 149.9 Q 131.5 149.9, 130.1 148.3 Q 128.8 146.8, 128.8 144.0 M 133.9 148.6 Q 135.7 148.6, 136.6 147.4 Q 137.5 146.3, 137.5 144.0 Q 137.5 141.8, 136.6 140.7 Q 135.7 139.6, 133.9 139.6 Q 132.2 139.6, 131.3 140.7 Q 130.4 141.8, 130.4 144.0 Q 130.4 146.3, 131.3 147.4 Q 132.2 148.6, 133.9 148.6 " fill="#FF0000"/>
<path class="atom-24" d="M 59.6 163.9 L 61.1 163.9 L 61.1 168.6 L 66.9 168.6 L 66.9 163.9 L 68.4 163.9 L 68.4 175.1 L 66.9 175.1 L 66.9 169.9 L 61.1 169.9 L 61.1 175.1 L 59.6 175.1 L 59.6 163.9 " fill="#FF0000"/>
<path class="atom-24" d="M 70.7 169.4 Q 70.7 166.7, 72.0 165.2 Q 73.4 163.7, 75.9 163.7 Q 78.4 163.7, 79.7 165.2 Q 81.0 166.7, 81.0 169.4 Q 81.0 172.2, 79.7 173.7 Q 78.3 175.3, 75.9 175.3 Q 73.4 175.3, 72.0 173.7 Q 70.7 172.2, 70.7 169.4 M 75.9 174.0 Q 77.6 174.0, 78.5 172.9 Q 79.4 171.7, 79.4 169.4 Q 79.4 167.2, 78.5 166.1 Q 77.6 165.0, 75.9 165.0 Q 74.2 165.0, 73.2 166.1 Q 72.3 167.2, 72.3 169.4 Q 72.3 171.7, 73.2 172.9 Q 74.2 174.0, 75.9 174.0 " fill="#FF0000"/>
</g>
    <g transform="translate(615.0, 0) scale(1 1) "><line x1="15" y1="100" x2="25" y2="100" style="stroke:rgb(0,0,0);stroke-width:2"/>
  <line x1="20" y1="95" x2="20" y2="105" style="stroke:rgb(0,0,0);stroke-width:2"/>
</g>
    <g transform="translate(655.0, 0) scale(1 1) "><!-- END OF HEADER -->
<rect style="opacity:1.0;fill:#FFFFFF;stroke:none" width="215.0" height="200.0" x="0.0" y="0.0"> </rect>
<path class="bond-0 atom-0 atom-1" d="M 183.7,56.0 L 158.3,99.9" style="fill:none;fill-rule:evenodd;stroke:#000000;stroke-width:2.0px;stroke-linecap:butt;stroke-linejoin:miter;stroke-opacity:1"/>
<path class="bond-1 atom-1 atom-2" d="M 158.3,99.9 L 168.4,117.4" style="fill:none;fill-rule:evenodd;stroke:#000000;stroke-width:2.0px;stroke-linecap:butt;stroke-linejoin:miter;stroke-opacity:1"/>
<path class="bond-1 atom-1 atom-2" d="M 168.4,117.4 L 178.5,134.9" style="fill:none;fill-rule:evenodd;stroke:#FF0000;stroke-width:2.0px;stroke-linecap:butt;stroke-linejoin:miter;stroke-opacity:1"/>
<path class="bond-2 atom-1 atom-3" d="M 158.3,99.9 L 107.6,99.9" style="fill:none;fill-rule:evenodd;stroke:#000000;stroke-width:2.0px;stroke-linecap:butt;stroke-linejoin:miter;stroke-opacity:1"/>
<path class="bond-3 atom-3 atom-4" d="M 107.6,99.9 L 107.6,49.2" style="fill:none;fill-rule:evenodd;stroke:#000000;stroke-width:2.0px;stroke-linecap:butt;stroke-linejoin:miter;stroke-opacity:1"/>
<path class="bond-4 atom-3 atom-5" d="M 107.6,99.9 L 107.6,150.6" style="fill:none;fill-rule:evenodd;stroke:#000000;stroke-width:2.0px;stroke-linecap:butt;stroke-linejoin:miter;stroke-opacity:1"/>
<path class="bond-5 atom-3 atom-6" d="M 107.6,99.9 L 56.9,99.9" style="fill:none;fill-rule:evenodd;stroke:#000000;stroke-width:2.0px;stroke-linecap:butt;stroke-linejoin:miter;stroke-opacity:1"/>
<path class="bond-6 atom-6 atom-7" d="M 54.7,96.1 L 44.0,114.5" style="fill:none;fill-rule:evenodd;stroke:#000000;stroke-width:2.0px;stroke-linecap:butt;stroke-linejoin:miter;stroke-opacity:1"/>
<path class="bond-6 atom-6 atom-7" d="M 44.0,114.5 L 33.4,133.0" style="fill:none;fill-rule:evenodd;stroke:#FF0000;stroke-width:2.0px;stroke-linecap:butt;stroke-linejoin:miter;stroke-opacity:1"/>
<path class="bond-6 atom-6 atom-7" d="M 61.3,99.9 L 50.6,118.3" style="fill:none;fill-rule:evenodd;stroke:#000000;stroke-width:2.0px;stroke-linecap:butt;stroke-linejoin:miter;stroke-opacity:1"/>
<path class="bond-6 atom-6 atom-7" d="M 50.6,118.3 L 40.0,136.8" style="fill:none;fill-rule:evenodd;stroke:#FF0000;stroke-width:2.0px;stroke-linecap:butt;stroke-linejoin:miter;stroke-opacity:1"/>
<path class="bond-7 atom-6 atom-8" d="M 56.9,99.9 L 46.9,82.5" style="fill:none;fill-rule:evenodd;stroke:#000000;stroke-width:2.0px;stroke-linecap:butt;stroke-linejoin:miter;stroke-opacity:1"/>
<path class="bond-7 atom-6 atom-8" d="M 46.9,82.5 L 36.8,65.1" style="fill:none;fill-rule:evenodd;stroke:#FF0000;stroke-width:2.0px;stroke-linecap:butt;stroke-linejoin:miter;stroke-opacity:1"/>
<path d="M 59.4,99.9 L 56.9,99.9 L 56.4,99.0" style="fill:none;stroke:#000000;stroke-width:2.0px;stroke-linecap:butt;stroke-linejoin:miter;stroke-opacity:1;"/>
<path class="atom-2" d="M 177.1 143.9 Q 177.1 140.4, 178.8 138.5 Q 180.5 136.5, 183.7 136.5 Q 186.9 136.5, 188.6 138.5 Q 190.3 140.4, 190.3 143.9 Q 190.3 147.3, 188.6 149.3 Q 186.8 151.3, 183.7 151.3 Q 180.5 151.3, 178.8 149.3 Q 177.1 147.4, 177.1 143.9 M 183.7 149.7 Q 185.9 149.7, 187.0 148.2 Q 188.2 146.7, 188.2 143.9 Q 188.2 141.0, 187.0 139.6 Q 185.9 138.2, 183.7 138.2 Q 181.5 138.2, 180.3 139.6 Q 179.1 141.0, 179.1 143.9 Q 179.1 146.8, 180.3 148.2 Q 181.5 149.7, 183.7 149.7 " fill="#FF0000"/>
<path class="atom-2" d="M 192.5 136.7 L 194.5 136.7 L 194.5 142.8 L 201.8 142.8 L 201.8 136.7 L 203.7 136.7 L 203.7 151.1 L 201.8 151.1 L 201.8 144.4 L 194.5 144.4 L 194.5 151.1 L 192.5 151.1 L 192.5 136.7 " fill="#FF0000"/>
<path class="atom-7" d="M 24.9 143.9 Q 24.9 140.4, 26.6 138.5 Q 28.3 136.5, 31.5 136.5 Q 34.7 136.5, 36.4 138.5 Q 38.1 140.4, 38.1 143.9 Q 38.1 147.3, 36.4 149.3 Q 34.7 151.3, 31.5 151.3 Q 28.4 151.3, 26.6 149.3 Q 24.9 147.4, 24.9 143.9 M 31.5 149.7 Q 33.7 149.7, 34.9 148.2 Q 36.1 146.7, 36.1 143.9 Q 36.1 141.0, 34.9 139.6 Q 33.7 138.2, 31.5 138.2 Q 29.3 138.2, 28.1 139.6 Q 27.0 141.0, 27.0 143.9 Q 27.0 146.8, 28.1 148.2 Q 29.3 149.7, 31.5 149.7 " fill="#FF0000"/>
<path class="atom-8" d="M 10.7 48.9 L 12.7 48.9 L 12.7 55.0 L 20.0 55.0 L 20.0 48.9 L 22.0 48.9 L 22.0 63.2 L 20.0 63.2 L 20.0 56.6 L 12.7 56.6 L 12.7 63.2 L 10.7 63.2 L 10.7 48.9 " fill="#FF0000"/>
<path class="atom-8" d="M 24.9 56.0 Q 24.9 52.6, 26.6 50.6 Q 28.3 48.7, 31.5 48.7 Q 34.7 48.7, 36.4 50.6 Q 38.1 52.6, 38.1 56.0 Q 38.1 59.5, 36.4 61.5 Q 34.7 63.5, 31.5 63.5 Q 28.4 63.5, 26.6 61.5 Q 24.9 59.5, 24.9 56.0 M 31.5 61.8 Q 33.7 61.8, 34.9 60.4 Q 36.1 58.9, 36.1 56.0 Q 36.1 53.2, 34.9 51.8 Q 33.7 50.3, 31.5 50.3 Q 29.3 50.3, 28.1 51.7 Q 27.0 53.2, 27.0 56.0 Q 27.0 58.9, 28.1 60.4 Q 29.3 61.8, 31.5 61.8 " fill="#FF0000"/>
</g>
  </g>
</svg>
