<?xml version='1.0' encoding='ASCII' standalone='yes'?>
<svg xmlns="http://www.w3.org/2000/svg" xmlns:xlink="http://www.w3.org/1999/xlink" version="1.1" width="670.0px" viewBox="0 0 670.0 200.0" height="200.0px">
  <g>
    <g transform="translate(0, 0) scale(1 1) "><!-- END OF HEADER -->
<rect style="opacity:1.0;fill:#FFFFFF;stroke:none" width="254.0" height="200.0" x="0.0" y="0.0"> </rect>
<path class="bond-0 atom-0 atom-1" d="M 177.2,32.5 L 166.8,72.2" style="fill:none;fill-rule:evenodd;stroke:#000000;stroke-width:2.0px;stroke-linecap:butt;stroke-linejoin:miter;stroke-opacity:1"/>
<path class="bond-1 atom-1 atom-2" d="M 166.8,72.2 L 156.4,111.9" style="fill:none;fill-rule:evenodd;stroke:#000000;stroke-width:2.0px;stroke-linecap:butt;stroke-linejoin:miter;stroke-opacity:1"/>
<path class="bond-2 atom-1 atom-3" d="M 166.8,72.2 L 127.1,61.8" style="fill:none;fill-rule:evenodd;stroke:#000000;stroke-width:2.0px;stroke-linecap:butt;stroke-linejoin:miter;stroke-opacity:1"/>
<path class="bond-3 atom-3 atom-4" d="M 127.1,61.8 L 98.2,90.9" style="fill:none;fill-rule:evenodd;stroke:#000000;stroke-width:2.0px;stroke-linecap:butt;stroke-linejoin:miter;stroke-opacity:1"/>
<path class="bond-4 atom-4 atom-5" d="M 98.2,90.9 L 69.4,120.1" style="fill:none;fill-rule:evenodd;stroke:#000000;stroke-width:2.0px;stroke-linecap:butt;stroke-linejoin:miter;stroke-opacity:1"/>
<path class="bond-5 atom-4 atom-6" d="M 98.2,90.9 L 127.4,119.8" style="fill:none;fill-rule:evenodd;stroke:#000000;stroke-width:2.0px;stroke-linecap:butt;stroke-linejoin:miter;stroke-opacity:1"/>
<path class="bond-6 atom-6 atom-7" d="M 127.4,119.8 L 123.1,136.0" style="fill:none;fill-rule:evenodd;stroke:#000000;stroke-width:2.0px;stroke-linecap:butt;stroke-linejoin:miter;stroke-opacity:1"/>
<path class="bond-6 atom-6 atom-7" d="M 123.1,136.0 L 118.9,152.2" style="fill:none;fill-rule:evenodd;stroke:#FF0000;stroke-width:2.0px;stroke-linecap:butt;stroke-linejoin:miter;stroke-opacity:1"/>
<path class="bond-7 atom-4 atom-8" d="M 98.2,90.9 L 69.1,62.0" style="fill:none;fill-rule:evenodd;stroke:#000000;stroke-width:2.0px;stroke-linecap:butt;stroke-linejoin:miter;stroke-opacity:1"/>
<path class="bond-8 atom-8 atom-9" d="M 71.6,64.5 L 76.1,47.5" style="fill:none;fill-rule:evenodd;stroke:#000000;stroke-width:2.0px;stroke-linecap:butt;stroke-linejoin:miter;stroke-opacity:1"/>
<path class="bond-8 atom-8 atom-9" d="M 76.1,47.5 L 80.6,30.5" style="fill:none;fill-rule:evenodd;stroke:#FF0000;stroke-width:2.0px;stroke-linecap:butt;stroke-linejoin:miter;stroke-opacity:1"/>
<path class="bond-8 atom-8 atom-9" d="M 65.7,63.0 L 70.1,46.0" style="fill:none;fill-rule:evenodd;stroke:#000000;stroke-width:2.0px;stroke-linecap:butt;stroke-linejoin:miter;stroke-opacity:1"/>
<path class="bond-8 atom-8 atom-9" d="M 70.1,46.0 L 74.6,29.0" style="fill:none;fill-rule:evenodd;stroke:#FF0000;stroke-width:2.0px;stroke-linecap:butt;stroke-linejoin:miter;stroke-opacity:1"/>
<path class="bond-9 atom-8 atom-10" d="M 69.1,62.0 L 52.6,66.5" style="fill:none;fill-rule:evenodd;stroke:#000000;stroke-width:2.0px;stroke-linecap:butt;stroke-linejoin:miter;stroke-opacity:1"/>
<path class="bond-9 atom-8 atom-10" d="M 52.6,66.5 L 36.2,71.0" style="fill:none;fill-rule:evenodd;stroke:#FF0000;stroke-width:2.0px;stroke-linecap:butt;stroke-linejoin:miter;stroke-opacity:1"/>
<path class="bond-10 atom-1 atom-11" d="M 166.8,72.2 L 206.5,82.6" style="fill:none;fill-rule:evenodd;stroke:#000000;stroke-width:2.0px;stroke-linecap:butt;stroke-linejoin:miter;stroke-opacity:1"/>
<path class="bond-11 atom-11 atom-12" d="M 207.4,86.0 L 219.1,74.2" style="fill:none;fill-rule:evenodd;stroke:#000000;stroke-width:2.0px;stroke-linecap:butt;stroke-linejoin:miter;stroke-opacity:1"/>
<path class="bond-11 atom-11 atom-12" d="M 219.1,74.2 L 230.9,62.4" style="fill:none;fill-rule:evenodd;stroke:#FF0000;stroke-width:2.0px;stroke-linecap:butt;stroke-linejoin:miter;stroke-opacity:1"/>
<path class="bond-11 atom-11 atom-12" d="M 203.1,81.7 L 214.8,69.9" style="fill:none;fill-rule:evenodd;stroke:#000000;stroke-width:2.0px;stroke-linecap:butt;stroke-linejoin:miter;stroke-opacity:1"/>
<path class="bond-11 atom-11 atom-12" d="M 214.8,69.9 L 226.5,58.1" style="fill:none;fill-rule:evenodd;stroke:#FF0000;stroke-width:2.0px;stroke-linecap:butt;stroke-linejoin:miter;stroke-opacity:1"/>
<path class="bond-12 atom-11 atom-13" d="M 206.5,82.6 L 210.9,98.8" style="fill:none;fill-rule:evenodd;stroke:#000000;stroke-width:2.0px;stroke-linecap:butt;stroke-linejoin:miter;stroke-opacity:1"/>
<path class="bond-12 atom-11 atom-13" d="M 210.9,98.8 L 215.3,115.0" style="fill:none;fill-rule:evenodd;stroke:#FF0000;stroke-width:2.0px;stroke-linecap:butt;stroke-linejoin:miter;stroke-opacity:1"/>
<path d="M 129.1,62.3 L 127.1,61.8 L 125.7,63.2" style="fill:none;stroke:#000000;stroke-width:2.0px;stroke-linecap:butt;stroke-linejoin:miter;stroke-opacity:1;"/>
<path d="M 125.9,118.3 L 127.4,119.8 L 127.2,120.6" style="fill:none;stroke:#000000;stroke-width:2.0px;stroke-linecap:butt;stroke-linejoin:miter;stroke-opacity:1;"/>
<path d="M 70.6,63.5 L 69.1,62.0 L 68.3,62.3" style="fill:none;stroke:#000000;stroke-width:2.0px;stroke-linecap:butt;stroke-linejoin:miter;stroke-opacity:1;"/>
<path d="M 204.5,82.1 L 206.5,82.6 L 206.7,83.4" style="fill:none;stroke:#000000;stroke-width:2.0px;stroke-linecap:butt;stroke-linejoin:miter;stroke-opacity:1;"/>
<path class="atom-7" d="M 111.6 159.5 Q 111.6 156.7, 113.0 155.2 Q 114.4 153.6, 117.0 153.6 Q 119.5 153.6, 120.9 155.2 Q 122.3 156.7, 122.3 159.5 Q 122.3 162.3, 120.9 163.9 Q 119.5 165.5, 117.0 165.5 Q 114.4 165.5, 113.0 163.9 Q 111.6 162.3, 111.6 159.5 M 117.0 164.2 Q 118.7 164.2, 119.7 163.0 Q 120.7 161.8, 120.7 159.5 Q 120.7 157.2, 119.7 156.1 Q 118.7 154.9, 117.0 154.9 Q 115.2 154.9, 114.2 156.1 Q 113.3 157.2, 113.3 159.5 Q 113.3 161.8, 114.2 163.0 Q 115.2 164.2, 117.0 164.2 " fill="#FF0000"/>
<path class="atom-7" d="M 124.1 153.7 L 125.7 153.7 L 125.7 158.7 L 131.6 158.7 L 131.6 153.7 L 133.2 153.7 L 133.2 165.3 L 131.6 165.3 L 131.6 160.0 L 125.7 160.0 L 125.7 165.3 L 124.1 165.3 L 124.1 153.7 " fill="#FF0000"/>
<path class="atom-9" d="M 74.2 22.4 Q 74.2 19.6, 75.6 18.0 Q 76.9 16.5, 79.5 16.5 Q 82.1 16.5, 83.5 18.0 Q 84.9 19.6, 84.9 22.4 Q 84.9 25.2, 83.5 26.8 Q 82.1 28.4, 79.5 28.4 Q 77.0 28.4, 75.6 26.8 Q 74.2 25.2, 74.2 22.4 M 79.5 27.1 Q 81.3 27.1, 82.2 25.9 Q 83.2 24.7, 83.2 22.4 Q 83.2 20.1, 82.2 19.0 Q 81.3 17.8, 79.5 17.8 Q 77.8 17.8, 76.8 18.9 Q 75.8 20.1, 75.8 22.4 Q 75.8 24.7, 76.8 25.9 Q 77.8 27.1, 79.5 27.1 " fill="#FF0000"/>
<path class="atom-10" d="M 12.7 67.1 L 14.3 67.1 L 14.3 72.0 L 20.2 72.0 L 20.2 67.1 L 21.8 67.1 L 21.8 78.7 L 20.2 78.7 L 20.2 73.4 L 14.3 73.4 L 14.3 78.7 L 12.7 78.7 L 12.7 67.1 " fill="#FF0000"/>
<path class="atom-10" d="M 24.2 72.9 Q 24.2 70.1, 25.6 68.5 Q 26.9 67.0, 29.5 67.0 Q 32.1 67.0, 33.5 68.5 Q 34.8 70.1, 34.8 72.9 Q 34.8 75.7, 33.4 77.3 Q 32.1 78.9, 29.5 78.9 Q 26.9 78.9, 25.6 77.3 Q 24.2 75.7, 24.2 72.9 M 29.5 77.6 Q 31.3 77.6, 32.2 76.4 Q 33.2 75.2, 33.2 72.9 Q 33.2 70.6, 32.2 69.4 Q 31.3 68.3, 29.5 68.3 Q 27.7 68.3, 26.8 69.4 Q 25.8 70.6, 25.8 72.9 Q 25.8 75.2, 26.8 76.4 Q 27.7 77.6, 29.5 77.6 " fill="#FF0000"/>
<path class="atom-12" d="M 230.0 53.5 Q 230.0 50.7, 231.4 49.2 Q 232.8 47.6, 235.4 47.6 Q 237.9 47.6, 239.3 49.2 Q 240.7 50.7, 240.7 53.5 Q 240.7 56.3, 239.3 57.9 Q 237.9 59.5, 235.4 59.5 Q 232.8 59.5, 231.4 57.9 Q 230.0 56.3, 230.0 53.5 M 235.4 58.2 Q 237.1 58.2, 238.1 57.0 Q 239.1 55.8, 239.1 53.5 Q 239.1 51.2, 238.1 50.1 Q 237.1 48.9, 235.4 48.9 Q 233.6 48.9, 232.6 50.1 Q 231.7 51.2, 231.7 53.5 Q 231.7 55.8, 232.6 57.0 Q 233.6 58.2, 235.4 58.2 " fill="#FF0000"/>
<path class="atom-13" d="M 212.0 122.2 Q 212.0 119.4, 213.3 117.9 Q 214.7 116.3, 217.3 116.3 Q 219.9 116.3, 221.3 117.9 Q 222.6 119.4, 222.6 122.2 Q 222.6 125.1, 221.2 126.7 Q 219.8 128.3, 217.3 128.3 Q 214.7 128.3, 213.3 126.7 Q 212.0 125.1, 212.0 122.2 M 217.3 126.9 Q 219.1 126.9, 220.0 125.8 Q 221.0 124.6, 221.0 122.2 Q 221.0 120.0, 220.0 118.8 Q 219.1 117.6, 217.3 117.6 Q 215.5 117.6, 214.6 118.8 Q 213.6 119.9, 213.6 122.2 Q 213.6 124.6, 214.6 125.8 Q 215.5 126.9, 217.3 126.9 " fill="#FF0000"/>
<path class="atom-13" d="M 224.4 116.5 L 226.0 116.5 L 226.0 121.4 L 232.0 121.4 L 232.0 116.5 L 233.5 116.5 L 233.5 128.1 L 232.0 128.1 L 232.0 122.7 L 226.0 122.7 L 226.0 128.1 L 224.4 128.1 L 224.4 116.5 " fill="#FF0000"/>
<path class="legend" d="M 118.2 181.9 Q 118.2 179.6, 118.9 177.7 Q 119.5 175.8, 120.8 173.8 L 121.7 174.4 Q 120.7 176.3, 120.1 178.0 Q 119.6 179.7, 119.6 181.9 Q 119.6 184.0, 120.1 185.8 Q 120.7 187.5, 121.7 189.4 L 120.8 190.0 Q 119.5 188.0, 118.9 186.1 Q 118.2 184.2, 118.2 181.9 " fill="#000000"/>
<path class="legend" d="M 122.6 177.3 Q 123.1 176.2, 124.0 175.6 Q 125.0 175.0, 126.4 175.0 Q 128.1 175.0, 129.1 175.9 Q 130.0 176.8, 130.0 178.5 Q 130.0 180.2, 128.8 181.7 Q 127.6 183.3, 125.0 185.2 L 130.2 185.2 L 130.2 186.4 L 122.6 186.4 L 122.6 185.4 Q 124.7 183.9, 126.0 182.8 Q 127.2 181.6, 127.8 180.6 Q 128.4 179.6, 128.4 178.6 Q 128.4 177.5, 127.9 176.9 Q 127.4 176.3, 126.4 176.3 Q 125.5 176.3, 124.9 176.6 Q 124.3 177.0, 123.9 177.8 L 122.6 177.3 " fill="#000000"/>
<path class="legend" d="M 135.2 181.9 Q 135.2 184.2, 134.5 186.1 Q 133.9 188.0, 132.6 190.0 L 131.7 189.4 Q 132.7 187.5, 133.2 185.8 Q 133.8 184.0, 133.8 181.9 Q 133.8 179.7, 133.2 178.0 Q 132.7 176.3, 131.7 174.4 L 132.6 173.8 Q 133.9 175.8, 134.5 177.7 Q 135.2 179.6, 135.2 181.9 " fill="#000000"/>
</g>
    <g transform="translate(254.00000000000003, 0) scale(1 1) "><line x1="5" y1="100" x2="35" y2="100" style="stroke:rgb(0,0,0);stroke-width:2"/>
  <line x1="34" y1="100" x2="29" y2="95" style="stroke:rgb(0,0,0);stroke-width:2"/>
  <line x1="34" y1="100" x2="29" y2="105" style="stroke:rgb(0,0,0);stroke-width:2"/>
</g>
    <g transform="translate(294.0, 0) scale(1 1) "><!-- END OF HEADER -->
<rect style="opacity:1.0;fill:#FFFFFF;stroke:none" width="25.0" height="200.0" x="0.0" y="0.0"> </rect>
<path class="atom-0" d="M 1.2 97.7 Q 1.2 95.5, 2.3 94.3 Q 3.4 93.1, 5.4 93.1 Q 7.3 93.1, 8.3 94.4 L 7.5 95.1 Q 6.7 94.1, 5.4 94.1 Q 4.0 94.1, 3.3 95.1 Q 2.6 96.0, 2.6 97.7 Q 2.6 99.6, 3.3 100.5 Q 4.1 101.4, 5.6 101.4 Q 6.6 101.4, 7.8 100.8 L 8.1 101.8 Q 7.7 102.1, 6.9 102.3 Q 6.2 102.5, 5.4 102.5 Q 3.4 102.5, 2.3 101.2 Q 1.2 100.0, 1.2 97.7 " fill="#000000"/>
<path class="atom-0" d="M 9.6 93.2 L 10.8 93.2 L 10.8 97.1 L 15.5 97.1 L 15.5 93.2 L 16.8 93.2 L 16.8 102.4 L 15.5 102.4 L 15.5 98.1 L 10.8 98.1 L 10.8 102.4 L 9.6 102.4 L 9.6 93.2 " fill="#000000"/>
<path class="atom-0" d="M 22.5 104.9 L 23.2 104.9 L 23.2 105.5 L 22.5 105.5 L 22.5 106.9 L 21.7 106.9 L 21.7 105.5 L 18.6 105.5 L 18.6 105.0 L 21.2 100.9 L 22.5 100.9 L 22.5 104.9 M 19.6 104.9 L 21.7 104.9 L 21.7 101.4 L 19.6 104.9 " fill="#000000"/>
</g>
    <g transform="translate(319.0, 0) scale(1 1) "><line x1="15" y1="100" x2="25" y2="100" style="stroke:rgb(0,0,0);stroke-width:2"/>
  <line x1="20" y1="95" x2="20" y2="105" style="stroke:rgb(0,0,0);stroke-width:2"/>
</g>
    <g transform="translate(359.0, 0) scale(1 1) "><!-- END OF HEADER -->
<rect style="opacity:1.0;fill:#FFFFFF;stroke:none" width="311.0" height="200.0" x="0.0" y="0.0"> </rect>
<path class="bond-0 atom-0 atom-1" d="M 22.0,134.0 L 60.0,129.7" style="fill:none;fill-rule:evenodd;stroke:#000000;stroke-width:2.0px;stroke-linecap:butt;stroke-linejoin:miter;stroke-opacity:1"/>
<path class="bond-1 atom-1 atom-2" d="M 60.0,129.7 L 64.3,167.7" style="fill:none;fill-rule:evenodd;stroke:#000000;stroke-width:2.0px;stroke-linecap:butt;stroke-linejoin:miter;stroke-opacity:1"/>
<path class="bond-2 atom-2 atom-3" d="M 64.3,167.7 L 78.8,174.0" style="fill:none;fill-rule:evenodd;stroke:#000000;stroke-width:2.0px;stroke-linecap:butt;stroke-linejoin:miter;stroke-opacity:1"/>
<path class="bond-2 atom-2 atom-3" d="M 78.8,174.0 L 93.2,180.3" style="fill:none;fill-rule:evenodd;stroke:#FF0000;stroke-width:2.0px;stroke-linecap:butt;stroke-linejoin:miter;stroke-opacity:1"/>
<path class="bond-3 atom-1 atom-4" d="M 60.0,129.7 L 98.0,125.4" style="fill:none;fill-rule:evenodd;stroke:#000000;stroke-width:2.0px;stroke-linecap:butt;stroke-linejoin:miter;stroke-opacity:1"/>
<path class="bond-4 atom-4 atom-5" d="M 98.0,125.4 L 113.3,90.2" style="fill:none;fill-rule:evenodd;stroke:#000000;stroke-width:2.0px;stroke-linecap:butt;stroke-linejoin:miter;stroke-opacity:1"/>
<path class="bond-5 atom-5 atom-6" d="M 113.3,90.2 L 80.3,70.8" style="fill:none;fill-rule:evenodd;stroke:#000000;stroke-width:2.0px;stroke-linecap:butt;stroke-linejoin:miter;stroke-opacity:1"/>
<path class="bond-6 atom-5 atom-7" d="M 113.3,90.2 L 148.4,105.5" style="fill:none;fill-rule:evenodd;stroke:#000000;stroke-width:2.0px;stroke-linecap:butt;stroke-linejoin:miter;stroke-opacity:1"/>
<path class="bond-7 atom-7 atom-8" d="M 148.4,105.5 L 179.1,82.7" style="fill:none;fill-rule:evenodd;stroke:#000000;stroke-width:2.0px;stroke-linecap:butt;stroke-linejoin:miter;stroke-opacity:1"/>
<path class="bond-8 atom-8 atom-9" d="M 179.1,82.7 L 209.9,59.9" style="fill:none;fill-rule:evenodd;stroke:#000000;stroke-width:2.0px;stroke-linecap:butt;stroke-linejoin:miter;stroke-opacity:1"/>
<path class="bond-9 atom-8 atom-10" d="M 179.1,82.7 L 201.9,113.5" style="fill:none;fill-rule:evenodd;stroke:#000000;stroke-width:2.0px;stroke-linecap:butt;stroke-linejoin:miter;stroke-opacity:1"/>
<path class="bond-10 atom-10 atom-11" d="M 201.9,113.5 L 239.9,109.1" style="fill:none;fill-rule:evenodd;stroke:#000000;stroke-width:2.0px;stroke-linecap:butt;stroke-linejoin:miter;stroke-opacity:1"/>
<path class="bond-11 atom-11 atom-12" d="M 239.9,109.1 L 278.0,104.8" style="fill:none;fill-rule:evenodd;stroke:#000000;stroke-width:2.0px;stroke-linecap:butt;stroke-linejoin:miter;stroke-opacity:1"/>
<path class="bond-12 atom-11 atom-13" d="M 239.9,109.1 L 235.6,71.1" style="fill:none;fill-rule:evenodd;stroke:#000000;stroke-width:2.0px;stroke-linecap:butt;stroke-linejoin:miter;stroke-opacity:1"/>
<path class="bond-13 atom-13 atom-14" d="M 235.6,71.1 L 247.9,62.0" style="fill:none;fill-rule:evenodd;stroke:#000000;stroke-width:2.0px;stroke-linecap:butt;stroke-linejoin:miter;stroke-opacity:1"/>
<path class="bond-13 atom-13 atom-14" d="M 247.9,62.0 L 260.1,52.9" style="fill:none;fill-rule:evenodd;stroke:#FF0000;stroke-width:2.0px;stroke-linecap:butt;stroke-linejoin:miter;stroke-opacity:1"/>
<path class="bond-14 atom-11 atom-15" d="M 239.9,109.1 L 244.3,147.2" style="fill:none;fill-rule:evenodd;stroke:#000000;stroke-width:2.0px;stroke-linecap:butt;stroke-linejoin:miter;stroke-opacity:1"/>
<path class="bond-15 atom-15 atom-16" d="M 243.9,143.9 L 231.0,153.5" style="fill:none;fill-rule:evenodd;stroke:#000000;stroke-width:2.0px;stroke-linecap:butt;stroke-linejoin:miter;stroke-opacity:1"/>
<path class="bond-15 atom-15 atom-16" d="M 231.0,153.5 L 218.1,163.1" style="fill:none;fill-rule:evenodd;stroke:#FF0000;stroke-width:2.0px;stroke-linecap:butt;stroke-linejoin:miter;stroke-opacity:1"/>
<path class="bond-15 atom-15 atom-16" d="M 247.3,148.5 L 234.4,158.0" style="fill:none;fill-rule:evenodd;stroke:#000000;stroke-width:2.0px;stroke-linecap:butt;stroke-linejoin:miter;stroke-opacity:1"/>
<path class="bond-15 atom-15 atom-16" d="M 234.4,158.0 L 221.4,167.6" style="fill:none;fill-rule:evenodd;stroke:#FF0000;stroke-width:2.0px;stroke-linecap:butt;stroke-linejoin:miter;stroke-opacity:1"/>
<path class="bond-16 atom-15 atom-17" d="M 244.3,147.2 L 258.7,153.4" style="fill:none;fill-rule:evenodd;stroke:#000000;stroke-width:2.0px;stroke-linecap:butt;stroke-linejoin:miter;stroke-opacity:1"/>
<path class="bond-16 atom-15 atom-17" d="M 258.7,153.4 L 273.2,159.7" style="fill:none;fill-rule:evenodd;stroke:#FF0000;stroke-width:2.0px;stroke-linecap:butt;stroke-linejoin:miter;stroke-opacity:1"/>
<path class="bond-17 atom-8 atom-18" d="M 179.1,82.7 L 156.4,52.0" style="fill:none;fill-rule:evenodd;stroke:#000000;stroke-width:2.0px;stroke-linecap:butt;stroke-linejoin:miter;stroke-opacity:1"/>
<path class="bond-18 atom-18 atom-19" d="M 157.5,49.3 L 150.1,48.3" style="fill:none;fill-rule:evenodd;stroke:#000000;stroke-width:2.0px;stroke-linecap:butt;stroke-linejoin:miter;stroke-opacity:1"/>
<path class="bond-18 atom-18 atom-19" d="M 150.1,48.3 L 142.8,47.3" style="fill:none;fill-rule:evenodd;stroke:#FF0000;stroke-width:2.0px;stroke-linecap:butt;stroke-linejoin:miter;stroke-opacity:1"/>
<path class="bond-18 atom-18 atom-19" d="M 158.7,55.1 L 149.4,53.9" style="fill:none;fill-rule:evenodd;stroke:#000000;stroke-width:2.0px;stroke-linecap:butt;stroke-linejoin:miter;stroke-opacity:1"/>
<path class="bond-18 atom-18 atom-19" d="M 149.4,53.9 L 142.0,52.9" style="fill:none;fill-rule:evenodd;stroke:#FF0000;stroke-width:2.0px;stroke-linecap:butt;stroke-linejoin:miter;stroke-opacity:1"/>
<path class="bond-19 atom-18 atom-20" d="M 156.4,52.0 L 162.5,37.8" style="fill:none;fill-rule:evenodd;stroke:#000000;stroke-width:2.0px;stroke-linecap:butt;stroke-linejoin:miter;stroke-opacity:1"/>
<path class="bond-19 atom-18 atom-20" d="M 162.5,37.8 L 168.6,23.7" style="fill:none;fill-rule:evenodd;stroke:#FF0000;stroke-width:2.0px;stroke-linecap:butt;stroke-linejoin:miter;stroke-opacity:1"/>
<path class="bond-20 atom-5 atom-21" d="M 113.3,90.2 L 128.5,55.1" style="fill:none;fill-rule:evenodd;stroke:#000000;stroke-width:2.0px;stroke-linecap:butt;stroke-linejoin:miter;stroke-opacity:1"/>
<path class="bond-21 atom-21 atom-22" d="M 127.0,58.7 L 143.0,52.7" style="fill:none;fill-rule:evenodd;stroke:#000000;stroke-width:2.0px;stroke-linecap:butt;stroke-linejoin:miter;stroke-opacity:1"/>
<path class="bond-21 atom-21 atom-22" d="M 143.0,52.7 L 159.1,46.7" style="fill:none;fill-rule:evenodd;stroke:#FF0000;stroke-width:2.0px;stroke-linecap:butt;stroke-linejoin:miter;stroke-opacity:1"/>
<path class="bond-21 atom-21 atom-22" d="M 126.8,52.8 L 141.1,47.4" style="fill:none;fill-rule:evenodd;stroke:#000000;stroke-width:2.0px;stroke-linecap:butt;stroke-linejoin:miter;stroke-opacity:1"/>
<path class="bond-21 atom-21 atom-22" d="M 141.1,47.4 L 157.2,41.4" style="fill:none;fill-rule:evenodd;stroke:#FF0000;stroke-width:2.0px;stroke-linecap:butt;stroke-linejoin:miter;stroke-opacity:1"/>
<path class="bond-22 atom-21 atom-23" d="M 128.5,55.1 L 119.7,43.2" style="fill:none;fill-rule:evenodd;stroke:#000000;stroke-width:2.0px;stroke-linecap:butt;stroke-linejoin:miter;stroke-opacity:1"/>
<path class="bond-22 atom-21 atom-23" d="M 119.7,43.2 L 110.8,31.3" style="fill:none;fill-rule:evenodd;stroke:#FF0000;stroke-width:2.0px;stroke-linecap:butt;stroke-linejoin:miter;stroke-opacity:1"/>
<path class="bond-23 atom-1 atom-24" d="M 60.0,129.7 L 55.6,91.7" style="fill:none;fill-rule:evenodd;stroke:#000000;stroke-width:2.0px;stroke-linecap:butt;stroke-linejoin:miter;stroke-opacity:1"/>
<path class="bond-24 atom-24 atom-25" d="M 57.9,89.6 L 42.9,83.0" style="fill:none;fill-rule:evenodd;stroke:#000000;stroke-width:2.0px;stroke-linecap:butt;stroke-linejoin:miter;stroke-opacity:1"/>
<path class="bond-24 atom-24 atom-25" d="M 42.9,83.0 L 27.9,76.5" style="fill:none;fill-rule:evenodd;stroke:#FF0000;stroke-width:2.0px;stroke-linecap:butt;stroke-linejoin:miter;stroke-opacity:1"/>
<path class="bond-24 atom-24 atom-25" d="M 56.0,94.9 L 40.6,88.2" style="fill:none;fill-rule:evenodd;stroke:#000000;stroke-width:2.0px;stroke-linecap:butt;stroke-linejoin:miter;stroke-opacity:1"/>
<path class="bond-24 atom-24 atom-25" d="M 40.6,88.2 L 25.6,81.7" style="fill:none;fill-rule:evenodd;stroke:#FF0000;stroke-width:2.0px;stroke-linecap:butt;stroke-linejoin:miter;stroke-opacity:1"/>
<path class="bond-25 atom-24 atom-26" d="M 55.6,91.7 L 66.4,81.4" style="fill:none;fill-rule:evenodd;stroke:#000000;stroke-width:2.0px;stroke-linecap:butt;stroke-linejoin:miter;stroke-opacity:1"/>
<path class="bond-25 atom-24 atom-26" d="M 66.4,81.4 L 77.2,71.2" style="fill:none;fill-rule:evenodd;stroke:#FF0000;stroke-width:2.0px;stroke-linecap:butt;stroke-linejoin:miter;stroke-opacity:1"/>
<path d="M 64.1,165.8 L 64.3,167.7 L 65.1,168.0" style="fill:none;stroke:#000000;stroke-width:2.0px;stroke-linecap:butt;stroke-linejoin:miter;stroke-opacity:1;"/>
<path d="M 96.1,125.6 L 98.0,125.4 L 98.8,123.6" style="fill:none;stroke:#000000;stroke-width:2.0px;stroke-linecap:butt;stroke-linejoin:miter;stroke-opacity:1;"/>
<path d="M 146.6,104.7 L 148.4,105.5 L 149.9,104.4" style="fill:none;stroke:#000000;stroke-width:2.0px;stroke-linecap:butt;stroke-linejoin:miter;stroke-opacity:1;"/>
<path d="M 200.8,111.9 L 201.9,113.5 L 203.8,113.3" style="fill:none;stroke:#000000;stroke-width:2.0px;stroke-linecap:butt;stroke-linejoin:miter;stroke-opacity:1;"/>
<path d="M 235.8,73.0 L 235.6,71.1 L 236.2,70.6" style="fill:none;stroke:#000000;stroke-width:2.0px;stroke-linecap:butt;stroke-linejoin:miter;stroke-opacity:1;"/>
<path d="M 244.1,145.3 L 244.3,147.2 L 245.0,147.5" style="fill:none;stroke:#000000;stroke-width:2.0px;stroke-linecap:butt;stroke-linejoin:miter;stroke-opacity:1;"/>
<path d="M 157.5,53.5 L 156.4,52.0 L 156.7,51.3" style="fill:none;stroke:#000000;stroke-width:2.0px;stroke-linecap:butt;stroke-linejoin:miter;stroke-opacity:1;"/>
<path d="M 127.8,56.9 L 128.5,55.1 L 128.1,54.5" style="fill:none;stroke:#000000;stroke-width:2.0px;stroke-linecap:butt;stroke-linejoin:miter;stroke-opacity:1;"/>
<path d="M 55.9,93.6 L 55.6,91.7 L 56.2,91.2" style="fill:none;stroke:#000000;stroke-width:2.0px;stroke-linecap:butt;stroke-linejoin:miter;stroke-opacity:1;"/>
<path class="atom-3" d="M 94.5 183.0 Q 94.5 180.4, 95.7 179.0 Q 97.0 177.5, 99.4 177.5 Q 101.8 177.5, 103.1 179.0 Q 104.4 180.4, 104.4 183.0 Q 104.4 185.6, 103.1 187.2 Q 101.8 188.6, 99.4 188.6 Q 97.0 188.6, 95.7 187.2 Q 94.5 185.7, 94.5 183.0 M 99.4 187.4 Q 101.1 187.4, 102.0 186.3 Q 102.9 185.2, 102.9 183.0 Q 102.9 180.9, 102.0 179.8 Q 101.1 178.7, 99.4 178.7 Q 97.8 178.7, 96.9 179.8 Q 96.0 180.9, 96.0 183.0 Q 96.0 185.2, 96.9 186.3 Q 97.8 187.4, 99.4 187.4 " fill="#FF0000"/>
<path class="atom-3" d="M 106.1 177.6 L 107.6 177.6 L 107.6 182.2 L 113.1 182.2 L 113.1 177.6 L 114.6 177.6 L 114.6 188.5 L 113.1 188.5 L 113.1 183.5 L 107.6 183.5 L 107.6 188.5 L 106.1 188.5 L 106.1 177.6 " fill="#FF0000"/>
<path class="atom-14" d="M 261.4 48.4 Q 261.4 45.8, 262.7 44.3 Q 264.0 42.8, 266.4 42.8 Q 268.8 42.8, 270.1 44.3 Q 271.3 45.8, 271.3 48.4 Q 271.3 51.0, 270.0 52.5 Q 268.7 54.0, 266.4 54.0 Q 264.0 54.0, 262.7 52.5 Q 261.4 51.0, 261.4 48.4 M 266.4 52.7 Q 268.0 52.7, 268.9 51.6 Q 269.8 50.5, 269.8 48.4 Q 269.8 46.2, 268.9 45.2 Q 268.0 44.1, 266.4 44.1 Q 264.7 44.1, 263.8 45.1 Q 262.9 46.2, 262.9 48.4 Q 262.9 50.5, 263.8 51.6 Q 264.7 52.7, 266.4 52.7 " fill="#FF0000"/>
<path class="atom-14" d="M 273.0 43.0 L 274.5 43.0 L 274.5 47.6 L 280.0 47.6 L 280.0 43.0 L 281.5 43.0 L 281.5 53.8 L 280.0 53.8 L 280.0 48.8 L 274.5 48.8 L 274.5 53.8 L 273.0 53.8 L 273.0 43.0 " fill="#FF0000"/>
<path class="atom-16" d="M 208.6 170.0 Q 208.6 167.4, 209.8 165.9 Q 211.1 164.5, 213.5 164.5 Q 215.9 164.5, 217.2 165.9 Q 218.5 167.4, 218.5 170.0 Q 218.5 172.6, 217.2 174.1 Q 215.9 175.6, 213.5 175.6 Q 211.1 175.6, 209.8 174.1 Q 208.6 172.6, 208.6 170.0 M 213.5 174.4 Q 215.2 174.4, 216.1 173.3 Q 217.0 172.2, 217.0 170.0 Q 217.0 167.8, 216.1 166.8 Q 215.2 165.7, 213.5 165.7 Q 211.9 165.7, 211.0 166.8 Q 210.1 167.8, 210.1 170.0 Q 210.1 172.2, 211.0 173.3 Q 211.9 174.4, 213.5 174.4 " fill="#FF0000"/>
<path class="atom-17" d="M 274.4 162.4 Q 274.4 159.8, 275.7 158.4 Q 277.0 156.9, 279.4 156.9 Q 281.8 156.9, 283.1 158.4 Q 284.4 159.8, 284.4 162.4 Q 284.4 165.1, 283.1 166.6 Q 281.8 168.1, 279.4 168.1 Q 277.0 168.1, 275.7 166.6 Q 274.4 165.1, 274.4 162.4 M 279.4 166.8 Q 281.1 166.8, 281.9 165.7 Q 282.8 164.6, 282.8 162.4 Q 282.8 160.3, 281.9 159.2 Q 281.1 158.2, 279.4 158.2 Q 277.8 158.2, 276.8 159.2 Q 276.0 160.3, 276.0 162.4 Q 276.0 164.6, 276.8 165.7 Q 277.8 166.8, 279.4 166.8 " fill="#FF0000"/>
<path class="atom-17" d="M 286.1 157.1 L 287.5 157.1 L 287.5 161.7 L 293.1 161.7 L 293.1 157.1 L 294.6 157.1 L 294.6 167.9 L 293.1 167.9 L 293.1 162.9 L 287.5 162.9 L 287.5 167.9 L 286.1 167.9 L 286.1 157.1 " fill="#FF0000"/>
<path class="atom-19" d="M 131.2 49.3 Q 131.2 46.7, 132.5 45.3 Q 133.8 43.8, 136.2 43.8 Q 138.6 43.8, 139.9 45.3 Q 141.2 46.7, 141.2 49.3 Q 141.2 52.0, 139.9 53.5 Q 138.6 55.0, 136.2 55.0 Q 133.8 55.0, 132.5 53.5 Q 131.2 52.0, 131.2 49.3 M 136.2 53.7 Q 137.8 53.7, 138.7 52.6 Q 139.6 51.5, 139.6 49.3 Q 139.6 47.2, 138.7 46.1 Q 137.8 45.0, 136.2 45.0 Q 134.5 45.0, 133.6 46.1 Q 132.7 47.2, 132.7 49.3 Q 132.7 51.5, 133.6 52.6 Q 134.5 53.7, 136.2 53.7 " fill="#FF0000"/>
<path class="atom-20" d="M 166.6 16.9 Q 166.6 14.3, 167.9 12.8 Q 169.2 11.4, 171.6 11.4 Q 174.0 11.4, 175.3 12.8 Q 176.6 14.3, 176.6 16.9 Q 176.6 19.5, 175.3 21.0 Q 174.0 22.5, 171.6 22.5 Q 169.2 22.5, 167.9 21.0 Q 166.6 19.5, 166.6 16.9 M 171.6 21.3 Q 173.3 21.3, 174.1 20.2 Q 175.1 19.1, 175.1 16.9 Q 175.1 14.7, 174.1 13.7 Q 173.3 12.6, 171.6 12.6 Q 170.0 12.6, 169.1 13.7 Q 168.2 14.7, 168.2 16.9 Q 168.2 19.1, 169.1 20.2 Q 170.0 21.3, 171.6 21.3 " fill="#FF0000"/>
<path class="atom-20" d="M 178.3 11.5 L 179.7 11.5 L 179.7 16.1 L 185.3 16.1 L 185.3 11.5 L 186.8 11.5 L 186.8 22.3 L 185.3 22.3 L 185.3 17.3 L 179.7 17.3 L 179.7 22.3 L 178.3 22.3 L 178.3 11.5 " fill="#FF0000"/>
<path class="atom-22" d="M 159.4 41.7 Q 159.4 39.1, 160.7 37.7 Q 162.0 36.2, 164.4 36.2 Q 166.8 36.2, 168.1 37.7 Q 169.3 39.1, 169.3 41.7 Q 169.3 44.4, 168.0 45.9 Q 166.7 47.4, 164.4 47.4 Q 162.0 47.4, 160.7 45.9 Q 159.4 44.4, 159.4 41.7 M 164.4 46.1 Q 166.0 46.1, 166.9 45.0 Q 167.8 43.9, 167.8 41.7 Q 167.8 39.6, 166.9 38.5 Q 166.0 37.5, 164.4 37.5 Q 162.7 37.5, 161.8 38.5 Q 160.9 39.6, 160.9 41.7 Q 160.9 43.9, 161.8 45.0 Q 162.7 46.1, 164.4 46.1 " fill="#FF0000"/>
<path class="atom-23" d="M 90.1 19.0 L 91.5 19.0 L 91.5 23.6 L 97.1 23.6 L 97.1 19.0 L 98.5 19.0 L 98.5 29.9 L 97.1 29.9 L 97.1 24.8 L 91.5 24.8 L 91.5 29.9 L 90.1 29.9 L 90.1 19.0 " fill="#FF0000"/>
<path class="atom-23" d="M 100.8 24.4 Q 100.8 21.8, 102.0 20.3 Q 103.3 18.9, 105.7 18.9 Q 108.1 18.9, 109.4 20.3 Q 110.7 21.8, 110.7 24.4 Q 110.7 27.0, 109.4 28.5 Q 108.1 30.0, 105.7 30.0 Q 103.3 30.0, 102.0 28.5 Q 100.8 27.1, 100.8 24.4 M 105.7 28.8 Q 107.4 28.8, 108.3 27.7 Q 109.2 26.6, 109.2 24.4 Q 109.2 22.3, 108.3 21.2 Q 107.4 20.1, 105.7 20.1 Q 104.1 20.1, 103.2 21.2 Q 102.3 22.3, 102.3 24.4 Q 102.3 26.6, 103.2 27.7 Q 104.1 28.8, 105.7 28.8 " fill="#FF0000"/>
<path class="atom-25" d="M 15.6 76.5 Q 15.6 73.8, 16.8 72.4 Q 18.1 70.9, 20.5 70.9 Q 22.9 70.9, 24.2 72.4 Q 25.5 73.8, 25.5 76.5 Q 25.5 79.1, 24.2 80.6 Q 22.9 82.1, 20.5 82.1 Q 18.1 82.1, 16.8 80.6 Q 15.6 79.1, 15.6 76.5 M 20.5 80.8 Q 22.2 80.8, 23.1 79.7 Q 24.0 78.6, 24.0 76.5 Q 24.0 74.3, 23.1 73.3 Q 22.2 72.2, 20.5 72.2 Q 18.9 72.2, 18.0 73.2 Q 17.1 74.3, 17.1 76.5 Q 17.1 78.6, 18.0 79.7 Q 18.9 80.8, 20.5 80.8 " fill="#FF0000"/>
<path class="atom-26" d="M 78.4 65.3 Q 78.4 62.7, 79.7 61.3 Q 81.0 59.8, 83.4 59.8 Q 85.8 59.8, 87.1 61.3 Q 88.4 62.7, 88.4 65.3 Q 88.4 68.0, 87.1 69.5 Q 85.8 71.0, 83.4 71.0 Q 81.0 71.0, 79.7 69.5 Q 78.4 68.0, 78.4 65.3 M 83.4 69.7 Q 85.0 69.7, 85.9 68.6 Q 86.8 67.5, 86.8 65.3 Q 86.8 63.2, 85.9 62.1 Q 85.0 61.1, 83.4 61.1 Q 81.7 61.1, 80.8 62.1 Q 79.9 63.2, 79.9 65.3 Q 79.9 67.5, 80.8 68.6 Q 81.7 69.7, 83.4 69.7 " fill="#FF0000"/>
<path class="atom-26" d="M 90.1 60.0 L 91.5 60.0 L 91.5 64.6 L 97.1 64.6 L 97.1 60.0 L 98.5 60.0 L 98.5 70.8 L 97.1 70.8 L 97.1 65.8 L 91.5 65.8 L 91.5 70.8 L 90.1 70.8 L 90.1 60.0 " fill="#FF0000"/>
</g>
  </g>
</svg>
