<?xml version='1.0' encoding='ASCII' standalone='yes'?>
<svg xmlns="http://www.w3.org/2000/svg" xmlns:xlink="http://www.w3.org/1999/xlink" version="1.1" width="903.0px" viewBox="0 0 903.0 200.0" height="200.0px">
  <g>
    <g transform="translate(0, 0) scale(1 1) "><!-- END OF HEADER -->
<rect style="opacity:1.0;fill:#FFFFFF;stroke:none" width="285.0" height="200.0" x="0.0" y="0.0"> </rect>
<path class="bond-0 atom-0 atom-1" d="M 265.1,110.5 L 232.9,92.2" style="fill:none;fill-rule:evenodd;stroke:#000000;stroke-width:2.0px;stroke-linecap:butt;stroke-linejoin:miter;stroke-opacity:1"/>
<path class="bond-1 atom-1 atom-2" d="M 232.9,92.2 L 232.8,77.1" style="fill:none;fill-rule:evenodd;stroke:#000000;stroke-width:2.0px;stroke-linecap:butt;stroke-linejoin:miter;stroke-opacity:1"/>
<path class="bond-1 atom-1 atom-2" d="M 232.8,77.1 L 232.7,61.9" style="fill:none;fill-rule:evenodd;stroke:#FF0000;stroke-width:2.0px;stroke-linecap:butt;stroke-linejoin:miter;stroke-opacity:1"/>
<path class="bond-2 atom-1 atom-3" d="M 232.9,92.2 L 201.1,110.9" style="fill:none;fill-rule:evenodd;stroke:#000000;stroke-width:2.0px;stroke-linecap:butt;stroke-linejoin:miter;stroke-opacity:1"/>
<path class="bond-3 atom-3 atom-4" d="M 201.1,110.9 L 219.8,142.8" style="fill:none;fill-rule:evenodd;stroke:#000000;stroke-width:2.0px;stroke-linecap:butt;stroke-linejoin:miter;stroke-opacity:1"/>
<path class="bond-4 atom-3 atom-5" d="M 201.1,110.9 L 182.4,79.0" style="fill:none;fill-rule:evenodd;stroke:#000000;stroke-width:2.0px;stroke-linecap:butt;stroke-linejoin:miter;stroke-opacity:1"/>
<path class="bond-5 atom-5 atom-6" d="M 182.4,79.0 L 145.4,79.3" style="fill:none;fill-rule:evenodd;stroke:#000000;stroke-width:2.0px;stroke-linecap:butt;stroke-linejoin:miter;stroke-opacity:1"/>
<path class="bond-6 atom-6 atom-7" d="M 145.4,79.3 L 127.2,111.4" style="fill:none;fill-rule:evenodd;stroke:#000000;stroke-width:2.0px;stroke-linecap:butt;stroke-linejoin:miter;stroke-opacity:1"/>
<path class="bond-7 atom-7 atom-8" d="M 127.2,111.4 L 90.2,111.7" style="fill:none;fill-rule:evenodd;stroke:#000000;stroke-width:2.0px;stroke-linecap:butt;stroke-linejoin:miter;stroke-opacity:1"/>
<path class="bond-8 atom-8 atom-9" d="M 90.2,111.7 L 90.0,74.7" style="fill:none;fill-rule:evenodd;stroke:#000000;stroke-width:2.0px;stroke-linecap:butt;stroke-linejoin:miter;stroke-opacity:1"/>
<path class="bond-9 atom-8 atom-10" d="M 90.2,111.7 L 90.5,148.6" style="fill:none;fill-rule:evenodd;stroke:#000000;stroke-width:2.0px;stroke-linecap:butt;stroke-linejoin:miter;stroke-opacity:1"/>
<path class="bond-10 atom-8 atom-11" d="M 90.2,111.7 L 53.3,111.9" style="fill:none;fill-rule:evenodd;stroke:#000000;stroke-width:2.0px;stroke-linecap:butt;stroke-linejoin:miter;stroke-opacity:1"/>
<path class="bond-11 atom-11 atom-12" d="M 51.7,109.2 L 44.0,122.7" style="fill:none;fill-rule:evenodd;stroke:#000000;stroke-width:2.0px;stroke-linecap:butt;stroke-linejoin:miter;stroke-opacity:1"/>
<path class="bond-11 atom-11 atom-12" d="M 44.0,122.7 L 36.3,136.2" style="fill:none;fill-rule:evenodd;stroke:#FF0000;stroke-width:2.0px;stroke-linecap:butt;stroke-linejoin:miter;stroke-opacity:1"/>
<path class="bond-11 atom-11 atom-12" d="M 56.4,111.9 L 48.7,125.4" style="fill:none;fill-rule:evenodd;stroke:#000000;stroke-width:2.0px;stroke-linecap:butt;stroke-linejoin:miter;stroke-opacity:1"/>
<path class="bond-11 atom-11 atom-12" d="M 48.7,125.4 L 41.1,138.9" style="fill:none;fill-rule:evenodd;stroke:#FF0000;stroke-width:2.0px;stroke-linecap:butt;stroke-linejoin:miter;stroke-opacity:1"/>
<path class="bond-12 atom-11 atom-13" d="M 53.3,111.9 L 45.9,99.3" style="fill:none;fill-rule:evenodd;stroke:#000000;stroke-width:2.0px;stroke-linecap:butt;stroke-linejoin:miter;stroke-opacity:1"/>
<path class="bond-12 atom-11 atom-13" d="M 45.9,99.3 L 38.5,86.7" style="fill:none;fill-rule:evenodd;stroke:#FF0000;stroke-width:2.0px;stroke-linecap:butt;stroke-linejoin:miter;stroke-opacity:1"/>
<path class="bond-13 atom-6 atom-14" d="M 145.4,79.3 L 126.7,47.4" style="fill:none;fill-rule:evenodd;stroke:#000000;stroke-width:2.0px;stroke-linecap:butt;stroke-linejoin:miter;stroke-opacity:1"/>
<path class="bond-14 atom-14 atom-15" d="M 128.3,50.1 L 135.9,36.7" style="fill:none;fill-rule:evenodd;stroke:#000000;stroke-width:2.0px;stroke-linecap:butt;stroke-linejoin:miter;stroke-opacity:1"/>
<path class="bond-14 atom-14 atom-15" d="M 135.9,36.7 L 143.6,23.3" style="fill:none;fill-rule:evenodd;stroke:#FF0000;stroke-width:2.0px;stroke-linecap:butt;stroke-linejoin:miter;stroke-opacity:1"/>
<path class="bond-14 atom-14 atom-15" d="M 123.6,47.4 L 131.2,34.0" style="fill:none;fill-rule:evenodd;stroke:#000000;stroke-width:2.0px;stroke-linecap:butt;stroke-linejoin:miter;stroke-opacity:1"/>
<path class="bond-14 atom-14 atom-15" d="M 131.2,34.0 L 138.8,20.6" style="fill:none;fill-rule:evenodd;stroke:#FF0000;stroke-width:2.0px;stroke-linecap:butt;stroke-linejoin:miter;stroke-opacity:1"/>
<path class="bond-15 atom-14 atom-16" d="M 126.7,47.4 L 111.3,47.5" style="fill:none;fill-rule:evenodd;stroke:#000000;stroke-width:2.0px;stroke-linecap:butt;stroke-linejoin:miter;stroke-opacity:1"/>
<path class="bond-15 atom-14 atom-16" d="M 111.3,47.5 L 95.8,47.6" style="fill:none;fill-rule:evenodd;stroke:#FF0000;stroke-width:2.0px;stroke-linecap:butt;stroke-linejoin:miter;stroke-opacity:1"/>
<path class="bond-16 atom-3 atom-17" d="M 201.1,110.9 L 169.2,129.6" style="fill:none;fill-rule:evenodd;stroke:#000000;stroke-width:2.0px;stroke-linecap:butt;stroke-linejoin:miter;stroke-opacity:1"/>
<path class="bond-17 atom-17 atom-18" d="M 166.5,128.8 L 166.6,144.5" style="fill:none;fill-rule:evenodd;stroke:#000000;stroke-width:2.0px;stroke-linecap:butt;stroke-linejoin:miter;stroke-opacity:1"/>
<path class="bond-17 atom-17 atom-18" d="M 166.6,144.5 L 166.7,160.1" style="fill:none;fill-rule:evenodd;stroke:#FF0000;stroke-width:2.0px;stroke-linecap:butt;stroke-linejoin:miter;stroke-opacity:1"/>
<path class="bond-17 atom-17 atom-18" d="M 171.9,128.0 L 172.0,144.4" style="fill:none;fill-rule:evenodd;stroke:#000000;stroke-width:2.0px;stroke-linecap:butt;stroke-linejoin:miter;stroke-opacity:1"/>
<path class="bond-17 atom-17 atom-18" d="M 172.0,144.4 L 172.1,160.0" style="fill:none;fill-rule:evenodd;stroke:#FF0000;stroke-width:2.0px;stroke-linecap:butt;stroke-linejoin:miter;stroke-opacity:1"/>
<path class="bond-18 atom-17 atom-19" d="M 169.2,129.6 L 160.5,127.2" style="fill:none;fill-rule:evenodd;stroke:#000000;stroke-width:2.0px;stroke-linecap:butt;stroke-linejoin:miter;stroke-opacity:1"/>
<path class="bond-18 atom-17 atom-19" d="M 160.5,127.2 L 151.8,124.8" style="fill:none;fill-rule:evenodd;stroke:#FF0000;stroke-width:2.0px;stroke-linecap:butt;stroke-linejoin:miter;stroke-opacity:1"/>
<path d="M 183.3,80.6 L 182.4,79.0 L 180.5,79.0" style="fill:none;stroke:#000000;stroke-width:2.0px;stroke-linecap:butt;stroke-linejoin:miter;stroke-opacity:1;"/>
<path d="M 128.1,109.8 L 127.2,111.4 L 125.3,111.4" style="fill:none;stroke:#000000;stroke-width:2.0px;stroke-linecap:butt;stroke-linejoin:miter;stroke-opacity:1;"/>
<path d="M 55.1,111.9 L 53.3,111.9 L 52.9,111.3" style="fill:none;stroke:#000000;stroke-width:2.0px;stroke-linecap:butt;stroke-linejoin:miter;stroke-opacity:1;"/>
<path d="M 127.7,49.0 L 126.7,47.4 L 126.0,47.4" style="fill:none;stroke:#000000;stroke-width:2.0px;stroke-linecap:butt;stroke-linejoin:miter;stroke-opacity:1;"/>
<path d="M 170.8,128.7 L 169.2,129.6 L 168.8,129.5" style="fill:none;stroke:#000000;stroke-width:2.0px;stroke-linecap:butt;stroke-linejoin:miter;stroke-opacity:1;"/>
<path class="atom-2" d="M 227.9 55.3 Q 227.9 52.8, 229.1 51.4 Q 230.4 50.0, 232.7 50.0 Q 235.0 50.0, 236.2 51.4 Q 237.5 52.8, 237.5 55.3 Q 237.5 57.8, 236.2 59.3 Q 235.0 60.7, 232.7 60.7 Q 230.4 60.7, 229.1 59.3 Q 227.9 57.9, 227.9 55.3 M 232.7 59.5 Q 234.3 59.5, 235.1 58.5 Q 236.0 57.4, 236.0 55.3 Q 236.0 53.2, 235.1 52.2 Q 234.3 51.2, 232.7 51.2 Q 231.1 51.2, 230.2 52.2 Q 229.4 53.2, 229.4 55.3 Q 229.4 57.4, 230.2 58.5 Q 231.1 59.5, 232.7 59.5 " fill="#FF0000"/>
<path class="atom-2" d="M 239.1 50.1 L 240.5 50.1 L 240.5 54.5 L 245.9 54.5 L 245.9 50.1 L 247.3 50.1 L 247.3 60.6 L 245.9 60.6 L 245.9 55.7 L 240.5 55.7 L 240.5 60.6 L 239.1 60.6 L 239.1 50.1 " fill="#FF0000"/>
<path class="atom-12" d="M 30.2 144.1 Q 30.2 141.6, 31.5 140.1 Q 32.7 138.7, 35.0 138.7 Q 37.3 138.7, 38.6 140.1 Q 39.8 141.6, 39.8 144.1 Q 39.8 146.6, 38.6 148.1 Q 37.3 149.5, 35.0 149.5 Q 32.7 149.5, 31.5 148.1 Q 30.2 146.6, 30.2 144.1 M 35.0 148.3 Q 36.6 148.3, 37.5 147.2 Q 38.3 146.2, 38.3 144.1 Q 38.3 142.0, 37.5 141.0 Q 36.6 139.9, 35.0 139.9 Q 33.4 139.9, 32.5 141.0 Q 31.7 142.0, 31.7 144.1 Q 31.7 146.2, 32.5 147.2 Q 33.4 148.3, 35.0 148.3 " fill="#FF0000"/>
<path class="atom-13" d="M 19.4 74.9 L 20.9 74.9 L 20.9 79.3 L 26.2 79.3 L 26.2 74.9 L 27.6 74.9 L 27.6 85.3 L 26.2 85.3 L 26.2 80.5 L 20.9 80.5 L 20.9 85.3 L 19.4 85.3 L 19.4 74.9 " fill="#FF0000"/>
<path class="atom-13" d="M 29.8 80.1 Q 29.8 77.6, 31.0 76.2 Q 32.3 74.7, 34.6 74.7 Q 36.9 74.7, 38.1 76.2 Q 39.4 77.6, 39.4 80.1 Q 39.4 82.6, 38.1 84.1 Q 36.9 85.5, 34.6 85.5 Q 32.3 85.5, 31.0 84.1 Q 29.8 82.6, 29.8 80.1 M 34.6 84.3 Q 36.2 84.3, 37.0 83.2 Q 37.9 82.2, 37.9 80.1 Q 37.9 78.0, 37.0 77.0 Q 36.2 75.9, 34.6 75.9 Q 33.0 75.9, 32.1 77.0 Q 31.3 78.0, 31.3 80.1 Q 31.3 82.2, 32.1 83.2 Q 33.0 84.3, 34.6 84.3 " fill="#FF0000"/>
<path class="atom-15" d="M 140.2 15.3 Q 140.2 12.8, 141.4 11.4 Q 142.7 10.0, 145.0 10.0 Q 147.3 10.0, 148.6 11.4 Q 149.8 12.8, 149.8 15.3 Q 149.8 17.9, 148.5 19.3 Q 147.3 20.7, 145.0 20.7 Q 142.7 20.7, 141.4 19.3 Q 140.2 17.9, 140.2 15.3 M 145.0 19.6 Q 146.6 19.6, 147.4 18.5 Q 148.3 17.4, 148.3 15.3 Q 148.3 13.3, 147.4 12.2 Q 146.6 11.2, 145.0 11.2 Q 143.4 11.2, 142.5 12.2 Q 141.7 13.3, 141.7 15.3 Q 141.7 17.4, 142.5 18.5 Q 143.4 19.6, 145.0 19.6 " fill="#FF0000"/>
<path class="atom-16" d="M 74.6 42.5 L 76.1 42.5 L 76.1 46.9 L 81.4 46.9 L 81.4 42.5 L 82.8 42.5 L 82.8 53.0 L 81.4 53.0 L 81.4 48.1 L 76.1 48.1 L 76.1 53.0 L 74.6 53.0 L 74.6 42.5 " fill="#FF0000"/>
<path class="atom-16" d="M 85.0 47.7 Q 85.0 45.2, 86.2 43.8 Q 87.5 42.4, 89.8 42.4 Q 92.1 42.4, 93.3 43.8 Q 94.6 45.2, 94.6 47.7 Q 94.6 50.2, 93.3 51.7 Q 92.1 53.1, 89.8 53.1 Q 87.5 53.1, 86.2 51.7 Q 85.0 50.3, 85.0 47.7 M 89.8 51.9 Q 91.4 51.9, 92.2 50.9 Q 93.1 49.8, 93.1 47.7 Q 93.1 45.6, 92.2 44.6 Q 91.4 43.6, 89.8 43.6 Q 88.2 43.6, 87.3 44.6 Q 86.5 45.6, 86.5 47.7 Q 86.5 49.8, 87.3 50.9 Q 88.2 51.9, 89.8 51.9 " fill="#FF0000"/>
<path class="atom-18" d="M 164.6 166.6 Q 164.6 164.1, 165.9 162.7 Q 167.1 161.3, 169.4 161.3 Q 171.8 161.3, 173.0 162.7 Q 174.2 164.1, 174.2 166.6 Q 174.2 169.1, 173.0 170.6 Q 171.7 172.0, 169.4 172.0 Q 167.1 172.0, 165.9 170.6 Q 164.6 169.1, 164.6 166.6 M 169.4 170.8 Q 171.0 170.8, 171.9 169.8 Q 172.8 168.7, 172.8 166.6 Q 172.8 164.5, 171.9 163.5 Q 171.0 162.4, 169.4 162.4 Q 167.8 162.4, 167.0 163.5 Q 166.1 164.5, 166.1 166.6 Q 166.1 168.7, 167.0 169.8 Q 167.8 170.8, 169.4 170.8 " fill="#FF0000"/>
<path class="atom-19" d="M 130.7 117.9 L 132.1 117.9 L 132.1 122.4 L 137.5 122.4 L 137.5 117.9 L 138.9 117.9 L 138.9 128.4 L 137.5 128.4 L 137.5 123.5 L 132.1 123.5 L 132.1 128.4 L 130.7 128.4 L 130.7 117.9 " fill="#FF0000"/>
<path class="atom-19" d="M 141.0 123.1 Q 141.0 120.6, 142.3 119.2 Q 143.5 117.8, 145.8 117.8 Q 148.2 117.8, 149.4 119.2 Q 150.6 120.6, 150.6 123.1 Q 150.6 125.6, 149.4 127.1 Q 148.1 128.5, 145.8 128.5 Q 143.5 128.5, 142.3 127.1 Q 141.0 125.7, 141.0 123.1 M 145.8 127.3 Q 147.4 127.3, 148.3 126.3 Q 149.2 125.2, 149.2 123.1 Q 149.2 121.1, 148.3 120.0 Q 147.4 119.0, 145.8 119.0 Q 144.2 119.0, 143.4 120.0 Q 142.5 121.0, 142.5 123.1 Q 142.5 125.2, 143.4 126.3 Q 144.2 127.3, 145.8 127.3 " fill="#FF0000"/>
<path class="legend" d="M 133.7 181.9 Q 133.7 179.6, 134.4 177.7 Q 135.1 175.8, 136.4 173.8 L 137.3 174.4 Q 136.2 176.3, 135.7 178.0 Q 135.2 179.7, 135.2 181.9 Q 135.2 184.0, 135.7 185.8 Q 136.2 187.5, 137.3 189.4 L 136.4 190.0 Q 135.1 188.0, 134.4 186.1 Q 133.7 184.2, 133.7 181.9 " fill="#000000"/>
<path class="legend" d="M 138.2 177.3 Q 138.6 176.2, 139.6 175.6 Q 140.6 175.0, 142.0 175.0 Q 143.7 175.0, 144.6 175.9 Q 145.6 176.8, 145.6 178.5 Q 145.6 180.2, 144.3 181.7 Q 143.1 183.3, 140.6 185.2 L 145.8 185.2 L 145.8 186.4 L 138.2 186.4 L 138.2 185.4 Q 140.3 183.9, 141.5 182.8 Q 142.8 181.6, 143.4 180.6 Q 144.0 179.6, 144.0 178.6 Q 144.0 177.5, 143.4 176.9 Q 142.9 176.3, 142.0 176.3 Q 141.0 176.3, 140.4 176.6 Q 139.8 177.0, 139.4 177.8 L 138.2 177.3 " fill="#000000"/>
<path class="legend" d="M 150.8 181.9 Q 150.8 184.2, 150.1 186.1 Q 149.4 188.0, 148.1 190.0 L 147.2 189.4 Q 148.3 187.5, 148.8 185.8 Q 149.3 184.0, 149.3 181.9 Q 149.3 179.7, 148.8 178.0 Q 148.3 176.3, 147.2 174.4 L 148.1 173.8 Q 149.4 175.8, 150.1 177.7 Q 150.8 179.6, 150.8 181.9 " fill="#000000"/>
</g>
    <g transform="translate(285.0, 0) scale(1 1) "><line x1="5" y1="100" x2="35" y2="100" style="stroke:rgb(0,0,0);stroke-width:2"/>
  <line x1="34" y1="100" x2="29" y2="95" style="stroke:rgb(0,0,0);stroke-width:2"/>
  <line x1="34" y1="100" x2="29" y2="105" style="stroke:rgb(0,0,0);stroke-width:2"/>
</g>
    <g transform="translate(325.0, 0) scale(1 1) "><!-- END OF HEADER -->
<rect style="opacity:1.0;fill:#FFFFFF;stroke:none" width="323.0" height="200.0" x="0.0" y="0.0"> </rect>
<path class="bond-0 atom-0 atom-1" d="M 138.2,153.3 L 116.2,155.6" style="fill:none;fill-rule:evenodd;stroke:#000000;stroke-width:2.0px;stroke-linecap:butt;stroke-linejoin:miter;stroke-opacity:1"/>
<path class="bond-1 atom-1 atom-2" d="M 116.2,155.6 L 114.0,167.9" style="fill:none;fill-rule:evenodd;stroke:#000000;stroke-width:2.0px;stroke-linecap:butt;stroke-linejoin:miter;stroke-opacity:1"/>
<path class="bond-1 atom-1 atom-2" d="M 114.0,167.9 L 111.9,180.2" style="fill:none;fill-rule:evenodd;stroke:#FF0000;stroke-width:2.0px;stroke-linecap:butt;stroke-linejoin:miter;stroke-opacity:1"/>
<path class="bond-2 atom-1 atom-3" d="M 116.2,155.6 L 92.9,136.0" style="fill:none;fill-rule:evenodd;stroke:#000000;stroke-width:2.0px;stroke-linecap:butt;stroke-linejoin:miter;stroke-opacity:1"/>
<path class="bond-3 atom-3 atom-4" d="M 92.9,136.0 L 73.4,159.3" style="fill:none;fill-rule:evenodd;stroke:#000000;stroke-width:2.0px;stroke-linecap:butt;stroke-linejoin:miter;stroke-opacity:1"/>
<path class="bond-4 atom-3 atom-5" d="M 92.9,136.0 L 112.5,112.8" style="fill:none;fill-rule:evenodd;stroke:#000000;stroke-width:2.0px;stroke-linecap:butt;stroke-linejoin:miter;stroke-opacity:1"/>
<path class="bond-5 atom-5 atom-6" d="M 112.5,112.8 L 142.4,118.0" style="fill:none;fill-rule:evenodd;stroke:#000000;stroke-width:2.0px;stroke-linecap:butt;stroke-linejoin:miter;stroke-opacity:1"/>
<path class="bond-6 atom-6 atom-7" d="M 142.4,118.0 L 152.8,146.6" style="fill:none;fill-rule:evenodd;stroke:#000000;stroke-width:2.0px;stroke-linecap:butt;stroke-linejoin:miter;stroke-opacity:1"/>
<path class="bond-7 atom-7 atom-8" d="M 151.9,144.1 L 143.9,153.6" style="fill:none;fill-rule:evenodd;stroke:#000000;stroke-width:2.0px;stroke-linecap:butt;stroke-linejoin:miter;stroke-opacity:1"/>
<path class="bond-7 atom-7 atom-8" d="M 143.9,153.6 L 136.0,163.1" style="fill:none;fill-rule:evenodd;stroke:#FF0000;stroke-width:2.0px;stroke-linecap:butt;stroke-linejoin:miter;stroke-opacity:1"/>
<path class="bond-7 atom-7 atom-8" d="M 155.4,147.1 L 147.4,156.5" style="fill:none;fill-rule:evenodd;stroke:#000000;stroke-width:2.0px;stroke-linecap:butt;stroke-linejoin:miter;stroke-opacity:1"/>
<path class="bond-7 atom-7 atom-8" d="M 147.4,156.5 L 139.5,166.0" style="fill:none;fill-rule:evenodd;stroke:#FF0000;stroke-width:2.0px;stroke-linecap:butt;stroke-linejoin:miter;stroke-opacity:1"/>
<path class="bond-8 atom-7 atom-9" d="M 152.8,146.6 L 165.3,148.8" style="fill:none;fill-rule:evenodd;stroke:#000000;stroke-width:2.0px;stroke-linecap:butt;stroke-linejoin:miter;stroke-opacity:1"/>
<path class="bond-8 atom-7 atom-9" d="M 165.3,148.8 L 177.8,151.0" style="fill:none;fill-rule:evenodd;stroke:#FF0000;stroke-width:2.0px;stroke-linecap:butt;stroke-linejoin:miter;stroke-opacity:1"/>
<path class="bond-9 atom-6 atom-10" d="M 142.4,118.0 L 161.9,94.8" style="fill:none;fill-rule:evenodd;stroke:#000000;stroke-width:2.0px;stroke-linecap:butt;stroke-linejoin:miter;stroke-opacity:1"/>
<path class="bond-10 atom-10 atom-11" d="M 161.9,94.8 L 191.9,100.0" style="fill:none;fill-rule:evenodd;stroke:#000000;stroke-width:2.0px;stroke-linecap:butt;stroke-linejoin:miter;stroke-opacity:1"/>
<path class="bond-11 atom-11 atom-12" d="M 191.9,100.0 L 202.3,128.6" style="fill:none;fill-rule:evenodd;stroke:#000000;stroke-width:2.0px;stroke-linecap:butt;stroke-linejoin:miter;stroke-opacity:1"/>
<path class="bond-12 atom-12 atom-13" d="M 202.3,128.6 L 232.2,133.9" style="fill:none;fill-rule:evenodd;stroke:#000000;stroke-width:2.0px;stroke-linecap:butt;stroke-linejoin:miter;stroke-opacity:1"/>
<path class="bond-13 atom-13 atom-14" d="M 232.2,133.9 L 237.5,103.9" style="fill:none;fill-rule:evenodd;stroke:#000000;stroke-width:2.0px;stroke-linecap:butt;stroke-linejoin:miter;stroke-opacity:1"/>
<path class="bond-14 atom-13 atom-15" d="M 232.2,133.9 L 226.9,163.8" style="fill:none;fill-rule:evenodd;stroke:#000000;stroke-width:2.0px;stroke-linecap:butt;stroke-linejoin:miter;stroke-opacity:1"/>
<path class="bond-15 atom-13 atom-16" d="M 232.2,133.9 L 262.1,139.1" style="fill:none;fill-rule:evenodd;stroke:#000000;stroke-width:2.0px;stroke-linecap:butt;stroke-linejoin:miter;stroke-opacity:1"/>
<path class="bond-16 atom-16 atom-17" d="M 259.5,138.7 L 264.0,150.9" style="fill:none;fill-rule:evenodd;stroke:#000000;stroke-width:2.0px;stroke-linecap:butt;stroke-linejoin:miter;stroke-opacity:1"/>
<path class="bond-16 atom-16 atom-17" d="M 264.0,150.9 L 268.4,163.1" style="fill:none;fill-rule:evenodd;stroke:#FF0000;stroke-width:2.0px;stroke-linecap:butt;stroke-linejoin:miter;stroke-opacity:1"/>
<path class="bond-16 atom-16 atom-17" d="M 263.8,137.1 L 268.2,149.4" style="fill:none;fill-rule:evenodd;stroke:#000000;stroke-width:2.0px;stroke-linecap:butt;stroke-linejoin:miter;stroke-opacity:1"/>
<path class="bond-16 atom-16 atom-17" d="M 268.2,149.4 L 272.7,161.6" style="fill:none;fill-rule:evenodd;stroke:#FF0000;stroke-width:2.0px;stroke-linecap:butt;stroke-linejoin:miter;stroke-opacity:1"/>
<path class="bond-17 atom-16 atom-18" d="M 262.1,139.1 L 269.6,130.2" style="fill:none;fill-rule:evenodd;stroke:#000000;stroke-width:2.0px;stroke-linecap:butt;stroke-linejoin:miter;stroke-opacity:1"/>
<path class="bond-17 atom-16 atom-18" d="M 269.6,130.2 L 277.1,121.3" style="fill:none;fill-rule:evenodd;stroke:#FF0000;stroke-width:2.0px;stroke-linecap:butt;stroke-linejoin:miter;stroke-opacity:1"/>
<path class="bond-18 atom-11 atom-19" d="M 191.9,100.0 L 211.4,76.7" style="fill:none;fill-rule:evenodd;stroke:#000000;stroke-width:2.0px;stroke-linecap:butt;stroke-linejoin:miter;stroke-opacity:1"/>
<path class="bond-19 atom-19 atom-20" d="M 214.0,77.2 L 209.5,65.0" style="fill:none;fill-rule:evenodd;stroke:#000000;stroke-width:2.0px;stroke-linecap:butt;stroke-linejoin:miter;stroke-opacity:1"/>
<path class="bond-19 atom-19 atom-20" d="M 209.5,65.0 L 205.1,52.9" style="fill:none;fill-rule:evenodd;stroke:#FF0000;stroke-width:2.0px;stroke-linecap:butt;stroke-linejoin:miter;stroke-opacity:1"/>
<path class="bond-19 atom-19 atom-20" d="M 209.7,78.7 L 205.3,66.6" style="fill:none;fill-rule:evenodd;stroke:#000000;stroke-width:2.0px;stroke-linecap:butt;stroke-linejoin:miter;stroke-opacity:1"/>
<path class="bond-19 atom-19 atom-20" d="M 205.3,66.6 L 200.9,54.4" style="fill:none;fill-rule:evenodd;stroke:#FF0000;stroke-width:2.0px;stroke-linecap:butt;stroke-linejoin:miter;stroke-opacity:1"/>
<path class="bond-20 atom-19 atom-21" d="M 211.4,76.7 L 223.9,78.9" style="fill:none;fill-rule:evenodd;stroke:#000000;stroke-width:2.0px;stroke-linecap:butt;stroke-linejoin:miter;stroke-opacity:1"/>
<path class="bond-20 atom-19 atom-21" d="M 223.9,78.9 L 236.4,81.2" style="fill:none;fill-rule:evenodd;stroke:#FF0000;stroke-width:2.0px;stroke-linecap:butt;stroke-linejoin:miter;stroke-opacity:1"/>
<path class="bond-21 atom-10 atom-22" d="M 161.9,94.8 L 151.5,66.2" style="fill:none;fill-rule:evenodd;stroke:#000000;stroke-width:2.0px;stroke-linecap:butt;stroke-linejoin:miter;stroke-opacity:1"/>
<path class="bond-22 atom-22 atom-23" d="M 151.5,66.2 L 123.0,76.6" style="fill:none;fill-rule:evenodd;stroke:#000000;stroke-width:2.0px;stroke-linecap:butt;stroke-linejoin:miter;stroke-opacity:1"/>
<path class="bond-23 atom-22 atom-24" d="M 151.5,66.2 L 180.1,55.8" style="fill:none;fill-rule:evenodd;stroke:#000000;stroke-width:2.0px;stroke-linecap:butt;stroke-linejoin:miter;stroke-opacity:1"/>
<path class="bond-24 atom-22 atom-25" d="M 151.5,66.2 L 141.1,37.6" style="fill:none;fill-rule:evenodd;stroke:#000000;stroke-width:2.0px;stroke-linecap:butt;stroke-linejoin:miter;stroke-opacity:1"/>
<path class="bond-25 atom-25 atom-26" d="M 142.0,40.1 L 149.9,30.7" style="fill:none;fill-rule:evenodd;stroke:#000000;stroke-width:2.0px;stroke-linecap:butt;stroke-linejoin:miter;stroke-opacity:1"/>
<path class="bond-25 atom-25 atom-26" d="M 149.9,30.7 L 157.8,21.3" style="fill:none;fill-rule:evenodd;stroke:#FF0000;stroke-width:2.0px;stroke-linecap:butt;stroke-linejoin:miter;stroke-opacity:1"/>
<path class="bond-25 atom-25 atom-26" d="M 138.6,37.2 L 146.4,27.8" style="fill:none;fill-rule:evenodd;stroke:#000000;stroke-width:2.0px;stroke-linecap:butt;stroke-linejoin:miter;stroke-opacity:1"/>
<path class="bond-25 atom-25 atom-26" d="M 146.4,27.8 L 154.3,18.4" style="fill:none;fill-rule:evenodd;stroke:#FF0000;stroke-width:2.0px;stroke-linecap:butt;stroke-linejoin:miter;stroke-opacity:1"/>
<path class="bond-26 atom-25 atom-27" d="M 141.1,37.6 L 128.6,35.4" style="fill:none;fill-rule:evenodd;stroke:#000000;stroke-width:2.0px;stroke-linecap:butt;stroke-linejoin:miter;stroke-opacity:1"/>
<path class="bond-26 atom-25 atom-27" d="M 128.6,35.4 L 116.1,33.2" style="fill:none;fill-rule:evenodd;stroke:#FF0000;stroke-width:2.0px;stroke-linecap:butt;stroke-linejoin:miter;stroke-opacity:1"/>
<path class="bond-27 atom-3 atom-28" d="M 92.9,136.0 L 69.6,116.5" style="fill:none;fill-rule:evenodd;stroke:#000000;stroke-width:2.0px;stroke-linecap:butt;stroke-linejoin:miter;stroke-opacity:1"/>
<path class="bond-28 atom-28 atom-29" d="M 71.6,118.2 L 73.9,105.3" style="fill:none;fill-rule:evenodd;stroke:#000000;stroke-width:2.0px;stroke-linecap:butt;stroke-linejoin:miter;stroke-opacity:1"/>
<path class="bond-28 atom-28 atom-29" d="M 73.9,105.3 L 76.2,92.5" style="fill:none;fill-rule:evenodd;stroke:#FF0000;stroke-width:2.0px;stroke-linecap:butt;stroke-linejoin:miter;stroke-opacity:1"/>
<path class="bond-28 atom-28 atom-29" d="M 67.2,117.4 L 69.5,104.5" style="fill:none;fill-rule:evenodd;stroke:#000000;stroke-width:2.0px;stroke-linecap:butt;stroke-linejoin:miter;stroke-opacity:1"/>
<path class="bond-28 atom-28 atom-29" d="M 69.5,104.5 L 71.7,91.7" style="fill:none;fill-rule:evenodd;stroke:#FF0000;stroke-width:2.0px;stroke-linecap:butt;stroke-linejoin:miter;stroke-opacity:1"/>
<path class="bond-29 atom-28 atom-30" d="M 69.6,116.5 L 57.8,120.8" style="fill:none;fill-rule:evenodd;stroke:#000000;stroke-width:2.0px;stroke-linecap:butt;stroke-linejoin:miter;stroke-opacity:1"/>
<path class="bond-29 atom-28 atom-30" d="M 57.8,120.8 L 46.0,125.1" style="fill:none;fill-rule:evenodd;stroke:#FF0000;stroke-width:2.0px;stroke-linecap:butt;stroke-linejoin:miter;stroke-opacity:1"/>
<path d="M 111.5,113.9 L 112.5,112.8 L 114.0,113.0" style="fill:none;stroke:#000000;stroke-width:2.0px;stroke-linecap:butt;stroke-linejoin:miter;stroke-opacity:1;"/>
<path d="M 152.3,145.2 L 152.8,146.6 L 153.4,146.7" style="fill:none;stroke:#000000;stroke-width:2.0px;stroke-linecap:butt;stroke-linejoin:miter;stroke-opacity:1;"/>
<path d="M 201.7,127.2 L 202.3,128.6 L 203.7,128.9" style="fill:none;stroke:#000000;stroke-width:2.0px;stroke-linecap:butt;stroke-linejoin:miter;stroke-opacity:1;"/>
<path d="M 260.6,138.9 L 262.1,139.1 L 262.5,138.7" style="fill:none;stroke:#000000;stroke-width:2.0px;stroke-linecap:butt;stroke-linejoin:miter;stroke-opacity:1;"/>
<path d="M 210.4,77.9 L 211.4,76.7 L 212.0,76.9" style="fill:none;stroke:#000000;stroke-width:2.0px;stroke-linecap:butt;stroke-linejoin:miter;stroke-opacity:1;"/>
<path d="M 141.6,39.1 L 141.1,37.6 L 140.5,37.5" style="fill:none;stroke:#000000;stroke-width:2.0px;stroke-linecap:butt;stroke-linejoin:miter;stroke-opacity:1;"/>
<path d="M 70.8,117.5 L 69.6,116.5 L 69.0,116.7" style="fill:none;stroke:#000000;stroke-width:2.0px;stroke-linecap:butt;stroke-linejoin:miter;stroke-opacity:1;"/>
<path class="atom-2" d="M 107.0 185.5 Q 107.0 183.5, 108.0 182.3 Q 109.0 181.2, 110.9 181.2 Q 112.8 181.2, 113.9 182.3 Q 114.9 183.5, 114.9 185.5 Q 114.9 187.6, 113.8 188.8 Q 112.8 190.0, 110.9 190.0 Q 109.0 190.0, 108.0 188.8 Q 107.0 187.6, 107.0 185.5 M 110.9 189.0 Q 112.2 189.0, 112.9 188.2 Q 113.7 187.3, 113.7 185.5 Q 113.7 183.8, 112.9 183.0 Q 112.2 182.1, 110.9 182.1 Q 109.6 182.1, 108.9 183.0 Q 108.2 183.8, 108.2 185.5 Q 108.2 187.3, 108.9 188.2 Q 109.6 189.0, 110.9 189.0 " fill="#FF0000"/>
<path class="atom-2" d="M 116.2 181.3 L 117.4 181.3 L 117.4 184.9 L 121.8 184.9 L 121.8 181.3 L 123.0 181.3 L 123.0 189.9 L 121.8 189.9 L 121.8 185.9 L 117.4 185.9 L 117.4 189.9 L 116.2 189.9 L 116.2 181.3 " fill="#FF0000"/>
<path class="atom-8" d="M 129.3 169.9 Q 129.3 167.8, 130.3 166.7 Q 131.3 165.5, 133.2 165.5 Q 135.2 165.5, 136.2 166.7 Q 137.2 167.8, 137.2 169.9 Q 137.2 172.0, 136.2 173.2 Q 135.1 174.4, 133.2 174.4 Q 131.4 174.4, 130.3 173.2 Q 129.3 172.0, 129.3 169.9 M 133.2 173.4 Q 134.6 173.4, 135.3 172.5 Q 136.0 171.6, 136.0 169.9 Q 136.0 168.2, 135.3 167.4 Q 134.6 166.5, 133.2 166.5 Q 131.9 166.5, 131.2 167.4 Q 130.5 168.2, 130.5 169.9 Q 130.5 171.6, 131.2 172.5 Q 131.9 173.4, 133.2 173.4 " fill="#FF0000"/>
<path class="atom-9" d="M 178.8 151.9 Q 178.8 149.8, 179.8 148.7 Q 180.8 147.5, 182.7 147.5 Q 184.6 147.5, 185.6 148.7 Q 186.7 149.8, 186.7 151.9 Q 186.7 154.0, 185.6 155.2 Q 184.6 156.4, 182.7 156.4 Q 180.8 156.4, 179.8 155.2 Q 178.8 154.0, 178.8 151.9 M 182.7 155.4 Q 184.0 155.4, 184.7 154.5 Q 185.5 153.6, 185.5 151.9 Q 185.5 150.2, 184.7 149.4 Q 184.0 148.5, 182.7 148.5 Q 181.4 148.5, 180.7 149.3 Q 180.0 150.2, 180.0 151.9 Q 180.0 153.6, 180.7 154.5 Q 181.4 155.4, 182.7 155.4 " fill="#FF0000"/>
<path class="atom-9" d="M 188.0 147.6 L 189.2 147.6 L 189.2 151.3 L 193.6 151.3 L 193.6 147.6 L 194.7 147.6 L 194.7 156.2 L 193.6 156.2 L 193.6 152.3 L 189.2 152.3 L 189.2 156.2 L 188.0 156.2 L 188.0 147.6 " fill="#FF0000"/>
<path class="atom-17" d="M 268.6 167.7 Q 268.6 165.7, 269.6 164.5 Q 270.6 163.3, 272.5 163.3 Q 274.4 163.3, 275.4 164.5 Q 276.5 165.7, 276.5 167.7 Q 276.5 169.8, 275.4 171.0 Q 274.4 172.2, 272.5 172.2 Q 270.6 172.2, 269.6 171.0 Q 268.6 169.8, 268.6 167.7 M 272.5 171.2 Q 273.8 171.2, 274.5 170.3 Q 275.2 169.5, 275.2 167.7 Q 275.2 166.0, 274.5 165.2 Q 273.8 164.3, 272.5 164.3 Q 271.2 164.3, 270.5 165.2 Q 269.8 166.0, 269.8 167.7 Q 269.8 169.5, 270.5 170.3 Q 271.2 171.2, 272.5 171.2 " fill="#FF0000"/>
<path class="atom-18" d="M 277.7 115.9 Q 277.7 113.8, 278.7 112.7 Q 279.7 111.5, 281.6 111.5 Q 283.6 111.5, 284.6 112.7 Q 285.6 113.8, 285.6 115.9 Q 285.6 118.0, 284.6 119.2 Q 283.5 120.3, 281.6 120.3 Q 279.8 120.3, 278.7 119.2 Q 277.7 118.0, 277.7 115.9 M 281.6 119.4 Q 283.0 119.4, 283.7 118.5 Q 284.4 117.6, 284.4 115.9 Q 284.4 114.2, 283.7 113.3 Q 283.0 112.5, 281.6 112.5 Q 280.3 112.5, 279.6 113.3 Q 278.9 114.2, 278.9 115.9 Q 278.9 117.6, 279.6 118.5 Q 280.3 119.4, 281.6 119.4 " fill="#FF0000"/>
<path class="atom-18" d="M 286.9 111.6 L 288.1 111.6 L 288.1 115.3 L 292.5 115.3 L 292.5 111.6 L 293.7 111.6 L 293.7 120.2 L 292.5 120.2 L 292.5 116.2 L 288.1 116.2 L 288.1 120.2 L 286.9 120.2 L 286.9 111.6 " fill="#FF0000"/>
<path class="atom-20" d="M 197.0 48.2 Q 197.0 46.1, 198.1 45.0 Q 199.1 43.8, 201.0 43.8 Q 202.9 43.8, 203.9 45.0 Q 204.9 46.1, 204.9 48.2 Q 204.9 50.3, 203.9 51.5 Q 202.9 52.7, 201.0 52.7 Q 199.1 52.7, 198.1 51.5 Q 197.0 50.3, 197.0 48.2 M 201.0 51.7 Q 202.3 51.7, 203.0 50.8 Q 203.7 49.9, 203.7 48.2 Q 203.7 46.5, 203.0 45.7 Q 202.3 44.8, 201.0 44.8 Q 199.7 44.8, 199.0 45.7 Q 198.3 46.5, 198.3 48.2 Q 198.3 49.9, 199.0 50.8 Q 199.7 51.7, 201.0 51.7 " fill="#FF0000"/>
<path class="atom-21" d="M 237.4 82.0 Q 237.4 80.0, 238.4 78.8 Q 239.4 77.7, 241.3 77.7 Q 243.2 77.7, 244.2 78.8 Q 245.3 80.0, 245.3 82.0 Q 245.3 84.1, 244.2 85.3 Q 243.2 86.5, 241.3 86.5 Q 239.4 86.5, 238.4 85.3 Q 237.4 84.1, 237.4 82.0 M 241.3 85.5 Q 242.6 85.5, 243.3 84.7 Q 244.1 83.8, 244.1 82.0 Q 244.1 80.4, 243.3 79.5 Q 242.6 78.6, 241.3 78.6 Q 240.0 78.6, 239.3 79.5 Q 238.6 80.3, 238.6 82.0 Q 238.6 83.8, 239.3 84.7 Q 240.0 85.5, 241.3 85.5 " fill="#FF0000"/>
<path class="atom-21" d="M 246.6 77.8 L 247.8 77.8 L 247.8 81.4 L 252.2 81.4 L 252.2 77.8 L 253.3 77.8 L 253.3 86.4 L 252.2 86.4 L 252.2 82.4 L 247.8 82.4 L 247.8 86.4 L 246.6 86.4 L 246.6 77.8 " fill="#FF0000"/>
<path class="atom-26" d="M 156.7 14.4 Q 156.7 12.3, 157.7 11.2 Q 158.8 10.0, 160.7 10.0 Q 162.6 10.0, 163.6 11.2 Q 164.6 12.3, 164.6 14.4 Q 164.6 16.5, 163.6 17.7 Q 162.5 18.8, 160.7 18.8 Q 158.8 18.8, 157.7 17.7 Q 156.7 16.5, 156.7 14.4 M 160.7 17.9 Q 162.0 17.9, 162.7 17.0 Q 163.4 16.1, 163.4 14.4 Q 163.4 12.7, 162.7 11.8 Q 162.0 11.0, 160.7 11.0 Q 159.3 11.0, 158.6 11.8 Q 157.9 12.7, 157.9 14.4 Q 157.9 16.1, 158.6 17.0 Q 159.3 17.9, 160.7 17.9 " fill="#FF0000"/>
<path class="atom-27" d="M 98.7 28.1 L 99.9 28.1 L 99.9 31.8 L 104.3 31.8 L 104.3 28.1 L 105.5 28.1 L 105.5 36.7 L 104.3 36.7 L 104.3 32.7 L 99.9 32.7 L 99.9 36.7 L 98.7 36.7 L 98.7 28.1 " fill="#FF0000"/>
<path class="atom-27" d="M 107.2 32.4 Q 107.2 30.3, 108.3 29.2 Q 109.3 28.0, 111.2 28.0 Q 113.1 28.0, 114.1 29.2 Q 115.1 30.3, 115.1 32.4 Q 115.1 34.5, 114.1 35.7 Q 113.1 36.8, 111.2 36.8 Q 109.3 36.8, 108.3 35.7 Q 107.2 34.5, 107.2 32.4 M 111.2 35.9 Q 112.5 35.9, 113.2 35.0 Q 113.9 34.1, 113.9 32.4 Q 113.9 30.7, 113.2 29.8 Q 112.5 29.0, 111.2 29.0 Q 109.9 29.0, 109.2 29.8 Q 108.5 30.7, 108.5 32.4 Q 108.5 34.1, 109.2 35.0 Q 109.9 35.9, 111.2 35.9 " fill="#FF0000"/>
<path class="atom-29" d="M 71.0 86.6 Q 71.0 84.5, 72.0 83.4 Q 73.0 82.2, 74.9 82.2 Q 76.8 82.2, 77.8 83.4 Q 78.9 84.5, 78.9 86.6 Q 78.9 88.7, 77.8 89.9 Q 76.8 91.1, 74.9 91.1 Q 73.0 91.1, 72.0 89.9 Q 71.0 88.7, 71.0 86.6 M 74.9 90.1 Q 76.2 90.1, 76.9 89.2 Q 77.6 88.3, 77.6 86.6 Q 77.6 84.9, 76.9 84.1 Q 76.2 83.2, 74.9 83.2 Q 73.6 83.2, 72.9 84.1 Q 72.2 84.9, 72.2 86.6 Q 72.2 88.3, 72.9 89.2 Q 73.6 90.1, 74.9 90.1 " fill="#FF0000"/>
<path class="atom-30" d="M 28.6 122.7 L 29.8 122.7 L 29.8 126.3 L 34.2 126.3 L 34.2 122.7 L 35.4 122.7 L 35.4 131.3 L 34.2 131.3 L 34.2 127.3 L 29.8 127.3 L 29.8 131.3 L 28.6 131.3 L 28.6 122.7 " fill="#FF0000"/>
<path class="atom-30" d="M 37.1 126.9 Q 37.1 124.9, 38.1 123.7 Q 39.2 122.6, 41.1 122.6 Q 43.0 122.6, 44.0 123.7 Q 45.0 124.9, 45.0 126.9 Q 45.0 129.0, 44.0 130.2 Q 43.0 131.4, 41.1 131.4 Q 39.2 131.4, 38.1 130.2 Q 37.1 129.0, 37.1 126.9 M 41.1 130.4 Q 42.4 130.4, 43.1 129.5 Q 43.8 128.7, 43.8 126.9 Q 43.8 125.2, 43.1 124.4 Q 42.4 123.5, 41.1 123.5 Q 39.8 123.5, 39.0 124.4 Q 38.3 125.2, 38.3 126.9 Q 38.3 128.7, 39.0 129.5 Q 39.8 130.4, 41.1 130.4 " fill="#FF0000"/>
</g>
    <g transform="translate(648.0, 0) scale(1 1) "><line x1="15" y1="100" x2="25" y2="100" style="stroke:rgb(0,0,0);stroke-width:2"/>
  <line x1="20" y1="95" x2="20" y2="105" style="stroke:rgb(0,0,0);stroke-width:2"/>
</g>
    <g transform="translate(688.0, 0) scale(1 1) "><!-- END OF HEADER -->
<rect style="opacity:1.0;fill:#FFFFFF;stroke:none" width="215.0" height="200.0" x="0.0" y="0.0"> </rect>
<path class="bond-0 atom-0 atom-1" d="M 183.7,56.0 L 158.3,99.9" style="fill:none;fill-rule:evenodd;stroke:#000000;stroke-width:2.0px;stroke-linecap:butt;stroke-linejoin:miter;stroke-opacity:1"/>
<path class="bond-1 atom-1 atom-2" d="M 158.3,99.9 L 168.4,117.4" style="fill:none;fill-rule:evenodd;stroke:#000000;stroke-width:2.0px;stroke-linecap:butt;stroke-linejoin:miter;stroke-opacity:1"/>
<path class="bond-1 atom-1 atom-2" d="M 168.4,117.4 L 178.5,134.9" style="fill:none;fill-rule:evenodd;stroke:#FF0000;stroke-width:2.0px;stroke-linecap:butt;stroke-linejoin:miter;stroke-opacity:1"/>
<path class="bond-2 atom-1 atom-3" d="M 158.3,99.9 L 107.6,99.9" style="fill:none;fill-rule:evenodd;stroke:#000000;stroke-width:2.0px;stroke-linecap:butt;stroke-linejoin:miter;stroke-opacity:1"/>
<path class="bond-3 atom-3 atom-4" d="M 107.6,99.9 L 107.6,49.2" style="fill:none;fill-rule:evenodd;stroke:#000000;stroke-width:2.0px;stroke-linecap:butt;stroke-linejoin:miter;stroke-opacity:1"/>
<path class="bond-4 atom-3 atom-5" d="M 107.6,99.9 L 107.6,150.6" style="fill:none;fill-rule:evenodd;stroke:#000000;stroke-width:2.0px;stroke-linecap:butt;stroke-linejoin:miter;stroke-opacity:1"/>
<path class="bond-5 atom-3 atom-6" d="M 107.6,99.9 L 56.9,99.9" style="fill:none;fill-rule:evenodd;stroke:#000000;stroke-width:2.0px;stroke-linecap:butt;stroke-linejoin:miter;stroke-opacity:1"/>
<path class="bond-6 atom-6 atom-7" d="M 54.7,96.1 L 44.0,114.5" style="fill:none;fill-rule:evenodd;stroke:#000000;stroke-width:2.0px;stroke-linecap:butt;stroke-linejoin:miter;stroke-opacity:1"/>
<path class="bond-6 atom-6 atom-7" d="M 44.0,114.5 L 33.4,133.0" style="fill:none;fill-rule:evenodd;stroke:#FF0000;stroke-width:2.0px;stroke-linecap:butt;stroke-linejoin:miter;stroke-opacity:1"/>
<path class="bond-6 atom-6 atom-7" d="M 61.3,99.9 L 50.6,118.3" style="fill:none;fill-rule:evenodd;stroke:#000000;stroke-width:2.0px;stroke-linecap:butt;stroke-linejoin:miter;stroke-opacity:1"/>
<path class="bond-6 atom-6 atom-7" d="M 50.6,118.3 L 40.0,136.8" style="fill:none;fill-rule:evenodd;stroke:#FF0000;stroke-width:2.0px;stroke-linecap:butt;stroke-linejoin:miter;stroke-opacity:1"/>
<path class="bond-7 atom-6 atom-8" d="M 56.9,99.9 L 46.9,82.5" style="fill:none;fill-rule:evenodd;stroke:#000000;stroke-width:2.0px;stroke-linecap:butt;stroke-linejoin:miter;stroke-opacity:1"/>
<path class="bond-7 atom-6 atom-8" d="M 46.9,82.5 L 36.8,65.1" style="fill:none;fill-rule:evenodd;stroke:#FF0000;stroke-width:2.0px;stroke-linecap:butt;stroke-linejoin:miter;stroke-opacity:1"/>
<path d="M 59.4,99.9 L 56.9,99.9 L 56.4,99.0" style="fill:none;stroke:#000000;stroke-width:2.0px;stroke-linecap:butt;stroke-linejoin:miter;stroke-opacity:1;"/>
<path class="atom-2" d="M 177.1 143.9 Q 177.1 140.4, 178.8 138.5 Q 180.5 136.5, 183.7 136.5 Q 186.9 136.5, 188.6 138.5 Q 190.3 140.4, 190.3 143.9 Q 190.3 147.3, 188.6 149.3 Q 186.8 151.3, 183.7 151.3 Q 180.5 151.3, 178.8 149.3 Q 177.1 147.4, 177.1 143.9 M 183.7 149.7 Q 185.9 149.7, 187.0 148.2 Q 188.2 146.7, 188.2 143.9 Q 188.2 141.0, 187.0 139.6 Q 185.9 138.2, 183.7 138.2 Q 181.5 138.2, 180.3 139.6 Q 179.1 141.0, 179.1 143.9 Q 179.1 146.8, 180.3 148.2 Q 181.5 149.7, 183.7 149.7 " fill="#FF0000"/>
<path class="atom-2" d="M 192.5 136.7 L 194.5 136.7 L 194.5 142.8 L 201.8 142.8 L 201.8 136.7 L 203.7 136.7 L 203.7 151.1 L 201.8 151.1 L 201.8 144.4 L 194.5 144.4 L 194.5 151.1 L 192.5 151.1 L 192.5 136.7 " fill="#FF0000"/>
<path class="atom-7" d="M 24.9 143.9 Q 24.9 140.4, 26.6 138.5 Q 28.3 136.5, 31.5 136.5 Q 34.7 136.5, 36.4 138.5 Q 38.1 140.4, 38.1 143.9 Q 38.1 147.3, 36.4 149.3 Q 34.7 151.3, 31.5 151.3 Q 28.4 151.3, 26.6 149.3 Q 24.9 147.4, 24.9 143.9 M 31.5 149.7 Q 33.7 149.7, 34.9 148.2 Q 36.1 146.7, 36.1 143.9 Q 36.1 141.0, 34.9 139.6 Q 33.7 138.2, 31.5 138.2 Q 29.3 138.2, 28.1 139.6 Q 27.0 141.0, 27.0 143.9 Q 27.0 146.8, 28.1 148.2 Q 29.3 149.7, 31.5 149.7 " fill="#FF0000"/>
<path class="atom-8" d="M 10.7 48.9 L 12.7 48.9 L 12.7 55.0 L 20.0 55.0 L 20.0 48.9 L 22.0 48.9 L 22.0 63.2 L 20.0 63.2 L 20.0 56.6 L 12.7 56.6 L 12.7 63.2 L 10.7 63.2 L 10.7 48.9 " fill="#FF0000"/>
<path class="atom-8" d="M 24.9 56.0 Q 24.9 52.6, 26.6 50.6 Q 28.3 48.7, 31.5 48.7 Q 34.7 48.7, 36.4 50.6 Q 38.1 52.6, 38.1 56.0 Q 38.1 59.5, 36.4 61.5 Q 34.7 63.5, 31.5 63.5 Q 28.4 63.5, 26.6 61.5 Q 24.9 59.5, 24.9 56.0 M 31.5 61.8 Q 33.7 61.8, 34.9 60.4 Q 36.1 58.9, 36.1 56.0 Q 36.1 53.2, 34.9 51.8 Q 33.7 50.3, 31.5 50.3 Q 29.3 50.3, 28.1 51.7 Q 27.0 53.2, 27.0 56.0 Q 27.0 58.9, 28.1 60.4 Q 29.3 61.8, 31.5 61.8 " fill="#FF0000"/>
</g>
  </g>
</svg>
