<?xml version='1.0' encoding='ASCII' standalone='yes'?>
<svg xmlns="http://www.w3.org/2000/svg" xmlns:xlink="http://www.w3.org/1999/xlink" version="1.1" width="1095.0px" viewBox="0 0 1095.0 200.0" height="200.0px">
  <g>
    <g transform="translate(0, 0) scale(1 1) "><!-- END OF HEADER -->
<rect style="opacity:1.0;fill:#FFFFFF;stroke:none" width="361.0" height="200.0" x="0.0" y="0.0"> </rect>
<path class="bond-0 atom-0 atom-1" d="M 162.0,82.3 L 172.2,96.1" style="fill:none;fill-rule:evenodd;stroke:#000000;stroke-width:2.0px;stroke-linecap:butt;stroke-linejoin:miter;stroke-opacity:1"/>
<path class="bond-1 atom-1 atom-2" d="M 172.2,96.1 L 182.4,109.9" style="fill:none;fill-rule:evenodd;stroke:#000000;stroke-width:2.0px;stroke-linecap:butt;stroke-linejoin:miter;stroke-opacity:1"/>
<path class="bond-2 atom-1 atom-3" d="M 172.2,96.1 L 186.0,85.9" style="fill:none;fill-rule:evenodd;stroke:#000000;stroke-width:2.0px;stroke-linecap:butt;stroke-linejoin:miter;stroke-opacity:1"/>
<path class="bond-3 atom-3 atom-4" d="M 186.0,85.9 L 185.2,78.9" style="fill:none;fill-rule:evenodd;stroke:#000000;stroke-width:2.0px;stroke-linecap:butt;stroke-linejoin:miter;stroke-opacity:1"/>
<path class="bond-3 atom-3 atom-4" d="M 185.2,78.9 L 184.5,71.9" style="fill:none;fill-rule:evenodd;stroke:#FF0000;stroke-width:2.0px;stroke-linecap:butt;stroke-linejoin:miter;stroke-opacity:1"/>
<path class="bond-4 atom-4 atom-5" d="M 186.9,66.8 L 191.4,63.5" style="fill:none;fill-rule:evenodd;stroke:#FF0000;stroke-width:2.0px;stroke-linecap:butt;stroke-linejoin:miter;stroke-opacity:1"/>
<path class="bond-4 atom-4 atom-5" d="M 191.4,63.5 L 195.8,60.2" style="fill:none;fill-rule:evenodd;stroke:#FF7F00;stroke-width:2.0px;stroke-linecap:butt;stroke-linejoin:miter;stroke-opacity:1"/>
<path class="bond-5 atom-5 atom-6" d="M 196.9,55.0 L 194.0,51.1" style="fill:none;fill-rule:evenodd;stroke:#FF7F00;stroke-width:2.0px;stroke-linecap:butt;stroke-linejoin:miter;stroke-opacity:1"/>
<path class="bond-5 atom-5 atom-6" d="M 194.0,51.1 L 191.1,47.2" style="fill:none;fill-rule:evenodd;stroke:#FF0000;stroke-width:2.0px;stroke-linecap:butt;stroke-linejoin:miter;stroke-opacity:1"/>
<path class="bond-5 atom-5 atom-6" d="M 194.8,56.5 L 191.9,52.6" style="fill:none;fill-rule:evenodd;stroke:#FF7F00;stroke-width:2.0px;stroke-linecap:butt;stroke-linejoin:miter;stroke-opacity:1"/>
<path class="bond-5 atom-5 atom-6" d="M 191.9,52.6 L 189.0,48.7" style="fill:none;fill-rule:evenodd;stroke:#FF0000;stroke-width:2.0px;stroke-linecap:butt;stroke-linejoin:miter;stroke-opacity:1"/>
<path class="bond-6 atom-5 atom-7" d="M 200.1,61.5 L 203.0,65.5" style="fill:none;fill-rule:evenodd;stroke:#FF7F00;stroke-width:2.0px;stroke-linecap:butt;stroke-linejoin:miter;stroke-opacity:1"/>
<path class="bond-6 atom-5 atom-7" d="M 203.0,65.5 L 205.9,69.5" style="fill:none;fill-rule:evenodd;stroke:#FF0000;stroke-width:2.0px;stroke-linecap:butt;stroke-linejoin:miter;stroke-opacity:1"/>
<path class="bond-7 atom-5 atom-8" d="M 200.1,57.1 L 204.5,53.8" style="fill:none;fill-rule:evenodd;stroke:#FF7F00;stroke-width:2.0px;stroke-linecap:butt;stroke-linejoin:miter;stroke-opacity:1"/>
<path class="bond-7 atom-5 atom-8" d="M 204.5,53.8 L 209.0,50.5" style="fill:none;fill-rule:evenodd;stroke:#FF0000;stroke-width:2.0px;stroke-linecap:butt;stroke-linejoin:miter;stroke-opacity:1"/>
<path class="bond-8 atom-8 atom-9" d="M 214.6,49.7 L 220.0,52.1" style="fill:none;fill-rule:evenodd;stroke:#FF0000;stroke-width:2.0px;stroke-linecap:butt;stroke-linejoin:miter;stroke-opacity:1"/>
<path class="bond-8 atom-8 atom-9" d="M 220.0,52.1 L 225.4,54.4" style="fill:none;fill-rule:evenodd;stroke:#FF7F00;stroke-width:2.0px;stroke-linecap:butt;stroke-linejoin:miter;stroke-opacity:1"/>
<path class="bond-9 atom-9 atom-10" d="M 225.0,57.8 L 222.9,62.7" style="fill:none;fill-rule:evenodd;stroke:#FF7F00;stroke-width:2.0px;stroke-linecap:butt;stroke-linejoin:miter;stroke-opacity:1"/>
<path class="bond-9 atom-9 atom-10" d="M 222.9,62.7 L 220.8,67.5" style="fill:none;fill-rule:evenodd;stroke:#FF0000;stroke-width:2.0px;stroke-linecap:butt;stroke-linejoin:miter;stroke-opacity:1"/>
<path class="bond-9 atom-9 atom-10" d="M 227.4,58.9 L 225.3,63.7" style="fill:none;fill-rule:evenodd;stroke:#FF7F00;stroke-width:2.0px;stroke-linecap:butt;stroke-linejoin:miter;stroke-opacity:1"/>
<path class="bond-9 atom-9 atom-10" d="M 225.3,63.7 L 223.1,68.6" style="fill:none;fill-rule:evenodd;stroke:#FF0000;stroke-width:2.0px;stroke-linecap:butt;stroke-linejoin:miter;stroke-opacity:1"/>
<path class="bond-10 atom-9 atom-11" d="M 228.8,52.4 L 230.9,47.5" style="fill:none;fill-rule:evenodd;stroke:#FF7F00;stroke-width:2.0px;stroke-linecap:butt;stroke-linejoin:miter;stroke-opacity:1"/>
<path class="bond-10 atom-9 atom-11" d="M 230.9,47.5 L 233.0,42.7" style="fill:none;fill-rule:evenodd;stroke:#FF0000;stroke-width:2.0px;stroke-linecap:butt;stroke-linejoin:miter;stroke-opacity:1"/>
<path class="bond-11 atom-9 atom-12" d="M 229.6,56.3 L 235.0,58.6" style="fill:none;fill-rule:evenodd;stroke:#FF7F00;stroke-width:2.0px;stroke-linecap:butt;stroke-linejoin:miter;stroke-opacity:1"/>
<path class="bond-11 atom-9 atom-12" d="M 235.0,58.6 L 240.5,61.0" style="fill:none;fill-rule:evenodd;stroke:#FF0000;stroke-width:2.0px;stroke-linecap:butt;stroke-linejoin:miter;stroke-opacity:1"/>
<path class="bond-12 atom-12 atom-13" d="M 243.6,65.3 L 244.4,72.3" style="fill:none;fill-rule:evenodd;stroke:#FF0000;stroke-width:2.0px;stroke-linecap:butt;stroke-linejoin:miter;stroke-opacity:1"/>
<path class="bond-12 atom-12 atom-13" d="M 244.4,72.3 L 245.2,79.3" style="fill:none;fill-rule:evenodd;stroke:#000000;stroke-width:2.0px;stroke-linecap:butt;stroke-linejoin:miter;stroke-opacity:1"/>
<path class="bond-13 atom-13 atom-14" d="M 245.2,79.3 L 260.9,86.2" style="fill:none;fill-rule:evenodd;stroke:#000000;stroke-width:2.0px;stroke-linecap:butt;stroke-linejoin:miter;stroke-opacity:1"/>
<path class="bond-14 atom-14 atom-15" d="M 260.9,86.2 L 262.4,93.1" style="fill:none;fill-rule:evenodd;stroke:#000000;stroke-width:2.0px;stroke-linecap:butt;stroke-linejoin:miter;stroke-opacity:1"/>
<path class="bond-14 atom-14 atom-15" d="M 262.4,93.1 L 263.9,99.9" style="fill:none;fill-rule:evenodd;stroke:#FF0000;stroke-width:2.0px;stroke-linecap:butt;stroke-linejoin:miter;stroke-opacity:1"/>
<path class="bond-15 atom-15 atom-16" d="M 267.4,103.2 L 274.5,104.0" style="fill:none;fill-rule:evenodd;stroke:#FF0000;stroke-width:2.0px;stroke-linecap:butt;stroke-linejoin:miter;stroke-opacity:1"/>
<path class="bond-15 atom-15 atom-16" d="M 274.5,104.0 L 281.7,104.7" style="fill:none;fill-rule:evenodd;stroke:#000000;stroke-width:2.0px;stroke-linecap:butt;stroke-linejoin:miter;stroke-opacity:1"/>
<path class="bond-16 atom-16 atom-17" d="M 281.7,104.7 L 285.1,110.6" style="fill:none;fill-rule:evenodd;stroke:#000000;stroke-width:2.0px;stroke-linecap:butt;stroke-linejoin:miter;stroke-opacity:1"/>
<path class="bond-16 atom-16 atom-17" d="M 285.1,110.6 L 288.6,116.5" style="fill:none;fill-rule:evenodd;stroke:#0000FF;stroke-width:2.0px;stroke-linecap:butt;stroke-linejoin:miter;stroke-opacity:1"/>
<path class="bond-17 atom-17 atom-18" d="M 289.1,122.5 L 286.3,128.8" style="fill:none;fill-rule:evenodd;stroke:#0000FF;stroke-width:2.0px;stroke-linecap:butt;stroke-linejoin:miter;stroke-opacity:1"/>
<path class="bond-17 atom-17 atom-18" d="M 286.3,128.8 L 283.5,135.2" style="fill:none;fill-rule:evenodd;stroke:#000000;stroke-width:2.0px;stroke-linecap:butt;stroke-linejoin:miter;stroke-opacity:1"/>
<path class="bond-18 atom-18 atom-19" d="M 283.5,135.2 L 288.7,139.8" style="fill:none;fill-rule:evenodd;stroke:#000000;stroke-width:2.0px;stroke-linecap:butt;stroke-linejoin:miter;stroke-opacity:1"/>
<path class="bond-18 atom-18 atom-19" d="M 288.7,139.8 L 293.9,144.5" style="fill:none;fill-rule:evenodd;stroke:#0000FF;stroke-width:2.0px;stroke-linecap:butt;stroke-linejoin:miter;stroke-opacity:1"/>
<path class="bond-18 atom-18 atom-19" d="M 286.6,134.5 L 291.1,138.5" style="fill:none;fill-rule:evenodd;stroke:#000000;stroke-width:2.0px;stroke-linecap:butt;stroke-linejoin:miter;stroke-opacity:1"/>
<path class="bond-18 atom-18 atom-19" d="M 291.1,138.5 L 295.6,142.6" style="fill:none;fill-rule:evenodd;stroke:#0000FF;stroke-width:2.0px;stroke-linecap:butt;stroke-linejoin:miter;stroke-opacity:1"/>
<path class="bond-19 atom-19 atom-20" d="M 298.7,145.2 L 304.9,141.6" style="fill:none;fill-rule:evenodd;stroke:#0000FF;stroke-width:2.0px;stroke-linecap:butt;stroke-linejoin:miter;stroke-opacity:1"/>
<path class="bond-19 atom-19 atom-20" d="M 304.9,141.6 L 311.1,137.9" style="fill:none;fill-rule:evenodd;stroke:#000000;stroke-width:2.0px;stroke-linecap:butt;stroke-linejoin:miter;stroke-opacity:1"/>
<path class="bond-20 atom-20 atom-21" d="M 311.1,137.9 L 327.5,143.1" style="fill:none;fill-rule:evenodd;stroke:#000000;stroke-width:2.0px;stroke-linecap:butt;stroke-linejoin:miter;stroke-opacity:1"/>
<path class="bond-20 atom-20 atom-21" d="M 313.3,135.9 L 326.9,140.2" style="fill:none;fill-rule:evenodd;stroke:#000000;stroke-width:2.0px;stroke-linecap:butt;stroke-linejoin:miter;stroke-opacity:1"/>
<path class="bond-21 atom-21 atom-22" d="M 327.5,143.1 L 329.0,150.0" style="fill:none;fill-rule:evenodd;stroke:#000000;stroke-width:2.0px;stroke-linecap:butt;stroke-linejoin:miter;stroke-opacity:1"/>
<path class="bond-21 atom-21 atom-22" d="M 329.0,150.0 L 330.5,156.9" style="fill:none;fill-rule:evenodd;stroke:#0000FF;stroke-width:2.0px;stroke-linecap:butt;stroke-linejoin:miter;stroke-opacity:1"/>
<path class="bond-22 atom-21 atom-23" d="M 327.5,143.1 L 332.7,138.5" style="fill:none;fill-rule:evenodd;stroke:#000000;stroke-width:2.0px;stroke-linecap:butt;stroke-linejoin:miter;stroke-opacity:1"/>
<path class="bond-22 atom-21 atom-23" d="M 332.7,138.5 L 337.8,133.8" style="fill:none;fill-rule:evenodd;stroke:#0000FF;stroke-width:2.0px;stroke-linecap:butt;stroke-linejoin:miter;stroke-opacity:1"/>
<path class="bond-23 atom-23 atom-24" d="M 339.5,128.6 L 338.0,121.7" style="fill:none;fill-rule:evenodd;stroke:#0000FF;stroke-width:2.0px;stroke-linecap:butt;stroke-linejoin:miter;stroke-opacity:1"/>
<path class="bond-23 atom-23 atom-24" d="M 338.0,121.7 L 336.5,114.8" style="fill:none;fill-rule:evenodd;stroke:#000000;stroke-width:2.0px;stroke-linecap:butt;stroke-linejoin:miter;stroke-opacity:1"/>
<path class="bond-23 atom-23 atom-24" d="M 337.0,129.1 L 335.7,123.0" style="fill:none;fill-rule:evenodd;stroke:#0000FF;stroke-width:2.0px;stroke-linecap:butt;stroke-linejoin:miter;stroke-opacity:1"/>
<path class="bond-23 atom-23 atom-24" d="M 335.7,123.0 L 334.3,116.8" style="fill:none;fill-rule:evenodd;stroke:#000000;stroke-width:2.0px;stroke-linecap:butt;stroke-linejoin:miter;stroke-opacity:1"/>
<path class="bond-24 atom-24 atom-25" d="M 336.5,114.8 L 329.5,112.6" style="fill:none;fill-rule:evenodd;stroke:#000000;stroke-width:2.0px;stroke-linecap:butt;stroke-linejoin:miter;stroke-opacity:1"/>
<path class="bond-24 atom-24 atom-25" d="M 329.5,112.6 L 322.6,110.3" style="fill:none;fill-rule:evenodd;stroke:#0000FF;stroke-width:2.0px;stroke-linecap:butt;stroke-linejoin:miter;stroke-opacity:1"/>
<path class="bond-25 atom-25 atom-26" d="M 317.7,111.8 L 312.6,116.5" style="fill:none;fill-rule:evenodd;stroke:#0000FF;stroke-width:2.0px;stroke-linecap:butt;stroke-linejoin:miter;stroke-opacity:1"/>
<path class="bond-25 atom-25 atom-26" d="M 312.6,116.5 L 307.5,121.2" style="fill:none;fill-rule:evenodd;stroke:#000000;stroke-width:2.0px;stroke-linecap:butt;stroke-linejoin:miter;stroke-opacity:1"/>
<path class="bond-25 atom-25 atom-26" d="M 319.5,113.7 L 314.9,117.9" style="fill:none;fill-rule:evenodd;stroke:#0000FF;stroke-width:2.0px;stroke-linecap:butt;stroke-linejoin:miter;stroke-opacity:1"/>
<path class="bond-25 atom-25 atom-26" d="M 314.9,117.9 L 310.3,122.1" style="fill:none;fill-rule:evenodd;stroke:#000000;stroke-width:2.0px;stroke-linecap:butt;stroke-linejoin:miter;stroke-opacity:1"/>
<path class="bond-26 atom-16 atom-27" d="M 281.7,104.7 L 288.6,88.9" style="fill:none;fill-rule:evenodd;stroke:#000000;stroke-width:2.0px;stroke-linecap:butt;stroke-linejoin:miter;stroke-opacity:1"/>
<path class="bond-27 atom-27 atom-28" d="M 288.6,88.9 L 295.6,87.4" style="fill:none;fill-rule:evenodd;stroke:#000000;stroke-width:2.0px;stroke-linecap:butt;stroke-linejoin:miter;stroke-opacity:1"/>
<path class="bond-27 atom-27 atom-28" d="M 295.6,87.4 L 302.5,85.9" style="fill:none;fill-rule:evenodd;stroke:#FF0000;stroke-width:2.0px;stroke-linecap:butt;stroke-linejoin:miter;stroke-opacity:1"/>
<path class="bond-28 atom-27 atom-29" d="M 288.6,88.9 L 275.7,77.5" style="fill:none;fill-rule:evenodd;stroke:#000000;stroke-width:2.0px;stroke-linecap:butt;stroke-linejoin:miter;stroke-opacity:1"/>
<path class="bond-29 atom-29 atom-30" d="M 275.7,77.5 L 276.4,70.5" style="fill:none;fill-rule:evenodd;stroke:#000000;stroke-width:2.0px;stroke-linecap:butt;stroke-linejoin:miter;stroke-opacity:1"/>
<path class="bond-29 atom-29 atom-30" d="M 276.4,70.5 L 277.1,63.5" style="fill:none;fill-rule:evenodd;stroke:#FF0000;stroke-width:2.0px;stroke-linecap:butt;stroke-linejoin:miter;stroke-opacity:1"/>
<path class="bond-30 atom-30 atom-31" d="M 280.2,59.1 L 285.6,56.7" style="fill:none;fill-rule:evenodd;stroke:#FF0000;stroke-width:2.0px;stroke-linecap:butt;stroke-linejoin:miter;stroke-opacity:1"/>
<path class="bond-30 atom-30 atom-31" d="M 285.6,56.7 L 290.9,54.3" style="fill:none;fill-rule:evenodd;stroke:#FF7F00;stroke-width:2.0px;stroke-linecap:butt;stroke-linejoin:miter;stroke-opacity:1"/>
<path class="bond-31 atom-31 atom-32" d="M 292.9,49.8 L 290.7,45.0" style="fill:none;fill-rule:evenodd;stroke:#FF7F00;stroke-width:2.0px;stroke-linecap:butt;stroke-linejoin:miter;stroke-opacity:1"/>
<path class="bond-31 atom-31 atom-32" d="M 290.7,45.0 L 288.5,40.2" style="fill:none;fill-rule:evenodd;stroke:#FF0000;stroke-width:2.0px;stroke-linecap:butt;stroke-linejoin:miter;stroke-opacity:1"/>
<path class="bond-31 atom-31 atom-32" d="M 290.5,50.9 L 288.4,46.1" style="fill:none;fill-rule:evenodd;stroke:#FF7F00;stroke-width:2.0px;stroke-linecap:butt;stroke-linejoin:miter;stroke-opacity:1"/>
<path class="bond-31 atom-31 atom-32" d="M 288.4,46.1 L 286.2,41.3" style="fill:none;fill-rule:evenodd;stroke:#FF0000;stroke-width:2.0px;stroke-linecap:butt;stroke-linejoin:miter;stroke-opacity:1"/>
<path class="bond-32 atom-31 atom-33" d="M 294.4,56.3 L 296.6,61.1" style="fill:none;fill-rule:evenodd;stroke:#FF7F00;stroke-width:2.0px;stroke-linecap:butt;stroke-linejoin:miter;stroke-opacity:1"/>
<path class="bond-32 atom-31 atom-33" d="M 296.6,61.1 L 298.8,65.9" style="fill:none;fill-rule:evenodd;stroke:#FF0000;stroke-width:2.0px;stroke-linecap:butt;stroke-linejoin:miter;stroke-opacity:1"/>
<path class="bond-33 atom-31 atom-34" d="M 295.2,52.4 L 300.5,49.9" style="fill:none;fill-rule:evenodd;stroke:#FF7F00;stroke-width:2.0px;stroke-linecap:butt;stroke-linejoin:miter;stroke-opacity:1"/>
<path class="bond-33 atom-31 atom-34" d="M 300.5,49.9 L 305.9,47.5" style="fill:none;fill-rule:evenodd;stroke:#FF0000;stroke-width:2.0px;stroke-linecap:butt;stroke-linejoin:miter;stroke-opacity:1"/>
<path class="bond-34 atom-1 atom-35" d="M 172.2,96.1 L 158.4,106.3" style="fill:none;fill-rule:evenodd;stroke:#000000;stroke-width:2.0px;stroke-linecap:butt;stroke-linejoin:miter;stroke-opacity:1"/>
<path class="bond-35 atom-35 atom-36" d="M 158.4,106.3 L 159.1,113.3" style="fill:none;fill-rule:evenodd;stroke:#000000;stroke-width:2.0px;stroke-linecap:butt;stroke-linejoin:miter;stroke-opacity:1"/>
<path class="bond-35 atom-35 atom-36" d="M 159.1,113.3 L 159.9,120.3" style="fill:none;fill-rule:evenodd;stroke:#FF0000;stroke-width:2.0px;stroke-linecap:butt;stroke-linejoin:miter;stroke-opacity:1"/>
<path class="bond-36 atom-35 atom-37" d="M 158.4,106.3 L 142.6,99.4" style="fill:none;fill-rule:evenodd;stroke:#000000;stroke-width:2.0px;stroke-linecap:butt;stroke-linejoin:miter;stroke-opacity:1"/>
<path class="bond-37 atom-37 atom-38" d="M 144.0,100.0 L 143.2,92.6" style="fill:none;fill-rule:evenodd;stroke:#000000;stroke-width:2.0px;stroke-linecap:butt;stroke-linejoin:miter;stroke-opacity:1"/>
<path class="bond-37 atom-37 atom-38" d="M 143.2,92.6 L 142.3,85.3" style="fill:none;fill-rule:evenodd;stroke:#FF0000;stroke-width:2.0px;stroke-linecap:butt;stroke-linejoin:miter;stroke-opacity:1"/>
<path class="bond-37 atom-37 atom-38" d="M 141.4,100.3 L 140.6,92.9" style="fill:none;fill-rule:evenodd;stroke:#000000;stroke-width:2.0px;stroke-linecap:butt;stroke-linejoin:miter;stroke-opacity:1"/>
<path class="bond-37 atom-37 atom-38" d="M 140.6,92.9 L 139.8,85.6" style="fill:none;fill-rule:evenodd;stroke:#FF0000;stroke-width:2.0px;stroke-linecap:butt;stroke-linejoin:miter;stroke-opacity:1"/>
<path class="bond-38 atom-37 atom-39" d="M 142.6,99.4 L 136.9,103.6" style="fill:none;fill-rule:evenodd;stroke:#000000;stroke-width:2.0px;stroke-linecap:butt;stroke-linejoin:miter;stroke-opacity:1"/>
<path class="bond-38 atom-37 atom-39" d="M 136.9,103.6 L 131.2,107.8" style="fill:none;fill-rule:evenodd;stroke:#0000FF;stroke-width:2.0px;stroke-linecap:butt;stroke-linejoin:miter;stroke-opacity:1"/>
<path class="bond-39 atom-39 atom-40" d="M 126.4,108.5 L 119.7,105.6" style="fill:none;fill-rule:evenodd;stroke:#0000FF;stroke-width:2.0px;stroke-linecap:butt;stroke-linejoin:miter;stroke-opacity:1"/>
<path class="bond-39 atom-39 atom-40" d="M 119.7,105.6 L 113.1,102.7" style="fill:none;fill-rule:evenodd;stroke:#000000;stroke-width:2.0px;stroke-linecap:butt;stroke-linejoin:miter;stroke-opacity:1"/>
<path class="bond-40 atom-40 atom-41" d="M 113.1,102.7 L 99.2,112.9" style="fill:none;fill-rule:evenodd;stroke:#000000;stroke-width:2.0px;stroke-linecap:butt;stroke-linejoin:miter;stroke-opacity:1"/>
<path class="bond-41 atom-41 atom-42" d="M 99.2,112.9 L 83.5,106.0" style="fill:none;fill-rule:evenodd;stroke:#000000;stroke-width:2.0px;stroke-linecap:butt;stroke-linejoin:miter;stroke-opacity:1"/>
<path class="bond-42 atom-42 atom-43" d="M 84.8,106.6 L 84.0,99.3" style="fill:none;fill-rule:evenodd;stroke:#000000;stroke-width:2.0px;stroke-linecap:butt;stroke-linejoin:miter;stroke-opacity:1"/>
<path class="bond-42 atom-42 atom-43" d="M 84.0,99.3 L 83.2,91.9" style="fill:none;fill-rule:evenodd;stroke:#FF0000;stroke-width:2.0px;stroke-linecap:butt;stroke-linejoin:miter;stroke-opacity:1"/>
<path class="bond-42 atom-42 atom-43" d="M 82.3,106.9 L 81.5,99.5" style="fill:none;fill-rule:evenodd;stroke:#000000;stroke-width:2.0px;stroke-linecap:butt;stroke-linejoin:miter;stroke-opacity:1"/>
<path class="bond-42 atom-42 atom-43" d="M 81.5,99.5 L 80.6,92.2" style="fill:none;fill-rule:evenodd;stroke:#FF0000;stroke-width:2.0px;stroke-linecap:butt;stroke-linejoin:miter;stroke-opacity:1"/>
<path class="bond-43 atom-42 atom-44" d="M 83.5,106.0 L 77.8,110.2" style="fill:none;fill-rule:evenodd;stroke:#000000;stroke-width:2.0px;stroke-linecap:butt;stroke-linejoin:miter;stroke-opacity:1"/>
<path class="bond-43 atom-42 atom-44" d="M 77.8,110.2 L 72.1,114.4" style="fill:none;fill-rule:evenodd;stroke:#0000FF;stroke-width:2.0px;stroke-linecap:butt;stroke-linejoin:miter;stroke-opacity:1"/>
<path class="bond-44 atom-44 atom-45" d="M 67.2,115.1 L 60.6,112.2" style="fill:none;fill-rule:evenodd;stroke:#0000FF;stroke-width:2.0px;stroke-linecap:butt;stroke-linejoin:miter;stroke-opacity:1"/>
<path class="bond-44 atom-44 atom-45" d="M 60.6,112.2 L 53.9,109.3" style="fill:none;fill-rule:evenodd;stroke:#000000;stroke-width:2.0px;stroke-linecap:butt;stroke-linejoin:miter;stroke-opacity:1"/>
<path class="bond-45 atom-45 atom-46" d="M 53.9,109.3 L 40.1,119.5" style="fill:none;fill-rule:evenodd;stroke:#000000;stroke-width:2.0px;stroke-linecap:butt;stroke-linejoin:miter;stroke-opacity:1"/>
<path class="bond-46 atom-46 atom-47" d="M 40.1,119.5 L 33.3,116.5" style="fill:none;fill-rule:evenodd;stroke:#000000;stroke-width:2.0px;stroke-linecap:butt;stroke-linejoin:miter;stroke-opacity:1"/>
<path class="bond-46 atom-46 atom-47" d="M 33.3,116.5 L 26.5,113.6" style="fill:none;fill-rule:evenodd;stroke:#CCCC00;stroke-width:2.0px;stroke-linecap:butt;stroke-linejoin:miter;stroke-opacity:1"/>
<path class="bond-47 atom-29 atom-14" d="M 275.7,77.5 L 260.9,86.2" style="fill:none;fill-rule:evenodd;stroke:#000000;stroke-width:2.0px;stroke-linecap:butt;stroke-linejoin:miter;stroke-opacity:1"/>
<path class="bond-48 atom-26 atom-17" d="M 307.5,121.2 L 300.1,120.4" style="fill:none;fill-rule:evenodd;stroke:#000000;stroke-width:2.0px;stroke-linecap:butt;stroke-linejoin:miter;stroke-opacity:1"/>
<path class="bond-48 atom-26 atom-17" d="M 300.1,120.4 L 292.8,119.7" style="fill:none;fill-rule:evenodd;stroke:#0000FF;stroke-width:2.0px;stroke-linecap:butt;stroke-linejoin:miter;stroke-opacity:1"/>
<path class="bond-49 atom-26 atom-20" d="M 307.5,121.2 L 311.1,137.9" style="fill:none;fill-rule:evenodd;stroke:#000000;stroke-width:2.0px;stroke-linecap:butt;stroke-linejoin:miter;stroke-opacity:1"/>
<path d="M 185.3,86.4 L 186.0,85.9 L 186.0,85.6" style="fill:none;stroke:#000000;stroke-width:2.0px;stroke-linecap:butt;stroke-linejoin:miter;stroke-opacity:1;"/>
<path d="M 245.1,79.0 L 245.2,79.3 L 246.0,79.7" style="fill:none;stroke:#000000;stroke-width:2.0px;stroke-linecap:butt;stroke-linejoin:miter;stroke-opacity:1;"/>
<path d="M 283.6,134.9 L 283.5,135.2 L 283.7,135.4" style="fill:none;stroke:#000000;stroke-width:2.0px;stroke-linecap:butt;stroke-linejoin:miter;stroke-opacity:1;"/>
<path d="M 336.6,115.1 L 336.5,114.8 L 336.2,114.7" style="fill:none;stroke:#000000;stroke-width:2.0px;stroke-linecap:butt;stroke-linejoin:miter;stroke-opacity:1;"/>
<path d="M 143.4,99.8 L 142.6,99.4 L 142.3,99.6" style="fill:none;stroke:#000000;stroke-width:2.0px;stroke-linecap:butt;stroke-linejoin:miter;stroke-opacity:1;"/>
<path d="M 113.4,102.9 L 113.1,102.7 L 112.4,103.2" style="fill:none;stroke:#000000;stroke-width:2.0px;stroke-linecap:butt;stroke-linejoin:miter;stroke-opacity:1;"/>
<path d="M 99.9,112.4 L 99.2,112.9 L 98.4,112.6" style="fill:none;stroke:#000000;stroke-width:2.0px;stroke-linecap:butt;stroke-linejoin:miter;stroke-opacity:1;"/>
<path d="M 84.3,106.4 L 83.5,106.0 L 83.2,106.2" style="fill:none;stroke:#000000;stroke-width:2.0px;stroke-linecap:butt;stroke-linejoin:miter;stroke-opacity:1;"/>
<path d="M 54.2,109.5 L 53.9,109.3 L 53.2,109.8" style="fill:none;stroke:#000000;stroke-width:2.0px;stroke-linecap:butt;stroke-linejoin:miter;stroke-opacity:1;"/>
<path d="M 40.8,119.0 L 40.1,119.5 L 39.7,119.4" style="fill:none;stroke:#000000;stroke-width:2.0px;stroke-linecap:butt;stroke-linejoin:miter;stroke-opacity:1;"/>
<path class="atom-4" d="M 181.9 68.9 Q 181.9 67.7, 182.5 67.0 Q 183.0 66.4, 184.1 66.4 Q 185.2 66.4, 185.8 67.0 Q 186.4 67.7, 186.4 68.9 Q 186.4 70.0, 185.8 70.7 Q 185.2 71.4, 184.1 71.4 Q 183.0 71.4, 182.5 70.7 Q 181.9 70.0, 181.9 68.9 M 184.1 70.8 Q 184.9 70.8, 185.3 70.3 Q 185.7 69.8, 185.7 68.9 Q 185.7 67.9, 185.3 67.4 Q 184.9 66.9, 184.1 66.9 Q 183.4 66.9, 183.0 67.4 Q 182.6 67.9, 182.6 68.9 Q 182.6 69.8, 183.0 70.3 Q 183.4 70.8, 184.1 70.8 " fill="#FF0000"/>
<path class="atom-5" d="M 197.8 56.2 Q 198.7 56.2, 199.1 56.6 Q 199.5 57.0, 199.5 57.7 Q 199.5 58.3, 199.1 58.7 Q 198.6 59.1, 197.8 59.1 L 197.1 59.1 L 197.1 61.1 L 196.4 61.1 L 196.4 56.2 L 197.8 56.2 M 197.8 58.5 Q 198.3 58.5, 198.6 58.3 Q 198.8 58.1, 198.8 57.7 Q 198.8 57.2, 198.6 57.0 Q 198.3 56.8, 197.8 56.8 L 197.1 56.8 L 197.1 58.5 L 197.8 58.5 " fill="#FF7F00"/>
<path class="atom-6" d="M 185.5 44.8 Q 185.5 43.7, 186.1 43.0 Q 186.7 42.4, 187.8 42.4 Q 188.8 42.4, 189.4 43.0 Q 190.0 43.7, 190.0 44.8 Q 190.0 46.0, 189.4 46.7 Q 188.8 47.4, 187.8 47.4 Q 186.7 47.4, 186.1 46.7 Q 185.5 46.0, 185.5 44.8 M 187.8 46.8 Q 188.5 46.8, 188.9 46.3 Q 189.3 45.8, 189.3 44.8 Q 189.3 43.9, 188.9 43.4 Q 188.5 42.9, 187.8 42.9 Q 187.0 42.9, 186.6 43.4 Q 186.2 43.9, 186.2 44.8 Q 186.2 45.8, 186.6 46.3 Q 187.0 46.8, 187.8 46.8 " fill="#FF0000"/>
<path class="atom-7" d="M 205.9 72.5 Q 205.9 71.3, 206.5 70.7 Q 207.1 70.0, 208.1 70.0 Q 209.2 70.0, 209.8 70.7 Q 210.4 71.3, 210.4 72.5 Q 210.4 73.7, 209.8 74.4 Q 209.2 75.0, 208.1 75.0 Q 207.1 75.0, 206.5 74.4 Q 205.9 73.7, 205.9 72.5 M 208.1 74.5 Q 208.9 74.5, 209.3 74.0 Q 209.7 73.5, 209.7 72.5 Q 209.7 71.5, 209.3 71.1 Q 208.9 70.6, 208.1 70.6 Q 207.4 70.6, 207.0 71.1 Q 206.6 71.5, 206.6 72.5 Q 206.6 73.5, 207.0 74.0 Q 207.4 74.5, 208.1 74.5 " fill="#FF0000"/>
<path class="atom-7" d="M 211.1 70.1 L 211.8 70.1 L 211.8 72.2 L 214.3 72.2 L 214.3 70.1 L 214.9 70.1 L 214.9 74.9 L 214.3 74.9 L 214.3 72.7 L 211.8 72.7 L 211.8 74.9 L 211.1 74.9 L 211.1 70.1 " fill="#FF0000"/>
<path class="atom-8" d="M 209.5 48.5 Q 209.5 47.3, 210.1 46.7 Q 210.7 46.0, 211.8 46.0 Q 212.9 46.0, 213.4 46.7 Q 214.0 47.3, 214.0 48.5 Q 214.0 49.7, 213.4 50.3 Q 212.8 51.0, 211.8 51.0 Q 210.7 51.0, 210.1 50.3 Q 209.5 49.7, 209.5 48.5 M 211.8 50.5 Q 212.5 50.5, 212.9 50.0 Q 213.3 49.5, 213.3 48.5 Q 213.3 47.5, 212.9 47.0 Q 212.5 46.6, 211.8 46.6 Q 211.0 46.6, 210.6 47.0 Q 210.2 47.5, 210.2 48.5 Q 210.2 49.5, 210.6 50.0 Q 211.0 50.5, 211.8 50.5 " fill="#FF0000"/>
<path class="atom-9" d="M 227.4 52.9 Q 228.2 52.9, 228.7 53.3 Q 229.1 53.7, 229.1 54.4 Q 229.1 55.0, 228.6 55.4 Q 228.2 55.8, 227.4 55.8 L 226.6 55.8 L 226.6 57.8 L 226.0 57.8 L 226.0 52.9 L 227.4 52.9 M 227.4 55.2 Q 227.9 55.2, 228.1 55.0 Q 228.4 54.8, 228.4 54.4 Q 228.4 53.9, 228.1 53.7 Q 227.9 53.5, 227.4 53.5 L 226.6 53.5 L 226.6 55.2 L 227.4 55.2 " fill="#FF7F00"/>
<path class="atom-10" d="M 218.4 71.1 Q 218.4 69.9, 219.0 69.3 Q 219.6 68.6, 220.6 68.6 Q 221.7 68.6, 222.3 69.3 Q 222.9 69.9, 222.9 71.1 Q 222.9 72.3, 222.3 73.0 Q 221.7 73.6, 220.6 73.6 Q 219.6 73.6, 219.0 73.0 Q 218.4 72.3, 218.4 71.1 M 220.6 73.1 Q 221.4 73.1, 221.8 72.6 Q 222.2 72.1, 222.2 71.1 Q 222.2 70.2, 221.8 69.7 Q 221.4 69.2, 220.6 69.2 Q 219.9 69.2, 219.5 69.7 Q 219.1 70.1, 219.1 71.1 Q 219.1 72.1, 219.5 72.6 Q 219.9 73.1, 220.6 73.1 " fill="#FF0000"/>
<path class="atom-11" d="M 232.2 39.6 Q 232.2 38.5, 232.7 37.8 Q 233.3 37.2, 234.4 37.2 Q 235.5 37.2, 236.1 37.8 Q 236.6 38.5, 236.6 39.6 Q 236.6 40.8, 236.1 41.5 Q 235.5 42.2, 234.4 42.2 Q 233.3 42.2, 232.7 41.5 Q 232.2 40.8, 232.2 39.6 M 234.4 41.6 Q 235.1 41.6, 235.5 41.1 Q 235.9 40.6, 235.9 39.6 Q 235.9 38.7, 235.5 38.2 Q 235.1 37.7, 234.4 37.7 Q 233.7 37.7, 233.3 38.2 Q 232.9 38.7, 232.9 39.6 Q 232.9 40.6, 233.3 41.1 Q 233.7 41.6, 234.4 41.6 " fill="#FF0000"/>
<path class="atom-11" d="M 237.4 37.2 L 238.1 37.2 L 238.1 39.3 L 240.5 39.3 L 240.5 37.2 L 241.2 37.2 L 241.2 42.1 L 240.5 42.1 L 240.5 39.8 L 238.1 39.8 L 238.1 42.1 L 237.4 42.1 L 237.4 37.2 " fill="#FF0000"/>
<path class="atom-12" d="M 241.0 62.3 Q 241.0 61.1, 241.6 60.4 Q 242.2 59.8, 243.3 59.8 Q 244.3 59.8, 244.9 60.4 Q 245.5 61.1, 245.5 62.3 Q 245.5 63.4, 244.9 64.1 Q 244.3 64.8, 243.3 64.8 Q 242.2 64.8, 241.6 64.1 Q 241.0 63.4, 241.0 62.3 M 243.3 64.2 Q 244.0 64.2, 244.4 63.7 Q 244.8 63.2, 244.8 62.3 Q 244.8 61.3, 244.4 60.8 Q 244.0 60.3, 243.3 60.3 Q 242.5 60.3, 242.1 60.8 Q 241.7 61.3, 241.7 62.3 Q 241.7 63.2, 242.1 63.7 Q 242.5 64.2, 243.3 64.2 " fill="#FF0000"/>
<path class="atom-15" d="M 262.4 103.0 Q 262.4 101.8, 262.9 101.2 Q 263.5 100.5, 264.6 100.5 Q 265.7 100.5, 266.2 101.2 Q 266.8 101.8, 266.8 103.0 Q 266.8 104.2, 266.2 104.8 Q 265.6 105.5, 264.6 105.5 Q 263.5 105.5, 262.9 104.8 Q 262.4 104.2, 262.4 103.0 M 264.6 105.0 Q 265.3 105.0, 265.7 104.5 Q 266.1 104.0, 266.1 103.0 Q 266.1 102.0, 265.7 101.6 Q 265.3 101.1, 264.6 101.1 Q 263.8 101.1, 263.4 101.5 Q 263.0 102.0, 263.0 103.0 Q 263.0 104.0, 263.4 104.5 Q 263.8 105.0, 264.6 105.0 " fill="#FF0000"/>
<path class="atom-17" d="M 289.3 117.0 L 290.9 119.6 Q 291.0 119.9, 291.3 120.3 Q 291.6 120.8, 291.6 120.8 L 291.6 117.0 L 292.2 117.0 L 292.2 121.9 L 291.5 121.9 L 289.8 119.1 Q 289.6 118.8, 289.4 118.4 Q 289.2 118.0, 289.2 117.9 L 289.2 121.9 L 288.5 121.9 L 288.5 117.0 L 289.3 117.0 " fill="#0000FF"/>
<path class="atom-19" d="M 295.2 144.2 L 296.8 146.8 Q 297.0 147.0, 297.3 147.5 Q 297.5 147.9, 297.5 148.0 L 297.5 144.2 L 298.2 144.2 L 298.2 149.1 L 297.5 149.1 L 295.8 146.2 Q 295.6 145.9, 295.4 145.5 Q 295.2 145.2, 295.1 145.0 L 295.1 149.1 L 294.5 149.1 L 294.5 144.2 L 295.2 144.2 " fill="#0000FF"/>
<path class="atom-22" d="M 330.1 157.5 L 331.7 160.1 Q 331.9 160.3, 332.1 160.8 Q 332.4 161.2, 332.4 161.3 L 332.4 157.5 L 333.0 157.5 L 333.0 162.4 L 332.4 162.4 L 330.7 159.5 Q 330.5 159.2, 330.3 158.8 Q 330.0 158.4, 330.0 158.3 L 330.0 162.4 L 329.4 162.4 L 329.4 157.5 L 330.1 157.5 " fill="#0000FF"/>
<path class="atom-22" d="M 334.0 157.5 L 334.6 157.5 L 334.6 159.6 L 337.1 159.6 L 337.1 157.5 L 337.8 157.5 L 337.8 162.4 L 337.1 162.4 L 337.1 160.1 L 334.6 160.1 L 334.6 162.4 L 334.0 162.4 L 334.0 157.5 " fill="#0000FF"/>
<path class="atom-22" d="M 338.7 162.2 Q 338.8 161.9, 339.1 161.7 Q 339.4 161.5, 339.8 161.5 Q 340.3 161.5, 340.6 161.8 Q 340.8 162.1, 340.8 162.5 Q 340.8 163.0, 340.5 163.5 Q 340.1 163.9, 339.4 164.4 L 340.9 164.4 L 340.9 164.8 L 338.7 164.8 L 338.7 164.5 Q 339.3 164.1, 339.7 163.7 Q 340.0 163.4, 340.2 163.1 Q 340.4 162.8, 340.4 162.6 Q 340.4 162.2, 340.2 162.1 Q 340.1 161.9, 339.8 161.9 Q 339.5 161.9, 339.4 162.0 Q 339.2 162.1, 339.1 162.3 L 338.7 162.2 " fill="#0000FF"/>
<path class="atom-23" d="M 339.1 129.1 L 340.7 131.7 Q 340.9 132.0, 341.1 132.4 Q 341.4 132.9, 341.4 132.9 L 341.4 129.1 L 342.1 129.1 L 342.1 134.0 L 341.4 134.0 L 339.7 131.2 Q 339.5 130.8, 339.3 130.5 Q 339.1 130.1, 339.0 130.0 L 339.0 134.0 L 338.4 134.0 L 338.4 129.1 L 339.1 129.1 " fill="#0000FF"/>
<path class="atom-25" d="M 319.1 107.2 L 320.7 109.7 Q 320.8 110.0, 321.1 110.4 Q 321.3 110.9, 321.4 110.9 L 321.4 107.2 L 322.0 107.2 L 322.0 112.0 L 321.3 112.0 L 319.6 109.2 Q 319.4 108.9, 319.2 108.5 Q 319.0 108.1, 318.9 108.0 L 318.9 112.0 L 318.3 112.0 L 318.3 107.2 L 319.1 107.2 " fill="#0000FF"/>
<path class="atom-28" d="M 303.1 85.3 Q 303.1 84.1, 303.7 83.4 Q 304.3 82.8, 305.3 82.8 Q 306.4 82.8, 307.0 83.4 Q 307.6 84.1, 307.6 85.3 Q 307.6 86.4, 307.0 87.1 Q 306.4 87.8, 305.3 87.8 Q 304.3 87.8, 303.7 87.1 Q 303.1 86.4, 303.1 85.3 M 305.3 87.2 Q 306.1 87.2, 306.5 86.7 Q 306.9 86.2, 306.9 85.3 Q 306.9 84.3, 306.5 83.8 Q 306.1 83.3, 305.3 83.3 Q 304.6 83.3, 304.2 83.8 Q 303.8 84.3, 303.8 85.3 Q 303.8 86.2, 304.2 86.7 Q 304.6 87.2, 305.3 87.2 " fill="#FF0000"/>
<path class="atom-28" d="M 308.3 82.8 L 309.0 82.8 L 309.0 84.9 L 311.5 84.9 L 311.5 82.8 L 312.1 82.8 L 312.1 87.7 L 311.5 87.7 L 311.5 85.4 L 309.0 85.4 L 309.0 87.7 L 308.3 87.7 L 308.3 82.8 " fill="#FF0000"/>
<path class="atom-30" d="M 275.2 60.4 Q 275.2 59.3, 275.8 58.6 Q 276.3 58.0, 277.4 58.0 Q 278.5 58.0, 279.1 58.6 Q 279.6 59.3, 279.6 60.4 Q 279.6 61.6, 279.1 62.3 Q 278.5 62.9, 277.4 62.9 Q 276.3 62.9, 275.8 62.3 Q 275.2 61.6, 275.2 60.4 M 277.4 62.4 Q 278.1 62.4, 278.5 61.9 Q 279.0 61.4, 279.0 60.4 Q 279.0 59.5, 278.5 59.0 Q 278.1 58.5, 277.4 58.5 Q 276.7 58.5, 276.3 59.0 Q 275.9 59.5, 275.9 60.4 Q 275.9 61.4, 276.3 61.9 Q 276.7 62.4, 277.4 62.4 " fill="#FF0000"/>
<path class="atom-31" d="M 292.9 50.9 Q 293.8 50.9, 294.2 51.3 Q 294.6 51.6, 294.6 52.3 Q 294.6 53.0, 294.2 53.4 Q 293.7 53.8, 292.9 53.8 L 292.2 53.8 L 292.2 55.8 L 291.5 55.8 L 291.5 50.9 L 292.9 50.9 M 292.9 53.2 Q 293.4 53.2, 293.7 53.0 Q 293.9 52.8, 293.9 52.3 Q 293.9 51.9, 293.7 51.7 Q 293.4 51.4, 292.9 51.4 L 292.2 51.4 L 292.2 53.2 L 292.9 53.2 " fill="#FF7F00"/>
<path class="atom-32" d="M 283.7 37.7 Q 283.7 36.5, 284.3 35.9 Q 284.9 35.2, 286.0 35.2 Q 287.0 35.2, 287.6 35.9 Q 288.2 36.5, 288.2 37.7 Q 288.2 38.9, 287.6 39.5 Q 287.0 40.2, 286.0 40.2 Q 284.9 40.2, 284.3 39.5 Q 283.7 38.9, 283.7 37.7 M 286.0 39.7 Q 286.7 39.7, 287.1 39.2 Q 287.5 38.7, 287.5 37.7 Q 287.5 36.7, 287.1 36.3 Q 286.7 35.8, 286.0 35.8 Q 285.2 35.8, 284.8 36.2 Q 284.4 36.7, 284.4 37.7 Q 284.4 38.7, 284.8 39.2 Q 285.2 39.7, 286.0 39.7 " fill="#FF0000"/>
<path class="atom-33" d="M 297.9 69.0 Q 297.9 67.8, 298.5 67.2 Q 299.1 66.5, 300.1 66.5 Q 301.2 66.5, 301.8 67.2 Q 302.4 67.8, 302.4 69.0 Q 302.4 70.2, 301.8 70.8 Q 301.2 71.5, 300.1 71.5 Q 299.1 71.5, 298.5 70.8 Q 297.9 70.2, 297.9 69.0 M 300.1 71.0 Q 300.9 71.0, 301.3 70.5 Q 301.7 70.0, 301.7 69.0 Q 301.7 68.0, 301.3 67.5 Q 300.9 67.1, 300.1 67.1 Q 299.4 67.1, 299.0 67.5 Q 298.6 68.0, 298.6 69.0 Q 298.6 70.0, 299.0 70.5 Q 299.4 71.0, 300.1 71.0 " fill="#FF0000"/>
<path class="atom-33" d="M 303.1 66.6 L 303.8 66.6 L 303.8 68.6 L 306.3 68.6 L 306.3 66.6 L 306.9 66.6 L 306.9 71.4 L 306.3 71.4 L 306.3 69.2 L 303.8 69.2 L 303.8 71.4 L 303.1 71.4 L 303.1 66.6 " fill="#FF0000"/>
<path class="atom-34" d="M 306.5 46.2 Q 306.5 45.1, 307.0 44.4 Q 307.6 43.8, 308.7 43.8 Q 309.8 43.8, 310.4 44.4 Q 310.9 45.1, 310.9 46.2 Q 310.9 47.4, 310.3 48.1 Q 309.8 48.8, 308.7 48.8 Q 307.6 48.8, 307.0 48.1 Q 306.5 47.4, 306.5 46.2 M 308.7 48.2 Q 309.4 48.2, 309.8 47.7 Q 310.2 47.2, 310.2 46.2 Q 310.2 45.3, 309.8 44.8 Q 309.4 44.3, 308.7 44.3 Q 308.0 44.3, 307.6 44.8 Q 307.2 45.3, 307.2 46.2 Q 307.2 47.2, 307.6 47.7 Q 308.0 48.2, 308.7 48.2 " fill="#FF0000"/>
<path class="atom-34" d="M 311.7 43.8 L 312.4 43.8 L 312.4 45.9 L 314.8 45.9 L 314.8 43.8 L 315.5 43.8 L 315.5 48.7 L 314.8 48.7 L 314.8 46.4 L 312.4 46.4 L 312.4 48.7 L 311.7 48.7 L 311.7 43.8 " fill="#FF0000"/>
<path class="atom-36" d="M 158.0 123.4 Q 158.0 122.2, 158.6 121.6 Q 159.2 120.9, 160.3 120.9 Q 161.3 120.9, 161.9 121.6 Q 162.5 122.2, 162.5 123.4 Q 162.5 124.6, 161.9 125.2 Q 161.3 125.9, 160.3 125.9 Q 159.2 125.9, 158.6 125.2 Q 158.0 124.6, 158.0 123.4 M 160.3 125.4 Q 161.0 125.4, 161.4 124.9 Q 161.8 124.4, 161.8 123.4 Q 161.8 122.4, 161.4 121.9 Q 161.0 121.5, 160.3 121.5 Q 159.5 121.5, 159.1 121.9 Q 158.7 122.4, 158.7 123.4 Q 158.7 124.4, 159.1 124.9 Q 159.5 125.4, 160.3 125.4 " fill="#FF0000"/>
<path class="atom-36" d="M 163.3 121.0 L 163.9 121.0 L 163.9 123.0 L 166.4 123.0 L 166.4 121.0 L 167.1 121.0 L 167.1 125.8 L 166.4 125.8 L 166.4 123.6 L 163.9 123.6 L 163.9 125.8 L 163.3 125.8 L 163.3 121.0 " fill="#FF0000"/>
<path class="atom-38" d="M 138.5 82.3 Q 138.5 81.2, 139.1 80.5 Q 139.6 79.9, 140.7 79.9 Q 141.8 79.9, 142.4 80.5 Q 143.0 81.2, 143.0 82.3 Q 143.0 83.5, 142.4 84.2 Q 141.8 84.9, 140.7 84.9 Q 139.6 84.9, 139.1 84.2 Q 138.5 83.5, 138.5 82.3 M 140.7 84.3 Q 141.5 84.3, 141.9 83.8 Q 142.3 83.3, 142.3 82.3 Q 142.3 81.4, 141.9 80.9 Q 141.5 80.4, 140.7 80.4 Q 140.0 80.4, 139.6 80.9 Q 139.2 81.4, 139.2 82.3 Q 139.2 83.3, 139.6 83.8 Q 140.0 84.3, 140.7 84.3 " fill="#FF0000"/>
<path class="atom-39" d="M 127.7 107.2 L 129.3 109.7 Q 129.5 110.0, 129.7 110.5 Q 130.0 110.9, 130.0 110.9 L 130.0 107.2 L 130.6 107.2 L 130.6 112.0 L 130.0 112.0 L 128.3 109.2 Q 128.1 108.9, 127.8 108.5 Q 127.6 108.1, 127.6 108.0 L 127.6 112.0 L 126.9 112.0 L 126.9 107.2 L 127.7 107.2 " fill="#0000FF"/>
<path class="atom-39" d="M 126.9 112.5 L 127.6 112.5 L 127.6 114.6 L 130.0 114.6 L 130.0 112.5 L 130.7 112.5 L 130.7 117.4 L 130.0 117.4 L 130.0 115.1 L 127.6 115.1 L 127.6 117.4 L 126.9 117.4 L 126.9 112.5 " fill="#0000FF"/>
<path class="atom-43" d="M 79.3 89.0 Q 79.3 87.8, 79.9 87.1 Q 80.5 86.5, 81.6 86.5 Q 82.7 86.5, 83.2 87.1 Q 83.8 87.8, 83.8 89.0 Q 83.8 90.1, 83.2 90.8 Q 82.6 91.5, 81.6 91.5 Q 80.5 91.5, 79.9 90.8 Q 79.3 90.1, 79.3 89.0 M 81.6 90.9 Q 82.3 90.9, 82.7 90.4 Q 83.1 89.9, 83.1 89.0 Q 83.1 88.0, 82.7 87.5 Q 82.3 87.0, 81.6 87.0 Q 80.8 87.0, 80.4 87.5 Q 80.0 88.0, 80.0 89.0 Q 80.0 89.9, 80.4 90.4 Q 80.8 90.9, 81.6 90.9 " fill="#FF0000"/>
<path class="atom-44" d="M 68.6 113.8 L 70.2 116.3 Q 70.3 116.6, 70.6 117.1 Q 70.8 117.5, 70.9 117.5 L 70.9 113.8 L 71.5 113.8 L 71.5 118.6 L 70.8 118.6 L 69.1 115.8 Q 68.9 115.5, 68.7 115.1 Q 68.5 114.7, 68.4 114.6 L 68.4 118.6 L 67.8 118.6 L 67.8 113.8 L 68.6 113.8 " fill="#0000FF"/>
<path class="atom-44" d="M 67.8 119.1 L 68.4 119.1 L 68.4 121.2 L 70.9 121.2 L 70.9 119.1 L 71.6 119.1 L 71.6 124.0 L 70.9 124.0 L 70.9 121.7 L 68.4 121.7 L 68.4 124.0 L 67.8 124.0 L 67.8 119.1 " fill="#0000FF"/>
<path class="atom-47" d="M 18.0 110.2 L 18.7 110.2 L 18.7 112.3 L 21.2 112.3 L 21.2 110.2 L 21.9 110.2 L 21.9 115.1 L 21.2 115.1 L 21.2 112.8 L 18.7 112.8 L 18.7 115.1 L 18.0 115.1 L 18.0 110.2 " fill="#CCCC00"/>
<path class="atom-47" d="M 23.0 114.3 Q 23.0 114.3, 23.3 114.4 Q 23.5 114.5, 23.7 114.6 Q 24.0 114.6, 24.2 114.6 Q 24.7 114.6, 25.0 114.4 Q 25.2 114.2, 25.2 113.8 Q 25.2 113.5, 25.1 113.4 Q 25.0 113.2, 24.8 113.1 Q 24.5 113.0, 24.2 112.9 Q 23.8 112.8, 23.5 112.7 Q 23.3 112.5, 23.1 112.3 Q 22.9 112.0, 22.9 111.6 Q 22.9 111.0, 23.3 110.6 Q 23.7 110.2, 24.5 110.2 Q 25.1 110.2, 25.7 110.5 L 25.6 111.0 Q 25.0 110.8, 24.6 110.8 Q 24.1 110.8, 23.8 111.0 Q 23.6 111.2, 23.6 111.5 Q 23.6 111.8, 23.7 111.9 Q 23.8 112.1, 24.0 112.2 Q 24.2 112.2, 24.6 112.3 Q 25.0 112.5, 25.3 112.6 Q 25.5 112.8, 25.7 113.0 Q 25.9 113.3, 25.9 113.8 Q 25.9 114.5, 25.5 114.8 Q 25.0 115.2, 24.3 115.2 Q 23.8 115.2, 23.5 115.1 Q 23.2 115.0, 22.8 114.8 L 23.0 114.3 " fill="#CCCC00"/>
</g>
    <g transform="translate(361.0, 0) scale(1 1) "><line x1="15" y1="100" x2="25" y2="100" style="stroke:rgb(0,0,0);stroke-width:2"/>
  <line x1="20" y1="95" x2="20" y2="105" style="stroke:rgb(0,0,0);stroke-width:2"/>
</g>
    <g transform="translate(401.0, 0) scale(1 1) "><!-- END OF HEADER -->
<rect style="opacity:1.0;fill:#FFFFFF;stroke:none" width="215.0" height="200.0" x="0.0" y="0.0"> </rect>
<path class="bond-0 atom-0 atom-1" d="M 161.3,126.9 L 158.5,110.4" style="fill:none;fill-rule:evenodd;stroke:#FF0000;stroke-width:2.0px;stroke-linecap:butt;stroke-linejoin:miter;stroke-opacity:1"/>
<path class="bond-0 atom-0 atom-1" d="M 158.5,110.4 L 155.6,93.9" style="fill:none;fill-rule:evenodd;stroke:#000000;stroke-width:2.0px;stroke-linecap:butt;stroke-linejoin:miter;stroke-opacity:1"/>
<path class="bond-0 atom-0 atom-1" d="M 167.0,125.9 L 164.2,109.4" style="fill:none;fill-rule:evenodd;stroke:#FF0000;stroke-width:2.0px;stroke-linecap:butt;stroke-linejoin:miter;stroke-opacity:1"/>
<path class="bond-0 atom-0 atom-1" d="M 164.2,109.4 L 161.3,92.9" style="fill:none;fill-rule:evenodd;stroke:#000000;stroke-width:2.0px;stroke-linecap:butt;stroke-linejoin:miter;stroke-opacity:1"/>
<path class="bond-1 atom-1 atom-2" d="M 158.7,95.1 L 170.4,85.3" style="fill:none;fill-rule:evenodd;stroke:#000000;stroke-width:2.0px;stroke-linecap:butt;stroke-linejoin:miter;stroke-opacity:1"/>
<path class="bond-1 atom-1 atom-2" d="M 170.4,85.3 L 182.1,75.5" style="fill:none;fill-rule:evenodd;stroke:#FF0000;stroke-width:2.0px;stroke-linecap:butt;stroke-linejoin:miter;stroke-opacity:1"/>
<path class="bond-2 atom-1 atom-3" d="M 158.7,95.1 L 122.4,81.7" style="fill:none;fill-rule:evenodd;stroke:#000000;stroke-width:2.0px;stroke-linecap:butt;stroke-linejoin:miter;stroke-opacity:1"/>
<path class="bond-3 atom-3 atom-4" d="M 122.4,81.7 L 92.7,106.6" style="fill:none;fill-rule:evenodd;stroke:#000000;stroke-width:2.0px;stroke-linecap:butt;stroke-linejoin:miter;stroke-opacity:1"/>
<path class="bond-4 atom-4 atom-5" d="M 92.7,106.6 L 95.4,122.2" style="fill:none;fill-rule:evenodd;stroke:#000000;stroke-width:2.0px;stroke-linecap:butt;stroke-linejoin:miter;stroke-opacity:1"/>
<path class="bond-4 atom-4 atom-5" d="M 95.4,122.2 L 98.1,137.9" style="fill:none;fill-rule:evenodd;stroke:#FF0000;stroke-width:2.0px;stroke-linecap:butt;stroke-linejoin:miter;stroke-opacity:1"/>
<path class="bond-5 atom-4 atom-6" d="M 92.7,106.6 L 56.3,93.3" style="fill:none;fill-rule:evenodd;stroke:#000000;stroke-width:2.0px;stroke-linecap:butt;stroke-linejoin:miter;stroke-opacity:1"/>
<path class="bond-6 atom-6 atom-7" d="M 59.5,94.4 L 56.6,78.0" style="fill:none;fill-rule:evenodd;stroke:#000000;stroke-width:2.0px;stroke-linecap:butt;stroke-linejoin:miter;stroke-opacity:1"/>
<path class="bond-6 atom-6 atom-7" d="M 56.6,78.0 L 53.7,61.6" style="fill:none;fill-rule:evenodd;stroke:#FF0000;stroke-width:2.0px;stroke-linecap:butt;stroke-linejoin:miter;stroke-opacity:1"/>
<path class="bond-6 atom-6 atom-7" d="M 53.7,95.4 L 50.9,79.0" style="fill:none;fill-rule:evenodd;stroke:#000000;stroke-width:2.0px;stroke-linecap:butt;stroke-linejoin:miter;stroke-opacity:1"/>
<path class="bond-6 atom-6 atom-7" d="M 50.9,79.0 L 48.0,62.6" style="fill:none;fill-rule:evenodd;stroke:#FF0000;stroke-width:2.0px;stroke-linecap:butt;stroke-linejoin:miter;stroke-opacity:1"/>
<path class="bond-7 atom-6 atom-8" d="M 56.3,93.3 L 44.6,103.0" style="fill:none;fill-rule:evenodd;stroke:#000000;stroke-width:2.0px;stroke-linecap:butt;stroke-linejoin:miter;stroke-opacity:1"/>
<path class="bond-7 atom-6 atom-8" d="M 44.6,103.0 L 32.9,112.8" style="fill:none;fill-rule:evenodd;stroke:#FF0000;stroke-width:2.0px;stroke-linecap:butt;stroke-linejoin:miter;stroke-opacity:1"/>
<path d="M 159.3,94.6 L 158.7,95.1 L 156.9,94.4" style="fill:none;stroke:#000000;stroke-width:2.0px;stroke-linecap:butt;stroke-linejoin:miter;stroke-opacity:1;"/>
<path d="M 124.2,82.4 L 122.4,81.7 L 120.9,83.0" style="fill:none;stroke:#000000;stroke-width:2.0px;stroke-linecap:butt;stroke-linejoin:miter;stroke-opacity:1;"/>
<path d="M 58.1,93.9 L 56.3,93.3 L 55.7,93.7" style="fill:none;stroke:#000000;stroke-width:2.0px;stroke-linecap:butt;stroke-linejoin:miter;stroke-opacity:1;"/>
<path class="atom-0" d="M 160.3 133.2 Q 160.3 130.6, 161.6 129.1 Q 162.9 127.7, 165.4 127.7 Q 167.8 127.7, 169.1 129.1 Q 170.4 130.6, 170.4 133.2 Q 170.4 135.9, 169.1 137.4 Q 167.8 138.9, 165.4 138.9 Q 163.0 138.9, 161.6 137.4 Q 160.3 135.9, 160.3 133.2 M 165.4 137.7 Q 167.0 137.7, 167.9 136.6 Q 168.9 135.4, 168.9 133.2 Q 168.9 131.1, 167.9 130.0 Q 167.0 128.9, 165.4 128.9 Q 163.7 128.9, 162.8 130.0 Q 161.9 131.1, 161.9 133.2 Q 161.9 135.4, 162.8 136.6 Q 163.7 137.7, 165.4 137.7 " fill="#FF0000"/>
<path class="atom-2" d="M 183.4 70.3 Q 183.4 67.6, 184.7 66.2 Q 186.0 64.7, 188.4 64.7 Q 190.9 64.7, 192.2 66.2 Q 193.5 67.6, 193.5 70.3 Q 193.5 72.9, 192.1 74.4 Q 190.8 75.9, 188.4 75.9 Q 186.0 75.9, 184.7 74.4 Q 183.4 72.9, 183.4 70.3 M 188.4 74.7 Q 190.1 74.7, 191.0 73.6 Q 191.9 72.5, 191.9 70.3 Q 191.9 68.1, 191.0 67.0 Q 190.1 65.9, 188.4 65.9 Q 186.8 65.9, 185.8 67.0 Q 184.9 68.1, 184.9 70.3 Q 184.9 72.5, 185.8 73.6 Q 186.8 74.7, 188.4 74.7 " fill="#FF0000"/>
<path class="atom-2" d="M 195.2 64.8 L 196.7 64.8 L 196.7 69.5 L 202.3 69.5 L 202.3 64.8 L 203.7 64.8 L 203.7 75.8 L 202.3 75.8 L 202.3 70.7 L 196.7 70.7 L 196.7 75.8 L 195.2 75.8 L 195.2 64.8 " fill="#FF0000"/>
<path class="atom-5" d="M 94.3 144.7 Q 94.3 142.1, 95.6 140.6 Q 96.9 139.2, 99.3 139.2 Q 101.7 139.2, 103.0 140.6 Q 104.3 142.1, 104.3 144.7 Q 104.3 147.4, 103.0 148.9 Q 101.7 150.4, 99.3 150.4 Q 96.9 150.4, 95.6 148.9 Q 94.3 147.4, 94.3 144.7 M 99.3 149.2 Q 101.0 149.2, 101.9 148.1 Q 102.8 146.9, 102.8 144.7 Q 102.8 142.6, 101.9 141.5 Q 101.0 140.4, 99.3 140.4 Q 97.6 140.4, 96.7 141.5 Q 95.8 142.6, 95.8 144.7 Q 95.8 147.0, 96.7 148.1 Q 97.6 149.2, 99.3 149.2 " fill="#FF0000"/>
<path class="atom-5" d="M 106.1 139.3 L 107.5 139.3 L 107.5 144.0 L 113.1 144.0 L 113.1 139.3 L 114.6 139.3 L 114.6 150.3 L 113.1 150.3 L 113.1 145.2 L 107.5 145.2 L 107.5 150.3 L 106.1 150.3 L 106.1 139.3 " fill="#FF0000"/>
<path class="atom-7" d="M 44.6 55.2 Q 44.6 52.5, 45.9 51.0 Q 47.2 49.6, 49.7 49.6 Q 52.1 49.6, 53.4 51.0 Q 54.7 52.5, 54.7 55.2 Q 54.7 57.8, 53.4 59.3 Q 52.1 60.8, 49.7 60.8 Q 47.3 60.8, 45.9 59.3 Q 44.6 57.8, 44.6 55.2 M 49.7 59.6 Q 51.3 59.6, 52.2 58.5 Q 53.2 57.3, 53.2 55.2 Q 53.2 53.0, 52.2 51.9 Q 51.3 50.8, 49.7 50.8 Q 48.0 50.8, 47.1 51.9 Q 46.2 53.0, 46.2 55.2 Q 46.2 57.4, 47.1 58.5 Q 48.0 59.6, 49.7 59.6 " fill="#FF0000"/>
<path class="atom-8" d="M 10.7 112.7 L 12.2 112.7 L 12.2 117.3 L 17.8 117.3 L 17.8 112.7 L 19.3 112.7 L 19.3 123.6 L 17.8 123.6 L 17.8 118.6 L 12.2 118.6 L 12.2 123.6 L 10.7 123.6 L 10.7 112.7 " fill="#FF0000"/>
<path class="atom-8" d="M 21.6 118.1 Q 21.6 115.5, 22.9 114.0 Q 24.2 112.5, 26.6 112.5 Q 29.0 112.5, 30.3 114.0 Q 31.6 115.5, 31.6 118.1 Q 31.6 120.8, 30.3 122.3 Q 29.0 123.8, 26.6 123.8 Q 24.2 123.8, 22.9 122.3 Q 21.6 120.8, 21.6 118.1 M 26.6 122.6 Q 28.3 122.6, 29.2 121.4 Q 30.1 120.3, 30.1 118.1 Q 30.1 116.0, 29.2 114.9 Q 28.3 113.8, 26.6 113.8 Q 24.9 113.8, 24.0 114.9 Q 23.1 115.9, 23.1 118.1 Q 23.1 120.3, 24.0 121.4 Q 24.9 122.6, 26.6 122.6 " fill="#FF0000"/>
</g>
    <g transform="translate(616.0, 0) scale(1 1) "><line x1="5" y1="100" x2="35" y2="100" style="stroke:rgb(0,0,0);stroke-width:2"/>
  <line x1="34" y1="100" x2="29" y2="95" style="stroke:rgb(0,0,0);stroke-width:2"/>
  <line x1="34" y1="100" x2="29" y2="105" style="stroke:rgb(0,0,0);stroke-width:2"/>
</g>
    <g transform="translate(656.0, 0) scale(1 1) "><!-- END OF HEADER -->
<rect style="opacity:1.0;fill:#FFFFFF;stroke:none" width="374.0" height="200.0" x="0.0" y="0.0"> </rect>
<path class="bond-0 atom-0 atom-1" d="M 205.0,78.2 L 213.0,90.4" style="fill:none;fill-rule:evenodd;stroke:#000000;stroke-width:2.0px;stroke-linecap:butt;stroke-linejoin:miter;stroke-opacity:1"/>
<path class="bond-1 atom-1 atom-2" d="M 213.0,90.4 L 220.9,102.6" style="fill:none;fill-rule:evenodd;stroke:#000000;stroke-width:2.0px;stroke-linecap:butt;stroke-linejoin:miter;stroke-opacity:1"/>
<path class="bond-2 atom-1 atom-3" d="M 213.0,90.4 L 225.2,82.5" style="fill:none;fill-rule:evenodd;stroke:#000000;stroke-width:2.0px;stroke-linecap:butt;stroke-linejoin:miter;stroke-opacity:1"/>
<path class="bond-3 atom-3 atom-4" d="M 225.2,82.5 L 224.8,76.6" style="fill:none;fill-rule:evenodd;stroke:#000000;stroke-width:2.0px;stroke-linecap:butt;stroke-linejoin:miter;stroke-opacity:1"/>
<path class="bond-3 atom-3 atom-4" d="M 224.8,76.6 L 224.5,70.7" style="fill:none;fill-rule:evenodd;stroke:#FF0000;stroke-width:2.0px;stroke-linecap:butt;stroke-linejoin:miter;stroke-opacity:1"/>
<path class="bond-4 atom-4 atom-5" d="M 226.8,66.4 L 230.8,63.8" style="fill:none;fill-rule:evenodd;stroke:#FF0000;stroke-width:2.0px;stroke-linecap:butt;stroke-linejoin:miter;stroke-opacity:1"/>
<path class="bond-4 atom-4 atom-5" d="M 230.8,63.8 L 234.7,61.2" style="fill:none;fill-rule:evenodd;stroke:#FF7F00;stroke-width:2.0px;stroke-linecap:butt;stroke-linejoin:miter;stroke-opacity:1"/>
<path class="bond-5 atom-5 atom-6" d="M 235.8,56.8 L 233.6,53.4" style="fill:none;fill-rule:evenodd;stroke:#FF7F00;stroke-width:2.0px;stroke-linecap:butt;stroke-linejoin:miter;stroke-opacity:1"/>
<path class="bond-5 atom-5 atom-6" d="M 233.6,53.4 L 231.3,50.0" style="fill:none;fill-rule:evenodd;stroke:#FF0000;stroke-width:2.0px;stroke-linecap:butt;stroke-linejoin:miter;stroke-opacity:1"/>
<path class="bond-5 atom-5 atom-6" d="M 234.0,58.0 L 231.7,54.6" style="fill:none;fill-rule:evenodd;stroke:#FF7F00;stroke-width:2.0px;stroke-linecap:butt;stroke-linejoin:miter;stroke-opacity:1"/>
<path class="bond-5 atom-5 atom-6" d="M 231.7,54.6 L 229.5,51.1" style="fill:none;fill-rule:evenodd;stroke:#FF0000;stroke-width:2.0px;stroke-linecap:butt;stroke-linejoin:miter;stroke-opacity:1"/>
<path class="bond-6 atom-5 atom-7" d="M 238.3,62.6 L 240.5,66.1" style="fill:none;fill-rule:evenodd;stroke:#FF7F00;stroke-width:2.0px;stroke-linecap:butt;stroke-linejoin:miter;stroke-opacity:1"/>
<path class="bond-6 atom-5 atom-7" d="M 240.5,66.1 L 242.8,69.6" style="fill:none;fill-rule:evenodd;stroke:#FF0000;stroke-width:2.0px;stroke-linecap:butt;stroke-linejoin:miter;stroke-opacity:1"/>
<path class="bond-7 atom-5 atom-8" d="M 238.4,58.8 L 242.4,56.3" style="fill:none;fill-rule:evenodd;stroke:#FF7F00;stroke-width:2.0px;stroke-linecap:butt;stroke-linejoin:miter;stroke-opacity:1"/>
<path class="bond-7 atom-5 atom-8" d="M 242.4,56.3 L 246.3,53.7" style="fill:none;fill-rule:evenodd;stroke:#FF0000;stroke-width:2.0px;stroke-linecap:butt;stroke-linejoin:miter;stroke-opacity:1"/>
<path class="bond-8 atom-8 atom-9" d="M 251.2,53.3 L 255.5,55.6" style="fill:none;fill-rule:evenodd;stroke:#FF0000;stroke-width:2.0px;stroke-linecap:butt;stroke-linejoin:miter;stroke-opacity:1"/>
<path class="bond-8 atom-8 atom-9" d="M 255.5,55.6 L 259.9,57.8" style="fill:none;fill-rule:evenodd;stroke:#FF7F00;stroke-width:2.0px;stroke-linecap:butt;stroke-linejoin:miter;stroke-opacity:1"/>
<path class="bond-9 atom-9 atom-10" d="M 259.4,60.8 L 257.5,64.7" style="fill:none;fill-rule:evenodd;stroke:#FF7F00;stroke-width:2.0px;stroke-linecap:butt;stroke-linejoin:miter;stroke-opacity:1"/>
<path class="bond-9 atom-9 atom-10" d="M 257.5,64.7 L 255.5,68.5" style="fill:none;fill-rule:evenodd;stroke:#FF0000;stroke-width:2.0px;stroke-linecap:butt;stroke-linejoin:miter;stroke-opacity:1"/>
<path class="bond-9 atom-9 atom-10" d="M 261.4,61.8 L 259.4,65.7" style="fill:none;fill-rule:evenodd;stroke:#FF7F00;stroke-width:2.0px;stroke-linecap:butt;stroke-linejoin:miter;stroke-opacity:1"/>
<path class="bond-9 atom-9 atom-10" d="M 259.4,65.7 L 257.4,69.5" style="fill:none;fill-rule:evenodd;stroke:#FF0000;stroke-width:2.0px;stroke-linecap:butt;stroke-linejoin:miter;stroke-opacity:1"/>
<path class="bond-10 atom-9 atom-11" d="M 263.0,56.1 L 265.0,52.3" style="fill:none;fill-rule:evenodd;stroke:#FF7F00;stroke-width:2.0px;stroke-linecap:butt;stroke-linejoin:miter;stroke-opacity:1"/>
<path class="bond-10 atom-9 atom-11" d="M 265.0,52.3 L 266.9,48.4" style="fill:none;fill-rule:evenodd;stroke:#FF0000;stroke-width:2.0px;stroke-linecap:butt;stroke-linejoin:miter;stroke-opacity:1"/>
<path class="bond-11 atom-9 atom-12" d="M 263.6,59.6 L 267.9,61.8" style="fill:none;fill-rule:evenodd;stroke:#FF7F00;stroke-width:2.0px;stroke-linecap:butt;stroke-linejoin:miter;stroke-opacity:1"/>
<path class="bond-11 atom-9 atom-12" d="M 267.9,61.8 L 272.3,64.1" style="fill:none;fill-rule:evenodd;stroke:#FF0000;stroke-width:2.0px;stroke-linecap:butt;stroke-linejoin:miter;stroke-opacity:1"/>
<path class="bond-12 atom-12 atom-13" d="M 274.8,68.0 L 275.1,73.9" style="fill:none;fill-rule:evenodd;stroke:#FF0000;stroke-width:2.0px;stroke-linecap:butt;stroke-linejoin:miter;stroke-opacity:1"/>
<path class="bond-12 atom-12 atom-13" d="M 275.1,73.9 L 275.5,79.8" style="fill:none;fill-rule:evenodd;stroke:#000000;stroke-width:2.0px;stroke-linecap:butt;stroke-linejoin:miter;stroke-opacity:1"/>
<path class="bond-13 atom-13 atom-14" d="M 275.5,79.8 L 288.4,86.4" style="fill:none;fill-rule:evenodd;stroke:#000000;stroke-width:2.0px;stroke-linecap:butt;stroke-linejoin:miter;stroke-opacity:1"/>
<path class="bond-14 atom-14 atom-15" d="M 288.4,86.4 L 289.4,92.3" style="fill:none;fill-rule:evenodd;stroke:#000000;stroke-width:2.0px;stroke-linecap:butt;stroke-linejoin:miter;stroke-opacity:1"/>
<path class="bond-14 atom-14 atom-15" d="M 289.4,92.3 L 290.3,98.1" style="fill:none;fill-rule:evenodd;stroke:#FF0000;stroke-width:2.0px;stroke-linecap:butt;stroke-linejoin:miter;stroke-opacity:1"/>
<path class="bond-15 atom-15 atom-16" d="M 293.1,101.1 L 299.1,102.1" style="fill:none;fill-rule:evenodd;stroke:#FF0000;stroke-width:2.0px;stroke-linecap:butt;stroke-linejoin:miter;stroke-opacity:1"/>
<path class="bond-15 atom-15 atom-16" d="M 299.1,102.1 L 305.1,103.0" style="fill:none;fill-rule:evenodd;stroke:#000000;stroke-width:2.0px;stroke-linecap:butt;stroke-linejoin:miter;stroke-opacity:1"/>
<path class="bond-16 atom-16 atom-17" d="M 305.1,103.0 L 307.7,108.2" style="fill:none;fill-rule:evenodd;stroke:#000000;stroke-width:2.0px;stroke-linecap:butt;stroke-linejoin:miter;stroke-opacity:1"/>
<path class="bond-16 atom-16 atom-17" d="M 307.7,108.2 L 310.4,113.4" style="fill:none;fill-rule:evenodd;stroke:#0000FF;stroke-width:2.0px;stroke-linecap:butt;stroke-linejoin:miter;stroke-opacity:1"/>
<path class="bond-17 atom-17 atom-18" d="M 310.4,118.6 L 307.7,123.8" style="fill:none;fill-rule:evenodd;stroke:#0000FF;stroke-width:2.0px;stroke-linecap:butt;stroke-linejoin:miter;stroke-opacity:1"/>
<path class="bond-17 atom-17 atom-18" d="M 307.7,123.8 L 305.1,128.9" style="fill:none;fill-rule:evenodd;stroke:#000000;stroke-width:2.0px;stroke-linecap:butt;stroke-linejoin:miter;stroke-opacity:1"/>
<path class="bond-18 atom-18 atom-19" d="M 305.1,128.9 L 309.2,133.0" style="fill:none;fill-rule:evenodd;stroke:#000000;stroke-width:2.0px;stroke-linecap:butt;stroke-linejoin:miter;stroke-opacity:1"/>
<path class="bond-18 atom-18 atom-19" d="M 309.2,133.0 L 313.3,137.1" style="fill:none;fill-rule:evenodd;stroke:#0000FF;stroke-width:2.0px;stroke-linecap:butt;stroke-linejoin:miter;stroke-opacity:1"/>
<path class="bond-18 atom-18 atom-19" d="M 307.8,128.5 L 311.3,132.0" style="fill:none;fill-rule:evenodd;stroke:#000000;stroke-width:2.0px;stroke-linecap:butt;stroke-linejoin:miter;stroke-opacity:1"/>
<path class="bond-18 atom-18 atom-19" d="M 311.3,132.0 L 314.8,135.6" style="fill:none;fill-rule:evenodd;stroke:#0000FF;stroke-width:2.0px;stroke-linecap:butt;stroke-linejoin:miter;stroke-opacity:1"/>
<path class="bond-19 atom-19 atom-20" d="M 317.5,138.1 L 322.9,135.4" style="fill:none;fill-rule:evenodd;stroke:#0000FF;stroke-width:2.0px;stroke-linecap:butt;stroke-linejoin:miter;stroke-opacity:1"/>
<path class="bond-19 atom-19 atom-20" d="M 322.9,135.4 L 328.3,132.6" style="fill:none;fill-rule:evenodd;stroke:#000000;stroke-width:2.0px;stroke-linecap:butt;stroke-linejoin:miter;stroke-opacity:1"/>
<path class="bond-20 atom-20 atom-21" d="M 328.3,132.6 L 341.9,137.8" style="fill:none;fill-rule:evenodd;stroke:#000000;stroke-width:2.0px;stroke-linecap:butt;stroke-linejoin:miter;stroke-opacity:1"/>
<path class="bond-20 atom-20 atom-21" d="M 330.3,131.0 L 341.5,135.3" style="fill:none;fill-rule:evenodd;stroke:#000000;stroke-width:2.0px;stroke-linecap:butt;stroke-linejoin:miter;stroke-opacity:1"/>
<path class="bond-21 atom-21 atom-22" d="M 341.9,137.8 L 342.9,143.7" style="fill:none;fill-rule:evenodd;stroke:#000000;stroke-width:2.0px;stroke-linecap:butt;stroke-linejoin:miter;stroke-opacity:1"/>
<path class="bond-21 atom-21 atom-22" d="M 342.9,143.7 L 343.8,149.6" style="fill:none;fill-rule:evenodd;stroke:#0000FF;stroke-width:2.0px;stroke-linecap:butt;stroke-linejoin:miter;stroke-opacity:1"/>
<path class="bond-22 atom-21 atom-23" d="M 341.9,137.8 L 346.5,134.1" style="fill:none;fill-rule:evenodd;stroke:#000000;stroke-width:2.0px;stroke-linecap:butt;stroke-linejoin:miter;stroke-opacity:1"/>
<path class="bond-22 atom-21 atom-23" d="M 346.5,134.1 L 351.1,130.3" style="fill:none;fill-rule:evenodd;stroke:#0000FF;stroke-width:2.0px;stroke-linecap:butt;stroke-linejoin:miter;stroke-opacity:1"/>
<path class="bond-23 atom-23 atom-24" d="M 352.8,126.0 L 351.9,120.2" style="fill:none;fill-rule:evenodd;stroke:#0000FF;stroke-width:2.0px;stroke-linecap:butt;stroke-linejoin:miter;stroke-opacity:1"/>
<path class="bond-23 atom-23 atom-24" d="M 351.9,120.2 L 350.9,114.3" style="fill:none;fill-rule:evenodd;stroke:#000000;stroke-width:2.0px;stroke-linecap:butt;stroke-linejoin:miter;stroke-opacity:1"/>
<path class="bond-23 atom-23 atom-24" d="M 350.6,126.4 L 349.8,121.1" style="fill:none;fill-rule:evenodd;stroke:#0000FF;stroke-width:2.0px;stroke-linecap:butt;stroke-linejoin:miter;stroke-opacity:1"/>
<path class="bond-23 atom-23 atom-24" d="M 349.8,121.1 L 349.0,115.9" style="fill:none;fill-rule:evenodd;stroke:#000000;stroke-width:2.0px;stroke-linecap:butt;stroke-linejoin:miter;stroke-opacity:1"/>
<path class="bond-24 atom-24 atom-25" d="M 350.9,114.3 L 345.2,112.1" style="fill:none;fill-rule:evenodd;stroke:#000000;stroke-width:2.0px;stroke-linecap:butt;stroke-linejoin:miter;stroke-opacity:1"/>
<path class="bond-24 atom-24 atom-25" d="M 345.2,112.1 L 339.4,109.9" style="fill:none;fill-rule:evenodd;stroke:#0000FF;stroke-width:2.0px;stroke-linecap:butt;stroke-linejoin:miter;stroke-opacity:1"/>
<path class="bond-25 atom-25 atom-26" d="M 335.2,110.8 L 330.6,114.5" style="fill:none;fill-rule:evenodd;stroke:#0000FF;stroke-width:2.0px;stroke-linecap:butt;stroke-linejoin:miter;stroke-opacity:1"/>
<path class="bond-25 atom-25 atom-26" d="M 330.6,114.5 L 326.0,118.2" style="fill:none;fill-rule:evenodd;stroke:#000000;stroke-width:2.0px;stroke-linecap:butt;stroke-linejoin:miter;stroke-opacity:1"/>
<path class="bond-25 atom-25 atom-26" d="M 336.6,112.5 L 332.5,115.8" style="fill:none;fill-rule:evenodd;stroke:#0000FF;stroke-width:2.0px;stroke-linecap:butt;stroke-linejoin:miter;stroke-opacity:1"/>
<path class="bond-25 atom-25 atom-26" d="M 332.5,115.8 L 328.4,119.1" style="fill:none;fill-rule:evenodd;stroke:#000000;stroke-width:2.0px;stroke-linecap:butt;stroke-linejoin:miter;stroke-opacity:1"/>
<path class="bond-26 atom-16 atom-27" d="M 305.1,103.0 L 311.7,90.1" style="fill:none;fill-rule:evenodd;stroke:#000000;stroke-width:2.0px;stroke-linecap:butt;stroke-linejoin:miter;stroke-opacity:1"/>
<path class="bond-27 atom-27 atom-28" d="M 311.7,90.1 L 317.6,89.1" style="fill:none;fill-rule:evenodd;stroke:#000000;stroke-width:2.0px;stroke-linecap:butt;stroke-linejoin:miter;stroke-opacity:1"/>
<path class="bond-27 atom-27 atom-28" d="M 317.6,89.1 L 323.6,88.2" style="fill:none;fill-rule:evenodd;stroke:#FF0000;stroke-width:2.0px;stroke-linecap:butt;stroke-linejoin:miter;stroke-opacity:1"/>
<path class="bond-28 atom-27 atom-29" d="M 311.7,90.1 L 301.4,79.8" style="fill:none;fill-rule:evenodd;stroke:#000000;stroke-width:2.0px;stroke-linecap:butt;stroke-linejoin:miter;stroke-opacity:1"/>
<path class="bond-29 atom-29 atom-30" d="M 301.4,79.8 L 302.3,74.0" style="fill:none;fill-rule:evenodd;stroke:#000000;stroke-width:2.0px;stroke-linecap:butt;stroke-linejoin:miter;stroke-opacity:1"/>
<path class="bond-29 atom-29 atom-30" d="M 302.3,74.0 L 303.2,68.1" style="fill:none;fill-rule:evenodd;stroke:#FF0000;stroke-width:2.0px;stroke-linecap:butt;stroke-linejoin:miter;stroke-opacity:1"/>
<path class="bond-30 atom-30 atom-31" d="M 306.1,64.5 L 310.7,62.7" style="fill:none;fill-rule:evenodd;stroke:#FF0000;stroke-width:2.0px;stroke-linecap:butt;stroke-linejoin:miter;stroke-opacity:1"/>
<path class="bond-30 atom-30 atom-31" d="M 310.7,62.7 L 315.4,60.9" style="fill:none;fill-rule:evenodd;stroke:#FF7F00;stroke-width:2.0px;stroke-linecap:butt;stroke-linejoin:miter;stroke-opacity:1"/>
<path class="bond-31 atom-31 atom-32" d="M 317.2,57.2 L 315.6,53.1" style="fill:none;fill-rule:evenodd;stroke:#FF7F00;stroke-width:2.0px;stroke-linecap:butt;stroke-linejoin:miter;stroke-opacity:1"/>
<path class="bond-31 atom-31 atom-32" d="M 315.6,53.1 L 314.0,48.9" style="fill:none;fill-rule:evenodd;stroke:#FF0000;stroke-width:2.0px;stroke-linecap:butt;stroke-linejoin:miter;stroke-opacity:1"/>
<path class="bond-31 atom-31 atom-32" d="M 315.2,58.0 L 313.6,53.9" style="fill:none;fill-rule:evenodd;stroke:#FF7F00;stroke-width:2.0px;stroke-linecap:butt;stroke-linejoin:miter;stroke-opacity:1"/>
<path class="bond-31 atom-31 atom-32" d="M 313.6,53.9 L 312.0,49.7" style="fill:none;fill-rule:evenodd;stroke:#FF0000;stroke-width:2.0px;stroke-linecap:butt;stroke-linejoin:miter;stroke-opacity:1"/>
<path class="bond-32 atom-31 atom-33" d="M 318.2,62.8 L 319.8,67.0" style="fill:none;fill-rule:evenodd;stroke:#FF7F00;stroke-width:2.0px;stroke-linecap:butt;stroke-linejoin:miter;stroke-opacity:1"/>
<path class="bond-32 atom-31 atom-33" d="M 319.8,67.0 L 321.4,71.1" style="fill:none;fill-rule:evenodd;stroke:#FF0000;stroke-width:2.0px;stroke-linecap:butt;stroke-linejoin:miter;stroke-opacity:1"/>
<path class="bond-33 atom-31 atom-34" d="M 319.0,59.5 L 323.7,57.7" style="fill:none;fill-rule:evenodd;stroke:#FF7F00;stroke-width:2.0px;stroke-linecap:butt;stroke-linejoin:miter;stroke-opacity:1"/>
<path class="bond-33 atom-31 atom-34" d="M 323.7,57.7 L 328.3,55.9" style="fill:none;fill-rule:evenodd;stroke:#FF0000;stroke-width:2.0px;stroke-linecap:butt;stroke-linejoin:miter;stroke-opacity:1"/>
<path class="bond-34 atom-1 atom-35" d="M 213.0,90.4 L 200.8,98.4" style="fill:none;fill-rule:evenodd;stroke:#000000;stroke-width:2.0px;stroke-linecap:butt;stroke-linejoin:miter;stroke-opacity:1"/>
<path class="bond-35 atom-35 atom-36" d="M 200.8,98.4 L 201.1,104.3" style="fill:none;fill-rule:evenodd;stroke:#000000;stroke-width:2.0px;stroke-linecap:butt;stroke-linejoin:miter;stroke-opacity:1"/>
<path class="bond-35 atom-35 atom-36" d="M 201.1,104.3 L 201.4,110.2" style="fill:none;fill-rule:evenodd;stroke:#FF0000;stroke-width:2.0px;stroke-linecap:butt;stroke-linejoin:miter;stroke-opacity:1"/>
<path class="bond-36 atom-35 atom-37" d="M 200.8,98.4 L 187.8,91.8" style="fill:none;fill-rule:evenodd;stroke:#000000;stroke-width:2.0px;stroke-linecap:butt;stroke-linejoin:miter;stroke-opacity:1"/>
<path class="bond-37 atom-37 atom-38" d="M 188.9,92.3 L 188.6,86.1" style="fill:none;fill-rule:evenodd;stroke:#000000;stroke-width:2.0px;stroke-linecap:butt;stroke-linejoin:miter;stroke-opacity:1"/>
<path class="bond-37 atom-37 atom-38" d="M 188.6,86.1 L 188.3,79.9" style="fill:none;fill-rule:evenodd;stroke:#FF0000;stroke-width:2.0px;stroke-linecap:butt;stroke-linejoin:miter;stroke-opacity:1"/>
<path class="bond-37 atom-37 atom-38" d="M 186.8,92.4 L 186.4,86.2" style="fill:none;fill-rule:evenodd;stroke:#000000;stroke-width:2.0px;stroke-linecap:butt;stroke-linejoin:miter;stroke-opacity:1"/>
<path class="bond-37 atom-37 atom-38" d="M 186.4,86.2 L 186.1,80.0" style="fill:none;fill-rule:evenodd;stroke:#FF0000;stroke-width:2.0px;stroke-linecap:butt;stroke-linejoin:miter;stroke-opacity:1"/>
<path class="bond-38 atom-37 atom-39" d="M 187.8,91.8 L 182.8,95.0" style="fill:none;fill-rule:evenodd;stroke:#000000;stroke-width:2.0px;stroke-linecap:butt;stroke-linejoin:miter;stroke-opacity:1"/>
<path class="bond-38 atom-37 atom-39" d="M 182.8,95.0 L 177.7,98.3" style="fill:none;fill-rule:evenodd;stroke:#0000FF;stroke-width:2.0px;stroke-linecap:butt;stroke-linejoin:miter;stroke-opacity:1"/>
<path class="bond-39 atom-39 atom-40" d="M 173.5,98.6 L 168.1,95.9" style="fill:none;fill-rule:evenodd;stroke:#0000FF;stroke-width:2.0px;stroke-linecap:butt;stroke-linejoin:miter;stroke-opacity:1"/>
<path class="bond-39 atom-39 atom-40" d="M 168.1,95.9 L 162.7,93.1" style="fill:none;fill-rule:evenodd;stroke:#000000;stroke-width:2.0px;stroke-linecap:butt;stroke-linejoin:miter;stroke-opacity:1"/>
<path class="bond-40 atom-40 atom-41" d="M 162.7,93.1 L 150.5,101.0" style="fill:none;fill-rule:evenodd;stroke:#000000;stroke-width:2.0px;stroke-linecap:butt;stroke-linejoin:miter;stroke-opacity:1"/>
<path class="bond-41 atom-41 atom-42" d="M 150.5,101.0 L 137.5,94.4" style="fill:none;fill-rule:evenodd;stroke:#000000;stroke-width:2.0px;stroke-linecap:butt;stroke-linejoin:miter;stroke-opacity:1"/>
<path class="bond-42 atom-42 atom-43" d="M 138.6,95.0 L 138.3,88.8" style="fill:none;fill-rule:evenodd;stroke:#000000;stroke-width:2.0px;stroke-linecap:butt;stroke-linejoin:miter;stroke-opacity:1"/>
<path class="bond-42 atom-42 atom-43" d="M 138.3,88.8 L 138.0,82.6" style="fill:none;fill-rule:evenodd;stroke:#FF0000;stroke-width:2.0px;stroke-linecap:butt;stroke-linejoin:miter;stroke-opacity:1"/>
<path class="bond-42 atom-42 atom-43" d="M 136.5,95.1 L 136.1,88.9" style="fill:none;fill-rule:evenodd;stroke:#000000;stroke-width:2.0px;stroke-linecap:butt;stroke-linejoin:miter;stroke-opacity:1"/>
<path class="bond-42 atom-42 atom-43" d="M 136.1,88.9 L 135.8,82.7" style="fill:none;fill-rule:evenodd;stroke:#FF0000;stroke-width:2.0px;stroke-linecap:butt;stroke-linejoin:miter;stroke-opacity:1"/>
<path class="bond-43 atom-42 atom-44" d="M 137.5,94.4 L 132.5,97.7" style="fill:none;fill-rule:evenodd;stroke:#000000;stroke-width:2.0px;stroke-linecap:butt;stroke-linejoin:miter;stroke-opacity:1"/>
<path class="bond-43 atom-42 atom-44" d="M 132.5,97.7 L 127.4,101.0" style="fill:none;fill-rule:evenodd;stroke:#0000FF;stroke-width:2.0px;stroke-linecap:butt;stroke-linejoin:miter;stroke-opacity:1"/>
<path class="bond-44 atom-44 atom-45" d="M 123.2,101.3 L 117.8,98.5" style="fill:none;fill-rule:evenodd;stroke:#0000FF;stroke-width:2.0px;stroke-linecap:butt;stroke-linejoin:miter;stroke-opacity:1"/>
<path class="bond-44 atom-44 atom-45" d="M 117.8,98.5 L 112.4,95.8" style="fill:none;fill-rule:evenodd;stroke:#000000;stroke-width:2.0px;stroke-linecap:butt;stroke-linejoin:miter;stroke-opacity:1"/>
<path class="bond-45 atom-45 atom-46" d="M 112.4,95.8 L 100.2,103.7" style="fill:none;fill-rule:evenodd;stroke:#000000;stroke-width:2.0px;stroke-linecap:butt;stroke-linejoin:miter;stroke-opacity:1"/>
<path class="bond-46 atom-46 atom-47" d="M 100.2,103.7 L 94.6,100.9" style="fill:none;fill-rule:evenodd;stroke:#000000;stroke-width:2.0px;stroke-linecap:butt;stroke-linejoin:miter;stroke-opacity:1"/>
<path class="bond-46 atom-46 atom-47" d="M 94.6,100.9 L 89.1,98.1" style="fill:none;fill-rule:evenodd;stroke:#CCCC00;stroke-width:2.0px;stroke-linecap:butt;stroke-linejoin:miter;stroke-opacity:1"/>
<path class="bond-47 atom-47 atom-48" d="M 85.4,98.3 L 80.2,101.7" style="fill:none;fill-rule:evenodd;stroke:#CCCC00;stroke-width:2.0px;stroke-linecap:butt;stroke-linejoin:miter;stroke-opacity:1"/>
<path class="bond-47 atom-47 atom-48" d="M 80.2,101.7 L 75.0,105.0" style="fill:none;fill-rule:evenodd;stroke:#000000;stroke-width:2.0px;stroke-linecap:butt;stroke-linejoin:miter;stroke-opacity:1"/>
<path class="bond-48 atom-48 atom-49" d="M 73.9,104.5 L 74.2,110.7" style="fill:none;fill-rule:evenodd;stroke:#000000;stroke-width:2.0px;stroke-linecap:butt;stroke-linejoin:miter;stroke-opacity:1"/>
<path class="bond-48 atom-48 atom-49" d="M 74.2,110.7 L 74.6,117.0" style="fill:none;fill-rule:evenodd;stroke:#FF0000;stroke-width:2.0px;stroke-linecap:butt;stroke-linejoin:miter;stroke-opacity:1"/>
<path class="bond-48 atom-48 atom-49" d="M 76.1,104.4 L 76.4,110.6" style="fill:none;fill-rule:evenodd;stroke:#000000;stroke-width:2.0px;stroke-linecap:butt;stroke-linejoin:miter;stroke-opacity:1"/>
<path class="bond-48 atom-48 atom-49" d="M 76.4,110.6 L 76.8,116.9" style="fill:none;fill-rule:evenodd;stroke:#FF0000;stroke-width:2.0px;stroke-linecap:butt;stroke-linejoin:miter;stroke-opacity:1"/>
<path class="bond-49 atom-48 atom-50" d="M 75.0,105.0 L 62.1,98.5" style="fill:none;fill-rule:evenodd;stroke:#000000;stroke-width:2.0px;stroke-linecap:butt;stroke-linejoin:miter;stroke-opacity:1"/>
<path class="bond-50 atom-50 atom-51" d="M 62.1,98.5 L 61.8,92.5" style="fill:none;fill-rule:evenodd;stroke:#000000;stroke-width:2.0px;stroke-linecap:butt;stroke-linejoin:miter;stroke-opacity:1"/>
<path class="bond-50 atom-50 atom-51" d="M 61.8,92.5 L 61.4,86.6" style="fill:none;fill-rule:evenodd;stroke:#FF0000;stroke-width:2.0px;stroke-linecap:butt;stroke-linejoin:miter;stroke-opacity:1"/>
<path class="bond-51 atom-50 atom-52" d="M 62.1,98.5 L 49.9,106.4" style="fill:none;fill-rule:evenodd;stroke:#000000;stroke-width:2.0px;stroke-linecap:butt;stroke-linejoin:miter;stroke-opacity:1"/>
<path class="bond-52 atom-52 atom-53" d="M 49.9,106.4 L 36.9,99.8" style="fill:none;fill-rule:evenodd;stroke:#000000;stroke-width:2.0px;stroke-linecap:butt;stroke-linejoin:miter;stroke-opacity:1"/>
<path class="bond-53 atom-53 atom-54" d="M 38.0,100.4 L 37.7,94.1" style="fill:none;fill-rule:evenodd;stroke:#000000;stroke-width:2.0px;stroke-linecap:butt;stroke-linejoin:miter;stroke-opacity:1"/>
<path class="bond-53 atom-53 atom-54" d="M 37.7,94.1 L 37.4,87.9" style="fill:none;fill-rule:evenodd;stroke:#FF0000;stroke-width:2.0px;stroke-linecap:butt;stroke-linejoin:miter;stroke-opacity:1"/>
<path class="bond-53 atom-53 atom-54" d="M 35.9,100.5 L 35.5,94.3" style="fill:none;fill-rule:evenodd;stroke:#000000;stroke-width:2.0px;stroke-linecap:butt;stroke-linejoin:miter;stroke-opacity:1"/>
<path class="bond-53 atom-53 atom-54" d="M 35.5,94.3 L 35.2,88.0" style="fill:none;fill-rule:evenodd;stroke:#FF0000;stroke-width:2.0px;stroke-linecap:butt;stroke-linejoin:miter;stroke-opacity:1"/>
<path class="bond-54 atom-53 atom-55" d="M 36.9,99.8 L 32.0,103.0" style="fill:none;fill-rule:evenodd;stroke:#000000;stroke-width:2.0px;stroke-linecap:butt;stroke-linejoin:miter;stroke-opacity:1"/>
<path class="bond-54 atom-53 atom-55" d="M 32.0,103.0 L 27.2,106.1" style="fill:none;fill-rule:evenodd;stroke:#FF0000;stroke-width:2.0px;stroke-linecap:butt;stroke-linejoin:miter;stroke-opacity:1"/>
<path class="bond-55 atom-29 atom-14" d="M 301.4,79.8 L 288.4,86.4" style="fill:none;fill-rule:evenodd;stroke:#000000;stroke-width:2.0px;stroke-linecap:butt;stroke-linejoin:miter;stroke-opacity:1"/>
<path class="bond-56 atom-26 atom-17" d="M 326.0,118.2 L 319.9,117.3" style="fill:none;fill-rule:evenodd;stroke:#000000;stroke-width:2.0px;stroke-linecap:butt;stroke-linejoin:miter;stroke-opacity:1"/>
<path class="bond-56 atom-26 atom-17" d="M 319.9,117.3 L 313.8,116.3" style="fill:none;fill-rule:evenodd;stroke:#0000FF;stroke-width:2.0px;stroke-linecap:butt;stroke-linejoin:miter;stroke-opacity:1"/>
<path class="bond-57 atom-26 atom-20" d="M 326.0,118.2 L 328.3,132.6" style="fill:none;fill-rule:evenodd;stroke:#000000;stroke-width:2.0px;stroke-linecap:butt;stroke-linejoin:miter;stroke-opacity:1"/>
<path d="M 224.5,82.9 L 225.2,82.5 L 225.1,82.2" style="fill:none;stroke:#000000;stroke-width:2.0px;stroke-linecap:butt;stroke-linejoin:miter;stroke-opacity:1;"/>
<path d="M 275.4,79.5 L 275.5,79.8 L 276.1,80.1" style="fill:none;stroke:#000000;stroke-width:2.0px;stroke-linecap:butt;stroke-linejoin:miter;stroke-opacity:1;"/>
<path d="M 305.2,128.7 L 305.1,128.9 L 305.3,129.1" style="fill:none;stroke:#000000;stroke-width:2.0px;stroke-linecap:butt;stroke-linejoin:miter;stroke-opacity:1;"/>
<path d="M 351.0,114.6 L 350.9,114.3 L 350.6,114.2" style="fill:none;stroke:#000000;stroke-width:2.0px;stroke-linecap:butt;stroke-linejoin:miter;stroke-opacity:1;"/>
<path d="M 188.5,92.1 L 187.8,91.8 L 187.6,91.9" style="fill:none;stroke:#000000;stroke-width:2.0px;stroke-linecap:butt;stroke-linejoin:miter;stroke-opacity:1;"/>
<path d="M 162.9,93.2 L 162.7,93.1 L 162.1,93.5" style="fill:none;stroke:#000000;stroke-width:2.0px;stroke-linecap:butt;stroke-linejoin:miter;stroke-opacity:1;"/>
<path d="M 151.1,100.6 L 150.5,101.0 L 149.8,100.7" style="fill:none;stroke:#000000;stroke-width:2.0px;stroke-linecap:butt;stroke-linejoin:miter;stroke-opacity:1;"/>
<path d="M 138.2,94.8 L 137.5,94.4 L 137.3,94.6" style="fill:none;stroke:#000000;stroke-width:2.0px;stroke-linecap:butt;stroke-linejoin:miter;stroke-opacity:1;"/>
<path d="M 112.6,95.9 L 112.4,95.8 L 111.8,96.2" style="fill:none;stroke:#000000;stroke-width:2.0px;stroke-linecap:butt;stroke-linejoin:miter;stroke-opacity:1;"/>
<path d="M 100.8,103.3 L 100.2,103.7 L 99.9,103.6" style="fill:none;stroke:#000000;stroke-width:2.0px;stroke-linecap:butt;stroke-linejoin:miter;stroke-opacity:1;"/>
<path d="M 75.3,104.9 L 75.0,105.0 L 74.4,104.7" style="fill:none;stroke:#000000;stroke-width:2.0px;stroke-linecap:butt;stroke-linejoin:miter;stroke-opacity:1;"/>
<path d="M 50.5,106.0 L 49.9,106.4 L 49.2,106.1" style="fill:none;stroke:#000000;stroke-width:2.0px;stroke-linecap:butt;stroke-linejoin:miter;stroke-opacity:1;"/>
<path d="M 37.6,100.1 L 36.9,99.8 L 36.7,100.0" style="fill:none;stroke:#000000;stroke-width:2.0px;stroke-linecap:butt;stroke-linejoin:miter;stroke-opacity:1;"/>
<path class="atom-4" d="M 222.4 68.0 Q 222.4 67.0, 222.9 66.4 Q 223.4 65.8, 224.4 65.8 Q 225.3 65.8, 225.8 66.4 Q 226.3 67.0, 226.3 68.0 Q 226.3 69.0, 225.8 69.6 Q 225.3 70.2, 224.4 70.2 Q 223.4 70.2, 222.9 69.6 Q 222.4 69.0, 222.4 68.0 M 224.4 69.7 Q 225.0 69.7, 225.4 69.3 Q 225.7 68.8, 225.7 68.0 Q 225.7 67.1, 225.4 66.7 Q 225.0 66.3, 224.4 66.3 Q 223.7 66.3, 223.4 66.7 Q 223.0 67.1, 223.0 68.0 Q 223.0 68.8, 223.4 69.3 Q 223.7 69.7, 224.4 69.7 " fill="#FF0000"/>
<path class="atom-5" d="M 236.5 57.9 Q 237.2 57.9, 237.6 58.2 Q 237.9 58.6, 237.9 59.2 Q 237.9 59.8, 237.6 60.1 Q 237.2 60.4, 236.5 60.4 L 235.8 60.4 L 235.8 62.2 L 235.2 62.2 L 235.2 57.9 L 236.5 57.9 M 236.5 59.9 Q 236.9 59.9, 237.1 59.7 Q 237.3 59.5, 237.3 59.2 Q 237.3 58.8, 237.1 58.6 Q 236.9 58.4, 236.5 58.4 L 235.8 58.4 L 235.8 59.9 L 236.5 59.9 " fill="#FF7F00"/>
<path class="atom-6" d="M 226.7 47.9 Q 226.7 46.8, 227.2 46.3 Q 227.7 45.7, 228.6 45.7 Q 229.6 45.7, 230.1 46.3 Q 230.6 46.8, 230.6 47.9 Q 230.6 48.9, 230.1 49.5 Q 229.6 50.1, 228.6 50.1 Q 227.7 50.1, 227.2 49.5 Q 226.7 48.9, 226.7 47.9 M 228.6 49.6 Q 229.3 49.6, 229.6 49.2 Q 230.0 48.7, 230.0 47.9 Q 230.0 47.0, 229.6 46.6 Q 229.3 46.2, 228.6 46.2 Q 228.0 46.2, 227.6 46.6 Q 227.3 47.0, 227.3 47.9 Q 227.3 48.7, 227.6 49.2 Q 228.0 49.6, 228.6 49.6 " fill="#FF0000"/>
<path class="atom-7" d="M 242.6 72.2 Q 242.6 71.2, 243.1 70.7 Q 243.6 70.1, 244.5 70.1 Q 245.4 70.1, 245.9 70.7 Q 246.5 71.2, 246.5 72.2 Q 246.5 73.3, 245.9 73.9 Q 245.4 74.4, 244.5 74.4 Q 243.6 74.4, 243.1 73.9 Q 242.6 73.3, 242.6 72.2 M 244.5 74.0 Q 245.2 74.0, 245.5 73.5 Q 245.9 73.1, 245.9 72.2 Q 245.9 71.4, 245.5 71.0 Q 245.2 70.6, 244.5 70.6 Q 243.9 70.6, 243.5 71.0 Q 243.2 71.4, 243.2 72.2 Q 243.2 73.1, 243.5 73.5 Q 243.9 74.0, 244.5 74.0 " fill="#FF0000"/>
<path class="atom-7" d="M 247.1 70.1 L 247.7 70.1 L 247.7 71.9 L 249.9 71.9 L 249.9 70.1 L 250.4 70.1 L 250.4 74.4 L 249.9 74.4 L 249.9 72.4 L 247.7 72.4 L 247.7 74.4 L 247.1 74.4 L 247.1 70.1 " fill="#FF0000"/>
<path class="atom-8" d="M 246.8 52.1 Q 246.8 51.1, 247.3 50.5 Q 247.8 50.0, 248.8 50.0 Q 249.7 50.0, 250.2 50.5 Q 250.7 51.1, 250.7 52.1 Q 250.7 53.2, 250.2 53.7 Q 249.7 54.3, 248.8 54.3 Q 247.8 54.3, 247.3 53.7 Q 246.8 53.2, 246.8 52.1 M 248.8 53.8 Q 249.4 53.8, 249.8 53.4 Q 250.1 53.0, 250.1 52.1 Q 250.1 51.3, 249.8 50.9 Q 249.4 50.4, 248.8 50.4 Q 248.1 50.4, 247.8 50.9 Q 247.4 51.3, 247.4 52.1 Q 247.4 53.0, 247.8 53.4 Q 248.1 53.8, 248.8 53.8 " fill="#FF0000"/>
<path class="atom-9" d="M 261.6 56.6 Q 262.3 56.6, 262.7 56.9 Q 263.1 57.2, 263.1 57.8 Q 263.1 58.4, 262.7 58.7 Q 262.3 59.1, 261.6 59.1 L 260.9 59.1 L 260.9 60.8 L 260.4 60.8 L 260.4 56.6 L 261.6 56.6 M 261.6 58.6 Q 262.0 58.6, 262.3 58.4 Q 262.5 58.2, 262.5 57.8 Q 262.5 57.4, 262.3 57.3 Q 262.0 57.1, 261.6 57.1 L 260.9 57.1 L 260.9 58.6 L 261.6 58.6 " fill="#FF7F00"/>
<path class="atom-10" d="M 253.2 71.7 Q 253.2 70.7, 253.7 70.1 Q 254.2 69.5, 255.1 69.5 Q 256.1 69.5, 256.6 70.1 Q 257.1 70.7, 257.1 71.7 Q 257.1 72.7, 256.6 73.3 Q 256.1 73.9, 255.1 73.9 Q 254.2 73.9, 253.7 73.3 Q 253.2 72.7, 253.2 71.7 M 255.1 73.4 Q 255.8 73.4, 256.1 73.0 Q 256.5 72.5, 256.5 71.7 Q 256.5 70.8, 256.1 70.4 Q 255.8 70.0, 255.1 70.0 Q 254.5 70.0, 254.1 70.4 Q 253.8 70.8, 253.8 71.7 Q 253.8 72.5, 254.1 73.0 Q 254.5 73.4, 255.1 73.4 " fill="#FF0000"/>
<path class="atom-11" d="M 266.4 45.8 Q 266.4 44.7, 266.9 44.2 Q 267.4 43.6, 268.3 43.6 Q 269.3 43.6, 269.8 44.2 Q 270.3 44.7, 270.3 45.8 Q 270.3 46.8, 269.8 47.4 Q 269.2 48.0, 268.3 48.0 Q 267.4 48.0, 266.9 47.4 Q 266.4 46.8, 266.4 45.8 M 268.3 47.5 Q 269.0 47.5, 269.3 47.0 Q 269.7 46.6, 269.7 45.8 Q 269.7 44.9, 269.3 44.5 Q 269.0 44.1, 268.3 44.1 Q 267.7 44.1, 267.3 44.5 Q 267.0 44.9, 267.0 45.8 Q 267.0 46.6, 267.3 47.0 Q 267.7 47.5, 268.3 47.5 " fill="#FF0000"/>
<path class="atom-11" d="M 270.9 43.6 L 271.5 43.6 L 271.5 45.4 L 273.7 45.4 L 273.7 43.6 L 274.2 43.6 L 274.2 47.9 L 273.7 47.9 L 273.7 45.9 L 271.5 45.9 L 271.5 47.9 L 270.9 47.9 L 270.9 43.6 " fill="#FF0000"/>
<path class="atom-12" d="M 272.7 65.3 Q 272.7 64.3, 273.2 63.7 Q 273.7 63.1, 274.7 63.1 Q 275.6 63.1, 276.1 63.7 Q 276.6 64.3, 276.6 65.3 Q 276.6 66.3, 276.1 66.9 Q 275.6 67.5, 274.7 67.5 Q 273.7 67.5, 273.2 66.9 Q 272.7 66.3, 272.7 65.3 M 274.7 67.0 Q 275.3 67.0, 275.7 66.6 Q 276.0 66.2, 276.0 65.3 Q 276.0 64.5, 275.7 64.1 Q 275.3 63.6, 274.7 63.6 Q 274.0 63.6, 273.7 64.0 Q 273.3 64.5, 273.3 65.3 Q 273.3 66.2, 273.7 66.6 Q 274.0 67.0, 274.7 67.0 " fill="#FF0000"/>
<path class="atom-15" d="M 288.8 100.8 Q 288.8 99.8, 289.3 99.2 Q 289.8 98.6, 290.7 98.6 Q 291.6 98.6, 292.2 99.2 Q 292.7 99.8, 292.7 100.8 Q 292.7 101.8, 292.1 102.4 Q 291.6 103.0, 290.7 103.0 Q 289.8 103.0, 289.3 102.4 Q 288.8 101.8, 288.8 100.8 M 290.7 102.5 Q 291.4 102.5, 291.7 102.1 Q 292.1 101.6, 292.1 100.8 Q 292.1 99.9, 291.7 99.5 Q 291.4 99.1, 290.7 99.1 Q 290.1 99.1, 289.7 99.5 Q 289.4 99.9, 289.4 100.8 Q 289.4 101.6, 289.7 102.1 Q 290.1 102.5, 290.7 102.5 " fill="#FF0000"/>
<path class="atom-17" d="M 310.7 113.9 L 312.1 116.1 Q 312.3 116.3, 312.5 116.7 Q 312.7 117.1, 312.7 117.2 L 312.7 113.9 L 313.3 113.9 L 313.3 118.1 L 312.7 118.1 L 311.2 115.6 Q 311.0 115.4, 310.9 115.0 Q 310.7 114.7, 310.6 114.6 L 310.6 118.1 L 310.1 118.1 L 310.1 113.9 L 310.7 113.9 " fill="#0000FF"/>
<path class="atom-19" d="M 314.4 137.1 L 315.8 139.3 Q 316.0 139.6, 316.2 140.0 Q 316.4 140.4, 316.4 140.4 L 316.4 137.1 L 317.0 137.1 L 317.0 141.3 L 316.4 141.3 L 314.9 138.9 Q 314.7 138.6, 314.6 138.3 Q 314.4 137.9, 314.3 137.8 L 314.3 141.3 L 313.8 141.3 L 313.8 137.1 L 314.4 137.1 " fill="#0000FF"/>
<path class="atom-22" d="M 343.3 150.0 L 344.7 152.3 Q 344.8 152.5, 345.0 152.9 Q 345.2 153.3, 345.2 153.3 L 345.2 150.0 L 345.8 150.0 L 345.8 154.3 L 345.2 154.3 L 343.7 151.8 Q 343.6 151.5, 343.4 151.2 Q 343.2 150.9, 343.1 150.8 L 343.1 154.3 L 342.6 154.3 L 342.6 150.0 L 343.3 150.0 " fill="#0000FF"/>
<path class="atom-22" d="M 346.6 150.0 L 347.2 150.0 L 347.2 151.8 L 349.4 151.8 L 349.4 150.0 L 349.9 150.0 L 349.9 154.3 L 349.4 154.3 L 349.4 152.3 L 347.2 152.3 L 347.2 154.3 L 346.6 154.3 L 346.6 150.0 " fill="#0000FF"/>
<path class="atom-22" d="M 350.8 154.1 Q 350.9 153.9, 351.1 153.7 Q 351.4 153.6, 351.7 153.6 Q 352.1 153.6, 352.4 153.8 Q 352.6 154.0, 352.6 154.4 Q 352.6 154.9, 352.3 155.2 Q 352.0 155.6, 351.4 156.1 L 352.7 156.1 L 352.7 156.4 L 350.8 156.4 L 350.8 156.1 Q 351.3 155.8, 351.6 155.5 Q 351.9 155.2, 352.1 155.0 Q 352.2 154.7, 352.2 154.5 Q 352.2 154.2, 352.1 154.0 Q 351.9 153.9, 351.7 153.9 Q 351.5 153.9, 351.3 154.0 Q 351.2 154.1, 351.1 154.3 L 350.8 154.1 " fill="#0000FF"/>
<path class="atom-23" d="M 352.3 126.5 L 353.7 128.8 Q 353.8 129.0, 354.0 129.4 Q 354.2 129.8, 354.3 129.8 L 354.3 126.5 L 354.8 126.5 L 354.8 130.8 L 354.2 130.8 L 352.7 128.3 Q 352.6 128.0, 352.4 127.7 Q 352.2 127.4, 352.1 127.3 L 352.1 130.8 L 351.6 130.8 L 351.6 126.5 L 352.3 126.5 " fill="#0000FF"/>
<path class="atom-25" d="M 336.4 107.0 L 337.8 109.2 Q 337.9 109.4, 338.2 109.8 Q 338.4 110.2, 338.4 110.3 L 338.4 107.0 L 339.0 107.0 L 339.0 111.2 L 338.4 111.2 L 336.9 108.7 Q 336.7 108.5, 336.5 108.1 Q 336.3 107.8, 336.3 107.7 L 336.3 111.2 L 335.7 111.2 L 335.7 107.0 L 336.4 107.0 " fill="#0000FF"/>
<path class="atom-28" d="M 324.1 87.8 Q 324.1 86.8, 324.6 86.2 Q 325.1 85.6, 326.0 85.6 Q 327.0 85.6, 327.5 86.2 Q 328.0 86.8, 328.0 87.8 Q 328.0 88.8, 327.5 89.4 Q 327.0 90.0, 326.0 90.0 Q 325.1 90.0, 324.6 89.4 Q 324.1 88.8, 324.1 87.8 M 326.0 89.5 Q 326.7 89.5, 327.0 89.1 Q 327.4 88.6, 327.4 87.8 Q 327.4 87.0, 327.0 86.5 Q 326.7 86.1, 326.0 86.1 Q 325.4 86.1, 325.0 86.5 Q 324.7 86.9, 324.7 87.8 Q 324.7 88.6, 325.0 89.1 Q 325.4 89.5, 326.0 89.5 " fill="#FF0000"/>
<path class="atom-28" d="M 328.6 85.7 L 329.2 85.7 L 329.2 87.5 L 331.4 87.5 L 331.4 85.7 L 332.0 85.7 L 332.0 89.9 L 331.4 89.9 L 331.4 88.0 L 329.2 88.0 L 329.2 89.9 L 328.6 89.9 L 328.6 85.7 " fill="#FF0000"/>
<path class="atom-30" d="M 301.7 65.4 Q 301.7 64.4, 302.2 63.8 Q 302.7 63.3, 303.6 63.3 Q 304.6 63.3, 305.1 63.8 Q 305.6 64.4, 305.6 65.4 Q 305.6 66.5, 305.1 67.1 Q 304.6 67.6, 303.6 67.6 Q 302.7 67.6, 302.2 67.1 Q 301.7 66.5, 301.7 65.4 M 303.6 67.2 Q 304.3 67.2, 304.6 66.7 Q 305.0 66.3, 305.0 65.4 Q 305.0 64.6, 304.6 64.2 Q 304.3 63.8, 303.6 63.8 Q 303.0 63.8, 302.6 64.2 Q 302.3 64.6, 302.3 65.4 Q 302.3 66.3, 302.6 66.7 Q 303.0 67.2, 303.6 67.2 " fill="#FF0000"/>
<path class="atom-31" d="M 317.1 58.1 Q 317.8 58.1, 318.2 58.4 Q 318.6 58.7, 318.6 59.3 Q 318.6 59.9, 318.2 60.3 Q 317.8 60.6, 317.1 60.6 L 316.4 60.6 L 316.4 62.3 L 315.8 62.3 L 315.8 58.1 L 317.1 58.1 M 317.1 60.1 Q 317.5 60.1, 317.7 59.9 Q 318.0 59.7, 318.0 59.3 Q 318.0 59.0, 317.7 58.8 Q 317.5 58.6, 317.1 58.6 L 316.4 58.6 L 316.4 60.1 L 317.1 60.1 " fill="#FF7F00"/>
<path class="atom-32" d="M 310.0 46.6 Q 310.0 45.6, 310.5 45.1 Q 311.0 44.5, 312.0 44.5 Q 312.9 44.5, 313.4 45.1 Q 313.9 45.6, 313.9 46.6 Q 313.9 47.7, 313.4 48.3 Q 312.9 48.8, 312.0 48.8 Q 311.0 48.8, 310.5 48.3 Q 310.0 47.7, 310.0 46.6 M 312.0 48.4 Q 312.6 48.4, 313.0 47.9 Q 313.3 47.5, 313.3 46.6 Q 313.3 45.8, 313.0 45.4 Q 312.6 45.0, 312.0 45.0 Q 311.3 45.0, 311.0 45.4 Q 310.6 45.8, 310.6 46.6 Q 310.6 47.5, 311.0 47.9 Q 311.3 48.4, 312.0 48.4 " fill="#FF0000"/>
<path class="atom-33" d="M 320.5 73.8 Q 320.5 72.8, 321.0 72.2 Q 321.5 71.6, 322.4 71.6 Q 323.4 71.6, 323.9 72.2 Q 324.4 72.8, 324.4 73.8 Q 324.4 74.8, 323.9 75.4 Q 323.4 76.0, 322.4 76.0 Q 321.5 76.0, 321.0 75.4 Q 320.5 74.8, 320.5 73.8 M 322.4 75.5 Q 323.1 75.5, 323.4 75.1 Q 323.8 74.6, 323.8 73.8 Q 323.8 73.0, 323.4 72.5 Q 323.1 72.1, 322.4 72.1 Q 321.8 72.1, 321.4 72.5 Q 321.1 72.9, 321.1 73.8 Q 321.1 74.6, 321.4 75.1 Q 321.8 75.5, 322.4 75.5 " fill="#FF0000"/>
<path class="atom-33" d="M 325.0 71.7 L 325.6 71.7 L 325.6 73.5 L 327.8 73.5 L 327.8 71.7 L 328.4 71.7 L 328.4 75.9 L 327.8 75.9 L 327.8 74.0 L 325.6 74.0 L 325.6 75.9 L 325.0 75.9 L 325.0 71.7 " fill="#FF0000"/>
<path class="atom-34" d="M 328.8 55.0 Q 328.8 54.0, 329.3 53.4 Q 329.8 52.8, 330.8 52.8 Q 331.7 52.8, 332.2 53.4 Q 332.7 54.0, 332.7 55.0 Q 332.7 56.0, 332.2 56.6 Q 331.7 57.2, 330.8 57.2 Q 329.8 57.2, 329.3 56.6 Q 328.8 56.0, 328.8 55.0 M 330.8 56.7 Q 331.4 56.7, 331.8 56.3 Q 332.1 55.8, 332.1 55.0 Q 332.1 54.2, 331.8 53.7 Q 331.4 53.3, 330.8 53.3 Q 330.1 53.3, 329.8 53.7 Q 329.4 54.2, 329.4 55.0 Q 329.4 55.9, 329.8 56.3 Q 330.1 56.7, 330.8 56.7 " fill="#FF0000"/>
<path class="atom-34" d="M 333.4 52.9 L 334.0 52.9 L 334.0 54.7 L 336.1 54.7 L 336.1 52.9 L 336.7 52.9 L 336.7 57.1 L 336.1 57.1 L 336.1 55.2 L 334.0 55.2 L 334.0 57.1 L 333.4 57.1 L 333.4 52.9 " fill="#FF0000"/>
<path class="atom-36" d="M 199.6 112.9 Q 199.6 111.9, 200.1 111.3 Q 200.6 110.7, 201.6 110.7 Q 202.5 110.7, 203.0 111.3 Q 203.5 111.9, 203.5 112.9 Q 203.5 113.9, 203.0 114.5 Q 202.5 115.1, 201.6 115.1 Q 200.6 115.1, 200.1 114.5 Q 199.6 113.9, 199.6 112.9 M 201.6 114.6 Q 202.2 114.6, 202.5 114.2 Q 202.9 113.7, 202.9 112.9 Q 202.9 112.1, 202.5 111.6 Q 202.2 111.2, 201.6 111.2 Q 200.9 111.2, 200.6 111.6 Q 200.2 112.0, 200.2 112.9 Q 200.2 113.7, 200.6 114.2 Q 200.9 114.6, 201.6 114.6 " fill="#FF0000"/>
<path class="atom-36" d="M 204.2 110.8 L 204.7 110.8 L 204.7 112.6 L 206.9 112.6 L 206.9 110.8 L 207.5 110.8 L 207.5 115.0 L 206.9 115.0 L 206.9 113.1 L 204.7 113.1 L 204.7 115.0 L 204.2 115.0 L 204.2 110.8 " fill="#FF0000"/>
<path class="atom-38" d="M 185.1 77.3 Q 185.1 76.2, 185.6 75.7 Q 186.1 75.1, 187.0 75.1 Q 188.0 75.1, 188.5 75.7 Q 189.0 76.2, 189.0 77.3 Q 189.0 78.3, 188.5 78.9 Q 188.0 79.5, 187.0 79.5 Q 186.1 79.5, 185.6 78.9 Q 185.1 78.3, 185.1 77.3 M 187.0 79.0 Q 187.7 79.0, 188.0 78.5 Q 188.4 78.1, 188.4 77.3 Q 188.4 76.4, 188.0 76.0 Q 187.7 75.6, 187.0 75.6 Q 186.4 75.6, 186.0 76.0 Q 185.7 76.4, 185.7 77.3 Q 185.7 78.1, 186.0 78.5 Q 186.4 79.0, 187.0 79.0 " fill="#FF0000"/>
<path class="atom-39" d="M 174.7 97.6 L 176.1 99.8 Q 176.2 100.0, 176.4 100.4 Q 176.7 100.8, 176.7 100.9 L 176.7 97.6 L 177.2 97.6 L 177.2 101.8 L 176.7 101.8 L 175.2 99.4 Q 175.0 99.1, 174.8 98.7 Q 174.6 98.4, 174.6 98.3 L 174.6 101.8 L 174.0 101.8 L 174.0 97.6 L 174.7 97.6 " fill="#0000FF"/>
<path class="atom-39" d="M 174.0 102.2 L 174.5 102.2 L 174.5 104.0 L 176.7 104.0 L 176.7 102.2 L 177.3 102.2 L 177.3 106.5 L 176.7 106.5 L 176.7 104.5 L 174.5 104.5 L 174.5 106.5 L 174.0 106.5 L 174.0 102.2 " fill="#0000FF"/>
<path class="atom-43" d="M 134.8 79.9 Q 134.8 78.9, 135.3 78.3 Q 135.8 77.8, 136.7 77.8 Q 137.7 77.8, 138.2 78.3 Q 138.7 78.9, 138.7 79.9 Q 138.7 81.0, 138.2 81.6 Q 137.7 82.1, 136.7 82.1 Q 135.8 82.1, 135.3 81.6 Q 134.8 81.0, 134.8 79.9 M 136.7 81.7 Q 137.4 81.7, 137.7 81.2 Q 138.1 80.8, 138.1 79.9 Q 138.1 79.1, 137.7 78.7 Q 137.4 78.3, 136.7 78.3 Q 136.1 78.3, 135.7 78.7 Q 135.4 79.1, 135.4 79.9 Q 135.4 80.8, 135.7 81.2 Q 136.1 81.7, 136.7 81.7 " fill="#FF0000"/>
<path class="atom-44" d="M 124.4 100.2 L 125.8 102.5 Q 125.9 102.7, 126.1 103.1 Q 126.4 103.5, 126.4 103.5 L 126.4 100.2 L 126.9 100.2 L 126.9 104.5 L 126.4 104.5 L 124.9 102.0 Q 124.7 101.7, 124.5 101.4 Q 124.3 101.1, 124.3 101.0 L 124.3 104.5 L 123.7 104.5 L 123.7 100.2 L 124.4 100.2 " fill="#0000FF"/>
<path class="atom-44" d="M 123.7 104.9 L 124.2 104.9 L 124.2 106.7 L 126.4 106.7 L 126.4 104.9 L 127.0 104.9 L 127.0 109.2 L 126.4 109.2 L 126.4 107.2 L 124.2 107.2 L 124.2 109.2 L 123.7 109.2 L 123.7 104.9 " fill="#0000FF"/>
<path class="atom-47" d="M 86.0 98.6 Q 86.1 98.6, 86.3 98.7 Q 86.5 98.8, 86.7 98.8 Q 86.9 98.9, 87.1 98.9 Q 87.5 98.9, 87.8 98.7 Q 88.0 98.5, 88.0 98.1 Q 88.0 97.9, 87.9 97.8 Q 87.8 97.6, 87.6 97.5 Q 87.4 97.5, 87.1 97.4 Q 86.7 97.3, 86.5 97.1 Q 86.3 97.0, 86.1 96.8 Q 85.9 96.6, 85.9 96.2 Q 85.9 95.7, 86.3 95.3 Q 86.7 95.0, 87.4 95.0 Q 87.9 95.0, 88.4 95.2 L 88.3 95.7 Q 87.8 95.5, 87.4 95.5 Q 87.0 95.5, 86.8 95.7 Q 86.5 95.8, 86.5 96.1 Q 86.5 96.4, 86.7 96.5 Q 86.8 96.6, 86.9 96.7 Q 87.1 96.8, 87.4 96.9 Q 87.8 97.0, 88.0 97.1 Q 88.2 97.2, 88.4 97.5 Q 88.6 97.7, 88.6 98.1 Q 88.6 98.7, 88.2 99.0 Q 87.8 99.4, 87.1 99.4 Q 86.8 99.4, 86.5 99.3 Q 86.2 99.2, 85.9 99.1 L 86.0 98.6 " fill="#CCCC00"/>
<path class="atom-49" d="M 73.9 119.6 Q 73.9 118.6, 74.4 118.0 Q 74.9 117.4, 75.8 117.4 Q 76.7 117.4, 77.2 118.0 Q 77.8 118.6, 77.8 119.6 Q 77.8 120.6, 77.2 121.2 Q 76.7 121.8, 75.8 121.8 Q 74.9 121.8, 74.4 121.2 Q 73.9 120.6, 73.9 119.6 M 75.8 121.3 Q 76.4 121.3, 76.8 120.9 Q 77.2 120.4, 77.2 119.6 Q 77.2 118.7, 76.8 118.3 Q 76.4 117.9, 75.8 117.9 Q 75.2 117.9, 74.8 118.3 Q 74.5 118.7, 74.5 119.6 Q 74.5 120.4, 74.8 120.9 Q 75.2 121.3, 75.8 121.3 " fill="#FF0000"/>
<path class="atom-51" d="M 59.3 84.0 Q 59.3 82.9, 59.8 82.4 Q 60.4 81.8, 61.3 81.8 Q 62.2 81.8, 62.7 82.4 Q 63.2 82.9, 63.2 84.0 Q 63.2 85.0, 62.7 85.6 Q 62.2 86.2, 61.3 86.2 Q 60.4 86.2, 59.8 85.6 Q 59.3 85.0, 59.3 84.0 M 61.3 85.7 Q 61.9 85.7, 62.3 85.2 Q 62.6 84.8, 62.6 84.0 Q 62.6 83.1, 62.3 82.7 Q 61.9 82.3, 61.3 82.3 Q 60.6 82.3, 60.3 82.7 Q 59.9 83.1, 59.9 84.0 Q 59.9 84.8, 60.3 85.2 Q 60.6 85.7, 61.3 85.7 " fill="#FF0000"/>
<path class="atom-51" d="M 63.9 81.8 L 64.5 81.8 L 64.5 83.6 L 66.7 83.6 L 66.7 81.8 L 67.2 81.8 L 67.2 86.1 L 66.7 86.1 L 66.7 84.1 L 64.5 84.1 L 64.5 86.1 L 63.9 86.1 L 63.9 81.8 " fill="#FF0000"/>
<path class="atom-54" d="M 34.2 85.3 Q 34.2 84.3, 34.7 83.7 Q 35.2 83.1, 36.1 83.1 Q 37.1 83.1, 37.6 83.7 Q 38.1 84.3, 38.1 85.3 Q 38.1 86.3, 37.6 86.9 Q 37.1 87.5, 36.1 87.5 Q 35.2 87.5, 34.7 86.9 Q 34.2 86.3, 34.2 85.3 M 36.1 87.0 Q 36.8 87.0, 37.1 86.6 Q 37.5 86.1, 37.5 85.3 Q 37.5 84.5, 37.1 84.0 Q 36.8 83.6, 36.1 83.6 Q 35.5 83.6, 35.1 84.0 Q 34.8 84.5, 34.8 85.3 Q 34.8 86.1, 35.1 86.6 Q 35.5 87.0, 36.1 87.0 " fill="#FF0000"/>
<path class="atom-55" d="M 18.6 105.6 L 19.2 105.6 L 19.2 107.4 L 21.3 107.4 L 21.3 105.6 L 21.9 105.6 L 21.9 109.9 L 21.3 109.9 L 21.3 107.9 L 19.2 107.9 L 19.2 109.9 L 18.6 109.9 L 18.6 105.6 " fill="#FF0000"/>
<path class="atom-55" d="M 22.8 107.7 Q 22.8 106.7, 23.3 106.2 Q 23.8 105.6, 24.7 105.6 Q 25.7 105.6, 26.2 106.2 Q 26.7 106.7, 26.7 107.7 Q 26.7 108.8, 26.2 109.4 Q 25.7 109.9, 24.7 109.9 Q 23.8 109.9, 23.3 109.4 Q 22.8 108.8, 22.8 107.7 M 24.7 109.5 Q 25.4 109.5, 25.7 109.0 Q 26.1 108.6, 26.1 107.7 Q 26.1 106.9, 25.7 106.5 Q 25.4 106.1, 24.7 106.1 Q 24.1 106.1, 23.7 106.5 Q 23.4 106.9, 23.4 107.7 Q 23.4 108.6, 23.7 109.0 Q 24.1 109.5, 24.7 109.5 " fill="#FF0000"/>
</g>
    <g transform="translate(1030.0, 0) scale(1 1) "><line x1="15" y1="100" x2="25" y2="100" style="stroke:rgb(0,0,0);stroke-width:2"/>
  <line x1="20" y1="95" x2="20" y2="105" style="stroke:rgb(0,0,0);stroke-width:2"/>
</g>
    <g transform="translate(1070.0, 0) scale(1 1) "><!-- END OF HEADER -->
<rect style="opacity:1.0;fill:#FFFFFF;stroke:none" width="25.0" height="200.0" x="0.0" y="0.0"> </rect>
<path class="atom-0" d="M 1.2 93.4 L 2.5 93.4 L 2.5 97.2 L 7.0 97.2 L 7.0 93.4 L 8.2 93.4 L 8.2 102.3 L 7.0 102.3 L 7.0 98.2 L 2.5 98.2 L 2.5 102.3 L 1.2 102.3 L 1.2 93.4 " fill="#FF0000"/>
<path class="atom-0" d="M 10.0 102.0 Q 10.2 101.4, 10.7 101.1 Q 11.2 100.8, 11.9 100.8 Q 12.8 100.8, 13.3 101.3 Q 13.8 101.7, 13.8 102.6 Q 13.8 103.5, 13.2 104.3 Q 12.5 105.1, 11.2 106.0 L 13.9 106.0 L 13.9 106.7 L 10.0 106.7 L 10.0 106.2 Q 11.1 105.4, 11.7 104.8 Q 12.4 104.2, 12.7 103.7 Q 13.0 103.2, 13.0 102.6 Q 13.0 102.1, 12.7 101.8 Q 12.4 101.4, 11.9 101.4 Q 11.5 101.4, 11.1 101.6 Q 10.8 101.8, 10.6 102.2 L 10.0 102.0 " fill="#FF0000"/>
<path class="atom-0" d="M 15.1 97.8 Q 15.1 95.7, 16.2 94.5 Q 17.2 93.3, 19.2 93.3 Q 21.1 93.3, 22.2 94.5 Q 23.2 95.7, 23.2 97.8 Q 23.2 100.0, 22.2 101.2 Q 21.1 102.4, 19.2 102.4 Q 17.2 102.4, 16.2 101.2 Q 15.1 100.0, 15.1 97.8 M 19.2 101.4 Q 20.5 101.4, 21.3 100.5 Q 22.0 99.6, 22.0 97.8 Q 22.0 96.1, 21.3 95.2 Q 20.5 94.3, 19.2 94.3 Q 17.8 94.3, 17.1 95.2 Q 16.4 96.1, 16.4 97.8 Q 16.4 99.6, 17.1 100.5 Q 17.8 101.4, 19.2 101.4 " fill="#FF0000"/>
</g>
  </g>
</svg>
