<?xml version='1.0' encoding='ASCII' standalone='yes'?>
<svg xmlns="http://www.w3.org/2000/svg" xmlns:xlink="http://www.w3.org/1999/xlink" version="1.1" width="824.0px" viewBox="0 0 824.0 200.0" height="200.0px">
  <g>
    <g transform="translate(0, 0) scale(1 1) "><!-- END OF HEADER -->
<rect style="opacity:1.0;fill:#FFFFFF;stroke:none" width="254.0" height="200.0" x="0.0" y="0.0"> </rect>
<path class="bond-0 atom-0 atom-1" d="M 202.4,63.8 L 169.9,88.7" style="fill:none;fill-rule:evenodd;stroke:#000000;stroke-width:2.0px;stroke-linecap:butt;stroke-linejoin:miter;stroke-opacity:1"/>
<path class="bond-1 atom-1 atom-2" d="M 169.9,88.7 L 145.0,56.2" style="fill:none;fill-rule:evenodd;stroke:#000000;stroke-width:2.0px;stroke-linecap:butt;stroke-linejoin:miter;stroke-opacity:1"/>
<path class="bond-2 atom-2 atom-3" d="M 145.0,56.2 L 151.3,41.0" style="fill:none;fill-rule:evenodd;stroke:#000000;stroke-width:2.0px;stroke-linecap:butt;stroke-linejoin:miter;stroke-opacity:1"/>
<path class="bond-2 atom-2 atom-3" d="M 151.3,41.0 L 157.6,25.8" style="fill:none;fill-rule:evenodd;stroke:#FF0000;stroke-width:2.0px;stroke-linecap:butt;stroke-linejoin:miter;stroke-opacity:1"/>
<path class="bond-3 atom-1 atom-4" d="M 169.9,88.7 L 137.5,113.6" style="fill:none;fill-rule:evenodd;stroke:#000000;stroke-width:2.0px;stroke-linecap:butt;stroke-linejoin:miter;stroke-opacity:1"/>
<path class="bond-4 atom-4 atom-5" d="M 137.5,113.6 L 99.7,97.9" style="fill:none;fill-rule:evenodd;stroke:#000000;stroke-width:2.0px;stroke-linecap:butt;stroke-linejoin:miter;stroke-opacity:1"/>
<path class="bond-5 atom-5 atom-6" d="M 99.7,97.9 L 94.4,57.4" style="fill:none;fill-rule:evenodd;stroke:#000000;stroke-width:2.0px;stroke-linecap:butt;stroke-linejoin:miter;stroke-opacity:1"/>
<path class="bond-6 atom-6 atom-7" d="M 94.4,57.4 L 78.8,50.9" style="fill:none;fill-rule:evenodd;stroke:#000000;stroke-width:2.0px;stroke-linecap:butt;stroke-linejoin:miter;stroke-opacity:1"/>
<path class="bond-6 atom-6 atom-7" d="M 78.8,50.9 L 63.2,44.5" style="fill:none;fill-rule:evenodd;stroke:#FF0000;stroke-width:2.0px;stroke-linecap:butt;stroke-linejoin:miter;stroke-opacity:1"/>
<path class="bond-7 atom-5 atom-8" d="M 99.7,97.9 L 67.2,122.8" style="fill:none;fill-rule:evenodd;stroke:#000000;stroke-width:2.0px;stroke-linecap:butt;stroke-linejoin:miter;stroke-opacity:1"/>
<path class="bond-8 atom-8 atom-9" d="M 67.2,122.8 L 51.7,116.4" style="fill:none;fill-rule:evenodd;stroke:#000000;stroke-width:2.0px;stroke-linecap:butt;stroke-linejoin:miter;stroke-opacity:1"/>
<path class="bond-8 atom-8 atom-9" d="M 51.7,116.4 L 36.1,109.9" style="fill:none;fill-rule:evenodd;stroke:#FF0000;stroke-width:2.0px;stroke-linecap:butt;stroke-linejoin:miter;stroke-opacity:1"/>
<path class="bond-9 atom-8 atom-10" d="M 67.2,122.8 L 69.4,139.5" style="fill:none;fill-rule:evenodd;stroke:#000000;stroke-width:2.0px;stroke-linecap:butt;stroke-linejoin:miter;stroke-opacity:1"/>
<path class="bond-9 atom-8 atom-10" d="M 69.4,139.5 L 71.6,156.2" style="fill:none;fill-rule:evenodd;stroke:#FF0000;stroke-width:2.0px;stroke-linecap:butt;stroke-linejoin:miter;stroke-opacity:1"/>
<path class="bond-10 atom-1 atom-11" d="M 169.9,88.7 L 194.8,121.1" style="fill:none;fill-rule:evenodd;stroke:#000000;stroke-width:2.0px;stroke-linecap:butt;stroke-linejoin:miter;stroke-opacity:1"/>
<path class="bond-11 atom-11 atom-12" d="M 193.5,124.4 L 211.3,122.1" style="fill:none;fill-rule:evenodd;stroke:#000000;stroke-width:2.0px;stroke-linecap:butt;stroke-linejoin:miter;stroke-opacity:1"/>
<path class="bond-11 atom-11 atom-12" d="M 211.3,122.1 L 229.1,119.7" style="fill:none;fill-rule:evenodd;stroke:#FF0000;stroke-width:2.0px;stroke-linecap:butt;stroke-linejoin:miter;stroke-opacity:1"/>
<path class="bond-11 atom-11 atom-12" d="M 192.7,118.3 L 210.5,116.0" style="fill:none;fill-rule:evenodd;stroke:#000000;stroke-width:2.0px;stroke-linecap:butt;stroke-linejoin:miter;stroke-opacity:1"/>
<path class="bond-11 atom-11 atom-12" d="M 210.5,116.0 L 228.3,113.6" style="fill:none;fill-rule:evenodd;stroke:#FF0000;stroke-width:2.0px;stroke-linecap:butt;stroke-linejoin:miter;stroke-opacity:1"/>
<path class="bond-12 atom-11 atom-13" d="M 194.8,121.1 L 188.5,136.4" style="fill:none;fill-rule:evenodd;stroke:#000000;stroke-width:2.0px;stroke-linecap:butt;stroke-linejoin:miter;stroke-opacity:1"/>
<path class="bond-12 atom-11 atom-13" d="M 188.5,136.4 L 182.2,151.7" style="fill:none;fill-rule:evenodd;stroke:#FF0000;stroke-width:2.0px;stroke-linecap:butt;stroke-linejoin:miter;stroke-opacity:1"/>
<path d="M 146.3,57.9 L 145.0,56.2 L 145.4,55.5" style="fill:none;stroke:#000000;stroke-width:2.0px;stroke-linecap:butt;stroke-linejoin:miter;stroke-opacity:1;"/>
<path d="M 139.1,112.3 L 137.5,113.6 L 135.6,112.8" style="fill:none;stroke:#000000;stroke-width:2.0px;stroke-linecap:butt;stroke-linejoin:miter;stroke-opacity:1;"/>
<path d="M 94.6,59.4 L 94.4,57.4 L 93.6,57.1" style="fill:none;stroke:#000000;stroke-width:2.0px;stroke-linecap:butt;stroke-linejoin:miter;stroke-opacity:1;"/>
<path d="M 193.6,119.5 L 194.8,121.1 L 194.5,121.9" style="fill:none;stroke:#000000;stroke-width:2.0px;stroke-linecap:butt;stroke-linejoin:miter;stroke-opacity:1;"/>
<path class="atom-3" d="M 155.4 18.5 Q 155.4 15.7, 156.8 14.1 Q 158.1 12.6, 160.7 12.6 Q 163.3 12.6, 164.6 14.1 Q 166.0 15.7, 166.0 18.5 Q 166.0 21.3, 164.6 22.9 Q 163.2 24.5, 160.7 24.5 Q 158.1 24.5, 156.8 22.9 Q 155.4 21.3, 155.4 18.5 M 160.7 23.2 Q 162.5 23.2, 163.4 22.0 Q 164.4 20.8, 164.4 18.5 Q 164.4 16.2, 163.4 15.1 Q 162.5 13.9, 160.7 13.9 Q 158.9 13.9, 158.0 15.0 Q 157.0 16.2, 157.0 18.5 Q 157.0 20.8, 158.0 22.0 Q 158.9 23.2, 160.7 23.2 " fill="#FF0000"/>
<path class="atom-3" d="M 167.8 12.7 L 169.4 12.7 L 169.4 17.6 L 175.3 17.6 L 175.3 12.7 L 176.9 12.7 L 176.9 24.3 L 175.3 24.3 L 175.3 19.0 L 169.4 19.0 L 169.4 24.3 L 167.8 24.3 L 167.8 12.7 " fill="#FF0000"/>
<path class="atom-7" d="M 39.8 36.0 L 41.4 36.0 L 41.4 40.9 L 47.3 40.9 L 47.3 36.0 L 48.9 36.0 L 48.9 47.6 L 47.3 47.6 L 47.3 42.2 L 41.4 42.2 L 41.4 47.6 L 39.8 47.6 L 39.8 36.0 " fill="#FF0000"/>
<path class="atom-7" d="M 51.3 41.7 Q 51.3 39.0, 52.6 37.4 Q 54.0 35.9, 56.6 35.9 Q 59.1 35.9, 60.5 37.4 Q 61.9 39.0, 61.9 41.7 Q 61.9 44.6, 60.5 46.2 Q 59.1 47.8, 56.6 47.8 Q 54.0 47.8, 52.6 46.2 Q 51.3 44.6, 51.3 41.7 M 56.6 46.4 Q 58.3 46.4, 59.3 45.3 Q 60.3 44.1, 60.3 41.7 Q 60.3 39.5, 59.3 38.3 Q 58.3 37.2, 56.6 37.2 Q 54.8 37.2, 53.8 38.3 Q 52.9 39.5, 52.9 41.7 Q 52.9 44.1, 53.8 45.3 Q 54.8 46.4, 56.6 46.4 " fill="#FF0000"/>
<path class="atom-9" d="M 12.7 101.4 L 14.3 101.4 L 14.3 106.4 L 20.2 106.4 L 20.2 101.4 L 21.8 101.4 L 21.8 113.0 L 20.2 113.0 L 20.2 107.7 L 14.3 107.7 L 14.3 113.0 L 12.7 113.0 L 12.7 101.4 " fill="#FF0000"/>
<path class="atom-9" d="M 24.1 107.2 Q 24.1 104.4, 25.5 102.9 Q 26.9 101.3, 29.5 101.3 Q 32.0 101.3, 33.4 102.9 Q 34.8 104.4, 34.8 107.2 Q 34.8 110.0, 33.4 111.6 Q 32.0 113.2, 29.5 113.2 Q 26.9 113.2, 25.5 111.6 Q 24.1 110.0, 24.1 107.2 M 29.5 111.9 Q 31.2 111.9, 32.2 110.7 Q 33.1 109.5, 33.1 107.2 Q 33.1 104.9, 32.2 103.8 Q 31.2 102.6, 29.5 102.6 Q 27.7 102.6, 26.7 103.8 Q 25.8 104.9, 25.8 107.2 Q 25.8 109.5, 26.7 110.7 Q 27.7 111.9, 29.5 111.9 " fill="#FF0000"/>
<path class="atom-10" d="M 67.3 163.4 Q 67.3 160.6, 68.6 159.1 Q 70.0 157.5, 72.6 157.5 Q 75.1 157.5, 76.5 159.1 Q 77.9 160.6, 77.9 163.4 Q 77.9 166.2, 76.5 167.8 Q 75.1 169.4, 72.6 169.4 Q 70.0 169.4, 68.6 167.8 Q 67.3 166.2, 67.3 163.4 M 72.6 168.1 Q 74.3 168.1, 75.3 166.9 Q 76.3 165.7, 76.3 163.4 Q 76.3 161.1, 75.3 160.0 Q 74.3 158.8, 72.6 158.8 Q 70.8 158.8, 69.8 160.0 Q 68.9 161.1, 68.9 163.4 Q 68.9 165.7, 69.8 166.9 Q 70.8 168.1, 72.6 168.1 " fill="#FF0000"/>
<path class="atom-10" d="M 79.7 157.6 L 81.3 157.6 L 81.3 162.6 L 87.2 162.6 L 87.2 157.6 L 88.8 157.6 L 88.8 169.2 L 87.2 169.2 L 87.2 163.9 L 81.3 163.9 L 81.3 169.2 L 79.7 169.2 L 79.7 157.6 " fill="#FF0000"/>
<path class="atom-12" d="M 230.1 115.8 Q 230.1 113.1, 231.4 111.5 Q 232.8 109.9, 235.4 109.9 Q 238.0 109.9, 239.3 111.5 Q 240.7 113.1, 240.7 115.8 Q 240.7 118.6, 239.3 120.3 Q 237.9 121.8, 235.4 121.8 Q 232.8 121.8, 231.4 120.3 Q 230.1 118.7, 230.1 115.8 M 235.4 120.5 Q 237.1 120.5, 238.1 119.4 Q 239.1 118.2, 239.1 115.8 Q 239.1 113.6, 238.1 112.4 Q 237.1 111.3, 235.4 111.3 Q 233.6 111.3, 232.7 112.4 Q 231.7 113.5, 231.7 115.8 Q 231.7 118.2, 232.7 119.4 Q 233.6 120.5, 235.4 120.5 " fill="#FF0000"/>
<path class="atom-13" d="M 162.4 153.2 L 164.0 153.2 L 164.0 158.1 L 169.9 158.1 L 169.9 153.2 L 171.5 153.2 L 171.5 164.8 L 169.9 164.8 L 169.9 159.4 L 164.0 159.4 L 164.0 164.8 L 162.4 164.8 L 162.4 153.2 " fill="#FF0000"/>
<path class="atom-13" d="M 173.9 159.0 Q 173.9 156.2, 175.2 154.6 Q 176.6 153.1, 179.2 153.1 Q 181.7 153.1, 183.1 154.6 Q 184.5 156.2, 184.5 159.0 Q 184.5 161.8, 183.1 163.4 Q 181.7 165.0, 179.2 165.0 Q 176.6 165.0, 175.2 163.4 Q 173.9 161.8, 173.9 159.0 M 179.2 163.7 Q 180.9 163.7, 181.9 162.5 Q 182.9 161.3, 182.9 159.0 Q 182.9 156.7, 181.9 155.5 Q 180.9 154.4, 179.2 154.4 Q 177.4 154.4, 176.4 155.5 Q 175.5 156.7, 175.5 159.0 Q 175.5 161.3, 176.4 162.5 Q 177.4 163.7, 179.2 163.7 " fill="#FF0000"/>
<path class="legend" d="M 118.2 181.9 Q 118.2 179.6, 118.9 177.7 Q 119.5 175.8, 120.8 173.8 L 121.7 174.4 Q 120.7 176.3, 120.1 178.0 Q 119.6 179.7, 119.6 181.9 Q 119.6 184.0, 120.1 185.8 Q 120.7 187.5, 121.7 189.4 L 120.8 190.0 Q 119.5 188.0, 118.9 186.1 Q 118.2 184.2, 118.2 181.9 " fill="#000000"/>
<path class="legend" d="M 122.6 177.3 Q 123.1 176.2, 124.0 175.6 Q 125.0 175.0, 126.4 175.0 Q 128.1 175.0, 129.1 175.9 Q 130.0 176.8, 130.0 178.5 Q 130.0 180.2, 128.8 181.7 Q 127.6 183.3, 125.0 185.2 L 130.2 185.2 L 130.2 186.4 L 122.6 186.4 L 122.6 185.4 Q 124.7 183.9, 126.0 182.8 Q 127.2 181.6, 127.8 180.6 Q 128.4 179.6, 128.4 178.6 Q 128.4 177.5, 127.9 176.9 Q 127.4 176.3, 126.4 176.3 Q 125.5 176.3, 124.9 176.6 Q 124.3 177.0, 123.9 177.8 L 122.6 177.3 " fill="#000000"/>
<path class="legend" d="M 135.2 181.9 Q 135.2 184.2, 134.5 186.1 Q 133.9 188.0, 132.6 190.0 L 131.7 189.4 Q 132.7 187.5, 133.2 185.8 Q 133.8 184.0, 133.8 181.9 Q 133.8 179.7, 133.2 178.0 Q 132.7 176.3, 131.7 174.4 L 132.6 173.8 Q 133.9 175.8, 134.5 177.7 Q 135.2 179.6, 135.2 181.9 " fill="#000000"/>
</g>
    <g transform="translate(254.00000000000003, 0) scale(1 1) "><line x1="5" y1="100" x2="35" y2="100" style="stroke:rgb(0,0,0);stroke-width:2"/>
  <line x1="34" y1="100" x2="29" y2="95" style="stroke:rgb(0,0,0);stroke-width:2"/>
  <line x1="34" y1="100" x2="29" y2="105" style="stroke:rgb(0,0,0);stroke-width:2"/>
</g>
    <g transform="translate(294.0, 0) scale(1 1) "><!-- END OF HEADER -->
<rect style="opacity:1.0;fill:#FFFFFF;stroke:none" width="205.0" height="200.0" x="0.0" y="0.0"> </rect>
<path class="bond-0 atom-0 atom-1" d="M 122.6,44.3 L 108.8,89.2" style="fill:none;fill-rule:evenodd;stroke:#000000;stroke-width:2.0px;stroke-linecap:butt;stroke-linejoin:miter;stroke-opacity:1"/>
<path class="bond-1 atom-1 atom-2" d="M 108.8,89.2 L 95.0,134.1" style="fill:none;fill-rule:evenodd;stroke:#000000;stroke-width:2.0px;stroke-linecap:butt;stroke-linejoin:miter;stroke-opacity:1"/>
<path class="bond-2 atom-1 atom-3" d="M 108.8,89.2 L 63.9,75.4" style="fill:none;fill-rule:evenodd;stroke:#000000;stroke-width:2.0px;stroke-linecap:butt;stroke-linejoin:miter;stroke-opacity:1"/>
<path class="bond-3 atom-3 atom-4" d="M 63.9,75.4 L 50.5,87.9" style="fill:none;fill-rule:evenodd;stroke:#000000;stroke-width:2.0px;stroke-linecap:butt;stroke-linejoin:miter;stroke-opacity:1"/>
<path class="bond-3 atom-3 atom-4" d="M 50.5,87.9 L 37.2,100.3" style="fill:none;fill-rule:evenodd;stroke:#FF0000;stroke-width:2.0px;stroke-linecap:butt;stroke-linejoin:miter;stroke-opacity:1"/>
<path class="bond-4 atom-1 atom-5" d="M 108.8,89.2 L 153.7,103.0" style="fill:none;fill-rule:evenodd;stroke:#000000;stroke-width:2.0px;stroke-linecap:butt;stroke-linejoin:miter;stroke-opacity:1"/>
<path class="bond-5 atom-5 atom-6" d="M 154.7,107.0 L 168.8,93.8" style="fill:none;fill-rule:evenodd;stroke:#000000;stroke-width:2.0px;stroke-linecap:butt;stroke-linejoin:miter;stroke-opacity:1"/>
<path class="bond-5 atom-5 atom-6" d="M 168.8,93.8 L 182.9,80.7" style="fill:none;fill-rule:evenodd;stroke:#FF0000;stroke-width:2.0px;stroke-linecap:butt;stroke-linejoin:miter;stroke-opacity:1"/>
<path class="bond-5 atom-5 atom-6" d="M 149.9,101.8 L 164.0,88.7" style="fill:none;fill-rule:evenodd;stroke:#000000;stroke-width:2.0px;stroke-linecap:butt;stroke-linejoin:miter;stroke-opacity:1"/>
<path class="bond-5 atom-5 atom-6" d="M 164.0,88.7 L 178.1,75.5" style="fill:none;fill-rule:evenodd;stroke:#FF0000;stroke-width:2.0px;stroke-linecap:butt;stroke-linejoin:miter;stroke-opacity:1"/>
<path class="bond-6 atom-5 atom-7" d="M 153.7,103.0 L 158.0,121.7" style="fill:none;fill-rule:evenodd;stroke:#000000;stroke-width:2.0px;stroke-linecap:butt;stroke-linejoin:miter;stroke-opacity:1"/>
<path class="bond-6 atom-5 atom-7" d="M 158.0,121.7 L 162.4,140.5" style="fill:none;fill-rule:evenodd;stroke:#FF0000;stroke-width:2.0px;stroke-linecap:butt;stroke-linejoin:miter;stroke-opacity:1"/>
<path d="M 66.1,76.1 L 63.9,75.4 L 63.2,76.0" style="fill:none;stroke:#000000;stroke-width:2.0px;stroke-linecap:butt;stroke-linejoin:miter;stroke-opacity:1;"/>
<path d="M 151.5,102.3 L 153.7,103.0 L 154.0,103.9" style="fill:none;stroke:#000000;stroke-width:2.0px;stroke-linecap:butt;stroke-linejoin:miter;stroke-opacity:1;"/>
<path class="atom-4" d="M 10.2 100.8 L 12.1 100.8 L 12.1 106.5 L 18.9 106.5 L 18.9 100.8 L 20.7 100.8 L 20.7 114.1 L 18.9 114.1 L 18.9 108.0 L 12.1 108.0 L 12.1 114.1 L 10.2 114.1 L 10.2 100.8 " fill="#FF0000"/>
<path class="atom-4" d="M 23.4 107.5 Q 23.4 104.3, 25.0 102.5 Q 26.5 100.7, 29.5 100.7 Q 32.5 100.7, 34.0 102.5 Q 35.6 104.3, 35.6 107.5 Q 35.6 110.7, 34.0 112.5 Q 32.4 114.4, 29.5 114.4 Q 26.6 114.4, 25.0 112.5 Q 23.4 110.7, 23.4 107.5 M 29.5 112.9 Q 31.5 112.9, 32.6 111.5 Q 33.7 110.1, 33.7 107.5 Q 33.7 104.8, 32.6 103.5 Q 31.5 102.2, 29.5 102.2 Q 27.5 102.2, 26.4 103.5 Q 25.3 104.8, 25.3 107.5 Q 25.3 110.1, 26.4 111.5 Q 27.5 112.9, 29.5 112.9 " fill="#FF0000"/>
<path class="atom-6" d="M 182.0 71.0 Q 182.0 67.8, 183.6 66.0 Q 185.2 64.3, 188.1 64.3 Q 191.1 64.3, 192.7 66.0 Q 194.3 67.8, 194.3 71.0 Q 194.3 74.3, 192.7 76.1 Q 191.1 77.9, 188.1 77.9 Q 185.2 77.9, 183.6 76.1 Q 182.0 74.3, 182.0 71.0 M 188.1 76.4 Q 190.2 76.4, 191.3 75.1 Q 192.4 73.7, 192.4 71.0 Q 192.4 68.4, 191.3 67.1 Q 190.2 65.8, 188.1 65.8 Q 186.1 65.8, 185.0 67.1 Q 183.9 68.4, 183.9 71.0 Q 183.9 73.7, 185.0 75.1 Q 186.1 76.4, 188.1 76.4 " fill="#FF0000"/>
<path class="atom-7" d="M 158.2 148.8 Q 158.2 145.6, 159.7 143.8 Q 161.3 142.1, 164.3 142.1 Q 167.2 142.1, 168.8 143.8 Q 170.4 145.6, 170.4 148.8 Q 170.4 152.1, 168.8 153.9 Q 167.2 155.7, 164.3 155.7 Q 161.3 155.7, 159.7 153.9 Q 158.2 152.1, 158.2 148.8 M 164.3 154.2 Q 166.3 154.2, 167.4 152.9 Q 168.5 151.5, 168.5 148.8 Q 168.5 146.2, 167.4 144.9 Q 166.3 143.6, 164.3 143.6 Q 162.2 143.6, 161.1 144.9 Q 160.0 146.2, 160.0 148.8 Q 160.0 151.5, 161.1 152.9 Q 162.2 154.2, 164.3 154.2 " fill="#FF0000"/>
<path class="atom-7" d="M 172.4 142.2 L 174.2 142.2 L 174.2 147.9 L 181.0 147.9 L 181.0 142.2 L 182.9 142.2 L 182.9 155.5 L 181.0 155.5 L 181.0 149.4 L 174.2 149.4 L 174.2 155.5 L 172.4 155.5 L 172.4 142.2 " fill="#FF0000"/>
</g>
    <g transform="translate(499.0, 0) scale(1 1) "><line x1="15" y1="100" x2="25" y2="100" style="stroke:rgb(0,0,0);stroke-width:2"/>
  <line x1="20" y1="95" x2="20" y2="105" style="stroke:rgb(0,0,0);stroke-width:2"/>
</g>
    <g transform="translate(539.0, 0) scale(1 1) "><!-- END OF HEADER -->
<rect style="opacity:1.0;fill:#FFFFFF;stroke:none" width="285.0" height="200.0" x="0.0" y="0.0"> </rect>
<path class="bond-0 atom-0 atom-1" d="M 108.6,129.1 L 117.7,127.1" style="fill:none;fill-rule:evenodd;stroke:#FF0000;stroke-width:2.0px;stroke-linecap:butt;stroke-linejoin:miter;stroke-opacity:1"/>
<path class="bond-0 atom-0 atom-1" d="M 117.7,127.1 L 126.8,125.2" style="fill:none;fill-rule:evenodd;stroke:#000000;stroke-width:2.0px;stroke-linecap:butt;stroke-linejoin:miter;stroke-opacity:1"/>
<path class="bond-0 atom-0 atom-1" d="M 109.6,133.8 L 118.7,131.9" style="fill:none;fill-rule:evenodd;stroke:#FF0000;stroke-width:2.0px;stroke-linecap:butt;stroke-linejoin:miter;stroke-opacity:1"/>
<path class="bond-0 atom-0 atom-1" d="M 118.7,131.9 L 126.2,130.3" style="fill:none;fill-rule:evenodd;stroke:#000000;stroke-width:2.0px;stroke-linecap:butt;stroke-linejoin:miter;stroke-opacity:1"/>
<path class="bond-1 atom-1 atom-2" d="M 125.0,128.0 L 131.2,139.7" style="fill:none;fill-rule:evenodd;stroke:#000000;stroke-width:2.0px;stroke-linecap:butt;stroke-linejoin:miter;stroke-opacity:1"/>
<path class="bond-1 atom-1 atom-2" d="M 131.2,139.7 L 137.5,151.4" style="fill:none;fill-rule:evenodd;stroke:#FF0000;stroke-width:2.0px;stroke-linecap:butt;stroke-linejoin:miter;stroke-opacity:1"/>
<path class="bond-2 atom-1 atom-3" d="M 125.0,128.0 L 142.5,99.9" style="fill:none;fill-rule:evenodd;stroke:#000000;stroke-width:2.0px;stroke-linecap:butt;stroke-linejoin:miter;stroke-opacity:1"/>
<path class="bond-3 atom-3 atom-4" d="M 142.5,99.9 L 160.0,71.8" style="fill:none;fill-rule:evenodd;stroke:#000000;stroke-width:2.0px;stroke-linecap:butt;stroke-linejoin:miter;stroke-opacity:1"/>
<path class="bond-4 atom-4 atom-5" d="M 160.0,71.8 L 153.8,60.2" style="fill:none;fill-rule:evenodd;stroke:#000000;stroke-width:2.0px;stroke-linecap:butt;stroke-linejoin:miter;stroke-opacity:1"/>
<path class="bond-4 atom-4 atom-5" d="M 153.8,60.2 L 147.6,48.6" style="fill:none;fill-rule:evenodd;stroke:#FF0000;stroke-width:2.0px;stroke-linecap:butt;stroke-linejoin:miter;stroke-opacity:1"/>
<path class="bond-5 atom-3 atom-6" d="M 142.5,99.9 L 170.6,117.4" style="fill:none;fill-rule:evenodd;stroke:#000000;stroke-width:2.0px;stroke-linecap:butt;stroke-linejoin:miter;stroke-opacity:1"/>
<path class="bond-6 atom-6 atom-7" d="M 170.6,117.4 L 199.8,101.8" style="fill:none;fill-rule:evenodd;stroke:#000000;stroke-width:2.0px;stroke-linecap:butt;stroke-linejoin:miter;stroke-opacity:1"/>
<path class="bond-7 atom-7 atom-8" d="M 199.8,101.8 L 200.9,68.7" style="fill:none;fill-rule:evenodd;stroke:#000000;stroke-width:2.0px;stroke-linecap:butt;stroke-linejoin:miter;stroke-opacity:1"/>
<path class="bond-8 atom-8 atom-9" d="M 200.9,68.7 L 212.8,62.4" style="fill:none;fill-rule:evenodd;stroke:#000000;stroke-width:2.0px;stroke-linecap:butt;stroke-linejoin:miter;stroke-opacity:1"/>
<path class="bond-8 atom-8 atom-9" d="M 212.8,62.4 L 224.8,56.0" style="fill:none;fill-rule:evenodd;stroke:#FF0000;stroke-width:2.0px;stroke-linecap:butt;stroke-linejoin:miter;stroke-opacity:1"/>
<path class="bond-9 atom-7 atom-10" d="M 199.8,101.8 L 227.9,119.3" style="fill:none;fill-rule:evenodd;stroke:#000000;stroke-width:2.0px;stroke-linecap:butt;stroke-linejoin:miter;stroke-opacity:1"/>
<path class="bond-10 atom-10 atom-11" d="M 227.9,119.3 L 239.8,113.0" style="fill:none;fill-rule:evenodd;stroke:#000000;stroke-width:2.0px;stroke-linecap:butt;stroke-linejoin:miter;stroke-opacity:1"/>
<path class="bond-10 atom-10 atom-11" d="M 239.8,113.0 L 251.8,106.6" style="fill:none;fill-rule:evenodd;stroke:#FF0000;stroke-width:2.0px;stroke-linecap:butt;stroke-linejoin:miter;stroke-opacity:1"/>
<path class="bond-11 atom-10 atom-12" d="M 227.9,119.3 L 227.5,133.0" style="fill:none;fill-rule:evenodd;stroke:#000000;stroke-width:2.0px;stroke-linecap:butt;stroke-linejoin:miter;stroke-opacity:1"/>
<path class="bond-11 atom-10 atom-12" d="M 227.5,133.0 L 227.0,146.6" style="fill:none;fill-rule:evenodd;stroke:#FF0000;stroke-width:2.0px;stroke-linecap:butt;stroke-linejoin:miter;stroke-opacity:1"/>
<path class="bond-12 atom-3 atom-13" d="M 142.5,99.9 L 114.4,82.4" style="fill:none;fill-rule:evenodd;stroke:#000000;stroke-width:2.0px;stroke-linecap:butt;stroke-linejoin:miter;stroke-opacity:1"/>
<path class="bond-13 atom-13 atom-14" d="M 114.4,82.4 L 85.1,98.0" style="fill:none;fill-rule:evenodd;stroke:#000000;stroke-width:2.0px;stroke-linecap:butt;stroke-linejoin:miter;stroke-opacity:1"/>
<path class="bond-14 atom-14 atom-15" d="M 85.1,98.0 L 84.0,131.1" style="fill:none;fill-rule:evenodd;stroke:#000000;stroke-width:2.0px;stroke-linecap:butt;stroke-linejoin:miter;stroke-opacity:1"/>
<path class="bond-15 atom-15 atom-16" d="M 84.0,131.1 L 72.1,137.5" style="fill:none;fill-rule:evenodd;stroke:#000000;stroke-width:2.0px;stroke-linecap:butt;stroke-linejoin:miter;stroke-opacity:1"/>
<path class="bond-15 atom-15 atom-16" d="M 72.1,137.5 L 60.2,143.8" style="fill:none;fill-rule:evenodd;stroke:#FF0000;stroke-width:2.0px;stroke-linecap:butt;stroke-linejoin:miter;stroke-opacity:1"/>
<path class="bond-16 atom-14 atom-17" d="M 85.1,98.0 L 57.0,80.5" style="fill:none;fill-rule:evenodd;stroke:#000000;stroke-width:2.0px;stroke-linecap:butt;stroke-linejoin:miter;stroke-opacity:1"/>
<path class="bond-17 atom-17 atom-18" d="M 57.0,80.5 L 45.1,86.9" style="fill:none;fill-rule:evenodd;stroke:#000000;stroke-width:2.0px;stroke-linecap:butt;stroke-linejoin:miter;stroke-opacity:1"/>
<path class="bond-17 atom-17 atom-18" d="M 45.1,86.9 L 33.2,93.2" style="fill:none;fill-rule:evenodd;stroke:#FF0000;stroke-width:2.0px;stroke-linecap:butt;stroke-linejoin:miter;stroke-opacity:1"/>
<path class="bond-18 atom-17 atom-19" d="M 57.0,80.5 L 57.5,66.9" style="fill:none;fill-rule:evenodd;stroke:#000000;stroke-width:2.0px;stroke-linecap:butt;stroke-linejoin:miter;stroke-opacity:1"/>
<path class="bond-18 atom-17 atom-19" d="M 57.5,66.9 L 57.9,53.4" style="fill:none;fill-rule:evenodd;stroke:#FF0000;stroke-width:2.0px;stroke-linecap:butt;stroke-linejoin:miter;stroke-opacity:1"/>
<path d="M 125.3,128.6 L 125.0,128.0 L 125.9,126.6" style="fill:none;stroke:#000000;stroke-width:2.0px;stroke-linecap:butt;stroke-linejoin:miter;stroke-opacity:1;"/>
<path d="M 159.1,73.2 L 160.0,71.8 L 159.7,71.2" style="fill:none;stroke:#000000;stroke-width:2.0px;stroke-linecap:butt;stroke-linejoin:miter;stroke-opacity:1;"/>
<path d="M 169.2,116.6 L 170.6,117.4 L 172.1,116.7" style="fill:none;stroke:#000000;stroke-width:2.0px;stroke-linecap:butt;stroke-linejoin:miter;stroke-opacity:1;"/>
<path d="M 200.9,70.4 L 200.9,68.7 L 201.5,68.4" style="fill:none;stroke:#000000;stroke-width:2.0px;stroke-linecap:butt;stroke-linejoin:miter;stroke-opacity:1;"/>
<path d="M 115.8,83.3 L 114.4,82.4 L 112.9,83.2" style="fill:none;stroke:#000000;stroke-width:2.0px;stroke-linecap:butt;stroke-linejoin:miter;stroke-opacity:1;"/>
<path d="M 84.1,129.5 L 84.0,131.1 L 83.5,131.4" style="fill:none;stroke:#000000;stroke-width:2.0px;stroke-linecap:butt;stroke-linejoin:miter;stroke-opacity:1;"/>
<path class="atom-0" d="M 99.4 132.6 Q 99.4 130.4, 100.5 129.1 Q 101.7 127.9, 103.7 127.9 Q 105.8 127.9, 106.9 129.1 Q 108.0 130.4, 108.0 132.6 Q 108.0 134.9, 106.9 136.2 Q 105.8 137.5, 103.7 137.5 Q 101.7 137.5, 100.5 136.2 Q 99.4 134.9, 99.4 132.6 M 103.7 136.4 Q 105.2 136.4, 105.9 135.5 Q 106.7 134.5, 106.7 132.6 Q 106.7 130.8, 105.9 129.9 Q 105.2 128.9, 103.7 128.9 Q 102.3 128.9, 101.5 129.8 Q 100.8 130.8, 100.8 132.6 Q 100.8 134.5, 101.5 135.5 Q 102.3 136.4, 103.7 136.4 " fill="#FF0000"/>
<path class="atom-2" d="M 136.3 157.3 Q 136.3 155.0, 137.4 153.8 Q 138.5 152.5, 140.6 152.5 Q 142.7 152.5, 143.8 153.8 Q 144.9 155.0, 144.9 157.3 Q 144.9 159.6, 143.8 160.9 Q 142.6 162.1, 140.6 162.1 Q 138.5 162.1, 137.4 160.9 Q 136.3 159.6, 136.3 157.3 M 140.6 161.1 Q 142.0 161.1, 142.8 160.1 Q 143.6 159.2, 143.6 157.3 Q 143.6 155.4, 142.8 154.5 Q 142.0 153.6, 140.6 153.6 Q 139.1 153.6, 138.4 154.5 Q 137.6 155.4, 137.6 157.3 Q 137.6 159.2, 138.4 160.1 Q 139.1 161.1, 140.6 161.1 " fill="#FF0000"/>
<path class="atom-2" d="M 146.3 152.6 L 147.6 152.6 L 147.6 156.6 L 152.4 156.6 L 152.4 152.6 L 153.7 152.6 L 153.7 162.0 L 152.4 162.0 L 152.4 157.7 L 147.6 157.7 L 147.6 162.0 L 146.3 162.0 L 146.3 152.6 " fill="#FF0000"/>
<path class="atom-5" d="M 130.8 38.0 L 132.1 38.0 L 132.1 41.9 L 136.9 41.9 L 136.9 38.0 L 138.2 38.0 L 138.2 47.3 L 136.9 47.3 L 136.9 43.0 L 132.1 43.0 L 132.1 47.3 L 130.8 47.3 L 130.8 38.0 " fill="#FF0000"/>
<path class="atom-5" d="M 140.1 42.6 Q 140.1 40.4, 141.2 39.1 Q 142.3 37.9, 144.4 37.9 Q 146.5 37.9, 147.6 39.1 Q 148.7 40.4, 148.7 42.6 Q 148.7 44.9, 147.6 46.2 Q 146.4 47.5, 144.4 47.5 Q 142.3 47.5, 141.2 46.2 Q 140.1 44.9, 140.1 42.6 M 144.4 46.4 Q 145.8 46.4, 146.6 45.5 Q 147.4 44.5, 147.4 42.6 Q 147.4 40.8, 146.6 39.9 Q 145.8 38.9, 144.4 38.9 Q 143.0 38.9, 142.2 39.8 Q 141.4 40.8, 141.4 42.6 Q 141.4 44.5, 142.2 45.5 Q 143.0 46.4, 144.4 46.4 " fill="#FF0000"/>
<path class="atom-9" d="M 225.8 53.2 Q 225.8 50.9, 226.9 49.7 Q 228.1 48.4, 230.1 48.4 Q 232.2 48.4, 233.3 49.7 Q 234.4 50.9, 234.4 53.2 Q 234.4 55.4, 233.3 56.7 Q 232.2 58.0, 230.1 58.0 Q 228.1 58.0, 226.9 56.7 Q 225.8 55.5, 225.8 53.2 M 230.1 57.0 Q 231.6 57.0, 232.3 56.0 Q 233.1 55.0, 233.1 53.2 Q 233.1 51.3, 232.3 50.4 Q 231.6 49.5, 230.1 49.5 Q 228.7 49.5, 227.9 50.4 Q 227.2 51.3, 227.2 53.2 Q 227.2 55.1, 227.9 56.0 Q 228.7 57.0, 230.1 57.0 " fill="#FF0000"/>
<path class="atom-9" d="M 235.9 48.5 L 237.2 48.5 L 237.2 52.5 L 242.0 52.5 L 242.0 48.5 L 243.2 48.5 L 243.2 57.9 L 242.0 57.9 L 242.0 53.5 L 237.2 53.5 L 237.2 57.9 L 235.9 57.9 L 235.9 48.5 " fill="#FF0000"/>
<path class="atom-11" d="M 252.8 103.8 Q 252.8 101.5, 254.0 100.3 Q 255.1 99.0, 257.1 99.0 Q 259.2 99.0, 260.3 100.3 Q 261.5 101.5, 261.5 103.8 Q 261.5 106.0, 260.3 107.3 Q 259.2 108.6, 257.1 108.6 Q 255.1 108.6, 254.0 107.3 Q 252.8 106.1, 252.8 103.8 M 257.1 107.6 Q 258.6 107.6, 259.3 106.6 Q 260.1 105.6, 260.1 103.8 Q 260.1 101.9, 259.3 101.0 Q 258.6 100.1, 257.1 100.1 Q 255.7 100.1, 254.9 101.0 Q 254.2 101.9, 254.2 103.8 Q 254.2 105.7, 254.9 106.6 Q 255.7 107.6, 257.1 107.6 " fill="#FF0000"/>
<path class="atom-11" d="M 262.9 99.1 L 264.2 99.1 L 264.2 103.1 L 269.0 103.1 L 269.0 99.1 L 270.2 99.1 L 270.2 108.5 L 269.0 108.5 L 269.0 104.2 L 264.2 104.2 L 264.2 108.5 L 262.9 108.5 L 262.9 99.1 " fill="#FF0000"/>
<path class="atom-12" d="M 222.5 152.5 Q 222.5 150.2, 223.6 149.0 Q 224.7 147.7, 226.8 147.7 Q 228.9 147.7, 230.0 149.0 Q 231.1 150.2, 231.1 152.5 Q 231.1 154.7, 230.0 156.0 Q 228.9 157.3, 226.8 157.3 Q 224.8 157.3, 223.6 156.0 Q 222.5 154.8, 222.5 152.5 M 226.8 156.3 Q 228.3 156.3, 229.0 155.3 Q 229.8 154.3, 229.8 152.5 Q 229.8 150.6, 229.0 149.7 Q 228.3 148.8, 226.8 148.8 Q 225.4 148.8, 224.6 149.7 Q 223.8 150.6, 223.8 152.5 Q 223.8 154.4, 224.6 155.3 Q 225.4 156.3, 226.8 156.3 " fill="#FF0000"/>
<path class="atom-12" d="M 232.6 147.8 L 233.9 147.8 L 233.9 151.8 L 238.7 151.8 L 238.7 147.8 L 239.9 147.8 L 239.9 157.2 L 238.7 157.2 L 238.7 152.8 L 233.9 152.8 L 233.9 157.2 L 232.6 157.2 L 232.6 147.8 " fill="#FF0000"/>
<path class="atom-16" d="M 41.3 142.1 L 42.5 142.1 L 42.5 146.1 L 47.3 146.1 L 47.3 142.1 L 48.6 142.1 L 48.6 151.5 L 47.3 151.5 L 47.3 147.1 L 42.5 147.1 L 42.5 151.5 L 41.3 151.5 L 41.3 142.1 " fill="#FF0000"/>
<path class="atom-16" d="M 50.5 146.7 Q 50.5 144.5, 51.6 143.2 Q 52.8 142.0, 54.8 142.0 Q 56.9 142.0, 58.0 143.2 Q 59.1 144.5, 59.1 146.7 Q 59.1 149.0, 58.0 150.3 Q 56.9 151.6, 54.8 151.6 Q 52.8 151.6, 51.6 150.3 Q 50.5 149.0, 50.5 146.7 M 54.8 150.5 Q 56.3 150.5, 57.0 149.6 Q 57.8 148.6, 57.8 146.7 Q 57.8 144.9, 57.0 144.0 Q 56.3 143.0, 54.8 143.0 Q 53.4 143.0, 52.6 144.0 Q 51.9 144.9, 51.9 146.7 Q 51.9 148.6, 52.6 149.6 Q 53.4 150.5, 54.8 150.5 " fill="#FF0000"/>
<path class="atom-18" d="M 14.2 91.5 L 15.5 91.5 L 15.5 95.5 L 20.3 95.5 L 20.3 91.5 L 21.6 91.5 L 21.6 100.9 L 20.3 100.9 L 20.3 96.5 L 15.5 96.5 L 15.5 100.9 L 14.2 100.9 L 14.2 91.5 " fill="#FF0000"/>
<path class="atom-18" d="M 23.5 96.1 Q 23.5 93.9, 24.6 92.6 Q 25.7 91.4, 27.8 91.4 Q 29.9 91.4, 31.0 92.6 Q 32.1 93.9, 32.1 96.1 Q 32.1 98.4, 31.0 99.7 Q 29.9 101.0, 27.8 101.0 Q 25.8 101.0, 24.6 99.7 Q 23.5 98.4, 23.5 96.1 M 27.8 99.9 Q 29.2 99.9, 30.0 99.0 Q 30.8 98.0, 30.8 96.1 Q 30.8 94.3, 30.0 93.4 Q 29.2 92.4, 27.8 92.4 Q 26.4 92.4, 25.6 93.4 Q 24.8 94.3, 24.8 96.1 Q 24.8 98.0, 25.6 99.0 Q 26.4 99.9, 27.8 99.9 " fill="#FF0000"/>
<path class="atom-19" d="M 53.8 47.4 Q 53.8 45.2, 54.9 43.9 Q 56.1 42.7, 58.1 42.7 Q 60.2 42.7, 61.3 43.9 Q 62.4 45.2, 62.4 47.4 Q 62.4 49.7, 61.3 51.0 Q 60.2 52.3, 58.1 52.3 Q 56.1 52.3, 54.9 51.0 Q 53.8 49.7, 53.8 47.4 M 58.1 51.2 Q 59.6 51.2, 60.3 50.3 Q 61.1 49.3, 61.1 47.4 Q 61.1 45.6, 60.3 44.7 Q 59.6 43.7, 58.1 43.7 Q 56.7 43.7, 55.9 44.7 Q 55.2 45.6, 55.2 47.4 Q 55.2 49.3, 55.9 50.3 Q 56.7 51.2, 58.1 51.2 " fill="#FF0000"/>
<path class="atom-19" d="M 63.9 42.8 L 65.2 42.8 L 65.2 46.8 L 70.0 46.8 L 70.0 42.8 L 71.2 42.8 L 71.2 52.2 L 70.0 52.2 L 70.0 47.8 L 65.2 47.8 L 65.2 52.2 L 63.9 52.2 L 63.9 42.8 " fill="#FF0000"/>
</g>
  </g>
</svg>
