<?xml version='1.0' encoding='ASCII' standalone='yes'?>
<svg xmlns="http://www.w3.org/2000/svg" xmlns:xlink="http://www.w3.org/1999/xlink" version="1.1" width="531.0px" viewBox="0 0 531.0 200.0" height="200.0px">
  <g>
    <g transform="translate(0, 0) scale(1 1) "><!-- END OF HEADER -->
<rect style="opacity:1.0;fill:#FFFFFF;stroke:none" width="215.0" height="200.0" x="0.0" y="0.0"> </rect>
<path class="bond-0 atom-0 atom-1" d="M 10.8,55.7 L 43.1,82.8" style="fill:none;fill-rule:evenodd;stroke:#000000;stroke-width:2.0px;stroke-linecap:butt;stroke-linejoin:miter;stroke-opacity:1"/>
<path class="bond-1 atom-1 atom-2" d="M 43.1,82.8 L 35.9,124.3" style="fill:none;fill-rule:evenodd;stroke:#000000;stroke-width:2.0px;stroke-linecap:butt;stroke-linejoin:miter;stroke-opacity:1"/>
<path class="bond-2 atom-1 atom-3" d="M 43.1,82.8 L 82.7,68.3" style="fill:none;fill-rule:evenodd;stroke:#000000;stroke-width:2.0px;stroke-linecap:butt;stroke-linejoin:miter;stroke-opacity:1"/>
<path class="bond-3 atom-3 atom-4" d="M 82.7,68.3 L 115.1,95.3" style="fill:none;fill-rule:evenodd;stroke:#000000;stroke-width:2.0px;stroke-linecap:butt;stroke-linejoin:miter;stroke-opacity:1"/>
<path class="bond-4 atom-4 atom-5" d="M 115.1,95.3 L 112.1,112.4" style="fill:none;fill-rule:evenodd;stroke:#000000;stroke-width:2.0px;stroke-linecap:butt;stroke-linejoin:miter;stroke-opacity:1"/>
<path class="bond-4 atom-4 atom-5" d="M 112.1,112.4 L 109.1,129.5" style="fill:none;fill-rule:evenodd;stroke:#0000FF;stroke-width:2.0px;stroke-linecap:butt;stroke-linejoin:miter;stroke-opacity:1"/>
<path class="bond-5 atom-4 atom-6" d="M 115.1,95.3 L 154.7,80.8" style="fill:none;fill-rule:evenodd;stroke:#000000;stroke-width:2.0px;stroke-linecap:butt;stroke-linejoin:miter;stroke-opacity:1"/>
<path class="bond-6 atom-6 atom-7" d="M 157.5,83.1 L 160.6,65.3" style="fill:none;fill-rule:evenodd;stroke:#000000;stroke-width:2.0px;stroke-linecap:butt;stroke-linejoin:miter;stroke-opacity:1"/>
<path class="bond-6 atom-6 atom-7" d="M 160.6,65.3 L 163.7,47.4" style="fill:none;fill-rule:evenodd;stroke:#FF0000;stroke-width:2.0px;stroke-linecap:butt;stroke-linejoin:miter;stroke-opacity:1"/>
<path class="bond-6 atom-6 atom-7" d="M 151.3,82.1 L 154.4,64.2" style="fill:none;fill-rule:evenodd;stroke:#000000;stroke-width:2.0px;stroke-linecap:butt;stroke-linejoin:miter;stroke-opacity:1"/>
<path class="bond-6 atom-6 atom-7" d="M 154.4,64.2 L 157.5,46.3" style="fill:none;fill-rule:evenodd;stroke:#FF0000;stroke-width:2.0px;stroke-linecap:butt;stroke-linejoin:miter;stroke-opacity:1"/>
<path class="bond-7 atom-6 atom-8" d="M 154.7,80.8 L 167.4,91.4" style="fill:none;fill-rule:evenodd;stroke:#000000;stroke-width:2.0px;stroke-linecap:butt;stroke-linejoin:miter;stroke-opacity:1"/>
<path class="bond-7 atom-6 atom-8" d="M 167.4,91.4 L 180.2,102.1" style="fill:none;fill-rule:evenodd;stroke:#FF0000;stroke-width:2.0px;stroke-linecap:butt;stroke-linejoin:miter;stroke-opacity:1"/>
<path d="M 80.7,69.0 L 82.7,68.3 L 84.3,69.6" style="fill:none;stroke:#000000;stroke-width:2.0px;stroke-linecap:butt;stroke-linejoin:miter;stroke-opacity:1;"/>
<path d="M 152.7,81.5 L 154.7,80.8 L 155.3,81.3" style="fill:none;stroke:#000000;stroke-width:2.0px;stroke-linecap:butt;stroke-linejoin:miter;stroke-opacity:1;"/>
<path class="atom-5" d="M 105.2 130.9 L 109.1 137.2 Q 109.5 137.8, 110.1 139.0 Q 110.8 140.1, 110.8 140.2 L 110.8 130.9 L 112.4 130.9 L 112.4 142.8 L 110.7 142.8 L 106.5 135.9 Q 106.0 135.1, 105.5 134.2 Q 105.0 133.2, 104.9 133.0 L 104.9 142.8 L 103.3 142.8 L 103.3 130.9 L 105.2 130.9 " fill="#0000FF"/>
<path class="atom-5" d="M 114.7 130.9 L 116.3 130.9 L 116.3 136.0 L 122.4 136.0 L 122.4 130.9 L 124.0 130.9 L 124.0 142.8 L 122.4 142.8 L 122.4 137.3 L 116.3 137.3 L 116.3 142.8 L 114.7 142.8 L 114.7 130.9 " fill="#0000FF"/>
<path class="atom-5" d="M 126.3 142.4 Q 126.6 141.7, 127.3 141.2 Q 128.0 140.8, 129.0 140.8 Q 130.2 140.8, 130.8 141.5 Q 131.5 142.1, 131.5 143.3 Q 131.5 144.4, 130.6 145.5 Q 129.8 146.6, 128.0 147.9 L 131.6 147.9 L 131.6 148.8 L 126.3 148.8 L 126.3 148.1 Q 127.8 147.0, 128.7 146.2 Q 129.5 145.4, 130.0 144.7 Q 130.4 144.0, 130.4 143.3 Q 130.4 142.6, 130.0 142.1 Q 129.6 141.7, 129.0 141.7 Q 128.3 141.7, 127.9 142.0 Q 127.5 142.2, 127.2 142.8 L 126.3 142.4 " fill="#0000FF"/>
<path class="atom-7" d="M 156.5 39.3 Q 156.5 36.4, 157.9 34.8 Q 159.3 33.2, 161.9 33.2 Q 164.6 33.2, 166.0 34.8 Q 167.4 36.4, 167.4 39.3 Q 167.4 42.2, 166.0 43.8 Q 164.6 45.5, 161.9 45.5 Q 159.3 45.5, 157.9 43.8 Q 156.5 42.2, 156.5 39.3 M 161.9 44.1 Q 163.8 44.1, 164.7 42.9 Q 165.7 41.7, 165.7 39.3 Q 165.7 36.9, 164.7 35.7 Q 163.8 34.6, 161.9 34.6 Q 160.1 34.6, 159.1 35.7 Q 158.1 36.9, 158.1 39.3 Q 158.1 41.7, 159.1 42.9 Q 160.1 44.1, 161.9 44.1 " fill="#FF0000"/>
<path class="atom-8" d="M 181.6 107.9 Q 181.6 105.0, 183.0 103.4 Q 184.4 101.8, 187.1 101.8 Q 189.7 101.8, 191.1 103.4 Q 192.5 105.0, 192.5 107.9 Q 192.5 110.8, 191.1 112.4 Q 189.7 114.1, 187.1 114.1 Q 184.4 114.1, 183.0 112.4 Q 181.6 110.8, 181.6 107.9 M 187.1 112.7 Q 188.9 112.7, 189.9 111.5 Q 190.9 110.3, 190.9 107.9 Q 190.9 105.5, 189.9 104.4 Q 188.9 103.2, 187.1 103.2 Q 185.2 103.2, 184.2 104.3 Q 183.3 105.5, 183.3 107.9 Q 183.3 110.3, 184.2 111.5 Q 185.2 112.7, 187.1 112.7 " fill="#FF0000"/>
<path class="atom-8" d="M 194.4 101.9 L 196.0 101.9 L 196.0 107.0 L 202.1 107.0 L 202.1 101.9 L 203.8 101.9 L 203.8 113.9 L 202.1 113.9 L 202.1 108.4 L 196.0 108.4 L 196.0 113.9 L 194.4 113.9 L 194.4 101.9 " fill="#FF0000"/>
<path class="legend" d="M 98.2 181.9 Q 98.2 179.6, 98.9 177.7 Q 99.6 175.8, 100.9 173.8 L 101.8 174.4 Q 100.7 176.3, 100.2 178.0 Q 99.7 179.7, 99.7 181.9 Q 99.7 184.0, 100.2 185.8 Q 100.7 187.5, 101.8 189.4 L 100.9 190.0 Q 99.6 188.0, 98.9 186.1 Q 98.2 184.2, 98.2 181.9 " fill="#000000"/>
<path class="legend" d="M 102.7 177.3 Q 103.1 176.2, 104.1 175.6 Q 105.1 175.0, 106.5 175.0 Q 108.2 175.0, 109.1 175.9 Q 110.1 176.8, 110.1 178.5 Q 110.1 180.2, 108.8 181.7 Q 107.6 183.3, 105.1 185.2 L 110.3 185.2 L 110.3 186.4 L 102.7 186.4 L 102.7 185.4 Q 104.8 183.9, 106.0 182.8 Q 107.3 181.6, 107.9 180.6 Q 108.5 179.6, 108.5 178.6 Q 108.5 177.5, 108.0 176.9 Q 107.4 176.3, 106.5 176.3 Q 105.5 176.3, 104.9 176.6 Q 104.3 177.0, 103.9 177.8 L 102.7 177.3 " fill="#000000"/>
<path class="legend" d="M 115.3 181.9 Q 115.3 184.2, 114.6 186.1 Q 113.9 188.0, 112.6 190.0 L 111.7 189.4 Q 112.8 187.5, 113.3 185.8 Q 113.8 184.0, 113.8 181.9 Q 113.8 179.7, 113.3 178.0 Q 112.8 176.3, 111.7 174.4 L 112.6 173.8 Q 113.9 175.8, 114.6 177.7 Q 115.3 179.6, 115.3 181.9 " fill="#000000"/>
</g>
    <g transform="translate(215.0, 0) scale(1 1) "><line x1="5" y1="100" x2="35" y2="100" style="stroke:rgb(0,0,0);stroke-width:2"/>
  <line x1="34" y1="100" x2="29" y2="95" style="stroke:rgb(0,0,0);stroke-width:2"/>
  <line x1="34" y1="100" x2="29" y2="105" style="stroke:rgb(0,0,0);stroke-width:2"/>
</g>
    <g transform="translate(255.0, 0) scale(1 1) "><!-- END OF HEADER -->
<rect style="opacity:1.0;fill:#FFFFFF;stroke:none" width="276.0" height="200.0" x="0.0" y="0.0"> </rect>
<path class="bond-0 atom-0 atom-1" d="M 13.8,70.4 L 38.3,95.6" style="fill:none;fill-rule:evenodd;stroke:#000000;stroke-width:2.0px;stroke-linecap:butt;stroke-linejoin:miter;stroke-opacity:1"/>
<path class="bond-1 atom-1 atom-2" d="M 38.3,95.6 L 28.7,129.4" style="fill:none;fill-rule:evenodd;stroke:#000000;stroke-width:2.0px;stroke-linecap:butt;stroke-linejoin:miter;stroke-opacity:1"/>
<path class="bond-2 atom-1 atom-3" d="M 38.3,95.6 L 72.3,87.0" style="fill:none;fill-rule:evenodd;stroke:#000000;stroke-width:2.0px;stroke-linecap:butt;stroke-linejoin:miter;stroke-opacity:1"/>
<path class="bond-3 atom-3 atom-4" d="M 72.3,87.0 L 96.8,112.2" style="fill:none;fill-rule:evenodd;stroke:#000000;stroke-width:2.0px;stroke-linecap:butt;stroke-linejoin:miter;stroke-opacity:1"/>
<path class="bond-4 atom-4 atom-5" d="M 96.8,112.2 L 92.9,126.0" style="fill:none;fill-rule:evenodd;stroke:#000000;stroke-width:2.0px;stroke-linecap:butt;stroke-linejoin:miter;stroke-opacity:1"/>
<path class="bond-4 atom-4 atom-5" d="M 92.9,126.0 L 88.9,139.9" style="fill:none;fill-rule:evenodd;stroke:#0000FF;stroke-width:2.0px;stroke-linecap:butt;stroke-linejoin:miter;stroke-opacity:1"/>
<path class="bond-5 atom-4 atom-6" d="M 96.8,112.2 L 130.9,103.6" style="fill:none;fill-rule:evenodd;stroke:#000000;stroke-width:2.0px;stroke-linecap:butt;stroke-linejoin:miter;stroke-opacity:1"/>
<path class="bond-6 atom-6 atom-7" d="M 130.9,103.6 L 127.4,89.8" style="fill:none;fill-rule:evenodd;stroke:#000000;stroke-width:2.0px;stroke-linecap:butt;stroke-linejoin:miter;stroke-opacity:1"/>
<path class="bond-6 atom-6 atom-7" d="M 127.4,89.8 L 123.9,75.9" style="fill:none;fill-rule:evenodd;stroke:#FF0000;stroke-width:2.0px;stroke-linecap:butt;stroke-linejoin:miter;stroke-opacity:1"/>
<path class="bond-7 atom-6 atom-8" d="M 130.9,103.6 L 134.4,117.6" style="fill:none;fill-rule:evenodd;stroke:#000000;stroke-width:2.0px;stroke-linecap:butt;stroke-linejoin:miter;stroke-opacity:1"/>
<path class="bond-7 atom-6 atom-8" d="M 134.4,117.6 L 137.9,131.5" style="fill:none;fill-rule:evenodd;stroke:#FF0000;stroke-width:2.0px;stroke-linecap:butt;stroke-linejoin:miter;stroke-opacity:1"/>
<path class="bond-8 atom-6 atom-9" d="M 130.9,103.6 L 164.9,95.0" style="fill:none;fill-rule:evenodd;stroke:#000000;stroke-width:2.0px;stroke-linecap:butt;stroke-linejoin:miter;stroke-opacity:1"/>
<path class="bond-9 atom-9 atom-10" d="M 164.9,95.0 L 174.5,61.2" style="fill:none;fill-rule:evenodd;stroke:#000000;stroke-width:2.0px;stroke-linecap:butt;stroke-linejoin:miter;stroke-opacity:1"/>
<path class="bond-10 atom-10 atom-11" d="M 174.5,61.2 L 208.6,52.6" style="fill:none;fill-rule:evenodd;stroke:#000000;stroke-width:2.0px;stroke-linecap:butt;stroke-linejoin:miter;stroke-opacity:1"/>
<path class="bond-11 atom-10 atom-12" d="M 174.5,61.2 L 150.0,36.0" style="fill:none;fill-rule:evenodd;stroke:#000000;stroke-width:2.0px;stroke-linecap:butt;stroke-linejoin:miter;stroke-opacity:1"/>
<path class="bond-12 atom-9 atom-13" d="M 164.9,95.0 L 189.4,120.2" style="fill:none;fill-rule:evenodd;stroke:#000000;stroke-width:2.0px;stroke-linecap:butt;stroke-linejoin:miter;stroke-opacity:1"/>
<path class="bond-13 atom-13 atom-14" d="M 189.4,120.2 L 185.5,134.1" style="fill:none;fill-rule:evenodd;stroke:#000000;stroke-width:2.0px;stroke-linecap:butt;stroke-linejoin:miter;stroke-opacity:1"/>
<path class="bond-13 atom-13 atom-14" d="M 185.5,134.1 L 181.5,147.9" style="fill:none;fill-rule:evenodd;stroke:#0000FF;stroke-width:2.0px;stroke-linecap:butt;stroke-linejoin:miter;stroke-opacity:1"/>
<path class="bond-14 atom-13 atom-15" d="M 189.4,120.2 L 223.4,111.6" style="fill:none;fill-rule:evenodd;stroke:#000000;stroke-width:2.0px;stroke-linecap:butt;stroke-linejoin:miter;stroke-opacity:1"/>
<path class="bond-15 atom-15 atom-16" d="M 225.6,113.8 L 229.7,99.4" style="fill:none;fill-rule:evenodd;stroke:#000000;stroke-width:2.0px;stroke-linecap:butt;stroke-linejoin:miter;stroke-opacity:1"/>
<path class="bond-15 atom-15 atom-16" d="M 229.7,99.4 L 233.8,84.9" style="fill:none;fill-rule:evenodd;stroke:#FF0000;stroke-width:2.0px;stroke-linecap:butt;stroke-linejoin:miter;stroke-opacity:1"/>
<path class="bond-15 atom-15 atom-16" d="M 220.5,112.4 L 224.6,97.9" style="fill:none;fill-rule:evenodd;stroke:#000000;stroke-width:2.0px;stroke-linecap:butt;stroke-linejoin:miter;stroke-opacity:1"/>
<path class="bond-15 atom-15 atom-16" d="M 224.6,97.9 L 228.7,83.5" style="fill:none;fill-rule:evenodd;stroke:#FF0000;stroke-width:2.0px;stroke-linecap:butt;stroke-linejoin:miter;stroke-opacity:1"/>
<path class="bond-16 atom-15 atom-17" d="M 223.4,111.6 L 232.8,121.3" style="fill:none;fill-rule:evenodd;stroke:#000000;stroke-width:2.0px;stroke-linecap:butt;stroke-linejoin:miter;stroke-opacity:1"/>
<path class="bond-16 atom-15 atom-17" d="M 232.8,121.3 L 242.2,130.9" style="fill:none;fill-rule:evenodd;stroke:#FF0000;stroke-width:2.0px;stroke-linecap:butt;stroke-linejoin:miter;stroke-opacity:1"/>
<path d="M 70.6,87.4 L 72.3,87.0 L 73.5,88.3" style="fill:none;stroke:#000000;stroke-width:2.0px;stroke-linecap:butt;stroke-linejoin:miter;stroke-opacity:1;"/>
<path d="M 221.7,112.1 L 223.4,111.6 L 223.9,112.1" style="fill:none;stroke:#000000;stroke-width:2.0px;stroke-linecap:butt;stroke-linejoin:miter;stroke-opacity:1;"/>
<path class="atom-5" d="M 85.0 141.0 L 88.3 146.3 Q 88.6 146.8, 89.1 147.8 Q 89.6 148.7, 89.7 148.8 L 89.7 141.0 L 91.0 141.0 L 91.0 151.0 L 89.6 151.0 L 86.1 145.2 Q 85.7 144.5, 85.3 143.8 Q 84.9 143.0, 84.7 142.8 L 84.7 151.0 L 83.4 151.0 L 83.4 141.0 L 85.0 141.0 " fill="#0000FF"/>
<path class="atom-5" d="M 92.9 141.0 L 94.2 141.0 L 94.2 145.3 L 99.3 145.3 L 99.3 141.0 L 100.7 141.0 L 100.7 151.0 L 99.3 151.0 L 99.3 146.4 L 94.2 146.4 L 94.2 151.0 L 92.9 151.0 L 92.9 141.0 " fill="#0000FF"/>
<path class="atom-5" d="M 102.6 150.6 Q 102.8 150.0, 103.4 149.7 Q 104.0 149.3, 104.8 149.3 Q 105.8 149.3, 106.3 149.8 Q 106.9 150.4, 106.9 151.3 Q 106.9 152.3, 106.2 153.2 Q 105.5 154.1, 104.0 155.2 L 107.0 155.2 L 107.0 155.9 L 102.6 155.9 L 102.6 155.3 Q 103.8 154.5, 104.5 153.8 Q 105.3 153.2, 105.6 152.6 Q 106.0 152.0, 106.0 151.4 Q 106.0 150.8, 105.7 150.4 Q 105.3 150.0, 104.8 150.0 Q 104.3 150.0, 103.9 150.3 Q 103.6 150.5, 103.3 150.9 L 102.6 150.6 " fill="#0000FF"/>
<path class="atom-7" d="M 117.7 69.6 Q 117.7 67.2, 118.9 65.9 Q 120.1 64.5, 122.3 64.5 Q 124.5 64.5, 125.6 65.9 Q 126.8 67.2, 126.8 69.6 Q 126.8 72.0, 125.6 73.4 Q 124.4 74.7, 122.3 74.7 Q 120.1 74.7, 118.9 73.4 Q 117.7 72.0, 117.7 69.6 M 122.3 73.6 Q 123.8 73.6, 124.6 72.6 Q 125.4 71.6, 125.4 69.6 Q 125.4 67.6, 124.6 66.7 Q 123.8 65.7, 122.3 65.7 Q 120.7 65.7, 119.9 66.6 Q 119.1 67.6, 119.1 69.6 Q 119.1 71.6, 119.9 72.6 Q 120.7 73.6, 122.3 73.6 " fill="#FF0000"/>
<path class="atom-7" d="M 128.4 64.6 L 129.7 64.6 L 129.7 68.9 L 134.8 68.9 L 134.8 64.6 L 136.2 64.6 L 136.2 74.6 L 134.8 74.6 L 134.8 70.0 L 129.7 70.0 L 129.7 74.6 L 128.4 74.6 L 128.4 64.6 " fill="#FF0000"/>
<path class="atom-8" d="M 134.9 137.7 Q 134.9 135.3, 136.1 134.0 Q 137.2 132.6, 139.4 132.6 Q 141.6 132.6, 142.8 134.0 Q 144.0 135.3, 144.0 137.7 Q 144.0 140.1, 142.8 141.5 Q 141.6 142.9, 139.4 142.9 Q 137.3 142.9, 136.1 141.5 Q 134.9 140.1, 134.9 137.7 M 139.4 141.7 Q 141.0 141.7, 141.8 140.7 Q 142.6 139.7, 142.6 137.7 Q 142.6 135.7, 141.8 134.8 Q 141.0 133.8, 139.4 133.8 Q 137.9 133.8, 137.1 134.8 Q 136.3 135.7, 136.3 137.7 Q 136.3 139.7, 137.1 140.7 Q 137.9 141.7, 139.4 141.7 " fill="#FF0000"/>
<path class="atom-8" d="M 145.6 132.8 L 146.9 132.8 L 146.9 137.0 L 152.0 137.0 L 152.0 132.8 L 153.3 132.8 L 153.3 142.7 L 152.0 142.7 L 152.0 138.1 L 146.9 138.1 L 146.9 142.7 L 145.6 142.7 L 145.6 132.8 " fill="#FF0000"/>
<path class="atom-14" d="M 177.6 149.0 L 180.8 154.3 Q 181.2 154.8, 181.7 155.8 Q 182.2 156.7, 182.2 156.8 L 182.2 149.0 L 183.6 149.0 L 183.6 159.0 L 182.2 159.0 L 178.7 153.2 Q 178.3 152.6, 177.9 151.8 Q 177.4 151.0, 177.3 150.8 L 177.3 159.0 L 176.0 159.0 L 176.0 149.0 L 177.6 149.0 " fill="#0000FF"/>
<path class="atom-14" d="M 185.5 149.0 L 186.8 149.0 L 186.8 153.3 L 191.9 153.3 L 191.9 149.0 L 193.2 149.0 L 193.2 159.0 L 191.9 159.0 L 191.9 154.4 L 186.8 154.4 L 186.8 159.0 L 185.5 159.0 L 185.5 149.0 " fill="#0000FF"/>
<path class="atom-14" d="M 195.2 158.6 Q 195.4 158.0, 196.0 157.7 Q 196.6 157.3, 197.4 157.3 Q 198.4 157.3, 198.9 157.9 Q 199.5 158.4, 199.5 159.4 Q 199.5 160.3, 198.8 161.2 Q 198.0 162.1, 196.6 163.2 L 199.6 163.2 L 199.6 164.0 L 195.2 164.0 L 195.2 163.3 Q 196.4 162.5, 197.1 161.8 Q 197.9 161.2, 198.2 160.6 Q 198.6 160.0, 198.6 159.4 Q 198.6 158.8, 198.2 158.4 Q 197.9 158.1, 197.4 158.1 Q 196.9 158.1, 196.5 158.3 Q 196.1 158.5, 195.9 159.0 L 195.2 158.6 " fill="#0000FF"/>
<path class="atom-16" d="M 228.5 77.9 Q 228.5 75.5, 229.6 74.1 Q 230.8 72.8, 233.0 72.8 Q 235.2 72.8, 236.4 74.1 Q 237.6 75.5, 237.6 77.9 Q 237.6 80.3, 236.4 81.7 Q 235.2 83.0, 233.0 83.0 Q 230.8 83.0, 229.6 81.7 Q 228.5 80.3, 228.5 77.9 M 233.0 81.9 Q 234.5 81.9, 235.4 80.9 Q 236.2 79.9, 236.2 77.9 Q 236.2 75.9, 235.4 74.9 Q 234.5 73.9, 233.0 73.9 Q 231.5 73.9, 230.7 74.9 Q 229.9 75.9, 229.9 77.9 Q 229.9 79.9, 230.7 80.9 Q 231.5 81.9, 233.0 81.9 " fill="#FF0000"/>
<path class="atom-17" d="M 243.3 136.9 Q 243.3 134.5, 244.5 133.1 Q 245.7 131.8, 247.9 131.8 Q 250.1 131.8, 251.3 133.1 Q 252.5 134.5, 252.5 136.9 Q 252.5 139.3, 251.3 140.7 Q 250.1 142.0, 247.9 142.0 Q 245.7 142.0, 244.5 140.7 Q 243.3 139.3, 243.3 136.9 M 247.9 140.9 Q 249.4 140.9, 250.2 139.9 Q 251.1 138.9, 251.1 136.9 Q 251.1 134.9, 250.2 133.9 Q 249.4 132.9, 247.9 132.9 Q 246.4 132.9, 245.6 133.9 Q 244.7 134.9, 244.7 136.9 Q 244.7 138.9, 245.6 139.9 Q 246.4 140.9, 247.9 140.9 " fill="#FF0000"/>
<path class="atom-17" d="M 254.0 131.9 L 255.4 131.9 L 255.4 136.1 L 260.5 136.1 L 260.5 131.9 L 261.8 131.9 L 261.8 141.9 L 260.5 141.9 L 260.5 137.3 L 255.4 137.3 L 255.4 141.9 L 254.0 141.9 L 254.0 131.9 " fill="#FF0000"/>
</g>
  </g>
</svg>
