<?xml version='1.0' encoding='ASCII' standalone='yes'?>
<svg xmlns="http://www.w3.org/2000/svg" xmlns:xlink="http://www.w3.org/1999/xlink" version="1.1" width="872.0px" viewBox="0 0 872.0 200.0" height="200.0px">
  <g>
    <g transform="translate(0, 0) scale(1 1) "><!-- END OF HEADER -->
<rect style="opacity:1.0;fill:#FFFFFF;stroke:none" width="265.0" height="200.0" x="0.0" y="0.0"> </rect>
<path class="bond-0 atom-0 atom-1" d="M 203.8,47.7 L 190.9,77.7" style="fill:none;fill-rule:evenodd;stroke:#000000;stroke-width:2.0px;stroke-linecap:butt;stroke-linejoin:miter;stroke-opacity:1"/>
<path class="bond-1 atom-1 atom-2" d="M 190.9,77.7 L 178.0,107.7" style="fill:none;fill-rule:evenodd;stroke:#000000;stroke-width:2.0px;stroke-linecap:butt;stroke-linejoin:miter;stroke-opacity:1"/>
<path class="bond-2 atom-1 atom-3" d="M 190.9,77.7 L 160.9,64.8" style="fill:none;fill-rule:evenodd;stroke:#000000;stroke-width:2.0px;stroke-linecap:butt;stroke-linejoin:miter;stroke-opacity:1"/>
<path class="bond-3 atom-3 atom-4" d="M 160.9,64.8 L 134.7,84.3" style="fill:none;fill-rule:evenodd;stroke:#000000;stroke-width:2.0px;stroke-linecap:butt;stroke-linejoin:miter;stroke-opacity:1"/>
<path class="bond-4 atom-4 atom-5" d="M 134.7,84.3 L 104.7,71.4" style="fill:none;fill-rule:evenodd;stroke:#000000;stroke-width:2.0px;stroke-linecap:butt;stroke-linejoin:miter;stroke-opacity:1"/>
<path class="bond-5 atom-5 atom-6" d="M 104.7,71.4 L 78.6,90.9" style="fill:none;fill-rule:evenodd;stroke:#000000;stroke-width:2.0px;stroke-linecap:butt;stroke-linejoin:miter;stroke-opacity:1"/>
<path class="bond-6 atom-6 atom-7" d="M 78.6,90.9 L 52.4,110.4" style="fill:none;fill-rule:evenodd;stroke:#000000;stroke-width:2.0px;stroke-linecap:butt;stroke-linejoin:miter;stroke-opacity:1"/>
<path class="bond-7 atom-6 atom-8" d="M 78.6,90.9 L 98.1,117.1" style="fill:none;fill-rule:evenodd;stroke:#000000;stroke-width:2.0px;stroke-linecap:butt;stroke-linejoin:miter;stroke-opacity:1"/>
<path class="bond-8 atom-8 atom-9" d="M 98.1,117.1 L 92.9,129.2" style="fill:none;fill-rule:evenodd;stroke:#000000;stroke-width:2.0px;stroke-linecap:butt;stroke-linejoin:miter;stroke-opacity:1"/>
<path class="bond-8 atom-8 atom-9" d="M 92.9,129.2 L 87.7,141.3" style="fill:none;fill-rule:evenodd;stroke:#FF0000;stroke-width:2.0px;stroke-linecap:butt;stroke-linejoin:miter;stroke-opacity:1"/>
<path class="bond-9 atom-6 atom-10" d="M 78.6,90.9 L 59.0,64.8" style="fill:none;fill-rule:evenodd;stroke:#000000;stroke-width:2.0px;stroke-linecap:butt;stroke-linejoin:miter;stroke-opacity:1"/>
<path class="bond-10 atom-10 atom-11" d="M 60.7,67.0 L 66.2,54.3" style="fill:none;fill-rule:evenodd;stroke:#000000;stroke-width:2.0px;stroke-linecap:butt;stroke-linejoin:miter;stroke-opacity:1"/>
<path class="bond-10 atom-10 atom-11" d="M 66.2,54.3 L 71.7,41.6" style="fill:none;fill-rule:evenodd;stroke:#FF0000;stroke-width:2.0px;stroke-linecap:butt;stroke-linejoin:miter;stroke-opacity:1"/>
<path class="bond-10 atom-10 atom-11" d="M 56.2,65.1 L 61.7,52.4" style="fill:none;fill-rule:evenodd;stroke:#000000;stroke-width:2.0px;stroke-linecap:butt;stroke-linejoin:miter;stroke-opacity:1"/>
<path class="bond-10 atom-10 atom-11" d="M 61.7,52.4 L 67.2,39.7" style="fill:none;fill-rule:evenodd;stroke:#FF0000;stroke-width:2.0px;stroke-linecap:butt;stroke-linejoin:miter;stroke-opacity:1"/>
<path class="bond-11 atom-10 atom-12" d="M 59.0,64.8 L 45.5,66.4" style="fill:none;fill-rule:evenodd;stroke:#000000;stroke-width:2.0px;stroke-linecap:butt;stroke-linejoin:miter;stroke-opacity:1"/>
<path class="bond-11 atom-10 atom-12" d="M 45.5,66.4 L 31.9,68.0" style="fill:none;fill-rule:evenodd;stroke:#FF0000;stroke-width:2.0px;stroke-linecap:butt;stroke-linejoin:miter;stroke-opacity:1"/>
<path class="bond-12 atom-1 atom-13" d="M 190.9,77.7 L 220.8,90.6" style="fill:none;fill-rule:evenodd;stroke:#000000;stroke-width:2.0px;stroke-linecap:butt;stroke-linejoin:miter;stroke-opacity:1"/>
<path class="bond-13 atom-13 atom-14" d="M 221.2,93.4 L 232.2,85.2" style="fill:none;fill-rule:evenodd;stroke:#000000;stroke-width:2.0px;stroke-linecap:butt;stroke-linejoin:miter;stroke-opacity:1"/>
<path class="bond-13 atom-13 atom-14" d="M 232.2,85.2 L 243.1,77.0" style="fill:none;fill-rule:evenodd;stroke:#FF0000;stroke-width:2.0px;stroke-linecap:butt;stroke-linejoin:miter;stroke-opacity:1"/>
<path class="bond-13 atom-13 atom-14" d="M 218.2,89.5 L 229.2,81.3" style="fill:none;fill-rule:evenodd;stroke:#000000;stroke-width:2.0px;stroke-linecap:butt;stroke-linejoin:miter;stroke-opacity:1"/>
<path class="bond-13 atom-13 atom-14" d="M 229.2,81.3 L 240.2,73.1" style="fill:none;fill-rule:evenodd;stroke:#FF0000;stroke-width:2.0px;stroke-linecap:butt;stroke-linejoin:miter;stroke-opacity:1"/>
<path class="bond-14 atom-13 atom-15" d="M 220.8,90.6 L 222.4,103.9" style="fill:none;fill-rule:evenodd;stroke:#000000;stroke-width:2.0px;stroke-linecap:butt;stroke-linejoin:miter;stroke-opacity:1"/>
<path class="bond-14 atom-13 atom-15" d="M 222.4,103.9 L 224.0,117.2" style="fill:none;fill-rule:evenodd;stroke:#FF0000;stroke-width:2.0px;stroke-linecap:butt;stroke-linejoin:miter;stroke-opacity:1"/>
<path d="M 162.4,65.4 L 160.9,64.8 L 159.6,65.8" style="fill:none;stroke:#000000;stroke-width:2.0px;stroke-linecap:butt;stroke-linejoin:miter;stroke-opacity:1;"/>
<path d="M 136.0,83.3 L 134.7,84.3 L 133.2,83.7" style="fill:none;stroke:#000000;stroke-width:2.0px;stroke-linecap:butt;stroke-linejoin:miter;stroke-opacity:1;"/>
<path d="M 106.2,72.1 L 104.7,71.4 L 103.4,72.4" style="fill:none;stroke:#000000;stroke-width:2.0px;stroke-linecap:butt;stroke-linejoin:miter;stroke-opacity:1;"/>
<path d="M 97.1,115.8 L 98.1,117.1 L 97.8,117.7" style="fill:none;stroke:#000000;stroke-width:2.0px;stroke-linecap:butt;stroke-linejoin:miter;stroke-opacity:1;"/>
<path d="M 60.0,66.1 L 59.0,64.8 L 58.4,64.8" style="fill:none;stroke:#000000;stroke-width:2.0px;stroke-linecap:butt;stroke-linejoin:miter;stroke-opacity:1;"/>
<path d="M 219.3,89.9 L 220.8,90.6 L 220.9,91.2" style="fill:none;stroke:#000000;stroke-width:2.0px;stroke-linecap:butt;stroke-linejoin:miter;stroke-opacity:1;"/>
<path class="atom-9" d="M 71.8 142.5 L 73.1 142.5 L 73.1 146.4 L 77.8 146.4 L 77.8 142.5 L 79.0 142.5 L 79.0 151.8 L 77.8 151.8 L 77.8 147.5 L 73.1 147.5 L 73.1 151.8 L 71.8 151.8 L 71.8 142.5 " fill="#FF0000"/>
<path class="atom-9" d="M 80.9 147.1 Q 80.9 144.9, 82.0 143.6 Q 83.1 142.4, 85.2 142.4 Q 87.2 142.4, 88.3 143.6 Q 89.4 144.9, 89.4 147.1 Q 89.4 149.3, 88.3 150.6 Q 87.2 151.9, 85.2 151.9 Q 83.1 151.9, 82.0 150.6 Q 80.9 149.4, 80.9 147.1 M 85.2 150.9 Q 86.6 150.9, 87.3 149.9 Q 88.1 149.0, 88.1 147.1 Q 88.1 145.3, 87.3 144.4 Q 86.6 143.4, 85.2 143.4 Q 83.8 143.4, 83.0 144.4 Q 82.2 145.3, 82.2 147.1 Q 82.2 149.0, 83.0 149.9 Q 83.8 150.9, 85.2 150.9 " fill="#FF0000"/>
<path class="atom-11" d="M 67.7 34.8 Q 67.7 32.6, 68.8 31.3 Q 69.9 30.1, 71.9 30.1 Q 74.0 30.1, 75.1 31.3 Q 76.2 32.6, 76.2 34.8 Q 76.2 37.1, 75.1 38.3 Q 74.0 39.6, 71.9 39.6 Q 69.9 39.6, 68.8 38.3 Q 67.7 37.1, 67.7 34.8 M 71.9 38.6 Q 73.3 38.6, 74.1 37.6 Q 74.9 36.7, 74.9 34.8 Q 74.9 33.0, 74.1 32.1 Q 73.3 31.1, 71.9 31.1 Q 70.5 31.1, 69.8 32.1 Q 69.0 33.0, 69.0 34.8 Q 69.0 36.7, 69.8 37.6 Q 70.5 38.6, 71.9 38.6 " fill="#FF0000"/>
<path class="atom-12" d="M 13.2 64.0 L 14.5 64.0 L 14.5 67.9 L 19.2 67.9 L 19.2 64.0 L 20.5 64.0 L 20.5 73.3 L 19.2 73.3 L 19.2 69.0 L 14.5 69.0 L 14.5 73.3 L 13.2 73.3 L 13.2 64.0 " fill="#FF0000"/>
<path class="atom-12" d="M 22.4 68.6 Q 22.4 66.4, 23.5 65.2 Q 24.6 63.9, 26.6 63.9 Q 28.7 63.9, 29.8 65.2 Q 30.9 66.4, 30.9 68.6 Q 30.9 70.9, 29.8 72.1 Q 28.6 73.4, 26.6 73.4 Q 24.6 73.4, 23.5 72.1 Q 22.4 70.9, 22.4 68.6 M 26.6 72.4 Q 28.0 72.4, 28.8 71.4 Q 29.6 70.5, 29.6 68.6 Q 29.6 66.8, 28.8 65.9 Q 28.0 65.0, 26.6 65.0 Q 25.2 65.0, 24.4 65.9 Q 23.7 66.8, 23.7 68.6 Q 23.7 70.5, 24.4 71.4 Q 25.2 72.4, 26.6 72.4 " fill="#FF0000"/>
<path class="atom-14" d="M 242.8 71.1 Q 242.8 68.9, 243.9 67.6 Q 245.0 66.4, 247.0 66.4 Q 249.1 66.4, 250.2 67.6 Q 251.2 68.9, 251.2 71.1 Q 251.2 73.3, 250.1 74.6 Q 249.0 75.9, 247.0 75.9 Q 245.0 75.9, 243.9 74.6 Q 242.8 73.3, 242.8 71.1 M 247.0 74.8 Q 248.4 74.8, 249.2 73.9 Q 249.9 72.9, 249.9 71.1 Q 249.9 69.3, 249.2 68.4 Q 248.4 67.4, 247.0 67.4 Q 245.6 67.4, 244.8 68.3 Q 244.1 69.3, 244.1 71.1 Q 244.1 73.0, 244.8 73.9 Q 245.6 74.8, 247.0 74.8 " fill="#FF0000"/>
<path class="atom-15" d="M 220.4 123.0 Q 220.4 120.8, 221.5 119.6 Q 222.6 118.3, 224.7 118.3 Q 226.7 118.3, 227.8 119.6 Q 228.9 120.8, 228.9 123.0 Q 228.9 125.3, 227.8 126.6 Q 226.7 127.8, 224.7 127.8 Q 222.6 127.8, 221.5 126.6 Q 220.4 125.3, 220.4 123.0 M 224.7 126.8 Q 226.1 126.8, 226.8 125.8 Q 227.6 124.9, 227.6 123.0 Q 227.6 121.2, 226.8 120.3 Q 226.1 119.4, 224.7 119.4 Q 223.3 119.4, 222.5 120.3 Q 221.7 121.2, 221.7 123.0 Q 221.7 124.9, 222.5 125.8 Q 223.3 126.8, 224.7 126.8 " fill="#FF0000"/>
<path class="atom-15" d="M 230.3 118.4 L 231.6 118.4 L 231.6 122.4 L 236.3 122.4 L 236.3 118.4 L 237.6 118.4 L 237.6 127.7 L 236.3 127.7 L 236.3 123.4 L 231.6 123.4 L 231.6 127.7 L 230.3 127.7 L 230.3 118.4 " fill="#FF0000"/>
<path class="legend" d="M 123.7 181.9 Q 123.7 179.6, 124.4 177.7 Q 125.1 175.8, 126.4 173.8 L 127.3 174.4 Q 126.2 176.3, 125.7 178.0 Q 125.2 179.7, 125.2 181.9 Q 125.2 184.0, 125.7 185.8 Q 126.2 187.5, 127.3 189.4 L 126.4 190.0 Q 125.1 188.0, 124.4 186.1 Q 123.7 184.2, 123.7 181.9 " fill="#000000"/>
<path class="legend" d="M 128.2 177.3 Q 128.6 176.2, 129.6 175.6 Q 130.6 175.0, 132.0 175.0 Q 133.7 175.0, 134.6 175.9 Q 135.6 176.8, 135.6 178.5 Q 135.6 180.2, 134.3 181.7 Q 133.1 183.3, 130.6 185.2 L 135.8 185.2 L 135.8 186.4 L 128.2 186.4 L 128.2 185.4 Q 130.3 183.9, 131.5 182.8 Q 132.8 181.6, 133.4 180.6 Q 134.0 179.6, 134.0 178.6 Q 134.0 177.5, 133.4 176.9 Q 132.9 176.3, 132.0 176.3 Q 131.1 176.3, 130.4 176.6 Q 129.8 177.0, 129.4 177.8 L 128.2 177.3 " fill="#000000"/>
<path class="legend" d="M 140.8 181.9 Q 140.8 184.2, 140.1 186.1 Q 139.4 188.0, 138.1 190.0 L 137.2 189.4 Q 138.3 187.5, 138.8 185.8 Q 139.3 184.0, 139.3 181.9 Q 139.3 179.7, 138.8 178.0 Q 138.3 176.3, 137.2 174.4 L 138.1 173.8 Q 139.4 175.8, 140.1 177.7 Q 140.8 179.6, 140.8 181.9 " fill="#000000"/>
</g>
    <g transform="translate(265.0, 0) scale(1 1) "><line x1="5" y1="100" x2="35" y2="100" style="stroke:rgb(0,0,0);stroke-width:2"/>
  <line x1="34" y1="100" x2="29" y2="95" style="stroke:rgb(0,0,0);stroke-width:2"/>
  <line x1="34" y1="100" x2="29" y2="105" style="stroke:rgb(0,0,0);stroke-width:2"/>
</g>
    <g transform="translate(305.0, 0) scale(1 1) "><!-- END OF HEADER -->
<rect style="opacity:1.0;fill:#FFFFFF;stroke:none" width="280.0" height="200.0" x="0.0" y="0.0"> </rect>
<path class="bond-0 atom-0 atom-1" d="M 215.5,53.0 L 202.1,84.9" style="fill:none;fill-rule:evenodd;stroke:#000000;stroke-width:2.0px;stroke-linecap:butt;stroke-linejoin:miter;stroke-opacity:1"/>
<path class="bond-1 atom-1 atom-2" d="M 202.1,84.9 L 188.7,116.8" style="fill:none;fill-rule:evenodd;stroke:#000000;stroke-width:2.0px;stroke-linecap:butt;stroke-linejoin:miter;stroke-opacity:1"/>
<path class="bond-2 atom-1 atom-3" d="M 202.1,84.9 L 170.3,71.5" style="fill:none;fill-rule:evenodd;stroke:#000000;stroke-width:2.0px;stroke-linecap:butt;stroke-linejoin:miter;stroke-opacity:1"/>
<path class="bond-3 atom-3 atom-4" d="M 170.3,71.5 L 142.7,92.4" style="fill:none;fill-rule:evenodd;stroke:#000000;stroke-width:2.0px;stroke-linecap:butt;stroke-linejoin:miter;stroke-opacity:1"/>
<path class="bond-4 atom-4 atom-5" d="M 142.7,92.4 L 110.9,79.0" style="fill:none;fill-rule:evenodd;stroke:#000000;stroke-width:2.0px;stroke-linecap:butt;stroke-linejoin:miter;stroke-opacity:1"/>
<path class="bond-5 atom-5 atom-6" d="M 110.9,79.0 L 83.3,99.9" style="fill:none;fill-rule:evenodd;stroke:#000000;stroke-width:2.0px;stroke-linecap:butt;stroke-linejoin:miter;stroke-opacity:1"/>
<path class="bond-6 atom-6 atom-7" d="M 83.3,99.9 L 55.8,120.8" style="fill:none;fill-rule:evenodd;stroke:#000000;stroke-width:2.0px;stroke-linecap:butt;stroke-linejoin:miter;stroke-opacity:1"/>
<path class="bond-7 atom-6 atom-8" d="M 83.3,99.9 L 104.2,127.4" style="fill:none;fill-rule:evenodd;stroke:#000000;stroke-width:2.0px;stroke-linecap:butt;stroke-linejoin:miter;stroke-opacity:1"/>
<path class="bond-8 atom-8 atom-9" d="M 104.2,127.4 L 98.8,140.3" style="fill:none;fill-rule:evenodd;stroke:#000000;stroke-width:2.0px;stroke-linecap:butt;stroke-linejoin:miter;stroke-opacity:1"/>
<path class="bond-8 atom-8 atom-9" d="M 98.8,140.3 L 93.4,153.2" style="fill:none;fill-rule:evenodd;stroke:#FF0000;stroke-width:2.0px;stroke-linecap:butt;stroke-linejoin:miter;stroke-opacity:1"/>
<path class="bond-9 atom-6 atom-10" d="M 83.3,99.9 L 62.4,72.4" style="fill:none;fill-rule:evenodd;stroke:#000000;stroke-width:2.0px;stroke-linecap:butt;stroke-linejoin:miter;stroke-opacity:1"/>
<path class="bond-10 atom-10 atom-11" d="M 64.3,74.8 L 69.9,61.3" style="fill:none;fill-rule:evenodd;stroke:#000000;stroke-width:2.0px;stroke-linecap:butt;stroke-linejoin:miter;stroke-opacity:1"/>
<path class="bond-10 atom-10 atom-11" d="M 69.9,61.3 L 75.6,47.8" style="fill:none;fill-rule:evenodd;stroke:#FF0000;stroke-width:2.0px;stroke-linecap:butt;stroke-linejoin:miter;stroke-opacity:1"/>
<path class="bond-10 atom-10 atom-11" d="M 59.5,72.8 L 65.1,59.3" style="fill:none;fill-rule:evenodd;stroke:#000000;stroke-width:2.0px;stroke-linecap:butt;stroke-linejoin:miter;stroke-opacity:1"/>
<path class="bond-10 atom-10 atom-11" d="M 65.1,59.3 L 70.8,45.8" style="fill:none;fill-rule:evenodd;stroke:#FF0000;stroke-width:2.0px;stroke-linecap:butt;stroke-linejoin:miter;stroke-opacity:1"/>
<path class="bond-11 atom-10 atom-12" d="M 62.4,72.4 L 48.1,74.2" style="fill:none;fill-rule:evenodd;stroke:#000000;stroke-width:2.0px;stroke-linecap:butt;stroke-linejoin:miter;stroke-opacity:1"/>
<path class="bond-11 atom-10 atom-12" d="M 48.1,74.2 L 33.8,76.0" style="fill:none;fill-rule:evenodd;stroke:#FF0000;stroke-width:2.0px;stroke-linecap:butt;stroke-linejoin:miter;stroke-opacity:1"/>
<path class="bond-12 atom-4 atom-13" d="M 142.7,92.4 L 147.1,126.7" style="fill:none;fill-rule:evenodd;stroke:#000000;stroke-width:2.0px;stroke-linecap:butt;stroke-linejoin:miter;stroke-opacity:1"/>
<path class="bond-13 atom-13 atom-14" d="M 144.7,128.5 L 158.5,134.3" style="fill:none;fill-rule:evenodd;stroke:#000000;stroke-width:2.0px;stroke-linecap:butt;stroke-linejoin:miter;stroke-opacity:1"/>
<path class="bond-13 atom-13 atom-14" d="M 158.5,134.3 L 172.3,140.1" style="fill:none;fill-rule:evenodd;stroke:#FF0000;stroke-width:2.0px;stroke-linecap:butt;stroke-linejoin:miter;stroke-opacity:1"/>
<path class="bond-13 atom-13 atom-14" d="M 146.7,123.7 L 160.5,129.5" style="fill:none;fill-rule:evenodd;stroke:#000000;stroke-width:2.0px;stroke-linecap:butt;stroke-linejoin:miter;stroke-opacity:1"/>
<path class="bond-13 atom-13 atom-14" d="M 160.5,129.5 L 174.3,135.3" style="fill:none;fill-rule:evenodd;stroke:#FF0000;stroke-width:2.0px;stroke-linecap:butt;stroke-linejoin:miter;stroke-opacity:1"/>
<path class="bond-14 atom-13 atom-15" d="M 147.1,126.7 L 136.1,135.0" style="fill:none;fill-rule:evenodd;stroke:#000000;stroke-width:2.0px;stroke-linecap:butt;stroke-linejoin:miter;stroke-opacity:1"/>
<path class="bond-14 atom-13 atom-15" d="M 136.1,135.0 L 125.2,143.3" style="fill:none;fill-rule:evenodd;stroke:#FF0000;stroke-width:2.0px;stroke-linecap:butt;stroke-linejoin:miter;stroke-opacity:1"/>
<path class="bond-15 atom-1 atom-16" d="M 202.1,84.9 L 234.0,98.3" style="fill:none;fill-rule:evenodd;stroke:#000000;stroke-width:2.0px;stroke-linecap:butt;stroke-linejoin:miter;stroke-opacity:1"/>
<path class="bond-16 atom-16 atom-17" d="M 234.4,101.3 L 245.9,92.5" style="fill:none;fill-rule:evenodd;stroke:#000000;stroke-width:2.0px;stroke-linecap:butt;stroke-linejoin:miter;stroke-opacity:1"/>
<path class="bond-16 atom-16 atom-17" d="M 245.9,92.5 L 257.4,83.7" style="fill:none;fill-rule:evenodd;stroke:#FF0000;stroke-width:2.0px;stroke-linecap:butt;stroke-linejoin:miter;stroke-opacity:1"/>
<path class="bond-16 atom-16 atom-17" d="M 231.2,97.1 L 242.8,88.4" style="fill:none;fill-rule:evenodd;stroke:#000000;stroke-width:2.0px;stroke-linecap:butt;stroke-linejoin:miter;stroke-opacity:1"/>
<path class="bond-16 atom-16 atom-17" d="M 242.8,88.4 L 254.3,79.6" style="fill:none;fill-rule:evenodd;stroke:#FF0000;stroke-width:2.0px;stroke-linecap:butt;stroke-linejoin:miter;stroke-opacity:1"/>
<path class="bond-17 atom-16 atom-18" d="M 234.0,98.3 L 235.8,112.4" style="fill:none;fill-rule:evenodd;stroke:#000000;stroke-width:2.0px;stroke-linecap:butt;stroke-linejoin:miter;stroke-opacity:1"/>
<path class="bond-17 atom-16 atom-18" d="M 235.8,112.4 L 237.5,126.5" style="fill:none;fill-rule:evenodd;stroke:#FF0000;stroke-width:2.0px;stroke-linecap:butt;stroke-linejoin:miter;stroke-opacity:1"/>
<path d="M 171.9,72.2 L 170.3,71.5 L 168.9,72.6" style="fill:none;stroke:#000000;stroke-width:2.0px;stroke-linecap:butt;stroke-linejoin:miter;stroke-opacity:1;"/>
<path d="M 112.5,79.7 L 110.9,79.0 L 109.5,80.1" style="fill:none;stroke:#000000;stroke-width:2.0px;stroke-linecap:butt;stroke-linejoin:miter;stroke-opacity:1;"/>
<path d="M 103.2,126.1 L 104.2,127.4 L 104.0,128.1" style="fill:none;stroke:#000000;stroke-width:2.0px;stroke-linecap:butt;stroke-linejoin:miter;stroke-opacity:1;"/>
<path d="M 63.5,73.8 L 62.4,72.4 L 61.7,72.5" style="fill:none;stroke:#000000;stroke-width:2.0px;stroke-linecap:butt;stroke-linejoin:miter;stroke-opacity:1;"/>
<path d="M 146.9,125.0 L 147.1,126.7 L 146.5,127.1" style="fill:none;stroke:#000000;stroke-width:2.0px;stroke-linecap:butt;stroke-linejoin:miter;stroke-opacity:1;"/>
<path d="M 232.4,97.6 L 234.0,98.3 L 234.1,99.0" style="fill:none;stroke:#000000;stroke-width:2.0px;stroke-linecap:butt;stroke-linejoin:miter;stroke-opacity:1;"/>
<path class="atom-9" d="M 76.7 154.5 L 78.0 154.5 L 78.0 158.6 L 83.0 158.6 L 83.0 154.5 L 84.4 154.5 L 84.4 164.3 L 83.0 164.3 L 83.0 159.7 L 78.0 159.7 L 78.0 164.3 L 76.7 164.3 L 76.7 154.5 " fill="#FF0000"/>
<path class="atom-9" d="M 86.4 159.3 Q 86.4 157.0, 87.5 155.7 Q 88.7 154.4, 90.9 154.4 Q 93.0 154.4, 94.2 155.7 Q 95.3 157.0, 95.3 159.3 Q 95.3 161.7, 94.2 163.1 Q 93.0 164.4, 90.9 164.4 Q 88.7 164.4, 87.5 163.1 Q 86.4 161.7, 86.4 159.3 M 90.9 163.3 Q 92.3 163.3, 93.2 162.3 Q 94.0 161.3, 94.0 159.3 Q 94.0 157.4, 93.2 156.4 Q 92.3 155.5, 90.9 155.5 Q 89.4 155.5, 88.5 156.4 Q 87.7 157.4, 87.7 159.3 Q 87.7 161.3, 88.5 162.3 Q 89.4 163.3, 90.9 163.3 " fill="#FF0000"/>
<path class="atom-11" d="M 71.3 40.6 Q 71.3 38.2, 72.5 36.9 Q 73.7 35.6, 75.8 35.6 Q 78.0 35.6, 79.2 36.9 Q 80.3 38.2, 80.3 40.6 Q 80.3 42.9, 79.2 44.3 Q 78.0 45.6, 75.8 45.6 Q 73.7 45.6, 72.5 44.3 Q 71.3 43.0, 71.3 40.6 M 75.8 44.5 Q 77.3 44.5, 78.1 43.5 Q 78.9 42.5, 78.9 40.6 Q 78.9 38.6, 78.1 37.7 Q 77.3 36.7, 75.8 36.7 Q 74.3 36.7, 73.5 37.7 Q 72.7 38.6, 72.7 40.6 Q 72.7 42.5, 73.5 43.5 Q 74.3 44.5, 75.8 44.5 " fill="#FF0000"/>
<path class="atom-12" d="M 14.0 71.9 L 15.3 71.9 L 15.3 76.1 L 20.3 76.1 L 20.3 71.9 L 21.7 71.9 L 21.7 81.7 L 20.3 81.7 L 20.3 77.2 L 15.3 77.2 L 15.3 81.7 L 14.0 81.7 L 14.0 71.9 " fill="#FF0000"/>
<path class="atom-12" d="M 23.7 76.8 Q 23.7 74.4, 24.8 73.1 Q 26.0 71.8, 28.2 71.8 Q 30.3 71.8, 31.5 73.1 Q 32.7 74.4, 32.7 76.8 Q 32.7 79.1, 31.5 80.5 Q 30.3 81.8, 28.2 81.8 Q 26.0 81.8, 24.8 80.5 Q 23.7 79.2, 23.7 76.8 M 28.2 80.7 Q 29.7 80.7, 30.5 79.7 Q 31.3 78.7, 31.3 76.8 Q 31.3 74.8, 30.5 73.9 Q 29.7 72.9, 28.2 72.9 Q 26.7 72.9, 25.9 73.9 Q 25.0 74.8, 25.0 76.8 Q 25.0 78.7, 25.9 79.7 Q 26.7 80.7, 28.2 80.7 " fill="#FF0000"/>
<path class="atom-14" d="M 174.4 140.1 Q 174.4 137.8, 175.6 136.5 Q 176.8 135.1, 178.9 135.1 Q 181.1 135.1, 182.3 136.5 Q 183.4 137.8, 183.4 140.1 Q 183.4 142.5, 182.2 143.8 Q 181.1 145.2, 178.9 145.2 Q 176.8 145.2, 175.6 143.8 Q 174.4 142.5, 174.4 140.1 M 178.9 144.1 Q 180.4 144.1, 181.2 143.1 Q 182.0 142.1, 182.0 140.1 Q 182.0 138.2, 181.2 137.2 Q 180.4 136.2, 178.9 136.2 Q 177.4 136.2, 176.6 137.2 Q 175.8 138.2, 175.8 140.1 Q 175.8 142.1, 176.6 143.1 Q 177.4 144.1, 178.9 144.1 " fill="#FF0000"/>
<path class="atom-15" d="M 105.4 142.8 L 106.7 142.8 L 106.7 146.9 L 111.7 146.9 L 111.7 142.8 L 113.0 142.8 L 113.0 152.5 L 111.7 152.5 L 111.7 148.0 L 106.7 148.0 L 106.7 152.5 L 105.4 152.5 L 105.4 142.8 " fill="#FF0000"/>
<path class="atom-15" d="M 115.0 147.6 Q 115.0 145.3, 116.2 144.0 Q 117.4 142.7, 119.5 142.7 Q 121.7 142.7, 122.9 144.0 Q 124.0 145.3, 124.0 147.6 Q 124.0 150.0, 122.9 151.4 Q 121.7 152.7, 119.5 152.7 Q 117.4 152.7, 116.2 151.4 Q 115.0 150.0, 115.0 147.6 M 119.5 151.6 Q 121.0 151.6, 121.8 150.6 Q 122.7 149.6, 122.7 147.6 Q 122.7 145.7, 121.8 144.7 Q 121.0 143.8, 119.5 143.8 Q 118.0 143.8, 117.2 144.7 Q 116.4 145.7, 116.4 147.6 Q 116.4 149.6, 117.2 150.6 Q 118.0 151.6, 119.5 151.6 " fill="#FF0000"/>
<path class="atom-17" d="M 257.0 77.4 Q 257.0 75.1, 258.2 73.8 Q 259.3 72.4, 261.5 72.4 Q 263.7 72.4, 264.8 73.8 Q 266.0 75.1, 266.0 77.4 Q 266.0 79.8, 264.8 81.2 Q 263.6 82.5, 261.5 82.5 Q 259.4 82.5, 258.2 81.2 Q 257.0 79.8, 257.0 77.4 M 261.5 81.4 Q 263.0 81.4, 263.8 80.4 Q 264.6 79.4, 264.6 77.4 Q 264.6 75.5, 263.8 74.5 Q 263.0 73.5, 261.5 73.5 Q 260.0 73.5, 259.2 74.5 Q 258.4 75.5, 258.4 77.4 Q 258.4 79.4, 259.2 80.4 Q 260.0 81.4, 261.5 81.4 " fill="#FF0000"/>
<path class="atom-18" d="M 233.8 132.6 Q 233.8 130.3, 235.0 128.9 Q 236.1 127.6, 238.3 127.6 Q 240.5 127.6, 241.6 128.9 Q 242.8 130.3, 242.8 132.6 Q 242.8 135.0, 241.6 136.3 Q 240.5 137.7, 238.3 137.7 Q 236.2 137.7, 235.0 136.3 Q 233.8 135.0, 233.8 132.6 M 238.3 136.6 Q 239.8 136.6, 240.6 135.6 Q 241.4 134.6, 241.4 132.6 Q 241.4 130.7, 240.6 129.7 Q 239.8 128.7, 238.3 128.7 Q 236.8 128.7, 236.0 129.7 Q 235.2 130.7, 235.2 132.6 Q 235.2 134.6, 236.0 135.6 Q 236.8 136.6, 238.3 136.6 " fill="#FF0000"/>
<path class="atom-18" d="M 244.3 127.7 L 245.7 127.7 L 245.7 131.9 L 250.7 131.9 L 250.7 127.7 L 252.0 127.7 L 252.0 137.5 L 250.7 137.5 L 250.7 133.0 L 245.7 133.0 L 245.7 137.5 L 244.3 137.5 L 244.3 127.7 " fill="#FF0000"/>
</g>
    <g transform="translate(585.0, 0) scale(1 1) "><line x1="15" y1="100" x2="25" y2="100" style="stroke:rgb(0,0,0);stroke-width:2"/>
  <line x1="20" y1="95" x2="20" y2="105" style="stroke:rgb(0,0,0);stroke-width:2"/>
</g>
    <g transform="translate(625.0, 0) scale(1 1) "><!-- END OF HEADER -->
<rect style="opacity:1.0;fill:#FFFFFF;stroke:none" width="247.0" height="200.0" x="0.0" y="0.0"> </rect>
<path class="bond-0 atom-0 atom-1" d="M 12.4,71.2 L 41.8,91.2" style="fill:none;fill-rule:evenodd;stroke:#000000;stroke-width:2.0px;stroke-linecap:butt;stroke-linejoin:miter;stroke-opacity:1"/>
<path class="bond-1 atom-1 atom-2" d="M 41.8,91.2 L 39.3,126.7" style="fill:none;fill-rule:evenodd;stroke:#000000;stroke-width:2.0px;stroke-linecap:butt;stroke-linejoin:miter;stroke-opacity:1"/>
<path class="bond-2 atom-1 atom-3" d="M 41.8,91.2 L 73.8,75.6" style="fill:none;fill-rule:evenodd;stroke:#000000;stroke-width:2.0px;stroke-linecap:butt;stroke-linejoin:miter;stroke-opacity:1"/>
<path class="bond-3 atom-3 atom-4" d="M 73.8,75.6 L 103.3,95.5" style="fill:none;fill-rule:evenodd;stroke:#000000;stroke-width:2.0px;stroke-linecap:butt;stroke-linejoin:miter;stroke-opacity:1"/>
<path class="bond-4 atom-4 atom-5" d="M 103.3,95.5 L 135.3,80.0" style="fill:none;fill-rule:evenodd;stroke:#000000;stroke-width:2.0px;stroke-linecap:butt;stroke-linejoin:miter;stroke-opacity:1"/>
<path class="bond-5 atom-5 atom-6" d="M 135.3,80.0 L 164.8,99.9" style="fill:none;fill-rule:evenodd;stroke:#000000;stroke-width:2.0px;stroke-linecap:butt;stroke-linejoin:miter;stroke-opacity:1"/>
<path class="bond-6 atom-6 atom-7" d="M 164.8,99.9 L 194.3,119.9" style="fill:none;fill-rule:evenodd;stroke:#000000;stroke-width:2.0px;stroke-linecap:butt;stroke-linejoin:miter;stroke-opacity:1"/>
<path class="bond-7 atom-6 atom-8" d="M 164.8,99.9 L 144.9,129.4" style="fill:none;fill-rule:evenodd;stroke:#000000;stroke-width:2.0px;stroke-linecap:butt;stroke-linejoin:miter;stroke-opacity:1"/>
<path class="bond-8 atom-8 atom-9" d="M 144.9,129.4 L 151.1,142.3" style="fill:none;fill-rule:evenodd;stroke:#000000;stroke-width:2.0px;stroke-linecap:butt;stroke-linejoin:miter;stroke-opacity:1"/>
<path class="bond-8 atom-8 atom-9" d="M 151.1,142.3 L 157.4,155.1" style="fill:none;fill-rule:evenodd;stroke:#FF0000;stroke-width:2.0px;stroke-linecap:butt;stroke-linejoin:miter;stroke-opacity:1"/>
<path class="bond-9 atom-6 atom-10" d="M 164.8,99.9 L 184.8,70.4" style="fill:none;fill-rule:evenodd;stroke:#000000;stroke-width:2.0px;stroke-linecap:butt;stroke-linejoin:miter;stroke-opacity:1"/>
<path class="bond-10 atom-10 atom-11" d="M 187.8,70.7 L 181.3,57.2" style="fill:none;fill-rule:evenodd;stroke:#000000;stroke-width:2.0px;stroke-linecap:butt;stroke-linejoin:miter;stroke-opacity:1"/>
<path class="bond-10 atom-10 atom-11" d="M 181.3,57.2 L 174.7,43.7" style="fill:none;fill-rule:evenodd;stroke:#FF0000;stroke-width:2.0px;stroke-linecap:butt;stroke-linejoin:miter;stroke-opacity:1"/>
<path class="bond-10 atom-10 atom-11" d="M 183.0,73.0 L 176.5,59.5" style="fill:none;fill-rule:evenodd;stroke:#000000;stroke-width:2.0px;stroke-linecap:butt;stroke-linejoin:miter;stroke-opacity:1"/>
<path class="bond-10 atom-10 atom-11" d="M 176.5,59.5 L 169.9,46.0" style="fill:none;fill-rule:evenodd;stroke:#FF0000;stroke-width:2.0px;stroke-linecap:butt;stroke-linejoin:miter;stroke-opacity:1"/>
<path class="bond-11 atom-10 atom-12" d="M 184.8,70.4 L 199.6,71.5" style="fill:none;fill-rule:evenodd;stroke:#000000;stroke-width:2.0px;stroke-linecap:butt;stroke-linejoin:miter;stroke-opacity:1"/>
<path class="bond-11 atom-10 atom-12" d="M 199.6,71.5 L 214.5,72.6" style="fill:none;fill-rule:evenodd;stroke:#FF0000;stroke-width:2.0px;stroke-linecap:butt;stroke-linejoin:miter;stroke-opacity:1"/>
<path d="M 72.2,76.4 L 73.8,75.6 L 75.3,76.6" style="fill:none;stroke:#000000;stroke-width:2.0px;stroke-linecap:butt;stroke-linejoin:miter;stroke-opacity:1;"/>
<path d="M 101.9,94.5 L 103.3,95.5 L 104.9,94.8" style="fill:none;stroke:#000000;stroke-width:2.0px;stroke-linecap:butt;stroke-linejoin:miter;stroke-opacity:1;"/>
<path d="M 133.7,80.8 L 135.3,80.0 L 136.8,81.0" style="fill:none;stroke:#000000;stroke-width:2.0px;stroke-linecap:butt;stroke-linejoin:miter;stroke-opacity:1;"/>
<path d="M 145.9,127.9 L 144.9,129.4 L 145.2,130.0" style="fill:none;stroke:#000000;stroke-width:2.0px;stroke-linecap:butt;stroke-linejoin:miter;stroke-opacity:1;"/>
<path d="M 183.8,71.9 L 184.8,70.4 L 185.5,70.5" style="fill:none;stroke:#000000;stroke-width:2.0px;stroke-linecap:butt;stroke-linejoin:miter;stroke-opacity:1;"/>
<path class="atom-9" d="M 155.8 161.4 Q 155.8 159.0, 157.0 157.7 Q 158.2 156.3, 160.4 156.3 Q 162.7 156.3, 163.9 157.7 Q 165.1 159.0, 165.1 161.4 Q 165.1 163.9, 163.9 165.3 Q 162.7 166.7, 160.4 166.7 Q 158.2 166.7, 157.0 165.3 Q 155.8 163.9, 155.8 161.4 M 160.4 165.5 Q 162.0 165.5, 162.8 164.5 Q 163.7 163.5, 163.7 161.4 Q 163.7 159.5, 162.8 158.5 Q 162.0 157.5, 160.4 157.5 Q 158.9 157.5, 158.1 158.5 Q 157.2 159.5, 157.2 161.4 Q 157.2 163.5, 158.1 164.5 Q 158.9 165.5, 160.4 165.5 " fill="#FF0000"/>
<path class="atom-9" d="M 166.6 156.4 L 168.0 156.4 L 168.0 160.7 L 173.2 160.7 L 173.2 156.4 L 174.5 156.4 L 174.5 166.5 L 173.2 166.5 L 173.2 161.9 L 168.0 161.9 L 168.0 166.5 L 166.6 166.5 L 166.6 156.4 " fill="#FF0000"/>
<path class="atom-11" d="M 164.6 38.5 Q 164.6 36.0, 165.8 34.7 Q 167.0 33.3, 169.2 33.3 Q 171.4 33.3, 172.6 34.7 Q 173.8 36.0, 173.8 38.5 Q 173.8 40.9, 172.6 42.3 Q 171.4 43.7, 169.2 43.7 Q 167.0 43.7, 165.8 42.3 Q 164.6 40.9, 164.6 38.5 M 169.2 42.5 Q 170.7 42.5, 171.6 41.5 Q 172.4 40.5, 172.4 38.5 Q 172.4 36.5, 171.6 35.5 Q 170.7 34.5, 169.2 34.5 Q 167.7 34.5, 166.8 35.5 Q 166.0 36.5, 166.0 38.5 Q 166.0 40.5, 166.8 41.5 Q 167.7 42.5, 169.2 42.5 " fill="#FF0000"/>
<path class="atom-12" d="M 215.6 73.0 Q 215.6 70.6, 216.8 69.2 Q 218.0 67.9, 220.3 67.9 Q 222.5 67.9, 223.7 69.2 Q 224.9 70.6, 224.9 73.0 Q 224.9 75.4, 223.7 76.8 Q 222.5 78.2, 220.3 78.2 Q 218.0 78.2, 216.8 76.8 Q 215.6 75.5, 215.6 73.0 M 220.3 77.1 Q 221.8 77.1, 222.6 76.1 Q 223.5 75.0, 223.5 73.0 Q 223.5 71.0, 222.6 70.0 Q 221.8 69.0, 220.3 69.0 Q 218.7 69.0, 217.9 70.0 Q 217.1 71.0, 217.1 73.0 Q 217.1 75.0, 217.9 76.1 Q 218.7 77.1, 220.3 77.1 " fill="#FF0000"/>
<path class="atom-12" d="M 226.5 68.0 L 227.8 68.0 L 227.8 72.3 L 233.0 72.3 L 233.0 68.0 L 234.3 68.0 L 234.3 78.1 L 233.0 78.1 L 233.0 73.4 L 227.8 73.4 L 227.8 78.1 L 226.5 78.1 L 226.5 68.0 " fill="#FF0000"/>
</g>
  </g>
</svg>
