<?xml version='1.0' encoding='ASCII' standalone='yes'?>
<svg xmlns="http://www.w3.org/2000/svg" xmlns:xlink="http://www.w3.org/1999/xlink" version="1.1" width="990.0px" viewBox="0 0 990.0 200.0" height="200.0px">
  <g>
    <g transform="translate(0, 0) scale(1 1) "><!-- END OF HEADER -->
<rect style="opacity:1.0;fill:#FFFFFF;stroke:none" width="328.0" height="200.0" x="0.0" y="0.0"> </rect>
<path class="bond-0 atom-0 atom-1" d="M 311.4,68.3 L 298.6,93.8" style="fill:none;fill-rule:evenodd;stroke:#000000;stroke-width:2.0px;stroke-linecap:butt;stroke-linejoin:miter;stroke-opacity:1"/>
<path class="bond-1 atom-1 atom-2" d="M 298.6,93.8 L 270.2,95.5" style="fill:none;fill-rule:evenodd;stroke:#000000;stroke-width:2.0px;stroke-linecap:butt;stroke-linejoin:miter;stroke-opacity:1"/>
<path class="bond-2 atom-2 atom-3" d="M 270.2,95.5 L 271.9,123.9" style="fill:none;fill-rule:evenodd;stroke:#000000;stroke-width:2.0px;stroke-linecap:butt;stroke-linejoin:miter;stroke-opacity:1"/>
<path class="bond-3 atom-3 atom-4" d="M 271.9,123.9 L 262.3,130.2" style="fill:none;fill-rule:evenodd;stroke:#000000;stroke-width:2.0px;stroke-linecap:butt;stroke-linejoin:miter;stroke-opacity:1"/>
<path class="bond-3 atom-3 atom-4" d="M 262.3,130.2 L 252.7,136.6" style="fill:none;fill-rule:evenodd;stroke:#FF0000;stroke-width:2.0px;stroke-linecap:butt;stroke-linejoin:miter;stroke-opacity:1"/>
<path class="bond-4 atom-2 atom-5" d="M 270.2,95.5 L 241.7,97.2" style="fill:none;fill-rule:evenodd;stroke:#000000;stroke-width:2.0px;stroke-linecap:butt;stroke-linejoin:miter;stroke-opacity:1"/>
<path class="bond-5 atom-5 atom-6" d="M 241.7,97.2 L 226.0,73.4" style="fill:none;fill-rule:evenodd;stroke:#000000;stroke-width:2.0px;stroke-linecap:butt;stroke-linejoin:miter;stroke-opacity:1"/>
<path class="bond-6 atom-6 atom-7" d="M 226.0,73.4 L 197.6,75.0" style="fill:none;fill-rule:evenodd;stroke:#000000;stroke-width:2.0px;stroke-linecap:butt;stroke-linejoin:miter;stroke-opacity:1"/>
<path class="bond-7 atom-7 atom-8" d="M 197.6,75.0 L 195.9,46.6" style="fill:none;fill-rule:evenodd;stroke:#000000;stroke-width:2.0px;stroke-linecap:butt;stroke-linejoin:miter;stroke-opacity:1"/>
<path class="bond-8 atom-8 atom-9" d="M 195.9,46.6 L 185.4,41.4" style="fill:none;fill-rule:evenodd;stroke:#000000;stroke-width:2.0px;stroke-linecap:butt;stroke-linejoin:miter;stroke-opacity:1"/>
<path class="bond-8 atom-8 atom-9" d="M 185.4,41.4 L 175.0,36.1" style="fill:none;fill-rule:evenodd;stroke:#FF0000;stroke-width:2.0px;stroke-linecap:butt;stroke-linejoin:miter;stroke-opacity:1"/>
<path class="bond-9 atom-7 atom-10" d="M 197.6,75.0 L 169.1,76.7" style="fill:none;fill-rule:evenodd;stroke:#000000;stroke-width:2.0px;stroke-linecap:butt;stroke-linejoin:miter;stroke-opacity:1"/>
<path class="bond-10 atom-10 atom-11" d="M 169.1,76.7 L 156.3,102.2" style="fill:none;fill-rule:evenodd;stroke:#000000;stroke-width:2.0px;stroke-linecap:butt;stroke-linejoin:miter;stroke-opacity:1"/>
<path class="bond-11 atom-11 atom-12" d="M 156.3,102.2 L 127.9,103.9" style="fill:none;fill-rule:evenodd;stroke:#000000;stroke-width:2.0px;stroke-linecap:butt;stroke-linejoin:miter;stroke-opacity:1"/>
<path class="bond-12 atom-12 atom-13" d="M 127.9,103.9 L 126.2,75.4" style="fill:none;fill-rule:evenodd;stroke:#000000;stroke-width:2.0px;stroke-linecap:butt;stroke-linejoin:miter;stroke-opacity:1"/>
<path class="bond-13 atom-13 atom-14" d="M 126.2,75.4 L 115.8,70.2" style="fill:none;fill-rule:evenodd;stroke:#000000;stroke-width:2.0px;stroke-linecap:butt;stroke-linejoin:miter;stroke-opacity:1"/>
<path class="bond-13 atom-13 atom-14" d="M 115.8,70.2 L 105.3,65.0" style="fill:none;fill-rule:evenodd;stroke:#FF0000;stroke-width:2.0px;stroke-linecap:butt;stroke-linejoin:miter;stroke-opacity:1"/>
<path class="bond-14 atom-12 atom-15" d="M 127.9,103.9 L 99.4,105.6" style="fill:none;fill-rule:evenodd;stroke:#000000;stroke-width:2.0px;stroke-linecap:butt;stroke-linejoin:miter;stroke-opacity:1"/>
<path class="bond-15 atom-15 atom-16" d="M 99.4,105.6 L 83.7,81.8" style="fill:none;fill-rule:evenodd;stroke:#000000;stroke-width:2.0px;stroke-linecap:butt;stroke-linejoin:miter;stroke-opacity:1"/>
<path class="bond-16 atom-16 atom-17" d="M 83.7,81.8 L 55.3,83.5" style="fill:none;fill-rule:evenodd;stroke:#000000;stroke-width:2.0px;stroke-linecap:butt;stroke-linejoin:miter;stroke-opacity:1"/>
<path class="bond-17 atom-17 atom-18" d="M 55.3,83.5 L 26.8,85.2" style="fill:none;fill-rule:evenodd;stroke:#000000;stroke-width:2.0px;stroke-linecap:butt;stroke-linejoin:miter;stroke-opacity:1"/>
<path class="bond-18 atom-17 atom-19" d="M 55.3,83.5 L 56.9,111.9" style="fill:none;fill-rule:evenodd;stroke:#000000;stroke-width:2.0px;stroke-linecap:butt;stroke-linejoin:miter;stroke-opacity:1"/>
<path class="bond-19 atom-19 atom-20" d="M 56.9,111.9 L 47.4,118.3" style="fill:none;fill-rule:evenodd;stroke:#000000;stroke-width:2.0px;stroke-linecap:butt;stroke-linejoin:miter;stroke-opacity:1"/>
<path class="bond-19 atom-19 atom-20" d="M 47.4,118.3 L 37.8,124.6" style="fill:none;fill-rule:evenodd;stroke:#FF0000;stroke-width:2.0px;stroke-linecap:butt;stroke-linejoin:miter;stroke-opacity:1"/>
<path class="bond-20 atom-17 atom-21" d="M 55.3,83.5 L 53.6,55.0" style="fill:none;fill-rule:evenodd;stroke:#000000;stroke-width:2.0px;stroke-linecap:butt;stroke-linejoin:miter;stroke-opacity:1"/>
<path class="bond-21 atom-21 atom-22" d="M 53.7,57.5 L 63.8,50.8" style="fill:none;fill-rule:evenodd;stroke:#000000;stroke-width:2.0px;stroke-linecap:butt;stroke-linejoin:miter;stroke-opacity:1"/>
<path class="bond-21 atom-21 atom-22" d="M 63.8,50.8 L 73.9,44.2" style="fill:none;fill-rule:evenodd;stroke:#FF0000;stroke-width:2.0px;stroke-linecap:butt;stroke-linejoin:miter;stroke-opacity:1"/>
<path class="bond-21 atom-21 atom-22" d="M 51.4,53.9 L 61.5,47.3" style="fill:none;fill-rule:evenodd;stroke:#000000;stroke-width:2.0px;stroke-linecap:butt;stroke-linejoin:miter;stroke-opacity:1"/>
<path class="bond-21 atom-21 atom-22" d="M 61.5,47.3 L 71.6,40.6" style="fill:none;fill-rule:evenodd;stroke:#FF0000;stroke-width:2.0px;stroke-linecap:butt;stroke-linejoin:miter;stroke-opacity:1"/>
<path class="bond-22 atom-21 atom-23" d="M 53.6,55.0 L 43.1,49.8" style="fill:none;fill-rule:evenodd;stroke:#000000;stroke-width:2.0px;stroke-linecap:butt;stroke-linejoin:miter;stroke-opacity:1"/>
<path class="bond-22 atom-21 atom-23" d="M 43.1,49.8 L 32.7,44.6" style="fill:none;fill-rule:evenodd;stroke:#FF0000;stroke-width:2.0px;stroke-linecap:butt;stroke-linejoin:miter;stroke-opacity:1"/>
<path class="bond-23 atom-12 atom-24" d="M 127.9,103.9 L 129.6,132.4" style="fill:none;fill-rule:evenodd;stroke:#000000;stroke-width:2.0px;stroke-linecap:butt;stroke-linejoin:miter;stroke-opacity:1"/>
<path class="bond-24 atom-24 atom-25" d="M 127.5,133.7 L 138.5,139.2" style="fill:none;fill-rule:evenodd;stroke:#000000;stroke-width:2.0px;stroke-linecap:butt;stroke-linejoin:miter;stroke-opacity:1"/>
<path class="bond-24 atom-24 atom-25" d="M 138.5,139.2 L 149.4,144.7" style="fill:none;fill-rule:evenodd;stroke:#FF0000;stroke-width:2.0px;stroke-linecap:butt;stroke-linejoin:miter;stroke-opacity:1"/>
<path class="bond-24 atom-24 atom-25" d="M 129.4,129.9 L 140.4,135.4" style="fill:none;fill-rule:evenodd;stroke:#000000;stroke-width:2.0px;stroke-linecap:butt;stroke-linejoin:miter;stroke-opacity:1"/>
<path class="bond-24 atom-24 atom-25" d="M 140.4,135.4 L 151.4,140.9" style="fill:none;fill-rule:evenodd;stroke:#FF0000;stroke-width:2.0px;stroke-linecap:butt;stroke-linejoin:miter;stroke-opacity:1"/>
<path class="bond-25 atom-24 atom-26" d="M 129.6,132.4 L 120.0,138.7" style="fill:none;fill-rule:evenodd;stroke:#000000;stroke-width:2.0px;stroke-linecap:butt;stroke-linejoin:miter;stroke-opacity:1"/>
<path class="bond-25 atom-24 atom-26" d="M 120.0,138.7 L 110.4,145.0" style="fill:none;fill-rule:evenodd;stroke:#FF0000;stroke-width:2.0px;stroke-linecap:butt;stroke-linejoin:miter;stroke-opacity:1"/>
<path class="bond-26 atom-7 atom-27" d="M 197.6,75.0 L 199.2,103.5" style="fill:none;fill-rule:evenodd;stroke:#000000;stroke-width:2.0px;stroke-linecap:butt;stroke-linejoin:miter;stroke-opacity:1"/>
<path class="bond-27 atom-27 atom-28" d="M 197.2,104.9 L 208.2,110.4" style="fill:none;fill-rule:evenodd;stroke:#000000;stroke-width:2.0px;stroke-linecap:butt;stroke-linejoin:miter;stroke-opacity:1"/>
<path class="bond-27 atom-27 atom-28" d="M 208.2,110.4 L 219.1,115.9" style="fill:none;fill-rule:evenodd;stroke:#FF0000;stroke-width:2.0px;stroke-linecap:butt;stroke-linejoin:miter;stroke-opacity:1"/>
<path class="bond-27 atom-27 atom-28" d="M 199.1,101.0 L 210.1,106.5" style="fill:none;fill-rule:evenodd;stroke:#000000;stroke-width:2.0px;stroke-linecap:butt;stroke-linejoin:miter;stroke-opacity:1"/>
<path class="bond-27 atom-27 atom-28" d="M 210.1,106.5 L 221.0,112.0" style="fill:none;fill-rule:evenodd;stroke:#FF0000;stroke-width:2.0px;stroke-linecap:butt;stroke-linejoin:miter;stroke-opacity:1"/>
<path class="bond-28 atom-27 atom-29" d="M 199.2,103.5 L 189.7,109.8" style="fill:none;fill-rule:evenodd;stroke:#000000;stroke-width:2.0px;stroke-linecap:butt;stroke-linejoin:miter;stroke-opacity:1"/>
<path class="bond-28 atom-27 atom-29" d="M 189.7,109.8 L 180.1,116.1" style="fill:none;fill-rule:evenodd;stroke:#FF0000;stroke-width:2.0px;stroke-linecap:butt;stroke-linejoin:miter;stroke-opacity:1"/>
<path class="bond-29 atom-2 atom-30" d="M 270.2,95.5 L 268.5,67.0" style="fill:none;fill-rule:evenodd;stroke:#000000;stroke-width:2.0px;stroke-linecap:butt;stroke-linejoin:miter;stroke-opacity:1"/>
<path class="bond-30 atom-30 atom-31" d="M 268.6,69.5 L 278.7,62.8" style="fill:none;fill-rule:evenodd;stroke:#000000;stroke-width:2.0px;stroke-linecap:butt;stroke-linejoin:miter;stroke-opacity:1"/>
<path class="bond-30 atom-30 atom-31" d="M 278.7,62.8 L 288.8,56.2" style="fill:none;fill-rule:evenodd;stroke:#FF0000;stroke-width:2.0px;stroke-linecap:butt;stroke-linejoin:miter;stroke-opacity:1"/>
<path class="bond-30 atom-30 atom-31" d="M 266.3,65.9 L 276.4,59.3" style="fill:none;fill-rule:evenodd;stroke:#000000;stroke-width:2.0px;stroke-linecap:butt;stroke-linejoin:miter;stroke-opacity:1"/>
<path class="bond-30 atom-30 atom-31" d="M 276.4,59.3 L 286.5,52.6" style="fill:none;fill-rule:evenodd;stroke:#FF0000;stroke-width:2.0px;stroke-linecap:butt;stroke-linejoin:miter;stroke-opacity:1"/>
<path class="bond-31 atom-30 atom-32" d="M 268.5,67.0 L 258.1,61.8" style="fill:none;fill-rule:evenodd;stroke:#000000;stroke-width:2.0px;stroke-linecap:butt;stroke-linejoin:miter;stroke-opacity:1"/>
<path class="bond-31 atom-30 atom-32" d="M 258.1,61.8 L 247.6,56.6" style="fill:none;fill-rule:evenodd;stroke:#FF0000;stroke-width:2.0px;stroke-linecap:butt;stroke-linejoin:miter;stroke-opacity:1"/>
<path d="M 299.3,92.5 L 298.6,93.8 L 297.2,93.9" style="fill:none;stroke:#000000;stroke-width:2.0px;stroke-linecap:butt;stroke-linejoin:miter;stroke-opacity:1;"/>
<path d="M 271.8,122.5 L 271.9,123.9 L 271.4,124.2" style="fill:none;stroke:#000000;stroke-width:2.0px;stroke-linecap:butt;stroke-linejoin:miter;stroke-opacity:1;"/>
<path d="M 243.1,97.1 L 241.7,97.2 L 240.9,96.0" style="fill:none;stroke:#000000;stroke-width:2.0px;stroke-linecap:butt;stroke-linejoin:miter;stroke-opacity:1;"/>
<path d="M 226.8,74.5 L 226.0,73.4 L 224.6,73.4" style="fill:none;stroke:#000000;stroke-width:2.0px;stroke-linecap:butt;stroke-linejoin:miter;stroke-opacity:1;"/>
<path d="M 196.0,48.0 L 195.9,46.6 L 195.4,46.3" style="fill:none;stroke:#000000;stroke-width:2.0px;stroke-linecap:butt;stroke-linejoin:miter;stroke-opacity:1;"/>
<path d="M 170.5,76.6 L 169.1,76.7 L 168.5,78.0" style="fill:none;stroke:#000000;stroke-width:2.0px;stroke-linecap:butt;stroke-linejoin:miter;stroke-opacity:1;"/>
<path d="M 157.0,100.9 L 156.3,102.2 L 154.9,102.3" style="fill:none;stroke:#000000;stroke-width:2.0px;stroke-linecap:butt;stroke-linejoin:miter;stroke-opacity:1;"/>
<path d="M 126.3,76.9 L 126.2,75.4 L 125.7,75.2" style="fill:none;stroke:#000000;stroke-width:2.0px;stroke-linecap:butt;stroke-linejoin:miter;stroke-opacity:1;"/>
<path d="M 100.8,105.5 L 99.4,105.6 L 98.6,104.4" style="fill:none;stroke:#000000;stroke-width:2.0px;stroke-linecap:butt;stroke-linejoin:miter;stroke-opacity:1;"/>
<path d="M 84.5,83.0 L 83.7,81.8 L 82.3,81.9" style="fill:none;stroke:#000000;stroke-width:2.0px;stroke-linecap:butt;stroke-linejoin:miter;stroke-opacity:1;"/>
<path d="M 56.9,110.5 L 56.9,111.9 L 56.5,112.3" style="fill:none;stroke:#000000;stroke-width:2.0px;stroke-linecap:butt;stroke-linejoin:miter;stroke-opacity:1;"/>
<path d="M 53.7,56.4 L 53.6,55.0 L 53.0,54.8" style="fill:none;stroke:#000000;stroke-width:2.0px;stroke-linecap:butt;stroke-linejoin:miter;stroke-opacity:1;"/>
<path d="M 129.5,130.9 L 129.6,132.4 L 129.1,132.7" style="fill:none;stroke:#000000;stroke-width:2.0px;stroke-linecap:butt;stroke-linejoin:miter;stroke-opacity:1;"/>
<path d="M 199.2,102.1 L 199.2,103.5 L 198.8,103.8" style="fill:none;stroke:#000000;stroke-width:2.0px;stroke-linecap:butt;stroke-linejoin:miter;stroke-opacity:1;"/>
<path d="M 268.6,68.4 L 268.5,67.0 L 268.0,66.8" style="fill:none;stroke:#000000;stroke-width:2.0px;stroke-linecap:butt;stroke-linejoin:miter;stroke-opacity:1;"/>
<path class="atom-4" d="M 236.4 135.6 L 237.5 135.6 L 237.5 139.1 L 241.6 139.1 L 241.6 135.6 L 242.7 135.6 L 242.7 143.7 L 241.6 143.7 L 241.6 140.0 L 237.5 140.0 L 237.5 143.7 L 236.4 143.7 L 236.4 135.6 " fill="#FF0000"/>
<path class="atom-4" d="M 244.3 139.6 Q 244.3 137.7, 245.3 136.6 Q 246.3 135.5, 248.1 135.5 Q 249.8 135.5, 250.8 136.6 Q 251.8 137.7, 251.8 139.6 Q 251.8 141.6, 250.8 142.7 Q 249.8 143.8, 248.1 143.8 Q 246.3 143.8, 245.3 142.7 Q 244.3 141.6, 244.3 139.6 M 248.1 142.9 Q 249.3 142.9, 249.9 142.1 Q 250.6 141.3, 250.6 139.6 Q 250.6 138.1, 249.9 137.3 Q 249.3 136.5, 248.1 136.5 Q 246.8 136.5, 246.2 137.3 Q 245.5 138.0, 245.5 139.6 Q 245.5 141.3, 246.2 142.1 Q 246.8 142.9, 248.1 142.9 " fill="#FF0000"/>
<path class="atom-9" d="M 158.7 29.8 L 159.8 29.8 L 159.8 33.3 L 163.9 33.3 L 163.9 29.8 L 165.0 29.8 L 165.0 37.9 L 163.9 37.9 L 163.9 34.2 L 159.8 34.2 L 159.8 37.9 L 158.7 37.9 L 158.7 29.8 " fill="#FF0000"/>
<path class="atom-9" d="M 166.7 33.8 Q 166.7 31.9, 167.6 30.8 Q 168.6 29.7, 170.4 29.7 Q 172.2 29.7, 173.1 30.8 Q 174.1 31.9, 174.1 33.8 Q 174.1 35.8, 173.1 36.9 Q 172.1 38.0, 170.4 38.0 Q 168.6 38.0, 167.6 36.9 Q 166.7 35.8, 166.7 33.8 M 170.4 37.1 Q 171.6 37.1, 172.3 36.3 Q 172.9 35.5, 172.9 33.8 Q 172.9 32.3, 172.3 31.5 Q 171.6 30.6, 170.4 30.6 Q 169.1 30.6, 168.5 31.4 Q 167.8 32.2, 167.8 33.8 Q 167.8 35.5, 168.5 36.3 Q 169.1 37.1, 170.4 37.1 " fill="#FF0000"/>
<path class="atom-14" d="M 89.0 58.7 L 90.1 58.7 L 90.1 62.1 L 94.2 62.1 L 94.2 58.7 L 95.3 58.7 L 95.3 66.8 L 94.2 66.8 L 94.2 63.0 L 90.1 63.0 L 90.1 66.8 L 89.0 66.8 L 89.0 58.7 " fill="#FF0000"/>
<path class="atom-14" d="M 97.0 62.7 Q 97.0 60.8, 97.9 59.7 Q 98.9 58.6, 100.7 58.6 Q 102.5 58.6, 103.4 59.7 Q 104.4 60.8, 104.4 62.7 Q 104.4 64.7, 103.4 65.8 Q 102.5 66.9, 100.7 66.9 Q 98.9 66.9, 97.9 65.8 Q 97.0 64.7, 97.0 62.7 M 100.7 66.0 Q 101.9 66.0, 102.6 65.2 Q 103.3 64.3, 103.3 62.7 Q 103.3 61.1, 102.6 60.3 Q 101.9 59.5, 100.7 59.5 Q 99.5 59.5, 98.8 60.3 Q 98.1 61.1, 98.1 62.7 Q 98.1 64.3, 98.8 65.2 Q 99.5 66.0, 100.7 66.0 " fill="#FF0000"/>
<path class="atom-20" d="M 21.5 123.6 L 22.6 123.6 L 22.6 127.1 L 26.7 127.1 L 26.7 123.6 L 27.8 123.6 L 27.8 131.7 L 26.7 131.7 L 26.7 128.0 L 22.6 128.0 L 22.6 131.7 L 21.5 131.7 L 21.5 123.6 " fill="#FF0000"/>
<path class="atom-20" d="M 29.4 127.7 Q 29.4 125.7, 30.4 124.6 Q 31.4 123.5, 33.1 123.5 Q 34.9 123.5, 35.9 124.6 Q 36.8 125.7, 36.8 127.7 Q 36.8 129.6, 35.9 130.7 Q 34.9 131.8, 33.1 131.8 Q 31.4 131.8, 30.4 130.7 Q 29.4 129.6, 29.4 127.7 M 33.1 130.9 Q 34.4 130.9, 35.0 130.1 Q 35.7 129.3, 35.7 127.7 Q 35.7 126.1, 35.0 125.3 Q 34.4 124.5, 33.1 124.5 Q 31.9 124.5, 31.2 125.3 Q 30.6 126.1, 30.6 127.7 Q 30.6 129.3, 31.2 130.1 Q 31.9 130.9, 33.1 130.9 " fill="#FF0000"/>
<path class="atom-22" d="M 73.7 39.4 Q 73.7 37.4, 74.6 36.3 Q 75.6 35.2, 77.4 35.2 Q 79.2 35.2, 80.1 36.3 Q 81.1 37.4, 81.1 39.4 Q 81.1 41.3, 80.1 42.4 Q 79.1 43.5, 77.4 43.5 Q 75.6 43.5, 74.6 42.4 Q 73.7 41.3, 73.7 39.4 M 77.4 42.6 Q 78.6 42.6, 79.3 41.8 Q 79.9 41.0, 79.9 39.4 Q 79.9 37.8, 79.3 37.0 Q 78.6 36.2, 77.4 36.2 Q 76.1 36.2, 75.5 37.0 Q 74.8 37.8, 74.8 39.4 Q 74.8 41.0, 75.5 41.8 Q 76.1 42.6, 77.4 42.6 " fill="#FF0000"/>
<path class="atom-23" d="M 16.4 38.3 L 17.5 38.3 L 17.5 41.7 L 21.6 41.7 L 21.6 38.3 L 22.7 38.3 L 22.7 46.3 L 21.6 46.3 L 21.6 42.6 L 17.5 42.6 L 17.5 46.3 L 16.4 46.3 L 16.4 38.3 " fill="#FF0000"/>
<path class="atom-23" d="M 24.4 42.3 Q 24.4 40.3, 25.3 39.3 Q 26.3 38.2, 28.1 38.2 Q 29.9 38.2, 30.8 39.3 Q 31.8 40.3, 31.8 42.3 Q 31.8 44.2, 30.8 45.4 Q 29.8 46.5, 28.1 46.5 Q 26.3 46.5, 25.3 45.4 Q 24.4 44.2, 24.4 42.3 M 28.1 45.5 Q 29.3 45.5, 30.0 44.7 Q 30.6 43.9, 30.6 42.3 Q 30.6 40.7, 30.0 39.9 Q 29.3 39.1, 28.1 39.1 Q 26.8 39.1, 26.2 39.9 Q 25.5 40.7, 25.5 42.3 Q 25.5 43.9, 26.2 44.7 Q 26.8 45.5, 28.1 45.5 " fill="#FF0000"/>
<path class="atom-25" d="M 151.3 145.2 Q 151.3 143.2, 152.3 142.1 Q 153.3 141.1, 155.0 141.1 Q 156.8 141.1, 157.8 142.1 Q 158.8 143.2, 158.8 145.2 Q 158.8 147.1, 157.8 148.2 Q 156.8 149.3, 155.0 149.3 Q 153.3 149.3, 152.3 148.2 Q 151.3 147.1, 151.3 145.2 M 155.0 148.4 Q 156.3 148.4, 156.9 147.6 Q 157.6 146.8, 157.6 145.2 Q 157.6 143.6, 156.9 142.8 Q 156.3 142.0, 155.0 142.0 Q 153.8 142.0, 153.1 142.8 Q 152.5 143.6, 152.5 145.2 Q 152.5 146.8, 153.1 147.6 Q 153.8 148.4, 155.0 148.4 " fill="#FF0000"/>
<path class="atom-26" d="M 94.1 144.1 L 95.2 144.1 L 95.2 147.5 L 99.3 147.5 L 99.3 144.1 L 100.4 144.1 L 100.4 152.1 L 99.3 152.1 L 99.3 148.4 L 95.2 148.4 L 95.2 152.1 L 94.1 152.1 L 94.1 144.1 " fill="#FF0000"/>
<path class="atom-26" d="M 102.0 148.1 Q 102.0 146.1, 103.0 145.1 Q 104.0 144.0, 105.8 144.0 Q 107.5 144.0, 108.5 145.1 Q 109.5 146.1, 109.5 148.1 Q 109.5 150.0, 108.5 151.2 Q 107.5 152.3, 105.8 152.3 Q 104.0 152.3, 103.0 151.2 Q 102.0 150.1, 102.0 148.1 M 105.8 151.4 Q 107.0 151.4, 107.6 150.5 Q 108.3 149.7, 108.3 148.1 Q 108.3 146.5, 107.6 145.7 Q 107.0 144.9, 105.8 144.9 Q 104.5 144.9, 103.8 145.7 Q 103.2 146.5, 103.2 148.1 Q 103.2 149.7, 103.8 150.5 Q 104.5 151.4, 105.8 151.4 " fill="#FF0000"/>
<path class="atom-28" d="M 221.0 116.3 Q 221.0 114.4, 222.0 113.3 Q 222.9 112.2, 224.7 112.2 Q 226.5 112.2, 227.5 113.3 Q 228.4 114.4, 228.4 116.3 Q 228.4 118.3, 227.5 119.4 Q 226.5 120.5, 224.7 120.5 Q 223.0 120.5, 222.0 119.4 Q 221.0 118.3, 221.0 116.3 M 224.7 119.6 Q 226.0 119.6, 226.6 118.7 Q 227.3 117.9, 227.3 116.3 Q 227.3 114.7, 226.6 113.9 Q 226.0 113.1, 224.7 113.1 Q 223.5 113.1, 222.8 113.9 Q 222.2 114.7, 222.2 116.3 Q 222.2 117.9, 222.8 118.7 Q 223.5 119.6, 224.7 119.6 " fill="#FF0000"/>
<path class="atom-29" d="M 163.8 115.2 L 164.9 115.2 L 164.9 118.6 L 169.0 118.6 L 169.0 115.2 L 170.1 115.2 L 170.1 123.3 L 169.0 123.3 L 169.0 119.5 L 164.9 119.5 L 164.9 123.3 L 163.8 123.3 L 163.8 115.2 " fill="#FF0000"/>
<path class="atom-29" d="M 171.7 119.2 Q 171.7 117.3, 172.7 116.2 Q 173.7 115.1, 175.4 115.1 Q 177.2 115.1, 178.2 116.2 Q 179.1 117.3, 179.1 119.2 Q 179.1 121.2, 178.2 122.3 Q 177.2 123.4, 175.4 123.4 Q 173.7 123.4, 172.7 122.3 Q 171.7 121.2, 171.7 119.2 M 175.4 122.5 Q 176.7 122.5, 177.3 121.7 Q 178.0 120.8, 178.0 119.2 Q 178.0 117.6, 177.3 116.8 Q 176.7 116.0, 175.4 116.0 Q 174.2 116.0, 173.5 116.8 Q 172.9 117.6, 172.9 119.2 Q 172.9 120.8, 173.5 121.7 Q 174.2 122.5, 175.4 122.5 " fill="#FF0000"/>
<path class="atom-31" d="M 288.6 51.3 Q 288.6 49.4, 289.5 48.3 Q 290.5 47.2, 292.3 47.2 Q 294.1 47.2, 295.0 48.3 Q 296.0 49.4, 296.0 51.3 Q 296.0 53.3, 295.0 54.4 Q 294.1 55.5, 292.3 55.5 Q 290.5 55.5, 289.5 54.4 Q 288.6 53.3, 288.6 51.3 M 292.3 54.6 Q 293.5 54.6, 294.2 53.8 Q 294.9 53.0, 294.9 51.3 Q 294.9 49.8, 294.2 49.0 Q 293.5 48.1, 292.3 48.1 Q 291.1 48.1, 290.4 48.9 Q 289.7 49.7, 289.7 51.3 Q 289.7 53.0, 290.4 53.8 Q 291.1 54.6, 292.3 54.6 " fill="#FF0000"/>
<path class="atom-32" d="M 231.3 50.3 L 232.4 50.3 L 232.4 53.7 L 236.5 53.7 L 236.5 50.3 L 237.6 50.3 L 237.6 58.3 L 236.5 58.3 L 236.5 54.6 L 232.4 54.6 L 232.4 58.3 L 231.3 58.3 L 231.3 50.3 " fill="#FF0000"/>
<path class="atom-32" d="M 239.3 54.3 Q 239.3 52.3, 240.2 51.2 Q 241.2 50.2, 243.0 50.2 Q 244.8 50.2, 245.7 51.2 Q 246.7 52.3, 246.7 54.3 Q 246.7 56.2, 245.7 57.3 Q 244.8 58.5, 243.0 58.5 Q 241.2 58.5, 240.2 57.3 Q 239.3 56.2, 239.3 54.3 M 243.0 57.5 Q 244.2 57.5, 244.9 56.7 Q 245.6 55.9, 245.6 54.3 Q 245.6 52.7, 244.9 51.9 Q 244.2 51.1, 243.0 51.1 Q 241.8 51.1, 241.1 51.9 Q 240.4 52.7, 240.4 54.3 Q 240.4 55.9, 241.1 56.7 Q 241.8 57.5, 243.0 57.5 " fill="#FF0000"/>
<path class="legend" d="M 154.9 181.9 Q 154.9 179.6, 155.6 177.7 Q 156.2 175.8, 157.5 173.8 L 158.4 174.4 Q 157.4 176.3, 156.8 178.0 Q 156.3 179.7, 156.3 181.9 Q 156.3 184.0, 156.8 185.8 Q 157.4 187.5, 158.4 189.4 L 157.5 190.0 Q 156.2 188.0, 155.6 186.1 Q 154.9 184.2, 154.9 181.9 " fill="#000000"/>
<path class="legend" d="M 159.3 177.3 Q 159.8 176.2, 160.7 175.6 Q 161.7 175.0, 163.1 175.0 Q 164.8 175.0, 165.8 175.9 Q 166.7 176.8, 166.7 178.5 Q 166.7 180.2, 165.5 181.7 Q 164.3 183.3, 161.7 185.2 L 166.9 185.2 L 166.9 186.4 L 159.3 186.4 L 159.3 185.4 Q 161.4 183.9, 162.7 182.8 Q 163.9 181.6, 164.5 180.6 Q 165.1 179.6, 165.1 178.6 Q 165.1 177.5, 164.6 176.9 Q 164.1 176.3, 163.1 176.3 Q 162.2 176.3, 161.6 176.6 Q 161.0 177.0, 160.6 177.8 L 159.3 177.3 " fill="#000000"/>
<path class="legend" d="M 171.9 181.9 Q 171.9 184.2, 171.2 186.1 Q 170.6 188.0, 169.3 190.0 L 168.4 189.4 Q 169.4 187.5, 169.9 185.8 Q 170.5 184.0, 170.5 181.9 Q 170.5 179.7, 169.9 178.0 Q 169.4 176.3, 168.4 174.4 L 169.3 173.8 Q 170.6 175.8, 171.2 177.7 Q 171.9 179.6, 171.9 181.9 " fill="#000000"/>
</g>
    <g transform="translate(328.0, 0) scale(1 1) "><line x1="5" y1="100" x2="35" y2="100" style="stroke:rgb(0,0,0);stroke-width:2"/>
  <line x1="34" y1="100" x2="29" y2="95" style="stroke:rgb(0,0,0);stroke-width:2"/>
  <line x1="34" y1="100" x2="29" y2="105" style="stroke:rgb(0,0,0);stroke-width:2"/>
</g>
    <g transform="translate(368.0, 0) scale(1 1) "><!-- END OF HEADER -->
<rect style="opacity:1.0;fill:#FFFFFF;stroke:none" width="377.0" height="200.0" x="0.0" y="0.0"> </rect>
<path class="bond-0 atom-0 atom-1" d="M 279.5,45.4 L 262.3,42.5" style="fill:none;fill-rule:evenodd;stroke:#000000;stroke-width:2.0px;stroke-linecap:butt;stroke-linejoin:miter;stroke-opacity:1"/>
<path class="bond-1 atom-1 atom-2" d="M 262.3,42.5 L 251.2,56.0" style="fill:none;fill-rule:evenodd;stroke:#000000;stroke-width:2.0px;stroke-linecap:butt;stroke-linejoin:miter;stroke-opacity:1"/>
<path class="bond-2 atom-2 atom-3" d="M 251.2,56.0 L 237.7,44.9" style="fill:none;fill-rule:evenodd;stroke:#000000;stroke-width:2.0px;stroke-linecap:butt;stroke-linejoin:miter;stroke-opacity:1"/>
<path class="bond-3 atom-3 atom-4" d="M 237.7,44.9 L 230.9,47.4" style="fill:none;fill-rule:evenodd;stroke:#000000;stroke-width:2.0px;stroke-linecap:butt;stroke-linejoin:miter;stroke-opacity:1"/>
<path class="bond-3 atom-3 atom-4" d="M 230.9,47.4 L 224.1,50.0" style="fill:none;fill-rule:evenodd;stroke:#FF0000;stroke-width:2.0px;stroke-linecap:butt;stroke-linejoin:miter;stroke-opacity:1"/>
<path class="bond-4 atom-2 atom-5" d="M 251.2,56.0 L 240.1,69.5" style="fill:none;fill-rule:evenodd;stroke:#000000;stroke-width:2.0px;stroke-linecap:butt;stroke-linejoin:miter;stroke-opacity:1"/>
<path class="bond-5 atom-5 atom-6" d="M 240.1,69.5 L 246.2,85.9" style="fill:none;fill-rule:evenodd;stroke:#000000;stroke-width:2.0px;stroke-linecap:butt;stroke-linejoin:miter;stroke-opacity:1"/>
<path class="bond-6 atom-6 atom-7" d="M 246.2,85.9 L 235.1,99.4" style="fill:none;fill-rule:evenodd;stroke:#000000;stroke-width:2.0px;stroke-linecap:butt;stroke-linejoin:miter;stroke-opacity:1"/>
<path class="bond-7 atom-7 atom-8" d="M 235.1,99.4 L 248.6,110.5" style="fill:none;fill-rule:evenodd;stroke:#000000;stroke-width:2.0px;stroke-linecap:butt;stroke-linejoin:miter;stroke-opacity:1"/>
<path class="bond-8 atom-8 atom-9" d="M 248.6,110.5 L 247.4,117.6" style="fill:none;fill-rule:evenodd;stroke:#000000;stroke-width:2.0px;stroke-linecap:butt;stroke-linejoin:miter;stroke-opacity:1"/>
<path class="bond-8 atom-8 atom-9" d="M 247.4,117.6 L 246.2,124.7" style="fill:none;fill-rule:evenodd;stroke:#FF0000;stroke-width:2.0px;stroke-linecap:butt;stroke-linejoin:miter;stroke-opacity:1"/>
<path class="bond-9 atom-7 atom-10" d="M 235.1,99.4 L 224.0,112.9" style="fill:none;fill-rule:evenodd;stroke:#000000;stroke-width:2.0px;stroke-linecap:butt;stroke-linejoin:miter;stroke-opacity:1"/>
<path class="bond-10 atom-10 atom-11" d="M 224.0,112.9 L 206.7,110.0" style="fill:none;fill-rule:evenodd;stroke:#000000;stroke-width:2.0px;stroke-linecap:butt;stroke-linejoin:miter;stroke-opacity:1"/>
<path class="bond-11 atom-11 atom-12" d="M 206.7,110.0 L 195.6,123.5" style="fill:none;fill-rule:evenodd;stroke:#000000;stroke-width:2.0px;stroke-linecap:butt;stroke-linejoin:miter;stroke-opacity:1"/>
<path class="bond-12 atom-12 atom-13" d="M 195.6,123.5 L 182.1,112.4" style="fill:none;fill-rule:evenodd;stroke:#000000;stroke-width:2.0px;stroke-linecap:butt;stroke-linejoin:miter;stroke-opacity:1"/>
<path class="bond-13 atom-13 atom-14" d="M 182.1,112.4 L 184.1,105.6" style="fill:none;fill-rule:evenodd;stroke:#000000;stroke-width:2.0px;stroke-linecap:butt;stroke-linejoin:miter;stroke-opacity:1"/>
<path class="bond-13 atom-13 atom-14" d="M 184.1,105.6 L 186.1,98.8" style="fill:none;fill-rule:evenodd;stroke:#FF0000;stroke-width:2.0px;stroke-linecap:butt;stroke-linejoin:miter;stroke-opacity:1"/>
<path class="bond-14 atom-12 atom-15" d="M 195.6,123.5 L 184.5,137.0" style="fill:none;fill-rule:evenodd;stroke:#000000;stroke-width:2.0px;stroke-linecap:butt;stroke-linejoin:miter;stroke-opacity:1"/>
<path class="bond-15 atom-15 atom-16" d="M 184.5,137.0 L 167.2,134.2" style="fill:none;fill-rule:evenodd;stroke:#000000;stroke-width:2.0px;stroke-linecap:butt;stroke-linejoin:miter;stroke-opacity:1"/>
<path class="bond-16 atom-16 atom-17" d="M 167.2,134.2 L 156.1,147.7" style="fill:none;fill-rule:evenodd;stroke:#000000;stroke-width:2.0px;stroke-linecap:butt;stroke-linejoin:miter;stroke-opacity:1"/>
<path class="bond-17 atom-17 atom-18" d="M 156.1,147.7 L 162.3,164.0" style="fill:none;fill-rule:evenodd;stroke:#000000;stroke-width:2.0px;stroke-linecap:butt;stroke-linejoin:miter;stroke-opacity:1"/>
<path class="bond-18 atom-18 atom-19" d="M 162.3,164.0 L 168.4,180.4" style="fill:none;fill-rule:evenodd;stroke:#000000;stroke-width:2.0px;stroke-linecap:butt;stroke-linejoin:miter;stroke-opacity:1"/>
<path class="bond-19 atom-18 atom-20" d="M 162.3,164.0 L 178.6,157.9" style="fill:none;fill-rule:evenodd;stroke:#000000;stroke-width:2.0px;stroke-linecap:butt;stroke-linejoin:miter;stroke-opacity:1"/>
<path class="bond-20 atom-20 atom-21" d="M 178.6,157.9 L 184.0,162.3" style="fill:none;fill-rule:evenodd;stroke:#000000;stroke-width:2.0px;stroke-linecap:butt;stroke-linejoin:miter;stroke-opacity:1"/>
<path class="bond-20 atom-20 atom-21" d="M 184.0,162.3 L 189.3,166.7" style="fill:none;fill-rule:evenodd;stroke:#FF0000;stroke-width:2.0px;stroke-linecap:butt;stroke-linejoin:miter;stroke-opacity:1"/>
<path class="bond-21 atom-18 atom-22" d="M 162.3,164.0 L 145.9,170.2" style="fill:none;fill-rule:evenodd;stroke:#000000;stroke-width:2.0px;stroke-linecap:butt;stroke-linejoin:miter;stroke-opacity:1"/>
<path class="bond-22 atom-22 atom-23" d="M 147.3,169.6 L 141.7,165.0" style="fill:none;fill-rule:evenodd;stroke:#000000;stroke-width:2.0px;stroke-linecap:butt;stroke-linejoin:miter;stroke-opacity:1"/>
<path class="bond-22 atom-22 atom-23" d="M 141.7,165.0 L 136.1,160.4" style="fill:none;fill-rule:evenodd;stroke:#FF0000;stroke-width:2.0px;stroke-linecap:butt;stroke-linejoin:miter;stroke-opacity:1"/>
<path class="bond-22 atom-22 atom-23" d="M 145.6,171.7 L 140.0,167.0" style="fill:none;fill-rule:evenodd;stroke:#000000;stroke-width:2.0px;stroke-linecap:butt;stroke-linejoin:miter;stroke-opacity:1"/>
<path class="bond-22 atom-22 atom-23" d="M 140.0,167.0 L 134.4,162.4" style="fill:none;fill-rule:evenodd;stroke:#FF0000;stroke-width:2.0px;stroke-linecap:butt;stroke-linejoin:miter;stroke-opacity:1"/>
<path class="bond-23 atom-22 atom-24" d="M 145.9,170.2 L 144.7,177.3" style="fill:none;fill-rule:evenodd;stroke:#000000;stroke-width:2.0px;stroke-linecap:butt;stroke-linejoin:miter;stroke-opacity:1"/>
<path class="bond-23 atom-22 atom-24" d="M 144.7,177.3 L 143.5,184.3" style="fill:none;fill-rule:evenodd;stroke:#FF0000;stroke-width:2.0px;stroke-linecap:butt;stroke-linejoin:miter;stroke-opacity:1"/>
<path class="bond-24 atom-16 atom-25" d="M 167.2,134.2 L 161.1,117.8" style="fill:none;fill-rule:evenodd;stroke:#000000;stroke-width:2.0px;stroke-linecap:butt;stroke-linejoin:miter;stroke-opacity:1"/>
<path class="bond-25 atom-25 atom-26" d="M 161.1,117.8 L 177.5,111.6" style="fill:none;fill-rule:evenodd;stroke:#000000;stroke-width:2.0px;stroke-linecap:butt;stroke-linejoin:miter;stroke-opacity:1"/>
<path class="bond-26 atom-26 atom-27" d="M 177.5,111.6 L 177.8,104.5" style="fill:none;fill-rule:evenodd;stroke:#000000;stroke-width:2.0px;stroke-linecap:butt;stroke-linejoin:miter;stroke-opacity:1"/>
<path class="bond-26 atom-26 atom-27" d="M 177.8,104.5 L 178.1,97.3" style="fill:none;fill-rule:evenodd;stroke:#FF0000;stroke-width:2.0px;stroke-linecap:butt;stroke-linejoin:miter;stroke-opacity:1"/>
<path class="bond-27 atom-25 atom-28" d="M 161.1,117.8 L 155.0,101.4" style="fill:none;fill-rule:evenodd;stroke:#000000;stroke-width:2.0px;stroke-linecap:butt;stroke-linejoin:miter;stroke-opacity:1"/>
<path class="bond-28 atom-28 atom-29" d="M 155.0,101.4 L 137.7,98.5" style="fill:none;fill-rule:evenodd;stroke:#000000;stroke-width:2.0px;stroke-linecap:butt;stroke-linejoin:miter;stroke-opacity:1"/>
<path class="bond-29 atom-29 atom-30" d="M 137.7,98.5 L 131.6,82.1" style="fill:none;fill-rule:evenodd;stroke:#000000;stroke-width:2.0px;stroke-linecap:butt;stroke-linejoin:miter;stroke-opacity:1"/>
<path class="bond-30 atom-30 atom-31" d="M 131.6,82.1 L 148.0,76.0" style="fill:none;fill-rule:evenodd;stroke:#000000;stroke-width:2.0px;stroke-linecap:butt;stroke-linejoin:miter;stroke-opacity:1"/>
<path class="bond-31 atom-31 atom-32" d="M 148.0,76.0 L 149.1,69.0" style="fill:none;fill-rule:evenodd;stroke:#000000;stroke-width:2.0px;stroke-linecap:butt;stroke-linejoin:miter;stroke-opacity:1"/>
<path class="bond-31 atom-31 atom-32" d="M 149.1,69.0 L 150.3,61.9" style="fill:none;fill-rule:evenodd;stroke:#FF0000;stroke-width:2.0px;stroke-linecap:butt;stroke-linejoin:miter;stroke-opacity:1"/>
<path class="bond-32 atom-30 atom-33" d="M 131.6,82.1 L 125.4,65.8" style="fill:none;fill-rule:evenodd;stroke:#000000;stroke-width:2.0px;stroke-linecap:butt;stroke-linejoin:miter;stroke-opacity:1"/>
<path class="bond-33 atom-33 atom-34" d="M 125.4,65.8 L 136.6,52.3" style="fill:none;fill-rule:evenodd;stroke:#000000;stroke-width:2.0px;stroke-linecap:butt;stroke-linejoin:miter;stroke-opacity:1"/>
<path class="bond-34 atom-34 atom-35" d="M 136.6,52.3 L 130.4,35.9" style="fill:none;fill-rule:evenodd;stroke:#000000;stroke-width:2.0px;stroke-linecap:butt;stroke-linejoin:miter;stroke-opacity:1"/>
<path class="bond-35 atom-35 atom-36" d="M 130.4,35.9 L 124.3,19.5" style="fill:none;fill-rule:evenodd;stroke:#000000;stroke-width:2.0px;stroke-linecap:butt;stroke-linejoin:miter;stroke-opacity:1"/>
<path class="bond-36 atom-36 atom-37" d="M 124.3,19.5 L 107.0,16.6" style="fill:none;fill-rule:evenodd;stroke:#000000;stroke-width:2.0px;stroke-linecap:butt;stroke-linejoin:miter;stroke-opacity:1"/>
<path class="bond-37 atom-35 atom-38" d="M 130.4,35.9 L 114.0,42.0" style="fill:none;fill-rule:evenodd;stroke:#000000;stroke-width:2.0px;stroke-linecap:butt;stroke-linejoin:miter;stroke-opacity:1"/>
<path class="bond-38 atom-38 atom-39" d="M 114.0,42.0 L 108.7,37.6" style="fill:none;fill-rule:evenodd;stroke:#000000;stroke-width:2.0px;stroke-linecap:butt;stroke-linejoin:miter;stroke-opacity:1"/>
<path class="bond-38 atom-38 atom-39" d="M 108.7,37.6 L 103.4,33.3" style="fill:none;fill-rule:evenodd;stroke:#FF0000;stroke-width:2.0px;stroke-linecap:butt;stroke-linejoin:miter;stroke-opacity:1"/>
<path class="bond-39 atom-35 atom-40" d="M 130.4,35.9 L 146.8,29.8" style="fill:none;fill-rule:evenodd;stroke:#000000;stroke-width:2.0px;stroke-linecap:butt;stroke-linejoin:miter;stroke-opacity:1"/>
<path class="bond-40 atom-40 atom-41" d="M 145.4,30.3 L 151.0,34.9" style="fill:none;fill-rule:evenodd;stroke:#000000;stroke-width:2.0px;stroke-linecap:butt;stroke-linejoin:miter;stroke-opacity:1"/>
<path class="bond-40 atom-40 atom-41" d="M 151.0,34.9 L 156.6,39.5" style="fill:none;fill-rule:evenodd;stroke:#FF0000;stroke-width:2.0px;stroke-linecap:butt;stroke-linejoin:miter;stroke-opacity:1"/>
<path class="bond-40 atom-40 atom-41" d="M 147.0,28.3 L 152.7,32.9" style="fill:none;fill-rule:evenodd;stroke:#000000;stroke-width:2.0px;stroke-linecap:butt;stroke-linejoin:miter;stroke-opacity:1"/>
<path class="bond-40 atom-40 atom-41" d="M 152.7,32.9 L 158.3,37.5" style="fill:none;fill-rule:evenodd;stroke:#FF0000;stroke-width:2.0px;stroke-linecap:butt;stroke-linejoin:miter;stroke-opacity:1"/>
<path class="bond-41 atom-40 atom-42" d="M 146.8,29.8 L 148.0,22.7" style="fill:none;fill-rule:evenodd;stroke:#000000;stroke-width:2.0px;stroke-linecap:butt;stroke-linejoin:miter;stroke-opacity:1"/>
<path class="bond-41 atom-40 atom-42" d="M 148.0,22.7 L 149.1,15.7" style="fill:none;fill-rule:evenodd;stroke:#FF0000;stroke-width:2.0px;stroke-linecap:butt;stroke-linejoin:miter;stroke-opacity:1"/>
<path class="bond-42 atom-30 atom-43" d="M 131.6,82.1 L 115.2,88.3" style="fill:none;fill-rule:evenodd;stroke:#000000;stroke-width:2.0px;stroke-linecap:butt;stroke-linejoin:miter;stroke-opacity:1"/>
<path class="bond-43 atom-43 atom-44" d="M 114.0,87.3 L 112.8,94.8" style="fill:none;fill-rule:evenodd;stroke:#000000;stroke-width:2.0px;stroke-linecap:butt;stroke-linejoin:miter;stroke-opacity:1"/>
<path class="bond-43 atom-43 atom-44" d="M 112.8,94.8 L 111.5,102.2" style="fill:none;fill-rule:evenodd;stroke:#FF0000;stroke-width:2.0px;stroke-linecap:butt;stroke-linejoin:miter;stroke-opacity:1"/>
<path class="bond-43 atom-43 atom-44" d="M 116.6,87.8 L 115.4,95.2" style="fill:none;fill-rule:evenodd;stroke:#000000;stroke-width:2.0px;stroke-linecap:butt;stroke-linejoin:miter;stroke-opacity:1"/>
<path class="bond-43 atom-43 atom-44" d="M 115.4,95.2 L 114.1,102.7" style="fill:none;fill-rule:evenodd;stroke:#FF0000;stroke-width:2.0px;stroke-linecap:butt;stroke-linejoin:miter;stroke-opacity:1"/>
<path class="bond-44 atom-43 atom-45" d="M 115.2,88.3 L 109.9,83.9" style="fill:none;fill-rule:evenodd;stroke:#000000;stroke-width:2.0px;stroke-linecap:butt;stroke-linejoin:miter;stroke-opacity:1"/>
<path class="bond-44 atom-43 atom-45" d="M 109.9,83.9 L 104.5,79.5" style="fill:none;fill-rule:evenodd;stroke:#FF0000;stroke-width:2.0px;stroke-linecap:butt;stroke-linejoin:miter;stroke-opacity:1"/>
<path class="bond-45 atom-25 atom-46" d="M 161.1,117.8 L 144.7,123.9" style="fill:none;fill-rule:evenodd;stroke:#000000;stroke-width:2.0px;stroke-linecap:butt;stroke-linejoin:miter;stroke-opacity:1"/>
<path class="bond-46 atom-46 atom-47" d="M 143.6,122.9 L 142.3,130.4" style="fill:none;fill-rule:evenodd;stroke:#000000;stroke-width:2.0px;stroke-linecap:butt;stroke-linejoin:miter;stroke-opacity:1"/>
<path class="bond-46 atom-46 atom-47" d="M 142.3,130.4 L 141.1,137.9" style="fill:none;fill-rule:evenodd;stroke:#FF0000;stroke-width:2.0px;stroke-linecap:butt;stroke-linejoin:miter;stroke-opacity:1"/>
<path class="bond-46 atom-46 atom-47" d="M 146.1,123.4 L 144.9,130.8" style="fill:none;fill-rule:evenodd;stroke:#000000;stroke-width:2.0px;stroke-linecap:butt;stroke-linejoin:miter;stroke-opacity:1"/>
<path class="bond-46 atom-46 atom-47" d="M 144.9,130.8 L 143.7,138.3" style="fill:none;fill-rule:evenodd;stroke:#FF0000;stroke-width:2.0px;stroke-linecap:butt;stroke-linejoin:miter;stroke-opacity:1"/>
<path class="bond-47 atom-46 atom-48" d="M 144.7,123.9 L 139.4,119.5" style="fill:none;fill-rule:evenodd;stroke:#000000;stroke-width:2.0px;stroke-linecap:butt;stroke-linejoin:miter;stroke-opacity:1"/>
<path class="bond-47 atom-46 atom-48" d="M 139.4,119.5 L 134.1,115.1" style="fill:none;fill-rule:evenodd;stroke:#FF0000;stroke-width:2.0px;stroke-linecap:butt;stroke-linejoin:miter;stroke-opacity:1"/>
<path class="bond-48 atom-12 atom-49" d="M 195.6,123.5 L 209.1,134.6" style="fill:none;fill-rule:evenodd;stroke:#000000;stroke-width:2.0px;stroke-linecap:butt;stroke-linejoin:miter;stroke-opacity:1"/>
<path class="bond-49 atom-49 atom-50" d="M 208.9,136.1 L 216.0,133.5" style="fill:none;fill-rule:evenodd;stroke:#000000;stroke-width:2.0px;stroke-linecap:butt;stroke-linejoin:miter;stroke-opacity:1"/>
<path class="bond-49 atom-49 atom-50" d="M 216.0,133.5 L 223.1,130.8" style="fill:none;fill-rule:evenodd;stroke:#FF0000;stroke-width:2.0px;stroke-linecap:butt;stroke-linejoin:miter;stroke-opacity:1"/>
<path class="bond-49 atom-49 atom-50" d="M 207.9,133.7 L 215.1,131.0" style="fill:none;fill-rule:evenodd;stroke:#000000;stroke-width:2.0px;stroke-linecap:butt;stroke-linejoin:miter;stroke-opacity:1"/>
<path class="bond-49 atom-49 atom-50" d="M 215.1,131.0 L 222.2,128.3" style="fill:none;fill-rule:evenodd;stroke:#FF0000;stroke-width:2.0px;stroke-linecap:butt;stroke-linejoin:miter;stroke-opacity:1"/>
<path class="bond-50 atom-49 atom-51" d="M 209.1,134.6 L 207.9,141.7" style="fill:none;fill-rule:evenodd;stroke:#000000;stroke-width:2.0px;stroke-linecap:butt;stroke-linejoin:miter;stroke-opacity:1"/>
<path class="bond-50 atom-49 atom-51" d="M 207.9,141.7 L 206.7,148.8" style="fill:none;fill-rule:evenodd;stroke:#FF0000;stroke-width:2.0px;stroke-linecap:butt;stroke-linejoin:miter;stroke-opacity:1"/>
<path class="bond-51 atom-7 atom-52" d="M 235.1,99.4 L 221.6,88.3" style="fill:none;fill-rule:evenodd;stroke:#000000;stroke-width:2.0px;stroke-linecap:butt;stroke-linejoin:miter;stroke-opacity:1"/>
<path class="bond-52 atom-52 atom-53" d="M 222.7,89.2 L 224.0,81.8" style="fill:none;fill-rule:evenodd;stroke:#000000;stroke-width:2.0px;stroke-linecap:butt;stroke-linejoin:miter;stroke-opacity:1"/>
<path class="bond-52 atom-52 atom-53" d="M 224.0,81.8 L 225.2,74.4" style="fill:none;fill-rule:evenodd;stroke:#FF0000;stroke-width:2.0px;stroke-linecap:butt;stroke-linejoin:miter;stroke-opacity:1"/>
<path class="bond-52 atom-52 atom-53" d="M 220.2,88.8 L 221.4,81.4" style="fill:none;fill-rule:evenodd;stroke:#000000;stroke-width:2.0px;stroke-linecap:butt;stroke-linejoin:miter;stroke-opacity:1"/>
<path class="bond-52 atom-52 atom-53" d="M 221.4,81.4 L 222.6,74.0" style="fill:none;fill-rule:evenodd;stroke:#FF0000;stroke-width:2.0px;stroke-linecap:butt;stroke-linejoin:miter;stroke-opacity:1"/>
<path class="bond-53 atom-52 atom-54" d="M 221.6,88.3 L 214.8,90.8" style="fill:none;fill-rule:evenodd;stroke:#000000;stroke-width:2.0px;stroke-linecap:butt;stroke-linejoin:miter;stroke-opacity:1"/>
<path class="bond-53 atom-52 atom-54" d="M 214.8,90.8 L 208.1,93.3" style="fill:none;fill-rule:evenodd;stroke:#FF0000;stroke-width:2.0px;stroke-linecap:butt;stroke-linejoin:miter;stroke-opacity:1"/>
<path class="bond-54 atom-2 atom-55" d="M 251.2,56.0 L 264.7,67.1" style="fill:none;fill-rule:evenodd;stroke:#000000;stroke-width:2.0px;stroke-linecap:butt;stroke-linejoin:miter;stroke-opacity:1"/>
<path class="bond-55 atom-55 atom-56" d="M 264.4,68.6 L 271.5,65.9" style="fill:none;fill-rule:evenodd;stroke:#000000;stroke-width:2.0px;stroke-linecap:butt;stroke-linejoin:miter;stroke-opacity:1"/>
<path class="bond-55 atom-55 atom-56" d="M 271.5,65.9 L 278.7,63.3" style="fill:none;fill-rule:evenodd;stroke:#FF0000;stroke-width:2.0px;stroke-linecap:butt;stroke-linejoin:miter;stroke-opacity:1"/>
<path class="bond-55 atom-55 atom-56" d="M 263.5,66.2 L 270.6,63.5" style="fill:none;fill-rule:evenodd;stroke:#000000;stroke-width:2.0px;stroke-linecap:butt;stroke-linejoin:miter;stroke-opacity:1"/>
<path class="bond-55 atom-55 atom-56" d="M 270.6,63.5 L 277.7,60.8" style="fill:none;fill-rule:evenodd;stroke:#FF0000;stroke-width:2.0px;stroke-linecap:butt;stroke-linejoin:miter;stroke-opacity:1"/>
<path class="bond-56 atom-55 atom-57" d="M 264.7,67.1 L 263.5,74.2" style="fill:none;fill-rule:evenodd;stroke:#000000;stroke-width:2.0px;stroke-linecap:butt;stroke-linejoin:miter;stroke-opacity:1"/>
<path class="bond-56 atom-55 atom-57" d="M 263.5,74.2 L 262.3,81.3" style="fill:none;fill-rule:evenodd;stroke:#FF0000;stroke-width:2.0px;stroke-linecap:butt;stroke-linejoin:miter;stroke-opacity:1"/>
<path d="M 263.2,42.6 L 262.3,42.5 L 261.7,43.2" style="fill:none;stroke:#000000;stroke-width:2.0px;stroke-linecap:butt;stroke-linejoin:miter;stroke-opacity:1;"/>
<path d="M 238.3,45.4 L 237.7,44.9 L 237.3,45.0" style="fill:none;stroke:#000000;stroke-width:2.0px;stroke-linecap:butt;stroke-linejoin:miter;stroke-opacity:1;"/>
<path d="M 240.6,68.8 L 240.1,69.5 L 240.4,70.3" style="fill:none;stroke:#000000;stroke-width:2.0px;stroke-linecap:butt;stroke-linejoin:miter;stroke-opacity:1;"/>
<path d="M 245.9,85.1 L 246.2,85.9 L 245.6,86.6" style="fill:none;stroke:#000000;stroke-width:2.0px;stroke-linecap:butt;stroke-linejoin:miter;stroke-opacity:1;"/>
<path d="M 247.9,109.9 L 248.6,110.5 L 248.5,110.9" style="fill:none;stroke:#000000;stroke-width:2.0px;stroke-linecap:butt;stroke-linejoin:miter;stroke-opacity:1;"/>
<path d="M 224.5,112.2 L 224.0,112.9 L 223.1,112.7" style="fill:none;stroke:#000000;stroke-width:2.0px;stroke-linecap:butt;stroke-linejoin:miter;stroke-opacity:1;"/>
<path d="M 207.6,110.2 L 206.7,110.0 L 206.2,110.7" style="fill:none;stroke:#000000;stroke-width:2.0px;stroke-linecap:butt;stroke-linejoin:miter;stroke-opacity:1;"/>
<path d="M 182.8,113.0 L 182.1,112.4 L 182.2,112.1" style="fill:none;stroke:#000000;stroke-width:2.0px;stroke-linecap:butt;stroke-linejoin:miter;stroke-opacity:1;"/>
<path d="M 185.0,136.3 L 184.5,137.0 L 183.6,136.9" style="fill:none;stroke:#000000;stroke-width:2.0px;stroke-linecap:butt;stroke-linejoin:miter;stroke-opacity:1;"/>
<path d="M 156.7,147.0 L 156.1,147.7 L 156.4,148.5" style="fill:none;stroke:#000000;stroke-width:2.0px;stroke-linecap:butt;stroke-linejoin:miter;stroke-opacity:1;"/>
<path d="M 177.8,158.2 L 178.6,157.9 L 178.9,158.1" style="fill:none;stroke:#000000;stroke-width:2.0px;stroke-linecap:butt;stroke-linejoin:miter;stroke-opacity:1;"/>
<path d="M 146.7,169.9 L 145.9,170.2 L 145.8,170.5" style="fill:none;stroke:#000000;stroke-width:2.0px;stroke-linecap:butt;stroke-linejoin:miter;stroke-opacity:1;"/>
<path d="M 176.7,111.9 L 177.5,111.6 L 177.5,111.3" style="fill:none;stroke:#000000;stroke-width:2.0px;stroke-linecap:butt;stroke-linejoin:miter;stroke-opacity:1;"/>
<path d="M 155.3,102.2 L 155.0,101.4 L 154.1,101.3" style="fill:none;stroke:#000000;stroke-width:2.0px;stroke-linecap:butt;stroke-linejoin:miter;stroke-opacity:1;"/>
<path d="M 138.6,98.7 L 137.7,98.5 L 137.4,97.7" style="fill:none;stroke:#000000;stroke-width:2.0px;stroke-linecap:butt;stroke-linejoin:miter;stroke-opacity:1;"/>
<path d="M 147.1,76.3 L 148.0,76.0 L 148.0,75.7" style="fill:none;stroke:#000000;stroke-width:2.0px;stroke-linecap:butt;stroke-linejoin:miter;stroke-opacity:1;"/>
<path d="M 125.7,66.6 L 125.4,65.8 L 126.0,65.1" style="fill:none;stroke:#000000;stroke-width:2.0px;stroke-linecap:butt;stroke-linejoin:miter;stroke-opacity:1;"/>
<path d="M 136.0,52.9 L 136.6,52.3 L 136.2,51.4" style="fill:none;stroke:#000000;stroke-width:2.0px;stroke-linecap:butt;stroke-linejoin:miter;stroke-opacity:1;"/>
<path d="M 124.6,20.3 L 124.3,19.5 L 123.4,19.4" style="fill:none;stroke:#000000;stroke-width:2.0px;stroke-linecap:butt;stroke-linejoin:miter;stroke-opacity:1;"/>
<path d="M 114.9,41.7 L 114.0,42.0 L 113.8,41.8" style="fill:none;stroke:#000000;stroke-width:2.0px;stroke-linecap:butt;stroke-linejoin:miter;stroke-opacity:1;"/>
<path d="M 146.0,30.1 L 146.8,29.8 L 146.9,29.4" style="fill:none;stroke:#000000;stroke-width:2.0px;stroke-linecap:butt;stroke-linejoin:miter;stroke-opacity:1;"/>
<path d="M 116.0,88.0 L 115.2,88.3 L 114.9,88.1" style="fill:none;stroke:#000000;stroke-width:2.0px;stroke-linecap:butt;stroke-linejoin:miter;stroke-opacity:1;"/>
<path d="M 145.5,123.6 L 144.7,123.9 L 144.5,123.7" style="fill:none;stroke:#000000;stroke-width:2.0px;stroke-linecap:butt;stroke-linejoin:miter;stroke-opacity:1;"/>
<path d="M 208.4,134.1 L 209.1,134.6 L 209.0,135.0" style="fill:none;stroke:#000000;stroke-width:2.0px;stroke-linecap:butt;stroke-linejoin:miter;stroke-opacity:1;"/>
<path d="M 222.3,88.8 L 221.6,88.3 L 221.2,88.4" style="fill:none;stroke:#000000;stroke-width:2.0px;stroke-linecap:butt;stroke-linejoin:miter;stroke-opacity:1;"/>
<path d="M 264.0,66.6 L 264.7,67.1 L 264.6,67.5" style="fill:none;stroke:#000000;stroke-width:2.0px;stroke-linecap:butt;stroke-linejoin:miter;stroke-opacity:1;"/>
<path class="atom-4" d="M 214.1 48.6 L 214.8 48.6 L 214.8 50.7 L 217.3 50.7 L 217.3 48.6 L 218.0 48.6 L 218.0 53.5 L 217.3 53.5 L 217.3 51.2 L 214.8 51.2 L 214.8 53.5 L 214.1 53.5 L 214.1 48.6 " fill="#FF0000"/>
<path class="atom-4" d="M 219.0 51.0 Q 219.0 49.9, 219.6 49.2 Q 220.2 48.5, 221.3 48.5 Q 222.4 48.5, 223.0 49.2 Q 223.6 49.9, 223.6 51.0 Q 223.6 52.2, 223.0 52.9 Q 222.4 53.6, 221.3 53.6 Q 220.2 53.6, 219.6 52.9 Q 219.0 52.3, 219.0 51.0 M 221.3 53.1 Q 222.0 53.1, 222.5 52.5 Q 222.9 52.0, 222.9 51.0 Q 222.9 50.1, 222.5 49.6 Q 222.0 49.1, 221.3 49.1 Q 220.5 49.1, 220.1 49.6 Q 219.7 50.1, 219.7 51.0 Q 219.7 52.0, 220.1 52.5 Q 220.5 53.1, 221.3 53.1 " fill="#FF0000"/>
<path class="atom-9" d="M 243.4 127.8 Q 243.4 126.6, 244.0 125.9 Q 244.6 125.3, 245.7 125.3 Q 246.8 125.3, 247.4 125.9 Q 248.0 126.6, 248.0 127.8 Q 248.0 129.0, 247.4 129.7 Q 246.8 130.3, 245.7 130.3 Q 244.6 130.3, 244.0 129.7 Q 243.4 129.0, 243.4 127.8 M 245.7 129.8 Q 246.5 129.8, 246.9 129.3 Q 247.3 128.8, 247.3 127.8 Q 247.3 126.8, 246.9 126.3 Q 246.5 125.8, 245.7 125.8 Q 245.0 125.8, 244.5 126.3 Q 244.1 126.8, 244.1 127.8 Q 244.1 128.8, 244.5 129.3 Q 245.0 129.8, 245.7 129.8 " fill="#FF0000"/>
<path class="atom-9" d="M 248.8 125.3 L 249.4 125.3 L 249.4 127.4 L 252.0 127.4 L 252.0 125.3 L 252.6 125.3 L 252.6 130.3 L 252.0 130.3 L 252.0 128.0 L 249.4 128.0 L 249.4 130.3 L 248.8 130.3 L 248.8 125.3 " fill="#FF0000"/>
<path class="atom-14" d="M 184.8 95.6 Q 184.8 94.5, 185.4 93.8 Q 186.0 93.1, 187.1 93.1 Q 188.2 93.1, 188.7 93.8 Q 189.3 94.5, 189.3 95.6 Q 189.3 96.9, 188.7 97.5 Q 188.1 98.2, 187.1 98.2 Q 186.0 98.2, 185.4 97.5 Q 184.8 96.9, 184.8 95.6 M 187.1 97.7 Q 187.8 97.7, 188.2 97.2 Q 188.6 96.6, 188.6 95.6 Q 188.6 94.7, 188.2 94.2 Q 187.8 93.7, 187.1 93.7 Q 186.3 93.7, 185.9 94.2 Q 185.5 94.7, 185.5 95.6 Q 185.5 96.7, 185.9 97.2 Q 186.3 97.7, 187.1 97.7 " fill="#FF0000"/>
<path class="atom-14" d="M 190.1 93.2 L 190.8 93.2 L 190.8 95.3 L 193.3 95.3 L 193.3 93.2 L 194.0 93.2 L 194.0 98.1 L 193.3 98.1 L 193.3 95.9 L 190.8 95.9 L 190.8 98.1 L 190.1 98.1 L 190.1 93.2 " fill="#FF0000"/>
<path class="atom-21" d="M 189.9 169.0 Q 189.9 167.8, 190.5 167.2 Q 191.0 166.5, 192.1 166.5 Q 193.2 166.5, 193.8 167.2 Q 194.4 167.8, 194.4 169.0 Q 194.4 170.2, 193.8 170.9 Q 193.2 171.6, 192.1 171.6 Q 191.0 171.6, 190.5 170.9 Q 189.9 170.2, 189.9 169.0 M 192.1 171.0 Q 192.9 171.0, 193.3 170.5 Q 193.7 170.0, 193.7 169.0 Q 193.7 168.0, 193.3 167.6 Q 192.9 167.1, 192.1 167.1 Q 191.4 167.1, 191.0 167.6 Q 190.6 168.0, 190.6 169.0 Q 190.6 170.0, 191.0 170.5 Q 191.4 171.0, 192.1 171.0 " fill="#FF0000"/>
<path class="atom-21" d="M 195.2 166.6 L 195.9 166.6 L 195.9 168.7 L 198.4 168.7 L 198.4 166.6 L 199.1 166.6 L 199.1 171.5 L 198.4 171.5 L 198.4 169.2 L 195.9 169.2 L 195.9 171.5 L 195.2 171.5 L 195.2 166.6 " fill="#FF0000"/>
<path class="atom-23" d="M 130.1 159.1 Q 130.1 157.9, 130.7 157.2 Q 131.3 156.5, 132.4 156.5 Q 133.5 156.5, 134.1 157.2 Q 134.7 157.9, 134.7 159.1 Q 134.7 160.3, 134.1 161.0 Q 133.5 161.6, 132.4 161.6 Q 131.3 161.6, 130.7 161.0 Q 130.1 160.3, 130.1 159.1 M 132.4 161.1 Q 133.1 161.1, 133.5 160.6 Q 134.0 160.1, 134.0 159.1 Q 134.0 158.1, 133.5 157.6 Q 133.1 157.1, 132.4 157.1 Q 131.6 157.1, 131.2 157.6 Q 130.8 158.1, 130.8 159.1 Q 130.8 160.1, 131.2 160.6 Q 131.6 161.1, 132.4 161.1 " fill="#FF0000"/>
<path class="atom-24" d="M 140.7 187.4 Q 140.7 186.2, 141.3 185.6 Q 141.9 184.9, 143.0 184.9 Q 144.1 184.9, 144.7 185.6 Q 145.3 186.2, 145.3 187.4 Q 145.3 188.6, 144.7 189.3 Q 144.1 190.0, 143.0 190.0 Q 141.9 190.0, 141.3 189.3 Q 140.7 188.6, 140.7 187.4 M 143.0 189.4 Q 143.8 189.4, 144.2 188.9 Q 144.6 188.4, 144.6 187.4 Q 144.6 186.5, 144.2 186.0 Q 143.8 185.5, 143.0 185.5 Q 142.3 185.5, 141.8 186.0 Q 141.4 186.5, 141.4 187.4 Q 141.4 188.4, 141.8 188.9 Q 142.3 189.4, 143.0 189.4 " fill="#FF0000"/>
<path class="atom-24" d="M 146.1 185.0 L 146.7 185.0 L 146.7 187.1 L 149.3 187.1 L 149.3 185.0 L 149.9 185.0 L 149.9 189.9 L 149.3 189.9 L 149.3 187.6 L 146.7 187.6 L 146.7 189.9 L 146.1 189.9 L 146.1 185.0 " fill="#FF0000"/>
<path class="atom-27" d="M 176.0 94.2 Q 176.0 93.0, 176.5 92.3 Q 177.1 91.7, 178.2 91.7 Q 179.3 91.7, 179.9 92.3 Q 180.5 93.0, 180.5 94.2 Q 180.5 95.4, 179.9 96.1 Q 179.3 96.7, 178.2 96.7 Q 177.1 96.7, 176.5 96.1 Q 176.0 95.4, 176.0 94.2 M 178.2 96.2 Q 179.0 96.2, 179.4 95.7 Q 179.8 95.2, 179.8 94.2 Q 179.8 93.2, 179.4 92.7 Q 179.0 92.2, 178.2 92.2 Q 177.5 92.2, 177.1 92.7 Q 176.7 93.2, 176.7 94.2 Q 176.7 95.2, 177.1 95.7 Q 177.5 96.2, 178.2 96.2 " fill="#FF0000"/>
<path class="atom-27" d="M 181.3 91.7 L 181.9 91.7 L 181.9 93.8 L 184.5 93.8 L 184.5 91.7 L 185.1 91.7 L 185.1 96.7 L 184.5 96.7 L 184.5 94.4 L 181.9 94.4 L 181.9 96.7 L 181.3 96.7 L 181.3 91.7 " fill="#FF0000"/>
<path class="atom-32" d="M 148.6 58.8 Q 148.6 57.6, 149.1 56.9 Q 149.7 56.3, 150.8 56.3 Q 151.9 56.3, 152.5 56.9 Q 153.1 57.6, 153.1 58.8 Q 153.1 60.0, 152.5 60.7 Q 151.9 61.3, 150.8 61.3 Q 149.7 61.3, 149.1 60.7 Q 148.6 60.0, 148.6 58.8 M 150.8 60.8 Q 151.6 60.8, 152.0 60.3 Q 152.4 59.8, 152.4 58.8 Q 152.4 57.8, 152.0 57.3 Q 151.6 56.8, 150.8 56.8 Q 150.1 56.8, 149.7 57.3 Q 149.3 57.8, 149.3 58.8 Q 149.3 59.8, 149.7 60.3 Q 150.1 60.8, 150.8 60.8 " fill="#FF0000"/>
<path class="atom-32" d="M 153.9 56.3 L 154.5 56.3 L 154.5 58.4 L 157.1 58.4 L 157.1 56.3 L 157.7 56.3 L 157.7 61.3 L 157.1 61.3 L 157.1 59.0 L 154.5 59.0 L 154.5 61.3 L 153.9 61.3 L 153.9 56.3 " fill="#FF0000"/>
<path class="atom-39" d="M 93.4 28.5 L 94.0 28.5 L 94.0 30.6 L 96.6 30.6 L 96.6 28.5 L 97.2 28.5 L 97.2 33.4 L 96.6 33.4 L 96.6 31.1 L 94.0 31.1 L 94.0 33.4 L 93.4 33.4 L 93.4 28.5 " fill="#FF0000"/>
<path class="atom-39" d="M 98.3 30.9 Q 98.3 29.7, 98.9 29.1 Q 99.4 28.4, 100.5 28.4 Q 101.6 28.4, 102.2 29.1 Q 102.8 29.7, 102.8 30.9 Q 102.8 32.1, 102.2 32.8 Q 101.6 33.5, 100.5 33.5 Q 99.4 33.5, 98.9 32.8 Q 98.3 32.1, 98.3 30.9 M 100.5 32.9 Q 101.3 32.9, 101.7 32.4 Q 102.1 31.9, 102.1 30.9 Q 102.1 30.0, 101.7 29.5 Q 101.3 29.0, 100.5 29.0 Q 99.8 29.0, 99.4 29.5 Q 99.0 29.9, 99.0 30.9 Q 99.0 31.9, 99.4 32.4 Q 99.8 32.9, 100.5 32.9 " fill="#FF0000"/>
<path class="atom-41" d="M 158.0 40.9 Q 158.0 39.7, 158.6 39.0 Q 159.2 38.4, 160.3 38.4 Q 161.4 38.4, 162.0 39.0 Q 162.6 39.7, 162.6 40.9 Q 162.6 42.1, 162.0 42.8 Q 161.4 43.5, 160.3 43.5 Q 159.2 43.5, 158.6 42.8 Q 158.0 42.1, 158.0 40.9 M 160.3 42.9 Q 161.1 42.9, 161.5 42.4 Q 161.9 41.9, 161.9 40.9 Q 161.9 39.9, 161.5 39.4 Q 161.1 38.9, 160.3 38.9 Q 159.5 38.9, 159.1 39.4 Q 158.7 39.9, 158.7 40.9 Q 158.7 41.9, 159.1 42.4 Q 159.5 42.9, 160.3 42.9 " fill="#FF0000"/>
<path class="atom-42" d="M 147.4 12.5 Q 147.4 11.3, 148.0 10.7 Q 148.6 10.0, 149.7 10.0 Q 150.8 10.0, 151.4 10.7 Q 151.9 11.3, 151.9 12.5 Q 151.9 13.7, 151.3 14.4 Q 150.8 15.1, 149.7 15.1 Q 148.6 15.1, 148.0 14.4 Q 147.4 13.7, 147.4 12.5 M 149.7 14.5 Q 150.4 14.5, 150.8 14.0 Q 151.2 13.5, 151.2 12.5 Q 151.2 11.5, 150.8 11.1 Q 150.4 10.6, 149.7 10.6 Q 148.9 10.6, 148.5 11.0 Q 148.1 11.5, 148.1 12.5 Q 148.1 13.5, 148.5 14.0 Q 148.9 14.5, 149.7 14.5 " fill="#FF0000"/>
<path class="atom-42" d="M 152.7 10.1 L 153.4 10.1 L 153.4 12.2 L 155.9 12.2 L 155.9 10.1 L 156.6 10.1 L 156.6 15.0 L 155.9 15.0 L 155.9 12.7 L 153.4 12.7 L 153.4 15.0 L 152.7 15.0 L 152.7 10.1 " fill="#FF0000"/>
<path class="atom-44" d="M 110.1 105.5 Q 110.1 104.4, 110.6 103.7 Q 111.2 103.0, 112.3 103.0 Q 113.4 103.0, 114.0 103.7 Q 114.6 104.4, 114.6 105.5 Q 114.6 106.8, 114.0 107.4 Q 113.4 108.1, 112.3 108.1 Q 111.2 108.1, 110.6 107.4 Q 110.1 106.8, 110.1 105.5 M 112.3 107.6 Q 113.1 107.6, 113.5 107.1 Q 113.9 106.5, 113.9 105.5 Q 113.9 104.6, 113.5 104.1 Q 113.1 103.6, 112.3 103.6 Q 111.6 103.6, 111.2 104.1 Q 110.8 104.6, 110.8 105.5 Q 110.8 106.6, 111.2 107.1 Q 111.6 107.6, 112.3 107.6 " fill="#FF0000"/>
<path class="atom-45" d="M 94.5 74.7 L 95.2 74.7 L 95.2 76.8 L 97.7 76.8 L 97.7 74.7 L 98.4 74.7 L 98.4 79.7 L 97.7 79.7 L 97.7 77.4 L 95.2 77.4 L 95.2 79.7 L 94.5 79.7 L 94.5 74.7 " fill="#FF0000"/>
<path class="atom-45" d="M 99.4 77.2 Q 99.4 76.0, 100.0 75.3 Q 100.6 74.7, 101.7 74.7 Q 102.8 74.7, 103.4 75.3 Q 104.0 76.0, 104.0 77.2 Q 104.0 78.4, 103.4 79.1 Q 102.8 79.8, 101.7 79.8 Q 100.6 79.8, 100.0 79.1 Q 99.4 78.4, 99.4 77.2 M 101.7 79.2 Q 102.5 79.2, 102.9 78.7 Q 103.3 78.2, 103.3 77.2 Q 103.3 76.2, 102.9 75.7 Q 102.5 75.2, 101.7 75.2 Q 100.9 75.2, 100.5 75.7 Q 100.1 76.2, 100.1 77.2 Q 100.1 78.2, 100.5 78.7 Q 100.9 79.2, 101.7 79.2 " fill="#FF0000"/>
<path class="atom-47" d="M 139.6 141.2 Q 139.6 140.0, 140.2 139.3 Q 140.8 138.7, 141.9 138.7 Q 142.9 138.7, 143.5 139.3 Q 144.1 140.0, 144.1 141.2 Q 144.1 142.4, 143.5 143.1 Q 142.9 143.7, 141.9 143.7 Q 140.8 143.7, 140.2 143.1 Q 139.6 142.4, 139.6 141.2 M 141.9 143.2 Q 142.6 143.2, 143.0 142.7 Q 143.4 142.2, 143.4 141.2 Q 143.4 140.2, 143.0 139.7 Q 142.6 139.2, 141.9 139.2 Q 141.1 139.2, 140.7 139.7 Q 140.3 140.2, 140.3 141.2 Q 140.3 142.2, 140.7 142.7 Q 141.1 143.2, 141.9 143.2 " fill="#FF0000"/>
<path class="atom-48" d="M 124.1 110.3 L 124.7 110.3 L 124.7 112.5 L 127.3 112.5 L 127.3 110.3 L 127.9 110.3 L 127.9 115.3 L 127.3 115.3 L 127.3 113.0 L 124.7 113.0 L 124.7 115.3 L 124.1 115.3 L 124.1 110.3 " fill="#FF0000"/>
<path class="atom-48" d="M 128.9 112.8 Q 128.9 111.6, 129.5 111.0 Q 130.1 110.3, 131.2 110.3 Q 132.3 110.3, 132.9 111.0 Q 133.5 111.6, 133.5 112.8 Q 133.5 114.0, 132.9 114.7 Q 132.3 115.4, 131.2 115.4 Q 130.1 115.4, 129.5 114.7 Q 128.9 114.0, 128.9 112.8 M 131.2 114.8 Q 132.0 114.8, 132.4 114.3 Q 132.8 113.8, 132.8 112.8 Q 132.8 111.8, 132.4 111.3 Q 132.0 110.9, 131.2 110.9 Q 130.5 110.9, 130.1 111.3 Q 129.6 111.8, 129.6 112.8 Q 129.6 113.8, 130.1 114.3 Q 130.5 114.8, 131.2 114.8 " fill="#FF0000"/>
<path class="atom-50" d="M 223.2 128.5 Q 223.2 127.3, 223.8 126.7 Q 224.4 126.0, 225.5 126.0 Q 226.6 126.0, 227.2 126.7 Q 227.8 127.3, 227.8 128.5 Q 227.8 129.7, 227.2 130.4 Q 226.6 131.1, 225.5 131.1 Q 224.4 131.1, 223.8 130.4 Q 223.2 129.7, 223.2 128.5 M 225.5 130.5 Q 226.2 130.5, 226.6 130.0 Q 227.1 129.5, 227.1 128.5 Q 227.1 127.5, 226.6 127.1 Q 226.2 126.6, 225.5 126.6 Q 224.7 126.6, 224.3 127.0 Q 223.9 127.5, 223.9 128.5 Q 223.9 129.5, 224.3 130.0 Q 224.7 130.5, 225.5 130.5 " fill="#FF0000"/>
<path class="atom-51" d="M 204.0 151.9 Q 204.0 150.7, 204.5 150.0 Q 205.1 149.4, 206.2 149.4 Q 207.3 149.4, 207.9 150.0 Q 208.5 150.7, 208.5 151.9 Q 208.5 153.1, 207.9 153.8 Q 207.3 154.5, 206.2 154.5 Q 205.1 154.5, 204.5 153.8 Q 204.0 153.1, 204.0 151.9 M 206.2 153.9 Q 207.0 153.9, 207.4 153.4 Q 207.8 152.9, 207.8 151.9 Q 207.8 150.9, 207.4 150.4 Q 207.0 149.9, 206.2 149.9 Q 205.5 149.9, 205.1 150.4 Q 204.7 150.9, 204.7 151.9 Q 204.7 152.9, 205.1 153.4 Q 205.5 153.9, 206.2 153.9 " fill="#FF0000"/>
<path class="atom-51" d="M 209.3 149.4 L 209.9 149.4 L 209.9 151.5 L 212.5 151.5 L 212.5 149.4 L 213.2 149.4 L 213.2 154.4 L 212.5 154.4 L 212.5 152.1 L 209.9 152.1 L 209.9 154.4 L 209.3 154.4 L 209.3 149.4 " fill="#FF0000"/>
<path class="atom-53" d="M 222.2 71.0 Q 222.2 69.8, 222.8 69.2 Q 223.4 68.5, 224.5 68.5 Q 225.6 68.5, 226.1 69.2 Q 226.7 69.8, 226.7 71.0 Q 226.7 72.2, 226.1 72.9 Q 225.5 73.6, 224.5 73.6 Q 223.4 73.6, 222.8 72.9 Q 222.2 72.2, 222.2 71.0 M 224.5 73.0 Q 225.2 73.0, 225.6 72.5 Q 226.0 72.0, 226.0 71.0 Q 226.0 70.1, 225.6 69.6 Q 225.2 69.1, 224.5 69.1 Q 223.7 69.1, 223.3 69.6 Q 222.9 70.1, 222.9 71.0 Q 222.9 72.0, 223.3 72.5 Q 223.7 73.0, 224.5 73.0 " fill="#FF0000"/>
<path class="atom-54" d="M 198.0 92.0 L 198.7 92.0 L 198.7 94.1 L 201.2 94.1 L 201.2 92.0 L 201.9 92.0 L 201.9 96.9 L 201.2 96.9 L 201.2 94.6 L 198.7 94.6 L 198.7 96.9 L 198.0 96.9 L 198.0 92.0 " fill="#FF0000"/>
<path class="atom-54" d="M 202.9 94.4 Q 202.9 93.2, 203.5 92.6 Q 204.1 91.9, 205.2 91.9 Q 206.3 91.9, 206.9 92.6 Q 207.5 93.2, 207.5 94.4 Q 207.5 95.6, 206.9 96.3 Q 206.3 97.0, 205.2 97.0 Q 204.1 97.0, 203.5 96.3 Q 202.9 95.6, 202.9 94.4 M 205.2 96.4 Q 206.0 96.4, 206.4 95.9 Q 206.8 95.4, 206.8 94.4 Q 206.8 93.5, 206.4 93.0 Q 206.0 92.5, 205.2 92.5 Q 204.4 92.5, 204.0 93.0 Q 203.6 93.4, 203.6 94.4 Q 203.6 95.4, 204.0 95.9 Q 204.4 96.4, 205.2 96.4 " fill="#FF0000"/>
<path class="atom-56" d="M 278.8 61.0 Q 278.8 59.8, 279.4 59.1 Q 280.0 58.5, 281.1 58.5 Q 282.2 58.5, 282.7 59.1 Q 283.3 59.8, 283.3 61.0 Q 283.3 62.2, 282.7 62.9 Q 282.1 63.6, 281.1 63.6 Q 280.0 63.6, 279.4 62.9 Q 278.8 62.2, 278.8 61.0 M 281.1 63.0 Q 281.8 63.0, 282.2 62.5 Q 282.6 62.0, 282.6 61.0 Q 282.6 60.0, 282.2 59.5 Q 281.8 59.0, 281.1 59.0 Q 280.3 59.0, 279.9 59.5 Q 279.5 60.0, 279.5 61.0 Q 279.5 62.0, 279.9 62.5 Q 280.3 63.0, 281.1 63.0 " fill="#FF0000"/>
<path class="atom-57" d="M 259.5 84.4 Q 259.5 83.2, 260.1 82.5 Q 260.7 81.9, 261.8 81.9 Q 262.9 81.9, 263.5 82.5 Q 264.1 83.2, 264.1 84.4 Q 264.1 85.6, 263.5 86.3 Q 262.9 87.0, 261.8 87.0 Q 260.7 87.0, 260.1 86.3 Q 259.5 85.6, 259.5 84.4 M 261.8 86.4 Q 262.6 86.4, 263.0 85.9 Q 263.4 85.4, 263.4 84.4 Q 263.4 83.4, 263.0 82.9 Q 262.6 82.4, 261.8 82.4 Q 261.0 82.4, 260.6 82.9 Q 260.2 83.4, 260.2 84.4 Q 260.2 85.4, 260.6 85.9 Q 261.0 86.4, 261.8 86.4 " fill="#FF0000"/>
<path class="atom-57" d="M 264.8 81.9 L 265.5 81.9 L 265.5 84.0 L 268.1 84.0 L 268.1 81.9 L 268.7 81.9 L 268.7 86.9 L 268.1 86.9 L 268.1 84.6 L 265.5 84.6 L 265.5 86.9 L 264.8 86.9 L 264.8 81.9 " fill="#FF0000"/>
</g>
    <g transform="translate(745.0, 0) scale(1 1) "><line x1="15" y1="100" x2="25" y2="100" style="stroke:rgb(0,0,0);stroke-width:2"/>
  <line x1="20" y1="95" x2="20" y2="105" style="stroke:rgb(0,0,0);stroke-width:2"/>
</g>
    <g transform="translate(785.0, 0) scale(1 1) "><!-- END OF HEADER -->
<rect style="opacity:1.0;fill:#FFFFFF;stroke:none" width="205.0" height="200.0" x="0.0" y="0.0"> </rect>
<path class="bond-0 atom-0 atom-1" d="M 122.6,44.3 L 108.8,89.2" style="fill:none;fill-rule:evenodd;stroke:#000000;stroke-width:2.0px;stroke-linecap:butt;stroke-linejoin:miter;stroke-opacity:1"/>
<path class="bond-1 atom-1 atom-2" d="M 108.8,89.2 L 95.0,134.1" style="fill:none;fill-rule:evenodd;stroke:#000000;stroke-width:2.0px;stroke-linecap:butt;stroke-linejoin:miter;stroke-opacity:1"/>
<path class="bond-2 atom-1 atom-3" d="M 108.8,89.2 L 63.9,75.4" style="fill:none;fill-rule:evenodd;stroke:#000000;stroke-width:2.0px;stroke-linecap:butt;stroke-linejoin:miter;stroke-opacity:1"/>
<path class="bond-3 atom-3 atom-4" d="M 63.9,75.4 L 50.5,87.9" style="fill:none;fill-rule:evenodd;stroke:#000000;stroke-width:2.0px;stroke-linecap:butt;stroke-linejoin:miter;stroke-opacity:1"/>
<path class="bond-3 atom-3 atom-4" d="M 50.5,87.9 L 37.2,100.3" style="fill:none;fill-rule:evenodd;stroke:#FF0000;stroke-width:2.0px;stroke-linecap:butt;stroke-linejoin:miter;stroke-opacity:1"/>
<path class="bond-4 atom-1 atom-5" d="M 108.8,89.2 L 153.7,103.0" style="fill:none;fill-rule:evenodd;stroke:#000000;stroke-width:2.0px;stroke-linecap:butt;stroke-linejoin:miter;stroke-opacity:1"/>
<path class="bond-5 atom-5 atom-6" d="M 154.7,107.0 L 168.8,93.8" style="fill:none;fill-rule:evenodd;stroke:#000000;stroke-width:2.0px;stroke-linecap:butt;stroke-linejoin:miter;stroke-opacity:1"/>
<path class="bond-5 atom-5 atom-6" d="M 168.8,93.8 L 182.9,80.7" style="fill:none;fill-rule:evenodd;stroke:#FF0000;stroke-width:2.0px;stroke-linecap:butt;stroke-linejoin:miter;stroke-opacity:1"/>
<path class="bond-5 atom-5 atom-6" d="M 149.9,101.8 L 164.0,88.7" style="fill:none;fill-rule:evenodd;stroke:#000000;stroke-width:2.0px;stroke-linecap:butt;stroke-linejoin:miter;stroke-opacity:1"/>
<path class="bond-5 atom-5 atom-6" d="M 164.0,88.7 L 178.1,75.5" style="fill:none;fill-rule:evenodd;stroke:#FF0000;stroke-width:2.0px;stroke-linecap:butt;stroke-linejoin:miter;stroke-opacity:1"/>
<path class="bond-6 atom-5 atom-7" d="M 153.7,103.0 L 158.0,121.7" style="fill:none;fill-rule:evenodd;stroke:#000000;stroke-width:2.0px;stroke-linecap:butt;stroke-linejoin:miter;stroke-opacity:1"/>
<path class="bond-6 atom-5 atom-7" d="M 158.0,121.7 L 162.4,140.5" style="fill:none;fill-rule:evenodd;stroke:#FF0000;stroke-width:2.0px;stroke-linecap:butt;stroke-linejoin:miter;stroke-opacity:1"/>
<path d="M 66.1,76.1 L 63.9,75.4 L 63.2,76.0" style="fill:none;stroke:#000000;stroke-width:2.0px;stroke-linecap:butt;stroke-linejoin:miter;stroke-opacity:1;"/>
<path d="M 151.5,102.3 L 153.7,103.0 L 154.0,103.9" style="fill:none;stroke:#000000;stroke-width:2.0px;stroke-linecap:butt;stroke-linejoin:miter;stroke-opacity:1;"/>
<path class="atom-4" d="M 10.2 100.8 L 12.1 100.8 L 12.1 106.5 L 18.9 106.5 L 18.9 100.8 L 20.7 100.8 L 20.7 114.1 L 18.9 114.1 L 18.9 108.0 L 12.1 108.0 L 12.1 114.1 L 10.2 114.1 L 10.2 100.8 " fill="#FF0000"/>
<path class="atom-4" d="M 23.4 107.5 Q 23.4 104.3, 25.0 102.5 Q 26.5 100.7, 29.5 100.7 Q 32.5 100.7, 34.0 102.5 Q 35.6 104.3, 35.6 107.5 Q 35.6 110.7, 34.0 112.5 Q 32.4 114.4, 29.5 114.4 Q 26.6 114.4, 25.0 112.5 Q 23.4 110.7, 23.4 107.5 M 29.5 112.9 Q 31.5 112.9, 32.6 111.5 Q 33.7 110.1, 33.7 107.5 Q 33.7 104.8, 32.6 103.5 Q 31.5 102.2, 29.5 102.2 Q 27.5 102.2, 26.4 103.5 Q 25.3 104.8, 25.3 107.5 Q 25.3 110.1, 26.4 111.5 Q 27.5 112.9, 29.5 112.9 " fill="#FF0000"/>
<path class="atom-6" d="M 182.0 71.0 Q 182.0 67.8, 183.6 66.0 Q 185.2 64.3, 188.1 64.3 Q 191.1 64.3, 192.7 66.0 Q 194.3 67.8, 194.3 71.0 Q 194.3 74.3, 192.7 76.1 Q 191.1 77.9, 188.1 77.9 Q 185.2 77.9, 183.6 76.1 Q 182.0 74.3, 182.0 71.0 M 188.1 76.4 Q 190.2 76.4, 191.3 75.1 Q 192.4 73.7, 192.4 71.0 Q 192.4 68.4, 191.3 67.1 Q 190.2 65.8, 188.1 65.8 Q 186.1 65.8, 185.0 67.1 Q 183.9 68.4, 183.9 71.0 Q 183.9 73.7, 185.0 75.1 Q 186.1 76.4, 188.1 76.4 " fill="#FF0000"/>
<path class="atom-7" d="M 158.2 148.8 Q 158.2 145.6, 159.7 143.8 Q 161.3 142.1, 164.3 142.1 Q 167.2 142.1, 168.8 143.8 Q 170.4 145.6, 170.4 148.8 Q 170.4 152.1, 168.8 153.9 Q 167.2 155.7, 164.3 155.7 Q 161.3 155.7, 159.7 153.9 Q 158.2 152.1, 158.2 148.8 M 164.3 154.2 Q 166.3 154.2, 167.4 152.9 Q 168.5 151.5, 168.5 148.8 Q 168.5 146.2, 167.4 144.9 Q 166.3 143.6, 164.3 143.6 Q 162.2 143.6, 161.1 144.9 Q 160.0 146.2, 160.0 148.8 Q 160.0 151.5, 161.1 152.9 Q 162.2 154.2, 164.3 154.2 " fill="#FF0000"/>
<path class="atom-7" d="M 172.4 142.2 L 174.2 142.2 L 174.2 147.9 L 181.0 147.9 L 181.0 142.2 L 182.9 142.2 L 182.9 155.5 L 181.0 155.5 L 181.0 149.4 L 174.2 149.4 L 174.2 155.5 L 172.4 155.5 L 172.4 142.2 " fill="#FF0000"/>
</g>
  </g>
</svg>
