<?xml version='1.0' encoding='ASCII' standalone='yes'?>
<svg xmlns="http://www.w3.org/2000/svg" xmlns:xlink="http://www.w3.org/1999/xlink" version="1.1" width="946.0px" viewBox="0 0 946.0 200.0" height="200.0px">
  <g>
    <g transform="translate(0, 0) scale(1 1) "><!-- END OF HEADER -->
<rect style="opacity:1.0;fill:#FFFFFF;stroke:none" width="304.0" height="200.0" x="0.0" y="0.0"> </rect>
<path class="bond-0 atom-0 atom-1" d="M 150.3,79.3 L 140.6,102.0" style="fill:none;fill-rule:evenodd;stroke:#000000;stroke-width:2.0px;stroke-linecap:butt;stroke-linejoin:miter;stroke-opacity:1"/>
<path class="bond-1 atom-1 atom-2" d="M 140.6,102.0 L 161.8,124.0" style="fill:none;fill-rule:evenodd;stroke:#000000;stroke-width:2.0px;stroke-linecap:butt;stroke-linejoin:miter;stroke-opacity:1"/>
<path class="bond-2 atom-2 atom-3" d="M 161.8,124.0 L 191.5,116.6" style="fill:none;fill-rule:evenodd;stroke:#000000;stroke-width:2.0px;stroke-linecap:butt;stroke-linejoin:miter;stroke-opacity:1"/>
<path class="bond-3 atom-3 atom-4" d="M 191.5,116.6 L 221.1,109.2" style="fill:none;fill-rule:evenodd;stroke:#000000;stroke-width:2.0px;stroke-linecap:butt;stroke-linejoin:miter;stroke-opacity:1"/>
<path class="bond-4 atom-3 atom-5" d="M 191.5,116.6 L 184.1,87.0" style="fill:none;fill-rule:evenodd;stroke:#000000;stroke-width:2.0px;stroke-linecap:butt;stroke-linejoin:miter;stroke-opacity:1"/>
<path class="bond-5 atom-5 atom-6" d="M 184.1,87.0 L 206.0,65.7" style="fill:none;fill-rule:evenodd;stroke:#000000;stroke-width:2.0px;stroke-linecap:butt;stroke-linejoin:miter;stroke-opacity:1"/>
<path class="bond-6 atom-6 atom-7" d="M 206.0,65.7 L 228.0,44.5" style="fill:none;fill-rule:evenodd;stroke:#000000;stroke-width:2.0px;stroke-linecap:butt;stroke-linejoin:miter;stroke-opacity:1"/>
<path class="bond-7 atom-6 atom-8" d="M 206.0,65.7 L 227.3,87.7" style="fill:none;fill-rule:evenodd;stroke:#000000;stroke-width:2.0px;stroke-linecap:butt;stroke-linejoin:miter;stroke-opacity:1"/>
<path class="bond-8 atom-8 atom-9" d="M 227.3,87.7 L 239.6,84.6" style="fill:none;fill-rule:evenodd;stroke:#000000;stroke-width:2.0px;stroke-linecap:butt;stroke-linejoin:miter;stroke-opacity:1"/>
<path class="bond-8 atom-8 atom-9" d="M 239.6,84.6 L 252.0,81.5" style="fill:none;fill-rule:evenodd;stroke:#FF0000;stroke-width:2.0px;stroke-linecap:butt;stroke-linejoin:miter;stroke-opacity:1"/>
<path class="bond-9 atom-6 atom-10" d="M 206.0,65.7 L 184.8,43.8" style="fill:none;fill-rule:evenodd;stroke:#000000;stroke-width:2.0px;stroke-linecap:butt;stroke-linejoin:miter;stroke-opacity:1"/>
<path class="bond-10 atom-10 atom-11" d="M 185.5,41.2 L 172.5,44.5" style="fill:none;fill-rule:evenodd;stroke:#000000;stroke-width:2.0px;stroke-linecap:butt;stroke-linejoin:miter;stroke-opacity:1"/>
<path class="bond-10 atom-10 atom-11" d="M 172.5,44.5 L 159.6,47.7" style="fill:none;fill-rule:evenodd;stroke:#FF0000;stroke-width:2.0px;stroke-linecap:butt;stroke-linejoin:miter;stroke-opacity:1"/>
<path class="bond-10 atom-10 atom-11" d="M 186.6,45.6 L 173.6,48.9" style="fill:none;fill-rule:evenodd;stroke:#000000;stroke-width:2.0px;stroke-linecap:butt;stroke-linejoin:miter;stroke-opacity:1"/>
<path class="bond-10 atom-10 atom-11" d="M 173.6,48.9 L 160.7,52.1" style="fill:none;fill-rule:evenodd;stroke:#FF0000;stroke-width:2.0px;stroke-linecap:butt;stroke-linejoin:miter;stroke-opacity:1"/>
<path class="bond-11 atom-10 atom-12" d="M 184.8,43.8 L 188.2,31.8" style="fill:none;fill-rule:evenodd;stroke:#000000;stroke-width:2.0px;stroke-linecap:butt;stroke-linejoin:miter;stroke-opacity:1"/>
<path class="bond-11 atom-10 atom-12" d="M 188.2,31.8 L 191.6,19.9" style="fill:none;fill-rule:evenodd;stroke:#FF0000;stroke-width:2.0px;stroke-linecap:butt;stroke-linejoin:miter;stroke-opacity:1"/>
<path class="bond-12 atom-3 atom-13" d="M 191.5,116.6 L 198.9,146.2" style="fill:none;fill-rule:evenodd;stroke:#000000;stroke-width:2.0px;stroke-linecap:butt;stroke-linejoin:miter;stroke-opacity:1"/>
<path class="bond-13 atom-13 atom-14" d="M 198.3,143.7 L 189.3,152.4" style="fill:none;fill-rule:evenodd;stroke:#000000;stroke-width:2.0px;stroke-linecap:butt;stroke-linejoin:miter;stroke-opacity:1"/>
<path class="bond-13 atom-13 atom-14" d="M 189.3,152.4 L 180.3,161.1" style="fill:none;fill-rule:evenodd;stroke:#FF0000;stroke-width:2.0px;stroke-linecap:butt;stroke-linejoin:miter;stroke-opacity:1"/>
<path class="bond-13 atom-13 atom-14" d="M 201.4,147.0 L 192.4,155.6" style="fill:none;fill-rule:evenodd;stroke:#000000;stroke-width:2.0px;stroke-linecap:butt;stroke-linejoin:miter;stroke-opacity:1"/>
<path class="bond-13 atom-13 atom-14" d="M 192.4,155.6 L 183.5,164.3" style="fill:none;fill-rule:evenodd;stroke:#FF0000;stroke-width:2.0px;stroke-linecap:butt;stroke-linejoin:miter;stroke-opacity:1"/>
<path class="bond-14 atom-13 atom-15" d="M 198.9,146.2 L 211.1,149.7" style="fill:none;fill-rule:evenodd;stroke:#000000;stroke-width:2.0px;stroke-linecap:butt;stroke-linejoin:miter;stroke-opacity:1"/>
<path class="bond-14 atom-13 atom-15" d="M 211.1,149.7 L 223.3,153.2" style="fill:none;fill-rule:evenodd;stroke:#FF0000;stroke-width:2.0px;stroke-linecap:butt;stroke-linejoin:miter;stroke-opacity:1"/>
<path class="bond-15 atom-1 atom-16" d="M 140.6,102.0 L 110.9,109.5" style="fill:none;fill-rule:evenodd;stroke:#000000;stroke-width:2.0px;stroke-linecap:butt;stroke-linejoin:miter;stroke-opacity:1"/>
<path class="bond-16 atom-16 atom-17" d="M 110.9,109.5 L 89.7,87.5" style="fill:none;fill-rule:evenodd;stroke:#000000;stroke-width:2.0px;stroke-linecap:butt;stroke-linejoin:miter;stroke-opacity:1"/>
<path class="bond-17 atom-17 atom-18" d="M 89.7,87.5 L 68.5,65.5" style="fill:none;fill-rule:evenodd;stroke:#000000;stroke-width:2.0px;stroke-linecap:butt;stroke-linejoin:miter;stroke-opacity:1"/>
<path class="bond-18 atom-17 atom-19" d="M 89.7,87.5 L 67.7,108.7" style="fill:none;fill-rule:evenodd;stroke:#000000;stroke-width:2.0px;stroke-linecap:butt;stroke-linejoin:miter;stroke-opacity:1"/>
<path class="bond-19 atom-19 atom-20" d="M 69.6,106.9 L 56.8,103.3" style="fill:none;fill-rule:evenodd;stroke:#000000;stroke-width:2.0px;stroke-linecap:butt;stroke-linejoin:miter;stroke-opacity:1"/>
<path class="bond-19 atom-19 atom-20" d="M 56.8,103.3 L 43.9,99.6" style="fill:none;fill-rule:evenodd;stroke:#FF0000;stroke-width:2.0px;stroke-linecap:butt;stroke-linejoin:miter;stroke-opacity:1"/>
<path class="bond-19 atom-19 atom-20" d="M 68.4,111.3 L 55.5,107.6" style="fill:none;fill-rule:evenodd;stroke:#000000;stroke-width:2.0px;stroke-linecap:butt;stroke-linejoin:miter;stroke-opacity:1"/>
<path class="bond-19 atom-19 atom-20" d="M 55.5,107.6 L 42.7,103.9" style="fill:none;fill-rule:evenodd;stroke:#FF0000;stroke-width:2.0px;stroke-linecap:butt;stroke-linejoin:miter;stroke-opacity:1"/>
<path class="bond-20 atom-19 atom-21" d="M 67.7,108.7 L 70.8,120.9" style="fill:none;fill-rule:evenodd;stroke:#000000;stroke-width:2.0px;stroke-linecap:butt;stroke-linejoin:miter;stroke-opacity:1"/>
<path class="bond-20 atom-19 atom-21" d="M 70.8,120.9 L 73.8,133.0" style="fill:none;fill-rule:evenodd;stroke:#FF0000;stroke-width:2.0px;stroke-linecap:butt;stroke-linejoin:miter;stroke-opacity:1"/>
<path class="bond-21 atom-17 atom-22" d="M 89.7,87.5 L 111.7,66.3" style="fill:none;fill-rule:evenodd;stroke:#000000;stroke-width:2.0px;stroke-linecap:butt;stroke-linejoin:miter;stroke-opacity:1"/>
<path class="bond-22 atom-22 atom-23" d="M 111.7,66.3 L 136.1,70.1" style="fill:none;fill-rule:evenodd;stroke:#000000;stroke-width:2.0px;stroke-linecap:butt;stroke-linejoin:miter;stroke-opacity:1"/>
<path class="bond-23 atom-22 atom-24" d="M 111.7,66.3 L 108.7,54.2" style="fill:none;fill-rule:evenodd;stroke:#000000;stroke-width:2.0px;stroke-linecap:butt;stroke-linejoin:miter;stroke-opacity:1"/>
<path class="bond-23 atom-22 atom-24" d="M 108.7,54.2 L 105.6,42.1" style="fill:none;fill-rule:evenodd;stroke:#FF0000;stroke-width:2.0px;stroke-linecap:butt;stroke-linejoin:miter;stroke-opacity:1"/>
<path d="M 160.8,122.9 L 161.8,124.0 L 163.3,123.6" style="fill:none;stroke:#000000;stroke-width:2.0px;stroke-linecap:butt;stroke-linejoin:miter;stroke-opacity:1;"/>
<path d="M 184.4,88.4 L 184.1,87.0 L 185.2,85.9" style="fill:none;stroke:#000000;stroke-width:2.0px;stroke-linecap:butt;stroke-linejoin:miter;stroke-opacity:1;"/>
<path d="M 226.2,86.6 L 227.3,87.7 L 227.9,87.5" style="fill:none;stroke:#000000;stroke-width:2.0px;stroke-linecap:butt;stroke-linejoin:miter;stroke-opacity:1;"/>
<path d="M 185.9,44.9 L 184.8,43.8 L 185.0,43.2" style="fill:none;stroke:#000000;stroke-width:2.0px;stroke-linecap:butt;stroke-linejoin:miter;stroke-opacity:1;"/>
<path d="M 198.5,144.8 L 198.9,146.2 L 199.5,146.4" style="fill:none;stroke:#000000;stroke-width:2.0px;stroke-linecap:butt;stroke-linejoin:miter;stroke-opacity:1;"/>
<path d="M 112.4,109.1 L 110.9,109.5 L 109.9,108.4" style="fill:none;stroke:#000000;stroke-width:2.0px;stroke-linecap:butt;stroke-linejoin:miter;stroke-opacity:1;"/>
<path d="M 68.8,107.7 L 67.7,108.7 L 67.9,109.3" style="fill:none;stroke:#000000;stroke-width:2.0px;stroke-linecap:butt;stroke-linejoin:miter;stroke-opacity:1;"/>
<path class="atom-9" d="M 252.9 80.3 Q 252.9 78.2, 254.0 77.1 Q 255.0 75.9, 256.9 75.9 Q 258.8 75.9, 259.9 77.1 Q 260.9 78.2, 260.9 80.3 Q 260.9 82.4, 259.9 83.6 Q 258.8 84.8, 256.9 84.8 Q 255.0 84.8, 254.0 83.6 Q 252.9 82.4, 252.9 80.3 M 256.9 83.8 Q 258.2 83.8, 258.9 82.9 Q 259.7 82.0, 259.7 80.3 Q 259.7 78.6, 258.9 77.7 Q 258.2 76.9, 256.9 76.9 Q 255.6 76.9, 254.9 77.7 Q 254.2 78.6, 254.2 80.3 Q 254.2 82.1, 254.9 82.9 Q 255.6 83.8, 256.9 83.8 " fill="#FF0000"/>
<path class="atom-9" d="M 262.2 76.0 L 263.4 76.0 L 263.4 79.7 L 267.8 79.7 L 267.8 76.0 L 269.0 76.0 L 269.0 84.7 L 267.8 84.7 L 267.8 80.7 L 263.4 80.7 L 263.4 84.7 L 262.2 84.7 L 262.2 76.0 " fill="#FF0000"/>
<path class="atom-11" d="M 151.2 51.2 Q 151.2 49.1, 152.2 47.9 Q 153.2 46.8, 155.1 46.8 Q 157.1 46.8, 158.1 47.9 Q 159.1 49.1, 159.1 51.2 Q 159.1 53.3, 158.1 54.5 Q 157.0 55.7, 155.1 55.7 Q 153.2 55.7, 152.2 54.5 Q 151.2 53.3, 151.2 51.2 M 155.1 54.7 Q 156.5 54.7, 157.2 53.8 Q 157.9 52.9, 157.9 51.2 Q 157.9 49.5, 157.2 48.6 Q 156.5 47.8, 155.1 47.8 Q 153.8 47.8, 153.1 48.6 Q 152.4 49.5, 152.4 51.2 Q 152.4 52.9, 153.1 53.8 Q 153.8 54.7, 155.1 54.7 " fill="#FF0000"/>
<path class="atom-12" d="M 189.2 14.4 Q 189.2 12.3, 190.3 11.2 Q 191.3 10.0, 193.2 10.0 Q 195.1 10.0, 196.1 11.2 Q 197.2 12.3, 197.2 14.4 Q 197.2 16.5, 196.1 17.7 Q 195.1 18.9, 193.2 18.9 Q 191.3 18.9, 190.3 17.7 Q 189.2 16.5, 189.2 14.4 M 193.2 17.9 Q 194.5 17.9, 195.2 17.0 Q 195.9 16.1, 195.9 14.4 Q 195.9 12.7, 195.2 11.8 Q 194.5 11.0, 193.2 11.0 Q 191.9 11.0, 191.2 11.8 Q 190.4 12.7, 190.4 14.4 Q 190.4 16.1, 191.2 17.0 Q 191.9 17.9, 193.2 17.9 " fill="#FF0000"/>
<path class="atom-12" d="M 198.5 10.1 L 199.7 10.1 L 199.7 13.8 L 204.1 13.8 L 204.1 10.1 L 205.3 10.1 L 205.3 18.8 L 204.1 18.8 L 204.1 14.8 L 199.7 14.8 L 199.7 18.8 L 198.5 18.8 L 198.5 10.1 " fill="#FF0000"/>
<path class="atom-14" d="M 172.9 167.5 Q 172.9 165.4, 174.0 164.3 Q 175.0 163.1, 176.9 163.1 Q 178.8 163.1, 179.9 164.3 Q 180.9 165.4, 180.9 167.5 Q 180.9 169.6, 179.9 170.8 Q 178.8 172.0, 176.9 172.0 Q 175.0 172.0, 174.0 170.8 Q 172.9 169.6, 172.9 167.5 M 176.9 171.0 Q 178.2 171.0, 178.9 170.1 Q 179.7 169.2, 179.7 167.5 Q 179.7 165.8, 178.9 165.0 Q 178.2 164.1, 176.9 164.1 Q 175.6 164.1, 174.9 164.9 Q 174.2 165.8, 174.2 167.5 Q 174.2 169.3, 174.9 170.1 Q 175.6 171.0, 176.9 171.0 " fill="#FF0000"/>
<path class="atom-15" d="M 224.3 154.7 Q 224.3 152.6, 225.3 151.4 Q 226.3 150.3, 228.3 150.3 Q 230.2 150.3, 231.2 151.4 Q 232.2 152.6, 232.2 154.7 Q 232.2 156.8, 231.2 158.0 Q 230.2 159.2, 228.3 159.2 Q 226.4 159.2, 225.3 158.0 Q 224.3 156.8, 224.3 154.7 M 228.3 158.2 Q 229.6 158.2, 230.3 157.3 Q 231.0 156.4, 231.0 154.7 Q 231.0 153.0, 230.3 152.1 Q 229.6 151.3, 228.3 151.3 Q 226.9 151.3, 226.2 152.1 Q 225.5 153.0, 225.5 154.7 Q 225.5 156.4, 226.2 157.3 Q 226.9 158.2, 228.3 158.2 " fill="#FF0000"/>
<path class="atom-15" d="M 233.6 150.4 L 234.8 150.4 L 234.8 154.1 L 239.2 154.1 L 239.2 150.4 L 240.4 150.4 L 240.4 159.0 L 239.2 159.0 L 239.2 155.0 L 234.8 155.0 L 234.8 159.0 L 233.6 159.0 L 233.6 150.4 " fill="#FF0000"/>
<path class="atom-20" d="M 34.4 100.4 Q 34.4 98.3, 35.4 97.1 Q 36.4 96.0, 38.4 96.0 Q 40.3 96.0, 41.3 97.1 Q 42.3 98.3, 42.3 100.4 Q 42.3 102.5, 41.3 103.7 Q 40.3 104.8, 38.4 104.8 Q 36.5 104.8, 35.4 103.7 Q 34.4 102.5, 34.4 100.4 M 38.4 103.9 Q 39.7 103.9, 40.4 103.0 Q 41.1 102.1, 41.1 100.4 Q 41.1 98.7, 40.4 97.8 Q 39.7 96.9, 38.4 96.9 Q 37.0 96.9, 36.3 97.8 Q 35.6 98.6, 35.6 100.4 Q 35.6 102.1, 36.3 103.0 Q 37.0 103.9, 38.4 103.9 " fill="#FF0000"/>
<path class="atom-21" d="M 71.2 138.4 Q 71.2 136.3, 72.2 135.2 Q 73.2 134.0, 75.2 134.0 Q 77.1 134.0, 78.1 135.2 Q 79.1 136.3, 79.1 138.4 Q 79.1 140.5, 78.1 141.7 Q 77.0 142.9, 75.2 142.9 Q 73.2 142.9, 72.2 141.7 Q 71.2 140.5, 71.2 138.4 M 75.2 141.9 Q 76.5 141.9, 77.2 141.0 Q 77.9 140.1, 77.9 138.4 Q 77.9 136.7, 77.2 135.8 Q 76.5 135.0, 75.2 135.0 Q 73.8 135.0, 73.1 135.8 Q 72.4 136.7, 72.4 138.4 Q 72.4 140.1, 73.1 141.0 Q 73.8 141.9, 75.2 141.9 " fill="#FF0000"/>
<path class="atom-21" d="M 80.5 134.1 L 81.6 134.1 L 81.6 137.8 L 86.1 137.8 L 86.1 134.1 L 87.2 134.1 L 87.2 142.8 L 86.1 142.8 L 86.1 138.8 L 81.6 138.8 L 81.6 142.8 L 80.5 142.8 L 80.5 134.1 " fill="#FF0000"/>
<path class="atom-24" d="M 100.3 36.6 Q 100.3 34.6, 101.3 33.4 Q 102.3 32.2, 104.3 32.2 Q 106.2 32.2, 107.2 33.4 Q 108.2 34.6, 108.2 36.6 Q 108.2 38.7, 107.2 39.9 Q 106.2 41.1, 104.3 41.1 Q 102.4 41.1, 101.3 39.9 Q 100.3 38.7, 100.3 36.6 M 104.3 40.1 Q 105.6 40.1, 106.3 39.3 Q 107.0 38.4, 107.0 36.6 Q 107.0 34.9, 106.3 34.1 Q 105.6 33.2, 104.3 33.2 Q 102.9 33.2, 102.2 34.1 Q 101.5 34.9, 101.5 36.6 Q 101.5 38.4, 102.2 39.3 Q 102.9 40.1, 104.3 40.1 " fill="#FF0000"/>
<path class="atom-24" d="M 109.6 32.3 L 110.8 32.3 L 110.8 36.0 L 115.2 36.0 L 115.2 32.3 L 116.4 32.3 L 116.4 41.0 L 115.2 41.0 L 115.2 37.0 L 110.8 37.0 L 110.8 41.0 L 109.6 41.0 L 109.6 32.3 " fill="#FF0000"/>
<path class="legend" d="M 142.7 181.9 Q 142.7 179.6, 143.4 177.7 Q 144.0 175.8, 145.3 173.8 L 146.2 174.4 Q 145.2 176.3, 144.6 178.0 Q 144.1 179.7, 144.1 181.9 Q 144.1 184.0, 144.6 185.8 Q 145.2 187.5, 146.2 189.4 L 145.3 190.0 Q 144.0 188.0, 143.4 186.1 Q 142.7 184.2, 142.7 181.9 " fill="#000000"/>
<path class="legend" d="M 147.1 177.3 Q 147.6 176.2, 148.5 175.6 Q 149.5 175.0, 150.9 175.0 Q 152.6 175.0, 153.6 175.9 Q 154.5 176.8, 154.5 178.5 Q 154.5 180.2, 153.3 181.7 Q 152.1 183.3, 149.5 185.2 L 154.7 185.2 L 154.7 186.4 L 147.1 186.4 L 147.1 185.4 Q 149.2 183.9, 150.5 182.8 Q 151.7 181.6, 152.3 180.6 Q 152.9 179.6, 152.9 178.6 Q 152.9 177.5, 152.4 176.9 Q 151.9 176.3, 150.9 176.3 Q 150.0 176.3, 149.4 176.6 Q 148.8 177.0, 148.4 177.8 L 147.1 177.3 " fill="#000000"/>
<path class="legend" d="M 159.7 181.9 Q 159.7 184.2, 159.0 186.1 Q 158.4 188.0, 157.1 190.0 L 156.2 189.4 Q 157.2 187.5, 157.7 185.8 Q 158.3 184.0, 158.3 181.9 Q 158.3 179.7, 157.7 178.0 Q 157.2 176.3, 156.2 174.4 L 157.1 173.8 Q 158.4 175.8, 159.0 177.7 Q 159.7 179.6, 159.7 181.9 " fill="#000000"/>
</g>
    <g transform="translate(304.0, 0) scale(1 1) "><line x1="5" y1="100" x2="35" y2="100" style="stroke:rgb(0,0,0);stroke-width:2"/>
  <line x1="34" y1="100" x2="29" y2="95" style="stroke:rgb(0,0,0);stroke-width:2"/>
  <line x1="34" y1="100" x2="29" y2="105" style="stroke:rgb(0,0,0);stroke-width:2"/>
</g>
    <g transform="translate(344.0, 0) scale(1 1) "><!-- END OF HEADER -->
<rect style="opacity:1.0;fill:#FFFFFF;stroke:none" width="347.0" height="200.0" x="0.0" y="0.0"> </rect>
<path class="bond-0 atom-0 atom-1" d="M 137.6,90.4 L 128.0,113.1" style="fill:none;fill-rule:evenodd;stroke:#000000;stroke-width:2.0px;stroke-linecap:butt;stroke-linejoin:miter;stroke-opacity:1"/>
<path class="bond-1 atom-1 atom-2" d="M 128.0,113.1 L 97.6,113.1" style="fill:none;fill-rule:evenodd;stroke:#000000;stroke-width:2.0px;stroke-linecap:butt;stroke-linejoin:miter;stroke-opacity:1"/>
<path class="bond-2 atom-2 atom-3" d="M 97.6,113.1 L 82.4,86.8" style="fill:none;fill-rule:evenodd;stroke:#000000;stroke-width:2.0px;stroke-linecap:butt;stroke-linejoin:miter;stroke-opacity:1"/>
<path class="bond-3 atom-3 atom-4" d="M 82.4,86.8 L 67.2,60.5" style="fill:none;fill-rule:evenodd;stroke:#000000;stroke-width:2.0px;stroke-linecap:butt;stroke-linejoin:miter;stroke-opacity:1"/>
<path class="bond-4 atom-3 atom-5" d="M 82.4,86.8 L 108.7,71.6" style="fill:none;fill-rule:evenodd;stroke:#000000;stroke-width:2.0px;stroke-linecap:butt;stroke-linejoin:miter;stroke-opacity:1"/>
<path class="bond-5 atom-5 atom-6" d="M 108.7,71.6 L 108.7,41.2" style="fill:none;fill-rule:evenodd;stroke:#000000;stroke-width:2.0px;stroke-linecap:butt;stroke-linejoin:miter;stroke-opacity:1"/>
<path class="bond-6 atom-6 atom-7" d="M 108.7,41.2 L 108.7,10.8" style="fill:none;fill-rule:evenodd;stroke:#000000;stroke-width:2.0px;stroke-linecap:butt;stroke-linejoin:miter;stroke-opacity:1"/>
<path class="bond-7 atom-6 atom-8" d="M 108.7,41.2 L 78.3,41.2" style="fill:none;fill-rule:evenodd;stroke:#000000;stroke-width:2.0px;stroke-linecap:butt;stroke-linejoin:miter;stroke-opacity:1"/>
<path class="bond-8 atom-8 atom-9" d="M 78.3,41.2 L 72.3,30.8" style="fill:none;fill-rule:evenodd;stroke:#000000;stroke-width:2.0px;stroke-linecap:butt;stroke-linejoin:miter;stroke-opacity:1"/>
<path class="bond-8 atom-8 atom-9" d="M 72.3,30.8 L 66.3,20.4" style="fill:none;fill-rule:evenodd;stroke:#FF0000;stroke-width:2.0px;stroke-linecap:butt;stroke-linejoin:miter;stroke-opacity:1"/>
<path class="bond-9 atom-6 atom-10" d="M 108.7,41.2 L 139.1,41.2" style="fill:none;fill-rule:evenodd;stroke:#000000;stroke-width:2.0px;stroke-linecap:butt;stroke-linejoin:miter;stroke-opacity:1"/>
<path class="bond-10 atom-10 atom-11" d="M 136.5,41.2 L 142.9,52.3" style="fill:none;fill-rule:evenodd;stroke:#000000;stroke-width:2.0px;stroke-linecap:butt;stroke-linejoin:miter;stroke-opacity:1"/>
<path class="bond-10 atom-10 atom-11" d="M 142.9,52.3 L 149.3,63.3" style="fill:none;fill-rule:evenodd;stroke:#FF0000;stroke-width:2.0px;stroke-linecap:butt;stroke-linejoin:miter;stroke-opacity:1"/>
<path class="bond-10 atom-10 atom-11" d="M 140.4,39.0 L 146.8,50.0" style="fill:none;fill-rule:evenodd;stroke:#000000;stroke-width:2.0px;stroke-linecap:butt;stroke-linejoin:miter;stroke-opacity:1"/>
<path class="bond-10 atom-10 atom-11" d="M 146.8,50.0 L 153.2,61.1" style="fill:none;fill-rule:evenodd;stroke:#FF0000;stroke-width:2.0px;stroke-linecap:butt;stroke-linejoin:miter;stroke-opacity:1"/>
<path class="bond-11 atom-10 atom-12" d="M 139.1,41.2 L 145.1,30.8" style="fill:none;fill-rule:evenodd;stroke:#000000;stroke-width:2.0px;stroke-linecap:butt;stroke-linejoin:miter;stroke-opacity:1"/>
<path class="bond-11 atom-10 atom-12" d="M 145.1,30.8 L 151.1,20.4" style="fill:none;fill-rule:evenodd;stroke:#FF0000;stroke-width:2.0px;stroke-linecap:butt;stroke-linejoin:miter;stroke-opacity:1"/>
<path class="bond-12 atom-3 atom-13" d="M 82.4,86.8 L 56.1,102.0" style="fill:none;fill-rule:evenodd;stroke:#000000;stroke-width:2.0px;stroke-linecap:butt;stroke-linejoin:miter;stroke-opacity:1"/>
<path class="bond-13 atom-13 atom-14" d="M 53.9,100.7 L 53.9,113.8" style="fill:none;fill-rule:evenodd;stroke:#000000;stroke-width:2.0px;stroke-linecap:butt;stroke-linejoin:miter;stroke-opacity:1"/>
<path class="bond-13 atom-13 atom-14" d="M 53.9,113.8 L 53.9,127.0" style="fill:none;fill-rule:evenodd;stroke:#FF0000;stroke-width:2.0px;stroke-linecap:butt;stroke-linejoin:miter;stroke-opacity:1"/>
<path class="bond-13 atom-13 atom-14" d="M 58.3,100.7 L 58.3,113.8" style="fill:none;fill-rule:evenodd;stroke:#000000;stroke-width:2.0px;stroke-linecap:butt;stroke-linejoin:miter;stroke-opacity:1"/>
<path class="bond-13 atom-13 atom-14" d="M 58.3,113.8 L 58.3,127.0" style="fill:none;fill-rule:evenodd;stroke:#FF0000;stroke-width:2.0px;stroke-linecap:butt;stroke-linejoin:miter;stroke-opacity:1"/>
<path class="bond-14 atom-13 atom-15" d="M 56.1,102.0 L 45.4,95.8" style="fill:none;fill-rule:evenodd;stroke:#000000;stroke-width:2.0px;stroke-linecap:butt;stroke-linejoin:miter;stroke-opacity:1"/>
<path class="bond-14 atom-13 atom-15" d="M 45.4,95.8 L 34.7,89.6" style="fill:none;fill-rule:evenodd;stroke:#FF0000;stroke-width:2.0px;stroke-linecap:butt;stroke-linejoin:miter;stroke-opacity:1"/>
<path class="bond-15 atom-1 atom-16" d="M 128.0,113.1 L 143.2,139.4" style="fill:none;fill-rule:evenodd;stroke:#000000;stroke-width:2.0px;stroke-linecap:butt;stroke-linejoin:miter;stroke-opacity:1"/>
<path class="bond-16 atom-16 atom-17" d="M 143.2,139.4 L 173.6,139.4" style="fill:none;fill-rule:evenodd;stroke:#000000;stroke-width:2.0px;stroke-linecap:butt;stroke-linejoin:miter;stroke-opacity:1"/>
<path class="bond-17 atom-17 atom-18" d="M 173.6,139.4 L 203.9,139.4" style="fill:none;fill-rule:evenodd;stroke:#000000;stroke-width:2.0px;stroke-linecap:butt;stroke-linejoin:miter;stroke-opacity:1"/>
<path class="bond-18 atom-18 atom-19" d="M 203.9,139.4 L 219.1,113.1" style="fill:none;fill-rule:evenodd;stroke:#000000;stroke-width:2.0px;stroke-linecap:butt;stroke-linejoin:miter;stroke-opacity:1"/>
<path class="bond-19 atom-19 atom-20" d="M 219.1,113.1 L 209.5,90.4" style="fill:none;fill-rule:evenodd;stroke:#000000;stroke-width:2.0px;stroke-linecap:butt;stroke-linejoin:miter;stroke-opacity:1"/>
<path class="bond-20 atom-19 atom-21" d="M 219.1,113.1 L 249.5,113.1" style="fill:none;fill-rule:evenodd;stroke:#000000;stroke-width:2.0px;stroke-linecap:butt;stroke-linejoin:miter;stroke-opacity:1"/>
<path class="bond-21 atom-21 atom-22" d="M 249.5,113.1 L 264.7,86.8" style="fill:none;fill-rule:evenodd;stroke:#000000;stroke-width:2.0px;stroke-linecap:butt;stroke-linejoin:miter;stroke-opacity:1"/>
<path class="bond-22 atom-22 atom-23" d="M 264.7,86.8 L 279.9,60.5" style="fill:none;fill-rule:evenodd;stroke:#000000;stroke-width:2.0px;stroke-linecap:butt;stroke-linejoin:miter;stroke-opacity:1"/>
<path class="bond-23 atom-22 atom-24" d="M 264.7,86.8 L 238.4,71.6" style="fill:none;fill-rule:evenodd;stroke:#000000;stroke-width:2.0px;stroke-linecap:butt;stroke-linejoin:miter;stroke-opacity:1"/>
<path class="bond-24 atom-24 atom-25" d="M 238.4,71.6 L 238.4,41.2" style="fill:none;fill-rule:evenodd;stroke:#000000;stroke-width:2.0px;stroke-linecap:butt;stroke-linejoin:miter;stroke-opacity:1"/>
<path class="bond-25 atom-25 atom-26" d="M 238.4,41.2 L 238.4,10.8" style="fill:none;fill-rule:evenodd;stroke:#000000;stroke-width:2.0px;stroke-linecap:butt;stroke-linejoin:miter;stroke-opacity:1"/>
<path class="bond-26 atom-25 atom-27" d="M 238.4,41.2 L 268.8,41.2" style="fill:none;fill-rule:evenodd;stroke:#000000;stroke-width:2.0px;stroke-linecap:butt;stroke-linejoin:miter;stroke-opacity:1"/>
<path class="bond-27 atom-27 atom-28" d="M 268.8,41.2 L 274.8,30.8" style="fill:none;fill-rule:evenodd;stroke:#000000;stroke-width:2.0px;stroke-linecap:butt;stroke-linejoin:miter;stroke-opacity:1"/>
<path class="bond-27 atom-27 atom-28" d="M 274.8,30.8 L 280.8,20.4" style="fill:none;fill-rule:evenodd;stroke:#FF0000;stroke-width:2.0px;stroke-linecap:butt;stroke-linejoin:miter;stroke-opacity:1"/>
<path class="bond-28 atom-25 atom-29" d="M 238.4,41.2 L 208.0,41.2" style="fill:none;fill-rule:evenodd;stroke:#000000;stroke-width:2.0px;stroke-linecap:butt;stroke-linejoin:miter;stroke-opacity:1"/>
<path class="bond-29 atom-29 atom-30" d="M 206.7,39.0 L 200.3,50.0" style="fill:none;fill-rule:evenodd;stroke:#000000;stroke-width:2.0px;stroke-linecap:butt;stroke-linejoin:miter;stroke-opacity:1"/>
<path class="bond-29 atom-29 atom-30" d="M 200.3,50.0 L 194.0,61.1" style="fill:none;fill-rule:evenodd;stroke:#FF0000;stroke-width:2.0px;stroke-linecap:butt;stroke-linejoin:miter;stroke-opacity:1"/>
<path class="bond-29 atom-29 atom-30" d="M 210.6,41.2 L 204.2,52.3" style="fill:none;fill-rule:evenodd;stroke:#000000;stroke-width:2.0px;stroke-linecap:butt;stroke-linejoin:miter;stroke-opacity:1"/>
<path class="bond-29 atom-29 atom-30" d="M 204.2,52.3 L 197.8,63.3" style="fill:none;fill-rule:evenodd;stroke:#FF0000;stroke-width:2.0px;stroke-linecap:butt;stroke-linejoin:miter;stroke-opacity:1"/>
<path class="bond-30 atom-29 atom-31" d="M 208.0,41.2 L 202.0,30.8" style="fill:none;fill-rule:evenodd;stroke:#000000;stroke-width:2.0px;stroke-linecap:butt;stroke-linejoin:miter;stroke-opacity:1"/>
<path class="bond-30 atom-29 atom-31" d="M 202.0,30.8 L 196.0,20.4" style="fill:none;fill-rule:evenodd;stroke:#FF0000;stroke-width:2.0px;stroke-linecap:butt;stroke-linejoin:miter;stroke-opacity:1"/>
<path class="bond-31 atom-22 atom-32" d="M 264.7,86.8 L 291.0,102.0" style="fill:none;fill-rule:evenodd;stroke:#000000;stroke-width:2.0px;stroke-linecap:butt;stroke-linejoin:miter;stroke-opacity:1"/>
<path class="bond-32 atom-32 atom-33" d="M 288.8,100.7 L 288.8,113.8" style="fill:none;fill-rule:evenodd;stroke:#000000;stroke-width:2.0px;stroke-linecap:butt;stroke-linejoin:miter;stroke-opacity:1"/>
<path class="bond-32 atom-32 atom-33" d="M 288.8,113.8 L 288.8,127.0" style="fill:none;fill-rule:evenodd;stroke:#FF0000;stroke-width:2.0px;stroke-linecap:butt;stroke-linejoin:miter;stroke-opacity:1"/>
<path class="bond-32 atom-32 atom-33" d="M 293.3,100.7 L 293.3,113.8" style="fill:none;fill-rule:evenodd;stroke:#000000;stroke-width:2.0px;stroke-linecap:butt;stroke-linejoin:miter;stroke-opacity:1"/>
<path class="bond-32 atom-32 atom-33" d="M 293.3,113.8 L 293.3,127.0" style="fill:none;fill-rule:evenodd;stroke:#FF0000;stroke-width:2.0px;stroke-linecap:butt;stroke-linejoin:miter;stroke-opacity:1"/>
<path class="bond-33 atom-32 atom-34" d="M 291.0,102.0 L 301.7,95.8" style="fill:none;fill-rule:evenodd;stroke:#000000;stroke-width:2.0px;stroke-linecap:butt;stroke-linejoin:miter;stroke-opacity:1"/>
<path class="bond-33 atom-32 atom-34" d="M 301.7,95.8 L 312.4,89.6" style="fill:none;fill-rule:evenodd;stroke:#FF0000;stroke-width:2.0px;stroke-linecap:butt;stroke-linejoin:miter;stroke-opacity:1"/>
<path class="bond-34 atom-17 atom-35" d="M 173.6,139.4 L 173.6,169.8" style="fill:none;fill-rule:evenodd;stroke:#000000;stroke-width:2.0px;stroke-linecap:butt;stroke-linejoin:miter;stroke-opacity:1"/>
<path class="bond-35 atom-35 atom-36" d="M 173.6,167.2 L 162.3,173.7" style="fill:none;fill-rule:evenodd;stroke:#000000;stroke-width:2.0px;stroke-linecap:butt;stroke-linejoin:miter;stroke-opacity:1"/>
<path class="bond-35 atom-35 atom-36" d="M 162.3,173.7 L 151.1,180.2" style="fill:none;fill-rule:evenodd;stroke:#FF0000;stroke-width:2.0px;stroke-linecap:butt;stroke-linejoin:miter;stroke-opacity:1"/>
<path class="bond-35 atom-35 atom-36" d="M 175.8,171.1 L 164.6,177.6" style="fill:none;fill-rule:evenodd;stroke:#000000;stroke-width:2.0px;stroke-linecap:butt;stroke-linejoin:miter;stroke-opacity:1"/>
<path class="bond-35 atom-35 atom-36" d="M 164.6,177.6 L 153.3,184.1" style="fill:none;fill-rule:evenodd;stroke:#FF0000;stroke-width:2.0px;stroke-linecap:butt;stroke-linejoin:miter;stroke-opacity:1"/>
<path class="bond-36 atom-35 atom-37" d="M 173.6,169.8 L 184.3,176.0" style="fill:none;fill-rule:evenodd;stroke:#000000;stroke-width:2.0px;stroke-linecap:butt;stroke-linejoin:miter;stroke-opacity:1"/>
<path class="bond-36 atom-35 atom-37" d="M 184.3,176.0 L 194.9,182.1" style="fill:none;fill-rule:evenodd;stroke:#FF0000;stroke-width:2.0px;stroke-linecap:butt;stroke-linejoin:miter;stroke-opacity:1"/>
<path class="bond-37 atom-17 atom-38" d="M 173.6,139.4 L 173.6,109.0" style="fill:none;fill-rule:evenodd;stroke:#000000;stroke-width:2.0px;stroke-linecap:butt;stroke-linejoin:miter;stroke-opacity:1"/>
<path class="bond-38 atom-38 atom-39" d="M 173.6,109.0 L 153.9,94.2" style="fill:none;fill-rule:evenodd;stroke:#000000;stroke-width:2.0px;stroke-linecap:butt;stroke-linejoin:miter;stroke-opacity:1"/>
<path class="bond-39 atom-38 atom-40" d="M 173.6,109.0 L 180.9,103.5" style="fill:none;fill-rule:evenodd;stroke:#000000;stroke-width:2.0px;stroke-linecap:butt;stroke-linejoin:miter;stroke-opacity:1"/>
<path class="bond-39 atom-38 atom-40" d="M 180.9,103.5 L 188.3,97.9" style="fill:none;fill-rule:evenodd;stroke:#FF0000;stroke-width:2.0px;stroke-linecap:butt;stroke-linejoin:miter;stroke-opacity:1"/>
<path d="M 99.1,113.1 L 97.6,113.1 L 96.8,111.8" style="fill:none;stroke:#000000;stroke-width:2.0px;stroke-linecap:butt;stroke-linejoin:miter;stroke-opacity:1;"/>
<path d="M 107.4,72.3 L 108.7,71.6 L 108.7,70.1" style="fill:none;stroke:#000000;stroke-width:2.0px;stroke-linecap:butt;stroke-linejoin:miter;stroke-opacity:1;"/>
<path d="M 79.9,41.2 L 78.3,41.2 L 78.0,40.7" style="fill:none;stroke:#000000;stroke-width:2.0px;stroke-linecap:butt;stroke-linejoin:miter;stroke-opacity:1;"/>
<path d="M 137.6,41.2 L 139.1,41.2 L 139.4,40.7" style="fill:none;stroke:#000000;stroke-width:2.0px;stroke-linecap:butt;stroke-linejoin:miter;stroke-opacity:1;"/>
<path d="M 57.4,101.2 L 56.1,102.0 L 55.6,101.7" style="fill:none;stroke:#000000;stroke-width:2.0px;stroke-linecap:butt;stroke-linejoin:miter;stroke-opacity:1;"/>
<path d="M 142.4,138.1 L 143.2,139.4 L 144.7,139.4" style="fill:none;stroke:#000000;stroke-width:2.0px;stroke-linecap:butt;stroke-linejoin:miter;stroke-opacity:1;"/>
<path d="M 202.4,139.4 L 203.9,139.4 L 204.7,138.1" style="fill:none;stroke:#000000;stroke-width:2.0px;stroke-linecap:butt;stroke-linejoin:miter;stroke-opacity:1;"/>
<path d="M 248.0,113.1 L 249.5,113.1 L 250.3,111.8" style="fill:none;stroke:#000000;stroke-width:2.0px;stroke-linecap:butt;stroke-linejoin:miter;stroke-opacity:1;"/>
<path d="M 239.7,72.3 L 238.4,71.6 L 238.4,70.1" style="fill:none;stroke:#000000;stroke-width:2.0px;stroke-linecap:butt;stroke-linejoin:miter;stroke-opacity:1;"/>
<path d="M 267.3,41.2 L 268.8,41.2 L 269.1,40.7" style="fill:none;stroke:#000000;stroke-width:2.0px;stroke-linecap:butt;stroke-linejoin:miter;stroke-opacity:1;"/>
<path d="M 209.5,41.2 L 208.0,41.2 L 207.7,40.7" style="fill:none;stroke:#000000;stroke-width:2.0px;stroke-linecap:butt;stroke-linejoin:miter;stroke-opacity:1;"/>
<path d="M 289.7,101.2 L 291.0,102.0 L 291.6,101.7" style="fill:none;stroke:#000000;stroke-width:2.0px;stroke-linecap:butt;stroke-linejoin:miter;stroke-opacity:1;"/>
<path d="M 173.6,168.3 L 173.6,169.8 L 174.1,170.1" style="fill:none;stroke:#000000;stroke-width:2.0px;stroke-linecap:butt;stroke-linejoin:miter;stroke-opacity:1;"/>
<path class="atom-9" d="M 50.7 10.6 L 51.9 10.6 L 51.9 14.3 L 56.3 14.3 L 56.3 10.6 L 57.4 10.6 L 57.4 19.2 L 56.3 19.2 L 56.3 15.3 L 51.9 15.3 L 51.9 19.2 L 50.7 19.2 L 50.7 10.6 " fill="#FF0000"/>
<path class="atom-9" d="M 59.2 14.9 Q 59.2 12.9, 60.2 11.7 Q 61.2 10.5, 63.2 10.5 Q 65.1 10.5, 66.1 11.7 Q 67.1 12.9, 67.1 14.9 Q 67.1 17.0, 66.1 18.2 Q 65.0 19.4, 63.2 19.4 Q 61.3 19.4, 60.2 18.2 Q 59.2 17.0, 59.2 14.9 M 63.2 18.4 Q 64.5 18.4, 65.2 17.5 Q 65.9 16.6, 65.9 14.9 Q 65.9 13.2, 65.2 12.4 Q 64.5 11.5, 63.2 11.5 Q 61.8 11.5, 61.1 12.4 Q 60.4 13.2, 60.4 14.9 Q 60.4 16.7, 61.1 17.5 Q 61.8 18.4, 63.2 18.4 " fill="#FF0000"/>
<path class="atom-11" d="M 150.4 67.5 Q 150.4 65.5, 151.4 64.3 Q 152.4 63.2, 154.3 63.2 Q 156.2 63.2, 157.2 64.3 Q 158.3 65.5, 158.3 67.5 Q 158.3 69.6, 157.2 70.8 Q 156.2 72.0, 154.3 72.0 Q 152.4 72.0, 151.4 70.8 Q 150.4 69.6, 150.4 67.5 M 154.3 71.0 Q 155.6 71.0, 156.3 70.2 Q 157.0 69.3, 157.0 67.5 Q 157.0 65.9, 156.3 65.0 Q 155.6 64.1, 154.3 64.1 Q 153.0 64.1, 152.3 65.0 Q 151.6 65.8, 151.6 67.5 Q 151.6 69.3, 152.3 70.2 Q 153.0 71.0, 154.3 71.0 " fill="#FF0000"/>
<path class="atom-12" d="M 150.4 14.9 Q 150.4 12.9, 151.4 11.7 Q 152.4 10.5, 154.3 10.5 Q 156.2 10.5, 157.2 11.7 Q 158.3 12.9, 158.3 14.9 Q 158.3 17.0, 157.2 18.2 Q 156.2 19.4, 154.3 19.4 Q 152.4 19.4, 151.4 18.2 Q 150.4 17.0, 150.4 14.9 M 154.3 18.4 Q 155.6 18.4, 156.3 17.5 Q 157.0 16.6, 157.0 14.9 Q 157.0 13.2, 156.3 12.4 Q 155.6 11.5, 154.3 11.5 Q 153.0 11.5, 152.3 12.4 Q 151.6 13.2, 151.6 14.9 Q 151.6 16.7, 152.3 17.5 Q 153.0 18.4, 154.3 18.4 " fill="#FF0000"/>
<path class="atom-12" d="M 159.6 10.6 L 160.8 10.6 L 160.8 14.3 L 165.2 14.3 L 165.2 10.6 L 166.3 10.6 L 166.3 19.2 L 165.2 19.2 L 165.2 15.3 L 160.8 15.3 L 160.8 19.2 L 159.6 19.2 L 159.6 10.6 " fill="#FF0000"/>
<path class="atom-14" d="M 52.2 132.4 Q 52.2 130.3, 53.2 129.2 Q 54.2 128.0, 56.1 128.0 Q 58.0 128.0, 59.0 129.2 Q 60.1 130.3, 60.1 132.4 Q 60.1 134.5, 59.0 135.7 Q 58.0 136.8, 56.1 136.8 Q 54.2 136.8, 53.2 135.7 Q 52.2 134.5, 52.2 132.4 M 56.1 135.9 Q 57.4 135.9, 58.1 135.0 Q 58.8 134.1, 58.8 132.4 Q 58.8 130.7, 58.1 129.8 Q 57.4 129.0, 56.1 129.0 Q 54.8 129.0, 54.1 129.8 Q 53.4 130.7, 53.4 132.4 Q 53.4 134.1, 54.1 135.0 Q 54.8 135.9, 56.1 135.9 " fill="#FF0000"/>
<path class="atom-15" d="M 17.4 82.5 L 18.5 82.5 L 18.5 86.2 L 22.9 86.2 L 22.9 82.5 L 24.1 82.5 L 24.1 91.1 L 22.9 91.1 L 22.9 87.2 L 18.5 87.2 L 18.5 91.1 L 17.4 91.1 L 17.4 82.5 " fill="#FF0000"/>
<path class="atom-15" d="M 25.8 86.8 Q 25.8 84.7, 26.9 83.6 Q 27.9 82.4, 29.8 82.4 Q 31.7 82.4, 32.7 83.6 Q 33.7 84.7, 33.7 86.8 Q 33.7 88.9, 32.7 90.1 Q 31.7 91.3, 29.8 91.3 Q 27.9 91.3, 26.9 90.1 Q 25.8 88.9, 25.8 86.8 M 29.8 90.3 Q 31.1 90.3, 31.8 89.4 Q 32.5 88.5, 32.5 86.8 Q 32.5 85.1, 31.8 84.3 Q 31.1 83.4, 29.8 83.4 Q 28.5 83.4, 27.8 84.2 Q 27.1 85.1, 27.1 86.8 Q 27.1 88.5, 27.8 89.4 Q 28.5 90.3, 29.8 90.3 " fill="#FF0000"/>
<path class="atom-28" d="M 280.0 14.9 Q 280.0 12.9, 281.0 11.7 Q 282.1 10.5, 284.0 10.5 Q 285.9 10.5, 286.9 11.7 Q 287.9 12.9, 287.9 14.9 Q 287.9 17.0, 286.9 18.2 Q 285.9 19.4, 284.0 19.4 Q 282.1 19.4, 281.0 18.2 Q 280.0 17.0, 280.0 14.9 M 284.0 18.4 Q 285.3 18.4, 286.0 17.5 Q 286.7 16.6, 286.7 14.9 Q 286.7 13.2, 286.0 12.4 Q 285.3 11.5, 284.0 11.5 Q 282.7 11.5, 281.9 12.4 Q 281.2 13.2, 281.2 14.9 Q 281.2 16.7, 281.9 17.5 Q 282.7 18.4, 284.0 18.4 " fill="#FF0000"/>
<path class="atom-28" d="M 289.3 10.6 L 290.4 10.6 L 290.4 14.3 L 294.8 14.3 L 294.8 10.6 L 296.0 10.6 L 296.0 19.2 L 294.8 19.2 L 294.8 15.3 L 290.4 15.3 L 290.4 19.2 L 289.3 19.2 L 289.3 10.6 " fill="#FF0000"/>
<path class="atom-30" d="M 188.9 67.5 Q 188.9 65.5, 189.9 64.3 Q 190.9 63.2, 192.8 63.2 Q 194.7 63.2, 195.8 64.3 Q 196.8 65.5, 196.8 67.5 Q 196.8 69.6, 195.7 70.8 Q 194.7 72.0, 192.8 72.0 Q 190.9 72.0, 189.9 70.8 Q 188.9 69.6, 188.9 67.5 M 192.8 71.0 Q 194.1 71.0, 194.8 70.2 Q 195.6 69.3, 195.6 67.5 Q 195.6 65.9, 194.8 65.0 Q 194.1 64.1, 192.8 64.1 Q 191.5 64.1, 190.8 65.0 Q 190.1 65.8, 190.1 67.5 Q 190.1 69.3, 190.8 70.2 Q 191.5 71.0, 192.8 71.0 " fill="#FF0000"/>
<path class="atom-31" d="M 180.4 10.6 L 181.5 10.6 L 181.5 14.3 L 185.9 14.3 L 185.9 10.6 L 187.1 10.6 L 187.1 19.2 L 185.9 19.2 L 185.9 15.3 L 181.5 15.3 L 181.5 19.2 L 180.4 19.2 L 180.4 10.6 " fill="#FF0000"/>
<path class="atom-31" d="M 188.9 14.9 Q 188.9 12.9, 189.9 11.7 Q 190.9 10.5, 192.8 10.5 Q 194.7 10.5, 195.8 11.7 Q 196.8 12.9, 196.8 14.9 Q 196.8 17.0, 195.7 18.2 Q 194.7 19.4, 192.8 19.4 Q 190.9 19.4, 189.9 18.2 Q 188.9 17.0, 188.9 14.9 M 192.8 18.4 Q 194.1 18.4, 194.8 17.5 Q 195.6 16.6, 195.6 14.9 Q 195.6 13.2, 194.8 12.4 Q 194.1 11.5, 192.8 11.5 Q 191.5 11.5, 190.8 12.4 Q 190.1 13.2, 190.1 14.9 Q 190.1 16.7, 190.8 17.5 Q 191.5 18.4, 192.8 18.4 " fill="#FF0000"/>
<path class="atom-33" d="M 287.1 132.4 Q 287.1 130.3, 288.1 129.2 Q 289.1 128.0, 291.0 128.0 Q 292.9 128.0, 293.9 129.2 Q 295.0 130.3, 295.0 132.4 Q 295.0 134.5, 293.9 135.7 Q 292.9 136.8, 291.0 136.8 Q 289.1 136.8, 288.1 135.7 Q 287.1 134.5, 287.1 132.4 M 291.0 135.9 Q 292.3 135.9, 293.0 135.0 Q 293.8 134.1, 293.8 132.4 Q 293.8 130.7, 293.0 129.8 Q 292.3 129.0, 291.0 129.0 Q 289.7 129.0, 289.0 129.8 Q 288.3 130.7, 288.3 132.4 Q 288.3 134.1, 289.0 135.0 Q 289.7 135.9, 291.0 135.9 " fill="#FF0000"/>
<path class="atom-34" d="M 313.4 86.8 Q 313.4 84.7, 314.4 83.6 Q 315.4 82.4, 317.3 82.4 Q 319.2 82.4, 320.3 83.6 Q 321.3 84.7, 321.3 86.8 Q 321.3 88.9, 320.2 90.1 Q 319.2 91.3, 317.3 91.3 Q 315.4 91.3, 314.4 90.1 Q 313.4 88.9, 313.4 86.8 M 317.3 90.3 Q 318.6 90.3, 319.3 89.4 Q 320.1 88.5, 320.1 86.8 Q 320.1 85.1, 319.3 84.3 Q 318.6 83.4, 317.3 83.4 Q 316.0 83.4, 315.3 84.2 Q 314.6 85.1, 314.6 86.8 Q 314.6 88.5, 315.3 89.4 Q 316.0 90.3, 317.3 90.3 " fill="#FF0000"/>
<path class="atom-34" d="M 322.6 82.5 L 323.8 82.5 L 323.8 86.2 L 328.2 86.2 L 328.2 82.5 L 329.4 82.5 L 329.4 91.1 L 328.2 91.1 L 328.2 87.2 L 323.8 87.2 L 323.8 91.1 L 322.6 91.1 L 322.6 82.5 " fill="#FF0000"/>
<path class="atom-36" d="M 143.3 185.0 Q 143.3 182.9, 144.3 181.8 Q 145.3 180.6, 147.3 180.6 Q 149.2 180.6, 150.2 181.8 Q 151.2 182.9, 151.2 185.0 Q 151.2 187.1, 150.2 188.3 Q 149.1 189.5, 147.3 189.5 Q 145.4 189.5, 144.3 188.3 Q 143.3 187.1, 143.3 185.0 M 147.3 188.5 Q 148.6 188.5, 149.3 187.6 Q 150.0 186.7, 150.0 185.0 Q 150.0 183.3, 149.3 182.5 Q 148.6 181.6, 147.3 181.6 Q 145.9 181.6, 145.2 182.4 Q 144.5 183.3, 144.5 185.0 Q 144.5 186.7, 145.2 187.6 Q 145.9 188.5, 147.3 188.5 " fill="#FF0000"/>
<path class="atom-37" d="M 195.9 185.0 Q 195.9 182.9, 196.9 181.8 Q 198.0 180.6, 199.9 180.6 Q 201.8 180.6, 202.8 181.8 Q 203.8 182.9, 203.8 185.0 Q 203.8 187.1, 202.8 188.3 Q 201.8 189.5, 199.9 189.5 Q 198.0 189.5, 196.9 188.3 Q 195.9 187.1, 195.9 185.0 M 199.9 188.5 Q 201.2 188.5, 201.9 187.6 Q 202.6 186.7, 202.6 185.0 Q 202.6 183.3, 201.9 182.5 Q 201.2 181.6, 199.9 181.6 Q 198.6 181.6, 197.8 182.4 Q 197.1 183.3, 197.1 185.0 Q 197.1 186.7, 197.8 187.6 Q 198.6 188.5, 199.9 188.5 " fill="#FF0000"/>
<path class="atom-37" d="M 205.2 180.7 L 206.3 180.7 L 206.3 184.4 L 210.7 184.4 L 210.7 180.7 L 211.9 180.7 L 211.9 189.3 L 210.7 189.3 L 210.7 185.3 L 206.3 185.3 L 206.3 189.3 L 205.2 189.3 L 205.2 180.7 " fill="#FF0000"/>
<path class="atom-40" d="M 189.3 94.2 Q 189.3 92.2, 190.3 91.0 Q 191.3 89.9, 193.2 89.9 Q 195.1 89.9, 196.1 91.0 Q 197.2 92.2, 197.2 94.2 Q 197.2 96.3, 196.1 97.5 Q 195.1 98.7, 193.2 98.7 Q 191.3 98.7, 190.3 97.5 Q 189.3 96.3, 189.3 94.2 M 193.2 97.7 Q 194.5 97.7, 195.2 96.8 Q 196.0 96.0, 196.0 94.2 Q 196.0 92.5, 195.2 91.7 Q 194.5 90.8, 193.2 90.8 Q 191.9 90.8, 191.2 91.7 Q 190.5 92.5, 190.5 94.2 Q 190.5 96.0, 191.2 96.8 Q 191.9 97.7, 193.2 97.7 " fill="#FF0000"/>
<path class="atom-40" d="M 198.5 90.0 L 199.7 90.0 L 199.7 93.6 L 204.1 93.6 L 204.1 90.0 L 205.2 90.0 L 205.2 98.6 L 204.1 98.6 L 204.1 94.6 L 199.7 94.6 L 199.7 98.6 L 198.5 98.6 L 198.5 90.0 " fill="#FF0000"/>
</g>
    <g transform="translate(691.0, 0) scale(1 1) "><line x1="15" y1="100" x2="25" y2="100" style="stroke:rgb(0,0,0);stroke-width:2"/>
  <line x1="20" y1="95" x2="20" y2="105" style="stroke:rgb(0,0,0);stroke-width:2"/>
</g>
    <g transform="translate(731.0, 0) scale(1 1) "><!-- END OF HEADER -->
<rect style="opacity:1.0;fill:#FFFFFF;stroke:none" width="215.0" height="200.0" x="0.0" y="0.0"> </rect>
<path class="bond-0 atom-0 atom-1" d="M 183.7,56.0 L 158.3,99.9" style="fill:none;fill-rule:evenodd;stroke:#000000;stroke-width:2.0px;stroke-linecap:butt;stroke-linejoin:miter;stroke-opacity:1"/>
<path class="bond-1 atom-1 atom-2" d="M 158.3,99.9 L 168.4,117.4" style="fill:none;fill-rule:evenodd;stroke:#000000;stroke-width:2.0px;stroke-linecap:butt;stroke-linejoin:miter;stroke-opacity:1"/>
<path class="bond-1 atom-1 atom-2" d="M 168.4,117.4 L 178.5,134.9" style="fill:none;fill-rule:evenodd;stroke:#FF0000;stroke-width:2.0px;stroke-linecap:butt;stroke-linejoin:miter;stroke-opacity:1"/>
<path class="bond-2 atom-1 atom-3" d="M 158.3,99.9 L 107.6,99.9" style="fill:none;fill-rule:evenodd;stroke:#000000;stroke-width:2.0px;stroke-linecap:butt;stroke-linejoin:miter;stroke-opacity:1"/>
<path class="bond-3 atom-3 atom-4" d="M 107.6,99.9 L 107.6,49.2" style="fill:none;fill-rule:evenodd;stroke:#000000;stroke-width:2.0px;stroke-linecap:butt;stroke-linejoin:miter;stroke-opacity:1"/>
<path class="bond-4 atom-3 atom-5" d="M 107.6,99.9 L 107.6,150.6" style="fill:none;fill-rule:evenodd;stroke:#000000;stroke-width:2.0px;stroke-linecap:butt;stroke-linejoin:miter;stroke-opacity:1"/>
<path class="bond-5 atom-3 atom-6" d="M 107.6,99.9 L 56.9,99.9" style="fill:none;fill-rule:evenodd;stroke:#000000;stroke-width:2.0px;stroke-linecap:butt;stroke-linejoin:miter;stroke-opacity:1"/>
<path class="bond-6 atom-6 atom-7" d="M 54.7,96.1 L 44.0,114.5" style="fill:none;fill-rule:evenodd;stroke:#000000;stroke-width:2.0px;stroke-linecap:butt;stroke-linejoin:miter;stroke-opacity:1"/>
<path class="bond-6 atom-6 atom-7" d="M 44.0,114.5 L 33.4,133.0" style="fill:none;fill-rule:evenodd;stroke:#FF0000;stroke-width:2.0px;stroke-linecap:butt;stroke-linejoin:miter;stroke-opacity:1"/>
<path class="bond-6 atom-6 atom-7" d="M 61.3,99.9 L 50.6,118.3" style="fill:none;fill-rule:evenodd;stroke:#000000;stroke-width:2.0px;stroke-linecap:butt;stroke-linejoin:miter;stroke-opacity:1"/>
<path class="bond-6 atom-6 atom-7" d="M 50.6,118.3 L 40.0,136.8" style="fill:none;fill-rule:evenodd;stroke:#FF0000;stroke-width:2.0px;stroke-linecap:butt;stroke-linejoin:miter;stroke-opacity:1"/>
<path class="bond-7 atom-6 atom-8" d="M 56.9,99.9 L 46.9,82.5" style="fill:none;fill-rule:evenodd;stroke:#000000;stroke-width:2.0px;stroke-linecap:butt;stroke-linejoin:miter;stroke-opacity:1"/>
<path class="bond-7 atom-6 atom-8" d="M 46.9,82.5 L 36.8,65.1" style="fill:none;fill-rule:evenodd;stroke:#FF0000;stroke-width:2.0px;stroke-linecap:butt;stroke-linejoin:miter;stroke-opacity:1"/>
<path d="M 59.4,99.9 L 56.9,99.9 L 56.4,99.0" style="fill:none;stroke:#000000;stroke-width:2.0px;stroke-linecap:butt;stroke-linejoin:miter;stroke-opacity:1;"/>
<path class="atom-2" d="M 177.1 143.9 Q 177.1 140.4, 178.8 138.5 Q 180.5 136.5, 183.7 136.5 Q 186.9 136.5, 188.6 138.5 Q 190.3 140.4, 190.3 143.9 Q 190.3 147.3, 188.6 149.3 Q 186.8 151.3, 183.7 151.3 Q 180.5 151.3, 178.8 149.3 Q 177.1 147.4, 177.1 143.9 M 183.7 149.7 Q 185.9 149.7, 187.0 148.2 Q 188.2 146.7, 188.2 143.9 Q 188.2 141.0, 187.0 139.6 Q 185.9 138.2, 183.7 138.2 Q 181.5 138.2, 180.3 139.6 Q 179.1 141.0, 179.1 143.9 Q 179.1 146.8, 180.3 148.2 Q 181.5 149.7, 183.7 149.7 " fill="#FF0000"/>
<path class="atom-2" d="M 192.5 136.7 L 194.5 136.7 L 194.5 142.8 L 201.8 142.8 L 201.8 136.7 L 203.7 136.7 L 203.7 151.1 L 201.8 151.1 L 201.8 144.4 L 194.5 144.4 L 194.5 151.1 L 192.5 151.1 L 192.5 136.7 " fill="#FF0000"/>
<path class="atom-7" d="M 24.9 143.9 Q 24.9 140.4, 26.6 138.5 Q 28.3 136.5, 31.5 136.5 Q 34.7 136.5, 36.4 138.5 Q 38.1 140.4, 38.1 143.9 Q 38.1 147.3, 36.4 149.3 Q 34.7 151.3, 31.5 151.3 Q 28.4 151.3, 26.6 149.3 Q 24.9 147.4, 24.9 143.9 M 31.5 149.7 Q 33.7 149.7, 34.9 148.2 Q 36.1 146.7, 36.1 143.9 Q 36.1 141.0, 34.9 139.6 Q 33.7 138.2, 31.5 138.2 Q 29.3 138.2, 28.1 139.6 Q 27.0 141.0, 27.0 143.9 Q 27.0 146.8, 28.1 148.2 Q 29.3 149.7, 31.5 149.7 " fill="#FF0000"/>
<path class="atom-8" d="M 10.7 48.9 L 12.7 48.9 L 12.7 55.0 L 20.0 55.0 L 20.0 48.9 L 22.0 48.9 L 22.0 63.2 L 20.0 63.2 L 20.0 56.6 L 12.7 56.6 L 12.7 63.2 L 10.7 63.2 L 10.7 48.9 " fill="#FF0000"/>
<path class="atom-8" d="M 24.9 56.0 Q 24.9 52.6, 26.6 50.6 Q 28.3 48.7, 31.5 48.7 Q 34.7 48.7, 36.4 50.6 Q 38.1 52.6, 38.1 56.0 Q 38.1 59.5, 36.4 61.5 Q 34.7 63.5, 31.5 63.5 Q 28.4 63.5, 26.6 61.5 Q 24.9 59.5, 24.9 56.0 M 31.5 61.8 Q 33.7 61.8, 34.9 60.4 Q 36.1 58.9, 36.1 56.0 Q 36.1 53.2, 34.9 51.8 Q 33.7 50.3, 31.5 50.3 Q 29.3 50.3, 28.1 51.7 Q 27.0 53.2, 27.0 56.0 Q 27.0 58.9, 28.1 60.4 Q 29.3 61.8, 31.5 61.8 " fill="#FF0000"/>
</g>
  </g>
</svg>
