<?xml version='1.0' encoding='ASCII' standalone='yes'?>
<svg xmlns="http://www.w3.org/2000/svg" xmlns:xlink="http://www.w3.org/1999/xlink" version="1.1" width="851.0px" viewBox="0 0 851.0 200.0" height="200.0px">
  <g>
    <g transform="translate(0, 0) scale(1 1) "><!-- END OF HEADER -->
<rect style="opacity:1.0;fill:#FFFFFF;stroke:none" width="265.0" height="200.0" x="0.0" y="0.0"> </rect>
<path class="bond-0 atom-0 atom-1" d="M 223.9,55.2 L 202.3,81.0" style="fill:none;fill-rule:evenodd;stroke:#000000;stroke-width:2.0px;stroke-linecap:butt;stroke-linejoin:miter;stroke-opacity:1"/>
<path class="bond-1 atom-1 atom-2" d="M 202.3,81.0 L 213.8,112.5" style="fill:none;fill-rule:evenodd;stroke:#000000;stroke-width:2.0px;stroke-linecap:butt;stroke-linejoin:miter;stroke-opacity:1"/>
<path class="bond-2 atom-2 atom-3" d="M 212.0,114.7 L 226.5,117.3" style="fill:none;fill-rule:evenodd;stroke:#000000;stroke-width:2.0px;stroke-linecap:butt;stroke-linejoin:miter;stroke-opacity:1"/>
<path class="bond-2 atom-2 atom-3" d="M 226.5,117.3 L 241.0,119.8" style="fill:none;fill-rule:evenodd;stroke:#FF0000;stroke-width:2.0px;stroke-linecap:butt;stroke-linejoin:miter;stroke-opacity:1"/>
<path class="bond-2 atom-2 atom-3" d="M 212.8,109.8 L 227.3,112.3" style="fill:none;fill-rule:evenodd;stroke:#000000;stroke-width:2.0px;stroke-linecap:butt;stroke-linejoin:miter;stroke-opacity:1"/>
<path class="bond-2 atom-2 atom-3" d="M 227.3,112.3 L 241.9,114.9" style="fill:none;fill-rule:evenodd;stroke:#FF0000;stroke-width:2.0px;stroke-linecap:butt;stroke-linejoin:miter;stroke-opacity:1"/>
<path class="bond-3 atom-2 atom-4" d="M 213.8,112.5 L 205.5,122.4" style="fill:none;fill-rule:evenodd;stroke:#000000;stroke-width:2.0px;stroke-linecap:butt;stroke-linejoin:miter;stroke-opacity:1"/>
<path class="bond-3 atom-2 atom-4" d="M 205.5,122.4 L 197.2,132.3" style="fill:none;fill-rule:evenodd;stroke:#FF0000;stroke-width:2.0px;stroke-linecap:butt;stroke-linejoin:miter;stroke-opacity:1"/>
<path class="bond-4 atom-1 atom-5" d="M 202.3,81.0 L 169.3,75.2" style="fill:none;fill-rule:evenodd;stroke:#000000;stroke-width:2.0px;stroke-linecap:butt;stroke-linejoin:miter;stroke-opacity:1"/>
<path class="bond-5 atom-5 atom-6" d="M 169.3,75.2 L 164.6,62.4" style="fill:none;fill-rule:evenodd;stroke:#000000;stroke-width:2.0px;stroke-linecap:butt;stroke-linejoin:miter;stroke-opacity:1"/>
<path class="bond-5 atom-5 atom-6" d="M 164.6,62.4 L 160.0,49.7" style="fill:none;fill-rule:evenodd;stroke:#FF0000;stroke-width:2.0px;stroke-linecap:butt;stroke-linejoin:miter;stroke-opacity:1"/>
<path class="bond-6 atom-5 atom-7" d="M 169.3,75.2 L 147.7,100.9" style="fill:none;fill-rule:evenodd;stroke:#000000;stroke-width:2.0px;stroke-linecap:butt;stroke-linejoin:miter;stroke-opacity:1"/>
<path class="bond-7 atom-7 atom-8" d="M 147.7,100.9 L 114.7,95.1" style="fill:none;fill-rule:evenodd;stroke:#000000;stroke-width:2.0px;stroke-linecap:butt;stroke-linejoin:miter;stroke-opacity:1"/>
<path class="bond-8 atom-8 atom-9" d="M 114.7,95.1 L 112.3,108.6" style="fill:none;fill-rule:evenodd;stroke:#000000;stroke-width:2.0px;stroke-linecap:butt;stroke-linejoin:miter;stroke-opacity:1"/>
<path class="bond-8 atom-8 atom-9" d="M 112.3,108.6 L 109.9,122.2" style="fill:none;fill-rule:evenodd;stroke:#FF0000;stroke-width:2.0px;stroke-linecap:butt;stroke-linejoin:miter;stroke-opacity:1"/>
<path class="bond-9 atom-8 atom-10" d="M 114.7,95.1 L 117.0,81.6" style="fill:none;fill-rule:evenodd;stroke:#000000;stroke-width:2.0px;stroke-linecap:butt;stroke-linejoin:miter;stroke-opacity:1"/>
<path class="bond-9 atom-8 atom-10" d="M 117.0,81.6 L 119.4,68.1" style="fill:none;fill-rule:evenodd;stroke:#FF0000;stroke-width:2.0px;stroke-linecap:butt;stroke-linejoin:miter;stroke-opacity:1"/>
<path class="bond-10 atom-8 atom-11" d="M 114.7,95.1 L 81.6,89.3" style="fill:none;fill-rule:evenodd;stroke:#000000;stroke-width:2.0px;stroke-linecap:butt;stroke-linejoin:miter;stroke-opacity:1"/>
<path class="bond-11 atom-11 atom-12" d="M 81.6,89.3 L 87.4,56.2" style="fill:none;fill-rule:evenodd;stroke:#000000;stroke-width:2.0px;stroke-linecap:butt;stroke-linejoin:miter;stroke-opacity:1"/>
<path class="bond-12 atom-11 atom-13" d="M 81.6,89.3 L 75.8,122.3" style="fill:none;fill-rule:evenodd;stroke:#000000;stroke-width:2.0px;stroke-linecap:butt;stroke-linejoin:miter;stroke-opacity:1"/>
<path class="bond-13 atom-11 atom-14" d="M 81.6,89.3 L 48.6,83.5" style="fill:none;fill-rule:evenodd;stroke:#000000;stroke-width:2.0px;stroke-linecap:butt;stroke-linejoin:miter;stroke-opacity:1"/>
<path class="bond-14 atom-14 atom-15" d="M 48.6,83.5 L 40.3,93.4" style="fill:none;fill-rule:evenodd;stroke:#000000;stroke-width:2.0px;stroke-linecap:butt;stroke-linejoin:miter;stroke-opacity:1"/>
<path class="bond-14 atom-14 atom-15" d="M 40.3,93.4 L 32.0,103.3" style="fill:none;fill-rule:evenodd;stroke:#FF0000;stroke-width:2.0px;stroke-linecap:butt;stroke-linejoin:miter;stroke-opacity:1"/>
<path d="M 213.3,110.9 L 213.8,112.5 L 213.4,113.0" style="fill:none;stroke:#000000;stroke-width:2.0px;stroke-linecap:butt;stroke-linejoin:miter;stroke-opacity:1;"/>
<path d="M 148.8,99.6 L 147.7,100.9 L 146.1,100.6" style="fill:none;stroke:#000000;stroke-width:2.0px;stroke-linecap:butt;stroke-linejoin:miter;stroke-opacity:1;"/>
<path d="M 50.2,83.8 L 48.6,83.5 L 48.1,84.0" style="fill:none;stroke:#000000;stroke-width:2.0px;stroke-linecap:butt;stroke-linejoin:miter;stroke-opacity:1;"/>
<path class="atom-3" d="M 242.5 118.3 Q 242.5 116.1, 243.7 114.8 Q 244.8 113.5, 246.9 113.5 Q 249.0 113.5, 250.1 114.8 Q 251.2 116.1, 251.2 118.3 Q 251.2 120.6, 250.1 122.0 Q 249.0 123.3, 246.9 123.3 Q 244.8 123.3, 243.7 122.0 Q 242.5 120.7, 242.5 118.3 M 246.9 122.2 Q 248.3 122.2, 249.1 121.2 Q 249.9 120.2, 249.9 118.3 Q 249.9 116.5, 249.1 115.5 Q 248.3 114.6, 246.9 114.6 Q 245.4 114.6, 244.6 115.5 Q 243.9 116.5, 243.9 118.3 Q 243.9 120.3, 244.6 121.2 Q 245.4 122.2, 246.9 122.2 " fill="#FF0000"/>
<path class="atom-4" d="M 178.5 133.5 L 179.8 133.5 L 179.8 137.6 L 184.7 137.6 L 184.7 133.5 L 186.0 133.5 L 186.0 143.0 L 184.7 143.0 L 184.7 138.6 L 179.8 138.6 L 179.8 143.0 L 178.5 143.0 L 178.5 133.5 " fill="#FF0000"/>
<path class="atom-4" d="M 187.9 138.2 Q 187.9 136.0, 189.0 134.7 Q 190.2 133.4, 192.3 133.4 Q 194.4 133.4, 195.5 134.7 Q 196.6 136.0, 196.6 138.2 Q 196.6 140.6, 195.5 141.9 Q 194.4 143.2, 192.3 143.2 Q 190.2 143.2, 189.0 141.9 Q 187.9 140.6, 187.9 138.2 M 192.3 142.1 Q 193.7 142.1, 194.5 141.1 Q 195.3 140.2, 195.3 138.2 Q 195.3 136.4, 194.5 135.4 Q 193.7 134.5, 192.3 134.5 Q 190.8 134.5, 190.0 135.4 Q 189.3 136.4, 189.3 138.2 Q 189.3 140.2, 190.0 141.1 Q 190.8 142.1, 192.3 142.1 " fill="#FF0000"/>
<path class="atom-6" d="M 144.0 38.9 L 145.3 38.9 L 145.3 43.0 L 150.2 43.0 L 150.2 38.9 L 151.5 38.9 L 151.5 48.4 L 150.2 48.4 L 150.2 44.0 L 145.3 44.0 L 145.3 48.4 L 144.0 48.4 L 144.0 38.9 " fill="#FF0000"/>
<path class="atom-6" d="M 153.4 43.7 Q 153.4 41.4, 154.5 40.1 Q 155.7 38.8, 157.8 38.8 Q 159.9 38.8, 161.0 40.1 Q 162.1 41.4, 162.1 43.7 Q 162.1 46.0, 161.0 47.3 Q 159.9 48.6, 157.8 48.6 Q 155.7 48.6, 154.5 47.3 Q 153.4 46.0, 153.4 43.7 M 157.8 47.5 Q 159.2 47.5, 160.0 46.5 Q 160.8 45.6, 160.8 43.7 Q 160.8 41.8, 160.0 40.9 Q 159.2 39.9, 157.8 39.9 Q 156.3 39.9, 155.5 40.8 Q 154.8 41.8, 154.8 43.7 Q 154.8 45.6, 155.5 46.5 Q 156.3 47.5, 157.8 47.5 " fill="#FF0000"/>
<path class="atom-9" d="M 104.5 128.2 Q 104.5 125.9, 105.6 124.6 Q 106.8 123.3, 108.9 123.3 Q 111.0 123.3, 112.1 124.6 Q 113.2 125.9, 113.2 128.2 Q 113.2 130.5, 112.1 131.8 Q 110.9 133.1, 108.9 133.1 Q 106.8 133.1, 105.6 131.8 Q 104.5 130.5, 104.5 128.2 M 108.9 132.0 Q 110.3 132.0, 111.1 131.0 Q 111.9 130.1, 111.9 128.2 Q 111.9 126.3, 111.1 125.4 Q 110.3 124.4, 108.9 124.4 Q 107.4 124.4, 106.6 125.3 Q 105.8 126.3, 105.8 128.2 Q 105.8 130.1, 106.6 131.0 Q 107.4 132.0, 108.9 132.0 " fill="#FF0000"/>
<path class="atom-9" d="M 114.7 123.4 L 116.0 123.4 L 116.0 127.5 L 120.8 127.5 L 120.8 123.4 L 122.1 123.4 L 122.1 132.9 L 120.8 132.9 L 120.8 128.5 L 116.0 128.5 L 116.0 132.9 L 114.7 132.9 L 114.7 123.4 " fill="#FF0000"/>
<path class="atom-10" d="M 116.1 62.0 Q 116.1 59.8, 117.2 58.5 Q 118.4 57.2, 120.5 57.2 Q 122.6 57.2, 123.7 58.5 Q 124.8 59.8, 124.8 62.0 Q 124.8 64.4, 123.7 65.7 Q 122.6 67.0, 120.5 67.0 Q 118.4 67.0, 117.2 65.7 Q 116.1 64.4, 116.1 62.0 M 120.5 65.9 Q 121.9 65.9, 122.7 64.9 Q 123.5 64.0, 123.5 62.0 Q 123.5 60.2, 122.7 59.2 Q 121.9 58.3, 120.5 58.3 Q 119.0 58.3, 118.2 59.2 Q 117.5 60.2, 117.5 62.0 Q 117.5 64.0, 118.2 64.9 Q 119.0 65.9, 120.5 65.9 " fill="#FF0000"/>
<path class="atom-10" d="M 126.3 57.3 L 127.6 57.3 L 127.6 61.4 L 132.5 61.4 L 132.5 57.3 L 133.8 57.3 L 133.8 66.8 L 132.5 66.8 L 132.5 62.4 L 127.6 62.4 L 127.6 66.8 L 126.3 66.8 L 126.3 57.3 " fill="#FF0000"/>
<path class="atom-15" d="M 13.2 104.5 L 14.5 104.5 L 14.5 108.5 L 19.4 108.5 L 19.4 104.5 L 20.7 104.5 L 20.7 114.0 L 19.4 114.0 L 19.4 109.6 L 14.5 109.6 L 14.5 114.0 L 13.2 114.0 L 13.2 104.5 " fill="#FF0000"/>
<path class="atom-15" d="M 22.6 109.2 Q 22.6 106.9, 23.8 105.7 Q 24.9 104.4, 27.0 104.4 Q 29.1 104.4, 30.2 105.7 Q 31.4 106.9, 31.4 109.2 Q 31.4 111.5, 30.2 112.8 Q 29.1 114.1, 27.0 114.1 Q 24.9 114.1, 23.8 112.8 Q 22.6 111.5, 22.6 109.2 M 27.0 113.1 Q 28.4 113.1, 29.2 112.1 Q 30.0 111.1, 30.0 109.2 Q 30.0 107.3, 29.2 106.4 Q 28.4 105.5, 27.0 105.5 Q 25.5 105.5, 24.8 106.4 Q 24.0 107.3, 24.0 109.2 Q 24.0 111.1, 24.8 112.1 Q 25.5 113.1, 27.0 113.1 " fill="#FF0000"/>
<path class="legend" d="M 123.7 181.9 Q 123.7 179.6, 124.4 177.7 Q 125.1 175.8, 126.4 173.8 L 127.3 174.4 Q 126.2 176.3, 125.7 178.0 Q 125.2 179.7, 125.2 181.9 Q 125.2 184.0, 125.7 185.8 Q 126.2 187.5, 127.3 189.4 L 126.4 190.0 Q 125.1 188.0, 124.4 186.1 Q 123.7 184.2, 123.7 181.9 " fill="#000000"/>
<path class="legend" d="M 128.2 177.3 Q 128.6 176.2, 129.6 175.6 Q 130.6 175.0, 132.0 175.0 Q 133.7 175.0, 134.6 175.9 Q 135.6 176.8, 135.6 178.5 Q 135.6 180.2, 134.3 181.7 Q 133.1 183.3, 130.6 185.2 L 135.8 185.2 L 135.8 186.4 L 128.2 186.4 L 128.2 185.4 Q 130.3 183.9, 131.5 182.8 Q 132.8 181.6, 133.4 180.6 Q 134.0 179.6, 134.0 178.6 Q 134.0 177.5, 133.4 176.9 Q 132.9 176.3, 132.0 176.3 Q 131.1 176.3, 130.4 176.6 Q 129.8 177.0, 129.4 177.8 L 128.2 177.3 " fill="#000000"/>
<path class="legend" d="M 140.8 181.9 Q 140.8 184.2, 140.1 186.1 Q 139.4 188.0, 138.1 190.0 L 137.2 189.4 Q 138.3 187.5, 138.8 185.8 Q 139.3 184.0, 139.3 181.9 Q 139.3 179.7, 138.8 178.0 Q 138.3 176.3, 137.2 174.4 L 138.1 173.8 Q 139.4 175.8, 140.1 177.7 Q 140.8 179.6, 140.8 181.9 " fill="#000000"/>
</g>
    <g transform="translate(265.0, 0) scale(1 1) "><line x1="5" y1="100" x2="35" y2="100" style="stroke:rgb(0,0,0);stroke-width:2"/>
  <line x1="34" y1="100" x2="29" y2="95" style="stroke:rgb(0,0,0);stroke-width:2"/>
  <line x1="34" y1="100" x2="29" y2="105" style="stroke:rgb(0,0,0);stroke-width:2"/>
</g>
    <g transform="translate(305.0, 0) scale(1 1) "><!-- END OF HEADER -->
<rect style="opacity:1.0;fill:#FFFFFF;stroke:none" width="205.0" height="200.0" x="0.0" y="0.0"> </rect>
<path class="bond-0 atom-0 atom-1" d="M 139.9,49.2 L 139.9,92.3" style="fill:none;fill-rule:evenodd;stroke:#000000;stroke-width:2.0px;stroke-linecap:butt;stroke-linejoin:miter;stroke-opacity:1"/>
<path class="bond-1 atom-1 atom-2" d="M 139.9,92.3 L 155.0,101.1" style="fill:none;fill-rule:evenodd;stroke:#000000;stroke-width:2.0px;stroke-linecap:butt;stroke-linejoin:miter;stroke-opacity:1"/>
<path class="bond-1 atom-1 atom-2" d="M 155.0,101.1 L 170.2,109.8" style="fill:none;fill-rule:evenodd;stroke:#FF0000;stroke-width:2.0px;stroke-linecap:butt;stroke-linejoin:miter;stroke-opacity:1"/>
<path class="bond-2 atom-1 atom-3" d="M 139.9,92.3 L 102.6,113.9" style="fill:none;fill-rule:evenodd;stroke:#000000;stroke-width:2.0px;stroke-linecap:butt;stroke-linejoin:miter;stroke-opacity:1"/>
<path class="bond-3 atom-3 atom-4" d="M 102.6,113.9 L 102.6,157.0" style="fill:none;fill-rule:evenodd;stroke:#000000;stroke-width:2.0px;stroke-linecap:butt;stroke-linejoin:miter;stroke-opacity:1"/>
<path class="bond-4 atom-3 atom-5" d="M 102.6,113.9 L 65.2,92.3" style="fill:none;fill-rule:evenodd;stroke:#000000;stroke-width:2.0px;stroke-linecap:butt;stroke-linejoin:miter;stroke-opacity:1"/>
<path class="bond-5 atom-5 atom-6" d="M 68.5,94.2 L 68.5,75.6" style="fill:none;fill-rule:evenodd;stroke:#000000;stroke-width:2.0px;stroke-linecap:butt;stroke-linejoin:miter;stroke-opacity:1"/>
<path class="bond-5 atom-5 atom-6" d="M 68.5,75.6 L 68.5,57.0" style="fill:none;fill-rule:evenodd;stroke:#FF0000;stroke-width:2.0px;stroke-linecap:butt;stroke-linejoin:miter;stroke-opacity:1"/>
<path class="bond-5 atom-5 atom-6" d="M 62.0,94.2 L 62.0,75.6" style="fill:none;fill-rule:evenodd;stroke:#000000;stroke-width:2.0px;stroke-linecap:butt;stroke-linejoin:miter;stroke-opacity:1"/>
<path class="bond-5 atom-5 atom-6" d="M 62.0,75.6 L 62.0,57.0" style="fill:none;fill-rule:evenodd;stroke:#FF0000;stroke-width:2.0px;stroke-linecap:butt;stroke-linejoin:miter;stroke-opacity:1"/>
<path class="bond-6 atom-5 atom-7" d="M 65.2,92.3 L 50.1,101.1" style="fill:none;fill-rule:evenodd;stroke:#000000;stroke-width:2.0px;stroke-linecap:butt;stroke-linejoin:miter;stroke-opacity:1"/>
<path class="bond-6 atom-5 atom-7" d="M 50.1,101.1 L 34.9,109.8" style="fill:none;fill-rule:evenodd;stroke:#FF0000;stroke-width:2.0px;stroke-linecap:butt;stroke-linejoin:miter;stroke-opacity:1"/>
<path d="M 67.1,93.4 L 65.2,92.3 L 64.5,92.7" style="fill:none;stroke:#000000;stroke-width:2.0px;stroke-linecap:butt;stroke-linejoin:miter;stroke-opacity:1;"/>
<path class="atom-2" d="M 171.6 113.9 Q 171.6 111.0, 173.0 109.3 Q 174.5 107.7, 177.2 107.7 Q 179.9 107.7, 181.4 109.3 Q 182.8 111.0, 182.8 113.9 Q 182.8 116.9, 181.3 118.5 Q 179.9 120.2, 177.2 120.2 Q 174.5 120.2, 173.0 118.5 Q 171.6 116.9, 171.6 113.9 M 177.2 118.8 Q 179.1 118.8, 180.1 117.6 Q 181.1 116.3, 181.1 113.9 Q 181.1 111.5, 180.1 110.3 Q 179.1 109.1, 177.2 109.1 Q 175.3 109.1, 174.3 110.3 Q 173.3 111.5, 173.3 113.9 Q 173.3 116.4, 174.3 117.6 Q 175.3 118.8, 177.2 118.8 " fill="#FF0000"/>
<path class="atom-2" d="M 184.7 107.8 L 186.4 107.8 L 186.4 113.0 L 192.6 113.0 L 192.6 107.8 L 194.2 107.8 L 194.2 120.0 L 192.6 120.0 L 192.6 114.4 L 186.4 114.4 L 186.4 120.0 L 184.7 120.0 L 184.7 107.8 " fill="#FF0000"/>
<path class="atom-6" d="M 59.6 49.2 Q 59.6 46.3, 61.1 44.7 Q 62.5 43.0, 65.2 43.0 Q 67.9 43.0, 69.4 44.7 Q 70.8 46.3, 70.8 49.2 Q 70.8 52.2, 69.4 53.9 Q 67.9 55.6, 65.2 55.6 Q 62.5 55.6, 61.1 53.9 Q 59.6 52.2, 59.6 49.2 M 65.2 54.2 Q 67.1 54.2, 68.1 53.0 Q 69.1 51.7, 69.1 49.2 Q 69.1 46.9, 68.1 45.6 Q 67.1 44.4, 65.2 44.4 Q 63.4 44.4, 62.3 45.6 Q 61.4 46.8, 61.4 49.2 Q 61.4 51.7, 62.3 53.0 Q 63.4 54.2, 65.2 54.2 " fill="#FF0000"/>
<path class="atom-7" d="M 10.2 107.8 L 11.9 107.8 L 11.9 113.0 L 18.1 113.0 L 18.1 107.8 L 19.8 107.8 L 19.8 120.0 L 18.1 120.0 L 18.1 114.4 L 11.9 114.4 L 11.9 120.0 L 10.2 120.0 L 10.2 107.8 " fill="#FF0000"/>
<path class="atom-7" d="M 22.3 113.9 Q 22.3 111.0, 23.8 109.3 Q 25.2 107.7, 27.9 107.7 Q 30.6 107.7, 32.1 109.3 Q 33.5 111.0, 33.5 113.9 Q 33.5 116.9, 32.0 118.5 Q 30.6 120.2, 27.9 120.2 Q 25.2 120.2, 23.8 118.5 Q 22.3 116.9, 22.3 113.9 M 27.9 118.8 Q 29.8 118.8, 30.8 117.6 Q 31.8 116.3, 31.8 113.9 Q 31.8 111.5, 30.8 110.3 Q 29.8 109.1, 27.9 109.1 Q 26.0 109.1, 25.0 110.3 Q 24.0 111.5, 24.0 113.9 Q 24.0 116.4, 25.0 117.6 Q 26.0 118.8, 27.9 118.8 " fill="#FF0000"/>
</g>
    <g transform="translate(510.0, 0) scale(1 1) "><line x1="15" y1="100" x2="25" y2="100" style="stroke:rgb(0,0,0);stroke-width:2"/>
  <line x1="20" y1="95" x2="20" y2="105" style="stroke:rgb(0,0,0);stroke-width:2"/>
</g>
    <g transform="translate(550.0, 0) scale(1 1) "><!-- END OF HEADER -->
<rect style="opacity:1.0;fill:#FFFFFF;stroke:none" width="301.0" height="200.0" x="0.0" y="0.0"> </rect>
<path class="bond-0 atom-0 atom-1" d="M 271.4,82.8 L 249.5,101.2" style="fill:none;fill-rule:evenodd;stroke:#000000;stroke-width:2.0px;stroke-linecap:butt;stroke-linejoin:miter;stroke-opacity:1"/>
<path class="bond-1 atom-1 atom-2" d="M 249.5,101.2 L 254.4,129.5" style="fill:none;fill-rule:evenodd;stroke:#000000;stroke-width:2.0px;stroke-linecap:butt;stroke-linejoin:miter;stroke-opacity:1"/>
<path class="bond-2 atom-2 atom-3" d="M 252.5,131.1 L 264.2,135.4" style="fill:none;fill-rule:evenodd;stroke:#000000;stroke-width:2.0px;stroke-linecap:butt;stroke-linejoin:miter;stroke-opacity:1"/>
<path class="bond-2 atom-2 atom-3" d="M 264.2,135.4 L 275.9,139.6" style="fill:none;fill-rule:evenodd;stroke:#FF0000;stroke-width:2.0px;stroke-linecap:butt;stroke-linejoin:miter;stroke-opacity:1"/>
<path class="bond-2 atom-2 atom-3" d="M 254.0,127.0 L 265.7,131.3" style="fill:none;fill-rule:evenodd;stroke:#000000;stroke-width:2.0px;stroke-linecap:butt;stroke-linejoin:miter;stroke-opacity:1"/>
<path class="bond-2 atom-2 atom-3" d="M 265.7,131.3 L 277.4,135.6" style="fill:none;fill-rule:evenodd;stroke:#FF0000;stroke-width:2.0px;stroke-linecap:butt;stroke-linejoin:miter;stroke-opacity:1"/>
<path class="bond-3 atom-2 atom-4" d="M 254.4,129.5 L 245.7,136.7" style="fill:none;fill-rule:evenodd;stroke:#000000;stroke-width:2.0px;stroke-linecap:butt;stroke-linejoin:miter;stroke-opacity:1"/>
<path class="bond-3 atom-2 atom-4" d="M 245.7,136.7 L 237.1,144.0" style="fill:none;fill-rule:evenodd;stroke:#FF0000;stroke-width:2.0px;stroke-linecap:butt;stroke-linejoin:miter;stroke-opacity:1"/>
<path class="bond-4 atom-1 atom-5" d="M 249.5,101.2 L 222.5,91.4" style="fill:none;fill-rule:evenodd;stroke:#000000;stroke-width:2.0px;stroke-linecap:butt;stroke-linejoin:miter;stroke-opacity:1"/>
<path class="bond-5 atom-5 atom-6" d="M 222.5,91.4 L 220.5,79.8" style="fill:none;fill-rule:evenodd;stroke:#000000;stroke-width:2.0px;stroke-linecap:butt;stroke-linejoin:miter;stroke-opacity:1"/>
<path class="bond-5 atom-5 atom-6" d="M 220.5,79.8 L 218.5,68.3" style="fill:none;fill-rule:evenodd;stroke:#FF0000;stroke-width:2.0px;stroke-linecap:butt;stroke-linejoin:miter;stroke-opacity:1"/>
<path class="bond-6 atom-5 atom-7" d="M 222.5,91.4 L 200.5,109.8" style="fill:none;fill-rule:evenodd;stroke:#000000;stroke-width:2.0px;stroke-linecap:butt;stroke-linejoin:miter;stroke-opacity:1"/>
<path class="bond-7 atom-7 atom-8" d="M 200.5,109.8 L 173.6,99.9" style="fill:none;fill-rule:evenodd;stroke:#000000;stroke-width:2.0px;stroke-linecap:butt;stroke-linejoin:miter;stroke-opacity:1"/>
<path class="bond-8 atom-8 atom-9" d="M 173.6,99.9 L 169.6,110.9" style="fill:none;fill-rule:evenodd;stroke:#000000;stroke-width:2.0px;stroke-linecap:butt;stroke-linejoin:miter;stroke-opacity:1"/>
<path class="bond-8 atom-8 atom-9" d="M 169.6,110.9 L 165.6,121.8" style="fill:none;fill-rule:evenodd;stroke:#FF0000;stroke-width:2.0px;stroke-linecap:butt;stroke-linejoin:miter;stroke-opacity:1"/>
<path class="bond-9 atom-8 atom-10" d="M 173.6,99.9 L 177.6,89.1" style="fill:none;fill-rule:evenodd;stroke:#000000;stroke-width:2.0px;stroke-linecap:butt;stroke-linejoin:miter;stroke-opacity:1"/>
<path class="bond-9 atom-8 atom-10" d="M 177.6,89.1 L 181.5,78.2" style="fill:none;fill-rule:evenodd;stroke:#FF0000;stroke-width:2.0px;stroke-linecap:butt;stroke-linejoin:miter;stroke-opacity:1"/>
<path class="bond-10 atom-8 atom-11" d="M 173.6,99.9 L 146.7,90.1" style="fill:none;fill-rule:evenodd;stroke:#000000;stroke-width:2.0px;stroke-linecap:butt;stroke-linejoin:miter;stroke-opacity:1"/>
<path class="bond-11 atom-11 atom-12" d="M 146.7,90.1 L 156.5,63.2" style="fill:none;fill-rule:evenodd;stroke:#000000;stroke-width:2.0px;stroke-linecap:butt;stroke-linejoin:miter;stroke-opacity:1"/>
<path class="bond-12 atom-11 atom-13" d="M 146.7,90.1 L 136.8,117.0" style="fill:none;fill-rule:evenodd;stroke:#000000;stroke-width:2.0px;stroke-linecap:butt;stroke-linejoin:miter;stroke-opacity:1"/>
<path class="bond-13 atom-11 atom-14" d="M 146.7,90.1 L 119.7,80.2" style="fill:none;fill-rule:evenodd;stroke:#000000;stroke-width:2.0px;stroke-linecap:butt;stroke-linejoin:miter;stroke-opacity:1"/>
<path class="bond-14 atom-14 atom-15" d="M 119.7,80.2 L 117.7,68.7" style="fill:none;fill-rule:evenodd;stroke:#000000;stroke-width:2.0px;stroke-linecap:butt;stroke-linejoin:miter;stroke-opacity:1"/>
<path class="bond-14 atom-14 atom-15" d="M 117.7,68.7 L 115.7,57.2" style="fill:none;fill-rule:evenodd;stroke:#FF0000;stroke-width:2.0px;stroke-linecap:butt;stroke-linejoin:miter;stroke-opacity:1"/>
<path class="bond-15 atom-14 atom-16" d="M 119.7,80.2 L 97.7,98.6" style="fill:none;fill-rule:evenodd;stroke:#000000;stroke-width:2.0px;stroke-linecap:butt;stroke-linejoin:miter;stroke-opacity:1"/>
<path class="bond-16 atom-16 atom-17" d="M 97.7,98.6 L 104.8,107.1" style="fill:none;fill-rule:evenodd;stroke:#000000;stroke-width:2.0px;stroke-linecap:butt;stroke-linejoin:miter;stroke-opacity:1"/>
<path class="bond-16 atom-16 atom-17" d="M 104.8,107.1 L 111.9,115.6" style="fill:none;fill-rule:evenodd;stroke:#FF0000;stroke-width:2.0px;stroke-linecap:butt;stroke-linejoin:miter;stroke-opacity:1"/>
<path class="bond-17 atom-16 atom-18" d="M 97.7,98.6 L 90.7,90.2" style="fill:none;fill-rule:evenodd;stroke:#000000;stroke-width:2.0px;stroke-linecap:butt;stroke-linejoin:miter;stroke-opacity:1"/>
<path class="bond-17 atom-16 atom-18" d="M 90.7,90.2 L 83.7,81.8" style="fill:none;fill-rule:evenodd;stroke:#FF0000;stroke-width:2.0px;stroke-linecap:butt;stroke-linejoin:miter;stroke-opacity:1"/>
<path class="bond-18 atom-16 atom-19" d="M 97.7,98.6 L 75.7,117.0" style="fill:none;fill-rule:evenodd;stroke:#000000;stroke-width:2.0px;stroke-linecap:butt;stroke-linejoin:miter;stroke-opacity:1"/>
<path class="bond-19 atom-19 atom-20" d="M 75.7,117.0 L 94.1,139.0" style="fill:none;fill-rule:evenodd;stroke:#000000;stroke-width:2.0px;stroke-linecap:butt;stroke-linejoin:miter;stroke-opacity:1"/>
<path class="bond-20 atom-19 atom-21" d="M 75.7,117.0 L 57.3,95.0" style="fill:none;fill-rule:evenodd;stroke:#000000;stroke-width:2.0px;stroke-linecap:butt;stroke-linejoin:miter;stroke-opacity:1"/>
<path class="bond-21 atom-19 atom-22" d="M 75.7,117.0 L 53.7,135.4" style="fill:none;fill-rule:evenodd;stroke:#000000;stroke-width:2.0px;stroke-linecap:butt;stroke-linejoin:miter;stroke-opacity:1"/>
<path class="bond-22 atom-22 atom-23" d="M 53.7,135.4 L 42.6,131.4" style="fill:none;fill-rule:evenodd;stroke:#000000;stroke-width:2.0px;stroke-linecap:butt;stroke-linejoin:miter;stroke-opacity:1"/>
<path class="bond-22 atom-22 atom-23" d="M 42.6,131.4 L 31.5,127.3" style="fill:none;fill-rule:evenodd;stroke:#FF0000;stroke-width:2.0px;stroke-linecap:butt;stroke-linejoin:miter;stroke-opacity:1"/>
<path d="M 254.1,128.1 L 254.4,129.5 L 254.0,129.8" style="fill:none;stroke:#000000;stroke-width:2.0px;stroke-linecap:butt;stroke-linejoin:miter;stroke-opacity:1;"/>
<path d="M 201.6,108.9 L 200.5,109.8 L 199.2,109.3" style="fill:none;stroke:#000000;stroke-width:2.0px;stroke-linecap:butt;stroke-linejoin:miter;stroke-opacity:1;"/>
<path d="M 54.8,134.5 L 53.7,135.4 L 53.2,135.2" style="fill:none;stroke:#000000;stroke-width:2.0px;stroke-linecap:butt;stroke-linejoin:miter;stroke-opacity:1;"/>
<path class="atom-3" d="M 277.6 139.4 Q 277.6 137.4, 278.6 136.3 Q 279.5 135.2, 281.3 135.2 Q 283.1 135.2, 284.1 136.3 Q 285.1 137.4, 285.1 139.4 Q 285.1 141.3, 284.1 142.4 Q 283.1 143.6, 281.3 143.6 Q 279.5 143.6, 278.6 142.4 Q 277.6 141.3, 277.6 139.4 M 281.3 142.6 Q 282.6 142.6, 283.2 141.8 Q 283.9 141.0, 283.9 139.4 Q 283.9 137.8, 283.2 137.0 Q 282.6 136.1, 281.3 136.1 Q 280.1 136.1, 279.4 136.9 Q 278.7 137.7, 278.7 139.4 Q 278.7 141.0, 279.4 141.8 Q 280.1 142.6, 281.3 142.6 " fill="#FF0000"/>
<path class="atom-4" d="M 220.6 143.9 L 221.7 143.9 L 221.7 147.3 L 225.9 147.3 L 225.9 143.9 L 227.0 143.9 L 227.0 152.0 L 225.9 152.0 L 225.9 148.2 L 221.7 148.2 L 221.7 152.0 L 220.6 152.0 L 220.6 143.9 " fill="#FF0000"/>
<path class="atom-4" d="M 228.7 147.9 Q 228.7 146.0, 229.6 144.9 Q 230.6 143.8, 232.4 143.8 Q 234.2 143.8, 235.2 144.9 Q 236.1 146.0, 236.1 147.9 Q 236.1 149.9, 235.1 151.0 Q 234.2 152.1, 232.4 152.1 Q 230.6 152.1, 229.6 151.0 Q 228.7 149.9, 228.7 147.9 M 232.4 151.2 Q 233.6 151.2, 234.3 150.4 Q 235.0 149.5, 235.0 147.9 Q 235.0 146.3, 234.3 145.5 Q 233.6 144.7, 232.4 144.7 Q 231.2 144.7, 230.5 145.5 Q 229.8 146.3, 229.8 147.9 Q 229.8 149.5, 230.5 150.4 Q 231.2 151.2, 232.4 151.2 " fill="#FF0000"/>
<path class="atom-6" d="M 213.9 63.2 Q 213.9 61.2, 214.8 60.1 Q 215.8 59.0, 217.6 59.0 Q 219.4 59.0, 220.3 60.1 Q 221.3 61.2, 221.3 63.2 Q 221.3 65.1, 220.3 66.3 Q 219.4 67.4, 217.6 67.4 Q 215.8 67.4, 214.8 66.3 Q 213.9 65.1, 213.9 63.2 M 217.6 66.4 Q 218.8 66.4, 219.5 65.6 Q 220.2 64.8, 220.2 63.2 Q 220.2 61.6, 219.5 60.8 Q 218.8 59.9, 217.6 59.9 Q 216.3 59.9, 215.7 60.7 Q 215.0 61.6, 215.0 63.2 Q 215.0 64.8, 215.7 65.6 Q 216.3 66.4, 217.6 66.4 " fill="#FF0000"/>
<path class="atom-6" d="M 222.6 59.1 L 223.7 59.1 L 223.7 62.6 L 227.8 62.6 L 227.8 59.1 L 228.9 59.1 L 228.9 67.2 L 227.8 67.2 L 227.8 63.5 L 223.7 63.5 L 223.7 67.2 L 222.6 67.2 L 222.6 59.1 " fill="#FF0000"/>
<path class="atom-9" d="M 152.0 122.9 L 153.1 122.9 L 153.1 126.3 L 157.2 126.3 L 157.2 122.9 L 158.3 122.9 L 158.3 131.0 L 157.2 131.0 L 157.2 127.2 L 153.1 127.2 L 153.1 131.0 L 152.0 131.0 L 152.0 122.9 " fill="#FF0000"/>
<path class="atom-9" d="M 160.0 126.9 Q 160.0 124.9, 161.0 123.9 Q 161.9 122.8, 163.7 122.8 Q 165.5 122.8, 166.5 123.9 Q 167.5 124.9, 167.5 126.9 Q 167.5 128.9, 166.5 130.0 Q 165.5 131.1, 163.7 131.1 Q 161.9 131.1, 161.0 130.0 Q 160.0 128.9, 160.0 126.9 M 163.7 130.2 Q 165.0 130.2, 165.6 129.4 Q 166.3 128.5, 166.3 126.9 Q 166.3 125.3, 165.6 124.5 Q 165.0 123.7, 163.7 123.7 Q 162.5 123.7, 161.8 124.5 Q 161.2 125.3, 161.2 126.9 Q 161.2 128.5, 161.8 129.4 Q 162.5 130.2, 163.7 130.2 " fill="#FF0000"/>
<path class="atom-10" d="M 179.7 73.0 Q 179.7 71.1, 180.7 70.0 Q 181.6 68.9, 183.4 68.9 Q 185.2 68.9, 186.2 70.0 Q 187.2 71.1, 187.2 73.0 Q 187.2 75.0, 186.2 76.1 Q 185.2 77.2, 183.4 77.2 Q 181.6 77.2, 180.7 76.1 Q 179.7 75.0, 179.7 73.0 M 183.4 76.3 Q 184.7 76.3, 185.3 75.5 Q 186.0 74.7, 186.0 73.0 Q 186.0 71.4, 185.3 70.6 Q 184.7 69.8, 183.4 69.8 Q 182.2 69.8, 181.5 70.6 Q 180.9 71.4, 180.9 73.0 Q 180.9 74.7, 181.5 75.5 Q 182.2 76.3, 183.4 76.3 " fill="#FF0000"/>
<path class="atom-10" d="M 188.4 69.0 L 189.5 69.0 L 189.5 72.4 L 193.7 72.4 L 193.7 69.0 L 194.8 69.0 L 194.8 77.1 L 193.7 77.1 L 193.7 73.4 L 189.5 73.4 L 189.5 77.1 L 188.4 77.1 L 188.4 69.0 " fill="#FF0000"/>
<path class="atom-15" d="M 111.1 52.0 Q 111.1 50.1, 112.0 49.0 Q 113.0 47.9, 114.8 47.9 Q 116.6 47.9, 117.5 49.0 Q 118.5 50.1, 118.5 52.0 Q 118.5 54.0, 117.5 55.1 Q 116.6 56.2, 114.8 56.2 Q 113.0 56.2, 112.0 55.1 Q 111.1 54.0, 111.1 52.0 M 114.8 55.3 Q 116.0 55.3, 116.7 54.5 Q 117.4 53.6, 117.4 52.0 Q 117.4 50.4, 116.7 49.6 Q 116.0 48.8, 114.8 48.8 Q 113.5 48.8, 112.9 49.6 Q 112.2 50.4, 112.2 52.0 Q 112.2 53.7, 112.9 54.5 Q 113.5 55.3, 114.8 55.3 " fill="#FF0000"/>
<path class="atom-15" d="M 119.8 48.0 L 120.9 48.0 L 120.9 51.4 L 125.0 51.4 L 125.0 48.0 L 126.1 48.0 L 126.1 56.1 L 125.0 56.1 L 125.0 52.3 L 120.9 52.3 L 120.9 56.1 L 119.8 56.1 L 119.8 48.0 " fill="#FF0000"/>
<path class="atom-17" d="M 112.4 120.7 Q 112.4 118.7, 113.4 117.6 Q 114.3 116.5, 116.1 116.5 Q 117.9 116.5, 118.9 117.6 Q 119.9 118.7, 119.9 120.7 Q 119.9 122.6, 118.9 123.8 Q 117.9 124.9, 116.1 124.9 Q 114.3 124.9, 113.4 123.8 Q 112.4 122.6, 112.4 120.7 M 116.1 124.0 Q 117.4 124.0, 118.0 123.1 Q 118.7 122.3, 118.7 120.7 Q 118.7 119.1, 118.0 118.3 Q 117.4 117.4, 116.1 117.4 Q 114.9 117.4, 114.2 118.3 Q 113.5 119.1, 113.5 120.7 Q 113.5 122.3, 114.2 123.1 Q 114.9 124.0, 116.1 124.0 " fill="#FF0000"/>
<path class="atom-17" d="M 121.1 116.6 L 122.2 116.6 L 122.2 120.1 L 126.4 120.1 L 126.4 116.6 L 127.5 116.6 L 127.5 124.7 L 126.4 124.7 L 126.4 121.0 L 122.2 121.0 L 122.2 124.7 L 121.1 124.7 L 121.1 116.6 " fill="#FF0000"/>
<path class="atom-18" d="M 67.6 72.6 L 68.7 72.6 L 68.7 76.1 L 72.8 76.1 L 72.8 72.6 L 73.9 72.6 L 73.9 80.8 L 72.8 80.8 L 72.8 77.0 L 68.7 77.0 L 68.7 80.8 L 67.6 80.8 L 67.6 72.6 " fill="#FF0000"/>
<path class="atom-18" d="M 75.6 76.7 Q 75.6 74.7, 76.6 73.6 Q 77.5 72.5, 79.3 72.5 Q 81.1 72.5, 82.1 73.6 Q 83.1 74.7, 83.1 76.7 Q 83.1 78.6, 82.1 79.8 Q 81.1 80.9, 79.3 80.9 Q 77.5 80.9, 76.6 79.8 Q 75.6 78.7, 75.6 76.7 M 79.3 80.0 Q 80.6 80.0, 81.2 79.1 Q 81.9 78.3, 81.9 76.7 Q 81.9 75.1, 81.2 74.3 Q 80.6 73.5, 79.3 73.5 Q 78.1 73.5, 77.4 74.3 Q 76.7 75.1, 76.7 76.7 Q 76.7 78.3, 77.4 79.1 Q 78.1 80.0, 79.3 80.0 " fill="#FF0000"/>
<path class="atom-23" d="M 15.0 121.6 L 16.2 121.6 L 16.2 125.0 L 20.3 125.0 L 20.3 121.6 L 21.4 121.6 L 21.4 129.7 L 20.3 129.7 L 20.3 126.0 L 16.2 126.0 L 16.2 129.7 L 15.0 129.7 L 15.0 121.6 " fill="#FF0000"/>
<path class="atom-23" d="M 23.1 125.6 Q 23.1 123.7, 24.0 122.6 Q 25.0 121.5, 26.8 121.5 Q 28.6 121.5, 29.6 122.6 Q 30.5 123.7, 30.5 125.6 Q 30.5 127.6, 29.6 128.7 Q 28.6 129.8, 26.8 129.8 Q 25.0 129.8, 24.0 128.7 Q 23.1 127.6, 23.1 125.6 M 26.8 128.9 Q 28.0 128.9, 28.7 128.1 Q 29.4 127.2, 29.4 125.6 Q 29.4 124.0, 28.7 123.2 Q 28.0 122.4, 26.8 122.4 Q 25.6 122.4, 24.9 123.2 Q 24.2 124.0, 24.2 125.6 Q 24.2 127.3, 24.9 128.1 Q 25.6 128.9, 26.8 128.9 " fill="#FF0000"/>
</g>
  </g>
</svg>
