<?xml version='1.0' encoding='ASCII' standalone='yes'?>
<svg xmlns="http://www.w3.org/2000/svg" xmlns:xlink="http://www.w3.org/1999/xlink" version="1.1" width="799.0px" viewBox="0 0 799.0 200.0" height="200.0px">
  <g>
    <g transform="translate(0, 0) scale(1 1) "><!-- END OF HEADER -->
<rect style="opacity:1.0;fill:#FFFFFF;stroke:none" width="215.0" height="200.0" x="0.0" y="0.0"> </rect>
<path class="bond-0 atom-0 atom-1" d="M 30.3,67.4 L 54.3,111.0" style="fill:none;fill-rule:evenodd;stroke:#000000;stroke-width:2.0px;stroke-linecap:butt;stroke-linejoin:miter;stroke-opacity:1"/>
<path class="bond-1 atom-1 atom-2" d="M 54.3,111.0 L 78.3,154.6" style="fill:none;fill-rule:evenodd;stroke:#000000;stroke-width:2.0px;stroke-linecap:butt;stroke-linejoin:miter;stroke-opacity:1"/>
<path class="bond-2 atom-1 atom-3" d="M 54.3,111.0 L 10.8,135.0" style="fill:none;fill-rule:evenodd;stroke:#000000;stroke-width:2.0px;stroke-linecap:butt;stroke-linejoin:miter;stroke-opacity:1"/>
<path class="bond-3 atom-1 atom-4" d="M 54.3,111.0 L 97.9,87.0" style="fill:none;fill-rule:evenodd;stroke:#000000;stroke-width:2.0px;stroke-linecap:butt;stroke-linejoin:miter;stroke-opacity:1"/>
<path class="bond-4 atom-4 atom-5" d="M 97.9,87.0 L 98.3,66.5" style="fill:none;fill-rule:evenodd;stroke:#000000;stroke-width:2.0px;stroke-linecap:butt;stroke-linejoin:miter;stroke-opacity:1"/>
<path class="bond-4 atom-4 atom-5" d="M 98.3,66.5 L 98.7,45.9" style="fill:none;fill-rule:evenodd;stroke:#0000FF;stroke-width:2.0px;stroke-linecap:butt;stroke-linejoin:miter;stroke-opacity:1"/>
<path class="bond-5 atom-4 atom-6" d="M 97.9,87.0 L 140.5,112.7" style="fill:none;fill-rule:evenodd;stroke:#000000;stroke-width:2.0px;stroke-linecap:butt;stroke-linejoin:miter;stroke-opacity:1"/>
<path class="bond-6 atom-6 atom-7" d="M 136.8,110.5 L 136.4,132.1" style="fill:none;fill-rule:evenodd;stroke:#000000;stroke-width:2.0px;stroke-linecap:butt;stroke-linejoin:miter;stroke-opacity:1"/>
<path class="bond-6 atom-6 atom-7" d="M 136.4,132.1 L 135.9,153.6" style="fill:none;fill-rule:evenodd;stroke:#FF0000;stroke-width:2.0px;stroke-linecap:butt;stroke-linejoin:miter;stroke-opacity:1"/>
<path class="bond-6 atom-6 atom-7" d="M 144.3,110.6 L 143.8,132.2" style="fill:none;fill-rule:evenodd;stroke:#000000;stroke-width:2.0px;stroke-linecap:butt;stroke-linejoin:miter;stroke-opacity:1"/>
<path class="bond-6 atom-6 atom-7" d="M 143.8,132.2 L 143.4,153.8" style="fill:none;fill-rule:evenodd;stroke:#FF0000;stroke-width:2.0px;stroke-linecap:butt;stroke-linejoin:miter;stroke-opacity:1"/>
<path class="bond-7 atom-6 atom-8" d="M 140.5,112.7 L 158.2,103.0" style="fill:none;fill-rule:evenodd;stroke:#000000;stroke-width:2.0px;stroke-linecap:butt;stroke-linejoin:miter;stroke-opacity:1"/>
<path class="bond-7 atom-6 atom-8" d="M 158.2,103.0 L 176.0,93.2" style="fill:none;fill-rule:evenodd;stroke:#FF0000;stroke-width:2.0px;stroke-linecap:butt;stroke-linejoin:miter;stroke-opacity:1"/>
<path d="M 138.4,111.4 L 140.5,112.7 L 141.4,112.2" style="fill:none;stroke:#000000;stroke-width:2.0px;stroke-linecap:butt;stroke-linejoin:miter;stroke-opacity:1;"/>
<path class="atom-5" d="M 95.8 30.2 L 100.4 37.7 Q 100.9 38.4, 101.6 39.7 Q 102.3 41.1, 102.4 41.1 L 102.4 30.2 L 104.3 30.2 L 104.3 44.3 L 102.3 44.3 L 97.4 36.1 Q 96.8 35.2, 96.2 34.1 Q 95.6 33.0, 95.4 32.6 L 95.4 44.3 L 93.6 44.3 L 93.6 30.2 L 95.8 30.2 " fill="#0000FF"/>
<path class="atom-5" d="M 106.9 30.2 L 108.9 30.2 L 108.9 36.2 L 116.1 36.2 L 116.1 30.2 L 118.0 30.2 L 118.0 44.3 L 116.1 44.3 L 116.1 37.8 L 108.9 37.8 L 108.9 44.3 L 106.9 44.3 L 106.9 30.2 " fill="#0000FF"/>
<path class="atom-5" d="M 120.7 43.8 Q 121.1 42.9, 121.9 42.4 Q 122.7 41.9, 123.8 41.9 Q 125.2 41.9, 126.0 42.7 Q 126.8 43.4, 126.8 44.8 Q 126.8 46.2, 125.8 47.5 Q 124.8 48.8, 122.7 50.3 L 127.0 50.3 L 127.0 51.3 L 120.7 51.3 L 120.7 50.4 Q 122.4 49.2, 123.5 48.3 Q 124.5 47.4, 125.0 46.5 Q 125.5 45.7, 125.5 44.9 Q 125.5 44.0, 125.0 43.5 Q 124.6 43.0, 123.8 43.0 Q 123.1 43.0, 122.6 43.3 Q 122.1 43.6, 121.7 44.2 L 120.7 43.8 " fill="#0000FF"/>
<path class="atom-7" d="M 133.0 162.5 Q 133.0 159.1, 134.7 157.2 Q 136.4 155.3, 139.5 155.3 Q 142.6 155.3, 144.3 157.2 Q 146.0 159.1, 146.0 162.5 Q 146.0 165.9, 144.3 167.9 Q 142.6 169.8, 139.5 169.8 Q 136.4 169.8, 134.7 167.9 Q 133.0 165.9, 133.0 162.5 M 139.5 168.2 Q 141.6 168.2, 142.8 166.8 Q 144.0 165.3, 144.0 162.5 Q 144.0 159.7, 142.8 158.3 Q 141.6 156.9, 139.5 156.9 Q 137.3 156.9, 136.2 158.3 Q 135.0 159.7, 135.0 162.5 Q 135.0 165.3, 136.2 166.8 Q 137.3 168.2, 139.5 168.2 " fill="#FF0000"/>
<path class="atom-8" d="M 177.6 88.8 Q 177.6 85.4, 179.3 83.5 Q 180.9 81.6, 184.1 81.6 Q 187.2 81.6, 188.9 83.5 Q 190.5 85.4, 190.5 88.8 Q 190.5 92.2, 188.8 94.1 Q 187.1 96.1, 184.1 96.1 Q 181.0 96.1, 179.3 94.1 Q 177.6 92.2, 177.6 88.8 M 184.1 94.5 Q 186.2 94.5, 187.4 93.0 Q 188.5 91.6, 188.5 88.8 Q 188.5 86.0, 187.4 84.6 Q 186.2 83.2, 184.1 83.2 Q 181.9 83.2, 180.7 84.6 Q 179.6 86.0, 179.6 88.8 Q 179.6 91.6, 180.7 93.0 Q 181.9 94.5, 184.1 94.5 " fill="#FF0000"/>
<path class="atom-8" d="M 192.7 81.8 L 194.6 81.8 L 194.6 87.7 L 201.8 87.7 L 201.8 81.8 L 203.8 81.8 L 203.8 95.8 L 201.8 95.8 L 201.8 89.3 L 194.6 89.3 L 194.6 95.8 L 192.7 95.8 L 192.7 81.8 " fill="#FF0000"/>
</g>
    <g transform="translate(215.0, 0) scale(1 1) "><line x1="15" y1="100" x2="25" y2="100" style="stroke:rgb(0,0,0);stroke-width:2"/>
  <line x1="20" y1="95" x2="20" y2="105" style="stroke:rgb(0,0,0);stroke-width:2"/>
</g>
    <g transform="translate(255.0, 0) scale(1 1) "><!-- END OF HEADER -->
<rect style="opacity:1.0;fill:#FFFFFF;stroke:none" width="85.0" height="200.0" x="0.0" y="0.0"> </rect>
<path class="bond-0 atom-0 atom-1" d="M 21.9,95.3 L 62.6,95.3" style="fill:none;fill-rule:evenodd;stroke:#FF0000;stroke-width:2.0px;stroke-linecap:butt;stroke-linejoin:miter;stroke-opacity:1"/>
<path class="bond-0 atom-0 atom-1" d="M 21.9,104.4 L 62.6,104.4" style="fill:none;fill-rule:evenodd;stroke:#FF0000;stroke-width:2.0px;stroke-linecap:butt;stroke-linejoin:miter;stroke-opacity:1"/>
<path class="atom-0" d="M 4.3 99.9 Q 4.3 95.8, 6.3 93.5 Q 8.3 91.2, 12.1 91.2 Q 15.9 91.2, 17.9 93.5 Q 19.9 95.8, 19.9 99.9 Q 19.9 104.1, 17.9 106.4 Q 15.8 108.8, 12.1 108.8 Q 8.3 108.8, 6.3 106.4 Q 4.3 104.1, 4.3 99.9 M 12.1 106.8 Q 14.7 106.8, 16.1 105.1 Q 17.5 103.3, 17.5 99.9 Q 17.5 96.6, 16.1 94.9 Q 14.7 93.2, 12.1 93.2 Q 9.5 93.2, 8.1 94.8 Q 6.7 96.5, 6.7 99.9 Q 6.7 103.4, 8.1 105.1 Q 9.5 106.8, 12.1 106.8 " fill="#FF0000"/>
<path class="atom-1" d="M 64.6 99.9 Q 64.6 95.8, 66.6 93.5 Q 68.6 91.2, 72.4 91.2 Q 76.2 91.2, 78.2 93.5 Q 80.2 95.8, 80.2 99.9 Q 80.2 104.1, 78.2 106.4 Q 76.1 108.8, 72.4 108.8 Q 68.6 108.8, 66.6 106.4 Q 64.6 104.1, 64.6 99.9 M 72.4 106.8 Q 75.0 106.8, 76.4 105.1 Q 77.8 103.3, 77.8 99.9 Q 77.8 96.6, 76.4 94.9 Q 75.0 93.2, 72.4 93.2 Q 69.8 93.2, 68.4 94.8 Q 67.0 96.5, 67.0 99.9 Q 67.0 103.4, 68.4 105.1 Q 69.8 106.8, 72.4 106.8 " fill="#FF0000"/>
</g>
    <g transform="translate(340.0, 0) scale(1 1) "><line x1="5" y1="100" x2="35" y2="100" style="stroke:rgb(0,0,0);stroke-width:2"/>
  <line x1="34" y1="100" x2="29" y2="95" style="stroke:rgb(0,0,0);stroke-width:2"/>
  <line x1="34" y1="100" x2="29" y2="105" style="stroke:rgb(0,0,0);stroke-width:2"/>
</g>
    <g transform="translate(380.0, 0) scale(1 1) "><!-- END OF HEADER -->
<rect style="opacity:1.0;fill:#FFFFFF;stroke:none" width="194.0" height="200.0" x="0.0" y="0.0"> </rect>
<path class="bond-0 atom-0 atom-1" d="M 66.5,39.2 L 66.5,96.0" style="fill:none;fill-rule:evenodd;stroke:#000000;stroke-width:2.0px;stroke-linecap:butt;stroke-linejoin:miter;stroke-opacity:1"/>
<path class="bond-1 atom-1 atom-2" d="M 66.5,96.0 L 66.5,152.8" style="fill:none;fill-rule:evenodd;stroke:#000000;stroke-width:2.0px;stroke-linecap:butt;stroke-linejoin:miter;stroke-opacity:1"/>
<path class="bond-2 atom-1 atom-3" d="M 66.5,96.0 L 9.7,96.0" style="fill:none;fill-rule:evenodd;stroke:#000000;stroke-width:2.0px;stroke-linecap:butt;stroke-linejoin:miter;stroke-opacity:1"/>
<path class="bond-3 atom-1 atom-4" d="M 66.5,96.0 L 123.3,96.0" style="fill:none;fill-rule:evenodd;stroke:#000000;stroke-width:2.0px;stroke-linecap:butt;stroke-linejoin:miter;stroke-opacity:1"/>
<path class="bond-4 atom-4 atom-5" d="M 123.3,96.0 L 134.6,115.7" style="fill:none;fill-rule:evenodd;stroke:#000000;stroke-width:2.0px;stroke-linecap:butt;stroke-linejoin:miter;stroke-opacity:1"/>
<path class="bond-4 atom-4 atom-5" d="M 134.6,115.7 L 145.9,135.3" style="fill:none;fill-rule:evenodd;stroke:#0000FF;stroke-width:2.0px;stroke-linecap:butt;stroke-linejoin:miter;stroke-opacity:1"/>
<path class="bond-5 atom-4 atom-6" d="M 125.7,100.3 L 137.6,79.8" style="fill:none;fill-rule:evenodd;stroke:#000000;stroke-width:2.0px;stroke-linecap:butt;stroke-linejoin:miter;stroke-opacity:1"/>
<path class="bond-5 atom-4 atom-6" d="M 137.6,79.8 L 149.4,59.2" style="fill:none;fill-rule:evenodd;stroke:#FF0000;stroke-width:2.0px;stroke-linecap:butt;stroke-linejoin:miter;stroke-opacity:1"/>
<path class="bond-5 atom-4 atom-6" d="M 118.4,96.0 L 130.2,75.5" style="fill:none;fill-rule:evenodd;stroke:#000000;stroke-width:2.0px;stroke-linecap:butt;stroke-linejoin:miter;stroke-opacity:1"/>
<path class="bond-5 atom-4 atom-6" d="M 130.2,75.5 L 142.1,55.0" style="fill:none;fill-rule:evenodd;stroke:#FF0000;stroke-width:2.0px;stroke-linecap:butt;stroke-linejoin:miter;stroke-opacity:1"/>
<path d="M 120.4,96.0 L 123.3,96.0 L 123.8,97.0" style="fill:none;stroke:#000000;stroke-width:2.0px;stroke-linecap:butt;stroke-linejoin:miter;stroke-opacity:1;"/>
<path class="atom-5" d="M 148.1 137.2 L 153.4 145.7 Q 153.9 146.5, 154.8 148.0 Q 155.6 149.6, 155.6 149.7 L 155.6 137.2 L 157.8 137.2 L 157.8 153.2 L 155.6 153.2 L 149.9 143.9 Q 149.3 142.8, 148.6 141.6 Q 147.9 140.3, 147.7 140.0 L 147.7 153.2 L 145.6 153.2 L 145.6 137.2 L 148.1 137.2 " fill="#0000FF"/>
<path class="atom-5" d="M 160.8 137.2 L 163.0 137.2 L 163.0 144.0 L 171.2 144.0 L 171.2 137.2 L 173.4 137.2 L 173.4 153.2 L 171.2 153.2 L 171.2 145.8 L 163.0 145.8 L 163.0 153.2 L 160.8 153.2 L 160.8 137.2 " fill="#0000FF"/>
<path class="atom-5" d="M 176.6 152.7 Q 177.0 151.7, 177.9 151.1 Q 178.8 150.6, 180.1 150.6 Q 181.7 150.6, 182.6 151.4 Q 183.5 152.3, 183.5 153.8 Q 183.5 155.4, 182.4 156.9 Q 181.2 158.4, 178.8 160.1 L 183.7 160.1 L 183.7 161.3 L 176.5 161.3 L 176.5 160.3 Q 178.5 158.9, 179.7 157.8 Q 180.9 156.8, 181.5 155.8 Q 182.0 154.9, 182.0 153.9 Q 182.0 152.9, 181.5 152.3 Q 181.0 151.8, 180.1 151.8 Q 179.3 151.8, 178.7 152.1 Q 178.1 152.4, 177.7 153.2 L 176.6 152.7 " fill="#0000FF"/>
<path class="atom-6" d="M 144.3 46.9 Q 144.3 43.0, 146.2 40.9 Q 148.1 38.7, 151.7 38.7 Q 155.2 38.7, 157.1 40.9 Q 159.1 43.0, 159.1 46.9 Q 159.1 50.8, 157.1 53.0 Q 155.2 55.2, 151.7 55.2 Q 148.1 55.2, 146.2 53.0 Q 144.3 50.8, 144.3 46.9 M 151.7 53.4 Q 154.1 53.4, 155.4 51.8 Q 156.8 50.1, 156.8 46.9 Q 156.8 43.7, 155.4 42.1 Q 154.1 40.5, 151.7 40.5 Q 149.2 40.5, 147.9 42.1 Q 146.6 43.7, 146.6 46.9 Q 146.6 50.1, 147.9 51.8 Q 149.2 53.4, 151.7 53.4 " fill="#FF0000"/>
</g>
    <g transform="translate(574.0, 0) scale(1 1) "><line x1="15" y1="100" x2="25" y2="100" style="stroke:rgb(0,0,0);stroke-width:2"/>
  <line x1="20" y1="95" x2="20" y2="105" style="stroke:rgb(0,0,0);stroke-width:2"/>
</g>
    <g transform="translate(614.0, 0) scale(1 1) "><!-- END OF HEADER -->
<rect style="opacity:1.0;fill:#FFFFFF;stroke:none" width="25.0" height="200.0" x="0.0" y="0.0"> </rect>
<path class="atom-0" d="M 1.2 93.4 L 2.5 93.4 L 2.5 97.2 L 7.0 97.2 L 7.0 93.4 L 8.2 93.4 L 8.2 102.3 L 7.0 102.3 L 7.0 98.2 L 2.5 98.2 L 2.5 102.3 L 1.2 102.3 L 1.2 93.4 " fill="#FF0000"/>
<path class="atom-0" d="M 10.0 102.0 Q 10.2 101.4, 10.7 101.1 Q 11.2 100.8, 11.9 100.8 Q 12.8 100.8, 13.3 101.3 Q 13.8 101.7, 13.8 102.6 Q 13.8 103.5, 13.2 104.3 Q 12.5 105.1, 11.2 106.0 L 13.9 106.0 L 13.9 106.7 L 10.0 106.7 L 10.0 106.2 Q 11.1 105.4, 11.7 104.8 Q 12.4 104.2, 12.7 103.7 Q 13.0 103.2, 13.0 102.6 Q 13.0 102.1, 12.7 101.8 Q 12.4 101.4, 11.9 101.4 Q 11.5 101.4, 11.1 101.6 Q 10.8 101.8, 10.6 102.2 L 10.0 102.0 " fill="#FF0000"/>
<path class="atom-0" d="M 15.1 97.8 Q 15.1 95.7, 16.2 94.5 Q 17.2 93.3, 19.2 93.3 Q 21.1 93.3, 22.2 94.5 Q 23.2 95.7, 23.2 97.8 Q 23.2 100.0, 22.2 101.2 Q 21.1 102.4, 19.2 102.4 Q 17.2 102.4, 16.2 101.2 Q 15.1 100.0, 15.1 97.8 M 19.2 101.4 Q 20.5 101.4, 21.3 100.5 Q 22.0 99.6, 22.0 97.8 Q 22.0 96.1, 21.3 95.2 Q 20.5 94.3, 19.2 94.3 Q 17.8 94.3, 17.1 95.2 Q 16.4 96.1, 16.4 97.8 Q 16.4 99.6, 17.1 100.5 Q 17.8 101.4, 19.2 101.4 " fill="#FF0000"/>
</g>
    <g transform="translate(639.0, 0) scale(1 1) "><line x1="15" y1="100" x2="25" y2="100" style="stroke:rgb(0,0,0);stroke-width:2"/>
  <line x1="20" y1="95" x2="20" y2="105" style="stroke:rgb(0,0,0);stroke-width:2"/>
</g>
    <g transform="translate(679.0, 0) scale(1 1) "><!-- END OF HEADER -->
<rect style="opacity:1.0;fill:#FFFFFF;stroke:none" width="120.0" height="200.0" x="0.0" y="0.0"> </rect>
<path class="bond-0 atom-0 atom-1" d="M 100.0,103.5 L 83.4,103.5" style="fill:none;fill-rule:evenodd;stroke:#FF0000;stroke-width:2.0px;stroke-linecap:butt;stroke-linejoin:miter;stroke-opacity:1"/>
<path class="bond-0 atom-0 atom-1" d="M 83.4,103.5 L 66.8,103.5" style="fill:none;fill-rule:evenodd;stroke:#000000;stroke-width:2.0px;stroke-linecap:butt;stroke-linejoin:miter;stroke-opacity:1"/>
<path class="bond-0 atom-0 atom-1" d="M 100.0,96.3 L 83.4,96.3" style="fill:none;fill-rule:evenodd;stroke:#FF0000;stroke-width:2.0px;stroke-linecap:butt;stroke-linejoin:miter;stroke-opacity:1"/>
<path class="bond-0 atom-0 atom-1" d="M 83.4,96.3 L 66.8,96.3" style="fill:none;fill-rule:evenodd;stroke:#000000;stroke-width:2.0px;stroke-linecap:butt;stroke-linejoin:miter;stroke-opacity:1"/>
<path class="bond-1 atom-1 atom-2" d="M 53.2,103.5 L 36.6,103.5" style="fill:none;fill-rule:evenodd;stroke:#000000;stroke-width:2.0px;stroke-linecap:butt;stroke-linejoin:miter;stroke-opacity:1"/>
<path class="bond-1 atom-1 atom-2" d="M 36.6,103.5 L 20.0,103.5" style="fill:none;fill-rule:evenodd;stroke:#FF0000;stroke-width:2.0px;stroke-linecap:butt;stroke-linejoin:miter;stroke-opacity:1"/>
<path class="bond-1 atom-1 atom-2" d="M 53.2,96.3 L 36.6,96.3" style="fill:none;fill-rule:evenodd;stroke:#000000;stroke-width:2.0px;stroke-linecap:butt;stroke-linejoin:miter;stroke-opacity:1"/>
<path class="bond-1 atom-1 atom-2" d="M 36.6,96.3 L 20.0,96.3" style="fill:none;fill-rule:evenodd;stroke:#FF0000;stroke-width:2.0px;stroke-linecap:butt;stroke-linejoin:miter;stroke-opacity:1"/>
<path class="atom-0" d="M 101.6 99.9 Q 101.6 96.7, 103.2 94.9 Q 104.8 93.1, 107.8 93.1 Q 110.8 93.1, 112.4 94.9 Q 114.0 96.7, 114.0 99.9 Q 114.0 103.2, 112.4 105.1 Q 110.8 106.9, 107.8 106.9 Q 104.8 106.9, 103.2 105.1 Q 101.6 103.2, 101.6 99.9 M 107.8 105.4 Q 109.9 105.4, 111.0 104.0 Q 112.1 102.6, 112.1 99.9 Q 112.1 97.3, 111.0 95.9 Q 109.9 94.6, 107.8 94.6 Q 105.7 94.6, 104.6 95.9 Q 103.5 97.3, 103.5 99.9 Q 103.5 102.7, 104.6 104.0 Q 105.7 105.4, 107.8 105.4 " fill="#FF0000"/>
<path class="atom-1" d="M 54.8 100.0 Q 54.8 96.6, 56.3 94.8 Q 57.9 93.1, 60.9 93.1 Q 63.7 93.1, 65.2 95.0 L 64.0 96.1 Q 62.9 94.6, 60.9 94.6 Q 58.9 94.6, 57.8 96.0 Q 56.7 97.4, 56.7 100.0 Q 56.7 102.6, 57.8 104.0 Q 59.0 105.4, 61.1 105.4 Q 62.6 105.4, 64.4 104.5 L 64.9 105.9 Q 64.2 106.4, 63.1 106.6 Q 62.1 106.9, 60.9 106.9 Q 57.9 106.9, 56.3 105.1 Q 54.8 103.3, 54.8 100.0 " fill="#000000"/>
<path class="atom-2" d="M 6.0 99.9 Q 6.0 96.7, 7.6 94.9 Q 9.2 93.1, 12.2 93.1 Q 15.2 93.1, 16.8 94.9 Q 18.4 96.7, 18.4 99.9 Q 18.4 103.2, 16.8 105.1 Q 15.2 106.9, 12.2 106.9 Q 9.2 106.9, 7.6 105.1 Q 6.0 103.2, 6.0 99.9 M 12.2 105.4 Q 14.3 105.4, 15.4 104.0 Q 16.5 102.6, 16.5 99.9 Q 16.5 97.3, 15.4 95.9 Q 14.3 94.6, 12.2 94.6 Q 10.1 94.6, 9.0 95.9 Q 7.9 97.3, 7.9 99.9 Q 7.9 102.7, 9.0 104.0 Q 10.1 105.4, 12.2 105.4 " fill="#FF0000"/>
</g>
  </g>
</svg>
