<?xml version='1.0' encoding='ASCII' standalone='yes'?>
<svg xmlns="http://www.w3.org/2000/svg" xmlns:xlink="http://www.w3.org/1999/xlink" version="1.1" width="784.0px" viewBox="0 0 784.0 200.0" height="200.0px">
  <g>
    <g transform="translate(0, 0) scale(1 1) "><!-- END OF HEADER -->
<rect style="opacity:1.0;fill:#FFFFFF;stroke:none" width="247.0" height="200.0" x="0.0" y="0.0"> </rect>
<path class="bond-0 atom-0 atom-1" d="M 165.7,31.1 L 161.7,71.1" style="fill:none;fill-rule:evenodd;stroke:#000000;stroke-width:2.0px;stroke-linecap:butt;stroke-linejoin:miter;stroke-opacity:1"/>
<path class="bond-1 atom-1 atom-2" d="M 161.7,71.1 L 157.8,111.2" style="fill:none;fill-rule:evenodd;stroke:#000000;stroke-width:2.0px;stroke-linecap:butt;stroke-linejoin:miter;stroke-opacity:1"/>
<path class="bond-2 atom-1 atom-3" d="M 161.7,71.1 L 201.8,75.1" style="fill:none;fill-rule:evenodd;stroke:#000000;stroke-width:2.0px;stroke-linecap:butt;stroke-linejoin:miter;stroke-opacity:1"/>
<path class="bond-3 atom-3 atom-4" d="M 201.8,75.1 L 208.5,89.9" style="fill:none;fill-rule:evenodd;stroke:#000000;stroke-width:2.0px;stroke-linecap:butt;stroke-linejoin:miter;stroke-opacity:1"/>
<path class="bond-3 atom-3 atom-4" d="M 208.5,89.9 L 215.2,104.7" style="fill:none;fill-rule:evenodd;stroke:#FF0000;stroke-width:2.0px;stroke-linecap:butt;stroke-linejoin:miter;stroke-opacity:1"/>
<path class="bond-4 atom-1 atom-5" d="M 161.7,71.1 L 121.7,67.2" style="fill:none;fill-rule:evenodd;stroke:#000000;stroke-width:2.0px;stroke-linecap:butt;stroke-linejoin:miter;stroke-opacity:1"/>
<path class="bond-5 atom-5 atom-6" d="M 121.7,67.2 L 98.2,99.9" style="fill:none;fill-rule:evenodd;stroke:#000000;stroke-width:2.0px;stroke-linecap:butt;stroke-linejoin:miter;stroke-opacity:1"/>
<path class="bond-6 atom-6 atom-7" d="M 98.2,99.9 L 74.8,132.6" style="fill:none;fill-rule:evenodd;stroke:#000000;stroke-width:2.0px;stroke-linecap:butt;stroke-linejoin:miter;stroke-opacity:1"/>
<path class="bond-7 atom-6 atom-8" d="M 98.2,99.9 L 131.0,123.4" style="fill:none;fill-rule:evenodd;stroke:#000000;stroke-width:2.0px;stroke-linecap:butt;stroke-linejoin:miter;stroke-opacity:1"/>
<path class="bond-8 atom-8 atom-9" d="M 131.0,123.4 L 129.3,139.8" style="fill:none;fill-rule:evenodd;stroke:#000000;stroke-width:2.0px;stroke-linecap:butt;stroke-linejoin:miter;stroke-opacity:1"/>
<path class="bond-8 atom-8 atom-9" d="M 129.3,139.8 L 127.7,156.3" style="fill:none;fill-rule:evenodd;stroke:#FF0000;stroke-width:2.0px;stroke-linecap:butt;stroke-linejoin:miter;stroke-opacity:1"/>
<path class="bond-9 atom-6 atom-10" d="M 98.2,99.9 L 65.5,76.5" style="fill:none;fill-rule:evenodd;stroke:#000000;stroke-width:2.0px;stroke-linecap:butt;stroke-linejoin:miter;stroke-opacity:1"/>
<path class="bond-10 atom-10 atom-11" d="M 68.3,78.5 L 70.0,61.2" style="fill:none;fill-rule:evenodd;stroke:#000000;stroke-width:2.0px;stroke-linecap:butt;stroke-linejoin:miter;stroke-opacity:1"/>
<path class="bond-10 atom-10 atom-11" d="M 70.0,61.2 L 71.8,44.0" style="fill:none;fill-rule:evenodd;stroke:#FF0000;stroke-width:2.0px;stroke-linecap:butt;stroke-linejoin:miter;stroke-opacity:1"/>
<path class="bond-10 atom-10 atom-11" d="M 62.3,77.9 L 64.0,60.6" style="fill:none;fill-rule:evenodd;stroke:#000000;stroke-width:2.0px;stroke-linecap:butt;stroke-linejoin:miter;stroke-opacity:1"/>
<path class="bond-10 atom-10 atom-11" d="M 64.0,60.6 L 65.7,43.4" style="fill:none;fill-rule:evenodd;stroke:#FF0000;stroke-width:2.0px;stroke-linecap:butt;stroke-linejoin:miter;stroke-opacity:1"/>
<path class="bond-11 atom-10 atom-12" d="M 65.5,76.5 L 50.5,83.3" style="fill:none;fill-rule:evenodd;stroke:#000000;stroke-width:2.0px;stroke-linecap:butt;stroke-linejoin:miter;stroke-opacity:1"/>
<path class="bond-11 atom-10 atom-12" d="M 50.5,83.3 L 35.4,90.1" style="fill:none;fill-rule:evenodd;stroke:#FF0000;stroke-width:2.0px;stroke-linecap:butt;stroke-linejoin:miter;stroke-opacity:1"/>
<path d="M 199.8,74.9 L 201.8,75.1 L 202.1,75.8" style="fill:none;stroke:#000000;stroke-width:2.0px;stroke-linecap:butt;stroke-linejoin:miter;stroke-opacity:1;"/>
<path d="M 123.7,67.4 L 121.7,67.2 L 120.5,68.8" style="fill:none;stroke:#000000;stroke-width:2.0px;stroke-linecap:butt;stroke-linejoin:miter;stroke-opacity:1;"/>
<path d="M 129.3,122.2 L 131.0,123.4 L 130.9,124.2" style="fill:none;stroke:#000000;stroke-width:2.0px;stroke-linecap:butt;stroke-linejoin:miter;stroke-opacity:1;"/>
<path d="M 67.1,77.6 L 65.5,76.5 L 64.8,76.8" style="fill:none;stroke:#000000;stroke-width:2.0px;stroke-linecap:butt;stroke-linejoin:miter;stroke-opacity:1;"/>
<path class="atom-4" d="M 213.2 111.8 Q 213.2 109.1, 214.5 107.5 Q 215.9 106.0, 218.4 106.0 Q 220.9 106.0, 222.3 107.5 Q 223.7 109.1, 223.7 111.8 Q 223.7 114.6, 222.3 116.1 Q 220.9 117.7, 218.4 117.7 Q 215.9 117.7, 214.5 116.1 Q 213.2 114.6, 213.2 111.8 M 218.4 116.4 Q 220.2 116.4, 221.1 115.3 Q 222.0 114.1, 222.0 111.8 Q 222.0 109.6, 221.1 108.4 Q 220.2 107.3, 218.4 107.3 Q 216.7 107.3, 215.7 108.4 Q 214.8 109.5, 214.8 111.8 Q 214.8 114.1, 215.7 115.3 Q 216.7 116.4, 218.4 116.4 " fill="#FF0000"/>
<path class="atom-4" d="M 225.4 106.1 L 227.0 106.1 L 227.0 111.0 L 232.8 111.0 L 232.8 106.1 L 234.4 106.1 L 234.4 117.5 L 232.8 117.5 L 232.8 112.3 L 227.0 112.3 L 227.0 117.5 L 225.4 117.5 L 225.4 106.1 " fill="#FF0000"/>
<path class="atom-9" d="M 121.8 163.5 Q 121.8 160.7, 123.1 159.2 Q 124.5 157.7, 127.0 157.7 Q 129.5 157.7, 130.9 159.2 Q 132.2 160.7, 132.2 163.5 Q 132.2 166.2, 130.9 167.8 Q 129.5 169.4, 127.0 169.4 Q 124.5 169.4, 123.1 167.8 Q 121.8 166.2, 121.8 163.5 M 127.0 168.1 Q 128.7 168.1, 129.7 166.9 Q 130.6 165.7, 130.6 163.5 Q 130.6 161.2, 129.7 160.1 Q 128.7 158.9, 127.0 158.9 Q 125.3 158.9, 124.3 160.1 Q 123.4 161.2, 123.4 163.5 Q 123.4 165.8, 124.3 166.9 Q 125.3 168.1, 127.0 168.1 " fill="#FF0000"/>
<path class="atom-9" d="M 134.0 157.8 L 135.6 157.8 L 135.6 162.6 L 141.4 162.6 L 141.4 157.8 L 142.9 157.8 L 142.9 169.2 L 141.4 169.2 L 141.4 163.9 L 135.6 163.9 L 135.6 169.2 L 134.0 169.2 L 134.0 157.8 " fill="#FF0000"/>
<path class="atom-11" d="M 64.2 36.4 Q 64.2 33.7, 65.6 32.2 Q 66.9 30.6, 69.5 30.6 Q 72.0 30.6, 73.3 32.2 Q 74.7 33.7, 74.7 36.4 Q 74.7 39.2, 73.3 40.8 Q 72.0 42.3, 69.5 42.3 Q 67.0 42.3, 65.6 40.8 Q 64.2 39.2, 64.2 36.4 M 69.5 41.1 Q 71.2 41.1, 72.1 39.9 Q 73.1 38.7, 73.1 36.4 Q 73.1 34.2, 72.1 33.1 Q 71.2 31.9, 69.5 31.9 Q 67.7 31.9, 66.8 33.0 Q 65.8 34.2, 65.8 36.4 Q 65.8 38.7, 66.8 39.9 Q 67.7 41.1, 69.5 41.1 " fill="#FF0000"/>
<path class="atom-12" d="M 12.3 87.4 L 13.9 87.4 L 13.9 92.3 L 19.7 92.3 L 19.7 87.4 L 21.3 87.4 L 21.3 98.8 L 19.7 98.8 L 19.7 93.6 L 13.9 93.6 L 13.9 98.8 L 12.3 98.8 L 12.3 87.4 " fill="#FF0000"/>
<path class="atom-12" d="M 23.6 93.1 Q 23.6 90.4, 25.0 88.8 Q 26.3 87.3, 28.8 87.3 Q 31.4 87.3, 32.7 88.8 Q 34.1 90.4, 34.1 93.1 Q 34.1 95.9, 32.7 97.4 Q 31.3 99.0, 28.8 99.0 Q 26.3 99.0, 25.0 97.4 Q 23.6 95.9, 23.6 93.1 M 28.8 97.7 Q 30.6 97.7, 31.5 96.6 Q 32.5 95.4, 32.5 93.1 Q 32.5 90.9, 31.5 89.7 Q 30.6 88.6, 28.8 88.6 Q 27.1 88.6, 26.2 89.7 Q 25.2 90.8, 25.2 93.1 Q 25.2 95.4, 26.2 96.6 Q 27.1 97.7, 28.8 97.7 " fill="#FF0000"/>
</g>
    <g transform="translate(247.0, 0) scale(1 1) "><line x1="15" y1="100" x2="25" y2="100" style="stroke:rgb(0,0,0);stroke-width:2"/>
  <line x1="20" y1="95" x2="20" y2="105" style="stroke:rgb(0,0,0);stroke-width:2"/>
</g>
    <g transform="translate(287.0, 0) scale(1 1) "><!-- END OF HEADER -->
<rect style="opacity:1.0;fill:#FFFFFF;stroke:none" width="85.0" height="200.0" x="0.0" y="0.0"> </rect>
<path class="bond-0 atom-0 atom-1" d="M 21.9,95.3 L 62.6,95.3" style="fill:none;fill-rule:evenodd;stroke:#FF0000;stroke-width:2.0px;stroke-linecap:butt;stroke-linejoin:miter;stroke-opacity:1"/>
<path class="bond-0 atom-0 atom-1" d="M 21.9,104.4 L 62.6,104.4" style="fill:none;fill-rule:evenodd;stroke:#FF0000;stroke-width:2.0px;stroke-linecap:butt;stroke-linejoin:miter;stroke-opacity:1"/>
<path class="atom-0" d="M 4.3 99.9 Q 4.3 95.8, 6.3 93.5 Q 8.3 91.2, 12.1 91.2 Q 15.9 91.2, 17.9 93.5 Q 19.9 95.8, 19.9 99.9 Q 19.9 104.1, 17.9 106.4 Q 15.8 108.8, 12.1 108.8 Q 8.3 108.8, 6.3 106.4 Q 4.3 104.1, 4.3 99.9 M 12.1 106.8 Q 14.7 106.8, 16.1 105.1 Q 17.5 103.3, 17.5 99.9 Q 17.5 96.6, 16.1 94.9 Q 14.7 93.2, 12.1 93.2 Q 9.5 93.2, 8.1 94.8 Q 6.7 96.5, 6.7 99.9 Q 6.7 103.4, 8.1 105.1 Q 9.5 106.8, 12.1 106.8 " fill="#FF0000"/>
<path class="atom-1" d="M 64.6 99.9 Q 64.6 95.8, 66.6 93.5 Q 68.6 91.2, 72.4 91.2 Q 76.2 91.2, 78.2 93.5 Q 80.2 95.8, 80.2 99.9 Q 80.2 104.1, 78.2 106.4 Q 76.1 108.8, 72.4 108.8 Q 68.6 108.8, 66.6 106.4 Q 64.6 104.1, 64.6 99.9 M 72.4 106.8 Q 75.0 106.8, 76.4 105.1 Q 77.8 103.3, 77.8 99.9 Q 77.8 96.6, 76.4 94.9 Q 75.0 93.2, 72.4 93.2 Q 69.8 93.2, 68.4 94.8 Q 67.0 96.5, 67.0 99.9 Q 67.0 103.4, 68.4 105.1 Q 69.8 106.8, 72.4 106.8 " fill="#FF0000"/>
</g>
    <g transform="translate(372.0, 0) scale(1 1) "><line x1="5" y1="100" x2="35" y2="100" style="stroke:rgb(0,0,0);stroke-width:2"/>
  <line x1="34" y1="100" x2="29" y2="95" style="stroke:rgb(0,0,0);stroke-width:2"/>
  <line x1="34" y1="100" x2="29" y2="105" style="stroke:rgb(0,0,0);stroke-width:2"/>
</g>
    <g transform="translate(412.0, 0) scale(1 1) "><!-- END OF HEADER -->
<rect style="opacity:1.0;fill:#FFFFFF;stroke:none" width="247.0" height="200.0" x="0.0" y="0.0"> </rect>
<path class="bond-0 atom-0 atom-1" d="M 175.6,26.6 L 171.4,69.3" style="fill:none;fill-rule:evenodd;stroke:#000000;stroke-width:2.0px;stroke-linecap:butt;stroke-linejoin:miter;stroke-opacity:1"/>
<path class="bond-1 atom-1 atom-2" d="M 171.4,69.3 L 167.2,111.9" style="fill:none;fill-rule:evenodd;stroke:#000000;stroke-width:2.0px;stroke-linecap:butt;stroke-linejoin:miter;stroke-opacity:1"/>
<path class="bond-2 atom-1 atom-3" d="M 171.4,69.3 L 214.0,73.5" style="fill:none;fill-rule:evenodd;stroke:#000000;stroke-width:2.0px;stroke-linecap:butt;stroke-linejoin:miter;stroke-opacity:1"/>
<path class="bond-3 atom-3 atom-4" d="M 214.0,73.5 L 221.2,89.2" style="fill:none;fill-rule:evenodd;stroke:#000000;stroke-width:2.0px;stroke-linecap:butt;stroke-linejoin:miter;stroke-opacity:1"/>
<path class="bond-3 atom-3 atom-4" d="M 221.2,89.2 L 228.3,105.0" style="fill:none;fill-rule:evenodd;stroke:#FF0000;stroke-width:2.0px;stroke-linecap:butt;stroke-linejoin:miter;stroke-opacity:1"/>
<path class="bond-3 atom-3 atom-4" d="M 209.7,79.5 L 215.3,91.9" style="fill:none;fill-rule:evenodd;stroke:#000000;stroke-width:2.0px;stroke-linecap:butt;stroke-linejoin:miter;stroke-opacity:1"/>
<path class="bond-3 atom-3 atom-4" d="M 215.3,91.9 L 222.4,107.6" style="fill:none;fill-rule:evenodd;stroke:#FF0000;stroke-width:2.0px;stroke-linecap:butt;stroke-linejoin:miter;stroke-opacity:1"/>
<path class="bond-4 atom-1 atom-5" d="M 171.4,69.3 L 128.7,65.1" style="fill:none;fill-rule:evenodd;stroke:#000000;stroke-width:2.0px;stroke-linecap:butt;stroke-linejoin:miter;stroke-opacity:1"/>
<path class="bond-5 atom-5 atom-6" d="M 128.7,65.1 L 103.8,99.9" style="fill:none;fill-rule:evenodd;stroke:#000000;stroke-width:2.0px;stroke-linecap:butt;stroke-linejoin:miter;stroke-opacity:1"/>
<path class="bond-6 atom-6 atom-7" d="M 103.8,99.9 L 78.8,134.7" style="fill:none;fill-rule:evenodd;stroke:#000000;stroke-width:2.0px;stroke-linecap:butt;stroke-linejoin:miter;stroke-opacity:1"/>
<path class="bond-7 atom-6 atom-8" d="M 103.8,99.9 L 138.6,124.9" style="fill:none;fill-rule:evenodd;stroke:#000000;stroke-width:2.0px;stroke-linecap:butt;stroke-linejoin:miter;stroke-opacity:1"/>
<path class="bond-8 atom-8 atom-9" d="M 138.6,124.9 L 136.9,142.4" style="fill:none;fill-rule:evenodd;stroke:#000000;stroke-width:2.0px;stroke-linecap:butt;stroke-linejoin:miter;stroke-opacity:1"/>
<path class="bond-8 atom-8 atom-9" d="M 136.9,142.4 L 135.1,160.0" style="fill:none;fill-rule:evenodd;stroke:#FF0000;stroke-width:2.0px;stroke-linecap:butt;stroke-linejoin:miter;stroke-opacity:1"/>
<path class="bond-9 atom-6 atom-10" d="M 103.8,99.9 L 68.9,74.9" style="fill:none;fill-rule:evenodd;stroke:#000000;stroke-width:2.0px;stroke-linecap:butt;stroke-linejoin:miter;stroke-opacity:1"/>
<path class="bond-10 atom-10 atom-11" d="M 72.0,77.1 L 73.8,58.7" style="fill:none;fill-rule:evenodd;stroke:#000000;stroke-width:2.0px;stroke-linecap:butt;stroke-linejoin:miter;stroke-opacity:1"/>
<path class="bond-10 atom-10 atom-11" d="M 73.8,58.7 L 75.6,40.4" style="fill:none;fill-rule:evenodd;stroke:#FF0000;stroke-width:2.0px;stroke-linecap:butt;stroke-linejoin:miter;stroke-opacity:1"/>
<path class="bond-10 atom-10 atom-11" d="M 65.6,76.5 L 67.4,58.1" style="fill:none;fill-rule:evenodd;stroke:#000000;stroke-width:2.0px;stroke-linecap:butt;stroke-linejoin:miter;stroke-opacity:1"/>
<path class="bond-10 atom-10 atom-11" d="M 67.4,58.1 L 69.2,39.7" style="fill:none;fill-rule:evenodd;stroke:#FF0000;stroke-width:2.0px;stroke-linecap:butt;stroke-linejoin:miter;stroke-opacity:1"/>
<path class="bond-11 atom-10 atom-12" d="M 68.9,74.9 L 52.9,82.2" style="fill:none;fill-rule:evenodd;stroke:#000000;stroke-width:2.0px;stroke-linecap:butt;stroke-linejoin:miter;stroke-opacity:1"/>
<path class="bond-11 atom-10 atom-12" d="M 52.9,82.2 L 36.9,89.5" style="fill:none;fill-rule:evenodd;stroke:#FF0000;stroke-width:2.0px;stroke-linecap:butt;stroke-linejoin:miter;stroke-opacity:1"/>
<path d="M 211.9,73.3 L 214.0,73.5 L 214.4,74.3" style="fill:none;stroke:#000000;stroke-width:2.0px;stroke-linecap:butt;stroke-linejoin:miter;stroke-opacity:1;"/>
<path d="M 130.9,65.3 L 128.7,65.1 L 127.5,66.8" style="fill:none;stroke:#000000;stroke-width:2.0px;stroke-linecap:butt;stroke-linejoin:miter;stroke-opacity:1;"/>
<path d="M 136.9,123.6 L 138.6,124.9 L 138.5,125.7" style="fill:none;stroke:#000000;stroke-width:2.0px;stroke-linecap:butt;stroke-linejoin:miter;stroke-opacity:1;"/>
<path d="M 70.7,76.2 L 68.9,74.9 L 68.1,75.3" style="fill:none;stroke:#000000;stroke-width:2.0px;stroke-linecap:butt;stroke-linejoin:miter;stroke-opacity:1;"/>
<path class="atom-4" d="M 223.2 113.9 Q 223.2 111.0, 224.6 109.3 Q 226.1 107.7, 228.8 107.7 Q 231.5 107.7, 232.9 109.3 Q 234.3 111.0, 234.3 113.9 Q 234.3 116.8, 232.9 118.5 Q 231.4 120.2, 228.8 120.2 Q 226.1 120.2, 224.6 118.5 Q 223.2 116.8, 223.2 113.9 M 228.8 118.8 Q 230.6 118.8, 231.6 117.6 Q 232.6 116.3, 232.6 113.9 Q 232.6 111.5, 231.6 110.3 Q 230.6 109.1, 228.8 109.1 Q 226.9 109.1, 225.9 110.3 Q 224.9 111.5, 224.9 113.9 Q 224.9 116.3, 225.9 117.6 Q 226.9 118.8, 228.8 118.8 " fill="#FF0000"/>
<path class="atom-9" d="M 128.8 167.5 Q 128.8 164.6, 130.3 163.0 Q 131.7 161.4, 134.4 161.4 Q 137.1 161.4, 138.5 163.0 Q 140.0 164.6, 140.0 167.5 Q 140.0 170.5, 138.5 172.2 Q 137.1 173.8, 134.4 173.8 Q 131.7 173.8, 130.3 172.2 Q 128.8 170.5, 128.8 167.5 M 134.4 172.5 Q 136.2 172.5, 137.2 171.2 Q 138.3 170.0, 138.3 167.5 Q 138.3 165.2, 137.2 164.0 Q 136.2 162.8, 134.4 162.8 Q 132.5 162.8, 131.5 164.0 Q 130.5 165.2, 130.5 167.5 Q 130.5 170.0, 131.5 171.2 Q 132.5 172.5, 134.4 172.5 " fill="#FF0000"/>
<path class="atom-9" d="M 141.9 161.5 L 143.5 161.5 L 143.5 166.7 L 149.7 166.7 L 149.7 161.5 L 151.4 161.5 L 151.4 173.7 L 149.7 173.7 L 149.7 168.0 L 143.5 168.0 L 143.5 173.7 L 141.9 173.7 L 141.9 161.5 " fill="#FF0000"/>
<path class="atom-11" d="M 67.6 32.3 Q 67.6 29.4, 69.0 27.8 Q 70.5 26.2, 73.1 26.2 Q 75.8 26.2, 77.3 27.8 Q 78.7 29.4, 78.7 32.3 Q 78.7 35.3, 77.3 37.0 Q 75.8 38.6, 73.1 38.6 Q 70.5 38.6, 69.0 37.0 Q 67.6 35.3, 67.6 32.3 M 73.1 37.2 Q 75.0 37.2, 76.0 36.0 Q 77.0 34.8, 77.0 32.3 Q 77.0 29.9, 76.0 28.7 Q 75.0 27.5, 73.1 27.5 Q 71.3 27.5, 70.3 28.7 Q 69.3 29.9, 69.3 32.3 Q 69.3 34.8, 70.3 36.0 Q 71.3 37.2, 73.1 37.2 " fill="#FF0000"/>
<path class="atom-12" d="M 12.3 86.6 L 14.0 86.6 L 14.0 91.8 L 20.2 91.8 L 20.2 86.6 L 21.8 86.6 L 21.8 98.8 L 20.2 98.8 L 20.2 93.2 L 14.0 93.2 L 14.0 98.8 L 12.3 98.8 L 12.3 86.6 " fill="#FF0000"/>
<path class="atom-12" d="M 24.3 92.7 Q 24.3 89.7, 25.8 88.1 Q 27.2 86.5, 29.9 86.5 Q 32.6 86.5, 34.0 88.1 Q 35.5 89.7, 35.5 92.7 Q 35.5 95.6, 34.0 97.3 Q 32.6 98.9, 29.9 98.9 Q 27.2 98.9, 25.8 97.3 Q 24.3 95.6, 24.3 92.7 M 29.9 97.6 Q 31.8 97.6, 32.8 96.3 Q 33.8 95.1, 33.8 92.7 Q 33.8 90.3, 32.8 89.1 Q 31.8 87.9, 29.9 87.9 Q 28.1 87.9, 27.0 89.1 Q 26.0 90.3, 26.0 92.7 Q 26.0 95.1, 27.0 96.3 Q 28.1 97.6, 29.9 97.6 " fill="#FF0000"/>
</g>
    <g transform="translate(659.0, 0) scale(1 1) "><line x1="15" y1="100" x2="25" y2="100" style="stroke:rgb(0,0,0);stroke-width:2"/>
  <line x1="20" y1="95" x2="20" y2="105" style="stroke:rgb(0,0,0);stroke-width:2"/>
</g>
    <g transform="translate(699.0, 0) scale(1 1) "><!-- END OF HEADER -->
<rect style="opacity:1.0;fill:#FFFFFF;stroke:none" width="85.0" height="200.0" x="0.0" y="0.0"> </rect>
<path class="bond-0 atom-0 atom-1" d="M 28.4,99.9 L 56.7,99.9" style="fill:none;fill-rule:evenodd;stroke:#FF0000;stroke-width:2.0px;stroke-linecap:butt;stroke-linejoin:miter;stroke-opacity:1"/>
<path class="atom-0" d="M 4.2 94.0 L 5.9 94.0 L 5.9 99.1 L 12.0 99.1 L 12.0 94.0 L 13.6 94.0 L 13.6 105.9 L 12.0 105.9 L 12.0 100.4 L 5.9 100.4 L 5.9 105.9 L 4.2 105.9 L 4.2 94.0 " fill="#FF0000"/>
<path class="atom-0" d="M 16.0 99.9 Q 16.0 97.1, 17.4 95.5 Q 18.9 93.9, 21.5 93.9 Q 24.1 93.9, 25.6 95.5 Q 27.0 97.1, 27.0 99.9 Q 27.0 102.8, 25.5 104.5 Q 24.1 106.1, 21.5 106.1 Q 18.9 106.1, 17.4 104.5 Q 16.0 102.9, 16.0 99.9 M 21.5 104.8 Q 23.3 104.8, 24.3 103.6 Q 25.3 102.3, 25.3 99.9 Q 25.3 97.6, 24.3 96.4 Q 23.3 95.2, 21.5 95.2 Q 19.7 95.2, 18.7 96.4 Q 17.7 97.6, 17.7 99.9 Q 17.7 102.3, 18.7 103.6 Q 19.7 104.8, 21.5 104.8 " fill="#FF0000"/>
<path class="atom-1" d="M 58.1 99.9 Q 58.1 97.1, 59.5 95.5 Q 60.9 93.9, 63.6 93.9 Q 66.2 93.9, 67.7 95.5 Q 69.1 97.1, 69.1 99.9 Q 69.1 102.8, 67.6 104.5 Q 66.2 106.1, 63.6 106.1 Q 61.0 106.1, 59.5 104.5 Q 58.1 102.9, 58.1 99.9 M 63.6 104.8 Q 65.4 104.8, 66.4 103.6 Q 67.4 102.3, 67.4 99.9 Q 67.4 97.6, 66.4 96.4 Q 65.4 95.2, 63.6 95.2 Q 61.8 95.2, 60.8 96.4 Q 59.8 97.6, 59.8 99.9 Q 59.8 102.3, 60.8 103.6 Q 61.8 104.8, 63.6 104.8 " fill="#FF0000"/>
<path class="atom-1" d="M 70.9 94.0 L 72.5 94.0 L 72.5 99.1 L 78.6 99.1 L 78.6 94.0 L 80.2 94.0 L 80.2 105.9 L 78.6 105.9 L 78.6 100.4 L 72.5 100.4 L 72.5 105.9 L 70.9 105.9 L 70.9 94.0 " fill="#FF0000"/>
</g>
  </g>
</svg>
