<?xml version='1.0' encoding='ASCII' standalone='yes'?>
<svg xmlns="http://www.w3.org/2000/svg" xmlns:xlink="http://www.w3.org/1999/xlink" version="1.1" width="582.0px" viewBox="0 0 582.0 200.0" height="200.0px">
  <g>
    <g transform="translate(0, 0) scale(1 1) "><!-- END OF HEADER -->
<rect style="opacity:1.0;fill:#FFFFFF;stroke:none" width="271.0" height="200.0" x="0.0" y="0.0"> </rect>
<path class="bond-0 atom-0 atom-1" d="M 190.7,36.0 L 209.2,63.7" style="fill:none;fill-rule:evenodd;stroke:#000000;stroke-width:2.0px;stroke-linecap:butt;stroke-linejoin:miter;stroke-opacity:1"/>
<path class="bond-1 atom-1 atom-2" d="M 209.2,63.7 L 194.5,93.7" style="fill:none;fill-rule:evenodd;stroke:#000000;stroke-width:2.0px;stroke-linecap:butt;stroke-linejoin:miter;stroke-opacity:1"/>
<path class="bond-2 atom-2 atom-3" d="M 194.5,93.7 L 179.8,123.6" style="fill:none;fill-rule:evenodd;stroke:#000000;stroke-width:2.0px;stroke-linecap:butt;stroke-linejoin:miter;stroke-opacity:1"/>
<path class="bond-3 atom-2 atom-4" d="M 194.5,93.7 L 164.6,79.0" style="fill:none;fill-rule:evenodd;stroke:#000000;stroke-width:2.0px;stroke-linecap:butt;stroke-linejoin:miter;stroke-opacity:1"/>
<path class="bond-4 atom-4 atom-5" d="M 164.6,79.0 L 136.8,97.5" style="fill:none;fill-rule:evenodd;stroke:#000000;stroke-width:2.0px;stroke-linecap:butt;stroke-linejoin:miter;stroke-opacity:1"/>
<path class="bond-5 atom-5 atom-6" d="M 136.8,97.5 L 106.9,82.8" style="fill:none;fill-rule:evenodd;stroke:#000000;stroke-width:2.0px;stroke-linecap:butt;stroke-linejoin:miter;stroke-opacity:1"/>
<path class="bond-6 atom-6 atom-7" d="M 106.9,82.8 L 79.1,101.4" style="fill:none;fill-rule:evenodd;stroke:#000000;stroke-width:2.0px;stroke-linecap:butt;stroke-linejoin:miter;stroke-opacity:1"/>
<path class="bond-7 atom-7 atom-8" d="M 79.1,101.4 L 51.4,120.0" style="fill:none;fill-rule:evenodd;stroke:#000000;stroke-width:2.0px;stroke-linecap:butt;stroke-linejoin:miter;stroke-opacity:1"/>
<path class="bond-8 atom-7 atom-9" d="M 79.1,101.4 L 97.7,129.1" style="fill:none;fill-rule:evenodd;stroke:#000000;stroke-width:2.0px;stroke-linecap:butt;stroke-linejoin:miter;stroke-opacity:1"/>
<path class="bond-9 atom-9 atom-10" d="M 97.7,129.1 L 91.8,141.2" style="fill:none;fill-rule:evenodd;stroke:#000000;stroke-width:2.0px;stroke-linecap:butt;stroke-linejoin:miter;stroke-opacity:1"/>
<path class="bond-9 atom-9 atom-10" d="M 91.8,141.2 L 85.9,153.2" style="fill:none;fill-rule:evenodd;stroke:#FF0000;stroke-width:2.0px;stroke-linecap:butt;stroke-linejoin:miter;stroke-opacity:1"/>
<path class="bond-10 atom-7 atom-11" d="M 79.1,101.4 L 60.5,73.6" style="fill:none;fill-rule:evenodd;stroke:#000000;stroke-width:2.0px;stroke-linecap:butt;stroke-linejoin:miter;stroke-opacity:1"/>
<path class="bond-11 atom-11 atom-12" d="M 62.1,76.1 L 68.3,63.4" style="fill:none;fill-rule:evenodd;stroke:#000000;stroke-width:2.0px;stroke-linecap:butt;stroke-linejoin:miter;stroke-opacity:1"/>
<path class="bond-11 atom-11 atom-12" d="M 68.3,63.4 L 74.6,50.8" style="fill:none;fill-rule:evenodd;stroke:#FF0000;stroke-width:2.0px;stroke-linecap:butt;stroke-linejoin:miter;stroke-opacity:1"/>
<path class="bond-11 atom-11 atom-12" d="M 57.7,73.8 L 63.9,61.2" style="fill:none;fill-rule:evenodd;stroke:#000000;stroke-width:2.0px;stroke-linecap:butt;stroke-linejoin:miter;stroke-opacity:1"/>
<path class="bond-11 atom-11 atom-12" d="M 63.9,61.2 L 70.1,48.6" style="fill:none;fill-rule:evenodd;stroke:#FF0000;stroke-width:2.0px;stroke-linecap:butt;stroke-linejoin:miter;stroke-opacity:1"/>
<path class="bond-12 atom-11 atom-13" d="M 60.5,73.6 L 46.6,74.6" style="fill:none;fill-rule:evenodd;stroke:#000000;stroke-width:2.0px;stroke-linecap:butt;stroke-linejoin:miter;stroke-opacity:1"/>
<path class="bond-12 atom-11 atom-13" d="M 46.6,74.6 L 32.7,75.5" style="fill:none;fill-rule:evenodd;stroke:#FF0000;stroke-width:2.0px;stroke-linecap:butt;stroke-linejoin:miter;stroke-opacity:1"/>
<path class="bond-13 atom-2 atom-14" d="M 194.5,93.7 L 224.5,108.4" style="fill:none;fill-rule:evenodd;stroke:#000000;stroke-width:2.0px;stroke-linecap:butt;stroke-linejoin:miter;stroke-opacity:1"/>
<path class="bond-14 atom-14 atom-15" d="M 224.7,111.3 L 236.4,103.4" style="fill:none;fill-rule:evenodd;stroke:#000000;stroke-width:2.0px;stroke-linecap:butt;stroke-linejoin:miter;stroke-opacity:1"/>
<path class="bond-14 atom-14 atom-15" d="M 236.4,103.4 L 248.2,95.6" style="fill:none;fill-rule:evenodd;stroke:#FF0000;stroke-width:2.0px;stroke-linecap:butt;stroke-linejoin:miter;stroke-opacity:1"/>
<path class="bond-14 atom-14 atom-15" d="M 221.9,107.1 L 233.6,99.3" style="fill:none;fill-rule:evenodd;stroke:#000000;stroke-width:2.0px;stroke-linecap:butt;stroke-linejoin:miter;stroke-opacity:1"/>
<path class="bond-14 atom-14 atom-15" d="M 233.6,99.3 L 245.4,91.4" style="fill:none;fill-rule:evenodd;stroke:#FF0000;stroke-width:2.0px;stroke-linecap:butt;stroke-linejoin:miter;stroke-opacity:1"/>
<path class="bond-15 atom-14 atom-16" d="M 224.5,108.4 L 225.4,122.1" style="fill:none;fill-rule:evenodd;stroke:#000000;stroke-width:2.0px;stroke-linecap:butt;stroke-linejoin:miter;stroke-opacity:1"/>
<path class="bond-15 atom-14 atom-16" d="M 225.4,122.1 L 226.3,135.8" style="fill:none;fill-rule:evenodd;stroke:#FF0000;stroke-width:2.0px;stroke-linecap:butt;stroke-linejoin:miter;stroke-opacity:1"/>
<path d="M 208.3,62.3 L 209.2,63.7 L 208.5,65.2" style="fill:none;stroke:#000000;stroke-width:2.0px;stroke-linecap:butt;stroke-linejoin:miter;stroke-opacity:1;"/>
<path d="M 166.1,79.7 L 164.6,79.0 L 163.2,79.9" style="fill:none;stroke:#000000;stroke-width:2.0px;stroke-linecap:butt;stroke-linejoin:miter;stroke-opacity:1;"/>
<path d="M 138.2,96.6 L 136.8,97.5 L 135.3,96.8" style="fill:none;stroke:#000000;stroke-width:2.0px;stroke-linecap:butt;stroke-linejoin:miter;stroke-opacity:1;"/>
<path d="M 108.4,83.5 L 106.9,82.8 L 105.5,83.7" style="fill:none;stroke:#000000;stroke-width:2.0px;stroke-linecap:butt;stroke-linejoin:miter;stroke-opacity:1;"/>
<path d="M 96.8,127.7 L 97.7,129.1 L 97.4,129.7" style="fill:none;stroke:#000000;stroke-width:2.0px;stroke-linecap:butt;stroke-linejoin:miter;stroke-opacity:1;"/>
<path d="M 61.5,75.0 L 60.5,73.6 L 59.8,73.7" style="fill:none;stroke:#000000;stroke-width:2.0px;stroke-linecap:butt;stroke-linejoin:miter;stroke-opacity:1;"/>
<path d="M 223.0,107.7 L 224.5,108.4 L 224.5,109.1" style="fill:none;stroke:#000000;stroke-width:2.0px;stroke-linecap:butt;stroke-linejoin:miter;stroke-opacity:1;"/>
<path class="atom-10" d="M 69.3 154.4 L 70.6 154.4 L 70.6 158.4 L 75.4 158.4 L 75.4 154.4 L 76.7 154.4 L 76.7 163.9 L 75.4 163.9 L 75.4 159.5 L 70.6 159.5 L 70.6 163.9 L 69.3 163.9 L 69.3 154.4 " fill="#FF0000"/>
<path class="atom-10" d="M 78.6 159.1 Q 78.6 156.8, 79.8 155.6 Q 80.9 154.3, 83.0 154.3 Q 85.1 154.3, 86.2 155.6 Q 87.3 156.8, 87.3 159.1 Q 87.3 161.4, 86.2 162.7 Q 85.0 164.0, 83.0 164.0 Q 80.9 164.0, 79.8 162.7 Q 78.6 161.4, 78.6 159.1 M 83.0 162.9 Q 84.4 162.9, 85.2 162.0 Q 86.0 161.0, 86.0 159.1 Q 86.0 157.3, 85.2 156.3 Q 84.4 155.4, 83.0 155.4 Q 81.5 155.4, 80.7 156.3 Q 80.0 157.2, 80.0 159.1 Q 80.0 161.0, 80.7 162.0 Q 81.5 162.9, 83.0 162.9 " fill="#FF0000"/>
<path class="atom-12" d="M 70.9 43.7 Q 70.9 41.4, 72.1 40.2 Q 73.2 38.9, 75.3 38.9 Q 77.4 38.9, 78.5 40.2 Q 79.6 41.4, 79.6 43.7 Q 79.6 46.0, 78.5 47.3 Q 77.3 48.6, 75.3 48.6 Q 73.2 48.6, 72.1 47.3 Q 70.9 46.0, 70.9 43.7 M 75.3 47.5 Q 76.7 47.5, 77.5 46.6 Q 78.3 45.6, 78.3 43.7 Q 78.3 41.9, 77.5 40.9 Q 76.7 40.0, 75.3 40.0 Q 73.8 40.0, 73.0 40.9 Q 72.3 41.8, 72.3 43.7 Q 72.3 45.6, 73.0 46.6 Q 73.8 47.5, 75.3 47.5 " fill="#FF0000"/>
<path class="atom-13" d="M 13.5 71.2 L 14.8 71.2 L 14.8 75.2 L 19.7 75.2 L 19.7 71.2 L 20.9 71.2 L 20.9 80.7 L 19.7 80.7 L 19.7 76.3 L 14.8 76.3 L 14.8 80.7 L 13.5 80.7 L 13.5 71.2 " fill="#FF0000"/>
<path class="atom-13" d="M 22.9 75.9 Q 22.9 73.6, 24.0 72.4 Q 25.1 71.1, 27.2 71.1 Q 29.3 71.1, 30.4 72.4 Q 31.6 73.6, 31.6 75.9 Q 31.6 78.2, 30.4 79.5 Q 29.3 80.8, 27.2 80.8 Q 25.1 80.8, 24.0 79.5 Q 22.9 78.2, 22.9 75.9 M 27.2 79.7 Q 28.7 79.7, 29.4 78.8 Q 30.2 77.8, 30.2 75.9 Q 30.2 74.0, 29.4 73.1 Q 28.7 72.2, 27.2 72.2 Q 25.8 72.2, 25.0 73.1 Q 24.2 74.0, 24.2 75.9 Q 24.2 77.8, 25.0 78.8 Q 25.8 79.7, 27.2 79.7 " fill="#FF0000"/>
<path class="atom-15" d="M 247.9 89.9 Q 247.9 87.6, 249.0 86.3 Q 250.1 85.1, 252.2 85.1 Q 254.3 85.1, 255.4 86.3 Q 256.6 87.6, 256.6 89.9 Q 256.6 92.2, 255.4 93.5 Q 254.3 94.8, 252.2 94.8 Q 250.1 94.8, 249.0 93.5 Q 247.9 92.2, 247.9 89.9 M 252.2 93.7 Q 253.7 93.7, 254.4 92.7 Q 255.2 91.8, 255.2 89.9 Q 255.2 88.0, 254.4 87.1 Q 253.7 86.1, 252.2 86.1 Q 250.8 86.1, 250.0 87.1 Q 249.2 88.0, 249.2 89.9 Q 249.2 91.8, 250.0 92.7 Q 250.8 93.7, 252.2 93.7 " fill="#FF0000"/>
<path class="atom-16" d="M 222.4 141.8 Q 222.4 139.5, 223.5 138.2 Q 224.6 136.9, 226.7 136.9 Q 228.8 136.9, 229.9 138.2 Q 231.0 139.5, 231.0 141.8 Q 231.0 144.1, 229.9 145.4 Q 228.8 146.7, 226.7 146.7 Q 224.6 146.7, 223.5 145.4 Q 222.4 144.1, 222.4 141.8 M 226.7 145.6 Q 228.1 145.6, 228.9 144.6 Q 229.7 143.7, 229.7 141.8 Q 229.7 139.9, 228.9 139.0 Q 228.1 138.0, 226.7 138.0 Q 225.3 138.0, 224.5 138.9 Q 223.7 139.9, 223.7 141.8 Q 223.7 143.7, 224.5 144.6 Q 225.3 145.6, 226.7 145.6 " fill="#FF0000"/>
<path class="atom-16" d="M 232.5 137.1 L 233.8 137.1 L 233.8 141.1 L 238.6 141.1 L 238.6 137.1 L 239.9 137.1 L 239.9 146.5 L 238.6 146.5 L 238.6 142.1 L 233.8 142.1 L 233.8 146.5 L 232.5 146.5 L 232.5 137.1 " fill="#FF0000"/>
</g>
    <g transform="translate(271.0, 0) scale(1 1) "><line x1="5" y1="100" x2="35" y2="100" style="stroke:rgb(0,0,0);stroke-width:2"/>
  <line x1="34" y1="100" x2="29" y2="95" style="stroke:rgb(0,0,0);stroke-width:2"/>
  <line x1="34" y1="100" x2="29" y2="105" style="stroke:rgb(0,0,0);stroke-width:2"/>
</g>
    <g transform="translate(311.0, 0) scale(1 1) "><!-- END OF HEADER -->
<rect style="opacity:1.0;fill:#FFFFFF;stroke:none" width="271.0" height="200.0" x="0.0" y="0.0"> </rect>
<path class="bond-0 atom-0 atom-1" d="M 212.1,70.4 L 200.4,98.4" style="fill:none;fill-rule:evenodd;stroke:#000000;stroke-width:2.0px;stroke-linecap:butt;stroke-linejoin:miter;stroke-opacity:1"/>
<path class="bond-1 atom-1 atom-2" d="M 200.4,98.4 L 188.6,126.5" style="fill:none;fill-rule:evenodd;stroke:#000000;stroke-width:2.0px;stroke-linecap:butt;stroke-linejoin:miter;stroke-opacity:1"/>
<path class="bond-2 atom-1 atom-3" d="M 200.4,98.4 L 172.4,86.7" style="fill:none;fill-rule:evenodd;stroke:#000000;stroke-width:2.0px;stroke-linecap:butt;stroke-linejoin:miter;stroke-opacity:1"/>
<path class="bond-3 atom-3 atom-4" d="M 172.4,86.7 L 148.2,105.1" style="fill:none;fill-rule:evenodd;stroke:#000000;stroke-width:2.0px;stroke-linecap:butt;stroke-linejoin:miter;stroke-opacity:1"/>
<path class="bond-4 atom-4 atom-5" d="M 148.2,105.1 L 120.1,93.3" style="fill:none;fill-rule:evenodd;stroke:#000000;stroke-width:2.0px;stroke-linecap:butt;stroke-linejoin:miter;stroke-opacity:1"/>
<path class="bond-5 atom-5 atom-6" d="M 120.1,93.3 L 95.9,111.7" style="fill:none;fill-rule:evenodd;stroke:#000000;stroke-width:2.0px;stroke-linecap:butt;stroke-linejoin:miter;stroke-opacity:1"/>
<path class="bond-6 atom-6 atom-7" d="M 95.9,111.7 L 67.9,99.9" style="fill:none;fill-rule:evenodd;stroke:#000000;stroke-width:2.0px;stroke-linecap:butt;stroke-linejoin:miter;stroke-opacity:1"/>
<path class="bond-7 atom-7 atom-8" d="M 67.9,99.9 L 39.9,88.2" style="fill:none;fill-rule:evenodd;stroke:#000000;stroke-width:2.0px;stroke-linecap:butt;stroke-linejoin:miter;stroke-opacity:1"/>
<path class="bond-8 atom-7 atom-9" d="M 67.9,99.9 L 79.7,71.9" style="fill:none;fill-rule:evenodd;stroke:#000000;stroke-width:2.0px;stroke-linecap:butt;stroke-linejoin:miter;stroke-opacity:1"/>
<path class="bond-9 atom-9 atom-10" d="M 79.7,71.9 L 72.6,62.6" style="fill:none;fill-rule:evenodd;stroke:#000000;stroke-width:2.0px;stroke-linecap:butt;stroke-linejoin:miter;stroke-opacity:1"/>
<path class="bond-9 atom-9 atom-10" d="M 72.6,62.6 L 65.5,53.2" style="fill:none;fill-rule:evenodd;stroke:#FF0000;stroke-width:2.0px;stroke-linecap:butt;stroke-linejoin:miter;stroke-opacity:1"/>
<path class="bond-10 atom-7 atom-11" d="M 67.9,99.9 L 56.2,128.0" style="fill:none;fill-rule:evenodd;stroke:#000000;stroke-width:2.0px;stroke-linecap:butt;stroke-linejoin:miter;stroke-opacity:1"/>
<path class="bond-11 atom-11 atom-12" d="M 53.5,128.3 L 61.1,138.2" style="fill:none;fill-rule:evenodd;stroke:#000000;stroke-width:2.0px;stroke-linecap:butt;stroke-linejoin:miter;stroke-opacity:1"/>
<path class="bond-11 atom-11 atom-12" d="M 61.1,138.2 L 68.7,148.2" style="fill:none;fill-rule:evenodd;stroke:#FF0000;stroke-width:2.0px;stroke-linecap:butt;stroke-linejoin:miter;stroke-opacity:1"/>
<path class="bond-11 atom-11 atom-12" d="M 57.2,125.5 L 64.7,135.5" style="fill:none;fill-rule:evenodd;stroke:#000000;stroke-width:2.0px;stroke-linecap:butt;stroke-linejoin:miter;stroke-opacity:1"/>
<path class="bond-11 atom-11 atom-12" d="M 64.7,135.5 L 72.3,145.4" style="fill:none;fill-rule:evenodd;stroke:#FF0000;stroke-width:2.0px;stroke-linecap:butt;stroke-linejoin:miter;stroke-opacity:1"/>
<path class="bond-12 atom-11 atom-13" d="M 56.2,128.0 L 43.6,129.6" style="fill:none;fill-rule:evenodd;stroke:#000000;stroke-width:2.0px;stroke-linecap:butt;stroke-linejoin:miter;stroke-opacity:1"/>
<path class="bond-12 atom-11 atom-13" d="M 43.6,129.6 L 31.0,131.2" style="fill:none;fill-rule:evenodd;stroke:#FF0000;stroke-width:2.0px;stroke-linecap:butt;stroke-linejoin:miter;stroke-opacity:1"/>
<path class="bond-13 atom-1 atom-14" d="M 200.4,98.4 L 228.4,110.2" style="fill:none;fill-rule:evenodd;stroke:#000000;stroke-width:2.0px;stroke-linecap:butt;stroke-linejoin:miter;stroke-opacity:1"/>
<path class="bond-14 atom-14 atom-15" d="M 228.7,112.8 L 238.9,105.1" style="fill:none;fill-rule:evenodd;stroke:#000000;stroke-width:2.0px;stroke-linecap:butt;stroke-linejoin:miter;stroke-opacity:1"/>
<path class="bond-14 atom-14 atom-15" d="M 238.9,105.1 L 249.0,97.4" style="fill:none;fill-rule:evenodd;stroke:#FF0000;stroke-width:2.0px;stroke-linecap:butt;stroke-linejoin:miter;stroke-opacity:1"/>
<path class="bond-14 atom-14 atom-15" d="M 226.0,109.2 L 236.1,101.5" style="fill:none;fill-rule:evenodd;stroke:#000000;stroke-width:2.0px;stroke-linecap:butt;stroke-linejoin:miter;stroke-opacity:1"/>
<path class="bond-14 atom-14 atom-15" d="M 236.1,101.5 L 246.3,93.8" style="fill:none;fill-rule:evenodd;stroke:#FF0000;stroke-width:2.0px;stroke-linecap:butt;stroke-linejoin:miter;stroke-opacity:1"/>
<path class="bond-15 atom-14 atom-16" d="M 228.4,110.2 L 230.0,122.6" style="fill:none;fill-rule:evenodd;stroke:#000000;stroke-width:2.0px;stroke-linecap:butt;stroke-linejoin:miter;stroke-opacity:1"/>
<path class="bond-15 atom-14 atom-16" d="M 230.0,122.6 L 231.5,135.0" style="fill:none;fill-rule:evenodd;stroke:#FF0000;stroke-width:2.0px;stroke-linecap:butt;stroke-linejoin:miter;stroke-opacity:1"/>
<path d="M 173.8,87.3 L 172.4,86.7 L 171.1,87.6" style="fill:none;stroke:#000000;stroke-width:2.0px;stroke-linecap:butt;stroke-linejoin:miter;stroke-opacity:1;"/>
<path d="M 149.4,104.1 L 148.2,105.1 L 146.8,104.5" style="fill:none;stroke:#000000;stroke-width:2.0px;stroke-linecap:butt;stroke-linejoin:miter;stroke-opacity:1;"/>
<path d="M 121.5,93.9 L 120.1,93.3 L 118.9,94.2" style="fill:none;stroke:#000000;stroke-width:2.0px;stroke-linecap:butt;stroke-linejoin:miter;stroke-opacity:1;"/>
<path d="M 97.1,110.8 L 95.9,111.7 L 94.5,111.1" style="fill:none;stroke:#000000;stroke-width:2.0px;stroke-linecap:butt;stroke-linejoin:miter;stroke-opacity:1;"/>
<path d="M 79.1,73.3 L 79.7,71.9 L 79.3,71.4" style="fill:none;stroke:#000000;stroke-width:2.0px;stroke-linecap:butt;stroke-linejoin:miter;stroke-opacity:1;"/>
<path d="M 56.7,126.6 L 56.2,128.0 L 55.5,128.0" style="fill:none;stroke:#000000;stroke-width:2.0px;stroke-linecap:butt;stroke-linejoin:miter;stroke-opacity:1;"/>
<path d="M 227.0,109.6 L 228.4,110.2 L 228.5,110.8" style="fill:none;stroke:#000000;stroke-width:2.0px;stroke-linecap:butt;stroke-linejoin:miter;stroke-opacity:1;"/>
<path class="atom-10" d="M 48.8 43.5 L 50.0 43.5 L 50.0 47.1 L 54.4 47.1 L 54.4 43.5 L 55.6 43.5 L 55.6 52.1 L 54.4 52.1 L 54.4 48.1 L 50.0 48.1 L 50.0 52.1 L 48.8 52.1 L 48.8 43.5 " fill="#FF0000"/>
<path class="atom-10" d="M 57.3 47.7 Q 57.3 45.7, 58.4 44.5 Q 59.4 43.4, 61.3 43.4 Q 63.2 43.4, 64.2 44.5 Q 65.2 45.7, 65.2 47.7 Q 65.2 49.8, 64.2 51.0 Q 63.2 52.2, 61.3 52.2 Q 59.4 52.2, 58.4 51.0 Q 57.3 49.8, 57.3 47.7 M 61.3 51.2 Q 62.6 51.2, 63.3 50.4 Q 64.0 49.5, 64.0 47.7 Q 64.0 46.0, 63.3 45.2 Q 62.6 44.3, 61.3 44.3 Q 60.0 44.3, 59.3 45.2 Q 58.6 46.0, 58.6 47.7 Q 58.6 49.5, 59.3 50.4 Q 60.0 51.2, 61.3 51.2 " fill="#FF0000"/>
<path class="atom-12" d="M 70.6 152.2 Q 70.6 150.1, 71.6 149.0 Q 72.6 147.8, 74.5 147.8 Q 76.4 147.8, 77.5 149.0 Q 78.5 150.1, 78.5 152.2 Q 78.5 154.3, 77.5 155.5 Q 76.4 156.6, 74.5 156.6 Q 72.6 156.6, 71.6 155.5 Q 70.6 154.3, 70.6 152.2 M 74.5 155.7 Q 75.9 155.7, 76.6 154.8 Q 77.3 153.9, 77.3 152.2 Q 77.3 150.5, 76.6 149.6 Q 75.9 148.8, 74.5 148.8 Q 73.2 148.8, 72.5 149.6 Q 71.8 150.5, 71.8 152.2 Q 71.8 153.9, 72.5 154.8 Q 73.2 155.7, 74.5 155.7 " fill="#FF0000"/>
<path class="atom-13" d="M 13.5 127.5 L 14.7 127.5 L 14.7 131.2 L 19.1 131.2 L 19.1 127.5 L 20.3 127.5 L 20.3 136.1 L 19.1 136.1 L 19.1 132.2 L 14.7 132.2 L 14.7 136.1 L 13.5 136.1 L 13.5 127.5 " fill="#FF0000"/>
<path class="atom-13" d="M 22.0 131.8 Q 22.0 129.7, 23.1 128.6 Q 24.1 127.4, 26.0 127.4 Q 27.9 127.4, 28.9 128.6 Q 30.0 129.7, 30.0 131.8 Q 30.0 133.9, 28.9 135.1 Q 27.9 136.3, 26.0 136.3 Q 24.1 136.3, 23.1 135.1 Q 22.0 133.9, 22.0 131.8 M 26.0 135.3 Q 27.3 135.3, 28.0 134.4 Q 28.7 133.5, 28.7 131.8 Q 28.7 130.1, 28.0 129.3 Q 27.3 128.4, 26.0 128.4 Q 24.7 128.4, 24.0 129.3 Q 23.3 130.1, 23.3 131.8 Q 23.3 133.5, 24.0 134.4 Q 24.7 135.3, 26.0 135.3 " fill="#FF0000"/>
<path class="atom-15" d="M 248.6 91.8 Q 248.6 89.8, 249.7 88.6 Q 250.7 87.5, 252.6 87.5 Q 254.5 87.5, 255.5 88.6 Q 256.6 89.8, 256.6 91.8 Q 256.6 93.9, 255.5 95.1 Q 254.5 96.3, 252.6 96.3 Q 250.7 96.3, 249.7 95.1 Q 248.6 93.9, 248.6 91.8 M 252.6 95.3 Q 253.9 95.3, 254.6 94.5 Q 255.3 93.6, 255.3 91.8 Q 255.3 90.2, 254.6 89.3 Q 253.9 88.4, 252.6 88.4 Q 251.3 88.4, 250.6 89.3 Q 249.9 90.1, 249.9 91.8 Q 249.9 93.6, 250.6 94.5 Q 251.3 95.3, 252.6 95.3 " fill="#FF0000"/>
<path class="atom-16" d="M 228.3 140.4 Q 228.3 138.3, 229.3 137.2 Q 230.3 136.0, 232.2 136.0 Q 234.1 136.0, 235.2 137.2 Q 236.2 138.3, 236.2 140.4 Q 236.2 142.5, 235.1 143.7 Q 234.1 144.8, 232.2 144.8 Q 230.3 144.8, 229.3 143.7 Q 228.3 142.5, 228.3 140.4 M 232.2 143.9 Q 233.5 143.9, 234.2 143.0 Q 235.0 142.1, 235.0 140.4 Q 235.0 138.7, 234.2 137.8 Q 233.5 137.0, 232.2 137.0 Q 230.9 137.0, 230.2 137.8 Q 229.5 138.7, 229.5 140.4 Q 229.5 142.1, 230.2 143.0 Q 230.9 143.9, 232.2 143.9 " fill="#FF0000"/>
<path class="atom-16" d="M 237.5 136.1 L 238.7 136.1 L 238.7 139.8 L 243.1 139.8 L 243.1 136.1 L 244.3 136.1 L 244.3 144.7 L 243.1 144.7 L 243.1 140.7 L 238.7 140.7 L 238.7 144.7 L 237.5 144.7 L 237.5 136.1 " fill="#FF0000"/>
</g>
  </g>
</svg>
