<?xml version='1.0' encoding='ASCII' standalone='yes'?>
<svg xmlns="http://www.w3.org/2000/svg" xmlns:xlink="http://www.w3.org/1999/xlink" version="1.1" width="863.0px" viewBox="0 0 863.0 200.0" height="200.0px">
  <g>
    <g transform="translate(0, 0) scale(1 1) "><!-- END OF HEADER -->
<rect style="opacity:1.0;fill:#FFFFFF;stroke:none" width="271.0" height="200.0" x="0.0" y="0.0"> </rect>
<path class="bond-0 atom-0 atom-1" d="M 47.5,18.4 L 68.4,45.3" style="fill:none;fill-rule:evenodd;stroke:#000000;stroke-width:2.0px;stroke-linecap:butt;stroke-linejoin:miter;stroke-opacity:1"/>
<path class="bond-1 atom-1 atom-2" d="M 68.4,45.3 L 55.6,76.9" style="fill:none;fill-rule:evenodd;stroke:#000000;stroke-width:2.0px;stroke-linecap:butt;stroke-linejoin:miter;stroke-opacity:1"/>
<path class="bond-2 atom-2 atom-3" d="M 55.6,76.9 L 76.5,103.9" style="fill:none;fill-rule:evenodd;stroke:#000000;stroke-width:2.0px;stroke-linecap:butt;stroke-linejoin:miter;stroke-opacity:1"/>
<path class="bond-3 atom-3 atom-4" d="M 76.5,103.9 L 97.4,130.8" style="fill:none;fill-rule:evenodd;stroke:#000000;stroke-width:2.0px;stroke-linecap:butt;stroke-linejoin:miter;stroke-opacity:1"/>
<path class="bond-4 atom-3 atom-5" d="M 76.5,103.9 L 103.5,82.9" style="fill:none;fill-rule:evenodd;stroke:#000000;stroke-width:2.0px;stroke-linecap:butt;stroke-linejoin:miter;stroke-opacity:1"/>
<path class="bond-5 atom-5 atom-6" d="M 103.5,82.9 L 116.5,88.2" style="fill:none;fill-rule:evenodd;stroke:#000000;stroke-width:2.0px;stroke-linecap:butt;stroke-linejoin:miter;stroke-opacity:1"/>
<path class="bond-5 atom-5 atom-6" d="M 116.5,88.2 L 129.5,93.5" style="fill:none;fill-rule:evenodd;stroke:#FF0000;stroke-width:2.0px;stroke-linecap:butt;stroke-linejoin:miter;stroke-opacity:1"/>
<path class="bond-6 atom-6 atom-7" d="M 140.6,91.5 L 151.3,83.2" style="fill:none;fill-rule:evenodd;stroke:#FF0000;stroke-width:2.0px;stroke-linecap:butt;stroke-linejoin:miter;stroke-opacity:1"/>
<path class="bond-6 atom-6 atom-7" d="M 151.3,83.2 L 162.0,74.9" style="fill:none;fill-rule:evenodd;stroke:#000000;stroke-width:2.0px;stroke-linecap:butt;stroke-linejoin:miter;stroke-opacity:1"/>
<path class="bond-7 atom-7 atom-8" d="M 162.0,74.9 L 193.6,87.7" style="fill:none;fill-rule:evenodd;stroke:#000000;stroke-width:2.0px;stroke-linecap:butt;stroke-linejoin:miter;stroke-opacity:1"/>
<path class="bond-8 atom-8 atom-9" d="M 193.6,87.7 L 180.7,119.3" style="fill:none;fill-rule:evenodd;stroke:#000000;stroke-width:2.0px;stroke-linecap:butt;stroke-linejoin:miter;stroke-opacity:1"/>
<path class="bond-9 atom-8 atom-10" d="M 193.6,87.7 L 206.4,56.1" style="fill:none;fill-rule:evenodd;stroke:#000000;stroke-width:2.0px;stroke-linecap:butt;stroke-linejoin:miter;stroke-opacity:1"/>
<path class="bond-10 atom-8 atom-11" d="M 193.6,87.7 L 225.2,100.6" style="fill:none;fill-rule:evenodd;stroke:#000000;stroke-width:2.0px;stroke-linecap:butt;stroke-linejoin:miter;stroke-opacity:1"/>
<path class="bond-11 atom-11 atom-12" d="M 225.6,103.5 L 236.9,94.7" style="fill:none;fill-rule:evenodd;stroke:#000000;stroke-width:2.0px;stroke-linecap:butt;stroke-linejoin:miter;stroke-opacity:1"/>
<path class="bond-11 atom-11 atom-12" d="M 236.9,94.7 L 248.1,86.0" style="fill:none;fill-rule:evenodd;stroke:#FF0000;stroke-width:2.0px;stroke-linecap:butt;stroke-linejoin:miter;stroke-opacity:1"/>
<path class="bond-11 atom-11 atom-12" d="M 222.4,99.5 L 233.7,90.7" style="fill:none;fill-rule:evenodd;stroke:#000000;stroke-width:2.0px;stroke-linecap:butt;stroke-linejoin:miter;stroke-opacity:1"/>
<path class="bond-11 atom-11 atom-12" d="M 233.7,90.7 L 245.0,81.9" style="fill:none;fill-rule:evenodd;stroke:#FF0000;stroke-width:2.0px;stroke-linecap:butt;stroke-linejoin:miter;stroke-opacity:1"/>
<path class="bond-12 atom-11 atom-13" d="M 225.2,100.6 L 227.1,114.5" style="fill:none;fill-rule:evenodd;stroke:#000000;stroke-width:2.0px;stroke-linecap:butt;stroke-linejoin:miter;stroke-opacity:1"/>
<path class="bond-12 atom-11 atom-13" d="M 227.1,114.5 L 229.0,128.4" style="fill:none;fill-rule:evenodd;stroke:#FF0000;stroke-width:2.0px;stroke-linecap:butt;stroke-linejoin:miter;stroke-opacity:1"/>
<path class="bond-13 atom-3 atom-14" d="M 76.5,103.9 L 49.6,124.8" style="fill:none;fill-rule:evenodd;stroke:#000000;stroke-width:2.0px;stroke-linecap:butt;stroke-linejoin:miter;stroke-opacity:1"/>
<path class="bond-14 atom-14 atom-15" d="M 51.9,123.0 L 38.2,117.4" style="fill:none;fill-rule:evenodd;stroke:#000000;stroke-width:2.0px;stroke-linecap:butt;stroke-linejoin:miter;stroke-opacity:1"/>
<path class="bond-14 atom-14 atom-15" d="M 38.2,117.4 L 24.5,111.8" style="fill:none;fill-rule:evenodd;stroke:#FF0000;stroke-width:2.0px;stroke-linecap:butt;stroke-linejoin:miter;stroke-opacity:1"/>
<path class="bond-14 atom-14 atom-15" d="M 50.0,127.7 L 36.3,122.1" style="fill:none;fill-rule:evenodd;stroke:#000000;stroke-width:2.0px;stroke-linecap:butt;stroke-linejoin:miter;stroke-opacity:1"/>
<path class="bond-14 atom-14 atom-15" d="M 36.3,122.1 L 22.6,116.6" style="fill:none;fill-rule:evenodd;stroke:#FF0000;stroke-width:2.0px;stroke-linecap:butt;stroke-linejoin:miter;stroke-opacity:1"/>
<path class="bond-15 atom-14 atom-16" d="M 49.6,124.8 L 51.5,138.7" style="fill:none;fill-rule:evenodd;stroke:#000000;stroke-width:2.0px;stroke-linecap:butt;stroke-linejoin:miter;stroke-opacity:1"/>
<path class="bond-15 atom-14 atom-16" d="M 51.5,138.7 L 53.4,152.6" style="fill:none;fill-rule:evenodd;stroke:#FF0000;stroke-width:2.0px;stroke-linecap:butt;stroke-linejoin:miter;stroke-opacity:1"/>
<path d="M 67.4,44.0 L 68.4,45.3 L 67.8,46.9" style="fill:none;stroke:#000000;stroke-width:2.0px;stroke-linecap:butt;stroke-linejoin:miter;stroke-opacity:1;"/>
<path d="M 56.2,75.3 L 55.6,76.9 L 56.6,78.3" style="fill:none;stroke:#000000;stroke-width:2.0px;stroke-linecap:butt;stroke-linejoin:miter;stroke-opacity:1;"/>
<path d="M 102.1,84.0 L 103.5,82.9 L 104.1,83.2" style="fill:none;stroke:#000000;stroke-width:2.0px;stroke-linecap:butt;stroke-linejoin:miter;stroke-opacity:1;"/>
<path d="M 161.5,75.3 L 162.0,74.9 L 163.6,75.5" style="fill:none;stroke:#000000;stroke-width:2.0px;stroke-linecap:butt;stroke-linejoin:miter;stroke-opacity:1;"/>
<path d="M 223.6,99.9 L 225.2,100.6 L 225.3,101.3" style="fill:none;stroke:#000000;stroke-width:2.0px;stroke-linecap:butt;stroke-linejoin:miter;stroke-opacity:1;"/>
<path d="M 50.9,123.7 L 49.6,124.8 L 49.7,125.5" style="fill:none;stroke:#000000;stroke-width:2.0px;stroke-linecap:butt;stroke-linejoin:miter;stroke-opacity:1;"/>
<path class="atom-6" d="M 130.6 95.8 Q 130.6 93.5, 131.8 92.2 Q 132.9 90.9, 135.0 90.9 Q 137.2 90.9, 138.3 92.2 Q 139.5 93.5, 139.5 95.8 Q 139.5 98.2, 138.3 99.5 Q 137.2 100.8, 135.0 100.8 Q 132.9 100.8, 131.8 99.5 Q 130.6 98.2, 130.6 95.8 M 135.0 99.7 Q 136.5 99.7, 137.3 98.7 Q 138.1 97.8, 138.1 95.8 Q 138.1 93.9, 137.3 93.0 Q 136.5 92.0, 135.0 92.0 Q 133.6 92.0, 132.8 92.9 Q 132.0 93.9, 132.0 95.8 Q 132.0 97.8, 132.8 98.7 Q 133.6 99.7, 135.0 99.7 " fill="#FF0000"/>
<path class="atom-12" d="M 247.7 79.7 Q 247.7 77.4, 248.8 76.1 Q 250.0 74.8, 252.1 74.8 Q 254.3 74.8, 255.4 76.1 Q 256.6 77.4, 256.6 79.7 Q 256.6 82.0, 255.4 83.4 Q 254.2 84.7, 252.1 84.7 Q 250.0 84.7, 248.8 83.4 Q 247.7 82.0, 247.7 79.7 M 252.1 83.6 Q 253.6 83.6, 254.4 82.6 Q 255.2 81.6, 255.2 79.7 Q 255.2 77.8, 254.4 76.8 Q 253.6 75.9, 252.1 75.9 Q 250.6 75.9, 249.8 76.8 Q 249.0 77.8, 249.0 79.7 Q 249.0 81.6, 249.8 82.6 Q 250.6 83.6, 252.1 83.6 " fill="#FF0000"/>
<path class="atom-13" d="M 225.4 134.4 Q 225.4 132.1, 226.5 130.8 Q 227.7 129.5, 229.8 129.5 Q 232.0 129.5, 233.1 130.8 Q 234.3 132.1, 234.3 134.4 Q 234.3 136.7, 233.1 138.1 Q 232.0 139.4, 229.8 139.4 Q 227.7 139.4, 226.5 138.1 Q 225.4 136.8, 225.4 134.4 M 229.8 138.3 Q 231.3 138.3, 232.1 137.3 Q 232.9 136.3, 232.9 134.4 Q 232.9 132.5, 232.1 131.5 Q 231.3 130.6, 229.8 130.6 Q 228.4 130.6, 227.6 131.5 Q 226.8 132.5, 226.8 134.4 Q 226.8 136.4, 227.6 137.3 Q 228.4 138.3, 229.8 138.3 " fill="#FF0000"/>
<path class="atom-13" d="M 235.8 129.6 L 237.1 129.6 L 237.1 133.7 L 242.0 133.7 L 242.0 129.6 L 243.3 129.6 L 243.3 139.3 L 242.0 139.3 L 242.0 134.8 L 237.1 134.8 L 237.1 139.3 L 235.8 139.3 L 235.8 129.6 " fill="#FF0000"/>
<path class="atom-15" d="M 13.6 112.0 Q 13.6 109.6, 14.7 108.3 Q 15.8 107.0, 18.0 107.0 Q 20.1 107.0, 21.3 108.3 Q 22.4 109.6, 22.4 112.0 Q 22.4 114.3, 21.3 115.6 Q 20.1 117.0, 18.0 117.0 Q 15.9 117.0, 14.7 115.6 Q 13.6 114.3, 13.6 112.0 M 18.0 115.9 Q 19.5 115.9, 20.2 114.9 Q 21.1 113.9, 21.1 112.0 Q 21.1 110.1, 20.2 109.1 Q 19.5 108.1, 18.0 108.1 Q 16.5 108.1, 15.7 109.1 Q 14.9 110.0, 14.9 112.0 Q 14.9 113.9, 15.7 114.9 Q 16.5 115.9, 18.0 115.9 " fill="#FF0000"/>
<path class="atom-16" d="M 49.8 158.6 Q 49.8 156.3, 51.0 155.0 Q 52.1 153.7, 54.2 153.7 Q 56.4 153.7, 57.5 155.0 Q 58.7 156.3, 58.7 158.6 Q 58.7 161.0, 57.5 162.3 Q 56.4 163.6, 54.2 163.6 Q 52.1 163.6, 51.0 162.3 Q 49.8 161.0, 49.8 158.6 M 54.2 162.5 Q 55.7 162.5, 56.5 161.5 Q 57.3 160.5, 57.3 158.6 Q 57.3 156.7, 56.5 155.8 Q 55.7 154.8, 54.2 154.8 Q 52.8 154.8, 52.0 155.7 Q 51.2 156.7, 51.2 158.6 Q 51.2 160.6, 52.0 161.5 Q 52.8 162.5, 54.2 162.5 " fill="#FF0000"/>
<path class="atom-16" d="M 60.2 153.8 L 61.5 153.8 L 61.5 157.9 L 66.4 157.9 L 66.4 153.8 L 67.7 153.8 L 67.7 163.5 L 66.4 163.5 L 66.4 159.0 L 61.5 159.0 L 61.5 163.5 L 60.2 163.5 L 60.2 153.8 " fill="#FF0000"/>
<path class="legend" d="M 126.0 181.9 Q 126.0 179.6, 126.7 177.7 Q 127.4 175.8, 128.7 173.8 L 129.6 174.4 Q 128.5 176.3, 128.0 178.0 Q 127.5 179.7, 127.5 181.9 Q 127.5 184.0, 128.0 185.8 Q 128.5 187.5, 129.6 189.4 L 128.7 190.0 Q 127.4 188.0, 126.7 186.1 Q 126.0 184.2, 126.0 181.9 " fill="#000000"/>
<path class="legend" d="M 130.5 177.3 Q 130.9 176.2, 131.9 175.6 Q 132.9 175.0, 134.3 175.0 Q 136.0 175.0, 136.9 175.9 Q 137.9 176.8, 137.9 178.5 Q 137.9 180.2, 136.6 181.7 Q 135.4 183.3, 132.9 185.2 L 138.1 185.2 L 138.1 186.4 L 130.5 186.4 L 130.5 185.4 Q 132.6 183.9, 133.8 182.8 Q 135.1 181.6, 135.7 180.6 Q 136.3 179.6, 136.3 178.6 Q 136.3 177.5, 135.8 176.9 Q 135.2 176.3, 134.3 176.3 Q 133.3 176.3, 132.7 176.6 Q 132.1 177.0, 131.7 177.8 L 130.5 177.3 " fill="#000000"/>
<path class="legend" d="M 143.1 181.9 Q 143.1 184.2, 142.4 186.1 Q 141.7 188.0, 140.4 190.0 L 139.5 189.4 Q 140.6 187.5, 141.1 185.8 Q 141.6 184.0, 141.6 181.9 Q 141.6 179.7, 141.1 178.0 Q 140.6 176.3, 139.5 174.4 L 140.4 173.8 Q 141.7 175.8, 142.4 177.7 Q 143.1 179.6, 143.1 181.9 " fill="#000000"/>
</g>
    <g transform="translate(271.0, 0) scale(1 1) "><line x1="5" y1="100" x2="35" y2="100" style="stroke:rgb(0,0,0);stroke-width:2"/>
  <line x1="34" y1="100" x2="29" y2="95" style="stroke:rgb(0,0,0);stroke-width:2"/>
  <line x1="34" y1="100" x2="29" y2="105" style="stroke:rgb(0,0,0);stroke-width:2"/>
</g>
    <g transform="translate(311.0, 0) scale(1 1) "><!-- END OF HEADER -->
<rect style="opacity:1.0;fill:#FFFFFF;stroke:none" width="307.0" height="200.0" x="0.0" y="0.0"> </rect>
<path class="bond-0 atom-0 atom-1" d="M 15.4,63.3 L 39.0,75.5" style="fill:none;fill-rule:evenodd;stroke:#000000;stroke-width:2.0px;stroke-linecap:butt;stroke-linejoin:miter;stroke-opacity:1"/>
<path class="bond-1 atom-1 atom-2" d="M 39.0,75.5 L 40.2,102.0" style="fill:none;fill-rule:evenodd;stroke:#000000;stroke-width:2.0px;stroke-linecap:butt;stroke-linejoin:miter;stroke-opacity:1"/>
<path class="bond-2 atom-2 atom-3" d="M 40.2,102.0 L 63.8,114.2" style="fill:none;fill-rule:evenodd;stroke:#000000;stroke-width:2.0px;stroke-linecap:butt;stroke-linejoin:miter;stroke-opacity:1"/>
<path class="bond-3 atom-3 atom-4" d="M 63.8,114.2 L 87.4,126.4" style="fill:none;fill-rule:evenodd;stroke:#000000;stroke-width:2.0px;stroke-linecap:butt;stroke-linejoin:miter;stroke-opacity:1"/>
<path class="bond-4 atom-3 atom-5" d="M 63.8,114.2 L 76.0,90.6" style="fill:none;fill-rule:evenodd;stroke:#000000;stroke-width:2.0px;stroke-linecap:butt;stroke-linejoin:miter;stroke-opacity:1"/>
<path class="bond-5 atom-5 atom-6" d="M 76.0,90.6 L 87.1,90.1" style="fill:none;fill-rule:evenodd;stroke:#000000;stroke-width:2.0px;stroke-linecap:butt;stroke-linejoin:miter;stroke-opacity:1"/>
<path class="bond-5 atom-5 atom-6" d="M 87.1,90.1 L 98.2,89.6" style="fill:none;fill-rule:evenodd;stroke:#FF0000;stroke-width:2.0px;stroke-linecap:butt;stroke-linejoin:miter;stroke-opacity:1"/>
<path class="bond-6 atom-6 atom-7" d="M 104.9,84.7 L 109.8,75.2" style="fill:none;fill-rule:evenodd;stroke:#FF0000;stroke-width:2.0px;stroke-linecap:butt;stroke-linejoin:miter;stroke-opacity:1"/>
<path class="bond-6 atom-6 atom-7" d="M 109.8,75.2 L 114.7,65.8" style="fill:none;fill-rule:evenodd;stroke:#000000;stroke-width:2.0px;stroke-linecap:butt;stroke-linejoin:miter;stroke-opacity:1"/>
<path class="bond-7 atom-7 atom-8" d="M 114.7,65.8 L 141.3,64.5" style="fill:none;fill-rule:evenodd;stroke:#000000;stroke-width:2.0px;stroke-linecap:butt;stroke-linejoin:miter;stroke-opacity:1"/>
<path class="bond-8 atom-8 atom-9" d="M 141.3,64.5 L 142.5,91.1" style="fill:none;fill-rule:evenodd;stroke:#000000;stroke-width:2.0px;stroke-linecap:butt;stroke-linejoin:miter;stroke-opacity:1"/>
<path class="bond-9 atom-8 atom-10" d="M 141.3,64.5 L 140.0,38.0" style="fill:none;fill-rule:evenodd;stroke:#000000;stroke-width:2.0px;stroke-linecap:butt;stroke-linejoin:miter;stroke-opacity:1"/>
<path class="bond-10 atom-8 atom-11" d="M 141.3,64.5 L 167.8,63.3" style="fill:none;fill-rule:evenodd;stroke:#000000;stroke-width:2.0px;stroke-linecap:butt;stroke-linejoin:miter;stroke-opacity:1"/>
<path class="bond-11 atom-11 atom-12" d="M 169.0,65.2 L 174.2,55.3" style="fill:none;fill-rule:evenodd;stroke:#000000;stroke-width:2.0px;stroke-linecap:butt;stroke-linejoin:miter;stroke-opacity:1"/>
<path class="bond-11 atom-11 atom-12" d="M 174.2,55.3 L 179.3,45.4" style="fill:none;fill-rule:evenodd;stroke:#FF0000;stroke-width:2.0px;stroke-linecap:butt;stroke-linejoin:miter;stroke-opacity:1"/>
<path class="bond-11 atom-11 atom-12" d="M 165.5,63.4 L 170.6,53.5" style="fill:none;fill-rule:evenodd;stroke:#000000;stroke-width:2.0px;stroke-linecap:butt;stroke-linejoin:miter;stroke-opacity:1"/>
<path class="bond-11 atom-11 atom-12" d="M 170.6,53.5 L 175.7,43.6" style="fill:none;fill-rule:evenodd;stroke:#FF0000;stroke-width:2.0px;stroke-linecap:butt;stroke-linejoin:miter;stroke-opacity:1"/>
<path class="bond-12 atom-11 atom-13" d="M 167.8,63.3 L 173.5,72.1" style="fill:none;fill-rule:evenodd;stroke:#000000;stroke-width:2.0px;stroke-linecap:butt;stroke-linejoin:miter;stroke-opacity:1"/>
<path class="bond-12 atom-11 atom-13" d="M 173.5,72.1 L 179.1,81.0" style="fill:none;fill-rule:evenodd;stroke:#FF0000;stroke-width:2.0px;stroke-linecap:butt;stroke-linejoin:miter;stroke-opacity:1"/>
<path class="bond-13 atom-13 atom-14" d="M 186.5,85.5 L 197.6,84.9" style="fill:none;fill-rule:evenodd;stroke:#FF0000;stroke-width:2.0px;stroke-linecap:butt;stroke-linejoin:miter;stroke-opacity:1"/>
<path class="bond-13 atom-13 atom-14" d="M 197.6,84.9 L 208.7,84.4" style="fill:none;fill-rule:evenodd;stroke:#000000;stroke-width:2.0px;stroke-linecap:butt;stroke-linejoin:miter;stroke-opacity:1"/>
<path class="bond-14 atom-14 atom-15" d="M 208.7,84.4 L 223.0,106.8" style="fill:none;fill-rule:evenodd;stroke:#000000;stroke-width:2.0px;stroke-linecap:butt;stroke-linejoin:miter;stroke-opacity:1"/>
<path class="bond-15 atom-15 atom-16" d="M 223.0,106.8 L 200.7,121.1" style="fill:none;fill-rule:evenodd;stroke:#000000;stroke-width:2.0px;stroke-linecap:butt;stroke-linejoin:miter;stroke-opacity:1"/>
<path class="bond-16 atom-15 atom-17" d="M 223.0,106.8 L 245.4,92.4" style="fill:none;fill-rule:evenodd;stroke:#000000;stroke-width:2.0px;stroke-linecap:butt;stroke-linejoin:miter;stroke-opacity:1"/>
<path class="bond-17 atom-17 atom-18" d="M 245.4,92.4 L 269.0,104.6" style="fill:none;fill-rule:evenodd;stroke:#000000;stroke-width:2.0px;stroke-linecap:butt;stroke-linejoin:miter;stroke-opacity:1"/>
<path class="bond-18 atom-18 atom-19" d="M 269.0,104.6 L 291.4,90.3" style="fill:none;fill-rule:evenodd;stroke:#000000;stroke-width:2.0px;stroke-linecap:butt;stroke-linejoin:miter;stroke-opacity:1"/>
<path class="bond-19 atom-15 atom-20" d="M 223.0,106.8 L 237.4,129.1" style="fill:none;fill-rule:evenodd;stroke:#000000;stroke-width:2.0px;stroke-linecap:butt;stroke-linejoin:miter;stroke-opacity:1"/>
<path class="bond-20 atom-20 atom-21" d="M 236.3,131.2 L 248.0,130.6" style="fill:none;fill-rule:evenodd;stroke:#000000;stroke-width:2.0px;stroke-linecap:butt;stroke-linejoin:miter;stroke-opacity:1"/>
<path class="bond-20 atom-20 atom-21" d="M 248.0,130.6 L 259.7,130.1" style="fill:none;fill-rule:evenodd;stroke:#FF0000;stroke-width:2.0px;stroke-linecap:butt;stroke-linejoin:miter;stroke-opacity:1"/>
<path class="bond-20 atom-20 atom-21" d="M 236.1,127.2 L 247.8,126.7" style="fill:none;fill-rule:evenodd;stroke:#000000;stroke-width:2.0px;stroke-linecap:butt;stroke-linejoin:miter;stroke-opacity:1"/>
<path class="bond-20 atom-20 atom-21" d="M 247.8,126.7 L 259.5,126.1" style="fill:none;fill-rule:evenodd;stroke:#FF0000;stroke-width:2.0px;stroke-linecap:butt;stroke-linejoin:miter;stroke-opacity:1"/>
<path class="bond-21 atom-20 atom-22" d="M 237.4,129.1 L 232.5,138.6" style="fill:none;fill-rule:evenodd;stroke:#000000;stroke-width:2.0px;stroke-linecap:butt;stroke-linejoin:miter;stroke-opacity:1"/>
<path class="bond-21 atom-20 atom-22" d="M 232.5,138.6 L 227.6,148.1" style="fill:none;fill-rule:evenodd;stroke:#FF0000;stroke-width:2.0px;stroke-linecap:butt;stroke-linejoin:miter;stroke-opacity:1"/>
<path class="bond-22 atom-3 atom-23" d="M 63.8,114.2 L 51.6,137.8" style="fill:none;fill-rule:evenodd;stroke:#000000;stroke-width:2.0px;stroke-linecap:butt;stroke-linejoin:miter;stroke-opacity:1"/>
<path class="bond-23 atom-23 atom-24" d="M 52.7,135.8 L 41.0,136.3" style="fill:none;fill-rule:evenodd;stroke:#000000;stroke-width:2.0px;stroke-linecap:butt;stroke-linejoin:miter;stroke-opacity:1"/>
<path class="bond-23 atom-23 atom-24" d="M 41.0,136.3 L 29.3,136.9" style="fill:none;fill-rule:evenodd;stroke:#FF0000;stroke-width:2.0px;stroke-linecap:butt;stroke-linejoin:miter;stroke-opacity:1"/>
<path class="bond-23 atom-23 atom-24" d="M 52.8,139.8 L 41.2,140.3" style="fill:none;fill-rule:evenodd;stroke:#000000;stroke-width:2.0px;stroke-linecap:butt;stroke-linejoin:miter;stroke-opacity:1"/>
<path class="bond-23 atom-23 atom-24" d="M 41.2,140.3 L 29.5,140.9" style="fill:none;fill-rule:evenodd;stroke:#FF0000;stroke-width:2.0px;stroke-linecap:butt;stroke-linejoin:miter;stroke-opacity:1"/>
<path class="bond-24 atom-23 atom-25" d="M 51.6,137.8 L 57.3,146.7" style="fill:none;fill-rule:evenodd;stroke:#000000;stroke-width:2.0px;stroke-linecap:butt;stroke-linejoin:miter;stroke-opacity:1"/>
<path class="bond-24 atom-23 atom-25" d="M 57.3,146.7 L 62.9,155.5" style="fill:none;fill-rule:evenodd;stroke:#FF0000;stroke-width:2.0px;stroke-linecap:butt;stroke-linejoin:miter;stroke-opacity:1"/>
<path d="M 37.8,74.9 L 39.0,75.5 L 39.0,76.8" style="fill:none;stroke:#000000;stroke-width:2.0px;stroke-linecap:butt;stroke-linejoin:miter;stroke-opacity:1;"/>
<path d="M 40.1,100.7 L 40.2,102.0 L 41.4,102.6" style="fill:none;stroke:#000000;stroke-width:2.0px;stroke-linecap:butt;stroke-linejoin:miter;stroke-opacity:1;"/>
<path d="M 75.4,91.8 L 76.0,90.6 L 76.5,90.6" style="fill:none;stroke:#000000;stroke-width:2.0px;stroke-linecap:butt;stroke-linejoin:miter;stroke-opacity:1;"/>
<path d="M 114.5,66.3 L 114.7,65.8 L 116.0,65.7" style="fill:none;stroke:#000000;stroke-width:2.0px;stroke-linecap:butt;stroke-linejoin:miter;stroke-opacity:1;"/>
<path d="M 166.5,63.4 L 167.8,63.3 L 168.1,63.7" style="fill:none;stroke:#000000;stroke-width:2.0px;stroke-linecap:butt;stroke-linejoin:miter;stroke-opacity:1;"/>
<path d="M 208.1,84.4 L 208.7,84.4 L 209.4,85.5" style="fill:none;stroke:#000000;stroke-width:2.0px;stroke-linecap:butt;stroke-linejoin:miter;stroke-opacity:1;"/>
<path d="M 244.3,93.2 L 245.4,92.4 L 246.6,93.0" style="fill:none;stroke:#000000;stroke-width:2.0px;stroke-linecap:butt;stroke-linejoin:miter;stroke-opacity:1;"/>
<path d="M 267.8,104.0 L 269.0,104.6 L 270.1,103.9" style="fill:none;stroke:#000000;stroke-width:2.0px;stroke-linecap:butt;stroke-linejoin:miter;stroke-opacity:1;"/>
<path d="M 236.7,128.0 L 237.4,129.1 L 237.1,129.6" style="fill:none;stroke:#000000;stroke-width:2.0px;stroke-linecap:butt;stroke-linejoin:miter;stroke-opacity:1;"/>
<path d="M 52.2,136.6 L 51.6,137.8 L 51.9,138.3" style="fill:none;stroke:#000000;stroke-width:2.0px;stroke-linecap:butt;stroke-linejoin:miter;stroke-opacity:1;"/>
<path class="atom-6" d="M 99.1 89.4 Q 99.1 87.6, 100.0 86.6 Q 100.9 85.6, 102.5 85.6 Q 104.2 85.6, 105.1 86.6 Q 106.0 87.6, 106.0 89.4 Q 106.0 91.2, 105.1 92.3 Q 104.2 93.3, 102.5 93.3 Q 100.9 93.3, 100.0 92.3 Q 99.1 91.2, 99.1 89.4 M 102.5 92.5 Q 103.7 92.5, 104.3 91.7 Q 104.9 90.9, 104.9 89.4 Q 104.9 87.9, 104.3 87.2 Q 103.7 86.4, 102.5 86.4 Q 101.4 86.4, 100.8 87.2 Q 100.1 87.9, 100.1 89.4 Q 100.1 90.9, 100.8 91.7 Q 101.4 92.5, 102.5 92.5 " fill="#FF0000"/>
<path class="atom-12" d="M 176.5 39.7 Q 176.5 37.9, 177.4 36.9 Q 178.3 35.9, 180.0 35.9 Q 181.7 35.9, 182.6 36.9 Q 183.4 37.9, 183.4 39.7 Q 183.4 41.5, 182.5 42.6 Q 181.6 43.6, 180.0 43.6 Q 178.3 43.6, 177.4 42.6 Q 176.5 41.6, 176.5 39.7 M 180.0 42.8 Q 181.1 42.8, 181.8 42.0 Q 182.4 41.2, 182.4 39.7 Q 182.4 38.2, 181.8 37.5 Q 181.1 36.7, 180.0 36.7 Q 178.8 36.7, 178.2 37.5 Q 177.6 38.2, 177.6 39.7 Q 177.6 41.2, 178.2 42.0 Q 178.8 42.8, 180.0 42.8 " fill="#FF0000"/>
<path class="atom-13" d="M 178.7 85.7 Q 178.7 83.9, 179.6 82.9 Q 180.5 81.9, 182.1 81.9 Q 183.8 81.9, 184.7 82.9 Q 185.6 83.9, 185.6 85.7 Q 185.6 87.5, 184.7 88.5 Q 183.8 89.6, 182.1 89.6 Q 180.5 89.6, 179.6 88.5 Q 178.7 87.5, 178.7 85.7 M 182.1 88.7 Q 183.3 88.7, 183.9 88.0 Q 184.5 87.2, 184.5 85.7 Q 184.5 84.2, 183.9 83.5 Q 183.3 82.7, 182.1 82.7 Q 181.0 82.7, 180.4 83.4 Q 179.8 84.2, 179.8 85.7 Q 179.8 87.2, 180.4 88.0 Q 181.0 88.7, 182.1 88.7 " fill="#FF0000"/>
<path class="atom-21" d="M 260.5 127.9 Q 260.5 126.1, 261.3 125.1 Q 262.2 124.1, 263.9 124.1 Q 265.6 124.1, 266.5 125.1 Q 267.4 126.1, 267.4 127.9 Q 267.4 129.7, 266.5 130.8 Q 265.6 131.8, 263.9 131.8 Q 262.2 131.8, 261.3 130.8 Q 260.5 129.8, 260.5 127.9 M 263.9 131.0 Q 265.1 131.0, 265.7 130.2 Q 266.3 129.4, 266.3 127.9 Q 266.3 126.4, 265.7 125.7 Q 265.1 124.9, 263.9 124.9 Q 262.8 124.9, 262.1 125.7 Q 261.5 126.4, 261.5 127.9 Q 261.5 129.4, 262.1 130.2 Q 262.8 131.0, 263.9 131.0 " fill="#FF0000"/>
<path class="atom-22" d="M 214.3 149.0 L 215.3 149.0 L 215.3 152.2 L 219.2 152.2 L 219.2 149.0 L 220.2 149.0 L 220.2 156.5 L 219.2 156.5 L 219.2 153.1 L 215.3 153.1 L 215.3 156.5 L 214.3 156.5 L 214.3 149.0 " fill="#FF0000"/>
<path class="atom-22" d="M 221.7 152.8 Q 221.7 151.0, 222.6 149.9 Q 223.5 148.9, 225.2 148.9 Q 226.8 148.9, 227.7 149.9 Q 228.6 151.0, 228.6 152.8 Q 228.6 154.6, 227.7 155.6 Q 226.8 156.7, 225.2 156.7 Q 223.5 156.7, 222.6 155.6 Q 221.7 154.6, 221.7 152.8 M 225.2 155.8 Q 226.3 155.8, 226.9 155.0 Q 227.6 154.3, 227.6 152.8 Q 227.6 151.3, 226.9 150.5 Q 226.3 149.8, 225.2 149.8 Q 224.0 149.8, 223.4 150.5 Q 222.8 151.3, 222.8 152.8 Q 222.8 154.3, 223.4 155.0 Q 224.0 155.8, 225.2 155.8 " fill="#FF0000"/>
<path class="atom-24" d="M 21.6 139.1 Q 21.6 137.3, 22.5 136.3 Q 23.4 135.3, 25.1 135.3 Q 26.7 135.3, 27.6 136.3 Q 28.5 137.3, 28.5 139.1 Q 28.5 140.9, 27.6 142.0 Q 26.7 143.0, 25.1 143.0 Q 23.4 143.0, 22.5 142.0 Q 21.6 140.9, 21.6 139.1 M 25.1 142.1 Q 26.2 142.1, 26.8 141.4 Q 27.5 140.6, 27.5 139.1 Q 27.5 137.6, 26.8 136.9 Q 26.2 136.1, 25.1 136.1 Q 23.9 136.1, 23.3 136.9 Q 22.7 137.6, 22.7 139.1 Q 22.7 140.6, 23.3 141.4 Q 23.9 142.1, 25.1 142.1 " fill="#FF0000"/>
<path class="atom-25" d="M 62.5 160.2 Q 62.5 158.4, 63.4 157.4 Q 64.3 156.4, 65.9 156.4 Q 67.6 156.4, 68.5 157.4 Q 69.4 158.4, 69.4 160.2 Q 69.4 162.0, 68.5 163.1 Q 67.6 164.1, 65.9 164.1 Q 64.3 164.1, 63.4 163.1 Q 62.5 162.1, 62.5 160.2 M 65.9 163.3 Q 67.1 163.3, 67.7 162.5 Q 68.3 161.7, 68.3 160.2 Q 68.3 158.7, 67.7 158.0 Q 67.1 157.2, 65.9 157.2 Q 64.8 157.2, 64.2 158.0 Q 63.6 158.7, 63.6 160.2 Q 63.6 161.7, 64.2 162.5 Q 64.8 163.3, 65.9 163.3 " fill="#FF0000"/>
<path class="atom-25" d="M 70.6 156.5 L 71.6 156.5 L 71.6 159.7 L 75.4 159.7 L 75.4 156.5 L 76.5 156.5 L 76.5 164.0 L 75.4 164.0 L 75.4 160.5 L 71.6 160.5 L 71.6 164.0 L 70.6 164.0 L 70.6 156.5 " fill="#FF0000"/>
</g>
    <g transform="translate(618.0, 0) scale(1 1) "><line x1="15" y1="100" x2="25" y2="100" style="stroke:rgb(0,0,0);stroke-width:2"/>
  <line x1="20" y1="95" x2="20" y2="105" style="stroke:rgb(0,0,0);stroke-width:2"/>
</g>
    <g transform="translate(658.0, 0) scale(1 1) "><!-- END OF HEADER -->
<rect style="opacity:1.0;fill:#FFFFFF;stroke:none" width="205.0" height="200.0" x="0.0" y="0.0"> </rect>
<path class="bond-0 atom-0 atom-1" d="M 122.6,44.3 L 108.8,89.2" style="fill:none;fill-rule:evenodd;stroke:#000000;stroke-width:2.0px;stroke-linecap:butt;stroke-linejoin:miter;stroke-opacity:1"/>
<path class="bond-1 atom-1 atom-2" d="M 108.8,89.2 L 95.0,134.1" style="fill:none;fill-rule:evenodd;stroke:#000000;stroke-width:2.0px;stroke-linecap:butt;stroke-linejoin:miter;stroke-opacity:1"/>
<path class="bond-2 atom-1 atom-3" d="M 108.8,89.2 L 63.9,75.4" style="fill:none;fill-rule:evenodd;stroke:#000000;stroke-width:2.0px;stroke-linecap:butt;stroke-linejoin:miter;stroke-opacity:1"/>
<path class="bond-3 atom-3 atom-4" d="M 63.9,75.4 L 50.5,87.9" style="fill:none;fill-rule:evenodd;stroke:#000000;stroke-width:2.0px;stroke-linecap:butt;stroke-linejoin:miter;stroke-opacity:1"/>
<path class="bond-3 atom-3 atom-4" d="M 50.5,87.9 L 37.2,100.3" style="fill:none;fill-rule:evenodd;stroke:#FF0000;stroke-width:2.0px;stroke-linecap:butt;stroke-linejoin:miter;stroke-opacity:1"/>
<path class="bond-4 atom-1 atom-5" d="M 108.8,89.2 L 153.7,103.0" style="fill:none;fill-rule:evenodd;stroke:#000000;stroke-width:2.0px;stroke-linecap:butt;stroke-linejoin:miter;stroke-opacity:1"/>
<path class="bond-5 atom-5 atom-6" d="M 154.7,107.0 L 168.8,93.8" style="fill:none;fill-rule:evenodd;stroke:#000000;stroke-width:2.0px;stroke-linecap:butt;stroke-linejoin:miter;stroke-opacity:1"/>
<path class="bond-5 atom-5 atom-6" d="M 168.8,93.8 L 182.9,80.7" style="fill:none;fill-rule:evenodd;stroke:#FF0000;stroke-width:2.0px;stroke-linecap:butt;stroke-linejoin:miter;stroke-opacity:1"/>
<path class="bond-5 atom-5 atom-6" d="M 149.9,101.8 L 164.0,88.7" style="fill:none;fill-rule:evenodd;stroke:#000000;stroke-width:2.0px;stroke-linecap:butt;stroke-linejoin:miter;stroke-opacity:1"/>
<path class="bond-5 atom-5 atom-6" d="M 164.0,88.7 L 178.1,75.5" style="fill:none;fill-rule:evenodd;stroke:#FF0000;stroke-width:2.0px;stroke-linecap:butt;stroke-linejoin:miter;stroke-opacity:1"/>
<path class="bond-6 atom-5 atom-7" d="M 153.7,103.0 L 158.0,121.7" style="fill:none;fill-rule:evenodd;stroke:#000000;stroke-width:2.0px;stroke-linecap:butt;stroke-linejoin:miter;stroke-opacity:1"/>
<path class="bond-6 atom-5 atom-7" d="M 158.0,121.7 L 162.4,140.5" style="fill:none;fill-rule:evenodd;stroke:#FF0000;stroke-width:2.0px;stroke-linecap:butt;stroke-linejoin:miter;stroke-opacity:1"/>
<path d="M 66.1,76.1 L 63.9,75.4 L 63.2,76.0" style="fill:none;stroke:#000000;stroke-width:2.0px;stroke-linecap:butt;stroke-linejoin:miter;stroke-opacity:1;"/>
<path d="M 151.5,102.3 L 153.7,103.0 L 154.0,103.9" style="fill:none;stroke:#000000;stroke-width:2.0px;stroke-linecap:butt;stroke-linejoin:miter;stroke-opacity:1;"/>
<path class="atom-4" d="M 10.2 100.8 L 12.1 100.8 L 12.1 106.5 L 18.9 106.5 L 18.9 100.8 L 20.7 100.8 L 20.7 114.1 L 18.9 114.1 L 18.9 108.0 L 12.1 108.0 L 12.1 114.1 L 10.2 114.1 L 10.2 100.8 " fill="#FF0000"/>
<path class="atom-4" d="M 23.4 107.5 Q 23.4 104.3, 25.0 102.5 Q 26.5 100.7, 29.5 100.7 Q 32.5 100.7, 34.0 102.5 Q 35.6 104.3, 35.6 107.5 Q 35.6 110.7, 34.0 112.5 Q 32.4 114.4, 29.5 114.4 Q 26.6 114.4, 25.0 112.5 Q 23.4 110.7, 23.4 107.5 M 29.5 112.9 Q 31.5 112.9, 32.6 111.5 Q 33.7 110.1, 33.7 107.5 Q 33.7 104.8, 32.6 103.5 Q 31.5 102.2, 29.5 102.2 Q 27.5 102.2, 26.4 103.5 Q 25.3 104.8, 25.3 107.5 Q 25.3 110.1, 26.4 111.5 Q 27.5 112.9, 29.5 112.9 " fill="#FF0000"/>
<path class="atom-6" d="M 182.0 71.0 Q 182.0 67.8, 183.6 66.0 Q 185.2 64.3, 188.1 64.3 Q 191.1 64.3, 192.7 66.0 Q 194.3 67.8, 194.3 71.0 Q 194.3 74.3, 192.7 76.1 Q 191.1 77.9, 188.1 77.9 Q 185.2 77.9, 183.6 76.1 Q 182.0 74.3, 182.0 71.0 M 188.1 76.4 Q 190.2 76.4, 191.3 75.1 Q 192.4 73.7, 192.4 71.0 Q 192.4 68.4, 191.3 67.1 Q 190.2 65.8, 188.1 65.8 Q 186.1 65.8, 185.0 67.1 Q 183.9 68.4, 183.9 71.0 Q 183.9 73.7, 185.0 75.1 Q 186.1 76.4, 188.1 76.4 " fill="#FF0000"/>
<path class="atom-7" d="M 158.2 148.8 Q 158.2 145.6, 159.7 143.8 Q 161.3 142.1, 164.3 142.1 Q 167.2 142.1, 168.8 143.8 Q 170.4 145.6, 170.4 148.8 Q 170.4 152.1, 168.8 153.9 Q 167.2 155.7, 164.3 155.7 Q 161.3 155.7, 159.7 153.9 Q 158.2 152.1, 158.2 148.8 M 164.3 154.2 Q 166.3 154.2, 167.4 152.9 Q 168.5 151.5, 168.5 148.8 Q 168.5 146.2, 167.4 144.9 Q 166.3 143.6, 164.3 143.6 Q 162.2 143.6, 161.1 144.9 Q 160.0 146.2, 160.0 148.8 Q 160.0 151.5, 161.1 152.9 Q 162.2 154.2, 164.3 154.2 " fill="#FF0000"/>
<path class="atom-7" d="M 172.4 142.2 L 174.2 142.2 L 174.2 147.9 L 181.0 147.9 L 181.0 142.2 L 182.9 142.2 L 182.9 155.5 L 181.0 155.5 L 181.0 149.4 L 174.2 149.4 L 174.2 155.5 L 172.4 155.5 L 172.4 142.2 " fill="#FF0000"/>
</g>
  </g>
</svg>
