<?xml version='1.0' encoding='ASCII' standalone='yes'?>
<svg xmlns="http://www.w3.org/2000/svg" xmlns:xlink="http://www.w3.org/1999/xlink" version="1.1" width="534.0px" viewBox="0 0 534.0 200.0" height="200.0px">
  <g>
    <g transform="translate(0, 0) scale(1 1) "><!-- END OF HEADER -->
<rect style="opacity:1.0;fill:#FFFFFF;stroke:none" width="247.0" height="200.0" x="0.0" y="0.0"> </rect>
<path class="bond-0 atom-0 atom-1" d="M 27.4,75.0 L 68.6,87.5" style="fill:none;fill-rule:evenodd;stroke:#000000;stroke-width:2.0px;stroke-linecap:butt;stroke-linejoin:miter;stroke-opacity:1"/>
<path class="bond-1 atom-1 atom-2" d="M 68.6,87.5 L 78.4,129.3" style="fill:none;fill-rule:evenodd;stroke:#000000;stroke-width:2.0px;stroke-linecap:butt;stroke-linejoin:miter;stroke-opacity:1"/>
<path class="bond-2 atom-2 atom-3" d="M 78.4,129.3 L 119.6,141.8" style="fill:none;fill-rule:evenodd;stroke:#000000;stroke-width:2.0px;stroke-linecap:butt;stroke-linejoin:miter;stroke-opacity:1"/>
<path class="bond-3 atom-3 atom-4" d="M 119.6,141.8 L 123.6,158.9" style="fill:none;fill-rule:evenodd;stroke:#000000;stroke-width:2.0px;stroke-linecap:butt;stroke-linejoin:miter;stroke-opacity:1"/>
<path class="bond-3 atom-3 atom-4" d="M 123.6,158.9 L 127.6,176.1" style="fill:none;fill-rule:evenodd;stroke:#FF0000;stroke-width:2.0px;stroke-linecap:butt;stroke-linejoin:miter;stroke-opacity:1"/>
<path class="bond-4 atom-1 atom-5" d="M 68.6,87.5 L 100.0,58.0" style="fill:none;fill-rule:evenodd;stroke:#000000;stroke-width:2.0px;stroke-linecap:butt;stroke-linejoin:miter;stroke-opacity:1"/>
<path class="bond-5 atom-5 atom-6" d="M 100.0,58.0 L 96.0,41.0" style="fill:none;fill-rule:evenodd;stroke:#000000;stroke-width:2.0px;stroke-linecap:butt;stroke-linejoin:miter;stroke-opacity:1"/>
<path class="bond-5 atom-5 atom-6" d="M 96.0,41.0 L 92.0,23.9" style="fill:none;fill-rule:evenodd;stroke:#FF0000;stroke-width:2.0px;stroke-linecap:butt;stroke-linejoin:miter;stroke-opacity:1"/>
<path class="bond-6 atom-5 atom-7" d="M 100.0,58.0 L 141.1,70.5" style="fill:none;fill-rule:evenodd;stroke:#000000;stroke-width:2.0px;stroke-linecap:butt;stroke-linejoin:miter;stroke-opacity:1"/>
<path class="bond-7 atom-7 atom-8" d="M 141.1,70.5 L 128.7,111.6" style="fill:none;fill-rule:evenodd;stroke:#000000;stroke-width:2.0px;stroke-linecap:butt;stroke-linejoin:miter;stroke-opacity:1"/>
<path class="bond-8 atom-7 atom-9" d="M 141.1,70.5 L 153.6,29.3" style="fill:none;fill-rule:evenodd;stroke:#000000;stroke-width:2.0px;stroke-linecap:butt;stroke-linejoin:miter;stroke-opacity:1"/>
<path class="bond-9 atom-7 atom-10" d="M 141.1,70.5 L 182.3,82.9" style="fill:none;fill-rule:evenodd;stroke:#000000;stroke-width:2.0px;stroke-linecap:butt;stroke-linejoin:miter;stroke-opacity:1"/>
<path class="bond-10 atom-10 atom-11" d="M 183.1,86.6 L 196.0,74.5" style="fill:none;fill-rule:evenodd;stroke:#000000;stroke-width:2.0px;stroke-linecap:butt;stroke-linejoin:miter;stroke-opacity:1"/>
<path class="bond-10 atom-10 atom-11" d="M 196.0,74.5 L 208.9,62.4" style="fill:none;fill-rule:evenodd;stroke:#FF0000;stroke-width:2.0px;stroke-linecap:butt;stroke-linejoin:miter;stroke-opacity:1"/>
<path class="bond-10 atom-10 atom-11" d="M 178.7,81.9 L 191.6,69.8" style="fill:none;fill-rule:evenodd;stroke:#000000;stroke-width:2.0px;stroke-linecap:butt;stroke-linejoin:miter;stroke-opacity:1"/>
<path class="bond-10 atom-10 atom-11" d="M 191.6,69.8 L 204.4,57.7" style="fill:none;fill-rule:evenodd;stroke:#FF0000;stroke-width:2.0px;stroke-linecap:butt;stroke-linejoin:miter;stroke-opacity:1"/>
<path class="bond-11 atom-10 atom-12" d="M 182.3,82.9 L 186.3,100.1" style="fill:none;fill-rule:evenodd;stroke:#000000;stroke-width:2.0px;stroke-linecap:butt;stroke-linejoin:miter;stroke-opacity:1"/>
<path class="bond-11 atom-10 atom-12" d="M 186.3,100.1 L 190.3,117.2" style="fill:none;fill-rule:evenodd;stroke:#FF0000;stroke-width:2.0px;stroke-linecap:butt;stroke-linejoin:miter;stroke-opacity:1"/>
<path d="M 77.9,127.2 L 78.4,129.3 L 80.5,129.9" style="fill:none;stroke:#000000;stroke-width:2.0px;stroke-linecap:butt;stroke-linejoin:miter;stroke-opacity:1;"/>
<path d="M 117.5,141.2 L 119.6,141.8 L 119.8,142.6" style="fill:none;stroke:#000000;stroke-width:2.0px;stroke-linecap:butt;stroke-linejoin:miter;stroke-opacity:1;"/>
<path d="M 180.2,82.3 L 182.3,82.9 L 182.5,83.8" style="fill:none;stroke:#000000;stroke-width:2.0px;stroke-linecap:butt;stroke-linejoin:miter;stroke-opacity:1;"/>
<path class="atom-4" d="M 123.8 183.7 Q 123.8 180.8, 125.2 179.1 Q 126.7 177.5, 129.4 177.5 Q 132.1 177.5, 133.5 179.1 Q 134.9 180.8, 134.9 183.7 Q 134.9 186.6, 133.5 188.3 Q 132.0 190.0, 129.4 190.0 Q 126.7 190.0, 125.2 188.3 Q 123.8 186.7, 123.8 183.7 M 129.4 188.6 Q 131.2 188.6, 132.2 187.4 Q 133.2 186.1, 133.2 183.7 Q 133.2 181.3, 132.2 180.1 Q 131.2 178.9, 129.4 178.9 Q 127.5 178.9, 126.5 180.1 Q 125.5 181.3, 125.5 183.7 Q 125.5 186.1, 126.5 187.4 Q 127.5 188.6, 129.4 188.6 " fill="#FF0000"/>
<path class="atom-4" d="M 136.8 177.6 L 138.5 177.6 L 138.5 182.8 L 144.7 182.8 L 144.7 177.6 L 146.4 177.6 L 146.4 189.8 L 144.7 189.8 L 144.7 184.2 L 138.5 184.2 L 138.5 189.8 L 136.8 189.8 L 136.8 177.6 " fill="#FF0000"/>
<path class="atom-6" d="M 84.6 16.2 Q 84.6 13.3, 86.0 11.6 Q 87.5 10.0, 90.2 10.0 Q 92.9 10.0, 94.3 11.6 Q 95.8 13.3, 95.8 16.2 Q 95.8 19.2, 94.3 20.8 Q 92.8 22.5, 90.2 22.5 Q 87.5 22.5, 86.0 20.8 Q 84.6 19.2, 84.6 16.2 M 90.2 21.1 Q 92.0 21.1, 93.0 19.9 Q 94.1 18.6, 94.1 16.2 Q 94.1 13.8, 93.0 12.6 Q 92.0 11.4, 90.2 11.4 Q 88.3 11.4, 87.3 12.6 Q 86.3 13.8, 86.3 16.2 Q 86.3 18.7, 87.3 19.9 Q 88.3 21.1, 90.2 21.1 " fill="#FF0000"/>
<path class="atom-6" d="M 97.7 10.1 L 99.3 10.1 L 99.3 15.3 L 105.5 15.3 L 105.5 10.1 L 107.2 10.1 L 107.2 22.3 L 105.5 22.3 L 105.5 16.7 L 99.3 16.7 L 99.3 22.3 L 97.7 22.3 L 97.7 10.1 " fill="#FF0000"/>
<path class="atom-11" d="M 208.1 53.6 Q 208.1 50.6, 209.5 49.0 Q 211.0 47.4, 213.7 47.4 Q 216.4 47.4, 217.8 49.0 Q 219.3 50.6, 219.3 53.6 Q 219.3 56.5, 217.8 58.2 Q 216.3 59.9, 213.7 59.9 Q 211.0 59.9, 209.5 58.2 Q 208.1 56.5, 208.1 53.6 M 213.7 58.5 Q 215.5 58.5, 216.5 57.3 Q 217.5 56.0, 217.5 53.6 Q 217.5 51.2, 216.5 50.0 Q 215.5 48.7, 213.7 48.7 Q 211.8 48.7, 210.8 49.9 Q 209.8 51.1, 209.8 53.6 Q 209.8 56.0, 210.8 57.3 Q 211.8 58.5, 213.7 58.5 " fill="#FF0000"/>
<path class="atom-12" d="M 186.5 124.8 Q 186.5 121.9, 187.9 120.3 Q 189.4 118.7, 192.1 118.7 Q 194.8 118.7, 196.2 120.3 Q 197.7 121.9, 197.7 124.8 Q 197.7 127.8, 196.2 129.5 Q 194.8 131.2, 192.1 131.2 Q 189.4 131.2, 187.9 129.5 Q 186.5 127.8, 186.5 124.8 M 192.1 129.8 Q 193.9 129.8, 194.9 128.5 Q 196.0 127.3, 196.0 124.8 Q 196.0 122.5, 194.9 121.3 Q 193.9 120.0, 192.1 120.0 Q 190.2 120.0, 189.2 121.2 Q 188.2 122.4, 188.2 124.8 Q 188.2 127.3, 189.2 128.5 Q 190.2 129.8, 192.1 129.8 " fill="#FF0000"/>
<path class="atom-12" d="M 199.6 118.8 L 201.2 118.8 L 201.2 124.0 L 207.5 124.0 L 207.5 118.8 L 209.1 118.8 L 209.1 131.0 L 207.5 131.0 L 207.5 125.3 L 201.2 125.3 L 201.2 131.0 L 199.6 131.0 L 199.6 118.8 " fill="#FF0000"/>
</g>
    <g transform="translate(247.0, 0) scale(1 1) "><line x1="5" y1="100" x2="35" y2="100" style="stroke:rgb(0,0,0);stroke-width:2"/>
  <line x1="34" y1="100" x2="29" y2="95" style="stroke:rgb(0,0,0);stroke-width:2"/>
  <line x1="34" y1="100" x2="29" y2="105" style="stroke:rgb(0,0,0);stroke-width:2"/>
</g>
    <g transform="translate(287.0, 0) scale(1 1) "><!-- END OF HEADER -->
<rect style="opacity:1.0;fill:#FFFFFF;stroke:none" width="247.0" height="200.0" x="0.0" y="0.0"> </rect>
<path class="bond-0 atom-0 atom-1" d="M 191.3,72.7 L 179.0,99.9" style="fill:none;fill-rule:evenodd;stroke:#000000;stroke-width:2.0px;stroke-linecap:butt;stroke-linejoin:miter;stroke-opacity:1"/>
<path class="bond-1 atom-1 atom-2" d="M 179.0,99.9 L 166.7,127.1" style="fill:none;fill-rule:evenodd;stroke:#000000;stroke-width:2.0px;stroke-linecap:butt;stroke-linejoin:miter;stroke-opacity:1"/>
<path class="bond-2 atom-1 atom-3" d="M 179.0,99.9 L 206.2,112.2" style="fill:none;fill-rule:evenodd;stroke:#000000;stroke-width:2.0px;stroke-linecap:butt;stroke-linejoin:miter;stroke-opacity:1"/>
<path class="bond-3 atom-3 atom-4" d="M 206.5,114.8 L 216.7,107.5" style="fill:none;fill-rule:evenodd;stroke:#000000;stroke-width:2.0px;stroke-linecap:butt;stroke-linejoin:miter;stroke-opacity:1"/>
<path class="bond-3 atom-3 atom-4" d="M 216.7,107.5 L 226.9,100.1" style="fill:none;fill-rule:evenodd;stroke:#FF0000;stroke-width:2.0px;stroke-linecap:butt;stroke-linejoin:miter;stroke-opacity:1"/>
<path class="bond-3 atom-3 atom-4" d="M 203.9,111.2 L 214.1,103.8" style="fill:none;fill-rule:evenodd;stroke:#000000;stroke-width:2.0px;stroke-linecap:butt;stroke-linejoin:miter;stroke-opacity:1"/>
<path class="bond-3 atom-3 atom-4" d="M 214.1,103.8 L 224.3,96.5" style="fill:none;fill-rule:evenodd;stroke:#FF0000;stroke-width:2.0px;stroke-linecap:butt;stroke-linejoin:miter;stroke-opacity:1"/>
<path class="bond-4 atom-3 atom-5" d="M 206.2,112.2 L 207.4,124.5" style="fill:none;fill-rule:evenodd;stroke:#000000;stroke-width:2.0px;stroke-linecap:butt;stroke-linejoin:miter;stroke-opacity:1"/>
<path class="bond-4 atom-3 atom-5" d="M 207.4,124.5 L 208.6,136.7" style="fill:none;fill-rule:evenodd;stroke:#FF0000;stroke-width:2.0px;stroke-linecap:butt;stroke-linejoin:miter;stroke-opacity:1"/>
<path class="bond-5 atom-1 atom-6" d="M 179.0,99.9 L 151.8,87.6" style="fill:none;fill-rule:evenodd;stroke:#000000;stroke-width:2.0px;stroke-linecap:butt;stroke-linejoin:miter;stroke-opacity:1"/>
<path class="bond-6 atom-6 atom-7" d="M 151.8,87.6 L 150.6,75.5" style="fill:none;fill-rule:evenodd;stroke:#000000;stroke-width:2.0px;stroke-linecap:butt;stroke-linejoin:miter;stroke-opacity:1"/>
<path class="bond-6 atom-6 atom-7" d="M 150.6,75.5 L 149.4,63.3" style="fill:none;fill-rule:evenodd;stroke:#FF0000;stroke-width:2.0px;stroke-linecap:butt;stroke-linejoin:miter;stroke-opacity:1"/>
<path class="bond-7 atom-6 atom-8" d="M 151.8,87.6 L 127.5,105.1" style="fill:none;fill-rule:evenodd;stroke:#000000;stroke-width:2.0px;stroke-linecap:butt;stroke-linejoin:miter;stroke-opacity:1"/>
<path class="bond-8 atom-8 atom-9" d="M 127.5,105.1 L 100.3,92.8" style="fill:none;fill-rule:evenodd;stroke:#000000;stroke-width:2.0px;stroke-linecap:butt;stroke-linejoin:miter;stroke-opacity:1"/>
<path class="bond-9 atom-9 atom-10" d="M 100.3,92.8 L 76.1,110.2" style="fill:none;fill-rule:evenodd;stroke:#000000;stroke-width:2.0px;stroke-linecap:butt;stroke-linejoin:miter;stroke-opacity:1"/>
<path class="bond-10 atom-10 atom-11" d="M 76.1,110.2 L 48.8,97.9" style="fill:none;fill-rule:evenodd;stroke:#000000;stroke-width:2.0px;stroke-linecap:butt;stroke-linejoin:miter;stroke-opacity:1"/>
<path class="bond-11 atom-11 atom-12" d="M 48.8,97.9 L 39.1,104.8" style="fill:none;fill-rule:evenodd;stroke:#000000;stroke-width:2.0px;stroke-linecap:butt;stroke-linejoin:miter;stroke-opacity:1"/>
<path class="bond-11 atom-11 atom-12" d="M 39.1,104.8 L 29.5,111.8" style="fill:none;fill-rule:evenodd;stroke:#FF0000;stroke-width:2.0px;stroke-linecap:butt;stroke-linejoin:miter;stroke-opacity:1"/>
<path d="M 204.9,111.6 L 206.2,112.2 L 206.3,112.8" style="fill:none;stroke:#000000;stroke-width:2.0px;stroke-linecap:butt;stroke-linejoin:miter;stroke-opacity:1;"/>
<path d="M 128.7,104.2 L 127.5,105.1 L 126.2,104.4" style="fill:none;stroke:#000000;stroke-width:2.0px;stroke-linecap:butt;stroke-linejoin:miter;stroke-opacity:1;"/>
<path d="M 101.7,93.4 L 100.3,92.8 L 99.1,93.6" style="fill:none;stroke:#000000;stroke-width:2.0px;stroke-linecap:butt;stroke-linejoin:miter;stroke-opacity:1;"/>
<path d="M 77.3,109.3 L 76.1,110.2 L 74.7,109.6" style="fill:none;stroke:#000000;stroke-width:2.0px;stroke-linecap:butt;stroke-linejoin:miter;stroke-opacity:1;"/>
<path d="M 50.2,98.5 L 48.8,97.9 L 48.4,98.2" style="fill:none;stroke:#000000;stroke-width:2.0px;stroke-linecap:butt;stroke-linejoin:miter;stroke-opacity:1;"/>
<path class="atom-4" d="M 226.6 94.8 Q 226.6 92.8, 227.6 91.7 Q 228.6 90.5, 230.5 90.5 Q 232.3 90.5, 233.3 91.7 Q 234.3 92.8, 234.3 94.8 Q 234.3 96.9, 233.3 98.1 Q 232.3 99.2, 230.5 99.2 Q 228.6 99.2, 227.6 98.1 Q 226.6 96.9, 226.6 94.8 M 230.5 98.3 Q 231.8 98.3, 232.5 97.4 Q 233.2 96.5, 233.2 94.8 Q 233.2 93.2, 232.5 92.3 Q 231.8 91.5, 230.5 91.5 Q 229.2 91.5, 228.5 92.3 Q 227.8 93.2, 227.8 94.8 Q 227.8 96.5, 228.5 97.4 Q 229.2 98.3, 230.5 98.3 " fill="#FF0000"/>
<path class="atom-5" d="M 205.3 142.0 Q 205.3 139.9, 206.3 138.8 Q 207.3 137.7, 209.2 137.7 Q 211.0 137.7, 212.0 138.8 Q 213.1 139.9, 213.1 142.0 Q 213.1 144.0, 212.0 145.2 Q 211.0 146.4, 209.2 146.4 Q 207.3 146.4, 206.3 145.2 Q 205.3 144.0, 205.3 142.0 M 209.2 145.4 Q 210.5 145.4, 211.2 144.5 Q 211.9 143.7, 211.9 142.0 Q 211.9 140.3, 211.2 139.5 Q 210.5 138.6, 209.2 138.6 Q 207.9 138.6, 207.2 139.5 Q 206.5 140.3, 206.5 142.0 Q 206.5 143.7, 207.2 144.5 Q 207.9 145.4, 209.2 145.4 " fill="#FF0000"/>
<path class="atom-5" d="M 214.4 137.8 L 215.5 137.8 L 215.5 141.4 L 219.8 141.4 L 219.8 137.8 L 221.0 137.8 L 221.0 146.2 L 219.8 146.2 L 219.8 142.3 L 215.5 142.3 L 215.5 146.2 L 214.4 146.2 L 214.4 137.8 " fill="#FF0000"/>
<path class="atom-7" d="M 144.9 57.9 Q 144.9 55.9, 145.9 54.8 Q 147.0 53.6, 148.8 53.6 Q 150.7 53.6, 151.7 54.8 Q 152.7 55.9, 152.7 57.9 Q 152.7 60.0, 151.7 61.2 Q 150.7 62.3, 148.8 62.3 Q 147.0 62.3, 145.9 61.2 Q 144.9 60.0, 144.9 57.9 M 148.8 61.4 Q 150.1 61.4, 150.8 60.5 Q 151.5 59.6, 151.5 57.9 Q 151.5 56.3, 150.8 55.4 Q 150.1 54.6, 148.8 54.6 Q 147.5 54.6, 146.8 55.4 Q 146.1 56.3, 146.1 57.9 Q 146.1 59.7, 146.8 60.5 Q 147.5 61.4, 148.8 61.4 " fill="#FF0000"/>
<path class="atom-7" d="M 154.0 53.7 L 155.2 53.7 L 155.2 57.3 L 159.5 57.3 L 159.5 53.7 L 160.6 53.7 L 160.6 62.2 L 159.5 62.2 L 159.5 58.3 L 155.2 58.3 L 155.2 62.2 L 154.0 62.2 L 154.0 53.7 " fill="#FF0000"/>
<path class="atom-12" d="M 12.3 111.1 L 13.5 111.1 L 13.5 114.7 L 17.8 114.7 L 17.8 111.1 L 19.0 111.1 L 19.0 119.6 L 17.8 119.6 L 17.8 115.7 L 13.5 115.7 L 13.5 119.6 L 12.3 119.6 L 12.3 111.1 " fill="#FF0000"/>
<path class="atom-12" d="M 20.7 115.3 Q 20.7 113.3, 21.7 112.2 Q 22.7 111.0, 24.6 111.0 Q 26.5 111.0, 27.5 112.2 Q 28.5 113.3, 28.5 115.3 Q 28.5 117.4, 27.5 118.5 Q 26.4 119.7, 24.6 119.7 Q 22.7 119.7, 21.7 118.5 Q 20.7 117.4, 20.7 115.3 M 24.6 118.8 Q 25.9 118.8, 26.6 117.9 Q 27.3 117.0, 27.3 115.3 Q 27.3 113.7, 26.6 112.8 Q 25.9 112.0, 24.6 112.0 Q 23.3 112.0, 22.6 112.8 Q 21.9 113.7, 21.9 115.3 Q 21.9 117.0, 22.6 117.9 Q 23.3 118.8, 24.6 118.8 " fill="#FF0000"/>
</g>
  </g>
</svg>
