<?xml version='1.0' encoding='ASCII' standalone='yes'?>
<svg xmlns="http://www.w3.org/2000/svg" xmlns:xlink="http://www.w3.org/1999/xlink" version="1.1" width="859.0px" viewBox="0 0 859.0 200.0" height="200.0px">
  <g>
    <g transform="translate(0, 0) scale(1 1) "><!-- END OF HEADER -->
<rect style="opacity:1.0;fill:#FFFFFF;stroke:none" width="260.0" height="200.0" x="0.0" y="0.0"> </rect>
<path class="bond-0 atom-0 atom-1" d="M 13.0,73.0 L 42.1,57.1" style="fill:none;fill-rule:evenodd;stroke:#000000;stroke-width:2.0px;stroke-linecap:butt;stroke-linejoin:miter;stroke-opacity:1"/>
<path class="bond-1 atom-1 atom-2" d="M 42.1,57.1 L 70.4,74.5" style="fill:none;fill-rule:evenodd;stroke:#000000;stroke-width:2.0px;stroke-linecap:butt;stroke-linejoin:miter;stroke-opacity:1"/>
<path class="bond-2 atom-2 atom-3" d="M 70.4,74.5 L 99.6,58.6" style="fill:none;fill-rule:evenodd;stroke:#000000;stroke-width:2.0px;stroke-linecap:butt;stroke-linejoin:miter;stroke-opacity:1"/>
<path class="bond-3 atom-3 atom-4" d="M 99.6,58.6 L 111.0,65.6" style="fill:none;fill-rule:evenodd;stroke:#000000;stroke-width:2.0px;stroke-linecap:butt;stroke-linejoin:miter;stroke-opacity:1"/>
<path class="bond-3 atom-3 atom-4" d="M 111.0,65.6 L 122.4,72.6" style="fill:none;fill-rule:evenodd;stroke:#FF0000;stroke-width:2.0px;stroke-linecap:butt;stroke-linejoin:miter;stroke-opacity:1"/>
<path class="bond-4 atom-4 atom-5" d="M 133.3,73.0 L 145.1,66.6" style="fill:none;fill-rule:evenodd;stroke:#FF0000;stroke-width:2.0px;stroke-linecap:butt;stroke-linejoin:miter;stroke-opacity:1"/>
<path class="bond-4 atom-4 atom-5" d="M 145.1,66.6 L 157.0,60.1" style="fill:none;fill-rule:evenodd;stroke:#000000;stroke-width:2.0px;stroke-linecap:butt;stroke-linejoin:miter;stroke-opacity:1"/>
<path class="bond-5 atom-5 atom-6" d="M 157.0,60.1 L 185.3,77.5" style="fill:none;fill-rule:evenodd;stroke:#000000;stroke-width:2.0px;stroke-linecap:butt;stroke-linejoin:miter;stroke-opacity:1"/>
<path class="bond-6 atom-6 atom-7" d="M 185.3,77.5 L 167.9,105.7" style="fill:none;fill-rule:evenodd;stroke:#000000;stroke-width:2.0px;stroke-linecap:butt;stroke-linejoin:miter;stroke-opacity:1"/>
<path class="bond-7 atom-6 atom-8" d="M 185.3,77.5 L 202.6,49.2" style="fill:none;fill-rule:evenodd;stroke:#000000;stroke-width:2.0px;stroke-linecap:butt;stroke-linejoin:miter;stroke-opacity:1"/>
<path class="bond-8 atom-6 atom-9" d="M 185.3,77.5 L 213.5,94.8" style="fill:none;fill-rule:evenodd;stroke:#000000;stroke-width:2.0px;stroke-linecap:butt;stroke-linejoin:miter;stroke-opacity:1"/>
<path class="bond-9 atom-9 atom-10" d="M 213.5,97.6 L 226.0,90.9" style="fill:none;fill-rule:evenodd;stroke:#000000;stroke-width:2.0px;stroke-linecap:butt;stroke-linejoin:miter;stroke-opacity:1"/>
<path class="bond-9 atom-9 atom-10" d="M 226.0,90.9 L 238.5,84.1" style="fill:none;fill-rule:evenodd;stroke:#FF0000;stroke-width:2.0px;stroke-linecap:butt;stroke-linejoin:miter;stroke-opacity:1"/>
<path class="bond-9 atom-9 atom-10" d="M 211.1,93.3 L 223.6,86.5" style="fill:none;fill-rule:evenodd;stroke:#000000;stroke-width:2.0px;stroke-linecap:butt;stroke-linejoin:miter;stroke-opacity:1"/>
<path class="bond-9 atom-9 atom-10" d="M 223.6,86.5 L 236.1,79.7" style="fill:none;fill-rule:evenodd;stroke:#FF0000;stroke-width:2.0px;stroke-linecap:butt;stroke-linejoin:miter;stroke-opacity:1"/>
<path class="bond-10 atom-9 atom-11" d="M 213.5,94.8 L 213.2,108.4" style="fill:none;fill-rule:evenodd;stroke:#000000;stroke-width:2.0px;stroke-linecap:butt;stroke-linejoin:miter;stroke-opacity:1"/>
<path class="bond-10 atom-9 atom-11" d="M 213.2,108.4 L 212.8,122.1" style="fill:none;fill-rule:evenodd;stroke:#FF0000;stroke-width:2.0px;stroke-linecap:butt;stroke-linejoin:miter;stroke-opacity:1"/>
<path class="bond-11 atom-2 atom-12" d="M 70.4,74.5 L 69.6,107.6" style="fill:none;fill-rule:evenodd;stroke:#000000;stroke-width:2.0px;stroke-linecap:butt;stroke-linejoin:miter;stroke-opacity:1"/>
<path class="bond-12 atom-12 atom-13" d="M 69.6,104.7 L 57.1,111.5" style="fill:none;fill-rule:evenodd;stroke:#000000;stroke-width:2.0px;stroke-linecap:butt;stroke-linejoin:miter;stroke-opacity:1"/>
<path class="bond-12 atom-12 atom-13" d="M 57.1,111.5 L 44.6,118.3" style="fill:none;fill-rule:evenodd;stroke:#FF0000;stroke-width:2.0px;stroke-linecap:butt;stroke-linejoin:miter;stroke-opacity:1"/>
<path class="bond-12 atom-12 atom-13" d="M 72.0,109.1 L 59.5,115.9" style="fill:none;fill-rule:evenodd;stroke:#000000;stroke-width:2.0px;stroke-linecap:butt;stroke-linejoin:miter;stroke-opacity:1"/>
<path class="bond-12 atom-12 atom-13" d="M 59.5,115.9 L 47.0,122.7" style="fill:none;fill-rule:evenodd;stroke:#FF0000;stroke-width:2.0px;stroke-linecap:butt;stroke-linejoin:miter;stroke-opacity:1"/>
<path class="bond-13 atom-12 atom-14" d="M 69.6,107.6 L 81.0,114.6" style="fill:none;fill-rule:evenodd;stroke:#000000;stroke-width:2.0px;stroke-linecap:butt;stroke-linejoin:miter;stroke-opacity:1"/>
<path class="bond-13 atom-12 atom-14" d="M 81.0,114.6 L 92.4,121.6" style="fill:none;fill-rule:evenodd;stroke:#FF0000;stroke-width:2.0px;stroke-linecap:butt;stroke-linejoin:miter;stroke-opacity:1"/>
<path d="M 40.7,57.9 L 42.1,57.1 L 43.6,58.0" style="fill:none;stroke:#000000;stroke-width:2.0px;stroke-linecap:butt;stroke-linejoin:miter;stroke-opacity:1;"/>
<path d="M 98.1,59.4 L 99.6,58.6 L 100.1,59.0" style="fill:none;stroke:#000000;stroke-width:2.0px;stroke-linecap:butt;stroke-linejoin:miter;stroke-opacity:1;"/>
<path d="M 156.4,60.5 L 157.0,60.1 L 158.4,61.0" style="fill:none;stroke:#000000;stroke-width:2.0px;stroke-linecap:butt;stroke-linejoin:miter;stroke-opacity:1;"/>
<path d="M 212.1,93.9 L 213.5,94.8 L 213.5,95.5" style="fill:none;stroke:#000000;stroke-width:2.0px;stroke-linecap:butt;stroke-linejoin:miter;stroke-opacity:1;"/>
<path d="M 69.6,106.0 L 69.6,107.6 L 70.1,108.0" style="fill:none;stroke:#000000;stroke-width:2.0px;stroke-linecap:butt;stroke-linejoin:miter;stroke-opacity:1;"/>
<path class="atom-4" d="M 123.5 76.0 Q 123.5 73.7, 124.6 72.5 Q 125.8 71.2, 127.8 71.2 Q 129.9 71.2, 131.0 72.5 Q 132.2 73.7, 132.2 76.0 Q 132.2 78.3, 131.0 79.6 Q 129.9 80.9, 127.8 80.9 Q 125.8 80.9, 124.6 79.6 Q 123.5 78.3, 123.5 76.0 M 127.8 79.8 Q 129.3 79.8, 130.0 78.8 Q 130.8 77.9, 130.8 76.0 Q 130.8 74.1, 130.0 73.2 Q 129.3 72.3, 127.8 72.3 Q 126.4 72.3, 125.6 73.2 Q 124.9 74.1, 124.9 76.0 Q 124.9 77.9, 125.6 78.8 Q 126.4 79.8, 127.8 79.8 " fill="#FF0000"/>
<path class="atom-10" d="M 238.4 79.0 Q 238.4 76.7, 239.5 75.5 Q 240.6 74.2, 242.7 74.2 Q 244.8 74.2, 245.9 75.5 Q 247.0 76.7, 247.0 79.0 Q 247.0 81.3, 245.9 82.6 Q 244.7 83.8, 242.7 83.8 Q 240.6 83.8, 239.5 82.6 Q 238.4 81.3, 238.4 79.0 M 242.7 82.8 Q 244.1 82.8, 244.9 81.8 Q 245.7 80.9, 245.7 79.0 Q 245.7 77.1, 244.9 76.2 Q 244.1 75.3, 242.7 75.3 Q 241.3 75.3, 240.5 76.2 Q 239.7 77.1, 239.7 79.0 Q 239.7 80.9, 240.5 81.8 Q 241.3 82.8, 242.7 82.8 " fill="#FF0000"/>
<path class="atom-11" d="M 208.4 128.0 Q 208.4 125.7, 209.5 124.4 Q 210.6 123.2, 212.7 123.2 Q 214.8 123.2, 215.9 124.4 Q 217.0 125.7, 217.0 128.0 Q 217.0 130.2, 215.9 131.5 Q 214.7 132.8, 212.7 132.8 Q 210.6 132.8, 209.5 131.5 Q 208.4 130.3, 208.4 128.0 M 212.7 131.8 Q 214.1 131.8, 214.9 130.8 Q 215.7 129.8, 215.7 128.0 Q 215.7 126.1, 214.9 125.2 Q 214.1 124.2, 212.7 124.2 Q 211.2 124.2, 210.5 125.2 Q 209.7 126.1, 209.7 128.0 Q 209.7 129.9, 210.5 130.8 Q 211.2 131.8, 212.7 131.8 " fill="#FF0000"/>
<path class="atom-11" d="M 218.5 123.3 L 219.7 123.3 L 219.7 127.3 L 224.5 127.3 L 224.5 123.3 L 225.8 123.3 L 225.8 132.7 L 224.5 132.7 L 224.5 128.3 L 219.7 128.3 L 219.7 132.7 L 218.5 132.7 L 218.5 123.3 " fill="#FF0000"/>
<path class="atom-13" d="M 36.1 123.5 Q 36.1 121.2, 37.2 120.0 Q 38.3 118.7, 40.4 118.7 Q 42.5 118.7, 43.6 120.0 Q 44.7 121.2, 44.7 123.5 Q 44.7 125.8, 43.6 127.1 Q 42.5 128.3, 40.4 128.3 Q 38.3 128.3, 37.2 127.1 Q 36.1 125.8, 36.1 123.5 M 40.4 127.3 Q 41.8 127.3, 42.6 126.3 Q 43.4 125.4, 43.4 123.5 Q 43.4 121.6, 42.6 120.7 Q 41.8 119.8, 40.4 119.8 Q 39.0 119.8, 38.2 120.7 Q 37.4 121.6, 37.4 123.5 Q 37.4 125.4, 38.2 126.3 Q 39.0 127.3, 40.4 127.3 " fill="#FF0000"/>
<path class="atom-14" d="M 93.5 125.0 Q 93.5 122.7, 94.6 121.5 Q 95.8 120.2, 97.8 120.2 Q 99.9 120.2, 101.0 121.5 Q 102.1 122.7, 102.1 125.0 Q 102.1 127.2, 101.0 128.5 Q 99.9 129.8, 97.8 129.8 Q 95.8 129.8, 94.6 128.5 Q 93.5 127.3, 93.5 125.0 M 97.8 128.8 Q 99.3 128.8, 100.0 127.8 Q 100.8 126.8, 100.8 125.0 Q 100.8 123.1, 100.0 122.2 Q 99.3 121.3, 97.8 121.3 Q 96.4 121.3, 95.6 122.2 Q 94.9 123.1, 94.9 125.0 Q 94.9 126.9, 95.6 127.8 Q 96.4 128.8, 97.8 128.8 " fill="#FF0000"/>
<path class="atom-14" d="M 103.6 120.3 L 104.9 120.3 L 104.9 124.3 L 109.7 124.3 L 109.7 120.3 L 111.0 120.3 L 111.0 129.7 L 109.7 129.7 L 109.7 125.4 L 104.9 125.4 L 104.9 129.7 L 103.6 129.7 L 103.6 120.3 " fill="#FF0000"/>
<path class="legend" d="M 121.5 181.9 Q 121.5 179.6, 122.2 177.7 Q 122.8 175.8, 124.1 173.8 L 125.0 174.4 Q 124.0 176.3, 123.4 178.0 Q 122.9 179.7, 122.9 181.9 Q 122.9 184.0, 123.4 185.8 Q 124.0 187.5, 125.0 189.4 L 124.1 190.0 Q 122.8 188.0, 122.2 186.1 Q 121.5 184.2, 121.5 181.9 " fill="#000000"/>
<path class="legend" d="M 125.9 177.3 Q 126.4 176.2, 127.3 175.6 Q 128.3 175.0, 129.7 175.0 Q 131.4 175.0, 132.4 175.9 Q 133.3 176.8, 133.3 178.5 Q 133.3 180.2, 132.1 181.7 Q 130.9 183.3, 128.3 185.2 L 133.5 185.2 L 133.5 186.4 L 125.9 186.4 L 125.9 185.4 Q 128.0 183.9, 129.3 182.8 Q 130.5 181.6, 131.1 180.6 Q 131.7 179.6, 131.7 178.6 Q 131.7 177.5, 131.2 176.9 Q 130.7 176.3, 129.7 176.3 Q 128.8 176.3, 128.2 176.6 Q 127.6 177.0, 127.2 177.8 L 125.9 177.3 " fill="#000000"/>
<path class="legend" d="M 138.5 181.9 Q 138.5 184.2, 137.8 186.1 Q 137.2 188.0, 135.9 190.0 L 135.0 189.4 Q 136.0 187.5, 136.5 185.8 Q 137.1 184.0, 137.1 181.9 Q 137.1 179.7, 136.5 178.0 Q 136.0 176.3, 135.0 174.4 L 135.9 173.8 Q 137.2 175.8, 137.8 177.7 Q 138.5 179.6, 138.5 181.9 " fill="#000000"/>
</g>
    <g transform="translate(260.0, 0) scale(1 1) "><line x1="5" y1="100" x2="35" y2="100" style="stroke:rgb(0,0,0);stroke-width:2"/>
  <line x1="34" y1="100" x2="29" y2="95" style="stroke:rgb(0,0,0);stroke-width:2"/>
  <line x1="34" y1="100" x2="29" y2="105" style="stroke:rgb(0,0,0);stroke-width:2"/>
</g>
    <g transform="translate(300.0, 0) scale(1 1) "><!-- END OF HEADER -->
<rect style="opacity:1.0;fill:#FFFFFF;stroke:none" width="254.0" height="200.0" x="0.0" y="0.0"> </rect>
<path class="bond-0 atom-0 atom-1" d="M 232.0,58.0 L 202.2,77.6" style="fill:none;fill-rule:evenodd;stroke:#000000;stroke-width:2.0px;stroke-linecap:butt;stroke-linejoin:miter;stroke-opacity:1"/>
<path class="bond-1 atom-1 atom-2" d="M 202.2,77.6 L 170.4,61.6" style="fill:none;fill-rule:evenodd;stroke:#000000;stroke-width:2.0px;stroke-linecap:butt;stroke-linejoin:miter;stroke-opacity:1"/>
<path class="bond-2 atom-2 atom-3" d="M 170.4,61.6 L 158.4,69.5" style="fill:none;fill-rule:evenodd;stroke:#000000;stroke-width:2.0px;stroke-linecap:butt;stroke-linejoin:miter;stroke-opacity:1"/>
<path class="bond-2 atom-2 atom-3" d="M 158.4,69.5 L 146.4,77.3" style="fill:none;fill-rule:evenodd;stroke:#FF0000;stroke-width:2.0px;stroke-linecap:butt;stroke-linejoin:miter;stroke-opacity:1"/>
<path class="bond-3 atom-3 atom-4" d="M 134.8,78.2 L 121.7,71.7" style="fill:none;fill-rule:evenodd;stroke:#FF0000;stroke-width:2.0px;stroke-linecap:butt;stroke-linejoin:miter;stroke-opacity:1"/>
<path class="bond-3 atom-3 atom-4" d="M 121.7,71.7 L 108.7,65.1" style="fill:none;fill-rule:evenodd;stroke:#000000;stroke-width:2.0px;stroke-linecap:butt;stroke-linejoin:miter;stroke-opacity:1"/>
<path class="bond-4 atom-4 atom-5" d="M 108.7,65.1 L 79.0,84.7" style="fill:none;fill-rule:evenodd;stroke:#000000;stroke-width:2.0px;stroke-linecap:butt;stroke-linejoin:miter;stroke-opacity:1"/>
<path class="bond-5 atom-5 atom-6" d="M 79.0,84.7 L 98.5,114.5" style="fill:none;fill-rule:evenodd;stroke:#000000;stroke-width:2.0px;stroke-linecap:butt;stroke-linejoin:miter;stroke-opacity:1"/>
<path class="bond-6 atom-5 atom-7" d="M 79.0,84.7 L 59.4,54.9" style="fill:none;fill-rule:evenodd;stroke:#000000;stroke-width:2.0px;stroke-linecap:butt;stroke-linejoin:miter;stroke-opacity:1"/>
<path class="bond-7 atom-5 atom-8" d="M 79.0,84.7 L 49.2,104.3" style="fill:none;fill-rule:evenodd;stroke:#000000;stroke-width:2.0px;stroke-linecap:butt;stroke-linejoin:miter;stroke-opacity:1"/>
<path class="bond-8 atom-8 atom-9" d="M 51.7,102.6 L 38.0,95.7" style="fill:none;fill-rule:evenodd;stroke:#000000;stroke-width:2.0px;stroke-linecap:butt;stroke-linejoin:miter;stroke-opacity:1"/>
<path class="bond-8 atom-8 atom-9" d="M 38.0,95.7 L 24.3,88.8" style="fill:none;fill-rule:evenodd;stroke:#FF0000;stroke-width:2.0px;stroke-linecap:butt;stroke-linejoin:miter;stroke-opacity:1"/>
<path class="bond-8 atom-8 atom-9" d="M 49.3,107.3 L 35.6,100.4" style="fill:none;fill-rule:evenodd;stroke:#000000;stroke-width:2.0px;stroke-linecap:butt;stroke-linejoin:miter;stroke-opacity:1"/>
<path class="bond-8 atom-8 atom-9" d="M 35.6,100.4 L 21.9,93.6" style="fill:none;fill-rule:evenodd;stroke:#FF0000;stroke-width:2.0px;stroke-linecap:butt;stroke-linejoin:miter;stroke-opacity:1"/>
<path class="bond-9 atom-8 atom-10" d="M 49.2,104.3 L 50.0,118.9" style="fill:none;fill-rule:evenodd;stroke:#000000;stroke-width:2.0px;stroke-linecap:butt;stroke-linejoin:miter;stroke-opacity:1"/>
<path class="bond-9 atom-8 atom-10" d="M 50.0,118.9 L 50.9,133.6" style="fill:none;fill-rule:evenodd;stroke:#FF0000;stroke-width:2.0px;stroke-linecap:butt;stroke-linejoin:miter;stroke-opacity:1"/>
<path class="bond-10 atom-1 atom-11" d="M 202.2,77.6 L 204.2,113.2" style="fill:none;fill-rule:evenodd;stroke:#000000;stroke-width:2.0px;stroke-linecap:butt;stroke-linejoin:miter;stroke-opacity:1"/>
<path class="bond-11 atom-11 atom-12" d="M 201.7,114.9 L 215.4,121.8" style="fill:none;fill-rule:evenodd;stroke:#000000;stroke-width:2.0px;stroke-linecap:butt;stroke-linejoin:miter;stroke-opacity:1"/>
<path class="bond-11 atom-11 atom-12" d="M 215.4,121.8 L 229.1,128.7" style="fill:none;fill-rule:evenodd;stroke:#FF0000;stroke-width:2.0px;stroke-linecap:butt;stroke-linejoin:miter;stroke-opacity:1"/>
<path class="bond-11 atom-11 atom-12" d="M 204.1,110.1 L 217.8,117.0" style="fill:none;fill-rule:evenodd;stroke:#000000;stroke-width:2.0px;stroke-linecap:butt;stroke-linejoin:miter;stroke-opacity:1"/>
<path class="bond-11 atom-11 atom-12" d="M 217.8,117.0 L 231.5,123.9" style="fill:none;fill-rule:evenodd;stroke:#FF0000;stroke-width:2.0px;stroke-linecap:butt;stroke-linejoin:miter;stroke-opacity:1"/>
<path class="bond-12 atom-11 atom-13" d="M 204.2,113.2 L 192.2,121.1" style="fill:none;fill-rule:evenodd;stroke:#000000;stroke-width:2.0px;stroke-linecap:butt;stroke-linejoin:miter;stroke-opacity:1"/>
<path class="bond-12 atom-11 atom-13" d="M 192.2,121.1 L 180.3,128.9" style="fill:none;fill-rule:evenodd;stroke:#FF0000;stroke-width:2.0px;stroke-linecap:butt;stroke-linejoin:miter;stroke-opacity:1"/>
<path d="M 171.9,62.4 L 170.4,61.6 L 169.8,62.0" style="fill:none;stroke:#000000;stroke-width:2.0px;stroke-linecap:butt;stroke-linejoin:miter;stroke-opacity:1;"/>
<path d="M 109.4,65.5 L 108.7,65.1 L 107.2,66.1" style="fill:none;stroke:#000000;stroke-width:2.0px;stroke-linecap:butt;stroke-linejoin:miter;stroke-opacity:1;"/>
<path d="M 50.7,103.3 L 49.2,104.3 L 49.2,105.0" style="fill:none;stroke:#000000;stroke-width:2.0px;stroke-linecap:butt;stroke-linejoin:miter;stroke-opacity:1;"/>
<path d="M 204.1,111.4 L 204.2,113.2 L 203.6,113.6" style="fill:none;stroke:#000000;stroke-width:2.0px;stroke-linecap:butt;stroke-linejoin:miter;stroke-opacity:1;"/>
<path class="atom-3" d="M 135.9 81.2 Q 135.9 78.8, 137.1 77.4 Q 138.3 76.0, 140.6 76.0 Q 142.8 76.0, 144.0 77.4 Q 145.2 78.8, 145.2 81.2 Q 145.2 83.6, 144.0 85.0 Q 142.8 86.4, 140.6 86.4 Q 138.3 86.4, 137.1 85.0 Q 135.9 83.6, 135.9 81.2 M 140.6 85.3 Q 142.1 85.3, 142.9 84.2 Q 143.8 83.2, 143.8 81.2 Q 143.8 79.2, 142.9 78.2 Q 142.1 77.2, 140.6 77.2 Q 139.0 77.2, 138.2 78.2 Q 137.4 79.2, 137.4 81.2 Q 137.4 83.2, 138.2 84.2 Q 139.0 85.3, 140.6 85.3 " fill="#FF0000"/>
<path class="atom-9" d="M 12.7 88.3 Q 12.7 85.8, 13.9 84.5 Q 15.1 83.1, 17.3 83.1 Q 19.6 83.1, 20.8 84.5 Q 22.0 85.8, 22.0 88.3 Q 22.0 90.7, 20.8 92.1 Q 19.5 93.5, 17.3 93.5 Q 15.1 93.5, 13.9 92.1 Q 12.7 90.7, 12.7 88.3 M 17.3 92.4 Q 18.9 92.4, 19.7 91.3 Q 20.5 90.3, 20.5 88.3 Q 20.5 86.3, 19.7 85.3 Q 18.9 84.3, 17.3 84.3 Q 15.8 84.3, 15.0 85.3 Q 14.1 86.3, 14.1 88.3 Q 14.1 90.3, 15.0 91.3 Q 15.8 92.4, 17.3 92.4 " fill="#FF0000"/>
<path class="atom-10" d="M 46.6 139.9 Q 46.6 137.4, 47.8 136.1 Q 49.0 134.7, 51.2 134.7 Q 53.5 134.7, 54.6 136.1 Q 55.8 137.4, 55.8 139.9 Q 55.8 142.3, 54.6 143.7 Q 53.4 145.1, 51.2 145.1 Q 49.0 145.1, 47.8 143.7 Q 46.6 142.3, 46.6 139.9 M 51.2 144.0 Q 52.8 144.0, 53.6 142.9 Q 54.4 141.9, 54.4 139.9 Q 54.4 137.9, 53.6 136.9 Q 52.8 135.9, 51.2 135.9 Q 49.7 135.9, 48.8 136.9 Q 48.0 137.9, 48.0 139.9 Q 48.0 141.9, 48.8 142.9 Q 49.7 144.0, 51.2 144.0 " fill="#FF0000"/>
<path class="atom-10" d="M 57.4 134.8 L 58.8 134.8 L 58.8 139.1 L 63.9 139.1 L 63.9 134.8 L 65.3 134.8 L 65.3 144.9 L 63.9 144.9 L 63.9 140.3 L 58.8 140.3 L 58.8 144.9 L 57.4 144.9 L 57.4 134.8 " fill="#FF0000"/>
<path class="atom-12" d="M 231.4 129.2 Q 231.4 126.8, 232.6 125.4 Q 233.8 124.1, 236.1 124.1 Q 238.3 124.1, 239.5 125.4 Q 240.7 126.8, 240.7 129.2 Q 240.7 131.7, 239.5 133.1 Q 238.3 134.5, 236.1 134.5 Q 233.8 134.5, 232.6 133.1 Q 231.4 131.7, 231.4 129.2 M 236.1 133.3 Q 237.6 133.3, 238.4 132.3 Q 239.3 131.2, 239.3 129.2 Q 239.3 127.2, 238.4 126.2 Q 237.6 125.2, 236.1 125.2 Q 234.5 125.2, 233.7 126.2 Q 232.9 127.2, 232.9 129.2 Q 232.9 131.3, 233.7 132.3 Q 234.5 133.3, 236.1 133.3 " fill="#FF0000"/>
<path class="atom-13" d="M 159.9 127.8 L 161.2 127.8 L 161.2 132.0 L 166.4 132.0 L 166.4 127.8 L 167.7 127.8 L 167.7 137.8 L 166.4 137.8 L 166.4 133.2 L 161.2 133.2 L 161.2 137.8 L 159.9 137.8 L 159.9 127.8 " fill="#FF0000"/>
<path class="atom-13" d="M 169.8 132.8 Q 169.8 130.3, 171.0 129.0 Q 172.2 127.6, 174.4 127.6 Q 176.7 127.6, 177.9 129.0 Q 179.1 130.3, 179.1 132.8 Q 179.1 135.2, 177.9 136.6 Q 176.7 138.0, 174.4 138.0 Q 172.2 138.0, 171.0 136.6 Q 169.8 135.2, 169.8 132.8 M 174.4 136.9 Q 176.0 136.9, 176.8 135.8 Q 177.7 134.8, 177.7 132.8 Q 177.7 130.8, 176.8 129.8 Q 176.0 128.8, 174.4 128.8 Q 172.9 128.8, 172.1 129.8 Q 171.2 130.8, 171.2 132.8 Q 171.2 134.8, 172.1 135.8 Q 172.9 136.9, 174.4 136.9 " fill="#FF0000"/>
</g>
    <g transform="translate(554.0, 0) scale(1 1) "><line x1="15" y1="100" x2="25" y2="100" style="stroke:rgb(0,0,0);stroke-width:2"/>
  <line x1="20" y1="95" x2="20" y2="105" style="stroke:rgb(0,0,0);stroke-width:2"/>
</g>
    <g transform="translate(594.0, 0) scale(1 1) "><!-- END OF HEADER -->
<rect style="opacity:1.0;fill:#FFFFFF;stroke:none" width="265.0" height="200.0" x="0.0" y="0.0"> </rect>
<path class="bond-0 atom-0 atom-1" d="M 25.8,50.7 L 62.6,55.2" style="fill:none;fill-rule:evenodd;stroke:#000000;stroke-width:2.0px;stroke-linecap:butt;stroke-linejoin:miter;stroke-opacity:1"/>
<path class="bond-1 atom-1 atom-2" d="M 62.6,55.2 L 77.1,89.3" style="fill:none;fill-rule:evenodd;stroke:#000000;stroke-width:2.0px;stroke-linecap:butt;stroke-linejoin:miter;stroke-opacity:1"/>
<path class="bond-2 atom-2 atom-3" d="M 77.1,89.3 L 113.9,93.7" style="fill:none;fill-rule:evenodd;stroke:#000000;stroke-width:2.0px;stroke-linecap:butt;stroke-linejoin:miter;stroke-opacity:1"/>
<path class="bond-3 atom-3 atom-4" d="M 113.9,93.7 L 119.7,107.5" style="fill:none;fill-rule:evenodd;stroke:#000000;stroke-width:2.0px;stroke-linecap:butt;stroke-linejoin:miter;stroke-opacity:1"/>
<path class="bond-3 atom-3 atom-4" d="M 119.7,107.5 L 125.6,121.3" style="fill:none;fill-rule:evenodd;stroke:#FF0000;stroke-width:2.0px;stroke-linecap:butt;stroke-linejoin:miter;stroke-opacity:1"/>
<path class="bond-4 atom-4 atom-5" d="M 134.4,128.5 L 149.8,130.4" style="fill:none;fill-rule:evenodd;stroke:#FF0000;stroke-width:2.0px;stroke-linecap:butt;stroke-linejoin:miter;stroke-opacity:1"/>
<path class="bond-4 atom-4 atom-5" d="M 149.8,130.4 L 165.2,132.3" style="fill:none;fill-rule:evenodd;stroke:#000000;stroke-width:2.0px;stroke-linecap:butt;stroke-linejoin:miter;stroke-opacity:1"/>
<path class="bond-5 atom-5 atom-6" d="M 165.2,132.3 L 179.7,166.3" style="fill:none;fill-rule:evenodd;stroke:#000000;stroke-width:2.0px;stroke-linecap:butt;stroke-linejoin:miter;stroke-opacity:1"/>
<path class="bond-6 atom-5 atom-7" d="M 165.2,132.3 L 187.4,102.7" style="fill:none;fill-rule:evenodd;stroke:#000000;stroke-width:2.0px;stroke-linecap:butt;stroke-linejoin:miter;stroke-opacity:1"/>
<path class="bond-7 atom-7 atom-8" d="M 187.4,102.7 L 157.8,80.4" style="fill:none;fill-rule:evenodd;stroke:#000000;stroke-width:2.0px;stroke-linecap:butt;stroke-linejoin:miter;stroke-opacity:1"/>
<path class="bond-8 atom-7 atom-9" d="M 187.4,102.7 L 217.0,124.9" style="fill:none;fill-rule:evenodd;stroke:#000000;stroke-width:2.0px;stroke-linecap:butt;stroke-linejoin:miter;stroke-opacity:1"/>
<path class="bond-9 atom-7 atom-10" d="M 187.4,102.7 L 209.7,73.0" style="fill:none;fill-rule:evenodd;stroke:#000000;stroke-width:2.0px;stroke-linecap:butt;stroke-linejoin:miter;stroke-opacity:1"/>
<path class="bond-10 atom-10 atom-11" d="M 207.7,75.6 L 223.9,77.6" style="fill:none;fill-rule:evenodd;stroke:#000000;stroke-width:2.0px;stroke-linecap:butt;stroke-linejoin:miter;stroke-opacity:1"/>
<path class="bond-10 atom-10 atom-11" d="M 223.9,77.6 L 240.1,79.5" style="fill:none;fill-rule:evenodd;stroke:#FF0000;stroke-width:2.0px;stroke-linecap:butt;stroke-linejoin:miter;stroke-opacity:1"/>
<path class="bond-10 atom-10 atom-11" d="M 208.4,70.1 L 224.6,72.0" style="fill:none;fill-rule:evenodd;stroke:#000000;stroke-width:2.0px;stroke-linecap:butt;stroke-linejoin:miter;stroke-opacity:1"/>
<path class="bond-10 atom-10 atom-11" d="M 224.6,72.0 L 240.7,74.0" style="fill:none;fill-rule:evenodd;stroke:#FF0000;stroke-width:2.0px;stroke-linecap:butt;stroke-linejoin:miter;stroke-opacity:1"/>
<path class="bond-11 atom-10 atom-12" d="M 209.7,73.0 L 203.8,59.3" style="fill:none;fill-rule:evenodd;stroke:#000000;stroke-width:2.0px;stroke-linecap:butt;stroke-linejoin:miter;stroke-opacity:1"/>
<path class="bond-11 atom-10 atom-12" d="M 203.8,59.3 L 198.0,45.6" style="fill:none;fill-rule:evenodd;stroke:#FF0000;stroke-width:2.0px;stroke-linecap:butt;stroke-linejoin:miter;stroke-opacity:1"/>
<path class="bond-12 atom-2 atom-13" d="M 77.1,89.3 L 54.8,118.9" style="fill:none;fill-rule:evenodd;stroke:#000000;stroke-width:2.0px;stroke-linecap:butt;stroke-linejoin:miter;stroke-opacity:1"/>
<path class="bond-13 atom-13 atom-14" d="M 56.8,116.3 L 40.6,114.4" style="fill:none;fill-rule:evenodd;stroke:#000000;stroke-width:2.0px;stroke-linecap:butt;stroke-linejoin:miter;stroke-opacity:1"/>
<path class="bond-13 atom-13 atom-14" d="M 40.6,114.4 L 24.4,112.4" style="fill:none;fill-rule:evenodd;stroke:#FF0000;stroke-width:2.0px;stroke-linecap:butt;stroke-linejoin:miter;stroke-opacity:1"/>
<path class="bond-13 atom-13 atom-14" d="M 56.1,121.8 L 39.9,119.9" style="fill:none;fill-rule:evenodd;stroke:#000000;stroke-width:2.0px;stroke-linecap:butt;stroke-linejoin:miter;stroke-opacity:1"/>
<path class="bond-13 atom-13 atom-14" d="M 39.9,119.9 L 23.8,117.9" style="fill:none;fill-rule:evenodd;stroke:#FF0000;stroke-width:2.0px;stroke-linecap:butt;stroke-linejoin:miter;stroke-opacity:1"/>
<path class="bond-14 atom-13 atom-15" d="M 54.8,118.9 L 60.7,132.7" style="fill:none;fill-rule:evenodd;stroke:#000000;stroke-width:2.0px;stroke-linecap:butt;stroke-linejoin:miter;stroke-opacity:1"/>
<path class="bond-14 atom-13 atom-15" d="M 60.7,132.7 L 66.6,146.4" style="fill:none;fill-rule:evenodd;stroke:#FF0000;stroke-width:2.0px;stroke-linecap:butt;stroke-linejoin:miter;stroke-opacity:1"/>
<path d="M 60.7,55.0 L 62.6,55.2 L 63.3,56.9" style="fill:none;stroke:#000000;stroke-width:2.0px;stroke-linecap:butt;stroke-linejoin:miter;stroke-opacity:1;"/>
<path d="M 112.0,93.5 L 113.9,93.7 L 114.2,94.4" style="fill:none;stroke:#000000;stroke-width:2.0px;stroke-linecap:butt;stroke-linejoin:miter;stroke-opacity:1;"/>
<path d="M 208.5,74.5 L 209.7,73.0 L 209.4,72.4" style="fill:none;stroke:#000000;stroke-width:2.0px;stroke-linecap:butt;stroke-linejoin:miter;stroke-opacity:1;"/>
<path d="M 56.0,117.4 L 54.8,118.9 L 55.1,119.6" style="fill:none;stroke:#000000;stroke-width:2.0px;stroke-linecap:butt;stroke-linejoin:miter;stroke-opacity:1;"/>
<path class="atom-4" d="M 123.6 127.8 Q 123.6 125.3, 124.8 123.9 Q 126.1 122.5, 128.4 122.5 Q 130.7 122.5, 132.0 123.9 Q 133.2 125.3, 133.2 127.8 Q 133.2 130.4, 131.9 131.8 Q 130.7 133.3, 128.4 133.3 Q 126.1 133.3, 124.8 131.8 Q 123.6 130.4, 123.6 127.8 M 128.4 132.1 Q 130.0 132.1, 130.8 131.0 Q 131.7 129.9, 131.7 127.8 Q 131.7 125.8, 130.8 124.7 Q 130.0 123.7, 128.4 123.7 Q 126.8 123.7, 125.9 124.7 Q 125.1 125.8, 125.1 127.8 Q 125.1 130.0, 125.9 131.0 Q 126.8 132.1, 128.4 132.1 " fill="#FF0000"/>
<path class="atom-11" d="M 241.6 77.5 Q 241.6 75.0, 242.9 73.6 Q 244.1 72.2, 246.4 72.2 Q 248.8 72.2, 250.0 73.6 Q 251.2 75.0, 251.2 77.5 Q 251.2 80.1, 250.0 81.5 Q 248.7 83.0, 246.4 83.0 Q 244.1 83.0, 242.9 81.5 Q 241.6 80.1, 241.6 77.5 M 246.4 81.8 Q 248.0 81.8, 248.9 80.7 Q 249.8 79.6, 249.8 77.5 Q 249.8 75.5, 248.9 74.4 Q 248.0 73.4, 246.4 73.4 Q 244.8 73.4, 244.0 74.4 Q 243.1 75.5, 243.1 77.5 Q 243.1 79.6, 244.0 80.7 Q 244.8 81.8, 246.4 81.8 " fill="#FF0000"/>
<path class="atom-12" d="M 180.0 33.8 L 181.4 33.8 L 181.4 38.2 L 186.7 38.2 L 186.7 33.8 L 188.2 33.8 L 188.2 44.3 L 186.7 44.3 L 186.7 39.4 L 181.4 39.4 L 181.4 44.3 L 180.0 44.3 L 180.0 33.8 " fill="#FF0000"/>
<path class="atom-12" d="M 190.3 39.0 Q 190.3 36.5, 191.6 35.1 Q 192.8 33.7, 195.1 33.7 Q 197.5 33.7, 198.7 35.1 Q 200.0 36.5, 200.0 39.0 Q 200.0 41.5, 198.7 43.0 Q 197.4 44.4, 195.1 44.4 Q 192.8 44.4, 191.6 43.0 Q 190.3 41.6, 190.3 39.0 M 195.1 43.2 Q 196.7 43.2, 197.6 42.2 Q 198.5 41.1, 198.5 39.0 Q 198.5 36.9, 197.6 35.9 Q 196.7 34.8, 195.1 34.8 Q 193.5 34.8, 192.7 35.9 Q 191.8 36.9, 191.8 39.0 Q 191.8 41.1, 192.7 42.2 Q 193.5 43.2, 195.1 43.2 " fill="#FF0000"/>
<path class="atom-14" d="M 13.3 114.4 Q 13.3 111.9, 14.5 110.5 Q 15.7 109.1, 18.1 109.1 Q 20.4 109.1, 21.6 110.5 Q 22.9 111.9, 22.9 114.4 Q 22.9 117.0, 21.6 118.4 Q 20.4 119.9, 18.1 119.9 Q 15.8 119.9, 14.5 118.4 Q 13.3 117.0, 13.3 114.4 M 18.1 118.7 Q 19.7 118.7, 20.5 117.6 Q 21.4 116.6, 21.4 114.4 Q 21.4 112.4, 20.5 111.4 Q 19.7 110.3, 18.1 110.3 Q 16.5 110.3, 15.6 111.3 Q 14.7 112.4, 14.7 114.4 Q 14.7 116.6, 15.6 117.6 Q 16.5 118.7, 18.1 118.7 " fill="#FF0000"/>
<path class="atom-15" d="M 64.5 153.0 Q 64.5 150.5, 65.8 149.1 Q 67.0 147.7, 69.4 147.7 Q 71.7 147.7, 72.9 149.1 Q 74.2 150.5, 74.2 153.0 Q 74.2 155.5, 72.9 157.0 Q 71.7 158.4, 69.4 158.4 Q 67.0 158.4, 65.8 157.0 Q 64.5 155.6, 64.5 153.0 M 69.4 157.2 Q 71.0 157.2, 71.8 156.2 Q 72.7 155.1, 72.7 153.0 Q 72.7 150.9, 71.8 149.9 Q 71.0 148.8, 69.4 148.8 Q 67.8 148.8, 66.9 149.9 Q 66.0 150.9, 66.0 153.0 Q 66.0 155.1, 66.9 156.2 Q 67.8 157.2, 69.4 157.2 " fill="#FF0000"/>
<path class="atom-15" d="M 75.8 147.8 L 77.2 147.8 L 77.2 152.2 L 82.6 152.2 L 82.6 147.8 L 84.0 147.8 L 84.0 158.3 L 82.6 158.3 L 82.6 153.4 L 77.2 153.4 L 77.2 158.3 L 75.8 158.3 L 75.8 147.8 " fill="#FF0000"/>
</g>
  </g>
</svg>
