<?xml version='1.0' encoding='ASCII' standalone='yes'?>
<svg xmlns="http://www.w3.org/2000/svg" xmlns:xlink="http://www.w3.org/1999/xlink" version="1.1" width="863.0px" viewBox="0 0 863.0 200.0" height="200.0px">
  <g>
    <g transform="translate(0, 0) scale(1 1) "><!-- END OF HEADER -->
<rect style="opacity:1.0;fill:#FFFFFF;stroke:none" width="271.0" height="200.0" x="0.0" y="0.0"> </rect>
<path class="bond-0 atom-0 atom-1" d="M 131.9,21.2 L 160.8,42.3" style="fill:none;fill-rule:evenodd;stroke:#000000;stroke-width:2.0px;stroke-linecap:butt;stroke-linejoin:miter;stroke-opacity:1"/>
<path class="bond-1 atom-1 atom-2" d="M 160.8,42.3 L 156.9,77.8" style="fill:none;fill-rule:evenodd;stroke:#000000;stroke-width:2.0px;stroke-linecap:butt;stroke-linejoin:miter;stroke-opacity:1"/>
<path class="bond-2 atom-2 atom-3" d="M 156.9,77.8 L 153.1,113.3" style="fill:none;fill-rule:evenodd;stroke:#000000;stroke-width:2.0px;stroke-linecap:butt;stroke-linejoin:miter;stroke-opacity:1"/>
<path class="bond-3 atom-2 atom-4" d="M 156.9,77.8 L 121.4,73.9" style="fill:none;fill-rule:evenodd;stroke:#000000;stroke-width:2.0px;stroke-linecap:butt;stroke-linejoin:miter;stroke-opacity:1"/>
<path class="bond-4 atom-4 atom-5" d="M 121.4,73.9 L 100.3,102.8" style="fill:none;fill-rule:evenodd;stroke:#000000;stroke-width:2.0px;stroke-linecap:butt;stroke-linejoin:miter;stroke-opacity:1"/>
<path class="bond-5 atom-5 atom-6" d="M 100.3,102.8 L 64.7,98.9" style="fill:none;fill-rule:evenodd;stroke:#000000;stroke-width:2.0px;stroke-linecap:butt;stroke-linejoin:miter;stroke-opacity:1"/>
<path class="bond-6 atom-6 atom-7" d="M 64.7,98.9 L 29.2,95.1" style="fill:none;fill-rule:evenodd;stroke:#000000;stroke-width:2.0px;stroke-linecap:butt;stroke-linejoin:miter;stroke-opacity:1"/>
<path class="bond-7 atom-6 atom-8" d="M 64.7,98.9 L 68.6,63.4" style="fill:none;fill-rule:evenodd;stroke:#000000;stroke-width:2.0px;stroke-linecap:butt;stroke-linejoin:miter;stroke-opacity:1"/>
<path class="bond-8 atom-8 atom-9" d="M 68.6,63.4 L 57.1,55.0" style="fill:none;fill-rule:evenodd;stroke:#000000;stroke-width:2.0px;stroke-linecap:butt;stroke-linejoin:miter;stroke-opacity:1"/>
<path class="bond-8 atom-8 atom-9" d="M 57.1,55.0 L 45.6,46.6" style="fill:none;fill-rule:evenodd;stroke:#FF0000;stroke-width:2.0px;stroke-linecap:butt;stroke-linejoin:miter;stroke-opacity:1"/>
<path class="bond-9 atom-6 atom-10" d="M 64.7,98.9 L 60.9,134.5" style="fill:none;fill-rule:evenodd;stroke:#000000;stroke-width:2.0px;stroke-linecap:butt;stroke-linejoin:miter;stroke-opacity:1"/>
<path class="bond-10 atom-10 atom-11" d="M 58.1,135.7 L 70.2,144.6" style="fill:none;fill-rule:evenodd;stroke:#000000;stroke-width:2.0px;stroke-linecap:butt;stroke-linejoin:miter;stroke-opacity:1"/>
<path class="bond-10 atom-10 atom-11" d="M 70.2,144.6 L 82.3,153.5" style="fill:none;fill-rule:evenodd;stroke:#FF0000;stroke-width:2.0px;stroke-linecap:butt;stroke-linejoin:miter;stroke-opacity:1"/>
<path class="bond-10 atom-10 atom-11" d="M 61.2,131.4 L 73.4,140.3" style="fill:none;fill-rule:evenodd;stroke:#000000;stroke-width:2.0px;stroke-linecap:butt;stroke-linejoin:miter;stroke-opacity:1"/>
<path class="bond-10 atom-10 atom-11" d="M 73.4,140.3 L 85.5,149.1" style="fill:none;fill-rule:evenodd;stroke:#FF0000;stroke-width:2.0px;stroke-linecap:butt;stroke-linejoin:miter;stroke-opacity:1"/>
<path class="bond-11 atom-10 atom-12" d="M 60.9,134.5 L 47.5,140.4" style="fill:none;fill-rule:evenodd;stroke:#000000;stroke-width:2.0px;stroke-linecap:butt;stroke-linejoin:miter;stroke-opacity:1"/>
<path class="bond-11 atom-10 atom-12" d="M 47.5,140.4 L 34.0,146.3" style="fill:none;fill-rule:evenodd;stroke:#FF0000;stroke-width:2.0px;stroke-linecap:butt;stroke-linejoin:miter;stroke-opacity:1"/>
<path class="bond-12 atom-2 atom-13" d="M 156.9,77.8 L 192.4,81.6" style="fill:none;fill-rule:evenodd;stroke:#000000;stroke-width:2.0px;stroke-linecap:butt;stroke-linejoin:miter;stroke-opacity:1"/>
<path class="bond-13 atom-13 atom-14" d="M 192.4,81.6 L 206.9,114.3" style="fill:none;fill-rule:evenodd;stroke:#000000;stroke-width:2.0px;stroke-linecap:butt;stroke-linejoin:miter;stroke-opacity:1"/>
<path class="bond-14 atom-14 atom-15" d="M 205.6,111.5 L 196.9,123.4" style="fill:none;fill-rule:evenodd;stroke:#000000;stroke-width:2.0px;stroke-linecap:butt;stroke-linejoin:miter;stroke-opacity:1"/>
<path class="bond-14 atom-14 atom-15" d="M 196.9,123.4 L 188.2,135.3" style="fill:none;fill-rule:evenodd;stroke:#FF0000;stroke-width:2.0px;stroke-linecap:butt;stroke-linejoin:miter;stroke-opacity:1"/>
<path class="bond-14 atom-14 atom-15" d="M 210.0,114.7 L 201.2,126.6" style="fill:none;fill-rule:evenodd;stroke:#000000;stroke-width:2.0px;stroke-linecap:butt;stroke-linejoin:miter;stroke-opacity:1"/>
<path class="bond-14 atom-14 atom-15" d="M 201.2,126.6 L 192.5,138.5" style="fill:none;fill-rule:evenodd;stroke:#FF0000;stroke-width:2.0px;stroke-linecap:butt;stroke-linejoin:miter;stroke-opacity:1"/>
<path class="bond-15 atom-14 atom-16" d="M 206.9,114.3 L 221.7,116.0" style="fill:none;fill-rule:evenodd;stroke:#000000;stroke-width:2.0px;stroke-linecap:butt;stroke-linejoin:miter;stroke-opacity:1"/>
<path class="bond-15 atom-14 atom-16" d="M 221.7,116.0 L 236.6,117.6" style="fill:none;fill-rule:evenodd;stroke:#FF0000;stroke-width:2.0px;stroke-linecap:butt;stroke-linejoin:miter;stroke-opacity:1"/>
<path d="M 159.3,41.2 L 160.8,42.3 L 160.6,44.0" style="fill:none;stroke:#000000;stroke-width:2.0px;stroke-linecap:butt;stroke-linejoin:miter;stroke-opacity:1;"/>
<path d="M 123.2,74.1 L 121.4,73.9 L 120.3,75.4" style="fill:none;stroke:#000000;stroke-width:2.0px;stroke-linecap:butt;stroke-linejoin:miter;stroke-opacity:1;"/>
<path d="M 101.3,101.3 L 100.3,102.8 L 98.5,102.6" style="fill:none;stroke:#000000;stroke-width:2.0px;stroke-linecap:butt;stroke-linejoin:miter;stroke-opacity:1;"/>
<path d="M 68.4,65.2 L 68.6,63.4 L 68.0,63.0" style="fill:none;stroke:#000000;stroke-width:2.0px;stroke-linecap:butt;stroke-linejoin:miter;stroke-opacity:1;"/>
<path d="M 61.1,132.7 L 60.9,134.5 L 60.2,134.8" style="fill:none;stroke:#000000;stroke-width:2.0px;stroke-linecap:butt;stroke-linejoin:miter;stroke-opacity:1;"/>
<path d="M 190.7,81.5 L 192.4,81.6 L 193.2,83.3" style="fill:none;stroke:#000000;stroke-width:2.0px;stroke-linecap:butt;stroke-linejoin:miter;stroke-opacity:1;"/>
<path d="M 206.2,112.7 L 206.9,114.3 L 207.6,114.4" style="fill:none;stroke:#000000;stroke-width:2.0px;stroke-linecap:butt;stroke-linejoin:miter;stroke-opacity:1;"/>
<path class="atom-9" d="M 25.1 37.3 L 26.5 37.3 L 26.5 41.6 L 31.7 41.6 L 31.7 37.3 L 33.0 37.3 L 33.0 47.4 L 31.7 47.4 L 31.7 42.7 L 26.5 42.7 L 26.5 47.4 L 25.1 47.4 L 25.1 37.3 " fill="#FF0000"/>
<path class="atom-9" d="M 35.1 42.3 Q 35.1 39.9, 36.3 38.5 Q 37.5 37.2, 39.7 37.2 Q 42.0 37.2, 43.2 38.5 Q 44.4 39.9, 44.4 42.3 Q 44.4 44.8, 43.2 46.2 Q 42.0 47.6, 39.7 47.6 Q 37.5 47.6, 36.3 46.2 Q 35.1 44.8, 35.1 42.3 M 39.7 46.4 Q 41.3 46.4, 42.1 45.4 Q 43.0 44.4, 43.0 42.3 Q 43.0 40.3, 42.1 39.3 Q 41.3 38.3, 39.7 38.3 Q 38.2 38.3, 37.4 39.3 Q 36.5 40.3, 36.5 42.3 Q 36.5 44.4, 37.4 45.4 Q 38.2 46.4, 39.7 46.4 " fill="#FF0000"/>
<path class="atom-11" d="M 85.1 155.6 Q 85.1 153.2, 86.3 151.8 Q 87.5 150.5, 89.7 150.5 Q 92.0 150.5, 93.2 151.8 Q 94.4 153.2, 94.4 155.6 Q 94.4 158.1, 93.2 159.5 Q 92.0 160.8, 89.7 160.8 Q 87.5 160.8, 86.3 159.5 Q 85.1 158.1, 85.1 155.6 M 89.7 159.7 Q 91.3 159.7, 92.1 158.7 Q 93.0 157.6, 93.0 155.6 Q 93.0 153.6, 92.1 152.6 Q 91.3 151.6, 89.7 151.6 Q 88.2 151.6, 87.3 152.6 Q 86.5 153.6, 86.5 155.6 Q 86.5 157.6, 87.3 158.7 Q 88.2 159.7, 89.7 159.7 " fill="#FF0000"/>
<path class="atom-12" d="M 13.6 143.9 L 14.9 143.9 L 14.9 148.2 L 20.1 148.2 L 20.1 143.9 L 21.5 143.9 L 21.5 154.0 L 20.1 154.0 L 20.1 149.3 L 14.9 149.3 L 14.9 154.0 L 13.6 154.0 L 13.6 143.9 " fill="#FF0000"/>
<path class="atom-12" d="M 23.5 148.9 Q 23.5 146.5, 24.7 145.1 Q 25.9 143.8, 28.2 143.8 Q 30.4 143.8, 31.6 145.1 Q 32.8 146.5, 32.8 148.9 Q 32.8 151.4, 31.6 152.8 Q 30.4 154.2, 28.2 154.2 Q 26.0 154.2, 24.7 152.8 Q 23.5 151.4, 23.5 148.9 M 28.2 153.0 Q 29.7 153.0, 30.6 152.0 Q 31.4 151.0, 31.4 148.9 Q 31.4 146.9, 30.6 145.9 Q 29.7 144.9, 28.2 144.9 Q 26.6 144.9, 25.8 145.9 Q 25.0 146.9, 25.0 148.9 Q 25.0 151.0, 25.8 152.0 Q 26.6 153.0, 28.2 153.0 " fill="#FF0000"/>
<path class="atom-15" d="M 181.1 143.2 Q 181.1 140.8, 182.3 139.4 Q 183.5 138.1, 185.8 138.1 Q 188.0 138.1, 189.2 139.4 Q 190.4 140.8, 190.4 143.2 Q 190.4 145.7, 189.2 147.1 Q 188.0 148.5, 185.8 148.5 Q 183.5 148.5, 182.3 147.1 Q 181.1 145.7, 181.1 143.2 M 185.8 147.3 Q 187.3 147.3, 188.1 146.3 Q 189.0 145.2, 189.0 143.2 Q 189.0 141.2, 188.1 140.2 Q 187.3 139.2, 185.8 139.2 Q 184.2 139.2, 183.4 140.2 Q 182.6 141.2, 182.6 143.2 Q 182.6 145.3, 183.4 146.3 Q 184.2 147.3, 185.8 147.3 " fill="#FF0000"/>
<path class="atom-16" d="M 237.8 118.2 Q 237.8 115.8, 239.0 114.4 Q 240.2 113.1, 242.4 113.1 Q 244.7 113.1, 245.9 114.4 Q 247.1 115.8, 247.1 118.2 Q 247.1 120.7, 245.8 122.1 Q 244.6 123.5, 242.4 123.5 Q 240.2 123.5, 239.0 122.1 Q 237.8 120.7, 237.8 118.2 M 242.4 122.3 Q 244.0 122.3, 244.8 121.3 Q 245.6 120.3, 245.6 118.2 Q 245.6 116.2, 244.8 115.2 Q 244.0 114.2, 242.4 114.2 Q 240.9 114.2, 240.0 115.2 Q 239.2 116.2, 239.2 118.2 Q 239.2 120.3, 240.0 121.3 Q 240.9 122.3, 242.4 122.3 " fill="#FF0000"/>
<path class="atom-16" d="M 248.6 113.2 L 250.0 113.2 L 250.0 117.5 L 255.2 117.5 L 255.2 113.2 L 256.6 113.2 L 256.6 123.3 L 255.2 123.3 L 255.2 118.6 L 250.0 118.6 L 250.0 123.3 L 248.6 123.3 L 248.6 113.2 " fill="#FF0000"/>
<path class="legend" d="M 126.0 181.9 Q 126.0 179.6, 126.7 177.7 Q 127.4 175.8, 128.7 173.8 L 129.6 174.4 Q 128.5 176.3, 128.0 178.0 Q 127.5 179.7, 127.5 181.9 Q 127.5 184.0, 128.0 185.8 Q 128.5 187.5, 129.6 189.4 L 128.7 190.0 Q 127.4 188.0, 126.7 186.1 Q 126.0 184.2, 126.0 181.9 " fill="#000000"/>
<path class="legend" d="M 130.5 177.3 Q 130.9 176.2, 131.9 175.6 Q 132.9 175.0, 134.3 175.0 Q 136.0 175.0, 136.9 175.9 Q 137.9 176.8, 137.9 178.5 Q 137.9 180.2, 136.6 181.7 Q 135.4 183.3, 132.9 185.2 L 138.1 185.2 L 138.1 186.4 L 130.5 186.4 L 130.5 185.4 Q 132.6 183.9, 133.8 182.8 Q 135.1 181.6, 135.7 180.6 Q 136.3 179.6, 136.3 178.6 Q 136.3 177.5, 135.8 176.9 Q 135.2 176.3, 134.3 176.3 Q 133.3 176.3, 132.7 176.6 Q 132.1 177.0, 131.7 177.8 L 130.5 177.3 " fill="#000000"/>
<path class="legend" d="M 143.1 181.9 Q 143.1 184.2, 142.4 186.1 Q 141.7 188.0, 140.4 190.0 L 139.5 189.4 Q 140.6 187.5, 141.1 185.8 Q 141.6 184.0, 141.6 181.9 Q 141.6 179.7, 141.1 178.0 Q 140.6 176.3, 139.5 174.4 L 140.4 173.8 Q 141.7 175.8, 142.4 177.7 Q 143.1 179.6, 143.1 181.9 " fill="#000000"/>
</g>
    <g transform="translate(271.0, 0) scale(1 1) "><line x1="5" y1="100" x2="35" y2="100" style="stroke:rgb(0,0,0);stroke-width:2"/>
  <line x1="34" y1="100" x2="29" y2="95" style="stroke:rgb(0,0,0);stroke-width:2"/>
  <line x1="34" y1="100" x2="29" y2="105" style="stroke:rgb(0,0,0);stroke-width:2"/>
</g>
    <g transform="translate(311.0, 0) scale(1 1) "><!-- END OF HEADER -->
<rect style="opacity:1.0;fill:#FFFFFF;stroke:none" width="205.0" height="200.0" x="0.0" y="0.0"> </rect>
<path class="bond-0 atom-0 atom-1" d="M 122.6,44.3 L 108.8,89.2" style="fill:none;fill-rule:evenodd;stroke:#000000;stroke-width:2.0px;stroke-linecap:butt;stroke-linejoin:miter;stroke-opacity:1"/>
<path class="bond-1 atom-1 atom-2" d="M 108.8,89.2 L 95.0,134.1" style="fill:none;fill-rule:evenodd;stroke:#000000;stroke-width:2.0px;stroke-linecap:butt;stroke-linejoin:miter;stroke-opacity:1"/>
<path class="bond-2 atom-1 atom-3" d="M 108.8,89.2 L 63.9,75.4" style="fill:none;fill-rule:evenodd;stroke:#000000;stroke-width:2.0px;stroke-linecap:butt;stroke-linejoin:miter;stroke-opacity:1"/>
<path class="bond-3 atom-3 atom-4" d="M 63.9,75.4 L 50.5,87.9" style="fill:none;fill-rule:evenodd;stroke:#000000;stroke-width:2.0px;stroke-linecap:butt;stroke-linejoin:miter;stroke-opacity:1"/>
<path class="bond-3 atom-3 atom-4" d="M 50.5,87.9 L 37.2,100.3" style="fill:none;fill-rule:evenodd;stroke:#FF0000;stroke-width:2.0px;stroke-linecap:butt;stroke-linejoin:miter;stroke-opacity:1"/>
<path class="bond-4 atom-1 atom-5" d="M 108.8,89.2 L 153.7,103.0" style="fill:none;fill-rule:evenodd;stroke:#000000;stroke-width:2.0px;stroke-linecap:butt;stroke-linejoin:miter;stroke-opacity:1"/>
<path class="bond-5 atom-5 atom-6" d="M 154.7,107.0 L 168.8,93.8" style="fill:none;fill-rule:evenodd;stroke:#000000;stroke-width:2.0px;stroke-linecap:butt;stroke-linejoin:miter;stroke-opacity:1"/>
<path class="bond-5 atom-5 atom-6" d="M 168.8,93.8 L 182.9,80.7" style="fill:none;fill-rule:evenodd;stroke:#FF0000;stroke-width:2.0px;stroke-linecap:butt;stroke-linejoin:miter;stroke-opacity:1"/>
<path class="bond-5 atom-5 atom-6" d="M 149.9,101.8 L 164.0,88.7" style="fill:none;fill-rule:evenodd;stroke:#000000;stroke-width:2.0px;stroke-linecap:butt;stroke-linejoin:miter;stroke-opacity:1"/>
<path class="bond-5 atom-5 atom-6" d="M 164.0,88.7 L 178.1,75.5" style="fill:none;fill-rule:evenodd;stroke:#FF0000;stroke-width:2.0px;stroke-linecap:butt;stroke-linejoin:miter;stroke-opacity:1"/>
<path class="bond-6 atom-5 atom-7" d="M 153.7,103.0 L 158.0,121.7" style="fill:none;fill-rule:evenodd;stroke:#000000;stroke-width:2.0px;stroke-linecap:butt;stroke-linejoin:miter;stroke-opacity:1"/>
<path class="bond-6 atom-5 atom-7" d="M 158.0,121.7 L 162.4,140.5" style="fill:none;fill-rule:evenodd;stroke:#FF0000;stroke-width:2.0px;stroke-linecap:butt;stroke-linejoin:miter;stroke-opacity:1"/>
<path d="M 66.1,76.1 L 63.9,75.4 L 63.2,76.0" style="fill:none;stroke:#000000;stroke-width:2.0px;stroke-linecap:butt;stroke-linejoin:miter;stroke-opacity:1;"/>
<path d="M 151.5,102.3 L 153.7,103.0 L 154.0,103.9" style="fill:none;stroke:#000000;stroke-width:2.0px;stroke-linecap:butt;stroke-linejoin:miter;stroke-opacity:1;"/>
<path class="atom-4" d="M 10.2 100.8 L 12.1 100.8 L 12.1 106.5 L 18.9 106.5 L 18.9 100.8 L 20.7 100.8 L 20.7 114.1 L 18.9 114.1 L 18.9 108.0 L 12.1 108.0 L 12.1 114.1 L 10.2 114.1 L 10.2 100.8 " fill="#FF0000"/>
<path class="atom-4" d="M 23.4 107.5 Q 23.4 104.3, 25.0 102.5 Q 26.5 100.7, 29.5 100.7 Q 32.5 100.7, 34.0 102.5 Q 35.6 104.3, 35.6 107.5 Q 35.6 110.7, 34.0 112.5 Q 32.4 114.4, 29.5 114.4 Q 26.6 114.4, 25.0 112.5 Q 23.4 110.7, 23.4 107.5 M 29.5 112.9 Q 31.5 112.9, 32.6 111.5 Q 33.7 110.1, 33.7 107.5 Q 33.7 104.8, 32.6 103.5 Q 31.5 102.2, 29.5 102.2 Q 27.5 102.2, 26.4 103.5 Q 25.3 104.8, 25.3 107.5 Q 25.3 110.1, 26.4 111.5 Q 27.5 112.9, 29.5 112.9 " fill="#FF0000"/>
<path class="atom-6" d="M 182.0 71.0 Q 182.0 67.8, 183.6 66.0 Q 185.2 64.3, 188.1 64.3 Q 191.1 64.3, 192.7 66.0 Q 194.3 67.8, 194.3 71.0 Q 194.3 74.3, 192.7 76.1 Q 191.1 77.9, 188.1 77.9 Q 185.2 77.9, 183.6 76.1 Q 182.0 74.3, 182.0 71.0 M 188.1 76.4 Q 190.2 76.4, 191.3 75.1 Q 192.4 73.7, 192.4 71.0 Q 192.4 68.4, 191.3 67.1 Q 190.2 65.8, 188.1 65.8 Q 186.1 65.8, 185.0 67.1 Q 183.9 68.4, 183.9 71.0 Q 183.9 73.7, 185.0 75.1 Q 186.1 76.4, 188.1 76.4 " fill="#FF0000"/>
<path class="atom-7" d="M 158.2 148.8 Q 158.2 145.6, 159.7 143.8 Q 161.3 142.1, 164.3 142.1 Q 167.2 142.1, 168.8 143.8 Q 170.4 145.6, 170.4 148.8 Q 170.4 152.1, 168.8 153.9 Q 167.2 155.7, 164.3 155.7 Q 161.3 155.7, 159.7 153.9 Q 158.2 152.1, 158.2 148.8 M 164.3 154.2 Q 166.3 154.2, 167.4 152.9 Q 168.5 151.5, 168.5 148.8 Q 168.5 146.2, 167.4 144.9 Q 166.3 143.6, 164.3 143.6 Q 162.2 143.6, 161.1 144.9 Q 160.0 146.2, 160.0 148.8 Q 160.0 151.5, 161.1 152.9 Q 162.2 154.2, 164.3 154.2 " fill="#FF0000"/>
<path class="atom-7" d="M 172.4 142.2 L 174.2 142.2 L 174.2 147.9 L 181.0 147.9 L 181.0 142.2 L 182.9 142.2 L 182.9 155.5 L 181.0 155.5 L 181.0 149.4 L 174.2 149.4 L 174.2 155.5 L 172.4 155.5 L 172.4 142.2 " fill="#FF0000"/>
</g>
    <g transform="translate(516.0, 0) scale(1 1) "><line x1="15" y1="100" x2="25" y2="100" style="stroke:rgb(0,0,0);stroke-width:2"/>
  <line x1="20" y1="95" x2="20" y2="105" style="stroke:rgb(0,0,0);stroke-width:2"/>
</g>
    <g transform="translate(556.0, 0) scale(1 1) "><!-- END OF HEADER -->
<rect style="opacity:1.0;fill:#FFFFFF;stroke:none" width="307.0" height="200.0" x="0.0" y="0.0"> </rect>
<path class="bond-0 atom-0 atom-1" d="M 83.4,158.6 L 67.5,131.9" style="fill:none;fill-rule:evenodd;stroke:#000000;stroke-width:2.0px;stroke-linecap:butt;stroke-linejoin:miter;stroke-opacity:1"/>
<path class="bond-1 atom-1 atom-2" d="M 67.5,131.9 L 82.7,104.8" style="fill:none;fill-rule:evenodd;stroke:#000000;stroke-width:2.0px;stroke-linecap:butt;stroke-linejoin:miter;stroke-opacity:1"/>
<path class="bond-2 atom-2 atom-3" d="M 82.7,104.8 L 97.9,77.6" style="fill:none;fill-rule:evenodd;stroke:#000000;stroke-width:2.0px;stroke-linecap:butt;stroke-linejoin:miter;stroke-opacity:1"/>
<path class="bond-3 atom-2 atom-4" d="M 82.7,104.8 L 55.6,89.5" style="fill:none;fill-rule:evenodd;stroke:#000000;stroke-width:2.0px;stroke-linecap:butt;stroke-linejoin:miter;stroke-opacity:1"/>
<path class="bond-4 atom-4 atom-5" d="M 55.6,89.5 L 55.2,58.5" style="fill:none;fill-rule:evenodd;stroke:#000000;stroke-width:2.0px;stroke-linecap:butt;stroke-linejoin:miter;stroke-opacity:1"/>
<path class="bond-5 atom-5 atom-6" d="M 55.2,61.1 L 66.7,54.4" style="fill:none;fill-rule:evenodd;stroke:#000000;stroke-width:2.0px;stroke-linecap:butt;stroke-linejoin:miter;stroke-opacity:1"/>
<path class="bond-5 atom-5 atom-6" d="M 66.7,54.4 L 78.1,47.6" style="fill:none;fill-rule:evenodd;stroke:#FF0000;stroke-width:2.0px;stroke-linecap:butt;stroke-linejoin:miter;stroke-opacity:1"/>
<path class="bond-5 atom-5 atom-6" d="M 52.9,57.1 L 64.3,50.4" style="fill:none;fill-rule:evenodd;stroke:#000000;stroke-width:2.0px;stroke-linecap:butt;stroke-linejoin:miter;stroke-opacity:1"/>
<path class="bond-5 atom-5 atom-6" d="M 64.3,50.4 L 75.7,43.6" style="fill:none;fill-rule:evenodd;stroke:#FF0000;stroke-width:2.0px;stroke-linecap:butt;stroke-linejoin:miter;stroke-opacity:1"/>
<path class="bond-6 atom-5 atom-7" d="M 55.2,58.5 L 44.2,52.3" style="fill:none;fill-rule:evenodd;stroke:#000000;stroke-width:2.0px;stroke-linecap:butt;stroke-linejoin:miter;stroke-opacity:1"/>
<path class="bond-6 atom-5 atom-7" d="M 44.2,52.3 L 33.2,46.1" style="fill:none;fill-rule:evenodd;stroke:#FF0000;stroke-width:2.0px;stroke-linecap:butt;stroke-linejoin:miter;stroke-opacity:1"/>
<path class="bond-7 atom-2 atom-8" d="M 82.7,104.8 L 109.8,120.0" style="fill:none;fill-rule:evenodd;stroke:#000000;stroke-width:2.0px;stroke-linecap:butt;stroke-linejoin:miter;stroke-opacity:1"/>
<path class="bond-8 atom-8 atom-9" d="M 109.8,120.0 L 136.6,104.1" style="fill:none;fill-rule:evenodd;stroke:#000000;stroke-width:2.0px;stroke-linecap:butt;stroke-linejoin:miter;stroke-opacity:1"/>
<path class="bond-9 atom-9 atom-10" d="M 136.6,104.1 L 136.2,73.0" style="fill:none;fill-rule:evenodd;stroke:#000000;stroke-width:2.0px;stroke-linecap:butt;stroke-linejoin:miter;stroke-opacity:1"/>
<path class="bond-10 atom-9 atom-11" d="M 136.6,104.1 L 163.7,119.3" style="fill:none;fill-rule:evenodd;stroke:#000000;stroke-width:2.0px;stroke-linecap:butt;stroke-linejoin:miter;stroke-opacity:1"/>
<path class="bond-11 atom-11 atom-12" d="M 163.7,119.3 L 148.5,146.4" style="fill:none;fill-rule:evenodd;stroke:#000000;stroke-width:2.0px;stroke-linecap:butt;stroke-linejoin:miter;stroke-opacity:1"/>
<path class="bond-12 atom-11 atom-13" d="M 163.7,119.3 L 178.9,92.2" style="fill:none;fill-rule:evenodd;stroke:#000000;stroke-width:2.0px;stroke-linecap:butt;stroke-linejoin:miter;stroke-opacity:1"/>
<path class="bond-13 atom-13 atom-14" d="M 178.9,92.2 L 210.0,91.8" style="fill:none;fill-rule:evenodd;stroke:#000000;stroke-width:2.0px;stroke-linecap:butt;stroke-linejoin:miter;stroke-opacity:1"/>
<path class="bond-14 atom-14 atom-15" d="M 210.0,91.8 L 225.2,64.7" style="fill:none;fill-rule:evenodd;stroke:#000000;stroke-width:2.0px;stroke-linecap:butt;stroke-linejoin:miter;stroke-opacity:1"/>
<path class="bond-15 atom-15 atom-16" d="M 225.2,64.7 L 240.4,37.6" style="fill:none;fill-rule:evenodd;stroke:#000000;stroke-width:2.0px;stroke-linecap:butt;stroke-linejoin:miter;stroke-opacity:1"/>
<path class="bond-16 atom-15 atom-17" d="M 225.2,64.7 L 198.1,49.5" style="fill:none;fill-rule:evenodd;stroke:#000000;stroke-width:2.0px;stroke-linecap:butt;stroke-linejoin:miter;stroke-opacity:1"/>
<path class="bond-17 atom-17 atom-18" d="M 198.1,49.5 L 197.9,36.7" style="fill:none;fill-rule:evenodd;stroke:#000000;stroke-width:2.0px;stroke-linecap:butt;stroke-linejoin:miter;stroke-opacity:1"/>
<path class="bond-17 atom-17 atom-18" d="M 197.9,36.7 L 197.8,24.0" style="fill:none;fill-rule:evenodd;stroke:#FF0000;stroke-width:2.0px;stroke-linecap:butt;stroke-linejoin:miter;stroke-opacity:1"/>
<path class="bond-18 atom-15 atom-19" d="M 225.2,64.7 L 252.3,79.9" style="fill:none;fill-rule:evenodd;stroke:#000000;stroke-width:2.0px;stroke-linecap:butt;stroke-linejoin:miter;stroke-opacity:1"/>
<path class="bond-19 atom-19 atom-20" d="M 250.0,78.6 L 250.1,92.1" style="fill:none;fill-rule:evenodd;stroke:#000000;stroke-width:2.0px;stroke-linecap:butt;stroke-linejoin:miter;stroke-opacity:1"/>
<path class="bond-19 atom-19 atom-20" d="M 250.1,92.1 L 250.3,105.5" style="fill:none;fill-rule:evenodd;stroke:#FF0000;stroke-width:2.0px;stroke-linecap:butt;stroke-linejoin:miter;stroke-opacity:1"/>
<path class="bond-19 atom-19 atom-20" d="M 254.6,78.5 L 254.8,92.0" style="fill:none;fill-rule:evenodd;stroke:#000000;stroke-width:2.0px;stroke-linecap:butt;stroke-linejoin:miter;stroke-opacity:1"/>
<path class="bond-19 atom-19 atom-20" d="M 254.8,92.0 L 255.0,105.5" style="fill:none;fill-rule:evenodd;stroke:#FF0000;stroke-width:2.0px;stroke-linecap:butt;stroke-linejoin:miter;stroke-opacity:1"/>
<path class="bond-20 atom-19 atom-21" d="M 252.3,79.9 L 263.1,73.5" style="fill:none;fill-rule:evenodd;stroke:#000000;stroke-width:2.0px;stroke-linecap:butt;stroke-linejoin:miter;stroke-opacity:1"/>
<path class="bond-20 atom-19 atom-21" d="M 263.1,73.5 L 274.0,67.0" style="fill:none;fill-rule:evenodd;stroke:#FF0000;stroke-width:2.0px;stroke-linecap:butt;stroke-linejoin:miter;stroke-opacity:1"/>
<path class="bond-21 atom-11 atom-22" d="M 163.7,119.3 L 190.8,134.5" style="fill:none;fill-rule:evenodd;stroke:#000000;stroke-width:2.0px;stroke-linecap:butt;stroke-linejoin:miter;stroke-opacity:1"/>
<path class="bond-22 atom-22 atom-23" d="M 190.8,134.5 L 191.2,165.6" style="fill:none;fill-rule:evenodd;stroke:#000000;stroke-width:2.0px;stroke-linecap:butt;stroke-linejoin:miter;stroke-opacity:1"/>
<path class="bond-23 atom-23 atom-24" d="M 191.1,162.9 L 179.7,169.7" style="fill:none;fill-rule:evenodd;stroke:#000000;stroke-width:2.0px;stroke-linecap:butt;stroke-linejoin:miter;stroke-opacity:1"/>
<path class="bond-23 atom-23 atom-24" d="M 179.7,169.7 L 168.3,176.5" style="fill:none;fill-rule:evenodd;stroke:#FF0000;stroke-width:2.0px;stroke-linecap:butt;stroke-linejoin:miter;stroke-opacity:1"/>
<path class="bond-23 atom-23 atom-24" d="M 193.5,166.9 L 182.1,173.7" style="fill:none;fill-rule:evenodd;stroke:#000000;stroke-width:2.0px;stroke-linecap:butt;stroke-linejoin:miter;stroke-opacity:1"/>
<path class="bond-23 atom-23 atom-24" d="M 182.1,173.7 L 170.7,180.5" style="fill:none;fill-rule:evenodd;stroke:#FF0000;stroke-width:2.0px;stroke-linecap:butt;stroke-linejoin:miter;stroke-opacity:1"/>
<path class="bond-24 atom-23 atom-25" d="M 191.2,165.6 L 202.2,171.8" style="fill:none;fill-rule:evenodd;stroke:#000000;stroke-width:2.0px;stroke-linecap:butt;stroke-linejoin:miter;stroke-opacity:1"/>
<path class="bond-24 atom-23 atom-25" d="M 202.2,171.8 L 213.2,178.0" style="fill:none;fill-rule:evenodd;stroke:#FF0000;stroke-width:2.0px;stroke-linecap:butt;stroke-linejoin:miter;stroke-opacity:1"/>
<path d="M 68.3,133.2 L 67.5,131.9 L 68.3,130.5" style="fill:none;stroke:#000000;stroke-width:2.0px;stroke-linecap:butt;stroke-linejoin:miter;stroke-opacity:1;"/>
<path d="M 56.9,90.3 L 55.6,89.5 L 55.6,88.0" style="fill:none;stroke:#000000;stroke-width:2.0px;stroke-linecap:butt;stroke-linejoin:miter;stroke-opacity:1;"/>
<path d="M 55.2,60.0 L 55.2,58.5 L 54.7,58.1" style="fill:none;stroke:#000000;stroke-width:2.0px;stroke-linecap:butt;stroke-linejoin:miter;stroke-opacity:1;"/>
<path d="M 108.5,119.2 L 109.8,120.0 L 111.2,119.2" style="fill:none;stroke:#000000;stroke-width:2.0px;stroke-linecap:butt;stroke-linejoin:miter;stroke-opacity:1;"/>
<path d="M 178.1,93.5 L 178.9,92.2 L 180.4,92.2" style="fill:none;stroke:#000000;stroke-width:2.0px;stroke-linecap:butt;stroke-linejoin:miter;stroke-opacity:1;"/>
<path d="M 208.4,91.8 L 210.0,91.8 L 210.7,90.4" style="fill:none;stroke:#000000;stroke-width:2.0px;stroke-linecap:butt;stroke-linejoin:miter;stroke-opacity:1;"/>
<path d="M 199.4,50.2 L 198.1,49.5 L 198.1,48.8" style="fill:none;stroke:#000000;stroke-width:2.0px;stroke-linecap:butt;stroke-linejoin:miter;stroke-opacity:1;"/>
<path d="M 251.0,79.1 L 252.3,79.9 L 252.9,79.6" style="fill:none;stroke:#000000;stroke-width:2.0px;stroke-linecap:butt;stroke-linejoin:miter;stroke-opacity:1;"/>
<path d="M 189.4,133.8 L 190.8,134.5 L 190.8,136.1" style="fill:none;stroke:#000000;stroke-width:2.0px;stroke-linecap:butt;stroke-linejoin:miter;stroke-opacity:1;"/>
<path d="M 191.2,164.1 L 191.2,165.6 L 191.7,165.9" style="fill:none;stroke:#000000;stroke-width:2.0px;stroke-linecap:butt;stroke-linejoin:miter;stroke-opacity:1;"/>
<path class="atom-6" d="M 77.9 42.6 Q 77.9 40.5, 78.9 39.3 Q 80.0 38.1, 81.9 38.1 Q 83.9 38.1, 84.9 39.3 Q 86.0 40.5, 86.0 42.6 Q 86.0 44.7, 84.9 46.0 Q 83.9 47.2, 81.9 47.2 Q 80.0 47.2, 78.9 46.0 Q 77.9 44.7, 77.9 42.6 M 81.9 46.2 Q 83.3 46.2, 84.0 45.3 Q 84.7 44.4, 84.7 42.6 Q 84.7 40.9, 84.0 40.0 Q 83.3 39.1, 81.9 39.1 Q 80.6 39.1, 79.9 40.0 Q 79.1 40.9, 79.1 42.6 Q 79.1 44.4, 79.9 45.3 Q 80.6 46.2, 81.9 46.2 " fill="#FF0000"/>
<path class="atom-7" d="M 15.3 38.9 L 16.5 38.9 L 16.5 42.6 L 21.0 42.6 L 21.0 38.9 L 22.2 38.9 L 22.2 47.7 L 21.0 47.7 L 21.0 43.6 L 16.5 43.6 L 16.5 47.7 L 15.3 47.7 L 15.3 38.9 " fill="#FF0000"/>
<path class="atom-7" d="M 24.0 43.3 Q 24.0 41.1, 25.1 40.0 Q 26.1 38.8, 28.1 38.8 Q 30.0 38.8, 31.1 40.0 Q 32.1 41.1, 32.1 43.3 Q 32.1 45.4, 31.1 46.6 Q 30.0 47.8, 28.1 47.8 Q 26.1 47.8, 25.1 46.6 Q 24.0 45.4, 24.0 43.3 M 28.1 46.8 Q 29.4 46.8, 30.2 45.9 Q 30.9 45.0, 30.9 43.3 Q 30.9 41.5, 30.2 40.7 Q 29.4 39.8, 28.1 39.8 Q 26.7 39.8, 26.0 40.7 Q 25.3 41.5, 25.3 43.3 Q 25.3 45.0, 26.0 45.9 Q 26.7 46.8, 28.1 46.8 " fill="#FF0000"/>
<path class="atom-18" d="M 193.7 18.4 Q 193.7 16.3, 194.7 15.1 Q 195.7 13.9, 197.7 13.9 Q 199.6 13.9, 200.7 15.1 Q 201.7 16.3, 201.7 18.4 Q 201.7 20.5, 200.7 21.8 Q 199.6 23.0, 197.7 23.0 Q 195.8 23.0, 194.7 21.8 Q 193.7 20.6, 193.7 18.4 M 197.7 22.0 Q 199.0 22.0, 199.8 21.1 Q 200.5 20.2, 200.5 18.4 Q 200.5 16.7, 199.8 15.8 Q 199.0 14.9, 197.7 14.9 Q 196.3 14.9, 195.6 15.8 Q 194.9 16.7, 194.9 18.4 Q 194.9 20.2, 195.6 21.1 Q 196.3 22.0, 197.7 22.0 " fill="#FF0000"/>
<path class="atom-18" d="M 203.1 14.0 L 204.3 14.0 L 204.3 17.8 L 208.8 17.8 L 208.8 14.0 L 210.0 14.0 L 210.0 22.8 L 208.8 22.8 L 208.8 18.8 L 204.3 18.8 L 204.3 22.8 L 203.1 22.8 L 203.1 14.0 " fill="#FF0000"/>
<path class="atom-20" d="M 248.7 111.0 Q 248.7 108.9, 249.7 107.7 Q 250.7 106.5, 252.7 106.5 Q 254.7 106.5, 255.7 107.7 Q 256.7 108.9, 256.7 111.0 Q 256.7 113.2, 255.7 114.4 Q 254.6 115.6, 252.7 115.6 Q 250.8 115.6, 249.7 114.4 Q 248.7 113.2, 248.7 111.0 M 252.7 114.6 Q 254.0 114.6, 254.8 113.7 Q 255.5 112.8, 255.5 111.0 Q 255.5 109.3, 254.8 108.4 Q 254.0 107.5, 252.7 107.5 Q 251.4 107.5, 250.6 108.4 Q 249.9 109.3, 249.9 111.0 Q 249.9 112.8, 250.6 113.7 Q 251.4 114.6, 252.7 114.6 " fill="#FF0000"/>
<path class="atom-21" d="M 275.0 64.0 Q 275.0 61.9, 276.0 60.7 Q 277.1 59.6, 279.0 59.6 Q 281.0 59.6, 282.0 60.7 Q 283.1 61.9, 283.1 64.0 Q 283.1 66.2, 282.0 67.4 Q 281.0 68.6, 279.0 68.6 Q 277.1 68.6, 276.0 67.4 Q 275.0 66.2, 275.0 64.0 M 279.0 67.6 Q 280.4 67.6, 281.1 66.7 Q 281.8 65.8, 281.8 64.0 Q 281.8 62.3, 281.1 61.4 Q 280.4 60.6, 279.0 60.6 Q 277.7 60.6, 277.0 61.4 Q 276.2 62.3, 276.2 64.0 Q 276.2 65.8, 277.0 66.7 Q 277.7 67.6, 279.0 67.6 " fill="#FF0000"/>
<path class="atom-21" d="M 284.5 59.7 L 285.7 59.7 L 285.7 63.4 L 290.2 63.4 L 290.2 59.7 L 291.3 59.7 L 291.3 68.5 L 290.2 68.5 L 290.2 64.4 L 285.7 64.4 L 285.7 68.5 L 284.5 68.5 L 284.5 59.7 " fill="#FF0000"/>
<path class="atom-24" d="M 160.4 181.5 Q 160.4 179.4, 161.4 178.2 Q 162.5 177.0, 164.4 177.0 Q 166.4 177.0, 167.4 178.2 Q 168.5 179.4, 168.5 181.5 Q 168.5 183.6, 167.4 184.9 Q 166.4 186.1, 164.4 186.1 Q 162.5 186.1, 161.4 184.9 Q 160.4 183.7, 160.4 181.5 M 164.4 185.1 Q 165.8 185.1, 166.5 184.2 Q 167.2 183.3, 167.2 181.5 Q 167.2 179.8, 166.5 178.9 Q 165.8 178.0, 164.4 178.0 Q 163.1 178.0, 162.4 178.9 Q 161.6 179.8, 161.6 181.5 Q 161.6 183.3, 162.4 184.2 Q 163.1 185.1, 164.4 185.1 " fill="#FF0000"/>
<path class="atom-25" d="M 214.3 180.8 Q 214.3 178.7, 215.3 177.5 Q 216.3 176.4, 218.3 176.4 Q 220.3 176.4, 221.3 177.5 Q 222.3 178.7, 222.3 180.8 Q 222.3 183.0, 221.3 184.2 Q 220.2 185.4, 218.3 185.4 Q 216.4 185.4, 215.3 184.2 Q 214.3 183.0, 214.3 180.8 M 218.3 184.4 Q 219.6 184.4, 220.4 183.5 Q 221.1 182.6, 221.1 180.8 Q 221.1 179.1, 220.4 178.2 Q 219.6 177.4, 218.3 177.4 Q 217.0 177.4, 216.2 178.2 Q 215.5 179.1, 215.5 180.8 Q 215.5 182.6, 216.2 183.5 Q 217.0 184.4, 218.3 184.4 " fill="#FF0000"/>
<path class="atom-25" d="M 223.7 176.5 L 224.9 176.5 L 224.9 180.2 L 229.4 180.2 L 229.4 176.5 L 230.6 176.5 L 230.6 185.3 L 229.4 185.3 L 229.4 181.2 L 224.9 181.2 L 224.9 185.3 L 223.7 185.3 L 223.7 176.5 " fill="#FF0000"/>
</g>
  </g>
</svg>
