<?xml version='1.0' encoding='ASCII' standalone='yes'?>
<svg xmlns="http://www.w3.org/2000/svg" xmlns:xlink="http://www.w3.org/1999/xlink" version="1.1" width="947.0px" viewBox="0 0 947.0 200.0" height="200.0px">
  <g>
    <g transform="translate(0, 0) scale(1 1) "><!-- END OF HEADER -->
<rect style="opacity:1.0;fill:#FFFFFF;stroke:none" width="289.0" height="200.0" x="0.0" y="0.0"> </rect>
<path class="bond-0 atom-0 atom-1" d="M 189.5,68.3 L 161.3,85.4" style="fill:none;fill-rule:evenodd;stroke:#000000;stroke-width:2.0px;stroke-linecap:butt;stroke-linejoin:miter;stroke-opacity:1"/>
<path class="bond-1 atom-1 atom-2" d="M 161.3,85.4 L 144.2,57.1" style="fill:none;fill-rule:evenodd;stroke:#000000;stroke-width:2.0px;stroke-linecap:butt;stroke-linejoin:miter;stroke-opacity:1"/>
<path class="bond-2 atom-2 atom-3" d="M 144.2,57.1 L 150.5,45.6" style="fill:none;fill-rule:evenodd;stroke:#000000;stroke-width:2.0px;stroke-linecap:butt;stroke-linejoin:miter;stroke-opacity:1"/>
<path class="bond-2 atom-2 atom-3" d="M 150.5,45.6 L 156.8,34.2" style="fill:none;fill-rule:evenodd;stroke:#FF0000;stroke-width:2.0px;stroke-linecap:butt;stroke-linejoin:miter;stroke-opacity:1"/>
<path class="bond-3 atom-1 atom-4" d="M 161.3,85.4 L 133.0,102.4" style="fill:none;fill-rule:evenodd;stroke:#000000;stroke-width:2.0px;stroke-linecap:butt;stroke-linejoin:miter;stroke-opacity:1"/>
<path class="bond-4 atom-4 atom-5" d="M 133.0,102.4 L 104.1,86.5" style="fill:none;fill-rule:evenodd;stroke:#000000;stroke-width:2.0px;stroke-linecap:butt;stroke-linejoin:miter;stroke-opacity:1"/>
<path class="bond-5 atom-5 atom-6" d="M 104.1,86.5 L 103.8,73.0" style="fill:none;fill-rule:evenodd;stroke:#000000;stroke-width:2.0px;stroke-linecap:butt;stroke-linejoin:miter;stroke-opacity:1"/>
<path class="bond-5 atom-5 atom-6" d="M 103.8,73.0 L 103.6,59.5" style="fill:none;fill-rule:evenodd;stroke:#FF0000;stroke-width:2.0px;stroke-linecap:butt;stroke-linejoin:miter;stroke-opacity:1"/>
<path class="bond-6 atom-5 atom-7" d="M 104.1,86.5 L 75.9,103.6" style="fill:none;fill-rule:evenodd;stroke:#000000;stroke-width:2.0px;stroke-linecap:butt;stroke-linejoin:miter;stroke-opacity:1"/>
<path class="bond-7 atom-7 atom-8" d="M 75.9,103.6 L 93.0,131.8" style="fill:none;fill-rule:evenodd;stroke:#000000;stroke-width:2.0px;stroke-linecap:butt;stroke-linejoin:miter;stroke-opacity:1"/>
<path class="bond-8 atom-7 atom-9" d="M 75.9,103.6 L 58.8,75.3" style="fill:none;fill-rule:evenodd;stroke:#000000;stroke-width:2.0px;stroke-linecap:butt;stroke-linejoin:miter;stroke-opacity:1"/>
<path class="bond-9 atom-7 atom-10" d="M 75.9,103.6 L 47.6,120.7" style="fill:none;fill-rule:evenodd;stroke:#000000;stroke-width:2.0px;stroke-linecap:butt;stroke-linejoin:miter;stroke-opacity:1"/>
<path class="bond-10 atom-10 atom-11" d="M 50.1,119.2 L 37.7,112.4" style="fill:none;fill-rule:evenodd;stroke:#000000;stroke-width:2.0px;stroke-linecap:butt;stroke-linejoin:miter;stroke-opacity:1"/>
<path class="bond-10 atom-10 atom-11" d="M 37.7,112.4 L 25.3,105.5" style="fill:none;fill-rule:evenodd;stroke:#FF0000;stroke-width:2.0px;stroke-linecap:butt;stroke-linejoin:miter;stroke-opacity:1"/>
<path class="bond-10 atom-10 atom-11" d="M 47.7,123.5 L 35.3,116.7" style="fill:none;fill-rule:evenodd;stroke:#000000;stroke-width:2.0px;stroke-linecap:butt;stroke-linejoin:miter;stroke-opacity:1"/>
<path class="bond-10 atom-10 atom-11" d="M 35.3,116.7 L 22.9,109.9" style="fill:none;fill-rule:evenodd;stroke:#FF0000;stroke-width:2.0px;stroke-linecap:butt;stroke-linejoin:miter;stroke-opacity:1"/>
<path class="bond-11 atom-10 atom-12" d="M 47.6,120.7 L 47.9,134.2" style="fill:none;fill-rule:evenodd;stroke:#000000;stroke-width:2.0px;stroke-linecap:butt;stroke-linejoin:miter;stroke-opacity:1"/>
<path class="bond-11 atom-10 atom-12" d="M 47.9,134.2 L 48.2,147.8" style="fill:none;fill-rule:evenodd;stroke:#FF0000;stroke-width:2.0px;stroke-linecap:butt;stroke-linejoin:miter;stroke-opacity:1"/>
<path class="bond-12 atom-1 atom-13" d="M 161.3,85.4 L 178.3,113.6" style="fill:none;fill-rule:evenodd;stroke:#000000;stroke-width:2.0px;stroke-linecap:butt;stroke-linejoin:miter;stroke-opacity:1"/>
<path class="bond-13 atom-13 atom-14" d="M 178.3,113.6 L 172.0,125.1" style="fill:none;fill-rule:evenodd;stroke:#000000;stroke-width:2.0px;stroke-linecap:butt;stroke-linejoin:miter;stroke-opacity:1"/>
<path class="bond-13 atom-13 atom-14" d="M 172.0,125.1 L 165.6,136.7" style="fill:none;fill-rule:evenodd;stroke:#FF0000;stroke-width:2.0px;stroke-linecap:butt;stroke-linejoin:miter;stroke-opacity:1"/>
<path class="bond-14 atom-13 atom-15" d="M 178.3,113.6 L 211.3,112.9" style="fill:none;fill-rule:evenodd;stroke:#000000;stroke-width:2.0px;stroke-linecap:butt;stroke-linejoin:miter;stroke-opacity:1"/>
<path class="bond-15 atom-15 atom-16" d="M 211.3,112.9 L 210.7,79.9" style="fill:none;fill-rule:evenodd;stroke:#000000;stroke-width:2.0px;stroke-linecap:butt;stroke-linejoin:miter;stroke-opacity:1"/>
<path class="bond-16 atom-15 atom-17" d="M 211.3,112.9 L 212.0,145.9" style="fill:none;fill-rule:evenodd;stroke:#000000;stroke-width:2.0px;stroke-linecap:butt;stroke-linejoin:miter;stroke-opacity:1"/>
<path class="bond-17 atom-15 atom-18" d="M 211.3,112.9 L 244.3,112.3" style="fill:none;fill-rule:evenodd;stroke:#000000;stroke-width:2.0px;stroke-linecap:butt;stroke-linejoin:miter;stroke-opacity:1"/>
<path class="bond-18 atom-18 atom-19" d="M 245.8,114.7 L 252.5,102.6" style="fill:none;fill-rule:evenodd;stroke:#000000;stroke-width:2.0px;stroke-linecap:butt;stroke-linejoin:miter;stroke-opacity:1"/>
<path class="bond-18 atom-18 atom-19" d="M 252.5,102.6 L 259.1,90.5" style="fill:none;fill-rule:evenodd;stroke:#FF0000;stroke-width:2.0px;stroke-linecap:butt;stroke-linejoin:miter;stroke-opacity:1"/>
<path class="bond-18 atom-18 atom-19" d="M 241.5,112.3 L 248.1,100.2" style="fill:none;fill-rule:evenodd;stroke:#000000;stroke-width:2.0px;stroke-linecap:butt;stroke-linejoin:miter;stroke-opacity:1"/>
<path class="bond-18 atom-18 atom-19" d="M 248.1,100.2 L 254.8,88.1" style="fill:none;fill-rule:evenodd;stroke:#FF0000;stroke-width:2.0px;stroke-linecap:butt;stroke-linejoin:miter;stroke-opacity:1"/>
<path class="bond-19 atom-18 atom-20" d="M 244.3,112.3 L 251.1,123.5" style="fill:none;fill-rule:evenodd;stroke:#000000;stroke-width:2.0px;stroke-linecap:butt;stroke-linejoin:miter;stroke-opacity:1"/>
<path class="bond-19 atom-18 atom-20" d="M 251.1,123.5 L 257.9,134.7" style="fill:none;fill-rule:evenodd;stroke:#FF0000;stroke-width:2.0px;stroke-linecap:butt;stroke-linejoin:miter;stroke-opacity:1"/>
<path d="M 145.0,58.5 L 144.2,57.1 L 144.5,56.5" style="fill:none;stroke:#000000;stroke-width:2.0px;stroke-linecap:butt;stroke-linejoin:miter;stroke-opacity:1;"/>
<path d="M 134.4,101.6 L 133.0,102.4 L 131.6,101.6" style="fill:none;stroke:#000000;stroke-width:2.0px;stroke-linecap:butt;stroke-linejoin:miter;stroke-opacity:1;"/>
<path d="M 49.1,119.8 L 47.6,120.7 L 47.7,121.3" style="fill:none;stroke:#000000;stroke-width:2.0px;stroke-linecap:butt;stroke-linejoin:miter;stroke-opacity:1;"/>
<path d="M 242.7,112.3 L 244.3,112.3 L 244.7,112.8" style="fill:none;stroke:#000000;stroke-width:2.0px;stroke-linecap:butt;stroke-linejoin:miter;stroke-opacity:1;"/>
<path class="atom-3" d="M 155.8 28.2 Q 155.8 26.0, 156.9 24.7 Q 158.0 23.5, 160.1 23.5 Q 162.2 23.5, 163.3 24.7 Q 164.4 26.0, 164.4 28.2 Q 164.4 30.5, 163.3 31.8 Q 162.2 33.1, 160.1 33.1 Q 158.1 33.1, 156.9 31.8 Q 155.8 30.5, 155.8 28.2 M 160.1 32.0 Q 161.5 32.0, 162.3 31.1 Q 163.1 30.1, 163.1 28.2 Q 163.1 26.4, 162.3 25.5 Q 161.5 24.5, 160.1 24.5 Q 158.7 24.5, 157.9 25.5 Q 157.1 26.4, 157.1 28.2 Q 157.1 30.1, 157.9 31.1 Q 158.7 32.0, 160.1 32.0 " fill="#FF0000"/>
<path class="atom-3" d="M 165.9 23.6 L 167.1 23.6 L 167.1 27.6 L 171.9 27.6 L 171.9 23.6 L 173.2 23.6 L 173.2 32.9 L 171.9 32.9 L 171.9 28.6 L 167.1 28.6 L 167.1 32.9 L 165.9 32.9 L 165.9 23.6 " fill="#FF0000"/>
<path class="atom-6" d="M 99.2 53.5 Q 99.2 51.3, 100.3 50.0 Q 101.4 48.8, 103.5 48.8 Q 105.5 48.8, 106.6 50.0 Q 107.7 51.3, 107.7 53.5 Q 107.7 55.8, 106.6 57.1 Q 105.5 58.4, 103.5 58.4 Q 101.4 58.4, 100.3 57.1 Q 99.2 55.8, 99.2 53.5 M 103.5 57.3 Q 104.9 57.3, 105.6 56.4 Q 106.4 55.4, 106.4 53.5 Q 106.4 51.7, 105.6 50.8 Q 104.9 49.8, 103.5 49.8 Q 102.0 49.8, 101.3 50.8 Q 100.5 51.7, 100.5 53.5 Q 100.5 55.4, 101.3 56.4 Q 102.0 57.3, 103.5 57.3 " fill="#FF0000"/>
<path class="atom-6" d="M 109.2 48.9 L 110.5 48.9 L 110.5 52.9 L 115.2 52.9 L 115.2 48.9 L 116.5 48.9 L 116.5 58.2 L 115.2 58.2 L 115.2 53.9 L 110.5 53.9 L 110.5 58.2 L 109.2 58.2 L 109.2 48.9 " fill="#FF0000"/>
<path class="atom-11" d="M 14.5 104.8 Q 14.5 102.5, 15.6 101.3 Q 16.7 100.0, 18.7 100.0 Q 20.8 100.0, 21.9 101.3 Q 23.0 102.5, 23.0 104.8 Q 23.0 107.0, 21.9 108.3 Q 20.8 109.6, 18.7 109.6 Q 16.7 109.6, 15.6 108.3 Q 14.5 107.0, 14.5 104.8 M 18.7 108.5 Q 20.2 108.5, 20.9 107.6 Q 21.7 106.6, 21.7 104.8 Q 21.7 102.9, 20.9 102.0 Q 20.2 101.1, 18.7 101.1 Q 17.3 101.1, 16.5 102.0 Q 15.8 102.9, 15.8 104.8 Q 15.8 106.6, 16.5 107.6 Q 17.3 108.5, 18.7 108.5 " fill="#FF0000"/>
<path class="atom-12" d="M 44.0 153.7 Q 44.0 151.4, 45.1 150.2 Q 46.2 148.9, 48.3 148.9 Q 50.4 148.9, 51.5 150.2 Q 52.6 151.4, 52.6 153.7 Q 52.6 155.9, 51.5 157.2 Q 50.4 158.5, 48.3 158.5 Q 46.3 158.5, 45.1 157.2 Q 44.0 156.0, 44.0 153.7 M 48.3 157.5 Q 49.7 157.5, 50.5 156.5 Q 51.3 155.5, 51.3 153.7 Q 51.3 151.8, 50.5 150.9 Q 49.7 150.0, 48.3 150.0 Q 46.9 150.0, 46.1 150.9 Q 45.3 151.8, 45.3 153.7 Q 45.3 155.6, 46.1 156.5 Q 46.9 157.5, 48.3 157.5 " fill="#FF0000"/>
<path class="atom-12" d="M 54.1 149.0 L 55.3 149.0 L 55.3 153.0 L 60.1 153.0 L 60.1 149.0 L 61.4 149.0 L 61.4 158.4 L 60.1 158.4 L 60.1 154.1 L 55.3 154.1 L 55.3 158.4 L 54.1 158.4 L 54.1 149.0 " fill="#FF0000"/>
<path class="atom-14" d="M 148.9 137.9 L 150.2 137.9 L 150.2 141.9 L 154.9 141.9 L 154.9 137.9 L 156.2 137.9 L 156.2 147.2 L 154.9 147.2 L 154.9 142.9 L 150.2 142.9 L 150.2 147.2 L 148.9 147.2 L 148.9 137.9 " fill="#FF0000"/>
<path class="atom-14" d="M 158.1 142.5 Q 158.1 140.3, 159.2 139.0 Q 160.3 137.8, 162.4 137.8 Q 164.5 137.8, 165.6 139.0 Q 166.7 140.3, 166.7 142.5 Q 166.7 144.8, 165.6 146.1 Q 164.5 147.4, 162.4 147.4 Q 160.4 147.4, 159.2 146.1 Q 158.1 144.8, 158.1 142.5 M 162.4 146.3 Q 163.8 146.3, 164.6 145.4 Q 165.4 144.4, 165.4 142.5 Q 165.4 140.7, 164.6 139.8 Q 163.8 138.8, 162.4 138.8 Q 161.0 138.8, 160.2 139.8 Q 159.4 140.7, 159.4 142.5 Q 159.4 144.4, 160.2 145.4 Q 161.0 146.3, 162.4 146.3 " fill="#FF0000"/>
<path class="atom-19" d="M 255.9 83.4 Q 255.9 81.1, 257.1 79.9 Q 258.2 78.6, 260.2 78.6 Q 262.3 78.6, 263.4 79.9 Q 264.5 81.1, 264.5 83.4 Q 264.5 85.7, 263.4 86.9 Q 262.3 88.2, 260.2 88.2 Q 258.2 88.2, 257.1 86.9 Q 255.9 85.7, 255.9 83.4 M 260.2 87.2 Q 261.7 87.2, 262.4 86.2 Q 263.2 85.3, 263.2 83.4 Q 263.2 81.5, 262.4 80.6 Q 261.7 79.7, 260.2 79.7 Q 258.8 79.7, 258.0 80.6 Q 257.3 81.5, 257.3 83.4 Q 257.3 85.3, 258.0 86.2 Q 258.8 87.2, 260.2 87.2 " fill="#FF0000"/>
<path class="atom-20" d="M 257.1 140.5 Q 257.1 138.3, 258.2 137.0 Q 259.3 135.8, 261.4 135.8 Q 263.5 135.8, 264.6 137.0 Q 265.7 138.3, 265.7 140.5 Q 265.7 142.8, 264.6 144.1 Q 263.4 145.4, 261.4 145.4 Q 259.3 145.4, 258.2 144.1 Q 257.1 142.8, 257.1 140.5 M 261.4 144.3 Q 262.8 144.3, 263.6 143.4 Q 264.4 142.4, 264.4 140.5 Q 264.4 138.7, 263.6 137.8 Q 262.8 136.8, 261.4 136.8 Q 260.0 136.8, 259.2 137.8 Q 258.4 138.7, 258.4 140.5 Q 258.4 142.4, 259.2 143.4 Q 260.0 144.3, 261.4 144.3 " fill="#FF0000"/>
<path class="atom-20" d="M 267.1 135.9 L 268.4 135.9 L 268.4 139.9 L 273.2 139.9 L 273.2 135.9 L 274.5 135.9 L 274.5 145.2 L 273.2 145.2 L 273.2 140.9 L 268.4 140.9 L 268.4 145.2 L 267.1 145.2 L 267.1 135.9 " fill="#FF0000"/>
<path class="legend" d="M 135.9 181.9 Q 135.9 179.6, 136.6 177.7 Q 137.3 175.8, 138.6 173.8 L 139.5 174.4 Q 138.4 176.3, 137.9 178.0 Q 137.4 179.7, 137.4 181.9 Q 137.4 184.0, 137.9 185.8 Q 138.4 187.5, 139.5 189.4 L 138.6 190.0 Q 137.3 188.0, 136.6 186.1 Q 135.9 184.2, 135.9 181.9 " fill="#000000"/>
<path class="legend" d="M 140.4 177.3 Q 140.8 176.2, 141.8 175.6 Q 142.8 175.0, 144.2 175.0 Q 145.9 175.0, 146.8 175.9 Q 147.8 176.8, 147.8 178.5 Q 147.8 180.2, 146.5 181.7 Q 145.3 183.3, 142.8 185.2 L 148.0 185.2 L 148.0 186.4 L 140.4 186.4 L 140.4 185.4 Q 142.5 183.9, 143.7 182.8 Q 145.0 181.6, 145.6 180.6 Q 146.2 179.6, 146.2 178.6 Q 146.2 177.5, 145.6 176.9 Q 145.1 176.3, 144.2 176.3 Q 143.2 176.3, 142.6 176.6 Q 142.0 177.0, 141.6 177.8 L 140.4 177.3 " fill="#000000"/>
<path class="legend" d="M 153.0 181.9 Q 153.0 184.2, 152.3 186.1 Q 151.6 188.0, 150.3 190.0 L 149.4 189.4 Q 150.5 187.5, 151.0 185.8 Q 151.5 184.0, 151.5 181.9 Q 151.5 179.7, 151.0 178.0 Q 150.5 176.3, 149.4 174.4 L 150.3 173.8 Q 151.6 175.8, 152.3 177.7 Q 153.0 179.6, 153.0 181.9 " fill="#000000"/>
</g>
    <g transform="translate(289.0, 0) scale(1 1) "><line x1="5" y1="100" x2="35" y2="100" style="stroke:rgb(0,0,0);stroke-width:2"/>
  <line x1="34" y1="100" x2="29" y2="95" style="stroke:rgb(0,0,0);stroke-width:2"/>
  <line x1="34" y1="100" x2="29" y2="105" style="stroke:rgb(0,0,0);stroke-width:2"/>
</g>
    <g transform="translate(329.0, 0) scale(1 1) "><!-- END OF HEADER -->
<rect style="opacity:1.0;fill:#FFFFFF;stroke:none" width="285.0" height="200.0" x="0.0" y="0.0"> </rect>
<path class="bond-0 atom-0 atom-1" d="M 210.8,61.2 L 208.9,94.4" style="fill:none;fill-rule:evenodd;stroke:#000000;stroke-width:2.0px;stroke-linecap:butt;stroke-linejoin:miter;stroke-opacity:1"/>
<path class="bond-1 atom-1 atom-2" d="M 208.9,94.4 L 207.0,127.6" style="fill:none;fill-rule:evenodd;stroke:#000000;stroke-width:2.0px;stroke-linecap:butt;stroke-linejoin:miter;stroke-opacity:1"/>
<path class="bond-2 atom-1 atom-3" d="M 208.9,94.4 L 242.1,96.3" style="fill:none;fill-rule:evenodd;stroke:#000000;stroke-width:2.0px;stroke-linecap:butt;stroke-linejoin:miter;stroke-opacity:1"/>
<path class="bond-3 atom-3 atom-4" d="M 243.4,98.8 L 250.9,87.3" style="fill:none;fill-rule:evenodd;stroke:#000000;stroke-width:2.0px;stroke-linecap:butt;stroke-linejoin:miter;stroke-opacity:1"/>
<path class="bond-3 atom-3 atom-4" d="M 250.9,87.3 L 258.5,75.8" style="fill:none;fill-rule:evenodd;stroke:#FF0000;stroke-width:2.0px;stroke-linecap:butt;stroke-linejoin:miter;stroke-opacity:1"/>
<path class="bond-3 atom-3 atom-4" d="M 239.2,96.1 L 246.8,84.6" style="fill:none;fill-rule:evenodd;stroke:#000000;stroke-width:2.0px;stroke-linecap:butt;stroke-linejoin:miter;stroke-opacity:1"/>
<path class="bond-3 atom-3 atom-4" d="M 246.8,84.6 L 254.3,73.1" style="fill:none;fill-rule:evenodd;stroke:#FF0000;stroke-width:2.0px;stroke-linecap:butt;stroke-linejoin:miter;stroke-opacity:1"/>
<path class="bond-4 atom-3 atom-5" d="M 242.1,96.3 L 248.1,108.2" style="fill:none;fill-rule:evenodd;stroke:#000000;stroke-width:2.0px;stroke-linecap:butt;stroke-linejoin:miter;stroke-opacity:1"/>
<path class="bond-4 atom-3 atom-5" d="M 248.1,108.2 L 254.1,120.1" style="fill:none;fill-rule:evenodd;stroke:#FF0000;stroke-width:2.0px;stroke-linecap:butt;stroke-linejoin:miter;stroke-opacity:1"/>
<path class="bond-5 atom-1 atom-6" d="M 208.9,94.4 L 175.7,92.5" style="fill:none;fill-rule:evenodd;stroke:#000000;stroke-width:2.0px;stroke-linecap:butt;stroke-linejoin:miter;stroke-opacity:1"/>
<path class="bond-6 atom-6 atom-7" d="M 175.7,92.5 L 169.7,80.7" style="fill:none;fill-rule:evenodd;stroke:#000000;stroke-width:2.0px;stroke-linecap:butt;stroke-linejoin:miter;stroke-opacity:1"/>
<path class="bond-6 atom-6 atom-7" d="M 169.7,80.7 L 163.7,68.8" style="fill:none;fill-rule:evenodd;stroke:#FF0000;stroke-width:2.0px;stroke-linecap:butt;stroke-linejoin:miter;stroke-opacity:1"/>
<path class="bond-7 atom-6 atom-8" d="M 175.7,92.5 L 157.5,120.4" style="fill:none;fill-rule:evenodd;stroke:#000000;stroke-width:2.0px;stroke-linecap:butt;stroke-linejoin:miter;stroke-opacity:1"/>
<path class="bond-8 atom-8 atom-9" d="M 157.5,120.4 L 124.3,118.5" style="fill:none;fill-rule:evenodd;stroke:#000000;stroke-width:2.0px;stroke-linecap:butt;stroke-linejoin:miter;stroke-opacity:1"/>
<path class="bond-9 atom-9 atom-10" d="M 124.3,118.5 L 106.1,146.3" style="fill:none;fill-rule:evenodd;stroke:#000000;stroke-width:2.0px;stroke-linecap:butt;stroke-linejoin:miter;stroke-opacity:1"/>
<path class="bond-10 atom-10 atom-11" d="M 106.1,146.3 L 92.2,145.5" style="fill:none;fill-rule:evenodd;stroke:#000000;stroke-width:2.0px;stroke-linecap:butt;stroke-linejoin:miter;stroke-opacity:1"/>
<path class="bond-10 atom-10 atom-11" d="M 92.2,145.5 L 78.3,144.8" style="fill:none;fill-rule:evenodd;stroke:#FF0000;stroke-width:2.0px;stroke-linecap:butt;stroke-linejoin:miter;stroke-opacity:1"/>
<path class="bond-11 atom-9 atom-12" d="M 124.3,118.5 L 109.3,88.8" style="fill:none;fill-rule:evenodd;stroke:#000000;stroke-width:2.0px;stroke-linecap:butt;stroke-linejoin:miter;stroke-opacity:1"/>
<path class="bond-12 atom-12 atom-13" d="M 109.3,88.8 L 116.4,77.9" style="fill:none;fill-rule:evenodd;stroke:#000000;stroke-width:2.0px;stroke-linecap:butt;stroke-linejoin:miter;stroke-opacity:1"/>
<path class="bond-12 atom-12 atom-13" d="M 116.4,77.9 L 123.6,67.0" style="fill:none;fill-rule:evenodd;stroke:#FF0000;stroke-width:2.0px;stroke-linecap:butt;stroke-linejoin:miter;stroke-opacity:1"/>
<path class="bond-13 atom-12 atom-14" d="M 109.3,88.8 L 76.1,86.9" style="fill:none;fill-rule:evenodd;stroke:#000000;stroke-width:2.0px;stroke-linecap:butt;stroke-linejoin:miter;stroke-opacity:1"/>
<path class="bond-14 atom-14 atom-15" d="M 76.1,86.9 L 74.2,120.2" style="fill:none;fill-rule:evenodd;stroke:#000000;stroke-width:2.0px;stroke-linecap:butt;stroke-linejoin:miter;stroke-opacity:1"/>
<path class="bond-15 atom-14 atom-16" d="M 76.1,86.9 L 77.9,53.7" style="fill:none;fill-rule:evenodd;stroke:#000000;stroke-width:2.0px;stroke-linecap:butt;stroke-linejoin:miter;stroke-opacity:1"/>
<path class="bond-16 atom-14 atom-17" d="M 76.1,86.9 L 42.9,85.1" style="fill:none;fill-rule:evenodd;stroke:#000000;stroke-width:2.0px;stroke-linecap:butt;stroke-linejoin:miter;stroke-opacity:1"/>
<path class="bond-17 atom-17 atom-18" d="M 41.6,82.5 L 34.0,94.1" style="fill:none;fill-rule:evenodd;stroke:#000000;stroke-width:2.0px;stroke-linecap:butt;stroke-linejoin:miter;stroke-opacity:1"/>
<path class="bond-17 atom-17 atom-18" d="M 34.0,94.1 L 26.4,105.7" style="fill:none;fill-rule:evenodd;stroke:#FF0000;stroke-width:2.0px;stroke-linecap:butt;stroke-linejoin:miter;stroke-opacity:1"/>
<path class="bond-17 atom-17 atom-18" d="M 45.7,85.2 L 38.2,96.8" style="fill:none;fill-rule:evenodd;stroke:#000000;stroke-width:2.0px;stroke-linecap:butt;stroke-linejoin:miter;stroke-opacity:1"/>
<path class="bond-17 atom-17 atom-18" d="M 38.2,96.8 L 30.6,108.4" style="fill:none;fill-rule:evenodd;stroke:#FF0000;stroke-width:2.0px;stroke-linecap:butt;stroke-linejoin:miter;stroke-opacity:1"/>
<path class="bond-18 atom-17 atom-19" d="M 42.9,85.1 L 36.9,73.2" style="fill:none;fill-rule:evenodd;stroke:#000000;stroke-width:2.0px;stroke-linecap:butt;stroke-linejoin:miter;stroke-opacity:1"/>
<path class="bond-18 atom-17 atom-19" d="M 36.9,73.2 L 30.9,61.4" style="fill:none;fill-rule:evenodd;stroke:#FF0000;stroke-width:2.0px;stroke-linecap:butt;stroke-linejoin:miter;stroke-opacity:1"/>
<path d="M 240.4,96.2 L 242.1,96.3 L 242.4,96.8" style="fill:none;stroke:#000000;stroke-width:2.0px;stroke-linecap:butt;stroke-linejoin:miter;stroke-opacity:1;"/>
<path d="M 158.4,119.0 L 157.5,120.4 L 155.8,120.3" style="fill:none;stroke:#000000;stroke-width:2.0px;stroke-linecap:butt;stroke-linejoin:miter;stroke-opacity:1;"/>
<path d="M 107.0,144.9 L 106.1,146.3 L 105.4,146.3" style="fill:none;stroke:#000000;stroke-width:2.0px;stroke-linecap:butt;stroke-linejoin:miter;stroke-opacity:1;"/>
<path d="M 44.5,85.2 L 42.9,85.1 L 42.6,84.5" style="fill:none;stroke:#000000;stroke-width:2.0px;stroke-linecap:butt;stroke-linejoin:miter;stroke-opacity:1;"/>
<path class="atom-4" d="M 256.0 68.5 Q 256.0 66.2, 257.1 64.9 Q 258.2 63.7, 260.3 63.7 Q 262.4 63.7, 263.5 64.9 Q 264.6 66.2, 264.6 68.5 Q 264.6 70.7, 263.5 72.0 Q 262.4 73.3, 260.3 73.3 Q 258.2 73.3, 257.1 72.0 Q 256.0 70.8, 256.0 68.5 M 260.3 72.3 Q 261.8 72.3, 262.5 71.3 Q 263.3 70.3, 263.3 68.5 Q 263.3 66.6, 262.5 65.7 Q 261.8 64.7, 260.3 64.7 Q 258.9 64.7, 258.1 65.7 Q 257.3 66.6, 257.3 68.5 Q 257.3 70.4, 258.1 71.3 Q 258.9 72.3, 260.3 72.3 " fill="#FF0000"/>
<path class="atom-5" d="M 252.8 126.0 Q 252.8 123.7, 253.9 122.4 Q 255.0 121.2, 257.1 121.2 Q 259.2 121.2, 260.3 122.4 Q 261.4 123.7, 261.4 126.0 Q 261.4 128.3, 260.3 129.6 Q 259.2 130.8, 257.1 130.8 Q 255.0 130.8, 253.9 129.6 Q 252.8 128.3, 252.8 126.0 M 257.1 129.8 Q 258.5 129.8, 259.3 128.8 Q 260.1 127.9, 260.1 126.0 Q 260.1 124.1, 259.3 123.2 Q 258.5 122.2, 257.1 122.2 Q 255.7 122.2, 254.9 123.2 Q 254.1 124.1, 254.1 126.0 Q 254.1 127.9, 254.9 128.8 Q 255.7 129.8, 257.1 129.8 " fill="#FF0000"/>
<path class="atom-5" d="M 262.9 121.3 L 264.2 121.3 L 264.2 125.3 L 269.0 125.3 L 269.0 121.3 L 270.3 121.3 L 270.3 130.7 L 269.0 130.7 L 269.0 126.4 L 264.2 126.4 L 264.2 130.7 L 262.9 130.7 L 262.9 121.3 " fill="#FF0000"/>
<path class="atom-7" d="M 147.1 58.2 L 148.3 58.2 L 148.3 62.2 L 153.2 62.2 L 153.2 58.2 L 154.4 58.2 L 154.4 67.6 L 153.2 67.6 L 153.2 63.3 L 148.3 63.3 L 148.3 67.6 L 147.1 67.6 L 147.1 58.2 " fill="#FF0000"/>
<path class="atom-7" d="M 156.4 62.9 Q 156.4 60.6, 157.5 59.3 Q 158.6 58.1, 160.7 58.1 Q 162.8 58.1, 163.9 59.3 Q 165.0 60.6, 165.0 62.9 Q 165.0 65.2, 163.9 66.5 Q 162.8 67.8, 160.7 67.8 Q 158.6 67.8, 157.5 66.5 Q 156.4 65.2, 156.4 62.9 M 160.7 66.7 Q 162.1 66.7, 162.9 65.7 Q 163.7 64.8, 163.7 62.9 Q 163.7 61.0, 162.9 60.1 Q 162.1 59.1, 160.7 59.1 Q 159.3 59.1, 158.5 60.1 Q 157.7 61.0, 157.7 62.9 Q 157.7 64.8, 158.5 65.7 Q 159.3 66.7, 160.7 66.7 " fill="#FF0000"/>
<path class="atom-11" d="M 59.2 139.8 L 60.5 139.8 L 60.5 143.8 L 65.3 143.8 L 65.3 139.8 L 66.6 139.8 L 66.6 149.2 L 65.3 149.2 L 65.3 144.9 L 60.5 144.9 L 60.5 149.2 L 59.2 149.2 L 59.2 139.8 " fill="#FF0000"/>
<path class="atom-11" d="M 68.5 144.5 Q 68.5 142.2, 69.6 141.0 Q 70.8 139.7, 72.8 139.7 Q 74.9 139.7, 76.1 141.0 Q 77.2 142.2, 77.2 144.5 Q 77.2 146.8, 76.0 148.1 Q 74.9 149.4, 72.8 149.4 Q 70.8 149.4, 69.6 148.1 Q 68.5 146.8, 68.5 144.5 M 72.8 148.3 Q 74.3 148.3, 75.1 147.3 Q 75.8 146.4, 75.8 144.5 Q 75.8 142.6, 75.1 141.7 Q 74.3 140.8, 72.8 140.8 Q 71.4 140.8, 70.6 141.7 Q 69.9 142.6, 69.9 144.5 Q 69.9 146.4, 70.6 147.3 Q 71.4 148.3, 72.8 148.3 " fill="#FF0000"/>
<path class="atom-13" d="M 123.2 61.0 Q 123.2 58.7, 124.3 57.5 Q 125.4 56.2, 127.5 56.2 Q 129.6 56.2, 130.7 57.5 Q 131.8 58.7, 131.8 61.0 Q 131.8 63.3, 130.7 64.6 Q 129.6 65.9, 127.5 65.9 Q 125.4 65.9, 124.3 64.6 Q 123.2 63.3, 123.2 61.0 M 127.5 64.8 Q 128.9 64.8, 129.7 63.9 Q 130.5 62.9, 130.5 61.0 Q 130.5 59.2, 129.7 58.2 Q 128.9 57.3, 127.5 57.3 Q 126.1 57.3, 125.3 58.2 Q 124.5 59.1, 124.5 61.0 Q 124.5 62.9, 125.3 63.9 Q 126.1 64.8, 127.5 64.8 " fill="#FF0000"/>
<path class="atom-13" d="M 133.3 56.3 L 134.6 56.3 L 134.6 60.3 L 139.4 60.3 L 139.4 56.3 L 140.7 56.3 L 140.7 65.7 L 139.4 65.7 L 139.4 61.4 L 134.6 61.4 L 134.6 65.7 L 133.3 65.7 L 133.3 56.3 " fill="#FF0000"/>
<path class="atom-18" d="M 20.3 112.9 Q 20.3 110.7, 21.4 109.4 Q 22.6 108.1, 24.7 108.1 Q 26.7 108.1, 27.9 109.4 Q 29.0 110.7, 29.0 112.9 Q 29.0 115.2, 27.8 116.5 Q 26.7 117.8, 24.7 117.8 Q 22.6 117.8, 21.4 116.5 Q 20.3 115.2, 20.3 112.9 M 24.7 116.8 Q 26.1 116.8, 26.9 115.8 Q 27.6 114.8, 27.6 112.9 Q 27.6 111.1, 26.9 110.2 Q 26.1 109.2, 24.7 109.2 Q 23.2 109.2, 22.4 110.1 Q 21.7 111.1, 21.7 112.9 Q 21.7 114.8, 22.4 115.8 Q 23.2 116.8, 24.7 116.8 " fill="#FF0000"/>
<path class="atom-19" d="M 14.2 50.7 L 15.5 50.7 L 15.5 54.7 L 20.3 54.7 L 20.3 50.7 L 21.6 50.7 L 21.6 60.2 L 20.3 60.2 L 20.3 55.8 L 15.5 55.8 L 15.5 60.2 L 14.2 60.2 L 14.2 50.7 " fill="#FF0000"/>
<path class="atom-19" d="M 23.6 55.4 Q 23.6 53.2, 24.7 51.9 Q 25.8 50.6, 27.9 50.6 Q 30.0 50.6, 31.1 51.9 Q 32.2 53.2, 32.2 55.4 Q 32.2 57.7, 31.1 59.0 Q 29.9 60.3, 27.9 60.3 Q 25.8 60.3, 24.7 59.0 Q 23.6 57.7, 23.6 55.4 M 27.9 59.2 Q 29.3 59.2, 30.1 58.3 Q 30.9 57.3, 30.9 55.4 Q 30.9 53.6, 30.1 52.6 Q 29.3 51.7, 27.9 51.7 Q 26.4 51.7, 25.7 52.6 Q 24.9 53.6, 24.9 55.4 Q 24.9 57.3, 25.7 58.3 Q 26.4 59.2, 27.9 59.2 " fill="#FF0000"/>
</g>
    <g transform="translate(614.0, 0) scale(1 1) "><line x1="15" y1="100" x2="25" y2="100" style="stroke:rgb(0,0,0);stroke-width:2"/>
  <line x1="20" y1="95" x2="20" y2="105" style="stroke:rgb(0,0,0);stroke-width:2"/>
</g>
    <g transform="translate(654.0, 0) scale(1 1) "><!-- END OF HEADER -->
<rect style="opacity:1.0;fill:#FFFFFF;stroke:none" width="293.0" height="200.0" x="0.0" y="0.0"> </rect>
<path class="bond-0 atom-0 atom-1" d="M 140.5,56.1 L 140.0,88.5" style="fill:none;fill-rule:evenodd;stroke:#000000;stroke-width:2.0px;stroke-linecap:butt;stroke-linejoin:miter;stroke-opacity:1"/>
<path class="bond-1 atom-1 atom-2" d="M 140.0,88.5 L 111.7,104.3" style="fill:none;fill-rule:evenodd;stroke:#000000;stroke-width:2.0px;stroke-linecap:butt;stroke-linejoin:miter;stroke-opacity:1"/>
<path class="bond-2 atom-2 atom-3" d="M 111.7,104.3 L 111.5,117.6" style="fill:none;fill-rule:evenodd;stroke:#000000;stroke-width:2.0px;stroke-linecap:butt;stroke-linejoin:miter;stroke-opacity:1"/>
<path class="bond-2 atom-2 atom-3" d="M 111.5,117.6 L 111.3,130.9" style="fill:none;fill-rule:evenodd;stroke:#FF0000;stroke-width:2.0px;stroke-linecap:butt;stroke-linejoin:miter;stroke-opacity:1"/>
<path class="bond-3 atom-2 atom-4" d="M 111.7,104.3 L 84.0,87.7" style="fill:none;fill-rule:evenodd;stroke:#000000;stroke-width:2.0px;stroke-linecap:butt;stroke-linejoin:miter;stroke-opacity:1"/>
<path class="bond-4 atom-4 atom-5" d="M 84.0,87.7 L 100.5,59.9" style="fill:none;fill-rule:evenodd;stroke:#000000;stroke-width:2.0px;stroke-linecap:butt;stroke-linejoin:miter;stroke-opacity:1"/>
<path class="bond-5 atom-4 atom-6" d="M 84.0,87.7 L 67.4,115.4" style="fill:none;fill-rule:evenodd;stroke:#000000;stroke-width:2.0px;stroke-linecap:butt;stroke-linejoin:miter;stroke-opacity:1"/>
<path class="bond-6 atom-4 atom-7" d="M 84.0,87.7 L 56.2,71.1" style="fill:none;fill-rule:evenodd;stroke:#000000;stroke-width:2.0px;stroke-linecap:butt;stroke-linejoin:miter;stroke-opacity:1"/>
<path class="bond-7 atom-7 atom-8" d="M 58.6,72.5 L 58.8,58.5" style="fill:none;fill-rule:evenodd;stroke:#000000;stroke-width:2.0px;stroke-linecap:butt;stroke-linejoin:miter;stroke-opacity:1"/>
<path class="bond-7 atom-7 atom-8" d="M 58.8,58.5 L 59.0,44.6" style="fill:none;fill-rule:evenodd;stroke:#FF0000;stroke-width:2.0px;stroke-linecap:butt;stroke-linejoin:miter;stroke-opacity:1"/>
<path class="bond-7 atom-7 atom-8" d="M 53.7,72.4 L 53.9,58.5" style="fill:none;fill-rule:evenodd;stroke:#000000;stroke-width:2.0px;stroke-linecap:butt;stroke-linejoin:miter;stroke-opacity:1"/>
<path class="bond-7 atom-7 atom-8" d="M 53.9,58.5 L 54.1,44.5" style="fill:none;fill-rule:evenodd;stroke:#FF0000;stroke-width:2.0px;stroke-linecap:butt;stroke-linejoin:miter;stroke-opacity:1"/>
<path class="bond-8 atom-7 atom-9" d="M 56.2,71.1 L 44.7,77.5" style="fill:none;fill-rule:evenodd;stroke:#000000;stroke-width:2.0px;stroke-linecap:butt;stroke-linejoin:miter;stroke-opacity:1"/>
<path class="bond-8 atom-7 atom-9" d="M 44.7,77.5 L 33.2,83.9" style="fill:none;fill-rule:evenodd;stroke:#FF0000;stroke-width:2.0px;stroke-linecap:butt;stroke-linejoin:miter;stroke-opacity:1"/>
<path class="bond-9 atom-1 atom-10" d="M 140.0,88.5 L 167.8,105.1" style="fill:none;fill-rule:evenodd;stroke:#000000;stroke-width:2.0px;stroke-linecap:butt;stroke-linejoin:miter;stroke-opacity:1"/>
<path class="bond-10 atom-10 atom-11" d="M 167.8,105.1 L 195.6,121.7" style="fill:none;fill-rule:evenodd;stroke:#000000;stroke-width:2.0px;stroke-linecap:butt;stroke-linejoin:miter;stroke-opacity:1"/>
<path class="bond-11 atom-10 atom-12" d="M 167.8,105.1 L 151.2,132.9" style="fill:none;fill-rule:evenodd;stroke:#000000;stroke-width:2.0px;stroke-linecap:butt;stroke-linejoin:miter;stroke-opacity:1"/>
<path class="bond-12 atom-12 atom-13" d="M 151.2,132.9 L 157.5,144.2" style="fill:none;fill-rule:evenodd;stroke:#000000;stroke-width:2.0px;stroke-linecap:butt;stroke-linejoin:miter;stroke-opacity:1"/>
<path class="bond-12 atom-12 atom-13" d="M 157.5,144.2 L 163.8,155.4" style="fill:none;fill-rule:evenodd;stroke:#FF0000;stroke-width:2.0px;stroke-linecap:butt;stroke-linejoin:miter;stroke-opacity:1"/>
<path class="bond-13 atom-10 atom-14" d="M 167.8,105.1 L 184.4,77.3" style="fill:none;fill-rule:evenodd;stroke:#000000;stroke-width:2.0px;stroke-linecap:butt;stroke-linejoin:miter;stroke-opacity:1"/>
<path class="bond-14 atom-14 atom-15" d="M 184.4,77.3 L 178.1,66.1" style="fill:none;fill-rule:evenodd;stroke:#000000;stroke-width:2.0px;stroke-linecap:butt;stroke-linejoin:miter;stroke-opacity:1"/>
<path class="bond-14 atom-14 atom-15" d="M 178.1,66.1 L 171.9,54.9" style="fill:none;fill-rule:evenodd;stroke:#FF0000;stroke-width:2.0px;stroke-linecap:butt;stroke-linejoin:miter;stroke-opacity:1"/>
<path class="bond-15 atom-14 atom-16" d="M 184.4,77.3 L 216.7,77.8" style="fill:none;fill-rule:evenodd;stroke:#000000;stroke-width:2.0px;stroke-linecap:butt;stroke-linejoin:miter;stroke-opacity:1"/>
<path class="bond-16 atom-16 atom-17" d="M 216.7,77.8 L 216.2,110.2" style="fill:none;fill-rule:evenodd;stroke:#000000;stroke-width:2.0px;stroke-linecap:butt;stroke-linejoin:miter;stroke-opacity:1"/>
<path class="bond-17 atom-16 atom-18" d="M 216.7,77.8 L 217.2,45.5" style="fill:none;fill-rule:evenodd;stroke:#000000;stroke-width:2.0px;stroke-linecap:butt;stroke-linejoin:miter;stroke-opacity:1"/>
<path class="bond-18 atom-16 atom-19" d="M 216.7,77.8 L 249.1,78.3" style="fill:none;fill-rule:evenodd;stroke:#000000;stroke-width:2.0px;stroke-linecap:butt;stroke-linejoin:miter;stroke-opacity:1"/>
<path class="bond-19 atom-19 atom-20" d="M 250.5,80.7 L 257.4,69.2" style="fill:none;fill-rule:evenodd;stroke:#000000;stroke-width:2.0px;stroke-linecap:butt;stroke-linejoin:miter;stroke-opacity:1"/>
<path class="bond-19 atom-19 atom-20" d="M 257.4,69.2 L 264.3,57.6" style="fill:none;fill-rule:evenodd;stroke:#FF0000;stroke-width:2.0px;stroke-linecap:butt;stroke-linejoin:miter;stroke-opacity:1"/>
<path class="bond-19 atom-19 atom-20" d="M 246.3,78.3 L 253.2,66.7" style="fill:none;fill-rule:evenodd;stroke:#000000;stroke-width:2.0px;stroke-linecap:butt;stroke-linejoin:miter;stroke-opacity:1"/>
<path class="bond-19 atom-19 atom-20" d="M 253.2,66.7 L 260.1,55.1" style="fill:none;fill-rule:evenodd;stroke:#FF0000;stroke-width:2.0px;stroke-linecap:butt;stroke-linejoin:miter;stroke-opacity:1"/>
<path class="bond-20 atom-19 atom-21" d="M 249.1,78.3 L 255.4,89.6" style="fill:none;fill-rule:evenodd;stroke:#000000;stroke-width:2.0px;stroke-linecap:butt;stroke-linejoin:miter;stroke-opacity:1"/>
<path class="bond-20 atom-19 atom-21" d="M 255.4,89.6 L 261.7,100.9" style="fill:none;fill-rule:evenodd;stroke:#FF0000;stroke-width:2.0px;stroke-linecap:butt;stroke-linejoin:miter;stroke-opacity:1"/>
<path d="M 57.6,71.9 L 56.2,71.1 L 55.6,71.4" style="fill:none;stroke:#000000;stroke-width:2.0px;stroke-linecap:butt;stroke-linejoin:miter;stroke-opacity:1;"/>
<path d="M 152.0,131.5 L 151.2,132.9 L 151.5,133.4" style="fill:none;stroke:#000000;stroke-width:2.0px;stroke-linecap:butt;stroke-linejoin:miter;stroke-opacity:1;"/>
<path d="M 247.5,78.3 L 249.1,78.3 L 249.4,78.9" style="fill:none;stroke:#000000;stroke-width:2.0px;stroke-linecap:butt;stroke-linejoin:miter;stroke-opacity:1;"/>
<path class="atom-3" d="M 107.0 136.6 Q 107.0 134.4, 108.1 133.2 Q 109.2 132.0, 111.2 132.0 Q 113.3 132.0, 114.4 133.2 Q 115.5 134.4, 115.5 136.6 Q 115.5 138.9, 114.4 140.1 Q 113.3 141.4, 111.2 141.4 Q 109.2 141.4, 108.1 140.1 Q 107.0 138.9, 107.0 136.6 M 111.2 140.4 Q 112.6 140.4, 113.4 139.4 Q 114.2 138.5, 114.2 136.6 Q 114.2 134.8, 113.4 133.9 Q 112.6 133.0, 111.2 133.0 Q 109.8 133.0, 109.1 133.9 Q 108.3 134.8, 108.3 136.6 Q 108.3 138.5, 109.1 139.4 Q 109.8 140.4, 111.2 140.4 " fill="#FF0000"/>
<path class="atom-3" d="M 116.9 132.1 L 118.1 132.1 L 118.1 136.0 L 122.8 136.0 L 122.8 132.1 L 124.1 132.1 L 124.1 141.3 L 122.8 141.3 L 122.8 137.0 L 118.1 137.0 L 118.1 141.3 L 116.9 141.3 L 116.9 132.1 " fill="#FF0000"/>
<path class="atom-8" d="M 52.4 38.7 Q 52.4 36.5, 53.5 35.3 Q 54.6 34.1, 56.7 34.1 Q 58.7 34.1, 59.8 35.3 Q 60.9 36.5, 60.9 38.7 Q 60.9 41.0, 59.8 42.2 Q 58.7 43.5, 56.7 43.5 Q 54.6 43.5, 53.5 42.2 Q 52.4 41.0, 52.4 38.7 M 56.7 42.5 Q 58.1 42.5, 58.8 41.5 Q 59.6 40.6, 59.6 38.7 Q 59.6 36.9, 58.8 36.0 Q 58.1 35.1, 56.7 35.1 Q 55.3 35.1, 54.5 36.0 Q 53.7 36.9, 53.7 38.7 Q 53.7 40.6, 54.5 41.5 Q 55.3 42.5, 56.7 42.5 " fill="#FF0000"/>
<path class="atom-9" d="M 14.6 82.3 L 15.9 82.3 L 15.9 86.2 L 20.6 86.2 L 20.6 82.3 L 21.8 82.3 L 21.8 91.5 L 20.6 91.5 L 20.6 87.2 L 15.9 87.2 L 15.9 91.5 L 14.6 91.5 L 14.6 82.3 " fill="#FF0000"/>
<path class="atom-9" d="M 23.7 86.9 Q 23.7 84.7, 24.8 83.4 Q 25.9 82.2, 27.9 82.2 Q 29.9 82.2, 31.0 83.4 Q 32.1 84.7, 32.1 86.9 Q 32.1 89.1, 31.0 90.3 Q 29.9 91.6, 27.9 91.6 Q 25.9 91.6, 24.8 90.3 Q 23.7 89.1, 23.7 86.9 M 27.9 90.6 Q 29.3 90.6, 30.1 89.6 Q 30.8 88.7, 30.8 86.9 Q 30.8 85.1, 30.1 84.1 Q 29.3 83.2, 27.9 83.2 Q 26.5 83.2, 25.7 84.1 Q 25.0 85.0, 25.0 86.9 Q 25.0 88.7, 25.7 89.6 Q 26.5 90.6, 27.9 90.6 " fill="#FF0000"/>
<path class="atom-13" d="M 162.7 161.2 Q 162.7 159.0, 163.8 157.7 Q 164.9 156.5, 166.9 156.5 Q 169.0 156.5, 170.1 157.7 Q 171.1 159.0, 171.1 161.2 Q 171.1 163.4, 170.0 164.7 Q 168.9 165.9, 166.9 165.9 Q 164.9 165.9, 163.8 164.7 Q 162.7 163.4, 162.7 161.2 M 166.9 164.9 Q 168.3 164.9, 169.1 164.0 Q 169.8 163.0, 169.8 161.2 Q 169.8 159.4, 169.1 158.5 Q 168.3 157.5, 166.9 157.5 Q 165.5 157.5, 164.8 158.5 Q 164.0 159.4, 164.0 161.2 Q 164.0 163.0, 164.8 164.0 Q 165.5 164.9, 166.9 164.9 " fill="#FF0000"/>
<path class="atom-13" d="M 172.6 156.6 L 173.8 156.6 L 173.8 160.5 L 178.5 160.5 L 178.5 156.6 L 179.7 156.6 L 179.7 165.8 L 178.5 165.8 L 178.5 161.5 L 173.8 161.5 L 173.8 165.8 L 172.6 165.8 L 172.6 156.6 " fill="#FF0000"/>
<path class="atom-15" d="M 155.4 44.5 L 156.6 44.5 L 156.6 48.4 L 161.3 48.4 L 161.3 44.5 L 162.5 44.5 L 162.5 53.7 L 161.3 53.7 L 161.3 49.5 L 156.6 49.5 L 156.6 53.7 L 155.4 53.7 L 155.4 44.5 " fill="#FF0000"/>
<path class="atom-15" d="M 164.4 49.1 Q 164.4 46.9, 165.5 45.7 Q 166.6 44.4, 168.6 44.4 Q 170.6 44.4, 171.7 45.7 Q 172.8 46.9, 172.8 49.1 Q 172.8 51.3, 171.7 52.6 Q 170.6 53.8, 168.6 53.8 Q 166.6 53.8, 165.5 52.6 Q 164.4 51.3, 164.4 49.1 M 168.6 52.8 Q 170.0 52.8, 170.8 51.9 Q 171.5 50.9, 171.5 49.1 Q 171.5 47.3, 170.8 46.4 Q 170.0 45.5, 168.6 45.5 Q 167.2 45.5, 166.5 46.4 Q 165.7 47.3, 165.7 49.1 Q 165.7 50.9, 166.5 51.9 Q 167.2 52.8, 168.6 52.8 " fill="#FF0000"/>
<path class="atom-20" d="M 261.5 50.5 Q 261.5 48.3, 262.6 47.1 Q 263.7 45.9, 265.7 45.9 Q 267.7 45.9, 268.8 47.1 Q 269.9 48.3, 269.9 50.5 Q 269.9 52.8, 268.8 54.0 Q 267.7 55.3, 265.7 55.3 Q 263.7 55.3, 262.6 54.0 Q 261.5 52.8, 261.5 50.5 M 265.7 54.3 Q 267.1 54.3, 267.8 53.3 Q 268.6 52.4, 268.6 50.5 Q 268.6 48.7, 267.8 47.8 Q 267.1 46.9, 265.7 46.9 Q 264.3 46.9, 263.5 47.8 Q 262.8 48.7, 262.8 50.5 Q 262.8 52.4, 263.5 53.3 Q 264.3 54.3, 265.7 54.3 " fill="#FF0000"/>
<path class="atom-21" d="M 260.6 106.6 Q 260.6 104.4, 261.7 103.2 Q 262.8 101.9, 264.8 101.9 Q 266.9 101.9, 268.0 103.2 Q 269.1 104.4, 269.1 106.6 Q 269.1 108.8, 268.0 110.1 Q 266.9 111.3, 264.8 111.3 Q 262.8 111.3, 261.7 110.1 Q 260.6 108.8, 260.6 106.6 M 264.8 110.3 Q 266.2 110.3, 267.0 109.4 Q 267.8 108.4, 267.8 106.6 Q 267.8 104.8, 267.0 103.9 Q 266.2 103.0, 264.8 103.0 Q 263.4 103.0, 262.7 103.9 Q 261.9 104.8, 261.9 106.6 Q 261.9 108.4, 262.7 109.4 Q 263.4 110.3, 264.8 110.3 " fill="#FF0000"/>
<path class="atom-21" d="M 270.5 102.0 L 271.7 102.0 L 271.7 105.9 L 276.4 105.9 L 276.4 102.0 L 277.6 102.0 L 277.6 111.2 L 276.4 111.2 L 276.4 107.0 L 271.7 107.0 L 271.7 111.2 L 270.5 111.2 L 270.5 102.0 " fill="#FF0000"/>
</g>
  </g>
</svg>
