<?xml version='1.0' encoding='ASCII' standalone='yes'?>
<svg xmlns="http://www.w3.org/2000/svg" xmlns:xlink="http://www.w3.org/1999/xlink" version="1.1" width="813.0px" viewBox="0 0 813.0 200.0" height="200.0px">
  <g>
    <g transform="translate(0, 0) scale(1 1) "><!-- END OF HEADER -->
<rect style="opacity:1.0;fill:#FFFFFF;stroke:none" width="247.0" height="200.0" x="0.0" y="0.0"> </rect>
<path class="bond-0 atom-0 atom-1" d="M 191.3,63.7 L 179.0,90.9" style="fill:none;fill-rule:evenodd;stroke:#000000;stroke-width:2.0px;stroke-linecap:butt;stroke-linejoin:miter;stroke-opacity:1"/>
<path class="bond-1 atom-1 atom-2" d="M 179.0,90.9 L 166.7,118.1" style="fill:none;fill-rule:evenodd;stroke:#000000;stroke-width:2.0px;stroke-linecap:butt;stroke-linejoin:miter;stroke-opacity:1"/>
<path class="bond-2 atom-1 atom-3" d="M 179.0,90.9 L 206.2,103.2" style="fill:none;fill-rule:evenodd;stroke:#000000;stroke-width:2.0px;stroke-linecap:butt;stroke-linejoin:miter;stroke-opacity:1"/>
<path class="bond-3 atom-3 atom-4" d="M 206.5,105.8 L 216.7,98.5" style="fill:none;fill-rule:evenodd;stroke:#000000;stroke-width:2.0px;stroke-linecap:butt;stroke-linejoin:miter;stroke-opacity:1"/>
<path class="bond-3 atom-3 atom-4" d="M 216.7,98.5 L 226.9,91.1" style="fill:none;fill-rule:evenodd;stroke:#FF0000;stroke-width:2.0px;stroke-linecap:butt;stroke-linejoin:miter;stroke-opacity:1"/>
<path class="bond-3 atom-3 atom-4" d="M 203.9,102.2 L 214.1,94.8" style="fill:none;fill-rule:evenodd;stroke:#000000;stroke-width:2.0px;stroke-linecap:butt;stroke-linejoin:miter;stroke-opacity:1"/>
<path class="bond-3 atom-3 atom-4" d="M 214.1,94.8 L 224.3,87.5" style="fill:none;fill-rule:evenodd;stroke:#FF0000;stroke-width:2.0px;stroke-linecap:butt;stroke-linejoin:miter;stroke-opacity:1"/>
<path class="bond-4 atom-3 atom-5" d="M 206.2,103.2 L 207.4,115.5" style="fill:none;fill-rule:evenodd;stroke:#000000;stroke-width:2.0px;stroke-linecap:butt;stroke-linejoin:miter;stroke-opacity:1"/>
<path class="bond-4 atom-3 atom-5" d="M 207.4,115.5 L 208.6,127.7" style="fill:none;fill-rule:evenodd;stroke:#FF0000;stroke-width:2.0px;stroke-linecap:butt;stroke-linejoin:miter;stroke-opacity:1"/>
<path class="bond-5 atom-1 atom-6" d="M 179.0,90.9 L 151.8,78.6" style="fill:none;fill-rule:evenodd;stroke:#000000;stroke-width:2.0px;stroke-linecap:butt;stroke-linejoin:miter;stroke-opacity:1"/>
<path class="bond-6 atom-6 atom-7" d="M 151.8,78.6 L 150.6,66.5" style="fill:none;fill-rule:evenodd;stroke:#000000;stroke-width:2.0px;stroke-linecap:butt;stroke-linejoin:miter;stroke-opacity:1"/>
<path class="bond-6 atom-6 atom-7" d="M 150.6,66.5 L 149.4,54.3" style="fill:none;fill-rule:evenodd;stroke:#FF0000;stroke-width:2.0px;stroke-linecap:butt;stroke-linejoin:miter;stroke-opacity:1"/>
<path class="bond-7 atom-6 atom-8" d="M 151.8,78.6 L 127.5,96.1" style="fill:none;fill-rule:evenodd;stroke:#000000;stroke-width:2.0px;stroke-linecap:butt;stroke-linejoin:miter;stroke-opacity:1"/>
<path class="bond-8 atom-8 atom-9" d="M 127.5,96.1 L 100.3,83.8" style="fill:none;fill-rule:evenodd;stroke:#000000;stroke-width:2.0px;stroke-linecap:butt;stroke-linejoin:miter;stroke-opacity:1"/>
<path class="bond-9 atom-9 atom-10" d="M 100.3,83.8 L 76.1,101.2" style="fill:none;fill-rule:evenodd;stroke:#000000;stroke-width:2.0px;stroke-linecap:butt;stroke-linejoin:miter;stroke-opacity:1"/>
<path class="bond-10 atom-10 atom-11" d="M 76.1,101.2 L 48.8,88.9" style="fill:none;fill-rule:evenodd;stroke:#000000;stroke-width:2.0px;stroke-linecap:butt;stroke-linejoin:miter;stroke-opacity:1"/>
<path class="bond-11 atom-11 atom-12" d="M 48.8,88.9 L 39.1,95.8" style="fill:none;fill-rule:evenodd;stroke:#000000;stroke-width:2.0px;stroke-linecap:butt;stroke-linejoin:miter;stroke-opacity:1"/>
<path class="bond-11 atom-11 atom-12" d="M 39.1,95.8 L 29.5,102.8" style="fill:none;fill-rule:evenodd;stroke:#FF0000;stroke-width:2.0px;stroke-linecap:butt;stroke-linejoin:miter;stroke-opacity:1"/>
<path d="M 204.9,102.6 L 206.2,103.2 L 206.3,103.8" style="fill:none;stroke:#000000;stroke-width:2.0px;stroke-linecap:butt;stroke-linejoin:miter;stroke-opacity:1;"/>
<path d="M 128.7,95.2 L 127.5,96.1 L 126.2,95.4" style="fill:none;stroke:#000000;stroke-width:2.0px;stroke-linecap:butt;stroke-linejoin:miter;stroke-opacity:1;"/>
<path d="M 101.7,84.4 L 100.3,83.8 L 99.1,84.6" style="fill:none;stroke:#000000;stroke-width:2.0px;stroke-linecap:butt;stroke-linejoin:miter;stroke-opacity:1;"/>
<path d="M 77.3,100.3 L 76.1,101.2 L 74.7,100.6" style="fill:none;stroke:#000000;stroke-width:2.0px;stroke-linecap:butt;stroke-linejoin:miter;stroke-opacity:1;"/>
<path d="M 50.2,89.5 L 48.8,88.9 L 48.4,89.2" style="fill:none;stroke:#000000;stroke-width:2.0px;stroke-linecap:butt;stroke-linejoin:miter;stroke-opacity:1;"/>
<path class="atom-4" d="M 226.6 85.8 Q 226.6 83.8, 227.6 82.7 Q 228.6 81.5, 230.5 81.5 Q 232.3 81.5, 233.3 82.7 Q 234.3 83.8, 234.3 85.8 Q 234.3 87.9, 233.3 89.1 Q 232.3 90.2, 230.5 90.2 Q 228.6 90.2, 227.6 89.1 Q 226.6 87.9, 226.6 85.8 M 230.5 89.3 Q 231.8 89.3, 232.5 88.4 Q 233.2 87.5, 233.2 85.8 Q 233.2 84.2, 232.5 83.3 Q 231.8 82.5, 230.5 82.5 Q 229.2 82.5, 228.5 83.3 Q 227.8 84.2, 227.8 85.8 Q 227.8 87.5, 228.5 88.4 Q 229.2 89.3, 230.5 89.3 " fill="#FF0000"/>
<path class="atom-5" d="M 205.3 133.0 Q 205.3 130.9, 206.3 129.8 Q 207.3 128.7, 209.2 128.7 Q 211.0 128.7, 212.0 129.8 Q 213.1 130.9, 213.1 133.0 Q 213.1 135.0, 212.0 136.2 Q 211.0 137.4, 209.2 137.4 Q 207.3 137.4, 206.3 136.2 Q 205.3 135.0, 205.3 133.0 M 209.2 136.4 Q 210.5 136.4, 211.2 135.5 Q 211.9 134.7, 211.9 133.0 Q 211.9 131.3, 211.2 130.5 Q 210.5 129.6, 209.2 129.6 Q 207.9 129.6, 207.2 130.5 Q 206.5 131.3, 206.5 133.0 Q 206.5 134.7, 207.2 135.5 Q 207.9 136.4, 209.2 136.4 " fill="#FF0000"/>
<path class="atom-5" d="M 214.4 128.8 L 215.5 128.8 L 215.5 132.4 L 219.8 132.4 L 219.8 128.8 L 221.0 128.8 L 221.0 137.2 L 219.8 137.2 L 219.8 133.3 L 215.5 133.3 L 215.5 137.2 L 214.4 137.2 L 214.4 128.8 " fill="#FF0000"/>
<path class="atom-7" d="M 144.9 48.9 Q 144.9 46.9, 145.9 45.8 Q 147.0 44.6, 148.8 44.6 Q 150.7 44.6, 151.7 45.8 Q 152.7 46.9, 152.7 48.9 Q 152.7 51.0, 151.7 52.2 Q 150.7 53.3, 148.8 53.3 Q 147.0 53.3, 145.9 52.2 Q 144.9 51.0, 144.9 48.9 M 148.8 52.4 Q 150.1 52.4, 150.8 51.5 Q 151.5 50.6, 151.5 48.9 Q 151.5 47.3, 150.8 46.4 Q 150.1 45.6, 148.8 45.6 Q 147.5 45.6, 146.8 46.4 Q 146.1 47.3, 146.1 48.9 Q 146.1 50.7, 146.8 51.5 Q 147.5 52.4, 148.8 52.4 " fill="#FF0000"/>
<path class="atom-7" d="M 154.0 44.7 L 155.2 44.7 L 155.2 48.3 L 159.5 48.3 L 159.5 44.7 L 160.6 44.7 L 160.6 53.2 L 159.5 53.2 L 159.5 49.3 L 155.2 49.3 L 155.2 53.2 L 154.0 53.2 L 154.0 44.7 " fill="#FF0000"/>
<path class="atom-12" d="M 12.3 102.1 L 13.5 102.1 L 13.5 105.7 L 17.8 105.7 L 17.8 102.1 L 19.0 102.1 L 19.0 110.6 L 17.8 110.6 L 17.8 106.7 L 13.5 106.7 L 13.5 110.6 L 12.3 110.6 L 12.3 102.1 " fill="#FF0000"/>
<path class="atom-12" d="M 20.7 106.3 Q 20.7 104.3, 21.7 103.2 Q 22.7 102.0, 24.6 102.0 Q 26.5 102.0, 27.5 103.2 Q 28.5 104.3, 28.5 106.3 Q 28.5 108.4, 27.5 109.5 Q 26.4 110.7, 24.6 110.7 Q 22.7 110.7, 21.7 109.5 Q 20.7 108.4, 20.7 106.3 M 24.6 109.8 Q 25.9 109.8, 26.6 108.9 Q 27.3 108.0, 27.3 106.3 Q 27.3 104.7, 26.6 103.8 Q 25.9 103.0, 24.6 103.0 Q 23.3 103.0, 22.6 103.8 Q 21.9 104.7, 21.9 106.3 Q 21.9 108.0, 22.6 108.9 Q 23.3 109.8, 24.6 109.8 " fill="#FF0000"/>
<path class="legend" d="M 114.8 181.9 Q 114.8 179.6, 115.5 177.7 Q 116.2 175.8, 117.5 173.8 L 118.4 174.4 Q 117.3 176.3, 116.8 178.0 Q 116.3 179.7, 116.3 181.9 Q 116.3 184.0, 116.8 185.8 Q 117.3 187.5, 118.4 189.4 L 117.5 190.0 Q 116.2 188.0, 115.5 186.1 Q 114.8 184.2, 114.8 181.9 " fill="#000000"/>
<path class="legend" d="M 119.3 177.3 Q 119.7 176.2, 120.7 175.6 Q 121.7 175.0, 123.1 175.0 Q 124.8 175.0, 125.7 175.9 Q 126.7 176.8, 126.7 178.5 Q 126.7 180.2, 125.4 181.7 Q 124.2 183.3, 121.7 185.2 L 126.9 185.2 L 126.9 186.4 L 119.3 186.4 L 119.3 185.4 Q 121.4 183.9, 122.6 182.8 Q 123.9 181.6, 124.5 180.6 Q 125.1 179.6, 125.1 178.6 Q 125.1 177.5, 124.5 176.9 Q 124.0 176.3, 123.1 176.3 Q 122.1 176.3, 121.5 176.6 Q 120.9 177.0, 120.5 177.8 L 119.3 177.3 " fill="#000000"/>
<path class="legend" d="M 131.9 181.9 Q 131.9 184.2, 131.2 186.1 Q 130.5 188.0, 129.2 190.0 L 128.3 189.4 Q 129.4 187.5, 129.9 185.8 Q 130.4 184.0, 130.4 181.9 Q 130.4 179.7, 129.9 178.0 Q 129.4 176.3, 128.3 174.4 L 129.2 173.8 Q 130.5 175.8, 131.2 177.7 Q 131.9 179.6, 131.9 181.9 " fill="#000000"/>
</g>
    <g transform="translate(247.0, 0) scale(1 1) "><line x1="5" y1="100" x2="35" y2="100" style="stroke:rgb(0,0,0);stroke-width:2"/>
  <line x1="34" y1="100" x2="29" y2="95" style="stroke:rgb(0,0,0);stroke-width:2"/>
  <line x1="34" y1="100" x2="29" y2="105" style="stroke:rgb(0,0,0);stroke-width:2"/>
</g>
    <g transform="translate(287.0, 0) scale(1 1) "><!-- END OF HEADER -->
<rect style="opacity:1.0;fill:#FFFFFF;stroke:none" width="271.0" height="200.0" x="0.0" y="0.0"> </rect>
<path class="bond-0 atom-0 atom-1" d="M 143.5,62.9 L 174.5,71.6" style="fill:none;fill-rule:evenodd;stroke:#000000;stroke-width:2.0px;stroke-linecap:butt;stroke-linejoin:miter;stroke-opacity:1"/>
<path class="bond-1 atom-1 atom-2" d="M 174.5,71.6 L 205.5,80.2" style="fill:none;fill-rule:evenodd;stroke:#000000;stroke-width:2.0px;stroke-linecap:butt;stroke-linejoin:miter;stroke-opacity:1"/>
<path class="bond-2 atom-1 atom-3" d="M 174.5,71.6 L 183.2,40.6" style="fill:none;fill-rule:evenodd;stroke:#000000;stroke-width:2.0px;stroke-linecap:butt;stroke-linejoin:miter;stroke-opacity:1"/>
<path class="bond-3 atom-3 atom-4" d="M 185.9,39.9 L 176.8,30.5" style="fill:none;fill-rule:evenodd;stroke:#000000;stroke-width:2.0px;stroke-linecap:butt;stroke-linejoin:miter;stroke-opacity:1"/>
<path class="bond-3 atom-3 atom-4" d="M 176.8,30.5 L 167.6,21.2" style="fill:none;fill-rule:evenodd;stroke:#FF0000;stroke-width:2.0px;stroke-linecap:butt;stroke-linejoin:miter;stroke-opacity:1"/>
<path class="bond-3 atom-3 atom-4" d="M 182.4,43.2 L 173.3,33.9" style="fill:none;fill-rule:evenodd;stroke:#000000;stroke-width:2.0px;stroke-linecap:butt;stroke-linejoin:miter;stroke-opacity:1"/>
<path class="bond-3 atom-3 atom-4" d="M 173.3,33.9 L 164.2,24.6" style="fill:none;fill-rule:evenodd;stroke:#FF0000;stroke-width:2.0px;stroke-linecap:butt;stroke-linejoin:miter;stroke-opacity:1"/>
<path class="bond-4 atom-3 atom-5" d="M 183.2,40.6 L 196.2,37.2" style="fill:none;fill-rule:evenodd;stroke:#000000;stroke-width:2.0px;stroke-linecap:butt;stroke-linejoin:miter;stroke-opacity:1"/>
<path class="bond-4 atom-3 atom-5" d="M 196.2,37.2 L 209.1,33.9" style="fill:none;fill-rule:evenodd;stroke:#FF0000;stroke-width:2.0px;stroke-linecap:butt;stroke-linejoin:miter;stroke-opacity:1"/>
<path class="bond-5 atom-1 atom-6" d="M 174.5,71.6 L 165.8,102.6" style="fill:none;fill-rule:evenodd;stroke:#000000;stroke-width:2.0px;stroke-linecap:butt;stroke-linejoin:miter;stroke-opacity:1"/>
<path class="bond-6 atom-6 atom-7" d="M 165.8,102.6 L 162.3,115.2" style="fill:none;fill-rule:evenodd;stroke:#000000;stroke-width:2.0px;stroke-linecap:butt;stroke-linejoin:miter;stroke-opacity:1"/>
<path class="bond-6 atom-6 atom-7" d="M 162.3,115.2 L 158.7,127.9" style="fill:none;fill-rule:evenodd;stroke:#FF0000;stroke-width:2.0px;stroke-linecap:butt;stroke-linejoin:miter;stroke-opacity:1"/>
<path class="bond-7 atom-6 atom-8" d="M 165.8,102.6 L 196.8,111.3" style="fill:none;fill-rule:evenodd;stroke:#000000;stroke-width:2.0px;stroke-linecap:butt;stroke-linejoin:miter;stroke-opacity:1"/>
<path class="bond-8 atom-8 atom-9" d="M 196.8,111.3 L 204.8,142.5" style="fill:none;fill-rule:evenodd;stroke:#000000;stroke-width:2.0px;stroke-linecap:butt;stroke-linejoin:miter;stroke-opacity:1"/>
<path class="bond-9 atom-9 atom-10" d="M 204.8,142.5 L 235.8,151.1" style="fill:none;fill-rule:evenodd;stroke:#000000;stroke-width:2.0px;stroke-linecap:butt;stroke-linejoin:miter;stroke-opacity:1"/>
<path class="bond-10 atom-10 atom-11" d="M 235.8,151.1 L 239.1,163.9" style="fill:none;fill-rule:evenodd;stroke:#000000;stroke-width:2.0px;stroke-linecap:butt;stroke-linejoin:miter;stroke-opacity:1"/>
<path class="bond-10 atom-10 atom-11" d="M 239.1,163.9 L 242.4,176.7" style="fill:none;fill-rule:evenodd;stroke:#FF0000;stroke-width:2.0px;stroke-linecap:butt;stroke-linejoin:miter;stroke-opacity:1"/>
<path class="bond-11 atom-6 atom-12" d="M 165.8,102.6 L 134.8,93.9" style="fill:none;fill-rule:evenodd;stroke:#000000;stroke-width:2.0px;stroke-linecap:butt;stroke-linejoin:miter;stroke-opacity:1"/>
<path class="bond-12 atom-12 atom-13" d="M 134.8,93.9 L 111.8,116.4" style="fill:none;fill-rule:evenodd;stroke:#000000;stroke-width:2.0px;stroke-linecap:butt;stroke-linejoin:miter;stroke-opacity:1"/>
<path class="bond-13 atom-13 atom-14" d="M 111.8,116.4 L 80.8,107.7" style="fill:none;fill-rule:evenodd;stroke:#000000;stroke-width:2.0px;stroke-linecap:butt;stroke-linejoin:miter;stroke-opacity:1"/>
<path class="bond-14 atom-14 atom-15" d="M 80.8,107.7 L 57.8,130.2" style="fill:none;fill-rule:evenodd;stroke:#000000;stroke-width:2.0px;stroke-linecap:butt;stroke-linejoin:miter;stroke-opacity:1"/>
<path class="bond-15 atom-15 atom-16" d="M 57.8,130.2 L 44.9,126.6" style="fill:none;fill-rule:evenodd;stroke:#000000;stroke-width:2.0px;stroke-linecap:butt;stroke-linejoin:miter;stroke-opacity:1"/>
<path class="bond-15 atom-15 atom-16" d="M 44.9,126.6 L 32.0,123.0" style="fill:none;fill-rule:evenodd;stroke:#FF0000;stroke-width:2.0px;stroke-linecap:butt;stroke-linejoin:miter;stroke-opacity:1"/>
<path d="M 182.8,42.1 L 183.2,40.6 L 183.8,40.4" style="fill:none;stroke:#000000;stroke-width:2.0px;stroke-linecap:butt;stroke-linejoin:miter;stroke-opacity:1;"/>
<path d="M 195.3,110.8 L 196.8,111.3 L 197.2,112.8" style="fill:none;stroke:#000000;stroke-width:2.0px;stroke-linecap:butt;stroke-linejoin:miter;stroke-opacity:1;"/>
<path d="M 204.4,140.9 L 204.8,142.5 L 206.4,142.9" style="fill:none;stroke:#000000;stroke-width:2.0px;stroke-linecap:butt;stroke-linejoin:miter;stroke-opacity:1;"/>
<path d="M 234.3,150.7 L 235.8,151.1 L 236.0,151.8" style="fill:none;stroke:#000000;stroke-width:2.0px;stroke-linecap:butt;stroke-linejoin:miter;stroke-opacity:1;"/>
<path d="M 136.4,94.3 L 134.8,93.9 L 133.7,95.0" style="fill:none;stroke:#000000;stroke-width:2.0px;stroke-linecap:butt;stroke-linejoin:miter;stroke-opacity:1;"/>
<path d="M 112.9,115.3 L 111.8,116.4 L 110.2,116.0" style="fill:none;stroke:#000000;stroke-width:2.0px;stroke-linecap:butt;stroke-linejoin:miter;stroke-opacity:1;"/>
<path d="M 82.3,108.2 L 80.8,107.7 L 79.6,108.8" style="fill:none;stroke:#000000;stroke-width:2.0px;stroke-linecap:butt;stroke-linejoin:miter;stroke-opacity:1;"/>
<path d="M 58.9,129.1 L 57.8,130.2 L 57.1,130.1" style="fill:none;stroke:#000000;stroke-width:2.0px;stroke-linecap:butt;stroke-linejoin:miter;stroke-opacity:1;"/>
<path class="atom-4" d="M 156.5 17.6 Q 156.5 15.4, 157.6 14.1 Q 158.6 12.9, 160.7 12.9 Q 162.7 12.9, 163.8 14.1 Q 164.9 15.4, 164.9 17.6 Q 164.9 19.8, 163.8 21.0 Q 162.7 22.3, 160.7 22.3 Q 158.7 22.3, 157.6 21.0 Q 156.5 19.8, 156.5 17.6 M 160.7 21.3 Q 162.1 21.3, 162.8 20.3 Q 163.6 19.4, 163.6 17.6 Q 163.6 15.8, 162.8 14.9 Q 162.1 13.9, 160.7 13.9 Q 159.3 13.9, 158.5 14.8 Q 157.8 15.8, 157.8 17.6 Q 157.8 19.4, 158.5 20.3 Q 159.3 21.3, 160.7 21.3 " fill="#FF0000"/>
<path class="atom-5" d="M 210.2 32.6 Q 210.2 30.4, 211.3 29.2 Q 212.4 28.0, 214.4 28.0 Q 216.4 28.0, 217.5 29.2 Q 218.6 30.4, 218.6 32.6 Q 218.6 34.8, 217.5 36.1 Q 216.4 37.3, 214.4 37.3 Q 212.4 37.3, 211.3 36.1 Q 210.2 34.8, 210.2 32.6 M 214.4 36.3 Q 215.8 36.3, 216.5 35.4 Q 217.3 34.4, 217.3 32.6 Q 217.3 30.8, 216.5 29.9 Q 215.8 29.0, 214.4 29.0 Q 213.0 29.0, 212.2 29.9 Q 211.5 30.8, 211.5 32.6 Q 211.5 34.4, 212.2 35.4 Q 213.0 36.3, 214.4 36.3 " fill="#FF0000"/>
<path class="atom-5" d="M 220.0 28.1 L 221.2 28.1 L 221.2 31.9 L 225.9 31.9 L 225.9 28.1 L 227.1 28.1 L 227.1 37.2 L 225.9 37.2 L 225.9 33.0 L 221.2 33.0 L 221.2 37.2 L 220.0 37.2 L 220.0 28.1 " fill="#FF0000"/>
<path class="atom-7" d="M 153.0 133.6 Q 153.0 131.4, 154.0 130.2 Q 155.1 129.0, 157.1 129.0 Q 159.2 129.0, 160.2 130.2 Q 161.3 131.4, 161.3 133.6 Q 161.3 135.8, 160.2 137.1 Q 159.1 138.3, 157.1 138.3 Q 155.1 138.3, 154.0 137.1 Q 153.0 135.8, 153.0 133.6 M 157.1 137.3 Q 158.5 137.3, 159.3 136.4 Q 160.0 135.4, 160.0 133.6 Q 160.0 131.8, 159.3 130.9 Q 158.5 130.0, 157.1 130.0 Q 155.7 130.0, 155.0 130.9 Q 154.2 131.8, 154.2 133.6 Q 154.2 135.4, 155.0 136.4 Q 155.7 137.3, 157.1 137.3 " fill="#FF0000"/>
<path class="atom-7" d="M 162.7 129.1 L 164.0 129.1 L 164.0 132.9 L 168.6 132.9 L 168.6 129.1 L 169.9 129.1 L 169.9 138.2 L 168.6 138.2 L 168.6 134.0 L 164.0 134.0 L 164.0 138.2 L 162.7 138.2 L 162.7 129.1 " fill="#FF0000"/>
<path class="atom-11" d="M 239.6 182.4 Q 239.6 180.2, 240.7 178.9 Q 241.8 177.7, 243.8 177.7 Q 245.8 177.7, 246.9 178.9 Q 248.0 180.2, 248.0 182.4 Q 248.0 184.6, 246.9 185.8 Q 245.8 187.1, 243.8 187.1 Q 241.8 187.1, 240.7 185.8 Q 239.6 184.6, 239.6 182.4 M 243.8 186.1 Q 245.2 186.1, 245.9 185.1 Q 246.7 184.2, 246.7 182.4 Q 246.7 180.6, 245.9 179.7 Q 245.2 178.7, 243.8 178.7 Q 242.4 178.7, 241.7 179.7 Q 240.9 180.6, 240.9 182.4 Q 240.9 184.2, 241.7 185.1 Q 242.4 186.1, 243.8 186.1 " fill="#FF0000"/>
<path class="atom-11" d="M 249.4 177.8 L 250.7 177.8 L 250.7 181.7 L 255.3 181.7 L 255.3 177.8 L 256.6 177.8 L 256.6 186.9 L 255.3 186.9 L 255.3 182.7 L 250.7 182.7 L 250.7 186.9 L 249.4 186.9 L 249.4 177.8 " fill="#FF0000"/>
<path class="atom-16" d="M 13.5 117.0 L 14.8 117.0 L 14.8 120.9 L 19.4 120.9 L 19.4 117.0 L 20.7 117.0 L 20.7 126.2 L 19.4 126.2 L 19.4 121.9 L 14.8 121.9 L 14.8 126.2 L 13.5 126.2 L 13.5 117.0 " fill="#FF0000"/>
<path class="atom-16" d="M 22.6 121.6 Q 22.6 119.4, 23.6 118.2 Q 24.7 116.9, 26.7 116.9 Q 28.8 116.9, 29.8 118.2 Q 30.9 119.4, 30.9 121.6 Q 30.9 123.8, 29.8 125.1 Q 28.7 126.3, 26.7 126.3 Q 24.7 126.3, 23.6 125.1 Q 22.6 123.8, 22.6 121.6 M 26.7 125.3 Q 28.1 125.3, 28.9 124.3 Q 29.6 123.4, 29.6 121.6 Q 29.6 119.8, 28.9 118.9 Q 28.1 118.0, 26.7 118.0 Q 25.4 118.0, 24.6 118.9 Q 23.8 119.8, 23.8 121.6 Q 23.8 123.4, 24.6 124.3 Q 25.4 125.3, 26.7 125.3 " fill="#FF0000"/>
</g>
    <g transform="translate(558.0, 0) scale(1 1) "><line x1="15" y1="100" x2="25" y2="100" style="stroke:rgb(0,0,0);stroke-width:2"/>
  <line x1="20" y1="95" x2="20" y2="105" style="stroke:rgb(0,0,0);stroke-width:2"/>
</g>
    <g transform="translate(598.0, 0) scale(1 1) "><!-- END OF HEADER -->
<rect style="opacity:1.0;fill:#FFFFFF;stroke:none" width="215.0" height="200.0" x="0.0" y="0.0"> </rect>
<path class="bond-0 atom-0 atom-1" d="M 183.7,56.0 L 158.3,99.9" style="fill:none;fill-rule:evenodd;stroke:#000000;stroke-width:2.0px;stroke-linecap:butt;stroke-linejoin:miter;stroke-opacity:1"/>
<path class="bond-1 atom-1 atom-2" d="M 158.3,99.9 L 168.4,117.4" style="fill:none;fill-rule:evenodd;stroke:#000000;stroke-width:2.0px;stroke-linecap:butt;stroke-linejoin:miter;stroke-opacity:1"/>
<path class="bond-1 atom-1 atom-2" d="M 168.4,117.4 L 178.5,134.9" style="fill:none;fill-rule:evenodd;stroke:#FF0000;stroke-width:2.0px;stroke-linecap:butt;stroke-linejoin:miter;stroke-opacity:1"/>
<path class="bond-2 atom-1 atom-3" d="M 158.3,99.9 L 107.6,99.9" style="fill:none;fill-rule:evenodd;stroke:#000000;stroke-width:2.0px;stroke-linecap:butt;stroke-linejoin:miter;stroke-opacity:1"/>
<path class="bond-3 atom-3 atom-4" d="M 107.6,99.9 L 107.6,49.2" style="fill:none;fill-rule:evenodd;stroke:#000000;stroke-width:2.0px;stroke-linecap:butt;stroke-linejoin:miter;stroke-opacity:1"/>
<path class="bond-4 atom-3 atom-5" d="M 107.6,99.9 L 107.6,150.6" style="fill:none;fill-rule:evenodd;stroke:#000000;stroke-width:2.0px;stroke-linecap:butt;stroke-linejoin:miter;stroke-opacity:1"/>
<path class="bond-5 atom-3 atom-6" d="M 107.6,99.9 L 56.9,99.9" style="fill:none;fill-rule:evenodd;stroke:#000000;stroke-width:2.0px;stroke-linecap:butt;stroke-linejoin:miter;stroke-opacity:1"/>
<path class="bond-6 atom-6 atom-7" d="M 54.7,96.1 L 44.0,114.5" style="fill:none;fill-rule:evenodd;stroke:#000000;stroke-width:2.0px;stroke-linecap:butt;stroke-linejoin:miter;stroke-opacity:1"/>
<path class="bond-6 atom-6 atom-7" d="M 44.0,114.5 L 33.4,133.0" style="fill:none;fill-rule:evenodd;stroke:#FF0000;stroke-width:2.0px;stroke-linecap:butt;stroke-linejoin:miter;stroke-opacity:1"/>
<path class="bond-6 atom-6 atom-7" d="M 61.3,99.9 L 50.6,118.3" style="fill:none;fill-rule:evenodd;stroke:#000000;stroke-width:2.0px;stroke-linecap:butt;stroke-linejoin:miter;stroke-opacity:1"/>
<path class="bond-6 atom-6 atom-7" d="M 50.6,118.3 L 40.0,136.8" style="fill:none;fill-rule:evenodd;stroke:#FF0000;stroke-width:2.0px;stroke-linecap:butt;stroke-linejoin:miter;stroke-opacity:1"/>
<path class="bond-7 atom-6 atom-8" d="M 56.9,99.9 L 46.9,82.5" style="fill:none;fill-rule:evenodd;stroke:#000000;stroke-width:2.0px;stroke-linecap:butt;stroke-linejoin:miter;stroke-opacity:1"/>
<path class="bond-7 atom-6 atom-8" d="M 46.9,82.5 L 36.8,65.1" style="fill:none;fill-rule:evenodd;stroke:#FF0000;stroke-width:2.0px;stroke-linecap:butt;stroke-linejoin:miter;stroke-opacity:1"/>
<path d="M 59.4,99.9 L 56.9,99.9 L 56.4,99.0" style="fill:none;stroke:#000000;stroke-width:2.0px;stroke-linecap:butt;stroke-linejoin:miter;stroke-opacity:1;"/>
<path class="atom-2" d="M 177.1 143.9 Q 177.1 140.4, 178.8 138.5 Q 180.5 136.5, 183.7 136.5 Q 186.9 136.5, 188.6 138.5 Q 190.3 140.4, 190.3 143.9 Q 190.3 147.3, 188.6 149.3 Q 186.8 151.3, 183.7 151.3 Q 180.5 151.3, 178.8 149.3 Q 177.1 147.4, 177.1 143.9 M 183.7 149.7 Q 185.9 149.7, 187.0 148.2 Q 188.2 146.7, 188.2 143.9 Q 188.2 141.0, 187.0 139.6 Q 185.9 138.2, 183.7 138.2 Q 181.5 138.2, 180.3 139.6 Q 179.1 141.0, 179.1 143.9 Q 179.1 146.8, 180.3 148.2 Q 181.5 149.7, 183.7 149.7 " fill="#FF0000"/>
<path class="atom-2" d="M 192.5 136.7 L 194.5 136.7 L 194.5 142.8 L 201.8 142.8 L 201.8 136.7 L 203.7 136.7 L 203.7 151.1 L 201.8 151.1 L 201.8 144.4 L 194.5 144.4 L 194.5 151.1 L 192.5 151.1 L 192.5 136.7 " fill="#FF0000"/>
<path class="atom-7" d="M 24.9 143.9 Q 24.9 140.4, 26.6 138.5 Q 28.3 136.5, 31.5 136.5 Q 34.7 136.5, 36.4 138.5 Q 38.1 140.4, 38.1 143.9 Q 38.1 147.3, 36.4 149.3 Q 34.7 151.3, 31.5 151.3 Q 28.4 151.3, 26.6 149.3 Q 24.9 147.4, 24.9 143.9 M 31.5 149.7 Q 33.7 149.7, 34.9 148.2 Q 36.1 146.7, 36.1 143.9 Q 36.1 141.0, 34.9 139.6 Q 33.7 138.2, 31.5 138.2 Q 29.3 138.2, 28.1 139.6 Q 27.0 141.0, 27.0 143.9 Q 27.0 146.8, 28.1 148.2 Q 29.3 149.7, 31.5 149.7 " fill="#FF0000"/>
<path class="atom-8" d="M 10.7 48.9 L 12.7 48.9 L 12.7 55.0 L 20.0 55.0 L 20.0 48.9 L 22.0 48.9 L 22.0 63.2 L 20.0 63.2 L 20.0 56.6 L 12.7 56.6 L 12.7 63.2 L 10.7 63.2 L 10.7 48.9 " fill="#FF0000"/>
<path class="atom-8" d="M 24.9 56.0 Q 24.9 52.6, 26.6 50.6 Q 28.3 48.7, 31.5 48.7 Q 34.7 48.7, 36.4 50.6 Q 38.1 52.6, 38.1 56.0 Q 38.1 59.5, 36.4 61.5 Q 34.7 63.5, 31.5 63.5 Q 28.4 63.5, 26.6 61.5 Q 24.9 59.5, 24.9 56.0 M 31.5 61.8 Q 33.7 61.8, 34.9 60.4 Q 36.1 58.9, 36.1 56.0 Q 36.1 53.2, 34.9 51.8 Q 33.7 50.3, 31.5 50.3 Q 29.3 50.3, 28.1 51.7 Q 27.0 53.2, 27.0 56.0 Q 27.0 58.9, 28.1 60.4 Q 29.3 61.8, 31.5 61.8 " fill="#FF0000"/>
</g>
  </g>
</svg>
