<?xml version='1.0' encoding='ASCII' standalone='yes'?>
<svg xmlns="http://www.w3.org/2000/svg" xmlns:xlink="http://www.w3.org/1999/xlink" version="1.1" width="779.0px" viewBox="0 0 779.0 200.0" height="200.0px">
  <g>
    <g transform="translate(0, 0) scale(1 1) "><!-- END OF HEADER -->
<rect style="opacity:1.0;fill:#FFFFFF;stroke:none" width="233.0" height="200.0" x="0.0" y="0.0"> </rect>
<path class="bond-0 atom-0 atom-1" d="M 44.5,64.6 L 89.8,77.6" style="fill:none;fill-rule:evenodd;stroke:#000000;stroke-width:2.0px;stroke-linecap:butt;stroke-linejoin:miter;stroke-opacity:1"/>
<path class="bond-1 atom-1 atom-2" d="M 89.8,77.6 L 95.1,59.2" style="fill:none;fill-rule:evenodd;stroke:#000000;stroke-width:2.0px;stroke-linecap:butt;stroke-linejoin:miter;stroke-opacity:1"/>
<path class="bond-1 atom-1 atom-2" d="M 95.1,59.2 L 100.4,40.8" style="fill:none;fill-rule:evenodd;stroke:#FF0000;stroke-width:2.0px;stroke-linecap:butt;stroke-linejoin:miter;stroke-opacity:1"/>
<path class="bond-2 atom-1 atom-3" d="M 89.8,77.6 L 76.8,123.0" style="fill:none;fill-rule:evenodd;stroke:#000000;stroke-width:2.0px;stroke-linecap:butt;stroke-linejoin:miter;stroke-opacity:1"/>
<path class="bond-3 atom-3 atom-4" d="M 76.8,123.0 L 57.7,127.7" style="fill:none;fill-rule:evenodd;stroke:#000000;stroke-width:2.0px;stroke-linecap:butt;stroke-linejoin:miter;stroke-opacity:1"/>
<path class="bond-3 atom-3 atom-4" d="M 57.7,127.7 L 38.7,132.5" style="fill:none;fill-rule:evenodd;stroke:#FF0000;stroke-width:2.0px;stroke-linecap:butt;stroke-linejoin:miter;stroke-opacity:1"/>
<path class="bond-4 atom-1 atom-5" d="M 89.8,77.6 L 135.2,90.7" style="fill:none;fill-rule:evenodd;stroke:#000000;stroke-width:2.0px;stroke-linecap:butt;stroke-linejoin:miter;stroke-opacity:1"/>
<path class="bond-5 atom-5 atom-6" d="M 135.2,90.7 L 122.2,136.0" style="fill:none;fill-rule:evenodd;stroke:#000000;stroke-width:2.0px;stroke-linecap:butt;stroke-linejoin:miter;stroke-opacity:1"/>
<path class="bond-6 atom-5 atom-7" d="M 135.2,90.7 L 148.2,45.3" style="fill:none;fill-rule:evenodd;stroke:#000000;stroke-width:2.0px;stroke-linecap:butt;stroke-linejoin:miter;stroke-opacity:1"/>
<path class="bond-7 atom-5 atom-8" d="M 135.2,90.7 L 180.5,103.7" style="fill:none;fill-rule:evenodd;stroke:#000000;stroke-width:2.0px;stroke-linecap:butt;stroke-linejoin:miter;stroke-opacity:1"/>
<path class="bond-8 atom-8 atom-9" d="M 181.5,107.7 L 195.4,94.3" style="fill:none;fill-rule:evenodd;stroke:#000000;stroke-width:2.0px;stroke-linecap:butt;stroke-linejoin:miter;stroke-opacity:1"/>
<path class="bond-8 atom-8 atom-9" d="M 195.4,94.3 L 209.3,80.9" style="fill:none;fill-rule:evenodd;stroke:#FF0000;stroke-width:2.0px;stroke-linecap:butt;stroke-linejoin:miter;stroke-opacity:1"/>
<path class="bond-8 atom-8 atom-9" d="M 176.6,102.6 L 190.5,89.2" style="fill:none;fill-rule:evenodd;stroke:#000000;stroke-width:2.0px;stroke-linecap:butt;stroke-linejoin:miter;stroke-opacity:1"/>
<path class="bond-8 atom-8 atom-9" d="M 190.5,89.2 L 204.4,75.8" style="fill:none;fill-rule:evenodd;stroke:#FF0000;stroke-width:2.0px;stroke-linecap:butt;stroke-linejoin:miter;stroke-opacity:1"/>
<path class="bond-9 atom-8 atom-10" d="M 180.5,103.7 L 185.2,122.5" style="fill:none;fill-rule:evenodd;stroke:#000000;stroke-width:2.0px;stroke-linecap:butt;stroke-linejoin:miter;stroke-opacity:1"/>
<path class="bond-9 atom-8 atom-10" d="M 185.2,122.5 L 189.9,141.2" style="fill:none;fill-rule:evenodd;stroke:#FF0000;stroke-width:2.0px;stroke-linecap:butt;stroke-linejoin:miter;stroke-opacity:1"/>
<path d="M 77.4,120.7 L 76.8,123.0 L 75.8,123.2" style="fill:none;stroke:#000000;stroke-width:2.0px;stroke-linecap:butt;stroke-linejoin:miter;stroke-opacity:1;"/>
<path d="M 178.3,103.1 L 180.5,103.7 L 180.8,104.6" style="fill:none;stroke:#000000;stroke-width:2.0px;stroke-linecap:butt;stroke-linejoin:miter;stroke-opacity:1;"/>
<path class="atom-2" d="M 96.7 32.3 Q 96.7 29.1, 98.3 27.3 Q 99.9 25.5, 102.9 25.5 Q 105.8 25.5, 107.4 27.3 Q 109.0 29.1, 109.0 32.3 Q 109.0 35.6, 107.4 37.4 Q 105.8 39.2, 102.9 39.2 Q 99.9 39.2, 98.3 37.4 Q 96.7 35.6, 96.7 32.3 M 102.9 37.7 Q 104.9 37.7, 106.0 36.4 Q 107.1 35.0, 107.1 32.3 Q 107.1 29.7, 106.0 28.4 Q 104.9 27.0, 102.9 27.0 Q 100.8 27.0, 99.7 28.4 Q 98.6 29.7, 98.6 32.3 Q 98.6 35.0, 99.7 36.4 Q 100.8 37.7, 102.9 37.7 " fill="#FF0000"/>
<path class="atom-2" d="M 111.1 25.7 L 112.9 25.7 L 112.9 31.4 L 119.7 31.4 L 119.7 25.7 L 121.5 25.7 L 121.5 39.0 L 119.7 39.0 L 119.7 32.9 L 112.9 32.9 L 112.9 39.0 L 111.1 39.0 L 111.1 25.7 " fill="#FF0000"/>
<path class="atom-4" d="M 11.6 127.8 L 13.5 127.8 L 13.5 133.5 L 20.3 133.5 L 20.3 127.8 L 22.1 127.8 L 22.1 141.2 L 20.3 141.2 L 20.3 135.0 L 13.5 135.0 L 13.5 141.2 L 11.6 141.2 L 11.6 127.8 " fill="#FF0000"/>
<path class="atom-4" d="M 24.9 134.4 Q 24.9 131.2, 26.4 129.4 Q 28.0 127.6, 31.0 127.6 Q 33.9 127.6, 35.5 129.4 Q 37.1 131.2, 37.1 134.4 Q 37.1 137.7, 35.5 139.5 Q 33.9 141.4, 31.0 141.4 Q 28.0 141.4, 26.4 139.5 Q 24.9 137.7, 24.9 134.4 M 31.0 139.9 Q 33.0 139.9, 34.1 138.5 Q 35.2 137.1, 35.2 134.4 Q 35.2 131.8, 34.1 130.5 Q 33.0 129.2, 31.0 129.2 Q 28.9 129.2, 27.8 130.5 Q 26.7 131.8, 26.7 134.4 Q 26.7 137.1, 27.8 138.5 Q 28.9 139.9, 31.0 139.9 " fill="#FF0000"/>
<path class="atom-9" d="M 208.4 71.0 Q 208.4 67.8, 210.0 66.0 Q 211.6 64.2, 214.5 64.2 Q 217.5 64.2, 219.1 66.0 Q 220.7 67.8, 220.7 71.0 Q 220.7 74.2, 219.0 76.1 Q 217.4 77.9, 214.5 77.9 Q 211.6 77.9, 210.0 76.1 Q 208.4 74.2, 208.4 71.0 M 214.5 76.4 Q 216.6 76.4, 217.6 75.0 Q 218.8 73.7, 218.8 71.0 Q 218.8 68.4, 217.6 67.0 Q 216.6 65.7, 214.5 65.7 Q 212.5 65.7, 211.4 67.0 Q 210.3 68.3, 210.3 71.0 Q 210.3 73.7, 211.4 75.0 Q 212.5 76.4, 214.5 76.4 " fill="#FF0000"/>
<path class="atom-10" d="M 185.8 149.5 Q 185.8 146.3, 187.4 144.5 Q 189.0 142.8, 191.9 142.8 Q 194.9 142.8, 196.5 144.5 Q 198.1 146.3, 198.1 149.5 Q 198.1 152.8, 196.5 154.6 Q 194.9 156.5, 191.9 156.5 Q 189.0 156.5, 187.4 154.6 Q 185.8 152.8, 185.8 149.5 M 191.9 155.0 Q 194.0 155.0, 195.1 153.6 Q 196.2 152.2, 196.2 149.5 Q 196.2 146.9, 195.1 145.6 Q 194.0 144.3, 191.9 144.3 Q 189.9 144.3, 188.8 145.6 Q 187.7 146.9, 187.7 149.5 Q 187.7 152.2, 188.8 153.6 Q 189.9 155.0, 191.9 155.0 " fill="#FF0000"/>
<path class="atom-10" d="M 200.2 142.9 L 202.0 142.9 L 202.0 148.6 L 208.8 148.6 L 208.8 142.9 L 210.6 142.9 L 210.6 156.3 L 208.8 156.3 L 208.8 150.1 L 202.0 150.1 L 202.0 156.3 L 200.2 156.3 L 200.2 142.9 " fill="#FF0000"/>
<path class="legend" d="M 107.1 181.9 Q 107.1 179.6, 107.8 177.7 Q 108.5 175.8, 109.8 173.8 L 110.7 174.4 Q 109.6 176.3, 109.1 178.0 Q 108.6 179.7, 108.6 181.9 Q 108.6 184.0, 109.1 185.8 Q 109.6 187.5, 110.7 189.4 L 109.8 190.0 Q 108.5 188.0, 107.8 186.1 Q 107.1 184.2, 107.1 181.9 " fill="#000000"/>
<path class="legend" d="M 111.6 177.3 Q 112.0 176.2, 113.0 175.6 Q 114.0 175.0, 115.4 175.0 Q 117.1 175.0, 118.0 175.9 Q 119.0 176.8, 119.0 178.5 Q 119.0 180.2, 117.7 181.7 Q 116.5 183.3, 114.0 185.2 L 119.2 185.2 L 119.2 186.4 L 111.6 186.4 L 111.6 185.4 Q 113.7 183.9, 114.9 182.8 Q 116.2 181.6, 116.8 180.6 Q 117.4 179.6, 117.4 178.6 Q 117.4 177.5, 116.9 176.9 Q 116.3 176.3, 115.4 176.3 Q 114.5 176.3, 113.8 176.6 Q 113.2 177.0, 112.8 177.8 L 111.6 177.3 " fill="#000000"/>
<path class="legend" d="M 124.2 181.9 Q 124.2 184.2, 123.5 186.1 Q 122.8 188.0, 121.5 190.0 L 120.6 189.4 Q 121.7 187.5, 122.2 185.8 Q 122.7 184.0, 122.7 181.9 Q 122.7 179.7, 122.2 178.0 Q 121.7 176.3, 120.6 174.4 L 121.5 173.8 Q 122.8 175.8, 123.5 177.7 Q 124.2 179.6, 124.2 181.9 " fill="#000000"/>
</g>
    <g transform="translate(233.0, 0) scale(1 1) "><line x1="5" y1="100" x2="35" y2="100" style="stroke:rgb(0,0,0);stroke-width:2"/>
  <line x1="34" y1="100" x2="29" y2="95" style="stroke:rgb(0,0,0);stroke-width:2"/>
  <line x1="34" y1="100" x2="29" y2="105" style="stroke:rgb(0,0,0);stroke-width:2"/>
</g>
    <g transform="translate(273.0, 0) scale(1 1) "><!-- END OF HEADER -->
<rect style="opacity:1.0;fill:#FFFFFF;stroke:none" width="233.0" height="200.0" x="0.0" y="0.0"> </rect>
<path class="bond-0 atom-0 atom-1" d="M 42.6,75.1 L 85.4,87.4" style="fill:none;fill-rule:evenodd;stroke:#000000;stroke-width:2.0px;stroke-linecap:butt;stroke-linejoin:miter;stroke-opacity:1"/>
<path class="bond-1 atom-1 atom-2" d="M 85.4,87.4 L 90.4,70.0" style="fill:none;fill-rule:evenodd;stroke:#000000;stroke-width:2.0px;stroke-linecap:butt;stroke-linejoin:miter;stroke-opacity:1"/>
<path class="bond-1 atom-1 atom-2" d="M 90.4,70.0 L 95.4,52.6" style="fill:none;fill-rule:evenodd;stroke:#FF0000;stroke-width:2.0px;stroke-linecap:butt;stroke-linejoin:miter;stroke-opacity:1"/>
<path class="bond-2 atom-1 atom-3" d="M 85.4,87.4 L 73.1,130.2" style="fill:none;fill-rule:evenodd;stroke:#000000;stroke-width:2.0px;stroke-linecap:butt;stroke-linejoin:miter;stroke-opacity:1"/>
<path class="bond-3 atom-3 atom-4" d="M 73.1,130.2 L 55.1,134.7" style="fill:none;fill-rule:evenodd;stroke:#000000;stroke-width:2.0px;stroke-linecap:butt;stroke-linejoin:miter;stroke-opacity:1"/>
<path class="bond-3 atom-3 atom-4" d="M 55.1,134.7 L 37.1,139.1" style="fill:none;fill-rule:evenodd;stroke:#FF0000;stroke-width:2.0px;stroke-linecap:butt;stroke-linejoin:miter;stroke-opacity:1"/>
<path class="bond-4 atom-1 atom-5" d="M 85.4,87.4 L 128.2,99.7" style="fill:none;fill-rule:evenodd;stroke:#000000;stroke-width:2.0px;stroke-linecap:butt;stroke-linejoin:miter;stroke-opacity:1"/>
<path class="bond-5 atom-5 atom-6" d="M 128.2,99.7 L 115.9,142.5" style="fill:none;fill-rule:evenodd;stroke:#000000;stroke-width:2.0px;stroke-linecap:butt;stroke-linejoin:miter;stroke-opacity:1"/>
<path class="bond-6 atom-5 atom-7" d="M 128.2,99.7 L 140.5,56.9" style="fill:none;fill-rule:evenodd;stroke:#000000;stroke-width:2.0px;stroke-linecap:butt;stroke-linejoin:miter;stroke-opacity:1"/>
<path class="bond-7 atom-5 atom-8" d="M 128.2,99.7 L 171.0,112.0" style="fill:none;fill-rule:evenodd;stroke:#000000;stroke-width:2.0px;stroke-linecap:butt;stroke-linejoin:miter;stroke-opacity:1"/>
<path class="bond-8 atom-8 atom-9" d="M 171.0,112.0 L 175.4,129.7" style="fill:none;fill-rule:evenodd;stroke:#000000;stroke-width:2.0px;stroke-linecap:butt;stroke-linejoin:miter;stroke-opacity:1"/>
<path class="bond-8 atom-8 atom-9" d="M 175.4,129.7 L 179.8,147.4" style="fill:none;fill-rule:evenodd;stroke:#FF0000;stroke-width:2.0px;stroke-linecap:butt;stroke-linejoin:miter;stroke-opacity:1"/>
<path class="bond-9 atom-8 atom-10" d="M 171.0,112.0 L 183.4,100.0" style="fill:none;fill-rule:evenodd;stroke:#000000;stroke-width:2.0px;stroke-linecap:butt;stroke-linejoin:miter;stroke-opacity:1"/>
<path class="bond-9 atom-8 atom-10" d="M 183.4,100.0 L 195.8,88.1" style="fill:none;fill-rule:evenodd;stroke:#FF0000;stroke-width:2.0px;stroke-linecap:butt;stroke-linejoin:miter;stroke-opacity:1"/>
<path d="M 73.7,128.1 L 73.1,130.2 L 72.2,130.4" style="fill:none;stroke:#000000;stroke-width:2.0px;stroke-linecap:butt;stroke-linejoin:miter;stroke-opacity:1;"/>
<path class="atom-2" d="M 91.9 44.6 Q 91.9 41.6, 93.4 39.9 Q 94.9 38.2, 97.7 38.2 Q 100.5 38.2, 102.0 39.9 Q 103.5 41.6, 103.5 44.6 Q 103.5 47.7, 102.0 49.4 Q 100.5 51.2, 97.7 51.2 Q 94.9 51.2, 93.4 49.4 Q 91.9 47.7, 91.9 44.6 M 97.7 49.8 Q 99.6 49.8, 100.6 48.5 Q 101.7 47.2, 101.7 44.6 Q 101.7 42.2, 100.6 40.9 Q 99.6 39.7, 97.7 39.7 Q 95.8 39.7, 94.7 40.9 Q 93.7 42.1, 93.7 44.6 Q 93.7 47.2, 94.7 48.5 Q 95.8 49.8, 97.7 49.8 " fill="#FF0000"/>
<path class="atom-2" d="M 105.4 38.4 L 107.2 38.4 L 107.2 43.7 L 113.6 43.7 L 113.6 38.4 L 115.3 38.4 L 115.3 51.0 L 113.6 51.0 L 113.6 45.2 L 107.2 45.2 L 107.2 51.0 L 105.4 51.0 L 105.4 38.4 " fill="#FF0000"/>
<path class="atom-4" d="M 11.6 134.7 L 13.4 134.7 L 13.4 140.1 L 19.8 140.1 L 19.8 134.7 L 21.5 134.7 L 21.5 147.3 L 19.8 147.3 L 19.8 141.5 L 13.4 141.5 L 13.4 147.3 L 11.6 147.3 L 11.6 134.7 " fill="#FF0000"/>
<path class="atom-4" d="M 24.1 141.0 Q 24.1 138.0, 25.6 136.3 Q 27.1 134.6, 29.9 134.6 Q 32.7 134.6, 34.2 136.3 Q 35.7 138.0, 35.7 141.0 Q 35.7 144.0, 34.2 145.8 Q 32.7 147.5, 29.9 147.5 Q 27.1 147.5, 25.6 145.8 Q 24.1 144.1, 24.1 141.0 M 29.9 146.1 Q 31.8 146.1, 32.8 144.8 Q 33.9 143.5, 33.9 141.0 Q 33.9 138.5, 32.8 137.3 Q 31.8 136.0, 29.9 136.0 Q 28.0 136.0, 26.9 137.2 Q 25.9 138.5, 25.9 141.0 Q 25.9 143.5, 26.9 144.8 Q 28.0 146.1, 29.9 146.1 " fill="#FF0000"/>
<path class="atom-9" d="M 175.9 155.2 Q 175.9 152.2, 177.4 150.5 Q 178.9 148.8, 181.7 148.8 Q 184.5 148.8, 186.0 150.5 Q 187.5 152.2, 187.5 155.2 Q 187.5 158.3, 186.0 160.0 Q 184.5 161.8, 181.7 161.8 Q 179.0 161.8, 177.4 160.0 Q 175.9 158.3, 175.9 155.2 M 181.7 160.3 Q 183.7 160.3, 184.7 159.1 Q 185.7 157.8, 185.7 155.2 Q 185.7 152.8, 184.7 151.5 Q 183.7 150.2, 181.7 150.2 Q 179.8 150.2, 178.8 151.5 Q 177.7 152.7, 177.7 155.2 Q 177.7 157.8, 178.8 159.1 Q 179.8 160.3, 181.7 160.3 " fill="#FF0000"/>
<path class="atom-9" d="M 189.5 149.0 L 191.2 149.0 L 191.2 154.3 L 197.6 154.3 L 197.6 149.0 L 199.4 149.0 L 199.4 161.6 L 197.6 161.6 L 197.6 155.8 L 191.2 155.8 L 191.2 161.6 L 189.5 161.6 L 189.5 149.0 " fill="#FF0000"/>
<path class="atom-10" d="M 197.2 81.1 Q 197.2 78.1, 198.7 76.4 Q 200.2 74.7, 203.0 74.7 Q 205.8 74.7, 207.3 76.4 Q 208.8 78.1, 208.8 81.1 Q 208.8 84.2, 207.3 85.9 Q 205.8 87.6, 203.0 87.6 Q 200.3 87.6, 198.7 85.9 Q 197.2 84.2, 197.2 81.1 M 203.0 86.2 Q 205.0 86.2, 206.0 84.9 Q 207.0 83.6, 207.0 81.1 Q 207.0 78.6, 206.0 77.4 Q 205.0 76.1, 203.0 76.1 Q 201.1 76.1, 200.1 77.4 Q 199.0 78.6, 199.0 81.1 Q 199.0 83.7, 200.1 84.9 Q 201.1 86.2, 203.0 86.2 " fill="#FF0000"/>
<path class="atom-10" d="M 210.8 74.8 L 212.5 74.8 L 212.5 80.2 L 218.9 80.2 L 218.9 74.8 L 220.7 74.8 L 220.7 87.5 L 218.9 87.5 L 218.9 81.6 L 212.5 81.6 L 212.5 87.5 L 210.8 87.5 L 210.8 74.8 " fill="#FF0000"/>
</g>
    <g transform="translate(506.0, 0) scale(1 1) "><line x1="15" y1="100" x2="25" y2="100" style="stroke:rgb(0,0,0);stroke-width:2"/>
  <line x1="20" y1="95" x2="20" y2="105" style="stroke:rgb(0,0,0);stroke-width:2"/>
</g>
    <g transform="translate(546.0, 0) scale(1 1) "><!-- END OF HEADER -->
<rect style="opacity:1.0;fill:#FFFFFF;stroke:none" width="233.0" height="200.0" x="0.0" y="0.0"> </rect>
<path class="bond-0 atom-0 atom-1" d="M 33.4,72.0 L 81.6,85.8" style="fill:none;fill-rule:evenodd;stroke:#000000;stroke-width:2.0px;stroke-linecap:butt;stroke-linejoin:miter;stroke-opacity:1"/>
<path class="bond-1 atom-1 atom-2" d="M 81.6,85.8 L 87.2,66.2" style="fill:none;fill-rule:evenodd;stroke:#000000;stroke-width:2.0px;stroke-linecap:butt;stroke-linejoin:miter;stroke-opacity:1"/>
<path class="bond-1 atom-1 atom-2" d="M 87.2,66.2 L 92.9,46.7" style="fill:none;fill-rule:evenodd;stroke:#FF0000;stroke-width:2.0px;stroke-linecap:butt;stroke-linejoin:miter;stroke-opacity:1"/>
<path class="bond-2 atom-1 atom-3" d="M 81.6,85.8 L 67.8,134.0" style="fill:none;fill-rule:evenodd;stroke:#000000;stroke-width:2.0px;stroke-linecap:butt;stroke-linejoin:miter;stroke-opacity:1"/>
<path class="bond-3 atom-3 atom-4" d="M 67.8,134.0 L 47.5,139.1" style="fill:none;fill-rule:evenodd;stroke:#000000;stroke-width:2.0px;stroke-linecap:butt;stroke-linejoin:miter;stroke-opacity:1"/>
<path class="bond-3 atom-3 atom-4" d="M 47.5,139.1 L 27.3,144.1" style="fill:none;fill-rule:evenodd;stroke:#FF0000;stroke-width:2.0px;stroke-linecap:butt;stroke-linejoin:miter;stroke-opacity:1"/>
<path class="bond-3 atom-3 atom-4" d="M 61.7,127.8 L 45.7,131.8" style="fill:none;fill-rule:evenodd;stroke:#000000;stroke-width:2.0px;stroke-linecap:butt;stroke-linejoin:miter;stroke-opacity:1"/>
<path class="bond-3 atom-3 atom-4" d="M 45.7,131.8 L 25.4,136.8" style="fill:none;fill-rule:evenodd;stroke:#FF0000;stroke-width:2.0px;stroke-linecap:butt;stroke-linejoin:miter;stroke-opacity:1"/>
<path class="bond-4 atom-1 atom-5" d="M 81.6,85.8 L 129.8,99.7" style="fill:none;fill-rule:evenodd;stroke:#000000;stroke-width:2.0px;stroke-linecap:butt;stroke-linejoin:miter;stroke-opacity:1"/>
<path class="bond-5 atom-5 atom-6" d="M 129.8,99.7 L 116.0,147.9" style="fill:none;fill-rule:evenodd;stroke:#000000;stroke-width:2.0px;stroke-linecap:butt;stroke-linejoin:miter;stroke-opacity:1"/>
<path class="bond-6 atom-5 atom-7" d="M 129.8,99.7 L 143.7,51.4" style="fill:none;fill-rule:evenodd;stroke:#000000;stroke-width:2.0px;stroke-linecap:butt;stroke-linejoin:miter;stroke-opacity:1"/>
<path class="bond-7 atom-5 atom-8" d="M 129.8,99.7 L 178.0,113.5" style="fill:none;fill-rule:evenodd;stroke:#000000;stroke-width:2.0px;stroke-linecap:butt;stroke-linejoin:miter;stroke-opacity:1"/>
<path class="bond-8 atom-8 atom-9" d="M 179.1,117.7 L 193.8,103.5" style="fill:none;fill-rule:evenodd;stroke:#000000;stroke-width:2.0px;stroke-linecap:butt;stroke-linejoin:miter;stroke-opacity:1"/>
<path class="bond-8 atom-8 atom-9" d="M 193.8,103.5 L 208.6,89.3" style="fill:none;fill-rule:evenodd;stroke:#FF0000;stroke-width:2.0px;stroke-linecap:butt;stroke-linejoin:miter;stroke-opacity:1"/>
<path class="bond-8 atom-8 atom-9" d="M 173.9,112.3 L 188.6,98.1" style="fill:none;fill-rule:evenodd;stroke:#000000;stroke-width:2.0px;stroke-linecap:butt;stroke-linejoin:miter;stroke-opacity:1"/>
<path class="bond-8 atom-8 atom-9" d="M 188.6,98.1 L 203.3,83.9" style="fill:none;fill-rule:evenodd;stroke:#FF0000;stroke-width:2.0px;stroke-linecap:butt;stroke-linejoin:miter;stroke-opacity:1"/>
<path class="bond-9 atom-8 atom-10" d="M 178.0,113.5 L 183.0,133.4" style="fill:none;fill-rule:evenodd;stroke:#000000;stroke-width:2.0px;stroke-linecap:butt;stroke-linejoin:miter;stroke-opacity:1"/>
<path class="bond-9 atom-8 atom-10" d="M 183.0,133.4 L 187.9,153.3" style="fill:none;fill-rule:evenodd;stroke:#FF0000;stroke-width:2.0px;stroke-linecap:butt;stroke-linejoin:miter;stroke-opacity:1"/>
<path d="M 68.4,131.6 L 67.8,134.0 L 66.7,134.3" style="fill:none;stroke:#000000;stroke-width:2.0px;stroke-linecap:butt;stroke-linejoin:miter;stroke-opacity:1;"/>
<path d="M 175.6,112.8 L 178.0,113.5 L 178.3,114.5" style="fill:none;stroke:#000000;stroke-width:2.0px;stroke-linecap:butt;stroke-linejoin:miter;stroke-opacity:1;"/>
<path class="atom-2" d="M 88.9 37.6 Q 88.9 34.2, 90.6 32.3 Q 92.3 30.4, 95.5 30.4 Q 98.6 30.4, 100.3 32.3 Q 102.0 34.2, 102.0 37.6 Q 102.0 41.1, 100.3 43.1 Q 98.6 45.0, 95.5 45.0 Q 92.3 45.0, 90.6 43.1 Q 88.9 41.1, 88.9 37.6 M 95.5 43.4 Q 97.6 43.4, 98.8 41.9 Q 100.0 40.5, 100.0 37.6 Q 100.0 34.8, 98.8 33.4 Q 97.6 32.0, 95.5 32.0 Q 93.3 32.0, 92.1 33.4 Q 90.9 34.8, 90.9 37.6 Q 90.9 40.5, 92.1 41.9 Q 93.3 43.4, 95.5 43.4 " fill="#FF0000"/>
<path class="atom-2" d="M 104.2 30.6 L 106.1 30.6 L 106.1 36.6 L 113.4 36.6 L 113.4 30.6 L 115.3 30.6 L 115.3 44.8 L 113.4 44.8 L 113.4 38.2 L 106.1 38.2 L 106.1 44.8 L 104.2 44.8 L 104.2 30.6 " fill="#FF0000"/>
<path class="atom-4" d="M 11.6 142.5 Q 11.6 139.1, 13.3 137.2 Q 15.0 135.3, 18.2 135.3 Q 21.3 135.3, 23.0 137.2 Q 24.7 139.1, 24.7 142.5 Q 24.7 146.0, 23.0 147.9 Q 21.3 149.9, 18.2 149.9 Q 15.0 149.9, 13.3 147.9 Q 11.6 146.0, 11.6 142.5 M 18.2 148.3 Q 20.3 148.3, 21.5 146.8 Q 22.7 145.4, 22.7 142.5 Q 22.7 139.7, 21.5 138.3 Q 20.3 136.9, 18.2 136.9 Q 16.0 136.9, 14.8 138.3 Q 13.7 139.7, 13.7 142.5 Q 13.7 145.4, 14.8 146.8 Q 16.0 148.3, 18.2 148.3 " fill="#FF0000"/>
<path class="atom-9" d="M 207.6 78.7 Q 207.6 75.3, 209.3 73.4 Q 211.0 71.5, 214.1 71.5 Q 217.3 71.5, 219.0 73.4 Q 220.6 75.3, 220.6 78.7 Q 220.6 82.2, 218.9 84.1 Q 217.2 86.1, 214.1 86.1 Q 211.0 86.1, 209.3 84.1 Q 207.6 82.2, 207.6 78.7 M 214.1 84.5 Q 216.3 84.5, 217.5 83.0 Q 218.6 81.6, 218.6 78.7 Q 218.6 75.9, 217.5 74.5 Q 216.3 73.1, 214.1 73.1 Q 212.0 73.1, 210.8 74.5 Q 209.6 75.9, 209.6 78.7 Q 209.6 81.6, 210.8 83.0 Q 212.0 84.5, 214.1 84.5 " fill="#FF0000"/>
<path class="atom-10" d="M 183.6 162.2 Q 183.6 158.8, 185.3 156.9 Q 187.0 155.0, 190.1 155.0 Q 193.3 155.0, 195.0 156.9 Q 196.7 158.8, 196.7 162.2 Q 196.7 165.7, 195.0 167.6 Q 193.2 169.6, 190.1 169.6 Q 187.0 169.6, 185.3 167.6 Q 183.6 165.7, 183.6 162.2 M 190.1 168.0 Q 192.3 168.0, 193.5 166.5 Q 194.7 165.1, 194.7 162.2 Q 194.7 159.4, 193.5 158.0 Q 192.3 156.6, 190.1 156.6 Q 188.0 156.6, 186.8 158.0 Q 185.6 159.4, 185.6 162.2 Q 185.6 165.1, 186.8 166.5 Q 188.0 168.0, 190.1 168.0 " fill="#FF0000"/>
<path class="atom-10" d="M 198.9 155.2 L 200.8 155.2 L 200.8 161.2 L 208.1 161.2 L 208.1 155.2 L 210.0 155.2 L 210.0 169.4 L 208.1 169.4 L 208.1 162.8 L 200.8 162.8 L 200.8 169.4 L 198.9 169.4 L 198.9 155.2 " fill="#FF0000"/>
</g>
  </g>
</svg>
