<?xml version='1.0' encoding='ASCII' standalone='yes'?>
<svg xmlns="http://www.w3.org/2000/svg" xmlns:xlink="http://www.w3.org/1999/xlink" version="1.1" width="931.0px" viewBox="0 0 931.0 200.0" height="200.0px">
  <g>
    <g transform="translate(0, 0) scale(1 1) "><!-- END OF HEADER -->
<rect style="opacity:1.0;fill:#FFFFFF;stroke:none" width="301.0" height="200.0" x="0.0" y="0.0"> </rect>
<path class="bond-0 atom-0 atom-1" d="M 197.0,33.5 L 223.3,42.6" style="fill:none;fill-rule:evenodd;stroke:#000000;stroke-width:2.0px;stroke-linecap:butt;stroke-linejoin:miter;stroke-opacity:1"/>
<path class="bond-1 atom-1 atom-2" d="M 223.3,42.6 L 228.5,70.0" style="fill:none;fill-rule:evenodd;stroke:#000000;stroke-width:2.0px;stroke-linecap:butt;stroke-linejoin:miter;stroke-opacity:1"/>
<path class="bond-2 atom-2 atom-3" d="M 228.5,70.0 L 233.8,97.3" style="fill:none;fill-rule:evenodd;stroke:#000000;stroke-width:2.0px;stroke-linecap:butt;stroke-linejoin:miter;stroke-opacity:1"/>
<path class="bond-3 atom-2 atom-4" d="M 228.5,70.0 L 255.8,64.7" style="fill:none;fill-rule:evenodd;stroke:#000000;stroke-width:2.0px;stroke-linecap:butt;stroke-linejoin:miter;stroke-opacity:1"/>
<path class="bond-4 atom-4 atom-5" d="M 255.8,64.7 L 262.8,72.8" style="fill:none;fill-rule:evenodd;stroke:#000000;stroke-width:2.0px;stroke-linecap:butt;stroke-linejoin:miter;stroke-opacity:1"/>
<path class="bond-4 atom-4 atom-5" d="M 262.8,72.8 L 269.8,80.8" style="fill:none;fill-rule:evenodd;stroke:#FF0000;stroke-width:2.0px;stroke-linecap:butt;stroke-linejoin:miter;stroke-opacity:1"/>
<path class="bond-5 atom-2 atom-6" d="M 228.5,70.0 L 201.2,75.2" style="fill:none;fill-rule:evenodd;stroke:#000000;stroke-width:2.0px;stroke-linecap:butt;stroke-linejoin:miter;stroke-opacity:1"/>
<path class="bond-6 atom-6 atom-7" d="M 201.2,75.2 L 192.1,101.5" style="fill:none;fill-rule:evenodd;stroke:#000000;stroke-width:2.0px;stroke-linecap:butt;stroke-linejoin:miter;stroke-opacity:1"/>
<path class="bond-7 atom-7 atom-8" d="M 192.1,101.5 L 164.8,106.7" style="fill:none;fill-rule:evenodd;stroke:#000000;stroke-width:2.0px;stroke-linecap:butt;stroke-linejoin:miter;stroke-opacity:1"/>
<path class="bond-8 atom-8 atom-9" d="M 164.8,106.7 L 159.5,79.4" style="fill:none;fill-rule:evenodd;stroke:#000000;stroke-width:2.0px;stroke-linecap:butt;stroke-linejoin:miter;stroke-opacity:1"/>
<path class="bond-9 atom-9 atom-10" d="M 159.5,79.4 L 148.7,75.6" style="fill:none;fill-rule:evenodd;stroke:#000000;stroke-width:2.0px;stroke-linecap:butt;stroke-linejoin:miter;stroke-opacity:1"/>
<path class="bond-9 atom-9 atom-10" d="M 148.7,75.6 L 137.8,71.9" style="fill:none;fill-rule:evenodd;stroke:#FF0000;stroke-width:2.0px;stroke-linecap:butt;stroke-linejoin:miter;stroke-opacity:1"/>
<path class="bond-10 atom-8 atom-11" d="M 164.8,106.7 L 137.5,112.0" style="fill:none;fill-rule:evenodd;stroke:#000000;stroke-width:2.0px;stroke-linecap:butt;stroke-linejoin:miter;stroke-opacity:1"/>
<path class="bond-11 atom-11 atom-12" d="M 137.5,112.0 L 119.3,90.9" style="fill:none;fill-rule:evenodd;stroke:#000000;stroke-width:2.0px;stroke-linecap:butt;stroke-linejoin:miter;stroke-opacity:1"/>
<path class="bond-12 atom-12 atom-13" d="M 119.3,90.9 L 92.0,96.2" style="fill:none;fill-rule:evenodd;stroke:#000000;stroke-width:2.0px;stroke-linecap:butt;stroke-linejoin:miter;stroke-opacity:1"/>
<path class="bond-13 atom-13 atom-14" d="M 92.0,96.2 L 73.8,75.2" style="fill:none;fill-rule:evenodd;stroke:#000000;stroke-width:2.0px;stroke-linecap:butt;stroke-linejoin:miter;stroke-opacity:1"/>
<path class="bond-14 atom-14 atom-15" d="M 73.8,75.2 L 55.6,54.1" style="fill:none;fill-rule:evenodd;stroke:#000000;stroke-width:2.0px;stroke-linecap:butt;stroke-linejoin:miter;stroke-opacity:1"/>
<path class="bond-15 atom-14 atom-16" d="M 73.8,75.2 L 94.8,57.0" style="fill:none;fill-rule:evenodd;stroke:#000000;stroke-width:2.0px;stroke-linecap:butt;stroke-linejoin:miter;stroke-opacity:1"/>
<path class="bond-16 atom-16 atom-17" d="M 94.8,57.0 L 92.6,45.8" style="fill:none;fill-rule:evenodd;stroke:#000000;stroke-width:2.0px;stroke-linecap:butt;stroke-linejoin:miter;stroke-opacity:1"/>
<path class="bond-16 atom-16 atom-17" d="M 92.6,45.8 L 90.5,34.7" style="fill:none;fill-rule:evenodd;stroke:#FF0000;stroke-width:2.0px;stroke-linecap:butt;stroke-linejoin:miter;stroke-opacity:1"/>
<path class="bond-17 atom-14 atom-18" d="M 73.8,75.2 L 52.7,93.4" style="fill:none;fill-rule:evenodd;stroke:#000000;stroke-width:2.0px;stroke-linecap:butt;stroke-linejoin:miter;stroke-opacity:1"/>
<path class="bond-18 atom-18 atom-19" d="M 50.4,92.6 L 52.7,104.4" style="fill:none;fill-rule:evenodd;stroke:#000000;stroke-width:2.0px;stroke-linecap:butt;stroke-linejoin:miter;stroke-opacity:1"/>
<path class="bond-18 atom-18 atom-19" d="M 52.7,104.4 L 55.0,116.2" style="fill:none;fill-rule:evenodd;stroke:#FF0000;stroke-width:2.0px;stroke-linecap:butt;stroke-linejoin:miter;stroke-opacity:1"/>
<path class="bond-18 atom-18 atom-19" d="M 54.5,91.8 L 56.8,103.6" style="fill:none;fill-rule:evenodd;stroke:#000000;stroke-width:2.0px;stroke-linecap:butt;stroke-linejoin:miter;stroke-opacity:1"/>
<path class="bond-18 atom-18 atom-19" d="M 56.8,103.6 L 59.1,115.4" style="fill:none;fill-rule:evenodd;stroke:#FF0000;stroke-width:2.0px;stroke-linecap:butt;stroke-linejoin:miter;stroke-opacity:1"/>
<path class="bond-19 atom-18 atom-20" d="M 52.7,93.4 L 41.9,89.6" style="fill:none;fill-rule:evenodd;stroke:#000000;stroke-width:2.0px;stroke-linecap:butt;stroke-linejoin:miter;stroke-opacity:1"/>
<path class="bond-19 atom-18 atom-20" d="M 41.9,89.6 L 31.0,85.8" style="fill:none;fill-rule:evenodd;stroke:#FF0000;stroke-width:2.0px;stroke-linecap:butt;stroke-linejoin:miter;stroke-opacity:1"/>
<path class="bond-20 atom-8 atom-21" d="M 164.8,106.7 L 170.0,134.0" style="fill:none;fill-rule:evenodd;stroke:#000000;stroke-width:2.0px;stroke-linecap:butt;stroke-linejoin:miter;stroke-opacity:1"/>
<path class="bond-21 atom-21 atom-22" d="M 168.2,135.6 L 179.7,139.6" style="fill:none;fill-rule:evenodd;stroke:#000000;stroke-width:2.0px;stroke-linecap:butt;stroke-linejoin:miter;stroke-opacity:1"/>
<path class="bond-21 atom-21 atom-22" d="M 179.7,139.6 L 191.1,143.6" style="fill:none;fill-rule:evenodd;stroke:#FF0000;stroke-width:2.0px;stroke-linecap:butt;stroke-linejoin:miter;stroke-opacity:1"/>
<path class="bond-21 atom-21 atom-22" d="M 169.6,131.7 L 181.0,135.6" style="fill:none;fill-rule:evenodd;stroke:#000000;stroke-width:2.0px;stroke-linecap:butt;stroke-linejoin:miter;stroke-opacity:1"/>
<path class="bond-21 atom-21 atom-22" d="M 181.0,135.6 L 192.5,139.6" style="fill:none;fill-rule:evenodd;stroke:#FF0000;stroke-width:2.0px;stroke-linecap:butt;stroke-linejoin:miter;stroke-opacity:1"/>
<path class="bond-22 atom-21 atom-23" d="M 170.0,134.0 L 161.8,141.2" style="fill:none;fill-rule:evenodd;stroke:#000000;stroke-width:2.0px;stroke-linecap:butt;stroke-linejoin:miter;stroke-opacity:1"/>
<path class="bond-22 atom-21 atom-23" d="M 161.8,141.2 L 153.5,148.3" style="fill:none;fill-rule:evenodd;stroke:#FF0000;stroke-width:2.0px;stroke-linecap:butt;stroke-linejoin:miter;stroke-opacity:1"/>
<path d="M 222.0,42.2 L 223.3,42.6 L 223.5,44.0" style="fill:none;stroke:#000000;stroke-width:2.0px;stroke-linecap:butt;stroke-linejoin:miter;stroke-opacity:1;"/>
<path d="M 254.5,65.0 L 255.8,64.7 L 256.2,65.1" style="fill:none;stroke:#000000;stroke-width:2.0px;stroke-linecap:butt;stroke-linejoin:miter;stroke-opacity:1;"/>
<path d="M 202.6,74.9 L 201.2,75.2 L 200.8,76.5" style="fill:none;stroke:#000000;stroke-width:2.0px;stroke-linecap:butt;stroke-linejoin:miter;stroke-opacity:1;"/>
<path d="M 192.6,100.2 L 192.1,101.5 L 190.7,101.7" style="fill:none;stroke:#000000;stroke-width:2.0px;stroke-linecap:butt;stroke-linejoin:miter;stroke-opacity:1;"/>
<path d="M 159.8,80.8 L 159.5,79.4 L 159.0,79.2" style="fill:none;stroke:#000000;stroke-width:2.0px;stroke-linecap:butt;stroke-linejoin:miter;stroke-opacity:1;"/>
<path d="M 138.8,111.7 L 137.5,112.0 L 136.6,110.9" style="fill:none;stroke:#000000;stroke-width:2.0px;stroke-linecap:butt;stroke-linejoin:miter;stroke-opacity:1;"/>
<path d="M 120.2,92.0 L 119.3,90.9 L 117.9,91.2" style="fill:none;stroke:#000000;stroke-width:2.0px;stroke-linecap:butt;stroke-linejoin:miter;stroke-opacity:1;"/>
<path d="M 93.3,95.9 L 92.0,96.2 L 91.0,95.1" style="fill:none;stroke:#000000;stroke-width:2.0px;stroke-linecap:butt;stroke-linejoin:miter;stroke-opacity:1;"/>
<path d="M 93.7,57.9 L 94.8,57.0 L 94.7,56.4" style="fill:none;stroke:#000000;stroke-width:2.0px;stroke-linecap:butt;stroke-linejoin:miter;stroke-opacity:1;"/>
<path d="M 53.8,92.4 L 52.7,93.4 L 52.2,93.2" style="fill:none;stroke:#000000;stroke-width:2.0px;stroke-linecap:butt;stroke-linejoin:miter;stroke-opacity:1;"/>
<path d="M 169.8,132.7 L 170.0,134.0 L 169.6,134.4" style="fill:none;stroke:#000000;stroke-width:2.0px;stroke-linecap:butt;stroke-linejoin:miter;stroke-opacity:1;"/>
<path class="atom-5" d="M 270.4 85.8 Q 270.4 83.9, 271.4 82.8 Q 272.3 81.8, 274.0 81.8 Q 275.8 81.8, 276.7 82.8 Q 277.7 83.9, 277.7 85.8 Q 277.7 87.7, 276.7 88.8 Q 275.8 89.8, 274.0 89.8 Q 272.3 89.8, 271.4 88.8 Q 270.4 87.7, 270.4 85.8 M 274.0 89.0 Q 275.2 89.0, 275.9 88.2 Q 276.5 87.3, 276.5 85.8 Q 276.5 84.2, 275.9 83.4 Q 275.2 82.6, 274.0 82.6 Q 272.8 82.6, 272.2 83.4 Q 271.5 84.2, 271.5 85.8 Q 271.5 87.4, 272.2 88.2 Q 272.8 89.0, 274.0 89.0 " fill="#FF0000"/>
<path class="atom-5" d="M 278.9 81.8 L 280.0 81.8 L 280.0 85.2 L 284.0 85.2 L 284.0 81.8 L 285.1 81.8 L 285.1 89.7 L 284.0 89.7 L 284.0 86.1 L 280.0 86.1 L 280.0 89.7 L 278.9 89.7 L 278.9 81.8 " fill="#FF0000"/>
<path class="atom-10" d="M 121.9 66.4 L 122.9 66.4 L 122.9 69.8 L 127.0 69.8 L 127.0 66.4 L 128.0 66.4 L 128.0 74.3 L 127.0 74.3 L 127.0 70.6 L 122.9 70.6 L 122.9 74.3 L 121.9 74.3 L 121.9 66.4 " fill="#FF0000"/>
<path class="atom-10" d="M 129.6 70.3 Q 129.6 68.4, 130.6 67.4 Q 131.5 66.3, 133.3 66.3 Q 135.0 66.3, 135.9 67.4 Q 136.9 68.4, 136.9 70.3 Q 136.9 72.2, 135.9 73.3 Q 135.0 74.4, 133.3 74.4 Q 131.5 74.4, 130.6 73.3 Q 129.6 72.2, 129.6 70.3 M 133.3 73.5 Q 134.5 73.5, 135.1 72.7 Q 135.8 71.9, 135.8 70.3 Q 135.8 68.8, 135.1 68.0 Q 134.5 67.2, 133.3 67.2 Q 132.1 67.2, 131.4 68.0 Q 130.8 68.8, 130.8 70.3 Q 130.8 71.9, 131.4 72.7 Q 132.1 73.5, 133.3 73.5 " fill="#FF0000"/>
<path class="atom-17" d="M 85.9 29.7 Q 85.9 27.8, 86.9 26.7 Q 87.8 25.7, 89.5 25.7 Q 91.3 25.7, 92.2 26.7 Q 93.2 27.8, 93.2 29.7 Q 93.2 31.6, 92.2 32.7 Q 91.3 33.7, 89.5 33.7 Q 87.8 33.7, 86.9 32.7 Q 85.9 31.6, 85.9 29.7 M 89.5 32.9 Q 90.7 32.9, 91.4 32.1 Q 92.0 31.2, 92.0 29.7 Q 92.0 28.1, 91.4 27.3 Q 90.7 26.5, 89.5 26.5 Q 88.3 26.5, 87.7 27.3 Q 87.0 28.1, 87.0 29.7 Q 87.0 31.3, 87.7 32.1 Q 88.3 32.9, 89.5 32.9 " fill="#FF0000"/>
<path class="atom-17" d="M 94.4 25.7 L 95.5 25.7 L 95.5 29.1 L 99.5 29.1 L 99.5 25.7 L 100.5 25.7 L 100.5 33.6 L 99.5 33.6 L 99.5 30.0 L 95.5 30.0 L 95.5 33.6 L 94.4 33.6 L 94.4 25.7 " fill="#FF0000"/>
<path class="atom-19" d="M 54.4 120.7 Q 54.4 118.8, 55.3 117.7 Q 56.2 116.7, 58.0 116.7 Q 59.7 116.7, 60.7 117.7 Q 61.6 118.8, 61.6 120.7 Q 61.6 122.6, 60.6 123.7 Q 59.7 124.8, 58.0 124.8 Q 56.2 124.8, 55.3 123.7 Q 54.4 122.6, 54.4 120.7 M 58.0 123.9 Q 59.2 123.9, 59.8 123.1 Q 60.5 122.3, 60.5 120.7 Q 60.5 119.1, 59.8 118.4 Q 59.2 117.6, 58.0 117.6 Q 56.8 117.6, 56.1 118.4 Q 55.5 119.1, 55.5 120.7 Q 55.5 122.3, 56.1 123.1 Q 56.8 123.9, 58.0 123.9 " fill="#FF0000"/>
<path class="atom-20" d="M 15.0 80.3 L 16.1 80.3 L 16.1 83.7 L 20.1 83.7 L 20.1 80.3 L 21.2 80.3 L 21.2 88.2 L 20.1 88.2 L 20.1 84.6 L 16.1 84.6 L 16.1 88.2 L 15.0 88.2 L 15.0 80.3 " fill="#FF0000"/>
<path class="atom-20" d="M 22.8 84.3 Q 22.8 82.4, 23.8 81.3 Q 24.7 80.3, 26.4 80.3 Q 28.2 80.3, 29.1 81.3 Q 30.1 82.4, 30.1 84.3 Q 30.1 86.2, 29.1 87.3 Q 28.2 88.3, 26.4 88.3 Q 24.7 88.3, 23.8 87.3 Q 22.8 86.2, 22.8 84.3 M 26.4 87.5 Q 27.6 87.5, 28.3 86.7 Q 28.9 85.8, 28.9 84.3 Q 28.9 82.7, 28.3 81.9 Q 27.6 81.1, 26.4 81.1 Q 25.2 81.1, 24.6 81.9 Q 23.9 82.7, 23.9 84.3 Q 23.9 85.9, 24.6 86.7 Q 25.2 87.5, 26.4 87.5 " fill="#FF0000"/>
<path class="atom-22" d="M 192.7 143.2 Q 192.7 141.3, 193.6 140.2 Q 194.6 139.2, 196.3 139.2 Q 198.1 139.2, 199.0 140.2 Q 199.9 141.3, 199.9 143.2 Q 199.9 145.1, 199.0 146.2 Q 198.0 147.3, 196.3 147.3 Q 194.6 147.3, 193.6 146.2 Q 192.7 145.1, 192.7 143.2 M 196.3 146.4 Q 197.5 146.4, 198.2 145.6 Q 198.8 144.8, 198.8 143.2 Q 198.8 141.6, 198.2 140.9 Q 197.5 140.1, 196.3 140.1 Q 195.1 140.1, 194.5 140.8 Q 193.8 141.6, 193.8 143.2 Q 193.8 144.8, 194.5 145.6 Q 195.1 146.4, 196.3 146.4 " fill="#FF0000"/>
<path class="atom-23" d="M 137.6 148.3 L 138.7 148.3 L 138.7 151.7 L 142.7 151.7 L 142.7 148.3 L 143.8 148.3 L 143.8 156.2 L 142.7 156.2 L 142.7 152.6 L 138.7 152.6 L 138.7 156.2 L 137.6 156.2 L 137.6 148.3 " fill="#FF0000"/>
<path class="atom-23" d="M 145.4 152.3 Q 145.4 150.4, 146.3 149.3 Q 147.3 148.3, 149.0 148.3 Q 150.7 148.3, 151.7 149.3 Q 152.6 150.4, 152.6 152.3 Q 152.6 154.2, 151.7 155.3 Q 150.7 156.3, 149.0 156.3 Q 147.3 156.3, 146.3 155.3 Q 145.4 154.2, 145.4 152.3 M 149.0 155.5 Q 150.2 155.5, 150.8 154.7 Q 151.5 153.8, 151.5 152.3 Q 151.5 150.7, 150.8 149.9 Q 150.2 149.1, 149.0 149.1 Q 147.8 149.1, 147.1 149.9 Q 146.5 150.7, 146.5 152.3 Q 146.5 153.9, 147.1 154.7 Q 147.8 155.5, 149.0 155.5 " fill="#FF0000"/>
<path class="legend" d="M 141.5 181.9 Q 141.5 179.6, 142.2 177.7 Q 142.9 175.8, 144.2 173.8 L 145.1 174.4 Q 144.0 176.3, 143.5 178.0 Q 143.0 179.7, 143.0 181.9 Q 143.0 184.0, 143.5 185.8 Q 144.0 187.5, 145.1 189.4 L 144.2 190.0 Q 142.9 188.0, 142.2 186.1 Q 141.5 184.2, 141.5 181.9 " fill="#000000"/>
<path class="legend" d="M 146.0 177.3 Q 146.4 176.2, 147.4 175.6 Q 148.4 175.0, 149.8 175.0 Q 151.5 175.0, 152.4 175.9 Q 153.4 176.8, 153.4 178.5 Q 153.4 180.2, 152.1 181.7 Q 150.9 183.3, 148.4 185.2 L 153.6 185.2 L 153.6 186.4 L 146.0 186.4 L 146.0 185.4 Q 148.1 183.9, 149.3 182.8 Q 150.6 181.6, 151.2 180.6 Q 151.8 179.6, 151.8 178.6 Q 151.8 177.5, 151.2 176.9 Q 150.7 176.3, 149.8 176.3 Q 148.8 176.3, 148.2 176.6 Q 147.6 177.0, 147.2 177.8 L 146.0 177.3 " fill="#000000"/>
<path class="legend" d="M 158.6 181.9 Q 158.6 184.2, 157.9 186.1 Q 157.2 188.0, 155.9 190.0 L 155.0 189.4 Q 156.1 187.5, 156.6 185.8 Q 157.1 184.0, 157.1 181.9 Q 157.1 179.7, 156.6 178.0 Q 156.1 176.3, 155.0 174.4 L 155.9 173.8 Q 157.2 175.8, 157.9 177.7 Q 158.6 179.6, 158.6 181.9 " fill="#000000"/>
</g>
    <g transform="translate(301.0, 0) scale(1 1) "><line x1="5" y1="100" x2="35" y2="100" style="stroke:rgb(0,0,0);stroke-width:2"/>
  <line x1="34" y1="100" x2="29" y2="95" style="stroke:rgb(0,0,0);stroke-width:2"/>
  <line x1="34" y1="100" x2="29" y2="105" style="stroke:rgb(0,0,0);stroke-width:2"/>
</g>
    <g transform="translate(341.0, 0) scale(1 1) "><!-- END OF HEADER -->
<rect style="opacity:1.0;fill:#FFFFFF;stroke:none" width="345.0" height="200.0" x="0.0" y="0.0"> </rect>
<path class="bond-0 atom-0 atom-1" d="M 220.8,45.3 L 238.0,57.7" style="fill:none;fill-rule:evenodd;stroke:#000000;stroke-width:2.0px;stroke-linecap:butt;stroke-linejoin:miter;stroke-opacity:1"/>
<path class="bond-1 atom-1 atom-2" d="M 238.0,57.7 L 235.8,78.7" style="fill:none;fill-rule:evenodd;stroke:#000000;stroke-width:2.0px;stroke-linecap:butt;stroke-linejoin:miter;stroke-opacity:1"/>
<path class="bond-2 atom-2 atom-3" d="M 235.8,78.7 L 233.6,99.8" style="fill:none;fill-rule:evenodd;stroke:#000000;stroke-width:2.0px;stroke-linecap:butt;stroke-linejoin:miter;stroke-opacity:1"/>
<path class="bond-3 atom-2 atom-4" d="M 235.8,78.7 L 256.9,80.9" style="fill:none;fill-rule:evenodd;stroke:#000000;stroke-width:2.0px;stroke-linecap:butt;stroke-linejoin:miter;stroke-opacity:1"/>
<path class="bond-4 atom-4 atom-5" d="M 256.9,80.9 L 260.4,88.7" style="fill:none;fill-rule:evenodd;stroke:#000000;stroke-width:2.0px;stroke-linecap:butt;stroke-linejoin:miter;stroke-opacity:1"/>
<path class="bond-4 atom-4 atom-5" d="M 260.4,88.7 L 263.9,96.5" style="fill:none;fill-rule:evenodd;stroke:#FF0000;stroke-width:2.0px;stroke-linecap:butt;stroke-linejoin:miter;stroke-opacity:1"/>
<path class="bond-5 atom-2 atom-6" d="M 235.8,78.7 L 214.7,76.6" style="fill:none;fill-rule:evenodd;stroke:#000000;stroke-width:2.0px;stroke-linecap:butt;stroke-linejoin:miter;stroke-opacity:1"/>
<path class="bond-6 atom-6 atom-7" d="M 214.7,76.6 L 202.3,93.7" style="fill:none;fill-rule:evenodd;stroke:#000000;stroke-width:2.0px;stroke-linecap:butt;stroke-linejoin:miter;stroke-opacity:1"/>
<path class="bond-7 atom-7 atom-8" d="M 202.3,93.7 L 181.3,91.6" style="fill:none;fill-rule:evenodd;stroke:#000000;stroke-width:2.0px;stroke-linecap:butt;stroke-linejoin:miter;stroke-opacity:1"/>
<path class="bond-8 atom-8 atom-9" d="M 181.3,91.6 L 183.4,70.5" style="fill:none;fill-rule:evenodd;stroke:#000000;stroke-width:2.0px;stroke-linecap:butt;stroke-linejoin:miter;stroke-opacity:1"/>
<path class="bond-9 atom-9 atom-10" d="M 183.4,70.5 L 176.6,65.6" style="fill:none;fill-rule:evenodd;stroke:#000000;stroke-width:2.0px;stroke-linecap:butt;stroke-linejoin:miter;stroke-opacity:1"/>
<path class="bond-9 atom-9 atom-10" d="M 176.6,65.6 L 169.7,60.6" style="fill:none;fill-rule:evenodd;stroke:#FF0000;stroke-width:2.0px;stroke-linecap:butt;stroke-linejoin:miter;stroke-opacity:1"/>
<path class="bond-10 atom-8 atom-11" d="M 181.3,91.6 L 160.2,89.4" style="fill:none;fill-rule:evenodd;stroke:#000000;stroke-width:2.0px;stroke-linecap:butt;stroke-linejoin:miter;stroke-opacity:1"/>
<path class="bond-11 atom-11 atom-12" d="M 160.2,89.4 L 151.5,70.1" style="fill:none;fill-rule:evenodd;stroke:#000000;stroke-width:2.0px;stroke-linecap:butt;stroke-linejoin:miter;stroke-opacity:1"/>
<path class="bond-12 atom-12 atom-13" d="M 151.5,70.1 L 130.5,68.0" style="fill:none;fill-rule:evenodd;stroke:#000000;stroke-width:2.0px;stroke-linecap:butt;stroke-linejoin:miter;stroke-opacity:1"/>
<path class="bond-13 atom-13 atom-14" d="M 130.5,68.0 L 121.8,48.6" style="fill:none;fill-rule:evenodd;stroke:#000000;stroke-width:2.0px;stroke-linecap:butt;stroke-linejoin:miter;stroke-opacity:1"/>
<path class="bond-14 atom-14 atom-15" d="M 121.8,48.6 L 100.7,46.5" style="fill:none;fill-rule:evenodd;stroke:#000000;stroke-width:2.0px;stroke-linecap:butt;stroke-linejoin:miter;stroke-opacity:1"/>
<path class="bond-15 atom-15 atom-16" d="M 100.7,46.5 L 79.7,44.3" style="fill:none;fill-rule:evenodd;stroke:#000000;stroke-width:2.0px;stroke-linecap:butt;stroke-linejoin:miter;stroke-opacity:1"/>
<path class="bond-16 atom-15 atom-17" d="M 100.7,46.5 L 98.6,67.6" style="fill:none;fill-rule:evenodd;stroke:#000000;stroke-width:2.0px;stroke-linecap:butt;stroke-linejoin:miter;stroke-opacity:1"/>
<path class="bond-17 atom-17 atom-18" d="M 98.6,67.6 L 90.6,71.1" style="fill:none;fill-rule:evenodd;stroke:#000000;stroke-width:2.0px;stroke-linecap:butt;stroke-linejoin:miter;stroke-opacity:1"/>
<path class="bond-17 atom-17 atom-18" d="M 90.6,71.1 L 82.7,74.7" style="fill:none;fill-rule:evenodd;stroke:#FF0000;stroke-width:2.0px;stroke-linecap:butt;stroke-linejoin:miter;stroke-opacity:1"/>
<path class="bond-18 atom-15 atom-19" d="M 100.7,46.5 L 102.9,25.4" style="fill:none;fill-rule:evenodd;stroke:#000000;stroke-width:2.0px;stroke-linecap:butt;stroke-linejoin:miter;stroke-opacity:1"/>
<path class="bond-19 atom-19 atom-20" d="M 102.7,27.3 L 111.0,23.5" style="fill:none;fill-rule:evenodd;stroke:#000000;stroke-width:2.0px;stroke-linecap:butt;stroke-linejoin:miter;stroke-opacity:1"/>
<path class="bond-19 atom-19 atom-20" d="M 111.0,23.5 L 119.4,19.8" style="fill:none;fill-rule:evenodd;stroke:#FF0000;stroke-width:2.0px;stroke-linecap:butt;stroke-linejoin:miter;stroke-opacity:1"/>
<path class="bond-19 atom-19 atom-20" d="M 101.4,24.4 L 109.7,20.6" style="fill:none;fill-rule:evenodd;stroke:#000000;stroke-width:2.0px;stroke-linecap:butt;stroke-linejoin:miter;stroke-opacity:1"/>
<path class="bond-19 atom-19 atom-20" d="M 109.7,20.6 L 118.1,16.9" style="fill:none;fill-rule:evenodd;stroke:#FF0000;stroke-width:2.0px;stroke-linecap:butt;stroke-linejoin:miter;stroke-opacity:1"/>
<path class="bond-20 atom-19 atom-21" d="M 102.9,25.4 L 96.0,20.5" style="fill:none;fill-rule:evenodd;stroke:#000000;stroke-width:2.0px;stroke-linecap:butt;stroke-linejoin:miter;stroke-opacity:1"/>
<path class="bond-20 atom-19 atom-21" d="M 96.0,20.5 L 89.2,15.5" style="fill:none;fill-rule:evenodd;stroke:#FF0000;stroke-width:2.0px;stroke-linecap:butt;stroke-linejoin:miter;stroke-opacity:1"/>
<path class="bond-21 atom-13 atom-22" d="M 130.5,68.0 L 118.1,85.1" style="fill:none;fill-rule:evenodd;stroke:#000000;stroke-width:2.0px;stroke-linecap:butt;stroke-linejoin:miter;stroke-opacity:1"/>
<path class="bond-22 atom-22 atom-23" d="M 118.1,85.1 L 126.7,104.5" style="fill:none;fill-rule:evenodd;stroke:#000000;stroke-width:2.0px;stroke-linecap:butt;stroke-linejoin:miter;stroke-opacity:1"/>
<path class="bond-23 atom-23 atom-24" d="M 126.7,104.5 L 146.1,95.8" style="fill:none;fill-rule:evenodd;stroke:#000000;stroke-width:2.0px;stroke-linecap:butt;stroke-linejoin:miter;stroke-opacity:1"/>
<path class="bond-24 atom-24 atom-25" d="M 146.1,95.8 L 152.9,100.7" style="fill:none;fill-rule:evenodd;stroke:#000000;stroke-width:2.0px;stroke-linecap:butt;stroke-linejoin:miter;stroke-opacity:1"/>
<path class="bond-24 atom-24 atom-25" d="M 152.9,100.7 L 159.8,105.7" style="fill:none;fill-rule:evenodd;stroke:#FF0000;stroke-width:2.0px;stroke-linecap:butt;stroke-linejoin:miter;stroke-opacity:1"/>
<path class="bond-25 atom-23 atom-26" d="M 126.7,104.5 L 135.4,123.8" style="fill:none;fill-rule:evenodd;stroke:#000000;stroke-width:2.0px;stroke-linecap:butt;stroke-linejoin:miter;stroke-opacity:1"/>
<path class="bond-26 atom-26 atom-27" d="M 135.4,123.8 L 123.0,140.9" style="fill:none;fill-rule:evenodd;stroke:#000000;stroke-width:2.0px;stroke-linecap:butt;stroke-linejoin:miter;stroke-opacity:1"/>
<path class="bond-27 atom-27 atom-28" d="M 123.0,140.9 L 131.7,160.3" style="fill:none;fill-rule:evenodd;stroke:#000000;stroke-width:2.0px;stroke-linecap:butt;stroke-linejoin:miter;stroke-opacity:1"/>
<path class="bond-28 atom-28 atom-29" d="M 131.7,160.3 L 151.0,151.6" style="fill:none;fill-rule:evenodd;stroke:#000000;stroke-width:2.0px;stroke-linecap:butt;stroke-linejoin:miter;stroke-opacity:1"/>
<path class="bond-29 atom-28 atom-30" d="M 131.7,160.3 L 112.4,168.9" style="fill:none;fill-rule:evenodd;stroke:#000000;stroke-width:2.0px;stroke-linecap:butt;stroke-linejoin:miter;stroke-opacity:1"/>
<path class="bond-30 atom-30 atom-31" d="M 112.4,168.9 L 110.2,190.0" style="fill:none;fill-rule:evenodd;stroke:#000000;stroke-width:2.0px;stroke-linecap:butt;stroke-linejoin:miter;stroke-opacity:1"/>
<path class="bond-31 atom-28 atom-32" d="M 131.7,160.3 L 140.4,179.6" style="fill:none;fill-rule:evenodd;stroke:#000000;stroke-width:2.0px;stroke-linecap:butt;stroke-linejoin:miter;stroke-opacity:1"/>
<path class="bond-32 atom-32 atom-33" d="M 140.4,179.6 L 149.2,180.5" style="fill:none;fill-rule:evenodd;stroke:#000000;stroke-width:2.0px;stroke-linecap:butt;stroke-linejoin:miter;stroke-opacity:1"/>
<path class="bond-32 atom-32 atom-33" d="M 149.2,180.5 L 158.0,181.4" style="fill:none;fill-rule:evenodd;stroke:#FF0000;stroke-width:2.0px;stroke-linecap:butt;stroke-linejoin:miter;stroke-opacity:1"/>
<path class="bond-33 atom-23 atom-34" d="M 126.7,104.5 L 107.4,113.1" style="fill:none;fill-rule:evenodd;stroke:#000000;stroke-width:2.0px;stroke-linecap:butt;stroke-linejoin:miter;stroke-opacity:1"/>
<path class="bond-34 atom-34 atom-35" d="M 109.1,112.4 L 101.9,107.2" style="fill:none;fill-rule:evenodd;stroke:#000000;stroke-width:2.0px;stroke-linecap:butt;stroke-linejoin:miter;stroke-opacity:1"/>
<path class="bond-34 atom-34 atom-35" d="M 101.9,107.2 L 94.6,101.9" style="fill:none;fill-rule:evenodd;stroke:#FF0000;stroke-width:2.0px;stroke-linecap:butt;stroke-linejoin:miter;stroke-opacity:1"/>
<path class="bond-34 atom-34 atom-35" d="M 107.2,114.9 L 100.0,109.7" style="fill:none;fill-rule:evenodd;stroke:#000000;stroke-width:2.0px;stroke-linecap:butt;stroke-linejoin:miter;stroke-opacity:1"/>
<path class="bond-34 atom-34 atom-35" d="M 100.0,109.7 L 92.8,104.5" style="fill:none;fill-rule:evenodd;stroke:#FF0000;stroke-width:2.0px;stroke-linecap:butt;stroke-linejoin:miter;stroke-opacity:1"/>
<path class="bond-35 atom-34 atom-36" d="M 107.4,113.1 L 106.5,121.8" style="fill:none;fill-rule:evenodd;stroke:#000000;stroke-width:2.0px;stroke-linecap:butt;stroke-linejoin:miter;stroke-opacity:1"/>
<path class="bond-35 atom-34 atom-36" d="M 106.5,121.8 L 105.7,130.5" style="fill:none;fill-rule:evenodd;stroke:#FF0000;stroke-width:2.0px;stroke-linecap:butt;stroke-linejoin:miter;stroke-opacity:1"/>
<path class="bond-36 atom-8 atom-37" d="M 181.3,91.6 L 179.1,112.7" style="fill:none;fill-rule:evenodd;stroke:#000000;stroke-width:2.0px;stroke-linecap:butt;stroke-linejoin:miter;stroke-opacity:1"/>
<path class="bond-37 atom-37 atom-38" d="M 177.4,113.4 L 184.7,118.6" style="fill:none;fill-rule:evenodd;stroke:#000000;stroke-width:2.0px;stroke-linecap:butt;stroke-linejoin:miter;stroke-opacity:1"/>
<path class="bond-37 atom-37 atom-38" d="M 184.7,118.6 L 191.9,123.8" style="fill:none;fill-rule:evenodd;stroke:#FF0000;stroke-width:2.0px;stroke-linecap:butt;stroke-linejoin:miter;stroke-opacity:1"/>
<path class="bond-37 atom-37 atom-38" d="M 179.3,110.8 L 186.5,116.0" style="fill:none;fill-rule:evenodd;stroke:#000000;stroke-width:2.0px;stroke-linecap:butt;stroke-linejoin:miter;stroke-opacity:1"/>
<path class="bond-37 atom-37 atom-38" d="M 186.5,116.0 L 193.8,121.3" style="fill:none;fill-rule:evenodd;stroke:#FF0000;stroke-width:2.0px;stroke-linecap:butt;stroke-linejoin:miter;stroke-opacity:1"/>
<path class="bond-38 atom-37 atom-39" d="M 179.1,112.7 L 171.2,116.2" style="fill:none;fill-rule:evenodd;stroke:#000000;stroke-width:2.0px;stroke-linecap:butt;stroke-linejoin:miter;stroke-opacity:1"/>
<path class="bond-38 atom-37 atom-39" d="M 171.2,116.2 L 163.3,119.8" style="fill:none;fill-rule:evenodd;stroke:#FF0000;stroke-width:2.0px;stroke-linecap:butt;stroke-linejoin:miter;stroke-opacity:1"/>
<path d="M 237.1,57.0 L 238.0,57.7 L 237.8,58.7" style="fill:none;stroke:#000000;stroke-width:2.0px;stroke-linecap:butt;stroke-linejoin:miter;stroke-opacity:1;"/>
<path d="M 255.8,80.8 L 256.9,80.9 L 257.0,81.3" style="fill:none;stroke:#000000;stroke-width:2.0px;stroke-linecap:butt;stroke-linejoin:miter;stroke-opacity:1;"/>
<path d="M 215.8,76.7 L 214.7,76.6 L 214.1,77.4" style="fill:none;stroke:#000000;stroke-width:2.0px;stroke-linecap:butt;stroke-linejoin:miter;stroke-opacity:1;"/>
<path d="M 203.0,92.9 L 202.3,93.7 L 201.3,93.6" style="fill:none;stroke:#000000;stroke-width:2.0px;stroke-linecap:butt;stroke-linejoin:miter;stroke-opacity:1;"/>
<path d="M 183.3,71.6 L 183.4,70.5 L 183.1,70.3" style="fill:none;stroke:#000000;stroke-width:2.0px;stroke-linecap:butt;stroke-linejoin:miter;stroke-opacity:1;"/>
<path d="M 161.3,89.5 L 160.2,89.4 L 159.8,88.5" style="fill:none;stroke:#000000;stroke-width:2.0px;stroke-linecap:butt;stroke-linejoin:miter;stroke-opacity:1;"/>
<path d="M 152.0,71.1 L 151.5,70.1 L 150.5,70.0" style="fill:none;stroke:#000000;stroke-width:2.0px;stroke-linecap:butt;stroke-linejoin:miter;stroke-opacity:1;"/>
<path d="M 122.2,49.6 L 121.8,48.6 L 120.7,48.5" style="fill:none;stroke:#000000;stroke-width:2.0px;stroke-linecap:butt;stroke-linejoin:miter;stroke-opacity:1;"/>
<path d="M 98.7,66.5 L 98.6,67.6 L 98.2,67.7" style="fill:none;stroke:#000000;stroke-width:2.0px;stroke-linecap:butt;stroke-linejoin:miter;stroke-opacity:1;"/>
<path d="M 102.8,26.5 L 102.9,25.4 L 102.5,25.2" style="fill:none;stroke:#000000;stroke-width:2.0px;stroke-linecap:butt;stroke-linejoin:miter;stroke-opacity:1;"/>
<path d="M 118.7,84.3 L 118.1,85.1 L 118.5,86.1" style="fill:none;stroke:#000000;stroke-width:2.0px;stroke-linecap:butt;stroke-linejoin:miter;stroke-opacity:1;"/>
<path d="M 145.1,96.2 L 146.1,95.8 L 146.4,96.0" style="fill:none;stroke:#000000;stroke-width:2.0px;stroke-linecap:butt;stroke-linejoin:miter;stroke-opacity:1;"/>
<path d="M 135.0,122.8 L 135.4,123.8 L 134.8,124.6" style="fill:none;stroke:#000000;stroke-width:2.0px;stroke-linecap:butt;stroke-linejoin:miter;stroke-opacity:1;"/>
<path d="M 123.6,140.1 L 123.0,140.9 L 123.5,141.9" style="fill:none;stroke:#000000;stroke-width:2.0px;stroke-linecap:butt;stroke-linejoin:miter;stroke-opacity:1;"/>
<path d="M 113.3,168.5 L 112.4,168.9 L 112.3,170.0" style="fill:none;stroke:#000000;stroke-width:2.0px;stroke-linecap:butt;stroke-linejoin:miter;stroke-opacity:1;"/>
<path d="M 139.9,178.6 L 140.4,179.6 L 140.8,179.6" style="fill:none;stroke:#000000;stroke-width:2.0px;stroke-linecap:butt;stroke-linejoin:miter;stroke-opacity:1;"/>
<path d="M 108.4,112.7 L 107.4,113.1 L 107.4,113.6" style="fill:none;stroke:#000000;stroke-width:2.0px;stroke-linecap:butt;stroke-linejoin:miter;stroke-opacity:1;"/>
<path d="M 179.2,111.6 L 179.1,112.7 L 178.7,112.8" style="fill:none;stroke:#000000;stroke-width:2.0px;stroke-linecap:butt;stroke-linejoin:miter;stroke-opacity:1;"/>
<path class="atom-5" d="M 262.8 100.2 Q 262.8 98.8, 263.5 98.0 Q 264.2 97.2, 265.5 97.2 Q 266.9 97.2, 267.6 98.0 Q 268.3 98.8, 268.3 100.2 Q 268.3 101.7, 267.6 102.5 Q 266.9 103.3, 265.5 103.3 Q 264.2 103.3, 263.5 102.5 Q 262.8 101.7, 262.8 100.2 M 265.5 102.6 Q 266.5 102.6, 266.9 102.0 Q 267.4 101.4, 267.4 100.2 Q 267.4 99.0, 266.9 98.4 Q 266.5 97.8, 265.5 97.8 Q 264.6 97.8, 264.1 98.4 Q 263.6 99.0, 263.6 100.2 Q 263.6 101.4, 264.1 102.0 Q 264.6 102.6, 265.5 102.6 " fill="#FF0000"/>
<path class="atom-5" d="M 269.2 97.2 L 270.0 97.2 L 270.0 99.8 L 273.1 99.8 L 273.1 97.2 L 273.9 97.2 L 273.9 103.2 L 273.1 103.2 L 273.1 100.4 L 270.0 100.4 L 270.0 103.2 L 269.2 103.2 L 269.2 97.2 " fill="#FF0000"/>
<path class="atom-10" d="M 157.6 55.2 L 158.4 55.2 L 158.4 57.7 L 161.5 57.7 L 161.5 55.2 L 162.3 55.2 L 162.3 61.2 L 161.5 61.2 L 161.5 58.4 L 158.4 58.4 L 158.4 61.2 L 157.6 61.2 L 157.6 55.2 " fill="#FF0000"/>
<path class="atom-10" d="M 163.5 58.1 Q 163.5 56.7, 164.2 55.9 Q 164.9 55.1, 166.3 55.1 Q 167.6 55.1, 168.3 55.9 Q 169.0 56.7, 169.0 58.1 Q 169.0 59.6, 168.3 60.4 Q 167.6 61.2, 166.3 61.2 Q 164.9 61.2, 164.2 60.4 Q 163.5 59.6, 163.5 58.1 M 166.3 60.6 Q 167.2 60.6, 167.7 60.0 Q 168.2 59.3, 168.2 58.1 Q 168.2 57.0, 167.7 56.4 Q 167.2 55.8, 166.3 55.8 Q 165.3 55.8, 164.8 56.4 Q 164.3 57.0, 164.3 58.1 Q 164.3 59.4, 164.8 60.0 Q 165.3 60.6, 166.3 60.6 " fill="#FF0000"/>
<path class="atom-18" d="M 70.6 73.3 L 71.4 73.3 L 71.4 75.8 L 74.5 75.8 L 74.5 73.3 L 75.3 73.3 L 75.3 79.3 L 74.5 79.3 L 74.5 76.5 L 71.4 76.5 L 71.4 79.3 L 70.6 79.3 L 70.6 73.3 " fill="#FF0000"/>
<path class="atom-18" d="M 76.5 76.2 Q 76.5 74.8, 77.2 74.0 Q 77.9 73.2, 79.3 73.2 Q 80.6 73.2, 81.3 74.0 Q 82.0 74.8, 82.0 76.2 Q 82.0 77.7, 81.3 78.5 Q 80.6 79.4, 79.3 79.4 Q 77.9 79.4, 77.2 78.5 Q 76.5 77.7, 76.5 76.2 M 79.3 78.7 Q 80.2 78.7, 80.7 78.1 Q 81.2 77.5, 81.2 76.2 Q 81.2 75.1, 80.7 74.5 Q 80.2 73.9, 79.3 73.9 Q 78.3 73.9, 77.8 74.5 Q 77.4 75.1, 77.4 76.2 Q 77.4 77.5, 77.8 78.1 Q 78.3 78.7, 79.3 78.7 " fill="#FF0000"/>
<path class="atom-20" d="M 119.4 16.8 Q 119.4 15.3, 120.2 14.5 Q 120.9 13.7, 122.2 13.7 Q 123.5 13.7, 124.2 14.5 Q 125.0 15.3, 125.0 16.8 Q 125.0 18.2, 124.2 19.1 Q 123.5 19.9, 122.2 19.9 Q 120.9 19.9, 120.2 19.1 Q 119.4 18.2, 119.4 16.8 M 122.2 19.2 Q 123.1 19.2, 123.6 18.6 Q 124.1 18.0, 124.1 16.8 Q 124.1 15.6, 123.6 15.0 Q 123.1 14.4, 122.2 14.4 Q 121.3 14.4, 120.8 15.0 Q 120.3 15.6, 120.3 16.8 Q 120.3 18.0, 120.8 18.6 Q 121.3 19.2, 122.2 19.2 " fill="#FF0000"/>
<path class="atom-21" d="M 77.0 10.1 L 77.8 10.1 L 77.8 12.6 L 80.9 12.6 L 80.9 10.1 L 81.7 10.1 L 81.7 16.1 L 80.9 16.1 L 80.9 13.3 L 77.8 13.3 L 77.8 16.1 L 77.0 16.1 L 77.0 10.1 " fill="#FF0000"/>
<path class="atom-21" d="M 83.0 13.0 Q 83.0 11.6, 83.7 10.8 Q 84.4 10.0, 85.7 10.0 Q 87.0 10.0, 87.8 10.8 Q 88.5 11.6, 88.5 13.0 Q 88.5 14.5, 87.7 15.3 Q 87.0 16.2, 85.7 16.2 Q 84.4 16.2, 83.7 15.3 Q 83.0 14.5, 83.0 13.0 M 85.7 15.5 Q 86.6 15.5, 87.1 14.9 Q 87.6 14.3, 87.6 13.0 Q 87.6 11.9, 87.1 11.3 Q 86.6 10.7, 85.7 10.7 Q 84.8 10.7, 84.3 11.3 Q 83.8 11.9, 83.8 13.0 Q 83.8 14.3, 84.3 14.9 Q 84.8 15.5, 85.7 15.5 " fill="#FF0000"/>
<path class="atom-25" d="M 160.5 108.2 Q 160.5 106.8, 161.2 106.0 Q 161.9 105.1, 163.2 105.1 Q 164.6 105.1, 165.3 106.0 Q 166.0 106.8, 166.0 108.2 Q 166.0 109.7, 165.3 110.5 Q 164.5 111.3, 163.2 111.3 Q 161.9 111.3, 161.2 110.5 Q 160.5 109.7, 160.5 108.2 M 163.2 110.6 Q 164.1 110.6, 164.6 110.0 Q 165.1 109.4, 165.1 108.2 Q 165.1 107.0, 164.6 106.4 Q 164.1 105.8, 163.2 105.8 Q 162.3 105.8, 161.8 106.4 Q 161.3 107.0, 161.3 108.2 Q 161.3 109.4, 161.8 110.0 Q 162.3 110.6, 163.2 110.6 " fill="#FF0000"/>
<path class="atom-25" d="M 166.9 105.2 L 167.7 105.2 L 167.7 107.8 L 170.8 107.8 L 170.8 105.2 L 171.6 105.2 L 171.6 111.2 L 170.8 111.2 L 170.8 108.4 L 167.7 108.4 L 167.7 111.2 L 166.9 111.2 L 166.9 105.2 " fill="#FF0000"/>
<path class="atom-33" d="M 158.7 181.7 Q 158.7 180.3, 159.4 179.5 Q 160.1 178.7, 161.4 178.7 Q 162.8 178.7, 163.5 179.5 Q 164.2 180.3, 164.2 181.7 Q 164.2 183.2, 163.5 184.0 Q 162.7 184.9, 161.4 184.9 Q 160.1 184.9, 159.4 184.0 Q 158.7 183.2, 158.7 181.7 M 161.4 184.2 Q 162.3 184.2, 162.8 183.6 Q 163.3 183.0, 163.3 181.7 Q 163.3 180.6, 162.8 180.0 Q 162.3 179.4, 161.4 179.4 Q 160.5 179.4, 160.0 180.0 Q 159.5 180.6, 159.5 181.7 Q 159.5 183.0, 160.0 183.6 Q 160.5 184.2, 161.4 184.2 " fill="#FF0000"/>
<path class="atom-33" d="M 165.1 178.8 L 165.9 178.8 L 165.9 181.3 L 169.0 181.3 L 169.0 178.8 L 169.8 178.8 L 169.8 184.8 L 169.0 184.8 L 169.0 182.0 L 165.9 182.0 L 165.9 184.8 L 165.1 184.8 L 165.1 178.8 " fill="#FF0000"/>
<path class="atom-35" d="M 87.5 100.7 Q 87.5 99.3, 88.2 98.5 Q 88.9 97.7, 90.3 97.7 Q 91.6 97.7, 92.3 98.5 Q 93.0 99.3, 93.0 100.7 Q 93.0 102.2, 92.3 103.0 Q 91.6 103.9, 90.3 103.9 Q 88.9 103.9, 88.2 103.0 Q 87.5 102.2, 87.5 100.7 M 90.3 103.2 Q 91.2 103.2, 91.7 102.6 Q 92.2 101.9, 92.2 100.7 Q 92.2 99.6, 91.7 99.0 Q 91.2 98.4, 90.3 98.4 Q 89.3 98.4, 88.8 99.0 Q 88.3 99.6, 88.3 100.7 Q 88.3 102.0, 88.8 102.6 Q 89.3 103.2, 90.3 103.2 " fill="#FF0000"/>
<path class="atom-36" d="M 102.5 134.2 Q 102.5 132.8, 103.2 132.0 Q 103.9 131.2, 105.3 131.2 Q 106.6 131.2, 107.3 132.0 Q 108.0 132.8, 108.0 134.2 Q 108.0 135.7, 107.3 136.5 Q 106.6 137.3, 105.3 137.3 Q 104.0 137.3, 103.2 136.5 Q 102.5 135.7, 102.5 134.2 M 105.3 136.6 Q 106.2 136.6, 106.7 136.0 Q 107.2 135.4, 107.2 134.2 Q 107.2 133.0, 106.7 132.4 Q 106.2 131.8, 105.3 131.8 Q 104.4 131.8, 103.9 132.4 Q 103.4 133.0, 103.4 134.2 Q 103.4 135.4, 103.9 136.0 Q 104.4 136.6, 105.3 136.6 " fill="#FF0000"/>
<path class="atom-36" d="M 109.0 131.2 L 109.8 131.2 L 109.8 133.8 L 112.8 133.8 L 112.8 131.2 L 113.7 131.2 L 113.7 137.2 L 112.8 137.2 L 112.8 134.5 L 109.8 134.5 L 109.8 137.2 L 109.0 137.2 L 109.0 131.2 " fill="#FF0000"/>
<path class="atom-38" d="M 193.5 125.1 Q 193.5 123.6, 194.2 122.8 Q 195.0 122.0, 196.3 122.0 Q 197.6 122.0, 198.3 122.8 Q 199.0 123.6, 199.0 125.1 Q 199.0 126.5, 198.3 127.4 Q 197.6 128.2, 196.3 128.2 Q 195.0 128.2, 194.2 127.4 Q 193.5 126.5, 193.5 125.1 M 196.3 127.5 Q 197.2 127.5, 197.7 126.9 Q 198.2 126.3, 198.2 125.1 Q 198.2 123.9, 197.7 123.3 Q 197.2 122.7, 196.3 122.7 Q 195.4 122.7, 194.9 123.3 Q 194.4 123.9, 194.4 125.1 Q 194.4 126.3, 194.9 126.9 Q 195.4 127.5, 196.3 127.5 " fill="#FF0000"/>
<path class="atom-39" d="M 151.1 118.4 L 151.9 118.4 L 151.9 120.9 L 155.0 120.9 L 155.0 118.4 L 155.8 118.4 L 155.8 124.4 L 155.0 124.4 L 155.0 121.6 L 151.9 121.6 L 151.9 124.4 L 151.1 124.4 L 151.1 118.4 " fill="#FF0000"/>
<path class="atom-39" d="M 157.0 121.3 Q 157.0 119.9, 157.8 119.1 Q 158.5 118.3, 159.8 118.3 Q 161.1 118.3, 161.8 119.1 Q 162.6 119.9, 162.6 121.3 Q 162.6 122.8, 161.8 123.6 Q 161.1 124.4, 159.8 124.4 Q 158.5 124.4, 157.8 123.6 Q 157.0 122.8, 157.0 121.3 M 159.8 123.8 Q 160.7 123.8, 161.2 123.2 Q 161.7 122.5, 161.7 121.3 Q 161.7 120.2, 161.2 119.6 Q 160.7 119.0, 159.8 119.0 Q 158.9 119.0, 158.4 119.6 Q 157.9 120.2, 157.9 121.3 Q 157.9 122.6, 158.4 123.2 Q 158.9 123.8, 159.8 123.8 " fill="#FF0000"/>
</g>
    <g transform="translate(686.0, 0) scale(1 1) "><line x1="15" y1="100" x2="25" y2="100" style="stroke:rgb(0,0,0);stroke-width:2"/>
  <line x1="20" y1="95" x2="20" y2="105" style="stroke:rgb(0,0,0);stroke-width:2"/>
</g>
    <g transform="translate(726.0, 0) scale(1 1) "><!-- END OF HEADER -->
<rect style="opacity:1.0;fill:#FFFFFF;stroke:none" width="205.0" height="200.0" x="0.0" y="0.0"> </rect>
<path class="bond-0 atom-0 atom-1" d="M 122.6,44.3 L 108.8,89.2" style="fill:none;fill-rule:evenodd;stroke:#000000;stroke-width:2.0px;stroke-linecap:butt;stroke-linejoin:miter;stroke-opacity:1"/>
<path class="bond-1 atom-1 atom-2" d="M 108.8,89.2 L 95.0,134.1" style="fill:none;fill-rule:evenodd;stroke:#000000;stroke-width:2.0px;stroke-linecap:butt;stroke-linejoin:miter;stroke-opacity:1"/>
<path class="bond-2 atom-1 atom-3" d="M 108.8,89.2 L 63.9,75.4" style="fill:none;fill-rule:evenodd;stroke:#000000;stroke-width:2.0px;stroke-linecap:butt;stroke-linejoin:miter;stroke-opacity:1"/>
<path class="bond-3 atom-3 atom-4" d="M 63.9,75.4 L 50.5,87.9" style="fill:none;fill-rule:evenodd;stroke:#000000;stroke-width:2.0px;stroke-linecap:butt;stroke-linejoin:miter;stroke-opacity:1"/>
<path class="bond-3 atom-3 atom-4" d="M 50.5,87.9 L 37.2,100.3" style="fill:none;fill-rule:evenodd;stroke:#FF0000;stroke-width:2.0px;stroke-linecap:butt;stroke-linejoin:miter;stroke-opacity:1"/>
<path class="bond-4 atom-1 atom-5" d="M 108.8,89.2 L 153.7,103.0" style="fill:none;fill-rule:evenodd;stroke:#000000;stroke-width:2.0px;stroke-linecap:butt;stroke-linejoin:miter;stroke-opacity:1"/>
<path class="bond-5 atom-5 atom-6" d="M 154.7,107.0 L 168.8,93.8" style="fill:none;fill-rule:evenodd;stroke:#000000;stroke-width:2.0px;stroke-linecap:butt;stroke-linejoin:miter;stroke-opacity:1"/>
<path class="bond-5 atom-5 atom-6" d="M 168.8,93.8 L 182.9,80.7" style="fill:none;fill-rule:evenodd;stroke:#FF0000;stroke-width:2.0px;stroke-linecap:butt;stroke-linejoin:miter;stroke-opacity:1"/>
<path class="bond-5 atom-5 atom-6" d="M 149.9,101.8 L 164.0,88.7" style="fill:none;fill-rule:evenodd;stroke:#000000;stroke-width:2.0px;stroke-linecap:butt;stroke-linejoin:miter;stroke-opacity:1"/>
<path class="bond-5 atom-5 atom-6" d="M 164.0,88.7 L 178.1,75.5" style="fill:none;fill-rule:evenodd;stroke:#FF0000;stroke-width:2.0px;stroke-linecap:butt;stroke-linejoin:miter;stroke-opacity:1"/>
<path class="bond-6 atom-5 atom-7" d="M 153.7,103.0 L 158.0,121.7" style="fill:none;fill-rule:evenodd;stroke:#000000;stroke-width:2.0px;stroke-linecap:butt;stroke-linejoin:miter;stroke-opacity:1"/>
<path class="bond-6 atom-5 atom-7" d="M 158.0,121.7 L 162.4,140.5" style="fill:none;fill-rule:evenodd;stroke:#FF0000;stroke-width:2.0px;stroke-linecap:butt;stroke-linejoin:miter;stroke-opacity:1"/>
<path d="M 66.1,76.1 L 63.9,75.4 L 63.2,76.0" style="fill:none;stroke:#000000;stroke-width:2.0px;stroke-linecap:butt;stroke-linejoin:miter;stroke-opacity:1;"/>
<path d="M 151.5,102.3 L 153.7,103.0 L 154.0,103.9" style="fill:none;stroke:#000000;stroke-width:2.0px;stroke-linecap:butt;stroke-linejoin:miter;stroke-opacity:1;"/>
<path class="atom-4" d="M 10.2 100.8 L 12.1 100.8 L 12.1 106.5 L 18.9 106.5 L 18.9 100.8 L 20.7 100.8 L 20.7 114.1 L 18.9 114.1 L 18.9 108.0 L 12.1 108.0 L 12.1 114.1 L 10.2 114.1 L 10.2 100.8 " fill="#FF0000"/>
<path class="atom-4" d="M 23.4 107.5 Q 23.4 104.3, 25.0 102.5 Q 26.5 100.7, 29.5 100.7 Q 32.5 100.7, 34.0 102.5 Q 35.6 104.3, 35.6 107.5 Q 35.6 110.7, 34.0 112.5 Q 32.4 114.4, 29.5 114.4 Q 26.6 114.4, 25.0 112.5 Q 23.4 110.7, 23.4 107.5 M 29.5 112.9 Q 31.5 112.9, 32.6 111.5 Q 33.7 110.1, 33.7 107.5 Q 33.7 104.8, 32.6 103.5 Q 31.5 102.2, 29.5 102.2 Q 27.5 102.2, 26.4 103.5 Q 25.3 104.8, 25.3 107.5 Q 25.3 110.1, 26.4 111.5 Q 27.5 112.9, 29.5 112.9 " fill="#FF0000"/>
<path class="atom-6" d="M 182.0 71.0 Q 182.0 67.8, 183.6 66.0 Q 185.2 64.3, 188.1 64.3 Q 191.1 64.3, 192.7 66.0 Q 194.3 67.8, 194.3 71.0 Q 194.3 74.3, 192.7 76.1 Q 191.1 77.9, 188.1 77.9 Q 185.2 77.9, 183.6 76.1 Q 182.0 74.3, 182.0 71.0 M 188.1 76.4 Q 190.2 76.4, 191.3 75.1 Q 192.4 73.7, 192.4 71.0 Q 192.4 68.4, 191.3 67.1 Q 190.2 65.8, 188.1 65.8 Q 186.1 65.8, 185.0 67.1 Q 183.9 68.4, 183.9 71.0 Q 183.9 73.7, 185.0 75.1 Q 186.1 76.4, 188.1 76.4 " fill="#FF0000"/>
<path class="atom-7" d="M 158.2 148.8 Q 158.2 145.6, 159.7 143.8 Q 161.3 142.1, 164.3 142.1 Q 167.2 142.1, 168.8 143.8 Q 170.4 145.6, 170.4 148.8 Q 170.4 152.1, 168.8 153.9 Q 167.2 155.7, 164.3 155.7 Q 161.3 155.7, 159.7 153.9 Q 158.2 152.1, 158.2 148.8 M 164.3 154.2 Q 166.3 154.2, 167.4 152.9 Q 168.5 151.5, 168.5 148.8 Q 168.5 146.2, 167.4 144.9 Q 166.3 143.6, 164.3 143.6 Q 162.2 143.6, 161.1 144.9 Q 160.0 146.2, 160.0 148.8 Q 160.0 151.5, 161.1 152.9 Q 162.2 154.2, 164.3 154.2 " fill="#FF0000"/>
<path class="atom-7" d="M 172.4 142.2 L 174.2 142.2 L 174.2 147.9 L 181.0 147.9 L 181.0 142.2 L 182.9 142.2 L 182.9 155.5 L 181.0 155.5 L 181.0 149.4 L 174.2 149.4 L 174.2 155.5 L 172.4 155.5 L 172.4 142.2 " fill="#FF0000"/>
</g>
  </g>
</svg>
