<?xml version='1.0' encoding='ASCII' standalone='yes'?>
<svg xmlns="http://www.w3.org/2000/svg" xmlns:xlink="http://www.w3.org/1999/xlink" version="1.1" width="775.0px" viewBox="0 0 775.0 200.0" height="200.0px">
  <g>
    <g transform="translate(0, 0) scale(1 1) "><!-- END OF HEADER -->
<rect style="opacity:1.0;fill:#FFFFFF;stroke:none" width="233.0" height="200.0" x="0.0" y="0.0"> </rect>
<path class="bond-0 atom-0 atom-1" d="M 220.1,126.0 L 174.8,157.4" style="fill:none;fill-rule:evenodd;stroke:#000000;stroke-width:2.0px;stroke-linecap:butt;stroke-linejoin:miter;stroke-opacity:1"/>
<path class="bond-1 atom-1 atom-2" d="M 174.8,157.4 L 125.0,133.9" style="fill:none;fill-rule:evenodd;stroke:#000000;stroke-width:2.0px;stroke-linecap:butt;stroke-linejoin:miter;stroke-opacity:1"/>
<path class="bond-2 atom-2 atom-3" d="M 125.0,133.9 L 79.8,165.3" style="fill:none;fill-rule:evenodd;stroke:#000000;stroke-width:2.0px;stroke-linecap:butt;stroke-linejoin:miter;stroke-opacity:1"/>
<path class="bond-3 atom-2 atom-4" d="M 125.0,133.9 L 120.5,79.0" style="fill:none;fill-rule:evenodd;stroke:#000000;stroke-width:2.0px;stroke-linecap:butt;stroke-linejoin:miter;stroke-opacity:1"/>
<path class="bond-4 atom-4 atom-5" d="M 120.5,79.0 L 115.9,24.1" style="fill:none;fill-rule:evenodd;stroke:#000000;stroke-width:2.0px;stroke-linecap:butt;stroke-linejoin:miter;stroke-opacity:1"/>
<path class="bond-5 atom-4 atom-6" d="M 120.5,79.0 L 175.4,74.4" style="fill:none;fill-rule:evenodd;stroke:#000000;stroke-width:2.0px;stroke-linecap:butt;stroke-linejoin:miter;stroke-opacity:1"/>
<path class="bond-6 atom-6 atom-7" d="M 175.4,74.4 L 184.8,54.5" style="fill:none;fill-rule:evenodd;stroke:#000000;stroke-width:2.0px;stroke-linecap:butt;stroke-linejoin:miter;stroke-opacity:1"/>
<path class="bond-6 atom-6 atom-7" d="M 184.8,54.5 L 194.2,34.6" style="fill:none;fill-rule:evenodd;stroke:#FF0000;stroke-width:2.0px;stroke-linecap:butt;stroke-linejoin:miter;stroke-opacity:1"/>
<path class="bond-7 atom-4 atom-8" d="M 120.5,79.0 L 65.6,83.5" style="fill:none;fill-rule:evenodd;stroke:#000000;stroke-width:2.0px;stroke-linecap:butt;stroke-linejoin:miter;stroke-opacity:1"/>
<path class="bond-8 atom-8 atom-9" d="M 62.9,79.6 L 52.9,100.8" style="fill:none;fill-rule:evenodd;stroke:#000000;stroke-width:2.0px;stroke-linecap:butt;stroke-linejoin:miter;stroke-opacity:1"/>
<path class="bond-8 atom-8 atom-9" d="M 52.9,100.8 L 42.9,121.9" style="fill:none;fill-rule:evenodd;stroke:#FF0000;stroke-width:2.0px;stroke-linecap:butt;stroke-linejoin:miter;stroke-opacity:1"/>
<path class="bond-8 atom-8 atom-9" d="M 70.4,83.2 L 60.4,104.3" style="fill:none;fill-rule:evenodd;stroke:#000000;stroke-width:2.0px;stroke-linecap:butt;stroke-linejoin:miter;stroke-opacity:1"/>
<path class="bond-8 atom-8 atom-9" d="M 60.4,104.3 L 50.4,125.4" style="fill:none;fill-rule:evenodd;stroke:#FF0000;stroke-width:2.0px;stroke-linecap:butt;stroke-linejoin:miter;stroke-opacity:1"/>
<path class="bond-9 atom-8 atom-10" d="M 65.6,83.5 L 53.4,65.9" style="fill:none;fill-rule:evenodd;stroke:#000000;stroke-width:2.0px;stroke-linecap:butt;stroke-linejoin:miter;stroke-opacity:1"/>
<path class="bond-9 atom-8 atom-10" d="M 53.4,65.9 L 41.1,48.2" style="fill:none;fill-rule:evenodd;stroke:#FF0000;stroke-width:2.0px;stroke-linecap:butt;stroke-linejoin:miter;stroke-opacity:1"/>
<path d="M 177.1,155.8 L 174.8,157.4 L 172.4,156.2" style="fill:none;stroke:#000000;stroke-width:2.0px;stroke-linecap:butt;stroke-linejoin:miter;stroke-opacity:1;"/>
<path d="M 172.6,74.7 L 175.4,74.4 L 175.8,73.4" style="fill:none;stroke:#000000;stroke-width:2.0px;stroke-linecap:butt;stroke-linejoin:miter;stroke-opacity:1;"/>
<path d="M 68.3,83.3 L 65.6,83.5 L 65.0,82.7" style="fill:none;stroke:#000000;stroke-width:2.0px;stroke-linecap:butt;stroke-linejoin:miter;stroke-opacity:1;"/>
<path class="atom-7" d="M 191.7 24.7 Q 191.7 20.9, 193.6 18.8 Q 195.4 16.7, 198.9 16.7 Q 202.3 16.7, 204.2 18.8 Q 206.0 20.9, 206.0 24.7 Q 206.0 28.5, 204.1 30.6 Q 202.3 32.8, 198.9 32.8 Q 195.4 32.8, 193.6 30.6 Q 191.7 28.5, 191.7 24.7 M 198.9 31.0 Q 201.2 31.0, 202.5 29.4 Q 203.8 27.8, 203.8 24.7 Q 203.8 21.6, 202.5 20.1 Q 201.2 18.5, 198.9 18.5 Q 196.5 18.5, 195.2 20.0 Q 193.9 21.6, 193.9 24.7 Q 193.9 27.8, 195.2 29.4 Q 196.5 31.0, 198.9 31.0 " fill="#FF0000"/>
<path class="atom-7" d="M 208.4 16.9 L 210.6 16.9 L 210.6 23.5 L 218.5 23.5 L 218.5 16.9 L 220.7 16.9 L 220.7 32.5 L 218.5 32.5 L 218.5 25.3 L 210.6 25.3 L 210.6 32.5 L 208.4 32.5 L 208.4 16.9 " fill="#FF0000"/>
<path class="atom-9" d="M 34.9 133.4 Q 34.9 129.7, 36.8 127.6 Q 38.6 125.5, 42.1 125.5 Q 45.6 125.5, 47.4 127.6 Q 49.3 129.7, 49.3 133.4 Q 49.3 137.2, 47.4 139.3 Q 45.5 141.5, 42.1 141.5 Q 38.7 141.5, 36.8 139.3 Q 34.9 137.2, 34.9 133.4 M 42.1 139.7 Q 44.5 139.7, 45.8 138.1 Q 47.1 136.5, 47.1 133.4 Q 47.1 130.3, 45.8 128.8 Q 44.5 127.2, 42.1 127.2 Q 39.7 127.2, 38.4 128.8 Q 37.1 130.3, 37.1 133.4 Q 37.1 136.6, 38.4 138.1 Q 39.7 139.7, 42.1 139.7 " fill="#FF0000"/>
<path class="atom-10" d="M 11.6 30.6 L 13.8 30.6 L 13.8 37.2 L 21.7 37.2 L 21.7 30.6 L 23.9 30.6 L 23.9 46.2 L 21.7 46.2 L 21.7 39.0 L 13.8 39.0 L 13.8 46.2 L 11.6 46.2 L 11.6 30.6 " fill="#FF0000"/>
<path class="atom-10" d="M 27.1 38.3 Q 27.1 34.6, 28.9 32.5 Q 30.8 30.4, 34.2 30.4 Q 37.7 30.4, 39.5 32.5 Q 41.4 34.6, 41.4 38.3 Q 41.4 42.1, 39.5 44.3 Q 37.6 46.4, 34.2 46.4 Q 30.8 46.4, 28.9 44.3 Q 27.1 42.2, 27.1 38.3 M 34.2 44.7 Q 36.6 44.7, 37.9 43.1 Q 39.2 41.5, 39.2 38.3 Q 39.2 35.3, 37.9 33.7 Q 36.6 32.2, 34.2 32.2 Q 31.8 32.2, 30.5 33.7 Q 29.3 35.3, 29.3 38.3 Q 29.3 41.5, 30.5 43.1 Q 31.8 44.7, 34.2 44.7 " fill="#FF0000"/>
<path class="legend" d="M 107.1 181.9 Q 107.1 179.6, 107.8 177.7 Q 108.5 175.8, 109.8 173.8 L 110.7 174.4 Q 109.6 176.3, 109.1 178.0 Q 108.6 179.7, 108.6 181.9 Q 108.6 184.0, 109.1 185.8 Q 109.6 187.5, 110.7 189.4 L 109.8 190.0 Q 108.5 188.0, 107.8 186.1 Q 107.1 184.2, 107.1 181.9 " fill="#000000"/>
<path class="legend" d="M 111.6 177.3 Q 112.0 176.2, 113.0 175.6 Q 114.0 175.0, 115.4 175.0 Q 117.1 175.0, 118.0 175.9 Q 119.0 176.8, 119.0 178.5 Q 119.0 180.2, 117.7 181.7 Q 116.5 183.3, 114.0 185.2 L 119.2 185.2 L 119.2 186.4 L 111.6 186.4 L 111.6 185.4 Q 113.7 183.9, 114.9 182.8 Q 116.2 181.6, 116.8 180.6 Q 117.4 179.6, 117.4 178.6 Q 117.4 177.5, 116.9 176.9 Q 116.3 176.3, 115.4 176.3 Q 114.5 176.3, 113.8 176.6 Q 113.2 177.0, 112.8 177.8 L 111.6 177.3 " fill="#000000"/>
<path class="legend" d="M 124.2 181.9 Q 124.2 184.2, 123.5 186.1 Q 122.8 188.0, 121.5 190.0 L 120.6 189.4 Q 121.7 187.5, 122.2 185.8 Q 122.7 184.0, 122.7 181.9 Q 122.7 179.7, 122.2 178.0 Q 121.7 176.3, 120.6 174.4 L 121.5 173.8 Q 122.8 175.8, 123.5 177.7 Q 124.2 179.6, 124.2 181.9 " fill="#000000"/>
</g>
    <g transform="translate(233.0, 0) scale(1 1) "><line x1="5" y1="100" x2="35" y2="100" style="stroke:rgb(0,0,0);stroke-width:2"/>
  <line x1="34" y1="100" x2="29" y2="95" style="stroke:rgb(0,0,0);stroke-width:2"/>
  <line x1="34" y1="100" x2="29" y2="105" style="stroke:rgb(0,0,0);stroke-width:2"/>
</g>
    <g transform="translate(273.0, 0) scale(1 1) "><!-- END OF HEADER -->
<rect style="opacity:1.0;fill:#FFFFFF;stroke:none" width="215.0" height="200.0" x="0.0" y="0.0"> </rect>
<path class="bond-0 atom-0 atom-1" d="M 61.9,36.0 L 106.2,60.7" style="fill:none;fill-rule:evenodd;stroke:#000000;stroke-width:2.0px;stroke-linecap:butt;stroke-linejoin:miter;stroke-opacity:1"/>
<path class="bond-1 atom-1 atom-2" d="M 106.2,60.7 L 107.0,111.4" style="fill:none;fill-rule:evenodd;stroke:#000000;stroke-width:2.0px;stroke-linecap:butt;stroke-linejoin:miter;stroke-opacity:1"/>
<path class="bond-2 atom-2 atom-3" d="M 107.0,111.4 L 107.7,162.2" style="fill:none;fill-rule:evenodd;stroke:#000000;stroke-width:2.0px;stroke-linecap:butt;stroke-linejoin:miter;stroke-opacity:1"/>
<path class="bond-3 atom-2 atom-4" d="M 107.0,111.4 L 56.2,112.2" style="fill:none;fill-rule:evenodd;stroke:#000000;stroke-width:2.0px;stroke-linecap:butt;stroke-linejoin:miter;stroke-opacity:1"/>
<path class="bond-4 atom-4 atom-5" d="M 56.2,112.2 L 46.4,129.9" style="fill:none;fill-rule:evenodd;stroke:#000000;stroke-width:2.0px;stroke-linecap:butt;stroke-linejoin:miter;stroke-opacity:1"/>
<path class="bond-4 atom-4 atom-5" d="M 46.4,129.9 L 36.5,147.6" style="fill:none;fill-rule:evenodd;stroke:#FF0000;stroke-width:2.0px;stroke-linecap:butt;stroke-linejoin:miter;stroke-opacity:1"/>
<path class="bond-5 atom-2 atom-6" d="M 107.0,111.4 L 157.7,110.7" style="fill:none;fill-rule:evenodd;stroke:#000000;stroke-width:2.0px;stroke-linecap:butt;stroke-linejoin:miter;stroke-opacity:1"/>
<path class="bond-6 atom-6 atom-7" d="M 159.9,114.5 L 170.3,95.9" style="fill:none;fill-rule:evenodd;stroke:#000000;stroke-width:2.0px;stroke-linecap:butt;stroke-linejoin:miter;stroke-opacity:1"/>
<path class="bond-6 atom-6 atom-7" d="M 170.3,95.9 L 180.6,77.4" style="fill:none;fill-rule:evenodd;stroke:#FF0000;stroke-width:2.0px;stroke-linecap:butt;stroke-linejoin:miter;stroke-opacity:1"/>
<path class="bond-6 atom-6 atom-7" d="M 153.3,110.8 L 163.6,92.2" style="fill:none;fill-rule:evenodd;stroke:#000000;stroke-width:2.0px;stroke-linecap:butt;stroke-linejoin:miter;stroke-opacity:1"/>
<path class="bond-6 atom-6 atom-7" d="M 163.6,92.2 L 173.9,73.7" style="fill:none;fill-rule:evenodd;stroke:#FF0000;stroke-width:2.0px;stroke-linecap:butt;stroke-linejoin:miter;stroke-opacity:1"/>
<path class="bond-7 atom-6 atom-8" d="M 157.7,110.7 L 168.0,128.0" style="fill:none;fill-rule:evenodd;stroke:#000000;stroke-width:2.0px;stroke-linecap:butt;stroke-linejoin:miter;stroke-opacity:1"/>
<path class="bond-7 atom-6 atom-8" d="M 168.0,128.0 L 178.3,145.3" style="fill:none;fill-rule:evenodd;stroke:#FF0000;stroke-width:2.0px;stroke-linecap:butt;stroke-linejoin:miter;stroke-opacity:1"/>
<path d="M 104.0,59.5 L 106.2,60.7 L 106.2,63.3" style="fill:none;stroke:#000000;stroke-width:2.0px;stroke-linecap:butt;stroke-linejoin:miter;stroke-opacity:1;"/>
<path d="M 58.8,112.2 L 56.2,112.2 L 55.7,113.1" style="fill:none;stroke:#000000;stroke-width:2.0px;stroke-linecap:butt;stroke-linejoin:miter;stroke-opacity:1;"/>
<path d="M 155.1,110.7 L 157.7,110.7 L 158.2,111.6" style="fill:none;stroke:#000000;stroke-width:2.0px;stroke-linecap:butt;stroke-linejoin:miter;stroke-opacity:1;"/>
<path class="atom-5" d="M 10.8 149.4 L 12.7 149.4 L 12.7 155.5 L 20.0 155.5 L 20.0 149.4 L 22.0 149.4 L 22.0 163.8 L 20.0 163.8 L 20.0 157.1 L 12.7 157.1 L 12.7 163.8 L 10.8 163.8 L 10.8 149.4 " fill="#FF0000"/>
<path class="atom-5" d="M 24.9 156.5 Q 24.9 153.1, 26.6 151.2 Q 28.3 149.2, 31.5 149.2 Q 34.7 149.2, 36.4 151.2 Q 38.1 153.1, 38.1 156.5 Q 38.1 160.0, 36.4 162.0 Q 34.7 164.0, 31.5 164.0 Q 28.4 164.0, 26.6 162.0 Q 24.9 160.0, 24.9 156.5 M 31.5 162.4 Q 33.7 162.4, 34.9 160.9 Q 36.1 159.4, 36.1 156.5 Q 36.1 153.7, 34.9 152.3 Q 33.7 150.9, 31.5 150.9 Q 29.3 150.9, 28.1 152.3 Q 27.0 153.7, 27.0 156.5 Q 27.0 159.4, 28.1 160.9 Q 29.3 162.4, 31.5 162.4 " fill="#FF0000"/>
<path class="atom-7" d="M 175.8 66.4 Q 175.8 63.0, 177.5 61.1 Q 179.2 59.1, 182.4 59.1 Q 185.6 59.1, 187.3 61.1 Q 189.0 63.0, 189.0 66.4 Q 189.0 69.9, 187.2 71.9 Q 185.5 73.9, 182.4 73.9 Q 179.2 73.9, 177.5 71.9 Q 175.8 69.9, 175.8 66.4 M 182.4 72.2 Q 184.6 72.2, 185.7 70.8 Q 186.9 69.3, 186.9 66.4 Q 186.9 63.6, 185.7 62.2 Q 184.6 60.7, 182.4 60.7 Q 180.2 60.7, 179.0 62.2 Q 177.8 63.6, 177.8 66.4 Q 177.8 69.3, 179.0 70.8 Q 180.2 72.2, 182.4 72.2 " fill="#FF0000"/>
<path class="atom-8" d="M 177.1 154.3 Q 177.1 150.8, 178.8 148.9 Q 180.5 147.0, 183.7 147.0 Q 186.9 147.0, 188.6 148.9 Q 190.3 150.8, 190.3 154.3 Q 190.3 157.8, 188.5 159.7 Q 186.8 161.7, 183.7 161.7 Q 180.5 161.7, 178.8 159.7 Q 177.1 157.8, 177.1 154.3 M 183.7 160.1 Q 185.9 160.1, 187.0 158.6 Q 188.2 157.2, 188.2 154.3 Q 188.2 151.5, 187.0 150.0 Q 185.9 148.6, 183.7 148.6 Q 181.5 148.6, 180.3 150.0 Q 179.1 151.4, 179.1 154.3 Q 179.1 157.2, 180.3 158.6 Q 181.5 160.1, 183.7 160.1 " fill="#FF0000"/>
<path class="atom-8" d="M 192.5 147.1 L 194.5 147.1 L 194.5 153.2 L 201.8 153.2 L 201.8 147.1 L 203.8 147.1 L 203.8 161.5 L 201.8 161.5 L 201.8 154.9 L 194.5 154.9 L 194.5 161.5 L 192.5 161.5 L 192.5 147.1 " fill="#FF0000"/>
</g>
    <g transform="translate(488.0, 0) scale(1 1) "><line x1="15" y1="100" x2="25" y2="100" style="stroke:rgb(0,0,0);stroke-width:2"/>
  <line x1="20" y1="95" x2="20" y2="105" style="stroke:rgb(0,0,0);stroke-width:2"/>
</g>
    <g transform="translate(528.0, 0) scale(1 1) "><!-- END OF HEADER -->
<rect style="opacity:1.0;fill:#FFFFFF;stroke:none" width="247.0" height="200.0" x="0.0" y="0.0"> </rect>
<path class="bond-0 atom-0 atom-1" d="M 209.6,54.1 L 228.9,101.8" style="fill:none;fill-rule:evenodd;stroke:#000000;stroke-width:2.0px;stroke-linecap:butt;stroke-linejoin:miter;stroke-opacity:1"/>
<path class="bond-1 atom-1 atom-2" d="M 228.9,101.8 L 197.3,142.4" style="fill:none;fill-rule:evenodd;stroke:#000000;stroke-width:2.0px;stroke-linecap:butt;stroke-linejoin:miter;stroke-opacity:1"/>
<path class="bond-2 atom-2 atom-3" d="M 197.3,142.4 L 216.6,190.0" style="fill:none;fill-rule:evenodd;stroke:#000000;stroke-width:2.0px;stroke-linecap:butt;stroke-linejoin:miter;stroke-opacity:1"/>
<path class="bond-3 atom-2 atom-4" d="M 197.3,142.4 L 146.4,135.3" style="fill:none;fill-rule:evenodd;stroke:#000000;stroke-width:2.0px;stroke-linecap:butt;stroke-linejoin:miter;stroke-opacity:1"/>
<path class="bond-4 atom-4 atom-5" d="M 146.4,135.3 L 114.8,175.8" style="fill:none;fill-rule:evenodd;stroke:#000000;stroke-width:2.0px;stroke-linecap:butt;stroke-linejoin:miter;stroke-opacity:1"/>
<path class="bond-5 atom-4 atom-6" d="M 146.4,135.3 L 127.1,87.6" style="fill:none;fill-rule:evenodd;stroke:#000000;stroke-width:2.0px;stroke-linecap:butt;stroke-linejoin:miter;stroke-opacity:1"/>
<path class="bond-6 atom-6 atom-7" d="M 127.1,87.6 L 107.7,40.0" style="fill:none;fill-rule:evenodd;stroke:#000000;stroke-width:2.0px;stroke-linecap:butt;stroke-linejoin:miter;stroke-opacity:1"/>
<path class="bond-7 atom-6 atom-8" d="M 127.1,87.6 L 174.7,68.3" style="fill:none;fill-rule:evenodd;stroke:#000000;stroke-width:2.0px;stroke-linecap:butt;stroke-linejoin:miter;stroke-opacity:1"/>
<path class="bond-8 atom-8 atom-9" d="M 174.7,68.3 L 177.6,47.5" style="fill:none;fill-rule:evenodd;stroke:#000000;stroke-width:2.0px;stroke-linecap:butt;stroke-linejoin:miter;stroke-opacity:1"/>
<path class="bond-8 atom-8 atom-9" d="M 177.6,47.5 L 180.5,26.6" style="fill:none;fill-rule:evenodd;stroke:#FF0000;stroke-width:2.0px;stroke-linecap:butt;stroke-linejoin:miter;stroke-opacity:1"/>
<path class="bond-9 atom-6 atom-10" d="M 127.1,87.6 L 79.4,106.9" style="fill:none;fill-rule:evenodd;stroke:#000000;stroke-width:2.0px;stroke-linecap:butt;stroke-linejoin:miter;stroke-opacity:1"/>
<path class="bond-10 atom-10 atom-11" d="M 75.9,104.2 L 72.8,126.2" style="fill:none;fill-rule:evenodd;stroke:#000000;stroke-width:2.0px;stroke-linecap:butt;stroke-linejoin:miter;stroke-opacity:1"/>
<path class="bond-10 atom-10 atom-11" d="M 72.8,126.2 L 69.8,148.3" style="fill:none;fill-rule:evenodd;stroke:#FF0000;stroke-width:2.0px;stroke-linecap:butt;stroke-linejoin:miter;stroke-opacity:1"/>
<path class="bond-10 atom-10 atom-11" d="M 83.5,105.3 L 80.5,127.3" style="fill:none;fill-rule:evenodd;stroke:#000000;stroke-width:2.0px;stroke-linecap:butt;stroke-linejoin:miter;stroke-opacity:1"/>
<path class="bond-10 atom-10 atom-11" d="M 80.5,127.3 L 77.4,149.3" style="fill:none;fill-rule:evenodd;stroke:#FF0000;stroke-width:2.0px;stroke-linecap:butt;stroke-linejoin:miter;stroke-opacity:1"/>
<path class="bond-11 atom-10 atom-12" d="M 79.4,106.9 L 63.3,94.4" style="fill:none;fill-rule:evenodd;stroke:#000000;stroke-width:2.0px;stroke-linecap:butt;stroke-linejoin:miter;stroke-opacity:1"/>
<path class="bond-11 atom-10 atom-12" d="M 63.3,94.4 L 47.2,81.9" style="fill:none;fill-rule:evenodd;stroke:#FF0000;stroke-width:2.0px;stroke-linecap:butt;stroke-linejoin:miter;stroke-opacity:1"/>
<path d="M 227.9,99.4 L 228.9,101.8 L 227.3,103.8" style="fill:none;stroke:#000000;stroke-width:2.0px;stroke-linecap:butt;stroke-linejoin:miter;stroke-opacity:1;"/>
<path d="M 172.3,69.3 L 174.7,68.3 L 174.9,67.2" style="fill:none;stroke:#000000;stroke-width:2.0px;stroke-linecap:butt;stroke-linejoin:miter;stroke-opacity:1;"/>
<path d="M 81.8,106.0 L 79.4,106.9 L 78.6,106.3" style="fill:none;stroke:#000000;stroke-width:2.0px;stroke-linecap:butt;stroke-linejoin:miter;stroke-opacity:1;"/>
<path class="atom-9" d="M 175.1 17.4 Q 175.1 13.9, 176.8 12.0 Q 178.6 10.0, 181.8 10.0 Q 185.0 10.0, 186.8 12.0 Q 188.5 13.9, 188.5 17.4 Q 188.5 20.9, 186.7 23.0 Q 185.0 25.0, 181.8 25.0 Q 178.6 25.0, 176.8 23.0 Q 175.1 21.0, 175.1 17.4 M 181.8 23.3 Q 184.0 23.3, 185.2 21.8 Q 186.4 20.3, 186.4 17.4 Q 186.4 14.5, 185.2 13.1 Q 184.0 11.6, 181.8 11.6 Q 179.6 11.6, 178.4 13.1 Q 177.2 14.5, 177.2 17.4 Q 177.2 20.3, 178.4 21.8 Q 179.6 23.3, 181.8 23.3 " fill="#FF0000"/>
<path class="atom-9" d="M 190.7 10.2 L 192.7 10.2 L 192.7 16.4 L 200.2 16.4 L 200.2 10.2 L 202.1 10.2 L 202.1 24.7 L 200.2 24.7 L 200.2 18.0 L 192.7 18.0 L 192.7 24.7 L 190.7 24.7 L 190.7 10.2 " fill="#FF0000"/>
<path class="atom-11" d="M 65.6 157.9 Q 65.6 154.4, 67.4 152.5 Q 69.1 150.5, 72.3 150.5 Q 75.6 150.5, 77.3 152.5 Q 79.0 154.4, 79.0 157.9 Q 79.0 161.4, 77.3 163.5 Q 75.5 165.5, 72.3 165.5 Q 69.1 165.5, 67.4 163.5 Q 65.6 161.5, 65.6 157.9 M 72.3 163.8 Q 74.5 163.8, 75.7 162.3 Q 77.0 160.8, 77.0 157.9 Q 77.0 155.0, 75.7 153.6 Q 74.5 152.1, 72.3 152.1 Q 70.1 152.1, 68.9 153.6 Q 67.7 155.0, 67.7 157.9 Q 67.7 160.8, 68.9 162.3 Q 70.1 163.8, 72.3 163.8 " fill="#FF0000"/>
<path class="atom-12" d="M 17.8 68.1 L 19.8 68.1 L 19.8 74.3 L 27.2 74.3 L 27.2 68.1 L 29.2 68.1 L 29.2 82.7 L 27.2 82.7 L 27.2 76.0 L 19.8 76.0 L 19.8 82.7 L 17.8 82.7 L 17.8 68.1 " fill="#FF0000"/>
<path class="atom-12" d="M 32.2 75.4 Q 32.2 71.9, 33.9 69.9 Q 35.6 68.0, 38.9 68.0 Q 42.1 68.0, 43.8 69.9 Q 45.5 71.9, 45.5 75.4 Q 45.5 78.9, 43.8 80.9 Q 42.0 82.9, 38.9 82.9 Q 35.6 82.9, 33.9 80.9 Q 32.2 78.9, 32.2 75.4 M 38.9 81.3 Q 41.1 81.3, 42.3 79.8 Q 43.5 78.3, 43.5 75.4 Q 43.5 72.5, 42.3 71.1 Q 41.1 69.6, 38.9 69.6 Q 36.6 69.6, 35.4 71.1 Q 34.2 72.5, 34.2 75.4 Q 34.2 78.3, 35.4 79.8 Q 36.6 81.3, 38.9 81.3 " fill="#FF0000"/>
</g>
  </g>
</svg>
