<?xml version='1.0' encoding='ASCII' standalone='yes'?>
<svg xmlns="http://www.w3.org/2000/svg" xmlns:xlink="http://www.w3.org/1999/xlink" version="1.1" width="618.0px" viewBox="0 0 618.0 200.0" height="200.0px">
  <g>
    <g transform="translate(0, 0) scale(1 1) "><!-- END OF HEADER -->
<rect style="opacity:1.0;fill:#FFFFFF;stroke:none" width="289.0" height="200.0" x="0.0" y="0.0"> </rect>
<path class="bond-0 atom-0 atom-1" d="M 202.6,58.9 L 204.2,94.7" style="fill:none;fill-rule:evenodd;stroke:#000000;stroke-width:2.0px;stroke-linecap:butt;stroke-linejoin:miter;stroke-opacity:1"/>
<path class="bond-1 atom-1 atom-2" d="M 204.2,94.7 L 205.7,130.5" style="fill:none;fill-rule:evenodd;stroke:#000000;stroke-width:2.0px;stroke-linecap:butt;stroke-linejoin:miter;stroke-opacity:1"/>
<path class="bond-2 atom-1 atom-3" d="M 204.2,94.7 L 168.3,96.3" style="fill:none;fill-rule:evenodd;stroke:#000000;stroke-width:2.0px;stroke-linecap:butt;stroke-linejoin:miter;stroke-opacity:1"/>
<path class="bond-3 atom-3 atom-4" d="M 168.3,96.3 L 151.7,128.1" style="fill:none;fill-rule:evenodd;stroke:#000000;stroke-width:2.0px;stroke-linecap:butt;stroke-linejoin:miter;stroke-opacity:1"/>
<path class="bond-4 atom-4 atom-5" d="M 151.7,128.1 L 115.9,129.6" style="fill:none;fill-rule:evenodd;stroke:#000000;stroke-width:2.0px;stroke-linecap:butt;stroke-linejoin:miter;stroke-opacity:1"/>
<path class="bond-5 atom-5 atom-6" d="M 115.9,129.6 L 80.1,131.2" style="fill:none;fill-rule:evenodd;stroke:#000000;stroke-width:2.0px;stroke-linecap:butt;stroke-linejoin:miter;stroke-opacity:1"/>
<path class="bond-6 atom-5 atom-7" d="M 115.9,129.6 L 114.4,93.8" style="fill:none;fill-rule:evenodd;stroke:#000000;stroke-width:2.0px;stroke-linecap:butt;stroke-linejoin:miter;stroke-opacity:1"/>
<path class="bond-7 atom-7 atom-8" d="M 114.4,93.8 L 82.6,77.2" style="fill:none;fill-rule:evenodd;stroke:#000000;stroke-width:2.0px;stroke-linecap:butt;stroke-linejoin:miter;stroke-opacity:1"/>
<path class="bond-8 atom-8 atom-9" d="M 82.6,77.2 L 50.8,60.6" style="fill:none;fill-rule:evenodd;stroke:#000000;stroke-width:2.0px;stroke-linecap:butt;stroke-linejoin:miter;stroke-opacity:1"/>
<path class="bond-9 atom-8 atom-10" d="M 82.6,77.2 L 66.0,109.0" style="fill:none;fill-rule:evenodd;stroke:#000000;stroke-width:2.0px;stroke-linecap:butt;stroke-linejoin:miter;stroke-opacity:1"/>
<path class="bond-10 atom-10 atom-11" d="M 66.0,109.0 L 51.0,109.7" style="fill:none;fill-rule:evenodd;stroke:#000000;stroke-width:2.0px;stroke-linecap:butt;stroke-linejoin:miter;stroke-opacity:1"/>
<path class="bond-10 atom-10 atom-11" d="M 51.0,109.7 L 36.0,110.3" style="fill:none;fill-rule:evenodd;stroke:#FF0000;stroke-width:2.0px;stroke-linecap:butt;stroke-linejoin:miter;stroke-opacity:1"/>
<path class="bond-11 atom-8 atom-12" d="M 82.6,77.2 L 99.1,45.4" style="fill:none;fill-rule:evenodd;stroke:#000000;stroke-width:2.0px;stroke-linecap:butt;stroke-linejoin:miter;stroke-opacity:1"/>
<path class="bond-12 atom-12 atom-13" d="M 97.7,48.2 L 113.5,47.5" style="fill:none;fill-rule:evenodd;stroke:#000000;stroke-width:2.0px;stroke-linecap:butt;stroke-linejoin:miter;stroke-opacity:1"/>
<path class="bond-12 atom-12 atom-13" d="M 113.5,47.5 L 129.2,46.8" style="fill:none;fill-rule:evenodd;stroke:#FF0000;stroke-width:2.0px;stroke-linecap:butt;stroke-linejoin:miter;stroke-opacity:1"/>
<path class="bond-12 atom-12 atom-13" d="M 97.5,42.8 L 113.2,42.1" style="fill:none;fill-rule:evenodd;stroke:#000000;stroke-width:2.0px;stroke-linecap:butt;stroke-linejoin:miter;stroke-opacity:1"/>
<path class="bond-12 atom-12 atom-13" d="M 113.2,42.1 L 129.0,41.4" style="fill:none;fill-rule:evenodd;stroke:#FF0000;stroke-width:2.0px;stroke-linecap:butt;stroke-linejoin:miter;stroke-opacity:1"/>
<path class="bond-13 atom-12 atom-14" d="M 99.1,45.4 L 91.6,33.5" style="fill:none;fill-rule:evenodd;stroke:#000000;stroke-width:2.0px;stroke-linecap:butt;stroke-linejoin:miter;stroke-opacity:1"/>
<path class="bond-13 atom-12 atom-14" d="M 91.6,33.5 L 84.0,21.6" style="fill:none;fill-rule:evenodd;stroke:#FF0000;stroke-width:2.0px;stroke-linecap:butt;stroke-linejoin:miter;stroke-opacity:1"/>
<path class="bond-14 atom-5 atom-15" d="M 115.9,129.6 L 117.5,165.4" style="fill:none;fill-rule:evenodd;stroke:#000000;stroke-width:2.0px;stroke-linecap:butt;stroke-linejoin:miter;stroke-opacity:1"/>
<path class="bond-15 atom-15 atom-16" d="M 114.8,167.1 L 128.5,174.2" style="fill:none;fill-rule:evenodd;stroke:#000000;stroke-width:2.0px;stroke-linecap:butt;stroke-linejoin:miter;stroke-opacity:1"/>
<path class="bond-15 atom-15 atom-16" d="M 128.5,174.2 L 142.2,181.4" style="fill:none;fill-rule:evenodd;stroke:#FF0000;stroke-width:2.0px;stroke-linecap:butt;stroke-linejoin:miter;stroke-opacity:1"/>
<path class="bond-15 atom-15 atom-16" d="M 117.3,162.3 L 131.0,169.5" style="fill:none;fill-rule:evenodd;stroke:#000000;stroke-width:2.0px;stroke-linecap:butt;stroke-linejoin:miter;stroke-opacity:1"/>
<path class="bond-15 atom-15 atom-16" d="M 131.0,169.5 L 144.7,176.6" style="fill:none;fill-rule:evenodd;stroke:#FF0000;stroke-width:2.0px;stroke-linecap:butt;stroke-linejoin:miter;stroke-opacity:1"/>
<path class="bond-16 atom-15 atom-17" d="M 117.5,165.4 L 105.3,173.2" style="fill:none;fill-rule:evenodd;stroke:#000000;stroke-width:2.0px;stroke-linecap:butt;stroke-linejoin:miter;stroke-opacity:1"/>
<path class="bond-16 atom-15 atom-17" d="M 105.3,173.2 L 93.0,181.0" style="fill:none;fill-rule:evenodd;stroke:#FF0000;stroke-width:2.0px;stroke-linecap:butt;stroke-linejoin:miter;stroke-opacity:1"/>
<path class="bond-17 atom-1 atom-18" d="M 204.2,94.7 L 240.0,93.2" style="fill:none;fill-rule:evenodd;stroke:#000000;stroke-width:2.0px;stroke-linecap:butt;stroke-linejoin:miter;stroke-opacity:1"/>
<path class="bond-18 atom-18 atom-19" d="M 241.7,95.8 L 248.6,82.4" style="fill:none;fill-rule:evenodd;stroke:#000000;stroke-width:2.0px;stroke-linecap:butt;stroke-linejoin:miter;stroke-opacity:1"/>
<path class="bond-18 atom-18 atom-19" d="M 248.6,82.4 L 255.6,69.1" style="fill:none;fill-rule:evenodd;stroke:#FF0000;stroke-width:2.0px;stroke-linecap:butt;stroke-linejoin:miter;stroke-opacity:1"/>
<path class="bond-18 atom-18 atom-19" d="M 236.9,93.3 L 243.9,79.9" style="fill:none;fill-rule:evenodd;stroke:#000000;stroke-width:2.0px;stroke-linecap:butt;stroke-linejoin:miter;stroke-opacity:1"/>
<path class="bond-18 atom-18 atom-19" d="M 243.9,79.9 L 250.8,66.6" style="fill:none;fill-rule:evenodd;stroke:#FF0000;stroke-width:2.0px;stroke-linecap:butt;stroke-linejoin:miter;stroke-opacity:1"/>
<path class="bond-19 atom-18 atom-20" d="M 240.0,93.2 L 247.6,105.1" style="fill:none;fill-rule:evenodd;stroke:#000000;stroke-width:2.0px;stroke-linecap:butt;stroke-linejoin:miter;stroke-opacity:1"/>
<path class="bond-19 atom-18 atom-20" d="M 247.6,105.1 L 255.2,117.1" style="fill:none;fill-rule:evenodd;stroke:#FF0000;stroke-width:2.0px;stroke-linecap:butt;stroke-linejoin:miter;stroke-opacity:1"/>
<path d="M 170.1,96.2 L 168.3,96.3 L 167.5,97.9" style="fill:none;stroke:#000000;stroke-width:2.0px;stroke-linecap:butt;stroke-linejoin:miter;stroke-opacity:1;"/>
<path d="M 152.6,126.5 L 151.7,128.1 L 150.0,128.1" style="fill:none;stroke:#000000;stroke-width:2.0px;stroke-linecap:butt;stroke-linejoin:miter;stroke-opacity:1;"/>
<path d="M 114.4,95.6 L 114.4,93.8 L 112.8,93.0" style="fill:none;stroke:#000000;stroke-width:2.0px;stroke-linecap:butt;stroke-linejoin:miter;stroke-opacity:1;"/>
<path d="M 66.8,107.4 L 66.0,109.0 L 65.2,109.0" style="fill:none;stroke:#000000;stroke-width:2.0px;stroke-linecap:butt;stroke-linejoin:miter;stroke-opacity:1;"/>
<path d="M 98.3,47.0 L 99.1,45.4 L 98.8,44.8" style="fill:none;stroke:#000000;stroke-width:2.0px;stroke-linecap:butt;stroke-linejoin:miter;stroke-opacity:1;"/>
<path d="M 117.4,163.7 L 117.5,165.4 L 116.9,165.8" style="fill:none;stroke:#000000;stroke-width:2.0px;stroke-linecap:butt;stroke-linejoin:miter;stroke-opacity:1;"/>
<path d="M 238.2,93.2 L 240.0,93.2 L 240.4,93.8" style="fill:none;stroke:#000000;stroke-width:2.0px;stroke-linecap:butt;stroke-linejoin:miter;stroke-opacity:1;"/>
<path class="atom-11" d="M 15.5 105.5 L 16.8 105.5 L 16.8 109.9 L 22.0 109.9 L 22.0 105.5 L 23.4 105.5 L 23.4 115.7 L 22.0 115.7 L 22.0 111.0 L 16.8 111.0 L 16.8 115.7 L 15.5 115.7 L 15.5 105.5 " fill="#FF0000"/>
<path class="atom-11" d="M 25.5 110.6 Q 25.5 108.1, 26.7 106.8 Q 27.9 105.4, 30.1 105.4 Q 32.4 105.4, 33.6 106.8 Q 34.8 108.1, 34.8 110.6 Q 34.8 113.1, 33.6 114.5 Q 32.4 115.9, 30.1 115.9 Q 27.9 115.9, 26.7 114.5 Q 25.5 113.1, 25.5 110.6 M 30.1 114.7 Q 31.7 114.7, 32.5 113.7 Q 33.4 112.6, 33.4 110.6 Q 33.4 108.6, 32.5 107.6 Q 31.7 106.6, 30.1 106.6 Q 28.6 106.6, 27.8 107.6 Q 26.9 108.6, 26.9 110.6 Q 26.9 112.6, 27.8 113.7 Q 28.6 114.7, 30.1 114.7 " fill="#FF0000"/>
<path class="atom-13" d="M 130.3 43.9 Q 130.3 41.4, 131.5 40.1 Q 132.7 38.7, 135.0 38.7 Q 137.2 38.7, 138.4 40.1 Q 139.6 41.4, 139.6 43.9 Q 139.6 46.3, 138.4 47.8 Q 137.2 49.1, 135.0 49.1 Q 132.7 49.1, 131.5 47.8 Q 130.3 46.4, 130.3 43.9 M 135.0 48.0 Q 136.5 48.0, 137.4 47.0 Q 138.2 45.9, 138.2 43.9 Q 138.2 41.9, 137.4 40.9 Q 136.5 39.9, 135.0 39.9 Q 133.4 39.9, 132.6 40.9 Q 131.7 41.9, 131.7 43.9 Q 131.7 45.9, 132.6 47.0 Q 133.4 48.0, 135.0 48.0 " fill="#FF0000"/>
<path class="atom-14" d="M 65.2 10.1 L 66.6 10.1 L 66.6 14.4 L 71.8 14.4 L 71.8 10.1 L 73.1 10.1 L 73.1 20.3 L 71.8 20.3 L 71.8 15.6 L 66.6 15.6 L 66.6 20.3 L 65.2 20.3 L 65.2 10.1 " fill="#FF0000"/>
<path class="atom-14" d="M 75.2 15.2 Q 75.2 12.7, 76.4 11.4 Q 77.6 10.0, 79.9 10.0 Q 82.1 10.0, 83.3 11.4 Q 84.5 12.7, 84.5 15.2 Q 84.5 17.6, 83.3 19.0 Q 82.1 20.4, 79.9 20.4 Q 77.6 20.4, 76.4 19.0 Q 75.2 17.6, 75.2 15.2 M 79.9 19.3 Q 81.4 19.3, 82.3 18.2 Q 83.1 17.2, 83.1 15.2 Q 83.1 13.2, 82.3 12.2 Q 81.4 11.1, 79.9 11.1 Q 78.3 11.1, 77.5 12.2 Q 76.7 13.2, 76.7 15.2 Q 76.7 17.2, 77.5 18.2 Q 78.3 19.3, 79.9 19.3 " fill="#FF0000"/>
<path class="atom-16" d="M 144.6 182.1 Q 144.6 179.6, 145.8 178.3 Q 147.0 176.9, 149.3 176.9 Q 151.5 176.9, 152.7 178.3 Q 153.9 179.6, 153.9 182.1 Q 153.9 184.5, 152.7 185.9 Q 151.5 187.3, 149.3 187.3 Q 147.0 187.3, 145.8 185.9 Q 144.6 184.5, 144.6 182.1 M 149.3 186.2 Q 150.8 186.2, 151.7 185.1 Q 152.5 184.1, 152.5 182.1 Q 152.5 180.1, 151.7 179.1 Q 150.8 178.0, 149.3 178.0 Q 147.7 178.0, 146.9 179.0 Q 146.0 180.0, 146.0 182.1 Q 146.0 184.1, 146.9 185.1 Q 147.7 186.2, 149.3 186.2 " fill="#FF0000"/>
<path class="atom-17" d="M 72.5 179.7 L 73.9 179.7 L 73.9 184.0 L 79.1 184.0 L 79.1 179.7 L 80.5 179.7 L 80.5 189.8 L 79.1 189.8 L 79.1 185.2 L 73.9 185.2 L 73.9 189.8 L 72.5 189.8 L 72.5 179.7 " fill="#FF0000"/>
<path class="atom-17" d="M 82.5 184.7 Q 82.5 182.3, 83.7 180.9 Q 85.0 179.6, 87.2 179.6 Q 89.5 179.6, 90.7 180.9 Q 91.9 182.3, 91.9 184.7 Q 91.9 187.2, 90.6 188.6 Q 89.4 190.0, 87.2 190.0 Q 85.0 190.0, 83.7 188.6 Q 82.5 187.2, 82.5 184.7 M 87.2 188.9 Q 88.8 188.9, 89.6 187.8 Q 90.4 186.8, 90.4 184.7 Q 90.4 182.7, 89.6 181.7 Q 88.8 180.7, 87.2 180.7 Q 85.7 180.7, 84.8 181.7 Q 84.0 182.7, 84.0 184.7 Q 84.0 186.8, 84.8 187.8 Q 85.7 188.9, 87.2 188.9 " fill="#FF0000"/>
<path class="atom-19" d="M 251.9 61.4 Q 251.9 58.9, 253.1 57.6 Q 254.3 56.2, 256.6 56.2 Q 258.8 56.2, 260.0 57.6 Q 261.2 58.9, 261.2 61.4 Q 261.2 63.9, 260.0 65.3 Q 258.8 66.7, 256.6 66.7 Q 254.3 66.7, 253.1 65.3 Q 251.9 63.9, 251.9 61.4 M 256.6 65.5 Q 258.1 65.5, 259.0 64.5 Q 259.8 63.4, 259.8 61.4 Q 259.8 59.4, 259.0 58.4 Q 258.1 57.4, 256.6 57.4 Q 255.0 57.4, 254.2 58.4 Q 253.3 59.4, 253.3 61.4 Q 253.3 63.4, 254.2 64.5 Q 255.0 65.5, 256.6 65.5 " fill="#FF0000"/>
<path class="atom-20" d="M 254.6 123.5 Q 254.6 121.0, 255.8 119.7 Q 257.0 118.3, 259.3 118.3 Q 261.5 118.3, 262.7 119.7 Q 263.9 121.0, 263.9 123.5 Q 263.9 125.9, 262.7 127.3 Q 261.5 128.7, 259.3 128.7 Q 257.0 128.7, 255.8 127.3 Q 254.6 125.9, 254.6 123.5 M 259.3 127.6 Q 260.8 127.6, 261.6 126.5 Q 262.5 125.5, 262.5 123.5 Q 262.5 121.5, 261.6 120.5 Q 260.8 119.4, 259.3 119.4 Q 257.7 119.4, 256.9 120.4 Q 256.0 121.4, 256.0 123.5 Q 256.0 125.5, 256.9 126.5 Q 257.7 127.6, 259.3 127.6 " fill="#FF0000"/>
<path class="atom-20" d="M 265.5 118.4 L 266.9 118.4 L 266.9 122.7 L 272.1 122.7 L 272.1 118.4 L 273.4 118.4 L 273.4 128.6 L 272.1 128.6 L 272.1 123.9 L 266.9 123.9 L 266.9 128.6 L 265.5 128.6 L 265.5 118.4 " fill="#FF0000"/>
</g>
    <g transform="translate(289.0, 0) scale(1 1) "><line x1="5" y1="100" x2="35" y2="100" style="stroke:rgb(0,0,0);stroke-width:2"/>
  <line x1="34" y1="100" x2="29" y2="95" style="stroke:rgb(0,0,0);stroke-width:2"/>
  <line x1="34" y1="100" x2="29" y2="105" style="stroke:rgb(0,0,0);stroke-width:2"/>
</g>
    <g transform="translate(329.0, 0) scale(1 1) "><!-- END OF HEADER -->
<rect style="opacity:1.0;fill:#FFFFFF;stroke:none" width="289.0" height="200.0" x="0.0" y="0.0"> </rect>
<path class="bond-0 atom-0 atom-1" d="M 214.5,33.0 L 204.7,68.6" style="fill:none;fill-rule:evenodd;stroke:#000000;stroke-width:2.0px;stroke-linecap:butt;stroke-linejoin:miter;stroke-opacity:1"/>
<path class="bond-1 atom-1 atom-2" d="M 204.7,68.6 L 168.9,77.9" style="fill:none;fill-rule:evenodd;stroke:#000000;stroke-width:2.0px;stroke-linecap:butt;stroke-linejoin:miter;stroke-opacity:1"/>
<path class="bond-2 atom-2 atom-3" d="M 168.9,77.9 L 159.1,113.5" style="fill:none;fill-rule:evenodd;stroke:#000000;stroke-width:2.0px;stroke-linecap:butt;stroke-linejoin:miter;stroke-opacity:1"/>
<path class="bond-3 atom-3 atom-4" d="M 159.1,113.5 L 123.3,122.8" style="fill:none;fill-rule:evenodd;stroke:#000000;stroke-width:2.0px;stroke-linecap:butt;stroke-linejoin:miter;stroke-opacity:1"/>
<path class="bond-4 atom-4 atom-5" d="M 123.3,122.8 L 100.8,131.8" style="fill:none;fill-rule:evenodd;stroke:#000000;stroke-width:2.0px;stroke-linecap:butt;stroke-linejoin:miter;stroke-opacity:1"/>
<path class="bond-5 atom-4 atom-6" d="M 123.3,122.8 L 114.0,87.1" style="fill:none;fill-rule:evenodd;stroke:#000000;stroke-width:2.0px;stroke-linecap:butt;stroke-linejoin:miter;stroke-opacity:1"/>
<path class="bond-6 atom-6 atom-7" d="M 114.0,87.1 L 78.4,77.2" style="fill:none;fill-rule:evenodd;stroke:#000000;stroke-width:2.0px;stroke-linecap:butt;stroke-linejoin:miter;stroke-opacity:1"/>
<path class="bond-7 atom-7 atom-8" d="M 78.4,77.2 L 42.8,67.4" style="fill:none;fill-rule:evenodd;stroke:#000000;stroke-width:2.0px;stroke-linecap:butt;stroke-linejoin:miter;stroke-opacity:1"/>
<path class="bond-8 atom-7 atom-9" d="M 78.4,77.2 L 88.2,41.6" style="fill:none;fill-rule:evenodd;stroke:#000000;stroke-width:2.0px;stroke-linecap:butt;stroke-linejoin:miter;stroke-opacity:1"/>
<path class="bond-9 atom-9 atom-10" d="M 87.4,44.6 L 103.1,40.5" style="fill:none;fill-rule:evenodd;stroke:#000000;stroke-width:2.0px;stroke-linecap:butt;stroke-linejoin:miter;stroke-opacity:1"/>
<path class="bond-9 atom-9 atom-10" d="M 103.1,40.5 L 118.7,36.5" style="fill:none;fill-rule:evenodd;stroke:#FF0000;stroke-width:2.0px;stroke-linecap:butt;stroke-linejoin:miter;stroke-opacity:1"/>
<path class="bond-9 atom-9 atom-10" d="M 86.1,39.4 L 101.7,35.3" style="fill:none;fill-rule:evenodd;stroke:#000000;stroke-width:2.0px;stroke-linecap:butt;stroke-linejoin:miter;stroke-opacity:1"/>
<path class="bond-9 atom-9 atom-10" d="M 101.7,35.3 L 117.4,31.3" style="fill:none;fill-rule:evenodd;stroke:#FF0000;stroke-width:2.0px;stroke-linecap:butt;stroke-linejoin:miter;stroke-opacity:1"/>
<path class="bond-10 atom-9 atom-11" d="M 88.2,41.6 L 78.3,31.5" style="fill:none;fill-rule:evenodd;stroke:#000000;stroke-width:2.0px;stroke-linecap:butt;stroke-linejoin:miter;stroke-opacity:1"/>
<path class="bond-10 atom-9 atom-11" d="M 78.3,31.5 L 68.3,21.4" style="fill:none;fill-rule:evenodd;stroke:#FF0000;stroke-width:2.0px;stroke-linecap:butt;stroke-linejoin:miter;stroke-opacity:1"/>
<path class="bond-11 atom-7 atom-12" d="M 78.4,77.2 L 68.6,112.9" style="fill:none;fill-rule:evenodd;stroke:#000000;stroke-width:2.0px;stroke-linecap:butt;stroke-linejoin:miter;stroke-opacity:1"/>
<path class="bond-12 atom-12 atom-13" d="M 68.6,112.9 L 83.4,132.1" style="fill:none;fill-rule:evenodd;stroke:#000000;stroke-width:2.0px;stroke-linecap:butt;stroke-linejoin:miter;stroke-opacity:1"/>
<path class="bond-13 atom-12 atom-14" d="M 68.6,112.9 L 53.7,116.7" style="fill:none;fill-rule:evenodd;stroke:#000000;stroke-width:2.0px;stroke-linecap:butt;stroke-linejoin:miter;stroke-opacity:1"/>
<path class="bond-13 atom-12 atom-14" d="M 53.7,116.7 L 38.8,120.6" style="fill:none;fill-rule:evenodd;stroke:#FF0000;stroke-width:2.0px;stroke-linecap:butt;stroke-linejoin:miter;stroke-opacity:1"/>
<path class="bond-14 atom-4 atom-15" d="M 123.3,122.8 L 132.6,158.6" style="fill:none;fill-rule:evenodd;stroke:#000000;stroke-width:2.0px;stroke-linecap:butt;stroke-linejoin:miter;stroke-opacity:1"/>
<path class="bond-15 atom-15 atom-16" d="M 130.4,160.8 L 146.0,165.1" style="fill:none;fill-rule:evenodd;stroke:#000000;stroke-width:2.0px;stroke-linecap:butt;stroke-linejoin:miter;stroke-opacity:1"/>
<path class="bond-15 atom-15 atom-16" d="M 146.0,165.1 L 161.6,169.4" style="fill:none;fill-rule:evenodd;stroke:#FF0000;stroke-width:2.0px;stroke-linecap:butt;stroke-linejoin:miter;stroke-opacity:1"/>
<path class="bond-15 atom-15 atom-16" d="M 131.9,155.6 L 147.4,159.9" style="fill:none;fill-rule:evenodd;stroke:#000000;stroke-width:2.0px;stroke-linecap:butt;stroke-linejoin:miter;stroke-opacity:1"/>
<path class="bond-15 atom-15 atom-16" d="M 147.4,159.9 L 163.0,164.2" style="fill:none;fill-rule:evenodd;stroke:#FF0000;stroke-width:2.0px;stroke-linecap:butt;stroke-linejoin:miter;stroke-opacity:1"/>
<path class="bond-16 atom-15 atom-17" d="M 132.6,158.6 L 122.5,168.6" style="fill:none;fill-rule:evenodd;stroke:#000000;stroke-width:2.0px;stroke-linecap:butt;stroke-linejoin:miter;stroke-opacity:1"/>
<path class="bond-16 atom-15 atom-17" d="M 122.5,168.6 L 112.3,178.7" style="fill:none;fill-rule:evenodd;stroke:#FF0000;stroke-width:2.0px;stroke-linecap:butt;stroke-linejoin:miter;stroke-opacity:1"/>
<path class="bond-17 atom-1 atom-18" d="M 204.7,68.6 L 230.6,94.9" style="fill:none;fill-rule:evenodd;stroke:#000000;stroke-width:2.0px;stroke-linecap:butt;stroke-linejoin:miter;stroke-opacity:1"/>
<path class="bond-18 atom-18 atom-19" d="M 229.8,97.9 L 245.5,93.8" style="fill:none;fill-rule:evenodd;stroke:#000000;stroke-width:2.0px;stroke-linecap:butt;stroke-linejoin:miter;stroke-opacity:1"/>
<path class="bond-18 atom-18 atom-19" d="M 245.5,93.8 L 261.1,89.8" style="fill:none;fill-rule:evenodd;stroke:#FF0000;stroke-width:2.0px;stroke-linecap:butt;stroke-linejoin:miter;stroke-opacity:1"/>
<path class="bond-18 atom-18 atom-19" d="M 228.5,92.7 L 244.1,88.7" style="fill:none;fill-rule:evenodd;stroke:#000000;stroke-width:2.0px;stroke-linecap:butt;stroke-linejoin:miter;stroke-opacity:1"/>
<path class="bond-18 atom-18 atom-19" d="M 244.1,88.7 L 259.8,84.6" style="fill:none;fill-rule:evenodd;stroke:#FF0000;stroke-width:2.0px;stroke-linecap:butt;stroke-linejoin:miter;stroke-opacity:1"/>
<path class="bond-19 atom-18 atom-20" d="M 230.6,94.9 L 226.6,109.5" style="fill:none;fill-rule:evenodd;stroke:#000000;stroke-width:2.0px;stroke-linecap:butt;stroke-linejoin:miter;stroke-opacity:1"/>
<path class="bond-19 atom-18 atom-20" d="M 226.6,109.5 L 222.6,124.1" style="fill:none;fill-rule:evenodd;stroke:#FF0000;stroke-width:2.0px;stroke-linecap:butt;stroke-linejoin:miter;stroke-opacity:1"/>
<path d="M 170.7,77.4 L 168.9,77.9 L 168.4,79.7" style="fill:none;stroke:#000000;stroke-width:2.0px;stroke-linecap:butt;stroke-linejoin:miter;stroke-opacity:1;"/>
<path d="M 159.6,111.8 L 159.1,113.5 L 157.3,114.0" style="fill:none;stroke:#000000;stroke-width:2.0px;stroke-linecap:butt;stroke-linejoin:miter;stroke-opacity:1;"/>
<path d="M 114.5,88.9 L 114.0,87.1 L 112.3,86.6" style="fill:none;stroke:#000000;stroke-width:2.0px;stroke-linecap:butt;stroke-linejoin:miter;stroke-opacity:1;"/>
<path d="M 87.8,43.4 L 88.2,41.6 L 87.7,41.1" style="fill:none;stroke:#000000;stroke-width:2.0px;stroke-linecap:butt;stroke-linejoin:miter;stroke-opacity:1;"/>
<path d="M 132.2,156.8 L 132.6,158.6 L 132.1,159.1" style="fill:none;stroke:#000000;stroke-width:2.0px;stroke-linecap:butt;stroke-linejoin:miter;stroke-opacity:1;"/>
<path d="M 229.4,93.6 L 230.6,94.9 L 230.4,95.7" style="fill:none;stroke:#000000;stroke-width:2.0px;stroke-linecap:butt;stroke-linejoin:miter;stroke-opacity:1;"/>
<path class="atom-10" d="M 119.2 32.3 Q 119.2 29.8, 120.4 28.4 Q 121.7 27.0, 124.0 27.0 Q 126.3 27.0, 127.6 28.4 Q 128.8 29.8, 128.8 32.3 Q 128.8 34.9, 127.6 36.3 Q 126.3 37.8, 124.0 37.8 Q 121.7 37.8, 120.4 36.3 Q 119.2 34.9, 119.2 32.3 M 124.0 36.6 Q 125.6 36.6, 126.5 35.5 Q 127.3 34.4, 127.3 32.3 Q 127.3 30.3, 126.5 29.3 Q 125.6 28.2, 124.0 28.2 Q 122.4 28.2, 121.5 29.2 Q 120.7 30.3, 120.7 32.3 Q 120.7 34.5, 121.5 35.5 Q 122.4 36.6, 124.0 36.6 " fill="#FF0000"/>
<path class="atom-11" d="M 47.2 10.1 L 48.6 10.1 L 48.6 14.6 L 53.9 14.6 L 53.9 10.1 L 55.4 10.1 L 55.4 20.6 L 53.9 20.6 L 53.9 15.8 L 48.6 15.8 L 48.6 20.6 L 47.2 20.6 L 47.2 10.1 " fill="#FF0000"/>
<path class="atom-11" d="M 57.5 15.3 Q 57.5 12.8, 58.7 11.4 Q 60.0 10.0, 62.3 10.0 Q 64.6 10.0, 65.9 11.4 Q 67.1 12.8, 67.1 15.3 Q 67.1 17.9, 65.9 19.3 Q 64.6 20.7, 62.3 20.7 Q 60.0 20.7, 58.7 19.3 Q 57.5 17.9, 57.5 15.3 M 62.3 19.6 Q 63.9 19.6, 64.8 18.5 Q 65.6 17.4, 65.6 15.3 Q 65.6 13.3, 64.8 12.2 Q 63.9 11.2, 62.3 11.2 Q 60.7 11.2, 59.8 12.2 Q 59.0 13.3, 59.0 15.3 Q 59.0 17.4, 59.8 18.5 Q 60.7 19.6, 62.3 19.6 " fill="#FF0000"/>
<path class="atom-14" d="M 17.7 117.0 L 19.1 117.0 L 19.1 121.4 L 24.5 121.4 L 24.5 117.0 L 25.9 117.0 L 25.9 127.5 L 24.5 127.5 L 24.5 122.6 L 19.1 122.6 L 19.1 127.5 L 17.7 127.5 L 17.7 117.0 " fill="#FF0000"/>
<path class="atom-14" d="M 28.0 122.2 Q 28.0 119.7, 29.3 118.3 Q 30.5 116.9, 32.8 116.9 Q 35.1 116.9, 36.4 118.3 Q 37.6 119.7, 37.6 122.2 Q 37.6 124.7, 36.4 126.2 Q 35.1 127.6, 32.8 127.6 Q 30.5 127.6, 29.3 126.2 Q 28.0 124.8, 28.0 122.2 M 32.8 126.4 Q 34.4 126.4, 35.3 125.4 Q 36.1 124.3, 36.1 122.2 Q 36.1 120.1, 35.3 119.1 Q 34.4 118.1, 32.8 118.1 Q 31.2 118.1, 30.4 119.1 Q 29.5 120.1, 29.5 122.2 Q 29.5 124.3, 30.4 125.4 Q 31.2 126.4, 32.8 126.4 " fill="#FF0000"/>
<path class="atom-16" d="M 163.5 168.5 Q 163.5 165.9, 164.7 164.5 Q 166.0 163.1, 168.3 163.1 Q 170.6 163.1, 171.8 164.5 Q 173.1 165.9, 173.1 168.5 Q 173.1 171.0, 171.8 172.5 Q 170.6 173.9, 168.3 173.9 Q 166.0 173.9, 164.7 172.5 Q 163.5 171.0, 163.5 168.5 M 168.3 172.7 Q 169.9 172.7, 170.7 171.6 Q 171.6 170.6, 171.6 168.5 Q 171.6 166.4, 170.7 165.4 Q 169.9 164.3, 168.3 164.3 Q 166.7 164.3, 165.8 165.4 Q 164.9 166.4, 164.9 168.5 Q 164.9 170.6, 165.8 171.6 Q 166.7 172.7, 168.3 172.7 " fill="#FF0000"/>
<path class="atom-17" d="M 91.2 179.4 L 92.6 179.4 L 92.6 183.8 L 98.0 183.8 L 98.0 179.4 L 99.4 179.4 L 99.4 189.8 L 98.0 189.8 L 98.0 185.0 L 92.6 185.0 L 92.6 189.8 L 91.2 189.8 L 91.2 179.4 " fill="#FF0000"/>
<path class="atom-17" d="M 101.5 184.6 Q 101.5 182.1, 102.8 180.7 Q 104.0 179.3, 106.3 179.3 Q 108.6 179.3, 109.9 180.7 Q 111.1 182.1, 111.1 184.6 Q 111.1 187.1, 109.9 188.6 Q 108.6 190.0, 106.3 190.0 Q 104.0 190.0, 102.8 188.6 Q 101.5 187.1, 101.5 184.6 M 106.3 188.8 Q 107.9 188.8, 108.8 187.8 Q 109.7 186.7, 109.7 184.6 Q 109.7 182.5, 108.8 181.5 Q 107.9 180.4, 106.3 180.4 Q 104.7 180.4, 103.9 181.5 Q 103.0 182.5, 103.0 184.6 Q 103.0 186.7, 103.9 187.8 Q 104.7 188.8, 106.3 188.8 " fill="#FF0000"/>
<path class="atom-19" d="M 261.6 85.7 Q 261.6 83.1, 262.9 81.7 Q 264.1 80.3, 266.4 80.3 Q 268.7 80.3, 270.0 81.7 Q 271.2 83.1, 271.2 85.7 Q 271.2 88.2, 270.0 89.6 Q 268.7 91.1, 266.4 91.1 Q 264.1 91.1, 262.9 89.6 Q 261.6 88.2, 261.6 85.7 M 266.4 89.9 Q 268.0 89.9, 268.9 88.8 Q 269.7 87.8, 269.7 85.7 Q 269.7 83.6, 268.9 82.6 Q 268.0 81.5, 266.4 81.5 Q 264.8 81.5, 263.9 82.6 Q 263.1 83.6, 263.1 85.7 Q 263.1 87.8, 263.9 88.8 Q 264.8 89.9, 266.4 89.9 " fill="#FF0000"/>
<path class="atom-20" d="M 216.0 130.6 Q 216.0 128.1, 217.3 126.7 Q 218.5 125.3, 220.8 125.3 Q 223.1 125.3, 224.4 126.7 Q 225.6 128.1, 225.6 130.6 Q 225.6 133.1, 224.4 134.6 Q 223.1 136.0, 220.8 136.0 Q 218.5 136.0, 217.3 134.6 Q 216.0 133.1, 216.0 130.6 M 220.8 134.8 Q 222.4 134.8, 223.3 133.8 Q 224.1 132.7, 224.1 130.6 Q 224.1 128.5, 223.3 127.5 Q 222.4 126.4, 220.8 126.4 Q 219.2 126.4, 218.4 127.5 Q 217.5 128.5, 217.5 130.6 Q 217.5 132.7, 218.4 133.8 Q 219.2 134.8, 220.8 134.8 " fill="#FF0000"/>
<path class="atom-20" d="M 227.3 125.4 L 228.7 125.4 L 228.7 129.8 L 234.0 129.8 L 234.0 125.4 L 235.4 125.4 L 235.4 135.8 L 234.0 135.8 L 234.0 131.0 L 228.7 131.0 L 228.7 135.8 L 227.3 135.8 L 227.3 125.4 " fill="#FF0000"/>
</g>
  </g>
</svg>
