<?xml version='1.0' encoding='ASCII' standalone='yes'?>
<svg xmlns="http://www.w3.org/2000/svg" xmlns:xlink="http://www.w3.org/1999/xlink" version="1.1" width="715.0px" viewBox="0 0 715.0 200.0" height="200.0px">
  <g>
    <g transform="translate(0, 0) scale(1 1) "><!-- END OF HEADER -->
<rect style="opacity:1.0;fill:#FFFFFF;stroke:none" width="225.0" height="200.0" x="0.0" y="0.0"> </rect>
<path class="bond-0 atom-0 atom-1" d="M 11.2,73.8 L 50.4,90.3" style="fill:none;fill-rule:evenodd;stroke:#000000;stroke-width:2.0px;stroke-linecap:butt;stroke-linejoin:miter;stroke-opacity:1"/>
<path class="bond-1 atom-1 atom-2" d="M 50.4,90.3 L 55.7,132.5" style="fill:none;fill-rule:evenodd;stroke:#000000;stroke-width:2.0px;stroke-linecap:butt;stroke-linejoin:miter;stroke-opacity:1"/>
<path class="bond-2 atom-1 atom-3" d="M 50.4,90.3 L 84.3,64.6" style="fill:none;fill-rule:evenodd;stroke:#000000;stroke-width:2.0px;stroke-linecap:butt;stroke-linejoin:miter;stroke-opacity:1"/>
<path class="bond-3 atom-3 atom-4" d="M 84.3,64.6 L 123.4,81.1" style="fill:none;fill-rule:evenodd;stroke:#000000;stroke-width:2.0px;stroke-linecap:butt;stroke-linejoin:miter;stroke-opacity:1"/>
<path class="bond-4 atom-4 atom-5" d="M 123.4,81.1 L 130.1,65.3" style="fill:none;fill-rule:evenodd;stroke:#000000;stroke-width:2.0px;stroke-linecap:butt;stroke-linejoin:miter;stroke-opacity:1"/>
<path class="bond-4 atom-4 atom-5" d="M 130.1,65.3 L 136.8,49.4" style="fill:none;fill-rule:evenodd;stroke:#0000FF;stroke-width:2.0px;stroke-linecap:butt;stroke-linejoin:miter;stroke-opacity:1"/>
<path class="bond-5 atom-4 atom-6" d="M 123.4,81.1 L 116.8,97.0" style="fill:none;fill-rule:evenodd;stroke:#000000;stroke-width:2.0px;stroke-linecap:butt;stroke-linejoin:miter;stroke-opacity:1"/>
<path class="bond-5 atom-4 atom-6" d="M 116.8,97.0 L 110.1,112.8" style="fill:none;fill-rule:evenodd;stroke:#FF0000;stroke-width:2.0px;stroke-linecap:butt;stroke-linejoin:miter;stroke-opacity:1"/>
<path class="bond-6 atom-4 atom-7" d="M 123.4,81.1 L 162.6,97.6" style="fill:none;fill-rule:evenodd;stroke:#000000;stroke-width:2.0px;stroke-linecap:butt;stroke-linejoin:miter;stroke-opacity:1"/>
<path class="bond-7 atom-7 atom-8" d="M 162.6,97.6 L 164.8,115.0" style="fill:none;fill-rule:evenodd;stroke:#000000;stroke-width:2.0px;stroke-linecap:butt;stroke-linejoin:miter;stroke-opacity:1"/>
<path class="bond-7 atom-7 atom-8" d="M 164.8,115.0 L 166.9,132.3" style="fill:none;fill-rule:evenodd;stroke:#FF0000;stroke-width:2.0px;stroke-linecap:butt;stroke-linejoin:miter;stroke-opacity:1"/>
<path class="bond-8 atom-7 atom-9" d="M 162.6,97.6 L 176.0,87.4" style="fill:none;fill-rule:evenodd;stroke:#000000;stroke-width:2.0px;stroke-linecap:butt;stroke-linejoin:miter;stroke-opacity:1"/>
<path class="bond-8 atom-7 atom-9" d="M 176.0,87.4 L 189.5,77.2" style="fill:none;fill-rule:evenodd;stroke:#FF0000;stroke-width:2.0px;stroke-linecap:butt;stroke-linejoin:miter;stroke-opacity:1"/>
<path d="M 82.6,65.9 L 84.3,64.6 L 86.2,65.5" style="fill:none;stroke:#000000;stroke-width:2.0px;stroke-linecap:butt;stroke-linejoin:miter;stroke-opacity:1;"/>
<path class="atom-5" d="M 137.3 36.0 L 141.2 42.3 Q 141.6 43.0, 142.2 44.1 Q 142.8 45.2, 142.9 45.3 L 142.9 36.0 L 144.5 36.0 L 144.5 48.0 L 142.8 48.0 L 138.6 41.0 Q 138.1 40.2, 137.6 39.3 Q 137.1 38.3, 136.9 38.0 L 136.9 48.0 L 135.3 48.0 L 135.3 36.0 L 137.3 36.0 " fill="#0000FF"/>
<path class="atom-5" d="M 146.8 36.0 L 148.4 36.0 L 148.4 41.1 L 154.6 41.1 L 154.6 36.0 L 156.2 36.0 L 156.2 48.0 L 154.6 48.0 L 154.6 42.4 L 148.4 42.4 L 148.4 48.0 L 146.8 48.0 L 146.8 36.0 " fill="#0000FF"/>
<path class="atom-5" d="M 158.5 47.6 Q 158.8 46.8, 159.5 46.4 Q 160.2 46.0, 161.2 46.0 Q 162.4 46.0, 163.1 46.6 Q 163.7 47.3, 163.7 48.4 Q 163.7 49.6, 162.9 50.7 Q 162.0 51.8, 160.2 53.1 L 163.9 53.1 L 163.9 54.0 L 158.5 54.0 L 158.5 53.3 Q 160.0 52.2, 160.9 51.4 Q 161.8 50.6, 162.2 49.9 Q 162.6 49.2, 162.6 48.5 Q 162.6 47.7, 162.2 47.3 Q 161.9 46.9, 161.2 46.9 Q 160.6 46.9, 160.1 47.1 Q 159.7 47.4, 159.4 48.0 L 158.5 47.6 " fill="#0000FF"/>
<path class="atom-6" d="M 89.5 114.3 L 91.2 114.3 L 91.2 119.5 L 97.3 119.5 L 97.3 114.3 L 98.9 114.3 L 98.9 126.4 L 97.3 126.4 L 97.3 120.8 L 91.2 120.8 L 91.2 126.4 L 89.5 126.4 L 89.5 114.3 " fill="#FF0000"/>
<path class="atom-6" d="M 101.4 120.3 Q 101.4 117.4, 102.8 115.8 Q 104.3 114.2, 106.9 114.2 Q 109.6 114.2, 111.0 115.8 Q 112.5 117.4, 112.5 120.3 Q 112.5 123.2, 111.0 124.9 Q 109.6 126.6, 106.9 126.6 Q 104.3 126.6, 102.8 124.9 Q 101.4 123.3, 101.4 120.3 M 106.9 125.2 Q 108.8 125.2, 109.8 124.0 Q 110.8 122.7, 110.8 120.3 Q 110.8 118.0, 109.8 116.8 Q 108.8 115.6, 106.9 115.6 Q 105.1 115.6, 104.1 116.8 Q 103.1 117.9, 103.1 120.3 Q 103.1 122.8, 104.1 124.0 Q 105.1 125.2, 106.9 125.2 " fill="#FF0000"/>
<path class="atom-8" d="M 162.4 139.8 Q 162.4 136.9, 163.8 135.3 Q 165.2 133.7, 167.9 133.7 Q 170.6 133.7, 172.0 135.3 Q 173.4 136.9, 173.4 139.8 Q 173.4 142.7, 172.0 144.4 Q 170.5 146.0, 167.9 146.0 Q 165.2 146.0, 163.8 144.4 Q 162.4 142.7, 162.4 139.8 M 167.9 144.7 Q 169.7 144.7, 170.7 143.5 Q 171.7 142.2, 171.7 139.8 Q 171.7 137.4, 170.7 136.3 Q 169.7 135.0, 167.9 135.0 Q 166.0 135.0, 165.0 136.2 Q 164.1 137.4, 164.1 139.8 Q 164.1 142.2, 165.0 143.5 Q 166.0 144.7, 167.9 144.7 " fill="#FF0000"/>
<path class="atom-8" d="M 175.3 133.8 L 176.9 133.8 L 176.9 138.9 L 183.1 138.9 L 183.1 133.8 L 184.7 133.8 L 184.7 145.9 L 183.1 145.9 L 183.1 140.3 L 176.9 140.3 L 176.9 145.9 L 175.3 145.9 L 175.3 133.8 " fill="#FF0000"/>
<path class="atom-9" d="M 190.9 72.0 Q 190.9 69.1, 192.3 67.5 Q 193.8 65.9, 196.4 65.9 Q 199.1 65.9, 200.5 67.5 Q 202.0 69.1, 202.0 72.0 Q 202.0 74.9, 200.5 76.6 Q 199.1 78.2, 196.4 78.2 Q 193.8 78.2, 192.3 76.6 Q 190.9 74.9, 190.9 72.0 M 196.4 76.9 Q 198.3 76.9, 199.3 75.6 Q 200.3 74.4, 200.3 72.0 Q 200.3 69.6, 199.3 68.4 Q 198.3 67.2, 196.4 67.2 Q 194.6 67.2, 193.6 68.4 Q 192.6 69.6, 192.6 72.0 Q 192.6 74.4, 193.6 75.6 Q 194.6 76.9, 196.4 76.9 " fill="#FF0000"/>
<path class="atom-9" d="M 203.8 66.0 L 205.5 66.0 L 205.5 71.1 L 211.6 71.1 L 211.6 66.0 L 213.2 66.0 L 213.2 78.0 L 211.6 78.0 L 211.6 72.5 L 205.5 72.5 L 205.5 78.0 L 203.8 78.0 L 203.8 66.0 " fill="#FF0000"/>
<path class="legend" d="M 103.7 181.9 Q 103.7 179.6, 104.4 177.7 Q 105.1 175.8, 106.4 173.8 L 107.3 174.4 Q 106.2 176.3, 105.7 178.0 Q 105.2 179.7, 105.2 181.9 Q 105.2 184.0, 105.7 185.8 Q 106.2 187.5, 107.3 189.4 L 106.4 190.0 Q 105.1 188.0, 104.4 186.1 Q 103.7 184.2, 103.7 181.9 " fill="#000000"/>
<path class="legend" d="M 108.2 177.3 Q 108.6 176.2, 109.6 175.6 Q 110.6 175.0, 112.0 175.0 Q 113.7 175.0, 114.6 175.9 Q 115.6 176.8, 115.6 178.5 Q 115.6 180.2, 114.3 181.7 Q 113.1 183.3, 110.6 185.2 L 115.8 185.2 L 115.8 186.4 L 108.2 186.4 L 108.2 185.4 Q 110.3 183.9, 111.5 182.8 Q 112.8 181.6, 113.4 180.6 Q 114.0 179.6, 114.0 178.6 Q 114.0 177.5, 113.5 176.9 Q 112.9 176.3, 112.0 176.3 Q 111.0 176.3, 110.4 176.6 Q 109.8 177.0, 109.4 177.8 L 108.2 177.3 " fill="#000000"/>
<path class="legend" d="M 120.8 181.9 Q 120.8 184.2, 120.1 186.1 Q 119.4 188.0, 118.1 190.0 L 117.2 189.4 Q 118.3 187.5, 118.8 185.8 Q 119.3 184.0, 119.3 181.9 Q 119.3 179.7, 118.8 178.0 Q 118.3 176.3, 117.2 174.4 L 118.1 173.8 Q 119.4 175.8, 120.1 177.7 Q 120.8 179.6, 120.8 181.9 " fill="#000000"/>
</g>
    <g transform="translate(225.0, 0) scale(1 1) "><line x1="5" y1="100" x2="35" y2="100" style="stroke:rgb(0,0,0);stroke-width:2"/>
  <line x1="34" y1="100" x2="29" y2="95" style="stroke:rgb(0,0,0);stroke-width:2"/>
  <line x1="34" y1="100" x2="29" y2="105" style="stroke:rgb(0,0,0);stroke-width:2"/>
</g>
    <g transform="translate(265.0, 0) scale(1 1) "><!-- END OF HEADER -->
<rect style="opacity:1.0;fill:#FFFFFF;stroke:none" width="265.0" height="200.0" x="0.0" y="0.0"> </rect>
<path class="bond-0 atom-0 atom-1" d="M 160.0,50.6 L 146.4,82.3" style="fill:none;fill-rule:evenodd;stroke:#000000;stroke-width:2.0px;stroke-linecap:butt;stroke-linejoin:miter;stroke-opacity:1"/>
<path class="bond-1 atom-1 atom-2" d="M 146.4,82.3 L 132.7,114.1" style="fill:none;fill-rule:evenodd;stroke:#000000;stroke-width:2.0px;stroke-linecap:butt;stroke-linejoin:miter;stroke-opacity:1"/>
<path class="bond-2 atom-1 atom-3" d="M 146.4,82.3 L 114.6,68.7" style="fill:none;fill-rule:evenodd;stroke:#000000;stroke-width:2.0px;stroke-linecap:butt;stroke-linejoin:miter;stroke-opacity:1"/>
<path class="bond-3 atom-3 atom-4" d="M 114.6,68.7 L 86.9,89.3" style="fill:none;fill-rule:evenodd;stroke:#000000;stroke-width:2.0px;stroke-linecap:butt;stroke-linejoin:miter;stroke-opacity:1"/>
<path class="bond-4 atom-4 atom-5" d="M 86.9,89.3 L 78.8,78.5" style="fill:none;fill-rule:evenodd;stroke:#000000;stroke-width:2.0px;stroke-linecap:butt;stroke-linejoin:miter;stroke-opacity:1"/>
<path class="bond-4 atom-4 atom-5" d="M 78.8,78.5 L 70.7,67.6" style="fill:none;fill-rule:evenodd;stroke:#0000FF;stroke-width:2.0px;stroke-linecap:butt;stroke-linejoin:miter;stroke-opacity:1"/>
<path class="bond-5 atom-4 atom-6" d="M 86.9,89.3 L 94.9,100.1" style="fill:none;fill-rule:evenodd;stroke:#000000;stroke-width:2.0px;stroke-linecap:butt;stroke-linejoin:miter;stroke-opacity:1"/>
<path class="bond-5 atom-4 atom-6" d="M 94.9,100.1 L 103.0,110.9" style="fill:none;fill-rule:evenodd;stroke:#FF0000;stroke-width:2.0px;stroke-linecap:butt;stroke-linejoin:miter;stroke-opacity:1"/>
<path class="bond-6 atom-4 atom-7" d="M 86.9,89.3 L 59.2,110.0" style="fill:none;fill-rule:evenodd;stroke:#000000;stroke-width:2.0px;stroke-linecap:butt;stroke-linejoin:miter;stroke-opacity:1"/>
<path class="bond-7 atom-7 atom-8" d="M 59.2,110.0 L 60.8,124.1" style="fill:none;fill-rule:evenodd;stroke:#000000;stroke-width:2.0px;stroke-linecap:butt;stroke-linejoin:miter;stroke-opacity:1"/>
<path class="bond-7 atom-7 atom-8" d="M 60.8,124.1 L 62.5,138.2" style="fill:none;fill-rule:evenodd;stroke:#FF0000;stroke-width:2.0px;stroke-linecap:butt;stroke-linejoin:miter;stroke-opacity:1"/>
<path class="bond-8 atom-7 atom-9" d="M 59.2,110.0 L 46.1,104.4" style="fill:none;fill-rule:evenodd;stroke:#000000;stroke-width:2.0px;stroke-linecap:butt;stroke-linejoin:miter;stroke-opacity:1"/>
<path class="bond-8 atom-7 atom-9" d="M 46.1,104.4 L 33.0,98.7" style="fill:none;fill-rule:evenodd;stroke:#FF0000;stroke-width:2.0px;stroke-linecap:butt;stroke-linejoin:miter;stroke-opacity:1"/>
<path class="bond-9 atom-1 atom-10" d="M 146.4,82.3 L 178.1,96.0" style="fill:none;fill-rule:evenodd;stroke:#000000;stroke-width:2.0px;stroke-linecap:butt;stroke-linejoin:miter;stroke-opacity:1"/>
<path class="bond-10 atom-10 atom-11" d="M 178.1,96.0 L 172.6,108.9" style="fill:none;fill-rule:evenodd;stroke:#000000;stroke-width:2.0px;stroke-linecap:butt;stroke-linejoin:miter;stroke-opacity:1"/>
<path class="bond-10 atom-10 atom-11" d="M 172.6,108.9 L 167.0,121.7" style="fill:none;fill-rule:evenodd;stroke:#0000FF;stroke-width:2.0px;stroke-linecap:butt;stroke-linejoin:miter;stroke-opacity:1"/>
<path class="bond-11 atom-10 atom-12" d="M 178.1,96.0 L 183.6,83.3" style="fill:none;fill-rule:evenodd;stroke:#000000;stroke-width:2.0px;stroke-linecap:butt;stroke-linejoin:miter;stroke-opacity:1"/>
<path class="bond-11 atom-10 atom-12" d="M 183.6,83.3 L 189.1,70.5" style="fill:none;fill-rule:evenodd;stroke:#FF0000;stroke-width:2.0px;stroke-linecap:butt;stroke-linejoin:miter;stroke-opacity:1"/>
<path class="bond-12 atom-10 atom-13" d="M 178.1,96.0 L 209.9,109.7" style="fill:none;fill-rule:evenodd;stroke:#000000;stroke-width:2.0px;stroke-linecap:butt;stroke-linejoin:miter;stroke-opacity:1"/>
<path class="bond-13 atom-13 atom-14" d="M 209.9,109.7 L 220.9,101.5" style="fill:none;fill-rule:evenodd;stroke:#000000;stroke-width:2.0px;stroke-linecap:butt;stroke-linejoin:miter;stroke-opacity:1"/>
<path class="bond-13 atom-13 atom-14" d="M 220.9,101.5 L 231.9,93.2" style="fill:none;fill-rule:evenodd;stroke:#FF0000;stroke-width:2.0px;stroke-linecap:butt;stroke-linejoin:miter;stroke-opacity:1"/>
<path class="bond-14 atom-13 atom-15" d="M 209.9,109.7 L 211.5,123.8" style="fill:none;fill-rule:evenodd;stroke:#000000;stroke-width:2.0px;stroke-linecap:butt;stroke-linejoin:miter;stroke-opacity:1"/>
<path class="bond-14 atom-13 atom-15" d="M 211.5,123.8 L 213.2,137.9" style="fill:none;fill-rule:evenodd;stroke:#FF0000;stroke-width:2.0px;stroke-linecap:butt;stroke-linejoin:miter;stroke-opacity:1"/>
<path d="M 116.2,69.3 L 114.6,68.7 L 113.2,69.7" style="fill:none;stroke:#000000;stroke-width:2.0px;stroke-linecap:butt;stroke-linejoin:miter;stroke-opacity:1;"/>
<path class="atom-5" d="M 47.3 56.7 L 48.7 56.7 L 48.7 60.9 L 53.7 60.9 L 53.7 56.7 L 55.0 56.7 L 55.0 66.5 L 53.7 66.5 L 53.7 62.0 L 48.7 62.0 L 48.7 66.5 L 47.3 66.5 L 47.3 56.7 " fill="#0000FF"/>
<path class="atom-5" d="M 56.9 66.2 Q 57.1 65.5, 57.7 65.2 Q 58.3 64.9, 59.1 64.9 Q 60.0 64.9, 60.6 65.4 Q 61.1 65.9, 61.1 66.9 Q 61.1 67.8, 60.4 68.7 Q 59.7 69.6, 58.3 70.7 L 61.2 70.7 L 61.2 71.4 L 56.9 71.4 L 56.9 70.8 Q 58.1 69.9, 58.8 69.3 Q 59.5 68.6, 59.9 68.1 Q 60.2 67.5, 60.2 66.9 Q 60.2 66.3, 59.9 65.9 Q 59.6 65.6, 59.1 65.6 Q 58.5 65.6, 58.2 65.8 Q 57.8 66.0, 57.6 66.5 L 56.9 66.2 " fill="#0000FF"/>
<path class="atom-5" d="M 64.1 56.7 L 67.3 61.9 Q 67.6 62.4, 68.1 63.3 Q 68.6 64.3, 68.6 64.3 L 68.6 56.7 L 69.9 56.7 L 69.9 66.5 L 68.6 66.5 L 65.1 60.8 Q 64.7 60.2, 64.3 59.4 Q 63.9 58.6, 63.8 58.4 L 63.8 66.5 L 62.5 66.5 L 62.5 56.7 L 64.1 56.7 " fill="#0000FF"/>
<path class="atom-6" d="M 103.0 117.1 Q 103.0 114.7, 104.2 113.4 Q 105.4 112.1, 107.5 112.1 Q 109.7 112.1, 110.9 113.4 Q 112.0 114.7, 112.0 117.1 Q 112.0 119.4, 110.9 120.8 Q 109.7 122.1, 107.5 122.1 Q 105.4 122.1, 104.2 120.8 Q 103.0 119.5, 103.0 117.1 M 107.5 121.0 Q 109.0 121.0, 109.8 120.0 Q 110.7 119.0, 110.7 117.1 Q 110.7 115.1, 109.8 114.2 Q 109.0 113.2, 107.5 113.2 Q 106.0 113.2, 105.2 114.2 Q 104.4 115.1, 104.4 117.1 Q 104.4 119.0, 105.2 120.0 Q 106.0 121.0, 107.5 121.0 " fill="#FF0000"/>
<path class="atom-6" d="M 113.6 112.2 L 114.9 112.2 L 114.9 116.4 L 119.9 116.4 L 119.9 112.2 L 121.2 112.2 L 121.2 122.0 L 119.9 122.0 L 119.9 117.5 L 114.9 117.5 L 114.9 122.0 L 113.6 122.0 L 113.6 112.2 " fill="#FF0000"/>
<path class="atom-8" d="M 58.7 144.3 Q 58.7 142.0, 59.9 140.7 Q 61.0 139.4, 63.2 139.4 Q 65.4 139.4, 66.5 140.7 Q 67.7 142.0, 67.7 144.3 Q 67.7 146.7, 66.5 148.1 Q 65.3 149.4, 63.2 149.4 Q 61.0 149.4, 59.9 148.1 Q 58.7 146.7, 58.7 144.3 M 63.2 148.3 Q 64.7 148.3, 65.5 147.3 Q 66.3 146.3, 66.3 144.3 Q 66.3 142.4, 65.5 141.5 Q 64.7 140.5, 63.2 140.5 Q 61.7 140.5, 60.9 141.4 Q 60.1 142.4, 60.1 144.3 Q 60.1 146.3, 60.9 147.3 Q 61.7 148.3, 63.2 148.3 " fill="#FF0000"/>
<path class="atom-8" d="M 69.2 139.5 L 70.5 139.5 L 70.5 143.6 L 75.5 143.6 L 75.5 139.5 L 76.9 139.5 L 76.9 149.3 L 75.5 149.3 L 75.5 144.7 L 70.5 144.7 L 70.5 149.3 L 69.2 149.3 L 69.2 139.5 " fill="#FF0000"/>
<path class="atom-9" d="M 13.2 91.5 L 14.6 91.5 L 14.6 95.6 L 19.6 95.6 L 19.6 91.5 L 20.9 91.5 L 20.9 101.3 L 19.6 101.3 L 19.6 96.7 L 14.6 96.7 L 14.6 101.3 L 13.2 101.3 L 13.2 91.5 " fill="#FF0000"/>
<path class="atom-9" d="M 22.9 96.3 Q 22.9 94.0, 24.1 92.7 Q 25.2 91.4, 27.4 91.4 Q 29.6 91.4, 30.7 92.7 Q 31.9 94.0, 31.9 96.3 Q 31.9 98.7, 30.7 100.1 Q 29.6 101.4, 27.4 101.4 Q 25.3 101.4, 24.1 100.1 Q 22.9 98.7, 22.9 96.3 M 27.4 100.3 Q 28.9 100.3, 29.7 99.3 Q 30.5 98.3, 30.5 96.3 Q 30.5 94.4, 29.7 93.4 Q 28.9 92.5, 27.4 92.5 Q 25.9 92.5, 25.1 93.4 Q 24.3 94.4, 24.3 96.3 Q 24.3 98.3, 25.1 99.3 Q 25.9 100.3, 27.4 100.3 " fill="#FF0000"/>
<path class="atom-11" d="M 145.5 122.9 L 146.9 122.9 L 146.9 127.0 L 151.9 127.0 L 151.9 122.9 L 153.2 122.9 L 153.2 132.7 L 151.9 132.7 L 151.9 128.1 L 146.9 128.1 L 146.9 132.7 L 145.5 132.7 L 145.5 122.9 " fill="#0000FF"/>
<path class="atom-11" d="M 155.1 132.3 Q 155.3 131.7, 155.9 131.4 Q 156.5 131.0, 157.3 131.0 Q 158.2 131.0, 158.8 131.5 Q 159.3 132.1, 159.3 133.0 Q 159.3 134.0, 158.6 134.9 Q 157.9 135.8, 156.5 136.8 L 159.4 136.8 L 159.4 137.5 L 155.1 137.5 L 155.1 136.9 Q 156.3 136.1, 157.0 135.4 Q 157.7 134.8, 158.1 134.2 Q 158.4 133.7, 158.4 133.1 Q 158.4 132.4, 158.1 132.1 Q 157.8 131.7, 157.3 131.7 Q 156.7 131.7, 156.4 132.0 Q 156.1 132.2, 155.8 132.6 L 155.1 132.3 " fill="#0000FF"/>
<path class="atom-11" d="M 162.3 122.9 L 165.5 128.0 Q 165.8 128.6, 166.3 129.5 Q 166.8 130.4, 166.8 130.5 L 166.8 122.9 L 168.1 122.9 L 168.1 132.7 L 166.8 132.7 L 163.4 127.0 Q 163.0 126.3, 162.5 125.6 Q 162.1 124.8, 162.0 124.6 L 162.0 132.7 L 160.7 132.7 L 160.7 122.9 L 162.3 122.9 " fill="#0000FF"/>
<path class="atom-12" d="M 187.3 64.3 Q 187.3 61.9, 188.4 60.6 Q 189.6 59.3, 191.8 59.3 Q 193.9 59.3, 195.1 60.6 Q 196.3 61.9, 196.3 64.3 Q 196.3 66.7, 195.1 68.0 Q 193.9 69.4, 191.8 69.4 Q 189.6 69.4, 188.4 68.0 Q 187.3 66.7, 187.3 64.3 M 191.8 68.3 Q 193.3 68.3, 194.1 67.3 Q 194.9 66.2, 194.9 64.3 Q 194.9 62.4, 194.1 61.4 Q 193.3 60.4, 191.8 60.4 Q 190.3 60.4, 189.5 61.4 Q 188.7 62.3, 188.7 64.3 Q 188.7 66.3, 189.5 67.3 Q 190.3 68.3, 191.8 68.3 " fill="#FF0000"/>
<path class="atom-12" d="M 197.8 59.4 L 199.1 59.4 L 199.1 63.6 L 204.1 63.6 L 204.1 59.4 L 205.5 59.4 L 205.5 69.2 L 204.1 69.2 L 204.1 64.7 L 199.1 64.7 L 199.1 69.2 L 197.8 69.2 L 197.8 59.4 " fill="#FF0000"/>
<path class="atom-14" d="M 233.1 89.0 Q 233.1 86.7, 234.2 85.4 Q 235.4 84.1, 237.6 84.1 Q 239.7 84.1, 240.9 85.4 Q 242.1 86.7, 242.1 89.0 Q 242.1 91.4, 240.9 92.8 Q 239.7 94.1, 237.6 94.1 Q 235.4 94.1, 234.2 92.8 Q 233.1 91.4, 233.1 89.0 M 237.6 93.0 Q 239.1 93.0, 239.9 92.0 Q 240.7 91.0, 240.7 89.0 Q 240.7 87.1, 239.9 86.2 Q 239.1 85.2, 237.6 85.2 Q 236.1 85.2, 235.3 86.1 Q 234.5 87.1, 234.5 89.0 Q 234.5 91.0, 235.3 92.0 Q 236.1 93.0, 237.6 93.0 " fill="#FF0000"/>
<path class="atom-14" d="M 243.6 84.2 L 244.9 84.2 L 244.9 88.3 L 249.9 88.3 L 249.9 84.2 L 251.2 84.2 L 251.2 94.0 L 249.9 94.0 L 249.9 89.4 L 244.9 89.4 L 244.9 94.0 L 243.6 94.0 L 243.6 84.2 " fill="#FF0000"/>
<path class="atom-15" d="M 209.4 144.0 Q 209.4 141.7, 210.6 140.4 Q 211.7 139.1, 213.9 139.1 Q 216.1 139.1, 217.2 140.4 Q 218.4 141.7, 218.4 144.0 Q 218.4 146.4, 217.2 147.8 Q 216.0 149.1, 213.9 149.1 Q 211.7 149.1, 210.6 147.8 Q 209.4 146.4, 209.4 144.0 M 213.9 148.0 Q 215.4 148.0, 216.2 147.0 Q 217.0 146.0, 217.0 144.0 Q 217.0 142.1, 216.2 141.2 Q 215.4 140.2, 213.9 140.2 Q 212.4 140.2, 211.6 141.1 Q 210.8 142.1, 210.8 144.0 Q 210.8 146.0, 211.6 147.0 Q 212.4 148.0, 213.9 148.0 " fill="#FF0000"/>
<path class="atom-15" d="M 219.9 139.2 L 221.2 139.2 L 221.2 143.3 L 226.2 143.3 L 226.2 139.2 L 227.6 139.2 L 227.6 149.0 L 226.2 149.0 L 226.2 144.4 L 221.2 144.4 L 221.2 149.0 L 219.9 149.0 L 219.9 139.2 " fill="#FF0000"/>
</g>
    <g transform="translate(530.0, 0) scale(1 1) "><line x1="15" y1="100" x2="25" y2="100" style="stroke:rgb(0,0,0);stroke-width:2"/>
  <line x1="20" y1="95" x2="20" y2="105" style="stroke:rgb(0,0,0);stroke-width:2"/>
</g>
    <g transform="translate(570.0, 0) scale(1 1) "><!-- END OF HEADER -->
<rect style="opacity:1.0;fill:#FFFFFF;stroke:none" width="145.0" height="200.0" x="0.0" y="0.0"> </rect>
<path class="bond-0 atom-0 atom-1" d="M 7.2,156.3 L 72.2,118.8" style="fill:none;fill-rule:evenodd;stroke:#000000;stroke-width:2.0px;stroke-linecap:butt;stroke-linejoin:miter;stroke-opacity:1"/>
<path class="bond-1 atom-1 atom-2" d="M 72.2,118.8 L 137.2,156.3" style="fill:none;fill-rule:evenodd;stroke:#000000;stroke-width:2.0px;stroke-linecap:butt;stroke-linejoin:miter;stroke-opacity:1"/>
<path class="bond-2 atom-1 atom-3" d="M 72.2,118.8 L 72.2,43.7" style="fill:none;fill-rule:evenodd;stroke:#000000;stroke-width:2.0px;stroke-linecap:butt;stroke-linejoin:miter;stroke-opacity:1"/>
</g>
  </g>
</svg>
