<?xml version='1.0' encoding='ASCII' standalone='yes'?>
<svg xmlns="http://www.w3.org/2000/svg" xmlns:xlink="http://www.w3.org/1999/xlink" version="1.1" width="795.0px" viewBox="0 0 795.0 200.0" height="200.0px">
  <g>
    <g transform="translate(0, 0) scale(1 1) "><!-- END OF HEADER -->
<rect style="opacity:1.0;fill:#FFFFFF;stroke:none" width="240.0" height="200.0" x="0.0" y="0.0"> </rect>
<path class="bond-0 atom-0 atom-1" d="M 222.5,29.4 L 191.9,66.0" style="fill:none;fill-rule:evenodd;stroke:#000000;stroke-width:2.0px;stroke-linecap:butt;stroke-linejoin:miter;stroke-opacity:1"/>
<path class="bond-1 atom-1 atom-2" d="M 191.9,66.0 L 197.7,77.3" style="fill:none;fill-rule:evenodd;stroke:#000000;stroke-width:2.0px;stroke-linecap:butt;stroke-linejoin:miter;stroke-opacity:1"/>
<path class="bond-1 atom-1 atom-2" d="M 197.7,77.3 L 203.5,88.6" style="fill:none;fill-rule:evenodd;stroke:#FF0000;stroke-width:2.0px;stroke-linecap:butt;stroke-linejoin:miter;stroke-opacity:1"/>
<path class="bond-2 atom-1 atom-3" d="M 191.9,66.0 L 144.9,57.8" style="fill:none;fill-rule:evenodd;stroke:#000000;stroke-width:2.0px;stroke-linecap:butt;stroke-linejoin:miter;stroke-opacity:1"/>
<path class="bond-3 atom-3 atom-4" d="M 144.9,57.8 L 114.3,94.4" style="fill:none;fill-rule:evenodd;stroke:#000000;stroke-width:2.0px;stroke-linecap:butt;stroke-linejoin:miter;stroke-opacity:1"/>
<path class="bond-4 atom-4 atom-5" d="M 114.3,94.4 L 83.7,131.0" style="fill:none;fill-rule:evenodd;stroke:#000000;stroke-width:2.0px;stroke-linecap:butt;stroke-linejoin:miter;stroke-opacity:1"/>
<path class="bond-5 atom-4 atom-6" d="M 114.3,94.4 L 77.7,63.8" style="fill:none;fill-rule:evenodd;stroke:#000000;stroke-width:2.0px;stroke-linecap:butt;stroke-linejoin:miter;stroke-opacity:1"/>
<path class="bond-6 atom-6 atom-7" d="M 80.7,66.4 L 84.2,46.2" style="fill:none;fill-rule:evenodd;stroke:#000000;stroke-width:2.0px;stroke-linecap:butt;stroke-linejoin:miter;stroke-opacity:1"/>
<path class="bond-6 atom-6 atom-7" d="M 84.2,46.2 L 87.7,26.0" style="fill:none;fill-rule:evenodd;stroke:#FF0000;stroke-width:2.0px;stroke-linecap:butt;stroke-linejoin:miter;stroke-opacity:1"/>
<path class="bond-6 atom-6 atom-7" d="M 74.0,65.2 L 77.5,45.0" style="fill:none;fill-rule:evenodd;stroke:#000000;stroke-width:2.0px;stroke-linecap:butt;stroke-linejoin:miter;stroke-opacity:1"/>
<path class="bond-6 atom-6 atom-7" d="M 77.5,45.0 L 81.0,24.8" style="fill:none;fill-rule:evenodd;stroke:#FF0000;stroke-width:2.0px;stroke-linecap:butt;stroke-linejoin:miter;stroke-opacity:1"/>
<path class="bond-7 atom-6 atom-8" d="M 77.7,63.8 L 59.2,70.6" style="fill:none;fill-rule:evenodd;stroke:#000000;stroke-width:2.0px;stroke-linecap:butt;stroke-linejoin:miter;stroke-opacity:1"/>
<path class="bond-7 atom-6 atom-8" d="M 59.2,70.6 L 40.6,77.4" style="fill:none;fill-rule:evenodd;stroke:#FF0000;stroke-width:2.0px;stroke-linecap:butt;stroke-linejoin:miter;stroke-opacity:1"/>
<path class="bond-8 atom-4 atom-9" d="M 114.3,94.4 L 150.9,125.0" style="fill:none;fill-rule:evenodd;stroke:#000000;stroke-width:2.0px;stroke-linecap:butt;stroke-linejoin:miter;stroke-opacity:1"/>
<path class="bond-9 atom-9 atom-10" d="M 150.9,125.0 L 142.8,172.0" style="fill:none;fill-rule:evenodd;stroke:#000000;stroke-width:2.0px;stroke-linecap:butt;stroke-linejoin:miter;stroke-opacity:1"/>
<path class="bond-10 atom-9 atom-11" d="M 150.9,125.0 L 164.0,121.9" style="fill:none;fill-rule:evenodd;stroke:#000000;stroke-width:2.0px;stroke-linecap:butt;stroke-linejoin:miter;stroke-opacity:1"/>
<path class="bond-10 atom-9 atom-11" d="M 164.0,121.9 L 177.1,118.9" style="fill:none;fill-rule:evenodd;stroke:#FF0000;stroke-width:2.0px;stroke-linecap:butt;stroke-linejoin:miter;stroke-opacity:1"/>
<path d="M 147.2,58.2 L 144.9,57.8 L 143.4,59.6" style="fill:none;stroke:#000000;stroke-width:2.0px;stroke-linecap:butt;stroke-linejoin:miter;stroke-opacity:1;"/>
<path d="M 79.5,65.4 L 77.7,63.8 L 76.8,64.2" style="fill:none;stroke:#000000;stroke-width:2.0px;stroke-linecap:butt;stroke-linejoin:miter;stroke-opacity:1;"/>
<path class="atom-2" d="M 201.6 97.0 Q 201.6 93.7, 203.2 91.9 Q 204.8 90.1, 207.8 90.1 Q 210.8 90.1, 212.4 91.9 Q 214.0 93.7, 214.0 97.0 Q 214.0 100.3, 212.3 102.1 Q 210.7 104.0, 207.8 104.0 Q 204.8 104.0, 203.2 102.1 Q 201.6 100.3, 201.6 97.0 M 207.8 102.4 Q 209.8 102.4, 210.9 101.1 Q 212.1 99.7, 212.1 97.0 Q 212.1 94.3, 210.9 93.0 Q 209.8 91.6, 207.8 91.6 Q 205.7 91.6, 204.6 93.0 Q 203.5 94.3, 203.5 97.0 Q 203.5 99.7, 204.6 101.1 Q 205.7 102.4, 207.8 102.4 " fill="#FF0000"/>
<path class="atom-2" d="M 216.1 90.3 L 217.9 90.3 L 217.9 96.0 L 224.8 96.0 L 224.8 90.3 L 226.6 90.3 L 226.6 103.8 L 224.8 103.8 L 224.8 97.5 L 217.9 97.5 L 217.9 103.8 L 216.1 103.8 L 216.1 90.3 " fill="#FF0000"/>
<path class="atom-7" d="M 79.7 16.9 Q 79.7 13.6, 81.3 11.8 Q 82.9 10.0, 85.9 10.0 Q 88.9 10.0, 90.5 11.8 Q 92.1 13.6, 92.1 16.9 Q 92.1 20.2, 90.5 22.0 Q 88.8 23.9, 85.9 23.9 Q 82.9 23.9, 81.3 22.0 Q 79.7 20.2, 79.7 16.9 M 85.9 22.3 Q 87.9 22.3, 89.0 21.0 Q 90.2 19.6, 90.2 16.9 Q 90.2 14.2, 89.0 12.9 Q 87.9 11.5, 85.9 11.5 Q 83.8 11.5, 82.7 12.9 Q 81.6 14.2, 81.6 16.9 Q 81.6 19.6, 82.7 21.0 Q 83.8 22.3, 85.9 22.3 " fill="#FF0000"/>
<path class="atom-8" d="M 13.4 73.6 L 15.2 73.6 L 15.2 79.3 L 22.1 79.3 L 22.1 73.6 L 23.9 73.6 L 23.9 87.1 L 22.1 87.1 L 22.1 80.8 L 15.2 80.8 L 15.2 87.1 L 13.4 87.1 L 13.4 73.6 " fill="#FF0000"/>
<path class="atom-8" d="M 26.7 80.3 Q 26.7 77.0, 28.3 75.2 Q 29.9 73.4, 32.9 73.4 Q 35.9 73.4, 37.5 75.2 Q 39.1 77.0, 39.1 80.3 Q 39.1 83.6, 37.5 85.4 Q 35.9 87.3, 32.9 87.3 Q 29.9 87.3, 28.3 85.4 Q 26.7 83.6, 26.7 80.3 M 32.9 85.8 Q 35.0 85.8, 36.1 84.4 Q 37.2 83.0, 37.2 80.3 Q 37.2 77.6, 36.1 76.3 Q 35.0 74.9, 32.9 74.9 Q 30.8 74.9, 29.7 76.3 Q 28.6 77.6, 28.6 80.3 Q 28.6 83.0, 29.7 84.4 Q 30.8 85.8, 32.9 85.8 " fill="#FF0000"/>
<path class="atom-11" d="M 178.6 117.1 Q 178.6 113.9, 180.2 112.1 Q 181.8 110.3, 184.8 110.3 Q 187.8 110.3, 189.4 112.1 Q 191.0 113.9, 191.0 117.1 Q 191.0 120.4, 189.4 122.3 Q 187.8 124.1, 184.8 124.1 Q 181.8 124.1, 180.2 122.3 Q 178.6 120.4, 178.6 117.1 M 184.8 122.6 Q 186.9 122.6, 188.0 121.2 Q 189.1 119.8, 189.1 117.1 Q 189.1 114.5, 188.0 113.1 Q 186.9 111.8, 184.8 111.8 Q 182.7 111.8, 181.6 113.1 Q 180.5 114.5, 180.5 117.1 Q 180.5 119.9, 181.6 121.2 Q 182.7 122.6, 184.8 122.6 " fill="#FF0000"/>
<path class="atom-11" d="M 193.1 110.4 L 194.9 110.4 L 194.9 116.2 L 201.8 116.2 L 201.8 110.4 L 203.7 110.4 L 203.7 123.9 L 201.8 123.9 L 201.8 117.7 L 194.9 117.7 L 194.9 123.9 L 193.1 123.9 L 193.1 110.4 " fill="#FF0000"/>
<path class="legend" d="M 111.5 181.9 Q 111.5 179.6, 112.2 177.7 Q 112.8 175.8, 114.1 173.8 L 115.0 174.4 Q 114.0 176.3, 113.4 178.0 Q 112.9 179.7, 112.9 181.9 Q 112.9 184.0, 113.4 185.8 Q 114.0 187.5, 115.0 189.4 L 114.1 190.0 Q 112.8 188.0, 112.2 186.1 Q 111.5 184.2, 111.5 181.9 " fill="#000000"/>
<path class="legend" d="M 115.9 177.3 Q 116.4 176.2, 117.3 175.6 Q 118.3 175.0, 119.7 175.0 Q 121.4 175.0, 122.4 175.9 Q 123.3 176.8, 123.3 178.5 Q 123.3 180.2, 122.1 181.7 Q 120.9 183.3, 118.3 185.2 L 123.5 185.2 L 123.5 186.4 L 115.9 186.4 L 115.9 185.4 Q 118.0 183.9, 119.3 182.8 Q 120.5 181.6, 121.1 180.6 Q 121.7 179.6, 121.7 178.6 Q 121.7 177.5, 121.2 176.9 Q 120.7 176.3, 119.7 176.3 Q 118.8 176.3, 118.2 176.6 Q 117.6 177.0, 117.2 177.8 L 115.9 177.3 " fill="#000000"/>
<path class="legend" d="M 128.5 181.9 Q 128.5 184.2, 127.8 186.1 Q 127.2 188.0, 125.9 190.0 L 125.0 189.4 Q 126.0 187.5, 126.5 185.8 Q 127.1 184.0, 127.1 181.9 Q 127.1 179.7, 126.5 178.0 Q 126.0 176.3, 125.0 174.4 L 125.9 173.8 Q 127.2 175.8, 127.8 177.7 Q 128.5 179.6, 128.5 181.9 " fill="#000000"/>
</g>
    <g transform="translate(240.0, 0) scale(1 1) "><line x1="5" y1="100" x2="35" y2="100" style="stroke:rgb(0,0,0);stroke-width:2"/>
  <line x1="34" y1="100" x2="29" y2="95" style="stroke:rgb(0,0,0);stroke-width:2"/>
  <line x1="34" y1="100" x2="29" y2="105" style="stroke:rgb(0,0,0);stroke-width:2"/>
</g>
    <g transform="translate(280.0, 0) scale(1 1) "><!-- END OF HEADER -->
<rect style="opacity:1.0;fill:#FFFFFF;stroke:none" width="215.0" height="200.0" x="0.0" y="0.0"> </rect>
<path class="bond-0 atom-0 atom-1" d="M 183.7,56.0 L 158.3,99.9" style="fill:none;fill-rule:evenodd;stroke:#000000;stroke-width:2.0px;stroke-linecap:butt;stroke-linejoin:miter;stroke-opacity:1"/>
<path class="bond-1 atom-1 atom-2" d="M 158.3,99.9 L 168.4,117.4" style="fill:none;fill-rule:evenodd;stroke:#000000;stroke-width:2.0px;stroke-linecap:butt;stroke-linejoin:miter;stroke-opacity:1"/>
<path class="bond-1 atom-1 atom-2" d="M 168.4,117.4 L 178.5,134.9" style="fill:none;fill-rule:evenodd;stroke:#FF0000;stroke-width:2.0px;stroke-linecap:butt;stroke-linejoin:miter;stroke-opacity:1"/>
<path class="bond-2 atom-1 atom-3" d="M 158.3,99.9 L 107.6,99.9" style="fill:none;fill-rule:evenodd;stroke:#000000;stroke-width:2.0px;stroke-linecap:butt;stroke-linejoin:miter;stroke-opacity:1"/>
<path class="bond-3 atom-3 atom-4" d="M 107.6,99.9 L 107.6,49.2" style="fill:none;fill-rule:evenodd;stroke:#000000;stroke-width:2.0px;stroke-linecap:butt;stroke-linejoin:miter;stroke-opacity:1"/>
<path class="bond-4 atom-3 atom-5" d="M 107.6,99.9 L 107.6,150.6" style="fill:none;fill-rule:evenodd;stroke:#000000;stroke-width:2.0px;stroke-linecap:butt;stroke-linejoin:miter;stroke-opacity:1"/>
<path class="bond-5 atom-3 atom-6" d="M 107.6,99.9 L 56.9,99.9" style="fill:none;fill-rule:evenodd;stroke:#000000;stroke-width:2.0px;stroke-linecap:butt;stroke-linejoin:miter;stroke-opacity:1"/>
<path class="bond-6 atom-6 atom-7" d="M 54.7,96.1 L 44.0,114.5" style="fill:none;fill-rule:evenodd;stroke:#000000;stroke-width:2.0px;stroke-linecap:butt;stroke-linejoin:miter;stroke-opacity:1"/>
<path class="bond-6 atom-6 atom-7" d="M 44.0,114.5 L 33.4,133.0" style="fill:none;fill-rule:evenodd;stroke:#FF0000;stroke-width:2.0px;stroke-linecap:butt;stroke-linejoin:miter;stroke-opacity:1"/>
<path class="bond-6 atom-6 atom-7" d="M 61.3,99.9 L 50.6,118.3" style="fill:none;fill-rule:evenodd;stroke:#000000;stroke-width:2.0px;stroke-linecap:butt;stroke-linejoin:miter;stroke-opacity:1"/>
<path class="bond-6 atom-6 atom-7" d="M 50.6,118.3 L 40.0,136.8" style="fill:none;fill-rule:evenodd;stroke:#FF0000;stroke-width:2.0px;stroke-linecap:butt;stroke-linejoin:miter;stroke-opacity:1"/>
<path class="bond-7 atom-6 atom-8" d="M 56.9,99.9 L 46.9,82.5" style="fill:none;fill-rule:evenodd;stroke:#000000;stroke-width:2.0px;stroke-linecap:butt;stroke-linejoin:miter;stroke-opacity:1"/>
<path class="bond-7 atom-6 atom-8" d="M 46.9,82.5 L 36.8,65.1" style="fill:none;fill-rule:evenodd;stroke:#FF0000;stroke-width:2.0px;stroke-linecap:butt;stroke-linejoin:miter;stroke-opacity:1"/>
<path d="M 59.4,99.9 L 56.9,99.9 L 56.4,99.0" style="fill:none;stroke:#000000;stroke-width:2.0px;stroke-linecap:butt;stroke-linejoin:miter;stroke-opacity:1;"/>
<path class="atom-2" d="M 177.1 143.9 Q 177.1 140.4, 178.8 138.5 Q 180.5 136.5, 183.7 136.5 Q 186.9 136.5, 188.6 138.5 Q 190.3 140.4, 190.3 143.9 Q 190.3 147.3, 188.6 149.3 Q 186.8 151.3, 183.7 151.3 Q 180.5 151.3, 178.8 149.3 Q 177.1 147.4, 177.1 143.9 M 183.7 149.7 Q 185.9 149.7, 187.0 148.2 Q 188.2 146.7, 188.2 143.9 Q 188.2 141.0, 187.0 139.6 Q 185.9 138.2, 183.7 138.2 Q 181.5 138.2, 180.3 139.6 Q 179.1 141.0, 179.1 143.9 Q 179.1 146.8, 180.3 148.2 Q 181.5 149.7, 183.7 149.7 " fill="#FF0000"/>
<path class="atom-2" d="M 192.5 136.7 L 194.5 136.7 L 194.5 142.8 L 201.8 142.8 L 201.8 136.7 L 203.7 136.7 L 203.7 151.1 L 201.8 151.1 L 201.8 144.4 L 194.5 144.4 L 194.5 151.1 L 192.5 151.1 L 192.5 136.7 " fill="#FF0000"/>
<path class="atom-7" d="M 24.9 143.9 Q 24.9 140.4, 26.6 138.5 Q 28.3 136.5, 31.5 136.5 Q 34.7 136.5, 36.4 138.5 Q 38.1 140.4, 38.1 143.9 Q 38.1 147.3, 36.4 149.3 Q 34.7 151.3, 31.5 151.3 Q 28.4 151.3, 26.6 149.3 Q 24.9 147.4, 24.9 143.9 M 31.5 149.7 Q 33.7 149.7, 34.9 148.2 Q 36.1 146.7, 36.1 143.9 Q 36.1 141.0, 34.9 139.6 Q 33.7 138.2, 31.5 138.2 Q 29.3 138.2, 28.1 139.6 Q 27.0 141.0, 27.0 143.9 Q 27.0 146.8, 28.1 148.2 Q 29.3 149.7, 31.5 149.7 " fill="#FF0000"/>
<path class="atom-8" d="M 10.7 48.9 L 12.7 48.9 L 12.7 55.0 L 20.0 55.0 L 20.0 48.9 L 22.0 48.9 L 22.0 63.2 L 20.0 63.2 L 20.0 56.6 L 12.7 56.6 L 12.7 63.2 L 10.7 63.2 L 10.7 48.9 " fill="#FF0000"/>
<path class="atom-8" d="M 24.9 56.0 Q 24.9 52.6, 26.6 50.6 Q 28.3 48.7, 31.5 48.7 Q 34.7 48.7, 36.4 50.6 Q 38.1 52.6, 38.1 56.0 Q 38.1 59.5, 36.4 61.5 Q 34.7 63.5, 31.5 63.5 Q 28.4 63.5, 26.6 61.5 Q 24.9 59.5, 24.9 56.0 M 31.5 61.8 Q 33.7 61.8, 34.9 60.4 Q 36.1 58.9, 36.1 56.0 Q 36.1 53.2, 34.9 51.8 Q 33.7 50.3, 31.5 50.3 Q 29.3 50.3, 28.1 51.7 Q 27.0 53.2, 27.0 56.0 Q 27.0 58.9, 28.1 60.4 Q 29.3 61.8, 31.5 61.8 " fill="#FF0000"/>
</g>
    <g transform="translate(495.0, 0) scale(1 1) "><line x1="15" y1="100" x2="25" y2="100" style="stroke:rgb(0,0,0);stroke-width:2"/>
  <line x1="20" y1="95" x2="20" y2="105" style="stroke:rgb(0,0,0);stroke-width:2"/>
</g>
    <g transform="translate(535.0, 0) scale(1 1) "><!-- END OF HEADER -->
<rect style="opacity:1.0;fill:#FFFFFF;stroke:none" width="260.0" height="200.0" x="0.0" y="0.0"> </rect>
<path class="bond-0 atom-0 atom-1" d="M 96.7,10.9 L 93.0,61.2" style="fill:none;fill-rule:evenodd;stroke:#000000;stroke-width:2.0px;stroke-linecap:butt;stroke-linejoin:miter;stroke-opacity:1"/>
<path class="bond-1 atom-1 atom-2" d="M 93.0,61.2 L 79.7,65.7" style="fill:none;fill-rule:evenodd;stroke:#000000;stroke-width:2.0px;stroke-linecap:butt;stroke-linejoin:miter;stroke-opacity:1"/>
<path class="bond-1 atom-1 atom-2" d="M 79.7,65.7 L 66.3,70.3" style="fill:none;fill-rule:evenodd;stroke:#FF0000;stroke-width:2.0px;stroke-linecap:butt;stroke-linejoin:miter;stroke-opacity:1"/>
<path class="bond-2 atom-1 atom-3" d="M 93.0,61.2 L 134.7,89.5" style="fill:none;fill-rule:evenodd;stroke:#000000;stroke-width:2.0px;stroke-linecap:butt;stroke-linejoin:miter;stroke-opacity:1"/>
<path class="bond-3 atom-3 atom-4" d="M 134.7,89.5 L 180.1,67.5" style="fill:none;fill-rule:evenodd;stroke:#000000;stroke-width:2.0px;stroke-linecap:butt;stroke-linejoin:miter;stroke-opacity:1"/>
<path class="bond-4 atom-4 atom-5" d="M 180.1,67.5 L 216.4,86.1" style="fill:none;fill-rule:evenodd;stroke:#000000;stroke-width:2.0px;stroke-linecap:butt;stroke-linejoin:miter;stroke-opacity:1"/>
<path class="bond-5 atom-4 atom-6" d="M 180.1,67.5 L 181.6,46.8" style="fill:none;fill-rule:evenodd;stroke:#000000;stroke-width:2.0px;stroke-linecap:butt;stroke-linejoin:miter;stroke-opacity:1"/>
<path class="bond-5 atom-4 atom-6" d="M 181.6,46.8 L 183.1,26.2" style="fill:none;fill-rule:evenodd;stroke:#FF0000;stroke-width:2.0px;stroke-linecap:butt;stroke-linejoin:miter;stroke-opacity:1"/>
<path class="bond-6 atom-3 atom-7" d="M 134.7,89.5 L 131.1,139.7" style="fill:none;fill-rule:evenodd;stroke:#000000;stroke-width:2.0px;stroke-linecap:butt;stroke-linejoin:miter;stroke-opacity:1"/>
<path class="bond-7 atom-7 atom-8" d="M 131.1,139.7 L 127.4,190.0" style="fill:none;fill-rule:evenodd;stroke:#000000;stroke-width:2.0px;stroke-linecap:butt;stroke-linejoin:miter;stroke-opacity:1"/>
<path class="bond-8 atom-7 atom-9" d="M 131.1,139.7 L 80.8,136.1" style="fill:none;fill-rule:evenodd;stroke:#000000;stroke-width:2.0px;stroke-linecap:butt;stroke-linejoin:miter;stroke-opacity:1"/>
<path class="bond-9 atom-9 atom-10" d="M 85.2,136.4 L 77.4,124.3" style="fill:none;fill-rule:evenodd;stroke:#000000;stroke-width:2.0px;stroke-linecap:butt;stroke-linejoin:miter;stroke-opacity:1"/>
<path class="bond-9 atom-9 atom-10" d="M 77.4,124.3 L 69.6,112.3" style="fill:none;fill-rule:evenodd;stroke:#FF0000;stroke-width:2.0px;stroke-linecap:butt;stroke-linejoin:miter;stroke-opacity:1"/>
<path class="bond-9 atom-9 atom-10" d="M 78.6,139.3 L 71.5,128.2" style="fill:none;fill-rule:evenodd;stroke:#000000;stroke-width:2.0px;stroke-linecap:butt;stroke-linejoin:miter;stroke-opacity:1"/>
<path class="bond-9 atom-9 atom-10" d="M 71.5,128.2 L 63.7,116.1" style="fill:none;fill-rule:evenodd;stroke:#FF0000;stroke-width:2.0px;stroke-linecap:butt;stroke-linejoin:miter;stroke-opacity:1"/>
<path class="bond-10 atom-9 atom-11" d="M 80.8,136.1 L 69.6,152.5" style="fill:none;fill-rule:evenodd;stroke:#000000;stroke-width:2.0px;stroke-linecap:butt;stroke-linejoin:miter;stroke-opacity:1"/>
<path class="bond-10 atom-9 atom-11" d="M 69.6,152.5 L 58.5,169.0" style="fill:none;fill-rule:evenodd;stroke:#FF0000;stroke-width:2.0px;stroke-linecap:butt;stroke-linejoin:miter;stroke-opacity:1"/>
<path class="bond-11 atom-7 atom-12" d="M 131.1,139.7 L 181.3,143.4" style="fill:none;fill-rule:evenodd;stroke:#000000;stroke-width:2.0px;stroke-linecap:butt;stroke-linejoin:miter;stroke-opacity:1"/>
<path class="bond-12 atom-12 atom-13" d="M 181.3,143.4 L 203.3,188.7" style="fill:none;fill-rule:evenodd;stroke:#000000;stroke-width:2.0px;stroke-linecap:butt;stroke-linejoin:miter;stroke-opacity:1"/>
<path class="bond-13 atom-12 atom-14" d="M 181.3,143.4 L 190.8,132.5" style="fill:none;fill-rule:evenodd;stroke:#000000;stroke-width:2.0px;stroke-linecap:butt;stroke-linejoin:miter;stroke-opacity:1"/>
<path class="bond-13 atom-12 atom-14" d="M 190.8,132.5 L 200.3,121.6" style="fill:none;fill-rule:evenodd;stroke:#FF0000;stroke-width:2.0px;stroke-linecap:butt;stroke-linejoin:miter;stroke-opacity:1"/>
<path d="M 83.3,136.3 L 80.8,136.1 L 80.2,136.9" style="fill:none;stroke:#000000;stroke-width:2.0px;stroke-linecap:butt;stroke-linejoin:miter;stroke-opacity:1;"/>
<path class="atom-2" d="M 37.6 66.0 L 39.5 66.0 L 39.5 72.0 L 46.8 72.0 L 46.8 66.0 L 48.8 66.0 L 48.8 80.3 L 46.8 80.3 L 46.8 73.7 L 39.5 73.7 L 39.5 80.3 L 37.6 80.3 L 37.6 66.0 " fill="#FF0000"/>
<path class="atom-2" d="M 51.7 73.1 Q 51.7 69.6, 53.4 67.7 Q 55.1 65.8, 58.2 65.8 Q 61.4 65.8, 63.1 67.7 Q 64.8 69.6, 64.8 73.1 Q 64.8 76.5, 63.1 78.5 Q 61.4 80.5, 58.2 80.5 Q 55.1 80.5, 53.4 78.5 Q 51.7 76.6, 51.7 73.1 M 58.2 78.9 Q 60.4 78.9, 61.6 77.4 Q 62.8 75.9, 62.8 73.1 Q 62.8 70.3, 61.6 68.9 Q 60.4 67.4, 58.2 67.4 Q 56.1 67.4, 54.9 68.8 Q 53.7 70.3, 53.7 73.1 Q 53.7 76.0, 54.9 77.4 Q 56.1 78.9, 58.2 78.9 " fill="#FF0000"/>
<path class="atom-6" d="M 177.2 17.3 Q 177.2 13.8, 178.9 11.9 Q 180.6 10.0, 183.7 10.0 Q 186.9 10.0, 188.6 11.9 Q 190.3 13.8, 190.3 17.3 Q 190.3 20.7, 188.6 22.7 Q 186.9 24.7, 183.7 24.7 Q 180.6 24.7, 178.9 22.7 Q 177.2 20.7, 177.2 17.3 M 183.7 23.0 Q 185.9 23.0, 187.1 21.6 Q 188.3 20.1, 188.3 17.3 Q 188.3 14.5, 187.1 13.0 Q 185.9 11.6, 183.7 11.6 Q 181.5 11.6, 180.4 13.0 Q 179.2 14.4, 179.2 17.3 Q 179.2 20.1, 180.4 21.6 Q 181.5 23.0, 183.7 23.0 " fill="#FF0000"/>
<path class="atom-6" d="M 192.5 10.2 L 194.4 10.2 L 194.4 16.2 L 201.7 16.2 L 201.7 10.2 L 203.7 10.2 L 203.7 24.4 L 201.7 24.4 L 201.7 17.8 L 194.4 17.8 L 194.4 24.4 L 192.5 24.4 L 192.5 10.2 " fill="#FF0000"/>
<path class="atom-10" d="M 54.3 105.3 Q 54.3 101.8, 56.0 99.9 Q 57.7 98.0, 60.9 98.0 Q 64.0 98.0, 65.7 99.9 Q 67.4 101.8, 67.4 105.3 Q 67.4 108.7, 65.7 110.7 Q 64.0 112.7, 60.9 112.7 Q 57.7 112.7, 56.0 110.7 Q 54.3 108.7, 54.3 105.3 M 60.9 111.0 Q 63.0 111.0, 64.2 109.6 Q 65.4 108.1, 65.4 105.3 Q 65.4 102.5, 64.2 101.0 Q 63.0 99.6, 60.9 99.6 Q 58.7 99.6, 57.5 101.0 Q 56.3 102.4, 56.3 105.3 Q 56.3 108.1, 57.5 109.6 Q 58.7 111.0, 60.9 111.0 " fill="#FF0000"/>
<path class="atom-11" d="M 31.9 170.7 L 33.8 170.7 L 33.8 176.8 L 41.1 176.8 L 41.1 170.7 L 43.0 170.7 L 43.0 185.0 L 41.1 185.0 L 41.1 178.4 L 33.8 178.4 L 33.8 185.0 L 31.9 185.0 L 31.9 170.7 " fill="#FF0000"/>
<path class="atom-11" d="M 45.9 177.8 Q 45.9 174.4, 47.6 172.5 Q 49.3 170.6, 52.5 170.6 Q 55.7 170.6, 57.4 172.5 Q 59.1 174.4, 59.1 177.8 Q 59.1 181.3, 57.3 183.3 Q 55.6 185.2, 52.5 185.2 Q 49.4 185.2, 47.6 183.3 Q 45.9 181.3, 45.9 177.8 M 52.5 183.6 Q 54.7 183.6, 55.8 182.2 Q 57.0 180.7, 57.0 177.8 Q 57.0 175.0, 55.8 173.6 Q 54.7 172.2, 52.5 172.2 Q 50.3 172.2, 49.1 173.6 Q 48.0 175.0, 48.0 177.8 Q 48.0 180.7, 49.1 182.2 Q 50.3 183.6, 52.5 183.6 " fill="#FF0000"/>
<path class="atom-14" d="M 201.7 112.7 Q 201.7 109.3, 203.3 107.3 Q 205.0 105.4, 208.2 105.4 Q 211.4 105.4, 213.1 107.3 Q 214.8 109.3, 214.8 112.7 Q 214.8 116.1, 213.0 118.1 Q 211.3 120.1, 208.2 120.1 Q 205.1 120.1, 203.3 118.1 Q 201.7 116.2, 201.7 112.7 M 208.2 118.5 Q 210.4 118.5, 211.6 117.0 Q 212.7 115.5, 212.7 112.7 Q 212.7 109.9, 211.6 108.5 Q 210.4 107.0, 208.2 107.0 Q 206.0 107.0, 204.8 108.4 Q 203.7 109.9, 203.7 112.7 Q 203.7 115.6, 204.8 117.0 Q 206.0 118.5, 208.2 118.5 " fill="#FF0000"/>
<path class="atom-14" d="M 217.0 105.6 L 218.9 105.6 L 218.9 111.7 L 226.2 111.7 L 226.2 105.6 L 228.1 105.6 L 228.1 119.9 L 226.2 119.9 L 226.2 113.3 L 218.9 113.3 L 218.9 119.9 L 217.0 119.9 L 217.0 105.6 " fill="#FF0000"/>
</g>
  </g>
</svg>
