<?xml version='1.0' encoding='ASCII' standalone='yes'?>
<svg xmlns="http://www.w3.org/2000/svg" xmlns:xlink="http://www.w3.org/1999/xlink" version="1.1" width="739.0px" viewBox="0 0 739.0 200.0" height="200.0px">
  <g>
    <g transform="translate(0, 0) scale(1 1) "><!-- END OF HEADER -->
<rect style="opacity:1.0;fill:#FFFFFF;stroke:none" width="225.0" height="200.0" x="0.0" y="0.0"> </rect>
<path class="bond-0 atom-0 atom-1" d="M 180.0,41.1 L 155.0,73.9" style="fill:none;fill-rule:evenodd;stroke:#000000;stroke-width:2.0px;stroke-linecap:butt;stroke-linejoin:miter;stroke-opacity:1"/>
<path class="bond-0 atom-0 atom-1" d="M 175.3,37.5 L 150.3,70.3" style="fill:none;fill-rule:evenodd;stroke:#000000;stroke-width:2.0px;stroke-linecap:butt;stroke-linejoin:miter;stroke-opacity:1"/>
<path class="bond-1 atom-1 atom-2" d="M 153.7,70.8 L 114.5,65.7" style="fill:none;fill-rule:evenodd;stroke:#000000;stroke-width:2.0px;stroke-linecap:butt;stroke-linejoin:miter;stroke-opacity:1"/>
<path class="bond-2 atom-2 atom-3" d="M 114.5,65.7 L 90.6,97.2" style="fill:none;fill-rule:evenodd;stroke:#000000;stroke-width:2.0px;stroke-linecap:butt;stroke-linejoin:miter;stroke-opacity:1"/>
<path class="bond-3 atom-3 atom-4" d="M 90.6,97.2 L 51.4,92.1" style="fill:none;fill-rule:evenodd;stroke:#000000;stroke-width:2.0px;stroke-linecap:butt;stroke-linejoin:miter;stroke-opacity:1"/>
<path class="bond-4 atom-4 atom-5" d="M 54.8,92.6 L 48.3,77.1" style="fill:none;fill-rule:evenodd;stroke:#000000;stroke-width:2.0px;stroke-linecap:butt;stroke-linejoin:miter;stroke-opacity:1"/>
<path class="bond-4 atom-4 atom-5" d="M 48.3,77.1 L 41.8,61.7" style="fill:none;fill-rule:evenodd;stroke:#FF0000;stroke-width:2.0px;stroke-linecap:butt;stroke-linejoin:miter;stroke-opacity:1"/>
<path class="bond-4 atom-4 atom-5" d="M 49.3,94.9 L 42.8,79.4" style="fill:none;fill-rule:evenodd;stroke:#000000;stroke-width:2.0px;stroke-linecap:butt;stroke-linejoin:miter;stroke-opacity:1"/>
<path class="bond-4 atom-4 atom-5" d="M 42.8,79.4 L 36.4,64.0" style="fill:none;fill-rule:evenodd;stroke:#FF0000;stroke-width:2.0px;stroke-linecap:butt;stroke-linejoin:miter;stroke-opacity:1"/>
<path class="bond-5 atom-4 atom-6" d="M 51.4,92.1 L 42.1,104.4" style="fill:none;fill-rule:evenodd;stroke:#000000;stroke-width:2.0px;stroke-linecap:butt;stroke-linejoin:miter;stroke-opacity:1"/>
<path class="bond-5 atom-4 atom-6" d="M 42.1,104.4 L 32.7,116.6" style="fill:none;fill-rule:evenodd;stroke:#FF0000;stroke-width:2.0px;stroke-linecap:butt;stroke-linejoin:miter;stroke-opacity:1"/>
<path class="bond-6 atom-1 atom-7" d="M 153.7,70.8 L 168.9,107.2" style="fill:none;fill-rule:evenodd;stroke:#000000;stroke-width:2.0px;stroke-linecap:butt;stroke-linejoin:miter;stroke-opacity:1"/>
<path class="bond-7 atom-7 atom-8" d="M 166.9,109.9 L 184.1,112.1" style="fill:none;fill-rule:evenodd;stroke:#000000;stroke-width:2.0px;stroke-linecap:butt;stroke-linejoin:miter;stroke-opacity:1"/>
<path class="bond-7 atom-7 atom-8" d="M 184.1,112.1 L 201.3,114.3" style="fill:none;fill-rule:evenodd;stroke:#FF0000;stroke-width:2.0px;stroke-linecap:butt;stroke-linejoin:miter;stroke-opacity:1"/>
<path class="bond-7 atom-7 atom-8" d="M 167.6,104.0 L 184.8,106.3" style="fill:none;fill-rule:evenodd;stroke:#000000;stroke-width:2.0px;stroke-linecap:butt;stroke-linejoin:miter;stroke-opacity:1"/>
<path class="bond-7 atom-7 atom-8" d="M 184.8,106.3 L 202.1,108.5" style="fill:none;fill-rule:evenodd;stroke:#FF0000;stroke-width:2.0px;stroke-linecap:butt;stroke-linejoin:miter;stroke-opacity:1"/>
<path class="bond-8 atom-7 atom-9" d="M 168.9,107.2 L 159.6,119.4" style="fill:none;fill-rule:evenodd;stroke:#000000;stroke-width:2.0px;stroke-linecap:butt;stroke-linejoin:miter;stroke-opacity:1"/>
<path class="bond-8 atom-7 atom-9" d="M 159.6,119.4 L 150.3,131.7" style="fill:none;fill-rule:evenodd;stroke:#FF0000;stroke-width:2.0px;stroke-linecap:butt;stroke-linejoin:miter;stroke-opacity:1"/>
<path d="M 151.7,70.5 L 153.7,70.8 L 154.4,72.6" style="fill:none;stroke:#000000;stroke-width:2.0px;stroke-linecap:butt;stroke-linejoin:miter;stroke-opacity:1;"/>
<path d="M 116.5,66.0 L 114.5,65.7 L 113.3,67.3" style="fill:none;stroke:#000000;stroke-width:2.0px;stroke-linecap:butt;stroke-linejoin:miter;stroke-opacity:1;"/>
<path d="M 91.8,95.6 L 90.6,97.2 L 88.6,96.9" style="fill:none;stroke:#000000;stroke-width:2.0px;stroke-linecap:butt;stroke-linejoin:miter;stroke-opacity:1;"/>
<path d="M 53.3,92.4 L 51.4,92.1 L 50.9,92.8" style="fill:none;stroke:#000000;stroke-width:2.0px;stroke-linecap:butt;stroke-linejoin:miter;stroke-opacity:1;"/>
<path d="M 168.2,105.4 L 168.9,107.2 L 168.5,107.8" style="fill:none;stroke:#000000;stroke-width:2.0px;stroke-linecap:butt;stroke-linejoin:miter;stroke-opacity:1;"/>
<path class="atom-5" d="M 31.0 55.7 Q 31.0 53.0, 32.3 51.5 Q 33.7 50.0, 36.1 50.0 Q 38.6 50.0, 39.9 51.5 Q 41.3 53.0, 41.3 55.7 Q 41.3 58.4, 39.9 60.0 Q 38.6 61.5, 36.1 61.5 Q 33.7 61.5, 32.3 60.0 Q 31.0 58.5, 31.0 55.7 M 36.1 60.3 Q 37.8 60.3, 38.8 59.1 Q 39.7 58.0, 39.7 55.7 Q 39.7 53.5, 38.8 52.4 Q 37.8 51.3, 36.1 51.3 Q 34.4 51.3, 33.5 52.4 Q 32.6 53.5, 32.6 55.7 Q 32.6 58.0, 33.5 59.1 Q 34.4 60.3, 36.1 60.3 " fill="#FF0000"/>
<path class="atom-6" d="M 11.2 118.0 L 12.8 118.0 L 12.8 122.8 L 18.5 122.8 L 18.5 118.0 L 20.0 118.0 L 20.0 129.2 L 18.5 129.2 L 18.5 124.1 L 12.8 124.1 L 12.8 129.2 L 11.2 129.2 L 11.2 118.0 " fill="#FF0000"/>
<path class="atom-6" d="M 22.3 123.6 Q 22.3 120.9, 23.6 119.4 Q 25.0 117.9, 27.4 117.9 Q 29.9 117.9, 31.2 119.4 Q 32.6 120.9, 32.6 123.6 Q 32.6 126.3, 31.2 127.9 Q 29.9 129.4, 27.4 129.4 Q 25.0 129.4, 23.6 127.9 Q 22.3 126.3, 22.3 123.6 M 27.4 128.1 Q 29.1 128.1, 30.1 127.0 Q 31.0 125.8, 31.0 123.6 Q 31.0 121.4, 30.1 120.3 Q 29.1 119.2, 27.4 119.2 Q 25.7 119.2, 24.8 120.3 Q 23.9 121.4, 23.9 123.6 Q 23.9 125.9, 24.8 127.0 Q 25.7 128.1, 27.4 128.1 " fill="#FF0000"/>
<path class="atom-8" d="M 203.0 112.3 Q 203.0 109.6, 204.3 108.1 Q 205.6 106.6, 208.1 106.6 Q 210.6 106.6, 211.9 108.1 Q 213.2 109.6, 213.2 112.3 Q 213.2 115.0, 211.9 116.5 Q 210.6 118.1, 208.1 118.1 Q 205.6 118.1, 204.3 116.5 Q 203.0 115.0, 203.0 112.3 M 208.1 116.8 Q 209.8 116.8, 210.7 115.7 Q 211.7 114.5, 211.7 112.3 Q 211.7 110.1, 210.7 109.0 Q 209.8 107.8, 208.1 107.8 Q 206.4 107.8, 205.5 108.9 Q 204.6 110.0, 204.6 112.3 Q 204.6 114.5, 205.5 115.7 Q 206.4 116.8, 208.1 116.8 " fill="#FF0000"/>
<path class="atom-9" d="M 128.8 133.1 L 130.3 133.1 L 130.3 137.9 L 136.0 137.9 L 136.0 133.1 L 137.6 133.1 L 137.6 144.3 L 136.0 144.3 L 136.0 139.1 L 130.3 139.1 L 130.3 144.3 L 128.8 144.3 L 128.8 133.1 " fill="#FF0000"/>
<path class="atom-9" d="M 139.9 138.7 Q 139.9 136.0, 141.2 134.5 Q 142.5 133.0, 145.0 133.0 Q 147.5 133.0, 148.8 134.5 Q 150.1 136.0, 150.1 138.7 Q 150.1 141.4, 148.8 142.9 Q 147.4 144.5, 145.0 144.5 Q 142.5 144.5, 141.2 142.9 Q 139.9 141.4, 139.9 138.7 M 145.0 143.2 Q 146.7 143.2, 147.6 142.1 Q 148.5 140.9, 148.5 138.7 Q 148.5 136.5, 147.6 135.4 Q 146.7 134.2, 145.0 134.2 Q 143.3 134.2, 142.3 135.3 Q 141.4 136.4, 141.4 138.7 Q 141.4 140.9, 142.3 142.1 Q 143.3 143.2, 145.0 143.2 " fill="#FF0000"/>
<path class="legend" d="M 103.7 181.9 Q 103.7 179.6, 104.4 177.7 Q 105.1 175.8, 106.4 173.8 L 107.3 174.4 Q 106.2 176.3, 105.7 178.0 Q 105.2 179.7, 105.2 181.9 Q 105.2 184.0, 105.7 185.8 Q 106.2 187.5, 107.3 189.4 L 106.4 190.0 Q 105.1 188.0, 104.4 186.1 Q 103.7 184.2, 103.7 181.9 " fill="#000000"/>
<path class="legend" d="M 108.2 177.3 Q 108.6 176.2, 109.6 175.6 Q 110.6 175.0, 112.0 175.0 Q 113.7 175.0, 114.6 175.9 Q 115.6 176.8, 115.6 178.5 Q 115.6 180.2, 114.3 181.7 Q 113.1 183.3, 110.6 185.2 L 115.8 185.2 L 115.8 186.4 L 108.2 186.4 L 108.2 185.4 Q 110.3 183.9, 111.5 182.8 Q 112.8 181.6, 113.4 180.6 Q 114.0 179.6, 114.0 178.6 Q 114.0 177.5, 113.5 176.9 Q 112.9 176.3, 112.0 176.3 Q 111.0 176.3, 110.4 176.6 Q 109.8 177.0, 109.4 177.8 L 108.2 177.3 " fill="#000000"/>
<path class="legend" d="M 120.8 181.9 Q 120.8 184.2, 120.1 186.1 Q 119.4 188.0, 118.1 190.0 L 117.2 189.4 Q 118.3 187.5, 118.8 185.8 Q 119.3 184.0, 119.3 181.9 Q 119.3 179.7, 118.8 178.0 Q 118.3 176.3, 117.2 174.4 L 118.1 173.8 Q 119.4 175.8, 120.1 177.7 Q 120.8 179.6, 120.8 181.9 " fill="#000000"/>
</g>
    <g transform="translate(225.0, 0) scale(1 1) "><line x1="5" y1="100" x2="35" y2="100" style="stroke:rgb(0,0,0);stroke-width:2"/>
  <line x1="34" y1="100" x2="29" y2="95" style="stroke:rgb(0,0,0);stroke-width:2"/>
  <line x1="34" y1="100" x2="29" y2="105" style="stroke:rgb(0,0,0);stroke-width:2"/>
</g>
    <g transform="translate(265.0, 0) scale(1 1) "><!-- END OF HEADER -->
<rect style="opacity:1.0;fill:#FFFFFF;stroke:none" width="254.0" height="200.0" x="0.0" y="0.0"> </rect>
<path class="bond-0 atom-0 atom-1" d="M 85.4,65.3 L 80.2,101.8" style="fill:none;fill-rule:evenodd;stroke:#000000;stroke-width:2.0px;stroke-linecap:butt;stroke-linejoin:miter;stroke-opacity:1"/>
<path class="bond-0 atom-0 atom-1" d="M 80.2,64.6 L 75.0,101.1" style="fill:none;fill-rule:evenodd;stroke:#000000;stroke-width:2.0px;stroke-linecap:butt;stroke-linejoin:miter;stroke-opacity:1"/>
<path class="bond-1 atom-1 atom-2" d="M 77.8,99.9 L 105.6,121.7" style="fill:none;fill-rule:evenodd;stroke:#000000;stroke-width:2.0px;stroke-linecap:butt;stroke-linejoin:miter;stroke-opacity:1"/>
<path class="bond-2 atom-2 atom-3" d="M 105.6,121.7 L 138.4,108.5" style="fill:none;fill-rule:evenodd;stroke:#000000;stroke-width:2.0px;stroke-linecap:butt;stroke-linejoin:miter;stroke-opacity:1"/>
<path class="bond-3 atom-3 atom-4" d="M 138.4,108.5 L 166.2,130.3" style="fill:none;fill-rule:evenodd;stroke:#000000;stroke-width:2.0px;stroke-linecap:butt;stroke-linejoin:miter;stroke-opacity:1"/>
<path class="bond-4 atom-4 atom-5" d="M 166.2,130.3 L 198.9,117.1" style="fill:none;fill-rule:evenodd;stroke:#000000;stroke-width:2.0px;stroke-linecap:butt;stroke-linejoin:miter;stroke-opacity:1"/>
<path class="bond-5 atom-5 atom-6" d="M 201.3,119.0 L 203.5,104.0" style="fill:none;fill-rule:evenodd;stroke:#000000;stroke-width:2.0px;stroke-linecap:butt;stroke-linejoin:miter;stroke-opacity:1"/>
<path class="bond-5 atom-5 atom-6" d="M 203.5,104.0 L 205.6,88.9" style="fill:none;fill-rule:evenodd;stroke:#FF0000;stroke-width:2.0px;stroke-linecap:butt;stroke-linejoin:miter;stroke-opacity:1"/>
<path class="bond-5 atom-5 atom-6" d="M 196.1,118.3 L 198.2,103.2" style="fill:none;fill-rule:evenodd;stroke:#000000;stroke-width:2.0px;stroke-linecap:butt;stroke-linejoin:miter;stroke-opacity:1"/>
<path class="bond-5 atom-5 atom-6" d="M 198.2,103.2 L 200.4,88.2" style="fill:none;fill-rule:evenodd;stroke:#FF0000;stroke-width:2.0px;stroke-linecap:butt;stroke-linejoin:miter;stroke-opacity:1"/>
<path class="bond-6 atom-5 atom-7" d="M 198.9,117.1 L 210.0,125.8" style="fill:none;fill-rule:evenodd;stroke:#000000;stroke-width:2.0px;stroke-linecap:butt;stroke-linejoin:miter;stroke-opacity:1"/>
<path class="bond-6 atom-5 atom-7" d="M 210.0,125.8 L 221.0,134.4" style="fill:none;fill-rule:evenodd;stroke:#FF0000;stroke-width:2.0px;stroke-linecap:butt;stroke-linejoin:miter;stroke-opacity:1"/>
<path class="bond-7 atom-3 atom-8" d="M 138.4,108.5 L 143.4,73.6" style="fill:none;fill-rule:evenodd;stroke:#000000;stroke-width:2.0px;stroke-linecap:butt;stroke-linejoin:miter;stroke-opacity:1"/>
<path class="bond-8 atom-8 atom-9" d="M 146.2,72.4 L 134.6,63.3" style="fill:none;fill-rule:evenodd;stroke:#000000;stroke-width:2.0px;stroke-linecap:butt;stroke-linejoin:miter;stroke-opacity:1"/>
<path class="bond-8 atom-8 atom-9" d="M 134.6,63.3 L 123.0,54.2" style="fill:none;fill-rule:evenodd;stroke:#FF0000;stroke-width:2.0px;stroke-linecap:butt;stroke-linejoin:miter;stroke-opacity:1"/>
<path class="bond-8 atom-8 atom-9" d="M 142.9,76.6 L 131.3,67.5" style="fill:none;fill-rule:evenodd;stroke:#000000;stroke-width:2.0px;stroke-linecap:butt;stroke-linejoin:miter;stroke-opacity:1"/>
<path class="bond-8 atom-8 atom-9" d="M 131.3,67.5 L 119.7,58.4" style="fill:none;fill-rule:evenodd;stroke:#FF0000;stroke-width:2.0px;stroke-linecap:butt;stroke-linejoin:miter;stroke-opacity:1"/>
<path class="bond-9 atom-8 atom-10" d="M 143.4,73.6 L 156.9,68.1" style="fill:none;fill-rule:evenodd;stroke:#000000;stroke-width:2.0px;stroke-linecap:butt;stroke-linejoin:miter;stroke-opacity:1"/>
<path class="bond-9 atom-8 atom-10" d="M 156.9,68.1 L 170.4,62.7" style="fill:none;fill-rule:evenodd;stroke:#FF0000;stroke-width:2.0px;stroke-linecap:butt;stroke-linejoin:miter;stroke-opacity:1"/>
<path class="bond-10 atom-1 atom-11" d="M 77.8,99.9 L 45.1,113.1" style="fill:none;fill-rule:evenodd;stroke:#000000;stroke-width:2.0px;stroke-linecap:butt;stroke-linejoin:miter;stroke-opacity:1"/>
<path class="bond-11 atom-11 atom-12" d="M 47.9,112.0 L 36.3,102.8" style="fill:none;fill-rule:evenodd;stroke:#000000;stroke-width:2.0px;stroke-linecap:butt;stroke-linejoin:miter;stroke-opacity:1"/>
<path class="bond-11 atom-11 atom-12" d="M 36.3,102.8 L 24.7,93.7" style="fill:none;fill-rule:evenodd;stroke:#FF0000;stroke-width:2.0px;stroke-linecap:butt;stroke-linejoin:miter;stroke-opacity:1"/>
<path class="bond-11 atom-11 atom-12" d="M 44.6,116.1 L 33.0,107.0" style="fill:none;fill-rule:evenodd;stroke:#000000;stroke-width:2.0px;stroke-linecap:butt;stroke-linejoin:miter;stroke-opacity:1"/>
<path class="bond-11 atom-11 atom-12" d="M 33.0,107.0 L 21.4,97.9" style="fill:none;fill-rule:evenodd;stroke:#FF0000;stroke-width:2.0px;stroke-linecap:butt;stroke-linejoin:miter;stroke-opacity:1"/>
<path class="bond-12 atom-11 atom-13" d="M 45.1,113.1 L 43.0,127.5" style="fill:none;fill-rule:evenodd;stroke:#000000;stroke-width:2.0px;stroke-linecap:butt;stroke-linejoin:miter;stroke-opacity:1"/>
<path class="bond-12 atom-11 atom-13" d="M 43.0,127.5 L 41.0,141.8" style="fill:none;fill-rule:evenodd;stroke:#FF0000;stroke-width:2.0px;stroke-linecap:butt;stroke-linejoin:miter;stroke-opacity:1"/>
<path d="M 79.2,101.0 L 77.8,99.9 L 76.2,100.6" style="fill:none;stroke:#000000;stroke-width:2.0px;stroke-linecap:butt;stroke-linejoin:miter;stroke-opacity:1;"/>
<path d="M 104.2,120.6 L 105.6,121.7 L 107.3,121.0" style="fill:none;stroke:#000000;stroke-width:2.0px;stroke-linecap:butt;stroke-linejoin:miter;stroke-opacity:1;"/>
<path d="M 164.8,129.2 L 166.2,130.3 L 167.8,129.7" style="fill:none;stroke:#000000;stroke-width:2.0px;stroke-linecap:butt;stroke-linejoin:miter;stroke-opacity:1;"/>
<path d="M 197.3,117.8 L 198.9,117.1 L 199.5,117.6" style="fill:none;stroke:#000000;stroke-width:2.0px;stroke-linecap:butt;stroke-linejoin:miter;stroke-opacity:1;"/>
<path d="M 143.1,75.3 L 143.4,73.6 L 144.0,73.3" style="fill:none;stroke:#000000;stroke-width:2.0px;stroke-linecap:butt;stroke-linejoin:miter;stroke-opacity:1;"/>
<path d="M 46.7,112.4 L 45.1,113.1 L 45.0,113.8" style="fill:none;stroke:#000000;stroke-width:2.0px;stroke-linecap:butt;stroke-linejoin:miter;stroke-opacity:1;"/>
<path class="atom-6" d="M 199.3 82.2 Q 199.3 79.8, 200.5 78.5 Q 201.7 77.1, 203.9 77.1 Q 206.1 77.1, 207.3 78.5 Q 208.5 79.8, 208.5 82.2 Q 208.5 84.6, 207.3 86.0 Q 206.1 87.4, 203.9 87.4 Q 201.7 87.4, 200.5 86.0 Q 199.3 84.7, 199.3 82.2 M 203.9 86.3 Q 205.4 86.3, 206.3 85.2 Q 207.1 84.2, 207.1 82.2 Q 207.1 80.2, 206.3 79.3 Q 205.4 78.3, 203.9 78.3 Q 202.4 78.3, 201.5 79.2 Q 200.7 80.2, 200.7 82.2 Q 200.7 84.2, 201.5 85.2 Q 202.4 86.3, 203.9 86.3 " fill="#FF0000"/>
<path class="atom-7" d="M 222.1 138.9 Q 222.1 136.5, 223.3 135.2 Q 224.5 133.9, 226.7 133.9 Q 228.9 133.9, 230.1 135.2 Q 231.3 136.5, 231.3 138.9 Q 231.3 141.4, 230.1 142.8 Q 228.9 144.1, 226.7 144.1 Q 224.5 144.1, 223.3 142.8 Q 222.1 141.4, 222.1 138.9 M 226.7 143.0 Q 228.3 143.0, 229.1 142.0 Q 229.9 141.0, 229.9 138.9 Q 229.9 137.0, 229.1 136.0 Q 228.3 135.0, 226.7 135.0 Q 225.2 135.0, 224.4 136.0 Q 223.6 137.0, 223.6 138.9 Q 223.6 141.0, 224.4 142.0 Q 225.2 143.0, 226.7 143.0 " fill="#FF0000"/>
<path class="atom-7" d="M 232.9 134.0 L 234.2 134.0 L 234.2 138.2 L 239.3 138.2 L 239.3 134.0 L 240.7 134.0 L 240.7 144.0 L 239.3 144.0 L 239.3 139.4 L 234.2 139.4 L 234.2 144.0 L 232.9 144.0 L 232.9 134.0 " fill="#FF0000"/>
<path class="atom-9" d="M 111.0 51.8 Q 111.0 49.4, 112.2 48.1 Q 113.4 46.7, 115.6 46.7 Q 117.8 46.7, 119.0 48.1 Q 120.2 49.4, 120.2 51.8 Q 120.2 54.2, 119.0 55.6 Q 117.8 57.0, 115.6 57.0 Q 113.4 57.0, 112.2 55.6 Q 111.0 54.3, 111.0 51.8 M 115.6 55.9 Q 117.1 55.9, 117.9 54.9 Q 118.7 53.8, 118.7 51.8 Q 118.7 49.9, 117.9 48.9 Q 117.1 47.9, 115.6 47.9 Q 114.0 47.9, 113.2 48.9 Q 112.4 49.8, 112.4 51.8 Q 112.4 53.8, 113.2 54.9 Q 114.0 55.9, 115.6 55.9 " fill="#FF0000"/>
<path class="atom-10" d="M 171.5 60.4 Q 171.5 58.0, 172.7 56.7 Q 173.9 55.3, 176.1 55.3 Q 178.3 55.3, 179.5 56.7 Q 180.7 58.0, 180.7 60.4 Q 180.7 62.9, 179.5 64.2 Q 178.3 65.6, 176.1 65.6 Q 173.9 65.6, 172.7 64.2 Q 171.5 62.9, 171.5 60.4 M 176.1 64.5 Q 177.6 64.5, 178.5 63.5 Q 179.3 62.4, 179.3 60.4 Q 179.3 58.5, 178.5 57.5 Q 177.6 56.5, 176.1 56.5 Q 174.6 56.5, 173.8 57.5 Q 172.9 58.4, 172.9 60.4 Q 172.9 62.4, 173.8 63.5 Q 174.6 64.5, 176.1 64.5 " fill="#FF0000"/>
<path class="atom-10" d="M 182.3 55.5 L 183.6 55.5 L 183.6 59.7 L 188.7 59.7 L 188.7 55.5 L 190.1 55.5 L 190.1 65.5 L 188.7 65.5 L 188.7 60.8 L 183.6 60.8 L 183.6 65.5 L 182.3 65.5 L 182.3 55.5 " fill="#FF0000"/>
<path class="atom-12" d="M 12.7 91.3 Q 12.7 88.9, 13.9 87.6 Q 15.1 86.3, 17.3 86.3 Q 19.5 86.3, 20.7 87.6 Q 21.9 88.9, 21.9 91.3 Q 21.9 93.8, 20.7 95.2 Q 19.5 96.5, 17.3 96.5 Q 15.1 96.5, 13.9 95.2 Q 12.7 93.8, 12.7 91.3 M 17.3 95.4 Q 18.8 95.4, 19.6 94.4 Q 20.5 93.3, 20.5 91.3 Q 20.5 89.4, 19.6 88.4 Q 18.8 87.4, 17.3 87.4 Q 15.8 87.4, 14.9 88.4 Q 14.1 89.4, 14.1 91.3 Q 14.1 93.4, 14.9 94.4 Q 15.8 95.4, 17.3 95.4 " fill="#FF0000"/>
<path class="atom-13" d="M 35.5 148.1 Q 35.5 145.7, 36.7 144.3 Q 37.9 143.0, 40.1 143.0 Q 42.3 143.0, 43.5 144.3 Q 44.7 145.7, 44.7 148.1 Q 44.7 150.5, 43.5 151.9 Q 42.3 153.3, 40.1 153.3 Q 37.9 153.3, 36.7 151.9 Q 35.5 150.5, 35.5 148.1 M 40.1 152.1 Q 41.6 152.1, 42.5 151.1 Q 43.3 150.1, 43.3 148.1 Q 43.3 146.1, 42.5 145.1 Q 41.6 144.1, 40.1 144.1 Q 38.6 144.1, 37.8 145.1 Q 36.9 146.1, 36.9 148.1 Q 36.9 150.1, 37.8 151.1 Q 38.6 152.1, 40.1 152.1 " fill="#FF0000"/>
<path class="atom-13" d="M 46.3 143.1 L 47.6 143.1 L 47.6 147.4 L 52.7 147.4 L 52.7 143.1 L 54.1 143.1 L 54.1 153.1 L 52.7 153.1 L 52.7 148.5 L 47.6 148.5 L 47.6 153.1 L 46.3 153.1 L 46.3 143.1 " fill="#FF0000"/>
</g>
    <g transform="translate(519.0, 0) scale(1 1) "><line x1="15" y1="100" x2="25" y2="100" style="stroke:rgb(0,0,0);stroke-width:2"/>
  <line x1="20" y1="95" x2="20" y2="105" style="stroke:rgb(0,0,0);stroke-width:2"/>
</g>
    <g transform="translate(559.0, 0) scale(1 1) "><!-- END OF HEADER -->
<rect style="opacity:1.0;fill:#FFFFFF;stroke:none" width="180.0" height="200.0" x="0.0" y="0.0"> </rect>
<path class="bond-0 atom-0 atom-1" d="M 17.6,40.4 L 51.9,99.9" style="fill:none;fill-rule:evenodd;stroke:#000000;stroke-width:2.0px;stroke-linecap:butt;stroke-linejoin:miter;stroke-opacity:1"/>
<path class="bond-0 atom-0 atom-1" d="M 9.0,45.3 L 43.3,104.8" style="fill:none;fill-rule:evenodd;stroke:#000000;stroke-width:2.0px;stroke-linecap:butt;stroke-linejoin:miter;stroke-opacity:1"/>
<path class="bond-1 atom-1 atom-2" d="M 46.2,99.9 L 13.3,156.9" style="fill:none;fill-rule:evenodd;stroke:#000000;stroke-width:2.0px;stroke-linecap:butt;stroke-linejoin:miter;stroke-opacity:1"/>
<path class="bond-2 atom-1 atom-3" d="M 46.2,99.9 L 112.0,99.9" style="fill:none;fill-rule:evenodd;stroke:#000000;stroke-width:2.0px;stroke-linecap:butt;stroke-linejoin:miter;stroke-opacity:1"/>
<path class="bond-3 atom-3 atom-4" d="M 114.9,104.8 L 128.6,81.0" style="fill:none;fill-rule:evenodd;stroke:#000000;stroke-width:2.0px;stroke-linecap:butt;stroke-linejoin:miter;stroke-opacity:1"/>
<path class="bond-3 atom-3 atom-4" d="M 128.6,81.0 L 142.4,57.2" style="fill:none;fill-rule:evenodd;stroke:#FF0000;stroke-width:2.0px;stroke-linecap:butt;stroke-linejoin:miter;stroke-opacity:1"/>
<path class="bond-3 atom-3 atom-4" d="M 106.3,99.9 L 120.1,76.1" style="fill:none;fill-rule:evenodd;stroke:#000000;stroke-width:2.0px;stroke-linecap:butt;stroke-linejoin:miter;stroke-opacity:1"/>
<path class="bond-3 atom-3 atom-4" d="M 120.1,76.1 L 133.8,52.3" style="fill:none;fill-rule:evenodd;stroke:#FF0000;stroke-width:2.0px;stroke-linecap:butt;stroke-linejoin:miter;stroke-opacity:1"/>
<path class="bond-4 atom-3 atom-5" d="M 112.0,99.9 L 125.1,122.6" style="fill:none;fill-rule:evenodd;stroke:#000000;stroke-width:2.0px;stroke-linecap:butt;stroke-linejoin:miter;stroke-opacity:1"/>
<path class="bond-4 atom-3 atom-5" d="M 125.1,122.6 L 138.3,145.3" style="fill:none;fill-rule:evenodd;stroke:#FF0000;stroke-width:2.0px;stroke-linecap:butt;stroke-linejoin:miter;stroke-opacity:1"/>
<path d="M 44.5,102.7 L 46.2,99.9 L 49.5,99.9" style="fill:none;stroke:#000000;stroke-width:2.0px;stroke-linecap:butt;stroke-linejoin:miter;stroke-opacity:1;"/>
<path d="M 108.7,99.9 L 112.0,99.9 L 112.7,101.0" style="fill:none;stroke:#000000;stroke-width:2.0px;stroke-linecap:butt;stroke-linejoin:miter;stroke-opacity:1;"/>
<path class="atom-4" d="M 136.4 42.9 Q 136.4 38.4, 138.6 35.9 Q 140.8 33.4, 144.9 33.4 Q 149.1 33.4, 151.3 35.9 Q 153.5 38.4, 153.5 42.9 Q 153.5 47.4, 151.3 50.0 Q 149.0 52.6, 144.9 52.6 Q 140.8 52.6, 138.6 50.0 Q 136.4 47.4, 136.4 42.9 M 144.9 50.4 Q 147.8 50.4, 149.3 48.6 Q 150.9 46.6, 150.9 42.9 Q 150.9 39.2, 149.3 37.4 Q 147.8 35.5, 144.9 35.5 Q 142.1 35.5, 140.6 37.4 Q 139.0 39.2, 139.0 42.9 Q 139.0 46.7, 140.6 48.6 Q 142.1 50.4, 144.9 50.4 " fill="#FF0000"/>
<path class="atom-5" d="M 136.4 156.9 Q 136.4 152.4, 138.6 149.9 Q 140.8 147.4, 144.9 147.4 Q 149.1 147.4, 151.3 149.9 Q 153.5 152.4, 153.5 156.9 Q 153.5 161.5, 151.3 164.0 Q 149.0 166.6, 144.9 166.6 Q 140.8 166.6, 138.6 164.0 Q 136.4 161.5, 136.4 156.9 M 144.9 164.5 Q 147.8 164.5, 149.3 162.6 Q 150.9 160.7, 150.9 156.9 Q 150.9 153.3, 149.3 151.4 Q 147.8 149.6, 144.9 149.6 Q 142.1 149.6, 140.6 151.4 Q 139.0 153.2, 139.0 156.9 Q 139.0 160.7, 140.6 162.6 Q 142.1 164.5, 144.9 164.5 " fill="#FF0000"/>
<path class="atom-5" d="M 156.4 147.7 L 158.9 147.7 L 158.9 155.6 L 168.5 155.6 L 168.5 147.7 L 171.0 147.7 L 171.0 166.3 L 168.5 166.3 L 168.5 157.7 L 158.9 157.7 L 158.9 166.3 L 156.4 166.3 L 156.4 147.7 " fill="#FF0000"/>
</g>
  </g>
</svg>
