<?xml version='1.0' encoding='ASCII' standalone='yes'?>
<svg xmlns="http://www.w3.org/2000/svg" xmlns:xlink="http://www.w3.org/1999/xlink" version="1.1" width="892.0px" viewBox="0 0 892.0 200.0" height="200.0px">
  <g>
    <g transform="translate(0, 0) scale(1 1) "><!-- END OF HEADER -->
<rect style="opacity:1.0;fill:#FFFFFF;stroke:none" width="280.0" height="200.0" x="0.0" y="0.0"> </rect>
<path class="bond-0 atom-0 atom-1" d="M 14.0,73.7 L 46.8,91.5" style="fill:none;fill-rule:evenodd;stroke:#000000;stroke-width:2.0px;stroke-linecap:butt;stroke-linejoin:miter;stroke-opacity:1"/>
<path class="bond-1 atom-1 atom-2" d="M 46.8,91.5 L 79.7,109.3" style="fill:none;fill-rule:evenodd;stroke:#000000;stroke-width:2.0px;stroke-linecap:butt;stroke-linejoin:miter;stroke-opacity:1"/>
<path class="bond-2 atom-1 atom-3" d="M 46.8,91.5 L 29.0,124.3" style="fill:none;fill-rule:evenodd;stroke:#000000;stroke-width:2.0px;stroke-linecap:butt;stroke-linejoin:miter;stroke-opacity:1"/>
<path class="bond-3 atom-3 atom-4" d="M 29.0,124.3 L 36.8,137.0" style="fill:none;fill-rule:evenodd;stroke:#000000;stroke-width:2.0px;stroke-linecap:butt;stroke-linejoin:miter;stroke-opacity:1"/>
<path class="bond-3 atom-3 atom-4" d="M 36.8,137.0 L 44.5,149.6" style="fill:none;fill-rule:evenodd;stroke:#FF0000;stroke-width:2.0px;stroke-linecap:butt;stroke-linejoin:miter;stroke-opacity:1"/>
<path class="bond-4 atom-1 atom-5" d="M 46.8,91.5 L 64.6,58.7" style="fill:none;fill-rule:evenodd;stroke:#000000;stroke-width:2.0px;stroke-linecap:butt;stroke-linejoin:miter;stroke-opacity:1"/>
<path class="bond-5 atom-5 atom-6" d="M 64.6,58.7 L 56.9,46.1" style="fill:none;fill-rule:evenodd;stroke:#000000;stroke-width:2.0px;stroke-linecap:butt;stroke-linejoin:miter;stroke-opacity:1"/>
<path class="bond-5 atom-5 atom-6" d="M 56.9,46.1 L 49.2,33.6" style="fill:none;fill-rule:evenodd;stroke:#FF0000;stroke-width:2.0px;stroke-linecap:butt;stroke-linejoin:miter;stroke-opacity:1"/>
<path class="bond-6 atom-5 atom-7" d="M 64.6,58.7 L 101.9,57.7" style="fill:none;fill-rule:evenodd;stroke:#000000;stroke-width:2.0px;stroke-linecap:butt;stroke-linejoin:miter;stroke-opacity:1"/>
<path class="bond-7 atom-7 atom-8" d="M 101.9,57.7 L 100.9,20.3" style="fill:none;fill-rule:evenodd;stroke:#000000;stroke-width:2.0px;stroke-linecap:butt;stroke-linejoin:miter;stroke-opacity:1"/>
<path class="bond-8 atom-7 atom-9" d="M 101.9,57.7 L 102.9,95.0" style="fill:none;fill-rule:evenodd;stroke:#000000;stroke-width:2.0px;stroke-linecap:butt;stroke-linejoin:miter;stroke-opacity:1"/>
<path class="bond-9 atom-7 atom-10" d="M 101.9,57.7 L 139.3,56.7" style="fill:none;fill-rule:evenodd;stroke:#000000;stroke-width:2.0px;stroke-linecap:butt;stroke-linejoin:miter;stroke-opacity:1"/>
<path class="bond-10 atom-10 atom-11" d="M 139.3,56.7 L 158.8,88.5" style="fill:none;fill-rule:evenodd;stroke:#000000;stroke-width:2.0px;stroke-linecap:butt;stroke-linejoin:miter;stroke-opacity:1"/>
<path class="bond-11 atom-11 atom-12" d="M 158.8,88.5 L 151.7,101.6" style="fill:none;fill-rule:evenodd;stroke:#000000;stroke-width:2.0px;stroke-linecap:butt;stroke-linejoin:miter;stroke-opacity:1"/>
<path class="bond-11 atom-11 atom-12" d="M 151.7,101.6 L 144.6,114.7" style="fill:none;fill-rule:evenodd;stroke:#FF0000;stroke-width:2.0px;stroke-linecap:butt;stroke-linejoin:miter;stroke-opacity:1"/>
<path class="bond-12 atom-11 atom-13" d="M 158.8,88.5 L 196.1,87.5" style="fill:none;fill-rule:evenodd;stroke:#000000;stroke-width:2.0px;stroke-linecap:butt;stroke-linejoin:miter;stroke-opacity:1"/>
<path class="bond-13 atom-13 atom-14" d="M 196.1,87.5 L 195.1,50.1" style="fill:none;fill-rule:evenodd;stroke:#000000;stroke-width:2.0px;stroke-linecap:butt;stroke-linejoin:miter;stroke-opacity:1"/>
<path class="bond-14 atom-13 atom-15" d="M 196.1,87.5 L 197.1,124.8" style="fill:none;fill-rule:evenodd;stroke:#000000;stroke-width:2.0px;stroke-linecap:butt;stroke-linejoin:miter;stroke-opacity:1"/>
<path class="bond-15 atom-13 atom-16" d="M 196.1,87.5 L 233.4,86.4" style="fill:none;fill-rule:evenodd;stroke:#000000;stroke-width:2.0px;stroke-linecap:butt;stroke-linejoin:miter;stroke-opacity:1"/>
<path class="bond-16 atom-16 atom-17" d="M 230.2,86.5 L 238.4,99.8" style="fill:none;fill-rule:evenodd;stroke:#000000;stroke-width:2.0px;stroke-linecap:butt;stroke-linejoin:miter;stroke-opacity:1"/>
<path class="bond-16 atom-16 atom-17" d="M 238.4,99.8 L 246.6,113.2" style="fill:none;fill-rule:evenodd;stroke:#FF0000;stroke-width:2.0px;stroke-linecap:butt;stroke-linejoin:miter;stroke-opacity:1"/>
<path class="bond-16 atom-16 atom-17" d="M 235.0,83.6 L 243.2,96.9" style="fill:none;fill-rule:evenodd;stroke:#000000;stroke-width:2.0px;stroke-linecap:butt;stroke-linejoin:miter;stroke-opacity:1"/>
<path class="bond-16 atom-16 atom-17" d="M 243.2,96.9 L 251.3,110.2" style="fill:none;fill-rule:evenodd;stroke:#FF0000;stroke-width:2.0px;stroke-linecap:butt;stroke-linejoin:miter;stroke-opacity:1"/>
<path class="bond-17 atom-16 atom-18" d="M 233.4,86.4 L 240.5,73.4" style="fill:none;fill-rule:evenodd;stroke:#000000;stroke-width:2.0px;stroke-linecap:butt;stroke-linejoin:miter;stroke-opacity:1"/>
<path class="bond-17 atom-16 atom-18" d="M 240.5,73.4 L 247.6,60.4" style="fill:none;fill-rule:evenodd;stroke:#FF0000;stroke-width:2.0px;stroke-linecap:butt;stroke-linejoin:miter;stroke-opacity:1"/>
<path d="M 29.9,122.7 L 29.0,124.3 L 29.4,125.0" style="fill:none;stroke:#000000;stroke-width:2.0px;stroke-linecap:butt;stroke-linejoin:miter;stroke-opacity:1;"/>
<path d="M 137.4,56.7 L 139.3,56.7 L 140.2,58.2" style="fill:none;stroke:#000000;stroke-width:2.0px;stroke-linecap:butt;stroke-linejoin:miter;stroke-opacity:1;"/>
<path d="M 231.6,86.5 L 233.4,86.4 L 233.8,85.8" style="fill:none;stroke:#000000;stroke-width:2.0px;stroke-linecap:butt;stroke-linejoin:miter;stroke-opacity:1;"/>
<path class="atom-4" d="M 43.7 156.2 Q 43.7 153.6, 45.0 152.2 Q 46.2 150.8, 48.6 150.8 Q 50.9 150.8, 52.2 152.2 Q 53.4 153.6, 53.4 156.2 Q 53.4 158.7, 52.2 160.2 Q 50.9 161.7, 48.6 161.7 Q 46.2 161.7, 45.0 160.2 Q 43.7 158.8, 43.7 156.2 M 48.6 160.5 Q 50.2 160.5, 51.1 159.4 Q 51.9 158.3, 51.9 156.2 Q 51.9 154.1, 51.1 153.1 Q 50.2 152.0, 48.6 152.0 Q 47.0 152.0, 46.1 153.0 Q 45.2 154.1, 45.2 156.2 Q 45.2 158.3, 46.1 159.4 Q 47.0 160.5, 48.6 160.5 " fill="#FF0000"/>
<path class="atom-4" d="M 55.1 150.9 L 56.5 150.9 L 56.5 155.4 L 61.9 155.4 L 61.9 150.9 L 63.4 150.9 L 63.4 161.5 L 61.9 161.5 L 61.9 156.6 L 56.5 156.6 L 56.5 161.5 L 55.1 161.5 L 55.1 150.9 " fill="#FF0000"/>
<path class="atom-6" d="M 29.8 21.6 L 31.2 21.6 L 31.2 26.1 L 36.6 26.1 L 36.6 21.6 L 38.1 21.6 L 38.1 32.2 L 36.6 32.2 L 36.6 27.3 L 31.2 27.3 L 31.2 32.2 L 29.8 32.2 L 29.8 21.6 " fill="#FF0000"/>
<path class="atom-6" d="M 40.2 26.9 Q 40.2 24.3, 41.5 22.9 Q 42.7 21.5, 45.1 21.5 Q 47.4 21.5, 48.7 22.9 Q 49.9 24.3, 49.9 26.9 Q 49.9 29.5, 48.7 30.9 Q 47.4 32.4, 45.1 32.4 Q 42.7 32.4, 41.5 30.9 Q 40.2 29.5, 40.2 26.9 M 45.1 31.2 Q 46.7 31.2, 47.6 30.1 Q 48.4 29.0, 48.4 26.9 Q 48.4 24.8, 47.6 23.8 Q 46.7 22.7, 45.1 22.7 Q 43.5 22.7, 42.6 23.8 Q 41.7 24.8, 41.7 26.9 Q 41.7 29.0, 42.6 30.1 Q 43.5 31.2, 45.1 31.2 " fill="#FF0000"/>
<path class="atom-12" d="M 125.7 116.1 L 127.1 116.1 L 127.1 120.6 L 132.6 120.6 L 132.6 116.1 L 134.0 116.1 L 134.0 126.6 L 132.6 126.6 L 132.6 121.8 L 127.1 121.8 L 127.1 126.6 L 125.7 126.6 L 125.7 116.1 " fill="#FF0000"/>
<path class="atom-12" d="M 136.2 121.3 Q 136.2 118.8, 137.4 117.4 Q 138.7 116.0, 141.0 116.0 Q 143.4 116.0, 144.6 117.4 Q 145.9 118.8, 145.9 121.3 Q 145.9 123.9, 144.6 125.4 Q 143.3 126.8, 141.0 126.8 Q 138.7 126.8, 137.4 125.4 Q 136.2 123.9, 136.2 121.3 M 141.0 125.6 Q 142.6 125.6, 143.5 124.5 Q 144.4 123.4, 144.4 121.3 Q 144.4 119.3, 143.5 118.2 Q 142.6 117.1, 141.0 117.1 Q 139.4 117.1, 138.5 118.2 Q 137.6 119.2, 137.6 121.3 Q 137.6 123.5, 138.5 124.5 Q 139.4 125.6, 141.0 125.6 " fill="#FF0000"/>
<path class="atom-17" d="M 248.1 118.3 Q 248.1 115.8, 249.4 114.3 Q 250.6 112.9, 253.0 112.9 Q 255.3 112.9, 256.6 114.3 Q 257.8 115.8, 257.8 118.3 Q 257.8 120.9, 256.6 122.3 Q 255.3 123.8, 253.0 123.8 Q 250.6 123.8, 249.4 122.3 Q 248.1 120.9, 248.1 118.3 M 253.0 122.6 Q 254.6 122.6, 255.5 121.5 Q 256.3 120.4, 256.3 118.3 Q 256.3 116.2, 255.5 115.2 Q 254.6 114.1, 253.0 114.1 Q 251.4 114.1, 250.5 115.2 Q 249.6 116.2, 249.6 118.3 Q 249.6 120.4, 250.5 121.5 Q 251.4 122.6, 253.0 122.6 " fill="#FF0000"/>
<path class="atom-18" d="M 246.4 53.6 Q 246.4 51.1, 247.6 49.7 Q 248.9 48.3, 251.2 48.3 Q 253.6 48.3, 254.8 49.7 Q 256.1 51.1, 256.1 53.6 Q 256.1 56.2, 254.8 57.7 Q 253.5 59.1, 251.2 59.1 Q 248.9 59.1, 247.6 57.7 Q 246.4 56.2, 246.4 53.6 M 251.2 57.9 Q 252.8 57.9, 253.7 56.9 Q 254.6 55.8, 254.6 53.6 Q 254.6 51.6, 253.7 50.5 Q 252.8 49.5, 251.2 49.5 Q 249.6 49.5, 248.7 50.5 Q 247.9 51.6, 247.9 53.6 Q 247.9 55.8, 248.7 56.9 Q 249.6 57.9, 251.2 57.9 " fill="#FF0000"/>
<path class="atom-18" d="M 257.7 48.4 L 259.2 48.4 L 259.2 52.9 L 264.6 52.9 L 264.6 48.4 L 266.0 48.4 L 266.0 59.0 L 264.6 59.0 L 264.6 54.1 L 259.2 54.1 L 259.2 59.0 L 257.7 59.0 L 257.7 48.4 " fill="#FF0000"/>
<path class="legend" d="M 131.5 181.9 Q 131.5 179.6, 132.2 177.7 Q 132.8 175.8, 134.1 173.8 L 135.0 174.4 Q 134.0 176.3, 133.4 178.0 Q 132.9 179.7, 132.9 181.9 Q 132.9 184.0, 133.4 185.8 Q 134.0 187.5, 135.0 189.4 L 134.1 190.0 Q 132.8 188.0, 132.2 186.1 Q 131.5 184.2, 131.5 181.9 " fill="#000000"/>
<path class="legend" d="M 135.9 177.3 Q 136.4 176.2, 137.3 175.6 Q 138.3 175.0, 139.7 175.0 Q 141.4 175.0, 142.4 175.9 Q 143.3 176.8, 143.3 178.5 Q 143.3 180.2, 142.1 181.7 Q 140.9 183.3, 138.3 185.2 L 143.5 185.2 L 143.5 186.4 L 135.9 186.4 L 135.9 185.4 Q 138.0 183.9, 139.3 182.8 Q 140.5 181.6, 141.1 180.6 Q 141.7 179.6, 141.7 178.6 Q 141.7 177.5, 141.2 176.9 Q 140.7 176.3, 139.7 176.3 Q 138.8 176.3, 138.2 176.6 Q 137.6 177.0, 137.2 177.8 L 135.9 177.3 " fill="#000000"/>
<path class="legend" d="M 148.5 181.9 Q 148.5 184.2, 147.8 186.1 Q 147.2 188.0, 145.9 190.0 L 145.0 189.4 Q 146.0 187.5, 146.5 185.8 Q 147.1 184.0, 147.1 181.9 Q 147.1 179.7, 146.5 178.0 Q 146.0 176.3, 145.0 174.4 L 145.9 173.8 Q 147.2 175.8, 147.8 177.7 Q 148.5 179.6, 148.5 181.9 " fill="#000000"/>
</g>
    <g transform="translate(280.0, 0) scale(1 1) "><line x1="5" y1="100" x2="35" y2="100" style="stroke:rgb(0,0,0);stroke-width:2"/>
  <line x1="34" y1="100" x2="29" y2="95" style="stroke:rgb(0,0,0);stroke-width:2"/>
  <line x1="34" y1="100" x2="29" y2="105" style="stroke:rgb(0,0,0);stroke-width:2"/>
</g>
    <g transform="translate(320.0, 0) scale(1 1) "><!-- END OF HEADER -->
<rect style="opacity:1.0;fill:#FFFFFF;stroke:none" width="317.0" height="200.0" x="0.0" y="0.0"> </rect>
<path class="bond-0 atom-0 atom-1" d="M 64.1,107.8 L 92.0,112.8" style="fill:none;fill-rule:evenodd;stroke:#000000;stroke-width:2.0px;stroke-linecap:butt;stroke-linejoin:miter;stroke-opacity:1"/>
<path class="bond-1 atom-1 atom-2" d="M 92.0,112.8 L 119.8,117.8" style="fill:none;fill-rule:evenodd;stroke:#000000;stroke-width:2.0px;stroke-linecap:butt;stroke-linejoin:miter;stroke-opacity:1"/>
<path class="bond-2 atom-1 atom-3" d="M 92.0,112.8 L 87.0,140.7" style="fill:none;fill-rule:evenodd;stroke:#000000;stroke-width:2.0px;stroke-linecap:butt;stroke-linejoin:miter;stroke-opacity:1"/>
<path class="bond-3 atom-3 atom-4" d="M 87.0,140.7 L 95.5,147.9" style="fill:none;fill-rule:evenodd;stroke:#000000;stroke-width:2.0px;stroke-linecap:butt;stroke-linejoin:miter;stroke-opacity:1"/>
<path class="bond-3 atom-3 atom-4" d="M 95.5,147.9 L 104.0,155.1" style="fill:none;fill-rule:evenodd;stroke:#FF0000;stroke-width:2.0px;stroke-linecap:butt;stroke-linejoin:miter;stroke-opacity:1"/>
<path class="bond-4 atom-1 atom-5" d="M 92.0,112.8 L 97.0,84.9" style="fill:none;fill-rule:evenodd;stroke:#000000;stroke-width:2.0px;stroke-linecap:butt;stroke-linejoin:miter;stroke-opacity:1"/>
<path class="bond-5 atom-5 atom-6" d="M 97.0,84.9 L 88.4,77.8" style="fill:none;fill-rule:evenodd;stroke:#000000;stroke-width:2.0px;stroke-linecap:butt;stroke-linejoin:miter;stroke-opacity:1"/>
<path class="bond-5 atom-5 atom-6" d="M 88.4,77.8 L 79.9,70.6" style="fill:none;fill-rule:evenodd;stroke:#FF0000;stroke-width:2.0px;stroke-linecap:butt;stroke-linejoin:miter;stroke-opacity:1"/>
<path class="bond-6 atom-5 atom-7" d="M 97.0,84.9 L 123.6,75.3" style="fill:none;fill-rule:evenodd;stroke:#000000;stroke-width:2.0px;stroke-linecap:butt;stroke-linejoin:miter;stroke-opacity:1"/>
<path class="bond-7 atom-7 atom-8" d="M 123.6,75.3 L 114.0,48.7" style="fill:none;fill-rule:evenodd;stroke:#000000;stroke-width:2.0px;stroke-linecap:butt;stroke-linejoin:miter;stroke-opacity:1"/>
<path class="bond-8 atom-7 atom-9" d="M 123.6,75.3 L 133.2,102.0" style="fill:none;fill-rule:evenodd;stroke:#000000;stroke-width:2.0px;stroke-linecap:butt;stroke-linejoin:miter;stroke-opacity:1"/>
<path class="bond-9 atom-7 atom-10" d="M 123.6,75.3 L 150.2,65.7" style="fill:none;fill-rule:evenodd;stroke:#000000;stroke-width:2.0px;stroke-linecap:butt;stroke-linejoin:miter;stroke-opacity:1"/>
<path class="bond-10 atom-10 atom-11" d="M 150.2,65.7 L 171.9,84.0" style="fill:none;fill-rule:evenodd;stroke:#000000;stroke-width:2.0px;stroke-linecap:butt;stroke-linejoin:miter;stroke-opacity:1"/>
<path class="bond-11 atom-11 atom-12" d="M 171.9,84.0 L 164.8,92.3" style="fill:none;fill-rule:evenodd;stroke:#000000;stroke-width:2.0px;stroke-linecap:butt;stroke-linejoin:miter;stroke-opacity:1"/>
<path class="bond-11 atom-11 atom-12" d="M 164.8,92.3 L 157.8,100.6" style="fill:none;fill-rule:evenodd;stroke:#FF0000;stroke-width:2.0px;stroke-linecap:butt;stroke-linejoin:miter;stroke-opacity:1"/>
<path class="bond-12 atom-11 atom-13" d="M 171.9,84.0 L 190.1,62.3" style="fill:none;fill-rule:evenodd;stroke:#000000;stroke-width:2.0px;stroke-linecap:butt;stroke-linejoin:miter;stroke-opacity:1"/>
<path class="bond-13 atom-13 atom-14" d="M 190.1,62.3 L 168.5,44.1" style="fill:none;fill-rule:evenodd;stroke:#000000;stroke-width:2.0px;stroke-linecap:butt;stroke-linejoin:miter;stroke-opacity:1"/>
<path class="bond-14 atom-13 atom-15" d="M 190.1,62.3 L 207.4,73.6" style="fill:none;fill-rule:evenodd;stroke:#000000;stroke-width:2.0px;stroke-linecap:butt;stroke-linejoin:miter;stroke-opacity:1"/>
<path class="bond-15 atom-13 atom-16" d="M 190.1,62.3 L 208.4,40.7" style="fill:none;fill-rule:evenodd;stroke:#000000;stroke-width:2.0px;stroke-linecap:butt;stroke-linejoin:miter;stroke-opacity:1"/>
<path class="bond-16 atom-16 atom-17" d="M 206.8,42.5 L 219.0,44.7" style="fill:none;fill-rule:evenodd;stroke:#000000;stroke-width:2.0px;stroke-linecap:butt;stroke-linejoin:miter;stroke-opacity:1"/>
<path class="bond-16 atom-16 atom-17" d="M 219.0,44.7 L 231.3,46.9" style="fill:none;fill-rule:evenodd;stroke:#FF0000;stroke-width:2.0px;stroke-linecap:butt;stroke-linejoin:miter;stroke-opacity:1"/>
<path class="bond-16 atom-16 atom-17" d="M 207.5,38.4 L 219.8,40.6" style="fill:none;fill-rule:evenodd;stroke:#000000;stroke-width:2.0px;stroke-linecap:butt;stroke-linejoin:miter;stroke-opacity:1"/>
<path class="bond-16 atom-16 atom-17" d="M 219.8,40.6 L 232.0,42.8" style="fill:none;fill-rule:evenodd;stroke:#FF0000;stroke-width:2.0px;stroke-linecap:butt;stroke-linejoin:miter;stroke-opacity:1"/>
<path class="bond-17 atom-16 atom-18" d="M 208.4,40.7 L 204.5,29.9" style="fill:none;fill-rule:evenodd;stroke:#000000;stroke-width:2.0px;stroke-linecap:butt;stroke-linejoin:miter;stroke-opacity:1"/>
<path class="bond-17 atom-16 atom-18" d="M 204.5,29.9 L 200.6,19.1" style="fill:none;fill-rule:evenodd;stroke:#FF0000;stroke-width:2.0px;stroke-linecap:butt;stroke-linejoin:miter;stroke-opacity:1"/>
<path class="bond-18 atom-11 atom-19" d="M 171.9,84.0 L 193.5,102.2" style="fill:none;fill-rule:evenodd;stroke:#000000;stroke-width:2.0px;stroke-linecap:butt;stroke-linejoin:miter;stroke-opacity:1"/>
<path class="bond-19 atom-19 atom-20" d="M 193.5,102.2 L 175.3,123.9" style="fill:none;fill-rule:evenodd;stroke:#000000;stroke-width:2.0px;stroke-linecap:butt;stroke-linejoin:miter;stroke-opacity:1"/>
<path class="bond-20 atom-19 atom-21" d="M 193.5,102.2 L 208.6,88.2" style="fill:none;fill-rule:evenodd;stroke:#000000;stroke-width:2.0px;stroke-linecap:butt;stroke-linejoin:miter;stroke-opacity:1"/>
<path class="bond-21 atom-19 atom-22" d="M 193.5,102.2 L 215.1,120.5" style="fill:none;fill-rule:evenodd;stroke:#000000;stroke-width:2.0px;stroke-linecap:butt;stroke-linejoin:miter;stroke-opacity:1"/>
<path class="bond-22 atom-22 atom-23" d="M 215.1,120.5 L 226.2,116.5" style="fill:none;fill-rule:evenodd;stroke:#000000;stroke-width:2.0px;stroke-linecap:butt;stroke-linejoin:miter;stroke-opacity:1"/>
<path class="bond-22 atom-22 atom-23" d="M 226.2,116.5 L 237.2,112.5" style="fill:none;fill-rule:evenodd;stroke:#FF0000;stroke-width:2.0px;stroke-linecap:butt;stroke-linejoin:miter;stroke-opacity:1"/>
<path class="bond-23 atom-22 atom-24" d="M 215.1,120.5 L 210.2,148.3" style="fill:none;fill-rule:evenodd;stroke:#000000;stroke-width:2.0px;stroke-linecap:butt;stroke-linejoin:miter;stroke-opacity:1"/>
<path class="bond-24 atom-24 atom-25" d="M 210.2,148.3 L 238.0,153.3" style="fill:none;fill-rule:evenodd;stroke:#000000;stroke-width:2.0px;stroke-linecap:butt;stroke-linejoin:miter;stroke-opacity:1"/>
<path class="bond-25 atom-24 atom-26" d="M 210.2,148.3 L 182.3,143.4" style="fill:none;fill-rule:evenodd;stroke:#000000;stroke-width:2.0px;stroke-linecap:butt;stroke-linejoin:miter;stroke-opacity:1"/>
<path class="bond-26 atom-24 atom-27" d="M 210.2,148.3 L 205.2,176.2" style="fill:none;fill-rule:evenodd;stroke:#000000;stroke-width:2.0px;stroke-linecap:butt;stroke-linejoin:miter;stroke-opacity:1"/>
<path class="bond-27 atom-27 atom-28" d="M 205.2,176.2 L 194.2,180.2" style="fill:none;fill-rule:evenodd;stroke:#000000;stroke-width:2.0px;stroke-linecap:butt;stroke-linejoin:miter;stroke-opacity:1"/>
<path class="bond-27 atom-27 atom-28" d="M 194.2,180.2 L 183.1,184.2" style="fill:none;fill-rule:evenodd;stroke:#FF0000;stroke-width:2.0px;stroke-linecap:butt;stroke-linejoin:miter;stroke-opacity:1"/>
<path d="M 87.2,139.3 L 87.0,140.7 L 87.4,141.0" style="fill:none;stroke:#000000;stroke-width:2.0px;stroke-linecap:butt;stroke-linejoin:miter;stroke-opacity:1;"/>
<path d="M 148.9,66.2 L 150.2,65.7 L 151.3,66.6" style="fill:none;stroke:#000000;stroke-width:2.0px;stroke-linecap:butt;stroke-linejoin:miter;stroke-opacity:1;"/>
<path d="M 207.5,41.8 L 208.4,40.7 L 208.2,40.1" style="fill:none;stroke:#000000;stroke-width:2.0px;stroke-linecap:butt;stroke-linejoin:miter;stroke-opacity:1;"/>
<path d="M 205.4,174.8 L 205.2,176.2 L 204.6,176.4" style="fill:none;stroke:#000000;stroke-width:2.0px;stroke-linecap:butt;stroke-linejoin:miter;stroke-opacity:1;"/>
<path class="atom-4" d="M 105.0 159.0 Q 105.0 157.0, 105.9 156.0 Q 106.9 154.9, 108.6 154.9 Q 110.4 154.9, 111.4 156.0 Q 112.3 157.0, 112.3 159.0 Q 112.3 160.9, 111.4 162.0 Q 110.4 163.1, 108.6 163.1 Q 106.9 163.1, 105.9 162.0 Q 105.0 160.9, 105.0 159.0 M 108.6 162.2 Q 109.9 162.2, 110.5 161.4 Q 111.2 160.6, 111.2 159.0 Q 111.2 157.4, 110.5 156.6 Q 109.9 155.8, 108.6 155.8 Q 107.4 155.8, 106.7 156.6 Q 106.1 157.4, 106.1 159.0 Q 106.1 160.6, 106.7 161.4 Q 107.4 162.2, 108.6 162.2 " fill="#FF0000"/>
<path class="atom-4" d="M 113.6 155.0 L 114.7 155.0 L 114.7 158.4 L 118.8 158.4 L 118.8 155.0 L 119.8 155.0 L 119.8 163.0 L 118.8 163.0 L 118.8 159.3 L 114.7 159.3 L 114.7 163.0 L 113.6 163.0 L 113.6 155.0 " fill="#FF0000"/>
<path class="atom-6" d="M 63.7 62.7 L 64.8 62.7 L 64.8 66.1 L 68.9 66.1 L 68.9 62.7 L 70.0 62.7 L 70.0 70.8 L 68.9 70.8 L 68.9 67.0 L 64.8 67.0 L 64.8 70.8 L 63.7 70.8 L 63.7 62.7 " fill="#FF0000"/>
<path class="atom-6" d="M 71.6 66.7 Q 71.6 64.8, 72.6 63.7 Q 73.5 62.6, 75.3 62.6 Q 77.1 62.6, 78.1 63.7 Q 79.0 64.8, 79.0 66.7 Q 79.0 68.7, 78.0 69.8 Q 77.1 70.9, 75.3 70.9 Q 73.6 70.9, 72.6 69.8 Q 71.6 68.7, 71.6 66.7 M 75.3 70.0 Q 76.5 70.0, 77.2 69.2 Q 77.9 68.3, 77.9 66.7 Q 77.9 65.1, 77.2 64.4 Q 76.5 63.5, 75.3 63.5 Q 74.1 63.5, 73.4 64.3 Q 72.8 65.1, 72.8 66.7 Q 72.8 68.3, 73.4 69.2 Q 74.1 70.0, 75.3 70.0 " fill="#FF0000"/>
<path class="atom-12" d="M 142.0 101.6 L 143.1 101.6 L 143.1 105.1 L 147.2 105.1 L 147.2 101.6 L 148.3 101.6 L 148.3 109.7 L 147.2 109.7 L 147.2 106.0 L 143.1 106.0 L 143.1 109.7 L 142.0 109.7 L 142.0 101.6 " fill="#FF0000"/>
<path class="atom-12" d="M 149.9 105.6 Q 149.9 103.7, 150.9 102.6 Q 151.8 101.6, 153.6 101.6 Q 155.4 101.6, 156.3 102.6 Q 157.3 103.7, 157.3 105.6 Q 157.3 107.6, 156.3 108.7 Q 155.4 109.8, 153.6 109.8 Q 151.8 109.8, 150.9 108.7 Q 149.9 107.6, 149.9 105.6 M 153.6 108.9 Q 154.8 108.9, 155.5 108.1 Q 156.2 107.2, 156.2 105.6 Q 156.2 104.1, 155.5 103.3 Q 154.8 102.5, 153.6 102.5 Q 152.4 102.5, 151.7 103.3 Q 151.1 104.0, 151.1 105.6 Q 151.1 107.2, 151.7 108.1 Q 152.4 108.9, 153.6 108.9 " fill="#FF0000"/>
<path class="atom-17" d="M 232.6 45.7 Q 232.6 43.8, 233.5 42.7 Q 234.5 41.6, 236.2 41.6 Q 238.0 41.6, 239.0 42.7 Q 239.9 43.8, 239.9 45.7 Q 239.9 47.6, 239.0 48.7 Q 238.0 49.8, 236.2 49.8 Q 234.5 49.8, 233.5 48.7 Q 232.6 47.6, 232.6 45.7 M 236.2 48.9 Q 237.5 48.9, 238.1 48.1 Q 238.8 47.3, 238.8 45.7 Q 238.8 44.1, 238.1 43.3 Q 237.5 42.5, 236.2 42.5 Q 235.0 42.5, 234.3 43.3 Q 233.7 44.1, 233.7 45.7 Q 233.7 47.3, 234.3 48.1 Q 235.0 48.9, 236.2 48.9 " fill="#FF0000"/>
<path class="atom-18" d="M 195.1 14.1 Q 195.1 12.2, 196.0 11.1 Q 197.0 10.0, 198.7 10.0 Q 200.5 10.0, 201.5 11.1 Q 202.4 12.2, 202.4 14.1 Q 202.4 16.0, 201.5 17.1 Q 200.5 18.2, 198.7 18.2 Q 197.0 18.2, 196.0 17.1 Q 195.1 16.0, 195.1 14.1 M 198.7 17.3 Q 200.0 17.3, 200.6 16.5 Q 201.3 15.7, 201.3 14.1 Q 201.3 12.5, 200.6 11.7 Q 200.0 10.9, 198.7 10.9 Q 197.5 10.9, 196.9 11.7 Q 196.2 12.5, 196.2 14.1 Q 196.2 15.7, 196.9 16.5 Q 197.5 17.3, 198.7 17.3 " fill="#FF0000"/>
<path class="atom-18" d="M 203.7 10.1 L 204.8 10.1 L 204.8 13.5 L 208.9 13.5 L 208.9 10.1 L 209.9 10.1 L 209.9 18.1 L 208.9 18.1 L 208.9 14.4 L 204.8 14.4 L 204.8 18.1 L 203.7 18.1 L 203.7 10.1 " fill="#FF0000"/>
<path class="atom-23" d="M 238.1 110.9 Q 238.1 108.9, 239.0 107.9 Q 240.0 106.8, 241.8 106.8 Q 243.6 106.8, 244.5 107.9 Q 245.5 108.9, 245.5 110.9 Q 245.5 112.8, 244.5 113.9 Q 243.5 115.0, 241.8 115.0 Q 240.0 115.0, 239.0 113.9 Q 238.1 112.8, 238.1 110.9 M 241.8 114.1 Q 243.0 114.1, 243.7 113.3 Q 244.3 112.5, 244.3 110.9 Q 244.3 109.3, 243.7 108.5 Q 243.0 107.7, 241.8 107.7 Q 240.6 107.7, 239.9 108.5 Q 239.2 109.3, 239.2 110.9 Q 239.2 112.5, 239.9 113.3 Q 240.6 114.1, 241.8 114.1 " fill="#FF0000"/>
<path class="atom-23" d="M 246.7 106.9 L 247.8 106.9 L 247.8 110.3 L 251.9 110.3 L 251.9 106.9 L 253.0 106.9 L 253.0 114.9 L 251.9 114.9 L 251.9 111.2 L 247.8 111.2 L 247.8 114.9 L 246.7 114.9 L 246.7 106.9 " fill="#FF0000"/>
<path class="atom-28" d="M 167.0 181.9 L 168.0 181.9 L 168.0 185.3 L 172.1 185.3 L 172.1 181.9 L 173.2 181.9 L 173.2 189.9 L 172.1 189.9 L 172.1 186.2 L 168.0 186.2 L 168.0 189.9 L 167.0 189.9 L 167.0 181.9 " fill="#FF0000"/>
<path class="atom-28" d="M 174.9 185.8 Q 174.9 183.9, 175.8 182.8 Q 176.8 181.8, 178.5 181.8 Q 180.3 181.8, 181.3 182.8 Q 182.2 183.9, 182.2 185.8 Q 182.2 187.8, 181.3 188.9 Q 180.3 190.0, 178.5 190.0 Q 176.8 190.0, 175.8 188.9 Q 174.9 187.8, 174.9 185.8 M 178.5 189.1 Q 179.8 189.1, 180.4 188.3 Q 181.1 187.5, 181.1 185.8 Q 181.1 184.3, 180.4 183.5 Q 179.8 182.7, 178.5 182.7 Q 177.3 182.7, 176.7 183.5 Q 176.0 184.3, 176.0 185.8 Q 176.0 187.5, 176.7 188.3 Q 177.3 189.1, 178.5 189.1 " fill="#FF0000"/>
</g>
    <g transform="translate(637.0, 0) scale(1 1) "><line x1="15" y1="100" x2="25" y2="100" style="stroke:rgb(0,0,0);stroke-width:2"/>
  <line x1="20" y1="95" x2="20" y2="105" style="stroke:rgb(0,0,0);stroke-width:2"/>
</g>
    <g transform="translate(677.0, 0) scale(1 1) "><!-- END OF HEADER -->
<rect style="opacity:1.0;fill:#FFFFFF;stroke:none" width="215.0" height="200.0" x="0.0" y="0.0"> </rect>
<path class="bond-0 atom-0 atom-1" d="M 183.7,56.0 L 158.3,99.9" style="fill:none;fill-rule:evenodd;stroke:#000000;stroke-width:2.0px;stroke-linecap:butt;stroke-linejoin:miter;stroke-opacity:1"/>
<path class="bond-1 atom-1 atom-2" d="M 158.3,99.9 L 168.4,117.4" style="fill:none;fill-rule:evenodd;stroke:#000000;stroke-width:2.0px;stroke-linecap:butt;stroke-linejoin:miter;stroke-opacity:1"/>
<path class="bond-1 atom-1 atom-2" d="M 168.4,117.4 L 178.5,134.9" style="fill:none;fill-rule:evenodd;stroke:#FF0000;stroke-width:2.0px;stroke-linecap:butt;stroke-linejoin:miter;stroke-opacity:1"/>
<path class="bond-2 atom-1 atom-3" d="M 158.3,99.9 L 107.6,99.9" style="fill:none;fill-rule:evenodd;stroke:#000000;stroke-width:2.0px;stroke-linecap:butt;stroke-linejoin:miter;stroke-opacity:1"/>
<path class="bond-3 atom-3 atom-4" d="M 107.6,99.9 L 107.6,49.2" style="fill:none;fill-rule:evenodd;stroke:#000000;stroke-width:2.0px;stroke-linecap:butt;stroke-linejoin:miter;stroke-opacity:1"/>
<path class="bond-4 atom-3 atom-5" d="M 107.6,99.9 L 107.6,150.6" style="fill:none;fill-rule:evenodd;stroke:#000000;stroke-width:2.0px;stroke-linecap:butt;stroke-linejoin:miter;stroke-opacity:1"/>
<path class="bond-5 atom-3 atom-6" d="M 107.6,99.9 L 56.9,99.9" style="fill:none;fill-rule:evenodd;stroke:#000000;stroke-width:2.0px;stroke-linecap:butt;stroke-linejoin:miter;stroke-opacity:1"/>
<path class="bond-6 atom-6 atom-7" d="M 54.7,96.1 L 44.0,114.5" style="fill:none;fill-rule:evenodd;stroke:#000000;stroke-width:2.0px;stroke-linecap:butt;stroke-linejoin:miter;stroke-opacity:1"/>
<path class="bond-6 atom-6 atom-7" d="M 44.0,114.5 L 33.4,133.0" style="fill:none;fill-rule:evenodd;stroke:#FF0000;stroke-width:2.0px;stroke-linecap:butt;stroke-linejoin:miter;stroke-opacity:1"/>
<path class="bond-6 atom-6 atom-7" d="M 61.3,99.9 L 50.6,118.3" style="fill:none;fill-rule:evenodd;stroke:#000000;stroke-width:2.0px;stroke-linecap:butt;stroke-linejoin:miter;stroke-opacity:1"/>
<path class="bond-6 atom-6 atom-7" d="M 50.6,118.3 L 40.0,136.8" style="fill:none;fill-rule:evenodd;stroke:#FF0000;stroke-width:2.0px;stroke-linecap:butt;stroke-linejoin:miter;stroke-opacity:1"/>
<path class="bond-7 atom-6 atom-8" d="M 56.9,99.9 L 46.9,82.5" style="fill:none;fill-rule:evenodd;stroke:#000000;stroke-width:2.0px;stroke-linecap:butt;stroke-linejoin:miter;stroke-opacity:1"/>
<path class="bond-7 atom-6 atom-8" d="M 46.9,82.5 L 36.8,65.1" style="fill:none;fill-rule:evenodd;stroke:#FF0000;stroke-width:2.0px;stroke-linecap:butt;stroke-linejoin:miter;stroke-opacity:1"/>
<path d="M 59.4,99.9 L 56.9,99.9 L 56.4,99.0" style="fill:none;stroke:#000000;stroke-width:2.0px;stroke-linecap:butt;stroke-linejoin:miter;stroke-opacity:1;"/>
<path class="atom-2" d="M 177.1 143.9 Q 177.1 140.4, 178.8 138.5 Q 180.5 136.5, 183.7 136.5 Q 186.9 136.5, 188.6 138.5 Q 190.3 140.4, 190.3 143.9 Q 190.3 147.3, 188.6 149.3 Q 186.8 151.3, 183.7 151.3 Q 180.5 151.3, 178.8 149.3 Q 177.1 147.4, 177.1 143.9 M 183.7 149.7 Q 185.9 149.7, 187.0 148.2 Q 188.2 146.7, 188.2 143.9 Q 188.2 141.0, 187.0 139.6 Q 185.9 138.2, 183.7 138.2 Q 181.5 138.2, 180.3 139.6 Q 179.1 141.0, 179.1 143.9 Q 179.1 146.8, 180.3 148.2 Q 181.5 149.7, 183.7 149.7 " fill="#FF0000"/>
<path class="atom-2" d="M 192.5 136.7 L 194.5 136.7 L 194.5 142.8 L 201.8 142.8 L 201.8 136.7 L 203.7 136.7 L 203.7 151.1 L 201.8 151.1 L 201.8 144.4 L 194.5 144.4 L 194.5 151.1 L 192.5 151.1 L 192.5 136.7 " fill="#FF0000"/>
<path class="atom-7" d="M 24.9 143.9 Q 24.9 140.4, 26.6 138.5 Q 28.3 136.5, 31.5 136.5 Q 34.7 136.5, 36.4 138.5 Q 38.1 140.4, 38.1 143.9 Q 38.1 147.3, 36.4 149.3 Q 34.7 151.3, 31.5 151.3 Q 28.4 151.3, 26.6 149.3 Q 24.9 147.4, 24.9 143.9 M 31.5 149.7 Q 33.7 149.7, 34.9 148.2 Q 36.1 146.7, 36.1 143.9 Q 36.1 141.0, 34.9 139.6 Q 33.7 138.2, 31.5 138.2 Q 29.3 138.2, 28.1 139.6 Q 27.0 141.0, 27.0 143.9 Q 27.0 146.8, 28.1 148.2 Q 29.3 149.7, 31.5 149.7 " fill="#FF0000"/>
<path class="atom-8" d="M 10.7 48.9 L 12.7 48.9 L 12.7 55.0 L 20.0 55.0 L 20.0 48.9 L 22.0 48.9 L 22.0 63.2 L 20.0 63.2 L 20.0 56.6 L 12.7 56.6 L 12.7 63.2 L 10.7 63.2 L 10.7 48.9 " fill="#FF0000"/>
<path class="atom-8" d="M 24.9 56.0 Q 24.9 52.6, 26.6 50.6 Q 28.3 48.7, 31.5 48.7 Q 34.7 48.7, 36.4 50.6 Q 38.1 52.6, 38.1 56.0 Q 38.1 59.5, 36.4 61.5 Q 34.7 63.5, 31.5 63.5 Q 28.4 63.5, 26.6 61.5 Q 24.9 59.5, 24.9 56.0 M 31.5 61.8 Q 33.7 61.8, 34.9 60.4 Q 36.1 58.9, 36.1 56.0 Q 36.1 53.2, 34.9 51.8 Q 33.7 50.3, 31.5 50.3 Q 29.3 50.3, 28.1 51.7 Q 27.0 53.2, 27.0 56.0 Q 27.0 58.9, 28.1 60.4 Q 29.3 61.8, 31.5 61.8 " fill="#FF0000"/>
</g>
  </g>
</svg>
