<?xml version='1.0' encoding='ASCII' standalone='yes'?>
<svg xmlns="http://www.w3.org/2000/svg" xmlns:xlink="http://www.w3.org/1999/xlink" version="1.1" width="892.0px" viewBox="0 0 892.0 200.0" height="200.0px">
  <g>
    <g transform="translate(0, 0) scale(1 1) "><!-- END OF HEADER -->
<rect style="opacity:1.0;fill:#FFFFFF;stroke:none" width="280.0" height="200.0" x="0.0" y="0.0"> </rect>
<path class="bond-0 atom-0 atom-1" d="M 240.0,37.5 L 233.2,78.1" style="fill:none;fill-rule:evenodd;stroke:#000000;stroke-width:2.0px;stroke-linecap:butt;stroke-linejoin:miter;stroke-opacity:1"/>
<path class="bond-1 atom-1 atom-2" d="M 233.2,78.1 L 194.7,92.6" style="fill:none;fill-rule:evenodd;stroke:#000000;stroke-width:2.0px;stroke-linecap:butt;stroke-linejoin:miter;stroke-opacity:1"/>
<path class="bond-2 atom-2 atom-3" d="M 194.7,92.6 L 156.2,107.0" style="fill:none;fill-rule:evenodd;stroke:#000000;stroke-width:2.0px;stroke-linecap:butt;stroke-linejoin:miter;stroke-opacity:1"/>
<path class="bond-3 atom-3 atom-4" d="M 156.2,107.0 L 124.4,80.9" style="fill:none;fill-rule:evenodd;stroke:#000000;stroke-width:2.0px;stroke-linecap:butt;stroke-linejoin:miter;stroke-opacity:1"/>
<path class="bond-4 atom-4 atom-5" d="M 124.4,80.9 L 85.9,95.3" style="fill:none;fill-rule:evenodd;stroke:#000000;stroke-width:2.0px;stroke-linecap:butt;stroke-linejoin:miter;stroke-opacity:1"/>
<path class="bond-5 atom-5 atom-6" d="M 85.9,95.3 L 47.4,109.8" style="fill:none;fill-rule:evenodd;stroke:#000000;stroke-width:2.0px;stroke-linecap:butt;stroke-linejoin:miter;stroke-opacity:1"/>
<path class="bond-6 atom-5 atom-7" d="M 85.9,95.3 L 71.4,56.8" style="fill:none;fill-rule:evenodd;stroke:#000000;stroke-width:2.0px;stroke-linecap:butt;stroke-linejoin:miter;stroke-opacity:1"/>
<path class="bond-7 atom-7 atom-8" d="M 72.7,60.1 L 83.3,47.3" style="fill:none;fill-rule:evenodd;stroke:#000000;stroke-width:2.0px;stroke-linecap:butt;stroke-linejoin:miter;stroke-opacity:1"/>
<path class="bond-7 atom-7 atom-8" d="M 83.3,47.3 L 93.8,34.4" style="fill:none;fill-rule:evenodd;stroke:#FF0000;stroke-width:2.0px;stroke-linecap:butt;stroke-linejoin:miter;stroke-opacity:1"/>
<path class="bond-7 atom-7 atom-8" d="M 67.9,56.2 L 78.5,43.4" style="fill:none;fill-rule:evenodd;stroke:#000000;stroke-width:2.0px;stroke-linecap:butt;stroke-linejoin:miter;stroke-opacity:1"/>
<path class="bond-7 atom-7 atom-8" d="M 78.5,43.4 L 89.1,30.5" style="fill:none;fill-rule:evenodd;stroke:#FF0000;stroke-width:2.0px;stroke-linecap:butt;stroke-linejoin:miter;stroke-opacity:1"/>
<path class="bond-8 atom-7 atom-9" d="M 71.4,56.8 L 54.5,54.0" style="fill:none;fill-rule:evenodd;stroke:#000000;stroke-width:2.0px;stroke-linecap:butt;stroke-linejoin:miter;stroke-opacity:1"/>
<path class="bond-8 atom-7 atom-9" d="M 54.5,54.0 L 37.6,51.2" style="fill:none;fill-rule:evenodd;stroke:#FF0000;stroke-width:2.0px;stroke-linecap:butt;stroke-linejoin:miter;stroke-opacity:1"/>
<path class="bond-9 atom-5 atom-10" d="M 85.9,95.3 L 100.3,133.8" style="fill:none;fill-rule:evenodd;stroke:#000000;stroke-width:2.0px;stroke-linecap:butt;stroke-linejoin:miter;stroke-opacity:1"/>
<path class="bond-10 atom-10 atom-11" d="M 100.3,133.8 L 74.2,165.6" style="fill:none;fill-rule:evenodd;stroke:#000000;stroke-width:2.0px;stroke-linecap:butt;stroke-linejoin:miter;stroke-opacity:1"/>
<path class="bond-11 atom-10 atom-12" d="M 100.3,133.8 L 117.3,136.7" style="fill:none;fill-rule:evenodd;stroke:#000000;stroke-width:2.0px;stroke-linecap:butt;stroke-linejoin:miter;stroke-opacity:1"/>
<path class="bond-11 atom-10 atom-12" d="M 117.3,136.7 L 134.2,139.5" style="fill:none;fill-rule:evenodd;stroke:#FF0000;stroke-width:2.0px;stroke-linecap:butt;stroke-linejoin:miter;stroke-opacity:1"/>
<path class="bond-12 atom-2 atom-13" d="M 194.7,92.6 L 180.2,54.0" style="fill:none;fill-rule:evenodd;stroke:#000000;stroke-width:2.0px;stroke-linecap:butt;stroke-linejoin:miter;stroke-opacity:1"/>
<path class="bond-13 atom-13 atom-14" d="M 181.5,57.4 L 192.1,44.5" style="fill:none;fill-rule:evenodd;stroke:#000000;stroke-width:2.0px;stroke-linecap:butt;stroke-linejoin:miter;stroke-opacity:1"/>
<path class="bond-13 atom-13 atom-14" d="M 192.1,44.5 L 202.7,31.7" style="fill:none;fill-rule:evenodd;stroke:#FF0000;stroke-width:2.0px;stroke-linecap:butt;stroke-linejoin:miter;stroke-opacity:1"/>
<path class="bond-13 atom-13 atom-14" d="M 176.7,53.5 L 187.3,40.6" style="fill:none;fill-rule:evenodd;stroke:#000000;stroke-width:2.0px;stroke-linecap:butt;stroke-linejoin:miter;stroke-opacity:1"/>
<path class="bond-13 atom-13 atom-14" d="M 187.3,40.6 L 197.9,27.7" style="fill:none;fill-rule:evenodd;stroke:#FF0000;stroke-width:2.0px;stroke-linecap:butt;stroke-linejoin:miter;stroke-opacity:1"/>
<path class="bond-14 atom-13 atom-15" d="M 180.2,54.0 L 163.3,51.2" style="fill:none;fill-rule:evenodd;stroke:#000000;stroke-width:2.0px;stroke-linecap:butt;stroke-linejoin:miter;stroke-opacity:1"/>
<path class="bond-14 atom-13 atom-15" d="M 163.3,51.2 L 146.4,48.4" style="fill:none;fill-rule:evenodd;stroke:#FF0000;stroke-width:2.0px;stroke-linecap:butt;stroke-linejoin:miter;stroke-opacity:1"/>
<path class="bond-15 atom-2 atom-16" d="M 194.7,92.6 L 209.1,131.1" style="fill:none;fill-rule:evenodd;stroke:#000000;stroke-width:2.0px;stroke-linecap:butt;stroke-linejoin:miter;stroke-opacity:1"/>
<path class="bond-16 atom-16 atom-17" d="M 209.1,131.1 L 183.0,162.9" style="fill:none;fill-rule:evenodd;stroke:#000000;stroke-width:2.0px;stroke-linecap:butt;stroke-linejoin:miter;stroke-opacity:1"/>
<path class="bond-17 atom-16 atom-18" d="M 209.1,131.1 L 226.1,133.9" style="fill:none;fill-rule:evenodd;stroke:#000000;stroke-width:2.0px;stroke-linecap:butt;stroke-linejoin:miter;stroke-opacity:1"/>
<path class="bond-17 atom-16 atom-18" d="M 226.1,133.9 L 243.0,136.7" style="fill:none;fill-rule:evenodd;stroke:#FF0000;stroke-width:2.0px;stroke-linecap:butt;stroke-linejoin:miter;stroke-opacity:1"/>
<path d="M 233.5,76.1 L 233.2,78.1 L 231.3,78.8" style="fill:none;stroke:#000000;stroke-width:2.0px;stroke-linecap:butt;stroke-linejoin:miter;stroke-opacity:1;"/>
<path d="M 158.1,106.3 L 156.2,107.0 L 154.6,105.7" style="fill:none;stroke:#000000;stroke-width:2.0px;stroke-linecap:butt;stroke-linejoin:miter;stroke-opacity:1;"/>
<path d="M 126.0,82.2 L 124.4,80.9 L 122.5,81.6" style="fill:none;stroke:#000000;stroke-width:2.0px;stroke-linecap:butt;stroke-linejoin:miter;stroke-opacity:1;"/>
<path d="M 72.2,58.7 L 71.4,56.8 L 70.6,56.7" style="fill:none;stroke:#000000;stroke-width:2.0px;stroke-linecap:butt;stroke-linejoin:miter;stroke-opacity:1;"/>
<path d="M 181.0,56.0 L 180.2,54.0 L 179.4,53.9" style="fill:none;stroke:#000000;stroke-width:2.0px;stroke-linecap:butt;stroke-linejoin:miter;stroke-opacity:1;"/>
<path class="atom-8" d="M 92.2 25.1 Q 92.2 22.3, 93.6 20.7 Q 95.0 19.1, 97.6 19.1 Q 100.2 19.1, 101.5 20.7 Q 102.9 22.3, 102.9 25.1 Q 102.9 27.9, 101.5 29.5 Q 100.1 31.1, 97.6 31.1 Q 95.0 31.1, 93.6 29.5 Q 92.2 27.9, 92.2 25.1 M 97.6 29.8 Q 99.3 29.8, 100.3 28.6 Q 101.3 27.4, 101.3 25.1 Q 101.3 22.8, 100.3 21.6 Q 99.3 20.5, 97.6 20.5 Q 95.8 20.5, 94.8 21.6 Q 93.9 22.8, 93.9 25.1 Q 93.9 27.4, 94.8 28.6 Q 95.8 29.8, 97.6 29.8 " fill="#FF0000"/>
<path class="atom-9" d="M 14.0 44.3 L 15.6 44.3 L 15.6 49.3 L 21.5 49.3 L 21.5 44.3 L 23.1 44.3 L 23.1 56.0 L 21.5 56.0 L 21.5 50.6 L 15.6 50.6 L 15.6 56.0 L 14.0 56.0 L 14.0 44.3 " fill="#FF0000"/>
<path class="atom-9" d="M 25.5 50.1 Q 25.5 47.3, 26.9 45.7 Q 28.3 44.2, 30.9 44.2 Q 33.4 44.2, 34.8 45.7 Q 36.2 47.3, 36.2 50.1 Q 36.2 52.9, 34.8 54.5 Q 33.4 56.1, 30.9 56.1 Q 28.3 56.1, 26.9 54.5 Q 25.5 52.9, 25.5 50.1 M 30.9 54.8 Q 32.6 54.8, 33.6 53.6 Q 34.6 52.4, 34.6 50.1 Q 34.6 47.8, 33.6 46.7 Q 32.6 45.5, 30.9 45.5 Q 29.1 45.5, 28.1 46.6 Q 27.2 47.8, 27.2 50.1 Q 27.2 52.4, 28.1 53.6 Q 29.1 54.8, 30.9 54.8 " fill="#FF0000"/>
<path class="atom-12" d="M 135.6 140.6 Q 135.6 137.8, 136.9 136.3 Q 138.3 134.7, 140.9 134.7 Q 143.5 134.7, 144.9 136.3 Q 146.3 137.8, 146.3 140.6 Q 146.3 143.5, 144.9 145.1 Q 143.5 146.7, 140.9 146.7 Q 138.3 146.7, 136.9 145.1 Q 135.6 143.5, 135.6 140.6 M 140.9 145.3 Q 142.7 145.3, 143.6 144.2 Q 144.6 143.0, 144.6 140.6 Q 144.6 138.3, 143.6 137.2 Q 142.7 136.0, 140.9 136.0 Q 139.1 136.0, 138.2 137.2 Q 137.2 138.3, 137.2 140.6 Q 137.2 143.0, 138.2 144.2 Q 139.1 145.3, 140.9 145.3 " fill="#FF0000"/>
<path class="atom-12" d="M 148.1 134.8 L 149.7 134.8 L 149.7 139.8 L 155.6 139.8 L 155.6 134.8 L 157.2 134.8 L 157.2 146.5 L 155.6 146.5 L 155.6 141.1 L 149.7 141.1 L 149.7 146.5 L 148.1 146.5 L 148.1 134.8 " fill="#FF0000"/>
<path class="atom-14" d="M 201.0 22.3 Q 201.0 19.5, 202.4 17.9 Q 203.8 16.4, 206.4 16.4 Q 209.0 16.4, 210.3 17.9 Q 211.7 19.5, 211.7 22.3 Q 211.7 25.1, 210.3 26.8 Q 208.9 28.3, 206.4 28.3 Q 203.8 28.3, 202.4 26.8 Q 201.0 25.2, 201.0 22.3 M 206.4 27.0 Q 208.2 27.0, 209.1 25.8 Q 210.1 24.6, 210.1 22.3 Q 210.1 20.0, 209.1 18.9 Q 208.2 17.7, 206.4 17.7 Q 204.6 17.7, 203.6 18.9 Q 202.7 20.0, 202.7 22.3 Q 202.7 24.7, 203.6 25.8 Q 204.6 27.0, 206.4 27.0 " fill="#FF0000"/>
<path class="atom-15" d="M 122.8 41.5 L 124.4 41.5 L 124.4 46.5 L 130.3 46.5 L 130.3 41.5 L 131.9 41.5 L 131.9 53.2 L 130.3 53.2 L 130.3 47.8 L 124.4 47.8 L 124.4 53.2 L 122.8 53.2 L 122.8 41.5 " fill="#FF0000"/>
<path class="atom-15" d="M 134.3 47.3 Q 134.3 44.5, 135.7 43.0 Q 137.1 41.4, 139.7 41.4 Q 142.2 41.4, 143.6 43.0 Q 145.0 44.5, 145.0 47.3 Q 145.0 50.2, 143.6 51.8 Q 142.2 53.4, 139.7 53.4 Q 137.1 53.4, 135.7 51.8 Q 134.3 50.2, 134.3 47.3 M 139.7 52.1 Q 141.4 52.1, 142.4 50.9 Q 143.4 49.7, 143.4 47.3 Q 143.4 45.0, 142.4 43.9 Q 141.4 42.7, 139.7 42.7 Q 137.9 42.7, 136.9 43.9 Q 136.0 45.0, 136.0 47.3 Q 136.0 49.7, 136.9 50.9 Q 137.9 52.1, 139.7 52.1 " fill="#FF0000"/>
<path class="atom-18" d="M 244.4 137.9 Q 244.4 135.1, 245.8 133.5 Q 247.1 131.9, 249.7 131.9 Q 252.3 131.9, 253.7 133.5 Q 255.1 135.1, 255.1 137.9 Q 255.1 140.7, 253.7 142.3 Q 252.3 143.9, 249.7 143.9 Q 247.2 143.9, 245.8 142.3 Q 244.4 140.7, 244.4 137.9 M 249.7 142.6 Q 251.5 142.6, 252.5 141.4 Q 253.4 140.2, 253.4 137.9 Q 253.4 135.6, 252.5 134.4 Q 251.5 133.3, 249.7 133.3 Q 247.9 133.3, 247.0 134.4 Q 246.0 135.6, 246.0 137.9 Q 246.0 140.2, 247.0 141.4 Q 247.9 142.6, 249.7 142.6 " fill="#FF0000"/>
<path class="atom-18" d="M 256.9 132.1 L 258.5 132.1 L 258.5 137.0 L 264.4 137.0 L 264.4 132.1 L 266.0 132.1 L 266.0 143.7 L 264.4 143.7 L 264.4 138.3 L 258.5 138.3 L 258.5 143.7 L 256.9 143.7 L 256.9 132.1 " fill="#FF0000"/>
<path class="legend" d="M 131.5 181.9 Q 131.5 179.6, 132.2 177.7 Q 132.8 175.8, 134.1 173.8 L 135.0 174.4 Q 134.0 176.3, 133.4 178.0 Q 132.9 179.7, 132.9 181.9 Q 132.9 184.0, 133.4 185.8 Q 134.0 187.5, 135.0 189.4 L 134.1 190.0 Q 132.8 188.0, 132.2 186.1 Q 131.5 184.2, 131.5 181.9 " fill="#000000"/>
<path class="legend" d="M 135.9 177.3 Q 136.4 176.2, 137.3 175.6 Q 138.3 175.0, 139.7 175.0 Q 141.4 175.0, 142.4 175.9 Q 143.3 176.8, 143.3 178.5 Q 143.3 180.2, 142.1 181.7 Q 140.9 183.3, 138.3 185.2 L 143.5 185.2 L 143.5 186.4 L 135.9 186.4 L 135.9 185.4 Q 138.0 183.9, 139.3 182.8 Q 140.5 181.6, 141.1 180.6 Q 141.7 179.6, 141.7 178.6 Q 141.7 177.5, 141.2 176.9 Q 140.7 176.3, 139.7 176.3 Q 138.8 176.3, 138.2 176.6 Q 137.6 177.0, 137.2 177.8 L 135.9 177.3 " fill="#000000"/>
<path class="legend" d="M 148.5 181.9 Q 148.5 184.2, 147.8 186.1 Q 147.2 188.0, 145.9 190.0 L 145.0 189.4 Q 146.0 187.5, 146.5 185.8 Q 147.1 184.0, 147.1 181.9 Q 147.1 179.7, 146.5 178.0 Q 146.0 176.3, 145.0 174.4 L 145.9 173.8 Q 147.2 175.8, 147.8 177.7 Q 148.5 179.6, 148.5 181.9 " fill="#000000"/>
</g>
    <g transform="translate(280.0, 0) scale(1 1) "><line x1="5" y1="100" x2="35" y2="100" style="stroke:rgb(0,0,0);stroke-width:2"/>
  <line x1="34" y1="100" x2="29" y2="95" style="stroke:rgb(0,0,0);stroke-width:2"/>
  <line x1="34" y1="100" x2="29" y2="105" style="stroke:rgb(0,0,0);stroke-width:2"/>
</g>
    <g transform="translate(320.0, 0) scale(1 1) "><!-- END OF HEADER -->
<rect style="opacity:1.0;fill:#FFFFFF;stroke:none" width="317.0" height="200.0" x="0.0" y="0.0"> </rect>
<path class="bond-0 atom-0 atom-1" d="M 300.9,106.2 L 274.5,119.3" style="fill:none;fill-rule:evenodd;stroke:#000000;stroke-width:2.0px;stroke-linecap:butt;stroke-linejoin:miter;stroke-opacity:1"/>
<path class="bond-1 atom-1 atom-2" d="M 274.5,119.3 L 249.9,103.1" style="fill:none;fill-rule:evenodd;stroke:#000000;stroke-width:2.0px;stroke-linecap:butt;stroke-linejoin:miter;stroke-opacity:1"/>
<path class="bond-2 atom-2 atom-3" d="M 249.9,103.1 L 225.3,86.8" style="fill:none;fill-rule:evenodd;stroke:#000000;stroke-width:2.0px;stroke-linecap:butt;stroke-linejoin:miter;stroke-opacity:1"/>
<path class="bond-3 atom-3 atom-4" d="M 225.3,86.8 L 198.9,99.9" style="fill:none;fill-rule:evenodd;stroke:#000000;stroke-width:2.0px;stroke-linecap:butt;stroke-linejoin:miter;stroke-opacity:1"/>
<path class="bond-4 atom-4 atom-5" d="M 198.9,99.9 L 174.3,83.7" style="fill:none;fill-rule:evenodd;stroke:#000000;stroke-width:2.0px;stroke-linecap:butt;stroke-linejoin:miter;stroke-opacity:1"/>
<path class="bond-5 atom-5 atom-6" d="M 174.3,83.7 L 147.9,96.8" style="fill:none;fill-rule:evenodd;stroke:#000000;stroke-width:2.0px;stroke-linecap:butt;stroke-linejoin:miter;stroke-opacity:1"/>
<path class="bond-6 atom-6 atom-7" d="M 147.9,96.8 L 121.5,110.0" style="fill:none;fill-rule:evenodd;stroke:#000000;stroke-width:2.0px;stroke-linecap:butt;stroke-linejoin:miter;stroke-opacity:1"/>
<path class="bond-7 atom-7 atom-8" d="M 121.5,110.0 L 96.9,93.7" style="fill:none;fill-rule:evenodd;stroke:#000000;stroke-width:2.0px;stroke-linecap:butt;stroke-linejoin:miter;stroke-opacity:1"/>
<path class="bond-8 atom-8 atom-9" d="M 96.9,93.7 L 70.5,106.9" style="fill:none;fill-rule:evenodd;stroke:#000000;stroke-width:2.0px;stroke-linecap:butt;stroke-linejoin:miter;stroke-opacity:1"/>
<path class="bond-9 atom-9 atom-10" d="M 70.5,106.9 L 44.1,120.0" style="fill:none;fill-rule:evenodd;stroke:#000000;stroke-width:2.0px;stroke-linecap:butt;stroke-linejoin:miter;stroke-opacity:1"/>
<path class="bond-10 atom-9 atom-11" d="M 70.5,106.9 L 57.4,80.5" style="fill:none;fill-rule:evenodd;stroke:#000000;stroke-width:2.0px;stroke-linecap:butt;stroke-linejoin:miter;stroke-opacity:1"/>
<path class="bond-11 atom-11 atom-12" d="M 58.5,82.7 L 65.2,72.6" style="fill:none;fill-rule:evenodd;stroke:#000000;stroke-width:2.0px;stroke-linecap:butt;stroke-linejoin:miter;stroke-opacity:1"/>
<path class="bond-11 atom-11 atom-12" d="M 65.2,72.6 L 72.0,62.4" style="fill:none;fill-rule:evenodd;stroke:#FF0000;stroke-width:2.0px;stroke-linecap:butt;stroke-linejoin:miter;stroke-opacity:1"/>
<path class="bond-11 atom-11 atom-12" d="M 54.8,80.3 L 61.5,70.1" style="fill:none;fill-rule:evenodd;stroke:#000000;stroke-width:2.0px;stroke-linecap:butt;stroke-linejoin:miter;stroke-opacity:1"/>
<path class="bond-11 atom-11 atom-12" d="M 61.5,70.1 L 68.3,60.0" style="fill:none;fill-rule:evenodd;stroke:#FF0000;stroke-width:2.0px;stroke-linecap:butt;stroke-linejoin:miter;stroke-opacity:1"/>
<path class="bond-12 atom-11 atom-13" d="M 57.4,80.5 L 45.1,79.7" style="fill:none;fill-rule:evenodd;stroke:#000000;stroke-width:2.0px;stroke-linecap:butt;stroke-linejoin:miter;stroke-opacity:1"/>
<path class="bond-12 atom-11 atom-13" d="M 45.1,79.7 L 32.7,79.0" style="fill:none;fill-rule:evenodd;stroke:#FF0000;stroke-width:2.0px;stroke-linecap:butt;stroke-linejoin:miter;stroke-opacity:1"/>
<path class="bond-13 atom-9 atom-14" d="M 70.5,106.9 L 83.7,133.2" style="fill:none;fill-rule:evenodd;stroke:#000000;stroke-width:2.0px;stroke-linecap:butt;stroke-linejoin:miter;stroke-opacity:1"/>
<path class="bond-14 atom-14 atom-15" d="M 83.7,133.2 L 67.4,157.8" style="fill:none;fill-rule:evenodd;stroke:#000000;stroke-width:2.0px;stroke-linecap:butt;stroke-linejoin:miter;stroke-opacity:1"/>
<path class="bond-15 atom-14 atom-16" d="M 83.7,133.2 L 96.0,134.0" style="fill:none;fill-rule:evenodd;stroke:#000000;stroke-width:2.0px;stroke-linecap:butt;stroke-linejoin:miter;stroke-opacity:1"/>
<path class="bond-15 atom-14 atom-16" d="M 96.0,134.0 L 108.3,134.8" style="fill:none;fill-rule:evenodd;stroke:#FF0000;stroke-width:2.0px;stroke-linecap:butt;stroke-linejoin:miter;stroke-opacity:1"/>
<path class="bond-16 atom-6 atom-17" d="M 147.9,96.8 L 134.7,70.4" style="fill:none;fill-rule:evenodd;stroke:#000000;stroke-width:2.0px;stroke-linecap:butt;stroke-linejoin:miter;stroke-opacity:1"/>
<path class="bond-17 atom-17 atom-18" d="M 135.9,72.7 L 142.6,62.5" style="fill:none;fill-rule:evenodd;stroke:#000000;stroke-width:2.0px;stroke-linecap:butt;stroke-linejoin:miter;stroke-opacity:1"/>
<path class="bond-17 atom-17 atom-18" d="M 142.6,62.5 L 149.3,52.4" style="fill:none;fill-rule:evenodd;stroke:#FF0000;stroke-width:2.0px;stroke-linecap:butt;stroke-linejoin:miter;stroke-opacity:1"/>
<path class="bond-17 atom-17 atom-18" d="M 132.2,70.3 L 138.9,60.1" style="fill:none;fill-rule:evenodd;stroke:#000000;stroke-width:2.0px;stroke-linecap:butt;stroke-linejoin:miter;stroke-opacity:1"/>
<path class="bond-17 atom-17 atom-18" d="M 138.9,60.1 L 145.7,49.9" style="fill:none;fill-rule:evenodd;stroke:#FF0000;stroke-width:2.0px;stroke-linecap:butt;stroke-linejoin:miter;stroke-opacity:1"/>
<path class="bond-18 atom-17 atom-19" d="M 134.7,70.4 L 122.4,69.7" style="fill:none;fill-rule:evenodd;stroke:#000000;stroke-width:2.0px;stroke-linecap:butt;stroke-linejoin:miter;stroke-opacity:1"/>
<path class="bond-18 atom-17 atom-19" d="M 122.4,69.7 L 110.1,68.9" style="fill:none;fill-rule:evenodd;stroke:#FF0000;stroke-width:2.0px;stroke-linecap:butt;stroke-linejoin:miter;stroke-opacity:1"/>
<path class="bond-19 atom-6 atom-20" d="M 147.9,96.8 L 161.1,123.2" style="fill:none;fill-rule:evenodd;stroke:#000000;stroke-width:2.0px;stroke-linecap:butt;stroke-linejoin:miter;stroke-opacity:1"/>
<path class="bond-20 atom-20 atom-21" d="M 161.1,123.2 L 190.1,128.6" style="fill:none;fill-rule:evenodd;stroke:#000000;stroke-width:2.0px;stroke-linecap:butt;stroke-linejoin:miter;stroke-opacity:1"/>
<path class="bond-21 atom-20 atom-22" d="M 161.1,123.2 L 154.6,132.9" style="fill:none;fill-rule:evenodd;stroke:#000000;stroke-width:2.0px;stroke-linecap:butt;stroke-linejoin:miter;stroke-opacity:1"/>
<path class="bond-21 atom-20 atom-22" d="M 154.6,132.9 L 148.2,142.6" style="fill:none;fill-rule:evenodd;stroke:#FF0000;stroke-width:2.0px;stroke-linecap:butt;stroke-linejoin:miter;stroke-opacity:1"/>
<path class="bond-22 atom-2 atom-23" d="M 249.9,103.1 L 266.1,78.5" style="fill:none;fill-rule:evenodd;stroke:#000000;stroke-width:2.0px;stroke-linecap:butt;stroke-linejoin:miter;stroke-opacity:1"/>
<path class="bond-23 atom-23 atom-24" d="M 264.7,80.6 L 277.7,81.4" style="fill:none;fill-rule:evenodd;stroke:#000000;stroke-width:2.0px;stroke-linecap:butt;stroke-linejoin:miter;stroke-opacity:1"/>
<path class="bond-23 atom-23 atom-24" d="M 277.7,81.4 L 290.6,82.2" style="fill:none;fill-rule:evenodd;stroke:#FF0000;stroke-width:2.0px;stroke-linecap:butt;stroke-linejoin:miter;stroke-opacity:1"/>
<path class="bond-23 atom-23 atom-24" d="M 265.0,76.2 L 278.0,77.0" style="fill:none;fill-rule:evenodd;stroke:#000000;stroke-width:2.0px;stroke-linecap:butt;stroke-linejoin:miter;stroke-opacity:1"/>
<path class="bond-23 atom-23 atom-24" d="M 278.0,77.0 L 290.9,77.8" style="fill:none;fill-rule:evenodd;stroke:#FF0000;stroke-width:2.0px;stroke-linecap:butt;stroke-linejoin:miter;stroke-opacity:1"/>
<path class="bond-24 atom-23 atom-25" d="M 266.1,78.5 L 260.9,67.9" style="fill:none;fill-rule:evenodd;stroke:#000000;stroke-width:2.0px;stroke-linecap:butt;stroke-linejoin:miter;stroke-opacity:1"/>
<path class="bond-24 atom-23 atom-25" d="M 260.9,67.9 L 255.6,57.4" style="fill:none;fill-rule:evenodd;stroke:#FF0000;stroke-width:2.0px;stroke-linecap:butt;stroke-linejoin:miter;stroke-opacity:1"/>
<path class="bond-25 atom-2 atom-26" d="M 249.9,103.1 L 233.6,127.6" style="fill:none;fill-rule:evenodd;stroke:#000000;stroke-width:2.0px;stroke-linecap:butt;stroke-linejoin:miter;stroke-opacity:1"/>
<path class="bond-26 atom-26 atom-27" d="M 233.6,127.6 L 204.2,129.4" style="fill:none;fill-rule:evenodd;stroke:#000000;stroke-width:2.0px;stroke-linecap:butt;stroke-linejoin:miter;stroke-opacity:1"/>
<path class="bond-27 atom-26 atom-28" d="M 233.6,127.6 L 238.9,138.2" style="fill:none;fill-rule:evenodd;stroke:#000000;stroke-width:2.0px;stroke-linecap:butt;stroke-linejoin:miter;stroke-opacity:1"/>
<path class="bond-27 atom-26 atom-28" d="M 238.9,138.2 L 244.2,148.8" style="fill:none;fill-rule:evenodd;stroke:#FF0000;stroke-width:2.0px;stroke-linecap:butt;stroke-linejoin:miter;stroke-opacity:1"/>
<path d="M 275.8,118.7 L 274.5,119.3 L 273.2,118.5" style="fill:none;stroke:#000000;stroke-width:2.0px;stroke-linecap:butt;stroke-linejoin:miter;stroke-opacity:1;"/>
<path d="M 226.5,87.6 L 225.3,86.8 L 224.0,87.4" style="fill:none;stroke:#000000;stroke-width:2.0px;stroke-linecap:butt;stroke-linejoin:miter;stroke-opacity:1;"/>
<path d="M 200.2,99.3 L 198.9,99.9 L 197.7,99.1" style="fill:none;stroke:#000000;stroke-width:2.0px;stroke-linecap:butt;stroke-linejoin:miter;stroke-opacity:1;"/>
<path d="M 175.5,84.5 L 174.3,83.7 L 173.0,84.3" style="fill:none;stroke:#000000;stroke-width:2.0px;stroke-linecap:butt;stroke-linejoin:miter;stroke-opacity:1;"/>
<path d="M 122.8,109.3 L 121.5,110.0 L 120.3,109.2" style="fill:none;stroke:#000000;stroke-width:2.0px;stroke-linecap:butt;stroke-linejoin:miter;stroke-opacity:1;"/>
<path d="M 98.1,94.5 L 96.9,93.7 L 95.6,94.4" style="fill:none;stroke:#000000;stroke-width:2.0px;stroke-linecap:butt;stroke-linejoin:miter;stroke-opacity:1;"/>
<path d="M 58.0,81.8 L 57.4,80.5 L 56.8,80.4" style="fill:none;stroke:#000000;stroke-width:2.0px;stroke-linecap:butt;stroke-linejoin:miter;stroke-opacity:1;"/>
<path d="M 135.4,71.7 L 134.7,70.4 L 134.1,70.4" style="fill:none;stroke:#000000;stroke-width:2.0px;stroke-linecap:butt;stroke-linejoin:miter;stroke-opacity:1;"/>
<path d="M 265.3,79.7 L 266.1,78.5 L 265.9,77.9" style="fill:none;stroke:#000000;stroke-width:2.0px;stroke-linecap:butt;stroke-linejoin:miter;stroke-opacity:1;"/>
<path class="atom-12" d="M 69.8 55.9 Q 69.8 53.9, 70.8 52.8 Q 71.8 51.6, 73.6 51.6 Q 75.5 51.6, 76.5 52.8 Q 77.5 53.9, 77.5 55.9 Q 77.5 57.9, 76.5 59.1 Q 75.5 60.2, 73.6 60.2 Q 71.8 60.2, 70.8 59.1 Q 69.8 57.9, 69.8 55.9 M 73.6 59.3 Q 74.9 59.3, 75.6 58.4 Q 76.3 57.6, 76.3 55.9 Q 76.3 54.3, 75.6 53.4 Q 74.9 52.6, 73.6 52.6 Q 72.4 52.6, 71.7 53.4 Q 71.0 54.2, 71.0 55.9 Q 71.0 57.6, 71.7 58.4 Q 72.4 59.3, 73.6 59.3 " fill="#FF0000"/>
<path class="atom-13" d="M 15.8 74.5 L 17.0 74.5 L 17.0 78.1 L 21.3 78.1 L 21.3 74.5 L 22.4 74.5 L 22.4 82.9 L 21.3 82.9 L 21.3 79.0 L 17.0 79.0 L 17.0 82.9 L 15.8 82.9 L 15.8 74.5 " fill="#FF0000"/>
<path class="atom-13" d="M 24.1 78.7 Q 24.1 76.7, 25.1 75.6 Q 26.1 74.4, 27.9 74.4 Q 29.8 74.4, 30.8 75.6 Q 31.8 76.7, 31.8 78.7 Q 31.8 80.7, 30.8 81.9 Q 29.8 83.0, 27.9 83.0 Q 26.1 83.0, 25.1 81.9 Q 24.1 80.7, 24.1 78.7 M 27.9 82.1 Q 29.2 82.1, 29.9 81.2 Q 30.6 80.4, 30.6 78.7 Q 30.6 77.0, 29.9 76.2 Q 29.2 75.4, 27.9 75.4 Q 26.7 75.4, 26.0 76.2 Q 25.3 77.0, 25.3 78.7 Q 25.3 80.4, 26.0 81.2 Q 26.7 82.1, 27.9 82.1 " fill="#FF0000"/>
<path class="atom-16" d="M 109.3 135.1 Q 109.3 133.1, 110.3 131.9 Q 111.3 130.8, 113.1 130.8 Q 115.0 130.8, 116.0 131.9 Q 117.0 133.1, 117.0 135.1 Q 117.0 137.1, 115.9 138.3 Q 114.9 139.4, 113.1 139.4 Q 111.3 139.4, 110.3 138.3 Q 109.3 137.1, 109.3 135.1 M 113.1 138.5 Q 114.4 138.5, 115.1 137.6 Q 115.8 136.7, 115.8 135.1 Q 115.8 133.4, 115.1 132.6 Q 114.4 131.8, 113.1 131.8 Q 111.8 131.8, 111.1 132.6 Q 110.5 133.4, 110.5 135.1 Q 110.5 136.8, 111.1 137.6 Q 111.8 138.5, 113.1 138.5 " fill="#FF0000"/>
<path class="atom-16" d="M 118.3 130.9 L 119.4 130.9 L 119.4 134.5 L 123.7 134.5 L 123.7 130.9 L 124.8 130.9 L 124.8 139.3 L 123.7 139.3 L 123.7 135.4 L 119.4 135.4 L 119.4 139.3 L 118.3 139.3 L 118.3 130.9 " fill="#FF0000"/>
<path class="atom-18" d="M 147.2 45.9 Q 147.2 43.8, 148.2 42.7 Q 149.2 41.6, 151.0 41.6 Q 152.9 41.6, 153.9 42.7 Q 154.9 43.8, 154.9 45.9 Q 154.9 47.9, 153.9 49.0 Q 152.8 50.2, 151.0 50.2 Q 149.2 50.2, 148.2 49.0 Q 147.2 47.9, 147.2 45.9 M 151.0 49.2 Q 152.3 49.2, 153.0 48.4 Q 153.7 47.5, 153.7 45.9 Q 153.7 44.2, 153.0 43.4 Q 152.3 42.6, 151.0 42.6 Q 149.7 42.6, 149.1 43.4 Q 148.4 44.2, 148.4 45.9 Q 148.4 47.5, 149.1 48.4 Q 149.7 49.2, 151.0 49.2 " fill="#FF0000"/>
<path class="atom-19" d="M 93.2 64.5 L 94.4 64.5 L 94.4 68.0 L 98.6 68.0 L 98.6 64.5 L 99.8 64.5 L 99.8 72.8 L 98.6 72.8 L 98.6 69.0 L 94.4 69.0 L 94.4 72.8 L 93.2 72.8 L 93.2 64.5 " fill="#FF0000"/>
<path class="atom-19" d="M 101.5 68.6 Q 101.5 66.6, 102.5 65.5 Q 103.5 64.4, 105.3 64.4 Q 107.2 64.4, 108.2 65.5 Q 109.1 66.6, 109.1 68.6 Q 109.1 70.7, 108.1 71.8 Q 107.1 73.0, 105.3 73.0 Q 103.5 73.0, 102.5 71.8 Q 101.5 70.7, 101.5 68.6 M 105.3 72.0 Q 106.6 72.0, 107.3 71.2 Q 108.0 70.3, 108.0 68.6 Q 108.0 67.0, 107.3 66.2 Q 106.6 65.3, 105.3 65.3 Q 104.0 65.3, 103.3 66.2 Q 102.7 67.0, 102.7 68.6 Q 102.7 70.3, 103.3 71.2 Q 104.0 72.0, 105.3 72.0 " fill="#FF0000"/>
<path class="atom-22" d="M 132.7 143.7 L 133.8 143.7 L 133.8 147.2 L 138.1 147.2 L 138.1 143.7 L 139.2 143.7 L 139.2 152.0 L 138.1 152.0 L 138.1 148.2 L 133.8 148.2 L 133.8 152.0 L 132.7 152.0 L 132.7 143.7 " fill="#FF0000"/>
<path class="atom-22" d="M 140.9 147.8 Q 140.9 145.8, 141.9 144.7 Q 142.9 143.6, 144.8 143.6 Q 146.6 143.6, 147.6 144.7 Q 148.6 145.8, 148.6 147.8 Q 148.6 149.9, 147.6 151.0 Q 146.6 152.2, 144.8 152.2 Q 142.9 152.2, 141.9 151.0 Q 140.9 149.9, 140.9 147.8 M 144.8 151.2 Q 146.1 151.2, 146.7 150.4 Q 147.4 149.5, 147.4 147.8 Q 147.4 146.2, 146.7 145.4 Q 146.1 144.5, 144.8 144.5 Q 143.5 144.5, 142.8 145.3 Q 142.1 146.2, 142.1 147.8 Q 142.1 149.5, 142.8 150.4 Q 143.5 151.2, 144.8 151.2 " fill="#FF0000"/>
<path class="atom-24" d="M 291.7 80.3 Q 291.7 78.3, 292.7 77.2 Q 293.7 76.0, 295.6 76.0 Q 297.4 76.0, 298.4 77.2 Q 299.4 78.3, 299.4 80.3 Q 299.4 82.3, 298.4 83.5 Q 297.4 84.6, 295.6 84.6 Q 293.7 84.6, 292.7 83.5 Q 291.7 82.3, 291.7 80.3 M 295.6 83.7 Q 296.9 83.7, 297.5 82.8 Q 298.2 82.0, 298.2 80.3 Q 298.2 78.6, 297.5 77.8 Q 296.9 77.0, 295.6 77.0 Q 294.3 77.0, 293.6 77.8 Q 292.9 78.6, 292.9 80.3 Q 292.9 82.0, 293.6 82.8 Q 294.3 83.7, 295.6 83.7 " fill="#FF0000"/>
<path class="atom-25" d="M 240.9 47.9 L 242.0 47.9 L 242.0 51.5 L 246.3 51.5 L 246.3 47.9 L 247.4 47.9 L 247.4 56.3 L 246.3 56.3 L 246.3 52.4 L 242.0 52.4 L 242.0 56.3 L 240.9 56.3 L 240.9 47.9 " fill="#FF0000"/>
<path class="atom-25" d="M 249.2 52.1 Q 249.2 50.1, 250.1 49.0 Q 251.1 47.8, 253.0 47.8 Q 254.8 47.8, 255.8 49.0 Q 256.8 50.1, 256.8 52.1 Q 256.8 54.1, 255.8 55.3 Q 254.8 56.4, 253.0 56.4 Q 251.1 56.4, 250.1 55.3 Q 249.2 54.1, 249.2 52.1 M 253.0 55.5 Q 254.3 55.5, 254.9 54.6 Q 255.6 53.8, 255.6 52.1 Q 255.6 50.5, 254.9 49.6 Q 254.3 48.8, 253.0 48.8 Q 251.7 48.8, 251.0 49.6 Q 250.3 50.4, 250.3 52.1 Q 250.3 53.8, 251.0 54.6 Q 251.7 55.5, 253.0 55.5 " fill="#FF0000"/>
<path class="atom-28" d="M 242.9 154.1 Q 242.9 152.1, 243.9 150.9 Q 244.9 149.8, 246.7 149.8 Q 248.6 149.8, 249.6 150.9 Q 250.6 152.1, 250.6 154.1 Q 250.6 156.1, 249.6 157.2 Q 248.6 158.4, 246.7 158.4 Q 244.9 158.4, 243.9 157.2 Q 242.9 156.1, 242.9 154.1 M 246.7 157.4 Q 248.0 157.4, 248.7 156.6 Q 249.4 155.7, 249.4 154.1 Q 249.4 152.4, 248.7 151.6 Q 248.0 150.8, 246.7 150.8 Q 245.5 150.8, 244.8 151.6 Q 244.1 152.4, 244.1 154.1 Q 244.1 155.7, 244.8 156.6 Q 245.5 157.4, 246.7 157.4 " fill="#FF0000"/>
<path class="atom-28" d="M 251.9 149.9 L 253.0 149.9 L 253.0 153.5 L 257.3 153.5 L 257.3 149.9 L 258.4 149.9 L 258.4 158.3 L 257.3 158.3 L 257.3 154.4 L 253.0 154.4 L 253.0 158.3 L 251.9 158.3 L 251.9 149.9 " fill="#FF0000"/>
</g>
    <g transform="translate(637.0, 0) scale(1 1) "><line x1="15" y1="100" x2="25" y2="100" style="stroke:rgb(0,0,0);stroke-width:2"/>
  <line x1="20" y1="95" x2="20" y2="105" style="stroke:rgb(0,0,0);stroke-width:2"/>
</g>
    <g transform="translate(677.0, 0) scale(1 1) "><!-- END OF HEADER -->
<rect style="opacity:1.0;fill:#FFFFFF;stroke:none" width="215.0" height="200.0" x="0.0" y="0.0"> </rect>
<path class="bond-0 atom-0 atom-1" d="M 183.7,56.0 L 158.3,99.9" style="fill:none;fill-rule:evenodd;stroke:#000000;stroke-width:2.0px;stroke-linecap:butt;stroke-linejoin:miter;stroke-opacity:1"/>
<path class="bond-1 atom-1 atom-2" d="M 158.3,99.9 L 168.4,117.4" style="fill:none;fill-rule:evenodd;stroke:#000000;stroke-width:2.0px;stroke-linecap:butt;stroke-linejoin:miter;stroke-opacity:1"/>
<path class="bond-1 atom-1 atom-2" d="M 168.4,117.4 L 178.5,134.9" style="fill:none;fill-rule:evenodd;stroke:#FF0000;stroke-width:2.0px;stroke-linecap:butt;stroke-linejoin:miter;stroke-opacity:1"/>
<path class="bond-2 atom-1 atom-3" d="M 158.3,99.9 L 107.6,99.9" style="fill:none;fill-rule:evenodd;stroke:#000000;stroke-width:2.0px;stroke-linecap:butt;stroke-linejoin:miter;stroke-opacity:1"/>
<path class="bond-3 atom-3 atom-4" d="M 107.6,99.9 L 107.6,49.2" style="fill:none;fill-rule:evenodd;stroke:#000000;stroke-width:2.0px;stroke-linecap:butt;stroke-linejoin:miter;stroke-opacity:1"/>
<path class="bond-4 atom-3 atom-5" d="M 107.6,99.9 L 107.6,150.6" style="fill:none;fill-rule:evenodd;stroke:#000000;stroke-width:2.0px;stroke-linecap:butt;stroke-linejoin:miter;stroke-opacity:1"/>
<path class="bond-5 atom-3 atom-6" d="M 107.6,99.9 L 56.9,99.9" style="fill:none;fill-rule:evenodd;stroke:#000000;stroke-width:2.0px;stroke-linecap:butt;stroke-linejoin:miter;stroke-opacity:1"/>
<path class="bond-6 atom-6 atom-7" d="M 54.7,96.1 L 44.0,114.5" style="fill:none;fill-rule:evenodd;stroke:#000000;stroke-width:2.0px;stroke-linecap:butt;stroke-linejoin:miter;stroke-opacity:1"/>
<path class="bond-6 atom-6 atom-7" d="M 44.0,114.5 L 33.4,133.0" style="fill:none;fill-rule:evenodd;stroke:#FF0000;stroke-width:2.0px;stroke-linecap:butt;stroke-linejoin:miter;stroke-opacity:1"/>
<path class="bond-6 atom-6 atom-7" d="M 61.3,99.9 L 50.6,118.3" style="fill:none;fill-rule:evenodd;stroke:#000000;stroke-width:2.0px;stroke-linecap:butt;stroke-linejoin:miter;stroke-opacity:1"/>
<path class="bond-6 atom-6 atom-7" d="M 50.6,118.3 L 40.0,136.8" style="fill:none;fill-rule:evenodd;stroke:#FF0000;stroke-width:2.0px;stroke-linecap:butt;stroke-linejoin:miter;stroke-opacity:1"/>
<path class="bond-7 atom-6 atom-8" d="M 56.9,99.9 L 46.9,82.5" style="fill:none;fill-rule:evenodd;stroke:#000000;stroke-width:2.0px;stroke-linecap:butt;stroke-linejoin:miter;stroke-opacity:1"/>
<path class="bond-7 atom-6 atom-8" d="M 46.9,82.5 L 36.8,65.1" style="fill:none;fill-rule:evenodd;stroke:#FF0000;stroke-width:2.0px;stroke-linecap:butt;stroke-linejoin:miter;stroke-opacity:1"/>
<path d="M 59.4,99.9 L 56.9,99.9 L 56.4,99.0" style="fill:none;stroke:#000000;stroke-width:2.0px;stroke-linecap:butt;stroke-linejoin:miter;stroke-opacity:1;"/>
<path class="atom-2" d="M 177.1 143.9 Q 177.1 140.4, 178.8 138.5 Q 180.5 136.5, 183.7 136.5 Q 186.9 136.5, 188.6 138.5 Q 190.3 140.4, 190.3 143.9 Q 190.3 147.3, 188.6 149.3 Q 186.8 151.3, 183.7 151.3 Q 180.5 151.3, 178.8 149.3 Q 177.1 147.4, 177.1 143.9 M 183.7 149.7 Q 185.9 149.7, 187.0 148.2 Q 188.2 146.7, 188.2 143.9 Q 188.2 141.0, 187.0 139.6 Q 185.9 138.2, 183.7 138.2 Q 181.5 138.2, 180.3 139.6 Q 179.1 141.0, 179.1 143.9 Q 179.1 146.8, 180.3 148.2 Q 181.5 149.7, 183.7 149.7 " fill="#FF0000"/>
<path class="atom-2" d="M 192.5 136.7 L 194.5 136.7 L 194.5 142.8 L 201.8 142.8 L 201.8 136.7 L 203.7 136.7 L 203.7 151.1 L 201.8 151.1 L 201.8 144.4 L 194.5 144.4 L 194.5 151.1 L 192.5 151.1 L 192.5 136.7 " fill="#FF0000"/>
<path class="atom-7" d="M 24.9 143.9 Q 24.9 140.4, 26.6 138.5 Q 28.3 136.5, 31.5 136.5 Q 34.7 136.5, 36.4 138.5 Q 38.1 140.4, 38.1 143.9 Q 38.1 147.3, 36.4 149.3 Q 34.7 151.3, 31.5 151.3 Q 28.4 151.3, 26.6 149.3 Q 24.9 147.4, 24.9 143.9 M 31.5 149.7 Q 33.7 149.7, 34.9 148.2 Q 36.1 146.7, 36.1 143.9 Q 36.1 141.0, 34.9 139.6 Q 33.7 138.2, 31.5 138.2 Q 29.3 138.2, 28.1 139.6 Q 27.0 141.0, 27.0 143.9 Q 27.0 146.8, 28.1 148.2 Q 29.3 149.7, 31.5 149.7 " fill="#FF0000"/>
<path class="atom-8" d="M 10.7 48.9 L 12.7 48.9 L 12.7 55.0 L 20.0 55.0 L 20.0 48.9 L 22.0 48.9 L 22.0 63.2 L 20.0 63.2 L 20.0 56.6 L 12.7 56.6 L 12.7 63.2 L 10.7 63.2 L 10.7 48.9 " fill="#FF0000"/>
<path class="atom-8" d="M 24.9 56.0 Q 24.9 52.6, 26.6 50.6 Q 28.3 48.7, 31.5 48.7 Q 34.7 48.7, 36.4 50.6 Q 38.1 52.6, 38.1 56.0 Q 38.1 59.5, 36.4 61.5 Q 34.7 63.5, 31.5 63.5 Q 28.4 63.5, 26.6 61.5 Q 24.9 59.5, 24.9 56.0 M 31.5 61.8 Q 33.7 61.8, 34.9 60.4 Q 36.1 58.9, 36.1 56.0 Q 36.1 53.2, 34.9 51.8 Q 33.7 50.3, 31.5 50.3 Q 29.3 50.3, 28.1 51.7 Q 27.0 53.2, 27.0 56.0 Q 27.0 58.9, 28.1 60.4 Q 29.3 61.8, 31.5 61.8 " fill="#FF0000"/>
</g>
  </g>
</svg>
