<?xml version='1.0' encoding='ASCII' standalone='yes'?>
<svg xmlns="http://www.w3.org/2000/svg" xmlns:xlink="http://www.w3.org/1999/xlink" version="1.1" width="905.0px" viewBox="0 0 905.0 200.0" height="200.0px">
  <g>
    <g transform="translate(0, 0) scale(1 1) "><!-- END OF HEADER -->
<rect style="opacity:1.0;fill:#FFFFFF;stroke:none" width="289.0" height="200.0" x="0.0" y="0.0"> </rect>
<path class="bond-0 atom-0 atom-1" d="M 124.0,19.8 L 152.9,39.0" style="fill:none;fill-rule:evenodd;stroke:#000000;stroke-width:2.0px;stroke-linecap:butt;stroke-linejoin:miter;stroke-opacity:1"/>
<path class="bond-1 atom-1 atom-2" d="M 152.9,39.0 L 150.6,73.7" style="fill:none;fill-rule:evenodd;stroke:#000000;stroke-width:2.0px;stroke-linecap:butt;stroke-linejoin:miter;stroke-opacity:1"/>
<path class="bond-2 atom-2 atom-3" d="M 150.6,73.7 L 148.4,108.3" style="fill:none;fill-rule:evenodd;stroke:#000000;stroke-width:2.0px;stroke-linecap:butt;stroke-linejoin:miter;stroke-opacity:1"/>
<path class="bond-3 atom-2 atom-4" d="M 150.6,73.7 L 116.0,71.4" style="fill:none;fill-rule:evenodd;stroke:#000000;stroke-width:2.0px;stroke-linecap:butt;stroke-linejoin:miter;stroke-opacity:1"/>
<path class="bond-4 atom-4 atom-5" d="M 116.0,71.4 L 96.7,100.3" style="fill:none;fill-rule:evenodd;stroke:#000000;stroke-width:2.0px;stroke-linecap:butt;stroke-linejoin:miter;stroke-opacity:1"/>
<path class="bond-5 atom-5 atom-6" d="M 96.7,100.3 L 62.1,98.1" style="fill:none;fill-rule:evenodd;stroke:#000000;stroke-width:2.0px;stroke-linecap:butt;stroke-linejoin:miter;stroke-opacity:1"/>
<path class="bond-6 atom-6 atom-7" d="M 62.1,98.1 L 27.4,95.8" style="fill:none;fill-rule:evenodd;stroke:#000000;stroke-width:2.0px;stroke-linecap:butt;stroke-linejoin:miter;stroke-opacity:1"/>
<path class="bond-7 atom-6 atom-8" d="M 62.1,98.1 L 64.3,63.4" style="fill:none;fill-rule:evenodd;stroke:#000000;stroke-width:2.0px;stroke-linecap:butt;stroke-linejoin:miter;stroke-opacity:1"/>
<path class="bond-8 atom-8 atom-9" d="M 64.3,63.4 L 52.7,55.7" style="fill:none;fill-rule:evenodd;stroke:#000000;stroke-width:2.0px;stroke-linecap:butt;stroke-linejoin:miter;stroke-opacity:1"/>
<path class="bond-8 atom-8 atom-9" d="M 52.7,55.7 L 41.1,47.9" style="fill:none;fill-rule:evenodd;stroke:#FF0000;stroke-width:2.0px;stroke-linecap:butt;stroke-linejoin:miter;stroke-opacity:1"/>
<path class="bond-9 atom-6 atom-10" d="M 62.1,98.1 L 59.8,132.7" style="fill:none;fill-rule:evenodd;stroke:#000000;stroke-width:2.0px;stroke-linecap:butt;stroke-linejoin:miter;stroke-opacity:1"/>
<path class="bond-10 atom-10 atom-11" d="M 57.1,134.1 L 69.4,142.2" style="fill:none;fill-rule:evenodd;stroke:#000000;stroke-width:2.0px;stroke-linecap:butt;stroke-linejoin:miter;stroke-opacity:1"/>
<path class="bond-10 atom-10 atom-11" d="M 69.4,142.2 L 81.6,150.4" style="fill:none;fill-rule:evenodd;stroke:#FF0000;stroke-width:2.0px;stroke-linecap:butt;stroke-linejoin:miter;stroke-opacity:1"/>
<path class="bond-10 atom-10 atom-11" d="M 60.0,129.7 L 72.2,137.9" style="fill:none;fill-rule:evenodd;stroke:#000000;stroke-width:2.0px;stroke-linecap:butt;stroke-linejoin:miter;stroke-opacity:1"/>
<path class="bond-10 atom-10 atom-11" d="M 72.2,137.9 L 84.5,146.1" style="fill:none;fill-rule:evenodd;stroke:#FF0000;stroke-width:2.0px;stroke-linecap:butt;stroke-linejoin:miter;stroke-opacity:1"/>
<path class="bond-11 atom-10 atom-12" d="M 59.8,132.7 L 47.1,139.0" style="fill:none;fill-rule:evenodd;stroke:#000000;stroke-width:2.0px;stroke-linecap:butt;stroke-linejoin:miter;stroke-opacity:1"/>
<path class="bond-11 atom-10 atom-12" d="M 47.1,139.0 L 34.3,145.3" style="fill:none;fill-rule:evenodd;stroke:#FF0000;stroke-width:2.0px;stroke-linecap:butt;stroke-linejoin:miter;stroke-opacity:1"/>
<path class="bond-12 atom-2 atom-13" d="M 150.6,73.7 L 185.3,75.9" style="fill:none;fill-rule:evenodd;stroke:#000000;stroke-width:2.0px;stroke-linecap:butt;stroke-linejoin:miter;stroke-opacity:1"/>
<path class="bond-13 atom-13 atom-14" d="M 185.3,75.9 L 200.7,107.1" style="fill:none;fill-rule:evenodd;stroke:#000000;stroke-width:2.0px;stroke-linecap:butt;stroke-linejoin:miter;stroke-opacity:1"/>
<path class="bond-14 atom-14 atom-15" d="M 200.7,107.1 L 216.1,138.2" style="fill:none;fill-rule:evenodd;stroke:#000000;stroke-width:2.0px;stroke-linecap:butt;stroke-linejoin:miter;stroke-opacity:1"/>
<path class="bond-15 atom-14 atom-16" d="M 200.7,107.1 L 169.5,122.5" style="fill:none;fill-rule:evenodd;stroke:#000000;stroke-width:2.0px;stroke-linecap:butt;stroke-linejoin:miter;stroke-opacity:1"/>
<path class="bond-16 atom-16 atom-17" d="M 169.5,122.5 L 168.6,136.7" style="fill:none;fill-rule:evenodd;stroke:#000000;stroke-width:2.0px;stroke-linecap:butt;stroke-linejoin:miter;stroke-opacity:1"/>
<path class="bond-16 atom-16 atom-17" d="M 168.6,136.7 L 167.7,151.0" style="fill:none;fill-rule:evenodd;stroke:#FF0000;stroke-width:2.0px;stroke-linecap:butt;stroke-linejoin:miter;stroke-opacity:1"/>
<path class="bond-17 atom-14 atom-18" d="M 200.7,107.1 L 231.8,91.7" style="fill:none;fill-rule:evenodd;stroke:#000000;stroke-width:2.0px;stroke-linecap:butt;stroke-linejoin:miter;stroke-opacity:1"/>
<path class="bond-18 atom-18 atom-19" d="M 234.3,93.4 L 235.3,78.4" style="fill:none;fill-rule:evenodd;stroke:#000000;stroke-width:2.0px;stroke-linecap:butt;stroke-linejoin:miter;stroke-opacity:1"/>
<path class="bond-18 atom-18 atom-19" d="M 235.3,78.4 L 236.3,63.5" style="fill:none;fill-rule:evenodd;stroke:#FF0000;stroke-width:2.0px;stroke-linecap:butt;stroke-linejoin:miter;stroke-opacity:1"/>
<path class="bond-18 atom-18 atom-19" d="M 229.1,93.0 L 230.1,78.1" style="fill:none;fill-rule:evenodd;stroke:#000000;stroke-width:2.0px;stroke-linecap:butt;stroke-linejoin:miter;stroke-opacity:1"/>
<path class="bond-18 atom-18 atom-19" d="M 230.1,78.1 L 231.1,63.1" style="fill:none;fill-rule:evenodd;stroke:#FF0000;stroke-width:2.0px;stroke-linecap:butt;stroke-linejoin:miter;stroke-opacity:1"/>
<path class="bond-19 atom-18 atom-20" d="M 231.8,91.7 L 243.4,99.4" style="fill:none;fill-rule:evenodd;stroke:#000000;stroke-width:2.0px;stroke-linecap:butt;stroke-linejoin:miter;stroke-opacity:1"/>
<path class="bond-19 atom-18 atom-20" d="M 243.4,99.4 L 255.0,107.2" style="fill:none;fill-rule:evenodd;stroke:#FF0000;stroke-width:2.0px;stroke-linecap:butt;stroke-linejoin:miter;stroke-opacity:1"/>
<path d="M 151.5,38.1 L 152.9,39.0 L 152.8,40.8" style="fill:none;stroke:#000000;stroke-width:2.0px;stroke-linecap:butt;stroke-linejoin:miter;stroke-opacity:1;"/>
<path d="M 117.7,71.6 L 116.0,71.4 L 115.0,72.9" style="fill:none;stroke:#000000;stroke-width:2.0px;stroke-linecap:butt;stroke-linejoin:miter;stroke-opacity:1;"/>
<path d="M 97.7,98.9 L 96.7,100.3 L 95.0,100.2" style="fill:none;stroke:#000000;stroke-width:2.0px;stroke-linecap:butt;stroke-linejoin:miter;stroke-opacity:1;"/>
<path d="M 64.2,65.2 L 64.3,63.4 L 63.7,63.0" style="fill:none;stroke:#000000;stroke-width:2.0px;stroke-linecap:butt;stroke-linejoin:miter;stroke-opacity:1;"/>
<path d="M 59.9,131.0 L 59.8,132.7 L 59.2,133.1" style="fill:none;stroke:#000000;stroke-width:2.0px;stroke-linecap:butt;stroke-linejoin:miter;stroke-opacity:1;"/>
<path d="M 183.6,75.8 L 185.3,75.9 L 186.1,77.5" style="fill:none;stroke:#000000;stroke-width:2.0px;stroke-linecap:butt;stroke-linejoin:miter;stroke-opacity:1;"/>
<path d="M 171.1,121.7 L 169.5,122.5 L 169.5,123.2" style="fill:none;stroke:#000000;stroke-width:2.0px;stroke-linecap:butt;stroke-linejoin:miter;stroke-opacity:1;"/>
<path d="M 230.3,92.5 L 231.8,91.7 L 232.4,92.1" style="fill:none;stroke:#000000;stroke-width:2.0px;stroke-linecap:butt;stroke-linejoin:miter;stroke-opacity:1;"/>
<path class="atom-9" d="M 21.2 39.3 L 22.5 39.3 L 22.5 43.5 L 27.6 43.5 L 27.6 39.3 L 28.9 39.3 L 28.9 49.1 L 27.6 49.1 L 27.6 44.6 L 22.5 44.6 L 22.5 49.1 L 21.2 49.1 L 21.2 39.3 " fill="#FF0000"/>
<path class="atom-9" d="M 30.9 44.2 Q 30.9 41.8, 32.1 40.5 Q 33.2 39.2, 35.4 39.2 Q 37.6 39.2, 38.8 40.5 Q 39.9 41.8, 39.9 44.2 Q 39.9 46.6, 38.8 47.9 Q 37.6 49.3, 35.4 49.3 Q 33.3 49.3, 32.1 47.9 Q 30.9 46.6, 30.9 44.2 M 35.4 48.2 Q 36.9 48.2, 37.7 47.2 Q 38.6 46.2, 38.6 44.2 Q 38.6 42.2, 37.7 41.3 Q 36.9 40.3, 35.4 40.3 Q 33.9 40.3, 33.1 41.3 Q 32.3 42.2, 32.3 44.2 Q 32.3 46.2, 33.1 47.2 Q 33.9 48.2, 35.4 48.2 " fill="#FF0000"/>
<path class="atom-11" d="M 84.2 152.0 Q 84.2 149.7, 85.4 148.4 Q 86.5 147.0, 88.7 147.0 Q 90.9 147.0, 92.0 148.4 Q 93.2 149.7, 93.2 152.0 Q 93.2 154.4, 92.0 155.8 Q 90.9 157.1, 88.7 157.1 Q 86.5 157.1, 85.4 155.8 Q 84.2 154.4, 84.2 152.0 M 88.7 156.0 Q 90.2 156.0, 91.0 155.0 Q 91.8 154.0, 91.8 152.0 Q 91.8 150.1, 91.0 149.1 Q 90.2 148.2, 88.7 148.2 Q 87.2 148.2, 86.4 149.1 Q 85.6 150.1, 85.6 152.0 Q 85.6 154.0, 86.4 155.0 Q 87.2 156.0, 88.7 156.0 " fill="#FF0000"/>
<path class="atom-12" d="M 14.4 143.3 L 15.8 143.3 L 15.8 147.4 L 20.8 147.4 L 20.8 143.3 L 22.1 143.3 L 22.1 153.1 L 20.8 153.1 L 20.8 148.5 L 15.8 148.5 L 15.8 153.1 L 14.4 153.1 L 14.4 143.3 " fill="#FF0000"/>
<path class="atom-12" d="M 24.2 148.1 Q 24.2 145.8, 25.3 144.5 Q 26.5 143.1, 28.7 143.1 Q 30.9 143.1, 32.0 144.5 Q 33.2 145.8, 33.2 148.1 Q 33.2 150.5, 32.0 151.9 Q 30.8 153.2, 28.7 153.2 Q 26.5 153.2, 25.3 151.9 Q 24.2 150.5, 24.2 148.1 M 28.7 152.1 Q 30.2 152.1, 31.0 151.1 Q 31.8 150.1, 31.8 148.1 Q 31.8 146.2, 31.0 145.2 Q 30.2 144.3, 28.7 144.3 Q 27.2 144.3, 26.4 145.2 Q 25.6 146.2, 25.6 148.1 Q 25.6 150.1, 26.4 151.1 Q 27.2 152.1, 28.7 152.1 " fill="#FF0000"/>
<path class="atom-17" d="M 162.8 157.1 Q 162.8 154.8, 164.0 153.5 Q 165.1 152.1, 167.3 152.1 Q 169.5 152.1, 170.6 153.5 Q 171.8 154.8, 171.8 157.1 Q 171.8 159.5, 170.6 160.9 Q 169.5 162.2, 167.3 162.2 Q 165.1 162.2, 164.0 160.9 Q 162.8 159.5, 162.8 157.1 M 167.3 161.1 Q 168.8 161.1, 169.6 160.1 Q 170.4 159.1, 170.4 157.1 Q 170.4 155.2, 169.6 154.2 Q 168.8 153.3, 167.3 153.3 Q 165.8 153.3, 165.0 154.2 Q 164.2 155.2, 164.2 157.1 Q 164.2 159.1, 165.0 160.1 Q 165.8 161.1, 167.3 161.1 " fill="#FF0000"/>
<path class="atom-17" d="M 173.3 152.3 L 174.7 152.3 L 174.7 156.4 L 179.7 156.4 L 179.7 152.3 L 181.0 152.3 L 181.0 162.1 L 179.7 162.1 L 179.7 157.5 L 174.7 157.5 L 174.7 162.1 L 173.3 162.1 L 173.3 152.3 " fill="#FF0000"/>
<path class="atom-19" d="M 229.6 57.1 Q 229.6 54.7, 230.7 53.4 Q 231.9 52.1, 234.1 52.1 Q 236.3 52.1, 237.4 53.4 Q 238.6 54.7, 238.6 57.1 Q 238.6 59.5, 237.4 60.8 Q 236.2 62.2, 234.1 62.2 Q 231.9 62.2, 230.7 60.8 Q 229.6 59.5, 229.6 57.1 M 234.1 61.1 Q 235.6 61.1, 236.4 60.1 Q 237.2 59.0, 237.2 57.1 Q 237.2 55.1, 236.4 54.2 Q 235.6 53.2, 234.1 53.2 Q 232.6 53.2, 231.8 54.2 Q 230.9 55.1, 230.9 57.1 Q 230.9 59.1, 231.8 60.1 Q 232.6 61.1, 234.1 61.1 " fill="#FF0000"/>
<path class="atom-20" d="M 256.2 111.0 Q 256.2 108.6, 257.4 107.3 Q 258.5 106.0, 260.7 106.0 Q 262.9 106.0, 264.1 107.3 Q 265.2 108.6, 265.2 111.0 Q 265.2 113.4, 264.0 114.8 Q 262.9 116.1, 260.7 116.1 Q 258.5 116.1, 257.4 114.8 Q 256.2 113.4, 256.2 111.0 M 260.7 115.0 Q 262.2 115.0, 263.0 114.0 Q 263.8 113.0, 263.8 111.0 Q 263.8 109.1, 263.0 108.1 Q 262.2 107.1, 260.7 107.1 Q 259.2 107.1, 258.4 108.1 Q 257.6 109.1, 257.6 111.0 Q 257.6 113.0, 258.4 114.0 Q 259.2 115.0, 260.7 115.0 " fill="#FF0000"/>
<path class="atom-20" d="M 266.8 106.1 L 268.1 106.1 L 268.1 110.3 L 273.1 110.3 L 273.1 106.1 L 274.4 106.1 L 274.4 115.9 L 273.1 115.9 L 273.1 111.4 L 268.1 111.4 L 268.1 115.9 L 266.8 115.9 L 266.8 106.1 " fill="#FF0000"/>
<path class="legend" d="M 135.9 181.9 Q 135.9 179.6, 136.6 177.7 Q 137.3 175.8, 138.6 173.8 L 139.5 174.4 Q 138.4 176.3, 137.9 178.0 Q 137.4 179.7, 137.4 181.9 Q 137.4 184.0, 137.9 185.8 Q 138.4 187.5, 139.5 189.4 L 138.6 190.0 Q 137.3 188.0, 136.6 186.1 Q 135.9 184.2, 135.9 181.9 " fill="#000000"/>
<path class="legend" d="M 140.4 177.3 Q 140.8 176.2, 141.8 175.6 Q 142.8 175.0, 144.2 175.0 Q 145.9 175.0, 146.8 175.9 Q 147.8 176.8, 147.8 178.5 Q 147.8 180.2, 146.5 181.7 Q 145.3 183.3, 142.8 185.2 L 148.0 185.2 L 148.0 186.4 L 140.4 186.4 L 140.4 185.4 Q 142.5 183.9, 143.7 182.8 Q 145.0 181.6, 145.6 180.6 Q 146.2 179.6, 146.2 178.6 Q 146.2 177.5, 145.6 176.9 Q 145.1 176.3, 144.2 176.3 Q 143.2 176.3, 142.6 176.6 Q 142.0 177.0, 141.6 177.8 L 140.4 177.3 " fill="#000000"/>
<path class="legend" d="M 153.0 181.9 Q 153.0 184.2, 152.3 186.1 Q 151.6 188.0, 150.3 190.0 L 149.4 189.4 Q 150.5 187.5, 151.0 185.8 Q 151.5 184.0, 151.5 181.9 Q 151.5 179.7, 151.0 178.0 Q 150.5 176.3, 149.4 174.4 L 150.3 173.8 Q 151.6 175.8, 152.3 177.7 Q 153.0 179.6, 153.0 181.9 " fill="#000000"/>
</g>
    <g transform="translate(289.0, 0) scale(1 1) "><line x1="5" y1="100" x2="35" y2="100" style="stroke:rgb(0,0,0);stroke-width:2"/>
  <line x1="34" y1="100" x2="29" y2="95" style="stroke:rgb(0,0,0);stroke-width:2"/>
  <line x1="34" y1="100" x2="29" y2="105" style="stroke:rgb(0,0,0);stroke-width:2"/>
</g>
    <g transform="translate(329.0, 0) scale(1 1) "><!-- END OF HEADER -->
<rect style="opacity:1.0;fill:#FFFFFF;stroke:none" width="331.0" height="200.0" x="0.0" y="0.0"> </rect>
<path class="bond-0 atom-0 atom-1" d="M 187.1,47.9 L 211.7,55.9" style="fill:none;fill-rule:evenodd;stroke:#000000;stroke-width:2.0px;stroke-linecap:butt;stroke-linejoin:miter;stroke-opacity:1"/>
<path class="bond-1 atom-1 atom-2" d="M 211.7,55.9 L 217.1,81.1" style="fill:none;fill-rule:evenodd;stroke:#000000;stroke-width:2.0px;stroke-linecap:butt;stroke-linejoin:miter;stroke-opacity:1"/>
<path class="bond-2 atom-2 atom-3" d="M 217.1,81.1 L 222.4,106.4" style="fill:none;fill-rule:evenodd;stroke:#000000;stroke-width:2.0px;stroke-linecap:butt;stroke-linejoin:miter;stroke-opacity:1"/>
<path class="bond-3 atom-2 atom-4" d="M 217.1,81.1 L 191.8,86.5" style="fill:none;fill-rule:evenodd;stroke:#000000;stroke-width:2.0px;stroke-linecap:butt;stroke-linejoin:miter;stroke-opacity:1"/>
<path class="bond-4 atom-4 atom-5" d="M 191.8,86.5 L 183.8,111.1" style="fill:none;fill-rule:evenodd;stroke:#000000;stroke-width:2.0px;stroke-linecap:butt;stroke-linejoin:miter;stroke-opacity:1"/>
<path class="bond-5 atom-5 atom-6" d="M 183.8,111.1 L 158.6,116.5" style="fill:none;fill-rule:evenodd;stroke:#000000;stroke-width:2.0px;stroke-linecap:butt;stroke-linejoin:miter;stroke-opacity:1"/>
<path class="bond-6 atom-6 atom-7" d="M 158.6,116.5 L 133.3,121.8" style="fill:none;fill-rule:evenodd;stroke:#000000;stroke-width:2.0px;stroke-linecap:butt;stroke-linejoin:miter;stroke-opacity:1"/>
<path class="bond-7 atom-6 atom-8" d="M 158.6,116.5 L 164.0,141.7" style="fill:none;fill-rule:evenodd;stroke:#000000;stroke-width:2.0px;stroke-linecap:butt;stroke-linejoin:miter;stroke-opacity:1"/>
<path class="bond-8 atom-8 atom-9" d="M 162.3,143.2 L 173.0,146.7" style="fill:none;fill-rule:evenodd;stroke:#000000;stroke-width:2.0px;stroke-linecap:butt;stroke-linejoin:miter;stroke-opacity:1"/>
<path class="bond-8 atom-8 atom-9" d="M 173.0,146.7 L 183.7,150.1" style="fill:none;fill-rule:evenodd;stroke:#FF0000;stroke-width:2.0px;stroke-linecap:butt;stroke-linejoin:miter;stroke-opacity:1"/>
<path class="bond-8 atom-8 atom-9" d="M 163.5,139.5 L 174.2,143.0" style="fill:none;fill-rule:evenodd;stroke:#000000;stroke-width:2.0px;stroke-linecap:butt;stroke-linejoin:miter;stroke-opacity:1"/>
<path class="bond-8 atom-8 atom-9" d="M 174.2,143.0 L 184.9,146.5" style="fill:none;fill-rule:evenodd;stroke:#FF0000;stroke-width:2.0px;stroke-linecap:butt;stroke-linejoin:miter;stroke-opacity:1"/>
<path class="bond-9 atom-8 atom-10" d="M 164.0,141.7 L 156.5,148.5" style="fill:none;fill-rule:evenodd;stroke:#000000;stroke-width:2.0px;stroke-linecap:butt;stroke-linejoin:miter;stroke-opacity:1"/>
<path class="bond-9 atom-8 atom-10" d="M 156.5,148.5 L 149.0,155.2" style="fill:none;fill-rule:evenodd;stroke:#FF0000;stroke-width:2.0px;stroke-linecap:butt;stroke-linejoin:miter;stroke-opacity:1"/>
<path class="bond-10 atom-6 atom-11" d="M 158.6,116.5 L 153.2,91.2" style="fill:none;fill-rule:evenodd;stroke:#000000;stroke-width:2.0px;stroke-linecap:butt;stroke-linejoin:miter;stroke-opacity:1"/>
<path class="bond-11 atom-11 atom-12" d="M 153.2,91.2 L 160.7,84.5" style="fill:none;fill-rule:evenodd;stroke:#000000;stroke-width:2.0px;stroke-linecap:butt;stroke-linejoin:miter;stroke-opacity:1"/>
<path class="bond-11 atom-11 atom-12" d="M 160.7,84.5 L 168.2,77.7" style="fill:none;fill-rule:evenodd;stroke:#FF0000;stroke-width:2.0px;stroke-linecap:butt;stroke-linejoin:miter;stroke-opacity:1"/>
<path class="bond-12 atom-11 atom-13" d="M 153.2,91.2 L 128.6,83.2" style="fill:none;fill-rule:evenodd;stroke:#000000;stroke-width:2.0px;stroke-linecap:butt;stroke-linejoin:miter;stroke-opacity:1"/>
<path class="bond-13 atom-13 atom-14" d="M 128.6,83.2 L 136.6,58.7" style="fill:none;fill-rule:evenodd;stroke:#000000;stroke-width:2.0px;stroke-linecap:butt;stroke-linejoin:miter;stroke-opacity:1"/>
<path class="bond-14 atom-13 atom-15" d="M 128.6,83.2 L 120.7,107.8" style="fill:none;fill-rule:evenodd;stroke:#000000;stroke-width:2.0px;stroke-linecap:butt;stroke-linejoin:miter;stroke-opacity:1"/>
<path class="bond-15 atom-15 atom-16" d="M 120.7,107.8 L 95.4,113.2" style="fill:none;fill-rule:evenodd;stroke:#000000;stroke-width:2.0px;stroke-linecap:butt;stroke-linejoin:miter;stroke-opacity:1"/>
<path class="bond-16 atom-13 atom-17" d="M 128.6,83.2 L 104.1,75.3" style="fill:none;fill-rule:evenodd;stroke:#000000;stroke-width:2.0px;stroke-linecap:butt;stroke-linejoin:miter;stroke-opacity:1"/>
<path class="bond-17 atom-17 atom-18" d="M 104.1,75.3 L 84.9,92.6" style="fill:none;fill-rule:evenodd;stroke:#000000;stroke-width:2.0px;stroke-linecap:butt;stroke-linejoin:miter;stroke-opacity:1"/>
<path class="bond-18 atom-18 atom-19" d="M 84.9,92.6 L 60.3,84.6" style="fill:none;fill-rule:evenodd;stroke:#000000;stroke-width:2.0px;stroke-linecap:butt;stroke-linejoin:miter;stroke-opacity:1"/>
<path class="bond-19 atom-19 atom-20" d="M 60.3,84.6 L 35.8,76.7" style="fill:none;fill-rule:evenodd;stroke:#000000;stroke-width:2.0px;stroke-linecap:butt;stroke-linejoin:miter;stroke-opacity:1"/>
<path class="bond-20 atom-19 atom-21" d="M 60.3,84.6 L 68.3,60.1" style="fill:none;fill-rule:evenodd;stroke:#000000;stroke-width:2.0px;stroke-linecap:butt;stroke-linejoin:miter;stroke-opacity:1"/>
<path class="bond-21 atom-21 atom-22" d="M 68.3,60.1 L 61.7,52.8" style="fill:none;fill-rule:evenodd;stroke:#000000;stroke-width:2.0px;stroke-linecap:butt;stroke-linejoin:miter;stroke-opacity:1"/>
<path class="bond-21 atom-21 atom-22" d="M 61.7,52.8 L 55.2,45.6" style="fill:none;fill-rule:evenodd;stroke:#FF0000;stroke-width:2.0px;stroke-linecap:butt;stroke-linejoin:miter;stroke-opacity:1"/>
<path class="bond-22 atom-19 atom-23" d="M 60.3,84.6 L 52.4,109.2" style="fill:none;fill-rule:evenodd;stroke:#000000;stroke-width:2.0px;stroke-linecap:butt;stroke-linejoin:miter;stroke-opacity:1"/>
<path class="bond-23 atom-23 atom-24" d="M 50.2,109.7 L 57.2,117.4" style="fill:none;fill-rule:evenodd;stroke:#000000;stroke-width:2.0px;stroke-linecap:butt;stroke-linejoin:miter;stroke-opacity:1"/>
<path class="bond-23 atom-23 atom-24" d="M 57.2,117.4 L 64.1,125.1" style="fill:none;fill-rule:evenodd;stroke:#FF0000;stroke-width:2.0px;stroke-linecap:butt;stroke-linejoin:miter;stroke-opacity:1"/>
<path class="bond-23 atom-23 atom-24" d="M 53.1,107.1 L 60.0,114.8" style="fill:none;fill-rule:evenodd;stroke:#000000;stroke-width:2.0px;stroke-linecap:butt;stroke-linejoin:miter;stroke-opacity:1"/>
<path class="bond-23 atom-23 atom-24" d="M 60.0,114.8 L 67.0,122.5" style="fill:none;fill-rule:evenodd;stroke:#FF0000;stroke-width:2.0px;stroke-linecap:butt;stroke-linejoin:miter;stroke-opacity:1"/>
<path class="bond-24 atom-23 atom-25" d="M 52.4,109.2 L 41.9,111.4" style="fill:none;fill-rule:evenodd;stroke:#000000;stroke-width:2.0px;stroke-linecap:butt;stroke-linejoin:miter;stroke-opacity:1"/>
<path class="bond-24 atom-23 atom-25" d="M 41.9,111.4 L 31.3,113.7" style="fill:none;fill-rule:evenodd;stroke:#FF0000;stroke-width:2.0px;stroke-linecap:butt;stroke-linejoin:miter;stroke-opacity:1"/>
<path class="bond-25 atom-2 atom-26" d="M 217.1,81.1 L 242.3,75.7" style="fill:none;fill-rule:evenodd;stroke:#000000;stroke-width:2.0px;stroke-linecap:butt;stroke-linejoin:miter;stroke-opacity:1"/>
<path class="bond-26 atom-26 atom-27" d="M 242.3,75.7 L 259.6,94.9" style="fill:none;fill-rule:evenodd;stroke:#000000;stroke-width:2.0px;stroke-linecap:butt;stroke-linejoin:miter;stroke-opacity:1"/>
<path class="bond-27 atom-27 atom-28" d="M 259.6,94.9 L 276.9,114.1" style="fill:none;fill-rule:evenodd;stroke:#000000;stroke-width:2.0px;stroke-linecap:butt;stroke-linejoin:miter;stroke-opacity:1"/>
<path class="bond-28 atom-27 atom-29" d="M 259.6,94.9 L 240.4,112.2" style="fill:none;fill-rule:evenodd;stroke:#000000;stroke-width:2.0px;stroke-linecap:butt;stroke-linejoin:miter;stroke-opacity:1"/>
<path class="bond-29 atom-29 atom-30" d="M 240.4,112.2 L 242.6,122.5" style="fill:none;fill-rule:evenodd;stroke:#000000;stroke-width:2.0px;stroke-linecap:butt;stroke-linejoin:miter;stroke-opacity:1"/>
<path class="bond-29 atom-29 atom-30" d="M 242.6,122.5 L 244.8,132.9" style="fill:none;fill-rule:evenodd;stroke:#FF0000;stroke-width:2.0px;stroke-linecap:butt;stroke-linejoin:miter;stroke-opacity:1"/>
<path class="bond-30 atom-27 atom-31" d="M 259.6,94.9 L 278.8,77.6" style="fill:none;fill-rule:evenodd;stroke:#000000;stroke-width:2.0px;stroke-linecap:butt;stroke-linejoin:miter;stroke-opacity:1"/>
<path class="bond-31 atom-31 atom-32" d="M 280.9,78.3 L 278.6,67.4" style="fill:none;fill-rule:evenodd;stroke:#000000;stroke-width:2.0px;stroke-linecap:butt;stroke-linejoin:miter;stroke-opacity:1"/>
<path class="bond-31 atom-31 atom-32" d="M 278.6,67.4 L 276.3,56.6" style="fill:none;fill-rule:evenodd;stroke:#FF0000;stroke-width:2.0px;stroke-linecap:butt;stroke-linejoin:miter;stroke-opacity:1"/>
<path class="bond-31 atom-31 atom-32" d="M 277.1,79.1 L 274.8,68.2" style="fill:none;fill-rule:evenodd;stroke:#000000;stroke-width:2.0px;stroke-linecap:butt;stroke-linejoin:miter;stroke-opacity:1"/>
<path class="bond-31 atom-31 atom-32" d="M 274.8,68.2 L 272.5,57.4" style="fill:none;fill-rule:evenodd;stroke:#FF0000;stroke-width:2.0px;stroke-linecap:butt;stroke-linejoin:miter;stroke-opacity:1"/>
<path class="bond-32 atom-31 atom-33" d="M 278.8,77.6 L 288.9,80.9" style="fill:none;fill-rule:evenodd;stroke:#000000;stroke-width:2.0px;stroke-linecap:butt;stroke-linejoin:miter;stroke-opacity:1"/>
<path class="bond-32 atom-31 atom-33" d="M 288.9,80.9 L 299.1,84.2" style="fill:none;fill-rule:evenodd;stroke:#FF0000;stroke-width:2.0px;stroke-linecap:butt;stroke-linejoin:miter;stroke-opacity:1"/>
<path d="M 210.4,55.5 L 211.7,55.9 L 211.9,57.1" style="fill:none;stroke:#000000;stroke-width:2.0px;stroke-linecap:butt;stroke-linejoin:miter;stroke-opacity:1;"/>
<path d="M 193.1,86.2 L 191.8,86.5 L 191.4,87.7" style="fill:none;stroke:#000000;stroke-width:2.0px;stroke-linecap:butt;stroke-linejoin:miter;stroke-opacity:1;"/>
<path d="M 184.2,109.8 L 183.8,111.1 L 182.6,111.3" style="fill:none;stroke:#000000;stroke-width:2.0px;stroke-linecap:butt;stroke-linejoin:miter;stroke-opacity:1;"/>
<path d="M 163.7,140.4 L 164.0,141.7 L 163.6,142.0" style="fill:none;stroke:#000000;stroke-width:2.0px;stroke-linecap:butt;stroke-linejoin:miter;stroke-opacity:1;"/>
<path d="M 121.1,106.6 L 120.7,107.8 L 119.4,108.1" style="fill:none;stroke:#000000;stroke-width:2.0px;stroke-linecap:butt;stroke-linejoin:miter;stroke-opacity:1;"/>
<path d="M 105.3,75.7 L 104.1,75.3 L 103.1,76.2" style="fill:none;stroke:#000000;stroke-width:2.0px;stroke-linecap:butt;stroke-linejoin:miter;stroke-opacity:1;"/>
<path d="M 85.9,91.7 L 84.9,92.6 L 83.7,92.2" style="fill:none;stroke:#000000;stroke-width:2.0px;stroke-linecap:butt;stroke-linejoin:miter;stroke-opacity:1;"/>
<path d="M 67.9,61.3 L 68.3,60.1 L 68.0,59.7" style="fill:none;stroke:#000000;stroke-width:2.0px;stroke-linecap:butt;stroke-linejoin:miter;stroke-opacity:1;"/>
<path d="M 52.8,108.0 L 52.4,109.2 L 51.9,109.3" style="fill:none;stroke:#000000;stroke-width:2.0px;stroke-linecap:butt;stroke-linejoin:miter;stroke-opacity:1;"/>
<path d="M 241.0,76.0 L 242.3,75.7 L 243.2,76.7" style="fill:none;stroke:#000000;stroke-width:2.0px;stroke-linecap:butt;stroke-linejoin:miter;stroke-opacity:1;"/>
<path d="M 241.4,111.3 L 240.4,112.2 L 240.5,112.7" style="fill:none;stroke:#000000;stroke-width:2.0px;stroke-linecap:butt;stroke-linejoin:miter;stroke-opacity:1;"/>
<path d="M 277.8,78.5 L 278.8,77.6 L 279.3,77.8" style="fill:none;stroke:#000000;stroke-width:2.0px;stroke-linecap:butt;stroke-linejoin:miter;stroke-opacity:1;"/>
<path class="atom-9" d="M 185.2 149.7 Q 185.2 147.9, 186.1 146.9 Q 186.9 146.0, 188.5 146.0 Q 190.2 146.0, 191.0 146.9 Q 191.9 147.9, 191.9 149.7 Q 191.9 151.5, 191.0 152.5 Q 190.1 153.5, 188.5 153.5 Q 186.9 153.5, 186.1 152.5 Q 185.2 151.5, 185.2 149.7 M 188.5 152.6 Q 189.7 152.6, 190.3 151.9 Q 190.9 151.1, 190.9 149.7 Q 190.9 148.2, 190.3 147.5 Q 189.7 146.8, 188.5 146.8 Q 187.4 146.8, 186.8 147.5 Q 186.2 148.2, 186.2 149.7 Q 186.2 151.2, 186.8 151.9 Q 187.4 152.6, 188.5 152.6 " fill="#FF0000"/>
<path class="atom-10" d="M 134.2 155.4 L 135.2 155.4 L 135.2 158.5 L 139.0 158.5 L 139.0 155.4 L 140.0 155.4 L 140.0 162.7 L 139.0 162.7 L 139.0 159.3 L 135.2 159.3 L 135.2 162.7 L 134.2 162.7 L 134.2 155.4 " fill="#FF0000"/>
<path class="atom-10" d="M 141.5 159.0 Q 141.5 157.3, 142.3 156.3 Q 143.2 155.3, 144.8 155.3 Q 146.4 155.3, 147.3 156.3 Q 148.2 157.3, 148.2 159.0 Q 148.2 160.8, 147.3 161.8 Q 146.4 162.8, 144.8 162.8 Q 143.2 162.8, 142.3 161.8 Q 141.5 160.8, 141.5 159.0 M 144.8 162.0 Q 145.9 162.0, 146.5 161.2 Q 147.1 160.5, 147.1 159.0 Q 147.1 157.6, 146.5 156.9 Q 145.9 156.1, 144.8 156.1 Q 143.7 156.1, 143.1 156.8 Q 142.5 157.6, 142.5 159.0 Q 142.5 160.5, 143.1 161.2 Q 143.7 162.0, 144.8 162.0 " fill="#FF0000"/>
<path class="atom-12" d="M 169.0 73.9 Q 169.0 72.2, 169.9 71.2 Q 170.8 70.2, 172.4 70.2 Q 174.0 70.2, 174.9 71.2 Q 175.7 72.2, 175.7 73.9 Q 175.7 75.7, 174.9 76.7 Q 174.0 77.7, 172.4 77.7 Q 170.8 77.7, 169.9 76.7 Q 169.0 75.7, 169.0 73.9 M 172.4 76.9 Q 173.5 76.9, 174.1 76.1 Q 174.7 75.4, 174.7 73.9 Q 174.7 72.5, 174.1 71.8 Q 173.5 71.0, 172.4 71.0 Q 171.3 71.0, 170.6 71.8 Q 170.0 72.5, 170.0 73.9 Q 170.0 75.4, 170.6 76.1 Q 171.3 76.9, 172.4 76.9 " fill="#FF0000"/>
<path class="atom-12" d="M 176.9 70.3 L 177.9 70.3 L 177.9 73.4 L 181.6 73.4 L 181.6 70.3 L 182.6 70.3 L 182.6 77.6 L 181.6 77.6 L 181.6 74.2 L 177.9 74.2 L 177.9 77.6 L 176.9 77.6 L 176.9 70.3 " fill="#FF0000"/>
<path class="atom-22" d="M 40.4 37.3 L 41.4 37.3 L 41.4 40.4 L 45.1 40.4 L 45.1 37.3 L 46.1 37.3 L 46.1 44.6 L 45.1 44.6 L 45.1 41.2 L 41.4 41.2 L 41.4 44.6 L 40.4 44.6 L 40.4 37.3 " fill="#FF0000"/>
<path class="atom-22" d="M 47.6 40.9 Q 47.6 39.2, 48.5 38.2 Q 49.4 37.2, 51.0 37.2 Q 52.6 37.2, 53.5 38.2 Q 54.4 39.2, 54.4 40.9 Q 54.4 42.7, 53.5 43.7 Q 52.6 44.7, 51.0 44.7 Q 49.4 44.7, 48.5 43.7 Q 47.6 42.7, 47.6 40.9 M 51.0 43.9 Q 52.1 43.9, 52.7 43.1 Q 53.3 42.4, 53.3 40.9 Q 53.3 39.5, 52.7 38.8 Q 52.1 38.0, 51.0 38.0 Q 49.9 38.0, 49.3 38.7 Q 48.7 39.5, 48.7 40.9 Q 48.7 42.4, 49.3 43.1 Q 49.9 43.9, 51.0 43.9 " fill="#FF0000"/>
<path class="atom-24" d="M 66.3 128.4 Q 66.3 126.6, 67.2 125.6 Q 68.1 124.7, 69.7 124.7 Q 71.3 124.7, 72.2 125.6 Q 73.0 126.6, 73.0 128.4 Q 73.0 130.2, 72.2 131.2 Q 71.3 132.2, 69.7 132.2 Q 68.1 132.2, 67.2 131.2 Q 66.3 130.2, 66.3 128.4 M 69.7 131.3 Q 70.8 131.3, 71.4 130.6 Q 72.0 129.8, 72.0 128.4 Q 72.0 126.9, 71.4 126.2 Q 70.8 125.5, 69.7 125.5 Q 68.6 125.5, 67.9 126.2 Q 67.4 126.9, 67.4 128.4 Q 67.4 129.9, 67.9 130.6 Q 68.6 131.3, 69.7 131.3 " fill="#FF0000"/>
<path class="atom-25" d="M 16.6 111.0 L 17.5 111.0 L 17.5 114.1 L 21.3 114.1 L 21.3 111.0 L 22.3 111.0 L 22.3 118.3 L 21.3 118.3 L 21.3 114.9 L 17.5 114.9 L 17.5 118.3 L 16.6 118.3 L 16.6 111.0 " fill="#FF0000"/>
<path class="atom-25" d="M 23.8 114.6 Q 23.8 112.8, 24.6 111.9 Q 25.5 110.9, 27.1 110.9 Q 28.7 110.9, 29.6 111.9 Q 30.5 112.8, 30.5 114.6 Q 30.5 116.4, 29.6 117.4 Q 28.7 118.4, 27.1 118.4 Q 25.5 118.4, 24.6 117.4 Q 23.8 116.4, 23.8 114.6 M 27.1 117.6 Q 28.2 117.6, 28.8 116.8 Q 29.5 116.1, 29.5 114.6 Q 29.5 113.2, 28.8 112.4 Q 28.2 111.7, 27.1 111.7 Q 26.0 111.7, 25.4 112.4 Q 24.8 113.2, 24.8 114.6 Q 24.8 116.1, 25.4 116.8 Q 26.0 117.6, 27.1 117.6 " fill="#FF0000"/>
<path class="atom-30" d="M 242.5 137.5 Q 242.5 135.7, 243.3 134.7 Q 244.2 133.7, 245.8 133.7 Q 247.4 133.7, 248.3 134.7 Q 249.2 135.7, 249.2 137.5 Q 249.2 139.2, 248.3 140.2 Q 247.4 141.2, 245.8 141.2 Q 244.2 141.2, 243.3 140.2 Q 242.5 139.2, 242.5 137.5 M 245.8 140.4 Q 246.9 140.4, 247.5 139.7 Q 248.1 138.9, 248.1 137.5 Q 248.1 136.0, 247.5 135.3 Q 246.9 134.6, 245.8 134.6 Q 244.7 134.6, 244.1 135.3 Q 243.5 136.0, 243.5 137.5 Q 243.5 138.9, 244.1 139.7 Q 244.7 140.4, 245.8 140.4 " fill="#FF0000"/>
<path class="atom-30" d="M 250.3 133.8 L 251.3 133.8 L 251.3 136.9 L 255.0 136.9 L 255.0 133.8 L 256.0 133.8 L 256.0 141.1 L 255.0 141.1 L 255.0 137.8 L 251.3 137.8 L 251.3 141.1 L 250.3 141.1 L 250.3 133.8 " fill="#FF0000"/>
<path class="atom-32" d="M 270.0 52.4 Q 270.0 50.6, 270.9 49.6 Q 271.8 48.6, 273.4 48.6 Q 275.0 48.6, 275.9 49.6 Q 276.7 50.6, 276.7 52.4 Q 276.7 54.1, 275.9 55.1 Q 275.0 56.1, 273.4 56.1 Q 271.8 56.1, 270.9 55.1 Q 270.0 54.1, 270.0 52.4 M 273.4 55.3 Q 274.5 55.3, 275.1 54.6 Q 275.7 53.8, 275.7 52.4 Q 275.7 50.9, 275.1 50.2 Q 274.5 49.5, 273.4 49.5 Q 272.3 49.5, 271.7 50.2 Q 271.1 50.9, 271.1 52.4 Q 271.1 53.8, 271.7 54.6 Q 272.3 55.3, 273.4 55.3 " fill="#FF0000"/>
<path class="atom-33" d="M 300.0 85.6 Q 300.0 83.8, 300.8 82.8 Q 301.7 81.8, 303.3 81.8 Q 305.0 81.8, 305.8 82.8 Q 306.7 83.8, 306.7 85.6 Q 306.7 87.3, 305.8 88.4 Q 304.9 89.4, 303.3 89.4 Q 301.7 89.4, 300.8 88.4 Q 300.0 87.4, 300.0 85.6 M 303.3 88.5 Q 304.4 88.5, 305.0 87.8 Q 305.7 87.0, 305.7 85.6 Q 305.7 84.1, 305.0 83.4 Q 304.4 82.7, 303.3 82.7 Q 302.2 82.7, 301.6 83.4 Q 301.0 84.1, 301.0 85.6 Q 301.0 87.0, 301.6 87.8 Q 302.2 88.5, 303.3 88.5 " fill="#FF0000"/>
<path class="atom-33" d="M 307.8 81.9 L 308.8 81.9 L 308.8 85.0 L 312.6 85.0 L 312.6 81.9 L 313.6 81.9 L 313.6 89.2 L 312.6 89.2 L 312.6 85.9 L 308.8 85.9 L 308.8 89.2 L 307.8 89.2 L 307.8 81.9 " fill="#FF0000"/>
</g>
    <g transform="translate(660.0, 0) scale(1 1) "><line x1="15" y1="100" x2="25" y2="100" style="stroke:rgb(0,0,0);stroke-width:2"/>
  <line x1="20" y1="95" x2="20" y2="105" style="stroke:rgb(0,0,0);stroke-width:2"/>
</g>
    <g transform="translate(700.0, 0) scale(1 1) "><!-- END OF HEADER -->
<rect style="opacity:1.0;fill:#FFFFFF;stroke:none" width="205.0" height="200.0" x="0.0" y="0.0"> </rect>
<path class="bond-0 atom-0 atom-1" d="M 122.6,44.3 L 108.8,89.2" style="fill:none;fill-rule:evenodd;stroke:#000000;stroke-width:2.0px;stroke-linecap:butt;stroke-linejoin:miter;stroke-opacity:1"/>
<path class="bond-1 atom-1 atom-2" d="M 108.8,89.2 L 95.0,134.1" style="fill:none;fill-rule:evenodd;stroke:#000000;stroke-width:2.0px;stroke-linecap:butt;stroke-linejoin:miter;stroke-opacity:1"/>
<path class="bond-2 atom-1 atom-3" d="M 108.8,89.2 L 63.9,75.4" style="fill:none;fill-rule:evenodd;stroke:#000000;stroke-width:2.0px;stroke-linecap:butt;stroke-linejoin:miter;stroke-opacity:1"/>
<path class="bond-3 atom-3 atom-4" d="M 63.9,75.4 L 50.5,87.9" style="fill:none;fill-rule:evenodd;stroke:#000000;stroke-width:2.0px;stroke-linecap:butt;stroke-linejoin:miter;stroke-opacity:1"/>
<path class="bond-3 atom-3 atom-4" d="M 50.5,87.9 L 37.2,100.3" style="fill:none;fill-rule:evenodd;stroke:#FF0000;stroke-width:2.0px;stroke-linecap:butt;stroke-linejoin:miter;stroke-opacity:1"/>
<path class="bond-4 atom-1 atom-5" d="M 108.8,89.2 L 153.7,103.0" style="fill:none;fill-rule:evenodd;stroke:#000000;stroke-width:2.0px;stroke-linecap:butt;stroke-linejoin:miter;stroke-opacity:1"/>
<path class="bond-5 atom-5 atom-6" d="M 154.7,107.0 L 168.8,93.8" style="fill:none;fill-rule:evenodd;stroke:#000000;stroke-width:2.0px;stroke-linecap:butt;stroke-linejoin:miter;stroke-opacity:1"/>
<path class="bond-5 atom-5 atom-6" d="M 168.8,93.8 L 182.9,80.7" style="fill:none;fill-rule:evenodd;stroke:#FF0000;stroke-width:2.0px;stroke-linecap:butt;stroke-linejoin:miter;stroke-opacity:1"/>
<path class="bond-5 atom-5 atom-6" d="M 149.9,101.8 L 164.0,88.7" style="fill:none;fill-rule:evenodd;stroke:#000000;stroke-width:2.0px;stroke-linecap:butt;stroke-linejoin:miter;stroke-opacity:1"/>
<path class="bond-5 atom-5 atom-6" d="M 164.0,88.7 L 178.1,75.5" style="fill:none;fill-rule:evenodd;stroke:#FF0000;stroke-width:2.0px;stroke-linecap:butt;stroke-linejoin:miter;stroke-opacity:1"/>
<path class="bond-6 atom-5 atom-7" d="M 153.7,103.0 L 158.0,121.7" style="fill:none;fill-rule:evenodd;stroke:#000000;stroke-width:2.0px;stroke-linecap:butt;stroke-linejoin:miter;stroke-opacity:1"/>
<path class="bond-6 atom-5 atom-7" d="M 158.0,121.7 L 162.4,140.5" style="fill:none;fill-rule:evenodd;stroke:#FF0000;stroke-width:2.0px;stroke-linecap:butt;stroke-linejoin:miter;stroke-opacity:1"/>
<path d="M 66.1,76.1 L 63.9,75.4 L 63.2,76.0" style="fill:none;stroke:#000000;stroke-width:2.0px;stroke-linecap:butt;stroke-linejoin:miter;stroke-opacity:1;"/>
<path d="M 151.5,102.3 L 153.7,103.0 L 154.0,103.9" style="fill:none;stroke:#000000;stroke-width:2.0px;stroke-linecap:butt;stroke-linejoin:miter;stroke-opacity:1;"/>
<path class="atom-4" d="M 10.2 100.8 L 12.1 100.8 L 12.1 106.5 L 18.9 106.5 L 18.9 100.8 L 20.7 100.8 L 20.7 114.1 L 18.9 114.1 L 18.9 108.0 L 12.1 108.0 L 12.1 114.1 L 10.2 114.1 L 10.2 100.8 " fill="#FF0000"/>
<path class="atom-4" d="M 23.4 107.5 Q 23.4 104.3, 25.0 102.5 Q 26.5 100.7, 29.5 100.7 Q 32.5 100.7, 34.0 102.5 Q 35.6 104.3, 35.6 107.5 Q 35.6 110.7, 34.0 112.5 Q 32.4 114.4, 29.5 114.4 Q 26.6 114.4, 25.0 112.5 Q 23.4 110.7, 23.4 107.5 M 29.5 112.9 Q 31.5 112.9, 32.6 111.5 Q 33.7 110.1, 33.7 107.5 Q 33.7 104.8, 32.6 103.5 Q 31.5 102.2, 29.5 102.2 Q 27.5 102.2, 26.4 103.5 Q 25.3 104.8, 25.3 107.5 Q 25.3 110.1, 26.4 111.5 Q 27.5 112.9, 29.5 112.9 " fill="#FF0000"/>
<path class="atom-6" d="M 182.0 71.0 Q 182.0 67.8, 183.6 66.0 Q 185.2 64.3, 188.1 64.3 Q 191.1 64.3, 192.7 66.0 Q 194.3 67.8, 194.3 71.0 Q 194.3 74.3, 192.7 76.1 Q 191.1 77.9, 188.1 77.9 Q 185.2 77.9, 183.6 76.1 Q 182.0 74.3, 182.0 71.0 M 188.1 76.4 Q 190.2 76.4, 191.3 75.1 Q 192.4 73.7, 192.4 71.0 Q 192.4 68.4, 191.3 67.1 Q 190.2 65.8, 188.1 65.8 Q 186.1 65.8, 185.0 67.1 Q 183.9 68.4, 183.9 71.0 Q 183.9 73.7, 185.0 75.1 Q 186.1 76.4, 188.1 76.4 " fill="#FF0000"/>
<path class="atom-7" d="M 158.2 148.8 Q 158.2 145.6, 159.7 143.8 Q 161.3 142.1, 164.3 142.1 Q 167.2 142.1, 168.8 143.8 Q 170.4 145.6, 170.4 148.8 Q 170.4 152.1, 168.8 153.9 Q 167.2 155.7, 164.3 155.7 Q 161.3 155.7, 159.7 153.9 Q 158.2 152.1, 158.2 148.8 M 164.3 154.2 Q 166.3 154.2, 167.4 152.9 Q 168.5 151.5, 168.5 148.8 Q 168.5 146.2, 167.4 144.9 Q 166.3 143.6, 164.3 143.6 Q 162.2 143.6, 161.1 144.9 Q 160.0 146.2, 160.0 148.8 Q 160.0 151.5, 161.1 152.9 Q 162.2 154.2, 164.3 154.2 " fill="#FF0000"/>
<path class="atom-7" d="M 172.4 142.2 L 174.2 142.2 L 174.2 147.9 L 181.0 147.9 L 181.0 142.2 L 182.9 142.2 L 182.9 155.5 L 181.0 155.5 L 181.0 149.4 L 174.2 149.4 L 174.2 155.5 L 172.4 155.5 L 172.4 142.2 " fill="#FF0000"/>
</g>
  </g>
</svg>
