<?xml version='1.0' encoding='ASCII' standalone='yes'?>
<svg xmlns="http://www.w3.org/2000/svg" xmlns:xlink="http://www.w3.org/1999/xlink" version="1.1" width="784.0px" viewBox="0 0 784.0 200.0" height="200.0px">
  <g>
    <g transform="translate(0, 0) scale(1 1) "><!-- END OF HEADER -->
<rect style="opacity:1.0;fill:#FFFFFF;stroke:none" width="247.0" height="200.0" x="0.0" y="0.0"> </rect>
<path class="bond-0 atom-0 atom-1" d="M 198.2,138.5 L 195.6,124.4" style="fill:none;fill-rule:evenodd;stroke:#FF0000;stroke-width:2.0px;stroke-linecap:butt;stroke-linejoin:miter;stroke-opacity:1"/>
<path class="bond-0 atom-0 atom-1" d="M 195.6,124.4 L 193.1,110.2" style="fill:none;fill-rule:evenodd;stroke:#000000;stroke-width:2.0px;stroke-linecap:butt;stroke-linejoin:miter;stroke-opacity:1"/>
<path class="bond-0 atom-0 atom-1" d="M 203.1,137.6 L 200.5,123.5" style="fill:none;fill-rule:evenodd;stroke:#FF0000;stroke-width:2.0px;stroke-linecap:butt;stroke-linejoin:miter;stroke-opacity:1"/>
<path class="bond-0 atom-0 atom-1" d="M 200.5,123.5 L 198.0,109.4" style="fill:none;fill-rule:evenodd;stroke:#000000;stroke-width:2.0px;stroke-linecap:butt;stroke-linejoin:miter;stroke-opacity:1"/>
<path class="bond-1 atom-1 atom-2" d="M 195.8,111.2 L 205.8,102.8" style="fill:none;fill-rule:evenodd;stroke:#000000;stroke-width:2.0px;stroke-linecap:butt;stroke-linejoin:miter;stroke-opacity:1"/>
<path class="bond-1 atom-1 atom-2" d="M 205.8,102.8 L 215.8,94.4" style="fill:none;fill-rule:evenodd;stroke:#FF0000;stroke-width:2.0px;stroke-linecap:butt;stroke-linejoin:miter;stroke-opacity:1"/>
<path class="bond-2 atom-1 atom-3" d="M 195.8,111.2 L 164.6,99.9" style="fill:none;fill-rule:evenodd;stroke:#000000;stroke-width:2.0px;stroke-linecap:butt;stroke-linejoin:miter;stroke-opacity:1"/>
<path class="bond-3 atom-3 atom-4" d="M 164.6,99.9 L 139.2,121.3" style="fill:none;fill-rule:evenodd;stroke:#000000;stroke-width:2.0px;stroke-linecap:butt;stroke-linejoin:miter;stroke-opacity:1"/>
<path class="bond-3 atom-3 atom-4" d="M 165.6,105.6 L 142.4,125.1" style="fill:none;fill-rule:evenodd;stroke:#000000;stroke-width:2.0px;stroke-linecap:butt;stroke-linejoin:miter;stroke-opacity:1"/>
<path class="bond-4 atom-4 atom-5" d="M 139.2,121.3 L 108.0,110.0" style="fill:none;fill-rule:evenodd;stroke:#000000;stroke-width:2.0px;stroke-linecap:butt;stroke-linejoin:miter;stroke-opacity:1"/>
<path class="bond-5 atom-5 atom-6" d="M 108.0,110.0 L 82.6,131.4" style="fill:none;fill-rule:evenodd;stroke:#000000;stroke-width:2.0px;stroke-linecap:butt;stroke-linejoin:miter;stroke-opacity:1"/>
<path class="bond-5 atom-5 atom-6" d="M 102.6,108.1 L 81.6,125.8" style="fill:none;fill-rule:evenodd;stroke:#000000;stroke-width:2.0px;stroke-linecap:butt;stroke-linejoin:miter;stroke-opacity:1"/>
<path class="bond-6 atom-6 atom-7" d="M 82.6,131.4 L 51.3,120.1" style="fill:none;fill-rule:evenodd;stroke:#000000;stroke-width:2.0px;stroke-linecap:butt;stroke-linejoin:miter;stroke-opacity:1"/>
<path class="bond-7 atom-7 atom-8" d="M 54.1,121.1 L 51.5,107.1" style="fill:none;fill-rule:evenodd;stroke:#000000;stroke-width:2.0px;stroke-linecap:butt;stroke-linejoin:miter;stroke-opacity:1"/>
<path class="bond-7 atom-7 atom-8" d="M 51.5,107.1 L 49.0,93.0" style="fill:none;fill-rule:evenodd;stroke:#FF0000;stroke-width:2.0px;stroke-linecap:butt;stroke-linejoin:miter;stroke-opacity:1"/>
<path class="bond-7 atom-7 atom-8" d="M 49.1,122.0 L 46.6,107.9" style="fill:none;fill-rule:evenodd;stroke:#000000;stroke-width:2.0px;stroke-linecap:butt;stroke-linejoin:miter;stroke-opacity:1"/>
<path class="bond-7 atom-7 atom-8" d="M 46.6,107.9 L 44.1,93.9" style="fill:none;fill-rule:evenodd;stroke:#FF0000;stroke-width:2.0px;stroke-linecap:butt;stroke-linejoin:miter;stroke-opacity:1"/>
<path class="bond-8 atom-7 atom-9" d="M 51.3,120.1 L 41.4,128.6" style="fill:none;fill-rule:evenodd;stroke:#000000;stroke-width:2.0px;stroke-linecap:butt;stroke-linejoin:miter;stroke-opacity:1"/>
<path class="bond-8 atom-7 atom-9" d="M 41.4,128.6 L 31.4,137.0" style="fill:none;fill-rule:evenodd;stroke:#FF0000;stroke-width:2.0px;stroke-linecap:butt;stroke-linejoin:miter;stroke-opacity:1"/>
<path class="bond-9 atom-5 atom-10" d="M 108.0,110.0 L 102.1,77.3" style="fill:none;fill-rule:evenodd;stroke:#000000;stroke-width:2.0px;stroke-linecap:butt;stroke-linejoin:miter;stroke-opacity:1"/>
<path class="bond-10 atom-10 atom-11" d="M 102.6,80.2 L 113.2,71.3" style="fill:none;fill-rule:evenodd;stroke:#000000;stroke-width:2.0px;stroke-linecap:butt;stroke-linejoin:miter;stroke-opacity:1"/>
<path class="bond-10 atom-10 atom-11" d="M 113.2,71.3 L 123.7,62.4" style="fill:none;fill-rule:evenodd;stroke:#FF0000;stroke-width:2.0px;stroke-linecap:butt;stroke-linejoin:miter;stroke-opacity:1"/>
<path class="bond-10 atom-10 atom-11" d="M 99.4,76.4 L 110.0,67.5" style="fill:none;fill-rule:evenodd;stroke:#000000;stroke-width:2.0px;stroke-linecap:butt;stroke-linejoin:miter;stroke-opacity:1"/>
<path class="bond-10 atom-10 atom-11" d="M 110.0,67.5 L 120.5,58.6" style="fill:none;fill-rule:evenodd;stroke:#FF0000;stroke-width:2.0px;stroke-linecap:butt;stroke-linejoin:miter;stroke-opacity:1"/>
<path class="bond-11 atom-10 atom-12" d="M 102.1,77.3 L 89.2,72.7" style="fill:none;fill-rule:evenodd;stroke:#000000;stroke-width:2.0px;stroke-linecap:butt;stroke-linejoin:miter;stroke-opacity:1"/>
<path class="bond-11 atom-10 atom-12" d="M 89.2,72.7 L 76.3,68.0" style="fill:none;fill-rule:evenodd;stroke:#FF0000;stroke-width:2.0px;stroke-linecap:butt;stroke-linejoin:miter;stroke-opacity:1"/>
<path d="M 196.3,110.8 L 195.8,111.2 L 194.3,110.7" style="fill:none;stroke:#000000;stroke-width:2.0px;stroke-linecap:butt;stroke-linejoin:miter;stroke-opacity:1;"/>
<path d="M 166.2,100.5 L 164.6,99.9 L 163.3,101.0" style="fill:none;stroke:#000000;stroke-width:2.0px;stroke-linecap:butt;stroke-linejoin:miter;stroke-opacity:1;"/>
<path d="M 140.5,120.3 L 139.2,121.3 L 137.6,120.8" style="fill:none;stroke:#000000;stroke-width:2.0px;stroke-linecap:butt;stroke-linejoin:miter;stroke-opacity:1;"/>
<path d="M 83.8,130.4 L 82.6,131.4 L 81.0,130.9" style="fill:none;stroke:#000000;stroke-width:2.0px;stroke-linecap:butt;stroke-linejoin:miter;stroke-opacity:1;"/>
<path d="M 52.9,120.7 L 51.3,120.1 L 50.8,120.6" style="fill:none;stroke:#000000;stroke-width:2.0px;stroke-linecap:butt;stroke-linejoin:miter;stroke-opacity:1;"/>
<path d="M 102.4,79.0 L 102.1,77.3 L 101.5,77.1" style="fill:none;stroke:#000000;stroke-width:2.0px;stroke-linecap:butt;stroke-linejoin:miter;stroke-opacity:1;"/>
<path class="atom-0" d="M 197.3 143.9 Q 197.3 141.7, 198.5 140.4 Q 199.6 139.2, 201.7 139.2 Q 203.7 139.2, 204.9 140.4 Q 206.0 141.7, 206.0 143.9 Q 206.0 146.2, 204.8 147.5 Q 203.7 148.8, 201.7 148.8 Q 199.6 148.8, 198.5 147.5 Q 197.3 146.2, 197.3 143.9 M 201.7 147.7 Q 203.1 147.7, 203.9 146.8 Q 204.6 145.8, 204.6 143.9 Q 204.6 142.1, 203.9 141.2 Q 203.1 140.2, 201.7 140.2 Q 200.2 140.2, 199.4 141.1 Q 198.7 142.1, 198.7 143.9 Q 198.7 145.8, 199.4 146.8 Q 200.2 147.7, 201.7 147.7 " fill="#FF0000"/>
<path class="atom-2" d="M 216.9 89.8 Q 216.9 87.6, 218.0 86.3 Q 219.1 85.1, 221.2 85.1 Q 223.3 85.1, 224.4 86.3 Q 225.5 87.6, 225.5 89.8 Q 225.5 92.1, 224.4 93.4 Q 223.3 94.7, 221.2 94.7 Q 219.1 94.7, 218.0 93.4 Q 216.9 92.1, 216.9 89.8 M 221.2 93.7 Q 222.6 93.7, 223.4 92.7 Q 224.2 91.7, 224.2 89.8 Q 224.2 88.0, 223.4 87.1 Q 222.6 86.1, 221.2 86.1 Q 219.8 86.1, 219.0 87.1 Q 218.2 88.0, 218.2 89.8 Q 218.2 91.7, 219.0 92.7 Q 219.8 93.7, 221.2 93.7 " fill="#FF0000"/>
<path class="atom-2" d="M 227.0 85.2 L 228.3 85.2 L 228.3 89.2 L 233.1 89.2 L 233.1 85.2 L 234.3 85.2 L 234.3 94.6 L 233.1 94.6 L 233.1 90.2 L 228.3 90.2 L 228.3 94.6 L 227.0 94.6 L 227.0 85.2 " fill="#FF0000"/>
<path class="atom-8" d="M 41.2 87.5 Q 41.2 85.2, 42.3 84.0 Q 43.4 82.7, 45.5 82.7 Q 47.6 82.7, 48.7 84.0 Q 49.8 85.2, 49.8 87.5 Q 49.8 89.8, 48.7 91.1 Q 47.6 92.4, 45.5 92.4 Q 43.4 92.4, 42.3 91.1 Q 41.2 89.8, 41.2 87.5 M 45.5 91.3 Q 46.9 91.3, 47.7 90.3 Q 48.5 89.4, 48.5 87.5 Q 48.5 85.6, 47.7 84.7 Q 46.9 83.8, 45.5 83.8 Q 44.1 83.8, 43.3 84.7 Q 42.5 85.6, 42.5 87.5 Q 42.5 89.4, 43.3 90.3 Q 44.1 91.3, 45.5 91.3 " fill="#FF0000"/>
<path class="atom-9" d="M 12.3 136.9 L 13.6 136.9 L 13.6 140.9 L 18.4 140.9 L 18.4 136.9 L 19.7 136.9 L 19.7 146.3 L 18.4 146.3 L 18.4 142.0 L 13.6 142.0 L 13.6 146.3 L 12.3 146.3 L 12.3 136.9 " fill="#FF0000"/>
<path class="atom-9" d="M 21.6 141.6 Q 21.6 139.3, 22.8 138.1 Q 23.9 136.8, 26.0 136.8 Q 28.0 136.8, 29.2 138.1 Q 30.3 139.3, 30.3 141.6 Q 30.3 143.9, 29.1 145.2 Q 28.0 146.4, 26.0 146.4 Q 23.9 146.4, 22.8 145.2 Q 21.6 143.9, 21.6 141.6 M 26.0 145.4 Q 27.4 145.4, 28.2 144.4 Q 28.9 143.5, 28.9 141.6 Q 28.9 139.7, 28.2 138.8 Q 27.4 137.9, 26.0 137.9 Q 24.5 137.9, 23.7 138.8 Q 23.0 139.7, 23.0 141.6 Q 23.0 143.5, 23.7 144.4 Q 24.5 145.4, 26.0 145.4 " fill="#FF0000"/>
<path class="atom-11" d="M 123.2 56.0 Q 123.2 53.7, 124.3 52.5 Q 125.4 51.2, 127.5 51.2 Q 129.6 51.2, 130.7 52.5 Q 131.8 53.7, 131.8 56.0 Q 131.8 58.3, 130.7 59.6 Q 129.6 60.8, 127.5 60.8 Q 125.5 60.8, 124.3 59.6 Q 123.2 58.3, 123.2 56.0 M 127.5 59.8 Q 129.0 59.8, 129.7 58.8 Q 130.5 57.9, 130.5 56.0 Q 130.5 54.1, 129.7 53.2 Q 129.0 52.3, 127.5 52.3 Q 126.1 52.3, 125.3 53.2 Q 124.5 54.1, 124.5 56.0 Q 124.5 57.9, 125.3 58.8 Q 126.1 59.8, 127.5 59.8 " fill="#FF0000"/>
<path class="atom-12" d="M 57.3 61.4 L 58.6 61.4 L 58.6 65.4 L 63.4 65.4 L 63.4 61.4 L 64.7 61.4 L 64.7 70.8 L 63.4 70.8 L 63.4 66.5 L 58.6 66.5 L 58.6 70.8 L 57.3 70.8 L 57.3 61.4 " fill="#FF0000"/>
<path class="atom-12" d="M 66.6 66.1 Q 66.6 63.8, 67.7 62.6 Q 68.8 61.3, 70.9 61.3 Q 73.0 61.3, 74.1 62.6 Q 75.2 63.8, 75.2 66.1 Q 75.2 68.4, 74.1 69.7 Q 73.0 71.0, 70.9 71.0 Q 68.8 71.0, 67.7 69.7 Q 66.6 68.4, 66.6 66.1 M 70.9 69.9 Q 72.3 69.9, 73.1 68.9 Q 73.9 68.0, 73.9 66.1 Q 73.9 64.2, 73.1 63.3 Q 72.3 62.4, 70.9 62.4 Q 69.5 62.4, 68.7 63.3 Q 67.9 64.2, 67.9 66.1 Q 67.9 68.0, 68.7 68.9 Q 69.5 69.9, 70.9 69.9 " fill="#FF0000"/>
</g>
    <g transform="translate(247.0, 0) scale(1 1) "><line x1="15" y1="100" x2="25" y2="100" style="stroke:rgb(0,0,0);stroke-width:2"/>
  <line x1="20" y1="95" x2="20" y2="105" style="stroke:rgb(0,0,0);stroke-width:2"/>
</g>
    <g transform="translate(287.0, 0) scale(1 1) "><!-- END OF HEADER -->
<rect style="opacity:1.0;fill:#FFFFFF;stroke:none" width="85.0" height="200.0" x="0.0" y="0.0"> </rect>
<path class="bond-0 atom-0 atom-1" d="M 28.4,99.9 L 56.7,99.9" style="fill:none;fill-rule:evenodd;stroke:#FF0000;stroke-width:2.0px;stroke-linecap:butt;stroke-linejoin:miter;stroke-opacity:1"/>
<path class="atom-0" d="M 4.2 94.0 L 5.9 94.0 L 5.9 99.1 L 12.0 99.1 L 12.0 94.0 L 13.6 94.0 L 13.6 105.9 L 12.0 105.9 L 12.0 100.4 L 5.9 100.4 L 5.9 105.9 L 4.2 105.9 L 4.2 94.0 " fill="#FF0000"/>
<path class="atom-0" d="M 16.0 99.9 Q 16.0 97.1, 17.4 95.5 Q 18.9 93.9, 21.5 93.9 Q 24.1 93.9, 25.6 95.5 Q 27.0 97.1, 27.0 99.9 Q 27.0 102.8, 25.5 104.5 Q 24.1 106.1, 21.5 106.1 Q 18.9 106.1, 17.4 104.5 Q 16.0 102.9, 16.0 99.9 M 21.5 104.8 Q 23.3 104.8, 24.3 103.6 Q 25.3 102.3, 25.3 99.9 Q 25.3 97.6, 24.3 96.4 Q 23.3 95.2, 21.5 95.2 Q 19.7 95.2, 18.7 96.4 Q 17.7 97.6, 17.7 99.9 Q 17.7 102.3, 18.7 103.6 Q 19.7 104.8, 21.5 104.8 " fill="#FF0000"/>
<path class="atom-1" d="M 58.1 99.9 Q 58.1 97.1, 59.5 95.5 Q 60.9 93.9, 63.6 93.9 Q 66.2 93.9, 67.7 95.5 Q 69.1 97.1, 69.1 99.9 Q 69.1 102.8, 67.6 104.5 Q 66.2 106.1, 63.6 106.1 Q 61.0 106.1, 59.5 104.5 Q 58.1 102.9, 58.1 99.9 M 63.6 104.8 Q 65.4 104.8, 66.4 103.6 Q 67.4 102.3, 67.4 99.9 Q 67.4 97.6, 66.4 96.4 Q 65.4 95.2, 63.6 95.2 Q 61.8 95.2, 60.8 96.4 Q 59.8 97.6, 59.8 99.9 Q 59.8 102.3, 60.8 103.6 Q 61.8 104.8, 63.6 104.8 " fill="#FF0000"/>
<path class="atom-1" d="M 70.9 94.0 L 72.5 94.0 L 72.5 99.1 L 78.6 99.1 L 78.6 94.0 L 80.2 94.0 L 80.2 105.9 L 78.6 105.9 L 78.6 100.4 L 72.5 100.4 L 72.5 105.9 L 70.9 105.9 L 70.9 94.0 " fill="#FF0000"/>
</g>
    <g transform="translate(372.0, 0) scale(1 1) "><line x1="5" y1="100" x2="35" y2="100" style="stroke:rgb(0,0,0);stroke-width:2"/>
  <line x1="34" y1="100" x2="29" y2="95" style="stroke:rgb(0,0,0);stroke-width:2"/>
  <line x1="34" y1="100" x2="29" y2="105" style="stroke:rgb(0,0,0);stroke-width:2"/>
</g>
    <g transform="translate(412.0, 0) scale(1 1) "><!-- END OF HEADER -->
<rect style="opacity:1.0;fill:#FFFFFF;stroke:none" width="247.0" height="200.0" x="0.0" y="0.0"> </rect>
<path class="bond-0 atom-0 atom-1" d="M 198.2,107.0 L 195.6,92.9" style="fill:none;fill-rule:evenodd;stroke:#FF0000;stroke-width:2.0px;stroke-linecap:butt;stroke-linejoin:miter;stroke-opacity:1"/>
<path class="bond-0 atom-0 atom-1" d="M 195.6,92.9 L 193.1,78.7" style="fill:none;fill-rule:evenodd;stroke:#000000;stroke-width:2.0px;stroke-linecap:butt;stroke-linejoin:miter;stroke-opacity:1"/>
<path class="bond-0 atom-0 atom-1" d="M 203.1,106.1 L 200.5,92.0" style="fill:none;fill-rule:evenodd;stroke:#FF0000;stroke-width:2.0px;stroke-linecap:butt;stroke-linejoin:miter;stroke-opacity:1"/>
<path class="bond-0 atom-0 atom-1" d="M 200.5,92.0 L 198.0,77.9" style="fill:none;fill-rule:evenodd;stroke:#000000;stroke-width:2.0px;stroke-linecap:butt;stroke-linejoin:miter;stroke-opacity:1"/>
<path class="bond-1 atom-1 atom-2" d="M 195.8,79.7 L 205.8,71.3" style="fill:none;fill-rule:evenodd;stroke:#000000;stroke-width:2.0px;stroke-linecap:butt;stroke-linejoin:miter;stroke-opacity:1"/>
<path class="bond-1 atom-1 atom-2" d="M 205.8,71.3 L 215.8,62.9" style="fill:none;fill-rule:evenodd;stroke:#FF0000;stroke-width:2.0px;stroke-linecap:butt;stroke-linejoin:miter;stroke-opacity:1"/>
<path class="bond-2 atom-1 atom-3" d="M 195.8,79.7 L 164.6,68.4" style="fill:none;fill-rule:evenodd;stroke:#000000;stroke-width:2.0px;stroke-linecap:butt;stroke-linejoin:miter;stroke-opacity:1"/>
<path class="bond-3 atom-3 atom-4" d="M 164.6,68.4 L 139.2,89.8" style="fill:none;fill-rule:evenodd;stroke:#000000;stroke-width:2.0px;stroke-linecap:butt;stroke-linejoin:miter;stroke-opacity:1"/>
<path class="bond-3 atom-3 atom-4" d="M 165.6,74.1 L 144.6,91.8" style="fill:none;fill-rule:evenodd;stroke:#000000;stroke-width:2.0px;stroke-linecap:butt;stroke-linejoin:miter;stroke-opacity:1"/>
<path class="bond-4 atom-4 atom-5" d="M 139.2,89.8 L 108.0,78.5" style="fill:none;fill-rule:evenodd;stroke:#000000;stroke-width:2.0px;stroke-linecap:butt;stroke-linejoin:miter;stroke-opacity:1"/>
<path class="bond-5 atom-5 atom-6" d="M 108.0,78.5 L 82.6,99.9" style="fill:none;fill-rule:evenodd;stroke:#000000;stroke-width:2.0px;stroke-linecap:butt;stroke-linejoin:miter;stroke-opacity:1"/>
<path class="bond-6 atom-6 atom-7" d="M 82.6,99.9 L 51.3,88.6" style="fill:none;fill-rule:evenodd;stroke:#000000;stroke-width:2.0px;stroke-linecap:butt;stroke-linejoin:miter;stroke-opacity:1"/>
<path class="bond-7 atom-7 atom-8" d="M 54.1,89.6 L 51.5,75.6" style="fill:none;fill-rule:evenodd;stroke:#000000;stroke-width:2.0px;stroke-linecap:butt;stroke-linejoin:miter;stroke-opacity:1"/>
<path class="bond-7 atom-7 atom-8" d="M 51.5,75.6 L 49.0,61.5" style="fill:none;fill-rule:evenodd;stroke:#FF0000;stroke-width:2.0px;stroke-linecap:butt;stroke-linejoin:miter;stroke-opacity:1"/>
<path class="bond-7 atom-7 atom-8" d="M 49.1,90.5 L 46.6,76.4" style="fill:none;fill-rule:evenodd;stroke:#000000;stroke-width:2.0px;stroke-linecap:butt;stroke-linejoin:miter;stroke-opacity:1"/>
<path class="bond-7 atom-7 atom-8" d="M 46.6,76.4 L 44.1,62.4" style="fill:none;fill-rule:evenodd;stroke:#FF0000;stroke-width:2.0px;stroke-linecap:butt;stroke-linejoin:miter;stroke-opacity:1"/>
<path class="bond-8 atom-7 atom-9" d="M 51.3,88.6 L 41.4,97.1" style="fill:none;fill-rule:evenodd;stroke:#000000;stroke-width:2.0px;stroke-linecap:butt;stroke-linejoin:miter;stroke-opacity:1"/>
<path class="bond-8 atom-7 atom-9" d="M 41.4,97.1 L 31.4,105.5" style="fill:none;fill-rule:evenodd;stroke:#FF0000;stroke-width:2.0px;stroke-linecap:butt;stroke-linejoin:miter;stroke-opacity:1"/>
<path class="bond-9 atom-4 atom-10" d="M 139.2,89.8 L 145.0,122.5" style="fill:none;fill-rule:evenodd;stroke:#000000;stroke-width:2.0px;stroke-linecap:butt;stroke-linejoin:miter;stroke-opacity:1"/>
<path class="bond-10 atom-10 atom-11" d="M 142.8,124.4 L 156.4,129.3" style="fill:none;fill-rule:evenodd;stroke:#000000;stroke-width:2.0px;stroke-linecap:butt;stroke-linejoin:miter;stroke-opacity:1"/>
<path class="bond-10 atom-10 atom-11" d="M 156.4,129.3 L 170.0,134.2" style="fill:none;fill-rule:evenodd;stroke:#FF0000;stroke-width:2.0px;stroke-linecap:butt;stroke-linejoin:miter;stroke-opacity:1"/>
<path class="bond-10 atom-10 atom-11" d="M 144.5,119.7 L 158.1,124.6" style="fill:none;fill-rule:evenodd;stroke:#000000;stroke-width:2.0px;stroke-linecap:butt;stroke-linejoin:miter;stroke-opacity:1"/>
<path class="bond-10 atom-10 atom-11" d="M 158.1,124.6 L 171.7,129.5" style="fill:none;fill-rule:evenodd;stroke:#FF0000;stroke-width:2.0px;stroke-linecap:butt;stroke-linejoin:miter;stroke-opacity:1"/>
<path class="bond-11 atom-10 atom-12" d="M 145.0,122.5 L 135.0,130.9" style="fill:none;fill-rule:evenodd;stroke:#000000;stroke-width:2.0px;stroke-linecap:butt;stroke-linejoin:miter;stroke-opacity:1"/>
<path class="bond-11 atom-10 atom-12" d="M 135.0,130.9 L 125.1,139.3" style="fill:none;fill-rule:evenodd;stroke:#FF0000;stroke-width:2.0px;stroke-linecap:butt;stroke-linejoin:miter;stroke-opacity:1"/>
<path d="M 196.3,79.3 L 195.8,79.7 L 194.3,79.1" style="fill:none;stroke:#000000;stroke-width:2.0px;stroke-linecap:butt;stroke-linejoin:miter;stroke-opacity:1;"/>
<path d="M 166.2,69.0 L 164.6,68.4 L 163.3,69.5" style="fill:none;stroke:#000000;stroke-width:2.0px;stroke-linecap:butt;stroke-linejoin:miter;stroke-opacity:1;"/>
<path d="M 109.5,79.1 L 108.0,78.5 L 106.7,79.6" style="fill:none;stroke:#000000;stroke-width:2.0px;stroke-linecap:butt;stroke-linejoin:miter;stroke-opacity:1;"/>
<path d="M 83.8,98.9 L 82.6,99.9 L 81.0,99.4" style="fill:none;stroke:#000000;stroke-width:2.0px;stroke-linecap:butt;stroke-linejoin:miter;stroke-opacity:1;"/>
<path d="M 52.9,89.2 L 51.3,88.6 L 50.8,89.1" style="fill:none;stroke:#000000;stroke-width:2.0px;stroke-linecap:butt;stroke-linejoin:miter;stroke-opacity:1;"/>
<path d="M 144.7,120.9 L 145.0,122.5 L 144.5,122.9" style="fill:none;stroke:#000000;stroke-width:2.0px;stroke-linecap:butt;stroke-linejoin:miter;stroke-opacity:1;"/>
<path class="atom-0" d="M 197.3 112.4 Q 197.3 110.2, 198.5 108.9 Q 199.6 107.6, 201.7 107.6 Q 203.7 107.6, 204.9 108.9 Q 206.0 110.2, 206.0 112.4 Q 206.0 114.7, 204.8 116.0 Q 203.7 117.3, 201.7 117.3 Q 199.6 117.3, 198.5 116.0 Q 197.3 114.7, 197.3 112.4 M 201.7 116.2 Q 203.1 116.2, 203.9 115.3 Q 204.6 114.3, 204.6 112.4 Q 204.6 110.6, 203.9 109.6 Q 203.1 108.7, 201.7 108.7 Q 200.2 108.7, 199.4 109.6 Q 198.7 110.6, 198.7 112.4 Q 198.7 114.3, 199.4 115.3 Q 200.2 116.2, 201.7 116.2 " fill="#FF0000"/>
<path class="atom-2" d="M 216.9 58.3 Q 216.9 56.1, 218.0 54.8 Q 219.1 53.6, 221.2 53.6 Q 223.3 53.6, 224.4 54.8 Q 225.5 56.1, 225.5 58.3 Q 225.5 60.6, 224.4 61.9 Q 223.3 63.2, 221.2 63.2 Q 219.1 63.2, 218.0 61.9 Q 216.9 60.6, 216.9 58.3 M 221.2 62.1 Q 222.6 62.1, 223.4 61.2 Q 224.2 60.2, 224.2 58.3 Q 224.2 56.5, 223.4 55.6 Q 222.6 54.6, 221.2 54.6 Q 219.8 54.6, 219.0 55.5 Q 218.2 56.5, 218.2 58.3 Q 218.2 60.2, 219.0 61.2 Q 219.8 62.1, 221.2 62.1 " fill="#FF0000"/>
<path class="atom-2" d="M 227.0 53.7 L 228.3 53.7 L 228.3 57.7 L 233.1 57.7 L 233.1 53.7 L 234.3 53.7 L 234.3 63.1 L 233.1 63.1 L 233.1 58.7 L 228.3 58.7 L 228.3 63.1 L 227.0 63.1 L 227.0 53.7 " fill="#FF0000"/>
<path class="atom-8" d="M 41.2 56.0 Q 41.2 53.7, 42.3 52.5 Q 43.4 51.2, 45.5 51.2 Q 47.6 51.2, 48.7 52.5 Q 49.8 53.7, 49.8 56.0 Q 49.8 58.3, 48.7 59.6 Q 47.6 60.8, 45.5 60.8 Q 43.4 60.8, 42.3 59.6 Q 41.2 58.3, 41.2 56.0 M 45.5 59.8 Q 46.9 59.8, 47.7 58.8 Q 48.5 57.9, 48.5 56.0 Q 48.5 54.1, 47.7 53.2 Q 46.9 52.3, 45.5 52.3 Q 44.1 52.3, 43.3 53.2 Q 42.5 54.1, 42.5 56.0 Q 42.5 57.9, 43.3 58.8 Q 44.1 59.8, 45.5 59.8 " fill="#FF0000"/>
<path class="atom-9" d="M 12.3 105.4 L 13.6 105.4 L 13.6 109.4 L 18.4 109.4 L 18.4 105.4 L 19.7 105.4 L 19.7 114.8 L 18.4 114.8 L 18.4 110.4 L 13.6 110.4 L 13.6 114.8 L 12.3 114.8 L 12.3 105.4 " fill="#FF0000"/>
<path class="atom-9" d="M 21.6 110.1 Q 21.6 107.8, 22.8 106.5 Q 23.9 105.3, 26.0 105.3 Q 28.0 105.3, 29.2 106.5 Q 30.3 107.8, 30.3 110.1 Q 30.3 112.3, 29.1 113.6 Q 28.0 114.9, 26.0 114.9 Q 23.9 114.9, 22.8 113.6 Q 21.6 112.4, 21.6 110.1 M 26.0 113.9 Q 27.4 113.9, 28.2 112.9 Q 28.9 111.9, 28.9 110.1 Q 28.9 108.2, 28.2 107.3 Q 27.4 106.3, 26.0 106.3 Q 24.5 106.3, 23.7 107.3 Q 23.0 108.2, 23.0 110.1 Q 23.0 112.0, 23.7 112.9 Q 24.5 113.9, 26.0 113.9 " fill="#FF0000"/>
<path class="atom-11" d="M 171.9 133.8 Q 171.9 131.6, 173.1 130.3 Q 174.2 129.0, 176.3 129.0 Q 178.3 129.0, 179.5 130.3 Q 180.6 131.6, 180.6 133.8 Q 180.6 136.1, 179.5 137.4 Q 178.3 138.7, 176.3 138.7 Q 174.2 138.7, 173.1 137.4 Q 171.9 136.1, 171.9 133.8 M 176.3 137.6 Q 177.7 137.6, 178.5 136.7 Q 179.3 135.7, 179.3 133.8 Q 179.3 132.0, 178.5 131.0 Q 177.7 130.1, 176.3 130.1 Q 174.8 130.1, 174.0 131.0 Q 173.3 132.0, 173.3 133.8 Q 173.3 135.7, 174.0 136.7 Q 174.8 137.6, 176.3 137.6 " fill="#FF0000"/>
<path class="atom-12" d="M 106.0 139.3 L 107.3 139.3 L 107.3 143.3 L 112.1 143.3 L 112.1 139.3 L 113.4 139.3 L 113.4 148.7 L 112.1 148.7 L 112.1 144.3 L 107.3 144.3 L 107.3 148.7 L 106.0 148.7 L 106.0 139.3 " fill="#FF0000"/>
<path class="atom-12" d="M 115.3 143.9 Q 115.3 141.7, 116.4 140.4 Q 117.6 139.2, 119.6 139.2 Q 121.7 139.2, 122.8 140.4 Q 124.0 141.7, 124.0 143.9 Q 124.0 146.2, 122.8 147.5 Q 121.7 148.8, 119.6 148.8 Q 117.6 148.8, 116.4 147.5 Q 115.3 146.2, 115.3 143.9 M 119.6 147.7 Q 121.1 147.7, 121.8 146.8 Q 122.6 145.8, 122.6 143.9 Q 122.6 142.1, 121.8 141.2 Q 121.1 140.2, 119.6 140.2 Q 118.2 140.2, 117.4 141.1 Q 116.7 142.1, 116.7 143.9 Q 116.7 145.8, 117.4 146.8 Q 118.2 147.7, 119.6 147.7 " fill="#FF0000"/>
</g>
    <g transform="translate(659.0, 0) scale(1 1) "><line x1="15" y1="100" x2="25" y2="100" style="stroke:rgb(0,0,0);stroke-width:2"/>
  <line x1="20" y1="95" x2="20" y2="105" style="stroke:rgb(0,0,0);stroke-width:2"/>
</g>
    <g transform="translate(699.0, 0) scale(1 1) "><!-- END OF HEADER -->
<rect style="opacity:1.0;fill:#FFFFFF;stroke:none" width="85.0" height="200.0" x="0.0" y="0.0"> </rect>
<path class="bond-0 atom-0 atom-1" d="M 21.9,95.3 L 62.6,95.3" style="fill:none;fill-rule:evenodd;stroke:#FF0000;stroke-width:2.0px;stroke-linecap:butt;stroke-linejoin:miter;stroke-opacity:1"/>
<path class="bond-0 atom-0 atom-1" d="M 21.9,104.4 L 62.6,104.4" style="fill:none;fill-rule:evenodd;stroke:#FF0000;stroke-width:2.0px;stroke-linecap:butt;stroke-linejoin:miter;stroke-opacity:1"/>
<path class="atom-0" d="M 4.3 99.9 Q 4.3 95.8, 6.3 93.5 Q 8.3 91.2, 12.1 91.2 Q 15.9 91.2, 17.9 93.5 Q 19.9 95.8, 19.9 99.9 Q 19.9 104.1, 17.9 106.4 Q 15.8 108.8, 12.1 108.8 Q 8.3 108.8, 6.3 106.4 Q 4.3 104.1, 4.3 99.9 M 12.1 106.8 Q 14.7 106.8, 16.1 105.1 Q 17.5 103.3, 17.5 99.9 Q 17.5 96.6, 16.1 94.9 Q 14.7 93.2, 12.1 93.2 Q 9.5 93.2, 8.1 94.8 Q 6.7 96.5, 6.7 99.9 Q 6.7 103.4, 8.1 105.1 Q 9.5 106.8, 12.1 106.8 " fill="#FF0000"/>
<path class="atom-1" d="M 64.6 99.9 Q 64.6 95.8, 66.6 93.5 Q 68.6 91.2, 72.4 91.2 Q 76.2 91.2, 78.2 93.5 Q 80.2 95.8, 80.2 99.9 Q 80.2 104.1, 78.2 106.4 Q 76.1 108.8, 72.4 108.8 Q 68.6 108.8, 66.6 106.4 Q 64.6 104.1, 64.6 99.9 M 72.4 106.8 Q 75.0 106.8, 76.4 105.1 Q 77.8 103.3, 77.8 99.9 Q 77.8 96.6, 76.4 94.9 Q 75.0 93.2, 72.4 93.2 Q 69.8 93.2, 68.4 94.8 Q 67.0 96.5, 67.0 99.9 Q 67.0 103.4, 68.4 105.1 Q 69.8 106.8, 72.4 106.8 " fill="#FF0000"/>
</g>
  </g>
</svg>
