<?xml version='1.0' encoding='ASCII' standalone='yes'?>
<svg xmlns="http://www.w3.org/2000/svg" xmlns:xlink="http://www.w3.org/1999/xlink" version="1.1" width="821.0px" viewBox="0 0 821.0 200.0" height="200.0px">
  <g>
    <g transform="translate(0, 0) scale(1 1) "><!-- END OF HEADER -->
<rect style="opacity:1.0;fill:#FFFFFF;stroke:none" width="247.0" height="200.0" x="0.0" y="0.0"> </rect>
<path class="bond-0 atom-0 atom-1" d="M 213.0,51.8 L 187.6,77.7" style="fill:none;fill-rule:evenodd;stroke:#000000;stroke-width:2.0px;stroke-linecap:butt;stroke-linejoin:miter;stroke-opacity:1"/>
<path class="bond-0 atom-0 atom-1" d="M 209.3,48.1 L 183.8,74.0" style="fill:none;fill-rule:evenodd;stroke:#000000;stroke-width:2.0px;stroke-linecap:butt;stroke-linejoin:miter;stroke-opacity:1"/>
<path class="bond-1 atom-1 atom-2" d="M 186.8,74.8 L 153.0,66.1" style="fill:none;fill-rule:evenodd;stroke:#000000;stroke-width:2.0px;stroke-linecap:butt;stroke-linejoin:miter;stroke-opacity:1"/>
<path class="bond-2 atom-2 atom-3" d="M 153.0,66.1 L 128.6,90.9" style="fill:none;fill-rule:evenodd;stroke:#000000;stroke-width:2.0px;stroke-linecap:butt;stroke-linejoin:miter;stroke-opacity:1"/>
<path class="bond-3 atom-3 atom-4" d="M 128.6,90.9 L 94.9,82.2" style="fill:none;fill-rule:evenodd;stroke:#000000;stroke-width:2.0px;stroke-linecap:butt;stroke-linejoin:miter;stroke-opacity:1"/>
<path class="bond-4 atom-4 atom-5" d="M 97.8,83.0 L 93.8,68.6" style="fill:none;fill-rule:evenodd;stroke:#000000;stroke-width:2.0px;stroke-linecap:butt;stroke-linejoin:miter;stroke-opacity:1"/>
<path class="bond-4 atom-4 atom-5" d="M 93.8,68.6 L 89.8,54.2" style="fill:none;fill-rule:evenodd;stroke:#FF0000;stroke-width:2.0px;stroke-linecap:butt;stroke-linejoin:miter;stroke-opacity:1"/>
<path class="bond-4 atom-4 atom-5" d="M 92.8,84.4 L 88.8,70.0" style="fill:none;fill-rule:evenodd;stroke:#000000;stroke-width:2.0px;stroke-linecap:butt;stroke-linejoin:miter;stroke-opacity:1"/>
<path class="bond-4 atom-4 atom-5" d="M 88.8,70.0 L 84.8,55.6" style="fill:none;fill-rule:evenodd;stroke:#FF0000;stroke-width:2.0px;stroke-linecap:butt;stroke-linejoin:miter;stroke-opacity:1"/>
<path class="bond-5 atom-4 atom-6" d="M 94.9,82.2 L 85.5,91.8" style="fill:none;fill-rule:evenodd;stroke:#000000;stroke-width:2.0px;stroke-linecap:butt;stroke-linejoin:miter;stroke-opacity:1"/>
<path class="bond-5 atom-4 atom-6" d="M 85.5,91.8 L 76.2,101.3" style="fill:none;fill-rule:evenodd;stroke:#FF0000;stroke-width:2.0px;stroke-linecap:butt;stroke-linejoin:miter;stroke-opacity:1"/>
<path class="bond-6 atom-6 atom-7" d="M 64.8,105.6 L 50.8,102.0" style="fill:none;fill-rule:evenodd;stroke:#FF0000;stroke-width:2.0px;stroke-linecap:butt;stroke-linejoin:miter;stroke-opacity:1"/>
<path class="bond-6 atom-6 atom-7" d="M 50.8,102.0 L 36.8,98.4" style="fill:none;fill-rule:evenodd;stroke:#000000;stroke-width:2.0px;stroke-linecap:butt;stroke-linejoin:miter;stroke-opacity:1"/>
<path class="bond-7 atom-7 atom-8" d="M 36.8,98.4 L 12.4,123.2" style="fill:none;fill-rule:evenodd;stroke:#000000;stroke-width:2.0px;stroke-linecap:butt;stroke-linejoin:miter;stroke-opacity:1"/>
<path class="bond-8 atom-7 atom-9" d="M 39.7,99.1 L 35.7,84.8" style="fill:none;fill-rule:evenodd;stroke:#000000;stroke-width:2.0px;stroke-linecap:butt;stroke-linejoin:miter;stroke-opacity:1"/>
<path class="bond-8 atom-7 atom-9" d="M 35.7,84.8 L 31.7,70.4" style="fill:none;fill-rule:evenodd;stroke:#FF0000;stroke-width:2.0px;stroke-linecap:butt;stroke-linejoin:miter;stroke-opacity:1"/>
<path class="bond-8 atom-7 atom-9" d="M 34.6,100.5 L 30.7,86.1" style="fill:none;fill-rule:evenodd;stroke:#000000;stroke-width:2.0px;stroke-linecap:butt;stroke-linejoin:miter;stroke-opacity:1"/>
<path class="bond-8 atom-7 atom-9" d="M 30.7,86.1 L 26.7,71.8" style="fill:none;fill-rule:evenodd;stroke:#FF0000;stroke-width:2.0px;stroke-linecap:butt;stroke-linejoin:miter;stroke-opacity:1"/>
<path class="bond-9 atom-1 atom-10" d="M 186.8,74.8 L 196.1,108.3" style="fill:none;fill-rule:evenodd;stroke:#000000;stroke-width:2.0px;stroke-linecap:butt;stroke-linejoin:miter;stroke-opacity:1"/>
<path class="bond-10 atom-10 atom-11" d="M 194.0,110.5 L 208.7,114.3" style="fill:none;fill-rule:evenodd;stroke:#000000;stroke-width:2.0px;stroke-linecap:butt;stroke-linejoin:miter;stroke-opacity:1"/>
<path class="bond-10 atom-10 atom-11" d="M 208.7,114.3 L 223.5,118.1" style="fill:none;fill-rule:evenodd;stroke:#FF0000;stroke-width:2.0px;stroke-linecap:butt;stroke-linejoin:miter;stroke-opacity:1"/>
<path class="bond-10 atom-10 atom-11" d="M 195.3,105.4 L 210.0,109.2" style="fill:none;fill-rule:evenodd;stroke:#000000;stroke-width:2.0px;stroke-linecap:butt;stroke-linejoin:miter;stroke-opacity:1"/>
<path class="bond-10 atom-10 atom-11" d="M 210.0,109.2 L 224.8,113.1" style="fill:none;fill-rule:evenodd;stroke:#FF0000;stroke-width:2.0px;stroke-linecap:butt;stroke-linejoin:miter;stroke-opacity:1"/>
<path class="bond-11 atom-10 atom-12" d="M 196.1,108.3 L 186.7,117.9" style="fill:none;fill-rule:evenodd;stroke:#000000;stroke-width:2.0px;stroke-linecap:butt;stroke-linejoin:miter;stroke-opacity:1"/>
<path class="bond-11 atom-10 atom-12" d="M 186.7,117.9 L 177.4,127.4" style="fill:none;fill-rule:evenodd;stroke:#FF0000;stroke-width:2.0px;stroke-linecap:butt;stroke-linejoin:miter;stroke-opacity:1"/>
<path d="M 185.1,74.3 L 186.8,74.8 L 187.2,76.5" style="fill:none;stroke:#000000;stroke-width:2.0px;stroke-linecap:butt;stroke-linejoin:miter;stroke-opacity:1;"/>
<path d="M 154.7,66.5 L 153.0,66.1 L 151.8,67.3" style="fill:none;stroke:#000000;stroke-width:2.0px;stroke-linecap:butt;stroke-linejoin:miter;stroke-opacity:1;"/>
<path d="M 129.8,89.7 L 128.6,90.9 L 126.9,90.5" style="fill:none;stroke:#000000;stroke-width:2.0px;stroke-linecap:butt;stroke-linejoin:miter;stroke-opacity:1;"/>
<path d="M 96.6,82.6 L 94.9,82.2 L 94.4,82.7" style="fill:none;stroke:#000000;stroke-width:2.0px;stroke-linecap:butt;stroke-linejoin:miter;stroke-opacity:1;"/>
<path d="M 37.5,98.5 L 36.8,98.4 L 35.5,99.6" style="fill:none;stroke:#000000;stroke-width:2.0px;stroke-linecap:butt;stroke-linejoin:miter;stroke-opacity:1;"/>
<path d="M 195.6,106.7 L 196.1,108.3 L 195.6,108.8" style="fill:none;stroke:#000000;stroke-width:2.0px;stroke-linecap:butt;stroke-linejoin:miter;stroke-opacity:1;"/>
<path class="atom-5" d="M 81.0 48.7 Q 81.0 46.3, 82.2 45.0 Q 83.4 43.7, 85.6 43.7 Q 87.8 43.7, 88.9 45.0 Q 90.1 46.3, 90.1 48.7 Q 90.1 51.1, 88.9 52.4 Q 87.7 53.8, 85.6 53.8 Q 83.4 53.8, 82.2 52.4 Q 81.0 51.1, 81.0 48.7 M 85.6 52.7 Q 87.1 52.7, 87.9 51.7 Q 88.7 50.7, 88.7 48.7 Q 88.7 46.7, 87.9 45.8 Q 87.1 44.8, 85.6 44.8 Q 84.1 44.8, 83.2 45.7 Q 82.4 46.7, 82.4 48.7 Q 82.4 50.7, 83.2 51.7 Q 84.1 52.7, 85.6 52.7 " fill="#FF0000"/>
<path class="atom-6" d="M 66.0 107.1 Q 66.0 104.7, 67.1 103.4 Q 68.3 102.1, 70.5 102.1 Q 72.7 102.1, 73.8 103.4 Q 75.0 104.7, 75.0 107.1 Q 75.0 109.5, 73.8 110.9 Q 72.6 112.2, 70.5 112.2 Q 68.3 112.2, 67.1 110.9 Q 66.0 109.5, 66.0 107.1 M 70.5 111.1 Q 72.0 111.1, 72.8 110.1 Q 73.6 109.1, 73.6 107.1 Q 73.6 105.2, 72.8 104.2 Q 72.0 103.2, 70.5 103.2 Q 69.0 103.2, 68.2 104.2 Q 67.4 105.1, 67.4 107.1 Q 67.4 109.1, 68.2 110.1 Q 69.0 111.1, 70.5 111.1 " fill="#FF0000"/>
<path class="atom-9" d="M 22.9 64.8 Q 22.9 62.5, 24.1 61.1 Q 25.2 59.8, 27.4 59.8 Q 29.6 59.8, 30.8 61.1 Q 32.0 62.5, 32.0 64.8 Q 32.0 67.2, 30.8 68.6 Q 29.6 69.9, 27.4 69.9 Q 25.3 69.9, 24.1 68.6 Q 22.9 67.2, 22.9 64.8 M 27.4 68.8 Q 28.9 68.8, 29.7 67.8 Q 30.6 66.8, 30.6 64.8 Q 30.6 62.9, 29.7 61.9 Q 28.9 60.9, 27.4 60.9 Q 25.9 60.9, 25.1 61.9 Q 24.3 62.9, 24.3 64.8 Q 24.3 66.8, 25.1 67.8 Q 25.9 68.8, 27.4 68.8 " fill="#FF0000"/>
<path class="atom-11" d="M 225.3 117.1 Q 225.3 114.7, 226.5 113.4 Q 227.6 112.1, 229.8 112.1 Q 232.0 112.1, 233.2 113.4 Q 234.3 114.7, 234.3 117.1 Q 234.3 119.5, 233.2 120.8 Q 232.0 122.2, 229.8 122.2 Q 227.6 122.2, 226.5 120.8 Q 225.3 119.5, 225.3 117.1 M 229.8 121.1 Q 231.3 121.1, 232.1 120.1 Q 233.0 119.1, 233.0 117.1 Q 233.0 115.1, 232.1 114.2 Q 231.3 113.2, 229.8 113.2 Q 228.3 113.2, 227.5 114.2 Q 226.7 115.1, 226.7 117.1 Q 226.7 119.1, 227.5 120.1 Q 228.3 121.1, 229.8 121.1 " fill="#FF0000"/>
<path class="atom-12" d="M 157.4 128.3 L 158.7 128.3 L 158.7 132.5 L 163.8 132.5 L 163.8 128.3 L 165.1 128.3 L 165.1 138.2 L 163.8 138.2 L 163.8 133.6 L 158.7 133.6 L 158.7 138.2 L 157.4 138.2 L 157.4 128.3 " fill="#FF0000"/>
<path class="atom-12" d="M 167.2 133.2 Q 167.2 130.9, 168.3 129.5 Q 169.5 128.2, 171.7 128.2 Q 173.9 128.2, 175.0 129.5 Q 176.2 130.9, 176.2 133.2 Q 176.2 135.6, 175.0 137.0 Q 173.8 138.3, 171.7 138.3 Q 169.5 138.3, 168.3 137.0 Q 167.2 135.6, 167.2 133.2 M 171.7 137.2 Q 173.2 137.2, 174.0 136.2 Q 174.8 135.2, 174.8 133.2 Q 174.8 131.3, 174.0 130.3 Q 173.2 129.3, 171.7 129.3 Q 170.2 129.3, 169.4 130.3 Q 168.5 131.3, 168.5 133.2 Q 168.5 135.2, 169.4 136.2 Q 170.2 137.2, 171.7 137.2 " fill="#FF0000"/>
<path class="legend" d="M 114.8 181.9 Q 114.8 179.6, 115.5 177.7 Q 116.2 175.8, 117.5 173.8 L 118.4 174.4 Q 117.3 176.3, 116.8 178.0 Q 116.3 179.7, 116.3 181.9 Q 116.3 184.0, 116.8 185.8 Q 117.3 187.5, 118.4 189.4 L 117.5 190.0 Q 116.2 188.0, 115.5 186.1 Q 114.8 184.2, 114.8 181.9 " fill="#000000"/>
<path class="legend" d="M 119.3 177.3 Q 119.7 176.2, 120.7 175.6 Q 121.7 175.0, 123.1 175.0 Q 124.8 175.0, 125.7 175.9 Q 126.7 176.8, 126.7 178.5 Q 126.7 180.2, 125.4 181.7 Q 124.2 183.3, 121.7 185.2 L 126.9 185.2 L 126.9 186.4 L 119.3 186.4 L 119.3 185.4 Q 121.4 183.9, 122.6 182.8 Q 123.9 181.6, 124.5 180.6 Q 125.1 179.6, 125.1 178.6 Q 125.1 177.5, 124.5 176.9 Q 124.0 176.3, 123.1 176.3 Q 122.1 176.3, 121.5 176.6 Q 120.9 177.0, 120.5 177.8 L 119.3 177.3 " fill="#000000"/>
<path class="legend" d="M 131.9 181.9 Q 131.9 184.2, 131.2 186.1 Q 130.5 188.0, 129.2 190.0 L 128.3 189.4 Q 129.4 187.5, 129.9 185.8 Q 130.4 184.0, 130.4 181.9 Q 130.4 179.7, 129.9 178.0 Q 129.4 176.3, 128.3 174.4 L 129.2 173.8 Q 130.5 175.8, 131.2 177.7 Q 131.9 179.6, 131.9 181.9 " fill="#000000"/>
</g>
    <g transform="translate(247.0, 0) scale(1 1) "><line x1="5" y1="100" x2="35" y2="100" style="stroke:rgb(0,0,0);stroke-width:2"/>
  <line x1="34" y1="100" x2="29" y2="95" style="stroke:rgb(0,0,0);stroke-width:2"/>
  <line x1="34" y1="100" x2="29" y2="105" style="stroke:rgb(0,0,0);stroke-width:2"/>
</g>
    <g transform="translate(287.0, 0) scale(1 1) "><!-- END OF HEADER -->
<rect style="opacity:1.0;fill:#FFFFFF;stroke:none" width="240.0" height="200.0" x="0.0" y="0.0"> </rect>
<path class="bond-0 atom-0 atom-1" d="M 211.0,66.8 L 185.2,90.3" style="fill:none;fill-rule:evenodd;stroke:#000000;stroke-width:2.0px;stroke-linecap:butt;stroke-linejoin:miter;stroke-opacity:1"/>
<path class="bond-0 atom-0 atom-1" d="M 207.6,63.0 L 181.8,86.6" style="fill:none;fill-rule:evenodd;stroke:#000000;stroke-width:2.0px;stroke-linecap:butt;stroke-linejoin:miter;stroke-opacity:1"/>
<path class="bond-1 atom-1 atom-2" d="M 184.6,87.5 L 152.6,77.4" style="fill:none;fill-rule:evenodd;stroke:#000000;stroke-width:2.0px;stroke-linecap:butt;stroke-linejoin:miter;stroke-opacity:1"/>
<path class="bond-2 atom-2 atom-3" d="M 152.6,77.4 L 127.9,99.9" style="fill:none;fill-rule:evenodd;stroke:#000000;stroke-width:2.0px;stroke-linecap:butt;stroke-linejoin:miter;stroke-opacity:1"/>
<path class="bond-3 atom-3 atom-4" d="M 127.9,99.9 L 96.0,89.8" style="fill:none;fill-rule:evenodd;stroke:#000000;stroke-width:2.0px;stroke-linecap:butt;stroke-linejoin:miter;stroke-opacity:1"/>
<path class="bond-4 atom-4 atom-5" d="M 98.8,90.7 L 95.7,76.6" style="fill:none;fill-rule:evenodd;stroke:#000000;stroke-width:2.0px;stroke-linecap:butt;stroke-linejoin:miter;stroke-opacity:1"/>
<path class="bond-4 atom-4 atom-5" d="M 95.7,76.6 L 92.6,62.6" style="fill:none;fill-rule:evenodd;stroke:#FF0000;stroke-width:2.0px;stroke-linecap:butt;stroke-linejoin:miter;stroke-opacity:1"/>
<path class="bond-4 atom-4 atom-5" d="M 93.9,91.8 L 90.8,77.7" style="fill:none;fill-rule:evenodd;stroke:#000000;stroke-width:2.0px;stroke-linecap:butt;stroke-linejoin:miter;stroke-opacity:1"/>
<path class="bond-4 atom-4 atom-5" d="M 90.8,77.7 L 87.7,63.7" style="fill:none;fill-rule:evenodd;stroke:#FF0000;stroke-width:2.0px;stroke-linecap:butt;stroke-linejoin:miter;stroke-opacity:1"/>
<path class="bond-5 atom-4 atom-6" d="M 96.0,89.8 L 86.4,98.6" style="fill:none;fill-rule:evenodd;stroke:#000000;stroke-width:2.0px;stroke-linecap:butt;stroke-linejoin:miter;stroke-opacity:1"/>
<path class="bond-5 atom-4 atom-6" d="M 86.4,98.6 L 76.7,107.4" style="fill:none;fill-rule:evenodd;stroke:#FF0000;stroke-width:2.0px;stroke-linecap:butt;stroke-linejoin:miter;stroke-opacity:1"/>
<path class="bond-6 atom-6 atom-7" d="M 65.8,110.6 L 52.6,106.4" style="fill:none;fill-rule:evenodd;stroke:#FF0000;stroke-width:2.0px;stroke-linecap:butt;stroke-linejoin:miter;stroke-opacity:1"/>
<path class="bond-6 atom-6 atom-7" d="M 52.6,106.4 L 39.4,102.3" style="fill:none;fill-rule:evenodd;stroke:#000000;stroke-width:2.0px;stroke-linecap:butt;stroke-linejoin:miter;stroke-opacity:1"/>
<path class="bond-7 atom-7 atom-8" d="M 39.4,102.3 L 29.7,111.0" style="fill:none;fill-rule:evenodd;stroke:#000000;stroke-width:2.0px;stroke-linecap:butt;stroke-linejoin:miter;stroke-opacity:1"/>
<path class="bond-7 atom-7 atom-8" d="M 29.7,111.0 L 20.1,119.8" style="fill:none;fill-rule:evenodd;stroke:#FF0000;stroke-width:2.0px;stroke-linecap:butt;stroke-linejoin:miter;stroke-opacity:1"/>
<path class="bond-7 atom-7 atom-8" d="M 40.6,107.9 L 33.1,114.8" style="fill:none;fill-rule:evenodd;stroke:#000000;stroke-width:2.0px;stroke-linecap:butt;stroke-linejoin:miter;stroke-opacity:1"/>
<path class="bond-7 atom-7 atom-8" d="M 33.1,114.8 L 23.5,123.6" style="fill:none;fill-rule:evenodd;stroke:#FF0000;stroke-width:2.0px;stroke-linecap:butt;stroke-linejoin:miter;stroke-opacity:1"/>
<path class="bond-8 atom-1 atom-9" d="M 184.6,87.5 L 191.7,120.2" style="fill:none;fill-rule:evenodd;stroke:#000000;stroke-width:2.0px;stroke-linecap:butt;stroke-linejoin:miter;stroke-opacity:1"/>
<path class="bond-9 atom-9 atom-10" d="M 189.6,122.1 L 203.5,126.5" style="fill:none;fill-rule:evenodd;stroke:#000000;stroke-width:2.0px;stroke-linecap:butt;stroke-linejoin:miter;stroke-opacity:1"/>
<path class="bond-9 atom-9 atom-10" d="M 203.5,126.5 L 217.4,131.0" style="fill:none;fill-rule:evenodd;stroke:#FF0000;stroke-width:2.0px;stroke-linecap:butt;stroke-linejoin:miter;stroke-opacity:1"/>
<path class="bond-9 atom-9 atom-10" d="M 191.1,117.3 L 205.0,121.8" style="fill:none;fill-rule:evenodd;stroke:#000000;stroke-width:2.0px;stroke-linecap:butt;stroke-linejoin:miter;stroke-opacity:1"/>
<path class="bond-9 atom-9 atom-10" d="M 205.0,121.8 L 219.0,126.2" style="fill:none;fill-rule:evenodd;stroke:#FF0000;stroke-width:2.0px;stroke-linecap:butt;stroke-linejoin:miter;stroke-opacity:1"/>
<path class="bond-10 atom-9 atom-11" d="M 191.7,120.2 L 182.1,129.0" style="fill:none;fill-rule:evenodd;stroke:#000000;stroke-width:2.0px;stroke-linecap:butt;stroke-linejoin:miter;stroke-opacity:1"/>
<path class="bond-10 atom-9 atom-11" d="M 182.1,129.0 L 172.5,137.8" style="fill:none;fill-rule:evenodd;stroke:#FF0000;stroke-width:2.0px;stroke-linecap:butt;stroke-linejoin:miter;stroke-opacity:1"/>
<path d="M 183.0,87.0 L 184.6,87.5 L 184.9,89.1" style="fill:none;stroke:#000000;stroke-width:2.0px;stroke-linecap:butt;stroke-linejoin:miter;stroke-opacity:1;"/>
<path d="M 154.2,77.9 L 152.6,77.4 L 151.4,78.5" style="fill:none;stroke:#000000;stroke-width:2.0px;stroke-linecap:butt;stroke-linejoin:miter;stroke-opacity:1;"/>
<path d="M 129.2,98.8 L 127.9,99.9 L 126.3,99.4" style="fill:none;stroke:#000000;stroke-width:2.0px;stroke-linecap:butt;stroke-linejoin:miter;stroke-opacity:1;"/>
<path d="M 97.6,90.3 L 96.0,89.8 L 95.5,90.2" style="fill:none;stroke:#000000;stroke-width:2.0px;stroke-linecap:butt;stroke-linejoin:miter;stroke-opacity:1;"/>
<path d="M 40.0,102.5 L 39.4,102.3 L 38.9,102.7" style="fill:none;stroke:#000000;stroke-width:2.0px;stroke-linecap:butt;stroke-linejoin:miter;stroke-opacity:1;"/>
<path d="M 191.4,118.5 L 191.7,120.2 L 191.3,120.6" style="fill:none;stroke:#000000;stroke-width:2.0px;stroke-linecap:butt;stroke-linejoin:miter;stroke-opacity:1;"/>
<path class="atom-5" d="M 84.5 57.1 Q 84.5 54.9, 85.6 53.6 Q 86.7 52.3, 88.8 52.3 Q 90.9 52.3, 92.1 53.6 Q 93.2 54.9, 93.2 57.1 Q 93.2 59.4, 92.0 60.7 Q 90.9 62.0, 88.8 62.0 Q 86.7 62.0, 85.6 60.7 Q 84.5 59.5, 84.5 57.1 M 88.8 61.0 Q 90.3 61.0, 91.0 60.0 Q 91.8 59.0, 91.8 57.1 Q 91.8 55.3, 91.0 54.3 Q 90.3 53.4, 88.8 53.4 Q 87.4 53.4, 86.6 54.3 Q 85.8 55.3, 85.8 57.1 Q 85.8 59.0, 86.6 60.0 Q 87.4 61.0, 88.8 61.0 " fill="#FF0000"/>
<path class="atom-6" d="M 66.9 112.4 Q 66.9 110.1, 68.1 108.9 Q 69.2 107.6, 71.3 107.6 Q 73.4 107.6, 74.5 108.9 Q 75.6 110.1, 75.6 112.4 Q 75.6 114.7, 74.5 116.0 Q 73.4 117.3, 71.3 117.3 Q 69.2 117.3, 68.1 116.0 Q 66.9 114.7, 66.9 112.4 M 71.3 116.2 Q 72.7 116.2, 73.5 115.3 Q 74.3 114.3, 74.3 112.4 Q 74.3 110.5, 73.5 109.6 Q 72.7 108.7, 71.3 108.7 Q 69.8 108.7, 69.1 109.6 Q 68.3 110.5, 68.3 112.4 Q 68.3 114.3, 69.1 115.3 Q 69.8 116.2, 71.3 116.2 " fill="#FF0000"/>
<path class="atom-8" d="M 12.0 126.7 Q 12.0 124.4, 13.1 123.2 Q 14.2 121.9, 16.4 121.9 Q 18.5 121.9, 19.6 123.2 Q 20.7 124.4, 20.7 126.7 Q 20.7 129.0, 19.6 130.3 Q 18.4 131.6, 16.4 131.6 Q 14.3 131.6, 13.1 130.3 Q 12.0 129.0, 12.0 126.7 M 16.4 130.6 Q 17.8 130.6, 18.6 129.6 Q 19.4 128.6, 19.4 126.7 Q 19.4 124.8, 18.6 123.9 Q 17.8 123.0, 16.4 123.0 Q 14.9 123.0, 14.1 123.9 Q 13.3 124.8, 13.3 126.7 Q 13.3 128.6, 14.1 129.6 Q 14.9 130.6, 16.4 130.6 " fill="#FF0000"/>
<path class="atom-10" d="M 219.3 130.3 Q 219.3 128.0, 220.4 126.8 Q 221.5 125.5, 223.6 125.5 Q 225.8 125.5, 226.9 126.8 Q 228.0 128.0, 228.0 130.3 Q 228.0 132.6, 226.9 133.9 Q 225.7 135.2, 223.6 135.2 Q 221.6 135.2, 220.4 133.9 Q 219.3 132.6, 219.3 130.3 M 223.6 134.2 Q 225.1 134.2, 225.9 133.2 Q 226.7 132.2, 226.7 130.3 Q 226.7 128.5, 225.9 127.5 Q 225.1 126.6, 223.6 126.6 Q 222.2 126.6, 221.4 127.5 Q 220.6 128.4, 220.6 130.3 Q 220.6 132.2, 221.4 133.2 Q 222.2 134.2, 223.6 134.2 " fill="#FF0000"/>
<path class="atom-11" d="M 153.3 138.1 L 154.6 138.1 L 154.6 142.1 L 159.4 142.1 L 159.4 138.1 L 160.7 138.1 L 160.7 147.5 L 159.4 147.5 L 159.4 143.2 L 154.6 143.2 L 154.6 147.5 L 153.3 147.5 L 153.3 138.1 " fill="#FF0000"/>
<path class="atom-11" d="M 162.7 142.8 Q 162.7 140.5, 163.8 139.2 Q 164.9 138.0, 167.0 138.0 Q 169.1 138.0, 170.2 139.2 Q 171.4 140.5, 171.4 142.8 Q 171.4 145.1, 170.2 146.4 Q 169.1 147.7, 167.0 147.7 Q 164.9 147.7, 163.8 146.4 Q 162.7 145.1, 162.7 142.8 M 167.0 146.6 Q 168.5 146.6, 169.2 145.7 Q 170.0 144.7, 170.0 142.8 Q 170.0 140.9, 169.2 140.0 Q 168.5 139.0, 167.0 139.0 Q 165.6 139.0, 164.8 140.0 Q 164.0 140.9, 164.0 142.8 Q 164.0 144.7, 164.8 145.7 Q 165.6 146.6, 167.0 146.6 " fill="#FF0000"/>
</g>
    <g transform="translate(527.0, 0) scale(1 1) "><line x1="15" y1="100" x2="25" y2="100" style="stroke:rgb(0,0,0);stroke-width:2"/>
  <line x1="20" y1="95" x2="20" y2="105" style="stroke:rgb(0,0,0);stroke-width:2"/>
</g>
    <g transform="translate(567.0, 0) scale(1 1) "><!-- END OF HEADER -->
<rect style="opacity:1.0;fill:#FFFFFF;stroke:none" width="254.0" height="200.0" x="0.0" y="0.0"> </rect>
<path class="bond-0 atom-0 atom-1" d="M 107.2,62.4 L 84.0,89.8" style="fill:none;fill-rule:evenodd;stroke:#000000;stroke-width:2.0px;stroke-linecap:butt;stroke-linejoin:miter;stroke-opacity:1"/>
<path class="bond-0 atom-0 atom-1" d="M 103.3,59.1 L 80.0,86.5" style="fill:none;fill-rule:evenodd;stroke:#000000;stroke-width:2.0px;stroke-linecap:butt;stroke-linejoin:miter;stroke-opacity:1"/>
<path class="bond-1 atom-1 atom-2" d="M 83.0,87.0 L 94.5,119.4" style="fill:none;fill-rule:evenodd;stroke:#000000;stroke-width:2.0px;stroke-linecap:butt;stroke-linejoin:miter;stroke-opacity:1"/>
<path class="bond-2 atom-2 atom-3" d="M 94.5,119.4 L 128.4,125.6" style="fill:none;fill-rule:evenodd;stroke:#000000;stroke-width:2.0px;stroke-linecap:butt;stroke-linejoin:miter;stroke-opacity:1"/>
<path class="bond-3 atom-3 atom-4" d="M 128.4,125.6 L 140.0,158.0" style="fill:none;fill-rule:evenodd;stroke:#000000;stroke-width:2.0px;stroke-linecap:butt;stroke-linejoin:miter;stroke-opacity:1"/>
<path class="bond-4 atom-3 atom-5" d="M 128.4,125.6 L 150.7,99.4" style="fill:none;fill-rule:evenodd;stroke:#000000;stroke-width:2.0px;stroke-linecap:butt;stroke-linejoin:miter;stroke-opacity:1"/>
<path class="bond-5 atom-5 atom-6" d="M 153.6,99.9 L 148.7,86.1" style="fill:none;fill-rule:evenodd;stroke:#000000;stroke-width:2.0px;stroke-linecap:butt;stroke-linejoin:miter;stroke-opacity:1"/>
<path class="bond-5 atom-5 atom-6" d="M 148.7,86.1 L 143.8,72.3" style="fill:none;fill-rule:evenodd;stroke:#FF0000;stroke-width:2.0px;stroke-linecap:butt;stroke-linejoin:miter;stroke-opacity:1"/>
<path class="bond-5 atom-5 atom-6" d="M 148.8,101.6 L 143.8,87.8" style="fill:none;fill-rule:evenodd;stroke:#000000;stroke-width:2.0px;stroke-linecap:butt;stroke-linejoin:miter;stroke-opacity:1"/>
<path class="bond-5 atom-5 atom-6" d="M 143.8,87.8 L 138.9,74.0" style="fill:none;fill-rule:evenodd;stroke:#FF0000;stroke-width:2.0px;stroke-linecap:butt;stroke-linejoin:miter;stroke-opacity:1"/>
<path class="bond-6 atom-5 atom-7" d="M 150.7,99.4 L 164.8,102.0" style="fill:none;fill-rule:evenodd;stroke:#000000;stroke-width:2.0px;stroke-linecap:butt;stroke-linejoin:miter;stroke-opacity:1"/>
<path class="bond-6 atom-5 atom-7" d="M 164.8,102.0 L 178.9,104.5" style="fill:none;fill-rule:evenodd;stroke:#FF0000;stroke-width:2.0px;stroke-linecap:butt;stroke-linejoin:miter;stroke-opacity:1"/>
<path class="bond-7 atom-7 atom-8" d="M 189.7,99.5 L 198.3,89.4" style="fill:none;fill-rule:evenodd;stroke:#FF0000;stroke-width:2.0px;stroke-linecap:butt;stroke-linejoin:miter;stroke-opacity:1"/>
<path class="bond-7 atom-7 atom-8" d="M 198.3,89.4 L 206.8,79.3" style="fill:none;fill-rule:evenodd;stroke:#000000;stroke-width:2.0px;stroke-linecap:butt;stroke-linejoin:miter;stroke-opacity:1"/>
<path class="bond-8 atom-8 atom-9" d="M 206.8,79.3 L 240.7,85.5" style="fill:none;fill-rule:evenodd;stroke:#000000;stroke-width:2.0px;stroke-linecap:butt;stroke-linejoin:miter;stroke-opacity:1"/>
<path class="bond-9 atom-8 atom-10" d="M 209.8,79.9 L 204.8,66.1" style="fill:none;fill-rule:evenodd;stroke:#000000;stroke-width:2.0px;stroke-linecap:butt;stroke-linejoin:miter;stroke-opacity:1"/>
<path class="bond-9 atom-8 atom-10" d="M 204.8,66.1 L 199.9,52.2" style="fill:none;fill-rule:evenodd;stroke:#FF0000;stroke-width:2.0px;stroke-linecap:butt;stroke-linejoin:miter;stroke-opacity:1"/>
<path class="bond-9 atom-8 atom-10" d="M 204.9,81.6 L 200.0,67.8" style="fill:none;fill-rule:evenodd;stroke:#000000;stroke-width:2.0px;stroke-linecap:butt;stroke-linejoin:miter;stroke-opacity:1"/>
<path class="bond-9 atom-8 atom-10" d="M 200.0,67.8 L 195.0,54.0" style="fill:none;fill-rule:evenodd;stroke:#FF0000;stroke-width:2.0px;stroke-linecap:butt;stroke-linejoin:miter;stroke-opacity:1"/>
<path class="bond-10 atom-1 atom-11" d="M 83.0,87.0 L 49.1,80.8" style="fill:none;fill-rule:evenodd;stroke:#000000;stroke-width:2.0px;stroke-linecap:butt;stroke-linejoin:miter;stroke-opacity:1"/>
<path class="bond-11 atom-11 atom-12" d="M 52.0,81.4 L 47.1,67.6" style="fill:none;fill-rule:evenodd;stroke:#000000;stroke-width:2.0px;stroke-linecap:butt;stroke-linejoin:miter;stroke-opacity:1"/>
<path class="bond-11 atom-11 atom-12" d="M 47.1,67.6 L 42.2,53.8" style="fill:none;fill-rule:evenodd;stroke:#FF0000;stroke-width:2.0px;stroke-linecap:butt;stroke-linejoin:miter;stroke-opacity:1"/>
<path class="bond-11 atom-11 atom-12" d="M 47.2,83.1 L 42.2,69.3" style="fill:none;fill-rule:evenodd;stroke:#000000;stroke-width:2.0px;stroke-linecap:butt;stroke-linejoin:miter;stroke-opacity:1"/>
<path class="bond-11 atom-11 atom-12" d="M 42.2,69.3 L 37.3,55.5" style="fill:none;fill-rule:evenodd;stroke:#FF0000;stroke-width:2.0px;stroke-linecap:butt;stroke-linejoin:miter;stroke-opacity:1"/>
<path class="bond-12 atom-11 atom-13" d="M 49.1,80.8 L 40.5,90.9" style="fill:none;fill-rule:evenodd;stroke:#000000;stroke-width:2.0px;stroke-linecap:butt;stroke-linejoin:miter;stroke-opacity:1"/>
<path class="bond-12 atom-11 atom-13" d="M 40.5,90.9 L 32.0,101.0" style="fill:none;fill-rule:evenodd;stroke:#FF0000;stroke-width:2.0px;stroke-linecap:butt;stroke-linejoin:miter;stroke-opacity:1"/>
<path d="M 83.5,88.6 L 83.0,87.0 L 81.3,86.7" style="fill:none;stroke:#000000;stroke-width:2.0px;stroke-linecap:butt;stroke-linejoin:miter;stroke-opacity:1;"/>
<path d="M 94.0,117.8 L 94.5,119.4 L 96.2,119.7" style="fill:none;stroke:#000000;stroke-width:2.0px;stroke-linecap:butt;stroke-linejoin:miter;stroke-opacity:1;"/>
<path d="M 149.6,100.7 L 150.7,99.4 L 151.4,99.5" style="fill:none;stroke:#000000;stroke-width:2.0px;stroke-linecap:butt;stroke-linejoin:miter;stroke-opacity:1;"/>
<path d="M 206.4,79.8 L 206.8,79.3 L 208.5,79.6" style="fill:none;stroke:#000000;stroke-width:2.0px;stroke-linecap:butt;stroke-linejoin:miter;stroke-opacity:1;"/>
<path d="M 50.8,81.1 L 49.1,80.8 L 48.7,81.3" style="fill:none;stroke:#000000;stroke-width:2.0px;stroke-linecap:butt;stroke-linejoin:miter;stroke-opacity:1;"/>
<path class="atom-6" d="M 134.6 67.0 Q 134.6 64.6, 135.8 63.3 Q 136.9 62.0, 139.1 62.0 Q 141.3 62.0, 142.4 63.3 Q 143.6 64.6, 143.6 67.0 Q 143.6 69.4, 142.4 70.7 Q 141.2 72.0, 139.1 72.0 Q 137.0 72.0, 135.8 70.7 Q 134.6 69.4, 134.6 67.0 M 139.1 70.9 Q 140.6 70.9, 141.4 69.9 Q 142.2 68.9, 142.2 67.0 Q 142.2 65.1, 141.4 64.1 Q 140.6 63.1, 139.1 63.1 Q 137.6 63.1, 136.8 64.1 Q 136.0 65.1, 136.0 67.0 Q 136.0 69.0, 136.8 69.9 Q 137.6 70.9, 139.1 70.9 " fill="#FF0000"/>
<path class="atom-7" d="M 180.1 105.6 Q 180.1 103.2, 181.2 101.9 Q 182.4 100.6, 184.5 100.6 Q 186.7 100.6, 187.9 101.9 Q 189.0 103.2, 189.0 105.6 Q 189.0 108.0, 187.9 109.3 Q 186.7 110.6, 184.5 110.6 Q 182.4 110.6, 181.2 109.3 Q 180.1 108.0, 180.1 105.6 M 184.5 109.5 Q 186.0 109.5, 186.8 108.5 Q 187.6 107.5, 187.6 105.6 Q 187.6 103.7, 186.8 102.7 Q 186.0 101.7, 184.5 101.7 Q 183.1 101.7, 182.2 102.7 Q 181.5 103.7, 181.5 105.6 Q 181.5 107.6, 182.2 108.5 Q 183.1 109.5, 184.5 109.5 " fill="#FF0000"/>
<path class="atom-10" d="M 190.8 46.9 Q 190.8 44.6, 191.9 43.3 Q 193.1 42.0, 195.3 42.0 Q 197.4 42.0, 198.6 43.3 Q 199.7 44.6, 199.7 46.9 Q 199.7 49.3, 198.6 50.6 Q 197.4 52.0, 195.3 52.0 Q 193.1 52.0, 191.9 50.6 Q 190.8 49.3, 190.8 46.9 M 195.3 50.9 Q 196.7 50.9, 197.5 49.9 Q 198.4 48.9, 198.4 46.9 Q 198.4 45.0, 197.5 44.0 Q 196.7 43.1, 195.3 43.1 Q 193.8 43.1, 193.0 44.0 Q 192.2 45.0, 192.2 46.9 Q 192.2 48.9, 193.0 49.9 Q 193.8 50.9, 195.3 50.9 " fill="#FF0000"/>
<path class="atom-12" d="M 33.0 48.4 Q 33.0 46.1, 34.2 44.8 Q 35.3 43.5, 37.5 43.5 Q 39.7 43.5, 40.8 44.8 Q 42.0 46.1, 42.0 48.4 Q 42.0 50.8, 40.8 52.2 Q 39.6 53.5, 37.5 53.5 Q 35.4 53.5, 34.2 52.2 Q 33.0 50.8, 33.0 48.4 M 37.5 52.4 Q 39.0 52.4, 39.8 51.4 Q 40.6 50.4, 40.6 48.4 Q 40.6 46.5, 39.8 45.6 Q 39.0 44.6, 37.5 44.6 Q 36.0 44.6, 35.2 45.5 Q 34.4 46.5, 34.4 48.4 Q 34.4 50.4, 35.2 51.4 Q 36.0 52.4, 37.5 52.4 " fill="#FF0000"/>
<path class="atom-13" d="M 12.7 102.2 L 14.0 102.2 L 14.0 106.4 L 19.0 106.4 L 19.0 102.2 L 20.3 102.2 L 20.3 112.0 L 19.0 112.0 L 19.0 107.5 L 14.0 107.5 L 14.0 112.0 L 12.7 112.0 L 12.7 102.2 " fill="#FF0000"/>
<path class="atom-13" d="M 22.3 107.1 Q 22.3 104.8, 23.5 103.4 Q 24.6 102.1, 26.8 102.1 Q 29.0 102.1, 30.1 103.4 Q 31.3 104.8, 31.3 107.1 Q 31.3 109.5, 30.1 110.8 Q 28.9 112.1, 26.8 112.1 Q 24.7 112.1, 23.5 110.8 Q 22.3 109.5, 22.3 107.1 M 26.8 111.0 Q 28.3 111.0, 29.1 110.1 Q 29.9 109.1, 29.9 107.1 Q 29.9 105.2, 29.1 104.2 Q 28.3 103.2, 26.8 103.2 Q 25.3 103.2, 24.5 104.2 Q 23.7 105.2, 23.7 107.1 Q 23.7 109.1, 24.5 110.1 Q 25.3 111.0, 26.8 111.0 " fill="#FF0000"/>
</g>
  </g>
</svg>
