<?xml version='1.0' encoding='ASCII' standalone='yes'?>
<svg xmlns="http://www.w3.org/2000/svg" xmlns:xlink="http://www.w3.org/1999/xlink" version="1.1" width="821.0px" viewBox="0 0 821.0 200.0" height="200.0px">
  <g>
    <g transform="translate(0, 0) scale(1 1) "><!-- END OF HEADER -->
<rect style="opacity:1.0;fill:#FFFFFF;stroke:none" width="247.0" height="200.0" x="0.0" y="0.0"> </rect>
<path class="bond-0 atom-0 atom-1" d="M 179.5,37.3 L 186.9,71.7" style="fill:none;fill-rule:evenodd;stroke:#000000;stroke-width:2.0px;stroke-linecap:butt;stroke-linejoin:miter;stroke-opacity:1"/>
<path class="bond-1 atom-1 atom-2" d="M 186.9,71.7 L 200.8,76.2" style="fill:none;fill-rule:evenodd;stroke:#000000;stroke-width:2.0px;stroke-linecap:butt;stroke-linejoin:miter;stroke-opacity:1"/>
<path class="bond-1 atom-1 atom-2" d="M 200.8,76.2 L 214.7,80.7" style="fill:none;fill-rule:evenodd;stroke:#FF0000;stroke-width:2.0px;stroke-linecap:butt;stroke-linejoin:miter;stroke-opacity:1"/>
<path class="bond-2 atom-1 atom-3" d="M 186.9,71.7 L 160.8,95.3" style="fill:none;fill-rule:evenodd;stroke:#000000;stroke-width:2.0px;stroke-linecap:butt;stroke-linejoin:miter;stroke-opacity:1"/>
<path class="bond-3 atom-3 atom-4" d="M 160.8,95.3 L 168.2,129.7" style="fill:none;fill-rule:evenodd;stroke:#000000;stroke-width:2.0px;stroke-linecap:butt;stroke-linejoin:miter;stroke-opacity:1"/>
<path class="bond-4 atom-3 atom-5" d="M 160.8,95.3 L 127.3,84.5" style="fill:none;fill-rule:evenodd;stroke:#000000;stroke-width:2.0px;stroke-linecap:butt;stroke-linejoin:miter;stroke-opacity:1"/>
<path class="bond-5 atom-5 atom-6" d="M 127.3,84.5 L 101.2,108.1" style="fill:none;fill-rule:evenodd;stroke:#000000;stroke-width:2.0px;stroke-linecap:butt;stroke-linejoin:miter;stroke-opacity:1"/>
<path class="bond-6 atom-6 atom-7" d="M 101.2,108.1 L 104.2,122.2" style="fill:none;fill-rule:evenodd;stroke:#000000;stroke-width:2.0px;stroke-linecap:butt;stroke-linejoin:miter;stroke-opacity:1"/>
<path class="bond-6 atom-6 atom-7" d="M 104.2,122.2 L 107.2,136.4" style="fill:none;fill-rule:evenodd;stroke:#FF0000;stroke-width:2.0px;stroke-linecap:butt;stroke-linejoin:miter;stroke-opacity:1"/>
<path class="bond-7 atom-6 atom-8" d="M 101.2,108.1 L 67.7,97.3" style="fill:none;fill-rule:evenodd;stroke:#000000;stroke-width:2.0px;stroke-linecap:butt;stroke-linejoin:miter;stroke-opacity:1"/>
<path class="bond-8 atom-8 atom-9" d="M 67.7,97.3 L 41.6,120.9" style="fill:none;fill-rule:evenodd;stroke:#000000;stroke-width:2.0px;stroke-linecap:butt;stroke-linejoin:miter;stroke-opacity:1"/>
<path class="bond-9 atom-8 atom-10" d="M 67.7,97.3 L 60.3,62.9" style="fill:none;fill-rule:evenodd;stroke:#000000;stroke-width:2.0px;stroke-linecap:butt;stroke-linejoin:miter;stroke-opacity:1"/>
<path class="bond-10 atom-10 atom-11" d="M 60.9,65.9 L 71.7,56.2" style="fill:none;fill-rule:evenodd;stroke:#000000;stroke-width:2.0px;stroke-linecap:butt;stroke-linejoin:miter;stroke-opacity:1"/>
<path class="bond-10 atom-10 atom-11" d="M 71.7,56.2 L 82.4,46.4" style="fill:none;fill-rule:evenodd;stroke:#FF0000;stroke-width:2.0px;stroke-linecap:butt;stroke-linejoin:miter;stroke-opacity:1"/>
<path class="bond-10 atom-10 atom-11" d="M 57.4,62.0 L 68.1,52.2" style="fill:none;fill-rule:evenodd;stroke:#000000;stroke-width:2.0px;stroke-linecap:butt;stroke-linejoin:miter;stroke-opacity:1"/>
<path class="bond-10 atom-10 atom-11" d="M 68.1,52.2 L 78.9,42.5" style="fill:none;fill-rule:evenodd;stroke:#FF0000;stroke-width:2.0px;stroke-linecap:butt;stroke-linejoin:miter;stroke-opacity:1"/>
<path class="bond-11 atom-10 atom-12" d="M 60.3,62.9 L 46.4,58.4" style="fill:none;fill-rule:evenodd;stroke:#000000;stroke-width:2.0px;stroke-linecap:butt;stroke-linejoin:miter;stroke-opacity:1"/>
<path class="bond-11 atom-10 atom-12" d="M 46.4,58.4 L 32.5,53.9" style="fill:none;fill-rule:evenodd;stroke:#FF0000;stroke-width:2.0px;stroke-linecap:butt;stroke-linejoin:miter;stroke-opacity:1"/>
<path d="M 129.0,85.1 L 127.3,84.5 L 126.0,85.7" style="fill:none;stroke:#000000;stroke-width:2.0px;stroke-linecap:butt;stroke-linejoin:miter;stroke-opacity:1;"/>
<path d="M 60.6,64.6 L 60.3,62.9 L 59.6,62.7" style="fill:none;stroke:#000000;stroke-width:2.0px;stroke-linecap:butt;stroke-linejoin:miter;stroke-opacity:1;"/>
<path class="atom-2" d="M 215.8 82.6 Q 215.8 80.2, 217.0 78.8 Q 218.2 77.5, 220.4 77.5 Q 222.6 77.5, 223.8 78.8 Q 225.0 80.2, 225.0 82.6 Q 225.0 85.0, 223.8 86.4 Q 222.6 87.7, 220.4 87.7 Q 218.2 87.7, 217.0 86.4 Q 215.8 85.0, 215.8 82.6 M 220.4 86.6 Q 221.9 86.6, 222.8 85.6 Q 223.6 84.6, 223.6 82.6 Q 223.6 80.6, 222.8 79.6 Q 221.9 78.6, 220.4 78.6 Q 218.9 78.6, 218.1 79.6 Q 217.3 80.6, 217.3 82.6 Q 217.3 84.6, 218.1 85.6 Q 218.9 86.6, 220.4 86.6 " fill="#FF0000"/>
<path class="atom-2" d="M 226.5 77.6 L 227.9 77.6 L 227.9 81.8 L 233.0 81.8 L 233.0 77.6 L 234.3 77.6 L 234.3 87.6 L 233.0 87.6 L 233.0 83.0 L 227.9 83.0 L 227.9 87.6 L 226.5 87.6 L 226.5 77.6 " fill="#FF0000"/>
<path class="atom-7" d="M 104.0 142.6 Q 104.0 140.2, 105.2 138.9 Q 106.4 137.5, 108.6 137.5 Q 110.8 137.5, 112.0 138.9 Q 113.1 140.2, 113.1 142.6 Q 113.1 145.0, 112.0 146.4 Q 110.8 147.8, 108.6 147.8 Q 106.4 147.8, 105.2 146.4 Q 104.0 145.0, 104.0 142.6 M 108.6 146.6 Q 110.1 146.6, 110.9 145.6 Q 111.7 144.6, 111.7 142.6 Q 111.7 140.6, 110.9 139.6 Q 110.1 138.6, 108.6 138.6 Q 107.1 138.6, 106.2 139.6 Q 105.4 140.6, 105.4 142.6 Q 105.4 144.6, 106.2 145.6 Q 107.1 146.6, 108.6 146.6 " fill="#FF0000"/>
<path class="atom-7" d="M 114.7 137.6 L 116.1 137.6 L 116.1 141.9 L 121.2 141.9 L 121.2 137.6 L 122.5 137.6 L 122.5 147.6 L 121.2 147.6 L 121.2 143.0 L 116.1 143.0 L 116.1 147.6 L 114.7 147.6 L 114.7 137.6 " fill="#FF0000"/>
<path class="atom-11" d="M 81.8 39.3 Q 81.8 36.9, 83.0 35.6 Q 84.2 34.2, 86.4 34.2 Q 88.6 34.2, 89.8 35.6 Q 91.0 36.9, 91.0 39.3 Q 91.0 41.7, 89.8 43.1 Q 88.6 44.5, 86.4 44.5 Q 84.2 44.5, 83.0 43.1 Q 81.8 41.8, 81.8 39.3 M 86.4 43.4 Q 87.9 43.4, 88.7 42.3 Q 89.6 41.3, 89.6 39.3 Q 89.6 37.4, 88.7 36.4 Q 87.9 35.4, 86.4 35.4 Q 84.9 35.4, 84.0 36.4 Q 83.2 37.3, 83.2 39.3 Q 83.2 41.3, 84.0 42.3 Q 84.9 43.4, 86.4 43.4 " fill="#FF0000"/>
<path class="atom-12" d="M 12.4 47.2 L 13.7 47.2 L 13.7 51.4 L 18.8 51.4 L 18.8 47.2 L 20.2 47.2 L 20.2 57.1 L 18.8 57.1 L 18.8 52.5 L 13.7 52.5 L 13.7 57.1 L 12.4 57.1 L 12.4 47.2 " fill="#FF0000"/>
<path class="atom-12" d="M 22.2 52.1 Q 22.2 49.7, 23.4 48.4 Q 24.6 47.1, 26.8 47.1 Q 29.0 47.1, 30.2 48.4 Q 31.4 49.7, 31.4 52.1 Q 31.4 54.5, 30.2 55.9 Q 29.0 57.3, 26.8 57.3 Q 24.6 57.3, 23.4 55.9 Q 22.2 54.6, 22.2 52.1 M 26.8 56.2 Q 28.3 56.2, 29.1 55.2 Q 29.9 54.1, 29.9 52.1 Q 29.9 50.2, 29.1 49.2 Q 28.3 48.2, 26.8 48.2 Q 25.3 48.2, 24.4 49.2 Q 23.6 50.2, 23.6 52.1 Q 23.6 54.1, 24.4 55.2 Q 25.3 56.2, 26.8 56.2 " fill="#FF0000"/>
<path class="legend" d="M 114.8 181.9 Q 114.8 179.6, 115.5 177.7 Q 116.2 175.8, 117.5 173.8 L 118.4 174.4 Q 117.3 176.3, 116.8 178.0 Q 116.3 179.7, 116.3 181.9 Q 116.3 184.0, 116.8 185.8 Q 117.3 187.5, 118.4 189.4 L 117.5 190.0 Q 116.2 188.0, 115.5 186.1 Q 114.8 184.2, 114.8 181.9 " fill="#000000"/>
<path class="legend" d="M 119.3 177.3 Q 119.7 176.2, 120.7 175.6 Q 121.7 175.0, 123.1 175.0 Q 124.8 175.0, 125.7 175.9 Q 126.7 176.8, 126.7 178.5 Q 126.7 180.2, 125.4 181.7 Q 124.2 183.3, 121.7 185.2 L 126.9 185.2 L 126.9 186.4 L 119.3 186.4 L 119.3 185.4 Q 121.4 183.9, 122.6 182.8 Q 123.9 181.6, 124.5 180.6 Q 125.1 179.6, 125.1 178.6 Q 125.1 177.5, 124.5 176.9 Q 124.0 176.3, 123.1 176.3 Q 122.1 176.3, 121.5 176.6 Q 120.9 177.0, 120.5 177.8 L 119.3 177.3 " fill="#000000"/>
<path class="legend" d="M 131.9 181.9 Q 131.9 184.2, 131.2 186.1 Q 130.5 188.0, 129.2 190.0 L 128.3 189.4 Q 129.4 187.5, 129.9 185.8 Q 130.4 184.0, 130.4 181.9 Q 130.4 179.7, 129.9 178.0 Q 129.4 176.3, 128.3 174.4 L 129.2 173.8 Q 130.5 175.8, 131.2 177.7 Q 131.9 179.6, 131.9 181.9 " fill="#000000"/>
</g>
    <g transform="translate(247.0, 0) scale(1 1) "><line x1="5" y1="100" x2="35" y2="100" style="stroke:rgb(0,0,0);stroke-width:2"/>
  <line x1="34" y1="100" x2="29" y2="95" style="stroke:rgb(0,0,0);stroke-width:2"/>
  <line x1="34" y1="100" x2="29" y2="105" style="stroke:rgb(0,0,0);stroke-width:2"/>
</g>
    <g transform="translate(287.0, 0) scale(1 1) "><!-- END OF HEADER -->
<rect style="opacity:1.0;fill:#FFFFFF;stroke:none" width="240.0" height="200.0" x="0.0" y="0.0"> </rect>
<path class="bond-0 atom-0 atom-1" d="M 225.1,39.4 L 204.7,78.1" style="fill:none;fill-rule:evenodd;stroke:#000000;stroke-width:2.0px;stroke-linecap:butt;stroke-linejoin:miter;stroke-opacity:1"/>
<path class="bond-1 atom-1 atom-2" d="M 204.7,78.1 L 228.0,115.1" style="fill:none;fill-rule:evenodd;stroke:#000000;stroke-width:2.0px;stroke-linecap:butt;stroke-linejoin:miter;stroke-opacity:1"/>
<path class="bond-2 atom-2 atom-3" d="M 228.0,115.1 L 219.8,130.6" style="fill:none;fill-rule:evenodd;stroke:#000000;stroke-width:2.0px;stroke-linecap:butt;stroke-linejoin:miter;stroke-opacity:1"/>
<path class="bond-2 atom-2 atom-3" d="M 219.8,130.6 L 211.7,146.0" style="fill:none;fill-rule:evenodd;stroke:#FF0000;stroke-width:2.0px;stroke-linecap:butt;stroke-linejoin:miter;stroke-opacity:1"/>
<path class="bond-3 atom-1 atom-4" d="M 204.7,78.1 L 161.0,79.7" style="fill:none;fill-rule:evenodd;stroke:#000000;stroke-width:2.0px;stroke-linecap:butt;stroke-linejoin:miter;stroke-opacity:1"/>
<path class="bond-4 atom-4 atom-5" d="M 161.0,79.7 L 140.6,118.4" style="fill:none;fill-rule:evenodd;stroke:#000000;stroke-width:2.0px;stroke-linecap:butt;stroke-linejoin:miter;stroke-opacity:1"/>
<path class="bond-5 atom-5 atom-6" d="M 140.6,118.4 L 149.8,133.1" style="fill:none;fill-rule:evenodd;stroke:#000000;stroke-width:2.0px;stroke-linecap:butt;stroke-linejoin:miter;stroke-opacity:1"/>
<path class="bond-5 atom-5 atom-6" d="M 149.8,133.1 L 159.0,147.7" style="fill:none;fill-rule:evenodd;stroke:#FF0000;stroke-width:2.0px;stroke-linecap:butt;stroke-linejoin:miter;stroke-opacity:1"/>
<path class="bond-6 atom-5 atom-7" d="M 140.6,118.4 L 96.9,120.1" style="fill:none;fill-rule:evenodd;stroke:#000000;stroke-width:2.0px;stroke-linecap:butt;stroke-linejoin:miter;stroke-opacity:1"/>
<path class="bond-7 atom-7 atom-8" d="M 96.9,120.1 L 76.5,158.8" style="fill:none;fill-rule:evenodd;stroke:#000000;stroke-width:2.0px;stroke-linecap:butt;stroke-linejoin:miter;stroke-opacity:1"/>
<path class="bond-8 atom-7 atom-9" d="M 96.9,120.1 L 73.6,83.1" style="fill:none;fill-rule:evenodd;stroke:#000000;stroke-width:2.0px;stroke-linecap:butt;stroke-linejoin:miter;stroke-opacity:1"/>
<path class="bond-9 atom-9 atom-10" d="M 75.6,86.3 L 84.2,70.0" style="fill:none;fill-rule:evenodd;stroke:#000000;stroke-width:2.0px;stroke-linecap:butt;stroke-linejoin:miter;stroke-opacity:1"/>
<path class="bond-9 atom-9 atom-10" d="M 84.2,70.0 L 92.8,53.8" style="fill:none;fill-rule:evenodd;stroke:#FF0000;stroke-width:2.0px;stroke-linecap:butt;stroke-linejoin:miter;stroke-opacity:1"/>
<path class="bond-9 atom-9 atom-10" d="M 69.8,83.2 L 78.4,67.0" style="fill:none;fill-rule:evenodd;stroke:#000000;stroke-width:2.0px;stroke-linecap:butt;stroke-linejoin:miter;stroke-opacity:1"/>
<path class="bond-9 atom-9 atom-10" d="M 78.4,67.0 L 86.9,50.8" style="fill:none;fill-rule:evenodd;stroke:#FF0000;stroke-width:2.0px;stroke-linecap:butt;stroke-linejoin:miter;stroke-opacity:1"/>
<path class="bond-10 atom-9 atom-11" d="M 73.6,83.1 L 55.3,83.8" style="fill:none;fill-rule:evenodd;stroke:#000000;stroke-width:2.0px;stroke-linecap:butt;stroke-linejoin:miter;stroke-opacity:1"/>
<path class="bond-10 atom-9 atom-11" d="M 55.3,83.8 L 37.0,84.5" style="fill:none;fill-rule:evenodd;stroke:#FF0000;stroke-width:2.0px;stroke-linecap:butt;stroke-linejoin:miter;stroke-opacity:1"/>
<path d="M 226.8,113.2 L 228.0,115.1 L 227.6,115.8" style="fill:none;stroke:#000000;stroke-width:2.0px;stroke-linecap:butt;stroke-linejoin:miter;stroke-opacity:1;"/>
<path d="M 163.2,79.6 L 161.0,79.7 L 160.0,81.7" style="fill:none;stroke:#000000;stroke-width:2.0px;stroke-linecap:butt;stroke-linejoin:miter;stroke-opacity:1;"/>
<path d="M 74.8,84.9 L 73.6,83.1 L 72.7,83.1" style="fill:none;stroke:#000000;stroke-width:2.0px;stroke-linecap:butt;stroke-linejoin:miter;stroke-opacity:1;"/>
<path class="atom-3" d="M 189.7 147.6 L 191.4 147.6 L 191.4 152.9 L 197.7 152.9 L 197.7 147.6 L 199.4 147.6 L 199.4 160.0 L 197.7 160.0 L 197.7 154.3 L 191.4 154.3 L 191.4 160.0 L 189.7 160.0 L 189.7 147.6 " fill="#FF0000"/>
<path class="atom-3" d="M 201.9 153.8 Q 201.9 150.8, 203.4 149.1 Q 204.8 147.5, 207.6 147.5 Q 210.3 147.5, 211.8 149.1 Q 213.3 150.8, 213.3 153.8 Q 213.3 156.8, 211.8 158.5 Q 210.3 160.2, 207.6 160.2 Q 204.9 160.2, 203.4 158.5 Q 201.9 156.8, 201.9 153.8 M 207.6 158.8 Q 209.5 158.8, 210.5 157.5 Q 211.5 156.3, 211.5 153.8 Q 211.5 151.4, 210.5 150.1 Q 209.5 148.9, 207.6 148.9 Q 205.7 148.9, 204.7 150.1 Q 203.7 151.3, 203.7 153.8 Q 203.7 156.3, 204.7 157.5 Q 205.7 158.8, 207.6 158.8 " fill="#FF0000"/>
<path class="atom-6" d="M 158.2 155.5 Q 158.2 152.5, 159.7 150.8 Q 161.2 149.2, 163.9 149.2 Q 166.6 149.2, 168.1 150.8 Q 169.6 152.5, 169.6 155.5 Q 169.6 158.5, 168.1 160.2 Q 166.6 161.9, 163.9 161.9 Q 161.2 161.9, 159.7 160.2 Q 158.2 158.5, 158.2 155.5 M 163.9 160.5 Q 165.8 160.5, 166.8 159.2 Q 167.8 157.9, 167.8 155.5 Q 167.8 153.0, 166.8 151.8 Q 165.8 150.6, 163.9 150.6 Q 162.0 150.6, 161.0 151.8 Q 160.0 153.0, 160.0 155.5 Q 160.0 158.0, 161.0 159.2 Q 162.0 160.5, 163.9 160.5 " fill="#FF0000"/>
<path class="atom-6" d="M 171.5 149.3 L 173.2 149.3 L 173.2 154.6 L 179.5 154.6 L 179.5 149.3 L 181.2 149.3 L 181.2 161.7 L 179.5 161.7 L 179.5 156.0 L 173.2 156.0 L 173.2 161.7 L 171.5 161.7 L 171.5 149.3 " fill="#FF0000"/>
<path class="atom-10" d="M 88.3 44.4 Q 88.3 41.5, 89.8 39.8 Q 91.3 38.1, 94.0 38.1 Q 96.8 38.1, 98.2 39.8 Q 99.7 41.5, 99.7 44.4 Q 99.7 47.4, 98.2 49.1 Q 96.7 50.8, 94.0 50.8 Q 91.3 50.8, 89.8 49.1 Q 88.3 47.5, 88.3 44.4 M 94.0 49.4 Q 95.9 49.4, 96.9 48.2 Q 98.0 46.9, 98.0 44.4 Q 98.0 42.0, 96.9 40.8 Q 95.9 39.5, 94.0 39.5 Q 92.1 39.5, 91.1 40.8 Q 90.1 42.0, 90.1 44.4 Q 90.1 46.9, 91.1 48.2 Q 92.1 49.4, 94.0 49.4 " fill="#FF0000"/>
<path class="atom-11" d="M 12.0 78.6 L 13.7 78.6 L 13.7 83.9 L 20.0 83.9 L 20.0 78.6 L 21.7 78.6 L 21.7 91.0 L 20.0 91.0 L 20.0 85.3 L 13.7 85.3 L 13.7 91.0 L 12.0 91.0 L 12.0 78.6 " fill="#FF0000"/>
<path class="atom-11" d="M 24.2 84.8 Q 24.2 81.8, 25.7 80.1 Q 27.2 78.5, 29.9 78.5 Q 32.7 78.5, 34.1 80.1 Q 35.6 81.8, 35.6 84.8 Q 35.6 87.8, 34.1 89.5 Q 32.6 91.2, 29.9 91.2 Q 27.2 91.2, 25.7 89.5 Q 24.2 87.8, 24.2 84.8 M 29.9 89.8 Q 31.8 89.8, 32.8 88.5 Q 33.9 87.3, 33.9 84.8 Q 33.9 82.3, 32.8 81.1 Q 31.8 79.9, 29.9 79.9 Q 28.0 79.9, 27.0 81.1 Q 26.0 82.3, 26.0 84.8 Q 26.0 87.3, 27.0 88.5 Q 28.0 89.8, 29.9 89.8 " fill="#FF0000"/>
</g>
    <g transform="translate(527.0, 0) scale(1 1) "><line x1="15" y1="100" x2="25" y2="100" style="stroke:rgb(0,0,0);stroke-width:2"/>
  <line x1="20" y1="95" x2="20" y2="105" style="stroke:rgb(0,0,0);stroke-width:2"/>
</g>
    <g transform="translate(567.0, 0) scale(1 1) "><!-- END OF HEADER -->
<rect style="opacity:1.0;fill:#FFFFFF;stroke:none" width="254.0" height="200.0" x="0.0" y="0.0"> </rect>
<path class="bond-0 atom-0 atom-1" d="M 190.8,50.5 L 195.2,84.7" style="fill:none;fill-rule:evenodd;stroke:#000000;stroke-width:2.0px;stroke-linecap:butt;stroke-linejoin:miter;stroke-opacity:1"/>
<path class="bond-1 atom-1 atom-2" d="M 195.2,84.7 L 208.3,90.2" style="fill:none;fill-rule:evenodd;stroke:#000000;stroke-width:2.0px;stroke-linecap:butt;stroke-linejoin:miter;stroke-opacity:1"/>
<path class="bond-1 atom-1 atom-2" d="M 208.3,90.2 L 221.4,95.7" style="fill:none;fill-rule:evenodd;stroke:#FF0000;stroke-width:2.0px;stroke-linecap:butt;stroke-linejoin:miter;stroke-opacity:1"/>
<path class="bond-2 atom-1 atom-3" d="M 195.2,84.7 L 167.7,105.6" style="fill:none;fill-rule:evenodd;stroke:#000000;stroke-width:2.0px;stroke-linecap:butt;stroke-linejoin:miter;stroke-opacity:1"/>
<path class="bond-3 atom-3 atom-4" d="M 167.7,105.6 L 172.1,139.9" style="fill:none;fill-rule:evenodd;stroke:#000000;stroke-width:2.0px;stroke-linecap:butt;stroke-linejoin:miter;stroke-opacity:1"/>
<path class="bond-4 atom-3 atom-5" d="M 167.7,105.6 L 135.8,92.3" style="fill:none;fill-rule:evenodd;stroke:#000000;stroke-width:2.0px;stroke-linecap:butt;stroke-linejoin:miter;stroke-opacity:1"/>
<path class="bond-5 atom-5 atom-6" d="M 135.8,92.3 L 108.4,113.2" style="fill:none;fill-rule:evenodd;stroke:#000000;stroke-width:2.0px;stroke-linecap:butt;stroke-linejoin:miter;stroke-opacity:1"/>
<path class="bond-6 atom-6 atom-7" d="M 108.4,113.2 L 110.2,127.3" style="fill:none;fill-rule:evenodd;stroke:#000000;stroke-width:2.0px;stroke-linecap:butt;stroke-linejoin:miter;stroke-opacity:1"/>
<path class="bond-6 atom-6 atom-7" d="M 110.2,127.3 L 112.0,141.4" style="fill:none;fill-rule:evenodd;stroke:#FF0000;stroke-width:2.0px;stroke-linecap:butt;stroke-linejoin:miter;stroke-opacity:1"/>
<path class="bond-7 atom-6 atom-8" d="M 108.4,113.2 L 76.5,99.9" style="fill:none;fill-rule:evenodd;stroke:#000000;stroke-width:2.0px;stroke-linecap:butt;stroke-linejoin:miter;stroke-opacity:1"/>
<path class="bond-8 atom-8 atom-9" d="M 76.5,99.9 L 89.8,68.1" style="fill:none;fill-rule:evenodd;stroke:#000000;stroke-width:2.0px;stroke-linecap:butt;stroke-linejoin:miter;stroke-opacity:1"/>
<path class="bond-9 atom-8 atom-10" d="M 76.5,99.9 L 63.2,131.8" style="fill:none;fill-rule:evenodd;stroke:#000000;stroke-width:2.0px;stroke-linecap:butt;stroke-linejoin:miter;stroke-opacity:1"/>
<path class="bond-10 atom-8 atom-11" d="M 76.5,99.9 L 44.7,86.6" style="fill:none;fill-rule:evenodd;stroke:#000000;stroke-width:2.0px;stroke-linecap:butt;stroke-linejoin:miter;stroke-opacity:1"/>
<path class="bond-11 atom-11 atom-12" d="M 44.3,83.6 L 32.8,92.4" style="fill:none;fill-rule:evenodd;stroke:#000000;stroke-width:2.0px;stroke-linecap:butt;stroke-linejoin:miter;stroke-opacity:1"/>
<path class="bond-11 atom-11 atom-12" d="M 32.8,92.4 L 21.2,101.2" style="fill:none;fill-rule:evenodd;stroke:#FF0000;stroke-width:2.0px;stroke-linecap:butt;stroke-linejoin:miter;stroke-opacity:1"/>
<path class="bond-11 atom-11 atom-12" d="M 47.4,87.8 L 35.9,96.5" style="fill:none;fill-rule:evenodd;stroke:#000000;stroke-width:2.0px;stroke-linecap:butt;stroke-linejoin:miter;stroke-opacity:1"/>
<path class="bond-11 atom-11 atom-12" d="M 35.9,96.5 L 24.4,105.3" style="fill:none;fill-rule:evenodd;stroke:#FF0000;stroke-width:2.0px;stroke-linecap:butt;stroke-linejoin:miter;stroke-opacity:1"/>
<path class="bond-12 atom-11 atom-13" d="M 44.7,86.6 L 42.9,72.6" style="fill:none;fill-rule:evenodd;stroke:#000000;stroke-width:2.0px;stroke-linecap:butt;stroke-linejoin:miter;stroke-opacity:1"/>
<path class="bond-12 atom-11 atom-13" d="M 42.9,72.6 L 41.1,58.6" style="fill:none;fill-rule:evenodd;stroke:#FF0000;stroke-width:2.0px;stroke-linecap:butt;stroke-linejoin:miter;stroke-opacity:1"/>
<path d="M 137.4,93.0 L 135.8,92.3 L 134.5,93.4" style="fill:none;stroke:#000000;stroke-width:2.0px;stroke-linecap:butt;stroke-linejoin:miter;stroke-opacity:1;"/>
<path d="M 46.3,87.3 L 44.7,86.6 L 44.6,85.9" style="fill:none;stroke:#000000;stroke-width:2.0px;stroke-linecap:butt;stroke-linejoin:miter;stroke-opacity:1;"/>
<path class="atom-2" d="M 222.5 98.1 Q 222.5 95.7, 223.7 94.4 Q 224.9 93.1, 227.0 93.1 Q 229.2 93.1, 230.4 94.4 Q 231.5 95.7, 231.5 98.1 Q 231.5 100.4, 230.4 101.8 Q 229.2 103.1, 227.0 103.1 Q 224.9 103.1, 223.7 101.8 Q 222.5 100.5, 222.5 98.1 M 227.0 102.0 Q 228.5 102.0, 229.3 101.0 Q 230.1 100.0, 230.1 98.1 Q 230.1 96.2, 229.3 95.2 Q 228.5 94.2, 227.0 94.2 Q 225.5 94.2, 224.7 95.2 Q 223.9 96.1, 223.9 98.1 Q 223.9 100.0, 224.7 101.0 Q 225.5 102.0, 227.0 102.0 " fill="#FF0000"/>
<path class="atom-2" d="M 233.0 93.2 L 234.4 93.2 L 234.4 97.4 L 239.4 97.4 L 239.4 93.2 L 240.7 93.2 L 240.7 103.0 L 239.4 103.0 L 239.4 98.5 L 234.4 98.5 L 234.4 103.0 L 233.0 103.0 L 233.0 93.2 " fill="#FF0000"/>
<path class="atom-7" d="M 108.3 147.5 Q 108.3 145.2, 109.4 143.9 Q 110.6 142.6, 112.8 142.6 Q 114.9 142.6, 116.1 143.9 Q 117.3 145.2, 117.3 147.5 Q 117.3 149.9, 116.1 151.3 Q 114.9 152.6, 112.8 152.6 Q 110.6 152.6, 109.4 151.3 Q 108.3 149.9, 108.3 147.5 M 112.8 151.5 Q 114.3 151.5, 115.1 150.5 Q 115.9 149.5, 115.9 147.5 Q 115.9 145.6, 115.1 144.6 Q 114.3 143.7, 112.8 143.7 Q 111.3 143.7, 110.5 144.6 Q 109.7 145.6, 109.7 147.5 Q 109.7 149.5, 110.5 150.5 Q 111.3 151.5, 112.8 151.5 " fill="#FF0000"/>
<path class="atom-7" d="M 118.8 142.7 L 120.1 142.7 L 120.1 146.8 L 125.1 146.8 L 125.1 142.7 L 126.4 142.7 L 126.4 152.4 L 125.1 152.4 L 125.1 147.9 L 120.1 147.9 L 120.1 152.4 L 118.8 152.4 L 118.8 142.7 " fill="#FF0000"/>
<path class="atom-12" d="M 12.7 107.6 Q 12.7 105.2, 13.9 103.9 Q 15.0 102.6, 17.2 102.6 Q 19.4 102.6, 20.5 103.9 Q 21.7 105.2, 21.7 107.6 Q 21.7 109.9, 20.5 111.3 Q 19.3 112.6, 17.2 112.6 Q 15.0 112.6, 13.9 111.3 Q 12.7 109.9, 12.7 107.6 M 17.2 111.5 Q 18.7 111.5, 19.5 110.5 Q 20.3 109.5, 20.3 107.6 Q 20.3 105.6, 19.5 104.7 Q 18.7 103.7, 17.2 103.7 Q 15.7 103.7, 14.9 104.7 Q 14.1 105.6, 14.1 107.6 Q 14.1 109.5, 14.9 110.5 Q 15.7 111.5, 17.2 111.5 " fill="#FF0000"/>
<path class="atom-13" d="M 35.8 52.4 Q 35.8 50.0, 36.9 48.7 Q 38.1 47.4, 40.3 47.4 Q 42.4 47.4, 43.6 48.7 Q 44.8 50.0, 44.8 52.4 Q 44.8 54.7, 43.6 56.1 Q 42.4 57.4, 40.3 57.4 Q 38.1 57.4, 36.9 56.1 Q 35.8 54.8, 35.8 52.4 M 40.3 56.3 Q 41.8 56.3, 42.6 55.3 Q 43.4 54.3, 43.4 52.4 Q 43.4 50.5, 42.6 49.5 Q 41.8 48.5, 40.3 48.5 Q 38.8 48.5, 38.0 49.5 Q 37.2 50.4, 37.2 52.4 Q 37.2 54.3, 38.0 55.3 Q 38.8 56.3, 40.3 56.3 " fill="#FF0000"/>
<path class="atom-13" d="M 46.3 47.5 L 47.6 47.5 L 47.6 51.7 L 52.6 51.7 L 52.6 47.5 L 53.9 47.5 L 53.9 57.3 L 52.6 57.3 L 52.6 52.8 L 47.6 52.8 L 47.6 57.3 L 46.3 57.3 L 46.3 47.5 " fill="#FF0000"/>
</g>
  </g>
</svg>
