<?xml version='1.0' encoding='ASCII' standalone='yes'?>
<svg xmlns="http://www.w3.org/2000/svg" xmlns:xlink="http://www.w3.org/1999/xlink" version="1.1" width="843.0px" viewBox="0 0 843.0 200.0" height="200.0px">
  <g>
    <g transform="translate(0, 0) scale(1 1) "><!-- END OF HEADER -->
<rect style="opacity:1.0;fill:#FFFFFF;stroke:none" width="265.0" height="200.0" x="0.0" y="0.0"> </rect>
<path class="bond-0 atom-0 atom-1" d="M 17.9,74.8 L 58.3,89.7" style="fill:none;fill-rule:evenodd;stroke:#000000;stroke-width:2.0px;stroke-linecap:butt;stroke-linejoin:miter;stroke-opacity:1"/>
<path class="bond-1 atom-1 atom-2" d="M 58.3,89.7 L 43.3,130.1" style="fill:none;fill-rule:evenodd;stroke:#000000;stroke-width:2.0px;stroke-linecap:butt;stroke-linejoin:miter;stroke-opacity:1"/>
<path class="bond-2 atom-2 atom-3" d="M 43.3,130.1 L 53.9,142.9" style="fill:none;fill-rule:evenodd;stroke:#000000;stroke-width:2.0px;stroke-linecap:butt;stroke-linejoin:miter;stroke-opacity:1"/>
<path class="bond-2 atom-2 atom-3" d="M 53.9,142.9 L 64.5,155.7" style="fill:none;fill-rule:evenodd;stroke:#FF0000;stroke-width:2.0px;stroke-linecap:butt;stroke-linejoin:miter;stroke-opacity:1"/>
<path class="bond-3 atom-1 atom-4" d="M 58.3,89.7 L 98.6,104.7" style="fill:none;fill-rule:evenodd;stroke:#000000;stroke-width:2.0px;stroke-linecap:butt;stroke-linejoin:miter;stroke-opacity:1"/>
<path class="bond-4 atom-4 atom-5" d="M 98.6,104.7 L 131.8,77.2" style="fill:none;fill-rule:evenodd;stroke:#000000;stroke-width:2.0px;stroke-linecap:butt;stroke-linejoin:miter;stroke-opacity:1"/>
<path class="bond-5 atom-5 atom-6" d="M 131.8,77.2 L 172.2,92.1" style="fill:none;fill-rule:evenodd;stroke:#000000;stroke-width:2.0px;stroke-linecap:butt;stroke-linejoin:miter;stroke-opacity:1"/>
<path class="bond-6 atom-6 atom-7" d="M 172.2,92.1 L 212.6,107.1" style="fill:none;fill-rule:evenodd;stroke:#000000;stroke-width:2.0px;stroke-linecap:butt;stroke-linejoin:miter;stroke-opacity:1"/>
<path class="bond-7 atom-6 atom-8" d="M 172.2,92.1 L 157.2,132.5" style="fill:none;fill-rule:evenodd;stroke:#000000;stroke-width:2.0px;stroke-linecap:butt;stroke-linejoin:miter;stroke-opacity:1"/>
<path class="bond-8 atom-8 atom-9" d="M 157.2,132.5 L 167.8,145.3" style="fill:none;fill-rule:evenodd;stroke:#000000;stroke-width:2.0px;stroke-linecap:butt;stroke-linejoin:miter;stroke-opacity:1"/>
<path class="bond-8 atom-8 atom-9" d="M 167.8,145.3 L 178.4,158.1" style="fill:none;fill-rule:evenodd;stroke:#FF0000;stroke-width:2.0px;stroke-linecap:butt;stroke-linejoin:miter;stroke-opacity:1"/>
<path class="bond-9 atom-6 atom-10" d="M 172.2,92.1 L 187.1,51.7" style="fill:none;fill-rule:evenodd;stroke:#000000;stroke-width:2.0px;stroke-linecap:butt;stroke-linejoin:miter;stroke-opacity:1"/>
<path class="bond-10 atom-10 atom-11" d="M 190.8,51.1 L 179.7,37.7" style="fill:none;fill-rule:evenodd;stroke:#000000;stroke-width:2.0px;stroke-linecap:butt;stroke-linejoin:miter;stroke-opacity:1"/>
<path class="bond-10 atom-10 atom-11" d="M 179.7,37.7 L 168.6,24.3" style="fill:none;fill-rule:evenodd;stroke:#FF0000;stroke-width:2.0px;stroke-linecap:butt;stroke-linejoin:miter;stroke-opacity:1"/>
<path class="bond-10 atom-10 atom-11" d="M 185.8,55.2 L 174.7,41.8" style="fill:none;fill-rule:evenodd;stroke:#000000;stroke-width:2.0px;stroke-linecap:butt;stroke-linejoin:miter;stroke-opacity:1"/>
<path class="bond-10 atom-10 atom-11" d="M 174.7,41.8 L 163.6,28.4" style="fill:none;fill-rule:evenodd;stroke:#FF0000;stroke-width:2.0px;stroke-linecap:butt;stroke-linejoin:miter;stroke-opacity:1"/>
<path class="bond-11 atom-10 atom-12" d="M 187.1,51.7 L 204.9,48.7" style="fill:none;fill-rule:evenodd;stroke:#000000;stroke-width:2.0px;stroke-linecap:butt;stroke-linejoin:miter;stroke-opacity:1"/>
<path class="bond-11 atom-10 atom-12" d="M 204.9,48.7 L 222.6,45.7" style="fill:none;fill-rule:evenodd;stroke:#FF0000;stroke-width:2.0px;stroke-linecap:butt;stroke-linejoin:miter;stroke-opacity:1"/>
<path class="bond-12 atom-1 atom-13" d="M 58.3,89.7 L 73.2,49.3" style="fill:none;fill-rule:evenodd;stroke:#000000;stroke-width:2.0px;stroke-linecap:butt;stroke-linejoin:miter;stroke-opacity:1"/>
<path class="bond-13 atom-13 atom-14" d="M 76.9,48.7 L 65.8,35.3" style="fill:none;fill-rule:evenodd;stroke:#000000;stroke-width:2.0px;stroke-linecap:butt;stroke-linejoin:miter;stroke-opacity:1"/>
<path class="bond-13 atom-13 atom-14" d="M 65.8,35.3 L 54.6,21.9" style="fill:none;fill-rule:evenodd;stroke:#FF0000;stroke-width:2.0px;stroke-linecap:butt;stroke-linejoin:miter;stroke-opacity:1"/>
<path class="bond-13 atom-13 atom-14" d="M 71.9,52.8 L 60.8,39.4" style="fill:none;fill-rule:evenodd;stroke:#000000;stroke-width:2.0px;stroke-linecap:butt;stroke-linejoin:miter;stroke-opacity:1"/>
<path class="bond-13 atom-13 atom-14" d="M 60.8,39.4 L 49.7,26.0" style="fill:none;fill-rule:evenodd;stroke:#FF0000;stroke-width:2.0px;stroke-linecap:butt;stroke-linejoin:miter;stroke-opacity:1"/>
<path class="bond-14 atom-13 atom-15" d="M 73.2,49.3 L 90.9,46.3" style="fill:none;fill-rule:evenodd;stroke:#000000;stroke-width:2.0px;stroke-linecap:butt;stroke-linejoin:miter;stroke-opacity:1"/>
<path class="bond-14 atom-13 atom-15" d="M 90.9,46.3 L 108.6,43.3" style="fill:none;fill-rule:evenodd;stroke:#FF0000;stroke-width:2.0px;stroke-linecap:butt;stroke-linejoin:miter;stroke-opacity:1"/>
<path d="M 44.1,128.1 L 43.3,130.1 L 43.8,130.7" style="fill:none;stroke:#000000;stroke-width:2.0px;stroke-linecap:butt;stroke-linejoin:miter;stroke-opacity:1;"/>
<path d="M 96.6,103.9 L 98.6,104.7 L 100.3,103.3" style="fill:none;stroke:#000000;stroke-width:2.0px;stroke-linecap:butt;stroke-linejoin:miter;stroke-opacity:1;"/>
<path d="M 130.1,78.5 L 131.8,77.2 L 133.8,77.9" style="fill:none;stroke:#000000;stroke-width:2.0px;stroke-linecap:butt;stroke-linejoin:miter;stroke-opacity:1;"/>
<path d="M 158.0,130.5 L 157.2,132.5 L 157.8,133.1" style="fill:none;stroke:#000000;stroke-width:2.0px;stroke-linecap:butt;stroke-linejoin:miter;stroke-opacity:1;"/>
<path d="M 186.4,53.7 L 187.1,51.7 L 188.0,51.6" style="fill:none;stroke:#000000;stroke-width:2.0px;stroke-linecap:butt;stroke-linejoin:miter;stroke-opacity:1;"/>
<path d="M 72.5,51.3 L 73.2,49.3 L 74.1,49.2" style="fill:none;stroke:#000000;stroke-width:2.0px;stroke-linecap:butt;stroke-linejoin:miter;stroke-opacity:1;"/>
<path class="atom-3" d="M 65.2 163.3 Q 65.2 160.3, 66.7 158.7 Q 68.1 157.1, 70.8 157.1 Q 73.5 157.1, 75.0 158.7 Q 76.4 160.3, 76.4 163.3 Q 76.4 166.2, 74.9 167.9 Q 73.5 169.6, 70.8 169.6 Q 68.1 169.6, 66.7 167.9 Q 65.2 166.3, 65.2 163.3 M 70.8 168.2 Q 72.7 168.2, 73.7 167.0 Q 74.7 165.7, 74.7 163.3 Q 74.7 160.9, 73.7 159.7 Q 72.7 158.5, 70.8 158.5 Q 68.9 158.5, 67.9 159.7 Q 66.9 160.9, 66.9 163.3 Q 66.9 165.7, 67.9 167.0 Q 68.9 168.2, 70.8 168.2 " fill="#FF0000"/>
<path class="atom-3" d="M 78.3 157.2 L 80.0 157.2 L 80.0 162.4 L 86.2 162.4 L 86.2 157.2 L 87.8 157.2 L 87.8 169.4 L 86.2 169.4 L 86.2 163.8 L 80.0 163.8 L 80.0 169.4 L 78.3 169.4 L 78.3 157.2 " fill="#FF0000"/>
<path class="atom-9" d="M 179.1 165.7 Q 179.1 162.7, 180.6 161.1 Q 182.0 159.5, 184.7 159.5 Q 187.4 159.5, 188.9 161.1 Q 190.3 162.7, 190.3 165.7 Q 190.3 168.6, 188.9 170.3 Q 187.4 172.0, 184.7 172.0 Q 182.0 172.0, 180.6 170.3 Q 179.1 168.7, 179.1 165.7 M 184.7 170.6 Q 186.6 170.6, 187.6 169.4 Q 188.6 168.1, 188.6 165.7 Q 188.6 163.3, 187.6 162.1 Q 186.6 160.9, 184.7 160.9 Q 182.9 160.9, 181.9 162.1 Q 180.9 163.3, 180.9 165.7 Q 180.9 168.1, 181.9 169.4 Q 182.9 170.6, 184.7 170.6 " fill="#FF0000"/>
<path class="atom-9" d="M 192.2 159.6 L 193.9 159.6 L 193.9 164.8 L 200.1 164.8 L 200.1 159.6 L 201.8 159.6 L 201.8 171.8 L 200.1 171.8 L 200.1 166.2 L 193.9 166.2 L 193.9 171.8 L 192.2 171.8 L 192.2 159.6 " fill="#FF0000"/>
<path class="atom-11" d="M 154.0 18.6 Q 154.0 15.7, 155.5 14.0 Q 156.9 12.4, 159.6 12.4 Q 162.3 12.4, 163.8 14.0 Q 165.2 15.7, 165.2 18.6 Q 165.2 21.6, 163.8 23.3 Q 162.3 24.9, 159.6 24.9 Q 156.9 24.9, 155.5 23.3 Q 154.0 21.6, 154.0 18.6 M 159.6 23.5 Q 161.5 23.5, 162.5 22.3 Q 163.5 21.0, 163.5 18.6 Q 163.5 16.2, 162.5 15.0 Q 161.5 13.8, 159.6 13.8 Q 157.8 13.8, 156.8 15.0 Q 155.8 16.2, 155.8 18.6 Q 155.8 21.1, 156.8 22.3 Q 157.8 23.5, 159.6 23.5 " fill="#FF0000"/>
<path class="atom-12" d="M 224.0 44.5 Q 224.0 41.6, 225.4 39.9 Q 226.9 38.3, 229.6 38.3 Q 232.3 38.3, 233.7 39.9 Q 235.2 41.6, 235.2 44.5 Q 235.2 47.5, 233.7 49.2 Q 232.3 50.8, 229.6 50.8 Q 226.9 50.8, 225.4 49.2 Q 224.0 47.5, 224.0 44.5 M 229.6 49.4 Q 231.5 49.4, 232.5 48.2 Q 233.5 46.9, 233.5 44.5 Q 233.5 42.1, 232.5 40.9 Q 231.5 39.7, 229.6 39.7 Q 227.7 39.7, 226.7 40.9 Q 225.7 42.1, 225.7 44.5 Q 225.7 47.0, 226.7 48.2 Q 227.7 49.4, 229.6 49.4 " fill="#FF0000"/>
<path class="atom-12" d="M 237.1 38.4 L 238.7 38.4 L 238.7 43.6 L 245.0 43.6 L 245.0 38.4 L 246.6 38.4 L 246.6 50.6 L 245.0 50.6 L 245.0 45.0 L 238.7 45.0 L 238.7 50.6 L 237.1 50.6 L 237.1 38.4 " fill="#FF0000"/>
<path class="atom-14" d="M 40.1 16.2 Q 40.1 13.3, 41.6 11.6 Q 43.0 10.0, 45.7 10.0 Q 48.4 10.0, 49.9 11.6 Q 51.3 13.3, 51.3 16.2 Q 51.3 19.2, 49.8 20.9 Q 48.4 22.5, 45.7 22.5 Q 43.0 22.5, 41.6 20.9 Q 40.1 19.2, 40.1 16.2 M 45.7 21.1 Q 47.6 21.1, 48.6 19.9 Q 49.6 18.6, 49.6 16.2 Q 49.6 13.8, 48.6 12.6 Q 47.6 11.4, 45.7 11.4 Q 43.8 11.4, 42.8 12.6 Q 41.8 13.8, 41.8 16.2 Q 41.8 18.7, 42.8 19.9 Q 43.8 21.1, 45.7 21.1 " fill="#FF0000"/>
<path class="atom-15" d="M 110.1 42.1 Q 110.1 39.2, 111.5 37.5 Q 113.0 35.9, 115.7 35.9 Q 118.4 35.9, 119.8 37.5 Q 121.3 39.2, 121.3 42.1 Q 121.3 45.1, 119.8 46.8 Q 118.3 48.4, 115.7 48.4 Q 113.0 48.4, 111.5 46.8 Q 110.1 45.1, 110.1 42.1 M 115.7 47.0 Q 117.5 47.0, 118.5 45.8 Q 119.5 44.5, 119.5 42.1 Q 119.5 39.7, 118.5 38.5 Q 117.5 37.3, 115.7 37.3 Q 113.8 37.3, 112.8 38.5 Q 111.8 39.7, 111.8 42.1 Q 111.8 44.6, 112.8 45.8 Q 113.8 47.0, 115.7 47.0 " fill="#FF0000"/>
<path class="atom-15" d="M 123.2 36.0 L 124.8 36.0 L 124.8 41.2 L 131.1 41.2 L 131.1 36.0 L 132.7 36.0 L 132.7 48.2 L 131.1 48.2 L 131.1 42.6 L 124.8 42.6 L 124.8 48.2 L 123.2 48.2 L 123.2 36.0 " fill="#FF0000"/>
<path class="legend" d="M 123.7 181.9 Q 123.7 179.6, 124.4 177.7 Q 125.1 175.8, 126.4 173.8 L 127.3 174.4 Q 126.2 176.3, 125.7 178.0 Q 125.2 179.7, 125.2 181.9 Q 125.2 184.0, 125.7 185.8 Q 126.2 187.5, 127.3 189.4 L 126.4 190.0 Q 125.1 188.0, 124.4 186.1 Q 123.7 184.2, 123.7 181.9 " fill="#000000"/>
<path class="legend" d="M 128.2 177.3 Q 128.6 176.2, 129.6 175.6 Q 130.6 175.0, 132.0 175.0 Q 133.7 175.0, 134.6 175.9 Q 135.6 176.8, 135.6 178.5 Q 135.6 180.2, 134.3 181.7 Q 133.1 183.3, 130.6 185.2 L 135.8 185.2 L 135.8 186.4 L 128.2 186.4 L 128.2 185.4 Q 130.3 183.9, 131.5 182.8 Q 132.8 181.6, 133.4 180.6 Q 134.0 179.6, 134.0 178.6 Q 134.0 177.5, 133.4 176.9 Q 132.9 176.3, 132.0 176.3 Q 131.1 176.3, 130.4 176.6 Q 129.8 177.0, 129.4 177.8 L 128.2 177.3 " fill="#000000"/>
<path class="legend" d="M 140.8 181.9 Q 140.8 184.2, 140.1 186.1 Q 139.4 188.0, 138.1 190.0 L 137.2 189.4 Q 138.3 187.5, 138.8 185.8 Q 139.3 184.0, 139.3 181.9 Q 139.3 179.7, 138.8 178.0 Q 138.3 176.3, 137.2 174.4 L 138.1 173.8 Q 139.4 175.8, 140.1 177.7 Q 140.8 179.6, 140.8 181.9 " fill="#000000"/>
</g>
    <g transform="translate(265.0, 0) scale(1 1) "><line x1="5" y1="100" x2="35" y2="100" style="stroke:rgb(0,0,0);stroke-width:2"/>
  <line x1="34" y1="100" x2="29" y2="95" style="stroke:rgb(0,0,0);stroke-width:2"/>
  <line x1="34" y1="100" x2="29" y2="105" style="stroke:rgb(0,0,0);stroke-width:2"/>
</g>
    <g transform="translate(305.0, 0) scale(1 1) "><!-- END OF HEADER -->
<rect style="opacity:1.0;fill:#FFFFFF;stroke:none" width="194.0" height="200.0" x="0.0" y="0.0"> </rect>
<path class="bond-0 atom-0 atom-1" d="M 128.2,32.5 L 103.6,75.1" style="fill:none;fill-rule:evenodd;stroke:#000000;stroke-width:2.0px;stroke-linecap:butt;stroke-linejoin:miter;stroke-opacity:1"/>
<path class="bond-1 atom-1 atom-2" d="M 103.6,75.1 L 54.4,75.1" style="fill:none;fill-rule:evenodd;stroke:#000000;stroke-width:2.0px;stroke-linecap:butt;stroke-linejoin:miter;stroke-opacity:1"/>
<path class="bond-2 atom-2 atom-3" d="M 54.4,75.1 L 44.6,92.0" style="fill:none;fill-rule:evenodd;stroke:#000000;stroke-width:2.0px;stroke-linecap:butt;stroke-linejoin:miter;stroke-opacity:1"/>
<path class="bond-2 atom-2 atom-3" d="M 44.6,92.0 L 34.8,109.0" style="fill:none;fill-rule:evenodd;stroke:#FF0000;stroke-width:2.0px;stroke-linecap:butt;stroke-linejoin:miter;stroke-opacity:1"/>
<path class="bond-3 atom-1 atom-4" d="M 103.6,75.1 L 128.2,117.7" style="fill:none;fill-rule:evenodd;stroke:#000000;stroke-width:2.0px;stroke-linecap:butt;stroke-linejoin:miter;stroke-opacity:1"/>
<path class="bond-4 atom-4 atom-5" d="M 126.0,121.3 L 147.7,121.3" style="fill:none;fill-rule:evenodd;stroke:#000000;stroke-width:2.0px;stroke-linecap:butt;stroke-linejoin:miter;stroke-opacity:1"/>
<path class="bond-4 atom-4 atom-5" d="M 147.7,121.3 L 169.3,121.3" style="fill:none;fill-rule:evenodd;stroke:#FF0000;stroke-width:2.0px;stroke-linecap:butt;stroke-linejoin:miter;stroke-opacity:1"/>
<path class="bond-4 atom-4 atom-5" d="M 126.0,114.0 L 147.7,114.0" style="fill:none;fill-rule:evenodd;stroke:#000000;stroke-width:2.0px;stroke-linecap:butt;stroke-linejoin:miter;stroke-opacity:1"/>
<path class="bond-4 atom-4 atom-5" d="M 147.7,114.0 L 169.3,114.0" style="fill:none;fill-rule:evenodd;stroke:#FF0000;stroke-width:2.0px;stroke-linecap:butt;stroke-linejoin:miter;stroke-opacity:1"/>
<path class="bond-5 atom-4 atom-6" d="M 128.2,117.7 L 118.4,134.6" style="fill:none;fill-rule:evenodd;stroke:#000000;stroke-width:2.0px;stroke-linecap:butt;stroke-linejoin:miter;stroke-opacity:1"/>
<path class="bond-5 atom-4 atom-6" d="M 118.4,134.6 L 108.6,151.6" style="fill:none;fill-rule:evenodd;stroke:#FF0000;stroke-width:2.0px;stroke-linecap:butt;stroke-linejoin:miter;stroke-opacity:1"/>
<path d="M 56.9,75.1 L 54.4,75.1 L 53.9,75.9" style="fill:none;stroke:#000000;stroke-width:2.0px;stroke-linecap:butt;stroke-linejoin:miter;stroke-opacity:1;"/>
<path d="M 126.9,115.5 L 128.2,117.7 L 127.7,118.5" style="fill:none;stroke:#000000;stroke-width:2.0px;stroke-linecap:butt;stroke-linejoin:miter;stroke-opacity:1;"/>
<path class="atom-3" d="M 9.7 110.8 L 11.6 110.8 L 11.6 116.7 L 18.7 116.7 L 18.7 110.8 L 20.6 110.8 L 20.6 124.7 L 18.7 124.7 L 18.7 118.3 L 11.6 118.3 L 11.6 124.7 L 9.7 124.7 L 9.7 110.8 " fill="#FF0000"/>
<path class="atom-3" d="M 23.4 117.7 Q 23.4 114.4, 25.1 112.5 Q 26.8 110.6, 29.8 110.6 Q 32.9 110.6, 34.6 112.5 Q 36.2 114.4, 36.2 117.7 Q 36.2 121.1, 34.6 123.0 Q 32.9 124.9, 29.8 124.9 Q 26.8 124.9, 25.1 123.0 Q 23.4 121.1, 23.4 117.7 M 29.8 123.3 Q 32.0 123.3, 33.1 121.9 Q 34.3 120.5, 34.3 117.7 Q 34.3 115.0, 33.1 113.6 Q 32.0 112.2, 29.8 112.2 Q 27.7 112.2, 26.6 113.6 Q 25.4 114.9, 25.4 117.7 Q 25.4 120.5, 26.6 121.9 Q 27.7 123.3, 29.8 123.3 " fill="#FF0000"/>
<path class="atom-5" d="M 170.9 117.7 Q 170.9 114.4, 172.6 112.5 Q 174.2 110.6, 177.3 110.6 Q 180.4 110.6, 182.0 112.5 Q 183.7 114.4, 183.7 117.7 Q 183.7 121.1, 182.0 123.0 Q 180.4 124.9, 177.3 124.9 Q 174.2 124.9, 172.6 123.0 Q 170.9 121.1, 170.9 117.7 M 177.3 123.3 Q 179.4 123.3, 180.6 121.9 Q 181.7 120.5, 181.7 117.7 Q 181.7 115.0, 180.6 113.6 Q 179.4 112.2, 177.3 112.2 Q 175.2 112.2, 174.0 113.6 Q 172.9 114.9, 172.9 117.7 Q 172.9 120.5, 174.0 121.9 Q 175.2 123.3, 177.3 123.3 " fill="#FF0000"/>
<path class="atom-6" d="M 83.4 153.3 L 85.3 153.3 L 85.3 159.3 L 92.4 159.3 L 92.4 153.3 L 94.3 153.3 L 94.3 167.3 L 92.4 167.3 L 92.4 160.8 L 85.3 160.8 L 85.3 167.3 L 83.4 167.3 L 83.4 153.3 " fill="#FF0000"/>
<path class="atom-6" d="M 97.2 160.3 Q 97.2 156.9, 98.8 155.1 Q 100.5 153.2, 103.6 153.2 Q 106.7 153.2, 108.3 155.1 Q 110.0 156.9, 110.0 160.3 Q 110.0 163.7, 108.3 165.6 Q 106.6 167.5, 103.6 167.5 Q 100.5 167.5, 98.8 165.6 Q 97.2 163.7, 97.2 160.3 M 103.6 165.9 Q 105.7 165.9, 106.8 164.5 Q 108.0 163.1, 108.0 160.3 Q 108.0 157.5, 106.8 156.2 Q 105.7 154.8, 103.6 154.8 Q 101.5 154.8, 100.3 156.1 Q 99.1 157.5, 99.1 160.3 Q 99.1 163.1, 100.3 164.5 Q 101.5 165.9, 103.6 165.9 " fill="#FF0000"/>
</g>
    <g transform="translate(499.0, 0) scale(1 1) "><line x1="15" y1="100" x2="25" y2="100" style="stroke:rgb(0,0,0);stroke-width:2"/>
  <line x1="20" y1="95" x2="20" y2="105" style="stroke:rgb(0,0,0);stroke-width:2"/>
</g>
    <g transform="translate(539.0, 0) scale(1 1) "><!-- END OF HEADER -->
<rect style="opacity:1.0;fill:#FFFFFF;stroke:none" width="304.0" height="200.0" x="0.0" y="0.0"> </rect>
<path class="bond-0 atom-0 atom-1" d="M 15.2,104.2 L 45.4,111.8" style="fill:none;fill-rule:evenodd;stroke:#000000;stroke-width:2.0px;stroke-linecap:butt;stroke-linejoin:miter;stroke-opacity:1"/>
<path class="bond-1 atom-1 atom-2" d="M 45.4,111.8 L 37.8,142.0" style="fill:none;fill-rule:evenodd;stroke:#000000;stroke-width:2.0px;stroke-linecap:butt;stroke-linejoin:miter;stroke-opacity:1"/>
<path class="bond-2 atom-2 atom-3" d="M 37.8,142.0 L 46.4,150.4" style="fill:none;fill-rule:evenodd;stroke:#000000;stroke-width:2.0px;stroke-linecap:butt;stroke-linejoin:miter;stroke-opacity:1"/>
<path class="bond-2 atom-2 atom-3" d="M 46.4,150.4 L 55.0,158.8" style="fill:none;fill-rule:evenodd;stroke:#FF0000;stroke-width:2.0px;stroke-linecap:butt;stroke-linejoin:miter;stroke-opacity:1"/>
<path class="bond-3 atom-1 atom-4" d="M 45.4,111.8 L 75.6,119.5" style="fill:none;fill-rule:evenodd;stroke:#000000;stroke-width:2.0px;stroke-linecap:butt;stroke-linejoin:miter;stroke-opacity:1"/>
<path class="bond-4 atom-4 atom-5" d="M 75.6,119.5 L 97.3,97.1" style="fill:none;fill-rule:evenodd;stroke:#000000;stroke-width:2.0px;stroke-linecap:butt;stroke-linejoin:miter;stroke-opacity:1"/>
<path class="bond-5 atom-5 atom-6" d="M 97.3,97.1 L 127.6,104.8" style="fill:none;fill-rule:evenodd;stroke:#000000;stroke-width:2.0px;stroke-linecap:butt;stroke-linejoin:miter;stroke-opacity:1"/>
<path class="bond-6 atom-6 atom-7" d="M 127.6,104.8 L 131.0,117.0" style="fill:none;fill-rule:evenodd;stroke:#000000;stroke-width:2.0px;stroke-linecap:butt;stroke-linejoin:miter;stroke-opacity:1"/>
<path class="bond-6 atom-6 atom-7" d="M 131.0,117.0 L 134.5,129.3" style="fill:none;fill-rule:evenodd;stroke:#FF0000;stroke-width:2.0px;stroke-linecap:butt;stroke-linejoin:miter;stroke-opacity:1"/>
<path class="bond-7 atom-6 atom-8" d="M 127.6,104.8 L 149.3,82.4" style="fill:none;fill-rule:evenodd;stroke:#000000;stroke-width:2.0px;stroke-linecap:butt;stroke-linejoin:miter;stroke-opacity:1"/>
<path class="bond-8 atom-8 atom-9" d="M 149.3,82.4 L 126.9,60.7" style="fill:none;fill-rule:evenodd;stroke:#000000;stroke-width:2.0px;stroke-linecap:butt;stroke-linejoin:miter;stroke-opacity:1"/>
<path class="bond-9 atom-8 atom-10" d="M 149.3,82.4 L 171.6,104.2" style="fill:none;fill-rule:evenodd;stroke:#000000;stroke-width:2.0px;stroke-linecap:butt;stroke-linejoin:miter;stroke-opacity:1"/>
<path class="bond-10 atom-10 atom-11" d="M 171.6,104.2 L 201.6,95.7" style="fill:none;fill-rule:evenodd;stroke:#000000;stroke-width:2.0px;stroke-linecap:butt;stroke-linejoin:miter;stroke-opacity:1"/>
<path class="bond-11 atom-11 atom-12" d="M 201.6,95.7 L 223.9,117.4" style="fill:none;fill-rule:evenodd;stroke:#000000;stroke-width:2.0px;stroke-linecap:butt;stroke-linejoin:miter;stroke-opacity:1"/>
<path class="bond-12 atom-12 atom-13" d="M 223.9,117.4 L 246.3,139.2" style="fill:none;fill-rule:evenodd;stroke:#000000;stroke-width:2.0px;stroke-linecap:butt;stroke-linejoin:miter;stroke-opacity:1"/>
<path class="bond-13 atom-12 atom-14" d="M 223.9,117.4 L 202.2,139.8" style="fill:none;fill-rule:evenodd;stroke:#000000;stroke-width:2.0px;stroke-linecap:butt;stroke-linejoin:miter;stroke-opacity:1"/>
<path class="bond-14 atom-14 atom-15" d="M 202.2,139.8 L 205.7,152.0" style="fill:none;fill-rule:evenodd;stroke:#000000;stroke-width:2.0px;stroke-linecap:butt;stroke-linejoin:miter;stroke-opacity:1"/>
<path class="bond-14 atom-14 atom-15" d="M 205.7,152.0 L 209.1,164.3" style="fill:none;fill-rule:evenodd;stroke:#FF0000;stroke-width:2.0px;stroke-linecap:butt;stroke-linejoin:miter;stroke-opacity:1"/>
<path class="bond-15 atom-12 atom-16" d="M 223.9,117.4 L 245.7,95.1" style="fill:none;fill-rule:evenodd;stroke:#000000;stroke-width:2.0px;stroke-linecap:butt;stroke-linejoin:miter;stroke-opacity:1"/>
<path class="bond-16 atom-16 atom-17" d="M 248.3,95.7 L 244.7,82.9" style="fill:none;fill-rule:evenodd;stroke:#000000;stroke-width:2.0px;stroke-linecap:butt;stroke-linejoin:miter;stroke-opacity:1"/>
<path class="bond-16 atom-16 atom-17" d="M 244.7,82.9 L 241.0,70.1" style="fill:none;fill-rule:evenodd;stroke:#FF0000;stroke-width:2.0px;stroke-linecap:butt;stroke-linejoin:miter;stroke-opacity:1"/>
<path class="bond-16 atom-16 atom-17" d="M 243.8,97.0 L 240.2,84.2" style="fill:none;fill-rule:evenodd;stroke:#000000;stroke-width:2.0px;stroke-linecap:butt;stroke-linejoin:miter;stroke-opacity:1"/>
<path class="bond-16 atom-16 atom-17" d="M 240.2,84.2 L 236.5,71.4" style="fill:none;fill-rule:evenodd;stroke:#FF0000;stroke-width:2.0px;stroke-linecap:butt;stroke-linejoin:miter;stroke-opacity:1"/>
<path class="bond-17 atom-16 atom-18" d="M 245.7,95.1 L 258.2,98.3" style="fill:none;fill-rule:evenodd;stroke:#000000;stroke-width:2.0px;stroke-linecap:butt;stroke-linejoin:miter;stroke-opacity:1"/>
<path class="bond-17 atom-16 atom-18" d="M 258.2,98.3 L 270.8,101.5" style="fill:none;fill-rule:evenodd;stroke:#FF0000;stroke-width:2.0px;stroke-linecap:butt;stroke-linejoin:miter;stroke-opacity:1"/>
<path class="bond-18 atom-8 atom-19" d="M 149.3,82.4 L 171.0,60.1" style="fill:none;fill-rule:evenodd;stroke:#000000;stroke-width:2.0px;stroke-linecap:butt;stroke-linejoin:miter;stroke-opacity:1"/>
<path class="bond-19 atom-19 atom-20" d="M 169.1,62.0 L 182.3,65.4" style="fill:none;fill-rule:evenodd;stroke:#000000;stroke-width:2.0px;stroke-linecap:butt;stroke-linejoin:miter;stroke-opacity:1"/>
<path class="bond-19 atom-19 atom-20" d="M 182.3,65.4 L 195.6,68.7" style="fill:none;fill-rule:evenodd;stroke:#FF0000;stroke-width:2.0px;stroke-linecap:butt;stroke-linejoin:miter;stroke-opacity:1"/>
<path class="bond-19 atom-19 atom-20" d="M 170.3,57.5 L 183.5,60.9" style="fill:none;fill-rule:evenodd;stroke:#000000;stroke-width:2.0px;stroke-linecap:butt;stroke-linejoin:miter;stroke-opacity:1"/>
<path class="bond-19 atom-19 atom-20" d="M 183.5,60.9 L 196.7,64.2" style="fill:none;fill-rule:evenodd;stroke:#FF0000;stroke-width:2.0px;stroke-linecap:butt;stroke-linejoin:miter;stroke-opacity:1"/>
<path class="bond-20 atom-19 atom-21" d="M 171.0,60.1 L 167.6,47.9" style="fill:none;fill-rule:evenodd;stroke:#000000;stroke-width:2.0px;stroke-linecap:butt;stroke-linejoin:miter;stroke-opacity:1"/>
<path class="bond-20 atom-19 atom-21" d="M 167.6,47.9 L 164.1,35.7" style="fill:none;fill-rule:evenodd;stroke:#FF0000;stroke-width:2.0px;stroke-linecap:butt;stroke-linejoin:miter;stroke-opacity:1"/>
<path class="bond-21 atom-1 atom-22" d="M 45.4,111.8 L 53.1,81.6" style="fill:none;fill-rule:evenodd;stroke:#000000;stroke-width:2.0px;stroke-linecap:butt;stroke-linejoin:miter;stroke-opacity:1"/>
<path class="bond-22 atom-22 atom-23" d="M 55.7,80.9 L 46.5,72.0" style="fill:none;fill-rule:evenodd;stroke:#000000;stroke-width:2.0px;stroke-linecap:butt;stroke-linejoin:miter;stroke-opacity:1"/>
<path class="bond-22 atom-22 atom-23" d="M 46.5,72.0 L 37.4,63.1" style="fill:none;fill-rule:evenodd;stroke:#FF0000;stroke-width:2.0px;stroke-linecap:butt;stroke-linejoin:miter;stroke-opacity:1"/>
<path class="bond-22 atom-22 atom-23" d="M 52.4,84.2 L 43.3,75.4" style="fill:none;fill-rule:evenodd;stroke:#000000;stroke-width:2.0px;stroke-linecap:butt;stroke-linejoin:miter;stroke-opacity:1"/>
<path class="bond-22 atom-22 atom-23" d="M 43.3,75.4 L 34.2,66.5" style="fill:none;fill-rule:evenodd;stroke:#FF0000;stroke-width:2.0px;stroke-linecap:butt;stroke-linejoin:miter;stroke-opacity:1"/>
<path class="bond-23 atom-22 atom-24" d="M 53.1,81.6 L 65.5,78.1" style="fill:none;fill-rule:evenodd;stroke:#000000;stroke-width:2.0px;stroke-linecap:butt;stroke-linejoin:miter;stroke-opacity:1"/>
<path class="bond-23 atom-22 atom-24" d="M 65.5,78.1 L 78.0,74.6" style="fill:none;fill-rule:evenodd;stroke:#FF0000;stroke-width:2.0px;stroke-linecap:butt;stroke-linejoin:miter;stroke-opacity:1"/>
<path d="M 38.1,140.5 L 37.8,142.0 L 38.2,142.4" style="fill:none;stroke:#000000;stroke-width:2.0px;stroke-linecap:butt;stroke-linejoin:miter;stroke-opacity:1;"/>
<path d="M 74.1,119.1 L 75.6,119.5 L 76.7,118.3" style="fill:none;stroke:#000000;stroke-width:2.0px;stroke-linecap:butt;stroke-linejoin:miter;stroke-opacity:1;"/>
<path d="M 96.3,98.2 L 97.3,97.1 L 98.9,97.5" style="fill:none;stroke:#000000;stroke-width:2.0px;stroke-linecap:butt;stroke-linejoin:miter;stroke-opacity:1;"/>
<path d="M 170.5,103.1 L 171.6,104.2 L 173.1,103.7" style="fill:none;stroke:#000000;stroke-width:2.0px;stroke-linecap:butt;stroke-linejoin:miter;stroke-opacity:1;"/>
<path d="M 200.1,96.1 L 201.6,95.7 L 202.7,96.8" style="fill:none;stroke:#000000;stroke-width:2.0px;stroke-linecap:butt;stroke-linejoin:miter;stroke-opacity:1;"/>
<path d="M 203.3,138.6 L 202.2,139.8 L 202.4,140.4" style="fill:none;stroke:#000000;stroke-width:2.0px;stroke-linecap:butt;stroke-linejoin:miter;stroke-opacity:1;"/>
<path d="M 244.6,96.2 L 245.7,95.1 L 246.3,95.2" style="fill:none;stroke:#000000;stroke-width:2.0px;stroke-linecap:butt;stroke-linejoin:miter;stroke-opacity:1;"/>
<path d="M 169.9,61.2 L 171.0,60.1 L 170.8,59.5" style="fill:none;stroke:#000000;stroke-width:2.0px;stroke-linecap:butt;stroke-linejoin:miter;stroke-opacity:1;"/>
<path d="M 52.7,83.1 L 53.1,81.6 L 53.7,81.4" style="fill:none;stroke:#000000;stroke-width:2.0px;stroke-linecap:butt;stroke-linejoin:miter;stroke-opacity:1;"/>
<path class="atom-3" d="M 56.0 163.8 Q 56.0 161.7, 57.1 160.5 Q 58.1 159.3, 60.1 159.3 Q 62.0 159.3, 63.1 160.5 Q 64.1 161.7, 64.1 163.8 Q 64.1 165.9, 63.1 167.1 Q 62.0 168.3, 60.1 168.3 Q 58.1 168.3, 57.1 167.1 Q 56.0 165.9, 56.0 163.8 M 60.1 167.3 Q 61.4 167.3, 62.2 166.5 Q 62.9 165.5, 62.9 163.8 Q 62.9 162.0, 62.2 161.2 Q 61.4 160.3, 60.1 160.3 Q 58.7 160.3, 58.0 161.2 Q 57.3 162.0, 57.3 163.8 Q 57.3 165.6, 58.0 166.5 Q 58.7 167.3, 60.1 167.3 " fill="#FF0000"/>
<path class="atom-3" d="M 65.5 159.4 L 66.7 159.4 L 66.7 163.1 L 71.2 163.1 L 71.2 159.4 L 72.4 159.4 L 72.4 168.2 L 71.2 168.2 L 71.2 164.1 L 66.7 164.1 L 66.7 168.2 L 65.5 168.2 L 65.5 159.4 " fill="#FF0000"/>
<path class="atom-7" d="M 132.0 134.8 Q 132.0 132.7, 133.0 131.5 Q 134.1 130.3, 136.0 130.3 Q 138.0 130.3, 139.0 131.5 Q 140.1 132.7, 140.1 134.8 Q 140.1 136.9, 139.0 138.2 Q 138.0 139.4, 136.0 139.4 Q 134.1 139.4, 133.0 138.2 Q 132.0 136.9, 132.0 134.8 M 136.0 138.4 Q 137.4 138.4, 138.1 137.5 Q 138.8 136.6, 138.8 134.8 Q 138.8 133.1, 138.1 132.2 Q 137.4 131.3, 136.0 131.3 Q 134.7 131.3, 133.9 132.2 Q 133.2 133.0, 133.2 134.8 Q 133.2 136.6, 133.9 137.5 Q 134.7 138.4, 136.0 138.4 " fill="#FF0000"/>
<path class="atom-7" d="M 141.5 130.4 L 142.6 130.4 L 142.6 134.2 L 147.2 134.2 L 147.2 130.4 L 148.4 130.4 L 148.4 139.2 L 147.2 139.2 L 147.2 135.1 L 142.6 135.1 L 142.6 139.2 L 141.5 139.2 L 141.5 130.4 " fill="#FF0000"/>
<path class="atom-15" d="M 206.6 169.8 Q 206.6 167.6, 207.7 166.5 Q 208.7 165.3, 210.7 165.3 Q 212.6 165.3, 213.7 166.5 Q 214.7 167.6, 214.7 169.8 Q 214.7 171.9, 213.7 173.1 Q 212.6 174.3, 210.7 174.3 Q 208.7 174.3, 207.7 173.1 Q 206.6 171.9, 206.6 169.8 M 210.7 173.3 Q 212.0 173.3, 212.8 172.4 Q 213.5 171.5, 213.5 169.8 Q 213.5 168.0, 212.8 167.2 Q 212.0 166.3, 210.7 166.3 Q 209.3 166.3, 208.6 167.1 Q 207.9 168.0, 207.9 169.8 Q 207.9 171.5, 208.6 172.4 Q 209.3 173.3, 210.7 173.3 " fill="#FF0000"/>
<path class="atom-15" d="M 216.1 165.4 L 217.3 165.4 L 217.3 169.1 L 221.8 169.1 L 221.8 165.4 L 223.0 165.4 L 223.0 174.2 L 221.8 174.2 L 221.8 170.1 L 217.3 170.1 L 217.3 174.2 L 216.1 174.2 L 216.1 165.4 " fill="#FF0000"/>
<path class="atom-17" d="M 233.1 65.1 Q 233.1 63.0, 234.2 61.8 Q 235.2 60.6, 237.2 60.6 Q 239.1 60.6, 240.2 61.8 Q 241.2 63.0, 241.2 65.1 Q 241.2 67.3, 240.2 68.5 Q 239.1 69.7, 237.2 69.7 Q 235.2 69.7, 234.2 68.5 Q 233.1 67.3, 233.1 65.1 M 237.2 68.7 Q 238.5 68.7, 239.3 67.8 Q 240.0 66.9, 240.0 65.1 Q 240.0 63.4, 239.3 62.5 Q 238.5 61.6, 237.2 61.6 Q 235.8 61.6, 235.1 62.5 Q 234.4 63.4, 234.4 65.1 Q 234.4 66.9, 235.1 67.8 Q 235.8 68.7, 237.2 68.7 " fill="#FF0000"/>
<path class="atom-18" d="M 271.8 102.8 Q 271.8 100.6, 272.9 99.5 Q 273.9 98.3, 275.9 98.3 Q 277.8 98.3, 278.9 99.5 Q 279.9 100.6, 279.9 102.8 Q 279.9 104.9, 278.9 106.1 Q 277.8 107.3, 275.9 107.3 Q 273.9 107.3, 272.9 106.1 Q 271.8 104.9, 271.8 102.8 M 275.9 106.3 Q 277.2 106.3, 277.9 105.4 Q 278.7 104.5, 278.7 102.8 Q 278.7 101.0, 277.9 100.2 Q 277.2 99.3, 275.9 99.3 Q 274.5 99.3, 273.8 100.1 Q 273.1 101.0, 273.1 102.8 Q 273.1 104.5, 273.8 105.4 Q 274.5 106.3, 275.9 106.3 " fill="#FF0000"/>
<path class="atom-18" d="M 281.3 98.4 L 282.5 98.4 L 282.5 102.1 L 287.0 102.1 L 287.0 98.4 L 288.2 98.4 L 288.2 107.2 L 287.0 107.2 L 287.0 103.1 L 282.5 103.1 L 282.5 107.2 L 281.3 107.2 L 281.3 98.4 " fill="#FF0000"/>
<path class="atom-20" d="M 197.2 67.8 Q 197.2 65.7, 198.2 64.5 Q 199.3 63.3, 201.2 63.3 Q 203.2 63.3, 204.2 64.5 Q 205.3 65.7, 205.3 67.8 Q 205.3 69.9, 204.2 71.1 Q 203.1 72.4, 201.2 72.4 Q 199.3 72.4, 198.2 71.1 Q 197.2 69.9, 197.2 67.8 M 201.2 71.4 Q 202.6 71.4, 203.3 70.5 Q 204.0 69.6, 204.0 67.8 Q 204.0 66.0, 203.3 65.2 Q 202.6 64.3, 201.2 64.3 Q 199.9 64.3, 199.1 65.2 Q 198.4 66.0, 198.4 67.8 Q 198.4 69.6, 199.1 70.5 Q 199.9 71.4, 201.2 71.4 " fill="#FF0000"/>
<path class="atom-21" d="M 158.5 30.1 Q 158.5 28.0, 159.5 26.8 Q 160.6 25.7, 162.5 25.7 Q 164.5 25.7, 165.5 26.8 Q 166.6 28.0, 166.6 30.1 Q 166.6 32.3, 165.5 33.5 Q 164.5 34.7, 162.5 34.7 Q 160.6 34.7, 159.5 33.5 Q 158.5 32.3, 158.5 30.1 M 162.5 33.7 Q 163.9 33.7, 164.6 32.8 Q 165.3 31.9, 165.3 30.1 Q 165.3 28.4, 164.6 27.5 Q 163.9 26.7, 162.5 26.7 Q 161.2 26.7, 160.4 27.5 Q 159.7 28.4, 159.7 30.1 Q 159.7 31.9, 160.4 32.8 Q 161.2 33.7, 162.5 33.7 " fill="#FF0000"/>
<path class="atom-21" d="M 168.0 25.8 L 169.2 25.8 L 169.2 29.5 L 173.7 29.5 L 173.7 25.8 L 174.9 25.8 L 174.9 34.6 L 173.7 34.6 L 173.7 30.5 L 169.2 30.5 L 169.2 34.6 L 168.0 34.6 L 168.0 25.8 " fill="#FF0000"/>
<path class="atom-23" d="M 26.7 59.9 Q 26.7 57.8, 27.7 56.6 Q 28.8 55.4, 30.7 55.4 Q 32.7 55.4, 33.7 56.6 Q 34.8 57.8, 34.8 59.9 Q 34.8 62.0, 33.7 63.3 Q 32.7 64.5, 30.7 64.5 Q 28.8 64.5, 27.7 63.3 Q 26.7 62.1, 26.7 59.9 M 30.7 63.5 Q 32.1 63.5, 32.8 62.6 Q 33.5 61.7, 33.5 59.9 Q 33.5 58.2, 32.8 57.3 Q 32.1 56.4, 30.7 56.4 Q 29.4 56.4, 28.6 57.3 Q 27.9 58.2, 27.9 59.9 Q 27.9 61.7, 28.6 62.6 Q 29.4 63.5, 30.7 63.5 " fill="#FF0000"/>
<path class="atom-24" d="M 79.0 73.1 Q 79.0 71.0, 80.0 69.8 Q 81.1 68.7, 83.0 68.7 Q 85.0 68.7, 86.0 69.8 Q 87.1 71.0, 87.1 73.1 Q 87.1 75.3, 86.0 76.5 Q 85.0 77.7, 83.0 77.7 Q 81.1 77.7, 80.0 76.5 Q 79.0 75.3, 79.0 73.1 M 83.0 76.7 Q 84.4 76.7, 85.1 75.8 Q 85.8 74.9, 85.8 73.1 Q 85.8 71.4, 85.1 70.5 Q 84.4 69.7, 83.0 69.7 Q 81.7 69.7, 81.0 70.5 Q 80.2 71.4, 80.2 73.1 Q 80.2 74.9, 81.0 75.8 Q 81.7 76.7, 83.0 76.7 " fill="#FF0000"/>
<path class="atom-24" d="M 88.5 68.8 L 89.7 68.8 L 89.7 72.5 L 94.2 72.5 L 94.2 68.8 L 95.4 68.8 L 95.4 77.6 L 94.2 77.6 L 94.2 73.5 L 89.7 73.5 L 89.7 77.6 L 88.5 77.6 L 88.5 68.8 " fill="#FF0000"/>
</g>
  </g>
</svg>
