<?xml version='1.0' encoding='ASCII' standalone='yes'?>
<svg xmlns="http://www.w3.org/2000/svg" xmlns:xlink="http://www.w3.org/1999/xlink" version="1.1" width="753.0px" viewBox="0 0 753.0 200.0" height="200.0px">
  <g>
    <g transform="translate(0, 0) scale(1 1) "><!-- END OF HEADER -->
<rect style="opacity:1.0;fill:#FFFFFF;stroke:none" width="225.0" height="200.0" x="0.0" y="0.0"> </rect>
<path class="bond-0 atom-0 atom-1" d="M 157.5,45.1 L 143.7,80.2" style="fill:none;fill-rule:evenodd;stroke:#000000;stroke-width:2.0px;stroke-linecap:butt;stroke-linejoin:miter;stroke-opacity:1"/>
<path class="bond-1 atom-1 atom-2" d="M 143.7,80.2 L 129.9,115.3" style="fill:none;fill-rule:evenodd;stroke:#000000;stroke-width:2.0px;stroke-linecap:butt;stroke-linejoin:miter;stroke-opacity:1"/>
<path class="bond-2 atom-1 atom-3" d="M 143.7,80.2 L 108.6,66.4" style="fill:none;fill-rule:evenodd;stroke:#000000;stroke-width:2.0px;stroke-linecap:butt;stroke-linejoin:miter;stroke-opacity:1"/>
<path class="bond-3 atom-3 atom-4" d="M 108.6,66.4 L 96.9,75.7" style="fill:none;fill-rule:evenodd;stroke:#000000;stroke-width:2.0px;stroke-linecap:butt;stroke-linejoin:miter;stroke-opacity:1"/>
<path class="bond-3 atom-3 atom-4" d="M 96.9,75.7 L 85.2,85.0" style="fill:none;fill-rule:evenodd;stroke:#FF0000;stroke-width:2.0px;stroke-linecap:butt;stroke-linejoin:miter;stroke-opacity:1"/>
<path class="bond-4 atom-4 atom-5" d="M 72.9,87.4 L 58.4,81.7" style="fill:none;fill-rule:evenodd;stroke:#FF0000;stroke-width:2.0px;stroke-linecap:butt;stroke-linejoin:miter;stroke-opacity:1"/>
<path class="bond-4 atom-4 atom-5" d="M 58.4,81.7 L 43.9,76.0" style="fill:none;fill-rule:evenodd;stroke:#000000;stroke-width:2.0px;stroke-linecap:butt;stroke-linejoin:miter;stroke-opacity:1"/>
<path class="bond-5 atom-5 atom-6" d="M 43.9,76.0 L 32.2,85.3" style="fill:none;fill-rule:evenodd;stroke:#000000;stroke-width:2.0px;stroke-linecap:butt;stroke-linejoin:miter;stroke-opacity:1"/>
<path class="bond-5 atom-5 atom-6" d="M 32.2,85.3 L 20.5,94.6" style="fill:none;fill-rule:evenodd;stroke:#FF0000;stroke-width:2.0px;stroke-linecap:butt;stroke-linejoin:miter;stroke-opacity:1"/>
<path class="bond-5 atom-5 atom-6" d="M 44.9,82.5 L 35.8,89.7" style="fill:none;fill-rule:evenodd;stroke:#000000;stroke-width:2.0px;stroke-linecap:butt;stroke-linejoin:miter;stroke-opacity:1"/>
<path class="bond-5 atom-5 atom-6" d="M 35.8,89.7 L 24.1,99.0" style="fill:none;fill-rule:evenodd;stroke:#FF0000;stroke-width:2.0px;stroke-linecap:butt;stroke-linejoin:miter;stroke-opacity:1"/>
<path class="bond-6 atom-1 atom-7" d="M 143.7,80.2 L 178.8,94.0" style="fill:none;fill-rule:evenodd;stroke:#000000;stroke-width:2.0px;stroke-linecap:butt;stroke-linejoin:miter;stroke-opacity:1"/>
<path class="bond-7 atom-7 atom-8" d="M 179.3,97.3 L 191.6,87.4" style="fill:none;fill-rule:evenodd;stroke:#000000;stroke-width:2.0px;stroke-linecap:butt;stroke-linejoin:miter;stroke-opacity:1"/>
<path class="bond-7 atom-7 atom-8" d="M 191.6,87.4 L 204.0,77.6" style="fill:none;fill-rule:evenodd;stroke:#FF0000;stroke-width:2.0px;stroke-linecap:butt;stroke-linejoin:miter;stroke-opacity:1"/>
<path class="bond-7 atom-7 atom-8" d="M 175.8,92.8 L 188.1,83.0" style="fill:none;fill-rule:evenodd;stroke:#000000;stroke-width:2.0px;stroke-linecap:butt;stroke-linejoin:miter;stroke-opacity:1"/>
<path class="bond-7 atom-7 atom-8" d="M 188.1,83.0 L 200.4,73.2" style="fill:none;fill-rule:evenodd;stroke:#FF0000;stroke-width:2.0px;stroke-linecap:butt;stroke-linejoin:miter;stroke-opacity:1"/>
<path class="bond-8 atom-7 atom-9" d="M 178.8,94.0 L 181.1,109.4" style="fill:none;fill-rule:evenodd;stroke:#000000;stroke-width:2.0px;stroke-linecap:butt;stroke-linejoin:miter;stroke-opacity:1"/>
<path class="bond-8 atom-7 atom-9" d="M 181.1,109.4 L 183.4,124.7" style="fill:none;fill-rule:evenodd;stroke:#FF0000;stroke-width:2.0px;stroke-linecap:butt;stroke-linejoin:miter;stroke-opacity:1"/>
<path d="M 110.3,67.1 L 108.6,66.4 L 108.0,66.8" style="fill:none;stroke:#000000;stroke-width:2.0px;stroke-linecap:butt;stroke-linejoin:miter;stroke-opacity:1;"/>
<path d="M 44.7,76.3 L 43.9,76.0 L 43.3,76.5" style="fill:none;stroke:#000000;stroke-width:2.0px;stroke-linecap:butt;stroke-linejoin:miter;stroke-opacity:1;"/>
<path d="M 177.1,93.3 L 178.8,94.0 L 178.9,94.8" style="fill:none;stroke:#000000;stroke-width:2.0px;stroke-linecap:butt;stroke-linejoin:miter;stroke-opacity:1;"/>
<path class="atom-4" d="M 74.1 89.9 Q 74.1 87.3, 75.4 85.9 Q 76.7 84.4, 79.0 84.4 Q 81.4 84.4, 82.7 85.9 Q 84.0 87.3, 84.0 89.9 Q 84.0 92.5, 82.7 94.0 Q 81.4 95.4, 79.0 95.4 Q 76.7 95.4, 75.4 94.0 Q 74.1 92.5, 74.1 89.9 M 79.0 94.2 Q 80.7 94.2, 81.6 93.1 Q 82.4 92.0, 82.4 89.9 Q 82.4 87.8, 81.6 86.7 Q 80.7 85.7, 79.0 85.7 Q 77.4 85.7, 76.5 86.7 Q 75.6 87.8, 75.6 89.9 Q 75.6 92.0, 76.5 93.1 Q 77.4 94.2, 79.0 94.2 " fill="#FF0000"/>
<path class="atom-6" d="M 11.3 101.8 Q 11.3 99.2, 12.5 97.8 Q 13.8 96.3, 16.2 96.3 Q 18.5 96.3, 19.8 97.8 Q 21.1 99.2, 21.1 101.8 Q 21.1 104.4, 19.8 105.8 Q 18.5 107.3, 16.2 107.3 Q 13.8 107.3, 12.5 105.8 Q 11.3 104.4, 11.3 101.8 M 16.2 106.1 Q 17.8 106.1, 18.7 105.0 Q 19.6 103.9, 19.6 101.8 Q 19.6 99.7, 18.7 98.6 Q 17.8 97.5, 16.2 97.5 Q 14.5 97.5, 13.6 98.6 Q 12.8 99.6, 12.8 101.8 Q 12.8 103.9, 13.6 105.0 Q 14.5 106.1, 16.2 106.1 " fill="#FF0000"/>
<path class="atom-8" d="M 203.4 70.6 Q 203.4 68.0, 204.7 66.6 Q 206.0 65.1, 208.3 65.1 Q 210.7 65.1, 212.0 66.6 Q 213.2 68.0, 213.2 70.6 Q 213.2 73.2, 212.0 74.6 Q 210.7 76.1, 208.3 76.1 Q 206.0 76.1, 204.7 74.6 Q 203.4 73.2, 203.4 70.6 M 208.3 74.9 Q 210.0 74.9, 210.8 73.8 Q 211.7 72.7, 211.7 70.6 Q 211.7 68.5, 210.8 67.4 Q 210.0 66.3, 208.3 66.3 Q 206.7 66.3, 205.8 67.4 Q 204.9 68.4, 204.9 70.6 Q 204.9 72.7, 205.8 73.8 Q 206.7 74.9, 208.3 74.9 " fill="#FF0000"/>
<path class="atom-9" d="M 179.5 131.4 Q 179.5 128.8, 180.7 127.4 Q 182.0 125.9, 184.4 125.9 Q 186.8 125.9, 188.0 127.4 Q 189.3 128.8, 189.3 131.4 Q 189.3 134.0, 188.0 135.5 Q 186.7 136.9, 184.4 136.9 Q 182.0 136.9, 180.7 135.5 Q 179.5 134.0, 179.5 131.4 M 184.4 135.7 Q 186.0 135.7, 186.9 134.6 Q 187.8 133.5, 187.8 131.4 Q 187.8 129.3, 186.9 128.2 Q 186.0 127.2, 184.4 127.2 Q 182.8 127.2, 181.9 128.2 Q 181.0 129.3, 181.0 131.4 Q 181.0 133.5, 181.9 134.6 Q 182.8 135.7, 184.4 135.7 " fill="#FF0000"/>
<path class="atom-9" d="M 191.0 126.1 L 192.4 126.1 L 192.4 130.6 L 197.9 130.6 L 197.9 126.1 L 199.3 126.1 L 199.3 136.8 L 197.9 136.8 L 197.9 131.8 L 192.4 131.8 L 192.4 136.8 L 191.0 136.8 L 191.0 126.1 " fill="#FF0000"/>
<path class="legend" d="M 103.7 181.9 Q 103.7 179.6, 104.4 177.7 Q 105.1 175.8, 106.4 173.8 L 107.3 174.4 Q 106.2 176.3, 105.7 178.0 Q 105.2 179.7, 105.2 181.9 Q 105.2 184.0, 105.7 185.8 Q 106.2 187.5, 107.3 189.4 L 106.4 190.0 Q 105.1 188.0, 104.4 186.1 Q 103.7 184.2, 103.7 181.9 " fill="#000000"/>
<path class="legend" d="M 108.2 177.3 Q 108.6 176.2, 109.6 175.6 Q 110.6 175.0, 112.0 175.0 Q 113.7 175.0, 114.6 175.9 Q 115.6 176.8, 115.6 178.5 Q 115.6 180.2, 114.3 181.7 Q 113.1 183.3, 110.6 185.2 L 115.8 185.2 L 115.8 186.4 L 108.2 186.4 L 108.2 185.4 Q 110.3 183.9, 111.5 182.8 Q 112.8 181.6, 113.4 180.6 Q 114.0 179.6, 114.0 178.6 Q 114.0 177.5, 113.5 176.9 Q 112.9 176.3, 112.0 176.3 Q 111.0 176.3, 110.4 176.6 Q 109.8 177.0, 109.4 177.8 L 108.2 177.3 " fill="#000000"/>
<path class="legend" d="M 120.8 181.9 Q 120.8 184.2, 120.1 186.1 Q 119.4 188.0, 118.1 190.0 L 117.2 189.4 Q 118.3 187.5, 118.8 185.8 Q 119.3 184.0, 119.3 181.9 Q 119.3 179.7, 118.8 178.0 Q 118.3 176.3, 117.2 174.4 L 118.1 173.8 Q 119.4 175.8, 120.1 177.7 Q 120.8 179.6, 120.8 181.9 " fill="#000000"/>
</g>
    <g transform="translate(225.0, 0) scale(1 1) "><line x1="5" y1="100" x2="35" y2="100" style="stroke:rgb(0,0,0);stroke-width:2"/>
  <line x1="34" y1="100" x2="29" y2="95" style="stroke:rgb(0,0,0);stroke-width:2"/>
  <line x1="34" y1="100" x2="29" y2="105" style="stroke:rgb(0,0,0);stroke-width:2"/>
</g>
    <g transform="translate(265.0, 0) scale(1 1) "><!-- END OF HEADER -->
<rect style="opacity:1.0;fill:#FFFFFF;stroke:none" width="215.0" height="200.0" x="0.0" y="0.0"> </rect>
<path class="bond-0 atom-0 atom-1" d="M 178.2,49.1 L 149.4,77.5" style="fill:none;fill-rule:evenodd;stroke:#000000;stroke-width:2.0px;stroke-linecap:butt;stroke-linejoin:miter;stroke-opacity:1"/>
<path class="bond-1 atom-1 atom-2" d="M 149.4,77.5 L 110.4,66.7" style="fill:none;fill-rule:evenodd;stroke:#000000;stroke-width:2.0px;stroke-linecap:butt;stroke-linejoin:miter;stroke-opacity:1"/>
<path class="bond-2 atom-2 atom-3" d="M 110.4,66.7 L 99.3,77.6" style="fill:none;fill-rule:evenodd;stroke:#000000;stroke-width:2.0px;stroke-linecap:butt;stroke-linejoin:miter;stroke-opacity:1"/>
<path class="bond-2 atom-2 atom-3" d="M 99.3,77.6 L 88.2,88.6" style="fill:none;fill-rule:evenodd;stroke:#FF0000;stroke-width:2.0px;stroke-linecap:butt;stroke-linejoin:miter;stroke-opacity:1"/>
<path class="bond-3 atom-3 atom-4" d="M 75.0,93.2 L 58.9,88.8" style="fill:none;fill-rule:evenodd;stroke:#FF0000;stroke-width:2.0px;stroke-linecap:butt;stroke-linejoin:miter;stroke-opacity:1"/>
<path class="bond-3 atom-3 atom-4" d="M 58.9,88.8 L 42.7,84.3" style="fill:none;fill-rule:evenodd;stroke:#000000;stroke-width:2.0px;stroke-linecap:butt;stroke-linejoin:miter;stroke-opacity:1"/>
<path class="bond-4 atom-4 atom-5" d="M 42.7,84.3 L 31.6,95.2" style="fill:none;fill-rule:evenodd;stroke:#000000;stroke-width:2.0px;stroke-linecap:butt;stroke-linejoin:miter;stroke-opacity:1"/>
<path class="bond-4 atom-4 atom-5" d="M 31.6,95.2 L 20.5,106.2" style="fill:none;fill-rule:evenodd;stroke:#FF0000;stroke-width:2.0px;stroke-linecap:butt;stroke-linejoin:miter;stroke-opacity:1"/>
<path class="bond-4 atom-4 atom-5" d="M 44.4,91.1 L 35.8,99.5" style="fill:none;fill-rule:evenodd;stroke:#000000;stroke-width:2.0px;stroke-linecap:butt;stroke-linejoin:miter;stroke-opacity:1"/>
<path class="bond-4 atom-4 atom-5" d="M 35.8,99.5 L 24.7,110.5" style="fill:none;fill-rule:evenodd;stroke:#FF0000;stroke-width:2.0px;stroke-linecap:butt;stroke-linejoin:miter;stroke-opacity:1"/>
<path class="bond-5 atom-1 atom-6" d="M 149.4,77.5 L 159.5,116.6" style="fill:none;fill-rule:evenodd;stroke:#000000;stroke-width:2.0px;stroke-linecap:butt;stroke-linejoin:miter;stroke-opacity:1"/>
<path class="bond-6 atom-6 atom-7" d="M 157.0,119.0 L 174.1,123.7" style="fill:none;fill-rule:evenodd;stroke:#000000;stroke-width:2.0px;stroke-linecap:butt;stroke-linejoin:miter;stroke-opacity:1"/>
<path class="bond-6 atom-6 atom-7" d="M 174.1,123.7 L 191.1,128.4" style="fill:none;fill-rule:evenodd;stroke:#FF0000;stroke-width:2.0px;stroke-linecap:butt;stroke-linejoin:miter;stroke-opacity:1"/>
<path class="bond-6 atom-6 atom-7" d="M 158.7,113.2 L 175.7,117.9" style="fill:none;fill-rule:evenodd;stroke:#000000;stroke-width:2.0px;stroke-linecap:butt;stroke-linejoin:miter;stroke-opacity:1"/>
<path class="bond-6 atom-6 atom-7" d="M 175.7,117.9 L 192.7,122.6" style="fill:none;fill-rule:evenodd;stroke:#FF0000;stroke-width:2.0px;stroke-linecap:butt;stroke-linejoin:miter;stroke-opacity:1"/>
<path class="bond-7 atom-6 atom-8" d="M 159.5,116.6 L 148.4,127.5" style="fill:none;fill-rule:evenodd;stroke:#000000;stroke-width:2.0px;stroke-linecap:butt;stroke-linejoin:miter;stroke-opacity:1"/>
<path class="bond-7 atom-6 atom-8" d="M 148.4,127.5 L 137.3,138.4" style="fill:none;fill-rule:evenodd;stroke:#FF0000;stroke-width:2.0px;stroke-linecap:butt;stroke-linejoin:miter;stroke-opacity:1"/>
<path d="M 112.4,67.2 L 110.4,66.7 L 109.9,67.2" style="fill:none;stroke:#000000;stroke-width:2.0px;stroke-linecap:butt;stroke-linejoin:miter;stroke-opacity:1;"/>
<path d="M 43.5,84.5 L 42.7,84.3 L 42.1,84.8" style="fill:none;stroke:#000000;stroke-width:2.0px;stroke-linecap:butt;stroke-linejoin:miter;stroke-opacity:1;"/>
<path d="M 159.0,114.6 L 159.5,116.6 L 159.0,117.1" style="fill:none;stroke:#000000;stroke-width:2.0px;stroke-linecap:butt;stroke-linejoin:miter;stroke-opacity:1;"/>
<path class="atom-3" d="M 76.4 95.1 Q 76.4 92.3, 77.7 90.8 Q 79.1 89.3, 81.6 89.3 Q 84.2 89.3, 85.5 90.8 Q 86.9 92.3, 86.9 95.1 Q 86.9 97.9, 85.5 99.4 Q 84.1 101.0, 81.6 101.0 Q 79.1 101.0, 77.7 99.4 Q 76.4 97.9, 76.4 95.1 M 81.6 99.7 Q 83.4 99.7, 84.3 98.6 Q 85.3 97.4, 85.3 95.1 Q 85.3 92.8, 84.3 91.7 Q 83.4 90.6, 81.6 90.6 Q 79.9 90.6, 78.9 91.7 Q 78.0 92.8, 78.0 95.1 Q 78.0 97.4, 78.9 98.6 Q 79.9 99.7, 81.6 99.7 " fill="#FF0000"/>
<path class="atom-5" d="M 10.7 114.8 Q 10.7 112.1, 12.1 110.5 Q 13.5 109.0, 16.0 109.0 Q 18.5 109.0, 19.9 110.5 Q 21.3 112.1, 21.3 114.8 Q 21.3 117.6, 19.9 119.2 Q 18.5 120.8, 16.0 120.8 Q 13.5 120.8, 12.1 119.2 Q 10.7 117.6, 10.7 114.8 M 16.0 119.5 Q 17.7 119.5, 18.7 118.3 Q 19.6 117.1, 19.6 114.8 Q 19.6 112.6, 18.7 111.5 Q 17.7 110.3, 16.0 110.3 Q 14.3 110.3, 13.3 111.4 Q 12.4 112.6, 12.4 114.8 Q 12.4 117.1, 13.3 118.3 Q 14.3 119.5, 16.0 119.5 " fill="#FF0000"/>
<path class="atom-7" d="M 193.2 127.4 Q 193.2 124.6, 194.6 123.1 Q 196.0 121.6, 198.5 121.6 Q 201.0 121.6, 202.4 123.1 Q 203.7 124.6, 203.7 127.4 Q 203.7 130.2, 202.4 131.7 Q 201.0 133.3, 198.5 133.3 Q 196.0 133.3, 194.6 131.7 Q 193.2 130.2, 193.2 127.4 M 198.5 132.0 Q 200.2 132.0, 201.2 130.8 Q 202.1 129.7, 202.1 127.4 Q 202.1 125.1, 201.2 124.0 Q 200.2 122.8, 198.5 122.8 Q 196.8 122.8, 195.8 124.0 Q 194.9 125.1, 194.9 127.4 Q 194.9 129.7, 195.8 130.8 Q 196.8 132.0, 198.5 132.0 " fill="#FF0000"/>
<path class="atom-8" d="M 114.2 139.3 L 115.7 139.3 L 115.7 144.1 L 121.6 144.1 L 121.6 139.3 L 123.1 139.3 L 123.1 150.7 L 121.6 150.7 L 121.6 145.4 L 115.7 145.4 L 115.7 150.7 L 114.2 150.7 L 114.2 139.3 " fill="#FF0000"/>
<path class="atom-8" d="M 125.5 145.0 Q 125.5 142.2, 126.8 140.7 Q 128.2 139.1, 130.7 139.1 Q 133.3 139.1, 134.6 140.7 Q 136.0 142.2, 136.0 145.0 Q 136.0 147.7, 134.6 149.3 Q 133.2 150.9, 130.7 150.9 Q 128.2 150.9, 126.8 149.3 Q 125.5 147.8, 125.5 145.0 M 130.7 149.6 Q 132.5 149.6, 133.4 148.4 Q 134.4 147.3, 134.4 145.0 Q 134.4 142.7, 133.4 141.6 Q 132.5 140.4, 130.7 140.4 Q 129.0 140.4, 128.0 141.6 Q 127.1 142.7, 127.1 145.0 Q 127.1 147.3, 128.0 148.4 Q 129.0 149.6, 130.7 149.6 " fill="#FF0000"/>
</g>
    <g transform="translate(480.0, 0) scale(1 1) "><line x1="15" y1="100" x2="25" y2="100" style="stroke:rgb(0,0,0);stroke-width:2"/>
  <line x1="20" y1="95" x2="20" y2="105" style="stroke:rgb(0,0,0);stroke-width:2"/>
</g>
    <g transform="translate(520.0, 0) scale(1 1) "><!-- END OF HEADER -->
<rect style="opacity:1.0;fill:#FFFFFF;stroke:none" width="233.0" height="200.0" x="0.0" y="0.0"> </rect>
<path class="bond-0 atom-0 atom-1" d="M 117.9,29.3 L 127.1,69.1" style="fill:none;fill-rule:evenodd;stroke:#000000;stroke-width:2.0px;stroke-linecap:butt;stroke-linejoin:miter;stroke-opacity:1"/>
<path class="bond-1 atom-1 atom-2" d="M 127.1,69.1 L 143.3,74.1" style="fill:none;fill-rule:evenodd;stroke:#000000;stroke-width:2.0px;stroke-linecap:butt;stroke-linejoin:miter;stroke-opacity:1"/>
<path class="bond-1 atom-1 atom-2" d="M 143.3,74.1 L 159.5,79.0" style="fill:none;fill-rule:evenodd;stroke:#FF0000;stroke-width:2.0px;stroke-linecap:butt;stroke-linejoin:miter;stroke-opacity:1"/>
<path class="bond-2 atom-2 atom-3" d="M 167.9,88.4 L 171.6,104.6" style="fill:none;fill-rule:evenodd;stroke:#FF0000;stroke-width:2.0px;stroke-linecap:butt;stroke-linejoin:miter;stroke-opacity:1"/>
<path class="bond-2 atom-2 atom-3" d="M 171.6,104.6 L 175.4,120.8" style="fill:none;fill-rule:evenodd;stroke:#000000;stroke-width:2.0px;stroke-linecap:butt;stroke-linejoin:miter;stroke-opacity:1"/>
<path class="bond-3 atom-3 atom-4" d="M 175.4,120.8 L 191.6,125.7" style="fill:none;fill-rule:evenodd;stroke:#000000;stroke-width:2.0px;stroke-linecap:butt;stroke-linejoin:miter;stroke-opacity:1"/>
<path class="bond-3 atom-3 atom-4" d="M 191.6,125.7 L 207.8,130.7" style="fill:none;fill-rule:evenodd;stroke:#FF0000;stroke-width:2.0px;stroke-linecap:butt;stroke-linejoin:miter;stroke-opacity:1"/>
<path class="bond-3 atom-3 atom-4" d="M 180.6,116.0 L 193.4,119.9" style="fill:none;fill-rule:evenodd;stroke:#000000;stroke-width:2.0px;stroke-linecap:butt;stroke-linejoin:miter;stroke-opacity:1"/>
<path class="bond-3 atom-3 atom-4" d="M 193.4,119.9 L 209.6,124.8" style="fill:none;fill-rule:evenodd;stroke:#FF0000;stroke-width:2.0px;stroke-linecap:butt;stroke-linejoin:miter;stroke-opacity:1"/>
<path class="bond-4 atom-1 atom-5" d="M 127.1,69.1 L 97.3,97.0" style="fill:none;fill-rule:evenodd;stroke:#000000;stroke-width:2.0px;stroke-linecap:butt;stroke-linejoin:miter;stroke-opacity:1"/>
<path class="bond-5 atom-5 atom-6" d="M 97.3,97.0 L 69.4,67.1" style="fill:none;fill-rule:evenodd;stroke:#000000;stroke-width:2.0px;stroke-linecap:butt;stroke-linejoin:miter;stroke-opacity:1"/>
<path class="bond-6 atom-5 atom-7" d="M 97.3,97.0 L 125.1,126.8" style="fill:none;fill-rule:evenodd;stroke:#000000;stroke-width:2.0px;stroke-linecap:butt;stroke-linejoin:miter;stroke-opacity:1"/>
<path class="bond-7 atom-5 atom-8" d="M 97.3,97.0 L 67.4,124.9" style="fill:none;fill-rule:evenodd;stroke:#000000;stroke-width:2.0px;stroke-linecap:butt;stroke-linejoin:miter;stroke-opacity:1"/>
<path class="bond-8 atom-8 atom-9" d="M 64.1,123.8 L 68.0,141.0" style="fill:none;fill-rule:evenodd;stroke:#000000;stroke-width:2.0px;stroke-linecap:butt;stroke-linejoin:miter;stroke-opacity:1"/>
<path class="bond-8 atom-8 atom-9" d="M 68.0,141.0 L 72.0,158.1" style="fill:none;fill-rule:evenodd;stroke:#FF0000;stroke-width:2.0px;stroke-linecap:butt;stroke-linejoin:miter;stroke-opacity:1"/>
<path class="bond-8 atom-8 atom-9" d="M 70.0,122.4 L 74.0,139.6" style="fill:none;fill-rule:evenodd;stroke:#000000;stroke-width:2.0px;stroke-linecap:butt;stroke-linejoin:miter;stroke-opacity:1"/>
<path class="bond-8 atom-8 atom-9" d="M 74.0,139.6 L 78.0,156.7" style="fill:none;fill-rule:evenodd;stroke:#FF0000;stroke-width:2.0px;stroke-linecap:butt;stroke-linejoin:miter;stroke-opacity:1"/>
<path class="bond-9 atom-8 atom-10" d="M 67.4,124.9 L 51.2,119.9" style="fill:none;fill-rule:evenodd;stroke:#000000;stroke-width:2.0px;stroke-linecap:butt;stroke-linejoin:miter;stroke-opacity:1"/>
<path class="bond-9 atom-8 atom-10" d="M 51.2,119.9 L 35.0,115.0" style="fill:none;fill-rule:evenodd;stroke:#FF0000;stroke-width:2.0px;stroke-linecap:butt;stroke-linejoin:miter;stroke-opacity:1"/>
<path d="M 175.2,120.0 L 175.4,120.8 L 176.2,121.1" style="fill:none;stroke:#000000;stroke-width:2.0px;stroke-linecap:butt;stroke-linejoin:miter;stroke-opacity:1;"/>
<path d="M 68.9,123.5 L 67.4,124.9 L 66.6,124.6" style="fill:none;stroke:#000000;stroke-width:2.0px;stroke-linecap:butt;stroke-linejoin:miter;stroke-opacity:1;"/>
<path class="atom-2" d="M 160.9 81.1 Q 160.9 78.3, 162.2 76.7 Q 163.6 75.2, 166.2 75.2 Q 168.7 75.2, 170.1 76.7 Q 171.5 78.3, 171.5 81.1 Q 171.5 83.9, 170.1 85.5 Q 168.7 87.1, 166.2 87.1 Q 163.6 87.1, 162.2 85.5 Q 160.9 83.9, 160.9 81.1 M 166.2 85.7 Q 167.9 85.7, 168.9 84.6 Q 169.9 83.4, 169.9 81.1 Q 169.9 78.8, 168.9 77.6 Q 167.9 76.5, 166.2 76.5 Q 164.4 76.5, 163.5 77.6 Q 162.5 78.8, 162.5 81.1 Q 162.5 83.4, 163.5 84.6 Q 164.4 85.7, 166.2 85.7 " fill="#FF0000"/>
<path class="atom-4" d="M 210.0 129.8 Q 210.0 127.0, 211.4 125.5 Q 212.8 123.9, 215.3 123.9 Q 217.9 123.9, 219.3 125.5 Q 220.7 127.0, 220.7 129.8 Q 220.7 132.6, 219.3 134.2 Q 217.9 135.8, 215.3 135.8 Q 212.8 135.8, 211.4 134.2 Q 210.0 132.6, 210.0 129.8 M 215.3 134.5 Q 217.1 134.5, 218.1 133.3 Q 219.0 132.1, 219.0 129.8 Q 219.0 127.6, 218.1 126.4 Q 217.1 125.2, 215.3 125.2 Q 213.6 125.2, 212.6 126.4 Q 211.7 127.5, 211.7 129.8 Q 211.7 132.2, 212.6 133.3 Q 213.6 134.5, 215.3 134.5 " fill="#FF0000"/>
<path class="atom-9" d="M 71.3 164.7 Q 71.3 161.9, 72.7 160.3 Q 74.1 158.8, 76.6 158.8 Q 79.2 158.8, 80.6 160.3 Q 82.0 161.9, 82.0 164.7 Q 82.0 167.5, 80.6 169.1 Q 79.2 170.7, 76.6 170.7 Q 74.1 170.7, 72.7 169.1 Q 71.3 167.5, 71.3 164.7 M 76.6 169.4 Q 78.4 169.4, 79.4 168.2 Q 80.3 167.0, 80.3 164.7 Q 80.3 162.4, 79.4 161.3 Q 78.4 160.1, 76.6 160.1 Q 74.9 160.1, 73.9 161.2 Q 73.0 162.4, 73.0 164.7 Q 73.0 167.0, 73.9 168.2 Q 74.9 169.4, 76.6 169.4 " fill="#FF0000"/>
<path class="atom-10" d="M 11.6 107.2 L 13.2 107.2 L 13.2 112.1 L 19.1 112.1 L 19.1 107.2 L 20.7 107.2 L 20.7 118.8 L 19.1 118.8 L 19.1 113.5 L 13.2 113.5 L 13.2 118.8 L 11.6 118.8 L 11.6 107.2 " fill="#FF0000"/>
<path class="atom-10" d="M 23.1 113.0 Q 23.1 110.2, 24.4 108.6 Q 25.8 107.1, 28.4 107.1 Q 30.9 107.1, 32.3 108.6 Q 33.7 110.2, 33.7 113.0 Q 33.7 115.8, 32.3 117.4 Q 30.9 119.0, 28.4 119.0 Q 25.8 119.0, 24.4 117.4 Q 23.1 115.8, 23.1 113.0 M 28.4 117.7 Q 30.1 117.7, 31.1 116.5 Q 32.1 115.3, 32.1 113.0 Q 32.1 110.7, 31.1 109.6 Q 30.1 108.4, 28.4 108.4 Q 26.6 108.4, 25.7 109.5 Q 24.7 110.7, 24.7 113.0 Q 24.7 115.3, 25.7 116.5 Q 26.6 117.7, 28.4 117.7 " fill="#FF0000"/>
</g>
  </g>
</svg>
