<?xml version='1.0' encoding='ASCII' standalone='yes'?>
<svg xmlns="http://www.w3.org/2000/svg" xmlns:xlink="http://www.w3.org/1999/xlink" version="1.1" width="946.0px" viewBox="0 0 946.0 200.0" height="200.0px">
  <g>
    <g transform="translate(0, 0) scale(1 1) "><!-- END OF HEADER -->
<rect style="opacity:1.0;fill:#FFFFFF;stroke:none" width="304.0" height="200.0" x="0.0" y="0.0"> </rect>
<path class="bond-0 atom-0 atom-1" d="M 274.9,57.4 L 248.1,78.0" style="fill:none;fill-rule:evenodd;stroke:#000000;stroke-width:2.0px;stroke-linecap:butt;stroke-linejoin:miter;stroke-opacity:1"/>
<path class="bond-1 atom-1 atom-2" d="M 248.1,78.0 L 216.8,65.1" style="fill:none;fill-rule:evenodd;stroke:#000000;stroke-width:2.0px;stroke-linecap:butt;stroke-linejoin:miter;stroke-opacity:1"/>
<path class="bond-2 atom-2 atom-3" d="M 216.8,65.1 L 190.0,85.7" style="fill:none;fill-rule:evenodd;stroke:#000000;stroke-width:2.0px;stroke-linecap:butt;stroke-linejoin:miter;stroke-opacity:1"/>
<path class="bond-3 atom-3 atom-4" d="M 190.0,85.7 L 169.3,58.9" style="fill:none;fill-rule:evenodd;stroke:#000000;stroke-width:2.0px;stroke-linecap:butt;stroke-linejoin:miter;stroke-opacity:1"/>
<path class="bond-4 atom-4 atom-5" d="M 169.3,58.9 L 174.5,46.3" style="fill:none;fill-rule:evenodd;stroke:#000000;stroke-width:2.0px;stroke-linecap:butt;stroke-linejoin:miter;stroke-opacity:1"/>
<path class="bond-4 atom-4 atom-5" d="M 174.5,46.3 L 179.8,33.6" style="fill:none;fill-rule:evenodd;stroke:#FF0000;stroke-width:2.0px;stroke-linecap:butt;stroke-linejoin:miter;stroke-opacity:1"/>
<path class="bond-5 atom-3 atom-6" d="M 190.0,85.7 L 163.1,106.3" style="fill:none;fill-rule:evenodd;stroke:#000000;stroke-width:2.0px;stroke-linecap:butt;stroke-linejoin:miter;stroke-opacity:1"/>
<path class="bond-6 atom-6 atom-7" d="M 163.1,106.3 L 131.9,93.4" style="fill:none;fill-rule:evenodd;stroke:#000000;stroke-width:2.0px;stroke-linecap:butt;stroke-linejoin:miter;stroke-opacity:1"/>
<path class="bond-7 atom-7 atom-8" d="M 131.9,93.4 L 126.6,112.7" style="fill:none;fill-rule:evenodd;stroke:#000000;stroke-width:2.0px;stroke-linecap:butt;stroke-linejoin:miter;stroke-opacity:1"/>
<path class="bond-8 atom-7 atom-9" d="M 131.9,93.4 L 144.8,62.1" style="fill:none;fill-rule:evenodd;stroke:#000000;stroke-width:2.0px;stroke-linecap:butt;stroke-linejoin:miter;stroke-opacity:1"/>
<path class="bond-9 atom-7 atom-10" d="M 131.9,93.4 L 100.6,80.5" style="fill:none;fill-rule:evenodd;stroke:#000000;stroke-width:2.0px;stroke-linecap:butt;stroke-linejoin:miter;stroke-opacity:1"/>
<path class="bond-10 atom-10 atom-11" d="M 100.6,80.5 L 73.8,101.1" style="fill:none;fill-rule:evenodd;stroke:#000000;stroke-width:2.0px;stroke-linecap:butt;stroke-linejoin:miter;stroke-opacity:1"/>
<path class="bond-11 atom-11 atom-12" d="M 73.8,101.1 L 47.0,121.8" style="fill:none;fill-rule:evenodd;stroke:#000000;stroke-width:2.0px;stroke-linecap:butt;stroke-linejoin:miter;stroke-opacity:1"/>
<path class="bond-12 atom-11 atom-13" d="M 73.8,101.1 L 53.1,74.3" style="fill:none;fill-rule:evenodd;stroke:#000000;stroke-width:2.0px;stroke-linecap:butt;stroke-linejoin:miter;stroke-opacity:1"/>
<path class="bond-13 atom-13 atom-14" d="M 54.2,71.8 L 39.5,73.7" style="fill:none;fill-rule:evenodd;stroke:#000000;stroke-width:2.0px;stroke-linecap:butt;stroke-linejoin:miter;stroke-opacity:1"/>
<path class="bond-13 atom-13 atom-14" d="M 39.5,73.7 L 24.7,75.7" style="fill:none;fill-rule:evenodd;stroke:#FF0000;stroke-width:2.0px;stroke-linecap:butt;stroke-linejoin:miter;stroke-opacity:1"/>
<path class="bond-13 atom-13 atom-14" d="M 54.8,76.5 L 40.1,78.5" style="fill:none;fill-rule:evenodd;stroke:#000000;stroke-width:2.0px;stroke-linecap:butt;stroke-linejoin:miter;stroke-opacity:1"/>
<path class="bond-13 atom-13 atom-14" d="M 40.1,78.5 L 25.4,80.4" style="fill:none;fill-rule:evenodd;stroke:#FF0000;stroke-width:2.0px;stroke-linecap:butt;stroke-linejoin:miter;stroke-opacity:1"/>
<path class="bond-14 atom-13 atom-15" d="M 53.1,74.3 L 58.4,61.7" style="fill:none;fill-rule:evenodd;stroke:#000000;stroke-width:2.0px;stroke-linecap:butt;stroke-linejoin:miter;stroke-opacity:1"/>
<path class="bond-14 atom-13 atom-15" d="M 58.4,61.7 L 63.6,49.1" style="fill:none;fill-rule:evenodd;stroke:#FF0000;stroke-width:2.0px;stroke-linecap:butt;stroke-linejoin:miter;stroke-opacity:1"/>
<path class="bond-15 atom-11 atom-16" d="M 73.8,101.1 L 94.4,128.0" style="fill:none;fill-rule:evenodd;stroke:#000000;stroke-width:2.0px;stroke-linecap:butt;stroke-linejoin:miter;stroke-opacity:1"/>
<path class="bond-16 atom-16 atom-17" d="M 94.4,128.0 L 81.5,159.2" style="fill:none;fill-rule:evenodd;stroke:#000000;stroke-width:2.0px;stroke-linecap:butt;stroke-linejoin:miter;stroke-opacity:1"/>
<path class="bond-17 atom-16 atom-18" d="M 94.4,128.0 L 101.7,127.9" style="fill:none;fill-rule:evenodd;stroke:#000000;stroke-width:2.0px;stroke-linecap:butt;stroke-linejoin:miter;stroke-opacity:1"/>
<path class="bond-17 atom-16 atom-18" d="M 101.7,127.9 L 108.9,127.8" style="fill:none;fill-rule:evenodd;stroke:#FF0000;stroke-width:2.0px;stroke-linecap:butt;stroke-linejoin:miter;stroke-opacity:1"/>
<path class="bond-18 atom-3 atom-19" d="M 190.0,85.7 L 210.6,112.5" style="fill:none;fill-rule:evenodd;stroke:#000000;stroke-width:2.0px;stroke-linecap:butt;stroke-linejoin:miter;stroke-opacity:1"/>
<path class="bond-19 atom-19 atom-20" d="M 209.7,114.8 L 216.2,115.6" style="fill:none;fill-rule:evenodd;stroke:#000000;stroke-width:2.0px;stroke-linecap:butt;stroke-linejoin:miter;stroke-opacity:1"/>
<path class="bond-19 atom-19 atom-20" d="M 216.2,115.6 L 222.8,116.3" style="fill:none;fill-rule:evenodd;stroke:#FF0000;stroke-width:2.0px;stroke-linecap:butt;stroke-linejoin:miter;stroke-opacity:1"/>
<path class="bond-19 atom-19 atom-20" d="M 208.6,109.9 L 216.7,110.8" style="fill:none;fill-rule:evenodd;stroke:#000000;stroke-width:2.0px;stroke-linecap:butt;stroke-linejoin:miter;stroke-opacity:1"/>
<path class="bond-19 atom-19 atom-20" d="M 216.7,110.8 L 223.3,111.6" style="fill:none;fill-rule:evenodd;stroke:#FF0000;stroke-width:2.0px;stroke-linecap:butt;stroke-linejoin:miter;stroke-opacity:1"/>
<path class="bond-20 atom-19 atom-21" d="M 210.6,112.5 L 205.4,125.2" style="fill:none;fill-rule:evenodd;stroke:#000000;stroke-width:2.0px;stroke-linecap:butt;stroke-linejoin:miter;stroke-opacity:1"/>
<path class="bond-20 atom-19 atom-21" d="M 205.4,125.2 L 200.1,137.9" style="fill:none;fill-rule:evenodd;stroke:#FF0000;stroke-width:2.0px;stroke-linecap:butt;stroke-linejoin:miter;stroke-opacity:1"/>
<path class="bond-21 atom-1 atom-22" d="M 248.1,78.0 L 252.5,111.5" style="fill:none;fill-rule:evenodd;stroke:#000000;stroke-width:2.0px;stroke-linecap:butt;stroke-linejoin:miter;stroke-opacity:1"/>
<path class="bond-22 atom-22 atom-23" d="M 250.3,113.2 L 263.9,118.8" style="fill:none;fill-rule:evenodd;stroke:#000000;stroke-width:2.0px;stroke-linecap:butt;stroke-linejoin:miter;stroke-opacity:1"/>
<path class="bond-22 atom-22 atom-23" d="M 263.9,118.8 L 277.4,124.4" style="fill:none;fill-rule:evenodd;stroke:#FF0000;stroke-width:2.0px;stroke-linecap:butt;stroke-linejoin:miter;stroke-opacity:1"/>
<path class="bond-22 atom-22 atom-23" d="M 252.2,108.8 L 265.7,114.4" style="fill:none;fill-rule:evenodd;stroke:#000000;stroke-width:2.0px;stroke-linecap:butt;stroke-linejoin:miter;stroke-opacity:1"/>
<path class="bond-22 atom-22 atom-23" d="M 265.7,114.4 L 279.3,120.0" style="fill:none;fill-rule:evenodd;stroke:#FF0000;stroke-width:2.0px;stroke-linecap:butt;stroke-linejoin:miter;stroke-opacity:1"/>
<path class="bond-23 atom-22 atom-24" d="M 252.5,111.5 L 244.4,117.8" style="fill:none;fill-rule:evenodd;stroke:#000000;stroke-width:2.0px;stroke-linecap:butt;stroke-linejoin:miter;stroke-opacity:1"/>
<path class="bond-23 atom-22 atom-24" d="M 244.4,117.8 L 236.2,124.0" style="fill:none;fill-rule:evenodd;stroke:#FF0000;stroke-width:2.0px;stroke-linecap:butt;stroke-linejoin:miter;stroke-opacity:1"/>
<path d="M 218.4,65.7 L 216.8,65.1 L 215.4,66.1" style="fill:none;stroke:#000000;stroke-width:2.0px;stroke-linecap:butt;stroke-linejoin:miter;stroke-opacity:1;"/>
<path d="M 170.4,60.2 L 169.3,58.9 L 169.6,58.3" style="fill:none;stroke:#000000;stroke-width:2.0px;stroke-linecap:butt;stroke-linejoin:miter;stroke-opacity:1;"/>
<path d="M 164.5,105.3 L 163.1,106.3 L 161.6,105.7" style="fill:none;stroke:#000000;stroke-width:2.0px;stroke-linecap:butt;stroke-linejoin:miter;stroke-opacity:1;"/>
<path d="M 102.2,81.2 L 100.6,80.5 L 99.3,81.5" style="fill:none;stroke:#000000;stroke-width:2.0px;stroke-linecap:butt;stroke-linejoin:miter;stroke-opacity:1;"/>
<path d="M 54.2,75.7 L 53.1,74.3 L 53.4,73.7" style="fill:none;stroke:#000000;stroke-width:2.0px;stroke-linecap:butt;stroke-linejoin:miter;stroke-opacity:1;"/>
<path d="M 209.6,111.2 L 210.6,112.5 L 210.3,113.2" style="fill:none;stroke:#000000;stroke-width:2.0px;stroke-linecap:butt;stroke-linejoin:miter;stroke-opacity:1;"/>
<path d="M 252.3,109.9 L 252.5,111.5 L 252.1,111.8" style="fill:none;stroke:#000000;stroke-width:2.0px;stroke-linecap:butt;stroke-linejoin:miter;stroke-opacity:1;"/>
<path class="atom-5" d="M 177.9 27.6 Q 177.9 25.3, 179.0 24.0 Q 180.1 22.8, 182.3 22.8 Q 184.4 22.8, 185.5 24.0 Q 186.6 25.3, 186.6 27.6 Q 186.6 30.0, 185.5 31.3 Q 184.3 32.6, 182.3 32.6 Q 180.1 32.6, 179.0 31.3 Q 177.9 30.0, 177.9 27.6 M 182.3 31.5 Q 183.7 31.5, 184.5 30.5 Q 185.3 29.6, 185.3 27.6 Q 185.3 25.8, 184.5 24.8 Q 183.7 23.8, 182.3 23.8 Q 180.8 23.8, 180.0 24.8 Q 179.2 25.7, 179.2 27.6 Q 179.2 29.6, 180.0 30.5 Q 180.8 31.5, 182.3 31.5 " fill="#FF0000"/>
<path class="atom-5" d="M 188.1 22.9 L 189.4 22.9 L 189.4 26.9 L 194.3 26.9 L 194.3 22.9 L 195.6 22.9 L 195.6 32.5 L 194.3 32.5 L 194.3 28.0 L 189.4 28.0 L 189.4 32.5 L 188.1 32.5 L 188.1 22.9 " fill="#FF0000"/>
<path class="atom-14" d="M 15.2 78.8 Q 15.2 76.5, 16.3 75.2 Q 17.5 73.9, 19.6 73.9 Q 21.7 73.9, 22.9 75.2 Q 24.0 76.5, 24.0 78.8 Q 24.0 81.1, 22.8 82.5 Q 21.7 83.8, 19.6 83.8 Q 17.5 83.8, 16.3 82.5 Q 15.2 81.1, 15.2 78.8 M 19.6 82.7 Q 21.1 82.7, 21.8 81.7 Q 22.6 80.7, 22.6 78.8 Q 22.6 76.9, 21.8 76.0 Q 21.1 75.0, 19.6 75.0 Q 18.1 75.0, 17.3 76.0 Q 16.6 76.9, 16.6 78.8 Q 16.6 80.7, 17.3 81.7 Q 18.1 82.7, 19.6 82.7 " fill="#FF0000"/>
<path class="atom-15" d="M 61.7 43.1 Q 61.7 40.8, 62.8 39.5 Q 63.9 38.2, 66.1 38.2 Q 68.2 38.2, 69.3 39.5 Q 70.5 40.8, 70.5 43.1 Q 70.5 45.4, 69.3 46.7 Q 68.2 48.0, 66.1 48.0 Q 63.9 48.0, 62.8 46.7 Q 61.7 45.4, 61.7 43.1 M 66.1 47.0 Q 67.5 47.0, 68.3 46.0 Q 69.1 45.0, 69.1 43.1 Q 69.1 41.2, 68.3 40.2 Q 67.5 39.3, 66.1 39.3 Q 64.6 39.3, 63.8 40.2 Q 63.0 41.2, 63.0 43.1 Q 63.0 45.0, 63.8 46.0 Q 64.6 47.0, 66.1 47.0 " fill="#FF0000"/>
<path class="atom-15" d="M 71.9 38.3 L 73.2 38.3 L 73.2 42.4 L 78.1 42.4 L 78.1 38.3 L 79.4 38.3 L 79.4 47.9 L 78.1 47.9 L 78.1 43.5 L 73.2 43.5 L 73.2 47.9 L 71.9 47.9 L 71.9 38.3 " fill="#FF0000"/>
<path class="atom-18" d="M 110.0 127.8 Q 110.0 125.5, 111.1 124.2 Q 112.3 122.9, 114.4 122.9 Q 116.5 122.9, 117.6 124.2 Q 118.8 125.5, 118.8 127.8 Q 118.8 130.1, 117.6 131.4 Q 116.5 132.8, 114.4 132.8 Q 112.3 132.8, 111.1 131.4 Q 110.0 130.1, 110.0 127.8 M 114.4 131.7 Q 115.8 131.7, 116.6 130.7 Q 117.4 129.7, 117.4 127.8 Q 117.4 125.9, 116.6 125.0 Q 115.8 124.0, 114.4 124.0 Q 112.9 124.0, 112.1 124.9 Q 111.3 125.9, 111.3 127.8 Q 111.3 129.7, 112.1 130.7 Q 112.9 131.7, 114.4 131.7 " fill="#FF0000"/>
<path class="atom-18" d="M 120.3 123.0 L 121.6 123.0 L 121.6 127.1 L 126.5 127.1 L 126.5 123.0 L 127.8 123.0 L 127.8 132.6 L 126.5 132.6 L 126.5 128.2 L 121.6 128.2 L 121.6 132.6 L 120.3 132.6 L 120.3 123.0 " fill="#FF0000"/>
<path class="atom-20" d="M 224.1 114.6 Q 224.1 112.3, 225.2 111.0 Q 226.3 109.7, 228.5 109.7 Q 230.6 109.7, 231.7 111.0 Q 232.9 112.3, 232.9 114.6 Q 232.9 116.9, 231.7 118.2 Q 230.6 119.5, 228.5 119.5 Q 226.4 119.5, 225.2 118.2 Q 224.1 116.9, 224.1 114.6 M 228.5 118.5 Q 229.9 118.5, 230.7 117.5 Q 231.5 116.5, 231.5 114.6 Q 231.5 112.7, 230.7 111.7 Q 229.9 110.8, 228.5 110.8 Q 227.0 110.8, 226.2 111.7 Q 225.4 112.7, 225.4 114.6 Q 225.4 116.5, 226.2 117.5 Q 227.0 118.5, 228.5 118.5 " fill="#FF0000"/>
<path class="atom-21" d="M 183.8 139.1 L 185.1 139.1 L 185.1 143.1 L 190.0 143.1 L 190.0 139.1 L 191.3 139.1 L 191.3 148.6 L 190.0 148.6 L 190.0 144.2 L 185.1 144.2 L 185.1 148.6 L 183.8 148.6 L 183.8 139.1 " fill="#FF0000"/>
<path class="atom-21" d="M 193.3 143.8 Q 193.3 141.5, 194.4 140.2 Q 195.6 139.0, 197.7 139.0 Q 199.8 139.0, 200.9 140.2 Q 202.1 141.5, 202.1 143.8 Q 202.1 146.2, 200.9 147.5 Q 199.8 148.8, 197.7 148.8 Q 195.6 148.8, 194.4 147.5 Q 193.3 146.2, 193.3 143.8 M 197.7 147.7 Q 199.1 147.7, 199.9 146.7 Q 200.7 145.8, 200.7 143.8 Q 200.7 141.9, 199.9 141.0 Q 199.1 140.0, 197.7 140.0 Q 196.2 140.0, 195.4 141.0 Q 194.6 141.9, 194.6 143.8 Q 194.6 145.8, 195.4 146.7 Q 196.2 147.7, 197.7 147.7 " fill="#FF0000"/>
<path class="atom-23" d="M 279.4 124.5 Q 279.4 122.2, 280.5 120.9 Q 281.7 119.6, 283.8 119.6 Q 285.9 119.6, 287.1 120.9 Q 288.2 122.2, 288.2 124.5 Q 288.2 126.8, 287.0 128.1 Q 285.9 129.4, 283.8 129.4 Q 281.7 129.4, 280.5 128.1 Q 279.4 126.8, 279.4 124.5 M 283.8 128.4 Q 285.3 128.4, 286.0 127.4 Q 286.8 126.4, 286.8 124.5 Q 286.8 122.6, 286.0 121.6 Q 285.3 120.7, 283.8 120.7 Q 282.3 120.7, 281.5 121.6 Q 280.8 122.6, 280.8 124.5 Q 280.8 126.4, 281.5 127.4 Q 282.3 128.4, 283.8 128.4 " fill="#FF0000"/>
<path class="atom-24" d="M 216.9 123.5 L 218.2 123.5 L 218.2 127.6 L 223.1 127.6 L 223.1 123.5 L 224.4 123.5 L 224.4 133.1 L 223.1 133.1 L 223.1 128.7 L 218.2 128.7 L 218.2 133.1 L 216.9 133.1 L 216.9 123.5 " fill="#FF0000"/>
<path class="atom-24" d="M 226.4 128.3 Q 226.4 126.0, 227.5 124.7 Q 228.7 123.4, 230.8 123.4 Q 232.9 123.4, 234.1 124.7 Q 235.2 126.0, 235.2 128.3 Q 235.2 130.6, 234.0 131.9 Q 232.9 133.2, 230.8 133.2 Q 228.7 133.2, 227.5 131.9 Q 226.4 130.6, 226.4 128.3 M 230.8 132.2 Q 232.3 132.2, 233.0 131.2 Q 233.8 130.2, 233.8 128.3 Q 233.8 126.4, 233.0 125.4 Q 232.3 124.5, 230.8 124.5 Q 229.3 124.5, 228.5 125.4 Q 227.8 126.4, 227.8 128.3 Q 227.8 130.2, 228.5 131.2 Q 229.3 132.2, 230.8 132.2 " fill="#FF0000"/>
<path class="legend" d="M 142.7 181.9 Q 142.7 179.6, 143.4 177.7 Q 144.0 175.8, 145.3 173.8 L 146.2 174.4 Q 145.2 176.3, 144.6 178.0 Q 144.1 179.7, 144.1 181.9 Q 144.1 184.0, 144.6 185.8 Q 145.2 187.5, 146.2 189.4 L 145.3 190.0 Q 144.0 188.0, 143.4 186.1 Q 142.7 184.2, 142.7 181.9 " fill="#000000"/>
<path class="legend" d="M 147.1 177.3 Q 147.6 176.2, 148.5 175.6 Q 149.5 175.0, 150.9 175.0 Q 152.6 175.0, 153.6 175.9 Q 154.5 176.8, 154.5 178.5 Q 154.5 180.2, 153.3 181.7 Q 152.1 183.3, 149.5 185.2 L 154.7 185.2 L 154.7 186.4 L 147.1 186.4 L 147.1 185.4 Q 149.2 183.9, 150.5 182.8 Q 151.7 181.6, 152.3 180.6 Q 152.9 179.6, 152.9 178.6 Q 152.9 177.5, 152.4 176.9 Q 151.9 176.3, 150.9 176.3 Q 150.0 176.3, 149.4 176.6 Q 148.8 177.0, 148.4 177.8 L 147.1 177.3 " fill="#000000"/>
<path class="legend" d="M 159.7 181.9 Q 159.7 184.2, 159.0 186.1 Q 158.4 188.0, 157.1 190.0 L 156.2 189.4 Q 157.2 187.5, 157.7 185.8 Q 158.3 184.0, 158.3 181.9 Q 158.3 179.7, 157.7 178.0 Q 157.2 176.3, 156.2 174.4 L 157.1 173.8 Q 158.4 175.8, 159.0 177.7 Q 159.7 179.6, 159.7 181.9 " fill="#000000"/>
</g>
    <g transform="translate(304.0, 0) scale(1 1) "><line x1="5" y1="100" x2="35" y2="100" style="stroke:rgb(0,0,0);stroke-width:2"/>
  <line x1="34" y1="100" x2="29" y2="95" style="stroke:rgb(0,0,0);stroke-width:2"/>
  <line x1="34" y1="100" x2="29" y2="105" style="stroke:rgb(0,0,0);stroke-width:2"/>
</g>
    <g transform="translate(344.0, 0) scale(1 1) "><!-- END OF HEADER -->
<rect style="opacity:1.0;fill:#FFFFFF;stroke:none" width="347.0" height="200.0" x="0.0" y="0.0"> </rect>
<path class="bond-0 atom-0 atom-1" d="M 316.6,80.7 L 288.5,78.5" style="fill:none;fill-rule:evenodd;stroke:#000000;stroke-width:2.0px;stroke-linecap:butt;stroke-linejoin:miter;stroke-opacity:1"/>
<path class="bond-1 atom-1 atom-2" d="M 288.5,78.5 L 272.6,101.8" style="fill:none;fill-rule:evenodd;stroke:#000000;stroke-width:2.0px;stroke-linecap:butt;stroke-linejoin:miter;stroke-opacity:1"/>
<path class="bond-2 atom-2 atom-3" d="M 272.6,101.8 L 244.5,99.6" style="fill:none;fill-rule:evenodd;stroke:#000000;stroke-width:2.0px;stroke-linecap:butt;stroke-linejoin:miter;stroke-opacity:1"/>
<path class="bond-3 atom-3 atom-4" d="M 244.5,99.6 L 242.4,127.7" style="fill:none;fill-rule:evenodd;stroke:#000000;stroke-width:2.0px;stroke-linecap:butt;stroke-linejoin:miter;stroke-opacity:1"/>
<path class="bond-4 atom-4 atom-5" d="M 242.4,127.7 L 251.7,134.1" style="fill:none;fill-rule:evenodd;stroke:#000000;stroke-width:2.0px;stroke-linecap:butt;stroke-linejoin:miter;stroke-opacity:1"/>
<path class="bond-4 atom-4 atom-5" d="M 251.7,134.1 L 261.1,140.5" style="fill:none;fill-rule:evenodd;stroke:#FF0000;stroke-width:2.0px;stroke-linecap:butt;stroke-linejoin:miter;stroke-opacity:1"/>
<path class="bond-5 atom-3 atom-6" d="M 244.5,99.6 L 216.4,97.5" style="fill:none;fill-rule:evenodd;stroke:#000000;stroke-width:2.0px;stroke-linecap:butt;stroke-linejoin:miter;stroke-opacity:1"/>
<path class="bond-6 atom-6 atom-7" d="M 216.4,97.5 L 200.5,120.7" style="fill:none;fill-rule:evenodd;stroke:#000000;stroke-width:2.0px;stroke-linecap:butt;stroke-linejoin:miter;stroke-opacity:1"/>
<path class="bond-7 atom-7 atom-8" d="M 200.5,120.7 L 177.3,104.8" style="fill:none;fill-rule:evenodd;stroke:#000000;stroke-width:2.0px;stroke-linecap:butt;stroke-linejoin:miter;stroke-opacity:1"/>
<path class="bond-8 atom-7 atom-9" d="M 200.5,120.7 L 223.8,136.6" style="fill:none;fill-rule:evenodd;stroke:#000000;stroke-width:2.0px;stroke-linecap:butt;stroke-linejoin:miter;stroke-opacity:1"/>
<path class="bond-9 atom-7 atom-10" d="M 200.5,120.7 L 184.6,144.0" style="fill:none;fill-rule:evenodd;stroke:#000000;stroke-width:2.0px;stroke-linecap:butt;stroke-linejoin:miter;stroke-opacity:1"/>
<path class="bond-10 atom-10 atom-11" d="M 184.6,144.0 L 156.5,141.8" style="fill:none;fill-rule:evenodd;stroke:#000000;stroke-width:2.0px;stroke-linecap:butt;stroke-linejoin:miter;stroke-opacity:1"/>
<path class="bond-11 atom-11 atom-12" d="M 156.5,141.8 L 136.0,142.8" style="fill:none;fill-rule:evenodd;stroke:#000000;stroke-width:2.0px;stroke-linecap:butt;stroke-linejoin:miter;stroke-opacity:1"/>
<path class="bond-12 atom-11 atom-13" d="M 156.5,141.8 L 154.4,169.9" style="fill:none;fill-rule:evenodd;stroke:#000000;stroke-width:2.0px;stroke-linecap:butt;stroke-linejoin:miter;stroke-opacity:1"/>
<path class="bond-13 atom-13 atom-14" d="M 152.2,171.0 L 162.1,177.7" style="fill:none;fill-rule:evenodd;stroke:#000000;stroke-width:2.0px;stroke-linecap:butt;stroke-linejoin:miter;stroke-opacity:1"/>
<path class="bond-13 atom-13 atom-14" d="M 162.1,177.7 L 171.9,184.4" style="fill:none;fill-rule:evenodd;stroke:#FF0000;stroke-width:2.0px;stroke-linecap:butt;stroke-linejoin:miter;stroke-opacity:1"/>
<path class="bond-13 atom-13 atom-14" d="M 154.6,167.6 L 164.4,174.3" style="fill:none;fill-rule:evenodd;stroke:#000000;stroke-width:2.0px;stroke-linecap:butt;stroke-linejoin:miter;stroke-opacity:1"/>
<path class="bond-13 atom-13 atom-14" d="M 164.4,174.3 L 174.2,181.0" style="fill:none;fill-rule:evenodd;stroke:#FF0000;stroke-width:2.0px;stroke-linecap:butt;stroke-linejoin:miter;stroke-opacity:1"/>
<path class="bond-14 atom-13 atom-15" d="M 154.4,169.9 L 144.0,174.9" style="fill:none;fill-rule:evenodd;stroke:#000000;stroke-width:2.0px;stroke-linecap:butt;stroke-linejoin:miter;stroke-opacity:1"/>
<path class="bond-14 atom-13 atom-15" d="M 144.0,174.9 L 133.5,179.9" style="fill:none;fill-rule:evenodd;stroke:#FF0000;stroke-width:2.0px;stroke-linecap:butt;stroke-linejoin:miter;stroke-opacity:1"/>
<path class="bond-15 atom-11 atom-16" d="M 156.5,141.8 L 158.7,113.8" style="fill:none;fill-rule:evenodd;stroke:#000000;stroke-width:2.0px;stroke-linecap:butt;stroke-linejoin:miter;stroke-opacity:1"/>
<path class="bond-16 atom-16 atom-17" d="M 158.7,113.8 L 186.8,115.9" style="fill:none;fill-rule:evenodd;stroke:#000000;stroke-width:2.0px;stroke-linecap:butt;stroke-linejoin:miter;stroke-opacity:1"/>
<path class="bond-17 atom-16 atom-18" d="M 158.7,113.8 L 159.5,102.2" style="fill:none;fill-rule:evenodd;stroke:#000000;stroke-width:2.0px;stroke-linecap:butt;stroke-linejoin:miter;stroke-opacity:1"/>
<path class="bond-17 atom-16 atom-18" d="M 159.5,102.2 L 160.4,90.7" style="fill:none;fill-rule:evenodd;stroke:#FF0000;stroke-width:2.0px;stroke-linecap:butt;stroke-linejoin:miter;stroke-opacity:1"/>
<path class="bond-18 atom-16 atom-19" d="M 158.7,113.8 L 130.6,111.6" style="fill:none;fill-rule:evenodd;stroke:#000000;stroke-width:2.0px;stroke-linecap:butt;stroke-linejoin:miter;stroke-opacity:1"/>
<path class="bond-19 atom-19 atom-20" d="M 130.6,111.6 L 132.7,83.5" style="fill:none;fill-rule:evenodd;stroke:#000000;stroke-width:2.0px;stroke-linecap:butt;stroke-linejoin:miter;stroke-opacity:1"/>
<path class="bond-20 atom-19 atom-21" d="M 130.6,111.6 L 126.5,131.7" style="fill:none;fill-rule:evenodd;stroke:#000000;stroke-width:2.0px;stroke-linecap:butt;stroke-linejoin:miter;stroke-opacity:1"/>
<path class="bond-21 atom-19 atom-22" d="M 130.6,111.6 L 102.5,109.5" style="fill:none;fill-rule:evenodd;stroke:#000000;stroke-width:2.0px;stroke-linecap:butt;stroke-linejoin:miter;stroke-opacity:1"/>
<path class="bond-22 atom-22 atom-23" d="M 102.5,109.5 L 90.3,84.1" style="fill:none;fill-rule:evenodd;stroke:#000000;stroke-width:2.0px;stroke-linecap:butt;stroke-linejoin:miter;stroke-opacity:1"/>
<path class="bond-23 atom-23 atom-24" d="M 90.3,84.1 L 115.7,71.9" style="fill:none;fill-rule:evenodd;stroke:#000000;stroke-width:2.0px;stroke-linecap:butt;stroke-linejoin:miter;stroke-opacity:1"/>
<path class="bond-24 atom-24 atom-25" d="M 115.7,71.9 L 117.2,67.3" style="fill:none;fill-rule:evenodd;stroke:#000000;stroke-width:2.0px;stroke-linecap:butt;stroke-linejoin:miter;stroke-opacity:1"/>
<path class="bond-24 atom-24 atom-25" d="M 117.2,67.3 L 118.7,62.7" style="fill:none;fill-rule:evenodd;stroke:#FF0000;stroke-width:2.0px;stroke-linecap:butt;stroke-linejoin:miter;stroke-opacity:1"/>
<path class="bond-25 atom-23 atom-26" d="M 90.3,84.1 L 78.1,58.7" style="fill:none;fill-rule:evenodd;stroke:#000000;stroke-width:2.0px;stroke-linecap:butt;stroke-linejoin:miter;stroke-opacity:1"/>
<path class="bond-26 atom-26 atom-27" d="M 78.1,58.7 L 94.0,35.4" style="fill:none;fill-rule:evenodd;stroke:#000000;stroke-width:2.0px;stroke-linecap:butt;stroke-linejoin:miter;stroke-opacity:1"/>
<path class="bond-27 atom-27 atom-28" d="M 94.0,35.4 L 81.8,10.0" style="fill:none;fill-rule:evenodd;stroke:#000000;stroke-width:2.0px;stroke-linecap:butt;stroke-linejoin:miter;stroke-opacity:1"/>
<path class="bond-28 atom-27 atom-29" d="M 94.0,35.4 L 122.1,37.5" style="fill:none;fill-rule:evenodd;stroke:#000000;stroke-width:2.0px;stroke-linecap:butt;stroke-linejoin:miter;stroke-opacity:1"/>
<path class="bond-29 atom-29 atom-30" d="M 119.7,37.4 L 123.8,45.7" style="fill:none;fill-rule:evenodd;stroke:#000000;stroke-width:2.0px;stroke-linecap:butt;stroke-linejoin:miter;stroke-opacity:1"/>
<path class="bond-29 atom-29 atom-30" d="M 123.8,45.7 L 127.8,54.1" style="fill:none;fill-rule:evenodd;stroke:#FF0000;stroke-width:2.0px;stroke-linecap:butt;stroke-linejoin:miter;stroke-opacity:1"/>
<path class="bond-29 atom-29 atom-30" d="M 123.4,35.6 L 127.4,43.9" style="fill:none;fill-rule:evenodd;stroke:#000000;stroke-width:2.0px;stroke-linecap:butt;stroke-linejoin:miter;stroke-opacity:1"/>
<path class="bond-29 atom-29 atom-30" d="M 127.4,43.9 L 131.5,52.3" style="fill:none;fill-rule:evenodd;stroke:#FF0000;stroke-width:2.0px;stroke-linecap:butt;stroke-linejoin:miter;stroke-opacity:1"/>
<path class="bond-30 atom-29 atom-31" d="M 122.1,37.5 L 128.3,28.4" style="fill:none;fill-rule:evenodd;stroke:#000000;stroke-width:2.0px;stroke-linecap:butt;stroke-linejoin:miter;stroke-opacity:1"/>
<path class="bond-30 atom-29 atom-31" d="M 128.3,28.4 L 134.5,19.4" style="fill:none;fill-rule:evenodd;stroke:#FF0000;stroke-width:2.0px;stroke-linecap:butt;stroke-linejoin:miter;stroke-opacity:1"/>
<path class="bond-31 atom-23 atom-32" d="M 90.3,84.1 L 64.9,96.2" style="fill:none;fill-rule:evenodd;stroke:#000000;stroke-width:2.0px;stroke-linecap:butt;stroke-linejoin:miter;stroke-opacity:1"/>
<path class="bond-32 atom-32 atom-33" d="M 62.9,94.9 L 62.0,107.1" style="fill:none;fill-rule:evenodd;stroke:#000000;stroke-width:2.0px;stroke-linecap:butt;stroke-linejoin:miter;stroke-opacity:1"/>
<path class="bond-32 atom-32 atom-33" d="M 62.0,107.1 L 61.1,119.2" style="fill:none;fill-rule:evenodd;stroke:#FF0000;stroke-width:2.0px;stroke-linecap:butt;stroke-linejoin:miter;stroke-opacity:1"/>
<path class="bond-32 atom-32 atom-33" d="M 67.0,95.2 L 66.1,107.4" style="fill:none;fill-rule:evenodd;stroke:#000000;stroke-width:2.0px;stroke-linecap:butt;stroke-linejoin:miter;stroke-opacity:1"/>
<path class="bond-32 atom-32 atom-33" d="M 66.1,107.4 L 65.2,119.6" style="fill:none;fill-rule:evenodd;stroke:#FF0000;stroke-width:2.0px;stroke-linecap:butt;stroke-linejoin:miter;stroke-opacity:1"/>
<path class="bond-33 atom-32 atom-34" d="M 64.9,96.2 L 55.5,89.9" style="fill:none;fill-rule:evenodd;stroke:#000000;stroke-width:2.0px;stroke-linecap:butt;stroke-linejoin:miter;stroke-opacity:1"/>
<path class="bond-33 atom-32 atom-34" d="M 55.5,89.9 L 46.2,83.5" style="fill:none;fill-rule:evenodd;stroke:#FF0000;stroke-width:2.0px;stroke-linecap:butt;stroke-linejoin:miter;stroke-opacity:1"/>
<path class="bond-34 atom-3 atom-35" d="M 244.5,99.6 L 246.7,71.5" style="fill:none;fill-rule:evenodd;stroke:#000000;stroke-width:2.0px;stroke-linecap:butt;stroke-linejoin:miter;stroke-opacity:1"/>
<path class="bond-35 atom-35 atom-36" d="M 246.4,74.4 L 255.8,66.6" style="fill:none;fill-rule:evenodd;stroke:#000000;stroke-width:2.0px;stroke-linecap:butt;stroke-linejoin:miter;stroke-opacity:1"/>
<path class="bond-35 atom-35 atom-36" d="M 255.8,66.6 L 265.1,58.9" style="fill:none;fill-rule:evenodd;stroke:#FF0000;stroke-width:2.0px;stroke-linecap:butt;stroke-linejoin:miter;stroke-opacity:1"/>
<path class="bond-35 atom-35 atom-36" d="M 244.9,70.3 L 253.2,63.5" style="fill:none;fill-rule:evenodd;stroke:#000000;stroke-width:2.0px;stroke-linecap:butt;stroke-linejoin:miter;stroke-opacity:1"/>
<path class="bond-35 atom-35 atom-36" d="M 253.2,63.5 L 262.5,55.8" style="fill:none;fill-rule:evenodd;stroke:#FF0000;stroke-width:2.0px;stroke-linecap:butt;stroke-linejoin:miter;stroke-opacity:1"/>
<path class="bond-36 atom-35 atom-37" d="M 246.7,71.5 L 237.3,65.1" style="fill:none;fill-rule:evenodd;stroke:#000000;stroke-width:2.0px;stroke-linecap:butt;stroke-linejoin:miter;stroke-opacity:1"/>
<path class="bond-36 atom-35 atom-37" d="M 237.3,65.1 L 228.0,58.7" style="fill:none;fill-rule:evenodd;stroke:#FF0000;stroke-width:2.0px;stroke-linecap:butt;stroke-linejoin:miter;stroke-opacity:1"/>
<path class="bond-37 atom-1 atom-38" d="M 288.5,78.5 L 276.3,53.1" style="fill:none;fill-rule:evenodd;stroke:#000000;stroke-width:2.0px;stroke-linecap:butt;stroke-linejoin:miter;stroke-opacity:1"/>
<path class="bond-38 atom-38 atom-39" d="M 277.3,55.2 L 283.9,45.7" style="fill:none;fill-rule:evenodd;stroke:#000000;stroke-width:2.0px;stroke-linecap:butt;stroke-linejoin:miter;stroke-opacity:1"/>
<path class="bond-38 atom-38 atom-39" d="M 283.9,45.7 L 290.5,36.1" style="fill:none;fill-rule:evenodd;stroke:#FF0000;stroke-width:2.0px;stroke-linecap:butt;stroke-linejoin:miter;stroke-opacity:1"/>
<path class="bond-38 atom-38 atom-39" d="M 274.0,52.9 L 280.5,43.3" style="fill:none;fill-rule:evenodd;stroke:#000000;stroke-width:2.0px;stroke-linecap:butt;stroke-linejoin:miter;stroke-opacity:1"/>
<path class="bond-38 atom-38 atom-39" d="M 280.5,43.3 L 287.1,33.8" style="fill:none;fill-rule:evenodd;stroke:#FF0000;stroke-width:2.0px;stroke-linecap:butt;stroke-linejoin:miter;stroke-opacity:1"/>
<path class="bond-39 atom-38 atom-40" d="M 276.3,53.1 L 264.6,52.2" style="fill:none;fill-rule:evenodd;stroke:#000000;stroke-width:2.0px;stroke-linecap:butt;stroke-linejoin:miter;stroke-opacity:1"/>
<path class="bond-39 atom-38 atom-40" d="M 264.6,52.2 L 252.8,51.3" style="fill:none;fill-rule:evenodd;stroke:#FF0000;stroke-width:2.0px;stroke-linecap:butt;stroke-linejoin:miter;stroke-opacity:1"/>
<path d="M 273.4,100.6 L 272.6,101.8 L 271.2,101.7" style="fill:none;stroke:#000000;stroke-width:2.0px;stroke-linecap:butt;stroke-linejoin:miter;stroke-opacity:1;"/>
<path d="M 242.5,126.3 L 242.4,127.7 L 242.8,128.0" style="fill:none;stroke:#000000;stroke-width:2.0px;stroke-linecap:butt;stroke-linejoin:miter;stroke-opacity:1;"/>
<path d="M 217.8,97.6 L 216.4,97.5 L 215.6,98.6" style="fill:none;stroke:#000000;stroke-width:2.0px;stroke-linecap:butt;stroke-linejoin:miter;stroke-opacity:1;"/>
<path d="M 185.4,142.8 L 184.6,144.0 L 183.2,143.9" style="fill:none;stroke:#000000;stroke-width:2.0px;stroke-linecap:butt;stroke-linejoin:miter;stroke-opacity:1;"/>
<path d="M 154.5,168.5 L 154.4,169.9 L 153.9,170.2" style="fill:none;stroke:#000000;stroke-width:2.0px;stroke-linecap:butt;stroke-linejoin:miter;stroke-opacity:1;"/>
<path d="M 103.9,109.6 L 102.5,109.5 L 101.9,108.2" style="fill:none;stroke:#000000;stroke-width:2.0px;stroke-linecap:butt;stroke-linejoin:miter;stroke-opacity:1;"/>
<path d="M 114.4,72.5 L 115.7,71.9 L 115.8,71.6" style="fill:none;stroke:#000000;stroke-width:2.0px;stroke-linecap:butt;stroke-linejoin:miter;stroke-opacity:1;"/>
<path d="M 78.7,59.9 L 78.1,58.7 L 78.9,57.5" style="fill:none;stroke:#000000;stroke-width:2.0px;stroke-linecap:butt;stroke-linejoin:miter;stroke-opacity:1;"/>
<path d="M 120.7,37.4 L 122.1,37.5 L 122.4,37.1" style="fill:none;stroke:#000000;stroke-width:2.0px;stroke-linecap:butt;stroke-linejoin:miter;stroke-opacity:1;"/>
<path d="M 66.2,95.6 L 64.9,96.2 L 64.4,95.9" style="fill:none;stroke:#000000;stroke-width:2.0px;stroke-linecap:butt;stroke-linejoin:miter;stroke-opacity:1;"/>
<path d="M 246.6,72.9 L 246.7,71.5 L 246.2,71.2" style="fill:none;stroke:#000000;stroke-width:2.0px;stroke-linecap:butt;stroke-linejoin:miter;stroke-opacity:1;"/>
<path d="M 276.9,54.4 L 276.3,53.1 L 275.7,53.1" style="fill:none;stroke:#000000;stroke-width:2.0px;stroke-linecap:butt;stroke-linejoin:miter;stroke-opacity:1;"/>
<path class="atom-5" d="M 262.0 143.6 Q 262.0 141.7, 262.9 140.7 Q 263.9 139.6, 265.6 139.6 Q 267.4 139.6, 268.3 140.7 Q 269.3 141.7, 269.3 143.6 Q 269.3 145.6, 268.3 146.7 Q 267.4 147.8, 265.6 147.8 Q 263.9 147.8, 262.9 146.7 Q 262.0 145.6, 262.0 143.6 M 265.6 146.9 Q 266.8 146.9, 267.5 146.1 Q 268.2 145.2, 268.2 143.6 Q 268.2 142.1, 267.5 141.3 Q 266.8 140.5, 265.6 140.5 Q 264.4 140.5, 263.7 141.3 Q 263.1 142.1, 263.1 143.6 Q 263.1 145.3, 263.7 146.1 Q 264.4 146.9, 265.6 146.9 " fill="#FF0000"/>
<path class="atom-5" d="M 270.5 139.7 L 271.6 139.7 L 271.6 143.1 L 275.7 143.1 L 275.7 139.7 L 276.8 139.7 L 276.8 147.7 L 275.7 147.7 L 275.7 144.0 L 271.6 144.0 L 271.6 147.7 L 270.5 147.7 L 270.5 139.7 " fill="#FF0000"/>
<path class="atom-14" d="M 174.0 185.9 Q 174.0 183.9, 174.9 182.9 Q 175.9 181.8, 177.6 181.8 Q 179.4 181.8, 180.3 182.9 Q 181.3 183.9, 181.3 185.9 Q 181.3 187.8, 180.3 188.9 Q 179.4 190.0, 177.6 190.0 Q 175.9 190.0, 174.9 188.9 Q 174.0 187.8, 174.0 185.9 M 177.6 189.1 Q 178.9 189.1, 179.5 188.3 Q 180.2 187.5, 180.2 185.9 Q 180.2 184.3, 179.5 183.5 Q 178.9 182.7, 177.6 182.7 Q 176.4 182.7, 175.8 183.5 Q 175.1 184.3, 175.1 185.9 Q 175.1 187.5, 175.8 188.3 Q 176.4 189.1, 177.6 189.1 " fill="#FF0000"/>
<path class="atom-15" d="M 117.4 178.2 L 118.5 178.2 L 118.5 181.6 L 122.6 181.6 L 122.6 178.2 L 123.7 178.2 L 123.7 186.2 L 122.6 186.2 L 122.6 182.5 L 118.5 182.5 L 118.5 186.2 L 117.4 186.2 L 117.4 178.2 " fill="#FF0000"/>
<path class="atom-15" d="M 125.3 182.1 Q 125.3 180.2, 126.3 179.2 Q 127.2 178.1, 129.0 178.1 Q 130.7 178.1, 131.7 179.2 Q 132.6 180.2, 132.6 182.1 Q 132.6 184.1, 131.7 185.2 Q 130.7 186.3, 129.0 186.3 Q 127.2 186.3, 126.3 185.2 Q 125.3 184.1, 125.3 182.1 M 129.0 185.4 Q 130.2 185.4, 130.8 184.6 Q 131.5 183.7, 131.5 182.1 Q 131.5 180.6, 130.8 179.8 Q 130.2 179.0, 129.0 179.0 Q 127.8 179.0, 127.1 179.8 Q 126.4 180.6, 126.4 182.1 Q 126.4 183.8, 127.1 184.6 Q 127.8 185.4, 129.0 185.4 " fill="#FF0000"/>
<path class="atom-18" d="M 157.2 85.7 Q 157.2 83.8, 158.1 82.7 Q 159.0 81.6, 160.8 81.6 Q 162.6 81.6, 163.5 82.7 Q 164.5 83.8, 164.5 85.7 Q 164.5 87.6, 163.5 88.7 Q 162.6 89.8, 160.8 89.8 Q 159.1 89.8, 158.1 88.7 Q 157.2 87.6, 157.2 85.7 M 160.8 88.9 Q 162.0 88.9, 162.7 88.1 Q 163.3 87.3, 163.3 85.7 Q 163.3 84.1, 162.7 83.3 Q 162.0 82.5, 160.8 82.5 Q 159.6 82.5, 158.9 83.3 Q 158.3 84.1, 158.3 85.7 Q 158.3 87.3, 158.9 88.1 Q 159.6 88.9, 160.8 88.9 " fill="#FF0000"/>
<path class="atom-18" d="M 165.7 81.7 L 166.8 81.7 L 166.8 85.1 L 170.9 85.1 L 170.9 81.7 L 172.0 81.7 L 172.0 89.7 L 170.9 89.7 L 170.9 86.0 L 166.8 86.0 L 166.8 89.7 L 165.7 89.7 L 165.7 81.7 " fill="#FF0000"/>
<path class="atom-25" d="M 116.8 57.7 Q 116.8 55.8, 117.7 54.7 Q 118.6 53.6, 120.4 53.6 Q 122.2 53.6, 123.1 54.7 Q 124.1 55.8, 124.1 57.7 Q 124.1 59.6, 123.1 60.7 Q 122.2 61.8, 120.4 61.8 Q 118.7 61.8, 117.7 60.7 Q 116.8 59.6, 116.8 57.7 M 120.4 60.9 Q 121.6 60.9, 122.3 60.1 Q 123.0 59.3, 123.0 57.7 Q 123.0 56.1, 122.3 55.3 Q 121.6 54.5, 120.4 54.5 Q 119.2 54.5, 118.5 55.3 Q 117.9 56.1, 117.9 57.7 Q 117.9 59.3, 118.5 60.1 Q 119.2 60.9, 120.4 60.9 " fill="#FF0000"/>
<path class="atom-25" d="M 125.3 53.7 L 126.4 53.7 L 126.4 57.1 L 130.5 57.1 L 130.5 53.7 L 131.6 53.7 L 131.6 61.7 L 130.5 61.7 L 130.5 58.0 L 126.4 58.0 L 126.4 61.7 L 125.3 61.7 L 125.3 53.7 " fill="#FF0000"/>
<path class="atom-30" d="M 128.3 58.1 Q 128.3 56.2, 129.3 55.2 Q 130.2 54.1, 132.0 54.1 Q 133.7 54.1, 134.7 55.2 Q 135.6 56.2, 135.6 58.1 Q 135.6 60.1, 134.7 61.2 Q 133.7 62.3, 132.0 62.3 Q 130.2 62.3, 129.3 61.2 Q 128.3 60.1, 128.3 58.1 M 132.0 61.4 Q 133.2 61.4, 133.8 60.6 Q 134.5 59.7, 134.5 58.1 Q 134.5 56.6, 133.8 55.8 Q 133.2 55.0, 132.0 55.0 Q 130.8 55.0, 130.1 55.8 Q 129.4 56.6, 129.4 58.1 Q 129.4 59.8, 130.1 60.6 Q 130.8 61.4, 132.0 61.4 " fill="#FF0000"/>
<path class="atom-31" d="M 134.3 14.3 Q 134.3 12.4, 135.3 11.3 Q 136.2 10.3, 138.0 10.3 Q 139.8 10.3, 140.7 11.3 Q 141.7 12.4, 141.7 14.3 Q 141.7 16.3, 140.7 17.4 Q 139.8 18.4, 138.0 18.4 Q 136.2 18.4, 135.3 17.4 Q 134.3 16.3, 134.3 14.3 M 138.0 17.5 Q 139.2 17.5, 139.9 16.7 Q 140.5 15.9, 140.5 14.3 Q 140.5 12.7, 139.9 12.0 Q 139.2 11.2, 138.0 11.2 Q 136.8 11.2, 136.1 11.9 Q 135.5 12.7, 135.5 14.3 Q 135.5 15.9, 136.1 16.7 Q 136.8 17.5, 138.0 17.5 " fill="#FF0000"/>
<path class="atom-31" d="M 142.9 10.3 L 144.0 10.3 L 144.0 13.7 L 148.1 13.7 L 148.1 10.3 L 149.2 10.3 L 149.2 18.3 L 148.1 18.3 L 148.1 14.6 L 144.0 14.6 L 144.0 18.3 L 142.9 18.3 L 142.9 10.3 " fill="#FF0000"/>
<path class="atom-33" d="M 59.1 124.4 Q 59.1 122.4, 60.0 121.4 Q 61.0 120.3, 62.7 120.3 Q 64.5 120.3, 65.5 121.4 Q 66.4 122.4, 66.4 124.4 Q 66.4 126.3, 65.5 127.4 Q 64.5 128.5, 62.7 128.5 Q 61.0 128.5, 60.0 127.4 Q 59.1 126.3, 59.1 124.4 M 62.7 127.6 Q 64.0 127.6, 64.6 126.8 Q 65.3 126.0, 65.3 124.4 Q 65.3 122.8, 64.6 122.0 Q 64.0 121.2, 62.7 121.2 Q 61.5 121.2, 60.9 122.0 Q 60.2 122.8, 60.2 124.4 Q 60.2 126.0, 60.9 126.8 Q 61.5 127.6, 62.7 127.6 " fill="#FF0000"/>
<path class="atom-34" d="M 30.1 76.4 L 31.2 76.4 L 31.2 79.8 L 35.3 79.8 L 35.3 76.4 L 36.3 76.4 L 36.3 84.4 L 35.3 84.4 L 35.3 80.7 L 31.2 80.7 L 31.2 84.4 L 30.1 84.4 L 30.1 76.4 " fill="#FF0000"/>
<path class="atom-34" d="M 38.0 80.4 Q 38.0 78.4, 38.9 77.4 Q 39.9 76.3, 41.6 76.3 Q 43.4 76.3, 44.4 77.4 Q 45.3 78.4, 45.3 80.4 Q 45.3 82.3, 44.3 83.4 Q 43.4 84.5, 41.6 84.5 Q 39.9 84.5, 38.9 83.4 Q 38.0 82.3, 38.0 80.4 M 41.6 83.6 Q 42.9 83.6, 43.5 82.8 Q 44.2 82.0, 44.2 80.4 Q 44.2 78.8, 43.5 78.0 Q 42.9 77.2, 41.6 77.2 Q 40.4 77.2, 39.8 78.0 Q 39.1 78.8, 39.1 80.4 Q 39.1 82.0, 39.8 82.8 Q 40.4 83.6, 41.6 83.6 " fill="#FF0000"/>
<path class="atom-36" d="M 264.7 53.6 Q 264.7 51.7, 265.6 50.6 Q 266.6 49.5, 268.4 49.5 Q 270.1 49.5, 271.1 50.6 Q 272.0 51.7, 272.0 53.6 Q 272.0 55.5, 271.1 56.6 Q 270.1 57.7, 268.4 57.7 Q 266.6 57.7, 265.6 56.6 Q 264.7 55.5, 264.7 53.6 M 268.4 56.8 Q 269.6 56.8, 270.2 56.0 Q 270.9 55.2, 270.9 53.6 Q 270.9 52.0, 270.2 51.2 Q 269.6 50.4, 268.4 50.4 Q 267.1 50.4, 266.5 51.2 Q 265.8 52.0, 265.8 53.6 Q 265.8 55.2, 266.5 56.0 Q 267.1 56.8, 268.4 56.8 " fill="#FF0000"/>
<path class="atom-37" d="M 211.9 51.7 L 212.9 51.7 L 212.9 55.1 L 217.0 55.1 L 217.0 51.7 L 218.1 51.7 L 218.1 59.7 L 217.0 59.7 L 217.0 56.0 L 212.9 56.0 L 212.9 59.7 L 211.9 59.7 L 211.9 51.7 " fill="#FF0000"/>
<path class="atom-37" d="M 219.7 55.6 Q 219.7 53.7, 220.7 52.7 Q 221.6 51.6, 223.4 51.6 Q 225.2 51.6, 226.1 52.7 Q 227.1 53.7, 227.1 55.6 Q 227.1 57.6, 226.1 58.7 Q 225.2 59.8, 223.4 59.8 Q 221.6 59.8, 220.7 58.7 Q 219.7 57.6, 219.7 55.6 M 223.4 58.9 Q 224.6 58.9, 225.3 58.1 Q 225.9 57.2, 225.9 55.6 Q 225.9 54.1, 225.3 53.3 Q 224.6 52.5, 223.4 52.5 Q 222.2 52.5, 221.5 53.3 Q 220.9 54.1, 220.9 55.6 Q 220.9 57.3, 221.5 58.1 Q 222.2 58.9, 223.4 58.9 " fill="#FF0000"/>
<path class="atom-39" d="M 288.6 29.9 Q 288.6 28.0, 289.5 26.9 Q 290.5 25.8, 292.2 25.8 Q 294.0 25.8, 294.9 26.9 Q 295.9 28.0, 295.9 29.9 Q 295.9 31.8, 294.9 32.9 Q 294.0 34.0, 292.2 34.0 Q 290.5 34.0, 289.5 32.9 Q 288.6 31.8, 288.6 29.9 M 292.2 33.1 Q 293.4 33.1, 294.1 32.3 Q 294.8 31.5, 294.8 29.9 Q 294.8 28.3, 294.1 27.5 Q 293.4 26.7, 292.2 26.7 Q 291.0 26.7, 290.3 27.5 Q 289.7 28.3, 289.7 29.9 Q 289.7 31.5, 290.3 32.3 Q 291.0 33.1, 292.2 33.1 " fill="#FF0000"/>
<path class="atom-40" d="M 236.7 47.0 L 237.8 47.0 L 237.8 50.4 L 241.9 50.4 L 241.9 47.0 L 242.9 47.0 L 242.9 55.0 L 241.9 55.0 L 241.9 51.3 L 237.8 51.3 L 237.8 55.0 L 236.7 55.0 L 236.7 47.0 " fill="#FF0000"/>
<path class="atom-40" d="M 244.6 51.0 Q 244.6 49.1, 245.5 48.0 Q 246.5 46.9, 248.2 46.9 Q 250.0 46.9, 250.9 48.0 Q 251.9 49.1, 251.9 51.0 Q 251.9 52.9, 250.9 54.0 Q 250.0 55.1, 248.2 55.1 Q 246.5 55.1, 245.5 54.0 Q 244.6 52.9, 244.6 51.0 M 248.2 54.2 Q 249.4 54.2, 250.1 53.4 Q 250.8 52.6, 250.8 51.0 Q 250.8 49.4, 250.1 48.6 Q 249.4 47.8, 248.2 47.8 Q 247.0 47.8, 246.4 48.6 Q 245.7 49.4, 245.7 51.0 Q 245.7 52.6, 246.4 53.4 Q 247.0 54.2, 248.2 54.2 " fill="#FF0000"/>
</g>
    <g transform="translate(691.0, 0) scale(1 1) "><line x1="15" y1="100" x2="25" y2="100" style="stroke:rgb(0,0,0);stroke-width:2"/>
  <line x1="20" y1="95" x2="20" y2="105" style="stroke:rgb(0,0,0);stroke-width:2"/>
</g>
    <g transform="translate(731.0, 0) scale(1 1) "><!-- END OF HEADER -->
<rect style="opacity:1.0;fill:#FFFFFF;stroke:none" width="215.0" height="200.0" x="0.0" y="0.0"> </rect>
<path class="bond-0 atom-0 atom-1" d="M 183.7,56.0 L 158.3,99.9" style="fill:none;fill-rule:evenodd;stroke:#000000;stroke-width:2.0px;stroke-linecap:butt;stroke-linejoin:miter;stroke-opacity:1"/>
<path class="bond-1 atom-1 atom-2" d="M 158.3,99.9 L 168.4,117.4" style="fill:none;fill-rule:evenodd;stroke:#000000;stroke-width:2.0px;stroke-linecap:butt;stroke-linejoin:miter;stroke-opacity:1"/>
<path class="bond-1 atom-1 atom-2" d="M 168.4,117.4 L 178.5,134.9" style="fill:none;fill-rule:evenodd;stroke:#FF0000;stroke-width:2.0px;stroke-linecap:butt;stroke-linejoin:miter;stroke-opacity:1"/>
<path class="bond-2 atom-1 atom-3" d="M 158.3,99.9 L 107.6,99.9" style="fill:none;fill-rule:evenodd;stroke:#000000;stroke-width:2.0px;stroke-linecap:butt;stroke-linejoin:miter;stroke-opacity:1"/>
<path class="bond-3 atom-3 atom-4" d="M 107.6,99.9 L 107.6,49.2" style="fill:none;fill-rule:evenodd;stroke:#000000;stroke-width:2.0px;stroke-linecap:butt;stroke-linejoin:miter;stroke-opacity:1"/>
<path class="bond-4 atom-3 atom-5" d="M 107.6,99.9 L 107.6,150.6" style="fill:none;fill-rule:evenodd;stroke:#000000;stroke-width:2.0px;stroke-linecap:butt;stroke-linejoin:miter;stroke-opacity:1"/>
<path class="bond-5 atom-3 atom-6" d="M 107.6,99.9 L 56.9,99.9" style="fill:none;fill-rule:evenodd;stroke:#000000;stroke-width:2.0px;stroke-linecap:butt;stroke-linejoin:miter;stroke-opacity:1"/>
<path class="bond-6 atom-6 atom-7" d="M 54.7,96.1 L 44.0,114.5" style="fill:none;fill-rule:evenodd;stroke:#000000;stroke-width:2.0px;stroke-linecap:butt;stroke-linejoin:miter;stroke-opacity:1"/>
<path class="bond-6 atom-6 atom-7" d="M 44.0,114.5 L 33.4,133.0" style="fill:none;fill-rule:evenodd;stroke:#FF0000;stroke-width:2.0px;stroke-linecap:butt;stroke-linejoin:miter;stroke-opacity:1"/>
<path class="bond-6 atom-6 atom-7" d="M 61.3,99.9 L 50.6,118.3" style="fill:none;fill-rule:evenodd;stroke:#000000;stroke-width:2.0px;stroke-linecap:butt;stroke-linejoin:miter;stroke-opacity:1"/>
<path class="bond-6 atom-6 atom-7" d="M 50.6,118.3 L 40.0,136.8" style="fill:none;fill-rule:evenodd;stroke:#FF0000;stroke-width:2.0px;stroke-linecap:butt;stroke-linejoin:miter;stroke-opacity:1"/>
<path class="bond-7 atom-6 atom-8" d="M 56.9,99.9 L 46.9,82.5" style="fill:none;fill-rule:evenodd;stroke:#000000;stroke-width:2.0px;stroke-linecap:butt;stroke-linejoin:miter;stroke-opacity:1"/>
<path class="bond-7 atom-6 atom-8" d="M 46.9,82.5 L 36.8,65.1" style="fill:none;fill-rule:evenodd;stroke:#FF0000;stroke-width:2.0px;stroke-linecap:butt;stroke-linejoin:miter;stroke-opacity:1"/>
<path d="M 59.4,99.9 L 56.9,99.9 L 56.4,99.0" style="fill:none;stroke:#000000;stroke-width:2.0px;stroke-linecap:butt;stroke-linejoin:miter;stroke-opacity:1;"/>
<path class="atom-2" d="M 177.1 143.9 Q 177.1 140.4, 178.8 138.5 Q 180.5 136.5, 183.7 136.5 Q 186.9 136.5, 188.6 138.5 Q 190.3 140.4, 190.3 143.9 Q 190.3 147.3, 188.6 149.3 Q 186.8 151.3, 183.7 151.3 Q 180.5 151.3, 178.8 149.3 Q 177.1 147.4, 177.1 143.9 M 183.7 149.7 Q 185.9 149.7, 187.0 148.2 Q 188.2 146.7, 188.2 143.9 Q 188.2 141.0, 187.0 139.6 Q 185.9 138.2, 183.7 138.2 Q 181.5 138.2, 180.3 139.6 Q 179.1 141.0, 179.1 143.9 Q 179.1 146.8, 180.3 148.2 Q 181.5 149.7, 183.7 149.7 " fill="#FF0000"/>
<path class="atom-2" d="M 192.5 136.7 L 194.5 136.7 L 194.5 142.8 L 201.8 142.8 L 201.8 136.7 L 203.7 136.7 L 203.7 151.1 L 201.8 151.1 L 201.8 144.4 L 194.5 144.4 L 194.5 151.1 L 192.5 151.1 L 192.5 136.7 " fill="#FF0000"/>
<path class="atom-7" d="M 24.9 143.9 Q 24.9 140.4, 26.6 138.5 Q 28.3 136.5, 31.5 136.5 Q 34.7 136.5, 36.4 138.5 Q 38.1 140.4, 38.1 143.9 Q 38.1 147.3, 36.4 149.3 Q 34.7 151.3, 31.5 151.3 Q 28.4 151.3, 26.6 149.3 Q 24.9 147.4, 24.9 143.9 M 31.5 149.7 Q 33.7 149.7, 34.9 148.2 Q 36.1 146.7, 36.1 143.9 Q 36.1 141.0, 34.9 139.6 Q 33.7 138.2, 31.5 138.2 Q 29.3 138.2, 28.1 139.6 Q 27.0 141.0, 27.0 143.9 Q 27.0 146.8, 28.1 148.2 Q 29.3 149.7, 31.5 149.7 " fill="#FF0000"/>
<path class="atom-8" d="M 10.7 48.9 L 12.7 48.9 L 12.7 55.0 L 20.0 55.0 L 20.0 48.9 L 22.0 48.9 L 22.0 63.2 L 20.0 63.2 L 20.0 56.6 L 12.7 56.6 L 12.7 63.2 L 10.7 63.2 L 10.7 48.9 " fill="#FF0000"/>
<path class="atom-8" d="M 24.9 56.0 Q 24.9 52.6, 26.6 50.6 Q 28.3 48.7, 31.5 48.7 Q 34.7 48.7, 36.4 50.6 Q 38.1 52.6, 38.1 56.0 Q 38.1 59.5, 36.4 61.5 Q 34.7 63.5, 31.5 63.5 Q 28.4 63.5, 26.6 61.5 Q 24.9 59.5, 24.9 56.0 M 31.5 61.8 Q 33.7 61.8, 34.9 60.4 Q 36.1 58.9, 36.1 56.0 Q 36.1 53.2, 34.9 51.8 Q 33.7 50.3, 31.5 50.3 Q 29.3 50.3, 28.1 51.7 Q 27.0 53.2, 27.0 56.0 Q 27.0 58.9, 28.1 60.4 Q 29.3 61.8, 31.5 61.8 " fill="#FF0000"/>
</g>
  </g>
</svg>
