<?xml version='1.0' encoding='ASCII' standalone='yes'?>
<svg xmlns="http://www.w3.org/2000/svg" xmlns:xlink="http://www.w3.org/1999/xlink" version="1.1" width="896.0px" viewBox="0 0 896.0 200.0" height="200.0px">
  <g>
    <g transform="translate(0, 0) scale(1 1) "><!-- END OF HEADER -->
<rect style="opacity:1.0;fill:#FFFFFF;stroke:none" width="285.0" height="200.0" x="0.0" y="0.0"> </rect>
<path class="bond-0 atom-0 atom-1" d="M 14.2,77.4 L 40.4,90.1" style="fill:none;fill-rule:evenodd;stroke:#000000;stroke-width:2.0px;stroke-linecap:butt;stroke-linejoin:miter;stroke-opacity:1"/>
<path class="bond-1 atom-1 atom-2" d="M 40.4,90.1 L 27.7,116.2" style="fill:none;fill-rule:evenodd;stroke:#000000;stroke-width:2.0px;stroke-linecap:butt;stroke-linejoin:miter;stroke-opacity:1"/>
<path class="bond-2 atom-2 atom-3" d="M 27.7,116.2 L 34.1,125.7" style="fill:none;fill-rule:evenodd;stroke:#000000;stroke-width:2.0px;stroke-linecap:butt;stroke-linejoin:miter;stroke-opacity:1"/>
<path class="bond-2 atom-2 atom-3" d="M 34.1,125.7 L 40.6,135.1" style="fill:none;fill-rule:evenodd;stroke:#FF0000;stroke-width:2.0px;stroke-linecap:butt;stroke-linejoin:miter;stroke-opacity:1"/>
<path class="bond-3 atom-1 atom-4" d="M 40.4,90.1 L 66.5,102.7" style="fill:none;fill-rule:evenodd;stroke:#000000;stroke-width:2.0px;stroke-linecap:butt;stroke-linejoin:miter;stroke-opacity:1"/>
<path class="bond-4 atom-4 atom-5" d="M 66.5,102.7 L 90.6,86.4" style="fill:none;fill-rule:evenodd;stroke:#000000;stroke-width:2.0px;stroke-linecap:butt;stroke-linejoin:miter;stroke-opacity:1"/>
<path class="bond-5 atom-5 atom-6" d="M 90.6,86.4 L 116.7,99.1" style="fill:none;fill-rule:evenodd;stroke:#000000;stroke-width:2.0px;stroke-linecap:butt;stroke-linejoin:miter;stroke-opacity:1"/>
<path class="bond-6 atom-6 atom-7" d="M 116.7,99.1 L 140.8,82.8" style="fill:none;fill-rule:evenodd;stroke:#000000;stroke-width:2.0px;stroke-linecap:butt;stroke-linejoin:miter;stroke-opacity:1"/>
<path class="bond-7 atom-7 atom-8" d="M 140.8,82.8 L 166.9,95.5" style="fill:none;fill-rule:evenodd;stroke:#000000;stroke-width:2.0px;stroke-linecap:butt;stroke-linejoin:miter;stroke-opacity:1"/>
<path class="bond-8 atom-8 atom-9" d="M 166.9,95.5 L 191.0,79.1" style="fill:none;fill-rule:evenodd;stroke:#000000;stroke-width:2.0px;stroke-linecap:butt;stroke-linejoin:miter;stroke-opacity:1"/>
<path class="bond-9 atom-9 atom-10" d="M 191.0,79.1 L 217.1,91.8" style="fill:none;fill-rule:evenodd;stroke:#000000;stroke-width:2.0px;stroke-linecap:butt;stroke-linejoin:miter;stroke-opacity:1"/>
<path class="bond-10 atom-10 atom-11" d="M 217.1,91.8 L 243.3,104.5" style="fill:none;fill-rule:evenodd;stroke:#000000;stroke-width:2.0px;stroke-linecap:butt;stroke-linejoin:miter;stroke-opacity:1"/>
<path class="bond-11 atom-10 atom-12" d="M 217.1,91.8 L 204.4,118.0" style="fill:none;fill-rule:evenodd;stroke:#000000;stroke-width:2.0px;stroke-linecap:butt;stroke-linejoin:miter;stroke-opacity:1"/>
<path class="bond-12 atom-12 atom-13" d="M 204.4,118.0 L 210.9,127.4" style="fill:none;fill-rule:evenodd;stroke:#000000;stroke-width:2.0px;stroke-linecap:butt;stroke-linejoin:miter;stroke-opacity:1"/>
<path class="bond-12 atom-12 atom-13" d="M 210.9,127.4 L 217.3,136.9" style="fill:none;fill-rule:evenodd;stroke:#FF0000;stroke-width:2.0px;stroke-linecap:butt;stroke-linejoin:miter;stroke-opacity:1"/>
<path class="bond-13 atom-10 atom-14" d="M 217.1,91.8 L 229.8,65.7" style="fill:none;fill-rule:evenodd;stroke:#000000;stroke-width:2.0px;stroke-linecap:butt;stroke-linejoin:miter;stroke-opacity:1"/>
<path class="bond-14 atom-14 atom-15" d="M 232.3,65.5 L 225.6,55.6" style="fill:none;fill-rule:evenodd;stroke:#000000;stroke-width:2.0px;stroke-linecap:butt;stroke-linejoin:miter;stroke-opacity:1"/>
<path class="bond-14 atom-14 atom-15" d="M 225.6,55.6 L 218.8,45.6" style="fill:none;fill-rule:evenodd;stroke:#FF0000;stroke-width:2.0px;stroke-linecap:butt;stroke-linejoin:miter;stroke-opacity:1"/>
<path class="bond-14 atom-14 atom-15" d="M 228.7,67.9 L 222.0,58.0" style="fill:none;fill-rule:evenodd;stroke:#000000;stroke-width:2.0px;stroke-linecap:butt;stroke-linejoin:miter;stroke-opacity:1"/>
<path class="bond-14 atom-14 atom-15" d="M 222.0,58.0 L 215.2,48.1" style="fill:none;fill-rule:evenodd;stroke:#FF0000;stroke-width:2.0px;stroke-linecap:butt;stroke-linejoin:miter;stroke-opacity:1"/>
<path class="bond-15 atom-14 atom-16" d="M 229.8,65.7 L 241.9,64.8" style="fill:none;fill-rule:evenodd;stroke:#000000;stroke-width:2.0px;stroke-linecap:butt;stroke-linejoin:miter;stroke-opacity:1"/>
<path class="bond-15 atom-14 atom-16" d="M 241.9,64.8 L 254.0,63.9" style="fill:none;fill-rule:evenodd;stroke:#FF0000;stroke-width:2.0px;stroke-linecap:butt;stroke-linejoin:miter;stroke-opacity:1"/>
<path class="bond-16 atom-1 atom-17" d="M 40.4,90.1 L 53.1,63.9" style="fill:none;fill-rule:evenodd;stroke:#000000;stroke-width:2.0px;stroke-linecap:butt;stroke-linejoin:miter;stroke-opacity:1"/>
<path class="bond-17 atom-17 atom-18" d="M 55.6,63.7 L 48.8,53.8" style="fill:none;fill-rule:evenodd;stroke:#000000;stroke-width:2.0px;stroke-linecap:butt;stroke-linejoin:miter;stroke-opacity:1"/>
<path class="bond-17 atom-17 atom-18" d="M 48.8,53.8 L 42.1,43.9" style="fill:none;fill-rule:evenodd;stroke:#FF0000;stroke-width:2.0px;stroke-linecap:butt;stroke-linejoin:miter;stroke-opacity:1"/>
<path class="bond-17 atom-17 atom-18" d="M 52.0,66.2 L 45.2,56.3" style="fill:none;fill-rule:evenodd;stroke:#000000;stroke-width:2.0px;stroke-linecap:butt;stroke-linejoin:miter;stroke-opacity:1"/>
<path class="bond-17 atom-17 atom-18" d="M 45.2,56.3 L 38.5,46.3" style="fill:none;fill-rule:evenodd;stroke:#FF0000;stroke-width:2.0px;stroke-linecap:butt;stroke-linejoin:miter;stroke-opacity:1"/>
<path class="bond-18 atom-17 atom-19" d="M 53.1,63.9 L 65.2,63.0" style="fill:none;fill-rule:evenodd;stroke:#000000;stroke-width:2.0px;stroke-linecap:butt;stroke-linejoin:miter;stroke-opacity:1"/>
<path class="bond-18 atom-17 atom-19" d="M 65.2,63.0 L 77.3,62.2" style="fill:none;fill-rule:evenodd;stroke:#FF0000;stroke-width:2.0px;stroke-linecap:butt;stroke-linejoin:miter;stroke-opacity:1"/>
<path d="M 28.4,114.9 L 27.7,116.2 L 28.0,116.7" style="fill:none;stroke:#000000;stroke-width:2.0px;stroke-linecap:butt;stroke-linejoin:miter;stroke-opacity:1;"/>
<path d="M 65.2,102.1 L 66.5,102.7 L 67.7,101.9" style="fill:none;stroke:#000000;stroke-width:2.0px;stroke-linecap:butt;stroke-linejoin:miter;stroke-opacity:1;"/>
<path d="M 89.4,87.2 L 90.6,86.4 L 91.9,87.1" style="fill:none;stroke:#000000;stroke-width:2.0px;stroke-linecap:butt;stroke-linejoin:miter;stroke-opacity:1;"/>
<path d="M 115.4,98.5 L 116.7,99.1 L 117.9,98.3" style="fill:none;stroke:#000000;stroke-width:2.0px;stroke-linecap:butt;stroke-linejoin:miter;stroke-opacity:1;"/>
<path d="M 139.6,83.6 L 140.8,82.8 L 142.1,83.4" style="fill:none;stroke:#000000;stroke-width:2.0px;stroke-linecap:butt;stroke-linejoin:miter;stroke-opacity:1;"/>
<path d="M 165.6,94.8 L 166.9,95.5 L 168.1,94.6" style="fill:none;stroke:#000000;stroke-width:2.0px;stroke-linecap:butt;stroke-linejoin:miter;stroke-opacity:1;"/>
<path d="M 189.8,80.0 L 191.0,79.1 L 192.3,79.8" style="fill:none;stroke:#000000;stroke-width:2.0px;stroke-linecap:butt;stroke-linejoin:miter;stroke-opacity:1;"/>
<path d="M 205.1,116.6 L 204.4,118.0 L 204.8,118.4" style="fill:none;stroke:#000000;stroke-width:2.0px;stroke-linecap:butt;stroke-linejoin:miter;stroke-opacity:1;"/>
<path d="M 229.1,67.0 L 229.8,65.7 L 230.4,65.6" style="fill:none;stroke:#000000;stroke-width:2.0px;stroke-linecap:butt;stroke-linejoin:miter;stroke-opacity:1;"/>
<path d="M 52.4,65.2 L 53.1,63.9 L 53.7,63.9" style="fill:none;stroke:#000000;stroke-width:2.0px;stroke-linecap:butt;stroke-linejoin:miter;stroke-opacity:1;"/>
<path class="atom-3" d="M 40.3 140.3 Q 40.3 138.3, 41.2 137.2 Q 42.2 136.1, 44.0 136.1 Q 45.9 136.1, 46.8 137.2 Q 47.8 138.3, 47.8 140.3 Q 47.8 142.3, 46.8 143.4 Q 45.8 144.5, 44.0 144.5 Q 42.2 144.5, 41.2 143.4 Q 40.3 142.3, 40.3 140.3 M 44.0 143.6 Q 45.3 143.6, 46.0 142.8 Q 46.6 141.9, 46.6 140.3 Q 46.6 138.7, 46.0 137.8 Q 45.3 137.0, 44.0 137.0 Q 42.8 137.0, 42.1 137.8 Q 41.4 138.6, 41.4 140.3 Q 41.4 141.9, 42.1 142.8 Q 42.8 143.6, 44.0 143.6 " fill="#FF0000"/>
<path class="atom-3" d="M 49.1 136.2 L 50.2 136.2 L 50.2 139.7 L 54.4 139.7 L 54.4 136.2 L 55.5 136.2 L 55.5 144.4 L 54.4 144.4 L 54.4 140.6 L 50.2 140.6 L 50.2 144.4 L 49.1 144.4 L 49.1 136.2 " fill="#FF0000"/>
<path class="atom-13" d="M 217.0 142.0 Q 217.0 140.0, 217.9 138.9 Q 218.9 137.8, 220.7 137.8 Q 222.6 137.8, 223.5 138.9 Q 224.5 140.0, 224.5 142.0 Q 224.5 144.0, 223.5 145.2 Q 222.5 146.3, 220.7 146.3 Q 218.9 146.3, 217.9 145.2 Q 217.0 144.0, 217.0 142.0 M 220.7 145.4 Q 222.0 145.4, 222.7 144.5 Q 223.4 143.7, 223.4 142.0 Q 223.4 140.4, 222.7 139.6 Q 222.0 138.8, 220.7 138.8 Q 219.5 138.8, 218.8 139.6 Q 218.1 140.4, 218.1 142.0 Q 218.1 143.7, 218.8 144.5 Q 219.5 145.4, 220.7 145.4 " fill="#FF0000"/>
<path class="atom-13" d="M 225.8 137.9 L 226.9 137.9 L 226.9 141.4 L 231.1 141.4 L 231.1 137.9 L 232.2 137.9 L 232.2 146.2 L 231.1 146.2 L 231.1 142.4 L 226.9 142.4 L 226.9 146.2 L 225.8 146.2 L 225.8 137.9 " fill="#FF0000"/>
<path class="atom-15" d="M 209.7 41.6 Q 209.7 39.7, 210.7 38.6 Q 211.6 37.5, 213.5 37.5 Q 215.3 37.5, 216.3 38.6 Q 217.2 39.7, 217.2 41.6 Q 217.2 43.6, 216.3 44.8 Q 215.3 45.9, 213.5 45.9 Q 211.7 45.9, 210.7 44.8 Q 209.7 43.7, 209.7 41.6 M 213.5 45.0 Q 214.7 45.0, 215.4 44.1 Q 216.1 43.3, 216.1 41.6 Q 216.1 40.0, 215.4 39.2 Q 214.7 38.4, 213.5 38.4 Q 212.2 38.4, 211.5 39.2 Q 210.9 40.0, 210.9 41.6 Q 210.9 43.3, 211.5 44.1 Q 212.2 45.0, 213.5 45.0 " fill="#FF0000"/>
<path class="atom-16" d="M 255.0 63.6 Q 255.0 61.6, 256.0 60.5 Q 256.9 59.4, 258.8 59.4 Q 260.6 59.4, 261.6 60.5 Q 262.5 61.6, 262.5 63.6 Q 262.5 65.6, 261.5 66.7 Q 260.6 67.9, 258.8 67.9 Q 256.9 67.9, 256.0 66.7 Q 255.0 65.6, 255.0 63.6 M 258.8 66.9 Q 260.0 66.9, 260.7 66.1 Q 261.4 65.2, 261.4 63.6 Q 261.4 62.0, 260.7 61.2 Q 260.0 60.3, 258.8 60.3 Q 257.5 60.3, 256.8 61.1 Q 256.1 62.0, 256.1 63.6 Q 256.1 65.3, 256.8 66.1 Q 257.5 66.9, 258.8 66.9 " fill="#FF0000"/>
<path class="atom-16" d="M 263.8 59.5 L 264.9 59.5 L 264.9 63.0 L 269.1 63.0 L 269.1 59.5 L 270.2 59.5 L 270.2 67.7 L 269.1 67.7 L 269.1 63.9 L 264.9 63.9 L 264.9 67.7 L 263.8 67.7 L 263.8 59.5 " fill="#FF0000"/>
<path class="atom-18" d="M 33.0 39.9 Q 33.0 37.9, 34.0 36.8 Q 34.9 35.7, 36.8 35.7 Q 38.6 35.7, 39.6 36.8 Q 40.5 37.9, 40.5 39.9 Q 40.5 41.9, 39.5 43.0 Q 38.6 44.2, 36.8 44.2 Q 34.9 44.2, 34.0 43.0 Q 33.0 41.9, 33.0 39.9 M 36.8 43.2 Q 38.0 43.2, 38.7 42.4 Q 39.4 41.5, 39.4 39.9 Q 39.4 38.3, 38.7 37.5 Q 38.0 36.6, 36.8 36.6 Q 35.5 36.6, 34.8 37.5 Q 34.1 38.3, 34.1 39.9 Q 34.1 41.6, 34.8 42.4 Q 35.5 43.2, 36.8 43.2 " fill="#FF0000"/>
<path class="atom-19" d="M 78.3 61.8 Q 78.3 59.9, 79.2 58.8 Q 80.2 57.7, 82.0 57.7 Q 83.9 57.7, 84.8 58.8 Q 85.8 59.9, 85.8 61.8 Q 85.8 63.8, 84.8 65.0 Q 83.8 66.1, 82.0 66.1 Q 80.2 66.1, 79.2 65.0 Q 78.3 63.8, 78.3 61.8 M 82.0 65.2 Q 83.3 65.2, 84.0 64.3 Q 84.7 63.5, 84.7 61.8 Q 84.7 60.2, 84.0 59.4 Q 83.3 58.6, 82.0 58.6 Q 80.8 58.6, 80.1 59.4 Q 79.4 60.2, 79.4 61.8 Q 79.4 63.5, 80.1 64.3 Q 80.8 65.2, 82.0 65.2 " fill="#FF0000"/>
<path class="atom-19" d="M 87.1 57.7 L 88.2 57.7 L 88.2 61.2 L 92.4 61.2 L 92.4 57.7 L 93.5 57.7 L 93.5 66.0 L 92.4 66.0 L 92.4 62.2 L 88.2 62.2 L 88.2 66.0 L 87.1 66.0 L 87.1 57.7 " fill="#FF0000"/>
<path class="legend" d="M 133.7 181.9 Q 133.7 179.6, 134.4 177.7 Q 135.1 175.8, 136.4 173.8 L 137.3 174.4 Q 136.2 176.3, 135.7 178.0 Q 135.2 179.7, 135.2 181.9 Q 135.2 184.0, 135.7 185.8 Q 136.2 187.5, 137.3 189.4 L 136.4 190.0 Q 135.1 188.0, 134.4 186.1 Q 133.7 184.2, 133.7 181.9 " fill="#000000"/>
<path class="legend" d="M 138.2 177.3 Q 138.6 176.2, 139.6 175.6 Q 140.6 175.0, 142.0 175.0 Q 143.7 175.0, 144.6 175.9 Q 145.6 176.8, 145.6 178.5 Q 145.6 180.2, 144.3 181.7 Q 143.1 183.3, 140.6 185.2 L 145.8 185.2 L 145.8 186.4 L 138.2 186.4 L 138.2 185.4 Q 140.3 183.9, 141.5 182.8 Q 142.8 181.6, 143.4 180.6 Q 144.0 179.6, 144.0 178.6 Q 144.0 177.5, 143.4 176.9 Q 142.9 176.3, 142.0 176.3 Q 141.0 176.3, 140.4 176.6 Q 139.8 177.0, 139.4 177.8 L 138.2 177.3 " fill="#000000"/>
<path class="legend" d="M 150.8 181.9 Q 150.8 184.2, 150.1 186.1 Q 149.4 188.0, 148.1 190.0 L 147.2 189.4 Q 148.3 187.5, 148.8 185.8 Q 149.3 184.0, 149.3 181.9 Q 149.3 179.7, 148.8 178.0 Q 148.3 176.3, 147.2 174.4 L 148.1 173.8 Q 149.4 175.8, 150.1 177.7 Q 150.8 179.6, 150.8 181.9 " fill="#000000"/>
</g>
    <g transform="translate(285.0, 0) scale(1 1) "><line x1="5" y1="100" x2="35" y2="100" style="stroke:rgb(0,0,0);stroke-width:2"/>
  <line x1="34" y1="100" x2="29" y2="95" style="stroke:rgb(0,0,0);stroke-width:2"/>
  <line x1="34" y1="100" x2="29" y2="105" style="stroke:rgb(0,0,0);stroke-width:2"/>
</g>
    <g transform="translate(325.0, 0) scale(1 1) "><!-- END OF HEADER -->
<rect style="opacity:1.0;fill:#FFFFFF;stroke:none" width="326.0" height="200.0" x="0.0" y="0.0"> </rect>
<path class="bond-0 atom-0 atom-1" d="M 32.8,171.6 L 54.4,162.2" style="fill:none;fill-rule:evenodd;stroke:#000000;stroke-width:2.0px;stroke-linecap:butt;stroke-linejoin:miter;stroke-opacity:1"/>
<path class="bond-1 atom-1 atom-2" d="M 54.4,162.2 L 63.9,183.9" style="fill:none;fill-rule:evenodd;stroke:#000000;stroke-width:2.0px;stroke-linecap:butt;stroke-linejoin:miter;stroke-opacity:1"/>
<path class="bond-2 atom-2 atom-3" d="M 63.9,183.9 L 73.7,185.0" style="fill:none;fill-rule:evenodd;stroke:#000000;stroke-width:2.0px;stroke-linecap:butt;stroke-linejoin:miter;stroke-opacity:1"/>
<path class="bond-2 atom-2 atom-3" d="M 73.7,185.0 L 83.5,186.1" style="fill:none;fill-rule:evenodd;stroke:#FF0000;stroke-width:2.0px;stroke-linecap:butt;stroke-linejoin:miter;stroke-opacity:1"/>
<path class="bond-3 atom-1 atom-4" d="M 54.4,162.2 L 76.1,152.8" style="fill:none;fill-rule:evenodd;stroke:#000000;stroke-width:2.0px;stroke-linecap:butt;stroke-linejoin:miter;stroke-opacity:1"/>
<path class="bond-4 atom-4 atom-5" d="M 76.1,152.8 L 78.7,129.3" style="fill:none;fill-rule:evenodd;stroke:#000000;stroke-width:2.0px;stroke-linecap:butt;stroke-linejoin:miter;stroke-opacity:1"/>
<path class="bond-5 atom-5 atom-6" d="M 78.7,129.3 L 100.4,119.9" style="fill:none;fill-rule:evenodd;stroke:#000000;stroke-width:2.0px;stroke-linecap:butt;stroke-linejoin:miter;stroke-opacity:1"/>
<path class="bond-6 atom-6 atom-7" d="M 100.4,119.9 L 103.0,96.4" style="fill:none;fill-rule:evenodd;stroke:#000000;stroke-width:2.0px;stroke-linecap:butt;stroke-linejoin:miter;stroke-opacity:1"/>
<path class="bond-7 atom-7 atom-8" d="M 103.0,96.4 L 124.7,86.9" style="fill:none;fill-rule:evenodd;stroke:#000000;stroke-width:2.0px;stroke-linecap:butt;stroke-linejoin:miter;stroke-opacity:1"/>
<path class="bond-8 atom-8 atom-9" d="M 124.7,86.9 L 127.3,63.5" style="fill:none;fill-rule:evenodd;stroke:#000000;stroke-width:2.0px;stroke-linecap:butt;stroke-linejoin:miter;stroke-opacity:1"/>
<path class="bond-9 atom-9 atom-10" d="M 127.3,63.5 L 149.0,54.0" style="fill:none;fill-rule:evenodd;stroke:#000000;stroke-width:2.0px;stroke-linecap:butt;stroke-linejoin:miter;stroke-opacity:1"/>
<path class="bond-10 atom-10 atom-11" d="M 149.0,54.0 L 170.7,44.6" style="fill:none;fill-rule:evenodd;stroke:#000000;stroke-width:2.0px;stroke-linecap:butt;stroke-linejoin:miter;stroke-opacity:1"/>
<path class="bond-11 atom-10 atom-12" d="M 149.0,54.0 L 139.6,32.4" style="fill:none;fill-rule:evenodd;stroke:#000000;stroke-width:2.0px;stroke-linecap:butt;stroke-linejoin:miter;stroke-opacity:1"/>
<path class="bond-12 atom-12 atom-13" d="M 140.8,30.7 L 130.5,29.6" style="fill:none;fill-rule:evenodd;stroke:#000000;stroke-width:2.0px;stroke-linecap:butt;stroke-linejoin:miter;stroke-opacity:1"/>
<path class="bond-12 atom-12 atom-13" d="M 130.5,29.6 L 120.1,28.4" style="fill:none;fill-rule:evenodd;stroke:#FF0000;stroke-width:2.0px;stroke-linecap:butt;stroke-linejoin:miter;stroke-opacity:1"/>
<path class="bond-12 atom-12 atom-13" d="M 140.4,34.3 L 130.1,33.1" style="fill:none;fill-rule:evenodd;stroke:#000000;stroke-width:2.0px;stroke-linecap:butt;stroke-linejoin:miter;stroke-opacity:1"/>
<path class="bond-12 atom-12 atom-13" d="M 130.1,33.1 L 119.7,31.9" style="fill:none;fill-rule:evenodd;stroke:#FF0000;stroke-width:2.0px;stroke-linecap:butt;stroke-linejoin:miter;stroke-opacity:1"/>
<path class="bond-13 atom-12 atom-14" d="M 139.6,32.4 L 145.0,25.0" style="fill:none;fill-rule:evenodd;stroke:#000000;stroke-width:2.0px;stroke-linecap:butt;stroke-linejoin:miter;stroke-opacity:1"/>
<path class="bond-13 atom-12 atom-14" d="M 145.0,25.0 L 150.4,17.6" style="fill:none;fill-rule:evenodd;stroke:#FF0000;stroke-width:2.0px;stroke-linecap:butt;stroke-linejoin:miter;stroke-opacity:1"/>
<path class="bond-14 atom-10 atom-15" d="M 149.0,54.0 L 158.4,75.7" style="fill:none;fill-rule:evenodd;stroke:#000000;stroke-width:2.0px;stroke-linecap:butt;stroke-linejoin:miter;stroke-opacity:1"/>
<path class="bond-15 atom-15 atom-16" d="M 158.4,75.7 L 153.0,83.1" style="fill:none;fill-rule:evenodd;stroke:#000000;stroke-width:2.0px;stroke-linecap:butt;stroke-linejoin:miter;stroke-opacity:1"/>
<path class="bond-15 atom-15 atom-16" d="M 153.0,83.1 L 147.5,90.5" style="fill:none;fill-rule:evenodd;stroke:#FF0000;stroke-width:2.0px;stroke-linecap:butt;stroke-linejoin:miter;stroke-opacity:1"/>
<path class="bond-16 atom-15 atom-17" d="M 158.4,75.7 L 181.9,78.3" style="fill:none;fill-rule:evenodd;stroke:#000000;stroke-width:2.0px;stroke-linecap:butt;stroke-linejoin:miter;stroke-opacity:1"/>
<path class="bond-17 atom-17 atom-18" d="M 181.9,78.3 L 191.3,100.0" style="fill:none;fill-rule:evenodd;stroke:#000000;stroke-width:2.0px;stroke-linecap:butt;stroke-linejoin:miter;stroke-opacity:1"/>
<path class="bond-18 atom-18 atom-19" d="M 191.3,100.0 L 214.8,102.7" style="fill:none;fill-rule:evenodd;stroke:#000000;stroke-width:2.0px;stroke-linecap:butt;stroke-linejoin:miter;stroke-opacity:1"/>
<path class="bond-19 atom-19 atom-20" d="M 214.8,102.7 L 224.3,124.3" style="fill:none;fill-rule:evenodd;stroke:#000000;stroke-width:2.0px;stroke-linecap:butt;stroke-linejoin:miter;stroke-opacity:1"/>
<path class="bond-20 atom-20 atom-21" d="M 224.3,124.3 L 247.7,127.0" style="fill:none;fill-rule:evenodd;stroke:#000000;stroke-width:2.0px;stroke-linecap:butt;stroke-linejoin:miter;stroke-opacity:1"/>
<path class="bond-21 atom-21 atom-22" d="M 247.7,127.0 L 257.2,148.6" style="fill:none;fill-rule:evenodd;stroke:#000000;stroke-width:2.0px;stroke-linecap:butt;stroke-linejoin:miter;stroke-opacity:1"/>
<path class="bond-22 atom-22 atom-23" d="M 257.2,148.6 L 266.6,170.3" style="fill:none;fill-rule:evenodd;stroke:#000000;stroke-width:2.0px;stroke-linecap:butt;stroke-linejoin:miter;stroke-opacity:1"/>
<path class="bond-23 atom-22 atom-24" d="M 257.2,148.6 L 235.5,158.1" style="fill:none;fill-rule:evenodd;stroke:#000000;stroke-width:2.0px;stroke-linecap:butt;stroke-linejoin:miter;stroke-opacity:1"/>
<path class="bond-24 atom-24 atom-25" d="M 235.5,158.1 L 234.4,167.7" style="fill:none;fill-rule:evenodd;stroke:#000000;stroke-width:2.0px;stroke-linecap:butt;stroke-linejoin:miter;stroke-opacity:1"/>
<path class="bond-24 atom-24 atom-25" d="M 234.4,167.7 L 233.3,177.4" style="fill:none;fill-rule:evenodd;stroke:#FF0000;stroke-width:2.0px;stroke-linecap:butt;stroke-linejoin:miter;stroke-opacity:1"/>
<path class="bond-25 atom-22 atom-26" d="M 257.2,148.6 L 278.8,139.2" style="fill:none;fill-rule:evenodd;stroke:#000000;stroke-width:2.0px;stroke-linecap:butt;stroke-linejoin:miter;stroke-opacity:1"/>
<path class="bond-26 atom-26 atom-27" d="M 280.5,140.4 L 281.6,130.3" style="fill:none;fill-rule:evenodd;stroke:#000000;stroke-width:2.0px;stroke-linecap:butt;stroke-linejoin:miter;stroke-opacity:1"/>
<path class="bond-26 atom-26 atom-27" d="M 281.6,130.3 L 282.7,120.2" style="fill:none;fill-rule:evenodd;stroke:#FF0000;stroke-width:2.0px;stroke-linecap:butt;stroke-linejoin:miter;stroke-opacity:1"/>
<path class="bond-26 atom-26 atom-27" d="M 276.9,140.0 L 278.1,129.9" style="fill:none;fill-rule:evenodd;stroke:#000000;stroke-width:2.0px;stroke-linecap:butt;stroke-linejoin:miter;stroke-opacity:1"/>
<path class="bond-26 atom-26 atom-27" d="M 278.1,129.9 L 279.2,119.8" style="fill:none;fill-rule:evenodd;stroke:#FF0000;stroke-width:2.0px;stroke-linecap:butt;stroke-linejoin:miter;stroke-opacity:1"/>
<path class="bond-27 atom-26 atom-28" d="M 278.8,139.2 L 286.4,144.8" style="fill:none;fill-rule:evenodd;stroke:#000000;stroke-width:2.0px;stroke-linecap:butt;stroke-linejoin:miter;stroke-opacity:1"/>
<path class="bond-27 atom-26 atom-28" d="M 286.4,144.8 L 294.0,150.4" style="fill:none;fill-rule:evenodd;stroke:#FF0000;stroke-width:2.0px;stroke-linecap:butt;stroke-linejoin:miter;stroke-opacity:1"/>
<path class="bond-28 atom-1 atom-29" d="M 54.4,162.2 L 45.0,140.6" style="fill:none;fill-rule:evenodd;stroke:#000000;stroke-width:2.0px;stroke-linecap:butt;stroke-linejoin:miter;stroke-opacity:1"/>
<path class="bond-29 atom-29 atom-30" d="M 46.2,138.9 L 35.9,137.7" style="fill:none;fill-rule:evenodd;stroke:#000000;stroke-width:2.0px;stroke-linecap:butt;stroke-linejoin:miter;stroke-opacity:1"/>
<path class="bond-29 atom-29 atom-30" d="M 35.9,137.7 L 25.6,136.6" style="fill:none;fill-rule:evenodd;stroke:#FF0000;stroke-width:2.0px;stroke-linecap:butt;stroke-linejoin:miter;stroke-opacity:1"/>
<path class="bond-29 atom-29 atom-30" d="M 45.8,142.4 L 35.5,141.3" style="fill:none;fill-rule:evenodd;stroke:#000000;stroke-width:2.0px;stroke-linecap:butt;stroke-linejoin:miter;stroke-opacity:1"/>
<path class="bond-29 atom-29 atom-30" d="M 35.5,141.3 L 25.2,140.1" style="fill:none;fill-rule:evenodd;stroke:#FF0000;stroke-width:2.0px;stroke-linecap:butt;stroke-linejoin:miter;stroke-opacity:1"/>
<path class="bond-30 atom-29 atom-31" d="M 45.0,140.6 L 50.4,133.2" style="fill:none;fill-rule:evenodd;stroke:#000000;stroke-width:2.0px;stroke-linecap:butt;stroke-linejoin:miter;stroke-opacity:1"/>
<path class="bond-30 atom-29 atom-31" d="M 50.4,133.2 L 55.9,125.8" style="fill:none;fill-rule:evenodd;stroke:#FF0000;stroke-width:2.0px;stroke-linecap:butt;stroke-linejoin:miter;stroke-opacity:1"/>
<path d="M 63.4,182.8 L 63.9,183.9 L 64.3,183.9" style="fill:none;stroke:#000000;stroke-width:2.0px;stroke-linecap:butt;stroke-linejoin:miter;stroke-opacity:1;"/>
<path d="M 75.0,153.2 L 76.1,152.8 L 76.2,151.6" style="fill:none;stroke:#000000;stroke-width:2.0px;stroke-linecap:butt;stroke-linejoin:miter;stroke-opacity:1;"/>
<path d="M 78.6,130.5 L 78.7,129.3 L 79.8,128.8" style="fill:none;stroke:#000000;stroke-width:2.0px;stroke-linecap:butt;stroke-linejoin:miter;stroke-opacity:1;"/>
<path d="M 99.3,120.3 L 100.4,119.9 L 100.5,118.7" style="fill:none;stroke:#000000;stroke-width:2.0px;stroke-linecap:butt;stroke-linejoin:miter;stroke-opacity:1;"/>
<path d="M 102.9,97.6 L 103.0,96.4 L 104.1,95.9" style="fill:none;stroke:#000000;stroke-width:2.0px;stroke-linecap:butt;stroke-linejoin:miter;stroke-opacity:1;"/>
<path d="M 123.6,87.4 L 124.7,86.9 L 124.8,85.8" style="fill:none;stroke:#000000;stroke-width:2.0px;stroke-linecap:butt;stroke-linejoin:miter;stroke-opacity:1;"/>
<path d="M 127.2,64.6 L 127.3,63.5 L 128.4,63.0" style="fill:none;stroke:#000000;stroke-width:2.0px;stroke-linecap:butt;stroke-linejoin:miter;stroke-opacity:1;"/>
<path d="M 140.0,33.5 L 139.6,32.4 L 139.8,32.0" style="fill:none;stroke:#000000;stroke-width:2.0px;stroke-linecap:butt;stroke-linejoin:miter;stroke-opacity:1;"/>
<path d="M 180.7,78.2 L 181.9,78.3 L 182.4,79.4" style="fill:none;stroke:#000000;stroke-width:2.0px;stroke-linecap:butt;stroke-linejoin:miter;stroke-opacity:1;"/>
<path d="M 190.9,98.9 L 191.3,100.0 L 192.5,100.1" style="fill:none;stroke:#000000;stroke-width:2.0px;stroke-linecap:butt;stroke-linejoin:miter;stroke-opacity:1;"/>
<path d="M 213.6,102.5 L 214.8,102.7 L 215.3,103.7" style="fill:none;stroke:#000000;stroke-width:2.0px;stroke-linecap:butt;stroke-linejoin:miter;stroke-opacity:1;"/>
<path d="M 223.8,123.2 L 224.3,124.3 L 225.4,124.4" style="fill:none;stroke:#000000;stroke-width:2.0px;stroke-linecap:butt;stroke-linejoin:miter;stroke-opacity:1;"/>
<path d="M 246.6,126.8 L 247.7,127.0 L 248.2,128.0" style="fill:none;stroke:#000000;stroke-width:2.0px;stroke-linecap:butt;stroke-linejoin:miter;stroke-opacity:1;"/>
<path d="M 236.6,157.6 L 235.5,158.1 L 235.5,158.5" style="fill:none;stroke:#000000;stroke-width:2.0px;stroke-linecap:butt;stroke-linejoin:miter;stroke-opacity:1;"/>
<path d="M 277.7,139.7 L 278.8,139.2 L 279.2,139.5" style="fill:none;stroke:#000000;stroke-width:2.0px;stroke-linecap:butt;stroke-linejoin:miter;stroke-opacity:1;"/>
<path d="M 45.5,141.6 L 45.0,140.6 L 45.3,140.2" style="fill:none;stroke:#000000;stroke-width:2.0px;stroke-linecap:butt;stroke-linejoin:miter;stroke-opacity:1;"/>
<path class="atom-3" d="M 84.3 186.5 Q 84.3 184.9, 85.0 184.0 Q 85.8 183.1, 87.3 183.1 Q 88.8 183.1, 89.6 184.0 Q 90.4 184.9, 90.4 186.5 Q 90.4 188.2, 89.6 189.1 Q 88.8 190.0, 87.3 190.0 Q 85.9 190.0, 85.0 189.1 Q 84.3 188.2, 84.3 186.5 M 87.3 189.2 Q 88.3 189.2, 88.9 188.6 Q 89.5 187.9, 89.5 186.5 Q 89.5 185.2, 88.9 184.6 Q 88.3 183.9, 87.3 183.9 Q 86.3 183.9, 85.7 184.5 Q 85.2 185.2, 85.2 186.5 Q 85.2 187.9, 85.7 188.6 Q 86.3 189.2, 87.3 189.2 " fill="#FF0000"/>
<path class="atom-3" d="M 91.4 183.2 L 92.3 183.2 L 92.3 186.1 L 95.8 186.1 L 95.8 183.2 L 96.7 183.2 L 96.7 189.9 L 95.8 189.9 L 95.8 186.8 L 92.3 186.8 L 92.3 189.9 L 91.4 189.9 L 91.4 183.2 " fill="#FF0000"/>
<path class="atom-13" d="M 113.0 29.7 Q 113.0 28.1, 113.8 27.2 Q 114.6 26.3, 116.1 26.3 Q 117.6 26.3, 118.4 27.2 Q 119.2 28.1, 119.2 29.7 Q 119.2 31.4, 118.4 32.3 Q 117.6 33.2, 116.1 33.2 Q 114.6 33.2, 113.8 32.3 Q 113.0 31.4, 113.0 29.7 M 116.1 32.5 Q 117.1 32.5, 117.7 31.8 Q 118.2 31.1, 118.2 29.7 Q 118.2 28.4, 117.7 27.8 Q 117.1 27.1, 116.1 27.1 Q 115.1 27.1, 114.5 27.8 Q 114.0 28.4, 114.0 29.7 Q 114.0 31.1, 114.5 31.8 Q 115.1 32.5, 116.1 32.5 " fill="#FF0000"/>
<path class="atom-14" d="M 150.5 13.4 Q 150.5 11.8, 151.3 10.9 Q 152.1 10.0, 153.6 10.0 Q 155.1 10.0, 155.9 10.9 Q 156.7 11.8, 156.7 13.4 Q 156.7 15.0, 155.9 16.0 Q 155.1 16.9, 153.6 16.9 Q 152.1 16.9, 151.3 16.0 Q 150.5 15.0, 150.5 13.4 M 153.6 16.1 Q 154.6 16.1, 155.2 15.4 Q 155.7 14.7, 155.7 13.4 Q 155.7 12.1, 155.2 11.4 Q 154.6 10.8, 153.6 10.8 Q 152.6 10.8, 152.0 11.4 Q 151.5 12.1, 151.5 13.4 Q 151.5 14.8, 152.0 15.4 Q 152.6 16.1, 153.6 16.1 " fill="#FF0000"/>
<path class="atom-14" d="M 157.7 10.1 L 158.6 10.1 L 158.6 12.9 L 162.0 12.9 L 162.0 10.1 L 162.9 10.1 L 162.9 16.8 L 162.0 16.8 L 162.0 13.7 L 158.6 13.7 L 158.6 16.8 L 157.7 16.8 L 157.7 10.1 " fill="#FF0000"/>
<path class="atom-16" d="M 134.7 91.4 L 135.6 91.4 L 135.6 94.2 L 139.0 94.2 L 139.0 91.4 L 140.0 91.4 L 140.0 98.1 L 139.0 98.1 L 139.0 95.0 L 135.6 95.0 L 135.6 98.1 L 134.7 98.1 L 134.7 91.4 " fill="#FF0000"/>
<path class="atom-16" d="M 141.3 94.7 Q 141.3 93.1, 142.1 92.2 Q 142.9 91.3, 144.4 91.3 Q 145.9 91.3, 146.7 92.2 Q 147.5 93.1, 147.5 94.7 Q 147.5 96.3, 146.7 97.3 Q 145.9 98.2, 144.4 98.2 Q 142.9 98.2, 142.1 97.3 Q 141.3 96.3, 141.3 94.7 M 144.4 97.4 Q 145.4 97.4, 146.0 96.7 Q 146.5 96.1, 146.5 94.7 Q 146.5 93.4, 146.0 92.7 Q 145.4 92.1, 144.4 92.1 Q 143.4 92.1, 142.8 92.7 Q 142.3 93.4, 142.3 94.7 Q 142.3 96.1, 142.8 96.7 Q 143.4 97.4, 144.4 97.4 " fill="#FF0000"/>
<path class="atom-25" d="M 229.8 181.5 Q 229.8 179.9, 230.6 179.0 Q 231.4 178.1, 232.9 178.1 Q 234.3 178.1, 235.1 179.0 Q 235.9 179.9, 235.9 181.5 Q 235.9 183.2, 235.1 184.1 Q 234.3 185.0, 232.9 185.0 Q 231.4 185.0, 230.6 184.1 Q 229.8 183.2, 229.8 181.5 M 232.9 184.3 Q 233.9 184.3, 234.4 183.6 Q 235.0 182.9, 235.0 181.5 Q 235.0 180.2, 234.4 179.6 Q 233.9 178.9, 232.9 178.9 Q 231.8 178.9, 231.3 179.6 Q 230.7 180.2, 230.7 181.5 Q 230.7 182.9, 231.3 183.6 Q 231.8 184.3, 232.9 184.3 " fill="#FF0000"/>
<path class="atom-25" d="M 237.0 178.2 L 237.9 178.2 L 237.9 181.1 L 241.3 181.1 L 241.3 178.2 L 242.2 178.2 L 242.2 184.9 L 241.3 184.9 L 241.3 181.8 L 237.9 181.8 L 237.9 184.9 L 237.0 184.9 L 237.0 178.2 " fill="#FF0000"/>
<path class="atom-27" d="M 278.4 115.7 Q 278.4 114.1, 279.2 113.2 Q 280.0 112.3, 281.5 112.3 Q 283.0 112.3, 283.7 113.2 Q 284.5 114.1, 284.5 115.7 Q 284.5 117.4, 283.7 118.3 Q 282.9 119.2, 281.5 119.2 Q 280.0 119.2, 279.2 118.3 Q 278.4 117.4, 278.4 115.7 M 281.5 118.4 Q 282.5 118.4, 283.0 117.8 Q 283.6 117.1, 283.6 115.7 Q 283.6 114.4, 283.0 113.8 Q 282.5 113.1, 281.5 113.1 Q 280.5 113.1, 279.9 113.7 Q 279.3 114.4, 279.3 115.7 Q 279.3 117.1, 279.9 117.8 Q 280.5 118.4, 281.5 118.4 " fill="#FF0000"/>
<path class="atom-28" d="M 294.7 153.2 Q 294.7 151.6, 295.5 150.7 Q 296.3 149.8, 297.8 149.8 Q 299.3 149.8, 300.1 150.7 Q 300.9 151.6, 300.9 153.2 Q 300.9 154.9, 300.1 155.8 Q 299.3 156.7, 297.8 156.7 Q 296.3 156.7, 295.5 155.8 Q 294.7 154.9, 294.7 153.2 M 297.8 155.9 Q 298.8 155.9, 299.4 155.3 Q 299.9 154.6, 299.9 153.2 Q 299.9 151.9, 299.4 151.3 Q 298.8 150.6, 297.8 150.6 Q 296.8 150.6, 296.2 151.2 Q 295.7 151.9, 295.7 153.2 Q 295.7 154.6, 296.2 155.3 Q 296.8 155.9, 297.8 155.9 " fill="#FF0000"/>
<path class="atom-28" d="M 301.9 149.9 L 302.8 149.9 L 302.8 152.8 L 306.3 152.8 L 306.3 149.9 L 307.2 149.9 L 307.2 156.6 L 306.3 156.6 L 306.3 153.5 L 302.8 153.5 L 302.8 156.6 L 301.9 156.6 L 301.9 149.9 " fill="#FF0000"/>
<path class="atom-30" d="M 18.4 137.9 Q 18.4 136.3, 19.2 135.4 Q 20.0 134.5, 21.5 134.5 Q 23.0 134.5, 23.8 135.4 Q 24.6 136.3, 24.6 137.9 Q 24.6 139.5, 23.8 140.5 Q 23.0 141.4, 21.5 141.4 Q 20.0 141.4, 19.2 140.5 Q 18.4 139.5, 18.4 137.9 M 21.5 140.6 Q 22.5 140.6, 23.1 139.9 Q 23.6 139.3, 23.6 137.9 Q 23.6 136.6, 23.1 135.9 Q 22.5 135.3, 21.5 135.3 Q 20.5 135.3, 19.9 135.9 Q 19.4 136.6, 19.4 137.9 Q 19.4 139.3, 19.9 139.9 Q 20.5 140.6, 21.5 140.6 " fill="#FF0000"/>
<path class="atom-31" d="M 55.9 121.6 Q 55.9 120.0, 56.7 119.1 Q 57.5 118.2, 59.0 118.2 Q 60.5 118.2, 61.3 119.1 Q 62.1 120.0, 62.1 121.6 Q 62.1 123.2, 61.3 124.1 Q 60.5 125.0, 59.0 125.0 Q 57.5 125.0, 56.7 124.1 Q 55.9 123.2, 55.9 121.6 M 59.0 124.3 Q 60.0 124.3, 60.6 123.6 Q 61.1 122.9, 61.1 121.6 Q 61.1 120.3, 60.6 119.6 Q 60.0 118.9, 59.0 118.9 Q 58.0 118.9, 57.4 119.6 Q 56.9 120.2, 56.9 121.6 Q 56.9 122.9, 57.4 123.6 Q 58.0 124.3, 59.0 124.3 " fill="#FF0000"/>
<path class="atom-31" d="M 63.1 118.2 L 64.0 118.2 L 64.0 121.1 L 67.5 121.1 L 67.5 118.2 L 68.4 118.2 L 68.4 124.9 L 67.5 124.9 L 67.5 121.8 L 64.0 121.8 L 64.0 124.9 L 63.1 124.9 L 63.1 118.2 " fill="#FF0000"/>
</g>
    <g transform="translate(651.0, 0) scale(1 1) "><line x1="15" y1="100" x2="25" y2="100" style="stroke:rgb(0,0,0);stroke-width:2"/>
  <line x1="20" y1="95" x2="20" y2="105" style="stroke:rgb(0,0,0);stroke-width:2"/>
</g>
    <g transform="translate(691.0, 0) scale(1 1) "><!-- END OF HEADER -->
<rect style="opacity:1.0;fill:#FFFFFF;stroke:none" width="205.0" height="200.0" x="0.0" y="0.0"> </rect>
<path class="bond-0 atom-0 atom-1" d="M 122.6,44.3 L 108.8,89.2" style="fill:none;fill-rule:evenodd;stroke:#000000;stroke-width:2.0px;stroke-linecap:butt;stroke-linejoin:miter;stroke-opacity:1"/>
<path class="bond-1 atom-1 atom-2" d="M 108.8,89.2 L 95.0,134.1" style="fill:none;fill-rule:evenodd;stroke:#000000;stroke-width:2.0px;stroke-linecap:butt;stroke-linejoin:miter;stroke-opacity:1"/>
<path class="bond-2 atom-1 atom-3" d="M 108.8,89.2 L 63.9,75.4" style="fill:none;fill-rule:evenodd;stroke:#000000;stroke-width:2.0px;stroke-linecap:butt;stroke-linejoin:miter;stroke-opacity:1"/>
<path class="bond-3 atom-3 atom-4" d="M 63.9,75.4 L 50.5,87.9" style="fill:none;fill-rule:evenodd;stroke:#000000;stroke-width:2.0px;stroke-linecap:butt;stroke-linejoin:miter;stroke-opacity:1"/>
<path class="bond-3 atom-3 atom-4" d="M 50.5,87.9 L 37.2,100.3" style="fill:none;fill-rule:evenodd;stroke:#FF0000;stroke-width:2.0px;stroke-linecap:butt;stroke-linejoin:miter;stroke-opacity:1"/>
<path class="bond-4 atom-1 atom-5" d="M 108.8,89.2 L 153.7,103.0" style="fill:none;fill-rule:evenodd;stroke:#000000;stroke-width:2.0px;stroke-linecap:butt;stroke-linejoin:miter;stroke-opacity:1"/>
<path class="bond-5 atom-5 atom-6" d="M 154.7,107.0 L 168.8,93.8" style="fill:none;fill-rule:evenodd;stroke:#000000;stroke-width:2.0px;stroke-linecap:butt;stroke-linejoin:miter;stroke-opacity:1"/>
<path class="bond-5 atom-5 atom-6" d="M 168.8,93.8 L 182.9,80.7" style="fill:none;fill-rule:evenodd;stroke:#FF0000;stroke-width:2.0px;stroke-linecap:butt;stroke-linejoin:miter;stroke-opacity:1"/>
<path class="bond-5 atom-5 atom-6" d="M 149.9,101.8 L 164.0,88.7" style="fill:none;fill-rule:evenodd;stroke:#000000;stroke-width:2.0px;stroke-linecap:butt;stroke-linejoin:miter;stroke-opacity:1"/>
<path class="bond-5 atom-5 atom-6" d="M 164.0,88.7 L 178.1,75.5" style="fill:none;fill-rule:evenodd;stroke:#FF0000;stroke-width:2.0px;stroke-linecap:butt;stroke-linejoin:miter;stroke-opacity:1"/>
<path class="bond-6 atom-5 atom-7" d="M 153.7,103.0 L 158.0,121.7" style="fill:none;fill-rule:evenodd;stroke:#000000;stroke-width:2.0px;stroke-linecap:butt;stroke-linejoin:miter;stroke-opacity:1"/>
<path class="bond-6 atom-5 atom-7" d="M 158.0,121.7 L 162.4,140.5" style="fill:none;fill-rule:evenodd;stroke:#FF0000;stroke-width:2.0px;stroke-linecap:butt;stroke-linejoin:miter;stroke-opacity:1"/>
<path d="M 66.1,76.1 L 63.9,75.4 L 63.2,76.0" style="fill:none;stroke:#000000;stroke-width:2.0px;stroke-linecap:butt;stroke-linejoin:miter;stroke-opacity:1;"/>
<path d="M 151.5,102.3 L 153.7,103.0 L 154.0,103.9" style="fill:none;stroke:#000000;stroke-width:2.0px;stroke-linecap:butt;stroke-linejoin:miter;stroke-opacity:1;"/>
<path class="atom-4" d="M 10.2 100.8 L 12.1 100.8 L 12.1 106.5 L 18.9 106.5 L 18.9 100.8 L 20.7 100.8 L 20.7 114.1 L 18.9 114.1 L 18.9 108.0 L 12.1 108.0 L 12.1 114.1 L 10.2 114.1 L 10.2 100.8 " fill="#FF0000"/>
<path class="atom-4" d="M 23.4 107.5 Q 23.4 104.3, 25.0 102.5 Q 26.5 100.7, 29.5 100.7 Q 32.5 100.7, 34.0 102.5 Q 35.6 104.3, 35.6 107.5 Q 35.6 110.7, 34.0 112.5 Q 32.4 114.4, 29.5 114.4 Q 26.6 114.4, 25.0 112.5 Q 23.4 110.7, 23.4 107.5 M 29.5 112.9 Q 31.5 112.9, 32.6 111.5 Q 33.7 110.1, 33.7 107.5 Q 33.7 104.8, 32.6 103.5 Q 31.5 102.2, 29.5 102.2 Q 27.5 102.2, 26.4 103.5 Q 25.3 104.8, 25.3 107.5 Q 25.3 110.1, 26.4 111.5 Q 27.5 112.9, 29.5 112.9 " fill="#FF0000"/>
<path class="atom-6" d="M 182.0 71.0 Q 182.0 67.8, 183.6 66.0 Q 185.2 64.3, 188.1 64.3 Q 191.1 64.3, 192.7 66.0 Q 194.3 67.8, 194.3 71.0 Q 194.3 74.3, 192.7 76.1 Q 191.1 77.9, 188.1 77.9 Q 185.2 77.9, 183.6 76.1 Q 182.0 74.3, 182.0 71.0 M 188.1 76.4 Q 190.2 76.4, 191.3 75.1 Q 192.4 73.7, 192.4 71.0 Q 192.4 68.4, 191.3 67.1 Q 190.2 65.8, 188.1 65.8 Q 186.1 65.8, 185.0 67.1 Q 183.9 68.4, 183.9 71.0 Q 183.9 73.7, 185.0 75.1 Q 186.1 76.4, 188.1 76.4 " fill="#FF0000"/>
<path class="atom-7" d="M 158.2 148.8 Q 158.2 145.6, 159.7 143.8 Q 161.3 142.1, 164.3 142.1 Q 167.2 142.1, 168.8 143.8 Q 170.4 145.6, 170.4 148.8 Q 170.4 152.1, 168.8 153.9 Q 167.2 155.7, 164.3 155.7 Q 161.3 155.7, 159.7 153.9 Q 158.2 152.1, 158.2 148.8 M 164.3 154.2 Q 166.3 154.2, 167.4 152.9 Q 168.5 151.5, 168.5 148.8 Q 168.5 146.2, 167.4 144.9 Q 166.3 143.6, 164.3 143.6 Q 162.2 143.6, 161.1 144.9 Q 160.0 146.2, 160.0 148.8 Q 160.0 151.5, 161.1 152.9 Q 162.2 154.2, 164.3 154.2 " fill="#FF0000"/>
<path class="atom-7" d="M 172.4 142.2 L 174.2 142.2 L 174.2 147.9 L 181.0 147.9 L 181.0 142.2 L 182.9 142.2 L 182.9 155.5 L 181.0 155.5 L 181.0 149.4 L 174.2 149.4 L 174.2 155.5 L 172.4 155.5 L 172.4 142.2 " fill="#FF0000"/>
</g>
  </g>
</svg>
