<?xml version='1.0' encoding='ASCII' standalone='yes'?>
<svg xmlns="http://www.w3.org/2000/svg" xmlns:xlink="http://www.w3.org/1999/xlink" version="1.1" width="981.0px" viewBox="0 0 981.0 200.0" height="200.0px">
  <g>
    <g transform="translate(0, 0) scale(1 1) "><!-- END OF HEADER -->
<rect style="opacity:1.0;fill:#FFFFFF;stroke:none" width="320.0" height="200.0" x="0.0" y="0.0"> </rect>
<path class="bond-0 atom-0 atom-1" d="M 16.0,31.3 L 50.8,43.9" style="fill:none;fill-rule:evenodd;stroke:#000000;stroke-width:2.0px;stroke-linecap:butt;stroke-linejoin:miter;stroke-opacity:1"/>
<path class="bond-1 atom-1 atom-2" d="M 50.8,43.9 L 61.9,34.5" style="fill:none;fill-rule:evenodd;stroke:#000000;stroke-width:2.0px;stroke-linecap:butt;stroke-linejoin:miter;stroke-opacity:1"/>
<path class="bond-1 atom-1 atom-2" d="M 61.9,34.5 L 73.1,25.1" style="fill:none;fill-rule:evenodd;stroke:#FF0000;stroke-width:2.0px;stroke-linecap:butt;stroke-linejoin:miter;stroke-opacity:1"/>
<path class="bond-2 atom-1 atom-3" d="M 50.8,43.9 L 57.3,80.3" style="fill:none;fill-rule:evenodd;stroke:#000000;stroke-width:2.0px;stroke-linecap:butt;stroke-linejoin:miter;stroke-opacity:1"/>
<path class="bond-3 atom-3 atom-4" d="M 57.3,80.3 L 20.8,86.8" style="fill:none;fill-rule:evenodd;stroke:#000000;stroke-width:2.0px;stroke-linecap:butt;stroke-linejoin:miter;stroke-opacity:1"/>
<path class="bond-4 atom-3 atom-5" d="M 57.3,80.3 L 93.7,73.8" style="fill:none;fill-rule:evenodd;stroke:#000000;stroke-width:2.0px;stroke-linecap:butt;stroke-linejoin:miter;stroke-opacity:1"/>
<path class="bond-5 atom-5 atom-6" d="M 93.7,73.8 L 117.5,102.1" style="fill:none;fill-rule:evenodd;stroke:#000000;stroke-width:2.0px;stroke-linecap:butt;stroke-linejoin:miter;stroke-opacity:1"/>
<path class="bond-6 atom-6 atom-7" d="M 117.5,102.1 L 92.3,129.3" style="fill:none;fill-rule:evenodd;stroke:#000000;stroke-width:2.0px;stroke-linecap:butt;stroke-linejoin:miter;stroke-opacity:1"/>
<path class="bond-7 atom-6 atom-8" d="M 117.5,102.1 L 145.8,78.3" style="fill:none;fill-rule:evenodd;stroke:#000000;stroke-width:2.0px;stroke-linecap:butt;stroke-linejoin:miter;stroke-opacity:1"/>
<path class="bond-8 atom-8 atom-9" d="M 145.8,78.3 L 180.6,90.9" style="fill:none;fill-rule:evenodd;stroke:#000000;stroke-width:2.0px;stroke-linecap:butt;stroke-linejoin:miter;stroke-opacity:1"/>
<path class="bond-9 atom-9 atom-10" d="M 180.6,90.9 L 193.2,56.1" style="fill:none;fill-rule:evenodd;stroke:#000000;stroke-width:2.0px;stroke-linecap:butt;stroke-linejoin:miter;stroke-opacity:1"/>
<path class="bond-10 atom-10 atom-11" d="M 193.2,56.1 L 184.1,45.3" style="fill:none;fill-rule:evenodd;stroke:#000000;stroke-width:2.0px;stroke-linecap:butt;stroke-linejoin:miter;stroke-opacity:1"/>
<path class="bond-10 atom-10 atom-11" d="M 184.1,45.3 L 175.0,34.5" style="fill:none;fill-rule:evenodd;stroke:#FF0000;stroke-width:2.0px;stroke-linecap:butt;stroke-linejoin:miter;stroke-opacity:1"/>
<path class="bond-11 atom-9 atom-12" d="M 180.6,90.9 L 215.4,103.5" style="fill:none;fill-rule:evenodd;stroke:#000000;stroke-width:2.0px;stroke-linecap:butt;stroke-linejoin:miter;stroke-opacity:1"/>
<path class="bond-12 atom-12 atom-13" d="M 215.4,103.5 L 243.7,79.7" style="fill:none;fill-rule:evenodd;stroke:#000000;stroke-width:2.0px;stroke-linecap:butt;stroke-linejoin:miter;stroke-opacity:1"/>
<path class="bond-13 atom-13 atom-14" d="M 243.7,79.7 L 272.0,55.9" style="fill:none;fill-rule:evenodd;stroke:#000000;stroke-width:2.0px;stroke-linecap:butt;stroke-linejoin:miter;stroke-opacity:1"/>
<path class="bond-14 atom-13 atom-15" d="M 243.7,79.7 L 219.9,51.4" style="fill:none;fill-rule:evenodd;stroke:#000000;stroke-width:2.0px;stroke-linecap:butt;stroke-linejoin:miter;stroke-opacity:1"/>
<path class="bond-15 atom-15 atom-16" d="M 220.9,48.7 L 213.7,48.2" style="fill:none;fill-rule:evenodd;stroke:#000000;stroke-width:2.0px;stroke-linecap:butt;stroke-linejoin:miter;stroke-opacity:1"/>
<path class="bond-15 atom-15 atom-16" d="M 213.7,48.2 L 206.5,47.7" style="fill:none;fill-rule:evenodd;stroke:#FF0000;stroke-width:2.0px;stroke-linecap:butt;stroke-linejoin:miter;stroke-opacity:1"/>
<path class="bond-15 atom-15 atom-16" d="M 222.4,54.3 L 213.3,53.7" style="fill:none;fill-rule:evenodd;stroke:#000000;stroke-width:2.0px;stroke-linecap:butt;stroke-linejoin:miter;stroke-opacity:1"/>
<path class="bond-15 atom-15 atom-16" d="M 213.3,53.7 L 206.1,53.2" style="fill:none;fill-rule:evenodd;stroke:#FF0000;stroke-width:2.0px;stroke-linecap:butt;stroke-linejoin:miter;stroke-opacity:1"/>
<path class="bond-16 atom-15 atom-17" d="M 219.9,51.4 L 225.0,37.3" style="fill:none;fill-rule:evenodd;stroke:#000000;stroke-width:2.0px;stroke-linecap:butt;stroke-linejoin:miter;stroke-opacity:1"/>
<path class="bond-16 atom-15 atom-17" d="M 225.0,37.3 L 230.1,23.3" style="fill:none;fill-rule:evenodd;stroke:#FF0000;stroke-width:2.0px;stroke-linecap:butt;stroke-linejoin:miter;stroke-opacity:1"/>
<path class="bond-17 atom-13 atom-18" d="M 243.7,79.7 L 267.6,108.0" style="fill:none;fill-rule:evenodd;stroke:#000000;stroke-width:2.0px;stroke-linecap:butt;stroke-linejoin:miter;stroke-opacity:1"/>
<path class="bond-18 atom-18 atom-19" d="M 267.6,108.0 L 304.0,101.5" style="fill:none;fill-rule:evenodd;stroke:#000000;stroke-width:2.0px;stroke-linecap:butt;stroke-linejoin:miter;stroke-opacity:1"/>
<path class="bond-19 atom-18 atom-20" d="M 267.6,108.0 L 262.4,122.1" style="fill:none;fill-rule:evenodd;stroke:#000000;stroke-width:2.0px;stroke-linecap:butt;stroke-linejoin:miter;stroke-opacity:1"/>
<path class="bond-19 atom-18 atom-20" d="M 262.4,122.1 L 257.3,136.3" style="fill:none;fill-rule:evenodd;stroke:#FF0000;stroke-width:2.0px;stroke-linecap:butt;stroke-linejoin:miter;stroke-opacity:1"/>
<path class="bond-20 atom-9 atom-21" d="M 180.6,90.9 L 168.0,125.7" style="fill:none;fill-rule:evenodd;stroke:#000000;stroke-width:2.0px;stroke-linecap:butt;stroke-linejoin:miter;stroke-opacity:1"/>
<path class="bond-21 atom-21 atom-22" d="M 169.3,122.1 L 154.2,128.9" style="fill:none;fill-rule:evenodd;stroke:#000000;stroke-width:2.0px;stroke-linecap:butt;stroke-linejoin:miter;stroke-opacity:1"/>
<path class="bond-21 atom-21 atom-22" d="M 154.2,128.9 L 139.2,135.6" style="fill:none;fill-rule:evenodd;stroke:#FF0000;stroke-width:2.0px;stroke-linecap:butt;stroke-linejoin:miter;stroke-opacity:1"/>
<path class="bond-21 atom-21 atom-22" d="M 169.9,127.9 L 156.5,133.9" style="fill:none;fill-rule:evenodd;stroke:#000000;stroke-width:2.0px;stroke-linecap:butt;stroke-linejoin:miter;stroke-opacity:1"/>
<path class="bond-21 atom-21 atom-22" d="M 156.5,133.9 L 141.4,140.6" style="fill:none;fill-rule:evenodd;stroke:#FF0000;stroke-width:2.0px;stroke-linecap:butt;stroke-linejoin:miter;stroke-opacity:1"/>
<path class="bond-22 atom-21 atom-23" d="M 168.0,125.7 L 177.2,136.6" style="fill:none;fill-rule:evenodd;stroke:#000000;stroke-width:2.0px;stroke-linecap:butt;stroke-linejoin:miter;stroke-opacity:1"/>
<path class="bond-22 atom-21 atom-23" d="M 177.2,136.6 L 186.4,147.5" style="fill:none;fill-rule:evenodd;stroke:#FF0000;stroke-width:2.0px;stroke-linecap:butt;stroke-linejoin:miter;stroke-opacity:1"/>
<path class="bond-23 atom-6 atom-24" d="M 117.5,102.1 L 141.4,130.5" style="fill:none;fill-rule:evenodd;stroke:#000000;stroke-width:2.0px;stroke-linecap:butt;stroke-linejoin:miter;stroke-opacity:1"/>
<path class="bond-24 atom-24 atom-25" d="M 140.4,133.1 L 156.2,134.2" style="fill:none;fill-rule:evenodd;stroke:#000000;stroke-width:2.0px;stroke-linecap:butt;stroke-linejoin:miter;stroke-opacity:1"/>
<path class="bond-24 atom-24 atom-25" d="M 156.2,134.2 L 172.1,135.3" style="fill:none;fill-rule:evenodd;stroke:#FF0000;stroke-width:2.0px;stroke-linecap:butt;stroke-linejoin:miter;stroke-opacity:1"/>
<path class="bond-24 atom-24 atom-25" d="M 138.9,127.6 L 156.6,128.8" style="fill:none;fill-rule:evenodd;stroke:#000000;stroke-width:2.0px;stroke-linecap:butt;stroke-linejoin:miter;stroke-opacity:1"/>
<path class="bond-24 atom-24 atom-25" d="M 156.6,128.8 L 172.5,129.8" style="fill:none;fill-rule:evenodd;stroke:#FF0000;stroke-width:2.0px;stroke-linecap:butt;stroke-linejoin:miter;stroke-opacity:1"/>
<path class="bond-25 atom-24 atom-26" d="M 141.4,130.5 L 136.2,144.6" style="fill:none;fill-rule:evenodd;stroke:#000000;stroke-width:2.0px;stroke-linecap:butt;stroke-linejoin:miter;stroke-opacity:1"/>
<path class="bond-25 atom-24 atom-26" d="M 136.2,144.6 L 131.1,158.7" style="fill:none;fill-rule:evenodd;stroke:#FF0000;stroke-width:2.0px;stroke-linecap:butt;stroke-linejoin:miter;stroke-opacity:1"/>
<path class="bond-26 atom-3 atom-27" d="M 57.3,80.3 L 63.8,116.8" style="fill:none;fill-rule:evenodd;stroke:#000000;stroke-width:2.0px;stroke-linecap:butt;stroke-linejoin:miter;stroke-opacity:1"/>
<path class="bond-27 atom-27 atom-28" d="M 61.5,118.7 L 75.5,125.8" style="fill:none;fill-rule:evenodd;stroke:#000000;stroke-width:2.0px;stroke-linecap:butt;stroke-linejoin:miter;stroke-opacity:1"/>
<path class="bond-27 atom-27 atom-28" d="M 75.5,125.8 L 89.5,132.9" style="fill:none;fill-rule:evenodd;stroke:#FF0000;stroke-width:2.0px;stroke-linecap:butt;stroke-linejoin:miter;stroke-opacity:1"/>
<path class="bond-27 atom-27 atom-28" d="M 63.2,113.4 L 78.0,120.9" style="fill:none;fill-rule:evenodd;stroke:#000000;stroke-width:2.0px;stroke-linecap:butt;stroke-linejoin:miter;stroke-opacity:1"/>
<path class="bond-27 atom-27 atom-28" d="M 78.0,120.9 L 92.0,128.0" style="fill:none;fill-rule:evenodd;stroke:#FF0000;stroke-width:2.0px;stroke-linecap:butt;stroke-linejoin:miter;stroke-opacity:1"/>
<path class="bond-28 atom-27 atom-29" d="M 63.8,116.8 L 52.6,126.1" style="fill:none;fill-rule:evenodd;stroke:#000000;stroke-width:2.0px;stroke-linecap:butt;stroke-linejoin:miter;stroke-opacity:1"/>
<path class="bond-28 atom-27 atom-29" d="M 52.6,126.1 L 41.5,135.5" style="fill:none;fill-rule:evenodd;stroke:#FF0000;stroke-width:2.0px;stroke-linecap:butt;stroke-linejoin:miter;stroke-opacity:1"/>
<path d="M 91.9,74.2 L 93.7,73.8 L 94.9,75.3" style="fill:none;stroke:#000000;stroke-width:2.0px;stroke-linecap:butt;stroke-linejoin:miter;stroke-opacity:1;"/>
<path d="M 144.4,79.5 L 145.8,78.3 L 147.6,78.9" style="fill:none;stroke:#000000;stroke-width:2.0px;stroke-linecap:butt;stroke-linejoin:miter;stroke-opacity:1;"/>
<path d="M 192.6,57.9 L 193.2,56.1 L 192.8,55.6" style="fill:none;stroke:#000000;stroke-width:2.0px;stroke-linecap:butt;stroke-linejoin:miter;stroke-opacity:1;"/>
<path d="M 213.7,102.9 L 215.4,103.5 L 216.8,102.3" style="fill:none;stroke:#000000;stroke-width:2.0px;stroke-linecap:butt;stroke-linejoin:miter;stroke-opacity:1;"/>
<path d="M 221.1,52.8 L 219.9,51.4 L 220.2,50.7" style="fill:none;stroke:#000000;stroke-width:2.0px;stroke-linecap:butt;stroke-linejoin:miter;stroke-opacity:1;"/>
<path d="M 168.7,124.0 L 168.0,125.7 L 168.5,126.3" style="fill:none;stroke:#000000;stroke-width:2.0px;stroke-linecap:butt;stroke-linejoin:miter;stroke-opacity:1;"/>
<path d="M 140.2,129.0 L 141.4,130.5 L 141.1,131.2" style="fill:none;stroke:#000000;stroke-width:2.0px;stroke-linecap:butt;stroke-linejoin:miter;stroke-opacity:1;"/>
<path d="M 63.4,114.9 L 63.8,116.8 L 63.2,117.2" style="fill:none;stroke:#000000;stroke-width:2.0px;stroke-linecap:butt;stroke-linejoin:miter;stroke-opacity:1;"/>
<path class="atom-2" d="M 74.3 20.1 Q 74.3 17.6, 75.5 16.2 Q 76.8 14.8, 79.1 14.8 Q 81.4 14.8, 82.7 16.2 Q 83.9 17.6, 83.9 20.1 Q 83.9 22.6, 82.7 24.1 Q 81.4 25.5, 79.1 25.5 Q 76.8 25.5, 75.5 24.1 Q 74.3 22.7, 74.3 20.1 M 79.1 24.3 Q 80.7 24.3, 81.6 23.3 Q 82.4 22.2, 82.4 20.1 Q 82.4 18.0, 81.6 17.0 Q 80.7 15.9, 79.1 15.9 Q 77.5 15.9, 76.6 17.0 Q 75.8 18.0, 75.8 20.1 Q 75.8 22.2, 76.6 23.3 Q 77.5 24.3, 79.1 24.3 " fill="#FF0000"/>
<path class="atom-2" d="M 85.5 14.9 L 87.0 14.9 L 87.0 19.3 L 92.3 19.3 L 92.3 14.9 L 93.7 14.9 L 93.7 25.4 L 92.3 25.4 L 92.3 20.5 L 87.0 20.5 L 87.0 25.4 L 85.5 25.4 L 85.5 14.9 " fill="#FF0000"/>
<path class="atom-11" d="M 154.2 22.6 L 155.7 22.6 L 155.7 27.1 L 161.0 27.1 L 161.0 22.6 L 162.4 22.6 L 162.4 33.1 L 161.0 33.1 L 161.0 28.3 L 155.7 28.3 L 155.7 33.1 L 154.2 33.1 L 154.2 22.6 " fill="#FF0000"/>
<path class="atom-11" d="M 164.6 27.8 Q 164.6 25.3, 165.8 23.9 Q 167.1 22.5, 169.4 22.5 Q 171.7 22.5, 173.0 23.9 Q 174.2 25.3, 174.2 27.8 Q 174.2 30.4, 173.0 31.8 Q 171.7 33.3, 169.4 33.3 Q 167.1 33.3, 165.8 31.8 Q 164.6 30.4, 164.6 27.8 M 169.4 32.1 Q 171.0 32.1, 171.9 31.0 Q 172.7 29.9, 172.7 27.8 Q 172.7 25.8, 171.9 24.8 Q 171.0 23.7, 169.4 23.7 Q 167.8 23.7, 166.9 24.7 Q 166.1 25.8, 166.1 27.8 Q 166.1 30.0, 166.9 31.0 Q 167.8 32.1, 169.4 32.1 " fill="#FF0000"/>
<path class="atom-16" d="M 195.5 50.1 Q 195.5 47.6, 196.7 46.1 Q 198.0 44.7, 200.3 44.7 Q 202.6 44.7, 203.9 46.1 Q 205.1 47.6, 205.1 50.1 Q 205.1 52.6, 203.8 54.1 Q 202.6 55.5, 200.3 55.5 Q 198.0 55.5, 196.7 54.1 Q 195.5 52.6, 195.5 50.1 M 200.3 54.3 Q 201.9 54.3, 202.7 53.3 Q 203.6 52.2, 203.6 50.1 Q 203.6 48.0, 202.7 47.0 Q 201.9 45.9, 200.3 45.9 Q 198.7 45.9, 197.8 47.0 Q 197.0 48.0, 197.0 50.1 Q 197.0 52.2, 197.8 53.3 Q 198.7 54.3, 200.3 54.3 " fill="#FF0000"/>
<path class="atom-17" d="M 227.7 16.6 Q 227.7 14.1, 228.9 12.7 Q 230.2 11.3, 232.5 11.3 Q 234.8 11.3, 236.1 12.7 Q 237.3 14.1, 237.3 16.6 Q 237.3 19.2, 236.1 20.6 Q 234.8 22.0, 232.5 22.0 Q 230.2 22.0, 228.9 20.6 Q 227.7 19.2, 227.7 16.6 M 232.5 20.9 Q 234.1 20.9, 235.0 19.8 Q 235.8 18.7, 235.8 16.6 Q 235.8 14.6, 235.0 13.5 Q 234.1 12.5, 232.5 12.5 Q 230.9 12.5, 230.0 13.5 Q 229.2 14.5, 229.2 16.6 Q 229.2 18.7, 230.0 19.8 Q 230.9 20.9, 232.5 20.9 " fill="#FF0000"/>
<path class="atom-17" d="M 238.9 11.4 L 240.4 11.4 L 240.4 15.9 L 245.7 15.9 L 245.7 11.4 L 247.1 11.4 L 247.1 21.9 L 245.7 21.9 L 245.7 17.0 L 240.4 17.0 L 240.4 21.9 L 238.9 21.9 L 238.9 11.4 " fill="#FF0000"/>
<path class="atom-20" d="M 250.2 142.8 Q 250.2 140.3, 251.4 138.9 Q 252.6 137.5, 255.0 137.5 Q 257.3 137.5, 258.5 138.9 Q 259.8 140.3, 259.8 142.8 Q 259.8 145.4, 258.5 146.8 Q 257.3 148.2, 255.0 148.2 Q 252.7 148.2, 251.4 146.8 Q 250.2 145.4, 250.2 142.8 M 255.0 147.1 Q 256.6 147.1, 257.4 146.0 Q 258.3 144.9, 258.3 142.8 Q 258.3 140.8, 257.4 139.7 Q 256.6 138.7, 255.0 138.7 Q 253.4 138.7, 252.5 139.7 Q 251.6 140.7, 251.6 142.8 Q 251.6 144.9, 252.5 146.0 Q 253.4 147.1, 255.0 147.1 " fill="#FF0000"/>
<path class="atom-20" d="M 261.4 137.6 L 262.8 137.6 L 262.8 142.1 L 268.2 142.1 L 268.2 137.6 L 269.6 137.6 L 269.6 148.1 L 268.2 148.1 L 268.2 143.2 L 262.8 143.2 L 262.8 148.1 L 261.4 148.1 L 261.4 137.6 " fill="#FF0000"/>
<path class="atom-22" d="M 129.4 140.8 Q 129.4 138.3, 130.7 136.9 Q 131.9 135.5, 134.3 135.5 Q 136.6 135.5, 137.8 136.9 Q 139.1 138.3, 139.1 140.8 Q 139.1 143.4, 137.8 144.8 Q 136.6 146.3, 134.3 146.3 Q 132.0 146.3, 130.7 144.8 Q 129.4 143.4, 129.4 140.8 M 134.3 145.1 Q 135.9 145.1, 136.7 144.0 Q 137.6 142.9, 137.6 140.8 Q 137.6 138.8, 136.7 137.8 Q 135.9 136.7, 134.3 136.7 Q 132.7 136.7, 131.8 137.7 Q 130.9 138.8, 130.9 140.8 Q 130.9 143.0, 131.8 144.0 Q 132.7 145.1, 134.3 145.1 " fill="#FF0000"/>
<path class="atom-23" d="M 187.1 154.0 Q 187.1 151.5, 188.3 150.1 Q 189.5 148.7, 191.9 148.7 Q 194.2 148.7, 195.4 150.1 Q 196.7 151.5, 196.7 154.0 Q 196.7 156.6, 195.4 158.0 Q 194.2 159.5, 191.9 159.5 Q 189.6 159.5, 188.3 158.0 Q 187.1 156.6, 187.1 154.0 M 191.9 158.3 Q 193.5 158.3, 194.3 157.2 Q 195.2 156.1, 195.2 154.0 Q 195.2 152.0, 194.3 151.0 Q 193.5 149.9, 191.9 149.9 Q 190.3 149.9, 189.4 150.9 Q 188.5 152.0, 188.5 154.0 Q 188.5 156.2, 189.4 157.2 Q 190.3 158.3, 191.9 158.3 " fill="#FF0000"/>
<path class="atom-23" d="M 198.3 148.8 L 199.7 148.8 L 199.7 153.3 L 205.1 153.3 L 205.1 148.8 L 206.5 148.8 L 206.5 159.3 L 205.1 159.3 L 205.1 154.5 L 199.7 154.5 L 199.7 159.3 L 198.3 159.3 L 198.3 148.8 " fill="#FF0000"/>
<path class="atom-25" d="M 173.5 133.0 Q 173.5 130.5, 174.7 129.1 Q 176.0 127.7, 178.3 127.7 Q 180.6 127.7, 181.9 129.1 Q 183.1 130.5, 183.1 133.0 Q 183.1 135.6, 181.8 137.0 Q 180.6 138.4, 178.3 138.4 Q 176.0 138.4, 174.7 137.0 Q 173.5 135.6, 173.5 133.0 M 178.3 137.3 Q 179.9 137.3, 180.7 136.2 Q 181.6 135.1, 181.6 133.0 Q 181.6 131.0, 180.7 129.9 Q 179.9 128.9, 178.3 128.9 Q 176.7 128.9, 175.8 129.9 Q 175.0 130.9, 175.0 133.0 Q 175.0 135.1, 175.8 136.2 Q 176.7 137.3, 178.3 137.3 " fill="#FF0000"/>
<path class="atom-26" d="M 124.0 165.3 Q 124.0 162.8, 125.2 161.4 Q 126.4 160.0, 128.8 160.0 Q 131.1 160.0, 132.3 161.4 Q 133.6 162.8, 133.6 165.3 Q 133.6 167.8, 132.3 169.3 Q 131.1 170.7, 128.8 170.7 Q 126.5 170.7, 125.2 169.3 Q 124.0 167.8, 124.0 165.3 M 128.8 169.5 Q 130.4 169.5, 131.2 168.5 Q 132.1 167.4, 132.1 165.3 Q 132.1 163.2, 131.2 162.2 Q 130.4 161.1, 128.8 161.1 Q 127.2 161.1, 126.3 162.2 Q 125.4 163.2, 125.4 165.3 Q 125.4 167.4, 126.3 168.5 Q 127.2 169.5, 128.8 169.5 " fill="#FF0000"/>
<path class="atom-26" d="M 135.2 160.1 L 136.6 160.1 L 136.6 164.5 L 142.0 164.5 L 142.0 160.1 L 143.4 160.1 L 143.4 170.5 L 142.0 170.5 L 142.0 165.7 L 136.6 165.7 L 136.6 170.5 L 135.2 170.5 L 135.2 160.1 " fill="#FF0000"/>
<path class="atom-28" d="M 91.9 133.5 Q 91.9 131.0, 93.2 129.6 Q 94.4 128.2, 96.8 128.2 Q 99.1 128.2, 100.3 129.6 Q 101.6 131.0, 101.6 133.5 Q 101.6 136.1, 100.3 137.5 Q 99.1 139.0, 96.8 139.0 Q 94.4 139.0, 93.2 137.5 Q 91.9 136.1, 91.9 133.5 M 96.8 137.8 Q 98.4 137.8, 99.2 136.7 Q 100.1 135.6, 100.1 133.5 Q 100.1 131.5, 99.2 130.4 Q 98.4 129.4, 96.8 129.4 Q 95.2 129.4, 94.3 130.4 Q 93.4 131.5, 93.4 133.5 Q 93.4 135.7, 94.3 136.7 Q 95.2 137.8, 96.8 137.8 " fill="#FF0000"/>
<path class="atom-29" d="M 20.3 135.4 L 21.7 135.4 L 21.7 139.9 L 27.1 139.9 L 27.1 135.4 L 28.5 135.4 L 28.5 145.9 L 27.1 145.9 L 27.1 141.0 L 21.7 141.0 L 21.7 145.9 L 20.3 145.9 L 20.3 135.4 " fill="#FF0000"/>
<path class="atom-29" d="M 30.6 140.6 Q 30.6 138.1, 31.9 136.7 Q 33.1 135.3, 35.5 135.3 Q 37.8 135.3, 39.0 136.7 Q 40.3 138.1, 40.3 140.6 Q 40.3 143.2, 39.0 144.6 Q 37.7 146.0, 35.5 146.0 Q 33.1 146.0, 31.9 144.6 Q 30.6 143.2, 30.6 140.6 M 35.5 144.9 Q 37.1 144.9, 37.9 143.8 Q 38.8 142.7, 38.8 140.6 Q 38.8 138.6, 37.9 137.5 Q 37.1 136.5, 35.5 136.5 Q 33.9 136.5, 33.0 137.5 Q 32.1 138.5, 32.1 140.6 Q 32.1 142.7, 33.0 143.8 Q 33.9 144.9, 35.5 144.9 " fill="#FF0000"/>
<path class="legend" d="M 151.5 181.9 Q 151.5 179.6, 152.2 177.7 Q 152.8 175.8, 154.1 173.8 L 155.0 174.4 Q 154.0 176.3, 153.4 178.0 Q 152.9 179.7, 152.9 181.9 Q 152.9 184.0, 153.4 185.8 Q 154.0 187.5, 155.0 189.4 L 154.1 190.0 Q 152.8 188.0, 152.2 186.1 Q 151.5 184.2, 151.5 181.9 " fill="#000000"/>
<path class="legend" d="M 155.9 177.3 Q 156.4 176.2, 157.3 175.6 Q 158.3 175.0, 159.7 175.0 Q 161.4 175.0, 162.4 175.9 Q 163.3 176.8, 163.3 178.5 Q 163.3 180.2, 162.1 181.7 Q 160.9 183.3, 158.3 185.2 L 163.5 185.2 L 163.5 186.4 L 155.9 186.4 L 155.9 185.4 Q 158.0 183.9, 159.3 182.8 Q 160.5 181.6, 161.1 180.6 Q 161.7 179.6, 161.7 178.6 Q 161.7 177.5, 161.2 176.9 Q 160.7 176.3, 159.7 176.3 Q 158.8 176.3, 158.2 176.6 Q 157.6 177.0, 157.2 177.8 L 155.9 177.3 " fill="#000000"/>
<path class="legend" d="M 168.5 181.9 Q 168.5 184.2, 167.8 186.1 Q 167.2 188.0, 165.9 190.0 L 165.0 189.4 Q 166.0 187.5, 166.5 185.8 Q 167.1 184.0, 167.1 181.9 Q 167.1 179.7, 166.5 178.0 Q 166.0 176.3, 165.0 174.4 L 165.9 173.8 Q 167.2 175.8, 167.8 177.7 Q 168.5 179.6, 168.5 181.9 " fill="#000000"/>
</g>
    <g transform="translate(320.0, 0) scale(1 1) "><line x1="5" y1="100" x2="35" y2="100" style="stroke:rgb(0,0,0);stroke-width:2"/>
  <line x1="34" y1="100" x2="29" y2="95" style="stroke:rgb(0,0,0);stroke-width:2"/>
  <line x1="34" y1="100" x2="29" y2="105" style="stroke:rgb(0,0,0);stroke-width:2"/>
</g>
    <g transform="translate(360.0, 0) scale(1 1) "><!-- END OF HEADER -->
<rect style="opacity:1.0;fill:#FFFFFF;stroke:none" width="366.0" height="200.0" x="0.0" y="0.0"> </rect>
<path class="bond-0 atom-0 atom-1" d="M 347.3,74.8 L 322.8,89.1" style="fill:none;fill-rule:evenodd;stroke:#000000;stroke-width:2.0px;stroke-linecap:butt;stroke-linejoin:miter;stroke-opacity:1"/>
<path class="bond-1 atom-1 atom-2" d="M 322.8,89.1 L 322.8,100.8" style="fill:none;fill-rule:evenodd;stroke:#000000;stroke-width:2.0px;stroke-linecap:butt;stroke-linejoin:miter;stroke-opacity:1"/>
<path class="bond-1 atom-1 atom-2" d="M 322.8,100.8 L 322.9,112.5" style="fill:none;fill-rule:evenodd;stroke:#FF0000;stroke-width:2.0px;stroke-linecap:butt;stroke-linejoin:miter;stroke-opacity:1"/>
<path class="bond-2 atom-1 atom-3" d="M 322.8,89.1 L 298.2,75.0" style="fill:none;fill-rule:evenodd;stroke:#000000;stroke-width:2.0px;stroke-linecap:butt;stroke-linejoin:miter;stroke-opacity:1"/>
<path class="bond-3 atom-3 atom-4" d="M 298.2,75.0 L 312.3,50.4" style="fill:none;fill-rule:evenodd;stroke:#000000;stroke-width:2.0px;stroke-linecap:butt;stroke-linejoin:miter;stroke-opacity:1"/>
<path class="bond-4 atom-3 atom-5" d="M 298.2,75.0 L 284.1,99.6" style="fill:none;fill-rule:evenodd;stroke:#000000;stroke-width:2.0px;stroke-linecap:butt;stroke-linejoin:miter;stroke-opacity:1"/>
<path class="bond-5 atom-5 atom-6" d="M 284.1,99.6 L 255.8,99.7" style="fill:none;fill-rule:evenodd;stroke:#000000;stroke-width:2.0px;stroke-linecap:butt;stroke-linejoin:miter;stroke-opacity:1"/>
<path class="bond-6 atom-6 atom-7" d="M 255.8,99.7 L 255.7,71.4" style="fill:none;fill-rule:evenodd;stroke:#000000;stroke-width:2.0px;stroke-linecap:butt;stroke-linejoin:miter;stroke-opacity:1"/>
<path class="bond-7 atom-7 atom-8" d="M 255.7,71.4 L 246.6,64.6" style="fill:none;fill-rule:evenodd;stroke:#000000;stroke-width:2.0px;stroke-linecap:butt;stroke-linejoin:miter;stroke-opacity:1"/>
<path class="bond-7 atom-7 atom-8" d="M 246.6,64.6 L 237.6,57.9" style="fill:none;fill-rule:evenodd;stroke:#FF0000;stroke-width:2.0px;stroke-linecap:butt;stroke-linejoin:miter;stroke-opacity:1"/>
<path class="bond-8 atom-6 atom-9" d="M 255.8,99.7 L 227.4,99.9" style="fill:none;fill-rule:evenodd;stroke:#000000;stroke-width:2.0px;stroke-linecap:butt;stroke-linejoin:miter;stroke-opacity:1"/>
<path class="bond-9 atom-9 atom-10" d="M 227.4,99.9 L 213.3,124.5" style="fill:none;fill-rule:evenodd;stroke:#000000;stroke-width:2.0px;stroke-linecap:butt;stroke-linejoin:miter;stroke-opacity:1"/>
<path class="bond-10 atom-10 atom-11" d="M 213.3,124.5 L 199.3,149.1" style="fill:none;fill-rule:evenodd;stroke:#000000;stroke-width:2.0px;stroke-linecap:butt;stroke-linejoin:miter;stroke-opacity:1"/>
<path class="bond-11 atom-10 atom-12" d="M 213.3,124.5 L 238.0,138.5" style="fill:none;fill-rule:evenodd;stroke:#000000;stroke-width:2.0px;stroke-linecap:butt;stroke-linejoin:miter;stroke-opacity:1"/>
<path class="bond-12 atom-12 atom-13" d="M 238.0,140.7 L 249.6,137.4" style="fill:none;fill-rule:evenodd;stroke:#000000;stroke-width:2.0px;stroke-linecap:butt;stroke-linejoin:miter;stroke-opacity:1"/>
<path class="bond-12 atom-12 atom-13" d="M 249.6,137.4 L 261.1,134.0" style="fill:none;fill-rule:evenodd;stroke:#FF0000;stroke-width:2.0px;stroke-linecap:butt;stroke-linejoin:miter;stroke-opacity:1"/>
<path class="bond-12 atom-12 atom-13" d="M 235.4,137.1 L 248.4,133.3" style="fill:none;fill-rule:evenodd;stroke:#000000;stroke-width:2.0px;stroke-linecap:butt;stroke-linejoin:miter;stroke-opacity:1"/>
<path class="bond-12 atom-12 atom-13" d="M 248.4,133.3 L 260.0,129.9" style="fill:none;fill-rule:evenodd;stroke:#FF0000;stroke-width:2.0px;stroke-linecap:butt;stroke-linejoin:miter;stroke-opacity:1"/>
<path class="bond-13 atom-12 atom-14" d="M 238.0,138.5 L 238.0,150.2" style="fill:none;fill-rule:evenodd;stroke:#000000;stroke-width:2.0px;stroke-linecap:butt;stroke-linejoin:miter;stroke-opacity:1"/>
<path class="bond-13 atom-12 atom-14" d="M 238.0,150.2 L 238.0,161.9" style="fill:none;fill-rule:evenodd;stroke:#FF0000;stroke-width:2.0px;stroke-linecap:butt;stroke-linejoin:miter;stroke-opacity:1"/>
<path class="bond-14 atom-10 atom-15" d="M 213.3,124.5 L 188.7,110.4" style="fill:none;fill-rule:evenodd;stroke:#000000;stroke-width:2.0px;stroke-linecap:butt;stroke-linejoin:miter;stroke-opacity:1"/>
<path class="bond-15 atom-15 atom-16" d="M 188.7,110.4 L 164.2,124.7" style="fill:none;fill-rule:evenodd;stroke:#000000;stroke-width:2.0px;stroke-linecap:butt;stroke-linejoin:miter;stroke-opacity:1"/>
<path class="bond-16 atom-16 atom-17" d="M 164.2,124.7 L 178.5,149.1" style="fill:none;fill-rule:evenodd;stroke:#000000;stroke-width:2.0px;stroke-linecap:butt;stroke-linejoin:miter;stroke-opacity:1"/>
<path class="bond-17 atom-16 atom-18" d="M 164.2,124.7 L 150.0,100.2" style="fill:none;fill-rule:evenodd;stroke:#000000;stroke-width:2.0px;stroke-linecap:butt;stroke-linejoin:miter;stroke-opacity:1"/>
<path class="bond-18 atom-18 atom-19" d="M 150.0,100.2 L 121.6,100.3" style="fill:none;fill-rule:evenodd;stroke:#000000;stroke-width:2.0px;stroke-linecap:butt;stroke-linejoin:miter;stroke-opacity:1"/>
<path class="bond-19 atom-19 atom-20" d="M 121.6,100.3 L 121.5,71.9" style="fill:none;fill-rule:evenodd;stroke:#000000;stroke-width:2.0px;stroke-linecap:butt;stroke-linejoin:miter;stroke-opacity:1"/>
<path class="bond-20 atom-20 atom-21" d="M 121.5,71.9 L 118.4,68.9" style="fill:none;fill-rule:evenodd;stroke:#000000;stroke-width:2.0px;stroke-linecap:butt;stroke-linejoin:miter;stroke-opacity:1"/>
<path class="bond-20 atom-20 atom-21" d="M 118.4,68.9 L 115.3,65.9" style="fill:none;fill-rule:evenodd;stroke:#FF0000;stroke-width:2.0px;stroke-linecap:butt;stroke-linejoin:miter;stroke-opacity:1"/>
<path class="bond-21 atom-19 atom-22" d="M 121.6,100.3 L 93.3,100.4" style="fill:none;fill-rule:evenodd;stroke:#000000;stroke-width:2.0px;stroke-linecap:butt;stroke-linejoin:miter;stroke-opacity:1"/>
<path class="bond-22 atom-22 atom-23" d="M 93.3,100.4 L 79.0,75.9" style="fill:none;fill-rule:evenodd;stroke:#000000;stroke-width:2.0px;stroke-linecap:butt;stroke-linejoin:miter;stroke-opacity:1"/>
<path class="bond-23 atom-23 atom-24" d="M 79.0,75.9 L 64.7,51.4" style="fill:none;fill-rule:evenodd;stroke:#000000;stroke-width:2.0px;stroke-linecap:butt;stroke-linejoin:miter;stroke-opacity:1"/>
<path class="bond-24 atom-23 atom-25" d="M 79.0,75.9 L 54.5,90.1" style="fill:none;fill-rule:evenodd;stroke:#000000;stroke-width:2.0px;stroke-linecap:butt;stroke-linejoin:miter;stroke-opacity:1"/>
<path class="bond-25 atom-25 atom-26" d="M 52.4,88.9 L 52.5,101.2" style="fill:none;fill-rule:evenodd;stroke:#000000;stroke-width:2.0px;stroke-linecap:butt;stroke-linejoin:miter;stroke-opacity:1"/>
<path class="bond-25 atom-25 atom-26" d="M 52.5,101.2 L 52.5,113.5" style="fill:none;fill-rule:evenodd;stroke:#FF0000;stroke-width:2.0px;stroke-linecap:butt;stroke-linejoin:miter;stroke-opacity:1"/>
<path class="bond-25 atom-25 atom-26" d="M 56.6,88.9 L 56.7,101.2" style="fill:none;fill-rule:evenodd;stroke:#000000;stroke-width:2.0px;stroke-linecap:butt;stroke-linejoin:miter;stroke-opacity:1"/>
<path class="bond-25 atom-25 atom-26" d="M 56.7,101.2 L 56.7,113.5" style="fill:none;fill-rule:evenodd;stroke:#FF0000;stroke-width:2.0px;stroke-linecap:butt;stroke-linejoin:miter;stroke-opacity:1"/>
<path class="bond-26 atom-25 atom-27" d="M 54.5,90.1 L 44.5,84.4" style="fill:none;fill-rule:evenodd;stroke:#000000;stroke-width:2.0px;stroke-linecap:butt;stroke-linejoin:miter;stroke-opacity:1"/>
<path class="bond-26 atom-25 atom-27" d="M 44.5,84.4 L 34.5,78.7" style="fill:none;fill-rule:evenodd;stroke:#FF0000;stroke-width:2.0px;stroke-linecap:butt;stroke-linejoin:miter;stroke-opacity:1"/>
<path class="bond-27 atom-23 atom-28" d="M 79.0,75.9 L 103.5,61.6" style="fill:none;fill-rule:evenodd;stroke:#000000;stroke-width:2.0px;stroke-linecap:butt;stroke-linejoin:miter;stroke-opacity:1"/>
<path class="bond-28 atom-28 atom-29" d="M 103.5,61.6 L 103.4,33.3" style="fill:none;fill-rule:evenodd;stroke:#000000;stroke-width:2.0px;stroke-linecap:butt;stroke-linejoin:miter;stroke-opacity:1"/>
<path class="bond-29 atom-28 atom-30" d="M 103.5,61.6 L 114.8,64.8" style="fill:none;fill-rule:evenodd;stroke:#000000;stroke-width:2.0px;stroke-linecap:butt;stroke-linejoin:miter;stroke-opacity:1"/>
<path class="bond-29 atom-28 atom-30" d="M 114.8,64.8 L 126.2,68.0" style="fill:none;fill-rule:evenodd;stroke:#FF0000;stroke-width:2.0px;stroke-linecap:butt;stroke-linejoin:miter;stroke-opacity:1"/>
<path class="bond-30 atom-19 atom-31" d="M 121.6,100.3 L 121.7,128.6" style="fill:none;fill-rule:evenodd;stroke:#000000;stroke-width:2.0px;stroke-linecap:butt;stroke-linejoin:miter;stroke-opacity:1"/>
<path class="bond-31 atom-31 atom-32" d="M 119.8,129.7 L 128.0,137.5" style="fill:none;fill-rule:evenodd;stroke:#000000;stroke-width:2.0px;stroke-linecap:butt;stroke-linejoin:miter;stroke-opacity:1"/>
<path class="bond-31 atom-31 atom-32" d="M 128.0,137.5 L 136.1,145.3" style="fill:none;fill-rule:evenodd;stroke:#FF0000;stroke-width:2.0px;stroke-linecap:butt;stroke-linejoin:miter;stroke-opacity:1"/>
<path class="bond-31 atom-31 atom-32" d="M 121.7,125.7 L 130.9,134.5" style="fill:none;fill-rule:evenodd;stroke:#000000;stroke-width:2.0px;stroke-linecap:butt;stroke-linejoin:miter;stroke-opacity:1"/>
<path class="bond-31 atom-31 atom-32" d="M 130.9,134.5 L 139.1,142.3" style="fill:none;fill-rule:evenodd;stroke:#FF0000;stroke-width:2.0px;stroke-linecap:butt;stroke-linejoin:miter;stroke-opacity:1"/>
<path class="bond-32 atom-31 atom-33" d="M 121.7,128.6 L 111.8,134.4" style="fill:none;fill-rule:evenodd;stroke:#000000;stroke-width:2.0px;stroke-linecap:butt;stroke-linejoin:miter;stroke-opacity:1"/>
<path class="bond-32 atom-31 atom-33" d="M 111.8,134.4 L 101.9,140.2" style="fill:none;fill-rule:evenodd;stroke:#FF0000;stroke-width:2.0px;stroke-linecap:butt;stroke-linejoin:miter;stroke-opacity:1"/>
<path class="bond-33 atom-16 atom-34" d="M 164.2,124.7 L 139.8,138.9" style="fill:none;fill-rule:evenodd;stroke:#000000;stroke-width:2.0px;stroke-linecap:butt;stroke-linejoin:miter;stroke-opacity:1"/>
<path class="bond-34 atom-34 atom-35" d="M 142.3,137.4 L 130.0,134.0" style="fill:none;fill-rule:evenodd;stroke:#000000;stroke-width:2.0px;stroke-linecap:butt;stroke-linejoin:miter;stroke-opacity:1"/>
<path class="bond-34 atom-34 atom-35" d="M 130.0,134.0 L 117.7,130.5" style="fill:none;fill-rule:evenodd;stroke:#FF0000;stroke-width:2.0px;stroke-linecap:butt;stroke-linejoin:miter;stroke-opacity:1"/>
<path class="bond-34 atom-34 atom-35" d="M 139.8,141.1 L 128.8,138.0" style="fill:none;fill-rule:evenodd;stroke:#000000;stroke-width:2.0px;stroke-linecap:butt;stroke-linejoin:miter;stroke-opacity:1"/>
<path class="bond-34 atom-34 atom-35" d="M 128.8,138.0 L 116.5,134.5" style="fill:none;fill-rule:evenodd;stroke:#FF0000;stroke-width:2.0px;stroke-linecap:butt;stroke-linejoin:miter;stroke-opacity:1"/>
<path class="bond-35 atom-34 atom-36" d="M 139.8,138.9 L 139.8,150.6" style="fill:none;fill-rule:evenodd;stroke:#000000;stroke-width:2.0px;stroke-linecap:butt;stroke-linejoin:miter;stroke-opacity:1"/>
<path class="bond-35 atom-34 atom-36" d="M 139.8,150.6 L 139.8,162.3" style="fill:none;fill-rule:evenodd;stroke:#FF0000;stroke-width:2.0px;stroke-linecap:butt;stroke-linejoin:miter;stroke-opacity:1"/>
<path class="bond-36 atom-15 atom-37" d="M 188.7,110.4 L 188.6,82.0" style="fill:none;fill-rule:evenodd;stroke:#000000;stroke-width:2.0px;stroke-linecap:butt;stroke-linejoin:miter;stroke-opacity:1"/>
<path class="bond-37 atom-37 atom-38" d="M 188.6,82.0 L 188.5,53.7" style="fill:none;fill-rule:evenodd;stroke:#000000;stroke-width:2.0px;stroke-linecap:butt;stroke-linejoin:miter;stroke-opacity:1"/>
<path class="bond-38 atom-37 atom-39" d="M 188.6,82.0 L 160.3,82.1" style="fill:none;fill-rule:evenodd;stroke:#000000;stroke-width:2.0px;stroke-linecap:butt;stroke-linejoin:miter;stroke-opacity:1"/>
<path class="bond-39 atom-39 atom-40" d="M 159.2,80.3 L 151.5,88.3" style="fill:none;fill-rule:evenodd;stroke:#000000;stroke-width:2.0px;stroke-linecap:butt;stroke-linejoin:miter;stroke-opacity:1"/>
<path class="bond-39 atom-39 atom-40" d="M 151.5,88.3 L 143.8,96.3" style="fill:none;fill-rule:evenodd;stroke:#FF0000;stroke-width:2.0px;stroke-linecap:butt;stroke-linejoin:miter;stroke-opacity:1"/>
<path class="bond-39 atom-39 atom-40" d="M 163.2,82.1 L 154.5,91.2" style="fill:none;fill-rule:evenodd;stroke:#000000;stroke-width:2.0px;stroke-linecap:butt;stroke-linejoin:miter;stroke-opacity:1"/>
<path class="bond-39 atom-39 atom-40" d="M 154.5,91.2 L 146.8,99.3" style="fill:none;fill-rule:evenodd;stroke:#FF0000;stroke-width:2.0px;stroke-linecap:butt;stroke-linejoin:miter;stroke-opacity:1"/>
<path class="bond-40 atom-39 atom-41" d="M 160.3,82.1 L 154.6,72.5" style="fill:none;fill-rule:evenodd;stroke:#000000;stroke-width:2.0px;stroke-linecap:butt;stroke-linejoin:miter;stroke-opacity:1"/>
<path class="bond-40 atom-39 atom-41" d="M 154.6,72.5 L 149.0,62.8" style="fill:none;fill-rule:evenodd;stroke:#FF0000;stroke-width:2.0px;stroke-linecap:butt;stroke-linejoin:miter;stroke-opacity:1"/>
<path class="bond-41 atom-37 atom-42" d="M 188.6,82.0 L 217.0,81.9" style="fill:none;fill-rule:evenodd;stroke:#000000;stroke-width:2.0px;stroke-linecap:butt;stroke-linejoin:miter;stroke-opacity:1"/>
<path class="bond-42 atom-42 atom-43" d="M 217.0,81.9 L 228.0,55.8" style="fill:none;fill-rule:evenodd;stroke:#000000;stroke-width:2.0px;stroke-linecap:butt;stroke-linejoin:miter;stroke-opacity:1"/>
<path class="bond-43 atom-42 atom-44" d="M 217.0,81.9 L 224.6,89.7" style="fill:none;fill-rule:evenodd;stroke:#000000;stroke-width:2.0px;stroke-linecap:butt;stroke-linejoin:miter;stroke-opacity:1"/>
<path class="bond-43 atom-42 atom-44" d="M 224.6,89.7 L 232.1,97.5" style="fill:none;fill-rule:evenodd;stroke:#FF0000;stroke-width:2.0px;stroke-linecap:butt;stroke-linejoin:miter;stroke-opacity:1"/>
<path class="bond-44 atom-6 atom-45" d="M 255.8,99.7 L 255.9,128.1" style="fill:none;fill-rule:evenodd;stroke:#000000;stroke-width:2.0px;stroke-linecap:butt;stroke-linejoin:miter;stroke-opacity:1"/>
<path class="bond-45 atom-45 atom-46" d="M 254.3,129.6 L 264.6,135.5" style="fill:none;fill-rule:evenodd;stroke:#000000;stroke-width:2.0px;stroke-linecap:butt;stroke-linejoin:miter;stroke-opacity:1"/>
<path class="bond-45 atom-45 atom-46" d="M 264.6,135.5 L 274.8,141.4" style="fill:none;fill-rule:evenodd;stroke:#FF0000;stroke-width:2.0px;stroke-linecap:butt;stroke-linejoin:miter;stroke-opacity:1"/>
<path class="bond-45 atom-45 atom-46" d="M 255.9,125.7 L 266.7,131.8" style="fill:none;fill-rule:evenodd;stroke:#000000;stroke-width:2.0px;stroke-linecap:butt;stroke-linejoin:miter;stroke-opacity:1"/>
<path class="bond-45 atom-45 atom-46" d="M 266.7,131.8 L 276.9,137.7" style="fill:none;fill-rule:evenodd;stroke:#FF0000;stroke-width:2.0px;stroke-linecap:butt;stroke-linejoin:miter;stroke-opacity:1"/>
<path class="bond-46 atom-45 atom-47" d="M 255.9,128.1 L 248.0,135.7" style="fill:none;fill-rule:evenodd;stroke:#000000;stroke-width:2.0px;stroke-linecap:butt;stroke-linejoin:miter;stroke-opacity:1"/>
<path class="bond-46 atom-45 atom-47" d="M 248.0,135.7 L 240.2,143.4" style="fill:none;fill-rule:evenodd;stroke:#FF0000;stroke-width:2.0px;stroke-linecap:butt;stroke-linejoin:miter;stroke-opacity:1"/>
<path class="bond-47 atom-3 atom-48" d="M 298.2,75.0 L 273.6,61.0" style="fill:none;fill-rule:evenodd;stroke:#000000;stroke-width:2.0px;stroke-linecap:butt;stroke-linejoin:miter;stroke-opacity:1"/>
<path class="bond-48 atom-48 atom-49" d="M 273.6,58.8 L 262.0,62.1" style="fill:none;fill-rule:evenodd;stroke:#000000;stroke-width:2.0px;stroke-linecap:butt;stroke-linejoin:miter;stroke-opacity:1"/>
<path class="bond-48 atom-48 atom-49" d="M 262.0,62.1 L 250.4,65.5" style="fill:none;fill-rule:evenodd;stroke:#FF0000;stroke-width:2.0px;stroke-linecap:butt;stroke-linejoin:miter;stroke-opacity:1"/>
<path class="bond-48 atom-48 atom-49" d="M 276.1,62.4 L 263.2,66.2" style="fill:none;fill-rule:evenodd;stroke:#000000;stroke-width:2.0px;stroke-linecap:butt;stroke-linejoin:miter;stroke-opacity:1"/>
<path class="bond-48 atom-48 atom-49" d="M 263.2,66.2 L 251.6,69.6" style="fill:none;fill-rule:evenodd;stroke:#FF0000;stroke-width:2.0px;stroke-linecap:butt;stroke-linejoin:miter;stroke-opacity:1"/>
<path class="bond-49 atom-48 atom-50" d="M 273.6,61.0 L 273.6,49.3" style="fill:none;fill-rule:evenodd;stroke:#000000;stroke-width:2.0px;stroke-linecap:butt;stroke-linejoin:miter;stroke-opacity:1"/>
<path class="bond-49 atom-48 atom-50" d="M 273.6,49.3 L 273.5,37.7" style="fill:none;fill-rule:evenodd;stroke:#FF0000;stroke-width:2.0px;stroke-linecap:butt;stroke-linejoin:miter;stroke-opacity:1"/>
<path d="M 284.8,98.4 L 284.1,99.6 L 282.7,99.6" style="fill:none;stroke:#000000;stroke-width:2.0px;stroke-linecap:butt;stroke-linejoin:miter;stroke-opacity:1;"/>
<path d="M 255.7,72.8 L 255.7,71.4 L 255.2,71.1" style="fill:none;stroke:#000000;stroke-width:2.0px;stroke-linecap:butt;stroke-linejoin:miter;stroke-opacity:1;"/>
<path d="M 228.8,99.9 L 227.4,99.9 L 226.7,101.1" style="fill:none;stroke:#000000;stroke-width:2.0px;stroke-linecap:butt;stroke-linejoin:miter;stroke-opacity:1;"/>
<path d="M 236.7,137.8 L 238.0,138.5 L 238.0,139.1" style="fill:none;stroke:#000000;stroke-width:2.0px;stroke-linecap:butt;stroke-linejoin:miter;stroke-opacity:1;"/>
<path d="M 150.7,101.4 L 150.0,100.2 L 148.6,100.2" style="fill:none;stroke:#000000;stroke-width:2.0px;stroke-linecap:butt;stroke-linejoin:miter;stroke-opacity:1;"/>
<path d="M 121.5,73.3 L 121.5,71.9 L 121.4,71.8" style="fill:none;stroke:#000000;stroke-width:2.0px;stroke-linecap:butt;stroke-linejoin:miter;stroke-opacity:1;"/>
<path d="M 94.7,100.4 L 93.3,100.4 L 92.6,99.2" style="fill:none;stroke:#000000;stroke-width:2.0px;stroke-linecap:butt;stroke-linejoin:miter;stroke-opacity:1;"/>
<path d="M 55.7,89.4 L 54.5,90.1 L 54.0,89.9" style="fill:none;stroke:#000000;stroke-width:2.0px;stroke-linecap:butt;stroke-linejoin:miter;stroke-opacity:1;"/>
<path d="M 121.7,127.2 L 121.7,128.6 L 121.2,128.9" style="fill:none;stroke:#000000;stroke-width:2.0px;stroke-linecap:butt;stroke-linejoin:miter;stroke-opacity:1;"/>
<path d="M 141.0,138.2 L 139.8,138.9 L 139.8,139.5" style="fill:none;stroke:#000000;stroke-width:2.0px;stroke-linecap:butt;stroke-linejoin:miter;stroke-opacity:1;"/>
<path d="M 161.7,82.1 L 160.3,82.1 L 160.0,81.7" style="fill:none;stroke:#000000;stroke-width:2.0px;stroke-linecap:butt;stroke-linejoin:miter;stroke-opacity:1;"/>
<path d="M 255.9,126.7 L 255.9,128.1 L 255.5,128.5" style="fill:none;stroke:#000000;stroke-width:2.0px;stroke-linecap:butt;stroke-linejoin:miter;stroke-opacity:1;"/>
<path d="M 274.8,61.7 L 273.6,61.0 L 273.6,60.4" style="fill:none;stroke:#000000;stroke-width:2.0px;stroke-linecap:butt;stroke-linejoin:miter;stroke-opacity:1;"/>
<path class="atom-2" d="M 319.2 117.5 Q 319.2 115.6, 320.2 114.5 Q 321.1 113.4, 322.9 113.4 Q 324.7 113.4, 325.6 114.5 Q 326.6 115.6, 326.6 117.5 Q 326.6 119.4, 325.6 120.5 Q 324.7 121.6, 322.9 121.6 Q 321.1 121.6, 320.2 120.5 Q 319.2 119.4, 319.2 117.5 M 322.9 120.7 Q 324.1 120.7, 324.8 119.9 Q 325.5 119.1, 325.5 117.5 Q 325.5 115.9, 324.8 115.1 Q 324.1 114.3, 322.9 114.3 Q 321.7 114.3, 321.0 115.1 Q 320.4 115.9, 320.4 117.5 Q 320.4 119.1, 321.0 119.9 Q 321.7 120.7, 322.9 120.7 " fill="#FF0000"/>
<path class="atom-2" d="M 327.8 113.5 L 328.9 113.5 L 328.9 116.9 L 333.0 116.9 L 333.0 113.5 L 334.1 113.5 L 334.1 121.5 L 333.0 121.5 L 333.0 117.8 L 328.9 117.8 L 328.9 121.5 L 327.8 121.5 L 327.8 113.5 " fill="#FF0000"/>
<path class="atom-8" d="M 221.3 50.5 L 222.4 50.5 L 222.4 53.9 L 226.5 53.9 L 226.5 50.5 L 227.6 50.5 L 227.6 58.5 L 226.5 58.5 L 226.5 54.8 L 222.4 54.8 L 222.4 58.5 L 221.3 58.5 L 221.3 50.5 " fill="#FF0000"/>
<path class="atom-8" d="M 229.3 54.4 Q 229.3 52.5, 230.2 51.4 Q 231.2 50.4, 233.0 50.4 Q 234.7 50.4, 235.7 51.4 Q 236.6 52.5, 236.6 54.4 Q 236.6 56.4, 235.7 57.5 Q 234.7 58.6, 233.0 58.6 Q 231.2 58.6, 230.2 57.5 Q 229.3 56.4, 229.3 54.4 M 233.0 57.7 Q 234.2 57.7, 234.8 56.9 Q 235.5 56.1, 235.5 54.4 Q 235.5 52.9, 234.8 52.1 Q 234.2 51.3, 233.0 51.3 Q 231.7 51.3, 231.1 52.1 Q 230.4 52.9, 230.4 54.4 Q 230.4 56.1, 231.1 56.9 Q 231.7 57.7, 233.0 57.7 " fill="#FF0000"/>
<path class="atom-13" d="M 261.5 130.6 Q 261.5 128.7, 262.4 127.6 Q 263.4 126.6, 265.2 126.6 Q 267.0 126.6, 267.9 127.6 Q 268.9 128.7, 268.9 130.6 Q 268.9 132.6, 267.9 133.7 Q 266.9 134.8, 265.2 134.8 Q 263.4 134.8, 262.4 133.7 Q 261.5 132.6, 261.5 130.6 M 265.2 133.9 Q 266.4 133.9, 267.1 133.1 Q 267.7 132.3, 267.7 130.6 Q 267.7 129.1, 267.1 128.3 Q 266.4 127.5, 265.2 127.5 Q 263.9 127.5, 263.3 128.3 Q 262.6 129.1, 262.6 130.6 Q 262.6 132.3, 263.3 133.1 Q 263.9 133.9, 265.2 133.9 " fill="#FF0000"/>
<path class="atom-14" d="M 234.4 166.9 Q 234.4 165.0, 235.3 163.9 Q 236.3 162.8, 238.1 162.8 Q 239.8 162.8, 240.8 163.9 Q 241.7 165.0, 241.7 166.9 Q 241.7 168.9, 240.8 170.0 Q 239.8 171.1, 238.1 171.1 Q 236.3 171.1, 235.3 170.0 Q 234.4 168.9, 234.4 166.9 M 238.1 170.2 Q 239.3 170.2, 239.9 169.3 Q 240.6 168.5, 240.6 166.9 Q 240.6 165.3, 239.9 164.5 Q 239.3 163.7, 238.1 163.7 Q 236.8 163.7, 236.2 164.5 Q 235.5 165.3, 235.5 166.9 Q 235.5 168.5, 236.2 169.3 Q 236.8 170.2, 238.1 170.2 " fill="#FF0000"/>
<path class="atom-14" d="M 243.0 162.9 L 244.1 162.9 L 244.1 166.3 L 248.2 166.3 L 248.2 162.9 L 249.3 162.9 L 249.3 170.9 L 248.2 170.9 L 248.2 167.2 L 244.1 167.2 L 244.1 170.9 L 243.0 170.9 L 243.0 162.9 " fill="#FF0000"/>
<path class="atom-21" d="M 99.0 57.5 L 100.1 57.5 L 100.1 60.9 L 104.2 60.9 L 104.2 57.5 L 105.3 57.5 L 105.3 65.6 L 104.2 65.6 L 104.2 61.8 L 100.1 61.8 L 100.1 65.6 L 99.0 65.6 L 99.0 57.5 " fill="#FF0000"/>
<path class="atom-21" d="M 107.0 61.5 Q 107.0 59.6, 107.9 58.5 Q 108.9 57.4, 110.6 57.4 Q 112.4 57.4, 113.4 58.5 Q 114.3 59.6, 114.3 61.5 Q 114.3 63.5, 113.4 64.6 Q 112.4 65.7, 110.6 65.7 Q 108.9 65.7, 107.9 64.6 Q 107.0 63.5, 107.0 61.5 M 110.6 64.8 Q 111.9 64.8, 112.5 64.0 Q 113.2 63.1, 113.2 61.5 Q 113.2 59.9, 112.5 59.1 Q 111.9 58.3, 110.6 58.3 Q 109.4 58.3, 108.7 59.1 Q 108.1 59.9, 108.1 61.5 Q 108.1 63.1, 108.7 64.0 Q 109.4 64.8, 110.6 64.8 " fill="#FF0000"/>
<path class="atom-26" d="M 50.9 118.5 Q 50.9 116.6, 51.9 115.5 Q 52.8 114.4, 54.6 114.4 Q 56.4 114.4, 57.4 115.5 Q 58.3 116.6, 58.3 118.5 Q 58.3 120.5, 57.3 121.6 Q 56.4 122.7, 54.6 122.7 Q 52.9 122.7, 51.9 121.6 Q 50.9 120.5, 50.9 118.5 M 54.6 121.8 Q 55.9 121.8, 56.5 121.0 Q 57.2 120.1, 57.2 118.5 Q 57.2 116.9, 56.5 116.2 Q 55.9 115.3, 54.6 115.3 Q 53.4 115.3, 52.7 116.1 Q 52.1 116.9, 52.1 118.5 Q 52.1 120.1, 52.7 121.0 Q 53.4 121.8, 54.6 121.8 " fill="#FF0000"/>
<path class="atom-27" d="M 18.3 72.1 L 19.4 72.1 L 19.4 75.5 L 23.5 75.5 L 23.5 72.1 L 24.6 72.1 L 24.6 80.1 L 23.5 80.1 L 23.5 76.4 L 19.4 76.4 L 19.4 80.1 L 18.3 80.1 L 18.3 72.1 " fill="#FF0000"/>
<path class="atom-27" d="M 26.2 76.1 Q 26.2 74.2, 27.2 73.1 Q 28.1 72.0, 29.9 72.0 Q 31.7 72.0, 32.6 73.1 Q 33.6 74.2, 33.6 76.1 Q 33.6 78.0, 32.6 79.2 Q 31.7 80.3, 29.9 80.3 Q 28.1 80.3, 27.2 79.2 Q 26.2 78.1, 26.2 76.1 M 29.9 79.3 Q 31.1 79.3, 31.8 78.5 Q 32.5 77.7, 32.5 76.1 Q 32.5 74.5, 31.8 73.7 Q 31.1 72.9, 29.9 72.9 Q 28.7 72.9, 28.0 73.7 Q 27.4 74.5, 27.4 76.1 Q 27.4 77.7, 28.0 78.5 Q 28.7 79.3, 29.9 79.3 " fill="#FF0000"/>
<path class="atom-30" d="M 127.1 69.3 Q 127.1 67.4, 128.1 66.3 Q 129.0 65.3, 130.8 65.3 Q 132.6 65.3, 133.5 66.3 Q 134.5 67.4, 134.5 69.3 Q 134.5 71.3, 133.5 72.4 Q 132.5 73.5, 130.8 73.5 Q 129.0 73.5, 128.1 72.4 Q 127.1 71.3, 127.1 69.3 M 130.8 72.6 Q 132.0 72.6, 132.7 71.8 Q 133.3 71.0, 133.3 69.3 Q 133.3 67.8, 132.7 67.0 Q 132.0 66.2, 130.8 66.2 Q 129.6 66.2, 128.9 67.0 Q 128.2 67.8, 128.2 69.3 Q 128.2 71.0, 128.9 71.8 Q 129.6 72.6, 130.8 72.6 " fill="#FF0000"/>
<path class="atom-30" d="M 135.7 65.4 L 136.8 65.4 L 136.8 68.8 L 140.9 68.8 L 140.9 65.4 L 142.0 65.4 L 142.0 73.4 L 140.9 73.4 L 140.9 69.7 L 136.8 69.7 L 136.8 73.4 L 135.7 73.4 L 135.7 65.4 " fill="#FF0000"/>
<path class="atom-32" d="M 138.5 148.3 Q 138.5 146.3, 139.5 145.2 Q 140.4 144.2, 142.2 144.2 Q 144.0 144.2, 144.9 145.2 Q 145.9 146.3, 145.9 148.3 Q 145.9 150.2, 144.9 151.3 Q 144.0 152.4, 142.2 152.4 Q 140.4 152.4, 139.5 151.3 Q 138.5 150.2, 138.5 148.3 M 142.2 151.5 Q 143.4 151.5, 144.1 150.7 Q 144.8 149.9, 144.8 148.3 Q 144.8 146.7, 144.1 145.9 Q 143.4 145.1, 142.2 145.1 Q 141.0 145.1, 140.3 145.9 Q 139.7 146.7, 139.7 148.3 Q 139.7 149.9, 140.3 150.7 Q 141.0 151.5, 142.2 151.5 " fill="#FF0000"/>
<path class="atom-33" d="M 85.6 138.9 L 86.7 138.9 L 86.7 142.3 L 90.8 142.3 L 90.8 138.9 L 91.9 138.9 L 91.9 146.9 L 90.8 146.9 L 90.8 143.2 L 86.7 143.2 L 86.7 146.9 L 85.6 146.9 L 85.6 138.9 " fill="#FF0000"/>
<path class="atom-33" d="M 93.6 142.9 Q 93.6 141.0, 94.5 139.9 Q 95.5 138.8, 97.2 138.8 Q 99.0 138.8, 100.0 139.9 Q 100.9 141.0, 100.9 142.9 Q 100.9 144.9, 100.0 146.0 Q 99.0 147.1, 97.2 147.1 Q 95.5 147.1, 94.5 146.0 Q 93.6 144.9, 93.6 142.9 M 97.2 146.2 Q 98.5 146.2, 99.1 145.3 Q 99.8 144.5, 99.8 142.9 Q 99.8 141.3, 99.1 140.5 Q 98.5 139.7, 97.2 139.7 Q 96.0 139.7, 95.4 140.5 Q 94.7 141.3, 94.7 142.9 Q 94.7 144.5, 95.4 145.3 Q 96.0 146.2, 97.2 146.2 " fill="#FF0000"/>
<path class="atom-35" d="M 108.8 131.2 Q 108.8 129.3, 109.7 128.2 Q 110.7 127.2, 112.5 127.2 Q 114.3 127.2, 115.2 128.2 Q 116.2 129.3, 116.2 131.2 Q 116.2 133.2, 115.2 134.3 Q 114.2 135.4, 112.5 135.4 Q 110.7 135.4, 109.7 134.3 Q 108.8 133.2, 108.8 131.2 M 112.5 134.5 Q 113.7 134.5, 114.4 133.7 Q 115.0 132.8, 115.0 131.2 Q 115.0 129.7, 114.4 128.9 Q 113.7 128.1, 112.5 128.1 Q 111.2 128.1, 110.6 128.9 Q 109.9 129.6, 109.9 131.2 Q 109.9 132.9, 110.6 133.7 Q 111.2 134.5, 112.5 134.5 " fill="#FF0000"/>
<path class="atom-36" d="M 136.2 167.3 Q 136.2 165.4, 137.1 164.3 Q 138.1 163.2, 139.9 163.2 Q 141.6 163.2, 142.6 164.3 Q 143.5 165.4, 143.5 167.3 Q 143.5 169.2, 142.6 170.4 Q 141.6 171.5, 139.9 171.5 Q 138.1 171.5, 137.1 170.4 Q 136.2 169.3, 136.2 167.3 M 139.9 170.5 Q 141.1 170.5, 141.7 169.7 Q 142.4 168.9, 142.4 167.3 Q 142.4 165.7, 141.7 164.9 Q 141.1 164.1, 139.9 164.1 Q 138.6 164.1, 138.0 164.9 Q 137.3 165.7, 137.3 167.3 Q 137.3 168.9, 138.0 169.7 Q 138.6 170.5, 139.9 170.5 " fill="#FF0000"/>
<path class="atom-36" d="M 144.8 163.3 L 145.9 163.3 L 145.9 166.7 L 150.0 166.7 L 150.0 163.3 L 151.1 163.3 L 151.1 171.3 L 150.0 171.3 L 150.0 167.6 L 145.9 167.6 L 145.9 171.3 L 144.8 171.3 L 144.8 163.3 " fill="#FF0000"/>
<path class="atom-40" d="M 137.0 102.6 Q 137.0 100.7, 137.9 99.6 Q 138.9 98.6, 140.7 98.6 Q 142.5 98.6, 143.4 99.6 Q 144.4 100.7, 144.4 102.6 Q 144.4 104.6, 143.4 105.7 Q 142.4 106.8, 140.7 106.8 Q 138.9 106.8, 137.9 105.7 Q 137.0 104.6, 137.0 102.6 M 140.7 105.9 Q 141.9 105.9, 142.6 105.1 Q 143.2 104.2, 143.2 102.6 Q 143.2 101.1, 142.6 100.3 Q 141.9 99.5, 140.7 99.5 Q 139.4 99.5, 138.8 100.3 Q 138.1 101.0, 138.1 102.6 Q 138.1 104.3, 138.8 105.1 Q 139.4 105.9, 140.7 105.9 " fill="#FF0000"/>
<path class="atom-41" d="M 134.4 53.7 L 135.5 53.7 L 135.5 57.1 L 139.6 57.1 L 139.6 53.7 L 140.7 53.7 L 140.7 61.7 L 139.6 61.7 L 139.6 58.0 L 135.5 58.0 L 135.5 61.7 L 134.4 61.7 L 134.4 53.7 " fill="#FF0000"/>
<path class="atom-41" d="M 142.3 57.7 Q 142.3 55.7, 143.3 54.7 Q 144.2 53.6, 146.0 53.6 Q 147.8 53.6, 148.7 54.7 Q 149.7 55.7, 149.7 57.7 Q 149.7 59.6, 148.7 60.7 Q 147.8 61.8, 146.0 61.8 Q 144.2 61.8, 143.3 60.7 Q 142.3 59.6, 142.3 57.7 M 146.0 60.9 Q 147.2 60.9, 147.9 60.1 Q 148.6 59.3, 148.6 57.7 Q 148.6 56.1, 147.9 55.3 Q 147.2 54.5, 146.0 54.5 Q 144.8 54.5, 144.1 55.3 Q 143.5 56.1, 143.5 57.7 Q 143.5 59.3, 144.1 60.1 Q 144.8 60.9, 146.0 60.9 " fill="#FF0000"/>
<path class="atom-44" d="M 233.1 102.3 Q 233.1 100.3, 234.0 99.3 Q 235.0 98.2, 236.8 98.2 Q 238.5 98.2, 239.5 99.3 Q 240.4 100.3, 240.4 102.3 Q 240.4 104.2, 239.5 105.3 Q 238.5 106.4, 236.8 106.4 Q 235.0 106.4, 234.0 105.3 Q 233.1 104.2, 233.1 102.3 M 236.8 105.5 Q 238.0 105.5, 238.6 104.7 Q 239.3 103.9, 239.3 102.3 Q 239.3 100.7, 238.6 99.9 Q 238.0 99.1, 236.8 99.1 Q 235.5 99.1, 234.9 99.9 Q 234.2 100.7, 234.2 102.3 Q 234.2 103.9, 234.9 104.7 Q 235.5 105.5, 236.8 105.5 " fill="#FF0000"/>
<path class="atom-44" d="M 241.7 98.3 L 242.8 98.3 L 242.8 101.7 L 246.9 101.7 L 246.9 98.3 L 248.0 98.3 L 248.0 106.3 L 246.9 106.3 L 246.9 102.6 L 242.8 102.6 L 242.8 106.3 L 241.7 106.3 L 241.7 98.3 " fill="#FF0000"/>
<path class="atom-46" d="M 276.8 142.2 Q 276.8 140.3, 277.8 139.2 Q 278.7 138.1, 280.5 138.1 Q 282.3 138.1, 283.2 139.2 Q 284.2 140.3, 284.2 142.2 Q 284.2 144.1, 283.2 145.3 Q 282.2 146.4, 280.5 146.4 Q 278.7 146.4, 277.8 145.3 Q 276.8 144.2, 276.8 142.2 M 280.5 145.5 Q 281.7 145.5, 282.4 144.6 Q 283.0 143.8, 283.0 142.2 Q 283.0 140.6, 282.4 139.8 Q 281.7 139.0, 280.5 139.0 Q 279.3 139.0, 278.6 139.8 Q 277.9 140.6, 277.9 142.2 Q 277.9 143.8, 278.6 144.6 Q 279.3 145.5, 280.5 145.5 " fill="#FF0000"/>
<path class="atom-47" d="M 224.0 143.9 L 225.0 143.9 L 225.0 147.3 L 229.1 147.3 L 229.1 143.9 L 230.2 143.9 L 230.2 151.9 L 229.1 151.9 L 229.1 148.2 L 225.0 148.2 L 225.0 151.9 L 224.0 151.9 L 224.0 143.9 " fill="#FF0000"/>
<path class="atom-47" d="M 231.9 147.9 Q 231.9 146.0, 232.8 144.9 Q 233.8 143.8, 235.6 143.8 Q 237.3 143.8, 238.3 144.9 Q 239.3 146.0, 239.3 147.9 Q 239.3 149.8, 238.3 151.0 Q 237.3 152.1, 235.6 152.1 Q 233.8 152.1, 232.8 151.0 Q 231.9 149.9, 231.9 147.9 M 235.6 151.1 Q 236.8 151.1, 237.5 150.3 Q 238.1 149.5, 238.1 147.9 Q 238.1 146.3, 237.5 145.5 Q 236.8 144.7, 235.6 144.7 Q 234.3 144.7, 233.7 145.5 Q 233.0 146.3, 233.0 147.9 Q 233.0 149.5, 233.7 150.3 Q 234.3 151.1, 235.6 151.1 " fill="#FF0000"/>
<path class="atom-49" d="M 242.7 68.9 Q 242.7 67.0, 243.6 65.9 Q 244.6 64.8, 246.4 64.8 Q 248.2 64.8, 249.1 65.9 Q 250.1 67.0, 250.1 68.9 Q 250.1 70.8, 249.1 72.0 Q 248.1 73.1, 246.4 73.1 Q 244.6 73.1, 243.6 72.0 Q 242.7 70.9, 242.7 68.9 M 246.4 72.1 Q 247.6 72.1, 248.3 71.3 Q 248.9 70.5, 248.9 68.9 Q 248.9 67.3, 248.3 66.5 Q 247.6 65.7, 246.4 65.7 Q 245.2 65.7, 244.5 66.5 Q 243.8 67.3, 243.8 68.9 Q 243.8 70.5, 244.5 71.3 Q 245.2 72.1, 246.4 72.1 " fill="#FF0000"/>
<path class="atom-50" d="M 269.8 32.6 Q 269.8 30.7, 270.8 29.6 Q 271.7 28.5, 273.5 28.5 Q 275.3 28.5, 276.2 29.6 Q 277.2 30.7, 277.2 32.6 Q 277.2 34.6, 276.2 35.7 Q 275.2 36.8, 273.5 36.8 Q 271.7 36.8, 270.8 35.7 Q 269.8 34.6, 269.8 32.6 M 273.5 35.9 Q 274.7 35.9, 275.4 35.1 Q 276.0 34.2, 276.0 32.6 Q 276.0 31.1, 275.4 30.3 Q 274.7 29.5, 273.5 29.5 Q 272.3 29.5, 271.6 30.2 Q 270.9 31.0, 270.9 32.6 Q 270.9 34.3, 271.6 35.1 Q 272.3 35.9, 273.5 35.9 " fill="#FF0000"/>
<path class="atom-50" d="M 278.4 28.6 L 279.5 28.6 L 279.5 32.1 L 283.6 32.1 L 283.6 28.6 L 284.7 28.6 L 284.7 36.7 L 283.6 36.7 L 283.6 33.0 L 279.5 33.0 L 279.5 36.7 L 278.4 36.7 L 278.4 28.6 " fill="#FF0000"/>
</g>
    <g transform="translate(726.0, 0) scale(1 1) "><line x1="15" y1="100" x2="25" y2="100" style="stroke:rgb(0,0,0);stroke-width:2"/>
  <line x1="20" y1="95" x2="20" y2="105" style="stroke:rgb(0,0,0);stroke-width:2"/>
</g>
    <g transform="translate(766.0, 0) scale(1 1) "><!-- END OF HEADER -->
<rect style="opacity:1.0;fill:#FFFFFF;stroke:none" width="215.0" height="200.0" x="0.0" y="0.0"> </rect>
<path class="bond-0 atom-0 atom-1" d="M 183.7,56.0 L 158.3,99.9" style="fill:none;fill-rule:evenodd;stroke:#000000;stroke-width:2.0px;stroke-linecap:butt;stroke-linejoin:miter;stroke-opacity:1"/>
<path class="bond-1 atom-1 atom-2" d="M 158.3,99.9 L 168.4,117.4" style="fill:none;fill-rule:evenodd;stroke:#000000;stroke-width:2.0px;stroke-linecap:butt;stroke-linejoin:miter;stroke-opacity:1"/>
<path class="bond-1 atom-1 atom-2" d="M 168.4,117.4 L 178.5,134.9" style="fill:none;fill-rule:evenodd;stroke:#FF0000;stroke-width:2.0px;stroke-linecap:butt;stroke-linejoin:miter;stroke-opacity:1"/>
<path class="bond-2 atom-1 atom-3" d="M 158.3,99.9 L 107.6,99.9" style="fill:none;fill-rule:evenodd;stroke:#000000;stroke-width:2.0px;stroke-linecap:butt;stroke-linejoin:miter;stroke-opacity:1"/>
<path class="bond-3 atom-3 atom-4" d="M 107.6,99.9 L 107.6,49.2" style="fill:none;fill-rule:evenodd;stroke:#000000;stroke-width:2.0px;stroke-linecap:butt;stroke-linejoin:miter;stroke-opacity:1"/>
<path class="bond-4 atom-3 atom-5" d="M 107.6,99.9 L 107.6,150.6" style="fill:none;fill-rule:evenodd;stroke:#000000;stroke-width:2.0px;stroke-linecap:butt;stroke-linejoin:miter;stroke-opacity:1"/>
<path class="bond-5 atom-3 atom-6" d="M 107.6,99.9 L 56.9,99.9" style="fill:none;fill-rule:evenodd;stroke:#000000;stroke-width:2.0px;stroke-linecap:butt;stroke-linejoin:miter;stroke-opacity:1"/>
<path class="bond-6 atom-6 atom-7" d="M 54.7,96.1 L 44.0,114.5" style="fill:none;fill-rule:evenodd;stroke:#000000;stroke-width:2.0px;stroke-linecap:butt;stroke-linejoin:miter;stroke-opacity:1"/>
<path class="bond-6 atom-6 atom-7" d="M 44.0,114.5 L 33.4,133.0" style="fill:none;fill-rule:evenodd;stroke:#FF0000;stroke-width:2.0px;stroke-linecap:butt;stroke-linejoin:miter;stroke-opacity:1"/>
<path class="bond-6 atom-6 atom-7" d="M 61.3,99.9 L 50.6,118.3" style="fill:none;fill-rule:evenodd;stroke:#000000;stroke-width:2.0px;stroke-linecap:butt;stroke-linejoin:miter;stroke-opacity:1"/>
<path class="bond-6 atom-6 atom-7" d="M 50.6,118.3 L 40.0,136.8" style="fill:none;fill-rule:evenodd;stroke:#FF0000;stroke-width:2.0px;stroke-linecap:butt;stroke-linejoin:miter;stroke-opacity:1"/>
<path class="bond-7 atom-6 atom-8" d="M 56.9,99.9 L 46.9,82.5" style="fill:none;fill-rule:evenodd;stroke:#000000;stroke-width:2.0px;stroke-linecap:butt;stroke-linejoin:miter;stroke-opacity:1"/>
<path class="bond-7 atom-6 atom-8" d="M 46.9,82.5 L 36.8,65.1" style="fill:none;fill-rule:evenodd;stroke:#FF0000;stroke-width:2.0px;stroke-linecap:butt;stroke-linejoin:miter;stroke-opacity:1"/>
<path d="M 59.4,99.9 L 56.9,99.9 L 56.4,99.0" style="fill:none;stroke:#000000;stroke-width:2.0px;stroke-linecap:butt;stroke-linejoin:miter;stroke-opacity:1;"/>
<path class="atom-2" d="M 177.1 143.9 Q 177.1 140.4, 178.8 138.5 Q 180.5 136.5, 183.7 136.5 Q 186.9 136.5, 188.6 138.5 Q 190.3 140.4, 190.3 143.9 Q 190.3 147.3, 188.6 149.3 Q 186.8 151.3, 183.7 151.3 Q 180.5 151.3, 178.8 149.3 Q 177.1 147.4, 177.1 143.9 M 183.7 149.7 Q 185.9 149.7, 187.0 148.2 Q 188.2 146.7, 188.2 143.9 Q 188.2 141.0, 187.0 139.6 Q 185.9 138.2, 183.7 138.2 Q 181.5 138.2, 180.3 139.6 Q 179.1 141.0, 179.1 143.9 Q 179.1 146.8, 180.3 148.2 Q 181.5 149.7, 183.7 149.7 " fill="#FF0000"/>
<path class="atom-2" d="M 192.5 136.7 L 194.5 136.7 L 194.5 142.8 L 201.8 142.8 L 201.8 136.7 L 203.7 136.7 L 203.7 151.1 L 201.8 151.1 L 201.8 144.4 L 194.5 144.4 L 194.5 151.1 L 192.5 151.1 L 192.5 136.7 " fill="#FF0000"/>
<path class="atom-7" d="M 24.9 143.9 Q 24.9 140.4, 26.6 138.5 Q 28.3 136.5, 31.5 136.5 Q 34.7 136.5, 36.4 138.5 Q 38.1 140.4, 38.1 143.9 Q 38.1 147.3, 36.4 149.3 Q 34.7 151.3, 31.5 151.3 Q 28.4 151.3, 26.6 149.3 Q 24.9 147.4, 24.9 143.9 M 31.5 149.7 Q 33.7 149.7, 34.9 148.2 Q 36.1 146.7, 36.1 143.9 Q 36.1 141.0, 34.9 139.6 Q 33.7 138.2, 31.5 138.2 Q 29.3 138.2, 28.1 139.6 Q 27.0 141.0, 27.0 143.9 Q 27.0 146.8, 28.1 148.2 Q 29.3 149.7, 31.5 149.7 " fill="#FF0000"/>
<path class="atom-8" d="M 10.7 48.9 L 12.7 48.9 L 12.7 55.0 L 20.0 55.0 L 20.0 48.9 L 22.0 48.9 L 22.0 63.2 L 20.0 63.2 L 20.0 56.6 L 12.7 56.6 L 12.7 63.2 L 10.7 63.2 L 10.7 48.9 " fill="#FF0000"/>
<path class="atom-8" d="M 24.9 56.0 Q 24.9 52.6, 26.6 50.6 Q 28.3 48.7, 31.5 48.7 Q 34.7 48.7, 36.4 50.6 Q 38.1 52.6, 38.1 56.0 Q 38.1 59.5, 36.4 61.5 Q 34.7 63.5, 31.5 63.5 Q 28.4 63.5, 26.6 61.5 Q 24.9 59.5, 24.9 56.0 M 31.5 61.8 Q 33.7 61.8, 34.9 60.4 Q 36.1 58.9, 36.1 56.0 Q 36.1 53.2, 34.9 51.8 Q 33.7 50.3, 31.5 50.3 Q 29.3 50.3, 28.1 51.7 Q 27.0 53.2, 27.0 56.0 Q 27.0 58.9, 28.1 60.4 Q 29.3 61.8, 31.5 61.8 " fill="#FF0000"/>
</g>
  </g>
</svg>
