<?xml version='1.0' encoding='ASCII' standalone='yes'?>
<svg xmlns="http://www.w3.org/2000/svg" xmlns:xlink="http://www.w3.org/1999/xlink" version="1.1" width="953.0px" viewBox="0 0 953.0 200.0" height="200.0px">
  <g>
    <g transform="translate(0, 0) scale(1 1) "><!-- END OF HEADER -->
<rect style="opacity:1.0;fill:#FFFFFF;stroke:none" width="307.0" height="200.0" x="0.0" y="0.0"> </rect>
<path class="bond-0 atom-0 atom-1" d="M 261.9,57.4 L 232.2,64.0" style="fill:none;fill-rule:evenodd;stroke:#000000;stroke-width:2.0px;stroke-linecap:butt;stroke-linejoin:miter;stroke-opacity:1"/>
<path class="bond-1 atom-1 atom-2" d="M 232.2,64.0 L 224.3,55.5" style="fill:none;fill-rule:evenodd;stroke:#000000;stroke-width:2.0px;stroke-linecap:butt;stroke-linejoin:miter;stroke-opacity:1"/>
<path class="bond-1 atom-1 atom-2" d="M 224.3,55.5 L 216.5,47.0" style="fill:none;fill-rule:evenodd;stroke:#FF0000;stroke-width:2.0px;stroke-linecap:butt;stroke-linejoin:miter;stroke-opacity:1"/>
<path class="bond-2 atom-1 atom-3" d="M 232.2,64.0 L 223.1,93.1" style="fill:none;fill-rule:evenodd;stroke:#000000;stroke-width:2.0px;stroke-linecap:butt;stroke-linejoin:miter;stroke-opacity:1"/>
<path class="bond-3 atom-3 atom-4" d="M 223.1,93.1 L 252.1,102.2" style="fill:none;fill-rule:evenodd;stroke:#000000;stroke-width:2.0px;stroke-linecap:butt;stroke-linejoin:miter;stroke-opacity:1"/>
<path class="bond-4 atom-3 atom-5" d="M 223.1,93.1 L 194.1,84.0" style="fill:none;fill-rule:evenodd;stroke:#000000;stroke-width:2.0px;stroke-linecap:butt;stroke-linejoin:miter;stroke-opacity:1"/>
<path class="bond-5 atom-5 atom-6" d="M 194.1,84.0 L 171.7,104.6" style="fill:none;fill-rule:evenodd;stroke:#000000;stroke-width:2.0px;stroke-linecap:butt;stroke-linejoin:miter;stroke-opacity:1"/>
<path class="bond-6 atom-6 atom-7" d="M 171.7,104.6 L 182.1,119.2" style="fill:none;fill-rule:evenodd;stroke:#000000;stroke-width:2.0px;stroke-linecap:butt;stroke-linejoin:miter;stroke-opacity:1"/>
<path class="bond-7 atom-6 atom-8" d="M 171.7,104.6 L 151.1,82.2" style="fill:none;fill-rule:evenodd;stroke:#000000;stroke-width:2.0px;stroke-linecap:butt;stroke-linejoin:miter;stroke-opacity:1"/>
<path class="bond-8 atom-6 atom-9" d="M 171.7,104.6 L 149.3,125.2" style="fill:none;fill-rule:evenodd;stroke:#000000;stroke-width:2.0px;stroke-linecap:butt;stroke-linejoin:miter;stroke-opacity:1"/>
<path class="bond-9 atom-9 atom-10" d="M 149.3,125.2 L 120.2,116.1" style="fill:none;fill-rule:evenodd;stroke:#000000;stroke-width:2.0px;stroke-linecap:butt;stroke-linejoin:miter;stroke-opacity:1"/>
<path class="bond-10 atom-10 atom-11" d="M 120.2,116.1 L 91.2,107.0" style="fill:none;fill-rule:evenodd;stroke:#000000;stroke-width:2.0px;stroke-linecap:butt;stroke-linejoin:miter;stroke-opacity:1"/>
<path class="bond-11 atom-10 atom-12" d="M 120.2,116.1 L 129.3,87.0" style="fill:none;fill-rule:evenodd;stroke:#000000;stroke-width:2.0px;stroke-linecap:butt;stroke-linejoin:miter;stroke-opacity:1"/>
<path class="bond-12 atom-12 atom-13" d="M 129.3,87.0 L 108.7,64.7" style="fill:none;fill-rule:evenodd;stroke:#000000;stroke-width:2.0px;stroke-linecap:butt;stroke-linejoin:miter;stroke-opacity:1"/>
<path class="bond-13 atom-13 atom-14" d="M 108.7,64.7 L 88.1,42.3" style="fill:none;fill-rule:evenodd;stroke:#000000;stroke-width:2.0px;stroke-linecap:butt;stroke-linejoin:miter;stroke-opacity:1"/>
<path class="bond-14 atom-13 atom-15" d="M 108.7,64.7 L 86.3,85.3" style="fill:none;fill-rule:evenodd;stroke:#000000;stroke-width:2.0px;stroke-linecap:butt;stroke-linejoin:miter;stroke-opacity:1"/>
<path class="bond-15 atom-15 atom-16" d="M 86.3,85.3 L 74.3,81.5" style="fill:none;fill-rule:evenodd;stroke:#000000;stroke-width:2.0px;stroke-linecap:butt;stroke-linejoin:miter;stroke-opacity:1"/>
<path class="bond-15 atom-15 atom-16" d="M 74.3,81.5 L 62.2,77.7" style="fill:none;fill-rule:evenodd;stroke:#FF0000;stroke-width:2.0px;stroke-linecap:butt;stroke-linejoin:miter;stroke-opacity:1"/>
<path class="bond-16 atom-13 atom-17" d="M 108.7,64.7 L 131.1,44.0" style="fill:none;fill-rule:evenodd;stroke:#000000;stroke-width:2.0px;stroke-linecap:butt;stroke-linejoin:miter;stroke-opacity:1"/>
<path class="bond-17 atom-17 atom-18" d="M 129.2,45.8 L 141.9,49.7" style="fill:none;fill-rule:evenodd;stroke:#000000;stroke-width:2.0px;stroke-linecap:butt;stroke-linejoin:miter;stroke-opacity:1"/>
<path class="bond-17 atom-17 atom-18" d="M 141.9,49.7 L 154.6,53.7" style="fill:none;fill-rule:evenodd;stroke:#FF0000;stroke-width:2.0px;stroke-linecap:butt;stroke-linejoin:miter;stroke-opacity:1"/>
<path class="bond-17 atom-17 atom-18" d="M 130.6,41.6 L 143.2,45.5" style="fill:none;fill-rule:evenodd;stroke:#000000;stroke-width:2.0px;stroke-linecap:butt;stroke-linejoin:miter;stroke-opacity:1"/>
<path class="bond-17 atom-17 atom-18" d="M 143.2,45.5 L 155.9,49.5" style="fill:none;fill-rule:evenodd;stroke:#FF0000;stroke-width:2.0px;stroke-linecap:butt;stroke-linejoin:miter;stroke-opacity:1"/>
<path class="bond-18 atom-17 atom-19" d="M 131.1,44.0 L 128.4,31.9" style="fill:none;fill-rule:evenodd;stroke:#000000;stroke-width:2.0px;stroke-linecap:butt;stroke-linejoin:miter;stroke-opacity:1"/>
<path class="bond-18 atom-17 atom-19" d="M 128.4,31.9 L 125.7,19.8" style="fill:none;fill-rule:evenodd;stroke:#FF0000;stroke-width:2.0px;stroke-linecap:butt;stroke-linejoin:miter;stroke-opacity:1"/>
<path class="bond-19 atom-10 atom-20" d="M 120.2,116.1 L 111.1,145.1" style="fill:none;fill-rule:evenodd;stroke:#000000;stroke-width:2.0px;stroke-linecap:butt;stroke-linejoin:miter;stroke-opacity:1"/>
<path class="bond-20 atom-20 atom-21" d="M 108.6,145.7 L 116.9,154.7" style="fill:none;fill-rule:evenodd;stroke:#000000;stroke-width:2.0px;stroke-linecap:butt;stroke-linejoin:miter;stroke-opacity:1"/>
<path class="bond-20 atom-20 atom-21" d="M 116.9,154.7 L 125.2,163.7" style="fill:none;fill-rule:evenodd;stroke:#FF0000;stroke-width:2.0px;stroke-linecap:butt;stroke-linejoin:miter;stroke-opacity:1"/>
<path class="bond-20 atom-20 atom-21" d="M 111.9,142.7 L 120.2,151.7" style="fill:none;fill-rule:evenodd;stroke:#000000;stroke-width:2.0px;stroke-linecap:butt;stroke-linejoin:miter;stroke-opacity:1"/>
<path class="bond-20 atom-20 atom-21" d="M 120.2,151.7 L 128.5,160.7" style="fill:none;fill-rule:evenodd;stroke:#FF0000;stroke-width:2.0px;stroke-linecap:butt;stroke-linejoin:miter;stroke-opacity:1"/>
<path class="bond-21 atom-20 atom-22" d="M 111.1,145.1 L 98.8,147.9" style="fill:none;fill-rule:evenodd;stroke:#000000;stroke-width:2.0px;stroke-linecap:butt;stroke-linejoin:miter;stroke-opacity:1"/>
<path class="bond-21 atom-20 atom-22" d="M 98.8,147.9 L 86.4,150.7" style="fill:none;fill-rule:evenodd;stroke:#FF0000;stroke-width:2.0px;stroke-linecap:butt;stroke-linejoin:miter;stroke-opacity:1"/>
<path class="bond-22 atom-3 atom-23" d="M 223.1,93.1 L 214.0,122.1" style="fill:none;fill-rule:evenodd;stroke:#000000;stroke-width:2.0px;stroke-linecap:butt;stroke-linejoin:miter;stroke-opacity:1"/>
<path class="bond-23 atom-23 atom-24" d="M 214.8,119.5 L 208.0,121.9" style="fill:none;fill-rule:evenodd;stroke:#000000;stroke-width:2.0px;stroke-linecap:butt;stroke-linejoin:miter;stroke-opacity:1"/>
<path class="bond-23 atom-23 atom-24" d="M 208.0,121.9 L 201.3,124.3" style="fill:none;fill-rule:evenodd;stroke:#FF0000;stroke-width:2.0px;stroke-linecap:butt;stroke-linejoin:miter;stroke-opacity:1"/>
<path class="bond-23 atom-23 atom-24" d="M 215.6,123.9 L 209.5,126.0" style="fill:none;fill-rule:evenodd;stroke:#000000;stroke-width:2.0px;stroke-linecap:butt;stroke-linejoin:miter;stroke-opacity:1"/>
<path class="bond-23 atom-23 atom-24" d="M 209.5,126.0 L 202.7,128.5" style="fill:none;fill-rule:evenodd;stroke:#FF0000;stroke-width:2.0px;stroke-linecap:butt;stroke-linejoin:miter;stroke-opacity:1"/>
<path class="bond-24 atom-23 atom-25" d="M 214.0,122.1 L 221.8,130.6" style="fill:none;fill-rule:evenodd;stroke:#000000;stroke-width:2.0px;stroke-linecap:butt;stroke-linejoin:miter;stroke-opacity:1"/>
<path class="bond-24 atom-23 atom-25" d="M 221.8,130.6 L 229.7,139.2" style="fill:none;fill-rule:evenodd;stroke:#FF0000;stroke-width:2.0px;stroke-linecap:butt;stroke-linejoin:miter;stroke-opacity:1"/>
<path d="M 195.5,84.4 L 194.1,84.0 L 192.9,85.0" style="fill:none;stroke:#000000;stroke-width:2.0px;stroke-linecap:butt;stroke-linejoin:miter;stroke-opacity:1;"/>
<path d="M 150.4,124.1 L 149.3,125.2 L 147.8,124.7" style="fill:none;stroke:#000000;stroke-width:2.0px;stroke-linecap:butt;stroke-linejoin:miter;stroke-opacity:1;"/>
<path d="M 128.9,88.5 L 129.3,87.0 L 128.3,85.9" style="fill:none;stroke:#000000;stroke-width:2.0px;stroke-linecap:butt;stroke-linejoin:miter;stroke-opacity:1;"/>
<path d="M 87.4,84.2 L 86.3,85.3 L 85.7,85.1" style="fill:none;stroke:#000000;stroke-width:2.0px;stroke-linecap:butt;stroke-linejoin:miter;stroke-opacity:1;"/>
<path d="M 130.0,45.1 L 131.1,44.0 L 131.0,43.4" style="fill:none;stroke:#000000;stroke-width:2.0px;stroke-linecap:butt;stroke-linejoin:miter;stroke-opacity:1;"/>
<path d="M 111.6,143.7 L 111.1,145.1 L 110.5,145.3" style="fill:none;stroke:#000000;stroke-width:2.0px;stroke-linecap:butt;stroke-linejoin:miter;stroke-opacity:1;"/>
<path d="M 214.5,120.6 L 214.0,122.1 L 214.4,122.5" style="fill:none;stroke:#000000;stroke-width:2.0px;stroke-linecap:butt;stroke-linejoin:miter;stroke-opacity:1;"/>
<path class="atom-2" d="M 199.1 37.4 L 200.3 37.4 L 200.3 41.0 L 204.7 41.0 L 204.7 37.4 L 205.9 37.4 L 205.9 46.0 L 204.7 46.0 L 204.7 42.0 L 200.3 42.0 L 200.3 46.0 L 199.1 46.0 L 199.1 37.4 " fill="#FF0000"/>
<path class="atom-2" d="M 207.6 41.7 Q 207.6 39.6, 208.6 38.4 Q 209.7 37.3, 211.6 37.3 Q 213.5 37.3, 214.5 38.4 Q 215.5 39.6, 215.5 41.7 Q 215.5 43.8, 214.5 44.9 Q 213.5 46.1, 211.6 46.1 Q 209.7 46.1, 208.6 44.9 Q 207.6 43.8, 207.6 41.7 M 211.6 45.2 Q 212.9 45.2, 213.6 44.3 Q 214.3 43.4, 214.3 41.7 Q 214.3 40.0, 213.6 39.1 Q 212.9 38.3, 211.6 38.3 Q 210.3 38.3, 209.5 39.1 Q 208.8 40.0, 208.8 41.7 Q 208.8 43.4, 209.5 44.3 Q 210.3 45.2, 211.6 45.2 " fill="#FF0000"/>
<path class="atom-16" d="M 44.8 71.9 L 46.0 71.9 L 46.0 75.6 L 50.4 75.6 L 50.4 71.9 L 51.6 71.9 L 51.6 80.5 L 50.4 80.5 L 50.4 76.5 L 46.0 76.5 L 46.0 80.5 L 44.8 80.5 L 44.8 71.9 " fill="#FF0000"/>
<path class="atom-16" d="M 53.3 76.2 Q 53.3 74.1, 54.4 73.0 Q 55.4 71.8, 57.3 71.8 Q 59.2 71.8, 60.2 73.0 Q 61.2 74.1, 61.2 76.2 Q 61.2 78.3, 60.2 79.5 Q 59.2 80.6, 57.3 80.6 Q 55.4 80.6, 54.4 79.5 Q 53.3 78.3, 53.3 76.2 M 57.3 79.7 Q 58.6 79.7, 59.3 78.8 Q 60.0 77.9, 60.0 76.2 Q 60.0 74.5, 59.3 73.6 Q 58.6 72.8, 57.3 72.8 Q 56.0 72.8, 55.3 73.6 Q 54.6 74.5, 54.6 76.2 Q 54.6 77.9, 55.3 78.8 Q 56.0 79.7, 57.3 79.7 " fill="#FF0000"/>
<path class="atom-18" d="M 156.2 53.2 Q 156.2 51.1, 157.2 49.9 Q 158.2 48.8, 160.2 48.8 Q 162.1 48.8, 163.1 49.9 Q 164.1 51.1, 164.1 53.2 Q 164.1 55.3, 163.1 56.5 Q 162.0 57.6, 160.2 57.6 Q 158.3 57.6, 157.2 56.5 Q 156.2 55.3, 156.2 53.2 M 160.2 56.7 Q 161.5 56.7, 162.2 55.8 Q 162.9 54.9, 162.9 53.2 Q 162.9 51.5, 162.2 50.6 Q 161.5 49.8, 160.2 49.8 Q 158.8 49.8, 158.1 50.6 Q 157.4 51.5, 157.4 53.2 Q 157.4 54.9, 158.1 55.8 Q 158.8 56.7, 160.2 56.7 " fill="#FF0000"/>
<path class="atom-19" d="M 120.5 14.4 Q 120.5 12.3, 121.5 11.2 Q 122.6 10.0, 124.5 10.0 Q 126.4 10.0, 127.4 11.2 Q 128.4 12.3, 128.4 14.4 Q 128.4 16.5, 127.4 17.7 Q 126.4 18.8, 124.5 18.8 Q 122.6 18.8, 121.5 17.7 Q 120.5 16.5, 120.5 14.4 M 124.5 17.9 Q 125.8 17.9, 126.5 17.0 Q 127.2 16.1, 127.2 14.4 Q 127.2 12.7, 126.5 11.8 Q 125.8 11.0, 124.5 11.0 Q 123.2 11.0, 122.4 11.8 Q 121.7 12.7, 121.7 14.4 Q 121.7 16.1, 122.4 17.0 Q 123.2 17.9, 124.5 17.9 " fill="#FF0000"/>
<path class="atom-19" d="M 129.8 10.1 L 130.9 10.1 L 130.9 13.8 L 135.3 13.8 L 135.3 10.1 L 136.5 10.1 L 136.5 18.7 L 135.3 18.7 L 135.3 14.7 L 130.9 14.7 L 130.9 18.7 L 129.8 18.7 L 129.8 10.1 " fill="#FF0000"/>
<path class="atom-21" d="M 127.8 167.5 Q 127.8 165.5, 128.8 164.3 Q 129.8 163.2, 131.7 163.2 Q 133.6 163.2, 134.7 164.3 Q 135.7 165.5, 135.7 167.5 Q 135.7 169.6, 134.7 170.8 Q 133.6 172.0, 131.7 172.0 Q 129.8 172.0, 128.8 170.8 Q 127.8 169.6, 127.8 167.5 M 131.7 171.0 Q 133.1 171.0, 133.8 170.2 Q 134.5 169.3, 134.5 167.5 Q 134.5 165.8, 133.8 165.0 Q 133.1 164.1, 131.7 164.1 Q 130.4 164.1, 129.7 165.0 Q 129.0 165.8, 129.0 167.5 Q 129.0 169.3, 129.7 170.2 Q 130.4 171.0, 131.7 171.0 " fill="#FF0000"/>
<path class="atom-22" d="M 69.0 147.5 L 70.1 147.5 L 70.1 151.2 L 74.6 151.2 L 74.6 147.5 L 75.7 147.5 L 75.7 156.1 L 74.6 156.1 L 74.6 152.1 L 70.1 152.1 L 70.1 156.1 L 69.0 156.1 L 69.0 147.5 " fill="#FF0000"/>
<path class="atom-22" d="M 77.5 151.8 Q 77.5 149.7, 78.5 148.6 Q 79.5 147.4, 81.4 147.4 Q 83.4 147.4, 84.4 148.6 Q 85.4 149.7, 85.4 151.8 Q 85.4 153.9, 84.4 155.1 Q 83.3 156.3, 81.4 156.3 Q 79.5 156.3, 78.5 155.1 Q 77.5 153.9, 77.5 151.8 M 81.4 155.3 Q 82.8 155.3, 83.5 154.4 Q 84.2 153.5, 84.2 151.8 Q 84.2 150.1, 83.5 149.2 Q 82.8 148.4, 81.4 148.4 Q 80.1 148.4, 79.4 149.2 Q 78.7 150.1, 78.7 151.8 Q 78.7 153.5, 79.4 154.4 Q 80.1 155.3, 81.4 155.3 " fill="#FF0000"/>
<path class="atom-24" d="M 193.1 128.2 Q 193.1 126.1, 194.1 124.9 Q 195.2 123.8, 197.1 123.8 Q 199.0 123.8, 200.0 124.9 Q 201.0 126.1, 201.0 128.2 Q 201.0 130.2, 200.0 131.4 Q 199.0 132.6, 197.1 132.6 Q 195.2 132.6, 194.1 131.4 Q 193.1 130.3, 193.1 128.2 M 197.1 131.6 Q 198.4 131.6, 199.1 130.8 Q 199.8 129.9, 199.8 128.2 Q 199.8 126.5, 199.1 125.6 Q 198.4 124.7, 197.1 124.7 Q 195.8 124.7, 195.0 125.6 Q 194.3 126.5, 194.3 128.2 Q 194.3 129.9, 195.0 130.8 Q 195.8 131.6, 197.1 131.6 " fill="#FF0000"/>
<path class="atom-25" d="M 230.6 144.5 Q 230.6 142.4, 231.7 141.3 Q 232.7 140.1, 234.6 140.1 Q 236.5 140.1, 237.5 141.3 Q 238.6 142.4, 238.6 144.5 Q 238.6 146.6, 237.5 147.8 Q 236.5 149.0, 234.6 149.0 Q 232.7 149.0, 231.7 147.8 Q 230.6 146.6, 230.6 144.5 M 234.6 148.0 Q 235.9 148.0, 236.6 147.1 Q 237.3 146.2, 237.3 144.5 Q 237.3 142.8, 236.6 142.0 Q 235.9 141.1, 234.6 141.1 Q 233.3 141.1, 232.6 142.0 Q 231.9 142.8, 231.9 144.5 Q 231.9 146.3, 232.6 147.1 Q 233.3 148.0, 234.6 148.0 " fill="#FF0000"/>
<path class="atom-25" d="M 239.9 140.2 L 241.1 140.2 L 241.1 143.9 L 245.5 143.9 L 245.5 140.2 L 246.6 140.2 L 246.6 148.9 L 245.5 148.9 L 245.5 144.9 L 241.1 144.9 L 241.1 148.9 L 239.9 148.9 L 239.9 140.2 " fill="#FF0000"/>
<path class="legend" d="M 144.8 181.9 Q 144.8 179.6, 145.5 177.7 Q 146.2 175.8, 147.5 173.8 L 148.4 174.4 Q 147.3 176.3, 146.8 178.0 Q 146.3 179.7, 146.3 181.9 Q 146.3 184.0, 146.8 185.8 Q 147.3 187.5, 148.4 189.4 L 147.5 190.0 Q 146.2 188.0, 145.5 186.1 Q 144.8 184.2, 144.8 181.9 " fill="#000000"/>
<path class="legend" d="M 149.3 177.3 Q 149.7 176.2, 150.7 175.6 Q 151.7 175.0, 153.1 175.0 Q 154.8 175.0, 155.7 175.9 Q 156.7 176.8, 156.7 178.5 Q 156.7 180.2, 155.4 181.7 Q 154.2 183.3, 151.7 185.2 L 156.9 185.2 L 156.9 186.4 L 149.3 186.4 L 149.3 185.4 Q 151.4 183.9, 152.6 182.8 Q 153.9 181.6, 154.5 180.6 Q 155.1 179.6, 155.1 178.6 Q 155.1 177.5, 154.6 176.9 Q 154.0 176.3, 153.1 176.3 Q 152.2 176.3, 151.5 176.6 Q 150.9 177.0, 150.5 177.8 L 149.3 177.3 " fill="#000000"/>
<path class="legend" d="M 161.9 181.9 Q 161.9 184.2, 161.2 186.1 Q 160.5 188.0, 159.2 190.0 L 158.3 189.4 Q 159.4 187.5, 159.9 185.8 Q 160.4 184.0, 160.4 181.9 Q 160.4 179.7, 159.9 178.0 Q 159.4 176.3, 158.3 174.4 L 159.2 173.8 Q 160.5 175.8, 161.2 177.7 Q 161.9 179.6, 161.9 181.9 " fill="#000000"/>
</g>
    <g transform="translate(307.0, 0) scale(1 1) "><line x1="5" y1="100" x2="35" y2="100" style="stroke:rgb(0,0,0);stroke-width:2"/>
  <line x1="34" y1="100" x2="29" y2="95" style="stroke:rgb(0,0,0);stroke-width:2"/>
  <line x1="34" y1="100" x2="29" y2="105" style="stroke:rgb(0,0,0);stroke-width:2"/>
</g>
    <g transform="translate(347.0, 0) scale(1 1) "><!-- END OF HEADER -->
<rect style="opacity:1.0;fill:#FFFFFF;stroke:none" width="351.0" height="200.0" x="0.0" y="0.0"> </rect>
<path class="bond-0 atom-0 atom-1" d="M 288.8,41.3 L 278.4,69.9" style="fill:none;fill-rule:evenodd;stroke:#000000;stroke-width:2.0px;stroke-linecap:butt;stroke-linejoin:miter;stroke-opacity:1"/>
<path class="bond-1 atom-1 atom-2" d="M 278.4,69.9 L 286.0,78.8" style="fill:none;fill-rule:evenodd;stroke:#000000;stroke-width:2.0px;stroke-linecap:butt;stroke-linejoin:miter;stroke-opacity:1"/>
<path class="bond-1 atom-1 atom-2" d="M 286.0,78.8 L 293.5,87.8" style="fill:none;fill-rule:evenodd;stroke:#FF0000;stroke-width:2.0px;stroke-linecap:butt;stroke-linejoin:miter;stroke-opacity:1"/>
<path class="bond-2 atom-1 atom-3" d="M 278.4,69.9 L 248.5,75.1" style="fill:none;fill-rule:evenodd;stroke:#000000;stroke-width:2.0px;stroke-linecap:butt;stroke-linejoin:miter;stroke-opacity:1"/>
<path class="bond-3 atom-3 atom-4" d="M 248.5,75.1 L 246.9,44.8" style="fill:none;fill-rule:evenodd;stroke:#000000;stroke-width:2.0px;stroke-linecap:butt;stroke-linejoin:miter;stroke-opacity:1"/>
<path class="bond-4 atom-3 atom-5" d="M 248.5,75.1 L 253.8,105.1" style="fill:none;fill-rule:evenodd;stroke:#000000;stroke-width:2.0px;stroke-linecap:butt;stroke-linejoin:miter;stroke-opacity:1"/>
<path class="bond-5 atom-5 atom-6" d="M 253.8,105.1 L 230.5,124.6" style="fill:none;fill-rule:evenodd;stroke:#000000;stroke-width:2.0px;stroke-linecap:butt;stroke-linejoin:miter;stroke-opacity:1"/>
<path class="bond-6 atom-6 atom-7" d="M 230.5,124.6 L 252.7,145.3" style="fill:none;fill-rule:evenodd;stroke:#000000;stroke-width:2.0px;stroke-linecap:butt;stroke-linejoin:miter;stroke-opacity:1"/>
<path class="bond-7 atom-6 atom-8" d="M 230.5,124.6 L 221.7,111.0" style="fill:none;fill-rule:evenodd;stroke:#000000;stroke-width:2.0px;stroke-linecap:butt;stroke-linejoin:miter;stroke-opacity:1"/>
<path class="bond-8 atom-6 atom-9" d="M 230.5,124.6 L 207.2,144.1" style="fill:none;fill-rule:evenodd;stroke:#000000;stroke-width:2.0px;stroke-linecap:butt;stroke-linejoin:miter;stroke-opacity:1"/>
<path class="bond-9 atom-9 atom-10" d="M 207.2,144.1 L 178.6,133.7" style="fill:none;fill-rule:evenodd;stroke:#000000;stroke-width:2.0px;stroke-linecap:butt;stroke-linejoin:miter;stroke-opacity:1"/>
<path class="bond-10 atom-10 atom-11" d="M 178.6,133.7 L 150.1,123.3" style="fill:none;fill-rule:evenodd;stroke:#000000;stroke-width:2.0px;stroke-linecap:butt;stroke-linejoin:miter;stroke-opacity:1"/>
<path class="bond-11 atom-10 atom-12" d="M 178.6,133.7 L 168.2,162.2" style="fill:none;fill-rule:evenodd;stroke:#000000;stroke-width:2.0px;stroke-linecap:butt;stroke-linejoin:miter;stroke-opacity:1"/>
<path class="bond-12 atom-12 atom-13" d="M 165.7,162.7 L 173.6,172.1" style="fill:none;fill-rule:evenodd;stroke:#000000;stroke-width:2.0px;stroke-linecap:butt;stroke-linejoin:miter;stroke-opacity:1"/>
<path class="bond-12 atom-12 atom-13" d="M 173.6,172.1 L 181.6,181.6" style="fill:none;fill-rule:evenodd;stroke:#FF0000;stroke-width:2.0px;stroke-linecap:butt;stroke-linejoin:miter;stroke-opacity:1"/>
<path class="bond-12 atom-12 atom-13" d="M 169.1,159.8 L 177.0,169.3" style="fill:none;fill-rule:evenodd;stroke:#000000;stroke-width:2.0px;stroke-linecap:butt;stroke-linejoin:miter;stroke-opacity:1"/>
<path class="bond-12 atom-12 atom-13" d="M 177.0,169.3 L 185.0,178.8" style="fill:none;fill-rule:evenodd;stroke:#FF0000;stroke-width:2.0px;stroke-linecap:butt;stroke-linejoin:miter;stroke-opacity:1"/>
<path class="bond-13 atom-12 atom-14" d="M 168.2,162.2 L 155.7,164.4" style="fill:none;fill-rule:evenodd;stroke:#000000;stroke-width:2.0px;stroke-linecap:butt;stroke-linejoin:miter;stroke-opacity:1"/>
<path class="bond-13 atom-12 atom-14" d="M 155.7,164.4 L 143.2,166.6" style="fill:none;fill-rule:evenodd;stroke:#FF0000;stroke-width:2.0px;stroke-linecap:butt;stroke-linejoin:miter;stroke-opacity:1"/>
<path class="bond-14 atom-10 atom-15" d="M 178.6,133.7 L 189.0,105.1" style="fill:none;fill-rule:evenodd;stroke:#000000;stroke-width:2.0px;stroke-linecap:butt;stroke-linejoin:miter;stroke-opacity:1"/>
<path class="bond-15 atom-15 atom-16" d="M 189.0,105.1 L 169.5,81.8" style="fill:none;fill-rule:evenodd;stroke:#000000;stroke-width:2.0px;stroke-linecap:butt;stroke-linejoin:miter;stroke-opacity:1"/>
<path class="bond-16 atom-16 atom-17" d="M 169.5,81.8 L 187.4,57.3" style="fill:none;fill-rule:evenodd;stroke:#000000;stroke-width:2.0px;stroke-linecap:butt;stroke-linejoin:miter;stroke-opacity:1"/>
<path class="bond-17 atom-16 atom-18" d="M 169.5,81.8 L 146.2,101.4" style="fill:none;fill-rule:evenodd;stroke:#000000;stroke-width:2.0px;stroke-linecap:butt;stroke-linejoin:miter;stroke-opacity:1"/>
<path class="bond-18 atom-16 atom-19" d="M 169.5,81.8 L 150.0,58.5" style="fill:none;fill-rule:evenodd;stroke:#000000;stroke-width:2.0px;stroke-linecap:butt;stroke-linejoin:miter;stroke-opacity:1"/>
<path class="bond-19 atom-19 atom-20" d="M 150.0,58.5 L 120.1,63.8" style="fill:none;fill-rule:evenodd;stroke:#000000;stroke-width:2.0px;stroke-linecap:butt;stroke-linejoin:miter;stroke-opacity:1"/>
<path class="bond-20 atom-20 atom-21" d="M 120.1,63.8 L 102.1,64.7" style="fill:none;fill-rule:evenodd;stroke:#000000;stroke-width:2.0px;stroke-linecap:butt;stroke-linejoin:miter;stroke-opacity:1"/>
<path class="bond-21 atom-20 atom-22" d="M 120.1,63.8 L 125.3,93.7" style="fill:none;fill-rule:evenodd;stroke:#000000;stroke-width:2.0px;stroke-linecap:butt;stroke-linejoin:miter;stroke-opacity:1"/>
<path class="bond-22 atom-22 atom-23" d="M 125.3,93.7 L 102.0,113.2" style="fill:none;fill-rule:evenodd;stroke:#000000;stroke-width:2.0px;stroke-linecap:butt;stroke-linejoin:miter;stroke-opacity:1"/>
<path class="bond-23 atom-23 atom-24" d="M 102.0,113.2 L 78.7,132.8" style="fill:none;fill-rule:evenodd;stroke:#000000;stroke-width:2.0px;stroke-linecap:butt;stroke-linejoin:miter;stroke-opacity:1"/>
<path class="bond-24 atom-23 atom-25" d="M 102.0,113.2 L 121.5,136.5" style="fill:none;fill-rule:evenodd;stroke:#000000;stroke-width:2.0px;stroke-linecap:butt;stroke-linejoin:miter;stroke-opacity:1"/>
<path class="bond-25 atom-25 atom-26" d="M 121.5,136.5 L 117.3,148.2" style="fill:none;fill-rule:evenodd;stroke:#000000;stroke-width:2.0px;stroke-linecap:butt;stroke-linejoin:miter;stroke-opacity:1"/>
<path class="bond-25 atom-25 atom-26" d="M 117.3,148.2 L 113.1,159.8" style="fill:none;fill-rule:evenodd;stroke:#FF0000;stroke-width:2.0px;stroke-linecap:butt;stroke-linejoin:miter;stroke-opacity:1"/>
<path class="bond-26 atom-23 atom-27" d="M 102.0,113.2 L 82.5,90.0" style="fill:none;fill-rule:evenodd;stroke:#000000;stroke-width:2.0px;stroke-linecap:butt;stroke-linejoin:miter;stroke-opacity:1"/>
<path class="bond-27 atom-27 atom-28" d="M 84.3,92.1 L 85.9,85.3" style="fill:none;fill-rule:evenodd;stroke:#000000;stroke-width:2.0px;stroke-linecap:butt;stroke-linejoin:miter;stroke-opacity:1"/>
<path class="bond-27 atom-27 atom-28" d="M 85.9,85.3 L 87.5,78.4" style="fill:none;fill-rule:evenodd;stroke:#FF0000;stroke-width:2.0px;stroke-linecap:butt;stroke-linejoin:miter;stroke-opacity:1"/>
<path class="bond-27 atom-27 atom-28" d="M 80.1,90.4 L 81.6,84.3" style="fill:none;fill-rule:evenodd;stroke:#000000;stroke-width:2.0px;stroke-linecap:butt;stroke-linejoin:miter;stroke-opacity:1"/>
<path class="bond-27 atom-27 atom-28" d="M 81.6,84.3 L 83.1,77.4" style="fill:none;fill-rule:evenodd;stroke:#FF0000;stroke-width:2.0px;stroke-linecap:butt;stroke-linejoin:miter;stroke-opacity:1"/>
<path class="bond-28 atom-27 atom-29" d="M 82.5,90.0 L 70.0,92.2" style="fill:none;fill-rule:evenodd;stroke:#000000;stroke-width:2.0px;stroke-linecap:butt;stroke-linejoin:miter;stroke-opacity:1"/>
<path class="bond-28 atom-27 atom-29" d="M 70.0,92.2 L 57.5,94.3" style="fill:none;fill-rule:evenodd;stroke:#FF0000;stroke-width:2.0px;stroke-linecap:butt;stroke-linejoin:miter;stroke-opacity:1"/>
<path class="bond-29 atom-20 atom-30" d="M 120.1,63.8 L 114.8,33.9" style="fill:none;fill-rule:evenodd;stroke:#000000;stroke-width:2.0px;stroke-linecap:butt;stroke-linejoin:miter;stroke-opacity:1"/>
<path class="bond-30 atom-30 atom-31" d="M 115.3,36.4 L 124.9,28.3" style="fill:none;fill-rule:evenodd;stroke:#000000;stroke-width:2.0px;stroke-linecap:butt;stroke-linejoin:miter;stroke-opacity:1"/>
<path class="bond-30 atom-30 atom-31" d="M 124.9,28.3 L 134.6,20.2" style="fill:none;fill-rule:evenodd;stroke:#FF0000;stroke-width:2.0px;stroke-linecap:butt;stroke-linejoin:miter;stroke-opacity:1"/>
<path class="bond-30 atom-30 atom-31" d="M 112.4,33.0 L 122.1,24.9" style="fill:none;fill-rule:evenodd;stroke:#000000;stroke-width:2.0px;stroke-linecap:butt;stroke-linejoin:miter;stroke-opacity:1"/>
<path class="bond-30 atom-30 atom-31" d="M 122.1,24.9 L 131.8,16.8" style="fill:none;fill-rule:evenodd;stroke:#FF0000;stroke-width:2.0px;stroke-linecap:butt;stroke-linejoin:miter;stroke-opacity:1"/>
<path class="bond-31 atom-30 atom-32" d="M 114.8,33.9 L 103.0,29.6" style="fill:none;fill-rule:evenodd;stroke:#000000;stroke-width:2.0px;stroke-linecap:butt;stroke-linejoin:miter;stroke-opacity:1"/>
<path class="bond-31 atom-30 atom-32" d="M 103.0,29.6 L 91.2,25.3" style="fill:none;fill-rule:evenodd;stroke:#FF0000;stroke-width:2.0px;stroke-linecap:butt;stroke-linejoin:miter;stroke-opacity:1"/>
<path class="bond-32 atom-15 atom-33" d="M 189.0,105.1 L 219.0,99.9" style="fill:none;fill-rule:evenodd;stroke:#000000;stroke-width:2.0px;stroke-linecap:butt;stroke-linejoin:miter;stroke-opacity:1"/>
<path class="bond-33 atom-33 atom-34" d="M 219.0,99.9 L 246.7,87.5" style="fill:none;fill-rule:evenodd;stroke:#000000;stroke-width:2.0px;stroke-linecap:butt;stroke-linejoin:miter;stroke-opacity:1"/>
<path class="bond-34 atom-33 atom-35" d="M 219.0,99.9 L 224.2,129.8" style="fill:none;fill-rule:evenodd;stroke:#000000;stroke-width:2.0px;stroke-linecap:butt;stroke-linejoin:miter;stroke-opacity:1"/>
<path class="bond-35 atom-35 atom-36" d="M 224.2,129.8 L 235.3,135.5" style="fill:none;fill-rule:evenodd;stroke:#000000;stroke-width:2.0px;stroke-linecap:butt;stroke-linejoin:miter;stroke-opacity:1"/>
<path class="bond-35 atom-35 atom-36" d="M 235.3,135.5 L 246.4,141.1" style="fill:none;fill-rule:evenodd;stroke:#FF0000;stroke-width:2.0px;stroke-linecap:butt;stroke-linejoin:miter;stroke-opacity:1"/>
<path class="bond-36 atom-33 atom-37" d="M 219.0,99.9 L 213.7,69.9" style="fill:none;fill-rule:evenodd;stroke:#000000;stroke-width:2.0px;stroke-linecap:butt;stroke-linejoin:miter;stroke-opacity:1"/>
<path class="bond-37 atom-37 atom-38" d="M 215.2,68.3 L 205.0,61.4" style="fill:none;fill-rule:evenodd;stroke:#000000;stroke-width:2.0px;stroke-linecap:butt;stroke-linejoin:miter;stroke-opacity:1"/>
<path class="bond-37 atom-37 atom-38" d="M 205.0,61.4 L 194.7,54.4" style="fill:none;fill-rule:evenodd;stroke:#FF0000;stroke-width:2.0px;stroke-linecap:butt;stroke-linejoin:miter;stroke-opacity:1"/>
<path class="bond-37 atom-37 atom-38" d="M 214.2,73.0 L 202.5,65.0" style="fill:none;fill-rule:evenodd;stroke:#000000;stroke-width:2.0px;stroke-linecap:butt;stroke-linejoin:miter;stroke-opacity:1"/>
<path class="bond-37 atom-37 atom-38" d="M 202.5,65.0 L 192.2,58.1" style="fill:none;fill-rule:evenodd;stroke:#FF0000;stroke-width:2.0px;stroke-linecap:butt;stroke-linejoin:miter;stroke-opacity:1"/>
<path class="bond-38 atom-37 atom-39" d="M 213.7,69.9 L 221.6,61.5" style="fill:none;fill-rule:evenodd;stroke:#000000;stroke-width:2.0px;stroke-linecap:butt;stroke-linejoin:miter;stroke-opacity:1"/>
<path class="bond-38 atom-37 atom-39" d="M 221.6,61.5 L 229.5,53.0" style="fill:none;fill-rule:evenodd;stroke:#FF0000;stroke-width:2.0px;stroke-linecap:butt;stroke-linejoin:miter;stroke-opacity:1"/>
<path class="bond-39 atom-3 atom-40" d="M 248.5,75.1 L 218.6,80.4" style="fill:none;fill-rule:evenodd;stroke:#000000;stroke-width:2.0px;stroke-linecap:butt;stroke-linejoin:miter;stroke-opacity:1"/>
<path class="bond-40 atom-40 atom-41" d="M 216.8,78.3 L 213.8,91.2" style="fill:none;fill-rule:evenodd;stroke:#000000;stroke-width:2.0px;stroke-linecap:butt;stroke-linejoin:miter;stroke-opacity:1"/>
<path class="bond-40 atom-40 atom-41" d="M 213.8,91.2 L 210.8,104.2" style="fill:none;fill-rule:evenodd;stroke:#FF0000;stroke-width:2.0px;stroke-linecap:butt;stroke-linejoin:miter;stroke-opacity:1"/>
<path class="bond-40 atom-40 atom-41" d="M 220.9,80.0 L 218.1,92.2" style="fill:none;fill-rule:evenodd;stroke:#000000;stroke-width:2.0px;stroke-linecap:butt;stroke-linejoin:miter;stroke-opacity:1"/>
<path class="bond-40 atom-40 atom-41" d="M 218.1,92.2 L 215.1,105.2" style="fill:none;fill-rule:evenodd;stroke:#FF0000;stroke-width:2.0px;stroke-linecap:butt;stroke-linejoin:miter;stroke-opacity:1"/>
<path class="bond-41 atom-40 atom-42" d="M 218.6,80.4 L 211.1,71.5" style="fill:none;fill-rule:evenodd;stroke:#000000;stroke-width:2.0px;stroke-linecap:butt;stroke-linejoin:miter;stroke-opacity:1"/>
<path class="bond-41 atom-40 atom-42" d="M 211.1,71.5 L 203.6,62.5" style="fill:none;fill-rule:evenodd;stroke:#FF0000;stroke-width:2.0px;stroke-linecap:butt;stroke-linejoin:miter;stroke-opacity:1"/>
<path d="M 253.5,103.6 L 253.8,105.1 L 252.6,106.0" style="fill:none;stroke:#000000;stroke-width:2.0px;stroke-linecap:butt;stroke-linejoin:miter;stroke-opacity:1;"/>
<path d="M 208.3,143.1 L 207.2,144.1 L 205.7,143.6" style="fill:none;stroke:#000000;stroke-width:2.0px;stroke-linecap:butt;stroke-linejoin:miter;stroke-opacity:1;"/>
<path d="M 168.7,160.8 L 168.2,162.2 L 167.6,162.3" style="fill:none;stroke:#000000;stroke-width:2.0px;stroke-linecap:butt;stroke-linejoin:miter;stroke-opacity:1;"/>
<path d="M 151.0,59.7 L 150.0,58.5 L 148.5,58.8" style="fill:none;stroke:#000000;stroke-width:2.0px;stroke-linecap:butt;stroke-linejoin:miter;stroke-opacity:1;"/>
<path d="M 125.1,92.2 L 125.3,93.7 L 124.2,94.7" style="fill:none;stroke:#000000;stroke-width:2.0px;stroke-linecap:butt;stroke-linejoin:miter;stroke-opacity:1;"/>
<path d="M 120.6,135.4 L 121.5,136.5 L 121.3,137.1" style="fill:none;stroke:#000000;stroke-width:2.0px;stroke-linecap:butt;stroke-linejoin:miter;stroke-opacity:1;"/>
<path d="M 83.5,91.1 L 82.5,90.0 L 81.9,90.1" style="fill:none;stroke:#000000;stroke-width:2.0px;stroke-linecap:butt;stroke-linejoin:miter;stroke-opacity:1;"/>
<path d="M 115.1,35.4 L 114.8,33.9 L 114.2,33.7" style="fill:none;stroke:#000000;stroke-width:2.0px;stroke-linecap:butt;stroke-linejoin:miter;stroke-opacity:1;"/>
<path d="M 224.0,128.3 L 224.2,129.8 L 224.8,130.1" style="fill:none;stroke:#000000;stroke-width:2.0px;stroke-linecap:butt;stroke-linejoin:miter;stroke-opacity:1;"/>
<path d="M 214.0,71.4 L 213.7,69.9 L 214.1,69.5" style="fill:none;stroke:#000000;stroke-width:2.0px;stroke-linecap:butt;stroke-linejoin:miter;stroke-opacity:1;"/>
<path d="M 220.1,80.1 L 218.6,80.4 L 218.2,79.9" style="fill:none;stroke:#000000;stroke-width:2.0px;stroke-linecap:butt;stroke-linejoin:miter;stroke-opacity:1;"/>
<path class="atom-2" d="M 294.0 93.2 Q 294.0 91.1, 295.0 90.0 Q 296.0 88.8, 297.9 88.8 Q 299.9 88.8, 300.9 90.0 Q 301.9 91.1, 301.9 93.2 Q 301.9 95.3, 300.9 96.5 Q 299.8 97.6, 297.9 97.6 Q 296.0 97.6, 295.0 96.5 Q 294.0 95.3, 294.0 93.2 M 297.9 96.7 Q 299.3 96.7, 300.0 95.8 Q 300.7 94.9, 300.7 93.2 Q 300.7 91.5, 300.0 90.6 Q 299.3 89.8, 297.9 89.8 Q 296.6 89.8, 295.9 90.6 Q 295.2 91.5, 295.2 93.2 Q 295.2 94.9, 295.9 95.8 Q 296.6 96.7, 297.9 96.7 " fill="#FF0000"/>
<path class="atom-2" d="M 303.2 88.9 L 304.4 88.9 L 304.4 92.6 L 308.8 92.6 L 308.8 88.9 L 310.0 88.9 L 310.0 97.5 L 308.8 97.5 L 308.8 93.5 L 304.4 93.5 L 304.4 97.5 L 303.2 97.5 L 303.2 88.9 " fill="#FF0000"/>
<path class="atom-13" d="M 183.8 185.5 Q 183.8 183.5, 184.8 182.3 Q 185.8 181.2, 187.7 181.2 Q 189.6 181.2, 190.7 182.3 Q 191.7 183.5, 191.7 185.5 Q 191.7 187.6, 190.6 188.8 Q 189.6 190.0, 187.7 190.0 Q 185.8 190.0, 184.8 188.8 Q 183.8 187.6, 183.8 185.5 M 187.7 189.0 Q 189.0 189.0, 189.7 188.2 Q 190.5 187.3, 190.5 185.5 Q 190.5 183.8, 189.7 183.0 Q 189.0 182.1, 187.7 182.1 Q 186.4 182.1, 185.7 183.0 Q 185.0 183.8, 185.0 185.5 Q 185.0 187.3, 185.7 188.2 Q 186.4 189.0, 187.7 189.0 " fill="#FF0000"/>
<path class="atom-14" d="M 125.8 163.2 L 127.0 163.2 L 127.0 166.9 L 131.4 166.9 L 131.4 163.2 L 132.6 163.2 L 132.6 171.8 L 131.4 171.8 L 131.4 167.9 L 127.0 167.9 L 127.0 171.8 L 125.8 171.8 L 125.8 163.2 " fill="#FF0000"/>
<path class="atom-14" d="M 134.3 167.5 Q 134.3 165.4, 135.3 164.3 Q 136.4 163.1, 138.3 163.1 Q 140.2 163.1, 141.2 164.3 Q 142.2 165.4, 142.2 167.5 Q 142.2 169.6, 141.2 170.8 Q 140.2 172.0, 138.3 172.0 Q 136.4 172.0, 135.3 170.8 Q 134.3 169.6, 134.3 167.5 M 138.3 171.0 Q 139.6 171.0, 140.3 170.1 Q 141.0 169.2, 141.0 167.5 Q 141.0 165.8, 140.3 165.0 Q 139.6 164.1, 138.3 164.1 Q 137.0 164.1, 136.2 165.0 Q 135.5 165.8, 135.5 167.5 Q 135.5 169.2, 136.2 170.1 Q 137.0 171.0, 138.3 171.0 " fill="#FF0000"/>
<path class="atom-26" d="M 98.7 160.8 L 99.9 160.8 L 99.9 164.5 L 104.3 164.5 L 104.3 160.8 L 105.4 160.8 L 105.4 169.4 L 104.3 169.4 L 104.3 165.5 L 99.9 165.5 L 99.9 169.4 L 98.7 169.4 L 98.7 160.8 " fill="#FF0000"/>
<path class="atom-26" d="M 107.2 165.1 Q 107.2 163.0, 108.2 161.9 Q 109.2 160.7, 111.1 160.7 Q 113.0 160.7, 114.1 161.9 Q 115.1 163.0, 115.1 165.1 Q 115.1 167.2, 114.1 168.4 Q 113.0 169.6, 111.1 169.6 Q 109.2 169.6, 108.2 168.4 Q 107.2 167.2, 107.2 165.1 M 111.1 168.6 Q 112.4 168.6, 113.2 167.7 Q 113.9 166.8, 113.9 165.1 Q 113.9 163.4, 113.2 162.6 Q 112.4 161.7, 111.1 161.7 Q 109.8 161.7, 109.1 162.6 Q 108.4 163.4, 108.4 165.1 Q 108.4 166.8, 109.1 167.7 Q 109.8 168.6, 111.1 168.6 " fill="#FF0000"/>
<path class="atom-28" d="M 82.6 72.5 Q 82.6 70.4, 83.6 69.3 Q 84.7 68.1, 86.6 68.1 Q 88.5 68.1, 89.5 69.3 Q 90.5 70.4, 90.5 72.5 Q 90.5 74.6, 89.5 75.8 Q 88.4 77.0, 86.6 77.0 Q 84.7 77.0, 83.6 75.8 Q 82.6 74.6, 82.6 72.5 M 86.6 76.0 Q 87.9 76.0, 88.6 75.1 Q 89.3 74.2, 89.3 72.5 Q 89.3 70.8, 88.6 70.0 Q 87.9 69.1, 86.6 69.1 Q 85.2 69.1, 84.5 69.9 Q 83.8 70.8, 83.8 72.5 Q 83.8 74.2, 84.5 75.1 Q 85.2 76.0, 86.6 76.0 " fill="#FF0000"/>
<path class="atom-29" d="M 40.1 91.0 L 41.3 91.0 L 41.3 94.6 L 45.7 94.6 L 45.7 91.0 L 46.9 91.0 L 46.9 99.6 L 45.7 99.6 L 45.7 95.6 L 41.3 95.6 L 41.3 99.6 L 40.1 99.6 L 40.1 91.0 " fill="#FF0000"/>
<path class="atom-29" d="M 48.6 95.2 Q 48.6 93.2, 49.7 92.0 Q 50.7 90.9, 52.6 90.9 Q 54.5 90.9, 55.5 92.0 Q 56.5 93.2, 56.5 95.2 Q 56.5 97.3, 55.5 98.5 Q 54.5 99.7, 52.6 99.7 Q 50.7 99.7, 49.7 98.5 Q 48.6 97.3, 48.6 95.2 M 52.6 98.7 Q 53.9 98.7, 54.6 97.8 Q 55.3 97.0, 55.3 95.2 Q 55.3 93.5, 54.6 92.7 Q 53.9 91.8, 52.6 91.8 Q 51.3 91.8, 50.6 92.7 Q 49.8 93.5, 49.8 95.2 Q 49.8 97.0, 50.6 97.8 Q 51.3 98.7, 52.6 98.7 " fill="#FF0000"/>
<path class="atom-31" d="M 134.2 14.4 Q 134.2 12.3, 135.2 11.2 Q 136.2 10.0, 138.1 10.0 Q 140.0 10.0, 141.0 11.2 Q 142.1 12.3, 142.1 14.4 Q 142.1 16.5, 141.0 17.7 Q 140.0 18.8, 138.1 18.8 Q 136.2 18.8, 135.2 17.7 Q 134.2 16.5, 134.2 14.4 M 138.1 17.9 Q 139.4 17.9, 140.1 17.0 Q 140.8 16.1, 140.8 14.4 Q 140.8 12.7, 140.1 11.8 Q 139.4 11.0, 138.1 11.0 Q 136.8 11.0, 136.1 11.8 Q 135.4 12.7, 135.4 14.4 Q 135.4 16.1, 136.1 17.0 Q 136.8 17.9, 138.1 17.9 " fill="#FF0000"/>
<path class="atom-32" d="M 73.8 19.2 L 75.0 19.2 L 75.0 22.9 L 79.4 22.9 L 79.4 19.2 L 80.5 19.2 L 80.5 27.8 L 79.4 27.8 L 79.4 23.8 L 75.0 23.8 L 75.0 27.8 L 73.8 27.8 L 73.8 19.2 " fill="#FF0000"/>
<path class="atom-32" d="M 82.3 23.5 Q 82.3 21.4, 83.3 20.3 Q 84.4 19.1, 86.3 19.1 Q 88.2 19.1, 89.2 20.3 Q 90.2 21.4, 90.2 23.5 Q 90.2 25.6, 89.2 26.8 Q 88.1 27.9, 86.3 27.9 Q 84.4 27.9, 83.3 26.8 Q 82.3 25.6, 82.3 23.5 M 86.3 27.0 Q 87.6 27.0, 88.3 26.1 Q 89.0 25.2, 89.0 23.5 Q 89.0 21.8, 88.3 20.9 Q 87.6 20.1, 86.3 20.1 Q 84.9 20.1, 84.2 20.9 Q 83.5 21.8, 83.5 23.5 Q 83.5 25.2, 84.2 26.1 Q 84.9 27.0, 86.3 27.0 " fill="#FF0000"/>
<path class="atom-36" d="M 247.3 143.6 Q 247.3 141.6, 248.4 140.4 Q 249.4 139.3, 251.3 139.3 Q 253.2 139.3, 254.2 140.4 Q 255.2 141.6, 255.2 143.6 Q 255.2 145.7, 254.2 146.9 Q 253.2 148.1, 251.3 148.1 Q 249.4 148.1, 248.4 146.9 Q 247.3 145.7, 247.3 143.6 M 251.3 147.1 Q 252.6 147.1, 253.3 146.3 Q 254.0 145.4, 254.0 143.6 Q 254.0 141.9, 253.3 141.1 Q 252.6 140.2, 251.3 140.2 Q 250.0 140.2, 249.3 141.1 Q 248.5 141.9, 248.5 143.6 Q 248.5 145.4, 249.3 146.3 Q 250.0 147.1, 251.3 147.1 " fill="#FF0000"/>
<path class="atom-36" d="M 256.6 139.4 L 257.7 139.4 L 257.7 143.0 L 262.1 143.0 L 262.1 139.4 L 263.3 139.4 L 263.3 148.0 L 262.1 148.0 L 262.1 144.0 L 257.7 144.0 L 257.7 148.0 L 256.6 148.0 L 256.6 139.4 " fill="#FF0000"/>
<path class="atom-38" d="M 184.6 53.0 Q 184.6 50.9, 185.6 49.7 Q 186.6 48.6, 188.5 48.6 Q 190.4 48.6, 191.5 49.7 Q 192.5 50.9, 192.5 53.0 Q 192.5 55.0, 191.4 56.2 Q 190.4 57.4, 188.5 57.4 Q 186.6 57.4, 185.6 56.2 Q 184.6 55.1, 184.6 53.0 M 188.5 56.4 Q 189.8 56.4, 190.5 55.6 Q 191.3 54.7, 191.3 53.0 Q 191.3 51.3, 190.5 50.4 Q 189.8 49.5, 188.5 49.5 Q 187.2 49.5, 186.5 50.4 Q 185.8 51.3, 185.8 53.0 Q 185.8 54.7, 186.5 55.6 Q 187.2 56.4, 188.5 56.4 " fill="#FF0000"/>
<path class="atom-39" d="M 230.5 47.8 Q 230.5 45.7, 231.5 44.5 Q 232.5 43.4, 234.4 43.4 Q 236.4 43.4, 237.4 44.5 Q 238.4 45.7, 238.4 47.8 Q 238.4 49.8, 237.4 51.0 Q 236.3 52.2, 234.4 52.2 Q 232.5 52.2, 231.5 51.0 Q 230.5 49.9, 230.5 47.8 M 234.4 51.2 Q 235.8 51.2, 236.5 50.4 Q 237.2 49.5, 237.2 47.8 Q 237.2 46.1, 236.5 45.2 Q 235.8 44.3, 234.4 44.3 Q 233.1 44.3, 232.4 45.2 Q 231.7 46.1, 231.7 47.8 Q 231.7 49.5, 232.4 50.4 Q 233.1 51.2, 234.4 51.2 " fill="#FF0000"/>
<path class="atom-39" d="M 239.7 43.5 L 240.9 43.5 L 240.9 47.1 L 245.3 47.1 L 245.3 43.5 L 246.5 43.5 L 246.5 52.1 L 245.3 52.1 L 245.3 48.1 L 240.9 48.1 L 240.9 52.1 L 239.7 52.1 L 239.7 43.5 " fill="#FF0000"/>
<path class="atom-41" d="M 207.8 110.0 Q 207.8 107.9, 208.8 106.8 Q 209.8 105.6, 211.7 105.6 Q 213.6 105.6, 214.6 106.8 Q 215.7 107.9, 215.7 110.0 Q 215.7 112.1, 214.6 113.3 Q 213.6 114.5, 211.7 114.5 Q 209.8 114.5, 208.8 113.3 Q 207.8 112.1, 207.8 110.0 M 211.7 113.5 Q 213.0 113.5, 213.7 112.6 Q 214.4 111.7, 214.4 110.0 Q 214.4 108.3, 213.7 107.5 Q 213.0 106.6, 211.7 106.6 Q 210.4 106.6, 209.7 107.5 Q 209.0 108.3, 209.0 110.0 Q 209.0 111.7, 209.7 112.6 Q 210.4 113.5, 211.7 113.5 " fill="#FF0000"/>
<path class="atom-42" d="M 186.6 52.8 L 187.8 52.8 L 187.8 56.5 L 192.2 56.5 L 192.2 52.8 L 193.3 52.8 L 193.3 61.4 L 192.2 61.4 L 192.2 57.5 L 187.8 57.5 L 187.8 61.4 L 186.6 61.4 L 186.6 52.8 " fill="#FF0000"/>
<path class="atom-42" d="M 195.1 57.1 Q 195.1 55.0, 196.1 53.9 Q 197.1 52.7, 199.0 52.7 Q 201.0 52.7, 202.0 53.9 Q 203.0 55.0, 203.0 57.1 Q 203.0 59.2, 202.0 60.4 Q 200.9 61.6, 199.0 61.6 Q 197.2 61.6, 196.1 60.4 Q 195.1 59.2, 195.1 57.1 M 199.0 60.6 Q 200.4 60.6, 201.1 59.7 Q 201.8 58.8, 201.8 57.1 Q 201.8 55.4, 201.1 54.6 Q 200.4 53.7, 199.0 53.7 Q 197.7 53.7, 197.0 54.6 Q 196.3 55.4, 196.3 57.1 Q 196.3 58.8, 197.0 59.7 Q 197.7 60.6, 199.0 60.6 " fill="#FF0000"/>
<path class="atom-7" d="M 250.6,143.3 L 250.6,147.3 L 254.7,147.3 L 254.7,143.3 L 250.6,143.3" style="fill:none;stroke:#FF0000;stroke-width:2.0px;stroke-linecap:butt;stroke-linejoin:miter;stroke-opacity:1;"/>
</g>
    <g transform="translate(698.0, 0) scale(1 1) "><line x1="15" y1="100" x2="25" y2="100" style="stroke:rgb(0,0,0);stroke-width:2"/>
  <line x1="20" y1="95" x2="20" y2="105" style="stroke:rgb(0,0,0);stroke-width:2"/>
</g>
    <g transform="translate(738.0, 0) scale(1 1) "><!-- END OF HEADER -->
<rect style="opacity:1.0;fill:#FFFFFF;stroke:none" width="215.0" height="200.0" x="0.0" y="0.0"> </rect>
<path class="bond-0 atom-0 atom-1" d="M 183.7,56.0 L 158.3,99.9" style="fill:none;fill-rule:evenodd;stroke:#000000;stroke-width:2.0px;stroke-linecap:butt;stroke-linejoin:miter;stroke-opacity:1"/>
<path class="bond-1 atom-1 atom-2" d="M 158.3,99.9 L 168.4,117.4" style="fill:none;fill-rule:evenodd;stroke:#000000;stroke-width:2.0px;stroke-linecap:butt;stroke-linejoin:miter;stroke-opacity:1"/>
<path class="bond-1 atom-1 atom-2" d="M 168.4,117.4 L 178.5,134.9" style="fill:none;fill-rule:evenodd;stroke:#FF0000;stroke-width:2.0px;stroke-linecap:butt;stroke-linejoin:miter;stroke-opacity:1"/>
<path class="bond-2 atom-1 atom-3" d="M 158.3,99.9 L 107.6,99.9" style="fill:none;fill-rule:evenodd;stroke:#000000;stroke-width:2.0px;stroke-linecap:butt;stroke-linejoin:miter;stroke-opacity:1"/>
<path class="bond-3 atom-3 atom-4" d="M 107.6,99.9 L 107.6,49.2" style="fill:none;fill-rule:evenodd;stroke:#000000;stroke-width:2.0px;stroke-linecap:butt;stroke-linejoin:miter;stroke-opacity:1"/>
<path class="bond-4 atom-3 atom-5" d="M 107.6,99.9 L 107.6,150.6" style="fill:none;fill-rule:evenodd;stroke:#000000;stroke-width:2.0px;stroke-linecap:butt;stroke-linejoin:miter;stroke-opacity:1"/>
<path class="bond-5 atom-3 atom-6" d="M 107.6,99.9 L 56.9,99.9" style="fill:none;fill-rule:evenodd;stroke:#000000;stroke-width:2.0px;stroke-linecap:butt;stroke-linejoin:miter;stroke-opacity:1"/>
<path class="bond-6 atom-6 atom-7" d="M 54.7,96.1 L 44.0,114.5" style="fill:none;fill-rule:evenodd;stroke:#000000;stroke-width:2.0px;stroke-linecap:butt;stroke-linejoin:miter;stroke-opacity:1"/>
<path class="bond-6 atom-6 atom-7" d="M 44.0,114.5 L 33.4,133.0" style="fill:none;fill-rule:evenodd;stroke:#FF0000;stroke-width:2.0px;stroke-linecap:butt;stroke-linejoin:miter;stroke-opacity:1"/>
<path class="bond-6 atom-6 atom-7" d="M 61.3,99.9 L 50.6,118.3" style="fill:none;fill-rule:evenodd;stroke:#000000;stroke-width:2.0px;stroke-linecap:butt;stroke-linejoin:miter;stroke-opacity:1"/>
<path class="bond-6 atom-6 atom-7" d="M 50.6,118.3 L 40.0,136.8" style="fill:none;fill-rule:evenodd;stroke:#FF0000;stroke-width:2.0px;stroke-linecap:butt;stroke-linejoin:miter;stroke-opacity:1"/>
<path class="bond-7 atom-6 atom-8" d="M 56.9,99.9 L 46.9,82.5" style="fill:none;fill-rule:evenodd;stroke:#000000;stroke-width:2.0px;stroke-linecap:butt;stroke-linejoin:miter;stroke-opacity:1"/>
<path class="bond-7 atom-6 atom-8" d="M 46.9,82.5 L 36.8,65.1" style="fill:none;fill-rule:evenodd;stroke:#FF0000;stroke-width:2.0px;stroke-linecap:butt;stroke-linejoin:miter;stroke-opacity:1"/>
<path d="M 59.4,99.9 L 56.9,99.9 L 56.4,99.0" style="fill:none;stroke:#000000;stroke-width:2.0px;stroke-linecap:butt;stroke-linejoin:miter;stroke-opacity:1;"/>
<path class="atom-2" d="M 177.1 143.9 Q 177.1 140.4, 178.8 138.5 Q 180.5 136.5, 183.7 136.5 Q 186.9 136.5, 188.6 138.5 Q 190.3 140.4, 190.3 143.9 Q 190.3 147.3, 188.6 149.3 Q 186.8 151.3, 183.7 151.3 Q 180.5 151.3, 178.8 149.3 Q 177.1 147.4, 177.1 143.9 M 183.7 149.7 Q 185.9 149.7, 187.0 148.2 Q 188.2 146.7, 188.2 143.9 Q 188.2 141.0, 187.0 139.6 Q 185.9 138.2, 183.7 138.2 Q 181.5 138.2, 180.3 139.6 Q 179.1 141.0, 179.1 143.9 Q 179.1 146.8, 180.3 148.2 Q 181.5 149.7, 183.7 149.7 " fill="#FF0000"/>
<path class="atom-2" d="M 192.5 136.7 L 194.5 136.7 L 194.5 142.8 L 201.8 142.8 L 201.8 136.7 L 203.7 136.7 L 203.7 151.1 L 201.8 151.1 L 201.8 144.4 L 194.5 144.4 L 194.5 151.1 L 192.5 151.1 L 192.5 136.7 " fill="#FF0000"/>
<path class="atom-7" d="M 24.9 143.9 Q 24.9 140.4, 26.6 138.5 Q 28.3 136.5, 31.5 136.5 Q 34.7 136.5, 36.4 138.5 Q 38.1 140.4, 38.1 143.9 Q 38.1 147.3, 36.4 149.3 Q 34.7 151.3, 31.5 151.3 Q 28.4 151.3, 26.6 149.3 Q 24.9 147.4, 24.9 143.9 M 31.5 149.7 Q 33.7 149.7, 34.9 148.2 Q 36.1 146.7, 36.1 143.9 Q 36.1 141.0, 34.9 139.6 Q 33.7 138.2, 31.5 138.2 Q 29.3 138.2, 28.1 139.6 Q 27.0 141.0, 27.0 143.9 Q 27.0 146.8, 28.1 148.2 Q 29.3 149.7, 31.5 149.7 " fill="#FF0000"/>
<path class="atom-8" d="M 10.7 48.9 L 12.7 48.9 L 12.7 55.0 L 20.0 55.0 L 20.0 48.9 L 22.0 48.9 L 22.0 63.2 L 20.0 63.2 L 20.0 56.6 L 12.7 56.6 L 12.7 63.2 L 10.7 63.2 L 10.7 48.9 " fill="#FF0000"/>
<path class="atom-8" d="M 24.9 56.0 Q 24.9 52.6, 26.6 50.6 Q 28.3 48.7, 31.5 48.7 Q 34.7 48.7, 36.4 50.6 Q 38.1 52.6, 38.1 56.0 Q 38.1 59.5, 36.4 61.5 Q 34.7 63.5, 31.5 63.5 Q 28.4 63.5, 26.6 61.5 Q 24.9 59.5, 24.9 56.0 M 31.5 61.8 Q 33.7 61.8, 34.9 60.4 Q 36.1 58.9, 36.1 56.0 Q 36.1 53.2, 34.9 51.8 Q 33.7 50.3, 31.5 50.3 Q 29.3 50.3, 28.1 51.7 Q 27.0 53.2, 27.0 56.0 Q 27.0 58.9, 28.1 60.4 Q 29.3 61.8, 31.5 61.8 " fill="#FF0000"/>
</g>
  </g>
</svg>
