<?xml version='1.0' encoding='ASCII' standalone='yes'?>
<svg xmlns="http://www.w3.org/2000/svg" xmlns:xlink="http://www.w3.org/1999/xlink" version="1.1" width="939.0px" viewBox="0 0 939.0 200.0" height="200.0px">
  <g>
    <g transform="translate(0, 0) scale(1 1) "><!-- END OF HEADER -->
<rect style="opacity:1.0;fill:#FFFFFF;stroke:none" width="301.0" height="200.0" x="0.0" y="0.0"> </rect>
<path class="bond-0 atom-0 atom-1" d="M 15.1,42.8 L 48.2,51.1" style="fill:none;fill-rule:evenodd;stroke:#000000;stroke-width:2.0px;stroke-linecap:butt;stroke-linejoin:miter;stroke-opacity:1"/>
<path class="bond-1 atom-1 atom-2" d="M 48.2,51.1 L 57.3,41.7" style="fill:none;fill-rule:evenodd;stroke:#000000;stroke-width:2.0px;stroke-linecap:butt;stroke-linejoin:miter;stroke-opacity:1"/>
<path class="bond-1 atom-1 atom-2" d="M 57.3,41.7 L 66.5,32.3" style="fill:none;fill-rule:evenodd;stroke:#FF0000;stroke-width:2.0px;stroke-linecap:butt;stroke-linejoin:miter;stroke-opacity:1"/>
<path class="bond-2 atom-1 atom-3" d="M 48.2,51.1 L 57.6,84.0" style="fill:none;fill-rule:evenodd;stroke:#000000;stroke-width:2.0px;stroke-linecap:butt;stroke-linejoin:miter;stroke-opacity:1"/>
<path class="bond-3 atom-3 atom-4" d="M 57.6,84.0 L 24.7,93.4" style="fill:none;fill-rule:evenodd;stroke:#000000;stroke-width:2.0px;stroke-linecap:butt;stroke-linejoin:miter;stroke-opacity:1"/>
<path class="bond-4 atom-3 atom-5" d="M 57.6,84.0 L 90.5,74.6" style="fill:none;fill-rule:evenodd;stroke:#000000;stroke-width:2.0px;stroke-linecap:butt;stroke-linejoin:miter;stroke-opacity:1"/>
<path class="bond-5 atom-5 atom-6" d="M 90.5,74.6 L 115.1,98.4" style="fill:none;fill-rule:evenodd;stroke:#000000;stroke-width:2.0px;stroke-linecap:butt;stroke-linejoin:miter;stroke-opacity:1"/>
<path class="bond-6 atom-6 atom-7" d="M 115.1,98.4 L 102.9,114.5" style="fill:none;fill-rule:evenodd;stroke:#000000;stroke-width:2.0px;stroke-linecap:butt;stroke-linejoin:miter;stroke-opacity:1"/>
<path class="bond-7 atom-6 atom-8" d="M 115.1,98.4 L 139.6,122.1" style="fill:none;fill-rule:evenodd;stroke:#000000;stroke-width:2.0px;stroke-linecap:butt;stroke-linejoin:miter;stroke-opacity:1"/>
<path class="bond-8 atom-8 atom-9" d="M 139.6,122.1 L 136.2,135.7" style="fill:none;fill-rule:evenodd;stroke:#000000;stroke-width:2.0px;stroke-linecap:butt;stroke-linejoin:miter;stroke-opacity:1"/>
<path class="bond-8 atom-8 atom-9" d="M 136.2,135.7 L 132.8,149.3" style="fill:none;fill-rule:evenodd;stroke:#FF0000;stroke-width:2.0px;stroke-linecap:butt;stroke-linejoin:miter;stroke-opacity:1"/>
<path class="bond-9 atom-6 atom-10" d="M 115.1,98.4 L 138.8,73.8" style="fill:none;fill-rule:evenodd;stroke:#000000;stroke-width:2.0px;stroke-linecap:butt;stroke-linejoin:miter;stroke-opacity:1"/>
<path class="bond-10 atom-10 atom-11" d="M 138.8,73.8 L 172.0,82.1" style="fill:none;fill-rule:evenodd;stroke:#000000;stroke-width:2.0px;stroke-linecap:butt;stroke-linejoin:miter;stroke-opacity:1"/>
<path class="bond-11 atom-11 atom-12" d="M 172.0,82.1 L 195.8,57.5" style="fill:none;fill-rule:evenodd;stroke:#000000;stroke-width:2.0px;stroke-linecap:butt;stroke-linejoin:miter;stroke-opacity:1"/>
<path class="bond-12 atom-12 atom-13" d="M 195.8,57.5 L 229.0,65.8" style="fill:none;fill-rule:evenodd;stroke:#000000;stroke-width:2.0px;stroke-linecap:butt;stroke-linejoin:miter;stroke-opacity:1"/>
<path class="bond-13 atom-13 atom-14" d="M 229.0,65.8 L 220.7,99.0" style="fill:none;fill-rule:evenodd;stroke:#000000;stroke-width:2.0px;stroke-linecap:butt;stroke-linejoin:miter;stroke-opacity:1"/>
<path class="bond-14 atom-13 atom-15" d="M 229.0,65.8 L 237.3,32.6" style="fill:none;fill-rule:evenodd;stroke:#000000;stroke-width:2.0px;stroke-linecap:butt;stroke-linejoin:miter;stroke-opacity:1"/>
<path class="bond-15 atom-13 atom-16" d="M 229.0,65.8 L 262.1,74.1" style="fill:none;fill-rule:evenodd;stroke:#000000;stroke-width:2.0px;stroke-linecap:butt;stroke-linejoin:miter;stroke-opacity:1"/>
<path class="bond-16 atom-16 atom-17" d="M 262.1,74.1 L 266.0,87.6" style="fill:none;fill-rule:evenodd;stroke:#000000;stroke-width:2.0px;stroke-linecap:butt;stroke-linejoin:miter;stroke-opacity:1"/>
<path class="bond-16 atom-16 atom-17" d="M 266.0,87.6 L 269.8,101.0" style="fill:none;fill-rule:evenodd;stroke:#FF0000;stroke-width:2.0px;stroke-linecap:butt;stroke-linejoin:miter;stroke-opacity:1"/>
<path class="bond-17 atom-11 atom-18" d="M 172.0,82.1 L 181.4,115.0" style="fill:none;fill-rule:evenodd;stroke:#000000;stroke-width:2.0px;stroke-linecap:butt;stroke-linejoin:miter;stroke-opacity:1"/>
<path class="bond-18 atom-18 atom-19" d="M 180.6,112.2 L 171.0,122.2" style="fill:none;fill-rule:evenodd;stroke:#000000;stroke-width:2.0px;stroke-linecap:butt;stroke-linejoin:miter;stroke-opacity:1"/>
<path class="bond-18 atom-18 atom-19" d="M 171.0,122.2 L 161.4,132.1" style="fill:none;fill-rule:evenodd;stroke:#FF0000;stroke-width:2.0px;stroke-linecap:butt;stroke-linejoin:miter;stroke-opacity:1"/>
<path class="bond-18 atom-18 atom-19" d="M 184.2,115.7 L 174.6,125.6" style="fill:none;fill-rule:evenodd;stroke:#000000;stroke-width:2.0px;stroke-linecap:butt;stroke-linejoin:miter;stroke-opacity:1"/>
<path class="bond-18 atom-18 atom-19" d="M 174.6,125.6 L 164.9,135.5" style="fill:none;fill-rule:evenodd;stroke:#FF0000;stroke-width:2.0px;stroke-linecap:butt;stroke-linejoin:miter;stroke-opacity:1"/>
<path class="bond-19 atom-18 atom-20" d="M 181.4,115.0 L 195.2,118.4" style="fill:none;fill-rule:evenodd;stroke:#000000;stroke-width:2.0px;stroke-linecap:butt;stroke-linejoin:miter;stroke-opacity:1"/>
<path class="bond-19 atom-18 atom-20" d="M 195.2,118.4 L 209.0,121.9" style="fill:none;fill-rule:evenodd;stroke:#FF0000;stroke-width:2.0px;stroke-linecap:butt;stroke-linejoin:miter;stroke-opacity:1"/>
<path class="bond-20 atom-3 atom-21" d="M 57.6,84.0 L 67.0,116.9" style="fill:none;fill-rule:evenodd;stroke:#000000;stroke-width:2.0px;stroke-linecap:butt;stroke-linejoin:miter;stroke-opacity:1"/>
<path class="bond-21 atom-21 atom-22" d="M 65.1,118.8 L 72.3,121.5" style="fill:none;fill-rule:evenodd;stroke:#000000;stroke-width:2.0px;stroke-linecap:butt;stroke-linejoin:miter;stroke-opacity:1"/>
<path class="bond-21 atom-21 atom-22" d="M 72.3,121.5 L 79.4,124.3" style="fill:none;fill-rule:evenodd;stroke:#FF0000;stroke-width:2.0px;stroke-linecap:butt;stroke-linejoin:miter;stroke-opacity:1"/>
<path class="bond-21 atom-21 atom-22" d="M 66.2,113.9 L 74.1,116.9" style="fill:none;fill-rule:evenodd;stroke:#000000;stroke-width:2.0px;stroke-linecap:butt;stroke-linejoin:miter;stroke-opacity:1"/>
<path class="bond-21 atom-21 atom-22" d="M 74.1,116.9 L 81.2,119.7" style="fill:none;fill-rule:evenodd;stroke:#FF0000;stroke-width:2.0px;stroke-linecap:butt;stroke-linejoin:miter;stroke-opacity:1"/>
<path class="bond-22 atom-21 atom-23" d="M 67.0,116.9 L 57.9,126.3" style="fill:none;fill-rule:evenodd;stroke:#000000;stroke-width:2.0px;stroke-linecap:butt;stroke-linejoin:miter;stroke-opacity:1"/>
<path class="bond-22 atom-21 atom-23" d="M 57.9,126.3 L 48.8,135.7" style="fill:none;fill-rule:evenodd;stroke:#FF0000;stroke-width:2.0px;stroke-linecap:butt;stroke-linejoin:miter;stroke-opacity:1"/>
<path d="M 88.8,75.1 L 90.5,74.6 L 91.7,75.8" style="fill:none;stroke:#000000;stroke-width:2.0px;stroke-linecap:butt;stroke-linejoin:miter;stroke-opacity:1;"/>
<path d="M 138.4,121.0 L 139.6,122.1 L 139.5,122.8" style="fill:none;stroke:#000000;stroke-width:2.0px;stroke-linecap:butt;stroke-linejoin:miter;stroke-opacity:1;"/>
<path d="M 137.7,75.0 L 138.8,73.8 L 140.5,74.2" style="fill:none;stroke:#000000;stroke-width:2.0px;stroke-linecap:butt;stroke-linejoin:miter;stroke-opacity:1;"/>
<path d="M 194.6,58.7 L 195.8,57.5 L 197.4,57.9" style="fill:none;stroke:#000000;stroke-width:2.0px;stroke-linecap:butt;stroke-linejoin:miter;stroke-opacity:1;"/>
<path d="M 260.5,73.7 L 262.1,74.1 L 262.3,74.8" style="fill:none;stroke:#000000;stroke-width:2.0px;stroke-linecap:butt;stroke-linejoin:miter;stroke-opacity:1;"/>
<path d="M 180.9,113.3 L 181.4,115.0 L 182.1,115.1" style="fill:none;stroke:#000000;stroke-width:2.0px;stroke-linecap:butt;stroke-linejoin:miter;stroke-opacity:1;"/>
<path d="M 66.5,115.2 L 67.0,116.9 L 66.6,117.3" style="fill:none;stroke:#000000;stroke-width:2.0px;stroke-linecap:butt;stroke-linejoin:miter;stroke-opacity:1;"/>
<path class="atom-2" d="M 67.5 26.6 Q 67.5 24.2, 68.7 22.9 Q 69.8 21.6, 72.0 21.6 Q 74.1 21.6, 75.3 22.9 Q 76.4 24.2, 76.4 26.6 Q 76.4 28.9, 75.3 30.3 Q 74.1 31.6, 72.0 31.6 Q 69.9 31.6, 68.7 30.3 Q 67.5 28.9, 67.5 26.6 M 72.0 30.5 Q 73.5 30.5, 74.3 29.5 Q 75.1 28.5, 75.1 26.6 Q 75.1 24.7, 74.3 23.7 Q 73.5 22.7, 72.0 22.7 Q 70.5 22.7, 69.7 23.7 Q 68.9 24.7, 68.9 26.6 Q 68.9 28.5, 69.7 29.5 Q 70.5 30.5, 72.0 30.5 " fill="#FF0000"/>
<path class="atom-2" d="M 77.9 21.8 L 79.3 21.8 L 79.3 25.9 L 84.2 25.9 L 84.2 21.8 L 85.5 21.8 L 85.5 31.4 L 84.2 31.4 L 84.2 27.0 L 79.3 27.0 L 79.3 31.4 L 77.9 31.4 L 77.9 21.8 " fill="#FF0000"/>
<path class="atom-9" d="M 126.9 155.3 Q 126.9 153.0, 128.0 151.7 Q 129.2 150.4, 131.3 150.4 Q 133.5 150.4, 134.6 151.7 Q 135.8 153.0, 135.8 155.3 Q 135.8 157.7, 134.6 159.0 Q 133.5 160.4, 131.3 160.4 Q 129.2 160.4, 128.0 159.0 Q 126.9 157.7, 126.9 155.3 M 131.3 159.3 Q 132.8 159.3, 133.6 158.3 Q 134.4 157.3, 134.4 155.3 Q 134.4 153.4, 133.6 152.5 Q 132.8 151.5, 131.3 151.5 Q 129.9 151.5, 129.1 152.5 Q 128.3 153.4, 128.3 155.3 Q 128.3 157.3, 129.1 158.3 Q 129.9 159.3, 131.3 159.3 " fill="#FF0000"/>
<path class="atom-9" d="M 137.3 150.5 L 138.6 150.5 L 138.6 154.6 L 143.6 154.6 L 143.6 150.5 L 144.9 150.5 L 144.9 160.2 L 143.6 160.2 L 143.6 155.7 L 138.6 155.7 L 138.6 160.2 L 137.3 160.2 L 137.3 150.5 " fill="#FF0000"/>
<path class="atom-17" d="M 267.1 107.0 Q 267.1 104.7, 268.2 103.4 Q 269.4 102.1, 271.5 102.1 Q 273.7 102.1, 274.8 103.4 Q 276.0 104.7, 276.0 107.0 Q 276.0 109.4, 274.8 110.7 Q 273.6 112.0, 271.5 112.0 Q 269.4 112.0, 268.2 110.7 Q 267.1 109.4, 267.1 107.0 M 271.5 110.9 Q 273.0 110.9, 273.8 110.0 Q 274.6 109.0, 274.6 107.0 Q 274.6 105.1, 273.8 104.2 Q 273.0 103.2, 271.5 103.2 Q 270.0 103.2, 269.2 104.2 Q 268.4 105.1, 268.4 107.0 Q 268.4 109.0, 269.2 110.0 Q 270.0 110.9, 271.5 110.9 " fill="#FF0000"/>
<path class="atom-17" d="M 277.5 102.2 L 278.8 102.2 L 278.8 106.3 L 283.7 106.3 L 283.7 102.2 L 285.1 102.2 L 285.1 111.9 L 283.7 111.9 L 283.7 107.4 L 278.8 107.4 L 278.8 111.9 L 277.5 111.9 L 277.5 102.2 " fill="#FF0000"/>
<path class="atom-19" d="M 153.2 139.6 Q 153.2 137.2, 154.3 135.9 Q 155.5 134.6, 157.6 134.6 Q 159.8 134.6, 160.9 135.9 Q 162.1 137.2, 162.1 139.6 Q 162.1 141.9, 160.9 143.3 Q 159.8 144.6, 157.6 144.6 Q 155.5 144.6, 154.3 143.3 Q 153.2 141.9, 153.2 139.6 M 157.6 143.5 Q 159.1 143.5, 159.9 142.5 Q 160.7 141.5, 160.7 139.6 Q 160.7 137.7, 159.9 136.7 Q 159.1 135.7, 157.6 135.7 Q 156.2 135.7, 155.3 136.7 Q 154.6 137.7, 154.6 139.6 Q 154.6 141.5, 155.3 142.5 Q 156.2 143.5, 157.6 143.5 " fill="#FF0000"/>
<path class="atom-20" d="M 210.1 123.3 Q 210.1 121.0, 211.3 119.7 Q 212.4 118.4, 214.6 118.4 Q 216.7 118.4, 217.9 119.7 Q 219.0 121.0, 219.0 123.3 Q 219.0 125.7, 217.9 127.0 Q 216.7 128.3, 214.6 128.3 Q 212.4 128.3, 211.3 127.0 Q 210.1 125.7, 210.1 123.3 M 214.6 127.2 Q 216.1 127.2, 216.8 126.2 Q 217.7 125.2, 217.7 123.3 Q 217.7 121.4, 216.8 120.4 Q 216.1 119.5, 214.6 119.5 Q 213.1 119.5, 212.3 120.4 Q 211.5 121.4, 211.5 123.3 Q 211.5 125.3, 212.3 126.2 Q 213.1 127.2, 214.6 127.2 " fill="#FF0000"/>
<path class="atom-20" d="M 220.5 118.5 L 221.8 118.5 L 221.8 122.6 L 226.8 122.6 L 226.8 118.5 L 228.1 118.5 L 228.1 128.2 L 226.8 128.2 L 226.8 123.7 L 221.8 123.7 L 221.8 128.2 L 220.5 128.2 L 220.5 118.5 " fill="#FF0000"/>
<path class="atom-22" d="M 81.4 124.1 Q 81.4 121.8, 82.6 120.5 Q 83.7 119.2, 85.9 119.2 Q 88.0 119.2, 89.2 120.5 Q 90.3 121.8, 90.3 124.1 Q 90.3 126.5, 89.1 127.8 Q 88.0 129.2, 85.9 129.2 Q 83.7 129.2, 82.6 127.8 Q 81.4 126.5, 81.4 124.1 M 85.9 128.1 Q 87.3 128.1, 88.1 127.1 Q 88.9 126.1, 88.9 124.1 Q 88.9 122.2, 88.1 121.3 Q 87.3 120.3, 85.9 120.3 Q 84.4 120.3, 83.6 121.3 Q 82.8 122.2, 82.8 124.1 Q 82.8 126.1, 83.6 127.1 Q 84.4 128.1, 85.9 128.1 " fill="#FF0000"/>
<path class="atom-23" d="M 29.2 136.7 L 30.5 136.7 L 30.5 140.8 L 35.5 140.8 L 35.5 136.7 L 36.8 136.7 L 36.8 146.3 L 35.5 146.3 L 35.5 141.9 L 30.5 141.9 L 30.5 146.3 L 29.2 146.3 L 29.2 136.7 " fill="#FF0000"/>
<path class="atom-23" d="M 38.8 141.5 Q 38.8 139.1, 39.9 137.8 Q 41.1 136.5, 43.2 136.5 Q 45.4 136.5, 46.5 137.8 Q 47.7 139.1, 47.7 141.5 Q 47.7 143.8, 46.5 145.2 Q 45.4 146.5, 43.2 146.5 Q 41.1 146.5, 39.9 145.2 Q 38.8 143.8, 38.8 141.5 M 43.2 145.4 Q 44.7 145.4, 45.5 144.4 Q 46.3 143.4, 46.3 141.5 Q 46.3 139.6, 45.5 138.6 Q 44.7 137.6, 43.2 137.6 Q 41.8 137.6, 41.0 138.6 Q 40.2 139.6, 40.2 141.5 Q 40.2 143.4, 41.0 144.4 Q 41.8 145.4, 43.2 145.4 " fill="#FF0000"/>
<path class="legend" d="M 141.5 181.9 Q 141.5 179.6, 142.2 177.7 Q 142.9 175.8, 144.2 173.8 L 145.1 174.4 Q 144.0 176.3, 143.5 178.0 Q 143.0 179.7, 143.0 181.9 Q 143.0 184.0, 143.5 185.8 Q 144.0 187.5, 145.1 189.4 L 144.2 190.0 Q 142.9 188.0, 142.2 186.1 Q 141.5 184.2, 141.5 181.9 " fill="#000000"/>
<path class="legend" d="M 146.0 177.3 Q 146.4 176.2, 147.4 175.6 Q 148.4 175.0, 149.8 175.0 Q 151.5 175.0, 152.4 175.9 Q 153.4 176.8, 153.4 178.5 Q 153.4 180.2, 152.1 181.7 Q 150.9 183.3, 148.4 185.2 L 153.6 185.2 L 153.6 186.4 L 146.0 186.4 L 146.0 185.4 Q 148.1 183.9, 149.3 182.8 Q 150.6 181.6, 151.2 180.6 Q 151.8 179.6, 151.8 178.6 Q 151.8 177.5, 151.2 176.9 Q 150.7 176.3, 149.8 176.3 Q 148.8 176.3, 148.2 176.6 Q 147.6 177.0, 147.2 177.8 L 146.0 177.3 " fill="#000000"/>
<path class="legend" d="M 158.6 181.9 Q 158.6 184.2, 157.9 186.1 Q 157.2 188.0, 155.9 190.0 L 155.0 189.4 Q 156.1 187.5, 156.6 185.8 Q 157.1 184.0, 157.1 181.9 Q 157.1 179.7, 156.6 178.0 Q 156.1 176.3, 155.0 174.4 L 155.9 173.8 Q 157.2 175.8, 157.9 177.7 Q 158.6 179.6, 158.6 181.9 " fill="#000000"/>
</g>
    <g transform="translate(301.0, 0) scale(1 1) "><line x1="5" y1="100" x2="35" y2="100" style="stroke:rgb(0,0,0);stroke-width:2"/>
  <line x1="34" y1="100" x2="29" y2="95" style="stroke:rgb(0,0,0);stroke-width:2"/>
  <line x1="34" y1="100" x2="29" y2="105" style="stroke:rgb(0,0,0);stroke-width:2"/>
</g>
    <g transform="translate(341.0, 0) scale(1 1) "><!-- END OF HEADER -->
<rect style="opacity:1.0;fill:#FFFFFF;stroke:none" width="343.0" height="200.0" x="0.0" y="0.0"> </rect>
<path class="bond-0 atom-0 atom-1" d="M 151.0,10.0 L 152.7,37.0" style="fill:none;fill-rule:evenodd;stroke:#000000;stroke-width:2.0px;stroke-linecap:butt;stroke-linejoin:miter;stroke-opacity:1"/>
<path class="bond-1 atom-1 atom-2" d="M 152.7,37.0 L 162.6,41.9" style="fill:none;fill-rule:evenodd;stroke:#000000;stroke-width:2.0px;stroke-linecap:butt;stroke-linejoin:miter;stroke-opacity:1"/>
<path class="bond-1 atom-1 atom-2" d="M 162.6,41.9 L 172.6,46.9" style="fill:none;fill-rule:evenodd;stroke:#FF0000;stroke-width:2.0px;stroke-linecap:butt;stroke-linejoin:miter;stroke-opacity:1"/>
<path class="bond-2 atom-1 atom-3" d="M 152.7,37.0 L 130.2,52.1" style="fill:none;fill-rule:evenodd;stroke:#000000;stroke-width:2.0px;stroke-linecap:butt;stroke-linejoin:miter;stroke-opacity:1"/>
<path class="bond-3 atom-3 atom-4" d="M 130.2,52.1 L 115.1,29.5" style="fill:none;fill-rule:evenodd;stroke:#000000;stroke-width:2.0px;stroke-linecap:butt;stroke-linejoin:miter;stroke-opacity:1"/>
<path class="bond-4 atom-3 atom-5" d="M 130.2,52.1 L 145.2,74.6" style="fill:none;fill-rule:evenodd;stroke:#000000;stroke-width:2.0px;stroke-linecap:butt;stroke-linejoin:miter;stroke-opacity:1"/>
<path class="bond-5 atom-5 atom-6" d="M 145.2,74.6 L 133.2,98.9" style="fill:none;fill-rule:evenodd;stroke:#000000;stroke-width:2.0px;stroke-linecap:butt;stroke-linejoin:miter;stroke-opacity:1"/>
<path class="bond-6 atom-6 atom-7" d="M 133.2,98.9 L 121.2,123.2" style="fill:none;fill-rule:evenodd;stroke:#000000;stroke-width:2.0px;stroke-linecap:butt;stroke-linejoin:miter;stroke-opacity:1"/>
<path class="bond-7 atom-7 atom-8" d="M 121.2,123.2 L 127.1,132.0" style="fill:none;fill-rule:evenodd;stroke:#000000;stroke-width:2.0px;stroke-linecap:butt;stroke-linejoin:miter;stroke-opacity:1"/>
<path class="bond-7 atom-7 atom-8" d="M 127.1,132.0 L 133.0,140.9" style="fill:none;fill-rule:evenodd;stroke:#FF0000;stroke-width:2.0px;stroke-linecap:butt;stroke-linejoin:miter;stroke-opacity:1"/>
<path class="bond-8 atom-6 atom-9" d="M 133.2,98.9 L 108.9,86.9" style="fill:none;fill-rule:evenodd;stroke:#000000;stroke-width:2.0px;stroke-linecap:butt;stroke-linejoin:miter;stroke-opacity:1"/>
<path class="bond-9 atom-9 atom-10" d="M 108.9,86.9 L 86.4,101.9" style="fill:none;fill-rule:evenodd;stroke:#000000;stroke-width:2.0px;stroke-linecap:butt;stroke-linejoin:miter;stroke-opacity:1"/>
<path class="bond-10 atom-10 atom-11" d="M 86.4,101.9 L 88.1,128.9" style="fill:none;fill-rule:evenodd;stroke:#000000;stroke-width:2.0px;stroke-linecap:butt;stroke-linejoin:miter;stroke-opacity:1"/>
<path class="bond-11 atom-11 atom-12" d="M 88.1,128.9 L 65.6,143.9" style="fill:none;fill-rule:evenodd;stroke:#000000;stroke-width:2.0px;stroke-linecap:butt;stroke-linejoin:miter;stroke-opacity:1"/>
<path class="bond-12 atom-12 atom-13" d="M 65.6,143.9 L 50.5,121.4" style="fill:none;fill-rule:evenodd;stroke:#000000;stroke-width:2.0px;stroke-linecap:butt;stroke-linejoin:miter;stroke-opacity:1"/>
<path class="bond-13 atom-12 atom-14" d="M 65.6,143.9 L 80.6,166.5" style="fill:none;fill-rule:evenodd;stroke:#000000;stroke-width:2.0px;stroke-linecap:butt;stroke-linejoin:miter;stroke-opacity:1"/>
<path class="bond-14 atom-12 atom-15" d="M 65.6,143.9 L 43.0,159.0" style="fill:none;fill-rule:evenodd;stroke:#000000;stroke-width:2.0px;stroke-linecap:butt;stroke-linejoin:miter;stroke-opacity:1"/>
<path class="bond-15 atom-15 atom-16" d="M 43.0,159.0 L 43.7,170.1" style="fill:none;fill-rule:evenodd;stroke:#000000;stroke-width:2.0px;stroke-linecap:butt;stroke-linejoin:miter;stroke-opacity:1"/>
<path class="bond-15 atom-15 atom-16" d="M 43.7,170.1 L 44.4,181.2" style="fill:none;fill-rule:evenodd;stroke:#FF0000;stroke-width:2.0px;stroke-linecap:butt;stroke-linejoin:miter;stroke-opacity:1"/>
<path class="bond-16 atom-10 atom-17" d="M 86.4,101.9 L 62.1,89.9" style="fill:none;fill-rule:evenodd;stroke:#000000;stroke-width:2.0px;stroke-linecap:butt;stroke-linejoin:miter;stroke-opacity:1"/>
<path class="bond-17 atom-17 atom-18" d="M 64.1,90.9 L 63.4,79.3" style="fill:none;fill-rule:evenodd;stroke:#000000;stroke-width:2.0px;stroke-linecap:butt;stroke-linejoin:miter;stroke-opacity:1"/>
<path class="bond-17 atom-17 atom-18" d="M 63.4,79.3 L 62.6,67.6" style="fill:none;fill-rule:evenodd;stroke:#FF0000;stroke-width:2.0px;stroke-linecap:butt;stroke-linejoin:miter;stroke-opacity:1"/>
<path class="bond-17 atom-17 atom-18" d="M 60.1,91.2 L 59.4,79.5" style="fill:none;fill-rule:evenodd;stroke:#000000;stroke-width:2.0px;stroke-linecap:butt;stroke-linejoin:miter;stroke-opacity:1"/>
<path class="bond-17 atom-17 atom-18" d="M 59.4,79.5 L 58.6,67.9" style="fill:none;fill-rule:evenodd;stroke:#FF0000;stroke-width:2.0px;stroke-linecap:butt;stroke-linejoin:miter;stroke-opacity:1"/>
<path class="bond-18 atom-17 atom-19" d="M 62.1,89.9 L 53.0,95.9" style="fill:none;fill-rule:evenodd;stroke:#000000;stroke-width:2.0px;stroke-linecap:butt;stroke-linejoin:miter;stroke-opacity:1"/>
<path class="bond-18 atom-17 atom-19" d="M 53.0,95.9 L 43.9,102.0" style="fill:none;fill-rule:evenodd;stroke:#FF0000;stroke-width:2.0px;stroke-linecap:butt;stroke-linejoin:miter;stroke-opacity:1"/>
<path class="bond-19 atom-6 atom-20" d="M 133.2,98.9 L 157.5,110.9" style="fill:none;fill-rule:evenodd;stroke:#000000;stroke-width:2.0px;stroke-linecap:butt;stroke-linejoin:miter;stroke-opacity:1"/>
<path class="bond-20 atom-20 atom-21" d="M 157.5,110.9 L 180.0,95.9" style="fill:none;fill-rule:evenodd;stroke:#000000;stroke-width:2.0px;stroke-linecap:butt;stroke-linejoin:miter;stroke-opacity:1"/>
<path class="bond-21 atom-21 atom-22" d="M 180.0,95.9 L 165.0,73.3" style="fill:none;fill-rule:evenodd;stroke:#000000;stroke-width:2.0px;stroke-linecap:butt;stroke-linejoin:miter;stroke-opacity:1"/>
<path class="bond-22 atom-21 atom-23" d="M 180.0,95.9 L 202.5,80.8" style="fill:none;fill-rule:evenodd;stroke:#000000;stroke-width:2.0px;stroke-linecap:butt;stroke-linejoin:miter;stroke-opacity:1"/>
<path class="bond-23 atom-23 atom-24" d="M 202.5,80.8 L 201.8,69.8" style="fill:none;fill-rule:evenodd;stroke:#000000;stroke-width:2.0px;stroke-linecap:butt;stroke-linejoin:miter;stroke-opacity:1"/>
<path class="bond-23 atom-23 atom-24" d="M 201.8,69.8 L 201.1,58.7" style="fill:none;fill-rule:evenodd;stroke:#FF0000;stroke-width:2.0px;stroke-linecap:butt;stroke-linejoin:miter;stroke-opacity:1"/>
<path class="bond-24 atom-21 atom-25" d="M 180.0,95.9 L 195.0,118.4" style="fill:none;fill-rule:evenodd;stroke:#000000;stroke-width:2.0px;stroke-linecap:butt;stroke-linejoin:miter;stroke-opacity:1"/>
<path class="bond-25 atom-25 atom-26" d="M 195.0,118.4 L 222.1,116.7" style="fill:none;fill-rule:evenodd;stroke:#000000;stroke-width:2.0px;stroke-linecap:butt;stroke-linejoin:miter;stroke-opacity:1"/>
<path class="bond-26 atom-26 atom-27" d="M 222.1,116.7 L 237.1,139.2" style="fill:none;fill-rule:evenodd;stroke:#000000;stroke-width:2.0px;stroke-linecap:butt;stroke-linejoin:miter;stroke-opacity:1"/>
<path class="bond-27 atom-27 atom-28" d="M 237.1,139.2 L 264.1,137.5" style="fill:none;fill-rule:evenodd;stroke:#000000;stroke-width:2.0px;stroke-linecap:butt;stroke-linejoin:miter;stroke-opacity:1"/>
<path class="bond-28 atom-28 atom-29" d="M 264.1,137.5 L 262.4,110.4" style="fill:none;fill-rule:evenodd;stroke:#000000;stroke-width:2.0px;stroke-linecap:butt;stroke-linejoin:miter;stroke-opacity:1"/>
<path class="bond-29 atom-28 atom-30" d="M 264.1,137.5 L 265.8,164.5" style="fill:none;fill-rule:evenodd;stroke:#000000;stroke-width:2.0px;stroke-linecap:butt;stroke-linejoin:miter;stroke-opacity:1"/>
<path class="bond-30 atom-28 atom-31" d="M 264.1,137.5 L 291.1,135.7" style="fill:none;fill-rule:evenodd;stroke:#000000;stroke-width:2.0px;stroke-linecap:butt;stroke-linejoin:miter;stroke-opacity:1"/>
<path class="bond-31 atom-31 atom-32" d="M 291.1,135.7 L 295.9,126.0" style="fill:none;fill-rule:evenodd;stroke:#000000;stroke-width:2.0px;stroke-linecap:butt;stroke-linejoin:miter;stroke-opacity:1"/>
<path class="bond-31 atom-31 atom-32" d="M 295.9,126.0 L 300.7,116.3" style="fill:none;fill-rule:evenodd;stroke:#FF0000;stroke-width:2.0px;stroke-linecap:butt;stroke-linejoin:miter;stroke-opacity:1"/>
<path class="bond-32 atom-26 atom-33" d="M 222.1,116.7 L 234.1,92.4" style="fill:none;fill-rule:evenodd;stroke:#000000;stroke-width:2.0px;stroke-linecap:butt;stroke-linejoin:miter;stroke-opacity:1"/>
<path class="bond-33 atom-33 atom-34" d="M 236.4,92.2 L 230.2,82.9" style="fill:none;fill-rule:evenodd;stroke:#000000;stroke-width:2.0px;stroke-linecap:butt;stroke-linejoin:miter;stroke-opacity:1"/>
<path class="bond-33 atom-33 atom-34" d="M 230.2,82.9 L 224.0,73.6" style="fill:none;fill-rule:evenodd;stroke:#FF0000;stroke-width:2.0px;stroke-linecap:butt;stroke-linejoin:miter;stroke-opacity:1"/>
<path class="bond-33 atom-33 atom-34" d="M 233.0,94.5 L 226.8,85.1" style="fill:none;fill-rule:evenodd;stroke:#000000;stroke-width:2.0px;stroke-linecap:butt;stroke-linejoin:miter;stroke-opacity:1"/>
<path class="bond-33 atom-33 atom-34" d="M 226.8,85.1 L 220.6,75.8" style="fill:none;fill-rule:evenodd;stroke:#FF0000;stroke-width:2.0px;stroke-linecap:butt;stroke-linejoin:miter;stroke-opacity:1"/>
<path class="bond-34 atom-33 atom-35" d="M 234.1,92.4 L 245.4,91.7" style="fill:none;fill-rule:evenodd;stroke:#000000;stroke-width:2.0px;stroke-linecap:butt;stroke-linejoin:miter;stroke-opacity:1"/>
<path class="bond-34 atom-33 atom-35" d="M 245.4,91.7 L 256.7,90.9" style="fill:none;fill-rule:evenodd;stroke:#FF0000;stroke-width:2.0px;stroke-linecap:butt;stroke-linejoin:miter;stroke-opacity:1"/>
<path class="bond-35 atom-3 atom-36" d="M 130.2,52.1 L 107.6,67.1" style="fill:none;fill-rule:evenodd;stroke:#000000;stroke-width:2.0px;stroke-linecap:butt;stroke-linejoin:miter;stroke-opacity:1"/>
<path class="bond-36 atom-36 atom-37" d="M 105.7,66.2 L 104.8,71.1" style="fill:none;fill-rule:evenodd;stroke:#000000;stroke-width:2.0px;stroke-linecap:butt;stroke-linejoin:miter;stroke-opacity:1"/>
<path class="bond-36 atom-36 atom-37" d="M 104.8,71.1 L 103.9,76.1" style="fill:none;fill-rule:evenodd;stroke:#FF0000;stroke-width:2.0px;stroke-linecap:butt;stroke-linejoin:miter;stroke-opacity:1"/>
<path class="bond-36 atom-36 atom-37" d="M 109.9,65.5 L 108.8,71.9" style="fill:none;fill-rule:evenodd;stroke:#000000;stroke-width:2.0px;stroke-linecap:butt;stroke-linejoin:miter;stroke-opacity:1"/>
<path class="bond-36 atom-36 atom-37" d="M 108.8,71.9 L 107.9,76.8" style="fill:none;fill-rule:evenodd;stroke:#FF0000;stroke-width:2.0px;stroke-linecap:butt;stroke-linejoin:miter;stroke-opacity:1"/>
<path class="bond-37 atom-36 atom-38" d="M 107.6,67.1 L 97.7,62.2" style="fill:none;fill-rule:evenodd;stroke:#000000;stroke-width:2.0px;stroke-linecap:butt;stroke-linejoin:miter;stroke-opacity:1"/>
<path class="bond-37 atom-36 atom-38" d="M 97.7,62.2 L 87.7,57.2" style="fill:none;fill-rule:evenodd;stroke:#FF0000;stroke-width:2.0px;stroke-linecap:butt;stroke-linejoin:miter;stroke-opacity:1"/>
<path d="M 144.4,73.5 L 145.2,74.6 L 144.6,75.8" style="fill:none;stroke:#000000;stroke-width:2.0px;stroke-linecap:butt;stroke-linejoin:miter;stroke-opacity:1;"/>
<path d="M 121.8,121.9 L 121.2,123.2 L 121.5,123.6" style="fill:none;stroke:#000000;stroke-width:2.0px;stroke-linecap:butt;stroke-linejoin:miter;stroke-opacity:1;"/>
<path d="M 110.1,87.5 L 108.9,86.9 L 107.8,87.6" style="fill:none;stroke:#000000;stroke-width:2.0px;stroke-linecap:butt;stroke-linejoin:miter;stroke-opacity:1;"/>
<path d="M 88.0,127.6 L 88.1,128.9 L 87.0,129.7" style="fill:none;stroke:#000000;stroke-width:2.0px;stroke-linecap:butt;stroke-linejoin:miter;stroke-opacity:1;"/>
<path d="M 44.1,158.2 L 43.0,159.0 L 43.0,159.5" style="fill:none;stroke:#000000;stroke-width:2.0px;stroke-linecap:butt;stroke-linejoin:miter;stroke-opacity:1;"/>
<path d="M 63.3,90.5 L 62.1,89.9 L 61.6,90.2" style="fill:none;stroke:#000000;stroke-width:2.0px;stroke-linecap:butt;stroke-linejoin:miter;stroke-opacity:1;"/>
<path d="M 156.2,110.3 L 157.5,110.9 L 158.6,110.1" style="fill:none;stroke:#000000;stroke-width:2.0px;stroke-linecap:butt;stroke-linejoin:miter;stroke-opacity:1;"/>
<path d="M 201.4,81.6 L 202.5,80.8 L 202.5,80.3" style="fill:none;stroke:#000000;stroke-width:2.0px;stroke-linecap:butt;stroke-linejoin:miter;stroke-opacity:1;"/>
<path d="M 194.3,117.3 L 195.0,118.4 L 196.4,118.3" style="fill:none;stroke:#000000;stroke-width:2.0px;stroke-linecap:butt;stroke-linejoin:miter;stroke-opacity:1;"/>
<path d="M 236.3,138.1 L 237.1,139.2 L 238.4,139.1" style="fill:none;stroke:#000000;stroke-width:2.0px;stroke-linecap:butt;stroke-linejoin:miter;stroke-opacity:1;"/>
<path d="M 289.8,135.8 L 291.1,135.7 L 291.4,135.2" style="fill:none;stroke:#000000;stroke-width:2.0px;stroke-linecap:butt;stroke-linejoin:miter;stroke-opacity:1;"/>
<path d="M 233.5,93.6 L 234.1,92.4 L 234.6,92.3" style="fill:none;stroke:#000000;stroke-width:2.0px;stroke-linecap:butt;stroke-linejoin:miter;stroke-opacity:1;"/>
<path d="M 108.7,66.3 L 107.6,67.1 L 107.1,66.8" style="fill:none;stroke:#000000;stroke-width:2.0px;stroke-linecap:butt;stroke-linejoin:miter;stroke-opacity:1;"/>
<path class="atom-2" d="M 173.5 49.1 Q 173.5 47.2, 174.4 46.2 Q 175.3 45.2, 177.0 45.2 Q 178.7 45.2, 179.6 46.2 Q 180.5 47.2, 180.5 49.1 Q 180.5 50.9, 179.6 52.0 Q 178.7 53.0, 177.0 53.0 Q 175.3 53.0, 174.4 52.0 Q 173.5 50.9, 173.5 49.1 M 177.0 52.2 Q 178.2 52.2, 178.8 51.4 Q 179.4 50.6, 179.4 49.1 Q 179.4 47.6, 178.8 46.8 Q 178.2 46.0, 177.0 46.0 Q 175.8 46.0, 175.2 46.8 Q 174.5 47.5, 174.5 49.1 Q 174.5 50.6, 175.2 51.4 Q 175.8 52.2, 177.0 52.2 " fill="#FF0000"/>
<path class="atom-2" d="M 181.7 45.2 L 182.7 45.2 L 182.7 48.5 L 186.7 48.5 L 186.7 45.2 L 187.7 45.2 L 187.7 52.9 L 186.7 52.9 L 186.7 49.4 L 182.7 49.4 L 182.7 52.9 L 181.7 52.9 L 181.7 45.2 " fill="#FF0000"/>
<path class="atom-8" d="M 132.7 145.7 Q 132.7 143.9, 133.6 142.8 Q 134.5 141.8, 136.2 141.8 Q 137.9 141.8, 138.8 142.8 Q 139.7 143.9, 139.7 145.7 Q 139.7 147.6, 138.8 148.6 Q 137.9 149.7, 136.2 149.7 Q 134.5 149.7, 133.6 148.6 Q 132.7 147.6, 132.7 145.7 M 136.2 148.8 Q 137.4 148.8, 138.0 148.0 Q 138.6 147.3, 138.6 145.7 Q 138.6 144.2, 138.0 143.5 Q 137.4 142.7, 136.2 142.7 Q 135.0 142.7, 134.4 143.4 Q 133.8 144.2, 133.8 145.7 Q 133.8 147.3, 134.4 148.0 Q 135.0 148.8, 136.2 148.8 " fill="#FF0000"/>
<path class="atom-8" d="M 140.9 141.9 L 141.9 141.9 L 141.9 145.2 L 145.9 145.2 L 145.9 141.9 L 146.9 141.9 L 146.9 149.6 L 145.9 149.6 L 145.9 146.0 L 141.9 146.0 L 141.9 149.6 L 140.9 149.6 L 140.9 141.9 " fill="#FF0000"/>
<path class="atom-16" d="M 41.2 186.0 Q 41.2 184.2, 42.1 183.2 Q 43.1 182.1, 44.8 182.1 Q 46.5 182.1, 47.4 183.2 Q 48.3 184.2, 48.3 186.0 Q 48.3 187.9, 47.4 188.9 Q 46.4 190.0, 44.8 190.0 Q 43.1 190.0, 42.1 188.9 Q 41.2 187.9, 41.2 186.0 M 44.8 189.1 Q 45.9 189.1, 46.6 188.4 Q 47.2 187.6, 47.2 186.0 Q 47.2 184.5, 46.6 183.8 Q 45.9 183.0, 44.8 183.0 Q 43.6 183.0, 42.9 183.7 Q 42.3 184.5, 42.3 186.0 Q 42.3 187.6, 42.9 188.4 Q 43.6 189.1, 44.8 189.1 " fill="#FF0000"/>
<path class="atom-16" d="M 49.5 182.2 L 50.5 182.2 L 50.5 185.5 L 54.4 185.5 L 54.4 182.2 L 55.5 182.2 L 55.5 189.9 L 54.4 189.9 L 54.4 186.3 L 50.5 186.3 L 50.5 189.9 L 49.5 189.9 L 49.5 182.2 " fill="#FF0000"/>
<path class="atom-18" d="M 56.8 62.9 Q 56.8 61.0, 57.7 60.0 Q 58.6 59.0, 60.3 59.0 Q 62.0 59.0, 62.9 60.0 Q 63.9 61.0, 63.9 62.9 Q 63.9 64.7, 62.9 65.8 Q 62.0 66.8, 60.3 66.8 Q 58.6 66.8, 57.7 65.8 Q 56.8 64.7, 56.8 62.9 M 60.3 66.0 Q 61.5 66.0, 62.1 65.2 Q 62.8 64.4, 62.8 62.9 Q 62.8 61.4, 62.1 60.6 Q 61.5 59.8, 60.3 59.8 Q 59.2 59.8, 58.5 60.6 Q 57.9 61.4, 57.9 62.9 Q 57.9 64.4, 58.5 65.2 Q 59.2 66.0, 60.3 66.0 " fill="#FF0000"/>
<path class="atom-19" d="M 28.4 101.1 L 29.5 101.1 L 29.5 104.4 L 33.4 104.4 L 33.4 101.1 L 34.4 101.1 L 34.4 108.8 L 33.4 108.8 L 33.4 105.2 L 29.5 105.2 L 29.5 108.8 L 28.4 108.8 L 28.4 101.1 " fill="#FF0000"/>
<path class="atom-19" d="M 36.0 104.9 Q 36.0 103.1, 36.9 102.1 Q 37.8 101.0, 39.5 101.0 Q 41.2 101.0, 42.1 102.1 Q 43.1 103.1, 43.1 104.9 Q 43.1 106.8, 42.1 107.9 Q 41.2 108.9, 39.5 108.9 Q 37.8 108.9, 36.9 107.9 Q 36.0 106.8, 36.0 104.9 M 39.5 108.0 Q 40.7 108.0, 41.3 107.3 Q 42.0 106.5, 42.0 104.9 Q 42.0 103.4, 41.3 102.7 Q 40.7 101.9, 39.5 101.9 Q 38.4 101.9, 37.7 102.7 Q 37.1 103.4, 37.1 104.9 Q 37.1 106.5, 37.7 107.3 Q 38.4 108.0, 39.5 108.0 " fill="#FF0000"/>
<path class="atom-24" d="M 197.3 53.8 Q 197.3 52.0, 198.2 51.0 Q 199.1 49.9, 200.8 49.9 Q 202.5 49.9, 203.4 51.0 Q 204.3 52.0, 204.3 53.8 Q 204.3 55.7, 203.4 56.8 Q 202.5 57.8, 200.8 57.8 Q 199.1 57.8, 198.2 56.8 Q 197.3 55.7, 197.3 53.8 M 200.8 56.9 Q 202.0 56.9, 202.6 56.2 Q 203.2 55.4, 203.2 53.8 Q 203.2 52.3, 202.6 51.6 Q 202.0 50.8, 200.8 50.8 Q 199.6 50.8, 199.0 51.6 Q 198.4 52.3, 198.4 53.8 Q 198.4 55.4, 199.0 56.2 Q 199.6 56.9, 200.8 56.9 " fill="#FF0000"/>
<path class="atom-24" d="M 205.5 50.0 L 206.6 50.0 L 206.6 53.3 L 210.5 53.3 L 210.5 50.0 L 211.5 50.0 L 211.5 57.7 L 210.5 57.7 L 210.5 54.1 L 206.6 54.1 L 206.6 57.7 L 205.5 57.7 L 205.5 50.0 " fill="#FF0000"/>
<path class="atom-32" d="M 299.6 111.5 Q 299.6 109.6, 300.5 108.6 Q 301.4 107.6, 303.1 107.6 Q 304.8 107.6, 305.8 108.6 Q 306.7 109.6, 306.7 111.5 Q 306.7 113.3, 305.7 114.4 Q 304.8 115.4, 303.1 115.4 Q 301.5 115.4, 300.5 114.4 Q 299.6 113.3, 299.6 111.5 M 303.1 114.6 Q 304.3 114.6, 304.9 113.8 Q 305.6 113.0, 305.6 111.5 Q 305.6 110.0, 304.9 109.2 Q 304.3 108.4, 303.1 108.4 Q 302.0 108.4, 301.3 109.2 Q 300.7 109.9, 300.7 111.5 Q 300.7 113.0, 301.3 113.8 Q 302.0 114.6, 303.1 114.6 " fill="#FF0000"/>
<path class="atom-32" d="M 307.9 107.6 L 308.9 107.6 L 308.9 110.9 L 312.8 110.9 L 312.8 107.6 L 313.9 107.6 L 313.9 115.3 L 312.8 115.3 L 312.8 111.8 L 308.9 111.8 L 308.9 115.3 L 307.9 115.3 L 307.9 107.6 " fill="#FF0000"/>
<path class="atom-34" d="M 215.5 69.9 Q 215.5 68.0, 216.4 67.0 Q 217.3 66.0, 219.0 66.0 Q 220.7 66.0, 221.6 67.0 Q 222.6 68.0, 222.6 69.9 Q 222.6 71.7, 221.6 72.8 Q 220.7 73.8, 219.0 73.8 Q 217.3 73.8, 216.4 72.8 Q 215.5 71.7, 215.5 69.9 M 219.0 73.0 Q 220.2 73.0, 220.8 72.2 Q 221.5 71.4, 221.5 69.9 Q 221.5 68.4, 220.8 67.6 Q 220.2 66.8, 219.0 66.8 Q 217.9 66.8, 217.2 67.6 Q 216.6 68.3, 216.6 69.9 Q 216.6 71.4, 217.2 72.2 Q 217.9 73.0, 219.0 73.0 " fill="#FF0000"/>
<path class="atom-35" d="M 257.6 90.7 Q 257.6 88.8, 258.5 87.8 Q 259.4 86.8, 261.1 86.8 Q 262.8 86.8, 263.7 87.8 Q 264.6 88.8, 264.6 90.7 Q 264.6 92.5, 263.7 93.6 Q 262.8 94.6, 261.1 94.6 Q 259.4 94.6, 258.5 93.6 Q 257.6 92.5, 257.6 90.7 M 261.1 93.8 Q 262.3 93.8, 262.9 93.0 Q 263.5 92.2, 263.5 90.7 Q 263.5 89.2, 262.9 88.4 Q 262.3 87.6, 261.1 87.6 Q 259.9 87.6, 259.3 88.4 Q 258.7 89.1, 258.7 90.7 Q 258.7 92.2, 259.3 93.0 Q 259.9 93.8, 261.1 93.8 " fill="#FF0000"/>
<path class="atom-35" d="M 265.8 86.8 L 266.8 86.8 L 266.8 90.1 L 270.8 90.1 L 270.8 86.8 L 271.8 86.8 L 271.8 94.5 L 270.8 94.5 L 270.8 91.0 L 266.8 91.0 L 266.8 94.5 L 265.8 94.5 L 265.8 86.8 " fill="#FF0000"/>
<path class="atom-37" d="M 101.5 81.3 Q 101.5 79.4, 102.4 78.4 Q 103.3 77.4, 105.0 77.4 Q 106.7 77.4, 107.7 78.4 Q 108.6 79.4, 108.6 81.3 Q 108.6 83.1, 107.6 84.2 Q 106.7 85.2, 105.0 85.2 Q 103.4 85.2, 102.4 84.2 Q 101.5 83.1, 101.5 81.3 M 105.0 84.4 Q 106.2 84.4, 106.8 83.6 Q 107.5 82.8, 107.5 81.3 Q 107.5 79.8, 106.8 79.0 Q 106.2 78.2, 105.0 78.2 Q 103.9 78.2, 103.2 79.0 Q 102.6 79.7, 102.6 81.3 Q 102.6 82.8, 103.2 83.6 Q 103.9 84.4, 105.0 84.4 " fill="#FF0000"/>
<path class="atom-38" d="M 72.2 51.3 L 73.3 51.3 L 73.3 54.5 L 77.2 54.5 L 77.2 51.3 L 78.2 51.3 L 78.2 58.9 L 77.2 58.9 L 77.2 55.4 L 73.3 55.4 L 73.3 58.9 L 72.2 58.9 L 72.2 51.3 " fill="#FF0000"/>
<path class="atom-38" d="M 79.8 55.1 Q 79.8 53.2, 80.7 52.2 Q 81.6 51.2, 83.3 51.2 Q 85.0 51.2, 86.0 52.2 Q 86.9 53.2, 86.9 55.1 Q 86.9 57.0, 85.9 58.0 Q 85.0 59.1, 83.3 59.1 Q 81.6 59.1, 80.7 58.0 Q 79.8 57.0, 79.8 55.1 M 83.3 58.2 Q 84.5 58.2, 85.1 57.4 Q 85.8 56.6, 85.8 55.1 Q 85.8 53.6, 85.1 52.8 Q 84.5 52.1, 83.3 52.1 Q 82.2 52.1, 81.5 52.8 Q 80.9 53.6, 80.9 55.1 Q 80.9 56.6, 81.5 57.4 Q 82.2 58.2, 83.3 58.2 " fill="#FF0000"/>
</g>
    <g transform="translate(684.0, 0) scale(1 1) "><line x1="15" y1="100" x2="25" y2="100" style="stroke:rgb(0,0,0);stroke-width:2"/>
  <line x1="20" y1="95" x2="20" y2="105" style="stroke:rgb(0,0,0);stroke-width:2"/>
</g>
    <g transform="translate(724.0, 0) scale(1 1) "><!-- END OF HEADER -->
<rect style="opacity:1.0;fill:#FFFFFF;stroke:none" width="215.0" height="200.0" x="0.0" y="0.0"> </rect>
<path class="bond-0 atom-0 atom-1" d="M 183.7,56.0 L 158.3,99.9" style="fill:none;fill-rule:evenodd;stroke:#000000;stroke-width:2.0px;stroke-linecap:butt;stroke-linejoin:miter;stroke-opacity:1"/>
<path class="bond-1 atom-1 atom-2" d="M 158.3,99.9 L 168.4,117.4" style="fill:none;fill-rule:evenodd;stroke:#000000;stroke-width:2.0px;stroke-linecap:butt;stroke-linejoin:miter;stroke-opacity:1"/>
<path class="bond-1 atom-1 atom-2" d="M 168.4,117.4 L 178.5,134.9" style="fill:none;fill-rule:evenodd;stroke:#FF0000;stroke-width:2.0px;stroke-linecap:butt;stroke-linejoin:miter;stroke-opacity:1"/>
<path class="bond-2 atom-1 atom-3" d="M 158.3,99.9 L 107.6,99.9" style="fill:none;fill-rule:evenodd;stroke:#000000;stroke-width:2.0px;stroke-linecap:butt;stroke-linejoin:miter;stroke-opacity:1"/>
<path class="bond-3 atom-3 atom-4" d="M 107.6,99.9 L 107.6,49.2" style="fill:none;fill-rule:evenodd;stroke:#000000;stroke-width:2.0px;stroke-linecap:butt;stroke-linejoin:miter;stroke-opacity:1"/>
<path class="bond-4 atom-3 atom-5" d="M 107.6,99.9 L 107.6,150.6" style="fill:none;fill-rule:evenodd;stroke:#000000;stroke-width:2.0px;stroke-linecap:butt;stroke-linejoin:miter;stroke-opacity:1"/>
<path class="bond-5 atom-3 atom-6" d="M 107.6,99.9 L 56.9,99.9" style="fill:none;fill-rule:evenodd;stroke:#000000;stroke-width:2.0px;stroke-linecap:butt;stroke-linejoin:miter;stroke-opacity:1"/>
<path class="bond-6 atom-6 atom-7" d="M 54.7,96.1 L 44.0,114.5" style="fill:none;fill-rule:evenodd;stroke:#000000;stroke-width:2.0px;stroke-linecap:butt;stroke-linejoin:miter;stroke-opacity:1"/>
<path class="bond-6 atom-6 atom-7" d="M 44.0,114.5 L 33.4,133.0" style="fill:none;fill-rule:evenodd;stroke:#FF0000;stroke-width:2.0px;stroke-linecap:butt;stroke-linejoin:miter;stroke-opacity:1"/>
<path class="bond-6 atom-6 atom-7" d="M 61.3,99.9 L 50.6,118.3" style="fill:none;fill-rule:evenodd;stroke:#000000;stroke-width:2.0px;stroke-linecap:butt;stroke-linejoin:miter;stroke-opacity:1"/>
<path class="bond-6 atom-6 atom-7" d="M 50.6,118.3 L 40.0,136.8" style="fill:none;fill-rule:evenodd;stroke:#FF0000;stroke-width:2.0px;stroke-linecap:butt;stroke-linejoin:miter;stroke-opacity:1"/>
<path class="bond-7 atom-6 atom-8" d="M 56.9,99.9 L 46.9,82.5" style="fill:none;fill-rule:evenodd;stroke:#000000;stroke-width:2.0px;stroke-linecap:butt;stroke-linejoin:miter;stroke-opacity:1"/>
<path class="bond-7 atom-6 atom-8" d="M 46.9,82.5 L 36.8,65.1" style="fill:none;fill-rule:evenodd;stroke:#FF0000;stroke-width:2.0px;stroke-linecap:butt;stroke-linejoin:miter;stroke-opacity:1"/>
<path d="M 59.4,99.9 L 56.9,99.9 L 56.4,99.0" style="fill:none;stroke:#000000;stroke-width:2.0px;stroke-linecap:butt;stroke-linejoin:miter;stroke-opacity:1;"/>
<path class="atom-2" d="M 177.1 143.9 Q 177.1 140.4, 178.8 138.5 Q 180.5 136.5, 183.7 136.5 Q 186.9 136.5, 188.6 138.5 Q 190.3 140.4, 190.3 143.9 Q 190.3 147.3, 188.6 149.3 Q 186.8 151.3, 183.7 151.3 Q 180.5 151.3, 178.8 149.3 Q 177.1 147.4, 177.1 143.9 M 183.7 149.7 Q 185.9 149.7, 187.0 148.2 Q 188.2 146.7, 188.2 143.9 Q 188.2 141.0, 187.0 139.6 Q 185.9 138.2, 183.7 138.2 Q 181.5 138.2, 180.3 139.6 Q 179.1 141.0, 179.1 143.9 Q 179.1 146.8, 180.3 148.2 Q 181.5 149.7, 183.7 149.7 " fill="#FF0000"/>
<path class="atom-2" d="M 192.5 136.7 L 194.5 136.7 L 194.5 142.8 L 201.8 142.8 L 201.8 136.7 L 203.7 136.7 L 203.7 151.1 L 201.8 151.1 L 201.8 144.4 L 194.5 144.4 L 194.5 151.1 L 192.5 151.1 L 192.5 136.7 " fill="#FF0000"/>
<path class="atom-7" d="M 24.9 143.9 Q 24.9 140.4, 26.6 138.5 Q 28.3 136.5, 31.5 136.5 Q 34.7 136.5, 36.4 138.5 Q 38.1 140.4, 38.1 143.9 Q 38.1 147.3, 36.4 149.3 Q 34.7 151.3, 31.5 151.3 Q 28.4 151.3, 26.6 149.3 Q 24.9 147.4, 24.9 143.9 M 31.5 149.7 Q 33.7 149.7, 34.9 148.2 Q 36.1 146.7, 36.1 143.9 Q 36.1 141.0, 34.9 139.6 Q 33.7 138.2, 31.5 138.2 Q 29.3 138.2, 28.1 139.6 Q 27.0 141.0, 27.0 143.9 Q 27.0 146.8, 28.1 148.2 Q 29.3 149.7, 31.5 149.7 " fill="#FF0000"/>
<path class="atom-8" d="M 10.7 48.9 L 12.7 48.9 L 12.7 55.0 L 20.0 55.0 L 20.0 48.9 L 22.0 48.9 L 22.0 63.2 L 20.0 63.2 L 20.0 56.6 L 12.7 56.6 L 12.7 63.2 L 10.7 63.2 L 10.7 48.9 " fill="#FF0000"/>
<path class="atom-8" d="M 24.9 56.0 Q 24.9 52.6, 26.6 50.6 Q 28.3 48.7, 31.5 48.7 Q 34.7 48.7, 36.4 50.6 Q 38.1 52.6, 38.1 56.0 Q 38.1 59.5, 36.4 61.5 Q 34.7 63.5, 31.5 63.5 Q 28.4 63.5, 26.6 61.5 Q 24.9 59.5, 24.9 56.0 M 31.5 61.8 Q 33.7 61.8, 34.9 60.4 Q 36.1 58.9, 36.1 56.0 Q 36.1 53.2, 34.9 51.8 Q 33.7 50.3, 31.5 50.3 Q 29.3 50.3, 28.1 51.7 Q 27.0 53.2, 27.0 56.0 Q 27.0 58.9, 28.1 60.4 Q 29.3 61.8, 31.5 61.8 " fill="#FF0000"/>
</g>
  </g>
</svg>
