<?xml version='1.0' encoding='ASCII' standalone='yes'?>
<svg xmlns="http://www.w3.org/2000/svg" xmlns:xlink="http://www.w3.org/1999/xlink" version="1.1" width="851.0px" viewBox="0 0 851.0 200.0" height="200.0px">
  <g>
    <g transform="translate(0, 0) scale(1 1) "><!-- END OF HEADER -->
<rect style="opacity:1.0;fill:#FFFFFF;stroke:none" width="265.0" height="200.0" x="0.0" y="0.0"> </rect>
<path class="bond-0 atom-0 atom-1" d="M 168.2,13.4 L 191.2,49.7" style="fill:none;fill-rule:evenodd;stroke:#000000;stroke-width:2.0px;stroke-linecap:butt;stroke-linejoin:miter;stroke-opacity:1"/>
<path class="bond-1 atom-1 atom-2" d="M 191.2,49.7 L 171.3,87.8" style="fill:none;fill-rule:evenodd;stroke:#000000;stroke-width:2.0px;stroke-linecap:butt;stroke-linejoin:miter;stroke-opacity:1"/>
<path class="bond-2 atom-2 atom-3" d="M 171.3,87.8 L 151.3,125.9" style="fill:none;fill-rule:evenodd;stroke:#000000;stroke-width:2.0px;stroke-linecap:butt;stroke-linejoin:miter;stroke-opacity:1"/>
<path class="bond-3 atom-2 atom-4" d="M 171.3,87.8 L 133.2,67.9" style="fill:none;fill-rule:evenodd;stroke:#000000;stroke-width:2.0px;stroke-linecap:butt;stroke-linejoin:miter;stroke-opacity:1"/>
<path class="bond-4 atom-4 atom-5" d="M 133.2,67.9 L 96.8,90.9" style="fill:none;fill-rule:evenodd;stroke:#000000;stroke-width:2.0px;stroke-linecap:butt;stroke-linejoin:miter;stroke-opacity:1"/>
<path class="bond-5 atom-5 atom-6" d="M 96.8,90.9 L 60.5,113.9" style="fill:none;fill-rule:evenodd;stroke:#000000;stroke-width:2.0px;stroke-linecap:butt;stroke-linejoin:miter;stroke-opacity:1"/>
<path class="bond-6 atom-6 atom-7" d="M 60.5,113.9 L 62.3,156.9" style="fill:none;fill-rule:evenodd;stroke:#000000;stroke-width:2.0px;stroke-linecap:butt;stroke-linejoin:miter;stroke-opacity:1"/>
<path class="bond-7 atom-5 atom-8" d="M 96.8,90.9 L 119.9,127.2" style="fill:none;fill-rule:evenodd;stroke:#000000;stroke-width:2.0px;stroke-linecap:butt;stroke-linejoin:miter;stroke-opacity:1"/>
<path class="bond-8 atom-8 atom-9" d="M 119.9,127.2 L 111.9,142.5" style="fill:none;fill-rule:evenodd;stroke:#000000;stroke-width:2.0px;stroke-linecap:butt;stroke-linejoin:miter;stroke-opacity:1"/>
<path class="bond-8 atom-8 atom-9" d="M 111.9,142.5 L 103.9,157.7" style="fill:none;fill-rule:evenodd;stroke:#FF0000;stroke-width:2.0px;stroke-linecap:butt;stroke-linejoin:miter;stroke-opacity:1"/>
<path class="bond-9 atom-5 atom-10" d="M 96.8,90.9 L 73.8,54.6" style="fill:none;fill-rule:evenodd;stroke:#000000;stroke-width:2.0px;stroke-linecap:butt;stroke-linejoin:miter;stroke-opacity:1"/>
<path class="bond-10 atom-10 atom-11" d="M 75.8,57.7 L 84.2,41.7" style="fill:none;fill-rule:evenodd;stroke:#000000;stroke-width:2.0px;stroke-linecap:butt;stroke-linejoin:miter;stroke-opacity:1"/>
<path class="bond-10 atom-10 atom-11" d="M 84.2,41.7 L 92.6,25.8" style="fill:none;fill-rule:evenodd;stroke:#FF0000;stroke-width:2.0px;stroke-linecap:butt;stroke-linejoin:miter;stroke-opacity:1"/>
<path class="bond-10 atom-10 atom-11" d="M 70.1,54.7 L 78.5,38.8" style="fill:none;fill-rule:evenodd;stroke:#000000;stroke-width:2.0px;stroke-linecap:butt;stroke-linejoin:miter;stroke-opacity:1"/>
<path class="bond-10 atom-10 atom-11" d="M 78.5,38.8 L 86.8,22.8" style="fill:none;fill-rule:evenodd;stroke:#FF0000;stroke-width:2.0px;stroke-linecap:butt;stroke-linejoin:miter;stroke-opacity:1"/>
<path class="bond-11 atom-10 atom-12" d="M 73.8,54.6 L 55.8,55.3" style="fill:none;fill-rule:evenodd;stroke:#000000;stroke-width:2.0px;stroke-linecap:butt;stroke-linejoin:miter;stroke-opacity:1"/>
<path class="bond-11 atom-10 atom-12" d="M 55.8,55.3 L 37.9,56.1" style="fill:none;fill-rule:evenodd;stroke:#FF0000;stroke-width:2.0px;stroke-linecap:butt;stroke-linejoin:miter;stroke-opacity:1"/>
<path class="bond-12 atom-2 atom-13" d="M 171.3,87.8 L 209.3,107.8" style="fill:none;fill-rule:evenodd;stroke:#000000;stroke-width:2.0px;stroke-linecap:butt;stroke-linejoin:miter;stroke-opacity:1"/>
<path class="bond-13 atom-13 atom-14" d="M 209.5,111.5 L 224.9,101.7" style="fill:none;fill-rule:evenodd;stroke:#000000;stroke-width:2.0px;stroke-linecap:butt;stroke-linejoin:miter;stroke-opacity:1"/>
<path class="bond-13 atom-13 atom-14" d="M 224.9,101.7 L 240.4,91.9" style="fill:none;fill-rule:evenodd;stroke:#FF0000;stroke-width:2.0px;stroke-linecap:butt;stroke-linejoin:miter;stroke-opacity:1"/>
<path class="bond-13 atom-13 atom-14" d="M 206.0,106.0 L 221.5,96.3" style="fill:none;fill-rule:evenodd;stroke:#000000;stroke-width:2.0px;stroke-linecap:butt;stroke-linejoin:miter;stroke-opacity:1"/>
<path class="bond-13 atom-13 atom-14" d="M 221.5,96.3 L 236.9,86.5" style="fill:none;fill-rule:evenodd;stroke:#FF0000;stroke-width:2.0px;stroke-linecap:butt;stroke-linejoin:miter;stroke-opacity:1"/>
<path class="bond-14 atom-13 atom-15" d="M 209.3,107.8 L 210.1,125.5" style="fill:none;fill-rule:evenodd;stroke:#000000;stroke-width:2.0px;stroke-linecap:butt;stroke-linejoin:miter;stroke-opacity:1"/>
<path class="bond-14 atom-13 atom-15" d="M 210.1,125.5 L 210.8,143.2" style="fill:none;fill-rule:evenodd;stroke:#FF0000;stroke-width:2.0px;stroke-linecap:butt;stroke-linejoin:miter;stroke-opacity:1"/>
<path d="M 190.0,47.9 L 191.2,49.7 L 190.2,51.6" style="fill:none;stroke:#000000;stroke-width:2.0px;stroke-linecap:butt;stroke-linejoin:miter;stroke-opacity:1;"/>
<path d="M 135.1,68.9 L 133.2,67.9 L 131.3,69.0" style="fill:none;stroke:#000000;stroke-width:2.0px;stroke-linecap:butt;stroke-linejoin:miter;stroke-opacity:1;"/>
<path d="M 62.3,112.8 L 60.5,113.9 L 60.6,116.1" style="fill:none;stroke:#000000;stroke-width:2.0px;stroke-linecap:butt;stroke-linejoin:miter;stroke-opacity:1;"/>
<path d="M 118.7,125.4 L 119.9,127.2 L 119.5,128.0" style="fill:none;stroke:#000000;stroke-width:2.0px;stroke-linecap:butt;stroke-linejoin:miter;stroke-opacity:1;"/>
<path d="M 75.0,56.4 L 73.8,54.6 L 72.9,54.6" style="fill:none;stroke:#000000;stroke-width:2.0px;stroke-linecap:butt;stroke-linejoin:miter;stroke-opacity:1;"/>
<path d="M 207.4,106.8 L 209.3,107.8 L 209.4,108.7" style="fill:none;stroke:#000000;stroke-width:2.0px;stroke-linecap:butt;stroke-linejoin:miter;stroke-opacity:1;"/>
<path class="atom-9" d="M 82.3 159.3 L 84.0 159.3 L 84.0 164.5 L 90.2 164.5 L 90.2 159.3 L 91.8 159.3 L 91.8 171.5 L 90.2 171.5 L 90.2 165.8 L 84.0 165.8 L 84.0 171.5 L 82.3 171.5 L 82.3 159.3 " fill="#FF0000"/>
<path class="atom-9" d="M 94.3 165.3 Q 94.3 162.4, 95.8 160.8 Q 97.2 159.2, 99.9 159.2 Q 102.6 159.2, 104.1 160.8 Q 105.5 162.4, 105.5 165.3 Q 105.5 168.3, 104.0 170.0 Q 102.6 171.7, 99.9 171.7 Q 97.2 171.7, 95.8 170.0 Q 94.3 168.3, 94.3 165.3 M 99.9 170.3 Q 101.8 170.3, 102.8 169.0 Q 103.8 167.8, 103.8 165.3 Q 103.8 163.0, 102.8 161.8 Q 101.8 160.5, 99.9 160.5 Q 98.1 160.5, 97.0 161.7 Q 96.0 162.9, 96.0 165.3 Q 96.0 167.8, 97.0 169.0 Q 98.1 170.3, 99.9 170.3 " fill="#FF0000"/>
<path class="atom-11" d="M 88.2 16.5 Q 88.2 13.6, 89.6 12.0 Q 91.1 10.3, 93.8 10.3 Q 96.5 10.3, 97.9 12.0 Q 99.4 13.6, 99.4 16.5 Q 99.4 19.5, 97.9 21.2 Q 96.4 22.8, 93.8 22.8 Q 91.1 22.8, 89.6 21.2 Q 88.2 19.5, 88.2 16.5 M 93.8 21.5 Q 95.6 21.5, 96.6 20.2 Q 97.6 19.0, 97.6 16.5 Q 97.6 14.1, 96.6 12.9 Q 95.6 11.7, 93.8 11.7 Q 91.9 11.7, 90.9 12.9 Q 89.9 14.1, 89.9 16.5 Q 89.9 19.0, 90.9 20.2 Q 91.9 21.5, 93.8 21.5 " fill="#FF0000"/>
<path class="atom-12" d="M 13.3 50.3 L 14.9 50.3 L 14.9 55.5 L 21.1 55.5 L 21.1 50.3 L 22.8 50.3 L 22.8 62.5 L 21.1 62.5 L 21.1 56.9 L 14.9 56.9 L 14.9 62.5 L 13.3 62.5 L 13.3 50.3 " fill="#FF0000"/>
<path class="atom-12" d="M 25.3 56.4 Q 25.3 53.5, 26.7 51.8 Q 28.2 50.2, 30.9 50.2 Q 33.6 50.2, 35.0 51.8 Q 36.5 53.5, 36.5 56.4 Q 36.5 59.4, 35.0 61.0 Q 33.5 62.7, 30.9 62.7 Q 28.2 62.7, 26.7 61.0 Q 25.3 59.4, 25.3 56.4 M 30.9 61.3 Q 32.7 61.3, 33.7 60.1 Q 34.7 58.8, 34.7 56.4 Q 34.7 54.0, 33.7 52.8 Q 32.7 51.6, 30.9 51.6 Q 29.0 51.6, 28.0 52.8 Q 27.0 54.0, 27.0 56.4 Q 27.0 58.9, 28.0 60.1 Q 29.0 61.3, 30.9 61.3 " fill="#FF0000"/>
<path class="atom-14" d="M 240.1 84.8 Q 240.1 81.9, 241.5 80.2 Q 243.0 78.6, 245.7 78.6 Q 248.4 78.6, 249.8 80.2 Q 251.3 81.9, 251.3 84.8 Q 251.3 87.7, 249.8 89.4 Q 248.3 91.1, 245.7 91.1 Q 243.0 91.1, 241.5 89.4 Q 240.1 87.8, 240.1 84.8 M 245.7 89.7 Q 247.5 89.7, 248.5 88.5 Q 249.5 87.2, 249.5 84.8 Q 249.5 82.4, 248.5 81.2 Q 247.5 80.0, 245.7 80.0 Q 243.8 80.0, 242.8 81.2 Q 241.8 82.4, 241.8 84.8 Q 241.8 87.2, 242.8 88.5 Q 243.8 89.7, 245.7 89.7 " fill="#FF0000"/>
<path class="atom-15" d="M 205.5 150.8 Q 205.5 147.8, 207.0 146.2 Q 208.4 144.6, 211.1 144.6 Q 213.8 144.6, 215.3 146.2 Q 216.7 147.8, 216.7 150.8 Q 216.7 153.7, 215.2 155.4 Q 213.8 157.1, 211.1 157.1 Q 208.4 157.1, 207.0 155.4 Q 205.5 153.7, 205.5 150.8 M 211.1 155.7 Q 213.0 155.7, 214.0 154.5 Q 215.0 153.2, 215.0 150.8 Q 215.0 148.4, 214.0 147.2 Q 213.0 146.0, 211.1 146.0 Q 209.3 146.0, 208.2 147.2 Q 207.2 148.4, 207.2 150.8 Q 207.2 153.2, 208.2 154.5 Q 209.3 155.7, 211.1 155.7 " fill="#FF0000"/>
<path class="atom-15" d="M 218.6 144.7 L 220.3 144.7 L 220.3 149.9 L 226.5 149.9 L 226.5 144.7 L 228.1 144.7 L 228.1 156.9 L 226.5 156.9 L 226.5 151.3 L 220.3 151.3 L 220.3 156.9 L 218.6 156.9 L 218.6 144.7 " fill="#FF0000"/>
<path class="legend" d="M 123.7 181.9 Q 123.7 179.6, 124.4 177.7 Q 125.1 175.8, 126.4 173.8 L 127.3 174.4 Q 126.2 176.3, 125.7 178.0 Q 125.2 179.7, 125.2 181.9 Q 125.2 184.0, 125.7 185.8 Q 126.2 187.5, 127.3 189.4 L 126.4 190.0 Q 125.1 188.0, 124.4 186.1 Q 123.7 184.2, 123.7 181.9 " fill="#000000"/>
<path class="legend" d="M 128.2 177.3 Q 128.6 176.2, 129.6 175.6 Q 130.6 175.0, 132.0 175.0 Q 133.7 175.0, 134.6 175.9 Q 135.6 176.8, 135.6 178.5 Q 135.6 180.2, 134.3 181.7 Q 133.1 183.3, 130.6 185.2 L 135.8 185.2 L 135.8 186.4 L 128.2 186.4 L 128.2 185.4 Q 130.3 183.9, 131.5 182.8 Q 132.8 181.6, 133.4 180.6 Q 134.0 179.6, 134.0 178.6 Q 134.0 177.5, 133.4 176.9 Q 132.9 176.3, 132.0 176.3 Q 131.1 176.3, 130.4 176.6 Q 129.8 177.0, 129.4 177.8 L 128.2 177.3 " fill="#000000"/>
<path class="legend" d="M 140.8 181.9 Q 140.8 184.2, 140.1 186.1 Q 139.4 188.0, 138.1 190.0 L 137.2 189.4 Q 138.3 187.5, 138.8 185.8 Q 139.3 184.0, 139.3 181.9 Q 139.3 179.7, 138.8 178.0 Q 138.3 176.3, 137.2 174.4 L 138.1 173.8 Q 139.4 175.8, 140.1 177.7 Q 140.8 179.6, 140.8 181.9 " fill="#000000"/>
</g>
    <g transform="translate(265.0, 0) scale(1 1) "><line x1="5" y1="100" x2="35" y2="100" style="stroke:rgb(0,0,0);stroke-width:2"/>
  <line x1="34" y1="100" x2="29" y2="95" style="stroke:rgb(0,0,0);stroke-width:2"/>
  <line x1="34" y1="100" x2="29" y2="105" style="stroke:rgb(0,0,0);stroke-width:2"/>
</g>
    <g transform="translate(305.0, 0) scale(1 1) "><!-- END OF HEADER -->
<rect style="opacity:1.0;fill:#FFFFFF;stroke:none" width="301.0" height="200.0" x="0.0" y="0.0"> </rect>
<path class="bond-0 atom-0 atom-1" d="M 182.4,18.1 L 207.6,44.9" style="fill:none;fill-rule:evenodd;stroke:#000000;stroke-width:2.0px;stroke-linecap:butt;stroke-linejoin:miter;stroke-opacity:1"/>
<path class="bond-1 atom-1 atom-2" d="M 207.6,44.9 L 197.0,80.0" style="fill:none;fill-rule:evenodd;stroke:#000000;stroke-width:2.0px;stroke-linecap:butt;stroke-linejoin:miter;stroke-opacity:1"/>
<path class="bond-2 atom-2 atom-3" d="M 197.0,80.0 L 232.1,90.7" style="fill:none;fill-rule:evenodd;stroke:#000000;stroke-width:2.0px;stroke-linecap:butt;stroke-linejoin:miter;stroke-opacity:1"/>
<path class="bond-3 atom-3 atom-4" d="M 232.1,90.7 L 235.6,105.3" style="fill:none;fill-rule:evenodd;stroke:#000000;stroke-width:2.0px;stroke-linecap:butt;stroke-linejoin:miter;stroke-opacity:1"/>
<path class="bond-3 atom-3 atom-4" d="M 235.6,105.3 L 239.0,120.0" style="fill:none;fill-rule:evenodd;stroke:#FF0000;stroke-width:2.0px;stroke-linecap:butt;stroke-linejoin:miter;stroke-opacity:1"/>
<path class="bond-4 atom-2 atom-5" d="M 197.0,80.0 L 186.3,115.2" style="fill:none;fill-rule:evenodd;stroke:#000000;stroke-width:2.0px;stroke-linecap:butt;stroke-linejoin:miter;stroke-opacity:1"/>
<path class="bond-5 atom-5 atom-6" d="M 186.3,115.2 L 150.6,123.6" style="fill:none;fill-rule:evenodd;stroke:#000000;stroke-width:2.0px;stroke-linecap:butt;stroke-linejoin:miter;stroke-opacity:1"/>
<path class="bond-6 atom-6 atom-7" d="M 150.6,123.6 L 114.8,132.0" style="fill:none;fill-rule:evenodd;stroke:#000000;stroke-width:2.0px;stroke-linecap:butt;stroke-linejoin:miter;stroke-opacity:1"/>
<path class="bond-7 atom-7 atom-8" d="M 114.8,132.0 L 104.2,167.2" style="fill:none;fill-rule:evenodd;stroke:#000000;stroke-width:2.0px;stroke-linecap:butt;stroke-linejoin:miter;stroke-opacity:1"/>
<path class="bond-8 atom-6 atom-9" d="M 150.6,123.6 L 142.2,87.9" style="fill:none;fill-rule:evenodd;stroke:#000000;stroke-width:2.0px;stroke-linecap:butt;stroke-linejoin:miter;stroke-opacity:1"/>
<path class="bond-9 atom-9 atom-10" d="M 142.2,87.9 L 107.0,77.2" style="fill:none;fill-rule:evenodd;stroke:#000000;stroke-width:2.0px;stroke-linecap:butt;stroke-linejoin:miter;stroke-opacity:1"/>
<path class="bond-10 atom-10 atom-11" d="M 107.0,77.2 L 71.8,66.6" style="fill:none;fill-rule:evenodd;stroke:#000000;stroke-width:2.0px;stroke-linecap:butt;stroke-linejoin:miter;stroke-opacity:1"/>
<path class="bond-11 atom-11 atom-12" d="M 71.8,66.6 L 45.0,91.8" style="fill:none;fill-rule:evenodd;stroke:#000000;stroke-width:2.0px;stroke-linecap:butt;stroke-linejoin:miter;stroke-opacity:1"/>
<path class="bond-12 atom-10 atom-13" d="M 107.0,77.2 L 117.6,42.0" style="fill:none;fill-rule:evenodd;stroke:#000000;stroke-width:2.0px;stroke-linecap:butt;stroke-linejoin:miter;stroke-opacity:1"/>
<path class="bond-13 atom-13 atom-14" d="M 117.6,42.0 L 108.0,31.8" style="fill:none;fill-rule:evenodd;stroke:#000000;stroke-width:2.0px;stroke-linecap:butt;stroke-linejoin:miter;stroke-opacity:1"/>
<path class="bond-13 atom-13 atom-14" d="M 108.0,31.8 L 98.4,21.6" style="fill:none;fill-rule:evenodd;stroke:#FF0000;stroke-width:2.0px;stroke-linecap:butt;stroke-linejoin:miter;stroke-opacity:1"/>
<path class="bond-14 atom-10 atom-15" d="M 107.0,77.2 L 96.4,112.4" style="fill:none;fill-rule:evenodd;stroke:#000000;stroke-width:2.0px;stroke-linecap:butt;stroke-linejoin:miter;stroke-opacity:1"/>
<path class="bond-15 atom-15 atom-16" d="M 93.6,113.1 L 96.8,118.7" style="fill:none;fill-rule:evenodd;stroke:#000000;stroke-width:2.0px;stroke-linecap:butt;stroke-linejoin:miter;stroke-opacity:1"/>
<path class="bond-15 atom-15 atom-16" d="M 96.8,118.7 L 99.9,124.3" style="fill:none;fill-rule:evenodd;stroke:#FF0000;stroke-width:2.0px;stroke-linecap:butt;stroke-linejoin:miter;stroke-opacity:1"/>
<path class="bond-15 atom-15 atom-16" d="M 97.4,108.8 L 101.5,116.1" style="fill:none;fill-rule:evenodd;stroke:#000000;stroke-width:2.0px;stroke-linecap:butt;stroke-linejoin:miter;stroke-opacity:1"/>
<path class="bond-15 atom-15 atom-16" d="M 101.5,116.1 L 104.6,121.7" style="fill:none;fill-rule:evenodd;stroke:#FF0000;stroke-width:2.0px;stroke-linecap:butt;stroke-linejoin:miter;stroke-opacity:1"/>
<path class="bond-16 atom-15 atom-17" d="M 96.4,112.4 L 81.5,115.9" style="fill:none;fill-rule:evenodd;stroke:#000000;stroke-width:2.0px;stroke-linecap:butt;stroke-linejoin:miter;stroke-opacity:1"/>
<path class="bond-16 atom-15 atom-17" d="M 81.5,115.9 L 66.6,119.4" style="fill:none;fill-rule:evenodd;stroke:#FF0000;stroke-width:2.0px;stroke-linecap:butt;stroke-linejoin:miter;stroke-opacity:1"/>
<path class="bond-17 atom-6 atom-18" d="M 150.6,123.6 L 159.0,159.4" style="fill:none;fill-rule:evenodd;stroke:#000000;stroke-width:2.0px;stroke-linecap:butt;stroke-linejoin:miter;stroke-opacity:1"/>
<path class="bond-18 atom-18 atom-19" d="M 156.7,161.5 L 172.1,166.2" style="fill:none;fill-rule:evenodd;stroke:#000000;stroke-width:2.0px;stroke-linecap:butt;stroke-linejoin:miter;stroke-opacity:1"/>
<path class="bond-18 atom-18 atom-19" d="M 172.1,166.2 L 187.4,170.8" style="fill:none;fill-rule:evenodd;stroke:#FF0000;stroke-width:2.0px;stroke-linecap:butt;stroke-linejoin:miter;stroke-opacity:1"/>
<path class="bond-18 atom-18 atom-19" d="M 158.3,156.4 L 173.6,161.0" style="fill:none;fill-rule:evenodd;stroke:#000000;stroke-width:2.0px;stroke-linecap:butt;stroke-linejoin:miter;stroke-opacity:1"/>
<path class="bond-18 atom-18 atom-19" d="M 173.6,161.0 L 189.0,165.6" style="fill:none;fill-rule:evenodd;stroke:#FF0000;stroke-width:2.0px;stroke-linecap:butt;stroke-linejoin:miter;stroke-opacity:1"/>
<path class="bond-19 atom-18 atom-20" d="M 159.0,159.4 L 148.6,169.2" style="fill:none;fill-rule:evenodd;stroke:#000000;stroke-width:2.0px;stroke-linecap:butt;stroke-linejoin:miter;stroke-opacity:1"/>
<path class="bond-19 atom-18 atom-20" d="M 148.6,169.2 L 138.1,179.0" style="fill:none;fill-rule:evenodd;stroke:#FF0000;stroke-width:2.0px;stroke-linecap:butt;stroke-linejoin:miter;stroke-opacity:1"/>
<path class="bond-20 atom-2 atom-21" d="M 197.0,80.0 L 161.8,69.4" style="fill:none;fill-rule:evenodd;stroke:#000000;stroke-width:2.0px;stroke-linecap:butt;stroke-linejoin:miter;stroke-opacity:1"/>
<path class="bond-21 atom-21 atom-22" d="M 164.8,70.3 L 161.2,55.0" style="fill:none;fill-rule:evenodd;stroke:#000000;stroke-width:2.0px;stroke-linecap:butt;stroke-linejoin:miter;stroke-opacity:1"/>
<path class="bond-21 atom-21 atom-22" d="M 161.2,55.0 L 157.6,39.6" style="fill:none;fill-rule:evenodd;stroke:#FF0000;stroke-width:2.0px;stroke-linecap:butt;stroke-linejoin:miter;stroke-opacity:1"/>
<path class="bond-21 atom-21 atom-22" d="M 159.3,70.8 L 155.9,56.2" style="fill:none;fill-rule:evenodd;stroke:#000000;stroke-width:2.0px;stroke-linecap:butt;stroke-linejoin:miter;stroke-opacity:1"/>
<path class="bond-21 atom-21 atom-22" d="M 155.9,56.2 L 152.3,40.9" style="fill:none;fill-rule:evenodd;stroke:#FF0000;stroke-width:2.0px;stroke-linecap:butt;stroke-linejoin:miter;stroke-opacity:1"/>
<path class="bond-22 atom-21 atom-23" d="M 161.8,69.4 L 148.7,76.7" style="fill:none;fill-rule:evenodd;stroke:#000000;stroke-width:2.0px;stroke-linecap:butt;stroke-linejoin:miter;stroke-opacity:1"/>
<path class="bond-22 atom-21 atom-23" d="M 148.7,76.7 L 135.7,84.0" style="fill:none;fill-rule:evenodd;stroke:#FF0000;stroke-width:2.0px;stroke-linecap:butt;stroke-linejoin:miter;stroke-opacity:1"/>
<path d="M 206.3,43.5 L 207.6,44.9 L 207.0,46.6" style="fill:none;stroke:#000000;stroke-width:2.0px;stroke-linecap:butt;stroke-linejoin:miter;stroke-opacity:1;"/>
<path d="M 230.4,90.1 L 232.1,90.7 L 232.3,91.4" style="fill:none;stroke:#000000;stroke-width:2.0px;stroke-linecap:butt;stroke-linejoin:miter;stroke-opacity:1;"/>
<path d="M 186.9,113.5 L 186.3,115.2 L 184.6,115.6" style="fill:none;stroke:#000000;stroke-width:2.0px;stroke-linecap:butt;stroke-linejoin:miter;stroke-opacity:1;"/>
<path d="M 116.6,131.6 L 114.8,132.0 L 114.3,133.8" style="fill:none;stroke:#000000;stroke-width:2.0px;stroke-linecap:butt;stroke-linejoin:miter;stroke-opacity:1;"/>
<path d="M 142.6,89.6 L 142.2,87.9 L 140.4,87.3" style="fill:none;stroke:#000000;stroke-width:2.0px;stroke-linecap:butt;stroke-linejoin:miter;stroke-opacity:1;"/>
<path d="M 73.6,67.2 L 71.8,66.6 L 70.5,67.9" style="fill:none;stroke:#000000;stroke-width:2.0px;stroke-linecap:butt;stroke-linejoin:miter;stroke-opacity:1;"/>
<path d="M 117.1,43.8 L 117.6,42.0 L 117.1,41.5" style="fill:none;stroke:#000000;stroke-width:2.0px;stroke-linecap:butt;stroke-linejoin:miter;stroke-opacity:1;"/>
<path d="M 96.9,110.7 L 96.4,112.4 L 95.6,112.6" style="fill:none;stroke:#000000;stroke-width:2.0px;stroke-linecap:butt;stroke-linejoin:miter;stroke-opacity:1;"/>
<path d="M 158.5,157.6 L 159.0,159.4 L 158.4,159.9" style="fill:none;stroke:#000000;stroke-width:2.0px;stroke-linecap:butt;stroke-linejoin:miter;stroke-opacity:1;"/>
<path d="M 163.5,70.0 L 161.8,69.4 L 161.1,69.8" style="fill:none;stroke:#000000;stroke-width:2.0px;stroke-linecap:butt;stroke-linejoin:miter;stroke-opacity:1;"/>
<path class="atom-4" d="M 235.8 126.5 Q 235.8 124.0, 237.0 122.6 Q 238.2 121.2, 240.5 121.2 Q 242.9 121.2, 244.1 122.6 Q 245.3 124.0, 245.3 126.5 Q 245.3 129.0, 244.1 130.4 Q 242.8 131.9, 240.5 131.9 Q 238.3 131.9, 237.0 130.4 Q 235.8 129.0, 235.8 126.5 M 240.5 130.7 Q 242.1 130.7, 243.0 129.6 Q 243.9 128.6, 243.9 126.5 Q 243.9 124.4, 243.0 123.4 Q 242.1 122.4, 240.5 122.4 Q 239.0 122.4, 238.1 123.4 Q 237.2 124.4, 237.2 126.5 Q 237.2 128.6, 238.1 129.6 Q 239.0 130.7, 240.5 130.7 " fill="#FF0000"/>
<path class="atom-4" d="M 246.9 121.3 L 248.4 121.3 L 248.4 125.7 L 253.7 125.7 L 253.7 121.3 L 255.1 121.3 L 255.1 131.7 L 253.7 131.7 L 253.7 126.9 L 248.4 126.9 L 248.4 131.7 L 246.9 131.7 L 246.9 121.3 " fill="#FF0000"/>
<path class="atom-14" d="M 77.4 10.1 L 78.8 10.1 L 78.8 14.5 L 84.1 14.5 L 84.1 10.1 L 85.5 10.1 L 85.5 20.5 L 84.1 20.5 L 84.1 15.7 L 78.8 15.7 L 78.8 20.5 L 77.4 20.5 L 77.4 10.1 " fill="#FF0000"/>
<path class="atom-14" d="M 87.7 15.3 Q 87.7 12.8, 88.9 11.4 Q 90.1 10.0, 92.4 10.0 Q 94.7 10.0, 96.0 11.4 Q 97.2 12.8, 97.2 15.3 Q 97.2 17.8, 96.0 19.3 Q 94.7 20.7, 92.4 20.7 Q 90.1 20.7, 88.9 19.3 Q 87.7 17.8, 87.7 15.3 M 92.4 19.5 Q 94.0 19.5, 94.9 18.5 Q 95.7 17.4, 95.7 15.3 Q 95.7 13.2, 94.9 12.2 Q 94.0 11.2, 92.4 11.2 Q 90.8 11.2, 90.0 12.2 Q 89.1 13.2, 89.1 15.3 Q 89.1 17.4, 90.0 18.5 Q 90.8 19.5, 92.4 19.5 " fill="#FF0000"/>
<path class="atom-16" d="M 101.1 129.5 Q 101.1 127.0, 102.4 125.6 Q 103.6 124.2, 105.9 124.2 Q 108.2 124.2, 109.4 125.6 Q 110.7 127.0, 110.7 129.5 Q 110.7 132.0, 109.4 133.5 Q 108.2 134.9, 105.9 134.9 Q 103.6 134.9, 102.4 133.5 Q 101.1 132.0, 101.1 129.5 M 105.9 133.7 Q 107.5 133.7, 108.3 132.7 Q 109.2 131.6, 109.2 129.5 Q 109.2 127.5, 108.3 126.4 Q 107.5 125.4, 105.9 125.4 Q 104.3 125.4, 103.4 126.4 Q 102.6 127.4, 102.6 129.5 Q 102.6 131.6, 103.4 132.7 Q 104.3 133.7, 105.9 133.7 " fill="#FF0000"/>
<path class="atom-17" d="M 45.5 115.7 L 46.9 115.7 L 46.9 120.1 L 52.3 120.1 L 52.3 115.7 L 53.7 115.7 L 53.7 126.1 L 52.3 126.1 L 52.3 121.3 L 46.9 121.3 L 46.9 126.1 L 45.5 126.1 L 45.5 115.7 " fill="#FF0000"/>
<path class="atom-17" d="M 55.8 120.9 Q 55.8 118.4, 57.0 117.0 Q 58.3 115.6, 60.6 115.6 Q 62.9 115.6, 64.1 117.0 Q 65.4 118.4, 65.4 120.9 Q 65.4 123.4, 64.1 124.8 Q 62.9 126.2, 60.6 126.2 Q 58.3 126.2, 57.0 124.8 Q 55.8 123.4, 55.8 120.9 M 60.6 125.1 Q 62.2 125.1, 63.0 124.0 Q 63.9 122.9, 63.9 120.9 Q 63.9 118.8, 63.0 117.8 Q 62.2 116.7, 60.6 116.7 Q 59.0 116.7, 58.1 117.8 Q 57.3 118.8, 57.3 120.9 Q 57.3 123.0, 58.1 124.0 Q 59.0 125.1, 60.6 125.1 " fill="#FF0000"/>
<path class="atom-19" d="M 189.4 170.1 Q 189.4 167.6, 190.6 166.2 Q 191.8 164.8, 194.2 164.8 Q 196.5 164.8, 197.7 166.2 Q 198.9 167.6, 198.9 170.1 Q 198.9 172.6, 197.7 174.0 Q 196.4 175.4, 194.2 175.4 Q 191.9 175.4, 190.6 174.0 Q 189.4 172.6, 189.4 170.1 M 194.2 174.3 Q 195.7 174.3, 196.6 173.2 Q 197.5 172.1, 197.5 170.1 Q 197.5 168.0, 196.6 167.0 Q 195.7 165.9, 194.2 165.9 Q 192.6 165.9, 191.7 167.0 Q 190.8 168.0, 190.8 170.1 Q 190.8 172.2, 191.7 173.2 Q 192.6 174.3, 194.2 174.3 " fill="#FF0000"/>
<path class="atom-20" d="M 117.1 179.4 L 118.5 179.4 L 118.5 183.9 L 123.9 183.9 L 123.9 179.4 L 125.3 179.4 L 125.3 189.8 L 123.9 189.8 L 123.9 185.0 L 118.5 185.0 L 118.5 189.8 L 117.1 189.8 L 117.1 179.4 " fill="#FF0000"/>
<path class="atom-20" d="M 127.4 184.6 Q 127.4 182.1, 128.6 180.7 Q 129.9 179.3, 132.2 179.3 Q 134.5 179.3, 135.7 180.7 Q 137.0 182.1, 137.0 184.6 Q 137.0 187.1, 135.7 188.6 Q 134.5 190.0, 132.2 190.0 Q 129.9 190.0, 128.6 188.6 Q 127.4 187.1, 127.4 184.6 M 132.2 188.8 Q 133.8 188.8, 134.6 187.8 Q 135.5 186.7, 135.5 184.6 Q 135.5 182.6, 134.6 181.5 Q 133.8 180.5, 132.2 180.5 Q 130.6 180.5, 129.7 181.5 Q 128.9 182.5, 128.9 184.6 Q 128.9 186.7, 129.7 187.8 Q 130.6 188.8, 132.2 188.8 " fill="#FF0000"/>
<path class="atom-22" d="M 148.6 33.7 Q 148.6 31.2, 149.8 29.8 Q 151.1 28.4, 153.4 28.4 Q 155.7 28.4, 156.9 29.8 Q 158.2 31.2, 158.2 33.7 Q 158.2 36.2, 156.9 37.6 Q 155.7 39.1, 153.4 39.1 Q 151.1 39.1, 149.8 37.6 Q 148.6 36.2, 148.6 33.7 M 153.4 37.9 Q 155.0 37.9, 155.8 36.8 Q 156.7 35.8, 156.7 33.7 Q 156.7 31.6, 155.8 30.6 Q 155.0 29.6, 153.4 29.6 Q 151.8 29.6, 150.9 30.6 Q 150.1 31.6, 150.1 33.7 Q 150.1 35.8, 150.9 36.8 Q 151.8 37.9, 153.4 37.9 " fill="#FF0000"/>
<path class="atom-23" d="M 114.6 82.2 L 116.1 82.2 L 116.1 86.6 L 121.4 86.6 L 121.4 82.2 L 122.8 82.2 L 122.8 92.6 L 121.4 92.6 L 121.4 87.8 L 116.1 87.8 L 116.1 92.6 L 114.6 92.6 L 114.6 82.2 " fill="#FF0000"/>
<path class="atom-23" d="M 124.9 87.4 Q 124.9 84.9, 126.2 83.5 Q 127.4 82.1, 129.7 82.1 Q 132.0 82.1, 133.2 83.5 Q 134.5 84.9, 134.5 87.4 Q 134.5 89.9, 133.2 91.4 Q 132.0 92.8, 129.7 92.8 Q 127.4 92.8, 126.2 91.4 Q 124.9 89.9, 124.9 87.4 M 129.7 91.6 Q 131.3 91.6, 132.1 90.6 Q 133.0 89.5, 133.0 87.4 Q 133.0 85.3, 132.1 84.3 Q 131.3 83.3, 129.7 83.3 Q 128.1 83.3, 127.2 84.3 Q 126.4 85.3, 126.4 87.4 Q 126.4 89.5, 127.2 90.6 Q 128.1 91.6, 129.7 91.6 " fill="#FF0000"/>
</g>
    <g transform="translate(606.0, 0) scale(1 1) "><line x1="15" y1="100" x2="25" y2="100" style="stroke:rgb(0,0,0);stroke-width:2"/>
  <line x1="20" y1="95" x2="20" y2="105" style="stroke:rgb(0,0,0);stroke-width:2"/>
</g>
    <g transform="translate(646.0, 0) scale(1 1) "><!-- END OF HEADER -->
<rect style="opacity:1.0;fill:#FFFFFF;stroke:none" width="205.0" height="200.0" x="0.0" y="0.0"> </rect>
<path class="bond-0 atom-0 atom-1" d="M 194.2,91.6 L 155.8,127.3" style="fill:none;fill-rule:evenodd;stroke:#000000;stroke-width:2.0px;stroke-linecap:butt;stroke-linejoin:miter;stroke-opacity:1"/>
<path class="bond-1 atom-1 atom-2" d="M 155.8,127.3 L 105.7,111.9" style="fill:none;fill-rule:evenodd;stroke:#000000;stroke-width:2.0px;stroke-linecap:butt;stroke-linejoin:miter;stroke-opacity:1"/>
<path class="bond-2 atom-2 atom-3" d="M 105.7,111.9 L 121.1,61.8" style="fill:none;fill-rule:evenodd;stroke:#000000;stroke-width:2.0px;stroke-linecap:butt;stroke-linejoin:miter;stroke-opacity:1"/>
<path class="bond-3 atom-2 atom-4" d="M 105.7,111.9 L 90.3,162.1" style="fill:none;fill-rule:evenodd;stroke:#000000;stroke-width:2.0px;stroke-linecap:butt;stroke-linejoin:miter;stroke-opacity:1"/>
<path class="bond-4 atom-2 atom-5" d="M 105.7,111.9 L 55.5,96.5" style="fill:none;fill-rule:evenodd;stroke:#000000;stroke-width:2.0px;stroke-linecap:butt;stroke-linejoin:miter;stroke-opacity:1"/>
<path class="bond-5 atom-5 atom-6" d="M 54.5,92.1 L 38.7,106.8" style="fill:none;fill-rule:evenodd;stroke:#000000;stroke-width:2.0px;stroke-linecap:butt;stroke-linejoin:miter;stroke-opacity:1"/>
<path class="bond-5 atom-5 atom-6" d="M 38.7,106.8 L 22.9,121.5" style="fill:none;fill-rule:evenodd;stroke:#FF0000;stroke-width:2.0px;stroke-linecap:butt;stroke-linejoin:miter;stroke-opacity:1"/>
<path class="bond-5 atom-5 atom-6" d="M 59.8,97.9 L 44.1,112.5" style="fill:none;fill-rule:evenodd;stroke:#000000;stroke-width:2.0px;stroke-linecap:butt;stroke-linejoin:miter;stroke-opacity:1"/>
<path class="bond-5 atom-5 atom-6" d="M 44.1,112.5 L 28.3,127.2" style="fill:none;fill-rule:evenodd;stroke:#FF0000;stroke-width:2.0px;stroke-linecap:butt;stroke-linejoin:miter;stroke-opacity:1"/>
<path class="bond-6 atom-5 atom-7" d="M 55.5,96.5 L 50.7,75.7" style="fill:none;fill-rule:evenodd;stroke:#000000;stroke-width:2.0px;stroke-linecap:butt;stroke-linejoin:miter;stroke-opacity:1"/>
<path class="bond-6 atom-5 atom-7" d="M 50.7,75.7 L 45.9,54.9" style="fill:none;fill-rule:evenodd;stroke:#FF0000;stroke-width:2.0px;stroke-linecap:butt;stroke-linejoin:miter;stroke-opacity:1"/>
<path d="M 157.8,125.6 L 155.8,127.3 L 153.3,126.6" style="fill:none;stroke:#000000;stroke-width:2.0px;stroke-linecap:butt;stroke-linejoin:miter;stroke-opacity:1;"/>
<path d="M 58.0,97.3 L 55.5,96.5 L 55.3,95.5" style="fill:none;stroke:#000000;stroke-width:2.0px;stroke-linecap:butt;stroke-linejoin:miter;stroke-opacity:1;"/>
<path class="atom-6" d="M 10.2 132.3 Q 10.2 128.8, 12.0 126.8 Q 13.8 124.8, 17.1 124.8 Q 20.4 124.8, 22.1 126.8 Q 23.9 128.8, 23.9 132.3 Q 23.9 135.9, 22.1 138.0 Q 20.3 140.0, 17.1 140.0 Q 13.8 140.0, 12.0 138.0 Q 10.2 136.0, 10.2 132.3 M 17.1 138.4 Q 19.3 138.4, 20.6 136.8 Q 21.8 135.3, 21.8 132.3 Q 21.8 129.4, 20.6 127.9 Q 19.3 126.5, 17.1 126.5 Q 14.8 126.5, 13.6 127.9 Q 12.3 129.4, 12.3 132.3 Q 12.3 135.3, 13.6 136.8 Q 14.8 138.4, 17.1 138.4 " fill="#FF0000"/>
<path class="atom-7" d="M 36.9 45.4 Q 36.9 41.9, 38.7 39.9 Q 40.4 37.9, 43.7 37.9 Q 47.0 37.9, 48.8 39.9 Q 50.6 41.9, 50.6 45.4 Q 50.6 49.1, 48.8 51.1 Q 47.0 53.1, 43.7 53.1 Q 40.5 53.1, 38.7 51.1 Q 36.9 49.1, 36.9 45.4 M 43.7 51.5 Q 46.0 51.5, 47.2 50.0 Q 48.5 48.4, 48.5 45.4 Q 48.5 42.5, 47.2 41.1 Q 46.0 39.6, 43.7 39.6 Q 41.5 39.6, 40.2 41.0 Q 39.0 42.5, 39.0 45.4 Q 39.0 48.4, 40.2 50.0 Q 41.5 51.5, 43.7 51.5 " fill="#FF0000"/>
<path class="atom-7" d="M 52.9 38.1 L 54.9 38.1 L 54.9 44.4 L 62.5 44.4 L 62.5 38.1 L 64.5 38.1 L 64.5 52.9 L 62.5 52.9 L 62.5 46.1 L 54.9 46.1 L 54.9 52.9 L 52.9 52.9 L 52.9 38.1 " fill="#FF0000"/>
</g>
  </g>
</svg>
