<?xml version='1.0' encoding='ASCII' standalone='yes'?>
<svg xmlns="http://www.w3.org/2000/svg" xmlns:xlink="http://www.w3.org/1999/xlink" version="1.1" width="863.0px" viewBox="0 0 863.0 200.0" height="200.0px">
  <g>
    <g transform="translate(0, 0) scale(1 1) "><!-- END OF HEADER -->
<rect style="opacity:1.0;fill:#FFFFFF;stroke:none" width="265.0" height="200.0" x="0.0" y="0.0"> </rect>
<path class="bond-0 atom-0 atom-1" d="M 209.9,40.6 L 210.6,72.5" style="fill:none;fill-rule:evenodd;stroke:#000000;stroke-width:2.0px;stroke-linecap:butt;stroke-linejoin:miter;stroke-opacity:1"/>
<path class="bond-1 atom-1 atom-2" d="M 210.6,72.5 L 222.0,78.7" style="fill:none;fill-rule:evenodd;stroke:#000000;stroke-width:2.0px;stroke-linecap:butt;stroke-linejoin:miter;stroke-opacity:1"/>
<path class="bond-1 atom-1 atom-2" d="M 222.0,78.7 L 233.4,85.0" style="fill:none;fill-rule:evenodd;stroke:#FF0000;stroke-width:2.0px;stroke-linecap:butt;stroke-linejoin:miter;stroke-opacity:1"/>
<path class="bond-2 atom-1 atom-3" d="M 210.6,72.5 L 183.3,89.1" style="fill:none;fill-rule:evenodd;stroke:#000000;stroke-width:2.0px;stroke-linecap:butt;stroke-linejoin:miter;stroke-opacity:1"/>
<path class="bond-3 atom-3 atom-4" d="M 183.3,89.1 L 166.7,61.8" style="fill:none;fill-rule:evenodd;stroke:#000000;stroke-width:2.0px;stroke-linecap:butt;stroke-linejoin:miter;stroke-opacity:1"/>
<path class="bond-4 atom-3 atom-5" d="M 183.3,89.1 L 199.9,116.4" style="fill:none;fill-rule:evenodd;stroke:#000000;stroke-width:2.0px;stroke-linecap:butt;stroke-linejoin:miter;stroke-opacity:1"/>
<path class="bond-5 atom-3 atom-6" d="M 183.3,89.1 L 156.0,105.7" style="fill:none;fill-rule:evenodd;stroke:#000000;stroke-width:2.0px;stroke-linecap:butt;stroke-linejoin:miter;stroke-opacity:1"/>
<path class="bond-6 atom-6 atom-7" d="M 153.6,104.3 L 153.9,118.2" style="fill:none;fill-rule:evenodd;stroke:#000000;stroke-width:2.0px;stroke-linecap:butt;stroke-linejoin:miter;stroke-opacity:1"/>
<path class="bond-6 atom-6 atom-7" d="M 153.9,118.2 L 154.2,132.0" style="fill:none;fill-rule:evenodd;stroke:#FF0000;stroke-width:2.0px;stroke-linecap:butt;stroke-linejoin:miter;stroke-opacity:1"/>
<path class="bond-6 atom-6 atom-7" d="M 158.4,104.2 L 158.7,118.1" style="fill:none;fill-rule:evenodd;stroke:#000000;stroke-width:2.0px;stroke-linecap:butt;stroke-linejoin:miter;stroke-opacity:1"/>
<path class="bond-6 atom-6 atom-7" d="M 158.7,118.1 L 159.0,131.9" style="fill:none;fill-rule:evenodd;stroke:#FF0000;stroke-width:2.0px;stroke-linecap:butt;stroke-linejoin:miter;stroke-opacity:1"/>
<path class="bond-7 atom-6 atom-8" d="M 156.0,105.7 L 144.6,99.4" style="fill:none;fill-rule:evenodd;stroke:#000000;stroke-width:2.0px;stroke-linecap:butt;stroke-linejoin:miter;stroke-opacity:1"/>
<path class="bond-7 atom-6 atom-8" d="M 144.6,99.4 L 133.2,93.2" style="fill:none;fill-rule:evenodd;stroke:#FF0000;stroke-width:2.0px;stroke-linecap:butt;stroke-linejoin:miter;stroke-opacity:1"/>
<path class="bond-8 atom-8 atom-9" d="M 122.8,93.5 L 111.8,100.2" style="fill:none;fill-rule:evenodd;stroke:#FF0000;stroke-width:2.0px;stroke-linecap:butt;stroke-linejoin:miter;stroke-opacity:1"/>
<path class="bond-8 atom-8 atom-9" d="M 111.8,100.2 L 100.7,106.9" style="fill:none;fill-rule:evenodd;stroke:#000000;stroke-width:2.0px;stroke-linecap:butt;stroke-linejoin:miter;stroke-opacity:1"/>
<path class="bond-9 atom-9 atom-10" d="M 100.7,106.9 L 72.7,91.5" style="fill:none;fill-rule:evenodd;stroke:#000000;stroke-width:2.0px;stroke-linecap:butt;stroke-linejoin:miter;stroke-opacity:1"/>
<path class="bond-10 atom-10 atom-11" d="M 72.7,91.5 L 88.0,63.5" style="fill:none;fill-rule:evenodd;stroke:#000000;stroke-width:2.0px;stroke-linecap:butt;stroke-linejoin:miter;stroke-opacity:1"/>
<path class="bond-11 atom-10 atom-12" d="M 72.7,91.5 L 57.4,119.6" style="fill:none;fill-rule:evenodd;stroke:#000000;stroke-width:2.0px;stroke-linecap:butt;stroke-linejoin:miter;stroke-opacity:1"/>
<path class="bond-12 atom-10 atom-13" d="M 72.7,91.5 L 44.7,76.2" style="fill:none;fill-rule:evenodd;stroke:#000000;stroke-width:2.0px;stroke-linecap:butt;stroke-linejoin:miter;stroke-opacity:1"/>
<path class="bond-13 atom-13 atom-14" d="M 44.6,73.4 L 33.0,80.5" style="fill:none;fill-rule:evenodd;stroke:#000000;stroke-width:2.0px;stroke-linecap:butt;stroke-linejoin:miter;stroke-opacity:1"/>
<path class="bond-13 atom-13 atom-14" d="M 33.0,80.5 L 21.4,87.6" style="fill:none;fill-rule:evenodd;stroke:#FF0000;stroke-width:2.0px;stroke-linecap:butt;stroke-linejoin:miter;stroke-opacity:1"/>
<path class="bond-13 atom-13 atom-14" d="M 47.1,77.5 L 35.5,84.6" style="fill:none;fill-rule:evenodd;stroke:#000000;stroke-width:2.0px;stroke-linecap:butt;stroke-linejoin:miter;stroke-opacity:1"/>
<path class="bond-13 atom-13 atom-14" d="M 35.5,84.6 L 23.9,91.7" style="fill:none;fill-rule:evenodd;stroke:#FF0000;stroke-width:2.0px;stroke-linecap:butt;stroke-linejoin:miter;stroke-opacity:1"/>
<path class="bond-14 atom-13 atom-15" d="M 44.7,76.2 L 44.4,63.1" style="fill:none;fill-rule:evenodd;stroke:#000000;stroke-width:2.0px;stroke-linecap:butt;stroke-linejoin:miter;stroke-opacity:1"/>
<path class="bond-14 atom-13 atom-15" d="M 44.4,63.1 L 44.1,50.0" style="fill:none;fill-rule:evenodd;stroke:#FF0000;stroke-width:2.0px;stroke-linecap:butt;stroke-linejoin:miter;stroke-opacity:1"/>
<path d="M 157.4,104.8 L 156.0,105.7 L 155.4,105.3" style="fill:none;stroke:#000000;stroke-width:2.0px;stroke-linecap:butt;stroke-linejoin:miter;stroke-opacity:1;"/>
<path d="M 101.3,106.6 L 100.7,106.9 L 99.3,106.1" style="fill:none;stroke:#000000;stroke-width:2.0px;stroke-linecap:butt;stroke-linejoin:miter;stroke-opacity:1;"/>
<path d="M 46.1,77.0 L 44.7,76.2 L 44.7,75.5" style="fill:none;stroke:#000000;stroke-width:2.0px;stroke-linecap:butt;stroke-linejoin:miter;stroke-opacity:1;"/>
<path class="atom-2" d="M 234.5 87.9 Q 234.5 85.7, 235.5 84.5 Q 236.6 83.3, 238.6 83.3 Q 240.6 83.3, 241.7 84.5 Q 242.8 85.7, 242.8 87.9 Q 242.8 90.1, 241.7 91.3 Q 240.6 92.5, 238.6 92.5 Q 236.6 92.5, 235.5 91.3 Q 234.5 90.1, 234.5 87.9 M 238.6 91.5 Q 240.0 91.5, 240.7 90.6 Q 241.5 89.7, 241.5 87.9 Q 241.5 86.1, 240.7 85.2 Q 240.0 84.3, 238.6 84.3 Q 237.2 84.3, 236.5 85.2 Q 235.7 86.1, 235.7 87.9 Q 235.7 89.7, 236.5 90.6 Q 237.2 91.5, 238.6 91.5 " fill="#FF0000"/>
<path class="atom-2" d="M 244.2 83.4 L 245.4 83.4 L 245.4 87.2 L 250.0 87.2 L 250.0 83.4 L 251.3 83.4 L 251.3 92.4 L 250.0 92.4 L 250.0 88.2 L 245.4 88.2 L 245.4 92.4 L 244.2 92.4 L 244.2 83.4 " fill="#FF0000"/>
<path class="atom-7" d="M 152.6 137.6 Q 152.6 135.4, 153.7 134.2 Q 154.7 133.0, 156.7 133.0 Q 158.7 133.0, 159.8 134.2 Q 160.9 135.4, 160.9 137.6 Q 160.9 139.8, 159.8 141.1 Q 158.7 142.3, 156.7 142.3 Q 154.7 142.3, 153.7 141.1 Q 152.6 139.8, 152.6 137.6 M 156.7 141.3 Q 158.1 141.3, 158.9 140.4 Q 159.6 139.4, 159.6 137.6 Q 159.6 135.8, 158.9 134.9 Q 158.1 134.0, 156.7 134.0 Q 155.4 134.0, 154.6 134.9 Q 153.9 135.8, 153.9 137.6 Q 153.9 139.4, 154.6 140.4 Q 155.4 141.3, 156.7 141.3 " fill="#FF0000"/>
<path class="atom-8" d="M 123.9 90.3 Q 123.9 88.2, 124.9 87.0 Q 126.0 85.7, 128.0 85.7 Q 130.0 85.7, 131.1 87.0 Q 132.2 88.2, 132.2 90.3 Q 132.2 92.5, 131.1 93.8 Q 130.0 95.0, 128.0 95.0 Q 126.0 95.0, 124.9 93.8 Q 123.9 92.5, 123.9 90.3 M 128.0 94.0 Q 129.4 94.0, 130.1 93.1 Q 130.9 92.1, 130.9 90.3 Q 130.9 88.6, 130.1 87.7 Q 129.4 86.8, 128.0 86.8 Q 126.6 86.8, 125.9 87.7 Q 125.1 88.5, 125.1 90.3 Q 125.1 92.2, 125.9 93.1 Q 126.6 94.0, 128.0 94.0 " fill="#FF0000"/>
<path class="atom-14" d="M 13.2 92.8 Q 13.2 90.6, 14.3 89.4 Q 15.4 88.2, 17.4 88.2 Q 19.4 88.2, 20.5 89.4 Q 21.6 90.6, 21.6 92.8 Q 21.6 95.0, 20.5 96.3 Q 19.4 97.5, 17.4 97.5 Q 15.4 97.5, 14.3 96.3 Q 13.2 95.0, 13.2 92.8 M 17.4 96.5 Q 18.8 96.5, 19.5 95.6 Q 20.3 94.6, 20.3 92.8 Q 20.3 91.0, 19.5 90.1 Q 18.8 89.2, 17.4 89.2 Q 16.0 89.2, 15.3 90.1 Q 14.5 91.0, 14.5 92.8 Q 14.5 94.6, 15.3 95.6 Q 16.0 96.5, 17.4 96.5 " fill="#FF0000"/>
<path class="atom-15" d="M 39.8 44.3 Q 39.8 42.1, 40.9 40.9 Q 42.0 39.7, 44.0 39.7 Q 46.0 39.7, 47.1 40.9 Q 48.1 42.1, 48.1 44.3 Q 48.1 46.5, 47.0 47.7 Q 46.0 49.0, 44.0 49.0 Q 42.0 49.0, 40.9 47.7 Q 39.8 46.5, 39.8 44.3 M 44.0 48.0 Q 45.4 48.0, 46.1 47.0 Q 46.9 46.1, 46.9 44.3 Q 46.9 42.5, 46.1 41.6 Q 45.4 40.7, 44.0 40.7 Q 42.6 40.7, 41.8 41.6 Q 41.1 42.5, 41.1 44.3 Q 41.1 46.1, 41.8 47.0 Q 42.6 48.0, 44.0 48.0 " fill="#FF0000"/>
<path class="atom-15" d="M 49.5 39.8 L 50.8 39.8 L 50.8 43.6 L 55.4 43.6 L 55.4 39.8 L 56.6 39.8 L 56.6 48.8 L 55.4 48.8 L 55.4 44.7 L 50.8 44.7 L 50.8 48.8 L 49.5 48.8 L 49.5 39.8 " fill="#FF0000"/>
<path class="legend" d="M 123.7 181.9 Q 123.7 179.6, 124.4 177.7 Q 125.1 175.8, 126.4 173.8 L 127.3 174.4 Q 126.2 176.3, 125.7 178.0 Q 125.2 179.7, 125.2 181.9 Q 125.2 184.0, 125.7 185.8 Q 126.2 187.5, 127.3 189.4 L 126.4 190.0 Q 125.1 188.0, 124.4 186.1 Q 123.7 184.2, 123.7 181.9 " fill="#000000"/>
<path class="legend" d="M 128.2 177.3 Q 128.6 176.2, 129.6 175.6 Q 130.6 175.0, 132.0 175.0 Q 133.7 175.0, 134.6 175.9 Q 135.6 176.8, 135.6 178.5 Q 135.6 180.2, 134.3 181.7 Q 133.1 183.3, 130.6 185.2 L 135.8 185.2 L 135.8 186.4 L 128.2 186.4 L 128.2 185.4 Q 130.3 183.9, 131.5 182.8 Q 132.8 181.6, 133.4 180.6 Q 134.0 179.6, 134.0 178.6 Q 134.0 177.5, 133.4 176.9 Q 132.9 176.3, 132.0 176.3 Q 131.1 176.3, 130.4 176.6 Q 129.8 177.0, 129.4 177.8 L 128.2 177.3 " fill="#000000"/>
<path class="legend" d="M 140.8 181.9 Q 140.8 184.2, 140.1 186.1 Q 139.4 188.0, 138.1 190.0 L 137.2 189.4 Q 138.3 187.5, 138.8 185.8 Q 139.3 184.0, 139.3 181.9 Q 139.3 179.7, 138.8 178.0 Q 138.3 176.3, 137.2 174.4 L 138.1 173.8 Q 139.4 175.8, 140.1 177.7 Q 140.8 179.6, 140.8 181.9 " fill="#000000"/>
</g>
    <g transform="translate(265.0, 0) scale(1 1) "><line x1="5" y1="100" x2="35" y2="100" style="stroke:rgb(0,0,0);stroke-width:2"/>
  <line x1="34" y1="100" x2="29" y2="95" style="stroke:rgb(0,0,0);stroke-width:2"/>
  <line x1="34" y1="100" x2="29" y2="105" style="stroke:rgb(0,0,0);stroke-width:2"/>
</g>
    <g transform="translate(305.0, 0) scale(1 1) "><!-- END OF HEADER -->
<rect style="opacity:1.0;fill:#FFFFFF;stroke:none" width="225.0" height="200.0" x="0.0" y="0.0"> </rect>
<path class="bond-0 atom-0 atom-1" d="M 11.2,78.1 L 29.2,75.0" style="fill:none;fill-rule:evenodd;stroke:#000000;stroke-width:2.0px;stroke-linecap:butt;stroke-linejoin:miter;stroke-opacity:1"/>
<path class="bond-0 atom-0 atom-1" d="M 29.2,75.0 L 47.1,71.9" style="fill:none;fill-rule:evenodd;stroke:#FF0000;stroke-width:2.0px;stroke-linecap:butt;stroke-linejoin:miter;stroke-opacity:1"/>
<path class="bond-1 atom-1 atom-2" d="M 60.8,78.6 L 71.5,91.4" style="fill:none;fill-rule:evenodd;stroke:#FF0000;stroke-width:2.0px;stroke-linecap:butt;stroke-linejoin:miter;stroke-opacity:1"/>
<path class="bond-1 atom-1 atom-2" d="M 71.5,91.4 L 82.1,104.2" style="fill:none;fill-rule:evenodd;stroke:#000000;stroke-width:2.0px;stroke-linecap:butt;stroke-linejoin:miter;stroke-opacity:1"/>
<path class="bond-2 atom-2 atom-3" d="M 79.7,101.3 L 73.3,118.8" style="fill:none;fill-rule:evenodd;stroke:#000000;stroke-width:2.0px;stroke-linecap:butt;stroke-linejoin:miter;stroke-opacity:1"/>
<path class="bond-2 atom-2 atom-3" d="M 73.3,118.8 L 66.8,136.3" style="fill:none;fill-rule:evenodd;stroke:#FF0000;stroke-width:2.0px;stroke-linecap:butt;stroke-linejoin:miter;stroke-opacity:1"/>
<path class="bond-2 atom-2 atom-3" d="M 85.9,103.6 L 79.4,121.1" style="fill:none;fill-rule:evenodd;stroke:#000000;stroke-width:2.0px;stroke-linecap:butt;stroke-linejoin:miter;stroke-opacity:1"/>
<path class="bond-2 atom-2 atom-3" d="M 79.4,121.1 L 73.0,138.6" style="fill:none;fill-rule:evenodd;stroke:#FF0000;stroke-width:2.0px;stroke-linecap:butt;stroke-linejoin:miter;stroke-opacity:1"/>
<path class="bond-3 atom-2 atom-4" d="M 82.1,104.2 L 125.1,96.8" style="fill:none;fill-rule:evenodd;stroke:#000000;stroke-width:2.0px;stroke-linecap:butt;stroke-linejoin:miter;stroke-opacity:1"/>
<path class="bond-4 atom-4 atom-5" d="M 125.1,96.8 L 132.5,139.8" style="fill:none;fill-rule:evenodd;stroke:#000000;stroke-width:2.0px;stroke-linecap:butt;stroke-linejoin:miter;stroke-opacity:1"/>
<path class="bond-5 atom-4 atom-6" d="M 125.1,96.8 L 117.7,53.8" style="fill:none;fill-rule:evenodd;stroke:#000000;stroke-width:2.0px;stroke-linecap:butt;stroke-linejoin:miter;stroke-opacity:1"/>
<path class="bond-6 atom-4 atom-7" d="M 125.1,96.8 L 168.1,89.4" style="fill:none;fill-rule:evenodd;stroke:#000000;stroke-width:2.0px;stroke-linecap:butt;stroke-linejoin:miter;stroke-opacity:1"/>
<path class="bond-7 atom-7 atom-8" d="M 168.1,89.4 L 183.1,48.4" style="fill:none;fill-rule:evenodd;stroke:#000000;stroke-width:2.0px;stroke-linecap:butt;stroke-linejoin:miter;stroke-opacity:1"/>
<path class="bond-8 atom-7 atom-9" d="M 168.1,89.4 L 178.8,102.3" style="fill:none;fill-rule:evenodd;stroke:#000000;stroke-width:2.0px;stroke-linecap:butt;stroke-linejoin:miter;stroke-opacity:1"/>
<path class="bond-8 atom-7 atom-9" d="M 178.8,102.3 L 189.6,115.2" style="fill:none;fill-rule:evenodd;stroke:#FF0000;stroke-width:2.0px;stroke-linecap:butt;stroke-linejoin:miter;stroke-opacity:1"/>
<path d="M 81.6,103.6 L 82.1,104.2 L 84.3,103.8" style="fill:none;stroke:#000000;stroke-width:2.0px;stroke-linecap:butt;stroke-linejoin:miter;stroke-opacity:1;"/>
<path class="atom-1" d="M 48.6 70.7 Q 48.6 67.8, 50.0 66.1 Q 51.5 64.4, 54.2 64.4 Q 57.0 64.4, 58.4 66.1 Q 59.9 67.8, 59.9 70.7 Q 59.9 73.7, 58.4 75.4 Q 56.9 77.1, 54.2 77.1 Q 51.5 77.1, 50.0 75.4 Q 48.6 73.7, 48.6 70.7 M 54.2 75.7 Q 56.1 75.7, 57.1 74.5 Q 58.1 73.2, 58.1 70.7 Q 58.1 68.3, 57.1 67.1 Q 56.1 65.8, 54.2 65.8 Q 52.3 65.8, 51.3 67.1 Q 50.3 68.3, 50.3 70.7 Q 50.3 73.2, 51.3 74.5 Q 52.3 75.7, 54.2 75.7 " fill="#FF0000"/>
<path class="atom-3" d="M 61.4 145.2 Q 61.4 142.2, 62.9 140.5 Q 64.3 138.9, 67.1 138.9 Q 69.8 138.9, 71.3 140.5 Q 72.7 142.2, 72.7 145.2 Q 72.7 148.2, 71.3 149.9 Q 69.8 151.6, 67.1 151.6 Q 64.4 151.6, 62.9 149.9 Q 61.4 148.2, 61.4 145.2 M 67.1 150.2 Q 69.0 150.2, 70.0 148.9 Q 71.0 147.6, 71.0 145.2 Q 71.0 142.7, 70.0 141.5 Q 69.0 140.3, 67.1 140.3 Q 65.2 140.3, 64.2 141.5 Q 63.1 142.7, 63.1 145.2 Q 63.1 147.7, 64.2 148.9 Q 65.2 150.2, 67.1 150.2 " fill="#FF0000"/>
<path class="atom-9" d="M 190.3 122.9 Q 190.3 119.9, 191.8 118.3 Q 193.3 116.6, 196.0 116.6 Q 198.7 116.6, 200.2 118.3 Q 201.7 119.9, 201.7 122.9 Q 201.7 125.9, 200.2 127.6 Q 198.7 129.3, 196.0 129.3 Q 193.3 129.3, 191.8 127.6 Q 190.3 125.9, 190.3 122.9 M 196.0 127.9 Q 197.9 127.9, 198.9 126.7 Q 199.9 125.4, 199.9 122.9 Q 199.9 120.5, 198.9 119.3 Q 197.9 118.0, 196.0 118.0 Q 194.1 118.0, 193.1 119.2 Q 192.1 120.5, 192.1 122.9 Q 192.1 125.4, 193.1 126.7 Q 194.1 127.9, 196.0 127.9 " fill="#FF0000"/>
<path class="atom-9" d="M 203.6 116.8 L 205.3 116.8 L 205.3 122.0 L 211.6 122.0 L 211.6 116.8 L 213.3 116.8 L 213.3 129.1 L 211.6 129.1 L 211.6 123.4 L 205.3 123.4 L 205.3 129.1 L 203.6 129.1 L 203.6 116.8 " fill="#FF0000"/>
</g>
    <g transform="translate(530.0, 0) scale(1 1) "><line x1="15" y1="100" x2="25" y2="100" style="stroke:rgb(0,0,0);stroke-width:2"/>
  <line x1="20" y1="95" x2="20" y2="105" style="stroke:rgb(0,0,0);stroke-width:2"/>
</g>
    <g transform="translate(570.0, 0) scale(1 1) "><!-- END OF HEADER -->
<rect style="opacity:1.0;fill:#FFFFFF;stroke:none" width="293.0" height="200.0" x="0.0" y="0.0"> </rect>
<path class="bond-0 atom-0 atom-1" d="M 194.7,48.8 L 199.1,78.9" style="fill:none;fill-rule:evenodd;stroke:#000000;stroke-width:2.0px;stroke-linecap:butt;stroke-linejoin:miter;stroke-opacity:1"/>
<path class="bond-1 atom-1 atom-2" d="M 199.1,78.9 L 205.3,80.5" style="fill:none;fill-rule:evenodd;stroke:#000000;stroke-width:2.0px;stroke-linecap:butt;stroke-linejoin:miter;stroke-opacity:1"/>
<path class="bond-1 atom-1 atom-2" d="M 205.3,80.5 L 211.6,82.2" style="fill:none;fill-rule:evenodd;stroke:#FF0000;stroke-width:2.0px;stroke-linecap:butt;stroke-linejoin:miter;stroke-opacity:1"/>
<path class="bond-2 atom-1 atom-3" d="M 199.1,78.9 L 175.2,97.8" style="fill:none;fill-rule:evenodd;stroke:#000000;stroke-width:2.0px;stroke-linecap:butt;stroke-linejoin:miter;stroke-opacity:1"/>
<path class="bond-3 atom-3 atom-4" d="M 175.2,97.8 L 156.3,73.8" style="fill:none;fill-rule:evenodd;stroke:#000000;stroke-width:2.0px;stroke-linecap:butt;stroke-linejoin:miter;stroke-opacity:1"/>
<path class="bond-4 atom-3 atom-5" d="M 175.2,97.8 L 194.1,121.7" style="fill:none;fill-rule:evenodd;stroke:#000000;stroke-width:2.0px;stroke-linecap:butt;stroke-linejoin:miter;stroke-opacity:1"/>
<path class="bond-5 atom-5 atom-6" d="M 194.1,121.7 L 224.2,117.3" style="fill:none;fill-rule:evenodd;stroke:#000000;stroke-width:2.0px;stroke-linecap:butt;stroke-linejoin:miter;stroke-opacity:1"/>
<path class="bond-6 atom-6 atom-7" d="M 224.2,117.3 L 223.8,99.3" style="fill:none;fill-rule:evenodd;stroke:#000000;stroke-width:2.0px;stroke-linecap:butt;stroke-linejoin:miter;stroke-opacity:1"/>
<path class="bond-7 atom-6 atom-8" d="M 224.2,117.3 L 228.6,147.4" style="fill:none;fill-rule:evenodd;stroke:#000000;stroke-width:2.0px;stroke-linecap:butt;stroke-linejoin:miter;stroke-opacity:1"/>
<path class="bond-8 atom-6 atom-9" d="M 224.2,117.3 L 254.3,112.9" style="fill:none;fill-rule:evenodd;stroke:#000000;stroke-width:2.0px;stroke-linecap:butt;stroke-linejoin:miter;stroke-opacity:1"/>
<path class="bond-9 atom-9 atom-10" d="M 251.8,113.2 L 259.5,123.0" style="fill:none;fill-rule:evenodd;stroke:#000000;stroke-width:2.0px;stroke-linecap:butt;stroke-linejoin:miter;stroke-opacity:1"/>
<path class="bond-9 atom-9 atom-10" d="M 259.5,123.0 L 267.3,132.8" style="fill:none;fill-rule:evenodd;stroke:#FF0000;stroke-width:2.0px;stroke-linecap:butt;stroke-linejoin:miter;stroke-opacity:1"/>
<path class="bond-9 atom-9 atom-10" d="M 255.3,110.5 L 263.0,120.3" style="fill:none;fill-rule:evenodd;stroke:#000000;stroke-width:2.0px;stroke-linecap:butt;stroke-linejoin:miter;stroke-opacity:1"/>
<path class="bond-9 atom-9 atom-10" d="M 263.0,120.3 L 270.7,130.1" style="fill:none;fill-rule:evenodd;stroke:#FF0000;stroke-width:2.0px;stroke-linecap:butt;stroke-linejoin:miter;stroke-opacity:1"/>
<path class="bond-10 atom-9 atom-11" d="M 254.3,112.9 L 258.9,101.5" style="fill:none;fill-rule:evenodd;stroke:#000000;stroke-width:2.0px;stroke-linecap:butt;stroke-linejoin:miter;stroke-opacity:1"/>
<path class="bond-10 atom-9 atom-11" d="M 258.9,101.5 L 263.4,90.1" style="fill:none;fill-rule:evenodd;stroke:#FF0000;stroke-width:2.0px;stroke-linecap:butt;stroke-linejoin:miter;stroke-opacity:1"/>
<path class="bond-11 atom-3 atom-12" d="M 175.2,97.8 L 151.3,116.6" style="fill:none;fill-rule:evenodd;stroke:#000000;stroke-width:2.0px;stroke-linecap:butt;stroke-linejoin:miter;stroke-opacity:1"/>
<path class="bond-12 atom-12 atom-13" d="M 148.9,115.7 L 150.8,128.7" style="fill:none;fill-rule:evenodd;stroke:#000000;stroke-width:2.0px;stroke-linecap:butt;stroke-linejoin:miter;stroke-opacity:1"/>
<path class="bond-12 atom-12 atom-13" d="M 150.8,128.7 L 152.7,141.7" style="fill:none;fill-rule:evenodd;stroke:#FF0000;stroke-width:2.0px;stroke-linecap:butt;stroke-linejoin:miter;stroke-opacity:1"/>
<path class="bond-12 atom-12 atom-13" d="M 153.3,115.0 L 155.2,128.1" style="fill:none;fill-rule:evenodd;stroke:#000000;stroke-width:2.0px;stroke-linecap:butt;stroke-linejoin:miter;stroke-opacity:1"/>
<path class="bond-12 atom-12 atom-13" d="M 155.2,128.1 L 157.1,141.1" style="fill:none;fill-rule:evenodd;stroke:#FF0000;stroke-width:2.0px;stroke-linecap:butt;stroke-linejoin:miter;stroke-opacity:1"/>
<path class="bond-13 atom-12 atom-14" d="M 151.3,116.6 L 139.6,112.0" style="fill:none;fill-rule:evenodd;stroke:#000000;stroke-width:2.0px;stroke-linecap:butt;stroke-linejoin:miter;stroke-opacity:1"/>
<path class="bond-13 atom-12 atom-14" d="M 139.6,112.0 L 127.9,107.3" style="fill:none;fill-rule:evenodd;stroke:#FF0000;stroke-width:2.0px;stroke-linecap:butt;stroke-linejoin:miter;stroke-opacity:1"/>
<path class="bond-14 atom-14 atom-15" d="M 118.1,109.2 L 108.6,116.7" style="fill:none;fill-rule:evenodd;stroke:#FF0000;stroke-width:2.0px;stroke-linecap:butt;stroke-linejoin:miter;stroke-opacity:1"/>
<path class="bond-14 atom-14 atom-15" d="M 108.6,116.7 L 99.1,124.2" style="fill:none;fill-rule:evenodd;stroke:#000000;stroke-width:2.0px;stroke-linecap:butt;stroke-linejoin:miter;stroke-opacity:1"/>
<path class="bond-15 atom-15 atom-16" d="M 99.1,124.2 L 70.8,112.9" style="fill:none;fill-rule:evenodd;stroke:#000000;stroke-width:2.0px;stroke-linecap:butt;stroke-linejoin:miter;stroke-opacity:1"/>
<path class="bond-16 atom-16 atom-17" d="M 70.8,112.9 L 82.1,84.7" style="fill:none;fill-rule:evenodd;stroke:#000000;stroke-width:2.0px;stroke-linecap:butt;stroke-linejoin:miter;stroke-opacity:1"/>
<path class="bond-17 atom-16 atom-18" d="M 70.8,112.9 L 59.5,141.2" style="fill:none;fill-rule:evenodd;stroke:#000000;stroke-width:2.0px;stroke-linecap:butt;stroke-linejoin:miter;stroke-opacity:1"/>
<path class="bond-18 atom-16 atom-19" d="M 70.8,112.9 L 42.5,101.7" style="fill:none;fill-rule:evenodd;stroke:#000000;stroke-width:2.0px;stroke-linecap:butt;stroke-linejoin:miter;stroke-opacity:1"/>
<path class="bond-19 atom-19 atom-20" d="M 42.1,99.2 L 32.2,107.1" style="fill:none;fill-rule:evenodd;stroke:#000000;stroke-width:2.0px;stroke-linecap:butt;stroke-linejoin:miter;stroke-opacity:1"/>
<path class="bond-19 atom-19 atom-20" d="M 32.2,107.1 L 22.2,114.9" style="fill:none;fill-rule:evenodd;stroke:#FF0000;stroke-width:2.0px;stroke-linecap:butt;stroke-linejoin:miter;stroke-opacity:1"/>
<path class="bond-19 atom-19 atom-20" d="M 44.9,102.6 L 34.9,110.5" style="fill:none;fill-rule:evenodd;stroke:#000000;stroke-width:2.0px;stroke-linecap:butt;stroke-linejoin:miter;stroke-opacity:1"/>
<path class="bond-19 atom-19 atom-20" d="M 34.9,110.5 L 24.9,118.4" style="fill:none;fill-rule:evenodd;stroke:#FF0000;stroke-width:2.0px;stroke-linecap:butt;stroke-linejoin:miter;stroke-opacity:1"/>
<path class="bond-20 atom-19 atom-21" d="M 42.5,101.7 L 40.7,89.3" style="fill:none;fill-rule:evenodd;stroke:#000000;stroke-width:2.0px;stroke-linecap:butt;stroke-linejoin:miter;stroke-opacity:1"/>
<path class="bond-20 atom-19 atom-21" d="M 40.7,89.3 L 38.9,77.0" style="fill:none;fill-rule:evenodd;stroke:#FF0000;stroke-width:2.0px;stroke-linecap:butt;stroke-linejoin:miter;stroke-opacity:1"/>
<path d="M 193.1,120.5 L 194.1,121.7 L 195.6,121.4" style="fill:none;stroke:#000000;stroke-width:2.0px;stroke-linecap:butt;stroke-linejoin:miter;stroke-opacity:1;"/>
<path d="M 252.8,113.1 L 254.3,112.9 L 254.6,112.3" style="fill:none;stroke:#000000;stroke-width:2.0px;stroke-linecap:butt;stroke-linejoin:miter;stroke-opacity:1;"/>
<path d="M 152.5,115.7 L 151.3,116.6 L 150.7,116.4" style="fill:none;stroke:#000000;stroke-width:2.0px;stroke-linecap:butt;stroke-linejoin:miter;stroke-opacity:1;"/>
<path d="M 99.6,123.8 L 99.1,124.2 L 97.7,123.7" style="fill:none;stroke:#000000;stroke-width:2.0px;stroke-linecap:butt;stroke-linejoin:miter;stroke-opacity:1;"/>
<path d="M 43.9,102.2 L 42.5,101.7 L 42.4,101.1" style="fill:none;stroke:#000000;stroke-width:2.0px;stroke-linecap:butt;stroke-linejoin:miter;stroke-opacity:1;"/>
<path class="atom-2" d="M 212.5 83.5 Q 212.5 81.4, 213.6 80.3 Q 214.6 79.1, 216.5 79.1 Q 218.4 79.1, 219.4 80.3 Q 220.5 81.4, 220.5 83.5 Q 220.5 85.6, 219.4 86.8 Q 218.4 87.9, 216.5 87.9 Q 214.6 87.9, 213.6 86.8 Q 212.5 85.6, 212.5 83.5 M 216.5 87.0 Q 217.8 87.0, 218.5 86.1 Q 219.2 85.2, 219.2 83.5 Q 219.2 81.8, 218.5 80.9 Q 217.8 80.1, 216.5 80.1 Q 215.2 80.1, 214.5 80.9 Q 213.8 81.8, 213.8 83.5 Q 213.8 85.2, 214.5 86.1 Q 215.2 87.0, 216.5 87.0 " fill="#FF0000"/>
<path class="atom-2" d="M 221.8 79.2 L 223.0 79.2 L 223.0 82.9 L 227.4 82.9 L 227.4 79.2 L 228.5 79.2 L 228.5 87.8 L 227.4 87.8 L 227.4 83.8 L 223.0 83.8 L 223.0 87.8 L 221.8 87.8 L 221.8 79.2 " fill="#FF0000"/>
<path class="atom-10" d="M 269.2 136.8 Q 269.2 134.7, 270.3 133.6 Q 271.3 132.4, 273.2 132.4 Q 275.1 132.4, 276.1 133.6 Q 277.2 134.7, 277.2 136.8 Q 277.2 138.9, 276.1 140.1 Q 275.1 141.3, 273.2 141.3 Q 271.3 141.3, 270.3 140.1 Q 269.2 138.9, 269.2 136.8 M 273.2 140.3 Q 274.5 140.3, 275.2 139.4 Q 275.9 138.5, 275.9 136.8 Q 275.9 135.1, 275.2 134.3 Q 274.5 133.4, 273.2 133.4 Q 271.9 133.4, 271.2 134.3 Q 270.5 135.1, 270.5 136.8 Q 270.5 138.6, 271.2 139.4 Q 271.9 140.3, 273.2 140.3 " fill="#FF0000"/>
<path class="atom-11" d="M 261.6 84.6 Q 261.6 82.5, 262.7 81.4 Q 263.7 80.2, 265.6 80.2 Q 267.5 80.2, 268.5 81.4 Q 269.6 82.5, 269.6 84.6 Q 269.6 86.7, 268.5 87.9 Q 267.5 89.1, 265.6 89.1 Q 263.7 89.1, 262.7 87.9 Q 261.6 86.7, 261.6 84.6 M 265.6 88.1 Q 266.9 88.1, 267.6 87.2 Q 268.3 86.3, 268.3 84.6 Q 268.3 82.9, 267.6 82.1 Q 266.9 81.2, 265.6 81.2 Q 264.3 81.2, 263.6 82.1 Q 262.9 82.9, 262.9 84.6 Q 262.9 86.4, 263.6 87.2 Q 264.3 88.1, 265.6 88.1 " fill="#FF0000"/>
<path class="atom-11" d="M 270.9 80.3 L 272.1 80.3 L 272.1 84.0 L 276.5 84.0 L 276.5 80.3 L 277.6 80.3 L 277.6 89.0 L 276.5 89.0 L 276.5 85.0 L 272.1 85.0 L 272.1 89.0 L 270.9 89.0 L 270.9 80.3 " fill="#FF0000"/>
<path class="atom-13" d="M 151.7 146.8 Q 151.7 144.7, 152.7 143.6 Q 153.8 142.4, 155.7 142.4 Q 157.6 142.4, 158.6 143.6 Q 159.6 144.7, 159.6 146.8 Q 159.6 148.9, 158.6 150.1 Q 157.6 151.2, 155.7 151.2 Q 153.8 151.2, 152.7 150.1 Q 151.7 148.9, 151.7 146.8 M 155.7 150.3 Q 157.0 150.3, 157.7 149.4 Q 158.4 148.5, 158.4 146.8 Q 158.4 145.1, 157.7 144.2 Q 157.0 143.4, 155.7 143.4 Q 154.4 143.4, 153.6 144.2 Q 152.9 145.1, 152.9 146.8 Q 152.9 148.5, 153.6 149.4 Q 154.4 150.3, 155.7 150.3 " fill="#FF0000"/>
<path class="atom-14" d="M 119.0 105.4 Q 119.0 103.3, 120.1 102.1 Q 121.1 101.0, 123.0 101.0 Q 124.9 101.0, 125.9 102.1 Q 127.0 103.3, 127.0 105.4 Q 127.0 107.5, 125.9 108.7 Q 124.9 109.8, 123.0 109.8 Q 121.1 109.8, 120.1 108.7 Q 119.0 107.5, 119.0 105.4 M 123.0 108.9 Q 124.3 108.9, 125.0 108.0 Q 125.7 107.1, 125.7 105.4 Q 125.7 103.7, 125.0 102.8 Q 124.3 102.0, 123.0 102.0 Q 121.7 102.0, 121.0 102.8 Q 120.3 103.7, 120.3 105.4 Q 120.3 107.1, 121.0 108.0 Q 121.7 108.9, 123.0 108.9 " fill="#FF0000"/>
<path class="atom-20" d="M 14.7 120.6 Q 14.7 118.5, 15.7 117.3 Q 16.7 116.2, 18.6 116.2 Q 20.5 116.2, 21.5 117.3 Q 22.6 118.5, 22.6 120.6 Q 22.6 122.7, 21.5 123.9 Q 20.5 125.0, 18.6 125.0 Q 16.7 125.0, 15.7 123.9 Q 14.7 122.7, 14.7 120.6 M 18.6 124.1 Q 19.9 124.1, 20.6 123.2 Q 21.3 122.3, 21.3 120.6 Q 21.3 118.9, 20.6 118.0 Q 19.9 117.2, 18.6 117.2 Q 17.3 117.2, 16.6 118.0 Q 15.9 118.9, 15.9 120.6 Q 15.9 122.3, 16.6 123.2 Q 17.3 124.1, 18.6 124.1 " fill="#FF0000"/>
<path class="atom-21" d="M 34.2 71.6 Q 34.2 69.5, 35.2 68.3 Q 36.2 67.2, 38.1 67.2 Q 40.0 67.2, 41.1 68.3 Q 42.1 69.5, 42.1 71.6 Q 42.1 73.7, 41.0 74.9 Q 40.0 76.0, 38.1 76.0 Q 36.2 76.0, 35.2 74.9 Q 34.2 73.7, 34.2 71.6 M 38.1 75.1 Q 39.4 75.1, 40.1 74.2 Q 40.9 73.3, 40.9 71.6 Q 40.9 69.9, 40.1 69.0 Q 39.4 68.2, 38.1 68.2 Q 36.8 68.2, 36.1 69.0 Q 35.4 69.9, 35.4 71.6 Q 35.4 73.3, 36.1 74.2 Q 36.8 75.1, 38.1 75.1 " fill="#FF0000"/>
<path class="atom-21" d="M 43.4 67.3 L 44.6 67.3 L 44.6 70.9 L 49.0 70.9 L 49.0 67.3 L 50.2 67.3 L 50.2 75.9 L 49.0 75.9 L 49.0 71.9 L 44.6 71.9 L 44.6 75.9 L 43.4 75.9 L 43.4 67.3 " fill="#FF0000"/>
</g>
  </g>
</svg>
