<?xml version='1.0' encoding='ASCII' standalone='yes'?>
<svg xmlns="http://www.w3.org/2000/svg" xmlns:rdkit="http://www.rdkit.org/xml" xmlns:xlink="http://www.w3.org/1999/xlink" version="1.1" baseProfile="full" xml:space="preserve" width="297px" height="200px" viewBox="0 0 297 200">
<!-- END OF HEADER -->
<rect style="opacity:1.0;fill:#FFFFFF;stroke:none" width="297.0" height="200.0" x="0.0" y="0.0"> </rect>
<path class="bond-0 atom-0 atom-1" d="M 15.4,31.1 L 30.8,58.4" style="fill:none;fill-rule:evenodd;stroke:#000000;stroke-width:2.0px;stroke-linecap:butt;stroke-linejoin:miter;stroke-opacity:1"/>
<path class="bond-1 atom-1 atom-2" d="M 30.8,58.4 L 14.9,85.4" style="fill:none;fill-rule:evenodd;stroke:#000000;stroke-width:2.0px;stroke-linecap:butt;stroke-linejoin:miter;stroke-opacity:1"/>
<path class="bond-2 atom-1 atom-3" d="M 30.8,58.4 L 62.2,58.7" style="fill:none;fill-rule:evenodd;stroke:#000000;stroke-width:2.0px;stroke-linecap:butt;stroke-linejoin:miter;stroke-opacity:1"/>
<path class="bond-3 atom-3 atom-4" d="M 62.2,58.7 L 68.6,48.0" style="fill:none;fill-rule:evenodd;stroke:#000000;stroke-width:2.0px;stroke-linecap:butt;stroke-linejoin:miter;stroke-opacity:1"/>
<path class="bond-3 atom-3 atom-4" d="M 68.6,48.0 L 74.9,37.2" style="fill:none;fill-rule:evenodd;stroke:#0000FF;stroke-width:2.0px;stroke-linecap:butt;stroke-linejoin:miter;stroke-opacity:1"/>
<path class="bond-4 atom-3 atom-5" d="M 62.2,58.7 L 77.6,86.1" style="fill:none;fill-rule:evenodd;stroke:#000000;stroke-width:2.0px;stroke-linecap:butt;stroke-linejoin:miter;stroke-opacity:1"/>
<path class="bond-5 atom-5 atom-6" d="M 76.3,83.7 L 69.6,95.0" style="fill:none;fill-rule:evenodd;stroke:#000000;stroke-width:2.0px;stroke-linecap:butt;stroke-linejoin:miter;stroke-opacity:1"/>
<path class="bond-5 atom-5 atom-6" d="M 69.6,95.0 L 62.9,106.4" style="fill:none;fill-rule:evenodd;stroke:#FF0000;stroke-width:2.0px;stroke-linecap:butt;stroke-linejoin:miter;stroke-opacity:1"/>
<path class="bond-5 atom-5 atom-6" d="M 80.3,86.1 L 73.6,97.4" style="fill:none;fill-rule:evenodd;stroke:#000000;stroke-width:2.0px;stroke-linecap:butt;stroke-linejoin:miter;stroke-opacity:1"/>
<path class="bond-5 atom-5 atom-6" d="M 73.6,97.4 L 66.9,108.8" style="fill:none;fill-rule:evenodd;stroke:#FF0000;stroke-width:2.0px;stroke-linecap:butt;stroke-linejoin:miter;stroke-opacity:1"/>
<path class="bond-6 atom-5 atom-7" d="M 77.6,86.1 L 90.7,86.2" style="fill:none;fill-rule:evenodd;stroke:#000000;stroke-width:2.0px;stroke-linecap:butt;stroke-linejoin:miter;stroke-opacity:1"/>
<path class="bond-6 atom-5 atom-7" d="M 90.7,86.2 L 103.9,86.3" style="fill:none;fill-rule:evenodd;stroke:#FF0000;stroke-width:2.0px;stroke-linecap:butt;stroke-linejoin:miter;stroke-opacity:1"/>
<path class="bond-7 atom-7 atom-8" d="M 112.2,92.1 L 118.3,102.9" style="fill:none;fill-rule:evenodd;stroke:#FF0000;stroke-width:2.0px;stroke-linecap:butt;stroke-linejoin:miter;stroke-opacity:1"/>
<path class="bond-7 atom-7 atom-8" d="M 118.3,102.9 L 124.4,113.7" style="fill:none;fill-rule:evenodd;stroke:#000000;stroke-width:2.0px;stroke-linecap:butt;stroke-linejoin:miter;stroke-opacity:1"/>
<path class="bond-8 atom-8 atom-9" d="M 124.4,113.7 L 108.4,140.7" style="fill:none;fill-rule:evenodd;stroke:#000000;stroke-width:2.0px;stroke-linecap:butt;stroke-linejoin:miter;stroke-opacity:1"/>
<path class="bond-9 atom-9 atom-10" d="M 109.8,138.4 L 96.0,138.3" style="fill:none;fill-rule:evenodd;stroke:#000000;stroke-width:2.0px;stroke-linecap:butt;stroke-linejoin:miter;stroke-opacity:1"/>
<path class="bond-9 atom-9 atom-10" d="M 96.0,138.3 L 82.2,138.1" style="fill:none;fill-rule:evenodd;stroke:#FF0000;stroke-width:2.0px;stroke-linecap:butt;stroke-linejoin:miter;stroke-opacity:1"/>
<path class="bond-9 atom-9 atom-10" d="M 109.8,143.1 L 96.0,143.0" style="fill:none;fill-rule:evenodd;stroke:#000000;stroke-width:2.0px;stroke-linecap:butt;stroke-linejoin:miter;stroke-opacity:1"/>
<path class="bond-9 atom-9 atom-10" d="M 96.0,143.0 L 82.1,142.8" style="fill:none;fill-rule:evenodd;stroke:#FF0000;stroke-width:2.0px;stroke-linecap:butt;stroke-linejoin:miter;stroke-opacity:1"/>
<path class="bond-10 atom-9 atom-11" d="M 108.4,140.7 L 114.6,151.7" style="fill:none;fill-rule:evenodd;stroke:#000000;stroke-width:2.0px;stroke-linecap:butt;stroke-linejoin:miter;stroke-opacity:1"/>
<path class="bond-10 atom-9 atom-11" d="M 114.6,151.7 L 120.7,162.6" style="fill:none;fill-rule:evenodd;stroke:#FF0000;stroke-width:2.0px;stroke-linecap:butt;stroke-linejoin:miter;stroke-opacity:1"/>
<path class="bond-11 atom-8 atom-12" d="M 124.4,113.7 L 155.8,114.1" style="fill:none;fill-rule:evenodd;stroke:#000000;stroke-width:2.0px;stroke-linecap:butt;stroke-linejoin:miter;stroke-opacity:1"/>
<path class="bond-12 atom-12 atom-13" d="M 155.8,114.1 L 156.1,82.7" style="fill:none;fill-rule:evenodd;stroke:#000000;stroke-width:2.0px;stroke-linecap:butt;stroke-linejoin:miter;stroke-opacity:1"/>
<path class="bond-13 atom-12 atom-14" d="M 155.8,114.1 L 155.5,145.4" style="fill:none;fill-rule:evenodd;stroke:#000000;stroke-width:2.0px;stroke-linecap:butt;stroke-linejoin:miter;stroke-opacity:1"/>
<path class="bond-14 atom-12 atom-15" d="M 155.8,114.1 L 168.9,114.2" style="fill:none;fill-rule:evenodd;stroke:#000000;stroke-width:2.0px;stroke-linecap:butt;stroke-linejoin:miter;stroke-opacity:1"/>
<path class="bond-14 atom-12 atom-15" d="M 168.9,114.2 L 182.0,114.3" style="fill:none;fill-rule:evenodd;stroke:#FF0000;stroke-width:2.0px;stroke-linecap:butt;stroke-linejoin:miter;stroke-opacity:1"/>
<path class="bond-15 atom-15 atom-16" d="M 190.4,108.8 L 196.8,98.1" style="fill:none;fill-rule:evenodd;stroke:#FF0000;stroke-width:2.0px;stroke-linecap:butt;stroke-linejoin:miter;stroke-opacity:1"/>
<path class="bond-15 atom-15 atom-16" d="M 196.8,98.1 L 203.1,87.4" style="fill:none;fill-rule:evenodd;stroke:#000000;stroke-width:2.0px;stroke-linecap:butt;stroke-linejoin:miter;stroke-opacity:1"/>
<path class="bond-16 atom-16 atom-17" d="M 205.8,87.4 L 199.4,76.0" style="fill:none;fill-rule:evenodd;stroke:#000000;stroke-width:2.0px;stroke-linecap:butt;stroke-linejoin:miter;stroke-opacity:1"/>
<path class="bond-16 atom-16 atom-17" d="M 199.4,76.0 L 193.0,64.5" style="fill:none;fill-rule:evenodd;stroke:#FF0000;stroke-width:2.0px;stroke-linecap:butt;stroke-linejoin:miter;stroke-opacity:1"/>
<path class="bond-16 atom-16 atom-17" d="M 201.7,89.7 L 195.3,78.3" style="fill:none;fill-rule:evenodd;stroke:#000000;stroke-width:2.0px;stroke-linecap:butt;stroke-linejoin:miter;stroke-opacity:1"/>
<path class="bond-16 atom-16 atom-17" d="M 195.3,78.3 L 188.9,66.8" style="fill:none;fill-rule:evenodd;stroke:#FF0000;stroke-width:2.0px;stroke-linecap:butt;stroke-linejoin:miter;stroke-opacity:1"/>
<path class="bond-17 atom-16 atom-18" d="M 203.1,87.4 L 234.5,87.7" style="fill:none;fill-rule:evenodd;stroke:#000000;stroke-width:2.0px;stroke-linecap:butt;stroke-linejoin:miter;stroke-opacity:1"/>
<path class="bond-18 atom-18 atom-19" d="M 234.5,87.7 L 240.7,98.6" style="fill:none;fill-rule:evenodd;stroke:#000000;stroke-width:2.0px;stroke-linecap:butt;stroke-linejoin:miter;stroke-opacity:1"/>
<path class="bond-18 atom-18 atom-19" d="M 240.7,98.6 L 246.8,109.5" style="fill:none;fill-rule:evenodd;stroke:#0000FF;stroke-width:2.0px;stroke-linecap:butt;stroke-linejoin:miter;stroke-opacity:1"/>
<path class="bond-19 atom-18 atom-20" d="M 234.5,87.7 L 250.5,60.7" style="fill:none;fill-rule:evenodd;stroke:#000000;stroke-width:2.0px;stroke-linecap:butt;stroke-linejoin:miter;stroke-opacity:1"/>
<path class="bond-20 atom-20 atom-21" d="M 250.5,60.7 L 281.9,61.0" style="fill:none;fill-rule:evenodd;stroke:#000000;stroke-width:2.0px;stroke-linecap:butt;stroke-linejoin:miter;stroke-opacity:1"/>
<path class="bond-21 atom-20 atom-22" d="M 250.5,60.7 L 235.1,33.3" style="fill:none;fill-rule:evenodd;stroke:#000000;stroke-width:2.0px;stroke-linecap:butt;stroke-linejoin:miter;stroke-opacity:1"/>
<path d="M 76.8,84.7 L 77.6,86.1 L 78.3,86.1" style="fill:none;stroke:#000000;stroke-width:2.0px;stroke-linecap:butt;stroke-linejoin:miter;stroke-opacity:1;"/>
<path d="M 109.2,139.4 L 108.4,140.7 L 108.7,141.3" style="fill:none;stroke:#000000;stroke-width:2.0px;stroke-linecap:butt;stroke-linejoin:miter;stroke-opacity:1;"/>
<path d="M 202.8,87.9 L 203.1,87.4 L 204.7,87.4" style="fill:none;stroke:#000000;stroke-width:2.0px;stroke-linecap:butt;stroke-linejoin:miter;stroke-opacity:1;"/>
<path class="atom-4" d="M 76.2 27.3 L 79.1 32.0 Q 79.4 32.5, 79.9 33.3 Q 80.3 34.1, 80.4 34.2 L 80.4 27.3 L 81.5 27.3 L 81.5 36.2 L 80.3 36.2 L 77.2 31.0 Q 76.8 30.4, 76.4 29.7 Q 76.1 29.0, 75.9 28.8 L 75.9 36.2 L 74.8 36.2 L 74.8 27.3 L 76.2 27.3 " fill="#0000FF"/>
<path class="atom-4" d="M 83.2 27.3 L 84.4 27.3 L 84.4 31.1 L 89.0 31.1 L 89.0 27.3 L 90.2 27.3 L 90.2 36.2 L 89.0 36.2 L 89.0 32.1 L 84.4 32.1 L 84.4 36.2 L 83.2 36.2 L 83.2 27.3 " fill="#0000FF"/>
<path class="atom-4" d="M 91.9 35.9 Q 92.1 35.3, 92.7 35.0 Q 93.2 34.7, 93.9 34.7 Q 94.8 34.7, 95.3 35.2 Q 95.8 35.6, 95.8 36.5 Q 95.8 37.4, 95.1 38.2 Q 94.5 39.0, 93.2 40.0 L 95.9 40.0 L 95.9 40.6 L 91.9 40.6 L 91.9 40.1 Q 93.0 39.3, 93.6 38.7 Q 94.3 38.1, 94.6 37.6 Q 94.9 37.1, 94.9 36.5 Q 94.9 36.0, 94.7 35.7 Q 94.4 35.3, 93.9 35.3 Q 93.4 35.3, 93.1 35.5 Q 92.8 35.7, 92.6 36.1 L 91.9 35.9 " fill="#0000FF"/>
<path class="atom-6" d="M 57.6 113.1 Q 57.6 111.0, 58.6 109.8 Q 59.7 108.6, 61.6 108.6 Q 63.6 108.6, 64.7 109.8 Q 65.7 111.0, 65.7 113.1 Q 65.7 115.3, 64.7 116.5 Q 63.6 117.7, 61.6 117.7 Q 59.7 117.7, 58.6 116.5 Q 57.6 115.3, 57.6 113.1 M 61.6 116.7 Q 63.0 116.7, 63.7 115.8 Q 64.5 114.9, 64.5 113.1 Q 64.5 111.4, 63.7 110.5 Q 63.0 109.6, 61.6 109.6 Q 60.3 109.6, 59.5 110.5 Q 58.8 111.4, 58.8 113.1 Q 58.8 114.9, 59.5 115.8 Q 60.3 116.7, 61.6 116.7 " fill="#FF0000"/>
<path class="atom-7" d="M 104.9 86.4 Q 104.9 84.3, 106.0 83.1 Q 107.0 81.9, 109.0 81.9 Q 111.0 81.9, 112.0 83.1 Q 113.1 84.3, 113.1 86.4 Q 113.1 88.6, 112.0 89.8 Q 110.9 91.0, 109.0 91.0 Q 107.0 91.0, 106.0 89.8 Q 104.9 88.6, 104.9 86.4 M 109.0 90.0 Q 110.3 90.0, 111.1 89.1 Q 111.8 88.2, 111.8 86.4 Q 111.8 84.7, 111.1 83.8 Q 110.3 82.9, 109.0 82.9 Q 107.6 82.9, 106.9 83.8 Q 106.2 84.7, 106.2 86.4 Q 106.2 88.2, 106.9 89.1 Q 107.6 90.0, 109.0 90.0 " fill="#FF0000"/>
<path class="atom-10" d="M 73.0 140.5 Q 73.0 138.3, 74.0 137.1 Q 75.1 135.9, 77.1 135.9 Q 79.0 135.9, 80.1 137.1 Q 81.1 138.3, 81.1 140.5 Q 81.1 142.6, 80.1 143.8 Q 79.0 145.1, 77.1 145.1 Q 75.1 145.1, 74.0 143.8 Q 73.0 142.6, 73.0 140.5 M 77.1 144.1 Q 78.4 144.1, 79.1 143.2 Q 79.9 142.2, 79.9 140.5 Q 79.9 138.7, 79.1 137.8 Q 78.4 136.9, 77.1 136.9 Q 75.7 136.9, 75.0 137.8 Q 74.2 138.7, 74.2 140.5 Q 74.2 142.2, 75.0 143.2 Q 75.7 144.1, 77.1 144.1 " fill="#FF0000"/>
<path class="atom-11" d="M 119.8 168.1 Q 119.8 166.0, 120.8 164.8 Q 121.9 163.6, 123.8 163.6 Q 125.8 163.6, 126.9 164.8 Q 127.9 166.0, 127.9 168.1 Q 127.9 170.3, 126.9 171.5 Q 125.8 172.7, 123.8 172.7 Q 121.9 172.7, 120.8 171.5 Q 119.8 170.3, 119.8 168.1 M 123.8 171.7 Q 125.2 171.7, 125.9 170.8 Q 126.7 169.9, 126.7 168.1 Q 126.7 166.4, 125.9 165.5 Q 125.2 164.6, 123.8 164.6 Q 122.5 164.6, 121.7 165.5 Q 121.0 166.4, 121.0 168.1 Q 121.0 169.9, 121.7 170.8 Q 122.5 171.7, 123.8 171.7 " fill="#FF0000"/>
<path class="atom-11" d="M 129.3 163.7 L 130.5 163.7 L 130.5 167.5 L 135.1 167.5 L 135.1 163.7 L 136.3 163.7 L 136.3 172.6 L 135.1 172.6 L 135.1 168.5 L 130.5 168.5 L 130.5 172.6 L 129.3 172.6 L 129.3 163.7 " fill="#FF0000"/>
<path class="atom-15" d="M 183.1 114.4 Q 183.1 112.3, 184.1 111.1 Q 185.2 109.9, 187.2 109.9 Q 189.1 109.9, 190.2 111.1 Q 191.2 112.3, 191.2 114.4 Q 191.2 116.6, 190.2 117.8 Q 189.1 119.0, 187.2 119.0 Q 185.2 119.0, 184.1 117.8 Q 183.1 116.6, 183.1 114.4 M 187.2 118.0 Q 188.5 118.0, 189.2 117.1 Q 190.0 116.2, 190.0 114.4 Q 190.0 112.7, 189.2 111.8 Q 188.5 110.9, 187.2 110.9 Q 185.8 110.9, 185.1 111.8 Q 184.3 112.6, 184.3 114.4 Q 184.3 116.2, 185.1 117.1 Q 185.8 118.0, 187.2 118.0 " fill="#FF0000"/>
<path class="atom-17" d="M 183.6 60.0 Q 183.6 57.9, 184.7 56.7 Q 185.7 55.5, 187.7 55.5 Q 189.7 55.5, 190.7 56.7 Q 191.8 57.9, 191.8 60.0 Q 191.8 62.2, 190.7 63.4 Q 189.7 64.7, 187.7 64.7 Q 185.8 64.7, 184.7 63.4 Q 183.6 62.2, 183.6 60.0 M 187.7 63.7 Q 189.1 63.7, 189.8 62.7 Q 190.5 61.8, 190.5 60.0 Q 190.5 58.3, 189.8 57.4 Q 189.1 56.5, 187.7 56.5 Q 186.4 56.5, 185.6 57.4 Q 184.9 58.3, 184.9 60.0 Q 184.9 61.8, 185.6 62.7 Q 186.4 63.7, 187.7 63.7 " fill="#FF0000"/>
<path class="atom-19" d="M 248.0 110.6 L 250.9 115.3 Q 251.2 115.7, 251.6 116.6 Q 252.1 117.4, 252.1 117.5 L 252.1 110.6 L 253.3 110.6 L 253.3 119.5 L 252.1 119.5 L 248.9 114.3 Q 248.6 113.7, 248.2 113.0 Q 247.8 112.3, 247.7 112.1 L 247.7 119.5 L 246.5 119.5 L 246.5 110.6 L 248.0 110.6 " fill="#0000FF"/>
<path class="atom-19" d="M 255.0 110.6 L 256.2 110.6 L 256.2 114.3 L 260.7 114.3 L 260.7 110.6 L 261.9 110.6 L 261.9 119.5 L 260.7 119.5 L 260.7 115.4 L 256.2 115.4 L 256.2 119.5 L 255.0 119.5 L 255.0 110.6 " fill="#0000FF"/>
<path class="atom-19" d="M 263.7 119.1 Q 263.9 118.6, 264.4 118.3 Q 264.9 118.0, 265.6 118.0 Q 266.5 118.0, 267.0 118.5 Q 267.5 118.9, 267.5 119.8 Q 267.5 120.7, 266.9 121.5 Q 266.2 122.3, 264.9 123.2 L 267.6 123.2 L 267.6 123.9 L 263.7 123.9 L 263.7 123.3 Q 264.8 122.6, 265.4 122.0 Q 266.1 121.4, 266.4 120.9 Q 266.7 120.4, 266.7 119.8 Q 266.7 119.3, 266.4 118.9 Q 266.1 118.6, 265.6 118.6 Q 265.2 118.6, 264.8 118.8 Q 264.5 119.0, 264.3 119.4 L 263.7 119.1 " fill="#0000FF"/>
</svg>
