<?xml version='1.0' encoding='ASCII' standalone='yes'?>
<svg xmlns="http://www.w3.org/2000/svg" xmlns:rdkit="http://www.rdkit.org/xml" xmlns:xlink="http://www.w3.org/1999/xlink" version="1.1" baseProfile="full" xml:space="preserve" width="271px" height="200px" viewBox="0 0 271 200">
<!-- END OF HEADER -->
<rect style="opacity:1.0;fill:#FFFFFF;stroke:none" width="271.0" height="200.0" x="0.0" y="0.0"> </rect>
<path class="bond-0 atom-0 atom-1" d="M 80.3,35.5 L 98.6,66.2" style="fill:none;fill-rule:evenodd;stroke:#000000;stroke-width:2.0px;stroke-linecap:butt;stroke-linejoin:miter;stroke-opacity:1"/>
<path class="bond-1 atom-1 atom-2" d="M 98.6,66.2 L 113.6,65.9" style="fill:none;fill-rule:evenodd;stroke:#000000;stroke-width:2.0px;stroke-linecap:butt;stroke-linejoin:miter;stroke-opacity:1"/>
<path class="bond-1 atom-1 atom-2" d="M 113.6,65.9 L 128.5,65.7" style="fill:none;fill-rule:evenodd;stroke:#FF0000;stroke-width:2.0px;stroke-linecap:butt;stroke-linejoin:miter;stroke-opacity:1"/>
<path class="bond-2 atom-2 atom-3" d="M 138.2,72.1 L 145.4,84.2" style="fill:none;fill-rule:evenodd;stroke:#FF0000;stroke-width:2.0px;stroke-linecap:butt;stroke-linejoin:miter;stroke-opacity:1"/>
<path class="bond-2 atom-2 atom-3" d="M 145.4,84.2 L 152.7,96.3" style="fill:none;fill-rule:evenodd;stroke:#000000;stroke-width:2.0px;stroke-linecap:butt;stroke-linejoin:miter;stroke-opacity:1"/>
<path class="bond-3 atom-3 atom-4" d="M 152.7,96.3 L 188.4,95.7" style="fill:none;fill-rule:evenodd;stroke:#000000;stroke-width:2.0px;stroke-linecap:butt;stroke-linejoin:miter;stroke-opacity:1"/>
<path class="bond-4 atom-4 atom-5" d="M 188.4,95.7 L 187.8,60.0" style="fill:none;fill-rule:evenodd;stroke:#000000;stroke-width:2.0px;stroke-linecap:butt;stroke-linejoin:miter;stroke-opacity:1"/>
<path class="bond-5 atom-4 atom-6" d="M 188.4,95.7 L 188.9,131.4" style="fill:none;fill-rule:evenodd;stroke:#000000;stroke-width:2.0px;stroke-linecap:butt;stroke-linejoin:miter;stroke-opacity:1"/>
<path class="bond-6 atom-6 atom-7" d="M 188.9,131.4 L 201.6,138.5" style="fill:none;fill-rule:evenodd;stroke:#000000;stroke-width:2.0px;stroke-linecap:butt;stroke-linejoin:miter;stroke-opacity:1"/>
<path class="bond-6 atom-6 atom-7" d="M 201.6,138.5 L 214.3,145.6" style="fill:none;fill-rule:evenodd;stroke:#FF0000;stroke-width:2.0px;stroke-linecap:butt;stroke-linejoin:miter;stroke-opacity:1"/>
<path class="bond-7 atom-4 atom-8" d="M 188.4,95.7 L 224.1,95.2" style="fill:none;fill-rule:evenodd;stroke:#000000;stroke-width:2.0px;stroke-linecap:butt;stroke-linejoin:miter;stroke-opacity:1"/>
<path class="bond-8 atom-8 atom-9" d="M 224.1,95.2 L 231.0,82.8" style="fill:none;fill-rule:evenodd;stroke:#000000;stroke-width:2.0px;stroke-linecap:butt;stroke-linejoin:miter;stroke-opacity:1"/>
<path class="bond-8 atom-8 atom-9" d="M 231.0,82.8 L 237.9,70.4" style="fill:none;fill-rule:evenodd;stroke:#FF0000;stroke-width:2.0px;stroke-linecap:butt;stroke-linejoin:miter;stroke-opacity:1"/>
<path class="bond-9 atom-8 atom-10" d="M 224.1,95.2 L 231.4,107.3" style="fill:none;fill-rule:evenodd;stroke:#000000;stroke-width:2.0px;stroke-linecap:butt;stroke-linejoin:miter;stroke-opacity:1"/>
<path class="bond-9 atom-8 atom-10" d="M 231.4,107.3 L 238.7,119.5" style="fill:none;fill-rule:evenodd;stroke:#FF0000;stroke-width:2.0px;stroke-linecap:butt;stroke-linejoin:miter;stroke-opacity:1"/>
<path class="bond-10 atom-1 atom-11" d="M 98.6,66.2 L 81.3,97.4" style="fill:none;fill-rule:evenodd;stroke:#000000;stroke-width:2.0px;stroke-linecap:butt;stroke-linejoin:miter;stroke-opacity:1"/>
<path class="bond-11 atom-11 atom-12" d="M 81.3,97.4 L 50.1,80.0" style="fill:none;fill-rule:evenodd;stroke:#000000;stroke-width:2.0px;stroke-linecap:butt;stroke-linejoin:miter;stroke-opacity:1"/>
<path class="bond-12 atom-11 atom-13" d="M 81.3,97.4 L 112.5,114.7" style="fill:none;fill-rule:evenodd;stroke:#000000;stroke-width:2.0px;stroke-linecap:butt;stroke-linejoin:miter;stroke-opacity:1"/>
<path class="bond-13 atom-11 atom-14" d="M 81.3,97.4 L 63.9,128.6" style="fill:none;fill-rule:evenodd;stroke:#000000;stroke-width:2.0px;stroke-linecap:butt;stroke-linejoin:miter;stroke-opacity:1"/>
<path class="bond-14 atom-14 atom-15" d="M 60.8,128.6 L 68.5,141.5" style="fill:none;fill-rule:evenodd;stroke:#000000;stroke-width:2.0px;stroke-linecap:butt;stroke-linejoin:miter;stroke-opacity:1"/>
<path class="bond-14 atom-14 atom-15" d="M 68.5,141.5 L 76.2,154.3" style="fill:none;fill-rule:evenodd;stroke:#FF0000;stroke-width:2.0px;stroke-linecap:butt;stroke-linejoin:miter;stroke-opacity:1"/>
<path class="bond-14 atom-14 atom-15" d="M 65.4,125.9 L 73.1,138.7" style="fill:none;fill-rule:evenodd;stroke:#000000;stroke-width:2.0px;stroke-linecap:butt;stroke-linejoin:miter;stroke-opacity:1"/>
<path class="bond-14 atom-14 atom-15" d="M 73.1,138.7 L 80.8,151.5" style="fill:none;fill-rule:evenodd;stroke:#FF0000;stroke-width:2.0px;stroke-linecap:butt;stroke-linejoin:miter;stroke-opacity:1"/>
<path class="bond-15 atom-14 atom-16" d="M 63.9,128.6 L 48.9,128.8" style="fill:none;fill-rule:evenodd;stroke:#000000;stroke-width:2.0px;stroke-linecap:butt;stroke-linejoin:miter;stroke-opacity:1"/>
<path class="bond-15 atom-14 atom-16" d="M 48.9,128.8 L 34.0,129.0" style="fill:none;fill-rule:evenodd;stroke:#FF0000;stroke-width:2.0px;stroke-linecap:butt;stroke-linejoin:miter;stroke-opacity:1"/>
<path d="M 152.3,95.7 L 152.7,96.3 L 154.5,96.2" style="fill:none;stroke:#000000;stroke-width:2.0px;stroke-linecap:butt;stroke-linejoin:miter;stroke-opacity:1;"/>
<path d="M 188.9,129.6 L 188.9,131.4 L 189.6,131.8" style="fill:none;stroke:#000000;stroke-width:2.0px;stroke-linecap:butt;stroke-linejoin:miter;stroke-opacity:1;"/>
<path d="M 64.8,127.0 L 63.9,128.6 L 63.1,128.6" style="fill:none;stroke:#000000;stroke-width:2.0px;stroke-linecap:butt;stroke-linejoin:miter;stroke-opacity:1;"/>
<path class="atom-2" d="M 129.7 65.6 Q 129.7 63.2, 130.9 61.9 Q 132.1 60.5, 134.3 60.5 Q 136.6 60.5, 137.8 61.9 Q 139.0 63.2, 139.0 65.6 Q 139.0 68.1, 137.8 69.5 Q 136.6 70.9, 134.3 70.9 Q 132.1 70.9, 130.9 69.5 Q 129.7 68.1, 129.7 65.6 M 134.3 69.7 Q 135.9 69.7, 136.7 68.7 Q 137.6 67.7, 137.6 65.6 Q 137.6 63.7, 136.7 62.7 Q 135.9 61.6, 134.3 61.6 Q 132.8 61.6, 132.0 62.6 Q 131.1 63.6, 131.1 65.6 Q 131.1 67.7, 132.0 68.7 Q 132.8 69.7, 134.3 69.7 " fill="#FF0000"/>
<path class="atom-7" d="M 215.5 148.8 Q 215.5 146.4, 216.7 145.0 Q 217.9 143.7, 220.1 143.7 Q 222.4 143.7, 223.6 145.0 Q 224.8 146.4, 224.8 148.8 Q 224.8 151.3, 223.6 152.7 Q 222.3 154.1, 220.1 154.1 Q 217.9 154.1, 216.7 152.7 Q 215.5 151.3, 215.5 148.8 M 220.1 152.9 Q 221.7 152.9, 222.5 151.9 Q 223.3 150.9, 223.3 148.8 Q 223.3 146.8, 222.5 145.8 Q 221.7 144.8, 220.1 144.8 Q 218.6 144.8, 217.7 145.8 Q 216.9 146.8, 216.9 148.8 Q 216.9 150.9, 217.7 151.9 Q 218.6 152.9, 220.1 152.9 " fill="#FF0000"/>
<path class="atom-7" d="M 226.3 143.8 L 227.7 143.8 L 227.7 148.1 L 232.9 148.1 L 232.9 143.8 L 234.3 143.8 L 234.3 153.9 L 232.9 153.9 L 232.9 149.2 L 227.7 149.2 L 227.7 153.9 L 226.3 153.9 L 226.3 143.8 " fill="#FF0000"/>
<path class="atom-9" d="M 236.8 64.0 Q 236.8 61.6, 238.0 60.2 Q 239.2 58.9, 241.5 58.9 Q 243.7 58.9, 244.9 60.2 Q 246.1 61.6, 246.1 64.0 Q 246.1 66.5, 244.9 67.9 Q 243.7 69.2, 241.5 69.2 Q 239.2 69.2, 238.0 67.9 Q 236.8 66.5, 236.8 64.0 M 241.5 68.1 Q 243.0 68.1, 243.8 67.1 Q 244.7 66.0, 244.7 64.0 Q 244.7 62.0, 243.8 61.0 Q 243.0 60.0, 241.5 60.0 Q 239.9 60.0, 239.1 61.0 Q 238.3 62.0, 238.3 64.0 Q 238.3 66.0, 239.1 67.1 Q 239.9 68.1, 241.5 68.1 " fill="#FF0000"/>
<path class="atom-9" d="M 247.7 59.0 L 249.1 59.0 L 249.1 63.3 L 254.2 63.3 L 254.2 59.0 L 255.6 59.0 L 255.6 69.1 L 254.2 69.1 L 254.2 64.4 L 249.1 64.4 L 249.1 69.1 L 247.7 69.1 L 247.7 59.0 " fill="#FF0000"/>
<path class="atom-10" d="M 237.8 125.8 Q 237.8 123.4, 239.0 122.1 Q 240.2 120.7, 242.4 120.7 Q 244.7 120.7, 245.9 122.1 Q 247.1 123.4, 247.1 125.8 Q 247.1 128.3, 245.8 129.7 Q 244.6 131.1, 242.4 131.1 Q 240.2 131.1, 239.0 129.7 Q 237.8 128.3, 237.8 125.8 M 242.4 129.9 Q 244.0 129.9, 244.8 128.9 Q 245.6 127.9, 245.6 125.8 Q 245.6 123.9, 244.8 122.9 Q 244.0 121.8, 242.4 121.8 Q 240.9 121.8, 240.0 122.8 Q 239.2 123.8, 239.2 125.8 Q 239.2 127.9, 240.0 128.9 Q 240.9 129.9, 242.4 129.9 " fill="#FF0000"/>
<path class="atom-10" d="M 248.6 120.8 L 250.0 120.8 L 250.0 125.1 L 255.2 125.1 L 255.2 120.8 L 256.6 120.8 L 256.6 130.9 L 255.2 130.9 L 255.2 126.3 L 250.0 126.3 L 250.0 130.9 L 248.6 130.9 L 248.6 120.8 " fill="#FF0000"/>
<path class="atom-15" d="M 77.6 159.2 Q 77.6 156.8, 78.8 155.5 Q 80.0 154.1, 82.2 154.1 Q 84.5 154.1, 85.7 155.5 Q 86.9 156.8, 86.9 159.2 Q 86.9 161.7, 85.6 163.1 Q 84.4 164.5, 82.2 164.5 Q 80.0 164.5, 78.8 163.1 Q 77.6 161.7, 77.6 159.2 M 82.2 163.3 Q 83.8 163.3, 84.6 162.3 Q 85.4 161.3, 85.4 159.2 Q 85.4 157.3, 84.6 156.3 Q 83.8 155.2, 82.2 155.2 Q 80.7 155.2, 79.8 156.2 Q 79.0 157.2, 79.0 159.2 Q 79.0 161.3, 79.8 162.3 Q 80.7 163.3, 82.2 163.3 " fill="#FF0000"/>
<path class="atom-16" d="M 13.5 124.1 L 14.9 124.1 L 14.9 128.4 L 20.1 128.4 L 20.1 124.1 L 21.5 124.1 L 21.5 134.2 L 20.1 134.2 L 20.1 129.6 L 14.9 129.6 L 14.9 134.2 L 13.5 134.2 L 13.5 124.1 " fill="#FF0000"/>
<path class="atom-16" d="M 23.5 129.1 Q 23.5 126.7, 24.7 125.4 Q 25.9 124.0, 28.2 124.0 Q 30.4 124.0, 31.6 125.4 Q 32.8 126.7, 32.8 129.1 Q 32.8 131.6, 31.6 133.0 Q 30.4 134.4, 28.2 134.4 Q 26.0 134.4, 24.7 133.0 Q 23.5 131.6, 23.5 129.1 M 28.2 133.2 Q 29.7 133.2, 30.6 132.2 Q 31.4 131.2, 31.4 129.1 Q 31.4 127.2, 30.6 126.2 Q 29.7 125.1, 28.2 125.1 Q 26.6 125.1, 25.8 126.1 Q 25.0 127.1, 25.0 129.1 Q 25.0 131.2, 25.8 132.2 Q 26.6 133.2, 28.2 133.2 " fill="#FF0000"/>
</svg>
