<?xml version='1.0' encoding='ASCII' standalone='yes'?>
<svg xmlns="http://www.w3.org/2000/svg" xmlns:rdkit="http://www.rdkit.org/xml" xmlns:xlink="http://www.w3.org/1999/xlink" version="1.1" baseProfile="full" xml:space="preserve" width="437px" height="200px" viewBox="0 0 437 200">
<!-- END OF HEADER -->
<rect style="opacity:1.0;fill:#FFFFFF;stroke:none" width="437.0" height="200.0" x="0.0" y="0.0"> </rect>
<path class="bond-0 atom-0 atom-1" d="M 187.1,188.5 L 187.3,175.4" style="fill:none;fill-rule:evenodd;stroke:#000000;stroke-width:2.0px;stroke-linecap:butt;stroke-linejoin:miter;stroke-opacity:1"/>
<path class="bond-0 atom-0 atom-1" d="M 189.0,188.5 L 189.1,175.4" style="fill:none;fill-rule:evenodd;stroke:#000000;stroke-width:2.0px;stroke-linecap:butt;stroke-linejoin:miter;stroke-opacity:1"/>
<path class="bond-1 atom-1 atom-2" d="M 188.2,175.9 L 177.4,169.6" style="fill:none;fill-rule:evenodd;stroke:#000000;stroke-width:2.0px;stroke-linecap:butt;stroke-linejoin:miter;stroke-opacity:1"/>
<path class="bond-2 atom-2 atom-3" d="M 177.4,169.6 L 177.6,157.0" style="fill:none;fill-rule:evenodd;stroke:#000000;stroke-width:2.0px;stroke-linecap:butt;stroke-linejoin:miter;stroke-opacity:1"/>
<path class="bond-3 atom-3 atom-4" d="M 177.6,157.0 L 166.8,150.6" style="fill:none;fill-rule:evenodd;stroke:#000000;stroke-width:2.0px;stroke-linecap:butt;stroke-linejoin:miter;stroke-opacity:1"/>
<path class="bond-4 atom-4 atom-5" d="M 166.8,150.6 L 165.4,155.4" style="fill:none;fill-rule:evenodd;stroke:#000000;stroke-width:2.0px;stroke-linecap:butt;stroke-linejoin:miter;stroke-opacity:1"/>
<path class="bond-4 atom-4 atom-5" d="M 165.4,155.4 L 164.0,160.1" style="fill:none;fill-rule:evenodd;stroke:#FF0000;stroke-width:2.0px;stroke-linecap:butt;stroke-linejoin:miter;stroke-opacity:1"/>
<path class="bond-5 atom-4 atom-6" d="M 166.8,150.6 L 169.2,148.2" style="fill:none;fill-rule:evenodd;stroke:#000000;stroke-width:2.0px;stroke-linecap:butt;stroke-linejoin:miter;stroke-opacity:1"/>
<path class="bond-5 atom-4 atom-6" d="M 169.2,148.2 L 171.5,145.8" style="fill:none;fill-rule:evenodd;stroke:#FF0000;stroke-width:2.0px;stroke-linecap:butt;stroke-linejoin:miter;stroke-opacity:1"/>
<path class="bond-6 atom-4 atom-7" d="M 166.8,150.6 L 156.0,144.3" style="fill:none;fill-rule:evenodd;stroke:#000000;stroke-width:2.0px;stroke-linecap:butt;stroke-linejoin:miter;stroke-opacity:1"/>
<path class="bond-7 atom-7 atom-8" d="M 156.0,144.3 L 163.5,134.2" style="fill:none;fill-rule:evenodd;stroke:#000000;stroke-width:2.0px;stroke-linecap:butt;stroke-linejoin:miter;stroke-opacity:1"/>
<path class="bond-8 atom-8 atom-9" d="M 163.5,134.2 L 168.5,134.8" style="fill:none;fill-rule:evenodd;stroke:#000000;stroke-width:2.0px;stroke-linecap:butt;stroke-linejoin:miter;stroke-opacity:1"/>
<path class="bond-8 atom-8 atom-9" d="M 168.5,134.8 L 173.6,135.4" style="fill:none;fill-rule:evenodd;stroke:#FF0000;stroke-width:2.0px;stroke-linecap:butt;stroke-linejoin:miter;stroke-opacity:1"/>
<path class="bond-9 atom-9 atom-10" d="M 177.8,133.1 L 179.7,130.5" style="fill:none;fill-rule:evenodd;stroke:#FF0000;stroke-width:2.0px;stroke-linecap:butt;stroke-linejoin:miter;stroke-opacity:1"/>
<path class="bond-9 atom-9 atom-10" d="M 179.7,130.5 L 181.6,128.0" style="fill:none;fill-rule:evenodd;stroke:#FF7F00;stroke-width:2.0px;stroke-linecap:butt;stroke-linejoin:miter;stroke-opacity:1"/>
<path class="bond-10 atom-10 atom-11" d="M 182.2,123.5 L 179.2,121.3" style="fill:none;fill-rule:evenodd;stroke:#FF7F00;stroke-width:2.0px;stroke-linecap:butt;stroke-linejoin:miter;stroke-opacity:1"/>
<path class="bond-10 atom-10 atom-11" d="M 179.2,121.3 L 176.3,119.1" style="fill:none;fill-rule:evenodd;stroke:#FF0000;stroke-width:2.0px;stroke-linecap:butt;stroke-linejoin:miter;stroke-opacity:1"/>
<path class="bond-10 atom-10 atom-11" d="M 181.1,125.0 L 178.1,122.8" style="fill:none;fill-rule:evenodd;stroke:#FF7F00;stroke-width:2.0px;stroke-linecap:butt;stroke-linejoin:miter;stroke-opacity:1"/>
<path class="bond-10 atom-10 atom-11" d="M 178.1,122.8 L 175.1,120.6" style="fill:none;fill-rule:evenodd;stroke:#FF0000;stroke-width:2.0px;stroke-linecap:butt;stroke-linejoin:miter;stroke-opacity:1"/>
<path class="bond-11 atom-10 atom-12" d="M 185.2,126.9 L 188.1,129.1" style="fill:none;fill-rule:evenodd;stroke:#FF7F00;stroke-width:2.0px;stroke-linecap:butt;stroke-linejoin:miter;stroke-opacity:1"/>
<path class="bond-11 atom-10 atom-12" d="M 188.1,129.1 L 191.1,131.3" style="fill:none;fill-rule:evenodd;stroke:#FF0000;stroke-width:2.0px;stroke-linecap:butt;stroke-linejoin:miter;stroke-opacity:1"/>
<path class="bond-12 atom-10 atom-13" d="M 185.2,123.2 L 187.0,120.7" style="fill:none;fill-rule:evenodd;stroke:#FF7F00;stroke-width:2.0px;stroke-linecap:butt;stroke-linejoin:miter;stroke-opacity:1"/>
<path class="bond-12 atom-10 atom-13" d="M 187.0,120.7 L 188.9,118.1" style="fill:none;fill-rule:evenodd;stroke:#FF0000;stroke-width:2.0px;stroke-linecap:butt;stroke-linejoin:miter;stroke-opacity:1"/>
<path class="bond-13 atom-13 atom-14" d="M 193.2,115.8 L 197.4,116.3" style="fill:none;fill-rule:evenodd;stroke:#FF0000;stroke-width:2.0px;stroke-linecap:butt;stroke-linejoin:miter;stroke-opacity:1"/>
<path class="bond-13 atom-13 atom-14" d="M 197.4,116.3 L 201.6,116.8" style="fill:none;fill-rule:evenodd;stroke:#FF7F00;stroke-width:2.0px;stroke-linecap:butt;stroke-linejoin:miter;stroke-opacity:1"/>
<path class="bond-14 atom-14 atom-15" d="M 204.6,114.5 L 205.0,110.9" style="fill:none;fill-rule:evenodd;stroke:#FF7F00;stroke-width:2.0px;stroke-linecap:butt;stroke-linejoin:miter;stroke-opacity:1"/>
<path class="bond-14 atom-14 atom-15" d="M 205.0,110.9 L 205.4,107.3" style="fill:none;fill-rule:evenodd;stroke:#FF0000;stroke-width:2.0px;stroke-linecap:butt;stroke-linejoin:miter;stroke-opacity:1"/>
<path class="bond-14 atom-14 atom-15" d="M 202.7,114.3 L 203.1,110.7" style="fill:none;fill-rule:evenodd;stroke:#FF7F00;stroke-width:2.0px;stroke-linecap:butt;stroke-linejoin:miter;stroke-opacity:1"/>
<path class="bond-14 atom-14 atom-15" d="M 203.1,110.7 L 203.5,107.0" style="fill:none;fill-rule:evenodd;stroke:#FF0000;stroke-width:2.0px;stroke-linecap:butt;stroke-linejoin:miter;stroke-opacity:1"/>
<path class="bond-15 atom-14 atom-16" d="M 203.0,119.5 L 202.6,123.2" style="fill:none;fill-rule:evenodd;stroke:#FF7F00;stroke-width:2.0px;stroke-linecap:butt;stroke-linejoin:miter;stroke-opacity:1"/>
<path class="bond-15 atom-14 atom-16" d="M 202.6,123.2 L 202.2,126.9" style="fill:none;fill-rule:evenodd;stroke:#FF0000;stroke-width:2.0px;stroke-linecap:butt;stroke-linejoin:miter;stroke-opacity:1"/>
<path class="bond-16 atom-14 atom-17" d="M 205.1,117.2 L 209.3,117.7" style="fill:none;fill-rule:evenodd;stroke:#FF7F00;stroke-width:2.0px;stroke-linecap:butt;stroke-linejoin:miter;stroke-opacity:1"/>
<path class="bond-16 atom-14 atom-17" d="M 209.3,117.7 L 213.4,118.1" style="fill:none;fill-rule:evenodd;stroke:#FF0000;stroke-width:2.0px;stroke-linecap:butt;stroke-linejoin:miter;stroke-opacity:1"/>
<path class="bond-17 atom-17 atom-18" d="M 216.9,121.0 L 218.8,125.5" style="fill:none;fill-rule:evenodd;stroke:#FF0000;stroke-width:2.0px;stroke-linecap:butt;stroke-linejoin:miter;stroke-opacity:1"/>
<path class="bond-17 atom-17 atom-18" d="M 218.8,125.5 L 220.8,129.9" style="fill:none;fill-rule:evenodd;stroke:#000000;stroke-width:2.0px;stroke-linecap:butt;stroke-linejoin:miter;stroke-opacity:1"/>
<path class="bond-18 atom-18 atom-19" d="M 220.8,129.9 L 233.2,131.4" style="fill:none;fill-rule:evenodd;stroke:#000000;stroke-width:2.0px;stroke-linecap:butt;stroke-linejoin:miter;stroke-opacity:1"/>
<path class="bond-19 atom-19 atom-20" d="M 233.2,131.4 L 234.7,118.9" style="fill:none;fill-rule:evenodd;stroke:#000000;stroke-width:2.0px;stroke-linecap:butt;stroke-linejoin:miter;stroke-opacity:1"/>
<path class="bond-20 atom-19 atom-21" d="M 233.2,131.4 L 231.8,143.8" style="fill:none;fill-rule:evenodd;stroke:#000000;stroke-width:2.0px;stroke-linecap:butt;stroke-linejoin:miter;stroke-opacity:1"/>
<path class="bond-21 atom-19 atom-22" d="M 233.2,131.4 L 245.7,132.8" style="fill:none;fill-rule:evenodd;stroke:#000000;stroke-width:2.0px;stroke-linecap:butt;stroke-linejoin:miter;stroke-opacity:1"/>
<path class="bond-22 atom-22 atom-23" d="M 245.7,132.8 L 247.6,137.3" style="fill:none;fill-rule:evenodd;stroke:#000000;stroke-width:2.0px;stroke-linecap:butt;stroke-linejoin:miter;stroke-opacity:1"/>
<path class="bond-22 atom-22 atom-23" d="M 247.6,137.3 L 249.5,141.8" style="fill:none;fill-rule:evenodd;stroke:#FF0000;stroke-width:2.0px;stroke-linecap:butt;stroke-linejoin:miter;stroke-opacity:1"/>
<path class="bond-23 atom-22 atom-24" d="M 245.7,132.8 L 253.1,122.8" style="fill:none;fill-rule:evenodd;stroke:#000000;stroke-width:2.0px;stroke-linecap:butt;stroke-linejoin:miter;stroke-opacity:1"/>
<path class="bond-24 atom-24 atom-25" d="M 254.2,122.9 L 252.2,118.2" style="fill:none;fill-rule:evenodd;stroke:#000000;stroke-width:2.0px;stroke-linecap:butt;stroke-linejoin:miter;stroke-opacity:1"/>
<path class="bond-24 atom-24 atom-25" d="M 252.2,118.2 L 250.2,113.5" style="fill:none;fill-rule:evenodd;stroke:#FF0000;stroke-width:2.0px;stroke-linecap:butt;stroke-linejoin:miter;stroke-opacity:1"/>
<path class="bond-24 atom-24 atom-25" d="M 252.5,123.6 L 250.5,118.9" style="fill:none;fill-rule:evenodd;stroke:#000000;stroke-width:2.0px;stroke-linecap:butt;stroke-linejoin:miter;stroke-opacity:1"/>
<path class="bond-24 atom-24 atom-25" d="M 250.5,118.9 L 248.4,114.3" style="fill:none;fill-rule:evenodd;stroke:#FF0000;stroke-width:2.0px;stroke-linecap:butt;stroke-linejoin:miter;stroke-opacity:1"/>
<path class="bond-25 atom-24 atom-26" d="M 253.1,122.8 L 258.4,123.4" style="fill:none;fill-rule:evenodd;stroke:#000000;stroke-width:2.0px;stroke-linecap:butt;stroke-linejoin:miter;stroke-opacity:1"/>
<path class="bond-25 atom-24 atom-26" d="M 258.4,123.4 L 263.6,124.0" style="fill:none;fill-rule:evenodd;stroke:#0000FF;stroke-width:2.0px;stroke-linecap:butt;stroke-linejoin:miter;stroke-opacity:1"/>
<path class="bond-26 atom-26 atom-27" d="M 267.5,121.7 L 270.3,117.9" style="fill:none;fill-rule:evenodd;stroke:#0000FF;stroke-width:2.0px;stroke-linecap:butt;stroke-linejoin:miter;stroke-opacity:1"/>
<path class="bond-26 atom-26 atom-27" d="M 270.3,117.9 L 273.1,114.2" style="fill:none;fill-rule:evenodd;stroke:#000000;stroke-width:2.0px;stroke-linecap:butt;stroke-linejoin:miter;stroke-opacity:1"/>
<path class="bond-27 atom-27 atom-28" d="M 273.1,114.2 L 285.5,115.6" style="fill:none;fill-rule:evenodd;stroke:#000000;stroke-width:2.0px;stroke-linecap:butt;stroke-linejoin:miter;stroke-opacity:1"/>
<path class="bond-28 atom-28 atom-29" d="M 285.5,115.6 L 293.0,105.5" style="fill:none;fill-rule:evenodd;stroke:#000000;stroke-width:2.0px;stroke-linecap:butt;stroke-linejoin:miter;stroke-opacity:1"/>
<path class="bond-29 atom-29 atom-30" d="M 294.0,105.7 L 293.6,103.6" style="fill:none;fill-rule:evenodd;stroke:#000000;stroke-width:2.0px;stroke-linecap:butt;stroke-linejoin:miter;stroke-opacity:1"/>
<path class="bond-29 atom-29 atom-30" d="M 293.6,103.6 L 293.3,101.4" style="fill:none;fill-rule:evenodd;stroke:#FF0000;stroke-width:2.0px;stroke-linecap:butt;stroke-linejoin:miter;stroke-opacity:1"/>
<path class="bond-29 atom-29 atom-30" d="M 292.2,106.6 L 291.8,103.9" style="fill:none;fill-rule:evenodd;stroke:#000000;stroke-width:2.0px;stroke-linecap:butt;stroke-linejoin:miter;stroke-opacity:1"/>
<path class="bond-29 atom-29 atom-30" d="M 291.8,103.9 L 291.4,101.8" style="fill:none;fill-rule:evenodd;stroke:#FF0000;stroke-width:2.0px;stroke-linecap:butt;stroke-linejoin:miter;stroke-opacity:1"/>
<path class="bond-30 atom-29 atom-31" d="M 293.0,105.5 L 298.2,106.2" style="fill:none;fill-rule:evenodd;stroke:#000000;stroke-width:2.0px;stroke-linecap:butt;stroke-linejoin:miter;stroke-opacity:1"/>
<path class="bond-30 atom-29 atom-31" d="M 298.2,106.2 L 303.4,106.8" style="fill:none;fill-rule:evenodd;stroke:#0000FF;stroke-width:2.0px;stroke-linecap:butt;stroke-linejoin:miter;stroke-opacity:1"/>
<path class="bond-31 atom-31 atom-32" d="M 307.3,104.5 L 310.1,100.7" style="fill:none;fill-rule:evenodd;stroke:#0000FF;stroke-width:2.0px;stroke-linecap:butt;stroke-linejoin:miter;stroke-opacity:1"/>
<path class="bond-31 atom-31 atom-32" d="M 310.1,100.7 L 312.9,96.9" style="fill:none;fill-rule:evenodd;stroke:#000000;stroke-width:2.0px;stroke-linecap:butt;stroke-linejoin:miter;stroke-opacity:1"/>
<path class="bond-32 atom-32 atom-33" d="M 312.9,96.9 L 325.4,98.4" style="fill:none;fill-rule:evenodd;stroke:#000000;stroke-width:2.0px;stroke-linecap:butt;stroke-linejoin:miter;stroke-opacity:1"/>
<path class="bond-33 atom-33 atom-34" d="M 325.4,98.4 L 328.2,94.5" style="fill:none;fill-rule:evenodd;stroke:#000000;stroke-width:2.0px;stroke-linecap:butt;stroke-linejoin:miter;stroke-opacity:1"/>
<path class="bond-33 atom-33 atom-34" d="M 328.2,94.5 L 331.1,90.7" style="fill:none;fill-rule:evenodd;stroke:#CCCC00;stroke-width:2.0px;stroke-linecap:butt;stroke-linejoin:miter;stroke-opacity:1"/>
<path class="bond-34 atom-34 atom-35" d="M 334.6,88.5 L 340.0,89.2" style="fill:none;fill-rule:evenodd;stroke:#CCCC00;stroke-width:2.0px;stroke-linecap:butt;stroke-linejoin:miter;stroke-opacity:1"/>
<path class="bond-34 atom-34 atom-35" d="M 340.0,89.2 L 345.3,89.8" style="fill:none;fill-rule:evenodd;stroke:#000000;stroke-width:2.0px;stroke-linecap:butt;stroke-linejoin:miter;stroke-opacity:1"/>
<path class="bond-35 atom-35 atom-36" d="M 345.3,89.8 L 352.8,79.7" style="fill:none;fill-rule:evenodd;stroke:#000000;stroke-width:2.0px;stroke-linecap:butt;stroke-linejoin:miter;stroke-opacity:1"/>
<path class="bond-36 atom-35 atom-37" d="M 344.2,89.6 L 346.3,94.4" style="fill:none;fill-rule:evenodd;stroke:#000000;stroke-width:2.0px;stroke-linecap:butt;stroke-linejoin:miter;stroke-opacity:1"/>
<path class="bond-36 atom-35 atom-37" d="M 346.3,94.4 L 348.3,99.1" style="fill:none;fill-rule:evenodd;stroke:#FF0000;stroke-width:2.0px;stroke-linecap:butt;stroke-linejoin:miter;stroke-opacity:1"/>
<path class="bond-36 atom-35 atom-37" d="M 346.0,88.9 L 348.0,93.6" style="fill:none;fill-rule:evenodd;stroke:#000000;stroke-width:2.0px;stroke-linecap:butt;stroke-linejoin:miter;stroke-opacity:1"/>
<path class="bond-36 atom-35 atom-37" d="M 348.0,93.6 L 350.0,98.4" style="fill:none;fill-rule:evenodd;stroke:#FF0000;stroke-width:2.0px;stroke-linecap:butt;stroke-linejoin:miter;stroke-opacity:1"/>
<path class="bond-37 atom-7 atom-38" d="M 156.0,144.3 L 152.6,141.1" style="fill:none;fill-rule:evenodd;stroke:#000000;stroke-width:2.0px;stroke-linecap:butt;stroke-linejoin:miter;stroke-opacity:1"/>
<path class="bond-37 atom-7 atom-38" d="M 152.6,141.1 L 149.1,137.9" style="fill:none;fill-rule:evenodd;stroke:#FF0000;stroke-width:2.0px;stroke-linecap:butt;stroke-linejoin:miter;stroke-opacity:1"/>
<path class="bond-38 atom-38 atom-39" d="M 144.4,137.1 L 140.1,139.5" style="fill:none;fill-rule:evenodd;stroke:#FF0000;stroke-width:2.0px;stroke-linecap:butt;stroke-linejoin:miter;stroke-opacity:1"/>
<path class="bond-38 atom-38 atom-39" d="M 140.1,139.5 L 135.8,141.9" style="fill:none;fill-rule:evenodd;stroke:#000000;stroke-width:2.0px;stroke-linecap:butt;stroke-linejoin:miter;stroke-opacity:1"/>
<path class="bond-39 atom-39 atom-40" d="M 135.8,141.9 L 131.2,139.8" style="fill:none;fill-rule:evenodd;stroke:#000000;stroke-width:2.0px;stroke-linecap:butt;stroke-linejoin:miter;stroke-opacity:1"/>
<path class="bond-39 atom-39 atom-40" d="M 131.2,139.8 L 126.5,137.6" style="fill:none;fill-rule:evenodd;stroke:#0000FF;stroke-width:2.0px;stroke-linecap:butt;stroke-linejoin:miter;stroke-opacity:1"/>
<path class="bond-40 atom-40 atom-41" d="M 122.4,137.8 L 118.0,140.3" style="fill:none;fill-rule:evenodd;stroke:#0000FF;stroke-width:2.0px;stroke-linecap:butt;stroke-linejoin:miter;stroke-opacity:1"/>
<path class="bond-40 atom-40 atom-41" d="M 118.0,140.3 L 113.5,142.8" style="fill:none;fill-rule:evenodd;stroke:#000000;stroke-width:2.0px;stroke-linecap:butt;stroke-linejoin:miter;stroke-opacity:1"/>
<path class="bond-41 atom-41 atom-42" d="M 113.5,142.8 L 109.9,139.5" style="fill:none;fill-rule:evenodd;stroke:#000000;stroke-width:2.0px;stroke-linecap:butt;stroke-linejoin:miter;stroke-opacity:1"/>
<path class="bond-41 atom-41 atom-42" d="M 109.9,139.5 L 106.3,136.2" style="fill:none;fill-rule:evenodd;stroke:#0000FF;stroke-width:2.0px;stroke-linecap:butt;stroke-linejoin:miter;stroke-opacity:1"/>
<path class="bond-41 atom-41 atom-42" d="M 113.8,140.5 L 110.7,137.7" style="fill:none;fill-rule:evenodd;stroke:#000000;stroke-width:2.0px;stroke-linecap:butt;stroke-linejoin:miter;stroke-opacity:1"/>
<path class="bond-41 atom-41 atom-42" d="M 110.7,137.7 L 107.6,134.8" style="fill:none;fill-rule:evenodd;stroke:#0000FF;stroke-width:2.0px;stroke-linecap:butt;stroke-linejoin:miter;stroke-opacity:1"/>
<path class="bond-42 atom-42 atom-43" d="M 105.5,131.8 L 107.5,127.4" style="fill:none;fill-rule:evenodd;stroke:#0000FF;stroke-width:2.0px;stroke-linecap:butt;stroke-linejoin:miter;stroke-opacity:1"/>
<path class="bond-42 atom-42 atom-43" d="M 107.5,127.4 L 109.5,122.9" style="fill:none;fill-rule:evenodd;stroke:#000000;stroke-width:2.0px;stroke-linecap:butt;stroke-linejoin:miter;stroke-opacity:1"/>
<path class="bond-43 atom-43 atom-44" d="M 109.5,122.9 L 104.6,111.4" style="fill:none;fill-rule:evenodd;stroke:#000000;stroke-width:2.0px;stroke-linecap:butt;stroke-linejoin:miter;stroke-opacity:1"/>
<path class="bond-43 atom-43 atom-44" d="M 110.8,121.2 L 106.7,111.7" style="fill:none;fill-rule:evenodd;stroke:#000000;stroke-width:2.0px;stroke-linecap:butt;stroke-linejoin:miter;stroke-opacity:1"/>
<path class="bond-44 atom-44 atom-45" d="M 104.6,111.4 L 99.3,110.8" style="fill:none;fill-rule:evenodd;stroke:#000000;stroke-width:2.0px;stroke-linecap:butt;stroke-linejoin:miter;stroke-opacity:1"/>
<path class="bond-44 atom-44 atom-45" d="M 99.3,110.8 L 94.1,110.2" style="fill:none;fill-rule:evenodd;stroke:#0000FF;stroke-width:2.0px;stroke-linecap:butt;stroke-linejoin:miter;stroke-opacity:1"/>
<path class="bond-45 atom-44 atom-46" d="M 104.6,111.4 L 107.4,107.7" style="fill:none;fill-rule:evenodd;stroke:#000000;stroke-width:2.0px;stroke-linecap:butt;stroke-linejoin:miter;stroke-opacity:1"/>
<path class="bond-45 atom-44 atom-46" d="M 107.4,107.7 L 110.2,103.9" style="fill:none;fill-rule:evenodd;stroke:#0000FF;stroke-width:2.0px;stroke-linecap:butt;stroke-linejoin:miter;stroke-opacity:1"/>
<path class="bond-46 atom-46 atom-47" d="M 114.1,101.6 L 119.3,102.2" style="fill:none;fill-rule:evenodd;stroke:#0000FF;stroke-width:2.0px;stroke-linecap:butt;stroke-linejoin:miter;stroke-opacity:1"/>
<path class="bond-46 atom-46 atom-47" d="M 119.3,102.2 L 124.5,102.8" style="fill:none;fill-rule:evenodd;stroke:#000000;stroke-width:2.0px;stroke-linecap:butt;stroke-linejoin:miter;stroke-opacity:1"/>
<path class="bond-46 atom-46 atom-47" d="M 113.8,103.5 L 118.5,104.0" style="fill:none;fill-rule:evenodd;stroke:#0000FF;stroke-width:2.0px;stroke-linecap:butt;stroke-linejoin:miter;stroke-opacity:1"/>
<path class="bond-46 atom-46 atom-47" d="M 118.5,104.0 L 123.2,104.6" style="fill:none;fill-rule:evenodd;stroke:#000000;stroke-width:2.0px;stroke-linecap:butt;stroke-linejoin:miter;stroke-opacity:1"/>
<path class="bond-47 atom-47 atom-48" d="M 124.5,102.8 L 132.0,92.8" style="fill:none;fill-rule:evenodd;stroke:#000000;stroke-width:2.0px;stroke-linecap:butt;stroke-linejoin:miter;stroke-opacity:1"/>
<path class="bond-48 atom-48 atom-49" d="M 132.0,92.8 L 135.8,95.6" style="fill:none;fill-rule:evenodd;stroke:#000000;stroke-width:2.0px;stroke-linecap:butt;stroke-linejoin:miter;stroke-opacity:1"/>
<path class="bond-48 atom-48 atom-49" d="M 135.8,95.6 L 139.7,98.5" style="fill:none;fill-rule:evenodd;stroke:#FF0000;stroke-width:2.0px;stroke-linecap:butt;stroke-linejoin:miter;stroke-opacity:1"/>
<path class="bond-49 atom-48 atom-50" d="M 132.0,92.8 L 127.4,90.8" style="fill:none;fill-rule:evenodd;stroke:#000000;stroke-width:2.0px;stroke-linecap:butt;stroke-linejoin:miter;stroke-opacity:1"/>
<path class="bond-49 atom-48 atom-50" d="M 127.4,90.8 L 122.8,88.9" style="fill:none;fill-rule:evenodd;stroke:#FF0000;stroke-width:2.0px;stroke-linecap:butt;stroke-linejoin:miter;stroke-opacity:1"/>
<path class="bond-50 atom-48 atom-51" d="M 132.0,92.8 L 139.4,82.7" style="fill:none;fill-rule:evenodd;stroke:#000000;stroke-width:2.0px;stroke-linecap:butt;stroke-linejoin:miter;stroke-opacity:1"/>
<path class="bond-51 atom-51 atom-52" d="M 139.4,82.7 L 148.7,91.2" style="fill:none;fill-rule:evenodd;stroke:#000000;stroke-width:2.0px;stroke-linecap:butt;stroke-linejoin:miter;stroke-opacity:1"/>
<path class="bond-52 atom-52 atom-53" d="M 148.7,91.2 L 153.5,89.7" style="fill:none;fill-rule:evenodd;stroke:#000000;stroke-width:2.0px;stroke-linecap:butt;stroke-linejoin:miter;stroke-opacity:1"/>
<path class="bond-52 atom-52 atom-53" d="M 153.5,89.7 L 158.3,88.2" style="fill:none;fill-rule:evenodd;stroke:#FF0000;stroke-width:2.0px;stroke-linecap:butt;stroke-linejoin:miter;stroke-opacity:1"/>
<path class="bond-53 atom-53 atom-54" d="M 163.0,89.6 L 165.5,92.0" style="fill:none;fill-rule:evenodd;stroke:#FF0000;stroke-width:2.0px;stroke-linecap:butt;stroke-linejoin:miter;stroke-opacity:1"/>
<path class="bond-53 atom-53 atom-54" d="M 165.5,92.0 L 168.1,94.3" style="fill:none;fill-rule:evenodd;stroke:#FF7F00;stroke-width:2.0px;stroke-linecap:butt;stroke-linejoin:miter;stroke-opacity:1"/>
<path class="bond-54 atom-54 atom-55" d="M 167.4,97.2 L 165.2,99.6" style="fill:none;fill-rule:evenodd;stroke:#FF7F00;stroke-width:2.0px;stroke-linecap:butt;stroke-linejoin:miter;stroke-opacity:1"/>
<path class="bond-54 atom-54 atom-55" d="M 165.2,99.6 L 163.0,102.0" style="fill:none;fill-rule:evenodd;stroke:#FF0000;stroke-width:2.0px;stroke-linecap:butt;stroke-linejoin:miter;stroke-opacity:1"/>
<path class="bond-54 atom-54 atom-55" d="M 168.8,98.5 L 166.6,100.9" style="fill:none;fill-rule:evenodd;stroke:#FF7F00;stroke-width:2.0px;stroke-linecap:butt;stroke-linejoin:miter;stroke-opacity:1"/>
<path class="bond-54 atom-54 atom-55" d="M 166.6,100.9 L 164.4,103.2" style="fill:none;fill-rule:evenodd;stroke:#FF0000;stroke-width:2.0px;stroke-linecap:butt;stroke-linejoin:miter;stroke-opacity:1"/>
<path class="bond-55 atom-54 atom-56" d="M 171.6,94.0 L 173.8,91.7" style="fill:none;fill-rule:evenodd;stroke:#FF7F00;stroke-width:2.0px;stroke-linecap:butt;stroke-linejoin:miter;stroke-opacity:1"/>
<path class="bond-55 atom-54 atom-56" d="M 173.8,91.7 L 176.0,89.3" style="fill:none;fill-rule:evenodd;stroke:#FF0000;stroke-width:2.0px;stroke-linecap:butt;stroke-linejoin:miter;stroke-opacity:1"/>
<path class="bond-56 atom-54 atom-57" d="M 171.6,97.6 L 174.2,99.9" style="fill:none;fill-rule:evenodd;stroke:#FF7F00;stroke-width:2.0px;stroke-linecap:butt;stroke-linejoin:miter;stroke-opacity:1"/>
<path class="bond-56 atom-54 atom-57" d="M 174.2,99.9 L 176.7,102.3" style="fill:none;fill-rule:evenodd;stroke:#FF0000;stroke-width:2.0px;stroke-linecap:butt;stroke-linejoin:miter;stroke-opacity:1"/>
<path class="bond-57 atom-57 atom-58" d="M 181.4,103.7 L 185.4,102.5" style="fill:none;fill-rule:evenodd;stroke:#FF0000;stroke-width:2.0px;stroke-linecap:butt;stroke-linejoin:miter;stroke-opacity:1"/>
<path class="bond-57 atom-57 atom-58" d="M 185.4,102.5 L 189.3,101.3" style="fill:none;fill-rule:evenodd;stroke:#FF7F00;stroke-width:2.0px;stroke-linecap:butt;stroke-linejoin:miter;stroke-opacity:1"/>
<path class="bond-58 atom-58 atom-59" d="M 191.8,103.7 L 193.5,106.5" style="fill:none;fill-rule:evenodd;stroke:#FF7F00;stroke-width:2.0px;stroke-linecap:butt;stroke-linejoin:miter;stroke-opacity:1"/>
<path class="bond-58 atom-58 atom-59" d="M 193.5,106.5 L 195.2,109.3" style="fill:none;fill-rule:evenodd;stroke:#FF0000;stroke-width:2.0px;stroke-linecap:butt;stroke-linejoin:miter;stroke-opacity:1"/>
<path class="bond-58 atom-58 atom-59" d="M 193.4,102.7 L 195.1,105.6" style="fill:none;fill-rule:evenodd;stroke:#FF7F00;stroke-width:2.0px;stroke-linecap:butt;stroke-linejoin:miter;stroke-opacity:1"/>
<path class="bond-58 atom-58 atom-59" d="M 195.1,105.6 L 196.8,108.4" style="fill:none;fill-rule:evenodd;stroke:#FF0000;stroke-width:2.0px;stroke-linecap:butt;stroke-linejoin:miter;stroke-opacity:1"/>
<path class="bond-59 atom-58 atom-60" d="M 190.2,98.2 L 189.2,94.8" style="fill:none;fill-rule:evenodd;stroke:#FF7F00;stroke-width:2.0px;stroke-linecap:butt;stroke-linejoin:miter;stroke-opacity:1"/>
<path class="bond-59 atom-58 atom-60" d="M 189.2,94.8 L 188.1,91.4" style="fill:none;fill-rule:evenodd;stroke:#FF0000;stroke-width:2.0px;stroke-linecap:butt;stroke-linejoin:miter;stroke-opacity:1"/>
<path class="bond-60 atom-58 atom-61" d="M 192.8,100.1 L 196.7,98.9" style="fill:none;fill-rule:evenodd;stroke:#FF7F00;stroke-width:2.0px;stroke-linecap:butt;stroke-linejoin:miter;stroke-opacity:1"/>
<path class="bond-60 atom-58 atom-61" d="M 196.7,98.9 L 200.6,97.7" style="fill:none;fill-rule:evenodd;stroke:#FF0000;stroke-width:2.0px;stroke-linecap:butt;stroke-linejoin:miter;stroke-opacity:1"/>
<path class="bond-61 atom-61 atom-62" d="M 203.6,94.4 L 204.7,89.6" style="fill:none;fill-rule:evenodd;stroke:#FF0000;stroke-width:2.0px;stroke-linecap:butt;stroke-linejoin:miter;stroke-opacity:1"/>
<path class="bond-61 atom-61 atom-62" d="M 204.7,89.6 L 205.7,84.7" style="fill:none;fill-rule:evenodd;stroke:#000000;stroke-width:2.0px;stroke-linecap:butt;stroke-linejoin:miter;stroke-opacity:1"/>
<path class="bond-62 atom-62 atom-63" d="M 205.7,84.7 L 217.7,81.0" style="fill:none;fill-rule:evenodd;stroke:#000000;stroke-width:2.0px;stroke-linecap:butt;stroke-linejoin:miter;stroke-opacity:1"/>
<path class="bond-63 atom-63 atom-64" d="M 217.7,81.0 L 221.5,92.9" style="fill:none;fill-rule:evenodd;stroke:#000000;stroke-width:2.0px;stroke-linecap:butt;stroke-linejoin:miter;stroke-opacity:1"/>
<path class="bond-64 atom-63 atom-65" d="M 217.7,81.0 L 214.0,69.0" style="fill:none;fill-rule:evenodd;stroke:#000000;stroke-width:2.0px;stroke-linecap:butt;stroke-linejoin:miter;stroke-opacity:1"/>
<path class="bond-65 atom-63 atom-66" d="M 217.7,81.0 L 229.7,77.2" style="fill:none;fill-rule:evenodd;stroke:#000000;stroke-width:2.0px;stroke-linecap:butt;stroke-linejoin:miter;stroke-opacity:1"/>
<path class="bond-66 atom-66 atom-67" d="M 229.7,77.2 L 230.8,72.4" style="fill:none;fill-rule:evenodd;stroke:#000000;stroke-width:2.0px;stroke-linecap:butt;stroke-linejoin:miter;stroke-opacity:1"/>
<path class="bond-66 atom-66 atom-67" d="M 230.8,72.4 L 231.8,67.6" style="fill:none;fill-rule:evenodd;stroke:#FF0000;stroke-width:2.0px;stroke-linecap:butt;stroke-linejoin:miter;stroke-opacity:1"/>
<path class="bond-67 atom-66 atom-68" d="M 229.7,77.2 L 238.9,85.7" style="fill:none;fill-rule:evenodd;stroke:#000000;stroke-width:2.0px;stroke-linecap:butt;stroke-linejoin:miter;stroke-opacity:1"/>
<path class="bond-68 atom-68 atom-69" d="M 238.1,85.0 L 237.0,90.1" style="fill:none;fill-rule:evenodd;stroke:#000000;stroke-width:2.0px;stroke-linecap:butt;stroke-linejoin:miter;stroke-opacity:1"/>
<path class="bond-68 atom-68 atom-69" d="M 237.0,90.1 L 235.8,95.2" style="fill:none;fill-rule:evenodd;stroke:#FF0000;stroke-width:2.0px;stroke-linecap:butt;stroke-linejoin:miter;stroke-opacity:1"/>
<path class="bond-68 atom-68 atom-69" d="M 239.9,85.4 L 238.8,90.5" style="fill:none;fill-rule:evenodd;stroke:#000000;stroke-width:2.0px;stroke-linecap:butt;stroke-linejoin:miter;stroke-opacity:1"/>
<path class="bond-68 atom-68 atom-69" d="M 238.8,90.5 L 237.6,95.6" style="fill:none;fill-rule:evenodd;stroke:#FF0000;stroke-width:2.0px;stroke-linecap:butt;stroke-linejoin:miter;stroke-opacity:1"/>
<path class="bond-69 atom-68 atom-70" d="M 238.9,85.7 L 243.9,84.2" style="fill:none;fill-rule:evenodd;stroke:#000000;stroke-width:2.0px;stroke-linecap:butt;stroke-linejoin:miter;stroke-opacity:1"/>
<path class="bond-69 atom-68 atom-70" d="M 243.9,84.2 L 248.8,82.6" style="fill:none;fill-rule:evenodd;stroke:#0000FF;stroke-width:2.0px;stroke-linecap:butt;stroke-linejoin:miter;stroke-opacity:1"/>
<path class="bond-70 atom-70 atom-71" d="M 252.9,83.9 L 256.5,87.2" style="fill:none;fill-rule:evenodd;stroke:#0000FF;stroke-width:2.0px;stroke-linecap:butt;stroke-linejoin:miter;stroke-opacity:1"/>
<path class="bond-70 atom-70 atom-71" d="M 256.5,87.2 L 260.1,90.5" style="fill:none;fill-rule:evenodd;stroke:#000000;stroke-width:2.0px;stroke-linecap:butt;stroke-linejoin:miter;stroke-opacity:1"/>
<path class="bond-71 atom-71 atom-72" d="M 260.1,90.5 L 272.0,86.7" style="fill:none;fill-rule:evenodd;stroke:#000000;stroke-width:2.0px;stroke-linecap:butt;stroke-linejoin:miter;stroke-opacity:1"/>
<path class="bond-72 atom-72 atom-73" d="M 272.0,86.7 L 281.3,95.2" style="fill:none;fill-rule:evenodd;stroke:#000000;stroke-width:2.0px;stroke-linecap:butt;stroke-linejoin:miter;stroke-opacity:1"/>
<path class="bond-73 atom-73 atom-74" d="M 280.5,94.5 L 279.3,99.6" style="fill:none;fill-rule:evenodd;stroke:#000000;stroke-width:2.0px;stroke-linecap:butt;stroke-linejoin:miter;stroke-opacity:1"/>
<path class="bond-73 atom-73 atom-74" d="M 279.3,99.6 L 278.2,104.7" style="fill:none;fill-rule:evenodd;stroke:#FF0000;stroke-width:2.0px;stroke-linecap:butt;stroke-linejoin:miter;stroke-opacity:1"/>
<path class="bond-73 atom-73 atom-74" d="M 282.3,94.9 L 281.2,100.0" style="fill:none;fill-rule:evenodd;stroke:#000000;stroke-width:2.0px;stroke-linecap:butt;stroke-linejoin:miter;stroke-opacity:1"/>
<path class="bond-73 atom-73 atom-74" d="M 281.2,100.0 L 280.0,105.1" style="fill:none;fill-rule:evenodd;stroke:#FF0000;stroke-width:2.0px;stroke-linecap:butt;stroke-linejoin:miter;stroke-opacity:1"/>
<path class="bond-74 atom-73 atom-75" d="M 281.3,95.2 L 286.2,93.7" style="fill:none;fill-rule:evenodd;stroke:#000000;stroke-width:2.0px;stroke-linecap:butt;stroke-linejoin:miter;stroke-opacity:1"/>
<path class="bond-74 atom-73 atom-75" d="M 286.2,93.7 L 291.2,92.1" style="fill:none;fill-rule:evenodd;stroke:#0000FF;stroke-width:2.0px;stroke-linecap:butt;stroke-linejoin:miter;stroke-opacity:1"/>
<path class="bond-75 atom-75 atom-76" d="M 295.3,93.4 L 298.9,96.7" style="fill:none;fill-rule:evenodd;stroke:#0000FF;stroke-width:2.0px;stroke-linecap:butt;stroke-linejoin:miter;stroke-opacity:1"/>
<path class="bond-75 atom-75 atom-76" d="M 298.9,96.7 L 302.5,100.0" style="fill:none;fill-rule:evenodd;stroke:#000000;stroke-width:2.0px;stroke-linecap:butt;stroke-linejoin:miter;stroke-opacity:1"/>
<path class="bond-76 atom-76 atom-77" d="M 302.5,100.0 L 314.4,96.2" style="fill:none;fill-rule:evenodd;stroke:#000000;stroke-width:2.0px;stroke-linecap:butt;stroke-linejoin:miter;stroke-opacity:1"/>
<path class="bond-77 atom-77 atom-78" d="M 314.4,96.2 L 318.1,99.7" style="fill:none;fill-rule:evenodd;stroke:#000000;stroke-width:2.0px;stroke-linecap:butt;stroke-linejoin:miter;stroke-opacity:1"/>
<path class="bond-77 atom-77 atom-78" d="M 318.1,99.7 L 321.9,103.1" style="fill:none;fill-rule:evenodd;stroke:#CCCC00;stroke-width:2.0px;stroke-linecap:butt;stroke-linejoin:miter;stroke-opacity:1"/>
<path class="bond-78 atom-78 atom-79" d="M 325.4,104.2 L 330.5,102.6" style="fill:none;fill-rule:evenodd;stroke:#CCCC00;stroke-width:2.0px;stroke-linecap:butt;stroke-linejoin:miter;stroke-opacity:1"/>
<path class="bond-78 atom-78 atom-79" d="M 330.5,102.6 L 335.6,101.0" style="fill:none;fill-rule:evenodd;stroke:#000000;stroke-width:2.0px;stroke-linecap:butt;stroke-linejoin:miter;stroke-opacity:1"/>
<path class="bond-79 atom-79 atom-80" d="M 335.6,101.0 L 344.8,109.5" style="fill:none;fill-rule:evenodd;stroke:#000000;stroke-width:2.0px;stroke-linecap:butt;stroke-linejoin:miter;stroke-opacity:1"/>
<path class="bond-80 atom-79 atom-81" d="M 336.3,101.6 L 338.5,97.2" style="fill:none;fill-rule:evenodd;stroke:#000000;stroke-width:2.0px;stroke-linecap:butt;stroke-linejoin:miter;stroke-opacity:1"/>
<path class="bond-80 atom-79 atom-81" d="M 338.5,97.2 L 340.7,92.8" style="fill:none;fill-rule:evenodd;stroke:#FF0000;stroke-width:2.0px;stroke-linecap:butt;stroke-linejoin:miter;stroke-opacity:1"/>
<path class="bond-80 atom-79 atom-81" d="M 334.4,101.4 L 336.9,96.4" style="fill:none;fill-rule:evenodd;stroke:#000000;stroke-width:2.0px;stroke-linecap:butt;stroke-linejoin:miter;stroke-opacity:1"/>
<path class="bond-80 atom-79 atom-81" d="M 336.9,96.4 L 339.1,92.0" style="fill:none;fill-rule:evenodd;stroke:#FF0000;stroke-width:2.0px;stroke-linecap:butt;stroke-linejoin:miter;stroke-opacity:1"/>
<path class="bond-81 atom-51 atom-82" d="M 139.4,82.7 L 143.0,79.6" style="fill:none;fill-rule:evenodd;stroke:#000000;stroke-width:2.0px;stroke-linecap:butt;stroke-linejoin:miter;stroke-opacity:1"/>
<path class="bond-81 atom-51 atom-82" d="M 143.0,79.6 L 146.5,76.5" style="fill:none;fill-rule:evenodd;stroke:#FF0000;stroke-width:2.0px;stroke-linecap:butt;stroke-linejoin:miter;stroke-opacity:1"/>
<path class="bond-82 atom-82 atom-83" d="M 147.7,71.9 L 145.8,67.4" style="fill:none;fill-rule:evenodd;stroke:#FF0000;stroke-width:2.0px;stroke-linecap:butt;stroke-linejoin:miter;stroke-opacity:1"/>
<path class="bond-82 atom-82 atom-83" d="M 145.8,67.4 L 143.9,62.9" style="fill:none;fill-rule:evenodd;stroke:#000000;stroke-width:2.0px;stroke-linecap:butt;stroke-linejoin:miter;stroke-opacity:1"/>
<path class="bond-83 atom-83 atom-84" d="M 143.9,62.9 L 146.3,58.8" style="fill:none;fill-rule:evenodd;stroke:#000000;stroke-width:2.0px;stroke-linecap:butt;stroke-linejoin:miter;stroke-opacity:1"/>
<path class="bond-83 atom-83 atom-84" d="M 146.3,58.8 L 148.8,54.7" style="fill:none;fill-rule:evenodd;stroke:#0000FF;stroke-width:2.0px;stroke-linecap:butt;stroke-linejoin:miter;stroke-opacity:1"/>
<path class="bond-84 atom-84 atom-85" d="M 152.3,51.9 L 157.5,51.5" style="fill:none;fill-rule:evenodd;stroke:#0000FF;stroke-width:2.0px;stroke-linecap:butt;stroke-linejoin:miter;stroke-opacity:1"/>
<path class="bond-84 atom-84 atom-85" d="M 157.5,51.5 L 162.8,51.0" style="fill:none;fill-rule:evenodd;stroke:#000000;stroke-width:2.0px;stroke-linecap:butt;stroke-linejoin:miter;stroke-opacity:1"/>
<path class="bond-85 atom-85 atom-86" d="M 162.8,51.0 L 163.8,46.1" style="fill:none;fill-rule:evenodd;stroke:#000000;stroke-width:2.0px;stroke-linecap:butt;stroke-linejoin:miter;stroke-opacity:1"/>
<path class="bond-85 atom-85 atom-86" d="M 163.8,46.1 L 164.9,41.3" style="fill:none;fill-rule:evenodd;stroke:#0000FF;stroke-width:2.0px;stroke-linecap:butt;stroke-linejoin:miter;stroke-opacity:1"/>
<path class="bond-85 atom-85 atom-86" d="M 161.2,49.2 L 162.2,45.0" style="fill:none;fill-rule:evenodd;stroke:#000000;stroke-width:2.0px;stroke-linecap:butt;stroke-linejoin:miter;stroke-opacity:1"/>
<path class="bond-85 atom-85 atom-86" d="M 162.2,45.0 L 163.1,40.9" style="fill:none;fill-rule:evenodd;stroke:#0000FF;stroke-width:2.0px;stroke-linecap:butt;stroke-linejoin:miter;stroke-opacity:1"/>
<path class="bond-86 atom-86 atom-87" d="M 163.5,37.5 L 159.1,34.9" style="fill:none;fill-rule:evenodd;stroke:#0000FF;stroke-width:2.0px;stroke-linecap:butt;stroke-linejoin:miter;stroke-opacity:1"/>
<path class="bond-86 atom-86 atom-87" d="M 159.1,34.9 L 154.7,32.3" style="fill:none;fill-rule:evenodd;stroke:#000000;stroke-width:2.0px;stroke-linecap:butt;stroke-linejoin:miter;stroke-opacity:1"/>
<path class="bond-87 atom-87 atom-88" d="M 154.7,32.3 L 152.2,20.1" style="fill:none;fill-rule:evenodd;stroke:#000000;stroke-width:2.0px;stroke-linecap:butt;stroke-linejoin:miter;stroke-opacity:1"/>
<path class="bond-87 atom-87 atom-88" d="M 152.7,31.7 L 150.6,21.5" style="fill:none;fill-rule:evenodd;stroke:#000000;stroke-width:2.0px;stroke-linecap:butt;stroke-linejoin:miter;stroke-opacity:1"/>
<path class="bond-88 atom-88 atom-89" d="M 152.2,20.1 L 155.9,16.8" style="fill:none;fill-rule:evenodd;stroke:#000000;stroke-width:2.0px;stroke-linecap:butt;stroke-linejoin:miter;stroke-opacity:1"/>
<path class="bond-88 atom-88 atom-89" d="M 155.9,16.8 L 159.6,13.5" style="fill:none;fill-rule:evenodd;stroke:#0000FF;stroke-width:2.0px;stroke-linecap:butt;stroke-linejoin:miter;stroke-opacity:1"/>
<path class="bond-89 atom-88 atom-90" d="M 152.2,20.1 L 147.3,18.4" style="fill:none;fill-rule:evenodd;stroke:#000000;stroke-width:2.0px;stroke-linecap:butt;stroke-linejoin:miter;stroke-opacity:1"/>
<path class="bond-89 atom-88 atom-90" d="M 147.3,18.4 L 142.4,16.7" style="fill:none;fill-rule:evenodd;stroke:#0000FF;stroke-width:2.0px;stroke-linecap:butt;stroke-linejoin:miter;stroke-opacity:1"/>
<path class="bond-90 atom-90 atom-91" d="M 138.3,17.8 L 134.6,21.1" style="fill:none;fill-rule:evenodd;stroke:#0000FF;stroke-width:2.0px;stroke-linecap:butt;stroke-linejoin:miter;stroke-opacity:1"/>
<path class="bond-90 atom-90 atom-91" d="M 134.6,21.1 L 131.0,24.3" style="fill:none;fill-rule:evenodd;stroke:#000000;stroke-width:2.0px;stroke-linecap:butt;stroke-linejoin:miter;stroke-opacity:1"/>
<path class="bond-90 atom-90 atom-91" d="M 139.6,19.2 L 136.3,22.1" style="fill:none;fill-rule:evenodd;stroke:#0000FF;stroke-width:2.0px;stroke-linecap:butt;stroke-linejoin:miter;stroke-opacity:1"/>
<path class="bond-90 atom-90 atom-91" d="M 136.3,22.1 L 133.0,25.0" style="fill:none;fill-rule:evenodd;stroke:#000000;stroke-width:2.0px;stroke-linecap:butt;stroke-linejoin:miter;stroke-opacity:1"/>
<path class="bond-91 atom-91 atom-92" d="M 131.0,24.3 L 131.9,29.2" style="fill:none;fill-rule:evenodd;stroke:#000000;stroke-width:2.0px;stroke-linecap:butt;stroke-linejoin:miter;stroke-opacity:1"/>
<path class="bond-91 atom-91 atom-92" d="M 131.9,29.2 L 132.9,34.1" style="fill:none;fill-rule:evenodd;stroke:#0000FF;stroke-width:2.0px;stroke-linecap:butt;stroke-linejoin:miter;stroke-opacity:1"/>
<path class="bond-92 atom-92 atom-93" d="M 135.4,37.3 L 140.4,39.0" style="fill:none;fill-rule:evenodd;stroke:#0000FF;stroke-width:2.0px;stroke-linecap:butt;stroke-linejoin:miter;stroke-opacity:1"/>
<path class="bond-92 atom-92 atom-93" d="M 140.4,39.0 L 145.3,40.6" style="fill:none;fill-rule:evenodd;stroke:#000000;stroke-width:2.0px;stroke-linecap:butt;stroke-linejoin:miter;stroke-opacity:1"/>
<path class="bond-92 atom-92 atom-93" d="M 136.0,35.5 L 140.5,37.0" style="fill:none;fill-rule:evenodd;stroke:#0000FF;stroke-width:2.0px;stroke-linecap:butt;stroke-linejoin:miter;stroke-opacity:1"/>
<path class="bond-92 atom-92 atom-93" d="M 140.5,37.0 L 144.9,38.5" style="fill:none;fill-rule:evenodd;stroke:#000000;stroke-width:2.0px;stroke-linecap:butt;stroke-linejoin:miter;stroke-opacity:1"/>
<path class="bond-93 atom-83 atom-94" d="M 143.9,62.9 L 131.4,64.1" style="fill:none;fill-rule:evenodd;stroke:#000000;stroke-width:2.0px;stroke-linecap:butt;stroke-linejoin:miter;stroke-opacity:1"/>
<path class="bond-94 atom-94 atom-95" d="M 131.4,64.1 L 128.4,60.7" style="fill:none;fill-rule:evenodd;stroke:#000000;stroke-width:2.0px;stroke-linecap:butt;stroke-linejoin:miter;stroke-opacity:1"/>
<path class="bond-94 atom-94 atom-95" d="M 128.4,60.7 L 125.4,57.3" style="fill:none;fill-rule:evenodd;stroke:#FF0000;stroke-width:2.0px;stroke-linecap:butt;stroke-linejoin:miter;stroke-opacity:1"/>
<path class="bond-95 atom-94 atom-96" d="M 131.4,64.1 L 128.7,76.3" style="fill:none;fill-rule:evenodd;stroke:#000000;stroke-width:2.0px;stroke-linecap:butt;stroke-linejoin:miter;stroke-opacity:1"/>
<path class="bond-96 atom-96 atom-97" d="M 128.7,76.3 L 124.1,78.3" style="fill:none;fill-rule:evenodd;stroke:#000000;stroke-width:2.0px;stroke-linecap:butt;stroke-linejoin:miter;stroke-opacity:1"/>
<path class="bond-96 atom-96 atom-97" d="M 124.1,78.3 L 119.5,80.3" style="fill:none;fill-rule:evenodd;stroke:#FF0000;stroke-width:2.0px;stroke-linecap:butt;stroke-linejoin:miter;stroke-opacity:1"/>
<path class="bond-97 atom-97 atom-98" d="M 114.8,79.5 L 111.8,77.3" style="fill:none;fill-rule:evenodd;stroke:#FF0000;stroke-width:2.0px;stroke-linecap:butt;stroke-linejoin:miter;stroke-opacity:1"/>
<path class="bond-97 atom-97 atom-98" d="M 111.8,77.3 L 108.9,75.1" style="fill:none;fill-rule:evenodd;stroke:#FF7F00;stroke-width:2.0px;stroke-linecap:butt;stroke-linejoin:miter;stroke-opacity:1"/>
<path class="bond-98 atom-98 atom-99" d="M 104.6,75.6 L 102.7,78.2" style="fill:none;fill-rule:evenodd;stroke:#FF7F00;stroke-width:2.0px;stroke-linecap:butt;stroke-linejoin:miter;stroke-opacity:1"/>
<path class="bond-98 atom-98 atom-99" d="M 102.7,78.2 L 100.8,80.8" style="fill:none;fill-rule:evenodd;stroke:#FF0000;stroke-width:2.0px;stroke-linecap:butt;stroke-linejoin:miter;stroke-opacity:1"/>
<path class="bond-98 atom-98 atom-99" d="M 106.1,76.7 L 104.2,79.3" style="fill:none;fill-rule:evenodd;stroke:#FF7F00;stroke-width:2.0px;stroke-linecap:butt;stroke-linejoin:miter;stroke-opacity:1"/>
<path class="bond-98 atom-98 atom-99" d="M 104.2,79.3 L 102.3,81.9" style="fill:none;fill-rule:evenodd;stroke:#FF0000;stroke-width:2.0px;stroke-linecap:butt;stroke-linejoin:miter;stroke-opacity:1"/>
<path class="bond-99 atom-98 atom-100" d="M 108.9,71.4 L 110.7,68.9" style="fill:none;fill-rule:evenodd;stroke:#FF7F00;stroke-width:2.0px;stroke-linecap:butt;stroke-linejoin:miter;stroke-opacity:1"/>
<path class="bond-99 atom-98 atom-100" d="M 110.7,68.9 L 112.6,66.4" style="fill:none;fill-rule:evenodd;stroke:#FF0000;stroke-width:2.0px;stroke-linecap:butt;stroke-linejoin:miter;stroke-opacity:1"/>
<path class="bond-100 atom-98 atom-101" d="M 105.3,72.5 L 102.4,70.3" style="fill:none;fill-rule:evenodd;stroke:#FF7F00;stroke-width:2.0px;stroke-linecap:butt;stroke-linejoin:miter;stroke-opacity:1"/>
<path class="bond-100 atom-98 atom-101" d="M 102.4,70.3 L 99.4,68.1" style="fill:none;fill-rule:evenodd;stroke:#FF0000;stroke-width:2.0px;stroke-linecap:butt;stroke-linejoin:miter;stroke-opacity:1"/>
<path class="bond-101 atom-47 atom-102" d="M 124.5,102.8 L 126.4,107.3" style="fill:none;fill-rule:evenodd;stroke:#000000;stroke-width:2.0px;stroke-linecap:butt;stroke-linejoin:miter;stroke-opacity:1"/>
<path class="bond-101 atom-47 atom-102" d="M 126.4,107.3 L 128.4,111.8" style="fill:none;fill-rule:evenodd;stroke:#0000FF;stroke-width:2.0px;stroke-linecap:butt;stroke-linejoin:miter;stroke-opacity:1"/>
<path class="bond-102 atom-102 atom-103" d="M 127.6,116.9 L 124.8,120.6" style="fill:none;fill-rule:evenodd;stroke:#0000FF;stroke-width:2.0px;stroke-linecap:butt;stroke-linejoin:miter;stroke-opacity:1"/>
<path class="bond-102 atom-102 atom-103" d="M 124.8,120.6 L 122.0,124.4" style="fill:none;fill-rule:evenodd;stroke:#000000;stroke-width:2.0px;stroke-linecap:butt;stroke-linejoin:miter;stroke-opacity:1"/>
<path class="bond-102 atom-102 atom-103" d="M 126.1,115.8 L 123.6,119.1" style="fill:none;fill-rule:evenodd;stroke:#0000FF;stroke-width:2.0px;stroke-linecap:butt;stroke-linejoin:miter;stroke-opacity:1"/>
<path class="bond-102 atom-102 atom-103" d="M 123.6,119.1 L 121.1,122.4" style="fill:none;fill-rule:evenodd;stroke:#000000;stroke-width:2.0px;stroke-linecap:butt;stroke-linejoin:miter;stroke-opacity:1"/>
<path class="bond-103 atom-39 atom-104" d="M 135.8,141.9 L 138.3,154.2" style="fill:none;fill-rule:evenodd;stroke:#000000;stroke-width:2.0px;stroke-linecap:butt;stroke-linejoin:miter;stroke-opacity:1"/>
<path class="bond-104 atom-104 atom-105" d="M 138.3,154.2 L 135.2,157.5" style="fill:none;fill-rule:evenodd;stroke:#000000;stroke-width:2.0px;stroke-linecap:butt;stroke-linejoin:miter;stroke-opacity:1"/>
<path class="bond-104 atom-104 atom-105" d="M 135.2,157.5 L 132.2,160.9" style="fill:none;fill-rule:evenodd;stroke:#FF0000;stroke-width:2.0px;stroke-linecap:butt;stroke-linejoin:miter;stroke-opacity:1"/>
<path class="bond-105 atom-104 atom-106" d="M 138.3,154.2 L 150.8,155.6" style="fill:none;fill-rule:evenodd;stroke:#000000;stroke-width:2.0px;stroke-linecap:butt;stroke-linejoin:miter;stroke-opacity:1"/>
<path class="bond-106 atom-106 atom-107" d="M 150.8,155.6 L 153.1,159.8" style="fill:none;fill-rule:evenodd;stroke:#000000;stroke-width:2.0px;stroke-linecap:butt;stroke-linejoin:miter;stroke-opacity:1"/>
<path class="bond-106 atom-106 atom-107" d="M 153.1,159.8 L 155.5,164.0" style="fill:none;fill-rule:evenodd;stroke:#FF0000;stroke-width:2.0px;stroke-linecap:butt;stroke-linejoin:miter;stroke-opacity:1"/>
<path class="bond-107 atom-107 atom-108" d="M 155.4,169.2 L 153.7,172.0" style="fill:none;fill-rule:evenodd;stroke:#FF0000;stroke-width:2.0px;stroke-linecap:butt;stroke-linejoin:miter;stroke-opacity:1"/>
<path class="bond-107 atom-107 atom-108" d="M 153.7,172.0 L 152.0,174.8" style="fill:none;fill-rule:evenodd;stroke:#FF7F00;stroke-width:2.0px;stroke-linecap:butt;stroke-linejoin:miter;stroke-opacity:1"/>
<path class="bond-108 atom-108 atom-109" d="M 151.8,179.2 L 155.1,181.2" style="fill:none;fill-rule:evenodd;stroke:#FF7F00;stroke-width:2.0px;stroke-linecap:butt;stroke-linejoin:miter;stroke-opacity:1"/>
<path class="bond-108 atom-108 atom-109" d="M 155.1,181.2 L 158.5,183.2" style="fill:none;fill-rule:evenodd;stroke:#FF0000;stroke-width:2.0px;stroke-linecap:butt;stroke-linejoin:miter;stroke-opacity:1"/>
<path class="bond-108 atom-108 atom-109" d="M 152.8,177.6 L 156.1,179.6" style="fill:none;fill-rule:evenodd;stroke:#FF7F00;stroke-width:2.0px;stroke-linecap:butt;stroke-linejoin:miter;stroke-opacity:1"/>
<path class="bond-108 atom-108 atom-109" d="M 156.1,179.6 L 159.4,181.5" style="fill:none;fill-rule:evenodd;stroke:#FF0000;stroke-width:2.0px;stroke-linecap:butt;stroke-linejoin:miter;stroke-opacity:1"/>
<path class="bond-109 atom-108 atom-110" d="M 148.8,176.3 L 145.4,174.3" style="fill:none;fill-rule:evenodd;stroke:#FF7F00;stroke-width:2.0px;stroke-linecap:butt;stroke-linejoin:miter;stroke-opacity:1"/>
<path class="bond-109 atom-108 atom-110" d="M 145.4,174.3 L 142.1,172.4" style="fill:none;fill-rule:evenodd;stroke:#FF0000;stroke-width:2.0px;stroke-linecap:butt;stroke-linejoin:miter;stroke-opacity:1"/>
<path class="bond-110 atom-108 atom-111" d="M 149.0,179.9 L 147.3,182.7" style="fill:none;fill-rule:evenodd;stroke:#FF7F00;stroke-width:2.0px;stroke-linecap:butt;stroke-linejoin:miter;stroke-opacity:1"/>
<path class="bond-110 atom-108 atom-111" d="M 147.3,182.7 L 145.7,185.6" style="fill:none;fill-rule:evenodd;stroke:#FF0000;stroke-width:2.0px;stroke-linecap:butt;stroke-linejoin:miter;stroke-opacity:1"/>
<path class="bond-111 atom-1 atom-112" d="M 188.2,175.9 L 199.1,169.8" style="fill:none;fill-rule:evenodd;stroke:#000000;stroke-width:2.0px;stroke-linecap:butt;stroke-linejoin:miter;stroke-opacity:1"/>
<path class="bond-112 atom-112 atom-113" d="M 200.1,170.4 L 200.1,165.1" style="fill:none;fill-rule:evenodd;stroke:#000000;stroke-width:2.0px;stroke-linecap:butt;stroke-linejoin:miter;stroke-opacity:1"/>
<path class="bond-112 atom-112 atom-113" d="M 200.1,165.1 L 200.2,159.9" style="fill:none;fill-rule:evenodd;stroke:#FF0000;stroke-width:2.0px;stroke-linecap:butt;stroke-linejoin:miter;stroke-opacity:1"/>
<path class="bond-112 atom-112 atom-113" d="M 198.2,170.3 L 198.2,165.1" style="fill:none;fill-rule:evenodd;stroke:#000000;stroke-width:2.0px;stroke-linecap:butt;stroke-linejoin:miter;stroke-opacity:1"/>
<path class="bond-112 atom-112 atom-113" d="M 198.2,165.1 L 198.3,159.9" style="fill:none;fill-rule:evenodd;stroke:#FF0000;stroke-width:2.0px;stroke-linecap:butt;stroke-linejoin:miter;stroke-opacity:1"/>
<path class="bond-113 atom-112 atom-114" d="M 199.1,169.8 L 203.3,172.3" style="fill:none;fill-rule:evenodd;stroke:#000000;stroke-width:2.0px;stroke-linecap:butt;stroke-linejoin:miter;stroke-opacity:1"/>
<path class="bond-113 atom-112 atom-114" d="M 203.3,172.3 L 207.6,174.8" style="fill:none;fill-rule:evenodd;stroke:#FF0000;stroke-width:2.0px;stroke-linecap:butt;stroke-linejoin:miter;stroke-opacity:1"/>
<path class="bond-114 atom-106 atom-7" d="M 150.8,155.6 L 156.0,144.3" style="fill:none;fill-rule:evenodd;stroke:#000000;stroke-width:2.0px;stroke-linecap:butt;stroke-linejoin:miter;stroke-opacity:1"/>
<path class="bond-115 atom-103 atom-40" d="M 122.0,124.4 L 123.0,129.3" style="fill:none;fill-rule:evenodd;stroke:#000000;stroke-width:2.0px;stroke-linecap:butt;stroke-linejoin:miter;stroke-opacity:1"/>
<path class="bond-115 atom-103 atom-40" d="M 123.0,129.3 L 123.9,134.1" style="fill:none;fill-rule:evenodd;stroke:#0000FF;stroke-width:2.0px;stroke-linecap:butt;stroke-linejoin:miter;stroke-opacity:1"/>
<path class="bond-116 atom-103 atom-43" d="M 122.0,124.4 L 109.5,122.9" style="fill:none;fill-rule:evenodd;stroke:#000000;stroke-width:2.0px;stroke-linecap:butt;stroke-linejoin:miter;stroke-opacity:1"/>
<path class="bond-117 atom-96 atom-51" d="M 128.7,76.3 L 139.4,82.7" style="fill:none;fill-rule:evenodd;stroke:#000000;stroke-width:2.0px;stroke-linecap:butt;stroke-linejoin:miter;stroke-opacity:1"/>
<path class="bond-118 atom-93 atom-84" d="M 145.3,40.6 L 147.2,45.1" style="fill:none;fill-rule:evenodd;stroke:#000000;stroke-width:2.0px;stroke-linecap:butt;stroke-linejoin:miter;stroke-opacity:1"/>
<path class="bond-118 atom-93 atom-84" d="M 147.2,45.1 L 149.2,49.6" style="fill:none;fill-rule:evenodd;stroke:#0000FF;stroke-width:2.0px;stroke-linecap:butt;stroke-linejoin:miter;stroke-opacity:1"/>
<path class="bond-119 atom-93 atom-87" d="M 145.3,40.6 L 154.7,32.3" style="fill:none;fill-rule:evenodd;stroke:#000000;stroke-width:2.0px;stroke-linecap:butt;stroke-linejoin:miter;stroke-opacity:1"/>
<path d="M 187.7,175.6 L 188.2,175.9 L 188.8,175.6" style="fill:none;stroke:#000000;stroke-width:2.0px;stroke-linecap:butt;stroke-linejoin:miter;stroke-opacity:1;"/>
<path d="M 178.0,169.9 L 177.4,169.6 L 177.4,168.9" style="fill:none;stroke:#000000;stroke-width:2.0px;stroke-linecap:butt;stroke-linejoin:miter;stroke-opacity:1;"/>
<path d="M 177.6,157.7 L 177.6,157.0 L 177.0,156.7" style="fill:none;stroke:#000000;stroke-width:2.0px;stroke-linecap:butt;stroke-linejoin:miter;stroke-opacity:1;"/>
<path d="M 163.1,134.7 L 163.5,134.2 L 163.7,134.2" style="fill:none;stroke:#000000;stroke-width:2.0px;stroke-linecap:butt;stroke-linejoin:miter;stroke-opacity:1;"/>
<path d="M 220.7,129.7 L 220.8,129.9 L 221.4,130.0" style="fill:none;stroke:#000000;stroke-width:2.0px;stroke-linecap:butt;stroke-linejoin:miter;stroke-opacity:1;"/>
<path d="M 252.8,123.3 L 253.1,122.8 L 253.4,122.8" style="fill:none;stroke:#000000;stroke-width:2.0px;stroke-linecap:butt;stroke-linejoin:miter;stroke-opacity:1;"/>
<path d="M 272.9,114.3 L 273.1,114.2 L 273.7,114.2" style="fill:none;stroke:#000000;stroke-width:2.0px;stroke-linecap:butt;stroke-linejoin:miter;stroke-opacity:1;"/>
<path d="M 284.9,115.5 L 285.5,115.6 L 285.9,115.1" style="fill:none;stroke:#000000;stroke-width:2.0px;stroke-linecap:butt;stroke-linejoin:miter;stroke-opacity:1;"/>
<path d="M 292.6,106.0 L 293.0,105.5 L 293.3,105.6" style="fill:none;stroke:#000000;stroke-width:2.0px;stroke-linecap:butt;stroke-linejoin:miter;stroke-opacity:1;"/>
<path d="M 312.8,97.1 L 312.9,96.9 L 313.6,97.0" style="fill:none;stroke:#000000;stroke-width:2.0px;stroke-linecap:butt;stroke-linejoin:miter;stroke-opacity:1;"/>
<path d="M 324.8,98.3 L 325.4,98.4 L 325.5,98.2" style="fill:none;stroke:#000000;stroke-width:2.0px;stroke-linecap:butt;stroke-linejoin:miter;stroke-opacity:1;"/>
<path d="M 345.0,89.7 L 345.3,89.8 L 345.7,89.3" style="fill:none;stroke:#000000;stroke-width:2.0px;stroke-linecap:butt;stroke-linejoin:miter;stroke-opacity:1;"/>
<path d="M 113.7,142.7 L 113.5,142.8 L 113.3,142.7" style="fill:none;stroke:#000000;stroke-width:2.0px;stroke-linecap:butt;stroke-linejoin:miter;stroke-opacity:1;"/>
<path d="M 148.2,90.8 L 148.7,91.2 L 148.9,91.1" style="fill:none;stroke:#000000;stroke-width:2.0px;stroke-linecap:butt;stroke-linejoin:miter;stroke-opacity:1;"/>
<path d="M 205.7,85.0 L 205.7,84.7 L 206.3,84.5" style="fill:none;stroke:#000000;stroke-width:2.0px;stroke-linecap:butt;stroke-linejoin:miter;stroke-opacity:1;"/>
<path d="M 238.4,85.3 L 238.9,85.7 L 239.1,85.7" style="fill:none;stroke:#000000;stroke-width:2.0px;stroke-linecap:butt;stroke-linejoin:miter;stroke-opacity:1;"/>
<path d="M 259.9,90.3 L 260.1,90.5 L 260.7,90.3" style="fill:none;stroke:#000000;stroke-width:2.0px;stroke-linecap:butt;stroke-linejoin:miter;stroke-opacity:1;"/>
<path d="M 271.4,86.9 L 272.0,86.7 L 272.5,87.2" style="fill:none;stroke:#000000;stroke-width:2.0px;stroke-linecap:butt;stroke-linejoin:miter;stroke-opacity:1;"/>
<path d="M 280.8,94.8 L 281.3,95.2 L 281.5,95.2" style="fill:none;stroke:#000000;stroke-width:2.0px;stroke-linecap:butt;stroke-linejoin:miter;stroke-opacity:1;"/>
<path d="M 302.3,99.8 L 302.5,100.0 L 303.1,99.8" style="fill:none;stroke:#000000;stroke-width:2.0px;stroke-linecap:butt;stroke-linejoin:miter;stroke-opacity:1;"/>
<path d="M 313.8,96.4 L 314.4,96.2 L 314.6,96.4" style="fill:none;stroke:#000000;stroke-width:2.0px;stroke-linecap:butt;stroke-linejoin:miter;stroke-opacity:1;"/>
<path d="M 335.3,101.1 L 335.6,101.0 L 336.1,101.4" style="fill:none;stroke:#000000;stroke-width:2.0px;stroke-linecap:butt;stroke-linejoin:miter;stroke-opacity:1;"/>
<path d="M 162.5,51.0 L 162.8,51.0 L 162.8,50.7" style="fill:none;stroke:#000000;stroke-width:2.0px;stroke-linecap:butt;stroke-linejoin:miter;stroke-opacity:1;"/>
<path d="M 131.1,24.2 L 131.0,24.3 L 131.0,24.6" style="fill:none;stroke:#000000;stroke-width:2.0px;stroke-linecap:butt;stroke-linejoin:miter;stroke-opacity:1;"/>
<path d="M 198.6,170.1 L 199.1,169.8 L 199.3,169.9" style="fill:none;stroke:#000000;stroke-width:2.0px;stroke-linecap:butt;stroke-linejoin:miter;stroke-opacity:1;"/>
<path class="atom-5" d="M 161.2 162.7 Q 161.2 161.6, 161.7 161.1 Q 162.2 160.5, 163.2 160.5 Q 164.1 160.5, 164.6 161.1 Q 165.1 161.6, 165.1 162.7 Q 165.1 163.7, 164.6 164.3 Q 164.1 164.9, 163.2 164.9 Q 162.3 164.9, 161.7 164.3 Q 161.2 163.7, 161.2 162.7 M 163.2 164.4 Q 163.8 164.4, 164.2 164.0 Q 164.5 163.5, 164.5 162.7 Q 164.5 161.8, 164.2 161.4 Q 163.8 161.0, 163.2 161.0 Q 162.5 161.0, 162.2 161.4 Q 161.8 161.8, 161.8 162.7 Q 161.8 163.5, 162.2 164.0 Q 162.5 164.4, 163.2 164.4 " fill="#FF0000"/>
<path class="atom-5" d="M 165.8 160.6 L 166.4 160.6 L 166.4 162.4 L 168.5 162.4 L 168.5 160.6 L 169.1 160.6 L 169.1 164.8 L 168.5 164.8 L 168.5 162.8 L 166.4 162.8 L 166.4 164.8 L 165.8 164.8 L 165.8 160.6 " fill="#FF0000"/>
<path class="atom-6" d="M 172.0 143.4 Q 172.0 142.4, 172.5 141.8 Q 173.0 141.3, 173.9 141.3 Q 174.9 141.3, 175.4 141.8 Q 175.9 142.4, 175.9 143.4 Q 175.9 144.5, 175.3 145.0 Q 174.8 145.6, 173.9 145.6 Q 173.0 145.6, 172.5 145.0 Q 172.0 144.5, 172.0 143.4 M 173.9 145.1 Q 174.6 145.1, 174.9 144.7 Q 175.3 144.3, 175.3 143.4 Q 175.3 142.6, 174.9 142.2 Q 174.6 141.7, 173.9 141.7 Q 173.3 141.7, 172.9 142.2 Q 172.6 142.6, 172.6 143.4 Q 172.6 144.3, 172.9 144.7 Q 173.3 145.1, 173.9 145.1 " fill="#FF0000"/>
<path class="atom-6" d="M 176.5 141.3 L 177.1 141.3 L 177.1 143.1 L 179.3 143.1 L 179.3 141.3 L 179.8 141.3 L 179.8 145.6 L 179.3 145.6 L 179.3 143.6 L 177.1 143.6 L 177.1 145.6 L 176.5 145.6 L 176.5 141.3 " fill="#FF0000"/>
<path class="atom-9" d="M 174.0 135.7 Q 174.0 134.6, 174.5 134.1 Q 175.0 133.5, 175.9 133.5 Q 176.9 133.5, 177.4 134.1 Q 177.9 134.6, 177.9 135.7 Q 177.9 136.7, 177.4 137.3 Q 176.9 137.9, 175.9 137.9 Q 175.0 137.9, 174.5 137.3 Q 174.0 136.7, 174.0 135.7 M 175.9 137.4 Q 176.6 137.4, 176.9 136.9 Q 177.3 136.5, 177.3 135.7 Q 177.3 134.8, 176.9 134.4 Q 176.6 134.0, 175.9 134.0 Q 175.3 134.0, 174.9 134.4 Q 174.6 134.8, 174.6 135.7 Q 174.6 136.5, 174.9 136.9 Q 175.3 137.4, 175.9 137.4 " fill="#FF0000"/>
<path class="atom-10" d="M 183.3 123.5 Q 184.0 123.5, 184.4 123.8 Q 184.8 124.1, 184.8 124.7 Q 184.8 125.3, 184.4 125.6 Q 184.0 126.0, 183.3 126.0 L 182.6 126.0 L 182.6 127.7 L 182.0 127.7 L 182.0 123.5 L 183.3 123.5 M 183.3 125.5 Q 183.7 125.5, 183.9 125.3 Q 184.2 125.1, 184.2 124.7 Q 184.2 124.3, 183.9 124.1 Q 183.7 123.9, 183.3 123.9 L 182.6 123.9 L 182.6 125.5 L 183.3 125.5 " fill="#FF7F00"/>
<path class="atom-11" d="M 171.4 118.1 Q 171.4 117.1, 171.9 116.5 Q 172.4 116.0, 173.3 116.0 Q 174.3 116.0, 174.8 116.5 Q 175.3 117.1, 175.3 118.1 Q 175.3 119.1, 174.8 119.7 Q 174.3 120.3, 173.3 120.3 Q 172.4 120.3, 171.9 119.7 Q 171.4 119.2, 171.4 118.1 M 173.3 119.8 Q 174.0 119.8, 174.3 119.4 Q 174.7 119.0, 174.7 118.1 Q 174.7 117.3, 174.3 116.9 Q 174.0 116.4, 173.3 116.4 Q 172.7 116.4, 172.3 116.9 Q 172.0 117.3, 172.0 118.1 Q 172.0 119.0, 172.3 119.4 Q 172.7 119.8, 173.3 119.8 " fill="#FF0000"/>
<path class="atom-12" d="M 191.5 133.1 Q 191.5 132.1, 192.0 131.5 Q 192.5 130.9, 193.5 130.9 Q 194.4 130.9, 194.9 131.5 Q 195.4 132.1, 195.4 133.1 Q 195.4 134.1, 194.9 134.7 Q 194.4 135.3, 193.5 135.3 Q 192.5 135.3, 192.0 134.7 Q 191.5 134.1, 191.5 133.1 M 193.5 134.8 Q 194.1 134.8, 194.5 134.4 Q 194.8 133.9, 194.8 133.1 Q 194.8 132.2, 194.5 131.8 Q 194.1 131.4, 193.5 131.4 Q 192.8 131.4, 192.5 131.8 Q 192.1 132.2, 192.1 133.1 Q 192.1 133.9, 192.5 134.4 Q 192.8 134.8, 193.5 134.8 " fill="#FF0000"/>
<path class="atom-12" d="M 196.1 131.0 L 196.6 131.0 L 196.6 132.8 L 198.8 132.8 L 198.8 131.0 L 199.4 131.0 L 199.4 135.2 L 198.8 135.2 L 198.8 133.2 L 196.6 133.2 L 196.6 135.2 L 196.1 135.2 L 196.1 131.0 " fill="#FF0000"/>
<path class="atom-13" d="M 188.9 115.5 Q 188.9 114.5, 189.4 113.9 Q 189.9 113.4, 190.9 113.4 Q 191.8 113.4, 192.3 113.9 Q 192.8 114.5, 192.8 115.5 Q 192.8 116.6, 192.3 117.2 Q 191.8 117.7, 190.9 117.7 Q 189.9 117.7, 189.4 117.2 Q 188.9 116.6, 188.9 115.5 M 190.9 117.3 Q 191.5 117.3, 191.9 116.8 Q 192.2 116.4, 192.2 115.5 Q 192.2 114.7, 191.9 114.3 Q 191.5 113.9, 190.9 113.9 Q 190.2 113.9, 189.9 114.3 Q 189.5 114.7, 189.5 115.5 Q 189.5 116.4, 189.9 116.8 Q 190.2 117.3, 190.9 117.3 " fill="#FF0000"/>
<path class="atom-14" d="M 203.2 114.8 Q 204.0 114.8, 204.3 115.2 Q 204.7 115.5, 204.7 116.1 Q 204.7 116.7, 204.3 117.0 Q 203.9 117.4, 203.2 117.4 L 202.6 117.4 L 202.6 119.1 L 202.0 119.1 L 202.0 114.8 L 203.2 114.8 M 203.2 116.9 Q 203.6 116.9, 203.9 116.7 Q 204.1 116.5, 204.1 116.1 Q 204.1 115.7, 203.9 115.5 Q 203.7 115.3, 203.2 115.3 L 202.6 115.3 L 202.6 116.9 L 203.2 116.9 " fill="#FF7F00"/>
<path class="atom-15" d="M 202.8 104.5 Q 202.8 103.5, 203.3 102.9 Q 203.8 102.4, 204.8 102.4 Q 205.7 102.4, 206.2 102.9 Q 206.7 103.5, 206.7 104.5 Q 206.7 105.6, 206.2 106.2 Q 205.7 106.7, 204.8 106.7 Q 203.8 106.7, 203.3 106.2 Q 202.8 105.6, 202.8 104.5 M 204.8 106.3 Q 205.4 106.3, 205.8 105.8 Q 206.1 105.4, 206.1 104.5 Q 206.1 103.7, 205.8 103.3 Q 205.4 102.9, 204.8 102.9 Q 204.1 102.9, 203.8 103.3 Q 203.4 103.7, 203.4 104.5 Q 203.4 105.4, 203.8 105.8 Q 204.1 106.3, 204.8 106.3 " fill="#FF0000"/>
<path class="atom-16" d="M 199.9 129.4 Q 199.9 128.4, 200.4 127.8 Q 200.9 127.3, 201.9 127.3 Q 202.8 127.3, 203.3 127.8 Q 203.8 128.4, 203.8 129.4 Q 203.8 130.5, 203.3 131.1 Q 202.8 131.6, 201.9 131.6 Q 200.9 131.6, 200.4 131.1 Q 199.9 130.5, 199.9 129.4 M 201.9 131.2 Q 202.5 131.2, 202.9 130.7 Q 203.2 130.3, 203.2 129.4 Q 203.2 128.6, 202.9 128.2 Q 202.5 127.8, 201.9 127.8 Q 201.2 127.8, 200.9 128.2 Q 200.5 128.6, 200.5 129.4 Q 200.5 130.3, 200.9 130.7 Q 201.2 131.2, 201.9 131.2 " fill="#FF0000"/>
<path class="atom-16" d="M 204.5 127.3 L 205.1 127.3 L 205.1 129.1 L 207.2 129.1 L 207.2 127.3 L 207.8 127.3 L 207.8 131.6 L 207.2 131.6 L 207.2 129.6 L 205.1 129.6 L 205.1 131.6 L 204.5 131.6 L 204.5 127.3 " fill="#FF0000"/>
<path class="atom-17" d="M 213.8 118.4 Q 213.8 117.4, 214.3 116.8 Q 214.8 116.3, 215.8 116.3 Q 216.7 116.3, 217.2 116.8 Q 217.7 117.4, 217.7 118.4 Q 217.7 119.5, 217.2 120.1 Q 216.7 120.6, 215.8 120.6 Q 214.8 120.6, 214.3 120.1 Q 213.8 119.5, 213.8 118.4 M 215.8 120.2 Q 216.4 120.2, 216.8 119.7 Q 217.1 119.3, 217.1 118.4 Q 217.1 117.6, 216.8 117.2 Q 216.4 116.8, 215.8 116.8 Q 215.1 116.8, 214.8 117.2 Q 214.4 117.6, 214.4 118.4 Q 214.4 119.3, 214.8 119.7 Q 215.1 120.2, 215.8 120.2 " fill="#FF0000"/>
<path class="atom-23" d="M 248.7 144.3 Q 248.7 143.3, 249.2 142.8 Q 249.7 142.2, 250.6 142.2 Q 251.6 142.2, 252.1 142.8 Q 252.6 143.3, 252.6 144.3 Q 252.6 145.4, 252.1 146.0 Q 251.6 146.5, 250.6 146.5 Q 249.7 146.5, 249.2 146.0 Q 248.7 145.4, 248.7 144.3 M 250.6 146.1 Q 251.3 146.1, 251.6 145.6 Q 252.0 145.2, 252.0 144.3 Q 252.0 143.5, 251.6 143.1 Q 251.3 142.7, 250.6 142.7 Q 250.0 142.7, 249.6 143.1 Q 249.3 143.5, 249.3 144.3 Q 249.3 145.2, 249.6 145.6 Q 250.0 146.1, 250.6 146.1 " fill="#FF0000"/>
<path class="atom-23" d="M 253.2 142.2 L 253.8 142.2 L 253.8 144.0 L 256.0 144.0 L 256.0 142.2 L 256.6 142.2 L 256.6 146.5 L 256.0 146.5 L 256.0 144.5 L 253.8 144.5 L 253.8 146.5 L 253.2 146.5 L 253.2 142.2 " fill="#FF0000"/>
<path class="atom-25" d="M 246.2 111.3 Q 246.2 110.3, 246.7 109.7 Q 247.2 109.1, 248.2 109.1 Q 249.1 109.1, 249.6 109.7 Q 250.1 110.3, 250.1 111.3 Q 250.1 112.3, 249.6 112.9 Q 249.1 113.5, 248.2 113.5 Q 247.2 113.5, 246.7 112.9 Q 246.2 112.3, 246.2 111.3 M 248.2 113.0 Q 248.8 113.0, 249.2 112.6 Q 249.5 112.1, 249.5 111.3 Q 249.5 110.4, 249.2 110.0 Q 248.8 109.6, 248.2 109.6 Q 247.5 109.6, 247.2 110.0 Q 246.8 110.4, 246.8 111.3 Q 246.8 112.1, 247.2 112.6 Q 247.5 113.0, 248.2 113.0 " fill="#FF0000"/>
<path class="atom-26" d="M 264.6 122.1 L 266.0 124.3 Q 266.2 124.6, 266.4 125.0 Q 266.6 125.4, 266.6 125.4 L 266.6 122.1 L 267.2 122.1 L 267.2 126.3 L 266.6 126.3 L 265.1 123.9 Q 264.9 123.6, 264.8 123.3 Q 264.6 122.9, 264.5 122.8 L 264.5 126.3 L 264.0 126.3 L 264.0 122.1 L 264.6 122.1 " fill="#0000FF"/>
<path class="atom-26" d="M 268.0 122.1 L 268.6 122.1 L 268.6 123.9 L 270.8 123.9 L 270.8 122.1 L 271.3 122.1 L 271.3 126.3 L 270.8 126.3 L 270.8 124.4 L 268.6 124.4 L 268.6 126.3 L 268.0 126.3 L 268.0 122.1 " fill="#0000FF"/>
<path class="atom-30" d="M 290.0 99.0 Q 290.0 98.0, 290.5 97.4 Q 291.0 96.8, 291.9 96.8 Q 292.9 96.8, 293.4 97.4 Q 293.9 98.0, 293.9 99.0 Q 293.9 100.0, 293.4 100.6 Q 292.8 101.2, 291.9 101.2 Q 291.0 101.2, 290.5 100.6 Q 290.0 100.0, 290.0 99.0 M 291.9 100.7 Q 292.6 100.7, 292.9 100.3 Q 293.3 99.8, 293.3 99.0 Q 293.3 98.2, 292.9 97.7 Q 292.6 97.3, 291.9 97.3 Q 291.3 97.3, 290.9 97.7 Q 290.6 98.1, 290.6 99.0 Q 290.6 99.8, 290.9 100.3 Q 291.3 100.7, 291.9 100.7 " fill="#FF0000"/>
<path class="atom-31" d="M 304.5 104.9 L 305.9 107.1 Q 306.0 107.3, 306.3 107.7 Q 306.5 108.1, 306.5 108.2 L 306.5 104.9 L 307.1 104.9 L 307.1 109.1 L 306.5 109.1 L 305.0 106.7 Q 304.8 106.4, 304.6 106.0 Q 304.4 105.7, 304.4 105.6 L 304.4 109.1 L 303.8 109.1 L 303.8 104.9 L 304.5 104.9 " fill="#0000FF"/>
<path class="atom-31" d="M 307.9 104.9 L 308.5 104.9 L 308.5 106.7 L 310.6 106.7 L 310.6 104.9 L 311.2 104.9 L 311.2 109.1 L 310.6 109.1 L 310.6 107.2 L 308.5 107.2 L 308.5 109.1 L 307.9 109.1 L 307.9 104.9 " fill="#0000FF"/>
<path class="atom-34" d="M 331.7 89.8 Q 331.7 89.8, 331.9 89.9 Q 332.1 90.0, 332.3 90.0 Q 332.5 90.1, 332.8 90.1 Q 333.2 90.1, 333.4 89.9 Q 333.6 89.7, 333.6 89.3 Q 333.6 89.1, 333.5 89.0 Q 333.4 88.8, 333.2 88.7 Q 333.0 88.7, 332.7 88.6 Q 332.4 88.5, 332.1 88.3 Q 331.9 88.2, 331.7 88.0 Q 331.6 87.8, 331.6 87.4 Q 331.6 86.9, 332.0 86.5 Q 332.3 86.2, 333.0 86.2 Q 333.5 86.2, 334.1 86.4 L 333.9 86.9 Q 333.4 86.7, 333.1 86.7 Q 332.6 86.7, 332.4 86.9 Q 332.2 87.0, 332.2 87.3 Q 332.2 87.6, 332.3 87.7 Q 332.4 87.8, 332.6 87.9 Q 332.8 88.0, 333.1 88.1 Q 333.4 88.2, 333.7 88.3 Q 333.9 88.4, 334.1 88.7 Q 334.2 88.9, 334.2 89.3 Q 334.2 89.9, 333.8 90.2 Q 333.4 90.6, 332.8 90.6 Q 332.4 90.6, 332.1 90.5 Q 331.8 90.4, 331.5 90.3 L 331.7 89.8 " fill="#CCCC00"/>
<path class="atom-37" d="M 348.3 101.3 Q 348.3 100.3, 348.8 99.7 Q 349.3 99.1, 350.3 99.1 Q 351.2 99.1, 351.7 99.7 Q 352.2 100.3, 352.2 101.3 Q 352.2 102.3, 351.7 102.9 Q 351.2 103.5, 350.3 103.5 Q 349.3 103.5, 348.8 102.9 Q 348.3 102.3, 348.3 101.3 M 350.3 103.0 Q 350.9 103.0, 351.3 102.6 Q 351.6 102.1, 351.6 101.3 Q 351.6 100.5, 351.3 100.0 Q 350.9 99.6, 350.3 99.6 Q 349.6 99.6, 349.3 100.0 Q 348.9 100.5, 348.9 101.3 Q 348.9 102.2, 349.3 102.6 Q 349.6 103.0, 350.3 103.0 " fill="#FF0000"/>
<path class="atom-38" d="M 144.8 135.8 Q 144.8 134.8, 145.3 134.2 Q 145.8 133.6, 146.8 133.6 Q 147.7 133.6, 148.2 134.2 Q 148.7 134.8, 148.7 135.8 Q 148.7 136.8, 148.2 137.4 Q 147.7 138.0, 146.8 138.0 Q 145.8 138.0, 145.3 137.4 Q 144.8 136.8, 144.8 135.8 M 146.8 137.5 Q 147.4 137.5, 147.8 137.1 Q 148.1 136.6, 148.1 135.8 Q 148.1 134.9, 147.8 134.5 Q 147.4 134.1, 146.8 134.1 Q 146.1 134.1, 145.8 134.5 Q 145.4 134.9, 145.4 135.8 Q 145.4 136.6, 145.8 137.1 Q 146.1 137.5, 146.8 137.5 " fill="#FF0000"/>
<path class="atom-40" d="M 123.5 134.6 L 124.9 136.8 Q 125.0 137.0, 125.3 137.4 Q 125.5 137.8, 125.5 137.9 L 125.5 134.6 L 126.1 134.6 L 126.1 138.8 L 125.5 138.8 L 124.0 136.3 Q 123.8 136.1, 123.6 135.7 Q 123.4 135.4, 123.4 135.3 L 123.4 138.8 L 122.8 138.8 L 122.8 134.6 L 123.5 134.6 " fill="#0000FF"/>
<path class="atom-42" d="M 103.4 132.2 L 104.8 134.5 Q 104.9 134.7, 105.1 135.1 Q 105.3 135.5, 105.3 135.5 L 105.3 132.2 L 105.9 132.2 L 105.9 136.5 L 105.3 136.5 L 103.8 134.0 Q 103.7 133.7, 103.5 133.4 Q 103.3 133.1, 103.2 133.0 L 103.2 136.5 L 102.7 136.5 L 102.7 132.2 L 103.4 132.2 " fill="#0000FF"/>
<path class="atom-45" d="M 83.9 107.9 L 84.5 107.9 L 84.5 109.7 L 86.7 109.7 L 86.7 107.9 L 87.2 107.9 L 87.2 112.1 L 86.7 112.1 L 86.7 110.2 L 84.5 110.2 L 84.5 112.1 L 83.9 112.1 L 83.9 107.9 " fill="#0000FF"/>
<path class="atom-45" d="M 88.1 112.0 Q 88.2 111.7, 88.4 111.6 Q 88.7 111.4, 89.0 111.4 Q 89.4 111.4, 89.7 111.6 Q 89.9 111.9, 89.9 112.3 Q 89.9 112.7, 89.6 113.1 Q 89.3 113.5, 88.6 113.9 L 89.9 113.9 L 89.9 114.2 L 88.1 114.2 L 88.1 114.0 Q 88.6 113.6, 88.9 113.3 Q 89.2 113.0, 89.3 112.8 Q 89.5 112.5, 89.5 112.3 Q 89.5 112.0, 89.4 111.9 Q 89.2 111.7, 89.0 111.7 Q 88.8 111.7, 88.6 111.8 Q 88.5 111.9, 88.4 112.1 L 88.1 112.0 " fill="#0000FF"/>
<path class="atom-45" d="M 91.2 107.9 L 92.6 110.1 Q 92.7 110.3, 92.9 110.7 Q 93.1 111.1, 93.2 111.2 L 93.2 107.9 L 93.7 107.9 L 93.7 112.1 L 93.1 112.1 L 91.6 109.7 Q 91.5 109.4, 91.3 109.0 Q 91.1 108.7, 91.0 108.6 L 91.0 112.1 L 90.5 112.1 L 90.5 107.9 L 91.2 107.9 " fill="#0000FF"/>
<path class="atom-46" d="M 111.1 99.3 L 112.5 101.5 Q 112.6 101.7, 112.8 102.1 Q 113.1 102.5, 113.1 102.6 L 113.1 99.3 L 113.6 99.3 L 113.6 103.5 L 113.1 103.5 L 111.6 101.0 Q 111.4 100.8, 111.2 100.4 Q 111.0 100.1, 111.0 100.0 L 111.0 103.5 L 110.4 103.5 L 110.4 99.3 L 111.1 99.3 " fill="#0000FF"/>
<path class="atom-49" d="M 140.1 100.3 Q 140.1 99.2, 140.6 98.7 Q 141.1 98.1, 142.0 98.1 Q 143.0 98.1, 143.5 98.7 Q 144.0 99.2, 144.0 100.3 Q 144.0 101.3, 143.5 101.9 Q 143.0 102.5, 142.0 102.5 Q 141.1 102.5, 140.6 101.9 Q 140.1 101.3, 140.1 100.3 M 142.0 102.0 Q 142.7 102.0, 143.0 101.6 Q 143.4 101.1, 143.4 100.3 Q 143.4 99.4, 143.0 99.0 Q 142.7 98.6, 142.0 98.6 Q 141.4 98.6, 141.0 99.0 Q 140.7 99.4, 140.7 100.3 Q 140.7 101.1, 141.0 101.6 Q 141.4 102.0, 142.0 102.0 " fill="#FF0000"/>
<path class="atom-49" d="M 144.6 98.1 L 145.2 98.1 L 145.2 100.0 L 147.4 100.0 L 147.4 98.1 L 148.0 98.1 L 148.0 102.4 L 147.4 102.4 L 147.4 100.4 L 145.2 100.4 L 145.2 102.4 L 144.6 102.4 L 144.6 98.1 " fill="#FF0000"/>
<path class="atom-50" d="M 114.3 85.8 L 114.8 85.8 L 114.8 87.7 L 117.0 87.7 L 117.0 85.8 L 117.6 85.8 L 117.6 90.1 L 117.0 90.1 L 117.0 88.1 L 114.8 88.1 L 114.8 90.1 L 114.3 90.1 L 114.3 85.8 " fill="#FF0000"/>
<path class="atom-50" d="M 118.4 88.0 Q 118.4 86.9, 119.0 86.4 Q 119.5 85.8, 120.4 85.8 Q 121.3 85.8, 121.8 86.4 Q 122.3 86.9, 122.3 88.0 Q 122.3 89.0, 121.8 89.6 Q 121.3 90.2, 120.4 90.2 Q 119.5 90.2, 119.0 89.6 Q 118.4 89.0, 118.4 88.0 M 120.4 89.7 Q 121.0 89.7, 121.4 89.2 Q 121.7 88.8, 121.7 88.0 Q 121.7 87.1, 121.4 86.7 Q 121.0 86.3, 120.4 86.3 Q 119.7 86.3, 119.4 86.7 Q 119.0 87.1, 119.0 88.0 Q 119.0 88.8, 119.4 89.2 Q 119.7 89.7, 120.4 89.7 " fill="#FF0000"/>
<path class="atom-53" d="M 158.7 87.5 Q 158.7 86.5, 159.2 85.9 Q 159.7 85.3, 160.6 85.3 Q 161.6 85.3, 162.1 85.9 Q 162.6 86.5, 162.6 87.5 Q 162.6 88.5, 162.1 89.1 Q 161.6 89.7, 160.6 89.7 Q 159.7 89.7, 159.2 89.1 Q 158.7 88.5, 158.7 87.5 M 160.6 89.2 Q 161.3 89.2, 161.6 88.8 Q 162.0 88.3, 162.0 87.5 Q 162.0 86.6, 161.6 86.2 Q 161.3 85.8, 160.6 85.8 Q 160.0 85.8, 159.6 86.2 Q 159.3 86.6, 159.3 87.5 Q 159.3 88.3, 159.6 88.8 Q 160.0 89.2, 160.6 89.2 " fill="#FF0000"/>
<path class="atom-54" d="M 169.8 93.8 Q 170.5 93.8, 170.8 94.2 Q 171.2 94.5, 171.2 95.1 Q 171.2 95.7, 170.8 96.0 Q 170.5 96.3, 169.8 96.3 L 169.1 96.3 L 169.1 98.1 L 168.5 98.1 L 168.5 93.8 L 169.8 93.8 M 169.8 95.8 Q 170.2 95.8, 170.4 95.6 Q 170.6 95.5, 170.6 95.1 Q 170.6 94.7, 170.4 94.5 Q 170.2 94.3, 169.8 94.3 L 169.1 94.3 L 169.1 95.8 L 169.8 95.8 " fill="#FF7F00"/>
<path class="atom-55" d="M 159.4 105.2 Q 159.4 104.2, 159.9 103.6 Q 160.4 103.0, 161.4 103.0 Q 162.3 103.0, 162.8 103.6 Q 163.3 104.2, 163.3 105.2 Q 163.3 106.2, 162.8 106.8 Q 162.3 107.4, 161.4 107.4 Q 160.4 107.4, 159.9 106.8 Q 159.4 106.2, 159.4 105.2 M 161.4 106.9 Q 162.0 106.9, 162.4 106.5 Q 162.7 106.0, 162.7 105.2 Q 162.7 104.3, 162.4 103.9 Q 162.0 103.5, 161.4 103.5 Q 160.7 103.5, 160.4 103.9 Q 160.0 104.3, 160.0 105.2 Q 160.0 106.0, 160.4 106.5 Q 160.7 106.9, 161.4 106.9 " fill="#FF0000"/>
<path class="atom-56" d="M 176.4 86.7 Q 176.4 85.7, 176.9 85.1 Q 177.4 84.6, 178.3 84.6 Q 179.3 84.6, 179.8 85.1 Q 180.3 85.7, 180.3 86.7 Q 180.3 87.8, 179.8 88.4 Q 179.3 88.9, 178.3 88.9 Q 177.4 88.9, 176.9 88.4 Q 176.4 87.8, 176.4 86.7 M 178.3 88.5 Q 179.0 88.5, 179.3 88.0 Q 179.7 87.6, 179.7 86.7 Q 179.7 85.9, 179.3 85.5 Q 179.0 85.1, 178.3 85.1 Q 177.7 85.1, 177.3 85.5 Q 177.0 85.9, 177.0 86.7 Q 177.0 87.6, 177.3 88.0 Q 177.7 88.5, 178.3 88.5 " fill="#FF0000"/>
<path class="atom-56" d="M 181.0 84.6 L 181.5 84.6 L 181.5 86.4 L 183.7 86.4 L 183.7 84.6 L 184.3 84.6 L 184.3 88.9 L 183.7 88.9 L 183.7 86.9 L 181.5 86.9 L 181.5 88.9 L 181.0 88.9 L 181.0 84.6 " fill="#FF0000"/>
<path class="atom-57" d="M 177.1 104.5 Q 177.1 103.4, 177.6 102.9 Q 178.1 102.3, 179.1 102.3 Q 180.0 102.3, 180.5 102.9 Q 181.0 103.4, 181.0 104.5 Q 181.0 105.5, 180.5 106.1 Q 180.0 106.7, 179.1 106.7 Q 178.1 106.7, 177.6 106.1 Q 177.1 105.5, 177.1 104.5 M 179.1 106.2 Q 179.7 106.2, 180.1 105.7 Q 180.4 105.3, 180.4 104.5 Q 180.4 103.6, 180.1 103.2 Q 179.7 102.8, 179.1 102.8 Q 178.4 102.8, 178.1 103.2 Q 177.7 103.6, 177.7 104.5 Q 177.7 105.3, 178.1 105.7 Q 178.4 106.2, 179.1 106.2 " fill="#FF0000"/>
<path class="atom-58" d="M 190.9 98.6 Q 191.7 98.6, 192.0 98.9 Q 192.4 99.2, 192.4 99.8 Q 192.4 100.4, 192.0 100.7 Q 191.6 101.1, 190.9 101.1 L 190.3 101.1 L 190.3 102.8 L 189.7 102.8 L 189.7 98.6 L 190.9 98.6 M 190.9 100.6 Q 191.4 100.6, 191.6 100.4 Q 191.8 100.2, 191.8 99.8 Q 191.8 99.4, 191.6 99.3 Q 191.4 99.1, 190.9 99.1 L 190.3 99.1 L 190.3 100.6 L 190.9 100.6 " fill="#FF7F00"/>
<path class="atom-59" d="M 195.6 111.4 Q 195.6 110.4, 196.1 109.8 Q 196.6 109.3, 197.6 109.3 Q 198.5 109.3, 199.0 109.8 Q 199.5 110.4, 199.5 111.4 Q 199.5 112.4, 199.0 113.0 Q 198.5 113.6, 197.6 113.6 Q 196.6 113.6, 196.1 113.0 Q 195.6 112.5, 195.6 111.4 M 197.6 113.1 Q 198.2 113.1, 198.6 112.7 Q 198.9 112.3, 198.9 111.4 Q 198.9 110.6, 198.6 110.2 Q 198.2 109.7, 197.6 109.7 Q 196.9 109.7, 196.6 110.2 Q 196.2 110.6, 196.2 111.4 Q 196.2 112.3, 196.6 112.7 Q 196.9 113.1, 197.6 113.1 " fill="#FF0000"/>
<path class="atom-60" d="M 185.3 88.7 Q 185.3 87.7, 185.9 87.2 Q 186.4 86.6, 187.3 86.6 Q 188.2 86.6, 188.7 87.2 Q 189.2 87.7, 189.2 88.7 Q 189.2 89.8, 188.7 90.4 Q 188.2 90.9, 187.3 90.9 Q 186.4 90.9, 185.9 90.4 Q 185.3 89.8, 185.3 88.7 M 187.3 90.5 Q 187.9 90.5, 188.3 90.0 Q 188.6 89.6, 188.6 88.7 Q 188.6 87.9, 188.3 87.5 Q 187.9 87.1, 187.3 87.1 Q 186.7 87.1, 186.3 87.5 Q 185.9 87.9, 185.9 88.7 Q 185.9 89.6, 186.3 90.0 Q 186.7 90.5, 187.3 90.5 " fill="#FF0000"/>
<path class="atom-60" d="M 189.9 86.6 L 190.5 86.6 L 190.5 88.4 L 192.7 88.4 L 192.7 86.6 L 193.2 86.6 L 193.2 90.9 L 192.7 90.9 L 192.7 88.9 L 190.5 88.9 L 190.5 90.9 L 189.9 90.9 L 189.9 86.6 " fill="#FF0000"/>
<path class="atom-61" d="M 201.1 97.0 Q 201.1 95.9, 201.6 95.4 Q 202.1 94.8, 203.0 94.8 Q 203.9 94.8, 204.5 95.4 Q 205.0 95.9, 205.0 97.0 Q 205.0 98.0, 204.4 98.6 Q 203.9 99.2, 203.0 99.2 Q 202.1 99.2, 201.6 98.6 Q 201.1 98.0, 201.1 97.0 M 203.0 98.7 Q 203.7 98.7, 204.0 98.3 Q 204.4 97.8, 204.4 97.0 Q 204.4 96.1, 204.0 95.7 Q 203.7 95.3, 203.0 95.3 Q 202.4 95.3, 202.0 95.7 Q 201.7 96.1, 201.7 97.0 Q 201.7 97.8, 202.0 98.3 Q 202.4 98.7, 203.0 98.7 " fill="#FF0000"/>
<path class="atom-67" d="M 230.5 65.0 Q 230.5 64.0, 231.0 63.4 Q 231.5 62.9, 232.4 62.9 Q 233.4 62.9, 233.9 63.4 Q 234.4 64.0, 234.4 65.0 Q 234.4 66.1, 233.9 66.6 Q 233.3 67.2, 232.4 67.2 Q 231.5 67.2, 231.0 66.6 Q 230.5 66.1, 230.5 65.0 M 232.4 66.7 Q 233.1 66.7, 233.4 66.3 Q 233.8 65.9, 233.8 65.0 Q 233.8 64.2, 233.4 63.8 Q 233.1 63.3, 232.4 63.3 Q 231.8 63.3, 231.4 63.8 Q 231.1 64.2, 231.1 65.0 Q 231.1 65.9, 231.4 66.3 Q 231.8 66.7, 232.4 66.7 " fill="#FF0000"/>
<path class="atom-67" d="M 235.0 62.9 L 235.6 62.9 L 235.6 64.7 L 237.8 64.7 L 237.8 62.9 L 238.4 62.9 L 238.4 67.2 L 237.8 67.2 L 237.8 65.2 L 235.6 65.2 L 235.6 67.2 L 235.0 67.2 L 235.0 62.9 " fill="#FF0000"/>
<path class="atom-69" d="M 234.2 98.0 Q 234.2 97.0, 234.7 96.4 Q 235.2 95.8, 236.2 95.8 Q 237.1 95.8, 237.6 96.4 Q 238.1 97.0, 238.1 98.0 Q 238.1 99.0, 237.6 99.6 Q 237.1 100.2, 236.2 100.2 Q 235.2 100.2, 234.7 99.6 Q 234.2 99.0, 234.2 98.0 M 236.2 99.7 Q 236.8 99.7, 237.2 99.3 Q 237.5 98.8, 237.5 98.0 Q 237.5 97.1, 237.2 96.7 Q 236.8 96.3, 236.2 96.3 Q 235.5 96.3, 235.2 96.7 Q 234.8 97.1, 234.8 98.0 Q 234.8 98.8, 235.2 99.3 Q 235.5 99.7, 236.2 99.7 " fill="#FF0000"/>
<path class="atom-70" d="M 249.9 79.9 L 251.3 82.1 Q 251.5 82.3, 251.7 82.7 Q 251.9 83.1, 251.9 83.2 L 251.9 79.9 L 252.5 79.9 L 252.5 84.1 L 251.9 84.1 L 250.4 81.7 Q 250.2 81.4, 250.0 81.0 Q 249.9 80.7, 249.8 80.6 L 249.8 84.1 L 249.3 84.1 L 249.3 79.9 L 249.9 79.9 " fill="#0000FF"/>
<path class="atom-70" d="M 249.2 75.2 L 249.8 75.2 L 249.8 77.0 L 251.9 77.0 L 251.9 75.2 L 252.5 75.2 L 252.5 79.4 L 251.9 79.4 L 251.9 77.5 L 249.8 77.5 L 249.8 79.4 L 249.2 79.4 L 249.2 75.2 " fill="#0000FF"/>
<path class="atom-74" d="M 276.6 107.5 Q 276.6 106.5, 277.1 105.9 Q 277.6 105.3, 278.5 105.3 Q 279.5 105.3, 280.0 105.9 Q 280.5 106.5, 280.5 107.5 Q 280.5 108.5, 280.0 109.1 Q 279.5 109.7, 278.5 109.7 Q 277.6 109.7, 277.1 109.1 Q 276.6 108.5, 276.6 107.5 M 278.5 109.2 Q 279.2 109.2, 279.5 108.8 Q 279.9 108.3, 279.9 107.5 Q 279.9 106.6, 279.5 106.2 Q 279.2 105.8, 278.5 105.8 Q 277.9 105.8, 277.5 106.2 Q 277.2 106.6, 277.2 107.5 Q 277.2 108.3, 277.5 108.8 Q 277.9 109.2, 278.5 109.2 " fill="#FF0000"/>
<path class="atom-75" d="M 292.3 89.4 L 293.7 91.6 Q 293.8 91.8, 294.0 92.2 Q 294.3 92.6, 294.3 92.7 L 294.3 89.4 L 294.8 89.4 L 294.8 93.6 L 294.3 93.6 L 292.8 91.2 Q 292.6 90.9, 292.4 90.5 Q 292.2 90.2, 292.2 90.1 L 292.2 93.6 L 291.6 93.6 L 291.6 89.4 L 292.3 89.4 " fill="#0000FF"/>
<path class="atom-75" d="M 291.6 84.7 L 292.1 84.7 L 292.1 86.5 L 294.3 86.5 L 294.3 84.7 L 294.9 84.7 L 294.9 88.9 L 294.3 88.9 L 294.3 87.0 L 292.1 87.0 L 292.1 88.9 L 291.6 88.9 L 291.6 84.7 " fill="#0000FF"/>
<path class="atom-78" d="M 322.4 106.2 Q 322.5 106.2, 322.7 106.3 Q 322.9 106.4, 323.1 106.4 Q 323.3 106.5, 323.5 106.5 Q 323.9 106.5, 324.2 106.3 Q 324.4 106.1, 324.4 105.7 Q 324.4 105.5, 324.3 105.4 Q 324.2 105.2, 324.0 105.1 Q 323.8 105.1, 323.5 105.0 Q 323.1 104.9, 322.9 104.8 Q 322.7 104.6, 322.5 104.4 Q 322.4 104.2, 322.4 103.8 Q 322.4 103.3, 322.7 102.9 Q 323.1 102.6, 323.8 102.6 Q 324.3 102.6, 324.9 102.8 L 324.7 103.3 Q 324.2 103.1, 323.8 103.1 Q 323.4 103.1, 323.2 103.3 Q 323.0 103.4, 323.0 103.7 Q 323.0 104.0, 323.1 104.1 Q 323.2 104.2, 323.4 104.3 Q 323.5 104.4, 323.8 104.5 Q 324.2 104.6, 324.4 104.7 Q 324.7 104.8, 324.8 105.1 Q 325.0 105.3, 325.0 105.7 Q 325.0 106.3, 324.6 106.7 Q 324.2 107.0, 323.6 107.0 Q 323.2 107.0, 322.9 106.9 Q 322.6 106.8, 322.3 106.7 L 322.4 106.2 " fill="#CCCC00"/>
<path class="atom-81" d="M 339.3 89.8 Q 339.3 88.8, 339.8 88.2 Q 340.3 87.6, 341.2 87.6 Q 342.2 87.6, 342.7 88.2 Q 343.2 88.8, 343.2 89.8 Q 343.2 90.8, 342.7 91.4 Q 342.2 92.0, 341.2 92.0 Q 340.3 92.0, 339.8 91.4 Q 339.3 90.8, 339.3 89.8 M 341.2 91.5 Q 341.9 91.5, 342.2 91.1 Q 342.6 90.7, 342.6 89.8 Q 342.6 89.0, 342.2 88.5 Q 341.9 88.1, 341.2 88.1 Q 340.6 88.1, 340.2 88.5 Q 339.9 89.0, 339.9 89.8 Q 339.9 90.7, 340.2 91.1 Q 340.6 91.5, 341.2 91.5 " fill="#FF0000"/>
<path class="atom-82" d="M 146.9 74.4 Q 146.9 73.4, 147.4 72.8 Q 147.9 72.3, 148.9 72.3 Q 149.8 72.3, 150.3 72.8 Q 150.8 73.4, 150.8 74.4 Q 150.8 75.5, 150.3 76.1 Q 149.8 76.6, 148.9 76.6 Q 147.9 76.6, 147.4 76.1 Q 146.9 75.5, 146.9 74.4 M 148.9 76.2 Q 149.5 76.2, 149.9 75.7 Q 150.2 75.3, 150.2 74.4 Q 150.2 73.6, 149.9 73.2 Q 149.5 72.8, 148.9 72.8 Q 148.2 72.8, 147.9 73.2 Q 147.5 73.6, 147.5 74.4 Q 147.5 75.3, 147.9 75.7 Q 148.2 76.2, 148.9 76.2 " fill="#FF0000"/>
<path class="atom-84" d="M 149.3 50.0 L 150.7 52.3 Q 150.9 52.5, 151.1 52.9 Q 151.3 53.3, 151.3 53.3 L 151.3 50.0 L 151.9 50.0 L 151.9 54.3 L 151.3 54.3 L 149.8 51.8 Q 149.6 51.5, 149.4 51.2 Q 149.3 50.8, 149.2 50.7 L 149.2 54.3 L 148.7 54.3 L 148.7 50.0 L 149.3 50.0 " fill="#0000FF"/>
<path class="atom-86" d="M 164.6 36.6 L 165.9 38.9 Q 166.1 39.1, 166.3 39.5 Q 166.5 39.9, 166.5 39.9 L 166.5 36.6 L 167.1 36.6 L 167.1 40.9 L 166.5 40.9 L 165.0 38.4 Q 164.9 38.1, 164.7 37.8 Q 164.5 37.4, 164.4 37.3 L 164.4 40.9 L 163.9 40.9 L 163.9 36.6 L 164.6 36.6 " fill="#0000FF"/>
<path class="atom-89" d="M 160.7 9.6 L 162.1 11.9 Q 162.2 12.1, 162.5 12.5 Q 162.7 12.9, 162.7 12.9 L 162.7 9.6 L 163.3 9.6 L 163.3 13.9 L 162.7 13.9 L 161.2 11.4 Q 161.0 11.1, 160.8 10.8 Q 160.6 10.5, 160.6 10.4 L 160.6 13.9 L 160.0 13.9 L 160.0 9.6 L 160.7 9.6 " fill="#0000FF"/>
<path class="atom-89" d="M 164.1 9.6 L 164.6 9.6 L 164.6 11.4 L 166.8 11.4 L 166.8 9.6 L 167.4 9.6 L 167.4 13.9 L 166.8 13.9 L 166.8 11.9 L 164.6 11.9 L 164.6 13.9 L 164.1 13.9 L 164.1 9.6 " fill="#0000FF"/>
<path class="atom-89" d="M 168.2 13.7 Q 168.3 13.5, 168.6 13.3 Q 168.8 13.2, 169.2 13.2 Q 169.6 13.2, 169.8 13.4 Q 170.1 13.6, 170.1 14.0 Q 170.1 14.5, 169.7 14.9 Q 169.4 15.2, 168.8 15.7 L 170.1 15.7 L 170.1 16.0 L 168.2 16.0 L 168.2 15.8 Q 168.7 15.4, 169.0 15.1 Q 169.4 14.8, 169.5 14.6 Q 169.7 14.3, 169.7 14.1 Q 169.7 13.8, 169.5 13.6 Q 169.4 13.5, 169.2 13.5 Q 168.9 13.5, 168.8 13.6 Q 168.6 13.7, 168.5 13.9 L 168.2 13.7 " fill="#0000FF"/>
<path class="atom-90" d="M 139.4 13.9 L 140.8 16.2 Q 141.0 16.4, 141.2 16.8 Q 141.4 17.2, 141.4 17.2 L 141.4 13.9 L 142.0 13.9 L 142.0 18.2 L 141.4 18.2 L 139.9 15.7 Q 139.7 15.4, 139.5 15.1 Q 139.4 14.8, 139.3 14.7 L 139.3 18.2 L 138.7 18.2 L 138.7 13.9 L 139.4 13.9 " fill="#0000FF"/>
<path class="atom-92" d="M 132.5 34.5 L 133.9 36.7 Q 134.0 37.0, 134.2 37.4 Q 134.5 37.8, 134.5 37.8 L 134.5 34.5 L 135.0 34.5 L 135.0 38.7 L 134.5 38.7 L 133.0 36.3 Q 132.8 36.0, 132.6 35.7 Q 132.4 35.3, 132.4 35.2 L 132.4 38.7 L 131.8 38.7 L 131.8 34.5 L 132.5 34.5 " fill="#0000FF"/>
<path class="atom-95" d="M 117.0 52.6 L 117.6 52.6 L 117.6 54.4 L 119.7 54.4 L 119.7 52.6 L 120.3 52.6 L 120.3 56.8 L 119.7 56.8 L 119.7 54.9 L 117.6 54.9 L 117.6 56.8 L 117.0 56.8 L 117.0 52.6 " fill="#FF0000"/>
<path class="atom-95" d="M 121.2 54.7 Q 121.2 53.7, 121.7 53.1 Q 122.2 52.5, 123.1 52.5 Q 124.1 52.5, 124.6 53.1 Q 125.1 53.7, 125.1 54.7 Q 125.1 55.7, 124.6 56.3 Q 124.0 56.9, 123.1 56.9 Q 122.2 56.9, 121.7 56.3 Q 121.2 55.7, 121.2 54.7 M 123.1 56.4 Q 123.8 56.4, 124.1 56.0 Q 124.5 55.5, 124.5 54.7 Q 124.5 53.9, 124.1 53.4 Q 123.8 53.0, 123.1 53.0 Q 122.5 53.0, 122.1 53.4 Q 121.8 53.9, 121.8 54.7 Q 121.8 55.6, 122.1 56.0 Q 122.5 56.4, 123.1 56.4 " fill="#FF0000"/>
<path class="atom-97" d="M 115.2 81.3 Q 115.2 80.3, 115.7 79.7 Q 116.2 79.1, 117.2 79.1 Q 118.1 79.1, 118.6 79.7 Q 119.1 80.3, 119.1 81.3 Q 119.1 82.3, 118.6 82.9 Q 118.1 83.5, 117.2 83.5 Q 116.2 83.5, 115.7 82.9 Q 115.2 82.3, 115.2 81.3 M 117.2 83.0 Q 117.8 83.0, 118.2 82.6 Q 118.5 82.2, 118.5 81.3 Q 118.5 80.5, 118.2 80.1 Q 117.8 79.6, 117.2 79.6 Q 116.5 79.6, 116.2 80.0 Q 115.8 80.5, 115.8 81.3 Q 115.8 82.2, 116.2 82.6 Q 116.5 83.0, 117.2 83.0 " fill="#FF0000"/>
<path class="atom-98" d="M 107.0 71.7 Q 107.7 71.7, 108.1 72.0 Q 108.5 72.3, 108.5 72.9 Q 108.5 73.5, 108.1 73.9 Q 107.7 74.2, 107.0 74.2 L 106.3 74.2 L 106.3 75.9 L 105.7 75.9 L 105.7 71.7 L 107.0 71.7 M 107.0 73.7 Q 107.4 73.7, 107.6 73.5 Q 107.9 73.3, 107.9 72.9 Q 107.9 72.6, 107.6 72.4 Q 107.4 72.2, 107.0 72.2 L 106.3 72.2 L 106.3 73.7 L 107.0 73.7 " fill="#FF7F00"/>
<path class="atom-99" d="M 97.7 83.9 Q 97.7 82.9, 98.2 82.3 Q 98.7 81.7, 99.6 81.7 Q 100.6 81.7, 101.1 82.3 Q 101.6 82.9, 101.6 83.9 Q 101.6 84.9, 101.1 85.5 Q 100.5 86.1, 99.6 86.1 Q 98.7 86.1, 98.2 85.5 Q 97.7 84.9, 97.7 83.9 M 99.6 85.6 Q 100.3 85.6, 100.6 85.2 Q 101.0 84.7, 101.0 83.9 Q 101.0 83.0, 100.6 82.6 Q 100.3 82.2, 99.6 82.2 Q 99.0 82.2, 98.6 82.6 Q 98.3 83.0, 98.3 83.9 Q 98.3 84.7, 98.6 85.2 Q 99.0 85.6, 99.6 85.6 " fill="#FF0000"/>
<path class="atom-100" d="M 112.6 63.8 Q 112.6 62.7, 113.1 62.2 Q 113.6 61.6, 114.6 61.6 Q 115.5 61.6, 116.0 62.2 Q 116.5 62.7, 116.5 63.8 Q 116.5 64.8, 116.0 65.4 Q 115.5 66.0, 114.6 66.0 Q 113.6 66.0, 113.1 65.4 Q 112.6 64.8, 112.6 63.8 M 114.6 65.5 Q 115.2 65.5, 115.6 65.1 Q 115.9 64.6, 115.9 63.8 Q 115.9 62.9, 115.6 62.5 Q 115.2 62.1, 114.6 62.1 Q 113.9 62.1, 113.6 62.5 Q 113.2 62.9, 113.2 63.8 Q 113.2 64.6, 113.6 65.1 Q 113.9 65.5, 114.6 65.5 " fill="#FF0000"/>
<path class="atom-100" d="M 117.2 61.7 L 117.8 61.7 L 117.8 63.5 L 119.9 63.5 L 119.9 61.7 L 120.5 61.7 L 120.5 65.9 L 119.9 65.9 L 119.9 63.9 L 117.8 63.9 L 117.8 65.9 L 117.2 65.9 L 117.2 61.7 " fill="#FF0000"/>
<path class="atom-101" d="M 90.9 64.2 L 91.5 64.2 L 91.5 66.0 L 93.6 66.0 L 93.6 64.2 L 94.2 64.2 L 94.2 68.5 L 93.6 68.5 L 93.6 66.5 L 91.5 66.5 L 91.5 68.5 L 90.9 68.5 L 90.9 64.2 " fill="#FF0000"/>
<path class="atom-101" d="M 95.1 66.3 Q 95.1 65.3, 95.6 64.8 Q 96.1 64.2, 97.0 64.2 Q 98.0 64.2, 98.5 64.8 Q 99.0 65.3, 99.0 66.3 Q 99.0 67.4, 98.5 68.0 Q 98.0 68.5, 97.0 68.5 Q 96.1 68.5, 95.6 68.0 Q 95.1 67.4, 95.1 66.3 M 97.0 68.1 Q 97.7 68.1, 98.0 67.6 Q 98.4 67.2, 98.4 66.3 Q 98.4 65.5, 98.0 65.1 Q 97.7 64.7, 97.0 64.7 Q 96.4 64.7, 96.0 65.1 Q 95.7 65.5, 95.7 66.3 Q 95.7 67.2, 96.0 67.6 Q 96.4 68.1, 97.0 68.1 " fill="#FF0000"/>
<path class="atom-102" d="M 128.5 112.2 L 129.9 114.5 Q 130.0 114.7, 130.3 115.1 Q 130.5 115.5, 130.5 115.5 L 130.5 112.2 L 131.1 112.2 L 131.1 116.5 L 130.5 116.5 L 129.0 114.0 Q 128.8 113.7, 128.6 113.4 Q 128.5 113.1, 128.4 112.9 L 128.4 116.5 L 127.8 116.5 L 127.8 112.2 L 128.5 112.2 " fill="#0000FF"/>
<path class="atom-105" d="M 123.7 161.3 L 124.3 161.3 L 124.3 163.1 L 126.4 163.1 L 126.4 161.3 L 127.0 161.3 L 127.0 165.6 L 126.4 165.6 L 126.4 163.6 L 124.3 163.6 L 124.3 165.6 L 123.7 165.6 L 123.7 161.3 " fill="#FF0000"/>
<path class="atom-105" d="M 127.9 163.4 Q 127.9 162.4, 128.4 161.8 Q 128.9 161.3, 129.8 161.3 Q 130.8 161.3, 131.3 161.8 Q 131.8 162.4, 131.8 163.4 Q 131.8 164.5, 131.3 165.1 Q 130.8 165.6, 129.8 165.6 Q 128.9 165.6, 128.4 165.1 Q 127.9 164.5, 127.9 163.4 M 129.8 165.2 Q 130.5 165.2, 130.8 164.7 Q 131.2 164.3, 131.2 163.4 Q 131.2 162.6, 130.8 162.2 Q 130.5 161.8, 129.8 161.8 Q 129.2 161.8, 128.8 162.2 Q 128.5 162.6, 128.5 163.4 Q 128.5 164.3, 128.8 164.7 Q 129.2 165.2, 129.8 165.2 " fill="#FF0000"/>
<path class="atom-107" d="M 155.0 166.6 Q 155.0 165.6, 155.5 165.0 Q 156.0 164.4, 156.9 164.4 Q 157.9 164.4, 158.4 165.0 Q 158.9 165.6, 158.9 166.6 Q 158.9 167.6, 158.4 168.2 Q 157.8 168.8, 156.9 168.8 Q 156.0 168.8, 155.5 168.2 Q 155.0 167.6, 155.0 166.6 M 156.9 168.3 Q 157.6 168.3, 157.9 167.9 Q 158.3 167.4, 158.3 166.6 Q 158.3 165.7, 157.9 165.3 Q 157.6 164.9, 156.9 164.9 Q 156.3 164.9, 155.9 165.3 Q 155.6 165.7, 155.6 166.6 Q 155.6 167.4, 155.9 167.9 Q 156.3 168.3, 156.9 168.3 " fill="#FF0000"/>
<path class="atom-108" d="M 150.4 175.2 Q 151.1 175.2, 151.5 175.6 Q 151.9 175.9, 151.9 176.5 Q 151.9 177.1, 151.5 177.4 Q 151.1 177.7, 150.4 177.7 L 149.7 177.7 L 149.7 179.5 L 149.2 179.5 L 149.2 175.2 L 150.4 175.2 M 150.4 177.3 Q 150.8 177.3, 151.1 177.1 Q 151.3 176.9, 151.3 176.5 Q 151.3 176.1, 151.1 175.9 Q 150.8 175.7, 150.4 175.7 L 149.7 175.7 L 149.7 177.3 L 150.4 177.3 " fill="#FF7F00"/>
<path class="atom-109" d="M 159.4 183.8 Q 159.4 182.7, 159.9 182.2 Q 160.4 181.6, 161.3 181.6 Q 162.3 181.6, 162.8 182.2 Q 163.3 182.7, 163.3 183.8 Q 163.3 184.8, 162.7 185.4 Q 162.2 186.0, 161.3 186.0 Q 160.4 186.0, 159.9 185.4 Q 159.4 184.8, 159.4 183.8 M 161.3 185.5 Q 162.0 185.5, 162.3 185.0 Q 162.7 184.6, 162.7 183.8 Q 162.7 182.9, 162.3 182.5 Q 162.0 182.1, 161.3 182.1 Q 160.7 182.1, 160.3 182.5 Q 160.0 182.9, 160.0 183.8 Q 160.0 184.6, 160.3 185.0 Q 160.7 185.5, 161.3 185.5 " fill="#FF0000"/>
<path class="atom-110" d="M 133.6 168.9 L 134.2 168.9 L 134.2 170.7 L 136.3 170.7 L 136.3 168.9 L 136.9 168.9 L 136.9 173.1 L 136.3 173.1 L 136.3 171.2 L 134.2 171.2 L 134.2 173.1 L 133.6 173.1 L 133.6 168.9 " fill="#FF0000"/>
<path class="atom-110" d="M 137.8 171.0 Q 137.8 170.0, 138.3 169.4 Q 138.8 168.8, 139.7 168.8 Q 140.7 168.8, 141.2 169.4 Q 141.7 170.0, 141.7 171.0 Q 141.7 172.0, 141.2 172.6 Q 140.7 173.2, 139.7 173.2 Q 138.8 173.2, 138.3 172.6 Q 137.8 172.0, 137.8 171.0 M 139.7 172.7 Q 140.4 172.7, 140.7 172.3 Q 141.1 171.8, 141.1 171.0 Q 141.1 170.1, 140.7 169.7 Q 140.4 169.3, 139.7 169.3 Q 139.1 169.3, 138.7 169.7 Q 138.4 170.1, 138.4 171.0 Q 138.4 171.8, 138.7 172.3 Q 139.1 172.7, 139.7 172.7 " fill="#FF0000"/>
<path class="atom-111" d="M 138.0 186.0 L 138.6 186.0 L 138.6 187.8 L 140.7 187.8 L 140.7 186.0 L 141.3 186.0 L 141.3 190.3 L 140.7 190.3 L 140.7 188.3 L 138.6 188.3 L 138.6 190.3 L 138.0 190.3 L 138.0 186.0 " fill="#FF0000"/>
<path class="atom-111" d="M 142.2 188.2 Q 142.2 187.1, 142.7 186.6 Q 143.2 186.0, 144.1 186.0 Q 145.1 186.0, 145.6 186.6 Q 146.1 187.1, 146.1 188.2 Q 146.1 189.2, 145.6 189.8 Q 145.1 190.4, 144.1 190.4 Q 143.2 190.4, 142.7 189.8 Q 142.2 189.2, 142.2 188.2 M 144.1 189.9 Q 144.8 189.9, 145.1 189.4 Q 145.5 189.0, 145.5 188.2 Q 145.5 187.3, 145.1 186.9 Q 144.8 186.5, 144.1 186.5 Q 143.5 186.5, 143.1 186.9 Q 142.8 187.3, 142.8 188.2 Q 142.8 189.0, 143.1 189.4 Q 143.5 189.9, 144.1 189.9 " fill="#FF0000"/>
<path class="atom-113" d="M 197.3 157.3 Q 197.3 156.3, 197.8 155.7 Q 198.3 155.1, 199.3 155.1 Q 200.2 155.1, 200.7 155.7 Q 201.2 156.3, 201.2 157.3 Q 201.2 158.3, 200.7 158.9 Q 200.2 159.5, 199.3 159.5 Q 198.3 159.5, 197.8 158.9 Q 197.3 158.3, 197.3 157.3 M 199.3 159.0 Q 199.9 159.0, 200.3 158.6 Q 200.6 158.1, 200.6 157.3 Q 200.6 156.4, 200.3 156.0 Q 199.9 155.6, 199.3 155.6 Q 198.6 155.6, 198.3 156.0 Q 197.9 156.4, 197.9 157.3 Q 197.9 158.1, 198.3 158.6 Q 198.6 159.0, 199.3 159.0 " fill="#FF0000"/>
<path class="atom-114" d="M 208.0 176.2 Q 208.0 175.2, 208.5 174.6 Q 209.0 174.0, 209.9 174.0 Q 210.9 174.0, 211.4 174.6 Q 211.9 175.2, 211.9 176.2 Q 211.9 177.2, 211.4 177.8 Q 210.8 178.4, 209.9 178.4 Q 209.0 178.4, 208.5 177.8 Q 208.0 177.2, 208.0 176.2 M 209.9 177.9 Q 210.6 177.9, 210.9 177.5 Q 211.3 177.1, 211.3 176.2 Q 211.3 175.4, 210.9 174.9 Q 210.6 174.5, 209.9 174.5 Q 209.3 174.5, 208.9 174.9 Q 208.6 175.4, 208.6 176.2 Q 208.6 177.1, 208.9 177.5 Q 209.3 177.9, 209.9 177.9 " fill="#FF0000"/>
<path class="atom-114" d="M 212.5 174.1 L 213.1 174.1 L 213.1 175.9 L 215.3 175.9 L 215.3 174.1 L 215.9 174.1 L 215.9 178.3 L 215.3 178.3 L 215.3 176.4 L 213.1 176.4 L 213.1 178.3 L 212.5 178.3 L 212.5 174.1 " fill="#FF0000"/>
<path class="atom-32" d="M 312.1,96.1 L 312.1,97.8 L 313.8,97.8 L 313.8,96.1 L 312.1,96.1" style="fill:none;stroke:#FF0000;stroke-width:2.0px;stroke-linecap:butt;stroke-linejoin:miter;stroke-opacity:1;"/>
</svg>
