<?xml version='1.0' encoding='ASCII' standalone='yes'?>
<svg xmlns="http://www.w3.org/2000/svg" xmlns:rdkit="http://www.rdkit.org/xml" xmlns:xlink="http://www.w3.org/1999/xlink" version="1.1" baseProfile="full" xml:space="preserve" width="265px" height="200px" viewBox="0 0 265 200">
<!-- END OF HEADER -->
<rect style="opacity:1.0;fill:#FFFFFF;stroke:none" width="265.0" height="200.0" x="0.0" y="0.0"> </rect>
<path class="bond-0 atom-0 atom-1" d="M 120.3,37.3 L 132.8,72.1" style="fill:none;fill-rule:evenodd;stroke:#000000;stroke-width:2.0px;stroke-linecap:butt;stroke-linejoin:miter;stroke-opacity:1"/>
<path class="bond-1 atom-1 atom-2" d="M 132.8,72.1 L 145.2,106.9" style="fill:none;fill-rule:evenodd;stroke:#000000;stroke-width:2.0px;stroke-linecap:butt;stroke-linejoin:miter;stroke-opacity:1"/>
<path class="bond-2 atom-2 atom-3" d="M 145.2,106.9 L 181.6,113.5" style="fill:none;fill-rule:evenodd;stroke:#000000;stroke-width:2.0px;stroke-linecap:butt;stroke-linejoin:miter;stroke-opacity:1"/>
<path class="bond-3 atom-3 atom-4" d="M 181.6,113.5 L 194.0,148.3" style="fill:none;fill-rule:evenodd;stroke:#000000;stroke-width:2.0px;stroke-linecap:butt;stroke-linejoin:miter;stroke-opacity:1"/>
<path class="bond-4 atom-4 atom-5" d="M 194.0,148.3 L 209.6,151.2" style="fill:none;fill-rule:evenodd;stroke:#000000;stroke-width:2.0px;stroke-linecap:butt;stroke-linejoin:miter;stroke-opacity:1"/>
<path class="bond-4 atom-4 atom-5" d="M 209.6,151.2 L 225.2,154.0" style="fill:none;fill-rule:evenodd;stroke:#0000FF;stroke-width:2.0px;stroke-linecap:butt;stroke-linejoin:miter;stroke-opacity:1"/>
<path class="bond-5 atom-4 atom-6" d="M 194.0,148.3 L 184.9,159.2" style="fill:none;fill-rule:evenodd;stroke:#000000;stroke-width:2.0px;stroke-linecap:butt;stroke-linejoin:miter;stroke-opacity:1"/>
<path class="bond-5 atom-4 atom-6" d="M 184.9,159.2 L 175.7,170.0" style="fill:none;fill-rule:evenodd;stroke:#FF0000;stroke-width:2.0px;stroke-linecap:butt;stroke-linejoin:miter;stroke-opacity:1"/>
<path class="bond-6 atom-1 atom-7" d="M 132.8,72.1 L 167.6,59.7" style="fill:none;fill-rule:evenodd;stroke:#000000;stroke-width:2.0px;stroke-linecap:butt;stroke-linejoin:miter;stroke-opacity:1"/>
<path class="bond-7 atom-7 atom-8" d="M 170.0,61.7 L 172.9,46.1" style="fill:none;fill-rule:evenodd;stroke:#000000;stroke-width:2.0px;stroke-linecap:butt;stroke-linejoin:miter;stroke-opacity:1"/>
<path class="bond-7 atom-7 atom-8" d="M 172.9,46.1 L 175.7,30.5" style="fill:none;fill-rule:evenodd;stroke:#FF0000;stroke-width:2.0px;stroke-linecap:butt;stroke-linejoin:miter;stroke-opacity:1"/>
<path class="bond-7 atom-7 atom-8" d="M 164.6,60.8 L 167.4,45.1" style="fill:none;fill-rule:evenodd;stroke:#000000;stroke-width:2.0px;stroke-linecap:butt;stroke-linejoin:miter;stroke-opacity:1"/>
<path class="bond-7 atom-7 atom-8" d="M 167.4,45.1 L 170.3,29.5" style="fill:none;fill-rule:evenodd;stroke:#FF0000;stroke-width:2.0px;stroke-linecap:butt;stroke-linejoin:miter;stroke-opacity:1"/>
<path class="bond-8 atom-7 atom-9" d="M 167.6,59.7 L 178.7,69.1" style="fill:none;fill-rule:evenodd;stroke:#000000;stroke-width:2.0px;stroke-linecap:butt;stroke-linejoin:miter;stroke-opacity:1"/>
<path class="bond-8 atom-7 atom-9" d="M 178.7,69.1 L 189.7,78.5" style="fill:none;fill-rule:evenodd;stroke:#FF0000;stroke-width:2.0px;stroke-linecap:butt;stroke-linejoin:miter;stroke-opacity:1"/>
<path class="bond-9 atom-1 atom-10" d="M 132.8,72.1 L 98.0,84.6" style="fill:none;fill-rule:evenodd;stroke:#000000;stroke-width:2.0px;stroke-linecap:butt;stroke-linejoin:miter;stroke-opacity:1"/>
<path class="bond-10 atom-10 atom-11" d="M 98.0,84.6 L 86.9,75.2" style="fill:none;fill-rule:evenodd;stroke:#000000;stroke-width:2.0px;stroke-linecap:butt;stroke-linejoin:miter;stroke-opacity:1"/>
<path class="bond-10 atom-10 atom-11" d="M 86.9,75.2 L 75.8,65.8" style="fill:none;fill-rule:evenodd;stroke:#FF0000;stroke-width:2.0px;stroke-linecap:butt;stroke-linejoin:miter;stroke-opacity:1"/>
<path class="bond-11 atom-10 atom-12" d="M 98.0,84.6 L 91.4,120.9" style="fill:none;fill-rule:evenodd;stroke:#000000;stroke-width:2.0px;stroke-linecap:butt;stroke-linejoin:miter;stroke-opacity:1"/>
<path class="bond-12 atom-12 atom-13" d="M 91.4,120.9 L 56.6,133.4" style="fill:none;fill-rule:evenodd;stroke:#000000;stroke-width:2.0px;stroke-linecap:butt;stroke-linejoin:miter;stroke-opacity:1"/>
<path class="bond-13 atom-13 atom-14" d="M 56.6,133.4 L 53.8,148.3" style="fill:none;fill-rule:evenodd;stroke:#000000;stroke-width:2.0px;stroke-linecap:butt;stroke-linejoin:miter;stroke-opacity:1"/>
<path class="bond-13 atom-13 atom-14" d="M 53.8,148.3 L 51.1,163.3" style="fill:none;fill-rule:evenodd;stroke:#0000FF;stroke-width:2.0px;stroke-linecap:butt;stroke-linejoin:miter;stroke-opacity:1"/>
<path class="bond-14 atom-13 atom-15" d="M 56.6,133.4 L 45.5,124.0" style="fill:none;fill-rule:evenodd;stroke:#000000;stroke-width:2.0px;stroke-linecap:butt;stroke-linejoin:miter;stroke-opacity:1"/>
<path class="bond-14 atom-13 atom-15" d="M 45.5,124.0 L 34.4,114.6" style="fill:none;fill-rule:evenodd;stroke:#FF0000;stroke-width:2.0px;stroke-linecap:butt;stroke-linejoin:miter;stroke-opacity:1"/>
<path d="M 144.6,105.2 L 145.2,106.9 L 147.1,107.3" style="fill:none;stroke:#000000;stroke-width:2.0px;stroke-linecap:butt;stroke-linejoin:miter;stroke-opacity:1;"/>
<path d="M 179.8,113.2 L 181.6,113.5 L 182.2,115.3" style="fill:none;stroke:#000000;stroke-width:2.0px;stroke-linecap:butt;stroke-linejoin:miter;stroke-opacity:1;"/>
<path d="M 165.9,60.3 L 167.6,59.7 L 168.1,60.1" style="fill:none;stroke:#000000;stroke-width:2.0px;stroke-linecap:butt;stroke-linejoin:miter;stroke-opacity:1;"/>
<path d="M 91.7,119.1 L 91.4,120.9 L 89.6,121.6" style="fill:none;stroke:#000000;stroke-width:2.0px;stroke-linecap:butt;stroke-linejoin:miter;stroke-opacity:1;"/>
<path class="atom-5" d="M 228.1 149.7 L 231.5 155.3 Q 231.9 155.8, 232.4 156.8 Q 233.0 157.8, 233.0 157.9 L 233.0 149.7 L 234.4 149.7 L 234.4 160.2 L 232.9 160.2 L 229.3 154.1 Q 228.8 153.4, 228.4 152.6 Q 227.9 151.8, 227.8 151.5 L 227.8 160.2 L 226.4 160.2 L 226.4 149.7 L 228.1 149.7 " fill="#0000FF"/>
<path class="atom-5" d="M 236.4 149.7 L 237.8 149.7 L 237.8 154.2 L 243.1 154.2 L 243.1 149.7 L 244.6 149.7 L 244.6 160.2 L 243.1 160.2 L 243.1 155.4 L 237.8 155.4 L 237.8 160.2 L 236.4 160.2 L 236.4 149.7 " fill="#0000FF"/>
<path class="atom-5" d="M 246.6 159.8 Q 246.9 159.2, 247.5 158.8 Q 248.1 158.4, 248.9 158.4 Q 250.0 158.4, 250.5 159.0 Q 251.1 159.6, 251.1 160.6 Q 251.1 161.6, 250.4 162.6 Q 249.6 163.5, 248.1 164.6 L 251.3 164.6 L 251.3 165.4 L 246.6 165.4 L 246.6 164.8 Q 247.9 163.9, 248.6 163.2 Q 249.4 162.5, 249.8 161.9 Q 250.2 161.3, 250.2 160.6 Q 250.2 160.0, 249.8 159.6 Q 249.5 159.2, 248.9 159.2 Q 248.4 159.2, 248.0 159.4 Q 247.6 159.7, 247.4 160.2 L 246.6 159.8 " fill="#0000FF"/>
<path class="atom-6" d="M 155.0 171.3 L 156.4 171.3 L 156.4 175.8 L 161.8 175.8 L 161.8 171.3 L 163.2 171.3 L 163.2 181.8 L 161.8 181.8 L 161.8 177.0 L 156.4 177.0 L 156.4 181.8 L 155.0 181.8 L 155.0 171.3 " fill="#FF0000"/>
<path class="atom-6" d="M 165.3 176.6 Q 165.3 174.0, 166.6 172.6 Q 167.8 171.2, 170.1 171.2 Q 172.5 171.2, 173.7 172.6 Q 174.9 174.0, 174.9 176.6 Q 174.9 179.1, 173.7 180.5 Q 172.4 182.0, 170.1 182.0 Q 167.8 182.0, 166.6 180.5 Q 165.3 179.1, 165.3 176.6 M 170.1 180.8 Q 171.7 180.8, 172.6 179.7 Q 173.5 178.7, 173.5 176.6 Q 173.5 174.5, 172.6 173.5 Q 171.7 172.4, 170.1 172.4 Q 168.5 172.4, 167.7 173.4 Q 166.8 174.5, 166.8 176.6 Q 166.8 178.7, 167.7 179.7 Q 168.5 180.8, 170.1 180.8 " fill="#FF0000"/>
<path class="atom-8" d="M 169.4 23.3 Q 169.4 20.8, 170.6 19.4 Q 171.9 18.0, 174.2 18.0 Q 176.5 18.0, 177.8 19.4 Q 179.0 20.8, 179.0 23.3 Q 179.0 25.9, 177.8 27.3 Q 176.5 28.8, 174.2 28.8 Q 171.9 28.8, 170.6 27.3 Q 169.4 25.9, 169.4 23.3 M 174.2 27.6 Q 175.8 27.6, 176.7 26.5 Q 177.5 25.4, 177.5 23.3 Q 177.5 21.3, 176.7 20.3 Q 175.8 19.2, 174.2 19.2 Q 172.6 19.2, 171.7 20.2 Q 170.9 21.3, 170.9 23.3 Q 170.9 25.5, 171.7 26.5 Q 172.6 27.6, 174.2 27.6 " fill="#FF0000"/>
<path class="atom-9" d="M 191.0 83.6 Q 191.0 81.1, 192.2 79.7 Q 193.4 78.3, 195.8 78.3 Q 198.1 78.3, 199.3 79.7 Q 200.6 81.1, 200.6 83.6 Q 200.6 86.2, 199.3 87.6 Q 198.1 89.0, 195.8 89.0 Q 193.5 89.0, 192.2 87.6 Q 191.0 86.2, 191.0 83.6 M 195.8 87.9 Q 197.4 87.9, 198.2 86.8 Q 199.1 85.7, 199.1 83.6 Q 199.1 81.6, 198.2 80.5 Q 197.4 79.5, 195.8 79.5 Q 194.2 79.5, 193.3 80.5 Q 192.4 81.5, 192.4 83.6 Q 192.4 85.7, 193.3 86.8 Q 194.2 87.9, 195.8 87.9 " fill="#FF0000"/>
<path class="atom-9" d="M 202.2 78.4 L 203.6 78.4 L 203.6 82.9 L 209.0 82.9 L 209.0 78.4 L 210.4 78.4 L 210.4 88.9 L 209.0 88.9 L 209.0 84.0 L 203.6 84.0 L 203.6 88.9 L 202.2 88.9 L 202.2 78.4 " fill="#FF0000"/>
<path class="atom-11" d="M 54.7 55.5 L 56.1 55.5 L 56.1 59.9 L 61.4 59.9 L 61.4 55.5 L 62.9 55.5 L 62.9 65.9 L 61.4 65.9 L 61.4 61.1 L 56.1 61.1 L 56.1 65.9 L 54.7 65.9 L 54.7 55.5 " fill="#FF0000"/>
<path class="atom-11" d="M 65.0 60.7 Q 65.0 58.2, 66.2 56.8 Q 67.5 55.4, 69.8 55.4 Q 72.1 55.4, 73.4 56.8 Q 74.6 58.2, 74.6 60.7 Q 74.6 63.2, 73.4 64.7 Q 72.1 66.1, 69.8 66.1 Q 67.5 66.1, 66.2 64.7 Q 65.0 63.2, 65.0 60.7 M 69.8 64.9 Q 71.4 64.9, 72.3 63.9 Q 73.1 62.8, 73.1 60.7 Q 73.1 58.6, 72.3 57.6 Q 71.4 56.5, 69.8 56.5 Q 68.2 56.5, 67.3 57.6 Q 66.5 58.6, 66.5 60.7 Q 66.5 62.8, 67.3 63.9 Q 68.2 64.9, 69.8 64.9 " fill="#FF0000"/>
<path class="atom-14" d="M 47.6 164.5 L 51.1 170.1 Q 51.4 170.6, 52.0 171.6 Q 52.5 172.6, 52.5 172.6 L 52.5 164.5 L 53.9 164.5 L 53.9 175.0 L 52.5 175.0 L 48.8 168.9 Q 48.4 168.2, 47.9 167.4 Q 47.5 166.6, 47.3 166.3 L 47.3 175.0 L 46.0 175.0 L 46.0 164.5 L 47.6 164.5 " fill="#0000FF"/>
<path class="atom-14" d="M 55.9 164.5 L 57.3 164.5 L 57.3 169.0 L 62.7 169.0 L 62.7 164.5 L 64.1 164.5 L 64.1 175.0 L 62.7 175.0 L 62.7 170.1 L 57.3 170.1 L 57.3 175.0 L 55.9 175.0 L 55.9 164.5 " fill="#0000FF"/>
<path class="atom-14" d="M 66.2 174.6 Q 66.4 174.0, 67.0 173.6 Q 67.6 173.2, 68.5 173.2 Q 69.5 173.2, 70.1 173.8 Q 70.7 174.4, 70.7 175.4 Q 70.7 176.4, 69.9 177.3 Q 69.2 178.3, 67.6 179.4 L 70.8 179.4 L 70.8 180.2 L 66.1 180.2 L 66.1 179.6 Q 67.4 178.6, 68.2 178.0 Q 69.0 177.3, 69.3 176.7 Q 69.7 176.0, 69.7 175.4 Q 69.7 174.7, 69.4 174.4 Q 69.0 174.0, 68.5 174.0 Q 67.9 174.0, 67.5 174.2 Q 67.2 174.5, 66.9 174.9 L 66.2 174.6 " fill="#0000FF"/>
<path class="atom-15" d="M 13.2 104.3 L 14.7 104.3 L 14.7 108.7 L 20.0 108.7 L 20.0 104.3 L 21.4 104.3 L 21.4 114.8 L 20.0 114.8 L 20.0 109.9 L 14.7 109.9 L 14.7 114.8 L 13.2 114.8 L 13.2 104.3 " fill="#FF0000"/>
<path class="atom-15" d="M 23.6 109.5 Q 23.6 107.0, 24.8 105.6 Q 26.1 104.2, 28.4 104.2 Q 30.7 104.2, 32.0 105.6 Q 33.2 107.0, 33.2 109.5 Q 33.2 112.0, 31.9 113.5 Q 30.7 114.9, 28.4 114.9 Q 26.1 114.9, 24.8 113.5 Q 23.6 112.1, 23.6 109.5 M 28.4 113.7 Q 30.0 113.7, 30.8 112.7 Q 31.7 111.6, 31.7 109.5 Q 31.7 107.4, 30.8 106.4 Q 30.0 105.4, 28.4 105.4 Q 26.8 105.4, 25.9 106.4 Q 25.1 107.4, 25.1 109.5 Q 25.1 111.6, 25.9 112.7 Q 26.8 113.7, 28.4 113.7 " fill="#FF0000"/>
</svg>
