<?xml version='1.0' encoding='ASCII' standalone='yes'?>
<svg xmlns="http://www.w3.org/2000/svg" xmlns:rdkit="http://www.rdkit.org/xml" xmlns:xlink="http://www.w3.org/1999/xlink" version="1.1" baseProfile="full" xml:space="preserve" width="338px" height="200px" viewBox="0 0 338 200">
<!-- END OF HEADER -->
<rect style="opacity:1.0;fill:#FFFFFF;stroke:none" width="338.0" height="200.0" x="0.0" y="0.0"> </rect>
<path class="bond-0 atom-0 atom-1" d="M 240.3,51.5 L 229.4,67.6" style="fill:none;fill-rule:evenodd;stroke:#000000;stroke-width:2.0px;stroke-linecap:butt;stroke-linejoin:miter;stroke-opacity:1"/>
<path class="bond-1 atom-1 atom-2" d="M 229.4,67.6 L 210.1,66.3" style="fill:none;fill-rule:evenodd;stroke:#000000;stroke-width:2.0px;stroke-linecap:butt;stroke-linejoin:miter;stroke-opacity:1"/>
<path class="bond-2 atom-2 atom-3" d="M 210.1,66.3 L 205.8,72.7" style="fill:none;fill-rule:evenodd;stroke:#000000;stroke-width:2.0px;stroke-linecap:butt;stroke-linejoin:miter;stroke-opacity:1"/>
<path class="bond-2 atom-2 atom-3" d="M 205.8,72.7 L 201.5,79.0" style="fill:none;fill-rule:evenodd;stroke:#FF0000;stroke-width:2.0px;stroke-linecap:butt;stroke-linejoin:miter;stroke-opacity:1"/>
<path class="bond-3 atom-3 atom-4" d="M 196.1,82.2 L 188.0,81.7" style="fill:none;fill-rule:evenodd;stroke:#FF0000;stroke-width:2.0px;stroke-linecap:butt;stroke-linejoin:miter;stroke-opacity:1"/>
<path class="bond-3 atom-3 atom-4" d="M 188.0,81.7 L 179.9,81.1" style="fill:none;fill-rule:evenodd;stroke:#000000;stroke-width:2.0px;stroke-linecap:butt;stroke-linejoin:miter;stroke-opacity:1"/>
<path class="bond-4 atom-4 atom-5" d="M 181.5,81.2 L 177.9,73.9" style="fill:none;fill-rule:evenodd;stroke:#000000;stroke-width:2.0px;stroke-linecap:butt;stroke-linejoin:miter;stroke-opacity:1"/>
<path class="bond-4 atom-4 atom-5" d="M 177.9,73.9 L 174.3,66.6" style="fill:none;fill-rule:evenodd;stroke:#FF0000;stroke-width:2.0px;stroke-linecap:butt;stroke-linejoin:miter;stroke-opacity:1"/>
<path class="bond-4 atom-4 atom-5" d="M 178.9,82.5 L 175.3,75.2" style="fill:none;fill-rule:evenodd;stroke:#000000;stroke-width:2.0px;stroke-linecap:butt;stroke-linejoin:miter;stroke-opacity:1"/>
<path class="bond-4 atom-4 atom-5" d="M 175.3,75.2 L 171.7,67.8" style="fill:none;fill-rule:evenodd;stroke:#FF0000;stroke-width:2.0px;stroke-linecap:butt;stroke-linejoin:miter;stroke-opacity:1"/>
<path class="bond-5 atom-4 atom-6" d="M 179.9,81.1 L 169.0,97.3" style="fill:none;fill-rule:evenodd;stroke:#000000;stroke-width:2.0px;stroke-linecap:butt;stroke-linejoin:miter;stroke-opacity:1"/>
<path class="bond-6 atom-6 atom-7" d="M 169.0,97.3 L 152.9,86.4" style="fill:none;fill-rule:evenodd;stroke:#000000;stroke-width:2.0px;stroke-linecap:butt;stroke-linejoin:miter;stroke-opacity:1"/>
<path class="bond-7 atom-6 atom-8" d="M 169.0,97.3 L 185.2,108.1" style="fill:none;fill-rule:evenodd;stroke:#000000;stroke-width:2.0px;stroke-linecap:butt;stroke-linejoin:miter;stroke-opacity:1"/>
<path class="bond-8 atom-6 atom-9" d="M 169.0,97.3 L 158.2,113.4" style="fill:none;fill-rule:evenodd;stroke:#000000;stroke-width:2.0px;stroke-linecap:butt;stroke-linejoin:miter;stroke-opacity:1"/>
<path class="bond-9 atom-9 atom-10" d="M 158.2,113.4 L 166.8,130.8" style="fill:none;fill-rule:evenodd;stroke:#000000;stroke-width:2.0px;stroke-linecap:butt;stroke-linejoin:miter;stroke-opacity:1"/>
<path class="bond-10 atom-9 atom-11" d="M 158.2,113.4 L 150.1,112.8" style="fill:none;fill-rule:evenodd;stroke:#000000;stroke-width:2.0px;stroke-linecap:butt;stroke-linejoin:miter;stroke-opacity:1"/>
<path class="bond-10 atom-9 atom-11" d="M 150.1,112.8 L 142.0,112.3" style="fill:none;fill-rule:evenodd;stroke:#FF0000;stroke-width:2.0px;stroke-linecap:butt;stroke-linejoin:miter;stroke-opacity:1"/>
<path class="bond-11 atom-11 atom-12" d="M 136.5,115.6 L 132.3,121.9" style="fill:none;fill-rule:evenodd;stroke:#FF0000;stroke-width:2.0px;stroke-linecap:butt;stroke-linejoin:miter;stroke-opacity:1"/>
<path class="bond-11 atom-11 atom-12" d="M 132.3,121.9 L 128.0,128.2" style="fill:none;fill-rule:evenodd;stroke:#000000;stroke-width:2.0px;stroke-linecap:butt;stroke-linejoin:miter;stroke-opacity:1"/>
<path class="bond-12 atom-12 atom-13" d="M 126.3,128.1 L 130.0,135.5" style="fill:none;fill-rule:evenodd;stroke:#000000;stroke-width:2.0px;stroke-linecap:butt;stroke-linejoin:miter;stroke-opacity:1"/>
<path class="bond-12 atom-12 atom-13" d="M 130.0,135.5 L 133.6,142.9" style="fill:none;fill-rule:evenodd;stroke:#FF0000;stroke-width:2.0px;stroke-linecap:butt;stroke-linejoin:miter;stroke-opacity:1"/>
<path class="bond-12 atom-12 atom-13" d="M 129.0,126.8 L 132.6,134.2" style="fill:none;fill-rule:evenodd;stroke:#000000;stroke-width:2.0px;stroke-linecap:butt;stroke-linejoin:miter;stroke-opacity:1"/>
<path class="bond-12 atom-12 atom-13" d="M 132.6,134.2 L 136.2,141.6" style="fill:none;fill-rule:evenodd;stroke:#FF0000;stroke-width:2.0px;stroke-linecap:butt;stroke-linejoin:miter;stroke-opacity:1"/>
<path class="bond-13 atom-12 atom-14" d="M 128.0,128.2 L 108.6,126.9" style="fill:none;fill-rule:evenodd;stroke:#000000;stroke-width:2.0px;stroke-linecap:butt;stroke-linejoin:miter;stroke-opacity:1"/>
<path class="bond-14 atom-14 atom-15" d="M 108.6,126.9 L 97.8,143.0" style="fill:none;fill-rule:evenodd;stroke:#000000;stroke-width:2.0px;stroke-linecap:butt;stroke-linejoin:miter;stroke-opacity:1"/>
<path class="bond-15 atom-14 atom-16" d="M 108.6,126.9 L 100.1,109.5" style="fill:none;fill-rule:evenodd;stroke:#000000;stroke-width:2.0px;stroke-linecap:butt;stroke-linejoin:miter;stroke-opacity:1"/>
<path class="bond-16 atom-16 atom-17" d="M 100.1,109.5 L 92.0,108.9" style="fill:none;fill-rule:evenodd;stroke:#000000;stroke-width:2.0px;stroke-linecap:butt;stroke-linejoin:miter;stroke-opacity:1"/>
<path class="bond-16 atom-16 atom-17" d="M 92.0,108.9 L 83.9,108.4" style="fill:none;fill-rule:evenodd;stroke:#FF0000;stroke-width:2.0px;stroke-linecap:butt;stroke-linejoin:miter;stroke-opacity:1"/>
<path class="bond-17 atom-17 atom-18" d="M 79.0,104.7 L 75.6,97.7" style="fill:none;fill-rule:evenodd;stroke:#FF0000;stroke-width:2.0px;stroke-linecap:butt;stroke-linejoin:miter;stroke-opacity:1"/>
<path class="bond-17 atom-17 atom-18" d="M 75.6,97.7 L 72.2,90.7" style="fill:none;fill-rule:evenodd;stroke:#000000;stroke-width:2.0px;stroke-linecap:butt;stroke-linejoin:miter;stroke-opacity:1"/>
<path class="bond-18 atom-18 atom-19" d="M 72.9,92.2 L 77.4,85.6" style="fill:none;fill-rule:evenodd;stroke:#000000;stroke-width:2.0px;stroke-linecap:butt;stroke-linejoin:miter;stroke-opacity:1"/>
<path class="bond-18 atom-18 atom-19" d="M 77.4,85.6 L 81.8,78.9" style="fill:none;fill-rule:evenodd;stroke:#FF0000;stroke-width:2.0px;stroke-linecap:butt;stroke-linejoin:miter;stroke-opacity:1"/>
<path class="bond-18 atom-18 atom-19" d="M 70.5,90.6 L 75.0,83.9" style="fill:none;fill-rule:evenodd;stroke:#000000;stroke-width:2.0px;stroke-linecap:butt;stroke-linejoin:miter;stroke-opacity:1"/>
<path class="bond-18 atom-18 atom-19" d="M 75.0,83.9 L 79.4,77.3" style="fill:none;fill-rule:evenodd;stroke:#FF0000;stroke-width:2.0px;stroke-linecap:butt;stroke-linejoin:miter;stroke-opacity:1"/>
<path class="bond-19 atom-18 atom-20" d="M 72.2,90.7 L 52.8,89.4" style="fill:none;fill-rule:evenodd;stroke:#000000;stroke-width:2.0px;stroke-linecap:butt;stroke-linejoin:miter;stroke-opacity:1"/>
<path class="bond-20 atom-20 atom-21" d="M 52.8,89.4 L 54.1,70.0" style="fill:none;fill-rule:evenodd;stroke:#000000;stroke-width:2.0px;stroke-linecap:butt;stroke-linejoin:miter;stroke-opacity:1"/>
<path class="bond-21 atom-20 atom-22" d="M 52.8,89.4 L 51.5,108.8" style="fill:none;fill-rule:evenodd;stroke:#000000;stroke-width:2.0px;stroke-linecap:butt;stroke-linejoin:miter;stroke-opacity:1"/>
<path class="bond-22 atom-20 atom-23" d="M 52.8,89.4 L 33.4,88.1" style="fill:none;fill-rule:evenodd;stroke:#000000;stroke-width:2.0px;stroke-linecap:butt;stroke-linejoin:miter;stroke-opacity:1"/>
<path class="bond-23 atom-23 atom-24" d="M 33.4,88.1 L 22.6,104.2" style="fill:none;fill-rule:evenodd;stroke:#000000;stroke-width:2.0px;stroke-linecap:butt;stroke-linejoin:miter;stroke-opacity:1"/>
<path class="bond-24 atom-23 atom-25" d="M 33.4,88.1 L 30.0,81.1" style="fill:none;fill-rule:evenodd;stroke:#000000;stroke-width:2.0px;stroke-linecap:butt;stroke-linejoin:miter;stroke-opacity:1"/>
<path class="bond-24 atom-23 atom-25" d="M 30.0,81.1 L 26.6,74.2" style="fill:none;fill-rule:evenodd;stroke:#FF0000;stroke-width:2.0px;stroke-linecap:butt;stroke-linejoin:miter;stroke-opacity:1"/>
<path class="bond-25 atom-1 atom-26" d="M 229.4,67.6 L 238.0,85.1" style="fill:none;fill-rule:evenodd;stroke:#000000;stroke-width:2.0px;stroke-linecap:butt;stroke-linejoin:miter;stroke-opacity:1"/>
<path class="bond-26 atom-26 atom-27" d="M 237.2,83.6 L 232.7,90.3" style="fill:none;fill-rule:evenodd;stroke:#000000;stroke-width:2.0px;stroke-linecap:butt;stroke-linejoin:miter;stroke-opacity:1"/>
<path class="bond-26 atom-26 atom-27" d="M 232.7,90.3 L 228.2,97.0" style="fill:none;fill-rule:evenodd;stroke:#FF0000;stroke-width:2.0px;stroke-linecap:butt;stroke-linejoin:miter;stroke-opacity:1"/>
<path class="bond-26 atom-26 atom-27" d="M 239.7,85.2 L 235.2,91.9" style="fill:none;fill-rule:evenodd;stroke:#000000;stroke-width:2.0px;stroke-linecap:butt;stroke-linejoin:miter;stroke-opacity:1"/>
<path class="bond-26 atom-26 atom-27" d="M 235.2,91.9 L 230.7,98.6" style="fill:none;fill-rule:evenodd;stroke:#FF0000;stroke-width:2.0px;stroke-linecap:butt;stroke-linejoin:miter;stroke-opacity:1"/>
<path class="bond-27 atom-26 atom-28" d="M 238.0,85.1 L 246.1,85.6" style="fill:none;fill-rule:evenodd;stroke:#000000;stroke-width:2.0px;stroke-linecap:butt;stroke-linejoin:miter;stroke-opacity:1"/>
<path class="bond-27 atom-26 atom-28" d="M 246.1,85.6 L 254.2,86.2" style="fill:none;fill-rule:evenodd;stroke:#FF0000;stroke-width:2.0px;stroke-linecap:butt;stroke-linejoin:miter;stroke-opacity:1"/>
<path class="bond-28 atom-28 atom-29" d="M 259.1,89.9 L 262.5,96.8" style="fill:none;fill-rule:evenodd;stroke:#FF0000;stroke-width:2.0px;stroke-linecap:butt;stroke-linejoin:miter;stroke-opacity:1"/>
<path class="bond-28 atom-28 atom-29" d="M 262.5,96.8 L 265.9,103.8" style="fill:none;fill-rule:evenodd;stroke:#000000;stroke-width:2.0px;stroke-linecap:butt;stroke-linejoin:miter;stroke-opacity:1"/>
<path class="bond-29 atom-29 atom-30" d="M 265.2,102.3 L 260.7,109.0" style="fill:none;fill-rule:evenodd;stroke:#000000;stroke-width:2.0px;stroke-linecap:butt;stroke-linejoin:miter;stroke-opacity:1"/>
<path class="bond-29 atom-29 atom-30" d="M 260.7,109.0 L 256.2,115.7" style="fill:none;fill-rule:evenodd;stroke:#FF0000;stroke-width:2.0px;stroke-linecap:butt;stroke-linejoin:miter;stroke-opacity:1"/>
<path class="bond-29 atom-29 atom-30" d="M 267.6,103.9 L 263.1,110.6" style="fill:none;fill-rule:evenodd;stroke:#000000;stroke-width:2.0px;stroke-linecap:butt;stroke-linejoin:miter;stroke-opacity:1"/>
<path class="bond-29 atom-29 atom-30" d="M 263.1,110.6 L 258.6,117.3" style="fill:none;fill-rule:evenodd;stroke:#FF0000;stroke-width:2.0px;stroke-linecap:butt;stroke-linejoin:miter;stroke-opacity:1"/>
<path class="bond-30 atom-29 atom-31" d="M 265.9,103.8 L 285.3,105.1" style="fill:none;fill-rule:evenodd;stroke:#000000;stroke-width:2.0px;stroke-linecap:butt;stroke-linejoin:miter;stroke-opacity:1"/>
<path class="bond-31 atom-31 atom-32" d="M 285.3,105.1 L 284.0,124.5" style="fill:none;fill-rule:evenodd;stroke:#000000;stroke-width:2.0px;stroke-linecap:butt;stroke-linejoin:miter;stroke-opacity:1"/>
<path class="bond-32 atom-31 atom-33" d="M 285.3,105.1 L 286.6,85.7" style="fill:none;fill-rule:evenodd;stroke:#000000;stroke-width:2.0px;stroke-linecap:butt;stroke-linejoin:miter;stroke-opacity:1"/>
<path class="bond-33 atom-31 atom-34" d="M 285.3,105.1 L 304.7,106.4" style="fill:none;fill-rule:evenodd;stroke:#000000;stroke-width:2.0px;stroke-linecap:butt;stroke-linejoin:miter;stroke-opacity:1"/>
<path class="bond-34 atom-34 atom-35" d="M 304.7,106.4 L 315.5,90.3" style="fill:none;fill-rule:evenodd;stroke:#000000;stroke-width:2.0px;stroke-linecap:butt;stroke-linejoin:miter;stroke-opacity:1"/>
<path class="bond-35 atom-34 atom-36" d="M 304.7,106.4 L 308.1,113.4" style="fill:none;fill-rule:evenodd;stroke:#000000;stroke-width:2.0px;stroke-linecap:butt;stroke-linejoin:miter;stroke-opacity:1"/>
<path class="bond-35 atom-34 atom-36" d="M 308.1,113.4 L 311.5,120.4" style="fill:none;fill-rule:evenodd;stroke:#FF0000;stroke-width:2.0px;stroke-linecap:butt;stroke-linejoin:miter;stroke-opacity:1"/>
<path d="M 211.0,66.4 L 210.1,66.3 L 209.8,66.6" style="fill:none;stroke:#000000;stroke-width:2.0px;stroke-linecap:butt;stroke-linejoin:miter;stroke-opacity:1;"/>
<path d="M 180.3,81.2 L 179.9,81.1 L 179.3,81.9" style="fill:none;stroke:#000000;stroke-width:2.0px;stroke-linecap:butt;stroke-linejoin:miter;stroke-opacity:1;"/>
<path d="M 128.2,127.9 L 128.0,128.2 L 127.0,128.1" style="fill:none;stroke:#000000;stroke-width:2.0px;stroke-linecap:butt;stroke-linejoin:miter;stroke-opacity:1;"/>
<path d="M 100.5,110.3 L 100.1,109.5 L 99.7,109.4" style="fill:none;stroke:#000000;stroke-width:2.0px;stroke-linecap:butt;stroke-linejoin:miter;stroke-opacity:1;"/>
<path d="M 72.3,91.1 L 72.2,90.7 L 71.2,90.6" style="fill:none;stroke:#000000;stroke-width:2.0px;stroke-linecap:butt;stroke-linejoin:miter;stroke-opacity:1;"/>
<path d="M 237.6,84.2 L 238.0,85.1 L 238.4,85.1" style="fill:none;stroke:#000000;stroke-width:2.0px;stroke-linecap:butt;stroke-linejoin:miter;stroke-opacity:1;"/>
<path d="M 265.7,103.5 L 265.9,103.8 L 266.9,103.9" style="fill:none;stroke:#000000;stroke-width:2.0px;stroke-linecap:butt;stroke-linejoin:miter;stroke-opacity:1;"/>
<path class="atom-3" d="M 196.7 82.5 Q 196.7 81.1, 197.4 80.4 Q 198.0 79.7, 199.2 79.7 Q 200.5 79.7, 201.1 80.4 Q 201.8 81.1, 201.8 82.5 Q 201.8 83.8, 201.1 84.6 Q 200.4 85.3, 199.2 85.3 Q 198.0 85.3, 197.4 84.6 Q 196.7 83.8, 196.7 82.5 M 199.2 84.7 Q 200.1 84.7, 200.5 84.1 Q 201.0 83.6, 201.0 82.5 Q 201.0 81.4, 200.5 80.8 Q 200.1 80.3, 199.2 80.3 Q 198.4 80.3, 197.9 80.8 Q 197.5 81.4, 197.5 82.5 Q 197.5 83.6, 197.9 84.1 Q 198.4 84.7, 199.2 84.7 " fill="#FF0000"/>
<path class="atom-5" d="M 168.8 63.7 Q 168.8 62.4, 169.4 61.7 Q 170.1 60.9, 171.3 60.9 Q 172.5 60.9, 173.2 61.7 Q 173.8 62.4, 173.8 63.7 Q 173.8 65.1, 173.2 65.8 Q 172.5 66.6, 171.3 66.6 Q 170.1 66.6, 169.4 65.8 Q 168.8 65.1, 168.8 63.7 M 171.3 65.9 Q 172.1 65.9, 172.6 65.4 Q 173.1 64.8, 173.1 63.7 Q 173.1 62.6, 172.6 62.1 Q 172.1 61.5, 171.3 61.5 Q 170.5 61.5, 170.0 62.1 Q 169.6 62.6, 169.6 63.7 Q 169.6 64.8, 170.0 65.4 Q 170.5 65.9, 171.3 65.9 " fill="#FF0000"/>
<path class="atom-11" d="M 136.3 112.1 Q 136.3 110.8, 137.0 110.0 Q 137.6 109.3, 138.8 109.3 Q 140.1 109.3, 140.7 110.0 Q 141.4 110.8, 141.4 112.1 Q 141.4 113.4, 140.7 114.2 Q 140.0 114.9, 138.8 114.9 Q 137.6 114.9, 137.0 114.2 Q 136.3 113.4, 136.3 112.1 M 138.8 114.3 Q 139.7 114.3, 140.1 113.8 Q 140.6 113.2, 140.6 112.1 Q 140.6 111.0, 140.1 110.5 Q 139.7 109.9, 138.8 109.9 Q 138.0 109.9, 137.5 110.5 Q 137.1 111.0, 137.1 112.1 Q 137.1 113.2, 137.5 113.8 Q 138.0 114.3, 138.8 114.3 " fill="#FF0000"/>
<path class="atom-13" d="M 134.0 145.6 Q 134.0 144.3, 134.7 143.6 Q 135.4 142.9, 136.6 142.9 Q 137.8 142.9, 138.4 143.6 Q 139.1 144.3, 139.1 145.6 Q 139.1 147.0, 138.4 147.7 Q 137.8 148.5, 136.6 148.5 Q 135.4 148.5, 134.7 147.7 Q 134.0 147.0, 134.0 145.6 M 136.6 147.9 Q 137.4 147.9, 137.9 147.3 Q 138.3 146.8, 138.3 145.6 Q 138.3 144.6, 137.9 144.0 Q 137.4 143.5, 136.6 143.5 Q 135.7 143.5, 135.3 144.0 Q 134.8 144.6, 134.8 145.6 Q 134.8 146.8, 135.3 147.3 Q 135.7 147.9, 136.6 147.9 " fill="#FF0000"/>
<path class="atom-17" d="M 78.2 108.2 Q 78.2 106.8, 78.8 106.1 Q 79.5 105.4, 80.7 105.4 Q 81.9 105.4, 82.6 106.1 Q 83.2 106.8, 83.2 108.2 Q 83.2 109.5, 82.6 110.3 Q 81.9 111.0, 80.7 111.0 Q 79.5 111.0, 78.8 110.3 Q 78.2 109.5, 78.2 108.2 M 80.7 110.4 Q 81.6 110.4, 82.0 109.8 Q 82.5 109.3, 82.5 108.2 Q 82.5 107.1, 82.0 106.5 Q 81.6 106.0, 80.7 106.0 Q 79.9 106.0, 79.4 106.5 Q 79.0 107.1, 79.0 108.2 Q 79.0 109.3, 79.4 109.8 Q 79.9 110.4, 80.7 110.4 " fill="#FF0000"/>
<path class="atom-19" d="M 80.5 74.6 Q 80.5 73.3, 81.1 72.5 Q 81.8 71.8, 83.0 71.8 Q 84.2 71.8, 84.9 72.5 Q 85.5 73.3, 85.5 74.6 Q 85.5 75.9, 84.8 76.7 Q 84.2 77.5, 83.0 77.5 Q 81.8 77.5, 81.1 76.7 Q 80.5 75.9, 80.5 74.6 M 83.0 76.8 Q 83.8 76.8, 84.3 76.3 Q 84.7 75.7, 84.7 74.6 Q 84.7 73.5, 84.3 73.0 Q 83.8 72.4, 83.0 72.4 Q 82.1 72.4, 81.7 73.0 Q 81.2 73.5, 81.2 74.6 Q 81.2 75.7, 81.7 76.3 Q 82.1 76.8, 83.0 76.8 " fill="#FF0000"/>
<path class="atom-25" d="M 16.9 67.9 L 17.6 67.9 L 17.6 70.3 L 20.5 70.3 L 20.5 67.9 L 21.2 67.9 L 21.2 73.4 L 20.5 73.4 L 20.5 70.9 L 17.6 70.9 L 17.6 73.4 L 16.9 73.4 L 16.9 67.9 " fill="#FF0000"/>
<path class="atom-25" d="M 22.3 70.7 Q 22.3 69.4, 23.0 68.6 Q 23.6 67.9, 24.9 67.9 Q 26.1 67.9, 26.7 68.6 Q 27.4 69.4, 27.4 70.7 Q 27.4 72.0, 26.7 72.8 Q 26.1 73.5, 24.9 73.5 Q 23.6 73.5, 23.0 72.8 Q 22.3 72.0, 22.3 70.7 M 24.9 72.9 Q 25.7 72.9, 26.1 72.3 Q 26.6 71.8, 26.6 70.7 Q 26.6 69.6, 26.1 69.1 Q 25.7 68.5, 24.9 68.5 Q 24.0 68.5, 23.6 69.0 Q 23.1 69.6, 23.1 70.7 Q 23.1 71.8, 23.6 72.3 Q 24.0 72.9, 24.9 72.9 " fill="#FF0000"/>
<path class="atom-27" d="M 224.6 101.2 Q 224.6 99.9, 225.3 99.1 Q 225.9 98.4, 227.2 98.4 Q 228.4 98.4, 229.0 99.1 Q 229.7 99.9, 229.7 101.2 Q 229.7 102.5, 229.0 103.3 Q 228.4 104.1, 227.2 104.1 Q 225.9 104.1, 225.3 103.3 Q 224.6 102.5, 224.6 101.2 M 227.2 103.4 Q 228.0 103.4, 228.5 102.9 Q 228.9 102.3, 228.9 101.2 Q 228.9 100.1, 228.5 99.6 Q 228.0 99.0, 227.2 99.0 Q 226.3 99.0, 225.9 99.6 Q 225.4 100.1, 225.4 101.2 Q 225.4 102.3, 225.9 102.9 Q 226.3 103.4, 227.2 103.4 " fill="#FF0000"/>
<path class="atom-28" d="M 254.8 86.4 Q 254.8 85.1, 255.5 84.3 Q 256.1 83.6, 257.4 83.6 Q 258.6 83.6, 259.2 84.3 Q 259.9 85.1, 259.9 86.4 Q 259.9 87.7, 259.2 88.5 Q 258.6 89.2, 257.4 89.2 Q 256.1 89.2, 255.5 88.5 Q 254.8 87.7, 254.8 86.4 M 257.4 88.6 Q 258.2 88.6, 258.6 88.1 Q 259.1 87.5, 259.1 86.4 Q 259.1 85.3, 258.6 84.8 Q 258.2 84.2, 257.4 84.2 Q 256.5 84.2, 256.1 84.8 Q 255.6 85.3, 255.6 86.4 Q 255.6 87.5, 256.1 88.1 Q 256.5 88.6, 257.4 88.6 " fill="#FF0000"/>
<path class="atom-30" d="M 252.6 119.9 Q 252.6 118.6, 253.2 117.9 Q 253.9 117.1, 255.1 117.1 Q 256.3 117.1, 257.0 117.9 Q 257.6 118.6, 257.6 119.9 Q 257.6 121.3, 257.0 122.0 Q 256.3 122.8, 255.1 122.8 Q 253.9 122.8, 253.2 122.0 Q 252.6 121.3, 252.6 119.9 M 255.1 122.2 Q 255.9 122.2, 256.4 121.6 Q 256.8 121.0, 256.8 119.9 Q 256.8 118.9, 256.4 118.3 Q 255.9 117.8, 255.1 117.8 Q 254.3 117.8, 253.8 118.3 Q 253.3 118.9, 253.3 119.9 Q 253.3 121.1, 253.8 121.6 Q 254.3 122.2, 255.1 122.2 " fill="#FF0000"/>
<path class="atom-36" d="M 310.7 123.9 Q 310.7 122.6, 311.3 121.8 Q 312.0 121.1, 313.2 121.1 Q 314.4 121.1, 315.1 121.8 Q 315.7 122.6, 315.7 123.9 Q 315.7 125.2, 315.1 126.0 Q 314.4 126.7, 313.2 126.7 Q 312.0 126.7, 311.3 126.0 Q 310.7 125.2, 310.7 123.9 M 313.2 126.1 Q 314.1 126.1, 314.5 125.5 Q 315.0 125.0, 315.0 123.9 Q 315.0 122.8, 314.5 122.2 Q 314.1 121.7, 313.2 121.7 Q 312.4 121.7, 311.9 122.2 Q 311.5 122.8, 311.5 123.9 Q 311.5 125.0, 311.9 125.5 Q 312.4 126.1, 313.2 126.1 " fill="#FF0000"/>
<path class="atom-36" d="M 316.6 121.1 L 317.3 121.1 L 317.3 123.5 L 320.2 123.5 L 320.2 121.1 L 320.9 121.1 L 320.9 126.6 L 320.2 126.6 L 320.2 124.1 L 317.3 124.1 L 317.3 126.6 L 316.6 126.6 L 316.6 121.1 " fill="#FF0000"/>
</svg>
