<?xml version='1.0' encoding='ASCII' standalone='yes'?>
<svg xmlns="http://www.w3.org/2000/svg" xmlns:rdkit="http://www.rdkit.org/xml" xmlns:xlink="http://www.w3.org/1999/xlink" version="1.1" baseProfile="full" xml:space="preserve" width="364px" height="200px" viewBox="0 0 364 200">
<!-- END OF HEADER -->
<rect style="opacity:1.0;fill:#FFFFFF;stroke:none" width="364.0" height="200.0" x="0.0" y="0.0"> </rect>
<path class="bond-0 atom-0 atom-1" d="M 316.0,89.7 L 297.5,103.3" style="fill:none;fill-rule:evenodd;stroke:#000000;stroke-width:2.0px;stroke-linecap:butt;stroke-linejoin:miter;stroke-opacity:1"/>
<path class="bond-1 atom-1 atom-2" d="M 297.5,103.3 L 276.5,94.1" style="fill:none;fill-rule:evenodd;stroke:#000000;stroke-width:2.0px;stroke-linecap:butt;stroke-linejoin:miter;stroke-opacity:1"/>
<path class="bond-2 atom-2 atom-3" d="M 276.5,94.1 L 285.7,73.0" style="fill:none;fill-rule:evenodd;stroke:#000000;stroke-width:2.0px;stroke-linecap:butt;stroke-linejoin:miter;stroke-opacity:1"/>
<path class="bond-3 atom-3 atom-4" d="M 285.7,73.0 L 280.4,65.9" style="fill:none;fill-rule:evenodd;stroke:#000000;stroke-width:2.0px;stroke-linecap:butt;stroke-linejoin:miter;stroke-opacity:1"/>
<path class="bond-3 atom-3 atom-4" d="M 280.4,65.9 L 275.1,58.7" style="fill:none;fill-rule:evenodd;stroke:#FF0000;stroke-width:2.0px;stroke-linecap:butt;stroke-linejoin:miter;stroke-opacity:1"/>
<path class="bond-4 atom-2 atom-5" d="M 276.5,94.1 L 255.4,84.8" style="fill:none;fill-rule:evenodd;stroke:#000000;stroke-width:2.0px;stroke-linecap:butt;stroke-linejoin:miter;stroke-opacity:1"/>
<path class="bond-5 atom-5 atom-6" d="M 255.4,84.8 L 252.9,62.0" style="fill:none;fill-rule:evenodd;stroke:#000000;stroke-width:2.0px;stroke-linecap:butt;stroke-linejoin:miter;stroke-opacity:1"/>
<path class="bond-6 atom-6 atom-7" d="M 252.9,62.0 L 231.9,52.8" style="fill:none;fill-rule:evenodd;stroke:#000000;stroke-width:2.0px;stroke-linecap:butt;stroke-linejoin:miter;stroke-opacity:1"/>
<path class="bond-7 atom-7 atom-8" d="M 231.9,52.8 L 210.9,43.6" style="fill:none;fill-rule:evenodd;stroke:#000000;stroke-width:2.0px;stroke-linecap:butt;stroke-linejoin:miter;stroke-opacity:1"/>
<path class="bond-8 atom-7 atom-9" d="M 231.9,52.8 L 241.1,31.8" style="fill:none;fill-rule:evenodd;stroke:#000000;stroke-width:2.0px;stroke-linecap:butt;stroke-linejoin:miter;stroke-opacity:1"/>
<path class="bond-9 atom-9 atom-10" d="M 241.1,31.8 L 235.9,24.6" style="fill:none;fill-rule:evenodd;stroke:#000000;stroke-width:2.0px;stroke-linecap:butt;stroke-linejoin:miter;stroke-opacity:1"/>
<path class="bond-9 atom-9 atom-10" d="M 235.9,24.6 L 230.6,17.4" style="fill:none;fill-rule:evenodd;stroke:#FF0000;stroke-width:2.0px;stroke-linecap:butt;stroke-linejoin:miter;stroke-opacity:1"/>
<path class="bond-10 atom-7 atom-11" d="M 231.9,52.8 L 222.7,73.8" style="fill:none;fill-rule:evenodd;stroke:#000000;stroke-width:2.0px;stroke-linecap:butt;stroke-linejoin:miter;stroke-opacity:1"/>
<path class="bond-11 atom-11 atom-12" d="M 222.7,73.8 L 199.9,76.3" style="fill:none;fill-rule:evenodd;stroke:#000000;stroke-width:2.0px;stroke-linecap:butt;stroke-linejoin:miter;stroke-opacity:1"/>
<path class="bond-12 atom-12 atom-13" d="M 199.9,76.3 L 190.7,97.3" style="fill:none;fill-rule:evenodd;stroke:#000000;stroke-width:2.0px;stroke-linecap:butt;stroke-linejoin:miter;stroke-opacity:1"/>
<path class="bond-13 atom-13 atom-14" d="M 190.7,97.3 L 169.6,88.1" style="fill:none;fill-rule:evenodd;stroke:#000000;stroke-width:2.0px;stroke-linecap:butt;stroke-linejoin:miter;stroke-opacity:1"/>
<path class="bond-14 atom-14 atom-15" d="M 169.6,88.1 L 162.3,93.5" style="fill:none;fill-rule:evenodd;stroke:#000000;stroke-width:2.0px;stroke-linecap:butt;stroke-linejoin:miter;stroke-opacity:1"/>
<path class="bond-14 atom-14 atom-15" d="M 162.3,93.5 L 154.9,99.0" style="fill:none;fill-rule:evenodd;stroke:#FF0000;stroke-width:2.0px;stroke-linecap:butt;stroke-linejoin:miter;stroke-opacity:1"/>
<path class="bond-15 atom-13 atom-16" d="M 190.7,97.3 L 181.4,118.4" style="fill:none;fill-rule:evenodd;stroke:#000000;stroke-width:2.0px;stroke-linecap:butt;stroke-linejoin:miter;stroke-opacity:1"/>
<path class="bond-16 atom-16 atom-17" d="M 181.4,118.4 L 158.6,120.9" style="fill:none;fill-rule:evenodd;stroke:#000000;stroke-width:2.0px;stroke-linecap:butt;stroke-linejoin:miter;stroke-opacity:1"/>
<path class="bond-17 atom-17 atom-18" d="M 158.6,120.9 L 149.4,141.9" style="fill:none;fill-rule:evenodd;stroke:#000000;stroke-width:2.0px;stroke-linecap:butt;stroke-linejoin:miter;stroke-opacity:1"/>
<path class="bond-18 atom-18 atom-19" d="M 149.4,141.9 L 170.4,151.1" style="fill:none;fill-rule:evenodd;stroke:#000000;stroke-width:2.0px;stroke-linecap:butt;stroke-linejoin:miter;stroke-opacity:1"/>
<path class="bond-19 atom-18 atom-20" d="M 149.4,141.9 L 140.2,162.9" style="fill:none;fill-rule:evenodd;stroke:#000000;stroke-width:2.0px;stroke-linecap:butt;stroke-linejoin:miter;stroke-opacity:1"/>
<path class="bond-20 atom-20 atom-21" d="M 140.2,162.9 L 145.5,170.1" style="fill:none;fill-rule:evenodd;stroke:#000000;stroke-width:2.0px;stroke-linecap:butt;stroke-linejoin:miter;stroke-opacity:1"/>
<path class="bond-20 atom-20 atom-21" d="M 145.5,170.1 L 150.8,177.4" style="fill:none;fill-rule:evenodd;stroke:#FF0000;stroke-width:2.0px;stroke-linecap:butt;stroke-linejoin:miter;stroke-opacity:1"/>
<path class="bond-21 atom-18 atom-22" d="M 149.4,141.9 L 128.4,132.7" style="fill:none;fill-rule:evenodd;stroke:#000000;stroke-width:2.0px;stroke-linecap:butt;stroke-linejoin:miter;stroke-opacity:1"/>
<path class="bond-22 atom-22 atom-23" d="M 128.4,132.7 L 109.9,146.2" style="fill:none;fill-rule:evenodd;stroke:#000000;stroke-width:2.0px;stroke-linecap:butt;stroke-linejoin:miter;stroke-opacity:1"/>
<path class="bond-23 atom-23 atom-24" d="M 109.9,146.2 L 88.9,137.0" style="fill:none;fill-rule:evenodd;stroke:#000000;stroke-width:2.0px;stroke-linecap:butt;stroke-linejoin:miter;stroke-opacity:1"/>
<path class="bond-24 atom-24 atom-25" d="M 88.9,137.0 L 67.9,127.8" style="fill:none;fill-rule:evenodd;stroke:#000000;stroke-width:2.0px;stroke-linecap:butt;stroke-linejoin:miter;stroke-opacity:1"/>
<path class="bond-25 atom-25 atom-26" d="M 67.9,127.8 L 65.3,105.0" style="fill:none;fill-rule:evenodd;stroke:#000000;stroke-width:2.0px;stroke-linecap:butt;stroke-linejoin:miter;stroke-opacity:1"/>
<path class="bond-26 atom-24 atom-27" d="M 88.9,137.0 L 79.6,158.0" style="fill:none;fill-rule:evenodd;stroke:#000000;stroke-width:2.0px;stroke-linecap:butt;stroke-linejoin:miter;stroke-opacity:1"/>
<path class="bond-27 atom-27 atom-28" d="M 79.6,158.0 L 70.1,159.1" style="fill:none;fill-rule:evenodd;stroke:#000000;stroke-width:2.0px;stroke-linecap:butt;stroke-linejoin:miter;stroke-opacity:1"/>
<path class="bond-27 atom-27 atom-28" d="M 70.1,159.1 L 60.6,160.1" style="fill:none;fill-rule:evenodd;stroke:#FF0000;stroke-width:2.0px;stroke-linecap:butt;stroke-linejoin:miter;stroke-opacity:1"/>
<path class="bond-28 atom-24 atom-29" d="M 88.9,137.0 L 98.1,116.0" style="fill:none;fill-rule:evenodd;stroke:#000000;stroke-width:2.0px;stroke-linecap:butt;stroke-linejoin:miter;stroke-opacity:1"/>
<path class="bond-29 atom-29 atom-30" d="M 98.1,116.0 L 84.5,97.5" style="fill:none;fill-rule:evenodd;stroke:#000000;stroke-width:2.0px;stroke-linecap:butt;stroke-linejoin:miter;stroke-opacity:1"/>
<path class="bond-30 atom-30 atom-31" d="M 84.5,97.5 L 93.7,76.5" style="fill:none;fill-rule:evenodd;stroke:#000000;stroke-width:2.0px;stroke-linecap:butt;stroke-linejoin:miter;stroke-opacity:1"/>
<path class="bond-31 atom-31 atom-32" d="M 93.7,76.5 L 103.0,55.5" style="fill:none;fill-rule:evenodd;stroke:#000000;stroke-width:2.0px;stroke-linecap:butt;stroke-linejoin:miter;stroke-opacity:1"/>
<path class="bond-32 atom-31 atom-33" d="M 93.7,76.5 L 114.7,85.7" style="fill:none;fill-rule:evenodd;stroke:#000000;stroke-width:2.0px;stroke-linecap:butt;stroke-linejoin:miter;stroke-opacity:1"/>
<path class="bond-33 atom-33 atom-34" d="M 114.7,85.7 L 122.1,80.3" style="fill:none;fill-rule:evenodd;stroke:#000000;stroke-width:2.0px;stroke-linecap:butt;stroke-linejoin:miter;stroke-opacity:1"/>
<path class="bond-33 atom-33 atom-34" d="M 122.1,80.3 L 129.5,74.9" style="fill:none;fill-rule:evenodd;stroke:#FF0000;stroke-width:2.0px;stroke-linecap:butt;stroke-linejoin:miter;stroke-opacity:1"/>
<path class="bond-34 atom-31 atom-35" d="M 93.7,76.5 L 72.7,67.3" style="fill:none;fill-rule:evenodd;stroke:#000000;stroke-width:2.0px;stroke-linecap:butt;stroke-linejoin:miter;stroke-opacity:1"/>
<path class="bond-35 atom-35 atom-36" d="M 72.5,65.3 L 64.7,71.0" style="fill:none;fill-rule:evenodd;stroke:#000000;stroke-width:2.0px;stroke-linecap:butt;stroke-linejoin:miter;stroke-opacity:1"/>
<path class="bond-35 atom-35 atom-36" d="M 64.7,71.0 L 56.9,76.7" style="fill:none;fill-rule:evenodd;stroke:#FF0000;stroke-width:2.0px;stroke-linecap:butt;stroke-linejoin:miter;stroke-opacity:1"/>
<path class="bond-35 atom-35 atom-36" d="M 74.5,68.1 L 66.8,73.8" style="fill:none;fill-rule:evenodd;stroke:#000000;stroke-width:2.0px;stroke-linecap:butt;stroke-linejoin:miter;stroke-opacity:1"/>
<path class="bond-35 atom-35 atom-36" d="M 66.8,73.8 L 59.0,79.5" style="fill:none;fill-rule:evenodd;stroke:#FF0000;stroke-width:2.0px;stroke-linecap:butt;stroke-linejoin:miter;stroke-opacity:1"/>
<path class="bond-36 atom-35 atom-37" d="M 72.7,67.3 L 71.7,57.9" style="fill:none;fill-rule:evenodd;stroke:#000000;stroke-width:2.0px;stroke-linecap:butt;stroke-linejoin:miter;stroke-opacity:1"/>
<path class="bond-36 atom-35 atom-37" d="M 71.7,57.9 L 70.7,48.6" style="fill:none;fill-rule:evenodd;stroke:#FF0000;stroke-width:2.0px;stroke-linecap:butt;stroke-linejoin:miter;stroke-opacity:1"/>
<path class="bond-37 atom-13 atom-38" d="M 190.7,97.3 L 211.7,106.6" style="fill:none;fill-rule:evenodd;stroke:#000000;stroke-width:2.0px;stroke-linecap:butt;stroke-linejoin:miter;stroke-opacity:1"/>
<path class="bond-38 atom-38 atom-39" d="M 211.9,108.5 L 219.7,102.8" style="fill:none;fill-rule:evenodd;stroke:#000000;stroke-width:2.0px;stroke-linecap:butt;stroke-linejoin:miter;stroke-opacity:1"/>
<path class="bond-38 atom-38 atom-39" d="M 219.7,102.8 L 227.4,97.1" style="fill:none;fill-rule:evenodd;stroke:#FF0000;stroke-width:2.0px;stroke-linecap:butt;stroke-linejoin:miter;stroke-opacity:1"/>
<path class="bond-38 atom-38 atom-39" d="M 209.8,105.8 L 217.6,100.1" style="fill:none;fill-rule:evenodd;stroke:#000000;stroke-width:2.0px;stroke-linecap:butt;stroke-linejoin:miter;stroke-opacity:1"/>
<path class="bond-38 atom-38 atom-39" d="M 217.6,100.1 L 225.4,94.3" style="fill:none;fill-rule:evenodd;stroke:#FF0000;stroke-width:2.0px;stroke-linecap:butt;stroke-linejoin:miter;stroke-opacity:1"/>
<path class="bond-39 atom-38 atom-40" d="M 211.7,106.6 L 212.7,115.9" style="fill:none;fill-rule:evenodd;stroke:#000000;stroke-width:2.0px;stroke-linecap:butt;stroke-linejoin:miter;stroke-opacity:1"/>
<path class="bond-39 atom-38 atom-40" d="M 212.7,115.9 L 213.7,125.3" style="fill:none;fill-rule:evenodd;stroke:#FF0000;stroke-width:2.0px;stroke-linecap:butt;stroke-linejoin:miter;stroke-opacity:1"/>
<path class="bond-40 atom-2 atom-41" d="M 276.5,94.1 L 267.2,115.1" style="fill:none;fill-rule:evenodd;stroke:#000000;stroke-width:2.0px;stroke-linecap:butt;stroke-linejoin:miter;stroke-opacity:1"/>
<path class="bond-41 atom-41 atom-42" d="M 267.2,115.1 L 280.8,133.6" style="fill:none;fill-rule:evenodd;stroke:#000000;stroke-width:2.0px;stroke-linecap:butt;stroke-linejoin:miter;stroke-opacity:1"/>
<path class="bond-42 atom-42 atom-43" d="M 280.8,133.6 L 271.6,154.6" style="fill:none;fill-rule:evenodd;stroke:#000000;stroke-width:2.0px;stroke-linecap:butt;stroke-linejoin:miter;stroke-opacity:1"/>
<path class="bond-43 atom-43 atom-44" d="M 271.6,154.6 L 262.4,175.6" style="fill:none;fill-rule:evenodd;stroke:#000000;stroke-width:2.0px;stroke-linecap:butt;stroke-linejoin:miter;stroke-opacity:1"/>
<path class="bond-44 atom-43 atom-45" d="M 271.6,154.6 L 292.6,163.8" style="fill:none;fill-rule:evenodd;stroke:#000000;stroke-width:2.0px;stroke-linecap:butt;stroke-linejoin:miter;stroke-opacity:1"/>
<path class="bond-45 atom-45 atom-46" d="M 292.6,163.8 L 293.6,173.2" style="fill:none;fill-rule:evenodd;stroke:#000000;stroke-width:2.0px;stroke-linecap:butt;stroke-linejoin:miter;stroke-opacity:1"/>
<path class="bond-45 atom-45 atom-46" d="M 293.6,173.2 L 294.7,182.6" style="fill:none;fill-rule:evenodd;stroke:#FF0000;stroke-width:2.0px;stroke-linecap:butt;stroke-linejoin:miter;stroke-opacity:1"/>
<path class="bond-46 atom-43 atom-47" d="M 271.6,154.6 L 250.6,145.4" style="fill:none;fill-rule:evenodd;stroke:#000000;stroke-width:2.0px;stroke-linecap:butt;stroke-linejoin:miter;stroke-opacity:1"/>
<path class="bond-47 atom-47 atom-48" d="M 252.4,146.2 L 251.3,136.3" style="fill:none;fill-rule:evenodd;stroke:#000000;stroke-width:2.0px;stroke-linecap:butt;stroke-linejoin:miter;stroke-opacity:1"/>
<path class="bond-47 atom-47 atom-48" d="M 251.3,136.3 L 250.2,126.5" style="fill:none;fill-rule:evenodd;stroke:#FF0000;stroke-width:2.0px;stroke-linecap:butt;stroke-linejoin:miter;stroke-opacity:1"/>
<path class="bond-47 atom-47 atom-48" d="M 249.0,146.5 L 247.9,136.7" style="fill:none;fill-rule:evenodd;stroke:#000000;stroke-width:2.0px;stroke-linecap:butt;stroke-linejoin:miter;stroke-opacity:1"/>
<path class="bond-47 atom-47 atom-48" d="M 247.9,136.7 L 246.8,126.9" style="fill:none;fill-rule:evenodd;stroke:#FF0000;stroke-width:2.0px;stroke-linecap:butt;stroke-linejoin:miter;stroke-opacity:1"/>
<path class="bond-48 atom-47 atom-49" d="M 250.6,145.4 L 243.2,150.8" style="fill:none;fill-rule:evenodd;stroke:#000000;stroke-width:2.0px;stroke-linecap:butt;stroke-linejoin:miter;stroke-opacity:1"/>
<path class="bond-48 atom-47 atom-49" d="M 243.2,150.8 L 235.8,156.2" style="fill:none;fill-rule:evenodd;stroke:#FF0000;stroke-width:2.0px;stroke-linecap:butt;stroke-linejoin:miter;stroke-opacity:1"/>
<path d="M 298.4,102.6 L 297.5,103.3 L 296.4,102.8" style="fill:none;stroke:#000000;stroke-width:2.0px;stroke-linecap:butt;stroke-linejoin:miter;stroke-opacity:1;"/>
<path d="M 285.2,74.1 L 285.7,73.0 L 285.4,72.7" style="fill:none;stroke:#000000;stroke-width:2.0px;stroke-linecap:butt;stroke-linejoin:miter;stroke-opacity:1;"/>
<path d="M 256.5,85.3 L 255.4,84.8 L 255.3,83.7" style="fill:none;stroke:#000000;stroke-width:2.0px;stroke-linecap:butt;stroke-linejoin:miter;stroke-opacity:1;"/>
<path d="M 253.1,63.2 L 252.9,62.0 L 251.9,61.6" style="fill:none;stroke:#000000;stroke-width:2.0px;stroke-linecap:butt;stroke-linejoin:miter;stroke-opacity:1;"/>
<path d="M 240.7,32.8 L 241.1,31.8 L 240.9,31.4" style="fill:none;stroke:#000000;stroke-width:2.0px;stroke-linecap:butt;stroke-linejoin:miter;stroke-opacity:1;"/>
<path d="M 223.1,72.8 L 222.7,73.8 L 221.5,73.9" style="fill:none;stroke:#000000;stroke-width:2.0px;stroke-linecap:butt;stroke-linejoin:miter;stroke-opacity:1;"/>
<path d="M 201.0,76.2 L 199.9,76.3 L 199.4,77.4" style="fill:none;stroke:#000000;stroke-width:2.0px;stroke-linecap:butt;stroke-linejoin:miter;stroke-opacity:1;"/>
<path d="M 170.7,88.6 L 169.6,88.1 L 169.3,88.4" style="fill:none;stroke:#000000;stroke-width:2.0px;stroke-linecap:butt;stroke-linejoin:miter;stroke-opacity:1;"/>
<path d="M 181.9,117.3 L 181.4,118.4 L 180.3,118.5" style="fill:none;stroke:#000000;stroke-width:2.0px;stroke-linecap:butt;stroke-linejoin:miter;stroke-opacity:1;"/>
<path d="M 159.8,120.7 L 158.6,120.9 L 158.2,121.9" style="fill:none;stroke:#000000;stroke-width:2.0px;stroke-linecap:butt;stroke-linejoin:miter;stroke-opacity:1;"/>
<path d="M 140.6,161.8 L 140.2,162.9 L 140.4,163.3" style="fill:none;stroke:#000000;stroke-width:2.0px;stroke-linecap:butt;stroke-linejoin:miter;stroke-opacity:1;"/>
<path d="M 129.4,133.1 L 128.4,132.7 L 127.5,133.3" style="fill:none;stroke:#000000;stroke-width:2.0px;stroke-linecap:butt;stroke-linejoin:miter;stroke-opacity:1;"/>
<path d="M 110.8,145.6 L 109.9,146.2 L 108.8,145.8" style="fill:none;stroke:#000000;stroke-width:2.0px;stroke-linecap:butt;stroke-linejoin:miter;stroke-opacity:1;"/>
<path d="M 68.9,128.3 L 67.9,127.8 L 67.7,126.7" style="fill:none;stroke:#000000;stroke-width:2.0px;stroke-linecap:butt;stroke-linejoin:miter;stroke-opacity:1;"/>
<path d="M 80.1,157.0 L 79.6,158.0 L 79.2,158.1" style="fill:none;stroke:#000000;stroke-width:2.0px;stroke-linecap:butt;stroke-linejoin:miter;stroke-opacity:1;"/>
<path d="M 97.6,117.1 L 98.1,116.0 L 97.4,115.1" style="fill:none;stroke:#000000;stroke-width:2.0px;stroke-linecap:butt;stroke-linejoin:miter;stroke-opacity:1;"/>
<path d="M 85.2,98.4 L 84.5,97.5 L 85.0,96.5" style="fill:none;stroke:#000000;stroke-width:2.0px;stroke-linecap:butt;stroke-linejoin:miter;stroke-opacity:1;"/>
<path d="M 113.7,85.3 L 114.7,85.7 L 115.1,85.5" style="fill:none;stroke:#000000;stroke-width:2.0px;stroke-linecap:butt;stroke-linejoin:miter;stroke-opacity:1;"/>
<path d="M 73.8,67.7 L 72.7,67.3 L 72.7,66.8" style="fill:none;stroke:#000000;stroke-width:2.0px;stroke-linecap:butt;stroke-linejoin:miter;stroke-opacity:1;"/>
<path d="M 210.6,106.1 L 211.7,106.6 L 211.7,107.0" style="fill:none;stroke:#000000;stroke-width:2.0px;stroke-linecap:butt;stroke-linejoin:miter;stroke-opacity:1;"/>
<path d="M 267.7,114.0 L 267.2,115.1 L 267.9,116.0" style="fill:none;stroke:#000000;stroke-width:2.0px;stroke-linecap:butt;stroke-linejoin:miter;stroke-opacity:1;"/>
<path d="M 280.1,132.6 L 280.8,133.6 L 280.4,134.6" style="fill:none;stroke:#000000;stroke-width:2.0px;stroke-linecap:butt;stroke-linejoin:miter;stroke-opacity:1;"/>
<path d="M 291.6,163.3 L 292.6,163.8 L 292.7,164.3" style="fill:none;stroke:#000000;stroke-width:2.0px;stroke-linecap:butt;stroke-linejoin:miter;stroke-opacity:1;"/>
<path d="M 251.6,145.8 L 250.6,145.4 L 250.2,145.6" style="fill:none;stroke:#000000;stroke-width:2.0px;stroke-linecap:butt;stroke-linejoin:miter;stroke-opacity:1;"/>
<path class="atom-4" d="M 262.7 51.3 L 263.6 51.3 L 263.6 54.1 L 266.9 54.1 L 266.9 51.3 L 267.8 51.3 L 267.8 57.8 L 266.9 57.8 L 266.9 54.8 L 263.6 54.8 L 263.6 57.8 L 262.7 57.8 L 262.7 51.3 " fill="#FF0000"/>
<path class="atom-4" d="M 269.1 54.6 Q 269.1 53.0, 269.9 52.1 Q 270.7 51.3, 272.1 51.3 Q 273.5 51.3, 274.3 52.1 Q 275.1 53.0, 275.1 54.6 Q 275.1 56.1, 274.3 57.0 Q 273.5 57.9, 272.1 57.9 Q 270.7 57.9, 269.9 57.0 Q 269.1 56.2, 269.1 54.6 M 272.1 57.2 Q 273.1 57.2, 273.6 56.5 Q 274.2 55.9, 274.2 54.6 Q 274.2 53.3, 273.6 52.6 Q 273.1 52.0, 272.1 52.0 Q 271.1 52.0, 270.6 52.6 Q 270.0 53.3, 270.0 54.6 Q 270.0 55.9, 270.6 56.5 Q 271.1 57.2, 272.1 57.2 " fill="#FF0000"/>
<path class="atom-10" d="M 218.1 10.1 L 219.0 10.1 L 219.0 12.8 L 222.4 12.8 L 222.4 10.1 L 223.2 10.1 L 223.2 16.6 L 222.4 16.6 L 222.4 13.6 L 219.0 13.6 L 219.0 16.6 L 218.1 16.6 L 218.1 10.1 " fill="#FF0000"/>
<path class="atom-10" d="M 224.6 13.3 Q 224.6 11.7, 225.3 10.9 Q 226.1 10.0, 227.6 10.0 Q 229.0 10.0, 229.8 10.9 Q 230.5 11.7, 230.5 13.3 Q 230.5 14.9, 229.8 15.8 Q 229.0 16.7, 227.6 16.7 Q 226.1 16.7, 225.3 15.8 Q 224.6 14.9, 224.6 13.3 M 227.6 15.9 Q 228.5 15.9, 229.1 15.3 Q 229.6 14.6, 229.6 13.3 Q 229.6 12.0, 229.1 11.4 Q 228.5 10.7, 227.6 10.7 Q 226.6 10.7, 226.0 11.4 Q 225.5 12.0, 225.5 13.3 Q 225.5 14.6, 226.0 15.3 Q 226.6 15.9, 227.6 15.9 " fill="#FF0000"/>
<path class="atom-15" d="M 141.7 98.5 L 142.6 98.5 L 142.6 101.3 L 145.9 101.3 L 145.9 98.5 L 146.8 98.5 L 146.8 105.0 L 145.9 105.0 L 145.9 102.0 L 142.6 102.0 L 142.6 105.0 L 141.7 105.0 L 141.7 98.5 " fill="#FF0000"/>
<path class="atom-15" d="M 148.2 101.7 Q 148.2 100.2, 148.9 99.3 Q 149.7 98.4, 151.1 98.4 Q 152.6 98.4, 153.4 99.3 Q 154.1 100.2, 154.1 101.7 Q 154.1 103.3, 153.3 104.2 Q 152.6 105.1, 151.1 105.1 Q 149.7 105.1, 148.9 104.2 Q 148.2 103.3, 148.2 101.7 M 151.1 104.4 Q 152.1 104.4, 152.7 103.7 Q 153.2 103.0, 153.2 101.7 Q 153.2 100.4, 152.7 99.8 Q 152.1 99.1, 151.1 99.1 Q 150.2 99.1, 149.6 99.8 Q 149.1 100.4, 149.1 101.7 Q 149.1 103.0, 149.6 103.7 Q 150.2 104.4, 151.1 104.4 " fill="#FF0000"/>
<path class="atom-21" d="M 150.8 181.4 Q 150.8 179.9, 151.5 179.0 Q 152.3 178.1, 153.8 178.1 Q 155.2 178.1, 156.0 179.0 Q 156.7 179.9, 156.7 181.4 Q 156.7 183.0, 156.0 183.9 Q 155.2 184.8, 153.8 184.8 Q 152.3 184.8, 151.5 183.9 Q 150.8 183.0, 150.8 181.4 M 153.8 184.0 Q 154.7 184.0, 155.3 183.4 Q 155.8 182.7, 155.8 181.4 Q 155.8 180.1, 155.3 179.5 Q 154.7 178.8, 153.8 178.8 Q 152.8 178.8, 152.2 179.5 Q 151.7 180.1, 151.7 181.4 Q 151.7 182.7, 152.2 183.4 Q 152.8 184.0, 153.8 184.0 " fill="#FF0000"/>
<path class="atom-21" d="M 157.7 178.2 L 158.6 178.2 L 158.6 180.9 L 162.0 180.9 L 162.0 178.2 L 162.8 178.2 L 162.8 184.7 L 162.0 184.7 L 162.0 181.7 L 158.6 181.7 L 158.6 184.7 L 157.7 184.7 L 157.7 178.2 " fill="#FF0000"/>
<path class="atom-28" d="M 47.4 157.3 L 48.3 157.3 L 48.3 160.1 L 51.6 160.1 L 51.6 157.3 L 52.5 157.3 L 52.5 163.8 L 51.6 163.8 L 51.6 160.8 L 48.3 160.8 L 48.3 163.8 L 47.4 163.8 L 47.4 157.3 " fill="#FF0000"/>
<path class="atom-28" d="M 53.9 160.6 Q 53.9 159.0, 54.6 158.1 Q 55.4 157.3, 56.8 157.3 Q 58.3 157.3, 59.0 158.1 Q 59.8 159.0, 59.8 160.6 Q 59.8 162.2, 59.0 163.0 Q 58.3 163.9, 56.8 163.9 Q 55.4 163.9, 54.6 163.0 Q 53.9 162.2, 53.9 160.6 M 56.8 163.2 Q 57.8 163.2, 58.4 162.5 Q 58.9 161.9, 58.9 160.6 Q 58.9 159.3, 58.4 158.7 Q 57.8 158.0, 56.8 158.0 Q 55.8 158.0, 55.3 158.6 Q 54.8 159.3, 54.8 160.6 Q 54.8 161.9, 55.3 162.5 Q 55.8 163.2, 56.8 163.2 " fill="#FF0000"/>
<path class="atom-34" d="M 130.3 72.2 Q 130.3 70.6, 131.0 69.7 Q 131.8 68.9, 133.2 68.9 Q 134.7 68.9, 135.5 69.7 Q 136.2 70.6, 136.2 72.2 Q 136.2 73.7, 135.4 74.6 Q 134.7 75.5, 133.2 75.5 Q 131.8 75.5, 131.0 74.6 Q 130.3 73.7, 130.3 72.2 M 133.2 74.8 Q 134.2 74.8, 134.8 74.1 Q 135.3 73.5, 135.3 72.2 Q 135.3 70.9, 134.8 70.2 Q 134.2 69.6, 133.2 69.6 Q 132.3 69.6, 131.7 70.2 Q 131.2 70.9, 131.2 72.2 Q 131.2 73.5, 131.7 74.1 Q 132.3 74.8, 133.2 74.8 " fill="#FF0000"/>
<path class="atom-34" d="M 137.2 68.9 L 138.1 68.9 L 138.1 71.7 L 141.4 71.7 L 141.4 68.9 L 142.3 68.9 L 142.3 75.4 L 141.4 75.4 L 141.4 72.4 L 138.1 72.4 L 138.1 75.4 L 137.2 75.4 L 137.2 68.9 " fill="#FF0000"/>
<path class="atom-36" d="M 51.2 80.9 Q 51.2 79.3, 52.0 78.4 Q 52.8 77.6, 54.2 77.6 Q 55.7 77.6, 56.4 78.4 Q 57.2 79.3, 57.2 80.9 Q 57.2 82.5, 56.4 83.4 Q 55.6 84.2, 54.2 84.2 Q 52.8 84.2, 52.0 83.4 Q 51.2 82.5, 51.2 80.9 M 54.2 83.5 Q 55.2 83.5, 55.7 82.9 Q 56.3 82.2, 56.3 80.9 Q 56.3 79.6, 55.7 79.0 Q 55.2 78.3, 54.2 78.3 Q 53.2 78.3, 52.7 79.0 Q 52.2 79.6, 52.2 80.9 Q 52.2 82.2, 52.7 82.9 Q 53.2 83.5, 54.2 83.5 " fill="#FF0000"/>
<path class="atom-37" d="M 67.2 44.5 Q 67.2 42.9, 68.0 42.0 Q 68.8 41.2, 70.2 41.2 Q 71.6 41.2, 72.4 42.0 Q 73.2 42.9, 73.2 44.5 Q 73.2 46.1, 72.4 47.0 Q 71.6 47.9, 70.2 47.9 Q 68.8 47.9, 68.0 47.0 Q 67.2 46.1, 67.2 44.5 M 70.2 47.1 Q 71.2 47.1, 71.7 46.5 Q 72.3 45.8, 72.3 44.5 Q 72.3 43.2, 71.7 42.6 Q 71.2 41.9, 70.2 41.9 Q 69.2 41.9, 68.7 42.6 Q 68.1 43.2, 68.1 44.5 Q 68.1 45.8, 68.7 46.5 Q 69.2 47.1, 70.2 47.1 " fill="#FF0000"/>
<path class="atom-37" d="M 74.2 41.3 L 75.1 41.3 L 75.1 44.0 L 78.4 44.0 L 78.4 41.3 L 79.3 41.3 L 79.3 47.8 L 78.4 47.8 L 78.4 44.7 L 75.1 44.7 L 75.1 47.8 L 74.2 47.8 L 74.2 41.3 " fill="#FF0000"/>
<path class="atom-39" d="M 227.2 93.0 Q 227.2 91.4, 227.9 90.6 Q 228.7 89.7, 230.2 89.7 Q 231.6 89.7, 232.4 90.6 Q 233.1 91.4, 233.1 93.0 Q 233.1 94.6, 232.4 95.5 Q 231.6 96.4, 230.2 96.4 Q 228.7 96.4, 227.9 95.5 Q 227.2 94.6, 227.2 93.0 M 230.2 95.6 Q 231.2 95.6, 231.7 95.0 Q 232.2 94.3, 232.2 93.0 Q 232.2 91.7, 231.7 91.1 Q 231.2 90.4, 230.2 90.4 Q 229.2 90.4, 228.6 91.1 Q 228.1 91.7, 228.1 93.0 Q 228.1 94.3, 228.6 95.0 Q 229.2 95.6, 230.2 95.6 " fill="#FF0000"/>
<path class="atom-40" d="M 211.2 129.4 Q 211.2 127.8, 212.0 127.0 Q 212.7 126.1, 214.2 126.1 Q 215.6 126.1, 216.4 127.0 Q 217.2 127.8, 217.2 129.4 Q 217.2 131.0, 216.4 131.9 Q 215.6 132.8, 214.2 132.8 Q 212.8 132.8, 212.0 131.9 Q 211.2 131.0, 211.2 129.4 M 214.2 132.0 Q 215.2 132.0, 215.7 131.4 Q 216.2 130.7, 216.2 129.4 Q 216.2 128.1, 215.7 127.5 Q 215.2 126.8, 214.2 126.8 Q 213.2 126.8, 212.7 127.5 Q 212.1 128.1, 212.1 129.4 Q 212.1 130.7, 212.7 131.4 Q 213.2 132.0, 214.2 132.0 " fill="#FF0000"/>
<path class="atom-40" d="M 218.2 126.2 L 219.1 126.2 L 219.1 128.9 L 222.4 128.9 L 222.4 126.2 L 223.3 126.2 L 223.3 132.7 L 222.4 132.7 L 222.4 129.7 L 219.1 129.7 L 219.1 132.7 L 218.2 132.7 L 218.2 126.2 " fill="#FF0000"/>
<path class="atom-46" d="M 292.1 186.6 Q 292.1 185.1, 292.9 184.2 Q 293.7 183.3, 295.1 183.3 Q 296.6 183.3, 297.3 184.2 Q 298.1 185.1, 298.1 186.6 Q 298.1 188.2, 297.3 189.1 Q 296.5 190.0, 295.1 190.0 Q 293.7 190.0, 292.9 189.1 Q 292.1 188.2, 292.1 186.6 M 295.1 189.3 Q 296.1 189.3, 296.6 188.6 Q 297.2 187.9, 297.2 186.6 Q 297.2 185.4, 296.6 184.7 Q 296.1 184.1, 295.1 184.1 Q 294.1 184.1, 293.6 184.7 Q 293.1 185.3, 293.1 186.6 Q 293.1 187.9, 293.6 188.6 Q 294.1 189.3, 295.1 189.3 " fill="#FF0000"/>
<path class="atom-46" d="M 299.1 183.4 L 300.0 183.4 L 300.0 186.2 L 303.3 186.2 L 303.3 183.4 L 304.2 183.4 L 304.2 189.9 L 303.3 189.9 L 303.3 186.9 L 300.0 186.9 L 300.0 189.9 L 299.1 189.9 L 299.1 183.4 " fill="#FF0000"/>
<path class="atom-48" d="M 245.1 122.6 Q 245.1 121.0, 245.9 120.1 Q 246.6 119.3, 248.1 119.3 Q 249.5 119.3, 250.3 120.1 Q 251.0 121.0, 251.0 122.6 Q 251.0 124.1, 250.3 125.0 Q 249.5 125.9, 248.1 125.9 Q 246.6 125.9, 245.9 125.0 Q 245.1 124.1, 245.1 122.6 M 248.1 125.2 Q 249.1 125.2, 249.6 124.5 Q 250.1 123.9, 250.1 122.6 Q 250.1 121.3, 249.6 120.6 Q 249.1 120.0, 248.1 120.0 Q 247.1 120.0, 246.5 120.6 Q 246.0 121.3, 246.0 122.6 Q 246.0 123.9, 246.5 124.5 Q 247.1 125.2, 248.1 125.2 " fill="#FF0000"/>
<path class="atom-49" d="M 222.7 155.7 L 223.6 155.7 L 223.6 158.5 L 226.9 158.5 L 226.9 155.7 L 227.8 155.7 L 227.8 162.2 L 226.9 162.2 L 226.9 159.2 L 223.6 159.2 L 223.6 162.2 L 222.7 162.2 L 222.7 155.7 " fill="#FF0000"/>
<path class="atom-49" d="M 229.1 159.0 Q 229.1 157.4, 229.9 156.5 Q 230.6 155.7, 232.1 155.7 Q 233.5 155.7, 234.3 156.5 Q 235.1 157.4, 235.1 159.0 Q 235.1 160.5, 234.3 161.4 Q 233.5 162.3, 232.1 162.3 Q 230.7 162.3, 229.9 161.4 Q 229.1 160.5, 229.1 159.0 M 232.1 161.6 Q 233.1 161.6, 233.6 160.9 Q 234.2 160.3, 234.2 159.0 Q 234.2 157.7, 233.6 157.0 Q 233.1 156.4, 232.1 156.4 Q 231.1 156.4, 230.6 157.0 Q 230.0 157.7, 230.0 159.0 Q 230.0 160.3, 230.6 160.9 Q 231.1 161.6, 232.1 161.6 " fill="#FF0000"/>
</svg>
