<?xml version='1.0' encoding='ASCII' standalone='yes'?>
<svg xmlns="http://www.w3.org/2000/svg" xmlns:rdkit="http://www.rdkit.org/xml" xmlns:xlink="http://www.w3.org/1999/xlink" version="1.1" baseProfile="full" xml:space="preserve" width="347px" height="200px" viewBox="0 0 347 200">
<!-- END OF HEADER -->
<rect style="opacity:1.0;fill:#FFFFFF;stroke:none" width="347.0" height="200.0" x="0.0" y="0.0"> </rect>
<path class="bond-0 atom-0 atom-1" d="M 296.3,84.5 L 289.5,108.4" style="fill:none;fill-rule:evenodd;stroke:#000000;stroke-width:2.0px;stroke-linecap:butt;stroke-linejoin:miter;stroke-opacity:1"/>
<path class="bond-1 atom-1 atom-2" d="M 289.5,108.4 L 282.7,132.3" style="fill:none;fill-rule:evenodd;stroke:#000000;stroke-width:2.0px;stroke-linecap:butt;stroke-linejoin:miter;stroke-opacity:1"/>
<path class="bond-2 atom-1 atom-3" d="M 289.5,108.4 L 313.4,115.2" style="fill:none;fill-rule:evenodd;stroke:#000000;stroke-width:2.0px;stroke-linecap:butt;stroke-linejoin:miter;stroke-opacity:1"/>
<path class="bond-3 atom-3 atom-4" d="M 313.4,115.2 L 315.9,125.1" style="fill:none;fill-rule:evenodd;stroke:#000000;stroke-width:2.0px;stroke-linecap:butt;stroke-linejoin:miter;stroke-opacity:1"/>
<path class="bond-3 atom-3 atom-4" d="M 315.9,125.1 L 318.4,134.9" style="fill:none;fill-rule:evenodd;stroke:#FF0000;stroke-width:2.0px;stroke-linecap:butt;stroke-linejoin:miter;stroke-opacity:1"/>
<path class="bond-4 atom-1 atom-5" d="M 289.5,108.4 L 265.6,101.6" style="fill:none;fill-rule:evenodd;stroke:#000000;stroke-width:2.0px;stroke-linecap:butt;stroke-linejoin:miter;stroke-opacity:1"/>
<path class="bond-5 atom-5 atom-6" d="M 265.6,101.6 L 247.8,118.9" style="fill:none;fill-rule:evenodd;stroke:#000000;stroke-width:2.0px;stroke-linecap:butt;stroke-linejoin:miter;stroke-opacity:1"/>
<path class="bond-6 atom-6 atom-7" d="M 247.8,118.9 L 223.9,112.2" style="fill:none;fill-rule:evenodd;stroke:#000000;stroke-width:2.0px;stroke-linecap:butt;stroke-linejoin:miter;stroke-opacity:1"/>
<path class="bond-7 atom-7 atom-8" d="M 223.9,112.2 L 206.1,129.5" style="fill:none;fill-rule:evenodd;stroke:#000000;stroke-width:2.0px;stroke-linecap:butt;stroke-linejoin:miter;stroke-opacity:1"/>
<path class="bond-8 atom-8 atom-9" d="M 206.1,129.5 L 182.1,122.7" style="fill:none;fill-rule:evenodd;stroke:#000000;stroke-width:2.0px;stroke-linecap:butt;stroke-linejoin:miter;stroke-opacity:1"/>
<path class="bond-9 atom-9 atom-10" d="M 182.1,122.7 L 158.2,115.9" style="fill:none;fill-rule:evenodd;stroke:#000000;stroke-width:2.0px;stroke-linecap:butt;stroke-linejoin:miter;stroke-opacity:1"/>
<path class="bond-10 atom-9 atom-11" d="M 182.1,122.7 L 175.4,146.6" style="fill:none;fill-rule:evenodd;stroke:#000000;stroke-width:2.0px;stroke-linecap:butt;stroke-linejoin:miter;stroke-opacity:1"/>
<path class="bond-11 atom-11 atom-12" d="M 175.4,146.6 L 165.3,149.1" style="fill:none;fill-rule:evenodd;stroke:#000000;stroke-width:2.0px;stroke-linecap:butt;stroke-linejoin:miter;stroke-opacity:1"/>
<path class="bond-11 atom-11 atom-12" d="M 165.3,149.1 L 155.3,151.7" style="fill:none;fill-rule:evenodd;stroke:#FF0000;stroke-width:2.0px;stroke-linecap:butt;stroke-linejoin:miter;stroke-opacity:1"/>
<path class="bond-12 atom-9 atom-13" d="M 182.1,122.7 L 188.9,98.8" style="fill:none;fill-rule:evenodd;stroke:#000000;stroke-width:2.0px;stroke-linecap:butt;stroke-linejoin:miter;stroke-opacity:1"/>
<path class="bond-13 atom-13 atom-14" d="M 188.9,98.8 L 171.6,81.0" style="fill:none;fill-rule:evenodd;stroke:#000000;stroke-width:2.0px;stroke-linecap:butt;stroke-linejoin:miter;stroke-opacity:1"/>
<path class="bond-14 atom-14 atom-15" d="M 171.6,81.0 L 160.7,66.5" style="fill:none;fill-rule:evenodd;stroke:#000000;stroke-width:2.0px;stroke-linecap:butt;stroke-linejoin:miter;stroke-opacity:1"/>
<path class="bond-15 atom-14 atom-16" d="M 171.6,81.0 L 189.4,63.6" style="fill:none;fill-rule:evenodd;stroke:#000000;stroke-width:2.0px;stroke-linecap:butt;stroke-linejoin:miter;stroke-opacity:1"/>
<path class="bond-16 atom-16 atom-17" d="M 187.9,65.1 L 198.4,68.1" style="fill:none;fill-rule:evenodd;stroke:#000000;stroke-width:2.0px;stroke-linecap:butt;stroke-linejoin:miter;stroke-opacity:1"/>
<path class="bond-16 atom-16 atom-17" d="M 198.4,68.1 L 208.8,71.0" style="fill:none;fill-rule:evenodd;stroke:#FF0000;stroke-width:2.0px;stroke-linecap:butt;stroke-linejoin:miter;stroke-opacity:1"/>
<path class="bond-16 atom-16 atom-17" d="M 188.9,61.6 L 199.4,64.5" style="fill:none;fill-rule:evenodd;stroke:#000000;stroke-width:2.0px;stroke-linecap:butt;stroke-linejoin:miter;stroke-opacity:1"/>
<path class="bond-16 atom-16 atom-17" d="M 199.4,64.5 L 209.8,67.5" style="fill:none;fill-rule:evenodd;stroke:#FF0000;stroke-width:2.0px;stroke-linecap:butt;stroke-linejoin:miter;stroke-opacity:1"/>
<path class="bond-17 atom-16 atom-18" d="M 189.4,63.6 L 187.0,53.8" style="fill:none;fill-rule:evenodd;stroke:#000000;stroke-width:2.0px;stroke-linecap:butt;stroke-linejoin:miter;stroke-opacity:1"/>
<path class="bond-17 atom-16 atom-18" d="M 187.0,53.8 L 184.5,44.0" style="fill:none;fill-rule:evenodd;stroke:#FF0000;stroke-width:2.0px;stroke-linecap:butt;stroke-linejoin:miter;stroke-opacity:1"/>
<path class="bond-18 atom-14 atom-19" d="M 171.6,81.0 L 153.8,98.3" style="fill:none;fill-rule:evenodd;stroke:#000000;stroke-width:2.0px;stroke-linecap:butt;stroke-linejoin:miter;stroke-opacity:1"/>
<path class="bond-19 atom-19 atom-20" d="M 153.8,98.3 L 171.1,116.1" style="fill:none;fill-rule:evenodd;stroke:#000000;stroke-width:2.0px;stroke-linecap:butt;stroke-linejoin:miter;stroke-opacity:1"/>
<path class="bond-20 atom-19 atom-21" d="M 153.8,98.3 L 146.9,105.0" style="fill:none;fill-rule:evenodd;stroke:#000000;stroke-width:2.0px;stroke-linecap:butt;stroke-linejoin:miter;stroke-opacity:1"/>
<path class="bond-20 atom-19 atom-21" d="M 146.9,105.0 L 140.0,111.7" style="fill:none;fill-rule:evenodd;stroke:#FF0000;stroke-width:2.0px;stroke-linecap:butt;stroke-linejoin:miter;stroke-opacity:1"/>
<path class="bond-21 atom-19 atom-22" d="M 153.8,98.3 L 136.5,80.4" style="fill:none;fill-rule:evenodd;stroke:#000000;stroke-width:2.0px;stroke-linecap:butt;stroke-linejoin:miter;stroke-opacity:1"/>
<path class="bond-22 atom-22 atom-23" d="M 136.5,80.4 L 147.8,66.3" style="fill:none;fill-rule:evenodd;stroke:#000000;stroke-width:2.0px;stroke-linecap:butt;stroke-linejoin:miter;stroke-opacity:1"/>
<path class="bond-23 atom-22 atom-24" d="M 136.5,80.4 L 119.2,62.6" style="fill:none;fill-rule:evenodd;stroke:#000000;stroke-width:2.0px;stroke-linecap:butt;stroke-linejoin:miter;stroke-opacity:1"/>
<path class="bond-24 atom-24 atom-25" d="M 119.2,62.6 L 109.1,65.1" style="fill:none;fill-rule:evenodd;stroke:#000000;stroke-width:2.0px;stroke-linecap:butt;stroke-linejoin:miter;stroke-opacity:1"/>
<path class="bond-24 atom-24 atom-25" d="M 109.1,65.1 L 99.1,67.7" style="fill:none;fill-rule:evenodd;stroke:#FF0000;stroke-width:2.0px;stroke-linecap:butt;stroke-linejoin:miter;stroke-opacity:1"/>
<path class="bond-25 atom-22 atom-26" d="M 136.5,80.4 L 118.6,97.8" style="fill:none;fill-rule:evenodd;stroke:#000000;stroke-width:2.0px;stroke-linecap:butt;stroke-linejoin:miter;stroke-opacity:1"/>
<path class="bond-26 atom-26 atom-27" d="M 118.6,97.8 L 94.7,91.0" style="fill:none;fill-rule:evenodd;stroke:#000000;stroke-width:2.0px;stroke-linecap:butt;stroke-linejoin:miter;stroke-opacity:1"/>
<path class="bond-27 atom-27 atom-28" d="M 94.7,91.0 L 76.9,108.3" style="fill:none;fill-rule:evenodd;stroke:#000000;stroke-width:2.0px;stroke-linecap:butt;stroke-linejoin:miter;stroke-opacity:1"/>
<path class="bond-28 atom-28 atom-29" d="M 76.9,108.3 L 53.0,101.5" style="fill:none;fill-rule:evenodd;stroke:#000000;stroke-width:2.0px;stroke-linecap:butt;stroke-linejoin:miter;stroke-opacity:1"/>
<path class="bond-29 atom-29 atom-30" d="M 53.0,101.5 L 35.2,118.8" style="fill:none;fill-rule:evenodd;stroke:#000000;stroke-width:2.0px;stroke-linecap:butt;stroke-linejoin:miter;stroke-opacity:1"/>
<path class="bond-30 atom-30 atom-31" d="M 35.2,118.8 L 52.5,136.6" style="fill:none;fill-rule:evenodd;stroke:#000000;stroke-width:2.0px;stroke-linecap:butt;stroke-linejoin:miter;stroke-opacity:1"/>
<path class="bond-31 atom-30 atom-32" d="M 35.2,118.8 L 17.9,101.0" style="fill:none;fill-rule:evenodd;stroke:#000000;stroke-width:2.0px;stroke-linecap:butt;stroke-linejoin:miter;stroke-opacity:1"/>
<path class="bond-32 atom-30 atom-33" d="M 35.2,118.8 L 17.4,136.1" style="fill:none;fill-rule:evenodd;stroke:#000000;stroke-width:2.0px;stroke-linecap:butt;stroke-linejoin:miter;stroke-opacity:1"/>
<path class="bond-33 atom-33 atom-34" d="M 17.4,136.1 L 19.8,146.0" style="fill:none;fill-rule:evenodd;stroke:#000000;stroke-width:2.0px;stroke-linecap:butt;stroke-linejoin:miter;stroke-opacity:1"/>
<path class="bond-33 atom-33 atom-34" d="M 19.8,146.0 L 22.3,155.9" style="fill:none;fill-rule:evenodd;stroke:#FF0000;stroke-width:2.0px;stroke-linecap:butt;stroke-linejoin:miter;stroke-opacity:1"/>
<path class="bond-34 atom-28 atom-35" d="M 76.9,108.3 L 83.0,132.4" style="fill:none;fill-rule:evenodd;stroke:#000000;stroke-width:2.0px;stroke-linecap:butt;stroke-linejoin:miter;stroke-opacity:1"/>
<path class="bond-35 atom-35 atom-36" d="M 81.5,133.9 L 91.9,136.8" style="fill:none;fill-rule:evenodd;stroke:#000000;stroke-width:2.0px;stroke-linecap:butt;stroke-linejoin:miter;stroke-opacity:1"/>
<path class="bond-35 atom-35 atom-36" d="M 91.9,136.8 L 102.4,139.8" style="fill:none;fill-rule:evenodd;stroke:#FF0000;stroke-width:2.0px;stroke-linecap:butt;stroke-linejoin:miter;stroke-opacity:1"/>
<path class="bond-35 atom-35 atom-36" d="M 82.5,130.3 L 92.9,133.3" style="fill:none;fill-rule:evenodd;stroke:#000000;stroke-width:2.0px;stroke-linecap:butt;stroke-linejoin:miter;stroke-opacity:1"/>
<path class="bond-35 atom-35 atom-36" d="M 92.9,133.3 L 103.4,136.2" style="fill:none;fill-rule:evenodd;stroke:#FF0000;stroke-width:2.0px;stroke-linecap:butt;stroke-linejoin:miter;stroke-opacity:1"/>
<path class="bond-36 atom-35 atom-37" d="M 83.0,132.4 L 76.1,139.1" style="fill:none;fill-rule:evenodd;stroke:#000000;stroke-width:2.0px;stroke-linecap:butt;stroke-linejoin:miter;stroke-opacity:1"/>
<path class="bond-36 atom-35 atom-37" d="M 76.1,139.1 L 69.2,145.8" style="fill:none;fill-rule:evenodd;stroke:#FF0000;stroke-width:2.0px;stroke-linecap:butt;stroke-linejoin:miter;stroke-opacity:1"/>
<path class="bond-37 atom-6 atom-38" d="M 247.8,118.9 L 253.9,143.0" style="fill:none;fill-rule:evenodd;stroke:#000000;stroke-width:2.0px;stroke-linecap:butt;stroke-linejoin:miter;stroke-opacity:1"/>
<path class="bond-38 atom-38 atom-39" d="M 252.4,144.5 L 262.8,147.5" style="fill:none;fill-rule:evenodd;stroke:#000000;stroke-width:2.0px;stroke-linecap:butt;stroke-linejoin:miter;stroke-opacity:1"/>
<path class="bond-38 atom-38 atom-39" d="M 262.8,147.5 L 273.2,150.4" style="fill:none;fill-rule:evenodd;stroke:#FF0000;stroke-width:2.0px;stroke-linecap:butt;stroke-linejoin:miter;stroke-opacity:1"/>
<path class="bond-38 atom-38 atom-39" d="M 253.4,141.0 L 263.8,143.9" style="fill:none;fill-rule:evenodd;stroke:#000000;stroke-width:2.0px;stroke-linecap:butt;stroke-linejoin:miter;stroke-opacity:1"/>
<path class="bond-38 atom-38 atom-39" d="M 263.8,143.9 L 274.2,146.9" style="fill:none;fill-rule:evenodd;stroke:#FF0000;stroke-width:2.0px;stroke-linecap:butt;stroke-linejoin:miter;stroke-opacity:1"/>
<path class="bond-39 atom-38 atom-40" d="M 253.9,143.0 L 247.0,149.7" style="fill:none;fill-rule:evenodd;stroke:#000000;stroke-width:2.0px;stroke-linecap:butt;stroke-linejoin:miter;stroke-opacity:1"/>
<path class="bond-39 atom-38 atom-40" d="M 247.0,149.7 L 240.1,156.4" style="fill:none;fill-rule:evenodd;stroke:#FF0000;stroke-width:2.0px;stroke-linecap:butt;stroke-linejoin:miter;stroke-opacity:1"/>
<path d="M 312.2,114.9 L 313.4,115.2 L 313.6,115.7" style="fill:none;stroke:#000000;stroke-width:2.0px;stroke-linecap:butt;stroke-linejoin:miter;stroke-opacity:1;"/>
<path d="M 266.8,102.0 L 265.6,101.6 L 264.7,102.5" style="fill:none;stroke:#000000;stroke-width:2.0px;stroke-linecap:butt;stroke-linejoin:miter;stroke-opacity:1;"/>
<path d="M 225.1,112.5 L 223.9,112.2 L 223.0,113.0" style="fill:none;stroke:#000000;stroke-width:2.0px;stroke-linecap:butt;stroke-linejoin:miter;stroke-opacity:1;"/>
<path d="M 206.9,128.6 L 206.1,129.5 L 204.9,129.1" style="fill:none;stroke:#000000;stroke-width:2.0px;stroke-linecap:butt;stroke-linejoin:miter;stroke-opacity:1;"/>
<path d="M 175.7,145.4 L 175.4,146.6 L 174.9,146.7" style="fill:none;stroke:#000000;stroke-width:2.0px;stroke-linecap:butt;stroke-linejoin:miter;stroke-opacity:1;"/>
<path d="M 188.6,100.0 L 188.9,98.8 L 188.1,97.9" style="fill:none;stroke:#000000;stroke-width:2.0px;stroke-linecap:butt;stroke-linejoin:miter;stroke-opacity:1;"/>
<path d="M 188.6,64.5 L 189.4,63.6 L 189.3,63.1" style="fill:none;stroke:#000000;stroke-width:2.0px;stroke-linecap:butt;stroke-linejoin:miter;stroke-opacity:1;"/>
<path d="M 120.0,63.5 L 119.2,62.6 L 118.7,62.7" style="fill:none;stroke:#000000;stroke-width:2.0px;stroke-linecap:butt;stroke-linejoin:miter;stroke-opacity:1;"/>
<path d="M 119.5,96.9 L 118.6,97.8 L 117.5,97.4" style="fill:none;stroke:#000000;stroke-width:2.0px;stroke-linecap:butt;stroke-linejoin:miter;stroke-opacity:1;"/>
<path d="M 95.9,91.3 L 94.7,91.0 L 93.9,91.8" style="fill:none;stroke:#000000;stroke-width:2.0px;stroke-linecap:butt;stroke-linejoin:miter;stroke-opacity:1;"/>
<path d="M 54.2,101.8 L 53.0,101.5 L 52.1,102.4" style="fill:none;stroke:#000000;stroke-width:2.0px;stroke-linecap:butt;stroke-linejoin:miter;stroke-opacity:1;"/>
<path d="M 18.2,135.3 L 17.4,136.1 L 17.5,136.6" style="fill:none;stroke:#000000;stroke-width:2.0px;stroke-linecap:butt;stroke-linejoin:miter;stroke-opacity:1;"/>
<path d="M 82.7,131.2 L 83.0,132.4 L 82.6,132.7" style="fill:none;stroke:#000000;stroke-width:2.0px;stroke-linecap:butt;stroke-linejoin:miter;stroke-opacity:1;"/>
<path d="M 253.6,141.8 L 253.9,143.0 L 253.5,143.4" style="fill:none;stroke:#000000;stroke-width:2.0px;stroke-linecap:butt;stroke-linejoin:miter;stroke-opacity:1;"/>
<path class="atom-4" d="M 316.3 139.3 Q 316.3 137.6, 317.1 136.7 Q 318.0 135.7, 319.5 135.7 Q 321.1 135.7, 321.9 136.7 Q 322.7 137.6, 322.7 139.3 Q 322.7 141.0, 321.9 142.0 Q 321.1 143.0, 319.5 143.0 Q 318.0 143.0, 317.1 142.0 Q 316.3 141.0, 316.3 139.3 M 319.5 142.2 Q 320.6 142.2, 321.2 141.4 Q 321.8 140.7, 321.8 139.3 Q 321.8 137.9, 321.2 137.2 Q 320.6 136.5, 319.5 136.5 Q 318.4 136.5, 317.9 137.2 Q 317.3 137.9, 317.3 139.3 Q 317.3 140.7, 317.9 141.4 Q 318.4 142.2, 319.5 142.2 " fill="#FF0000"/>
<path class="atom-4" d="M 323.8 135.8 L 324.8 135.8 L 324.8 138.8 L 328.4 138.8 L 328.4 135.8 L 329.4 135.8 L 329.4 142.8 L 328.4 142.8 L 328.4 139.6 L 324.8 139.6 L 324.8 142.8 L 323.8 142.8 L 323.8 135.8 " fill="#FF0000"/>
<path class="atom-12" d="M 141.1 149.2 L 142.0 149.2 L 142.0 152.2 L 145.6 152.2 L 145.6 149.2 L 146.6 149.2 L 146.6 156.2 L 145.6 156.2 L 145.6 153.0 L 142.0 153.0 L 142.0 156.2 L 141.1 156.2 L 141.1 149.2 " fill="#FF0000"/>
<path class="atom-12" d="M 148.0 152.7 Q 148.0 151.0, 148.9 150.1 Q 149.7 149.1, 151.3 149.1 Q 152.8 149.1, 153.7 150.1 Q 154.5 151.0, 154.5 152.7 Q 154.5 154.4, 153.7 155.4 Q 152.8 156.3, 151.3 156.3 Q 149.7 156.3, 148.9 155.4 Q 148.0 154.4, 148.0 152.7 M 151.3 155.5 Q 152.3 155.5, 152.9 154.8 Q 153.5 154.1, 153.5 152.7 Q 153.5 151.3, 152.9 150.6 Q 152.3 149.9, 151.3 149.9 Q 150.2 149.9, 149.6 150.6 Q 149.0 151.3, 149.0 152.7 Q 149.0 154.1, 149.6 154.8 Q 150.2 155.5, 151.3 155.5 " fill="#FF0000"/>
<path class="atom-17" d="M 210.1 70.4 Q 210.1 68.8, 211.0 67.8 Q 211.8 66.9, 213.4 66.9 Q 214.9 66.9, 215.8 67.8 Q 216.6 68.8, 216.6 70.4 Q 216.6 72.2, 215.7 73.1 Q 214.9 74.1, 213.4 74.1 Q 211.8 74.1, 211.0 73.1 Q 210.1 72.2, 210.1 70.4 M 213.4 73.3 Q 214.4 73.3, 215.0 72.6 Q 215.6 71.9, 215.6 70.4 Q 215.6 69.1, 215.0 68.4 Q 214.4 67.7, 213.4 67.7 Q 212.3 67.7, 211.7 68.4 Q 211.1 69.0, 211.1 70.4 Q 211.1 71.9, 211.7 72.6 Q 212.3 73.3, 213.4 73.3 " fill="#FF0000"/>
<path class="atom-18" d="M 180.1 39.6 Q 180.1 37.9, 181.0 36.9 Q 181.8 36.0, 183.4 36.0 Q 184.9 36.0, 185.8 36.9 Q 186.6 37.9, 186.6 39.6 Q 186.6 41.3, 185.8 42.2 Q 184.9 43.2, 183.4 43.2 Q 181.8 43.2, 181.0 42.2 Q 180.1 41.3, 180.1 39.6 M 183.4 42.4 Q 184.4 42.4, 185.0 41.7 Q 185.6 41.0, 185.6 39.6 Q 185.6 38.2, 185.0 37.5 Q 184.4 36.8, 183.4 36.8 Q 182.3 36.8, 181.7 37.5 Q 181.1 38.2, 181.1 39.6 Q 181.1 41.0, 181.7 41.7 Q 182.3 42.4, 183.4 42.4 " fill="#FF0000"/>
<path class="atom-18" d="M 187.7 36.1 L 188.6 36.1 L 188.6 39.1 L 192.2 39.1 L 192.2 36.1 L 193.2 36.1 L 193.2 43.1 L 192.2 43.1 L 192.2 39.8 L 188.6 39.8 L 188.6 43.1 L 187.7 43.1 L 187.7 36.1 " fill="#FF0000"/>
<path class="atom-21" d="M 125.8 112.1 L 126.7 112.1 L 126.7 115.1 L 130.3 115.1 L 130.3 112.1 L 131.3 112.1 L 131.3 119.1 L 130.3 119.1 L 130.3 115.9 L 126.7 115.9 L 126.7 119.1 L 125.8 119.1 L 125.8 112.1 " fill="#FF0000"/>
<path class="atom-21" d="M 132.7 115.6 Q 132.7 113.9, 133.6 113.0 Q 134.4 112.0, 136.0 112.0 Q 137.5 112.0, 138.4 113.0 Q 139.2 113.9, 139.2 115.6 Q 139.2 117.3, 138.3 118.3 Q 137.5 119.2, 136.0 119.2 Q 134.4 119.2, 133.6 118.3 Q 132.7 117.3, 132.7 115.6 M 136.0 118.5 Q 137.0 118.5, 137.6 117.7 Q 138.2 117.0, 138.2 115.6 Q 138.2 114.2, 137.6 113.5 Q 137.0 112.8, 136.0 112.8 Q 134.9 112.8, 134.3 113.5 Q 133.7 114.2, 133.7 115.6 Q 133.7 117.0, 134.3 117.7 Q 134.9 118.5, 136.0 118.5 " fill="#FF0000"/>
<path class="atom-25" d="M 84.9 65.2 L 85.8 65.2 L 85.8 68.2 L 89.4 68.2 L 89.4 65.2 L 90.4 65.2 L 90.4 72.2 L 89.4 72.2 L 89.4 69.0 L 85.8 69.0 L 85.8 72.2 L 84.9 72.2 L 84.9 65.2 " fill="#FF0000"/>
<path class="atom-25" d="M 91.8 68.7 Q 91.8 67.0, 92.7 66.1 Q 93.5 65.1, 95.1 65.1 Q 96.6 65.1, 97.5 66.1 Q 98.3 67.0, 98.3 68.7 Q 98.3 70.4, 97.5 71.4 Q 96.6 72.4, 95.1 72.4 Q 93.5 72.4, 92.7 71.4 Q 91.8 70.4, 91.8 68.7 M 95.1 71.6 Q 96.1 71.6, 96.7 70.8 Q 97.3 70.1, 97.3 68.7 Q 97.3 67.3, 96.7 66.6 Q 96.1 65.9, 95.1 65.9 Q 94.0 65.9, 93.4 66.6 Q 92.8 67.3, 92.8 68.7 Q 92.8 70.1, 93.4 70.8 Q 94.0 71.6, 95.1 71.6 " fill="#FF0000"/>
<path class="atom-34" d="M 20.2 160.2 Q 20.2 158.6, 21.0 157.6 Q 21.9 156.7, 23.4 156.7 Q 25.0 156.7, 25.8 157.6 Q 26.7 158.6, 26.7 160.2 Q 26.7 162.0, 25.8 162.9 Q 25.0 163.9, 23.4 163.9 Q 21.9 163.9, 21.0 162.9 Q 20.2 162.0, 20.2 160.2 M 23.4 163.1 Q 24.5 163.1, 25.1 162.4 Q 25.7 161.7, 25.7 160.2 Q 25.7 158.9, 25.1 158.2 Q 24.5 157.5, 23.4 157.5 Q 22.4 157.5, 21.8 158.2 Q 21.2 158.8, 21.2 160.2 Q 21.2 161.7, 21.8 162.4 Q 22.4 163.1, 23.4 163.1 " fill="#FF0000"/>
<path class="atom-34" d="M 27.8 156.7 L 28.7 156.7 L 28.7 159.7 L 32.3 159.7 L 32.3 156.7 L 33.3 156.7 L 33.3 163.8 L 32.3 163.8 L 32.3 160.5 L 28.7 160.5 L 28.7 163.8 L 27.8 163.8 L 27.8 156.7 " fill="#FF0000"/>
<path class="atom-36" d="M 103.7 139.2 Q 103.7 137.5, 104.5 136.5 Q 105.3 135.6, 106.9 135.6 Q 108.5 135.6, 109.3 136.5 Q 110.1 137.5, 110.1 139.2 Q 110.1 140.9, 109.3 141.9 Q 108.4 142.8, 106.9 142.8 Q 105.4 142.8, 104.5 141.9 Q 103.7 140.9, 103.7 139.2 M 106.9 142.0 Q 108.0 142.0, 108.6 141.3 Q 109.1 140.6, 109.1 139.2 Q 109.1 137.8, 108.6 137.1 Q 108.0 136.4, 106.9 136.4 Q 105.8 136.4, 105.2 137.1 Q 104.7 137.8, 104.7 139.2 Q 104.7 140.6, 105.2 141.3 Q 105.8 142.0, 106.9 142.0 " fill="#FF0000"/>
<path class="atom-37" d="M 55.0 146.2 L 55.9 146.2 L 55.9 149.2 L 59.5 149.2 L 59.5 146.2 L 60.5 146.2 L 60.5 153.2 L 59.5 153.2 L 59.5 150.0 L 55.9 150.0 L 55.9 153.2 L 55.0 153.2 L 55.0 146.2 " fill="#FF0000"/>
<path class="atom-37" d="M 61.9 149.7 Q 61.9 148.0, 62.8 147.1 Q 63.6 146.1, 65.2 146.1 Q 66.7 146.1, 67.6 147.1 Q 68.4 148.0, 68.4 149.7 Q 68.4 151.4, 67.6 152.4 Q 66.7 153.4, 65.2 153.4 Q 63.6 153.4, 62.8 152.4 Q 61.9 151.4, 61.9 149.7 M 65.2 152.6 Q 66.2 152.6, 66.8 151.8 Q 67.4 151.1, 67.4 149.7 Q 67.4 148.3, 66.8 147.6 Q 66.2 146.9, 65.2 146.9 Q 64.1 146.9, 63.5 147.6 Q 62.9 148.3, 62.9 149.7 Q 62.9 151.1, 63.5 151.8 Q 64.1 152.6, 65.2 152.6 " fill="#FF0000"/>
<path class="atom-39" d="M 274.6 149.8 Q 274.6 148.1, 275.4 147.2 Q 276.2 146.3, 277.8 146.3 Q 279.3 146.3, 280.2 147.2 Q 281.0 148.1, 281.0 149.8 Q 281.0 151.5, 280.2 152.5 Q 279.3 153.5, 277.8 153.5 Q 276.2 153.5, 275.4 152.5 Q 274.6 151.6, 274.6 149.8 M 277.8 152.7 Q 278.9 152.7, 279.4 152.0 Q 280.0 151.2, 280.0 149.8 Q 280.0 148.5, 279.4 147.8 Q 278.9 147.1, 277.8 147.1 Q 276.7 147.1, 276.1 147.8 Q 275.5 148.4, 275.5 149.8 Q 275.5 151.3, 276.1 152.0 Q 276.7 152.7, 277.8 152.7 " fill="#FF0000"/>
<path class="atom-40" d="M 225.9 156.9 L 226.8 156.9 L 226.8 159.9 L 230.4 159.9 L 230.4 156.9 L 231.4 156.9 L 231.4 163.9 L 230.4 163.9 L 230.4 160.7 L 226.8 160.7 L 226.8 163.9 L 225.9 163.9 L 225.9 156.9 " fill="#FF0000"/>
<path class="atom-40" d="M 232.8 160.4 Q 232.8 158.7, 233.6 157.7 Q 234.5 156.8, 236.0 156.8 Q 237.6 156.8, 238.4 157.7 Q 239.3 158.7, 239.3 160.4 Q 239.3 162.1, 238.4 163.1 Q 237.6 164.0, 236.0 164.0 Q 234.5 164.0, 233.6 163.1 Q 232.8 162.1, 232.8 160.4 M 236.0 163.2 Q 237.1 163.2, 237.7 162.5 Q 238.3 161.8, 238.3 160.4 Q 238.3 159.0, 237.7 158.3 Q 237.1 157.6, 236.0 157.6 Q 235.0 157.6, 234.4 158.3 Q 233.8 159.0, 233.8 160.4 Q 233.8 161.8, 234.4 162.5 Q 235.0 163.2, 236.0 163.2 " fill="#FF0000"/>
</svg>
