<?xml version='1.0' encoding='ASCII' standalone='yes'?>
<svg xmlns="http://www.w3.org/2000/svg" xmlns:rdkit="http://www.rdkit.org/xml" xmlns:xlink="http://www.w3.org/1999/xlink" version="1.1" baseProfile="full" xml:space="preserve" width="320px" height="200px" viewBox="0 0 320 200">
<!-- END OF HEADER -->
<rect style="opacity:1.0;fill:#FFFFFF;stroke:none" width="320.0" height="200.0" x="0.0" y="0.0"> </rect>
<path class="bond-0 atom-0 atom-1" d="M 123.6,127.3 L 104.3,106.5" style="fill:none;fill-rule:evenodd;stroke:#000000;stroke-width:2.0px;stroke-linecap:butt;stroke-linejoin:miter;stroke-opacity:1"/>
<path class="bond-0 atom-0 atom-1" d="M 126.6,124.6 L 107.3,103.7" style="fill:none;fill-rule:evenodd;stroke:#000000;stroke-width:2.0px;stroke-linecap:butt;stroke-linejoin:miter;stroke-opacity:1"/>
<path class="bond-1 atom-1 atom-2" d="M 106.6,105.9 L 80.1,111.9" style="fill:none;fill-rule:evenodd;stroke:#000000;stroke-width:2.0px;stroke-linecap:butt;stroke-linejoin:miter;stroke-opacity:1"/>
<path class="bond-2 atom-2 atom-3" d="M 78.5,110.2 L 75.0,121.4" style="fill:none;fill-rule:evenodd;stroke:#000000;stroke-width:2.0px;stroke-linecap:butt;stroke-linejoin:miter;stroke-opacity:1"/>
<path class="bond-2 atom-2 atom-3" d="M 75.0,121.4 L 71.5,132.6" style="fill:none;fill-rule:evenodd;stroke:#FF0000;stroke-width:2.0px;stroke-linecap:butt;stroke-linejoin:miter;stroke-opacity:1"/>
<path class="bond-2 atom-2 atom-3" d="M 82.4,111.4 L 78.9,122.6" style="fill:none;fill-rule:evenodd;stroke:#000000;stroke-width:2.0px;stroke-linecap:butt;stroke-linejoin:miter;stroke-opacity:1"/>
<path class="bond-2 atom-2 atom-3" d="M 78.9,122.6 L 75.4,133.8" style="fill:none;fill-rule:evenodd;stroke:#FF0000;stroke-width:2.0px;stroke-linecap:butt;stroke-linejoin:miter;stroke-opacity:1"/>
<path class="bond-3 atom-2 atom-4" d="M 80.1,111.9 L 73.0,104.3" style="fill:none;fill-rule:evenodd;stroke:#000000;stroke-width:2.0px;stroke-linecap:butt;stroke-linejoin:miter;stroke-opacity:1"/>
<path class="bond-3 atom-2 atom-4" d="M 73.0,104.3 L 66.0,96.7" style="fill:none;fill-rule:evenodd;stroke:#FF0000;stroke-width:2.0px;stroke-linecap:butt;stroke-linejoin:miter;stroke-opacity:1"/>
<path class="bond-4 atom-1 atom-5" d="M 106.6,105.9 L 114.7,79.9" style="fill:none;fill-rule:evenodd;stroke:#000000;stroke-width:2.0px;stroke-linecap:butt;stroke-linejoin:miter;stroke-opacity:1"/>
<path class="bond-5 atom-5 atom-6" d="M 114.7,79.9 L 141.3,73.9" style="fill:none;fill-rule:evenodd;stroke:#000000;stroke-width:2.0px;stroke-linecap:butt;stroke-linejoin:miter;stroke-opacity:1"/>
<path class="bond-6 atom-6 atom-7" d="M 141.3,73.9 L 159.8,93.9" style="fill:none;fill-rule:evenodd;stroke:#000000;stroke-width:2.0px;stroke-linecap:butt;stroke-linejoin:miter;stroke-opacity:1"/>
<path class="bond-6 atom-6 atom-7" d="M 139.9,78.4 L 155.2,95.0" style="fill:none;fill-rule:evenodd;stroke:#000000;stroke-width:2.0px;stroke-linecap:butt;stroke-linejoin:miter;stroke-opacity:1"/>
<path class="bond-7 atom-7 atom-8" d="M 159.8,93.9 L 151.7,119.9" style="fill:none;fill-rule:evenodd;stroke:#000000;stroke-width:2.0px;stroke-linecap:butt;stroke-linejoin:miter;stroke-opacity:1"/>
<path class="bond-8 atom-8 atom-9" d="M 151.7,119.9 L 170.2,140.0" style="fill:none;fill-rule:evenodd;stroke:#000000;stroke-width:2.0px;stroke-linecap:butt;stroke-linejoin:miter;stroke-opacity:1"/>
<path class="bond-9 atom-9 atom-10" d="M 170.2,140.0 L 162.1,166.0" style="fill:none;fill-rule:evenodd;stroke:#000000;stroke-width:2.0px;stroke-linecap:butt;stroke-linejoin:miter;stroke-opacity:1"/>
<path class="bond-10 atom-10 atom-11" d="M 162.8,163.7 L 151.1,166.3" style="fill:none;fill-rule:evenodd;stroke:#000000;stroke-width:2.0px;stroke-linecap:butt;stroke-linejoin:miter;stroke-opacity:1"/>
<path class="bond-10 atom-10 atom-11" d="M 151.1,166.3 L 139.5,169.0" style="fill:none;fill-rule:evenodd;stroke:#FF0000;stroke-width:2.0px;stroke-linecap:butt;stroke-linejoin:miter;stroke-opacity:1"/>
<path class="bond-10 atom-10 atom-11" d="M 163.7,167.7 L 152.0,170.3" style="fill:none;fill-rule:evenodd;stroke:#000000;stroke-width:2.0px;stroke-linecap:butt;stroke-linejoin:miter;stroke-opacity:1"/>
<path class="bond-10 atom-10 atom-11" d="M 152.0,170.3 L 140.4,173.0" style="fill:none;fill-rule:evenodd;stroke:#FF0000;stroke-width:2.0px;stroke-linecap:butt;stroke-linejoin:miter;stroke-opacity:1"/>
<path class="bond-11 atom-10 atom-12" d="M 162.1,166.0 L 169.1,173.6" style="fill:none;fill-rule:evenodd;stroke:#000000;stroke-width:2.0px;stroke-linecap:butt;stroke-linejoin:miter;stroke-opacity:1"/>
<path class="bond-11 atom-10 atom-12" d="M 169.1,173.6 L 176.1,181.2" style="fill:none;fill-rule:evenodd;stroke:#FF0000;stroke-width:2.0px;stroke-linecap:butt;stroke-linejoin:miter;stroke-opacity:1"/>
<path class="bond-12 atom-7 atom-13" d="M 159.8,93.9 L 186.3,87.9" style="fill:none;fill-rule:evenodd;stroke:#000000;stroke-width:2.0px;stroke-linecap:butt;stroke-linejoin:miter;stroke-opacity:1"/>
<path class="bond-13 atom-13 atom-14" d="M 186.3,87.9 L 188.8,98.8" style="fill:none;fill-rule:evenodd;stroke:#000000;stroke-width:2.0px;stroke-linecap:butt;stroke-linejoin:miter;stroke-opacity:1"/>
<path class="bond-13 atom-13 atom-14" d="M 188.8,98.8 L 191.3,109.7" style="fill:none;fill-rule:evenodd;stroke:#FF0000;stroke-width:2.0px;stroke-linecap:butt;stroke-linejoin:miter;stroke-opacity:1"/>
<path class="bond-14 atom-13 atom-15" d="M 186.3,87.9 L 183.9,77.1" style="fill:none;fill-rule:evenodd;stroke:#000000;stroke-width:2.0px;stroke-linecap:butt;stroke-linejoin:miter;stroke-opacity:1"/>
<path class="bond-14 atom-13 atom-15" d="M 183.9,77.1 L 181.4,66.3" style="fill:none;fill-rule:evenodd;stroke:#FF0000;stroke-width:2.0px;stroke-linecap:butt;stroke-linejoin:miter;stroke-opacity:1"/>
<path class="bond-15 atom-13 atom-16" d="M 186.3,87.9 L 212.9,81.9" style="fill:none;fill-rule:evenodd;stroke:#000000;stroke-width:2.0px;stroke-linecap:butt;stroke-linejoin:miter;stroke-opacity:1"/>
<path class="bond-16 atom-16 atom-17" d="M 212.9,81.9 L 221.0,55.9" style="fill:none;fill-rule:evenodd;stroke:#000000;stroke-width:2.0px;stroke-linecap:butt;stroke-linejoin:miter;stroke-opacity:1"/>
<path class="bond-17 atom-17 atom-18" d="M 221.0,55.9 L 247.6,49.9" style="fill:none;fill-rule:evenodd;stroke:#000000;stroke-width:2.0px;stroke-linecap:butt;stroke-linejoin:miter;stroke-opacity:1"/>
<path class="bond-18 atom-18 atom-19" d="M 245.3,50.4 L 252.7,58.5" style="fill:none;fill-rule:evenodd;stroke:#000000;stroke-width:2.0px;stroke-linecap:butt;stroke-linejoin:miter;stroke-opacity:1"/>
<path class="bond-18 atom-18 atom-19" d="M 252.7,58.5 L 260.1,66.5" style="fill:none;fill-rule:evenodd;stroke:#FF0000;stroke-width:2.0px;stroke-linecap:butt;stroke-linejoin:miter;stroke-opacity:1"/>
<path class="bond-18 atom-18 atom-19" d="M 248.3,47.7 L 255.7,55.7" style="fill:none;fill-rule:evenodd;stroke:#000000;stroke-width:2.0px;stroke-linecap:butt;stroke-linejoin:miter;stroke-opacity:1"/>
<path class="bond-18 atom-18 atom-19" d="M 255.7,55.7 L 263.1,63.7" style="fill:none;fill-rule:evenodd;stroke:#FF0000;stroke-width:2.0px;stroke-linecap:butt;stroke-linejoin:miter;stroke-opacity:1"/>
<path class="bond-19 atom-18 atom-20" d="M 247.6,49.9 L 250.8,39.4" style="fill:none;fill-rule:evenodd;stroke:#000000;stroke-width:2.0px;stroke-linecap:butt;stroke-linejoin:miter;stroke-opacity:1"/>
<path class="bond-19 atom-18 atom-20" d="M 250.8,39.4 L 254.1,28.8" style="fill:none;fill-rule:evenodd;stroke:#FF0000;stroke-width:2.0px;stroke-linecap:butt;stroke-linejoin:miter;stroke-opacity:1"/>
<path class="bond-20 atom-16 atom-21" d="M 212.9,81.9 L 231.4,101.9" style="fill:none;fill-rule:evenodd;stroke:#000000;stroke-width:2.0px;stroke-linecap:butt;stroke-linejoin:miter;stroke-opacity:1"/>
<path class="bond-21 atom-21 atom-22" d="M 230.7,104.2 L 258.4,97.9" style="fill:none;fill-rule:evenodd;stroke:#000000;stroke-width:2.0px;stroke-linecap:butt;stroke-linejoin:miter;stroke-opacity:1"/>
<path class="bond-21 atom-21 atom-22" d="M 229.8,100.2 L 257.5,93.9" style="fill:none;fill-rule:evenodd;stroke:#000000;stroke-width:2.0px;stroke-linecap:butt;stroke-linejoin:miter;stroke-opacity:1"/>
<path class="bond-22 atom-21 atom-23" d="M 231.4,101.9 L 223.3,128.0" style="fill:none;fill-rule:evenodd;stroke:#000000;stroke-width:2.0px;stroke-linecap:butt;stroke-linejoin:miter;stroke-opacity:1"/>
<path class="bond-23 atom-23 atom-24" d="M 224.0,125.7 L 212.4,128.3" style="fill:none;fill-rule:evenodd;stroke:#000000;stroke-width:2.0px;stroke-linecap:butt;stroke-linejoin:miter;stroke-opacity:1"/>
<path class="bond-23 atom-23 atom-24" d="M 212.4,128.3 L 200.7,131.0" style="fill:none;fill-rule:evenodd;stroke:#FF0000;stroke-width:2.0px;stroke-linecap:butt;stroke-linejoin:miter;stroke-opacity:1"/>
<path class="bond-23 atom-23 atom-24" d="M 224.9,129.7 L 213.3,132.3" style="fill:none;fill-rule:evenodd;stroke:#000000;stroke-width:2.0px;stroke-linecap:butt;stroke-linejoin:miter;stroke-opacity:1"/>
<path class="bond-23 atom-23 atom-24" d="M 213.3,132.3 L 201.6,134.9" style="fill:none;fill-rule:evenodd;stroke:#FF0000;stroke-width:2.0px;stroke-linecap:butt;stroke-linejoin:miter;stroke-opacity:1"/>
<path class="bond-24 atom-23 atom-25" d="M 223.3,128.0 L 230.3,135.6" style="fill:none;fill-rule:evenodd;stroke:#000000;stroke-width:2.0px;stroke-linecap:butt;stroke-linejoin:miter;stroke-opacity:1"/>
<path class="bond-24 atom-23 atom-25" d="M 230.3,135.6 L 237.4,143.2" style="fill:none;fill-rule:evenodd;stroke:#FF0000;stroke-width:2.0px;stroke-linecap:butt;stroke-linejoin:miter;stroke-opacity:1"/>
<path class="bond-25 atom-5 atom-26" d="M 114.7,79.9 L 96.2,59.9" style="fill:none;fill-rule:evenodd;stroke:#000000;stroke-width:2.0px;stroke-linecap:butt;stroke-linejoin:miter;stroke-opacity:1"/>
<path class="bond-26 atom-26 atom-27" d="M 96.2,59.9 L 104.3,33.9" style="fill:none;fill-rule:evenodd;stroke:#000000;stroke-width:2.0px;stroke-linecap:butt;stroke-linejoin:miter;stroke-opacity:1"/>
<path class="bond-27 atom-27 atom-28" d="M 103.6,36.2 L 115.3,33.5" style="fill:none;fill-rule:evenodd;stroke:#000000;stroke-width:2.0px;stroke-linecap:butt;stroke-linejoin:miter;stroke-opacity:1"/>
<path class="bond-27 atom-27 atom-28" d="M 115.3,33.5 L 126.9,30.9" style="fill:none;fill-rule:evenodd;stroke:#FF0000;stroke-width:2.0px;stroke-linecap:butt;stroke-linejoin:miter;stroke-opacity:1"/>
<path class="bond-27 atom-27 atom-28" d="M 102.7,32.2 L 114.4,29.5" style="fill:none;fill-rule:evenodd;stroke:#000000;stroke-width:2.0px;stroke-linecap:butt;stroke-linejoin:miter;stroke-opacity:1"/>
<path class="bond-27 atom-27 atom-28" d="M 114.4,29.5 L 126.0,26.9" style="fill:none;fill-rule:evenodd;stroke:#FF0000;stroke-width:2.0px;stroke-linecap:butt;stroke-linejoin:miter;stroke-opacity:1"/>
<path class="bond-28 atom-27 atom-29" d="M 104.3,33.9 L 97.3,26.3" style="fill:none;fill-rule:evenodd;stroke:#000000;stroke-width:2.0px;stroke-linecap:butt;stroke-linejoin:miter;stroke-opacity:1"/>
<path class="bond-28 atom-27 atom-29" d="M 97.3,26.3 L 90.3,18.7" style="fill:none;fill-rule:evenodd;stroke:#FF0000;stroke-width:2.0px;stroke-linecap:butt;stroke-linejoin:miter;stroke-opacity:1"/>
<path d="M 105.3,106.2 L 106.6,105.9 L 107.0,104.6" style="fill:none;stroke:#000000;stroke-width:2.0px;stroke-linecap:butt;stroke-linejoin:miter;stroke-opacity:1;"/>
<path d="M 81.4,111.6 L 80.1,111.9 L 79.7,111.6" style="fill:none;stroke:#000000;stroke-width:2.0px;stroke-linecap:butt;stroke-linejoin:miter;stroke-opacity:1;"/>
<path d="M 140.0,74.2 L 141.3,73.9 L 142.2,74.9" style="fill:none;stroke:#000000;stroke-width:2.0px;stroke-linecap:butt;stroke-linejoin:miter;stroke-opacity:1;"/>
<path d="M 152.1,118.6 L 151.7,119.9 L 152.6,120.9" style="fill:none;stroke:#000000;stroke-width:2.0px;stroke-linecap:butt;stroke-linejoin:miter;stroke-opacity:1;"/>
<path d="M 169.2,139.0 L 170.2,140.0 L 169.8,141.3" style="fill:none;stroke:#000000;stroke-width:2.0px;stroke-linecap:butt;stroke-linejoin:miter;stroke-opacity:1;"/>
<path d="M 162.5,164.7 L 162.1,166.0 L 162.4,166.4" style="fill:none;stroke:#000000;stroke-width:2.0px;stroke-linecap:butt;stroke-linejoin:miter;stroke-opacity:1;"/>
<path d="M 220.6,57.2 L 221.0,55.9 L 222.3,55.6" style="fill:none;stroke:#000000;stroke-width:2.0px;stroke-linecap:butt;stroke-linejoin:miter;stroke-opacity:1;"/>
<path d="M 246.2,50.2 L 247.6,49.9 L 247.7,49.4" style="fill:none;stroke:#000000;stroke-width:2.0px;stroke-linecap:butt;stroke-linejoin:miter;stroke-opacity:1;"/>
<path d="M 230.5,100.9 L 231.4,101.9 L 231.0,103.2" style="fill:none;stroke:#000000;stroke-width:2.0px;stroke-linecap:butt;stroke-linejoin:miter;stroke-opacity:1;"/>
<path d="M 223.7,126.7 L 223.3,128.0 L 223.7,128.3" style="fill:none;stroke:#000000;stroke-width:2.0px;stroke-linecap:butt;stroke-linejoin:miter;stroke-opacity:1;"/>
<path d="M 97.2,60.9 L 96.2,59.9 L 96.6,58.6" style="fill:none;stroke:#000000;stroke-width:2.0px;stroke-linecap:butt;stroke-linejoin:miter;stroke-opacity:1;"/>
<path d="M 103.9,35.2 L 104.3,33.9 L 104.0,33.5" style="fill:none;stroke:#000000;stroke-width:2.0px;stroke-linecap:butt;stroke-linejoin:miter;stroke-opacity:1;"/>
<path class="atom-3" d="M 68.4 138.0 Q 68.4 136.1, 69.3 135.1 Q 70.3 134.1, 72.0 134.1 Q 73.7 134.1, 74.6 135.1 Q 75.5 136.1, 75.5 138.0 Q 75.5 139.9, 74.6 140.9 Q 73.7 142.0, 72.0 142.0 Q 70.3 142.0, 69.3 140.9 Q 68.4 139.9, 68.4 138.0 M 72.0 141.1 Q 73.1 141.1, 73.8 140.3 Q 74.4 139.5, 74.4 138.0 Q 74.4 136.5, 73.8 135.7 Q 73.1 134.9, 72.0 134.9 Q 70.8 134.9, 70.1 135.7 Q 69.5 136.5, 69.5 138.0 Q 69.5 139.5, 70.1 140.3 Q 70.8 141.1, 72.0 141.1 " fill="#FF0000"/>
<path class="atom-4" d="M 50.4 88.1 L 51.5 88.1 L 51.5 91.4 L 55.4 91.4 L 55.4 88.1 L 56.4 88.1 L 56.4 95.8 L 55.4 95.8 L 55.4 92.3 L 51.5 92.3 L 51.5 95.8 L 50.4 95.8 L 50.4 88.1 " fill="#FF0000"/>
<path class="atom-4" d="M 58.0 92.0 Q 58.0 90.1, 58.9 89.1 Q 59.9 88.0, 61.6 88.0 Q 63.3 88.0, 64.2 89.1 Q 65.1 90.1, 65.1 92.0 Q 65.1 93.8, 64.2 94.9 Q 63.3 96.0, 61.6 96.0 Q 59.9 96.0, 58.9 94.9 Q 58.0 93.8, 58.0 92.0 M 61.6 95.1 Q 62.7 95.1, 63.4 94.3 Q 64.0 93.5, 64.0 92.0 Q 64.0 90.4, 63.4 89.7 Q 62.7 88.9, 61.6 88.9 Q 60.4 88.9, 59.8 89.7 Q 59.1 90.4, 59.1 92.0 Q 59.1 93.5, 59.8 94.3 Q 60.4 95.1, 61.6 95.1 " fill="#FF0000"/>
<path class="atom-11" d="M 132.0 172.0 Q 132.0 170.1, 132.9 169.1 Q 133.8 168.1, 135.5 168.1 Q 137.2 168.1, 138.1 169.1 Q 139.0 170.1, 139.0 172.0 Q 139.0 173.9, 138.1 174.9 Q 137.2 176.0, 135.5 176.0 Q 133.8 176.0, 132.9 174.9 Q 132.0 173.9, 132.0 172.0 M 135.5 175.1 Q 136.7 175.1, 137.3 174.3 Q 138.0 173.5, 138.0 172.0 Q 138.0 170.5, 137.3 169.7 Q 136.7 168.9, 135.5 168.9 Q 134.3 168.9, 133.7 169.7 Q 133.1 170.5, 133.1 172.0 Q 133.1 173.6, 133.7 174.3 Q 134.3 175.1, 135.5 175.1 " fill="#FF0000"/>
<path class="atom-12" d="M 177.0 186.0 Q 177.0 184.1, 177.9 183.1 Q 178.9 182.1, 180.6 182.1 Q 182.3 182.1, 183.2 183.1 Q 184.1 184.1, 184.1 186.0 Q 184.1 187.9, 183.2 188.9 Q 182.2 190.0, 180.6 190.0 Q 178.9 190.0, 177.9 188.9 Q 177.0 187.9, 177.0 186.0 M 180.6 189.1 Q 181.7 189.1, 182.4 188.3 Q 183.0 187.5, 183.0 186.0 Q 183.0 184.5, 182.4 183.7 Q 181.7 183.0, 180.6 183.0 Q 179.4 183.0, 178.7 183.7 Q 178.1 184.5, 178.1 186.0 Q 178.1 187.6, 178.7 188.3 Q 179.4 189.1, 180.6 189.1 " fill="#FF0000"/>
<path class="atom-12" d="M 185.3 182.2 L 186.3 182.2 L 186.3 185.4 L 190.3 185.4 L 190.3 182.2 L 191.3 182.2 L 191.3 189.9 L 190.3 189.9 L 190.3 186.3 L 186.3 186.3 L 186.3 189.9 L 185.3 189.9 L 185.3 182.2 " fill="#FF0000"/>
<path class="atom-14" d="M 188.8 114.5 Q 188.8 112.7, 189.7 111.6 Q 190.6 110.6, 192.3 110.6 Q 194.0 110.6, 195.0 111.6 Q 195.9 112.7, 195.9 114.5 Q 195.9 116.4, 195.0 117.5 Q 194.0 118.5, 192.3 118.5 Q 190.6 118.5, 189.7 117.5 Q 188.8 116.4, 188.8 114.5 M 192.3 117.7 Q 193.5 117.7, 194.1 116.9 Q 194.8 116.1, 194.8 114.5 Q 194.8 113.0, 194.1 112.2 Q 193.5 111.5, 192.3 111.5 Q 191.2 111.5, 190.5 112.2 Q 189.9 113.0, 189.9 114.5 Q 189.9 116.1, 190.5 116.9 Q 191.2 117.7, 192.3 117.7 " fill="#FF0000"/>
<path class="atom-14" d="M 197.1 110.7 L 198.1 110.7 L 198.1 114.0 L 202.1 114.0 L 202.1 110.7 L 203.1 110.7 L 203.1 118.4 L 202.1 118.4 L 202.1 114.8 L 198.1 114.8 L 198.1 118.4 L 197.1 118.4 L 197.1 110.7 " fill="#FF0000"/>
<path class="atom-15" d="M 176.8 61.4 Q 176.8 59.5, 177.7 58.5 Q 178.6 57.5, 180.3 57.5 Q 182.0 57.5, 183.0 58.5 Q 183.9 59.5, 183.9 61.4 Q 183.9 63.3, 182.9 64.3 Q 182.0 65.4, 180.3 65.4 Q 178.6 65.4, 177.7 64.3 Q 176.8 63.3, 176.8 61.4 M 180.3 64.5 Q 181.5 64.5, 182.1 63.7 Q 182.8 62.9, 182.8 61.4 Q 182.8 59.9, 182.1 59.1 Q 181.5 58.3, 180.3 58.3 Q 179.2 58.3, 178.5 59.1 Q 177.9 59.9, 177.9 61.4 Q 177.9 62.9, 178.5 63.7 Q 179.2 64.5, 180.3 64.5 " fill="#FF0000"/>
<path class="atom-15" d="M 185.1 57.6 L 186.1 57.6 L 186.1 60.8 L 190.1 60.8 L 190.1 57.6 L 191.1 57.6 L 191.1 65.3 L 190.1 65.3 L 190.1 61.7 L 186.1 61.7 L 186.1 65.3 L 185.1 65.3 L 185.1 57.6 " fill="#FF0000"/>
<path class="atom-19" d="M 262.5 69.9 Q 262.5 68.1, 263.4 67.1 Q 264.3 66.0, 266.0 66.0 Q 267.8 66.0, 268.7 67.1 Q 269.6 68.1, 269.6 69.9 Q 269.6 71.8, 268.7 72.9 Q 267.7 73.9, 266.0 73.9 Q 264.3 73.9, 263.4 72.9 Q 262.5 71.8, 262.5 69.9 M 266.0 73.1 Q 267.2 73.1, 267.9 72.3 Q 268.5 71.5, 268.5 69.9 Q 268.5 68.4, 267.9 67.7 Q 267.2 66.9, 266.0 66.9 Q 264.9 66.9, 264.2 67.7 Q 263.6 68.4, 263.6 69.9 Q 263.6 71.5, 264.2 72.3 Q 264.9 73.1, 266.0 73.1 " fill="#FF0000"/>
<path class="atom-20" d="M 252.1 23.9 Q 252.1 22.1, 253.0 21.0 Q 253.9 20.0, 255.6 20.0 Q 257.4 20.0, 258.3 21.0 Q 259.2 22.1, 259.2 23.9 Q 259.2 25.8, 258.3 26.9 Q 257.3 27.9, 255.6 27.9 Q 254.0 27.9, 253.0 26.9 Q 252.1 25.8, 252.1 23.9 M 255.6 27.1 Q 256.8 27.1, 257.5 26.3 Q 258.1 25.5, 258.1 23.9 Q 258.1 22.4, 257.5 21.6 Q 256.8 20.9, 255.6 20.9 Q 254.5 20.9, 253.8 21.6 Q 253.2 22.4, 253.2 23.9 Q 253.2 25.5, 253.8 26.3 Q 254.5 27.1, 255.6 27.1 " fill="#FF0000"/>
<path class="atom-20" d="M 260.4 20.1 L 261.4 20.1 L 261.4 23.4 L 265.4 23.4 L 265.4 20.1 L 266.4 20.1 L 266.4 27.8 L 265.4 27.8 L 265.4 24.2 L 261.4 24.2 L 261.4 27.8 L 260.4 27.8 L 260.4 20.1 " fill="#FF0000"/>
<path class="atom-24" d="M 193.2 134.0 Q 193.2 132.1, 194.1 131.1 Q 195.0 130.1, 196.7 130.1 Q 198.4 130.1, 199.4 131.1 Q 200.3 132.1, 200.3 134.0 Q 200.3 135.9, 199.3 136.9 Q 198.4 138.0, 196.7 138.0 Q 195.0 138.0, 194.1 136.9 Q 193.2 135.9, 193.2 134.0 M 196.7 137.1 Q 197.9 137.1, 198.5 136.3 Q 199.2 135.5, 199.2 134.0 Q 199.2 132.5, 198.5 131.7 Q 197.9 130.9, 196.7 130.9 Q 195.6 130.9, 194.9 131.7 Q 194.3 132.5, 194.3 134.0 Q 194.3 135.5, 194.9 136.3 Q 195.6 137.1, 196.7 137.1 " fill="#FF0000"/>
<path class="atom-25" d="M 238.2 148.0 Q 238.2 146.1, 239.2 145.1 Q 240.1 144.1, 241.8 144.1 Q 243.5 144.1, 244.4 145.1 Q 245.3 146.1, 245.3 148.0 Q 245.3 149.9, 244.4 150.9 Q 243.5 152.0, 241.8 152.0 Q 240.1 152.0, 239.2 150.9 Q 238.2 149.9, 238.2 148.0 M 241.8 151.1 Q 243.0 151.1, 243.6 150.3 Q 244.2 149.5, 244.2 148.0 Q 244.2 146.5, 243.6 145.7 Q 243.0 144.9, 241.8 144.9 Q 240.6 144.9, 240.0 145.7 Q 239.3 146.5, 239.3 148.0 Q 239.3 149.5, 240.0 150.3 Q 240.6 151.1, 241.8 151.1 " fill="#FF0000"/>
<path class="atom-25" d="M 246.5 144.1 L 247.6 144.1 L 247.6 147.4 L 251.5 147.4 L 251.5 144.1 L 252.6 144.1 L 252.6 151.9 L 251.5 151.9 L 251.5 148.3 L 247.6 148.3 L 247.6 151.9 L 246.5 151.9 L 246.5 144.1 " fill="#FF0000"/>
<path class="atom-28" d="M 127.3 27.9 Q 127.3 26.1, 128.3 25.0 Q 129.2 24.0, 130.9 24.0 Q 132.6 24.0, 133.5 25.0 Q 134.4 26.1, 134.4 27.9 Q 134.4 29.8, 133.5 30.9 Q 132.6 31.9, 130.9 31.9 Q 129.2 31.9, 128.3 30.9 Q 127.3 29.8, 127.3 27.9 M 130.9 31.1 Q 132.1 31.1, 132.7 30.3 Q 133.3 29.5, 133.3 27.9 Q 133.3 26.4, 132.7 25.7 Q 132.1 24.9, 130.9 24.9 Q 129.7 24.9, 129.1 25.6 Q 128.4 26.4, 128.4 27.9 Q 128.4 29.5, 129.1 30.3 Q 129.7 31.1, 130.9 31.1 " fill="#FF0000"/>
<path class="atom-29" d="M 74.7 10.1 L 75.7 10.1 L 75.7 13.4 L 79.7 13.4 L 79.7 10.1 L 80.7 10.1 L 80.7 17.8 L 79.7 17.8 L 79.7 14.2 L 75.7 14.2 L 75.7 17.8 L 74.7 17.8 L 74.7 10.1 " fill="#FF0000"/>
<path class="atom-29" d="M 82.3 13.9 Q 82.3 12.1, 83.2 11.0 Q 84.1 10.0, 85.8 10.0 Q 87.5 10.0, 88.5 11.0 Q 89.4 12.1, 89.4 13.9 Q 89.4 15.8, 88.4 16.9 Q 87.5 17.9, 85.8 17.9 Q 84.1 17.9, 83.2 16.9 Q 82.3 15.8, 82.3 13.9 M 85.8 17.0 Q 87.0 17.0, 87.6 16.3 Q 88.3 15.5, 88.3 13.9 Q 88.3 12.4, 87.6 11.6 Q 87.0 10.9, 85.8 10.9 Q 84.7 10.9, 84.0 11.6 Q 83.4 12.4, 83.4 13.9 Q 83.4 15.5, 84.0 16.3 Q 84.7 17.0, 85.8 17.0 " fill="#FF0000"/>
</svg>
