<?xml version='1.0' encoding='ASCII' standalone='yes'?>
<svg xmlns="http://www.w3.org/2000/svg" xmlns:rdkit="http://www.rdkit.org/xml" xmlns:xlink="http://www.w3.org/1999/xlink" version="1.1" baseProfile="full" xml:space="preserve" width="276px" height="200px" viewBox="0 0 276 200">
<!-- END OF HEADER -->
<rect style="opacity:1.0;fill:#FFFFFF;stroke:none" width="276.0" height="200.0" x="0.0" y="0.0"> </rect>
<path class="bond-0 atom-0 atom-1" d="M 196.5,144.6 L 193.8,131.4" style="fill:none;fill-rule:evenodd;stroke:#FF0000;stroke-width:2.0px;stroke-linecap:butt;stroke-linejoin:miter;stroke-opacity:1"/>
<path class="bond-0 atom-0 atom-1" d="M 193.8,131.4 L 191.1,118.2" style="fill:none;fill-rule:evenodd;stroke:#000000;stroke-width:2.0px;stroke-linecap:butt;stroke-linejoin:miter;stroke-opacity:1"/>
<path class="bond-0 atom-0 atom-1" d="M 201.1,143.6 L 198.4,130.5" style="fill:none;fill-rule:evenodd;stroke:#FF0000;stroke-width:2.0px;stroke-linecap:butt;stroke-linejoin:miter;stroke-opacity:1"/>
<path class="bond-0 atom-0 atom-1" d="M 198.4,130.5 L 195.7,117.3" style="fill:none;fill-rule:evenodd;stroke:#000000;stroke-width:2.0px;stroke-linecap:butt;stroke-linejoin:miter;stroke-opacity:1"/>
<path class="bond-1 atom-1 atom-2" d="M 193.7,119.1 L 202.8,111.0" style="fill:none;fill-rule:evenodd;stroke:#000000;stroke-width:2.0px;stroke-linecap:butt;stroke-linejoin:miter;stroke-opacity:1"/>
<path class="bond-1 atom-1 atom-2" d="M 202.8,111.0 L 211.9,102.9" style="fill:none;fill-rule:evenodd;stroke:#FF0000;stroke-width:2.0px;stroke-linecap:butt;stroke-linejoin:miter;stroke-opacity:1"/>
<path class="bond-2 atom-1 atom-3" d="M 193.7,119.1 L 164.2,109.3" style="fill:none;fill-rule:evenodd;stroke:#000000;stroke-width:2.0px;stroke-linecap:butt;stroke-linejoin:miter;stroke-opacity:1"/>
<path class="bond-3 atom-3 atom-4" d="M 164.2,109.3 L 140.9,129.9" style="fill:none;fill-rule:evenodd;stroke:#000000;stroke-width:2.0px;stroke-linecap:butt;stroke-linejoin:miter;stroke-opacity:1"/>
<path class="bond-4 atom-4 atom-5" d="M 140.9,129.9 L 143.4,142.4" style="fill:none;fill-rule:evenodd;stroke:#000000;stroke-width:2.0px;stroke-linecap:butt;stroke-linejoin:miter;stroke-opacity:1"/>
<path class="bond-4 atom-4 atom-5" d="M 143.4,142.4 L 146.0,154.9" style="fill:none;fill-rule:evenodd;stroke:#FF0000;stroke-width:2.0px;stroke-linecap:butt;stroke-linejoin:miter;stroke-opacity:1"/>
<path class="bond-5 atom-4 atom-6" d="M 140.9,129.9 L 111.3,120.1" style="fill:none;fill-rule:evenodd;stroke:#000000;stroke-width:2.0px;stroke-linecap:butt;stroke-linejoin:miter;stroke-opacity:1"/>
<path class="bond-6 atom-6 atom-7" d="M 111.3,120.1 L 99.1,116.0" style="fill:none;fill-rule:evenodd;stroke:#000000;stroke-width:2.0px;stroke-linecap:butt;stroke-linejoin:miter;stroke-opacity:1"/>
<path class="bond-6 atom-6 atom-7" d="M 99.1,116.0 L 86.9,111.9" style="fill:none;fill-rule:evenodd;stroke:#FF0000;stroke-width:2.0px;stroke-linecap:butt;stroke-linejoin:miter;stroke-opacity:1"/>
<path class="bond-7 atom-6 atom-8" d="M 111.3,120.1 L 101.5,149.6" style="fill:none;fill-rule:evenodd;stroke:#000000;stroke-width:2.0px;stroke-linecap:butt;stroke-linejoin:miter;stroke-opacity:1"/>
<path class="bond-8 atom-8 atom-9" d="M 101.5,149.6 L 71.0,155.9" style="fill:none;fill-rule:evenodd;stroke:#000000;stroke-width:2.0px;stroke-linecap:butt;stroke-linejoin:miter;stroke-opacity:1"/>
<path class="bond-9 atom-9 atom-10" d="M 73.7,155.3 L 65.4,146.0" style="fill:none;fill-rule:evenodd;stroke:#000000;stroke-width:2.0px;stroke-linecap:butt;stroke-linejoin:miter;stroke-opacity:1"/>
<path class="bond-9 atom-9 atom-10" d="M 65.4,146.0 L 57.1,136.7" style="fill:none;fill-rule:evenodd;stroke:#FF0000;stroke-width:2.0px;stroke-linecap:butt;stroke-linejoin:miter;stroke-opacity:1"/>
<path class="bond-9 atom-9 atom-10" d="M 70.2,158.4 L 61.9,149.1" style="fill:none;fill-rule:evenodd;stroke:#000000;stroke-width:2.0px;stroke-linecap:butt;stroke-linejoin:miter;stroke-opacity:1"/>
<path class="bond-9 atom-9 atom-10" d="M 61.9,149.1 L 53.6,139.8" style="fill:none;fill-rule:evenodd;stroke:#FF0000;stroke-width:2.0px;stroke-linecap:butt;stroke-linejoin:miter;stroke-opacity:1"/>
<path class="bond-10 atom-9 atom-11" d="M 71.0,155.9 L 67.0,167.9" style="fill:none;fill-rule:evenodd;stroke:#000000;stroke-width:2.0px;stroke-linecap:butt;stroke-linejoin:miter;stroke-opacity:1"/>
<path class="bond-10 atom-9 atom-11" d="M 67.0,167.9 L 63.0,179.9" style="fill:none;fill-rule:evenodd;stroke:#FF0000;stroke-width:2.0px;stroke-linecap:butt;stroke-linejoin:miter;stroke-opacity:1"/>
<path class="bond-11 atom-6 atom-12" d="M 111.3,120.1 L 121.2,90.6" style="fill:none;fill-rule:evenodd;stroke:#000000;stroke-width:2.0px;stroke-linecap:butt;stroke-linejoin:miter;stroke-opacity:1"/>
<path class="bond-12 atom-12 atom-13" d="M 121.2,90.6 L 100.5,67.3" style="fill:none;fill-rule:evenodd;stroke:#000000;stroke-width:2.0px;stroke-linecap:butt;stroke-linejoin:miter;stroke-opacity:1"/>
<path class="bond-13 atom-13 atom-14" d="M 101.4,64.7 L 88.0,67.5" style="fill:none;fill-rule:evenodd;stroke:#000000;stroke-width:2.0px;stroke-linecap:butt;stroke-linejoin:miter;stroke-opacity:1"/>
<path class="bond-13 atom-13 atom-14" d="M 88.0,67.5 L 74.6,70.2" style="fill:none;fill-rule:evenodd;stroke:#FF0000;stroke-width:2.0px;stroke-linecap:butt;stroke-linejoin:miter;stroke-opacity:1"/>
<path class="bond-13 atom-13 atom-14" d="M 102.3,69.3 L 88.9,72.0" style="fill:none;fill-rule:evenodd;stroke:#000000;stroke-width:2.0px;stroke-linecap:butt;stroke-linejoin:miter;stroke-opacity:1"/>
<path class="bond-13 atom-13 atom-14" d="M 88.9,72.0 L 75.6,74.8" style="fill:none;fill-rule:evenodd;stroke:#FF0000;stroke-width:2.0px;stroke-linecap:butt;stroke-linejoin:miter;stroke-opacity:1"/>
<path class="bond-14 atom-13 atom-15" d="M 100.5,67.3 L 110.4,37.7" style="fill:none;fill-rule:evenodd;stroke:#000000;stroke-width:2.0px;stroke-linecap:butt;stroke-linejoin:miter;stroke-opacity:1"/>
<path class="bond-15 atom-15 atom-16" d="M 109.5,40.3 L 122.9,37.6" style="fill:none;fill-rule:evenodd;stroke:#000000;stroke-width:2.0px;stroke-linecap:butt;stroke-linejoin:miter;stroke-opacity:1"/>
<path class="bond-15 atom-15 atom-16" d="M 122.9,37.6 L 136.2,34.8" style="fill:none;fill-rule:evenodd;stroke:#FF0000;stroke-width:2.0px;stroke-linecap:butt;stroke-linejoin:miter;stroke-opacity:1"/>
<path class="bond-15 atom-15 atom-16" d="M 108.6,35.7 L 121.9,33.0" style="fill:none;fill-rule:evenodd;stroke:#000000;stroke-width:2.0px;stroke-linecap:butt;stroke-linejoin:miter;stroke-opacity:1"/>
<path class="bond-15 atom-15 atom-16" d="M 121.9,33.0 L 135.3,30.2" style="fill:none;fill-rule:evenodd;stroke:#FF0000;stroke-width:2.0px;stroke-linecap:butt;stroke-linejoin:miter;stroke-opacity:1"/>
<path class="bond-16 atom-15 atom-17" d="M 110.4,37.7 L 102.5,28.9" style="fill:none;fill-rule:evenodd;stroke:#000000;stroke-width:2.0px;stroke-linecap:butt;stroke-linejoin:miter;stroke-opacity:1"/>
<path class="bond-16 atom-15 atom-17" d="M 102.5,28.9 L 94.7,20.1" style="fill:none;fill-rule:evenodd;stroke:#FF0000;stroke-width:2.0px;stroke-linecap:butt;stroke-linejoin:miter;stroke-opacity:1"/>
<path d="M 194.1,118.7 L 193.7,119.1 L 192.2,118.6" style="fill:none;stroke:#000000;stroke-width:2.0px;stroke-linecap:butt;stroke-linejoin:miter;stroke-opacity:1;"/>
<path d="M 165.6,109.8 L 164.2,109.3 L 163.0,110.3" style="fill:none;stroke:#000000;stroke-width:2.0px;stroke-linecap:butt;stroke-linejoin:miter;stroke-opacity:1;"/>
<path d="M 102.0,148.1 L 101.5,149.6 L 100.0,149.9" style="fill:none;stroke:#000000;stroke-width:2.0px;stroke-linecap:butt;stroke-linejoin:miter;stroke-opacity:1;"/>
<path d="M 72.5,155.6 L 71.0,155.9 L 70.8,156.5" style="fill:none;stroke:#000000;stroke-width:2.0px;stroke-linecap:butt;stroke-linejoin:miter;stroke-opacity:1;"/>
<path d="M 120.7,92.0 L 121.2,90.6 L 120.1,89.4" style="fill:none;stroke:#000000;stroke-width:2.0px;stroke-linecap:butt;stroke-linejoin:miter;stroke-opacity:1;"/>
<path d="M 101.6,68.4 L 100.5,67.3 L 101.0,65.8" style="fill:none;stroke:#000000;stroke-width:2.0px;stroke-linecap:butt;stroke-linejoin:miter;stroke-opacity:1;"/>
<path d="M 109.9,39.2 L 110.4,37.7 L 110.0,37.3" style="fill:none;stroke:#000000;stroke-width:2.0px;stroke-linecap:butt;stroke-linejoin:miter;stroke-opacity:1;"/>
<path class="atom-0" d="M 195.9 149.6 Q 195.9 147.5, 196.9 146.3 Q 198.0 145.1, 199.9 145.1 Q 201.9 145.1, 202.9 146.3 Q 204.0 147.5, 204.0 149.6 Q 204.0 151.8, 202.9 153.0 Q 201.9 154.2, 199.9 154.2 Q 198.0 154.2, 196.9 153.0 Q 195.9 151.8, 195.9 149.6 M 199.9 153.2 Q 201.3 153.2, 202.0 152.3 Q 202.7 151.4, 202.7 149.6 Q 202.7 147.9, 202.0 147.0 Q 201.3 146.1, 199.9 146.1 Q 198.6 146.1, 197.9 147.0 Q 197.1 147.9, 197.1 149.6 Q 197.1 151.4, 197.9 152.3 Q 198.6 153.2, 199.9 153.2 " fill="#FF0000"/>
<path class="atom-2" d="M 212.9 98.5 Q 212.9 96.3, 214.0 95.2 Q 215.0 94.0, 217.0 94.0 Q 218.9 94.0, 220.0 95.2 Q 221.0 96.3, 221.0 98.5 Q 221.0 100.6, 220.0 101.8 Q 218.9 103.0, 217.0 103.0 Q 215.0 103.0, 214.0 101.8 Q 212.9 100.6, 212.9 98.5 M 217.0 102.0 Q 218.3 102.0, 219.0 101.1 Q 219.8 100.2, 219.8 98.5 Q 219.8 96.7, 219.0 95.9 Q 218.3 95.0, 217.0 95.0 Q 215.6 95.0, 214.9 95.8 Q 214.2 96.7, 214.2 98.5 Q 214.2 100.2, 214.9 101.1 Q 215.6 102.0, 217.0 102.0 " fill="#FF0000"/>
<path class="atom-2" d="M 222.4 94.1 L 223.6 94.1 L 223.6 97.8 L 228.1 97.8 L 228.1 94.1 L 229.3 94.1 L 229.3 102.9 L 228.1 102.9 L 228.1 98.8 L 223.6 98.8 L 223.6 102.9 L 222.4 102.9 L 222.4 94.1 " fill="#FF0000"/>
<path class="atom-5" d="M 143.1 160.4 Q 143.1 158.3, 144.1 157.1 Q 145.2 156.0, 147.1 156.0 Q 149.1 156.0, 150.1 157.1 Q 151.2 158.3, 151.2 160.4 Q 151.2 162.6, 150.1 163.8 Q 149.1 165.0, 147.1 165.0 Q 145.2 165.0, 144.1 163.8 Q 143.1 162.6, 143.1 160.4 M 147.1 164.0 Q 148.5 164.0, 149.2 163.1 Q 149.9 162.2, 149.9 160.4 Q 149.9 158.7, 149.2 157.8 Q 148.5 157.0, 147.1 157.0 Q 145.8 157.0, 145.0 157.8 Q 144.3 158.7, 144.3 160.4 Q 144.3 162.2, 145.0 163.1 Q 145.8 164.0, 147.1 164.0 " fill="#FF0000"/>
<path class="atom-5" d="M 152.5 156.1 L 153.7 156.1 L 153.7 159.8 L 158.2 159.8 L 158.2 156.1 L 159.4 156.1 L 159.4 164.9 L 158.2 164.9 L 158.2 160.8 L 153.7 160.8 L 153.7 164.9 L 152.5 164.9 L 152.5 156.1 " fill="#FF0000"/>
<path class="atom-7" d="M 69.1 105.9 L 70.3 105.9 L 70.3 109.6 L 74.8 109.6 L 74.8 105.9 L 76.0 105.9 L 76.0 114.7 L 74.8 114.7 L 74.8 110.6 L 70.3 110.6 L 70.3 114.7 L 69.1 114.7 L 69.1 105.9 " fill="#FF0000"/>
<path class="atom-7" d="M 77.8 110.3 Q 77.8 108.2, 78.8 107.0 Q 79.9 105.8, 81.8 105.8 Q 83.8 105.8, 84.8 107.0 Q 85.9 108.2, 85.9 110.3 Q 85.9 112.4, 84.8 113.6 Q 83.7 114.8, 81.8 114.8 Q 79.9 114.8, 78.8 113.6 Q 77.8 112.4, 77.8 110.3 M 81.8 113.9 Q 83.2 113.9, 83.9 113.0 Q 84.6 112.0, 84.6 110.3 Q 84.6 108.5, 83.9 107.7 Q 83.2 106.8, 81.8 106.8 Q 80.5 106.8, 79.7 107.7 Q 79.0 108.5, 79.0 110.3 Q 79.0 112.1, 79.7 113.0 Q 80.5 113.9, 81.8 113.9 " fill="#FF0000"/>
<path class="atom-10" d="M 46.3 132.6 Q 46.3 130.5, 47.4 129.3 Q 48.4 128.1, 50.4 128.1 Q 52.3 128.1, 53.4 129.3 Q 54.4 130.5, 54.4 132.6 Q 54.4 134.8, 53.3 136.0 Q 52.3 137.2, 50.4 137.2 Q 48.4 137.2, 47.4 136.0 Q 46.3 134.8, 46.3 132.6 M 50.4 136.2 Q 51.7 136.2, 52.4 135.3 Q 53.2 134.4, 53.2 132.6 Q 53.2 130.9, 52.4 130.0 Q 51.7 129.1, 50.4 129.1 Q 49.0 129.1, 48.3 130.0 Q 47.6 130.9, 47.6 132.6 Q 47.6 134.4, 48.3 135.3 Q 49.0 136.2, 50.4 136.2 " fill="#FF0000"/>
<path class="atom-11" d="M 57.1 185.4 Q 57.1 183.3, 58.2 182.1 Q 59.2 180.9, 61.2 180.9 Q 63.1 180.9, 64.2 182.1 Q 65.2 183.3, 65.2 185.4 Q 65.2 187.6, 64.2 188.8 Q 63.1 190.0, 61.2 190.0 Q 59.2 190.0, 58.2 188.8 Q 57.1 187.6, 57.1 185.4 M 61.2 189.0 Q 62.5 189.0, 63.2 188.1 Q 64.0 187.2, 64.0 185.4 Q 64.0 183.7, 63.2 182.8 Q 62.5 181.9, 61.2 181.9 Q 59.8 181.9, 59.1 182.8 Q 58.4 183.7, 58.4 185.4 Q 58.4 187.2, 59.1 188.1 Q 59.8 189.0, 61.2 189.0 " fill="#FF0000"/>
<path class="atom-11" d="M 66.6 181.0 L 67.8 181.0 L 67.8 184.8 L 72.3 184.8 L 72.3 181.0 L 73.5 181.0 L 73.5 189.9 L 72.3 189.9 L 72.3 185.8 L 67.8 185.8 L 67.8 189.9 L 66.6 189.9 L 66.6 181.0 " fill="#FF0000"/>
<path class="atom-14" d="M 66.0 73.5 Q 66.0 71.4, 67.0 70.2 Q 68.1 69.1, 70.0 69.1 Q 72.0 69.1, 73.0 70.2 Q 74.1 71.4, 74.1 73.5 Q 74.1 75.7, 73.0 76.9 Q 72.0 78.1, 70.0 78.1 Q 68.1 78.1, 67.0 76.9 Q 66.0 75.7, 66.0 73.5 M 70.0 77.1 Q 71.4 77.1, 72.1 76.2 Q 72.8 75.3, 72.8 73.5 Q 72.8 71.8, 72.1 70.9 Q 71.4 70.1, 70.0 70.1 Q 68.7 70.1, 67.9 70.9 Q 67.2 71.8, 67.2 73.5 Q 67.2 75.3, 67.9 76.2 Q 68.7 77.1, 70.0 77.1 " fill="#FF0000"/>
<path class="atom-16" d="M 136.8 31.5 Q 136.8 29.4, 137.8 28.2 Q 138.9 27.0, 140.8 27.0 Q 142.8 27.0, 143.8 28.2 Q 144.9 29.4, 144.9 31.5 Q 144.9 33.7, 143.8 34.9 Q 142.8 36.1, 140.8 36.1 Q 138.9 36.1, 137.8 34.9 Q 136.8 33.7, 136.8 31.5 M 140.8 35.1 Q 142.2 35.1, 142.9 34.2 Q 143.6 33.3, 143.6 31.5 Q 143.6 29.8, 142.9 28.9 Q 142.2 28.0, 140.8 28.0 Q 139.5 28.0, 138.8 28.9 Q 138.0 29.8, 138.0 31.5 Q 138.0 33.3, 138.8 34.2 Q 139.5 35.1, 140.8 35.1 " fill="#FF0000"/>
<path class="atom-17" d="M 76.9 10.1 L 78.1 10.1 L 78.1 13.8 L 82.6 13.8 L 82.6 10.1 L 83.8 10.1 L 83.8 18.9 L 82.6 18.9 L 82.6 14.8 L 78.1 14.8 L 78.1 18.9 L 76.9 18.9 L 76.9 10.1 " fill="#FF0000"/>
<path class="atom-17" d="M 85.6 14.5 Q 85.6 12.4, 86.7 11.2 Q 87.7 10.0, 89.7 10.0 Q 91.6 10.0, 92.7 11.2 Q 93.7 12.4, 93.7 14.5 Q 93.7 16.6, 92.7 17.8 Q 91.6 19.1, 89.7 19.1 Q 87.7 19.1, 86.7 17.8 Q 85.6 16.6, 85.6 14.5 M 89.7 18.1 Q 91.0 18.1, 91.8 17.2 Q 92.5 16.3, 92.5 14.5 Q 92.5 12.8, 91.8 11.9 Q 91.0 11.0, 89.7 11.0 Q 88.3 11.0, 87.6 11.9 Q 86.9 12.7, 86.9 14.5 Q 86.9 16.3, 87.6 17.2 Q 88.3 18.1, 89.7 18.1 " fill="#FF0000"/>
</svg>
