<?xml version='1.0' encoding='ASCII' standalone='yes'?>
<svg xmlns="http://www.w3.org/2000/svg" xmlns:rdkit="http://www.rdkit.org/xml" xmlns:xlink="http://www.w3.org/1999/xlink" version="1.1" baseProfile="full" xml:space="preserve" width="361px" height="200px" viewBox="0 0 361 200">
<!-- END OF HEADER -->
<rect style="opacity:1.0;fill:#FFFFFF;stroke:none" width="361.0" height="200.0" x="0.0" y="0.0"> </rect>
<path class="bond-0 atom-0 atom-1" d="M 47.9,44.3 L 43.7,50.5" style="fill:none;fill-rule:evenodd;stroke:#0000FF;stroke-width:2.0px;stroke-linecap:butt;stroke-linejoin:miter;stroke-opacity:1"/>
<path class="bond-0 atom-0 atom-1" d="M 43.7,50.5 L 39.6,56.8" style="fill:none;fill-rule:evenodd;stroke:#000000;stroke-width:2.0px;stroke-linecap:butt;stroke-linejoin:miter;stroke-opacity:1"/>
<path class="bond-1 atom-1 atom-2" d="M 40.5,55.4 L 32.1,54.9" style="fill:none;fill-rule:evenodd;stroke:#000000;stroke-width:2.0px;stroke-linecap:butt;stroke-linejoin:miter;stroke-opacity:1"/>
<path class="bond-1 atom-1 atom-2" d="M 32.1,54.9 L 23.7,54.3" style="fill:none;fill-rule:evenodd;stroke:#FF0000;stroke-width:2.0px;stroke-linecap:butt;stroke-linejoin:miter;stroke-opacity:1"/>
<path class="bond-1 atom-1 atom-2" d="M 40.3,58.3 L 31.9,57.7" style="fill:none;fill-rule:evenodd;stroke:#000000;stroke-width:2.0px;stroke-linecap:butt;stroke-linejoin:miter;stroke-opacity:1"/>
<path class="bond-1 atom-1 atom-2" d="M 31.9,57.7 L 23.5,57.2" style="fill:none;fill-rule:evenodd;stroke:#FF0000;stroke-width:2.0px;stroke-linecap:butt;stroke-linejoin:miter;stroke-opacity:1"/>
<path class="bond-2 atom-1 atom-3" d="M 39.6,56.8 L 48.0,73.9" style="fill:none;fill-rule:evenodd;stroke:#000000;stroke-width:2.0px;stroke-linecap:butt;stroke-linejoin:miter;stroke-opacity:1"/>
<path class="bond-3 atom-3 atom-4" d="M 48.0,73.9 L 67.0,75.2" style="fill:none;fill-rule:evenodd;stroke:#000000;stroke-width:2.0px;stroke-linecap:butt;stroke-linejoin:miter;stroke-opacity:1"/>
<path class="bond-3 atom-3 atom-4" d="M 49.4,76.9 L 65.1,77.9" style="fill:none;fill-rule:evenodd;stroke:#000000;stroke-width:2.0px;stroke-linecap:butt;stroke-linejoin:miter;stroke-opacity:1"/>
<path class="bond-4 atom-4 atom-5" d="M 67.0,75.2 L 70.4,82.1" style="fill:none;fill-rule:evenodd;stroke:#000000;stroke-width:2.0px;stroke-linecap:butt;stroke-linejoin:miter;stroke-opacity:1"/>
<path class="bond-4 atom-4 atom-5" d="M 70.4,82.1 L 73.7,89.0" style="fill:none;fill-rule:evenodd;stroke:#0000FF;stroke-width:2.0px;stroke-linecap:butt;stroke-linejoin:miter;stroke-opacity:1"/>
<path class="bond-5 atom-5 atom-6" d="M 78.1,92.5 L 86.2,93.0" style="fill:none;fill-rule:evenodd;stroke:#0000FF;stroke-width:2.0px;stroke-linecap:butt;stroke-linejoin:miter;stroke-opacity:1"/>
<path class="bond-5 atom-5 atom-6" d="M 86.2,93.0 L 94.4,93.6" style="fill:none;fill-rule:evenodd;stroke:#000000;stroke-width:2.0px;stroke-linecap:butt;stroke-linejoin:miter;stroke-opacity:1"/>
<path class="bond-6 atom-6 atom-7" d="M 94.4,93.6 L 99.1,88.0" style="fill:none;fill-rule:evenodd;stroke:#000000;stroke-width:2.0px;stroke-linecap:butt;stroke-linejoin:miter;stroke-opacity:1"/>
<path class="bond-6 atom-6 atom-7" d="M 99.1,88.0 L 103.7,82.4" style="fill:none;fill-rule:evenodd;stroke:#FF0000;stroke-width:2.0px;stroke-linecap:butt;stroke-linejoin:miter;stroke-opacity:1"/>
<path class="bond-7 atom-7 atom-8" d="M 109.7,80.2 L 117.0,83.1" style="fill:none;fill-rule:evenodd;stroke:#FF0000;stroke-width:2.0px;stroke-linecap:butt;stroke-linejoin:miter;stroke-opacity:1"/>
<path class="bond-7 atom-7 atom-8" d="M 117.0,83.1 L 124.3,86.1" style="fill:none;fill-rule:evenodd;stroke:#000000;stroke-width:2.0px;stroke-linecap:butt;stroke-linejoin:miter;stroke-opacity:1"/>
<path class="bond-8 atom-8 atom-9" d="M 124.3,86.1 L 140.5,75.9" style="fill:none;fill-rule:evenodd;stroke:#000000;stroke-width:2.0px;stroke-linecap:butt;stroke-linejoin:miter;stroke-opacity:1"/>
<path class="bond-9 atom-9 atom-10" d="M 140.5,75.9 L 140.2,68.1" style="fill:none;fill-rule:evenodd;stroke:#000000;stroke-width:2.0px;stroke-linecap:butt;stroke-linejoin:miter;stroke-opacity:1"/>
<path class="bond-9 atom-9 atom-10" d="M 140.2,68.1 L 139.9,60.3" style="fill:none;fill-rule:evenodd;stroke:#FF0000;stroke-width:2.0px;stroke-linecap:butt;stroke-linejoin:miter;stroke-opacity:1"/>
<path class="bond-10 atom-10 atom-11" d="M 142.9,54.9 L 148.2,51.6" style="fill:none;fill-rule:evenodd;stroke:#FF0000;stroke-width:2.0px;stroke-linecap:butt;stroke-linejoin:miter;stroke-opacity:1"/>
<path class="bond-10 atom-10 atom-11" d="M 148.2,51.6 L 153.5,48.2" style="fill:none;fill-rule:evenodd;stroke:#FF7F00;stroke-width:2.0px;stroke-linecap:butt;stroke-linejoin:miter;stroke-opacity:1"/>
<path class="bond-11 atom-11 atom-12" d="M 155.0,42.6 L 152.1,37.9" style="fill:none;fill-rule:evenodd;stroke:#FF7F00;stroke-width:2.0px;stroke-linecap:butt;stroke-linejoin:miter;stroke-opacity:1"/>
<path class="bond-11 atom-11 atom-12" d="M 152.1,37.9 L 149.1,33.3" style="fill:none;fill-rule:evenodd;stroke:#FF0000;stroke-width:2.0px;stroke-linecap:butt;stroke-linejoin:miter;stroke-opacity:1"/>
<path class="bond-11 atom-11 atom-12" d="M 152.6,44.2 L 149.6,39.5" style="fill:none;fill-rule:evenodd;stroke:#FF7F00;stroke-width:2.0px;stroke-linecap:butt;stroke-linejoin:miter;stroke-opacity:1"/>
<path class="bond-11 atom-11 atom-12" d="M 149.6,39.5 L 146.7,34.8" style="fill:none;fill-rule:evenodd;stroke:#FF0000;stroke-width:2.0px;stroke-linecap:butt;stroke-linejoin:miter;stroke-opacity:1"/>
<path class="bond-12 atom-11 atom-13" d="M 158.0,50.0 L 161.0,54.8" style="fill:none;fill-rule:evenodd;stroke:#FF7F00;stroke-width:2.0px;stroke-linecap:butt;stroke-linejoin:miter;stroke-opacity:1"/>
<path class="bond-12 atom-11 atom-13" d="M 161.0,54.8 L 163.9,59.5" style="fill:none;fill-rule:evenodd;stroke:#FF0000;stroke-width:2.0px;stroke-linecap:butt;stroke-linejoin:miter;stroke-opacity:1"/>
<path class="bond-13 atom-11 atom-14" d="M 158.2,45.2 L 163.6,41.9" style="fill:none;fill-rule:evenodd;stroke:#FF7F00;stroke-width:2.0px;stroke-linecap:butt;stroke-linejoin:miter;stroke-opacity:1"/>
<path class="bond-13 atom-11 atom-14" d="M 163.6,41.9 L 168.9,38.5" style="fill:none;fill-rule:evenodd;stroke:#FF0000;stroke-width:2.0px;stroke-linecap:butt;stroke-linejoin:miter;stroke-opacity:1"/>
<path class="bond-14 atom-14 atom-15" d="M 175.1,38.2 L 180.8,41.2" style="fill:none;fill-rule:evenodd;stroke:#FF0000;stroke-width:2.0px;stroke-linecap:butt;stroke-linejoin:miter;stroke-opacity:1"/>
<path class="bond-14 atom-14 atom-15" d="M 180.8,41.2 L 186.5,44.2" style="fill:none;fill-rule:evenodd;stroke:#FF7F00;stroke-width:2.0px;stroke-linecap:butt;stroke-linejoin:miter;stroke-opacity:1"/>
<path class="bond-15 atom-15 atom-16" d="M 185.9,48.1 L 183.2,53.2" style="fill:none;fill-rule:evenodd;stroke:#FF7F00;stroke-width:2.0px;stroke-linecap:butt;stroke-linejoin:miter;stroke-opacity:1"/>
<path class="bond-15 atom-15 atom-16" d="M 183.2,53.2 L 180.5,58.3" style="fill:none;fill-rule:evenodd;stroke:#FF0000;stroke-width:2.0px;stroke-linecap:butt;stroke-linejoin:miter;stroke-opacity:1"/>
<path class="bond-15 atom-15 atom-16" d="M 188.4,49.5 L 185.7,54.6" style="fill:none;fill-rule:evenodd;stroke:#FF7F00;stroke-width:2.0px;stroke-linecap:butt;stroke-linejoin:miter;stroke-opacity:1"/>
<path class="bond-15 atom-15 atom-16" d="M 185.7,54.6 L 183.0,59.7" style="fill:none;fill-rule:evenodd;stroke:#FF0000;stroke-width:2.0px;stroke-linecap:butt;stroke-linejoin:miter;stroke-opacity:1"/>
<path class="bond-16 atom-15 atom-17" d="M 190.7,42.2 L 193.3,37.1" style="fill:none;fill-rule:evenodd;stroke:#FF7F00;stroke-width:2.0px;stroke-linecap:butt;stroke-linejoin:miter;stroke-opacity:1"/>
<path class="bond-16 atom-15 atom-17" d="M 193.3,37.1 L 196.0,32.1" style="fill:none;fill-rule:evenodd;stroke:#FF0000;stroke-width:2.0px;stroke-linecap:butt;stroke-linejoin:miter;stroke-opacity:1"/>
<path class="bond-17 atom-15 atom-18" d="M 191.3,46.7 L 196.9,49.7" style="fill:none;fill-rule:evenodd;stroke:#FF7F00;stroke-width:2.0px;stroke-linecap:butt;stroke-linejoin:miter;stroke-opacity:1"/>
<path class="bond-17 atom-15 atom-18" d="M 196.9,49.7 L 202.6,52.8" style="fill:none;fill-rule:evenodd;stroke:#FF0000;stroke-width:2.0px;stroke-linecap:butt;stroke-linejoin:miter;stroke-opacity:1"/>
<path class="bond-18 atom-18 atom-19" d="M 205.9,57.8 L 206.2,65.6" style="fill:none;fill-rule:evenodd;stroke:#FF0000;stroke-width:2.0px;stroke-linecap:butt;stroke-linejoin:miter;stroke-opacity:1"/>
<path class="bond-18 atom-18 atom-19" d="M 206.2,65.6 L 206.5,73.5" style="fill:none;fill-rule:evenodd;stroke:#000000;stroke-width:2.0px;stroke-linecap:butt;stroke-linejoin:miter;stroke-opacity:1"/>
<path class="bond-19 atom-19 atom-20" d="M 206.5,73.5 L 223.3,82.4" style="fill:none;fill-rule:evenodd;stroke:#000000;stroke-width:2.0px;stroke-linecap:butt;stroke-linejoin:miter;stroke-opacity:1"/>
<path class="bond-20 atom-20 atom-21" d="M 223.3,82.4 L 230.3,78.9" style="fill:none;fill-rule:evenodd;stroke:#000000;stroke-width:2.0px;stroke-linecap:butt;stroke-linejoin:miter;stroke-opacity:1"/>
<path class="bond-20 atom-20 atom-21" d="M 230.3,78.9 L 237.3,75.5" style="fill:none;fill-rule:evenodd;stroke:#FF0000;stroke-width:2.0px;stroke-linecap:butt;stroke-linejoin:miter;stroke-opacity:1"/>
<path class="bond-21 atom-21 atom-22" d="M 243.5,77.2 L 248.6,82.4" style="fill:none;fill-rule:evenodd;stroke:#FF0000;stroke-width:2.0px;stroke-linecap:butt;stroke-linejoin:miter;stroke-opacity:1"/>
<path class="bond-21 atom-21 atom-22" d="M 248.6,82.4 L 253.7,87.6" style="fill:none;fill-rule:evenodd;stroke:#000000;stroke-width:2.0px;stroke-linecap:butt;stroke-linejoin:miter;stroke-opacity:1"/>
<path class="bond-22 atom-22 atom-23" d="M 253.7,87.6 L 261.8,86.5" style="fill:none;fill-rule:evenodd;stroke:#000000;stroke-width:2.0px;stroke-linecap:butt;stroke-linejoin:miter;stroke-opacity:1"/>
<path class="bond-22 atom-22 atom-23" d="M 261.8,86.5 L 269.9,85.3" style="fill:none;fill-rule:evenodd;stroke:#0000FF;stroke-width:2.0px;stroke-linecap:butt;stroke-linejoin:miter;stroke-opacity:1"/>
<path class="bond-23 atom-23 atom-24" d="M 275.3,87.7 L 280.6,93.2" style="fill:none;fill-rule:evenodd;stroke:#0000FF;stroke-width:2.0px;stroke-linecap:butt;stroke-linejoin:miter;stroke-opacity:1"/>
<path class="bond-23 atom-23 atom-24" d="M 280.6,93.2 L 285.9,98.6" style="fill:none;fill-rule:evenodd;stroke:#000000;stroke-width:2.0px;stroke-linecap:butt;stroke-linejoin:miter;stroke-opacity:1"/>
<path class="bond-24 atom-24 atom-25" d="M 285.9,98.6 L 293.1,95.1" style="fill:none;fill-rule:evenodd;stroke:#000000;stroke-width:2.0px;stroke-linecap:butt;stroke-linejoin:miter;stroke-opacity:1"/>
<path class="bond-24 atom-24 atom-25" d="M 293.1,95.1 L 300.3,91.5" style="fill:none;fill-rule:evenodd;stroke:#0000FF;stroke-width:2.0px;stroke-linecap:butt;stroke-linejoin:miter;stroke-opacity:1"/>
<path class="bond-24 atom-24 atom-25" d="M 286.5,95.1 L 292.8,92.1" style="fill:none;fill-rule:evenodd;stroke:#000000;stroke-width:2.0px;stroke-linecap:butt;stroke-linejoin:miter;stroke-opacity:1"/>
<path class="bond-24 atom-24 atom-25" d="M 292.8,92.1 L 299.1,89.0" style="fill:none;fill-rule:evenodd;stroke:#0000FF;stroke-width:2.0px;stroke-linecap:butt;stroke-linejoin:miter;stroke-opacity:1"/>
<path class="bond-25 atom-25 atom-26" d="M 302.5,86.9 L 301.4,79.1" style="fill:none;fill-rule:evenodd;stroke:#0000FF;stroke-width:2.0px;stroke-linecap:butt;stroke-linejoin:miter;stroke-opacity:1"/>
<path class="bond-25 atom-25 atom-26" d="M 301.4,79.1 L 300.3,71.4" style="fill:none;fill-rule:evenodd;stroke:#000000;stroke-width:2.0px;stroke-linecap:butt;stroke-linejoin:miter;stroke-opacity:1"/>
<path class="bond-26 atom-26 atom-27" d="M 300.3,71.4 L 312.5,56.7" style="fill:none;fill-rule:evenodd;stroke:#000000;stroke-width:2.0px;stroke-linecap:butt;stroke-linejoin:miter;stroke-opacity:1"/>
<path class="bond-26 atom-26 atom-27" d="M 299.2,68.3 L 309.3,56.2" style="fill:none;fill-rule:evenodd;stroke:#000000;stroke-width:2.0px;stroke-linecap:butt;stroke-linejoin:miter;stroke-opacity:1"/>
<path class="bond-27 atom-27 atom-28" d="M 312.5,56.7 L 320.6,58.1" style="fill:none;fill-rule:evenodd;stroke:#000000;stroke-width:2.0px;stroke-linecap:butt;stroke-linejoin:miter;stroke-opacity:1"/>
<path class="bond-27 atom-27 atom-28" d="M 320.6,58.1 L 328.6,59.5" style="fill:none;fill-rule:evenodd;stroke:#0000FF;stroke-width:2.0px;stroke-linecap:butt;stroke-linejoin:miter;stroke-opacity:1"/>
<path class="bond-28 atom-27 atom-29" d="M 312.5,56.7 L 309.8,49.4" style="fill:none;fill-rule:evenodd;stroke:#000000;stroke-width:2.0px;stroke-linecap:butt;stroke-linejoin:miter;stroke-opacity:1"/>
<path class="bond-28 atom-27 atom-29" d="M 309.8,49.4 L 307.2,42.1" style="fill:none;fill-rule:evenodd;stroke:#0000FF;stroke-width:2.0px;stroke-linecap:butt;stroke-linejoin:miter;stroke-opacity:1"/>
<path class="bond-29 atom-29 atom-30" d="M 303.3,38.4 L 295.2,37.0" style="fill:none;fill-rule:evenodd;stroke:#0000FF;stroke-width:2.0px;stroke-linecap:butt;stroke-linejoin:miter;stroke-opacity:1"/>
<path class="bond-29 atom-29 atom-30" d="M 295.2,37.0 L 287.2,35.6" style="fill:none;fill-rule:evenodd;stroke:#000000;stroke-width:2.0px;stroke-linecap:butt;stroke-linejoin:miter;stroke-opacity:1"/>
<path class="bond-29 atom-29 atom-30" d="M 302.8,41.2 L 295.5,39.9" style="fill:none;fill-rule:evenodd;stroke:#0000FF;stroke-width:2.0px;stroke-linecap:butt;stroke-linejoin:miter;stroke-opacity:1"/>
<path class="bond-29 atom-29 atom-30" d="M 295.5,39.9 L 288.3,38.7" style="fill:none;fill-rule:evenodd;stroke:#000000;stroke-width:2.0px;stroke-linecap:butt;stroke-linejoin:miter;stroke-opacity:1"/>
<path class="bond-30 atom-30 atom-31" d="M 287.2,35.6 L 282.4,41.3" style="fill:none;fill-rule:evenodd;stroke:#000000;stroke-width:2.0px;stroke-linecap:butt;stroke-linejoin:miter;stroke-opacity:1"/>
<path class="bond-30 atom-30 atom-31" d="M 282.4,41.3 L 277.6,47.0" style="fill:none;fill-rule:evenodd;stroke:#0000FF;stroke-width:2.0px;stroke-linecap:butt;stroke-linejoin:miter;stroke-opacity:1"/>
<path class="bond-31 atom-31 atom-32" d="M 276.2,53.5 L 278.8,60.8" style="fill:none;fill-rule:evenodd;stroke:#0000FF;stroke-width:2.0px;stroke-linecap:butt;stroke-linejoin:miter;stroke-opacity:1"/>
<path class="bond-31 atom-31 atom-32" d="M 278.8,60.8 L 281.5,68.1" style="fill:none;fill-rule:evenodd;stroke:#000000;stroke-width:2.0px;stroke-linecap:butt;stroke-linejoin:miter;stroke-opacity:1"/>
<path class="bond-31 atom-31 atom-32" d="M 278.8,52.5 L 281.2,59.0" style="fill:none;fill-rule:evenodd;stroke:#0000FF;stroke-width:2.0px;stroke-linecap:butt;stroke-linejoin:miter;stroke-opacity:1"/>
<path class="bond-31 atom-31 atom-32" d="M 281.2,59.0 L 283.6,65.6" style="fill:none;fill-rule:evenodd;stroke:#000000;stroke-width:2.0px;stroke-linecap:butt;stroke-linejoin:miter;stroke-opacity:1"/>
<path class="bond-32 atom-22 atom-33" d="M 253.7,87.6 L 244.8,104.5" style="fill:none;fill-rule:evenodd;stroke:#000000;stroke-width:2.0px;stroke-linecap:butt;stroke-linejoin:miter;stroke-opacity:1"/>
<path class="bond-33 atom-33 atom-34" d="M 244.8,104.5 L 248.2,111.4" style="fill:none;fill-rule:evenodd;stroke:#000000;stroke-width:2.0px;stroke-linecap:butt;stroke-linejoin:miter;stroke-opacity:1"/>
<path class="bond-33 atom-33 atom-34" d="M 248.2,111.4 L 251.6,118.3" style="fill:none;fill-rule:evenodd;stroke:#FF0000;stroke-width:2.0px;stroke-linecap:butt;stroke-linejoin:miter;stroke-opacity:1"/>
<path class="bond-34 atom-34 atom-35" d="M 250.9,125.1 L 247.9,129.6" style="fill:none;fill-rule:evenodd;stroke:#FF0000;stroke-width:2.0px;stroke-linecap:butt;stroke-linejoin:miter;stroke-opacity:1"/>
<path class="bond-34 atom-34 atom-35" d="M 247.9,129.6 L 244.8,134.1" style="fill:none;fill-rule:evenodd;stroke:#FF7F00;stroke-width:2.0px;stroke-linecap:butt;stroke-linejoin:miter;stroke-opacity:1"/>
<path class="bond-35 atom-35 atom-36" d="M 244.1,140.2 L 249.3,143.7" style="fill:none;fill-rule:evenodd;stroke:#FF7F00;stroke-width:2.0px;stroke-linecap:butt;stroke-linejoin:miter;stroke-opacity:1"/>
<path class="bond-35 atom-35 atom-36" d="M 249.3,143.7 L 254.5,147.2" style="fill:none;fill-rule:evenodd;stroke:#FF0000;stroke-width:2.0px;stroke-linecap:butt;stroke-linejoin:miter;stroke-opacity:1"/>
<path class="bond-35 atom-35 atom-36" d="M 245.7,137.8 L 250.9,141.3" style="fill:none;fill-rule:evenodd;stroke:#FF7F00;stroke-width:2.0px;stroke-linecap:butt;stroke-linejoin:miter;stroke-opacity:1"/>
<path class="bond-35 atom-35 atom-36" d="M 250.9,141.3 L 256.1,144.8" style="fill:none;fill-rule:evenodd;stroke:#FF0000;stroke-width:2.0px;stroke-linecap:butt;stroke-linejoin:miter;stroke-opacity:1"/>
<path class="bond-36 atom-35 atom-37" d="M 240.2,135.9 L 235.0,132.4" style="fill:none;fill-rule:evenodd;stroke:#FF7F00;stroke-width:2.0px;stroke-linecap:butt;stroke-linejoin:miter;stroke-opacity:1"/>
<path class="bond-36 atom-35 atom-37" d="M 235.0,132.4 L 229.9,128.9" style="fill:none;fill-rule:evenodd;stroke:#FF0000;stroke-width:2.0px;stroke-linecap:butt;stroke-linejoin:miter;stroke-opacity:1"/>
<path class="bond-37 atom-35 atom-38" d="M 240.4,140.8 L 237.3,145.4" style="fill:none;fill-rule:evenodd;stroke:#FF7F00;stroke-width:2.0px;stroke-linecap:butt;stroke-linejoin:miter;stroke-opacity:1"/>
<path class="bond-37 atom-35 atom-38" d="M 237.3,145.4 L 234.2,149.9" style="fill:none;fill-rule:evenodd;stroke:#FF0000;stroke-width:2.0px;stroke-linecap:butt;stroke-linejoin:miter;stroke-opacity:1"/>
<path class="bond-38 atom-33 atom-39" d="M 244.8,104.5 L 226.0,101.2" style="fill:none;fill-rule:evenodd;stroke:#000000;stroke-width:2.0px;stroke-linecap:butt;stroke-linejoin:miter;stroke-opacity:1"/>
<path class="bond-39 atom-39 atom-40" d="M 226.0,101.2 L 220.7,106.4" style="fill:none;fill-rule:evenodd;stroke:#000000;stroke-width:2.0px;stroke-linecap:butt;stroke-linejoin:miter;stroke-opacity:1"/>
<path class="bond-39 atom-39 atom-40" d="M 220.7,106.4 L 215.4,111.5" style="fill:none;fill-rule:evenodd;stroke:#FF0000;stroke-width:2.0px;stroke-linecap:butt;stroke-linejoin:miter;stroke-opacity:1"/>
<path class="bond-40 atom-8 atom-41" d="M 124.3,86.1 L 123.0,105.1" style="fill:none;fill-rule:evenodd;stroke:#000000;stroke-width:2.0px;stroke-linecap:butt;stroke-linejoin:miter;stroke-opacity:1"/>
<path class="bond-41 atom-41 atom-42" d="M 123.0,105.1 L 128.8,109.9" style="fill:none;fill-rule:evenodd;stroke:#000000;stroke-width:2.0px;stroke-linecap:butt;stroke-linejoin:miter;stroke-opacity:1"/>
<path class="bond-41 atom-41 atom-42" d="M 128.8,109.9 L 134.6,114.7" style="fill:none;fill-rule:evenodd;stroke:#FF0000;stroke-width:2.0px;stroke-linecap:butt;stroke-linejoin:miter;stroke-opacity:1"/>
<path class="bond-42 atom-41 atom-43" d="M 123.0,105.1 L 104.5,109.7" style="fill:none;fill-rule:evenodd;stroke:#000000;stroke-width:2.0px;stroke-linecap:butt;stroke-linejoin:miter;stroke-opacity:1"/>
<path class="bond-43 atom-43 atom-44" d="M 104.5,109.7 L 101.7,116.9" style="fill:none;fill-rule:evenodd;stroke:#000000;stroke-width:2.0px;stroke-linecap:butt;stroke-linejoin:miter;stroke-opacity:1"/>
<path class="bond-43 atom-43 atom-44" d="M 101.7,116.9 L 98.8,124.1" style="fill:none;fill-rule:evenodd;stroke:#FF0000;stroke-width:2.0px;stroke-linecap:butt;stroke-linejoin:miter;stroke-opacity:1"/>
<path class="bond-44 atom-5 atom-45" d="M 73.1,95.6 L 68.9,101.9" style="fill:none;fill-rule:evenodd;stroke:#0000FF;stroke-width:2.0px;stroke-linecap:butt;stroke-linejoin:miter;stroke-opacity:1"/>
<path class="bond-44 atom-5 atom-45" d="M 68.9,101.9 L 64.8,108.1" style="fill:none;fill-rule:evenodd;stroke:#000000;stroke-width:2.0px;stroke-linecap:butt;stroke-linejoin:miter;stroke-opacity:1"/>
<path class="bond-45 atom-45 atom-46" d="M 64.8,108.1 L 45.7,106.9" style="fill:none;fill-rule:evenodd;stroke:#000000;stroke-width:2.0px;stroke-linecap:butt;stroke-linejoin:miter;stroke-opacity:1"/>
<path class="bond-45 atom-45 atom-46" d="M 63.3,105.2 L 47.6,104.1" style="fill:none;fill-rule:evenodd;stroke:#000000;stroke-width:2.0px;stroke-linecap:butt;stroke-linejoin:miter;stroke-opacity:1"/>
<path class="bond-46 atom-46 atom-47" d="M 45.7,106.9 L 37.3,89.7" style="fill:none;fill-rule:evenodd;stroke:#000000;stroke-width:2.0px;stroke-linecap:butt;stroke-linejoin:miter;stroke-opacity:1"/>
<path class="bond-47 atom-47 atom-3" d="M 37.3,89.7 L 48.0,73.9" style="fill:none;fill-rule:evenodd;stroke:#000000;stroke-width:2.0px;stroke-linecap:butt;stroke-linejoin:miter;stroke-opacity:1"/>
<path class="bond-48 atom-43 atom-6" d="M 104.5,109.7 L 94.4,93.6" style="fill:none;fill-rule:evenodd;stroke:#000000;stroke-width:2.0px;stroke-linecap:butt;stroke-linejoin:miter;stroke-opacity:1"/>
<path class="bond-49 atom-39 atom-20" d="M 226.0,101.2 L 223.3,82.4" style="fill:none;fill-rule:evenodd;stroke:#000000;stroke-width:2.0px;stroke-linecap:butt;stroke-linejoin:miter;stroke-opacity:1"/>
<path class="bond-50 atom-32 atom-23" d="M 281.5,68.1 L 277.9,74.9" style="fill:none;fill-rule:evenodd;stroke:#000000;stroke-width:2.0px;stroke-linecap:butt;stroke-linejoin:miter;stroke-opacity:1"/>
<path class="bond-50 atom-32 atom-23" d="M 277.9,74.9 L 274.4,81.6" style="fill:none;fill-rule:evenodd;stroke:#0000FF;stroke-width:2.0px;stroke-linecap:butt;stroke-linejoin:miter;stroke-opacity:1"/>
<path class="bond-51 atom-32 atom-26" d="M 281.5,68.1 L 300.3,71.4" style="fill:none;fill-rule:evenodd;stroke:#000000;stroke-width:2.0px;stroke-linecap:butt;stroke-linejoin:miter;stroke-opacity:1"/>
<path d="M 39.8,56.5 L 39.6,56.8 L 40.0,57.7" style="fill:none;stroke:#000000;stroke-width:2.0px;stroke-linecap:butt;stroke-linejoin:miter;stroke-opacity:1;"/>
<path d="M 66.0,75.1 L 67.0,75.2 L 67.1,75.5" style="fill:none;stroke:#000000;stroke-width:2.0px;stroke-linecap:butt;stroke-linejoin:miter;stroke-opacity:1;"/>
<path d="M 139.7,76.4 L 140.5,75.9 L 140.4,75.5" style="fill:none;stroke:#000000;stroke-width:2.0px;stroke-linecap:butt;stroke-linejoin:miter;stroke-opacity:1;"/>
<path d="M 206.5,73.1 L 206.5,73.5 L 207.3,73.9" style="fill:none;stroke:#000000;stroke-width:2.0px;stroke-linecap:butt;stroke-linejoin:miter;stroke-opacity:1;"/>
<path d="M 285.6,98.4 L 285.9,98.6 L 286.2,98.5" style="fill:none;stroke:#000000;stroke-width:2.0px;stroke-linecap:butt;stroke-linejoin:miter;stroke-opacity:1;"/>
<path d="M 287.6,35.6 L 287.2,35.6 L 286.9,35.8" style="fill:none;stroke:#000000;stroke-width:2.0px;stroke-linecap:butt;stroke-linejoin:miter;stroke-opacity:1;"/>
<path d="M 65.0,107.8 L 64.8,108.1 L 63.8,108.1" style="fill:none;stroke:#000000;stroke-width:2.0px;stroke-linecap:butt;stroke-linejoin:miter;stroke-opacity:1;"/>
<path d="M 46.7,106.9 L 45.7,106.9 L 45.3,106.0" style="fill:none;stroke:#000000;stroke-width:2.0px;stroke-linecap:butt;stroke-linejoin:miter;stroke-opacity:1;"/>
<path d="M 37.7,90.6 L 37.3,89.7 L 37.9,89.0" style="fill:none;stroke:#000000;stroke-width:2.0px;stroke-linecap:butt;stroke-linejoin:miter;stroke-opacity:1;"/>
<path class="atom-0" d="M 49.0 38.3 L 50.8 41.1 Q 50.9 41.4, 51.2 41.9 Q 51.5 42.4, 51.5 42.5 L 51.5 38.3 L 52.2 38.3 L 52.2 43.7 L 51.5 43.7 L 49.6 40.5 Q 49.4 40.2, 49.1 39.8 Q 48.9 39.3, 48.8 39.2 L 48.8 43.7 L 48.1 43.7 L 48.1 38.3 L 49.0 38.3 " fill="#0000FF"/>
<path class="atom-0" d="M 53.3 38.3 L 54.0 38.3 L 54.0 40.6 L 56.7 40.6 L 56.7 38.3 L 57.5 38.3 L 57.5 43.7 L 56.7 43.7 L 56.7 41.2 L 54.0 41.2 L 54.0 43.7 L 53.3 43.7 L 53.3 38.3 " fill="#0000FF"/>
<path class="atom-0" d="M 58.5 43.5 Q 58.7 43.1, 59.0 43.0 Q 59.3 42.8, 59.7 42.8 Q 60.3 42.8, 60.6 43.1 Q 60.9 43.3, 60.9 43.9 Q 60.9 44.4, 60.5 44.9 Q 60.1 45.4, 59.3 46.0 L 60.9 46.0 L 60.9 46.4 L 58.5 46.4 L 58.5 46.0 Q 59.2 45.6, 59.6 45.2 Q 60.0 44.8, 60.2 44.5 Q 60.4 44.2, 60.4 43.9 Q 60.4 43.5, 60.2 43.4 Q 60.0 43.2, 59.7 43.2 Q 59.4 43.2, 59.2 43.3 Q 59.1 43.4, 58.9 43.7 L 58.5 43.5 " fill="#0000FF"/>
<path class="atom-2" d="M 18.1 55.5 Q 18.1 54.2, 18.7 53.5 Q 19.3 52.8, 20.5 52.8 Q 21.7 52.8, 22.4 53.5 Q 23.0 54.2, 23.0 55.5 Q 23.0 56.8, 22.4 57.6 Q 21.7 58.3, 20.5 58.3 Q 19.3 58.3, 18.7 57.6 Q 18.1 56.8, 18.1 55.5 M 20.5 57.7 Q 21.4 57.7, 21.8 57.2 Q 22.2 56.6, 22.2 55.5 Q 22.2 54.5, 21.8 53.9 Q 21.4 53.4, 20.5 53.4 Q 19.7 53.4, 19.3 53.9 Q 18.8 54.5, 18.8 55.5 Q 18.8 56.6, 19.3 57.2 Q 19.7 57.7, 20.5 57.7 " fill="#FF0000"/>
<path class="atom-5" d="M 74.2 89.6 L 76.0 92.5 Q 76.1 92.8, 76.4 93.3 Q 76.7 93.8, 76.7 93.8 L 76.7 89.6 L 77.4 89.6 L 77.4 95.0 L 76.7 95.0 L 74.8 91.9 Q 74.6 91.5, 74.3 91.1 Q 74.1 90.7, 74.0 90.6 L 74.0 95.0 L 73.3 95.0 L 73.3 89.6 L 74.2 89.6 " fill="#0000FF"/>
<path class="atom-7" d="M 104.1 79.0 Q 104.1 77.7, 104.8 77.0 Q 105.4 76.2, 106.6 76.2 Q 107.8 76.2, 108.5 77.0 Q 109.1 77.7, 109.1 79.0 Q 109.1 80.3, 108.5 81.0 Q 107.8 81.8, 106.6 81.8 Q 105.4 81.8, 104.8 81.0 Q 104.1 80.3, 104.1 79.0 M 106.6 81.2 Q 107.4 81.2, 107.9 80.6 Q 108.3 80.1, 108.3 79.0 Q 108.3 77.9, 107.9 77.4 Q 107.4 76.8, 106.6 76.8 Q 105.8 76.8, 105.3 77.4 Q 104.9 77.9, 104.9 79.0 Q 104.9 80.1, 105.3 80.6 Q 105.8 81.2, 106.6 81.2 " fill="#FF0000"/>
<path class="atom-10" d="M 137.3 56.9 Q 137.3 55.6, 137.9 54.9 Q 138.6 54.1, 139.8 54.1 Q 140.9 54.1, 141.6 54.9 Q 142.2 55.6, 142.2 56.9 Q 142.2 58.2, 141.6 58.9 Q 140.9 59.7, 139.8 59.7 Q 138.6 59.7, 137.9 58.9 Q 137.3 58.2, 137.3 56.9 M 139.8 59.1 Q 140.6 59.1, 141.0 58.5 Q 141.5 58.0, 141.5 56.9 Q 141.5 55.8, 141.0 55.3 Q 140.6 54.7, 139.8 54.7 Q 138.9 54.7, 138.5 55.3 Q 138.0 55.8, 138.0 56.9 Q 138.0 58.0, 138.5 58.5 Q 138.9 59.1, 139.8 59.1 " fill="#FF0000"/>
<path class="atom-11" d="M 155.8 44.0 Q 156.7 44.0, 157.2 44.4 Q 157.6 44.9, 157.6 45.6 Q 157.6 46.4, 157.1 46.8 Q 156.7 47.2, 155.8 47.2 L 154.9 47.2 L 154.9 49.4 L 154.2 49.4 L 154.2 44.0 L 155.8 44.0 M 155.8 46.6 Q 156.3 46.6, 156.6 46.3 Q 156.9 46.1, 156.9 45.6 Q 156.9 45.1, 156.6 44.9 Q 156.3 44.6, 155.8 44.6 L 154.9 44.6 L 154.9 46.6 L 155.8 46.6 " fill="#FF7F00"/>
<path class="atom-12" d="M 143.3 30.6 Q 143.3 29.3, 143.9 28.6 Q 144.6 27.8, 145.8 27.8 Q 146.9 27.8, 147.6 28.6 Q 148.2 29.3, 148.2 30.6 Q 148.2 31.9, 147.6 32.6 Q 146.9 33.4, 145.8 33.4 Q 144.6 33.4, 143.9 32.6 Q 143.3 31.9, 143.3 30.6 M 145.8 32.8 Q 146.6 32.8, 147.0 32.2 Q 147.5 31.7, 147.5 30.6 Q 147.5 29.5, 147.0 29.0 Q 146.6 28.5, 145.8 28.5 Q 144.9 28.5, 144.5 29.0 Q 144.0 29.5, 144.0 30.6 Q 144.0 31.7, 144.5 32.2 Q 144.9 32.8, 145.8 32.8 " fill="#FF0000"/>
<path class="atom-13" d="M 163.6 62.9 Q 163.6 61.6, 164.2 60.9 Q 164.8 60.1, 166.0 60.1 Q 167.2 60.1, 167.9 60.9 Q 168.5 61.6, 168.5 62.9 Q 168.5 64.2, 167.9 64.9 Q 167.2 65.7, 166.0 65.7 Q 164.8 65.7, 164.2 64.9 Q 163.6 64.2, 163.6 62.9 M 166.0 65.1 Q 166.9 65.1, 167.3 64.5 Q 167.8 64.0, 167.8 62.9 Q 167.8 61.8, 167.3 61.3 Q 166.9 60.7, 166.0 60.7 Q 165.2 60.7, 164.8 61.3 Q 164.3 61.8, 164.3 62.9 Q 164.3 64.0, 164.8 64.5 Q 165.2 65.1, 166.0 65.1 " fill="#FF0000"/>
<path class="atom-13" d="M 169.4 60.2 L 170.1 60.2 L 170.1 62.5 L 172.9 62.5 L 172.9 60.2 L 173.6 60.2 L 173.6 65.6 L 172.9 65.6 L 172.9 63.1 L 170.1 63.1 L 170.1 65.6 L 169.4 65.6 L 169.4 60.2 " fill="#FF0000"/>
<path class="atom-14" d="M 169.6 36.6 Q 169.6 35.3, 170.2 34.6 Q 170.8 33.8, 172.0 33.8 Q 173.2 33.8, 173.9 34.6 Q 174.5 35.3, 174.5 36.6 Q 174.5 37.9, 173.9 38.7 Q 173.2 39.4, 172.0 39.4 Q 170.9 39.4, 170.2 38.7 Q 169.6 37.9, 169.6 36.6 M 172.0 38.8 Q 172.9 38.8, 173.3 38.2 Q 173.8 37.7, 173.8 36.6 Q 173.8 35.5, 173.3 35.0 Q 172.9 34.5, 172.0 34.5 Q 171.2 34.5, 170.8 35.0 Q 170.3 35.5, 170.3 36.6 Q 170.3 37.7, 170.8 38.2 Q 171.2 38.8, 172.0 38.8 " fill="#FF0000"/>
<path class="atom-15" d="M 188.8 42.8 Q 189.7 42.8, 190.2 43.2 Q 190.6 43.6, 190.6 44.4 Q 190.6 45.1, 190.1 45.5 Q 189.7 46.0, 188.8 46.0 L 187.9 46.0 L 187.9 48.2 L 187.2 48.2 L 187.2 42.8 L 188.8 42.8 M 188.8 45.4 Q 189.3 45.4, 189.6 45.1 Q 189.9 44.9, 189.9 44.4 Q 189.9 43.9, 189.6 43.6 Q 189.3 43.4, 188.8 43.4 L 187.9 43.4 L 187.9 45.4 L 188.8 45.4 " fill="#FF7F00"/>
<path class="atom-16" d="M 177.5 62.4 Q 177.5 61.1, 178.1 60.3 Q 178.8 59.6, 180.0 59.6 Q 181.2 59.6, 181.8 60.3 Q 182.5 61.1, 182.5 62.4 Q 182.5 63.7, 181.8 64.4 Q 181.2 65.2, 180.0 65.2 Q 178.8 65.2, 178.1 64.4 Q 177.5 63.7, 177.5 62.4 M 180.0 64.5 Q 180.8 64.5, 181.3 64.0 Q 181.7 63.4, 181.7 62.4 Q 181.7 61.3, 181.3 60.8 Q 180.8 60.2, 180.0 60.2 Q 179.2 60.2, 178.7 60.8 Q 178.3 61.3, 178.3 62.4 Q 178.3 63.5, 178.7 64.0 Q 179.2 64.5, 180.0 64.5 " fill="#FF0000"/>
<path class="atom-17" d="M 195.3 28.6 Q 195.3 27.3, 196.0 26.6 Q 196.6 25.9, 197.8 25.9 Q 199.0 25.9, 199.6 26.6 Q 200.3 27.3, 200.3 28.6 Q 200.3 30.0, 199.6 30.7 Q 199.0 31.4, 197.8 31.4 Q 196.6 31.4, 196.0 30.7 Q 195.3 30.0, 195.3 28.6 M 197.8 30.8 Q 198.6 30.8, 199.1 30.3 Q 199.5 29.7, 199.5 28.6 Q 199.5 27.6, 199.1 27.1 Q 198.6 26.5, 197.8 26.5 Q 197.0 26.5, 196.5 27.0 Q 196.1 27.6, 196.1 28.6 Q 196.1 29.7, 196.5 30.3 Q 197.0 30.8, 197.8 30.8 " fill="#FF0000"/>
<path class="atom-17" d="M 201.1 26.0 L 201.9 26.0 L 201.9 28.3 L 204.6 28.3 L 204.6 26.0 L 205.4 26.0 L 205.4 31.4 L 204.6 31.4 L 204.6 28.9 L 201.9 28.9 L 201.9 31.4 L 201.1 31.4 L 201.1 26.0 " fill="#FF0000"/>
<path class="atom-18" d="M 203.3 54.4 Q 203.3 53.1, 203.9 52.4 Q 204.6 51.7, 205.8 51.7 Q 207.0 51.7, 207.6 52.4 Q 208.2 53.1, 208.2 54.4 Q 208.2 55.7, 207.6 56.5 Q 206.9 57.2, 205.8 57.2 Q 204.6 57.2, 203.9 56.5 Q 203.3 55.7, 203.3 54.4 M 205.8 56.6 Q 206.6 56.6, 207.0 56.1 Q 207.5 55.5, 207.5 54.4 Q 207.5 53.4, 207.0 52.8 Q 206.6 52.3, 205.8 52.3 Q 204.9 52.3, 204.5 52.8 Q 204.0 53.3, 204.0 54.4 Q 204.0 55.5, 204.5 56.1 Q 204.9 56.6, 205.8 56.6 " fill="#FF0000"/>
<path class="atom-21" d="M 238.0 74.0 Q 238.0 72.7, 238.6 72.0 Q 239.2 71.2, 240.4 71.2 Q 241.6 71.2, 242.3 72.0 Q 242.9 72.7, 242.9 74.0 Q 242.9 75.3, 242.3 76.0 Q 241.6 76.8, 240.4 76.8 Q 239.3 76.8, 238.6 76.0 Q 238.0 75.3, 238.0 74.0 M 240.4 76.2 Q 241.3 76.2, 241.7 75.6 Q 242.2 75.1, 242.2 74.0 Q 242.2 72.9, 241.7 72.4 Q 241.3 71.8, 240.4 71.8 Q 239.6 71.8, 239.2 72.4 Q 238.7 72.9, 238.7 74.0 Q 238.7 75.1, 239.2 75.6 Q 239.6 76.2, 240.4 76.2 " fill="#FF0000"/>
<path class="atom-23" d="M 271.4 82.2 L 273.2 85.1 Q 273.3 85.4, 273.6 85.9 Q 273.9 86.4, 273.9 86.4 L 273.9 82.2 L 274.6 82.2 L 274.6 87.6 L 273.9 87.6 L 272.0 84.5 Q 271.8 84.2, 271.5 83.7 Q 271.3 83.3, 271.2 83.2 L 271.2 87.6 L 270.5 87.6 L 270.5 82.2 L 271.4 82.2 " fill="#0000FF"/>
<path class="atom-25" d="M 301.8 87.5 L 303.6 90.4 Q 303.7 90.7, 304.0 91.2 Q 304.3 91.7, 304.3 91.7 L 304.3 87.5 L 305.0 87.5 L 305.0 92.9 L 304.3 92.9 L 302.4 89.8 Q 302.2 89.4, 301.9 89.0 Q 301.7 88.6, 301.6 88.5 L 301.6 92.9 L 300.9 92.9 L 300.9 87.5 L 301.8 87.5 " fill="#0000FF"/>
<path class="atom-28" d="M 330.1 57.3 L 331.9 60.1 Q 332.0 60.4, 332.3 60.9 Q 332.6 61.4, 332.6 61.5 L 332.6 57.3 L 333.3 57.3 L 333.3 62.7 L 332.6 62.7 L 330.7 59.6 Q 330.5 59.2, 330.2 58.8 Q 330.0 58.3, 330.0 58.2 L 330.0 62.7 L 329.2 62.7 L 329.2 57.3 L 330.1 57.3 " fill="#0000FF"/>
<path class="atom-28" d="M 334.4 57.3 L 335.1 57.3 L 335.1 59.6 L 337.9 59.6 L 337.9 57.3 L 338.6 57.3 L 338.6 62.7 L 337.9 62.7 L 337.9 60.2 L 335.1 60.2 L 335.1 62.7 L 334.4 62.7 L 334.4 57.3 " fill="#0000FF"/>
<path class="atom-28" d="M 339.7 62.5 Q 339.8 62.2, 340.1 62.0 Q 340.4 61.8, 340.8 61.8 Q 341.4 61.8, 341.7 62.1 Q 342.0 62.4, 342.0 62.9 Q 342.0 63.4, 341.6 63.9 Q 341.2 64.4, 340.4 65.0 L 342.1 65.0 L 342.1 65.4 L 339.6 65.4 L 339.6 65.0 Q 340.3 64.6, 340.7 64.2 Q 341.1 63.9, 341.3 63.5 Q 341.5 63.2, 341.5 62.9 Q 341.5 62.6, 341.3 62.4 Q 341.1 62.2, 340.8 62.2 Q 340.6 62.2, 340.4 62.3 Q 340.2 62.4, 340.0 62.7 L 339.7 62.5 " fill="#0000FF"/>
<path class="atom-29" d="M 304.8 36.1 L 306.5 39.0 Q 306.7 39.3, 307.0 39.8 Q 307.3 40.3, 307.3 40.3 L 307.3 36.1 L 308.0 36.1 L 308.0 41.5 L 307.3 41.5 L 305.4 38.4 Q 305.1 38.0, 304.9 37.6 Q 304.7 37.2, 304.6 37.1 L 304.6 41.5 L 303.9 41.5 L 303.9 36.1 L 304.8 36.1 " fill="#0000FF"/>
<path class="atom-31" d="M 273.7 47.5 L 275.5 50.3 Q 275.7 50.6, 276.0 51.1 Q 276.3 51.7, 276.3 51.7 L 276.3 47.5 L 277.0 47.5 L 277.0 52.9 L 276.2 52.9 L 274.3 49.8 Q 274.1 49.4, 273.9 49.0 Q 273.7 48.6, 273.6 48.4 L 273.6 52.9 L 272.9 52.9 L 272.9 47.5 L 273.7 47.5 " fill="#0000FF"/>
<path class="atom-34" d="M 250.7 121.6 Q 250.7 120.3, 251.4 119.6 Q 252.0 118.9, 253.2 118.9 Q 254.4 118.9, 255.0 119.6 Q 255.7 120.3, 255.7 121.6 Q 255.7 122.9, 255.0 123.7 Q 254.4 124.4, 253.2 124.4 Q 252.0 124.4, 251.4 123.7 Q 250.7 123.0, 250.7 121.6 M 253.2 123.8 Q 254.0 123.8, 254.5 123.3 Q 254.9 122.7, 254.9 121.6 Q 254.9 120.6, 254.5 120.0 Q 254.0 119.5, 253.2 119.5 Q 252.4 119.5, 251.9 120.0 Q 251.5 120.6, 251.5 121.6 Q 251.5 122.7, 251.9 123.3 Q 252.4 123.8, 253.2 123.8 " fill="#FF0000"/>
<path class="atom-35" d="M 242.5 134.8 Q 243.4 134.8, 243.8 135.2 Q 244.3 135.6, 244.3 136.3 Q 244.3 137.1, 243.8 137.5 Q 243.4 137.9, 242.5 137.9 L 241.6 137.9 L 241.6 140.2 L 240.9 140.2 L 240.9 134.8 L 242.5 134.8 M 242.5 137.3 Q 243.0 137.3, 243.3 137.1 Q 243.5 136.8, 243.5 136.3 Q 243.5 135.9, 243.3 135.6 Q 243.0 135.4, 242.5 135.4 L 241.6 135.4 L 241.6 137.3 L 242.5 137.3 " fill="#FF7F00"/>
<path class="atom-36" d="M 255.9 148.1 Q 255.9 146.8, 256.6 146.1 Q 257.2 145.3, 258.4 145.3 Q 259.6 145.3, 260.3 146.1 Q 260.9 146.8, 260.9 148.1 Q 260.9 149.4, 260.3 150.2 Q 259.6 150.9, 258.4 150.9 Q 257.2 150.9, 256.6 150.2 Q 255.9 149.4, 255.9 148.1 M 258.4 150.3 Q 259.2 150.3, 259.7 149.7 Q 260.1 149.2, 260.1 148.1 Q 260.1 147.0, 259.7 146.5 Q 259.2 146.0, 258.4 146.0 Q 257.6 146.0, 257.1 146.5 Q 256.7 147.0, 256.7 148.1 Q 256.7 149.2, 257.1 149.7 Q 257.6 150.3, 258.4 150.3 " fill="#FF0000"/>
<path class="atom-37" d="M 218.9 124.2 L 219.7 124.2 L 219.7 126.5 L 222.4 126.5 L 222.4 124.2 L 223.2 124.2 L 223.2 129.6 L 222.4 129.6 L 222.4 127.1 L 219.7 127.1 L 219.7 129.6 L 218.9 129.6 L 218.9 124.2 " fill="#FF0000"/>
<path class="atom-37" d="M 224.3 126.8 Q 224.3 125.5, 224.9 124.8 Q 225.6 124.1, 226.8 124.1 Q 228.0 124.1, 228.6 124.8 Q 229.2 125.5, 229.2 126.8 Q 229.2 128.2, 228.6 128.9 Q 227.9 129.6, 226.8 129.6 Q 225.6 129.6, 224.9 128.9 Q 224.3 128.2, 224.3 126.8 M 226.8 129.0 Q 227.6 129.0, 228.0 128.5 Q 228.5 127.9, 228.5 126.8 Q 228.5 125.8, 228.0 125.3 Q 227.6 124.7, 226.8 124.7 Q 225.9 124.7, 225.5 125.2 Q 225.0 125.8, 225.0 126.8 Q 225.0 127.9, 225.5 128.5 Q 225.9 129.0, 226.8 129.0 " fill="#FF0000"/>
<path class="atom-38" d="M 224.2 150.6 L 224.9 150.6 L 224.9 152.9 L 227.6 152.9 L 227.6 150.6 L 228.4 150.6 L 228.4 156.0 L 227.6 156.0 L 227.6 153.5 L 224.9 153.5 L 224.9 156.0 L 224.2 156.0 L 224.2 150.6 " fill="#FF0000"/>
<path class="atom-38" d="M 229.5 153.3 Q 229.5 152.0, 230.1 151.3 Q 230.8 150.6, 232.0 150.6 Q 233.2 150.6, 233.8 151.3 Q 234.4 152.0, 234.4 153.3 Q 234.4 154.6, 233.8 155.4 Q 233.1 156.1, 232.0 156.1 Q 230.8 156.1, 230.1 155.4 Q 229.5 154.6, 229.5 153.3 M 232.0 155.5 Q 232.8 155.5, 233.2 154.9 Q 233.7 154.4, 233.7 153.3 Q 233.7 152.2, 233.2 151.7 Q 232.8 151.2, 232.0 151.2 Q 231.1 151.2, 230.7 151.7 Q 230.2 152.2, 230.2 153.3 Q 230.2 154.4, 230.7 154.9 Q 231.1 155.5, 232.0 155.5 " fill="#FF0000"/>
<path class="atom-40" d="M 204.5 111.8 L 205.3 111.8 L 205.3 114.1 L 208.0 114.1 L 208.0 111.8 L 208.8 111.8 L 208.8 117.2 L 208.0 117.2 L 208.0 114.8 L 205.3 114.8 L 205.3 117.2 L 204.5 117.2 L 204.5 111.8 " fill="#FF0000"/>
<path class="atom-40" d="M 209.9 114.5 Q 209.9 113.2, 210.5 112.5 Q 211.1 111.8, 212.3 111.8 Q 213.5 111.8, 214.2 112.5 Q 214.8 113.2, 214.8 114.5 Q 214.8 115.8, 214.2 116.6 Q 213.5 117.3, 212.3 117.3 Q 211.2 117.3, 210.5 116.6 Q 209.9 115.9, 209.9 114.5 M 212.3 116.7 Q 213.2 116.7, 213.6 116.2 Q 214.1 115.6, 214.1 114.5 Q 214.1 113.5, 213.6 112.9 Q 213.2 112.4, 212.3 112.4 Q 211.5 112.4, 211.1 112.9 Q 210.6 113.5, 210.6 114.5 Q 210.6 115.6, 211.1 116.2 Q 211.5 116.7, 212.3 116.7 " fill="#FF0000"/>
<path class="atom-42" d="M 135.2 117.3 Q 135.2 116.0, 135.8 115.3 Q 136.5 114.6, 137.7 114.6 Q 138.9 114.6, 139.5 115.3 Q 140.1 116.0, 140.1 117.3 Q 140.1 118.6, 139.5 119.4 Q 138.9 120.1, 137.7 120.1 Q 136.5 120.1, 135.8 119.4 Q 135.2 118.6, 135.2 117.3 M 137.7 119.5 Q 138.5 119.5, 138.9 119.0 Q 139.4 118.4, 139.4 117.3 Q 139.4 116.3, 138.9 115.7 Q 138.5 115.2, 137.7 115.2 Q 136.8 115.2, 136.4 115.7 Q 136.0 116.3, 136.0 117.3 Q 136.0 118.4, 136.4 119.0 Q 136.8 119.5, 137.7 119.5 " fill="#FF0000"/>
<path class="atom-42" d="M 141.0 114.6 L 141.7 114.6 L 141.7 116.9 L 144.5 116.9 L 144.5 114.6 L 145.2 114.6 L 145.2 120.0 L 144.5 120.0 L 144.5 117.5 L 141.7 117.5 L 141.7 120.0 L 141.0 120.0 L 141.0 114.6 " fill="#FF0000"/>
<path class="atom-44" d="M 89.6 124.8 L 90.4 124.8 L 90.4 127.1 L 93.1 127.1 L 93.1 124.8 L 93.9 124.8 L 93.9 130.2 L 93.1 130.2 L 93.1 127.7 L 90.4 127.7 L 90.4 130.2 L 89.6 130.2 L 89.6 124.8 " fill="#FF0000"/>
<path class="atom-44" d="M 95.0 127.5 Q 95.0 126.2, 95.6 125.4 Q 96.2 124.7, 97.4 124.7 Q 98.6 124.7, 99.3 125.4 Q 99.9 126.2, 99.9 127.5 Q 99.9 128.8, 99.3 129.5 Q 98.6 130.3, 97.4 130.3 Q 96.3 130.3, 95.6 129.5 Q 95.0 128.8, 95.0 127.5 M 97.4 129.6 Q 98.3 129.6, 98.7 129.1 Q 99.2 128.5, 99.2 127.5 Q 99.2 126.4, 98.7 125.9 Q 98.3 125.3, 97.4 125.3 Q 96.6 125.3, 96.2 125.9 Q 95.7 126.4, 95.7 127.5 Q 95.7 128.5, 96.2 129.1 Q 96.6 129.6, 97.4 129.6 " fill="#FF0000"/>
<path class="legend" d="M 171.5 181.9 Q 171.5 179.6, 172.2 177.7 Q 172.9 175.8, 174.2 173.8 L 175.1 174.4 Q 174.0 176.3, 173.5 178.0 Q 173.0 179.7, 173.0 181.9 Q 173.0 184.0, 173.5 185.8 Q 174.0 187.5, 175.1 189.4 L 174.2 190.0 Q 172.9 188.0, 172.2 186.1 Q 171.5 184.2, 171.5 181.9 " fill="#000000"/>
<path class="legend" d="M 176.0 177.3 Q 176.4 176.2, 177.4 175.6 Q 178.4 175.0, 179.8 175.0 Q 181.5 175.0, 182.4 175.9 Q 183.4 176.8, 183.4 178.5 Q 183.4 180.2, 182.1 181.7 Q 180.9 183.3, 178.4 185.2 L 183.6 185.2 L 183.6 186.4 L 176.0 186.4 L 176.0 185.4 Q 178.1 183.9, 179.3 182.8 Q 180.6 181.6, 181.2 180.6 Q 181.8 179.6, 181.8 178.6 Q 181.8 177.5, 181.2 176.9 Q 180.7 176.3, 179.8 176.3 Q 178.8 176.3, 178.2 176.6 Q 177.6 177.0, 177.2 177.8 L 176.0 177.3 " fill="#000000"/>
<path class="legend" d="M 188.6 181.9 Q 188.6 184.2, 187.9 186.1 Q 187.2 188.0, 185.9 190.0 L 185.0 189.4 Q 186.1 187.5, 186.6 185.8 Q 187.1 184.0, 187.1 181.9 Q 187.1 179.7, 186.6 178.0 Q 186.1 176.3, 185.0 174.4 L 185.9 173.8 Q 187.2 175.8, 187.9 177.7 Q 188.6 179.6, 188.6 181.9 " fill="#000000"/>
</svg>
