<?xml version='1.0' encoding='ASCII' standalone='yes'?>
<svg xmlns="http://www.w3.org/2000/svg" xmlns:rdkit="http://www.rdkit.org/xml" xmlns:xlink="http://www.w3.org/1999/xlink" version="1.1" baseProfile="full" xml:space="preserve" width="276px" height="200px" viewBox="0 0 276 200">
<!-- END OF HEADER -->
<rect style="opacity:1.0;fill:#FFFFFF;stroke:none" width="276.0" height="200.0" x="0.0" y="0.0"> </rect>
<path class="bond-0 atom-0 atom-1" d="M 191.1,74.7 L 176.1,101.9" style="fill:none;fill-rule:evenodd;stroke:#000000;stroke-width:2.0px;stroke-linecap:butt;stroke-linejoin:miter;stroke-opacity:1"/>
<path class="bond-1 atom-1 atom-2" d="M 176.1,101.9 L 199.9,132.1" style="fill:none;fill-rule:evenodd;stroke:#000000;stroke-width:2.0px;stroke-linecap:butt;stroke-linejoin:miter;stroke-opacity:1"/>
<path class="bond-2 atom-2 atom-3" d="M 198.7,135.1 L 215.4,132.7" style="fill:none;fill-rule:evenodd;stroke:#000000;stroke-width:2.0px;stroke-linecap:butt;stroke-linejoin:miter;stroke-opacity:1"/>
<path class="bond-2 atom-2 atom-3" d="M 215.4,132.7 L 232.1,130.3" style="fill:none;fill-rule:evenodd;stroke:#FF0000;stroke-width:2.0px;stroke-linecap:butt;stroke-linejoin:miter;stroke-opacity:1"/>
<path class="bond-2 atom-2 atom-3" d="M 197.9,129.5 L 214.6,127.1" style="fill:none;fill-rule:evenodd;stroke:#000000;stroke-width:2.0px;stroke-linecap:butt;stroke-linejoin:miter;stroke-opacity:1"/>
<path class="bond-2 atom-2 atom-3" d="M 214.6,127.1 L 231.2,124.7" style="fill:none;fill-rule:evenodd;stroke:#FF0000;stroke-width:2.0px;stroke-linecap:butt;stroke-linejoin:miter;stroke-opacity:1"/>
<path class="bond-3 atom-2 atom-4" d="M 199.9,132.1 L 194.1,146.6" style="fill:none;fill-rule:evenodd;stroke:#000000;stroke-width:2.0px;stroke-linecap:butt;stroke-linejoin:miter;stroke-opacity:1"/>
<path class="bond-3 atom-2 atom-4" d="M 194.1,146.6 L 188.3,161.0" style="fill:none;fill-rule:evenodd;stroke:#FF0000;stroke-width:2.0px;stroke-linecap:butt;stroke-linejoin:miter;stroke-opacity:1"/>
<path class="bond-4 atom-1 atom-5" d="M 176.1,101.9 L 138.1,107.5" style="fill:none;fill-rule:evenodd;stroke:#000000;stroke-width:2.0px;stroke-linecap:butt;stroke-linejoin:miter;stroke-opacity:1"/>
<path class="bond-5 atom-5 atom-6" d="M 138.1,107.5 L 123.9,143.1" style="fill:none;fill-rule:evenodd;stroke:#000000;stroke-width:2.0px;stroke-linecap:butt;stroke-linejoin:miter;stroke-opacity:1"/>
<path class="bond-6 atom-6 atom-7" d="M 123.9,143.1 L 147.6,173.3" style="fill:none;fill-rule:evenodd;stroke:#000000;stroke-width:2.0px;stroke-linecap:butt;stroke-linejoin:miter;stroke-opacity:1"/>
<path class="bond-7 atom-6 atom-8" d="M 123.9,143.1 L 85.8,148.7" style="fill:none;fill-rule:evenodd;stroke:#000000;stroke-width:2.0px;stroke-linecap:butt;stroke-linejoin:miter;stroke-opacity:1"/>
<path class="bond-8 atom-8 atom-9" d="M 89.1,148.2 L 79.4,135.9" style="fill:none;fill-rule:evenodd;stroke:#000000;stroke-width:2.0px;stroke-linecap:butt;stroke-linejoin:miter;stroke-opacity:1"/>
<path class="bond-8 atom-8 atom-9" d="M 79.4,135.9 L 69.7,123.7" style="fill:none;fill-rule:evenodd;stroke:#FF0000;stroke-width:2.0px;stroke-linecap:butt;stroke-linejoin:miter;stroke-opacity:1"/>
<path class="bond-8 atom-8 atom-9" d="M 84.6,151.7 L 75.0,139.4" style="fill:none;fill-rule:evenodd;stroke:#000000;stroke-width:2.0px;stroke-linecap:butt;stroke-linejoin:miter;stroke-opacity:1"/>
<path class="bond-8 atom-8 atom-9" d="M 75.0,139.4 L 65.3,127.1" style="fill:none;fill-rule:evenodd;stroke:#FF0000;stroke-width:2.0px;stroke-linecap:butt;stroke-linejoin:miter;stroke-opacity:1"/>
<path class="bond-9 atom-8 atom-10" d="M 85.8,148.7 L 80.1,163.1" style="fill:none;fill-rule:evenodd;stroke:#000000;stroke-width:2.0px;stroke-linecap:butt;stroke-linejoin:miter;stroke-opacity:1"/>
<path class="bond-9 atom-8 atom-10" d="M 80.1,163.1 L 74.3,177.6" style="fill:none;fill-rule:evenodd;stroke:#FF0000;stroke-width:2.0px;stroke-linecap:butt;stroke-linejoin:miter;stroke-opacity:1"/>
<path class="bond-10 atom-5 atom-11" d="M 138.1,107.5 L 114.3,77.3" style="fill:none;fill-rule:evenodd;stroke:#000000;stroke-width:2.0px;stroke-linecap:butt;stroke-linejoin:miter;stroke-opacity:1"/>
<path class="bond-11 atom-11 atom-12" d="M 114.3,77.3 L 90.5,47.1" style="fill:none;fill-rule:evenodd;stroke:#000000;stroke-width:2.0px;stroke-linecap:butt;stroke-linejoin:miter;stroke-opacity:1"/>
<path class="bond-12 atom-11 atom-13" d="M 114.3,77.3 L 84.1,101.1" style="fill:none;fill-rule:evenodd;stroke:#000000;stroke-width:2.0px;stroke-linecap:butt;stroke-linejoin:miter;stroke-opacity:1"/>
<path class="bond-13 atom-13 atom-14" d="M 84.1,101.1 L 69.4,95.2" style="fill:none;fill-rule:evenodd;stroke:#000000;stroke-width:2.0px;stroke-linecap:butt;stroke-linejoin:miter;stroke-opacity:1"/>
<path class="bond-13 atom-13 atom-14" d="M 69.4,95.2 L 54.7,89.3" style="fill:none;fill-rule:evenodd;stroke:#FF0000;stroke-width:2.0px;stroke-linecap:butt;stroke-linejoin:miter;stroke-opacity:1"/>
<path class="bond-14 atom-11 atom-15" d="M 114.3,77.3 L 144.5,53.5" style="fill:none;fill-rule:evenodd;stroke:#000000;stroke-width:2.0px;stroke-linecap:butt;stroke-linejoin:miter;stroke-opacity:1"/>
<path class="bond-15 atom-15 atom-16" d="M 147.4,54.3 L 145.1,38.1" style="fill:none;fill-rule:evenodd;stroke:#000000;stroke-width:2.0px;stroke-linecap:butt;stroke-linejoin:miter;stroke-opacity:1"/>
<path class="bond-15 atom-15 atom-16" d="M 145.1,38.1 L 142.7,22.0" style="fill:none;fill-rule:evenodd;stroke:#FF0000;stroke-width:2.0px;stroke-linecap:butt;stroke-linejoin:miter;stroke-opacity:1"/>
<path class="bond-15 atom-15 atom-16" d="M 141.9,55.5 L 139.5,39.0" style="fill:none;fill-rule:evenodd;stroke:#000000;stroke-width:2.0px;stroke-linecap:butt;stroke-linejoin:miter;stroke-opacity:1"/>
<path class="bond-15 atom-15 atom-16" d="M 139.5,39.0 L 137.2,22.8" style="fill:none;fill-rule:evenodd;stroke:#FF0000;stroke-width:2.0px;stroke-linecap:butt;stroke-linejoin:miter;stroke-opacity:1"/>
<path class="bond-16 atom-15 atom-17" d="M 144.5,53.5 L 156.4,56.6" style="fill:none;fill-rule:evenodd;stroke:#000000;stroke-width:2.0px;stroke-linecap:butt;stroke-linejoin:miter;stroke-opacity:1"/>
<path class="bond-16 atom-15 atom-17" d="M 156.4,56.6 L 168.3,59.8" style="fill:none;fill-rule:evenodd;stroke:#FF0000;stroke-width:2.0px;stroke-linecap:butt;stroke-linejoin:miter;stroke-opacity:1"/>
<path d="M 198.7,130.6 L 199.9,132.1 L 199.6,132.8" style="fill:none;stroke:#000000;stroke-width:2.0px;stroke-linecap:butt;stroke-linejoin:miter;stroke-opacity:1;"/>
<path d="M 87.7,148.4 L 85.8,148.7 L 85.6,149.4" style="fill:none;stroke:#000000;stroke-width:2.0px;stroke-linecap:butt;stroke-linejoin:miter;stroke-opacity:1;"/>
<path d="M 85.6,99.9 L 84.1,101.1 L 83.4,100.8" style="fill:none;stroke:#000000;stroke-width:2.0px;stroke-linecap:butt;stroke-linejoin:miter;stroke-opacity:1;"/>
<path d="M 142.9,54.7 L 144.5,53.5 L 145.1,53.7" style="fill:none;stroke:#000000;stroke-width:2.0px;stroke-linecap:butt;stroke-linejoin:miter;stroke-opacity:1;"/>
<path class="atom-3" d="M 232.9 126.6 Q 232.9 124.0, 234.2 122.5 Q 235.5 121.1, 237.9 121.1 Q 240.3 121.1, 241.6 122.5 Q 242.9 124.0, 242.9 126.6 Q 242.9 129.3, 241.6 130.8 Q 240.3 132.3, 237.9 132.3 Q 235.5 132.3, 234.2 130.8 Q 232.9 129.3, 232.9 126.6 M 237.9 131.0 Q 239.5 131.0, 240.4 129.9 Q 241.3 128.8, 241.3 126.6 Q 241.3 124.5, 240.4 123.4 Q 239.5 122.3, 237.9 122.3 Q 236.2 122.3, 235.3 123.4 Q 234.4 124.5, 234.4 126.6 Q 234.4 128.8, 235.3 129.9 Q 236.2 131.0, 237.9 131.0 " fill="#FF0000"/>
<path class="atom-4" d="M 169.9 162.4 L 171.4 162.4 L 171.4 167.0 L 176.9 167.0 L 176.9 162.4 L 178.4 162.4 L 178.4 173.3 L 176.9 173.3 L 176.9 168.3 L 171.4 168.3 L 171.4 173.3 L 169.9 173.3 L 169.9 162.4 " fill="#FF0000"/>
<path class="atom-4" d="M 180.7 167.8 Q 180.7 165.2, 181.9 163.7 Q 183.2 162.3, 185.6 162.3 Q 188.1 162.3, 189.4 163.7 Q 190.6 165.2, 190.6 167.8 Q 190.6 170.5, 189.3 172.0 Q 188.0 173.4, 185.6 173.4 Q 183.3 173.4, 181.9 172.0 Q 180.7 170.5, 180.7 167.8 M 185.6 172.2 Q 187.3 172.2, 188.2 171.1 Q 189.1 170.0, 189.1 167.8 Q 189.1 165.7, 188.2 164.6 Q 187.3 163.5, 185.6 163.5 Q 184.0 163.5, 183.1 164.6 Q 182.2 165.7, 182.2 167.8 Q 182.2 170.0, 183.1 171.1 Q 184.0 172.2, 185.6 172.2 " fill="#FF0000"/>
<path class="atom-9" d="M 57.1 118.5 Q 57.1 115.9, 58.4 114.5 Q 59.6 113.0, 62.1 113.0 Q 64.5 113.0, 65.8 114.5 Q 67.0 115.9, 67.0 118.5 Q 67.0 121.2, 65.7 122.7 Q 64.4 124.2, 62.1 124.2 Q 59.7 124.2, 58.4 122.7 Q 57.1 121.2, 57.1 118.5 M 62.1 122.9 Q 63.7 122.9, 64.6 121.8 Q 65.5 120.7, 65.5 118.5 Q 65.5 116.4, 64.6 115.3 Q 63.7 114.2, 62.1 114.2 Q 60.4 114.2, 59.5 115.3 Q 58.6 116.4, 58.6 118.5 Q 58.6 120.7, 59.5 121.8 Q 60.4 122.9, 62.1 122.9 " fill="#FF0000"/>
<path class="atom-10" d="M 55.9 179.0 L 57.4 179.0 L 57.4 183.6 L 62.9 183.6 L 62.9 179.0 L 64.4 179.0 L 64.4 189.8 L 62.9 189.8 L 62.9 184.8 L 57.4 184.8 L 57.4 189.8 L 55.9 189.8 L 55.9 179.0 " fill="#FF0000"/>
<path class="atom-10" d="M 66.6 184.4 Q 66.6 181.7, 67.9 180.3 Q 69.2 178.8, 71.6 178.8 Q 74.0 178.8, 75.3 180.3 Q 76.6 181.7, 76.6 184.4 Q 76.6 187.0, 75.3 188.5 Q 74.0 190.0, 71.6 190.0 Q 69.2 190.0, 67.9 188.5 Q 66.6 187.0, 66.6 184.4 M 71.6 188.8 Q 73.3 188.8, 74.2 187.7 Q 75.1 186.5, 75.1 184.4 Q 75.1 182.2, 74.2 181.2 Q 73.3 180.1, 71.6 180.1 Q 70.0 180.1, 69.0 181.1 Q 68.2 182.2, 68.2 184.4 Q 68.2 186.6, 69.0 187.7 Q 70.0 188.8, 71.6 188.8 " fill="#FF0000"/>
<path class="atom-14" d="M 32.7 81.5 L 34.2 81.5 L 34.2 86.1 L 39.8 86.1 L 39.8 81.5 L 41.2 81.5 L 41.2 92.4 L 39.8 92.4 L 39.8 87.3 L 34.2 87.3 L 34.2 92.4 L 32.7 92.4 L 32.7 81.5 " fill="#FF0000"/>
<path class="atom-14" d="M 43.5 86.9 Q 43.5 84.3, 44.8 82.8 Q 46.0 81.4, 48.5 81.4 Q 50.9 81.4, 52.2 82.8 Q 53.4 84.3, 53.4 86.9 Q 53.4 89.5, 52.1 91.0 Q 50.8 92.5, 48.5 92.5 Q 46.1 92.5, 44.8 91.0 Q 43.5 89.5, 43.5 86.9 M 48.5 91.3 Q 50.1 91.3, 51.0 90.2 Q 51.9 89.1, 51.9 86.9 Q 51.9 84.7, 51.0 83.7 Q 50.1 82.6, 48.5 82.6 Q 46.8 82.6, 45.9 83.7 Q 45.0 84.7, 45.0 86.9 Q 45.0 89.1, 45.9 90.2 Q 46.8 91.3, 48.5 91.3 " fill="#FF0000"/>
<path class="atom-16" d="M 133.9 15.5 Q 133.9 12.9, 135.2 11.5 Q 136.5 10.0, 138.9 10.0 Q 141.3 10.0, 142.6 11.5 Q 143.9 12.9, 143.9 15.5 Q 143.9 18.2, 142.6 19.7 Q 141.3 21.2, 138.9 21.2 Q 136.5 21.2, 135.2 19.7 Q 133.9 18.2, 133.9 15.5 M 138.9 19.9 Q 140.6 19.9, 141.5 18.8 Q 142.4 17.7, 142.4 15.5 Q 142.4 13.4, 141.5 12.3 Q 140.6 11.2, 138.9 11.2 Q 137.3 11.2, 136.4 12.3 Q 135.5 13.4, 135.5 15.5 Q 135.5 17.7, 136.4 18.8 Q 137.3 19.9, 138.9 19.9 " fill="#FF0000"/>
<path class="atom-17" d="M 169.5 61.5 Q 169.5 58.8, 170.8 57.4 Q 172.1 55.9, 174.5 55.9 Q 177.0 55.9, 178.2 57.4 Q 179.5 58.8, 179.5 61.5 Q 179.5 64.1, 178.2 65.6 Q 176.9 67.1, 174.5 67.1 Q 172.1 67.1, 170.8 65.6 Q 169.5 64.1, 169.5 61.5 M 174.5 65.9 Q 176.2 65.9, 177.1 64.8 Q 178.0 63.6, 178.0 61.5 Q 178.0 59.3, 177.1 58.2 Q 176.2 57.2, 174.5 57.2 Q 172.9 57.2, 172.0 58.2 Q 171.1 59.3, 171.1 61.5 Q 171.1 63.7, 172.0 64.8 Q 172.9 65.9, 174.5 65.9 " fill="#FF0000"/>
<path class="atom-17" d="M 181.2 56.0 L 182.7 56.0 L 182.7 60.7 L 188.3 60.7 L 188.3 56.0 L 189.7 56.0 L 189.7 66.9 L 188.3 66.9 L 188.3 61.9 L 182.7 61.9 L 182.7 66.9 L 181.2 66.9 L 181.2 56.0 " fill="#FF0000"/>
</svg>
