<?xml version='1.0' encoding='ASCII' standalone='yes'?>
<svg xmlns="http://www.w3.org/2000/svg" xmlns:rdkit="http://www.rdkit.org/xml" xmlns:xlink="http://www.w3.org/1999/xlink" version="1.1" baseProfile="full" xml:space="preserve" width="307px" height="200px" viewBox="0 0 307 200">
<!-- END OF HEADER -->
<rect style="opacity:1.0;fill:#FFFFFF;stroke:none" width="307.0" height="200.0" x="0.0" y="0.0"> </rect>
<path class="bond-0 atom-0 atom-1" d="M 282.7,63.9 L 250.5,56.9" style="fill:none;fill-rule:evenodd;stroke:#000000;stroke-width:2.0px;stroke-linecap:butt;stroke-linejoin:miter;stroke-opacity:1"/>
<path class="bond-1 atom-1 atom-2" d="M 250.5,56.9 L 246.5,44.2" style="fill:none;fill-rule:evenodd;stroke:#000000;stroke-width:2.0px;stroke-linecap:butt;stroke-linejoin:miter;stroke-opacity:1"/>
<path class="bond-1 atom-1 atom-2" d="M 246.5,44.2 L 242.4,31.4" style="fill:none;fill-rule:evenodd;stroke:#FF0000;stroke-width:2.0px;stroke-linecap:butt;stroke-linejoin:miter;stroke-opacity:1"/>
<path class="bond-2 atom-1 atom-3" d="M 250.5,56.9 L 228.3,81.3" style="fill:none;fill-rule:evenodd;stroke:#000000;stroke-width:2.0px;stroke-linecap:butt;stroke-linejoin:miter;stroke-opacity:1"/>
<path class="bond-3 atom-3 atom-4" d="M 228.3,81.3 L 252.7,103.5" style="fill:none;fill-rule:evenodd;stroke:#000000;stroke-width:2.0px;stroke-linecap:butt;stroke-linejoin:miter;stroke-opacity:1"/>
<path class="bond-4 atom-3 atom-5" d="M 228.3,81.3 L 203.9,59.1" style="fill:none;fill-rule:evenodd;stroke:#000000;stroke-width:2.0px;stroke-linecap:butt;stroke-linejoin:miter;stroke-opacity:1"/>
<path class="bond-5 atom-5 atom-6" d="M 203.9,59.1 L 172.5,69.1" style="fill:none;fill-rule:evenodd;stroke:#000000;stroke-width:2.0px;stroke-linecap:butt;stroke-linejoin:miter;stroke-opacity:1"/>
<path class="bond-6 atom-6 atom-7" d="M 172.5,69.1 L 165.5,101.3" style="fill:none;fill-rule:evenodd;stroke:#000000;stroke-width:2.0px;stroke-linecap:butt;stroke-linejoin:miter;stroke-opacity:1"/>
<path class="bond-7 atom-7 atom-8" d="M 165.5,101.3 L 134.1,111.3" style="fill:none;fill-rule:evenodd;stroke:#000000;stroke-width:2.0px;stroke-linecap:butt;stroke-linejoin:miter;stroke-opacity:1"/>
<path class="bond-8 atom-8 atom-9" d="M 134.1,111.3 L 102.7,121.4" style="fill:none;fill-rule:evenodd;stroke:#000000;stroke-width:2.0px;stroke-linecap:butt;stroke-linejoin:miter;stroke-opacity:1"/>
<path class="bond-9 atom-8 atom-10" d="M 134.1,111.3 L 124.1,79.9" style="fill:none;fill-rule:evenodd;stroke:#000000;stroke-width:2.0px;stroke-linecap:butt;stroke-linejoin:miter;stroke-opacity:1"/>
<path class="bond-10 atom-10 atom-11" d="M 124.1,79.9 L 91.9,72.9" style="fill:none;fill-rule:evenodd;stroke:#000000;stroke-width:2.0px;stroke-linecap:butt;stroke-linejoin:miter;stroke-opacity:1"/>
<path class="bond-11 atom-11 atom-12" d="M 91.9,72.9 L 84.8,105.1" style="fill:none;fill-rule:evenodd;stroke:#000000;stroke-width:2.0px;stroke-linecap:butt;stroke-linejoin:miter;stroke-opacity:1"/>
<path class="bond-12 atom-11 atom-13" d="M 91.9,72.9 L 98.9,40.7" style="fill:none;fill-rule:evenodd;stroke:#000000;stroke-width:2.0px;stroke-linecap:butt;stroke-linejoin:miter;stroke-opacity:1"/>
<path class="bond-13 atom-11 atom-14" d="M 91.9,72.9 L 59.7,65.9" style="fill:none;fill-rule:evenodd;stroke:#000000;stroke-width:2.0px;stroke-linecap:butt;stroke-linejoin:miter;stroke-opacity:1"/>
<path class="bond-14 atom-14 atom-15" d="M 62.4,66.5 L 58.1,53.1" style="fill:none;fill-rule:evenodd;stroke:#000000;stroke-width:2.0px;stroke-linecap:butt;stroke-linejoin:miter;stroke-opacity:1"/>
<path class="bond-14 atom-14 atom-15" d="M 58.1,53.1 L 53.9,39.7" style="fill:none;fill-rule:evenodd;stroke:#FF0000;stroke-width:2.0px;stroke-linecap:butt;stroke-linejoin:miter;stroke-opacity:1"/>
<path class="bond-14 atom-14 atom-15" d="M 57.8,68.0 L 53.5,54.6" style="fill:none;fill-rule:evenodd;stroke:#000000;stroke-width:2.0px;stroke-linecap:butt;stroke-linejoin:miter;stroke-opacity:1"/>
<path class="bond-14 atom-14 atom-15" d="M 53.5,54.6 L 49.2,41.2" style="fill:none;fill-rule:evenodd;stroke:#FF0000;stroke-width:2.0px;stroke-linecap:butt;stroke-linejoin:miter;stroke-opacity:1"/>
<path class="bond-15 atom-14 atom-16" d="M 59.7,65.9 L 51.2,75.2" style="fill:none;fill-rule:evenodd;stroke:#000000;stroke-width:2.0px;stroke-linecap:butt;stroke-linejoin:miter;stroke-opacity:1"/>
<path class="bond-15 atom-14 atom-16" d="M 51.2,75.2 L 42.8,84.5" style="fill:none;fill-rule:evenodd;stroke:#FF0000;stroke-width:2.0px;stroke-linecap:butt;stroke-linejoin:miter;stroke-opacity:1"/>
<path class="bond-16 atom-8 atom-17" d="M 134.1,111.3 L 144.1,142.8" style="fill:none;fill-rule:evenodd;stroke:#000000;stroke-width:2.0px;stroke-linecap:butt;stroke-linejoin:miter;stroke-opacity:1"/>
<path class="bond-17 atom-17 atom-18" d="M 142.2,144.8 L 156.3,147.9" style="fill:none;fill-rule:evenodd;stroke:#000000;stroke-width:2.0px;stroke-linecap:butt;stroke-linejoin:miter;stroke-opacity:1"/>
<path class="bond-17 atom-17 atom-18" d="M 156.3,147.9 L 170.4,151.0" style="fill:none;fill-rule:evenodd;stroke:#FF0000;stroke-width:2.0px;stroke-linecap:butt;stroke-linejoin:miter;stroke-opacity:1"/>
<path class="bond-17 atom-17 atom-18" d="M 143.3,140.1 L 157.4,143.2" style="fill:none;fill-rule:evenodd;stroke:#000000;stroke-width:2.0px;stroke-linecap:butt;stroke-linejoin:miter;stroke-opacity:1"/>
<path class="bond-17 atom-17 atom-18" d="M 157.4,143.2 L 171.5,146.2" style="fill:none;fill-rule:evenodd;stroke:#FF0000;stroke-width:2.0px;stroke-linecap:butt;stroke-linejoin:miter;stroke-opacity:1"/>
<path class="bond-18 atom-17 atom-19" d="M 144.1,142.8 L 135.7,152.0" style="fill:none;fill-rule:evenodd;stroke:#000000;stroke-width:2.0px;stroke-linecap:butt;stroke-linejoin:miter;stroke-opacity:1"/>
<path class="bond-18 atom-17 atom-19" d="M 135.7,152.0 L 127.2,161.3" style="fill:none;fill-rule:evenodd;stroke:#FF0000;stroke-width:2.0px;stroke-linecap:butt;stroke-linejoin:miter;stroke-opacity:1"/>
<path class="bond-19 atom-6 atom-20" d="M 172.5,69.1 L 148.2,46.9" style="fill:none;fill-rule:evenodd;stroke:#000000;stroke-width:2.0px;stroke-linecap:butt;stroke-linejoin:miter;stroke-opacity:1"/>
<path class="bond-20 atom-20 atom-21" d="M 150.2,48.8 L 153.3,35.0" style="fill:none;fill-rule:evenodd;stroke:#000000;stroke-width:2.0px;stroke-linecap:butt;stroke-linejoin:miter;stroke-opacity:1"/>
<path class="bond-20 atom-20 atom-21" d="M 153.3,35.0 L 156.3,21.2" style="fill:none;fill-rule:evenodd;stroke:#FF0000;stroke-width:2.0px;stroke-linecap:butt;stroke-linejoin:miter;stroke-opacity:1"/>
<path class="bond-20 atom-20 atom-21" d="M 145.5,47.8 L 148.5,34.0" style="fill:none;fill-rule:evenodd;stroke:#000000;stroke-width:2.0px;stroke-linecap:butt;stroke-linejoin:miter;stroke-opacity:1"/>
<path class="bond-20 atom-20 atom-21" d="M 148.5,34.0 L 151.5,20.1" style="fill:none;fill-rule:evenodd;stroke:#FF0000;stroke-width:2.0px;stroke-linecap:butt;stroke-linejoin:miter;stroke-opacity:1"/>
<path class="bond-21 atom-20 atom-22" d="M 148.2,46.9 L 135.1,51.1" style="fill:none;fill-rule:evenodd;stroke:#000000;stroke-width:2.0px;stroke-linecap:butt;stroke-linejoin:miter;stroke-opacity:1"/>
<path class="bond-21 atom-20 atom-22" d="M 135.1,51.1 L 122.1,55.2" style="fill:none;fill-rule:evenodd;stroke:#FF0000;stroke-width:2.0px;stroke-linecap:butt;stroke-linejoin:miter;stroke-opacity:1"/>
<path class="bond-22 atom-3 atom-23" d="M 228.3,81.3 L 206.1,105.7" style="fill:none;fill-rule:evenodd;stroke:#000000;stroke-width:2.0px;stroke-linecap:butt;stroke-linejoin:miter;stroke-opacity:1"/>
<path class="bond-23 atom-23 atom-24" d="M 203.6,105.8 L 207.8,118.9" style="fill:none;fill-rule:evenodd;stroke:#000000;stroke-width:2.0px;stroke-linecap:butt;stroke-linejoin:miter;stroke-opacity:1"/>
<path class="bond-23 atom-23 atom-24" d="M 207.8,118.9 L 212.0,132.0" style="fill:none;fill-rule:evenodd;stroke:#FF0000;stroke-width:2.0px;stroke-linecap:butt;stroke-linejoin:miter;stroke-opacity:1"/>
<path class="bond-23 atom-23 atom-24" d="M 208.0,103.6 L 212.4,117.4" style="fill:none;fill-rule:evenodd;stroke:#000000;stroke-width:2.0px;stroke-linecap:butt;stroke-linejoin:miter;stroke-opacity:1"/>
<path class="bond-23 atom-23 atom-24" d="M 212.4,117.4 L 216.6,130.6" style="fill:none;fill-rule:evenodd;stroke:#FF0000;stroke-width:2.0px;stroke-linecap:butt;stroke-linejoin:miter;stroke-opacity:1"/>
<path class="bond-24 atom-23 atom-25" d="M 206.1,105.7 L 198.0,105.9" style="fill:none;fill-rule:evenodd;stroke:#000000;stroke-width:2.0px;stroke-linecap:butt;stroke-linejoin:miter;stroke-opacity:1"/>
<path class="bond-24 atom-23 atom-25" d="M 198.0,105.9 L 189.9,106.2" style="fill:none;fill-rule:evenodd;stroke:#FF0000;stroke-width:2.0px;stroke-linecap:butt;stroke-linejoin:miter;stroke-opacity:1"/>
<path d="M 205.2,60.2 L 203.9,59.1 L 202.4,59.6" style="fill:none;stroke:#000000;stroke-width:2.0px;stroke-linecap:butt;stroke-linejoin:miter;stroke-opacity:1;"/>
<path d="M 165.9,99.7 L 165.5,101.3 L 163.9,101.8" style="fill:none;stroke:#000000;stroke-width:2.0px;stroke-linecap:butt;stroke-linejoin:miter;stroke-opacity:1;"/>
<path d="M 124.6,81.5 L 124.1,79.9 L 122.5,79.6" style="fill:none;stroke:#000000;stroke-width:2.0px;stroke-linecap:butt;stroke-linejoin:miter;stroke-opacity:1;"/>
<path d="M 61.3,66.2 L 59.7,65.9 L 59.2,66.3" style="fill:none;stroke:#000000;stroke-width:2.0px;stroke-linecap:butt;stroke-linejoin:miter;stroke-opacity:1;"/>
<path d="M 143.6,141.2 L 144.1,142.8 L 143.7,143.2" style="fill:none;stroke:#000000;stroke-width:2.0px;stroke-linecap:butt;stroke-linejoin:miter;stroke-opacity:1;"/>
<path d="M 149.4,48.0 L 148.2,46.9 L 147.5,47.1" style="fill:none;stroke:#000000;stroke-width:2.0px;stroke-linecap:butt;stroke-linejoin:miter;stroke-opacity:1;"/>
<path d="M 207.2,104.5 L 206.1,105.7 L 205.7,105.7" style="fill:none;stroke:#000000;stroke-width:2.0px;stroke-linecap:butt;stroke-linejoin:miter;stroke-opacity:1;"/>
<path class="atom-2" d="M 236.2 25.5 Q 236.2 23.3, 237.3 22.0 Q 238.4 20.8, 240.5 20.8 Q 242.6 20.8, 243.7 22.0 Q 244.8 23.3, 244.8 25.5 Q 244.8 27.8, 243.7 29.1 Q 242.5 30.4, 240.5 30.4 Q 238.4 30.4, 237.3 29.1 Q 236.2 27.8, 236.2 25.5 M 240.5 29.3 Q 241.9 29.3, 242.7 28.4 Q 243.5 27.4, 243.5 25.5 Q 243.5 23.7, 242.7 22.8 Q 241.9 21.8, 240.5 21.8 Q 239.1 21.8, 238.3 22.8 Q 237.5 23.7, 237.5 25.5 Q 237.5 27.4, 238.3 28.4 Q 239.1 29.3, 240.5 29.3 " fill="#FF0000"/>
<path class="atom-2" d="M 246.2 20.9 L 247.5 20.9 L 247.5 24.9 L 252.3 24.9 L 252.3 20.9 L 253.5 20.9 L 253.5 30.2 L 252.3 30.2 L 252.3 25.9 L 247.5 25.9 L 247.5 30.2 L 246.2 30.2 L 246.2 20.9 " fill="#FF0000"/>
<path class="atom-15" d="M 45.4 34.5 Q 45.4 32.3, 46.5 31.0 Q 47.6 29.7, 49.7 29.7 Q 51.7 29.7, 52.8 31.0 Q 53.9 32.3, 53.9 34.5 Q 53.9 36.8, 52.8 38.1 Q 51.7 39.3, 49.7 39.3 Q 47.6 39.3, 46.5 38.1 Q 45.4 36.8, 45.4 34.5 M 49.7 38.3 Q 51.1 38.3, 51.8 37.3 Q 52.6 36.4, 52.6 34.5 Q 52.6 32.7, 51.8 31.7 Q 51.1 30.8, 49.7 30.8 Q 48.2 30.8, 47.5 31.7 Q 46.7 32.7, 46.7 34.5 Q 46.7 36.4, 47.5 37.3 Q 48.2 38.3, 49.7 38.3 " fill="#FF0000"/>
<path class="atom-16" d="M 24.0 85.6 L 25.2 85.6 L 25.2 89.6 L 30.0 89.6 L 30.0 85.6 L 31.3 85.6 L 31.3 95.0 L 30.0 95.0 L 30.0 90.7 L 25.2 90.7 L 25.2 95.0 L 24.0 95.0 L 24.0 85.6 " fill="#FF0000"/>
<path class="atom-16" d="M 33.2 90.3 Q 33.2 88.0, 34.3 86.8 Q 35.4 85.5, 37.5 85.5 Q 39.5 85.5, 40.7 86.8 Q 41.8 88.0, 41.8 90.3 Q 41.8 92.6, 40.6 93.8 Q 39.5 95.1, 37.5 95.1 Q 35.4 95.1, 34.3 93.8 Q 33.2 92.6, 33.2 90.3 M 37.5 94.1 Q 38.9 94.1, 39.7 93.1 Q 40.4 92.2, 40.4 90.3 Q 40.4 88.5, 39.7 87.5 Q 38.9 86.6, 37.5 86.6 Q 36.1 86.6, 35.3 87.5 Q 34.5 88.4, 34.5 90.3 Q 34.5 92.2, 35.3 93.1 Q 36.1 94.1, 37.5 94.1 " fill="#FF0000"/>
<path class="atom-18" d="M 172.0 149.8 Q 172.0 147.6, 173.1 146.3 Q 174.3 145.1, 176.3 145.1 Q 178.4 145.1, 179.5 146.3 Q 180.6 147.6, 180.6 149.8 Q 180.6 152.1, 179.5 153.4 Q 178.4 154.7, 176.3 154.7 Q 174.3 154.7, 173.1 153.4 Q 172.0 152.1, 172.0 149.8 M 176.3 153.6 Q 177.8 153.6, 178.5 152.6 Q 179.3 151.7, 179.3 149.8 Q 179.3 148.0, 178.5 147.1 Q 177.8 146.1, 176.3 146.1 Q 174.9 146.1, 174.1 147.0 Q 173.4 148.0, 173.4 149.8 Q 173.4 151.7, 174.1 152.6 Q 174.9 153.6, 176.3 153.6 " fill="#FF0000"/>
<path class="atom-19" d="M 108.4 162.5 L 109.7 162.5 L 109.7 166.5 L 114.5 166.5 L 114.5 162.5 L 115.7 162.5 L 115.7 171.9 L 114.5 171.9 L 114.5 167.5 L 109.7 167.5 L 109.7 171.9 L 108.4 171.9 L 108.4 162.5 " fill="#FF0000"/>
<path class="atom-19" d="M 117.6 167.2 Q 117.6 164.9, 118.7 163.7 Q 119.9 162.4, 121.9 162.4 Q 124.0 162.4, 125.1 163.7 Q 126.2 164.9, 126.2 167.2 Q 126.2 169.4, 125.1 170.7 Q 124.0 172.0, 121.9 172.0 Q 119.9 172.0, 118.7 170.7 Q 117.6 169.4, 117.6 167.2 M 121.9 170.9 Q 123.4 170.9, 124.1 170.0 Q 124.9 169.0, 124.9 167.2 Q 124.9 165.3, 124.1 164.4 Q 123.4 163.5, 121.9 163.5 Q 120.5 163.5, 119.7 164.4 Q 119.0 165.3, 119.0 167.2 Q 119.0 169.0, 119.7 170.0 Q 120.5 170.9, 121.9 170.9 " fill="#FF0000"/>
<path class="atom-21" d="M 150.9 14.7 Q 150.9 12.5, 152.0 11.3 Q 153.1 10.0, 155.2 10.0 Q 157.3 10.0, 158.4 11.3 Q 159.5 12.5, 159.5 14.7 Q 159.5 17.0, 158.4 18.3 Q 157.2 19.6, 155.2 19.6 Q 153.1 19.6, 152.0 18.3 Q 150.9 17.0, 150.9 14.7 M 155.2 18.5 Q 156.6 18.5, 157.4 17.6 Q 158.2 16.6, 158.2 14.7 Q 158.2 12.9, 157.4 12.0 Q 156.6 11.1, 155.2 11.1 Q 153.8 11.1, 153.0 12.0 Q 152.2 12.9, 152.2 14.7 Q 152.2 16.6, 153.0 17.6 Q 153.8 18.5, 155.2 18.5 " fill="#FF0000"/>
<path class="atom-22" d="M 103.2 52.3 L 104.5 52.3 L 104.5 56.3 L 109.3 56.3 L 109.3 52.3 L 110.6 52.3 L 110.6 61.7 L 109.3 61.7 L 109.3 57.4 L 104.5 57.4 L 104.5 61.7 L 103.2 61.7 L 103.2 52.3 " fill="#FF0000"/>
<path class="atom-22" d="M 112.5 57.0 Q 112.5 54.7, 113.6 53.5 Q 114.7 52.2, 116.8 52.2 Q 118.8 52.2, 119.9 53.5 Q 121.0 54.7, 121.0 57.0 Q 121.0 59.2, 119.9 60.5 Q 118.8 61.8, 116.8 61.8 Q 114.7 61.8, 113.6 60.5 Q 112.5 59.3, 112.5 57.0 M 116.8 60.8 Q 118.2 60.8, 118.9 59.8 Q 119.7 58.8, 119.7 57.0 Q 119.7 55.1, 118.9 54.2 Q 118.2 53.3, 116.8 53.3 Q 115.3 53.3, 114.6 54.2 Q 113.8 55.1, 113.8 57.0 Q 113.8 58.9, 114.6 59.8 Q 115.3 60.8, 116.8 60.8 " fill="#FF0000"/>
<path class="atom-24" d="M 211.9 137.1 Q 211.9 134.9, 213.0 133.6 Q 214.1 132.4, 216.2 132.4 Q 218.2 132.4, 219.3 133.6 Q 220.4 134.9, 220.4 137.1 Q 220.4 139.4, 219.3 140.7 Q 218.2 142.0, 216.2 142.0 Q 214.1 142.0, 213.0 140.7 Q 211.9 139.4, 211.9 137.1 M 216.2 140.9 Q 217.6 140.9, 218.3 139.9 Q 219.1 139.0, 219.1 137.1 Q 219.1 135.3, 218.3 134.4 Q 217.6 133.4, 216.2 133.4 Q 214.7 133.4, 214.0 134.3 Q 213.2 135.3, 213.2 137.1 Q 213.2 139.0, 214.0 139.9 Q 214.7 140.9, 216.2 140.9 " fill="#FF0000"/>
<path class="atom-25" d="M 171.0 101.7 L 172.3 101.7 L 172.3 105.7 L 177.0 105.7 L 177.0 101.7 L 178.3 101.7 L 178.3 111.0 L 177.0 111.0 L 177.0 106.7 L 172.3 106.7 L 172.3 111.0 L 171.0 111.0 L 171.0 101.7 " fill="#FF0000"/>
<path class="atom-25" d="M 180.2 106.3 Q 180.2 104.1, 181.3 102.8 Q 182.4 101.6, 184.5 101.6 Q 186.6 101.6, 187.7 102.8 Q 188.8 104.1, 188.8 106.3 Q 188.8 108.6, 187.7 109.9 Q 186.6 111.2, 184.5 111.2 Q 182.5 111.2, 181.3 109.9 Q 180.2 108.6, 180.2 106.3 M 184.5 110.1 Q 185.9 110.1, 186.7 109.2 Q 187.5 108.2, 187.5 106.3 Q 187.5 104.5, 186.7 103.6 Q 185.9 102.6, 184.5 102.6 Q 183.1 102.6, 182.3 103.6 Q 181.5 104.5, 181.5 106.3 Q 181.5 108.2, 182.3 109.2 Q 183.1 110.1, 184.5 110.1 " fill="#FF0000"/>
<path class="legend" d="M 144.8 181.9 Q 144.8 179.6, 145.5 177.7 Q 146.2 175.8, 147.5 173.8 L 148.4 174.4 Q 147.3 176.3, 146.8 178.0 Q 146.3 179.7, 146.3 181.9 Q 146.3 184.0, 146.8 185.8 Q 147.3 187.5, 148.4 189.4 L 147.5 190.0 Q 146.2 188.0, 145.5 186.1 Q 144.8 184.2, 144.8 181.9 " fill="#000000"/>
<path class="legend" d="M 149.3 177.3 Q 149.7 176.2, 150.7 175.6 Q 151.7 175.0, 153.1 175.0 Q 154.8 175.0, 155.7 175.9 Q 156.7 176.8, 156.7 178.5 Q 156.7 180.2, 155.4 181.7 Q 154.2 183.3, 151.7 185.2 L 156.9 185.2 L 156.9 186.4 L 149.3 186.4 L 149.3 185.4 Q 151.4 183.9, 152.6 182.8 Q 153.9 181.6, 154.5 180.6 Q 155.1 179.6, 155.1 178.6 Q 155.1 177.5, 154.5 176.9 Q 154.0 176.3, 153.1 176.3 Q 152.1 176.3, 151.5 176.6 Q 150.9 177.0, 150.5 177.8 L 149.3 177.3 " fill="#000000"/>
<path class="legend" d="M 161.9 181.9 Q 161.9 184.2, 161.2 186.1 Q 160.5 188.0, 159.2 190.0 L 158.3 189.4 Q 159.4 187.5, 159.9 185.8 Q 160.4 184.0, 160.4 181.9 Q 160.4 179.7, 159.9 178.0 Q 159.4 176.3, 158.3 174.4 L 159.2 173.8 Q 160.5 175.8, 161.2 177.7 Q 161.9 179.6, 161.9 181.9 " fill="#000000"/>
</svg>
