<?xml version='1.0' encoding='ASCII' standalone='yes'?>
<svg xmlns="http://www.w3.org/2000/svg" xmlns:rdkit="http://www.rdkit.org/xml" xmlns:xlink="http://www.w3.org/1999/xlink" version="1.1" baseProfile="full" xml:space="preserve" width="293px" height="200px" viewBox="0 0 293 200">
<!-- END OF HEADER -->
<rect style="opacity:1.0;fill:#FFFFFF;stroke:none" width="293.0" height="200.0" x="0.0" y="0.0"> </rect>
<path class="bond-0 atom-0 atom-1" d="M 14.7,69.1 L 39.8,61.3" style="fill:none;fill-rule:evenodd;stroke:#000000;stroke-width:2.0px;stroke-linecap:butt;stroke-linejoin:miter;stroke-opacity:1"/>
<path class="bond-1 atom-1 atom-2" d="M 39.8,61.3 L 59.1,79.2" style="fill:none;fill-rule:evenodd;stroke:#000000;stroke-width:2.0px;stroke-linecap:butt;stroke-linejoin:miter;stroke-opacity:1"/>
<path class="bond-2 atom-2 atom-3" d="M 59.1,79.2 L 84.3,71.4" style="fill:none;fill-rule:evenodd;stroke:#000000;stroke-width:2.0px;stroke-linecap:butt;stroke-linejoin:miter;stroke-opacity:1"/>
<path class="bond-3 atom-3 atom-4" d="M 84.3,71.4 L 103.6,89.4" style="fill:none;fill-rule:evenodd;stroke:#000000;stroke-width:2.0px;stroke-linecap:butt;stroke-linejoin:miter;stroke-opacity:1"/>
<path class="bond-4 atom-4 atom-5" d="M 103.6,89.4 L 128.8,81.6" style="fill:none;fill-rule:evenodd;stroke:#000000;stroke-width:2.0px;stroke-linecap:butt;stroke-linejoin:miter;stroke-opacity:1"/>
<path class="bond-5 atom-4 atom-6" d="M 103.6,89.4 L 97.8,115.0" style="fill:none;fill-rule:evenodd;stroke:#000000;stroke-width:2.0px;stroke-linecap:butt;stroke-linejoin:miter;stroke-opacity:1"/>
<path class="bond-6 atom-6 atom-7" d="M 97.8,115.0 L 117.1,133.0" style="fill:none;fill-rule:evenodd;stroke:#000000;stroke-width:2.0px;stroke-linecap:butt;stroke-linejoin:miter;stroke-opacity:1"/>
<path class="bond-7 atom-7 atom-8" d="M 117.1,133.0 L 111.3,158.6" style="fill:none;fill-rule:evenodd;stroke:#000000;stroke-width:2.0px;stroke-linecap:butt;stroke-linejoin:miter;stroke-opacity:1"/>
<path class="bond-8 atom-7 atom-9" d="M 117.1,133.0 L 142.3,125.2" style="fill:none;fill-rule:evenodd;stroke:#000000;stroke-width:2.0px;stroke-linecap:butt;stroke-linejoin:miter;stroke-opacity:1"/>
<path class="bond-9 atom-9 atom-10" d="M 142.3,125.2 L 161.6,143.1" style="fill:none;fill-rule:evenodd;stroke:#000000;stroke-width:2.0px;stroke-linecap:butt;stroke-linejoin:miter;stroke-opacity:1"/>
<path class="bond-10 atom-10 atom-11" d="M 161.6,143.1 L 186.8,135.3" style="fill:none;fill-rule:evenodd;stroke:#000000;stroke-width:2.0px;stroke-linecap:butt;stroke-linejoin:miter;stroke-opacity:1"/>
<path class="bond-11 atom-11 atom-12" d="M 186.8,135.3 L 206.1,153.2" style="fill:none;fill-rule:evenodd;stroke:#000000;stroke-width:2.0px;stroke-linecap:butt;stroke-linejoin:miter;stroke-opacity:1"/>
<path class="bond-12 atom-11 atom-13" d="M 186.8,135.3 L 192.6,109.6" style="fill:none;fill-rule:evenodd;stroke:#000000;stroke-width:2.0px;stroke-linecap:butt;stroke-linejoin:miter;stroke-opacity:1"/>
<path class="bond-13 atom-13 atom-14" d="M 192.6,109.6 L 217.8,101.8" style="fill:none;fill-rule:evenodd;stroke:#000000;stroke-width:2.0px;stroke-linecap:butt;stroke-linejoin:miter;stroke-opacity:1"/>
<path class="bond-14 atom-14 atom-15" d="M 217.8,101.8 L 223.6,76.2" style="fill:none;fill-rule:evenodd;stroke:#000000;stroke-width:2.0px;stroke-linecap:butt;stroke-linejoin:miter;stroke-opacity:1"/>
<path class="bond-15 atom-15 atom-16" d="M 223.6,76.2 L 229.5,50.5" style="fill:none;fill-rule:evenodd;stroke:#000000;stroke-width:2.0px;stroke-linecap:butt;stroke-linejoin:miter;stroke-opacity:1"/>
<path class="bond-16 atom-15 atom-17" d="M 223.6,76.2 L 197.9,70.3" style="fill:none;fill-rule:evenodd;stroke:#000000;stroke-width:2.0px;stroke-linecap:butt;stroke-linejoin:miter;stroke-opacity:1"/>
<path class="bond-17 atom-17 atom-18" d="M 197.9,70.3 L 194.8,60.1" style="fill:none;fill-rule:evenodd;stroke:#000000;stroke-width:2.0px;stroke-linecap:butt;stroke-linejoin:miter;stroke-opacity:1"/>
<path class="bond-17 atom-17 atom-18" d="M 194.8,60.1 L 191.6,49.9" style="fill:none;fill-rule:evenodd;stroke:#FF0000;stroke-width:2.0px;stroke-linecap:butt;stroke-linejoin:miter;stroke-opacity:1"/>
<path class="bond-18 atom-15 atom-19" d="M 223.6,76.2 L 249.3,82.0" style="fill:none;fill-rule:evenodd;stroke:#000000;stroke-width:2.0px;stroke-linecap:butt;stroke-linejoin:miter;stroke-opacity:1"/>
<path class="bond-19 atom-19 atom-20" d="M 247.1,81.5 L 250.4,92.3" style="fill:none;fill-rule:evenodd;stroke:#000000;stroke-width:2.0px;stroke-linecap:butt;stroke-linejoin:miter;stroke-opacity:1"/>
<path class="bond-19 atom-19 atom-20" d="M 250.4,92.3 L 253.8,103.1" style="fill:none;fill-rule:evenodd;stroke:#FF0000;stroke-width:2.0px;stroke-linecap:butt;stroke-linejoin:miter;stroke-opacity:1"/>
<path class="bond-19 atom-19 atom-20" d="M 250.9,80.3 L 254.2,91.1" style="fill:none;fill-rule:evenodd;stroke:#000000;stroke-width:2.0px;stroke-linecap:butt;stroke-linejoin:miter;stroke-opacity:1"/>
<path class="bond-19 atom-19 atom-20" d="M 254.2,91.1 L 257.5,101.9" style="fill:none;fill-rule:evenodd;stroke:#FF0000;stroke-width:2.0px;stroke-linecap:butt;stroke-linejoin:miter;stroke-opacity:1"/>
<path class="bond-20 atom-19 atom-21" d="M 249.3,82.0 L 256.1,74.7" style="fill:none;fill-rule:evenodd;stroke:#000000;stroke-width:2.0px;stroke-linecap:butt;stroke-linejoin:miter;stroke-opacity:1"/>
<path class="bond-20 atom-19 atom-21" d="M 256.1,74.7 L 262.9,67.3" style="fill:none;fill-rule:evenodd;stroke:#FF0000;stroke-width:2.0px;stroke-linecap:butt;stroke-linejoin:miter;stroke-opacity:1"/>
<path d="M 38.6,61.7 L 39.8,61.3 L 40.8,62.2" style="fill:none;stroke:#000000;stroke-width:2.0px;stroke-linecap:butt;stroke-linejoin:miter;stroke-opacity:1;"/>
<path d="M 58.2,78.3 L 59.1,79.2 L 60.4,78.8" style="fill:none;stroke:#000000;stroke-width:2.0px;stroke-linecap:butt;stroke-linejoin:miter;stroke-opacity:1;"/>
<path d="M 83.1,71.8 L 84.3,71.4 L 85.3,72.3" style="fill:none;stroke:#000000;stroke-width:2.0px;stroke-linecap:butt;stroke-linejoin:miter;stroke-opacity:1;"/>
<path d="M 98.1,113.8 L 97.8,115.0 L 98.7,115.9" style="fill:none;stroke:#000000;stroke-width:2.0px;stroke-linecap:butt;stroke-linejoin:miter;stroke-opacity:1;"/>
<path d="M 141.0,125.6 L 142.3,125.2 L 143.2,126.1" style="fill:none;stroke:#000000;stroke-width:2.0px;stroke-linecap:butt;stroke-linejoin:miter;stroke-opacity:1;"/>
<path d="M 160.6,142.2 L 161.6,143.1 L 162.9,142.7" style="fill:none;stroke:#000000;stroke-width:2.0px;stroke-linecap:butt;stroke-linejoin:miter;stroke-opacity:1;"/>
<path d="M 192.3,110.9 L 192.6,109.6 L 193.9,109.2" style="fill:none;stroke:#000000;stroke-width:2.0px;stroke-linecap:butt;stroke-linejoin:miter;stroke-opacity:1;"/>
<path d="M 216.5,102.2 L 217.8,101.8 L 218.1,100.6" style="fill:none;stroke:#000000;stroke-width:2.0px;stroke-linecap:butt;stroke-linejoin:miter;stroke-opacity:1;"/>
<path d="M 199.2,70.6 L 197.9,70.3 L 197.8,69.8" style="fill:none;stroke:#000000;stroke-width:2.0px;stroke-linecap:butt;stroke-linejoin:miter;stroke-opacity:1;"/>
<path d="M 248.0,81.7 L 249.3,82.0 L 249.7,81.6" style="fill:none;stroke:#000000;stroke-width:2.0px;stroke-linecap:butt;stroke-linejoin:miter;stroke-opacity:1;"/>
<path class="atom-18" d="M 186.7 45.2 Q 186.7 43.4, 187.6 42.4 Q 188.5 41.4, 190.2 41.4 Q 191.8 41.4, 192.7 42.4 Q 193.6 43.4, 193.6 45.2 Q 193.6 47.0, 192.7 48.0 Q 191.8 49.0, 190.2 49.0 Q 188.5 49.0, 187.6 48.0 Q 186.7 47.0, 186.7 45.2 M 190.2 48.2 Q 191.3 48.2, 191.9 47.4 Q 192.5 46.7, 192.5 45.2 Q 192.5 43.7, 191.9 43.0 Q 191.3 42.2, 190.2 42.2 Q 189.0 42.2, 188.4 42.9 Q 187.8 43.7, 187.8 45.2 Q 187.8 46.7, 188.4 47.4 Q 189.0 48.2, 190.2 48.2 " fill="#FF0000"/>
<path class="atom-18" d="M 194.8 41.4 L 195.8 41.4 L 195.8 44.6 L 199.6 44.6 L 199.6 41.4 L 200.6 41.4 L 200.6 48.9 L 199.6 48.9 L 199.6 45.5 L 195.8 45.5 L 195.8 48.9 L 194.8 48.9 L 194.8 41.4 " fill="#FF0000"/>
<path class="atom-20" d="M 253.7 107.2 Q 253.7 105.4, 254.6 104.4 Q 255.4 103.4, 257.1 103.4 Q 258.8 103.4, 259.6 104.4 Q 260.5 105.4, 260.5 107.2 Q 260.5 109.0, 259.6 110.0 Q 258.7 111.1, 257.1 111.1 Q 255.5 111.1, 254.6 110.0 Q 253.7 109.0, 253.7 107.2 M 257.1 110.2 Q 258.2 110.2, 258.8 109.5 Q 259.5 108.7, 259.5 107.2 Q 259.5 105.7, 258.8 105.0 Q 258.2 104.2, 257.1 104.2 Q 256.0 104.2, 255.3 105.0 Q 254.7 105.7, 254.7 107.2 Q 254.7 108.7, 255.3 109.5 Q 256.0 110.2, 257.1 110.2 " fill="#FF0000"/>
<path class="atom-21" d="M 263.8 62.7 Q 263.8 60.9, 264.7 59.9 Q 265.6 58.9, 267.2 58.9 Q 268.9 58.9, 269.8 59.9 Q 270.7 60.9, 270.7 62.7 Q 270.7 64.5, 269.8 65.5 Q 268.9 66.6, 267.2 66.6 Q 265.6 66.6, 264.7 65.5 Q 263.8 64.5, 263.8 62.7 M 267.2 65.7 Q 268.4 65.7, 269.0 65.0 Q 269.6 64.2, 269.6 62.7 Q 269.6 61.2, 269.0 60.5 Q 268.4 59.8, 267.2 59.8 Q 266.1 59.8, 265.5 60.5 Q 264.9 61.2, 264.9 62.7 Q 264.9 64.2, 265.5 65.0 Q 266.1 65.7, 267.2 65.7 " fill="#FF0000"/>
<path class="atom-21" d="M 271.8 59.0 L 272.8 59.0 L 272.8 62.2 L 276.6 62.2 L 276.6 59.0 L 277.6 59.0 L 277.6 66.5 L 276.6 66.5 L 276.6 63.0 L 272.8 63.0 L 272.8 66.5 L 271.8 66.5 L 271.8 59.0 " fill="#FF0000"/>
</svg>
