<?xml version='1.0' encoding='ASCII' standalone='yes'?>
<svg xmlns="http://www.w3.org/2000/svg" xmlns:rdkit="http://www.rdkit.org/xml" xmlns:xlink="http://www.w3.org/1999/xlink" version="1.1" baseProfile="full" xml:space="preserve" width="351px" height="200px" viewBox="0 0 351 200">
<!-- END OF HEADER -->
<rect style="opacity:1.0;fill:#FFFFFF;stroke:none" width="351.0" height="200.0" x="0.0" y="0.0"> </rect>
<path class="bond-0 atom-0 atom-1" d="M 17.6,12.5 L 37.8,12.2" style="fill:none;fill-rule:evenodd;stroke:#000000;stroke-width:2.0px;stroke-linecap:butt;stroke-linejoin:miter;stroke-opacity:1"/>
<path class="bond-1 atom-1 atom-2" d="M 37.8,12.2 L 48.2,29.7" style="fill:none;fill-rule:evenodd;stroke:#000000;stroke-width:2.0px;stroke-linecap:butt;stroke-linejoin:miter;stroke-opacity:1"/>
<path class="bond-2 atom-2 atom-3" d="M 48.2,29.7 L 68.4,29.4" style="fill:none;fill-rule:evenodd;stroke:#000000;stroke-width:2.0px;stroke-linecap:butt;stroke-linejoin:miter;stroke-opacity:1"/>
<path class="bond-3 atom-3 atom-4" d="M 68.4,29.4 L 78.8,46.9" style="fill:none;fill-rule:evenodd;stroke:#000000;stroke-width:2.0px;stroke-linecap:butt;stroke-linejoin:miter;stroke-opacity:1"/>
<path class="bond-4 atom-4 atom-5" d="M 78.8,46.9 L 99.0,46.6" style="fill:none;fill-rule:evenodd;stroke:#000000;stroke-width:2.0px;stroke-linecap:butt;stroke-linejoin:miter;stroke-opacity:1"/>
<path class="bond-5 atom-5 atom-6" d="M 99.0,46.6 L 109.4,64.0" style="fill:none;fill-rule:evenodd;stroke:#000000;stroke-width:2.0px;stroke-linecap:butt;stroke-linejoin:miter;stroke-opacity:1"/>
<path class="bond-6 atom-6 atom-7" d="M 109.4,64.0 L 129.7,63.8" style="fill:none;fill-rule:evenodd;stroke:#000000;stroke-width:2.0px;stroke-linecap:butt;stroke-linejoin:miter;stroke-opacity:1"/>
<path class="bond-7 atom-7 atom-8" d="M 130.6,65.3 L 134.7,57.9" style="fill:none;fill-rule:evenodd;stroke:#000000;stroke-width:2.0px;stroke-linecap:butt;stroke-linejoin:miter;stroke-opacity:1"/>
<path class="bond-7 atom-7 atom-8" d="M 134.7,57.9 L 138.8,50.5" style="fill:none;fill-rule:evenodd;stroke:#FF0000;stroke-width:2.0px;stroke-linecap:butt;stroke-linejoin:miter;stroke-opacity:1"/>
<path class="bond-7 atom-7 atom-8" d="M 127.9,63.8 L 132.0,56.4" style="fill:none;fill-rule:evenodd;stroke:#000000;stroke-width:2.0px;stroke-linecap:butt;stroke-linejoin:miter;stroke-opacity:1"/>
<path class="bond-7 atom-7 atom-8" d="M 132.0,56.4 L 136.2,49.0" style="fill:none;fill-rule:evenodd;stroke:#FF0000;stroke-width:2.0px;stroke-linecap:butt;stroke-linejoin:miter;stroke-opacity:1"/>
<path class="bond-8 atom-7 atom-9" d="M 129.7,63.8 L 133.8,70.7" style="fill:none;fill-rule:evenodd;stroke:#000000;stroke-width:2.0px;stroke-linecap:butt;stroke-linejoin:miter;stroke-opacity:1"/>
<path class="bond-8 atom-7 atom-9" d="M 133.8,70.7 L 137.9,77.7" style="fill:none;fill-rule:evenodd;stroke:#FF0000;stroke-width:2.0px;stroke-linecap:butt;stroke-linejoin:miter;stroke-opacity:1"/>
<path class="bond-9 atom-9 atom-10" d="M 143.3,81.2 L 151.8,81.1" style="fill:none;fill-rule:evenodd;stroke:#FF0000;stroke-width:2.0px;stroke-linecap:butt;stroke-linejoin:miter;stroke-opacity:1"/>
<path class="bond-9 atom-9 atom-10" d="M 151.8,81.1 L 160.3,81.0" style="fill:none;fill-rule:evenodd;stroke:#000000;stroke-width:2.0px;stroke-linecap:butt;stroke-linejoin:miter;stroke-opacity:1"/>
<path class="bond-10 atom-10 atom-11" d="M 160.3,81.0 L 170.6,98.4" style="fill:none;fill-rule:evenodd;stroke:#000000;stroke-width:2.0px;stroke-linecap:butt;stroke-linejoin:miter;stroke-opacity:1"/>
<path class="bond-11 atom-11 atom-12" d="M 170.6,98.4 L 190.9,98.2" style="fill:none;fill-rule:evenodd;stroke:#000000;stroke-width:2.0px;stroke-linecap:butt;stroke-linejoin:miter;stroke-opacity:1"/>
<path class="bond-12 atom-12 atom-13" d="M 190.9,98.2 L 195.0,105.1" style="fill:none;fill-rule:evenodd;stroke:#000000;stroke-width:2.0px;stroke-linecap:butt;stroke-linejoin:miter;stroke-opacity:1"/>
<path class="bond-12 atom-12 atom-13" d="M 195.0,105.1 L 199.1,112.0" style="fill:none;fill-rule:evenodd;stroke:#FF0000;stroke-width:2.0px;stroke-linecap:butt;stroke-linejoin:miter;stroke-opacity:1"/>
<path class="bond-13 atom-13 atom-14" d="M 204.5,115.6 L 211.8,115.5" style="fill:none;fill-rule:evenodd;stroke:#FF0000;stroke-width:2.0px;stroke-linecap:butt;stroke-linejoin:miter;stroke-opacity:1"/>
<path class="bond-13 atom-13 atom-14" d="M 211.8,115.5 L 219.0,115.4" style="fill:none;fill-rule:evenodd;stroke:#FF7F00;stroke-width:2.0px;stroke-linecap:butt;stroke-linejoin:miter;stroke-opacity:1"/>
<path class="bond-14 atom-14 atom-15" d="M 220.0,118.9 L 220.1,125.5" style="fill:none;fill-rule:evenodd;stroke:#FF7F00;stroke-width:2.0px;stroke-linecap:butt;stroke-linejoin:miter;stroke-opacity:1"/>
<path class="bond-14 atom-14 atom-15" d="M 220.1,125.5 L 220.2,132.1" style="fill:none;fill-rule:evenodd;stroke:#FF0000;stroke-width:2.0px;stroke-linecap:butt;stroke-linejoin:miter;stroke-opacity:1"/>
<path class="bond-14 atom-14 atom-15" d="M 223.1,118.9 L 223.1,125.4" style="fill:none;fill-rule:evenodd;stroke:#FF7F00;stroke-width:2.0px;stroke-linecap:butt;stroke-linejoin:miter;stroke-opacity:1"/>
<path class="bond-14 atom-14 atom-15" d="M 223.1,125.4 L 223.2,132.0" style="fill:none;fill-rule:evenodd;stroke:#FF0000;stroke-width:2.0px;stroke-linecap:butt;stroke-linejoin:miter;stroke-opacity:1"/>
<path class="bond-15 atom-14 atom-16" d="M 221.5,111.8 L 221.4,105.3" style="fill:none;fill-rule:evenodd;stroke:#FF7F00;stroke-width:2.0px;stroke-linecap:butt;stroke-linejoin:miter;stroke-opacity:1"/>
<path class="bond-15 atom-14 atom-16" d="M 221.4,105.3 L 221.3,98.7" style="fill:none;fill-rule:evenodd;stroke:#FF0000;stroke-width:2.0px;stroke-linecap:butt;stroke-linejoin:miter;stroke-opacity:1"/>
<path class="bond-16 atom-14 atom-17" d="M 224.0,115.3 L 231.2,115.2" style="fill:none;fill-rule:evenodd;stroke:#FF7F00;stroke-width:2.0px;stroke-linecap:butt;stroke-linejoin:miter;stroke-opacity:1"/>
<path class="bond-16 atom-14 atom-17" d="M 231.2,115.2 L 238.5,115.1" style="fill:none;fill-rule:evenodd;stroke:#FF0000;stroke-width:2.0px;stroke-linecap:butt;stroke-linejoin:miter;stroke-opacity:1"/>
<path class="bond-17 atom-17 atom-18" d="M 243.8,111.5 L 247.7,104.5" style="fill:none;fill-rule:evenodd;stroke:#FF0000;stroke-width:2.0px;stroke-linecap:butt;stroke-linejoin:miter;stroke-opacity:1"/>
<path class="bond-17 atom-17 atom-18" d="M 247.7,104.5 L 251.7,97.4" style="fill:none;fill-rule:evenodd;stroke:#000000;stroke-width:2.0px;stroke-linecap:butt;stroke-linejoin:miter;stroke-opacity:1"/>
<path class="bond-18 atom-18 atom-19" d="M 251.7,97.4 L 241.3,80.0" style="fill:none;fill-rule:evenodd;stroke:#000000;stroke-width:2.0px;stroke-linecap:butt;stroke-linejoin:miter;stroke-opacity:1"/>
<path class="bond-19 atom-19 atom-20" d="M 241.3,80.0 L 232.9,80.1" style="fill:none;fill-rule:evenodd;stroke:#000000;stroke-width:2.0px;stroke-linecap:butt;stroke-linejoin:miter;stroke-opacity:1"/>
<path class="bond-19 atom-19 atom-20" d="M 232.9,80.1 L 224.4,80.2" style="fill:none;fill-rule:evenodd;stroke:#FF0000;stroke-width:2.0px;stroke-linecap:butt;stroke-linejoin:miter;stroke-opacity:1"/>
<path class="bond-20 atom-19 atom-21" d="M 241.3,80.0 L 251.3,62.3" style="fill:none;fill-rule:evenodd;stroke:#000000;stroke-width:2.0px;stroke-linecap:butt;stroke-linejoin:miter;stroke-opacity:1"/>
<path class="bond-21 atom-21 atom-22" d="M 251.3,62.3 L 247.2,55.4" style="fill:none;fill-rule:evenodd;stroke:#000000;stroke-width:2.0px;stroke-linecap:butt;stroke-linejoin:miter;stroke-opacity:1"/>
<path class="bond-21 atom-21 atom-22" d="M 247.2,55.4 L 243.1,48.6" style="fill:none;fill-rule:evenodd;stroke:#FF0000;stroke-width:2.0px;stroke-linecap:butt;stroke-linejoin:miter;stroke-opacity:1"/>
<path class="bond-22 atom-21 atom-23" d="M 251.3,62.3 L 271.5,62.1" style="fill:none;fill-rule:evenodd;stroke:#000000;stroke-width:2.0px;stroke-linecap:butt;stroke-linejoin:miter;stroke-opacity:1"/>
<path class="bond-23 atom-23 atom-24" d="M 271.5,62.1 L 275.5,55.1" style="fill:none;fill-rule:evenodd;stroke:#000000;stroke-width:2.0px;stroke-linecap:butt;stroke-linejoin:miter;stroke-opacity:1"/>
<path class="bond-23 atom-23 atom-24" d="M 275.5,55.1 L 279.4,48.1" style="fill:none;fill-rule:evenodd;stroke:#FF0000;stroke-width:2.0px;stroke-linecap:butt;stroke-linejoin:miter;stroke-opacity:1"/>
<path class="bond-24 atom-23 atom-25" d="M 271.5,62.1 L 281.9,79.5" style="fill:none;fill-rule:evenodd;stroke:#000000;stroke-width:2.0px;stroke-linecap:butt;stroke-linejoin:miter;stroke-opacity:1"/>
<path class="bond-25 atom-25 atom-26" d="M 281.9,79.5 L 290.4,79.4" style="fill:none;fill-rule:evenodd;stroke:#000000;stroke-width:2.0px;stroke-linecap:butt;stroke-linejoin:miter;stroke-opacity:1"/>
<path class="bond-25 atom-25 atom-26" d="M 290.4,79.4 L 298.8,79.3" style="fill:none;fill-rule:evenodd;stroke:#FF0000;stroke-width:2.0px;stroke-linecap:butt;stroke-linejoin:miter;stroke-opacity:1"/>
<path class="bond-26 atom-26 atom-27" d="M 304.3,82.9 L 307.3,88.0" style="fill:none;fill-rule:evenodd;stroke:#FF0000;stroke-width:2.0px;stroke-linecap:butt;stroke-linejoin:miter;stroke-opacity:1"/>
<path class="bond-26 atom-26 atom-27" d="M 307.3,88.0 L 310.4,93.2" style="fill:none;fill-rule:evenodd;stroke:#FF7F00;stroke-width:2.0px;stroke-linecap:butt;stroke-linejoin:miter;stroke-opacity:1"/>
<path class="bond-27 atom-27 atom-28" d="M 315.8,96.5 L 321.6,93.1" style="fill:none;fill-rule:evenodd;stroke:#FF7F00;stroke-width:2.0px;stroke-linecap:butt;stroke-linejoin:miter;stroke-opacity:1"/>
<path class="bond-27 atom-27 atom-28" d="M 321.6,93.1 L 327.4,89.6" style="fill:none;fill-rule:evenodd;stroke:#FF0000;stroke-width:2.0px;stroke-linecap:butt;stroke-linejoin:miter;stroke-opacity:1"/>
<path class="bond-27 atom-27 atom-28" d="M 314.2,93.9 L 320.0,90.5" style="fill:none;fill-rule:evenodd;stroke:#FF7F00;stroke-width:2.0px;stroke-linecap:butt;stroke-linejoin:miter;stroke-opacity:1"/>
<path class="bond-27 atom-27 atom-28" d="M 320.0,90.5 L 325.8,87.0" style="fill:none;fill-rule:evenodd;stroke:#FF0000;stroke-width:2.0px;stroke-linecap:butt;stroke-linejoin:miter;stroke-opacity:1"/>
<path class="bond-28 atom-27 atom-29" d="M 310.0,98.2 L 304.2,101.6" style="fill:none;fill-rule:evenodd;stroke:#FF7F00;stroke-width:2.0px;stroke-linecap:butt;stroke-linejoin:miter;stroke-opacity:1"/>
<path class="bond-28 atom-27 atom-29" d="M 304.2,101.6 L 298.4,105.1" style="fill:none;fill-rule:evenodd;stroke:#FF0000;stroke-width:2.0px;stroke-linecap:butt;stroke-linejoin:miter;stroke-opacity:1"/>
<path class="bond-29 atom-27 atom-30" d="M 314.6,100.2 L 317.6,105.4" style="fill:none;fill-rule:evenodd;stroke:#FF7F00;stroke-width:2.0px;stroke-linecap:butt;stroke-linejoin:miter;stroke-opacity:1"/>
<path class="bond-29 atom-27 atom-30" d="M 317.6,105.4 L 320.7,110.6" style="fill:none;fill-rule:evenodd;stroke:#FF0000;stroke-width:2.0px;stroke-linecap:butt;stroke-linejoin:miter;stroke-opacity:1"/>
<path class="bond-30 atom-25 atom-31" d="M 281.9,79.5 L 272.0,97.2" style="fill:none;fill-rule:evenodd;stroke:#000000;stroke-width:2.0px;stroke-linecap:butt;stroke-linejoin:miter;stroke-opacity:1"/>
<path class="bond-31 atom-31 atom-32" d="M 272.0,97.2 L 276.1,104.1" style="fill:none;fill-rule:evenodd;stroke:#000000;stroke-width:2.0px;stroke-linecap:butt;stroke-linejoin:miter;stroke-opacity:1"/>
<path class="bond-31 atom-31 atom-32" d="M 276.1,104.1 L 280.2,111.0" style="fill:none;fill-rule:evenodd;stroke:#FF0000;stroke-width:2.0px;stroke-linecap:butt;stroke-linejoin:miter;stroke-opacity:1"/>
<path class="bond-32 atom-11 atom-33" d="M 170.6,98.4 L 166.7,105.5" style="fill:none;fill-rule:evenodd;stroke:#000000;stroke-width:2.0px;stroke-linecap:butt;stroke-linejoin:miter;stroke-opacity:1"/>
<path class="bond-32 atom-11 atom-33" d="M 166.7,105.5 L 162.7,112.5" style="fill:none;fill-rule:evenodd;stroke:#FF0000;stroke-width:2.0px;stroke-linecap:butt;stroke-linejoin:miter;stroke-opacity:1"/>
<path class="bond-33 atom-33 atom-34" d="M 157.4,116.1 L 148.9,116.2" style="fill:none;fill-rule:evenodd;stroke:#FF0000;stroke-width:2.0px;stroke-linecap:butt;stroke-linejoin:miter;stroke-opacity:1"/>
<path class="bond-33 atom-33 atom-34" d="M 148.9,116.2 L 140.4,116.3" style="fill:none;fill-rule:evenodd;stroke:#000000;stroke-width:2.0px;stroke-linecap:butt;stroke-linejoin:miter;stroke-opacity:1"/>
<path class="bond-34 atom-34 atom-35" d="M 142.2,116.3 L 137.9,109.0" style="fill:none;fill-rule:evenodd;stroke:#000000;stroke-width:2.0px;stroke-linecap:butt;stroke-linejoin:miter;stroke-opacity:1"/>
<path class="bond-34 atom-34 atom-35" d="M 137.9,109.0 L 133.6,101.8" style="fill:none;fill-rule:evenodd;stroke:#FF0000;stroke-width:2.0px;stroke-linecap:butt;stroke-linejoin:miter;stroke-opacity:1"/>
<path class="bond-34 atom-34 atom-35" d="M 139.6,117.9 L 135.3,110.6" style="fill:none;fill-rule:evenodd;stroke:#000000;stroke-width:2.0px;stroke-linecap:butt;stroke-linejoin:miter;stroke-opacity:1"/>
<path class="bond-34 atom-34 atom-35" d="M 135.3,110.6 L 130.9,103.3" style="fill:none;fill-rule:evenodd;stroke:#FF0000;stroke-width:2.0px;stroke-linecap:butt;stroke-linejoin:miter;stroke-opacity:1"/>
<path class="bond-35 atom-34 atom-36" d="M 140.4,116.3 L 130.5,134.0" style="fill:none;fill-rule:evenodd;stroke:#000000;stroke-width:2.0px;stroke-linecap:butt;stroke-linejoin:miter;stroke-opacity:1"/>
<path class="bond-36 atom-36 atom-37" d="M 130.5,134.0 L 110.2,134.2" style="fill:none;fill-rule:evenodd;stroke:#000000;stroke-width:2.0px;stroke-linecap:butt;stroke-linejoin:miter;stroke-opacity:1"/>
<path class="bond-37 atom-37 atom-38" d="M 110.2,134.2 L 100.3,151.9" style="fill:none;fill-rule:evenodd;stroke:#000000;stroke-width:2.0px;stroke-linecap:butt;stroke-linejoin:miter;stroke-opacity:1"/>
<path class="bond-38 atom-38 atom-39" d="M 100.3,151.9 L 80.0,152.2" style="fill:none;fill-rule:evenodd;stroke:#000000;stroke-width:2.0px;stroke-linecap:butt;stroke-linejoin:miter;stroke-opacity:1"/>
<path class="bond-39 atom-39 atom-40" d="M 80.0,152.2 L 70.1,169.8" style="fill:none;fill-rule:evenodd;stroke:#000000;stroke-width:2.0px;stroke-linecap:butt;stroke-linejoin:miter;stroke-opacity:1"/>
<path class="bond-40 atom-40 atom-41" d="M 70.1,169.8 L 49.9,170.1" style="fill:none;fill-rule:evenodd;stroke:#000000;stroke-width:2.0px;stroke-linecap:butt;stroke-linejoin:miter;stroke-opacity:1"/>
<path class="bond-41 atom-41 atom-42" d="M 49.9,170.1 L 39.9,187.8" style="fill:none;fill-rule:evenodd;stroke:#000000;stroke-width:2.0px;stroke-linecap:butt;stroke-linejoin:miter;stroke-opacity:1"/>
<path class="bond-42 atom-31 atom-18" d="M 272.0,97.2 L 251.7,97.4" style="fill:none;fill-rule:evenodd;stroke:#000000;stroke-width:2.0px;stroke-linecap:butt;stroke-linejoin:miter;stroke-opacity:1"/>
<path d="M 36.8,12.3 L 37.8,12.2 L 38.3,13.1" style="fill:none;stroke:#000000;stroke-width:2.0px;stroke-linecap:butt;stroke-linejoin:miter;stroke-opacity:1;"/>
<path d="M 47.6,28.8 L 48.2,29.7 L 49.2,29.7" style="fill:none;stroke:#000000;stroke-width:2.0px;stroke-linecap:butt;stroke-linejoin:miter;stroke-opacity:1;"/>
<path d="M 67.4,29.4 L 68.4,29.4 L 68.9,30.3" style="fill:none;stroke:#000000;stroke-width:2.0px;stroke-linecap:butt;stroke-linejoin:miter;stroke-opacity:1;"/>
<path d="M 78.3,46.0 L 78.8,46.9 L 79.8,46.8" style="fill:none;stroke:#000000;stroke-width:2.0px;stroke-linecap:butt;stroke-linejoin:miter;stroke-opacity:1;"/>
<path d="M 98.0,46.6 L 99.0,46.6 L 99.6,47.5" style="fill:none;stroke:#000000;stroke-width:2.0px;stroke-linecap:butt;stroke-linejoin:miter;stroke-opacity:1;"/>
<path d="M 108.9,63.2 L 109.4,64.0 L 110.4,64.0" style="fill:none;stroke:#000000;stroke-width:2.0px;stroke-linecap:butt;stroke-linejoin:miter;stroke-opacity:1;"/>
<path d="M 128.6,63.8 L 129.7,63.8 L 129.9,64.1" style="fill:none;stroke:#000000;stroke-width:2.0px;stroke-linecap:butt;stroke-linejoin:miter;stroke-opacity:1;"/>
<path d="M 159.8,81.0 L 160.3,81.0 L 160.8,81.9" style="fill:none;stroke:#000000;stroke-width:2.0px;stroke-linecap:butt;stroke-linejoin:miter;stroke-opacity:1;"/>
<path d="M 189.9,98.2 L 190.9,98.2 L 191.1,98.5" style="fill:none;stroke:#000000;stroke-width:2.0px;stroke-linecap:butt;stroke-linejoin:miter;stroke-opacity:1;"/>
<path d="M 140.8,116.3 L 140.4,116.3 L 139.9,117.2" style="fill:none;stroke:#000000;stroke-width:2.0px;stroke-linecap:butt;stroke-linejoin:miter;stroke-opacity:1;"/>
<path d="M 131.0,133.1 L 130.5,134.0 L 129.5,134.0" style="fill:none;stroke:#000000;stroke-width:2.0px;stroke-linecap:butt;stroke-linejoin:miter;stroke-opacity:1;"/>
<path d="M 111.2,134.2 L 110.2,134.2 L 109.7,135.1" style="fill:none;stroke:#000000;stroke-width:2.0px;stroke-linecap:butt;stroke-linejoin:miter;stroke-opacity:1;"/>
<path d="M 100.8,151.0 L 100.3,151.9 L 99.3,151.9" style="fill:none;stroke:#000000;stroke-width:2.0px;stroke-linecap:butt;stroke-linejoin:miter;stroke-opacity:1;"/>
<path d="M 81.1,152.2 L 80.0,152.2 L 79.6,153.1" style="fill:none;stroke:#000000;stroke-width:2.0px;stroke-linecap:butt;stroke-linejoin:miter;stroke-opacity:1;"/>
<path d="M 70.6,169.0 L 70.1,169.8 L 69.1,169.9" style="fill:none;stroke:#000000;stroke-width:2.0px;stroke-linecap:butt;stroke-linejoin:miter;stroke-opacity:1;"/>
<path d="M 50.9,170.1 L 49.9,170.1 L 49.4,171.0" style="fill:none;stroke:#000000;stroke-width:2.0px;stroke-linecap:butt;stroke-linejoin:miter;stroke-opacity:1;"/>
<path class="atom-8" d="M 136.9 46.1 Q 136.9 44.8, 137.6 44.0 Q 138.3 43.2, 139.6 43.2 Q 140.9 43.2, 141.5 44.0 Q 142.2 44.8, 142.2 46.1 Q 142.2 47.5, 141.5 48.3 Q 140.8 49.1, 139.6 49.1 Q 138.3 49.1, 137.6 48.3 Q 136.9 47.5, 136.9 46.1 M 139.6 48.5 Q 140.5 48.5, 140.9 47.9 Q 141.4 47.3, 141.4 46.1 Q 141.4 45.0, 140.9 44.4 Q 140.5 43.9, 139.6 43.9 Q 138.7 43.9, 138.2 44.4 Q 137.8 45.0, 137.8 46.1 Q 137.8 47.3, 138.2 47.9 Q 138.7 48.5, 139.6 48.5 " fill="#FF0000"/>
<path class="atom-9" d="M 137.4 81.2 Q 137.4 79.9, 138.0 79.1 Q 138.7 78.3, 140.0 78.3 Q 141.3 78.3, 142.0 79.1 Q 142.6 79.9, 142.6 81.2 Q 142.6 82.6, 141.9 83.4 Q 141.3 84.2, 140.0 84.2 Q 138.7 84.2, 138.0 83.4 Q 137.4 82.6, 137.4 81.2 M 140.0 83.6 Q 140.9 83.6, 141.3 83.0 Q 141.8 82.4, 141.8 81.2 Q 141.8 80.1, 141.3 79.5 Q 140.9 79.0, 140.0 79.0 Q 139.1 79.0, 138.6 79.5 Q 138.2 80.1, 138.2 81.2 Q 138.2 82.4, 138.6 83.0 Q 139.1 83.6, 140.0 83.6 " fill="#FF0000"/>
<path class="atom-13" d="M 198.6 115.6 Q 198.6 114.2, 199.3 113.5 Q 200.0 112.7, 201.2 112.7 Q 202.5 112.7, 203.2 113.5 Q 203.9 114.2, 203.9 115.6 Q 203.9 117.0, 203.2 117.8 Q 202.5 118.6, 201.2 118.6 Q 200.0 118.6, 199.3 117.8 Q 198.6 117.0, 198.6 115.6 M 201.2 117.9 Q 202.1 117.9, 202.6 117.4 Q 203.1 116.8, 203.1 115.6 Q 203.1 114.5, 202.6 113.9 Q 202.1 113.3, 201.2 113.3 Q 200.4 113.3, 199.9 113.9 Q 199.4 114.5, 199.4 115.6 Q 199.4 116.8, 199.9 117.4 Q 200.4 117.9, 201.2 117.9 " fill="#FF0000"/>
<path class="atom-14" d="M 221.4 112.5 Q 222.3 112.5, 222.8 112.9 Q 223.3 113.4, 223.3 114.2 Q 223.3 115.0, 222.8 115.4 Q 222.3 115.9, 221.4 115.9 L 220.4 115.9 L 220.4 118.2 L 219.7 118.2 L 219.7 112.5 L 221.4 112.5 M 221.4 115.2 Q 221.9 115.2, 222.2 114.9 Q 222.5 114.7, 222.5 114.2 Q 222.5 113.7, 222.2 113.4 Q 221.9 113.1, 221.4 113.1 L 220.4 113.1 L 220.4 115.2 L 221.4 115.2 " fill="#FF7F00"/>
<path class="atom-15" d="M 219.1 135.6 Q 219.1 134.3, 219.8 133.5 Q 220.5 132.7, 221.7 132.7 Q 223.0 132.7, 223.7 133.5 Q 224.4 134.3, 224.4 135.6 Q 224.4 137.0, 223.7 137.8 Q 223.0 138.6, 221.7 138.6 Q 220.5 138.6, 219.8 137.8 Q 219.1 137.0, 219.1 135.6 M 221.7 138.0 Q 222.6 138.0, 223.1 137.4 Q 223.6 136.8, 223.6 135.6 Q 223.6 134.5, 223.1 133.9 Q 222.6 133.4, 221.7 133.4 Q 220.9 133.4, 220.4 133.9 Q 219.9 134.5, 219.9 135.6 Q 219.9 136.8, 220.4 137.4 Q 220.9 138.0, 221.7 138.0 " fill="#FF0000"/>
<path class="atom-16" d="M 218.6 95.1 Q 218.6 93.7, 219.3 93.0 Q 220.0 92.2, 221.2 92.2 Q 222.5 92.2, 223.2 93.0 Q 223.9 93.7, 223.9 95.1 Q 223.9 96.5, 223.2 97.3 Q 222.5 98.1, 221.2 98.1 Q 220.0 98.1, 219.3 97.3 Q 218.6 96.5, 218.6 95.1 M 221.2 97.4 Q 222.1 97.4, 222.6 96.8 Q 223.1 96.3, 223.1 95.1 Q 223.1 94.0, 222.6 93.4 Q 222.1 92.8, 221.2 92.8 Q 220.4 92.8, 219.9 93.4 Q 219.4 94.0, 219.4 95.1 Q 219.4 96.3, 219.9 96.8 Q 220.4 97.4, 221.2 97.4 " fill="#FF0000"/>
<path class="atom-16" d="M 224.8 92.2 L 225.6 92.2 L 225.6 94.7 L 228.5 94.7 L 228.5 92.2 L 229.3 92.2 L 229.3 98.0 L 228.5 98.0 L 228.5 95.3 L 225.6 95.3 L 225.6 98.0 L 224.8 98.0 L 224.8 92.2 " fill="#FF0000"/>
<path class="atom-17" d="M 239.1 115.1 Q 239.1 113.7, 239.8 113.0 Q 240.5 112.2, 241.8 112.2 Q 243.0 112.2, 243.7 113.0 Q 244.4 113.7, 244.4 115.1 Q 244.4 116.5, 243.7 117.3 Q 243.0 118.1, 241.8 118.1 Q 240.5 118.1, 239.8 117.3 Q 239.1 116.5, 239.1 115.1 M 241.8 117.4 Q 242.6 117.4, 243.1 116.9 Q 243.6 116.3, 243.6 115.1 Q 243.6 114.0, 243.1 113.4 Q 242.6 112.9, 241.8 112.9 Q 240.9 112.9, 240.4 113.4 Q 239.9 114.0, 239.9 115.1 Q 239.9 116.3, 240.4 116.9 Q 240.9 117.4, 241.8 117.4 " fill="#FF0000"/>
<path class="atom-20" d="M 212.8 77.4 L 213.5 77.4 L 213.5 79.8 L 216.5 79.8 L 216.5 77.4 L 217.3 77.4 L 217.3 83.1 L 216.5 83.1 L 216.5 80.5 L 213.5 80.5 L 213.5 83.1 L 212.8 83.1 L 212.8 77.4 " fill="#FF0000"/>
<path class="atom-20" d="M 218.4 80.3 Q 218.4 78.9, 219.1 78.1 Q 219.8 77.3, 221.1 77.3 Q 222.3 77.3, 223.0 78.1 Q 223.7 78.9, 223.7 80.3 Q 223.7 81.7, 223.0 82.5 Q 222.3 83.2, 221.1 83.2 Q 219.8 83.2, 219.1 82.5 Q 218.4 81.7, 218.4 80.3 M 221.1 82.6 Q 221.9 82.6, 222.4 82.0 Q 222.9 81.4, 222.9 80.3 Q 222.9 79.1, 222.4 78.6 Q 221.9 78.0, 221.1 78.0 Q 220.2 78.0, 219.7 78.6 Q 219.2 79.1, 219.2 80.3 Q 219.2 81.4, 219.7 82.0 Q 220.2 82.6, 221.1 82.6 " fill="#FF0000"/>
<path class="atom-22" d="M 232.6 42.1 L 233.4 42.1 L 233.4 44.5 L 236.3 44.5 L 236.3 42.1 L 237.1 42.1 L 237.1 47.8 L 236.3 47.8 L 236.3 45.1 L 233.4 45.1 L 233.4 47.8 L 232.6 47.8 L 232.6 42.1 " fill="#FF0000"/>
<path class="atom-22" d="M 238.3 44.9 Q 238.3 43.5, 239.0 42.8 Q 239.6 42.0, 240.9 42.0 Q 242.2 42.0, 242.9 42.8 Q 243.5 43.5, 243.5 44.9 Q 243.5 46.3, 242.9 47.1 Q 242.2 47.9, 240.9 47.9 Q 239.6 47.9, 239.0 47.1 Q 238.3 46.3, 238.3 44.9 M 240.9 47.2 Q 241.8 47.2, 242.3 46.7 Q 242.7 46.1, 242.7 44.9 Q 242.7 43.8, 242.3 43.2 Q 241.8 42.6, 240.9 42.6 Q 240.0 42.6, 239.6 43.2 Q 239.1 43.8, 239.1 44.9 Q 239.1 46.1, 239.6 46.7 Q 240.0 47.2, 240.9 47.2 " fill="#FF0000"/>
<path class="atom-24" d="M 278.8 44.4 Q 278.8 43.0, 279.5 42.3 Q 280.2 41.5, 281.4 41.5 Q 282.7 41.5, 283.4 42.3 Q 284.1 43.0, 284.1 44.4 Q 284.1 45.8, 283.4 46.6 Q 282.7 47.4, 281.4 47.4 Q 280.2 47.4, 279.5 46.6 Q 278.8 45.8, 278.8 44.4 M 281.4 46.8 Q 282.3 46.8, 282.8 46.2 Q 283.3 45.6, 283.3 44.4 Q 283.3 43.3, 282.8 42.7 Q 282.3 42.2, 281.4 42.2 Q 280.6 42.2, 280.1 42.7 Q 279.6 43.3, 279.6 44.4 Q 279.6 45.6, 280.1 46.2 Q 280.6 46.8, 281.4 46.8 " fill="#FF0000"/>
<path class="atom-24" d="M 285.0 41.6 L 285.8 41.6 L 285.8 44.0 L 288.7 44.0 L 288.7 41.6 L 289.5 41.6 L 289.5 47.3 L 288.7 47.3 L 288.7 44.7 L 285.8 44.7 L 285.8 47.3 L 285.0 47.3 L 285.0 41.6 " fill="#FF0000"/>
<path class="atom-26" d="M 299.5 79.3 Q 299.5 77.9, 300.2 77.1 Q 300.9 76.4, 302.1 76.4 Q 303.4 76.4, 304.1 77.1 Q 304.8 77.9, 304.8 79.3 Q 304.8 80.7, 304.1 81.5 Q 303.4 82.3, 302.1 82.3 Q 300.9 82.3, 300.2 81.5 Q 299.5 80.7, 299.5 79.3 M 302.1 81.6 Q 303.0 81.6, 303.5 81.0 Q 304.0 80.4, 304.0 79.3 Q 304.0 78.2, 303.5 77.6 Q 303.0 77.0, 302.1 77.0 Q 301.3 77.0, 300.8 77.6 Q 300.3 78.1, 300.3 79.3 Q 300.3 80.4, 300.8 81.0 Q 301.3 81.6, 302.1 81.6 " fill="#FF0000"/>
<path class="atom-27" d="M 312.3 93.8 Q 313.3 93.8, 313.8 94.3 Q 314.3 94.7, 314.3 95.5 Q 314.3 96.3, 313.8 96.8 Q 313.3 97.2, 312.3 97.2 L 311.4 97.2 L 311.4 99.6 L 310.7 99.6 L 310.7 93.8 L 312.3 93.8 M 312.3 96.6 Q 312.9 96.6, 313.2 96.3 Q 313.5 96.0, 313.5 95.5 Q 313.5 95.0, 313.2 94.7 Q 312.9 94.5, 312.3 94.5 L 311.4 94.5 L 311.4 96.6 L 312.3 96.6 " fill="#FF7F00"/>
<path class="atom-28" d="M 327.3 86.4 Q 327.3 85.0, 328.0 84.2 Q 328.6 83.4, 329.9 83.4 Q 331.2 83.4, 331.9 84.2 Q 332.6 85.0, 332.6 86.4 Q 332.6 87.8, 331.9 88.6 Q 331.2 89.3, 329.9 89.3 Q 328.7 89.3, 328.0 88.6 Q 327.3 87.8, 327.3 86.4 M 329.9 88.7 Q 330.8 88.7, 331.3 88.1 Q 331.7 87.5, 331.7 86.4 Q 331.7 85.2, 331.3 84.7 Q 330.8 84.1, 329.9 84.1 Q 329.0 84.1, 328.6 84.7 Q 328.1 85.2, 328.1 86.4 Q 328.1 87.5, 328.6 88.1 Q 329.0 88.7, 329.9 88.7 " fill="#FF0000"/>
<path class="atom-29" d="M 286.8 104.2 L 287.5 104.2 L 287.5 106.6 L 290.5 106.6 L 290.5 104.2 L 291.2 104.2 L 291.2 109.9 L 290.5 109.9 L 290.5 107.3 L 287.5 107.3 L 287.5 109.9 L 286.8 109.9 L 286.8 104.2 " fill="#FF0000"/>
<path class="atom-29" d="M 292.4 107.1 Q 292.4 105.7, 293.1 104.9 Q 293.8 104.1, 295.1 104.1 Q 296.3 104.1, 297.0 104.9 Q 297.7 105.7, 297.7 107.1 Q 297.7 108.5, 297.0 109.2 Q 296.3 110.0, 295.1 110.0 Q 293.8 110.0, 293.1 109.2 Q 292.4 108.5, 292.4 107.1 M 295.1 109.4 Q 295.9 109.4, 296.4 108.8 Q 296.9 108.2, 296.9 107.1 Q 296.9 105.9, 296.4 105.4 Q 295.9 104.8, 295.1 104.8 Q 294.2 104.8, 293.7 105.4 Q 293.2 105.9, 293.2 107.1 Q 293.2 108.2, 293.7 108.8 Q 294.2 109.4, 295.1 109.4 " fill="#FF0000"/>
<path class="atom-30" d="M 320.2 114.1 Q 320.2 112.8, 320.9 112.0 Q 321.6 111.2, 322.8 111.2 Q 324.1 111.2, 324.8 112.0 Q 325.5 112.8, 325.5 114.1 Q 325.5 115.5, 324.8 116.3 Q 324.1 117.1, 322.8 117.1 Q 321.6 117.1, 320.9 116.3 Q 320.2 115.5, 320.2 114.1 M 322.8 116.5 Q 323.7 116.5, 324.2 115.9 Q 324.7 115.3, 324.7 114.1 Q 324.7 113.0, 324.2 112.4 Q 323.7 111.9, 322.8 111.9 Q 322.0 111.9, 321.5 112.4 Q 321.0 113.0, 321.0 114.1 Q 321.0 115.3, 321.5 115.9 Q 322.0 116.5, 322.8 116.5 " fill="#FF0000"/>
<path class="atom-30" d="M 326.4 111.3 L 327.1 111.3 L 327.1 113.7 L 330.1 113.7 L 330.1 111.3 L 330.9 111.3 L 330.9 117.0 L 330.1 117.0 L 330.1 114.4 L 327.1 114.4 L 327.1 117.0 L 326.4 117.0 L 326.4 111.3 " fill="#FF0000"/>
<path class="atom-32" d="M 279.7 114.6 Q 279.7 113.3, 280.3 112.5 Q 281.0 111.7, 282.3 111.7 Q 283.6 111.7, 284.3 112.5 Q 284.9 113.3, 284.9 114.6 Q 284.9 116.0, 284.2 116.8 Q 283.6 117.6, 282.3 117.6 Q 281.0 117.6, 280.3 116.8 Q 279.7 116.0, 279.7 114.6 M 282.3 117.0 Q 283.2 117.0, 283.6 116.4 Q 284.1 115.8, 284.1 114.6 Q 284.1 113.5, 283.6 112.9 Q 283.2 112.4, 282.3 112.4 Q 281.4 112.4, 280.9 112.9 Q 280.5 113.5, 280.5 114.6 Q 280.5 115.8, 280.9 116.4 Q 281.4 117.0, 282.3 117.0 " fill="#FF0000"/>
<path class="atom-32" d="M 285.8 111.8 L 286.6 111.8 L 286.6 114.2 L 289.5 114.2 L 289.5 111.8 L 290.3 111.8 L 290.3 117.5 L 289.5 117.5 L 289.5 114.9 L 286.6 114.9 L 286.6 117.5 L 285.8 117.5 L 285.8 111.8 " fill="#FF0000"/>
<path class="atom-33" d="M 158.1 116.1 Q 158.1 114.7, 158.7 114.0 Q 159.4 113.2, 160.7 113.2 Q 162.0 113.2, 162.6 114.0 Q 163.3 114.7, 163.3 116.1 Q 163.3 117.5, 162.6 118.3 Q 161.9 119.1, 160.7 119.1 Q 159.4 119.1, 158.7 118.3 Q 158.1 117.5, 158.1 116.1 M 160.7 118.4 Q 161.6 118.4, 162.0 117.8 Q 162.5 117.3, 162.5 116.1 Q 162.5 115.0, 162.0 114.4 Q 161.6 113.8, 160.7 113.8 Q 159.8 113.8, 159.3 114.4 Q 158.9 115.0, 158.9 116.1 Q 158.9 117.3, 159.3 117.8 Q 159.8 118.4, 160.7 118.4 " fill="#FF0000"/>
<path class="atom-35" d="M 127.4 98.9 Q 127.4 97.5, 128.1 96.8 Q 128.8 96.0, 130.1 96.0 Q 131.4 96.0, 132.0 96.8 Q 132.7 97.5, 132.7 98.9 Q 132.7 100.3, 132.0 101.1 Q 131.3 101.9, 130.1 101.9 Q 128.8 101.9, 128.1 101.1 Q 127.4 100.3, 127.4 98.9 M 130.1 101.2 Q 131.0 101.2, 131.4 100.7 Q 131.9 100.1, 131.9 98.9 Q 131.9 97.8, 131.4 97.2 Q 131.0 96.6, 130.1 96.6 Q 129.2 96.6, 128.7 97.2 Q 128.3 97.8, 128.3 98.9 Q 128.3 100.1, 128.7 100.7 Q 129.2 101.2, 130.1 101.2 " fill="#FF0000"/>
</svg>
