<?xml version='1.0' encoding='ASCII' standalone='yes'?>
<svg xmlns="http://www.w3.org/2000/svg" xmlns:rdkit="http://www.rdkit.org/xml" xmlns:xlink="http://www.w3.org/1999/xlink" version="1.1" baseProfile="full" xml:space="preserve" width="285px" height="200px" viewBox="0 0 285 200">
<!-- END OF HEADER -->
<rect style="opacity:1.0;fill:#FFFFFF;stroke:none" width="285.0" height="200.0" x="0.0" y="0.0"> </rect>
<path class="bond-0 atom-0 atom-1" d="M 101.7,18.2 L 93.2,59.2" style="fill:none;fill-rule:evenodd;stroke:#000000;stroke-width:2.0px;stroke-linecap:butt;stroke-linejoin:miter;stroke-opacity:1"/>
<path class="bond-1 atom-1 atom-2" d="M 93.2,59.2 L 53.5,72.4" style="fill:none;fill-rule:evenodd;stroke:#000000;stroke-width:2.0px;stroke-linecap:butt;stroke-linejoin:miter;stroke-opacity:1"/>
<path class="bond-2 atom-2 atom-3" d="M 56.8,71.3 L 43.9,59.8" style="fill:none;fill-rule:evenodd;stroke:#000000;stroke-width:2.0px;stroke-linecap:butt;stroke-linejoin:miter;stroke-opacity:1"/>
<path class="bond-2 atom-2 atom-3" d="M 43.9,59.8 L 31.0,48.3" style="fill:none;fill-rule:evenodd;stroke:#FF0000;stroke-width:2.0px;stroke-linecap:butt;stroke-linejoin:miter;stroke-opacity:1"/>
<path class="bond-2 atom-2 atom-3" d="M 52.8,75.8 L 39.9,64.3" style="fill:none;fill-rule:evenodd;stroke:#000000;stroke-width:2.0px;stroke-linecap:butt;stroke-linejoin:miter;stroke-opacity:1"/>
<path class="bond-2 atom-2 atom-3" d="M 39.9,64.3 L 26.9,52.8" style="fill:none;fill-rule:evenodd;stroke:#FF0000;stroke-width:2.0px;stroke-linecap:butt;stroke-linejoin:miter;stroke-opacity:1"/>
<path class="bond-3 atom-2 atom-4" d="M 53.5,72.4 L 50.0,89.2" style="fill:none;fill-rule:evenodd;stroke:#000000;stroke-width:2.0px;stroke-linecap:butt;stroke-linejoin:miter;stroke-opacity:1"/>
<path class="bond-3 atom-2 atom-4" d="M 50.0,89.2 L 46.5,106.1" style="fill:none;fill-rule:evenodd;stroke:#FF0000;stroke-width:2.0px;stroke-linecap:butt;stroke-linejoin:miter;stroke-opacity:1"/>
<path class="bond-4 atom-1 atom-5" d="M 93.2,59.2 L 124.5,87.1" style="fill:none;fill-rule:evenodd;stroke:#000000;stroke-width:2.0px;stroke-linecap:butt;stroke-linejoin:miter;stroke-opacity:1"/>
<path class="bond-5 atom-5 atom-6" d="M 124.5,87.1 L 113.9,99.0" style="fill:none;fill-rule:evenodd;stroke:#000000;stroke-width:2.0px;stroke-linecap:butt;stroke-linejoin:miter;stroke-opacity:1"/>
<path class="bond-5 atom-5 atom-6" d="M 113.9,99.0 L 103.2,111.0" style="fill:none;fill-rule:evenodd;stroke:#FF0000;stroke-width:2.0px;stroke-linecap:butt;stroke-linejoin:miter;stroke-opacity:1"/>
<path class="bond-6 atom-5 atom-7" d="M 124.5,87.1 L 155.8,114.9" style="fill:none;fill-rule:evenodd;stroke:#000000;stroke-width:2.0px;stroke-linecap:butt;stroke-linejoin:miter;stroke-opacity:1"/>
<path class="bond-7 atom-7 atom-8" d="M 155.8,114.9 L 182.8,109.5" style="fill:none;fill-rule:evenodd;stroke:#000000;stroke-width:2.0px;stroke-linecap:butt;stroke-linejoin:miter;stroke-opacity:1"/>
<path class="bond-8 atom-7 atom-9" d="M 155.8,114.9 L 147.4,156.0" style="fill:none;fill-rule:evenodd;stroke:#000000;stroke-width:2.0px;stroke-linecap:butt;stroke-linejoin:miter;stroke-opacity:1"/>
<path class="bond-9 atom-9 atom-10" d="M 148.1,152.5 L 130.7,158.3" style="fill:none;fill-rule:evenodd;stroke:#000000;stroke-width:2.0px;stroke-linecap:butt;stroke-linejoin:miter;stroke-opacity:1"/>
<path class="bond-9 atom-9 atom-10" d="M 130.7,158.3 L 113.4,164.0" style="fill:none;fill-rule:evenodd;stroke:#FF0000;stroke-width:2.0px;stroke-linecap:butt;stroke-linejoin:miter;stroke-opacity:1"/>
<path class="bond-9 atom-9 atom-10" d="M 150.0,158.3 L 132.6,164.0" style="fill:none;fill-rule:evenodd;stroke:#000000;stroke-width:2.0px;stroke-linecap:butt;stroke-linejoin:miter;stroke-opacity:1"/>
<path class="bond-9 atom-9 atom-10" d="M 132.6,164.0 L 115.3,169.8" style="fill:none;fill-rule:evenodd;stroke:#FF0000;stroke-width:2.0px;stroke-linecap:butt;stroke-linejoin:miter;stroke-opacity:1"/>
<path class="bond-10 atom-9 atom-11" d="M 147.4,156.0 L 159.6,166.9" style="fill:none;fill-rule:evenodd;stroke:#000000;stroke-width:2.0px;stroke-linecap:butt;stroke-linejoin:miter;stroke-opacity:1"/>
<path class="bond-10 atom-9 atom-11" d="M 159.6,166.9 L 171.9,177.8" style="fill:none;fill-rule:evenodd;stroke:#FF0000;stroke-width:2.0px;stroke-linecap:butt;stroke-linejoin:miter;stroke-opacity:1"/>
<path class="bond-11 atom-5 atom-12" d="M 124.5,87.1 L 152.4,55.8" style="fill:none;fill-rule:evenodd;stroke:#000000;stroke-width:2.0px;stroke-linecap:butt;stroke-linejoin:miter;stroke-opacity:1"/>
<path class="bond-12 atom-12 atom-13" d="M 152.4,55.8 L 147.1,39.6" style="fill:none;fill-rule:evenodd;stroke:#000000;stroke-width:2.0px;stroke-linecap:butt;stroke-linejoin:miter;stroke-opacity:1"/>
<path class="bond-12 atom-12 atom-13" d="M 147.1,39.6 L 141.7,23.5" style="fill:none;fill-rule:evenodd;stroke:#FF0000;stroke-width:2.0px;stroke-linecap:butt;stroke-linejoin:miter;stroke-opacity:1"/>
<path class="bond-13 atom-12 atom-14" d="M 152.4,55.8 L 193.4,64.3" style="fill:none;fill-rule:evenodd;stroke:#000000;stroke-width:2.0px;stroke-linecap:butt;stroke-linejoin:miter;stroke-opacity:1"/>
<path class="bond-14 atom-14 atom-15" d="M 193.4,64.3 L 191.2,91.7" style="fill:none;fill-rule:evenodd;stroke:#000000;stroke-width:2.0px;stroke-linecap:butt;stroke-linejoin:miter;stroke-opacity:1"/>
<path class="bond-15 atom-14 atom-16" d="M 193.4,64.3 L 201.9,23.2" style="fill:none;fill-rule:evenodd;stroke:#000000;stroke-width:2.0px;stroke-linecap:butt;stroke-linejoin:miter;stroke-opacity:1"/>
<path class="bond-16 atom-14 atom-17" d="M 193.4,64.3 L 234.5,72.7" style="fill:none;fill-rule:evenodd;stroke:#000000;stroke-width:2.0px;stroke-linecap:butt;stroke-linejoin:miter;stroke-opacity:1"/>
<path class="bond-17 atom-17 atom-18" d="M 235.6,76.1 L 246.7,63.5" style="fill:none;fill-rule:evenodd;stroke:#000000;stroke-width:2.0px;stroke-linecap:butt;stroke-linejoin:miter;stroke-opacity:1"/>
<path class="bond-17 atom-17 atom-18" d="M 246.7,63.5 L 257.9,51.0" style="fill:none;fill-rule:evenodd;stroke:#FF0000;stroke-width:2.0px;stroke-linecap:butt;stroke-linejoin:miter;stroke-opacity:1"/>
<path class="bond-17 atom-17 atom-18" d="M 231.0,72.0 L 242.2,59.5" style="fill:none;fill-rule:evenodd;stroke:#000000;stroke-width:2.0px;stroke-linecap:butt;stroke-linejoin:miter;stroke-opacity:1"/>
<path class="bond-17 atom-17 atom-18" d="M 242.2,59.5 L 253.4,46.9" style="fill:none;fill-rule:evenodd;stroke:#FF0000;stroke-width:2.0px;stroke-linecap:butt;stroke-linejoin:miter;stroke-opacity:1"/>
<path class="bond-18 atom-17 atom-19" d="M 234.5,72.7 L 239.8,89.0" style="fill:none;fill-rule:evenodd;stroke:#000000;stroke-width:2.0px;stroke-linecap:butt;stroke-linejoin:miter;stroke-opacity:1"/>
<path class="bond-18 atom-17 atom-19" d="M 239.8,89.0 L 245.2,105.2" style="fill:none;fill-rule:evenodd;stroke:#FF0000;stroke-width:2.0px;stroke-linecap:butt;stroke-linejoin:miter;stroke-opacity:1"/>
<path d="M 55.5,71.7 L 53.5,72.4 L 53.3,73.2" style="fill:none;stroke:#000000;stroke-width:2.0px;stroke-linecap:butt;stroke-linejoin:miter;stroke-opacity:1;"/>
<path d="M 147.8,153.9 L 147.4,156.0 L 148.0,156.5" style="fill:none;stroke:#000000;stroke-width:2.0px;stroke-linecap:butt;stroke-linejoin:miter;stroke-opacity:1;"/>
<path d="M 232.4,72.3 L 234.5,72.7 L 234.7,73.5" style="fill:none;stroke:#000000;stroke-width:2.0px;stroke-linecap:butt;stroke-linejoin:miter;stroke-opacity:1;"/>
<path class="atom-3" d="M 16.7 44.6 Q 16.7 41.7, 18.1 40.1 Q 19.5 38.5, 22.2 38.5 Q 24.8 38.5, 26.2 40.1 Q 27.6 41.7, 27.6 44.6 Q 27.6 47.4, 26.2 49.1 Q 24.8 50.7, 22.2 50.7 Q 19.6 50.7, 18.1 49.1 Q 16.7 47.4, 16.7 44.6 M 22.2 49.4 Q 24.0 49.4, 25.0 48.2 Q 26.0 46.9, 26.0 44.6 Q 26.0 42.2, 25.0 41.0 Q 24.0 39.9, 22.2 39.9 Q 20.4 39.9, 19.4 41.0 Q 18.4 42.2, 18.4 44.6 Q 18.4 46.9, 19.4 48.2 Q 20.4 49.4, 22.2 49.4 " fill="#FF0000"/>
<path class="atom-4" d="M 39.5 113.4 Q 39.5 110.6, 41.0 109.0 Q 42.4 107.4, 45.0 107.4 Q 47.6 107.4, 49.0 109.0 Q 50.4 110.6, 50.4 113.4 Q 50.4 116.3, 49.0 118.0 Q 47.6 119.6, 45.0 119.6 Q 42.4 119.6, 41.0 118.0 Q 39.5 116.3, 39.5 113.4 M 45.0 118.2 Q 46.8 118.2, 47.8 117.0 Q 48.8 115.8, 48.8 113.4 Q 48.8 111.1, 47.8 109.9 Q 46.8 108.7, 45.0 108.7 Q 43.2 108.7, 42.2 109.9 Q 41.2 111.1, 41.2 113.4 Q 41.2 115.8, 42.2 117.0 Q 43.2 118.2, 45.0 118.2 " fill="#FF0000"/>
<path class="atom-4" d="M 52.3 107.5 L 53.9 107.5 L 53.9 112.6 L 60.0 112.6 L 60.0 107.5 L 61.6 107.5 L 61.6 119.4 L 60.0 119.4 L 60.0 113.9 L 53.9 113.9 L 53.9 119.4 L 52.3 119.4 L 52.3 107.5 " fill="#FF0000"/>
<path class="atom-6" d="M 79.5 112.5 L 81.1 112.5 L 81.1 117.5 L 87.2 117.5 L 87.2 112.5 L 88.8 112.5 L 88.8 124.4 L 87.2 124.4 L 87.2 118.9 L 81.1 118.9 L 81.1 124.4 L 79.5 124.4 L 79.5 112.5 " fill="#FF0000"/>
<path class="atom-6" d="M 91.2 118.4 Q 91.2 115.5, 92.6 114.0 Q 94.0 112.4, 96.7 112.4 Q 99.3 112.4, 100.7 114.0 Q 102.1 115.5, 102.1 118.4 Q 102.1 121.3, 100.7 122.9 Q 99.3 124.5, 96.7 124.5 Q 94.1 124.5, 92.6 122.9 Q 91.2 121.3, 91.2 118.4 M 96.7 123.2 Q 98.5 123.2, 99.5 122.0 Q 100.5 120.8, 100.5 118.4 Q 100.5 116.1, 99.5 114.9 Q 98.5 113.7, 96.7 113.7 Q 94.9 113.7, 93.9 114.9 Q 92.9 116.0, 92.9 118.4 Q 92.9 120.8, 93.9 122.0 Q 94.9 123.2, 96.7 123.2 " fill="#FF0000"/>
<path class="atom-10" d="M 102.1 169.2 Q 102.1 166.3, 103.5 164.7 Q 104.9 163.1, 107.6 163.1 Q 110.2 163.1, 111.6 164.7 Q 113.0 166.3, 113.0 169.2 Q 113.0 172.0, 111.6 173.7 Q 110.2 175.3, 107.6 175.3 Q 105.0 175.3, 103.5 173.7 Q 102.1 172.1, 102.1 169.2 M 107.6 174.0 Q 109.4 174.0, 110.4 172.8 Q 111.3 171.5, 111.3 169.2 Q 111.3 166.8, 110.4 165.7 Q 109.4 164.5, 107.6 164.5 Q 105.8 164.5, 104.8 165.6 Q 103.8 166.8, 103.8 169.2 Q 103.8 171.6, 104.8 172.8 Q 105.8 174.0, 107.6 174.0 " fill="#FF0000"/>
<path class="atom-11" d="M 173.2 183.8 Q 173.2 181.0, 174.6 179.4 Q 176.0 177.8, 178.6 177.8 Q 181.3 177.8, 182.7 179.4 Q 184.1 181.0, 184.1 183.8 Q 184.1 186.7, 182.7 188.4 Q 181.2 190.0, 178.6 190.0 Q 176.0 190.0, 174.6 188.4 Q 173.2 186.7, 173.2 183.8 M 178.6 188.7 Q 180.5 188.7, 181.4 187.5 Q 182.4 186.2, 182.4 183.8 Q 182.4 181.5, 181.4 180.3 Q 180.5 179.2, 178.6 179.2 Q 176.8 179.2, 175.8 180.3 Q 174.9 181.5, 174.9 183.8 Q 174.9 186.2, 175.8 187.5 Q 176.8 188.7, 178.6 188.7 " fill="#FF0000"/>
<path class="atom-11" d="M 185.9 178.0 L 187.5 178.0 L 187.5 183.0 L 193.6 183.0 L 193.6 178.0 L 195.2 178.0 L 195.2 189.8 L 193.6 189.8 L 193.6 184.3 L 187.5 184.3 L 187.5 189.8 L 185.9 189.8 L 185.9 178.0 " fill="#FF0000"/>
<path class="atom-13" d="M 133.8 16.0 Q 133.8 13.2, 135.2 11.6 Q 136.6 10.0, 139.2 10.0 Q 141.9 10.0, 143.3 11.6 Q 144.7 13.2, 144.7 16.0 Q 144.7 18.9, 143.3 20.6 Q 141.8 22.2, 139.2 22.2 Q 136.6 22.2, 135.2 20.6 Q 133.8 18.9, 133.8 16.0 M 139.2 20.8 Q 141.0 20.8, 142.0 19.6 Q 143.0 18.4, 143.0 16.0 Q 143.0 13.7, 142.0 12.5 Q 141.0 11.3, 139.2 11.3 Q 137.4 11.3, 136.4 12.5 Q 135.5 13.7, 135.5 16.0 Q 135.5 18.4, 136.4 19.6 Q 137.4 20.8, 139.2 20.8 " fill="#FF0000"/>
<path class="atom-13" d="M 146.5 10.1 L 148.1 10.1 L 148.1 15.2 L 154.2 15.2 L 154.2 10.1 L 155.8 10.1 L 155.8 22.0 L 154.2 22.0 L 154.2 16.5 L 148.1 16.5 L 148.1 22.0 L 146.5 22.0 L 146.5 10.1 " fill="#FF0000"/>
<path class="atom-18" d="M 256.9 41.5 Q 256.9 38.6, 258.3 37.0 Q 259.7 35.4, 262.3 35.4 Q 265.0 35.4, 266.4 37.0 Q 267.8 38.6, 267.8 41.5 Q 267.8 44.4, 266.3 46.0 Q 264.9 47.6, 262.3 47.6 Q 259.7 47.6, 258.3 46.0 Q 256.9 44.4, 256.9 41.5 M 262.3 46.3 Q 264.1 46.3, 265.1 45.1 Q 266.1 43.9, 266.1 41.5 Q 266.1 39.1, 265.1 38.0 Q 264.1 36.8, 262.3 36.8 Q 260.5 36.8, 259.5 38.0 Q 258.5 39.1, 258.5 41.5 Q 258.5 43.9, 259.5 45.1 Q 260.5 46.3, 262.3 46.3 " fill="#FF0000"/>
<path class="atom-19" d="M 242.2 112.5 Q 242.2 109.7, 243.6 108.1 Q 245.0 106.5, 247.6 106.5 Q 250.3 106.5, 251.7 108.1 Q 253.1 109.7, 253.1 112.5 Q 253.1 115.4, 251.7 117.1 Q 250.2 118.7, 247.6 118.7 Q 245.0 118.7, 243.6 117.1 Q 242.2 115.4, 242.2 112.5 M 247.6 117.4 Q 249.4 117.4, 250.4 116.1 Q 251.4 114.9, 251.4 112.5 Q 251.4 110.2, 250.4 109.0 Q 249.4 107.9, 247.6 107.9 Q 245.8 107.9, 244.8 109.0 Q 243.9 110.2, 243.9 112.5 Q 243.9 114.9, 244.8 116.1 Q 245.8 117.4, 247.6 117.4 " fill="#FF0000"/>
<path class="atom-19" d="M 254.9 106.6 L 256.5 106.6 L 256.5 111.7 L 262.6 111.7 L 262.6 106.6 L 264.2 106.6 L 264.2 118.5 L 262.6 118.5 L 262.6 113.0 L 256.5 113.0 L 256.5 118.5 L 254.9 118.5 L 254.9 106.6 " fill="#FF0000"/>
</svg>
