<?xml version='1.0' encoding='ASCII' standalone='yes'?>
<svg xmlns="http://www.w3.org/2000/svg" xmlns:rdkit="http://www.rdkit.org/xml" xmlns:xlink="http://www.w3.org/1999/xlink" version="1.1" baseProfile="full" xml:space="preserve" width="320px" height="200px" viewBox="0 0 320 200">
<!-- END OF HEADER -->
<rect style="opacity:1.0;fill:#FFFFFF;stroke:none" width="320.0" height="200.0" x="0.0" y="0.0"> </rect>
<path class="bond-0 atom-0 atom-1" d="M 79.2,64.1 L 74.9,75.8" style="fill:none;fill-rule:evenodd;stroke:#FF0000;stroke-width:2.0px;stroke-linecap:butt;stroke-linejoin:miter;stroke-opacity:1"/>
<path class="bond-0 atom-0 atom-1" d="M 74.9,75.8 L 70.6,87.5" style="fill:none;fill-rule:evenodd;stroke:#000000;stroke-width:2.0px;stroke-linecap:butt;stroke-linejoin:miter;stroke-opacity:1"/>
<path class="bond-0 atom-0 atom-1" d="M 75.1,62.7 L 70.8,74.3" style="fill:none;fill-rule:evenodd;stroke:#FF0000;stroke-width:2.0px;stroke-linecap:butt;stroke-linejoin:miter;stroke-opacity:1"/>
<path class="bond-0 atom-0 atom-1" d="M 70.8,74.3 L 66.5,86.0" style="fill:none;fill-rule:evenodd;stroke:#000000;stroke-width:2.0px;stroke-linecap:butt;stroke-linejoin:miter;stroke-opacity:1"/>
<path class="bond-1 atom-1 atom-2" d="M 69.0,85.6 L 56.9,87.7" style="fill:none;fill-rule:evenodd;stroke:#000000;stroke-width:2.0px;stroke-linecap:butt;stroke-linejoin:miter;stroke-opacity:1"/>
<path class="bond-1 atom-1 atom-2" d="M 56.9,87.7 L 44.9,89.7" style="fill:none;fill-rule:evenodd;stroke:#FF0000;stroke-width:2.0px;stroke-linecap:butt;stroke-linejoin:miter;stroke-opacity:1"/>
<path class="bond-2 atom-1 atom-3" d="M 69.0,85.6 L 87.7,108.1" style="fill:none;fill-rule:evenodd;stroke:#000000;stroke-width:2.0px;stroke-linecap:butt;stroke-linejoin:miter;stroke-opacity:1"/>
<path class="bond-3 atom-3 atom-4" d="M 87.7,108.1 L 116.5,103.1" style="fill:none;fill-rule:evenodd;stroke:#000000;stroke-width:2.0px;stroke-linecap:butt;stroke-linejoin:miter;stroke-opacity:1"/>
<path class="bond-4 atom-4 atom-5" d="M 116.5,103.1 L 135.3,125.6" style="fill:none;fill-rule:evenodd;stroke:#000000;stroke-width:2.0px;stroke-linecap:butt;stroke-linejoin:miter;stroke-opacity:1"/>
<path class="bond-5 atom-5 atom-6" d="M 135.3,125.6 L 164.1,120.6" style="fill:none;fill-rule:evenodd;stroke:#000000;stroke-width:2.0px;stroke-linecap:butt;stroke-linejoin:miter;stroke-opacity:1"/>
<path class="bond-6 atom-6 atom-7" d="M 164.1,120.6 L 182.8,143.1" style="fill:none;fill-rule:evenodd;stroke:#000000;stroke-width:2.0px;stroke-linecap:butt;stroke-linejoin:miter;stroke-opacity:1"/>
<path class="bond-7 atom-7 atom-8" d="M 181.2,141.2 L 176.9,152.9" style="fill:none;fill-rule:evenodd;stroke:#000000;stroke-width:2.0px;stroke-linecap:butt;stroke-linejoin:miter;stroke-opacity:1"/>
<path class="bond-7 atom-7 atom-8" d="M 176.9,152.9 L 172.6,164.7" style="fill:none;fill-rule:evenodd;stroke:#FF0000;stroke-width:2.0px;stroke-linecap:butt;stroke-linejoin:miter;stroke-opacity:1"/>
<path class="bond-7 atom-7 atom-8" d="M 185.3,142.7 L 180.9,154.4" style="fill:none;fill-rule:evenodd;stroke:#000000;stroke-width:2.0px;stroke-linecap:butt;stroke-linejoin:miter;stroke-opacity:1"/>
<path class="bond-7 atom-7 atom-8" d="M 180.9,154.4 L 176.6,166.2" style="fill:none;fill-rule:evenodd;stroke:#FF0000;stroke-width:2.0px;stroke-linecap:butt;stroke-linejoin:miter;stroke-opacity:1"/>
<path class="bond-8 atom-7 atom-9" d="M 182.8,143.1 L 211.6,138.1" style="fill:none;fill-rule:evenodd;stroke:#000000;stroke-width:2.0px;stroke-linecap:butt;stroke-linejoin:miter;stroke-opacity:1"/>
<path class="bond-9 atom-9 atom-10" d="M 211.6,138.1 L 240.5,133.2" style="fill:none;fill-rule:evenodd;stroke:#000000;stroke-width:2.0px;stroke-linecap:butt;stroke-linejoin:miter;stroke-opacity:1"/>
<path class="bond-10 atom-10 atom-11" d="M 240.5,133.2 L 259.2,155.6" style="fill:none;fill-rule:evenodd;stroke:#000000;stroke-width:2.0px;stroke-linecap:butt;stroke-linejoin:miter;stroke-opacity:1"/>
<path class="bond-11 atom-11 atom-12" d="M 258.7,157.9 L 271.2,155.8" style="fill:none;fill-rule:evenodd;stroke:#000000;stroke-width:2.0px;stroke-linecap:butt;stroke-linejoin:miter;stroke-opacity:1"/>
<path class="bond-11 atom-11 atom-12" d="M 271.2,155.8 L 283.6,153.6" style="fill:none;fill-rule:evenodd;stroke:#FF0000;stroke-width:2.0px;stroke-linecap:butt;stroke-linejoin:miter;stroke-opacity:1"/>
<path class="bond-11 atom-11 atom-12" d="M 257.6,153.7 L 270.4,151.5" style="fill:none;fill-rule:evenodd;stroke:#000000;stroke-width:2.0px;stroke-linecap:butt;stroke-linejoin:miter;stroke-opacity:1"/>
<path class="bond-11 atom-11 atom-12" d="M 270.4,151.5 L 282.9,149.4" style="fill:none;fill-rule:evenodd;stroke:#FF0000;stroke-width:2.0px;stroke-linecap:butt;stroke-linejoin:miter;stroke-opacity:1"/>
<path class="bond-12 atom-11 atom-13" d="M 259.2,155.6 L 257.4,163.5" style="fill:none;fill-rule:evenodd;stroke:#000000;stroke-width:2.0px;stroke-linecap:butt;stroke-linejoin:miter;stroke-opacity:1"/>
<path class="bond-12 atom-11 atom-13" d="M 257.4,163.5 L 255.5,171.3" style="fill:none;fill-rule:evenodd;stroke:#FF0000;stroke-width:2.0px;stroke-linecap:butt;stroke-linejoin:miter;stroke-opacity:1"/>
<path class="bond-13 atom-9 atom-14" d="M 211.6,138.1 L 216.6,167.0" style="fill:none;fill-rule:evenodd;stroke:#000000;stroke-width:2.0px;stroke-linecap:butt;stroke-linejoin:miter;stroke-opacity:1"/>
<path class="bond-14 atom-14 atom-15" d="M 214.8,168.5 L 222.3,172.3" style="fill:none;fill-rule:evenodd;stroke:#000000;stroke-width:2.0px;stroke-linecap:butt;stroke-linejoin:miter;stroke-opacity:1"/>
<path class="bond-14 atom-14 atom-15" d="M 222.3,172.3 L 229.8,176.2" style="fill:none;fill-rule:evenodd;stroke:#FF0000;stroke-width:2.0px;stroke-linecap:butt;stroke-linejoin:miter;stroke-opacity:1"/>
<path class="bond-14 atom-14 atom-15" d="M 216.2,164.3 L 224.3,168.5" style="fill:none;fill-rule:evenodd;stroke:#000000;stroke-width:2.0px;stroke-linecap:butt;stroke-linejoin:miter;stroke-opacity:1"/>
<path class="bond-14 atom-14 atom-15" d="M 224.3,168.5 L 231.8,172.4" style="fill:none;fill-rule:evenodd;stroke:#FF0000;stroke-width:2.0px;stroke-linecap:butt;stroke-linejoin:miter;stroke-opacity:1"/>
<path class="bond-15 atom-14 atom-16" d="M 216.6,167.0 L 207.7,174.3" style="fill:none;fill-rule:evenodd;stroke:#000000;stroke-width:2.0px;stroke-linecap:butt;stroke-linejoin:miter;stroke-opacity:1"/>
<path class="bond-15 atom-14 atom-16" d="M 207.7,174.3 L 198.9,181.7" style="fill:none;fill-rule:evenodd;stroke:#FF0000;stroke-width:2.0px;stroke-linecap:butt;stroke-linejoin:miter;stroke-opacity:1"/>
<path class="bond-16 atom-9 atom-17" d="M 211.6,138.1 L 206.7,109.3" style="fill:none;fill-rule:evenodd;stroke:#000000;stroke-width:2.0px;stroke-linecap:butt;stroke-linejoin:miter;stroke-opacity:1"/>
<path class="bond-17 atom-17 atom-18" d="M 208.6,107.7 L 196.6,103.3" style="fill:none;fill-rule:evenodd;stroke:#000000;stroke-width:2.0px;stroke-linecap:butt;stroke-linejoin:miter;stroke-opacity:1"/>
<path class="bond-17 atom-17 atom-18" d="M 196.6,103.3 L 184.7,98.9" style="fill:none;fill-rule:evenodd;stroke:#FF0000;stroke-width:2.0px;stroke-linecap:butt;stroke-linejoin:miter;stroke-opacity:1"/>
<path class="bond-17 atom-17 atom-18" d="M 207.1,111.7 L 195.2,107.4" style="fill:none;fill-rule:evenodd;stroke:#000000;stroke-width:2.0px;stroke-linecap:butt;stroke-linejoin:miter;stroke-opacity:1"/>
<path class="bond-17 atom-17 atom-18" d="M 195.2,107.4 L 183.2,103.0" style="fill:none;fill-rule:evenodd;stroke:#FF0000;stroke-width:2.0px;stroke-linecap:butt;stroke-linejoin:miter;stroke-opacity:1"/>
<path class="bond-18 atom-17 atom-19" d="M 206.7,109.3 L 229.2,90.6" style="fill:none;fill-rule:evenodd;stroke:#000000;stroke-width:2.0px;stroke-linecap:butt;stroke-linejoin:miter;stroke-opacity:1"/>
<path class="bond-19 atom-19 atom-20" d="M 229.2,90.6 L 224.2,61.7" style="fill:none;fill-rule:evenodd;stroke:#000000;stroke-width:2.0px;stroke-linecap:butt;stroke-linejoin:miter;stroke-opacity:1"/>
<path class="bond-20 atom-20 atom-21" d="M 224.2,61.7 L 246.7,43.0" style="fill:none;fill-rule:evenodd;stroke:#000000;stroke-width:2.0px;stroke-linecap:butt;stroke-linejoin:miter;stroke-opacity:1"/>
<path class="bond-21 atom-21 atom-22" d="M 244.8,44.6 L 256.7,49.0" style="fill:none;fill-rule:evenodd;stroke:#000000;stroke-width:2.0px;stroke-linecap:butt;stroke-linejoin:miter;stroke-opacity:1"/>
<path class="bond-21 atom-21 atom-22" d="M 256.7,49.0 L 268.6,53.4" style="fill:none;fill-rule:evenodd;stroke:#FF0000;stroke-width:2.0px;stroke-linecap:butt;stroke-linejoin:miter;stroke-opacity:1"/>
<path class="bond-21 atom-21 atom-22" d="M 246.2,40.6 L 258.2,45.0" style="fill:none;fill-rule:evenodd;stroke:#000000;stroke-width:2.0px;stroke-linecap:butt;stroke-linejoin:miter;stroke-opacity:1"/>
<path class="bond-21 atom-21 atom-22" d="M 258.2,45.0 L 270.1,49.4" style="fill:none;fill-rule:evenodd;stroke:#FF0000;stroke-width:2.0px;stroke-linecap:butt;stroke-linejoin:miter;stroke-opacity:1"/>
<path class="bond-22 atom-21 atom-23" d="M 246.7,43.0 L 244.6,31.2" style="fill:none;fill-rule:evenodd;stroke:#000000;stroke-width:2.0px;stroke-linecap:butt;stroke-linejoin:miter;stroke-opacity:1"/>
<path class="bond-22 atom-21 atom-23" d="M 244.6,31.2 L 242.6,19.5" style="fill:none;fill-rule:evenodd;stroke:#FF0000;stroke-width:2.0px;stroke-linecap:butt;stroke-linejoin:miter;stroke-opacity:1"/>
<path class="bond-23 atom-19 atom-24" d="M 229.2,90.6 L 256.6,100.7" style="fill:none;fill-rule:evenodd;stroke:#000000;stroke-width:2.0px;stroke-linecap:butt;stroke-linejoin:miter;stroke-opacity:1"/>
<path class="bond-24 atom-24 atom-25" d="M 254.3,99.8 L 256.4,112.3" style="fill:none;fill-rule:evenodd;stroke:#000000;stroke-width:2.0px;stroke-linecap:butt;stroke-linejoin:miter;stroke-opacity:1"/>
<path class="bond-24 atom-24 atom-25" d="M 256.4,112.3 L 258.6,124.7" style="fill:none;fill-rule:evenodd;stroke:#FF0000;stroke-width:2.0px;stroke-linecap:butt;stroke-linejoin:miter;stroke-opacity:1"/>
<path class="bond-24 atom-24 atom-25" d="M 258.5,99.1 L 260.7,111.6" style="fill:none;fill-rule:evenodd;stroke:#000000;stroke-width:2.0px;stroke-linecap:butt;stroke-linejoin:miter;stroke-opacity:1"/>
<path class="bond-24 atom-24 atom-25" d="M 260.7,111.6 L 262.8,124.0" style="fill:none;fill-rule:evenodd;stroke:#FF0000;stroke-width:2.0px;stroke-linecap:butt;stroke-linejoin:miter;stroke-opacity:1"/>
<path class="bond-25 atom-24 atom-26" d="M 256.6,100.7 L 265.5,93.3" style="fill:none;fill-rule:evenodd;stroke:#000000;stroke-width:2.0px;stroke-linecap:butt;stroke-linejoin:miter;stroke-opacity:1"/>
<path class="bond-25 atom-24 atom-26" d="M 265.5,93.3 L 274.3,85.9" style="fill:none;fill-rule:evenodd;stroke:#FF0000;stroke-width:2.0px;stroke-linecap:butt;stroke-linejoin:miter;stroke-opacity:1"/>
<path class="bond-26 atom-5 atom-27" d="M 135.3,125.6 L 125.1,153.0" style="fill:none;fill-rule:evenodd;stroke:#000000;stroke-width:2.0px;stroke-linecap:butt;stroke-linejoin:miter;stroke-opacity:1"/>
<path class="bond-27 atom-27 atom-28" d="M 126.0,150.7 L 113.4,152.9" style="fill:none;fill-rule:evenodd;stroke:#000000;stroke-width:2.0px;stroke-linecap:butt;stroke-linejoin:miter;stroke-opacity:1"/>
<path class="bond-27 atom-27 atom-28" d="M 113.4,152.9 L 100.7,155.1" style="fill:none;fill-rule:evenodd;stroke:#FF0000;stroke-width:2.0px;stroke-linecap:butt;stroke-linejoin:miter;stroke-opacity:1"/>
<path class="bond-27 atom-27 atom-28" d="M 126.7,155.0 L 114.1,157.1" style="fill:none;fill-rule:evenodd;stroke:#000000;stroke-width:2.0px;stroke-linecap:butt;stroke-linejoin:miter;stroke-opacity:1"/>
<path class="bond-27 atom-27 atom-28" d="M 114.1,157.1 L 101.4,159.3" style="fill:none;fill-rule:evenodd;stroke:#FF0000;stroke-width:2.0px;stroke-linecap:butt;stroke-linejoin:miter;stroke-opacity:1"/>
<path class="bond-28 atom-27 atom-29" d="M 125.1,153.0 L 132.4,161.7" style="fill:none;fill-rule:evenodd;stroke:#000000;stroke-width:2.0px;stroke-linecap:butt;stroke-linejoin:miter;stroke-opacity:1"/>
<path class="bond-28 atom-27 atom-29" d="M 132.4,161.7 L 139.6,170.4" style="fill:none;fill-rule:evenodd;stroke:#FF0000;stroke-width:2.0px;stroke-linecap:butt;stroke-linejoin:miter;stroke-opacity:1"/>
<path d="M 68.4,85.7 L 69.0,85.6 L 69.9,86.7" style="fill:none;stroke:#000000;stroke-width:2.0px;stroke-linecap:butt;stroke-linejoin:miter;stroke-opacity:1;"/>
<path d="M 86.8,107.0 L 87.7,108.1 L 89.1,107.8" style="fill:none;stroke:#000000;stroke-width:2.0px;stroke-linecap:butt;stroke-linejoin:miter;stroke-opacity:1;"/>
<path d="M 115.1,103.4 L 116.5,103.1 L 117.5,104.2" style="fill:none;stroke:#000000;stroke-width:2.0px;stroke-linecap:butt;stroke-linejoin:miter;stroke-opacity:1;"/>
<path d="M 162.6,120.9 L 164.1,120.6 L 165.0,121.7" style="fill:none;stroke:#000000;stroke-width:2.0px;stroke-linecap:butt;stroke-linejoin:miter;stroke-opacity:1;"/>
<path d="M 181.9,142.0 L 182.8,143.1 L 184.3,142.9" style="fill:none;stroke:#000000;stroke-width:2.0px;stroke-linecap:butt;stroke-linejoin:miter;stroke-opacity:1;"/>
<path d="M 239.0,133.4 L 240.5,133.2 L 241.4,134.3" style="fill:none;stroke:#000000;stroke-width:2.0px;stroke-linecap:butt;stroke-linejoin:miter;stroke-opacity:1;"/>
<path d="M 258.3,154.5 L 259.2,155.6 L 259.1,156.0" style="fill:none;stroke:#000000;stroke-width:2.0px;stroke-linecap:butt;stroke-linejoin:miter;stroke-opacity:1;"/>
<path d="M 216.4,165.5 L 216.6,167.0 L 216.2,167.3" style="fill:none;stroke:#000000;stroke-width:2.0px;stroke-linecap:butt;stroke-linejoin:miter;stroke-opacity:1;"/>
<path d="M 206.9,110.7 L 206.7,109.3 L 207.8,108.4" style="fill:none;stroke:#000000;stroke-width:2.0px;stroke-linecap:butt;stroke-linejoin:miter;stroke-opacity:1;"/>
<path d="M 224.4,63.2 L 224.2,61.7 L 225.3,60.8" style="fill:none;stroke:#000000;stroke-width:2.0px;stroke-linecap:butt;stroke-linejoin:miter;stroke-opacity:1;"/>
<path d="M 245.5,44.0 L 246.7,43.0 L 246.6,42.4" style="fill:none;stroke:#000000;stroke-width:2.0px;stroke-linecap:butt;stroke-linejoin:miter;stroke-opacity:1;"/>
<path d="M 255.2,100.2 L 256.6,100.7 L 257.1,100.3" style="fill:none;stroke:#000000;stroke-width:2.0px;stroke-linecap:butt;stroke-linejoin:miter;stroke-opacity:1;"/>
<path d="M 125.7,151.7 L 125.1,153.0 L 125.5,153.5" style="fill:none;stroke:#000000;stroke-width:2.0px;stroke-linecap:butt;stroke-linejoin:miter;stroke-opacity:1;"/>
<path class="atom-0" d="M 75.3 58.2 Q 75.3 56.2, 76.3 55.1 Q 77.3 53.9, 79.1 53.9 Q 80.9 53.9, 81.9 55.1 Q 82.9 56.2, 82.9 58.2 Q 82.9 60.2, 81.9 61.3 Q 80.9 62.5, 79.1 62.5 Q 77.3 62.5, 76.3 61.3 Q 75.3 60.2, 75.3 58.2 M 79.1 61.5 Q 80.4 61.5, 81.0 60.7 Q 81.7 59.8, 81.7 58.2 Q 81.7 56.5, 81.0 55.7 Q 80.4 54.9, 79.1 54.9 Q 77.8 54.9, 77.1 55.7 Q 76.5 56.5, 76.5 58.2 Q 76.5 59.8, 77.1 60.7 Q 77.8 61.5, 79.1 61.5 " fill="#FF0000"/>
<path class="atom-2" d="M 28.2 86.5 L 29.3 86.5 L 29.3 90.0 L 33.5 90.0 L 33.5 86.5 L 34.6 86.5 L 34.6 94.8 L 33.5 94.8 L 33.5 90.9 L 29.3 90.9 L 29.3 94.8 L 28.2 94.8 L 28.2 86.5 " fill="#FF0000"/>
<path class="atom-2" d="M 36.3 90.6 Q 36.3 88.6, 37.3 87.5 Q 38.3 86.4, 40.2 86.4 Q 42.0 86.4, 43.0 87.5 Q 44.0 88.6, 44.0 90.6 Q 44.0 92.6, 43.0 93.7 Q 42.0 94.9, 40.2 94.9 Q 38.3 94.9, 37.3 93.7 Q 36.3 92.6, 36.3 90.6 M 40.2 93.9 Q 41.4 93.9, 42.1 93.1 Q 42.8 92.2, 42.8 90.6 Q 42.8 89.0, 42.1 88.1 Q 41.4 87.3, 40.2 87.3 Q 38.9 87.3, 38.2 88.1 Q 37.5 88.9, 37.5 90.6 Q 37.5 92.3, 38.2 93.1 Q 38.9 93.9, 40.2 93.9 " fill="#FF0000"/>
<path class="atom-8" d="M 168.9 170.6 Q 168.9 168.6, 169.9 167.5 Q 170.9 166.4, 172.7 166.4 Q 174.5 166.4, 175.5 167.5 Q 176.5 168.6, 176.5 170.6 Q 176.5 172.6, 175.5 173.7 Q 174.5 174.9, 172.7 174.9 Q 170.9 174.9, 169.9 173.7 Q 168.9 172.6, 168.9 170.6 M 172.7 173.9 Q 174.0 173.9, 174.6 173.1 Q 175.3 172.2, 175.3 170.6 Q 175.3 169.0, 174.6 168.1 Q 174.0 167.3, 172.7 167.3 Q 171.4 167.3, 170.7 168.1 Q 170.1 168.9, 170.1 170.6 Q 170.1 172.3, 170.7 173.1 Q 171.4 173.9, 172.7 173.9 " fill="#FF0000"/>
<path class="atom-12" d="M 284.2 150.7 Q 284.2 148.7, 285.2 147.6 Q 286.2 146.5, 288.0 146.5 Q 289.9 146.5, 290.9 147.6 Q 291.8 148.7, 291.8 150.7 Q 291.8 152.7, 290.8 153.9 Q 289.8 155.0, 288.0 155.0 Q 286.2 155.0, 285.2 153.9 Q 284.2 152.7, 284.2 150.7 M 288.0 154.1 Q 289.3 154.1, 290.0 153.2 Q 290.7 152.4, 290.7 150.7 Q 290.7 149.1, 290.0 148.2 Q 289.3 147.4, 288.0 147.4 Q 286.8 147.4, 286.1 148.2 Q 285.4 149.1, 285.4 150.7 Q 285.4 152.4, 286.1 153.2 Q 286.8 154.1, 288.0 154.1 " fill="#FF0000"/>
<path class="atom-13" d="M 250.5 176.4 Q 250.5 174.4, 251.5 173.3 Q 252.5 172.2, 254.3 172.2 Q 256.2 172.2, 257.1 173.3 Q 258.1 174.4, 258.1 176.4 Q 258.1 178.4, 257.1 179.6 Q 256.1 180.7, 254.3 180.7 Q 252.5 180.7, 251.5 179.6 Q 250.5 178.5, 250.5 176.4 M 254.3 179.8 Q 255.6 179.8, 256.3 178.9 Q 257.0 178.1, 257.0 176.4 Q 257.0 174.8, 256.3 174.0 Q 255.6 173.2, 254.3 173.2 Q 253.1 173.2, 252.4 174.0 Q 251.7 174.8, 251.7 176.4 Q 251.7 178.1, 252.4 178.9 Q 253.1 179.8, 254.3 179.8 " fill="#FF0000"/>
<path class="atom-13" d="M 259.4 172.3 L 260.5 172.3 L 260.5 175.8 L 264.8 175.8 L 264.8 172.3 L 265.9 172.3 L 265.9 180.6 L 264.8 180.6 L 264.8 176.8 L 260.5 176.8 L 260.5 180.6 L 259.4 180.6 L 259.4 172.3 " fill="#FF0000"/>
<path class="atom-15" d="M 231.8 176.7 Q 231.8 174.7, 232.8 173.6 Q 233.7 172.5, 235.6 172.5 Q 237.4 172.5, 238.4 173.6 Q 239.4 174.7, 239.4 176.7 Q 239.4 178.8, 238.4 179.9 Q 237.4 181.0, 235.6 181.0 Q 233.8 181.0, 232.8 179.9 Q 231.8 178.8, 231.8 176.7 M 235.6 180.1 Q 236.8 180.1, 237.5 179.3 Q 238.2 178.4, 238.2 176.7 Q 238.2 175.1, 237.5 174.3 Q 236.8 173.5, 235.6 173.5 Q 234.3 173.5, 233.6 174.3 Q 232.9 175.1, 232.9 176.7 Q 232.9 178.4, 233.6 179.3 Q 234.3 180.1, 235.6 180.1 " fill="#FF0000"/>
<path class="atom-16" d="M 182.1 181.6 L 183.3 181.6 L 183.3 185.1 L 187.5 185.1 L 187.5 181.6 L 188.6 181.6 L 188.6 189.9 L 187.5 189.9 L 187.5 186.0 L 183.3 186.0 L 183.3 189.9 L 182.1 189.9 L 182.1 181.6 " fill="#FF0000"/>
<path class="atom-16" d="M 190.3 185.7 Q 190.3 183.7, 191.3 182.6 Q 192.3 181.5, 194.1 181.5 Q 196.0 181.5, 197.0 182.6 Q 197.9 183.7, 197.9 185.7 Q 197.9 187.7, 196.9 188.9 Q 195.9 190.0, 194.1 190.0 Q 192.3 190.0, 191.3 188.9 Q 190.3 187.7, 190.3 185.7 M 194.1 189.1 Q 195.4 189.1, 196.1 188.2 Q 196.8 187.4, 196.8 185.7 Q 196.8 184.1, 196.1 183.3 Q 195.4 182.4, 194.1 182.4 Q 192.9 182.4, 192.2 183.2 Q 191.5 184.1, 191.5 185.7 Q 191.5 187.4, 192.2 188.2 Q 192.9 189.1, 194.1 189.1 " fill="#FF0000"/>
<path class="atom-18" d="M 175.4 99.2 Q 175.4 97.2, 176.4 96.1 Q 177.4 95.0, 179.2 95.0 Q 181.1 95.0, 182.0 96.1 Q 183.0 97.2, 183.0 99.2 Q 183.0 101.2, 182.0 102.4 Q 181.0 103.5, 179.2 103.5 Q 177.4 103.5, 176.4 102.4 Q 175.4 101.2, 175.4 99.2 M 179.2 102.6 Q 180.5 102.6, 181.2 101.7 Q 181.9 100.9, 181.9 99.2 Q 181.9 97.6, 181.2 96.8 Q 180.5 95.9, 179.2 95.9 Q 178.0 95.9, 177.3 96.8 Q 176.6 97.6, 176.6 99.2 Q 176.6 100.9, 177.3 101.7 Q 178.0 102.6, 179.2 102.6 " fill="#FF0000"/>
<path class="atom-22" d="M 270.3 53.2 Q 270.3 51.2, 271.3 50.1 Q 272.3 48.9, 274.1 48.9 Q 276.0 48.9, 276.9 50.1 Q 277.9 51.2, 277.9 53.2 Q 277.9 55.2, 276.9 56.3 Q 275.9 57.5, 274.1 57.5 Q 272.3 57.5, 271.3 56.3 Q 270.3 55.2, 270.3 53.2 M 274.1 56.5 Q 275.4 56.5, 276.1 55.7 Q 276.8 54.8, 276.8 53.2 Q 276.8 51.5, 276.1 50.7 Q 275.4 49.9, 274.1 49.9 Q 272.9 49.9, 272.2 50.7 Q 271.5 51.5, 271.5 53.2 Q 271.5 54.8, 272.2 55.7 Q 272.9 56.5, 274.1 56.5 " fill="#FF0000"/>
<path class="atom-23" d="M 237.9 14.2 Q 237.9 12.2, 238.9 11.1 Q 239.9 10.0, 241.7 10.0 Q 243.5 10.0, 244.5 11.1 Q 245.5 12.2, 245.5 14.2 Q 245.5 16.2, 244.5 17.4 Q 243.5 18.5, 241.7 18.5 Q 239.9 18.5, 238.9 17.4 Q 237.9 16.2, 237.9 14.2 M 241.7 17.6 Q 243.0 17.6, 243.6 16.7 Q 244.3 15.9, 244.3 14.2 Q 244.3 12.6, 243.6 11.8 Q 243.0 10.9, 241.7 10.9 Q 240.4 10.9, 239.7 11.8 Q 239.1 12.6, 239.1 14.2 Q 239.1 15.9, 239.7 16.7 Q 240.4 17.6, 241.7 17.6 " fill="#FF0000"/>
<path class="atom-23" d="M 246.8 10.1 L 247.9 10.1 L 247.9 13.6 L 252.2 13.6 L 252.2 10.1 L 253.3 10.1 L 253.3 18.4 L 252.2 18.4 L 252.2 14.6 L 247.9 14.6 L 247.9 18.4 L 246.8 18.4 L 246.8 10.1 " fill="#FF0000"/>
<path class="atom-25" d="M 257.8 129.5 Q 257.8 127.6, 258.8 126.4 Q 259.7 125.3, 261.6 125.3 Q 263.4 125.3, 264.4 126.4 Q 265.4 127.6, 265.4 129.5 Q 265.4 131.6, 264.4 132.7 Q 263.4 133.8, 261.6 133.8 Q 259.8 133.8, 258.8 132.7 Q 257.8 131.6, 257.8 129.5 M 261.6 132.9 Q 262.8 132.9, 263.5 132.1 Q 264.2 131.2, 264.2 129.5 Q 264.2 127.9, 263.5 127.1 Q 262.8 126.3, 261.6 126.3 Q 260.3 126.3, 259.6 127.1 Q 259.0 127.9, 259.0 129.5 Q 259.0 131.2, 259.6 132.1 Q 260.3 132.9, 261.6 132.9 " fill="#FF0000"/>
<path class="atom-26" d="M 275.3 82.0 Q 275.3 80.0, 276.3 78.9 Q 277.3 77.8, 279.1 77.8 Q 280.9 77.8, 281.9 78.9 Q 282.9 80.0, 282.9 82.0 Q 282.9 84.0, 281.9 85.1 Q 280.9 86.3, 279.1 86.3 Q 277.3 86.3, 276.3 85.1 Q 275.3 84.0, 275.3 82.0 M 279.1 85.3 Q 280.4 85.3, 281.0 84.5 Q 281.7 83.6, 281.7 82.0 Q 281.7 80.4, 281.0 79.5 Q 280.4 78.7, 279.1 78.7 Q 277.8 78.7, 277.1 79.5 Q 276.5 80.3, 276.5 82.0 Q 276.5 83.7, 277.1 84.5 Q 277.8 85.3, 279.1 85.3 " fill="#FF0000"/>
<path class="atom-26" d="M 284.2 77.9 L 285.3 77.9 L 285.3 81.4 L 289.5 81.4 L 289.5 77.9 L 290.7 77.9 L 290.7 86.2 L 289.5 86.2 L 289.5 82.3 L 285.3 82.3 L 285.3 86.2 L 284.2 86.2 L 284.2 77.9 " fill="#FF0000"/>
<path class="atom-28" d="M 92.5 158.0 Q 92.5 156.0, 93.5 154.9 Q 94.5 153.8, 96.3 153.8 Q 98.2 153.8, 99.1 154.9 Q 100.1 156.0, 100.1 158.0 Q 100.1 160.0, 99.1 161.2 Q 98.1 162.3, 96.3 162.3 Q 94.5 162.3, 93.5 161.2 Q 92.5 160.1, 92.5 158.0 M 96.3 161.4 Q 97.6 161.4, 98.3 160.6 Q 98.9 159.7, 98.9 158.0 Q 98.9 156.4, 98.3 155.6 Q 97.6 154.8, 96.3 154.8 Q 95.1 154.8, 94.4 155.6 Q 93.7 156.4, 93.7 158.0 Q 93.7 159.7, 94.4 160.6 Q 95.1 161.4, 96.3 161.4 " fill="#FF0000"/>
<path class="atom-29" d="M 140.1 175.5 Q 140.1 173.6, 141.0 172.4 Q 142.0 171.3, 143.9 171.3 Q 145.7 171.3, 146.7 172.4 Q 147.7 173.6, 147.7 175.5 Q 147.7 177.6, 146.7 178.7 Q 145.7 179.8, 143.9 179.8 Q 142.0 179.8, 141.0 178.7 Q 140.1 177.6, 140.1 175.5 M 143.9 178.9 Q 145.1 178.9, 145.8 178.1 Q 146.5 177.2, 146.5 175.5 Q 146.5 173.9, 145.8 173.1 Q 145.1 172.3, 143.9 172.3 Q 142.6 172.3, 141.9 173.1 Q 141.2 173.9, 141.2 175.5 Q 141.2 177.2, 141.9 178.1 Q 142.6 178.9, 143.9 178.9 " fill="#FF0000"/>
<path class="atom-29" d="M 149.0 171.4 L 150.1 171.4 L 150.1 175.0 L 154.3 175.0 L 154.3 171.4 L 155.4 171.4 L 155.4 179.7 L 154.3 179.7 L 154.3 175.9 L 150.1 175.9 L 150.1 179.7 L 149.0 179.7 L 149.0 171.4 " fill="#FF0000"/>
</svg>
