<?xml version='1.0' encoding='ASCII' standalone='yes'?>
<svg xmlns="http://www.w3.org/2000/svg" xmlns:rdkit="http://www.rdkit.org/xml" xmlns:xlink="http://www.w3.org/1999/xlink" version="1.1" baseProfile="full" xml:space="preserve" width="357px" height="200px" viewBox="0 0 357 200">
<!-- END OF HEADER -->
<rect style="opacity:1.0;fill:#FFFFFF;stroke:none" width="357.0" height="200.0" x="0.0" y="0.0"> </rect>
<path class="bond-0 atom-0 atom-1" d="M 319.1,31.4 L 303.3,44.2" style="fill:none;fill-rule:evenodd;stroke:#000000;stroke-width:2.0px;stroke-linecap:butt;stroke-linejoin:miter;stroke-opacity:1"/>
<path class="bond-1 atom-1 atom-2" d="M 303.3,44.2 L 290.5,28.3" style="fill:none;fill-rule:evenodd;stroke:#000000;stroke-width:2.0px;stroke-linecap:butt;stroke-linejoin:miter;stroke-opacity:1"/>
<path class="bond-2 atom-2 atom-3" d="M 290.5,28.3 L 282.1,29.7" style="fill:none;fill-rule:evenodd;stroke:#000000;stroke-width:2.0px;stroke-linecap:butt;stroke-linejoin:miter;stroke-opacity:1"/>
<path class="bond-2 atom-2 atom-3" d="M 282.1,29.7 L 273.7,31.0" style="fill:none;fill-rule:evenodd;stroke:#FF0000;stroke-width:2.0px;stroke-linecap:butt;stroke-linejoin:miter;stroke-opacity:1"/>
<path class="bond-3 atom-1 atom-4" d="M 303.3,44.2 L 287.4,57.0" style="fill:none;fill-rule:evenodd;stroke:#000000;stroke-width:2.0px;stroke-linecap:butt;stroke-linejoin:miter;stroke-opacity:1"/>
<path class="bond-4 atom-4 atom-5" d="M 287.4,57.0 L 290.6,77.1" style="fill:none;fill-rule:evenodd;stroke:#000000;stroke-width:2.0px;stroke-linecap:butt;stroke-linejoin:miter;stroke-opacity:1"/>
<path class="bond-5 atom-5 atom-6" d="M 290.6,77.1 L 274.7,89.9" style="fill:none;fill-rule:evenodd;stroke:#000000;stroke-width:2.0px;stroke-linecap:butt;stroke-linejoin:miter;stroke-opacity:1"/>
<path class="bond-6 atom-6 atom-7" d="M 274.7,89.9 L 277.8,110.1" style="fill:none;fill-rule:evenodd;stroke:#000000;stroke-width:2.0px;stroke-linecap:butt;stroke-linejoin:miter;stroke-opacity:1"/>
<path class="bond-7 atom-7 atom-8" d="M 277.8,110.1 L 262.0,122.9" style="fill:none;fill-rule:evenodd;stroke:#000000;stroke-width:2.0px;stroke-linecap:butt;stroke-linejoin:miter;stroke-opacity:1"/>
<path class="bond-8 atom-8 atom-9" d="M 262.0,122.9 L 274.8,138.7" style="fill:none;fill-rule:evenodd;stroke:#000000;stroke-width:2.0px;stroke-linecap:butt;stroke-linejoin:miter;stroke-opacity:1"/>
<path class="bond-9 atom-9 atom-10" d="M 274.8,138.7 L 271.8,146.4" style="fill:none;fill-rule:evenodd;stroke:#000000;stroke-width:2.0px;stroke-linecap:butt;stroke-linejoin:miter;stroke-opacity:1"/>
<path class="bond-9 atom-9 atom-10" d="M 271.8,146.4 L 268.8,154.2" style="fill:none;fill-rule:evenodd;stroke:#FF0000;stroke-width:2.0px;stroke-linecap:butt;stroke-linejoin:miter;stroke-opacity:1"/>
<path class="bond-10 atom-8 atom-11" d="M 262.0,122.9 L 246.1,135.7" style="fill:none;fill-rule:evenodd;stroke:#000000;stroke-width:2.0px;stroke-linecap:butt;stroke-linejoin:miter;stroke-opacity:1"/>
<path class="bond-11 atom-11 atom-12" d="M 246.1,135.7 L 227.1,128.3" style="fill:none;fill-rule:evenodd;stroke:#000000;stroke-width:2.0px;stroke-linecap:butt;stroke-linejoin:miter;stroke-opacity:1"/>
<path class="bond-12 atom-12 atom-13" d="M 227.1,128.3 L 211.2,141.1" style="fill:none;fill-rule:evenodd;stroke:#000000;stroke-width:2.0px;stroke-linecap:butt;stroke-linejoin:miter;stroke-opacity:1"/>
<path class="bond-13 atom-13 atom-14" d="M 211.2,141.1 L 192.2,133.8" style="fill:none;fill-rule:evenodd;stroke:#000000;stroke-width:2.0px;stroke-linecap:butt;stroke-linejoin:miter;stroke-opacity:1"/>
<path class="bond-14 atom-14 atom-15" d="M 192.2,133.8 L 199.6,114.8" style="fill:none;fill-rule:evenodd;stroke:#000000;stroke-width:2.0px;stroke-linecap:butt;stroke-linejoin:miter;stroke-opacity:1"/>
<path class="bond-15 atom-15 atom-16" d="M 199.6,114.8 L 194.6,108.7" style="fill:none;fill-rule:evenodd;stroke:#000000;stroke-width:2.0px;stroke-linecap:butt;stroke-linejoin:miter;stroke-opacity:1"/>
<path class="bond-15 atom-15 atom-16" d="M 194.6,108.7 L 189.7,102.6" style="fill:none;fill-rule:evenodd;stroke:#FF0000;stroke-width:2.0px;stroke-linecap:butt;stroke-linejoin:miter;stroke-opacity:1"/>
<path class="bond-16 atom-14 atom-17" d="M 192.2,133.8 L 173.2,126.4" style="fill:none;fill-rule:evenodd;stroke:#000000;stroke-width:2.0px;stroke-linecap:butt;stroke-linejoin:miter;stroke-opacity:1"/>
<path class="bond-17 atom-17 atom-18" d="M 173.2,126.4 L 170.1,106.3" style="fill:none;fill-rule:evenodd;stroke:#000000;stroke-width:2.0px;stroke-linecap:butt;stroke-linejoin:miter;stroke-opacity:1"/>
<path class="bond-18 atom-18 atom-19" d="M 170.1,106.3 L 151.0,98.9" style="fill:none;fill-rule:evenodd;stroke:#000000;stroke-width:2.0px;stroke-linecap:butt;stroke-linejoin:miter;stroke-opacity:1"/>
<path class="bond-19 atom-19 atom-20" d="M 151.0,98.9 L 147.9,78.8" style="fill:none;fill-rule:evenodd;stroke:#000000;stroke-width:2.0px;stroke-linecap:butt;stroke-linejoin:miter;stroke-opacity:1"/>
<path class="bond-20 atom-20 atom-21" d="M 147.9,78.8 L 128.9,71.5" style="fill:none;fill-rule:evenodd;stroke:#000000;stroke-width:2.0px;stroke-linecap:butt;stroke-linejoin:miter;stroke-opacity:1"/>
<path class="bond-21 atom-21 atom-22" d="M 128.9,71.5 L 136.2,52.5" style="fill:none;fill-rule:evenodd;stroke:#000000;stroke-width:2.0px;stroke-linecap:butt;stroke-linejoin:miter;stroke-opacity:1"/>
<path class="bond-22 atom-22 atom-23" d="M 136.2,52.5 L 131.3,46.4" style="fill:none;fill-rule:evenodd;stroke:#000000;stroke-width:2.0px;stroke-linecap:butt;stroke-linejoin:miter;stroke-opacity:1"/>
<path class="bond-22 atom-22 atom-23" d="M 131.3,46.4 L 126.4,40.3" style="fill:none;fill-rule:evenodd;stroke:#FF0000;stroke-width:2.0px;stroke-linecap:butt;stroke-linejoin:miter;stroke-opacity:1"/>
<path class="bond-23 atom-21 atom-24" d="M 128.9,71.5 L 109.9,64.1" style="fill:none;fill-rule:evenodd;stroke:#000000;stroke-width:2.0px;stroke-linecap:butt;stroke-linejoin:miter;stroke-opacity:1"/>
<path class="bond-24 atom-24 atom-25" d="M 109.9,64.1 L 94.0,76.9" style="fill:none;fill-rule:evenodd;stroke:#000000;stroke-width:2.0px;stroke-linecap:butt;stroke-linejoin:miter;stroke-opacity:1"/>
<path class="bond-25 atom-25 atom-26" d="M 94.0,76.9 L 75.0,69.6" style="fill:none;fill-rule:evenodd;stroke:#000000;stroke-width:2.0px;stroke-linecap:butt;stroke-linejoin:miter;stroke-opacity:1"/>
<path class="bond-26 atom-26 atom-27" d="M 75.0,69.6 L 59.1,82.4" style="fill:none;fill-rule:evenodd;stroke:#000000;stroke-width:2.0px;stroke-linecap:butt;stroke-linejoin:miter;stroke-opacity:1"/>
<path class="bond-27 atom-27 atom-28" d="M 59.1,82.4 L 43.3,95.2" style="fill:none;fill-rule:evenodd;stroke:#000000;stroke-width:2.0px;stroke-linecap:butt;stroke-linejoin:miter;stroke-opacity:1"/>
<path class="bond-28 atom-27 atom-29" d="M 59.1,82.4 L 71.9,98.2" style="fill:none;fill-rule:evenodd;stroke:#000000;stroke-width:2.0px;stroke-linecap:butt;stroke-linejoin:miter;stroke-opacity:1"/>
<path class="bond-29 atom-29 atom-30" d="M 71.9,98.2 L 68.9,105.9" style="fill:none;fill-rule:evenodd;stroke:#000000;stroke-width:2.0px;stroke-linecap:butt;stroke-linejoin:miter;stroke-opacity:1"/>
<path class="bond-29 atom-29 atom-30" d="M 68.9,105.9 L 66.0,113.6" style="fill:none;fill-rule:evenodd;stroke:#FF0000;stroke-width:2.0px;stroke-linecap:butt;stroke-linejoin:miter;stroke-opacity:1"/>
<path class="bond-30 atom-27 atom-31" d="M 59.1,82.4 L 46.3,66.5" style="fill:none;fill-rule:evenodd;stroke:#000000;stroke-width:2.0px;stroke-linecap:butt;stroke-linejoin:miter;stroke-opacity:1"/>
<path class="bond-31 atom-31 atom-32" d="M 47.4,67.9 L 50.6,59.8" style="fill:none;fill-rule:evenodd;stroke:#000000;stroke-width:2.0px;stroke-linecap:butt;stroke-linejoin:miter;stroke-opacity:1"/>
<path class="bond-31 atom-31 atom-32" d="M 50.6,59.8 L 53.7,51.7" style="fill:none;fill-rule:evenodd;stroke:#FF0000;stroke-width:2.0px;stroke-linecap:butt;stroke-linejoin:miter;stroke-opacity:1"/>
<path class="bond-31 atom-31 atom-32" d="M 44.6,66.8 L 47.7,58.7" style="fill:none;fill-rule:evenodd;stroke:#000000;stroke-width:2.0px;stroke-linecap:butt;stroke-linejoin:miter;stroke-opacity:1"/>
<path class="bond-31 atom-31 atom-32" d="M 47.7,58.7 L 50.8,50.6" style="fill:none;fill-rule:evenodd;stroke:#FF0000;stroke-width:2.0px;stroke-linecap:butt;stroke-linejoin:miter;stroke-opacity:1"/>
<path class="bond-32 atom-31 atom-33" d="M 46.3,66.5 L 37.9,67.8" style="fill:none;fill-rule:evenodd;stroke:#000000;stroke-width:2.0px;stroke-linecap:butt;stroke-linejoin:miter;stroke-opacity:1"/>
<path class="bond-32 atom-31 atom-33" d="M 37.9,67.8 L 29.5,69.1" style="fill:none;fill-rule:evenodd;stroke:#FF0000;stroke-width:2.0px;stroke-linecap:butt;stroke-linejoin:miter;stroke-opacity:1"/>
<path class="bond-33 atom-21 atom-34" d="M 128.9,71.5 L 121.5,90.5" style="fill:none;fill-rule:evenodd;stroke:#000000;stroke-width:2.0px;stroke-linecap:butt;stroke-linejoin:miter;stroke-opacity:1"/>
<path class="bond-34 atom-34 atom-35" d="M 119.8,90.7 L 125.0,97.2" style="fill:none;fill-rule:evenodd;stroke:#000000;stroke-width:2.0px;stroke-linecap:butt;stroke-linejoin:miter;stroke-opacity:1"/>
<path class="bond-34 atom-34 atom-35" d="M 125.0,97.2 L 130.2,103.7" style="fill:none;fill-rule:evenodd;stroke:#FF0000;stroke-width:2.0px;stroke-linecap:butt;stroke-linejoin:miter;stroke-opacity:1"/>
<path class="bond-34 atom-34 atom-35" d="M 122.2,88.8 L 127.4,95.3" style="fill:none;fill-rule:evenodd;stroke:#000000;stroke-width:2.0px;stroke-linecap:butt;stroke-linejoin:miter;stroke-opacity:1"/>
<path class="bond-34 atom-34 atom-35" d="M 127.4,95.3 L 132.6,101.8" style="fill:none;fill-rule:evenodd;stroke:#FF0000;stroke-width:2.0px;stroke-linecap:butt;stroke-linejoin:miter;stroke-opacity:1"/>
<path class="bond-35 atom-34 atom-36" d="M 121.5,90.5 L 113.1,91.8" style="fill:none;fill-rule:evenodd;stroke:#000000;stroke-width:2.0px;stroke-linecap:butt;stroke-linejoin:miter;stroke-opacity:1"/>
<path class="bond-35 atom-34 atom-36" d="M 113.1,91.8 L 104.7,93.1" style="fill:none;fill-rule:evenodd;stroke:#FF0000;stroke-width:2.0px;stroke-linecap:butt;stroke-linejoin:miter;stroke-opacity:1"/>
<path class="bond-36 atom-14 atom-37" d="M 192.2,133.8 L 184.9,152.8" style="fill:none;fill-rule:evenodd;stroke:#000000;stroke-width:2.0px;stroke-linecap:butt;stroke-linejoin:miter;stroke-opacity:1"/>
<path class="bond-37 atom-37 atom-38" d="M 183.1,153.0 L 188.4,159.5" style="fill:none;fill-rule:evenodd;stroke:#000000;stroke-width:2.0px;stroke-linecap:butt;stroke-linejoin:miter;stroke-opacity:1"/>
<path class="bond-37 atom-37 atom-38" d="M 188.4,159.5 L 193.6,166.0" style="fill:none;fill-rule:evenodd;stroke:#FF0000;stroke-width:2.0px;stroke-linecap:butt;stroke-linejoin:miter;stroke-opacity:1"/>
<path class="bond-37 atom-37 atom-38" d="M 185.5,151.1 L 190.7,157.6" style="fill:none;fill-rule:evenodd;stroke:#000000;stroke-width:2.0px;stroke-linecap:butt;stroke-linejoin:miter;stroke-opacity:1"/>
<path class="bond-37 atom-37 atom-38" d="M 190.7,157.6 L 196.0,164.1" style="fill:none;fill-rule:evenodd;stroke:#FF0000;stroke-width:2.0px;stroke-linecap:butt;stroke-linejoin:miter;stroke-opacity:1"/>
<path class="bond-38 atom-37 atom-39" d="M 184.9,152.8 L 176.5,154.1" style="fill:none;fill-rule:evenodd;stroke:#000000;stroke-width:2.0px;stroke-linecap:butt;stroke-linejoin:miter;stroke-opacity:1"/>
<path class="bond-38 atom-37 atom-39" d="M 176.5,154.1 L 168.1,155.4" style="fill:none;fill-rule:evenodd;stroke:#FF0000;stroke-width:2.0px;stroke-linecap:butt;stroke-linejoin:miter;stroke-opacity:1"/>
<path class="bond-39 atom-8 atom-40" d="M 262.0,122.9 L 249.2,107.0" style="fill:none;fill-rule:evenodd;stroke:#000000;stroke-width:2.0px;stroke-linecap:butt;stroke-linejoin:miter;stroke-opacity:1"/>
<path class="bond-40 atom-40 atom-41" d="M 250.3,108.4 L 253.4,100.3" style="fill:none;fill-rule:evenodd;stroke:#000000;stroke-width:2.0px;stroke-linecap:butt;stroke-linejoin:miter;stroke-opacity:1"/>
<path class="bond-40 atom-40 atom-41" d="M 253.4,100.3 L 256.5,92.2" style="fill:none;fill-rule:evenodd;stroke:#FF0000;stroke-width:2.0px;stroke-linecap:butt;stroke-linejoin:miter;stroke-opacity:1"/>
<path class="bond-40 atom-40 atom-41" d="M 247.4,107.3 L 250.5,99.2" style="fill:none;fill-rule:evenodd;stroke:#000000;stroke-width:2.0px;stroke-linecap:butt;stroke-linejoin:miter;stroke-opacity:1"/>
<path class="bond-40 atom-40 atom-41" d="M 250.5,99.2 L 253.7,91.1" style="fill:none;fill-rule:evenodd;stroke:#FF0000;stroke-width:2.0px;stroke-linecap:butt;stroke-linejoin:miter;stroke-opacity:1"/>
<path class="bond-41 atom-40 atom-42" d="M 249.2,107.0 L 240.8,108.3" style="fill:none;fill-rule:evenodd;stroke:#000000;stroke-width:2.0px;stroke-linecap:butt;stroke-linejoin:miter;stroke-opacity:1"/>
<path class="bond-41 atom-40 atom-42" d="M 240.8,108.3 L 232.4,109.6" style="fill:none;fill-rule:evenodd;stroke:#FF0000;stroke-width:2.0px;stroke-linecap:butt;stroke-linejoin:miter;stroke-opacity:1"/>
<path class="bond-42 atom-1 atom-43" d="M 303.3,44.2 L 316.1,60.1" style="fill:none;fill-rule:evenodd;stroke:#000000;stroke-width:2.0px;stroke-linecap:butt;stroke-linejoin:miter;stroke-opacity:1"/>
<path class="bond-43 atom-43 atom-44" d="M 315.4,61.7 L 324.3,60.3" style="fill:none;fill-rule:evenodd;stroke:#000000;stroke-width:2.0px;stroke-linecap:butt;stroke-linejoin:miter;stroke-opacity:1"/>
<path class="bond-43 atom-43 atom-44" d="M 324.3,60.3 L 333.1,59.0" style="fill:none;fill-rule:evenodd;stroke:#FF0000;stroke-width:2.0px;stroke-linecap:butt;stroke-linejoin:miter;stroke-opacity:1"/>
<path class="bond-43 atom-43 atom-44" d="M 315.0,58.7 L 323.8,57.3" style="fill:none;fill-rule:evenodd;stroke:#000000;stroke-width:2.0px;stroke-linecap:butt;stroke-linejoin:miter;stroke-opacity:1"/>
<path class="bond-43 atom-43 atom-44" d="M 323.8,57.3 L 332.6,55.9" style="fill:none;fill-rule:evenodd;stroke:#FF0000;stroke-width:2.0px;stroke-linecap:butt;stroke-linejoin:miter;stroke-opacity:1"/>
<path class="bond-44 atom-43 atom-45" d="M 316.1,60.1 L 313.1,67.8" style="fill:none;fill-rule:evenodd;stroke:#000000;stroke-width:2.0px;stroke-linecap:butt;stroke-linejoin:miter;stroke-opacity:1"/>
<path class="bond-44 atom-43 atom-45" d="M 313.1,67.8 L 310.1,75.5" style="fill:none;fill-rule:evenodd;stroke:#FF0000;stroke-width:2.0px;stroke-linecap:butt;stroke-linejoin:miter;stroke-opacity:1"/>
<path d="M 291.1,29.1 L 290.5,28.3 L 290.1,28.4" style="fill:none;stroke:#000000;stroke-width:2.0px;stroke-linecap:butt;stroke-linejoin:miter;stroke-opacity:1;"/>
<path d="M 288.2,56.4 L 287.4,57.0 L 287.6,58.0" style="fill:none;stroke:#000000;stroke-width:2.0px;stroke-linecap:butt;stroke-linejoin:miter;stroke-opacity:1;"/>
<path d="M 290.4,76.1 L 290.6,77.1 L 289.8,77.8" style="fill:none;stroke:#000000;stroke-width:2.0px;stroke-linecap:butt;stroke-linejoin:miter;stroke-opacity:1;"/>
<path d="M 275.5,89.3 L 274.7,89.9 L 274.8,90.9" style="fill:none;stroke:#000000;stroke-width:2.0px;stroke-linecap:butt;stroke-linejoin:miter;stroke-opacity:1;"/>
<path d="M 277.7,109.1 L 277.8,110.1 L 277.0,110.7" style="fill:none;stroke:#000000;stroke-width:2.0px;stroke-linecap:butt;stroke-linejoin:miter;stroke-opacity:1;"/>
<path d="M 274.1,137.9 L 274.8,138.7 L 274.6,139.1" style="fill:none;stroke:#000000;stroke-width:2.0px;stroke-linecap:butt;stroke-linejoin:miter;stroke-opacity:1;"/>
<path d="M 246.9,135.0 L 246.1,135.7 L 245.2,135.3" style="fill:none;stroke:#000000;stroke-width:2.0px;stroke-linecap:butt;stroke-linejoin:miter;stroke-opacity:1;"/>
<path d="M 228.0,128.7 L 227.1,128.3 L 226.3,129.0" style="fill:none;stroke:#000000;stroke-width:2.0px;stroke-linecap:butt;stroke-linejoin:miter;stroke-opacity:1;"/>
<path d="M 212.0,140.5 L 211.2,141.1 L 210.3,140.7" style="fill:none;stroke:#000000;stroke-width:2.0px;stroke-linecap:butt;stroke-linejoin:miter;stroke-opacity:1;"/>
<path d="M 199.2,115.7 L 199.6,114.8 L 199.3,114.4" style="fill:none;stroke:#000000;stroke-width:2.0px;stroke-linecap:butt;stroke-linejoin:miter;stroke-opacity:1;"/>
<path d="M 174.2,126.8 L 173.2,126.4 L 173.0,125.4" style="fill:none;stroke:#000000;stroke-width:2.0px;stroke-linecap:butt;stroke-linejoin:miter;stroke-opacity:1;"/>
<path d="M 170.2,107.3 L 170.1,106.3 L 169.1,105.9" style="fill:none;stroke:#000000;stroke-width:2.0px;stroke-linecap:butt;stroke-linejoin:miter;stroke-opacity:1;"/>
<path d="M 152.0,99.3 L 151.0,98.9 L 150.9,97.9" style="fill:none;stroke:#000000;stroke-width:2.0px;stroke-linecap:butt;stroke-linejoin:miter;stroke-opacity:1;"/>
<path d="M 148.1,79.8 L 147.9,78.8 L 146.9,78.4" style="fill:none;stroke:#000000;stroke-width:2.0px;stroke-linecap:butt;stroke-linejoin:miter;stroke-opacity:1;"/>
<path d="M 135.9,53.4 L 136.2,52.5 L 136.0,52.1" style="fill:none;stroke:#000000;stroke-width:2.0px;stroke-linecap:butt;stroke-linejoin:miter;stroke-opacity:1;"/>
<path d="M 110.8,64.5 L 109.9,64.1 L 109.1,64.8" style="fill:none;stroke:#000000;stroke-width:2.0px;stroke-linecap:butt;stroke-linejoin:miter;stroke-opacity:1;"/>
<path d="M 94.8,76.3 L 94.0,76.9 L 93.1,76.5" style="fill:none;stroke:#000000;stroke-width:2.0px;stroke-linecap:butt;stroke-linejoin:miter;stroke-opacity:1;"/>
<path d="M 75.9,69.9 L 75.0,69.6 L 74.2,70.2" style="fill:none;stroke:#000000;stroke-width:2.0px;stroke-linecap:butt;stroke-linejoin:miter;stroke-opacity:1;"/>
<path d="M 71.3,97.4 L 71.9,98.2 L 71.8,98.6" style="fill:none;stroke:#000000;stroke-width:2.0px;stroke-linecap:butt;stroke-linejoin:miter;stroke-opacity:1;"/>
<path d="M 47.0,67.3 L 46.3,66.5 L 45.9,66.6" style="fill:none;stroke:#000000;stroke-width:2.0px;stroke-linecap:butt;stroke-linejoin:miter;stroke-opacity:1;"/>
<path d="M 121.9,89.5 L 121.5,90.5 L 121.1,90.5" style="fill:none;stroke:#000000;stroke-width:2.0px;stroke-linecap:butt;stroke-linejoin:miter;stroke-opacity:1;"/>
<path d="M 185.2,151.8 L 184.9,152.8 L 184.4,152.8" style="fill:none;stroke:#000000;stroke-width:2.0px;stroke-linecap:butt;stroke-linejoin:miter;stroke-opacity:1;"/>
<path d="M 249.8,107.8 L 249.2,107.0 L 248.8,107.1" style="fill:none;stroke:#000000;stroke-width:2.0px;stroke-linecap:butt;stroke-linejoin:miter;stroke-opacity:1;"/>
<path d="M 315.4,59.3 L 316.1,60.1 L 315.9,60.5" style="fill:none;stroke:#000000;stroke-width:2.0px;stroke-linecap:butt;stroke-linejoin:miter;stroke-opacity:1;"/>
<path class="atom-3" d="M 262.0 28.6 L 262.8 28.6 L 262.8 31.1 L 265.7 31.1 L 265.7 28.6 L 266.5 28.6 L 266.5 34.4 L 265.7 34.4 L 265.7 31.7 L 262.8 31.7 L 262.8 34.4 L 262.0 34.4 L 262.0 28.6 " fill="#FF0000"/>
<path class="atom-3" d="M 267.7 31.5 Q 267.7 30.1, 268.4 29.4 Q 269.1 28.6, 270.3 28.6 Q 271.6 28.6, 272.3 29.4 Q 273.0 30.1, 273.0 31.5 Q 273.0 32.9, 272.3 33.7 Q 271.6 34.5, 270.3 34.5 Q 269.1 34.5, 268.4 33.7 Q 267.7 32.9, 267.7 31.5 M 270.3 33.9 Q 271.2 33.9, 271.7 33.3 Q 272.2 32.7, 272.2 31.5 Q 272.2 30.4, 271.7 29.8 Q 271.2 29.2, 270.3 29.2 Q 269.5 29.2, 269.0 29.8 Q 268.5 30.4, 268.5 31.5 Q 268.5 32.7, 269.0 33.3 Q 269.5 33.9, 270.3 33.9 " fill="#FF0000"/>
<path class="atom-10" d="M 259.1 154.9 L 259.8 154.9 L 259.8 157.3 L 262.8 157.3 L 262.8 154.9 L 263.6 154.9 L 263.6 160.7 L 262.8 160.7 L 262.8 158.0 L 259.8 158.0 L 259.8 160.7 L 259.1 160.7 L 259.1 154.9 " fill="#FF0000"/>
<path class="atom-10" d="M 264.8 157.8 Q 264.8 156.4, 265.5 155.6 Q 266.1 154.8, 267.4 154.8 Q 268.7 154.8, 269.4 155.6 Q 270.1 156.4, 270.1 157.8 Q 270.1 159.2, 269.4 160.0 Q 268.7 160.8, 267.4 160.8 Q 266.1 160.8, 265.5 160.0 Q 264.8 159.2, 264.8 157.8 M 267.4 160.1 Q 268.3 160.1, 268.8 159.5 Q 269.3 158.9, 269.3 157.8 Q 269.3 156.6, 268.8 156.1 Q 268.3 155.5, 267.4 155.5 Q 266.5 155.5, 266.1 156.0 Q 265.6 156.6, 265.6 157.8 Q 265.6 158.9, 266.1 159.5 Q 266.5 160.1, 267.4 160.1 " fill="#FF0000"/>
<path class="atom-16" d="M 178.4 96.0 L 179.2 96.0 L 179.2 98.5 L 182.1 98.5 L 182.1 96.0 L 182.9 96.0 L 182.9 101.8 L 182.1 101.8 L 182.1 99.1 L 179.2 99.1 L 179.2 101.8 L 178.4 101.8 L 178.4 96.0 " fill="#FF0000"/>
<path class="atom-16" d="M 184.1 98.9 Q 184.1 97.5, 184.8 96.7 Q 185.5 96.0, 186.8 96.0 Q 188.0 96.0, 188.7 96.7 Q 189.4 97.5, 189.4 98.9 Q 189.4 100.3, 188.7 101.1 Q 188.0 101.9, 186.8 101.9 Q 185.5 101.9, 184.8 101.1 Q 184.1 100.3, 184.1 98.9 M 186.8 101.2 Q 187.6 101.2, 188.1 100.7 Q 188.6 100.1, 188.6 98.9 Q 188.6 97.8, 188.1 97.2 Q 187.6 96.6, 186.8 96.6 Q 185.9 96.6, 185.4 97.2 Q 184.9 97.8, 184.9 98.9 Q 184.9 100.1, 185.4 100.7 Q 185.9 101.2, 186.8 101.2 " fill="#FF0000"/>
<path class="atom-23" d="M 115.1 33.7 L 115.9 33.7 L 115.9 36.2 L 118.8 36.2 L 118.8 33.7 L 119.6 33.7 L 119.6 39.5 L 118.8 39.5 L 118.8 36.8 L 115.9 36.8 L 115.9 39.5 L 115.1 39.5 L 115.1 33.7 " fill="#FF0000"/>
<path class="atom-23" d="M 120.8 36.6 Q 120.8 35.2, 121.5 34.4 Q 122.2 33.7, 123.4 33.7 Q 124.7 33.7, 125.4 34.4 Q 126.1 35.2, 126.1 36.6 Q 126.1 38.0, 125.4 38.8 Q 124.7 39.6, 123.4 39.6 Q 122.2 39.6, 121.5 38.8 Q 120.8 38.0, 120.8 36.6 M 123.4 38.9 Q 124.3 38.9, 124.8 38.4 Q 125.3 37.8, 125.3 36.6 Q 125.3 35.5, 124.8 34.9 Q 124.3 34.3, 123.4 34.3 Q 122.6 34.3, 122.1 34.9 Q 121.6 35.5, 121.6 36.6 Q 121.6 37.8, 122.1 38.4 Q 122.6 38.9, 123.4 38.9 " fill="#FF0000"/>
<path class="atom-30" d="M 56.2 114.4 L 57.0 114.4 L 57.0 116.8 L 60.0 116.8 L 60.0 114.4 L 60.7 114.4 L 60.7 120.2 L 60.0 120.2 L 60.0 117.5 L 57.0 117.5 L 57.0 120.2 L 56.2 120.2 L 56.2 114.4 " fill="#FF0000"/>
<path class="atom-30" d="M 61.9 117.3 Q 61.9 115.9, 62.6 115.1 Q 63.3 114.3, 64.6 114.3 Q 65.9 114.3, 66.5 115.1 Q 67.2 115.9, 67.2 117.3 Q 67.2 118.7, 66.5 119.5 Q 65.8 120.2, 64.6 120.2 Q 63.3 120.2, 62.6 119.5 Q 61.9 118.7, 61.9 117.3 M 64.6 119.6 Q 65.5 119.6, 65.9 119.0 Q 66.4 118.4, 66.4 117.3 Q 66.4 116.1, 65.9 115.6 Q 65.5 115.0, 64.6 115.0 Q 63.7 115.0, 63.2 115.5 Q 62.7 116.1, 62.7 117.3 Q 62.7 118.4, 63.2 119.0 Q 63.7 119.6, 64.6 119.6 " fill="#FF0000"/>
<path class="atom-32" d="M 51.0 47.5 Q 51.0 46.1, 51.7 45.3 Q 52.4 44.6, 53.7 44.6 Q 55.0 44.6, 55.6 45.3 Q 56.3 46.1, 56.3 47.5 Q 56.3 48.9, 55.6 49.7 Q 54.9 50.5, 53.7 50.5 Q 52.4 50.5, 51.7 49.7 Q 51.0 48.9, 51.0 47.5 M 53.7 49.8 Q 54.6 49.8, 55.0 49.3 Q 55.5 48.7, 55.5 47.5 Q 55.5 46.4, 55.0 45.8 Q 54.6 45.2, 53.7 45.2 Q 52.8 45.2, 52.3 45.8 Q 51.8 46.4, 51.8 47.5 Q 51.8 48.7, 52.3 49.3 Q 52.8 49.8, 53.7 49.8 " fill="#FF0000"/>
<path class="atom-33" d="M 17.9 66.8 L 18.6 66.8 L 18.6 69.2 L 21.6 69.2 L 21.6 66.8 L 22.4 66.8 L 22.4 72.6 L 21.6 72.6 L 21.6 69.9 L 18.6 69.9 L 18.6 72.6 L 17.9 72.6 L 17.9 66.8 " fill="#FF0000"/>
<path class="atom-33" d="M 23.6 69.7 Q 23.6 68.3, 24.2 67.5 Q 24.9 66.7, 26.2 66.7 Q 27.5 66.7, 28.2 67.5 Q 28.8 68.3, 28.8 69.7 Q 28.8 71.1, 28.2 71.9 Q 27.5 72.7, 26.2 72.7 Q 24.9 72.7, 24.2 71.9 Q 23.6 71.1, 23.6 69.7 M 26.2 72.0 Q 27.1 72.0, 27.6 71.4 Q 28.0 70.8, 28.0 69.7 Q 28.0 68.5, 27.6 68.0 Q 27.1 67.4, 26.2 67.4 Q 25.3 67.4, 24.8 67.9 Q 24.4 68.5, 24.4 69.7 Q 24.4 70.8, 24.8 71.4 Q 25.3 72.0, 26.2 72.0 " fill="#FF0000"/>
<path class="atom-35" d="M 131.7 106.4 Q 131.7 105.0, 132.4 104.2 Q 133.1 103.4, 134.3 103.4 Q 135.6 103.4, 136.3 104.2 Q 137.0 105.0, 137.0 106.4 Q 137.0 107.8, 136.3 108.6 Q 135.6 109.3, 134.3 109.3 Q 133.1 109.3, 132.4 108.6 Q 131.7 107.8, 131.7 106.4 M 134.3 108.7 Q 135.2 108.7, 135.7 108.1 Q 136.2 107.5, 136.2 106.4 Q 136.2 105.2, 135.7 104.7 Q 135.2 104.1, 134.3 104.1 Q 133.5 104.1, 133.0 104.6 Q 132.5 105.2, 132.5 106.4 Q 132.5 107.5, 133.0 108.1 Q 133.5 108.7, 134.3 108.7 " fill="#FF0000"/>
<path class="atom-36" d="M 93.1 90.8 L 93.8 90.8 L 93.8 93.2 L 96.8 93.2 L 96.8 90.8 L 97.6 90.8 L 97.6 96.5 L 96.8 96.5 L 96.8 93.9 L 93.8 93.9 L 93.8 96.5 L 93.1 96.5 L 93.1 90.8 " fill="#FF0000"/>
<path class="atom-36" d="M 98.8 93.6 Q 98.8 92.3, 99.4 91.5 Q 100.1 90.7, 101.4 90.7 Q 102.7 90.7, 103.4 91.5 Q 104.1 92.3, 104.1 93.6 Q 104.1 95.0, 103.4 95.8 Q 102.7 96.6, 101.4 96.6 Q 100.1 96.6, 99.4 95.8 Q 98.8 95.0, 98.8 93.6 M 101.4 96.0 Q 102.3 96.0, 102.8 95.4 Q 103.2 94.8, 103.2 93.6 Q 103.2 92.5, 102.8 91.9 Q 102.3 91.4, 101.4 91.4 Q 100.5 91.4, 100.0 91.9 Q 99.6 92.5, 99.6 93.6 Q 99.6 94.8, 100.0 95.4 Q 100.5 96.0, 101.4 96.0 " fill="#FF0000"/>
<path class="atom-38" d="M 195.0 168.7 Q 195.0 167.3, 195.7 166.5 Q 196.4 165.7, 197.7 165.7 Q 198.9 165.7, 199.6 166.5 Q 200.3 167.3, 200.3 168.7 Q 200.3 170.1, 199.6 170.9 Q 198.9 171.7, 197.7 171.7 Q 196.4 171.7, 195.7 170.9 Q 195.0 170.1, 195.0 168.7 M 197.7 171.0 Q 198.5 171.0, 199.0 170.4 Q 199.5 169.8, 199.5 168.7 Q 199.5 167.5, 199.0 167.0 Q 198.5 166.4, 197.7 166.4 Q 196.8 166.4, 196.3 166.9 Q 195.8 167.5, 195.8 168.7 Q 195.8 169.8, 196.3 170.4 Q 196.8 171.0, 197.7 171.0 " fill="#FF0000"/>
<path class="atom-39" d="M 156.4 153.1 L 157.2 153.1 L 157.2 155.5 L 160.1 155.5 L 160.1 153.1 L 160.9 153.1 L 160.9 158.8 L 160.1 158.8 L 160.1 156.2 L 157.2 156.2 L 157.2 158.8 L 156.4 158.8 L 156.4 153.1 " fill="#FF0000"/>
<path class="atom-39" d="M 162.1 155.9 Q 162.1 154.6, 162.8 153.8 Q 163.5 153.0, 164.7 153.0 Q 166.0 153.0, 166.7 153.8 Q 167.4 154.6, 167.4 155.9 Q 167.4 157.3, 166.7 158.1 Q 166.0 158.9, 164.7 158.9 Q 163.5 158.9, 162.8 158.1 Q 162.1 157.4, 162.1 155.9 M 164.7 158.3 Q 165.6 158.3, 166.1 157.7 Q 166.6 157.1, 166.6 155.9 Q 166.6 154.8, 166.1 154.2 Q 165.6 153.7, 164.7 153.7 Q 163.9 153.7, 163.4 154.2 Q 162.9 154.8, 162.9 155.9 Q 162.9 157.1, 163.4 157.7 Q 163.9 158.3, 164.7 158.3 " fill="#FF0000"/>
<path class="atom-41" d="M 253.9 88.0 Q 253.9 86.6, 254.6 85.8 Q 255.2 85.1, 256.5 85.1 Q 257.8 85.1, 258.5 85.8 Q 259.2 86.6, 259.2 88.0 Q 259.2 89.4, 258.5 90.2 Q 257.8 91.0, 256.5 91.0 Q 255.2 91.0, 254.6 90.2 Q 253.9 89.4, 253.9 88.0 M 256.5 90.3 Q 257.4 90.3, 257.9 89.8 Q 258.4 89.2, 258.4 88.0 Q 258.4 86.9, 257.9 86.3 Q 257.4 85.7, 256.5 85.7 Q 255.6 85.7, 255.2 86.3 Q 254.7 86.9, 254.7 88.0 Q 254.7 89.2, 255.2 89.8 Q 255.6 90.3, 256.5 90.3 " fill="#FF0000"/>
<path class="atom-42" d="M 220.7 107.3 L 221.5 107.3 L 221.5 109.7 L 224.4 109.7 L 224.4 107.3 L 225.2 107.3 L 225.2 113.1 L 224.4 113.1 L 224.4 110.4 L 221.5 110.4 L 221.5 113.1 L 220.7 113.1 L 220.7 107.3 " fill="#FF0000"/>
<path class="atom-42" d="M 226.4 110.2 Q 226.4 108.8, 227.1 108.0 Q 227.8 107.2, 229.0 107.2 Q 230.3 107.2, 231.0 108.0 Q 231.7 108.8, 231.7 110.2 Q 231.7 111.6, 231.0 112.4 Q 230.3 113.2, 229.0 113.2 Q 227.8 113.2, 227.1 112.4 Q 226.4 111.6, 226.4 110.2 M 229.0 112.5 Q 229.9 112.5, 230.4 111.9 Q 230.9 111.3, 230.9 110.2 Q 230.9 109.0, 230.4 108.5 Q 229.9 107.9, 229.0 107.9 Q 228.2 107.9, 227.7 108.5 Q 227.2 109.0, 227.2 110.2 Q 227.2 111.3, 227.7 111.9 Q 228.2 112.5, 229.0 112.5 " fill="#FF0000"/>
<path class="atom-44" d="M 333.6 57.0 Q 333.6 55.6, 334.2 54.8 Q 334.9 54.0, 336.2 54.0 Q 337.5 54.0, 338.2 54.8 Q 338.9 55.6, 338.9 57.0 Q 338.9 58.4, 338.2 59.2 Q 337.5 59.9, 336.2 59.9 Q 334.9 59.9, 334.2 59.2 Q 333.6 58.4, 333.6 57.0 M 336.2 59.3 Q 337.1 59.3, 337.6 58.7 Q 338.0 58.1, 338.0 57.0 Q 338.0 55.8, 337.6 55.2 Q 337.1 54.7, 336.2 54.7 Q 335.3 54.7, 334.8 55.2 Q 334.4 55.8, 334.4 57.0 Q 334.4 58.1, 334.8 58.7 Q 335.3 59.3, 336.2 59.3 " fill="#FF0000"/>
<path class="atom-45" d="M 300.4 76.2 L 301.2 76.2 L 301.2 78.7 L 304.1 78.7 L 304.1 76.2 L 304.9 76.2 L 304.9 82.0 L 304.1 82.0 L 304.1 79.3 L 301.2 79.3 L 301.2 82.0 L 300.4 82.0 L 300.4 76.2 " fill="#FF0000"/>
<path class="atom-45" d="M 306.1 79.1 Q 306.1 77.7, 306.8 76.9 Q 307.4 76.2, 308.7 76.2 Q 310.0 76.2, 310.7 76.9 Q 311.4 77.7, 311.4 79.1 Q 311.4 80.5, 310.7 81.3 Q 310.0 82.1, 308.7 82.1 Q 307.4 82.1, 306.8 81.3 Q 306.1 80.5, 306.1 79.1 M 308.7 81.4 Q 309.6 81.4, 310.1 80.9 Q 310.6 80.3, 310.6 79.1 Q 310.6 78.0, 310.1 77.4 Q 309.6 76.8, 308.7 76.8 Q 307.8 76.8, 307.4 77.4 Q 306.9 78.0, 306.9 79.1 Q 306.9 80.3, 307.4 80.9 Q 307.8 81.4, 308.7 81.4 " fill="#FF0000"/>
</svg>
