<?xml version='1.0' encoding='ASCII' standalone='yes'?>
<svg xmlns="http://www.w3.org/2000/svg" xmlns:rdkit="http://www.rdkit.org/xml" xmlns:xlink="http://www.w3.org/1999/xlink" version="1.1" baseProfile="full" xml:space="preserve" width="359px" height="200px" viewBox="0 0 359 200">
<!-- END OF HEADER -->
<rect style="opacity:1.0;fill:#FFFFFF;stroke:none" width="359.0" height="200.0" x="0.0" y="0.0"> </rect>
<path class="bond-0 atom-0 atom-1" d="M 340.9,71.9 L 331.7,77.2" style="fill:none;fill-rule:evenodd;stroke:#000000;stroke-width:2.0px;stroke-linecap:butt;stroke-linejoin:miter;stroke-opacity:1"/>
<path class="bond-1 atom-1 atom-2" d="M 331.7,77.2 L 322.5,71.9" style="fill:none;fill-rule:evenodd;stroke:#000000;stroke-width:2.0px;stroke-linecap:butt;stroke-linejoin:miter;stroke-opacity:1"/>
<path class="bond-2 atom-2 atom-3" d="M 322.5,71.9 L 313.3,77.3" style="fill:none;fill-rule:evenodd;stroke:#000000;stroke-width:2.0px;stroke-linecap:butt;stroke-linejoin:miter;stroke-opacity:1"/>
<path class="bond-3 atom-3 atom-4" d="M 313.3,77.3 L 304.0,72.0" style="fill:none;fill-rule:evenodd;stroke:#000000;stroke-width:2.0px;stroke-linecap:butt;stroke-linejoin:miter;stroke-opacity:1"/>
<path class="bond-4 atom-4 atom-5" d="M 304.0,72.0 L 294.8,77.3" style="fill:none;fill-rule:evenodd;stroke:#000000;stroke-width:2.0px;stroke-linecap:butt;stroke-linejoin:miter;stroke-opacity:1"/>
<path class="bond-5 atom-5 atom-6" d="M 294.8,77.3 L 285.6,72.0" style="fill:none;fill-rule:evenodd;stroke:#000000;stroke-width:2.0px;stroke-linecap:butt;stroke-linejoin:miter;stroke-opacity:1"/>
<path class="bond-6 atom-6 atom-7" d="M 285.6,72.0 L 276.4,77.4" style="fill:none;fill-rule:evenodd;stroke:#000000;stroke-width:2.0px;stroke-linecap:butt;stroke-linejoin:miter;stroke-opacity:1"/>
<path class="bond-6 atom-6 atom-7" d="M 285.6,73.9 L 277.2,78.8" style="fill:none;fill-rule:evenodd;stroke:#000000;stroke-width:2.0px;stroke-linecap:butt;stroke-linejoin:miter;stroke-opacity:1"/>
<path class="bond-7 atom-7 atom-8" d="M 276.4,77.4 L 267.1,72.1" style="fill:none;fill-rule:evenodd;stroke:#000000;stroke-width:2.0px;stroke-linecap:butt;stroke-linejoin:miter;stroke-opacity:1"/>
<path class="bond-8 atom-8 atom-9" d="M 267.1,72.1 L 257.9,77.4" style="fill:none;fill-rule:evenodd;stroke:#000000;stroke-width:2.0px;stroke-linecap:butt;stroke-linejoin:miter;stroke-opacity:1"/>
<path class="bond-9 atom-9 atom-10" d="M 257.9,77.4 L 248.7,72.1" style="fill:none;fill-rule:evenodd;stroke:#000000;stroke-width:2.0px;stroke-linecap:butt;stroke-linejoin:miter;stroke-opacity:1"/>
<path class="bond-10 atom-10 atom-11" d="M 248.7,72.1 L 239.4,77.5" style="fill:none;fill-rule:evenodd;stroke:#000000;stroke-width:2.0px;stroke-linecap:butt;stroke-linejoin:miter;stroke-opacity:1"/>
<path class="bond-11 atom-11 atom-12" d="M 239.4,77.5 L 230.2,72.2" style="fill:none;fill-rule:evenodd;stroke:#000000;stroke-width:2.0px;stroke-linecap:butt;stroke-linejoin:miter;stroke-opacity:1"/>
<path class="bond-12 atom-12 atom-13" d="M 230.2,72.2 L 221.0,77.5" style="fill:none;fill-rule:evenodd;stroke:#000000;stroke-width:2.0px;stroke-linecap:butt;stroke-linejoin:miter;stroke-opacity:1"/>
<path class="bond-13 atom-13 atom-14" d="M 221.0,77.5 L 211.7,72.2" style="fill:none;fill-rule:evenodd;stroke:#000000;stroke-width:2.0px;stroke-linecap:butt;stroke-linejoin:miter;stroke-opacity:1"/>
<path class="bond-14 atom-14 atom-15" d="M 211.7,72.2 L 202.5,77.6" style="fill:none;fill-rule:evenodd;stroke:#000000;stroke-width:2.0px;stroke-linecap:butt;stroke-linejoin:miter;stroke-opacity:1"/>
<path class="bond-15 atom-15 atom-16" d="M 201.7,77.1 L 201.7,81.4" style="fill:none;fill-rule:evenodd;stroke:#000000;stroke-width:2.0px;stroke-linecap:butt;stroke-linejoin:miter;stroke-opacity:1"/>
<path class="bond-15 atom-15 atom-16" d="M 201.7,81.4 L 201.8,85.7" style="fill:none;fill-rule:evenodd;stroke:#FF0000;stroke-width:2.0px;stroke-linecap:butt;stroke-linejoin:miter;stroke-opacity:1"/>
<path class="bond-15 atom-15 atom-16" d="M 203.3,77.1 L 203.3,81.4" style="fill:none;fill-rule:evenodd;stroke:#000000;stroke-width:2.0px;stroke-linecap:butt;stroke-linejoin:miter;stroke-opacity:1"/>
<path class="bond-15 atom-15 atom-16" d="M 203.3,81.4 L 203.4,85.7" style="fill:none;fill-rule:evenodd;stroke:#FF0000;stroke-width:2.0px;stroke-linecap:butt;stroke-linejoin:miter;stroke-opacity:1"/>
<path class="bond-16 atom-15 atom-17" d="M 202.5,77.6 L 199.1,75.6" style="fill:none;fill-rule:evenodd;stroke:#000000;stroke-width:2.0px;stroke-linecap:butt;stroke-linejoin:miter;stroke-opacity:1"/>
<path class="bond-16 atom-15 atom-17" d="M 199.1,75.6 L 195.6,73.6" style="fill:none;fill-rule:evenodd;stroke:#FF0000;stroke-width:2.0px;stroke-linecap:butt;stroke-linejoin:miter;stroke-opacity:1"/>
<path class="bond-17 atom-17 atom-18" d="M 191.0,73.6 L 187.5,75.6" style="fill:none;fill-rule:evenodd;stroke:#FF0000;stroke-width:2.0px;stroke-linecap:butt;stroke-linejoin:miter;stroke-opacity:1"/>
<path class="bond-17 atom-17 atom-18" d="M 187.5,75.6 L 184.1,77.6" style="fill:none;fill-rule:evenodd;stroke:#000000;stroke-width:2.0px;stroke-linecap:butt;stroke-linejoin:miter;stroke-opacity:1"/>
<path class="bond-18 atom-18 atom-19" d="M 184.1,77.6 L 174.8,72.3" style="fill:none;fill-rule:evenodd;stroke:#000000;stroke-width:2.0px;stroke-linecap:butt;stroke-linejoin:miter;stroke-opacity:1"/>
<path class="bond-19 atom-19 atom-20" d="M 174.8,72.3 L 171.4,74.3" style="fill:none;fill-rule:evenodd;stroke:#000000;stroke-width:2.0px;stroke-linecap:butt;stroke-linejoin:miter;stroke-opacity:1"/>
<path class="bond-19 atom-19 atom-20" d="M 171.4,74.3 L 167.9,76.3" style="fill:none;fill-rule:evenodd;stroke:#FF0000;stroke-width:2.0px;stroke-linecap:butt;stroke-linejoin:miter;stroke-opacity:1"/>
<path class="bond-20 atom-20 atom-21" d="M 163.3,76.3 L 159.8,74.3" style="fill:none;fill-rule:evenodd;stroke:#FF0000;stroke-width:2.0px;stroke-linecap:butt;stroke-linejoin:miter;stroke-opacity:1"/>
<path class="bond-20 atom-20 atom-21" d="M 159.8,74.3 L 156.4,72.4" style="fill:none;fill-rule:evenodd;stroke:#000000;stroke-width:2.0px;stroke-linecap:butt;stroke-linejoin:miter;stroke-opacity:1"/>
<path class="bond-21 atom-21 atom-22" d="M 157.2,72.8 L 157.2,68.5" style="fill:none;fill-rule:evenodd;stroke:#000000;stroke-width:2.0px;stroke-linecap:butt;stroke-linejoin:miter;stroke-opacity:1"/>
<path class="bond-21 atom-21 atom-22" d="M 157.2,68.5 L 157.1,64.3" style="fill:none;fill-rule:evenodd;stroke:#FF0000;stroke-width:2.0px;stroke-linecap:butt;stroke-linejoin:miter;stroke-opacity:1"/>
<path class="bond-21 atom-21 atom-22" d="M 155.6,72.8 L 155.6,68.5" style="fill:none;fill-rule:evenodd;stroke:#000000;stroke-width:2.0px;stroke-linecap:butt;stroke-linejoin:miter;stroke-opacity:1"/>
<path class="bond-21 atom-21 atom-22" d="M 155.6,68.5 L 155.6,64.3" style="fill:none;fill-rule:evenodd;stroke:#FF0000;stroke-width:2.0px;stroke-linecap:butt;stroke-linejoin:miter;stroke-opacity:1"/>
<path class="bond-22 atom-21 atom-23" d="M 156.4,72.4 L 147.2,77.7" style="fill:none;fill-rule:evenodd;stroke:#000000;stroke-width:2.0px;stroke-linecap:butt;stroke-linejoin:miter;stroke-opacity:1"/>
<path class="bond-23 atom-23 atom-24" d="M 147.2,77.7 L 137.9,72.4" style="fill:none;fill-rule:evenodd;stroke:#000000;stroke-width:2.0px;stroke-linecap:butt;stroke-linejoin:miter;stroke-opacity:1"/>
<path class="bond-24 atom-24 atom-25" d="M 137.9,72.4 L 128.7,77.8" style="fill:none;fill-rule:evenodd;stroke:#000000;stroke-width:2.0px;stroke-linecap:butt;stroke-linejoin:miter;stroke-opacity:1"/>
<path class="bond-25 atom-25 atom-26" d="M 128.7,77.8 L 119.5,72.5" style="fill:none;fill-rule:evenodd;stroke:#000000;stroke-width:2.0px;stroke-linecap:butt;stroke-linejoin:miter;stroke-opacity:1"/>
<path class="bond-26 atom-26 atom-27" d="M 119.5,72.5 L 110.2,77.8" style="fill:none;fill-rule:evenodd;stroke:#000000;stroke-width:2.0px;stroke-linecap:butt;stroke-linejoin:miter;stroke-opacity:1"/>
<path class="bond-27 atom-27 atom-28" d="M 110.2,77.8 L 101.0,72.5" style="fill:none;fill-rule:evenodd;stroke:#000000;stroke-width:2.0px;stroke-linecap:butt;stroke-linejoin:miter;stroke-opacity:1"/>
<path class="bond-28 atom-28 atom-29" d="M 101.0,72.5 L 91.8,77.9" style="fill:none;fill-rule:evenodd;stroke:#000000;stroke-width:2.0px;stroke-linecap:butt;stroke-linejoin:miter;stroke-opacity:1"/>
<path class="bond-29 atom-29 atom-30" d="M 91.8,77.9 L 82.5,72.6" style="fill:none;fill-rule:evenodd;stroke:#000000;stroke-width:2.0px;stroke-linecap:butt;stroke-linejoin:miter;stroke-opacity:1"/>
<path class="bond-30 atom-30 atom-31" d="M 82.5,72.6 L 73.3,77.9" style="fill:none;fill-rule:evenodd;stroke:#000000;stroke-width:2.0px;stroke-linecap:butt;stroke-linejoin:miter;stroke-opacity:1"/>
<path class="bond-31 atom-31 atom-32" d="M 73.3,77.9 L 64.1,72.6" style="fill:none;fill-rule:evenodd;stroke:#000000;stroke-width:2.0px;stroke-linecap:butt;stroke-linejoin:miter;stroke-opacity:1"/>
<path class="bond-32 atom-32 atom-33" d="M 64.1,72.6 L 54.9,78.0" style="fill:none;fill-rule:evenodd;stroke:#000000;stroke-width:2.0px;stroke-linecap:butt;stroke-linejoin:miter;stroke-opacity:1"/>
<path class="bond-33 atom-33 atom-34" d="M 54.9,78.0 L 45.6,72.6" style="fill:none;fill-rule:evenodd;stroke:#000000;stroke-width:2.0px;stroke-linecap:butt;stroke-linejoin:miter;stroke-opacity:1"/>
<path class="bond-34 atom-34 atom-35" d="M 45.6,72.6 L 36.4,78.0" style="fill:none;fill-rule:evenodd;stroke:#000000;stroke-width:2.0px;stroke-linecap:butt;stroke-linejoin:miter;stroke-opacity:1"/>
<path class="bond-35 atom-35 atom-36" d="M 36.4,78.0 L 27.2,72.7" style="fill:none;fill-rule:evenodd;stroke:#000000;stroke-width:2.0px;stroke-linecap:butt;stroke-linejoin:miter;stroke-opacity:1"/>
<path class="bond-36 atom-36 atom-37" d="M 27.2,72.7 L 17.9,78.0" style="fill:none;fill-rule:evenodd;stroke:#000000;stroke-width:2.0px;stroke-linecap:butt;stroke-linejoin:miter;stroke-opacity:1"/>
<path class="bond-37 atom-18 atom-38" d="M 184.1,77.6 L 184.1,88.3" style="fill:none;fill-rule:evenodd;stroke:#000000;stroke-width:2.0px;stroke-linecap:butt;stroke-linejoin:miter;stroke-opacity:1"/>
<path class="bond-38 atom-38 atom-39" d="M 184.1,88.3 L 180.6,90.3" style="fill:none;fill-rule:evenodd;stroke:#000000;stroke-width:2.0px;stroke-linecap:butt;stroke-linejoin:miter;stroke-opacity:1"/>
<path class="bond-38 atom-38 atom-39" d="M 180.6,90.3 L 177.2,92.3" style="fill:none;fill-rule:evenodd;stroke:#FF0000;stroke-width:2.0px;stroke-linecap:butt;stroke-linejoin:miter;stroke-opacity:1"/>
<path class="bond-39 atom-39 atom-40" d="M 174.9,96.2 L 174.9,99.0" style="fill:none;fill-rule:evenodd;stroke:#FF0000;stroke-width:2.0px;stroke-linecap:butt;stroke-linejoin:miter;stroke-opacity:1"/>
<path class="bond-39 atom-39 atom-40" d="M 174.9,99.0 L 174.9,101.8" style="fill:none;fill-rule:evenodd;stroke:#FF7F00;stroke-width:2.0px;stroke-linecap:butt;stroke-linejoin:miter;stroke-opacity:1"/>
<path class="bond-40 atom-40 atom-41" d="M 173.2,103.5 L 169.9,103.5" style="fill:none;fill-rule:evenodd;stroke:#FF7F00;stroke-width:2.0px;stroke-linecap:butt;stroke-linejoin:miter;stroke-opacity:1"/>
<path class="bond-40 atom-40 atom-41" d="M 169.9,103.5 L 166.6,103.5" style="fill:none;fill-rule:evenodd;stroke:#FF0000;stroke-width:2.0px;stroke-linecap:butt;stroke-linejoin:miter;stroke-opacity:1"/>
<path class="bond-40 atom-40 atom-41" d="M 173.2,105.1 L 169.9,105.1" style="fill:none;fill-rule:evenodd;stroke:#FF7F00;stroke-width:2.0px;stroke-linecap:butt;stroke-linejoin:miter;stroke-opacity:1"/>
<path class="bond-40 atom-40 atom-41" d="M 169.9,105.1 L 166.6,105.1" style="fill:none;fill-rule:evenodd;stroke:#FF0000;stroke-width:2.0px;stroke-linecap:butt;stroke-linejoin:miter;stroke-opacity:1"/>
<path class="bond-41 atom-40 atom-42" d="M 176.6,104.3 L 179.9,104.3" style="fill:none;fill-rule:evenodd;stroke:#FF7F00;stroke-width:2.0px;stroke-linecap:butt;stroke-linejoin:miter;stroke-opacity:1"/>
<path class="bond-41 atom-40 atom-42" d="M 179.9,104.3 L 183.3,104.3" style="fill:none;fill-rule:evenodd;stroke:#FF0000;stroke-width:2.0px;stroke-linecap:butt;stroke-linejoin:miter;stroke-opacity:1"/>
<path class="bond-42 atom-40 atom-43" d="M 174.9,106.8 L 174.9,109.6" style="fill:none;fill-rule:evenodd;stroke:#FF7F00;stroke-width:2.0px;stroke-linecap:butt;stroke-linejoin:miter;stroke-opacity:1"/>
<path class="bond-42 atom-40 atom-43" d="M 174.9,109.6 L 174.9,112.4" style="fill:none;fill-rule:evenodd;stroke:#FF0000;stroke-width:2.0px;stroke-linecap:butt;stroke-linejoin:miter;stroke-opacity:1"/>
<path class="bond-43 atom-43 atom-44" d="M 177.2,116.3 L 180.7,118.2" style="fill:none;fill-rule:evenodd;stroke:#FF0000;stroke-width:2.0px;stroke-linecap:butt;stroke-linejoin:miter;stroke-opacity:1"/>
<path class="bond-43 atom-43 atom-44" d="M 180.7,118.2 L 184.2,120.2" style="fill:none;fill-rule:evenodd;stroke:#000000;stroke-width:2.0px;stroke-linecap:butt;stroke-linejoin:miter;stroke-opacity:1"/>
<path class="bond-44 atom-44 atom-45" d="M 184.2,120.2 L 184.2,130.9" style="fill:none;fill-rule:evenodd;stroke:#000000;stroke-width:2.0px;stroke-linecap:butt;stroke-linejoin:miter;stroke-opacity:1"/>
<path class="bond-45 atom-45 atom-46" d="M 184.2,130.9 L 187.9,133.0" style="fill:none;fill-rule:evenodd;stroke:#000000;stroke-width:2.0px;stroke-linecap:butt;stroke-linejoin:miter;stroke-opacity:1"/>
<path class="bond-45 atom-45 atom-46" d="M 187.9,133.0 L 191.5,135.1" style="fill:none;fill-rule:evenodd;stroke:#0000FF;stroke-width:2.0px;stroke-linecap:butt;stroke-linejoin:miter;stroke-opacity:1"/>
<path d="M 332.2,77.0 L 331.7,77.2 L 331.3,77.0" style="fill:none;stroke:#000000;stroke-width:2.0px;stroke-linecap:butt;stroke-linejoin:miter;stroke-opacity:1;"/>
<path d="M 323.0,72.2 L 322.5,71.9 L 322.0,72.2" style="fill:none;stroke:#000000;stroke-width:2.0px;stroke-linecap:butt;stroke-linejoin:miter;stroke-opacity:1;"/>
<path d="M 313.7,77.0 L 313.3,77.3 L 312.8,77.0" style="fill:none;stroke:#000000;stroke-width:2.0px;stroke-linecap:butt;stroke-linejoin:miter;stroke-opacity:1;"/>
<path d="M 304.5,72.2 L 304.0,72.0 L 303.6,72.2" style="fill:none;stroke:#000000;stroke-width:2.0px;stroke-linecap:butt;stroke-linejoin:miter;stroke-opacity:1;"/>
<path d="M 295.3,77.1 L 294.8,77.3 L 294.4,77.1" style="fill:none;stroke:#000000;stroke-width:2.0px;stroke-linecap:butt;stroke-linejoin:miter;stroke-opacity:1;"/>
<path d="M 286.0,72.3 L 285.6,72.0 L 285.1,72.3" style="fill:none;stroke:#000000;stroke-width:2.0px;stroke-linecap:butt;stroke-linejoin:miter;stroke-opacity:1;"/>
<path d="M 276.8,77.1 L 276.4,77.4 L 275.9,77.1" style="fill:none;stroke:#000000;stroke-width:2.0px;stroke-linecap:butt;stroke-linejoin:miter;stroke-opacity:1;"/>
<path d="M 267.6,72.3 L 267.1,72.1 L 266.7,72.3" style="fill:none;stroke:#000000;stroke-width:2.0px;stroke-linecap:butt;stroke-linejoin:miter;stroke-opacity:1;"/>
<path d="M 258.4,77.2 L 257.9,77.4 L 257.4,77.2" style="fill:none;stroke:#000000;stroke-width:2.0px;stroke-linecap:butt;stroke-linejoin:miter;stroke-opacity:1;"/>
<path d="M 249.1,72.4 L 248.7,72.1 L 248.2,72.4" style="fill:none;stroke:#000000;stroke-width:2.0px;stroke-linecap:butt;stroke-linejoin:miter;stroke-opacity:1;"/>
<path d="M 239.9,77.2 L 239.4,77.5 L 239.0,77.2" style="fill:none;stroke:#000000;stroke-width:2.0px;stroke-linecap:butt;stroke-linejoin:miter;stroke-opacity:1;"/>
<path d="M 230.7,72.4 L 230.2,72.2 L 229.7,72.4" style="fill:none;stroke:#000000;stroke-width:2.0px;stroke-linecap:butt;stroke-linejoin:miter;stroke-opacity:1;"/>
<path d="M 221.4,77.2 L 221.0,77.5 L 220.5,77.3" style="fill:none;stroke:#000000;stroke-width:2.0px;stroke-linecap:butt;stroke-linejoin:miter;stroke-opacity:1;"/>
<path d="M 212.2,72.5 L 211.7,72.2 L 211.3,72.5" style="fill:none;stroke:#000000;stroke-width:2.0px;stroke-linecap:butt;stroke-linejoin:miter;stroke-opacity:1;"/>
<path d="M 203.0,77.3 L 202.5,77.6 L 202.4,77.5" style="fill:none;stroke:#000000;stroke-width:2.0px;stroke-linecap:butt;stroke-linejoin:miter;stroke-opacity:1;"/>
<path d="M 175.3,72.6 L 174.8,72.3 L 174.7,72.4" style="fill:none;stroke:#000000;stroke-width:2.0px;stroke-linecap:butt;stroke-linejoin:miter;stroke-opacity:1;"/>
<path d="M 156.5,72.5 L 156.4,72.4 L 155.9,72.6" style="fill:none;stroke:#000000;stroke-width:2.0px;stroke-linecap:butt;stroke-linejoin:miter;stroke-opacity:1;"/>
<path d="M 147.6,77.4 L 147.2,77.7 L 146.7,77.4" style="fill:none;stroke:#000000;stroke-width:2.0px;stroke-linecap:butt;stroke-linejoin:miter;stroke-opacity:1;"/>
<path d="M 138.4,72.7 L 137.9,72.4 L 137.5,72.7" style="fill:none;stroke:#000000;stroke-width:2.0px;stroke-linecap:butt;stroke-linejoin:miter;stroke-opacity:1;"/>
<path d="M 129.2,77.5 L 128.7,77.8 L 128.2,77.5" style="fill:none;stroke:#000000;stroke-width:2.0px;stroke-linecap:butt;stroke-linejoin:miter;stroke-opacity:1;"/>
<path d="M 119.9,72.7 L 119.5,72.5 L 119.0,72.7" style="fill:none;stroke:#000000;stroke-width:2.0px;stroke-linecap:butt;stroke-linejoin:miter;stroke-opacity:1;"/>
<path d="M 110.7,77.5 L 110.2,77.8 L 109.8,77.5" style="fill:none;stroke:#000000;stroke-width:2.0px;stroke-linecap:butt;stroke-linejoin:miter;stroke-opacity:1;"/>
<path d="M 101.5,72.8 L 101.0,72.5 L 100.5,72.8" style="fill:none;stroke:#000000;stroke-width:2.0px;stroke-linecap:butt;stroke-linejoin:miter;stroke-opacity:1;"/>
<path d="M 92.2,77.6 L 91.8,77.9 L 91.3,77.6" style="fill:none;stroke:#000000;stroke-width:2.0px;stroke-linecap:butt;stroke-linejoin:miter;stroke-opacity:1;"/>
<path d="M 83.0,72.8 L 82.5,72.6 L 82.1,72.8" style="fill:none;stroke:#000000;stroke-width:2.0px;stroke-linecap:butt;stroke-linejoin:miter;stroke-opacity:1;"/>
<path d="M 73.8,77.6 L 73.3,77.9 L 72.9,77.6" style="fill:none;stroke:#000000;stroke-width:2.0px;stroke-linecap:butt;stroke-linejoin:miter;stroke-opacity:1;"/>
<path d="M 64.5,72.9 L 64.1,72.6 L 63.6,72.9" style="fill:none;stroke:#000000;stroke-width:2.0px;stroke-linecap:butt;stroke-linejoin:miter;stroke-opacity:1;"/>
<path d="M 55.3,77.7 L 54.9,78.0 L 54.4,77.7" style="fill:none;stroke:#000000;stroke-width:2.0px;stroke-linecap:butt;stroke-linejoin:miter;stroke-opacity:1;"/>
<path d="M 46.1,72.9 L 45.6,72.6 L 45.2,72.9" style="fill:none;stroke:#000000;stroke-width:2.0px;stroke-linecap:butt;stroke-linejoin:miter;stroke-opacity:1;"/>
<path d="M 36.9,77.7 L 36.4,78.0 L 35.9,77.7" style="fill:none;stroke:#000000;stroke-width:2.0px;stroke-linecap:butt;stroke-linejoin:miter;stroke-opacity:1;"/>
<path d="M 27.6,73.0 L 27.2,72.7 L 26.7,73.0" style="fill:none;stroke:#000000;stroke-width:2.0px;stroke-linecap:butt;stroke-linejoin:miter;stroke-opacity:1;"/>
<path d="M 184.1,87.7 L 184.1,88.3 L 183.9,88.4" style="fill:none;stroke:#000000;stroke-width:2.0px;stroke-linecap:butt;stroke-linejoin:miter;stroke-opacity:1;"/>
<path d="M 184.0,120.1 L 184.2,120.2 L 184.2,120.8" style="fill:none;stroke:#000000;stroke-width:2.0px;stroke-linecap:butt;stroke-linejoin:miter;stroke-opacity:1;"/>
<path d="M 184.2,130.4 L 184.2,130.9 L 184.4,131.0" style="fill:none;stroke:#000000;stroke-width:2.0px;stroke-linecap:butt;stroke-linejoin:miter;stroke-opacity:1;"/>
<path class="atom-16" d="M 200.6 88.2 Q 200.6 87.2, 201.1 86.6 Q 201.6 86.1, 202.6 86.1 Q 203.5 86.1, 204.0 86.6 Q 204.5 87.2, 204.5 88.2 Q 204.5 89.3, 204.0 89.9 Q 203.5 90.4, 202.6 90.4 Q 201.6 90.4, 201.1 89.9 Q 200.6 89.3, 200.6 88.2 M 202.6 90.0 Q 203.2 90.0, 203.6 89.5 Q 203.9 89.1, 203.9 88.2 Q 203.9 87.4, 203.6 87.0 Q 203.2 86.6, 202.6 86.6 Q 201.9 86.6, 201.6 87.0 Q 201.2 87.4, 201.2 88.2 Q 201.2 89.1, 201.6 89.5 Q 201.9 90.0, 202.6 90.0 " fill="#FF0000"/>
<path class="atom-17" d="M 191.3 72.3 Q 191.3 71.3, 191.8 70.7 Q 192.3 70.1, 193.3 70.1 Q 194.2 70.1, 194.7 70.7 Q 195.2 71.3, 195.2 72.3 Q 195.2 73.3, 194.7 73.9 Q 194.2 74.5, 193.3 74.5 Q 192.4 74.5, 191.8 73.9 Q 191.3 73.3, 191.3 72.3 M 193.3 74.0 Q 193.9 74.0, 194.3 73.6 Q 194.6 73.1, 194.6 72.3 Q 194.6 71.4, 194.3 71.0 Q 193.9 70.6, 193.3 70.6 Q 192.6 70.6, 192.3 71.0 Q 191.9 71.4, 191.9 72.3 Q 191.9 73.1, 192.3 73.6 Q 192.6 74.0, 193.3 74.0 " fill="#FF0000"/>
<path class="atom-20" d="M 163.7 77.7 Q 163.7 76.7, 164.2 76.1 Q 164.7 75.5, 165.6 75.5 Q 166.6 75.5, 167.1 76.1 Q 167.6 76.7, 167.6 77.7 Q 167.6 78.7, 167.1 79.3 Q 166.5 79.9, 165.6 79.9 Q 164.7 79.9, 164.2 79.3 Q 163.7 78.7, 163.7 77.7 M 165.6 79.4 Q 166.3 79.4, 166.6 79.0 Q 167.0 78.5, 167.0 77.7 Q 167.0 76.8, 166.6 76.4 Q 166.3 76.0, 165.6 76.0 Q 165.0 76.0, 164.6 76.4 Q 164.3 76.8, 164.3 77.7 Q 164.3 78.5, 164.6 79.0 Q 165.0 79.4, 165.6 79.4 " fill="#FF0000"/>
<path class="atom-22" d="M 154.4 61.7 Q 154.4 60.7, 154.9 60.1 Q 155.4 59.6, 156.3 59.6 Q 157.3 59.6, 157.8 60.1 Q 158.3 60.7, 158.3 61.7 Q 158.3 62.7, 157.8 63.3 Q 157.3 63.9, 156.3 63.9 Q 155.4 63.9, 154.9 63.3 Q 154.4 62.8, 154.4 61.7 M 156.3 63.4 Q 157.0 63.4, 157.3 63.0 Q 157.7 62.6, 157.7 61.7 Q 157.7 60.9, 157.3 60.5 Q 157.0 60.0, 156.3 60.0 Q 155.7 60.0, 155.3 60.5 Q 155.0 60.9, 155.0 61.7 Q 155.0 62.6, 155.3 63.0 Q 155.7 63.4, 156.3 63.4 " fill="#FF0000"/>
<path class="atom-39" d="M 172.9 93.6 Q 172.9 92.6, 173.4 92.0 Q 173.9 91.5, 174.9 91.5 Q 175.8 91.5, 176.3 92.0 Q 176.8 92.6, 176.8 93.6 Q 176.8 94.7, 176.3 95.3 Q 175.8 95.8, 174.9 95.8 Q 173.9 95.8, 173.4 95.3 Q 172.9 94.7, 172.9 93.6 M 174.9 95.4 Q 175.5 95.4, 175.9 94.9 Q 176.2 94.5, 176.2 93.6 Q 176.2 92.8, 175.9 92.4 Q 175.5 92.0, 174.9 92.0 Q 174.2 92.0, 173.9 92.4 Q 173.5 92.8, 173.5 93.6 Q 173.5 94.5, 173.9 94.9 Q 174.2 95.4, 174.9 95.4 " fill="#FF0000"/>
<path class="atom-40" d="M 174.8 102.2 Q 175.5 102.2, 175.9 102.5 Q 176.3 102.8, 176.3 103.4 Q 176.3 104.0, 175.9 104.3 Q 175.5 104.7, 174.8 104.7 L 174.1 104.7 L 174.1 106.4 L 173.6 106.4 L 173.6 102.2 L 174.8 102.2 M 174.8 104.2 Q 175.2 104.2, 175.4 104.0 Q 175.7 103.8, 175.7 103.4 Q 175.7 103.0, 175.4 102.8 Q 175.2 102.6, 174.8 102.6 L 174.1 102.6 L 174.1 104.2 L 174.8 104.2 " fill="#FF7F00"/>
<path class="atom-41" d="M 162.3 104.3 Q 162.3 103.3, 162.8 102.7 Q 163.3 102.2, 164.3 102.2 Q 165.2 102.2, 165.7 102.7 Q 166.2 103.3, 166.2 104.3 Q 166.2 105.4, 165.7 105.9 Q 165.2 106.5, 164.3 106.5 Q 163.3 106.5, 162.8 105.9 Q 162.3 105.4, 162.3 104.3 M 164.3 106.0 Q 164.9 106.0, 165.3 105.6 Q 165.6 105.2, 165.6 104.3 Q 165.6 103.5, 165.3 103.1 Q 164.9 102.6, 164.3 102.6 Q 163.6 102.6, 163.3 103.1 Q 162.9 103.5, 162.9 104.3 Q 162.9 105.2, 163.3 105.6 Q 163.6 106.0, 164.3 106.0 " fill="#FF0000"/>
<path class="atom-42" d="M 183.6 104.3 Q 183.6 103.2, 184.1 102.7 Q 184.6 102.1, 185.6 102.1 Q 186.5 102.1, 187.0 102.7 Q 187.5 103.2, 187.5 104.3 Q 187.5 105.3, 187.0 105.9 Q 186.5 106.5, 185.6 106.5 Q 184.6 106.5, 184.1 105.9 Q 183.6 105.3, 183.6 104.3 M 185.6 106.0 Q 186.2 106.0, 186.6 105.6 Q 186.9 105.1, 186.9 104.3 Q 186.9 103.4, 186.6 103.0 Q 186.2 102.6, 185.6 102.6 Q 184.9 102.6, 184.6 103.0 Q 184.2 103.4, 184.2 104.3 Q 184.2 105.1, 184.6 105.6 Q 184.9 106.0, 185.6 106.0 " fill="#FF0000"/>
<path class="atom-42" d="M 188.2 102.2 L 188.8 102.2 L 188.8 104.0 L 190.9 104.0 L 190.9 102.2 L 191.5 102.2 L 191.5 106.4 L 190.9 106.4 L 190.9 104.4 L 188.8 104.4 L 188.8 106.4 L 188.2 106.4 L 188.2 102.2 " fill="#FF0000"/>
<path class="atom-43" d="M 173.0 114.9 Q 173.0 113.9, 173.5 113.4 Q 174.0 112.8, 174.9 112.8 Q 175.9 112.8, 176.4 113.4 Q 176.9 113.9, 176.9 114.9 Q 176.9 116.0, 176.4 116.6 Q 175.9 117.1, 174.9 117.1 Q 174.0 117.1, 173.5 116.6 Q 173.0 116.0, 173.0 114.9 M 174.9 116.7 Q 175.6 116.7, 175.9 116.2 Q 176.3 115.8, 176.3 114.9 Q 176.3 114.1, 175.9 113.7 Q 175.6 113.3, 174.9 113.3 Q 174.3 113.3, 173.9 113.7 Q 173.6 114.1, 173.6 114.9 Q 173.6 115.8, 173.9 116.2 Q 174.3 116.7, 174.9 116.7 " fill="#FF0000"/>
<path class="atom-46" d="M 192.5 134.1 L 193.9 136.3 Q 194.0 136.5, 194.3 136.9 Q 194.5 137.4, 194.5 137.4 L 194.5 134.1 L 195.1 134.1 L 195.1 138.3 L 194.5 138.3 L 193.0 135.9 Q 192.8 135.6, 192.6 135.2 Q 192.4 134.9, 192.4 134.8 L 192.4 138.3 L 191.8 138.3 L 191.8 134.1 L 192.5 134.1 " fill="#0000FF"/>
<path class="atom-46" d="M 195.9 134.1 L 196.5 134.1 L 196.5 135.9 L 198.6 135.9 L 198.6 134.1 L 199.2 134.1 L 199.2 138.3 L 198.6 138.3 L 198.6 136.4 L 196.5 136.4 L 196.5 138.3 L 195.9 138.3 L 195.9 134.1 " fill="#0000FF"/>
<path class="atom-46" d="M 200.0 138.2 Q 200.1 137.9, 200.4 137.8 Q 200.6 137.6, 201.0 137.6 Q 201.4 137.6, 201.6 137.8 Q 201.9 138.1, 201.9 138.5 Q 201.9 138.9, 201.6 139.3 Q 201.3 139.7, 200.6 140.1 L 201.9 140.1 L 201.9 140.4 L 200.0 140.4 L 200.0 140.2 Q 200.5 139.8, 200.9 139.5 Q 201.2 139.3, 201.3 139.0 Q 201.5 138.8, 201.5 138.5 Q 201.5 138.2, 201.3 138.1 Q 201.2 137.9, 201.0 137.9 Q 200.7 137.9, 200.6 138.0 Q 200.4 138.1, 200.3 138.3 L 200.0 138.2 " fill="#0000FF"/>
</svg>
