<?xml version='1.0' encoding='ASCII' standalone='yes'?>
<svg xmlns="http://www.w3.org/2000/svg" xmlns:rdkit="http://www.rdkit.org/xml" xmlns:xlink="http://www.w3.org/1999/xlink" version="1.1" baseProfile="full" xml:space="preserve" width="326px" height="200px" viewBox="0 0 326 200">
<!-- END OF HEADER -->
<rect style="opacity:1.0;fill:#FFFFFF;stroke:none" width="326.0" height="200.0" x="0.0" y="0.0"> </rect>
<path class="bond-0 atom-0 atom-1" d="M 64.1,23.7 L 94.5,25.8" style="fill:none;fill-rule:evenodd;stroke:#000000;stroke-width:2.0px;stroke-linecap:butt;stroke-linejoin:miter;stroke-opacity:1"/>
<path class="bond-1 atom-1 atom-2" d="M 94.5,25.8 L 107.8,53.2" style="fill:none;fill-rule:evenodd;stroke:#000000;stroke-width:2.0px;stroke-linecap:butt;stroke-linejoin:miter;stroke-opacity:1"/>
<path class="bond-2 atom-2 atom-3" d="M 107.8,53.2 L 138.2,55.3" style="fill:none;fill-rule:evenodd;stroke:#000000;stroke-width:2.0px;stroke-linecap:butt;stroke-linejoin:miter;stroke-opacity:1"/>
<path class="bond-3 atom-3 atom-4" d="M 138.2,55.3 L 151.5,82.7" style="fill:none;fill-rule:evenodd;stroke:#000000;stroke-width:2.0px;stroke-linecap:butt;stroke-linejoin:miter;stroke-opacity:1"/>
<path class="bond-4 atom-4 atom-5" d="M 151.5,82.7 L 181.9,84.9" style="fill:none;fill-rule:evenodd;stroke:#000000;stroke-width:2.0px;stroke-linecap:butt;stroke-linejoin:miter;stroke-opacity:1"/>
<path class="bond-5 atom-5 atom-6" d="M 181.9,84.9 L 195.3,112.3" style="fill:none;fill-rule:evenodd;stroke:#000000;stroke-width:2.0px;stroke-linecap:butt;stroke-linejoin:miter;stroke-opacity:1"/>
<path class="bond-6 atom-6 atom-7" d="M 195.3,112.3 L 225.6,114.4" style="fill:none;fill-rule:evenodd;stroke:#000000;stroke-width:2.0px;stroke-linecap:butt;stroke-linejoin:miter;stroke-opacity:1"/>
<path class="bond-7 atom-7 atom-8" d="M 225.6,114.4 L 239.0,141.8" style="fill:none;fill-rule:evenodd;stroke:#000000;stroke-width:2.0px;stroke-linecap:butt;stroke-linejoin:miter;stroke-opacity:1"/>
<path class="bond-8 atom-8 atom-9" d="M 239.0,141.8 L 252.3,169.2" style="fill:none;fill-rule:evenodd;stroke:#000000;stroke-width:2.0px;stroke-linecap:butt;stroke-linejoin:miter;stroke-opacity:1"/>
<path class="bond-9 atom-8 atom-10" d="M 239.0,141.8 L 211.6,155.1" style="fill:none;fill-rule:evenodd;stroke:#000000;stroke-width:2.0px;stroke-linecap:butt;stroke-linejoin:miter;stroke-opacity:1"/>
<path class="bond-10 atom-10 atom-11" d="M 211.6,155.1 L 210.7,167.6" style="fill:none;fill-rule:evenodd;stroke:#000000;stroke-width:2.0px;stroke-linecap:butt;stroke-linejoin:miter;stroke-opacity:1"/>
<path class="bond-10 atom-10 atom-11" d="M 210.7,167.6 L 209.8,180.1" style="fill:none;fill-rule:evenodd;stroke:#FF0000;stroke-width:2.0px;stroke-linecap:butt;stroke-linejoin:miter;stroke-opacity:1"/>
<path class="bond-11 atom-8 atom-12" d="M 239.0,141.8 L 266.3,128.5" style="fill:none;fill-rule:evenodd;stroke:#000000;stroke-width:2.0px;stroke-linecap:butt;stroke-linejoin:miter;stroke-opacity:1"/>
<path class="bond-12 atom-12 atom-13" d="M 268.5,129.9 L 269.5,116.8" style="fill:none;fill-rule:evenodd;stroke:#000000;stroke-width:2.0px;stroke-linecap:butt;stroke-linejoin:miter;stroke-opacity:1"/>
<path class="bond-12 atom-12 atom-13" d="M 269.5,116.8 L 270.4,103.8" style="fill:none;fill-rule:evenodd;stroke:#FF0000;stroke-width:2.0px;stroke-linecap:butt;stroke-linejoin:miter;stroke-opacity:1"/>
<path class="bond-12 atom-12 atom-13" d="M 264.0,129.6 L 264.9,116.5" style="fill:none;fill-rule:evenodd;stroke:#000000;stroke-width:2.0px;stroke-linecap:butt;stroke-linejoin:miter;stroke-opacity:1"/>
<path class="bond-12 atom-12 atom-13" d="M 264.9,116.5 L 265.8,103.4" style="fill:none;fill-rule:evenodd;stroke:#FF0000;stroke-width:2.0px;stroke-linecap:butt;stroke-linejoin:miter;stroke-opacity:1"/>
<path class="bond-13 atom-12 atom-14" d="M 266.3,128.5 L 276.5,135.3" style="fill:none;fill-rule:evenodd;stroke:#000000;stroke-width:2.0px;stroke-linecap:butt;stroke-linejoin:miter;stroke-opacity:1"/>
<path class="bond-13 atom-12 atom-14" d="M 276.5,135.3 L 286.6,142.2" style="fill:none;fill-rule:evenodd;stroke:#FF0000;stroke-width:2.0px;stroke-linecap:butt;stroke-linejoin:miter;stroke-opacity:1"/>
<path class="bond-14 atom-5 atom-15" d="M 181.9,84.9 L 199.0,59.6" style="fill:none;fill-rule:evenodd;stroke:#000000;stroke-width:2.0px;stroke-linecap:butt;stroke-linejoin:miter;stroke-opacity:1"/>
<path class="bond-15 atom-15 atom-16" d="M 199.0,59.6 L 229.4,61.8" style="fill:none;fill-rule:evenodd;stroke:#000000;stroke-width:2.0px;stroke-linecap:butt;stroke-linejoin:miter;stroke-opacity:1"/>
<path class="bond-16 atom-16 atom-17" d="M 229.4,61.8 L 259.7,63.9" style="fill:none;fill-rule:evenodd;stroke:#000000;stroke-width:2.0px;stroke-linecap:butt;stroke-linejoin:miter;stroke-opacity:1"/>
<path class="bond-17 atom-16 atom-18" d="M 229.4,61.8 L 227.2,92.2" style="fill:none;fill-rule:evenodd;stroke:#000000;stroke-width:2.0px;stroke-linecap:butt;stroke-linejoin:miter;stroke-opacity:1"/>
<path class="bond-18 atom-18 atom-19" d="M 227.2,92.2 L 237.3,99.0" style="fill:none;fill-rule:evenodd;stroke:#000000;stroke-width:2.0px;stroke-linecap:butt;stroke-linejoin:miter;stroke-opacity:1"/>
<path class="bond-18 atom-18 atom-19" d="M 237.3,99.0 L 247.5,105.9" style="fill:none;fill-rule:evenodd;stroke:#FF0000;stroke-width:2.0px;stroke-linecap:butt;stroke-linejoin:miter;stroke-opacity:1"/>
<path class="bond-19 atom-16 atom-20" d="M 229.4,61.8 L 231.5,31.4" style="fill:none;fill-rule:evenodd;stroke:#000000;stroke-width:2.0px;stroke-linecap:butt;stroke-linejoin:miter;stroke-opacity:1"/>
<path class="bond-20 atom-20 atom-21" d="M 233.9,30.3 L 223.2,23.0" style="fill:none;fill-rule:evenodd;stroke:#000000;stroke-width:2.0px;stroke-linecap:butt;stroke-linejoin:miter;stroke-opacity:1"/>
<path class="bond-20 atom-20 atom-21" d="M 223.2,23.0 L 212.5,15.8" style="fill:none;fill-rule:evenodd;stroke:#FF0000;stroke-width:2.0px;stroke-linecap:butt;stroke-linejoin:miter;stroke-opacity:1"/>
<path class="bond-20 atom-20 atom-21" d="M 231.3,34.0 L 220.6,26.8" style="fill:none;fill-rule:evenodd;stroke:#000000;stroke-width:2.0px;stroke-linecap:butt;stroke-linejoin:miter;stroke-opacity:1"/>
<path class="bond-20 atom-20 atom-21" d="M 220.6,26.8 L 210.0,19.6" style="fill:none;fill-rule:evenodd;stroke:#FF0000;stroke-width:2.0px;stroke-linecap:butt;stroke-linejoin:miter;stroke-opacity:1"/>
<path class="bond-21 atom-20 atom-22" d="M 231.5,31.4 L 242.7,26.0" style="fill:none;fill-rule:evenodd;stroke:#000000;stroke-width:2.0px;stroke-linecap:butt;stroke-linejoin:miter;stroke-opacity:1"/>
<path class="bond-21 atom-20 atom-22" d="M 242.7,26.0 L 253.9,20.5" style="fill:none;fill-rule:evenodd;stroke:#FF0000;stroke-width:2.0px;stroke-linecap:butt;stroke-linejoin:miter;stroke-opacity:1"/>
<path class="bond-22 atom-2 atom-23" d="M 107.8,53.2 L 90.8,78.4" style="fill:none;fill-rule:evenodd;stroke:#000000;stroke-width:2.0px;stroke-linecap:butt;stroke-linejoin:miter;stroke-opacity:1"/>
<path class="bond-23 atom-23 atom-24" d="M 90.8,78.4 L 104.1,105.8" style="fill:none;fill-rule:evenodd;stroke:#000000;stroke-width:2.0px;stroke-linecap:butt;stroke-linejoin:miter;stroke-opacity:1"/>
<path class="bond-24 atom-24 atom-25" d="M 104.1,105.8 L 87.1,131.0" style="fill:none;fill-rule:evenodd;stroke:#000000;stroke-width:2.0px;stroke-linecap:butt;stroke-linejoin:miter;stroke-opacity:1"/>
<path class="bond-25 atom-25 atom-26" d="M 87.1,131.0 L 70.0,156.3" style="fill:none;fill-rule:evenodd;stroke:#000000;stroke-width:2.0px;stroke-linecap:butt;stroke-linejoin:miter;stroke-opacity:1"/>
<path class="bond-26 atom-25 atom-27" d="M 87.1,131.0 L 61.8,114.0" style="fill:none;fill-rule:evenodd;stroke:#000000;stroke-width:2.0px;stroke-linecap:butt;stroke-linejoin:miter;stroke-opacity:1"/>
<path class="bond-27 atom-27 atom-28" d="M 61.8,114.0 L 50.6,119.4" style="fill:none;fill-rule:evenodd;stroke:#000000;stroke-width:2.0px;stroke-linecap:butt;stroke-linejoin:miter;stroke-opacity:1"/>
<path class="bond-27 atom-27 atom-28" d="M 50.6,119.4 L 39.4,124.9" style="fill:none;fill-rule:evenodd;stroke:#FF0000;stroke-width:2.0px;stroke-linecap:butt;stroke-linejoin:miter;stroke-opacity:1"/>
<path class="bond-28 atom-25 atom-29" d="M 87.1,131.0 L 112.3,148.1" style="fill:none;fill-rule:evenodd;stroke:#000000;stroke-width:2.0px;stroke-linecap:butt;stroke-linejoin:miter;stroke-opacity:1"/>
<path class="bond-29 atom-29 atom-30" d="M 112.1,150.7 L 123.9,145.0" style="fill:none;fill-rule:evenodd;stroke:#000000;stroke-width:2.0px;stroke-linecap:butt;stroke-linejoin:miter;stroke-opacity:1"/>
<path class="bond-29 atom-29 atom-30" d="M 123.9,145.0 L 135.7,139.2" style="fill:none;fill-rule:evenodd;stroke:#FF0000;stroke-width:2.0px;stroke-linecap:butt;stroke-linejoin:miter;stroke-opacity:1"/>
<path class="bond-29 atom-29 atom-30" d="M 110.1,146.6 L 121.9,140.9" style="fill:none;fill-rule:evenodd;stroke:#000000;stroke-width:2.0px;stroke-linecap:butt;stroke-linejoin:miter;stroke-opacity:1"/>
<path class="bond-29 atom-29 atom-30" d="M 121.9,140.9 L 133.7,135.1" style="fill:none;fill-rule:evenodd;stroke:#FF0000;stroke-width:2.0px;stroke-linecap:butt;stroke-linejoin:miter;stroke-opacity:1"/>
<path class="bond-30 atom-29 atom-31" d="M 112.3,148.1 L 111.4,160.6" style="fill:none;fill-rule:evenodd;stroke:#000000;stroke-width:2.0px;stroke-linecap:butt;stroke-linejoin:miter;stroke-opacity:1"/>
<path class="bond-30 atom-29 atom-31" d="M 111.4,160.6 L 110.5,173.1" style="fill:none;fill-rule:evenodd;stroke:#FF0000;stroke-width:2.0px;stroke-linecap:butt;stroke-linejoin:miter;stroke-opacity:1"/>
<path d="M 93.0,25.7 L 94.5,25.8 L 95.2,27.2" style="fill:none;stroke:#000000;stroke-width:2.0px;stroke-linecap:butt;stroke-linejoin:miter;stroke-opacity:1;"/>
<path d="M 136.7,55.2 L 138.2,55.3 L 138.9,56.7" style="fill:none;stroke:#000000;stroke-width:2.0px;stroke-linecap:butt;stroke-linejoin:miter;stroke-opacity:1;"/>
<path d="M 150.9,81.4 L 151.5,82.7 L 153.1,82.8" style="fill:none;stroke:#000000;stroke-width:2.0px;stroke-linecap:butt;stroke-linejoin:miter;stroke-opacity:1;"/>
<path d="M 194.6,110.9 L 195.3,112.3 L 196.8,112.4" style="fill:none;stroke:#000000;stroke-width:2.0px;stroke-linecap:butt;stroke-linejoin:miter;stroke-opacity:1;"/>
<path d="M 224.1,114.3 L 225.6,114.4 L 226.3,115.8" style="fill:none;stroke:#000000;stroke-width:2.0px;stroke-linecap:butt;stroke-linejoin:miter;stroke-opacity:1;"/>
<path d="M 212.9,154.5 L 211.6,155.1 L 211.5,155.8" style="fill:none;stroke:#000000;stroke-width:2.0px;stroke-linecap:butt;stroke-linejoin:miter;stroke-opacity:1;"/>
<path d="M 265.0,129.1 L 266.3,128.5 L 266.9,128.8" style="fill:none;stroke:#000000;stroke-width:2.0px;stroke-linecap:butt;stroke-linejoin:miter;stroke-opacity:1;"/>
<path d="M 198.1,60.9 L 199.0,59.6 L 200.5,59.8" style="fill:none;stroke:#000000;stroke-width:2.0px;stroke-linecap:butt;stroke-linejoin:miter;stroke-opacity:1;"/>
<path d="M 227.3,90.7 L 227.2,92.2 L 227.7,92.5" style="fill:none;stroke:#000000;stroke-width:2.0px;stroke-linecap:butt;stroke-linejoin:miter;stroke-opacity:1;"/>
<path d="M 231.4,32.9 L 231.5,31.4 L 232.1,31.1" style="fill:none;stroke:#000000;stroke-width:2.0px;stroke-linecap:butt;stroke-linejoin:miter;stroke-opacity:1;"/>
<path d="M 91.6,77.2 L 90.8,78.4 L 91.5,79.8" style="fill:none;stroke:#000000;stroke-width:2.0px;stroke-linecap:butt;stroke-linejoin:miter;stroke-opacity:1;"/>
<path d="M 103.4,104.4 L 104.1,105.8 L 103.3,107.1" style="fill:none;stroke:#000000;stroke-width:2.0px;stroke-linecap:butt;stroke-linejoin:miter;stroke-opacity:1;"/>
<path d="M 63.1,114.8 L 61.8,114.0 L 61.3,114.3" style="fill:none;stroke:#000000;stroke-width:2.0px;stroke-linecap:butt;stroke-linejoin:miter;stroke-opacity:1;"/>
<path d="M 111.0,147.2 L 112.3,148.1 L 112.3,148.7" style="fill:none;stroke:#000000;stroke-width:2.0px;stroke-linecap:butt;stroke-linejoin:miter;stroke-opacity:1;"/>
<path class="atom-11" d="M 205.5 185.5 Q 205.5 183.5, 206.5 182.3 Q 207.5 181.1, 209.4 181.1 Q 211.3 181.1, 212.4 182.3 Q 213.4 183.5, 213.4 185.5 Q 213.4 187.6, 212.4 188.8 Q 211.3 190.0, 209.4 190.0 Q 207.5 190.0, 206.5 188.8 Q 205.5 187.6, 205.5 185.5 M 209.4 189.0 Q 210.7 189.0, 211.4 188.1 Q 212.2 187.3, 212.2 185.5 Q 212.2 183.8, 211.4 183.0 Q 210.7 182.1, 209.4 182.1 Q 208.1 182.1, 207.4 183.0 Q 206.7 183.8, 206.7 185.5 Q 206.7 187.3, 207.4 188.1 Q 208.1 189.0, 209.4 189.0 " fill="#FF0000"/>
<path class="atom-11" d="M 214.7 181.2 L 215.9 181.2 L 215.9 184.9 L 220.3 184.9 L 220.3 181.2 L 221.5 181.2 L 221.5 189.9 L 220.3 189.9 L 220.3 185.9 L 215.9 185.9 L 215.9 189.9 L 214.7 189.9 L 214.7 181.2 " fill="#FF0000"/>
<path class="atom-13" d="M 264.5 98.1 Q 264.5 96.0, 265.6 94.9 Q 266.6 93.7, 268.5 93.7 Q 270.4 93.7, 271.4 94.9 Q 272.5 96.0, 272.5 98.1 Q 272.5 100.2, 271.4 101.4 Q 270.4 102.6, 268.5 102.6 Q 266.6 102.6, 265.6 101.4 Q 264.5 100.2, 264.5 98.1 M 268.5 101.6 Q 269.8 101.6, 270.5 100.7 Q 271.2 99.8, 271.2 98.1 Q 271.2 96.4, 270.5 95.6 Q 269.8 94.7, 268.5 94.7 Q 267.2 94.7, 266.5 95.6 Q 265.8 96.4, 265.8 98.1 Q 265.8 99.9, 266.5 100.7 Q 267.2 101.6, 268.5 101.6 " fill="#FF0000"/>
<path class="atom-14" d="M 287.6 145.5 Q 287.6 143.5, 288.6 142.3 Q 289.7 141.2, 291.6 141.2 Q 293.5 141.2, 294.5 142.3 Q 295.5 143.5, 295.5 145.5 Q 295.5 147.6, 294.5 148.8 Q 293.5 150.0, 291.6 150.0 Q 289.7 150.0, 288.6 148.8 Q 287.6 147.7, 287.6 145.5 M 291.6 149.0 Q 292.9 149.0, 293.6 148.2 Q 294.3 147.3, 294.3 145.5 Q 294.3 143.9, 293.6 143.0 Q 292.9 142.1, 291.6 142.1 Q 290.3 142.1, 289.5 143.0 Q 288.8 143.8, 288.8 145.5 Q 288.8 147.3, 289.5 148.2 Q 290.3 149.0, 291.6 149.0 " fill="#FF0000"/>
<path class="atom-14" d="M 296.9 141.3 L 298.1 141.3 L 298.1 144.9 L 302.5 144.9 L 302.5 141.3 L 303.6 141.3 L 303.6 149.9 L 302.5 149.9 L 302.5 145.9 L 298.1 145.9 L 298.1 149.9 L 296.9 149.9 L 296.9 141.3 " fill="#FF0000"/>
<path class="atom-19" d="M 248.5 109.2 Q 248.5 107.2, 249.5 106.0 Q 250.5 104.9, 252.4 104.9 Q 254.4 104.9, 255.4 106.0 Q 256.4 107.2, 256.4 109.2 Q 256.4 111.3, 255.4 112.5 Q 254.3 113.7, 252.4 113.7 Q 250.5 113.7, 249.5 112.5 Q 248.5 111.4, 248.5 109.2 M 252.4 112.7 Q 253.8 112.7, 254.5 111.9 Q 255.2 111.0, 255.2 109.2 Q 255.2 107.6, 254.5 106.7 Q 253.8 105.8, 252.4 105.8 Q 251.1 105.8, 250.4 106.7 Q 249.7 107.5, 249.7 109.2 Q 249.7 111.0, 250.4 111.9 Q 251.1 112.7, 252.4 112.7 " fill="#FF0000"/>
<path class="atom-19" d="M 257.7 105.0 L 258.9 105.0 L 258.9 108.6 L 263.3 108.6 L 263.3 105.0 L 264.5 105.0 L 264.5 113.6 L 263.3 113.6 L 263.3 109.6 L 258.9 109.6 L 258.9 113.6 L 257.7 113.6 L 257.7 105.0 " fill="#FF0000"/>
<path class="atom-21" d="M 202.3 14.4 Q 202.3 12.3, 203.3 11.2 Q 204.4 10.0, 206.3 10.0 Q 208.2 10.0, 209.2 11.2 Q 210.2 12.3, 210.2 14.4 Q 210.2 16.5, 209.2 17.7 Q 208.2 18.9, 206.3 18.9 Q 204.4 18.9, 203.3 17.7 Q 202.3 16.5, 202.3 14.4 M 206.3 17.9 Q 207.6 17.9, 208.3 17.0 Q 209.0 16.1, 209.0 14.4 Q 209.0 12.7, 208.3 11.8 Q 207.6 11.0, 206.3 11.0 Q 205.0 11.0, 204.2 11.8 Q 203.5 12.7, 203.5 14.4 Q 203.5 16.1, 204.2 17.0 Q 205.0 17.9, 206.3 17.9 " fill="#FF0000"/>
<path class="atom-22" d="M 254.9 18.1 Q 254.9 16.0, 256.0 14.9 Q 257.0 13.7, 258.9 13.7 Q 260.8 13.7, 261.8 14.9 Q 262.9 16.0, 262.9 18.1 Q 262.9 20.2, 261.8 21.4 Q 260.8 22.6, 258.9 22.6 Q 257.0 22.6, 256.0 21.4 Q 254.9 20.2, 254.9 18.1 M 258.9 21.6 Q 260.2 21.6, 260.9 20.7 Q 261.6 19.8, 261.6 18.1 Q 261.6 16.4, 260.9 15.6 Q 260.2 14.7, 258.9 14.7 Q 257.6 14.7, 256.9 15.6 Q 256.2 16.4, 256.2 18.1 Q 256.2 19.9, 256.9 20.7 Q 257.6 21.6, 258.9 21.6 " fill="#FF0000"/>
<path class="atom-22" d="M 264.2 13.8 L 265.4 13.8 L 265.4 17.5 L 269.8 17.5 L 269.8 13.8 L 270.9 13.8 L 270.9 22.4 L 269.8 22.4 L 269.8 18.5 L 265.4 18.5 L 265.4 22.4 L 264.2 22.4 L 264.2 13.8 " fill="#FF0000"/>
<path class="atom-28" d="M 22.0 123.1 L 23.1 123.1 L 23.1 126.7 L 27.5 126.7 L 27.5 123.1 L 28.7 123.1 L 28.7 131.7 L 27.5 131.7 L 27.5 127.7 L 23.1 127.7 L 23.1 131.7 L 22.0 131.7 L 22.0 123.1 " fill="#FF0000"/>
<path class="atom-28" d="M 30.5 127.3 Q 30.5 125.3, 31.5 124.1 Q 32.5 123.0, 34.4 123.0 Q 36.4 123.0, 37.4 124.1 Q 38.4 125.3, 38.4 127.3 Q 38.4 129.4, 37.4 130.6 Q 36.3 131.8, 34.4 131.8 Q 32.5 131.8, 31.5 130.6 Q 30.5 129.5, 30.5 127.3 M 34.4 130.8 Q 35.8 130.8, 36.5 130.0 Q 37.2 129.1, 37.2 127.3 Q 37.2 125.7, 36.5 124.8 Q 35.8 123.9, 34.4 123.9 Q 33.1 123.9, 32.4 124.8 Q 31.7 125.6, 31.7 127.3 Q 31.7 129.1, 32.4 130.0 Q 33.1 130.8, 34.4 130.8 " fill="#FF0000"/>
<path class="atom-30" d="M 135.7 134.8 Q 135.7 132.7, 136.7 131.6 Q 137.8 130.4, 139.7 130.4 Q 141.6 130.4, 142.6 131.6 Q 143.6 132.7, 143.6 134.8 Q 143.6 136.9, 142.6 138.1 Q 141.6 139.3, 139.7 139.3 Q 137.8 139.3, 136.7 138.1 Q 135.7 136.9, 135.7 134.8 M 139.7 138.3 Q 141.0 138.3, 141.7 137.4 Q 142.4 136.5, 142.4 134.8 Q 142.4 133.1, 141.7 132.2 Q 141.0 131.4, 139.7 131.4 Q 138.4 131.4, 137.6 132.2 Q 136.9 133.1, 136.9 134.8 Q 136.9 136.5, 137.6 137.4 Q 138.4 138.3, 139.7 138.3 " fill="#FF0000"/>
<path class="atom-31" d="M 106.2 178.5 Q 106.2 176.4, 107.2 175.3 Q 108.2 174.1, 110.1 174.1 Q 112.1 174.1, 113.1 175.3 Q 114.1 176.4, 114.1 178.5 Q 114.1 180.6, 113.1 181.8 Q 112.0 183.0, 110.1 183.0 Q 108.2 183.0, 107.2 181.8 Q 106.2 180.6, 106.2 178.5 M 110.1 182.0 Q 111.5 182.0, 112.2 181.1 Q 112.9 180.2, 112.9 178.5 Q 112.9 176.8, 112.2 176.0 Q 111.5 175.1, 110.1 175.1 Q 108.8 175.1, 108.1 175.9 Q 107.4 176.8, 107.4 178.5 Q 107.4 180.2, 108.1 181.1 Q 108.8 182.0, 110.1 182.0 " fill="#FF0000"/>
<path class="atom-31" d="M 115.4 174.2 L 116.6 174.2 L 116.6 177.9 L 121.0 177.9 L 121.0 174.2 L 122.2 174.2 L 122.2 182.8 L 121.0 182.8 L 121.0 178.9 L 116.6 178.9 L 116.6 182.8 L 115.4 182.8 L 115.4 174.2 " fill="#FF0000"/>
</svg>
