<?xml version='1.0' encoding='ASCII' standalone='yes'?>
<svg xmlns="http://www.w3.org/2000/svg" xmlns:rdkit="http://www.rdkit.org/xml" xmlns:xlink="http://www.w3.org/1999/xlink" version="1.1" baseProfile="full" xml:space="preserve" width="311px" height="200px" viewBox="0 0 311 200">
<!-- END OF HEADER -->
<rect style="opacity:1.0;fill:#FFFFFF;stroke:none" width="311.0" height="200.0" x="0.0" y="0.0"> </rect>
<path class="bond-0 atom-0 atom-1" d="M 270.7,80.2 L 256.5,106.0" style="fill:none;fill-rule:evenodd;stroke:#000000;stroke-width:2.0px;stroke-linecap:butt;stroke-linejoin:miter;stroke-opacity:1"/>
<path class="bond-1 atom-1 atom-2" d="M 256.5,106.0 L 242.4,131.8" style="fill:none;fill-rule:evenodd;stroke:#000000;stroke-width:2.0px;stroke-linecap:butt;stroke-linejoin:miter;stroke-opacity:1"/>
<path class="bond-2 atom-1 atom-3" d="M 256.5,106.0 L 282.3,120.2" style="fill:none;fill-rule:evenodd;stroke:#000000;stroke-width:2.0px;stroke-linecap:butt;stroke-linejoin:miter;stroke-opacity:1"/>
<path class="bond-3 atom-3 atom-4" d="M 282.3,120.2 L 282.6,132.3" style="fill:none;fill-rule:evenodd;stroke:#000000;stroke-width:2.0px;stroke-linecap:butt;stroke-linejoin:miter;stroke-opacity:1"/>
<path class="bond-3 atom-3 atom-4" d="M 282.6,132.3 L 282.8,144.4" style="fill:none;fill-rule:evenodd;stroke:#FF0000;stroke-width:2.0px;stroke-linecap:butt;stroke-linejoin:miter;stroke-opacity:1"/>
<path class="bond-4 atom-1 atom-5" d="M 256.5,106.0 L 230.8,91.8" style="fill:none;fill-rule:evenodd;stroke:#000000;stroke-width:2.0px;stroke-linecap:butt;stroke-linejoin:miter;stroke-opacity:1"/>
<path class="bond-5 atom-5 atom-6" d="M 230.8,91.8 L 205.6,107.0" style="fill:none;fill-rule:evenodd;stroke:#000000;stroke-width:2.0px;stroke-linecap:butt;stroke-linejoin:miter;stroke-opacity:1"/>
<path class="bond-6 atom-6 atom-7" d="M 205.6,107.0 L 206.2,136.5" style="fill:none;fill-rule:evenodd;stroke:#000000;stroke-width:2.0px;stroke-linecap:butt;stroke-linejoin:miter;stroke-opacity:1"/>
<path class="bond-7 atom-7 atom-8" d="M 206.2,136.5 L 196.0,142.6" style="fill:none;fill-rule:evenodd;stroke:#000000;stroke-width:2.0px;stroke-linecap:butt;stroke-linejoin:miter;stroke-opacity:1"/>
<path class="bond-7 atom-7 atom-8" d="M 196.0,142.6 L 185.8,148.8" style="fill:none;fill-rule:evenodd;stroke:#FF0000;stroke-width:2.0px;stroke-linecap:butt;stroke-linejoin:miter;stroke-opacity:1"/>
<path class="bond-8 atom-6 atom-9" d="M 205.6,107.0 L 179.8,92.9" style="fill:none;fill-rule:evenodd;stroke:#000000;stroke-width:2.0px;stroke-linecap:butt;stroke-linejoin:miter;stroke-opacity:1"/>
<path class="bond-9 atom-9 atom-10" d="M 179.8,92.9 L 154.7,108.1" style="fill:none;fill-rule:evenodd;stroke:#000000;stroke-width:2.0px;stroke-linecap:butt;stroke-linejoin:miter;stroke-opacity:1"/>
<path class="bond-10 atom-10 atom-11" d="M 154.7,108.1 L 160.7,118.1" style="fill:none;fill-rule:evenodd;stroke:#000000;stroke-width:2.0px;stroke-linecap:butt;stroke-linejoin:miter;stroke-opacity:1"/>
<path class="bond-10 atom-10 atom-11" d="M 160.7,118.1 L 166.7,128.1" style="fill:none;fill-rule:evenodd;stroke:#FF0000;stroke-width:2.0px;stroke-linecap:butt;stroke-linejoin:miter;stroke-opacity:1"/>
<path class="bond-11 atom-10 atom-12" d="M 154.7,108.1 L 129.5,123.3" style="fill:none;fill-rule:evenodd;stroke:#000000;stroke-width:2.0px;stroke-linecap:butt;stroke-linejoin:miter;stroke-opacity:1"/>
<path class="bond-12 atom-12 atom-13" d="M 129.5,123.3 L 130.1,152.7" style="fill:none;fill-rule:evenodd;stroke:#000000;stroke-width:2.0px;stroke-linecap:butt;stroke-linejoin:miter;stroke-opacity:1"/>
<path class="bond-13 atom-13 atom-14" d="M 130.1,152.7 L 119.9,158.9" style="fill:none;fill-rule:evenodd;stroke:#000000;stroke-width:2.0px;stroke-linecap:butt;stroke-linejoin:miter;stroke-opacity:1"/>
<path class="bond-13 atom-13 atom-14" d="M 119.9,158.9 L 109.7,165.0" style="fill:none;fill-rule:evenodd;stroke:#FF0000;stroke-width:2.0px;stroke-linecap:butt;stroke-linejoin:miter;stroke-opacity:1"/>
<path class="bond-14 atom-12 atom-15" d="M 129.5,123.3 L 103.7,109.1" style="fill:none;fill-rule:evenodd;stroke:#000000;stroke-width:2.0px;stroke-linecap:butt;stroke-linejoin:miter;stroke-opacity:1"/>
<path class="bond-15 atom-15 atom-16" d="M 103.7,109.1 L 78.5,124.3" style="fill:none;fill-rule:evenodd;stroke:#000000;stroke-width:2.0px;stroke-linecap:butt;stroke-linejoin:miter;stroke-opacity:1"/>
<path class="bond-16 atom-16 atom-17" d="M 78.5,124.3 L 93.8,149.5" style="fill:none;fill-rule:evenodd;stroke:#000000;stroke-width:2.0px;stroke-linecap:butt;stroke-linejoin:miter;stroke-opacity:1"/>
<path class="bond-17 atom-16 atom-18" d="M 78.5,124.3 L 63.3,99.1" style="fill:none;fill-rule:evenodd;stroke:#000000;stroke-width:2.0px;stroke-linecap:butt;stroke-linejoin:miter;stroke-opacity:1"/>
<path class="bond-18 atom-16 atom-19" d="M 78.5,124.3 L 53.4,139.5" style="fill:none;fill-rule:evenodd;stroke:#000000;stroke-width:2.0px;stroke-linecap:butt;stroke-linejoin:miter;stroke-opacity:1"/>
<path class="bond-19 atom-19 atom-20" d="M 53.4,139.5 L 42.9,133.8" style="fill:none;fill-rule:evenodd;stroke:#000000;stroke-width:2.0px;stroke-linecap:butt;stroke-linejoin:miter;stroke-opacity:1"/>
<path class="bond-19 atom-19 atom-20" d="M 42.9,133.8 L 32.4,128.0" style="fill:none;fill-rule:evenodd;stroke:#FF0000;stroke-width:2.0px;stroke-linecap:butt;stroke-linejoin:miter;stroke-opacity:1"/>
<path class="bond-20 atom-10 atom-21" d="M 154.7,108.1 L 139.4,82.9" style="fill:none;fill-rule:evenodd;stroke:#000000;stroke-width:2.0px;stroke-linecap:butt;stroke-linejoin:miter;stroke-opacity:1"/>
<path class="bond-21 atom-21 atom-22" d="M 139.4,82.9 L 164.6,67.7" style="fill:none;fill-rule:evenodd;stroke:#000000;stroke-width:2.0px;stroke-linecap:butt;stroke-linejoin:miter;stroke-opacity:1"/>
<path class="bond-22 atom-21 atom-23" d="M 139.4,82.9 L 114.3,98.1" style="fill:none;fill-rule:evenodd;stroke:#000000;stroke-width:2.0px;stroke-linecap:butt;stroke-linejoin:miter;stroke-opacity:1"/>
<path class="bond-23 atom-21 atom-24" d="M 139.4,82.9 L 124.2,57.7" style="fill:none;fill-rule:evenodd;stroke:#000000;stroke-width:2.0px;stroke-linecap:butt;stroke-linejoin:miter;stroke-opacity:1"/>
<path class="bond-24 atom-24 atom-25" d="M 125.5,55.5 L 112.5,55.7" style="fill:none;fill-rule:evenodd;stroke:#000000;stroke-width:2.0px;stroke-linecap:butt;stroke-linejoin:miter;stroke-opacity:1"/>
<path class="bond-24 atom-24 atom-25" d="M 112.5,55.7 L 99.6,56.0" style="fill:none;fill-rule:evenodd;stroke:#FF0000;stroke-width:2.0px;stroke-linecap:butt;stroke-linejoin:miter;stroke-opacity:1"/>
<path class="bond-24 atom-24 atom-25" d="M 125.5,59.9 L 112.6,60.2" style="fill:none;fill-rule:evenodd;stroke:#000000;stroke-width:2.0px;stroke-linecap:butt;stroke-linejoin:miter;stroke-opacity:1"/>
<path class="bond-24 atom-24 atom-25" d="M 112.6,60.2 L 99.7,60.4" style="fill:none;fill-rule:evenodd;stroke:#FF0000;stroke-width:2.0px;stroke-linecap:butt;stroke-linejoin:miter;stroke-opacity:1"/>
<path class="bond-25 atom-24 atom-26" d="M 124.2,57.7 L 129.9,47.5" style="fill:none;fill-rule:evenodd;stroke:#000000;stroke-width:2.0px;stroke-linecap:butt;stroke-linejoin:miter;stroke-opacity:1"/>
<path class="bond-25 atom-24 atom-26" d="M 129.9,47.5 L 135.5,37.3" style="fill:none;fill-rule:evenodd;stroke:#FF0000;stroke-width:2.0px;stroke-linecap:butt;stroke-linejoin:miter;stroke-opacity:1"/>
<path d="M 281.0,119.5 L 282.3,120.2 L 282.3,120.8" style="fill:none;stroke:#000000;stroke-width:2.0px;stroke-linecap:butt;stroke-linejoin:miter;stroke-opacity:1;"/>
<path d="M 232.1,92.5 L 230.8,91.8 L 229.5,92.6" style="fill:none;stroke:#000000;stroke-width:2.0px;stroke-linecap:butt;stroke-linejoin:miter;stroke-opacity:1;"/>
<path d="M 206.2,135.0 L 206.2,136.5 L 205.7,136.8" style="fill:none;stroke:#000000;stroke-width:2.0px;stroke-linecap:butt;stroke-linejoin:miter;stroke-opacity:1;"/>
<path d="M 181.1,93.6 L 179.8,92.9 L 178.6,93.6" style="fill:none;stroke:#000000;stroke-width:2.0px;stroke-linecap:butt;stroke-linejoin:miter;stroke-opacity:1;"/>
<path d="M 130.1,151.2 L 130.1,152.7 L 129.6,153.0" style="fill:none;stroke:#000000;stroke-width:2.0px;stroke-linecap:butt;stroke-linejoin:miter;stroke-opacity:1;"/>
<path d="M 105.0,109.8 L 103.7,109.1 L 102.5,109.9" style="fill:none;stroke:#000000;stroke-width:2.0px;stroke-linecap:butt;stroke-linejoin:miter;stroke-opacity:1;"/>
<path d="M 54.6,138.8 L 53.4,139.5 L 52.8,139.2" style="fill:none;stroke:#000000;stroke-width:2.0px;stroke-linecap:butt;stroke-linejoin:miter;stroke-opacity:1;"/>
<path d="M 125.0,59.0 L 124.2,57.7 L 124.5,57.2" style="fill:none;stroke:#000000;stroke-width:2.0px;stroke-linecap:butt;stroke-linejoin:miter;stroke-opacity:1;"/>
<path class="atom-4" d="M 279.1 149.6 Q 279.1 147.6, 280.1 146.5 Q 281.1 145.4, 282.9 145.4 Q 284.8 145.4, 285.7 146.5 Q 286.7 147.6, 286.7 149.6 Q 286.7 151.7, 285.7 152.8 Q 284.7 154.0, 282.9 154.0 Q 281.1 154.0, 280.1 152.8 Q 279.1 151.7, 279.1 149.6 M 282.9 153.0 Q 284.2 153.0, 284.9 152.2 Q 285.6 151.3, 285.6 149.6 Q 285.6 148.0, 284.9 147.2 Q 284.2 146.4, 282.9 146.4 Q 281.6 146.4, 280.9 147.2 Q 280.3 148.0, 280.3 149.6 Q 280.3 151.3, 280.9 152.2 Q 281.6 153.0, 282.9 153.0 " fill="#FF0000"/>
<path class="atom-4" d="M 288.0 145.5 L 289.2 145.5 L 289.2 149.0 L 293.4 149.0 L 293.4 145.5 L 294.6 145.5 L 294.6 153.8 L 293.4 153.8 L 293.4 150.0 L 289.2 150.0 L 289.2 153.8 L 288.0 153.8 L 288.0 145.5 " fill="#FF0000"/>
<path class="atom-8" d="M 169.0 147.6 L 170.1 147.6 L 170.1 151.1 L 174.4 151.1 L 174.4 147.6 L 175.5 147.6 L 175.5 155.9 L 174.4 155.9 L 174.4 152.0 L 170.1 152.0 L 170.1 155.9 L 169.0 155.9 L 169.0 147.6 " fill="#FF0000"/>
<path class="atom-8" d="M 177.2 151.7 Q 177.2 149.7, 178.2 148.6 Q 179.2 147.5, 181.0 147.5 Q 182.9 147.5, 183.9 148.6 Q 184.8 149.7, 184.8 151.7 Q 184.8 153.7, 183.8 154.9 Q 182.8 156.0, 181.0 156.0 Q 179.2 156.0, 178.2 154.9 Q 177.2 153.7, 177.2 151.7 M 181.0 155.1 Q 182.3 155.1, 183.0 154.2 Q 183.7 153.4, 183.7 151.7 Q 183.7 150.1, 183.0 149.2 Q 182.3 148.4, 181.0 148.4 Q 179.8 148.4, 179.1 149.2 Q 178.4 150.1, 178.4 151.7 Q 178.4 153.4, 179.1 154.2 Q 179.8 155.1, 181.0 155.1 " fill="#FF0000"/>
<path class="atom-11" d="M 166.1 133.3 Q 166.1 131.3, 167.0 130.2 Q 168.0 129.0, 169.9 129.0 Q 171.7 129.0, 172.7 130.2 Q 173.7 131.3, 173.7 133.3 Q 173.7 135.3, 172.7 136.4 Q 171.7 137.6, 169.9 137.6 Q 168.0 137.6, 167.0 136.4 Q 166.1 135.3, 166.1 133.3 M 169.9 136.6 Q 171.2 136.6, 171.8 135.8 Q 172.5 134.9, 172.5 133.3 Q 172.5 131.6, 171.8 130.8 Q 171.2 130.0, 169.9 130.0 Q 168.6 130.0, 167.9 130.8 Q 167.2 131.6, 167.2 133.3 Q 167.2 135.0, 167.9 135.8 Q 168.6 136.6, 169.9 136.6 " fill="#FF0000"/>
<path class="atom-11" d="M 175.0 129.1 L 176.1 129.1 L 176.1 132.7 L 180.4 132.7 L 180.4 129.1 L 181.5 129.1 L 181.5 137.5 L 180.4 137.5 L 180.4 133.6 L 176.1 133.6 L 176.1 137.5 L 175.0 137.5 L 175.0 129.1 " fill="#FF0000"/>
<path class="atom-14" d="M 92.9 163.8 L 94.0 163.8 L 94.0 167.3 L 98.2 167.3 L 98.2 163.8 L 99.4 163.8 L 99.4 172.1 L 98.2 172.1 L 98.2 168.3 L 94.0 168.3 L 94.0 172.1 L 92.9 172.1 L 92.9 163.8 " fill="#FF0000"/>
<path class="atom-14" d="M 101.1 167.9 Q 101.1 165.9, 102.1 164.8 Q 103.1 163.7, 104.9 163.7 Q 106.8 163.7, 107.7 164.8 Q 108.7 165.9, 108.7 167.9 Q 108.7 170.0, 107.7 171.1 Q 106.7 172.3, 104.9 172.3 Q 103.1 172.3, 102.1 171.1 Q 101.1 170.0, 101.1 167.9 M 104.9 171.3 Q 106.2 171.3, 106.9 170.5 Q 107.6 169.6, 107.6 167.9 Q 107.6 166.3, 106.9 165.5 Q 106.2 164.6, 104.9 164.6 Q 103.6 164.6, 102.9 165.5 Q 102.3 166.3, 102.3 167.9 Q 102.3 169.6, 102.9 170.5 Q 103.6 171.3, 104.9 171.3 " fill="#FF0000"/>
<path class="atom-20" d="M 15.5 121.2 L 16.7 121.2 L 16.7 124.8 L 20.9 124.8 L 20.9 121.2 L 22.1 121.2 L 22.1 129.6 L 20.9 129.6 L 20.9 125.7 L 16.7 125.7 L 16.7 129.6 L 15.5 129.6 L 15.5 121.2 " fill="#FF0000"/>
<path class="atom-20" d="M 23.8 125.4 Q 23.8 123.4, 24.8 122.2 Q 25.8 121.1, 27.6 121.1 Q 29.4 121.1, 30.4 122.2 Q 31.4 123.4, 31.4 125.4 Q 31.4 127.4, 30.4 128.5 Q 29.4 129.7, 27.6 129.7 Q 25.8 129.7, 24.8 128.5 Q 23.8 127.4, 23.8 125.4 M 27.6 128.7 Q 28.9 128.7, 29.6 127.9 Q 30.2 127.0, 30.2 125.4 Q 30.2 123.7, 29.6 122.9 Q 28.9 122.1, 27.6 122.1 Q 26.3 122.1, 25.6 122.9 Q 25.0 123.7, 25.0 125.4 Q 25.0 127.0, 25.6 127.9 Q 26.3 128.7, 27.6 128.7 " fill="#FF0000"/>
<path class="atom-25" d="M 91.0 58.3 Q 91.0 56.3, 92.0 55.2 Q 93.0 54.1, 94.8 54.1 Q 96.7 54.1, 97.6 55.2 Q 98.6 56.3, 98.6 58.3 Q 98.6 60.4, 97.6 61.5 Q 96.6 62.7, 94.8 62.7 Q 93.0 62.7, 92.0 61.5 Q 91.0 60.4, 91.0 58.3 M 94.8 61.7 Q 96.1 61.7, 96.8 60.9 Q 97.5 60.0, 97.5 58.3 Q 97.5 56.7, 96.8 55.9 Q 96.1 55.0, 94.8 55.0 Q 93.5 55.0, 92.8 55.9 Q 92.2 56.7, 92.2 58.3 Q 92.2 60.0, 92.8 60.9 Q 93.5 61.7, 94.8 61.7 " fill="#FF0000"/>
<path class="atom-26" d="M 134.6 32.0 Q 134.6 30.0, 135.6 28.9 Q 136.6 27.7, 138.4 27.7 Q 140.3 27.7, 141.3 28.9 Q 142.2 30.0, 142.2 32.0 Q 142.2 34.0, 141.2 35.2 Q 140.2 36.3, 138.4 36.3 Q 136.6 36.3, 135.6 35.2 Q 134.6 34.0, 134.6 32.0 M 138.4 35.4 Q 139.7 35.4, 140.4 34.5 Q 141.1 33.6, 141.1 32.0 Q 141.1 30.3, 140.4 29.5 Q 139.7 28.7, 138.4 28.7 Q 137.1 28.7, 136.5 29.5 Q 135.8 30.3, 135.8 32.0 Q 135.8 33.7, 136.5 34.5 Q 137.1 35.4, 138.4 35.4 " fill="#FF0000"/>
<path class="atom-26" d="M 143.5 27.8 L 144.7 27.8 L 144.7 31.4 L 148.9 31.4 L 148.9 27.8 L 150.1 27.8 L 150.1 36.2 L 148.9 36.2 L 148.9 32.3 L 144.7 32.3 L 144.7 36.2 L 143.5 36.2 L 143.5 27.8 " fill="#FF0000"/>
</svg>
