<?xml version='1.0' encoding='ASCII' standalone='yes'?>
<svg xmlns="http://www.w3.org/2000/svg" xmlns:rdkit="http://www.rdkit.org/xml" xmlns:xlink="http://www.w3.org/1999/xlink" version="1.1" baseProfile="full" xml:space="preserve" width="233px" height="200px" viewBox="0 0 233 200">
<!-- END OF HEADER -->
<rect style="opacity:1.0;fill:#FFFFFF;stroke:none" width="233.0" height="200.0" x="0.0" y="0.0"> </rect>
<path class="bond-0 atom-0 atom-1" d="M 11.7,109.3 L 44.0,90.6" style="fill:none;fill-rule:evenodd;stroke:#000000;stroke-width:2.0px;stroke-linecap:butt;stroke-linejoin:miter;stroke-opacity:1"/>
<path class="bond-1 atom-1 atom-2" d="M 46.8,92.2 L 46.8,76.1" style="fill:none;fill-rule:evenodd;stroke:#000000;stroke-width:2.0px;stroke-linecap:butt;stroke-linejoin:miter;stroke-opacity:1"/>
<path class="bond-1 atom-1 atom-2" d="M 46.8,76.1 L 46.8,59.9" style="fill:none;fill-rule:evenodd;stroke:#FF0000;stroke-width:2.0px;stroke-linecap:butt;stroke-linejoin:miter;stroke-opacity:1"/>
<path class="bond-1 atom-1 atom-2" d="M 41.2,92.2 L 41.2,76.1" style="fill:none;fill-rule:evenodd;stroke:#000000;stroke-width:2.0px;stroke-linecap:butt;stroke-linejoin:miter;stroke-opacity:1"/>
<path class="bond-1 atom-1 atom-2" d="M 41.2,76.1 L 41.2,59.9" style="fill:none;fill-rule:evenodd;stroke:#FF0000;stroke-width:2.0px;stroke-linecap:butt;stroke-linejoin:miter;stroke-opacity:1"/>
<path class="bond-2 atom-1 atom-3" d="M 44.0,90.6 L 76.4,109.3" style="fill:none;fill-rule:evenodd;stroke:#000000;stroke-width:2.0px;stroke-linecap:butt;stroke-linejoin:miter;stroke-opacity:1"/>
<path class="bond-3 atom-3 atom-4" d="M 73.6,107.6 L 73.6,123.8" style="fill:none;fill-rule:evenodd;stroke:#000000;stroke-width:2.0px;stroke-linecap:butt;stroke-linejoin:miter;stroke-opacity:1"/>
<path class="bond-3 atom-3 atom-4" d="M 73.6,123.8 L 73.6,140.1" style="fill:none;fill-rule:evenodd;stroke:#FF0000;stroke-width:2.0px;stroke-linecap:butt;stroke-linejoin:miter;stroke-opacity:1"/>
<path class="bond-3 atom-3 atom-4" d="M 79.2,107.6 L 79.2,123.8" style="fill:none;fill-rule:evenodd;stroke:#000000;stroke-width:2.0px;stroke-linecap:butt;stroke-linejoin:miter;stroke-opacity:1"/>
<path class="bond-3 atom-3 atom-4" d="M 79.2,123.8 L 79.2,140.1" style="fill:none;fill-rule:evenodd;stroke:#FF0000;stroke-width:2.0px;stroke-linecap:butt;stroke-linejoin:miter;stroke-opacity:1"/>
<path class="bond-4 atom-3 atom-5" d="M 76.4,109.3 L 108.8,90.6" style="fill:none;fill-rule:evenodd;stroke:#000000;stroke-width:2.0px;stroke-linecap:butt;stroke-linejoin:miter;stroke-opacity:1"/>
<path class="bond-5 atom-5 atom-6" d="M 108.8,90.6 L 141.1,109.3" style="fill:none;fill-rule:evenodd;stroke:#000000;stroke-width:2.0px;stroke-linecap:butt;stroke-linejoin:miter;stroke-opacity:1"/>
<path class="bond-6 atom-6 atom-7" d="M 138.3,107.6 L 138.3,123.8" style="fill:none;fill-rule:evenodd;stroke:#000000;stroke-width:2.0px;stroke-linecap:butt;stroke-linejoin:miter;stroke-opacity:1"/>
<path class="bond-6 atom-6 atom-7" d="M 138.3,123.8 L 138.3,140.1" style="fill:none;fill-rule:evenodd;stroke:#FF0000;stroke-width:2.0px;stroke-linecap:butt;stroke-linejoin:miter;stroke-opacity:1"/>
<path class="bond-6 atom-6 atom-7" d="M 143.9,107.6 L 143.9,123.8" style="fill:none;fill-rule:evenodd;stroke:#000000;stroke-width:2.0px;stroke-linecap:butt;stroke-linejoin:miter;stroke-opacity:1"/>
<path class="bond-6 atom-6 atom-7" d="M 143.9,123.8 L 143.9,140.1" style="fill:none;fill-rule:evenodd;stroke:#FF0000;stroke-width:2.0px;stroke-linecap:butt;stroke-linejoin:miter;stroke-opacity:1"/>
<path class="bond-7 atom-6 atom-8" d="M 141.1,109.3 L 173.5,90.6" style="fill:none;fill-rule:evenodd;stroke:#000000;stroke-width:2.0px;stroke-linecap:butt;stroke-linejoin:miter;stroke-opacity:1"/>
<path class="bond-8 atom-8 atom-9" d="M 176.3,92.2 L 176.3,76.1" style="fill:none;fill-rule:evenodd;stroke:#000000;stroke-width:2.0px;stroke-linecap:butt;stroke-linejoin:miter;stroke-opacity:1"/>
<path class="bond-8 atom-8 atom-9" d="M 176.3,76.1 L 176.3,59.9" style="fill:none;fill-rule:evenodd;stroke:#FF0000;stroke-width:2.0px;stroke-linecap:butt;stroke-linejoin:miter;stroke-opacity:1"/>
<path class="bond-8 atom-8 atom-9" d="M 170.7,92.2 L 170.7,76.1" style="fill:none;fill-rule:evenodd;stroke:#000000;stroke-width:2.0px;stroke-linecap:butt;stroke-linejoin:miter;stroke-opacity:1"/>
<path class="bond-8 atom-8 atom-9" d="M 170.7,76.1 L 170.7,59.9" style="fill:none;fill-rule:evenodd;stroke:#FF0000;stroke-width:2.0px;stroke-linecap:butt;stroke-linejoin:miter;stroke-opacity:1"/>
<path class="bond-9 atom-8 atom-10" d="M 173.5,90.6 L 186.6,98.2" style="fill:none;fill-rule:evenodd;stroke:#000000;stroke-width:2.0px;stroke-linecap:butt;stroke-linejoin:miter;stroke-opacity:1"/>
<path class="bond-9 atom-8 atom-10" d="M 186.6,98.2 L 199.8,105.7" style="fill:none;fill-rule:evenodd;stroke:#FF0000;stroke-width:2.0px;stroke-linecap:butt;stroke-linejoin:miter;stroke-opacity:1"/>
<path d="M 42.4,91.5 L 44.0,90.6 L 45.6,91.5" style="fill:none;stroke:#000000;stroke-width:2.0px;stroke-linecap:butt;stroke-linejoin:miter;stroke-opacity:1;"/>
<path d="M 74.8,108.3 L 76.4,109.3 L 78.0,108.3" style="fill:none;stroke:#000000;stroke-width:2.0px;stroke-linecap:butt;stroke-linejoin:miter;stroke-opacity:1;"/>
<path d="M 107.1,91.5 L 108.8,90.6 L 110.4,91.5" style="fill:none;stroke:#000000;stroke-width:2.0px;stroke-linecap:butt;stroke-linejoin:miter;stroke-opacity:1;"/>
<path d="M 139.5,108.3 L 141.1,109.3 L 142.7,108.3" style="fill:none;stroke:#000000;stroke-width:2.0px;stroke-linecap:butt;stroke-linejoin:miter;stroke-opacity:1;"/>
<path d="M 171.9,91.5 L 173.5,90.6 L 174.1,91.0" style="fill:none;stroke:#000000;stroke-width:2.0px;stroke-linecap:butt;stroke-linejoin:miter;stroke-opacity:1;"/>
<path class="atom-2" d="M 39.2 53.2 Q 39.2 50.7, 40.4 49.3 Q 41.7 47.8, 44.0 47.8 Q 46.4 47.8, 47.6 49.3 Q 48.9 50.7, 48.9 53.2 Q 48.9 55.8, 47.6 57.3 Q 46.3 58.7, 44.0 58.7 Q 41.7 58.7, 40.4 57.3 Q 39.2 55.8, 39.2 53.2 M 44.0 57.5 Q 45.6 57.5, 46.5 56.4 Q 47.4 55.4, 47.4 53.2 Q 47.4 51.1, 46.5 50.1 Q 45.6 49.0, 44.0 49.0 Q 42.4 49.0, 41.5 50.1 Q 40.7 51.1, 40.7 53.2 Q 40.7 55.4, 41.5 56.4 Q 42.4 57.5, 44.0 57.5 " fill="#FF0000"/>
<path class="atom-4" d="M 71.5 146.7 Q 71.5 144.1, 72.8 142.7 Q 74.0 141.3, 76.4 141.3 Q 78.7 141.3, 80.0 142.7 Q 81.2 144.1, 81.2 146.7 Q 81.2 149.2, 80.0 150.7 Q 78.7 152.2, 76.4 152.2 Q 74.1 152.2, 72.8 150.7 Q 71.5 149.3, 71.5 146.7 M 76.4 151.0 Q 78.0 151.0, 78.9 149.9 Q 79.8 148.8, 79.8 146.7 Q 79.8 144.6, 78.9 143.5 Q 78.0 142.5, 76.4 142.5 Q 74.8 142.5, 73.9 143.5 Q 73.0 144.6, 73.0 146.7 Q 73.0 148.8, 73.9 149.9 Q 74.8 151.0, 76.4 151.0 " fill="#FF0000"/>
<path class="atom-7" d="M 136.3 146.7 Q 136.3 144.1, 137.5 142.7 Q 138.8 141.3, 141.1 141.3 Q 143.5 141.3, 144.7 142.7 Q 146.0 144.1, 146.0 146.7 Q 146.0 149.2, 144.7 150.7 Q 143.4 152.2, 141.1 152.2 Q 138.8 152.2, 137.5 150.7 Q 136.3 149.3, 136.3 146.7 M 141.1 151.0 Q 142.7 151.0, 143.6 149.9 Q 144.5 148.8, 144.5 146.7 Q 144.5 144.6, 143.6 143.5 Q 142.7 142.5, 141.1 142.5 Q 139.5 142.5, 138.6 143.5 Q 137.8 144.6, 137.8 146.7 Q 137.8 148.8, 138.6 149.9 Q 139.5 151.0, 141.1 151.0 " fill="#FF0000"/>
<path class="atom-9" d="M 168.6 53.2 Q 168.6 50.7, 169.9 49.3 Q 171.1 47.8, 173.5 47.8 Q 175.8 47.8, 177.1 49.3 Q 178.4 50.7, 178.4 53.2 Q 178.4 55.8, 177.1 57.3 Q 175.8 58.7, 173.5 58.7 Q 171.2 58.7, 169.9 57.3 Q 168.6 55.8, 168.6 53.2 M 173.5 57.5 Q 175.1 57.5, 176.0 56.4 Q 176.9 55.4, 176.9 53.2 Q 176.9 51.1, 176.0 50.1 Q 175.1 49.0, 173.5 49.0 Q 171.9 49.0, 171.0 50.1 Q 170.1 51.1, 170.1 53.2 Q 170.1 55.4, 171.0 56.4 Q 171.9 57.5, 173.5 57.5 " fill="#FF0000"/>
<path class="atom-10" d="M 201.0 109.3 Q 201.0 106.8, 202.3 105.3 Q 203.5 103.9, 205.9 103.9 Q 208.2 103.9, 209.5 105.3 Q 210.7 106.8, 210.7 109.3 Q 210.7 111.9, 209.4 113.3 Q 208.2 114.8, 205.9 114.8 Q 203.5 114.8, 202.3 113.3 Q 201.0 111.9, 201.0 109.3 M 205.9 113.6 Q 207.5 113.6, 208.3 112.5 Q 209.2 111.4, 209.2 109.3 Q 209.2 107.2, 208.3 106.2 Q 207.5 105.1, 205.9 105.1 Q 204.2 105.1, 203.4 106.2 Q 202.5 107.2, 202.5 109.3 Q 202.5 111.4, 203.4 112.5 Q 204.2 113.6, 205.9 113.6 " fill="#FF0000"/>
<path class="atom-10" d="M 212.4 104.0 L 213.8 104.0 L 213.8 108.5 L 219.2 108.5 L 219.2 104.0 L 220.6 104.0 L 220.6 114.6 L 219.2 114.6 L 219.2 109.7 L 213.8 109.7 L 213.8 114.6 L 212.4 114.6 L 212.4 104.0 " fill="#FF0000"/>
</svg>
