<?xml version='1.0' encoding='ASCII' standalone='yes'?>
<svg xmlns="http://www.w3.org/2000/svg" xmlns:rdkit="http://www.rdkit.org/xml" xmlns:xlink="http://www.w3.org/1999/xlink" version="1.1" baseProfile="full" xml:space="preserve" width="390px" height="200px" viewBox="0 0 390 200">
<!-- END OF HEADER -->
<rect style="opacity:1.0;fill:#FFFFFF;stroke:none" width="390.0" height="200.0" x="0.0" y="0.0"> </rect>
<path class="bond-0 atom-0 atom-1" d="M 43.7,17.4 L 50.2,33.7" style="fill:none;fill-rule:evenodd;stroke:#000000;stroke-width:2.0px;stroke-linecap:butt;stroke-linejoin:miter;stroke-opacity:1"/>
<path class="bond-0 atom-0 atom-1" d="M 41.3,18.4 L 47.9,34.7" style="fill:none;fill-rule:evenodd;stroke:#000000;stroke-width:2.0px;stroke-linecap:butt;stroke-linejoin:miter;stroke-opacity:1"/>
<path class="bond-1 atom-1 atom-2" d="M 48.8,33.5 L 65.5,35.9" style="fill:none;fill-rule:evenodd;stroke:#000000;stroke-width:2.0px;stroke-linecap:butt;stroke-linejoin:miter;stroke-opacity:1"/>
<path class="bond-2 atom-2 atom-3" d="M 65.5,35.9 L 71.8,51.6" style="fill:none;fill-rule:evenodd;stroke:#000000;stroke-width:2.0px;stroke-linecap:butt;stroke-linejoin:miter;stroke-opacity:1"/>
<path class="bond-3 atom-3 atom-4" d="M 71.8,51.6 L 88.5,53.9" style="fill:none;fill-rule:evenodd;stroke:#000000;stroke-width:2.0px;stroke-linecap:butt;stroke-linejoin:miter;stroke-opacity:1"/>
<path class="bond-4 atom-4 atom-5" d="M 89.0,55.3 L 93.3,49.9" style="fill:none;fill-rule:evenodd;stroke:#000000;stroke-width:2.0px;stroke-linecap:butt;stroke-linejoin:miter;stroke-opacity:1"/>
<path class="bond-4 atom-4 atom-5" d="M 93.3,49.9 L 97.5,44.5" style="fill:none;fill-rule:evenodd;stroke:#FF0000;stroke-width:2.0px;stroke-linecap:butt;stroke-linejoin:miter;stroke-opacity:1"/>
<path class="bond-4 atom-4 atom-5" d="M 87.0,53.7 L 91.3,48.3" style="fill:none;fill-rule:evenodd;stroke:#000000;stroke-width:2.0px;stroke-linecap:butt;stroke-linejoin:miter;stroke-opacity:1"/>
<path class="bond-4 atom-4 atom-5" d="M 91.3,48.3 L 95.5,42.9" style="fill:none;fill-rule:evenodd;stroke:#FF0000;stroke-width:2.0px;stroke-linecap:butt;stroke-linejoin:miter;stroke-opacity:1"/>
<path class="bond-5 atom-4 atom-6" d="M 88.5,53.9 L 94.8,69.6" style="fill:none;fill-rule:evenodd;stroke:#000000;stroke-width:2.0px;stroke-linecap:butt;stroke-linejoin:miter;stroke-opacity:1"/>
<path class="bond-6 atom-6 atom-7" d="M 94.8,69.6 L 111.5,72.0" style="fill:none;fill-rule:evenodd;stroke:#000000;stroke-width:2.0px;stroke-linecap:butt;stroke-linejoin:miter;stroke-opacity:1"/>
<path class="bond-7 atom-7 atom-8" d="M 111.5,72.0 L 117.7,87.6" style="fill:none;fill-rule:evenodd;stroke:#000000;stroke-width:2.0px;stroke-linecap:butt;stroke-linejoin:miter;stroke-opacity:1"/>
<path class="bond-8 atom-8 atom-9" d="M 117.2,86.2 L 106.3,100.1" style="fill:none;fill-rule:evenodd;stroke:#000000;stroke-width:2.0px;stroke-linecap:butt;stroke-linejoin:miter;stroke-opacity:1"/>
<path class="bond-8 atom-8 atom-9" d="M 119.2,87.8 L 108.3,101.7" style="fill:none;fill-rule:evenodd;stroke:#000000;stroke-width:2.0px;stroke-linecap:butt;stroke-linejoin:miter;stroke-opacity:1"/>
<path class="bond-9 atom-8 atom-10" d="M 117.7,87.6 L 134.4,90.0" style="fill:none;fill-rule:evenodd;stroke:#000000;stroke-width:2.0px;stroke-linecap:butt;stroke-linejoin:miter;stroke-opacity:1"/>
<path class="bond-10 atom-10 atom-11" d="M 134.4,90.0 L 135.4,83.2" style="fill:none;fill-rule:evenodd;stroke:#000000;stroke-width:2.0px;stroke-linecap:butt;stroke-linejoin:miter;stroke-opacity:1"/>
<path class="bond-10 atom-10 atom-11" d="M 135.4,83.2 L 136.4,76.3" style="fill:none;fill-rule:evenodd;stroke:#FF0000;stroke-width:2.0px;stroke-linecap:butt;stroke-linejoin:miter;stroke-opacity:1"/>
<path class="bond-11 atom-10 atom-12" d="M 134.4,90.0 L 133.5,96.8" style="fill:none;fill-rule:evenodd;stroke:#000000;stroke-width:2.0px;stroke-linecap:butt;stroke-linejoin:miter;stroke-opacity:1"/>
<path class="bond-11 atom-10 atom-12" d="M 133.5,96.8 L 132.5,103.7" style="fill:none;fill-rule:evenodd;stroke:#FF0000;stroke-width:2.0px;stroke-linecap:butt;stroke-linejoin:miter;stroke-opacity:1"/>
<path class="bond-12 atom-10 atom-13" d="M 134.4,90.0 L 151.1,92.4" style="fill:none;fill-rule:evenodd;stroke:#000000;stroke-width:2.0px;stroke-linecap:butt;stroke-linejoin:miter;stroke-opacity:1"/>
<path class="bond-13 atom-13 atom-14" d="M 151.1,92.4 L 157.4,108.0" style="fill:none;fill-rule:evenodd;stroke:#000000;stroke-width:2.0px;stroke-linecap:butt;stroke-linejoin:miter;stroke-opacity:1"/>
<path class="bond-13 atom-13 atom-14" d="M 149.3,94.7 L 154.5,107.6" style="fill:none;fill-rule:evenodd;stroke:#000000;stroke-width:2.0px;stroke-linecap:butt;stroke-linejoin:miter;stroke-opacity:1"/>
<path class="bond-14 atom-14 atom-15" d="M 157.4,108.0 L 147.0,121.3" style="fill:none;fill-rule:evenodd;stroke:#000000;stroke-width:2.0px;stroke-linecap:butt;stroke-linejoin:miter;stroke-opacity:1"/>
<path class="bond-15 atom-15 atom-16" d="M 147.9,120.1 L 140.6,119.1" style="fill:none;fill-rule:evenodd;stroke:#000000;stroke-width:2.0px;stroke-linecap:butt;stroke-linejoin:miter;stroke-opacity:1"/>
<path class="bond-15 atom-15 atom-16" d="M 140.6,119.1 L 133.2,118.0" style="fill:none;fill-rule:evenodd;stroke:#FF0000;stroke-width:2.0px;stroke-linecap:butt;stroke-linejoin:miter;stroke-opacity:1"/>
<path class="bond-15 atom-15 atom-16" d="M 147.6,122.6 L 140.2,121.6" style="fill:none;fill-rule:evenodd;stroke:#000000;stroke-width:2.0px;stroke-linecap:butt;stroke-linejoin:miter;stroke-opacity:1"/>
<path class="bond-15 atom-15 atom-16" d="M 140.2,121.6 L 132.9,120.5" style="fill:none;fill-rule:evenodd;stroke:#FF0000;stroke-width:2.0px;stroke-linecap:butt;stroke-linejoin:miter;stroke-opacity:1"/>
<path class="bond-16 atom-15 atom-17" d="M 147.0,121.3 L 149.6,127.6" style="fill:none;fill-rule:evenodd;stroke:#000000;stroke-width:2.0px;stroke-linecap:butt;stroke-linejoin:miter;stroke-opacity:1"/>
<path class="bond-16 atom-15 atom-17" d="M 149.6,127.6 L 152.1,133.9" style="fill:none;fill-rule:evenodd;stroke:#FF0000;stroke-width:2.0px;stroke-linecap:butt;stroke-linejoin:miter;stroke-opacity:1"/>
<path class="bond-17 atom-14 atom-18" d="M 157.4,108.0 L 174.1,110.4" style="fill:none;fill-rule:evenodd;stroke:#000000;stroke-width:2.0px;stroke-linecap:butt;stroke-linejoin:miter;stroke-opacity:1"/>
<path class="bond-18 atom-18 atom-19" d="M 174.1,110.4 L 180.4,126.0" style="fill:none;fill-rule:evenodd;stroke:#000000;stroke-width:2.0px;stroke-linecap:butt;stroke-linejoin:miter;stroke-opacity:1"/>
<path class="bond-19 atom-19 atom-20" d="M 180.4,126.0 L 197.1,128.4" style="fill:none;fill-rule:evenodd;stroke:#000000;stroke-width:2.0px;stroke-linecap:butt;stroke-linejoin:miter;stroke-opacity:1"/>
<path class="bond-20 atom-20 atom-21" d="M 197.6,129.8 L 201.9,124.4" style="fill:none;fill-rule:evenodd;stroke:#000000;stroke-width:2.0px;stroke-linecap:butt;stroke-linejoin:miter;stroke-opacity:1"/>
<path class="bond-20 atom-20 atom-21" d="M 201.9,124.4 L 206.1,119.0" style="fill:none;fill-rule:evenodd;stroke:#FF0000;stroke-width:2.0px;stroke-linecap:butt;stroke-linejoin:miter;stroke-opacity:1"/>
<path class="bond-20 atom-20 atom-21" d="M 195.7,128.2 L 199.9,122.8" style="fill:none;fill-rule:evenodd;stroke:#000000;stroke-width:2.0px;stroke-linecap:butt;stroke-linejoin:miter;stroke-opacity:1"/>
<path class="bond-20 atom-20 atom-21" d="M 199.9,122.8 L 204.1,117.4" style="fill:none;fill-rule:evenodd;stroke:#FF0000;stroke-width:2.0px;stroke-linecap:butt;stroke-linejoin:miter;stroke-opacity:1"/>
<path class="bond-21 atom-20 atom-22" d="M 197.1,128.4 L 203.4,144.1" style="fill:none;fill-rule:evenodd;stroke:#000000;stroke-width:2.0px;stroke-linecap:butt;stroke-linejoin:miter;stroke-opacity:1"/>
<path class="bond-22 atom-22 atom-23" d="M 203.4,144.1 L 220.1,146.4" style="fill:none;fill-rule:evenodd;stroke:#000000;stroke-width:2.0px;stroke-linecap:butt;stroke-linejoin:miter;stroke-opacity:1"/>
<path class="bond-23 atom-23 atom-24" d="M 220.1,146.4 L 226.4,162.1" style="fill:none;fill-rule:evenodd;stroke:#000000;stroke-width:2.0px;stroke-linecap:butt;stroke-linejoin:miter;stroke-opacity:1"/>
<path class="bond-24 atom-24 atom-25" d="M 225.8,160.7 L 215.0,174.6" style="fill:none;fill-rule:evenodd;stroke:#000000;stroke-width:2.0px;stroke-linecap:butt;stroke-linejoin:miter;stroke-opacity:1"/>
<path class="bond-24 atom-24 atom-25" d="M 227.8,162.3 L 217.0,176.1" style="fill:none;fill-rule:evenodd;stroke:#000000;stroke-width:2.0px;stroke-linecap:butt;stroke-linejoin:miter;stroke-opacity:1"/>
<path class="bond-25 atom-24 atom-26" d="M 226.4,162.1 L 243.1,164.5" style="fill:none;fill-rule:evenodd;stroke:#000000;stroke-width:2.0px;stroke-linecap:butt;stroke-linejoin:miter;stroke-opacity:1"/>
<path class="bond-26 atom-26 atom-27" d="M 243.6,165.8 L 247.8,160.4" style="fill:none;fill-rule:evenodd;stroke:#000000;stroke-width:2.0px;stroke-linecap:butt;stroke-linejoin:miter;stroke-opacity:1"/>
<path class="bond-26 atom-26 atom-27" d="M 247.8,160.4 L 252.1,155.0" style="fill:none;fill-rule:evenodd;stroke:#FF0000;stroke-width:2.0px;stroke-linecap:butt;stroke-linejoin:miter;stroke-opacity:1"/>
<path class="bond-26 atom-26 atom-27" d="M 241.6,164.3 L 245.9,158.9" style="fill:none;fill-rule:evenodd;stroke:#000000;stroke-width:2.0px;stroke-linecap:butt;stroke-linejoin:miter;stroke-opacity:1"/>
<path class="bond-26 atom-26 atom-27" d="M 245.9,158.9 L 250.1,153.5" style="fill:none;fill-rule:evenodd;stroke:#FF0000;stroke-width:2.0px;stroke-linecap:butt;stroke-linejoin:miter;stroke-opacity:1"/>
<path class="bond-27 atom-26 atom-28" d="M 243.1,164.5 L 245.6,170.8" style="fill:none;fill-rule:evenodd;stroke:#000000;stroke-width:2.0px;stroke-linecap:butt;stroke-linejoin:miter;stroke-opacity:1"/>
<path class="bond-27 atom-26 atom-28" d="M 245.6,170.8 L 248.2,177.1" style="fill:none;fill-rule:evenodd;stroke:#FF0000;stroke-width:2.0px;stroke-linecap:butt;stroke-linejoin:miter;stroke-opacity:1"/>
<path class="bond-28 atom-22 atom-29" d="M 203.4,144.1 L 193.0,157.3" style="fill:none;fill-rule:evenodd;stroke:#000000;stroke-width:2.0px;stroke-linecap:butt;stroke-linejoin:miter;stroke-opacity:1"/>
<path class="bond-29 atom-29 atom-30" d="M 193.9,156.2 L 186.5,155.1" style="fill:none;fill-rule:evenodd;stroke:#000000;stroke-width:2.0px;stroke-linecap:butt;stroke-linejoin:miter;stroke-opacity:1"/>
<path class="bond-29 atom-29 atom-30" d="M 186.5,155.1 L 179.2,154.1" style="fill:none;fill-rule:evenodd;stroke:#FF0000;stroke-width:2.0px;stroke-linecap:butt;stroke-linejoin:miter;stroke-opacity:1"/>
<path class="bond-29 atom-29 atom-30" d="M 193.5,158.7 L 186.2,157.6" style="fill:none;fill-rule:evenodd;stroke:#000000;stroke-width:2.0px;stroke-linecap:butt;stroke-linejoin:miter;stroke-opacity:1"/>
<path class="bond-29 atom-29 atom-30" d="M 186.2,157.6 L 178.9,156.6" style="fill:none;fill-rule:evenodd;stroke:#FF0000;stroke-width:2.0px;stroke-linecap:butt;stroke-linejoin:miter;stroke-opacity:1"/>
<path class="bond-30 atom-29 atom-31" d="M 193.0,157.3 L 195.5,163.7" style="fill:none;fill-rule:evenodd;stroke:#000000;stroke-width:2.0px;stroke-linecap:butt;stroke-linejoin:miter;stroke-opacity:1"/>
<path class="bond-30 atom-29 atom-31" d="M 195.5,163.7 L 198.1,170.0" style="fill:none;fill-rule:evenodd;stroke:#FF0000;stroke-width:2.0px;stroke-linecap:butt;stroke-linejoin:miter;stroke-opacity:1"/>
<path class="bond-31 atom-18 atom-32" d="M 174.1,110.4 L 184.5,97.1" style="fill:none;fill-rule:evenodd;stroke:#000000;stroke-width:2.0px;stroke-linecap:butt;stroke-linejoin:miter;stroke-opacity:1"/>
<path class="bond-32 atom-32 atom-33" d="M 184.5,97.1 L 201.2,99.5" style="fill:none;fill-rule:evenodd;stroke:#000000;stroke-width:2.0px;stroke-linecap:butt;stroke-linejoin:miter;stroke-opacity:1"/>
<path class="bond-33 atom-33 atom-34" d="M 201.2,99.5 L 211.6,86.2" style="fill:none;fill-rule:evenodd;stroke:#000000;stroke-width:2.0px;stroke-linecap:butt;stroke-linejoin:miter;stroke-opacity:1"/>
<path class="bond-34 atom-34 atom-35" d="M 213.1,86.4 L 206.5,70.1" style="fill:none;fill-rule:evenodd;stroke:#000000;stroke-width:2.0px;stroke-linecap:butt;stroke-linejoin:miter;stroke-opacity:1"/>
<path class="bond-34 atom-34 atom-35" d="M 210.7,87.4 L 204.2,71.0" style="fill:none;fill-rule:evenodd;stroke:#000000;stroke-width:2.0px;stroke-linecap:butt;stroke-linejoin:miter;stroke-opacity:1"/>
<path class="bond-35 atom-34 atom-36" d="M 211.6,86.2 L 228.3,88.6" style="fill:none;fill-rule:evenodd;stroke:#000000;stroke-width:2.0px;stroke-linecap:butt;stroke-linejoin:miter;stroke-opacity:1"/>
<path class="bond-36 atom-36 atom-37" d="M 228.3,88.6 L 227.3,95.5" style="fill:none;fill-rule:evenodd;stroke:#000000;stroke-width:2.0px;stroke-linecap:butt;stroke-linejoin:miter;stroke-opacity:1"/>
<path class="bond-36 atom-36 atom-37" d="M 227.3,95.5 L 226.4,102.3" style="fill:none;fill-rule:evenodd;stroke:#FF0000;stroke-width:2.0px;stroke-linecap:butt;stroke-linejoin:miter;stroke-opacity:1"/>
<path class="bond-37 atom-36 atom-38" d="M 228.3,88.6 L 229.3,81.8" style="fill:none;fill-rule:evenodd;stroke:#000000;stroke-width:2.0px;stroke-linecap:butt;stroke-linejoin:miter;stroke-opacity:1"/>
<path class="bond-37 atom-36 atom-38" d="M 229.3,81.8 L 230.3,74.9" style="fill:none;fill-rule:evenodd;stroke:#FF0000;stroke-width:2.0px;stroke-linecap:butt;stroke-linejoin:miter;stroke-opacity:1"/>
<path class="bond-38 atom-36 atom-39" d="M 228.3,88.6 L 245.0,91.0" style="fill:none;fill-rule:evenodd;stroke:#000000;stroke-width:2.0px;stroke-linecap:butt;stroke-linejoin:miter;stroke-opacity:1"/>
<path class="bond-39 atom-39 atom-40" d="M 245.0,91.0 L 255.4,77.7" style="fill:none;fill-rule:evenodd;stroke:#000000;stroke-width:2.0px;stroke-linecap:butt;stroke-linejoin:miter;stroke-opacity:1"/>
<path class="bond-39 atom-39 atom-40" d="M 243.9,88.3 L 252.5,77.3" style="fill:none;fill-rule:evenodd;stroke:#000000;stroke-width:2.0px;stroke-linecap:butt;stroke-linejoin:miter;stroke-opacity:1"/>
<path class="bond-40 atom-40 atom-41" d="M 255.4,77.7 L 272.1,80.1" style="fill:none;fill-rule:evenodd;stroke:#000000;stroke-width:2.0px;stroke-linecap:butt;stroke-linejoin:miter;stroke-opacity:1"/>
<path class="bond-41 atom-41 atom-42" d="M 272.1,80.1 L 282.5,66.8" style="fill:none;fill-rule:evenodd;stroke:#000000;stroke-width:2.0px;stroke-linecap:butt;stroke-linejoin:miter;stroke-opacity:1"/>
<path class="bond-42 atom-42 atom-43" d="M 282.5,66.8 L 299.2,69.2" style="fill:none;fill-rule:evenodd;stroke:#000000;stroke-width:2.0px;stroke-linecap:butt;stroke-linejoin:miter;stroke-opacity:1"/>
<path class="bond-43 atom-43 atom-44" d="M 297.8,69.0 L 300.5,75.7" style="fill:none;fill-rule:evenodd;stroke:#000000;stroke-width:2.0px;stroke-linecap:butt;stroke-linejoin:miter;stroke-opacity:1"/>
<path class="bond-43 atom-43 atom-44" d="M 300.5,75.7 L 303.1,82.3" style="fill:none;fill-rule:evenodd;stroke:#FF0000;stroke-width:2.0px;stroke-linecap:butt;stroke-linejoin:miter;stroke-opacity:1"/>
<path class="bond-43 atom-43 atom-44" d="M 300.1,68.0 L 302.8,74.7" style="fill:none;fill-rule:evenodd;stroke:#000000;stroke-width:2.0px;stroke-linecap:butt;stroke-linejoin:miter;stroke-opacity:1"/>
<path class="bond-43 atom-43 atom-44" d="M 302.8,74.7 L 305.5,81.4" style="fill:none;fill-rule:evenodd;stroke:#FF0000;stroke-width:2.0px;stroke-linecap:butt;stroke-linejoin:miter;stroke-opacity:1"/>
<path class="bond-44 atom-43 atom-45" d="M 299.2,69.2 L 309.6,55.9" style="fill:none;fill-rule:evenodd;stroke:#000000;stroke-width:2.0px;stroke-linecap:butt;stroke-linejoin:miter;stroke-opacity:1"/>
<path class="bond-45 atom-45 atom-46" d="M 309.6,55.9 L 326.3,58.3" style="fill:none;fill-rule:evenodd;stroke:#000000;stroke-width:2.0px;stroke-linecap:butt;stroke-linejoin:miter;stroke-opacity:1"/>
<path class="bond-46 atom-46 atom-47" d="M 326.3,58.3 L 336.7,45.0" style="fill:none;fill-rule:evenodd;stroke:#000000;stroke-width:2.0px;stroke-linecap:butt;stroke-linejoin:miter;stroke-opacity:1"/>
<path class="bond-47 atom-47 atom-48" d="M 338.2,45.2 L 331.6,28.9" style="fill:none;fill-rule:evenodd;stroke:#000000;stroke-width:2.0px;stroke-linecap:butt;stroke-linejoin:miter;stroke-opacity:1"/>
<path class="bond-47 atom-47 atom-48" d="M 335.8,46.2 L 329.3,29.9" style="fill:none;fill-rule:evenodd;stroke:#000000;stroke-width:2.0px;stroke-linecap:butt;stroke-linejoin:miter;stroke-opacity:1"/>
<path class="bond-48 atom-47 atom-49" d="M 336.7,45.0 L 353.4,47.4" style="fill:none;fill-rule:evenodd;stroke:#000000;stroke-width:2.0px;stroke-linecap:butt;stroke-linejoin:miter;stroke-opacity:1"/>
<path class="bond-49 atom-49 atom-50" d="M 352.0,47.2 L 354.7,53.9" style="fill:none;fill-rule:evenodd;stroke:#000000;stroke-width:2.0px;stroke-linecap:butt;stroke-linejoin:miter;stroke-opacity:1"/>
<path class="bond-49 atom-49 atom-50" d="M 354.7,53.9 L 357.3,60.6" style="fill:none;fill-rule:evenodd;stroke:#FF0000;stroke-width:2.0px;stroke-linecap:butt;stroke-linejoin:miter;stroke-opacity:1"/>
<path class="bond-49 atom-49 atom-50" d="M 354.3,46.3 L 357.0,52.9" style="fill:none;fill-rule:evenodd;stroke:#000000;stroke-width:2.0px;stroke-linecap:butt;stroke-linejoin:miter;stroke-opacity:1"/>
<path class="bond-49 atom-49 atom-50" d="M 357.0,52.9 L 359.7,59.6" style="fill:none;fill-rule:evenodd;stroke:#FF0000;stroke-width:2.0px;stroke-linecap:butt;stroke-linejoin:miter;stroke-opacity:1"/>
<path class="bond-50 atom-49 atom-51" d="M 353.4,47.4 L 357.4,42.3" style="fill:none;fill-rule:evenodd;stroke:#000000;stroke-width:2.0px;stroke-linecap:butt;stroke-linejoin:miter;stroke-opacity:1"/>
<path class="bond-50 atom-49 atom-51" d="M 357.4,42.3 L 361.4,37.2" style="fill:none;fill-rule:evenodd;stroke:#FF0000;stroke-width:2.0px;stroke-linecap:butt;stroke-linejoin:miter;stroke-opacity:1"/>
<path class="bond-51 atom-45 atom-52" d="M 309.6,55.9 L 303.3,40.3" style="fill:none;fill-rule:evenodd;stroke:#000000;stroke-width:2.0px;stroke-linecap:butt;stroke-linejoin:miter;stroke-opacity:1"/>
<path class="bond-52 atom-52 atom-53" d="M 304.2,39.1 L 296.9,38.1" style="fill:none;fill-rule:evenodd;stroke:#000000;stroke-width:2.0px;stroke-linecap:butt;stroke-linejoin:miter;stroke-opacity:1"/>
<path class="bond-52 atom-52 atom-53" d="M 296.9,38.1 L 289.6,37.0" style="fill:none;fill-rule:evenodd;stroke:#FF0000;stroke-width:2.0px;stroke-linecap:butt;stroke-linejoin:miter;stroke-opacity:1"/>
<path class="bond-52 atom-52 atom-53" d="M 303.9,41.6 L 296.5,40.6" style="fill:none;fill-rule:evenodd;stroke:#000000;stroke-width:2.0px;stroke-linecap:butt;stroke-linejoin:miter;stroke-opacity:1"/>
<path class="bond-52 atom-52 atom-53" d="M 296.5,40.6 L 289.2,39.5" style="fill:none;fill-rule:evenodd;stroke:#FF0000;stroke-width:2.0px;stroke-linecap:butt;stroke-linejoin:miter;stroke-opacity:1"/>
<path class="bond-53 atom-52 atom-54" d="M 303.3,40.3 L 307.3,35.2" style="fill:none;fill-rule:evenodd;stroke:#000000;stroke-width:2.0px;stroke-linecap:butt;stroke-linejoin:miter;stroke-opacity:1"/>
<path class="bond-53 atom-52 atom-54" d="M 307.3,35.2 L 311.4,30.1" style="fill:none;fill-rule:evenodd;stroke:#FF0000;stroke-width:2.0px;stroke-linecap:butt;stroke-linejoin:miter;stroke-opacity:1"/>
<path class="bond-54 atom-40 atom-55" d="M 255.4,77.7 L 249.1,62.1" style="fill:none;fill-rule:evenodd;stroke:#000000;stroke-width:2.0px;stroke-linecap:butt;stroke-linejoin:miter;stroke-opacity:1"/>
<path class="bond-55 atom-55 atom-56" d="M 250.0,60.9 L 242.7,59.9" style="fill:none;fill-rule:evenodd;stroke:#000000;stroke-width:2.0px;stroke-linecap:butt;stroke-linejoin:miter;stroke-opacity:1"/>
<path class="bond-55 atom-55 atom-56" d="M 242.7,59.9 L 235.4,58.8" style="fill:none;fill-rule:evenodd;stroke:#FF0000;stroke-width:2.0px;stroke-linecap:butt;stroke-linejoin:miter;stroke-opacity:1"/>
<path class="bond-55 atom-55 atom-56" d="M 249.7,63.4 L 242.3,62.4" style="fill:none;fill-rule:evenodd;stroke:#000000;stroke-width:2.0px;stroke-linecap:butt;stroke-linejoin:miter;stroke-opacity:1"/>
<path class="bond-55 atom-55 atom-56" d="M 242.3,62.4 L 235.0,61.3" style="fill:none;fill-rule:evenodd;stroke:#FF0000;stroke-width:2.0px;stroke-linecap:butt;stroke-linejoin:miter;stroke-opacity:1"/>
<path class="bond-56 atom-55 atom-57" d="M 249.1,62.1 L 253.1,56.9" style="fill:none;fill-rule:evenodd;stroke:#000000;stroke-width:2.0px;stroke-linecap:butt;stroke-linejoin:miter;stroke-opacity:1"/>
<path class="bond-56 atom-55 atom-57" d="M 253.1,56.9 L 257.2,51.8" style="fill:none;fill-rule:evenodd;stroke:#FF0000;stroke-width:2.0px;stroke-linecap:butt;stroke-linejoin:miter;stroke-opacity:1"/>
<path class="bond-57 atom-32 atom-58" d="M 184.5,97.1 L 178.2,81.5" style="fill:none;fill-rule:evenodd;stroke:#000000;stroke-width:2.0px;stroke-linecap:butt;stroke-linejoin:miter;stroke-opacity:1"/>
<path class="bond-58 atom-58 atom-59" d="M 179.1,80.3 L 171.8,79.3" style="fill:none;fill-rule:evenodd;stroke:#000000;stroke-width:2.0px;stroke-linecap:butt;stroke-linejoin:miter;stroke-opacity:1"/>
<path class="bond-58 atom-58 atom-59" d="M 171.8,79.3 L 164.5,78.2" style="fill:none;fill-rule:evenodd;stroke:#FF0000;stroke-width:2.0px;stroke-linecap:butt;stroke-linejoin:miter;stroke-opacity:1"/>
<path class="bond-58 atom-58 atom-59" d="M 178.8,82.8 L 171.4,81.8" style="fill:none;fill-rule:evenodd;stroke:#000000;stroke-width:2.0px;stroke-linecap:butt;stroke-linejoin:miter;stroke-opacity:1"/>
<path class="bond-58 atom-58 atom-59" d="M 171.4,81.8 L 164.1,80.7" style="fill:none;fill-rule:evenodd;stroke:#FF0000;stroke-width:2.0px;stroke-linecap:butt;stroke-linejoin:miter;stroke-opacity:1"/>
<path class="bond-59 atom-58 atom-60" d="M 178.2,81.5 L 182.2,76.4" style="fill:none;fill-rule:evenodd;stroke:#000000;stroke-width:2.0px;stroke-linecap:butt;stroke-linejoin:miter;stroke-opacity:1"/>
<path class="bond-59 atom-58 atom-60" d="M 182.2,76.4 L 186.3,71.2" style="fill:none;fill-rule:evenodd;stroke:#FF0000;stroke-width:2.0px;stroke-linecap:butt;stroke-linejoin:miter;stroke-opacity:1"/>
<path class="bond-60 atom-6 atom-61" d="M 94.8,69.6 L 84.4,82.8" style="fill:none;fill-rule:evenodd;stroke:#000000;stroke-width:2.0px;stroke-linecap:butt;stroke-linejoin:miter;stroke-opacity:1"/>
<path class="bond-61 atom-61 atom-62" d="M 85.3,81.7 L 77.9,80.7" style="fill:none;fill-rule:evenodd;stroke:#000000;stroke-width:2.0px;stroke-linecap:butt;stroke-linejoin:miter;stroke-opacity:1"/>
<path class="bond-61 atom-61 atom-62" d="M 77.9,80.7 L 70.6,79.6" style="fill:none;fill-rule:evenodd;stroke:#FF0000;stroke-width:2.0px;stroke-linecap:butt;stroke-linejoin:miter;stroke-opacity:1"/>
<path class="bond-61 atom-61 atom-62" d="M 84.9,84.2 L 77.6,83.2" style="fill:none;fill-rule:evenodd;stroke:#000000;stroke-width:2.0px;stroke-linecap:butt;stroke-linejoin:miter;stroke-opacity:1"/>
<path class="bond-61 atom-61 atom-62" d="M 77.6,83.2 L 70.2,82.1" style="fill:none;fill-rule:evenodd;stroke:#FF0000;stroke-width:2.0px;stroke-linecap:butt;stroke-linejoin:miter;stroke-opacity:1"/>
<path class="bond-62 atom-61 atom-63" d="M 84.4,82.8 L 86.9,89.2" style="fill:none;fill-rule:evenodd;stroke:#000000;stroke-width:2.0px;stroke-linecap:butt;stroke-linejoin:miter;stroke-opacity:1"/>
<path class="bond-62 atom-61 atom-63" d="M 86.9,89.2 L 89.4,95.5" style="fill:none;fill-rule:evenodd;stroke:#FF0000;stroke-width:2.0px;stroke-linecap:butt;stroke-linejoin:miter;stroke-opacity:1"/>
<path class="bond-63 atom-1 atom-64" d="M 48.8,33.5 L 38.4,46.8" style="fill:none;fill-rule:evenodd;stroke:#000000;stroke-width:2.0px;stroke-linecap:butt;stroke-linejoin:miter;stroke-opacity:1"/>
<path class="bond-64 atom-64 atom-65" d="M 39.3,45.6 L 32.0,44.6" style="fill:none;fill-rule:evenodd;stroke:#000000;stroke-width:2.0px;stroke-linecap:butt;stroke-linejoin:miter;stroke-opacity:1"/>
<path class="bond-64 atom-64 atom-65" d="M 32.0,44.6 L 24.6,43.6" style="fill:none;fill-rule:evenodd;stroke:#FF0000;stroke-width:2.0px;stroke-linecap:butt;stroke-linejoin:miter;stroke-opacity:1"/>
<path class="bond-64 atom-64 atom-65" d="M 38.9,48.2 L 31.6,47.1" style="fill:none;fill-rule:evenodd;stroke:#000000;stroke-width:2.0px;stroke-linecap:butt;stroke-linejoin:miter;stroke-opacity:1"/>
<path class="bond-64 atom-64 atom-65" d="M 31.6,47.1 L 24.3,46.1" style="fill:none;fill-rule:evenodd;stroke:#FF0000;stroke-width:2.0px;stroke-linecap:butt;stroke-linejoin:miter;stroke-opacity:1"/>
<path class="bond-65 atom-64 atom-66" d="M 38.4,46.8 L 40.9,53.1" style="fill:none;fill-rule:evenodd;stroke:#000000;stroke-width:2.0px;stroke-linecap:butt;stroke-linejoin:miter;stroke-opacity:1"/>
<path class="bond-65 atom-64 atom-66" d="M 40.9,53.1 L 43.5,59.5" style="fill:none;fill-rule:evenodd;stroke:#FF0000;stroke-width:2.0px;stroke-linecap:butt;stroke-linejoin:miter;stroke-opacity:1"/>
<path d="M 49.6,33.6 L 48.8,33.5 L 48.3,34.2" style="fill:none;stroke:#000000;stroke-width:2.0px;stroke-linecap:butt;stroke-linejoin:miter;stroke-opacity:1;"/>
<path d="M 64.7,35.8 L 65.5,35.9 L 65.8,36.7" style="fill:none;stroke:#000000;stroke-width:2.0px;stroke-linecap:butt;stroke-linejoin:miter;stroke-opacity:1;"/>
<path d="M 71.5,50.8 L 71.8,51.6 L 72.6,51.7" style="fill:none;stroke:#000000;stroke-width:2.0px;stroke-linecap:butt;stroke-linejoin:miter;stroke-opacity:1;"/>
<path d="M 87.6,53.8 L 88.5,53.9 L 88.8,54.7" style="fill:none;stroke:#000000;stroke-width:2.0px;stroke-linecap:butt;stroke-linejoin:miter;stroke-opacity:1;"/>
<path d="M 110.6,71.8 L 111.5,72.0 L 111.8,72.7" style="fill:none;stroke:#000000;stroke-width:2.0px;stroke-linecap:butt;stroke-linejoin:miter;stroke-opacity:1;"/>
<path d="M 117.4,86.8 L 117.7,87.6 L 118.6,87.7" style="fill:none;stroke:#000000;stroke-width:2.0px;stroke-linecap:butt;stroke-linejoin:miter;stroke-opacity:1;"/>
<path d="M 150.3,92.2 L 151.1,92.4 L 151.4,93.1" style="fill:none;stroke:#000000;stroke-width:2.0px;stroke-linecap:butt;stroke-linejoin:miter;stroke-opacity:1;"/>
<path d="M 147.5,120.6 L 147.0,121.3 L 147.1,121.6" style="fill:none;stroke:#000000;stroke-width:2.0px;stroke-linecap:butt;stroke-linejoin:miter;stroke-opacity:1;"/>
<path d="M 180.1,125.2 L 180.4,126.0 L 181.2,126.1" style="fill:none;stroke:#000000;stroke-width:2.0px;stroke-linecap:butt;stroke-linejoin:miter;stroke-opacity:1;"/>
<path d="M 196.3,128.3 L 197.1,128.4 L 197.4,129.2" style="fill:none;stroke:#000000;stroke-width:2.0px;stroke-linecap:butt;stroke-linejoin:miter;stroke-opacity:1;"/>
<path d="M 219.2,146.3 L 220.1,146.4 L 220.4,147.2" style="fill:none;stroke:#000000;stroke-width:2.0px;stroke-linecap:butt;stroke-linejoin:miter;stroke-opacity:1;"/>
<path d="M 226.1,161.3 L 226.4,162.1 L 227.2,162.2" style="fill:none;stroke:#000000;stroke-width:2.0px;stroke-linecap:butt;stroke-linejoin:miter;stroke-opacity:1;"/>
<path d="M 242.2,164.3 L 243.1,164.5 L 243.2,164.8" style="fill:none;stroke:#000000;stroke-width:2.0px;stroke-linecap:butt;stroke-linejoin:miter;stroke-opacity:1;"/>
<path d="M 193.5,156.7 L 193.0,157.3 L 193.1,157.6" style="fill:none;stroke:#000000;stroke-width:2.0px;stroke-linecap:butt;stroke-linejoin:miter;stroke-opacity:1;"/>
<path d="M 200.4,99.4 L 201.2,99.5 L 201.7,98.8" style="fill:none;stroke:#000000;stroke-width:2.0px;stroke-linecap:butt;stroke-linejoin:miter;stroke-opacity:1;"/>
<path d="M 211.1,86.9 L 211.6,86.2 L 212.5,86.3" style="fill:none;stroke:#000000;stroke-width:2.0px;stroke-linecap:butt;stroke-linejoin:miter;stroke-opacity:1;"/>
<path d="M 244.2,90.9 L 245.0,91.0 L 245.5,90.3" style="fill:none;stroke:#000000;stroke-width:2.0px;stroke-linecap:butt;stroke-linejoin:miter;stroke-opacity:1;"/>
<path d="M 271.3,80.0 L 272.1,80.1 L 272.6,79.4" style="fill:none;stroke:#000000;stroke-width:2.0px;stroke-linecap:butt;stroke-linejoin:miter;stroke-opacity:1;"/>
<path d="M 282.0,67.5 L 282.5,66.8 L 283.4,66.9" style="fill:none;stroke:#000000;stroke-width:2.0px;stroke-linecap:butt;stroke-linejoin:miter;stroke-opacity:1;"/>
<path d="M 298.4,69.1 L 299.2,69.2 L 299.7,68.5" style="fill:none;stroke:#000000;stroke-width:2.0px;stroke-linecap:butt;stroke-linejoin:miter;stroke-opacity:1;"/>
<path d="M 325.5,58.2 L 326.3,58.3 L 326.8,57.6" style="fill:none;stroke:#000000;stroke-width:2.0px;stroke-linecap:butt;stroke-linejoin:miter;stroke-opacity:1;"/>
<path d="M 336.2,45.7 L 336.7,45.0 L 337.6,45.2" style="fill:none;stroke:#000000;stroke-width:2.0px;stroke-linecap:butt;stroke-linejoin:miter;stroke-opacity:1;"/>
<path d="M 352.6,47.3 L 353.4,47.4 L 353.6,47.2" style="fill:none;stroke:#000000;stroke-width:2.0px;stroke-linecap:butt;stroke-linejoin:miter;stroke-opacity:1;"/>
<path d="M 303.7,41.1 L 303.3,40.3 L 303.5,40.0" style="fill:none;stroke:#000000;stroke-width:2.0px;stroke-linecap:butt;stroke-linejoin:miter;stroke-opacity:1;"/>
<path d="M 249.4,62.8 L 249.1,62.1 L 249.3,61.8" style="fill:none;stroke:#000000;stroke-width:2.0px;stroke-linecap:butt;stroke-linejoin:miter;stroke-opacity:1;"/>
<path d="M 178.5,82.2 L 178.2,81.5 L 178.4,81.2" style="fill:none;stroke:#000000;stroke-width:2.0px;stroke-linecap:butt;stroke-linejoin:miter;stroke-opacity:1;"/>
<path d="M 84.9,82.2 L 84.4,82.8 L 84.5,83.2" style="fill:none;stroke:#000000;stroke-width:2.0px;stroke-linecap:butt;stroke-linejoin:miter;stroke-opacity:1;"/>
<path d="M 38.9,46.1 L 38.4,46.8 L 38.5,47.1" style="fill:none;stroke:#000000;stroke-width:2.0px;stroke-linecap:butt;stroke-linejoin:miter;stroke-opacity:1;"/>
<path class="atom-5" d="M 96.7 40.7 Q 96.7 39.5, 97.3 38.9 Q 97.8 38.2, 98.9 38.2 Q 99.9 38.2, 100.5 38.9 Q 101.1 39.5, 101.1 40.7 Q 101.1 41.8, 100.5 42.5 Q 99.9 43.1, 98.9 43.1 Q 97.8 43.1, 97.3 42.5 Q 96.7 41.8, 96.7 40.7 M 98.9 42.6 Q 99.6 42.6, 100.0 42.1 Q 100.4 41.6, 100.4 40.7 Q 100.4 39.7, 100.0 39.3 Q 99.6 38.8, 98.9 38.8 Q 98.2 38.8, 97.8 39.3 Q 97.4 39.7, 97.4 40.7 Q 97.4 41.6, 97.8 42.1 Q 98.2 42.6, 98.9 42.6 " fill="#FF0000"/>
<path class="atom-11" d="M 134.6 73.3 Q 134.6 72.2, 135.2 71.5 Q 135.8 70.9, 136.8 70.9 Q 137.9 70.9, 138.4 71.5 Q 139.0 72.2, 139.0 73.3 Q 139.0 74.5, 138.4 75.1 Q 137.9 75.8, 136.8 75.8 Q 135.8 75.8, 135.2 75.1 Q 134.6 74.5, 134.6 73.3 M 136.8 75.2 Q 137.5 75.2, 137.9 74.7 Q 138.3 74.3, 138.3 73.3 Q 138.3 72.4, 137.9 71.9 Q 137.5 71.4, 136.8 71.4 Q 136.1 71.4, 135.7 71.9 Q 135.3 72.4, 135.3 73.3 Q 135.3 74.3, 135.7 74.7 Q 136.1 75.2, 136.8 75.2 " fill="#FF0000"/>
<path class="atom-11" d="M 139.8 70.9 L 140.4 70.9 L 140.4 73.0 L 142.8 73.0 L 142.8 70.9 L 143.5 70.9 L 143.5 75.7 L 142.8 75.7 L 142.8 73.5 L 140.4 73.5 L 140.4 75.7 L 139.8 75.7 L 139.8 70.9 " fill="#FF0000"/>
<path class="atom-12" d="M 129.9 106.7 Q 129.9 105.5, 130.4 104.9 Q 131.0 104.3, 132.1 104.3 Q 133.1 104.3, 133.7 104.9 Q 134.3 105.5, 134.3 106.7 Q 134.3 107.8, 133.7 108.5 Q 133.1 109.2, 132.1 109.2 Q 131.0 109.2, 130.4 108.5 Q 129.9 107.9, 129.9 106.7 M 132.1 108.6 Q 132.8 108.6, 133.2 108.1 Q 133.6 107.6, 133.6 106.7 Q 133.6 105.7, 133.2 105.3 Q 132.8 104.8, 132.1 104.8 Q 131.3 104.8, 130.9 105.3 Q 130.5 105.7, 130.5 106.7 Q 130.5 107.7, 130.9 108.1 Q 131.3 108.6, 132.1 108.6 " fill="#FF0000"/>
<path class="atom-12" d="M 135.0 104.3 L 135.6 104.3 L 135.6 106.3 L 138.1 106.3 L 138.1 104.3 L 138.7 104.3 L 138.7 109.1 L 138.1 109.1 L 138.1 106.9 L 135.6 106.9 L 135.6 109.1 L 135.0 109.1 L 135.0 104.3 " fill="#FF0000"/>
<path class="atom-16" d="M 128.1 118.9 Q 128.1 117.8, 128.7 117.1 Q 129.3 116.5, 130.3 116.5 Q 131.4 116.5, 131.9 117.1 Q 132.5 117.8, 132.5 118.9 Q 132.5 120.1, 131.9 120.7 Q 131.4 121.4, 130.3 121.4 Q 129.3 121.4, 128.7 120.7 Q 128.1 120.1, 128.1 118.9 M 130.3 120.8 Q 131.0 120.8, 131.4 120.4 Q 131.8 119.9, 131.8 118.9 Q 131.8 118.0, 131.4 117.5 Q 131.0 117.0, 130.3 117.0 Q 129.6 117.0, 129.2 117.5 Q 128.8 118.0, 128.8 118.9 Q 128.8 119.9, 129.2 120.4 Q 129.6 120.8, 130.3 120.8 " fill="#FF0000"/>
<path class="atom-17" d="M 151.1 136.9 Q 151.1 135.8, 151.7 135.1 Q 152.2 134.5, 153.3 134.5 Q 154.4 134.5, 154.9 135.1 Q 155.5 135.8, 155.5 136.9 Q 155.5 138.1, 154.9 138.8 Q 154.3 139.4, 153.3 139.4 Q 152.2 139.4, 151.7 138.8 Q 151.1 138.1, 151.1 136.9 M 153.3 138.9 Q 154.0 138.9, 154.4 138.4 Q 154.8 137.9, 154.8 136.9 Q 154.8 136.0, 154.4 135.5 Q 154.0 135.0, 153.3 135.0 Q 152.6 135.0, 152.2 135.5 Q 151.8 136.0, 151.8 136.9 Q 151.8 137.9, 152.2 138.4 Q 152.6 138.9, 153.3 138.9 " fill="#FF0000"/>
<path class="atom-17" d="M 156.2 134.6 L 156.9 134.6 L 156.9 136.6 L 159.3 136.6 L 159.3 134.6 L 160.0 134.6 L 160.0 139.3 L 159.3 139.3 L 159.3 137.1 L 156.9 137.1 L 156.9 139.3 L 156.2 139.3 L 156.2 134.6 " fill="#FF0000"/>
<path class="atom-21" d="M 205.3 115.2 Q 205.3 114.0, 205.9 113.4 Q 206.4 112.7, 207.5 112.7 Q 208.6 112.7, 209.1 113.4 Q 209.7 114.0, 209.7 115.2 Q 209.7 116.3, 209.1 117.0 Q 208.6 117.6, 207.5 117.6 Q 206.5 117.6, 205.9 117.0 Q 205.3 116.3, 205.3 115.2 M 207.5 117.1 Q 208.2 117.1, 208.6 116.6 Q 209.0 116.1, 209.0 115.2 Q 209.0 114.2, 208.6 113.7 Q 208.2 113.3, 207.5 113.3 Q 206.8 113.3, 206.4 113.7 Q 206.0 114.2, 206.0 115.2 Q 206.0 116.1, 206.4 116.6 Q 206.8 117.1, 207.5 117.1 " fill="#FF0000"/>
<path class="atom-27" d="M 251.3 151.2 Q 251.3 150.1, 251.8 149.4 Q 252.4 148.8, 253.5 148.8 Q 254.5 148.8, 255.1 149.4 Q 255.7 150.1, 255.7 151.2 Q 255.7 152.4, 255.1 153.0 Q 254.5 153.7, 253.5 153.7 Q 252.4 153.7, 251.8 153.0 Q 251.3 152.4, 251.3 151.2 M 253.5 153.1 Q 254.2 153.1, 254.6 152.7 Q 255.0 152.2, 255.0 151.2 Q 255.0 150.3, 254.6 149.8 Q 254.2 149.3, 253.5 149.3 Q 252.7 149.3, 252.3 149.8 Q 252.0 150.3, 252.0 151.2 Q 252.0 152.2, 252.3 152.7 Q 252.7 153.1, 253.5 153.1 " fill="#FF0000"/>
<path class="atom-28" d="M 247.2 180.1 Q 247.2 179.0, 247.7 178.3 Q 248.3 177.7, 249.4 177.7 Q 250.4 177.7, 251.0 178.3 Q 251.5 179.0, 251.5 180.1 Q 251.5 181.3, 251.0 181.9 Q 250.4 182.6, 249.4 182.6 Q 248.3 182.6, 247.7 181.9 Q 247.2 181.3, 247.2 180.1 M 249.4 182.1 Q 250.1 182.1, 250.5 181.6 Q 250.9 181.1, 250.9 180.1 Q 250.9 179.2, 250.5 178.7 Q 250.1 178.2, 249.4 178.2 Q 248.6 178.2, 248.2 178.7 Q 247.8 179.2, 247.8 180.1 Q 247.8 181.1, 248.2 181.6 Q 248.6 182.1, 249.4 182.1 " fill="#FF0000"/>
<path class="atom-28" d="M 252.3 177.7 L 252.9 177.7 L 252.9 179.8 L 255.4 179.8 L 255.4 177.7 L 256.0 177.7 L 256.0 182.5 L 255.4 182.5 L 255.4 180.3 L 252.9 180.3 L 252.9 182.5 L 252.3 182.5 L 252.3 177.7 " fill="#FF0000"/>
<path class="atom-30" d="M 174.1 155.0 Q 174.1 153.8, 174.7 153.2 Q 175.2 152.5, 176.3 152.5 Q 177.3 152.5, 177.9 153.2 Q 178.5 153.8, 178.5 155.0 Q 178.5 156.1, 177.9 156.8 Q 177.3 157.4, 176.3 157.4 Q 175.2 157.4, 174.7 156.8 Q 174.1 156.1, 174.1 155.0 M 176.3 156.9 Q 177.0 156.9, 177.4 156.4 Q 177.8 155.9, 177.8 155.0 Q 177.8 154.0, 177.4 153.5 Q 177.0 153.1, 176.3 153.1 Q 175.6 153.1, 175.2 153.5 Q 174.8 154.0, 174.8 155.0 Q 174.8 155.9, 175.2 156.4 Q 175.6 156.9, 176.3 156.9 " fill="#FF0000"/>
<path class="atom-31" d="M 197.1 173.0 Q 197.1 171.8, 197.6 171.2 Q 198.2 170.6, 199.3 170.6 Q 200.3 170.6, 200.9 171.2 Q 201.5 171.8, 201.5 173.0 Q 201.5 174.1, 200.9 174.8 Q 200.3 175.5, 199.3 175.5 Q 198.2 175.5, 197.6 174.8 Q 197.1 174.2, 197.1 173.0 M 199.3 174.9 Q 200.0 174.9, 200.4 174.4 Q 200.8 173.9, 200.8 173.0 Q 200.8 172.0, 200.4 171.6 Q 200.0 171.1, 199.3 171.1 Q 198.5 171.1, 198.1 171.6 Q 197.8 172.0, 197.8 173.0 Q 197.8 173.9, 198.1 174.4 Q 198.5 174.9, 199.3 174.9 " fill="#FF0000"/>
<path class="atom-31" d="M 202.2 170.6 L 202.9 170.6 L 202.9 172.6 L 205.3 172.6 L 205.3 170.6 L 205.9 170.6 L 205.9 175.4 L 205.3 175.4 L 205.3 173.2 L 202.9 173.2 L 202.9 175.4 L 202.2 175.4 L 202.2 170.6 " fill="#FF0000"/>
<path class="atom-37" d="M 223.7 105.3 Q 223.7 104.2, 224.3 103.5 Q 224.9 102.9, 225.9 102.9 Q 227.0 102.9, 227.6 103.5 Q 228.1 104.2, 228.1 105.3 Q 228.1 106.5, 227.6 107.1 Q 227.0 107.8, 225.9 107.8 Q 224.9 107.8, 224.3 107.1 Q 223.7 106.5, 223.7 105.3 M 225.9 107.2 Q 226.7 107.2, 227.1 106.8 Q 227.5 106.3, 227.5 105.3 Q 227.5 104.4, 227.1 103.9 Q 226.7 103.4, 225.9 103.4 Q 225.2 103.4, 224.8 103.9 Q 224.4 104.4, 224.4 105.3 Q 224.4 106.3, 224.8 106.8 Q 225.2 107.2, 225.9 107.2 " fill="#FF0000"/>
<path class="atom-37" d="M 228.9 102.9 L 229.5 102.9 L 229.5 105.0 L 232.0 105.0 L 232.0 102.9 L 232.6 102.9 L 232.6 107.7 L 232.0 107.7 L 232.0 105.5 L 229.5 105.5 L 229.5 107.7 L 228.9 107.7 L 228.9 102.9 " fill="#FF0000"/>
<path class="atom-38" d="M 228.5 71.9 Q 228.5 70.8, 229.1 70.1 Q 229.6 69.5, 230.7 69.5 Q 231.8 69.5, 232.3 70.1 Q 232.9 70.8, 232.9 71.9 Q 232.9 73.1, 232.3 73.7 Q 231.7 74.4, 230.7 74.4 Q 229.6 74.4, 229.1 73.7 Q 228.5 73.1, 228.5 71.9 M 230.7 73.9 Q 231.4 73.9, 231.8 73.4 Q 232.2 72.9, 232.2 71.9 Q 232.2 71.0, 231.8 70.5 Q 231.4 70.0, 230.7 70.0 Q 230.0 70.0, 229.6 70.5 Q 229.2 71.0, 229.2 71.9 Q 229.2 72.9, 229.6 73.4 Q 230.0 73.9, 230.7 73.9 " fill="#FF0000"/>
<path class="atom-38" d="M 233.6 69.5 L 234.3 69.5 L 234.3 71.6 L 236.7 71.6 L 236.7 69.5 L 237.4 69.5 L 237.4 74.3 L 236.7 74.3 L 236.7 72.1 L 234.3 72.1 L 234.3 74.3 L 233.6 74.3 L 233.6 69.5 " fill="#FF0000"/>
<path class="atom-44" d="M 303.3 84.9 Q 303.3 83.7, 303.9 83.1 Q 304.4 82.4, 305.5 82.4 Q 306.6 82.4, 307.1 83.1 Q 307.7 83.7, 307.7 84.9 Q 307.7 86.0, 307.1 86.7 Q 306.6 87.3, 305.5 87.3 Q 304.5 87.3, 303.9 86.7 Q 303.3 86.0, 303.3 84.9 M 305.5 86.8 Q 306.2 86.8, 306.6 86.3 Q 307.0 85.8, 307.0 84.9 Q 307.0 83.9, 306.6 83.4 Q 306.2 83.0, 305.5 83.0 Q 304.8 83.0, 304.4 83.4 Q 304.0 83.9, 304.0 84.9 Q 304.0 85.8, 304.4 86.3 Q 304.8 86.8, 305.5 86.8 " fill="#FF0000"/>
<path class="atom-50" d="M 357.5 63.1 Q 357.5 61.9, 358.1 61.3 Q 358.6 60.6, 359.7 60.6 Q 360.8 60.6, 361.3 61.3 Q 361.9 61.9, 361.9 63.1 Q 361.9 64.2, 361.3 64.9 Q 360.8 65.5, 359.7 65.5 Q 358.7 65.5, 358.1 64.9 Q 357.5 64.2, 357.5 63.1 M 359.7 65.0 Q 360.4 65.0, 360.8 64.5 Q 361.2 64.0, 361.2 63.1 Q 361.2 62.1, 360.8 61.7 Q 360.4 61.2, 359.7 61.2 Q 359.0 61.2, 358.6 61.7 Q 358.2 62.1, 358.2 63.1 Q 358.2 64.0, 358.6 64.5 Q 359.0 65.0, 359.7 65.0 " fill="#FF0000"/>
<path class="atom-51" d="M 361.6 34.2 Q 361.6 33.0, 362.2 32.4 Q 362.8 31.7, 363.8 31.7 Q 364.9 31.7, 365.5 32.4 Q 366.0 33.0, 366.0 34.2 Q 366.0 35.3, 365.4 36.0 Q 364.9 36.6, 363.8 36.6 Q 362.8 36.6, 362.2 36.0 Q 361.6 35.3, 361.6 34.2 M 363.8 36.1 Q 364.6 36.1, 364.9 35.6 Q 365.3 35.1, 365.3 34.2 Q 365.3 33.2, 364.9 32.7 Q 364.6 32.3, 363.8 32.3 Q 363.1 32.3, 362.7 32.7 Q 362.3 33.2, 362.3 34.2 Q 362.3 35.1, 362.7 35.6 Q 363.1 36.1, 363.8 36.1 " fill="#FF0000"/>
<path class="atom-51" d="M 366.8 31.8 L 367.4 31.8 L 367.4 33.8 L 369.9 33.8 L 369.9 31.8 L 370.5 31.8 L 370.5 36.6 L 369.9 36.6 L 369.9 34.4 L 367.4 34.4 L 367.4 36.6 L 366.8 36.6 L 366.8 31.8 " fill="#FF0000"/>
<path class="atom-53" d="M 284.4 37.9 Q 284.4 36.8, 285.0 36.1 Q 285.6 35.5, 286.6 35.5 Q 287.7 35.5, 288.3 36.1 Q 288.8 36.8, 288.8 37.9 Q 288.8 39.1, 288.3 39.7 Q 287.7 40.4, 286.6 40.4 Q 285.6 40.4, 285.0 39.7 Q 284.4 39.1, 284.4 37.9 M 286.6 39.8 Q 287.4 39.8, 287.8 39.4 Q 288.2 38.9, 288.2 37.9 Q 288.2 37.0, 287.8 36.5 Q 287.4 36.0, 286.6 36.0 Q 285.9 36.0, 285.5 36.5 Q 285.1 37.0, 285.1 37.9 Q 285.1 38.9, 285.5 39.4 Q 285.9 39.8, 286.6 39.8 " fill="#FF0000"/>
<path class="atom-54" d="M 311.6 27.0 Q 311.6 25.9, 312.1 25.2 Q 312.7 24.6, 313.7 24.6 Q 314.8 24.6, 315.4 25.2 Q 315.9 25.9, 315.9 27.0 Q 315.9 28.2, 315.4 28.8 Q 314.8 29.5, 313.7 29.5 Q 312.7 29.5, 312.1 28.8 Q 311.6 28.2, 311.6 27.0 M 313.7 29.0 Q 314.5 29.0, 314.9 28.5 Q 315.3 28.0, 315.3 27.0 Q 315.3 26.1, 314.9 25.6 Q 314.5 25.1, 313.7 25.1 Q 313.0 25.1, 312.6 25.6 Q 312.2 26.1, 312.2 27.0 Q 312.2 28.0, 312.6 28.5 Q 313.0 29.0, 313.7 29.0 " fill="#FF0000"/>
<path class="atom-54" d="M 316.7 24.6 L 317.3 24.6 L 317.3 26.7 L 319.8 26.7 L 319.8 24.6 L 320.4 24.6 L 320.4 29.4 L 319.8 29.4 L 319.8 27.2 L 317.3 27.2 L 317.3 29.4 L 316.7 29.4 L 316.7 24.6 " fill="#FF0000"/>
<path class="atom-56" d="M 230.2 59.7 Q 230.2 58.5, 230.8 57.9 Q 231.4 57.3, 232.4 57.3 Q 233.5 57.3, 234.1 57.9 Q 234.6 58.5, 234.6 59.7 Q 234.6 60.9, 234.1 61.5 Q 233.5 62.2, 232.4 62.2 Q 231.4 62.2, 230.8 61.5 Q 230.2 60.9, 230.2 59.7 M 232.4 61.6 Q 233.2 61.6, 233.6 61.1 Q 234.0 60.7, 234.0 59.7 Q 234.0 58.8, 233.6 58.3 Q 233.2 57.8, 232.4 57.8 Q 231.7 57.8, 231.3 58.3 Q 230.9 58.8, 230.9 59.7 Q 230.9 60.7, 231.3 61.1 Q 231.7 61.6, 232.4 61.6 " fill="#FF0000"/>
<path class="atom-57" d="M 257.3 48.8 Q 257.3 47.7, 257.9 47.0 Q 258.5 46.4, 259.5 46.4 Q 260.6 46.4, 261.2 47.0 Q 261.7 47.7, 261.7 48.8 Q 261.7 50.0, 261.2 50.6 Q 260.6 51.3, 259.5 51.3 Q 258.5 51.3, 257.9 50.6 Q 257.3 50.0, 257.3 48.8 M 259.5 50.7 Q 260.3 50.7, 260.7 50.3 Q 261.1 49.8, 261.1 48.8 Q 261.1 47.9, 260.7 47.4 Q 260.3 46.9, 259.5 46.9 Q 258.8 46.9, 258.4 47.4 Q 258.0 47.9, 258.0 48.8 Q 258.0 49.8, 258.4 50.3 Q 258.8 50.7, 259.5 50.7 " fill="#FF0000"/>
<path class="atom-57" d="M 262.5 46.4 L 263.1 46.4 L 263.1 48.5 L 265.6 48.5 L 265.6 46.4 L 266.2 46.4 L 266.2 51.2 L 265.6 51.2 L 265.6 49.0 L 263.1 49.0 L 263.1 51.2 L 262.5 51.2 L 262.5 46.4 " fill="#FF0000"/>
<path class="atom-59" d="M 159.3 79.1 Q 159.3 78.0, 159.9 77.3 Q 160.5 76.7, 161.5 76.7 Q 162.6 76.7, 163.2 77.3 Q 163.7 78.0, 163.7 79.1 Q 163.7 80.3, 163.2 80.9 Q 162.6 81.6, 161.5 81.6 Q 160.5 81.6, 159.9 80.9 Q 159.3 80.3, 159.3 79.1 M 161.5 81.0 Q 162.3 81.0, 162.7 80.6 Q 163.1 80.1, 163.1 79.1 Q 163.1 78.2, 162.7 77.7 Q 162.3 77.2, 161.5 77.2 Q 160.8 77.2, 160.4 77.7 Q 160.0 78.2, 160.0 79.1 Q 160.0 80.1, 160.4 80.6 Q 160.8 81.0, 161.5 81.0 " fill="#FF0000"/>
<path class="atom-60" d="M 186.4 68.2 Q 186.4 67.1, 187.0 66.4 Q 187.6 65.8, 188.6 65.8 Q 189.7 65.8, 190.3 66.4 Q 190.8 67.1, 190.8 68.2 Q 190.8 69.4, 190.3 70.0 Q 189.7 70.7, 188.6 70.7 Q 187.6 70.7, 187.0 70.0 Q 186.4 69.4, 186.4 68.2 M 188.6 70.1 Q 189.4 70.1, 189.8 69.7 Q 190.2 69.2, 190.2 68.2 Q 190.2 67.3, 189.8 66.8 Q 189.4 66.3, 188.6 66.3 Q 187.9 66.3, 187.5 66.8 Q 187.1 67.3, 187.1 68.2 Q 187.1 69.2, 187.5 69.7 Q 187.9 70.1, 188.6 70.1 " fill="#FF0000"/>
<path class="atom-60" d="M 191.6 65.8 L 192.2 65.8 L 192.2 67.9 L 194.7 67.9 L 194.7 65.8 L 195.3 65.8 L 195.3 70.6 L 194.7 70.6 L 194.7 68.4 L 192.2 68.4 L 192.2 70.6 L 191.6 70.6 L 191.6 65.8 " fill="#FF0000"/>
<path class="atom-62" d="M 65.5 80.5 Q 65.5 79.3, 66.0 78.7 Q 66.6 78.1, 67.7 78.1 Q 68.7 78.1, 69.3 78.7 Q 69.9 79.3, 69.9 80.5 Q 69.9 81.6, 69.3 82.3 Q 68.7 83.0, 67.7 83.0 Q 66.6 83.0, 66.0 82.3 Q 65.5 81.6, 65.5 80.5 M 67.7 82.4 Q 68.4 82.4, 68.8 81.9 Q 69.2 81.4, 69.2 80.5 Q 69.2 79.5, 68.8 79.1 Q 68.4 78.6, 67.7 78.6 Q 66.9 78.6, 66.5 79.1 Q 66.1 79.5, 66.1 80.5 Q 66.1 81.4, 66.5 81.9 Q 66.9 82.4, 67.7 82.4 " fill="#FF0000"/>
<path class="atom-63" d="M 88.4 98.5 Q 88.4 97.4, 89.0 96.7 Q 89.6 96.1, 90.6 96.1 Q 91.7 96.1, 92.3 96.7 Q 92.8 97.4, 92.8 98.5 Q 92.8 99.7, 92.3 100.3 Q 91.7 101.0, 90.6 101.0 Q 89.6 101.0, 89.0 100.3 Q 88.4 99.7, 88.4 98.5 M 90.6 100.4 Q 91.4 100.4, 91.8 100.0 Q 92.2 99.5, 92.2 98.5 Q 92.2 97.6, 91.8 97.1 Q 91.4 96.6, 90.6 96.6 Q 89.9 96.6, 89.5 97.1 Q 89.1 97.6, 89.1 98.5 Q 89.1 99.5, 89.5 100.0 Q 89.9 100.4, 90.6 100.4 " fill="#FF0000"/>
<path class="atom-63" d="M 93.6 96.1 L 94.2 96.1 L 94.2 98.2 L 96.7 98.2 L 96.7 96.1 L 97.3 96.1 L 97.3 100.9 L 96.7 100.9 L 96.7 98.7 L 94.2 98.7 L 94.2 100.9 L 93.6 100.9 L 93.6 96.1 " fill="#FF0000"/>
<path class="atom-65" d="M 19.5 44.4 Q 19.5 43.3, 20.1 42.6 Q 20.6 42.0, 21.7 42.0 Q 22.8 42.0, 23.3 42.6 Q 23.9 43.3, 23.9 44.4 Q 23.9 45.6, 23.3 46.3 Q 22.7 46.9, 21.7 46.9 Q 20.6 46.9, 20.1 46.3 Q 19.5 45.6, 19.5 44.4 M 21.7 46.4 Q 22.4 46.4, 22.8 45.9 Q 23.2 45.4, 23.2 44.4 Q 23.2 43.5, 22.8 43.0 Q 22.4 42.5, 21.7 42.5 Q 21.0 42.5, 20.6 43.0 Q 20.2 43.5, 20.2 44.4 Q 20.2 45.4, 20.6 45.9 Q 21.0 46.4, 21.7 46.4 " fill="#FF0000"/>
<path class="atom-66" d="M 42.5 62.5 Q 42.5 61.3, 43.0 60.7 Q 43.6 60.0, 44.7 60.0 Q 45.7 60.0, 46.3 60.7 Q 46.9 61.3, 46.9 62.5 Q 46.9 63.6, 46.3 64.3 Q 45.7 64.9, 44.7 64.9 Q 43.6 64.9, 43.0 64.3 Q 42.5 63.6, 42.5 62.5 M 44.7 64.4 Q 45.4 64.4, 45.8 63.9 Q 46.2 63.4, 46.2 62.5 Q 46.2 61.5, 45.8 61.0 Q 45.4 60.6, 44.7 60.6 Q 43.9 60.6, 43.5 61.0 Q 43.2 61.5, 43.2 62.5 Q 43.2 63.4, 43.5 63.9 Q 43.9 64.4, 44.7 64.4 " fill="#FF0000"/>
<path class="atom-66" d="M 47.6 60.1 L 48.3 60.1 L 48.3 62.1 L 50.7 62.1 L 50.7 60.1 L 51.3 60.1 L 51.3 64.9 L 50.7 64.9 L 50.7 62.7 L 48.3 62.7 L 48.3 64.9 L 47.6 64.9 L 47.6 60.1 " fill="#FF0000"/>
</svg>
