<?xml version='1.0' encoding='ASCII' standalone='yes'?>
<svg xmlns="http://www.w3.org/2000/svg" xmlns:rdkit="http://www.rdkit.org/xml" xmlns:xlink="http://www.w3.org/1999/xlink" version="1.1" baseProfile="full" xml:space="preserve" width="265px" height="200px" viewBox="0 0 265 200">
<!-- END OF HEADER -->
<rect style="opacity:1.0;fill:#FFFFFF;stroke:none" width="265.0" height="200.0" x="0.0" y="0.0"> </rect>
<path class="bond-0 atom-0 atom-1" d="M 22.3,114.8 L 37.0,110.0" style="fill:none;fill-rule:evenodd;stroke:#0000FF;stroke-width:2.0px;stroke-linecap:butt;stroke-linejoin:miter;stroke-opacity:1"/>
<path class="bond-0 atom-0 atom-1" d="M 37.0,110.0 L 51.7,105.1" style="fill:none;fill-rule:evenodd;stroke:#000000;stroke-width:2.0px;stroke-linecap:butt;stroke-linejoin:miter;stroke-opacity:1"/>
<path class="bond-0 atom-0 atom-1" d="M 20.5,109.7 L 35.2,104.8" style="fill:none;fill-rule:evenodd;stroke:#0000FF;stroke-width:2.0px;stroke-linecap:butt;stroke-linejoin:miter;stroke-opacity:1"/>
<path class="bond-0 atom-0 atom-1" d="M 35.2,104.8 L 49.9,99.9" style="fill:none;fill-rule:evenodd;stroke:#000000;stroke-width:2.0px;stroke-linecap:butt;stroke-linejoin:miter;stroke-opacity:1"/>
<path class="bond-0 atom-0 atom-1" d="M 24.0,120.0 L 38.7,115.1" style="fill:none;fill-rule:evenodd;stroke:#0000FF;stroke-width:2.0px;stroke-linecap:butt;stroke-linejoin:miter;stroke-opacity:1"/>
<path class="bond-0 atom-0 atom-1" d="M 38.7,115.1 L 53.4,110.2" style="fill:none;fill-rule:evenodd;stroke:#000000;stroke-width:2.0px;stroke-linecap:butt;stroke-linejoin:miter;stroke-opacity:1"/>
<path class="bond-1 atom-1 atom-2" d="M 51.7,105.1 L 86.2,93.6" style="fill:none;fill-rule:evenodd;stroke:#000000;stroke-width:2.0px;stroke-linecap:butt;stroke-linejoin:miter;stroke-opacity:1"/>
<path class="bond-2 atom-2 atom-3" d="M 86.2,93.6 L 93.5,57.9" style="fill:none;fill-rule:evenodd;stroke:#000000;stroke-width:2.0px;stroke-linecap:butt;stroke-linejoin:miter;stroke-opacity:1"/>
<path class="bond-3 atom-3 atom-4" d="M 93.5,57.9 L 96.5,43.3" style="fill:none;fill-rule:evenodd;stroke:#000000;stroke-width:2.0px;stroke-linecap:butt;stroke-linejoin:miter;stroke-opacity:1"/>
<path class="bond-3 atom-3 atom-4" d="M 96.5,43.3 L 99.5,28.6" style="fill:none;fill-rule:evenodd;stroke:#0000FF;stroke-width:2.0px;stroke-linecap:butt;stroke-linejoin:miter;stroke-opacity:1"/>
<path class="bond-3 atom-3 atom-4" d="M 88.2,56.8 L 91.2,42.2" style="fill:none;fill-rule:evenodd;stroke:#000000;stroke-width:2.0px;stroke-linecap:butt;stroke-linejoin:miter;stroke-opacity:1"/>
<path class="bond-3 atom-3 atom-4" d="M 91.2,42.2 L 94.2,27.5" style="fill:none;fill-rule:evenodd;stroke:#0000FF;stroke-width:2.0px;stroke-linecap:butt;stroke-linejoin:miter;stroke-opacity:1"/>
<path class="bond-3 atom-3 atom-4" d="M 98.8,59.0 L 101.8,44.4" style="fill:none;fill-rule:evenodd;stroke:#000000;stroke-width:2.0px;stroke-linecap:butt;stroke-linejoin:miter;stroke-opacity:1"/>
<path class="bond-3 atom-3 atom-4" d="M 101.8,44.4 L 104.8,29.7" style="fill:none;fill-rule:evenodd;stroke:#0000FF;stroke-width:2.0px;stroke-linecap:butt;stroke-linejoin:miter;stroke-opacity:1"/>
<path class="bond-4 atom-2 atom-5" d="M 86.2,93.6 L 113.4,117.7" style="fill:none;fill-rule:evenodd;stroke:#000000;stroke-width:2.0px;stroke-linecap:butt;stroke-linejoin:miter;stroke-opacity:1"/>
<path class="bond-4 atom-2 atom-5" d="M 84.9,99.7 L 107.4,119.7" style="fill:none;fill-rule:evenodd;stroke:#000000;stroke-width:2.0px;stroke-linecap:butt;stroke-linejoin:miter;stroke-opacity:1"/>
<path class="bond-5 atom-5 atom-6" d="M 113.4,117.7 L 106.1,153.3" style="fill:none;fill-rule:evenodd;stroke:#000000;stroke-width:2.0px;stroke-linecap:butt;stroke-linejoin:miter;stroke-opacity:1"/>
<path class="bond-6 atom-6 atom-7" d="M 106.7,150.3 L 91.7,155.3" style="fill:none;fill-rule:evenodd;stroke:#000000;stroke-width:2.0px;stroke-linecap:butt;stroke-linejoin:miter;stroke-opacity:1"/>
<path class="bond-6 atom-6 atom-7" d="M 91.7,155.3 L 76.6,160.3" style="fill:none;fill-rule:evenodd;stroke:#FF0000;stroke-width:2.0px;stroke-linecap:butt;stroke-linejoin:miter;stroke-opacity:1"/>
<path class="bond-6 atom-6 atom-7" d="M 108.5,155.4 L 93.4,160.4" style="fill:none;fill-rule:evenodd;stroke:#000000;stroke-width:2.0px;stroke-linecap:butt;stroke-linejoin:miter;stroke-opacity:1"/>
<path class="bond-6 atom-6 atom-7" d="M 93.4,160.4 L 78.4,165.5" style="fill:none;fill-rule:evenodd;stroke:#FF0000;stroke-width:2.0px;stroke-linecap:butt;stroke-linejoin:miter;stroke-opacity:1"/>
<path class="bond-7 atom-6 atom-8" d="M 106.1,153.3 L 116.7,162.8" style="fill:none;fill-rule:evenodd;stroke:#000000;stroke-width:2.0px;stroke-linecap:butt;stroke-linejoin:miter;stroke-opacity:1"/>
<path class="bond-7 atom-6 atom-8" d="M 116.7,162.8 L 127.4,172.2" style="fill:none;fill-rule:evenodd;stroke:#FF0000;stroke-width:2.0px;stroke-linecap:butt;stroke-linejoin:miter;stroke-opacity:1"/>
<path class="bond-8 atom-5 atom-9" d="M 113.4,117.7 L 147.9,106.2" style="fill:none;fill-rule:evenodd;stroke:#000000;stroke-width:2.0px;stroke-linecap:butt;stroke-linejoin:miter;stroke-opacity:1"/>
<path class="bond-9 atom-9 atom-10" d="M 147.9,106.2 L 155.2,70.6" style="fill:none;fill-rule:evenodd;stroke:#000000;stroke-width:2.0px;stroke-linecap:butt;stroke-linejoin:miter;stroke-opacity:1"/>
<path class="bond-10 atom-10 atom-11" d="M 155.2,70.6 L 158.2,55.9" style="fill:none;fill-rule:evenodd;stroke:#000000;stroke-width:2.0px;stroke-linecap:butt;stroke-linejoin:miter;stroke-opacity:1"/>
<path class="bond-10 atom-10 atom-11" d="M 158.2,55.9 L 161.2,41.3" style="fill:none;fill-rule:evenodd;stroke:#0000FF;stroke-width:2.0px;stroke-linecap:butt;stroke-linejoin:miter;stroke-opacity:1"/>
<path class="bond-10 atom-10 atom-11" d="M 149.9,69.5 L 152.9,54.8" style="fill:none;fill-rule:evenodd;stroke:#000000;stroke-width:2.0px;stroke-linecap:butt;stroke-linejoin:miter;stroke-opacity:1"/>
<path class="bond-10 atom-10 atom-11" d="M 152.9,54.8 L 155.9,40.2" style="fill:none;fill-rule:evenodd;stroke:#0000FF;stroke-width:2.0px;stroke-linecap:butt;stroke-linejoin:miter;stroke-opacity:1"/>
<path class="bond-10 atom-10 atom-11" d="M 160.6,71.7 L 163.6,57.0" style="fill:none;fill-rule:evenodd;stroke:#000000;stroke-width:2.0px;stroke-linecap:butt;stroke-linejoin:miter;stroke-opacity:1"/>
<path class="bond-10 atom-10 atom-11" d="M 163.6,57.0 L 166.6,42.4" style="fill:none;fill-rule:evenodd;stroke:#0000FF;stroke-width:2.0px;stroke-linecap:butt;stroke-linejoin:miter;stroke-opacity:1"/>
<path class="bond-11 atom-9 atom-12" d="M 147.9,106.2 L 175.1,130.4" style="fill:none;fill-rule:evenodd;stroke:#000000;stroke-width:2.0px;stroke-linecap:butt;stroke-linejoin:miter;stroke-opacity:1"/>
<path class="bond-12 atom-12 atom-13" d="M 175.1,130.4 L 209.6,118.9" style="fill:none;fill-rule:evenodd;stroke:#000000;stroke-width:2.0px;stroke-linecap:butt;stroke-linejoin:miter;stroke-opacity:1"/>
<path class="bond-13 atom-13 atom-14" d="M 212.0,121.0 L 215.1,105.7" style="fill:none;fill-rule:evenodd;stroke:#000000;stroke-width:2.0px;stroke-linecap:butt;stroke-linejoin:miter;stroke-opacity:1"/>
<path class="bond-13 atom-13 atom-14" d="M 215.1,105.7 L 218.3,90.4" style="fill:none;fill-rule:evenodd;stroke:#FF0000;stroke-width:2.0px;stroke-linecap:butt;stroke-linejoin:miter;stroke-opacity:1"/>
<path class="bond-13 atom-13 atom-14" d="M 206.7,119.9 L 209.8,104.6" style="fill:none;fill-rule:evenodd;stroke:#000000;stroke-width:2.0px;stroke-linecap:butt;stroke-linejoin:miter;stroke-opacity:1"/>
<path class="bond-13 atom-13 atom-14" d="M 209.8,104.6 L 212.9,89.3" style="fill:none;fill-rule:evenodd;stroke:#FF0000;stroke-width:2.0px;stroke-linecap:butt;stroke-linejoin:miter;stroke-opacity:1"/>
<path class="bond-14 atom-13 atom-15" d="M 209.6,118.9 L 220.3,128.3" style="fill:none;fill-rule:evenodd;stroke:#000000;stroke-width:2.0px;stroke-linecap:butt;stroke-linejoin:miter;stroke-opacity:1"/>
<path class="bond-14 atom-13 atom-15" d="M 220.3,128.3 L 230.9,137.8" style="fill:none;fill-rule:evenodd;stroke:#FF0000;stroke-width:2.0px;stroke-linecap:butt;stroke-linejoin:miter;stroke-opacity:1"/>
<path d="M 50.9,105.3 L 51.7,105.1 L 53.4,104.5" style="fill:none;stroke:#000000;stroke-width:2.0px;stroke-linecap:butt;stroke-linejoin:miter;stroke-opacity:1;"/>
<path d="M 93.1,59.7 L 93.5,57.9 L 93.6,57.2" style="fill:none;stroke:#000000;stroke-width:2.0px;stroke-linecap:butt;stroke-linejoin:miter;stroke-opacity:1;"/>
<path d="M 106.5,151.6 L 106.1,153.3 L 106.6,153.8" style="fill:none;stroke:#000000;stroke-width:2.0px;stroke-linecap:butt;stroke-linejoin:miter;stroke-opacity:1;"/>
<path d="M 154.9,72.4 L 155.2,70.6 L 155.4,69.8" style="fill:none;stroke:#000000;stroke-width:2.0px;stroke-linecap:butt;stroke-linejoin:miter;stroke-opacity:1;"/>
<path d="M 173.8,129.2 L 175.1,130.4 L 176.9,129.8" style="fill:none;stroke:#000000;stroke-width:2.0px;stroke-linecap:butt;stroke-linejoin:miter;stroke-opacity:1;"/>
<path d="M 207.9,119.4 L 209.6,118.9 L 210.2,119.3" style="fill:none;stroke:#000000;stroke-width:2.0px;stroke-linecap:butt;stroke-linejoin:miter;stroke-opacity:1;"/>
<path class="atom-0" d="M 14.9 111.4 L 18.3 116.9 Q 18.6 117.4, 19.1 118.4 Q 19.7 119.3, 19.7 119.4 L 19.7 111.4 L 21.1 111.4 L 21.1 121.7 L 19.7 121.7 L 16.0 115.7 Q 15.6 115.0, 15.2 114.2 Q 14.7 113.4, 14.6 113.2 L 14.6 121.7 L 13.3 121.7 L 13.3 111.4 L 14.9 111.4 " fill="#0000FF"/>
<path class="atom-4" d="M 98.5 17.1 L 101.9 22.6 Q 102.2 23.1, 102.8 24.1 Q 103.3 25.1, 103.3 25.1 L 103.3 17.1 L 104.7 17.1 L 104.7 27.4 L 103.3 27.4 L 99.7 21.5 Q 99.3 20.8, 98.8 20.0 Q 98.4 19.2, 98.2 18.9 L 98.2 27.4 L 96.9 27.4 L 96.9 17.1 L 98.5 17.1 " fill="#0000FF"/>
<path class="atom-7" d="M 66.8 164.9 Q 66.8 162.4, 68.1 161.0 Q 69.3 159.6, 71.6 159.6 Q 73.9 159.6, 75.1 161.0 Q 76.3 162.4, 76.3 164.9 Q 76.3 167.4, 75.1 168.8 Q 73.8 170.2, 71.6 170.2 Q 69.3 170.2, 68.1 168.8 Q 66.8 167.4, 66.8 164.9 M 71.6 169.0 Q 73.2 169.0, 74.0 168.0 Q 74.9 166.9, 74.9 164.9 Q 74.9 162.8, 74.0 161.8 Q 73.2 160.8, 71.6 160.8 Q 70.0 160.8, 69.1 161.8 Q 68.3 162.8, 68.3 164.9 Q 68.3 167.0, 69.1 168.0 Q 70.0 169.0, 71.6 169.0 " fill="#FF0000"/>
<path class="atom-8" d="M 128.6 177.5 Q 128.6 175.0, 129.8 173.7 Q 131.0 172.3, 133.3 172.3 Q 135.6 172.3, 136.8 173.7 Q 138.0 175.0, 138.0 177.5 Q 138.0 180.0, 136.8 181.5 Q 135.6 182.9, 133.3 182.9 Q 131.0 182.9, 129.8 181.5 Q 128.6 180.0, 128.6 177.5 M 133.3 181.7 Q 134.9 181.7, 135.7 180.7 Q 136.6 179.6, 136.6 177.5 Q 136.6 175.5, 135.7 174.5 Q 134.9 173.4, 133.3 173.4 Q 131.7 173.4, 130.9 174.5 Q 130.0 175.5, 130.0 177.5 Q 130.0 179.6, 130.9 180.7 Q 131.7 181.7, 133.3 181.7 " fill="#FF0000"/>
<path class="atom-8" d="M 139.6 172.4 L 141.0 172.4 L 141.0 176.8 L 146.3 176.8 L 146.3 172.4 L 147.7 172.4 L 147.7 182.7 L 146.3 182.7 L 146.3 177.9 L 141.0 177.9 L 141.0 182.7 L 139.6 182.7 L 139.6 172.4 " fill="#FF0000"/>
<path class="atom-11" d="M 160.3 29.8 L 163.6 35.2 Q 164.0 35.8, 164.5 36.8 Q 165.0 37.7, 165.1 37.8 L 165.1 29.8 L 166.4 29.8 L 166.4 40.1 L 165.0 40.1 L 161.4 34.1 Q 161.0 33.4, 160.5 32.6 Q 160.1 31.8, 160.0 31.6 L 160.0 40.1 L 158.6 40.1 L 158.6 29.8 L 160.3 29.8 " fill="#0000FF"/>
<path class="atom-14" d="M 212.2 83.3 Q 212.2 80.8, 213.4 79.4 Q 214.7 78.0, 217.0 78.0 Q 219.2 78.0, 220.5 79.4 Q 221.7 80.8, 221.7 83.3 Q 221.7 85.8, 220.4 87.2 Q 219.2 88.6, 217.0 88.6 Q 214.7 88.6, 213.4 87.2 Q 212.2 85.8, 212.2 83.3 M 217.0 87.4 Q 218.5 87.4, 219.4 86.4 Q 220.2 85.3, 220.2 83.3 Q 220.2 81.2, 219.4 80.2 Q 218.5 79.2, 217.0 79.2 Q 215.4 79.2, 214.5 80.2 Q 213.7 81.2, 213.7 83.3 Q 213.7 85.3, 214.5 86.4 Q 215.4 87.4, 217.0 87.4 " fill="#FF0000"/>
<path class="atom-15" d="M 232.1 143.0 Q 232.1 140.6, 233.3 139.2 Q 234.6 137.8, 236.9 137.8 Q 239.1 137.8, 240.4 139.2 Q 241.6 140.6, 241.6 143.0 Q 241.6 145.6, 240.3 147.0 Q 239.1 148.4, 236.9 148.4 Q 234.6 148.4, 233.3 147.0 Q 232.1 145.6, 232.1 143.0 M 236.9 147.2 Q 238.4 147.2, 239.3 146.2 Q 240.1 145.1, 240.1 143.0 Q 240.1 141.0, 239.3 140.0 Q 238.4 139.0, 236.9 139.0 Q 235.3 139.0, 234.4 140.0 Q 233.6 141.0, 233.6 143.0 Q 233.6 145.1, 234.4 146.2 Q 235.3 147.2, 236.9 147.2 " fill="#FF0000"/>
<path class="atom-15" d="M 243.2 137.9 L 244.6 137.9 L 244.6 142.3 L 249.9 142.3 L 249.9 137.9 L 251.2 137.9 L 251.2 148.2 L 249.9 148.2 L 249.9 143.5 L 244.6 143.5 L 244.6 148.2 L 243.2 148.2 L 243.2 137.9 " fill="#FF0000"/>
</svg>
