<?xml version='1.0' encoding='ASCII' standalone='yes'?>
<svg xmlns="http://www.w3.org/2000/svg" xmlns:rdkit="http://www.rdkit.org/xml" xmlns:xlink="http://www.w3.org/1999/xlink" version="1.1" baseProfile="full" xml:space="preserve" width="276px" height="200px" viewBox="0 0 276 200">
<!-- END OF HEADER -->
<rect style="opacity:1.0;fill:#FFFFFF;stroke:none" width="276.0" height="200.0" x="0.0" y="0.0"> </rect>
<path class="bond-0 atom-0 atom-1" d="M 261.8,77.7 L 234.6,100.8" style="fill:none;fill-rule:evenodd;stroke:#000000;stroke-width:2.0px;stroke-linecap:butt;stroke-linejoin:miter;stroke-opacity:1"/>
<path class="bond-1 atom-1 atom-2" d="M 234.6,100.8 L 237.2,115.2" style="fill:none;fill-rule:evenodd;stroke:#000000;stroke-width:2.0px;stroke-linecap:butt;stroke-linejoin:miter;stroke-opacity:1"/>
<path class="bond-1 atom-1 atom-2" d="M 237.2,115.2 L 239.9,129.6" style="fill:none;fill-rule:evenodd;stroke:#FF0000;stroke-width:2.0px;stroke-linecap:butt;stroke-linejoin:miter;stroke-opacity:1"/>
<path class="bond-2 atom-1 atom-3" d="M 234.6,100.8 L 201.0,88.8" style="fill:none;fill-rule:evenodd;stroke:#000000;stroke-width:2.0px;stroke-linecap:butt;stroke-linejoin:miter;stroke-opacity:1"/>
<path class="bond-3 atom-3 atom-4" d="M 201.0,88.8 L 173.8,111.9" style="fill:none;fill-rule:evenodd;stroke:#000000;stroke-width:2.0px;stroke-linecap:butt;stroke-linejoin:miter;stroke-opacity:1"/>
<path class="bond-4 atom-4 atom-5" d="M 173.8,111.9 L 176.4,126.3" style="fill:none;fill-rule:evenodd;stroke:#000000;stroke-width:2.0px;stroke-linecap:butt;stroke-linejoin:miter;stroke-opacity:1"/>
<path class="bond-4 atom-4 atom-5" d="M 176.4,126.3 L 179.0,140.8" style="fill:none;fill-rule:evenodd;stroke:#FF0000;stroke-width:2.0px;stroke-linecap:butt;stroke-linejoin:miter;stroke-opacity:1"/>
<path class="bond-5 atom-4 atom-6" d="M 173.8,111.9 L 140.1,99.9" style="fill:none;fill-rule:evenodd;stroke:#000000;stroke-width:2.0px;stroke-linecap:butt;stroke-linejoin:miter;stroke-opacity:1"/>
<path class="bond-6 atom-6 atom-7" d="M 140.1,99.9 L 133.7,64.8" style="fill:none;fill-rule:evenodd;stroke:#000000;stroke-width:2.0px;stroke-linecap:butt;stroke-linejoin:miter;stroke-opacity:1"/>
<path class="bond-7 atom-7 atom-8" d="M 134.3,67.8 L 145.5,58.2" style="fill:none;fill-rule:evenodd;stroke:#000000;stroke-width:2.0px;stroke-linecap:butt;stroke-linejoin:miter;stroke-opacity:1"/>
<path class="bond-7 atom-7 atom-8" d="M 145.5,58.2 L 156.8,48.7" style="fill:none;fill-rule:evenodd;stroke:#FF0000;stroke-width:2.0px;stroke-linecap:butt;stroke-linejoin:miter;stroke-opacity:1"/>
<path class="bond-7 atom-7 atom-8" d="M 130.8,63.8 L 142.1,54.2" style="fill:none;fill-rule:evenodd;stroke:#000000;stroke-width:2.0px;stroke-linecap:butt;stroke-linejoin:miter;stroke-opacity:1"/>
<path class="bond-7 atom-7 atom-8" d="M 142.1,54.2 L 153.3,44.6" style="fill:none;fill-rule:evenodd;stroke:#FF0000;stroke-width:2.0px;stroke-linecap:butt;stroke-linejoin:miter;stroke-opacity:1"/>
<path class="bond-8 atom-7 atom-9" d="M 133.7,64.8 L 119.8,59.8" style="fill:none;fill-rule:evenodd;stroke:#000000;stroke-width:2.0px;stroke-linecap:butt;stroke-linejoin:miter;stroke-opacity:1"/>
<path class="bond-8 atom-7 atom-9" d="M 119.8,59.8 L 105.9,54.9" style="fill:none;fill-rule:evenodd;stroke:#FF0000;stroke-width:2.0px;stroke-linecap:butt;stroke-linejoin:miter;stroke-opacity:1"/>
<path class="bond-9 atom-6 atom-10" d="M 140.1,99.9 L 112.9,123.0" style="fill:none;fill-rule:evenodd;stroke:#000000;stroke-width:2.0px;stroke-linecap:butt;stroke-linejoin:miter;stroke-opacity:1"/>
<path class="bond-10 atom-10 atom-11" d="M 112.9,123.0 L 115.6,137.5" style="fill:none;fill-rule:evenodd;stroke:#000000;stroke-width:2.0px;stroke-linecap:butt;stroke-linejoin:miter;stroke-opacity:1"/>
<path class="bond-10 atom-10 atom-11" d="M 115.6,137.5 L 118.2,151.9" style="fill:none;fill-rule:evenodd;stroke:#FF0000;stroke-width:2.0px;stroke-linecap:butt;stroke-linejoin:miter;stroke-opacity:1"/>
<path class="bond-11 atom-10 atom-12" d="M 112.9,123.0 L 79.3,111.1" style="fill:none;fill-rule:evenodd;stroke:#000000;stroke-width:2.0px;stroke-linecap:butt;stroke-linejoin:miter;stroke-opacity:1"/>
<path class="bond-12 atom-12 atom-13" d="M 79.3,111.1 L 91.3,77.4" style="fill:none;fill-rule:evenodd;stroke:#000000;stroke-width:2.0px;stroke-linecap:butt;stroke-linejoin:miter;stroke-opacity:1"/>
<path class="bond-13 atom-12 atom-14" d="M 79.3,111.1 L 67.3,144.7" style="fill:none;fill-rule:evenodd;stroke:#000000;stroke-width:2.0px;stroke-linecap:butt;stroke-linejoin:miter;stroke-opacity:1"/>
<path class="bond-14 atom-12 atom-15" d="M 79.3,111.1 L 45.6,99.1" style="fill:none;fill-rule:evenodd;stroke:#000000;stroke-width:2.0px;stroke-linecap:butt;stroke-linejoin:miter;stroke-opacity:1"/>
<path class="bond-15 atom-15 atom-16" d="M 45.1,96.0 L 33.8,105.6" style="fill:none;fill-rule:evenodd;stroke:#000000;stroke-width:2.0px;stroke-linecap:butt;stroke-linejoin:miter;stroke-opacity:1"/>
<path class="bond-15 atom-15 atom-16" d="M 33.8,105.6 L 22.5,115.2" style="fill:none;fill-rule:evenodd;stroke:#FF0000;stroke-width:2.0px;stroke-linecap:butt;stroke-linejoin:miter;stroke-opacity:1"/>
<path class="bond-15 atom-15 atom-16" d="M 48.6,100.1 L 37.3,109.7" style="fill:none;fill-rule:evenodd;stroke:#000000;stroke-width:2.0px;stroke-linecap:butt;stroke-linejoin:miter;stroke-opacity:1"/>
<path class="bond-15 atom-15 atom-16" d="M 37.3,109.7 L 26.0,119.3" style="fill:none;fill-rule:evenodd;stroke:#FF0000;stroke-width:2.0px;stroke-linecap:butt;stroke-linejoin:miter;stroke-opacity:1"/>
<path class="bond-16 atom-15 atom-17" d="M 45.6,99.1 L 43.0,84.7" style="fill:none;fill-rule:evenodd;stroke:#000000;stroke-width:2.0px;stroke-linecap:butt;stroke-linejoin:miter;stroke-opacity:1"/>
<path class="bond-16 atom-15 atom-17" d="M 43.0,84.7 L 40.4,70.4" style="fill:none;fill-rule:evenodd;stroke:#FF0000;stroke-width:2.0px;stroke-linecap:butt;stroke-linejoin:miter;stroke-opacity:1"/>
<path d="M 202.6,89.4 L 201.0,88.8 L 199.6,89.9" style="fill:none;stroke:#000000;stroke-width:2.0px;stroke-linecap:butt;stroke-linejoin:miter;stroke-opacity:1;"/>
<path d="M 134.0,66.6 L 133.7,64.8 L 133.0,64.5" style="fill:none;stroke:#000000;stroke-width:2.0px;stroke-linecap:butt;stroke-linejoin:miter;stroke-opacity:1;"/>
<path d="M 47.3,99.7 L 45.6,99.1 L 45.5,98.3" style="fill:none;stroke:#000000;stroke-width:2.0px;stroke-linecap:butt;stroke-linejoin:miter;stroke-opacity:1;"/>
<path class="atom-2" d="M 236.4 135.9 Q 236.4 133.5, 237.6 132.2 Q 238.8 130.8, 241.0 130.8 Q 243.3 130.8, 244.5 132.2 Q 245.7 133.5, 245.7 135.9 Q 245.7 138.4, 244.4 139.8 Q 243.2 141.2, 241.0 141.2 Q 238.8 141.2, 237.6 139.8 Q 236.4 138.4, 236.4 135.9 M 241.0 140.0 Q 242.6 140.0, 243.4 139.0 Q 244.2 138.0, 244.2 135.9 Q 244.2 134.0, 243.4 133.0 Q 242.6 131.9, 241.0 131.9 Q 239.5 131.9, 238.6 132.9 Q 237.8 133.9, 237.8 135.9 Q 237.8 138.0, 238.6 139.0 Q 239.5 140.0, 241.0 140.0 " fill="#FF0000"/>
<path class="atom-2" d="M 247.2 130.9 L 248.6 130.9 L 248.6 135.2 L 253.8 135.2 L 253.8 130.9 L 255.1 130.9 L 255.1 141.0 L 253.8 141.0 L 253.8 136.4 L 248.6 136.4 L 248.6 141.0 L 247.2 141.0 L 247.2 130.9 " fill="#FF0000"/>
<path class="atom-5" d="M 175.5 147.1 Q 175.5 144.6, 176.7 143.3 Q 177.9 141.9, 180.2 141.9 Q 182.4 141.9, 183.6 143.3 Q 184.8 144.6, 184.8 147.1 Q 184.8 149.5, 183.6 150.9 Q 182.4 152.3, 180.2 152.3 Q 178.0 152.3, 176.7 150.9 Q 175.5 149.5, 175.5 147.1 M 180.2 151.2 Q 181.7 151.2, 182.6 150.1 Q 183.4 149.1, 183.4 147.1 Q 183.4 145.1, 182.6 144.1 Q 181.7 143.1, 180.2 143.1 Q 178.6 143.1, 177.8 144.1 Q 177.0 145.1, 177.0 147.1 Q 177.0 149.1, 177.8 150.1 Q 178.6 151.2, 180.2 151.2 " fill="#FF0000"/>
<path class="atom-5" d="M 186.4 142.0 L 187.8 142.0 L 187.8 146.3 L 192.9 146.3 L 192.9 142.0 L 194.3 142.0 L 194.3 152.2 L 192.9 152.2 L 192.9 147.5 L 187.8 147.5 L 187.8 152.2 L 186.4 152.2 L 186.4 142.0 " fill="#FF0000"/>
<path class="atom-8" d="M 156.3 41.7 Q 156.3 39.3, 157.5 37.9 Q 158.7 36.6, 160.9 36.6 Q 163.1 36.6, 164.3 37.9 Q 165.5 39.3, 165.5 41.7 Q 165.5 44.2, 164.3 45.6 Q 163.1 46.9, 160.9 46.9 Q 158.7 46.9, 157.5 45.6 Q 156.3 44.2, 156.3 41.7 M 160.9 45.8 Q 162.4 45.8, 163.3 44.8 Q 164.1 43.7, 164.1 41.7 Q 164.1 39.7, 163.3 38.7 Q 162.4 37.7, 160.9 37.7 Q 159.4 37.7, 158.5 38.7 Q 157.7 39.7, 157.7 41.7 Q 157.7 43.7, 158.5 44.8 Q 159.4 45.8, 160.9 45.8 " fill="#FF0000"/>
<path class="atom-9" d="M 85.4 47.8 L 86.8 47.8 L 86.8 52.1 L 92.0 52.1 L 92.0 47.8 L 93.3 47.8 L 93.3 57.9 L 92.0 57.9 L 92.0 53.2 L 86.8 53.2 L 86.8 57.9 L 85.4 57.9 L 85.4 47.8 " fill="#FF0000"/>
<path class="atom-9" d="M 95.4 52.8 Q 95.4 50.4, 96.6 49.0 Q 97.8 47.7, 100.1 47.7 Q 102.3 47.7, 103.5 49.0 Q 104.7 50.4, 104.7 52.8 Q 104.7 55.3, 103.5 56.7 Q 102.3 58.1, 100.1 58.1 Q 97.8 58.1, 96.6 56.7 Q 95.4 55.3, 95.4 52.8 M 100.1 56.9 Q 101.6 56.9, 102.4 55.9 Q 103.3 54.9, 103.3 52.8 Q 103.3 50.8, 102.4 49.8 Q 101.6 48.8, 100.1 48.8 Q 98.5 48.8, 97.7 49.8 Q 96.8 50.8, 96.8 52.8 Q 96.8 54.9, 97.7 55.9 Q 98.5 56.9, 100.1 56.9 " fill="#FF0000"/>
<path class="atom-11" d="M 114.7 158.2 Q 114.7 155.8, 115.9 154.4 Q 117.1 153.1, 119.3 153.1 Q 121.6 153.1, 122.8 154.4 Q 124.0 155.8, 124.0 158.2 Q 124.0 160.7, 122.8 162.1 Q 121.6 163.4, 119.3 163.4 Q 117.1 163.4, 115.9 162.1 Q 114.7 160.7, 114.7 158.2 M 119.3 162.3 Q 120.9 162.3, 121.7 161.3 Q 122.6 160.2, 122.6 158.2 Q 122.6 156.2, 121.7 155.2 Q 120.9 154.2, 119.3 154.2 Q 117.8 154.2, 117.0 155.2 Q 116.1 156.2, 116.1 158.2 Q 116.1 160.2, 117.0 161.3 Q 117.8 162.3, 119.3 162.3 " fill="#FF0000"/>
<path class="atom-11" d="M 125.6 153.2 L 126.9 153.2 L 126.9 157.5 L 132.1 157.5 L 132.1 153.2 L 133.5 153.2 L 133.5 163.3 L 132.1 163.3 L 132.1 158.6 L 126.9 158.6 L 126.9 163.3 L 125.6 163.3 L 125.6 153.2 " fill="#FF0000"/>
<path class="atom-16" d="M 13.8 122.2 Q 13.8 119.8, 15.0 118.4 Q 16.2 117.1, 18.4 117.1 Q 20.7 117.1, 21.9 118.4 Q 23.1 119.8, 23.1 122.2 Q 23.1 124.7, 21.9 126.1 Q 20.7 127.5, 18.4 127.5 Q 16.2 127.5, 15.0 126.1 Q 13.8 124.7, 13.8 122.2 M 18.4 126.3 Q 20.0 126.3, 20.8 125.3 Q 21.7 124.2, 21.7 122.2 Q 21.7 120.2, 20.8 119.2 Q 20.0 118.2, 18.4 118.2 Q 16.9 118.2, 16.1 119.2 Q 15.2 120.2, 15.2 122.2 Q 15.2 124.3, 16.1 125.3 Q 16.9 126.3, 18.4 126.3 " fill="#FF0000"/>
<path class="atom-17" d="M 34.6 64.0 Q 34.6 61.5, 35.8 60.2 Q 37.0 58.8, 39.2 58.8 Q 41.5 58.8, 42.7 60.2 Q 43.9 61.5, 43.9 64.0 Q 43.9 66.4, 42.7 67.8 Q 41.4 69.2, 39.2 69.2 Q 37.0 69.2, 35.8 67.8 Q 34.6 66.4, 34.6 64.0 M 39.2 68.1 Q 40.8 68.1, 41.6 67.0 Q 42.4 66.0, 42.4 64.0 Q 42.4 62.0, 41.6 61.0 Q 40.8 60.0, 39.2 60.0 Q 37.7 60.0, 36.8 61.0 Q 36.0 62.0, 36.0 64.0 Q 36.0 66.0, 36.8 67.0 Q 37.7 68.1, 39.2 68.1 " fill="#FF0000"/>
<path class="atom-17" d="M 45.4 58.9 L 46.8 58.9 L 46.8 63.2 L 52.0 63.2 L 52.0 58.9 L 53.4 58.9 L 53.4 69.0 L 52.0 69.0 L 52.0 64.4 L 46.8 64.4 L 46.8 69.0 L 45.4 69.0 L 45.4 58.9 " fill="#FF0000"/>
</svg>
