<?xml version='1.0' encoding='ASCII' standalone='yes'?>
<svg xmlns="http://www.w3.org/2000/svg" xmlns:rdkit="http://www.rdkit.org/xml" xmlns:xlink="http://www.w3.org/1999/xlink" version="1.1" baseProfile="full" xml:space="preserve" width="254px" height="200px" viewBox="0 0 254 200">
<!-- END OF HEADER -->
<rect style="opacity:1.0;fill:#FFFFFF;stroke:none" width="254.0" height="200.0" x="0.0" y="0.0"> </rect>
<path class="bond-0 atom-0 atom-1" d="M 12.7,113.2 L 52.6,99.9" style="fill:none;fill-rule:evenodd;stroke:#000000;stroke-width:2.0px;stroke-linecap:butt;stroke-linejoin:miter;stroke-opacity:1"/>
<path class="bond-1 atom-1 atom-2" d="M 52.6,99.9 L 61.0,58.7" style="fill:none;fill-rule:evenodd;stroke:#000000;stroke-width:2.0px;stroke-linecap:butt;stroke-linejoin:miter;stroke-opacity:1"/>
<path class="bond-2 atom-2 atom-3" d="M 61.0,58.7 L 77.5,53.2" style="fill:none;fill-rule:evenodd;stroke:#000000;stroke-width:2.0px;stroke-linecap:butt;stroke-linejoin:miter;stroke-opacity:1"/>
<path class="bond-2 atom-2 atom-3" d="M 77.5,53.2 L 94.0,47.7" style="fill:none;fill-rule:evenodd;stroke:#FF0000;stroke-width:2.0px;stroke-linecap:butt;stroke-linejoin:miter;stroke-opacity:1"/>
<path class="bond-3 atom-1 atom-4" d="M 52.6,99.9 L 84.1,127.8" style="fill:none;fill-rule:evenodd;stroke:#000000;stroke-width:2.0px;stroke-linecap:butt;stroke-linejoin:miter;stroke-opacity:1"/>
<path class="bond-4 atom-4 atom-5" d="M 84.1,127.8 L 124.0,114.5" style="fill:none;fill-rule:evenodd;stroke:#000000;stroke-width:2.0px;stroke-linecap:butt;stroke-linejoin:miter;stroke-opacity:1"/>
<path class="bond-5 atom-5 atom-6" d="M 124.0,114.5 L 129.4,130.8" style="fill:none;fill-rule:evenodd;stroke:#000000;stroke-width:2.0px;stroke-linecap:butt;stroke-linejoin:miter;stroke-opacity:1"/>
<path class="bond-5 atom-5 atom-6" d="M 129.4,130.8 L 134.8,147.0" style="fill:none;fill-rule:evenodd;stroke:#FF0000;stroke-width:2.0px;stroke-linecap:butt;stroke-linejoin:miter;stroke-opacity:1"/>
<path class="bond-6 atom-5 atom-7" d="M 124.0,114.5 L 118.6,98.4" style="fill:none;fill-rule:evenodd;stroke:#000000;stroke-width:2.0px;stroke-linecap:butt;stroke-linejoin:miter;stroke-opacity:1"/>
<path class="bond-6 atom-5 atom-7" d="M 118.6,98.4 L 113.2,82.2" style="fill:none;fill-rule:evenodd;stroke:#FF0000;stroke-width:2.0px;stroke-linecap:butt;stroke-linejoin:miter;stroke-opacity:1"/>
<path class="bond-7 atom-5 atom-8" d="M 124.0,114.5 L 163.9,101.2" style="fill:none;fill-rule:evenodd;stroke:#000000;stroke-width:2.0px;stroke-linecap:butt;stroke-linejoin:miter;stroke-opacity:1"/>
<path class="bond-8 atom-8 atom-9" d="M 163.9,101.2 L 150.5,61.3" style="fill:none;fill-rule:evenodd;stroke:#000000;stroke-width:2.0px;stroke-linecap:butt;stroke-linejoin:miter;stroke-opacity:1"/>
<path class="bond-9 atom-8 atom-10" d="M 163.9,101.2 L 177.2,141.1" style="fill:none;fill-rule:evenodd;stroke:#000000;stroke-width:2.0px;stroke-linecap:butt;stroke-linejoin:miter;stroke-opacity:1"/>
<path class="bond-10 atom-8 atom-11" d="M 163.9,101.2 L 203.8,87.9" style="fill:none;fill-rule:evenodd;stroke:#000000;stroke-width:2.0px;stroke-linecap:butt;stroke-linejoin:miter;stroke-opacity:1"/>
<path class="bond-11 atom-11 atom-12" d="M 200.3,89.0 L 213.3,100.5" style="fill:none;fill-rule:evenodd;stroke:#000000;stroke-width:2.0px;stroke-linecap:butt;stroke-linejoin:miter;stroke-opacity:1"/>
<path class="bond-11 atom-11 atom-12" d="M 213.3,100.5 L 226.3,112.1" style="fill:none;fill-rule:evenodd;stroke:#FF0000;stroke-width:2.0px;stroke-linecap:butt;stroke-linejoin:miter;stroke-opacity:1"/>
<path class="bond-11 atom-11 atom-12" d="M 204.5,84.3 L 217.5,95.8" style="fill:none;fill-rule:evenodd;stroke:#000000;stroke-width:2.0px;stroke-linecap:butt;stroke-linejoin:miter;stroke-opacity:1"/>
<path class="bond-11 atom-11 atom-12" d="M 217.5,95.8 L 230.5,107.3" style="fill:none;fill-rule:evenodd;stroke:#FF0000;stroke-width:2.0px;stroke-linecap:butt;stroke-linejoin:miter;stroke-opacity:1"/>
<path class="bond-12 atom-11 atom-13" d="M 203.8,87.9 L 207.2,71.1" style="fill:none;fill-rule:evenodd;stroke:#000000;stroke-width:2.0px;stroke-linecap:butt;stroke-linejoin:miter;stroke-opacity:1"/>
<path class="bond-12 atom-11 atom-13" d="M 207.2,71.1 L 210.6,54.3" style="fill:none;fill-rule:evenodd;stroke:#FF0000;stroke-width:2.0px;stroke-linecap:butt;stroke-linejoin:miter;stroke-opacity:1"/>
<path d="M 60.6,60.8 L 61.0,58.7 L 61.8,58.5" style="fill:none;stroke:#000000;stroke-width:2.0px;stroke-linecap:butt;stroke-linejoin:miter;stroke-opacity:1;"/>
<path d="M 82.5,126.4 L 84.1,127.8 L 86.1,127.2" style="fill:none;stroke:#000000;stroke-width:2.0px;stroke-linecap:butt;stroke-linejoin:miter;stroke-opacity:1;"/>
<path d="M 201.8,88.5 L 203.8,87.9 L 203.9,87.0" style="fill:none;stroke:#000000;stroke-width:2.0px;stroke-linecap:butt;stroke-linejoin:miter;stroke-opacity:1;"/>
<path class="atom-3" d="M 95.4 45.4 Q 95.4 42.6, 96.8 41.0 Q 98.3 39.4, 100.9 39.4 Q 103.5 39.4, 105.0 41.0 Q 106.4 42.6, 106.4 45.4 Q 106.4 48.3, 104.9 50.0 Q 103.5 51.6, 100.9 51.6 Q 98.3 51.6, 96.8 50.0 Q 95.4 48.4, 95.4 45.4 M 100.9 50.3 Q 102.7 50.3, 103.7 49.1 Q 104.7 47.8, 104.7 45.4 Q 104.7 43.1, 103.7 41.9 Q 102.7 40.7, 100.9 40.7 Q 99.1 40.7, 98.1 41.9 Q 97.1 43.1, 97.1 45.4 Q 97.1 47.9, 98.1 49.1 Q 99.1 50.3, 100.9 50.3 " fill="#FF0000"/>
<path class="atom-3" d="M 108.2 39.5 L 109.8 39.5 L 109.8 44.6 L 115.9 44.6 L 115.9 39.5 L 117.5 39.5 L 117.5 51.4 L 115.9 51.4 L 115.9 45.9 L 109.8 45.9 L 109.8 51.4 L 108.2 51.4 L 108.2 39.5 " fill="#FF0000"/>
<path class="atom-6" d="M 131.8 154.4 Q 131.8 151.6, 133.2 150.0 Q 134.6 148.4, 137.3 148.4 Q 139.9 148.4, 141.3 150.0 Q 142.7 151.6, 142.7 154.4 Q 142.7 157.3, 141.3 159.0 Q 139.9 160.6, 137.3 160.6 Q 134.7 160.6, 133.2 159.0 Q 131.8 157.3, 131.8 154.4 M 137.3 159.3 Q 139.1 159.3, 140.1 158.1 Q 141.1 156.8, 141.1 154.4 Q 141.1 152.1, 140.1 150.9 Q 139.1 149.7, 137.3 149.7 Q 135.5 149.7, 134.5 150.9 Q 133.5 152.1, 133.5 154.4 Q 133.5 156.8, 134.5 158.1 Q 135.5 159.3, 137.3 159.3 " fill="#FF0000"/>
<path class="atom-6" d="M 144.6 148.5 L 146.2 148.5 L 146.2 153.6 L 152.3 153.6 L 152.3 148.5 L 153.9 148.5 L 153.9 160.4 L 152.3 160.4 L 152.3 154.9 L 146.2 154.9 L 146.2 160.4 L 144.6 160.4 L 144.6 148.5 " fill="#FF0000"/>
<path class="atom-7" d="M 105.2 74.6 Q 105.2 71.8, 106.6 70.2 Q 108.0 68.6, 110.7 68.6 Q 113.3 68.6, 114.7 70.2 Q 116.1 71.8, 116.1 74.6 Q 116.1 77.5, 114.7 79.2 Q 113.3 80.8, 110.7 80.8 Q 108.0 80.8, 106.6 79.2 Q 105.2 77.6, 105.2 74.6 M 110.7 79.5 Q 112.5 79.5, 113.4 78.3 Q 114.4 77.0, 114.4 74.6 Q 114.4 72.3, 113.4 71.1 Q 112.5 69.9, 110.7 69.9 Q 108.8 69.9, 107.8 71.1 Q 106.9 72.3, 106.9 74.6 Q 106.9 77.1, 107.8 78.3 Q 108.8 79.5, 110.7 79.5 " fill="#FF0000"/>
<path class="atom-7" d="M 118.0 68.7 L 119.6 68.7 L 119.6 73.8 L 125.7 73.8 L 125.7 68.7 L 127.3 68.7 L 127.3 80.6 L 125.7 80.6 L 125.7 75.1 L 119.6 75.1 L 119.6 80.6 L 118.0 80.6 L 118.0 68.7 " fill="#FF0000"/>
<path class="atom-12" d="M 229.8 115.8 Q 229.8 112.9, 231.2 111.3 Q 232.6 109.7, 235.2 109.7 Q 237.9 109.7, 239.3 111.3 Q 240.7 112.9, 240.7 115.8 Q 240.7 118.7, 239.3 120.3 Q 237.8 122.0, 235.2 122.0 Q 232.6 122.0, 231.2 120.3 Q 229.8 118.7, 229.8 115.8 M 235.2 120.6 Q 237.0 120.6, 238.0 119.4 Q 239.0 118.2, 239.0 115.8 Q 239.0 113.5, 238.0 112.3 Q 237.0 111.1, 235.2 111.1 Q 233.4 111.1, 232.4 112.3 Q 231.4 113.4, 231.4 115.8 Q 231.4 118.2, 232.4 119.4 Q 233.4 120.6, 235.2 120.6 " fill="#FF0000"/>
<path class="atom-13" d="M 206.7 46.7 Q 206.7 43.8, 208.1 42.2 Q 209.5 40.6, 212.2 40.6 Q 214.8 40.6, 216.2 42.2 Q 217.6 43.8, 217.6 46.7 Q 217.6 49.6, 216.2 51.2 Q 214.8 52.9, 212.2 52.9 Q 209.5 52.9, 208.1 51.2 Q 206.7 49.6, 206.7 46.7 M 212.2 51.5 Q 214.0 51.5, 215.0 50.3 Q 216.0 49.1, 216.0 46.7 Q 216.0 44.4, 215.0 43.2 Q 214.0 42.0, 212.2 42.0 Q 210.4 42.0, 209.4 43.2 Q 208.4 44.3, 208.4 46.7 Q 208.4 49.1, 209.4 50.3 Q 210.4 51.5, 212.2 51.5 " fill="#FF0000"/>
<path class="atom-13" d="M 219.5 40.8 L 221.1 40.8 L 221.1 45.8 L 227.2 45.8 L 227.2 40.8 L 228.8 40.8 L 228.8 52.7 L 227.2 52.7 L 227.2 47.2 L 221.1 47.2 L 221.1 52.7 L 219.5 52.7 L 219.5 40.8 " fill="#FF0000"/>
</svg>
