<?xml version='1.0' encoding='ASCII' standalone='yes'?>
<svg xmlns="http://www.w3.org/2000/svg" xmlns:rdkit="http://www.rdkit.org/xml" xmlns:xlink="http://www.w3.org/1999/xlink" version="1.1" baseProfile="full" xml:space="preserve" width="240px" height="200px" viewBox="0 0 240 200">
<!-- END OF HEADER -->
<rect style="opacity:1.0;fill:#FFFFFF;stroke:none" width="240.0" height="200.0" x="0.0" y="0.0"> </rect>
<path class="bond-0 atom-0 atom-1" d="M 103.2,150.5 L 91.5,139.3" style="fill:none;fill-rule:evenodd;stroke:#0000FF;stroke-width:2.0px;stroke-linecap:butt;stroke-linejoin:miter;stroke-opacity:1"/>
<path class="bond-0 atom-0 atom-1" d="M 91.5,139.3 L 79.8,128.1" style="fill:none;fill-rule:evenodd;stroke:#000000;stroke-width:2.0px;stroke-linecap:butt;stroke-linejoin:miter;stroke-opacity:1"/>
<path class="bond-1 atom-1 atom-2" d="M 79.8,128.1 L 41.1,139.4" style="fill:none;fill-rule:evenodd;stroke:#000000;stroke-width:2.0px;stroke-linecap:butt;stroke-linejoin:miter;stroke-opacity:1"/>
<path class="bond-1 atom-1 atom-2" d="M 74.7,123.2 L 42.8,132.6" style="fill:none;fill-rule:evenodd;stroke:#000000;stroke-width:2.0px;stroke-linecap:butt;stroke-linejoin:miter;stroke-opacity:1"/>
<path class="bond-2 atom-2 atom-3" d="M 41.1,139.4 L 12.0,111.6" style="fill:none;fill-rule:evenodd;stroke:#000000;stroke-width:2.0px;stroke-linecap:butt;stroke-linejoin:miter;stroke-opacity:1"/>
<path class="bond-3 atom-3 atom-4" d="M 12.0,111.6 L 21.5,72.4" style="fill:none;fill-rule:evenodd;stroke:#000000;stroke-width:2.0px;stroke-linecap:butt;stroke-linejoin:miter;stroke-opacity:1"/>
<path class="bond-3 atom-3 atom-4" d="M 18.7,109.6 L 26.6,77.3" style="fill:none;fill-rule:evenodd;stroke:#000000;stroke-width:2.0px;stroke-linecap:butt;stroke-linejoin:miter;stroke-opacity:1"/>
<path class="bond-4 atom-4 atom-5" d="M 21.5,72.4 L 60.2,61.1" style="fill:none;fill-rule:evenodd;stroke:#000000;stroke-width:2.0px;stroke-linecap:butt;stroke-linejoin:miter;stroke-opacity:1"/>
<path class="bond-5 atom-5 atom-6" d="M 60.2,61.1 L 89.3,88.9" style="fill:none;fill-rule:evenodd;stroke:#000000;stroke-width:2.0px;stroke-linecap:butt;stroke-linejoin:miter;stroke-opacity:1"/>
<path class="bond-5 atom-5 atom-6" d="M 58.5,67.9 L 82.6,90.9" style="fill:none;fill-rule:evenodd;stroke:#000000;stroke-width:2.0px;stroke-linecap:butt;stroke-linejoin:miter;stroke-opacity:1"/>
<path class="bond-6 atom-6 atom-7" d="M 89.3,88.9 L 127.9,77.6" style="fill:none;fill-rule:evenodd;stroke:#000000;stroke-width:2.0px;stroke-linecap:butt;stroke-linejoin:miter;stroke-opacity:1"/>
<path class="bond-7 atom-7 atom-8" d="M 130.5,80.0 L 134.6,63.2" style="fill:none;fill-rule:evenodd;stroke:#000000;stroke-width:2.0px;stroke-linecap:butt;stroke-linejoin:miter;stroke-opacity:1"/>
<path class="bond-7 atom-7 atom-8" d="M 134.6,63.2 L 138.6,46.5" style="fill:none;fill-rule:evenodd;stroke:#FF0000;stroke-width:2.0px;stroke-linecap:butt;stroke-linejoin:miter;stroke-opacity:1"/>
<path class="bond-7 atom-7 atom-8" d="M 124.6,78.6 L 128.7,61.8" style="fill:none;fill-rule:evenodd;stroke:#000000;stroke-width:2.0px;stroke-linecap:butt;stroke-linejoin:miter;stroke-opacity:1"/>
<path class="bond-7 atom-7 atom-8" d="M 128.7,61.8 L 132.8,45.0" style="fill:none;fill-rule:evenodd;stroke:#FF0000;stroke-width:2.0px;stroke-linecap:butt;stroke-linejoin:miter;stroke-opacity:1"/>
<path class="bond-8 atom-7 atom-9" d="M 127.9,77.6 L 157.1,105.4" style="fill:none;fill-rule:evenodd;stroke:#000000;stroke-width:2.0px;stroke-linecap:butt;stroke-linejoin:miter;stroke-opacity:1"/>
<path class="bond-9 atom-9 atom-10" d="M 157.1,105.4 L 195.7,94.1" style="fill:none;fill-rule:evenodd;stroke:#000000;stroke-width:2.0px;stroke-linecap:butt;stroke-linejoin:miter;stroke-opacity:1"/>
<path class="bond-10 atom-10 atom-11" d="M 195.7,94.1 L 207.0,104.9" style="fill:none;fill-rule:evenodd;stroke:#000000;stroke-width:2.0px;stroke-linecap:butt;stroke-linejoin:miter;stroke-opacity:1"/>
<path class="bond-10 atom-10 atom-11" d="M 207.0,104.9 L 218.3,115.7" style="fill:none;fill-rule:evenodd;stroke:#FF0000;stroke-width:2.0px;stroke-linecap:butt;stroke-linejoin:miter;stroke-opacity:1"/>
<path class="bond-10 atom-10 atom-11" d="M 194.1,100.9 L 202.8,109.3" style="fill:none;fill-rule:evenodd;stroke:#000000;stroke-width:2.0px;stroke-linecap:butt;stroke-linejoin:miter;stroke-opacity:1"/>
<path class="bond-10 atom-10 atom-11" d="M 202.8,109.3 L 214.1,120.0" style="fill:none;fill-rule:evenodd;stroke:#FF0000;stroke-width:2.0px;stroke-linecap:butt;stroke-linejoin:miter;stroke-opacity:1"/>
<path class="bond-11 atom-6 atom-1" d="M 89.3,88.9 L 79.8,128.1" style="fill:none;fill-rule:evenodd;stroke:#000000;stroke-width:2.0px;stroke-linecap:butt;stroke-linejoin:miter;stroke-opacity:1"/>
<path d="M 43.1,138.8 L 41.1,139.4 L 39.7,138.0" style="fill:none;stroke:#000000;stroke-width:2.0px;stroke-linecap:butt;stroke-linejoin:miter;stroke-opacity:1;"/>
<path d="M 13.5,113.0 L 12.0,111.6 L 12.5,109.6" style="fill:none;stroke:#000000;stroke-width:2.0px;stroke-linecap:butt;stroke-linejoin:miter;stroke-opacity:1;"/>
<path d="M 21.0,74.4 L 21.5,72.4 L 23.5,71.9" style="fill:none;stroke:#000000;stroke-width:2.0px;stroke-linecap:butt;stroke-linejoin:miter;stroke-opacity:1;"/>
<path d="M 58.2,61.7 L 60.2,61.1 L 61.6,62.5" style="fill:none;stroke:#000000;stroke-width:2.0px;stroke-linecap:butt;stroke-linejoin:miter;stroke-opacity:1;"/>
<path d="M 126.0,78.2 L 127.9,77.6 L 129.4,79.0" style="fill:none;stroke:#000000;stroke-width:2.0px;stroke-linecap:butt;stroke-linejoin:miter;stroke-opacity:1;"/>
<path d="M 155.6,104.0 L 157.1,105.4 L 159.0,104.9" style="fill:none;stroke:#000000;stroke-width:2.0px;stroke-linecap:butt;stroke-linejoin:miter;stroke-opacity:1;"/>
<path d="M 193.8,94.7 L 195.7,94.1 L 196.3,94.7" style="fill:none;stroke:#000000;stroke-width:2.0px;stroke-linecap:butt;stroke-linejoin:miter;stroke-opacity:1;"/>
<path class="atom-0" d="M 106.4 150.2 L 110.1 156.2 Q 110.5 156.8, 111.1 157.9 Q 111.7 159.0, 111.7 159.0 L 111.7 150.2 L 113.2 150.2 L 113.2 161.6 L 111.7 161.6 L 107.7 155.0 Q 107.2 154.2, 106.7 153.3 Q 106.2 152.4, 106.1 152.2 L 106.1 161.6 L 104.6 161.6 L 104.6 150.2 L 106.4 150.2 " fill="#0000FF"/>
<path class="atom-0" d="M 115.4 150.2 L 117.0 150.2 L 117.0 155.0 L 122.8 155.0 L 122.8 150.2 L 124.3 150.2 L 124.3 161.6 L 122.8 161.6 L 122.8 156.3 L 117.0 156.3 L 117.0 161.6 L 115.4 161.6 L 115.4 150.2 " fill="#0000FF"/>
<path class="atom-0" d="M 126.6 161.2 Q 126.8 160.5, 127.5 160.1 Q 128.2 159.7, 129.1 159.7 Q 130.2 159.7, 130.8 160.3 Q 131.5 160.9, 131.5 162.0 Q 131.5 163.1, 130.7 164.2 Q 129.8 165.2, 128.1 166.4 L 131.6 166.4 L 131.6 167.3 L 126.5 167.3 L 126.5 166.6 Q 127.9 165.6, 128.8 164.8 Q 129.6 164.1, 130.0 163.4 Q 130.4 162.7, 130.4 162.1 Q 130.4 161.3, 130.1 160.9 Q 129.7 160.5, 129.1 160.5 Q 128.5 160.5, 128.1 160.8 Q 127.7 161.0, 127.4 161.6 L 126.6 161.2 " fill="#0000FF"/>
<path class="atom-8" d="M 132.2 38.5 Q 132.2 35.8, 133.6 34.2 Q 134.9 32.7, 137.5 32.7 Q 140.0 32.7, 141.4 34.2 Q 142.7 35.8, 142.7 38.5 Q 142.7 41.3, 141.3 42.9 Q 140.0 44.4, 137.5 44.4 Q 135.0 44.4, 133.6 42.9 Q 132.2 41.3, 132.2 38.5 M 137.5 43.1 Q 139.2 43.1, 140.1 42.0 Q 141.1 40.8, 141.1 38.5 Q 141.1 36.3, 140.1 35.2 Q 139.2 34.0, 137.5 34.0 Q 135.7 34.0, 134.8 35.1 Q 133.8 36.3, 133.8 38.5 Q 133.8 40.8, 134.8 42.0 Q 135.7 43.1, 137.5 43.1 " fill="#FF0000"/>
<path class="atom-11" d="M 217.5 124.1 Q 217.5 121.4, 218.9 119.9 Q 220.2 118.3, 222.8 118.3 Q 225.3 118.3, 226.6 119.9 Q 228.0 121.4, 228.0 124.1 Q 228.0 126.9, 226.6 128.5 Q 225.3 130.1, 222.8 130.1 Q 220.3 130.1, 218.9 128.5 Q 217.5 126.9, 217.5 124.1 M 222.8 128.8 Q 224.5 128.8, 225.4 127.6 Q 226.4 126.4, 226.4 124.1 Q 226.4 121.9, 225.4 120.8 Q 224.5 119.6, 222.8 119.6 Q 221.0 119.6, 220.1 120.8 Q 219.1 121.9, 219.1 124.1 Q 219.1 126.4, 220.1 127.6 Q 221.0 128.8, 222.8 128.8 " fill="#FF0000"/>
</svg>
