<?xml version='1.0' encoding='ASCII' standalone='yes'?>
<svg xmlns="http://www.w3.org/2000/svg" xmlns:rdkit="http://www.rdkit.org/xml" xmlns:xlink="http://www.w3.org/1999/xlink" version="1.1" baseProfile="full" xml:space="preserve" width="260px" height="200px" viewBox="0 0 260 200">
<!-- END OF HEADER -->
<rect style="opacity:1.0;fill:#FFFFFF;stroke:none" width="260.0" height="200.0" x="0.0" y="0.0"> </rect>
<path class="bond-0 atom-0 atom-1" d="M 98.2,147.2 L 92.5,133.4" style="fill:none;fill-rule:evenodd;stroke:#0000FF;stroke-width:2.0px;stroke-linecap:butt;stroke-linejoin:miter;stroke-opacity:1"/>
<path class="bond-0 atom-0 atom-1" d="M 92.5,133.4 L 86.8,119.7" style="fill:none;fill-rule:evenodd;stroke:#000000;stroke-width:2.0px;stroke-linecap:butt;stroke-linejoin:miter;stroke-opacity:1"/>
<path class="bond-1 atom-1 atom-2" d="M 86.8,119.7 L 109.2,90.5" style="fill:none;fill-rule:evenodd;stroke:#000000;stroke-width:2.0px;stroke-linecap:butt;stroke-linejoin:miter;stroke-opacity:1"/>
<path class="bond-2 atom-2 atom-3" d="M 109.2,90.5 L 145.6,95.4" style="fill:none;fill-rule:evenodd;stroke:#000000;stroke-width:2.0px;stroke-linecap:butt;stroke-linejoin:miter;stroke-opacity:1"/>
<path class="bond-3 atom-3 atom-4" d="M 145.6,95.4 L 143.6,110.3" style="fill:none;fill-rule:evenodd;stroke:#000000;stroke-width:2.0px;stroke-linecap:butt;stroke-linejoin:miter;stroke-opacity:1"/>
<path class="bond-3 atom-3 atom-4" d="M 143.6,110.3 L 141.7,125.3" style="fill:none;fill-rule:evenodd;stroke:#FF0000;stroke-width:2.0px;stroke-linecap:butt;stroke-linejoin:miter;stroke-opacity:1"/>
<path class="bond-4 atom-3 atom-5" d="M 145.6,95.4 L 182.0,100.2" style="fill:none;fill-rule:evenodd;stroke:#000000;stroke-width:2.0px;stroke-linecap:butt;stroke-linejoin:miter;stroke-opacity:1"/>
<path class="bond-5 atom-5 atom-6" d="M 182.0,100.2 L 196.1,134.1" style="fill:none;fill-rule:evenodd;stroke:#000000;stroke-width:2.0px;stroke-linecap:butt;stroke-linejoin:miter;stroke-opacity:1"/>
<path class="bond-6 atom-6 atom-7" d="M 194.8,131.2 L 185.7,143.2" style="fill:none;fill-rule:evenodd;stroke:#000000;stroke-width:2.0px;stroke-linecap:butt;stroke-linejoin:miter;stroke-opacity:1"/>
<path class="bond-6 atom-6 atom-7" d="M 185.7,143.2 L 176.5,155.1" style="fill:none;fill-rule:evenodd;stroke:#FF0000;stroke-width:2.0px;stroke-linecap:butt;stroke-linejoin:miter;stroke-opacity:1"/>
<path class="bond-6 atom-6 atom-7" d="M 199.2,134.6 L 190.0,146.5" style="fill:none;fill-rule:evenodd;stroke:#000000;stroke-width:2.0px;stroke-linecap:butt;stroke-linejoin:miter;stroke-opacity:1"/>
<path class="bond-6 atom-6 atom-7" d="M 190.0,146.5 L 180.8,158.5" style="fill:none;fill-rule:evenodd;stroke:#FF0000;stroke-width:2.0px;stroke-linecap:butt;stroke-linejoin:miter;stroke-opacity:1"/>
<path class="bond-7 atom-6 atom-8" d="M 196.1,134.1 L 211.3,136.2" style="fill:none;fill-rule:evenodd;stroke:#000000;stroke-width:2.0px;stroke-linecap:butt;stroke-linejoin:miter;stroke-opacity:1"/>
<path class="bond-7 atom-6 atom-8" d="M 211.3,136.2 L 226.5,138.2" style="fill:none;fill-rule:evenodd;stroke:#FF0000;stroke-width:2.0px;stroke-linecap:butt;stroke-linejoin:miter;stroke-opacity:1"/>
<path class="bond-8 atom-3 atom-9" d="M 145.6,95.4 L 150.5,59.0" style="fill:none;fill-rule:evenodd;stroke:#000000;stroke-width:2.0px;stroke-linecap:butt;stroke-linejoin:miter;stroke-opacity:1"/>
<path class="bond-9 atom-9 atom-10" d="M 153.4,57.7 L 141.2,48.4" style="fill:none;fill-rule:evenodd;stroke:#000000;stroke-width:2.0px;stroke-linecap:butt;stroke-linejoin:miter;stroke-opacity:1"/>
<path class="bond-9 atom-9 atom-10" d="M 141.2,48.4 L 129.0,39.0" style="fill:none;fill-rule:evenodd;stroke:#FF0000;stroke-width:2.0px;stroke-linecap:butt;stroke-linejoin:miter;stroke-opacity:1"/>
<path class="bond-9 atom-9 atom-10" d="M 150.0,62.1 L 137.8,52.7" style="fill:none;fill-rule:evenodd;stroke:#000000;stroke-width:2.0px;stroke-linecap:butt;stroke-linejoin:miter;stroke-opacity:1"/>
<path class="bond-9 atom-9 atom-10" d="M 137.8,52.7 L 125.6,43.4" style="fill:none;fill-rule:evenodd;stroke:#FF0000;stroke-width:2.0px;stroke-linecap:butt;stroke-linejoin:miter;stroke-opacity:1"/>
<path class="bond-10 atom-9 atom-11" d="M 150.5,59.0 L 164.4,53.2" style="fill:none;fill-rule:evenodd;stroke:#000000;stroke-width:2.0px;stroke-linecap:butt;stroke-linejoin:miter;stroke-opacity:1"/>
<path class="bond-10 atom-9 atom-11" d="M 164.4,53.2 L 178.4,47.4" style="fill:none;fill-rule:evenodd;stroke:#FF0000;stroke-width:2.0px;stroke-linecap:butt;stroke-linejoin:miter;stroke-opacity:1"/>
<path class="bond-11 atom-1 atom-12" d="M 86.8,119.7 L 50.4,114.8" style="fill:none;fill-rule:evenodd;stroke:#000000;stroke-width:2.0px;stroke-linecap:butt;stroke-linejoin:miter;stroke-opacity:1"/>
<path class="bond-12 atom-12 atom-13" d="M 53.6,115.3 L 47.6,100.9" style="fill:none;fill-rule:evenodd;stroke:#000000;stroke-width:2.0px;stroke-linecap:butt;stroke-linejoin:miter;stroke-opacity:1"/>
<path class="bond-12 atom-12 atom-13" d="M 47.6,100.9 L 41.7,86.5" style="fill:none;fill-rule:evenodd;stroke:#FF0000;stroke-width:2.0px;stroke-linecap:butt;stroke-linejoin:miter;stroke-opacity:1"/>
<path class="bond-12 atom-12 atom-13" d="M 48.5,117.4 L 42.5,103.0" style="fill:none;fill-rule:evenodd;stroke:#000000;stroke-width:2.0px;stroke-linecap:butt;stroke-linejoin:miter;stroke-opacity:1"/>
<path class="bond-12 atom-12 atom-13" d="M 42.5,103.0 L 36.6,88.6" style="fill:none;fill-rule:evenodd;stroke:#FF0000;stroke-width:2.0px;stroke-linecap:butt;stroke-linejoin:miter;stroke-opacity:1"/>
<path class="bond-13 atom-12 atom-14" d="M 50.4,114.8 L 41.7,126.2" style="fill:none;fill-rule:evenodd;stroke:#000000;stroke-width:2.0px;stroke-linecap:butt;stroke-linejoin:miter;stroke-opacity:1"/>
<path class="bond-13 atom-12 atom-14" d="M 41.7,126.2 L 33.0,137.5" style="fill:none;fill-rule:evenodd;stroke:#FF0000;stroke-width:2.0px;stroke-linecap:butt;stroke-linejoin:miter;stroke-opacity:1"/>
<path d="M 108.1,92.0 L 109.2,90.5 L 111.0,90.8" style="fill:none;stroke:#000000;stroke-width:2.0px;stroke-linecap:butt;stroke-linejoin:miter;stroke-opacity:1;"/>
<path d="M 180.2,100.0 L 182.0,100.2 L 182.7,101.9" style="fill:none;stroke:#000000;stroke-width:2.0px;stroke-linecap:butt;stroke-linejoin:miter;stroke-opacity:1;"/>
<path d="M 195.4,132.4 L 196.1,134.1 L 196.8,134.2" style="fill:none;stroke:#000000;stroke-width:2.0px;stroke-linecap:butt;stroke-linejoin:miter;stroke-opacity:1;"/>
<path d="M 150.2,60.8 L 150.5,59.0 L 151.2,58.7" style="fill:none;stroke:#000000;stroke-width:2.0px;stroke-linecap:butt;stroke-linejoin:miter;stroke-opacity:1;"/>
<path d="M 52.2,115.1 L 50.4,114.8 L 50.0,115.4" style="fill:none;stroke:#000000;stroke-width:2.0px;stroke-linecap:butt;stroke-linejoin:miter;stroke-opacity:1;"/>
<path class="atom-0" d="M 98.6 148.4 L 102.0 153.9 Q 102.3 154.5, 102.9 155.4 Q 103.4 156.4, 103.4 156.5 L 103.4 148.4 L 104.8 148.4 L 104.8 158.8 L 103.4 158.8 L 99.7 152.8 Q 99.3 152.1, 98.8 151.3 Q 98.4 150.5, 98.3 150.2 L 98.3 158.8 L 96.9 158.8 L 96.9 148.4 L 98.6 148.4 " fill="#0000FF"/>
<path class="atom-0" d="M 106.8 148.4 L 108.2 148.4 L 108.2 152.8 L 113.5 152.8 L 113.5 148.4 L 114.9 148.4 L 114.9 158.8 L 113.5 158.8 L 113.5 154.0 L 108.2 154.0 L 108.2 158.8 L 106.8 158.8 L 106.8 148.4 " fill="#0000FF"/>
<path class="atom-0" d="M 117.0 158.4 Q 117.2 157.8, 117.8 157.4 Q 118.4 157.1, 119.3 157.1 Q 120.3 157.1, 120.9 157.6 Q 121.5 158.2, 121.5 159.2 Q 121.5 160.2, 120.7 161.2 Q 120.0 162.1, 118.4 163.2 L 121.6 163.2 L 121.6 164.0 L 116.9 164.0 L 116.9 163.4 Q 118.2 162.4, 119.0 161.8 Q 119.8 161.1, 120.1 160.5 Q 120.5 159.9, 120.5 159.2 Q 120.5 158.6, 120.2 158.2 Q 119.8 157.8, 119.3 157.8 Q 118.7 157.8, 118.3 158.1 Q 118.0 158.3, 117.7 158.8 L 117.0 158.4 " fill="#0000FF"/>
<path class="atom-4" d="M 136.0 131.8 Q 136.0 129.3, 137.3 127.9 Q 138.5 126.5, 140.8 126.5 Q 143.1 126.5, 144.3 127.9 Q 145.6 129.3, 145.6 131.8 Q 145.6 134.3, 144.3 135.8 Q 143.1 137.2, 140.8 137.2 Q 138.5 137.2, 137.3 135.8 Q 136.0 134.4, 136.0 131.8 M 140.8 136.0 Q 142.4 136.0, 143.2 135.0 Q 144.1 133.9, 144.1 131.8 Q 144.1 129.8, 143.2 128.7 Q 142.4 127.7, 140.8 127.7 Q 139.2 127.7, 138.3 128.7 Q 137.5 129.8, 137.5 131.8 Q 137.5 133.9, 138.3 135.0 Q 139.2 136.0, 140.8 136.0 " fill="#FF0000"/>
<path class="atom-4" d="M 147.2 126.6 L 148.6 126.6 L 148.6 131.1 L 153.9 131.1 L 153.9 126.6 L 155.3 126.6 L 155.3 137.0 L 153.9 137.0 L 153.9 132.2 L 148.6 132.2 L 148.6 137.0 L 147.2 137.0 L 147.2 126.6 " fill="#FF0000"/>
<path class="atom-7" d="M 168.9 163.3 Q 168.9 160.8, 170.1 159.4 Q 171.4 158.0, 173.7 158.0 Q 176.0 158.0, 177.2 159.4 Q 178.5 160.8, 178.5 163.3 Q 178.5 165.8, 177.2 167.3 Q 176.0 168.7, 173.7 168.7 Q 171.4 168.7, 170.1 167.3 Q 168.9 165.8, 168.9 163.3 M 173.7 167.5 Q 175.3 167.5, 176.1 166.4 Q 177.0 165.4, 177.0 163.3 Q 177.0 161.2, 176.1 160.2 Q 175.3 159.2, 173.7 159.2 Q 172.1 159.2, 171.2 160.2 Q 170.4 161.2, 170.4 163.3 Q 170.4 165.4, 171.2 166.4 Q 172.1 167.5, 173.7 167.5 " fill="#FF0000"/>
<path class="atom-8" d="M 227.7 139.0 Q 227.7 136.5, 228.9 135.1 Q 230.2 133.7, 232.5 133.7 Q 234.8 133.7, 236.0 135.1 Q 237.2 136.5, 237.2 139.0 Q 237.2 141.5, 236.0 143.0 Q 234.7 144.4, 232.5 144.4 Q 230.2 144.4, 228.9 143.0 Q 227.7 141.5, 227.7 139.0 M 232.5 143.2 Q 234.1 143.2, 234.9 142.2 Q 235.8 141.1, 235.8 139.0 Q 235.8 137.0, 234.9 135.9 Q 234.1 134.9, 232.5 134.9 Q 230.9 134.9, 230.0 135.9 Q 229.2 136.9, 229.2 139.0 Q 229.2 141.1, 230.0 142.2 Q 230.9 143.2, 232.5 143.2 " fill="#FF0000"/>
<path class="atom-8" d="M 238.9 133.8 L 240.3 133.8 L 240.3 138.2 L 245.6 138.2 L 245.6 133.8 L 247.0 133.8 L 247.0 144.2 L 245.6 144.2 L 245.6 139.4 L 240.3 139.4 L 240.3 144.2 L 238.9 144.2 L 238.9 133.8 " fill="#FF0000"/>
<path class="atom-10" d="M 116.6 36.6 Q 116.6 34.1, 117.8 32.7 Q 119.0 31.3, 121.3 31.3 Q 123.6 31.3, 124.9 32.7 Q 126.1 34.1, 126.1 36.6 Q 126.1 39.1, 124.9 40.6 Q 123.6 42.0, 121.3 42.0 Q 119.0 42.0, 117.8 40.6 Q 116.6 39.2, 116.6 36.6 M 121.3 40.8 Q 122.9 40.8, 123.8 39.8 Q 124.6 38.7, 124.6 36.6 Q 124.6 34.6, 123.8 33.5 Q 122.9 32.5, 121.3 32.5 Q 119.7 32.5, 118.9 33.5 Q 118.0 34.6, 118.0 36.6 Q 118.0 38.7, 118.9 39.8 Q 119.7 40.8, 121.3 40.8 " fill="#FF0000"/>
<path class="atom-11" d="M 179.6 45.0 Q 179.6 42.5, 180.9 41.1 Q 182.1 39.7, 184.4 39.7 Q 186.7 39.7, 187.9 41.1 Q 189.2 42.5, 189.2 45.0 Q 189.2 47.5, 187.9 48.9 Q 186.7 50.4, 184.4 50.4 Q 182.1 50.4, 180.9 48.9 Q 179.6 47.5, 179.6 45.0 M 184.4 49.2 Q 186.0 49.2, 186.8 48.1 Q 187.7 47.1, 187.7 45.0 Q 187.7 42.9, 186.8 41.9 Q 186.0 40.9, 184.4 40.9 Q 182.8 40.9, 181.9 41.9 Q 181.1 42.9, 181.1 45.0 Q 181.1 47.1, 181.9 48.1 Q 182.8 49.2, 184.4 49.2 " fill="#FF0000"/>
<path class="atom-11" d="M 190.8 39.8 L 192.2 39.8 L 192.2 44.2 L 197.5 44.2 L 197.5 39.8 L 198.9 39.8 L 198.9 50.2 L 197.5 50.2 L 197.5 45.4 L 192.2 45.4 L 192.2 50.2 L 190.8 50.2 L 190.8 39.8 " fill="#FF0000"/>
<path class="atom-13" d="M 31.6 80.9 Q 31.6 78.4, 32.9 77.0 Q 34.1 75.6, 36.4 75.6 Q 38.7 75.6, 39.9 77.0 Q 41.2 78.4, 41.2 80.9 Q 41.2 83.5, 39.9 84.9 Q 38.7 86.3, 36.4 86.3 Q 34.1 86.3, 32.9 84.9 Q 31.6 83.5, 31.6 80.9 M 36.4 85.1 Q 38.0 85.1, 38.8 84.1 Q 39.7 83.0, 39.7 80.9 Q 39.7 78.9, 38.8 77.9 Q 38.0 76.8, 36.4 76.8 Q 34.8 76.8, 33.9 77.8 Q 33.1 78.9, 33.1 80.9 Q 33.1 83.0, 33.9 84.1 Q 34.8 85.1, 36.4 85.1 " fill="#FF0000"/>
<path class="atom-14" d="M 13.0 138.8 L 14.4 138.8 L 14.4 143.2 L 19.7 143.2 L 19.7 138.8 L 21.1 138.8 L 21.1 149.2 L 19.7 149.2 L 19.7 144.4 L 14.4 144.4 L 14.4 149.2 L 13.0 149.2 L 13.0 138.8 " fill="#FF0000"/>
<path class="atom-14" d="M 23.3 144.0 Q 23.3 141.5, 24.5 140.1 Q 25.7 138.7, 28.0 138.7 Q 30.4 138.7, 31.6 140.1 Q 32.8 141.5, 32.8 144.0 Q 32.8 146.5, 31.6 148.0 Q 30.3 149.4, 28.0 149.4 Q 25.8 149.4, 24.5 148.0 Q 23.3 146.5, 23.3 144.0 M 28.0 148.2 Q 29.6 148.2, 30.5 147.1 Q 31.4 146.1, 31.4 144.0 Q 31.4 141.9, 30.5 140.9 Q 29.6 139.9, 28.0 139.9 Q 26.5 139.9, 25.6 140.9 Q 24.7 141.9, 24.7 144.0 Q 24.7 146.1, 25.6 147.1 Q 26.5 148.2, 28.0 148.2 " fill="#FF0000"/>
</svg>
