<?xml version='1.0' encoding='ASCII' standalone='yes'?>
<svg xmlns="http://www.w3.org/2000/svg" xmlns:rdkit="http://www.rdkit.org/xml" xmlns:xlink="http://www.w3.org/1999/xlink" version="1.1" baseProfile="full" xml:space="preserve" width="260px" height="200px" viewBox="0 0 260 200">
<!-- END OF HEADER -->
<rect style="opacity:1.0;fill:#FFFFFF;stroke:none" width="260.0" height="200.0" x="0.0" y="0.0"> </rect>
<path class="bond-0 atom-0 atom-1" d="M 41.9,125.2 L 42.2,114.4" style="fill:none;fill-rule:evenodd;stroke:#FF0000;stroke-width:2.0px;stroke-linecap:butt;stroke-linejoin:miter;stroke-opacity:1"/>
<path class="bond-0 atom-0 atom-1" d="M 42.2,114.4 L 42.4,103.7" style="fill:none;fill-rule:evenodd;stroke:#000000;stroke-width:2.0px;stroke-linecap:butt;stroke-linejoin:miter;stroke-opacity:1"/>
<path class="bond-0 atom-0 atom-1" d="M 45.6,125.2 L 45.9,114.5" style="fill:none;fill-rule:evenodd;stroke:#FF0000;stroke-width:2.0px;stroke-linecap:butt;stroke-linejoin:miter;stroke-opacity:1"/>
<path class="bond-0 atom-0 atom-1" d="M 45.9,114.5 L 46.1,103.8" style="fill:none;fill-rule:evenodd;stroke:#000000;stroke-width:2.0px;stroke-linecap:butt;stroke-linejoin:miter;stroke-opacity:1"/>
<path class="bond-1 atom-1 atom-2" d="M 44.2,104.8 L 35.7,99.6" style="fill:none;fill-rule:evenodd;stroke:#000000;stroke-width:2.0px;stroke-linecap:butt;stroke-linejoin:miter;stroke-opacity:1"/>
<path class="bond-1 atom-1 atom-2" d="M 35.7,99.6 L 27.2,94.4" style="fill:none;fill-rule:evenodd;stroke:#FF0000;stroke-width:2.0px;stroke-linecap:butt;stroke-linejoin:miter;stroke-opacity:1"/>
<path class="bond-2 atom-1 atom-3" d="M 44.2,104.8 L 65.9,93.0" style="fill:none;fill-rule:evenodd;stroke:#000000;stroke-width:2.0px;stroke-linecap:butt;stroke-linejoin:miter;stroke-opacity:1"/>
<path class="bond-3 atom-3 atom-4" d="M 67.8,94.1 L 68.0,83.4" style="fill:none;fill-rule:evenodd;stroke:#000000;stroke-width:2.0px;stroke-linecap:butt;stroke-linejoin:miter;stroke-opacity:1"/>
<path class="bond-3 atom-3 atom-4" d="M 68.0,83.4 L 68.3,72.8" style="fill:none;fill-rule:evenodd;stroke:#FF0000;stroke-width:2.0px;stroke-linecap:butt;stroke-linejoin:miter;stroke-opacity:1"/>
<path class="bond-3 atom-3 atom-4" d="M 64.1,94.0 L 64.3,83.4" style="fill:none;fill-rule:evenodd;stroke:#000000;stroke-width:2.0px;stroke-linecap:butt;stroke-linejoin:miter;stroke-opacity:1"/>
<path class="bond-3 atom-3 atom-4" d="M 64.3,83.4 L 64.6,72.7" style="fill:none;fill-rule:evenodd;stroke:#FF0000;stroke-width:2.0px;stroke-linecap:butt;stroke-linejoin:miter;stroke-opacity:1"/>
<path class="bond-4 atom-3 atom-5" d="M 65.9,93.0 L 87.1,105.9" style="fill:none;fill-rule:evenodd;stroke:#000000;stroke-width:2.0px;stroke-linecap:butt;stroke-linejoin:miter;stroke-opacity:1"/>
<path class="bond-5 atom-5 atom-6" d="M 87.1,105.9 L 108.8,94.0" style="fill:none;fill-rule:evenodd;stroke:#000000;stroke-width:2.0px;stroke-linecap:butt;stroke-linejoin:miter;stroke-opacity:1"/>
<path class="bond-6 atom-6 atom-7" d="M 108.8,94.0 L 129.9,106.9" style="fill:none;fill-rule:evenodd;stroke:#000000;stroke-width:2.0px;stroke-linecap:butt;stroke-linejoin:miter;stroke-opacity:1"/>
<path class="bond-7 atom-7 atom-8" d="M 129.9,106.9 L 129.6,117.1" style="fill:none;fill-rule:evenodd;stroke:#000000;stroke-width:2.0px;stroke-linecap:butt;stroke-linejoin:miter;stroke-opacity:1"/>
<path class="bond-7 atom-7 atom-8" d="M 129.6,117.1 L 129.4,127.3" style="fill:none;fill-rule:evenodd;stroke:#FF0000;stroke-width:2.0px;stroke-linecap:butt;stroke-linejoin:miter;stroke-opacity:1"/>
<path class="bond-8 atom-7 atom-9" d="M 129.9,106.9 L 151.6,95.1" style="fill:none;fill-rule:evenodd;stroke:#000000;stroke-width:2.0px;stroke-linecap:butt;stroke-linejoin:miter;stroke-opacity:1"/>
<path class="bond-9 atom-9 atom-10" d="M 153.4,96.2 L 153.7,85.5" style="fill:none;fill-rule:evenodd;stroke:#000000;stroke-width:2.0px;stroke-linecap:butt;stroke-linejoin:miter;stroke-opacity:1"/>
<path class="bond-9 atom-9 atom-10" d="M 153.7,85.5 L 153.9,74.8" style="fill:none;fill-rule:evenodd;stroke:#FF0000;stroke-width:2.0px;stroke-linecap:butt;stroke-linejoin:miter;stroke-opacity:1"/>
<path class="bond-9 atom-9 atom-10" d="M 149.7,96.1 L 150.0,85.4" style="fill:none;fill-rule:evenodd;stroke:#000000;stroke-width:2.0px;stroke-linecap:butt;stroke-linejoin:miter;stroke-opacity:1"/>
<path class="bond-9 atom-9 atom-10" d="M 150.0,85.4 L 150.2,74.8" style="fill:none;fill-rule:evenodd;stroke:#FF0000;stroke-width:2.0px;stroke-linecap:butt;stroke-linejoin:miter;stroke-opacity:1"/>
<path class="bond-10 atom-9 atom-11" d="M 151.6,95.1 L 172.7,107.9" style="fill:none;fill-rule:evenodd;stroke:#000000;stroke-width:2.0px;stroke-linecap:butt;stroke-linejoin:miter;stroke-opacity:1"/>
<path class="bond-11 atom-11 atom-12" d="M 172.7,107.9 L 194.4,96.1" style="fill:none;fill-rule:evenodd;stroke:#000000;stroke-width:2.0px;stroke-linecap:butt;stroke-linejoin:miter;stroke-opacity:1"/>
<path class="bond-12 atom-12 atom-13" d="M 194.4,96.1 L 215.5,109.0" style="fill:none;fill-rule:evenodd;stroke:#000000;stroke-width:2.0px;stroke-linecap:butt;stroke-linejoin:miter;stroke-opacity:1"/>
<path class="bond-13 atom-13 atom-14" d="M 215.5,109.0 L 224.3,104.1" style="fill:none;fill-rule:evenodd;stroke:#000000;stroke-width:2.0px;stroke-linecap:butt;stroke-linejoin:miter;stroke-opacity:1"/>
<path class="bond-13 atom-13 atom-14" d="M 224.3,104.1 L 233.2,99.3" style="fill:none;fill-rule:evenodd;stroke:#FF0000;stroke-width:2.0px;stroke-linecap:butt;stroke-linejoin:miter;stroke-opacity:1"/>
<path d="M 43.8,104.6 L 44.2,104.8 L 45.3,104.2" style="fill:none;stroke:#000000;stroke-width:2.0px;stroke-linecap:butt;stroke-linejoin:miter;stroke-opacity:1;"/>
<path d="M 64.9,93.6 L 65.9,93.0 L 67.0,93.6" style="fill:none;stroke:#000000;stroke-width:2.0px;stroke-linecap:butt;stroke-linejoin:miter;stroke-opacity:1;"/>
<path d="M 86.0,105.2 L 87.1,105.9 L 88.1,105.3" style="fill:none;stroke:#000000;stroke-width:2.0px;stroke-linecap:butt;stroke-linejoin:miter;stroke-opacity:1;"/>
<path d="M 107.7,94.6 L 108.8,94.0 L 109.8,94.7" style="fill:none;stroke:#000000;stroke-width:2.0px;stroke-linecap:butt;stroke-linejoin:miter;stroke-opacity:1;"/>
<path d="M 150.5,95.6 L 151.6,95.1 L 152.6,95.7" style="fill:none;stroke:#000000;stroke-width:2.0px;stroke-linecap:butt;stroke-linejoin:miter;stroke-opacity:1;"/>
<path d="M 171.6,107.3 L 172.7,107.9 L 173.8,107.3" style="fill:none;stroke:#000000;stroke-width:2.0px;stroke-linecap:butt;stroke-linejoin:miter;stroke-opacity:1;"/>
<path d="M 193.3,96.7 L 194.4,96.1 L 195.5,96.7" style="fill:none;stroke:#000000;stroke-width:2.0px;stroke-linecap:butt;stroke-linejoin:miter;stroke-opacity:1;"/>
<path d="M 214.5,108.3 L 215.5,109.0 L 216.0,108.7" style="fill:none;stroke:#000000;stroke-width:2.0px;stroke-linecap:butt;stroke-linejoin:miter;stroke-opacity:1;"/>
<path class="atom-0" d="M 40.4 129.6 Q 40.4 127.9, 41.3 127.0 Q 42.1 126.0, 43.6 126.0 Q 45.2 126.0, 46.0 127.0 Q 46.9 127.9, 46.9 129.6 Q 46.9 131.3, 46.0 132.2 Q 45.2 133.2, 43.6 133.2 Q 42.1 133.2, 41.3 132.2 Q 40.4 131.3, 40.4 129.6 M 43.6 132.4 Q 44.7 132.4, 45.3 131.7 Q 45.9 131.0, 45.9 129.6 Q 45.9 128.2, 45.3 127.5 Q 44.7 126.8, 43.6 126.8 Q 42.6 126.8, 42.0 127.5 Q 41.4 128.2, 41.4 129.6 Q 41.4 131.0, 42.0 131.7 Q 42.6 132.4, 43.6 132.4 " fill="#FF0000"/>
<path class="atom-2" d="M 13.0 88.5 L 13.9 88.5 L 13.9 91.5 L 17.5 91.5 L 17.5 88.5 L 18.5 88.5 L 18.5 95.5 L 17.5 95.5 L 17.5 92.3 L 13.9 92.3 L 13.9 95.5 L 13.0 95.5 L 13.0 88.5 " fill="#FF0000"/>
<path class="atom-2" d="M 19.9 92.0 Q 19.9 90.3, 20.7 89.4 Q 21.6 88.4, 23.1 88.4 Q 24.7 88.4, 25.5 89.4 Q 26.3 90.3, 26.3 92.0 Q 26.3 93.7, 25.5 94.6 Q 24.7 95.6, 23.1 95.6 Q 21.6 95.6, 20.7 94.6 Q 19.9 93.7, 19.9 92.0 M 23.1 94.8 Q 24.2 94.8, 24.8 94.1 Q 25.4 93.4, 25.4 92.0 Q 25.4 90.6, 24.8 89.9 Q 24.2 89.2, 23.1 89.2 Q 22.1 89.2, 21.5 89.9 Q 20.9 90.6, 20.9 92.0 Q 20.9 93.4, 21.5 94.1 Q 22.1 94.8, 23.1 94.8 " fill="#FF0000"/>
<path class="atom-4" d="M 63.3 68.3 Q 63.3 66.6, 64.2 65.7 Q 65.0 64.7, 66.5 64.7 Q 68.1 64.7, 68.9 65.7 Q 69.8 66.6, 69.8 68.3 Q 69.8 70.0, 68.9 71.0 Q 68.1 71.9, 66.5 71.9 Q 65.0 71.9, 64.2 71.0 Q 63.3 70.0, 63.3 68.3 M 66.5 71.1 Q 67.6 71.1, 68.2 70.4 Q 68.8 69.7, 68.8 68.3 Q 68.8 66.9, 68.2 66.2 Q 67.6 65.5, 66.5 65.5 Q 65.5 65.5, 64.9 66.2 Q 64.3 66.9, 64.3 68.3 Q 64.3 69.7, 64.9 70.4 Q 65.5 71.1, 66.5 71.1 " fill="#FF0000"/>
<path class="atom-8" d="M 126.1 131.6 Q 126.1 130.0, 126.9 129.0 Q 127.7 128.1, 129.3 128.1 Q 130.8 128.1, 131.7 129.0 Q 132.5 130.0, 132.5 131.6 Q 132.5 133.3, 131.7 134.3 Q 130.8 135.3, 129.3 135.3 Q 127.7 135.3, 126.9 134.3 Q 126.1 133.4, 126.1 131.6 M 129.3 134.5 Q 130.3 134.5, 130.9 133.8 Q 131.5 133.0, 131.5 131.6 Q 131.5 130.3, 130.9 129.6 Q 130.3 128.9, 129.3 128.9 Q 128.2 128.9, 127.6 129.6 Q 127.1 130.3, 127.1 131.6 Q 127.1 133.1, 127.6 133.8 Q 128.2 134.5, 129.3 134.5 " fill="#FF0000"/>
<path class="atom-8" d="M 133.6 128.2 L 134.5 128.2 L 134.5 131.1 L 138.1 131.1 L 138.1 128.2 L 139.1 128.2 L 139.1 135.2 L 138.1 135.2 L 138.1 131.9 L 134.5 131.9 L 134.5 135.2 L 133.6 135.2 L 133.6 128.2 " fill="#FF0000"/>
<path class="atom-10" d="M 149.0 70.4 Q 149.0 68.7, 149.8 67.7 Q 150.6 66.8, 152.2 66.8 Q 153.7 66.8, 154.6 67.7 Q 155.4 68.7, 155.4 70.4 Q 155.4 72.1, 154.6 73.0 Q 153.7 74.0, 152.2 74.0 Q 150.6 74.0, 149.8 73.0 Q 149.0 72.1, 149.0 70.4 M 152.2 73.2 Q 153.2 73.2, 153.8 72.5 Q 154.4 71.8, 154.4 70.4 Q 154.4 69.0, 153.8 68.3 Q 153.2 67.6, 152.2 67.6 Q 151.1 67.6, 150.5 68.3 Q 150.0 69.0, 150.0 70.4 Q 150.0 71.8, 150.5 72.5 Q 151.1 73.2, 152.2 73.2 " fill="#FF0000"/>
<path class="atom-14" d="M 234.0 97.1 Q 234.0 95.5, 234.8 94.5 Q 235.7 93.6, 237.2 93.6 Q 238.8 93.6, 239.6 94.5 Q 240.4 95.5, 240.4 97.1 Q 240.4 98.8, 239.6 99.8 Q 238.7 100.8, 237.2 100.8 Q 235.7 100.8, 234.8 99.8 Q 234.0 98.9, 234.0 97.1 M 237.2 100.0 Q 238.3 100.0, 238.9 99.3 Q 239.4 98.5, 239.4 97.1 Q 239.4 95.8, 238.9 95.1 Q 238.3 94.4, 237.2 94.4 Q 236.1 94.4, 235.6 95.1 Q 235.0 95.8, 235.0 97.1 Q 235.0 98.6, 235.6 99.3 Q 236.1 100.0, 237.2 100.0 " fill="#FF0000"/>
<path class="atom-14" d="M 241.5 93.7 L 242.5 93.7 L 242.5 96.6 L 246.1 96.6 L 246.1 93.7 L 247.0 93.7 L 247.0 100.7 L 246.1 100.7 L 246.1 97.4 L 242.5 97.4 L 242.5 100.7 L 241.5 100.7 L 241.5 93.7 " fill="#FF0000"/>
</svg>
