<?xml version='1.0' encoding='ASCII' standalone='yes'?>
<svg xmlns="http://www.w3.org/2000/svg" xmlns:rdkit="http://www.rdkit.org/xml" xmlns:xlink="http://www.w3.org/1999/xlink" version="1.1" baseProfile="full" xml:space="preserve" width="254px" height="200px" viewBox="0 0 254 200">
<!-- END OF HEADER -->
<rect style="opacity:1.0;fill:#FFFFFF;stroke:none" width="254.0" height="200.0" x="0.0" y="0.0"> </rect>
<path class="bond-0 atom-0 atom-1" d="M 80.9,63.6 L 79.8,99.7" style="fill:none;fill-rule:evenodd;stroke:#000000;stroke-width:2.0px;stroke-linecap:butt;stroke-linejoin:miter;stroke-opacity:1"/>
<path class="bond-0 atom-0 atom-1" d="M 75.7,63.4 L 74.6,99.6" style="fill:none;fill-rule:evenodd;stroke:#000000;stroke-width:2.0px;stroke-linecap:butt;stroke-linejoin:miter;stroke-opacity:1"/>
<path class="bond-1 atom-1 atom-2" d="M 77.3,98.2 L 106.8,116.4" style="fill:none;fill-rule:evenodd;stroke:#000000;stroke-width:2.0px;stroke-linecap:butt;stroke-linejoin:miter;stroke-opacity:1"/>
<path class="bond-2 atom-2 atom-3" d="M 106.8,116.4 L 137.4,99.9" style="fill:none;fill-rule:evenodd;stroke:#000000;stroke-width:2.0px;stroke-linecap:butt;stroke-linejoin:miter;stroke-opacity:1"/>
<path class="bond-3 atom-3 atom-4" d="M 137.4,99.9 L 138.4,65.2" style="fill:none;fill-rule:evenodd;stroke:#000000;stroke-width:2.0px;stroke-linecap:butt;stroke-linejoin:miter;stroke-opacity:1"/>
<path class="bond-4 atom-4 atom-5" d="M 138.4,65.2 L 150.8,58.5" style="fill:none;fill-rule:evenodd;stroke:#000000;stroke-width:2.0px;stroke-linecap:butt;stroke-linejoin:miter;stroke-opacity:1"/>
<path class="bond-4 atom-4 atom-5" d="M 150.8,58.5 L 163.3,51.8" style="fill:none;fill-rule:evenodd;stroke:#FF0000;stroke-width:2.0px;stroke-linecap:butt;stroke-linejoin:miter;stroke-opacity:1"/>
<path class="bond-5 atom-4 atom-6" d="M 138.4,65.2 L 126.4,57.9" style="fill:none;fill-rule:evenodd;stroke:#000000;stroke-width:2.0px;stroke-linecap:butt;stroke-linejoin:miter;stroke-opacity:1"/>
<path class="bond-5 atom-4 atom-6" d="M 126.4,57.9 L 114.5,50.5" style="fill:none;fill-rule:evenodd;stroke:#FF0000;stroke-width:2.0px;stroke-linecap:butt;stroke-linejoin:miter;stroke-opacity:1"/>
<path class="bond-6 atom-3 atom-7" d="M 137.4,99.9 L 166.9,118.1" style="fill:none;fill-rule:evenodd;stroke:#000000;stroke-width:2.0px;stroke-linecap:butt;stroke-linejoin:miter;stroke-opacity:1"/>
<path class="bond-7 atom-7 atom-8" d="M 166.9,118.1 L 166.5,132.4" style="fill:none;fill-rule:evenodd;stroke:#000000;stroke-width:2.0px;stroke-linecap:butt;stroke-linejoin:miter;stroke-opacity:1"/>
<path class="bond-7 atom-7 atom-8" d="M 166.5,132.4 L 166.1,146.7" style="fill:none;fill-rule:evenodd;stroke:#FF0000;stroke-width:2.0px;stroke-linecap:butt;stroke-linejoin:miter;stroke-opacity:1"/>
<path class="bond-8 atom-7 atom-9" d="M 166.9,118.1 L 197.4,101.7" style="fill:none;fill-rule:evenodd;stroke:#000000;stroke-width:2.0px;stroke-linecap:butt;stroke-linejoin:miter;stroke-opacity:1"/>
<path class="bond-9 atom-9 atom-10" d="M 197.4,101.7 L 209.4,109.0" style="fill:none;fill-rule:evenodd;stroke:#000000;stroke-width:2.0px;stroke-linecap:butt;stroke-linejoin:miter;stroke-opacity:1"/>
<path class="bond-9 atom-9 atom-10" d="M 209.4,109.0 L 221.3,116.4" style="fill:none;fill-rule:evenodd;stroke:#FF0000;stroke-width:2.0px;stroke-linecap:butt;stroke-linejoin:miter;stroke-opacity:1"/>
<path class="bond-10 atom-1 atom-11" d="M 77.3,98.2 L 46.7,114.6" style="fill:none;fill-rule:evenodd;stroke:#000000;stroke-width:2.0px;stroke-linecap:butt;stroke-linejoin:miter;stroke-opacity:1"/>
<path class="bond-11 atom-11 atom-12" d="M 49.4,113.2 L 36.8,105.4" style="fill:none;fill-rule:evenodd;stroke:#000000;stroke-width:2.0px;stroke-linecap:butt;stroke-linejoin:miter;stroke-opacity:1"/>
<path class="bond-11 atom-11 atom-12" d="M 36.8,105.4 L 24.2,97.7" style="fill:none;fill-rule:evenodd;stroke:#FF0000;stroke-width:2.0px;stroke-linecap:butt;stroke-linejoin:miter;stroke-opacity:1"/>
<path class="bond-11 atom-11 atom-12" d="M 46.7,117.6 L 34.1,109.9" style="fill:none;fill-rule:evenodd;stroke:#000000;stroke-width:2.0px;stroke-linecap:butt;stroke-linejoin:miter;stroke-opacity:1"/>
<path class="bond-11 atom-11 atom-12" d="M 34.1,109.9 L 21.5,102.1" style="fill:none;fill-rule:evenodd;stroke:#FF0000;stroke-width:2.0px;stroke-linecap:butt;stroke-linejoin:miter;stroke-opacity:1"/>
<path class="bond-12 atom-11 atom-13" d="M 46.7,114.6 L 46.3,128.9" style="fill:none;fill-rule:evenodd;stroke:#000000;stroke-width:2.0px;stroke-linecap:butt;stroke-linejoin:miter;stroke-opacity:1"/>
<path class="bond-12 atom-11 atom-13" d="M 46.3,128.9 L 45.9,143.2" style="fill:none;fill-rule:evenodd;stroke:#FF0000;stroke-width:2.0px;stroke-linecap:butt;stroke-linejoin:miter;stroke-opacity:1"/>
<path d="M 78.8,99.1 L 77.3,98.2 L 75.8,99.0" style="fill:none;stroke:#000000;stroke-width:2.0px;stroke-linecap:butt;stroke-linejoin:miter;stroke-opacity:1;"/>
<path d="M 105.3,115.5 L 106.8,116.4 L 108.3,115.6" style="fill:none;stroke:#000000;stroke-width:2.0px;stroke-linecap:butt;stroke-linejoin:miter;stroke-opacity:1;"/>
<path d="M 195.9,102.5 L 197.4,101.7 L 198.0,102.0" style="fill:none;stroke:#000000;stroke-width:2.0px;stroke-linecap:butt;stroke-linejoin:miter;stroke-opacity:1;"/>
<path d="M 48.3,113.8 L 46.7,114.6 L 46.7,115.3" style="fill:none;stroke:#000000;stroke-width:2.0px;stroke-linecap:butt;stroke-linejoin:miter;stroke-opacity:1;"/>
<path class="atom-5" d="M 164.4 48.8 Q 164.4 46.4, 165.6 45.1 Q 166.7 43.8, 168.9 43.8 Q 171.1 43.8, 172.3 45.1 Q 173.4 46.4, 173.4 48.8 Q 173.4 51.2, 172.3 52.6 Q 171.1 53.9, 168.9 53.9 Q 166.8 53.9, 165.6 52.6 Q 164.4 51.2, 164.4 48.8 M 168.9 52.8 Q 170.4 52.8, 171.2 51.8 Q 172.0 50.8, 172.0 48.8 Q 172.0 46.9, 171.2 45.9 Q 170.4 44.9, 168.9 44.9 Q 167.4 44.9, 166.6 45.9 Q 165.8 46.9, 165.8 48.8 Q 165.8 50.8, 166.6 51.8 Q 167.4 52.8, 168.9 52.8 " fill="#FF0000"/>
<path class="atom-5" d="M 175.0 43.9 L 176.3 43.9 L 176.3 48.1 L 181.3 48.1 L 181.3 43.9 L 182.7 43.9 L 182.7 53.7 L 181.3 53.7 L 181.3 49.2 L 176.3 49.2 L 176.3 53.7 L 175.0 53.7 L 175.0 43.9 " fill="#FF0000"/>
<path class="atom-6" d="M 94.6 42.2 L 96.0 42.2 L 96.0 46.3 L 101.0 46.3 L 101.0 42.2 L 102.3 42.2 L 102.3 52.0 L 101.0 52.0 L 101.0 47.4 L 96.0 47.4 L 96.0 52.0 L 94.6 52.0 L 94.6 42.2 " fill="#FF0000"/>
<path class="atom-6" d="M 104.3 47.0 Q 104.3 44.7, 105.5 43.4 Q 106.7 42.0, 108.8 42.0 Q 111.0 42.0, 112.2 43.4 Q 113.4 44.7, 113.4 47.0 Q 113.4 49.4, 112.2 50.8 Q 111.0 52.1, 108.8 52.1 Q 106.7 52.1, 105.5 50.8 Q 104.3 49.4, 104.3 47.0 M 108.8 51.0 Q 110.3 51.0, 111.2 50.0 Q 112.0 49.0, 112.0 47.0 Q 112.0 45.1, 111.2 44.1 Q 110.3 43.2, 108.8 43.2 Q 107.3 43.2, 106.5 44.1 Q 105.7 45.1, 105.7 47.0 Q 105.7 49.0, 106.5 50.0 Q 107.3 51.0, 108.8 51.0 " fill="#FF0000"/>
<path class="atom-8" d="M 161.4 152.9 Q 161.4 150.5, 162.5 149.2 Q 163.7 147.9, 165.9 147.9 Q 168.1 147.9, 169.2 149.2 Q 170.4 150.5, 170.4 152.9 Q 170.4 155.2, 169.2 156.6 Q 168.0 158.0, 165.9 158.0 Q 163.7 158.0, 162.5 156.6 Q 161.4 155.3, 161.4 152.9 M 165.9 156.8 Q 167.4 156.8, 168.2 155.8 Q 169.0 154.8, 169.0 152.9 Q 169.0 150.9, 168.2 150.0 Q 167.4 149.0, 165.9 149.0 Q 164.4 149.0, 163.6 149.9 Q 162.8 150.9, 162.8 152.9 Q 162.8 154.8, 163.6 155.8 Q 164.4 156.8, 165.9 156.8 " fill="#FF0000"/>
<path class="atom-8" d="M 171.9 148.0 L 173.3 148.0 L 173.3 152.1 L 178.3 152.1 L 178.3 148.0 L 179.6 148.0 L 179.6 157.8 L 178.3 157.8 L 178.3 153.3 L 173.3 153.3 L 173.3 157.8 L 171.9 157.8 L 171.9 148.0 " fill="#FF0000"/>
<path class="atom-10" d="M 222.5 119.9 Q 222.5 117.6, 223.6 116.3 Q 224.8 114.9, 227.0 114.9 Q 229.1 114.9, 230.3 116.3 Q 231.5 117.6, 231.5 119.9 Q 231.5 122.3, 230.3 123.7 Q 229.1 125.0, 227.0 125.0 Q 224.8 125.0, 223.6 123.7 Q 222.5 122.3, 222.5 119.9 M 227.0 123.9 Q 228.5 123.9, 229.3 122.9 Q 230.1 121.9, 230.1 119.9 Q 230.1 118.0, 229.3 117.0 Q 228.5 116.0, 227.0 116.0 Q 225.5 116.0, 224.7 117.0 Q 223.8 118.0, 223.8 119.9 Q 223.8 121.9, 224.7 122.9 Q 225.5 123.9, 227.0 123.9 " fill="#FF0000"/>
<path class="atom-10" d="M 233.0 115.0 L 234.3 115.0 L 234.3 119.2 L 239.4 119.2 L 239.4 115.0 L 240.7 115.0 L 240.7 124.9 L 239.4 124.9 L 239.4 120.3 L 234.3 120.3 L 234.3 124.9 L 233.0 124.9 L 233.0 115.0 " fill="#FF0000"/>
<path class="atom-12" d="M 12.7 96.4 Q 12.7 94.1, 13.9 92.8 Q 15.0 91.4, 17.2 91.4 Q 19.4 91.4, 20.6 92.8 Q 21.7 94.1, 21.7 96.4 Q 21.7 98.8, 20.5 100.2 Q 19.4 101.5, 17.2 101.5 Q 15.0 101.5, 13.9 100.2 Q 12.7 98.8, 12.7 96.4 M 17.2 100.4 Q 18.7 100.4, 19.5 99.4 Q 20.3 98.4, 20.3 96.4 Q 20.3 94.5, 19.5 93.5 Q 18.7 92.5, 17.2 92.5 Q 15.7 92.5, 14.9 93.5 Q 14.1 94.5, 14.1 96.4 Q 14.1 98.4, 14.9 99.4 Q 15.7 100.4, 17.2 100.4 " fill="#FF0000"/>
<path class="atom-13" d="M 41.2 149.3 Q 41.2 147.0, 42.4 145.7 Q 43.5 144.3, 45.7 144.3 Q 47.9 144.3, 49.1 145.7 Q 50.2 147.0, 50.2 149.3 Q 50.2 151.7, 49.1 153.1 Q 47.9 154.4, 45.7 154.4 Q 43.6 154.4, 42.4 153.1 Q 41.2 151.7, 41.2 149.3 M 45.7 153.3 Q 47.2 153.3, 48.0 152.3 Q 48.8 151.3, 48.8 149.3 Q 48.8 147.4, 48.0 146.4 Q 47.2 145.5, 45.7 145.5 Q 44.2 145.5, 43.4 146.4 Q 42.6 147.4, 42.6 149.3 Q 42.6 151.3, 43.4 152.3 Q 44.2 153.3, 45.7 153.3 " fill="#FF0000"/>
<path class="atom-13" d="M 51.8 144.5 L 53.1 144.5 L 53.1 148.6 L 58.1 148.6 L 58.1 144.5 L 59.5 144.5 L 59.5 154.3 L 58.1 154.3 L 58.1 149.7 L 53.1 149.7 L 53.1 154.3 L 51.8 154.3 L 51.8 144.5 " fill="#FF0000"/>
</svg>
