<?xml version='1.0' encoding='ASCII' standalone='yes'?>
<svg xmlns="http://www.w3.org/2000/svg" xmlns:rdkit="http://www.rdkit.org/xml" xmlns:xlink="http://www.w3.org/1999/xlink" version="1.1" baseProfile="full" xml:space="preserve" width="260px" height="200px" viewBox="0 0 260 200">
<!-- END OF HEADER -->
<rect style="opacity:1.0;fill:#FFFFFF;stroke:none" width="260.0" height="200.0" x="0.0" y="0.0"> </rect>
<path class="bond-0 atom-0 atom-1" d="M 208.8,33.7 L 179.7,66.6" style="fill:none;fill-rule:evenodd;stroke:#000000;stroke-width:2.0px;stroke-linecap:butt;stroke-linejoin:miter;stroke-opacity:1"/>
<path class="bond-1 atom-1 atom-2" d="M 179.7,66.6 L 193.8,108.3" style="fill:none;fill-rule:evenodd;stroke:#000000;stroke-width:2.0px;stroke-linecap:butt;stroke-linejoin:miter;stroke-opacity:1"/>
<path class="bond-2 atom-2 atom-3" d="M 191.2,111.1 L 210.1,114.9" style="fill:none;fill-rule:evenodd;stroke:#000000;stroke-width:2.0px;stroke-linecap:butt;stroke-linejoin:miter;stroke-opacity:1"/>
<path class="bond-2 atom-2 atom-3" d="M 210.1,114.9 L 229.0,118.7" style="fill:none;fill-rule:evenodd;stroke:#FF0000;stroke-width:2.0px;stroke-linecap:butt;stroke-linejoin:miter;stroke-opacity:1"/>
<path class="bond-2 atom-2 atom-3" d="M 192.5,104.7 L 211.4,108.5" style="fill:none;fill-rule:evenodd;stroke:#000000;stroke-width:2.0px;stroke-linecap:butt;stroke-linejoin:miter;stroke-opacity:1"/>
<path class="bond-2 atom-2 atom-3" d="M 211.4,108.5 L 230.3,112.3" style="fill:none;fill-rule:evenodd;stroke:#FF0000;stroke-width:2.0px;stroke-linecap:butt;stroke-linejoin:miter;stroke-opacity:1"/>
<path class="bond-3 atom-2 atom-4" d="M 193.8,108.3 L 182.6,120.9" style="fill:none;fill-rule:evenodd;stroke:#000000;stroke-width:2.0px;stroke-linecap:butt;stroke-linejoin:miter;stroke-opacity:1"/>
<path class="bond-3 atom-2 atom-4" d="M 182.6,120.9 L 171.5,133.5" style="fill:none;fill-rule:evenodd;stroke:#FF0000;stroke-width:2.0px;stroke-linecap:butt;stroke-linejoin:miter;stroke-opacity:1"/>
<path class="bond-4 atom-1 atom-5" d="M 179.7,66.6 L 136.7,57.9" style="fill:none;fill-rule:evenodd;stroke:#000000;stroke-width:2.0px;stroke-linecap:butt;stroke-linejoin:miter;stroke-opacity:1"/>
<path class="bond-5 atom-5 atom-6" d="M 136.7,57.9 L 131.0,41.1" style="fill:none;fill-rule:evenodd;stroke:#000000;stroke-width:2.0px;stroke-linecap:butt;stroke-linejoin:miter;stroke-opacity:1"/>
<path class="bond-5 atom-5 atom-6" d="M 131.0,41.1 L 125.3,24.2" style="fill:none;fill-rule:evenodd;stroke:#FF0000;stroke-width:2.0px;stroke-linecap:butt;stroke-linejoin:miter;stroke-opacity:1"/>
<path class="bond-6 atom-5 atom-7" d="M 136.7,57.9 L 107.6,90.9" style="fill:none;fill-rule:evenodd;stroke:#000000;stroke-width:2.0px;stroke-linecap:butt;stroke-linejoin:miter;stroke-opacity:1"/>
<path class="bond-7 atom-7 atom-8" d="M 107.6,90.9 L 140.6,120.0" style="fill:none;fill-rule:evenodd;stroke:#000000;stroke-width:2.0px;stroke-linecap:butt;stroke-linejoin:miter;stroke-opacity:1"/>
<path class="bond-8 atom-7 atom-9" d="M 107.6,90.9 L 78.5,123.9" style="fill:none;fill-rule:evenodd;stroke:#000000;stroke-width:2.0px;stroke-linecap:butt;stroke-linejoin:miter;stroke-opacity:1"/>
<path class="bond-9 atom-9 atom-10" d="M 74.8,123.1 L 80.8,141.0" style="fill:none;fill-rule:evenodd;stroke:#000000;stroke-width:2.0px;stroke-linecap:butt;stroke-linejoin:miter;stroke-opacity:1"/>
<path class="bond-9 atom-9 atom-10" d="M 80.8,141.0 L 86.8,158.8" style="fill:none;fill-rule:evenodd;stroke:#FF0000;stroke-width:2.0px;stroke-linecap:butt;stroke-linejoin:miter;stroke-opacity:1"/>
<path class="bond-9 atom-9 atom-10" d="M 81.1,121.0 L 87.1,138.9" style="fill:none;fill-rule:evenodd;stroke:#000000;stroke-width:2.0px;stroke-linecap:butt;stroke-linejoin:miter;stroke-opacity:1"/>
<path class="bond-9 atom-9 atom-10" d="M 87.1,138.9 L 93.1,156.7" style="fill:none;fill-rule:evenodd;stroke:#FF0000;stroke-width:2.0px;stroke-linecap:butt;stroke-linejoin:miter;stroke-opacity:1"/>
<path class="bond-10 atom-9 atom-11" d="M 78.5,123.9 L 60.6,120.2" style="fill:none;fill-rule:evenodd;stroke:#000000;stroke-width:2.0px;stroke-linecap:butt;stroke-linejoin:miter;stroke-opacity:1"/>
<path class="bond-10 atom-9 atom-11" d="M 60.6,120.2 L 42.6,116.6" style="fill:none;fill-rule:evenodd;stroke:#FF0000;stroke-width:2.0px;stroke-linecap:butt;stroke-linejoin:miter;stroke-opacity:1"/>
<path class="bond-11 atom-7 atom-12" d="M 107.6,90.9 L 74.6,61.8" style="fill:none;fill-rule:evenodd;stroke:#000000;stroke-width:2.0px;stroke-linecap:butt;stroke-linejoin:miter;stroke-opacity:1"/>
<path class="bond-12 atom-12 atom-13" d="M 74.6,61.8 L 33.0,75.9" style="fill:none;fill-rule:evenodd;stroke:#000000;stroke-width:2.0px;stroke-linecap:butt;stroke-linejoin:miter;stroke-opacity:1"/>
<path class="bond-13 atom-12 atom-14" d="M 74.6,61.8 L 78.2,44.3" style="fill:none;fill-rule:evenodd;stroke:#000000;stroke-width:2.0px;stroke-linecap:butt;stroke-linejoin:miter;stroke-opacity:1"/>
<path class="bond-13 atom-12 atom-14" d="M 78.2,44.3 L 81.7,26.7" style="fill:none;fill-rule:evenodd;stroke:#FF0000;stroke-width:2.0px;stroke-linecap:butt;stroke-linejoin:miter;stroke-opacity:1"/>
<path d="M 193.1,106.2 L 193.8,108.3 L 193.2,108.9" style="fill:none;stroke:#000000;stroke-width:2.0px;stroke-linecap:butt;stroke-linejoin:miter;stroke-opacity:1;"/>
<path d="M 80.0,122.2 L 78.5,123.9 L 77.6,123.7" style="fill:none;stroke:#000000;stroke-width:2.0px;stroke-linecap:butt;stroke-linejoin:miter;stroke-opacity:1;"/>
<path class="atom-3" d="M 231.1 117.0 Q 231.1 114.0, 232.6 112.3 Q 234.1 110.7, 236.8 110.7 Q 239.6 110.7, 241.1 112.3 Q 242.5 114.0, 242.5 117.0 Q 242.5 120.0, 241.0 121.7 Q 239.6 123.4, 236.8 123.4 Q 234.1 123.4, 232.6 121.7 Q 231.1 120.0, 231.1 117.0 M 236.8 122.0 Q 238.7 122.0, 239.7 120.8 Q 240.8 119.5, 240.8 117.0 Q 240.8 114.6, 239.7 113.3 Q 238.7 112.1, 236.8 112.1 Q 234.9 112.1, 233.9 113.3 Q 232.9 114.5, 232.9 117.0 Q 232.9 119.5, 233.9 120.8 Q 234.9 122.0, 236.8 122.0 " fill="#FF0000"/>
<path class="atom-4" d="M 146.7 135.1 L 148.4 135.1 L 148.4 140.4 L 154.7 140.4 L 154.7 135.1 L 156.4 135.1 L 156.4 147.5 L 154.7 147.5 L 154.7 141.8 L 148.4 141.8 L 148.4 147.5 L 146.7 147.5 L 146.7 135.1 " fill="#FF0000"/>
<path class="atom-4" d="M 159.0 141.3 Q 159.0 138.3, 160.5 136.6 Q 161.9 134.9, 164.7 134.9 Q 167.5 134.9, 168.9 136.6 Q 170.4 138.3, 170.4 141.3 Q 170.4 144.3, 168.9 146.0 Q 167.4 147.7, 164.7 147.7 Q 161.9 147.7, 160.5 146.0 Q 159.0 144.3, 159.0 141.3 M 164.7 146.3 Q 166.6 146.3, 167.6 145.1 Q 168.6 143.8, 168.6 141.3 Q 168.6 138.8, 167.6 137.6 Q 166.6 136.4, 164.7 136.4 Q 162.8 136.4, 161.8 137.6 Q 160.7 138.8, 160.7 141.3 Q 160.7 143.8, 161.8 145.1 Q 162.8 146.3, 164.7 146.3 " fill="#FF0000"/>
<path class="atom-6" d="M 116.9 16.3 Q 116.9 13.3, 118.4 11.7 Q 119.9 10.0, 122.6 10.0 Q 125.4 10.0, 126.9 11.7 Q 128.4 13.3, 128.4 16.3 Q 128.4 19.4, 126.9 21.1 Q 125.4 22.8, 122.6 22.8 Q 119.9 22.8, 118.4 21.1 Q 116.9 19.4, 116.9 16.3 M 122.6 21.4 Q 124.5 21.4, 125.6 20.1 Q 126.6 18.8, 126.6 16.3 Q 126.6 13.9, 125.6 12.7 Q 124.5 11.4, 122.6 11.4 Q 120.7 11.4, 119.7 12.6 Q 118.7 13.9, 118.7 16.3 Q 118.7 18.8, 119.7 20.1 Q 120.7 21.4, 122.6 21.4 " fill="#FF0000"/>
<path class="atom-6" d="M 130.3 10.1 L 132.0 10.1 L 132.0 15.4 L 138.3 15.4 L 138.3 10.1 L 140.0 10.1 L 140.0 22.6 L 138.3 22.6 L 138.3 16.8 L 132.0 16.8 L 132.0 22.6 L 130.3 22.6 L 130.3 10.1 " fill="#FF0000"/>
<path class="atom-10" d="M 86.8 165.5 Q 86.8 162.6, 88.3 160.9 Q 89.8 159.2, 92.6 159.2 Q 95.3 159.2, 96.8 160.9 Q 98.3 162.6, 98.3 165.5 Q 98.3 168.6, 96.8 170.3 Q 95.3 172.0, 92.6 172.0 Q 89.8 172.0, 88.3 170.3 Q 86.8 168.6, 86.8 165.5 M 92.6 170.6 Q 94.5 170.6, 95.5 169.3 Q 96.5 168.0, 96.5 165.5 Q 96.5 163.1, 95.5 161.9 Q 94.5 160.6, 92.6 160.6 Q 90.7 160.6, 89.6 161.9 Q 88.6 163.1, 88.6 165.5 Q 88.6 168.1, 89.6 169.3 Q 90.7 170.6, 92.6 170.6 " fill="#FF0000"/>
<path class="atom-11" d="M 17.5 109.0 L 19.1 109.0 L 19.1 114.3 L 25.5 114.3 L 25.5 109.0 L 27.2 109.0 L 27.2 121.5 L 25.5 121.5 L 25.5 115.7 L 19.1 115.7 L 19.1 121.5 L 17.5 121.5 L 17.5 109.0 " fill="#FF0000"/>
<path class="atom-11" d="M 29.7 115.2 Q 29.7 112.2, 31.2 110.6 Q 32.7 108.9, 35.5 108.9 Q 38.2 108.9, 39.7 110.6 Q 41.2 112.2, 41.2 115.2 Q 41.2 118.2, 39.7 120.0 Q 38.2 121.7, 35.5 121.7 Q 32.7 121.7, 31.2 120.0 Q 29.7 118.3, 29.7 115.2 M 35.5 120.3 Q 37.4 120.3, 38.4 119.0 Q 39.4 117.7, 39.4 115.2 Q 39.4 112.8, 38.4 111.5 Q 37.4 110.3, 35.5 110.3 Q 33.6 110.3, 32.5 111.5 Q 31.5 112.8, 31.5 115.2 Q 31.5 117.7, 32.5 119.0 Q 33.6 120.3, 35.5 120.3 " fill="#FF0000"/>
<path class="atom-14" d="M 77.6 18.8 Q 77.6 15.8, 79.1 14.1 Q 80.6 12.5, 83.3 12.5 Q 86.1 12.5, 87.6 14.1 Q 89.0 15.8, 89.0 18.8 Q 89.0 21.8, 87.5 23.5 Q 86.0 25.3, 83.3 25.3 Q 80.6 25.3, 79.1 23.5 Q 77.6 21.8, 77.6 18.8 M 83.3 23.8 Q 85.2 23.8, 86.2 22.6 Q 87.3 21.3, 87.3 18.8 Q 87.3 16.4, 86.2 15.1 Q 85.2 13.9, 83.3 13.9 Q 81.4 13.9, 80.4 15.1 Q 79.4 16.3, 79.4 18.8 Q 79.4 21.3, 80.4 22.6 Q 81.4 23.8, 83.3 23.8 " fill="#FF0000"/>
<path class="atom-14" d="M 91.0 12.6 L 92.7 12.6 L 92.7 17.9 L 99.0 17.9 L 99.0 12.6 L 100.7 12.6 L 100.7 25.1 L 99.0 25.1 L 99.0 19.3 L 92.7 19.3 L 92.7 25.1 L 91.0 25.1 L 91.0 12.6 " fill="#FF0000"/>
<path class="legend" d="M 121.5 181.9 Q 121.5 179.6, 122.2 177.7 Q 122.8 175.8, 124.1 173.8 L 125.0 174.4 Q 124.0 176.3, 123.4 178.0 Q 122.9 179.7, 122.9 181.9 Q 122.9 184.0, 123.4 185.8 Q 124.0 187.5, 125.0 189.4 L 124.1 190.0 Q 122.8 188.0, 122.2 186.1 Q 121.5 184.2, 121.5 181.9 " fill="#000000"/>
<path class="legend" d="M 125.9 177.3 Q 126.4 176.2, 127.3 175.6 Q 128.3 175.0, 129.7 175.0 Q 131.4 175.0, 132.4 175.9 Q 133.3 176.8, 133.3 178.5 Q 133.3 180.2, 132.1 181.7 Q 130.9 183.3, 128.3 185.2 L 133.5 185.2 L 133.5 186.4 L 125.9 186.4 L 125.9 185.4 Q 128.0 183.9, 129.3 182.8 Q 130.5 181.6, 131.1 180.6 Q 131.7 179.6, 131.7 178.6 Q 131.7 177.5, 131.2 176.9 Q 130.7 176.3, 129.7 176.3 Q 128.8 176.3, 128.2 176.6 Q 127.6 177.0, 127.2 177.8 L 125.9 177.3 " fill="#000000"/>
<path class="legend" d="M 138.5 181.9 Q 138.5 184.2, 137.8 186.1 Q 137.2 188.0, 135.9 190.0 L 135.0 189.4 Q 136.0 187.5, 136.5 185.8 Q 137.1 184.0, 137.1 181.9 Q 137.1 179.7, 136.5 178.0 Q 136.0 176.3, 135.0 174.4 L 135.9 173.8 Q 137.2 175.8, 137.8 177.7 Q 138.5 179.6, 138.5 181.9 " fill="#000000"/>
</svg>
