<?xml version='1.0' encoding='ASCII' standalone='yes'?>
<svg xmlns="http://www.w3.org/2000/svg" xmlns:rdkit="http://www.rdkit.org/xml" xmlns:xlink="http://www.w3.org/1999/xlink" version="1.1" baseProfile="full" xml:space="preserve" width="240px" height="200px" viewBox="0 0 240 200">
<!-- END OF HEADER -->
<rect style="opacity:1.0;fill:#FFFFFF;stroke:none" width="240.0" height="200.0" x="0.0" y="0.0"> </rect>
<path class="bond-0 atom-0 atom-1" d="M 12.0,93.9 L 50.9,118.3" style="fill:none;fill-rule:evenodd;stroke:#000000;stroke-width:2.0px;stroke-linecap:butt;stroke-linejoin:miter;stroke-opacity:1"/>
<path class="bond-1 atom-1 atom-2" d="M 50.9,118.3 L 49.2,164.2" style="fill:none;fill-rule:evenodd;stroke:#000000;stroke-width:2.0px;stroke-linecap:butt;stroke-linejoin:miter;stroke-opacity:1"/>
<path class="bond-2 atom-1 atom-3" d="M 50.9,118.3 L 91.5,96.8" style="fill:none;fill-rule:evenodd;stroke:#000000;stroke-width:2.0px;stroke-linecap:butt;stroke-linejoin:miter;stroke-opacity:1"/>
<path class="bond-3 atom-3 atom-4" d="M 91.5,96.8 L 93.1,50.9" style="fill:none;fill-rule:evenodd;stroke:#000000;stroke-width:2.0px;stroke-linecap:butt;stroke-linejoin:miter;stroke-opacity:1"/>
<path class="bond-4 atom-4 atom-5" d="M 96.6,49.0 L 80.1,38.7" style="fill:none;fill-rule:evenodd;stroke:#000000;stroke-width:2.0px;stroke-linecap:butt;stroke-linejoin:miter;stroke-opacity:1"/>
<path class="bond-4 atom-4 atom-5" d="M 80.1,38.7 L 63.5,28.3" style="fill:none;fill-rule:evenodd;stroke:#FF0000;stroke-width:2.0px;stroke-linecap:butt;stroke-linejoin:miter;stroke-opacity:1"/>
<path class="bond-4 atom-4 atom-5" d="M 93.0,54.9 L 76.4,44.5" style="fill:none;fill-rule:evenodd;stroke:#000000;stroke-width:2.0px;stroke-linecap:butt;stroke-linejoin:miter;stroke-opacity:1"/>
<path class="bond-4 atom-4 atom-5" d="M 76.4,44.5 L 59.9,34.1" style="fill:none;fill-rule:evenodd;stroke:#FF0000;stroke-width:2.0px;stroke-linecap:butt;stroke-linejoin:miter;stroke-opacity:1"/>
<path class="bond-5 atom-4 atom-6" d="M 93.1,50.9 L 109.7,42.1" style="fill:none;fill-rule:evenodd;stroke:#000000;stroke-width:2.0px;stroke-linecap:butt;stroke-linejoin:miter;stroke-opacity:1"/>
<path class="bond-5 atom-4 atom-6" d="M 109.7,42.1 L 126.2,33.4" style="fill:none;fill-rule:evenodd;stroke:#FF0000;stroke-width:2.0px;stroke-linecap:butt;stroke-linejoin:miter;stroke-opacity:1"/>
<path class="bond-6 atom-3 atom-7" d="M 91.5,96.8 L 130.4,121.2" style="fill:none;fill-rule:evenodd;stroke:#000000;stroke-width:2.0px;stroke-linecap:butt;stroke-linejoin:miter;stroke-opacity:1"/>
<path class="bond-7 atom-7 atom-8" d="M 130.4,121.2 L 129.7,140.1" style="fill:none;fill-rule:evenodd;stroke:#000000;stroke-width:2.0px;stroke-linecap:butt;stroke-linejoin:miter;stroke-opacity:1"/>
<path class="bond-7 atom-7 atom-8" d="M 129.7,140.1 L 129.0,159.0" style="fill:none;fill-rule:evenodd;stroke:#0000FF;stroke-width:2.0px;stroke-linecap:butt;stroke-linejoin:miter;stroke-opacity:1"/>
<path class="bond-8 atom-7 atom-9" d="M 130.4,121.2 L 170.9,99.7" style="fill:none;fill-rule:evenodd;stroke:#000000;stroke-width:2.0px;stroke-linecap:butt;stroke-linejoin:miter;stroke-opacity:1"/>
<path class="bond-9 atom-9 atom-10" d="M 174.3,101.8 L 175.0,82.0" style="fill:none;fill-rule:evenodd;stroke:#000000;stroke-width:2.0px;stroke-linecap:butt;stroke-linejoin:miter;stroke-opacity:1"/>
<path class="bond-9 atom-9 atom-10" d="M 175.0,82.0 L 175.7,62.2" style="fill:none;fill-rule:evenodd;stroke:#FF0000;stroke-width:2.0px;stroke-linecap:butt;stroke-linejoin:miter;stroke-opacity:1"/>
<path class="bond-9 atom-9 atom-10" d="M 167.4,101.5 L 168.1,81.7" style="fill:none;fill-rule:evenodd;stroke:#000000;stroke-width:2.0px;stroke-linecap:butt;stroke-linejoin:miter;stroke-opacity:1"/>
<path class="bond-9 atom-9 atom-10" d="M 168.1,81.7 L 168.9,62.0" style="fill:none;fill-rule:evenodd;stroke:#FF0000;stroke-width:2.0px;stroke-linecap:butt;stroke-linejoin:miter;stroke-opacity:1"/>
<path class="bond-10 atom-9 atom-11" d="M 170.9,99.7 L 186.6,109.5" style="fill:none;fill-rule:evenodd;stroke:#000000;stroke-width:2.0px;stroke-linecap:butt;stroke-linejoin:miter;stroke-opacity:1"/>
<path class="bond-10 atom-9 atom-11" d="M 186.6,109.5 L 202.4,119.4" style="fill:none;fill-rule:evenodd;stroke:#FF0000;stroke-width:2.0px;stroke-linecap:butt;stroke-linejoin:miter;stroke-opacity:1"/>
<path d="M 93.0,53.2 L 93.1,50.9 L 94.0,50.5" style="fill:none;stroke:#000000;stroke-width:2.0px;stroke-linecap:butt;stroke-linejoin:miter;stroke-opacity:1;"/>
<path d="M 168.9,100.7 L 170.9,99.7 L 171.7,100.2" style="fill:none;stroke:#000000;stroke-width:2.0px;stroke-linecap:butt;stroke-linejoin:miter;stroke-opacity:1;"/>
<path class="atom-5" d="M 48.3 26.6 Q 48.3 23.4, 49.8 21.7 Q 51.3 20.0, 54.2 20.0 Q 57.1 20.0, 58.7 21.7 Q 60.2 23.4, 60.2 26.6 Q 60.2 29.7, 58.6 31.5 Q 57.1 33.3, 54.2 33.3 Q 51.4 33.3, 49.8 31.5 Q 48.3 29.7, 48.3 26.6 M 54.2 31.8 Q 56.2 31.8, 57.3 30.5 Q 58.4 29.2, 58.4 26.6 Q 58.4 24.0, 57.3 22.7 Q 56.2 21.4, 54.2 21.4 Q 52.2 21.4, 51.2 22.7 Q 50.1 24.0, 50.1 26.6 Q 50.1 29.2, 51.2 30.5 Q 52.2 31.8, 54.2 31.8 " fill="#FF0000"/>
<path class="atom-6" d="M 127.7 29.4 Q 127.7 26.3, 129.3 24.6 Q 130.8 22.8, 133.7 22.8 Q 136.6 22.8, 138.1 24.6 Q 139.7 26.3, 139.7 29.4 Q 139.7 32.6, 138.1 34.4 Q 136.5 36.2, 133.7 36.2 Q 130.8 36.2, 129.3 34.4 Q 127.7 32.6, 127.7 29.4 M 133.7 34.7 Q 135.7 34.7, 136.7 33.4 Q 137.8 32.1, 137.8 29.4 Q 137.8 26.9, 136.7 25.6 Q 135.7 24.3, 133.7 24.3 Q 131.7 24.3, 130.6 25.6 Q 129.6 26.9, 129.6 29.4 Q 129.6 32.1, 130.6 33.4 Q 131.7 34.7, 133.7 34.7 " fill="#FF0000"/>
<path class="atom-6" d="M 141.7 23.0 L 143.4 23.0 L 143.4 28.5 L 150.1 28.5 L 150.1 23.0 L 151.9 23.0 L 151.9 36.0 L 150.1 36.0 L 150.1 30.0 L 143.4 30.0 L 143.4 36.0 L 141.7 36.0 L 141.7 23.0 " fill="#FF0000"/>
<path class="atom-8" d="M 125.8 160.5 L 130.1 167.4 Q 130.5 168.1, 131.2 169.3 Q 131.9 170.6, 131.9 170.6 L 131.9 160.5 L 133.6 160.5 L 133.6 173.5 L 131.9 173.5 L 127.3 166.0 Q 126.7 165.1, 126.2 164.1 Q 125.6 163.1, 125.5 162.8 L 125.5 173.5 L 123.8 173.5 L 123.8 160.5 L 125.8 160.5 " fill="#0000FF"/>
<path class="atom-8" d="M 136.1 160.5 L 137.9 160.5 L 137.9 166.1 L 144.5 166.1 L 144.5 160.5 L 146.3 160.5 L 146.3 173.5 L 144.5 173.5 L 144.5 167.5 L 137.9 167.5 L 137.9 173.5 L 136.1 173.5 L 136.1 160.5 " fill="#0000FF"/>
<path class="atom-8" d="M 148.8 173.1 Q 149.2 172.3, 149.9 171.8 Q 150.7 171.4, 151.7 171.4 Q 153.0 171.4, 153.7 172.1 Q 154.4 172.8, 154.4 174.0 Q 154.4 175.3, 153.5 176.5 Q 152.6 177.7, 150.6 179.1 L 154.6 179.1 L 154.6 180.0 L 148.8 180.0 L 148.8 179.2 Q 150.4 178.1, 151.4 177.2 Q 152.3 176.4, 152.8 175.6 Q 153.2 174.9, 153.2 174.1 Q 153.2 173.3, 152.8 172.8 Q 152.4 172.3, 151.7 172.3 Q 151.0 172.3, 150.5 172.6 Q 150.1 172.9, 149.8 173.5 L 148.8 173.1 " fill="#0000FF"/>
<path class="atom-10" d="M 166.6 53.8 Q 166.6 50.7, 168.2 49.0 Q 169.7 47.2, 172.6 47.2 Q 175.5 47.2, 177.0 49.0 Q 178.6 50.7, 178.6 53.8 Q 178.6 57.0, 177.0 58.8 Q 175.4 60.6, 172.6 60.6 Q 169.7 60.6, 168.2 58.8 Q 166.6 57.0, 166.6 53.8 M 172.6 59.1 Q 174.6 59.1, 175.6 57.8 Q 176.7 56.4, 176.7 53.8 Q 176.7 51.3, 175.6 50.0 Q 174.6 48.7, 172.6 48.7 Q 170.6 48.7, 169.5 50.0 Q 168.5 51.3, 168.5 53.8 Q 168.5 56.5, 169.5 57.8 Q 170.6 59.1, 172.6 59.1 " fill="#FF0000"/>
<path class="atom-11" d="M 203.9 124.1 Q 203.9 121.0, 205.4 119.2 Q 207.0 117.5, 209.8 117.5 Q 212.7 117.5, 214.3 119.2 Q 215.8 121.0, 215.8 124.1 Q 215.8 127.2, 214.2 129.0 Q 212.7 130.8, 209.8 130.8 Q 207.0 130.8, 205.4 129.0 Q 203.9 127.3, 203.9 124.1 M 209.8 129.4 Q 211.8 129.4, 212.9 128.0 Q 214.0 126.7, 214.0 124.1 Q 214.0 121.5, 212.9 120.2 Q 211.8 118.9, 209.8 118.9 Q 207.9 118.9, 206.8 120.2 Q 205.7 121.5, 205.7 124.1 Q 205.7 126.7, 206.8 128.0 Q 207.9 129.4, 209.8 129.4 " fill="#FF0000"/>
<path class="atom-11" d="M 217.8 117.6 L 219.6 117.6 L 219.6 123.1 L 226.2 123.1 L 226.2 117.6 L 228.0 117.6 L 228.0 130.6 L 226.2 130.6 L 226.2 124.6 L 219.6 124.6 L 219.6 130.6 L 217.8 130.6 L 217.8 117.6 " fill="#FF0000"/>
</svg>
