<?xml version='1.0' encoding='ASCII' standalone='yes'?>
<svg xmlns="http://www.w3.org/2000/svg" xmlns:rdkit="http://www.rdkit.org/xml" xmlns:xlink="http://www.w3.org/1999/xlink" version="1.1" baseProfile="full" xml:space="preserve" width="304px" height="200px" viewBox="0 0 304 200">
<!-- END OF HEADER -->
<rect style="opacity:1.0;fill:#FFFFFF;stroke:none" width="304.0" height="200.0" x="0.0" y="0.0"> </rect>
<path class="bond-0 atom-0 atom-1" d="M 210.3,56.5 L 200.5,49.8" style="fill:none;fill-rule:evenodd;stroke:#FF0000;stroke-width:2.0px;stroke-linecap:butt;stroke-linejoin:miter;stroke-opacity:1"/>
<path class="bond-0 atom-0 atom-1" d="M 200.5,49.8 L 190.6,43.2" style="fill:none;fill-rule:evenodd;stroke:#000000;stroke-width:2.0px;stroke-linecap:butt;stroke-linejoin:miter;stroke-opacity:1"/>
<path class="bond-0 atom-0 atom-1" d="M 212.7,53.0 L 202.8,46.3" style="fill:none;fill-rule:evenodd;stroke:#FF0000;stroke-width:2.0px;stroke-linecap:butt;stroke-linejoin:miter;stroke-opacity:1"/>
<path class="bond-0 atom-0 atom-1" d="M 202.8,46.3 L 193.0,39.7" style="fill:none;fill-rule:evenodd;stroke:#000000;stroke-width:2.0px;stroke-linecap:butt;stroke-linejoin:miter;stroke-opacity:1"/>
<path class="bond-1 atom-1 atom-2" d="M 192.8,42.1 L 193.6,30.6" style="fill:none;fill-rule:evenodd;stroke:#000000;stroke-width:2.0px;stroke-linecap:butt;stroke-linejoin:miter;stroke-opacity:1"/>
<path class="bond-1 atom-1 atom-2" d="M 193.6,30.6 L 194.4,19.1" style="fill:none;fill-rule:evenodd;stroke:#FF0000;stroke-width:2.0px;stroke-linecap:butt;stroke-linejoin:miter;stroke-opacity:1"/>
<path class="bond-2 atom-1 atom-3" d="M 192.8,42.1 L 167.5,54.4" style="fill:none;fill-rule:evenodd;stroke:#000000;stroke-width:2.0px;stroke-linecap:butt;stroke-linejoin:miter;stroke-opacity:1"/>
<path class="bond-3 atom-3 atom-4" d="M 167.5,54.4 L 165.5,82.5" style="fill:none;fill-rule:evenodd;stroke:#000000;stroke-width:2.0px;stroke-linecap:butt;stroke-linejoin:miter;stroke-opacity:1"/>
<path class="bond-3 atom-3 atom-4" d="M 171.5,57.2 L 169.9,80.4" style="fill:none;fill-rule:evenodd;stroke:#000000;stroke-width:2.0px;stroke-linecap:butt;stroke-linejoin:miter;stroke-opacity:1"/>
<path class="bond-4 atom-4 atom-5" d="M 165.5,82.5 L 140.2,94.8" style="fill:none;fill-rule:evenodd;stroke:#000000;stroke-width:2.0px;stroke-linecap:butt;stroke-linejoin:miter;stroke-opacity:1"/>
<path class="bond-5 atom-5 atom-6" d="M 140.2,94.8 L 145.2,105.0" style="fill:none;fill-rule:evenodd;stroke:#000000;stroke-width:2.0px;stroke-linecap:butt;stroke-linejoin:miter;stroke-opacity:1"/>
<path class="bond-5 atom-5 atom-6" d="M 145.2,105.0 L 150.1,115.2" style="fill:none;fill-rule:evenodd;stroke:#FF0000;stroke-width:2.0px;stroke-linecap:butt;stroke-linejoin:miter;stroke-opacity:1"/>
<path class="bond-6 atom-5 atom-7" d="M 140.2,94.8 L 135.3,84.7" style="fill:none;fill-rule:evenodd;stroke:#000000;stroke-width:2.0px;stroke-linecap:butt;stroke-linejoin:miter;stroke-opacity:1"/>
<path class="bond-6 atom-5 atom-7" d="M 135.3,84.7 L 130.4,74.6" style="fill:none;fill-rule:evenodd;stroke:#FF0000;stroke-width:2.0px;stroke-linecap:butt;stroke-linejoin:miter;stroke-opacity:1"/>
<path class="bond-7 atom-5 atom-8" d="M 140.2,94.8 L 114.9,107.2" style="fill:none;fill-rule:evenodd;stroke:#000000;stroke-width:2.0px;stroke-linecap:butt;stroke-linejoin:miter;stroke-opacity:1"/>
<path class="bond-8 atom-8 atom-9" d="M 114.9,107.2 L 91.6,91.4" style="fill:none;fill-rule:evenodd;stroke:#000000;stroke-width:2.0px;stroke-linecap:butt;stroke-linejoin:miter;stroke-opacity:1"/>
<path class="bond-8 atom-8 atom-9" d="M 110.6,109.3 L 91.3,96.3" style="fill:none;fill-rule:evenodd;stroke:#000000;stroke-width:2.0px;stroke-linecap:butt;stroke-linejoin:miter;stroke-opacity:1"/>
<path class="bond-9 atom-9 atom-10" d="M 91.6,91.4 L 66.3,103.8" style="fill:none;fill-rule:evenodd;stroke:#000000;stroke-width:2.0px;stroke-linecap:butt;stroke-linejoin:miter;stroke-opacity:1"/>
<path class="bond-10 atom-10 atom-11" d="M 66.3,103.8 L 57.0,97.4" style="fill:none;fill-rule:evenodd;stroke:#000000;stroke-width:2.0px;stroke-linecap:butt;stroke-linejoin:miter;stroke-opacity:1"/>
<path class="bond-10 atom-10 atom-11" d="M 57.0,97.4 L 47.6,91.1" style="fill:none;fill-rule:evenodd;stroke:#FF0000;stroke-width:2.0px;stroke-linecap:butt;stroke-linejoin:miter;stroke-opacity:1"/>
<path class="bond-11 atom-8 atom-12" d="M 114.9,107.2 L 113.0,135.2" style="fill:none;fill-rule:evenodd;stroke:#000000;stroke-width:2.0px;stroke-linecap:butt;stroke-linejoin:miter;stroke-opacity:1"/>
<path class="bond-12 atom-12 atom-13" d="M 110.8,136.3 L 120.7,143.0" style="fill:none;fill-rule:evenodd;stroke:#000000;stroke-width:2.0px;stroke-linecap:butt;stroke-linejoin:miter;stroke-opacity:1"/>
<path class="bond-12 atom-12 atom-13" d="M 120.7,143.0 L 130.5,149.6" style="fill:none;fill-rule:evenodd;stroke:#FF0000;stroke-width:2.0px;stroke-linecap:butt;stroke-linejoin:miter;stroke-opacity:1"/>
<path class="bond-12 atom-12 atom-13" d="M 113.1,132.8 L 123.0,139.5" style="fill:none;fill-rule:evenodd;stroke:#000000;stroke-width:2.0px;stroke-linecap:butt;stroke-linejoin:miter;stroke-opacity:1"/>
<path class="bond-12 atom-12 atom-13" d="M 123.0,139.5 L 132.9,146.1" style="fill:none;fill-rule:evenodd;stroke:#FF0000;stroke-width:2.0px;stroke-linecap:butt;stroke-linejoin:miter;stroke-opacity:1"/>
<path class="bond-13 atom-12 atom-14" d="M 113.0,135.2 L 102.6,140.3" style="fill:none;fill-rule:evenodd;stroke:#000000;stroke-width:2.0px;stroke-linecap:butt;stroke-linejoin:miter;stroke-opacity:1"/>
<path class="bond-13 atom-12 atom-14" d="M 102.6,140.3 L 92.3,145.3" style="fill:none;fill-rule:evenodd;stroke:#FF0000;stroke-width:2.0px;stroke-linecap:butt;stroke-linejoin:miter;stroke-opacity:1"/>
<path class="bond-14 atom-4 atom-15" d="M 165.5,82.5 L 188.9,98.2" style="fill:none;fill-rule:evenodd;stroke:#000000;stroke-width:2.0px;stroke-linecap:butt;stroke-linejoin:miter;stroke-opacity:1"/>
<path class="bond-15 atom-15 atom-16" d="M 188.9,98.2 L 182.7,107.4" style="fill:none;fill-rule:evenodd;stroke:#000000;stroke-width:2.0px;stroke-linecap:butt;stroke-linejoin:miter;stroke-opacity:1"/>
<path class="bond-15 atom-15 atom-16" d="M 182.7,107.4 L 176.5,116.6" style="fill:none;fill-rule:evenodd;stroke:#FF0000;stroke-width:2.0px;stroke-linecap:butt;stroke-linejoin:miter;stroke-opacity:1"/>
<path class="bond-16 atom-15 atom-17" d="M 188.9,98.2 L 195.0,89.1" style="fill:none;fill-rule:evenodd;stroke:#000000;stroke-width:2.0px;stroke-linecap:butt;stroke-linejoin:miter;stroke-opacity:1"/>
<path class="bond-16 atom-15 atom-17" d="M 195.0,89.1 L 201.2,80.0" style="fill:none;fill-rule:evenodd;stroke:#FF0000;stroke-width:2.0px;stroke-linecap:butt;stroke-linejoin:miter;stroke-opacity:1"/>
<path class="bond-17 atom-15 atom-18" d="M 188.9,98.2 L 212.2,114.0" style="fill:none;fill-rule:evenodd;stroke:#000000;stroke-width:2.0px;stroke-linecap:butt;stroke-linejoin:miter;stroke-opacity:1"/>
<path class="bond-18 atom-18 atom-19" d="M 212.2,114.0 L 210.2,142.0" style="fill:none;fill-rule:evenodd;stroke:#000000;stroke-width:2.0px;stroke-linecap:butt;stroke-linejoin:miter;stroke-opacity:1"/>
<path class="bond-18 atom-18 atom-19" d="M 216.2,116.7 L 214.6,139.9" style="fill:none;fill-rule:evenodd;stroke:#000000;stroke-width:2.0px;stroke-linecap:butt;stroke-linejoin:miter;stroke-opacity:1"/>
<path class="bond-19 atom-19 atom-20" d="M 210.2,142.0 L 233.5,157.8" style="fill:none;fill-rule:evenodd;stroke:#000000;stroke-width:2.0px;stroke-linecap:butt;stroke-linejoin:miter;stroke-opacity:1"/>
<path class="bond-20 atom-20 atom-21" d="M 233.5,157.8 L 232.7,169.3" style="fill:none;fill-rule:evenodd;stroke:#000000;stroke-width:2.0px;stroke-linecap:butt;stroke-linejoin:miter;stroke-opacity:1"/>
<path class="bond-20 atom-20 atom-21" d="M 232.7,169.3 L 231.9,180.9" style="fill:none;fill-rule:evenodd;stroke:#FF0000;stroke-width:2.0px;stroke-linecap:butt;stroke-linejoin:miter;stroke-opacity:1"/>
<path class="bond-21 atom-18 atom-22" d="M 212.2,114.0 L 237.5,101.6" style="fill:none;fill-rule:evenodd;stroke:#000000;stroke-width:2.0px;stroke-linecap:butt;stroke-linejoin:miter;stroke-opacity:1"/>
<path class="bond-22 atom-22 atom-23" d="M 239.5,103.0 L 240.3,90.9" style="fill:none;fill-rule:evenodd;stroke:#000000;stroke-width:2.0px;stroke-linecap:butt;stroke-linejoin:miter;stroke-opacity:1"/>
<path class="bond-22 atom-22 atom-23" d="M 240.3,90.9 L 241.2,78.8" style="fill:none;fill-rule:evenodd;stroke:#FF0000;stroke-width:2.0px;stroke-linecap:butt;stroke-linejoin:miter;stroke-opacity:1"/>
<path class="bond-22 atom-22 atom-23" d="M 235.3,102.7 L 236.1,90.6" style="fill:none;fill-rule:evenodd;stroke:#000000;stroke-width:2.0px;stroke-linecap:butt;stroke-linejoin:miter;stroke-opacity:1"/>
<path class="bond-22 atom-22 atom-23" d="M 236.1,90.6 L 237.0,78.5" style="fill:none;fill-rule:evenodd;stroke:#FF0000;stroke-width:2.0px;stroke-linecap:butt;stroke-linejoin:miter;stroke-opacity:1"/>
<path class="bond-23 atom-22 atom-24" d="M 237.5,101.6 L 246.8,108.0" style="fill:none;fill-rule:evenodd;stroke:#000000;stroke-width:2.0px;stroke-linecap:butt;stroke-linejoin:miter;stroke-opacity:1"/>
<path class="bond-23 atom-22 atom-24" d="M 246.8,108.0 L 256.2,114.3" style="fill:none;fill-rule:evenodd;stroke:#FF0000;stroke-width:2.0px;stroke-linecap:butt;stroke-linejoin:miter;stroke-opacity:1"/>
<path d="M 192.8,41.5 L 192.8,42.1 L 191.5,42.7" style="fill:none;stroke:#000000;stroke-width:2.0px;stroke-linecap:butt;stroke-linejoin:miter;stroke-opacity:1;"/>
<path d="M 168.8,53.8 L 167.5,54.4 L 167.4,55.8" style="fill:none;stroke:#000000;stroke-width:2.0px;stroke-linecap:butt;stroke-linejoin:miter;stroke-opacity:1;"/>
<path d="M 92.8,92.2 L 91.6,91.4 L 90.4,92.0" style="fill:none;stroke:#000000;stroke-width:2.0px;stroke-linecap:butt;stroke-linejoin:miter;stroke-opacity:1;"/>
<path d="M 67.6,103.1 L 66.3,103.8 L 65.9,103.4" style="fill:none;stroke:#000000;stroke-width:2.0px;stroke-linecap:butt;stroke-linejoin:miter;stroke-opacity:1;"/>
<path d="M 113.1,133.8 L 113.0,135.2 L 112.5,135.5" style="fill:none;stroke:#000000;stroke-width:2.0px;stroke-linecap:butt;stroke-linejoin:miter;stroke-opacity:1;"/>
<path d="M 210.3,140.6 L 210.2,142.0 L 211.4,142.8" style="fill:none;stroke:#000000;stroke-width:2.0px;stroke-linecap:butt;stroke-linejoin:miter;stroke-opacity:1;"/>
<path d="M 232.4,157.0 L 233.5,157.8 L 233.5,158.4" style="fill:none;stroke:#000000;stroke-width:2.0px;stroke-linecap:butt;stroke-linejoin:miter;stroke-opacity:1;"/>
<path d="M 236.2,102.3 L 237.5,101.6 L 237.9,102.0" style="fill:none;stroke:#000000;stroke-width:2.0px;stroke-linecap:butt;stroke-linejoin:miter;stroke-opacity:1;"/>
<path class="atom-0" d="M 212.4 57.9 Q 212.4 55.9, 213.4 54.9 Q 214.3 53.8, 216.1 53.8 Q 217.9 53.8, 218.8 54.9 Q 219.8 55.9, 219.8 57.9 Q 219.8 59.8, 218.8 60.9 Q 217.9 62.0, 216.1 62.0 Q 214.4 62.0, 213.4 60.9 Q 212.4 59.8, 212.4 57.9 M 216.1 61.1 Q 217.3 61.1, 218.0 60.3 Q 218.6 59.5, 218.6 57.9 Q 218.6 56.3, 218.0 55.5 Q 217.3 54.7, 216.1 54.7 Q 214.9 54.7, 214.2 55.5 Q 213.6 56.3, 213.6 57.9 Q 213.6 59.5, 214.2 60.3 Q 214.9 61.1, 216.1 61.1 " fill="#FF0000"/>
<path class="atom-2" d="M 191.1 14.1 Q 191.1 12.1, 192.0 11.1 Q 193.0 10.0, 194.7 10.0 Q 196.5 10.0, 197.5 11.1 Q 198.4 12.1, 198.4 14.1 Q 198.4 16.0, 197.4 17.1 Q 196.5 18.2, 194.7 18.2 Q 193.0 18.2, 192.0 17.1 Q 191.1 16.0, 191.1 14.1 M 194.7 17.3 Q 196.0 17.3, 196.6 16.5 Q 197.3 15.7, 197.3 14.1 Q 197.3 12.5, 196.6 11.7 Q 196.0 10.9, 194.7 10.9 Q 193.5 10.9, 192.9 11.7 Q 192.2 12.5, 192.2 14.1 Q 192.2 15.7, 192.9 16.5 Q 193.5 17.3, 194.7 17.3 " fill="#FF0000"/>
<path class="atom-2" d="M 199.6 10.1 L 200.7 10.1 L 200.7 13.5 L 204.8 13.5 L 204.8 10.1 L 205.9 10.1 L 205.9 18.1 L 204.8 18.1 L 204.8 14.4 L 200.7 14.4 L 200.7 18.1 L 199.6 18.1 L 199.6 10.1 " fill="#FF0000"/>
<path class="atom-6" d="M 148.9 120.1 Q 148.9 118.2, 149.9 117.2 Q 150.8 116.1, 152.6 116.1 Q 154.3 116.1, 155.3 117.2 Q 156.2 118.2, 156.2 120.1 Q 156.2 122.1, 155.3 123.2 Q 154.3 124.3, 152.6 124.3 Q 150.8 124.3, 149.9 123.2 Q 148.9 122.1, 148.9 120.1 M 152.6 123.4 Q 153.8 123.4, 154.4 122.6 Q 155.1 121.7, 155.1 120.1 Q 155.1 118.6, 154.4 117.8 Q 153.8 117.0, 152.6 117.0 Q 151.4 117.0, 150.7 117.8 Q 150.0 118.6, 150.0 120.1 Q 150.0 121.8, 150.7 122.6 Q 151.4 123.4, 152.6 123.4 " fill="#FF0000"/>
<path class="atom-6" d="M 157.5 116.2 L 158.5 116.2 L 158.5 119.6 L 162.6 119.6 L 162.6 116.2 L 163.7 116.2 L 163.7 124.2 L 162.6 124.2 L 162.6 120.5 L 158.5 120.5 L 158.5 124.2 L 157.5 124.2 L 157.5 116.2 " fill="#FF0000"/>
<path class="atom-7" d="M 116.4 65.6 L 117.5 65.6 L 117.5 69.0 L 121.5 69.0 L 121.5 65.6 L 122.6 65.6 L 122.6 73.6 L 121.5 73.6 L 121.5 69.9 L 117.5 69.9 L 117.5 73.6 L 116.4 73.6 L 116.4 65.6 " fill="#FF0000"/>
<path class="atom-7" d="M 124.2 69.6 Q 124.2 67.6, 125.2 66.6 Q 126.1 65.5, 127.9 65.5 Q 129.7 65.5, 130.6 66.6 Q 131.6 67.6, 131.6 69.6 Q 131.6 71.5, 130.6 72.6 Q 129.6 73.7, 127.9 73.7 Q 126.1 73.7, 125.2 72.6 Q 124.2 71.5, 124.2 69.6 M 127.9 72.8 Q 129.1 72.8, 129.8 72.0 Q 130.4 71.2, 130.4 69.6 Q 130.4 68.0, 129.8 67.2 Q 129.1 66.4, 127.9 66.4 Q 126.7 66.4, 126.0 67.2 Q 125.4 68.0, 125.4 69.6 Q 125.4 71.2, 126.0 72.0 Q 126.7 72.8, 127.9 72.8 " fill="#FF0000"/>
<path class="atom-11" d="M 31.5 84.1 L 32.6 84.1 L 32.6 87.5 L 36.6 87.5 L 36.6 84.1 L 37.7 84.1 L 37.7 92.1 L 36.6 92.1 L 36.6 88.4 L 32.6 88.4 L 32.6 92.1 L 31.5 92.1 L 31.5 84.1 " fill="#FF0000"/>
<path class="atom-11" d="M 39.3 88.0 Q 39.3 86.1, 40.3 85.1 Q 41.2 84.0, 43.0 84.0 Q 44.8 84.0, 45.7 85.1 Q 46.7 86.1, 46.7 88.0 Q 46.7 90.0, 45.7 91.1 Q 44.7 92.2, 43.0 92.2 Q 41.2 92.2, 40.3 91.1 Q 39.3 90.0, 39.3 88.0 M 43.0 91.3 Q 44.2 91.3, 44.9 90.5 Q 45.5 89.6, 45.5 88.0 Q 45.5 86.5, 44.9 85.7 Q 44.2 84.9, 43.0 84.9 Q 41.8 84.9, 41.1 85.7 Q 40.5 86.5, 40.5 88.0 Q 40.5 89.7, 41.1 90.5 Q 41.8 91.3, 43.0 91.3 " fill="#FF0000"/>
<path class="atom-13" d="M 132.6 151.0 Q 132.6 149.1, 133.6 148.0 Q 134.5 146.9, 136.3 146.9 Q 138.1 146.9, 139.0 148.0 Q 140.0 149.1, 140.0 151.0 Q 140.0 152.9, 139.0 154.0 Q 138.0 155.1, 136.3 155.1 Q 134.5 155.1, 133.6 154.0 Q 132.6 152.9, 132.6 151.0 M 136.3 154.2 Q 137.5 154.2, 138.2 153.4 Q 138.8 152.6, 138.8 151.0 Q 138.8 149.4, 138.2 148.6 Q 137.5 147.8, 136.3 147.8 Q 135.1 147.8, 134.4 148.6 Q 133.8 149.4, 133.8 151.0 Q 133.8 152.6, 134.4 153.4 Q 135.1 154.2, 136.3 154.2 " fill="#FF0000"/>
<path class="atom-14" d="M 76.2 143.6 L 77.2 143.6 L 77.2 147.0 L 81.3 147.0 L 81.3 143.6 L 82.4 143.6 L 82.4 151.6 L 81.3 151.6 L 81.3 147.9 L 77.2 147.9 L 77.2 151.6 L 76.2 151.6 L 76.2 143.6 " fill="#FF0000"/>
<path class="atom-14" d="M 84.0 147.6 Q 84.0 145.7, 85.0 144.6 Q 85.9 143.5, 87.7 143.5 Q 89.5 143.5, 90.4 144.6 Q 91.3 145.7, 91.3 147.6 Q 91.3 149.5, 90.4 150.6 Q 89.4 151.7, 87.7 151.7 Q 85.9 151.7, 85.0 150.6 Q 84.0 149.5, 84.0 147.6 M 87.7 150.8 Q 88.9 150.8, 89.6 150.0 Q 90.2 149.2, 90.2 147.6 Q 90.2 146.0, 89.6 145.2 Q 88.9 144.4, 87.7 144.4 Q 86.5 144.4, 85.8 145.2 Q 85.2 146.0, 85.2 147.6 Q 85.2 149.2, 85.8 150.0 Q 86.5 150.8, 87.7 150.8 " fill="#FF0000"/>
<path class="atom-16" d="M 161.6 117.6 L 162.7 117.6 L 162.7 121.0 L 166.7 121.0 L 166.7 117.6 L 167.8 117.6 L 167.8 125.6 L 166.7 125.6 L 166.7 121.9 L 162.7 121.9 L 162.7 125.6 L 161.6 125.6 L 161.6 117.6 " fill="#FF0000"/>
<path class="atom-16" d="M 169.5 121.6 Q 169.5 119.7, 170.4 118.6 Q 171.3 117.5, 173.1 117.5 Q 174.9 117.5, 175.8 118.6 Q 176.8 119.7, 176.8 121.6 Q 176.8 123.5, 175.8 124.6 Q 174.9 125.7, 173.1 125.7 Q 171.4 125.7, 170.4 124.6 Q 169.5 123.5, 169.5 121.6 M 173.1 124.8 Q 174.3 124.8, 175.0 124.0 Q 175.6 123.2, 175.6 121.6 Q 175.6 120.0, 175.0 119.2 Q 174.3 118.4, 173.1 118.4 Q 171.9 118.4, 171.2 119.2 Q 170.6 120.0, 170.6 121.6 Q 170.6 123.2, 171.2 124.0 Q 171.9 124.8, 173.1 124.8 " fill="#FF0000"/>
<path class="atom-17" d="M 200.9 74.9 Q 200.9 73.0, 201.9 72.0 Q 202.8 70.9, 204.6 70.9 Q 206.4 70.9, 207.3 72.0 Q 208.2 73.0, 208.2 74.9 Q 208.2 76.9, 207.3 78.0 Q 206.3 79.1, 204.6 79.1 Q 202.8 79.1, 201.9 78.0 Q 200.9 76.9, 200.9 74.9 M 204.6 78.2 Q 205.8 78.2, 206.5 77.4 Q 207.1 76.5, 207.1 74.9 Q 207.1 73.4, 206.5 72.6 Q 205.8 71.8, 204.6 71.8 Q 203.4 71.8, 202.7 72.6 Q 202.1 73.4, 202.1 74.9 Q 202.1 76.5, 202.7 77.4 Q 203.4 78.2, 204.6 78.2 " fill="#FF0000"/>
<path class="atom-17" d="M 209.5 71.0 L 210.6 71.0 L 210.6 74.4 L 214.6 74.4 L 214.6 71.0 L 215.7 71.0 L 215.7 78.9 L 214.6 78.9 L 214.6 75.3 L 210.6 75.3 L 210.6 78.9 L 209.5 78.9 L 209.5 71.0 " fill="#FF0000"/>
<path class="atom-21" d="M 227.9 185.9 Q 227.9 184.0, 228.9 182.9 Q 229.8 181.8, 231.6 181.8 Q 233.3 181.8, 234.3 182.9 Q 235.2 184.0, 235.2 185.9 Q 235.2 187.8, 234.3 188.9 Q 233.3 190.0, 231.6 190.0 Q 229.8 190.0, 228.9 188.9 Q 227.9 187.8, 227.9 185.9 M 231.6 189.1 Q 232.8 189.1, 233.4 188.3 Q 234.1 187.5, 234.1 185.9 Q 234.1 184.3, 233.4 183.5 Q 232.8 182.7, 231.6 182.7 Q 230.4 182.7, 229.7 183.5 Q 229.0 184.3, 229.0 185.9 Q 229.0 187.5, 229.7 188.3 Q 230.4 189.1, 231.6 189.1 " fill="#FF0000"/>
<path class="atom-21" d="M 236.5 181.9 L 237.5 181.9 L 237.5 185.3 L 241.6 185.3 L 241.6 181.9 L 242.7 181.9 L 242.7 189.9 L 241.6 189.9 L 241.6 186.2 L 237.5 186.2 L 237.5 189.9 L 236.5 189.9 L 236.5 181.9 " fill="#FF0000"/>
<path class="atom-23" d="M 235.8 73.6 Q 235.8 71.7, 236.7 70.6 Q 237.7 69.5, 239.4 69.5 Q 241.2 69.5, 242.1 70.6 Q 243.1 71.7, 243.1 73.6 Q 243.1 75.5, 242.1 76.6 Q 241.2 77.7, 239.4 77.7 Q 237.7 77.7, 236.7 76.6 Q 235.8 75.5, 235.8 73.6 M 239.4 76.8 Q 240.6 76.8, 241.3 76.0 Q 242.0 75.2, 242.0 73.6 Q 242.0 72.0, 241.3 71.2 Q 240.6 70.4, 239.4 70.4 Q 238.2 70.4, 237.6 71.2 Q 236.9 72.0, 236.9 73.6 Q 236.9 75.2, 237.6 76.0 Q 238.2 76.8, 239.4 76.8 " fill="#FF0000"/>
<path class="atom-24" d="M 257.1 117.4 Q 257.1 115.5, 258.1 114.4 Q 259.0 113.3, 260.8 113.3 Q 262.6 113.3, 263.5 114.4 Q 264.5 115.5, 264.5 117.4 Q 264.5 119.3, 263.5 120.4 Q 262.5 121.5, 260.8 121.5 Q 259.0 121.5, 258.1 120.4 Q 257.1 119.3, 257.1 117.4 M 260.8 120.6 Q 262.0 120.6, 262.7 119.8 Q 263.3 119.0, 263.3 117.4 Q 263.3 115.8, 262.7 115.0 Q 262.0 114.2, 260.8 114.2 Q 259.6 114.2, 258.9 115.0 Q 258.3 115.8, 258.3 117.4 Q 258.3 119.0, 258.9 119.8 Q 259.6 120.6, 260.8 120.6 " fill="#FF0000"/>
<path class="atom-24" d="M 265.7 113.4 L 266.8 113.4 L 266.8 116.8 L 270.8 116.8 L 270.8 113.4 L 271.9 113.4 L 271.9 121.4 L 270.8 121.4 L 270.8 117.7 L 266.8 117.7 L 266.8 121.4 L 265.7 121.4 L 265.7 113.4 " fill="#FF0000"/>
</svg>
