<?xml version='1.0' encoding='ASCII' standalone='yes'?>
<svg xmlns="http://www.w3.org/2000/svg" xmlns:rdkit="http://www.rdkit.org/xml" xmlns:xlink="http://www.w3.org/1999/xlink" version="1.1" baseProfile="full" xml:space="preserve" width="280px" height="200px" viewBox="0 0 280 200">
<!-- END OF HEADER -->
<rect style="opacity:1.0;fill:#FFFFFF;stroke:none" width="280.0" height="200.0" x="0.0" y="0.0"> </rect>
<path class="bond-0 atom-0 atom-1" d="M 266.0,79.6 L 242.7,96.9" style="fill:none;fill-rule:evenodd;stroke:#000000;stroke-width:2.0px;stroke-linecap:butt;stroke-linejoin:miter;stroke-opacity:1"/>
<path class="bond-0 atom-0 atom-1" d="M 263.5,76.2 L 240.2,93.5" style="fill:none;fill-rule:evenodd;stroke:#000000;stroke-width:2.0px;stroke-linecap:butt;stroke-linejoin:miter;stroke-opacity:1"/>
<path class="bond-1 atom-1 atom-2" d="M 242.4,94.5 L 245.6,122.1" style="fill:none;fill-rule:evenodd;stroke:#000000;stroke-width:2.0px;stroke-linecap:butt;stroke-linejoin:miter;stroke-opacity:1"/>
<path class="bond-2 atom-2 atom-3" d="M 245.6,122.1 L 236.7,128.7" style="fill:none;fill-rule:evenodd;stroke:#000000;stroke-width:2.0px;stroke-linecap:butt;stroke-linejoin:miter;stroke-opacity:1"/>
<path class="bond-2 atom-2 atom-3" d="M 236.7,128.7 L 227.8,135.3" style="fill:none;fill-rule:evenodd;stroke:#FF0000;stroke-width:2.0px;stroke-linecap:butt;stroke-linejoin:miter;stroke-opacity:1"/>
<path class="bond-3 atom-1 atom-4" d="M 242.4,94.5 L 216.9,83.4" style="fill:none;fill-rule:evenodd;stroke:#000000;stroke-width:2.0px;stroke-linecap:butt;stroke-linejoin:miter;stroke-opacity:1"/>
<path class="bond-4 atom-4 atom-5" d="M 216.9,83.4 L 194.5,100.0" style="fill:none;fill-rule:evenodd;stroke:#000000;stroke-width:2.0px;stroke-linecap:butt;stroke-linejoin:miter;stroke-opacity:1"/>
<path class="bond-5 atom-5 atom-6" d="M 194.5,100.0 L 195.8,111.3" style="fill:none;fill-rule:evenodd;stroke:#000000;stroke-width:2.0px;stroke-linecap:butt;stroke-linejoin:miter;stroke-opacity:1"/>
<path class="bond-5 atom-5 atom-6" d="M 195.8,111.3 L 197.2,122.7" style="fill:none;fill-rule:evenodd;stroke:#FF0000;stroke-width:2.0px;stroke-linecap:butt;stroke-linejoin:miter;stroke-opacity:1"/>
<path class="bond-6 atom-5 atom-7" d="M 194.5,100.0 L 169.0,88.9" style="fill:none;fill-rule:evenodd;stroke:#000000;stroke-width:2.0px;stroke-linecap:butt;stroke-linejoin:miter;stroke-opacity:1"/>
<path class="bond-7 atom-7 atom-8" d="M 171.2,89.9 L 167.9,61.0" style="fill:none;fill-rule:evenodd;stroke:#000000;stroke-width:2.0px;stroke-linecap:butt;stroke-linejoin:miter;stroke-opacity:1"/>
<path class="bond-7 atom-7 atom-8" d="M 167.1,90.3 L 163.8,61.5" style="fill:none;fill-rule:evenodd;stroke:#000000;stroke-width:2.0px;stroke-linecap:butt;stroke-linejoin:miter;stroke-opacity:1"/>
<path class="bond-8 atom-7 atom-9" d="M 169.0,88.9 L 146.7,105.5" style="fill:none;fill-rule:evenodd;stroke:#000000;stroke-width:2.0px;stroke-linecap:butt;stroke-linejoin:miter;stroke-opacity:1"/>
<path class="bond-9 atom-9 atom-10" d="M 146.7,105.5 L 121.1,94.4" style="fill:none;fill-rule:evenodd;stroke:#000000;stroke-width:2.0px;stroke-linecap:butt;stroke-linejoin:miter;stroke-opacity:1"/>
<path class="bond-10 atom-10 atom-11" d="M 121.1,94.4 L 118.0,66.8" style="fill:none;fill-rule:evenodd;stroke:#000000;stroke-width:2.0px;stroke-linecap:butt;stroke-linejoin:miter;stroke-opacity:1"/>
<path class="bond-11 atom-11 atom-12" d="M 118.0,66.8 L 107.5,62.2" style="fill:none;fill-rule:evenodd;stroke:#000000;stroke-width:2.0px;stroke-linecap:butt;stroke-linejoin:miter;stroke-opacity:1"/>
<path class="bond-11 atom-11 atom-12" d="M 107.5,62.2 L 97.0,57.7" style="fill:none;fill-rule:evenodd;stroke:#FF0000;stroke-width:2.0px;stroke-linecap:butt;stroke-linejoin:miter;stroke-opacity:1"/>
<path class="bond-12 atom-10 atom-13" d="M 121.1,94.4 L 98.8,111.0" style="fill:none;fill-rule:evenodd;stroke:#000000;stroke-width:2.0px;stroke-linecap:butt;stroke-linejoin:miter;stroke-opacity:1"/>
<path class="bond-13 atom-13 atom-14" d="M 98.8,111.0 L 73.3,99.9" style="fill:none;fill-rule:evenodd;stroke:#000000;stroke-width:2.0px;stroke-linecap:butt;stroke-linejoin:miter;stroke-opacity:1"/>
<path class="bond-14 atom-14 atom-15" d="M 75.5,100.9 L 72.2,72.1" style="fill:none;fill-rule:evenodd;stroke:#000000;stroke-width:2.0px;stroke-linecap:butt;stroke-linejoin:miter;stroke-opacity:1"/>
<path class="bond-14 atom-14 atom-15" d="M 71.3,101.4 L 68.0,72.5" style="fill:none;fill-rule:evenodd;stroke:#000000;stroke-width:2.0px;stroke-linecap:butt;stroke-linejoin:miter;stroke-opacity:1"/>
<path class="bond-15 atom-14 atom-16" d="M 73.3,99.9 L 50.9,116.5" style="fill:none;fill-rule:evenodd;stroke:#000000;stroke-width:2.0px;stroke-linecap:butt;stroke-linejoin:miter;stroke-opacity:1"/>
<path class="bond-16 atom-16 atom-17" d="M 48.7,115.6 L 50.1,127.5" style="fill:none;fill-rule:evenodd;stroke:#000000;stroke-width:2.0px;stroke-linecap:butt;stroke-linejoin:miter;stroke-opacity:1"/>
<path class="bond-16 atom-16 atom-17" d="M 50.1,127.5 L 51.5,139.5" style="fill:none;fill-rule:evenodd;stroke:#FF0000;stroke-width:2.0px;stroke-linecap:butt;stroke-linejoin:miter;stroke-opacity:1"/>
<path class="bond-16 atom-16 atom-17" d="M 52.9,115.1 L 54.2,127.0" style="fill:none;fill-rule:evenodd;stroke:#000000;stroke-width:2.0px;stroke-linecap:butt;stroke-linejoin:miter;stroke-opacity:1"/>
<path class="bond-16 atom-16 atom-17" d="M 54.2,127.0 L 55.6,139.0" style="fill:none;fill-rule:evenodd;stroke:#FF0000;stroke-width:2.0px;stroke-linecap:butt;stroke-linejoin:miter;stroke-opacity:1"/>
<path class="bond-17 atom-16 atom-18" d="M 50.9,116.5 L 40.4,112.0" style="fill:none;fill-rule:evenodd;stroke:#000000;stroke-width:2.0px;stroke-linecap:butt;stroke-linejoin:miter;stroke-opacity:1"/>
<path class="bond-17 atom-16 atom-18" d="M 40.4,112.0 L 29.9,107.4" style="fill:none;fill-rule:evenodd;stroke:#FF0000;stroke-width:2.0px;stroke-linecap:butt;stroke-linejoin:miter;stroke-opacity:1"/>
<path d="M 242.6,95.8 L 242.4,94.5 L 241.1,93.9" style="fill:none;stroke:#000000;stroke-width:2.0px;stroke-linecap:butt;stroke-linejoin:miter;stroke-opacity:1;"/>
<path d="M 245.4,120.7 L 245.6,122.1 L 245.1,122.4" style="fill:none;stroke:#000000;stroke-width:2.0px;stroke-linecap:butt;stroke-linejoin:miter;stroke-opacity:1;"/>
<path d="M 218.2,84.0 L 216.9,83.4 L 215.8,84.2" style="fill:none;stroke:#000000;stroke-width:2.0px;stroke-linecap:butt;stroke-linejoin:miter;stroke-opacity:1;"/>
<path d="M 170.3,89.5 L 169.0,88.9 L 167.9,89.7" style="fill:none;stroke:#000000;stroke-width:2.0px;stroke-linecap:butt;stroke-linejoin:miter;stroke-opacity:1;"/>
<path d="M 147.8,104.7 L 146.7,105.5 L 145.4,104.9" style="fill:none;stroke:#000000;stroke-width:2.0px;stroke-linecap:butt;stroke-linejoin:miter;stroke-opacity:1;"/>
<path d="M 118.1,68.2 L 118.0,66.8 L 117.4,66.6" style="fill:none;stroke:#000000;stroke-width:2.0px;stroke-linecap:butt;stroke-linejoin:miter;stroke-opacity:1;"/>
<path d="M 99.9,110.2 L 98.8,111.0 L 97.5,110.4" style="fill:none;stroke:#000000;stroke-width:2.0px;stroke-linecap:butt;stroke-linejoin:miter;stroke-opacity:1;"/>
<path d="M 74.5,100.5 L 73.3,99.9 L 72.2,100.8" style="fill:none;stroke:#000000;stroke-width:2.0px;stroke-linecap:butt;stroke-linejoin:miter;stroke-opacity:1;"/>
<path d="M 52.0,115.7 L 50.9,116.5 L 50.4,116.3" style="fill:none;stroke:#000000;stroke-width:2.0px;stroke-linecap:butt;stroke-linejoin:miter;stroke-opacity:1;"/>
<path class="atom-3" d="M 211.9 134.8 L 212.9 134.8 L 212.9 138.1 L 216.9 138.1 L 216.9 134.8 L 218.0 134.8 L 218.0 142.7 L 216.9 142.7 L 216.9 139.0 L 212.9 139.0 L 212.9 142.7 L 211.9 142.7 L 211.9 134.8 " fill="#FF0000"/>
<path class="atom-3" d="M 219.6 138.7 Q 219.6 136.8, 220.6 135.8 Q 221.5 134.7, 223.3 134.7 Q 225.0 134.7, 225.9 135.8 Q 226.9 136.8, 226.9 138.7 Q 226.9 140.6, 225.9 141.7 Q 225.0 142.8, 223.3 142.8 Q 221.5 142.8, 220.6 141.7 Q 219.6 140.6, 219.6 138.7 M 223.3 141.9 Q 224.5 141.9, 225.1 141.1 Q 225.8 140.3, 225.8 138.7 Q 225.8 137.2, 225.1 136.4 Q 224.5 135.6, 223.3 135.6 Q 222.0 135.6, 221.4 136.4 Q 220.7 137.1, 220.7 138.7 Q 220.7 140.3, 221.4 141.1 Q 222.0 141.9, 223.3 141.9 " fill="#FF0000"/>
<path class="atom-6" d="M 194.1 127.6 Q 194.1 125.7, 195.0 124.7 Q 196.0 123.6, 197.7 123.6 Q 199.5 123.6, 200.4 124.7 Q 201.3 125.7, 201.3 127.6 Q 201.3 129.6, 200.4 130.6 Q 199.4 131.7, 197.7 131.7 Q 196.0 131.7, 195.0 130.6 Q 194.1 129.6, 194.1 127.6 M 197.7 130.8 Q 198.9 130.8, 199.6 130.0 Q 200.2 129.2, 200.2 127.6 Q 200.2 126.1, 199.6 125.3 Q 198.9 124.5, 197.7 124.5 Q 196.5 124.5, 195.9 125.3 Q 195.2 126.1, 195.2 127.6 Q 195.2 129.2, 195.9 130.0 Q 196.5 130.8, 197.7 130.8 " fill="#FF0000"/>
<path class="atom-6" d="M 202.6 123.7 L 203.6 123.7 L 203.6 127.1 L 207.7 127.1 L 207.7 123.7 L 208.7 123.7 L 208.7 131.6 L 207.7 131.6 L 207.7 128.0 L 203.6 128.0 L 203.6 131.6 L 202.6 131.6 L 202.6 123.7 " fill="#FF0000"/>
<path class="atom-12" d="M 81.0 51.8 L 82.1 51.8 L 82.1 55.2 L 86.1 55.2 L 86.1 51.8 L 87.2 51.8 L 87.2 59.7 L 86.1 59.7 L 86.1 56.1 L 82.1 56.1 L 82.1 59.7 L 81.0 59.7 L 81.0 51.8 " fill="#FF0000"/>
<path class="atom-12" d="M 88.8 55.7 Q 88.8 53.9, 89.7 52.8 Q 90.7 51.7, 92.4 51.7 Q 94.2 51.7, 95.1 52.8 Q 96.0 53.9, 96.0 55.7 Q 96.0 57.7, 95.1 58.8 Q 94.2 59.8, 92.4 59.8 Q 90.7 59.8, 89.7 58.8 Q 88.8 57.7, 88.8 55.7 M 92.4 58.9 Q 93.6 58.9, 94.3 58.1 Q 94.9 57.3, 94.9 55.7 Q 94.9 54.2, 94.3 53.4 Q 93.6 52.6, 92.4 52.6 Q 91.2 52.6, 90.6 53.4 Q 89.9 54.2, 89.9 55.7 Q 89.9 57.3, 90.6 58.1 Q 91.2 58.9, 92.4 58.9 " fill="#FF0000"/>
<path class="atom-17" d="M 50.5 144.2 Q 50.5 142.3, 51.4 141.2 Q 52.4 140.2, 54.1 140.2 Q 55.9 140.2, 56.8 141.2 Q 57.7 142.3, 57.7 144.2 Q 57.7 146.1, 56.8 147.2 Q 55.8 148.3, 54.1 148.3 Q 52.4 148.3, 51.4 147.2 Q 50.5 146.1, 50.5 144.2 M 54.1 147.4 Q 55.3 147.4, 56.0 146.6 Q 56.6 145.8, 56.6 144.2 Q 56.6 142.6, 56.0 141.8 Q 55.3 141.1, 54.1 141.1 Q 52.9 141.1, 52.2 141.8 Q 51.6 142.6, 51.6 144.2 Q 51.6 145.8, 52.2 146.6 Q 52.9 147.4, 54.1 147.4 " fill="#FF0000"/>
<path class="atom-18" d="M 14.0 101.6 L 15.1 101.6 L 15.1 104.9 L 19.1 104.9 L 19.1 101.6 L 20.2 101.6 L 20.2 109.4 L 19.1 109.4 L 19.1 105.8 L 15.1 105.8 L 15.1 109.4 L 14.0 109.4 L 14.0 101.6 " fill="#FF0000"/>
<path class="atom-18" d="M 21.8 105.5 Q 21.8 103.6, 22.7 102.5 Q 23.7 101.5, 25.4 101.5 Q 27.1 101.5, 28.1 102.5 Q 29.0 103.6, 29.0 105.5 Q 29.0 107.4, 28.1 108.5 Q 27.1 109.6, 25.4 109.6 Q 23.7 109.6, 22.7 108.5 Q 21.8 107.4, 21.8 105.5 M 25.4 108.7 Q 26.6 108.7, 27.2 107.9 Q 27.9 107.1, 27.9 105.5 Q 27.9 103.9, 27.2 103.1 Q 26.6 102.4, 25.4 102.4 Q 24.2 102.4, 23.5 103.1 Q 22.9 103.9, 22.9 105.5 Q 22.9 107.1, 23.5 107.9 Q 24.2 108.7, 25.4 108.7 " fill="#FF0000"/>
</svg>
