<?xml version='1.0' encoding='ASCII' standalone='yes'?>
<svg xmlns="http://www.w3.org/2000/svg" xmlns:rdkit="http://www.rdkit.org/xml" xmlns:xlink="http://www.w3.org/1999/xlink" version="1.1" baseProfile="full" xml:space="preserve" width="247px" height="200px" viewBox="0 0 247 200">
<!-- END OF HEADER -->
<rect style="opacity:1.0;fill:#FFFFFF;stroke:none" width="247.0" height="200.0" x="0.0" y="0.0"> </rect>
<path class="bond-0 atom-0 atom-1" d="M 147.3,63.8 L 157.0,99.9" style="fill:none;fill-rule:evenodd;stroke:#000000;stroke-width:2.0px;stroke-linecap:butt;stroke-linejoin:miter;stroke-opacity:1"/>
<path class="bond-1 atom-1 atom-2" d="M 157.0,99.9 L 166.7,136.0" style="fill:none;fill-rule:evenodd;stroke:#000000;stroke-width:2.0px;stroke-linecap:butt;stroke-linejoin:miter;stroke-opacity:1"/>
<path class="bond-2 atom-1 atom-3" d="M 157.0,99.9 L 193.1,90.2" style="fill:none;fill-rule:evenodd;stroke:#000000;stroke-width:2.0px;stroke-linecap:butt;stroke-linejoin:miter;stroke-opacity:1"/>
<path class="bond-3 atom-3 atom-4" d="M 195.4,92.5 L 199.5,77.0" style="fill:none;fill-rule:evenodd;stroke:#000000;stroke-width:2.0px;stroke-linecap:butt;stroke-linejoin:miter;stroke-opacity:1"/>
<path class="bond-3 atom-3 atom-4" d="M 199.5,77.0 L 203.7,61.6" style="fill:none;fill-rule:evenodd;stroke:#FF0000;stroke-width:2.0px;stroke-linecap:butt;stroke-linejoin:miter;stroke-opacity:1"/>
<path class="bond-3 atom-3 atom-4" d="M 190.0,91.1 L 194.1,75.6" style="fill:none;fill-rule:evenodd;stroke:#000000;stroke-width:2.0px;stroke-linecap:butt;stroke-linejoin:miter;stroke-opacity:1"/>
<path class="bond-3 atom-3 atom-4" d="M 194.1,75.6 L 198.2,60.1" style="fill:none;fill-rule:evenodd;stroke:#FF0000;stroke-width:2.0px;stroke-linecap:butt;stroke-linejoin:miter;stroke-opacity:1"/>
<path class="bond-4 atom-3 atom-5" d="M 193.1,90.2 L 203.3,100.4" style="fill:none;fill-rule:evenodd;stroke:#000000;stroke-width:2.0px;stroke-linecap:butt;stroke-linejoin:miter;stroke-opacity:1"/>
<path class="bond-4 atom-3 atom-5" d="M 203.3,100.4 L 213.5,110.5" style="fill:none;fill-rule:evenodd;stroke:#FF0000;stroke-width:2.0px;stroke-linecap:butt;stroke-linejoin:miter;stroke-opacity:1"/>
<path class="bond-5 atom-1 atom-6" d="M 157.0,99.9 L 120.9,109.6" style="fill:none;fill-rule:evenodd;stroke:#000000;stroke-width:2.0px;stroke-linecap:butt;stroke-linejoin:miter;stroke-opacity:1"/>
<path class="bond-6 atom-6 atom-7" d="M 120.9,109.6 L 124.9,124.4" style="fill:none;fill-rule:evenodd;stroke:#000000;stroke-width:2.0px;stroke-linecap:butt;stroke-linejoin:miter;stroke-opacity:1"/>
<path class="bond-6 atom-6 atom-7" d="M 124.9,124.4 L 128.8,139.1" style="fill:none;fill-rule:evenodd;stroke:#FF0000;stroke-width:2.0px;stroke-linecap:butt;stroke-linejoin:miter;stroke-opacity:1"/>
<path class="bond-7 atom-6 atom-8" d="M 120.9,109.6 L 111.2,73.5" style="fill:none;fill-rule:evenodd;stroke:#000000;stroke-width:2.0px;stroke-linecap:butt;stroke-linejoin:miter;stroke-opacity:1"/>
<path class="bond-8 atom-8 atom-9" d="M 111.2,73.5 L 94.1,69.0" style="fill:none;fill-rule:evenodd;stroke:#000000;stroke-width:2.0px;stroke-linecap:butt;stroke-linejoin:miter;stroke-opacity:1"/>
<path class="bond-8 atom-8 atom-9" d="M 94.1,69.0 L 77.0,64.4" style="fill:none;fill-rule:evenodd;stroke:#00CC00;stroke-width:2.0px;stroke-linecap:butt;stroke-linejoin:miter;stroke-opacity:1"/>
<path class="bond-9 atom-6 atom-10" d="M 120.9,109.6 L 84.8,119.3" style="fill:none;fill-rule:evenodd;stroke:#000000;stroke-width:2.0px;stroke-linecap:butt;stroke-linejoin:miter;stroke-opacity:1"/>
<path class="bond-10 atom-10 atom-11" d="M 84.8,119.3 L 58.4,92.9" style="fill:none;fill-rule:evenodd;stroke:#000000;stroke-width:2.0px;stroke-linecap:butt;stroke-linejoin:miter;stroke-opacity:1"/>
<path class="bond-11 atom-11 atom-12" d="M 58.4,92.9 L 41.3,97.5" style="fill:none;fill-rule:evenodd;stroke:#000000;stroke-width:2.0px;stroke-linecap:butt;stroke-linejoin:miter;stroke-opacity:1"/>
<path class="bond-11 atom-11 atom-12" d="M 41.3,97.5 L 24.2,102.1" style="fill:none;fill-rule:evenodd;stroke:#00CC00;stroke-width:2.0px;stroke-linecap:butt;stroke-linejoin:miter;stroke-opacity:1"/>
<path d="M 191.3,90.7 L 193.1,90.2 L 193.6,90.7" style="fill:none;stroke:#000000;stroke-width:2.0px;stroke-linecap:butt;stroke-linejoin:miter;stroke-opacity:1;"/>
<path d="M 111.7,75.3 L 111.2,73.5 L 110.4,73.3" style="fill:none;stroke:#000000;stroke-width:2.0px;stroke-linecap:butt;stroke-linejoin:miter;stroke-opacity:1;"/>
<path d="M 86.6,118.8 L 84.8,119.3 L 83.5,118.0" style="fill:none;stroke:#000000;stroke-width:2.0px;stroke-linecap:butt;stroke-linejoin:miter;stroke-opacity:1;"/>
<path d="M 59.7,94.2 L 58.4,92.9 L 57.5,93.1" style="fill:none;stroke:#000000;stroke-width:2.0px;stroke-linecap:butt;stroke-linejoin:miter;stroke-opacity:1;"/>
<path class="atom-4" d="M 197.9 54.1 Q 197.9 51.6, 199.2 50.2 Q 200.4 48.8, 202.8 48.8 Q 205.1 48.8, 206.4 50.2 Q 207.6 51.6, 207.6 54.1 Q 207.6 56.7, 206.3 58.2 Q 205.1 59.6, 202.8 59.6 Q 200.4 59.6, 199.2 58.2 Q 197.9 56.7, 197.9 54.1 M 202.8 58.4 Q 204.4 58.4, 205.2 57.4 Q 206.1 56.3, 206.1 54.1 Q 206.1 52.1, 205.2 51.0 Q 204.4 50.0, 202.8 50.0 Q 201.1 50.0, 200.3 51.0 Q 199.4 52.0, 199.4 54.1 Q 199.4 56.3, 200.3 57.4 Q 201.1 58.4, 202.8 58.4 " fill="#FF0000"/>
<path class="atom-5" d="M 214.7 116.7 Q 214.7 114.1, 216.0 112.7 Q 217.2 111.3, 219.6 111.3 Q 221.9 111.3, 223.2 112.7 Q 224.4 114.1, 224.4 116.7 Q 224.4 119.2, 223.1 120.7 Q 221.9 122.1, 219.6 122.1 Q 217.2 122.1, 216.0 120.7 Q 214.7 119.2, 214.7 116.7 M 219.6 121.0 Q 221.2 121.0, 222.0 119.9 Q 222.9 118.8, 222.9 116.7 Q 222.9 114.6, 222.0 113.5 Q 221.2 112.5, 219.6 112.5 Q 217.9 112.5, 217.1 113.5 Q 216.2 114.6, 216.2 116.7 Q 216.2 118.8, 217.1 119.9 Q 217.9 121.0, 219.6 121.0 " fill="#FF0000"/>
<path class="atom-5" d="M 226.1 111.4 L 227.5 111.4 L 227.5 115.9 L 232.9 115.9 L 232.9 111.4 L 234.3 111.4 L 234.3 122.0 L 232.9 122.0 L 232.9 117.1 L 227.5 117.1 L 227.5 122.0 L 226.1 122.0 L 226.1 111.4 " fill="#FF0000"/>
<path class="atom-7" d="M 125.8 145.8 Q 125.8 143.2, 127.0 141.8 Q 128.3 140.4, 130.6 140.4 Q 133.0 140.4, 134.2 141.8 Q 135.5 143.2, 135.5 145.8 Q 135.5 148.3, 134.2 149.8 Q 132.9 151.2, 130.6 151.2 Q 128.3 151.2, 127.0 149.8 Q 125.8 148.3, 125.8 145.8 M 130.6 150.0 Q 132.2 150.0, 133.1 149.0 Q 134.0 147.9, 134.0 145.8 Q 134.0 143.7, 133.1 142.6 Q 132.2 141.6, 130.6 141.6 Q 129.0 141.6, 128.1 142.6 Q 127.3 143.7, 127.3 145.8 Q 127.3 147.9, 128.1 149.0 Q 129.0 150.0, 130.6 150.0 " fill="#FF0000"/>
<path class="atom-7" d="M 137.1 140.5 L 138.6 140.5 L 138.6 145.0 L 144.0 145.0 L 144.0 140.5 L 145.4 140.5 L 145.4 151.1 L 144.0 151.1 L 144.0 146.2 L 138.6 146.2 L 138.6 151.1 L 137.1 151.1 L 137.1 140.5 " fill="#FF0000"/>
<path class="atom-9" d="M 65.2 64.3 Q 65.2 61.6, 66.4 60.2 Q 67.6 58.9, 70.0 58.9 Q 72.2 58.9, 73.3 60.4 L 72.4 61.2 Q 71.5 60.1, 70.0 60.1 Q 68.4 60.1, 67.5 61.2 Q 66.7 62.2, 66.7 64.3 Q 66.7 66.3, 67.6 67.4 Q 68.5 68.5, 70.2 68.5 Q 71.3 68.5, 72.7 67.8 L 73.1 68.9 Q 72.6 69.3, 71.7 69.5 Q 70.9 69.7, 69.9 69.7 Q 67.6 69.7, 66.4 68.3 Q 65.2 66.9, 65.2 64.3 " fill="#00CC00"/>
<path class="atom-9" d="M 74.4 58.2 L 75.8 58.2 L 75.8 69.6 L 74.4 69.6 L 74.4 58.2 " fill="#00CC00"/>
<path class="atom-12" d="M 12.4 103.0 Q 12.4 100.4, 13.6 99.0 Q 14.8 97.6, 17.2 97.6 Q 19.3 97.6, 20.5 99.1 L 19.5 99.9 Q 18.7 98.8, 17.2 98.8 Q 15.6 98.8, 14.7 99.9 Q 13.9 101.0, 13.9 103.0 Q 13.9 105.1, 14.7 106.2 Q 15.6 107.2, 17.3 107.2 Q 18.5 107.2, 19.9 106.5 L 20.3 107.7 Q 19.7 108.0, 18.9 108.2 Q 18.0 108.4, 17.1 108.4 Q 14.8 108.4, 13.6 107.0 Q 12.4 105.6, 12.4 103.0 " fill="#00CC00"/>
<path class="atom-12" d="M 21.6 96.9 L 23.0 96.9 L 23.0 108.3 L 21.6 108.3 L 21.6 96.9 " fill="#00CC00"/>
</svg>
