<?xml version='1.0' encoding='ASCII' standalone='yes'?>
<svg xmlns="http://www.w3.org/2000/svg" xmlns:rdkit="http://www.rdkit.org/xml" xmlns:xlink="http://www.w3.org/1999/xlink" version="1.1" baseProfile="full" xml:space="preserve" width="240px" height="200px" viewBox="0 0 240 200">
<!-- END OF HEADER -->
<rect style="opacity:1.0;fill:#FFFFFF;stroke:none" width="240.0" height="200.0" x="0.0" y="0.0"> </rect>
<path class="bond-0 atom-0 atom-1" d="M 12.0,84.1 L 47.0,68.0" style="fill:none;fill-rule:evenodd;stroke:#000000;stroke-width:2.0px;stroke-linecap:butt;stroke-linejoin:miter;stroke-opacity:1"/>
<path class="bond-1 atom-1 atom-2" d="M 47.0,68.0 L 78.5,90.3" style="fill:none;fill-rule:evenodd;stroke:#000000;stroke-width:2.0px;stroke-linecap:butt;stroke-linejoin:miter;stroke-opacity:1"/>
<path class="bond-2 atom-2 atom-3" d="M 78.5,90.3 L 113.5,74.2" style="fill:none;fill-rule:evenodd;stroke:#000000;stroke-width:2.0px;stroke-linecap:butt;stroke-linejoin:miter;stroke-opacity:1"/>
<path class="bond-3 atom-3 atom-4" d="M 113.5,74.2 L 145.0,96.5" style="fill:none;fill-rule:evenodd;stroke:#000000;stroke-width:2.0px;stroke-linecap:butt;stroke-linejoin:miter;stroke-opacity:1"/>
<path class="bond-4 atom-4 atom-5" d="M 145.0,96.5 L 122.7,128.0" style="fill:none;fill-rule:evenodd;stroke:#000000;stroke-width:2.0px;stroke-linecap:butt;stroke-linejoin:miter;stroke-opacity:1"/>
<path class="bond-5 atom-4 atom-6" d="M 145.0,96.5 L 167.3,65.0" style="fill:none;fill-rule:evenodd;stroke:#000000;stroke-width:2.0px;stroke-linecap:butt;stroke-linejoin:miter;stroke-opacity:1"/>
<path class="bond-6 atom-6 atom-7" d="M 167.3,65.0 L 205.7,68.6" style="fill:none;fill-rule:evenodd;stroke:#000000;stroke-width:2.0px;stroke-linecap:butt;stroke-linejoin:miter;stroke-opacity:1"/>
<path class="bond-7 atom-7 atom-8" d="M 205.7,68.6 L 228.0,37.1" style="fill:none;fill-rule:evenodd;stroke:#000000;stroke-width:2.0px;stroke-linecap:butt;stroke-linejoin:miter;stroke-opacity:1"/>
<path class="bond-8 atom-4 atom-9" d="M 145.0,96.5 L 176.5,118.8" style="fill:none;fill-rule:evenodd;stroke:#000000;stroke-width:2.0px;stroke-linecap:butt;stroke-linejoin:miter;stroke-opacity:1"/>
<path class="bond-9 atom-9 atom-10" d="M 176.2,122.1 L 191.3,115.2" style="fill:none;fill-rule:evenodd;stroke:#000000;stroke-width:2.0px;stroke-linecap:butt;stroke-linejoin:miter;stroke-opacity:1"/>
<path class="bond-9 atom-9 atom-10" d="M 191.3,115.2 L 206.4,108.2" style="fill:none;fill-rule:evenodd;stroke:#FF0000;stroke-width:2.0px;stroke-linecap:butt;stroke-linejoin:miter;stroke-opacity:1"/>
<path class="bond-9 atom-9 atom-10" d="M 173.8,116.9 L 188.9,109.9" style="fill:none;fill-rule:evenodd;stroke:#000000;stroke-width:2.0px;stroke-linecap:butt;stroke-linejoin:miter;stroke-opacity:1"/>
<path class="bond-9 atom-9 atom-10" d="M 188.9,109.9 L 204.0,102.9" style="fill:none;fill-rule:evenodd;stroke:#FF0000;stroke-width:2.0px;stroke-linecap:butt;stroke-linejoin:miter;stroke-opacity:1"/>
<path class="bond-10 atom-9 atom-11" d="M 176.5,118.8 L 175.0,134.6" style="fill:none;fill-rule:evenodd;stroke:#000000;stroke-width:2.0px;stroke-linecap:butt;stroke-linejoin:miter;stroke-opacity:1"/>
<path class="bond-10 atom-9 atom-11" d="M 175.0,134.6 L 173.5,150.4" style="fill:none;fill-rule:evenodd;stroke:#FF0000;stroke-width:2.0px;stroke-linecap:butt;stroke-linejoin:miter;stroke-opacity:1"/>
<path d="M 45.3,68.8 L 47.0,68.0 L 48.6,69.1" style="fill:none;stroke:#000000;stroke-width:2.0px;stroke-linecap:butt;stroke-linejoin:miter;stroke-opacity:1;"/>
<path d="M 76.9,89.2 L 78.5,90.3 L 80.3,89.5" style="fill:none;stroke:#000000;stroke-width:2.0px;stroke-linecap:butt;stroke-linejoin:miter;stroke-opacity:1;"/>
<path d="M 111.8,75.0 L 113.5,74.2 L 115.1,75.3" style="fill:none;stroke:#000000;stroke-width:2.0px;stroke-linecap:butt;stroke-linejoin:miter;stroke-opacity:1;"/>
<path d="M 166.2,66.6 L 167.3,65.0 L 169.2,65.2" style="fill:none;stroke:#000000;stroke-width:2.0px;stroke-linecap:butt;stroke-linejoin:miter;stroke-opacity:1;"/>
<path d="M 203.8,68.4 L 205.7,68.6 L 206.8,67.0" style="fill:none;stroke:#000000;stroke-width:2.0px;stroke-linecap:butt;stroke-linejoin:miter;stroke-opacity:1;"/>
<path d="M 174.9,117.7 L 176.5,118.8 L 176.4,119.6" style="fill:none;stroke:#000000;stroke-width:2.0px;stroke-linecap:butt;stroke-linejoin:miter;stroke-opacity:1;"/>
<path class="atom-10" d="M 206.5 102.7 Q 206.5 100.1, 207.8 98.6 Q 209.1 97.2, 211.5 97.2 Q 213.9 97.2, 215.2 98.6 Q 216.5 100.1, 216.5 102.7 Q 216.5 105.4, 215.2 106.9 Q 213.9 108.4, 211.5 108.4 Q 209.1 108.4, 207.8 106.9 Q 206.5 105.4, 206.5 102.7 M 211.5 107.1 Q 213.2 107.1, 214.1 106.0 Q 215.0 104.9, 215.0 102.7 Q 215.0 100.6, 214.1 99.5 Q 213.2 98.4, 211.5 98.4 Q 209.9 98.4, 208.9 99.5 Q 208.1 100.5, 208.1 102.7 Q 208.1 104.9, 208.9 106.0 Q 209.9 107.1, 211.5 107.1 " fill="#FF0000"/>
<path class="atom-11" d="M 167.9 157.2 Q 167.9 154.6, 169.2 153.1 Q 170.5 151.7, 172.9 151.7 Q 175.3 151.7, 176.6 153.1 Q 177.9 154.6, 177.9 157.2 Q 177.9 159.9, 176.6 161.4 Q 175.3 162.9, 172.9 162.9 Q 170.5 162.9, 169.2 161.4 Q 167.9 159.9, 167.9 157.2 M 172.9 161.6 Q 174.6 161.6, 175.5 160.5 Q 176.4 159.4, 176.4 157.2 Q 176.4 155.1, 175.5 154.0 Q 174.6 152.9, 172.9 152.9 Q 171.2 152.9, 170.3 154.0 Q 169.4 155.1, 169.4 157.2 Q 169.4 159.4, 170.3 160.5 Q 171.2 161.6, 172.9 161.6 " fill="#FF0000"/>
<path class="atom-11" d="M 179.6 151.8 L 181.1 151.8 L 181.1 156.4 L 186.7 156.4 L 186.7 151.8 L 188.2 151.8 L 188.2 162.7 L 186.7 162.7 L 186.7 157.7 L 181.1 157.7 L 181.1 162.7 L 179.6 162.7 L 179.6 151.8 " fill="#FF0000"/>
</svg>
