<?xml version='1.0' encoding='ASCII' standalone='yes'?>
<svg xmlns="http://www.w3.org/2000/svg" xmlns:rdkit="http://www.rdkit.org/xml" xmlns:xlink="http://www.w3.org/1999/xlink" version="1.1" baseProfile="full" xml:space="preserve" width="333px" height="200px" viewBox="0 0 333 200">
<!-- END OF HEADER -->
<rect style="opacity:1.0;fill:#FFFFFF;stroke:none" width="333.0" height="200.0" x="0.0" y="0.0"> </rect>
<path class="bond-0 atom-0 atom-1" d="M 19.4,104.1 L 25.1,102.2" style="fill:none;fill-rule:evenodd;stroke:#191919;stroke-width:2.0px;stroke-linecap:butt;stroke-linejoin:miter;stroke-opacity:1"/>
<path class="bond-0 atom-0 atom-1" d="M 25.1,102.2 L 30.9,100.4" style="fill:none;fill-rule:evenodd;stroke:#0000FF;stroke-width:2.0px;stroke-linecap:butt;stroke-linejoin:miter;stroke-opacity:1"/>
<path class="bond-1 atom-1 atom-2" d="M 35.5,101.7 L 40.3,106.2" style="fill:none;fill-rule:evenodd;stroke:#0000FF;stroke-width:2.0px;stroke-linecap:butt;stroke-linejoin:miter;stroke-opacity:1"/>
<path class="bond-1 atom-1 atom-2" d="M 40.3,106.2 L 45.2,110.6" style="fill:none;fill-rule:evenodd;stroke:#000000;stroke-width:2.0px;stroke-linecap:butt;stroke-linejoin:miter;stroke-opacity:1"/>
<path class="bond-2 atom-2 atom-3" d="M 45.2,110.6 L 60.6,105.7" style="fill:none;fill-rule:evenodd;stroke:#000000;stroke-width:2.0px;stroke-linecap:butt;stroke-linejoin:miter;stroke-opacity:1"/>
<path class="bond-3 atom-3 atom-4" d="M 60.6,105.7 L 65.3,109.9" style="fill:none;fill-rule:evenodd;stroke:#000000;stroke-width:2.0px;stroke-linecap:butt;stroke-linejoin:miter;stroke-opacity:1"/>
<path class="bond-3 atom-3 atom-4" d="M 65.3,109.9 L 70.0,114.2" style="fill:none;fill-rule:evenodd;stroke:#FF0000;stroke-width:2.0px;stroke-linecap:butt;stroke-linejoin:miter;stroke-opacity:1"/>
<path class="bond-4 atom-4 atom-5" d="M 75.3,115.7 L 80.7,114.0" style="fill:none;fill-rule:evenodd;stroke:#FF0000;stroke-width:2.0px;stroke-linecap:butt;stroke-linejoin:miter;stroke-opacity:1"/>
<path class="bond-4 atom-4 atom-5" d="M 80.7,114.0 L 86.1,112.3" style="fill:none;fill-rule:evenodd;stroke:#FF7F00;stroke-width:2.0px;stroke-linecap:butt;stroke-linejoin:miter;stroke-opacity:1"/>
<path class="bond-5 atom-5 atom-6" d="M 87.8,114.9 L 89.4,119.7" style="fill:none;fill-rule:evenodd;stroke:#FF7F00;stroke-width:2.0px;stroke-linecap:butt;stroke-linejoin:miter;stroke-opacity:1"/>
<path class="bond-5 atom-5 atom-6" d="M 89.4,119.7 L 90.9,124.6" style="fill:none;fill-rule:evenodd;stroke:#FF0000;stroke-width:2.0px;stroke-linecap:butt;stroke-linejoin:miter;stroke-opacity:1"/>
<path class="bond-5 atom-5 atom-6" d="M 90.1,114.1 L 91.7,119.0" style="fill:none;fill-rule:evenodd;stroke:#FF7F00;stroke-width:2.0px;stroke-linecap:butt;stroke-linejoin:miter;stroke-opacity:1"/>
<path class="bond-5 atom-5 atom-6" d="M 91.7,119.0 L 93.3,123.9" style="fill:none;fill-rule:evenodd;stroke:#FF0000;stroke-width:2.0px;stroke-linecap:butt;stroke-linejoin:miter;stroke-opacity:1"/>
<path class="bond-6 atom-5 atom-7" d="M 87.2,108.8 L 85.6,104.0" style="fill:none;fill-rule:evenodd;stroke:#FF7F00;stroke-width:2.0px;stroke-linecap:butt;stroke-linejoin:miter;stroke-opacity:1"/>
<path class="bond-6 atom-5 atom-7" d="M 85.6,104.0 L 84.1,99.1" style="fill:none;fill-rule:evenodd;stroke:#FF0000;stroke-width:2.0px;stroke-linecap:butt;stroke-linejoin:miter;stroke-opacity:1"/>
<path class="bond-7 atom-5 atom-8" d="M 90.1,111.0 L 95.5,109.3" style="fill:none;fill-rule:evenodd;stroke:#FF7F00;stroke-width:2.0px;stroke-linecap:butt;stroke-linejoin:miter;stroke-opacity:1"/>
<path class="bond-7 atom-5 atom-8" d="M 95.5,109.3 L 100.9,107.6" style="fill:none;fill-rule:evenodd;stroke:#FF0000;stroke-width:2.0px;stroke-linecap:butt;stroke-linejoin:miter;stroke-opacity:1"/>
<path class="bond-8 atom-8 atom-9" d="M 104.2,103.9 L 105.6,97.4" style="fill:none;fill-rule:evenodd;stroke:#FF0000;stroke-width:2.0px;stroke-linecap:butt;stroke-linejoin:miter;stroke-opacity:1"/>
<path class="bond-8 atom-8 atom-9" d="M 105.6,97.4 L 107.0,90.9" style="fill:none;fill-rule:evenodd;stroke:#000000;stroke-width:2.0px;stroke-linecap:butt;stroke-linejoin:miter;stroke-opacity:1"/>
<path class="bond-9 atom-9 atom-10" d="M 107.0,90.9 L 122.5,86.0" style="fill:none;fill-rule:evenodd;stroke:#000000;stroke-width:2.0px;stroke-linecap:butt;stroke-linejoin:miter;stroke-opacity:1"/>
<path class="bond-10 atom-10 atom-11" d="M 122.5,86.0 L 127.4,101.4" style="fill:none;fill-rule:evenodd;stroke:#000000;stroke-width:2.0px;stroke-linecap:butt;stroke-linejoin:miter;stroke-opacity:1"/>
<path class="bond-11 atom-10 atom-12" d="M 122.5,86.0 L 117.5,70.5" style="fill:none;fill-rule:evenodd;stroke:#000000;stroke-width:2.0px;stroke-linecap:butt;stroke-linejoin:miter;stroke-opacity:1"/>
<path class="bond-12 atom-10 atom-13" d="M 122.5,86.0 L 137.9,81.0" style="fill:none;fill-rule:evenodd;stroke:#000000;stroke-width:2.0px;stroke-linecap:butt;stroke-linejoin:miter;stroke-opacity:1"/>
<path class="bond-13 atom-13 atom-14" d="M 137.9,81.0 L 139.3,74.6" style="fill:none;fill-rule:evenodd;stroke:#000000;stroke-width:2.0px;stroke-linecap:butt;stroke-linejoin:miter;stroke-opacity:1"/>
<path class="bond-13 atom-13 atom-14" d="M 139.3,74.6 L 140.7,68.1" style="fill:none;fill-rule:evenodd;stroke:#FF0000;stroke-width:2.0px;stroke-linecap:butt;stroke-linejoin:miter;stroke-opacity:1"/>
<path class="bond-14 atom-13 atom-15" d="M 137.9,81.0 L 149.9,92.0" style="fill:none;fill-rule:evenodd;stroke:#000000;stroke-width:2.0px;stroke-linecap:butt;stroke-linejoin:miter;stroke-opacity:1"/>
<path class="bond-15 atom-15 atom-16" d="M 148.9,91.0 L 147.4,97.9" style="fill:none;fill-rule:evenodd;stroke:#000000;stroke-width:2.0px;stroke-linecap:butt;stroke-linejoin:miter;stroke-opacity:1"/>
<path class="bond-15 atom-15 atom-16" d="M 147.4,97.9 L 145.9,104.7" style="fill:none;fill-rule:evenodd;stroke:#FF0000;stroke-width:2.0px;stroke-linecap:butt;stroke-linejoin:miter;stroke-opacity:1"/>
<path class="bond-15 atom-15 atom-16" d="M 151.2,91.5 L 149.7,98.4" style="fill:none;fill-rule:evenodd;stroke:#000000;stroke-width:2.0px;stroke-linecap:butt;stroke-linejoin:miter;stroke-opacity:1"/>
<path class="bond-15 atom-15 atom-16" d="M 149.7,98.4 L 148.2,105.2" style="fill:none;fill-rule:evenodd;stroke:#FF0000;stroke-width:2.0px;stroke-linecap:butt;stroke-linejoin:miter;stroke-opacity:1"/>
<path class="bond-16 atom-15 atom-17" d="M 149.9,92.0 L 156.5,89.9" style="fill:none;fill-rule:evenodd;stroke:#000000;stroke-width:2.0px;stroke-linecap:butt;stroke-linejoin:miter;stroke-opacity:1"/>
<path class="bond-16 atom-15 atom-17" d="M 156.5,89.9 L 163.1,87.8" style="fill:none;fill-rule:evenodd;stroke:#0000FF;stroke-width:2.0px;stroke-linecap:butt;stroke-linejoin:miter;stroke-opacity:1"/>
<path class="bond-17 atom-17 atom-18" d="M 167.6,89.1 L 172.5,93.5" style="fill:none;fill-rule:evenodd;stroke:#0000FF;stroke-width:2.0px;stroke-linecap:butt;stroke-linejoin:miter;stroke-opacity:1"/>
<path class="bond-17 atom-17 atom-18" d="M 172.5,93.5 L 177.3,98.0" style="fill:none;fill-rule:evenodd;stroke:#000000;stroke-width:2.0px;stroke-linecap:butt;stroke-linejoin:miter;stroke-opacity:1"/>
<path class="bond-18 atom-18 atom-19" d="M 177.3,98.0 L 192.8,93.0" style="fill:none;fill-rule:evenodd;stroke:#000000;stroke-width:2.0px;stroke-linecap:butt;stroke-linejoin:miter;stroke-opacity:1"/>
<path class="bond-19 atom-19 atom-20" d="M 192.8,93.0 L 204.8,104.0" style="fill:none;fill-rule:evenodd;stroke:#000000;stroke-width:2.0px;stroke-linecap:butt;stroke-linejoin:miter;stroke-opacity:1"/>
<path class="bond-20 atom-20 atom-21" d="M 203.7,103.0 L 202.3,109.9" style="fill:none;fill-rule:evenodd;stroke:#000000;stroke-width:2.0px;stroke-linecap:butt;stroke-linejoin:miter;stroke-opacity:1"/>
<path class="bond-20 atom-20 atom-21" d="M 202.3,109.9 L 200.8,116.7" style="fill:none;fill-rule:evenodd;stroke:#FF0000;stroke-width:2.0px;stroke-linecap:butt;stroke-linejoin:miter;stroke-opacity:1"/>
<path class="bond-20 atom-20 atom-21" d="M 206.1,103.5 L 204.6,110.4" style="fill:none;fill-rule:evenodd;stroke:#000000;stroke-width:2.0px;stroke-linecap:butt;stroke-linejoin:miter;stroke-opacity:1"/>
<path class="bond-20 atom-20 atom-21" d="M 204.6,110.4 L 203.1,117.2" style="fill:none;fill-rule:evenodd;stroke:#FF0000;stroke-width:2.0px;stroke-linecap:butt;stroke-linejoin:miter;stroke-opacity:1"/>
<path class="bond-21 atom-20 atom-22" d="M 204.8,104.0 L 211.4,101.9" style="fill:none;fill-rule:evenodd;stroke:#000000;stroke-width:2.0px;stroke-linecap:butt;stroke-linejoin:miter;stroke-opacity:1"/>
<path class="bond-21 atom-20 atom-22" d="M 211.4,101.9 L 218.0,99.8" style="fill:none;fill-rule:evenodd;stroke:#0000FF;stroke-width:2.0px;stroke-linecap:butt;stroke-linejoin:miter;stroke-opacity:1"/>
<path class="bond-22 atom-22 atom-23" d="M 222.5,101.1 L 227.4,105.5" style="fill:none;fill-rule:evenodd;stroke:#0000FF;stroke-width:2.0px;stroke-linecap:butt;stroke-linejoin:miter;stroke-opacity:1"/>
<path class="bond-22 atom-22 atom-23" d="M 227.4,105.5 L 232.2,110.0" style="fill:none;fill-rule:evenodd;stroke:#000000;stroke-width:2.0px;stroke-linecap:butt;stroke-linejoin:miter;stroke-opacity:1"/>
<path class="bond-23 atom-23 atom-24" d="M 232.2,110.0 L 247.7,105.0" style="fill:none;fill-rule:evenodd;stroke:#000000;stroke-width:2.0px;stroke-linecap:butt;stroke-linejoin:miter;stroke-opacity:1"/>
<path class="bond-24 atom-24 atom-25" d="M 247.7,105.0 L 252.7,109.6" style="fill:none;fill-rule:evenodd;stroke:#000000;stroke-width:2.0px;stroke-linecap:butt;stroke-linejoin:miter;stroke-opacity:1"/>
<path class="bond-24 atom-24 atom-25" d="M 252.7,109.6 L 257.7,114.1" style="fill:none;fill-rule:evenodd;stroke:#CCCC00;stroke-width:2.0px;stroke-linecap:butt;stroke-linejoin:miter;stroke-opacity:1"/>
<path class="bond-25 atom-25 atom-26" d="M 261.7,115.3 L 268.4,113.2" style="fill:none;fill-rule:evenodd;stroke:#CCCC00;stroke-width:2.0px;stroke-linecap:butt;stroke-linejoin:miter;stroke-opacity:1"/>
<path class="bond-25 atom-25 atom-26" d="M 268.4,113.2 L 275.1,111.0" style="fill:none;fill-rule:evenodd;stroke:#000000;stroke-width:2.0px;stroke-linecap:butt;stroke-linejoin:miter;stroke-opacity:1"/>
<path class="bond-26 atom-26 atom-27" d="M 276.2,112.0 L 277.7,105.2" style="fill:none;fill-rule:evenodd;stroke:#000000;stroke-width:2.0px;stroke-linecap:butt;stroke-linejoin:miter;stroke-opacity:1"/>
<path class="bond-26 atom-26 atom-27" d="M 277.7,105.2 L 279.1,98.4" style="fill:none;fill-rule:evenodd;stroke:#FF0000;stroke-width:2.0px;stroke-linecap:butt;stroke-linejoin:miter;stroke-opacity:1"/>
<path class="bond-26 atom-26 atom-27" d="M 273.8,111.5 L 275.3,104.7" style="fill:none;fill-rule:evenodd;stroke:#000000;stroke-width:2.0px;stroke-linecap:butt;stroke-linejoin:miter;stroke-opacity:1"/>
<path class="bond-26 atom-26 atom-27" d="M 275.3,104.7 L 276.8,97.9" style="fill:none;fill-rule:evenodd;stroke:#FF0000;stroke-width:2.0px;stroke-linecap:butt;stroke-linejoin:miter;stroke-opacity:1"/>
<path class="bond-27 atom-26 atom-28" d="M 275.1,111.0 L 287.1,122.0" style="fill:none;fill-rule:evenodd;stroke:#000000;stroke-width:2.0px;stroke-linecap:butt;stroke-linejoin:miter;stroke-opacity:1"/>
<path class="bond-28 atom-28 atom-29" d="M 287.1,122.0 L 302.6,117.0" style="fill:none;fill-rule:evenodd;stroke:#000000;stroke-width:2.0px;stroke-linecap:butt;stroke-linejoin:miter;stroke-opacity:1"/>
<path class="bond-29 atom-29 atom-30" d="M 302.6,117.0 L 307.8,121.8" style="fill:none;fill-rule:evenodd;stroke:#000000;stroke-width:2.0px;stroke-linecap:butt;stroke-linejoin:miter;stroke-opacity:1"/>
<path class="bond-29 atom-29 atom-30" d="M 307.8,121.8 L 312.9,126.5" style="fill:none;fill-rule:evenodd;stroke:#191919;stroke-width:2.0px;stroke-linecap:butt;stroke-linejoin:miter;stroke-opacity:1"/>
<path class="bond-30 atom-29 atom-31" d="M 303.6,118.0 L 305.1,111.2" style="fill:none;fill-rule:evenodd;stroke:#000000;stroke-width:2.0px;stroke-linecap:butt;stroke-linejoin:miter;stroke-opacity:1"/>
<path class="bond-30 atom-29 atom-31" d="M 305.1,111.2 L 306.6,104.4" style="fill:none;fill-rule:evenodd;stroke:#FF0000;stroke-width:2.0px;stroke-linecap:butt;stroke-linejoin:miter;stroke-opacity:1"/>
<path class="bond-30 atom-29 atom-31" d="M 301.2,117.5 L 302.7,110.7" style="fill:none;fill-rule:evenodd;stroke:#000000;stroke-width:2.0px;stroke-linecap:butt;stroke-linejoin:miter;stroke-opacity:1"/>
<path class="bond-30 atom-29 atom-31" d="M 302.7,110.7 L 304.2,103.9" style="fill:none;fill-rule:evenodd;stroke:#FF0000;stroke-width:2.0px;stroke-linecap:butt;stroke-linejoin:miter;stroke-opacity:1"/>
<path class="bond-31 atom-2 atom-32" d="M 45.2,110.6 L 41.7,126.4" style="fill:none;fill-rule:evenodd;stroke:#000000;stroke-width:2.0px;stroke-linecap:butt;stroke-linejoin:miter;stroke-opacity:1"/>
<path class="bond-32 atom-32 atom-33" d="M 41.7,126.4 L 46.9,131.2" style="fill:none;fill-rule:evenodd;stroke:#000000;stroke-width:2.0px;stroke-linecap:butt;stroke-linejoin:miter;stroke-opacity:1"/>
<path class="bond-32 atom-32 atom-33" d="M 46.9,131.2 L 52.1,135.9" style="fill:none;fill-rule:evenodd;stroke:#191919;stroke-width:2.0px;stroke-linecap:butt;stroke-linejoin:miter;stroke-opacity:1"/>
<path class="bond-33 atom-32 atom-34" d="M 42.0,125.1 L 35.3,127.2" style="fill:none;fill-rule:evenodd;stroke:#000000;stroke-width:2.0px;stroke-linecap:butt;stroke-linejoin:miter;stroke-opacity:1"/>
<path class="bond-33 atom-32 atom-34" d="M 35.3,127.2 L 28.5,129.4" style="fill:none;fill-rule:evenodd;stroke:#FF0000;stroke-width:2.0px;stroke-linecap:butt;stroke-linejoin:miter;stroke-opacity:1"/>
<path class="bond-33 atom-32 atom-34" d="M 42.8,127.4 L 36.0,129.5" style="fill:none;fill-rule:evenodd;stroke:#000000;stroke-width:2.0px;stroke-linecap:butt;stroke-linejoin:miter;stroke-opacity:1"/>
<path class="bond-33 atom-32 atom-34" d="M 36.0,129.5 L 29.3,131.7" style="fill:none;fill-rule:evenodd;stroke:#FF0000;stroke-width:2.0px;stroke-linecap:butt;stroke-linejoin:miter;stroke-opacity:1"/>
<path d="M 59.9,105.9 L 60.6,105.7 L 60.9,105.9" style="fill:none;stroke:#000000;stroke-width:2.0px;stroke-linecap:butt;stroke-linejoin:miter;stroke-opacity:1;"/>
<path d="M 106.9,91.2 L 107.0,90.9 L 107.8,90.6" style="fill:none;stroke:#000000;stroke-width:2.0px;stroke-linecap:butt;stroke-linejoin:miter;stroke-opacity:1;"/>
<path d="M 149.3,91.4 L 149.9,92.0 L 150.2,91.9" style="fill:none;stroke:#000000;stroke-width:2.0px;stroke-linecap:butt;stroke-linejoin:miter;stroke-opacity:1;"/>
<path d="M 177.1,97.7 L 177.3,98.0 L 178.1,97.7" style="fill:none;stroke:#000000;stroke-width:2.0px;stroke-linecap:butt;stroke-linejoin:miter;stroke-opacity:1;"/>
<path d="M 192.0,93.3 L 192.8,93.0 L 193.4,93.6" style="fill:none;stroke:#000000;stroke-width:2.0px;stroke-linecap:butt;stroke-linejoin:miter;stroke-opacity:1;"/>
<path d="M 204.2,103.4 L 204.8,104.0 L 205.1,103.9" style="fill:none;stroke:#000000;stroke-width:2.0px;stroke-linecap:butt;stroke-linejoin:miter;stroke-opacity:1;"/>
<path d="M 232.0,109.7 L 232.2,110.0 L 233.0,109.7" style="fill:none;stroke:#000000;stroke-width:2.0px;stroke-linecap:butt;stroke-linejoin:miter;stroke-opacity:1;"/>
<path d="M 246.9,105.3 L 247.7,105.0 L 247.9,105.3" style="fill:none;stroke:#000000;stroke-width:2.0px;stroke-linecap:butt;stroke-linejoin:miter;stroke-opacity:1;"/>
<path d="M 274.8,111.2 L 275.1,111.0 L 275.7,111.6" style="fill:none;stroke:#000000;stroke-width:2.0px;stroke-linecap:butt;stroke-linejoin:miter;stroke-opacity:1;"/>
<path d="M 286.5,121.4 L 287.1,122.0 L 287.9,121.7" style="fill:none;stroke:#000000;stroke-width:2.0px;stroke-linecap:butt;stroke-linejoin:miter;stroke-opacity:1;"/>
<path d="M 301.8,117.3 L 302.6,117.0 L 302.8,117.3" style="fill:none;stroke:#000000;stroke-width:2.0px;stroke-linecap:butt;stroke-linejoin:miter;stroke-opacity:1;"/>
<path d="M 41.9,125.6 L 41.7,126.4 L 42.0,126.7" style="fill:none;stroke:#000000;stroke-width:2.0px;stroke-linecap:butt;stroke-linejoin:miter;stroke-opacity:1;"/>
<path class="atom-0" d="M 16.9 104.1 L 17.5 103.4 L 16.7 103.2 L 16.8 102.7 L 17.6 103.2 L 17.5 102.3 L 18.0 102.3 L 17.8 103.2 L 18.7 102.8 L 18.8 103.2 L 17.9 103.4 L 18.6 104.1 L 18.2 104.4 L 17.7 103.5 L 17.3 104.4 L 16.9 104.1 " fill="#191919"/>
<path class="atom-1" d="M 32.2 97.4 L 33.7 99.8 Q 33.8 100.0, 34.1 100.5 Q 34.3 100.9, 34.3 100.9 L 34.3 97.4 L 34.9 97.4 L 34.9 102.0 L 34.3 102.0 L 32.7 99.3 Q 32.5 99.0, 32.3 98.6 Q 32.1 98.3, 32.0 98.2 L 32.0 102.0 L 31.4 102.0 L 31.4 97.4 L 32.2 97.4 " fill="#0000FF"/>
<path class="atom-1" d="M 31.4 92.3 L 32.0 92.3 L 32.0 94.3 L 34.4 94.3 L 34.4 92.3 L 35.0 92.3 L 35.0 96.9 L 34.4 96.9 L 34.4 94.8 L 32.0 94.8 L 32.0 96.9 L 31.4 96.9 L 31.4 92.3 " fill="#0000FF"/>
<path class="atom-4" d="M 70.5 116.6 Q 70.5 115.5, 71.1 114.9 Q 71.6 114.3, 72.6 114.3 Q 73.6 114.3, 74.2 114.9 Q 74.7 115.5, 74.7 116.6 Q 74.7 117.7, 74.2 118.3 Q 73.6 119.0, 72.6 119.0 Q 71.6 119.0, 71.1 118.3 Q 70.5 117.7, 70.5 116.6 M 72.6 118.5 Q 73.3 118.5, 73.7 118.0 Q 74.1 117.5, 74.1 116.6 Q 74.1 115.7, 73.7 115.2 Q 73.3 114.8, 72.6 114.8 Q 71.9 114.8, 71.5 115.2 Q 71.2 115.7, 71.2 116.6 Q 71.2 117.5, 71.5 118.0 Q 71.9 118.5, 72.6 118.5 " fill="#FF0000"/>
<path class="atom-5" d="M 88.0 109.4 Q 88.8 109.4, 89.2 109.7 Q 89.5 110.1, 89.5 110.7 Q 89.5 111.4, 89.1 111.7 Q 88.7 112.1, 88.0 112.1 L 87.2 112.1 L 87.2 114.0 L 86.6 114.0 L 86.6 109.4 L 88.0 109.4 M 88.0 111.6 Q 88.4 111.6, 88.7 111.3 Q 88.9 111.1, 88.9 110.7 Q 88.9 110.3, 88.7 110.1 Q 88.4 109.9, 88.0 109.9 L 87.2 109.9 L 87.2 111.6 L 88.0 111.6 " fill="#FF7F00"/>
<path class="atom-6" d="M 90.9 127.1 Q 90.9 126.0, 91.4 125.4 Q 92.0 124.8, 93.0 124.8 Q 94.0 124.8, 94.6 125.4 Q 95.1 126.0, 95.1 127.1 Q 95.1 128.2, 94.6 128.9 Q 94.0 129.5, 93.0 129.5 Q 92.0 129.5, 91.4 128.9 Q 90.9 128.3, 90.9 127.1 M 93.0 129.0 Q 93.7 129.0, 94.1 128.5 Q 94.5 128.1, 94.5 127.1 Q 94.5 126.2, 94.1 125.8 Q 93.7 125.3, 93.0 125.3 Q 92.3 125.3, 91.9 125.8 Q 91.5 126.2, 91.5 127.1 Q 91.5 128.1, 91.9 128.5 Q 92.3 129.0, 93.0 129.0 " fill="#FF0000"/>
<path class="atom-7" d="M 81.0 96.2 Q 81.0 95.1, 81.6 94.5 Q 82.1 93.9, 83.2 93.9 Q 84.2 93.9, 84.7 94.5 Q 85.3 95.1, 85.3 96.2 Q 85.3 97.3, 84.7 98.0 Q 84.2 98.6, 83.2 98.6 Q 82.1 98.6, 81.6 98.0 Q 81.0 97.3, 81.0 96.2 M 83.2 98.1 Q 83.9 98.1, 84.2 97.6 Q 84.6 97.1, 84.6 96.2 Q 84.6 95.3, 84.2 94.9 Q 83.9 94.4, 83.2 94.4 Q 82.5 94.4, 82.1 94.9 Q 81.7 95.3, 81.7 96.2 Q 81.7 97.1, 82.1 97.6 Q 82.5 98.1, 83.2 98.1 " fill="#FF0000"/>
<path class="atom-7" d="M 86.0 93.9 L 86.6 93.9 L 86.6 95.9 L 89.0 95.9 L 89.0 93.9 L 89.6 93.9 L 89.6 98.5 L 89.0 98.5 L 89.0 96.4 L 86.6 96.4 L 86.6 98.5 L 86.0 98.5 L 86.0 93.9 " fill="#FF0000"/>
<path class="atom-8" d="M 101.4 106.8 Q 101.4 105.6, 102.0 105.0 Q 102.5 104.4, 103.5 104.4 Q 104.6 104.4, 105.1 105.0 Q 105.6 105.6, 105.6 106.8 Q 105.6 107.9, 105.1 108.5 Q 104.5 109.1, 103.5 109.1 Q 102.5 109.1, 102.0 108.5 Q 101.4 107.9, 101.4 106.8 M 103.5 108.6 Q 104.2 108.6, 104.6 108.1 Q 105.0 107.7, 105.0 106.8 Q 105.0 105.9, 104.6 105.4 Q 104.2 104.9, 103.5 104.9 Q 102.8 104.9, 102.5 105.4 Q 102.1 105.8, 102.1 106.8 Q 102.1 107.7, 102.5 108.1 Q 102.8 108.6, 103.5 108.6 " fill="#FF0000"/>
<path class="atom-14" d="M 139.3 65.2 Q 139.3 64.1, 139.8 63.5 Q 140.4 62.9, 141.4 62.9 Q 142.4 62.9, 142.9 63.5 Q 143.5 64.1, 143.5 65.2 Q 143.5 66.3, 142.9 67.0 Q 142.4 67.6, 141.4 67.6 Q 140.4 67.6, 139.8 67.0 Q 139.3 66.3, 139.3 65.2 M 141.4 67.1 Q 142.1 67.1, 142.4 66.6 Q 142.8 66.1, 142.8 65.2 Q 142.8 64.3, 142.4 63.9 Q 142.1 63.4, 141.4 63.4 Q 140.7 63.4, 140.3 63.9 Q 139.9 64.3, 139.9 65.2 Q 139.9 66.1, 140.3 66.6 Q 140.7 67.1, 141.4 67.1 " fill="#FF0000"/>
<path class="atom-14" d="M 144.2 62.9 L 144.8 62.9 L 144.8 64.9 L 147.2 64.9 L 147.2 62.9 L 147.8 62.9 L 147.8 67.5 L 147.2 67.5 L 147.2 65.4 L 144.8 65.4 L 144.8 67.5 L 144.2 67.5 L 144.2 62.9 " fill="#FF0000"/>
<path class="atom-16" d="M 144.3 107.8 Q 144.3 106.7, 144.9 106.1 Q 145.4 105.5, 146.4 105.5 Q 147.5 105.5, 148.0 106.1 Q 148.5 106.7, 148.5 107.8 Q 148.5 108.9, 148.0 109.6 Q 147.4 110.2, 146.4 110.2 Q 145.4 110.2, 144.9 109.6 Q 144.3 109.0, 144.3 107.8 M 146.4 109.7 Q 147.1 109.7, 147.5 109.2 Q 147.9 108.8, 147.9 107.8 Q 147.9 106.9, 147.5 106.5 Q 147.1 106.0, 146.4 106.0 Q 145.7 106.0, 145.3 106.5 Q 145.0 106.9, 145.0 107.8 Q 145.0 108.8, 145.3 109.2 Q 145.7 109.7, 146.4 109.7 " fill="#FF0000"/>
<path class="atom-17" d="M 164.3 84.8 L 165.8 87.2 Q 166.0 87.4, 166.2 87.9 Q 166.5 88.3, 166.5 88.3 L 166.5 84.8 L 167.1 84.8 L 167.1 89.3 L 166.5 89.3 L 164.8 86.7 Q 164.7 86.4, 164.5 86.0 Q 164.3 85.7, 164.2 85.5 L 164.2 89.3 L 163.6 89.3 L 163.6 84.8 L 164.3 84.8 " fill="#0000FF"/>
<path class="atom-17" d="M 163.6 79.7 L 164.2 79.7 L 164.2 81.7 L 166.5 81.7 L 166.5 79.7 L 167.1 79.7 L 167.1 84.3 L 166.5 84.3 L 166.5 82.2 L 164.2 82.2 L 164.2 84.3 L 163.6 84.3 L 163.6 79.7 " fill="#0000FF"/>
<path class="atom-21" d="M 199.2 119.8 Q 199.2 118.7, 199.8 118.1 Q 200.3 117.5, 201.3 117.5 Q 202.3 117.5, 202.9 118.1 Q 203.4 118.7, 203.4 119.8 Q 203.4 120.9, 202.9 121.6 Q 202.3 122.2, 201.3 122.2 Q 200.3 122.2, 199.8 121.6 Q 199.2 121.0, 199.2 119.8 M 201.3 121.7 Q 202.0 121.7, 202.4 121.2 Q 202.8 120.7, 202.8 119.8 Q 202.8 118.9, 202.4 118.5 Q 202.0 118.0, 201.3 118.0 Q 200.6 118.0, 200.2 118.5 Q 199.9 118.9, 199.9 119.8 Q 199.9 120.8, 200.2 121.2 Q 200.6 121.7, 201.3 121.7 " fill="#FF0000"/>
<path class="atom-22" d="M 219.2 96.8 L 220.7 99.2 Q 220.9 99.4, 221.1 99.9 Q 221.4 100.3, 221.4 100.3 L 221.4 96.8 L 222.0 96.8 L 222.0 101.3 L 221.4 101.3 L 219.7 98.7 Q 219.5 98.4, 219.3 98.0 Q 219.2 97.7, 219.1 97.5 L 219.1 101.3 L 218.5 101.3 L 218.5 96.8 L 219.2 96.8 " fill="#0000FF"/>
<path class="atom-22" d="M 218.4 91.7 L 219.1 91.7 L 219.1 93.7 L 221.4 93.7 L 221.4 91.7 L 222.0 91.7 L 222.0 96.3 L 221.4 96.3 L 221.4 94.2 L 219.1 94.2 L 219.1 96.3 L 218.4 96.3 L 218.4 91.7 " fill="#0000FF"/>
<path class="atom-25" d="M 258.4 117.5 Q 258.4 117.6, 258.6 117.7 Q 258.9 117.7, 259.1 117.8 Q 259.3 117.9, 259.6 117.9 Q 260.0 117.9, 260.3 117.6 Q 260.5 117.4, 260.5 117.1 Q 260.5 116.8, 260.4 116.7 Q 260.3 116.5, 260.1 116.4 Q 259.9 116.3, 259.5 116.2 Q 259.1 116.1, 258.9 116.0 Q 258.6 115.9, 258.5 115.6 Q 258.3 115.4, 258.3 115.0 Q 258.3 114.4, 258.7 114.0 Q 259.1 113.7, 259.9 113.7 Q 260.4 113.7, 261.0 113.9 L 260.8 114.4 Q 260.3 114.2, 259.9 114.2 Q 259.4 114.2, 259.2 114.4 Q 258.9 114.6, 258.9 114.9 Q 258.9 115.1, 259.1 115.3 Q 259.2 115.4, 259.4 115.5 Q 259.6 115.6, 259.9 115.7 Q 260.3 115.8, 260.5 116.0 Q 260.8 116.1, 261.0 116.4 Q 261.1 116.6, 261.1 117.1 Q 261.1 117.7, 260.7 118.0 Q 260.3 118.4, 259.6 118.4 Q 259.2 118.4, 258.9 118.3 Q 258.6 118.2, 258.2 118.1 L 258.4 117.5 " fill="#CCCC00"/>
<path class="atom-27" d="M 276.5 95.2 Q 276.5 94.1, 277.0 93.5 Q 277.6 92.9, 278.6 92.9 Q 279.6 92.9, 280.2 93.5 Q 280.7 94.1, 280.7 95.2 Q 280.7 96.3, 280.1 97.0 Q 279.6 97.6, 278.6 97.6 Q 277.6 97.6, 277.0 97.0 Q 276.5 96.3, 276.5 95.2 M 278.6 97.1 Q 279.3 97.1, 279.7 96.6 Q 280.1 96.1, 280.1 95.2 Q 280.1 94.3, 279.7 93.9 Q 279.3 93.4, 278.6 93.4 Q 277.9 93.4, 277.5 93.9 Q 277.1 94.3, 277.1 95.2 Q 277.1 96.1, 277.5 96.6 Q 277.9 97.1, 278.6 97.1 " fill="#FF0000"/>
<path class="atom-30" d="M 313.7 127.5 L 314.4 126.8 L 313.5 126.6 L 313.6 126.1 L 314.4 126.5 L 314.3 125.6 L 314.8 125.6 L 314.7 126.5 L 315.5 126.1 L 315.6 126.6 L 314.7 126.8 L 315.4 127.4 L 315.0 127.7 L 314.5 126.9 L 314.1 127.7 L 313.7 127.5 " fill="#191919"/>
<path class="atom-31" d="M 303.9 101.2 Q 303.9 100.1, 304.5 99.5 Q 305.0 98.9, 306.0 98.9 Q 307.1 98.9, 307.6 99.5 Q 308.1 100.1, 308.1 101.2 Q 308.1 102.3, 307.6 103.0 Q 307.0 103.6, 306.0 103.6 Q 305.0 103.6, 304.5 103.0 Q 303.9 102.3, 303.9 101.2 M 306.0 103.1 Q 306.7 103.1, 307.1 102.6 Q 307.5 102.1, 307.5 101.2 Q 307.5 100.3, 307.1 99.9 Q 306.7 99.4, 306.0 99.4 Q 305.3 99.4, 305.0 99.9 Q 304.6 100.3, 304.6 101.2 Q 304.6 102.1, 305.0 102.6 Q 305.3 103.1, 306.0 103.1 " fill="#FF0000"/>
<path class="atom-33" d="M 52.8 136.8 L 53.5 136.2 L 52.6 136.0 L 52.8 135.5 L 53.6 135.9 L 53.5 135.0 L 54.0 135.0 L 53.8 135.9 L 54.7 135.5 L 54.8 136.0 L 53.9 136.1 L 54.5 136.8 L 54.1 137.1 L 53.7 136.3 L 53.2 137.1 L 52.8 136.8 " fill="#191919"/>
<path class="atom-34" d="M 24.2 131.4 Q 24.2 130.3, 24.7 129.6 Q 25.2 129.0, 26.3 129.0 Q 27.3 129.0, 27.8 129.6 Q 28.4 130.3, 28.4 131.4 Q 28.4 132.5, 27.8 133.1 Q 27.3 133.7, 26.3 133.7 Q 25.3 133.7, 24.7 133.1 Q 24.2 132.5, 24.2 131.4 M 26.3 133.2 Q 27.0 133.2, 27.3 132.8 Q 27.7 132.3, 27.7 131.4 Q 27.7 130.5, 27.3 130.0 Q 27.0 129.5, 26.3 129.5 Q 25.6 129.5, 25.2 130.0 Q 24.8 130.5, 24.8 131.4 Q 24.8 132.3, 25.2 132.8 Q 25.6 133.2, 26.3 133.2 " fill="#FF0000"/>
</svg>
