<?xml version='1.0' encoding='ASCII' standalone='yes'?>
<svg xmlns="http://www.w3.org/2000/svg" xmlns:rdkit="http://www.rdkit.org/xml" xmlns:xlink="http://www.w3.org/1999/xlink" version="1.1" baseProfile="full" xml:space="preserve" width="355px" height="200px" viewBox="0 0 355 200">
<!-- END OF HEADER -->
<rect style="opacity:1.0;fill:#FFFFFF;stroke:none" width="355.0" height="200.0" x="0.0" y="0.0"> </rect>
<path class="bond-0 atom-0 atom-1" d="M 17.8,46.4 L 41.2,50.4" style="fill:none;fill-rule:evenodd;stroke:#000000;stroke-width:2.0px;stroke-linecap:butt;stroke-linejoin:miter;stroke-opacity:1"/>
<path class="bond-1 atom-1 atom-2" d="M 41.2,50.4 L 47.0,43.3" style="fill:none;fill-rule:evenodd;stroke:#000000;stroke-width:2.0px;stroke-linecap:butt;stroke-linejoin:miter;stroke-opacity:1"/>
<path class="bond-1 atom-1 atom-2" d="M 47.0,43.3 L 52.8,36.3" style="fill:none;fill-rule:evenodd;stroke:#FF0000;stroke-width:2.0px;stroke-linecap:butt;stroke-linejoin:miter;stroke-opacity:1"/>
<path class="bond-2 atom-1 atom-3" d="M 41.2,50.4 L 49.5,72.6" style="fill:none;fill-rule:evenodd;stroke:#000000;stroke-width:2.0px;stroke-linecap:butt;stroke-linejoin:miter;stroke-opacity:1"/>
<path class="bond-3 atom-3 atom-4" d="M 49.5,72.6 L 27.3,80.9" style="fill:none;fill-rule:evenodd;stroke:#000000;stroke-width:2.0px;stroke-linecap:butt;stroke-linejoin:miter;stroke-opacity:1"/>
<path class="bond-4 atom-3 atom-5" d="M 49.5,72.6 L 71.8,64.3" style="fill:none;fill-rule:evenodd;stroke:#000000;stroke-width:2.0px;stroke-linecap:butt;stroke-linejoin:miter;stroke-opacity:1"/>
<path class="bond-5 atom-5 atom-6" d="M 71.8,64.3 L 90.1,79.4" style="fill:none;fill-rule:evenodd;stroke:#000000;stroke-width:2.0px;stroke-linecap:butt;stroke-linejoin:miter;stroke-opacity:1"/>
<path class="bond-6 atom-6 atom-7" d="M 90.1,79.4 L 105.2,61.0" style="fill:none;fill-rule:evenodd;stroke:#000000;stroke-width:2.0px;stroke-linecap:butt;stroke-linejoin:miter;stroke-opacity:1"/>
<path class="bond-7 atom-6 atom-8" d="M 90.1,79.4 L 82.6,91.2" style="fill:none;fill-rule:evenodd;stroke:#000000;stroke-width:2.0px;stroke-linecap:butt;stroke-linejoin:miter;stroke-opacity:1"/>
<path class="bond-8 atom-6 atom-9" d="M 90.1,79.4 L 108.5,94.5" style="fill:none;fill-rule:evenodd;stroke:#000000;stroke-width:2.0px;stroke-linecap:butt;stroke-linejoin:miter;stroke-opacity:1"/>
<path class="bond-9 atom-9 atom-10" d="M 108.5,94.5 L 104.6,117.9" style="fill:none;fill-rule:evenodd;stroke:#000000;stroke-width:2.0px;stroke-linecap:butt;stroke-linejoin:miter;stroke-opacity:1"/>
<path class="bond-10 atom-10 atom-11" d="M 104.6,117.9 L 122.9,133.0" style="fill:none;fill-rule:evenodd;stroke:#000000;stroke-width:2.0px;stroke-linecap:butt;stroke-linejoin:miter;stroke-opacity:1"/>
<path class="bond-11 atom-11 atom-12" d="M 122.9,133.0 L 141.2,148.1" style="fill:none;fill-rule:evenodd;stroke:#000000;stroke-width:2.0px;stroke-linecap:butt;stroke-linejoin:miter;stroke-opacity:1"/>
<path class="bond-12 atom-11 atom-13" d="M 122.9,133.0 L 107.8,151.4" style="fill:none;fill-rule:evenodd;stroke:#000000;stroke-width:2.0px;stroke-linecap:butt;stroke-linejoin:miter;stroke-opacity:1"/>
<path class="bond-13 atom-13 atom-14" d="M 107.8,151.4 L 111.2,160.4" style="fill:none;fill-rule:evenodd;stroke:#000000;stroke-width:2.0px;stroke-linecap:butt;stroke-linejoin:miter;stroke-opacity:1"/>
<path class="bond-13 atom-13 atom-14" d="M 111.2,160.4 L 114.6,169.5" style="fill:none;fill-rule:evenodd;stroke:#FF0000;stroke-width:2.0px;stroke-linecap:butt;stroke-linejoin:miter;stroke-opacity:1"/>
<path class="bond-14 atom-11 atom-15" d="M 122.9,133.0 L 138.0,114.7" style="fill:none;fill-rule:evenodd;stroke:#000000;stroke-width:2.0px;stroke-linecap:butt;stroke-linejoin:miter;stroke-opacity:1"/>
<path class="bond-15 atom-15 atom-16" d="M 138.0,114.7 L 161.4,118.6" style="fill:none;fill-rule:evenodd;stroke:#000000;stroke-width:2.0px;stroke-linecap:butt;stroke-linejoin:miter;stroke-opacity:1"/>
<path class="bond-16 atom-16 atom-17" d="M 161.4,118.6 L 164.8,127.6" style="fill:none;fill-rule:evenodd;stroke:#000000;stroke-width:2.0px;stroke-linecap:butt;stroke-linejoin:miter;stroke-opacity:1"/>
<path class="bond-16 atom-16 atom-17" d="M 164.8,127.6 L 168.2,136.7" style="fill:none;fill-rule:evenodd;stroke:#FF0000;stroke-width:2.0px;stroke-linecap:butt;stroke-linejoin:miter;stroke-opacity:1"/>
<path class="bond-17 atom-16 atom-18" d="M 161.4,118.6 L 176.5,100.2" style="fill:none;fill-rule:evenodd;stroke:#000000;stroke-width:2.0px;stroke-linecap:butt;stroke-linejoin:miter;stroke-opacity:1"/>
<path class="bond-18 atom-18 atom-19" d="M 176.5,100.2 L 158.2,85.1" style="fill:none;fill-rule:evenodd;stroke:#000000;stroke-width:2.0px;stroke-linecap:butt;stroke-linejoin:miter;stroke-opacity:1"/>
<path class="bond-19 atom-18 atom-20" d="M 176.5,100.2 L 194.9,115.3" style="fill:none;fill-rule:evenodd;stroke:#000000;stroke-width:2.0px;stroke-linecap:butt;stroke-linejoin:miter;stroke-opacity:1"/>
<path class="bond-20 atom-20 atom-21" d="M 194.9,115.3 L 217.1,107.0" style="fill:none;fill-rule:evenodd;stroke:#000000;stroke-width:2.0px;stroke-linecap:butt;stroke-linejoin:miter;stroke-opacity:1"/>
<path class="bond-21 atom-21 atom-22" d="M 217.1,107.0 L 225.5,129.2" style="fill:none;fill-rule:evenodd;stroke:#000000;stroke-width:2.0px;stroke-linecap:butt;stroke-linejoin:miter;stroke-opacity:1"/>
<path class="bond-22 atom-21 atom-23" d="M 217.1,107.0 L 213.9,93.4" style="fill:none;fill-rule:evenodd;stroke:#000000;stroke-width:2.0px;stroke-linecap:butt;stroke-linejoin:miter;stroke-opacity:1"/>
<path class="bond-23 atom-21 atom-24" d="M 217.1,107.0 L 239.4,98.7" style="fill:none;fill-rule:evenodd;stroke:#000000;stroke-width:2.0px;stroke-linecap:butt;stroke-linejoin:miter;stroke-opacity:1"/>
<path class="bond-24 atom-24 atom-25" d="M 239.4,98.7 L 257.7,113.8" style="fill:none;fill-rule:evenodd;stroke:#000000;stroke-width:2.0px;stroke-linecap:butt;stroke-linejoin:miter;stroke-opacity:1"/>
<path class="bond-25 atom-25 atom-26" d="M 257.7,113.8 L 280.0,105.4" style="fill:none;fill-rule:evenodd;stroke:#000000;stroke-width:2.0px;stroke-linecap:butt;stroke-linejoin:miter;stroke-opacity:1"/>
<path class="bond-26 atom-26 atom-27" d="M 280.0,105.4 L 295.1,101.8" style="fill:none;fill-rule:evenodd;stroke:#000000;stroke-width:2.0px;stroke-linecap:butt;stroke-linejoin:miter;stroke-opacity:1"/>
<path class="bond-27 atom-26 atom-28" d="M 280.0,105.4 L 288.3,127.7" style="fill:none;fill-rule:evenodd;stroke:#000000;stroke-width:2.0px;stroke-linecap:butt;stroke-linejoin:miter;stroke-opacity:1"/>
<path class="bond-28 atom-28 atom-29" d="M 288.3,127.7 L 298.1,129.3" style="fill:none;fill-rule:evenodd;stroke:#000000;stroke-width:2.0px;stroke-linecap:butt;stroke-linejoin:miter;stroke-opacity:1"/>
<path class="bond-28 atom-28 atom-29" d="M 298.1,129.3 L 307.9,130.9" style="fill:none;fill-rule:evenodd;stroke:#FF0000;stroke-width:2.0px;stroke-linecap:butt;stroke-linejoin:miter;stroke-opacity:1"/>
<path class="bond-29 atom-26 atom-30" d="M 280.0,105.4 L 271.7,83.2" style="fill:none;fill-rule:evenodd;stroke:#000000;stroke-width:2.0px;stroke-linecap:butt;stroke-linejoin:miter;stroke-opacity:1"/>
<path class="bond-30 atom-30 atom-31" d="M 271.7,83.2 L 286.8,64.8" style="fill:none;fill-rule:evenodd;stroke:#000000;stroke-width:2.0px;stroke-linecap:butt;stroke-linejoin:miter;stroke-opacity:1"/>
<path class="bond-31 atom-31 atom-32" d="M 286.8,64.8 L 301.9,46.5" style="fill:none;fill-rule:evenodd;stroke:#000000;stroke-width:2.0px;stroke-linecap:butt;stroke-linejoin:miter;stroke-opacity:1"/>
<path class="bond-32 atom-31 atom-33" d="M 286.8,64.8 L 268.4,49.7" style="fill:none;fill-rule:evenodd;stroke:#000000;stroke-width:2.0px;stroke-linecap:butt;stroke-linejoin:miter;stroke-opacity:1"/>
<path class="bond-33 atom-33 atom-34" d="M 268.7,47.8 L 259.1,51.4" style="fill:none;fill-rule:evenodd;stroke:#000000;stroke-width:2.0px;stroke-linecap:butt;stroke-linejoin:miter;stroke-opacity:1"/>
<path class="bond-33 atom-33 atom-34" d="M 259.1,51.4 L 249.4,55.0" style="fill:none;fill-rule:evenodd;stroke:#FF0000;stroke-width:2.0px;stroke-linecap:butt;stroke-linejoin:miter;stroke-opacity:1"/>
<path class="bond-33 atom-33 atom-34" d="M 269.9,51.0 L 260.2,54.6" style="fill:none;fill-rule:evenodd;stroke:#000000;stroke-width:2.0px;stroke-linecap:butt;stroke-linejoin:miter;stroke-opacity:1"/>
<path class="bond-33 atom-33 atom-34" d="M 260.2,54.6 L 250.6,58.2" style="fill:none;fill-rule:evenodd;stroke:#FF0000;stroke-width:2.0px;stroke-linecap:butt;stroke-linejoin:miter;stroke-opacity:1"/>
<path class="bond-34 atom-33 atom-35" d="M 268.4,49.7 L 270.0,40.1" style="fill:none;fill-rule:evenodd;stroke:#000000;stroke-width:2.0px;stroke-linecap:butt;stroke-linejoin:miter;stroke-opacity:1"/>
<path class="bond-34 atom-33 atom-35" d="M 270.0,40.1 L 271.6,30.5" style="fill:none;fill-rule:evenodd;stroke:#FF0000;stroke-width:2.0px;stroke-linecap:butt;stroke-linejoin:miter;stroke-opacity:1"/>
<path class="bond-35 atom-31 atom-36" d="M 286.8,64.8 L 305.1,79.9" style="fill:none;fill-rule:evenodd;stroke:#000000;stroke-width:2.0px;stroke-linecap:butt;stroke-linejoin:miter;stroke-opacity:1"/>
<path class="bond-36 atom-36 atom-37" d="M 305.1,79.9 L 304.4,95.5" style="fill:none;fill-rule:evenodd;stroke:#000000;stroke-width:2.0px;stroke-linecap:butt;stroke-linejoin:miter;stroke-opacity:1"/>
<path class="bond-37 atom-36 atom-38" d="M 305.1,79.9 L 314.3,76.5" style="fill:none;fill-rule:evenodd;stroke:#000000;stroke-width:2.0px;stroke-linecap:butt;stroke-linejoin:miter;stroke-opacity:1"/>
<path class="bond-37 atom-36 atom-38" d="M 314.3,76.5 L 323.5,73.0" style="fill:none;fill-rule:evenodd;stroke:#FF0000;stroke-width:2.0px;stroke-linecap:butt;stroke-linejoin:miter;stroke-opacity:1"/>
<path class="bond-38 atom-18 atom-39" d="M 176.5,100.2 L 191.6,81.9" style="fill:none;fill-rule:evenodd;stroke:#000000;stroke-width:2.0px;stroke-linecap:butt;stroke-linejoin:miter;stroke-opacity:1"/>
<path class="bond-39 atom-39 atom-40" d="M 190.3,83.5 L 196.0,83.8" style="fill:none;fill-rule:evenodd;stroke:#000000;stroke-width:2.0px;stroke-linecap:butt;stroke-linejoin:miter;stroke-opacity:1"/>
<path class="bond-39 atom-39 atom-40" d="M 196.0,83.8 L 201.8,84.0" style="fill:none;fill-rule:evenodd;stroke:#FF0000;stroke-width:2.0px;stroke-linecap:butt;stroke-linejoin:miter;stroke-opacity:1"/>
<path class="bond-39 atom-39 atom-40" d="M 191.0,80.2 L 196.2,80.4" style="fill:none;fill-rule:evenodd;stroke:#000000;stroke-width:2.0px;stroke-linecap:butt;stroke-linejoin:miter;stroke-opacity:1"/>
<path class="bond-39 atom-39 atom-40" d="M 196.2,80.4 L 201.9,80.6" style="fill:none;fill-rule:evenodd;stroke:#FF0000;stroke-width:2.0px;stroke-linecap:butt;stroke-linejoin:miter;stroke-opacity:1"/>
<path class="bond-40 atom-39 atom-41" d="M 191.6,81.9 L 188.3,72.9" style="fill:none;fill-rule:evenodd;stroke:#000000;stroke-width:2.0px;stroke-linecap:butt;stroke-linejoin:miter;stroke-opacity:1"/>
<path class="bond-40 atom-39 atom-41" d="M 188.3,72.9 L 184.9,63.9" style="fill:none;fill-rule:evenodd;stroke:#FF0000;stroke-width:2.0px;stroke-linecap:butt;stroke-linejoin:miter;stroke-opacity:1"/>
<path class="bond-41 atom-3 atom-42" d="M 49.5,72.6 L 57.9,94.9" style="fill:none;fill-rule:evenodd;stroke:#000000;stroke-width:2.0px;stroke-linecap:butt;stroke-linejoin:miter;stroke-opacity:1"/>
<path class="bond-42 atom-42 atom-43" d="M 56.7,96.3 L 61.8,97.8" style="fill:none;fill-rule:evenodd;stroke:#000000;stroke-width:2.0px;stroke-linecap:butt;stroke-linejoin:miter;stroke-opacity:1"/>
<path class="bond-42 atom-42 atom-43" d="M 61.8,97.8 L 67.0,99.3" style="fill:none;fill-rule:evenodd;stroke:#FF0000;stroke-width:2.0px;stroke-linecap:butt;stroke-linejoin:miter;stroke-opacity:1"/>
<path class="bond-42 atom-42 atom-43" d="M 57.1,92.9 L 62.8,94.6" style="fill:none;fill-rule:evenodd;stroke:#000000;stroke-width:2.0px;stroke-linecap:butt;stroke-linejoin:miter;stroke-opacity:1"/>
<path class="bond-42 atom-42 atom-43" d="M 62.8,94.6 L 68.0,96.1" style="fill:none;fill-rule:evenodd;stroke:#FF0000;stroke-width:2.0px;stroke-linecap:butt;stroke-linejoin:miter;stroke-opacity:1"/>
<path class="bond-43 atom-42 atom-44" d="M 57.9,94.9 L 52.0,102.0" style="fill:none;fill-rule:evenodd;stroke:#000000;stroke-width:2.0px;stroke-linecap:butt;stroke-linejoin:miter;stroke-opacity:1"/>
<path class="bond-43 atom-42 atom-44" d="M 52.0,102.0 L 46.2,109.1" style="fill:none;fill-rule:evenodd;stroke:#FF0000;stroke-width:2.0px;stroke-linecap:butt;stroke-linejoin:miter;stroke-opacity:1"/>
<path d="M 70.7,64.7 L 71.8,64.3 L 72.7,65.0" style="fill:none;stroke:#000000;stroke-width:2.0px;stroke-linecap:butt;stroke-linejoin:miter;stroke-opacity:1;"/>
<path d="M 107.5,93.7 L 108.5,94.5 L 108.3,95.6" style="fill:none;stroke:#000000;stroke-width:2.0px;stroke-linecap:butt;stroke-linejoin:miter;stroke-opacity:1;"/>
<path d="M 104.8,116.7 L 104.6,117.9 L 105.5,118.7" style="fill:none;stroke:#000000;stroke-width:2.0px;stroke-linecap:butt;stroke-linejoin:miter;stroke-opacity:1;"/>
<path d="M 108.6,150.4 L 107.8,151.4 L 108.0,151.8" style="fill:none;stroke:#000000;stroke-width:2.0px;stroke-linecap:butt;stroke-linejoin:miter;stroke-opacity:1;"/>
<path d="M 137.2,115.6 L 138.0,114.7 L 139.2,114.9" style="fill:none;stroke:#000000;stroke-width:2.0px;stroke-linecap:butt;stroke-linejoin:miter;stroke-opacity:1;"/>
<path d="M 194.0,114.6 L 194.9,115.3 L 196.0,114.9" style="fill:none;stroke:#000000;stroke-width:2.0px;stroke-linecap:butt;stroke-linejoin:miter;stroke-opacity:1;"/>
<path d="M 238.3,99.1 L 239.4,98.7 L 240.3,99.4" style="fill:none;stroke:#000000;stroke-width:2.0px;stroke-linecap:butt;stroke-linejoin:miter;stroke-opacity:1;"/>
<path d="M 256.8,113.0 L 257.7,113.8 L 258.8,113.3" style="fill:none;stroke:#000000;stroke-width:2.0px;stroke-linecap:butt;stroke-linejoin:miter;stroke-opacity:1;"/>
<path d="M 287.9,126.6 L 288.3,127.7 L 288.8,127.8" style="fill:none;stroke:#000000;stroke-width:2.0px;stroke-linecap:butt;stroke-linejoin:miter;stroke-opacity:1;"/>
<path d="M 272.1,84.3 L 271.7,83.2 L 272.4,82.3" style="fill:none;stroke:#000000;stroke-width:2.0px;stroke-linecap:butt;stroke-linejoin:miter;stroke-opacity:1;"/>
<path d="M 269.3,50.5 L 268.4,49.7 L 268.5,49.2" style="fill:none;stroke:#000000;stroke-width:2.0px;stroke-linecap:butt;stroke-linejoin:miter;stroke-opacity:1;"/>
<path d="M 190.9,82.8 L 191.6,81.9 L 191.5,81.4" style="fill:none;stroke:#000000;stroke-width:2.0px;stroke-linecap:butt;stroke-linejoin:miter;stroke-opacity:1;"/>
<path d="M 57.4,93.7 L 57.9,94.9 L 57.6,95.2" style="fill:none;stroke:#000000;stroke-width:2.0px;stroke-linecap:butt;stroke-linejoin:miter;stroke-opacity:1;"/>
<path class="atom-2" d="M 53.2 32.0 Q 53.2 30.4, 54.0 29.5 Q 54.8 28.6, 56.3 28.6 Q 57.8 28.6, 58.6 29.5 Q 59.4 30.4, 59.4 32.0 Q 59.4 33.7, 58.6 34.6 Q 57.8 35.5, 56.3 35.5 Q 54.8 35.5, 54.0 34.6 Q 53.2 33.7, 53.2 32.0 M 56.3 34.8 Q 57.3 34.8, 57.9 34.1 Q 58.4 33.4, 58.4 32.0 Q 58.4 30.7, 57.9 30.0 Q 57.3 29.4, 56.3 29.4 Q 55.3 29.4, 54.7 30.0 Q 54.2 30.7, 54.2 32.0 Q 54.2 33.4, 54.7 34.1 Q 55.3 34.8, 56.3 34.8 " fill="#FF0000"/>
<path class="atom-2" d="M 60.4 28.7 L 61.3 28.7 L 61.3 31.5 L 64.8 31.5 L 64.8 28.7 L 65.7 28.7 L 65.7 35.4 L 64.8 35.4 L 64.8 32.3 L 61.3 32.3 L 61.3 35.4 L 60.4 35.4 L 60.4 28.7 " fill="#FF0000"/>
<path class="atom-14" d="M 113.0 173.6 Q 113.0 172.0, 113.8 171.1 Q 114.6 170.2, 116.1 170.2 Q 117.6 170.2, 118.4 171.1 Q 119.2 172.0, 119.2 173.6 Q 119.2 175.3, 118.4 176.2 Q 117.6 177.1, 116.1 177.1 Q 114.7 177.1, 113.8 176.2 Q 113.0 175.3, 113.0 173.6 M 116.1 176.4 Q 117.2 176.4, 117.7 175.7 Q 118.3 175.0, 118.3 173.6 Q 118.3 172.3, 117.7 171.6 Q 117.2 171.0, 116.1 171.0 Q 115.1 171.0, 114.5 171.6 Q 114.0 172.3, 114.0 173.6 Q 114.0 175.0, 114.5 175.7 Q 115.1 176.4, 116.1 176.4 " fill="#FF0000"/>
<path class="atom-14" d="M 120.3 170.3 L 121.2 170.3 L 121.2 173.1 L 124.6 173.1 L 124.6 170.3 L 125.5 170.3 L 125.5 177.0 L 124.6 177.0 L 124.6 173.9 L 121.2 173.9 L 121.2 177.0 L 120.3 177.0 L 120.3 170.3 " fill="#FF0000"/>
<path class="atom-17" d="M 166.7 140.8 Q 166.7 139.2, 167.5 138.3 Q 168.3 137.4, 169.8 137.4 Q 171.3 137.4, 172.1 138.3 Q 172.9 139.2, 172.9 140.8 Q 172.9 142.5, 172.1 143.4 Q 171.3 144.3, 169.8 144.3 Q 168.3 144.3, 167.5 143.4 Q 166.7 142.5, 166.7 140.8 M 169.8 143.6 Q 170.8 143.6, 171.4 142.9 Q 171.9 142.2, 171.9 140.8 Q 171.9 139.5, 171.4 138.9 Q 170.8 138.2, 169.8 138.2 Q 168.8 138.2, 168.2 138.8 Q 167.6 139.5, 167.6 140.8 Q 167.6 142.2, 168.2 142.9 Q 168.8 143.6, 169.8 143.6 " fill="#FF0000"/>
<path class="atom-17" d="M 173.9 137.5 L 174.8 137.5 L 174.8 140.4 L 178.3 140.4 L 178.3 137.5 L 179.2 137.5 L 179.2 144.2 L 178.3 144.2 L 178.3 141.1 L 174.8 141.1 L 174.8 144.2 L 173.9 144.2 L 173.9 137.5 " fill="#FF0000"/>
<path class="atom-29" d="M 308.7 131.6 Q 308.7 130.0, 309.5 129.1 Q 310.3 128.2, 311.8 128.2 Q 313.3 128.2, 314.1 129.1 Q 314.8 130.0, 314.8 131.6 Q 314.8 133.2, 314.0 134.2 Q 313.2 135.1, 311.8 135.1 Q 310.3 135.1, 309.5 134.2 Q 308.7 133.2, 308.7 131.6 M 311.8 134.3 Q 312.8 134.3, 313.3 133.6 Q 313.9 133.0, 313.9 131.6 Q 313.9 130.3, 313.3 129.6 Q 312.8 128.9, 311.8 128.9 Q 310.7 128.9, 310.2 129.6 Q 309.6 130.3, 309.6 131.6 Q 309.6 133.0, 310.2 133.6 Q 310.7 134.3, 311.8 134.3 " fill="#FF0000"/>
<path class="atom-29" d="M 315.9 128.3 L 316.8 128.3 L 316.8 131.1 L 320.2 131.1 L 320.2 128.3 L 321.2 128.3 L 321.2 135.0 L 320.2 135.0 L 320.2 131.9 L 316.8 131.9 L 316.8 135.0 L 315.9 135.0 L 315.9 128.3 " fill="#FF0000"/>
<path class="atom-34" d="M 243.1 58.1 Q 243.1 56.5, 243.9 55.6 Q 244.7 54.7, 246.2 54.7 Q 247.6 54.7, 248.4 55.6 Q 249.2 56.5, 249.2 58.1 Q 249.2 59.7, 248.4 60.6 Q 247.6 61.6, 246.2 61.6 Q 244.7 61.6, 243.9 60.6 Q 243.1 59.7, 243.1 58.1 M 246.2 60.8 Q 247.2 60.8, 247.7 60.1 Q 248.3 59.4, 248.3 58.1 Q 248.3 56.8, 247.7 56.1 Q 247.2 55.4, 246.2 55.4 Q 245.1 55.4, 244.6 56.1 Q 244.0 56.8, 244.0 58.1 Q 244.0 59.4, 244.6 60.1 Q 245.1 60.8, 246.2 60.8 " fill="#FF0000"/>
<path class="atom-35" d="M 269.2 26.3 Q 269.2 24.7, 270.0 23.8 Q 270.8 22.9, 272.3 22.9 Q 273.8 22.9, 274.6 23.8 Q 275.4 24.7, 275.4 26.3 Q 275.4 27.9, 274.6 28.9 Q 273.8 29.8, 272.3 29.8 Q 270.8 29.8, 270.0 28.9 Q 269.2 28.0, 269.2 26.3 M 272.3 29.0 Q 273.3 29.0, 273.9 28.4 Q 274.5 27.7, 274.5 26.3 Q 274.5 25.0, 273.9 24.3 Q 273.3 23.6, 272.3 23.6 Q 271.3 23.6, 270.7 24.3 Q 270.2 25.0, 270.2 26.3 Q 270.2 27.7, 270.7 28.4 Q 271.3 29.0, 272.3 29.0 " fill="#FF0000"/>
<path class="atom-35" d="M 276.5 23.0 L 277.4 23.0 L 277.4 25.8 L 280.8 25.8 L 280.8 23.0 L 281.7 23.0 L 281.7 29.7 L 280.8 29.7 L 280.8 26.6 L 277.4 26.6 L 277.4 29.7 L 276.5 29.7 L 276.5 23.0 " fill="#FF0000"/>
<path class="atom-38" d="M 324.3 71.6 Q 324.3 70.0, 325.1 69.1 Q 325.9 68.2, 327.3 68.2 Q 328.8 68.2, 329.6 69.1 Q 330.4 70.0, 330.4 71.6 Q 330.4 73.2, 329.6 74.2 Q 328.8 75.1, 327.3 75.1 Q 325.9 75.1, 325.1 74.2 Q 324.3 73.3, 324.3 71.6 M 327.3 74.3 Q 328.4 74.3, 328.9 73.7 Q 329.5 73.0, 329.5 71.6 Q 329.5 70.3, 328.9 69.6 Q 328.4 69.0, 327.3 69.0 Q 326.3 69.0, 325.8 69.6 Q 325.2 70.3, 325.2 71.6 Q 325.2 73.0, 325.8 73.7 Q 326.3 74.3, 327.3 74.3 " fill="#FF0000"/>
<path class="atom-38" d="M 331.5 68.3 L 332.4 68.3 L 332.4 71.1 L 335.8 71.1 L 335.8 68.3 L 336.8 68.3 L 336.8 75.0 L 335.8 75.0 L 335.8 71.9 L 332.4 71.9 L 332.4 75.0 L 331.5 75.0 L 331.5 68.3 " fill="#FF0000"/>
<path class="atom-40" d="M 202.6 82.5 Q 202.6 80.9, 203.4 80.0 Q 204.2 79.1, 205.7 79.1 Q 207.2 79.1, 208.0 80.0 Q 208.8 80.9, 208.8 82.5 Q 208.8 84.1, 207.9 85.1 Q 207.1 86.0, 205.7 86.0 Q 204.2 86.0, 203.4 85.1 Q 202.6 84.1, 202.6 82.5 M 205.7 85.2 Q 206.7 85.2, 207.2 84.5 Q 207.8 83.9, 207.8 82.5 Q 207.8 81.2, 207.2 80.5 Q 206.7 79.8, 205.7 79.8 Q 204.6 79.8, 204.1 80.5 Q 203.5 81.2, 203.5 82.5 Q 203.5 83.9, 204.1 84.5 Q 204.6 85.2, 205.7 85.2 " fill="#FF0000"/>
<path class="atom-41" d="M 173.6 56.3 L 174.5 56.3 L 174.5 59.2 L 177.9 59.2 L 177.9 56.3 L 178.8 56.3 L 178.8 63.0 L 177.9 63.0 L 177.9 59.9 L 174.5 59.9 L 174.5 63.0 L 173.6 63.0 L 173.6 56.3 " fill="#FF0000"/>
<path class="atom-41" d="M 180.2 59.7 Q 180.2 58.0, 181.0 57.1 Q 181.8 56.2, 183.3 56.2 Q 184.8 56.2, 185.6 57.1 Q 186.4 58.0, 186.4 59.7 Q 186.4 61.3, 185.6 62.2 Q 184.8 63.1, 183.3 63.1 Q 181.8 63.1, 181.0 62.2 Q 180.2 61.3, 180.2 59.7 M 183.3 62.4 Q 184.3 62.4, 184.9 61.7 Q 185.4 61.0, 185.4 59.7 Q 185.4 58.3, 184.9 57.7 Q 184.3 57.0, 183.3 57.0 Q 182.3 57.0, 181.7 57.7 Q 181.2 58.3, 181.2 59.7 Q 181.2 61.0, 181.7 61.7 Q 182.3 62.4, 183.3 62.4 " fill="#FF0000"/>
<path class="atom-43" d="M 68.2 98.8 Q 68.2 97.2, 69.0 96.3 Q 69.8 95.4, 71.3 95.4 Q 72.8 95.4, 73.6 96.3 Q 74.4 97.2, 74.4 98.8 Q 74.4 100.5, 73.6 101.4 Q 72.8 102.3, 71.3 102.3 Q 69.8 102.3, 69.0 101.4 Q 68.2 100.5, 68.2 98.8 M 71.3 101.6 Q 72.3 101.6, 72.9 100.9 Q 73.5 100.2, 73.5 98.8 Q 73.5 97.5, 72.9 96.9 Q 72.3 96.2, 71.3 96.2 Q 70.3 96.2, 69.7 96.9 Q 69.2 97.5, 69.2 98.8 Q 69.2 100.2, 69.7 100.9 Q 70.3 101.6, 71.3 101.6 " fill="#FF0000"/>
<path class="atom-44" d="M 33.0 109.9 L 33.9 109.9 L 33.9 112.7 L 37.4 112.7 L 37.4 109.9 L 38.3 109.9 L 38.3 116.6 L 37.4 116.6 L 37.4 113.5 L 33.9 113.5 L 33.9 116.6 L 33.0 116.6 L 33.0 109.9 " fill="#FF0000"/>
<path class="atom-44" d="M 39.7 113.2 Q 39.7 111.6, 40.5 110.7 Q 41.3 109.8, 42.8 109.8 Q 44.2 109.8, 45.0 110.7 Q 45.8 111.6, 45.8 113.2 Q 45.8 114.9, 45.0 115.8 Q 44.2 116.7, 42.8 116.7 Q 41.3 116.7, 40.5 115.8 Q 39.7 114.9, 39.7 113.2 M 42.8 115.9 Q 43.8 115.9, 44.3 115.3 Q 44.9 114.6, 44.9 113.2 Q 44.9 111.9, 44.3 111.2 Q 43.8 110.6, 42.8 110.6 Q 41.7 110.6, 41.2 111.2 Q 40.6 111.9, 40.6 113.2 Q 40.6 114.6, 41.2 115.3 Q 41.7 115.9, 42.8 115.9 " fill="#FF0000"/>
</svg>
