<?xml version='1.0' encoding='ASCII' standalone='yes'?>
<svg xmlns="http://www.w3.org/2000/svg" xmlns:rdkit="http://www.rdkit.org/xml" xmlns:xlink="http://www.w3.org/1999/xlink" version="1.1" baseProfile="full" xml:space="preserve" width="371px" height="200px" viewBox="0 0 371 200">
<!-- END OF HEADER -->
<rect style="opacity:1.0;fill:#FFFFFF;stroke:none" width="371.0" height="200.0" x="0.0" y="0.0"> </rect>
<path class="bond-0 atom-0 atom-1" d="M 61.2,159.9 L 82.0,148.5" style="fill:none;fill-rule:evenodd;stroke:#000000;stroke-width:2.0px;stroke-linecap:butt;stroke-linejoin:miter;stroke-opacity:1"/>
<path class="bond-1 atom-1 atom-2" d="M 82.0,148.5 L 82.5,124.8" style="fill:none;fill-rule:evenodd;stroke:#000000;stroke-width:2.0px;stroke-linecap:butt;stroke-linejoin:miter;stroke-opacity:1"/>
<path class="bond-2 atom-2 atom-3" d="M 82.5,124.8 L 58.8,124.3" style="fill:none;fill-rule:evenodd;stroke:#000000;stroke-width:2.0px;stroke-linecap:butt;stroke-linejoin:miter;stroke-opacity:1"/>
<path class="bond-3 atom-3 atom-4" d="M 58.8,124.3 L 54.3,116.0" style="fill:none;fill-rule:evenodd;stroke:#000000;stroke-width:2.0px;stroke-linecap:butt;stroke-linejoin:miter;stroke-opacity:1"/>
<path class="bond-3 atom-3 atom-4" d="M 54.3,116.0 L 49.8,107.7" style="fill:none;fill-rule:evenodd;stroke:#FF0000;stroke-width:2.0px;stroke-linecap:butt;stroke-linejoin:miter;stroke-opacity:1"/>
<path class="bond-4 atom-2 atom-5" d="M 82.5,124.8 L 83.1,101.1" style="fill:none;fill-rule:evenodd;stroke:#000000;stroke-width:2.0px;stroke-linecap:butt;stroke-linejoin:miter;stroke-opacity:1"/>
<path class="bond-5 atom-5 atom-6" d="M 83.1,101.1 L 62.8,88.7" style="fill:none;fill-rule:evenodd;stroke:#000000;stroke-width:2.0px;stroke-linecap:butt;stroke-linejoin:miter;stroke-opacity:1"/>
<path class="bond-6 atom-6 atom-7" d="M 62.8,88.7 L 63.4,65.0" style="fill:none;fill-rule:evenodd;stroke:#000000;stroke-width:2.0px;stroke-linecap:butt;stroke-linejoin:miter;stroke-opacity:1"/>
<path class="bond-7 atom-7 atom-8" d="M 63.4,65.0 L 63.9,41.3" style="fill:none;fill-rule:evenodd;stroke:#000000;stroke-width:2.0px;stroke-linecap:butt;stroke-linejoin:miter;stroke-opacity:1"/>
<path class="bond-8 atom-7 atom-9" d="M 63.4,65.0 L 87.1,65.6" style="fill:none;fill-rule:evenodd;stroke:#000000;stroke-width:2.0px;stroke-linecap:butt;stroke-linejoin:miter;stroke-opacity:1"/>
<path class="bond-9 atom-9 atom-10" d="M 87.1,65.6 L 92.0,57.6" style="fill:none;fill-rule:evenodd;stroke:#000000;stroke-width:2.0px;stroke-linecap:butt;stroke-linejoin:miter;stroke-opacity:1"/>
<path class="bond-9 atom-9 atom-10" d="M 92.0,57.6 L 96.8,49.6" style="fill:none;fill-rule:evenodd;stroke:#FF0000;stroke-width:2.0px;stroke-linecap:butt;stroke-linejoin:miter;stroke-opacity:1"/>
<path class="bond-10 atom-7 atom-11" d="M 63.4,65.0 L 39.7,64.5" style="fill:none;fill-rule:evenodd;stroke:#000000;stroke-width:2.0px;stroke-linecap:butt;stroke-linejoin:miter;stroke-opacity:1"/>
<path class="bond-11 atom-11 atom-12" d="M 38.7,62.7 L 33.5,71.1" style="fill:none;fill-rule:evenodd;stroke:#000000;stroke-width:2.0px;stroke-linecap:butt;stroke-linejoin:miter;stroke-opacity:1"/>
<path class="bond-11 atom-11 atom-12" d="M 33.5,71.1 L 28.3,79.6" style="fill:none;fill-rule:evenodd;stroke:#FF0000;stroke-width:2.0px;stroke-linecap:butt;stroke-linejoin:miter;stroke-opacity:1"/>
<path class="bond-11 atom-11 atom-12" d="M 41.7,64.5 L 36.5,73.0" style="fill:none;fill-rule:evenodd;stroke:#000000;stroke-width:2.0px;stroke-linecap:butt;stroke-linejoin:miter;stroke-opacity:1"/>
<path class="bond-11 atom-11 atom-12" d="M 36.5,73.0 L 31.4,81.5" style="fill:none;fill-rule:evenodd;stroke:#FF0000;stroke-width:2.0px;stroke-linecap:butt;stroke-linejoin:miter;stroke-opacity:1"/>
<path class="bond-12 atom-11 atom-13" d="M 39.7,64.5 L 35.1,56.2" style="fill:none;fill-rule:evenodd;stroke:#000000;stroke-width:2.0px;stroke-linecap:butt;stroke-linejoin:miter;stroke-opacity:1"/>
<path class="bond-12 atom-11 atom-13" d="M 35.1,56.2 L 30.6,47.9" style="fill:none;fill-rule:evenodd;stroke:#FF0000;stroke-width:2.0px;stroke-linecap:butt;stroke-linejoin:miter;stroke-opacity:1"/>
<path class="bond-13 atom-2 atom-14" d="M 82.5,124.8 L 106.3,125.4" style="fill:none;fill-rule:evenodd;stroke:#000000;stroke-width:2.0px;stroke-linecap:butt;stroke-linejoin:miter;stroke-opacity:1"/>
<path class="bond-14 atom-14 atom-15" d="M 106.3,125.4 L 118.6,105.1" style="fill:none;fill-rule:evenodd;stroke:#000000;stroke-width:2.0px;stroke-linecap:butt;stroke-linejoin:miter;stroke-opacity:1"/>
<path class="bond-15 atom-15 atom-16" d="M 118.6,105.1 L 142.3,105.7" style="fill:none;fill-rule:evenodd;stroke:#000000;stroke-width:2.0px;stroke-linecap:butt;stroke-linejoin:miter;stroke-opacity:1"/>
<path class="bond-16 atom-16 atom-17" d="M 142.3,105.7 L 142.9,81.9" style="fill:none;fill-rule:evenodd;stroke:#000000;stroke-width:2.0px;stroke-linecap:butt;stroke-linejoin:miter;stroke-opacity:1"/>
<path class="bond-17 atom-17 atom-18" d="M 142.9,81.9 L 134.7,76.9" style="fill:none;fill-rule:evenodd;stroke:#000000;stroke-width:2.0px;stroke-linecap:butt;stroke-linejoin:miter;stroke-opacity:1"/>
<path class="bond-17 atom-17 atom-18" d="M 134.7,76.9 L 126.5,71.9" style="fill:none;fill-rule:evenodd;stroke:#FF0000;stroke-width:2.0px;stroke-linecap:butt;stroke-linejoin:miter;stroke-opacity:1"/>
<path class="bond-18 atom-16 atom-19" d="M 142.3,105.7 L 166.1,106.2" style="fill:none;fill-rule:evenodd;stroke:#000000;stroke-width:2.0px;stroke-linecap:butt;stroke-linejoin:miter;stroke-opacity:1"/>
<path class="bond-19 atom-19 atom-20" d="M 166.1,106.2 L 178.4,85.9" style="fill:none;fill-rule:evenodd;stroke:#000000;stroke-width:2.0px;stroke-linecap:butt;stroke-linejoin:miter;stroke-opacity:1"/>
<path class="bond-20 atom-20 atom-21" d="M 178.4,85.9 L 173.9,77.7" style="fill:none;fill-rule:evenodd;stroke:#000000;stroke-width:2.0px;stroke-linecap:butt;stroke-linejoin:miter;stroke-opacity:1"/>
<path class="bond-20 atom-20 atom-21" d="M 173.9,77.7 L 169.4,69.4" style="fill:none;fill-rule:evenodd;stroke:#FF0000;stroke-width:2.0px;stroke-linecap:butt;stroke-linejoin:miter;stroke-opacity:1"/>
<path class="bond-21 atom-20 atom-22" d="M 178.4,85.9 L 202.1,86.5" style="fill:none;fill-rule:evenodd;stroke:#000000;stroke-width:2.0px;stroke-linecap:butt;stroke-linejoin:miter;stroke-opacity:1"/>
<path class="bond-22 atom-22 atom-23" d="M 202.1,86.5 L 202.7,62.8" style="fill:none;fill-rule:evenodd;stroke:#000000;stroke-width:2.0px;stroke-linecap:butt;stroke-linejoin:miter;stroke-opacity:1"/>
<path class="bond-23 atom-23 atom-24" d="M 202.7,62.8 L 223.5,51.4" style="fill:none;fill-rule:evenodd;stroke:#000000;stroke-width:2.0px;stroke-linecap:butt;stroke-linejoin:miter;stroke-opacity:1"/>
<path class="bond-24 atom-22 atom-25" d="M 202.1,86.5 L 201.6,110.2" style="fill:none;fill-rule:evenodd;stroke:#000000;stroke-width:2.0px;stroke-linecap:butt;stroke-linejoin:miter;stroke-opacity:1"/>
<path class="bond-25 atom-25 atom-26" d="M 201.6,110.2 L 221.9,122.6" style="fill:none;fill-rule:evenodd;stroke:#000000;stroke-width:2.0px;stroke-linecap:butt;stroke-linejoin:miter;stroke-opacity:1"/>
<path class="bond-26 atom-26 atom-27" d="M 221.9,122.6 L 221.3,146.3" style="fill:none;fill-rule:evenodd;stroke:#000000;stroke-width:2.0px;stroke-linecap:butt;stroke-linejoin:miter;stroke-opacity:1"/>
<path class="bond-27 atom-27 atom-28" d="M 221.3,146.3 L 220.7,170.0" style="fill:none;fill-rule:evenodd;stroke:#000000;stroke-width:2.0px;stroke-linecap:butt;stroke-linejoin:miter;stroke-opacity:1"/>
<path class="bond-28 atom-27 atom-29" d="M 221.3,146.3 L 197.6,145.7" style="fill:none;fill-rule:evenodd;stroke:#000000;stroke-width:2.0px;stroke-linecap:butt;stroke-linejoin:miter;stroke-opacity:1"/>
<path class="bond-29 atom-29 atom-30" d="M 197.6,145.7 L 192.7,153.8" style="fill:none;fill-rule:evenodd;stroke:#000000;stroke-width:2.0px;stroke-linecap:butt;stroke-linejoin:miter;stroke-opacity:1"/>
<path class="bond-29 atom-29 atom-30" d="M 192.7,153.8 L 187.8,161.8" style="fill:none;fill-rule:evenodd;stroke:#FF0000;stroke-width:2.0px;stroke-linecap:butt;stroke-linejoin:miter;stroke-opacity:1"/>
<path class="bond-30 atom-27 atom-31" d="M 221.3,146.3 L 245.0,146.8" style="fill:none;fill-rule:evenodd;stroke:#000000;stroke-width:2.0px;stroke-linecap:butt;stroke-linejoin:miter;stroke-opacity:1"/>
<path class="bond-31 atom-31 atom-32" d="M 246.0,148.7 L 251.1,140.2" style="fill:none;fill-rule:evenodd;stroke:#000000;stroke-width:2.0px;stroke-linecap:butt;stroke-linejoin:miter;stroke-opacity:1"/>
<path class="bond-31 atom-31 atom-32" d="M 251.1,140.2 L 256.3,131.8" style="fill:none;fill-rule:evenodd;stroke:#FF0000;stroke-width:2.0px;stroke-linecap:butt;stroke-linejoin:miter;stroke-opacity:1"/>
<path class="bond-31 atom-31 atom-32" d="M 243.0,146.8 L 248.1,138.4" style="fill:none;fill-rule:evenodd;stroke:#000000;stroke-width:2.0px;stroke-linecap:butt;stroke-linejoin:miter;stroke-opacity:1"/>
<path class="bond-31 atom-31 atom-32" d="M 248.1,138.4 L 253.2,129.9" style="fill:none;fill-rule:evenodd;stroke:#FF0000;stroke-width:2.0px;stroke-linecap:butt;stroke-linejoin:miter;stroke-opacity:1"/>
<path class="bond-32 atom-31 atom-33" d="M 245.0,146.8 L 249.6,155.2" style="fill:none;fill-rule:evenodd;stroke:#000000;stroke-width:2.0px;stroke-linecap:butt;stroke-linejoin:miter;stroke-opacity:1"/>
<path class="bond-32 atom-31 atom-33" d="M 249.6,155.2 L 254.1,163.5" style="fill:none;fill-rule:evenodd;stroke:#FF0000;stroke-width:2.0px;stroke-linecap:butt;stroke-linejoin:miter;stroke-opacity:1"/>
<path class="bond-33 atom-22 atom-34" d="M 202.1,86.5 L 225.9,87.0" style="fill:none;fill-rule:evenodd;stroke:#000000;stroke-width:2.0px;stroke-linecap:butt;stroke-linejoin:miter;stroke-opacity:1"/>
<path class="bond-34 atom-34 atom-35" d="M 225.9,87.0 L 238.2,66.8" style="fill:none;fill-rule:evenodd;stroke:#000000;stroke-width:2.0px;stroke-linecap:butt;stroke-linejoin:miter;stroke-opacity:1"/>
<path class="bond-35 atom-35 atom-36" d="M 238.2,66.8 L 261.9,67.3" style="fill:none;fill-rule:evenodd;stroke:#000000;stroke-width:2.0px;stroke-linecap:butt;stroke-linejoin:miter;stroke-opacity:1"/>
<path class="bond-36 atom-36 atom-37" d="M 261.9,67.3 L 262.5,43.6" style="fill:none;fill-rule:evenodd;stroke:#000000;stroke-width:2.0px;stroke-linecap:butt;stroke-linejoin:miter;stroke-opacity:1"/>
<path class="bond-37 atom-37 atom-38" d="M 262.5,43.6 L 271.0,39.0" style="fill:none;fill-rule:evenodd;stroke:#000000;stroke-width:2.0px;stroke-linecap:butt;stroke-linejoin:miter;stroke-opacity:1"/>
<path class="bond-37 atom-37 atom-38" d="M 271.0,39.0 L 279.5,34.3" style="fill:none;fill-rule:evenodd;stroke:#FF0000;stroke-width:2.0px;stroke-linecap:butt;stroke-linejoin:miter;stroke-opacity:1"/>
<path class="bond-38 atom-36 atom-39" d="M 261.9,67.3 L 285.7,67.9" style="fill:none;fill-rule:evenodd;stroke:#000000;stroke-width:2.0px;stroke-linecap:butt;stroke-linejoin:miter;stroke-opacity:1"/>
<path class="bond-39 atom-39 atom-40" d="M 285.7,67.9 L 297.0,88.7" style="fill:none;fill-rule:evenodd;stroke:#000000;stroke-width:2.0px;stroke-linecap:butt;stroke-linejoin:miter;stroke-opacity:1"/>
<path class="bond-40 atom-40 atom-41" d="M 297.0,88.7 L 320.8,89.3" style="fill:none;fill-rule:evenodd;stroke:#000000;stroke-width:2.0px;stroke-linecap:butt;stroke-linejoin:miter;stroke-opacity:1"/>
<path class="bond-41 atom-41 atom-42" d="M 320.8,89.3 L 344.5,89.8" style="fill:none;fill-rule:evenodd;stroke:#000000;stroke-width:2.0px;stroke-linecap:butt;stroke-linejoin:miter;stroke-opacity:1"/>
<path class="bond-42 atom-41 atom-43" d="M 320.8,89.3 L 321.3,65.5" style="fill:none;fill-rule:evenodd;stroke:#000000;stroke-width:2.0px;stroke-linecap:butt;stroke-linejoin:miter;stroke-opacity:1"/>
<path class="bond-43 atom-43 atom-44" d="M 321.3,65.5 L 329.8,60.9" style="fill:none;fill-rule:evenodd;stroke:#000000;stroke-width:2.0px;stroke-linecap:butt;stroke-linejoin:miter;stroke-opacity:1"/>
<path class="bond-43 atom-43 atom-44" d="M 329.8,60.9 L 338.3,56.3" style="fill:none;fill-rule:evenodd;stroke:#FF0000;stroke-width:2.0px;stroke-linecap:butt;stroke-linejoin:miter;stroke-opacity:1"/>
<path class="bond-44 atom-41 atom-45" d="M 320.8,89.3 L 320.2,113.0" style="fill:none;fill-rule:evenodd;stroke:#000000;stroke-width:2.0px;stroke-linecap:butt;stroke-linejoin:miter;stroke-opacity:1"/>
<path class="bond-45 atom-45 atom-46" d="M 320.3,110.9 L 311.3,115.8" style="fill:none;fill-rule:evenodd;stroke:#000000;stroke-width:2.0px;stroke-linecap:butt;stroke-linejoin:miter;stroke-opacity:1"/>
<path class="bond-45 atom-45 atom-46" d="M 311.3,115.8 L 302.4,120.7" style="fill:none;fill-rule:evenodd;stroke:#FF0000;stroke-width:2.0px;stroke-linecap:butt;stroke-linejoin:miter;stroke-opacity:1"/>
<path class="bond-45 atom-45 atom-46" d="M 322.0,114.1 L 313.0,118.9" style="fill:none;fill-rule:evenodd;stroke:#000000;stroke-width:2.0px;stroke-linecap:butt;stroke-linejoin:miter;stroke-opacity:1"/>
<path class="bond-45 atom-45 atom-46" d="M 313.0,118.9 L 304.1,123.8" style="fill:none;fill-rule:evenodd;stroke:#FF0000;stroke-width:2.0px;stroke-linecap:butt;stroke-linejoin:miter;stroke-opacity:1"/>
<path class="bond-46 atom-45 atom-47" d="M 320.2,113.0 L 328.4,118.0" style="fill:none;fill-rule:evenodd;stroke:#000000;stroke-width:2.0px;stroke-linecap:butt;stroke-linejoin:miter;stroke-opacity:1"/>
<path class="bond-46 atom-45 atom-47" d="M 328.4,118.0 L 336.6,123.0" style="fill:none;fill-rule:evenodd;stroke:#FF0000;stroke-width:2.0px;stroke-linecap:butt;stroke-linejoin:miter;stroke-opacity:1"/>
<path class="bond-47 atom-36 atom-48" d="M 261.9,67.3 L 261.4,91.1" style="fill:none;fill-rule:evenodd;stroke:#000000;stroke-width:2.0px;stroke-linecap:butt;stroke-linejoin:miter;stroke-opacity:1"/>
<path class="bond-48 atom-48 atom-49" d="M 261.4,89.0 L 252.5,93.9" style="fill:none;fill-rule:evenodd;stroke:#000000;stroke-width:2.0px;stroke-linecap:butt;stroke-linejoin:miter;stroke-opacity:1"/>
<path class="bond-48 atom-48 atom-49" d="M 252.5,93.9 L 243.6,98.8" style="fill:none;fill-rule:evenodd;stroke:#FF0000;stroke-width:2.0px;stroke-linecap:butt;stroke-linejoin:miter;stroke-opacity:1"/>
<path class="bond-48 atom-48 atom-49" d="M 263.1,92.1 L 254.2,97.0" style="fill:none;fill-rule:evenodd;stroke:#000000;stroke-width:2.0px;stroke-linecap:butt;stroke-linejoin:miter;stroke-opacity:1"/>
<path class="bond-48 atom-48 atom-49" d="M 254.2,97.0 L 245.3,101.9" style="fill:none;fill-rule:evenodd;stroke:#FF0000;stroke-width:2.0px;stroke-linecap:butt;stroke-linejoin:miter;stroke-opacity:1"/>
<path class="bond-49 atom-48 atom-50" d="M 261.4,91.1 L 269.6,96.1" style="fill:none;fill-rule:evenodd;stroke:#000000;stroke-width:2.0px;stroke-linecap:butt;stroke-linejoin:miter;stroke-opacity:1"/>
<path class="bond-49 atom-48 atom-50" d="M 269.6,96.1 L 277.8,101.0" style="fill:none;fill-rule:evenodd;stroke:#FF0000;stroke-width:2.0px;stroke-linecap:butt;stroke-linejoin:miter;stroke-opacity:1"/>
<path class="bond-50 atom-16 atom-51" d="M 142.3,105.7 L 141.8,129.4" style="fill:none;fill-rule:evenodd;stroke:#000000;stroke-width:2.0px;stroke-linecap:butt;stroke-linejoin:miter;stroke-opacity:1"/>
<path class="bond-51 atom-51 atom-52" d="M 141.8,127.3 L 132.9,132.2" style="fill:none;fill-rule:evenodd;stroke:#000000;stroke-width:2.0px;stroke-linecap:butt;stroke-linejoin:miter;stroke-opacity:1"/>
<path class="bond-51 atom-51 atom-52" d="M 132.9,132.2 L 124.0,137.1" style="fill:none;fill-rule:evenodd;stroke:#FF0000;stroke-width:2.0px;stroke-linecap:butt;stroke-linejoin:miter;stroke-opacity:1"/>
<path class="bond-51 atom-51 atom-52" d="M 143.5,130.4 L 134.6,135.3" style="fill:none;fill-rule:evenodd;stroke:#000000;stroke-width:2.0px;stroke-linecap:butt;stroke-linejoin:miter;stroke-opacity:1"/>
<path class="bond-51 atom-51 atom-52" d="M 134.6,135.3 L 125.7,140.2" style="fill:none;fill-rule:evenodd;stroke:#FF0000;stroke-width:2.0px;stroke-linecap:butt;stroke-linejoin:miter;stroke-opacity:1"/>
<path class="bond-52 atom-51 atom-53" d="M 141.8,129.4 L 150.0,134.4" style="fill:none;fill-rule:evenodd;stroke:#000000;stroke-width:2.0px;stroke-linecap:butt;stroke-linejoin:miter;stroke-opacity:1"/>
<path class="bond-52 atom-51 atom-53" d="M 150.0,134.4 L 158.2,139.4" style="fill:none;fill-rule:evenodd;stroke:#FF0000;stroke-width:2.0px;stroke-linecap:butt;stroke-linejoin:miter;stroke-opacity:1"/>
<path d="M 80.9,149.1 L 82.0,148.5 L 82.0,147.4" style="fill:none;stroke:#000000;stroke-width:2.0px;stroke-linecap:butt;stroke-linejoin:miter;stroke-opacity:1;"/>
<path d="M 60.0,124.3 L 58.8,124.3 L 58.6,123.8" style="fill:none;stroke:#000000;stroke-width:2.0px;stroke-linecap:butt;stroke-linejoin:miter;stroke-opacity:1;"/>
<path d="M 83.1,102.3 L 83.1,101.1 L 82.1,100.5" style="fill:none;stroke:#000000;stroke-width:2.0px;stroke-linecap:butt;stroke-linejoin:miter;stroke-opacity:1;"/>
<path d="M 63.8,89.4 L 62.8,88.7 L 62.9,87.6" style="fill:none;stroke:#000000;stroke-width:2.0px;stroke-linecap:butt;stroke-linejoin:miter;stroke-opacity:1;"/>
<path d="M 85.9,65.5 L 87.1,65.6 L 87.4,65.2" style="fill:none;stroke:#000000;stroke-width:2.0px;stroke-linecap:butt;stroke-linejoin:miter;stroke-opacity:1;"/>
<path d="M 40.8,64.5 L 39.7,64.5 L 39.4,64.0" style="fill:none;stroke:#000000;stroke-width:2.0px;stroke-linecap:butt;stroke-linejoin:miter;stroke-opacity:1;"/>
<path d="M 105.1,125.3 L 106.3,125.4 L 106.9,124.4" style="fill:none;stroke:#000000;stroke-width:2.0px;stroke-linecap:butt;stroke-linejoin:miter;stroke-opacity:1;"/>
<path d="M 118.0,106.1 L 118.6,105.1 L 119.8,105.1" style="fill:none;stroke:#000000;stroke-width:2.0px;stroke-linecap:butt;stroke-linejoin:miter;stroke-opacity:1;"/>
<path d="M 142.9,83.1 L 142.9,81.9 L 142.5,81.7" style="fill:none;stroke:#000000;stroke-width:2.0px;stroke-linecap:butt;stroke-linejoin:miter;stroke-opacity:1;"/>
<path d="M 164.9,106.2 L 166.1,106.2 L 166.7,105.2" style="fill:none;stroke:#000000;stroke-width:2.0px;stroke-linecap:butt;stroke-linejoin:miter;stroke-opacity:1;"/>
<path d="M 202.7,64.0 L 202.7,62.8 L 203.7,62.2" style="fill:none;stroke:#000000;stroke-width:2.0px;stroke-linecap:butt;stroke-linejoin:miter;stroke-opacity:1;"/>
<path d="M 201.6,109.0 L 201.6,110.2 L 202.6,110.8" style="fill:none;stroke:#000000;stroke-width:2.0px;stroke-linecap:butt;stroke-linejoin:miter;stroke-opacity:1;"/>
<path d="M 220.8,121.9 L 221.9,122.6 L 221.8,123.8" style="fill:none;stroke:#000000;stroke-width:2.0px;stroke-linecap:butt;stroke-linejoin:miter;stroke-opacity:1;"/>
<path d="M 198.8,145.8 L 197.6,145.7 L 197.3,146.1" style="fill:none;stroke:#000000;stroke-width:2.0px;stroke-linecap:butt;stroke-linejoin:miter;stroke-opacity:1;"/>
<path d="M 243.8,146.8 L 245.0,146.8 L 245.3,147.3" style="fill:none;stroke:#000000;stroke-width:2.0px;stroke-linecap:butt;stroke-linejoin:miter;stroke-opacity:1;"/>
<path d="M 224.7,87.0 L 225.9,87.0 L 226.5,86.0" style="fill:none;stroke:#000000;stroke-width:2.0px;stroke-linecap:butt;stroke-linejoin:miter;stroke-opacity:1;"/>
<path d="M 237.6,67.8 L 238.2,66.8 L 239.4,66.8" style="fill:none;stroke:#000000;stroke-width:2.0px;stroke-linecap:butt;stroke-linejoin:miter;stroke-opacity:1;"/>
<path d="M 262.5,44.8 L 262.5,43.6 L 262.9,43.4" style="fill:none;stroke:#000000;stroke-width:2.0px;stroke-linecap:butt;stroke-linejoin:miter;stroke-opacity:1;"/>
<path d="M 284.5,67.9 L 285.7,67.9 L 286.2,68.9" style="fill:none;stroke:#000000;stroke-width:2.0px;stroke-linecap:butt;stroke-linejoin:miter;stroke-opacity:1;"/>
<path d="M 296.5,87.7 L 297.0,88.7 L 298.2,88.7" style="fill:none;stroke:#000000;stroke-width:2.0px;stroke-linecap:butt;stroke-linejoin:miter;stroke-opacity:1;"/>
<path d="M 321.3,66.7 L 321.3,65.5 L 321.8,65.3" style="fill:none;stroke:#000000;stroke-width:2.0px;stroke-linecap:butt;stroke-linejoin:miter;stroke-opacity:1;"/>
<path d="M 320.2,111.8 L 320.2,113.0 L 320.6,113.2" style="fill:none;stroke:#000000;stroke-width:2.0px;stroke-linecap:butt;stroke-linejoin:miter;stroke-opacity:1;"/>
<path d="M 261.4,89.9 L 261.4,91.1 L 261.8,91.3" style="fill:none;stroke:#000000;stroke-width:2.0px;stroke-linecap:butt;stroke-linejoin:miter;stroke-opacity:1;"/>
<path d="M 141.8,128.2 L 141.8,129.4 L 142.2,129.6" style="fill:none;stroke:#000000;stroke-width:2.0px;stroke-linecap:butt;stroke-linejoin:miter;stroke-opacity:1;"/>
<path class="atom-4" d="M 37.7 100.1 L 38.6 100.1 L 38.6 103.0 L 42.1 103.0 L 42.1 100.1 L 43.0 100.1 L 43.0 106.8 L 42.1 106.8 L 42.1 103.7 L 38.6 103.7 L 38.6 106.8 L 37.7 106.8 L 37.7 100.1 " fill="#FF0000"/>
<path class="atom-4" d="M 44.3 103.4 Q 44.3 101.8, 45.1 100.9 Q 45.9 100.0, 47.4 100.0 Q 48.9 100.0, 49.7 100.9 Q 50.5 101.8, 50.5 103.4 Q 50.5 105.1, 49.7 106.0 Q 48.9 106.9, 47.4 106.9 Q 46.0 106.9, 45.1 106.0 Q 44.3 105.1, 44.3 103.4 M 47.4 106.2 Q 48.5 106.2, 49.0 105.5 Q 49.6 104.8, 49.6 103.4 Q 49.6 102.1, 49.0 101.5 Q 48.5 100.8, 47.4 100.8 Q 46.4 100.8, 45.8 101.5 Q 45.3 102.1, 45.3 103.4 Q 45.3 104.8, 45.8 105.5 Q 46.4 106.2, 47.4 106.2 " fill="#FF0000"/>
<path class="atom-10" d="M 96.4 45.3 Q 96.4 43.7, 97.2 42.8 Q 98.0 41.9, 99.5 41.9 Q 100.9 41.9, 101.7 42.8 Q 102.5 43.7, 102.5 45.3 Q 102.5 46.9, 101.7 47.9 Q 100.9 48.8, 99.5 48.8 Q 98.0 48.8, 97.2 47.9 Q 96.4 47.0, 96.4 45.3 M 99.5 48.0 Q 100.5 48.0, 101.0 47.4 Q 101.6 46.7, 101.6 45.3 Q 101.6 44.0, 101.0 43.3 Q 100.5 42.7, 99.5 42.7 Q 98.4 42.7, 97.9 43.3 Q 97.3 44.0, 97.3 45.3 Q 97.3 46.7, 97.9 47.4 Q 98.4 48.0, 99.5 48.0 " fill="#FF0000"/>
<path class="atom-10" d="M 103.6 42.0 L 104.5 42.0 L 104.5 44.8 L 107.9 44.8 L 107.9 42.0 L 108.8 42.0 L 108.8 48.7 L 107.9 48.7 L 107.9 45.6 L 104.5 45.6 L 104.5 48.7 L 103.6 48.7 L 103.6 42.0 " fill="#FF0000"/>
<path class="atom-12" d="M 24.2 84.7 Q 24.2 83.1, 25.0 82.2 Q 25.8 81.3, 27.3 81.3 Q 28.8 81.3, 29.6 82.2 Q 30.4 83.1, 30.4 84.7 Q 30.4 86.4, 29.6 87.3 Q 28.8 88.2, 27.3 88.2 Q 25.8 88.2, 25.0 87.3 Q 24.2 86.4, 24.2 84.7 M 27.3 87.5 Q 28.3 87.5, 28.9 86.8 Q 29.4 86.1, 29.4 84.7 Q 29.4 83.4, 28.9 82.8 Q 28.3 82.1, 27.3 82.1 Q 26.3 82.1, 25.7 82.8 Q 25.2 83.4, 25.2 84.7 Q 25.2 86.1, 25.7 86.8 Q 26.3 87.5, 27.3 87.5 " fill="#FF0000"/>
<path class="atom-13" d="M 18.6 40.3 L 19.5 40.3 L 19.5 43.2 L 22.9 43.2 L 22.9 40.3 L 23.8 40.3 L 23.8 47.0 L 22.9 47.0 L 22.9 43.9 L 19.5 43.9 L 19.5 47.0 L 18.6 47.0 L 18.6 40.3 " fill="#FF0000"/>
<path class="atom-13" d="M 25.2 43.6 Q 25.2 42.0, 26.0 41.1 Q 26.8 40.2, 28.3 40.2 Q 29.8 40.2, 30.6 41.1 Q 31.4 42.0, 31.4 43.6 Q 31.4 45.3, 30.6 46.2 Q 29.7 47.1, 28.3 47.1 Q 26.8 47.1, 26.0 46.2 Q 25.2 45.3, 25.2 43.6 M 28.3 46.4 Q 29.3 46.4, 29.8 45.7 Q 30.4 45.0, 30.4 43.6 Q 30.4 42.3, 29.8 41.7 Q 29.3 41.0, 28.3 41.0 Q 27.2 41.0, 26.7 41.7 Q 26.1 42.3, 26.1 43.6 Q 26.1 45.0, 26.7 45.7 Q 27.2 46.4, 28.3 46.4 " fill="#FF0000"/>
<path class="atom-18" d="M 112.9 66.3 L 113.8 66.3 L 113.8 69.1 L 117.3 69.1 L 117.3 66.3 L 118.2 66.3 L 118.2 73.0 L 117.3 73.0 L 117.3 69.9 L 113.8 69.9 L 113.8 73.0 L 112.9 73.0 L 112.9 66.3 " fill="#FF0000"/>
<path class="atom-18" d="M 119.5 69.6 Q 119.5 68.0, 120.3 67.1 Q 121.1 66.2, 122.6 66.2 Q 124.1 66.2, 124.9 67.1 Q 125.7 68.0, 125.7 69.6 Q 125.7 71.2, 124.9 72.2 Q 124.1 73.1, 122.6 73.1 Q 121.1 73.1, 120.3 72.2 Q 119.5 71.2, 119.5 69.6 M 122.6 72.3 Q 123.7 72.3, 124.2 71.6 Q 124.8 70.9, 124.8 69.6 Q 124.8 68.3, 124.2 67.6 Q 123.7 66.9, 122.6 66.9 Q 121.6 66.9, 121.0 67.6 Q 120.5 68.3, 120.5 69.6 Q 120.5 71.0, 121.0 71.6 Q 121.6 72.3, 122.6 72.3 " fill="#FF0000"/>
<path class="atom-21" d="M 157.3 61.8 L 158.2 61.8 L 158.2 64.6 L 161.7 64.6 L 161.7 61.8 L 162.6 61.8 L 162.6 68.5 L 161.7 68.5 L 161.7 65.4 L 158.2 65.4 L 158.2 68.5 L 157.3 68.5 L 157.3 61.8 " fill="#FF0000"/>
<path class="atom-21" d="M 163.9 65.1 Q 163.9 63.5, 164.7 62.6 Q 165.5 61.7, 167.0 61.7 Q 168.5 61.7, 169.3 62.6 Q 170.1 63.5, 170.1 65.1 Q 170.1 66.8, 169.3 67.7 Q 168.5 68.6, 167.0 68.6 Q 165.6 68.6, 164.7 67.7 Q 163.9 66.8, 163.9 65.1 M 167.0 67.9 Q 168.1 67.9, 168.6 67.2 Q 169.2 66.5, 169.2 65.1 Q 169.2 63.8, 168.6 63.1 Q 168.1 62.5, 167.0 62.5 Q 166.0 62.5, 165.4 63.1 Q 164.9 63.8, 164.9 65.1 Q 164.9 66.5, 165.4 67.2 Q 166.0 67.9, 167.0 67.9 " fill="#FF0000"/>
<path class="atom-30" d="M 175.5 162.7 L 176.4 162.7 L 176.4 165.5 L 179.9 165.5 L 179.9 162.7 L 180.8 162.7 L 180.8 169.4 L 179.9 169.4 L 179.9 166.3 L 176.4 166.3 L 176.4 169.4 L 175.5 169.4 L 175.5 162.7 " fill="#FF0000"/>
<path class="atom-30" d="M 182.1 166.0 Q 182.1 164.4, 182.9 163.5 Q 183.7 162.6, 185.2 162.6 Q 186.7 162.6, 187.5 163.5 Q 188.3 164.4, 188.3 166.0 Q 188.3 167.7, 187.5 168.6 Q 186.7 169.5, 185.2 169.5 Q 183.7 169.5, 182.9 168.6 Q 182.1 167.7, 182.1 166.0 M 185.2 168.7 Q 186.3 168.7, 186.8 168.1 Q 187.4 167.4, 187.4 166.0 Q 187.4 164.7, 186.8 164.0 Q 186.3 163.4, 185.2 163.4 Q 184.2 163.4, 183.6 164.0 Q 183.1 164.7, 183.1 166.0 Q 183.1 167.4, 183.6 168.1 Q 184.2 168.7, 185.2 168.7 " fill="#FF0000"/>
<path class="atom-32" d="M 254.3 126.6 Q 254.3 125.0, 255.1 124.1 Q 255.9 123.2, 257.4 123.2 Q 258.9 123.2, 259.7 124.1 Q 260.5 125.0, 260.5 126.6 Q 260.5 128.2, 259.7 129.2 Q 258.8 130.1, 257.4 130.1 Q 255.9 130.1, 255.1 129.2 Q 254.3 128.2, 254.3 126.6 M 257.4 129.3 Q 258.4 129.3, 258.9 128.6 Q 259.5 127.9, 259.5 126.6 Q 259.5 125.3, 258.9 124.6 Q 258.4 123.9, 257.4 123.9 Q 256.3 123.9, 255.8 124.6 Q 255.2 125.3, 255.2 126.6 Q 255.2 128.0, 255.8 128.6 Q 256.3 129.3, 257.4 129.3 " fill="#FF0000"/>
<path class="atom-33" d="M 253.3 167.7 Q 253.3 166.1, 254.1 165.2 Q 254.9 164.3, 256.4 164.3 Q 257.9 164.3, 258.7 165.2 Q 259.5 166.1, 259.5 167.7 Q 259.5 169.3, 258.7 170.3 Q 257.9 171.2, 256.4 171.2 Q 254.9 171.2, 254.1 170.3 Q 253.3 169.3, 253.3 167.7 M 256.4 170.4 Q 257.4 170.4, 258.0 169.7 Q 258.5 169.0, 258.5 167.7 Q 258.5 166.4, 258.0 165.7 Q 257.4 165.0, 256.4 165.0 Q 255.4 165.0, 254.8 165.7 Q 254.3 166.4, 254.3 167.7 Q 254.3 169.0, 254.8 169.7 Q 255.4 170.4, 256.4 170.4 " fill="#FF0000"/>
<path class="atom-33" d="M 260.5 164.4 L 261.5 164.4 L 261.5 167.2 L 264.9 167.2 L 264.9 164.4 L 265.8 164.4 L 265.8 171.1 L 264.9 171.1 L 264.9 168.0 L 261.5 168.0 L 261.5 171.1 L 260.5 171.1 L 260.5 164.4 " fill="#FF0000"/>
<path class="atom-38" d="M 280.2 32.2 Q 280.2 30.6, 281.0 29.7 Q 281.8 28.8, 283.3 28.8 Q 284.8 28.8, 285.6 29.7 Q 286.4 30.6, 286.4 32.2 Q 286.4 33.9, 285.6 34.8 Q 284.8 35.7, 283.3 35.7 Q 281.8 35.7, 281.0 34.8 Q 280.2 33.9, 280.2 32.2 M 283.3 35.0 Q 284.3 35.0, 284.9 34.3 Q 285.5 33.6, 285.5 32.2 Q 285.5 30.9, 284.9 30.3 Q 284.3 29.6, 283.3 29.6 Q 282.3 29.6, 281.7 30.2 Q 281.2 30.9, 281.2 32.2 Q 281.2 33.6, 281.7 34.3 Q 282.3 35.0, 283.3 35.0 " fill="#FF0000"/>
<path class="atom-38" d="M 287.5 28.9 L 288.4 28.9 L 288.4 31.8 L 291.8 31.8 L 291.8 28.9 L 292.7 28.9 L 292.7 35.6 L 291.8 35.6 L 291.8 32.5 L 288.4 32.5 L 288.4 35.6 L 287.5 35.6 L 287.5 28.9 " fill="#FF0000"/>
<path class="atom-44" d="M 339.1 54.2 Q 339.1 52.6, 339.9 51.7 Q 340.7 50.8, 342.2 50.8 Q 343.6 50.8, 344.4 51.7 Q 345.2 52.6, 345.2 54.2 Q 345.2 55.8, 344.4 56.7 Q 343.6 57.7, 342.2 57.7 Q 340.7 57.7, 339.9 56.7 Q 339.1 55.8, 339.1 54.2 M 342.2 56.9 Q 343.2 56.9, 343.7 56.2 Q 344.3 55.5, 344.3 54.2 Q 344.3 52.9, 343.7 52.2 Q 343.2 51.5, 342.2 51.5 Q 341.1 51.5, 340.6 52.2 Q 340.0 52.8, 340.0 54.2 Q 340.0 55.5, 340.6 56.2 Q 341.1 56.9, 342.2 56.9 " fill="#FF0000"/>
<path class="atom-44" d="M 346.3 50.8 L 347.2 50.8 L 347.2 53.7 L 350.6 53.7 L 350.6 50.8 L 351.6 50.8 L 351.6 57.6 L 350.6 57.6 L 350.6 54.5 L 347.2 54.5 L 347.2 57.6 L 346.3 57.6 L 346.3 50.8 " fill="#FF0000"/>
<path class="atom-46" d="M 296.3 124.4 Q 296.3 122.8, 297.1 121.9 Q 297.9 121.0, 299.4 121.0 Q 300.9 121.0, 301.7 121.9 Q 302.5 122.8, 302.5 124.4 Q 302.5 126.0, 301.7 127.0 Q 300.9 127.9, 299.4 127.9 Q 297.9 127.9, 297.1 127.0 Q 296.3 126.0, 296.3 124.4 M 299.4 127.1 Q 300.4 127.1, 301.0 126.4 Q 301.5 125.7, 301.5 124.4 Q 301.5 123.1, 301.0 122.4 Q 300.4 121.7, 299.4 121.7 Q 298.4 121.7, 297.8 122.4 Q 297.3 123.1, 297.3 124.4 Q 297.3 125.8, 297.8 126.4 Q 298.4 127.1, 299.4 127.1 " fill="#FF0000"/>
<path class="atom-47" d="M 337.4 125.4 Q 337.4 123.7, 338.2 122.8 Q 339.0 121.9, 340.5 121.9 Q 342.0 121.9, 342.8 122.8 Q 343.6 123.7, 343.6 125.4 Q 343.6 127.0, 342.8 127.9 Q 342.0 128.8, 340.5 128.8 Q 339.0 128.8, 338.2 127.9 Q 337.4 127.0, 337.4 125.4 M 340.5 128.1 Q 341.5 128.1, 342.1 127.4 Q 342.6 126.7, 342.6 125.4 Q 342.6 124.0, 342.1 123.4 Q 341.5 122.7, 340.5 122.7 Q 339.5 122.7, 338.9 123.4 Q 338.4 124.0, 338.4 125.4 Q 338.4 126.7, 338.9 127.4 Q 339.5 128.1, 340.5 128.1 " fill="#FF0000"/>
<path class="atom-47" d="M 344.6 122.0 L 345.5 122.0 L 345.5 124.9 L 349.0 124.9 L 349.0 122.0 L 349.9 122.0 L 349.9 128.7 L 349.0 128.7 L 349.0 125.6 L 345.5 125.6 L 345.5 128.7 L 344.6 128.7 L 344.6 122.0 " fill="#FF0000"/>
<path class="atom-49" d="M 237.5 102.5 Q 237.5 100.8, 238.3 99.9 Q 239.1 99.0, 240.6 99.0 Q 242.0 99.0, 242.8 99.9 Q 243.6 100.8, 243.6 102.5 Q 243.6 104.1, 242.8 105.0 Q 242.0 105.9, 240.6 105.9 Q 239.1 105.9, 238.3 105.0 Q 237.5 104.1, 237.5 102.5 M 240.6 105.2 Q 241.6 105.2, 242.1 104.5 Q 242.7 103.8, 242.7 102.5 Q 242.7 101.1, 242.1 100.5 Q 241.6 99.8, 240.6 99.8 Q 239.5 99.8, 239.0 100.5 Q 238.4 101.1, 238.4 102.5 Q 238.4 103.8, 239.0 104.5 Q 239.5 105.2, 240.6 105.2 " fill="#FF0000"/>
<path class="atom-50" d="M 278.6 103.4 Q 278.6 101.8, 279.4 100.9 Q 280.2 100.0, 281.7 100.0 Q 283.1 100.0, 283.9 100.9 Q 284.7 101.8, 284.7 103.4 Q 284.7 105.1, 283.9 106.0 Q 283.1 106.9, 281.7 106.9 Q 280.2 106.9, 279.4 106.0 Q 278.6 105.1, 278.6 103.4 M 281.7 106.1 Q 282.7 106.1, 283.2 105.5 Q 283.8 104.8, 283.8 103.4 Q 283.8 102.1, 283.2 101.4 Q 282.7 100.8, 281.7 100.8 Q 280.6 100.8, 280.1 101.4 Q 279.5 102.1, 279.5 103.4 Q 279.5 104.8, 280.1 105.5 Q 280.6 106.1, 281.7 106.1 " fill="#FF0000"/>
<path class="atom-50" d="M 285.8 100.1 L 286.7 100.1 L 286.7 102.9 L 290.1 102.9 L 290.1 100.1 L 291.0 100.1 L 291.0 106.8 L 290.1 106.8 L 290.1 103.7 L 286.7 103.7 L 286.7 106.8 L 285.8 106.8 L 285.8 100.1 " fill="#FF0000"/>
<path class="atom-52" d="M 117.9 140.8 Q 117.9 139.2, 118.7 138.3 Q 119.5 137.4, 121.0 137.4 Q 122.5 137.4, 123.2 138.3 Q 124.0 139.2, 124.0 140.8 Q 124.0 142.4, 123.2 143.3 Q 122.4 144.3, 121.0 144.3 Q 119.5 144.3, 118.7 143.3 Q 117.9 142.4, 117.9 140.8 M 121.0 143.5 Q 122.0 143.5, 122.5 142.8 Q 123.1 142.1, 123.1 140.8 Q 123.1 139.5, 122.5 138.8 Q 122.0 138.1, 121.0 138.1 Q 119.9 138.1, 119.4 138.8 Q 118.8 139.5, 118.8 140.8 Q 118.8 142.1, 119.4 142.8 Q 119.9 143.5, 121.0 143.5 " fill="#FF0000"/>
<path class="atom-53" d="M 159.0 141.7 Q 159.0 140.1, 159.8 139.2 Q 160.6 138.3, 162.1 138.3 Q 163.5 138.3, 164.3 139.2 Q 165.1 140.1, 165.1 141.7 Q 165.1 143.4, 164.3 144.3 Q 163.5 145.2, 162.1 145.2 Q 160.6 145.2, 159.8 144.3 Q 159.0 143.4, 159.0 141.7 M 162.1 144.5 Q 163.1 144.5, 163.6 143.8 Q 164.2 143.1, 164.2 141.7 Q 164.2 140.4, 163.6 139.8 Q 163.1 139.1, 162.1 139.1 Q 161.0 139.1, 160.5 139.7 Q 159.9 140.4, 159.9 141.7 Q 159.9 143.1, 160.5 143.8 Q 161.0 144.5, 162.1 144.5 " fill="#FF0000"/>
<path class="atom-53" d="M 166.2 138.4 L 167.1 138.4 L 167.1 141.3 L 170.5 141.3 L 170.5 138.4 L 171.4 138.4 L 171.4 145.1 L 170.5 145.1 L 170.5 142.0 L 167.1 142.0 L 167.1 145.1 L 166.2 145.1 L 166.2 138.4 " fill="#FF0000"/>
</svg>
