<?xml version='1.0' encoding='ASCII' standalone='yes'?>
<svg xmlns="http://www.w3.org/2000/svg" xmlns:rdkit="http://www.rdkit.org/xml" xmlns:xlink="http://www.w3.org/1999/xlink" version="1.1" baseProfile="full" xml:space="preserve" width="323px" height="200px" viewBox="0 0 323 200">
<!-- END OF HEADER -->
<rect style="opacity:1.0;fill:#FFFFFF;stroke:none" width="323.0" height="200.0" x="0.0" y="0.0"> </rect>
<path class="bond-0 atom-0 atom-1" d="M 306.1,50.9 L 278.9,78.6" style="fill:none;fill-rule:evenodd;stroke:#000000;stroke-width:2.0px;stroke-linecap:butt;stroke-linejoin:miter;stroke-opacity:1"/>
<path class="bond-1 atom-1 atom-2" d="M 278.9,78.6 L 283.2,93.9" style="fill:none;fill-rule:evenodd;stroke:#000000;stroke-width:2.0px;stroke-linecap:butt;stroke-linejoin:miter;stroke-opacity:1"/>
<path class="bond-1 atom-1 atom-2" d="M 283.2,93.9 L 287.4,109.2" style="fill:none;fill-rule:evenodd;stroke:#FF0000;stroke-width:2.0px;stroke-linecap:butt;stroke-linejoin:miter;stroke-opacity:1"/>
<path class="bond-2 atom-1 atom-3" d="M 278.9,78.6 L 241.4,68.9" style="fill:none;fill-rule:evenodd;stroke:#000000;stroke-width:2.0px;stroke-linecap:butt;stroke-linejoin:miter;stroke-opacity:1"/>
<path class="bond-3 atom-3 atom-4" d="M 241.4,68.9 L 251.1,31.3" style="fill:none;fill-rule:evenodd;stroke:#000000;stroke-width:2.0px;stroke-linecap:butt;stroke-linejoin:miter;stroke-opacity:1"/>
<path class="bond-4 atom-3 atom-5" d="M 241.4,68.9 L 231.6,106.4" style="fill:none;fill-rule:evenodd;stroke:#000000;stroke-width:2.0px;stroke-linecap:butt;stroke-linejoin:miter;stroke-opacity:1"/>
<path class="bond-5 atom-5 atom-6" d="M 231.6,106.4 L 194.2,116.8" style="fill:none;fill-rule:evenodd;stroke:#000000;stroke-width:2.0px;stroke-linecap:butt;stroke-linejoin:miter;stroke-opacity:1"/>
<path class="bond-6 atom-6 atom-7" d="M 194.2,116.8 L 183.9,79.4" style="fill:none;fill-rule:evenodd;stroke:#000000;stroke-width:2.0px;stroke-linecap:butt;stroke-linejoin:miter;stroke-opacity:1"/>
<path class="bond-7 atom-7 atom-8" d="M 183.9,79.4 L 170.0,71.8" style="fill:none;fill-rule:evenodd;stroke:#000000;stroke-width:2.0px;stroke-linecap:butt;stroke-linejoin:miter;stroke-opacity:1"/>
<path class="bond-7 atom-7 atom-8" d="M 170.0,71.8 L 156.1,64.3" style="fill:none;fill-rule:evenodd;stroke:#FF0000;stroke-width:2.0px;stroke-linecap:butt;stroke-linejoin:miter;stroke-opacity:1"/>
<path class="bond-8 atom-6 atom-9" d="M 194.2,116.8 L 156.8,127.1" style="fill:none;fill-rule:evenodd;stroke:#000000;stroke-width:2.0px;stroke-linecap:butt;stroke-linejoin:miter;stroke-opacity:1"/>
<path class="bond-9 atom-9 atom-10" d="M 156.8,127.1 L 129.1,99.9" style="fill:none;fill-rule:evenodd;stroke:#000000;stroke-width:2.0px;stroke-linecap:butt;stroke-linejoin:miter;stroke-opacity:1"/>
<path class="bond-10 atom-10 atom-11" d="M 129.1,99.9 L 101.9,127.6" style="fill:none;fill-rule:evenodd;stroke:#000000;stroke-width:2.0px;stroke-linecap:butt;stroke-linejoin:miter;stroke-opacity:1"/>
<path class="bond-11 atom-11 atom-12" d="M 101.9,127.6 L 106.2,142.9" style="fill:none;fill-rule:evenodd;stroke:#000000;stroke-width:2.0px;stroke-linecap:butt;stroke-linejoin:miter;stroke-opacity:1"/>
<path class="bond-11 atom-11 atom-12" d="M 106.2,142.9 L 110.4,158.2" style="fill:none;fill-rule:evenodd;stroke:#FF0000;stroke-width:2.0px;stroke-linecap:butt;stroke-linejoin:miter;stroke-opacity:1"/>
<path class="bond-12 atom-10 atom-13" d="M 129.1,99.9 L 101.5,72.7" style="fill:none;fill-rule:evenodd;stroke:#000000;stroke-width:2.0px;stroke-linecap:butt;stroke-linejoin:miter;stroke-opacity:1"/>
<path class="bond-13 atom-13 atom-14" d="M 101.5,72.7 L 64.1,83.1" style="fill:none;fill-rule:evenodd;stroke:#000000;stroke-width:2.0px;stroke-linecap:butt;stroke-linejoin:miter;stroke-opacity:1"/>
<path class="bond-14 atom-14 atom-15" d="M 64.1,83.1 L 26.7,93.4" style="fill:none;fill-rule:evenodd;stroke:#000000;stroke-width:2.0px;stroke-linecap:butt;stroke-linejoin:miter;stroke-opacity:1"/>
<path class="bond-15 atom-14 atom-16" d="M 64.1,83.1 L 74.4,120.5" style="fill:none;fill-rule:evenodd;stroke:#000000;stroke-width:2.0px;stroke-linecap:butt;stroke-linejoin:miter;stroke-opacity:1"/>
<path class="bond-16 atom-16 atom-17" d="M 72.3,122.6 L 78.6,126.0" style="fill:none;fill-rule:evenodd;stroke:#000000;stroke-width:2.0px;stroke-linecap:butt;stroke-linejoin:miter;stroke-opacity:1"/>
<path class="bond-16 atom-16 atom-17" d="M 78.6,126.0 L 84.9,129.4" style="fill:none;fill-rule:evenodd;stroke:#FF0000;stroke-width:2.0px;stroke-linecap:butt;stroke-linejoin:miter;stroke-opacity:1"/>
<path class="bond-16 atom-16 atom-17" d="M 73.4,116.6 L 81.3,121.0" style="fill:none;fill-rule:evenodd;stroke:#000000;stroke-width:2.0px;stroke-linecap:butt;stroke-linejoin:miter;stroke-opacity:1"/>
<path class="bond-16 atom-16 atom-17" d="M 81.3,121.0 L 87.6,124.4" style="fill:none;fill-rule:evenodd;stroke:#FF0000;stroke-width:2.0px;stroke-linecap:butt;stroke-linejoin:miter;stroke-opacity:1"/>
<path class="bond-17 atom-16 atom-18" d="M 74.4,120.5 L 64.0,131.1" style="fill:none;fill-rule:evenodd;stroke:#000000;stroke-width:2.0px;stroke-linecap:butt;stroke-linejoin:miter;stroke-opacity:1"/>
<path class="bond-17 atom-16 atom-18" d="M 64.0,131.1 L 53.5,141.7" style="fill:none;fill-rule:evenodd;stroke:#FF0000;stroke-width:2.0px;stroke-linecap:butt;stroke-linejoin:miter;stroke-opacity:1"/>
<path class="bond-18 atom-14 atom-19" d="M 64.1,83.1 L 53.7,45.6" style="fill:none;fill-rule:evenodd;stroke:#000000;stroke-width:2.0px;stroke-linecap:butt;stroke-linejoin:miter;stroke-opacity:1"/>
<path class="bond-19 atom-19 atom-20" d="M 53.7,45.6 L 16.2,35.9" style="fill:none;fill-rule:evenodd;stroke:#000000;stroke-width:2.0px;stroke-linecap:butt;stroke-linejoin:miter;stroke-opacity:1"/>
<path class="bond-20 atom-19 atom-21" d="M 53.7,45.6 L 64.2,35.0" style="fill:none;fill-rule:evenodd;stroke:#000000;stroke-width:2.0px;stroke-linecap:butt;stroke-linejoin:miter;stroke-opacity:1"/>
<path class="bond-20 atom-19 atom-21" d="M 64.2,35.0 L 74.6,24.4" style="fill:none;fill-rule:evenodd;stroke:#FF0000;stroke-width:2.0px;stroke-linecap:butt;stroke-linejoin:miter;stroke-opacity:1"/>
<path class="bond-21 atom-10 atom-22" d="M 129.1,99.9 L 156.4,72.2" style="fill:none;fill-rule:evenodd;stroke:#000000;stroke-width:2.0px;stroke-linecap:butt;stroke-linejoin:miter;stroke-opacity:1"/>
<path class="bond-22 atom-22 atom-23" d="M 153.8,74.8 L 171.0,77.1" style="fill:none;fill-rule:evenodd;stroke:#000000;stroke-width:2.0px;stroke-linecap:butt;stroke-linejoin:miter;stroke-opacity:1"/>
<path class="bond-22 atom-22 atom-23" d="M 171.0,77.1 L 188.2,79.3" style="fill:none;fill-rule:evenodd;stroke:#FF0000;stroke-width:2.0px;stroke-linecap:butt;stroke-linejoin:miter;stroke-opacity:1"/>
<path class="bond-22 atom-22 atom-23" d="M 155.5,69.2 L 171.8,71.4" style="fill:none;fill-rule:evenodd;stroke:#000000;stroke-width:2.0px;stroke-linecap:butt;stroke-linejoin:miter;stroke-opacity:1"/>
<path class="bond-22 atom-22 atom-23" d="M 171.8,71.4 L 188.9,73.7" style="fill:none;fill-rule:evenodd;stroke:#FF0000;stroke-width:2.0px;stroke-linecap:butt;stroke-linejoin:miter;stroke-opacity:1"/>
<path class="bond-23 atom-22 atom-24" d="M 156.4,72.2 L 152.2,57.0" style="fill:none;fill-rule:evenodd;stroke:#000000;stroke-width:2.0px;stroke-linecap:butt;stroke-linejoin:miter;stroke-opacity:1"/>
<path class="bond-23 atom-22 atom-24" d="M 152.2,57.0 L 147.9,41.8" style="fill:none;fill-rule:evenodd;stroke:#FF0000;stroke-width:2.0px;stroke-linecap:butt;stroke-linejoin:miter;stroke-opacity:1"/>
<path class="bond-24 atom-6 atom-25" d="M 194.2,116.8 L 204.6,154.2" style="fill:none;fill-rule:evenodd;stroke:#000000;stroke-width:2.0px;stroke-linecap:butt;stroke-linejoin:miter;stroke-opacity:1"/>
<path class="bond-25 atom-25 atom-26" d="M 202.3,156.5 L 218.7,160.8" style="fill:none;fill-rule:evenodd;stroke:#000000;stroke-width:2.0px;stroke-linecap:butt;stroke-linejoin:miter;stroke-opacity:1"/>
<path class="bond-25 atom-25 atom-26" d="M 218.7,160.8 L 235.1,165.1" style="fill:none;fill-rule:evenodd;stroke:#FF0000;stroke-width:2.0px;stroke-linecap:butt;stroke-linejoin:miter;stroke-opacity:1"/>
<path class="bond-25 atom-25 atom-26" d="M 203.7,151.0 L 220.1,155.3" style="fill:none;fill-rule:evenodd;stroke:#000000;stroke-width:2.0px;stroke-linecap:butt;stroke-linejoin:miter;stroke-opacity:1"/>
<path class="bond-25 atom-25 atom-26" d="M 220.1,155.3 L 236.6,159.5" style="fill:none;fill-rule:evenodd;stroke:#FF0000;stroke-width:2.0px;stroke-linecap:butt;stroke-linejoin:miter;stroke-opacity:1"/>
<path class="bond-26 atom-25 atom-27" d="M 204.6,154.2 L 194.1,164.8" style="fill:none;fill-rule:evenodd;stroke:#000000;stroke-width:2.0px;stroke-linecap:butt;stroke-linejoin:miter;stroke-opacity:1"/>
<path class="bond-26 atom-25 atom-27" d="M 194.1,164.8 L 183.7,175.4" style="fill:none;fill-rule:evenodd;stroke:#FF0000;stroke-width:2.0px;stroke-linecap:butt;stroke-linejoin:miter;stroke-opacity:1"/>
<path class="bond-27 atom-3 atom-28" d="M 241.4,68.9 L 203.8,59.1" style="fill:none;fill-rule:evenodd;stroke:#000000;stroke-width:2.0px;stroke-linecap:butt;stroke-linejoin:miter;stroke-opacity:1"/>
<path class="bond-28 atom-28 atom-29" d="M 203.0,56.1 L 190.4,66.1" style="fill:none;fill-rule:evenodd;stroke:#000000;stroke-width:2.0px;stroke-linecap:butt;stroke-linejoin:miter;stroke-opacity:1"/>
<path class="bond-28 atom-28 atom-29" d="M 190.4,66.1 L 177.9,76.0" style="fill:none;fill-rule:evenodd;stroke:#FF0000;stroke-width:2.0px;stroke-linecap:butt;stroke-linejoin:miter;stroke-opacity:1"/>
<path class="bond-28 atom-28 atom-29" d="M 207.3,60.0 L 194.0,70.6" style="fill:none;fill-rule:evenodd;stroke:#000000;stroke-width:2.0px;stroke-linecap:butt;stroke-linejoin:miter;stroke-opacity:1"/>
<path class="bond-28 atom-28 atom-29" d="M 194.0,70.6 L 181.5,80.5" style="fill:none;fill-rule:evenodd;stroke:#FF0000;stroke-width:2.0px;stroke-linecap:butt;stroke-linejoin:miter;stroke-opacity:1"/>
<path class="bond-29 atom-28 atom-30" d="M 203.8,59.1 L 199.6,43.9" style="fill:none;fill-rule:evenodd;stroke:#000000;stroke-width:2.0px;stroke-linecap:butt;stroke-linejoin:miter;stroke-opacity:1"/>
<path class="bond-29 atom-28 atom-30" d="M 199.6,43.9 L 195.4,28.7" style="fill:none;fill-rule:evenodd;stroke:#FF0000;stroke-width:2.0px;stroke-linecap:butt;stroke-linejoin:miter;stroke-opacity:1"/>
<path d="M 232.1,104.5 L 231.6,106.4 L 229.8,106.9" style="fill:none;stroke:#000000;stroke-width:2.0px;stroke-linecap:butt;stroke-linejoin:miter;stroke-opacity:1;"/>
<path d="M 184.4,81.2 L 183.9,79.4 L 183.2,79.0" style="fill:none;stroke:#000000;stroke-width:2.0px;stroke-linecap:butt;stroke-linejoin:miter;stroke-opacity:1;"/>
<path d="M 158.7,126.6 L 156.8,127.1 L 155.4,125.8" style="fill:none;stroke:#000000;stroke-width:2.0px;stroke-linecap:butt;stroke-linejoin:miter;stroke-opacity:1;"/>
<path d="M 103.3,126.2 L 101.9,127.6 L 102.1,128.3" style="fill:none;stroke:#000000;stroke-width:2.0px;stroke-linecap:butt;stroke-linejoin:miter;stroke-opacity:1;"/>
<path d="M 102.9,74.1 L 101.5,72.7 L 99.6,73.2" style="fill:none;stroke:#000000;stroke-width:2.0px;stroke-linecap:butt;stroke-linejoin:miter;stroke-opacity:1;"/>
<path d="M 73.9,118.6 L 74.4,120.5 L 73.9,121.0" style="fill:none;stroke:#000000;stroke-width:2.0px;stroke-linecap:butt;stroke-linejoin:miter;stroke-opacity:1;"/>
<path d="M 155.0,73.6 L 156.4,72.2 L 156.2,71.5" style="fill:none;stroke:#000000;stroke-width:2.0px;stroke-linecap:butt;stroke-linejoin:miter;stroke-opacity:1;"/>
<path d="M 204.1,152.3 L 204.6,154.2 L 204.1,154.7" style="fill:none;stroke:#000000;stroke-width:2.0px;stroke-linecap:butt;stroke-linejoin:miter;stroke-opacity:1;"/>
<path d="M 205.7,59.6 L 203.8,59.1 L 203.6,58.4" style="fill:none;stroke:#000000;stroke-width:2.0px;stroke-linecap:butt;stroke-linejoin:miter;stroke-opacity:1;"/>
<path class="atom-2" d="M 284.2 116.0 Q 284.2 113.4, 285.5 111.9 Q 286.8 110.4, 289.3 110.4 Q 291.7 110.4, 293.0 111.9 Q 294.3 113.4, 294.3 116.0 Q 294.3 118.7, 293.0 120.2 Q 291.7 121.7, 289.3 121.7 Q 286.9 121.7, 285.5 120.2 Q 284.2 118.7, 284.2 116.0 M 289.3 120.5 Q 291.0 120.5, 291.9 119.4 Q 292.8 118.2, 292.8 116.0 Q 292.8 113.9, 291.9 112.8 Q 291.0 111.7, 289.3 111.7 Q 287.6 111.7, 286.7 112.8 Q 285.8 113.9, 285.8 116.0 Q 285.8 118.2, 286.7 119.4 Q 287.6 120.5, 289.3 120.5 " fill="#FF0000"/>
<path class="atom-2" d="M 296.0 110.6 L 297.5 110.6 L 297.5 115.2 L 303.2 115.2 L 303.2 110.6 L 304.6 110.6 L 304.6 121.6 L 303.2 121.6 L 303.2 116.5 L 297.5 116.5 L 297.5 121.6 L 296.0 121.6 L 296.0 110.6 " fill="#FF0000"/>
<path class="atom-8" d="M 133.9 55.4 L 135.4 55.4 L 135.4 60.1 L 141.0 60.1 L 141.0 55.4 L 142.5 55.4 L 142.5 66.4 L 141.0 66.4 L 141.0 61.3 L 135.4 61.3 L 135.4 66.4 L 133.9 66.4 L 133.9 55.4 " fill="#FF0000"/>
<path class="atom-8" d="M 144.7 60.9 Q 144.7 58.2, 146.0 56.8 Q 147.3 55.3, 149.8 55.3 Q 152.2 55.3, 153.5 56.8 Q 154.8 58.2, 154.8 60.9 Q 154.8 63.5, 153.5 65.1 Q 152.2 66.6, 149.8 66.6 Q 147.3 66.6, 146.0 65.1 Q 144.7 63.6, 144.7 60.9 M 149.8 65.3 Q 151.4 65.3, 152.3 64.2 Q 153.3 63.1, 153.3 60.9 Q 153.3 58.7, 152.3 57.6 Q 151.4 56.5, 149.8 56.5 Q 148.1 56.5, 147.2 57.6 Q 146.3 58.7, 146.3 60.9 Q 146.3 63.1, 147.2 64.2 Q 148.1 65.3, 149.8 65.3 " fill="#FF0000"/>
<path class="atom-12" d="M 107.2 165.0 Q 107.2 162.4, 108.5 160.9 Q 109.8 159.4, 112.3 159.4 Q 114.7 159.4, 116.0 160.9 Q 117.3 162.4, 117.3 165.0 Q 117.3 167.7, 116.0 169.2 Q 114.7 170.7, 112.3 170.7 Q 109.9 170.7, 108.5 169.2 Q 107.2 167.7, 107.2 165.0 M 112.3 169.5 Q 114.0 169.5, 114.9 168.4 Q 115.8 167.2, 115.8 165.0 Q 115.8 162.9, 114.9 161.8 Q 114.0 160.7, 112.3 160.7 Q 110.6 160.7, 109.7 161.8 Q 108.8 162.8, 108.8 165.0 Q 108.8 167.2, 109.7 168.4 Q 110.6 169.5, 112.3 169.5 " fill="#FF0000"/>
<path class="atom-12" d="M 119.0 159.6 L 120.5 159.6 L 120.5 164.2 L 126.2 164.2 L 126.2 159.6 L 127.6 159.6 L 127.6 170.5 L 126.2 170.5 L 126.2 165.5 L 120.5 165.5 L 120.5 170.5 L 119.0 170.5 L 119.0 159.6 " fill="#FF0000"/>
<path class="atom-17" d="M 87.5 130.3 Q 87.5 127.7, 88.8 126.2 Q 90.1 124.8, 92.5 124.8 Q 95.0 124.8, 96.3 126.2 Q 97.6 127.7, 97.6 130.3 Q 97.6 133.0, 96.3 134.5 Q 95.0 136.0, 92.5 136.0 Q 90.1 136.0, 88.8 134.5 Q 87.5 133.0, 87.5 130.3 M 92.5 134.8 Q 94.2 134.8, 95.1 133.7 Q 96.0 132.5, 96.0 130.3 Q 96.0 128.2, 95.1 127.1 Q 94.2 126.0, 92.5 126.0 Q 90.9 126.0, 90.0 127.1 Q 89.1 128.2, 89.1 130.3 Q 89.1 132.6, 90.0 133.7 Q 90.9 134.8, 92.5 134.8 " fill="#FF0000"/>
<path class="atom-18" d="M 31.3 142.7 L 32.8 142.7 L 32.8 147.4 L 38.4 147.4 L 38.4 142.7 L 39.9 142.7 L 39.9 153.7 L 38.4 153.7 L 38.4 148.6 L 32.8 148.6 L 32.8 153.7 L 31.3 153.7 L 31.3 142.7 " fill="#FF0000"/>
<path class="atom-18" d="M 42.2 148.2 Q 42.2 145.5, 43.5 144.0 Q 44.8 142.6, 47.2 142.6 Q 49.6 142.6, 51.0 144.0 Q 52.3 145.5, 52.3 148.2 Q 52.3 150.8, 50.9 152.3 Q 49.6 153.9, 47.2 153.9 Q 44.8 153.9, 43.5 152.3 Q 42.2 150.8, 42.2 148.2 M 47.2 152.6 Q 48.9 152.6, 49.8 151.5 Q 50.7 150.4, 50.7 148.2 Q 50.7 146.0, 49.8 144.9 Q 48.9 143.8, 47.2 143.8 Q 45.5 143.8, 44.6 144.9 Q 43.7 146.0, 43.7 148.2 Q 43.7 150.4, 44.6 151.5 Q 45.5 152.6, 47.2 152.6 " fill="#FF0000"/>
<path class="atom-21" d="M 75.9 18.0 Q 75.9 15.4, 77.2 13.9 Q 78.5 12.4, 80.9 12.4 Q 83.4 12.4, 84.7 13.9 Q 86.0 15.4, 86.0 18.0 Q 86.0 20.7, 84.7 22.2 Q 83.3 23.7, 80.9 23.7 Q 78.5 23.7, 77.2 22.2 Q 75.9 20.7, 75.9 18.0 M 80.9 22.5 Q 82.6 22.5, 83.5 21.3 Q 84.4 20.2, 84.4 18.0 Q 84.4 15.9, 83.5 14.8 Q 82.6 13.7, 80.9 13.7 Q 79.3 13.7, 78.3 14.7 Q 77.4 15.8, 77.4 18.0 Q 77.4 20.2, 78.3 21.3 Q 79.3 22.5, 80.9 22.5 " fill="#FF0000"/>
<path class="atom-21" d="M 87.7 12.5 L 89.2 12.5 L 89.2 17.2 L 94.8 17.2 L 94.8 12.5 L 96.3 12.5 L 96.3 23.5 L 94.8 23.5 L 94.8 18.5 L 89.2 18.5 L 89.2 23.5 L 87.7 23.5 L 87.7 12.5 " fill="#FF0000"/>
<path class="atom-23" d="M 189.8 77.4 Q 189.8 74.7, 191.1 73.2 Q 192.4 71.8, 194.8 71.8 Q 197.3 71.8, 198.6 73.2 Q 199.9 74.7, 199.9 77.4 Q 199.9 80.0, 198.6 81.6 Q 197.2 83.1, 194.8 83.1 Q 192.4 83.1, 191.1 81.6 Q 189.8 80.0, 189.8 77.4 M 194.8 81.8 Q 196.5 81.8, 197.4 80.7 Q 198.3 79.6, 198.3 77.4 Q 198.3 75.2, 197.4 74.1 Q 196.5 73.0, 194.8 73.0 Q 193.2 73.0, 192.2 74.1 Q 191.3 75.2, 191.3 77.4 Q 191.3 79.6, 192.2 80.7 Q 193.2 81.8, 194.8 81.8 " fill="#FF0000"/>
<path class="atom-24" d="M 141.0 34.9 Q 141.0 32.2, 142.3 30.8 Q 143.6 29.3, 146.0 29.3 Q 148.4 29.3, 149.8 30.8 Q 151.1 32.2, 151.1 34.9 Q 151.1 37.5, 149.7 39.1 Q 148.4 40.6, 146.0 40.6 Q 143.6 40.6, 142.3 39.1 Q 141.0 37.6, 141.0 34.9 M 146.0 39.3 Q 147.7 39.3, 148.6 38.2 Q 149.5 37.1, 149.5 34.9 Q 149.5 32.7, 148.6 31.6 Q 147.7 30.5, 146.0 30.5 Q 144.3 30.5, 143.4 31.6 Q 142.5 32.7, 142.5 34.9 Q 142.5 37.1, 143.4 38.2 Q 144.3 39.3, 146.0 39.3 " fill="#FF0000"/>
<path class="atom-24" d="M 152.8 29.4 L 154.3 29.4 L 154.3 34.1 L 159.9 34.1 L 159.9 29.4 L 161.4 29.4 L 161.4 40.4 L 159.9 40.4 L 159.9 35.3 L 154.3 35.3 L 154.3 40.4 L 152.8 40.4 L 152.8 29.4 " fill="#FF0000"/>
<path class="atom-26" d="M 237.1 164.0 Q 237.1 161.3, 238.4 159.8 Q 239.7 158.4, 242.1 158.4 Q 244.6 158.4, 245.9 159.8 Q 247.2 161.3, 247.2 164.0 Q 247.2 166.6, 245.9 168.1 Q 244.6 169.6, 242.1 169.6 Q 239.7 169.6, 238.4 168.1 Q 237.1 166.6, 237.1 164.0 M 242.1 168.4 Q 243.8 168.4, 244.7 167.3 Q 245.6 166.2, 245.6 164.0 Q 245.6 161.8, 244.7 160.7 Q 243.8 159.6, 242.1 159.6 Q 240.5 159.6, 239.6 160.7 Q 238.7 161.8, 238.7 164.0 Q 238.7 166.2, 239.6 167.3 Q 240.5 168.4, 242.1 168.4 " fill="#FF0000"/>
<path class="atom-27" d="M 161.5 176.4 L 162.9 176.4 L 162.9 181.1 L 168.6 181.1 L 168.6 176.4 L 170.1 176.4 L 170.1 187.4 L 168.6 187.4 L 168.6 182.3 L 162.9 182.3 L 162.9 187.4 L 161.5 187.4 L 161.5 176.4 " fill="#FF0000"/>
<path class="atom-27" d="M 172.3 181.9 Q 172.3 179.2, 173.6 177.8 Q 174.9 176.3, 177.4 176.3 Q 179.8 176.3, 181.1 177.8 Q 182.4 179.2, 182.4 181.9 Q 182.4 184.6, 181.1 186.1 Q 179.8 187.6, 177.4 187.6 Q 174.9 187.6, 173.6 186.1 Q 172.3 184.6, 172.3 181.9 M 177.4 186.3 Q 179.0 186.3, 179.9 185.2 Q 180.9 184.1, 180.9 181.9 Q 180.9 179.7, 179.9 178.6 Q 179.0 177.5, 177.4 177.5 Q 175.7 177.5, 174.8 178.6 Q 173.9 179.7, 173.9 181.9 Q 173.9 184.1, 174.8 185.2 Q 175.7 186.3, 177.4 186.3 " fill="#FF0000"/>
<path class="atom-29" d="M 168.4 83.3 Q 168.4 80.7, 169.7 79.2 Q 171.0 77.7, 173.4 77.7 Q 175.8 77.7, 177.1 79.2 Q 178.5 80.7, 178.5 83.3 Q 178.5 86.0, 177.1 87.5 Q 175.8 89.0, 173.4 89.0 Q 171.0 89.0, 169.7 87.5 Q 168.4 86.0, 168.4 83.3 M 173.4 87.7 Q 175.1 87.7, 176.0 86.6 Q 176.9 85.5, 176.9 83.3 Q 176.9 81.1, 176.0 80.0 Q 175.1 78.9, 173.4 78.9 Q 171.7 78.9, 170.8 80.0 Q 169.9 81.1, 169.9 83.3 Q 169.9 85.5, 170.8 86.6 Q 171.7 87.7, 173.4 87.7 " fill="#FF0000"/>
<path class="atom-30" d="M 188.4 21.7 Q 188.4 19.1, 189.7 17.6 Q 191.0 16.2, 193.4 16.2 Q 195.9 16.2, 197.2 17.6 Q 198.5 19.1, 198.5 21.7 Q 198.5 24.4, 197.2 25.9 Q 195.8 27.4, 193.4 27.4 Q 191.0 27.4, 189.7 25.9 Q 188.4 24.4, 188.4 21.7 M 193.4 26.2 Q 195.1 26.2, 196.0 25.1 Q 196.9 23.9, 196.9 21.7 Q 196.9 19.6, 196.0 18.5 Q 195.1 17.4, 193.4 17.4 Q 191.8 17.4, 190.8 18.5 Q 189.9 19.6, 189.9 21.7 Q 189.9 24.0, 190.8 25.1 Q 191.8 26.2, 193.4 26.2 " fill="#FF0000"/>
<path class="atom-30" d="M 200.2 16.3 L 201.7 16.3 L 201.7 21.0 L 207.3 21.0 L 207.3 16.3 L 208.8 16.3 L 208.8 27.3 L 207.3 27.3 L 207.3 22.2 L 201.7 22.2 L 201.7 27.3 L 200.2 27.3 L 200.2 16.3 " fill="#FF0000"/>
</svg>
