<?xml version='1.0' encoding='ASCII' standalone='yes'?>
<svg xmlns="http://www.w3.org/2000/svg" xmlns:rdkit="http://www.rdkit.org/xml" xmlns:xlink="http://www.w3.org/1999/xlink" version="1.1" baseProfile="full" xml:space="preserve" width="343px" height="200px" viewBox="0 0 343 200">
<!-- END OF HEADER -->
<rect style="opacity:1.0;fill:#FFFFFF;stroke:none" width="343.0" height="200.0" x="0.0" y="0.0"> </rect>
<path class="bond-0 atom-0 atom-1" d="M 38.0,77.3 L 65.3,72.4" style="fill:none;fill-rule:evenodd;stroke:#000000;stroke-width:2.0px;stroke-linecap:butt;stroke-linejoin:miter;stroke-opacity:1"/>
<path class="bond-1 atom-1 atom-2" d="M 65.3,72.4 L 69.1,61.8" style="fill:none;fill-rule:evenodd;stroke:#000000;stroke-width:2.0px;stroke-linecap:butt;stroke-linejoin:miter;stroke-opacity:1"/>
<path class="bond-1 atom-1 atom-2" d="M 69.1,61.8 L 72.9,51.2" style="fill:none;fill-rule:evenodd;stroke:#FF0000;stroke-width:2.0px;stroke-linecap:butt;stroke-linejoin:miter;stroke-opacity:1"/>
<path class="bond-2 atom-1 atom-3" d="M 65.3,72.4 L 83.2,93.6" style="fill:none;fill-rule:evenodd;stroke:#000000;stroke-width:2.0px;stroke-linecap:butt;stroke-linejoin:miter;stroke-opacity:1"/>
<path class="bond-3 atom-3 atom-4" d="M 83.2,93.6 L 62.0,111.5" style="fill:none;fill-rule:evenodd;stroke:#000000;stroke-width:2.0px;stroke-linecap:butt;stroke-linejoin:miter;stroke-opacity:1"/>
<path class="bond-4 atom-3 atom-5" d="M 83.2,93.6 L 104.4,75.7" style="fill:none;fill-rule:evenodd;stroke:#000000;stroke-width:2.0px;stroke-linecap:butt;stroke-linejoin:miter;stroke-opacity:1"/>
<path class="bond-5 atom-5 atom-6" d="M 104.4,75.7 L 130.6,85.1" style="fill:none;fill-rule:evenodd;stroke:#000000;stroke-width:2.0px;stroke-linecap:butt;stroke-linejoin:miter;stroke-opacity:1"/>
<path class="bond-6 atom-6 atom-7" d="M 130.6,85.1 L 126.9,101.1" style="fill:none;fill-rule:evenodd;stroke:#000000;stroke-width:2.0px;stroke-linecap:butt;stroke-linejoin:miter;stroke-opacity:1"/>
<path class="bond-7 atom-6 atom-8" d="M 130.6,85.1 L 135.0,65.3" style="fill:none;fill-rule:evenodd;stroke:#000000;stroke-width:2.0px;stroke-linecap:butt;stroke-linejoin:miter;stroke-opacity:1"/>
<path class="bond-8 atom-6 atom-9" d="M 130.6,85.1 L 156.7,94.5" style="fill:none;fill-rule:evenodd;stroke:#000000;stroke-width:2.0px;stroke-linecap:butt;stroke-linejoin:miter;stroke-opacity:1"/>
<path class="bond-9 atom-9 atom-10" d="M 156.7,94.5 L 152.9,105.1" style="fill:none;fill-rule:evenodd;stroke:#000000;stroke-width:2.0px;stroke-linecap:butt;stroke-linejoin:miter;stroke-opacity:1"/>
<path class="bond-9 atom-9 atom-10" d="M 152.9,105.1 L 149.0,115.8" style="fill:none;fill-rule:evenodd;stroke:#FF0000;stroke-width:2.0px;stroke-linecap:butt;stroke-linejoin:miter;stroke-opacity:1"/>
<path class="bond-10 atom-9 atom-11" d="M 156.7,94.5 L 182.8,103.9" style="fill:none;fill-rule:evenodd;stroke:#000000;stroke-width:2.0px;stroke-linecap:butt;stroke-linejoin:miter;stroke-opacity:1"/>
<path class="bond-11 atom-11 atom-12" d="M 182.8,103.9 L 191.9,85.8" style="fill:none;fill-rule:evenodd;stroke:#000000;stroke-width:2.0px;stroke-linecap:butt;stroke-linejoin:miter;stroke-opacity:1"/>
<path class="bond-12 atom-11 atom-13" d="M 182.8,103.9 L 173.4,130.0" style="fill:none;fill-rule:evenodd;stroke:#000000;stroke-width:2.0px;stroke-linecap:butt;stroke-linejoin:miter;stroke-opacity:1"/>
<path class="bond-13 atom-11 atom-14" d="M 182.8,103.9 L 208.9,113.3" style="fill:none;fill-rule:evenodd;stroke:#000000;stroke-width:2.0px;stroke-linecap:butt;stroke-linejoin:miter;stroke-opacity:1"/>
<path class="bond-14 atom-14 atom-15" d="M 208.9,113.3 L 213.8,140.6" style="fill:none;fill-rule:evenodd;stroke:#000000;stroke-width:2.0px;stroke-linecap:butt;stroke-linejoin:miter;stroke-opacity:1"/>
<path class="bond-15 atom-15 atom-16" d="M 213.8,140.6 L 240.0,150.1" style="fill:none;fill-rule:evenodd;stroke:#000000;stroke-width:2.0px;stroke-linecap:butt;stroke-linejoin:miter;stroke-opacity:1"/>
<path class="bond-16 atom-16 atom-17" d="M 240.0,150.1 L 242.0,161.3" style="fill:none;fill-rule:evenodd;stroke:#000000;stroke-width:2.0px;stroke-linecap:butt;stroke-linejoin:miter;stroke-opacity:1"/>
<path class="bond-16 atom-16 atom-17" d="M 242.0,161.3 L 244.0,172.5" style="fill:none;fill-rule:evenodd;stroke:#FF0000;stroke-width:2.0px;stroke-linecap:butt;stroke-linejoin:miter;stroke-opacity:1"/>
<path class="bond-17 atom-15 atom-18" d="M 213.8,140.6 L 192.6,158.6" style="fill:none;fill-rule:evenodd;stroke:#000000;stroke-width:2.0px;stroke-linecap:butt;stroke-linejoin:miter;stroke-opacity:1"/>
<path class="bond-18 atom-18 atom-19" d="M 194.4,157.1 L 183.0,153.0" style="fill:none;fill-rule:evenodd;stroke:#000000;stroke-width:2.0px;stroke-linecap:butt;stroke-linejoin:miter;stroke-opacity:1"/>
<path class="bond-18 atom-18 atom-19" d="M 183.0,153.0 L 171.7,148.9" style="fill:none;fill-rule:evenodd;stroke:#FF0000;stroke-width:2.0px;stroke-linecap:butt;stroke-linejoin:miter;stroke-opacity:1"/>
<path class="bond-18 atom-18 atom-19" d="M 193.0,160.8 L 181.7,156.7" style="fill:none;fill-rule:evenodd;stroke:#000000;stroke-width:2.0px;stroke-linecap:butt;stroke-linejoin:miter;stroke-opacity:1"/>
<path class="bond-18 atom-18 atom-19" d="M 181.7,156.7 L 170.3,152.6" style="fill:none;fill-rule:evenodd;stroke:#FF0000;stroke-width:2.0px;stroke-linecap:butt;stroke-linejoin:miter;stroke-opacity:1"/>
<path class="bond-19 atom-18 atom-20" d="M 192.6,158.6 L 194.7,169.8" style="fill:none;fill-rule:evenodd;stroke:#000000;stroke-width:2.0px;stroke-linecap:butt;stroke-linejoin:miter;stroke-opacity:1"/>
<path class="bond-19 atom-18 atom-20" d="M 194.7,169.8 L 196.7,181.1" style="fill:none;fill-rule:evenodd;stroke:#FF0000;stroke-width:2.0px;stroke-linecap:butt;stroke-linejoin:miter;stroke-opacity:1"/>
<path class="bond-20 atom-9 atom-21" d="M 156.7,94.5 L 166.1,68.4" style="fill:none;fill-rule:evenodd;stroke:#000000;stroke-width:2.0px;stroke-linecap:butt;stroke-linejoin:miter;stroke-opacity:1"/>
<path class="bond-21 atom-21 atom-22" d="M 166.1,68.4 L 148.0,59.2" style="fill:none;fill-rule:evenodd;stroke:#000000;stroke-width:2.0px;stroke-linecap:butt;stroke-linejoin:miter;stroke-opacity:1"/>
<path class="bond-22 atom-21 atom-23" d="M 166.1,68.4 L 185.8,72.9" style="fill:none;fill-rule:evenodd;stroke:#000000;stroke-width:2.0px;stroke-linecap:butt;stroke-linejoin:miter;stroke-opacity:1"/>
<path class="bond-23 atom-21 atom-24" d="M 166.1,68.4 L 175.5,42.2" style="fill:none;fill-rule:evenodd;stroke:#000000;stroke-width:2.0px;stroke-linecap:butt;stroke-linejoin:miter;stroke-opacity:1"/>
<path class="bond-24 atom-24 atom-25" d="M 175.5,42.2 L 168.6,34.1" style="fill:none;fill-rule:evenodd;stroke:#000000;stroke-width:2.0px;stroke-linecap:butt;stroke-linejoin:miter;stroke-opacity:1"/>
<path class="bond-24 atom-24 atom-25" d="M 168.6,34.1 L 161.8,26.0" style="fill:none;fill-rule:evenodd;stroke:#FF0000;stroke-width:2.0px;stroke-linecap:butt;stroke-linejoin:miter;stroke-opacity:1"/>
<path class="bond-25 atom-24 atom-26" d="M 175.5,42.2 L 202.8,37.3" style="fill:none;fill-rule:evenodd;stroke:#000000;stroke-width:2.0px;stroke-linecap:butt;stroke-linejoin:miter;stroke-opacity:1"/>
<path class="bond-26 atom-26 atom-27" d="M 202.8,37.3 L 197.9,10.0" style="fill:none;fill-rule:evenodd;stroke:#000000;stroke-width:2.0px;stroke-linecap:butt;stroke-linejoin:miter;stroke-opacity:1"/>
<path class="bond-27 atom-26 atom-28" d="M 202.8,37.3 L 207.8,64.7" style="fill:none;fill-rule:evenodd;stroke:#000000;stroke-width:2.0px;stroke-linecap:butt;stroke-linejoin:miter;stroke-opacity:1"/>
<path class="bond-28 atom-26 atom-29" d="M 202.8,37.3 L 230.2,32.4" style="fill:none;fill-rule:evenodd;stroke:#000000;stroke-width:2.0px;stroke-linecap:butt;stroke-linejoin:miter;stroke-opacity:1"/>
<path class="bond-29 atom-29 atom-30" d="M 230.2,32.4 L 248.1,53.6" style="fill:none;fill-rule:evenodd;stroke:#000000;stroke-width:2.0px;stroke-linecap:butt;stroke-linejoin:miter;stroke-opacity:1"/>
<path class="bond-30 atom-30 atom-31" d="M 248.1,53.6 L 275.4,48.7" style="fill:none;fill-rule:evenodd;stroke:#000000;stroke-width:2.0px;stroke-linecap:butt;stroke-linejoin:miter;stroke-opacity:1"/>
<path class="bond-31 atom-31 atom-32" d="M 275.4,48.7 L 282.3,56.9" style="fill:none;fill-rule:evenodd;stroke:#000000;stroke-width:2.0px;stroke-linecap:butt;stroke-linejoin:miter;stroke-opacity:1"/>
<path class="bond-31 atom-31 atom-32" d="M 282.3,56.9 L 289.2,65.1" style="fill:none;fill-rule:evenodd;stroke:#FF0000;stroke-width:2.0px;stroke-linecap:butt;stroke-linejoin:miter;stroke-opacity:1"/>
<path class="bond-32 atom-30 atom-33" d="M 248.1,53.6 L 238.7,79.8" style="fill:none;fill-rule:evenodd;stroke:#000000;stroke-width:2.0px;stroke-linecap:butt;stroke-linejoin:miter;stroke-opacity:1"/>
<path class="bond-33 atom-33 atom-34" d="M 239.5,77.6 L 227.5,79.8" style="fill:none;fill-rule:evenodd;stroke:#000000;stroke-width:2.0px;stroke-linecap:butt;stroke-linejoin:miter;stroke-opacity:1"/>
<path class="bond-33 atom-33 atom-34" d="M 227.5,79.8 L 215.5,81.9" style="fill:none;fill-rule:evenodd;stroke:#FF0000;stroke-width:2.0px;stroke-linecap:butt;stroke-linejoin:miter;stroke-opacity:1"/>
<path class="bond-33 atom-33 atom-34" d="M 240.2,81.5 L 228.2,83.7" style="fill:none;fill-rule:evenodd;stroke:#000000;stroke-width:2.0px;stroke-linecap:butt;stroke-linejoin:miter;stroke-opacity:1"/>
<path class="bond-33 atom-33 atom-34" d="M 228.2,83.7 L 216.2,85.8" style="fill:none;fill-rule:evenodd;stroke:#FF0000;stroke-width:2.0px;stroke-linecap:butt;stroke-linejoin:miter;stroke-opacity:1"/>
<path class="bond-34 atom-33 atom-35" d="M 238.7,79.8 L 245.6,87.9" style="fill:none;fill-rule:evenodd;stroke:#000000;stroke-width:2.0px;stroke-linecap:butt;stroke-linejoin:miter;stroke-opacity:1"/>
<path class="bond-34 atom-33 atom-35" d="M 245.6,87.9 L 252.5,96.1" style="fill:none;fill-rule:evenodd;stroke:#FF0000;stroke-width:2.0px;stroke-linecap:butt;stroke-linejoin:miter;stroke-opacity:1"/>
<path class="bond-35 atom-3 atom-36" d="M 83.2,93.6 L 101.1,114.8" style="fill:none;fill-rule:evenodd;stroke:#000000;stroke-width:2.0px;stroke-linecap:butt;stroke-linejoin:miter;stroke-opacity:1"/>
<path class="bond-36 atom-36 atom-37" d="M 100.4,116.8 L 106.8,116.5" style="fill:none;fill-rule:evenodd;stroke:#000000;stroke-width:2.0px;stroke-linecap:butt;stroke-linejoin:miter;stroke-opacity:1"/>
<path class="bond-36 atom-36 atom-37" d="M 106.8,116.5 L 113.1,116.1" style="fill:none;fill-rule:evenodd;stroke:#FF0000;stroke-width:2.0px;stroke-linecap:butt;stroke-linejoin:miter;stroke-opacity:1"/>
<path class="bond-36 atom-36 atom-37" d="M 99.5,112.9 L 106.6,112.5" style="fill:none;fill-rule:evenodd;stroke:#000000;stroke-width:2.0px;stroke-linecap:butt;stroke-linejoin:miter;stroke-opacity:1"/>
<path class="bond-36 atom-36 atom-37" d="M 106.6,112.5 L 112.9,112.2" style="fill:none;fill-rule:evenodd;stroke:#FF0000;stroke-width:2.0px;stroke-linecap:butt;stroke-linejoin:miter;stroke-opacity:1"/>
<path class="bond-37 atom-36 atom-38" d="M 101.1,114.8 L 97.3,125.4" style="fill:none;fill-rule:evenodd;stroke:#000000;stroke-width:2.0px;stroke-linecap:butt;stroke-linejoin:miter;stroke-opacity:1"/>
<path class="bond-37 atom-36 atom-38" d="M 97.3,125.4 L 93.5,136.1" style="fill:none;fill-rule:evenodd;stroke:#FF0000;stroke-width:2.0px;stroke-linecap:butt;stroke-linejoin:miter;stroke-opacity:1"/>
<path d="M 103.4,76.6 L 104.4,75.7 L 105.7,76.1" style="fill:none;stroke:#000000;stroke-width:2.0px;stroke-linecap:butt;stroke-linejoin:miter;stroke-opacity:1;"/>
<path d="M 207.6,112.8 L 208.9,113.3 L 209.2,114.7" style="fill:none;stroke:#000000;stroke-width:2.0px;stroke-linecap:butt;stroke-linejoin:miter;stroke-opacity:1;"/>
<path d="M 238.7,149.6 L 240.0,150.1 L 240.1,150.6" style="fill:none;stroke:#000000;stroke-width:2.0px;stroke-linecap:butt;stroke-linejoin:miter;stroke-opacity:1;"/>
<path d="M 193.7,157.7 L 192.6,158.6 L 192.7,159.1" style="fill:none;stroke:#000000;stroke-width:2.0px;stroke-linecap:butt;stroke-linejoin:miter;stroke-opacity:1;"/>
<path d="M 228.8,32.7 L 230.2,32.4 L 231.1,33.5" style="fill:none;stroke:#000000;stroke-width:2.0px;stroke-linecap:butt;stroke-linejoin:miter;stroke-opacity:1;"/>
<path d="M 274.1,49.0 L 275.4,48.7 L 275.8,49.1" style="fill:none;stroke:#000000;stroke-width:2.0px;stroke-linecap:butt;stroke-linejoin:miter;stroke-opacity:1;"/>
<path d="M 239.2,78.5 L 238.7,79.8 L 239.0,80.2" style="fill:none;stroke:#000000;stroke-width:2.0px;stroke-linecap:butt;stroke-linejoin:miter;stroke-opacity:1;"/>
<path d="M 100.2,113.7 L 101.1,114.8 L 100.9,115.3" style="fill:none;stroke:#000000;stroke-width:2.0px;stroke-linecap:butt;stroke-linejoin:miter;stroke-opacity:1;"/>
<path class="atom-2" d="M 71.1 46.3 Q 71.1 44.4, 72.0 43.3 Q 73.0 42.3, 74.7 42.3 Q 76.5 42.3, 77.4 43.3 Q 78.3 44.4, 78.3 46.3 Q 78.3 48.2, 77.4 49.3 Q 76.4 50.4, 74.7 50.4 Q 73.0 50.4, 72.0 49.3 Q 71.1 48.2, 71.1 46.3 M 74.7 49.5 Q 75.9 49.5, 76.6 48.7 Q 77.2 47.9, 77.2 46.3 Q 77.2 44.7, 76.6 44.0 Q 75.9 43.2, 74.7 43.2 Q 73.5 43.2, 72.9 43.9 Q 72.2 44.7, 72.2 46.3 Q 72.2 47.9, 72.9 48.7 Q 73.5 49.5, 74.7 49.5 " fill="#FF0000"/>
<path class="atom-2" d="M 79.5 42.4 L 80.6 42.4 L 80.6 45.7 L 84.6 45.7 L 84.6 42.4 L 85.7 42.4 L 85.7 50.2 L 84.6 50.2 L 84.6 46.6 L 80.6 46.6 L 80.6 50.2 L 79.5 50.2 L 79.5 42.4 " fill="#FF0000"/>
<path class="atom-10" d="M 143.7 120.6 Q 143.7 118.8, 144.6 117.7 Q 145.5 116.6, 147.3 116.6 Q 149.0 116.6, 150.0 117.7 Q 150.9 118.8, 150.9 120.6 Q 150.9 122.6, 149.9 123.6 Q 149.0 124.7, 147.3 124.7 Q 145.5 124.7, 144.6 123.6 Q 143.7 122.6, 143.7 120.6 M 147.3 123.8 Q 148.5 123.8, 149.1 123.0 Q 149.8 122.2, 149.8 120.6 Q 149.8 119.1, 149.1 118.3 Q 148.5 117.5, 147.3 117.5 Q 146.1 117.5, 145.4 118.3 Q 144.8 119.1, 144.8 120.6 Q 144.8 122.2, 145.4 123.0 Q 146.1 123.8, 147.3 123.8 " fill="#FF0000"/>
<path class="atom-10" d="M 152.1 116.7 L 153.2 116.7 L 153.2 120.1 L 157.2 120.1 L 157.2 116.7 L 158.3 116.7 L 158.3 124.6 L 157.2 124.6 L 157.2 121.0 L 153.2 121.0 L 153.2 124.6 L 152.1 124.6 L 152.1 116.7 " fill="#FF0000"/>
<path class="atom-17" d="M 241.3 177.4 Q 241.3 175.5, 242.2 174.5 Q 243.1 173.4, 244.9 173.4 Q 246.6 173.4, 247.6 174.5 Q 248.5 175.5, 248.5 177.4 Q 248.5 179.3, 247.6 180.4 Q 246.6 181.5, 244.9 181.5 Q 243.2 181.5, 242.2 180.4 Q 241.3 179.3, 241.3 177.4 M 244.9 180.6 Q 246.1 180.6, 246.7 179.8 Q 247.4 179.0, 247.4 177.4 Q 247.4 175.9, 246.7 175.1 Q 246.1 174.3, 244.9 174.3 Q 243.7 174.3, 243.0 175.1 Q 242.4 175.9, 242.4 177.4 Q 242.4 179.0, 243.0 179.8 Q 243.7 180.6, 244.9 180.6 " fill="#FF0000"/>
<path class="atom-17" d="M 249.7 173.5 L 250.8 173.5 L 250.8 176.8 L 254.8 176.8 L 254.8 173.5 L 255.9 173.5 L 255.9 181.4 L 254.8 181.4 L 254.8 177.7 L 250.8 177.7 L 250.8 181.4 L 249.7 181.4 L 249.7 173.5 " fill="#FF0000"/>
<path class="atom-19" d="M 162.9 149.2 Q 162.9 147.3, 163.8 146.2 Q 164.8 145.2, 166.5 145.2 Q 168.3 145.2, 169.2 146.2 Q 170.1 147.3, 170.1 149.2 Q 170.1 151.1, 169.2 152.2 Q 168.2 153.3, 166.5 153.3 Q 164.8 153.3, 163.8 152.2 Q 162.9 151.1, 162.9 149.2 M 166.5 152.4 Q 167.7 152.4, 168.4 151.6 Q 169.0 150.8, 169.0 149.2 Q 169.0 147.6, 168.4 146.9 Q 167.7 146.1, 166.5 146.1 Q 165.3 146.1, 164.7 146.8 Q 164.0 147.6, 164.0 149.2 Q 164.0 150.8, 164.7 151.6 Q 165.3 152.4, 166.5 152.4 " fill="#FF0000"/>
<path class="atom-20" d="M 193.9 185.9 Q 193.9 184.0, 194.9 183.0 Q 195.8 181.9, 197.5 181.9 Q 199.3 181.9, 200.2 183.0 Q 201.2 184.0, 201.2 185.9 Q 201.2 187.8, 200.2 188.9 Q 199.3 190.0, 197.5 190.0 Q 195.8 190.0, 194.9 188.9 Q 193.9 187.8, 193.9 185.9 M 197.5 189.1 Q 198.7 189.1, 199.4 188.3 Q 200.0 187.5, 200.0 185.9 Q 200.0 184.4, 199.4 183.6 Q 198.7 182.8, 197.5 182.8 Q 196.3 182.8, 195.7 183.6 Q 195.0 184.4, 195.0 185.9 Q 195.0 187.5, 195.7 188.3 Q 196.3 189.1, 197.5 189.1 " fill="#FF0000"/>
<path class="atom-20" d="M 202.4 182.0 L 203.4 182.0 L 203.4 185.4 L 207.5 185.4 L 207.5 182.0 L 208.5 182.0 L 208.5 189.9 L 207.5 189.9 L 207.5 186.2 L 203.4 186.2 L 203.4 189.9 L 202.4 189.9 L 202.4 182.0 " fill="#FF0000"/>
<path class="atom-25" d="M 146.2 17.1 L 147.3 17.1 L 147.3 20.5 L 151.3 20.5 L 151.3 17.1 L 152.4 17.1 L 152.4 25.0 L 151.3 25.0 L 151.3 21.4 L 147.3 21.4 L 147.3 25.0 L 146.2 25.0 L 146.2 17.1 " fill="#FF0000"/>
<path class="atom-25" d="M 154.0 21.1 Q 154.0 19.2, 154.9 18.1 Q 155.8 17.1, 157.6 17.1 Q 159.3 17.1, 160.3 18.1 Q 161.2 19.2, 161.2 21.1 Q 161.2 23.0, 160.3 24.1 Q 159.3 25.1, 157.6 25.1 Q 155.9 25.1, 154.9 24.1 Q 154.0 23.0, 154.0 21.1 M 157.6 24.2 Q 158.8 24.2, 159.4 23.4 Q 160.1 22.6, 160.1 21.1 Q 160.1 19.5, 159.4 18.7 Q 158.8 17.9, 157.6 17.9 Q 156.4 17.9, 155.7 18.7 Q 155.1 19.5, 155.1 21.1 Q 155.1 22.6, 155.7 23.4 Q 156.4 24.2, 157.6 24.2 " fill="#FF0000"/>
<path class="atom-32" d="M 289.7 70.0 Q 289.7 68.1, 290.7 67.0 Q 291.6 66.0, 293.3 66.0 Q 295.1 66.0, 296.0 67.0 Q 297.0 68.1, 297.0 70.0 Q 297.0 71.9, 296.0 73.0 Q 295.1 74.0, 293.3 74.0 Q 291.6 74.0, 290.7 73.0 Q 289.7 71.9, 289.7 70.0 M 293.3 73.1 Q 294.5 73.1, 295.2 72.3 Q 295.8 71.5, 295.8 70.0 Q 295.8 68.4, 295.2 67.6 Q 294.5 66.8, 293.3 66.8 Q 292.1 66.8, 291.5 67.6 Q 290.8 68.4, 290.8 70.0 Q 290.8 71.5, 291.5 72.3 Q 292.1 73.1, 293.3 73.1 " fill="#FF0000"/>
<path class="atom-32" d="M 298.2 66.0 L 299.2 66.0 L 299.2 69.4 L 303.3 69.4 L 303.3 66.0 L 304.3 66.0 L 304.3 73.9 L 303.3 73.9 L 303.3 70.3 L 299.2 70.3 L 299.2 73.9 L 298.2 73.9 L 298.2 66.0 " fill="#FF0000"/>
<path class="atom-34" d="M 207.7 84.7 Q 207.7 82.8, 208.7 81.7 Q 209.6 80.7, 211.3 80.7 Q 213.1 80.7, 214.0 81.7 Q 215.0 82.8, 215.0 84.7 Q 215.0 86.6, 214.0 87.7 Q 213.1 88.8, 211.3 88.8 Q 209.6 88.8, 208.7 87.7 Q 207.7 86.6, 207.7 84.7 M 211.3 87.9 Q 212.5 87.9, 213.2 87.1 Q 213.8 86.3, 213.8 84.7 Q 213.8 83.1, 213.2 82.4 Q 212.5 81.6, 211.3 81.6 Q 210.1 81.6, 209.5 82.4 Q 208.8 83.1, 208.8 84.7 Q 208.8 86.3, 209.5 87.1 Q 210.1 87.9, 211.3 87.9 " fill="#FF0000"/>
<path class="atom-35" d="M 253.0 101.0 Q 253.0 99.1, 253.9 98.1 Q 254.9 97.0, 256.6 97.0 Q 258.3 97.0, 259.3 98.1 Q 260.2 99.1, 260.2 101.0 Q 260.2 102.9, 259.3 104.0 Q 258.3 105.1, 256.6 105.1 Q 254.9 105.1, 253.9 104.0 Q 253.0 102.9, 253.0 101.0 M 256.6 104.2 Q 257.8 104.2, 258.4 103.4 Q 259.1 102.6, 259.1 101.0 Q 259.1 99.5, 258.4 98.7 Q 257.8 97.9, 256.6 97.9 Q 255.4 97.9, 254.7 98.7 Q 254.1 99.4, 254.1 101.0 Q 254.1 102.6, 254.7 103.4 Q 255.4 104.2, 256.6 104.2 " fill="#FF0000"/>
<path class="atom-35" d="M 261.4 97.1 L 262.5 97.1 L 262.5 100.4 L 266.5 100.4 L 266.5 97.1 L 267.6 97.1 L 267.6 104.9 L 266.5 104.9 L 266.5 101.3 L 262.5 101.3 L 262.5 104.9 L 261.4 104.9 L 261.4 97.1 " fill="#FF0000"/>
<path class="atom-37" d="M 113.9 113.9 Q 113.9 112.0, 114.8 111.0 Q 115.8 109.9, 117.5 109.9 Q 119.3 109.9, 120.2 111.0 Q 121.1 112.0, 121.1 113.9 Q 121.1 115.8, 120.2 116.9 Q 119.2 118.0, 117.5 118.0 Q 115.8 118.0, 114.8 116.9 Q 113.9 115.8, 113.9 113.9 M 117.5 117.1 Q 118.7 117.1, 119.4 116.3 Q 120.0 115.5, 120.0 113.9 Q 120.0 112.4, 119.4 111.6 Q 118.7 110.8, 117.5 110.8 Q 116.3 110.8, 115.7 111.6 Q 115.0 112.4, 115.0 113.9 Q 115.0 115.5, 115.7 116.3 Q 116.3 117.1, 117.5 117.1 " fill="#FF0000"/>
<path class="atom-38" d="M 88.1 141.0 Q 88.1 139.1, 89.1 138.0 Q 90.0 137.0, 91.7 137.0 Q 93.5 137.0, 94.4 138.0 Q 95.3 139.1, 95.3 141.0 Q 95.3 142.9, 94.4 144.0 Q 93.5 145.0, 91.7 145.0 Q 90.0 145.0, 89.1 144.0 Q 88.1 142.9, 88.1 141.0 M 91.7 144.1 Q 92.9 144.1, 93.6 143.3 Q 94.2 142.5, 94.2 141.0 Q 94.2 139.4, 93.6 138.6 Q 92.9 137.8, 91.7 137.8 Q 90.5 137.8, 89.9 138.6 Q 89.2 139.4, 89.2 141.0 Q 89.2 142.5, 89.9 143.3 Q 90.5 144.1, 91.7 144.1 " fill="#FF0000"/>
<path class="atom-38" d="M 96.6 137.0 L 97.6 137.0 L 97.6 140.4 L 101.7 140.4 L 101.7 137.0 L 102.7 137.0 L 102.7 144.9 L 101.7 144.9 L 101.7 141.3 L 97.6 141.3 L 97.6 144.9 L 96.6 144.9 L 96.6 137.0 " fill="#FF0000"/>
</svg>
