<?xml version='1.0' encoding='ASCII' standalone='yes'?>
<svg xmlns="http://www.w3.org/2000/svg" xmlns:rdkit="http://www.rdkit.org/xml" xmlns:xlink="http://www.w3.org/1999/xlink" version="1.1" baseProfile="full" xml:space="preserve" width="247px" height="200px" viewBox="0 0 247 200">
<!-- END OF HEADER -->
<rect style="opacity:1.0;fill:#FFFFFF;stroke:none" width="247.0" height="200.0" x="0.0" y="0.0"> </rect>
<path class="bond-0 atom-0 atom-1" d="M 174.7,164.4 L 165.4,150.3" style="fill:none;fill-rule:evenodd;stroke:#FF0000;stroke-width:2.0px;stroke-linecap:butt;stroke-linejoin:miter;stroke-opacity:1"/>
<path class="bond-0 atom-0 atom-1" d="M 165.4,150.3 L 156.2,136.2" style="fill:none;fill-rule:evenodd;stroke:#000000;stroke-width:2.0px;stroke-linecap:butt;stroke-linejoin:miter;stroke-opacity:1"/>
<path class="bond-0 atom-0 atom-1" d="M 179.7,161.1 L 170.5,147.0" style="fill:none;fill-rule:evenodd;stroke:#FF0000;stroke-width:2.0px;stroke-linecap:butt;stroke-linejoin:miter;stroke-opacity:1"/>
<path class="bond-0 atom-0 atom-1" d="M 170.5,147.0 L 161.3,132.9" style="fill:none;fill-rule:evenodd;stroke:#000000;stroke-width:2.0px;stroke-linecap:butt;stroke-linejoin:miter;stroke-opacity:1"/>
<path class="bond-1 atom-1 atom-2" d="M 159.7,136.0 L 119.3,138.3" style="fill:none;fill-rule:evenodd;stroke:#000000;stroke-width:2.0px;stroke-linecap:butt;stroke-linejoin:miter;stroke-opacity:1"/>
<path class="bond-2 atom-2 atom-3" d="M 119.3,138.3 L 97.2,104.4" style="fill:none;fill-rule:evenodd;stroke:#000000;stroke-width:2.0px;stroke-linecap:butt;stroke-linejoin:miter;stroke-opacity:1"/>
<path class="bond-3 atom-3 atom-4" d="M 97.2,104.4 L 84.2,94.8" style="fill:none;fill-rule:evenodd;stroke:#000000;stroke-width:2.0px;stroke-linecap:butt;stroke-linejoin:miter;stroke-opacity:1"/>
<path class="bond-3 atom-3 atom-4" d="M 84.2,94.8 L 71.3,85.1" style="fill:none;fill-rule:evenodd;stroke:#FF0000;stroke-width:2.0px;stroke-linecap:butt;stroke-linejoin:miter;stroke-opacity:1"/>
<path class="bond-4 atom-3 atom-5" d="M 97.2,104.4 L 67.7,132.1" style="fill:none;fill-rule:evenodd;stroke:#000000;stroke-width:2.0px;stroke-linecap:butt;stroke-linejoin:miter;stroke-opacity:1"/>
<path class="bond-5 atom-5 atom-6" d="M 67.7,132.1 L 51.6,127.3" style="fill:none;fill-rule:evenodd;stroke:#000000;stroke-width:2.0px;stroke-linecap:butt;stroke-linejoin:miter;stroke-opacity:1"/>
<path class="bond-5 atom-5 atom-6" d="M 51.6,127.3 L 35.5,122.4" style="fill:none;fill-rule:evenodd;stroke:#FF0000;stroke-width:2.0px;stroke-linecap:butt;stroke-linejoin:miter;stroke-opacity:1"/>
<path class="bond-6 atom-3 atom-7" d="M 97.2,104.4 L 115.4,68.3" style="fill:none;fill-rule:evenodd;stroke:#000000;stroke-width:2.0px;stroke-linecap:butt;stroke-linejoin:miter;stroke-opacity:1"/>
<path class="bond-7 atom-7 atom-8" d="M 115.4,68.3 L 106.7,55.0" style="fill:none;fill-rule:evenodd;stroke:#000000;stroke-width:2.0px;stroke-linecap:butt;stroke-linejoin:miter;stroke-opacity:1"/>
<path class="bond-7 atom-7 atom-8" d="M 106.7,55.0 L 98.0,41.8" style="fill:none;fill-rule:evenodd;stroke:#FF0000;stroke-width:2.0px;stroke-linecap:butt;stroke-linejoin:miter;stroke-opacity:1"/>
<path class="bond-8 atom-7 atom-9" d="M 115.4,68.3 L 155.8,66.1" style="fill:none;fill-rule:evenodd;stroke:#000000;stroke-width:2.0px;stroke-linecap:butt;stroke-linejoin:miter;stroke-opacity:1"/>
<path class="bond-9 atom-9 atom-10" d="M 155.8,66.1 L 163.1,51.7" style="fill:none;fill-rule:evenodd;stroke:#000000;stroke-width:2.0px;stroke-linecap:butt;stroke-linejoin:miter;stroke-opacity:1"/>
<path class="bond-9 atom-9 atom-10" d="M 163.1,51.7 L 170.3,37.2" style="fill:none;fill-rule:evenodd;stroke:#FF0000;stroke-width:2.0px;stroke-linecap:butt;stroke-linejoin:miter;stroke-opacity:1"/>
<path class="bond-10 atom-9 atom-11" d="M 155.8,66.1 L 177.9,99.9" style="fill:none;fill-rule:evenodd;stroke:#000000;stroke-width:2.0px;stroke-linecap:butt;stroke-linejoin:miter;stroke-opacity:1"/>
<path class="bond-11 atom-11 atom-12" d="M 177.9,99.9 L 194.8,99.0" style="fill:none;fill-rule:evenodd;stroke:#000000;stroke-width:2.0px;stroke-linecap:butt;stroke-linejoin:miter;stroke-opacity:1"/>
<path class="bond-11 atom-11 atom-12" d="M 194.8,99.0 L 211.7,98.0" style="fill:none;fill-rule:evenodd;stroke:#FF0000;stroke-width:2.0px;stroke-linecap:butt;stroke-linejoin:miter;stroke-opacity:1"/>
<path class="bond-12 atom-11 atom-1" d="M 177.9,99.9 L 159.7,136.0" style="fill:none;fill-rule:evenodd;stroke:#000000;stroke-width:2.0px;stroke-linecap:butt;stroke-linejoin:miter;stroke-opacity:1"/>
<path d="M 157.7,136.1 L 159.7,136.0 L 160.6,134.2" style="fill:none;stroke:#000000;stroke-width:2.0px;stroke-linecap:butt;stroke-linejoin:miter;stroke-opacity:1;"/>
<path d="M 121.3,138.2 L 119.3,138.3 L 118.2,136.6" style="fill:none;stroke:#000000;stroke-width:2.0px;stroke-linecap:butt;stroke-linejoin:miter;stroke-opacity:1;"/>
<path d="M 69.1,130.8 L 67.7,132.1 L 66.9,131.9" style="fill:none;stroke:#000000;stroke-width:2.0px;stroke-linecap:butt;stroke-linejoin:miter;stroke-opacity:1;"/>
<path class="atom-0" d="M 176.6 169.9 Q 176.6 167.2, 178.0 165.6 Q 179.3 164.1, 181.9 164.1 Q 184.4 164.1, 185.8 165.6 Q 187.1 167.2, 187.1 169.9 Q 187.1 172.7, 185.7 174.3 Q 184.4 175.9, 181.9 175.9 Q 179.3 175.9, 178.0 174.3 Q 176.6 172.7, 176.6 169.9 M 181.9 174.6 Q 183.6 174.6, 184.6 173.4 Q 185.5 172.2, 185.5 169.9 Q 185.5 167.7, 184.6 166.5 Q 183.6 165.4, 181.9 165.4 Q 180.1 165.4, 179.2 166.5 Q 178.2 167.6, 178.2 169.9 Q 178.2 172.2, 179.2 173.4 Q 180.1 174.6, 181.9 174.6 " fill="#FF0000"/>
<path class="atom-4" d="M 48.2 74.5 L 49.7 74.5 L 49.7 79.4 L 55.6 79.4 L 55.6 74.5 L 57.1 74.5 L 57.1 86.0 L 55.6 86.0 L 55.6 80.7 L 49.7 80.7 L 49.7 86.0 L 48.2 86.0 L 48.2 74.5 " fill="#FF0000"/>
<path class="atom-4" d="M 59.5 80.2 Q 59.5 77.5, 60.8 75.9 Q 62.2 74.4, 64.8 74.4 Q 67.3 74.4, 68.7 75.9 Q 70.0 77.5, 70.0 80.2 Q 70.0 83.0, 68.6 84.6 Q 67.3 86.2, 64.8 86.2 Q 62.2 86.2, 60.8 84.6 Q 59.5 83.0, 59.5 80.2 M 64.8 84.9 Q 66.5 84.9, 67.4 83.7 Q 68.4 82.5, 68.4 80.2 Q 68.4 78.0, 67.4 76.9 Q 66.5 75.7, 64.8 75.7 Q 63.0 75.7, 62.0 76.8 Q 61.1 78.0, 61.1 80.2 Q 61.1 82.6, 62.0 83.7 Q 63.0 84.9, 64.8 84.9 " fill="#FF0000"/>
<path class="atom-6" d="M 12.4 114.8 L 13.9 114.8 L 13.9 119.7 L 19.8 119.7 L 19.8 114.8 L 21.3 114.8 L 21.3 126.2 L 19.8 126.2 L 19.8 121.0 L 13.9 121.0 L 13.9 126.2 L 12.4 126.2 L 12.4 114.8 " fill="#FF0000"/>
<path class="atom-6" d="M 23.7 120.5 Q 23.7 117.7, 25.0 116.2 Q 26.4 114.7, 28.9 114.7 Q 31.5 114.7, 32.8 116.2 Q 34.2 117.7, 34.2 120.5 Q 34.2 123.3, 32.8 124.9 Q 31.4 126.4, 28.9 126.4 Q 26.4 126.4, 25.0 124.9 Q 23.7 123.3, 23.7 120.5 M 28.9 125.1 Q 30.7 125.1, 31.6 124.0 Q 32.6 122.8, 32.6 120.5 Q 32.6 118.2, 31.6 117.1 Q 30.7 116.0, 28.9 116.0 Q 27.2 116.0, 26.2 117.1 Q 25.3 118.2, 25.3 120.5 Q 25.3 122.8, 26.2 124.0 Q 27.2 125.1, 28.9 125.1 " fill="#FF0000"/>
<path class="atom-8" d="M 76.7 28.8 L 78.2 28.8 L 78.2 33.7 L 84.1 33.7 L 84.1 28.8 L 85.6 28.8 L 85.6 40.3 L 84.1 40.3 L 84.1 35.0 L 78.2 35.0 L 78.2 40.3 L 76.7 40.3 L 76.7 28.8 " fill="#FF0000"/>
<path class="atom-8" d="M 88.0 34.5 Q 88.0 31.8, 89.3 30.2 Q 90.7 28.7, 93.2 28.7 Q 95.8 28.7, 97.1 30.2 Q 98.5 31.8, 98.5 34.5 Q 98.5 37.3, 97.1 38.9 Q 95.7 40.4, 93.2 40.4 Q 90.7 40.4, 89.3 38.9 Q 88.0 37.3, 88.0 34.5 M 93.2 39.1 Q 95.0 39.1, 95.9 38.0 Q 96.9 36.8, 96.9 34.5 Q 96.9 32.3, 95.9 31.1 Q 95.0 30.0, 93.2 30.0 Q 91.5 30.0, 90.5 31.1 Q 89.6 32.2, 89.6 34.5 Q 89.6 36.8, 90.5 38.0 Q 91.5 39.1, 93.2 39.1 " fill="#FF0000"/>
<path class="atom-10" d="M 168.8 30.0 Q 168.8 27.2, 170.1 25.7 Q 171.5 24.1, 174.0 24.1 Q 176.6 24.1, 177.9 25.7 Q 179.3 27.2, 179.3 30.0 Q 179.3 32.8, 177.9 34.3 Q 176.5 35.9, 174.0 35.9 Q 171.5 35.9, 170.1 34.3 Q 168.8 32.8, 168.8 30.0 M 174.0 34.6 Q 175.8 34.6, 176.7 33.5 Q 177.7 32.3, 177.7 30.0 Q 177.7 27.7, 176.7 26.6 Q 175.8 25.4, 174.0 25.4 Q 172.3 25.4, 171.3 26.6 Q 170.4 27.7, 170.4 30.0 Q 170.4 32.3, 171.3 33.5 Q 172.3 34.6, 174.0 34.6 " fill="#FF0000"/>
<path class="atom-10" d="M 181.1 24.3 L 182.6 24.3 L 182.6 29.1 L 188.5 29.1 L 188.5 24.3 L 190.0 24.3 L 190.0 35.7 L 188.5 35.7 L 188.5 30.4 L 182.6 30.4 L 182.6 35.7 L 181.1 35.7 L 181.1 24.3 " fill="#FF0000"/>
<path class="atom-12" d="M 213.1 97.7 Q 213.1 94.9, 214.4 93.4 Q 215.8 91.9, 218.3 91.9 Q 220.9 91.9, 222.2 93.4 Q 223.6 94.9, 223.6 97.7 Q 223.6 100.5, 222.2 102.0 Q 220.8 103.6, 218.3 103.6 Q 215.8 103.6, 214.4 102.0 Q 213.1 100.5, 213.1 97.7 M 218.3 102.3 Q 220.1 102.3, 221.0 101.2 Q 222.0 100.0, 222.0 97.7 Q 222.0 95.4, 221.0 94.3 Q 220.1 93.1, 218.3 93.1 Q 216.6 93.1, 215.6 94.3 Q 214.7 95.4, 214.7 97.7 Q 214.7 100.0, 215.6 101.2 Q 216.6 102.3, 218.3 102.3 " fill="#FF0000"/>
<path class="atom-12" d="M 225.4 92.0 L 226.9 92.0 L 226.9 96.9 L 232.8 96.9 L 232.8 92.0 L 234.3 92.0 L 234.3 103.4 L 232.8 103.4 L 232.8 98.1 L 226.9 98.1 L 226.9 103.4 L 225.4 103.4 L 225.4 92.0 " fill="#FF0000"/>
</svg>
