<?xml version='1.0' encoding='ASCII' standalone='yes'?>
<svg xmlns="http://www.w3.org/2000/svg" xmlns:rdkit="http://www.rdkit.org/xml" xmlns:xlink="http://www.w3.org/1999/xlink" version="1.1" baseProfile="full" xml:space="preserve" width="280px" height="200px" viewBox="0 0 280 200">
<!-- END OF HEADER -->
<rect style="opacity:1.0;fill:#FFFFFF;stroke:none" width="280.0" height="200.0" x="0.0" y="0.0"> </rect>
<path class="bond-0 atom-0 atom-1" d="M 231.4,67.2 L 219.4,89.1" style="fill:none;fill-rule:evenodd;stroke:#000000;stroke-width:2.0px;stroke-linecap:butt;stroke-linejoin:miter;stroke-opacity:1"/>
<path class="bond-1 atom-1 atom-2" d="M 219.4,89.1 L 207.4,111.1" style="fill:none;fill-rule:evenodd;stroke:#000000;stroke-width:2.0px;stroke-linecap:butt;stroke-linejoin:miter;stroke-opacity:1"/>
<path class="bond-2 atom-1 atom-3" d="M 219.4,89.1 L 197.5,77.1" style="fill:none;fill-rule:evenodd;stroke:#000000;stroke-width:2.0px;stroke-linecap:butt;stroke-linejoin:miter;stroke-opacity:1"/>
<path class="bond-3 atom-3 atom-4" d="M 197.5,77.1 L 176.1,90.1" style="fill:none;fill-rule:evenodd;stroke:#000000;stroke-width:2.0px;stroke-linecap:butt;stroke-linejoin:miter;stroke-opacity:1"/>
<path class="bond-4 atom-4 atom-5" d="M 176.1,90.1 L 154.2,78.1" style="fill:none;fill-rule:evenodd;stroke:#000000;stroke-width:2.0px;stroke-linecap:butt;stroke-linejoin:miter;stroke-opacity:1"/>
<path class="bond-5 atom-5 atom-6" d="M 154.2,78.1 L 132.8,91.1" style="fill:none;fill-rule:evenodd;stroke:#000000;stroke-width:2.0px;stroke-linecap:butt;stroke-linejoin:miter;stroke-opacity:1"/>
<path class="bond-6 atom-6 atom-7" d="M 132.8,91.1 L 110.9,79.1" style="fill:none;fill-rule:evenodd;stroke:#000000;stroke-width:2.0px;stroke-linecap:butt;stroke-linejoin:miter;stroke-opacity:1"/>
<path class="bond-7 atom-7 atom-8" d="M 110.9,79.1 L 89.5,92.1" style="fill:none;fill-rule:evenodd;stroke:#000000;stroke-width:2.0px;stroke-linecap:butt;stroke-linejoin:miter;stroke-opacity:1"/>
<path class="bond-8 atom-8 atom-9" d="M 89.5,92.1 L 67.6,80.1" style="fill:none;fill-rule:evenodd;stroke:#000000;stroke-width:2.0px;stroke-linecap:butt;stroke-linejoin:miter;stroke-opacity:1"/>
<path class="bond-9 atom-9 atom-10" d="M 67.6,80.1 L 46.2,93.1" style="fill:none;fill-rule:evenodd;stroke:#000000;stroke-width:2.0px;stroke-linecap:butt;stroke-linejoin:miter;stroke-opacity:1"/>
<path class="bond-10 atom-10 atom-11" d="M 44.3,92.1 L 44.5,102.9" style="fill:none;fill-rule:evenodd;stroke:#000000;stroke-width:2.0px;stroke-linecap:butt;stroke-linejoin:miter;stroke-opacity:1"/>
<path class="bond-10 atom-10 atom-11" d="M 44.5,102.9 L 44.8,113.8" style="fill:none;fill-rule:evenodd;stroke:#FF0000;stroke-width:2.0px;stroke-linecap:butt;stroke-linejoin:miter;stroke-opacity:1"/>
<path class="bond-10 atom-10 atom-11" d="M 48.0,92.0 L 48.3,102.9" style="fill:none;fill-rule:evenodd;stroke:#000000;stroke-width:2.0px;stroke-linecap:butt;stroke-linejoin:miter;stroke-opacity:1"/>
<path class="bond-10 atom-10 atom-11" d="M 48.3,102.9 L 48.5,113.7" style="fill:none;fill-rule:evenodd;stroke:#FF0000;stroke-width:2.0px;stroke-linecap:butt;stroke-linejoin:miter;stroke-opacity:1"/>
<path class="bond-11 atom-10 atom-12" d="M 46.2,93.1 L 37.3,88.3" style="fill:none;fill-rule:evenodd;stroke:#000000;stroke-width:2.0px;stroke-linecap:butt;stroke-linejoin:miter;stroke-opacity:1"/>
<path class="bond-11 atom-10 atom-12" d="M 37.3,88.3 L 28.3,83.4" style="fill:none;fill-rule:evenodd;stroke:#FF0000;stroke-width:2.0px;stroke-linecap:butt;stroke-linejoin:miter;stroke-opacity:1"/>
<path class="bond-12 atom-6 atom-13" d="M 132.8,91.1 L 133.4,116.1" style="fill:none;fill-rule:evenodd;stroke:#000000;stroke-width:2.0px;stroke-linecap:butt;stroke-linejoin:miter;stroke-opacity:1"/>
<path class="bond-13 atom-13 atom-14" d="M 131.5,117.3 L 141.0,122.4" style="fill:none;fill-rule:evenodd;stroke:#000000;stroke-width:2.0px;stroke-linecap:butt;stroke-linejoin:miter;stroke-opacity:1"/>
<path class="bond-13 atom-13 atom-14" d="M 141.0,122.4 L 150.4,127.6" style="fill:none;fill-rule:evenodd;stroke:#FF0000;stroke-width:2.0px;stroke-linecap:butt;stroke-linejoin:miter;stroke-opacity:1"/>
<path class="bond-13 atom-13 atom-14" d="M 133.3,114.0 L 142.8,119.1" style="fill:none;fill-rule:evenodd;stroke:#000000;stroke-width:2.0px;stroke-linecap:butt;stroke-linejoin:miter;stroke-opacity:1"/>
<path class="bond-13 atom-13 atom-14" d="M 142.8,119.1 L 152.2,124.3" style="fill:none;fill-rule:evenodd;stroke:#FF0000;stroke-width:2.0px;stroke-linecap:butt;stroke-linejoin:miter;stroke-opacity:1"/>
<path class="bond-14 atom-13 atom-15" d="M 133.4,116.1 L 124.8,121.4" style="fill:none;fill-rule:evenodd;stroke:#000000;stroke-width:2.0px;stroke-linecap:butt;stroke-linejoin:miter;stroke-opacity:1"/>
<path class="bond-14 atom-13 atom-15" d="M 124.8,121.4 L 116.1,126.7" style="fill:none;fill-rule:evenodd;stroke:#FF0000;stroke-width:2.0px;stroke-linecap:butt;stroke-linejoin:miter;stroke-opacity:1"/>
<path class="bond-15 atom-1 atom-16" d="M 219.4,89.1 L 241.4,101.1" style="fill:none;fill-rule:evenodd;stroke:#000000;stroke-width:2.0px;stroke-linecap:butt;stroke-linejoin:miter;stroke-opacity:1"/>
<path class="bond-16 atom-16 atom-17" d="M 241.4,103.3 L 250.5,97.7" style="fill:none;fill-rule:evenodd;stroke:#000000;stroke-width:2.0px;stroke-linecap:butt;stroke-linejoin:miter;stroke-opacity:1"/>
<path class="bond-16 atom-16 atom-17" d="M 250.5,97.7 L 259.6,92.2" style="fill:none;fill-rule:evenodd;stroke:#FF0000;stroke-width:2.0px;stroke-linecap:butt;stroke-linejoin:miter;stroke-opacity:1"/>
<path class="bond-16 atom-16 atom-17" d="M 239.5,100.1 L 248.6,94.5" style="fill:none;fill-rule:evenodd;stroke:#000000;stroke-width:2.0px;stroke-linecap:butt;stroke-linejoin:miter;stroke-opacity:1"/>
<path class="bond-16 atom-16 atom-17" d="M 248.6,94.5 L 257.7,89.0" style="fill:none;fill-rule:evenodd;stroke:#FF0000;stroke-width:2.0px;stroke-linecap:butt;stroke-linejoin:miter;stroke-opacity:1"/>
<path class="bond-17 atom-16 atom-18" d="M 241.4,101.1 L 241.6,111.4" style="fill:none;fill-rule:evenodd;stroke:#000000;stroke-width:2.0px;stroke-linecap:butt;stroke-linejoin:miter;stroke-opacity:1"/>
<path class="bond-17 atom-16 atom-18" d="M 241.6,111.4 L 241.9,121.7" style="fill:none;fill-rule:evenodd;stroke:#FF0000;stroke-width:2.0px;stroke-linecap:butt;stroke-linejoin:miter;stroke-opacity:1"/>
<path d="M 198.6,77.7 L 197.5,77.1 L 196.4,77.8" style="fill:none;stroke:#000000;stroke-width:2.0px;stroke-linecap:butt;stroke-linejoin:miter;stroke-opacity:1;"/>
<path d="M 177.2,89.5 L 176.1,90.1 L 175.0,89.5" style="fill:none;stroke:#000000;stroke-width:2.0px;stroke-linecap:butt;stroke-linejoin:miter;stroke-opacity:1;"/>
<path d="M 155.3,78.7 L 154.2,78.1 L 153.1,78.8" style="fill:none;stroke:#000000;stroke-width:2.0px;stroke-linecap:butt;stroke-linejoin:miter;stroke-opacity:1;"/>
<path d="M 112.0,79.7 L 110.9,79.1 L 109.8,79.8" style="fill:none;stroke:#000000;stroke-width:2.0px;stroke-linecap:butt;stroke-linejoin:miter;stroke-opacity:1;"/>
<path d="M 90.6,91.5 L 89.5,92.1 L 88.4,91.5" style="fill:none;stroke:#000000;stroke-width:2.0px;stroke-linecap:butt;stroke-linejoin:miter;stroke-opacity:1;"/>
<path d="M 68.7,80.7 L 67.6,80.1 L 66.5,80.8" style="fill:none;stroke:#000000;stroke-width:2.0px;stroke-linecap:butt;stroke-linejoin:miter;stroke-opacity:1;"/>
<path d="M 47.3,92.5 L 46.2,93.1 L 45.7,92.9" style="fill:none;stroke:#000000;stroke-width:2.0px;stroke-linecap:butt;stroke-linejoin:miter;stroke-opacity:1;"/>
<path d="M 133.4,114.9 L 133.4,116.1 L 133.0,116.4" style="fill:none;stroke:#000000;stroke-width:2.0px;stroke-linecap:butt;stroke-linejoin:miter;stroke-opacity:1;"/>
<path d="M 240.3,100.5 L 241.4,101.1 L 241.4,101.6" style="fill:none;stroke:#000000;stroke-width:2.0px;stroke-linecap:butt;stroke-linejoin:miter;stroke-opacity:1;"/>
<path class="atom-11" d="M 43.5 118.2 Q 43.5 116.5, 44.4 115.5 Q 45.2 114.6, 46.8 114.6 Q 48.3 114.6, 49.2 115.5 Q 50.0 116.5, 50.0 118.2 Q 50.0 119.9, 49.2 120.9 Q 48.3 121.8, 46.8 121.8 Q 45.2 121.8, 44.4 120.9 Q 43.5 119.9, 43.5 118.2 M 46.8 121.0 Q 47.9 121.0, 48.4 120.3 Q 49.0 119.6, 49.0 118.2 Q 49.0 116.8, 48.4 116.1 Q 47.9 115.4, 46.8 115.4 Q 45.7 115.4, 45.1 116.1 Q 44.5 116.8, 44.5 118.2 Q 44.5 119.6, 45.1 120.3 Q 45.7 121.0, 46.8 121.0 " fill="#FF0000"/>
<path class="atom-12" d="M 14.0 77.6 L 15.0 77.6 L 15.0 80.7 L 18.6 80.7 L 18.6 77.6 L 19.5 77.6 L 19.5 84.7 L 18.6 84.7 L 18.6 81.5 L 15.0 81.5 L 15.0 84.7 L 14.0 84.7 L 14.0 77.6 " fill="#FF0000"/>
<path class="atom-12" d="M 21.0 81.2 Q 21.0 79.5, 21.8 78.5 Q 22.7 77.6, 24.2 77.6 Q 25.8 77.6, 26.7 78.5 Q 27.5 79.5, 27.5 81.2 Q 27.5 82.9, 26.6 83.9 Q 25.8 84.8, 24.2 84.8 Q 22.7 84.8, 21.8 83.9 Q 21.0 82.9, 21.0 81.2 M 24.2 84.0 Q 25.3 84.0, 25.9 83.3 Q 26.5 82.6, 26.5 81.2 Q 26.5 79.8, 25.9 79.1 Q 25.3 78.4, 24.2 78.4 Q 23.2 78.4, 22.6 79.1 Q 22.0 79.8, 22.0 81.2 Q 22.0 82.6, 22.6 83.3 Q 23.2 84.0, 24.2 84.0 " fill="#FF0000"/>
<path class="atom-14" d="M 152.1 128.2 Q 152.1 126.5, 152.9 125.5 Q 153.8 124.6, 155.3 124.6 Q 156.9 124.6, 157.8 125.5 Q 158.6 126.5, 158.6 128.2 Q 158.6 129.9, 157.7 130.9 Q 156.9 131.8, 155.3 131.8 Q 153.8 131.8, 152.9 130.9 Q 152.1 129.9, 152.1 128.2 M 155.3 131.0 Q 156.4 131.0, 157.0 130.3 Q 157.6 129.6, 157.6 128.2 Q 157.6 126.8, 157.0 126.1 Q 156.4 125.4, 155.3 125.4 Q 154.3 125.4, 153.7 126.1 Q 153.1 126.8, 153.1 128.2 Q 153.1 129.6, 153.7 130.3 Q 154.3 131.0, 155.3 131.0 " fill="#FF0000"/>
<path class="atom-15" d="M 101.8 125.6 L 102.7 125.6 L 102.7 128.7 L 106.4 128.7 L 106.4 125.6 L 107.3 125.6 L 107.3 132.7 L 106.4 132.7 L 106.4 129.5 L 102.7 129.5 L 102.7 132.7 L 101.8 132.7 L 101.8 125.6 " fill="#FF0000"/>
<path class="atom-15" d="M 108.8 129.2 Q 108.8 127.5, 109.6 126.5 Q 110.5 125.6, 112.0 125.6 Q 113.6 125.6, 114.4 126.5 Q 115.3 127.5, 115.3 129.2 Q 115.3 130.9, 114.4 131.9 Q 113.6 132.8, 112.0 132.8 Q 110.5 132.8, 109.6 131.9 Q 108.8 130.9, 108.8 129.2 M 112.0 132.0 Q 113.1 132.0, 113.7 131.3 Q 114.3 130.6, 114.3 129.2 Q 114.3 127.8, 113.7 127.1 Q 113.1 126.4, 112.0 126.4 Q 111.0 126.4, 110.4 127.1 Q 109.8 127.8, 109.8 129.2 Q 109.8 130.6, 110.4 131.3 Q 111.0 132.0, 112.0 132.0 " fill="#FF0000"/>
<path class="atom-17" d="M 259.5 88.1 Q 259.5 86.4, 260.3 85.5 Q 261.2 84.5, 262.7 84.5 Q 264.3 84.5, 265.2 85.5 Q 266.0 86.4, 266.0 88.1 Q 266.0 89.8, 265.1 90.8 Q 264.3 91.8, 262.7 91.8 Q 261.2 91.8, 260.3 90.8 Q 259.5 89.9, 259.5 88.1 M 262.7 91.0 Q 263.8 91.0, 264.4 90.3 Q 265.0 89.5, 265.0 88.1 Q 265.0 86.7, 264.4 86.0 Q 263.8 85.3, 262.7 85.3 Q 261.7 85.3, 261.1 86.0 Q 260.5 86.7, 260.5 88.1 Q 260.5 89.6, 261.1 90.3 Q 261.7 91.0, 262.7 91.0 " fill="#FF0000"/>
<path class="atom-18" d="M 238.7 126.1 Q 238.7 124.4, 239.6 123.5 Q 240.4 122.5, 242.0 122.5 Q 243.5 122.5, 244.4 123.5 Q 245.2 124.4, 245.2 126.1 Q 245.2 127.9, 244.4 128.8 Q 243.5 129.8, 242.0 129.8 Q 240.4 129.8, 239.6 128.8 Q 238.7 127.9, 238.7 126.1 M 242.0 129.0 Q 243.0 129.0, 243.6 128.3 Q 244.2 127.6, 244.2 126.1 Q 244.2 124.7, 243.6 124.0 Q 243.0 123.3, 242.0 123.3 Q 240.9 123.3, 240.3 124.0 Q 239.7 124.7, 239.7 126.1 Q 239.7 127.6, 240.3 128.3 Q 240.9 129.0, 242.0 129.0 " fill="#FF0000"/>
<path class="atom-18" d="M 246.3 122.6 L 247.3 122.6 L 247.3 125.6 L 250.9 125.6 L 250.9 122.6 L 251.9 122.6 L 251.9 129.7 L 250.9 129.7 L 250.9 126.4 L 247.3 126.4 L 247.3 129.7 L 246.3 129.7 L 246.3 122.6 " fill="#FF0000"/>
</svg>
