<?xml version='1.0' encoding='ASCII' standalone='yes'?>
<svg xmlns="http://www.w3.org/2000/svg" xmlns:rdkit="http://www.rdkit.org/xml" xmlns:xlink="http://www.w3.org/1999/xlink" version="1.1" baseProfile="full" xml:space="preserve" width="297px" height="200px" viewBox="0 0 297 200">
<!-- END OF HEADER -->
<rect style="opacity:1.0;fill:#FFFFFF;stroke:none" width="297.0" height="200.0" x="0.0" y="0.0"> </rect>
<path class="bond-0 atom-0 atom-1" d="M 32.8,101.5 L 62.1,89.1" style="fill:none;fill-rule:evenodd;stroke:#000000;stroke-width:2.0px;stroke-linecap:butt;stroke-linejoin:miter;stroke-opacity:1"/>
<path class="bond-1 atom-1 atom-2" d="M 62.1,89.1 L 66.1,57.4" style="fill:none;fill-rule:evenodd;stroke:#000000;stroke-width:2.0px;stroke-linecap:butt;stroke-linejoin:miter;stroke-opacity:1"/>
<path class="bond-2 atom-2 atom-3" d="M 66.1,57.4 L 95.5,45.0" style="fill:none;fill-rule:evenodd;stroke:#000000;stroke-width:2.0px;stroke-linecap:butt;stroke-linejoin:miter;stroke-opacity:1"/>
<path class="bond-3 atom-3 atom-4" d="M 95.5,45.0 L 107.9,74.4" style="fill:none;fill-rule:evenodd;stroke:#000000;stroke-width:2.0px;stroke-linecap:butt;stroke-linejoin:miter;stroke-opacity:1"/>
<path class="bond-4 atom-3 atom-5" d="M 95.5,45.0 L 83.1,15.6" style="fill:none;fill-rule:evenodd;stroke:#000000;stroke-width:2.0px;stroke-linecap:butt;stroke-linejoin:miter;stroke-opacity:1"/>
<path class="bond-5 atom-3 atom-6" d="M 95.5,45.0 L 124.9,32.6" style="fill:none;fill-rule:evenodd;stroke:#000000;stroke-width:2.0px;stroke-linecap:butt;stroke-linejoin:miter;stroke-opacity:1"/>
<path class="bond-6 atom-6 atom-7" d="M 124.9,32.6 L 150.3,51.8" style="fill:none;fill-rule:evenodd;stroke:#000000;stroke-width:2.0px;stroke-linecap:butt;stroke-linejoin:miter;stroke-opacity:1"/>
<path class="bond-7 atom-7 atom-8" d="M 150.3,51.8 L 146.4,83.5" style="fill:none;fill-rule:evenodd;stroke:#000000;stroke-width:2.0px;stroke-linecap:butt;stroke-linejoin:miter;stroke-opacity:1"/>
<path class="bond-8 atom-8 atom-9" d="M 146.4,83.5 L 171.8,102.7" style="fill:none;fill-rule:evenodd;stroke:#000000;stroke-width:2.0px;stroke-linecap:butt;stroke-linejoin:miter;stroke-opacity:1"/>
<path class="bond-9 atom-9 atom-10" d="M 171.8,102.7 L 183.9,97.6" style="fill:none;fill-rule:evenodd;stroke:#000000;stroke-width:2.0px;stroke-linecap:butt;stroke-linejoin:miter;stroke-opacity:1"/>
<path class="bond-9 atom-9 atom-10" d="M 183.9,97.6 L 196.0,92.5" style="fill:none;fill-rule:evenodd;stroke:#FF0000;stroke-width:2.0px;stroke-linecap:butt;stroke-linejoin:miter;stroke-opacity:1"/>
<path class="bond-10 atom-9 atom-11" d="M 171.8,102.7 L 167.9,134.4" style="fill:none;fill-rule:evenodd;stroke:#000000;stroke-width:2.0px;stroke-linecap:butt;stroke-linejoin:miter;stroke-opacity:1"/>
<path class="bond-11 atom-11 atom-12" d="M 167.9,134.4 L 136.2,130.4" style="fill:none;fill-rule:evenodd;stroke:#000000;stroke-width:2.0px;stroke-linecap:butt;stroke-linejoin:miter;stroke-opacity:1"/>
<path class="bond-12 atom-11 atom-13" d="M 167.9,134.4 L 199.6,138.3" style="fill:none;fill-rule:evenodd;stroke:#000000;stroke-width:2.0px;stroke-linecap:butt;stroke-linejoin:miter;stroke-opacity:1"/>
<path class="bond-13 atom-11 atom-14" d="M 167.9,134.4 L 164.0,166.0" style="fill:none;fill-rule:evenodd;stroke:#000000;stroke-width:2.0px;stroke-linecap:butt;stroke-linejoin:miter;stroke-opacity:1"/>
<path class="bond-14 atom-14 atom-15" d="M 161.4,167.1 L 172.1,175.2" style="fill:none;fill-rule:evenodd;stroke:#000000;stroke-width:2.0px;stroke-linecap:butt;stroke-linejoin:miter;stroke-opacity:1"/>
<path class="bond-14 atom-14 atom-15" d="M 172.1,175.2 L 182.8,183.3" style="fill:none;fill-rule:evenodd;stroke:#FF0000;stroke-width:2.0px;stroke-linecap:butt;stroke-linejoin:miter;stroke-opacity:1"/>
<path class="bond-14 atom-14 atom-15" d="M 164.3,163.3 L 175.0,171.4" style="fill:none;fill-rule:evenodd;stroke:#000000;stroke-width:2.0px;stroke-linecap:butt;stroke-linejoin:miter;stroke-opacity:1"/>
<path class="bond-14 atom-14 atom-15" d="M 175.0,171.4 L 185.7,179.4" style="fill:none;fill-rule:evenodd;stroke:#FF0000;stroke-width:2.0px;stroke-linecap:butt;stroke-linejoin:miter;stroke-opacity:1"/>
<path class="bond-15 atom-14 atom-16" d="M 164.0,166.0 L 151.9,171.2" style="fill:none;fill-rule:evenodd;stroke:#000000;stroke-width:2.0px;stroke-linecap:butt;stroke-linejoin:miter;stroke-opacity:1"/>
<path class="bond-15 atom-14 atom-16" d="M 151.9,171.2 L 139.8,176.3" style="fill:none;fill-rule:evenodd;stroke:#FF0000;stroke-width:2.0px;stroke-linecap:butt;stroke-linejoin:miter;stroke-opacity:1"/>
<path class="bond-16 atom-7 atom-17" d="M 150.3,51.8 L 179.7,39.4" style="fill:none;fill-rule:evenodd;stroke:#000000;stroke-width:2.0px;stroke-linecap:butt;stroke-linejoin:miter;stroke-opacity:1"/>
<path class="bond-17 atom-17 atom-18" d="M 179.7,39.4 L 192.1,68.8" style="fill:none;fill-rule:evenodd;stroke:#000000;stroke-width:2.0px;stroke-linecap:butt;stroke-linejoin:miter;stroke-opacity:1"/>
<path class="bond-18 atom-17 atom-19" d="M 179.7,39.4 L 167.3,10.0" style="fill:none;fill-rule:evenodd;stroke:#000000;stroke-width:2.0px;stroke-linecap:butt;stroke-linejoin:miter;stroke-opacity:1"/>
<path class="bond-19 atom-17 atom-20" d="M 179.7,39.4 L 209.1,27.0" style="fill:none;fill-rule:evenodd;stroke:#000000;stroke-width:2.0px;stroke-linecap:butt;stroke-linejoin:miter;stroke-opacity:1"/>
<path class="bond-20 atom-20 atom-21" d="M 209.1,27.0 L 234.6,46.2" style="fill:none;fill-rule:evenodd;stroke:#000000;stroke-width:2.0px;stroke-linecap:butt;stroke-linejoin:miter;stroke-opacity:1"/>
<path class="bond-21 atom-21 atom-22" d="M 234.6,46.2 L 263.9,33.8" style="fill:none;fill-rule:evenodd;stroke:#000000;stroke-width:2.0px;stroke-linecap:butt;stroke-linejoin:miter;stroke-opacity:1"/>
<path d="M 60.7,89.7 L 62.1,89.1 L 62.3,87.5" style="fill:none;stroke:#000000;stroke-width:2.0px;stroke-linecap:butt;stroke-linejoin:miter;stroke-opacity:1;"/>
<path d="M 65.9,59.0 L 66.1,57.4 L 67.6,56.8" style="fill:none;stroke:#000000;stroke-width:2.0px;stroke-linecap:butt;stroke-linejoin:miter;stroke-opacity:1;"/>
<path d="M 123.4,33.2 L 124.9,32.6 L 126.1,33.5" style="fill:none;stroke:#000000;stroke-width:2.0px;stroke-linecap:butt;stroke-linejoin:miter;stroke-opacity:1;"/>
<path d="M 146.6,81.9 L 146.4,83.5 L 147.7,84.4" style="fill:none;stroke:#000000;stroke-width:2.0px;stroke-linecap:butt;stroke-linejoin:miter;stroke-opacity:1;"/>
<path d="M 164.2,164.5 L 164.0,166.0 L 163.4,166.3" style="fill:none;stroke:#000000;stroke-width:2.0px;stroke-linecap:butt;stroke-linejoin:miter;stroke-opacity:1;"/>
<path d="M 207.6,27.6 L 209.1,27.0 L 210.4,27.9" style="fill:none;stroke:#000000;stroke-width:2.0px;stroke-linecap:butt;stroke-linejoin:miter;stroke-opacity:1;"/>
<path d="M 233.3,45.2 L 234.6,46.2 L 236.0,45.6" style="fill:none;stroke:#000000;stroke-width:2.0px;stroke-linecap:butt;stroke-linejoin:miter;stroke-opacity:1;"/>
<path class="atom-10" d="M 197.1 90.3 Q 197.1 88.2, 198.1 86.9 Q 199.2 85.7, 201.2 85.7 Q 203.2 85.7, 204.3 86.9 Q 205.4 88.2, 205.4 90.3 Q 205.4 92.5, 204.3 93.8 Q 203.2 95.0, 201.2 95.0 Q 199.2 95.0, 198.1 93.8 Q 197.1 92.5, 197.1 90.3 M 201.2 94.0 Q 202.6 94.0, 203.3 93.1 Q 204.1 92.1, 204.1 90.3 Q 204.1 88.5, 203.3 87.7 Q 202.6 86.7, 201.2 86.7 Q 199.8 86.7, 199.1 87.6 Q 198.4 88.5, 198.4 90.3 Q 198.4 92.1, 199.1 93.1 Q 199.8 94.0, 201.2 94.0 " fill="#FF0000"/>
<path class="atom-10" d="M 206.8 85.8 L 208.0 85.8 L 208.0 89.7 L 212.6 89.7 L 212.6 85.8 L 213.9 85.8 L 213.9 94.9 L 212.6 94.9 L 212.6 90.7 L 208.0 90.7 L 208.0 94.9 L 206.8 94.9 L 206.8 85.8 " fill="#FF0000"/>
<path class="atom-15" d="M 185.3 185.3 Q 185.3 183.1, 186.3 181.9 Q 187.4 180.7, 189.4 180.7 Q 191.4 180.7, 192.5 181.9 Q 193.6 183.1, 193.6 185.3 Q 193.6 187.5, 192.5 188.8 Q 191.4 190.0, 189.4 190.0 Q 187.4 190.0, 186.3 188.8 Q 185.3 187.5, 185.3 185.3 M 189.4 189.0 Q 190.8 189.0, 191.5 188.1 Q 192.3 187.1, 192.3 185.3 Q 192.3 183.5, 191.5 182.6 Q 190.8 181.7, 189.4 181.7 Q 188.0 181.7, 187.3 182.6 Q 186.5 183.5, 186.5 185.3 Q 186.5 187.1, 187.3 188.1 Q 188.0 189.0, 189.4 189.0 " fill="#FF0000"/>
<path class="atom-16" d="M 121.5 174.0 L 122.7 174.0 L 122.7 177.8 L 127.3 177.8 L 127.3 174.0 L 128.6 174.0 L 128.6 183.0 L 127.3 183.0 L 127.3 178.9 L 122.7 178.9 L 122.7 183.0 L 121.5 183.0 L 121.5 174.0 " fill="#FF0000"/>
<path class="atom-16" d="M 130.4 178.5 Q 130.4 176.3, 131.5 175.1 Q 132.6 173.9, 134.6 173.9 Q 136.6 173.9, 137.6 175.1 Q 138.7 176.3, 138.7 178.5 Q 138.7 180.7, 137.6 181.9 Q 136.5 183.2, 134.6 183.2 Q 132.6 183.2, 131.5 181.9 Q 130.4 180.7, 130.4 178.5 M 134.6 182.2 Q 135.9 182.2, 136.7 181.2 Q 137.4 180.3, 137.4 178.5 Q 137.4 176.7, 136.7 175.8 Q 135.9 174.9, 134.6 174.9 Q 133.2 174.9, 132.4 175.8 Q 131.7 176.7, 131.7 178.5 Q 131.7 180.3, 132.4 181.2 Q 133.2 182.2, 134.6 182.2 " fill="#FF0000"/>
</svg>
