<?xml version='1.0' encoding='ASCII' standalone='yes'?>
<svg xmlns="http://www.w3.org/2000/svg" xmlns:rdkit="http://www.rdkit.org/xml" xmlns:xlink="http://www.w3.org/1999/xlink" version="1.1" baseProfile="full" xml:space="preserve" width="307px" height="200px" viewBox="0 0 307 200">
<!-- END OF HEADER -->
<rect style="opacity:1.0;fill:#FFFFFF;stroke:none" width="307.0" height="200.0" x="0.0" y="0.0"> </rect>
<path class="bond-0 atom-0 atom-1" d="M 74.4,41.8 L 80.2,49.2" style="fill:none;fill-rule:evenodd;stroke:#000000;stroke-width:2.0px;stroke-linecap:butt;stroke-linejoin:miter;stroke-opacity:1"/>
<path class="bond-0 atom-0 atom-1" d="M 80.2,49.2 L 86.1,56.5" style="fill:none;fill-rule:evenodd;stroke:#FF0000;stroke-width:2.0px;stroke-linecap:butt;stroke-linejoin:miter;stroke-opacity:1"/>
<path class="bond-1 atom-1 atom-2" d="M 87.7,65.2 L 84.2,74.3" style="fill:none;fill-rule:evenodd;stroke:#FF0000;stroke-width:2.0px;stroke-linecap:butt;stroke-linejoin:miter;stroke-opacity:1"/>
<path class="bond-1 atom-1 atom-2" d="M 84.2,74.3 L 80.6,83.4" style="fill:none;fill-rule:evenodd;stroke:#000000;stroke-width:2.0px;stroke-linecap:butt;stroke-linejoin:miter;stroke-opacity:1"/>
<path class="bond-2 atom-2 atom-3" d="M 81.3,81.4 L 70.8,83.0" style="fill:none;fill-rule:evenodd;stroke:#000000;stroke-width:2.0px;stroke-linecap:butt;stroke-linejoin:miter;stroke-opacity:1"/>
<path class="bond-2 atom-2 atom-3" d="M 70.8,83.0 L 60.3,84.6" style="fill:none;fill-rule:evenodd;stroke:#FF0000;stroke-width:2.0px;stroke-linecap:butt;stroke-linejoin:miter;stroke-opacity:1"/>
<path class="bond-2 atom-2 atom-3" d="M 81.9,85.0 L 71.3,86.6" style="fill:none;fill-rule:evenodd;stroke:#000000;stroke-width:2.0px;stroke-linecap:butt;stroke-linejoin:miter;stroke-opacity:1"/>
<path class="bond-2 atom-2 atom-3" d="M 71.3,86.6 L 60.8,88.2" style="fill:none;fill-rule:evenodd;stroke:#FF0000;stroke-width:2.0px;stroke-linecap:butt;stroke-linejoin:miter;stroke-opacity:1"/>
<path class="bond-3 atom-2 atom-4" d="M 80.6,83.4 L 95.7,102.4" style="fill:none;fill-rule:evenodd;stroke:#000000;stroke-width:2.0px;stroke-linecap:butt;stroke-linejoin:miter;stroke-opacity:1"/>
<path class="bond-4 atom-4 atom-5" d="M 95.7,102.4 L 76.7,117.4" style="fill:none;fill-rule:evenodd;stroke:#000000;stroke-width:2.0px;stroke-linecap:butt;stroke-linejoin:miter;stroke-opacity:1"/>
<path class="bond-5 atom-4 atom-6" d="M 95.7,102.4 L 114.6,87.3" style="fill:none;fill-rule:evenodd;stroke:#000000;stroke-width:2.0px;stroke-linecap:butt;stroke-linejoin:miter;stroke-opacity:1"/>
<path class="bond-6 atom-4 atom-7" d="M 95.7,102.4 L 110.8,121.3" style="fill:none;fill-rule:evenodd;stroke:#000000;stroke-width:2.0px;stroke-linecap:butt;stroke-linejoin:miter;stroke-opacity:1"/>
<path class="bond-7 atom-7 atom-8" d="M 110.8,121.3 L 134.7,117.8" style="fill:none;fill-rule:evenodd;stroke:#000000;stroke-width:2.0px;stroke-linecap:butt;stroke-linejoin:miter;stroke-opacity:1"/>
<path class="bond-8 atom-8 atom-9" d="M 134.7,117.8 L 149.8,136.7" style="fill:none;fill-rule:evenodd;stroke:#000000;stroke-width:2.0px;stroke-linecap:butt;stroke-linejoin:miter;stroke-opacity:1"/>
<path class="bond-9 atom-9 atom-10" d="M 149.8,136.7 L 173.8,133.1" style="fill:none;fill-rule:evenodd;stroke:#000000;stroke-width:2.0px;stroke-linecap:butt;stroke-linejoin:miter;stroke-opacity:1"/>
<path class="bond-10 atom-10 atom-11" d="M 173.8,133.1 L 197.8,129.6" style="fill:none;fill-rule:evenodd;stroke:#000000;stroke-width:2.0px;stroke-linecap:butt;stroke-linejoin:miter;stroke-opacity:1"/>
<path class="bond-11 atom-10 atom-12" d="M 173.8,133.1 L 170.2,109.2" style="fill:none;fill-rule:evenodd;stroke:#000000;stroke-width:2.0px;stroke-linecap:butt;stroke-linejoin:miter;stroke-opacity:1"/>
<path class="bond-12 atom-12 atom-13" d="M 170.2,109.2 L 189.2,94.1" style="fill:none;fill-rule:evenodd;stroke:#000000;stroke-width:2.0px;stroke-linecap:butt;stroke-linejoin:miter;stroke-opacity:1"/>
<path class="bond-13 atom-13 atom-14" d="M 189.2,94.1 L 185.6,70.1" style="fill:none;fill-rule:evenodd;stroke:#000000;stroke-width:2.0px;stroke-linecap:butt;stroke-linejoin:miter;stroke-opacity:1"/>
<path class="bond-14 atom-14 atom-15" d="M 185.6,70.1 L 204.6,55.0" style="fill:none;fill-rule:evenodd;stroke:#000000;stroke-width:2.0px;stroke-linecap:butt;stroke-linejoin:miter;stroke-opacity:1"/>
<path class="bond-15 atom-15 atom-16" d="M 204.6,55.0 L 223.6,39.9" style="fill:none;fill-rule:evenodd;stroke:#000000;stroke-width:2.0px;stroke-linecap:butt;stroke-linejoin:miter;stroke-opacity:1"/>
<path class="bond-16 atom-15 atom-17" d="M 204.6,55.0 L 219.7,74.0" style="fill:none;fill-rule:evenodd;stroke:#000000;stroke-width:2.0px;stroke-linecap:butt;stroke-linejoin:miter;stroke-opacity:1"/>
<path class="bond-17 atom-17 atom-18" d="M 219.7,74.0 L 229.7,72.5" style="fill:none;fill-rule:evenodd;stroke:#000000;stroke-width:2.0px;stroke-linecap:butt;stroke-linejoin:miter;stroke-opacity:1"/>
<path class="bond-17 atom-17 atom-18" d="M 229.7,72.5 L 239.7,71.0" style="fill:none;fill-rule:evenodd;stroke:#FF0000;stroke-width:2.0px;stroke-linecap:butt;stroke-linejoin:miter;stroke-opacity:1"/>
<path class="bond-18 atom-15 atom-19" d="M 204.6,55.0 L 189.5,36.0" style="fill:none;fill-rule:evenodd;stroke:#000000;stroke-width:2.0px;stroke-linecap:butt;stroke-linejoin:miter;stroke-opacity:1"/>
<path class="bond-19 atom-19 atom-20" d="M 190.3,34.1 L 179.7,35.6" style="fill:none;fill-rule:evenodd;stroke:#000000;stroke-width:2.0px;stroke-linecap:butt;stroke-linejoin:miter;stroke-opacity:1"/>
<path class="bond-19 atom-19 atom-20" d="M 179.7,35.6 L 169.2,37.2" style="fill:none;fill-rule:evenodd;stroke:#FF0000;stroke-width:2.0px;stroke-linecap:butt;stroke-linejoin:miter;stroke-opacity:1"/>
<path class="bond-19 atom-19 atom-20" d="M 190.8,37.7 L 180.3,39.2" style="fill:none;fill-rule:evenodd;stroke:#000000;stroke-width:2.0px;stroke-linecap:butt;stroke-linejoin:miter;stroke-opacity:1"/>
<path class="bond-19 atom-19 atom-20" d="M 180.3,39.2 L 169.7,40.8" style="fill:none;fill-rule:evenodd;stroke:#FF0000;stroke-width:2.0px;stroke-linecap:butt;stroke-linejoin:miter;stroke-opacity:1"/>
<path class="bond-20 atom-19 atom-21" d="M 189.5,36.0 L 193.1,26.9" style="fill:none;fill-rule:evenodd;stroke:#000000;stroke-width:2.0px;stroke-linecap:butt;stroke-linejoin:miter;stroke-opacity:1"/>
<path class="bond-20 atom-19 atom-21" d="M 193.1,26.9 L 196.7,17.9" style="fill:none;fill-rule:evenodd;stroke:#FF0000;stroke-width:2.0px;stroke-linecap:butt;stroke-linejoin:miter;stroke-opacity:1"/>
<path class="bond-21 atom-10 atom-22" d="M 173.8,133.1 L 177.4,157.1" style="fill:none;fill-rule:evenodd;stroke:#000000;stroke-width:2.0px;stroke-linecap:butt;stroke-linejoin:miter;stroke-opacity:1"/>
<path class="bond-22 atom-22 atom-23" d="M 177.1,155.1 L 169.1,161.4" style="fill:none;fill-rule:evenodd;stroke:#000000;stroke-width:2.0px;stroke-linecap:butt;stroke-linejoin:miter;stroke-opacity:1"/>
<path class="bond-22 atom-22 atom-23" d="M 169.1,161.4 L 161.2,167.7" style="fill:none;fill-rule:evenodd;stroke:#FF0000;stroke-width:2.0px;stroke-linecap:butt;stroke-linejoin:miter;stroke-opacity:1"/>
<path class="bond-22 atom-22 atom-23" d="M 179.3,157.9 L 171.4,164.2" style="fill:none;fill-rule:evenodd;stroke:#000000;stroke-width:2.0px;stroke-linecap:butt;stroke-linejoin:miter;stroke-opacity:1"/>
<path class="bond-22 atom-22 atom-23" d="M 171.4,164.2 L 163.5,170.5" style="fill:none;fill-rule:evenodd;stroke:#FF0000;stroke-width:2.0px;stroke-linecap:butt;stroke-linejoin:miter;stroke-opacity:1"/>
<path class="bond-23 atom-22 atom-24" d="M 177.4,157.1 L 186.7,160.8" style="fill:none;fill-rule:evenodd;stroke:#000000;stroke-width:2.0px;stroke-linecap:butt;stroke-linejoin:miter;stroke-opacity:1"/>
<path class="bond-23 atom-22 atom-24" d="M 186.7,160.8 L 196.0,164.5" style="fill:none;fill-rule:evenodd;stroke:#FF0000;stroke-width:2.0px;stroke-linecap:butt;stroke-linejoin:miter;stroke-opacity:1"/>
<path class="bond-24 atom-24 atom-25" d="M 200.6,170.4 L 202.1,180.2" style="fill:none;fill-rule:evenodd;stroke:#FF0000;stroke-width:2.0px;stroke-linecap:butt;stroke-linejoin:miter;stroke-opacity:1"/>
<path class="bond-24 atom-24 atom-25" d="M 202.1,180.2 L 203.5,190.0" style="fill:none;fill-rule:evenodd;stroke:#000000;stroke-width:2.0px;stroke-linecap:butt;stroke-linejoin:miter;stroke-opacity:1"/>
<path d="M 80.7,82.9 L 80.6,83.4 L 81.3,84.3" style="fill:none;stroke:#000000;stroke-width:2.0px;stroke-linecap:butt;stroke-linejoin:miter;stroke-opacity:1;"/>
<path d="M 110.0,120.4 L 110.8,121.3 L 111.9,121.2" style="fill:none;stroke:#000000;stroke-width:2.0px;stroke-linecap:butt;stroke-linejoin:miter;stroke-opacity:1;"/>
<path d="M 133.5,117.9 L 134.7,117.8 L 135.5,118.7" style="fill:none;stroke:#000000;stroke-width:2.0px;stroke-linecap:butt;stroke-linejoin:miter;stroke-opacity:1;"/>
<path d="M 149.1,135.8 L 149.8,136.7 L 151.0,136.6" style="fill:none;stroke:#000000;stroke-width:2.0px;stroke-linecap:butt;stroke-linejoin:miter;stroke-opacity:1;"/>
<path d="M 170.4,110.4 L 170.2,109.2 L 171.2,108.4" style="fill:none;stroke:#000000;stroke-width:2.0px;stroke-linecap:butt;stroke-linejoin:miter;stroke-opacity:1;"/>
<path d="M 188.3,94.8 L 189.2,94.1 L 189.0,92.9" style="fill:none;stroke:#000000;stroke-width:2.0px;stroke-linecap:butt;stroke-linejoin:miter;stroke-opacity:1;"/>
<path d="M 185.8,71.3 L 185.6,70.1 L 186.6,69.3" style="fill:none;stroke:#000000;stroke-width:2.0px;stroke-linecap:butt;stroke-linejoin:miter;stroke-opacity:1;"/>
<path d="M 218.9,73.0 L 219.7,74.0 L 220.2,73.9" style="fill:none;stroke:#000000;stroke-width:2.0px;stroke-linecap:butt;stroke-linejoin:miter;stroke-opacity:1;"/>
<path d="M 190.3,37.0 L 189.5,36.0 L 189.7,35.6" style="fill:none;stroke:#000000;stroke-width:2.0px;stroke-linecap:butt;stroke-linejoin:miter;stroke-opacity:1;"/>
<path d="M 177.2,155.9 L 177.4,157.1 L 177.8,157.3" style="fill:none;stroke:#000000;stroke-width:2.0px;stroke-linecap:butt;stroke-linejoin:miter;stroke-opacity:1;"/>
<path class="atom-1" d="M 86.3 60.8 Q 86.3 59.2, 87.1 58.3 Q 87.9 57.3, 89.5 57.3 Q 91.0 57.3, 91.8 58.3 Q 92.6 59.2, 92.6 60.8 Q 92.6 62.5, 91.8 63.5 Q 91.0 64.4, 89.5 64.4 Q 87.9 64.4, 87.1 63.5 Q 86.3 62.5, 86.3 60.8 M 89.5 63.6 Q 90.5 63.6, 91.1 62.9 Q 91.6 62.2, 91.6 60.8 Q 91.6 59.5, 91.1 58.8 Q 90.5 58.1, 89.5 58.1 Q 88.4 58.1, 87.8 58.8 Q 87.3 59.5, 87.3 60.8 Q 87.3 62.2, 87.8 62.9 Q 88.4 63.6, 89.5 63.6 " fill="#FF0000"/>
<path class="atom-3" d="M 53.4 87.0 Q 53.4 85.3, 54.3 84.4 Q 55.1 83.5, 56.6 83.5 Q 58.1 83.5, 58.9 84.4 Q 59.7 85.3, 59.7 87.0 Q 59.7 88.6, 58.9 89.6 Q 58.1 90.5, 56.6 90.5 Q 55.1 90.5, 54.3 89.6 Q 53.4 88.7, 53.4 87.0 M 56.6 89.8 Q 57.6 89.8, 58.2 89.1 Q 58.8 88.4, 58.8 87.0 Q 58.8 85.6, 58.2 84.9 Q 57.6 84.3, 56.6 84.3 Q 55.5 84.3, 55.0 84.9 Q 54.4 85.6, 54.4 87.0 Q 54.4 88.4, 55.0 89.1 Q 55.5 89.8, 56.6 89.8 " fill="#FF0000"/>
<path class="atom-18" d="M 240.5 70.4 Q 240.5 68.8, 241.3 67.9 Q 242.1 66.9, 243.7 66.9 Q 245.2 66.9, 246.0 67.9 Q 246.8 68.8, 246.8 70.4 Q 246.8 72.1, 246.0 73.0 Q 245.2 74.0, 243.7 74.0 Q 242.2 74.0, 241.3 73.0 Q 240.5 72.1, 240.5 70.4 M 243.7 73.2 Q 244.7 73.2, 245.3 72.5 Q 245.9 71.8, 245.9 70.4 Q 245.9 69.1, 245.3 68.4 Q 244.7 67.7, 243.7 67.7 Q 242.6 67.7, 242.0 68.4 Q 241.5 69.1, 241.5 70.4 Q 241.5 71.8, 242.0 72.5 Q 242.6 73.2, 243.7 73.2 " fill="#FF0000"/>
<path class="atom-18" d="M 247.9 67.0 L 248.8 67.0 L 248.8 69.9 L 252.3 69.9 L 252.3 67.0 L 253.3 67.0 L 253.3 73.9 L 252.3 73.9 L 252.3 70.7 L 248.8 70.7 L 248.8 73.9 L 247.9 73.9 L 247.9 67.0 " fill="#FF0000"/>
<path class="atom-20" d="M 162.4 39.6 Q 162.4 38.0, 163.2 37.1 Q 164.0 36.1, 165.5 36.1 Q 167.0 36.1, 167.9 37.1 Q 168.7 38.0, 168.7 39.6 Q 168.7 41.3, 167.9 42.2 Q 167.0 43.2, 165.5 43.2 Q 164.0 43.2, 163.2 42.2 Q 162.4 41.3, 162.4 39.6 M 165.5 42.4 Q 166.6 42.4, 167.1 41.7 Q 167.7 41.0, 167.7 39.6 Q 167.7 38.3, 167.1 37.6 Q 166.6 36.9, 165.5 36.9 Q 164.5 36.9, 163.9 37.6 Q 163.3 38.3, 163.3 39.6 Q 163.3 41.0, 163.9 41.7 Q 164.5 42.4, 165.5 42.4 " fill="#FF0000"/>
<path class="atom-21" d="M 195.2 13.5 Q 195.2 11.8, 196.1 10.9 Q 196.9 10.0, 198.4 10.0 Q 199.9 10.0, 200.7 10.9 Q 201.5 11.8, 201.5 13.5 Q 201.5 15.2, 200.7 16.1 Q 199.9 17.1, 198.4 17.1 Q 196.9 17.1, 196.1 16.1 Q 195.2 15.2, 195.2 13.5 M 198.4 16.3 Q 199.4 16.3, 200.0 15.6 Q 200.6 14.9, 200.6 13.5 Q 200.6 12.1, 200.0 11.5 Q 199.4 10.8, 198.4 10.8 Q 197.3 10.8, 196.8 11.5 Q 196.2 12.1, 196.2 13.5 Q 196.2 14.9, 196.8 15.6 Q 197.3 16.3, 198.4 16.3 " fill="#FF0000"/>
<path class="atom-21" d="M 202.6 10.1 L 203.5 10.1 L 203.5 13.0 L 207.1 13.0 L 207.1 10.1 L 208.0 10.1 L 208.0 16.9 L 207.1 16.9 L 207.1 13.8 L 203.5 13.8 L 203.5 16.9 L 202.6 16.9 L 202.6 10.1 " fill="#FF0000"/>
<path class="atom-23" d="M 155.3 172.2 Q 155.3 170.6, 156.1 169.7 Q 156.9 168.7, 158.4 168.7 Q 159.9 168.7, 160.7 169.7 Q 161.6 170.6, 161.6 172.2 Q 161.6 173.9, 160.7 174.9 Q 159.9 175.8, 158.4 175.8 Q 156.9 175.8, 156.1 174.9 Q 155.3 173.9, 155.3 172.2 M 158.4 175.0 Q 159.5 175.0, 160.0 174.3 Q 160.6 173.6, 160.6 172.2 Q 160.6 170.9, 160.0 170.2 Q 159.5 169.5, 158.4 169.5 Q 157.4 169.5, 156.8 170.2 Q 156.2 170.9, 156.2 172.2 Q 156.2 173.6, 156.8 174.3 Q 157.4 175.0, 158.4 175.0 " fill="#FF0000"/>
<path class="atom-24" d="M 196.8 166.0 Q 196.8 164.4, 197.6 163.5 Q 198.4 162.5, 199.9 162.5 Q 201.5 162.5, 202.3 163.5 Q 203.1 164.4, 203.1 166.0 Q 203.1 167.7, 202.3 168.7 Q 201.4 169.6, 199.9 169.6 Q 198.4 169.6, 197.6 168.7 Q 196.8 167.7, 196.8 166.0 M 199.9 168.8 Q 201.0 168.8, 201.5 168.1 Q 202.1 167.4, 202.1 166.0 Q 202.1 164.7, 201.5 164.0 Q 201.0 163.3, 199.9 163.3 Q 198.9 163.3, 198.3 164.0 Q 197.8 164.7, 197.8 166.0 Q 197.8 167.4, 198.3 168.1 Q 198.9 168.8, 199.9 168.8 " fill="#FF0000"/>
</svg>
