<?xml version='1.0' encoding='ASCII' standalone='yes'?>
<svg xmlns="http://www.w3.org/2000/svg" xmlns:rdkit="http://www.rdkit.org/xml" xmlns:xlink="http://www.w3.org/1999/xlink" version="1.1" baseProfile="full" xml:space="preserve" width="304px" height="200px" viewBox="0 0 304 200">
<!-- END OF HEADER -->
<rect style="opacity:1.0;fill:#FFFFFF;stroke:none" width="304.0" height="200.0" x="0.0" y="0.0"> </rect>
<path class="bond-0 atom-0 atom-1" d="M 229.7,10.0 L 228.1,42.1" style="fill:none;fill-rule:evenodd;stroke:#000000;stroke-width:2.0px;stroke-linecap:butt;stroke-linejoin:miter;stroke-opacity:1"/>
<path class="bond-1 atom-1 atom-2" d="M 228.1,42.1 L 255.1,59.5" style="fill:none;fill-rule:evenodd;stroke:#000000;stroke-width:2.0px;stroke-linecap:butt;stroke-linejoin:miter;stroke-opacity:1"/>
<path class="bond-2 atom-2 atom-3" d="M 255.1,59.5 L 254.5,72.8" style="fill:none;fill-rule:evenodd;stroke:#000000;stroke-width:2.0px;stroke-linecap:butt;stroke-linejoin:miter;stroke-opacity:1"/>
<path class="bond-2 atom-2 atom-3" d="M 254.5,72.8 L 253.8,86.0" style="fill:none;fill-rule:evenodd;stroke:#FF0000;stroke-width:2.0px;stroke-linecap:butt;stroke-linejoin:miter;stroke-opacity:1"/>
<path class="bond-3 atom-1 atom-4" d="M 228.1,42.1 L 199.5,56.8" style="fill:none;fill-rule:evenodd;stroke:#000000;stroke-width:2.0px;stroke-linecap:butt;stroke-linejoin:miter;stroke-opacity:1"/>
<path class="bond-4 atom-4 atom-5" d="M 199.5,56.8 L 197.9,88.9" style="fill:none;fill-rule:evenodd;stroke:#000000;stroke-width:2.0px;stroke-linecap:butt;stroke-linejoin:miter;stroke-opacity:1"/>
<path class="bond-5 atom-5 atom-6" d="M 197.9,88.9 L 224.9,106.3" style="fill:none;fill-rule:evenodd;stroke:#000000;stroke-width:2.0px;stroke-linecap:butt;stroke-linejoin:miter;stroke-opacity:1"/>
<path class="bond-6 atom-6 atom-7" d="M 224.9,106.3 L 224.3,119.6" style="fill:none;fill-rule:evenodd;stroke:#000000;stroke-width:2.0px;stroke-linecap:butt;stroke-linejoin:miter;stroke-opacity:1"/>
<path class="bond-6 atom-6 atom-7" d="M 224.3,119.6 L 223.6,132.8" style="fill:none;fill-rule:evenodd;stroke:#FF0000;stroke-width:2.0px;stroke-linecap:butt;stroke-linejoin:miter;stroke-opacity:1"/>
<path class="bond-7 atom-5 atom-8" d="M 197.9,88.9 L 169.3,103.6" style="fill:none;fill-rule:evenodd;stroke:#000000;stroke-width:2.0px;stroke-linecap:butt;stroke-linejoin:miter;stroke-opacity:1"/>
<path class="bond-8 atom-8 atom-9" d="M 169.3,103.6 L 167.7,135.7" style="fill:none;fill-rule:evenodd;stroke:#000000;stroke-width:2.0px;stroke-linecap:butt;stroke-linejoin:miter;stroke-opacity:1"/>
<path class="bond-9 atom-9 atom-10" d="M 167.7,135.7 L 139.1,150.4" style="fill:none;fill-rule:evenodd;stroke:#000000;stroke-width:2.0px;stroke-linecap:butt;stroke-linejoin:miter;stroke-opacity:1"/>
<path class="bond-10 atom-9 atom-11" d="M 167.7,135.7 L 194.8,153.1" style="fill:none;fill-rule:evenodd;stroke:#000000;stroke-width:2.0px;stroke-linecap:butt;stroke-linejoin:miter;stroke-opacity:1"/>
<path class="bond-11 atom-11 atom-12" d="M 194.8,153.1 L 194.1,166.4" style="fill:none;fill-rule:evenodd;stroke:#000000;stroke-width:2.0px;stroke-linecap:butt;stroke-linejoin:miter;stroke-opacity:1"/>
<path class="bond-11 atom-11 atom-12" d="M 194.1,166.4 L 193.5,179.6" style="fill:none;fill-rule:evenodd;stroke:#FF0000;stroke-width:2.0px;stroke-linecap:butt;stroke-linejoin:miter;stroke-opacity:1"/>
<path class="bond-12 atom-8 atom-13" d="M 169.3,103.6 L 142.3,86.2" style="fill:none;fill-rule:evenodd;stroke:#000000;stroke-width:2.0px;stroke-linecap:butt;stroke-linejoin:miter;stroke-opacity:1"/>
<path class="bond-13 atom-13 atom-14" d="M 142.3,86.2 L 143.9,54.1" style="fill:none;fill-rule:evenodd;stroke:#000000;stroke-width:2.0px;stroke-linecap:butt;stroke-linejoin:miter;stroke-opacity:1"/>
<path class="bond-14 atom-14 atom-15" d="M 143.9,54.1 L 139.3,51.1" style="fill:none;fill-rule:evenodd;stroke:#000000;stroke-width:2.0px;stroke-linecap:butt;stroke-linejoin:miter;stroke-opacity:1"/>
<path class="bond-14 atom-14 atom-15" d="M 139.3,51.1 L 134.7,48.2" style="fill:none;fill-rule:evenodd;stroke:#FF0000;stroke-width:2.0px;stroke-linecap:butt;stroke-linejoin:miter;stroke-opacity:1"/>
<path class="bond-15 atom-13 atom-16" d="M 142.3,86.2 L 113.7,100.9" style="fill:none;fill-rule:evenodd;stroke:#000000;stroke-width:2.0px;stroke-linecap:butt;stroke-linejoin:miter;stroke-opacity:1"/>
<path class="bond-16 atom-16 atom-17" d="M 113.7,100.9 L 86.7,83.5" style="fill:none;fill-rule:evenodd;stroke:#000000;stroke-width:2.0px;stroke-linecap:butt;stroke-linejoin:miter;stroke-opacity:1"/>
<path class="bond-17 atom-17 atom-18" d="M 86.7,83.5 L 59.7,66.0" style="fill:none;fill-rule:evenodd;stroke:#000000;stroke-width:2.0px;stroke-linecap:butt;stroke-linejoin:miter;stroke-opacity:1"/>
<path class="bond-18 atom-17 atom-19" d="M 86.7,83.5 L 104.1,56.4" style="fill:none;fill-rule:evenodd;stroke:#000000;stroke-width:2.0px;stroke-linecap:butt;stroke-linejoin:miter;stroke-opacity:1"/>
<path class="bond-19 atom-19 atom-20" d="M 106.5,56.0 L 100.4,44.2" style="fill:none;fill-rule:evenodd;stroke:#000000;stroke-width:2.0px;stroke-linecap:butt;stroke-linejoin:miter;stroke-opacity:1"/>
<path class="bond-19 atom-19 atom-20" d="M 100.4,44.2 L 94.4,32.5" style="fill:none;fill-rule:evenodd;stroke:#FF0000;stroke-width:2.0px;stroke-linecap:butt;stroke-linejoin:miter;stroke-opacity:1"/>
<path class="bond-19 atom-19 atom-20" d="M 102.6,58.7 L 96.3,46.4" style="fill:none;fill-rule:evenodd;stroke:#000000;stroke-width:2.0px;stroke-linecap:butt;stroke-linejoin:miter;stroke-opacity:1"/>
<path class="bond-19 atom-19 atom-20" d="M 96.3,46.4 L 90.3,34.7" style="fill:none;fill-rule:evenodd;stroke:#FF0000;stroke-width:2.0px;stroke-linecap:butt;stroke-linejoin:miter;stroke-opacity:1"/>
<path class="bond-20 atom-19 atom-21" d="M 104.1,56.4 L 109.9,55.3" style="fill:none;fill-rule:evenodd;stroke:#000000;stroke-width:2.0px;stroke-linecap:butt;stroke-linejoin:miter;stroke-opacity:1"/>
<path class="bond-20 atom-19 atom-21" d="M 109.9,55.3 L 115.7,54.1" style="fill:none;fill-rule:evenodd;stroke:#FF0000;stroke-width:2.0px;stroke-linecap:butt;stroke-linejoin:miter;stroke-opacity:1"/>
<path class="bond-21 atom-17 atom-22" d="M 86.7,83.5 L 69.3,110.5" style="fill:none;fill-rule:evenodd;stroke:#000000;stroke-width:2.0px;stroke-linecap:butt;stroke-linejoin:miter;stroke-opacity:1"/>
<path class="bond-22 atom-22 atom-23" d="M 69.3,110.5 L 37.1,108.9" style="fill:none;fill-rule:evenodd;stroke:#000000;stroke-width:2.0px;stroke-linecap:butt;stroke-linejoin:miter;stroke-opacity:1"/>
<path class="bond-23 atom-22 atom-24" d="M 69.3,110.5 L 75.2,122.0" style="fill:none;fill-rule:evenodd;stroke:#000000;stroke-width:2.0px;stroke-linecap:butt;stroke-linejoin:miter;stroke-opacity:1"/>
<path class="bond-23 atom-22 atom-24" d="M 75.2,122.0 L 81.1,133.4" style="fill:none;fill-rule:evenodd;stroke:#FF0000;stroke-width:2.0px;stroke-linecap:butt;stroke-linejoin:miter;stroke-opacity:1"/>
<path d="M 253.8,58.7 L 255.1,59.5 L 255.1,60.2" style="fill:none;stroke:#000000;stroke-width:2.0px;stroke-linecap:butt;stroke-linejoin:miter;stroke-opacity:1;"/>
<path d="M 200.9,56.1 L 199.5,56.8 L 199.4,58.4" style="fill:none;stroke:#000000;stroke-width:2.0px;stroke-linecap:butt;stroke-linejoin:miter;stroke-opacity:1;"/>
<path d="M 223.6,105.5 L 224.9,106.3 L 224.9,107.0" style="fill:none;stroke:#000000;stroke-width:2.0px;stroke-linecap:butt;stroke-linejoin:miter;stroke-opacity:1;"/>
<path d="M 193.4,152.3 L 194.8,153.1 L 194.7,153.8" style="fill:none;stroke:#000000;stroke-width:2.0px;stroke-linecap:butt;stroke-linejoin:miter;stroke-opacity:1;"/>
<path d="M 143.8,55.7 L 143.9,54.1 L 143.6,53.9" style="fill:none;stroke:#000000;stroke-width:2.0px;stroke-linecap:butt;stroke-linejoin:miter;stroke-opacity:1;"/>
<path d="M 115.1,100.1 L 113.7,100.9 L 112.3,100.0" style="fill:none;stroke:#000000;stroke-width:2.0px;stroke-linecap:butt;stroke-linejoin:miter;stroke-opacity:1;"/>
<path d="M 103.2,57.8 L 104.1,56.4 L 104.4,56.4" style="fill:none;stroke:#000000;stroke-width:2.0px;stroke-linecap:butt;stroke-linejoin:miter;stroke-opacity:1;"/>
<path class="atom-3" d="M 249.4 91.7 Q 249.4 89.5, 250.4 88.3 Q 251.5 87.0, 253.5 87.0 Q 255.6 87.0, 256.6 88.3 Q 257.7 89.5, 257.7 91.7 Q 257.7 93.9, 256.6 95.1 Q 255.5 96.4, 253.5 96.4 Q 251.5 96.4, 250.4 95.1 Q 249.4 93.9, 249.4 91.7 M 253.5 95.4 Q 254.9 95.4, 255.7 94.4 Q 256.4 93.5, 256.4 91.7 Q 256.4 89.9, 255.7 89.0 Q 254.9 88.1, 253.5 88.1 Q 252.1 88.1, 251.4 89.0 Q 250.6 89.9, 250.6 91.7 Q 250.6 93.5, 251.4 94.4 Q 252.1 95.4, 253.5 95.4 " fill="#FF0000"/>
<path class="atom-3" d="M 259.1 87.1 L 260.4 87.1 L 260.4 91.0 L 265.0 91.0 L 265.0 87.1 L 266.3 87.1 L 266.3 96.3 L 265.0 96.3 L 265.0 92.0 L 260.4 92.0 L 260.4 96.3 L 259.1 96.3 L 259.1 87.1 " fill="#FF0000"/>
<path class="atom-7" d="M 219.2 138.5 Q 219.2 136.3, 220.3 135.1 Q 221.3 133.8, 223.4 133.8 Q 225.4 133.8, 226.5 135.1 Q 227.5 136.3, 227.5 138.5 Q 227.5 140.7, 226.4 141.9 Q 225.4 143.2, 223.4 143.2 Q 221.4 143.2, 220.3 141.9 Q 219.2 140.7, 219.2 138.5 M 223.4 142.2 Q 224.8 142.2, 225.5 141.2 Q 226.3 140.3, 226.3 138.5 Q 226.3 136.7, 225.5 135.8 Q 224.8 134.9, 223.4 134.9 Q 222.0 134.9, 221.2 135.8 Q 220.5 136.7, 220.5 138.5 Q 220.5 140.3, 221.2 141.2 Q 222.0 142.2, 223.4 142.2 " fill="#FF0000"/>
<path class="atom-7" d="M 229.0 134.0 L 230.2 134.0 L 230.2 137.8 L 234.8 137.8 L 234.8 134.0 L 236.1 134.0 L 236.1 143.1 L 234.8 143.1 L 234.8 138.9 L 230.2 138.9 L 230.2 143.1 L 229.0 143.1 L 229.0 134.0 " fill="#FF0000"/>
<path class="atom-12" d="M 189.0 185.3 Q 189.0 183.1, 190.1 181.9 Q 191.2 180.7, 193.2 180.7 Q 195.2 180.7, 196.3 181.9 Q 197.4 183.1, 197.4 185.3 Q 197.4 187.5, 196.3 188.8 Q 195.2 190.0, 193.2 190.0 Q 191.2 190.0, 190.1 188.8 Q 189.0 187.5, 189.0 185.3 M 193.2 189.0 Q 194.6 189.0, 195.3 188.0 Q 196.1 187.1, 196.1 185.3 Q 196.1 183.5, 195.3 182.6 Q 194.6 181.7, 193.2 181.7 Q 191.8 181.7, 191.0 182.6 Q 190.3 183.5, 190.3 185.3 Q 190.3 187.1, 191.0 188.0 Q 191.8 189.0, 193.2 189.0 " fill="#FF0000"/>
<path class="atom-12" d="M 198.8 180.8 L 200.0 180.8 L 200.0 184.6 L 204.7 184.6 L 204.7 180.8 L 205.9 180.8 L 205.9 189.9 L 204.7 189.9 L 204.7 185.7 L 200.0 185.7 L 200.0 189.9 L 198.8 189.9 L 198.8 180.8 " fill="#FF0000"/>
<path class="atom-15" d="M 116.3 40.3 L 117.6 40.3 L 117.6 44.2 L 122.2 44.2 L 122.2 40.3 L 123.5 40.3 L 123.5 49.4 L 122.2 49.4 L 122.2 45.2 L 117.6 45.2 L 117.6 49.4 L 116.3 49.4 L 116.3 40.3 " fill="#FF0000"/>
<path class="atom-15" d="M 125.3 44.8 Q 125.3 42.7, 126.4 41.4 Q 127.5 40.2, 129.5 40.2 Q 131.5 40.2, 132.6 41.4 Q 133.7 42.7, 133.7 44.8 Q 133.7 47.0, 132.6 48.3 Q 131.5 49.6, 129.5 49.6 Q 127.5 49.6, 126.4 48.3 Q 125.3 47.1, 125.3 44.8 M 129.5 48.5 Q 130.9 48.5, 131.6 47.6 Q 132.4 46.7, 132.4 44.8 Q 132.4 43.0, 131.6 42.1 Q 130.9 41.2, 129.5 41.2 Q 128.1 41.2, 127.4 42.1 Q 126.6 43.0, 126.6 44.8 Q 126.6 46.7, 127.4 47.6 Q 128.1 48.5, 129.5 48.5 " fill="#FF0000"/>
<path class="atom-20" d="M 85.2 27.9 Q 85.2 25.7, 86.3 24.4 Q 87.4 23.2, 89.4 23.2 Q 91.4 23.2, 92.5 24.4 Q 93.6 25.7, 93.6 27.9 Q 93.6 30.1, 92.5 31.3 Q 91.4 32.6, 89.4 32.6 Q 87.4 32.6, 86.3 31.3 Q 85.2 30.1, 85.2 27.9 M 89.4 31.5 Q 90.8 31.5, 91.5 30.6 Q 92.3 29.7, 92.3 27.9 Q 92.3 26.1, 91.5 25.2 Q 90.8 24.3, 89.4 24.3 Q 88.0 24.3, 87.3 25.2 Q 86.5 26.1, 86.5 27.9 Q 86.5 29.7, 87.3 30.6 Q 88.0 31.5, 89.4 31.5 " fill="#FF0000"/>
<path class="atom-21" d="M 116.7 53.1 Q 116.7 51.0, 117.8 49.7 Q 118.8 48.5, 120.9 48.5 Q 122.9 48.5, 124.0 49.7 Q 125.0 51.0, 125.0 53.1 Q 125.0 55.4, 123.9 56.6 Q 122.9 57.9, 120.9 57.9 Q 118.9 57.9, 117.8 56.6 Q 116.7 55.4, 116.7 53.1 M 120.9 56.8 Q 122.2 56.8, 123.0 55.9 Q 123.8 55.0, 123.8 53.1 Q 123.8 51.4, 123.0 50.5 Q 122.2 49.5, 120.9 49.5 Q 119.5 49.5, 118.7 50.4 Q 118.0 51.3, 118.0 53.1 Q 118.0 55.0, 118.7 55.9 Q 119.5 56.8, 120.9 56.8 " fill="#FF0000"/>
<path class="atom-21" d="M 126.5 48.6 L 127.7 48.6 L 127.7 52.5 L 132.3 52.5 L 132.3 48.6 L 133.6 48.6 L 133.6 57.7 L 132.3 57.7 L 132.3 53.5 L 127.7 53.5 L 127.7 57.7 L 126.5 57.7 L 126.5 48.6 " fill="#FF0000"/>
<path class="atom-24" d="M 79.8 139.1 Q 79.8 136.9, 80.8 135.7 Q 81.9 134.5, 83.9 134.5 Q 86.0 134.5, 87.0 135.7 Q 88.1 136.9, 88.1 139.1 Q 88.1 141.3, 87.0 142.6 Q 85.9 143.8, 83.9 143.8 Q 81.9 143.8, 80.8 142.6 Q 79.8 141.3, 79.8 139.1 M 83.9 142.8 Q 85.3 142.8, 86.1 141.9 Q 86.8 140.9, 86.8 139.1 Q 86.8 137.3, 86.1 136.4 Q 85.3 135.5, 83.9 135.5 Q 82.6 135.5, 81.8 136.4 Q 81.0 137.3, 81.0 139.1 Q 81.0 140.9, 81.8 141.9 Q 82.6 142.8, 83.9 142.8 " fill="#FF0000"/>
<path class="atom-24" d="M 89.5 134.6 L 90.8 134.6 L 90.8 138.4 L 95.4 138.4 L 95.4 134.6 L 96.7 134.6 L 96.7 143.7 L 95.4 143.7 L 95.4 139.5 L 90.8 139.5 L 90.8 143.7 L 89.5 143.7 L 89.5 134.6 " fill="#FF0000"/>
</svg>
