<?xml version='1.0' encoding='ASCII' standalone='yes'?>
<svg xmlns="http://www.w3.org/2000/svg" xmlns:rdkit="http://www.rdkit.org/xml" xmlns:xlink="http://www.w3.org/1999/xlink" version="1.1" baseProfile="full" xml:space="preserve" width="326px" height="200px" viewBox="0 0 326 200">
<!-- END OF HEADER -->
<rect style="opacity:1.0;fill:#FFFFFF;stroke:none" width="326.0" height="200.0" x="0.0" y="0.0"> </rect>
<path class="bond-0 atom-0 atom-1" d="M 36.7,10.0 L 70.7,15.6" style="fill:none;fill-rule:evenodd;stroke:#000000;stroke-width:2.0px;stroke-linecap:butt;stroke-linejoin:miter;stroke-opacity:1"/>
<path class="bond-1 atom-1 atom-2" d="M 70.7,15.6 L 82.8,47.8" style="fill:none;fill-rule:evenodd;stroke:#000000;stroke-width:2.0px;stroke-linecap:butt;stroke-linejoin:miter;stroke-opacity:1"/>
<path class="bond-2 atom-2 atom-3" d="M 82.8,47.8 L 115.0,35.6" style="fill:none;fill-rule:evenodd;stroke:#000000;stroke-width:2.0px;stroke-linecap:butt;stroke-linejoin:miter;stroke-opacity:1"/>
<path class="bond-3 atom-3 atom-4" d="M 115.0,35.6 L 125.5,44.2" style="fill:none;fill-rule:evenodd;stroke:#000000;stroke-width:2.0px;stroke-linecap:butt;stroke-linejoin:miter;stroke-opacity:1"/>
<path class="bond-3 atom-3 atom-4" d="M 125.5,44.2 L 136.0,52.8" style="fill:none;fill-rule:evenodd;stroke:#FF0000;stroke-width:2.0px;stroke-linecap:butt;stroke-linejoin:miter;stroke-opacity:1"/>
<path class="bond-4 atom-2 atom-5" d="M 82.8,47.8 L 95.0,80.0" style="fill:none;fill-rule:evenodd;stroke:#000000;stroke-width:2.0px;stroke-linecap:butt;stroke-linejoin:miter;stroke-opacity:1"/>
<path class="bond-5 atom-5 atom-6" d="M 95.0,80.0 L 73.2,106.6" style="fill:none;fill-rule:evenodd;stroke:#000000;stroke-width:2.0px;stroke-linecap:butt;stroke-linejoin:miter;stroke-opacity:1"/>
<path class="bond-6 atom-6 atom-7" d="M 73.2,106.6 L 85.3,138.8" style="fill:none;fill-rule:evenodd;stroke:#000000;stroke-width:2.0px;stroke-linecap:butt;stroke-linejoin:miter;stroke-opacity:1"/>
<path class="bond-7 atom-7 atom-8" d="M 85.3,138.8 L 97.5,171.0" style="fill:none;fill-rule:evenodd;stroke:#000000;stroke-width:2.0px;stroke-linecap:butt;stroke-linejoin:miter;stroke-opacity:1"/>
<path class="bond-8 atom-7 atom-9" d="M 85.3,138.8 L 117.5,126.6" style="fill:none;fill-rule:evenodd;stroke:#000000;stroke-width:2.0px;stroke-linecap:butt;stroke-linejoin:miter;stroke-opacity:1"/>
<path class="bond-9 atom-9 atom-10" d="M 117.5,126.6 L 144.2,148.5" style="fill:none;fill-rule:evenodd;stroke:#000000;stroke-width:2.0px;stroke-linecap:butt;stroke-linejoin:miter;stroke-opacity:1"/>
<path class="bond-10 atom-10 atom-11" d="M 144.2,148.5 L 176.4,136.3" style="fill:none;fill-rule:evenodd;stroke:#000000;stroke-width:2.0px;stroke-linecap:butt;stroke-linejoin:miter;stroke-opacity:1"/>
<path class="bond-11 atom-11 atom-12" d="M 176.4,136.3 L 188.5,168.5" style="fill:none;fill-rule:evenodd;stroke:#000000;stroke-width:2.0px;stroke-linecap:butt;stroke-linejoin:miter;stroke-opacity:1"/>
<path class="bond-12 atom-12 atom-13" d="M 188.5,168.5 L 202.7,170.8" style="fill:none;fill-rule:evenodd;stroke:#000000;stroke-width:2.0px;stroke-linecap:butt;stroke-linejoin:miter;stroke-opacity:1"/>
<path class="bond-12 atom-12 atom-13" d="M 202.7,170.8 L 216.9,173.2" style="fill:none;fill-rule:evenodd;stroke:#FF0000;stroke-width:2.0px;stroke-linecap:butt;stroke-linejoin:miter;stroke-opacity:1"/>
<path class="bond-13 atom-11 atom-14" d="M 176.4,136.3 L 208.6,124.1" style="fill:none;fill-rule:evenodd;stroke:#000000;stroke-width:2.0px;stroke-linecap:butt;stroke-linejoin:miter;stroke-opacity:1"/>
<path class="bond-14 atom-14 atom-15" d="M 208.6,124.1 L 214.1,90.2" style="fill:none;fill-rule:evenodd;stroke:#000000;stroke-width:2.0px;stroke-linecap:butt;stroke-linejoin:miter;stroke-opacity:1"/>
<path class="bond-15 atom-15 atom-16" d="M 214.1,90.2 L 246.3,78.0" style="fill:none;fill-rule:evenodd;stroke:#000000;stroke-width:2.0px;stroke-linecap:butt;stroke-linejoin:miter;stroke-opacity:1"/>
<path class="bond-16 atom-16 atom-17" d="M 246.3,78.0 L 278.5,65.9" style="fill:none;fill-rule:evenodd;stroke:#000000;stroke-width:2.0px;stroke-linecap:butt;stroke-linejoin:miter;stroke-opacity:1"/>
<path class="bond-17 atom-16 atom-18" d="M 246.3,78.0 L 258.5,110.2" style="fill:none;fill-rule:evenodd;stroke:#000000;stroke-width:2.0px;stroke-linecap:butt;stroke-linejoin:miter;stroke-opacity:1"/>
<path class="bond-18 atom-18 atom-19" d="M 258.5,110.2 L 272.7,112.6" style="fill:none;fill-rule:evenodd;stroke:#000000;stroke-width:2.0px;stroke-linecap:butt;stroke-linejoin:miter;stroke-opacity:1"/>
<path class="bond-18 atom-18 atom-19" d="M 272.7,112.6 L 286.8,114.9" style="fill:none;fill-rule:evenodd;stroke:#FF0000;stroke-width:2.0px;stroke-linecap:butt;stroke-linejoin:miter;stroke-opacity:1"/>
<path class="bond-19 atom-16 atom-20" d="M 246.3,78.0 L 234.2,45.8" style="fill:none;fill-rule:evenodd;stroke:#000000;stroke-width:2.0px;stroke-linecap:butt;stroke-linejoin:miter;stroke-opacity:1"/>
<path class="bond-20 atom-20 atom-21" d="M 236.1,43.5 L 221.2,41.1" style="fill:none;fill-rule:evenodd;stroke:#000000;stroke-width:2.0px;stroke-linecap:butt;stroke-linejoin:miter;stroke-opacity:1"/>
<path class="bond-20 atom-20 atom-21" d="M 221.2,41.1 L 206.2,38.6" style="fill:none;fill-rule:evenodd;stroke:#FF0000;stroke-width:2.0px;stroke-linecap:butt;stroke-linejoin:miter;stroke-opacity:1"/>
<path class="bond-20 atom-20 atom-21" d="M 235.2,48.6 L 220.3,46.2" style="fill:none;fill-rule:evenodd;stroke:#000000;stroke-width:2.0px;stroke-linecap:butt;stroke-linejoin:miter;stroke-opacity:1"/>
<path class="bond-20 atom-20 atom-21" d="M 220.3,46.2 L 205.4,43.7" style="fill:none;fill-rule:evenodd;stroke:#FF0000;stroke-width:2.0px;stroke-linecap:butt;stroke-linejoin:miter;stroke-opacity:1"/>
<path class="bond-21 atom-20 atom-22" d="M 234.2,45.8 L 242.5,35.6" style="fill:none;fill-rule:evenodd;stroke:#000000;stroke-width:2.0px;stroke-linecap:butt;stroke-linejoin:miter;stroke-opacity:1"/>
<path class="bond-21 atom-20 atom-22" d="M 242.5,35.6 L 250.9,25.4" style="fill:none;fill-rule:evenodd;stroke:#FF0000;stroke-width:2.0px;stroke-linecap:butt;stroke-linejoin:miter;stroke-opacity:1"/>
<path class="bond-22 atom-11 atom-23" d="M 176.4,136.3 L 164.2,104.1" style="fill:none;fill-rule:evenodd;stroke:#000000;stroke-width:2.0px;stroke-linecap:butt;stroke-linejoin:miter;stroke-opacity:1"/>
<path class="bond-23 atom-23 atom-24" d="M 166.1,101.8 L 151.2,99.3" style="fill:none;fill-rule:evenodd;stroke:#000000;stroke-width:2.0px;stroke-linecap:butt;stroke-linejoin:miter;stroke-opacity:1"/>
<path class="bond-23 atom-23 atom-24" d="M 151.2,99.3 L 136.3,96.9" style="fill:none;fill-rule:evenodd;stroke:#FF0000;stroke-width:2.0px;stroke-linecap:butt;stroke-linejoin:miter;stroke-opacity:1"/>
<path class="bond-23 atom-23 atom-24" d="M 165.3,106.9 L 150.3,104.4" style="fill:none;fill-rule:evenodd;stroke:#000000;stroke-width:2.0px;stroke-linecap:butt;stroke-linejoin:miter;stroke-opacity:1"/>
<path class="bond-23 atom-23 atom-24" d="M 150.3,104.4 L 135.4,102.0" style="fill:none;fill-rule:evenodd;stroke:#FF0000;stroke-width:2.0px;stroke-linecap:butt;stroke-linejoin:miter;stroke-opacity:1"/>
<path class="bond-24 atom-23 atom-25" d="M 164.2,104.1 L 172.6,93.9" style="fill:none;fill-rule:evenodd;stroke:#000000;stroke-width:2.0px;stroke-linecap:butt;stroke-linejoin:miter;stroke-opacity:1"/>
<path class="bond-24 atom-23 atom-25" d="M 172.6,93.9 L 180.9,83.7" style="fill:none;fill-rule:evenodd;stroke:#FF0000;stroke-width:2.0px;stroke-linecap:butt;stroke-linejoin:miter;stroke-opacity:1"/>
<path class="bond-25 atom-7 atom-26" d="M 85.3,138.8 L 53.1,151.0" style="fill:none;fill-rule:evenodd;stroke:#000000;stroke-width:2.0px;stroke-linecap:butt;stroke-linejoin:miter;stroke-opacity:1"/>
<path class="bond-26 atom-26 atom-27" d="M 55.9,149.9 L 44.8,140.8" style="fill:none;fill-rule:evenodd;stroke:#000000;stroke-width:2.0px;stroke-linecap:butt;stroke-linejoin:miter;stroke-opacity:1"/>
<path class="bond-26 atom-26 atom-27" d="M 44.8,140.8 L 33.7,131.7" style="fill:none;fill-rule:evenodd;stroke:#FF0000;stroke-width:2.0px;stroke-linecap:butt;stroke-linejoin:miter;stroke-opacity:1"/>
<path class="bond-26 atom-26 atom-27" d="M 52.6,153.9 L 41.6,144.8" style="fill:none;fill-rule:evenodd;stroke:#000000;stroke-width:2.0px;stroke-linecap:butt;stroke-linejoin:miter;stroke-opacity:1"/>
<path class="bond-26 atom-26 atom-27" d="M 41.6,144.8 L 30.5,135.7" style="fill:none;fill-rule:evenodd;stroke:#FF0000;stroke-width:2.0px;stroke-linecap:butt;stroke-linejoin:miter;stroke-opacity:1"/>
<path class="bond-27 atom-26 atom-28" d="M 53.1,151.0 L 50.8,164.9" style="fill:none;fill-rule:evenodd;stroke:#000000;stroke-width:2.0px;stroke-linecap:butt;stroke-linejoin:miter;stroke-opacity:1"/>
<path class="bond-27 atom-26 atom-28" d="M 50.8,164.9 L 48.6,178.9" style="fill:none;fill-rule:evenodd;stroke:#FF0000;stroke-width:2.0px;stroke-linecap:butt;stroke-linejoin:miter;stroke-opacity:1"/>
<path class="bond-28 atom-2 atom-29" d="M 82.8,47.8 L 50.6,59.9" style="fill:none;fill-rule:evenodd;stroke:#000000;stroke-width:2.0px;stroke-linecap:butt;stroke-linejoin:miter;stroke-opacity:1"/>
<path class="bond-29 atom-29 atom-30" d="M 53.4,58.9 L 42.3,49.8" style="fill:none;fill-rule:evenodd;stroke:#000000;stroke-width:2.0px;stroke-linecap:butt;stroke-linejoin:miter;stroke-opacity:1"/>
<path class="bond-29 atom-29 atom-30" d="M 42.3,49.8 L 31.3,40.7" style="fill:none;fill-rule:evenodd;stroke:#FF0000;stroke-width:2.0px;stroke-linecap:butt;stroke-linejoin:miter;stroke-opacity:1"/>
<path class="bond-29 atom-29 atom-30" d="M 50.1,62.9 L 39.1,53.8" style="fill:none;fill-rule:evenodd;stroke:#000000;stroke-width:2.0px;stroke-linecap:butt;stroke-linejoin:miter;stroke-opacity:1"/>
<path class="bond-29 atom-29 atom-30" d="M 39.1,53.8 L 28.0,44.7" style="fill:none;fill-rule:evenodd;stroke:#FF0000;stroke-width:2.0px;stroke-linecap:butt;stroke-linejoin:miter;stroke-opacity:1"/>
<path class="bond-30 atom-29 atom-31" d="M 50.6,59.9 L 48.3,73.9" style="fill:none;fill-rule:evenodd;stroke:#000000;stroke-width:2.0px;stroke-linecap:butt;stroke-linejoin:miter;stroke-opacity:1"/>
<path class="bond-30 atom-29 atom-31" d="M 48.3,73.9 L 46.1,87.8" style="fill:none;fill-rule:evenodd;stroke:#FF0000;stroke-width:2.0px;stroke-linecap:butt;stroke-linejoin:miter;stroke-opacity:1"/>
<path d="M 69.0,15.3 L 70.7,15.6 L 71.3,17.2" style="fill:none;stroke:#000000;stroke-width:2.0px;stroke-linecap:butt;stroke-linejoin:miter;stroke-opacity:1;"/>
<path d="M 113.4,36.2 L 115.0,35.6 L 115.6,36.1" style="fill:none;stroke:#000000;stroke-width:2.0px;stroke-linecap:butt;stroke-linejoin:miter;stroke-opacity:1;"/>
<path d="M 94.4,78.4 L 95.0,80.0 L 93.9,81.3" style="fill:none;stroke:#000000;stroke-width:2.0px;stroke-linecap:butt;stroke-linejoin:miter;stroke-opacity:1;"/>
<path d="M 74.3,105.3 L 73.2,106.6 L 73.8,108.2" style="fill:none;stroke:#000000;stroke-width:2.0px;stroke-linecap:butt;stroke-linejoin:miter;stroke-opacity:1;"/>
<path d="M 115.9,127.3 L 117.5,126.6 L 118.9,127.7" style="fill:none;stroke:#000000;stroke-width:2.0px;stroke-linecap:butt;stroke-linejoin:miter;stroke-opacity:1;"/>
<path d="M 142.8,147.4 L 144.2,148.5 L 145.8,147.8" style="fill:none;stroke:#000000;stroke-width:2.0px;stroke-linecap:butt;stroke-linejoin:miter;stroke-opacity:1;"/>
<path d="M 187.9,166.9 L 188.5,168.5 L 189.2,168.6" style="fill:none;stroke:#000000;stroke-width:2.0px;stroke-linecap:butt;stroke-linejoin:miter;stroke-opacity:1;"/>
<path d="M 206.9,124.8 L 208.6,124.1 L 208.8,122.4" style="fill:none;stroke:#000000;stroke-width:2.0px;stroke-linecap:butt;stroke-linejoin:miter;stroke-opacity:1;"/>
<path d="M 213.9,91.9 L 214.1,90.2 L 215.7,89.6" style="fill:none;stroke:#000000;stroke-width:2.0px;stroke-linecap:butt;stroke-linejoin:miter;stroke-opacity:1;"/>
<path d="M 257.9,108.6 L 258.5,110.2 L 259.2,110.3" style="fill:none;stroke:#000000;stroke-width:2.0px;stroke-linecap:butt;stroke-linejoin:miter;stroke-opacity:1;"/>
<path d="M 234.8,47.4 L 234.2,45.8 L 234.6,45.3" style="fill:none;stroke:#000000;stroke-width:2.0px;stroke-linecap:butt;stroke-linejoin:miter;stroke-opacity:1;"/>
<path d="M 164.8,105.7 L 164.2,104.1 L 164.6,103.6" style="fill:none;stroke:#000000;stroke-width:2.0px;stroke-linecap:butt;stroke-linejoin:miter;stroke-opacity:1;"/>
<path d="M 54.7,150.3 L 53.1,151.0 L 53.0,151.7" style="fill:none;stroke:#000000;stroke-width:2.0px;stroke-linecap:butt;stroke-linejoin:miter;stroke-opacity:1;"/>
<path d="M 52.2,59.3 L 50.6,59.9 L 50.5,60.6" style="fill:none;stroke:#000000;stroke-width:2.0px;stroke-linecap:butt;stroke-linejoin:miter;stroke-opacity:1;"/>
<path class="atom-4" d="M 137.2 57.5 Q 137.2 55.1, 138.3 53.8 Q 139.5 52.5, 141.7 52.5 Q 143.8 52.5, 145.0 53.8 Q 146.1 55.1, 146.1 57.5 Q 146.1 59.8, 145.0 61.2 Q 143.8 62.5, 141.7 62.5 Q 139.5 62.5, 138.3 61.2 Q 137.2 59.8, 137.2 57.5 M 141.7 61.4 Q 143.1 61.4, 143.9 60.4 Q 144.8 59.4, 144.8 57.5 Q 144.8 55.5, 143.9 54.6 Q 143.1 53.6, 141.7 53.6 Q 140.2 53.6, 139.4 54.6 Q 138.6 55.5, 138.6 57.5 Q 138.6 59.4, 139.4 60.4 Q 140.2 61.4, 141.7 61.4 " fill="#FF0000"/>
<path class="atom-4" d="M 147.6 52.6 L 149.0 52.6 L 149.0 56.8 L 154.0 56.8 L 154.0 52.6 L 155.3 52.6 L 155.3 62.4 L 154.0 62.4 L 154.0 57.9 L 149.0 57.9 L 149.0 62.4 L 147.6 62.4 L 147.6 52.6 " fill="#FF0000"/>
<path class="atom-13" d="M 218.0 174.1 Q 218.0 171.8, 219.2 170.5 Q 220.3 169.1, 222.5 169.1 Q 224.6 169.1, 225.8 170.5 Q 227.0 171.8, 227.0 174.1 Q 227.0 176.5, 225.8 177.8 Q 224.6 179.2, 222.5 179.2 Q 220.3 179.2, 219.2 177.8 Q 218.0 176.5, 218.0 174.1 M 222.5 178.1 Q 224.0 178.1, 224.8 177.1 Q 225.6 176.1, 225.6 174.1 Q 225.6 172.2, 224.8 171.2 Q 224.0 170.2, 222.5 170.2 Q 221.0 170.2, 220.2 171.2 Q 219.4 172.2, 219.4 174.1 Q 219.4 176.1, 220.2 177.1 Q 221.0 178.1, 222.5 178.1 " fill="#FF0000"/>
<path class="atom-13" d="M 228.5 169.3 L 229.8 169.3 L 229.8 173.4 L 234.8 173.4 L 234.8 169.3 L 236.1 169.3 L 236.1 179.0 L 234.8 179.0 L 234.8 174.5 L 229.8 174.5 L 229.8 179.0 L 228.5 179.0 L 228.5 169.3 " fill="#FF0000"/>
<path class="atom-19" d="M 288.0 115.8 Q 288.0 113.5, 289.1 112.2 Q 290.3 110.9, 292.5 110.9 Q 294.6 110.9, 295.8 112.2 Q 296.9 113.5, 296.9 115.8 Q 296.9 118.2, 295.8 119.5 Q 294.6 120.9, 292.5 120.9 Q 290.3 120.9, 289.1 119.5 Q 288.0 118.2, 288.0 115.8 M 292.5 119.8 Q 293.9 119.8, 294.7 118.8 Q 295.5 117.8, 295.5 115.8 Q 295.5 113.9, 294.7 113.0 Q 293.9 112.0, 292.5 112.0 Q 291.0 112.0, 290.2 112.9 Q 289.4 113.9, 289.4 115.8 Q 289.4 117.8, 290.2 118.8 Q 291.0 119.8, 292.5 119.8 " fill="#FF0000"/>
<path class="atom-19" d="M 298.4 111.0 L 299.8 111.0 L 299.8 115.1 L 304.7 115.1 L 304.7 111.0 L 306.1 111.0 L 306.1 120.7 L 304.7 120.7 L 304.7 116.2 L 299.8 116.2 L 299.8 120.7 L 298.4 120.7 L 298.4 111.0 " fill="#FF0000"/>
<path class="atom-21" d="M 195.7 40.3 Q 195.7 37.9, 196.9 36.6 Q 198.1 35.3, 200.2 35.3 Q 202.4 35.3, 203.5 36.6 Q 204.7 37.9, 204.7 40.3 Q 204.7 42.7, 203.5 44.0 Q 202.3 45.3, 200.2 45.3 Q 198.1 45.3, 196.9 44.0 Q 195.7 42.7, 195.7 40.3 M 200.2 44.2 Q 201.7 44.2, 202.5 43.2 Q 203.3 42.2, 203.3 40.3 Q 203.3 38.4, 202.5 37.4 Q 201.7 36.4, 200.2 36.4 Q 198.7 36.4, 197.9 37.4 Q 197.1 38.4, 197.1 40.3 Q 197.1 42.3, 197.9 43.2 Q 198.7 44.2, 200.2 44.2 " fill="#FF0000"/>
<path class="atom-22" d="M 251.5 19.2 Q 251.5 16.9, 252.7 15.6 Q 253.8 14.3, 256.0 14.3 Q 258.1 14.3, 259.3 15.6 Q 260.5 16.9, 260.5 19.2 Q 260.5 21.6, 259.3 22.9 Q 258.1 24.3, 256.0 24.3 Q 253.8 24.3, 252.7 22.9 Q 251.5 21.6, 251.5 19.2 M 256.0 23.2 Q 257.5 23.2, 258.3 22.2 Q 259.1 21.2, 259.1 19.2 Q 259.1 17.3, 258.3 16.4 Q 257.5 15.4, 256.0 15.4 Q 254.5 15.4, 253.7 16.3 Q 252.9 17.3, 252.9 19.2 Q 252.9 21.2, 253.7 22.2 Q 254.5 23.2, 256.0 23.2 " fill="#FF0000"/>
<path class="atom-22" d="M 262.0 14.4 L 263.3 14.4 L 263.3 18.5 L 268.3 18.5 L 268.3 14.4 L 269.6 14.4 L 269.6 24.1 L 268.3 24.1 L 268.3 19.6 L 263.3 19.6 L 263.3 24.1 L 262.0 24.1 L 262.0 14.4 " fill="#FF0000"/>
<path class="atom-24" d="M 125.8 98.6 Q 125.8 96.2, 126.9 94.9 Q 128.1 93.6, 130.2 93.6 Q 132.4 93.6, 133.6 94.9 Q 134.7 96.2, 134.7 98.6 Q 134.7 100.9, 133.5 102.3 Q 132.4 103.6, 130.2 103.6 Q 128.1 103.6, 126.9 102.3 Q 125.8 100.9, 125.8 98.6 M 130.2 102.5 Q 131.7 102.5, 132.5 101.5 Q 133.3 100.5, 133.3 98.6 Q 133.3 96.6, 132.5 95.7 Q 131.7 94.7, 130.2 94.7 Q 128.8 94.7, 127.9 95.7 Q 127.1 96.6, 127.1 98.6 Q 127.1 100.5, 127.9 101.5 Q 128.8 102.5, 130.2 102.5 " fill="#FF0000"/>
<path class="atom-25" d="M 181.5 77.5 Q 181.5 75.2, 182.7 73.9 Q 183.9 72.5, 186.0 72.5 Q 188.2 72.5, 189.3 73.9 Q 190.5 75.2, 190.5 77.5 Q 190.5 79.9, 189.3 81.2 Q 188.1 82.6, 186.0 82.6 Q 183.9 82.6, 182.7 81.2 Q 181.5 79.9, 181.5 77.5 M 186.0 81.5 Q 187.5 81.5, 188.3 80.5 Q 189.1 79.5, 189.1 77.5 Q 189.1 75.6, 188.3 74.6 Q 187.5 73.6, 186.0 73.6 Q 184.5 73.6, 183.7 74.6 Q 182.9 75.6, 182.9 77.5 Q 182.9 79.5, 183.7 80.5 Q 184.5 81.5, 186.0 81.5 " fill="#FF0000"/>
<path class="atom-25" d="M 192.0 72.7 L 193.3 72.7 L 193.3 76.8 L 198.3 76.8 L 198.3 72.7 L 199.6 72.7 L 199.6 82.4 L 198.3 82.4 L 198.3 77.9 L 193.3 77.9 L 193.3 82.4 L 192.0 82.4 L 192.0 72.7 " fill="#FF0000"/>
<path class="atom-27" d="M 22.0 129.2 Q 22.0 126.8, 23.2 125.5 Q 24.3 124.2, 26.5 124.2 Q 28.7 124.2, 29.8 125.5 Q 31.0 126.8, 31.0 129.2 Q 31.0 131.5, 29.8 132.9 Q 28.6 134.2, 26.5 134.2 Q 24.4 134.2, 23.2 132.9 Q 22.0 131.6, 22.0 129.2 M 26.5 133.1 Q 28.0 133.1, 28.8 132.1 Q 29.6 131.1, 29.6 129.2 Q 29.6 127.3, 28.8 126.3 Q 28.0 125.3, 26.5 125.3 Q 25.0 125.3, 24.2 126.3 Q 23.4 127.2, 23.4 129.2 Q 23.4 131.1, 24.2 132.1 Q 25.0 133.1, 26.5 133.1 " fill="#FF0000"/>
<path class="atom-28" d="M 43.1 184.9 Q 43.1 182.6, 44.2 181.3 Q 45.4 180.0, 47.6 180.0 Q 49.7 180.0, 50.9 181.3 Q 52.0 182.6, 52.0 184.9 Q 52.0 187.3, 50.9 188.7 Q 49.7 190.0, 47.6 190.0 Q 45.4 190.0, 44.2 188.7 Q 43.1 187.3, 43.1 184.9 M 47.6 188.9 Q 49.0 188.9, 49.8 187.9 Q 50.7 186.9, 50.7 184.9 Q 50.7 183.0, 49.8 182.1 Q 49.0 181.1, 47.6 181.1 Q 46.1 181.1, 45.3 182.1 Q 44.5 183.0, 44.5 184.9 Q 44.5 186.9, 45.3 187.9 Q 46.1 188.9, 47.6 188.9 " fill="#FF0000"/>
<path class="atom-28" d="M 53.5 180.1 L 54.9 180.1 L 54.9 184.2 L 59.9 184.2 L 59.9 180.1 L 61.2 180.1 L 61.2 189.8 L 59.9 189.8 L 59.9 185.3 L 54.9 185.3 L 54.9 189.8 L 53.5 189.8 L 53.5 180.1 " fill="#FF0000"/>
<path class="atom-30" d="M 19.5 38.1 Q 19.5 35.8, 20.7 34.5 Q 21.8 33.2, 24.0 33.2 Q 26.2 33.2, 27.3 34.5 Q 28.5 35.8, 28.5 38.1 Q 28.5 40.5, 27.3 41.9 Q 26.1 43.2, 24.0 43.2 Q 21.9 43.2, 20.7 41.9 Q 19.5 40.5, 19.5 38.1 M 24.0 42.1 Q 25.5 42.1, 26.3 41.1 Q 27.1 40.1, 27.1 38.1 Q 27.1 36.2, 26.3 35.3 Q 25.5 34.3, 24.0 34.3 Q 22.5 34.3, 21.7 35.3 Q 20.9 36.2, 20.9 38.1 Q 20.9 40.1, 21.7 41.1 Q 22.5 42.1, 24.0 42.1 " fill="#FF0000"/>
<path class="atom-31" d="M 40.6 93.9 Q 40.6 91.6, 41.7 90.3 Q 42.9 89.0, 45.1 89.0 Q 47.2 89.0, 48.4 90.3 Q 49.5 91.6, 49.5 93.9 Q 49.5 96.3, 48.4 97.6 Q 47.2 99.0, 45.1 99.0 Q 42.9 99.0, 41.7 97.6 Q 40.6 96.3, 40.6 93.9 M 45.1 97.9 Q 46.5 97.9, 47.3 96.9 Q 48.2 95.9, 48.2 93.9 Q 48.2 92.0, 47.3 91.0 Q 46.5 90.1, 45.1 90.1 Q 43.6 90.1, 42.8 91.0 Q 42.0 92.0, 42.0 93.9 Q 42.0 95.9, 42.8 96.9 Q 43.6 97.9, 45.1 97.9 " fill="#FF0000"/>
<path class="atom-31" d="M 51.0 89.1 L 52.4 89.1 L 52.4 93.2 L 57.4 93.2 L 57.4 89.1 L 58.7 89.1 L 58.7 98.8 L 57.4 98.8 L 57.4 94.3 L 52.4 94.3 L 52.4 98.8 L 51.0 98.8 L 51.0 89.1 " fill="#FF0000"/>
</svg>
