<?xml version='1.0' encoding='ASCII' standalone='yes'?>
<svg xmlns="http://www.w3.org/2000/svg" xmlns:rdkit="http://www.rdkit.org/xml" xmlns:xlink="http://www.w3.org/1999/xlink" version="1.1" baseProfile="full" xml:space="preserve" width="304px" height="200px" viewBox="0 0 304 200">
<!-- END OF HEADER -->
<rect style="opacity:1.0;fill:#FFFFFF;stroke:none" width="304.0" height="200.0" x="0.0" y="0.0"> </rect>
<path class="bond-0 atom-0 atom-1" d="M 101.4,10.0 L 111.8,39.9" style="fill:none;fill-rule:evenodd;stroke:#000000;stroke-width:2.0px;stroke-linecap:butt;stroke-linejoin:miter;stroke-opacity:1"/>
<path class="bond-1 atom-1 atom-2" d="M 111.8,39.9 L 124.8,42.3" style="fill:none;fill-rule:evenodd;stroke:#000000;stroke-width:2.0px;stroke-linecap:butt;stroke-linejoin:miter;stroke-opacity:1"/>
<path class="bond-1 atom-1 atom-2" d="M 124.8,42.3 L 137.8,44.8" style="fill:none;fill-rule:evenodd;stroke:#FF0000;stroke-width:2.0px;stroke-linecap:butt;stroke-linejoin:miter;stroke-opacity:1"/>
<path class="bond-2 atom-1 atom-3" d="M 111.8,39.9 L 91.1,63.8" style="fill:none;fill-rule:evenodd;stroke:#000000;stroke-width:2.0px;stroke-linecap:butt;stroke-linejoin:miter;stroke-opacity:1"/>
<path class="bond-3 atom-3 atom-4" d="M 91.1,63.8 L 67.2,43.2" style="fill:none;fill-rule:evenodd;stroke:#000000;stroke-width:2.0px;stroke-linecap:butt;stroke-linejoin:miter;stroke-opacity:1"/>
<path class="bond-4 atom-3 atom-5" d="M 91.1,63.8 L 115.1,84.5" style="fill:none;fill-rule:evenodd;stroke:#000000;stroke-width:2.0px;stroke-linecap:butt;stroke-linejoin:miter;stroke-opacity:1"/>
<path class="bond-5 atom-5 atom-6" d="M 115.1,84.5 L 109.2,115.6" style="fill:none;fill-rule:evenodd;stroke:#000000;stroke-width:2.0px;stroke-linecap:butt;stroke-linejoin:miter;stroke-opacity:1"/>
<path class="bond-6 atom-6 atom-7" d="M 109.2,115.6 L 90.6,114.4" style="fill:none;fill-rule:evenodd;stroke:#000000;stroke-width:2.0px;stroke-linecap:butt;stroke-linejoin:miter;stroke-opacity:1"/>
<path class="bond-7 atom-6 atom-8" d="M 109.2,115.6 L 140.3,121.5" style="fill:none;fill-rule:evenodd;stroke:#000000;stroke-width:2.0px;stroke-linecap:butt;stroke-linejoin:miter;stroke-opacity:1"/>
<path class="bond-8 atom-8 atom-9" d="M 140.3,121.5 L 161.0,97.5" style="fill:none;fill-rule:evenodd;stroke:#000000;stroke-width:2.0px;stroke-linecap:butt;stroke-linejoin:miter;stroke-opacity:1"/>
<path class="bond-9 atom-9 atom-10" d="M 161.0,97.5 L 137.0,76.9" style="fill:none;fill-rule:evenodd;stroke:#000000;stroke-width:2.0px;stroke-linecap:butt;stroke-linejoin:miter;stroke-opacity:1"/>
<path class="bond-10 atom-9 atom-11" d="M 161.0,97.5 L 184.9,118.2" style="fill:none;fill-rule:evenodd;stroke:#000000;stroke-width:2.0px;stroke-linecap:butt;stroke-linejoin:miter;stroke-opacity:1"/>
<path class="bond-11 atom-9 atom-12" d="M 161.0,97.5 L 181.6,73.6" style="fill:none;fill-rule:evenodd;stroke:#000000;stroke-width:2.0px;stroke-linecap:butt;stroke-linejoin:miter;stroke-opacity:1"/>
<path class="bond-12 atom-12 atom-13" d="M 181.6,73.6 L 212.7,79.5" style="fill:none;fill-rule:evenodd;stroke:#000000;stroke-width:2.0px;stroke-linecap:butt;stroke-linejoin:miter;stroke-opacity:1"/>
<path class="bond-13 atom-13 atom-14" d="M 212.7,79.5 L 233.4,55.5" style="fill:none;fill-rule:evenodd;stroke:#000000;stroke-width:2.0px;stroke-linecap:butt;stroke-linejoin:miter;stroke-opacity:1"/>
<path class="bond-14 atom-14 atom-15" d="M 233.4,55.5 L 246.3,58.0" style="fill:none;fill-rule:evenodd;stroke:#000000;stroke-width:2.0px;stroke-linecap:butt;stroke-linejoin:miter;stroke-opacity:1"/>
<path class="bond-14 atom-14 atom-15" d="M 246.3,58.0 L 259.3,60.4" style="fill:none;fill-rule:evenodd;stroke:#FF0000;stroke-width:2.0px;stroke-linecap:butt;stroke-linejoin:miter;stroke-opacity:1"/>
<path class="bond-15 atom-13 atom-16" d="M 212.7,79.5 L 223.1,109.3" style="fill:none;fill-rule:evenodd;stroke:#000000;stroke-width:2.0px;stroke-linecap:butt;stroke-linejoin:miter;stroke-opacity:1"/>
<path class="bond-16 atom-16 atom-17" d="M 222.3,106.8 L 213.9,116.6" style="fill:none;fill-rule:evenodd;stroke:#000000;stroke-width:2.0px;stroke-linecap:butt;stroke-linejoin:miter;stroke-opacity:1"/>
<path class="bond-16 atom-16 atom-17" d="M 213.9,116.6 L 205.5,126.3" style="fill:none;fill-rule:evenodd;stroke:#FF0000;stroke-width:2.0px;stroke-linecap:butt;stroke-linejoin:miter;stroke-opacity:1"/>
<path class="bond-16 atom-16 atom-17" d="M 225.7,109.8 L 217.3,119.5" style="fill:none;fill-rule:evenodd;stroke:#000000;stroke-width:2.0px;stroke-linecap:butt;stroke-linejoin:miter;stroke-opacity:1"/>
<path class="bond-16 atom-16 atom-17" d="M 217.3,119.5 L 209.0,129.3" style="fill:none;fill-rule:evenodd;stroke:#FF0000;stroke-width:2.0px;stroke-linecap:butt;stroke-linejoin:miter;stroke-opacity:1"/>
<path class="bond-17 atom-16 atom-18" d="M 223.1,109.3 L 236.1,111.8" style="fill:none;fill-rule:evenodd;stroke:#000000;stroke-width:2.0px;stroke-linecap:butt;stroke-linejoin:miter;stroke-opacity:1"/>
<path class="bond-17 atom-16 atom-18" d="M 236.1,111.8 L 249.1,114.3" style="fill:none;fill-rule:evenodd;stroke:#FF0000;stroke-width:2.0px;stroke-linecap:butt;stroke-linejoin:miter;stroke-opacity:1"/>
<path class="bond-18 atom-6 atom-19" d="M 109.2,115.6 L 103.3,146.7" style="fill:none;fill-rule:evenodd;stroke:#000000;stroke-width:2.0px;stroke-linecap:butt;stroke-linejoin:miter;stroke-opacity:1"/>
<path class="bond-19 atom-19 atom-20" d="M 103.8,144.1 L 90.8,148.6" style="fill:none;fill-rule:evenodd;stroke:#000000;stroke-width:2.0px;stroke-linecap:butt;stroke-linejoin:miter;stroke-opacity:1"/>
<path class="bond-19 atom-19 atom-20" d="M 90.8,148.6 L 77.8,153.1" style="fill:none;fill-rule:evenodd;stroke:#FF0000;stroke-width:2.0px;stroke-linecap:butt;stroke-linejoin:miter;stroke-opacity:1"/>
<path class="bond-19 atom-19 atom-20" d="M 105.3,148.4 L 92.3,152.9" style="fill:none;fill-rule:evenodd;stroke:#000000;stroke-width:2.0px;stroke-linecap:butt;stroke-linejoin:miter;stroke-opacity:1"/>
<path class="bond-19 atom-19 atom-20" d="M 92.3,152.9 L 79.3,157.5" style="fill:none;fill-rule:evenodd;stroke:#FF0000;stroke-width:2.0px;stroke-linecap:butt;stroke-linejoin:miter;stroke-opacity:1"/>
<path class="bond-20 atom-19 atom-21" d="M 103.3,146.7 L 112.7,154.8" style="fill:none;fill-rule:evenodd;stroke:#000000;stroke-width:2.0px;stroke-linecap:butt;stroke-linejoin:miter;stroke-opacity:1"/>
<path class="bond-20 atom-19 atom-21" d="M 112.7,154.8 L 122.1,162.9" style="fill:none;fill-rule:evenodd;stroke:#FF0000;stroke-width:2.0px;stroke-linecap:butt;stroke-linejoin:miter;stroke-opacity:1"/>
<path class="bond-21 atom-3 atom-22" d="M 91.1,63.8 L 70.5,87.8" style="fill:none;fill-rule:evenodd;stroke:#000000;stroke-width:2.0px;stroke-linecap:butt;stroke-linejoin:miter;stroke-opacity:1"/>
<path class="bond-22 atom-22 atom-23" d="M 68.0,87.3 L 69.5,94.2" style="fill:none;fill-rule:evenodd;stroke:#000000;stroke-width:2.0px;stroke-linecap:butt;stroke-linejoin:miter;stroke-opacity:1"/>
<path class="bond-22 atom-22 atom-23" d="M 69.5,94.2 L 71.0,101.0" style="fill:none;fill-rule:evenodd;stroke:#FF0000;stroke-width:2.0px;stroke-linecap:butt;stroke-linejoin:miter;stroke-opacity:1"/>
<path class="bond-22 atom-22 atom-23" d="M 72.4,85.6 L 74.0,93.2" style="fill:none;fill-rule:evenodd;stroke:#000000;stroke-width:2.0px;stroke-linecap:butt;stroke-linejoin:miter;stroke-opacity:1"/>
<path class="bond-22 atom-22 atom-23" d="M 74.0,93.2 L 75.5,100.0" style="fill:none;fill-rule:evenodd;stroke:#FF0000;stroke-width:2.0px;stroke-linecap:butt;stroke-linejoin:miter;stroke-opacity:1"/>
<path class="bond-23 atom-22 atom-24" d="M 70.5,87.8 L 57.5,85.3" style="fill:none;fill-rule:evenodd;stroke:#000000;stroke-width:2.0px;stroke-linecap:butt;stroke-linejoin:miter;stroke-opacity:1"/>
<path class="bond-23 atom-22 atom-24" d="M 57.5,85.3 L 44.5,82.9" style="fill:none;fill-rule:evenodd;stroke:#FF0000;stroke-width:2.0px;stroke-linecap:butt;stroke-linejoin:miter;stroke-opacity:1"/>
<path d="M 113.9,83.5 L 115.1,84.5 L 114.8,86.1" style="fill:none;stroke:#000000;stroke-width:2.0px;stroke-linecap:butt;stroke-linejoin:miter;stroke-opacity:1;"/>
<path d="M 138.7,121.2 L 140.3,121.5 L 141.3,120.3" style="fill:none;stroke:#000000;stroke-width:2.0px;stroke-linecap:butt;stroke-linejoin:miter;stroke-opacity:1;"/>
<path d="M 180.6,74.8 L 181.6,73.6 L 183.2,73.9" style="fill:none;stroke:#000000;stroke-width:2.0px;stroke-linecap:butt;stroke-linejoin:miter;stroke-opacity:1;"/>
<path d="M 232.3,56.7 L 233.4,55.5 L 234.0,55.6" style="fill:none;stroke:#000000;stroke-width:2.0px;stroke-linecap:butt;stroke-linejoin:miter;stroke-opacity:1;"/>
<path d="M 222.6,107.8 L 223.1,109.3 L 223.8,109.5" style="fill:none;stroke:#000000;stroke-width:2.0px;stroke-linecap:butt;stroke-linejoin:miter;stroke-opacity:1;"/>
<path d="M 103.6,145.1 L 103.3,146.7 L 103.8,147.1" style="fill:none;stroke:#000000;stroke-width:2.0px;stroke-linecap:butt;stroke-linejoin:miter;stroke-opacity:1;"/>
<path d="M 71.5,86.6 L 70.5,87.8 L 69.8,87.7" style="fill:none;stroke:#000000;stroke-width:2.0px;stroke-linecap:butt;stroke-linejoin:miter;stroke-opacity:1;"/>
<path class="atom-2" d="M 138.8 45.8 Q 138.8 43.7, 139.8 42.5 Q 140.9 41.3, 142.9 41.3 Q 144.9 41.3, 145.9 42.5 Q 147.0 43.7, 147.0 45.8 Q 147.0 48.0, 145.9 49.2 Q 144.9 50.5, 142.9 50.5 Q 140.9 50.5, 139.8 49.2 Q 138.8 48.0, 138.8 45.8 M 142.9 49.4 Q 144.3 49.4, 145.0 48.5 Q 145.7 47.6, 145.7 45.8 Q 145.7 44.0, 145.0 43.2 Q 144.3 42.3, 142.9 42.3 Q 141.5 42.3, 140.8 43.1 Q 140.0 44.0, 140.0 45.8 Q 140.0 47.6, 140.8 48.5 Q 141.5 49.4, 142.9 49.4 " fill="#FF0000"/>
<path class="atom-2" d="M 148.4 41.4 L 149.6 41.4 L 149.6 45.2 L 154.2 45.2 L 154.2 41.4 L 155.4 41.4 L 155.4 50.3 L 154.2 50.3 L 154.2 46.2 L 149.6 46.2 L 149.6 50.3 L 148.4 50.3 L 148.4 41.4 " fill="#FF0000"/>
<path class="atom-15" d="M 260.3 61.4 Q 260.3 59.3, 261.4 58.1 Q 262.5 56.9, 264.4 56.9 Q 266.4 56.9, 267.5 58.1 Q 268.6 59.3, 268.6 61.4 Q 268.6 63.6, 267.5 64.8 Q 266.4 66.1, 264.4 66.1 Q 262.5 66.1, 261.4 64.8 Q 260.3 63.6, 260.3 61.4 M 264.4 65.1 Q 265.8 65.1, 266.5 64.2 Q 267.3 63.2, 267.3 61.4 Q 267.3 59.7, 266.5 58.8 Q 265.8 57.9, 264.4 57.9 Q 263.1 57.9, 262.3 58.8 Q 261.6 59.7, 261.6 61.4 Q 261.6 63.2, 262.3 64.2 Q 263.1 65.1, 264.4 65.1 " fill="#FF0000"/>
<path class="atom-15" d="M 269.9 57.0 L 271.2 57.0 L 271.2 60.8 L 275.7 60.8 L 275.7 57.0 L 277.0 57.0 L 277.0 65.9 L 275.7 65.9 L 275.7 61.8 L 271.2 61.8 L 271.2 65.9 L 269.9 65.9 L 269.9 57.0 " fill="#FF0000"/>
<path class="atom-17" d="M 198.4 133.3 Q 198.4 131.2, 199.4 130.0 Q 200.5 128.8, 202.5 128.8 Q 204.5 128.8, 205.5 130.0 Q 206.6 131.2, 206.6 133.3 Q 206.6 135.5, 205.5 136.7 Q 204.4 138.0, 202.5 138.0 Q 200.5 138.0, 199.4 136.7 Q 198.4 135.5, 198.4 133.3 M 202.5 137.0 Q 203.8 137.0, 204.6 136.1 Q 205.3 135.1, 205.3 133.3 Q 205.3 131.6, 204.6 130.7 Q 203.8 129.8, 202.5 129.8 Q 201.1 129.8, 200.4 130.7 Q 199.6 131.6, 199.6 133.3 Q 199.6 135.1, 200.4 136.1 Q 201.1 137.0, 202.5 137.0 " fill="#FF0000"/>
<path class="atom-18" d="M 250.1 115.3 Q 250.1 113.1, 251.2 111.9 Q 252.2 110.7, 254.2 110.7 Q 256.2 110.7, 257.3 111.9 Q 258.3 113.1, 258.3 115.3 Q 258.3 117.4, 257.2 118.7 Q 256.2 119.9, 254.2 119.9 Q 252.2 119.9, 251.2 118.7 Q 250.1 117.5, 250.1 115.3 M 254.2 118.9 Q 255.6 118.9, 256.3 118.0 Q 257.1 117.1, 257.1 115.3 Q 257.1 113.5, 256.3 112.6 Q 255.6 111.7, 254.2 111.7 Q 252.8 111.7, 252.1 112.6 Q 251.4 113.5, 251.4 115.3 Q 251.4 117.1, 252.1 118.0 Q 252.8 118.9, 254.2 118.9 " fill="#FF0000"/>
<path class="atom-18" d="M 259.7 110.8 L 260.9 110.8 L 260.9 114.6 L 265.5 114.6 L 265.5 110.8 L 266.7 110.8 L 266.7 119.8 L 265.5 119.8 L 265.5 115.6 L 260.9 115.6 L 260.9 119.8 L 259.7 119.8 L 259.7 110.8 " fill="#FF0000"/>
<path class="atom-20" d="M 69.3 157.1 Q 69.3 155.0, 70.4 153.8 Q 71.4 152.6, 73.4 152.6 Q 75.4 152.6, 76.5 153.8 Q 77.5 155.0, 77.5 157.1 Q 77.5 159.3, 76.5 160.5 Q 75.4 161.8, 73.4 161.8 Q 71.5 161.8, 70.4 160.5 Q 69.3 159.3, 69.3 157.1 M 73.4 160.8 Q 74.8 160.8, 75.5 159.8 Q 76.3 158.9, 76.3 157.1 Q 76.3 155.4, 75.5 154.5 Q 74.8 153.6, 73.4 153.6 Q 72.1 153.6, 71.3 154.5 Q 70.6 155.4, 70.6 157.1 Q 70.6 158.9, 71.3 159.8 Q 72.1 160.8, 73.4 160.8 " fill="#FF0000"/>
<path class="atom-21" d="M 123.2 167.4 Q 123.2 165.2, 124.2 164.0 Q 125.3 162.8, 127.3 162.8 Q 129.3 162.8, 130.3 164.0 Q 131.4 165.2, 131.4 167.4 Q 131.4 169.5, 130.3 170.8 Q 129.2 172.0, 127.3 172.0 Q 125.3 172.0, 124.2 170.8 Q 123.2 169.5, 123.2 167.4 M 127.3 171.0 Q 128.6 171.0, 129.4 170.1 Q 130.1 169.2, 130.1 167.4 Q 130.1 165.6, 129.4 164.7 Q 128.6 163.8, 127.3 163.8 Q 125.9 163.8, 125.2 164.7 Q 124.4 165.6, 124.4 167.4 Q 124.4 169.2, 125.2 170.1 Q 125.9 171.0, 127.3 171.0 " fill="#FF0000"/>
<path class="atom-21" d="M 132.8 162.9 L 134.0 162.9 L 134.0 166.7 L 138.6 166.7 L 138.6 162.9 L 139.8 162.9 L 139.8 171.9 L 138.6 171.9 L 138.6 167.7 L 134.0 167.7 L 134.0 171.9 L 132.8 171.9 L 132.8 162.9 " fill="#FF0000"/>
<path class="atom-23" d="M 70.3 106.1 Q 70.3 103.9, 71.4 102.7 Q 72.5 101.5, 74.4 101.5 Q 76.4 101.5, 77.5 102.7 Q 78.6 103.9, 78.6 106.1 Q 78.6 108.3, 77.5 109.5 Q 76.4 110.7, 74.4 110.7 Q 72.5 110.7, 71.4 109.5 Q 70.3 108.3, 70.3 106.1 M 74.4 109.7 Q 75.8 109.7, 76.6 108.8 Q 77.3 107.9, 77.3 106.1 Q 77.3 104.3, 76.6 103.4 Q 75.8 102.6, 74.4 102.6 Q 73.1 102.6, 72.3 103.4 Q 71.6 104.3, 71.6 106.1 Q 71.6 107.9, 72.3 108.8 Q 73.1 109.7, 74.4 109.7 " fill="#FF0000"/>
<path class="atom-24" d="M 26.4 77.5 L 27.7 77.5 L 27.7 81.3 L 32.2 81.3 L 32.2 77.5 L 33.5 77.5 L 33.5 86.4 L 32.2 86.4 L 32.2 82.3 L 27.7 82.3 L 27.7 86.4 L 26.4 86.4 L 26.4 77.5 " fill="#FF0000"/>
<path class="atom-24" d="M 35.3 81.9 Q 35.3 79.8, 36.4 78.6 Q 37.4 77.4, 39.4 77.4 Q 41.4 77.4, 42.5 78.6 Q 43.5 79.8, 43.5 81.9 Q 43.5 84.1, 42.4 85.3 Q 41.4 86.6, 39.4 86.6 Q 37.4 86.6, 36.4 85.3 Q 35.3 84.1, 35.3 81.9 M 39.4 85.6 Q 40.8 85.6, 41.5 84.6 Q 42.3 83.7, 42.3 81.9 Q 42.3 80.2, 41.5 79.3 Q 40.8 78.4, 39.4 78.4 Q 38.0 78.4, 37.3 79.3 Q 36.6 80.2, 36.6 81.9 Q 36.6 83.7, 37.3 84.6 Q 38.0 85.6, 39.4 85.6 " fill="#FF0000"/>
<path class="legend" d="M 142.7 181.9 Q 142.7 179.6, 143.4 177.7 Q 144.0 175.8, 145.3 173.8 L 146.2 174.4 Q 145.2 176.3, 144.6 178.0 Q 144.1 179.7, 144.1 181.9 Q 144.1 184.0, 144.6 185.8 Q 145.2 187.5, 146.2 189.4 L 145.3 190.0 Q 144.0 188.0, 143.4 186.1 Q 142.7 184.2, 142.7 181.9 " fill="#000000"/>
<path class="legend" d="M 147.1 177.3 Q 147.6 176.2, 148.5 175.6 Q 149.5 175.0, 150.9 175.0 Q 152.6 175.0, 153.6 175.9 Q 154.5 176.8, 154.5 178.5 Q 154.5 180.2, 153.3 181.7 Q 152.1 183.3, 149.5 185.2 L 154.7 185.2 L 154.7 186.4 L 147.1 186.4 L 147.1 185.4 Q 149.2 183.9, 150.5 182.8 Q 151.7 181.6, 152.3 180.6 Q 152.9 179.6, 152.9 178.6 Q 152.9 177.5, 152.4 176.9 Q 151.9 176.3, 150.9 176.3 Q 150.0 176.3, 149.4 176.6 Q 148.8 177.0, 148.4 177.8 L 147.1 177.3 " fill="#000000"/>
<path class="legend" d="M 159.7 181.9 Q 159.7 184.2, 159.0 186.1 Q 158.4 188.0, 157.1 190.0 L 156.2 189.4 Q 157.2 187.5, 157.7 185.8 Q 158.3 184.0, 158.3 181.9 Q 158.3 179.7, 157.7 178.0 Q 157.2 176.3, 156.2 174.4 L 157.1 173.8 Q 158.4 175.8, 159.0 177.7 Q 159.7 179.6, 159.7 181.9 " fill="#000000"/>
</svg>
