<?xml version='1.0' encoding='ASCII' standalone='yes'?>
<svg xmlns="http://www.w3.org/2000/svg" xmlns:rdkit="http://www.rdkit.org/xml" xmlns:xlink="http://www.w3.org/1999/xlink" version="1.1" baseProfile="full" xml:space="preserve" width="326px" height="200px" viewBox="0 0 326 200">
<!-- END OF HEADER -->
<rect style="opacity:1.0;fill:#FFFFFF;stroke:none" width="326.0" height="200.0" x="0.0" y="0.0"> </rect>
<path class="bond-0 atom-0 atom-1" d="M 171.6,65.3 L 151.8,83.6" style="fill:none;fill-rule:evenodd;stroke:#000000;stroke-width:2.0px;stroke-linecap:butt;stroke-linejoin:miter;stroke-opacity:1"/>
<path class="bond-1 atom-1 atom-2" d="M 151.8,83.6 L 133.5,63.8" style="fill:none;fill-rule:evenodd;stroke:#000000;stroke-width:2.0px;stroke-linecap:butt;stroke-linejoin:miter;stroke-opacity:1"/>
<path class="bond-2 atom-2 atom-3" d="M 133.5,63.8 L 136.7,53.4" style="fill:none;fill-rule:evenodd;stroke:#000000;stroke-width:2.0px;stroke-linecap:butt;stroke-linejoin:miter;stroke-opacity:1"/>
<path class="bond-2 atom-2 atom-3" d="M 136.7,53.4 L 139.9,42.9" style="fill:none;fill-rule:evenodd;stroke:#FF0000;stroke-width:2.0px;stroke-linecap:butt;stroke-linejoin:miter;stroke-opacity:1"/>
<path class="bond-3 atom-1 atom-4" d="M 151.8,83.6 L 132.0,101.9" style="fill:none;fill-rule:evenodd;stroke:#000000;stroke-width:2.0px;stroke-linecap:butt;stroke-linejoin:miter;stroke-opacity:1"/>
<path class="bond-4 atom-4 atom-5" d="M 132.0,101.9 L 106.2,93.9" style="fill:none;fill-rule:evenodd;stroke:#000000;stroke-width:2.0px;stroke-linecap:butt;stroke-linejoin:miter;stroke-opacity:1"/>
<path class="bond-5 atom-5 atom-6" d="M 106.2,93.9 L 80.5,86.0" style="fill:none;fill-rule:evenodd;stroke:#000000;stroke-width:2.0px;stroke-linecap:butt;stroke-linejoin:miter;stroke-opacity:1"/>
<path class="bond-6 atom-5 atom-7" d="M 106.2,93.9 L 114.2,68.2" style="fill:none;fill-rule:evenodd;stroke:#000000;stroke-width:2.0px;stroke-linecap:butt;stroke-linejoin:miter;stroke-opacity:1"/>
<path class="bond-7 atom-7 atom-8" d="M 114.2,68.2 L 107.3,60.7" style="fill:none;fill-rule:evenodd;stroke:#000000;stroke-width:2.0px;stroke-linecap:butt;stroke-linejoin:miter;stroke-opacity:1"/>
<path class="bond-7 atom-7 atom-8" d="M 107.3,60.7 L 100.3,53.1" style="fill:none;fill-rule:evenodd;stroke:#FF0000;stroke-width:2.0px;stroke-linecap:butt;stroke-linejoin:miter;stroke-opacity:1"/>
<path class="bond-8 atom-5 atom-9" d="M 106.2,93.9 L 98.3,119.7" style="fill:none;fill-rule:evenodd;stroke:#000000;stroke-width:2.0px;stroke-linecap:butt;stroke-linejoin:miter;stroke-opacity:1"/>
<path class="bond-9 atom-9 atom-10" d="M 98.3,119.7 L 105.2,127.2" style="fill:none;fill-rule:evenodd;stroke:#000000;stroke-width:2.0px;stroke-linecap:butt;stroke-linejoin:miter;stroke-opacity:1"/>
<path class="bond-9 atom-9 atom-10" d="M 105.2,127.2 L 112.2,134.7" style="fill:none;fill-rule:evenodd;stroke:#FF0000;stroke-width:2.0px;stroke-linecap:butt;stroke-linejoin:miter;stroke-opacity:1"/>
<path class="bond-10 atom-9 atom-11" d="M 98.3,119.7 L 72.0,125.7" style="fill:none;fill-rule:evenodd;stroke:#000000;stroke-width:2.0px;stroke-linecap:butt;stroke-linejoin:miter;stroke-opacity:1"/>
<path class="bond-11 atom-11 atom-12" d="M 72.0,125.7 L 66.0,99.4" style="fill:none;fill-rule:evenodd;stroke:#000000;stroke-width:2.0px;stroke-linecap:butt;stroke-linejoin:miter;stroke-opacity:1"/>
<path class="bond-12 atom-11 atom-13" d="M 72.0,125.7 L 77.9,151.9" style="fill:none;fill-rule:evenodd;stroke:#000000;stroke-width:2.0px;stroke-linecap:butt;stroke-linejoin:miter;stroke-opacity:1"/>
<path class="bond-13 atom-11 atom-14" d="M 72.0,125.7 L 45.7,131.6" style="fill:none;fill-rule:evenodd;stroke:#000000;stroke-width:2.0px;stroke-linecap:butt;stroke-linejoin:miter;stroke-opacity:1"/>
<path class="bond-14 atom-14 atom-15" d="M 44.1,129.9 L 40.6,141.0" style="fill:none;fill-rule:evenodd;stroke:#000000;stroke-width:2.0px;stroke-linecap:butt;stroke-linejoin:miter;stroke-opacity:1"/>
<path class="bond-14 atom-14 atom-15" d="M 40.6,141.0 L 37.2,152.0" style="fill:none;fill-rule:evenodd;stroke:#FF0000;stroke-width:2.0px;stroke-linecap:butt;stroke-linejoin:miter;stroke-opacity:1"/>
<path class="bond-14 atom-14 atom-15" d="M 47.9,131.1 L 44.5,142.2" style="fill:none;fill-rule:evenodd;stroke:#000000;stroke-width:2.0px;stroke-linecap:butt;stroke-linejoin:miter;stroke-opacity:1"/>
<path class="bond-14 atom-14 atom-15" d="M 44.5,142.2 L 41.1,153.2" style="fill:none;fill-rule:evenodd;stroke:#FF0000;stroke-width:2.0px;stroke-linecap:butt;stroke-linejoin:miter;stroke-opacity:1"/>
<path class="bond-15 atom-14 atom-16" d="M 45.7,131.6 L 38.7,124.1" style="fill:none;fill-rule:evenodd;stroke:#000000;stroke-width:2.0px;stroke-linecap:butt;stroke-linejoin:miter;stroke-opacity:1"/>
<path class="bond-15 atom-14 atom-16" d="M 38.7,124.1 L 31.7,116.6" style="fill:none;fill-rule:evenodd;stroke:#FF0000;stroke-width:2.0px;stroke-linecap:butt;stroke-linejoin:miter;stroke-opacity:1"/>
<path class="bond-16 atom-1 atom-17" d="M 151.8,83.6 L 170.1,103.4" style="fill:none;fill-rule:evenodd;stroke:#000000;stroke-width:2.0px;stroke-linecap:butt;stroke-linejoin:miter;stroke-opacity:1"/>
<path class="bond-17 atom-17 atom-18" d="M 170.1,103.4 L 166.8,113.9" style="fill:none;fill-rule:evenodd;stroke:#000000;stroke-width:2.0px;stroke-linecap:butt;stroke-linejoin:miter;stroke-opacity:1"/>
<path class="bond-17 atom-17 atom-18" d="M 166.8,113.9 L 163.6,124.4" style="fill:none;fill-rule:evenodd;stroke:#FF0000;stroke-width:2.0px;stroke-linecap:butt;stroke-linejoin:miter;stroke-opacity:1"/>
<path class="bond-18 atom-17 atom-19" d="M 170.1,103.4 L 196.4,97.4" style="fill:none;fill-rule:evenodd;stroke:#000000;stroke-width:2.0px;stroke-linecap:butt;stroke-linejoin:miter;stroke-opacity:1"/>
<path class="bond-19 atom-19 atom-20" d="M 196.4,97.4 L 214.7,117.2" style="fill:none;fill-rule:evenodd;stroke:#000000;stroke-width:2.0px;stroke-linecap:butt;stroke-linejoin:miter;stroke-opacity:1"/>
<path class="bond-20 atom-20 atom-21" d="M 214.7,117.2 L 233.0,137.0" style="fill:none;fill-rule:evenodd;stroke:#000000;stroke-width:2.0px;stroke-linecap:butt;stroke-linejoin:miter;stroke-opacity:1"/>
<path class="bond-21 atom-20 atom-22" d="M 214.7,117.2 L 194.9,135.5" style="fill:none;fill-rule:evenodd;stroke:#000000;stroke-width:2.0px;stroke-linecap:butt;stroke-linejoin:miter;stroke-opacity:1"/>
<path class="bond-22 atom-22 atom-23" d="M 194.9,135.5 L 197.4,146.3" style="fill:none;fill-rule:evenodd;stroke:#000000;stroke-width:2.0px;stroke-linecap:butt;stroke-linejoin:miter;stroke-opacity:1"/>
<path class="bond-22 atom-22 atom-23" d="M 197.4,146.3 L 199.8,157.1" style="fill:none;fill-rule:evenodd;stroke:#FF0000;stroke-width:2.0px;stroke-linecap:butt;stroke-linejoin:miter;stroke-opacity:1"/>
<path class="bond-23 atom-20 atom-24" d="M 214.7,117.2 L 234.5,98.9" style="fill:none;fill-rule:evenodd;stroke:#000000;stroke-width:2.0px;stroke-linecap:butt;stroke-linejoin:miter;stroke-opacity:1"/>
<path class="bond-24 atom-24 atom-25" d="M 234.5,98.9 L 232.1,88.2" style="fill:none;fill-rule:evenodd;stroke:#000000;stroke-width:2.0px;stroke-linecap:butt;stroke-linejoin:miter;stroke-opacity:1"/>
<path class="bond-24 atom-24 atom-25" d="M 232.1,88.2 L 229.6,77.5" style="fill:none;fill-rule:evenodd;stroke:#FF0000;stroke-width:2.0px;stroke-linecap:butt;stroke-linejoin:miter;stroke-opacity:1"/>
<path class="bond-25 atom-24 atom-26" d="M 234.5,98.9 L 260.2,106.9" style="fill:none;fill-rule:evenodd;stroke:#000000;stroke-width:2.0px;stroke-linecap:butt;stroke-linejoin:miter;stroke-opacity:1"/>
<path class="bond-26 atom-26 atom-27" d="M 260.2,106.9 L 252.3,132.6" style="fill:none;fill-rule:evenodd;stroke:#000000;stroke-width:2.0px;stroke-linecap:butt;stroke-linejoin:miter;stroke-opacity:1"/>
<path class="bond-27 atom-26 atom-28" d="M 260.2,106.9 L 268.2,81.1" style="fill:none;fill-rule:evenodd;stroke:#000000;stroke-width:2.0px;stroke-linecap:butt;stroke-linejoin:miter;stroke-opacity:1"/>
<path class="bond-28 atom-26 atom-29" d="M 260.2,106.9 L 286.0,114.9" style="fill:none;fill-rule:evenodd;stroke:#000000;stroke-width:2.0px;stroke-linecap:butt;stroke-linejoin:miter;stroke-opacity:1"/>
<path class="bond-29 atom-29 atom-30" d="M 286.5,117.1 L 294.6,109.6" style="fill:none;fill-rule:evenodd;stroke:#000000;stroke-width:2.0px;stroke-linecap:butt;stroke-linejoin:miter;stroke-opacity:1"/>
<path class="bond-29 atom-29 atom-30" d="M 294.6,109.6 L 302.8,102.1" style="fill:none;fill-rule:evenodd;stroke:#FF0000;stroke-width:2.0px;stroke-linecap:butt;stroke-linejoin:miter;stroke-opacity:1"/>
<path class="bond-29 atom-29 atom-30" d="M 283.8,114.2 L 291.9,106.7" style="fill:none;fill-rule:evenodd;stroke:#000000;stroke-width:2.0px;stroke-linecap:butt;stroke-linejoin:miter;stroke-opacity:1"/>
<path class="bond-29 atom-29 atom-30" d="M 291.9,106.7 L 300.0,99.1" style="fill:none;fill-rule:evenodd;stroke:#FF0000;stroke-width:2.0px;stroke-linecap:butt;stroke-linejoin:miter;stroke-opacity:1"/>
<path class="bond-30 atom-29 atom-31" d="M 286.0,114.9 L 288.4,125.6" style="fill:none;fill-rule:evenodd;stroke:#000000;stroke-width:2.0px;stroke-linecap:butt;stroke-linejoin:miter;stroke-opacity:1"/>
<path class="bond-30 atom-29 atom-31" d="M 288.4,125.6 L 290.9,136.4" style="fill:none;fill-rule:evenodd;stroke:#FF0000;stroke-width:2.0px;stroke-linecap:butt;stroke-linejoin:miter;stroke-opacity:1"/>
<path d="M 134.4,64.8 L 133.5,63.8 L 133.6,63.3" style="fill:none;stroke:#000000;stroke-width:2.0px;stroke-linecap:butt;stroke-linejoin:miter;stroke-opacity:1;"/>
<path d="M 133.0,101.0 L 132.0,101.9 L 130.7,101.5" style="fill:none;stroke:#000000;stroke-width:2.0px;stroke-linecap:butt;stroke-linejoin:miter;stroke-opacity:1;"/>
<path d="M 113.8,69.5 L 114.2,68.2 L 113.9,67.8" style="fill:none;stroke:#000000;stroke-width:2.0px;stroke-linecap:butt;stroke-linejoin:miter;stroke-opacity:1;"/>
<path d="M 47.0,131.3 L 45.7,131.6 L 45.3,131.2" style="fill:none;stroke:#000000;stroke-width:2.0px;stroke-linecap:butt;stroke-linejoin:miter;stroke-opacity:1;"/>
<path d="M 195.1,97.7 L 196.4,97.4 L 197.3,98.4" style="fill:none;stroke:#000000;stroke-width:2.0px;stroke-linecap:butt;stroke-linejoin:miter;stroke-opacity:1;"/>
<path d="M 195.9,134.6 L 194.9,135.5 L 195.0,136.1" style="fill:none;stroke:#000000;stroke-width:2.0px;stroke-linecap:butt;stroke-linejoin:miter;stroke-opacity:1;"/>
<path d="M 284.7,114.5 L 286.0,114.9 L 286.1,115.4" style="fill:none;stroke:#000000;stroke-width:2.0px;stroke-linecap:butt;stroke-linejoin:miter;stroke-opacity:1;"/>
<path class="atom-3" d="M 137.9 38.1 Q 137.9 36.2, 138.8 35.2 Q 139.8 34.2, 141.4 34.2 Q 143.1 34.2, 144.0 35.2 Q 145.0 36.2, 145.0 38.1 Q 145.0 39.9, 144.0 41.0 Q 143.1 42.0, 141.4 42.0 Q 139.8 42.0, 138.8 41.0 Q 137.9 39.9, 137.9 38.1 M 141.4 41.2 Q 142.6 41.2, 143.2 40.4 Q 143.9 39.6, 143.9 38.1 Q 143.9 36.6, 143.2 35.8 Q 142.6 35.1, 141.4 35.1 Q 140.3 35.1, 139.6 35.8 Q 139.0 36.6, 139.0 38.1 Q 139.0 39.6, 139.6 40.4 Q 140.3 41.2, 141.4 41.2 " fill="#FF0000"/>
<path class="atom-3" d="M 146.1 34.3 L 147.2 34.3 L 147.2 37.5 L 151.1 37.5 L 151.1 34.3 L 152.1 34.3 L 152.1 41.9 L 151.1 41.9 L 151.1 38.4 L 147.2 38.4 L 147.2 41.9 L 146.1 41.9 L 146.1 34.3 " fill="#FF0000"/>
<path class="atom-8" d="M 84.9 44.6 L 85.9 44.6 L 85.9 47.9 L 89.8 47.9 L 89.8 44.6 L 90.8 44.6 L 90.8 52.2 L 89.8 52.2 L 89.8 48.7 L 85.9 48.7 L 85.9 52.2 L 84.9 52.2 L 84.9 44.6 " fill="#FF0000"/>
<path class="atom-8" d="M 92.4 48.4 Q 92.4 46.6, 93.3 45.6 Q 94.2 44.5, 95.9 44.5 Q 97.6 44.5, 98.5 45.6 Q 99.4 46.6, 99.4 48.4 Q 99.4 50.3, 98.5 51.3 Q 97.6 52.4, 95.9 52.4 Q 94.2 52.4, 93.3 51.3 Q 92.4 50.3, 92.4 48.4 M 95.9 51.5 Q 97.1 51.5, 97.7 50.7 Q 98.3 49.9, 98.3 48.4 Q 98.3 46.9, 97.7 46.2 Q 97.1 45.4, 95.9 45.4 Q 94.7 45.4, 94.1 46.1 Q 93.5 46.9, 93.5 48.4 Q 93.5 50.0, 94.1 50.7 Q 94.7 51.5, 95.9 51.5 " fill="#FF0000"/>
<path class="atom-10" d="M 113.1 139.5 Q 113.1 137.7, 114.0 136.6 Q 114.9 135.6, 116.6 135.6 Q 118.3 135.6, 119.2 136.6 Q 120.1 137.7, 120.1 139.5 Q 120.1 141.4, 119.2 142.4 Q 118.2 143.5, 116.6 143.5 Q 114.9 143.5, 114.0 142.4 Q 113.1 141.4, 113.1 139.5 M 116.6 142.6 Q 117.7 142.6, 118.4 141.8 Q 119.0 141.0, 119.0 139.5 Q 119.0 138.0, 118.4 137.2 Q 117.7 136.5, 116.6 136.5 Q 115.4 136.5, 114.8 137.2 Q 114.1 138.0, 114.1 139.5 Q 114.1 141.0, 114.8 141.8 Q 115.4 142.6, 116.6 142.6 " fill="#FF0000"/>
<path class="atom-10" d="M 121.3 135.7 L 122.3 135.7 L 122.3 139.0 L 126.2 139.0 L 126.2 135.7 L 127.2 135.7 L 127.2 143.3 L 126.2 143.3 L 126.2 139.8 L 122.3 139.8 L 122.3 143.3 L 121.3 143.3 L 121.3 135.7 " fill="#FF0000"/>
<path class="atom-15" d="M 34.2 157.4 Q 34.2 155.6, 35.1 154.5 Q 36.0 153.5, 37.7 153.5 Q 39.4 153.5, 40.3 154.5 Q 41.2 155.6, 41.2 157.4 Q 41.2 159.3, 40.3 160.3 Q 39.4 161.4, 37.7 161.4 Q 36.0 161.4, 35.1 160.3 Q 34.2 159.3, 34.2 157.4 M 37.7 160.5 Q 38.8 160.5, 39.5 159.7 Q 40.1 158.9, 40.1 157.4 Q 40.1 155.9, 39.5 155.1 Q 38.8 154.4, 37.7 154.4 Q 36.5 154.4, 35.9 155.1 Q 35.3 155.9, 35.3 157.4 Q 35.3 158.9, 35.9 159.7 Q 36.5 160.5, 37.7 160.5 " fill="#FF0000"/>
<path class="atom-16" d="M 16.3 108.1 L 17.3 108.1 L 17.3 111.3 L 21.2 111.3 L 21.2 108.1 L 22.3 108.1 L 22.3 115.7 L 21.2 115.7 L 21.2 112.2 L 17.3 112.2 L 17.3 115.7 L 16.3 115.7 L 16.3 108.1 " fill="#FF0000"/>
<path class="atom-16" d="M 23.8 111.9 Q 23.8 110.0, 24.7 109.0 Q 25.7 108.0, 27.3 108.0 Q 29.0 108.0, 29.9 109.0 Q 30.9 110.0, 30.9 111.9 Q 30.9 113.7, 29.9 114.8 Q 29.0 115.8, 27.3 115.8 Q 25.7 115.8, 24.7 114.8 Q 23.8 113.7, 23.8 111.9 M 27.3 114.9 Q 28.5 114.9, 29.1 114.2 Q 29.8 113.4, 29.8 111.9 Q 29.8 110.4, 29.1 109.6 Q 28.5 108.8, 27.3 108.8 Q 26.2 108.8, 25.5 109.6 Q 24.9 110.3, 24.9 111.9 Q 24.9 113.4, 25.5 114.2 Q 26.2 114.9, 27.3 114.9 " fill="#FF0000"/>
<path class="atom-18" d="M 158.6 129.2 Q 158.6 127.3, 159.5 126.3 Q 160.4 125.3, 162.1 125.3 Q 163.8 125.3, 164.7 126.3 Q 165.6 127.3, 165.6 129.2 Q 165.6 131.0, 164.7 132.1 Q 163.8 133.1, 162.1 133.1 Q 160.4 133.1, 159.5 132.1 Q 158.6 131.0, 158.6 129.2 M 162.1 132.3 Q 163.3 132.3, 163.9 131.5 Q 164.5 130.7, 164.5 129.2 Q 164.5 127.7, 163.9 126.9 Q 163.3 126.1, 162.1 126.1 Q 160.9 126.1, 160.3 126.9 Q 159.7 127.7, 159.7 129.2 Q 159.7 130.7, 160.3 131.5 Q 160.9 132.3, 162.1 132.3 " fill="#FF0000"/>
<path class="atom-18" d="M 166.8 125.4 L 167.8 125.4 L 167.8 128.6 L 171.7 128.6 L 171.7 125.4 L 172.8 125.4 L 172.8 133.0 L 171.7 133.0 L 171.7 129.5 L 167.8 129.5 L 167.8 133.0 L 166.8 133.0 L 166.8 125.4 " fill="#FF0000"/>
<path class="atom-23" d="M 197.4 161.8 Q 197.4 160.0, 198.3 159.0 Q 199.2 158.0, 200.9 158.0 Q 202.6 158.0, 203.5 159.0 Q 204.4 160.0, 204.4 161.8 Q 204.4 163.7, 203.5 164.8 Q 202.6 165.8, 200.9 165.8 Q 199.2 165.8, 198.3 164.8 Q 197.4 163.7, 197.4 161.8 M 200.9 164.9 Q 202.0 164.9, 202.7 164.2 Q 203.3 163.4, 203.3 161.8 Q 203.3 160.3, 202.7 159.6 Q 202.0 158.8, 200.9 158.8 Q 199.7 158.8, 199.1 159.6 Q 198.5 160.3, 198.5 161.8 Q 198.5 163.4, 199.1 164.2 Q 199.7 164.9, 200.9 164.9 " fill="#FF0000"/>
<path class="atom-23" d="M 205.6 158.1 L 206.6 158.1 L 206.6 161.3 L 210.5 161.3 L 210.5 158.1 L 211.5 158.1 L 211.5 165.7 L 210.5 165.7 L 210.5 162.2 L 206.6 162.2 L 206.6 165.7 L 205.6 165.7 L 205.6 158.1 " fill="#FF0000"/>
<path class="atom-25" d="M 225.0 72.6 Q 225.0 70.8, 225.9 69.8 Q 226.8 68.7, 228.5 68.7 Q 230.2 68.7, 231.1 69.8 Q 232.0 70.8, 232.0 72.6 Q 232.0 74.5, 231.1 75.5 Q 230.2 76.6, 228.5 76.6 Q 226.8 76.6, 225.9 75.5 Q 225.0 74.5, 225.0 72.6 M 228.5 75.7 Q 229.7 75.7, 230.3 74.9 Q 231.0 74.2, 231.0 72.6 Q 231.0 71.1, 230.3 70.4 Q 229.7 69.6, 228.5 69.6 Q 227.4 69.6, 226.7 70.4 Q 226.1 71.1, 226.1 72.6 Q 226.1 74.2, 226.7 74.9 Q 227.4 75.7, 228.5 75.7 " fill="#FF0000"/>
<path class="atom-25" d="M 233.2 68.8 L 234.3 68.8 L 234.3 72.1 L 238.2 72.1 L 238.2 68.8 L 239.2 68.8 L 239.2 76.5 L 238.2 76.5 L 238.2 72.9 L 234.3 72.9 L 234.3 76.5 L 233.2 76.5 L 233.2 68.8 " fill="#FF0000"/>
<path class="atom-30" d="M 302.3 96.6 Q 302.3 94.7, 303.2 93.7 Q 304.1 92.7, 305.8 92.7 Q 307.5 92.7, 308.4 93.7 Q 309.3 94.7, 309.3 96.6 Q 309.3 98.4, 308.4 99.5 Q 307.5 100.5, 305.8 100.5 Q 304.1 100.5, 303.2 99.5 Q 302.3 98.4, 302.3 96.6 M 305.8 99.7 Q 307.0 99.7, 307.6 98.9 Q 308.2 98.1, 308.2 96.6 Q 308.2 95.1, 307.6 94.3 Q 307.0 93.6, 305.8 93.6 Q 304.6 93.6, 304.0 94.3 Q 303.4 95.1, 303.4 96.6 Q 303.4 98.1, 304.0 98.9 Q 304.6 99.7, 305.8 99.7 " fill="#FF0000"/>
<path class="atom-31" d="M 288.5 141.2 Q 288.5 139.3, 289.4 138.3 Q 290.3 137.3, 292.0 137.3 Q 293.7 137.3, 294.6 138.3 Q 295.5 139.3, 295.5 141.2 Q 295.5 143.0, 294.6 144.1 Q 293.6 145.1, 292.0 145.1 Q 290.3 145.1, 289.4 144.1 Q 288.5 143.0, 288.5 141.2 M 292.0 144.3 Q 293.1 144.3, 293.8 143.5 Q 294.4 142.7, 294.4 141.2 Q 294.4 139.7, 293.8 138.9 Q 293.1 138.2, 292.0 138.2 Q 290.8 138.2, 290.2 138.9 Q 289.5 139.7, 289.5 141.2 Q 289.5 142.7, 290.2 143.5 Q 290.8 144.3, 292.0 144.3 " fill="#FF0000"/>
<path class="atom-31" d="M 296.7 137.4 L 297.7 137.4 L 297.7 140.6 L 301.6 140.6 L 301.6 137.4 L 302.6 137.4 L 302.6 145.0 L 301.6 145.0 L 301.6 141.5 L 297.7 141.5 L 297.7 145.0 L 296.7 145.0 L 296.7 137.4 " fill="#FF0000"/>
</svg>
