<?xml version='1.0' encoding='ASCII' standalone='yes'?>
<svg xmlns="http://www.w3.org/2000/svg" xmlns:rdkit="http://www.rdkit.org/xml" xmlns:xlink="http://www.w3.org/1999/xlink" version="1.1" baseProfile="full" xml:space="preserve" width="233px" height="200px" viewBox="0 0 233 200">
<!-- END OF HEADER -->
<rect style="opacity:1.0;fill:#FFFFFF;stroke:none" width="233.0" height="200.0" x="0.0" y="0.0"> </rect>
<path class="bond-0 atom-0 atom-1" d="M 11.7,47.1 L 44.9,80.4" style="fill:none;fill-rule:evenodd;stroke:#000000;stroke-width:2.0px;stroke-linecap:butt;stroke-linejoin:miter;stroke-opacity:1"/>
<path class="bond-1 atom-1 atom-2" d="M 44.9,80.4 L 32.7,125.7" style="fill:none;fill-rule:evenodd;stroke:#000000;stroke-width:2.0px;stroke-linecap:butt;stroke-linejoin:miter;stroke-opacity:1"/>
<path class="bond-2 atom-2 atom-3" d="M 32.7,125.7 L 45.5,138.5" style="fill:none;fill-rule:evenodd;stroke:#000000;stroke-width:2.0px;stroke-linecap:butt;stroke-linejoin:miter;stroke-opacity:1"/>
<path class="bond-2 atom-2 atom-3" d="M 45.5,138.5 L 58.3,151.3" style="fill:none;fill-rule:evenodd;stroke:#FF0000;stroke-width:2.0px;stroke-linecap:butt;stroke-linejoin:miter;stroke-opacity:1"/>
<path class="bond-3 atom-1 atom-4" d="M 44.9,80.4 L 90.2,68.2" style="fill:none;fill-rule:evenodd;stroke:#000000;stroke-width:2.0px;stroke-linecap:butt;stroke-linejoin:miter;stroke-opacity:1"/>
<path class="bond-4 atom-4 atom-5" d="M 90.2,68.2 L 95.2,49.8" style="fill:none;fill-rule:evenodd;stroke:#000000;stroke-width:2.0px;stroke-linecap:butt;stroke-linejoin:miter;stroke-opacity:1"/>
<path class="bond-4 atom-4 atom-5" d="M 95.2,49.8 L 100.1,31.3" style="fill:none;fill-rule:evenodd;stroke:#FF0000;stroke-width:2.0px;stroke-linecap:butt;stroke-linejoin:miter;stroke-opacity:1"/>
<path class="bond-5 atom-4 atom-6" d="M 90.2,68.2 L 123.5,101.4" style="fill:none;fill-rule:evenodd;stroke:#000000;stroke-width:2.0px;stroke-linecap:butt;stroke-linejoin:miter;stroke-opacity:1"/>
<path class="bond-6 atom-6 atom-7" d="M 123.5,101.4 L 111.3,146.8" style="fill:none;fill-rule:evenodd;stroke:#000000;stroke-width:2.0px;stroke-linecap:butt;stroke-linejoin:miter;stroke-opacity:1"/>
<path class="bond-7 atom-6 atom-8" d="M 123.5,101.4 L 168.8,89.3" style="fill:none;fill-rule:evenodd;stroke:#000000;stroke-width:2.0px;stroke-linecap:butt;stroke-linejoin:miter;stroke-opacity:1"/>
<path class="bond-8 atom-8 atom-9" d="M 171.7,92.1 L 176.9,72.7" style="fill:none;fill-rule:evenodd;stroke:#000000;stroke-width:2.0px;stroke-linecap:butt;stroke-linejoin:miter;stroke-opacity:1"/>
<path class="bond-8 atom-8 atom-9" d="M 176.9,72.7 L 182.1,53.3" style="fill:none;fill-rule:evenodd;stroke:#FF0000;stroke-width:2.0px;stroke-linecap:butt;stroke-linejoin:miter;stroke-opacity:1"/>
<path class="bond-8 atom-8 atom-9" d="M 164.9,90.3 L 170.1,70.9" style="fill:none;fill-rule:evenodd;stroke:#000000;stroke-width:2.0px;stroke-linecap:butt;stroke-linejoin:miter;stroke-opacity:1"/>
<path class="bond-8 atom-8 atom-9" d="M 170.1,70.9 L 175.3,51.5" style="fill:none;fill-rule:evenodd;stroke:#FF0000;stroke-width:2.0px;stroke-linecap:butt;stroke-linejoin:miter;stroke-opacity:1"/>
<path class="bond-9 atom-8 atom-10" d="M 168.8,89.3 L 181.6,102.0" style="fill:none;fill-rule:evenodd;stroke:#000000;stroke-width:2.0px;stroke-linecap:butt;stroke-linejoin:miter;stroke-opacity:1"/>
<path class="bond-9 atom-8 atom-10" d="M 181.6,102.0 L 194.4,114.8" style="fill:none;fill-rule:evenodd;stroke:#FF0000;stroke-width:2.0px;stroke-linecap:butt;stroke-linejoin:miter;stroke-opacity:1"/>
<path d="M 33.3,123.5 L 32.7,125.7 L 33.3,126.4" style="fill:none;stroke:#000000;stroke-width:2.0px;stroke-linecap:butt;stroke-linejoin:miter;stroke-opacity:1;"/>
<path d="M 166.6,89.9 L 168.8,89.3 L 169.5,89.9" style="fill:none;stroke:#000000;stroke-width:2.0px;stroke-linecap:butt;stroke-linejoin:miter;stroke-opacity:1;"/>
<path class="atom-3" d="M 59.8 159.0 Q 59.8 155.8, 61.4 154.0 Q 63.0 152.2, 65.9 152.2 Q 68.9 152.2, 70.5 154.0 Q 72.0 155.8, 72.0 159.0 Q 72.0 162.2, 70.4 164.1 Q 68.8 165.9, 65.9 165.9 Q 63.0 165.9, 61.4 164.1 Q 59.8 162.3, 59.8 159.0 M 65.9 164.4 Q 68.0 164.4, 69.0 163.0 Q 70.2 161.7, 70.2 159.0 Q 70.2 156.4, 69.0 155.1 Q 68.0 153.7, 65.9 153.7 Q 63.9 153.7, 62.8 155.1 Q 61.7 156.4, 61.7 159.0 Q 61.7 161.7, 62.8 163.0 Q 63.9 164.4, 65.9 164.4 " fill="#FF0000"/>
<path class="atom-3" d="M 74.1 152.4 L 75.9 152.4 L 75.9 158.0 L 82.7 158.0 L 82.7 152.4 L 84.5 152.4 L 84.5 165.7 L 82.7 165.7 L 82.7 159.5 L 75.9 159.5 L 75.9 165.7 L 74.1 165.7 L 74.1 152.4 " fill="#FF0000"/>
<path class="atom-5" d="M 96.3 22.9 Q 96.3 19.7, 97.9 17.9 Q 99.5 16.1, 102.4 16.1 Q 105.4 16.1, 106.9 17.9 Q 108.5 19.7, 108.5 22.9 Q 108.5 26.1, 106.9 27.9 Q 105.3 29.8, 102.4 29.8 Q 99.5 29.8, 97.9 27.9 Q 96.3 26.1, 96.3 22.9 M 102.4 28.3 Q 104.4 28.3, 105.5 26.9 Q 106.6 25.5, 106.6 22.9 Q 106.6 20.3, 105.5 18.9 Q 104.4 17.6, 102.4 17.6 Q 100.4 17.6, 99.3 18.9 Q 98.2 20.2, 98.2 22.9 Q 98.2 25.6, 99.3 26.9 Q 100.4 28.3, 102.4 28.3 " fill="#FF0000"/>
<path class="atom-5" d="M 110.6 16.3 L 112.4 16.3 L 112.4 21.9 L 119.2 21.9 L 119.2 16.3 L 121.0 16.3 L 121.0 29.6 L 119.2 29.6 L 119.2 23.4 L 112.4 23.4 L 112.4 29.6 L 110.6 29.6 L 110.6 16.3 " fill="#FF0000"/>
<path class="atom-9" d="M 174.9 43.9 Q 174.9 40.7, 176.5 38.9 Q 178.1 37.2, 181.0 37.2 Q 184.0 37.2, 185.5 38.9 Q 187.1 40.7, 187.1 43.9 Q 187.1 47.2, 185.5 49.0 Q 183.9 50.8, 181.0 50.8 Q 178.1 50.8, 176.5 49.0 Q 174.9 47.2, 174.9 43.9 M 181.0 49.3 Q 183.0 49.3, 184.1 48.0 Q 185.2 46.6, 185.2 43.9 Q 185.2 41.3, 184.1 40.0 Q 183.0 38.7, 181.0 38.7 Q 179.0 38.7, 177.9 40.0 Q 176.8 41.3, 176.8 43.9 Q 176.8 46.6, 177.9 48.0 Q 179.0 49.3, 181.0 49.3 " fill="#FF0000"/>
<path class="atom-10" d="M 196.0 122.5 Q 196.0 119.3, 197.5 117.5 Q 199.1 115.8, 202.1 115.8 Q 205.0 115.8, 206.6 117.5 Q 208.2 119.3, 208.2 122.5 Q 208.2 125.8, 206.6 127.6 Q 205.0 129.4, 202.1 129.4 Q 199.1 129.4, 197.5 127.6 Q 196.0 125.8, 196.0 122.5 M 202.1 127.9 Q 204.1 127.9, 205.2 126.6 Q 206.3 125.2, 206.3 122.5 Q 206.3 119.9, 205.2 118.6 Q 204.1 117.3, 202.1 117.3 Q 200.0 117.3, 198.9 118.6 Q 197.8 119.9, 197.8 122.5 Q 197.8 125.2, 198.9 126.6 Q 200.0 127.9, 202.1 127.9 " fill="#FF0000"/>
<path class="atom-10" d="M 210.2 115.9 L 212.0 115.9 L 212.0 121.6 L 218.8 121.6 L 218.8 115.9 L 220.7 115.9 L 220.7 129.2 L 218.8 129.2 L 218.8 123.1 L 212.0 123.1 L 212.0 129.2 L 210.2 129.2 L 210.2 115.9 " fill="#FF0000"/>
<path class="legend" d="M 107.1 181.9 Q 107.1 179.6, 107.8 177.7 Q 108.5 175.8, 109.8 173.8 L 110.7 174.4 Q 109.6 176.3, 109.1 178.0 Q 108.6 179.7, 108.6 181.9 Q 108.6 184.0, 109.1 185.8 Q 109.6 187.5, 110.7 189.4 L 109.8 190.0 Q 108.5 188.0, 107.8 186.1 Q 107.1 184.2, 107.1 181.9 " fill="#000000"/>
<path class="legend" d="M 111.6 177.3 Q 112.0 176.2, 113.0 175.6 Q 114.0 175.0, 115.4 175.0 Q 117.1 175.0, 118.0 175.9 Q 119.0 176.8, 119.0 178.5 Q 119.0 180.2, 117.7 181.7 Q 116.5 183.3, 114.0 185.2 L 119.2 185.2 L 119.2 186.4 L 111.6 186.4 L 111.6 185.4 Q 113.7 183.9, 114.9 182.8 Q 116.2 181.6, 116.8 180.6 Q 117.4 179.6, 117.4 178.6 Q 117.4 177.5, 116.9 176.9 Q 116.3 176.3, 115.4 176.3 Q 114.5 176.3, 113.8 176.6 Q 113.2 177.0, 112.8 177.8 L 111.6 177.3 " fill="#000000"/>
<path class="legend" d="M 124.2 181.9 Q 124.2 184.2, 123.5 186.1 Q 122.8 188.0, 121.5 190.0 L 120.6 189.4 Q 121.7 187.5, 122.2 185.8 Q 122.7 184.0, 122.7 181.9 Q 122.7 179.7, 122.2 178.0 Q 121.7 176.3, 120.6 174.4 L 121.5 173.8 Q 122.8 175.8, 123.5 177.7 Q 124.2 179.6, 124.2 181.9 " fill="#000000"/>
</svg>
