<?xml version='1.0' encoding='ASCII' standalone='yes'?>
<svg xmlns="http://www.w3.org/2000/svg" xmlns:rdkit="http://www.rdkit.org/xml" xmlns:xlink="http://www.w3.org/1999/xlink" version="1.1" baseProfile="full" xml:space="preserve" width="307px" height="200px" viewBox="0 0 307 200">
<!-- END OF HEADER -->
<rect style="opacity:1.0;fill:#FFFFFF;stroke:none" width="307.0" height="200.0" x="0.0" y="0.0"> </rect>
<path class="bond-0 atom-0 atom-1" d="M 239.8,118.0 L 236.9,107.7" style="fill:none;fill-rule:evenodd;stroke:#FF0000;stroke-width:2.0px;stroke-linecap:butt;stroke-linejoin:miter;stroke-opacity:1"/>
<path class="bond-0 atom-0 atom-1" d="M 236.9,107.7 L 234.0,97.4" style="fill:none;fill-rule:evenodd;stroke:#000000;stroke-width:2.0px;stroke-linecap:butt;stroke-linejoin:miter;stroke-opacity:1"/>
<path class="bond-0 atom-0 atom-1" d="M 243.3,117.0 L 240.5,106.7" style="fill:none;fill-rule:evenodd;stroke:#FF0000;stroke-width:2.0px;stroke-linecap:butt;stroke-linejoin:miter;stroke-opacity:1"/>
<path class="bond-0 atom-0 atom-1" d="M 240.5,106.7 L 237.6,96.4" style="fill:none;fill-rule:evenodd;stroke:#000000;stroke-width:2.0px;stroke-linecap:butt;stroke-linejoin:miter;stroke-opacity:1"/>
<path class="bond-1 atom-1 atom-2" d="M 236.1,98.0 L 242.7,91.2" style="fill:none;fill-rule:evenodd;stroke:#000000;stroke-width:2.0px;stroke-linecap:butt;stroke-linejoin:miter;stroke-opacity:1"/>
<path class="bond-1 atom-1 atom-2" d="M 242.7,91.2 L 249.3,84.4" style="fill:none;fill-rule:evenodd;stroke:#FF0000;stroke-width:2.0px;stroke-linecap:butt;stroke-linejoin:miter;stroke-opacity:1"/>
<path class="bond-2 atom-1 atom-3" d="M 236.1,98.0 L 212.0,91.8" style="fill:none;fill-rule:evenodd;stroke:#000000;stroke-width:2.0px;stroke-linecap:butt;stroke-linejoin:miter;stroke-opacity:1"/>
<path class="bond-3 atom-3 atom-4" d="M 212.0,91.8 L 194.7,109.6" style="fill:none;fill-rule:evenodd;stroke:#000000;stroke-width:2.0px;stroke-linecap:butt;stroke-linejoin:miter;stroke-opacity:1"/>
<path class="bond-3 atom-3 atom-4" d="M 213.2,96.0 L 197.4,112.2" style="fill:none;fill-rule:evenodd;stroke:#000000;stroke-width:2.0px;stroke-linecap:butt;stroke-linejoin:miter;stroke-opacity:1"/>
<path class="bond-4 atom-4 atom-5" d="M 194.7,109.6 L 170.7,103.5" style="fill:none;fill-rule:evenodd;stroke:#000000;stroke-width:2.0px;stroke-linecap:butt;stroke-linejoin:miter;stroke-opacity:1"/>
<path class="bond-5 atom-5 atom-6" d="M 170.7,103.5 L 168.2,113.3" style="fill:none;fill-rule:evenodd;stroke:#000000;stroke-width:2.0px;stroke-linecap:butt;stroke-linejoin:miter;stroke-opacity:1"/>
<path class="bond-5 atom-5 atom-6" d="M 168.2,113.3 L 165.7,123.1" style="fill:none;fill-rule:evenodd;stroke:#FF0000;stroke-width:2.0px;stroke-linecap:butt;stroke-linejoin:miter;stroke-opacity:1"/>
<path class="bond-6 atom-5 atom-7" d="M 170.7,103.5 L 173.2,93.7" style="fill:none;fill-rule:evenodd;stroke:#000000;stroke-width:2.0px;stroke-linecap:butt;stroke-linejoin:miter;stroke-opacity:1"/>
<path class="bond-6 atom-5 atom-7" d="M 173.2,93.7 L 175.7,83.9" style="fill:none;fill-rule:evenodd;stroke:#FF0000;stroke-width:2.0px;stroke-linecap:butt;stroke-linejoin:miter;stroke-opacity:1"/>
<path class="bond-7 atom-5 atom-8" d="M 170.7,103.5 L 146.7,97.4" style="fill:none;fill-rule:evenodd;stroke:#000000;stroke-width:2.0px;stroke-linecap:butt;stroke-linejoin:miter;stroke-opacity:1"/>
<path class="bond-8 atom-8 atom-9" d="M 146.7,97.4 L 140.0,73.5" style="fill:none;fill-rule:evenodd;stroke:#000000;stroke-width:2.0px;stroke-linecap:butt;stroke-linejoin:miter;stroke-opacity:1"/>
<path class="bond-8 atom-8 atom-9" d="M 149.7,94.3 L 144.1,74.6" style="fill:none;fill-rule:evenodd;stroke:#000000;stroke-width:2.0px;stroke-linecap:butt;stroke-linejoin:miter;stroke-opacity:1"/>
<path class="bond-9 atom-9 atom-10" d="M 140.0,73.5 L 157.3,55.8" style="fill:none;fill-rule:evenodd;stroke:#000000;stroke-width:2.0px;stroke-linecap:butt;stroke-linejoin:miter;stroke-opacity:1"/>
<path class="bond-10 atom-10 atom-11" d="M 155.8,57.3 L 166.3,60.0" style="fill:none;fill-rule:evenodd;stroke:#000000;stroke-width:2.0px;stroke-linecap:butt;stroke-linejoin:miter;stroke-opacity:1"/>
<path class="bond-10 atom-10 atom-11" d="M 166.3,60.0 L 176.8,62.6" style="fill:none;fill-rule:evenodd;stroke:#FF0000;stroke-width:2.0px;stroke-linecap:butt;stroke-linejoin:miter;stroke-opacity:1"/>
<path class="bond-10 atom-10 atom-11" d="M 156.7,53.7 L 167.2,56.4" style="fill:none;fill-rule:evenodd;stroke:#000000;stroke-width:2.0px;stroke-linecap:butt;stroke-linejoin:miter;stroke-opacity:1"/>
<path class="bond-10 atom-10 atom-11" d="M 167.2,56.4 L 177.7,59.0" style="fill:none;fill-rule:evenodd;stroke:#FF0000;stroke-width:2.0px;stroke-linecap:butt;stroke-linejoin:miter;stroke-opacity:1"/>
<path class="bond-11 atom-10 atom-12" d="M 157.3,55.8 L 154.6,46.1" style="fill:none;fill-rule:evenodd;stroke:#000000;stroke-width:2.0px;stroke-linecap:butt;stroke-linejoin:miter;stroke-opacity:1"/>
<path class="bond-11 atom-10 atom-12" d="M 154.6,46.1 L 151.8,36.4" style="fill:none;fill-rule:evenodd;stroke:#FF0000;stroke-width:2.0px;stroke-linecap:butt;stroke-linejoin:miter;stroke-opacity:1"/>
<path class="bond-12 atom-9 atom-13" d="M 140.0,73.5 L 116.0,67.4" style="fill:none;fill-rule:evenodd;stroke:#000000;stroke-width:2.0px;stroke-linecap:butt;stroke-linejoin:miter;stroke-opacity:1"/>
<path class="bond-13 atom-13 atom-14" d="M 116.0,67.4 L 109.3,43.5" style="fill:none;fill-rule:evenodd;stroke:#000000;stroke-width:2.0px;stroke-linecap:butt;stroke-linejoin:miter;stroke-opacity:1"/>
<path class="bond-14 atom-14 atom-15" d="M 109.3,43.5 L 85.2,37.4" style="fill:none;fill-rule:evenodd;stroke:#000000;stroke-width:2.0px;stroke-linecap:butt;stroke-linejoin:miter;stroke-opacity:1"/>
<path class="bond-15 atom-15 atom-16" d="M 84.6,35.3 L 77.6,42.5" style="fill:none;fill-rule:evenodd;stroke:#000000;stroke-width:2.0px;stroke-linecap:butt;stroke-linejoin:miter;stroke-opacity:1"/>
<path class="bond-15 atom-15 atom-16" d="M 77.6,42.5 L 70.6,49.7" style="fill:none;fill-rule:evenodd;stroke:#FF0000;stroke-width:2.0px;stroke-linecap:butt;stroke-linejoin:miter;stroke-opacity:1"/>
<path class="bond-15 atom-15 atom-16" d="M 87.3,37.9 L 80.3,45.1" style="fill:none;fill-rule:evenodd;stroke:#000000;stroke-width:2.0px;stroke-linecap:butt;stroke-linejoin:miter;stroke-opacity:1"/>
<path class="bond-15 atom-15 atom-16" d="M 80.3,45.1 L 73.3,52.3" style="fill:none;fill-rule:evenodd;stroke:#FF0000;stroke-width:2.0px;stroke-linecap:butt;stroke-linejoin:miter;stroke-opacity:1"/>
<path class="bond-16 atom-15 atom-17" d="M 85.2,37.4 L 82.5,27.7" style="fill:none;fill-rule:evenodd;stroke:#000000;stroke-width:2.0px;stroke-linecap:butt;stroke-linejoin:miter;stroke-opacity:1"/>
<path class="bond-16 atom-15 atom-17" d="M 82.5,27.7 L 79.8,18.0" style="fill:none;fill-rule:evenodd;stroke:#FF0000;stroke-width:2.0px;stroke-linecap:butt;stroke-linejoin:miter;stroke-opacity:1"/>
<path class="bond-17 atom-13 atom-18" d="M 116.0,67.4 L 98.7,85.1" style="fill:none;fill-rule:evenodd;stroke:#000000;stroke-width:2.0px;stroke-linecap:butt;stroke-linejoin:miter;stroke-opacity:1"/>
<path class="bond-18 atom-18 atom-19" d="M 98.7,85.1 L 105.5,91.8" style="fill:none;fill-rule:evenodd;stroke:#000000;stroke-width:2.0px;stroke-linecap:butt;stroke-linejoin:miter;stroke-opacity:1"/>
<path class="bond-18 atom-18 atom-19" d="M 105.5,91.8 L 112.4,98.5" style="fill:none;fill-rule:evenodd;stroke:#FF0000;stroke-width:2.0px;stroke-linecap:butt;stroke-linejoin:miter;stroke-opacity:1"/>
<path class="bond-19 atom-18 atom-20" d="M 98.7,85.1 L 91.8,78.4" style="fill:none;fill-rule:evenodd;stroke:#000000;stroke-width:2.0px;stroke-linecap:butt;stroke-linejoin:miter;stroke-opacity:1"/>
<path class="bond-19 atom-18 atom-20" d="M 91.8,78.4 L 85.0,71.8" style="fill:none;fill-rule:evenodd;stroke:#FF0000;stroke-width:2.0px;stroke-linecap:butt;stroke-linejoin:miter;stroke-opacity:1"/>
<path class="bond-20 atom-18 atom-21" d="M 98.7,85.1 L 81.4,102.9" style="fill:none;fill-rule:evenodd;stroke:#000000;stroke-width:2.0px;stroke-linecap:butt;stroke-linejoin:miter;stroke-opacity:1"/>
<path class="bond-21 atom-21 atom-22" d="M 81.4,102.9 L 88.1,126.7" style="fill:none;fill-rule:evenodd;stroke:#000000;stroke-width:2.0px;stroke-linecap:butt;stroke-linejoin:miter;stroke-opacity:1"/>
<path class="bond-21 atom-21 atom-22" d="M 85.5,103.9 L 91.6,125.7" style="fill:none;fill-rule:evenodd;stroke:#000000;stroke-width:2.0px;stroke-linecap:butt;stroke-linejoin:miter;stroke-opacity:1"/>
<path class="bond-22 atom-22 atom-23" d="M 88.1,126.7 L 70.8,144.5" style="fill:none;fill-rule:evenodd;stroke:#000000;stroke-width:2.0px;stroke-linecap:butt;stroke-linejoin:miter;stroke-opacity:1"/>
<path class="bond-23 atom-23 atom-24" d="M 72.3,142.9 L 61.7,140.3" style="fill:none;fill-rule:evenodd;stroke:#000000;stroke-width:2.0px;stroke-linecap:butt;stroke-linejoin:miter;stroke-opacity:1"/>
<path class="bond-23 atom-23 atom-24" d="M 61.7,140.3 L 51.2,137.6" style="fill:none;fill-rule:evenodd;stroke:#FF0000;stroke-width:2.0px;stroke-linecap:butt;stroke-linejoin:miter;stroke-opacity:1"/>
<path class="bond-23 atom-23 atom-24" d="M 71.3,146.5 L 60.8,143.9" style="fill:none;fill-rule:evenodd;stroke:#000000;stroke-width:2.0px;stroke-linecap:butt;stroke-linejoin:miter;stroke-opacity:1"/>
<path class="bond-23 atom-23 atom-24" d="M 60.8,143.9 L 50.3,141.2" style="fill:none;fill-rule:evenodd;stroke:#FF0000;stroke-width:2.0px;stroke-linecap:butt;stroke-linejoin:miter;stroke-opacity:1"/>
<path class="bond-24 atom-23 atom-25" d="M 70.8,144.5 L 73.5,154.2" style="fill:none;fill-rule:evenodd;stroke:#000000;stroke-width:2.0px;stroke-linecap:butt;stroke-linejoin:miter;stroke-opacity:1"/>
<path class="bond-24 atom-23 atom-25" d="M 73.5,154.2 L 76.2,164.0" style="fill:none;fill-rule:evenodd;stroke:#FF0000;stroke-width:2.0px;stroke-linecap:butt;stroke-linejoin:miter;stroke-opacity:1"/>
<path d="M 236.4,97.6 L 236.1,98.0 L 234.9,97.7" style="fill:none;stroke:#000000;stroke-width:2.0px;stroke-linecap:butt;stroke-linejoin:miter;stroke-opacity:1;"/>
<path d="M 213.2,92.2 L 212.0,91.8 L 211.2,92.7" style="fill:none;stroke:#000000;stroke-width:2.0px;stroke-linecap:butt;stroke-linejoin:miter;stroke-opacity:1;"/>
<path d="M 195.6,108.7 L 194.7,109.6 L 193.5,109.3" style="fill:none;stroke:#000000;stroke-width:2.0px;stroke-linecap:butt;stroke-linejoin:miter;stroke-opacity:1;"/>
<path d="M 147.9,97.7 L 146.7,97.4 L 146.4,96.2" style="fill:none;stroke:#000000;stroke-width:2.0px;stroke-linecap:butt;stroke-linejoin:miter;stroke-opacity:1;"/>
<path d="M 156.4,56.6 L 157.3,55.8 L 157.2,55.3" style="fill:none;stroke:#000000;stroke-width:2.0px;stroke-linecap:butt;stroke-linejoin:miter;stroke-opacity:1;"/>
<path d="M 109.6,44.7 L 109.3,43.5 L 108.1,43.2" style="fill:none;stroke:#000000;stroke-width:2.0px;stroke-linecap:butt;stroke-linejoin:miter;stroke-opacity:1;"/>
<path d="M 86.4,37.7 L 85.2,37.4 L 85.1,36.9" style="fill:none;stroke:#000000;stroke-width:2.0px;stroke-linecap:butt;stroke-linejoin:miter;stroke-opacity:1;"/>
<path d="M 82.2,102.0 L 81.4,102.9 L 81.7,104.1" style="fill:none;stroke:#000000;stroke-width:2.0px;stroke-linecap:butt;stroke-linejoin:miter;stroke-opacity:1;"/>
<path d="M 87.7,125.5 L 88.1,126.7 L 87.2,127.6" style="fill:none;stroke:#000000;stroke-width:2.0px;stroke-linecap:butt;stroke-linejoin:miter;stroke-opacity:1;"/>
<path d="M 71.6,143.6 L 70.8,144.5 L 70.9,145.0" style="fill:none;stroke:#000000;stroke-width:2.0px;stroke-linecap:butt;stroke-linejoin:miter;stroke-opacity:1;"/>
<path class="atom-0" d="M 239.6 121.8 Q 239.6 120.2, 240.4 119.2 Q 241.2 118.3, 242.8 118.3 Q 244.3 118.3, 245.2 119.2 Q 246.0 120.2, 246.0 121.8 Q 246.0 123.5, 245.2 124.5 Q 244.3 125.5, 242.8 125.5 Q 241.2 125.5, 240.4 124.5 Q 239.6 123.6, 239.6 121.8 M 242.8 124.7 Q 243.9 124.7, 244.4 124.0 Q 245.0 123.3, 245.0 121.8 Q 245.0 120.5, 244.4 119.8 Q 243.9 119.1, 242.8 119.1 Q 241.7 119.1, 241.1 119.8 Q 240.6 120.5, 240.6 121.8 Q 240.6 123.3, 241.1 124.0 Q 241.7 124.7, 242.8 124.7 " fill="#FF0000"/>
<path class="atom-2" d="M 250.2 80.2 Q 250.2 78.6, 251.0 77.6 Q 251.8 76.7, 253.4 76.7 Q 254.9 76.7, 255.8 77.6 Q 256.6 78.6, 256.6 80.2 Q 256.6 81.9, 255.8 82.9 Q 254.9 83.9, 253.4 83.9 Q 251.8 83.9, 251.0 82.9 Q 250.2 82.0, 250.2 80.2 M 253.4 83.1 Q 254.4 83.1, 255.0 82.4 Q 255.6 81.6, 255.6 80.2 Q 255.6 78.9, 255.0 78.2 Q 254.4 77.5, 253.4 77.5 Q 252.3 77.5, 251.7 78.2 Q 251.1 78.9, 251.1 80.2 Q 251.1 81.7, 251.7 82.4 Q 252.3 83.1, 253.4 83.1 " fill="#FF0000"/>
<path class="atom-2" d="M 257.7 76.7 L 258.6 76.7 L 258.6 79.7 L 262.2 79.7 L 262.2 76.7 L 263.2 76.7 L 263.2 83.8 L 262.2 83.8 L 262.2 80.5 L 258.6 80.5 L 258.6 83.8 L 257.7 83.8 L 257.7 76.7 " fill="#FF0000"/>
<path class="atom-6" d="M 161.4 127.5 Q 161.4 125.8, 162.2 124.9 Q 163.0 123.9, 164.6 123.9 Q 166.2 123.9, 167.0 124.9 Q 167.8 125.8, 167.8 127.5 Q 167.8 129.2, 167.0 130.2 Q 166.1 131.2, 164.6 131.2 Q 163.1 131.2, 162.2 130.2 Q 161.4 129.2, 161.4 127.5 M 164.6 130.4 Q 165.7 130.4, 166.3 129.6 Q 166.8 128.9, 166.8 127.5 Q 166.8 126.1, 166.3 125.4 Q 165.7 124.7, 164.6 124.7 Q 163.5 124.7, 162.9 125.4 Q 162.4 126.1, 162.4 127.5 Q 162.4 128.9, 162.9 129.6 Q 163.5 130.4, 164.6 130.4 " fill="#FF0000"/>
<path class="atom-6" d="M 168.9 124.0 L 169.9 124.0 L 169.9 127.0 L 173.5 127.0 L 173.5 124.0 L 174.4 124.0 L 174.4 131.0 L 173.5 131.0 L 173.5 127.8 L 169.9 127.8 L 169.9 131.0 L 168.9 131.0 L 168.9 124.0 " fill="#FF0000"/>
<path class="atom-7" d="M 173.6 79.5 Q 173.6 77.8, 174.4 76.8 Q 175.3 75.9, 176.8 75.9 Q 178.4 75.9, 179.2 76.8 Q 180.1 77.8, 180.1 79.5 Q 180.1 81.2, 179.2 82.2 Q 178.4 83.1, 176.8 83.1 Q 175.3 83.1, 174.4 82.2 Q 173.6 81.2, 173.6 79.5 M 176.8 82.3 Q 177.9 82.3, 178.5 81.6 Q 179.1 80.9, 179.1 79.5 Q 179.1 78.1, 178.5 77.4 Q 177.9 76.7, 176.8 76.7 Q 175.8 76.7, 175.2 77.4 Q 174.6 78.1, 174.6 79.5 Q 174.6 80.9, 175.2 81.6 Q 175.8 82.3, 176.8 82.3 " fill="#FF0000"/>
<path class="atom-7" d="M 181.2 76.0 L 182.1 76.0 L 182.1 79.0 L 185.7 79.0 L 185.7 76.0 L 186.6 76.0 L 186.6 83.0 L 185.7 83.0 L 185.7 79.8 L 182.1 79.8 L 182.1 83.0 L 181.2 83.0 L 181.2 76.0 " fill="#FF0000"/>
<path class="atom-11" d="M 178.1 61.9 Q 178.1 60.2, 178.9 59.3 Q 179.8 58.3, 181.3 58.3 Q 182.9 58.3, 183.7 59.3 Q 184.5 60.2, 184.5 61.9 Q 184.5 63.6, 183.7 64.6 Q 182.9 65.5, 181.3 65.5 Q 179.8 65.5, 178.9 64.6 Q 178.1 63.6, 178.1 61.9 M 181.3 64.7 Q 182.4 64.7, 183.0 64.0 Q 183.5 63.3, 183.5 61.9 Q 183.5 60.5, 183.0 59.8 Q 182.4 59.1, 181.3 59.1 Q 180.2 59.1, 179.7 59.8 Q 179.1 60.5, 179.1 61.9 Q 179.1 63.3, 179.7 64.0 Q 180.2 64.7, 181.3 64.7 " fill="#FF0000"/>
<path class="atom-12" d="M 147.4 31.9 Q 147.4 30.2, 148.2 29.3 Q 149.0 28.3, 150.6 28.3 Q 152.1 28.3, 153.0 29.3 Q 153.8 30.2, 153.8 31.9 Q 153.8 33.6, 153.0 34.6 Q 152.1 35.6, 150.6 35.6 Q 149.0 35.6, 148.2 34.6 Q 147.4 33.6, 147.4 31.9 M 150.6 34.8 Q 151.6 34.8, 152.2 34.0 Q 152.8 33.3, 152.8 31.9 Q 152.8 30.5, 152.2 29.8 Q 151.6 29.1, 150.6 29.1 Q 149.5 29.1, 148.9 29.8 Q 148.3 30.5, 148.3 31.9 Q 148.3 33.3, 148.9 34.0 Q 149.5 34.8, 150.6 34.8 " fill="#FF0000"/>
<path class="atom-12" d="M 154.9 28.4 L 155.8 28.4 L 155.8 31.4 L 159.4 31.4 L 159.4 28.4 L 160.4 28.4 L 160.4 35.4 L 159.4 35.4 L 159.4 32.2 L 155.8 32.2 L 155.8 35.4 L 154.9 35.4 L 154.9 28.4 " fill="#FF0000"/>
<path class="atom-16" d="M 64.7 55.2 Q 64.7 53.5, 65.5 52.5 Q 66.4 51.6, 67.9 51.6 Q 69.5 51.6, 70.3 52.5 Q 71.1 53.5, 71.1 55.2 Q 71.1 56.9, 70.3 57.9 Q 69.5 58.8, 67.9 58.8 Q 66.4 58.8, 65.5 57.9 Q 64.7 56.9, 64.7 55.2 M 67.9 58.0 Q 69.0 58.0, 69.6 57.3 Q 70.2 56.6, 70.2 55.2 Q 70.2 53.8, 69.6 53.1 Q 69.0 52.4, 67.9 52.4 Q 66.9 52.4, 66.3 53.1 Q 65.7 53.8, 65.7 55.2 Q 65.7 56.6, 66.3 57.3 Q 66.9 58.0, 67.9 58.0 " fill="#FF0000"/>
<path class="atom-17" d="M 75.3 13.6 Q 75.3 11.9, 76.1 10.9 Q 77.0 10.0, 78.5 10.0 Q 80.1 10.0, 80.9 10.9 Q 81.7 11.9, 81.7 13.6 Q 81.7 15.3, 80.9 16.2 Q 80.1 17.2, 78.5 17.2 Q 77.0 17.2, 76.1 16.2 Q 75.3 15.3, 75.3 13.6 M 78.5 16.4 Q 79.6 16.4, 80.2 15.7 Q 80.7 15.0, 80.7 13.6 Q 80.7 12.2, 80.2 11.5 Q 79.6 10.8, 78.5 10.8 Q 77.4 10.8, 76.9 11.5 Q 76.3 12.2, 76.3 13.6 Q 76.3 15.0, 76.9 15.7 Q 77.4 16.4, 78.5 16.4 " fill="#FF0000"/>
<path class="atom-17" d="M 82.8 10.1 L 83.8 10.1 L 83.8 13.1 L 87.4 13.1 L 87.4 10.1 L 88.3 10.1 L 88.3 17.1 L 87.4 17.1 L 87.4 13.9 L 83.8 13.9 L 83.8 17.1 L 82.8 17.1 L 82.8 10.1 " fill="#FF0000"/>
<path class="atom-19" d="M 113.2 102.5 Q 113.2 100.8, 114.0 99.8 Q 114.8 98.9, 116.4 98.9 Q 118.0 98.9, 118.8 99.8 Q 119.6 100.8, 119.6 102.5 Q 119.6 104.2, 118.8 105.1 Q 117.9 106.1, 116.4 106.1 Q 114.9 106.1, 114.0 105.1 Q 113.2 104.2, 113.2 102.5 M 116.4 105.3 Q 117.5 105.3, 118.0 104.6 Q 118.6 103.9, 118.6 102.5 Q 118.6 101.1, 118.0 100.4 Q 117.5 99.7, 116.4 99.7 Q 115.3 99.7, 114.7 100.4 Q 114.2 101.1, 114.2 102.5 Q 114.2 103.9, 114.7 104.6 Q 115.3 105.3, 116.4 105.3 " fill="#FF0000"/>
<path class="atom-19" d="M 120.7 99.0 L 121.7 99.0 L 121.7 102.0 L 125.3 102.0 L 125.3 99.0 L 126.2 99.0 L 126.2 106.0 L 125.3 106.0 L 125.3 102.7 L 121.7 102.7 L 121.7 106.0 L 120.7 106.0 L 120.7 99.0 " fill="#FF0000"/>
<path class="atom-20" d="M 70.8 64.4 L 71.7 64.4 L 71.7 67.3 L 75.3 67.3 L 75.3 64.4 L 76.3 64.4 L 76.3 71.4 L 75.3 71.4 L 75.3 68.1 L 71.7 68.1 L 71.7 71.4 L 70.8 71.4 L 70.8 64.4 " fill="#FF0000"/>
<path class="atom-20" d="M 77.7 67.8 Q 77.7 66.2, 78.5 65.2 Q 79.4 64.3, 80.9 64.3 Q 82.5 64.3, 83.3 65.2 Q 84.1 66.2, 84.1 67.8 Q 84.1 69.5, 83.3 70.5 Q 82.5 71.5, 80.9 71.5 Q 79.4 71.5, 78.5 70.5 Q 77.7 69.6, 77.7 67.8 M 80.9 70.7 Q 82.0 70.7, 82.6 70.0 Q 83.1 69.3, 83.1 67.8 Q 83.1 66.5, 82.6 65.8 Q 82.0 65.1, 80.9 65.1 Q 79.8 65.1, 79.3 65.8 Q 78.7 66.5, 78.7 67.8 Q 78.7 69.3, 79.3 70.0 Q 79.8 70.7, 80.9 70.7 " fill="#FF0000"/>
<path class="atom-24" d="M 43.5 138.4 Q 43.5 136.7, 44.3 135.8 Q 45.2 134.8, 46.7 134.8 Q 48.3 134.8, 49.1 135.8 Q 50.0 136.7, 50.0 138.4 Q 50.0 140.1, 49.1 141.1 Q 48.3 142.0, 46.7 142.0 Q 45.2 142.0, 44.3 141.1 Q 43.5 140.1, 43.5 138.4 M 46.7 141.2 Q 47.8 141.2, 48.4 140.5 Q 49.0 139.8, 49.0 138.4 Q 49.0 137.0, 48.4 136.3 Q 47.8 135.6, 46.7 135.6 Q 45.7 135.6, 45.1 136.3 Q 44.5 137.0, 44.5 138.4 Q 44.5 139.8, 45.1 140.5 Q 45.7 141.2, 46.7 141.2 " fill="#FF0000"/>
<path class="atom-25" d="M 74.3 168.4 Q 74.3 166.7, 75.1 165.7 Q 75.9 164.8, 77.5 164.8 Q 79.0 164.8, 79.9 165.7 Q 80.7 166.7, 80.7 168.4 Q 80.7 170.1, 79.9 171.0 Q 79.0 172.0, 77.5 172.0 Q 75.9 172.0, 75.1 171.0 Q 74.3 170.1, 74.3 168.4 M 77.5 171.2 Q 78.5 171.2, 79.1 170.5 Q 79.7 169.8, 79.7 168.4 Q 79.7 167.0, 79.1 166.3 Q 78.5 165.6, 77.5 165.6 Q 76.4 165.6, 75.8 166.3 Q 75.2 167.0, 75.2 168.4 Q 75.2 169.8, 75.8 170.5 Q 76.4 171.2, 77.5 171.2 " fill="#FF0000"/>
<path class="atom-25" d="M 81.8 164.9 L 82.7 164.9 L 82.7 167.9 L 86.3 167.9 L 86.3 164.9 L 87.3 164.9 L 87.3 171.9 L 86.3 171.9 L 86.3 168.6 L 82.7 168.6 L 82.7 171.9 L 81.8 171.9 L 81.8 164.9 " fill="#FF0000"/>
<path class="legend" d="M 144.8 181.9 Q 144.8 179.6, 145.5 177.7 Q 146.2 175.8, 147.5 173.8 L 148.4 174.4 Q 147.3 176.3, 146.8 178.0 Q 146.3 179.7, 146.3 181.9 Q 146.3 184.0, 146.8 185.8 Q 147.3 187.5, 148.4 189.4 L 147.5 190.0 Q 146.2 188.0, 145.5 186.1 Q 144.8 184.2, 144.8 181.9 " fill="#000000"/>
<path class="legend" d="M 149.3 177.3 Q 149.7 176.2, 150.7 175.6 Q 151.7 175.0, 153.1 175.0 Q 154.8 175.0, 155.7 175.9 Q 156.7 176.8, 156.7 178.5 Q 156.7 180.2, 155.4 181.7 Q 154.2 183.3, 151.7 185.2 L 156.9 185.2 L 156.9 186.4 L 149.3 186.4 L 149.3 185.4 Q 151.4 183.9, 152.6 182.8 Q 153.9 181.6, 154.5 180.6 Q 155.1 179.6, 155.1 178.6 Q 155.1 177.5, 154.5 176.9 Q 154.0 176.3, 153.1 176.3 Q 152.1 176.3, 151.5 176.6 Q 150.9 177.0, 150.5 177.8 L 149.3 177.3 " fill="#000000"/>
<path class="legend" d="M 161.9 181.9 Q 161.9 184.2, 161.2 186.1 Q 160.5 188.0, 159.2 190.0 L 158.3 189.4 Q 159.4 187.5, 159.9 185.8 Q 160.4 184.0, 160.4 181.9 Q 160.4 179.7, 159.9 178.0 Q 159.4 176.3, 158.3 174.4 L 159.2 173.8 Q 160.5 175.8, 161.2 177.7 Q 161.9 179.6, 161.9 181.9 " fill="#000000"/>
</svg>
