<?xml version='1.0' encoding='ASCII' standalone='yes'?>
<svg xmlns="http://www.w3.org/2000/svg" xmlns:rdkit="http://www.rdkit.org/xml" xmlns:xlink="http://www.w3.org/1999/xlink" version="1.1" baseProfile="full" xml:space="preserve" width="437px" height="200px" viewBox="0 0 437 200">
<!-- END OF HEADER -->
<rect style="opacity:1.0;fill:#FFFFFF;stroke:none" width="437.0" height="200.0" x="0.0" y="0.0"> </rect>
<path class="bond-0 atom-0 atom-1" d="M 140.3,20.4 L 148.3,22.5" style="fill:none;fill-rule:evenodd;stroke:#000000;stroke-width:2.0px;stroke-linecap:butt;stroke-linejoin:miter;stroke-opacity:1"/>
<path class="bond-1 atom-1 atom-2" d="M 148.5,23.2 L 150.5,21.3" style="fill:none;fill-rule:evenodd;stroke:#000000;stroke-width:2.0px;stroke-linecap:butt;stroke-linejoin:miter;stroke-opacity:1"/>
<path class="bond-1 atom-1 atom-2" d="M 150.5,21.3 L 152.4,19.3" style="fill:none;fill-rule:evenodd;stroke:#FF0000;stroke-width:2.0px;stroke-linecap:butt;stroke-linejoin:miter;stroke-opacity:1"/>
<path class="bond-1 atom-1 atom-2" d="M 147.6,22.4 L 149.6,20.4" style="fill:none;fill-rule:evenodd;stroke:#000000;stroke-width:2.0px;stroke-linecap:butt;stroke-linejoin:miter;stroke-opacity:1"/>
<path class="bond-1 atom-1 atom-2" d="M 149.6,20.4 L 151.6,18.4" style="fill:none;fill-rule:evenodd;stroke:#FF0000;stroke-width:2.0px;stroke-linecap:butt;stroke-linejoin:miter;stroke-opacity:1"/>
<path class="bond-2 atom-1 atom-3" d="M 148.3,22.5 L 149.1,25.4" style="fill:none;fill-rule:evenodd;stroke:#000000;stroke-width:2.0px;stroke-linecap:butt;stroke-linejoin:miter;stroke-opacity:1"/>
<path class="bond-2 atom-1 atom-3" d="M 149.1,25.4 L 149.9,28.2" style="fill:none;fill-rule:evenodd;stroke:#CCCC00;stroke-width:2.0px;stroke-linecap:butt;stroke-linejoin:miter;stroke-opacity:1"/>
<path class="bond-3 atom-3 atom-4" d="M 152.2,31.0 L 155.4,31.9" style="fill:none;fill-rule:evenodd;stroke:#CCCC00;stroke-width:2.0px;stroke-linecap:butt;stroke-linejoin:miter;stroke-opacity:1"/>
<path class="bond-3 atom-3 atom-4" d="M 155.4,31.9 L 158.6,32.7" style="fill:none;fill-rule:evenodd;stroke:#000000;stroke-width:2.0px;stroke-linecap:butt;stroke-linejoin:miter;stroke-opacity:1"/>
<path class="bond-4 atom-4 atom-5" d="M 158.6,32.7 L 160.8,40.8" style="fill:none;fill-rule:evenodd;stroke:#000000;stroke-width:2.0px;stroke-linecap:butt;stroke-linejoin:miter;stroke-opacity:1"/>
<path class="bond-5 atom-5 atom-6" d="M 160.8,40.8 L 158.8,42.8" style="fill:none;fill-rule:evenodd;stroke:#000000;stroke-width:2.0px;stroke-linecap:butt;stroke-linejoin:miter;stroke-opacity:1"/>
<path class="bond-5 atom-5 atom-6" d="M 158.8,42.8 L 156.8,44.8" style="fill:none;fill-rule:evenodd;stroke:#0000FF;stroke-width:2.0px;stroke-linecap:butt;stroke-linejoin:miter;stroke-opacity:1"/>
<path class="bond-6 atom-6 atom-7" d="M 155.5,49.1 L 156.3,51.9" style="fill:none;fill-rule:evenodd;stroke:#0000FF;stroke-width:2.0px;stroke-linecap:butt;stroke-linejoin:miter;stroke-opacity:1"/>
<path class="bond-6 atom-6 atom-7" d="M 156.3,51.9 L 157.1,54.8" style="fill:none;fill-rule:evenodd;stroke:#000000;stroke-width:2.0px;stroke-linecap:butt;stroke-linejoin:miter;stroke-opacity:1"/>
<path class="bond-7 atom-7 atom-8" d="M 156.6,55.3 L 159.7,56.1" style="fill:none;fill-rule:evenodd;stroke:#000000;stroke-width:2.0px;stroke-linecap:butt;stroke-linejoin:miter;stroke-opacity:1"/>
<path class="bond-7 atom-7 atom-8" d="M 159.7,56.1 L 162.8,56.9" style="fill:none;fill-rule:evenodd;stroke:#FF0000;stroke-width:2.0px;stroke-linecap:butt;stroke-linejoin:miter;stroke-opacity:1"/>
<path class="bond-7 atom-7 atom-8" d="M 156.9,54.1 L 160.0,54.9" style="fill:none;fill-rule:evenodd;stroke:#000000;stroke-width:2.0px;stroke-linecap:butt;stroke-linejoin:miter;stroke-opacity:1"/>
<path class="bond-7 atom-7 atom-8" d="M 160.0,54.9 L 163.1,55.7" style="fill:none;fill-rule:evenodd;stroke:#FF0000;stroke-width:2.0px;stroke-linecap:butt;stroke-linejoin:miter;stroke-opacity:1"/>
<path class="bond-8 atom-7 atom-9" d="M 157.1,54.8 L 151.2,60.7" style="fill:none;fill-rule:evenodd;stroke:#000000;stroke-width:2.0px;stroke-linecap:butt;stroke-linejoin:miter;stroke-opacity:1"/>
<path class="bond-9 atom-9 atom-10" d="M 151.2,60.7 L 153.4,68.7" style="fill:none;fill-rule:evenodd;stroke:#000000;stroke-width:2.0px;stroke-linecap:butt;stroke-linejoin:miter;stroke-opacity:1"/>
<path class="bond-10 atom-10 atom-11" d="M 153.4,68.7 L 151.4,70.8" style="fill:none;fill-rule:evenodd;stroke:#000000;stroke-width:2.0px;stroke-linecap:butt;stroke-linejoin:miter;stroke-opacity:1"/>
<path class="bond-10 atom-10 atom-11" d="M 151.4,70.8 L 149.4,72.8" style="fill:none;fill-rule:evenodd;stroke:#0000FF;stroke-width:2.0px;stroke-linecap:butt;stroke-linejoin:miter;stroke-opacity:1"/>
<path class="bond-11 atom-11 atom-12" d="M 148.2,77.1 L 148.9,79.9" style="fill:none;fill-rule:evenodd;stroke:#0000FF;stroke-width:2.0px;stroke-linecap:butt;stroke-linejoin:miter;stroke-opacity:1"/>
<path class="bond-11 atom-11 atom-12" d="M 148.9,79.9 L 149.7,82.7" style="fill:none;fill-rule:evenodd;stroke:#000000;stroke-width:2.0px;stroke-linecap:butt;stroke-linejoin:miter;stroke-opacity:1"/>
<path class="bond-12 atom-12 atom-13" d="M 149.2,83.2 L 152.3,84.1" style="fill:none;fill-rule:evenodd;stroke:#000000;stroke-width:2.0px;stroke-linecap:butt;stroke-linejoin:miter;stroke-opacity:1"/>
<path class="bond-12 atom-12 atom-13" d="M 152.3,84.1 L 155.4,84.9" style="fill:none;fill-rule:evenodd;stroke:#FF0000;stroke-width:2.0px;stroke-linecap:butt;stroke-linejoin:miter;stroke-opacity:1"/>
<path class="bond-12 atom-12 atom-13" d="M 149.5,82.0 L 152.6,82.8" style="fill:none;fill-rule:evenodd;stroke:#000000;stroke-width:2.0px;stroke-linecap:butt;stroke-linejoin:miter;stroke-opacity:1"/>
<path class="bond-12 atom-12 atom-13" d="M 152.6,82.8 L 155.7,83.7" style="fill:none;fill-rule:evenodd;stroke:#FF0000;stroke-width:2.0px;stroke-linecap:butt;stroke-linejoin:miter;stroke-opacity:1"/>
<path class="bond-13 atom-12 atom-14" d="M 149.7,82.7 L 143.8,88.6" style="fill:none;fill-rule:evenodd;stroke:#000000;stroke-width:2.0px;stroke-linecap:butt;stroke-linejoin:miter;stroke-opacity:1"/>
<path class="bond-14 atom-14 atom-15" d="M 143.8,88.6 L 140.9,87.9" style="fill:none;fill-rule:evenodd;stroke:#000000;stroke-width:2.0px;stroke-linecap:butt;stroke-linejoin:miter;stroke-opacity:1"/>
<path class="bond-14 atom-14 atom-15" d="M 140.9,87.9 L 138.0,87.1" style="fill:none;fill-rule:evenodd;stroke:#FF0000;stroke-width:2.0px;stroke-linecap:butt;stroke-linejoin:miter;stroke-opacity:1"/>
<path class="bond-15 atom-14 atom-16" d="M 143.8,88.6 L 146.0,96.7" style="fill:none;fill-rule:evenodd;stroke:#000000;stroke-width:2.0px;stroke-linecap:butt;stroke-linejoin:miter;stroke-opacity:1"/>
<path class="bond-16 atom-16 atom-17" d="M 146.0,96.7 L 154.0,94.5" style="fill:none;fill-rule:evenodd;stroke:#000000;stroke-width:2.0px;stroke-linecap:butt;stroke-linejoin:miter;stroke-opacity:1"/>
<path class="bond-17 atom-16 atom-18" d="M 146.0,96.7 L 137.9,98.9" style="fill:none;fill-rule:evenodd;stroke:#000000;stroke-width:2.0px;stroke-linecap:butt;stroke-linejoin:miter;stroke-opacity:1"/>
<path class="bond-18 atom-16 atom-19" d="M 146.0,96.7 L 148.2,104.8" style="fill:none;fill-rule:evenodd;stroke:#000000;stroke-width:2.0px;stroke-linecap:butt;stroke-linejoin:miter;stroke-opacity:1"/>
<path class="bond-19 atom-19 atom-20" d="M 148.2,104.8 L 151.1,105.5" style="fill:none;fill-rule:evenodd;stroke:#000000;stroke-width:2.0px;stroke-linecap:butt;stroke-linejoin:miter;stroke-opacity:1"/>
<path class="bond-19 atom-19 atom-20" d="M 151.1,105.5 L 154.0,106.3" style="fill:none;fill-rule:evenodd;stroke:#FF0000;stroke-width:2.0px;stroke-linecap:butt;stroke-linejoin:miter;stroke-opacity:1"/>
<path class="bond-20 atom-20 atom-21" d="M 156.9,109.4 L 157.3,111.0" style="fill:none;fill-rule:evenodd;stroke:#FF0000;stroke-width:2.0px;stroke-linecap:butt;stroke-linejoin:miter;stroke-opacity:1"/>
<path class="bond-20 atom-20 atom-21" d="M 157.3,111.0 L 157.8,112.5" style="fill:none;fill-rule:evenodd;stroke:#FF7F00;stroke-width:2.0px;stroke-linecap:butt;stroke-linejoin:miter;stroke-opacity:1"/>
<path class="bond-21 atom-21 atom-22" d="M 160.2,115.1 L 162.3,114.5" style="fill:none;fill-rule:evenodd;stroke:#FF7F00;stroke-width:2.0px;stroke-linecap:butt;stroke-linejoin:miter;stroke-opacity:1"/>
<path class="bond-21 atom-21 atom-22" d="M 162.3,114.5 L 164.4,114.0" style="fill:none;fill-rule:evenodd;stroke:#FF0000;stroke-width:2.0px;stroke-linecap:butt;stroke-linejoin:miter;stroke-opacity:1"/>
<path class="bond-21 atom-21 atom-22" d="M 159.9,113.9 L 162.0,113.3" style="fill:none;fill-rule:evenodd;stroke:#FF7F00;stroke-width:2.0px;stroke-linecap:butt;stroke-linejoin:miter;stroke-opacity:1"/>
<path class="bond-21 atom-21 atom-22" d="M 162.0,113.3 L 164.1,112.8" style="fill:none;fill-rule:evenodd;stroke:#FF0000;stroke-width:2.0px;stroke-linecap:butt;stroke-linejoin:miter;stroke-opacity:1"/>
<path class="bond-22 atom-21 atom-23" d="M 156.8,115.4 L 154.7,116.0" style="fill:none;fill-rule:evenodd;stroke:#FF7F00;stroke-width:2.0px;stroke-linecap:butt;stroke-linejoin:miter;stroke-opacity:1"/>
<path class="bond-22 atom-21 atom-23" d="M 154.7,116.0 L 152.6,116.5" style="fill:none;fill-rule:evenodd;stroke:#FF0000;stroke-width:2.0px;stroke-linecap:butt;stroke-linejoin:miter;stroke-opacity:1"/>
<path class="bond-23 atom-21 atom-24" d="M 159.1,117.3 L 159.5,119.0" style="fill:none;fill-rule:evenodd;stroke:#FF7F00;stroke-width:2.0px;stroke-linecap:butt;stroke-linejoin:miter;stroke-opacity:1"/>
<path class="bond-23 atom-21 atom-24" d="M 159.5,119.0 L 160.0,120.6" style="fill:none;fill-rule:evenodd;stroke:#FF0000;stroke-width:2.0px;stroke-linecap:butt;stroke-linejoin:miter;stroke-opacity:1"/>
<path class="bond-24 atom-24 atom-25" d="M 158.4,125.2 L 157.4,126.3" style="fill:none;fill-rule:evenodd;stroke:#FF0000;stroke-width:2.0px;stroke-linecap:butt;stroke-linejoin:miter;stroke-opacity:1"/>
<path class="bond-24 atom-24 atom-25" d="M 157.4,126.3 L 156.4,127.3" style="fill:none;fill-rule:evenodd;stroke:#FF7F00;stroke-width:2.0px;stroke-linecap:butt;stroke-linejoin:miter;stroke-opacity:1"/>
<path class="bond-25 atom-25 atom-26" d="M 153.5,126.9 L 152.5,125.8" style="fill:none;fill-rule:evenodd;stroke:#FF7F00;stroke-width:2.0px;stroke-linecap:butt;stroke-linejoin:miter;stroke-opacity:1"/>
<path class="bond-25 atom-25 atom-26" d="M 152.5,125.8 L 151.5,124.8" style="fill:none;fill-rule:evenodd;stroke:#FF0000;stroke-width:2.0px;stroke-linecap:butt;stroke-linejoin:miter;stroke-opacity:1"/>
<path class="bond-25 atom-25 atom-26" d="M 152.7,127.7 L 151.6,126.7" style="fill:none;fill-rule:evenodd;stroke:#FF7F00;stroke-width:2.0px;stroke-linecap:butt;stroke-linejoin:miter;stroke-opacity:1"/>
<path class="bond-25 atom-25 atom-26" d="M 151.6,126.7 L 150.6,125.7" style="fill:none;fill-rule:evenodd;stroke:#FF0000;stroke-width:2.0px;stroke-linecap:butt;stroke-linejoin:miter;stroke-opacity:1"/>
<path class="bond-26 atom-25 atom-27" d="M 156.4,130.5 L 157.4,131.6" style="fill:none;fill-rule:evenodd;stroke:#FF7F00;stroke-width:2.0px;stroke-linecap:butt;stroke-linejoin:miter;stroke-opacity:1"/>
<path class="bond-26 atom-25 atom-27" d="M 157.4,131.6 L 158.4,132.6" style="fill:none;fill-rule:evenodd;stroke:#FF0000;stroke-width:2.0px;stroke-linecap:butt;stroke-linejoin:miter;stroke-opacity:1"/>
<path class="bond-27 atom-25 atom-28" d="M 153.1,130.6 L 152.1,131.6" style="fill:none;fill-rule:evenodd;stroke:#FF7F00;stroke-width:2.0px;stroke-linecap:butt;stroke-linejoin:miter;stroke-opacity:1"/>
<path class="bond-27 atom-25 atom-28" d="M 152.1,131.6 L 151.1,132.6" style="fill:none;fill-rule:evenodd;stroke:#FF0000;stroke-width:2.0px;stroke-linecap:butt;stroke-linejoin:miter;stroke-opacity:1"/>
<path class="bond-28 atom-28 atom-29" d="M 146.6,134.3 L 143.7,133.5" style="fill:none;fill-rule:evenodd;stroke:#FF0000;stroke-width:2.0px;stroke-linecap:butt;stroke-linejoin:miter;stroke-opacity:1"/>
<path class="bond-28 atom-28 atom-29" d="M 143.7,133.5 L 140.8,132.7" style="fill:none;fill-rule:evenodd;stroke:#000000;stroke-width:2.0px;stroke-linecap:butt;stroke-linejoin:miter;stroke-opacity:1"/>
<path class="bond-29 atom-29 atom-30" d="M 140.8,132.7 L 134.9,138.6" style="fill:none;fill-rule:evenodd;stroke:#000000;stroke-width:2.0px;stroke-linecap:butt;stroke-linejoin:miter;stroke-opacity:1"/>
<path class="bond-30 atom-30 atom-31" d="M 134.9,138.6 L 135.4,141.5" style="fill:none;fill-rule:evenodd;stroke:#000000;stroke-width:2.0px;stroke-linecap:butt;stroke-linejoin:miter;stroke-opacity:1"/>
<path class="bond-30 atom-30 atom-31" d="M 135.4,141.5 L 135.8,144.4" style="fill:none;fill-rule:evenodd;stroke:#FF0000;stroke-width:2.0px;stroke-linecap:butt;stroke-linejoin:miter;stroke-opacity:1"/>
<path class="bond-31 atom-31 atom-32" d="M 134.0,148.0 L 131.4,149.3" style="fill:none;fill-rule:evenodd;stroke:#FF0000;stroke-width:2.0px;stroke-linecap:butt;stroke-linejoin:miter;stroke-opacity:1"/>
<path class="bond-31 atom-31 atom-32" d="M 131.4,149.3 L 128.8,150.7" style="fill:none;fill-rule:evenodd;stroke:#000000;stroke-width:2.0px;stroke-linecap:butt;stroke-linejoin:miter;stroke-opacity:1"/>
<path class="bond-32 atom-32 atom-33" d="M 128.8,150.7 L 128.3,153.6" style="fill:none;fill-rule:evenodd;stroke:#000000;stroke-width:2.0px;stroke-linecap:butt;stroke-linejoin:miter;stroke-opacity:1"/>
<path class="bond-32 atom-32 atom-33" d="M 128.3,153.6 L 127.9,156.5" style="fill:none;fill-rule:evenodd;stroke:#0000FF;stroke-width:2.0px;stroke-linecap:butt;stroke-linejoin:miter;stroke-opacity:1"/>
<path class="bond-33 atom-33 atom-34" d="M 125.6,159.9 L 122.9,161.3" style="fill:none;fill-rule:evenodd;stroke:#0000FF;stroke-width:2.0px;stroke-linecap:butt;stroke-linejoin:miter;stroke-opacity:1"/>
<path class="bond-33 atom-33 atom-34" d="M 122.9,161.3 L 120.1,162.7" style="fill:none;fill-rule:evenodd;stroke:#000000;stroke-width:2.0px;stroke-linecap:butt;stroke-linejoin:miter;stroke-opacity:1"/>
<path class="bond-34 atom-34 atom-35" d="M 120.1,162.7 L 120.6,165.7" style="fill:none;fill-rule:evenodd;stroke:#000000;stroke-width:2.0px;stroke-linecap:butt;stroke-linejoin:miter;stroke-opacity:1"/>
<path class="bond-34 atom-34 atom-35" d="M 120.6,165.7 L 121.0,168.6" style="fill:none;fill-rule:evenodd;stroke:#0000FF;stroke-width:2.0px;stroke-linecap:butt;stroke-linejoin:miter;stroke-opacity:1"/>
<path class="bond-34 atom-34 atom-35" d="M 121.5,163.4 L 121.9,165.9" style="fill:none;fill-rule:evenodd;stroke:#000000;stroke-width:2.0px;stroke-linecap:butt;stroke-linejoin:miter;stroke-opacity:1"/>
<path class="bond-34 atom-34 atom-35" d="M 121.9,165.9 L 122.3,168.4" style="fill:none;fill-rule:evenodd;stroke:#0000FF;stroke-width:2.0px;stroke-linecap:butt;stroke-linejoin:miter;stroke-opacity:1"/>
<path class="bond-35 atom-35 atom-36" d="M 123.3,171.3 L 126.5,171.8" style="fill:none;fill-rule:evenodd;stroke:#0000FF;stroke-width:2.0px;stroke-linecap:butt;stroke-linejoin:miter;stroke-opacity:1"/>
<path class="bond-35 atom-35 atom-36" d="M 126.5,171.8 L 129.7,172.3" style="fill:none;fill-rule:evenodd;stroke:#000000;stroke-width:2.0px;stroke-linecap:butt;stroke-linejoin:miter;stroke-opacity:1"/>
<path class="bond-36 atom-36 atom-37" d="M 129.7,172.3 L 134.2,179.2" style="fill:none;fill-rule:evenodd;stroke:#000000;stroke-width:2.0px;stroke-linecap:butt;stroke-linejoin:miter;stroke-opacity:1"/>
<path class="bond-36 atom-36 atom-37" d="M 131.1,172.2 L 134.9,178.0" style="fill:none;fill-rule:evenodd;stroke:#000000;stroke-width:2.0px;stroke-linecap:butt;stroke-linejoin:miter;stroke-opacity:1"/>
<path class="bond-37 atom-37 atom-38" d="M 134.2,179.2 L 133.0,181.8" style="fill:none;fill-rule:evenodd;stroke:#000000;stroke-width:2.0px;stroke-linecap:butt;stroke-linejoin:miter;stroke-opacity:1"/>
<path class="bond-37 atom-37 atom-38" d="M 133.0,181.8 L 131.7,184.3" style="fill:none;fill-rule:evenodd;stroke:#0000FF;stroke-width:2.0px;stroke-linecap:butt;stroke-linejoin:miter;stroke-opacity:1"/>
<path class="bond-38 atom-37 atom-39" d="M 134.2,179.2 L 137.5,179.1" style="fill:none;fill-rule:evenodd;stroke:#000000;stroke-width:2.0px;stroke-linecap:butt;stroke-linejoin:miter;stroke-opacity:1"/>
<path class="bond-38 atom-37 atom-39" d="M 137.5,179.1 L 140.7,178.9" style="fill:none;fill-rule:evenodd;stroke:#0000FF;stroke-width:2.0px;stroke-linecap:butt;stroke-linejoin:miter;stroke-opacity:1"/>
<path class="bond-39 atom-39 atom-40" d="M 143.8,176.4 L 145.1,173.9" style="fill:none;fill-rule:evenodd;stroke:#0000FF;stroke-width:2.0px;stroke-linecap:butt;stroke-linejoin:miter;stroke-opacity:1"/>
<path class="bond-39 atom-39 atom-40" d="M 145.1,173.9 L 146.3,171.3" style="fill:none;fill-rule:evenodd;stroke:#000000;stroke-width:2.0px;stroke-linecap:butt;stroke-linejoin:miter;stroke-opacity:1"/>
<path class="bond-39 atom-39 atom-40" d="M 142.7,175.8 L 143.8,173.6" style="fill:none;fill-rule:evenodd;stroke:#0000FF;stroke-width:2.0px;stroke-linecap:butt;stroke-linejoin:miter;stroke-opacity:1"/>
<path class="bond-39 atom-39 atom-40" d="M 143.8,173.6 L 144.9,171.4" style="fill:none;fill-rule:evenodd;stroke:#000000;stroke-width:2.0px;stroke-linecap:butt;stroke-linejoin:miter;stroke-opacity:1"/>
<path class="bond-40 atom-40 atom-41" d="M 146.3,171.3 L 144.8,169.0" style="fill:none;fill-rule:evenodd;stroke:#000000;stroke-width:2.0px;stroke-linecap:butt;stroke-linejoin:miter;stroke-opacity:1"/>
<path class="bond-40 atom-40 atom-41" d="M 144.8,169.0 L 143.3,166.7" style="fill:none;fill-rule:evenodd;stroke:#0000FF;stroke-width:2.0px;stroke-linecap:butt;stroke-linejoin:miter;stroke-opacity:1"/>
<path class="bond-41 atom-41 atom-42" d="M 139.9,164.5 L 136.7,164.6" style="fill:none;fill-rule:evenodd;stroke:#0000FF;stroke-width:2.0px;stroke-linecap:butt;stroke-linejoin:miter;stroke-opacity:1"/>
<path class="bond-41 atom-41 atom-42" d="M 136.7,164.6 L 133.4,164.8" style="fill:none;fill-rule:evenodd;stroke:#000000;stroke-width:2.0px;stroke-linecap:butt;stroke-linejoin:miter;stroke-opacity:1"/>
<path class="bond-41 atom-41 atom-42" d="M 140.0,165.7 L 137.1,165.9" style="fill:none;fill-rule:evenodd;stroke:#0000FF;stroke-width:2.0px;stroke-linecap:butt;stroke-linejoin:miter;stroke-opacity:1"/>
<path class="bond-41 atom-41 atom-42" d="M 137.1,165.9 L 134.2,166.0" style="fill:none;fill-rule:evenodd;stroke:#000000;stroke-width:2.0px;stroke-linecap:butt;stroke-linejoin:miter;stroke-opacity:1"/>
<path class="bond-42 atom-32 atom-43" d="M 128.8,150.7 L 122.9,144.8" style="fill:none;fill-rule:evenodd;stroke:#000000;stroke-width:2.0px;stroke-linecap:butt;stroke-linejoin:miter;stroke-opacity:1"/>
<path class="bond-43 atom-43 atom-44" d="M 122.9,144.8 L 119.9,145.3" style="fill:none;fill-rule:evenodd;stroke:#000000;stroke-width:2.0px;stroke-linecap:butt;stroke-linejoin:miter;stroke-opacity:1"/>
<path class="bond-43 atom-43 atom-44" d="M 119.9,145.3 L 116.9,145.8" style="fill:none;fill-rule:evenodd;stroke:#FF0000;stroke-width:2.0px;stroke-linecap:butt;stroke-linejoin:miter;stroke-opacity:1"/>
<path class="bond-44 atom-43 atom-45" d="M 122.9,144.8 L 126.6,137.3" style="fill:none;fill-rule:evenodd;stroke:#000000;stroke-width:2.0px;stroke-linecap:butt;stroke-linejoin:miter;stroke-opacity:1"/>
<path class="bond-45 atom-45 atom-46" d="M 126.6,137.3 L 125.4,134.9" style="fill:none;fill-rule:evenodd;stroke:#000000;stroke-width:2.0px;stroke-linecap:butt;stroke-linejoin:miter;stroke-opacity:1"/>
<path class="bond-45 atom-45 atom-46" d="M 125.4,134.9 L 124.1,132.4" style="fill:none;fill-rule:evenodd;stroke:#FF0000;stroke-width:2.0px;stroke-linecap:butt;stroke-linejoin:miter;stroke-opacity:1"/>
<path class="bond-46 atom-46 atom-47" d="M 124.4,127.5 L 125.1,126.4" style="fill:none;fill-rule:evenodd;stroke:#FF0000;stroke-width:2.0px;stroke-linecap:butt;stroke-linejoin:miter;stroke-opacity:1"/>
<path class="bond-46 atom-46 atom-47" d="M 125.1,126.4 L 125.8,125.3" style="fill:none;fill-rule:evenodd;stroke:#FF7F00;stroke-width:2.0px;stroke-linecap:butt;stroke-linejoin:miter;stroke-opacity:1"/>
<path class="bond-47 atom-47 atom-48" d="M 126.1,121.3 L 124.5,120.3" style="fill:none;fill-rule:evenodd;stroke:#FF7F00;stroke-width:2.0px;stroke-linecap:butt;stroke-linejoin:miter;stroke-opacity:1"/>
<path class="bond-47 atom-47 atom-48" d="M 124.5,120.3 L 122.9,119.3" style="fill:none;fill-rule:evenodd;stroke:#FF0000;stroke-width:2.0px;stroke-linecap:butt;stroke-linejoin:miter;stroke-opacity:1"/>
<path class="bond-47 atom-47 atom-48" d="M 125.4,122.4 L 123.8,121.4" style="fill:none;fill-rule:evenodd;stroke:#FF7F00;stroke-width:2.0px;stroke-linecap:butt;stroke-linejoin:miter;stroke-opacity:1"/>
<path class="bond-47 atom-47 atom-48" d="M 123.8,121.4 L 122.2,120.3" style="fill:none;fill-rule:evenodd;stroke:#FF0000;stroke-width:2.0px;stroke-linecap:butt;stroke-linejoin:miter;stroke-opacity:1"/>
<path class="bond-48 atom-47 atom-49" d="M 129.0,124.0 L 130.6,125.0" style="fill:none;fill-rule:evenodd;stroke:#FF7F00;stroke-width:2.0px;stroke-linecap:butt;stroke-linejoin:miter;stroke-opacity:1"/>
<path class="bond-48 atom-47 atom-49" d="M 130.6,125.0 L 132.1,126.0" style="fill:none;fill-rule:evenodd;stroke:#FF0000;stroke-width:2.0px;stroke-linecap:butt;stroke-linejoin:miter;stroke-opacity:1"/>
<path class="bond-49 atom-47 atom-50" d="M 128.9,120.5 L 129.6,119.4" style="fill:none;fill-rule:evenodd;stroke:#FF7F00;stroke-width:2.0px;stroke-linecap:butt;stroke-linejoin:miter;stroke-opacity:1"/>
<path class="bond-49 atom-47 atom-50" d="M 129.6,119.4 L 130.3,118.4" style="fill:none;fill-rule:evenodd;stroke:#FF0000;stroke-width:2.0px;stroke-linecap:butt;stroke-linejoin:miter;stroke-opacity:1"/>
<path class="bond-50 atom-4 atom-51" d="M 158.6,32.7 L 164.5,26.8" style="fill:none;fill-rule:evenodd;stroke:#000000;stroke-width:2.0px;stroke-linecap:butt;stroke-linejoin:miter;stroke-opacity:1"/>
<path class="bond-51 atom-51 atom-52" d="M 164.5,26.8 L 166.3,28.7" style="fill:none;fill-rule:evenodd;stroke:#000000;stroke-width:2.0px;stroke-linecap:butt;stroke-linejoin:miter;stroke-opacity:1"/>
<path class="bond-51 atom-51 atom-52" d="M 166.3,28.7 L 168.2,30.5" style="fill:none;fill-rule:evenodd;stroke:#FF0000;stroke-width:2.0px;stroke-linecap:butt;stroke-linejoin:miter;stroke-opacity:1"/>
<path class="bond-52 atom-51 atom-53" d="M 164.5,26.8 L 162.6,25.0" style="fill:none;fill-rule:evenodd;stroke:#000000;stroke-width:2.0px;stroke-linecap:butt;stroke-linejoin:miter;stroke-opacity:1"/>
<path class="bond-52 atom-51 atom-53" d="M 162.6,25.0 L 160.8,23.1" style="fill:none;fill-rule:evenodd;stroke:#FF0000;stroke-width:2.0px;stroke-linecap:butt;stroke-linejoin:miter;stroke-opacity:1"/>
<path class="bond-53 atom-51 atom-54" d="M 164.5,26.8 L 170.4,20.9" style="fill:none;fill-rule:evenodd;stroke:#000000;stroke-width:2.0px;stroke-linecap:butt;stroke-linejoin:miter;stroke-opacity:1"/>
<path class="bond-54 atom-54 atom-55" d="M 170.4,20.9 L 169.6,18.1" style="fill:none;fill-rule:evenodd;stroke:#000000;stroke-width:2.0px;stroke-linecap:butt;stroke-linejoin:miter;stroke-opacity:1"/>
<path class="bond-54 atom-54 atom-55" d="M 169.6,18.1 L 168.8,15.2" style="fill:none;fill-rule:evenodd;stroke:#0000FF;stroke-width:2.0px;stroke-linecap:butt;stroke-linejoin:miter;stroke-opacity:1"/>
<path class="bond-55 atom-54 atom-56" d="M 170.4,20.9 L 178.4,23.0" style="fill:none;fill-rule:evenodd;stroke:#000000;stroke-width:2.0px;stroke-linecap:butt;stroke-linejoin:miter;stroke-opacity:1"/>
<path class="bond-56 atom-56 atom-57" d="M 178.4,23.0 L 184.3,17.1" style="fill:none;fill-rule:evenodd;stroke:#000000;stroke-width:2.0px;stroke-linecap:butt;stroke-linejoin:miter;stroke-opacity:1"/>
<path class="bond-57 atom-57 atom-58" d="M 184.3,17.1 L 192.4,19.2" style="fill:none;fill-rule:evenodd;stroke:#000000;stroke-width:2.0px;stroke-linecap:butt;stroke-linejoin:miter;stroke-opacity:1"/>
<path class="bond-58 atom-57 atom-59" d="M 184.3,17.1 L 182.1,9.1" style="fill:none;fill-rule:evenodd;stroke:#000000;stroke-width:2.0px;stroke-linecap:butt;stroke-linejoin:miter;stroke-opacity:1"/>
<path class="bond-59 atom-56 atom-60" d="M 178.4,23.0 L 180.6,31.1" style="fill:none;fill-rule:evenodd;stroke:#000000;stroke-width:2.0px;stroke-linecap:butt;stroke-linejoin:miter;stroke-opacity:1"/>
<path class="bond-60 atom-60 atom-61" d="M 180.6,31.1 L 178.6,33.1" style="fill:none;fill-rule:evenodd;stroke:#000000;stroke-width:2.0px;stroke-linecap:butt;stroke-linejoin:miter;stroke-opacity:1"/>
<path class="bond-60 atom-60 atom-61" d="M 178.6,33.1 L 176.6,35.1" style="fill:none;fill-rule:evenodd;stroke:#0000FF;stroke-width:2.0px;stroke-linecap:butt;stroke-linejoin:miter;stroke-opacity:1"/>
<path class="bond-61 atom-60 atom-62" d="M 180.6,31.1 L 188.7,33.2" style="fill:none;fill-rule:evenodd;stroke:#000000;stroke-width:2.0px;stroke-linecap:butt;stroke-linejoin:miter;stroke-opacity:1"/>
<path class="bond-62 atom-62 atom-63" d="M 188.7,33.2 L 187.9,36.0" style="fill:none;fill-rule:evenodd;stroke:#000000;stroke-width:2.0px;stroke-linecap:butt;stroke-linejoin:miter;stroke-opacity:1"/>
<path class="bond-62 atom-62 atom-63" d="M 187.9,36.0 L 187.2,38.9" style="fill:none;fill-rule:evenodd;stroke:#FF0000;stroke-width:2.0px;stroke-linecap:butt;stroke-linejoin:miter;stroke-opacity:1"/>
<path class="bond-63 atom-62 atom-64" d="M 188.7,33.2 L 189.4,30.4" style="fill:none;fill-rule:evenodd;stroke:#000000;stroke-width:2.0px;stroke-linecap:butt;stroke-linejoin:miter;stroke-opacity:1"/>
<path class="bond-63 atom-62 atom-64" d="M 189.4,30.4 L 190.2,27.6" style="fill:none;fill-rule:evenodd;stroke:#FF0000;stroke-width:2.0px;stroke-linecap:butt;stroke-linejoin:miter;stroke-opacity:1"/>
<path class="bond-64 atom-62 atom-65" d="M 188.7,33.2 L 196.8,35.4" style="fill:none;fill-rule:evenodd;stroke:#000000;stroke-width:2.0px;stroke-linecap:butt;stroke-linejoin:miter;stroke-opacity:1"/>
<path class="bond-65 atom-65 atom-66" d="M 196.8,35.4 L 198.9,43.4" style="fill:none;fill-rule:evenodd;stroke:#000000;stroke-width:2.0px;stroke-linecap:butt;stroke-linejoin:miter;stroke-opacity:1"/>
<path class="bond-66 atom-66 atom-67" d="M 198.9,43.4 L 202.0,44.2" style="fill:none;fill-rule:evenodd;stroke:#000000;stroke-width:2.0px;stroke-linecap:butt;stroke-linejoin:miter;stroke-opacity:1"/>
<path class="bond-66 atom-66 atom-67" d="M 202.0,44.2 L 205.1,45.1" style="fill:none;fill-rule:evenodd;stroke:#0000FF;stroke-width:2.0px;stroke-linecap:butt;stroke-linejoin:miter;stroke-opacity:1"/>
<path class="bond-67 atom-67 atom-68" d="M 207.7,47.9 L 208.4,50.8" style="fill:none;fill-rule:evenodd;stroke:#0000FF;stroke-width:2.0px;stroke-linecap:butt;stroke-linejoin:miter;stroke-opacity:1"/>
<path class="bond-67 atom-67 atom-68" d="M 208.4,50.8 L 209.2,53.6" style="fill:none;fill-rule:evenodd;stroke:#000000;stroke-width:2.0px;stroke-linecap:butt;stroke-linejoin:miter;stroke-opacity:1"/>
<path class="bond-68 atom-68 atom-69" d="M 209.0,52.9 L 207.0,54.9" style="fill:none;fill-rule:evenodd;stroke:#000000;stroke-width:2.0px;stroke-linecap:butt;stroke-linejoin:miter;stroke-opacity:1"/>
<path class="bond-68 atom-68 atom-69" d="M 207.0,54.9 L 205.1,56.8" style="fill:none;fill-rule:evenodd;stroke:#FF0000;stroke-width:2.0px;stroke-linecap:butt;stroke-linejoin:miter;stroke-opacity:1"/>
<path class="bond-68 atom-68 atom-69" d="M 209.9,53.8 L 207.9,55.8" style="fill:none;fill-rule:evenodd;stroke:#000000;stroke-width:2.0px;stroke-linecap:butt;stroke-linejoin:miter;stroke-opacity:1"/>
<path class="bond-68 atom-68 atom-69" d="M 207.9,55.8 L 206.0,57.7" style="fill:none;fill-rule:evenodd;stroke:#FF0000;stroke-width:2.0px;stroke-linecap:butt;stroke-linejoin:miter;stroke-opacity:1"/>
<path class="bond-69 atom-68 atom-70" d="M 209.2,53.6 L 217.3,55.7" style="fill:none;fill-rule:evenodd;stroke:#000000;stroke-width:2.0px;stroke-linecap:butt;stroke-linejoin:miter;stroke-opacity:1"/>
<path class="bond-70 atom-70 atom-71" d="M 217.3,55.7 L 219.5,63.8" style="fill:none;fill-rule:evenodd;stroke:#000000;stroke-width:2.0px;stroke-linecap:butt;stroke-linejoin:miter;stroke-opacity:1"/>
<path class="bond-71 atom-71 atom-72" d="M 219.5,63.8 L 222.5,64.6" style="fill:none;fill-rule:evenodd;stroke:#000000;stroke-width:2.0px;stroke-linecap:butt;stroke-linejoin:miter;stroke-opacity:1"/>
<path class="bond-71 atom-71 atom-72" d="M 222.5,64.6 L 225.6,65.4" style="fill:none;fill-rule:evenodd;stroke:#0000FF;stroke-width:2.0px;stroke-linecap:butt;stroke-linejoin:miter;stroke-opacity:1"/>
<path class="bond-72 atom-72 atom-73" d="M 228.2,68.3 L 228.9,71.2" style="fill:none;fill-rule:evenodd;stroke:#0000FF;stroke-width:2.0px;stroke-linecap:butt;stroke-linejoin:miter;stroke-opacity:1"/>
<path class="bond-72 atom-72 atom-73" d="M 228.9,71.2 L 229.7,74.0" style="fill:none;fill-rule:evenodd;stroke:#000000;stroke-width:2.0px;stroke-linecap:butt;stroke-linejoin:miter;stroke-opacity:1"/>
<path class="bond-73 atom-73 atom-74" d="M 229.5,73.3 L 227.6,75.3" style="fill:none;fill-rule:evenodd;stroke:#000000;stroke-width:2.0px;stroke-linecap:butt;stroke-linejoin:miter;stroke-opacity:1"/>
<path class="bond-73 atom-73 atom-74" d="M 227.6,75.3 L 225.6,77.2" style="fill:none;fill-rule:evenodd;stroke:#FF0000;stroke-width:2.0px;stroke-linecap:butt;stroke-linejoin:miter;stroke-opacity:1"/>
<path class="bond-73 atom-73 atom-74" d="M 230.4,74.2 L 228.4,76.1" style="fill:none;fill-rule:evenodd;stroke:#000000;stroke-width:2.0px;stroke-linecap:butt;stroke-linejoin:miter;stroke-opacity:1"/>
<path class="bond-73 atom-73 atom-74" d="M 228.4,76.1 L 226.5,78.1" style="fill:none;fill-rule:evenodd;stroke:#FF0000;stroke-width:2.0px;stroke-linecap:butt;stroke-linejoin:miter;stroke-opacity:1"/>
<path class="bond-74 atom-73 atom-75" d="M 229.7,74.0 L 237.8,76.1" style="fill:none;fill-rule:evenodd;stroke:#000000;stroke-width:2.0px;stroke-linecap:butt;stroke-linejoin:miter;stroke-opacity:1"/>
<path class="bond-75 atom-75 atom-76" d="M 237.8,76.1 L 239.6,74.3" style="fill:none;fill-rule:evenodd;stroke:#000000;stroke-width:2.0px;stroke-linecap:butt;stroke-linejoin:miter;stroke-opacity:1"/>
<path class="bond-75 atom-75 atom-76" d="M 239.6,74.3 L 241.4,72.4" style="fill:none;fill-rule:evenodd;stroke:#FF0000;stroke-width:2.0px;stroke-linecap:butt;stroke-linejoin:miter;stroke-opacity:1"/>
<path class="bond-76 atom-75 atom-77" d="M 237.8,76.1 L 240.0,84.2" style="fill:none;fill-rule:evenodd;stroke:#000000;stroke-width:2.0px;stroke-linecap:butt;stroke-linejoin:miter;stroke-opacity:1"/>
<path class="bond-77 atom-77 atom-78" d="M 240.0,84.2 L 248.0,82.0" style="fill:none;fill-rule:evenodd;stroke:#000000;stroke-width:2.0px;stroke-linecap:butt;stroke-linejoin:miter;stroke-opacity:1"/>
<path class="bond-78 atom-77 atom-79" d="M 240.0,84.2 L 231.9,86.4" style="fill:none;fill-rule:evenodd;stroke:#000000;stroke-width:2.0px;stroke-linecap:butt;stroke-linejoin:miter;stroke-opacity:1"/>
<path class="bond-79 atom-77 atom-80" d="M 240.0,84.2 L 242.1,92.2" style="fill:none;fill-rule:evenodd;stroke:#000000;stroke-width:2.0px;stroke-linecap:butt;stroke-linejoin:miter;stroke-opacity:1"/>
<path class="bond-80 atom-80 atom-81" d="M 242.1,92.2 L 240.3,94.1" style="fill:none;fill-rule:evenodd;stroke:#000000;stroke-width:2.0px;stroke-linecap:butt;stroke-linejoin:miter;stroke-opacity:1"/>
<path class="bond-80 atom-80 atom-81" d="M 240.3,94.1 L 238.5,95.9" style="fill:none;fill-rule:evenodd;stroke:#FF0000;stroke-width:2.0px;stroke-linecap:butt;stroke-linejoin:miter;stroke-opacity:1"/>
<path class="bond-81 atom-81 atom-82" d="M 236.9,100.6 L 237.4,102.2" style="fill:none;fill-rule:evenodd;stroke:#FF0000;stroke-width:2.0px;stroke-linecap:butt;stroke-linejoin:miter;stroke-opacity:1"/>
<path class="bond-81 atom-81 atom-82" d="M 237.4,102.2 L 237.8,103.8" style="fill:none;fill-rule:evenodd;stroke:#FF7F00;stroke-width:2.0px;stroke-linecap:butt;stroke-linejoin:miter;stroke-opacity:1"/>
<path class="bond-82 atom-82 atom-83" d="M 240.2,106.4 L 242.3,105.8" style="fill:none;fill-rule:evenodd;stroke:#FF7F00;stroke-width:2.0px;stroke-linecap:butt;stroke-linejoin:miter;stroke-opacity:1"/>
<path class="bond-82 atom-82 atom-83" d="M 242.3,105.8 L 244.4,105.2" style="fill:none;fill-rule:evenodd;stroke:#FF0000;stroke-width:2.0px;stroke-linecap:butt;stroke-linejoin:miter;stroke-opacity:1"/>
<path class="bond-82 atom-82 atom-83" d="M 239.9,105.2 L 242.0,104.6" style="fill:none;fill-rule:evenodd;stroke:#FF7F00;stroke-width:2.0px;stroke-linecap:butt;stroke-linejoin:miter;stroke-opacity:1"/>
<path class="bond-82 atom-82 atom-83" d="M 242.0,104.6 L 244.1,104.0" style="fill:none;fill-rule:evenodd;stroke:#FF0000;stroke-width:2.0px;stroke-linecap:butt;stroke-linejoin:miter;stroke-opacity:1"/>
<path class="bond-83 atom-82 atom-84" d="M 236.8,106.7 L 234.7,107.2" style="fill:none;fill-rule:evenodd;stroke:#FF7F00;stroke-width:2.0px;stroke-linecap:butt;stroke-linejoin:miter;stroke-opacity:1"/>
<path class="bond-83 atom-82 atom-84" d="M 234.7,107.2 L 232.6,107.8" style="fill:none;fill-rule:evenodd;stroke:#FF0000;stroke-width:2.0px;stroke-linecap:butt;stroke-linejoin:miter;stroke-opacity:1"/>
<path class="bond-84 atom-82 atom-85" d="M 239.1,108.6 L 239.5,110.2" style="fill:none;fill-rule:evenodd;stroke:#FF7F00;stroke-width:2.0px;stroke-linecap:butt;stroke-linejoin:miter;stroke-opacity:1"/>
<path class="bond-84 atom-82 atom-85" d="M 239.5,110.2 L 240.0,111.8" style="fill:none;fill-rule:evenodd;stroke:#FF0000;stroke-width:2.0px;stroke-linecap:butt;stroke-linejoin:miter;stroke-opacity:1"/>
<path class="bond-85 atom-85 atom-86" d="M 242.9,114.9 L 245.0,115.4" style="fill:none;fill-rule:evenodd;stroke:#FF0000;stroke-width:2.0px;stroke-linecap:butt;stroke-linejoin:miter;stroke-opacity:1"/>
<path class="bond-85 atom-85 atom-86" d="M 245.0,115.4 L 247.1,116.0" style="fill:none;fill-rule:evenodd;stroke:#FF7F00;stroke-width:2.0px;stroke-linecap:butt;stroke-linejoin:miter;stroke-opacity:1"/>
<path class="bond-86 atom-86 atom-87" d="M 247.5,118.6 L 247.0,120.3" style="fill:none;fill-rule:evenodd;stroke:#FF7F00;stroke-width:2.0px;stroke-linecap:butt;stroke-linejoin:miter;stroke-opacity:1"/>
<path class="bond-86 atom-86 atom-87" d="M 247.0,120.3 L 246.6,121.9" style="fill:none;fill-rule:evenodd;stroke:#FF0000;stroke-width:2.0px;stroke-linecap:butt;stroke-linejoin:miter;stroke-opacity:1"/>
<path class="bond-86 atom-86 atom-87" d="M 248.7,119.0 L 248.2,120.6" style="fill:none;fill-rule:evenodd;stroke:#FF7F00;stroke-width:2.0px;stroke-linecap:butt;stroke-linejoin:miter;stroke-opacity:1"/>
<path class="bond-86 atom-86 atom-87" d="M 248.2,120.6 L 247.8,122.2" style="fill:none;fill-rule:evenodd;stroke:#FF0000;stroke-width:2.0px;stroke-linecap:butt;stroke-linejoin:miter;stroke-opacity:1"/>
<path class="bond-87 atom-86 atom-88" d="M 249.3,114.0 L 249.8,112.4" style="fill:none;fill-rule:evenodd;stroke:#FF7F00;stroke-width:2.0px;stroke-linecap:butt;stroke-linejoin:miter;stroke-opacity:1"/>
<path class="bond-87 atom-86 atom-88" d="M 249.8,112.4 L 250.2,110.8" style="fill:none;fill-rule:evenodd;stroke:#FF0000;stroke-width:2.0px;stroke-linecap:butt;stroke-linejoin:miter;stroke-opacity:1"/>
<path class="bond-88 atom-86 atom-89" d="M 250.3,116.8 L 252.4,117.4" style="fill:none;fill-rule:evenodd;stroke:#FF7F00;stroke-width:2.0px;stroke-linecap:butt;stroke-linejoin:miter;stroke-opacity:1"/>
<path class="bond-88 atom-86 atom-89" d="M 252.4,117.4 L 254.5,117.9" style="fill:none;fill-rule:evenodd;stroke:#FF0000;stroke-width:2.0px;stroke-linecap:butt;stroke-linejoin:miter;stroke-opacity:1"/>
<path class="bond-89 atom-89 atom-90" d="M 259.0,116.3 L 260.8,114.5" style="fill:none;fill-rule:evenodd;stroke:#FF0000;stroke-width:2.0px;stroke-linecap:butt;stroke-linejoin:miter;stroke-opacity:1"/>
<path class="bond-89 atom-89 atom-90" d="M 260.8,114.5 L 262.7,112.6" style="fill:none;fill-rule:evenodd;stroke:#000000;stroke-width:2.0px;stroke-linecap:butt;stroke-linejoin:miter;stroke-opacity:1"/>
<path class="bond-90 atom-90 atom-91" d="M 262.7,112.6 L 270.7,114.8" style="fill:none;fill-rule:evenodd;stroke:#000000;stroke-width:2.0px;stroke-linecap:butt;stroke-linejoin:miter;stroke-opacity:1"/>
<path class="bond-91 atom-91 atom-92" d="M 270.7,114.8 L 272.8,113.0" style="fill:none;fill-rule:evenodd;stroke:#000000;stroke-width:2.0px;stroke-linecap:butt;stroke-linejoin:miter;stroke-opacity:1"/>
<path class="bond-91 atom-91 atom-92" d="M 272.8,113.0 L 275.0,111.3" style="fill:none;fill-rule:evenodd;stroke:#FF0000;stroke-width:2.0px;stroke-linecap:butt;stroke-linejoin:miter;stroke-opacity:1"/>
<path class="bond-92 atom-92 atom-93" d="M 279.4,110.9 L 281.8,112.5" style="fill:none;fill-rule:evenodd;stroke:#FF0000;stroke-width:2.0px;stroke-linecap:butt;stroke-linejoin:miter;stroke-opacity:1"/>
<path class="bond-92 atom-92 atom-93" d="M 281.8,112.5 L 284.2,114.0" style="fill:none;fill-rule:evenodd;stroke:#000000;stroke-width:2.0px;stroke-linecap:butt;stroke-linejoin:miter;stroke-opacity:1"/>
<path class="bond-93 atom-93 atom-94" d="M 284.2,114.0 L 287.2,112.9" style="fill:none;fill-rule:evenodd;stroke:#000000;stroke-width:2.0px;stroke-linecap:butt;stroke-linejoin:miter;stroke-opacity:1"/>
<path class="bond-93 atom-93 atom-94" d="M 287.2,112.9 L 290.1,111.7" style="fill:none;fill-rule:evenodd;stroke:#0000FF;stroke-width:2.0px;stroke-linecap:butt;stroke-linejoin:miter;stroke-opacity:1"/>
<path class="bond-94 atom-94 atom-95" d="M 292.6,108.6 L 293.4,105.8" style="fill:none;fill-rule:evenodd;stroke:#0000FF;stroke-width:2.0px;stroke-linecap:butt;stroke-linejoin:miter;stroke-opacity:1"/>
<path class="bond-94 atom-94 atom-95" d="M 293.4,105.8 L 294.1,102.9" style="fill:none;fill-rule:evenodd;stroke:#000000;stroke-width:2.0px;stroke-linecap:butt;stroke-linejoin:miter;stroke-opacity:1"/>
<path class="bond-95 atom-95 atom-96" d="M 294.1,102.9 L 297.3,102.7" style="fill:none;fill-rule:evenodd;stroke:#000000;stroke-width:2.0px;stroke-linecap:butt;stroke-linejoin:miter;stroke-opacity:1"/>
<path class="bond-95 atom-95 atom-96" d="M 297.3,102.7 L 300.6,102.6" style="fill:none;fill-rule:evenodd;stroke:#0000FF;stroke-width:2.0px;stroke-linecap:butt;stroke-linejoin:miter;stroke-opacity:1"/>
<path class="bond-95 atom-95 atom-96" d="M 295.1,104.1 L 297.9,104.0" style="fill:none;fill-rule:evenodd;stroke:#000000;stroke-width:2.0px;stroke-linecap:butt;stroke-linejoin:miter;stroke-opacity:1"/>
<path class="bond-95 atom-95 atom-96" d="M 297.9,104.0 L 300.6,103.8" style="fill:none;fill-rule:evenodd;stroke:#0000FF;stroke-width:2.0px;stroke-linecap:butt;stroke-linejoin:miter;stroke-opacity:1"/>
<path class="bond-96 atom-96 atom-97" d="M 303.4,104.9 L 304.4,107.5" style="fill:none;fill-rule:evenodd;stroke:#0000FF;stroke-width:2.0px;stroke-linecap:butt;stroke-linejoin:miter;stroke-opacity:1"/>
<path class="bond-96 atom-96 atom-97" d="M 304.4,107.5 L 305.5,110.2" style="fill:none;fill-rule:evenodd;stroke:#000000;stroke-width:2.0px;stroke-linecap:butt;stroke-linejoin:miter;stroke-opacity:1"/>
<path class="bond-97 atom-97 atom-98" d="M 305.5,110.2 L 313.3,113.2" style="fill:none;fill-rule:evenodd;stroke:#000000;stroke-width:2.0px;stroke-linecap:butt;stroke-linejoin:miter;stroke-opacity:1"/>
<path class="bond-97 atom-97 atom-98" d="M 305.7,111.7 L 312.2,114.1" style="fill:none;fill-rule:evenodd;stroke:#000000;stroke-width:2.0px;stroke-linecap:butt;stroke-linejoin:miter;stroke-opacity:1"/>
<path class="bond-98 atom-98 atom-99" d="M 313.3,113.2 L 315.6,111.3" style="fill:none;fill-rule:evenodd;stroke:#000000;stroke-width:2.0px;stroke-linecap:butt;stroke-linejoin:miter;stroke-opacity:1"/>
<path class="bond-98 atom-98 atom-99" d="M 315.6,111.3 L 317.9,109.5" style="fill:none;fill-rule:evenodd;stroke:#0000FF;stroke-width:2.0px;stroke-linecap:butt;stroke-linejoin:miter;stroke-opacity:1"/>
<path class="bond-99 atom-98 atom-100" d="M 313.3,113.2 L 313.7,116.1" style="fill:none;fill-rule:evenodd;stroke:#000000;stroke-width:2.0px;stroke-linecap:butt;stroke-linejoin:miter;stroke-opacity:1"/>
<path class="bond-99 atom-98 atom-100" d="M 313.7,116.1 L 314.2,119.0" style="fill:none;fill-rule:evenodd;stroke:#0000FF;stroke-width:2.0px;stroke-linecap:butt;stroke-linejoin:miter;stroke-opacity:1"/>
<path class="bond-100 atom-100 atom-101" d="M 312.7,123.0 L 310.4,124.8" style="fill:none;fill-rule:evenodd;stroke:#0000FF;stroke-width:2.0px;stroke-linecap:butt;stroke-linejoin:miter;stroke-opacity:1"/>
<path class="bond-100 atom-100 atom-101" d="M 310.4,124.8 L 308.1,126.7" style="fill:none;fill-rule:evenodd;stroke:#000000;stroke-width:2.0px;stroke-linecap:butt;stroke-linejoin:miter;stroke-opacity:1"/>
<path class="bond-100 atom-100 atom-101" d="M 311.9,122.0 L 309.9,123.7" style="fill:none;fill-rule:evenodd;stroke:#0000FF;stroke-width:2.0px;stroke-linecap:butt;stroke-linejoin:miter;stroke-opacity:1"/>
<path class="bond-100 atom-100 atom-101" d="M 309.9,123.7 L 307.9,125.3" style="fill:none;fill-rule:evenodd;stroke:#000000;stroke-width:2.0px;stroke-linecap:butt;stroke-linejoin:miter;stroke-opacity:1"/>
<path class="bond-101 atom-101 atom-102" d="M 308.1,126.7 L 305.2,125.6" style="fill:none;fill-rule:evenodd;stroke:#000000;stroke-width:2.0px;stroke-linecap:butt;stroke-linejoin:miter;stroke-opacity:1"/>
<path class="bond-101 atom-101 atom-102" d="M 305.2,125.6 L 302.2,124.5" style="fill:none;fill-rule:evenodd;stroke:#0000FF;stroke-width:2.0px;stroke-linecap:butt;stroke-linejoin:miter;stroke-opacity:1"/>
<path class="bond-102 atom-102 atom-103" d="M 299.9,121.4 L 299.5,118.4" style="fill:none;fill-rule:evenodd;stroke:#0000FF;stroke-width:2.0px;stroke-linecap:butt;stroke-linejoin:miter;stroke-opacity:1"/>
<path class="bond-102 atom-102 atom-103" d="M 299.5,118.4 L 299.0,115.5" style="fill:none;fill-rule:evenodd;stroke:#000000;stroke-width:2.0px;stroke-linecap:butt;stroke-linejoin:miter;stroke-opacity:1"/>
<path class="bond-102 atom-102 atom-103" d="M 301.2,121.2 L 300.8,118.6" style="fill:none;fill-rule:evenodd;stroke:#0000FF;stroke-width:2.0px;stroke-linecap:butt;stroke-linejoin:miter;stroke-opacity:1"/>
<path class="bond-102 atom-102 atom-103" d="M 300.8,118.6 L 300.4,116.0" style="fill:none;fill-rule:evenodd;stroke:#000000;stroke-width:2.0px;stroke-linecap:butt;stroke-linejoin:miter;stroke-opacity:1"/>
<path class="bond-103 atom-93 atom-104" d="M 284.2,114.0 L 282.1,122.1" style="fill:none;fill-rule:evenodd;stroke:#000000;stroke-width:2.0px;stroke-linecap:butt;stroke-linejoin:miter;stroke-opacity:1"/>
<path class="bond-104 atom-104 atom-105" d="M 282.1,122.1 L 283.7,124.1" style="fill:none;fill-rule:evenodd;stroke:#000000;stroke-width:2.0px;stroke-linecap:butt;stroke-linejoin:miter;stroke-opacity:1"/>
<path class="bond-104 atom-104 atom-105" d="M 283.7,124.1 L 285.4,126.1" style="fill:none;fill-rule:evenodd;stroke:#FF0000;stroke-width:2.0px;stroke-linecap:butt;stroke-linejoin:miter;stroke-opacity:1"/>
<path class="bond-105 atom-104 atom-106" d="M 282.1,122.1 L 273.7,122.5" style="fill:none;fill-rule:evenodd;stroke:#000000;stroke-width:2.0px;stroke-linecap:butt;stroke-linejoin:miter;stroke-opacity:1"/>
<path class="bond-106 atom-106 atom-107" d="M 273.7,122.5 L 272.3,124.8" style="fill:none;fill-rule:evenodd;stroke:#000000;stroke-width:2.0px;stroke-linecap:butt;stroke-linejoin:miter;stroke-opacity:1"/>
<path class="bond-106 atom-106 atom-107" d="M 272.3,124.8 L 270.8,127.1" style="fill:none;fill-rule:evenodd;stroke:#FF0000;stroke-width:2.0px;stroke-linecap:butt;stroke-linejoin:miter;stroke-opacity:1"/>
<path class="bond-107 atom-107 atom-108" d="M 270.5,132.0 L 271.1,133.3" style="fill:none;fill-rule:evenodd;stroke:#FF0000;stroke-width:2.0px;stroke-linecap:butt;stroke-linejoin:miter;stroke-opacity:1"/>
<path class="bond-107 atom-107 atom-108" d="M 271.1,133.3 L 271.8,134.6" style="fill:none;fill-rule:evenodd;stroke:#FF7F00;stroke-width:2.0px;stroke-linecap:butt;stroke-linejoin:miter;stroke-opacity:1"/>
<path class="bond-108 atom-108 atom-109" d="M 271.1,137.3 L 269.3,138.2" style="fill:none;fill-rule:evenodd;stroke:#FF7F00;stroke-width:2.0px;stroke-linecap:butt;stroke-linejoin:miter;stroke-opacity:1"/>
<path class="bond-108 atom-108 atom-109" d="M 269.3,138.2 L 267.5,139.1" style="fill:none;fill-rule:evenodd;stroke:#FF0000;stroke-width:2.0px;stroke-linecap:butt;stroke-linejoin:miter;stroke-opacity:1"/>
<path class="bond-108 atom-108 atom-109" d="M 271.7,138.4 L 269.9,139.3" style="fill:none;fill-rule:evenodd;stroke:#FF7F00;stroke-width:2.0px;stroke-linecap:butt;stroke-linejoin:miter;stroke-opacity:1"/>
<path class="bond-108 atom-108 atom-109" d="M 269.9,139.3 L 268.1,140.2" style="fill:none;fill-rule:evenodd;stroke:#FF0000;stroke-width:2.0px;stroke-linecap:butt;stroke-linejoin:miter;stroke-opacity:1"/>
<path class="bond-109 atom-108 atom-110" d="M 274.7,136.1 L 276.4,135.2" style="fill:none;fill-rule:evenodd;stroke:#FF7F00;stroke-width:2.0px;stroke-linecap:butt;stroke-linejoin:miter;stroke-opacity:1"/>
<path class="bond-109 atom-108 atom-110" d="M 276.4,135.2 L 278.2,134.3" style="fill:none;fill-rule:evenodd;stroke:#FF0000;stroke-width:2.0px;stroke-linecap:butt;stroke-linejoin:miter;stroke-opacity:1"/>
<path class="bond-110 atom-108 atom-111" d="M 274.3,139.4 L 274.9,140.7" style="fill:none;fill-rule:evenodd;stroke:#FF7F00;stroke-width:2.0px;stroke-linecap:butt;stroke-linejoin:miter;stroke-opacity:1"/>
<path class="bond-110 atom-108 atom-111" d="M 274.9,140.7 L 275.6,142.0" style="fill:none;fill-rule:evenodd;stroke:#FF0000;stroke-width:2.0px;stroke-linecap:butt;stroke-linejoin:miter;stroke-opacity:1"/>
<path class="bond-111 atom-65 atom-112" d="M 196.8,35.4 L 198.9,33.2" style="fill:none;fill-rule:evenodd;stroke:#000000;stroke-width:2.0px;stroke-linecap:butt;stroke-linejoin:miter;stroke-opacity:1"/>
<path class="bond-111 atom-65 atom-112" d="M 198.9,33.2 L 201.0,31.1" style="fill:none;fill-rule:evenodd;stroke:#CCCC00;stroke-width:2.0px;stroke-linecap:butt;stroke-linejoin:miter;stroke-opacity:1"/>
<path class="bond-112 atom-112 atom-113" d="M 204.3,29.9 L 207.5,30.7" style="fill:none;fill-rule:evenodd;stroke:#CCCC00;stroke-width:2.0px;stroke-linecap:butt;stroke-linejoin:miter;stroke-opacity:1"/>
<path class="bond-112 atom-112 atom-113" d="M 207.5,30.7 L 210.7,31.6" style="fill:none;fill-rule:evenodd;stroke:#000000;stroke-width:2.0px;stroke-linecap:butt;stroke-linejoin:miter;stroke-opacity:1"/>
<path class="bond-113 atom-113 atom-114" d="M 210.7,31.6 L 216.6,25.7" style="fill:none;fill-rule:evenodd;stroke:#000000;stroke-width:2.0px;stroke-linecap:butt;stroke-linejoin:miter;stroke-opacity:1"/>
<path class="bond-114 atom-113 atom-115" d="M 210.0,31.4 L 210.8,34.4" style="fill:none;fill-rule:evenodd;stroke:#000000;stroke-width:2.0px;stroke-linecap:butt;stroke-linejoin:miter;stroke-opacity:1"/>
<path class="bond-114 atom-113 atom-115" d="M 210.8,34.4 L 211.6,37.4" style="fill:none;fill-rule:evenodd;stroke:#FF0000;stroke-width:2.0px;stroke-linecap:butt;stroke-linejoin:miter;stroke-opacity:1"/>
<path class="bond-114 atom-113 atom-115" d="M 211.2,31.1 L 212.0,34.1" style="fill:none;fill-rule:evenodd;stroke:#000000;stroke-width:2.0px;stroke-linecap:butt;stroke-linejoin:miter;stroke-opacity:1"/>
<path class="bond-114 atom-113 atom-115" d="M 212.0,34.1 L 212.8,37.0" style="fill:none;fill-rule:evenodd;stroke:#FF0000;stroke-width:2.0px;stroke-linecap:butt;stroke-linejoin:miter;stroke-opacity:1"/>
<path class="bond-115 atom-45 atom-30" d="M 126.6,137.3 L 134.9,138.6" style="fill:none;fill-rule:evenodd;stroke:#000000;stroke-width:2.0px;stroke-linecap:butt;stroke-linejoin:miter;stroke-opacity:1"/>
<path class="bond-116 atom-106 atom-91" d="M 273.7,122.5 L 270.7,114.8" style="fill:none;fill-rule:evenodd;stroke:#000000;stroke-width:2.0px;stroke-linecap:butt;stroke-linejoin:miter;stroke-opacity:1"/>
<path class="bond-117 atom-42 atom-33" d="M 133.4,164.8 L 131.4,162.8" style="fill:none;fill-rule:evenodd;stroke:#000000;stroke-width:2.0px;stroke-linecap:butt;stroke-linejoin:miter;stroke-opacity:1"/>
<path class="bond-117 atom-42 atom-33" d="M 131.4,162.8 L 129.4,160.8" style="fill:none;fill-rule:evenodd;stroke:#0000FF;stroke-width:2.0px;stroke-linecap:butt;stroke-linejoin:miter;stroke-opacity:1"/>
<path class="bond-118 atom-103 atom-94" d="M 299.0,115.5 L 296.4,113.9" style="fill:none;fill-rule:evenodd;stroke:#000000;stroke-width:2.0px;stroke-linecap:butt;stroke-linejoin:miter;stroke-opacity:1"/>
<path class="bond-118 atom-103 atom-94" d="M 296.4,113.9 L 293.9,112.2" style="fill:none;fill-rule:evenodd;stroke:#0000FF;stroke-width:2.0px;stroke-linecap:butt;stroke-linejoin:miter;stroke-opacity:1"/>
<path class="bond-119 atom-42 atom-36" d="M 133.4,164.8 L 129.7,172.3" style="fill:none;fill-rule:evenodd;stroke:#000000;stroke-width:2.0px;stroke-linecap:butt;stroke-linejoin:miter;stroke-opacity:1"/>
<path class="bond-120 atom-103 atom-97" d="M 299.0,115.5 L 305.5,110.2" style="fill:none;fill-rule:evenodd;stroke:#000000;stroke-width:2.0px;stroke-linecap:butt;stroke-linejoin:miter;stroke-opacity:1"/>
<path d="M 147.9,22.4 L 148.3,22.5 L 148.4,22.7" style="fill:none;stroke:#000000;stroke-width:2.0px;stroke-linecap:butt;stroke-linejoin:miter;stroke-opacity:1;"/>
<path d="M 160.7,40.4 L 160.8,40.8 L 160.7,40.9" style="fill:none;stroke:#000000;stroke-width:2.0px;stroke-linecap:butt;stroke-linejoin:miter;stroke-opacity:1;"/>
<path d="M 157.0,54.6 L 157.1,54.8 L 156.8,55.1" style="fill:none;stroke:#000000;stroke-width:2.0px;stroke-linecap:butt;stroke-linejoin:miter;stroke-opacity:1;"/>
<path d="M 151.5,60.4 L 151.2,60.7 L 151.3,61.1" style="fill:none;stroke:#000000;stroke-width:2.0px;stroke-linecap:butt;stroke-linejoin:miter;stroke-opacity:1;"/>
<path d="M 153.3,68.3 L 153.4,68.7 L 153.3,68.8" style="fill:none;stroke:#000000;stroke-width:2.0px;stroke-linecap:butt;stroke-linejoin:miter;stroke-opacity:1;"/>
<path d="M 149.6,82.6 L 149.7,82.7 L 149.4,83.0" style="fill:none;stroke:#000000;stroke-width:2.0px;stroke-linecap:butt;stroke-linejoin:miter;stroke-opacity:1;"/>
<path d="M 148.1,104.4 L 148.2,104.8 L 148.3,104.8" style="fill:none;stroke:#000000;stroke-width:2.0px;stroke-linecap:butt;stroke-linejoin:miter;stroke-opacity:1;"/>
<path d="M 140.9,132.7 L 140.8,132.7 L 140.5,133.0" style="fill:none;stroke:#000000;stroke-width:2.0px;stroke-linecap:butt;stroke-linejoin:miter;stroke-opacity:1;"/>
<path d="M 120.2,162.7 L 120.1,162.7 L 120.1,162.9" style="fill:none;stroke:#000000;stroke-width:2.0px;stroke-linecap:butt;stroke-linejoin:miter;stroke-opacity:1;"/>
<path d="M 146.3,171.5 L 146.3,171.3 L 146.3,171.2" style="fill:none;stroke:#000000;stroke-width:2.0px;stroke-linecap:butt;stroke-linejoin:miter;stroke-opacity:1;"/>
<path d="M 198.8,43.0 L 198.9,43.4 L 199.1,43.5" style="fill:none;stroke:#000000;stroke-width:2.0px;stroke-linecap:butt;stroke-linejoin:miter;stroke-opacity:1;"/>
<path d="M 209.2,53.5 L 209.2,53.6 L 209.6,53.7" style="fill:none;stroke:#000000;stroke-width:2.0px;stroke-linecap:butt;stroke-linejoin:miter;stroke-opacity:1;"/>
<path d="M 216.9,55.6 L 217.3,55.7 L 217.4,56.1" style="fill:none;stroke:#000000;stroke-width:2.0px;stroke-linecap:butt;stroke-linejoin:miter;stroke-opacity:1;"/>
<path d="M 219.3,63.4 L 219.5,63.8 L 219.6,63.8" style="fill:none;stroke:#000000;stroke-width:2.0px;stroke-linecap:butt;stroke-linejoin:miter;stroke-opacity:1;"/>
<path d="M 229.7,73.8 L 229.7,74.0 L 230.1,74.1" style="fill:none;stroke:#000000;stroke-width:2.0px;stroke-linecap:butt;stroke-linejoin:miter;stroke-opacity:1;"/>
<path d="M 242.0,91.8 L 242.1,92.2 L 242.1,92.3" style="fill:none;stroke:#000000;stroke-width:2.0px;stroke-linecap:butt;stroke-linejoin:miter;stroke-opacity:1;"/>
<path d="M 262.6,112.7 L 262.7,112.6 L 263.1,112.7" style="fill:none;stroke:#000000;stroke-width:2.0px;stroke-linecap:butt;stroke-linejoin:miter;stroke-opacity:1;"/>
<path d="M 294.1,103.1 L 294.1,102.9 L 294.3,102.9" style="fill:none;stroke:#000000;stroke-width:2.0px;stroke-linecap:butt;stroke-linejoin:miter;stroke-opacity:1;"/>
<path d="M 308.3,126.6 L 308.1,126.7 L 308.0,126.7" style="fill:none;stroke:#000000;stroke-width:2.0px;stroke-linecap:butt;stroke-linejoin:miter;stroke-opacity:1;"/>
<path d="M 210.5,31.5 L 210.7,31.6 L 211.0,31.3" style="fill:none;stroke:#000000;stroke-width:2.0px;stroke-linecap:butt;stroke-linejoin:miter;stroke-opacity:1;"/>
<path class="atom-2" d="M 152.3 16.6 Q 152.3 15.6, 152.8 15.1 Q 153.3 14.5, 154.2 14.5 Q 155.2 14.5, 155.7 15.1 Q 156.2 15.6, 156.2 16.6 Q 156.2 17.7, 155.7 18.3 Q 155.2 18.8, 154.2 18.8 Q 153.3 18.8, 152.8 18.3 Q 152.3 17.7, 152.3 16.6 M 154.2 18.4 Q 154.9 18.4, 155.2 17.9 Q 155.6 17.5, 155.6 16.6 Q 155.6 15.8, 155.2 15.4 Q 154.9 15.0, 154.2 15.0 Q 153.6 15.0, 153.2 15.4 Q 152.9 15.8, 152.9 16.6 Q 152.9 17.5, 153.2 17.9 Q 153.6 18.4, 154.2 18.4 " fill="#FF0000"/>
<path class="atom-3" d="M 149.3 32.1 Q 149.4 32.1, 149.6 32.2 Q 149.8 32.2, 150.0 32.3 Q 150.2 32.4, 150.4 32.4 Q 150.8 32.4, 151.1 32.2 Q 151.3 32.0, 151.3 31.6 Q 151.3 31.4, 151.2 31.2 Q 151.1 31.1, 150.9 31.0 Q 150.7 30.9, 150.4 30.9 Q 150.0 30.7, 149.8 30.6 Q 149.6 30.5, 149.4 30.3 Q 149.3 30.1, 149.3 29.7 Q 149.3 29.1, 149.6 28.8 Q 150.0 28.5, 150.7 28.5 Q 151.2 28.5, 151.8 28.7 L 151.6 29.2 Q 151.1 29.0, 150.7 29.0 Q 150.3 29.0, 150.1 29.1 Q 149.8 29.3, 149.9 29.6 Q 149.9 29.8, 150.0 30.0 Q 150.1 30.1, 150.3 30.2 Q 150.4 30.3, 150.7 30.4 Q 151.1 30.5, 151.3 30.6 Q 151.6 30.7, 151.7 31.0 Q 151.9 31.2, 151.9 31.6 Q 151.9 32.2, 151.5 32.5 Q 151.1 32.8, 150.4 32.8 Q 150.1 32.8, 149.8 32.8 Q 149.5 32.7, 149.2 32.5 L 149.3 32.1 " fill="#CCCC00"/>
<path class="atom-6" d="M 149.1 44.6 L 149.7 44.6 L 149.7 46.4 L 151.9 46.4 L 151.9 44.6 L 152.4 44.6 L 152.4 48.8 L 151.9 48.8 L 151.9 46.9 L 149.7 46.9 L 149.7 48.8 L 149.1 48.8 L 149.1 44.6 " fill="#0000FF"/>
<path class="atom-6" d="M 154.0 44.6 L 155.4 46.8 Q 155.5 47.1, 155.7 47.5 Q 155.9 47.9, 155.9 47.9 L 155.9 44.6 L 156.5 44.6 L 156.5 48.8 L 155.9 48.8 L 154.4 46.4 Q 154.3 46.1, 154.1 45.8 Q 153.9 45.4, 153.8 45.3 L 153.8 48.8 L 153.3 48.8 L 153.3 44.6 L 154.0 44.6 " fill="#0000FF"/>
<path class="atom-8" d="M 163.2 56.9 Q 163.2 55.9, 163.7 55.3 Q 164.2 54.8, 165.2 54.8 Q 166.1 54.8, 166.6 55.3 Q 167.1 55.9, 167.1 56.9 Q 167.1 58.0, 166.6 58.5 Q 166.1 59.1, 165.2 59.1 Q 164.2 59.1, 163.7 58.5 Q 163.2 58.0, 163.2 56.9 M 165.2 58.6 Q 165.8 58.6, 166.1 58.2 Q 166.5 57.8, 166.5 56.9 Q 166.5 56.1, 166.1 55.7 Q 165.8 55.2, 165.2 55.2 Q 164.5 55.2, 164.2 55.7 Q 163.8 56.1, 163.8 56.9 Q 163.8 57.8, 164.2 58.2 Q 164.5 58.6, 165.2 58.6 " fill="#FF0000"/>
<path class="atom-11" d="M 141.7 72.5 L 142.3 72.5 L 142.3 74.3 L 144.5 74.3 L 144.5 72.5 L 145.1 72.5 L 145.1 76.8 L 144.5 76.8 L 144.5 74.8 L 142.3 74.8 L 142.3 76.8 L 141.7 76.8 L 141.7 72.5 " fill="#0000FF"/>
<path class="atom-11" d="M 146.6 72.5 L 148.0 74.8 Q 148.1 75.0, 148.3 75.4 Q 148.5 75.8, 148.5 75.8 L 148.5 72.5 L 149.1 72.5 L 149.1 76.8 L 148.5 76.8 L 147.0 74.3 Q 146.9 74.0, 146.7 73.7 Q 146.5 73.4, 146.4 73.3 L 146.4 76.8 L 145.9 76.8 L 145.9 72.5 L 146.6 72.5 " fill="#0000FF"/>
<path class="atom-13" d="M 155.8 84.9 Q 155.8 83.9, 156.3 83.3 Q 156.8 82.7, 157.8 82.7 Q 158.7 82.7, 159.2 83.3 Q 159.7 83.9, 159.7 84.9 Q 159.7 85.9, 159.2 86.5 Q 158.7 87.1, 157.8 87.1 Q 156.8 87.1, 156.3 86.5 Q 155.8 85.9, 155.8 84.9 M 157.8 86.6 Q 158.4 86.6, 158.8 86.2 Q 159.1 85.7, 159.1 84.9 Q 159.1 84.0, 158.8 83.6 Q 158.4 83.2, 157.8 83.2 Q 157.1 83.2, 156.8 83.6 Q 156.4 84.0, 156.4 84.9 Q 156.4 85.7, 156.8 86.2 Q 157.1 86.6, 157.8 86.6 " fill="#FF0000"/>
<path class="atom-15" d="M 129.6 84.4 L 130.2 84.4 L 130.2 86.2 L 132.3 86.2 L 132.3 84.4 L 132.9 84.4 L 132.9 88.7 L 132.3 88.7 L 132.3 86.7 L 130.2 86.7 L 130.2 88.7 L 129.6 88.7 L 129.6 84.4 " fill="#FF0000"/>
<path class="atom-15" d="M 133.8 86.5 Q 133.8 85.5, 134.3 84.9 Q 134.8 84.4, 135.7 84.4 Q 136.7 84.4, 137.2 84.9 Q 137.7 85.5, 137.7 86.5 Q 137.7 87.6, 137.2 88.1 Q 136.7 88.7, 135.7 88.7 Q 134.8 88.7, 134.3 88.1 Q 133.8 87.6, 133.8 86.5 M 135.7 88.2 Q 136.4 88.2, 136.7 87.8 Q 137.1 87.4, 137.1 86.5 Q 137.1 85.7, 136.7 85.3 Q 136.4 84.8, 135.7 84.8 Q 135.1 84.8, 134.7 85.3 Q 134.4 85.7, 134.4 86.5 Q 134.4 87.4, 134.7 87.8 Q 135.1 88.2, 135.7 88.2 " fill="#FF0000"/>
<path class="atom-20" d="M 154.3 106.9 Q 154.3 105.9, 154.8 105.3 Q 155.3 104.7, 156.2 104.7 Q 157.2 104.7, 157.7 105.3 Q 158.2 105.9, 158.2 106.9 Q 158.2 107.9, 157.7 108.5 Q 157.2 109.1, 156.2 109.1 Q 155.3 109.1, 154.8 108.5 Q 154.3 107.9, 154.3 106.9 M 156.2 108.6 Q 156.9 108.6, 157.2 108.2 Q 157.6 107.8, 157.6 106.9 Q 157.6 106.1, 157.2 105.6 Q 156.9 105.2, 156.2 105.2 Q 155.6 105.2, 155.2 105.6 Q 154.9 106.1, 154.9 106.9 Q 154.9 107.8, 155.2 108.2 Q 155.6 108.6, 156.2 108.6 " fill="#FF0000"/>
<path class="atom-21" d="M 158.3 112.8 Q 159.1 112.8, 159.4 113.2 Q 159.8 113.5, 159.8 114.1 Q 159.8 114.7, 159.4 115.0 Q 159.0 115.3, 158.3 115.3 L 157.6 115.3 L 157.6 117.1 L 157.1 117.1 L 157.1 112.8 L 158.3 112.8 M 158.3 114.8 Q 158.7 114.8, 159.0 114.6 Q 159.2 114.4, 159.2 114.1 Q 159.2 113.7, 159.0 113.5 Q 158.7 113.3, 158.3 113.3 L 157.6 113.3 L 157.6 114.8 L 158.3 114.8 " fill="#FF7F00"/>
<path class="atom-22" d="M 164.5 112.8 Q 164.5 111.8, 165.0 111.2 Q 165.5 110.6, 166.5 110.6 Q 167.4 110.6, 167.9 111.2 Q 168.4 111.8, 168.4 112.8 Q 168.4 113.8, 167.9 114.4 Q 167.4 115.0, 166.5 115.0 Q 165.5 115.0, 165.0 114.4 Q 164.5 113.8, 164.5 112.8 M 166.5 114.5 Q 167.1 114.5, 167.5 114.1 Q 167.8 113.6, 167.8 112.8 Q 167.8 111.9, 167.5 111.5 Q 167.1 111.1, 166.5 111.1 Q 165.8 111.1, 165.5 111.5 Q 165.1 111.9, 165.1 112.8 Q 165.1 113.6, 165.5 114.1 Q 165.8 114.5, 166.5 114.5 " fill="#FF0000"/>
<path class="atom-23" d="M 144.2 115.0 L 144.8 115.0 L 144.8 116.8 L 147.0 116.8 L 147.0 115.0 L 147.6 115.0 L 147.6 119.3 L 147.0 119.3 L 147.0 117.3 L 144.8 117.3 L 144.8 119.3 L 144.2 119.3 L 144.2 115.0 " fill="#FF0000"/>
<path class="atom-23" d="M 148.4 117.1 Q 148.4 116.1, 148.9 115.6 Q 149.4 115.0, 150.4 115.0 Q 151.3 115.0, 151.8 115.6 Q 152.3 116.1, 152.3 117.1 Q 152.3 118.2, 151.8 118.8 Q 151.3 119.3, 150.4 119.3 Q 149.4 119.3, 148.9 118.8 Q 148.4 118.2, 148.4 117.1 M 150.4 118.9 Q 151.0 118.9, 151.4 118.4 Q 151.7 118.0, 151.7 117.1 Q 151.7 116.3, 151.4 115.9 Q 151.0 115.5, 150.4 115.5 Q 149.7 115.5, 149.4 115.9 Q 149.0 116.3, 149.0 117.1 Q 149.0 118.0, 149.4 118.4 Q 149.7 118.9, 150.4 118.9 " fill="#FF0000"/>
<path class="atom-24" d="M 158.7 123.0 Q 158.7 122.0, 159.2 121.4 Q 159.7 120.9, 160.6 120.9 Q 161.6 120.9, 162.1 121.4 Q 162.6 122.0, 162.6 123.0 Q 162.6 124.0, 162.1 124.6 Q 161.5 125.2, 160.6 125.2 Q 159.7 125.2, 159.2 124.6 Q 158.7 124.1, 158.7 123.0 M 160.6 124.7 Q 161.3 124.7, 161.6 124.3 Q 162.0 123.9, 162.0 123.0 Q 162.0 122.2, 161.6 121.8 Q 161.3 121.3, 160.6 121.3 Q 160.0 121.3, 159.6 121.8 Q 159.3 122.2, 159.3 123.0 Q 159.3 123.9, 159.6 124.3 Q 160.0 124.7, 160.6 124.7 " fill="#FF0000"/>
<path class="atom-25" d="M 154.6 126.8 Q 155.4 126.8, 155.7 127.1 Q 156.1 127.5, 156.1 128.0 Q 156.1 128.6, 155.7 129.0 Q 155.3 129.3, 154.6 129.3 L 154.0 129.3 L 154.0 131.0 L 153.4 131.0 L 153.4 126.8 L 154.6 126.8 M 154.6 128.8 Q 155.0 128.8, 155.3 128.6 Q 155.5 128.4, 155.5 128.0 Q 155.5 127.7, 155.3 127.5 Q 155.0 127.3, 154.6 127.3 L 154.0 127.3 L 154.0 128.8 L 154.6 128.8 " fill="#FF7F00"/>
<path class="atom-26" d="M 146.9 123.0 Q 146.9 122.0, 147.4 121.5 Q 147.9 120.9, 148.8 120.9 Q 149.8 120.9, 150.3 121.5 Q 150.8 122.0, 150.8 123.0 Q 150.8 124.1, 150.2 124.7 Q 149.7 125.3, 148.8 125.3 Q 147.9 125.3, 147.4 124.7 Q 146.9 124.1, 146.9 123.0 M 148.8 124.8 Q 149.5 124.8, 149.8 124.3 Q 150.2 123.9, 150.2 123.0 Q 150.2 122.2, 149.8 121.8 Q 149.5 121.4, 148.8 121.4 Q 148.2 121.4, 147.8 121.8 Q 147.5 122.2, 147.5 123.0 Q 147.5 123.9, 147.8 124.3 Q 148.2 124.8, 148.8 124.8 " fill="#FF0000"/>
<path class="atom-27" d="M 158.7 134.8 Q 158.7 133.8, 159.2 133.2 Q 159.7 132.7, 160.7 132.7 Q 161.6 132.7, 162.1 133.2 Q 162.6 133.8, 162.6 134.8 Q 162.6 135.8, 162.1 136.4 Q 161.6 137.0, 160.7 137.0 Q 159.7 137.0, 159.2 136.4 Q 158.7 135.9, 158.7 134.8 M 160.7 136.5 Q 161.3 136.5, 161.6 136.1 Q 162.0 135.7, 162.0 134.8 Q 162.0 134.0, 161.6 133.6 Q 161.3 133.1, 160.7 133.1 Q 160.0 133.1, 159.6 133.6 Q 159.3 134.0, 159.3 134.8 Q 159.3 135.7, 159.6 136.1 Q 160.0 136.5, 160.7 136.5 " fill="#FF0000"/>
<path class="atom-27" d="M 163.3 132.7 L 163.8 132.7 L 163.8 134.5 L 166.0 134.5 L 166.0 132.7 L 166.6 132.7 L 166.6 137.0 L 166.0 137.0 L 166.0 135.0 L 163.8 135.0 L 163.8 137.0 L 163.3 137.0 L 163.3 132.7 " fill="#FF0000"/>
<path class="atom-28" d="M 146.9 134.9 Q 146.9 133.8, 147.4 133.3 Q 147.9 132.7, 148.8 132.7 Q 149.8 132.7, 150.3 133.3 Q 150.8 133.8, 150.8 134.9 Q 150.8 135.9, 150.3 136.5 Q 149.8 137.1, 148.8 137.1 Q 147.9 137.1, 147.4 136.5 Q 146.9 135.9, 146.9 134.9 M 148.8 136.6 Q 149.5 136.6, 149.8 136.1 Q 150.2 135.7, 150.2 134.9 Q 150.2 134.0, 149.8 133.6 Q 149.5 133.2, 148.8 133.2 Q 148.2 133.2, 147.8 133.6 Q 147.5 134.0, 147.5 134.9 Q 147.5 135.7, 147.8 136.1 Q 148.2 136.6, 148.8 136.6 " fill="#FF0000"/>
<path class="atom-31" d="M 134.3 146.9 Q 134.3 145.9, 134.8 145.3 Q 135.3 144.7, 136.2 144.7 Q 137.2 144.7, 137.7 145.3 Q 138.2 145.9, 138.2 146.9 Q 138.2 147.9, 137.7 148.5 Q 137.2 149.1, 136.2 149.1 Q 135.3 149.1, 134.8 148.5 Q 134.3 147.9, 134.3 146.9 M 136.2 148.6 Q 136.9 148.6, 137.2 148.2 Q 137.6 147.7, 137.6 146.9 Q 137.6 146.0, 137.2 145.6 Q 136.9 145.2, 136.2 145.2 Q 135.6 145.2, 135.2 145.6 Q 134.9 146.0, 134.9 146.9 Q 134.9 147.7, 135.2 148.2 Q 135.6 148.6, 136.2 148.6 " fill="#FF0000"/>
<path class="atom-33" d="M 126.6 156.8 L 128.0 159.1 Q 128.1 159.3, 128.3 159.7 Q 128.6 160.1, 128.6 160.1 L 128.6 156.8 L 129.1 156.8 L 129.1 161.1 L 128.5 161.1 L 127.1 158.6 Q 126.9 158.3, 126.7 158.0 Q 126.5 157.6, 126.5 157.5 L 126.5 161.1 L 125.9 161.1 L 125.9 156.8 L 126.6 156.8 " fill="#0000FF"/>
<path class="atom-35" d="M 120.5 168.9 L 121.9 171.1 Q 122.0 171.3, 122.2 171.7 Q 122.5 172.1, 122.5 172.2 L 122.5 168.9 L 123.0 168.9 L 123.0 173.1 L 122.5 173.1 L 121.0 170.6 Q 120.8 170.4, 120.6 170.0 Q 120.4 169.7, 120.4 169.6 L 120.4 173.1 L 119.8 173.1 L 119.8 168.9 L 120.5 168.9 " fill="#0000FF"/>
<path class="atom-38" d="M 122.3 184.6 L 122.9 184.6 L 122.9 186.4 L 125.0 186.4 L 125.0 184.6 L 125.6 184.6 L 125.6 188.8 L 125.0 188.8 L 125.0 186.9 L 122.9 186.9 L 122.9 188.8 L 122.3 188.8 L 122.3 184.6 " fill="#0000FF"/>
<path class="atom-38" d="M 126.4 188.7 Q 126.5 188.4, 126.8 188.3 Q 127.0 188.1, 127.4 188.1 Q 127.8 188.1, 128.0 188.3 Q 128.3 188.6, 128.3 189.0 Q 128.3 189.4, 128.0 189.8 Q 127.7 190.2, 127.0 190.6 L 128.3 190.6 L 128.3 190.9 L 126.4 190.9 L 126.4 190.7 Q 126.9 190.3, 127.3 190.0 Q 127.6 189.8, 127.7 189.5 Q 127.9 189.3, 127.9 189.0 Q 127.9 188.7, 127.7 188.6 Q 127.6 188.4, 127.4 188.4 Q 127.1 188.4, 127.0 188.5 Q 126.8 188.6, 126.7 188.8 L 126.4 188.7 " fill="#0000FF"/>
<path class="atom-38" d="M 129.5 184.6 L 130.9 186.8 Q 131.1 187.0, 131.3 187.4 Q 131.5 187.8, 131.5 187.9 L 131.5 184.6 L 132.1 184.6 L 132.1 188.8 L 131.5 188.8 L 130.0 186.4 Q 129.8 186.1, 129.7 185.7 Q 129.5 185.4, 129.4 185.3 L 129.4 188.8 L 128.9 188.8 L 128.9 184.6 L 129.5 184.6 " fill="#0000FF"/>
<path class="atom-39" d="M 141.6 176.7 L 143.0 178.9 Q 143.2 179.1, 143.4 179.5 Q 143.6 179.9, 143.6 180.0 L 143.6 176.7 L 144.2 176.7 L 144.2 180.9 L 143.6 180.9 L 142.1 178.4 Q 141.9 178.2, 141.8 177.8 Q 141.6 177.5, 141.5 177.4 L 141.5 180.9 L 141.0 180.9 L 141.0 176.7 L 141.6 176.7 " fill="#0000FF"/>
<path class="atom-41" d="M 140.8 162.2 L 142.2 164.5 Q 142.4 164.7, 142.6 165.1 Q 142.8 165.5, 142.8 165.5 L 142.8 162.2 L 143.4 162.2 L 143.4 166.5 L 142.8 166.5 L 141.3 164.0 Q 141.1 163.7, 140.9 163.4 Q 140.8 163.1, 140.7 163.0 L 140.7 166.5 L 140.2 166.5 L 140.2 162.2 L 140.8 162.2 " fill="#0000FF"/>
<path class="atom-44" d="M 108.5 144.0 L 109.1 144.0 L 109.1 145.8 L 111.2 145.8 L 111.2 144.0 L 111.8 144.0 L 111.8 148.3 L 111.2 148.3 L 111.2 146.3 L 109.1 146.3 L 109.1 148.3 L 108.5 148.3 L 108.5 144.0 " fill="#FF0000"/>
<path class="atom-44" d="M 112.7 146.1 Q 112.7 145.1, 113.2 144.5 Q 113.7 144.0, 114.6 144.0 Q 115.6 144.0, 116.1 144.5 Q 116.6 145.1, 116.6 146.1 Q 116.6 147.2, 116.1 147.8 Q 115.6 148.3, 114.6 148.3 Q 113.7 148.3, 113.2 147.8 Q 112.7 147.2, 112.7 146.1 M 114.6 147.9 Q 115.3 147.9, 115.6 147.4 Q 116.0 147.0, 116.0 146.1 Q 116.0 145.3, 115.6 144.9 Q 115.3 144.5, 114.6 144.5 Q 114.0 144.5, 113.6 144.9 Q 113.3 145.3, 113.3 146.1 Q 113.3 147.0, 113.6 147.4 Q 114.0 147.9, 114.6 147.9 " fill="#FF0000"/>
<path class="atom-46" d="M 120.9 129.9 Q 120.9 128.9, 121.4 128.3 Q 121.9 127.8, 122.8 127.8 Q 123.8 127.8, 124.3 128.3 Q 124.8 128.9, 124.8 129.9 Q 124.8 131.0, 124.3 131.6 Q 123.8 132.1, 122.8 132.1 Q 121.9 132.1, 121.4 131.6 Q 120.9 131.0, 120.9 129.9 M 122.8 131.7 Q 123.5 131.7, 123.8 131.2 Q 124.2 130.8, 124.2 129.9 Q 124.2 129.1, 123.8 128.7 Q 123.5 128.3, 122.8 128.3 Q 122.2 128.3, 121.8 128.7 Q 121.5 129.1, 121.5 129.9 Q 121.5 130.8, 121.8 131.2 Q 122.2 131.7, 122.8 131.7 " fill="#FF0000"/>
<path class="atom-47" d="M 127.3 120.8 Q 128.0 120.8, 128.3 121.1 Q 128.7 121.4, 128.7 122.0 Q 128.7 122.6, 128.3 123.0 Q 128.0 123.3, 127.3 123.3 L 126.6 123.3 L 126.6 125.0 L 126.0 125.0 L 126.0 120.8 L 127.3 120.8 M 127.3 122.8 Q 127.7 122.8, 127.9 122.6 Q 128.1 122.4, 128.1 122.0 Q 128.1 121.7, 127.9 121.5 Q 127.7 121.3, 127.3 121.3 L 126.6 121.3 L 126.6 122.8 L 127.3 122.8 " fill="#FF7F00"/>
<path class="atom-48" d="M 118.4 118.4 Q 118.4 117.4, 118.9 116.8 Q 119.4 116.2, 120.3 116.2 Q 121.3 116.2, 121.8 116.8 Q 122.3 117.4, 122.3 118.4 Q 122.3 119.4, 121.8 120.0 Q 121.3 120.6, 120.3 120.6 Q 119.4 120.6, 118.9 120.0 Q 118.4 119.4, 118.4 118.4 M 120.3 120.1 Q 121.0 120.1, 121.3 119.7 Q 121.7 119.2, 121.7 118.4 Q 121.7 117.6, 121.3 117.1 Q 121.0 116.7, 120.3 116.7 Q 119.7 116.7, 119.3 117.1 Q 119.0 117.6, 119.0 118.4 Q 119.0 119.3, 119.3 119.7 Q 119.7 120.1, 120.3 120.1 " fill="#FF0000"/>
<path class="atom-49" d="M 132.4 127.4 Q 132.4 126.4, 132.9 125.9 Q 133.4 125.3, 134.4 125.3 Q 135.3 125.3, 135.8 125.9 Q 136.3 126.4, 136.3 127.4 Q 136.3 128.5, 135.8 129.1 Q 135.3 129.6, 134.4 129.6 Q 133.4 129.6, 132.9 129.1 Q 132.4 128.5, 132.4 127.4 M 134.4 129.2 Q 135.0 129.2, 135.4 128.7 Q 135.7 128.3, 135.7 127.4 Q 135.7 126.6, 135.4 126.2 Q 135.0 125.8, 134.4 125.8 Q 133.7 125.8, 133.4 126.2 Q 133.0 126.6, 133.0 127.4 Q 133.0 128.3, 133.4 128.7 Q 133.7 129.2, 134.4 129.2 " fill="#FF0000"/>
<path class="atom-49" d="M 137.0 125.3 L 137.6 125.3 L 137.6 127.1 L 139.7 127.1 L 139.7 125.3 L 140.3 125.3 L 140.3 129.6 L 139.7 129.6 L 139.7 127.6 L 137.6 127.6 L 137.6 129.6 L 137.0 129.6 L 137.0 125.3 " fill="#FF0000"/>
<path class="atom-50" d="M 129.9 115.9 Q 129.9 114.9, 130.4 114.3 Q 130.9 113.7, 131.9 113.7 Q 132.8 113.7, 133.3 114.3 Q 133.8 114.9, 133.8 115.9 Q 133.8 116.9, 133.3 117.5 Q 132.8 118.1, 131.9 118.1 Q 130.9 118.1, 130.4 117.5 Q 129.9 116.9, 129.9 115.9 M 131.9 117.6 Q 132.5 117.6, 132.9 117.2 Q 133.2 116.8, 133.2 115.9 Q 133.2 115.1, 132.9 114.7 Q 132.5 114.2, 131.9 114.2 Q 131.2 114.2, 130.9 114.6 Q 130.5 115.1, 130.5 115.9 Q 130.5 116.8, 130.9 117.2 Q 131.2 117.6, 131.9 117.6 " fill="#FF0000"/>
<path class="atom-50" d="M 134.5 113.8 L 135.1 113.8 L 135.1 115.6 L 137.2 115.6 L 137.2 113.8 L 137.8 113.8 L 137.8 118.0 L 137.2 118.0 L 137.2 116.1 L 135.1 116.1 L 135.1 118.0 L 134.5 118.0 L 134.5 113.8 " fill="#FF0000"/>
<path class="atom-52" d="M 168.5 32.7 Q 168.5 31.7, 169.0 31.1 Q 169.5 30.6, 170.4 30.6 Q 171.3 30.6, 171.8 31.1 Q 172.4 31.7, 172.4 32.7 Q 172.4 33.7, 171.8 34.3 Q 171.3 34.9, 170.4 34.9 Q 169.5 34.9, 169.0 34.3 Q 168.5 33.8, 168.5 32.7 M 170.4 34.4 Q 171.0 34.4, 171.4 34.0 Q 171.8 33.6, 171.8 32.7 Q 171.8 31.9, 171.4 31.5 Q 171.0 31.0, 170.4 31.0 Q 169.8 31.0, 169.4 31.5 Q 169.1 31.9, 169.1 32.7 Q 169.1 33.6, 169.4 34.0 Q 169.8 34.4, 170.4 34.4 " fill="#FF0000"/>
<path class="atom-52" d="M 173.0 30.6 L 173.6 30.6 L 173.6 32.4 L 175.8 32.4 L 175.8 30.6 L 176.3 30.6 L 176.3 34.9 L 175.8 34.9 L 175.8 32.9 L 173.6 32.9 L 173.6 34.9 L 173.0 34.9 L 173.0 30.6 " fill="#FF0000"/>
<path class="atom-53" d="M 152.4 18.8 L 153.0 18.8 L 153.0 20.6 L 155.2 20.6 L 155.2 18.8 L 155.7 18.8 L 155.7 23.1 L 155.2 23.1 L 155.2 21.1 L 153.0 21.1 L 153.0 23.1 L 152.4 23.1 L 152.4 18.8 " fill="#FF0000"/>
<path class="atom-53" d="M 156.6 20.9 Q 156.6 19.9, 157.1 19.4 Q 157.6 18.8, 158.6 18.8 Q 159.5 18.8, 160.0 19.4 Q 160.5 19.9, 160.5 20.9 Q 160.5 22.0, 160.0 22.6 Q 159.5 23.1, 158.6 23.1 Q 157.6 23.1, 157.1 22.6 Q 156.6 22.0, 156.6 20.9 M 158.6 22.7 Q 159.2 22.7, 159.6 22.2 Q 159.9 21.8, 159.9 20.9 Q 159.9 20.1, 159.6 19.7 Q 159.2 19.3, 158.6 19.3 Q 157.9 19.3, 157.6 19.7 Q 157.2 20.1, 157.2 20.9 Q 157.2 21.8, 157.6 22.2 Q 157.9 22.7, 158.6 22.7 " fill="#FF0000"/>
<path class="atom-55" d="M 167.2 10.7 L 168.6 13.0 Q 168.8 13.2, 169.0 13.6 Q 169.2 14.0, 169.2 14.0 L 169.2 10.7 L 169.8 10.7 L 169.8 15.0 L 169.2 15.0 L 167.7 12.5 Q 167.5 12.2, 167.4 11.9 Q 167.2 11.6, 167.1 11.5 L 167.1 15.0 L 166.6 15.0 L 166.6 10.7 L 167.2 10.7 " fill="#0000FF"/>
<path class="atom-55" d="M 170.6 10.7 L 171.2 10.7 L 171.2 12.5 L 173.3 12.5 L 173.3 10.7 L 173.9 10.7 L 173.9 15.0 L 173.3 15.0 L 173.3 13.0 L 171.2 13.0 L 171.2 15.0 L 170.6 15.0 L 170.6 10.7 " fill="#0000FF"/>
<path class="atom-55" d="M 174.8 14.8 Q 174.9 14.6, 175.1 14.4 Q 175.4 14.3, 175.7 14.3 Q 176.1 14.3, 176.4 14.5 Q 176.6 14.7, 176.6 15.1 Q 176.6 15.5, 176.3 15.9 Q 176.0 16.3, 175.3 16.8 L 176.6 16.8 L 176.6 17.1 L 174.7 17.1 L 174.7 16.8 Q 175.3 16.5, 175.6 16.2 Q 175.9 15.9, 176.0 15.6 Q 176.2 15.4, 176.2 15.1 Q 176.2 14.9, 176.1 14.7 Q 175.9 14.6, 175.7 14.6 Q 175.5 14.6, 175.3 14.7 Q 175.2 14.8, 175.1 15.0 L 174.8 14.8 " fill="#0000FF"/>
<path class="atom-61" d="M 166.5 34.9 L 167.1 34.9 L 167.1 36.7 L 169.3 36.7 L 169.3 34.9 L 169.9 34.9 L 169.9 39.1 L 169.3 39.1 L 169.3 37.2 L 167.1 37.2 L 167.1 39.1 L 166.5 39.1 L 166.5 34.9 " fill="#0000FF"/>
<path class="atom-61" d="M 170.7 39.0 Q 170.8 38.7, 171.0 38.6 Q 171.3 38.4, 171.6 38.4 Q 172.0 38.4, 172.3 38.7 Q 172.5 38.9, 172.5 39.3 Q 172.5 39.7, 172.2 40.1 Q 171.9 40.5, 171.3 40.9 L 172.6 40.9 L 172.6 41.3 L 170.7 41.3 L 170.7 41.0 Q 171.2 40.6, 171.5 40.3 Q 171.8 40.1, 172.0 39.8 Q 172.1 39.6, 172.1 39.3 Q 172.1 39.0, 172.0 38.9 Q 171.9 38.7, 171.6 38.7 Q 171.4 38.7, 171.2 38.8 Q 171.1 38.9, 171.0 39.1 L 170.7 39.0 " fill="#0000FF"/>
<path class="atom-61" d="M 173.8 34.9 L 175.2 37.1 Q 175.3 37.4, 175.5 37.8 Q 175.8 38.2, 175.8 38.2 L 175.8 34.9 L 176.3 34.9 L 176.3 39.1 L 175.8 39.1 L 174.3 36.7 Q 174.1 36.4, 173.9 36.1 Q 173.7 35.7, 173.7 35.6 L 173.7 39.1 L 173.1 39.1 L 173.1 34.9 L 173.8 34.9 " fill="#0000FF"/>
<path class="atom-63" d="M 184.6 41.3 Q 184.6 40.3, 185.1 39.7 Q 185.6 39.1, 186.6 39.1 Q 187.5 39.1, 188.0 39.7 Q 188.5 40.3, 188.5 41.3 Q 188.5 42.3, 188.0 42.9 Q 187.5 43.5, 186.6 43.5 Q 185.6 43.5, 185.1 42.9 Q 184.6 42.3, 184.6 41.3 M 186.6 43.0 Q 187.2 43.0, 187.5 42.6 Q 187.9 42.2, 187.9 41.3 Q 187.9 40.5, 187.5 40.1 Q 187.2 39.6, 186.6 39.6 Q 185.9 39.6, 185.5 40.0 Q 185.2 40.5, 185.2 41.3 Q 185.2 42.2, 185.5 42.6 Q 185.9 43.0, 186.6 43.0 " fill="#FF0000"/>
<path class="atom-63" d="M 189.2 39.2 L 189.7 39.2 L 189.7 41.0 L 191.9 41.0 L 191.9 39.2 L 192.5 39.2 L 192.5 43.4 L 191.9 43.4 L 191.9 41.5 L 189.7 41.5 L 189.7 43.4 L 189.2 43.4 L 189.2 39.2 " fill="#FF0000"/>
<path class="atom-64" d="M 188.9 25.2 Q 188.9 24.1, 189.4 23.6 Q 189.9 23.0, 190.8 23.0 Q 191.8 23.0, 192.3 23.6 Q 192.8 24.1, 192.8 25.2 Q 192.8 26.2, 192.3 26.8 Q 191.8 27.4, 190.8 27.4 Q 189.9 27.4, 189.4 26.8 Q 188.9 26.2, 188.9 25.2 M 190.8 26.9 Q 191.5 26.9, 191.8 26.5 Q 192.2 26.0, 192.2 25.2 Q 192.2 24.3, 191.8 23.9 Q 191.5 23.5, 190.8 23.5 Q 190.2 23.5, 189.8 23.9 Q 189.5 24.3, 189.5 25.2 Q 189.5 26.0, 189.8 26.5 Q 190.2 26.9, 190.8 26.9 " fill="#FF0000"/>
<path class="atom-64" d="M 193.4 23.1 L 194.0 23.1 L 194.0 24.9 L 196.2 24.9 L 196.2 23.1 L 196.8 23.1 L 196.8 27.3 L 196.2 27.3 L 196.2 25.3 L 194.0 25.3 L 194.0 27.3 L 193.4 27.3 L 193.4 23.1 " fill="#FF0000"/>
<path class="atom-67" d="M 206.1 43.4 L 207.5 45.7 Q 207.6 45.9, 207.8 46.3 Q 208.0 46.7, 208.1 46.7 L 208.1 43.4 L 208.6 43.4 L 208.6 47.7 L 208.0 47.7 L 206.5 45.2 Q 206.4 44.9, 206.2 44.6 Q 206.0 44.3, 206.0 44.2 L 206.0 47.7 L 205.4 47.7 L 205.4 43.4 L 206.1 43.4 " fill="#0000FF"/>
<path class="atom-67" d="M 209.4 43.4 L 210.0 43.4 L 210.0 45.2 L 212.2 45.2 L 212.2 43.4 L 212.8 43.4 L 212.8 47.7 L 212.2 47.7 L 212.2 45.7 L 210.0 45.7 L 210.0 47.7 L 209.4 47.7 L 209.4 43.4 " fill="#0000FF"/>
<path class="atom-69" d="M 201.4 59.5 Q 201.4 58.5, 201.9 57.9 Q 202.4 57.4, 203.3 57.4 Q 204.3 57.4, 204.8 57.9 Q 205.3 58.5, 205.3 59.5 Q 205.3 60.6, 204.8 61.2 Q 204.2 61.7, 203.3 61.7 Q 202.4 61.7, 201.9 61.2 Q 201.4 60.6, 201.4 59.5 M 203.3 61.3 Q 204.0 61.3, 204.3 60.8 Q 204.7 60.4, 204.7 59.5 Q 204.7 58.7, 204.3 58.3 Q 204.0 57.9, 203.3 57.9 Q 202.7 57.9, 202.3 58.3 Q 202.0 58.7, 202.0 59.5 Q 202.0 60.4, 202.3 60.8 Q 202.7 61.3, 203.3 61.3 " fill="#FF0000"/>
<path class="atom-72" d="M 226.6 63.8 L 228.0 66.1 Q 228.1 66.3, 228.3 66.7 Q 228.6 67.1, 228.6 67.1 L 228.6 63.8 L 229.1 63.8 L 229.1 68.1 L 228.5 68.1 L 227.1 65.6 Q 226.9 65.3, 226.7 65.0 Q 226.5 64.6, 226.5 64.5 L 226.5 68.1 L 225.9 68.1 L 225.9 63.8 L 226.6 63.8 " fill="#0000FF"/>
<path class="atom-72" d="M 230.0 63.8 L 230.5 63.8 L 230.5 65.6 L 232.7 65.6 L 232.7 63.8 L 233.3 63.8 L 233.3 68.1 L 232.7 68.1 L 232.7 66.1 L 230.5 66.1 L 230.5 68.1 L 230.0 68.1 L 230.0 63.8 " fill="#0000FF"/>
<path class="atom-74" d="M 221.9 79.9 Q 221.9 78.9, 222.4 78.3 Q 222.9 77.8, 223.8 77.8 Q 224.8 77.8, 225.3 78.3 Q 225.8 78.9, 225.8 79.9 Q 225.8 81.0, 225.3 81.5 Q 224.8 82.1, 223.8 82.1 Q 222.9 82.1, 222.4 81.5 Q 221.9 81.0, 221.9 79.9 M 223.8 81.6 Q 224.5 81.6, 224.8 81.2 Q 225.2 80.8, 225.2 79.9 Q 225.2 79.1, 224.8 78.7 Q 224.5 78.2, 223.8 78.2 Q 223.2 78.2, 222.8 78.7 Q 222.5 79.1, 222.5 79.9 Q 222.5 80.8, 222.8 81.2 Q 223.2 81.6, 223.8 81.6 " fill="#FF0000"/>
<path class="atom-76" d="M 241.7 70.2 Q 241.7 69.2, 242.2 68.6 Q 242.7 68.1, 243.7 68.1 Q 244.6 68.1, 245.1 68.6 Q 245.6 69.2, 245.6 70.2 Q 245.6 71.2, 245.1 71.8 Q 244.6 72.4, 243.7 72.4 Q 242.7 72.4, 242.2 71.8 Q 241.7 71.3, 241.7 70.2 M 243.7 71.9 Q 244.3 71.9, 244.7 71.5 Q 245.0 71.1, 245.0 70.2 Q 245.0 69.4, 244.7 69.0 Q 244.3 68.5, 243.7 68.5 Q 243.0 68.5, 242.7 69.0 Q 242.3 69.4, 242.3 70.2 Q 242.3 71.1, 242.7 71.5 Q 243.0 71.9, 243.7 71.9 " fill="#FF0000"/>
<path class="atom-76" d="M 246.3 68.1 L 246.8 68.1 L 246.8 69.9 L 249.0 69.9 L 249.0 68.1 L 249.6 68.1 L 249.6 72.4 L 249.0 72.4 L 249.0 70.4 L 246.8 70.4 L 246.8 72.4 L 246.3 72.4 L 246.3 68.1 " fill="#FF0000"/>
<path class="atom-81" d="M 234.3 98.2 Q 234.3 97.1, 234.8 96.6 Q 235.3 96.0, 236.3 96.0 Q 237.2 96.0, 237.7 96.6 Q 238.2 97.1, 238.2 98.2 Q 238.2 99.2, 237.7 99.8 Q 237.2 100.4, 236.3 100.4 Q 235.3 100.4, 234.8 99.8 Q 234.3 99.2, 234.3 98.2 M 236.3 99.9 Q 236.9 99.9, 237.3 99.5 Q 237.6 99.0, 237.6 98.2 Q 237.6 97.3, 237.3 96.9 Q 236.9 96.5, 236.3 96.5 Q 235.6 96.5, 235.3 96.9 Q 234.9 97.3, 234.9 98.2 Q 234.9 99.0, 235.3 99.5 Q 235.6 99.9, 236.3 99.9 " fill="#FF0000"/>
<path class="atom-82" d="M 238.3 104.1 Q 239.1 104.1, 239.4 104.4 Q 239.8 104.7, 239.8 105.3 Q 239.8 105.9, 239.4 106.3 Q 239.1 106.6, 238.3 106.6 L 237.7 106.6 L 237.7 108.3 L 237.1 108.3 L 237.1 104.1 L 238.3 104.1 M 238.3 106.1 Q 238.8 106.1, 239.0 105.9 Q 239.2 105.7, 239.2 105.3 Q 239.2 105.0, 239.0 104.8 Q 238.8 104.6, 238.3 104.6 L 237.7 104.6 L 237.7 106.1 L 238.3 106.1 " fill="#FF7F00"/>
<path class="atom-83" d="M 244.6 104.0 Q 244.6 103.0, 245.1 102.4 Q 245.6 101.9, 246.5 101.9 Q 247.4 101.9, 247.9 102.4 Q 248.5 103.0, 248.5 104.0 Q 248.5 105.1, 247.9 105.7 Q 247.4 106.2, 246.5 106.2 Q 245.6 106.2, 245.1 105.7 Q 244.6 105.1, 244.6 104.0 M 246.5 105.8 Q 247.1 105.8, 247.5 105.3 Q 247.9 104.9, 247.9 104.0 Q 247.9 103.2, 247.5 102.8 Q 247.1 102.4, 246.5 102.4 Q 245.9 102.4, 245.5 102.8 Q 245.2 103.2, 245.2 104.0 Q 245.2 104.9, 245.5 105.3 Q 245.9 105.8, 246.5 105.8 " fill="#FF0000"/>
<path class="atom-84" d="M 224.2 106.3 L 224.8 106.3 L 224.8 108.1 L 227.0 108.1 L 227.0 106.3 L 227.6 106.3 L 227.6 110.5 L 227.0 110.5 L 227.0 108.6 L 224.8 108.6 L 224.8 110.5 L 224.2 110.5 L 224.2 106.3 " fill="#FF0000"/>
<path class="atom-84" d="M 228.4 108.4 Q 228.4 107.4, 228.9 106.8 Q 229.4 106.2, 230.4 106.2 Q 231.3 106.2, 231.8 106.8 Q 232.3 107.4, 232.3 108.4 Q 232.3 109.4, 231.8 110.0 Q 231.3 110.6, 230.4 110.6 Q 229.5 110.6, 228.9 110.0 Q 228.4 109.4, 228.4 108.4 M 230.4 110.1 Q 231.0 110.1, 231.4 109.7 Q 231.7 109.3, 231.7 108.4 Q 231.7 107.6, 231.4 107.2 Q 231.0 106.7, 230.4 106.7 Q 229.7 106.7, 229.4 107.1 Q 229.0 107.6, 229.0 108.4 Q 229.0 109.3, 229.4 109.7 Q 229.7 110.1, 230.4 110.1 " fill="#FF0000"/>
<path class="atom-85" d="M 238.7 114.3 Q 238.7 113.3, 239.2 112.7 Q 239.7 112.1, 240.6 112.1 Q 241.6 112.1, 242.1 112.7 Q 242.6 113.3, 242.6 114.3 Q 242.6 115.3, 242.1 115.9 Q 241.6 116.5, 240.6 116.5 Q 239.7 116.5, 239.2 115.9 Q 238.7 115.3, 238.7 114.3 M 240.6 116.0 Q 241.3 116.0, 241.6 115.6 Q 242.0 115.1, 242.0 114.3 Q 242.0 113.4, 241.6 113.0 Q 241.3 112.6, 240.6 112.6 Q 240.0 112.6, 239.6 113.0 Q 239.3 113.4, 239.3 114.3 Q 239.3 115.1, 239.6 115.6 Q 240.0 116.0, 240.6 116.0 " fill="#FF0000"/>
<path class="atom-86" d="M 248.6 114.3 Q 249.3 114.3, 249.7 114.6 Q 250.1 114.9, 250.1 115.5 Q 250.1 116.1, 249.7 116.4 Q 249.3 116.8, 248.6 116.8 L 247.9 116.8 L 247.9 118.5 L 247.3 118.5 L 247.3 114.3 L 248.6 114.3 M 248.6 116.3 Q 249.0 116.3, 249.2 116.1 Q 249.5 115.9, 249.5 115.5 Q 249.5 115.1, 249.2 115.0 Q 249.0 114.8, 248.6 114.8 L 247.9 114.8 L 247.9 116.3 L 248.6 116.3 " fill="#FF7F00"/>
<path class="atom-87" d="M 244.6 124.5 Q 244.6 123.5, 245.1 122.9 Q 245.6 122.3, 246.6 122.3 Q 247.5 122.3, 248.0 122.9 Q 248.5 123.5, 248.5 124.5 Q 248.5 125.5, 248.0 126.1 Q 247.5 126.7, 246.6 126.7 Q 245.6 126.7, 245.1 126.1 Q 244.6 125.5, 244.6 124.5 M 246.6 126.2 Q 247.2 126.2, 247.6 125.8 Q 247.9 125.3, 247.9 124.5 Q 247.9 123.6, 247.6 123.2 Q 247.2 122.8, 246.6 122.8 Q 245.9 122.8, 245.6 123.2 Q 245.2 123.6, 245.2 124.5 Q 245.2 125.3, 245.6 125.8 Q 245.9 126.2, 246.6 126.2 " fill="#FF0000"/>
<path class="atom-88" d="M 248.9 108.3 Q 248.9 107.3, 249.4 106.8 Q 249.9 106.2, 250.8 106.2 Q 251.8 106.2, 252.3 106.8 Q 252.8 107.3, 252.8 108.3 Q 252.8 109.4, 252.3 110.0 Q 251.8 110.5, 250.8 110.5 Q 249.9 110.5, 249.4 110.0 Q 248.9 109.4, 248.9 108.3 M 250.8 110.1 Q 251.5 110.1, 251.8 109.6 Q 252.2 109.2, 252.2 108.3 Q 252.2 107.5, 251.8 107.1 Q 251.5 106.7, 250.8 106.7 Q 250.2 106.7, 249.8 107.1 Q 249.5 107.5, 249.5 108.3 Q 249.5 109.2, 249.8 109.6 Q 250.2 110.1, 250.8 110.1 " fill="#FF0000"/>
<path class="atom-88" d="M 253.4 106.2 L 254.0 106.2 L 254.0 108.0 L 256.2 108.0 L 256.2 106.2 L 256.8 106.2 L 256.8 110.5 L 256.2 110.5 L 256.2 108.5 L 254.0 108.5 L 254.0 110.5 L 253.4 110.5 L 253.4 106.2 " fill="#FF0000"/>
<path class="atom-89" d="M 254.8 118.5 Q 254.8 117.5, 255.3 117.0 Q 255.8 116.4, 256.8 116.4 Q 257.7 116.4, 258.2 117.0 Q 258.7 117.5, 258.7 118.5 Q 258.7 119.6, 258.2 120.2 Q 257.7 120.7, 256.8 120.7 Q 255.8 120.7, 255.3 120.2 Q 254.8 119.6, 254.8 118.5 M 256.8 120.3 Q 257.4 120.3, 257.8 119.8 Q 258.1 119.4, 258.1 118.5 Q 258.1 117.7, 257.8 117.3 Q 257.4 116.9, 256.8 116.9 Q 256.1 116.9, 255.8 117.3 Q 255.4 117.7, 255.4 118.5 Q 255.4 119.4, 255.8 119.8 Q 256.1 120.3, 256.8 120.3 " fill="#FF0000"/>
<path class="atom-92" d="M 275.2 109.5 Q 275.2 108.5, 275.7 107.9 Q 276.3 107.3, 277.2 107.3 Q 278.1 107.3, 278.6 107.9 Q 279.1 108.5, 279.1 109.5 Q 279.1 110.5, 278.6 111.1 Q 278.1 111.7, 277.2 111.7 Q 276.3 111.7, 275.7 111.1 Q 275.2 110.5, 275.2 109.5 M 277.2 111.2 Q 277.8 111.2, 278.2 110.8 Q 278.5 110.3, 278.5 109.5 Q 278.5 108.7, 278.2 108.2 Q 277.8 107.8, 277.2 107.8 Q 276.5 107.8, 276.2 108.2 Q 275.8 108.6, 275.8 109.5 Q 275.8 110.3, 276.2 110.8 Q 276.5 111.2, 277.2 111.2 " fill="#FF0000"/>
<path class="atom-94" d="M 291.1 108.9 L 292.4 111.1 Q 292.6 111.3, 292.8 111.7 Q 293.0 112.1, 293.0 112.2 L 293.0 108.9 L 293.6 108.9 L 293.6 113.1 L 293.0 113.1 L 291.5 110.7 Q 291.4 110.4, 291.2 110.0 Q 291.0 109.7, 290.9 109.6 L 290.9 113.1 L 290.4 113.1 L 290.4 108.9 L 291.1 108.9 " fill="#0000FF"/>
<path class="atom-96" d="M 301.5 100.3 L 302.9 102.6 Q 303.0 102.8, 303.3 103.2 Q 303.5 103.6, 303.5 103.6 L 303.5 100.3 L 304.1 100.3 L 304.1 104.6 L 303.5 104.6 L 302.0 102.1 Q 301.8 101.8, 301.6 101.5 Q 301.5 101.2, 301.4 101.1 L 301.4 104.6 L 300.8 104.6 L 300.8 100.3 L 301.5 100.3 " fill="#0000FF"/>
<path class="atom-99" d="M 318.8 105.8 L 320.2 108.1 Q 320.3 108.3, 320.6 108.7 Q 320.8 109.1, 320.8 109.1 L 320.8 105.8 L 321.4 105.8 L 321.4 110.1 L 320.8 110.1 L 319.3 107.6 Q 319.1 107.3, 318.9 107.0 Q 318.7 106.6, 318.7 106.5 L 318.7 110.1 L 318.1 110.1 L 318.1 105.8 L 318.8 105.8 " fill="#0000FF"/>
<path class="atom-99" d="M 322.2 105.8 L 322.7 105.8 L 322.7 107.6 L 324.9 107.6 L 324.9 105.8 L 325.5 105.8 L 325.5 110.1 L 324.9 110.1 L 324.9 108.1 L 322.7 108.1 L 322.7 110.1 L 322.2 110.1 L 322.2 105.8 " fill="#0000FF"/>
<path class="atom-99" d="M 326.3 109.9 Q 326.4 109.6, 326.7 109.5 Q 326.9 109.3, 327.3 109.3 Q 327.7 109.3, 327.9 109.6 Q 328.2 109.8, 328.2 110.2 Q 328.2 110.6, 327.8 111.0 Q 327.5 111.4, 326.9 111.9 L 328.2 111.9 L 328.2 112.2 L 326.3 112.2 L 326.3 111.9 Q 326.8 111.5, 327.1 111.3 Q 327.5 111.0, 327.6 110.7 Q 327.8 110.5, 327.8 110.2 Q 327.8 110.0, 327.6 109.8 Q 327.5 109.7, 327.3 109.7 Q 327.0 109.7, 326.9 109.8 Q 326.7 109.8, 326.6 110.0 L 326.3 109.9 " fill="#0000FF"/>
<path class="atom-100" d="M 313.7 119.3 L 315.1 121.6 Q 315.2 121.8, 315.4 122.2 Q 315.6 122.6, 315.7 122.6 L 315.7 119.3 L 316.2 119.3 L 316.2 123.6 L 315.6 123.6 L 314.1 121.1 Q 314.0 120.8, 313.8 120.5 Q 313.6 120.2, 313.5 120.1 L 313.5 123.6 L 313.0 123.6 L 313.0 119.3 L 313.7 119.3 " fill="#0000FF"/>
<path class="atom-102" d="M 299.4 121.6 L 300.8 123.9 Q 300.9 124.1, 301.1 124.5 Q 301.4 124.9, 301.4 124.9 L 301.4 121.6 L 301.9 121.6 L 301.9 125.9 L 301.4 125.9 L 299.9 123.4 Q 299.7 123.1, 299.5 122.8 Q 299.3 122.5, 299.3 122.4 L 299.3 125.9 L 298.7 125.9 L 298.7 121.6 L 299.4 121.6 " fill="#0000FF"/>
<path class="atom-105" d="M 285.4 128.6 Q 285.4 127.5, 285.9 127.0 Q 286.4 126.4, 287.3 126.4 Q 288.3 126.4, 288.8 127.0 Q 289.3 127.5, 289.3 128.6 Q 289.3 129.6, 288.8 130.2 Q 288.3 130.8, 287.3 130.8 Q 286.4 130.8, 285.9 130.2 Q 285.4 129.6, 285.4 128.6 M 287.3 130.3 Q 288.0 130.3, 288.3 129.8 Q 288.7 129.4, 288.7 128.6 Q 288.7 127.7, 288.3 127.3 Q 288.0 126.9, 287.3 126.9 Q 286.7 126.9, 286.3 127.3 Q 286.0 127.7, 286.0 128.6 Q 286.0 129.4, 286.3 129.8 Q 286.7 130.3, 287.3 130.3 " fill="#FF0000"/>
<path class="atom-105" d="M 290.0 126.4 L 290.5 126.4 L 290.5 128.2 L 292.7 128.2 L 292.7 126.4 L 293.3 126.4 L 293.3 130.7 L 292.7 130.7 L 292.7 128.7 L 290.5 128.7 L 290.5 130.7 L 290.0 130.7 L 290.0 126.4 " fill="#FF0000"/>
<path class="atom-107" d="M 267.3 129.6 Q 267.3 128.5, 267.8 128.0 Q 268.3 127.4, 269.2 127.4 Q 270.2 127.4, 270.7 128.0 Q 271.2 128.5, 271.2 129.6 Q 271.2 130.6, 270.7 131.2 Q 270.1 131.8, 269.2 131.8 Q 268.3 131.8, 267.8 131.2 Q 267.3 130.6, 267.3 129.6 M 269.2 131.3 Q 269.9 131.3, 270.2 130.8 Q 270.6 130.4, 270.6 129.6 Q 270.6 128.7, 270.2 128.3 Q 269.9 127.9, 269.2 127.9 Q 268.6 127.9, 268.2 128.3 Q 267.9 128.7, 267.9 129.6 Q 267.9 130.4, 268.2 130.8 Q 268.6 131.3, 269.2 131.3 " fill="#FF0000"/>
<path class="atom-108" d="M 272.9 134.8 Q 273.6 134.8, 274.0 135.2 Q 274.4 135.5, 274.4 136.1 Q 274.4 136.7, 274.0 137.0 Q 273.6 137.4, 272.9 137.4 L 272.2 137.4 L 272.2 139.1 L 271.7 139.1 L 271.7 134.8 L 272.9 134.8 M 272.9 136.9 Q 273.3 136.9, 273.6 136.7 Q 273.8 136.5, 273.8 136.1 Q 273.8 135.7, 273.6 135.5 Q 273.3 135.3, 272.9 135.3 L 272.2 135.3 L 272.2 136.9 L 272.9 136.9 " fill="#FF7F00"/>
<path class="atom-109" d="M 263.7 140.8 Q 263.7 139.8, 264.2 139.2 Q 264.7 138.6, 265.6 138.6 Q 266.5 138.6, 267.0 139.2 Q 267.6 139.8, 267.6 140.8 Q 267.6 141.8, 267.0 142.4 Q 266.5 143.0, 265.6 143.0 Q 264.7 143.0, 264.2 142.4 Q 263.7 141.8, 263.7 140.8 M 265.6 142.5 Q 266.2 142.5, 266.6 142.1 Q 267.0 141.6, 267.0 140.8 Q 267.0 140.0, 266.6 139.5 Q 266.2 139.1, 265.6 139.1 Q 265.0 139.1, 264.6 139.5 Q 264.3 140.0, 264.3 140.8 Q 264.3 141.7, 264.6 142.1 Q 265.0 142.5, 265.6 142.5 " fill="#FF0000"/>
<path class="atom-110" d="M 278.5 133.2 Q 278.5 132.2, 279.0 131.6 Q 279.5 131.0, 280.5 131.0 Q 281.4 131.0, 281.9 131.6 Q 282.4 132.2, 282.4 133.2 Q 282.4 134.2, 281.9 134.8 Q 281.4 135.4, 280.5 135.4 Q 279.5 135.4, 279.0 134.8 Q 278.5 134.2, 278.5 133.2 M 280.5 134.9 Q 281.1 134.9, 281.4 134.5 Q 281.8 134.0, 281.8 133.2 Q 281.8 132.3, 281.4 131.9 Q 281.1 131.5, 280.5 131.5 Q 279.8 131.5, 279.4 131.9 Q 279.1 132.3, 279.1 133.2 Q 279.1 134.0, 279.4 134.5 Q 279.8 134.9, 280.5 134.9 " fill="#FF0000"/>
<path class="atom-110" d="M 283.1 131.1 L 283.6 131.1 L 283.6 132.9 L 285.8 132.9 L 285.8 131.1 L 286.4 131.1 L 286.4 135.3 L 285.8 135.3 L 285.8 133.3 L 283.6 133.3 L 283.6 135.3 L 283.1 135.3 L 283.1 131.1 " fill="#FF0000"/>
<path class="atom-111" d="M 274.9 144.4 Q 274.9 143.4, 275.4 142.8 Q 275.9 142.2, 276.8 142.2 Q 277.8 142.2, 278.3 142.8 Q 278.8 143.4, 278.8 144.4 Q 278.8 145.4, 278.3 146.0 Q 277.8 146.6, 276.8 146.6 Q 275.9 146.6, 275.4 146.0 Q 274.9 145.4, 274.9 144.4 M 276.8 146.1 Q 277.5 146.1, 277.8 145.7 Q 278.2 145.3, 278.2 144.4 Q 278.2 143.6, 277.8 143.2 Q 277.5 142.7, 276.8 142.7 Q 276.2 142.7, 275.8 143.1 Q 275.5 143.6, 275.5 144.4 Q 275.5 145.3, 275.8 145.7 Q 276.2 146.1, 276.8 146.1 " fill="#FF0000"/>
<path class="atom-111" d="M 279.4 142.3 L 280.0 142.3 L 280.0 144.1 L 282.2 144.1 L 282.2 142.3 L 282.8 142.3 L 282.8 146.5 L 282.2 146.5 L 282.2 144.6 L 280.0 144.6 L 280.0 146.5 L 279.4 146.5 L 279.4 142.3 " fill="#FF0000"/>
<path class="atom-112" d="M 201.4 30.9 Q 201.5 30.9, 201.7 31.0 Q 201.9 31.1, 202.1 31.1 Q 202.3 31.2, 202.5 31.2 Q 202.9 31.2, 203.2 31.0 Q 203.4 30.8, 203.4 30.5 Q 203.4 30.2, 203.3 30.1 Q 203.2 29.9, 203.0 29.9 Q 202.8 29.8, 202.5 29.7 Q 202.1 29.6, 201.9 29.5 Q 201.7 29.4, 201.5 29.1 Q 201.4 28.9, 201.4 28.5 Q 201.4 28.0, 201.7 27.7 Q 202.1 27.3, 202.8 27.3 Q 203.3 27.3, 203.9 27.6 L 203.7 28.0 Q 203.2 27.8, 202.8 27.8 Q 202.4 27.8, 202.2 28.0 Q 202.0 28.1, 202.0 28.4 Q 202.0 28.7, 202.1 28.8 Q 202.2 28.9, 202.4 29.0 Q 202.5 29.1, 202.8 29.2 Q 203.2 29.3, 203.4 29.4 Q 203.7 29.6, 203.8 29.8 Q 204.0 30.0, 204.0 30.5 Q 204.0 31.0, 203.6 31.4 Q 203.2 31.7, 202.6 31.7 Q 202.2 31.7, 201.9 31.6 Q 201.6 31.5, 201.3 31.4 L 201.4 30.9 " fill="#CCCC00"/>
<path class="atom-115" d="M 210.9 39.6 Q 210.9 38.6, 211.4 38.1 Q 212.0 37.5, 212.9 37.5 Q 213.8 37.5, 214.3 38.1 Q 214.8 38.6, 214.8 39.6 Q 214.8 40.7, 214.3 41.3 Q 213.8 41.8, 212.9 41.8 Q 212.0 41.8, 211.4 41.3 Q 210.9 40.7, 210.9 39.6 M 212.9 41.4 Q 213.5 41.4, 213.9 40.9 Q 214.2 40.5, 214.2 39.6 Q 214.2 38.8, 213.9 38.4 Q 213.5 38.0, 212.9 38.0 Q 212.2 38.0, 211.9 38.4 Q 211.5 38.8, 211.5 39.6 Q 211.5 40.5, 211.9 40.9 Q 212.2 41.4, 212.9 41.4 " fill="#FF0000"/>
</svg>
