<?xml version='1.0' encoding='ASCII' standalone='yes'?>
<svg xmlns="http://www.w3.org/2000/svg" xmlns:rdkit="http://www.rdkit.org/xml" xmlns:xlink="http://www.w3.org/1999/xlink" version="1.1" baseProfile="full" xml:space="preserve" width="304px" height="200px" viewBox="0 0 304 200">
<!-- END OF HEADER -->
<rect style="opacity:1.0;fill:#FFFFFF;stroke:none" width="304.0" height="200.0" x="0.0" y="0.0"> </rect>
<path class="bond-0 atom-0 atom-1" d="M 15.2,99.3 L 46.9,97.2" style="fill:none;fill-rule:evenodd;stroke:#000000;stroke-width:2.0px;stroke-linecap:butt;stroke-linejoin:miter;stroke-opacity:1"/>
<path class="bond-1 atom-1 atom-2" d="M 46.9,97.2 L 52.5,85.8" style="fill:none;fill-rule:evenodd;stroke:#000000;stroke-width:2.0px;stroke-linecap:butt;stroke-linejoin:miter;stroke-opacity:1"/>
<path class="bond-1 atom-1 atom-2" d="M 52.5,85.8 L 58.1,74.5" style="fill:none;fill-rule:evenodd;stroke:#FF0000;stroke-width:2.0px;stroke-linecap:butt;stroke-linejoin:miter;stroke-opacity:1"/>
<path class="bond-2 atom-1 atom-3" d="M 46.9,97.2 L 64.5,123.6" style="fill:none;fill-rule:evenodd;stroke:#000000;stroke-width:2.0px;stroke-linecap:butt;stroke-linejoin:miter;stroke-opacity:1"/>
<path class="bond-3 atom-3 atom-4" d="M 64.5,123.6 L 38.1,141.3" style="fill:none;fill-rule:evenodd;stroke:#000000;stroke-width:2.0px;stroke-linecap:butt;stroke-linejoin:miter;stroke-opacity:1"/>
<path class="bond-4 atom-3 atom-5" d="M 64.5,123.6 L 90.9,106.0" style="fill:none;fill-rule:evenodd;stroke:#000000;stroke-width:2.0px;stroke-linecap:butt;stroke-linejoin:miter;stroke-opacity:1"/>
<path class="bond-5 atom-5 atom-6" d="M 90.9,106.0 L 119.4,120.0" style="fill:none;fill-rule:evenodd;stroke:#000000;stroke-width:2.0px;stroke-linecap:butt;stroke-linejoin:miter;stroke-opacity:1"/>
<path class="bond-6 atom-6 atom-7" d="M 119.4,120.0 L 145.8,102.4" style="fill:none;fill-rule:evenodd;stroke:#000000;stroke-width:2.0px;stroke-linecap:butt;stroke-linejoin:miter;stroke-opacity:1"/>
<path class="bond-7 atom-7 atom-8" d="M 145.8,102.4 L 174.3,116.4" style="fill:none;fill-rule:evenodd;stroke:#000000;stroke-width:2.0px;stroke-linecap:butt;stroke-linejoin:miter;stroke-opacity:1"/>
<path class="bond-8 atom-8 atom-9" d="M 174.3,116.4 L 200.7,98.8" style="fill:none;fill-rule:evenodd;stroke:#000000;stroke-width:2.0px;stroke-linecap:butt;stroke-linejoin:miter;stroke-opacity:1"/>
<path class="bond-9 atom-9 atom-10" d="M 200.7,98.8 L 229.2,112.8" style="fill:none;fill-rule:evenodd;stroke:#000000;stroke-width:2.0px;stroke-linecap:butt;stroke-linejoin:miter;stroke-opacity:1"/>
<path class="bond-10 atom-10 atom-11" d="M 229.2,112.8 L 215.1,141.3" style="fill:none;fill-rule:evenodd;stroke:#000000;stroke-width:2.0px;stroke-linecap:butt;stroke-linejoin:miter;stroke-opacity:1"/>
<path class="bond-11 atom-10 atom-12" d="M 229.2,112.8 L 243.2,84.3" style="fill:none;fill-rule:evenodd;stroke:#000000;stroke-width:2.0px;stroke-linecap:butt;stroke-linejoin:miter;stroke-opacity:1"/>
<path class="bond-12 atom-10 atom-13" d="M 229.2,112.8 L 257.7,126.8" style="fill:none;fill-rule:evenodd;stroke:#000000;stroke-width:2.0px;stroke-linecap:butt;stroke-linejoin:miter;stroke-opacity:1"/>
<path class="bond-13 atom-13 atom-14" d="M 257.9,129.6 L 269.0,122.1" style="fill:none;fill-rule:evenodd;stroke:#000000;stroke-width:2.0px;stroke-linecap:butt;stroke-linejoin:miter;stroke-opacity:1"/>
<path class="bond-13 atom-13 atom-14" d="M 269.0,122.1 L 280.2,114.6" style="fill:none;fill-rule:evenodd;stroke:#FF0000;stroke-width:2.0px;stroke-linecap:butt;stroke-linejoin:miter;stroke-opacity:1"/>
<path class="bond-13 atom-13 atom-14" d="M 255.2,125.6 L 266.4,118.2" style="fill:none;fill-rule:evenodd;stroke:#000000;stroke-width:2.0px;stroke-linecap:butt;stroke-linejoin:miter;stroke-opacity:1"/>
<path class="bond-13 atom-13 atom-14" d="M 266.4,118.2 L 277.6,110.7" style="fill:none;fill-rule:evenodd;stroke:#FF0000;stroke-width:2.0px;stroke-linecap:butt;stroke-linejoin:miter;stroke-opacity:1"/>
<path class="bond-14 atom-13 atom-15" d="M 257.7,126.8 L 258.5,139.9" style="fill:none;fill-rule:evenodd;stroke:#000000;stroke-width:2.0px;stroke-linecap:butt;stroke-linejoin:miter;stroke-opacity:1"/>
<path class="bond-14 atom-13 atom-15" d="M 258.5,139.9 L 259.4,152.9" style="fill:none;fill-rule:evenodd;stroke:#FF0000;stroke-width:2.0px;stroke-linecap:butt;stroke-linejoin:miter;stroke-opacity:1"/>
<path class="bond-15 atom-7 atom-16" d="M 145.8,102.4 L 143.7,70.7" style="fill:none;fill-rule:evenodd;stroke:#000000;stroke-width:2.0px;stroke-linecap:butt;stroke-linejoin:miter;stroke-opacity:1"/>
<path class="bond-16 atom-16 atom-17" d="M 143.7,70.7 L 112.1,72.8" style="fill:none;fill-rule:evenodd;stroke:#000000;stroke-width:2.0px;stroke-linecap:butt;stroke-linejoin:miter;stroke-opacity:1"/>
<path class="bond-17 atom-16 atom-18" d="M 143.7,70.7 L 175.4,68.6" style="fill:none;fill-rule:evenodd;stroke:#000000;stroke-width:2.0px;stroke-linecap:butt;stroke-linejoin:miter;stroke-opacity:1"/>
<path class="bond-18 atom-16 atom-19" d="M 143.7,70.7 L 141.7,39.0" style="fill:none;fill-rule:evenodd;stroke:#000000;stroke-width:2.0px;stroke-linecap:butt;stroke-linejoin:miter;stroke-opacity:1"/>
<path class="bond-19 atom-19 atom-20" d="M 141.8,41.7 L 153.0,34.3" style="fill:none;fill-rule:evenodd;stroke:#000000;stroke-width:2.0px;stroke-linecap:butt;stroke-linejoin:miter;stroke-opacity:1"/>
<path class="bond-19 atom-19 atom-20" d="M 153.0,34.3 L 164.2,26.8" style="fill:none;fill-rule:evenodd;stroke:#FF0000;stroke-width:2.0px;stroke-linecap:butt;stroke-linejoin:miter;stroke-opacity:1"/>
<path class="bond-19 atom-19 atom-20" d="M 139.2,37.8 L 150.4,30.3" style="fill:none;fill-rule:evenodd;stroke:#000000;stroke-width:2.0px;stroke-linecap:butt;stroke-linejoin:miter;stroke-opacity:1"/>
<path class="bond-19 atom-19 atom-20" d="M 150.4,30.3 L 161.6,22.8" style="fill:none;fill-rule:evenodd;stroke:#FF0000;stroke-width:2.0px;stroke-linecap:butt;stroke-linejoin:miter;stroke-opacity:1"/>
<path class="bond-20 atom-19 atom-21" d="M 141.7,39.0 L 130.0,33.3" style="fill:none;fill-rule:evenodd;stroke:#000000;stroke-width:2.0px;stroke-linecap:butt;stroke-linejoin:miter;stroke-opacity:1"/>
<path class="bond-20 atom-19 atom-21" d="M 130.0,33.3 L 118.4,27.5" style="fill:none;fill-rule:evenodd;stroke:#FF0000;stroke-width:2.0px;stroke-linecap:butt;stroke-linejoin:miter;stroke-opacity:1"/>
<path class="bond-21 atom-3 atom-22" d="M 64.5,123.6 L 82.2,150.0" style="fill:none;fill-rule:evenodd;stroke:#000000;stroke-width:2.0px;stroke-linecap:butt;stroke-linejoin:miter;stroke-opacity:1"/>
<path class="bond-22 atom-22 atom-23" d="M 81.0,152.5 L 94.9,151.6" style="fill:none;fill-rule:evenodd;stroke:#000000;stroke-width:2.0px;stroke-linecap:butt;stroke-linejoin:miter;stroke-opacity:1"/>
<path class="bond-22 atom-22 atom-23" d="M 94.9,151.6 L 108.8,150.7" style="fill:none;fill-rule:evenodd;stroke:#FF0000;stroke-width:2.0px;stroke-linecap:butt;stroke-linejoin:miter;stroke-opacity:1"/>
<path class="bond-22 atom-22 atom-23" d="M 80.7,147.7 L 94.6,146.8" style="fill:none;fill-rule:evenodd;stroke:#000000;stroke-width:2.0px;stroke-linecap:butt;stroke-linejoin:miter;stroke-opacity:1"/>
<path class="bond-22 atom-22 atom-23" d="M 94.6,146.8 L 108.5,145.9" style="fill:none;fill-rule:evenodd;stroke:#FF0000;stroke-width:2.0px;stroke-linecap:butt;stroke-linejoin:miter;stroke-opacity:1"/>
<path class="bond-23 atom-22 atom-24" d="M 82.2,150.0 L 76.5,161.5" style="fill:none;fill-rule:evenodd;stroke:#000000;stroke-width:2.0px;stroke-linecap:butt;stroke-linejoin:miter;stroke-opacity:1"/>
<path class="bond-23 atom-22 atom-24" d="M 76.5,161.5 L 70.9,172.9" style="fill:none;fill-rule:evenodd;stroke:#FF0000;stroke-width:2.0px;stroke-linecap:butt;stroke-linejoin:miter;stroke-opacity:1"/>
<path d="M 89.6,106.9 L 90.9,106.0 L 92.4,106.7" style="fill:none;stroke:#000000;stroke-width:2.0px;stroke-linecap:butt;stroke-linejoin:miter;stroke-opacity:1;"/>
<path d="M 118.0,119.3 L 119.4,120.0 L 120.7,119.1" style="fill:none;stroke:#000000;stroke-width:2.0px;stroke-linecap:butt;stroke-linejoin:miter;stroke-opacity:1;"/>
<path d="M 172.9,115.7 L 174.3,116.4 L 175.6,115.5" style="fill:none;stroke:#000000;stroke-width:2.0px;stroke-linecap:butt;stroke-linejoin:miter;stroke-opacity:1;"/>
<path d="M 199.4,99.6 L 200.7,98.8 L 202.1,99.5" style="fill:none;stroke:#000000;stroke-width:2.0px;stroke-linecap:butt;stroke-linejoin:miter;stroke-opacity:1;"/>
<path d="M 256.2,126.1 L 257.7,126.8 L 257.7,127.5" style="fill:none;stroke:#000000;stroke-width:2.0px;stroke-linecap:butt;stroke-linejoin:miter;stroke-opacity:1;"/>
<path d="M 141.8,40.6 L 141.7,39.0 L 141.1,38.7" style="fill:none;stroke:#000000;stroke-width:2.0px;stroke-linecap:butt;stroke-linejoin:miter;stroke-opacity:1;"/>
<path d="M 81.3,148.7 L 82.2,150.0 L 81.9,150.6" style="fill:none;stroke:#000000;stroke-width:2.0px;stroke-linecap:butt;stroke-linejoin:miter;stroke-opacity:1;"/>
<path class="atom-2" d="M 56.8 68.8 Q 56.8 66.6, 57.9 65.4 Q 58.9 64.2, 60.9 64.2 Q 62.9 64.2, 64.0 65.4 Q 65.1 66.6, 65.1 68.8 Q 65.1 71.0, 64.0 72.2 Q 62.9 73.4, 60.9 73.4 Q 58.9 73.4, 57.9 72.2 Q 56.8 71.0, 56.8 68.8 M 60.9 72.4 Q 62.3 72.4, 63.0 71.5 Q 63.8 70.6, 63.8 68.8 Q 63.8 67.0, 63.0 66.1 Q 62.3 65.2, 60.9 65.2 Q 59.6 65.2, 58.8 66.1 Q 58.1 67.0, 58.1 68.8 Q 58.1 70.6, 58.8 71.5 Q 59.6 72.4, 60.9 72.4 " fill="#FF0000"/>
<path class="atom-2" d="M 66.5 64.3 L 67.7 64.3 L 67.7 68.1 L 72.3 68.1 L 72.3 64.3 L 73.5 64.3 L 73.5 73.3 L 72.3 73.3 L 72.3 69.1 L 67.7 69.1 L 67.7 73.3 L 66.5 73.3 L 66.5 64.3 " fill="#FF0000"/>
<path class="atom-14" d="M 279.9 109.2 Q 279.9 107.1, 281.0 105.9 Q 282.1 104.7, 284.1 104.7 Q 286.1 104.7, 287.1 105.9 Q 288.2 107.1, 288.2 109.2 Q 288.2 111.4, 287.1 112.7 Q 286.0 113.9, 284.1 113.9 Q 282.1 113.9, 281.0 112.7 Q 279.9 111.4, 279.9 109.2 M 284.1 112.9 Q 285.4 112.9, 286.2 112.0 Q 286.9 111.0, 286.9 109.2 Q 286.9 107.5, 286.2 106.6 Q 285.4 105.7, 284.1 105.7 Q 282.7 105.7, 282.0 106.6 Q 281.2 107.5, 281.2 109.2 Q 281.2 111.0, 282.0 112.0 Q 282.7 112.9, 284.1 112.9 " fill="#FF0000"/>
<path class="atom-15" d="M 255.6 158.6 Q 255.6 156.4, 256.7 155.2 Q 257.8 154.0, 259.8 154.0 Q 261.7 154.0, 262.8 155.2 Q 263.9 156.4, 263.9 158.6 Q 263.9 160.7, 262.8 162.0 Q 261.7 163.2, 259.8 163.2 Q 257.8 163.2, 256.7 162.0 Q 255.6 160.8, 255.6 158.6 M 259.8 162.2 Q 261.1 162.2, 261.9 161.3 Q 262.6 160.4, 262.6 158.6 Q 262.6 156.8, 261.9 155.9 Q 261.1 155.0, 259.8 155.0 Q 258.4 155.0, 257.6 155.9 Q 256.9 156.8, 256.9 158.6 Q 256.9 160.4, 257.6 161.3 Q 258.4 162.2, 259.8 162.2 " fill="#FF0000"/>
<path class="atom-15" d="M 265.3 154.1 L 266.5 154.1 L 266.5 157.9 L 271.1 157.9 L 271.1 154.1 L 272.3 154.1 L 272.3 163.1 L 271.1 163.1 L 271.1 158.9 L 266.5 158.9 L 266.5 163.1 L 265.3 163.1 L 265.3 154.1 " fill="#FF0000"/>
<path class="atom-20" d="M 163.9 21.4 Q 163.9 19.2, 165.0 18.0 Q 166.1 16.8, 168.1 16.8 Q 170.1 16.8, 171.1 18.0 Q 172.2 19.2, 172.2 21.4 Q 172.2 23.6, 171.1 24.8 Q 170.0 26.0, 168.1 26.0 Q 166.1 26.0, 165.0 24.8 Q 163.9 23.6, 163.9 21.4 M 168.1 25.0 Q 169.4 25.0, 170.2 24.1 Q 170.9 23.2, 170.9 21.4 Q 170.9 19.6, 170.2 18.7 Q 169.4 17.8, 168.1 17.8 Q 166.7 17.8, 165.9 18.7 Q 165.2 19.6, 165.2 21.4 Q 165.2 23.2, 165.9 24.1 Q 166.7 25.0, 168.1 25.0 " fill="#FF0000"/>
<path class="atom-21" d="M 100.2 20.5 L 101.4 20.5 L 101.4 24.3 L 106.0 24.3 L 106.0 20.5 L 107.2 20.5 L 107.2 29.5 L 106.0 29.5 L 106.0 25.4 L 101.4 25.4 L 101.4 29.5 L 100.2 29.5 L 100.2 20.5 " fill="#FF0000"/>
<path class="atom-21" d="M 109.0 25.0 Q 109.0 22.8, 110.1 21.6 Q 111.2 20.4, 113.2 20.4 Q 115.2 20.4, 116.2 21.6 Q 117.3 22.8, 117.3 25.0 Q 117.3 27.2, 116.2 28.4 Q 115.1 29.6, 113.2 29.6 Q 111.2 29.6, 110.1 28.4 Q 109.0 27.2, 109.0 25.0 M 113.2 28.6 Q 114.5 28.6, 115.3 27.7 Q 116.0 26.8, 116.0 25.0 Q 116.0 23.2, 115.3 22.3 Q 114.5 21.4, 113.2 21.4 Q 111.8 21.4, 111.1 22.3 Q 110.3 23.2, 110.3 25.0 Q 110.3 26.8, 111.1 27.7 Q 111.8 28.6, 113.2 28.6 " fill="#FF0000"/>
<path class="atom-23" d="M 109.7 148.0 Q 109.7 145.8, 110.8 144.6 Q 111.9 143.4, 113.9 143.4 Q 115.9 143.4, 116.9 144.6 Q 118.0 145.8, 118.0 148.0 Q 118.0 150.2, 116.9 151.4 Q 115.8 152.6, 113.9 152.6 Q 111.9 152.6, 110.8 151.4 Q 109.7 150.2, 109.7 148.0 M 113.9 151.6 Q 115.2 151.6, 116.0 150.7 Q 116.7 149.8, 116.7 148.0 Q 116.7 146.2, 116.0 145.3 Q 115.2 144.4, 113.9 144.4 Q 112.5 144.4, 111.7 145.3 Q 111.0 146.2, 111.0 148.0 Q 111.0 149.8, 111.7 150.7 Q 112.5 151.6, 113.9 151.6 " fill="#FF0000"/>
<path class="atom-24" d="M 55.1 174.1 L 56.3 174.1 L 56.3 177.9 L 60.9 177.9 L 60.9 174.1 L 62.2 174.1 L 62.2 183.1 L 60.9 183.1 L 60.9 178.9 L 56.3 178.9 L 56.3 183.1 L 55.1 183.1 L 55.1 174.1 " fill="#FF0000"/>
<path class="atom-24" d="M 64.0 178.5 Q 64.0 176.4, 65.1 175.2 Q 66.1 174.0, 68.1 174.0 Q 70.1 174.0, 71.2 175.2 Q 72.3 176.4, 72.3 178.5 Q 72.3 180.7, 71.2 182.0 Q 70.1 183.2, 68.1 183.2 Q 66.2 183.2, 65.1 182.0 Q 64.0 180.7, 64.0 178.5 M 68.1 182.2 Q 69.5 182.2, 70.2 181.3 Q 71.0 180.3, 71.0 178.5 Q 71.0 176.8, 70.2 175.9 Q 69.5 175.0, 68.1 175.0 Q 66.8 175.0, 66.0 175.9 Q 65.3 176.8, 65.3 178.5 Q 65.3 180.4, 66.0 181.3 Q 66.8 182.2, 68.1 182.2 " fill="#FF0000"/>
</svg>
