<?xml version='1.0' encoding='ASCII' standalone='yes'?>
<svg xmlns="http://www.w3.org/2000/svg" xmlns:rdkit="http://www.rdkit.org/xml" xmlns:xlink="http://www.w3.org/1999/xlink" version="1.1" baseProfile="full" xml:space="preserve" width="357px" height="200px" viewBox="0 0 357 200">
<!-- END OF HEADER -->
<rect style="opacity:1.0;fill:#FFFFFF;stroke:none" width="357.0" height="200.0" x="0.0" y="0.0"> </rect>
<path class="bond-0 atom-0 atom-1" d="M 297.0,10.0 L 271.9,16.8" style="fill:none;fill-rule:evenodd;stroke:#000000;stroke-width:2.0px;stroke-linecap:butt;stroke-linejoin:miter;stroke-opacity:1"/>
<path class="bond-1 atom-1 atom-2" d="M 271.9,16.8 L 265.2,41.9" style="fill:none;fill-rule:evenodd;stroke:#000000;stroke-width:2.0px;stroke-linecap:butt;stroke-linejoin:miter;stroke-opacity:1"/>
<path class="bond-2 atom-2 atom-3" d="M 265.2,41.9 L 258.5,67.0" style="fill:none;fill-rule:evenodd;stroke:#000000;stroke-width:2.0px;stroke-linecap:butt;stroke-linejoin:miter;stroke-opacity:1"/>
<path class="bond-3 atom-3 atom-4" d="M 258.5,67.0 L 276.9,85.4" style="fill:none;fill-rule:evenodd;stroke:#000000;stroke-width:2.0px;stroke-linecap:butt;stroke-linejoin:miter;stroke-opacity:1"/>
<path class="bond-4 atom-4 atom-5" d="M 276.9,85.4 L 270.2,110.5" style="fill:none;fill-rule:evenodd;stroke:#000000;stroke-width:2.0px;stroke-linecap:butt;stroke-linejoin:miter;stroke-opacity:1"/>
<path class="bond-5 atom-5 atom-6" d="M 270.2,110.5 L 288.6,128.9" style="fill:none;fill-rule:evenodd;stroke:#000000;stroke-width:2.0px;stroke-linecap:butt;stroke-linejoin:miter;stroke-opacity:1"/>
<path class="bond-6 atom-6 atom-7" d="M 288.6,128.9 L 282.0,154.0" style="fill:none;fill-rule:evenodd;stroke:#000000;stroke-width:2.0px;stroke-linecap:butt;stroke-linejoin:miter;stroke-opacity:1"/>
<path class="bond-7 atom-7 atom-8" d="M 282.0,154.0 L 275.3,179.1" style="fill:none;fill-rule:evenodd;stroke:#000000;stroke-width:2.0px;stroke-linecap:butt;stroke-linejoin:miter;stroke-opacity:1"/>
<path class="bond-8 atom-7 atom-9" d="M 282.0,154.0 L 256.8,147.3" style="fill:none;fill-rule:evenodd;stroke:#000000;stroke-width:2.0px;stroke-linecap:butt;stroke-linejoin:miter;stroke-opacity:1"/>
<path class="bond-9 atom-9 atom-10" d="M 256.8,147.3 L 249.8,154.4" style="fill:none;fill-rule:evenodd;stroke:#000000;stroke-width:2.0px;stroke-linecap:butt;stroke-linejoin:miter;stroke-opacity:1"/>
<path class="bond-9 atom-9 atom-10" d="M 249.8,154.4 L 242.7,161.5" style="fill:none;fill-rule:evenodd;stroke:#FF0000;stroke-width:2.0px;stroke-linecap:butt;stroke-linejoin:miter;stroke-opacity:1"/>
<path class="bond-10 atom-7 atom-11" d="M 282.0,154.0 L 307.1,160.7" style="fill:none;fill-rule:evenodd;stroke:#000000;stroke-width:2.0px;stroke-linecap:butt;stroke-linejoin:miter;stroke-opacity:1"/>
<path class="bond-11 atom-11 atom-12" d="M 307.7,162.9 L 315.1,155.4" style="fill:none;fill-rule:evenodd;stroke:#000000;stroke-width:2.0px;stroke-linecap:butt;stroke-linejoin:miter;stroke-opacity:1"/>
<path class="bond-11 atom-11 atom-12" d="M 315.1,155.4 L 322.6,147.9" style="fill:none;fill-rule:evenodd;stroke:#FF0000;stroke-width:2.0px;stroke-linecap:butt;stroke-linejoin:miter;stroke-opacity:1"/>
<path class="bond-11 atom-11 atom-12" d="M 304.9,160.1 L 312.4,152.6" style="fill:none;fill-rule:evenodd;stroke:#000000;stroke-width:2.0px;stroke-linecap:butt;stroke-linejoin:miter;stroke-opacity:1"/>
<path class="bond-11 atom-11 atom-12" d="M 312.4,152.6 L 319.8,145.1" style="fill:none;fill-rule:evenodd;stroke:#FF0000;stroke-width:2.0px;stroke-linecap:butt;stroke-linejoin:miter;stroke-opacity:1"/>
<path class="bond-12 atom-11 atom-13" d="M 307.1,160.7 L 309.8,170.9" style="fill:none;fill-rule:evenodd;stroke:#000000;stroke-width:2.0px;stroke-linecap:butt;stroke-linejoin:miter;stroke-opacity:1"/>
<path class="bond-12 atom-11 atom-13" d="M 309.8,170.9 L 312.6,181.2" style="fill:none;fill-rule:evenodd;stroke:#FF0000;stroke-width:2.0px;stroke-linecap:butt;stroke-linejoin:miter;stroke-opacity:1"/>
<path class="bond-13 atom-2 atom-14" d="M 265.2,41.9 L 240.1,35.2" style="fill:none;fill-rule:evenodd;stroke:#000000;stroke-width:2.0px;stroke-linecap:butt;stroke-linejoin:miter;stroke-opacity:1"/>
<path class="bond-14 atom-14 atom-15" d="M 240.1,35.2 L 221.7,53.6" style="fill:none;fill-rule:evenodd;stroke:#000000;stroke-width:2.0px;stroke-linecap:butt;stroke-linejoin:miter;stroke-opacity:1"/>
<path class="bond-15 atom-15 atom-16" d="M 221.7,53.6 L 196.6,46.9" style="fill:none;fill-rule:evenodd;stroke:#000000;stroke-width:2.0px;stroke-linecap:butt;stroke-linejoin:miter;stroke-opacity:1"/>
<path class="bond-16 atom-16 atom-17" d="M 196.6,46.9 L 178.2,65.3" style="fill:none;fill-rule:evenodd;stroke:#000000;stroke-width:2.0px;stroke-linecap:butt;stroke-linejoin:miter;stroke-opacity:1"/>
<path class="bond-17 atom-17 atom-18" d="M 178.2,65.3 L 159.9,83.7" style="fill:none;fill-rule:evenodd;stroke:#000000;stroke-width:2.0px;stroke-linecap:butt;stroke-linejoin:miter;stroke-opacity:1"/>
<path class="bond-18 atom-17 atom-19" d="M 178.2,65.3 L 196.7,83.7" style="fill:none;fill-rule:evenodd;stroke:#000000;stroke-width:2.0px;stroke-linecap:butt;stroke-linejoin:miter;stroke-opacity:1"/>
<path class="bond-19 atom-19 atom-20" d="M 196.1,85.9 L 207.1,82.9" style="fill:none;fill-rule:evenodd;stroke:#000000;stroke-width:2.0px;stroke-linecap:butt;stroke-linejoin:miter;stroke-opacity:1"/>
<path class="bond-19 atom-19 atom-20" d="M 207.1,82.9 L 218.0,79.9" style="fill:none;fill-rule:evenodd;stroke:#FF0000;stroke-width:2.0px;stroke-linecap:butt;stroke-linejoin:miter;stroke-opacity:1"/>
<path class="bond-19 atom-19 atom-20" d="M 195.1,82.1 L 206.0,79.1" style="fill:none;fill-rule:evenodd;stroke:#000000;stroke-width:2.0px;stroke-linecap:butt;stroke-linejoin:miter;stroke-opacity:1"/>
<path class="bond-19 atom-19 atom-20" d="M 206.0,79.1 L 217.0,76.2" style="fill:none;fill-rule:evenodd;stroke:#FF0000;stroke-width:2.0px;stroke-linecap:butt;stroke-linejoin:miter;stroke-opacity:1"/>
<path class="bond-20 atom-19 atom-21" d="M 196.7,83.7 L 193.9,94.0" style="fill:none;fill-rule:evenodd;stroke:#000000;stroke-width:2.0px;stroke-linecap:butt;stroke-linejoin:miter;stroke-opacity:1"/>
<path class="bond-20 atom-19 atom-21" d="M 193.9,94.0 L 191.2,104.2" style="fill:none;fill-rule:evenodd;stroke:#FF0000;stroke-width:2.0px;stroke-linecap:butt;stroke-linejoin:miter;stroke-opacity:1"/>
<path class="bond-21 atom-17 atom-22" d="M 178.2,65.3 L 159.8,47.0" style="fill:none;fill-rule:evenodd;stroke:#000000;stroke-width:2.0px;stroke-linecap:butt;stroke-linejoin:miter;stroke-opacity:1"/>
<path class="bond-22 atom-22 atom-23" d="M 159.8,47.0 L 162.6,36.7" style="fill:none;fill-rule:evenodd;stroke:#000000;stroke-width:2.0px;stroke-linecap:butt;stroke-linejoin:miter;stroke-opacity:1"/>
<path class="bond-22 atom-22 atom-23" d="M 162.6,36.7 L 165.3,26.5" style="fill:none;fill-rule:evenodd;stroke:#FF0000;stroke-width:2.0px;stroke-linecap:butt;stroke-linejoin:miter;stroke-opacity:1"/>
<path class="bond-23 atom-22 atom-24" d="M 159.8,47.0 L 134.7,53.7" style="fill:none;fill-rule:evenodd;stroke:#000000;stroke-width:2.0px;stroke-linecap:butt;stroke-linejoin:miter;stroke-opacity:1"/>
<path class="bond-24 atom-24 atom-25" d="M 134.7,53.7 L 116.3,35.4" style="fill:none;fill-rule:evenodd;stroke:#000000;stroke-width:2.0px;stroke-linecap:butt;stroke-linejoin:miter;stroke-opacity:1"/>
<path class="bond-25 atom-25 atom-26" d="M 116.3,35.4 L 91.2,42.1" style="fill:none;fill-rule:evenodd;stroke:#000000;stroke-width:2.0px;stroke-linecap:butt;stroke-linejoin:miter;stroke-opacity:1"/>
<path class="bond-26 atom-26 atom-27" d="M 91.2,42.1 L 84.4,17.0" style="fill:none;fill-rule:evenodd;stroke:#000000;stroke-width:2.0px;stroke-linecap:butt;stroke-linejoin:miter;stroke-opacity:1"/>
<path class="bond-27 atom-27 atom-28" d="M 84.4,17.0 L 59.3,10.3" style="fill:none;fill-rule:evenodd;stroke:#000000;stroke-width:2.0px;stroke-linecap:butt;stroke-linejoin:miter;stroke-opacity:1"/>
<path class="bond-28 atom-26 atom-29" d="M 91.2,42.1 L 98.0,67.2" style="fill:none;fill-rule:evenodd;stroke:#000000;stroke-width:2.0px;stroke-linecap:butt;stroke-linejoin:miter;stroke-opacity:1"/>
<path class="bond-29 atom-29 atom-30" d="M 98.0,67.2 L 79.6,85.6" style="fill:none;fill-rule:evenodd;stroke:#000000;stroke-width:2.0px;stroke-linecap:butt;stroke-linejoin:miter;stroke-opacity:1"/>
<path class="bond-30 atom-30 atom-31" d="M 79.6,85.6 L 86.4,110.8" style="fill:none;fill-rule:evenodd;stroke:#000000;stroke-width:2.0px;stroke-linecap:butt;stroke-linejoin:miter;stroke-opacity:1"/>
<path class="bond-31 atom-31 atom-32" d="M 86.4,110.8 L 68.0,129.2" style="fill:none;fill-rule:evenodd;stroke:#000000;stroke-width:2.0px;stroke-linecap:butt;stroke-linejoin:miter;stroke-opacity:1"/>
<path class="bond-32 atom-32 atom-33" d="M 68.0,129.2 L 74.8,154.3" style="fill:none;fill-rule:evenodd;stroke:#000000;stroke-width:2.0px;stroke-linecap:butt;stroke-linejoin:miter;stroke-opacity:1"/>
<path class="bond-33 atom-33 atom-34" d="M 74.8,154.3 L 81.5,179.4" style="fill:none;fill-rule:evenodd;stroke:#000000;stroke-width:2.0px;stroke-linecap:butt;stroke-linejoin:miter;stroke-opacity:1"/>
<path class="bond-34 atom-33 atom-35" d="M 74.8,154.3 L 99.9,147.5" style="fill:none;fill-rule:evenodd;stroke:#000000;stroke-width:2.0px;stroke-linecap:butt;stroke-linejoin:miter;stroke-opacity:1"/>
<path class="bond-35 atom-35 atom-36" d="M 99.9,147.5 L 107.0,154.6" style="fill:none;fill-rule:evenodd;stroke:#000000;stroke-width:2.0px;stroke-linecap:butt;stroke-linejoin:miter;stroke-opacity:1"/>
<path class="bond-35 atom-35 atom-36" d="M 107.0,154.6 L 114.1,161.6" style="fill:none;fill-rule:evenodd;stroke:#FF0000;stroke-width:2.0px;stroke-linecap:butt;stroke-linejoin:miter;stroke-opacity:1"/>
<path class="bond-36 atom-33 atom-37" d="M 74.8,154.3 L 49.7,161.0" style="fill:none;fill-rule:evenodd;stroke:#000000;stroke-width:2.0px;stroke-linecap:butt;stroke-linejoin:miter;stroke-opacity:1"/>
<path class="bond-37 atom-37 atom-38" d="M 51.9,160.5 L 44.4,153.0" style="fill:none;fill-rule:evenodd;stroke:#000000;stroke-width:2.0px;stroke-linecap:butt;stroke-linejoin:miter;stroke-opacity:1"/>
<path class="bond-37 atom-37 atom-38" d="M 44.4,153.0 L 36.9,145.5" style="fill:none;fill-rule:evenodd;stroke:#FF0000;stroke-width:2.0px;stroke-linecap:butt;stroke-linejoin:miter;stroke-opacity:1"/>
<path class="bond-37 atom-37 atom-38" d="M 49.1,163.2 L 41.6,155.7" style="fill:none;fill-rule:evenodd;stroke:#000000;stroke-width:2.0px;stroke-linecap:butt;stroke-linejoin:miter;stroke-opacity:1"/>
<path class="bond-37 atom-37 atom-38" d="M 41.6,155.7 L 34.1,148.3" style="fill:none;fill-rule:evenodd;stroke:#FF0000;stroke-width:2.0px;stroke-linecap:butt;stroke-linejoin:miter;stroke-opacity:1"/>
<path class="bond-38 atom-37 atom-39" d="M 49.7,161.0 L 46.9,171.3" style="fill:none;fill-rule:evenodd;stroke:#000000;stroke-width:2.0px;stroke-linecap:butt;stroke-linejoin:miter;stroke-opacity:1"/>
<path class="bond-38 atom-37 atom-39" d="M 46.9,171.3 L 44.2,181.6" style="fill:none;fill-rule:evenodd;stroke:#FF0000;stroke-width:2.0px;stroke-linecap:butt;stroke-linejoin:miter;stroke-opacity:1"/>
<path class="bond-39 atom-26 atom-40" d="M 91.2,42.1 L 66.1,48.9" style="fill:none;fill-rule:evenodd;stroke:#000000;stroke-width:2.0px;stroke-linecap:butt;stroke-linejoin:miter;stroke-opacity:1"/>
<path class="bond-40 atom-40 atom-41" d="M 64.5,47.3 L 61.6,58.1" style="fill:none;fill-rule:evenodd;stroke:#000000;stroke-width:2.0px;stroke-linecap:butt;stroke-linejoin:miter;stroke-opacity:1"/>
<path class="bond-40 atom-40 atom-41" d="M 61.6,58.1 L 58.7,68.9" style="fill:none;fill-rule:evenodd;stroke:#FF0000;stroke-width:2.0px;stroke-linecap:butt;stroke-linejoin:miter;stroke-opacity:1"/>
<path class="bond-40 atom-40 atom-41" d="M 68.3,48.3 L 65.4,59.1" style="fill:none;fill-rule:evenodd;stroke:#000000;stroke-width:2.0px;stroke-linecap:butt;stroke-linejoin:miter;stroke-opacity:1"/>
<path class="bond-40 atom-40 atom-41" d="M 65.4,59.1 L 62.5,69.9" style="fill:none;fill-rule:evenodd;stroke:#FF0000;stroke-width:2.0px;stroke-linecap:butt;stroke-linejoin:miter;stroke-opacity:1"/>
<path class="bond-41 atom-40 atom-42" d="M 66.1,48.9 L 59.0,41.8" style="fill:none;fill-rule:evenodd;stroke:#000000;stroke-width:2.0px;stroke-linecap:butt;stroke-linejoin:miter;stroke-opacity:1"/>
<path class="bond-41 atom-40 atom-42" d="M 59.0,41.8 L 51.9,34.8" style="fill:none;fill-rule:evenodd;stroke:#FF0000;stroke-width:2.0px;stroke-linecap:butt;stroke-linejoin:miter;stroke-opacity:1"/>
<path class="bond-42 atom-2 atom-43" d="M 265.2,41.9 L 290.3,48.6" style="fill:none;fill-rule:evenodd;stroke:#000000;stroke-width:2.0px;stroke-linecap:butt;stroke-linejoin:miter;stroke-opacity:1"/>
<path class="bond-43 atom-43 atom-44" d="M 290.9,50.8 L 298.4,43.3" style="fill:none;fill-rule:evenodd;stroke:#000000;stroke-width:2.0px;stroke-linecap:butt;stroke-linejoin:miter;stroke-opacity:1"/>
<path class="bond-43 atom-43 atom-44" d="M 298.4,43.3 L 305.8,35.8" style="fill:none;fill-rule:evenodd;stroke:#FF0000;stroke-width:2.0px;stroke-linecap:butt;stroke-linejoin:miter;stroke-opacity:1"/>
<path class="bond-43 atom-43 atom-44" d="M 288.2,48.0 L 295.6,40.5" style="fill:none;fill-rule:evenodd;stroke:#000000;stroke-width:2.0px;stroke-linecap:butt;stroke-linejoin:miter;stroke-opacity:1"/>
<path class="bond-43 atom-43 atom-44" d="M 295.6,40.5 L 303.1,33.0" style="fill:none;fill-rule:evenodd;stroke:#FF0000;stroke-width:2.0px;stroke-linecap:butt;stroke-linejoin:miter;stroke-opacity:1"/>
<path class="bond-44 atom-43 atom-45" d="M 290.3,48.6 L 293.1,58.8" style="fill:none;fill-rule:evenodd;stroke:#000000;stroke-width:2.0px;stroke-linecap:butt;stroke-linejoin:miter;stroke-opacity:1"/>
<path class="bond-44 atom-43 atom-45" d="M 293.1,58.8 L 295.9,69.1" style="fill:none;fill-rule:evenodd;stroke:#FF0000;stroke-width:2.0px;stroke-linecap:butt;stroke-linejoin:miter;stroke-opacity:1"/>
<path d="M 273.2,16.4 L 271.9,16.8 L 271.6,18.0" style="fill:none;stroke:#000000;stroke-width:2.0px;stroke-linecap:butt;stroke-linejoin:miter;stroke-opacity:1;"/>
<path d="M 258.9,65.8 L 258.5,67.0 L 259.4,67.9" style="fill:none;stroke:#000000;stroke-width:2.0px;stroke-linecap:butt;stroke-linejoin:miter;stroke-opacity:1;"/>
<path d="M 276.0,84.5 L 276.9,85.4 L 276.6,86.6" style="fill:none;stroke:#000000;stroke-width:2.0px;stroke-linecap:butt;stroke-linejoin:miter;stroke-opacity:1;"/>
<path d="M 270.6,109.2 L 270.2,110.5 L 271.2,111.4" style="fill:none;stroke:#000000;stroke-width:2.0px;stroke-linecap:butt;stroke-linejoin:miter;stroke-opacity:1;"/>
<path d="M 287.7,127.9 L 288.6,128.9 L 288.3,130.1" style="fill:none;stroke:#000000;stroke-width:2.0px;stroke-linecap:butt;stroke-linejoin:miter;stroke-opacity:1;"/>
<path d="M 258.1,147.6 L 256.8,147.3 L 256.5,147.6" style="fill:none;stroke:#000000;stroke-width:2.0px;stroke-linecap:butt;stroke-linejoin:miter;stroke-opacity:1;"/>
<path d="M 305.8,160.3 L 307.1,160.7 L 307.2,161.2" style="fill:none;stroke:#000000;stroke-width:2.0px;stroke-linecap:butt;stroke-linejoin:miter;stroke-opacity:1;"/>
<path d="M 241.3,35.5 L 240.1,35.2 L 239.2,36.1" style="fill:none;stroke:#000000;stroke-width:2.0px;stroke-linecap:butt;stroke-linejoin:miter;stroke-opacity:1;"/>
<path d="M 222.6,52.7 L 221.7,53.6 L 220.5,53.3" style="fill:none;stroke:#000000;stroke-width:2.0px;stroke-linecap:butt;stroke-linejoin:miter;stroke-opacity:1;"/>
<path d="M 197.9,47.2 L 196.6,46.9 L 195.7,47.8" style="fill:none;stroke:#000000;stroke-width:2.0px;stroke-linecap:butt;stroke-linejoin:miter;stroke-opacity:1;"/>
<path d="M 195.7,82.8 L 196.7,83.7 L 196.5,84.2" style="fill:none;stroke:#000000;stroke-width:2.0px;stroke-linecap:butt;stroke-linejoin:miter;stroke-opacity:1;"/>
<path d="M 136.0,53.4 L 134.7,53.7 L 133.8,52.8" style="fill:none;stroke:#000000;stroke-width:2.0px;stroke-linecap:butt;stroke-linejoin:miter;stroke-opacity:1;"/>
<path d="M 117.2,36.3 L 116.3,35.4 L 115.1,35.7" style="fill:none;stroke:#000000;stroke-width:2.0px;stroke-linecap:butt;stroke-linejoin:miter;stroke-opacity:1;"/>
<path d="M 84.8,18.3 L 84.4,17.0 L 83.2,16.7" style="fill:none;stroke:#000000;stroke-width:2.0px;stroke-linecap:butt;stroke-linejoin:miter;stroke-opacity:1;"/>
<path d="M 97.6,66.0 L 98.0,67.2 L 97.1,68.2" style="fill:none;stroke:#000000;stroke-width:2.0px;stroke-linecap:butt;stroke-linejoin:miter;stroke-opacity:1;"/>
<path d="M 80.5,84.7 L 79.6,85.6 L 80.0,86.9" style="fill:none;stroke:#000000;stroke-width:2.0px;stroke-linecap:butt;stroke-linejoin:miter;stroke-opacity:1;"/>
<path d="M 86.0,109.5 L 86.4,110.8 L 85.5,111.7" style="fill:none;stroke:#000000;stroke-width:2.0px;stroke-linecap:butt;stroke-linejoin:miter;stroke-opacity:1;"/>
<path d="M 68.9,128.2 L 68.0,129.2 L 68.4,130.4" style="fill:none;stroke:#000000;stroke-width:2.0px;stroke-linecap:butt;stroke-linejoin:miter;stroke-opacity:1;"/>
<path d="M 98.6,147.8 L 99.9,147.5 L 100.2,147.9" style="fill:none;stroke:#000000;stroke-width:2.0px;stroke-linecap:butt;stroke-linejoin:miter;stroke-opacity:1;"/>
<path d="M 50.9,160.7 L 49.7,161.0 L 49.5,161.6" style="fill:none;stroke:#000000;stroke-width:2.0px;stroke-linecap:butt;stroke-linejoin:miter;stroke-opacity:1;"/>
<path d="M 67.4,48.6 L 66.1,48.9 L 65.7,48.5" style="fill:none;stroke:#000000;stroke-width:2.0px;stroke-linecap:butt;stroke-linejoin:miter;stroke-opacity:1;"/>
<path d="M 289.1,48.2 L 290.3,48.6 L 290.5,49.1" style="fill:none;stroke:#000000;stroke-width:2.0px;stroke-linecap:butt;stroke-linejoin:miter;stroke-opacity:1;"/>
<path class="atom-10" d="M 227.8 162.1 L 228.8 162.1 L 228.8 165.2 L 232.6 165.2 L 232.6 162.1 L 233.6 162.1 L 233.6 169.4 L 232.6 169.4 L 232.6 166.0 L 228.8 166.0 L 228.8 169.4 L 227.8 169.4 L 227.8 162.1 " fill="#FF0000"/>
<path class="atom-10" d="M 235.1 165.7 Q 235.1 164.0, 236.0 163.0 Q 236.8 162.0, 238.5 162.0 Q 240.1 162.0, 241.0 163.0 Q 241.8 164.0, 241.8 165.7 Q 241.8 167.5, 241.0 168.5 Q 240.1 169.5, 238.5 169.5 Q 236.8 169.5, 236.0 168.5 Q 235.1 167.5, 235.1 165.7 M 238.5 168.7 Q 239.6 168.7, 240.2 168.0 Q 240.8 167.2, 240.8 165.7 Q 240.8 164.3, 240.2 163.5 Q 239.6 162.8, 238.5 162.8 Q 237.3 162.8, 236.7 163.5 Q 236.1 164.3, 236.1 165.7 Q 236.1 167.2, 236.7 168.0 Q 237.3 168.7, 238.5 168.7 " fill="#FF0000"/>
<path class="atom-12" d="M 322.1 142.3 Q 322.1 140.5, 322.9 139.5 Q 323.8 138.5, 325.4 138.5 Q 327.1 138.5, 327.9 139.5 Q 328.8 140.5, 328.8 142.3 Q 328.8 144.1, 327.9 145.1 Q 327.0 146.1, 325.4 146.1 Q 323.8 146.1, 322.9 145.1 Q 322.1 144.1, 322.1 142.3 M 325.4 145.3 Q 326.6 145.3, 327.2 144.5 Q 327.8 143.8, 327.8 142.3 Q 327.8 140.8, 327.2 140.1 Q 326.6 139.4, 325.4 139.4 Q 324.3 139.4, 323.7 140.1 Q 323.1 140.8, 323.1 142.3 Q 323.1 143.8, 323.7 144.5 Q 324.3 145.3, 325.4 145.3 " fill="#FF0000"/>
<path class="atom-13" d="M 310.5 185.8 Q 310.5 184.0, 311.3 183.0 Q 312.2 182.1, 313.8 182.1 Q 315.5 182.1, 316.3 183.0 Q 317.2 184.0, 317.2 185.8 Q 317.2 187.6, 316.3 188.6 Q 315.5 189.6, 313.8 189.6 Q 312.2 189.6, 311.3 188.6 Q 310.5 187.6, 310.5 185.8 M 313.8 188.8 Q 315.0 188.8, 315.6 188.0 Q 316.2 187.3, 316.2 185.8 Q 316.2 184.4, 315.6 183.6 Q 315.0 182.9, 313.8 182.9 Q 312.7 182.9, 312.1 183.6 Q 311.5 184.3, 311.5 185.8 Q 311.5 187.3, 312.1 188.0 Q 312.7 188.8, 313.8 188.8 " fill="#FF0000"/>
<path class="atom-13" d="M 318.4 182.1 L 319.4 182.1 L 319.4 185.3 L 323.1 185.3 L 323.1 182.1 L 324.1 182.1 L 324.1 189.5 L 323.1 189.5 L 323.1 186.1 L 319.4 186.1 L 319.4 189.5 L 318.4 189.5 L 318.4 182.1 " fill="#FF0000"/>
<path class="atom-20" d="M 218.4 76.9 Q 218.4 75.2, 219.3 74.2 Q 220.1 73.2, 221.8 73.2 Q 223.4 73.2, 224.3 74.2 Q 225.1 75.2, 225.1 76.9 Q 225.1 78.7, 224.3 79.7 Q 223.4 80.8, 221.8 80.8 Q 220.1 80.8, 219.3 79.7 Q 218.4 78.7, 218.4 76.9 M 221.8 79.9 Q 222.9 79.9, 223.5 79.2 Q 224.1 78.4, 224.1 76.9 Q 224.1 75.5, 223.5 74.8 Q 222.9 74.0, 221.8 74.0 Q 220.6 74.0, 220.0 74.8 Q 219.4 75.5, 219.4 76.9 Q 219.4 78.4, 220.0 79.2 Q 220.6 79.9, 221.8 79.9 " fill="#FF0000"/>
<path class="atom-21" d="M 186.6 108.8 Q 186.6 107.1, 187.5 106.1 Q 188.3 105.1, 190.0 105.1 Q 191.6 105.1, 192.5 106.1 Q 193.3 107.1, 193.3 108.8 Q 193.3 110.6, 192.5 111.6 Q 191.6 112.6, 190.0 112.6 Q 188.3 112.6, 187.5 111.6 Q 186.6 110.6, 186.6 108.8 M 190.0 111.8 Q 191.1 111.8, 191.7 111.1 Q 192.3 110.3, 192.3 108.8 Q 192.3 107.4, 191.7 106.7 Q 191.1 105.9, 190.0 105.9 Q 188.8 105.9, 188.2 106.6 Q 187.6 107.4, 187.6 108.8 Q 187.6 110.3, 188.2 111.1 Q 188.8 111.8, 190.0 111.8 " fill="#FF0000"/>
<path class="atom-21" d="M 194.5 105.2 L 195.5 105.2 L 195.5 108.3 L 199.2 108.3 L 199.2 105.2 L 200.2 105.2 L 200.2 112.5 L 199.2 112.5 L 199.2 109.1 L 195.5 109.1 L 195.5 112.5 L 194.5 112.5 L 194.5 105.2 " fill="#FF0000"/>
<path class="atom-23" d="M 163.1 21.9 Q 163.1 20.1, 164.0 19.1 Q 164.9 18.1, 166.5 18.1 Q 168.2 18.1, 169.0 19.1 Q 169.9 20.1, 169.9 21.9 Q 169.9 23.6, 169.0 24.7 Q 168.1 25.7, 166.5 25.7 Q 164.9 25.7, 164.0 24.7 Q 163.1 23.7, 163.1 21.9 M 166.5 24.8 Q 167.6 24.8, 168.3 24.1 Q 168.9 23.3, 168.9 21.9 Q 168.9 20.4, 168.3 19.7 Q 167.6 18.9, 166.5 18.9 Q 165.4 18.9, 164.8 19.7 Q 164.2 20.4, 164.2 21.9 Q 164.2 23.3, 164.8 24.1 Q 165.4 24.8, 166.5 24.8 " fill="#FF0000"/>
<path class="atom-23" d="M 171.1 18.2 L 172.1 18.2 L 172.1 21.3 L 175.8 21.3 L 175.8 18.2 L 176.8 18.2 L 176.8 25.6 L 175.8 25.6 L 175.8 22.2 L 172.1 22.2 L 172.1 25.6 L 171.1 25.6 L 171.1 18.2 " fill="#FF0000"/>
<path class="atom-36" d="M 114.9 165.9 Q 114.9 164.1, 115.8 163.1 Q 116.7 162.1, 118.3 162.1 Q 119.9 162.1, 120.8 163.1 Q 121.7 164.1, 121.7 165.9 Q 121.7 167.7, 120.8 168.7 Q 119.9 169.7, 118.3 169.7 Q 116.7 169.7, 115.8 168.7 Q 114.9 167.7, 114.9 165.9 M 118.3 168.9 Q 119.4 168.9, 120.0 168.1 Q 120.6 167.4, 120.6 165.9 Q 120.6 164.4, 120.0 163.7 Q 119.4 163.0, 118.3 163.0 Q 117.2 163.0, 116.6 163.7 Q 116.0 164.4, 116.0 165.9 Q 116.0 167.4, 116.6 168.1 Q 117.2 168.9, 118.3 168.9 " fill="#FF0000"/>
<path class="atom-36" d="M 122.8 162.2 L 123.8 162.2 L 123.8 165.4 L 127.6 165.4 L 127.6 162.2 L 128.6 162.2 L 128.6 169.6 L 127.6 169.6 L 127.6 166.2 L 123.8 166.2 L 123.8 169.6 L 122.8 169.6 L 122.8 162.2 " fill="#FF0000"/>
<path class="atom-38" d="M 27.9 142.7 Q 27.9 140.9, 28.8 139.9 Q 29.6 139.0, 31.3 139.0 Q 32.9 139.0, 33.8 139.9 Q 34.6 140.9, 34.6 142.7 Q 34.6 144.5, 33.8 145.5 Q 32.9 146.5, 31.3 146.5 Q 29.6 146.5, 28.8 145.5 Q 27.9 144.5, 27.9 142.7 M 31.3 145.7 Q 32.4 145.7, 33.0 144.9 Q 33.6 144.2, 33.6 142.7 Q 33.6 141.3, 33.0 140.5 Q 32.4 139.8, 31.3 139.8 Q 30.1 139.8, 29.5 140.5 Q 28.9 141.2, 28.9 142.7 Q 28.9 144.2, 29.5 144.9 Q 30.1 145.7, 31.3 145.7 " fill="#FF0000"/>
<path class="atom-39" d="M 39.6 186.2 Q 39.6 184.4, 40.5 183.4 Q 41.3 182.4, 43.0 182.4 Q 44.6 182.4, 45.5 183.4 Q 46.4 184.4, 46.4 186.2 Q 46.4 188.0, 45.5 189.0 Q 44.6 190.0, 43.0 190.0 Q 41.4 190.0, 40.5 189.0 Q 39.6 188.0, 39.6 186.2 M 43.0 189.2 Q 44.1 189.2, 44.7 188.4 Q 45.3 187.7, 45.3 186.2 Q 45.3 184.7, 44.7 184.0 Q 44.1 183.3, 43.0 183.3 Q 41.9 183.3, 41.2 184.0 Q 40.6 184.7, 40.6 186.2 Q 40.6 187.7, 41.2 188.4 Q 41.9 189.2, 43.0 189.2 " fill="#FF0000"/>
<path class="atom-39" d="M 47.5 182.5 L 48.5 182.5 L 48.5 185.7 L 52.3 185.7 L 52.3 182.5 L 53.3 182.5 L 53.3 189.9 L 52.3 189.9 L 52.3 186.5 L 48.5 186.5 L 48.5 189.9 L 47.5 189.9 L 47.5 182.5 " fill="#FF0000"/>
<path class="atom-41" d="M 56.0 74.0 Q 56.0 72.3, 56.9 71.3 Q 57.8 70.3, 59.4 70.3 Q 61.0 70.3, 61.9 71.3 Q 62.8 72.3, 62.8 74.0 Q 62.8 75.8, 61.9 76.9 Q 61.0 77.9, 59.4 77.9 Q 57.8 77.9, 56.9 76.9 Q 56.0 75.8, 56.0 74.0 M 59.4 77.0 Q 60.5 77.0, 61.1 76.3 Q 61.7 75.5, 61.7 74.0 Q 61.7 72.6, 61.1 71.9 Q 60.5 71.1, 59.4 71.1 Q 58.3 71.1, 57.7 71.9 Q 57.1 72.6, 57.1 74.0 Q 57.1 75.5, 57.7 76.3 Q 58.3 77.0, 59.4 77.0 " fill="#FF0000"/>
<path class="atom-42" d="M 37.0 26.9 L 38.0 26.9 L 38.0 30.0 L 41.8 30.0 L 41.8 26.9 L 42.8 26.9 L 42.8 34.3 L 41.8 34.3 L 41.8 30.9 L 38.0 30.9 L 38.0 34.3 L 37.0 34.3 L 37.0 26.9 " fill="#FF0000"/>
<path class="atom-42" d="M 44.3 30.6 Q 44.3 28.8, 45.2 27.8 Q 46.1 26.8, 47.7 26.8 Q 49.3 26.8, 50.2 27.8 Q 51.1 28.8, 51.1 30.6 Q 51.1 32.3, 50.2 33.4 Q 49.3 34.4, 47.7 34.4 Q 46.1 34.4, 45.2 33.4 Q 44.3 32.4, 44.3 30.6 M 47.7 33.5 Q 48.8 33.5, 49.4 32.8 Q 50.0 32.0, 50.0 30.6 Q 50.0 29.1, 49.4 28.4 Q 48.8 27.6, 47.7 27.6 Q 46.6 27.6, 46.0 28.4 Q 45.4 29.1, 45.4 30.6 Q 45.4 32.0, 46.0 32.8 Q 46.6 33.5, 47.7 33.5 " fill="#FF0000"/>
<path class="atom-44" d="M 305.3 30.2 Q 305.3 28.4, 306.2 27.4 Q 307.1 26.4, 308.7 26.4 Q 310.3 26.4, 311.2 27.4 Q 312.1 28.4, 312.1 30.2 Q 312.1 32.0, 311.2 33.0 Q 310.3 34.0, 308.7 34.0 Q 307.1 34.0, 306.2 33.0 Q 305.3 32.0, 305.3 30.2 M 308.7 33.2 Q 309.8 33.2, 310.4 32.4 Q 311.0 31.7, 311.0 30.2 Q 311.0 28.7, 310.4 28.0 Q 309.8 27.3, 308.7 27.3 Q 307.6 27.3, 307.0 28.0 Q 306.4 28.7, 306.4 30.2 Q 306.4 31.7, 307.0 32.4 Q 307.6 33.2, 308.7 33.2 " fill="#FF0000"/>
<path class="atom-45" d="M 293.7 73.7 Q 293.7 71.9, 294.6 71.0 Q 295.5 70.0, 297.1 70.0 Q 298.7 70.0, 299.6 71.0 Q 300.5 71.9, 300.5 73.7 Q 300.5 75.5, 299.6 76.5 Q 298.7 77.5, 297.1 77.5 Q 295.5 77.5, 294.6 76.5 Q 293.7 75.5, 293.7 73.7 M 297.1 76.7 Q 298.2 76.7, 298.8 75.9 Q 299.4 75.2, 299.4 73.7 Q 299.4 72.3, 298.8 71.5 Q 298.2 70.8, 297.1 70.8 Q 296.0 70.8, 295.4 71.5 Q 294.8 72.3, 294.8 73.7 Q 294.8 75.2, 295.4 75.9 Q 296.0 76.7, 297.1 76.7 " fill="#FF0000"/>
<path class="atom-45" d="M 301.6 70.0 L 302.6 70.0 L 302.6 73.2 L 306.4 73.2 L 306.4 70.0 L 307.4 70.0 L 307.4 77.4 L 306.4 77.4 L 306.4 74.0 L 302.6 74.0 L 302.6 77.4 L 301.6 77.4 L 301.6 70.0 " fill="#FF0000"/>
</svg>
