<?xml version='1.0' encoding='ASCII' standalone='yes'?>
<svg xmlns="http://www.w3.org/2000/svg" xmlns:rdkit="http://www.rdkit.org/xml" xmlns:xlink="http://www.w3.org/1999/xlink" version="1.1" baseProfile="full" xml:space="preserve" width="349px" height="200px" viewBox="0 0 349 200">
<!-- END OF HEADER -->
<rect style="opacity:1.0;fill:#FFFFFF;stroke:none" width="349.0" height="200.0" x="0.0" y="0.0"> </rect>
<path class="bond-0 atom-0 atom-1" d="M 113.9,186.0 L 111.5,166.9" style="fill:none;fill-rule:evenodd;stroke:#000000;stroke-width:2.0px;stroke-linecap:butt;stroke-linejoin:miter;stroke-opacity:1"/>
<path class="bond-1 atom-1 atom-2" d="M 111.5,166.9 L 130.6,164.4" style="fill:none;fill-rule:evenodd;stroke:#000000;stroke-width:2.0px;stroke-linecap:butt;stroke-linejoin:miter;stroke-opacity:1"/>
<path class="bond-2 atom-2 atom-3" d="M 130.6,164.4 L 133.6,157.3" style="fill:none;fill-rule:evenodd;stroke:#000000;stroke-width:2.0px;stroke-linecap:butt;stroke-linejoin:miter;stroke-opacity:1"/>
<path class="bond-2 atom-2 atom-3" d="M 133.6,157.3 L 136.6,150.1" style="fill:none;fill-rule:evenodd;stroke:#FF0000;stroke-width:2.0px;stroke-linecap:butt;stroke-linejoin:miter;stroke-opacity:1"/>
<path class="bond-3 atom-1 atom-4" d="M 111.5,166.9 L 109.0,147.8" style="fill:none;fill-rule:evenodd;stroke:#000000;stroke-width:2.0px;stroke-linecap:butt;stroke-linejoin:miter;stroke-opacity:1"/>
<path class="bond-4 atom-4 atom-5" d="M 109.0,147.8 L 124.4,136.1" style="fill:none;fill-rule:evenodd;stroke:#000000;stroke-width:2.0px;stroke-linecap:butt;stroke-linejoin:miter;stroke-opacity:1"/>
<path class="bond-5 atom-5 atom-6" d="M 124.4,136.1 L 121.9,116.9" style="fill:none;fill-rule:evenodd;stroke:#000000;stroke-width:2.0px;stroke-linecap:butt;stroke-linejoin:miter;stroke-opacity:1"/>
<path class="bond-6 atom-6 atom-7" d="M 121.9,116.9 L 137.2,105.2" style="fill:none;fill-rule:evenodd;stroke:#000000;stroke-width:2.0px;stroke-linecap:butt;stroke-linejoin:miter;stroke-opacity:1"/>
<path class="bond-7 atom-7 atom-8" d="M 137.2,105.2 L 148.9,120.6" style="fill:none;fill-rule:evenodd;stroke:#000000;stroke-width:2.0px;stroke-linecap:butt;stroke-linejoin:miter;stroke-opacity:1"/>
<path class="bond-8 atom-8 atom-9" d="M 148.9,120.6 L 156.9,119.6" style="fill:none;fill-rule:evenodd;stroke:#000000;stroke-width:2.0px;stroke-linecap:butt;stroke-linejoin:miter;stroke-opacity:1"/>
<path class="bond-8 atom-8 atom-9" d="M 156.9,119.6 L 164.9,118.5" style="fill:none;fill-rule:evenodd;stroke:#FF0000;stroke-width:2.0px;stroke-linecap:butt;stroke-linejoin:miter;stroke-opacity:1"/>
<path class="bond-9 atom-7 atom-10" d="M 137.2,105.2 L 125.6,89.9" style="fill:none;fill-rule:evenodd;stroke:#000000;stroke-width:2.0px;stroke-linecap:butt;stroke-linejoin:miter;stroke-opacity:1"/>
<path class="bond-10 atom-10 atom-11" d="M 126.2,88.4 L 117.8,89.4" style="fill:none;fill-rule:evenodd;stroke:#000000;stroke-width:2.0px;stroke-linecap:butt;stroke-linejoin:miter;stroke-opacity:1"/>
<path class="bond-10 atom-10 atom-11" d="M 117.8,89.4 L 109.4,90.5" style="fill:none;fill-rule:evenodd;stroke:#FF0000;stroke-width:2.0px;stroke-linecap:butt;stroke-linejoin:miter;stroke-opacity:1"/>
<path class="bond-10 atom-10 atom-11" d="M 126.6,91.2 L 118.2,92.3" style="fill:none;fill-rule:evenodd;stroke:#000000;stroke-width:2.0px;stroke-linecap:butt;stroke-linejoin:miter;stroke-opacity:1"/>
<path class="bond-10 atom-10 atom-11" d="M 118.2,92.3 L 109.7,93.4" style="fill:none;fill-rule:evenodd;stroke:#FF0000;stroke-width:2.0px;stroke-linecap:butt;stroke-linejoin:miter;stroke-opacity:1"/>
<path class="bond-11 atom-10 atom-12" d="M 125.6,89.9 L 128.5,82.7" style="fill:none;fill-rule:evenodd;stroke:#000000;stroke-width:2.0px;stroke-linecap:butt;stroke-linejoin:miter;stroke-opacity:1"/>
<path class="bond-11 atom-10 atom-12" d="M 128.5,82.7 L 131.5,75.6" style="fill:none;fill-rule:evenodd;stroke:#FF0000;stroke-width:2.0px;stroke-linecap:butt;stroke-linejoin:miter;stroke-opacity:1"/>
<path class="bond-12 atom-7 atom-13" d="M 137.2,105.2 L 152.6,93.6" style="fill:none;fill-rule:evenodd;stroke:#000000;stroke-width:2.0px;stroke-linecap:butt;stroke-linejoin:miter;stroke-opacity:1"/>
<path class="bond-13 atom-13 atom-14" d="M 152.6,93.6 L 170.4,101.0" style="fill:none;fill-rule:evenodd;stroke:#000000;stroke-width:2.0px;stroke-linecap:butt;stroke-linejoin:miter;stroke-opacity:1"/>
<path class="bond-14 atom-14 atom-15" d="M 170.4,101.0 L 185.7,89.3" style="fill:none;fill-rule:evenodd;stroke:#000000;stroke-width:2.0px;stroke-linecap:butt;stroke-linejoin:miter;stroke-opacity:1"/>
<path class="bond-15 atom-15 atom-16" d="M 185.7,89.3 L 203.5,96.7" style="fill:none;fill-rule:evenodd;stroke:#000000;stroke-width:2.0px;stroke-linecap:butt;stroke-linejoin:miter;stroke-opacity:1"/>
<path class="bond-16 atom-16 atom-17" d="M 203.5,96.7 L 196.1,114.5" style="fill:none;fill-rule:evenodd;stroke:#000000;stroke-width:2.0px;stroke-linecap:butt;stroke-linejoin:miter;stroke-opacity:1"/>
<path class="bond-17 atom-17 atom-18" d="M 196.1,114.5 L 200.6,120.5" style="fill:none;fill-rule:evenodd;stroke:#000000;stroke-width:2.0px;stroke-linecap:butt;stroke-linejoin:miter;stroke-opacity:1"/>
<path class="bond-17 atom-17 atom-18" d="M 200.6,120.5 L 205.2,126.5" style="fill:none;fill-rule:evenodd;stroke:#FF0000;stroke-width:2.0px;stroke-linecap:butt;stroke-linejoin:miter;stroke-opacity:1"/>
<path class="bond-18 atom-16 atom-19" d="M 203.5,96.7 L 221.3,104.2" style="fill:none;fill-rule:evenodd;stroke:#000000;stroke-width:2.0px;stroke-linecap:butt;stroke-linejoin:miter;stroke-opacity:1"/>
<path class="bond-19 atom-19 atom-20" d="M 221.3,104.2 L 223.8,123.3" style="fill:none;fill-rule:evenodd;stroke:#000000;stroke-width:2.0px;stroke-linecap:butt;stroke-linejoin:miter;stroke-opacity:1"/>
<path class="bond-20 atom-20 atom-21" d="M 223.8,123.3 L 241.6,130.8" style="fill:none;fill-rule:evenodd;stroke:#000000;stroke-width:2.0px;stroke-linecap:butt;stroke-linejoin:miter;stroke-opacity:1"/>
<path class="bond-21 atom-21 atom-22" d="M 241.6,130.8 L 244.0,149.9" style="fill:none;fill-rule:evenodd;stroke:#000000;stroke-width:2.0px;stroke-linecap:butt;stroke-linejoin:miter;stroke-opacity:1"/>
<path class="bond-22 atom-22 atom-23" d="M 244.0,149.9 L 224.9,152.4" style="fill:none;fill-rule:evenodd;stroke:#000000;stroke-width:2.0px;stroke-linecap:butt;stroke-linejoin:miter;stroke-opacity:1"/>
<path class="bond-23 atom-22 atom-24" d="M 244.0,149.9 L 263.2,147.5" style="fill:none;fill-rule:evenodd;stroke:#000000;stroke-width:2.0px;stroke-linecap:butt;stroke-linejoin:miter;stroke-opacity:1"/>
<path class="bond-24 atom-22 atom-25" d="M 244.0,149.9 L 246.5,169.0" style="fill:none;fill-rule:evenodd;stroke:#000000;stroke-width:2.0px;stroke-linecap:butt;stroke-linejoin:miter;stroke-opacity:1"/>
<path class="bond-25 atom-25 atom-26" d="M 246.5,169.0 L 240.4,173.7" style="fill:none;fill-rule:evenodd;stroke:#000000;stroke-width:2.0px;stroke-linecap:butt;stroke-linejoin:miter;stroke-opacity:1"/>
<path class="bond-25 atom-25 atom-26" d="M 240.4,173.7 L 234.3,178.3" style="fill:none;fill-rule:evenodd;stroke:#FF0000;stroke-width:2.0px;stroke-linecap:butt;stroke-linejoin:miter;stroke-opacity:1"/>
<path class="bond-26 atom-25 atom-27" d="M 246.5,169.0 L 253.8,172.1" style="fill:none;fill-rule:evenodd;stroke:#000000;stroke-width:2.0px;stroke-linecap:butt;stroke-linejoin:miter;stroke-opacity:1"/>
<path class="bond-26 atom-25 atom-27" d="M 253.8,172.1 L 261.1,175.2" style="fill:none;fill-rule:evenodd;stroke:#FF0000;stroke-width:2.0px;stroke-linecap:butt;stroke-linejoin:miter;stroke-opacity:1"/>
<path class="bond-27 atom-16 atom-28" d="M 203.5,96.7 L 211.0,79.0" style="fill:none;fill-rule:evenodd;stroke:#000000;stroke-width:2.0px;stroke-linecap:butt;stroke-linejoin:miter;stroke-opacity:1"/>
<path class="bond-28 atom-28 atom-29" d="M 212.6,78.7 L 207.9,72.5" style="fill:none;fill-rule:evenodd;stroke:#000000;stroke-width:2.0px;stroke-linecap:butt;stroke-linejoin:miter;stroke-opacity:1"/>
<path class="bond-28 atom-28 atom-29" d="M 207.9,72.5 L 203.1,66.2" style="fill:none;fill-rule:evenodd;stroke:#FF0000;stroke-width:2.0px;stroke-linecap:butt;stroke-linejoin:miter;stroke-opacity:1"/>
<path class="bond-28 atom-28 atom-29" d="M 210.3,80.5 L 205.6,74.2" style="fill:none;fill-rule:evenodd;stroke:#000000;stroke-width:2.0px;stroke-linecap:butt;stroke-linejoin:miter;stroke-opacity:1"/>
<path class="bond-28 atom-28 atom-29" d="M 205.6,74.2 L 200.8,68.0" style="fill:none;fill-rule:evenodd;stroke:#FF0000;stroke-width:2.0px;stroke-linecap:butt;stroke-linejoin:miter;stroke-opacity:1"/>
<path class="bond-29 atom-28 atom-30" d="M 211.0,79.0 L 219.0,77.9" style="fill:none;fill-rule:evenodd;stroke:#000000;stroke-width:2.0px;stroke-linecap:butt;stroke-linejoin:miter;stroke-opacity:1"/>
<path class="bond-29 atom-28 atom-30" d="M 219.0,77.9 L 227.0,76.9" style="fill:none;fill-rule:evenodd;stroke:#FF0000;stroke-width:2.0px;stroke-linecap:butt;stroke-linejoin:miter;stroke-opacity:1"/>
<path class="bond-30 atom-13 atom-31" d="M 152.6,93.6 L 150.1,74.4" style="fill:none;fill-rule:evenodd;stroke:#000000;stroke-width:2.0px;stroke-linecap:butt;stroke-linejoin:miter;stroke-opacity:1"/>
<path class="bond-31 atom-31 atom-32" d="M 150.1,74.4 L 165.5,62.7" style="fill:none;fill-rule:evenodd;stroke:#000000;stroke-width:2.0px;stroke-linecap:butt;stroke-linejoin:miter;stroke-opacity:1"/>
<path class="bond-32 atom-32 atom-33" d="M 165.5,62.7 L 163.0,43.6" style="fill:none;fill-rule:evenodd;stroke:#000000;stroke-width:2.0px;stroke-linecap:butt;stroke-linejoin:miter;stroke-opacity:1"/>
<path class="bond-33 atom-33 atom-34" d="M 163.0,43.6 L 143.9,46.0" style="fill:none;fill-rule:evenodd;stroke:#000000;stroke-width:2.0px;stroke-linecap:butt;stroke-linejoin:miter;stroke-opacity:1"/>
<path class="bond-34 atom-33 atom-35" d="M 163.0,43.6 L 182.2,41.1" style="fill:none;fill-rule:evenodd;stroke:#000000;stroke-width:2.0px;stroke-linecap:butt;stroke-linejoin:miter;stroke-opacity:1"/>
<path class="bond-35 atom-33 atom-36" d="M 163.0,43.6 L 160.6,24.5" style="fill:none;fill-rule:evenodd;stroke:#000000;stroke-width:2.0px;stroke-linecap:butt;stroke-linejoin:miter;stroke-opacity:1"/>
<path class="bond-36 atom-36 atom-37" d="M 160.6,24.5 L 153.3,21.4" style="fill:none;fill-rule:evenodd;stroke:#000000;stroke-width:2.0px;stroke-linecap:butt;stroke-linejoin:miter;stroke-opacity:1"/>
<path class="bond-36 atom-36 atom-37" d="M 153.3,21.4 L 145.9,18.3" style="fill:none;fill-rule:evenodd;stroke:#FF0000;stroke-width:2.0px;stroke-linecap:butt;stroke-linejoin:miter;stroke-opacity:1"/>
<path class="bond-37 atom-36 atom-38" d="M 160.6,24.5 L 166.7,19.8" style="fill:none;fill-rule:evenodd;stroke:#000000;stroke-width:2.0px;stroke-linecap:butt;stroke-linejoin:miter;stroke-opacity:1"/>
<path class="bond-37 atom-36 atom-38" d="M 166.7,19.8 L 172.8,15.2" style="fill:none;fill-rule:evenodd;stroke:#FF0000;stroke-width:2.0px;stroke-linecap:butt;stroke-linejoin:miter;stroke-opacity:1"/>
<path class="bond-38 atom-1 atom-39" d="M 111.5,166.9 L 92.3,169.4" style="fill:none;fill-rule:evenodd;stroke:#000000;stroke-width:2.0px;stroke-linecap:butt;stroke-linejoin:miter;stroke-opacity:1"/>
<path class="bond-39 atom-39 atom-40" d="M 94.0,169.1 L 89.2,162.9" style="fill:none;fill-rule:evenodd;stroke:#000000;stroke-width:2.0px;stroke-linecap:butt;stroke-linejoin:miter;stroke-opacity:1"/>
<path class="bond-39 atom-39 atom-40" d="M 89.2,162.9 L 84.4,156.6" style="fill:none;fill-rule:evenodd;stroke:#FF0000;stroke-width:2.0px;stroke-linecap:butt;stroke-linejoin:miter;stroke-opacity:1"/>
<path class="bond-39 atom-39 atom-40" d="M 91.7,170.9 L 86.9,164.6" style="fill:none;fill-rule:evenodd;stroke:#000000;stroke-width:2.0px;stroke-linecap:butt;stroke-linejoin:miter;stroke-opacity:1"/>
<path class="bond-39 atom-39 atom-40" d="M 86.9,164.6 L 82.1,158.4" style="fill:none;fill-rule:evenodd;stroke:#FF0000;stroke-width:2.0px;stroke-linecap:butt;stroke-linejoin:miter;stroke-opacity:1"/>
<path class="bond-40 atom-39 atom-41" d="M 92.3,169.4 L 89.3,176.6" style="fill:none;fill-rule:evenodd;stroke:#000000;stroke-width:2.0px;stroke-linecap:butt;stroke-linejoin:miter;stroke-opacity:1"/>
<path class="bond-40 atom-39 atom-41" d="M 89.3,176.6 L 86.3,183.8" style="fill:none;fill-rule:evenodd;stroke:#FF0000;stroke-width:2.0px;stroke-linecap:butt;stroke-linejoin:miter;stroke-opacity:1"/>
<path d="M 129.6,164.6 L 130.6,164.4 L 130.7,164.1" style="fill:none;stroke:#000000;stroke-width:2.0px;stroke-linecap:butt;stroke-linejoin:miter;stroke-opacity:1;"/>
<path d="M 109.1,148.7 L 109.0,147.8 L 109.8,147.2" style="fill:none;stroke:#000000;stroke-width:2.0px;stroke-linecap:butt;stroke-linejoin:miter;stroke-opacity:1;"/>
<path d="M 123.6,136.7 L 124.4,136.1 L 124.2,135.1" style="fill:none;stroke:#000000;stroke-width:2.0px;stroke-linecap:butt;stroke-linejoin:miter;stroke-opacity:1;"/>
<path d="M 122.0,117.9 L 121.9,116.9 L 122.7,116.4" style="fill:none;stroke:#000000;stroke-width:2.0px;stroke-linecap:butt;stroke-linejoin:miter;stroke-opacity:1;"/>
<path d="M 148.4,119.8 L 148.9,120.6 L 149.3,120.5" style="fill:none;stroke:#000000;stroke-width:2.0px;stroke-linecap:butt;stroke-linejoin:miter;stroke-opacity:1;"/>
<path d="M 126.1,90.7 L 125.6,89.9 L 125.7,89.5" style="fill:none;stroke:#000000;stroke-width:2.0px;stroke-linecap:butt;stroke-linejoin:miter;stroke-opacity:1;"/>
<path d="M 169.5,100.6 L 170.4,101.0 L 171.2,100.4" style="fill:none;stroke:#000000;stroke-width:2.0px;stroke-linecap:butt;stroke-linejoin:miter;stroke-opacity:1;"/>
<path d="M 185.0,89.9 L 185.7,89.3 L 186.6,89.7" style="fill:none;stroke:#000000;stroke-width:2.0px;stroke-linecap:butt;stroke-linejoin:miter;stroke-opacity:1;"/>
<path d="M 196.5,113.7 L 196.1,114.5 L 196.3,114.8" style="fill:none;stroke:#000000;stroke-width:2.0px;stroke-linecap:butt;stroke-linejoin:miter;stroke-opacity:1;"/>
<path d="M 220.4,103.8 L 221.3,104.2 L 221.5,105.1" style="fill:none;stroke:#000000;stroke-width:2.0px;stroke-linecap:butt;stroke-linejoin:miter;stroke-opacity:1;"/>
<path d="M 223.7,122.4 L 223.8,123.3 L 224.7,123.7" style="fill:none;stroke:#000000;stroke-width:2.0px;stroke-linecap:butt;stroke-linejoin:miter;stroke-opacity:1;"/>
<path d="M 240.7,130.4 L 241.6,130.8 L 241.7,131.7" style="fill:none;stroke:#000000;stroke-width:2.0px;stroke-linecap:butt;stroke-linejoin:miter;stroke-opacity:1;"/>
<path d="M 210.6,79.8 L 211.0,79.0 L 211.4,78.9" style="fill:none;stroke:#000000;stroke-width:2.0px;stroke-linecap:butt;stroke-linejoin:miter;stroke-opacity:1;"/>
<path d="M 150.3,75.4 L 150.1,74.4 L 150.9,73.8" style="fill:none;stroke:#000000;stroke-width:2.0px;stroke-linecap:butt;stroke-linejoin:miter;stroke-opacity:1;"/>
<path d="M 164.7,63.3 L 165.5,62.7 L 165.4,61.8" style="fill:none;stroke:#000000;stroke-width:2.0px;stroke-linecap:butt;stroke-linejoin:miter;stroke-opacity:1;"/>
<path d="M 93.3,169.2 L 92.3,169.4 L 92.2,169.7" style="fill:none;stroke:#000000;stroke-width:2.0px;stroke-linecap:butt;stroke-linejoin:miter;stroke-opacity:1;"/>
<path class="atom-3" d="M 135.5 146.7 Q 135.5 145.4, 136.2 144.6 Q 136.8 143.9, 138.0 143.9 Q 139.3 143.9, 139.9 144.6 Q 140.5 145.4, 140.5 146.7 Q 140.5 148.0, 139.9 148.7 Q 139.2 149.5, 138.0 149.5 Q 136.8 149.5, 136.2 148.7 Q 135.5 148.0, 135.5 146.7 M 138.0 148.9 Q 138.9 148.9, 139.3 148.3 Q 139.8 147.8, 139.8 146.7 Q 139.8 145.6, 139.3 145.1 Q 138.9 144.5, 138.0 144.5 Q 137.2 144.5, 136.8 145.0 Q 136.3 145.6, 136.3 146.7 Q 136.3 147.8, 136.8 148.3 Q 137.2 148.9, 138.0 148.9 " fill="#FF0000"/>
<path class="atom-3" d="M 141.4 143.9 L 142.1 143.9 L 142.1 146.3 L 144.9 146.3 L 144.9 143.9 L 145.7 143.9 L 145.7 149.4 L 144.9 149.4 L 144.9 146.9 L 142.1 146.9 L 142.1 149.4 L 141.4 149.4 L 141.4 143.9 " fill="#FF0000"/>
<path class="atom-9" d="M 165.6 118.2 Q 165.6 116.8, 166.2 116.1 Q 166.9 115.4, 168.1 115.4 Q 169.3 115.4, 169.9 116.1 Q 170.6 116.8, 170.6 118.2 Q 170.6 119.5, 169.9 120.2 Q 169.3 121.0, 168.1 121.0 Q 166.9 121.0, 166.2 120.2 Q 165.6 119.5, 165.6 118.2 M 168.1 120.4 Q 168.9 120.4, 169.4 119.8 Q 169.8 119.2, 169.8 118.2 Q 169.8 117.1, 169.4 116.5 Q 168.9 116.0, 168.1 116.0 Q 167.2 116.0, 166.8 116.5 Q 166.3 117.1, 166.3 118.2 Q 166.3 119.3, 166.8 119.8 Q 167.2 120.4, 168.1 120.4 " fill="#FF0000"/>
<path class="atom-9" d="M 171.4 115.4 L 172.2 115.4 L 172.2 117.8 L 175.0 117.8 L 175.0 115.4 L 175.7 115.4 L 175.7 120.9 L 175.0 120.9 L 175.0 118.4 L 172.2 118.4 L 172.2 120.9 L 171.4 120.9 L 171.4 115.4 " fill="#FF0000"/>
<path class="atom-11" d="M 103.9 92.4 Q 103.9 91.1, 104.6 90.3 Q 105.2 89.6, 106.4 89.6 Q 107.6 89.6, 108.3 90.3 Q 108.9 91.1, 108.9 92.4 Q 108.9 93.7, 108.3 94.5 Q 107.6 95.2, 106.4 95.2 Q 105.2 95.2, 104.6 94.5 Q 103.9 93.7, 103.9 92.4 M 106.4 94.6 Q 107.3 94.6, 107.7 94.0 Q 108.2 93.5, 108.2 92.4 Q 108.2 91.3, 107.7 90.8 Q 107.3 90.2, 106.4 90.2 Q 105.6 90.2, 105.1 90.7 Q 104.7 91.3, 104.7 92.4 Q 104.7 93.5, 105.1 94.0 Q 105.6 94.6, 106.4 94.6 " fill="#FF0000"/>
<path class="atom-12" d="M 130.5 72.1 Q 130.5 70.8, 131.1 70.1 Q 131.8 69.3, 133.0 69.3 Q 134.2 69.3, 134.9 70.1 Q 135.5 70.8, 135.5 72.1 Q 135.5 73.4, 134.8 74.2 Q 134.2 74.9, 133.0 74.9 Q 131.8 74.9, 131.1 74.2 Q 130.5 73.5, 130.5 72.1 M 133.0 74.3 Q 133.8 74.3, 134.3 73.8 Q 134.7 73.2, 134.7 72.1 Q 134.7 71.0, 134.3 70.5 Q 133.8 70.0, 133.0 70.0 Q 132.2 70.0, 131.7 70.5 Q 131.3 71.0, 131.3 72.1 Q 131.3 73.2, 131.7 73.8 Q 132.2 74.3, 133.0 74.3 " fill="#FF0000"/>
<path class="atom-12" d="M 136.4 69.4 L 137.1 69.4 L 137.1 71.7 L 139.9 71.7 L 139.9 69.4 L 140.6 69.4 L 140.6 74.9 L 139.9 74.9 L 139.9 72.3 L 137.1 72.3 L 137.1 74.9 L 136.4 74.9 L 136.4 69.4 " fill="#FF0000"/>
<path class="atom-18" d="M 205.3 129.9 Q 205.3 128.6, 205.9 127.9 Q 206.6 127.1, 207.8 127.1 Q 209.0 127.1, 209.6 127.9 Q 210.3 128.6, 210.3 129.9 Q 210.3 131.2, 209.6 132.0 Q 209.0 132.7, 207.8 132.7 Q 206.6 132.7, 205.9 132.0 Q 205.3 131.2, 205.3 129.9 M 207.8 132.1 Q 208.6 132.1, 209.1 131.6 Q 209.5 131.0, 209.5 129.9 Q 209.5 128.8, 209.1 128.3 Q 208.6 127.7, 207.8 127.7 Q 206.9 127.7, 206.5 128.3 Q 206.0 128.8, 206.0 129.9 Q 206.0 131.0, 206.5 131.6 Q 206.9 132.1, 207.8 132.1 " fill="#FF0000"/>
<path class="atom-18" d="M 211.1 127.2 L 211.9 127.2 L 211.9 129.5 L 214.7 129.5 L 214.7 127.2 L 215.4 127.2 L 215.4 132.7 L 214.7 132.7 L 214.7 130.1 L 211.9 130.1 L 211.9 132.7 L 211.1 132.7 L 211.1 127.2 " fill="#FF0000"/>
<path class="atom-26" d="M 223.2 178.0 L 224.0 178.0 L 224.0 180.4 L 226.8 180.4 L 226.8 178.0 L 227.5 178.0 L 227.5 183.5 L 226.8 183.5 L 226.8 181.0 L 224.0 181.0 L 224.0 183.5 L 223.2 183.5 L 223.2 178.0 " fill="#FF0000"/>
<path class="atom-26" d="M 228.6 180.8 Q 228.6 179.4, 229.3 178.7 Q 229.9 178.0, 231.1 178.0 Q 232.4 178.0, 233.0 178.7 Q 233.7 179.4, 233.7 180.8 Q 233.7 182.1, 233.0 182.8 Q 232.3 183.6, 231.1 183.6 Q 229.9 183.6, 229.3 182.8 Q 228.6 182.1, 228.6 180.8 M 231.1 183.0 Q 232.0 183.0, 232.4 182.4 Q 232.9 181.8, 232.9 180.8 Q 232.9 179.7, 232.4 179.1 Q 232.0 178.6, 231.1 178.6 Q 230.3 178.6, 229.9 179.1 Q 229.4 179.7, 229.4 180.8 Q 229.4 181.9, 229.9 182.4 Q 230.3 183.0, 231.1 183.0 " fill="#FF0000"/>
<path class="atom-27" d="M 261.8 176.5 Q 261.8 175.2, 262.4 174.5 Q 263.1 173.7, 264.3 173.7 Q 265.5 173.7, 266.1 174.5 Q 266.8 175.2, 266.8 176.5 Q 266.8 177.8, 266.1 178.6 Q 265.5 179.3, 264.3 179.3 Q 263.1 179.3, 262.4 178.6 Q 261.8 177.8, 261.8 176.5 M 264.3 178.7 Q 265.1 178.7, 265.6 178.2 Q 266.0 177.6, 266.0 176.5 Q 266.0 175.4, 265.6 174.9 Q 265.1 174.3, 264.3 174.3 Q 263.5 174.3, 263.0 174.9 Q 262.6 175.4, 262.6 176.5 Q 262.6 177.6, 263.0 178.2 Q 263.5 178.7, 264.3 178.7 " fill="#FF0000"/>
<path class="atom-27" d="M 267.6 173.8 L 268.4 173.8 L 268.4 176.1 L 271.2 176.1 L 271.2 173.8 L 271.9 173.8 L 271.9 179.2 L 271.2 179.2 L 271.2 176.7 L 268.4 176.7 L 268.4 179.2 L 267.6 179.2 L 267.6 173.8 " fill="#FF0000"/>
<path class="atom-29" d="M 196.8 63.6 Q 196.8 62.3, 197.4 61.6 Q 198.1 60.8, 199.3 60.8 Q 200.5 60.8, 201.1 61.6 Q 201.8 62.3, 201.8 63.6 Q 201.8 64.9, 201.1 65.7 Q 200.5 66.5, 199.3 66.5 Q 198.1 66.5, 197.4 65.7 Q 196.8 65.0, 196.8 63.6 M 199.3 65.8 Q 200.1 65.8, 200.6 65.3 Q 201.0 64.7, 201.0 63.6 Q 201.0 62.5, 200.6 62.0 Q 200.1 61.5, 199.3 61.5 Q 198.5 61.5, 198.0 62.0 Q 197.5 62.5, 197.5 63.6 Q 197.5 64.7, 198.0 65.3 Q 198.5 65.8, 199.3 65.8 " fill="#FF0000"/>
<path class="atom-30" d="M 227.6 76.5 Q 227.6 75.2, 228.3 74.5 Q 228.9 73.7, 230.1 73.7 Q 231.3 73.7, 232.0 74.5 Q 232.6 75.2, 232.6 76.5 Q 232.6 77.8, 232.0 78.6 Q 231.3 79.3, 230.1 79.3 Q 228.9 79.3, 228.3 78.6 Q 227.6 77.8, 227.6 76.5 M 230.1 78.7 Q 230.9 78.7, 231.4 78.2 Q 231.8 77.6, 231.8 76.5 Q 231.8 75.4, 231.4 74.9 Q 230.9 74.4, 230.1 74.4 Q 229.3 74.4, 228.8 74.9 Q 228.4 75.4, 228.4 76.5 Q 228.4 77.6, 228.8 78.2 Q 229.3 78.7, 230.1 78.7 " fill="#FF0000"/>
<path class="atom-30" d="M 233.5 73.8 L 234.2 73.8 L 234.2 76.1 L 237.0 76.1 L 237.0 73.8 L 237.7 73.8 L 237.7 79.3 L 237.0 79.3 L 237.0 76.7 L 234.2 76.7 L 234.2 79.3 L 233.5 79.3 L 233.5 73.8 " fill="#FF0000"/>
<path class="atom-37" d="M 134.9 14.3 L 135.6 14.3 L 135.6 16.6 L 138.4 16.6 L 138.4 14.3 L 139.2 14.3 L 139.2 19.8 L 138.4 19.8 L 138.4 17.3 L 135.6 17.3 L 135.6 19.8 L 134.9 19.8 L 134.9 14.3 " fill="#FF0000"/>
<path class="atom-37" d="M 140.3 17.0 Q 140.3 15.7, 140.9 15.0 Q 141.6 14.2, 142.8 14.2 Q 144.0 14.2, 144.6 15.0 Q 145.3 15.7, 145.3 17.0 Q 145.3 18.4, 144.6 19.1 Q 144.0 19.9, 142.8 19.9 Q 141.6 19.9, 140.9 19.1 Q 140.3 18.4, 140.3 17.0 M 142.8 19.2 Q 143.6 19.2, 144.1 18.7 Q 144.5 18.1, 144.5 17.0 Q 144.5 16.0, 144.1 15.4 Q 143.6 14.9, 142.8 14.9 Q 141.9 14.9, 141.5 15.4 Q 141.0 15.9, 141.0 17.0 Q 141.0 18.1, 141.5 18.7 Q 141.9 19.2, 142.8 19.2 " fill="#FF0000"/>
<path class="atom-38" d="M 173.4 12.8 Q 173.4 11.5, 174.1 10.7 Q 174.7 10.0, 175.9 10.0 Q 177.1 10.0, 177.8 10.7 Q 178.4 11.5, 178.4 12.8 Q 178.4 14.1, 177.8 14.9 Q 177.1 15.6, 175.9 15.6 Q 174.7 15.6, 174.1 14.9 Q 173.4 14.1, 173.4 12.8 M 175.9 15.0 Q 176.8 15.0, 177.2 14.4 Q 177.7 13.9, 177.7 12.8 Q 177.7 11.7, 177.2 11.2 Q 176.8 10.6, 175.9 10.6 Q 175.1 10.6, 174.6 11.2 Q 174.2 11.7, 174.2 12.8 Q 174.2 13.9, 174.6 14.4 Q 175.1 15.0, 175.9 15.0 " fill="#FF0000"/>
<path class="atom-38" d="M 179.3 10.1 L 180.0 10.1 L 180.0 12.4 L 182.8 12.4 L 182.8 10.1 L 183.6 10.1 L 183.6 15.5 L 182.8 15.5 L 182.8 13.0 L 180.0 13.0 L 180.0 15.5 L 179.3 15.5 L 179.3 10.1 " fill="#FF0000"/>
<path class="atom-40" d="M 78.1 154.0 Q 78.1 152.7, 78.8 152.0 Q 79.4 151.2, 80.6 151.2 Q 81.8 151.2, 82.5 152.0 Q 83.1 152.7, 83.1 154.0 Q 83.1 155.4, 82.5 156.1 Q 81.8 156.9, 80.6 156.9 Q 79.4 156.9, 78.8 156.1 Q 78.1 155.4, 78.1 154.0 M 80.6 156.2 Q 81.5 156.2, 81.9 155.7 Q 82.4 155.1, 82.4 154.0 Q 82.4 153.0, 81.9 152.4 Q 81.5 151.9, 80.6 151.9 Q 79.8 151.9, 79.3 152.4 Q 78.9 152.9, 78.9 154.0 Q 78.9 155.1, 79.3 155.7 Q 79.8 156.2, 80.6 156.2 " fill="#FF0000"/>
<path class="atom-41" d="M 77.0 184.5 L 77.7 184.5 L 77.7 186.8 L 80.5 186.8 L 80.5 184.5 L 81.3 184.5 L 81.3 189.9 L 80.5 189.9 L 80.5 187.4 L 77.7 187.4 L 77.7 189.9 L 77.0 189.9 L 77.0 184.5 " fill="#FF0000"/>
<path class="atom-41" d="M 82.4 187.2 Q 82.4 185.9, 83.0 185.1 Q 83.7 184.4, 84.9 184.4 Q 86.1 184.4, 86.7 185.1 Q 87.4 185.9, 87.4 187.2 Q 87.4 188.5, 86.7 189.3 Q 86.1 190.0, 84.9 190.0 Q 83.7 190.0, 83.0 189.3 Q 82.4 188.5, 82.4 187.2 M 84.9 189.4 Q 85.7 189.4, 86.2 188.8 Q 86.6 188.3, 86.6 187.2 Q 86.6 186.1, 86.2 185.6 Q 85.7 185.0, 84.9 185.0 Q 84.0 185.0, 83.6 185.5 Q 83.1 186.1, 83.1 187.2 Q 83.1 188.3, 83.6 188.8 Q 84.0 189.4, 84.9 189.4 " fill="#FF0000"/>
</svg>
