<?xml version='1.0' encoding='ASCII' standalone='yes'?>
<svg xmlns="http://www.w3.org/2000/svg" xmlns:rdkit="http://www.rdkit.org/xml" xmlns:xlink="http://www.w3.org/1999/xlink" version="1.1" baseProfile="full" xml:space="preserve" width="260px" height="200px" viewBox="0 0 260 200">
<!-- END OF HEADER -->
<rect style="opacity:1.0;fill:#FFFFFF;stroke:none" width="260.0" height="200.0" x="0.0" y="0.0"> </rect>
<path class="bond-0 atom-0 atom-1" d="M 31.3,87.7 L 73.9,99.9" style="fill:none;fill-rule:evenodd;stroke:#000000;stroke-width:2.0px;stroke-linecap:butt;stroke-linejoin:miter;stroke-opacity:1"/>
<path class="bond-1 atom-1 atom-2" d="M 73.9,99.9 L 86.1,57.3" style="fill:none;fill-rule:evenodd;stroke:#000000;stroke-width:2.0px;stroke-linecap:butt;stroke-linejoin:miter;stroke-opacity:1"/>
<path class="bond-2 atom-2 atom-3" d="M 86.1,57.3 L 74.3,45.1" style="fill:none;fill-rule:evenodd;stroke:#000000;stroke-width:2.0px;stroke-linecap:butt;stroke-linejoin:miter;stroke-opacity:1"/>
<path class="bond-2 atom-2 atom-3" d="M 74.3,45.1 L 62.5,32.9" style="fill:none;fill-rule:evenodd;stroke:#FF0000;stroke-width:2.0px;stroke-linecap:butt;stroke-linejoin:miter;stroke-opacity:1"/>
<path class="bond-3 atom-1 atom-4" d="M 73.9,99.9 L 116.6,112.1" style="fill:none;fill-rule:evenodd;stroke:#000000;stroke-width:2.0px;stroke-linecap:butt;stroke-linejoin:miter;stroke-opacity:1"/>
<path class="bond-4 atom-4 atom-5" d="M 116.6,112.1 L 148.4,81.2" style="fill:none;fill-rule:evenodd;stroke:#000000;stroke-width:2.0px;stroke-linecap:butt;stroke-linejoin:miter;stroke-opacity:1"/>
<path class="bond-5 atom-5 atom-6" d="M 148.4,81.2 L 144.0,63.7" style="fill:none;fill-rule:evenodd;stroke:#000000;stroke-width:2.0px;stroke-linecap:butt;stroke-linejoin:miter;stroke-opacity:1"/>
<path class="bond-5 atom-5 atom-6" d="M 144.0,63.7 L 139.7,46.2" style="fill:none;fill-rule:evenodd;stroke:#FF0000;stroke-width:2.0px;stroke-linecap:butt;stroke-linejoin:miter;stroke-opacity:1"/>
<path class="bond-6 atom-5 atom-7" d="M 148.4,81.2 L 191.1,93.4" style="fill:none;fill-rule:evenodd;stroke:#000000;stroke-width:2.0px;stroke-linecap:butt;stroke-linejoin:miter;stroke-opacity:1"/>
<path class="bond-7 atom-7 atom-8" d="M 191.1,93.4 L 178.9,136.0" style="fill:none;fill-rule:evenodd;stroke:#000000;stroke-width:2.0px;stroke-linecap:butt;stroke-linejoin:miter;stroke-opacity:1"/>
<path class="bond-8 atom-7 atom-9" d="M 191.1,93.4 L 203.2,50.8" style="fill:none;fill-rule:evenodd;stroke:#000000;stroke-width:2.0px;stroke-linecap:butt;stroke-linejoin:miter;stroke-opacity:1"/>
<path class="bond-9 atom-7 atom-10" d="M 191.1,93.4 L 233.7,105.6" style="fill:none;fill-rule:evenodd;stroke:#000000;stroke-width:2.0px;stroke-linecap:butt;stroke-linejoin:miter;stroke-opacity:1"/>
<path class="bond-10 atom-10 atom-11" d="M 233.7,105.6 L 238.1,123.2" style="fill:none;fill-rule:evenodd;stroke:#000000;stroke-width:2.0px;stroke-linecap:butt;stroke-linejoin:miter;stroke-opacity:1"/>
<path class="bond-10 atom-10 atom-11" d="M 238.1,123.2 L 242.5,140.8" style="fill:none;fill-rule:evenodd;stroke:#FF0000;stroke-width:2.0px;stroke-linecap:butt;stroke-linejoin:miter;stroke-opacity:1"/>
<path class="bond-10 atom-10 atom-11" d="M 228.2,110.9 L 231.6,124.8" style="fill:none;fill-rule:evenodd;stroke:#000000;stroke-width:2.0px;stroke-linecap:butt;stroke-linejoin:miter;stroke-opacity:1"/>
<path class="bond-10 atom-10 atom-11" d="M 231.6,124.8 L 236.1,142.4" style="fill:none;fill-rule:evenodd;stroke:#FF0000;stroke-width:2.0px;stroke-linecap:butt;stroke-linejoin:miter;stroke-opacity:1"/>
<path class="bond-11 atom-1 atom-12" d="M 73.9,99.9 L 61.8,142.5" style="fill:none;fill-rule:evenodd;stroke:#000000;stroke-width:2.0px;stroke-linecap:butt;stroke-linejoin:miter;stroke-opacity:1"/>
<path class="bond-12 atom-12 atom-13" d="M 62.8,138.8 L 44.0,143.6" style="fill:none;fill-rule:evenodd;stroke:#000000;stroke-width:2.0px;stroke-linecap:butt;stroke-linejoin:miter;stroke-opacity:1"/>
<path class="bond-12 atom-12 atom-13" d="M 44.0,143.6 L 25.2,148.3" style="fill:none;fill-rule:evenodd;stroke:#FF0000;stroke-width:2.0px;stroke-linecap:butt;stroke-linejoin:miter;stroke-opacity:1"/>
<path class="bond-12 atom-12 atom-13" d="M 64.4,145.3 L 45.6,150.0" style="fill:none;fill-rule:evenodd;stroke:#000000;stroke-width:2.0px;stroke-linecap:butt;stroke-linejoin:miter;stroke-opacity:1"/>
<path class="bond-12 atom-12 atom-13" d="M 45.6,150.0 L 26.8,154.7" style="fill:none;fill-rule:evenodd;stroke:#FF0000;stroke-width:2.0px;stroke-linecap:butt;stroke-linejoin:miter;stroke-opacity:1"/>
<path class="bond-13 atom-12 atom-14" d="M 61.8,142.5 L 73.6,154.7" style="fill:none;fill-rule:evenodd;stroke:#000000;stroke-width:2.0px;stroke-linecap:butt;stroke-linejoin:miter;stroke-opacity:1"/>
<path class="bond-13 atom-12 atom-14" d="M 73.6,154.7 L 85.4,166.9" style="fill:none;fill-rule:evenodd;stroke:#FF0000;stroke-width:2.0px;stroke-linecap:butt;stroke-linejoin:miter;stroke-opacity:1"/>
<path d="M 85.5,59.4 L 86.1,57.3 L 85.5,56.7" style="fill:none;stroke:#000000;stroke-width:2.0px;stroke-linecap:butt;stroke-linejoin:miter;stroke-opacity:1;"/>
<path d="M 114.4,111.5 L 116.6,112.1 L 118.2,110.5" style="fill:none;stroke:#000000;stroke-width:2.0px;stroke-linecap:butt;stroke-linejoin:miter;stroke-opacity:1;"/>
<path d="M 231.6,105.0 L 233.7,105.6 L 233.9,106.5" style="fill:none;stroke:#000000;stroke-width:2.0px;stroke-linecap:butt;stroke-linejoin:miter;stroke-opacity:1;"/>
<path d="M 62.4,140.4 L 61.8,142.5 L 62.4,143.1" style="fill:none;stroke:#000000;stroke-width:2.0px;stroke-linecap:butt;stroke-linejoin:miter;stroke-opacity:1;"/>
<path class="atom-3" d="M 37.1 19.2 L 38.8 19.2 L 38.8 24.5 L 45.2 24.5 L 45.2 19.2 L 46.9 19.2 L 46.9 31.8 L 45.2 31.8 L 45.2 26.0 L 38.8 26.0 L 38.8 31.8 L 37.1 31.8 L 37.1 19.2 " fill="#FF0000"/>
<path class="atom-3" d="M 49.5 25.5 Q 49.5 22.4, 51.0 20.8 Q 52.5 19.1, 55.3 19.1 Q 58.1 19.1, 59.6 20.8 Q 61.0 22.4, 61.0 25.5 Q 61.0 28.5, 59.5 30.2 Q 58.0 32.0, 55.3 32.0 Q 52.5 32.0, 51.0 30.2 Q 49.5 28.5, 49.5 25.5 M 55.3 30.5 Q 57.2 30.5, 58.2 29.3 Q 59.3 28.0, 59.3 25.5 Q 59.3 23.0, 58.2 21.7 Q 57.2 20.5, 55.3 20.5 Q 53.4 20.5, 52.3 21.7 Q 51.3 23.0, 51.3 25.5 Q 51.3 28.0, 52.3 29.3 Q 53.4 30.5, 55.3 30.5 " fill="#FF0000"/>
<path class="atom-6" d="M 131.9 38.3 Q 131.9 35.3, 133.4 33.6 Q 134.9 31.9, 137.7 31.9 Q 140.4 31.9, 141.9 33.6 Q 143.4 35.3, 143.4 38.3 Q 143.4 41.3, 141.9 43.1 Q 140.4 44.8, 137.7 44.8 Q 134.9 44.8, 133.4 43.1 Q 131.9 41.3, 131.9 38.3 M 137.7 43.4 Q 139.6 43.4, 140.6 42.1 Q 141.6 40.8, 141.6 38.3 Q 141.6 35.8, 140.6 34.6 Q 139.6 33.3, 137.7 33.3 Q 135.7 33.3, 134.7 34.5 Q 133.7 35.8, 133.7 38.3 Q 133.7 40.8, 134.7 42.1 Q 135.7 43.4, 137.7 43.4 " fill="#FF0000"/>
<path class="atom-6" d="M 145.4 32.0 L 147.1 32.0 L 147.1 37.4 L 153.5 37.4 L 153.5 32.0 L 155.2 32.0 L 155.2 44.6 L 153.5 44.6 L 153.5 38.8 L 147.1 38.8 L 147.1 44.6 L 145.4 44.6 L 145.4 32.0 " fill="#FF0000"/>
<path class="atom-11" d="M 235.5 149.4 Q 235.5 146.4, 237.0 144.7 Q 238.5 143.0, 241.2 143.0 Q 244.0 143.0, 245.5 144.7 Q 247.0 146.4, 247.0 149.4 Q 247.0 152.5, 245.5 154.2 Q 244.0 155.9, 241.2 155.9 Q 238.5 155.9, 237.0 154.2 Q 235.5 152.5, 235.5 149.4 M 241.2 154.5 Q 243.2 154.5, 244.2 153.2 Q 245.2 152.0, 245.2 149.4 Q 245.2 147.0, 244.2 145.7 Q 243.2 144.5, 241.2 144.5 Q 239.3 144.5, 238.3 145.7 Q 237.2 147.0, 237.2 149.4 Q 237.2 152.0, 238.3 153.2 Q 239.3 154.5, 241.2 154.5 " fill="#FF0000"/>
<path class="atom-13" d="M 13.0 153.3 Q 13.0 150.3, 14.5 148.6 Q 16.0 147.0, 18.8 147.0 Q 21.5 147.0, 23.0 148.6 Q 24.5 150.3, 24.5 153.3 Q 24.5 156.4, 23.0 158.1 Q 21.5 159.9, 18.8 159.9 Q 16.0 159.9, 14.5 158.1 Q 13.0 156.4, 13.0 153.3 M 18.8 158.4 Q 20.7 158.4, 21.7 157.2 Q 22.8 155.9, 22.8 153.3 Q 22.8 150.9, 21.7 149.6 Q 20.7 148.4, 18.8 148.4 Q 16.8 148.4, 15.8 149.6 Q 14.8 150.9, 14.8 153.3 Q 14.8 155.9, 15.8 157.2 Q 16.8 158.4, 18.8 158.4 " fill="#FF0000"/>
<path class="atom-14" d="M 86.8 174.4 Q 86.8 171.4, 88.3 169.7 Q 89.8 168.0, 92.6 168.0 Q 95.4 168.0, 96.9 169.7 Q 98.4 171.4, 98.4 174.4 Q 98.4 177.5, 96.9 179.2 Q 95.4 180.9, 92.6 180.9 Q 89.8 180.9, 88.3 179.2 Q 86.8 177.5, 86.8 174.4 M 92.6 179.5 Q 94.5 179.5, 95.5 178.2 Q 96.6 176.9, 96.6 174.4 Q 96.6 172.0, 95.5 170.7 Q 94.5 169.5, 92.6 169.5 Q 90.7 169.5, 89.6 170.7 Q 88.6 171.9, 88.6 174.4 Q 88.6 177.0, 89.6 178.2 Q 90.7 179.5, 92.6 179.5 " fill="#FF0000"/>
<path class="atom-14" d="M 100.3 168.2 L 102.0 168.2 L 102.0 173.5 L 108.4 173.5 L 108.4 168.2 L 110.1 168.2 L 110.1 180.7 L 108.4 180.7 L 108.4 174.9 L 102.0 174.9 L 102.0 180.7 L 100.3 180.7 L 100.3 168.2 " fill="#FF0000"/>
</svg>
