<?xml version='1.0' encoding='ASCII' standalone='yes'?>
<svg xmlns="http://www.w3.org/2000/svg" xmlns:rdkit="http://www.rdkit.org/xml" xmlns:xlink="http://www.w3.org/1999/xlink" version="1.1" baseProfile="full" xml:space="preserve" width="297px" height="200px" viewBox="0 0 297 200">
<!-- END OF HEADER -->
<rect style="opacity:1.0;fill:#FFFFFF;stroke:none" width="297.0" height="200.0" x="0.0" y="0.0"> </rect>
<path class="bond-0 atom-0 atom-1" d="M 157.9,10.0 L 151.0,21.4" style="fill:none;fill-rule:evenodd;stroke:#000000;stroke-width:2.0px;stroke-linecap:butt;stroke-linejoin:miter;stroke-opacity:1"/>
<path class="bond-0 atom-0 atom-1" d="M 151.0,21.4 L 144.1,32.8" style="fill:none;fill-rule:evenodd;stroke:#FF0000;stroke-width:2.0px;stroke-linecap:butt;stroke-linejoin:miter;stroke-opacity:1"/>
<path class="bond-1 atom-1 atom-2" d="M 143.9,44.8 L 150.4,56.5" style="fill:none;fill-rule:evenodd;stroke:#FF0000;stroke-width:2.0px;stroke-linecap:butt;stroke-linejoin:miter;stroke-opacity:1"/>
<path class="bond-1 atom-1 atom-2" d="M 150.4,56.5 L 156.8,68.1" style="fill:none;fill-rule:evenodd;stroke:#000000;stroke-width:2.0px;stroke-linecap:butt;stroke-linejoin:miter;stroke-opacity:1"/>
<path class="bond-2 atom-2 atom-3" d="M 155.3,70.6 L 170.1,70.9" style="fill:none;fill-rule:evenodd;stroke:#000000;stroke-width:2.0px;stroke-linecap:butt;stroke-linejoin:miter;stroke-opacity:1"/>
<path class="bond-2 atom-2 atom-3" d="M 170.1,70.9 L 184.9,71.2" style="fill:none;fill-rule:evenodd;stroke:#FF0000;stroke-width:2.0px;stroke-linecap:butt;stroke-linejoin:miter;stroke-opacity:1"/>
<path class="bond-2 atom-2 atom-3" d="M 155.4,65.6 L 170.2,65.9" style="fill:none;fill-rule:evenodd;stroke:#000000;stroke-width:2.0px;stroke-linecap:butt;stroke-linejoin:miter;stroke-opacity:1"/>
<path class="bond-2 atom-2 atom-3" d="M 170.2,65.9 L 185.0,66.1" style="fill:none;fill-rule:evenodd;stroke:#FF0000;stroke-width:2.0px;stroke-linecap:butt;stroke-linejoin:miter;stroke-opacity:1"/>
<path class="bond-3 atom-2 atom-4" d="M 156.8,68.1 L 139.5,96.9" style="fill:none;fill-rule:evenodd;stroke:#000000;stroke-width:2.0px;stroke-linecap:butt;stroke-linejoin:miter;stroke-opacity:1"/>
<path class="bond-4 atom-4 atom-5" d="M 139.5,96.9 L 105.9,96.3" style="fill:none;fill-rule:evenodd;stroke:#000000;stroke-width:2.0px;stroke-linecap:butt;stroke-linejoin:miter;stroke-opacity:1"/>
<path class="bond-5 atom-5 atom-6" d="M 105.9,96.3 L 99.5,84.6" style="fill:none;fill-rule:evenodd;stroke:#000000;stroke-width:2.0px;stroke-linecap:butt;stroke-linejoin:miter;stroke-opacity:1"/>
<path class="bond-5 atom-5 atom-6" d="M 99.5,84.6 L 93.0,73.0" style="fill:none;fill-rule:evenodd;stroke:#FF0000;stroke-width:2.0px;stroke-linecap:butt;stroke-linejoin:miter;stroke-opacity:1"/>
<path class="bond-6 atom-4 atom-7" d="M 139.5,96.9 L 155.8,126.3" style="fill:none;fill-rule:evenodd;stroke:#000000;stroke-width:2.0px;stroke-linecap:butt;stroke-linejoin:miter;stroke-opacity:1"/>
<path class="bond-7 atom-7 atom-8" d="M 155.8,126.3 L 189.3,126.9" style="fill:none;fill-rule:evenodd;stroke:#000000;stroke-width:2.0px;stroke-linecap:butt;stroke-linejoin:miter;stroke-opacity:1"/>
<path class="bond-8 atom-8 atom-9" d="M 189.3,126.9 L 206.6,98.1" style="fill:none;fill-rule:evenodd;stroke:#000000;stroke-width:2.0px;stroke-linecap:butt;stroke-linejoin:miter;stroke-opacity:1"/>
<path class="bond-9 atom-9 atom-10" d="M 206.6,98.1 L 220.7,98.4" style="fill:none;fill-rule:evenodd;stroke:#000000;stroke-width:2.0px;stroke-linecap:butt;stroke-linejoin:miter;stroke-opacity:1"/>
<path class="bond-9 atom-9 atom-10" d="M 220.7,98.4 L 234.7,98.7" style="fill:none;fill-rule:evenodd;stroke:#FF0000;stroke-width:2.0px;stroke-linecap:butt;stroke-linejoin:miter;stroke-opacity:1"/>
<path class="bond-10 atom-8 atom-11" d="M 189.3,126.9 L 205.6,156.3" style="fill:none;fill-rule:evenodd;stroke:#000000;stroke-width:2.0px;stroke-linecap:butt;stroke-linejoin:miter;stroke-opacity:1"/>
<path class="bond-11 atom-11 atom-12" d="M 204.2,153.7 L 196.9,165.8" style="fill:none;fill-rule:evenodd;stroke:#000000;stroke-width:2.0px;stroke-linecap:butt;stroke-linejoin:miter;stroke-opacity:1"/>
<path class="bond-11 atom-11 atom-12" d="M 196.9,165.8 L 189.7,177.8" style="fill:none;fill-rule:evenodd;stroke:#FF0000;stroke-width:2.0px;stroke-linecap:butt;stroke-linejoin:miter;stroke-opacity:1"/>
<path class="bond-11 atom-11 atom-12" d="M 208.5,156.3 L 201.2,168.4" style="fill:none;fill-rule:evenodd;stroke:#000000;stroke-width:2.0px;stroke-linecap:butt;stroke-linejoin:miter;stroke-opacity:1"/>
<path class="bond-11 atom-11 atom-12" d="M 201.2,168.4 L 194.0,180.4" style="fill:none;fill-rule:evenodd;stroke:#FF0000;stroke-width:2.0px;stroke-linecap:butt;stroke-linejoin:miter;stroke-opacity:1"/>
<path class="bond-12 atom-11 atom-13" d="M 205.6,156.3 L 219.6,156.5" style="fill:none;fill-rule:evenodd;stroke:#000000;stroke-width:2.0px;stroke-linecap:butt;stroke-linejoin:miter;stroke-opacity:1"/>
<path class="bond-12 atom-11 atom-13" d="M 219.6,156.5 L 233.7,156.8" style="fill:none;fill-rule:evenodd;stroke:#FF0000;stroke-width:2.0px;stroke-linecap:butt;stroke-linejoin:miter;stroke-opacity:1"/>
<path class="bond-13 atom-13 atom-14" d="M 242.5,163.0 L 249.0,174.6" style="fill:none;fill-rule:evenodd;stroke:#FF0000;stroke-width:2.0px;stroke-linecap:butt;stroke-linejoin:miter;stroke-opacity:1"/>
<path class="bond-13 atom-13 atom-14" d="M 249.0,174.6 L 255.4,186.3" style="fill:none;fill-rule:evenodd;stroke:#000000;stroke-width:2.0px;stroke-linecap:butt;stroke-linejoin:miter;stroke-opacity:1"/>
<path class="bond-14 atom-7 atom-15" d="M 155.8,126.3 L 138.4,155.1" style="fill:none;fill-rule:evenodd;stroke:#000000;stroke-width:2.0px;stroke-linecap:butt;stroke-linejoin:miter;stroke-opacity:1"/>
<path class="bond-15 atom-15 atom-16" d="M 138.4,155.1 L 144.9,166.8" style="fill:none;fill-rule:evenodd;stroke:#000000;stroke-width:2.0px;stroke-linecap:butt;stroke-linejoin:miter;stroke-opacity:1"/>
<path class="bond-15 atom-15 atom-16" d="M 144.9,166.8 L 151.4,178.5" style="fill:none;fill-rule:evenodd;stroke:#FF0000;stroke-width:2.0px;stroke-linecap:butt;stroke-linejoin:miter;stroke-opacity:1"/>
<path class="bond-16 atom-15 atom-17" d="M 138.4,155.1 L 104.9,154.4" style="fill:none;fill-rule:evenodd;stroke:#000000;stroke-width:2.0px;stroke-linecap:butt;stroke-linejoin:miter;stroke-opacity:1"/>
<path class="bond-17 atom-17 atom-18" d="M 104.9,154.4 L 104.3,188.0" style="fill:none;fill-rule:evenodd;stroke:#000000;stroke-width:2.0px;stroke-linecap:butt;stroke-linejoin:miter;stroke-opacity:1"/>
<path class="bond-18 atom-17 atom-19" d="M 104.9,154.4 L 105.5,120.9" style="fill:none;fill-rule:evenodd;stroke:#000000;stroke-width:2.0px;stroke-linecap:butt;stroke-linejoin:miter;stroke-opacity:1"/>
<path class="bond-19 atom-17 atom-20" d="M 104.9,154.4 L 71.3,153.8" style="fill:none;fill-rule:evenodd;stroke:#000000;stroke-width:2.0px;stroke-linecap:butt;stroke-linejoin:miter;stroke-opacity:1"/>
<path class="bond-20 atom-20 atom-21" d="M 69.9,151.3 L 62.6,163.3" style="fill:none;fill-rule:evenodd;stroke:#000000;stroke-width:2.0px;stroke-linecap:butt;stroke-linejoin:miter;stroke-opacity:1"/>
<path class="bond-20 atom-20 atom-21" d="M 62.6,163.3 L 55.4,175.4" style="fill:none;fill-rule:evenodd;stroke:#FF0000;stroke-width:2.0px;stroke-linecap:butt;stroke-linejoin:miter;stroke-opacity:1"/>
<path class="bond-20 atom-20 atom-21" d="M 74.2,153.9 L 67.0,165.9" style="fill:none;fill-rule:evenodd;stroke:#000000;stroke-width:2.0px;stroke-linecap:butt;stroke-linejoin:miter;stroke-opacity:1"/>
<path class="bond-20 atom-20 atom-21" d="M 67.0,165.9 L 59.7,178.0" style="fill:none;fill-rule:evenodd;stroke:#FF0000;stroke-width:2.0px;stroke-linecap:butt;stroke-linejoin:miter;stroke-opacity:1"/>
<path class="bond-21 atom-20 atom-22" d="M 71.3,153.8 L 64.9,142.2" style="fill:none;fill-rule:evenodd;stroke:#000000;stroke-width:2.0px;stroke-linecap:butt;stroke-linejoin:miter;stroke-opacity:1"/>
<path class="bond-21 atom-20 atom-22" d="M 64.9,142.2 L 58.4,130.5" style="fill:none;fill-rule:evenodd;stroke:#FF0000;stroke-width:2.0px;stroke-linecap:butt;stroke-linejoin:miter;stroke-opacity:1"/>
<path d="M 156.5,67.6 L 156.8,68.1 L 156.0,69.6" style="fill:none;stroke:#000000;stroke-width:2.0px;stroke-linecap:butt;stroke-linejoin:miter;stroke-opacity:1;"/>
<path d="M 107.6,96.3 L 105.9,96.3 L 105.6,95.7" style="fill:none;stroke:#000000;stroke-width:2.0px;stroke-linecap:butt;stroke-linejoin:miter;stroke-opacity:1;"/>
<path d="M 205.8,99.6 L 206.6,98.1 L 207.3,98.2" style="fill:none;stroke:#000000;stroke-width:2.0px;stroke-linecap:butt;stroke-linejoin:miter;stroke-opacity:1;"/>
<path d="M 204.8,154.8 L 205.6,156.3 L 206.3,156.3" style="fill:none;stroke:#000000;stroke-width:2.0px;stroke-linecap:butt;stroke-linejoin:miter;stroke-opacity:1;"/>
<path d="M 73.0,153.9 L 71.3,153.8 L 71.0,153.2" style="fill:none;stroke:#000000;stroke-width:2.0px;stroke-linecap:butt;stroke-linejoin:miter;stroke-opacity:1;"/>
<path class="atom-1" d="M 136.2 38.8 Q 136.2 36.5, 137.3 35.2 Q 138.5 34.0, 140.6 34.0 Q 142.7 34.0, 143.8 35.2 Q 144.9 36.5, 144.9 38.8 Q 144.9 41.1, 143.8 42.4 Q 142.7 43.7, 140.6 43.7 Q 138.5 43.7, 137.3 42.4 Q 136.2 41.1, 136.2 38.8 M 140.6 42.6 Q 142.0 42.6, 142.8 41.7 Q 143.6 40.7, 143.6 38.8 Q 143.6 36.9, 142.8 36.0 Q 142.0 35.0, 140.6 35.0 Q 139.1 35.0, 138.3 36.0 Q 137.6 36.9, 137.6 38.8 Q 137.6 40.7, 138.3 41.7 Q 139.1 42.6, 140.6 42.6 " fill="#FF0000"/>
<path class="atom-3" d="M 186.0 68.8 Q 186.0 66.5, 187.2 65.2 Q 188.3 64.0, 190.4 64.0 Q 192.5 64.0, 193.6 65.2 Q 194.8 66.5, 194.8 68.8 Q 194.8 71.1, 193.6 72.4 Q 192.5 73.7, 190.4 73.7 Q 188.3 73.7, 187.2 72.4 Q 186.0 71.1, 186.0 68.8 M 190.4 72.6 Q 191.8 72.6, 192.6 71.7 Q 193.4 70.7, 193.4 68.8 Q 193.4 66.9, 192.6 66.0 Q 191.8 65.0, 190.4 65.0 Q 188.9 65.0, 188.2 66.0 Q 187.4 66.9, 187.4 68.8 Q 187.4 70.7, 188.2 71.7 Q 188.9 72.6, 190.4 72.6 " fill="#FF0000"/>
<path class="atom-6" d="M 75.9 62.2 L 77.2 62.2 L 77.2 66.3 L 82.1 66.3 L 82.1 62.2 L 83.4 62.2 L 83.4 71.7 L 82.1 71.7 L 82.1 67.3 L 77.2 67.3 L 77.2 71.7 L 75.9 71.7 L 75.9 62.2 " fill="#FF0000"/>
<path class="atom-6" d="M 85.3 66.9 Q 85.3 64.7, 86.5 63.4 Q 87.6 62.1, 89.7 62.1 Q 91.8 62.1, 92.9 63.4 Q 94.1 64.7, 94.1 66.9 Q 94.1 69.2, 92.9 70.6 Q 91.8 71.9, 89.7 71.9 Q 87.6 71.9, 86.5 70.6 Q 85.3 69.3, 85.3 66.9 M 89.7 70.8 Q 91.1 70.8, 91.9 69.8 Q 92.7 68.8, 92.7 66.9 Q 92.7 65.1, 91.9 64.1 Q 91.1 63.2, 89.7 63.2 Q 88.2 63.2, 87.4 64.1 Q 86.7 65.1, 86.7 66.9 Q 86.7 68.9, 87.4 69.8 Q 88.2 70.8, 89.7 70.8 " fill="#FF0000"/>
<path class="atom-10" d="M 235.9 98.8 Q 235.9 96.5, 237.0 95.2 Q 238.1 93.9, 240.2 93.9 Q 242.3 93.9, 243.5 95.2 Q 244.6 96.5, 244.6 98.8 Q 244.6 101.1, 243.4 102.4 Q 242.3 103.7, 240.2 103.7 Q 238.1 103.7, 237.0 102.4 Q 235.9 101.1, 235.9 98.8 M 240.2 102.6 Q 241.7 102.6, 242.4 101.7 Q 243.2 100.7, 243.2 98.8 Q 243.2 96.9, 242.4 96.0 Q 241.7 95.0, 240.2 95.0 Q 238.8 95.0, 238.0 96.0 Q 237.2 96.9, 237.2 98.8 Q 237.2 100.7, 238.0 101.7 Q 238.8 102.6, 240.2 102.6 " fill="#FF0000"/>
<path class="atom-10" d="M 246.1 94.1 L 247.3 94.1 L 247.3 98.1 L 252.2 98.1 L 252.2 94.1 L 253.5 94.1 L 253.5 103.6 L 252.2 103.6 L 252.2 99.2 L 247.3 99.2 L 247.3 103.6 L 246.1 103.6 L 246.1 94.1 " fill="#FF0000"/>
<path class="atom-12" d="M 183.9 185.1 Q 183.9 182.8, 185.0 181.5 Q 186.2 180.2, 188.3 180.2 Q 190.4 180.2, 191.5 181.5 Q 192.6 182.8, 192.6 185.1 Q 192.6 187.4, 191.5 188.7 Q 190.3 190.0, 188.3 190.0 Q 186.2 190.0, 185.0 188.7 Q 183.9 187.4, 183.9 185.1 M 188.3 188.9 Q 189.7 188.9, 190.5 188.0 Q 191.3 187.0, 191.3 185.1 Q 191.3 183.2, 190.5 182.3 Q 189.7 181.3, 188.3 181.3 Q 186.8 181.3, 186.0 182.3 Q 185.2 183.2, 185.2 185.1 Q 185.2 187.0, 186.0 188.0 Q 186.8 188.9, 188.3 188.9 " fill="#FF0000"/>
<path class="atom-13" d="M 234.8 156.9 Q 234.8 154.6, 235.9 153.4 Q 237.0 152.1, 239.1 152.1 Q 241.3 152.1, 242.4 153.4 Q 243.5 154.6, 243.5 156.9 Q 243.5 159.2, 242.4 160.5 Q 241.2 161.9, 239.1 161.9 Q 237.1 161.9, 235.9 160.5 Q 234.8 159.2, 234.8 156.9 M 239.1 160.8 Q 240.6 160.8, 241.4 159.8 Q 242.2 158.8, 242.2 156.9 Q 242.2 155.1, 241.4 154.1 Q 240.6 153.2, 239.1 153.2 Q 237.7 153.2, 236.9 154.1 Q 236.1 155.0, 236.1 156.9 Q 236.1 158.8, 236.9 159.8 Q 237.7 160.8, 239.1 160.8 " fill="#FF0000"/>
<path class="atom-16" d="M 150.3 184.5 Q 150.3 182.2, 151.5 180.9 Q 152.6 179.6, 154.7 179.6 Q 156.8 179.6, 157.9 180.9 Q 159.1 182.2, 159.1 184.5 Q 159.1 186.8, 157.9 188.1 Q 156.8 189.4, 154.7 189.4 Q 152.6 189.4, 151.5 188.1 Q 150.3 186.8, 150.3 184.5 M 154.7 188.3 Q 156.1 188.3, 156.9 187.3 Q 157.7 186.4, 157.7 184.5 Q 157.7 182.6, 156.9 181.6 Q 156.1 180.7, 154.7 180.7 Q 153.2 180.7, 152.5 181.6 Q 151.7 182.6, 151.7 184.5 Q 151.7 186.4, 152.5 187.3 Q 153.2 188.3, 154.7 188.3 " fill="#FF0000"/>
<path class="atom-16" d="M 160.5 179.7 L 161.8 179.7 L 161.8 183.8 L 166.7 183.8 L 166.7 179.7 L 168.0 179.7 L 168.0 189.2 L 166.7 189.2 L 166.7 184.8 L 161.8 184.8 L 161.8 189.2 L 160.5 189.2 L 160.5 179.7 " fill="#FF0000"/>
<path class="atom-21" d="M 49.6 182.6 Q 49.6 180.3, 50.8 179.1 Q 51.9 177.8, 54.0 177.8 Q 56.1 177.8, 57.2 179.1 Q 58.4 180.3, 58.4 182.6 Q 58.4 184.9, 57.2 186.2 Q 56.1 187.5, 54.0 187.5 Q 51.9 187.5, 50.8 186.2 Q 49.6 184.9, 49.6 182.6 M 54.0 186.5 Q 55.4 186.5, 56.2 185.5 Q 57.0 184.5, 57.0 182.6 Q 57.0 180.7, 56.2 179.8 Q 55.4 178.9, 54.0 178.9 Q 52.5 178.9, 51.7 179.8 Q 51.0 180.7, 51.0 182.6 Q 51.0 184.5, 51.7 185.5 Q 52.5 186.5, 54.0 186.5 " fill="#FF0000"/>
<path class="atom-22" d="M 41.3 119.7 L 42.6 119.7 L 42.6 123.8 L 47.4 123.8 L 47.4 119.7 L 48.7 119.7 L 48.7 129.2 L 47.4 129.2 L 47.4 124.9 L 42.6 124.9 L 42.6 129.2 L 41.3 129.2 L 41.3 119.7 " fill="#FF0000"/>
<path class="atom-22" d="M 50.7 124.5 Q 50.7 122.2, 51.8 120.9 Q 52.9 119.6, 55.1 119.6 Q 57.2 119.6, 58.3 120.9 Q 59.4 122.2, 59.4 124.5 Q 59.4 126.8, 58.3 128.1 Q 57.1 129.4, 55.1 129.4 Q 53.0 129.4, 51.8 128.1 Q 50.7 126.8, 50.7 124.5 M 55.1 128.3 Q 56.5 128.3, 57.3 127.4 Q 58.1 126.4, 58.1 124.5 Q 58.1 122.6, 57.3 121.7 Q 56.5 120.7, 55.1 120.7 Q 53.6 120.7, 52.8 121.6 Q 52.0 122.6, 52.0 124.5 Q 52.0 126.4, 52.8 127.4 Q 53.6 128.3, 55.1 128.3 " fill="#FF0000"/>
</svg>
