<?xml version='1.0' encoding='ASCII' standalone='yes'?>
<svg xmlns="http://www.w3.org/2000/svg" xmlns:rdkit="http://www.rdkit.org/xml" xmlns:xlink="http://www.w3.org/1999/xlink" version="1.1" baseProfile="full" xml:space="preserve" width="260px" height="200px" viewBox="0 0 260 200">
<!-- END OF HEADER -->
<rect style="opacity:1.0;fill:#FFFFFF;stroke:none" width="260.0" height="200.0" x="0.0" y="0.0"> </rect>
<path class="bond-0 atom-0 atom-1" d="M 242.0,48.9 L 210.8,80.9" style="fill:none;fill-rule:evenodd;stroke:#000000;stroke-width:2.0px;stroke-linecap:butt;stroke-linejoin:miter;stroke-opacity:1"/>
<path class="bond-1 atom-1 atom-2" d="M 210.8,80.9 L 215.8,98.5" style="fill:none;fill-rule:evenodd;stroke:#000000;stroke-width:2.0px;stroke-linecap:butt;stroke-linejoin:miter;stroke-opacity:1"/>
<path class="bond-1 atom-1 atom-2" d="M 215.8,98.5 L 220.8,116.1" style="fill:none;fill-rule:evenodd;stroke:#FF0000;stroke-width:2.0px;stroke-linecap:butt;stroke-linejoin:miter;stroke-opacity:1"/>
<path class="bond-2 atom-1 atom-3" d="M 210.8,80.9 L 167.5,69.9" style="fill:none;fill-rule:evenodd;stroke:#000000;stroke-width:2.0px;stroke-linecap:butt;stroke-linejoin:miter;stroke-opacity:1"/>
<path class="bond-3 atom-3 atom-4" d="M 167.5,69.9 L 164.2,96.1" style="fill:none;fill-rule:evenodd;stroke:#000000;stroke-width:2.0px;stroke-linecap:butt;stroke-linejoin:miter;stroke-opacity:1"/>
<path class="bond-4 atom-3 atom-5" d="M 167.5,69.9 L 178.5,26.6" style="fill:none;fill-rule:evenodd;stroke:#000000;stroke-width:2.0px;stroke-linecap:butt;stroke-linejoin:miter;stroke-opacity:1"/>
<path class="bond-5 atom-3 atom-6" d="M 167.5,69.9 L 124.2,58.9" style="fill:none;fill-rule:evenodd;stroke:#000000;stroke-width:2.0px;stroke-linecap:butt;stroke-linejoin:miter;stroke-opacity:1"/>
<path class="bond-6 atom-6 atom-7" d="M 124.2,58.9 L 93.0,90.9" style="fill:none;fill-rule:evenodd;stroke:#000000;stroke-width:2.0px;stroke-linecap:butt;stroke-linejoin:miter;stroke-opacity:1"/>
<path class="bond-7 atom-7 atom-8" d="M 93.0,90.9 L 61.8,122.9" style="fill:none;fill-rule:evenodd;stroke:#000000;stroke-width:2.0px;stroke-linecap:butt;stroke-linejoin:miter;stroke-opacity:1"/>
<path class="bond-8 atom-7 atom-9" d="M 93.0,90.9 L 125.0,122.1" style="fill:none;fill-rule:evenodd;stroke:#000000;stroke-width:2.0px;stroke-linecap:butt;stroke-linejoin:miter;stroke-opacity:1"/>
<path class="bond-9 atom-9 atom-10" d="M 122.4,119.5 L 117.7,138.2" style="fill:none;fill-rule:evenodd;stroke:#000000;stroke-width:2.0px;stroke-linecap:butt;stroke-linejoin:miter;stroke-opacity:1"/>
<path class="bond-9 atom-9 atom-10" d="M 117.7,138.2 L 112.9,156.8" style="fill:none;fill-rule:evenodd;stroke:#FF0000;stroke-width:2.0px;stroke-linecap:butt;stroke-linejoin:miter;stroke-opacity:1"/>
<path class="bond-9 atom-9 atom-10" d="M 128.4,121.6 L 123.8,139.7" style="fill:none;fill-rule:evenodd;stroke:#000000;stroke-width:2.0px;stroke-linecap:butt;stroke-linejoin:miter;stroke-opacity:1"/>
<path class="bond-9 atom-9 atom-10" d="M 123.8,139.7 L 119.1,158.4" style="fill:none;fill-rule:evenodd;stroke:#FF0000;stroke-width:2.0px;stroke-linecap:butt;stroke-linejoin:miter;stroke-opacity:1"/>
<path class="bond-10 atom-9 atom-11" d="M 125.0,122.1 L 134.5,120.6" style="fill:none;fill-rule:evenodd;stroke:#000000;stroke-width:2.0px;stroke-linecap:butt;stroke-linejoin:miter;stroke-opacity:1"/>
<path class="bond-10 atom-9 atom-11" d="M 134.5,120.6 L 143.9,119.2" style="fill:none;fill-rule:evenodd;stroke:#FF0000;stroke-width:2.0px;stroke-linecap:butt;stroke-linejoin:miter;stroke-opacity:1"/>
<path class="bond-11 atom-7 atom-12" d="M 93.0,90.9 L 61.0,59.7" style="fill:none;fill-rule:evenodd;stroke:#000000;stroke-width:2.0px;stroke-linecap:butt;stroke-linejoin:miter;stroke-opacity:1"/>
<path class="bond-12 atom-12 atom-13" d="M 61.0,59.7 L 18.0,71.8" style="fill:none;fill-rule:evenodd;stroke:#000000;stroke-width:2.0px;stroke-linecap:butt;stroke-linejoin:miter;stroke-opacity:1"/>
<path class="bond-13 atom-12 atom-14" d="M 61.0,59.7 L 65.5,42.1" style="fill:none;fill-rule:evenodd;stroke:#000000;stroke-width:2.0px;stroke-linecap:butt;stroke-linejoin:miter;stroke-opacity:1"/>
<path class="bond-13 atom-12 atom-14" d="M 65.5,42.1 L 70.0,24.4" style="fill:none;fill-rule:evenodd;stroke:#FF0000;stroke-width:2.0px;stroke-linecap:butt;stroke-linejoin:miter;stroke-opacity:1"/>
<path d="M 126.4,59.4 L 124.2,58.9 L 122.6,60.5" style="fill:none;stroke:#000000;stroke-width:2.0px;stroke-linecap:butt;stroke-linejoin:miter;stroke-opacity:1;"/>
<path d="M 123.4,120.5 L 125.0,122.1 L 125.5,122.0" style="fill:none;stroke:#000000;stroke-width:2.0px;stroke-linecap:butt;stroke-linejoin:miter;stroke-opacity:1;"/>
<path class="atom-2" d="M 217.1 123.9 Q 217.1 120.9, 218.7 119.2 Q 220.2 117.5, 223.0 117.5 Q 225.8 117.5, 227.3 119.2 Q 228.8 120.9, 228.8 123.9 Q 228.8 127.0, 227.2 128.8 Q 225.7 130.5, 223.0 130.5 Q 220.2 130.5, 218.7 128.8 Q 217.1 127.0, 217.1 123.9 M 223.0 129.1 Q 224.9 129.1, 225.9 127.8 Q 227.0 126.5, 227.0 123.9 Q 227.0 121.5, 225.9 120.2 Q 224.9 118.9, 223.0 118.9 Q 221.0 118.9, 220.0 120.2 Q 218.9 121.4, 218.9 123.9 Q 218.9 126.5, 220.0 127.8 Q 221.0 129.1, 223.0 129.1 " fill="#FF0000"/>
<path class="atom-2" d="M 230.7 117.7 L 232.5 117.7 L 232.5 123.0 L 238.9 123.0 L 238.9 117.7 L 240.6 117.7 L 240.6 130.3 L 238.9 130.3 L 238.9 124.5 L 232.5 124.5 L 232.5 130.3 L 230.7 130.3 L 230.7 117.7 " fill="#FF0000"/>
<path class="atom-10" d="M 108.2 165.4 Q 108.2 162.4, 109.7 160.7 Q 111.2 159.0, 114.0 159.0 Q 116.8 159.0, 118.3 160.7 Q 119.8 162.4, 119.8 165.4 Q 119.8 168.5, 118.3 170.3 Q 116.8 172.0, 114.0 172.0 Q 111.2 172.0, 109.7 170.3 Q 108.2 168.5, 108.2 165.4 M 114.0 170.6 Q 116.0 170.6, 117.0 169.3 Q 118.0 168.0, 118.0 165.4 Q 118.0 163.0, 117.0 161.7 Q 116.0 160.4, 114.0 160.4 Q 112.1 160.4, 111.0 161.7 Q 110.0 162.9, 110.0 165.4 Q 110.0 168.0, 111.0 169.3 Q 112.1 170.6, 114.0 170.6 " fill="#FF0000"/>
<path class="atom-11" d="M 145.3 118.1 Q 145.3 115.1, 146.8 113.4 Q 148.3 111.7, 151.1 111.7 Q 153.9 111.7, 155.4 113.4 Q 156.9 115.1, 156.9 118.1 Q 156.9 121.2, 155.4 122.9 Q 153.9 124.7, 151.1 124.7 Q 148.3 124.7, 146.8 122.9 Q 145.3 121.2, 145.3 118.1 M 151.1 123.2 Q 153.0 123.2, 154.1 122.0 Q 155.1 120.6, 155.1 118.1 Q 155.1 115.6, 154.1 114.4 Q 153.0 113.1, 151.1 113.1 Q 149.2 113.1, 148.1 114.4 Q 147.1 115.6, 147.1 118.1 Q 147.1 120.7, 148.1 122.0 Q 149.2 123.2, 151.1 123.2 " fill="#FF0000"/>
<path class="atom-11" d="M 158.9 111.8 L 160.6 111.8 L 160.6 117.2 L 167.1 117.2 L 167.1 111.8 L 168.8 111.8 L 168.8 124.5 L 167.1 124.5 L 167.1 118.6 L 160.6 118.6 L 160.6 124.5 L 158.9 124.5 L 158.9 111.8 " fill="#FF0000"/>
<path class="atom-14" d="M 66.2 16.4 Q 66.2 13.4, 67.7 11.7 Q 69.2 10.0, 72.0 10.0 Q 74.8 10.0, 76.3 11.7 Q 77.8 13.4, 77.8 16.4 Q 77.8 19.5, 76.3 21.3 Q 74.8 23.0, 72.0 23.0 Q 69.2 23.0, 67.7 21.3 Q 66.2 19.5, 66.2 16.4 M 72.0 21.6 Q 73.9 21.6, 75.0 20.3 Q 76.0 19.0, 76.0 16.4 Q 76.0 14.0, 75.0 12.7 Q 73.9 11.4, 72.0 11.4 Q 70.1 11.4, 69.0 12.7 Q 68.0 13.9, 68.0 16.4 Q 68.0 19.0, 69.0 20.3 Q 70.1 21.6, 72.0 21.6 " fill="#FF0000"/>
<path class="atom-14" d="M 79.8 10.1 L 81.5 10.1 L 81.5 15.5 L 88.0 15.5 L 88.0 10.1 L 89.7 10.1 L 89.7 22.8 L 88.0 22.8 L 88.0 17.0 L 81.5 17.0 L 81.5 22.8 L 79.8 22.8 L 79.8 10.1 " fill="#FF0000"/>
<path class="legend" d="M 121.5 181.9 Q 121.5 179.6, 122.2 177.7 Q 122.8 175.8, 124.1 173.8 L 125.0 174.4 Q 124.0 176.3, 123.4 178.0 Q 122.9 179.7, 122.9 181.9 Q 122.9 184.0, 123.4 185.8 Q 124.0 187.5, 125.0 189.4 L 124.1 190.0 Q 122.8 188.0, 122.2 186.1 Q 121.5 184.2, 121.5 181.9 " fill="#000000"/>
<path class="legend" d="M 125.9 177.3 Q 126.4 176.2, 127.3 175.6 Q 128.3 175.0, 129.7 175.0 Q 131.4 175.0, 132.4 175.9 Q 133.3 176.8, 133.3 178.5 Q 133.3 180.2, 132.1 181.7 Q 130.9 183.3, 128.3 185.2 L 133.5 185.2 L 133.5 186.4 L 125.9 186.4 L 125.9 185.4 Q 128.0 183.9, 129.3 182.8 Q 130.5 181.6, 131.1 180.6 Q 131.7 179.6, 131.7 178.6 Q 131.7 177.5, 131.2 176.9 Q 130.7 176.3, 129.7 176.3 Q 128.8 176.3, 128.2 176.6 Q 127.6 177.0, 127.2 177.8 L 125.9 177.3 " fill="#000000"/>
<path class="legend" d="M 138.5 181.9 Q 138.5 184.2, 137.8 186.1 Q 137.2 188.0, 135.9 190.0 L 135.0 189.4 Q 136.0 187.5, 136.5 185.8 Q 137.1 184.0, 137.1 181.9 Q 137.1 179.7, 136.5 178.0 Q 136.0 176.3, 135.0 174.4 L 135.9 173.8 Q 137.2 175.8, 137.8 177.7 Q 138.5 179.6, 138.5 181.9 " fill="#000000"/>
</svg>
