<?xml version='1.0' encoding='ASCII' standalone='yes'?>
<svg xmlns="http://www.w3.org/2000/svg" xmlns:rdkit="http://www.rdkit.org/xml" xmlns:xlink="http://www.w3.org/1999/xlink" version="1.1" baseProfile="full" xml:space="preserve" width="307px" height="200px" viewBox="0 0 307 200">
<!-- END OF HEADER -->
<rect style="opacity:1.0;fill:#FFFFFF;stroke:none" width="307.0" height="200.0" x="0.0" y="0.0"> </rect>
<path class="bond-0 atom-0 atom-1" d="M 219.2,88.8 L 209.1,113.9" style="fill:none;fill-rule:evenodd;stroke:#000000;stroke-width:2.0px;stroke-linecap:butt;stroke-linejoin:miter;stroke-opacity:1"/>
<path class="bond-1 atom-1 atom-2" d="M 209.1,113.9 L 199.0,139.0" style="fill:none;fill-rule:evenodd;stroke:#000000;stroke-width:2.0px;stroke-linecap:butt;stroke-linejoin:miter;stroke-opacity:1"/>
<path class="bond-2 atom-1 atom-3" d="M 209.1,113.9 L 184.0,103.8" style="fill:none;fill-rule:evenodd;stroke:#000000;stroke-width:2.0px;stroke-linecap:butt;stroke-linejoin:miter;stroke-opacity:1"/>
<path class="bond-3 atom-3 atom-4" d="M 184.0,103.8 L 162.7,120.5" style="fill:none;fill-rule:evenodd;stroke:#000000;stroke-width:2.0px;stroke-linecap:butt;stroke-linejoin:miter;stroke-opacity:1"/>
<path class="bond-4 atom-4 atom-5" d="M 162.7,120.5 L 137.6,110.4" style="fill:none;fill-rule:evenodd;stroke:#000000;stroke-width:2.0px;stroke-linecap:butt;stroke-linejoin:miter;stroke-opacity:1"/>
<path class="bond-5 atom-5 atom-6" d="M 137.6,110.4 L 116.3,127.0" style="fill:none;fill-rule:evenodd;stroke:#000000;stroke-width:2.0px;stroke-linecap:butt;stroke-linejoin:miter;stroke-opacity:1"/>
<path class="bond-6 atom-6 atom-7" d="M 116.3,127.0 L 91.2,116.9" style="fill:none;fill-rule:evenodd;stroke:#000000;stroke-width:2.0px;stroke-linecap:butt;stroke-linejoin:miter;stroke-opacity:1"/>
<path class="bond-7 atom-7 atom-8" d="M 91.2,116.9 L 69.9,133.6" style="fill:none;fill-rule:evenodd;stroke:#000000;stroke-width:2.0px;stroke-linecap:butt;stroke-linejoin:miter;stroke-opacity:1"/>
<path class="bond-8 atom-8 atom-9" d="M 69.9,133.6 L 48.6,150.3" style="fill:none;fill-rule:evenodd;stroke:#000000;stroke-width:2.0px;stroke-linecap:butt;stroke-linejoin:miter;stroke-opacity:1"/>
<path class="bond-9 atom-8 atom-10" d="M 69.9,133.6 L 86.6,154.9" style="fill:none;fill-rule:evenodd;stroke:#000000;stroke-width:2.0px;stroke-linecap:butt;stroke-linejoin:miter;stroke-opacity:1"/>
<path class="bond-10 atom-10 atom-11" d="M 86.6,154.9 L 82.5,165.1" style="fill:none;fill-rule:evenodd;stroke:#000000;stroke-width:2.0px;stroke-linecap:butt;stroke-linejoin:miter;stroke-opacity:1"/>
<path class="bond-10 atom-10 atom-11" d="M 82.5,165.1 L 78.4,175.2" style="fill:none;fill-rule:evenodd;stroke:#FF0000;stroke-width:2.0px;stroke-linecap:butt;stroke-linejoin:miter;stroke-opacity:1"/>
<path class="bond-11 atom-8 atom-12" d="M 69.9,133.6 L 53.2,112.3" style="fill:none;fill-rule:evenodd;stroke:#000000;stroke-width:2.0px;stroke-linecap:butt;stroke-linejoin:miter;stroke-opacity:1"/>
<path class="bond-12 atom-12 atom-13" d="M 54.7,114.1 L 59.0,103.5" style="fill:none;fill-rule:evenodd;stroke:#000000;stroke-width:2.0px;stroke-linecap:butt;stroke-linejoin:miter;stroke-opacity:1"/>
<path class="bond-12 atom-12 atom-13" d="M 59.0,103.5 L 63.3,92.8" style="fill:none;fill-rule:evenodd;stroke:#FF0000;stroke-width:2.0px;stroke-linecap:butt;stroke-linejoin:miter;stroke-opacity:1"/>
<path class="bond-12 atom-12 atom-13" d="M 50.9,112.6 L 55.2,102.0" style="fill:none;fill-rule:evenodd;stroke:#000000;stroke-width:2.0px;stroke-linecap:butt;stroke-linejoin:miter;stroke-opacity:1"/>
<path class="bond-12 atom-12 atom-13" d="M 55.2,102.0 L 59.5,91.3" style="fill:none;fill-rule:evenodd;stroke:#FF0000;stroke-width:2.0px;stroke-linecap:butt;stroke-linejoin:miter;stroke-opacity:1"/>
<path class="bond-13 atom-12 atom-14" d="M 53.2,112.3 L 42.0,113.9" style="fill:none;fill-rule:evenodd;stroke:#000000;stroke-width:2.0px;stroke-linecap:butt;stroke-linejoin:miter;stroke-opacity:1"/>
<path class="bond-13 atom-12 atom-14" d="M 42.0,113.9 L 30.8,115.5" style="fill:none;fill-rule:evenodd;stroke:#FF0000;stroke-width:2.0px;stroke-linecap:butt;stroke-linejoin:miter;stroke-opacity:1"/>
<path class="bond-14 atom-5 atom-15" d="M 137.6,110.4 L 133.8,83.6" style="fill:none;fill-rule:evenodd;stroke:#000000;stroke-width:2.0px;stroke-linecap:butt;stroke-linejoin:miter;stroke-opacity:1"/>
<path class="bond-15 atom-15 atom-16" d="M 133.8,83.6 L 160.6,79.8" style="fill:none;fill-rule:evenodd;stroke:#000000;stroke-width:2.0px;stroke-linecap:butt;stroke-linejoin:miter;stroke-opacity:1"/>
<path class="bond-16 atom-15 atom-17" d="M 133.8,83.6 L 107.0,87.4" style="fill:none;fill-rule:evenodd;stroke:#000000;stroke-width:2.0px;stroke-linecap:butt;stroke-linejoin:miter;stroke-opacity:1"/>
<path class="bond-17 atom-15 atom-18" d="M 133.8,83.6 L 130.0,56.8" style="fill:none;fill-rule:evenodd;stroke:#000000;stroke-width:2.0px;stroke-linecap:butt;stroke-linejoin:miter;stroke-opacity:1"/>
<path class="bond-18 atom-18 atom-19" d="M 130.4,59.1 L 139.3,52.1" style="fill:none;fill-rule:evenodd;stroke:#000000;stroke-width:2.0px;stroke-linecap:butt;stroke-linejoin:miter;stroke-opacity:1"/>
<path class="bond-18 atom-18 atom-19" d="M 139.3,52.1 L 148.2,45.1" style="fill:none;fill-rule:evenodd;stroke:#FF0000;stroke-width:2.0px;stroke-linecap:butt;stroke-linejoin:miter;stroke-opacity:1"/>
<path class="bond-18 atom-18 atom-19" d="M 127.9,55.9 L 136.8,48.9" style="fill:none;fill-rule:evenodd;stroke:#000000;stroke-width:2.0px;stroke-linecap:butt;stroke-linejoin:miter;stroke-opacity:1"/>
<path class="bond-18 atom-18 atom-19" d="M 136.8,48.9 L 145.7,41.9" style="fill:none;fill-rule:evenodd;stroke:#FF0000;stroke-width:2.0px;stroke-linecap:butt;stroke-linejoin:miter;stroke-opacity:1"/>
<path class="bond-19 atom-18 atom-20" d="M 130.0,56.8 L 119.7,52.6" style="fill:none;fill-rule:evenodd;stroke:#000000;stroke-width:2.0px;stroke-linecap:butt;stroke-linejoin:miter;stroke-opacity:1"/>
<path class="bond-19 atom-18 atom-20" d="M 119.7,52.6 L 109.3,48.4" style="fill:none;fill-rule:evenodd;stroke:#FF0000;stroke-width:2.0px;stroke-linecap:butt;stroke-linejoin:miter;stroke-opacity:1"/>
<path class="bond-20 atom-20 atom-21" d="M 104.3,41.9 L 101.8,24.8" style="fill:none;fill-rule:evenodd;stroke:#FF0000;stroke-width:2.0px;stroke-linecap:butt;stroke-linejoin:miter;stroke-opacity:1"/>
<path class="bond-21 atom-1 atom-22" d="M 209.1,113.9 L 234.2,124.0" style="fill:none;fill-rule:evenodd;stroke:#000000;stroke-width:2.0px;stroke-linecap:butt;stroke-linejoin:miter;stroke-opacity:1"/>
<path class="bond-22 atom-22 atom-23" d="M 232.1,123.1 L 233.7,134.7" style="fill:none;fill-rule:evenodd;stroke:#000000;stroke-width:2.0px;stroke-linecap:butt;stroke-linejoin:miter;stroke-opacity:1"/>
<path class="bond-22 atom-22 atom-23" d="M 233.7,134.7 L 235.3,146.3" style="fill:none;fill-rule:evenodd;stroke:#FF0000;stroke-width:2.0px;stroke-linecap:butt;stroke-linejoin:miter;stroke-opacity:1"/>
<path class="bond-22 atom-22 atom-23" d="M 236.1,122.6 L 237.7,134.2" style="fill:none;fill-rule:evenodd;stroke:#000000;stroke-width:2.0px;stroke-linecap:butt;stroke-linejoin:miter;stroke-opacity:1"/>
<path class="bond-22 atom-22 atom-23" d="M 237.7,134.2 L 239.4,145.7" style="fill:none;fill-rule:evenodd;stroke:#FF0000;stroke-width:2.0px;stroke-linecap:butt;stroke-linejoin:miter;stroke-opacity:1"/>
<path class="bond-23 atom-22 atom-24" d="M 234.2,124.0 L 242.7,117.4" style="fill:none;fill-rule:evenodd;stroke:#000000;stroke-width:2.0px;stroke-linecap:butt;stroke-linejoin:miter;stroke-opacity:1"/>
<path class="bond-23 atom-22 atom-24" d="M 242.7,117.4 L 251.1,110.8" style="fill:none;fill-rule:evenodd;stroke:#FF0000;stroke-width:2.0px;stroke-linecap:butt;stroke-linejoin:miter;stroke-opacity:1"/>
<path class="bond-24 atom-24 atom-25" d="M 260.0,109.1 L 276.2,115.7" style="fill:none;fill-rule:evenodd;stroke:#FF0000;stroke-width:2.0px;stroke-linecap:butt;stroke-linejoin:miter;stroke-opacity:1"/>
<path d="M 185.3,104.3 L 184.0,103.8 L 183.0,104.6" style="fill:none;stroke:#000000;stroke-width:2.0px;stroke-linecap:butt;stroke-linejoin:miter;stroke-opacity:1;"/>
<path d="M 163.8,119.6 L 162.7,120.5 L 161.5,120.0" style="fill:none;stroke:#000000;stroke-width:2.0px;stroke-linecap:butt;stroke-linejoin:miter;stroke-opacity:1;"/>
<path d="M 117.4,126.2 L 116.3,127.0 L 115.1,126.5" style="fill:none;stroke:#000000;stroke-width:2.0px;stroke-linecap:butt;stroke-linejoin:miter;stroke-opacity:1;"/>
<path d="M 92.5,117.4 L 91.2,116.9 L 90.2,117.8" style="fill:none;stroke:#000000;stroke-width:2.0px;stroke-linecap:butt;stroke-linejoin:miter;stroke-opacity:1;"/>
<path d="M 85.8,153.9 L 86.6,154.9 L 86.4,155.4" style="fill:none;stroke:#000000;stroke-width:2.0px;stroke-linecap:butt;stroke-linejoin:miter;stroke-opacity:1;"/>
<path d="M 54.1,113.4 L 53.2,112.3 L 52.7,112.4" style="fill:none;stroke:#000000;stroke-width:2.0px;stroke-linecap:butt;stroke-linejoin:miter;stroke-opacity:1;"/>
<path d="M 130.2,58.1 L 130.0,56.8 L 129.5,56.6" style="fill:none;stroke:#000000;stroke-width:2.0px;stroke-linecap:butt;stroke-linejoin:miter;stroke-opacity:1;"/>
<path d="M 233.0,123.5 L 234.2,124.0 L 234.7,123.7" style="fill:none;stroke:#000000;stroke-width:2.0px;stroke-linecap:butt;stroke-linejoin:miter;stroke-opacity:1;"/>
<path class="atom-11" d="M 65.4 176.2 L 66.4 176.2 L 66.4 179.5 L 70.4 179.5 L 70.4 176.2 L 71.4 176.2 L 71.4 183.9 L 70.4 183.9 L 70.4 180.4 L 66.4 180.4 L 66.4 183.9 L 65.4 183.9 L 65.4 176.2 " fill="#FF0000"/>
<path class="atom-11" d="M 73.0 180.0 Q 73.0 178.2, 73.9 177.2 Q 74.8 176.1, 76.5 176.1 Q 78.2 176.1, 79.1 177.2 Q 80.0 178.2, 80.0 180.0 Q 80.0 181.9, 79.1 183.0 Q 78.2 184.0, 76.5 184.0 Q 74.8 184.0, 73.9 183.0 Q 73.0 181.9, 73.0 180.0 M 76.5 183.1 Q 77.7 183.1, 78.3 182.4 Q 78.9 181.6, 78.9 180.0 Q 78.9 178.5, 78.3 177.8 Q 77.7 177.0, 76.5 177.0 Q 75.3 177.0, 74.7 177.8 Q 74.0 178.5, 74.0 180.0 Q 74.0 181.6, 74.7 182.4 Q 75.3 183.1, 76.5 183.1 " fill="#FF0000"/>
<path class="atom-13" d="M 59.8 87.2 Q 59.8 85.4, 60.7 84.4 Q 61.6 83.3, 63.3 83.3 Q 65.0 83.3, 65.9 84.4 Q 66.9 85.4, 66.9 87.2 Q 66.9 89.1, 65.9 90.1 Q 65.0 91.2, 63.3 91.2 Q 61.7 91.2, 60.7 90.1 Q 59.8 89.1, 59.8 87.2 M 63.3 90.3 Q 64.5 90.3, 65.1 89.6 Q 65.8 88.8, 65.8 87.2 Q 65.8 85.7, 65.1 85.0 Q 64.5 84.2, 63.3 84.2 Q 62.2 84.2, 61.5 85.0 Q 60.9 85.7, 60.9 87.2 Q 60.9 88.8, 61.5 89.6 Q 62.2 90.3, 63.3 90.3 " fill="#FF0000"/>
<path class="atom-14" d="M 15.3 112.3 L 16.4 112.3 L 16.4 115.6 L 20.3 115.6 L 20.3 112.3 L 21.3 112.3 L 21.3 120.0 L 20.3 120.0 L 20.3 116.4 L 16.4 116.4 L 16.4 120.0 L 15.3 120.0 L 15.3 112.3 " fill="#FF0000"/>
<path class="atom-14" d="M 22.9 116.1 Q 22.9 114.3, 23.8 113.3 Q 24.7 112.2, 26.4 112.2 Q 28.1 112.2, 29.0 113.3 Q 30.0 114.3, 30.0 116.1 Q 30.0 118.0, 29.0 119.0 Q 28.1 120.1, 26.4 120.1 Q 24.7 120.1, 23.8 119.0 Q 22.9 118.0, 22.9 116.1 M 26.4 119.2 Q 27.6 119.2, 28.2 118.4 Q 28.9 117.7, 28.9 116.1 Q 28.9 114.6, 28.2 113.9 Q 27.6 113.1, 26.4 113.1 Q 25.3 113.1, 24.6 113.8 Q 24.0 114.6, 24.0 116.1 Q 24.0 117.7, 24.6 118.4 Q 25.3 119.2, 26.4 119.2 " fill="#FF0000"/>
<path class="atom-19" d="M 147.8 40.1 Q 147.8 38.3, 148.7 37.2 Q 149.6 36.2, 151.3 36.2 Q 153.0 36.2, 154.0 37.2 Q 154.9 38.3, 154.9 40.1 Q 154.9 42.0, 153.9 43.0 Q 153.0 44.1, 151.3 44.1 Q 149.7 44.1, 148.7 43.0 Q 147.8 42.0, 147.8 40.1 M 151.3 43.2 Q 152.5 43.2, 153.1 42.4 Q 153.8 41.6, 153.8 40.1 Q 153.8 38.6, 153.1 37.8 Q 152.5 37.1, 151.3 37.1 Q 150.2 37.1, 149.5 37.8 Q 148.9 38.6, 148.9 40.1 Q 148.9 41.7, 149.5 42.4 Q 150.2 43.2, 151.3 43.2 " fill="#FF0000"/>
<path class="atom-20" d="M 101.4 46.7 Q 101.4 44.8, 102.3 43.8 Q 103.2 42.8, 104.9 42.8 Q 106.6 42.8, 107.5 43.8 Q 108.5 44.8, 108.5 46.7 Q 108.5 48.5, 107.5 49.6 Q 106.6 50.7, 104.9 50.7 Q 103.2 50.7, 102.3 49.6 Q 101.4 48.6, 101.4 46.7 M 104.9 49.8 Q 106.1 49.8, 106.7 49.0 Q 107.4 48.2, 107.4 46.7 Q 107.4 45.2, 106.7 44.4 Q 106.1 43.6, 104.9 43.6 Q 103.8 43.6, 103.1 44.4 Q 102.5 45.2, 102.5 46.7 Q 102.5 48.2, 103.1 49.0 Q 103.8 49.8, 104.9 49.8 " fill="#FF0000"/>
<path class="atom-21" d="M 97.6 19.9 Q 97.6 18.0, 98.5 17.0 Q 99.4 16.0, 101.1 16.0 Q 102.8 16.0, 103.8 17.0 Q 104.7 18.0, 104.7 19.9 Q 104.7 21.7, 103.7 22.8 Q 102.8 23.9, 101.1 23.9 Q 99.5 23.9, 98.5 22.8 Q 97.6 21.8, 97.6 19.9 M 101.1 23.0 Q 102.3 23.0, 102.9 22.2 Q 103.6 21.4, 103.6 19.9 Q 103.6 18.4, 102.9 17.6 Q 102.3 16.9, 101.1 16.9 Q 100.0 16.9, 99.3 17.6 Q 98.7 18.4, 98.7 19.9 Q 98.7 21.4, 99.3 22.2 Q 100.0 23.0, 101.1 23.0 " fill="#FF0000"/>
<path class="atom-21" d="M 105.9 16.1 L 106.9 16.1 L 106.9 19.3 L 110.8 19.3 L 110.8 16.1 L 111.8 16.1 L 111.8 23.7 L 110.8 23.7 L 110.8 20.2 L 106.9 20.2 L 106.9 23.7 L 105.9 23.7 L 105.9 16.1 " fill="#FF0000"/>
<path class="atom-23" d="M 234.5 150.8 Q 234.5 149.0, 235.4 148.0 Q 236.3 146.9, 238.0 146.9 Q 239.7 146.9, 240.6 148.0 Q 241.5 149.0, 241.5 150.8 Q 241.5 152.7, 240.6 153.7 Q 239.7 154.8, 238.0 154.8 Q 236.3 154.8, 235.4 153.7 Q 234.5 152.7, 234.5 150.8 M 238.0 153.9 Q 239.2 153.9, 239.8 153.1 Q 240.5 152.4, 240.5 150.8 Q 240.5 149.3, 239.8 148.6 Q 239.2 147.8, 238.0 147.8 Q 236.9 147.8, 236.2 148.5 Q 235.6 149.3, 235.6 150.8 Q 235.6 152.4, 236.2 153.1 Q 236.9 153.9, 238.0 153.9 " fill="#FF0000"/>
<path class="atom-24" d="M 252.0 107.3 Q 252.0 105.5, 252.9 104.5 Q 253.8 103.4, 255.5 103.4 Q 257.2 103.4, 258.2 104.5 Q 259.1 105.5, 259.1 107.3 Q 259.1 109.2, 258.1 110.3 Q 257.2 111.3, 255.5 111.3 Q 253.9 111.3, 252.9 110.3 Q 252.0 109.2, 252.0 107.3 M 255.5 110.4 Q 256.7 110.4, 257.3 109.7 Q 258.0 108.9, 258.0 107.3 Q 258.0 105.8, 257.3 105.1 Q 256.7 104.3, 255.5 104.3 Q 254.4 104.3, 253.7 105.1 Q 253.1 105.8, 253.1 107.3 Q 253.1 108.9, 253.7 109.7 Q 254.4 110.4, 255.5 110.4 " fill="#FF0000"/>
<path class="atom-25" d="M 277.1 117.5 Q 277.1 115.6, 278.0 114.6 Q 278.9 113.6, 280.6 113.6 Q 282.3 113.6, 283.3 114.6 Q 284.2 115.6, 284.2 117.5 Q 284.2 119.3, 283.2 120.4 Q 282.3 121.4, 280.6 121.4 Q 279.0 121.4, 278.0 120.4 Q 277.1 119.3, 277.1 117.5 M 280.6 120.6 Q 281.8 120.6, 282.4 119.8 Q 283.1 119.0, 283.1 117.5 Q 283.1 115.9, 282.4 115.2 Q 281.8 114.4, 280.6 114.4 Q 279.5 114.4, 278.8 115.2 Q 278.2 115.9, 278.2 117.5 Q 278.2 119.0, 278.8 119.8 Q 279.5 120.6, 280.6 120.6 " fill="#FF0000"/>
<path class="atom-25" d="M 285.4 113.6 L 286.4 113.6 L 286.4 116.9 L 290.3 116.9 L 290.3 113.6 L 291.3 113.6 L 291.3 121.3 L 290.3 121.3 L 290.3 117.8 L 286.4 117.8 L 286.4 121.3 L 285.4 121.3 L 285.4 113.6 " fill="#FF0000"/>
</svg>
