<?xml version='1.0' encoding='ASCII' standalone='yes'?>
<svg xmlns="http://www.w3.org/2000/svg" xmlns:rdkit="http://www.rdkit.org/xml" xmlns:xlink="http://www.w3.org/1999/xlink" version="1.1" baseProfile="full" xml:space="preserve" width="297px" height="200px" viewBox="0 0 297 200">
<!-- END OF HEADER -->
<rect style="opacity:1.0;fill:#FFFFFF;stroke:none" width="297.0" height="200.0" x="0.0" y="0.0"> </rect>
<path class="bond-0 atom-0 atom-1" d="M 204.9,54.0 L 209.1,87.6" style="fill:none;fill-rule:evenodd;stroke:#000000;stroke-width:2.0px;stroke-linecap:butt;stroke-linejoin:miter;stroke-opacity:1"/>
<path class="bond-1 atom-1 atom-2" d="M 209.1,87.6 L 213.2,121.1" style="fill:none;fill-rule:evenodd;stroke:#000000;stroke-width:2.0px;stroke-linecap:butt;stroke-linejoin:miter;stroke-opacity:1"/>
<path class="bond-2 atom-1 atom-3" d="M 209.1,87.6 L 242.6,83.4" style="fill:none;fill-rule:evenodd;stroke:#000000;stroke-width:2.0px;stroke-linecap:butt;stroke-linejoin:miter;stroke-opacity:1"/>
<path class="bond-3 atom-3 atom-4" d="M 244.4,85.8 L 250.0,72.6" style="fill:none;fill-rule:evenodd;stroke:#000000;stroke-width:2.0px;stroke-linecap:butt;stroke-linejoin:miter;stroke-opacity:1"/>
<path class="bond-3 atom-3 atom-4" d="M 250.0,72.6 L 255.6,59.4" style="fill:none;fill-rule:evenodd;stroke:#FF0000;stroke-width:2.0px;stroke-linecap:butt;stroke-linejoin:miter;stroke-opacity:1"/>
<path class="bond-3 atom-3 atom-4" d="M 239.7,83.8 L 245.3,70.6" style="fill:none;fill-rule:evenodd;stroke:#000000;stroke-width:2.0px;stroke-linecap:butt;stroke-linejoin:miter;stroke-opacity:1"/>
<path class="bond-3 atom-3 atom-4" d="M 245.3,70.6 L 250.9,57.4" style="fill:none;fill-rule:evenodd;stroke:#FF0000;stroke-width:2.0px;stroke-linecap:butt;stroke-linejoin:miter;stroke-opacity:1"/>
<path class="bond-4 atom-3 atom-5" d="M 242.6,83.4 L 250.5,94.0" style="fill:none;fill-rule:evenodd;stroke:#000000;stroke-width:2.0px;stroke-linecap:butt;stroke-linejoin:miter;stroke-opacity:1"/>
<path class="bond-4 atom-3 atom-5" d="M 250.5,94.0 L 258.5,104.5" style="fill:none;fill-rule:evenodd;stroke:#FF0000;stroke-width:2.0px;stroke-linecap:butt;stroke-linejoin:miter;stroke-opacity:1"/>
<path class="bond-5 atom-1 atom-6" d="M 209.1,87.6 L 175.5,91.7" style="fill:none;fill-rule:evenodd;stroke:#000000;stroke-width:2.0px;stroke-linecap:butt;stroke-linejoin:miter;stroke-opacity:1"/>
<path class="bond-6 atom-6 atom-7" d="M 175.5,91.7 L 167.7,81.2" style="fill:none;fill-rule:evenodd;stroke:#000000;stroke-width:2.0px;stroke-linecap:butt;stroke-linejoin:miter;stroke-opacity:1"/>
<path class="bond-6 atom-6 atom-7" d="M 167.7,81.2 L 159.8,70.8" style="fill:none;fill-rule:evenodd;stroke:#FF0000;stroke-width:2.0px;stroke-linecap:butt;stroke-linejoin:miter;stroke-opacity:1"/>
<path class="bond-7 atom-6 atom-8" d="M 175.5,91.7 L 162.3,122.8" style="fill:none;fill-rule:evenodd;stroke:#000000;stroke-width:2.0px;stroke-linecap:butt;stroke-linejoin:miter;stroke-opacity:1"/>
<path class="bond-8 atom-8 atom-9" d="M 162.3,122.8 L 128.8,126.9" style="fill:none;fill-rule:evenodd;stroke:#000000;stroke-width:2.0px;stroke-linecap:butt;stroke-linejoin:miter;stroke-opacity:1"/>
<path class="bond-9 atom-9 atom-10" d="M 128.8,126.9 L 115.6,158.0" style="fill:none;fill-rule:evenodd;stroke:#000000;stroke-width:2.0px;stroke-linecap:butt;stroke-linejoin:miter;stroke-opacity:1"/>
<path class="bond-10 atom-10 atom-11" d="M 115.6,158.0 L 101.6,159.7" style="fill:none;fill-rule:evenodd;stroke:#000000;stroke-width:2.0px;stroke-linecap:butt;stroke-linejoin:miter;stroke-opacity:1"/>
<path class="bond-10 atom-10 atom-11" d="M 101.6,159.7 L 87.5,161.5" style="fill:none;fill-rule:evenodd;stroke:#FF0000;stroke-width:2.0px;stroke-linecap:butt;stroke-linejoin:miter;stroke-opacity:1"/>
<path class="bond-11 atom-10 atom-12" d="M 115.6,158.0 L 123.5,168.5" style="fill:none;fill-rule:evenodd;stroke:#000000;stroke-width:2.0px;stroke-linecap:butt;stroke-linejoin:miter;stroke-opacity:1"/>
<path class="bond-11 atom-10 atom-12" d="M 123.5,168.5 L 131.4,179.1" style="fill:none;fill-rule:evenodd;stroke:#FF0000;stroke-width:2.0px;stroke-linecap:butt;stroke-linejoin:miter;stroke-opacity:1"/>
<path class="bond-12 atom-9 atom-13" d="M 128.8,126.9 L 108.4,99.9" style="fill:none;fill-rule:evenodd;stroke:#000000;stroke-width:2.0px;stroke-linecap:butt;stroke-linejoin:miter;stroke-opacity:1"/>
<path class="bond-13 atom-13 atom-14" d="M 108.4,99.9 L 97.7,108.0" style="fill:none;fill-rule:evenodd;stroke:#000000;stroke-width:2.0px;stroke-linecap:butt;stroke-linejoin:miter;stroke-opacity:1"/>
<path class="bond-13 atom-13 atom-14" d="M 97.7,108.0 L 87.0,116.1" style="fill:none;fill-rule:evenodd;stroke:#FF0000;stroke-width:2.0px;stroke-linecap:butt;stroke-linejoin:miter;stroke-opacity:1"/>
<path class="bond-14 atom-13 atom-15" d="M 108.4,99.9 L 119.2,91.8" style="fill:none;fill-rule:evenodd;stroke:#000000;stroke-width:2.0px;stroke-linecap:butt;stroke-linejoin:miter;stroke-opacity:1"/>
<path class="bond-14 atom-13 atom-15" d="M 119.2,91.8 L 129.9,83.7" style="fill:none;fill-rule:evenodd;stroke:#FF0000;stroke-width:2.0px;stroke-linecap:butt;stroke-linejoin:miter;stroke-opacity:1"/>
<path class="bond-15 atom-13 atom-16" d="M 108.4,99.9 L 88.1,72.9" style="fill:none;fill-rule:evenodd;stroke:#000000;stroke-width:2.0px;stroke-linecap:butt;stroke-linejoin:miter;stroke-opacity:1"/>
<path class="bond-16 atom-16 atom-17" d="M 88.1,72.9 L 101.3,41.8" style="fill:none;fill-rule:evenodd;stroke:#000000;stroke-width:2.0px;stroke-linecap:butt;stroke-linejoin:miter;stroke-opacity:1"/>
<path class="bond-17 atom-17 atom-18" d="M 101.3,41.8 L 93.4,31.4" style="fill:none;fill-rule:evenodd;stroke:#000000;stroke-width:2.0px;stroke-linecap:butt;stroke-linejoin:miter;stroke-opacity:1"/>
<path class="bond-17 atom-17 atom-18" d="M 93.4,31.4 L 85.6,20.9" style="fill:none;fill-rule:evenodd;stroke:#FF0000;stroke-width:2.0px;stroke-linecap:butt;stroke-linejoin:miter;stroke-opacity:1"/>
<path class="bond-18 atom-17 atom-19" d="M 101.3,41.8 L 115.3,40.1" style="fill:none;fill-rule:evenodd;stroke:#000000;stroke-width:2.0px;stroke-linecap:butt;stroke-linejoin:miter;stroke-opacity:1"/>
<path class="bond-18 atom-17 atom-19" d="M 115.3,40.1 L 129.3,38.4" style="fill:none;fill-rule:evenodd;stroke:#FF0000;stroke-width:2.0px;stroke-linecap:butt;stroke-linejoin:miter;stroke-opacity:1"/>
<path class="bond-19 atom-16 atom-20" d="M 88.1,72.9 L 54.6,77.1" style="fill:none;fill-rule:evenodd;stroke:#000000;stroke-width:2.0px;stroke-linecap:butt;stroke-linejoin:miter;stroke-opacity:1"/>
<path class="bond-20 atom-20 atom-21" d="M 54.6,77.1 L 46.7,66.6" style="fill:none;fill-rule:evenodd;stroke:#000000;stroke-width:2.0px;stroke-linecap:butt;stroke-linejoin:miter;stroke-opacity:1"/>
<path class="bond-20 atom-20 atom-21" d="M 46.7,66.6 L 38.8,56.2" style="fill:none;fill-rule:evenodd;stroke:#FF0000;stroke-width:2.0px;stroke-linecap:butt;stroke-linejoin:miter;stroke-opacity:1"/>
<path class="bond-21 atom-20 atom-22" d="M 54.6,77.1 L 49.2,89.6" style="fill:none;fill-rule:evenodd;stroke:#000000;stroke-width:2.0px;stroke-linecap:butt;stroke-linejoin:miter;stroke-opacity:1"/>
<path class="bond-21 atom-20 atom-22" d="M 49.2,89.6 L 43.9,102.2" style="fill:none;fill-rule:evenodd;stroke:#FF0000;stroke-width:2.0px;stroke-linecap:butt;stroke-linejoin:miter;stroke-opacity:1"/>
<path d="M 240.9,83.6 L 242.6,83.4 L 243.0,84.0" style="fill:none;stroke:#000000;stroke-width:2.0px;stroke-linecap:butt;stroke-linejoin:miter;stroke-opacity:1;"/>
<path d="M 163.0,121.2 L 162.3,122.8 L 160.7,123.0" style="fill:none;stroke:#000000;stroke-width:2.0px;stroke-linecap:butt;stroke-linejoin:miter;stroke-opacity:1;"/>
<path class="atom-4" d="M 251.4 52.4 Q 251.4 50.1, 252.6 48.8 Q 253.7 47.5, 255.8 47.5 Q 257.9 47.5, 259.1 48.8 Q 260.2 50.1, 260.2 52.4 Q 260.2 54.7, 259.1 56.0 Q 257.9 57.3, 255.8 57.3 Q 253.7 57.3, 252.6 56.0 Q 251.4 54.7, 251.4 52.4 M 255.8 56.2 Q 257.3 56.2, 258.1 55.3 Q 258.9 54.3, 258.9 52.4 Q 258.9 50.5, 258.1 49.5 Q 257.3 48.6, 255.8 48.6 Q 254.4 48.6, 253.6 49.5 Q 252.8 50.5, 252.8 52.4 Q 252.8 54.3, 253.6 55.3 Q 254.4 56.2, 255.8 56.2 " fill="#FF0000"/>
<path class="atom-5" d="M 258.6 110.5 Q 258.6 108.2, 259.7 106.9 Q 260.8 105.6, 263.0 105.6 Q 265.1 105.6, 266.2 106.9 Q 267.3 108.2, 267.3 110.5 Q 267.3 112.8, 266.2 114.1 Q 265.1 115.4, 263.0 115.4 Q 260.8 115.4, 259.7 114.1 Q 258.6 112.8, 258.6 110.5 M 263.0 114.3 Q 264.4 114.3, 265.2 113.4 Q 266.0 112.4, 266.0 110.5 Q 266.0 108.6, 265.2 107.6 Q 264.4 106.7, 263.0 106.7 Q 261.5 106.7, 260.7 107.6 Q 259.9 108.6, 259.9 110.5 Q 259.9 112.4, 260.7 113.4 Q 261.5 114.3, 263.0 114.3 " fill="#FF0000"/>
<path class="atom-5" d="M 268.8 105.7 L 270.1 105.7 L 270.1 109.8 L 275.0 109.8 L 275.0 105.7 L 276.3 105.7 L 276.3 115.3 L 275.0 115.3 L 275.0 110.8 L 270.1 110.8 L 270.1 115.3 L 268.8 115.3 L 268.8 105.7 " fill="#FF0000"/>
<path class="atom-7" d="M 141.3 60.0 L 142.6 60.0 L 142.6 64.0 L 147.5 64.0 L 147.5 60.0 L 148.8 60.0 L 148.8 69.5 L 147.5 69.5 L 147.5 65.1 L 142.6 65.1 L 142.6 69.5 L 141.3 69.5 L 141.3 60.0 " fill="#FF0000"/>
<path class="atom-7" d="M 150.8 64.7 Q 150.8 62.4, 151.9 61.1 Q 153.1 59.9, 155.2 59.9 Q 157.3 59.9, 158.4 61.1 Q 159.6 62.4, 159.6 64.7 Q 159.6 67.0, 158.4 68.4 Q 157.3 69.7, 155.2 69.7 Q 153.1 69.7, 151.9 68.4 Q 150.8 67.1, 150.8 64.7 M 155.2 68.6 Q 156.6 68.6, 157.4 67.6 Q 158.2 66.6, 158.2 64.7 Q 158.2 62.8, 157.4 61.9 Q 156.6 60.9, 155.2 60.9 Q 153.7 60.9, 152.9 61.9 Q 152.1 62.8, 152.1 64.7 Q 152.1 66.7, 152.9 67.6 Q 153.7 68.6, 155.2 68.6 " fill="#FF0000"/>
<path class="atom-11" d="M 68.2 157.4 L 69.5 157.4 L 69.5 161.5 L 74.4 161.5 L 74.4 157.4 L 75.7 157.4 L 75.7 167.0 L 74.4 167.0 L 74.4 162.6 L 69.5 162.6 L 69.5 167.0 L 68.2 167.0 L 68.2 157.4 " fill="#FF0000"/>
<path class="atom-11" d="M 77.6 162.2 Q 77.6 159.9, 78.8 158.6 Q 79.9 157.3, 82.0 157.3 Q 84.2 157.3, 85.3 158.6 Q 86.4 159.9, 86.4 162.2 Q 86.4 164.5, 85.3 165.8 Q 84.1 167.1, 82.0 167.1 Q 79.9 167.1, 78.8 165.8 Q 77.6 164.5, 77.6 162.2 M 82.0 166.1 Q 83.5 166.1, 84.3 165.1 Q 85.1 164.1, 85.1 162.2 Q 85.1 160.3, 84.3 159.3 Q 83.5 158.4, 82.0 158.4 Q 80.6 158.4, 79.8 159.3 Q 79.0 160.3, 79.0 162.2 Q 79.0 164.1, 79.8 165.1 Q 80.6 166.1, 82.0 166.1 " fill="#FF0000"/>
<path class="atom-12" d="M 131.5 185.0 Q 131.5 182.7, 132.7 181.5 Q 133.8 180.2, 135.9 180.2 Q 138.0 180.2, 139.2 181.5 Q 140.3 182.7, 140.3 185.0 Q 140.3 187.4, 139.2 188.7 Q 138.0 190.0, 135.9 190.0 Q 133.8 190.0, 132.7 188.7 Q 131.5 187.4, 131.5 185.0 M 135.9 188.9 Q 137.4 188.9, 138.2 187.9 Q 139.0 187.0, 139.0 185.0 Q 139.0 183.2, 138.2 182.2 Q 137.4 181.3, 135.9 181.3 Q 134.5 181.3, 133.7 182.2 Q 132.9 183.1, 132.9 185.0 Q 132.9 187.0, 133.7 187.9 Q 134.5 188.9, 135.9 188.9 " fill="#FF0000"/>
<path class="atom-12" d="M 141.8 180.3 L 143.1 180.3 L 143.1 184.3 L 148.0 184.3 L 148.0 180.3 L 149.3 180.3 L 149.3 189.9 L 148.0 189.9 L 148.0 185.4 L 143.1 185.4 L 143.1 189.9 L 141.8 189.9 L 141.8 180.3 " fill="#FF0000"/>
<path class="atom-14" d="M 67.6 115.5 L 68.9 115.5 L 68.9 119.6 L 73.8 119.6 L 73.8 115.5 L 75.1 115.5 L 75.1 125.1 L 73.8 125.1 L 73.8 120.7 L 68.9 120.7 L 68.9 125.1 L 67.6 125.1 L 67.6 115.5 " fill="#FF0000"/>
<path class="atom-14" d="M 77.1 120.3 Q 77.1 118.0, 78.2 116.7 Q 79.3 115.4, 81.5 115.4 Q 83.6 115.4, 84.7 116.7 Q 85.8 118.0, 85.8 120.3 Q 85.8 122.6, 84.7 123.9 Q 83.6 125.3, 81.5 125.3 Q 79.3 125.3, 78.2 123.9 Q 77.1 122.6, 77.1 120.3 M 81.5 124.2 Q 82.9 124.2, 83.7 123.2 Q 84.5 122.2, 84.5 120.3 Q 84.5 118.4, 83.7 117.5 Q 82.9 116.5, 81.5 116.5 Q 80.0 116.5, 79.2 117.5 Q 78.4 118.4, 78.4 120.3 Q 78.4 122.2, 79.2 123.2 Q 80.0 124.2, 81.5 124.2 " fill="#FF0000"/>
<path class="atom-15" d="M 131.0 79.6 Q 131.0 77.3, 132.2 76.0 Q 133.3 74.7, 135.4 74.7 Q 137.6 74.7, 138.7 76.0 Q 139.8 77.3, 139.8 79.6 Q 139.8 81.9, 138.7 83.3 Q 137.5 84.6, 135.4 84.6 Q 133.3 84.6, 132.2 83.3 Q 131.0 81.9, 131.0 79.6 M 135.4 83.5 Q 136.9 83.5, 137.7 82.5 Q 138.5 81.5, 138.5 79.6 Q 138.5 77.7, 137.7 76.8 Q 136.9 75.8, 135.4 75.8 Q 134.0 75.8, 133.2 76.8 Q 132.4 77.7, 132.4 79.6 Q 132.4 81.5, 133.2 82.5 Q 134.0 83.5, 135.4 83.5 " fill="#FF0000"/>
<path class="atom-15" d="M 141.3 74.9 L 142.6 74.9 L 142.6 78.9 L 147.5 78.9 L 147.5 74.9 L 148.8 74.9 L 148.8 84.4 L 147.5 84.4 L 147.5 80.0 L 142.6 80.0 L 142.6 84.4 L 141.3 84.4 L 141.3 74.9 " fill="#FF0000"/>
<path class="atom-18" d="M 67.1 10.1 L 68.4 10.1 L 68.4 14.2 L 73.3 14.2 L 73.3 10.1 L 74.6 10.1 L 74.6 19.7 L 73.3 19.7 L 73.3 15.3 L 68.4 15.3 L 68.4 19.7 L 67.1 19.7 L 67.1 10.1 " fill="#FF0000"/>
<path class="atom-18" d="M 76.6 14.9 Q 76.6 12.6, 77.7 11.3 Q 78.8 10.0, 81.0 10.0 Q 83.1 10.0, 84.2 11.3 Q 85.4 12.6, 85.4 14.9 Q 85.4 17.2, 84.2 18.5 Q 83.1 19.8, 81.0 19.8 Q 78.9 19.8, 77.7 18.5 Q 76.6 17.2, 76.6 14.9 M 81.0 18.7 Q 82.4 18.7, 83.2 17.8 Q 84.0 16.8, 84.0 14.9 Q 84.0 13.0, 83.2 12.0 Q 82.4 11.1, 81.0 11.1 Q 79.5 11.1, 78.7 12.0 Q 77.9 13.0, 77.9 14.9 Q 77.9 16.8, 78.7 17.8 Q 79.5 18.7, 81.0 18.7 " fill="#FF0000"/>
<path class="atom-19" d="M 130.5 37.7 Q 130.5 35.4, 131.6 34.1 Q 132.7 32.9, 134.8 32.9 Q 137.0 32.9, 138.1 34.1 Q 139.2 35.4, 139.2 37.7 Q 139.2 40.1, 138.1 41.4 Q 136.9 42.7, 134.8 42.7 Q 132.7 42.7, 131.6 41.4 Q 130.5 40.1, 130.5 37.7 M 134.8 41.6 Q 136.3 41.6, 137.1 40.6 Q 137.9 39.7, 137.9 37.7 Q 137.9 35.9, 137.1 34.9 Q 136.3 33.9, 134.8 33.9 Q 133.4 33.9, 132.6 34.9 Q 131.8 35.8, 131.8 37.7 Q 131.8 39.7, 132.6 40.6 Q 133.4 41.6, 134.8 41.6 " fill="#FF0000"/>
<path class="atom-19" d="M 140.7 33.0 L 142.0 33.0 L 142.0 37.0 L 146.9 37.0 L 146.9 33.0 L 148.2 33.0 L 148.2 42.5 L 146.9 42.5 L 146.9 38.1 L 142.0 38.1 L 142.0 42.5 L 140.7 42.5 L 140.7 33.0 " fill="#FF0000"/>
<path class="atom-21" d="M 20.4 45.3 L 21.7 45.3 L 21.7 49.4 L 26.6 49.4 L 26.6 45.3 L 27.9 45.3 L 27.9 54.9 L 26.6 54.9 L 26.6 50.5 L 21.7 50.5 L 21.7 54.9 L 20.4 54.9 L 20.4 45.3 " fill="#FF0000"/>
<path class="atom-21" d="M 29.8 50.1 Q 29.8 47.8, 31.0 46.5 Q 32.1 45.2, 34.2 45.2 Q 36.3 45.2, 37.5 46.5 Q 38.6 47.8, 38.6 50.1 Q 38.6 52.4, 37.5 53.7 Q 36.3 55.1, 34.2 55.1 Q 32.1 55.1, 31.0 53.7 Q 29.8 52.4, 29.8 50.1 M 34.2 54.0 Q 35.7 54.0, 36.5 53.0 Q 37.3 52.0, 37.3 50.1 Q 37.3 48.2, 36.5 47.3 Q 35.7 46.3, 34.2 46.3 Q 32.8 46.3, 32.0 47.3 Q 31.2 48.2, 31.2 50.1 Q 31.2 52.0, 32.0 53.0 Q 32.8 54.0, 34.2 54.0 " fill="#FF0000"/>
<path class="atom-22" d="M 27.5 103.4 L 28.8 103.4 L 28.8 107.5 L 33.7 107.5 L 33.7 103.4 L 35.0 103.4 L 35.0 113.0 L 33.7 113.0 L 33.7 108.6 L 28.8 108.6 L 28.8 113.0 L 27.5 113.0 L 27.5 103.4 " fill="#FF0000"/>
<path class="atom-22" d="M 37.0 108.2 Q 37.0 105.9, 38.1 104.6 Q 39.2 103.3, 41.4 103.3 Q 43.5 103.3, 44.6 104.6 Q 45.8 105.9, 45.8 108.2 Q 45.8 110.5, 44.6 111.8 Q 43.5 113.2, 41.4 113.2 Q 39.2 113.2, 38.1 111.8 Q 37.0 110.5, 37.0 108.2 M 41.4 112.1 Q 42.8 112.1, 43.6 111.1 Q 44.4 110.1, 44.4 108.2 Q 44.4 106.3, 43.6 105.4 Q 42.8 104.4, 41.4 104.4 Q 39.9 104.4, 39.1 105.4 Q 38.3 106.3, 38.3 108.2 Q 38.3 110.1, 39.1 111.1 Q 39.9 112.1, 41.4 112.1 " fill="#FF0000"/>
</svg>
