<?xml version='1.0' encoding='ASCII' standalone='yes'?>
<svg xmlns="http://www.w3.org/2000/svg" xmlns:rdkit="http://www.rdkit.org/xml" xmlns:xlink="http://www.w3.org/1999/xlink" version="1.1" baseProfile="full" xml:space="preserve" width="355px" height="200px" viewBox="0 0 355 200">
<!-- END OF HEADER -->
<rect style="opacity:1.0;fill:#FFFFFF;stroke:none" width="355.0" height="200.0" x="0.0" y="0.0"> </rect>
<path class="bond-0 atom-0 atom-1" d="M 130.7,161.3 L 127.2,155.2" style="fill:none;fill-rule:evenodd;stroke:#191919;stroke-width:2.0px;stroke-linecap:butt;stroke-linejoin:miter;stroke-opacity:1"/>
<path class="bond-0 atom-0 atom-1" d="M 127.2,155.2 L 123.7,149.2" style="fill:none;fill-rule:evenodd;stroke:#FF0000;stroke-width:2.0px;stroke-linecap:butt;stroke-linejoin:miter;stroke-opacity:1"/>
<path class="bond-1 atom-1 atom-2" d="M 117.4,145.0 L 107.5,145.0" style="fill:none;fill-rule:evenodd;stroke:#FF0000;stroke-width:2.0px;stroke-linecap:butt;stroke-linejoin:miter;stroke-opacity:1"/>
<path class="bond-1 atom-1 atom-2" d="M 107.5,145.0 L 97.6,145.1" style="fill:none;fill-rule:evenodd;stroke:#000000;stroke-width:2.0px;stroke-linecap:butt;stroke-linejoin:miter;stroke-opacity:1"/>
<path class="bond-2 atom-2 atom-3" d="M 97.6,145.1 L 83.7,126.1" style="fill:none;fill-rule:evenodd;stroke:#000000;stroke-width:2.0px;stroke-linecap:butt;stroke-linejoin:miter;stroke-opacity:1"/>
<path class="bond-3 atom-3 atom-4" d="M 83.7,126.1 L 90.9,103.6" style="fill:none;fill-rule:evenodd;stroke:#000000;stroke-width:2.0px;stroke-linecap:butt;stroke-linejoin:miter;stroke-opacity:1"/>
<path class="bond-4 atom-4 atom-5" d="M 90.9,103.6 L 84.9,97.0" style="fill:none;fill-rule:evenodd;stroke:#000000;stroke-width:2.0px;stroke-linecap:butt;stroke-linejoin:miter;stroke-opacity:1"/>
<path class="bond-4 atom-4 atom-5" d="M 84.9,97.0 L 78.9,90.4" style="fill:none;fill-rule:evenodd;stroke:#FF0000;stroke-width:2.0px;stroke-linecap:butt;stroke-linejoin:miter;stroke-opacity:1"/>
<path class="bond-5 atom-5 atom-6" d="M 76.4,82.1 L 78.7,75.0" style="fill:none;fill-rule:evenodd;stroke:#FF0000;stroke-width:2.0px;stroke-linecap:butt;stroke-linejoin:miter;stroke-opacity:1"/>
<path class="bond-5 atom-5 atom-6" d="M 78.7,75.0 L 81.0,67.9" style="fill:none;fill-rule:evenodd;stroke:#FF7F00;stroke-width:2.0px;stroke-linecap:butt;stroke-linejoin:miter;stroke-opacity:1"/>
<path class="bond-6 atom-6 atom-7" d="M 79.9,61.2 L 72.1,58.7" style="fill:none;fill-rule:evenodd;stroke:#FF7F00;stroke-width:2.0px;stroke-linecap:butt;stroke-linejoin:miter;stroke-opacity:1"/>
<path class="bond-6 atom-6 atom-7" d="M 72.1,58.7 L 64.2,56.1" style="fill:none;fill-rule:evenodd;stroke:#FF0000;stroke-width:2.0px;stroke-linecap:butt;stroke-linejoin:miter;stroke-opacity:1"/>
<path class="bond-6 atom-6 atom-7" d="M 78.8,64.5 L 71.0,62.0" style="fill:none;fill-rule:evenodd;stroke:#FF7F00;stroke-width:2.0px;stroke-linecap:butt;stroke-linejoin:miter;stroke-opacity:1"/>
<path class="bond-6 atom-6 atom-7" d="M 71.0,62.0 L 63.2,59.5" style="fill:none;fill-rule:evenodd;stroke:#FF0000;stroke-width:2.0px;stroke-linecap:butt;stroke-linejoin:miter;stroke-opacity:1"/>
<path class="bond-7 atom-6 atom-8" d="M 85.2,64.7 L 93.0,67.2" style="fill:none;fill-rule:evenodd;stroke:#FF7F00;stroke-width:2.0px;stroke-linecap:butt;stroke-linejoin:miter;stroke-opacity:1"/>
<path class="bond-7 atom-6 atom-8" d="M 93.0,67.2 L 100.9,69.7" style="fill:none;fill-rule:evenodd;stroke:#FF0000;stroke-width:2.0px;stroke-linecap:butt;stroke-linejoin:miter;stroke-opacity:1"/>
<path class="bond-8 atom-6 atom-9" d="M 83.6,59.7 L 85.9,52.6" style="fill:none;fill-rule:evenodd;stroke:#FF7F00;stroke-width:2.0px;stroke-linecap:butt;stroke-linejoin:miter;stroke-opacity:1"/>
<path class="bond-8 atom-6 atom-9" d="M 85.9,52.6 L 88.1,45.6" style="fill:none;fill-rule:evenodd;stroke:#FF0000;stroke-width:2.0px;stroke-linecap:butt;stroke-linejoin:miter;stroke-opacity:1"/>
<path class="bond-9 atom-9 atom-10" d="M 93.3,40.5 L 101.5,38.8" style="fill:none;fill-rule:evenodd;stroke:#FF0000;stroke-width:2.0px;stroke-linecap:butt;stroke-linejoin:miter;stroke-opacity:1"/>
<path class="bond-9 atom-9 atom-10" d="M 101.5,38.8 L 109.6,37.0" style="fill:none;fill-rule:evenodd;stroke:#FF7F00;stroke-width:2.0px;stroke-linecap:butt;stroke-linejoin:miter;stroke-opacity:1"/>
<path class="bond-10 atom-10 atom-11" d="M 113.3,31.9 L 111.7,24.6" style="fill:none;fill-rule:evenodd;stroke:#FF7F00;stroke-width:2.0px;stroke-linecap:butt;stroke-linejoin:miter;stroke-opacity:1"/>
<path class="bond-10 atom-10 atom-11" d="M 111.7,24.6 L 110.2,17.2" style="fill:none;fill-rule:evenodd;stroke:#FF0000;stroke-width:2.0px;stroke-linecap:butt;stroke-linejoin:miter;stroke-opacity:1"/>
<path class="bond-10 atom-10 atom-11" d="M 109.9,32.6 L 108.3,25.3" style="fill:none;fill-rule:evenodd;stroke:#FF7F00;stroke-width:2.0px;stroke-linecap:butt;stroke-linejoin:miter;stroke-opacity:1"/>
<path class="bond-10 atom-10 atom-11" d="M 108.3,25.3 L 106.7,18.0" style="fill:none;fill-rule:evenodd;stroke:#FF0000;stroke-width:2.0px;stroke-linecap:butt;stroke-linejoin:miter;stroke-opacity:1"/>
<path class="bond-11 atom-10 atom-12" d="M 113.4,40.5 L 115.0,47.9" style="fill:none;fill-rule:evenodd;stroke:#FF7F00;stroke-width:2.0px;stroke-linecap:butt;stroke-linejoin:miter;stroke-opacity:1"/>
<path class="bond-11 atom-10 atom-12" d="M 115.0,47.9 L 116.6,55.2" style="fill:none;fill-rule:evenodd;stroke:#FF0000;stroke-width:2.0px;stroke-linecap:butt;stroke-linejoin:miter;stroke-opacity:1"/>
<path class="bond-12 atom-10 atom-13" d="M 115.4,35.8 L 123.5,34.0" style="fill:none;fill-rule:evenodd;stroke:#FF7F00;stroke-width:2.0px;stroke-linecap:butt;stroke-linejoin:miter;stroke-opacity:1"/>
<path class="bond-12 atom-10 atom-13" d="M 123.5,34.0 L 131.7,32.2" style="fill:none;fill-rule:evenodd;stroke:#FF0000;stroke-width:2.0px;stroke-linecap:butt;stroke-linejoin:miter;stroke-opacity:1"/>
<path class="bond-13 atom-13 atom-14" d="M 139.3,35.6 L 143.9,40.6" style="fill:none;fill-rule:evenodd;stroke:#FF0000;stroke-width:2.0px;stroke-linecap:butt;stroke-linejoin:miter;stroke-opacity:1"/>
<path class="bond-13 atom-13 atom-14" d="M 143.9,40.6 L 148.4,45.6" style="fill:none;fill-rule:evenodd;stroke:#FF7F00;stroke-width:2.0px;stroke-linecap:butt;stroke-linejoin:miter;stroke-opacity:1"/>
<path class="bond-14 atom-14 atom-15" d="M 147.2,50.2 L 141.9,55.0" style="fill:none;fill-rule:evenodd;stroke:#FF7F00;stroke-width:2.0px;stroke-linecap:butt;stroke-linejoin:miter;stroke-opacity:1"/>
<path class="bond-14 atom-14 atom-15" d="M 141.9,55.0 L 136.5,59.9" style="fill:none;fill-rule:evenodd;stroke:#FF0000;stroke-width:2.0px;stroke-linecap:butt;stroke-linejoin:miter;stroke-opacity:1"/>
<path class="bond-14 atom-14 atom-15" d="M 149.6,52.8 L 144.3,57.6" style="fill:none;fill-rule:evenodd;stroke:#FF7F00;stroke-width:2.0px;stroke-linecap:butt;stroke-linejoin:miter;stroke-opacity:1"/>
<path class="bond-14 atom-14 atom-15" d="M 144.3,57.6 L 138.9,62.5" style="fill:none;fill-rule:evenodd;stroke:#FF0000;stroke-width:2.0px;stroke-linecap:butt;stroke-linejoin:miter;stroke-opacity:1"/>
<path class="bond-15 atom-14 atom-16" d="M 154.2,46.2 L 159.6,41.3" style="fill:none;fill-rule:evenodd;stroke:#FF7F00;stroke-width:2.0px;stroke-linecap:butt;stroke-linejoin:miter;stroke-opacity:1"/>
<path class="bond-15 atom-14 atom-16" d="M 159.6,41.3 L 164.9,36.5" style="fill:none;fill-rule:evenodd;stroke:#FF0000;stroke-width:2.0px;stroke-linecap:butt;stroke-linejoin:miter;stroke-opacity:1"/>
<path class="bond-16 atom-14 atom-17" d="M 154.2,52.0 L 158.8,57.1" style="fill:none;fill-rule:evenodd;stroke:#FF7F00;stroke-width:2.0px;stroke-linecap:butt;stroke-linejoin:miter;stroke-opacity:1"/>
<path class="bond-16 atom-14 atom-17" d="M 158.8,57.1 L 163.4,62.1" style="fill:none;fill-rule:evenodd;stroke:#FF0000;stroke-width:2.0px;stroke-linecap:butt;stroke-linejoin:miter;stroke-opacity:1"/>
<path class="bond-17 atom-17 atom-18" d="M 165.8,70.5 L 162.9,79.6" style="fill:none;fill-rule:evenodd;stroke:#FF0000;stroke-width:2.0px;stroke-linecap:butt;stroke-linejoin:miter;stroke-opacity:1"/>
<path class="bond-17 atom-17 atom-18" d="M 162.9,79.6 L 160.0,88.7" style="fill:none;fill-rule:evenodd;stroke:#000000;stroke-width:2.0px;stroke-linecap:butt;stroke-linejoin:miter;stroke-opacity:1"/>
<path class="bond-18 atom-18 atom-19" d="M 160.0,88.7 L 175.8,106.1" style="fill:none;fill-rule:evenodd;stroke:#000000;stroke-width:2.0px;stroke-linecap:butt;stroke-linejoin:miter;stroke-opacity:1"/>
<path class="bond-19 atom-19 atom-20" d="M 175.8,106.1 L 185.6,105.1" style="fill:none;fill-rule:evenodd;stroke:#000000;stroke-width:2.0px;stroke-linecap:butt;stroke-linejoin:miter;stroke-opacity:1"/>
<path class="bond-19 atom-19 atom-20" d="M 185.6,105.1 L 195.3,104.0" style="fill:none;fill-rule:evenodd;stroke:#FF0000;stroke-width:2.0px;stroke-linecap:butt;stroke-linejoin:miter;stroke-opacity:1"/>
<path class="bond-20 atom-20 atom-21" d="M 201.1,107.8 L 205.0,116.4" style="fill:none;fill-rule:evenodd;stroke:#FF0000;stroke-width:2.0px;stroke-linecap:butt;stroke-linejoin:miter;stroke-opacity:1"/>
<path class="bond-20 atom-20 atom-21" d="M 205.0,116.4 L 208.8,125.0" style="fill:none;fill-rule:evenodd;stroke:#000000;stroke-width:2.0px;stroke-linecap:butt;stroke-linejoin:miter;stroke-opacity:1"/>
<path class="bond-21 atom-21 atom-22" d="M 208.8,125.0 L 218.7,127.1" style="fill:none;fill-rule:evenodd;stroke:#000000;stroke-width:2.0px;stroke-linecap:butt;stroke-linejoin:miter;stroke-opacity:1"/>
<path class="bond-21 atom-21 atom-22" d="M 218.7,127.1 L 228.6,129.2" style="fill:none;fill-rule:evenodd;stroke:#0000FF;stroke-width:2.0px;stroke-linecap:butt;stroke-linejoin:miter;stroke-opacity:1"/>
<path class="bond-22 atom-22 atom-23" d="M 233.7,134.0 L 237.7,142.6" style="fill:none;fill-rule:evenodd;stroke:#0000FF;stroke-width:2.0px;stroke-linecap:butt;stroke-linejoin:miter;stroke-opacity:1"/>
<path class="bond-22 atom-22 atom-23" d="M 237.7,142.6 L 241.6,151.3" style="fill:none;fill-rule:evenodd;stroke:#000000;stroke-width:2.0px;stroke-linecap:butt;stroke-linejoin:miter;stroke-opacity:1"/>
<path class="bond-23 atom-23 atom-24" d="M 241.6,151.3 L 251.6,150.2" style="fill:none;fill-rule:evenodd;stroke:#000000;stroke-width:2.0px;stroke-linecap:butt;stroke-linejoin:miter;stroke-opacity:1"/>
<path class="bond-23 atom-23 atom-24" d="M 251.6,150.2 L 261.7,149.1" style="fill:none;fill-rule:evenodd;stroke:#0000FF;stroke-width:2.0px;stroke-linecap:butt;stroke-linejoin:miter;stroke-opacity:1"/>
<path class="bond-23 atom-23 atom-24" d="M 243.7,147.5 L 252.5,146.6" style="fill:none;fill-rule:evenodd;stroke:#000000;stroke-width:2.0px;stroke-linecap:butt;stroke-linejoin:miter;stroke-opacity:1"/>
<path class="bond-23 atom-23 atom-24" d="M 252.5,146.6 L 261.3,145.6" style="fill:none;fill-rule:evenodd;stroke:#0000FF;stroke-width:2.0px;stroke-linecap:butt;stroke-linejoin:miter;stroke-opacity:1"/>
<path class="bond-24 atom-24 atom-25" d="M 268.3,152.4 L 274.5,159.3" style="fill:none;fill-rule:evenodd;stroke:#0000FF;stroke-width:2.0px;stroke-linecap:butt;stroke-linejoin:miter;stroke-opacity:1"/>
<path class="bond-24 atom-24 atom-25" d="M 274.5,159.3 L 280.8,166.2" style="fill:none;fill-rule:evenodd;stroke:#000000;stroke-width:2.0px;stroke-linecap:butt;stroke-linejoin:miter;stroke-opacity:1"/>
<path class="bond-25 atom-24 atom-26" d="M 265.8,144.7 L 267.8,135.2" style="fill:none;fill-rule:evenodd;stroke:#0000FF;stroke-width:2.0px;stroke-linecap:butt;stroke-linejoin:miter;stroke-opacity:1"/>
<path class="bond-25 atom-24 atom-26" d="M 267.8,135.2 L 269.8,125.7" style="fill:none;fill-rule:evenodd;stroke:#000000;stroke-width:2.0px;stroke-linecap:butt;stroke-linejoin:miter;stroke-opacity:1"/>
<path class="bond-26 atom-26 atom-27" d="M 269.8,125.7 L 290.1,113.9" style="fill:none;fill-rule:evenodd;stroke:#000000;stroke-width:2.0px;stroke-linecap:butt;stroke-linejoin:miter;stroke-opacity:1"/>
<path class="bond-27 atom-27 atom-28" d="M 288.3,114.9 L 297.1,119.9" style="fill:none;fill-rule:evenodd;stroke:#000000;stroke-width:2.0px;stroke-linecap:butt;stroke-linejoin:miter;stroke-opacity:1"/>
<path class="bond-27 atom-27 atom-28" d="M 297.1,119.9 L 305.8,124.9" style="fill:none;fill-rule:evenodd;stroke:#FF0000;stroke-width:2.0px;stroke-linecap:butt;stroke-linejoin:miter;stroke-opacity:1"/>
<path class="bond-27 atom-27 atom-28" d="M 290.1,111.8 L 298.8,116.8" style="fill:none;fill-rule:evenodd;stroke:#000000;stroke-width:2.0px;stroke-linecap:butt;stroke-linejoin:miter;stroke-opacity:1"/>
<path class="bond-27 atom-27 atom-28" d="M 298.8,116.8 L 307.6,121.8" style="fill:none;fill-rule:evenodd;stroke:#FF0000;stroke-width:2.0px;stroke-linecap:butt;stroke-linejoin:miter;stroke-opacity:1"/>
<path class="bond-28 atom-27 atom-29" d="M 290.1,113.9 L 290.1,104.2" style="fill:none;fill-rule:evenodd;stroke:#000000;stroke-width:2.0px;stroke-linecap:butt;stroke-linejoin:miter;stroke-opacity:1"/>
<path class="bond-28 atom-27 atom-29" d="M 290.1,104.2 L 290.0,94.4" style="fill:none;fill-rule:evenodd;stroke:#0000FF;stroke-width:2.0px;stroke-linecap:butt;stroke-linejoin:miter;stroke-opacity:1"/>
<path class="bond-29 atom-29 atom-30" d="M 286.7,88.4 L 278.1,83.5" style="fill:none;fill-rule:evenodd;stroke:#0000FF;stroke-width:2.0px;stroke-linecap:butt;stroke-linejoin:miter;stroke-opacity:1"/>
<path class="bond-29 atom-29 atom-30" d="M 278.1,83.5 L 269.6,78.6" style="fill:none;fill-rule:evenodd;stroke:#000000;stroke-width:2.0px;stroke-linecap:butt;stroke-linejoin:miter;stroke-opacity:1"/>
<path class="bond-30 atom-30 atom-31" d="M 269.6,78.6 L 269.5,68.9" style="fill:none;fill-rule:evenodd;stroke:#000000;stroke-width:2.0px;stroke-linecap:butt;stroke-linejoin:miter;stroke-opacity:1"/>
<path class="bond-30 atom-30 atom-31" d="M 269.5,68.9 L 269.5,59.2" style="fill:none;fill-rule:evenodd;stroke:#0000FF;stroke-width:2.0px;stroke-linecap:butt;stroke-linejoin:miter;stroke-opacity:1"/>
<path class="bond-31 atom-31 atom-32" d="M 272.8,53.2 L 281.3,48.2" style="fill:none;fill-rule:evenodd;stroke:#0000FF;stroke-width:2.0px;stroke-linecap:butt;stroke-linejoin:miter;stroke-opacity:1"/>
<path class="bond-31 atom-31 atom-32" d="M 281.3,48.2 L 289.8,43.2" style="fill:none;fill-rule:evenodd;stroke:#000000;stroke-width:2.0px;stroke-linecap:butt;stroke-linejoin:miter;stroke-opacity:1"/>
<path class="bond-32 atom-31 atom-33" d="M 266.2,53.2 L 257.6,48.3" style="fill:none;fill-rule:evenodd;stroke:#0000FF;stroke-width:2.0px;stroke-linecap:butt;stroke-linejoin:miter;stroke-opacity:1"/>
<path class="bond-32 atom-31 atom-33" d="M 257.6,48.3 L 249.1,43.4" style="fill:none;fill-rule:evenodd;stroke:#000000;stroke-width:2.0px;stroke-linecap:butt;stroke-linejoin:miter;stroke-opacity:1"/>
<path class="bond-33 atom-30 atom-34" d="M 269.6,78.6 L 261.1,83.6" style="fill:none;fill-rule:evenodd;stroke:#000000;stroke-width:2.0px;stroke-linecap:butt;stroke-linejoin:miter;stroke-opacity:1"/>
<path class="bond-33 atom-30 atom-34" d="M 261.1,83.6 L 252.5,88.6" style="fill:none;fill-rule:evenodd;stroke:#0000FF;stroke-width:2.0px;stroke-linecap:butt;stroke-linejoin:miter;stroke-opacity:1"/>
<path class="bond-33 atom-30 atom-34" d="M 269.6,82.7 L 262.0,87.2" style="fill:none;fill-rule:evenodd;stroke:#000000;stroke-width:2.0px;stroke-linecap:butt;stroke-linejoin:miter;stroke-opacity:1"/>
<path class="bond-33 atom-30 atom-34" d="M 262.0,87.2 L 254.3,91.6" style="fill:none;fill-rule:evenodd;stroke:#0000FF;stroke-width:2.0px;stroke-linecap:butt;stroke-linejoin:miter;stroke-opacity:1"/>
<path class="bond-34 atom-34 atom-35" d="M 249.3,94.6 L 249.3,104.3" style="fill:none;fill-rule:evenodd;stroke:#0000FF;stroke-width:2.0px;stroke-linecap:butt;stroke-linejoin:miter;stroke-opacity:1"/>
<path class="bond-34 atom-34 atom-35" d="M 249.3,104.3 L 249.3,114.0" style="fill:none;fill-rule:evenodd;stroke:#000000;stroke-width:2.0px;stroke-linecap:butt;stroke-linejoin:miter;stroke-opacity:1"/>
<path class="bond-35 atom-21 atom-36" d="M 208.8,125.0 L 191.4,140.9" style="fill:none;fill-rule:evenodd;stroke:#000000;stroke-width:2.0px;stroke-linecap:butt;stroke-linejoin:miter;stroke-opacity:1"/>
<path class="bond-36 atom-36 atom-37" d="M 191.4,140.9 L 192.5,150.5" style="fill:none;fill-rule:evenodd;stroke:#000000;stroke-width:2.0px;stroke-linecap:butt;stroke-linejoin:miter;stroke-opacity:1"/>
<path class="bond-36 atom-36 atom-37" d="M 192.5,150.5 L 193.5,160.1" style="fill:none;fill-rule:evenodd;stroke:#FF0000;stroke-width:2.0px;stroke-linecap:butt;stroke-linejoin:miter;stroke-opacity:1"/>
<path class="bond-37 atom-36 atom-38" d="M 191.4,140.9 L 171.0,129.2" style="fill:none;fill-rule:evenodd;stroke:#000000;stroke-width:2.0px;stroke-linecap:butt;stroke-linejoin:miter;stroke-opacity:1"/>
<path class="bond-38 atom-38 atom-39" d="M 171.0,129.2 L 162.2,133.1" style="fill:none;fill-rule:evenodd;stroke:#000000;stroke-width:2.0px;stroke-linecap:butt;stroke-linejoin:miter;stroke-opacity:1"/>
<path class="bond-38 atom-38 atom-39" d="M 162.2,133.1 L 153.3,137.1" style="fill:none;fill-rule:evenodd;stroke:#FF0000;stroke-width:2.0px;stroke-linecap:butt;stroke-linejoin:miter;stroke-opacity:1"/>
<path class="bond-39 atom-3 atom-40" d="M 83.7,126.1 L 74.5,129.1" style="fill:none;fill-rule:evenodd;stroke:#000000;stroke-width:2.0px;stroke-linecap:butt;stroke-linejoin:miter;stroke-opacity:1"/>
<path class="bond-39 atom-3 atom-40" d="M 74.5,129.1 L 65.2,132.2" style="fill:none;fill-rule:evenodd;stroke:#FF0000;stroke-width:2.0px;stroke-linecap:butt;stroke-linejoin:miter;stroke-opacity:1"/>
<path class="bond-40 atom-40 atom-41" d="M 61.4,137.7 L 61.4,147.3" style="fill:none;fill-rule:evenodd;stroke:#FF0000;stroke-width:2.0px;stroke-linecap:butt;stroke-linejoin:miter;stroke-opacity:1"/>
<path class="bond-40 atom-40 atom-41" d="M 61.4,147.3 L 61.5,157.0" style="fill:none;fill-rule:evenodd;stroke:#000000;stroke-width:2.0px;stroke-linecap:butt;stroke-linejoin:miter;stroke-opacity:1"/>
<path class="bond-41 atom-41 atom-42" d="M 61.5,157.0 L 53.1,163.1" style="fill:none;fill-rule:evenodd;stroke:#000000;stroke-width:2.0px;stroke-linecap:butt;stroke-linejoin:miter;stroke-opacity:1"/>
<path class="bond-41 atom-41 atom-42" d="M 53.1,163.1 L 44.8,169.2" style="fill:none;fill-rule:evenodd;stroke:#191919;stroke-width:2.0px;stroke-linecap:butt;stroke-linejoin:miter;stroke-opacity:1"/>
<path class="bond-42 atom-41 atom-43" d="M 61.5,157.0 L 83.9,164.2" style="fill:none;fill-rule:evenodd;stroke:#000000;stroke-width:2.0px;stroke-linecap:butt;stroke-linejoin:miter;stroke-opacity:1"/>
<path class="bond-43 atom-43 atom-44" d="M 83.9,164.2 L 86.9,173.3" style="fill:none;fill-rule:evenodd;stroke:#000000;stroke-width:2.0px;stroke-linecap:butt;stroke-linejoin:miter;stroke-opacity:1"/>
<path class="bond-43 atom-43 atom-44" d="M 86.9,173.3 L 89.9,182.4" style="fill:none;fill-rule:evenodd;stroke:#FF0000;stroke-width:2.0px;stroke-linecap:butt;stroke-linejoin:miter;stroke-opacity:1"/>
<path class="bond-44 atom-43 atom-2" d="M 83.9,164.2 L 97.6,145.1" style="fill:none;fill-rule:evenodd;stroke:#000000;stroke-width:2.0px;stroke-linecap:butt;stroke-linejoin:miter;stroke-opacity:1"/>
<path class="bond-45 atom-38 atom-19" d="M 171.0,129.2 L 175.8,106.1" style="fill:none;fill-rule:evenodd;stroke:#000000;stroke-width:2.0px;stroke-linecap:butt;stroke-linejoin:miter;stroke-opacity:1"/>
<path class="bond-46 atom-35 atom-22" d="M 249.3,114.0 L 242.3,120.4" style="fill:none;fill-rule:evenodd;stroke:#000000;stroke-width:2.0px;stroke-linecap:butt;stroke-linejoin:miter;stroke-opacity:1"/>
<path class="bond-46 atom-35 atom-22" d="M 242.3,120.4 L 235.2,126.9" style="fill:none;fill-rule:evenodd;stroke:#0000FF;stroke-width:2.0px;stroke-linecap:butt;stroke-linejoin:miter;stroke-opacity:1"/>
<path class="bond-47 atom-35 atom-26" d="M 249.3,114.0 L 269.8,125.7" style="fill:none;fill-rule:evenodd;stroke:#000000;stroke-width:2.0px;stroke-linecap:butt;stroke-linejoin:miter;stroke-opacity:1"/>
<path class="bond-47 atom-35 atom-26" d="M 249.8,118.4 L 265.8,127.5" style="fill:none;fill-rule:evenodd;stroke:#000000;stroke-width:2.0px;stroke-linecap:butt;stroke-linejoin:miter;stroke-opacity:1"/>
<path d="M 90.6,104.8 L 90.9,103.6 L 90.6,103.3" style="fill:none;stroke:#000000;stroke-width:2.0px;stroke-linecap:butt;stroke-linejoin:miter;stroke-opacity:1;"/>
<path d="M 160.1,88.2 L 160.0,88.7 L 160.7,89.6" style="fill:none;stroke:#000000;stroke-width:2.0px;stroke-linecap:butt;stroke-linejoin:miter;stroke-opacity:1;"/>
<path d="M 241.4,150.9 L 241.6,151.3 L 242.1,151.3" style="fill:none;stroke:#000000;stroke-width:2.0px;stroke-linecap:butt;stroke-linejoin:miter;stroke-opacity:1;"/>
<path d="M 289.1,114.5 L 290.1,113.9 L 290.1,113.4" style="fill:none;stroke:#000000;stroke-width:2.0px;stroke-linecap:butt;stroke-linejoin:miter;stroke-opacity:1;"/>
<path class="atom-0" d="M 131.8 164.6 L 132.8 163.6 L 131.5 163.3 L 131.7 162.6 L 132.9 163.2 L 132.7 161.9 L 133.4 161.9 L 133.2 163.2 L 134.4 162.7 L 134.6 163.3 L 133.3 163.6 L 134.2 164.6 L 133.7 165.0 L 133.0 163.7 L 132.4 165.0 L 131.8 164.6 " fill="#191919"/>
<path class="atom-1" d="M 118.1 145.0 Q 118.1 143.4, 118.9 142.5 Q 119.7 141.6, 121.2 141.6 Q 122.7 141.6, 123.5 142.5 Q 124.3 143.4, 124.3 145.0 Q 124.3 146.6, 123.5 147.5 Q 122.7 148.4, 121.2 148.4 Q 119.7 148.4, 118.9 147.5 Q 118.1 146.6, 118.1 145.0 M 121.2 147.7 Q 122.2 147.7, 122.8 147.0 Q 123.3 146.3, 123.3 145.0 Q 123.3 143.7, 122.8 143.0 Q 122.2 142.3, 121.2 142.3 Q 120.2 142.3, 119.6 143.0 Q 119.1 143.7, 119.1 145.0 Q 119.1 146.3, 119.6 147.0 Q 120.2 147.7, 121.2 147.7 " fill="#FF0000"/>
<path class="atom-5" d="M 72.0 86.2 Q 72.0 84.6, 72.8 83.7 Q 73.6 82.8, 75.1 82.8 Q 76.6 82.8, 77.4 83.7 Q 78.2 84.6, 78.2 86.2 Q 78.2 87.8, 77.4 88.8 Q 76.6 89.7, 75.1 89.7 Q 73.6 89.7, 72.8 88.8 Q 72.0 87.9, 72.0 86.2 M 75.1 88.9 Q 76.1 88.9, 76.7 88.3 Q 77.2 87.6, 77.2 86.2 Q 77.2 84.9, 76.7 84.3 Q 76.1 83.6, 75.1 83.6 Q 74.1 83.6, 73.5 84.2 Q 73.0 84.9, 73.0 86.2 Q 73.0 87.6, 73.5 88.3 Q 74.1 88.9, 75.1 88.9 " fill="#FF0000"/>
<path class="atom-6" d="M 82.1 60.5 Q 83.3 60.5, 83.8 61.0 Q 84.4 61.5, 84.4 62.4 Q 84.4 63.3, 83.8 63.9 Q 83.2 64.4, 82.1 64.4 L 81.1 64.4 L 81.1 67.1 L 80.2 67.1 L 80.2 60.5 L 82.1 60.5 M 82.1 63.6 Q 82.8 63.6, 83.1 63.3 Q 83.5 63.0, 83.5 62.4 Q 83.5 61.8, 83.1 61.5 Q 82.8 61.2, 82.1 61.2 L 81.1 61.2 L 81.1 63.6 L 82.1 63.6 " fill="#FF7F00"/>
<path class="atom-7" d="M 56.8 56.6 Q 56.8 55.0, 57.6 54.1 Q 58.4 53.2, 59.9 53.2 Q 61.3 53.2, 62.1 54.1 Q 62.9 55.0, 62.9 56.6 Q 62.9 58.2, 62.1 59.2 Q 61.3 60.1, 59.9 60.1 Q 58.4 60.1, 57.6 59.2 Q 56.8 58.2, 56.8 56.6 M 59.9 59.3 Q 60.9 59.3, 61.4 58.6 Q 62.0 58.0, 62.0 56.6 Q 62.0 55.3, 61.4 54.6 Q 60.9 54.0, 59.9 54.0 Q 58.9 54.0, 58.3 54.6 Q 57.8 55.3, 57.8 56.6 Q 57.8 58.0, 58.3 58.6 Q 58.9 59.3, 59.9 59.3 " fill="#FF0000"/>
<path class="atom-8" d="M 101.7 71.0 Q 101.7 69.4, 102.4 68.5 Q 103.2 67.6, 104.7 67.6 Q 106.2 67.6, 107.0 68.5 Q 107.8 69.4, 107.8 71.0 Q 107.8 72.6, 107.0 73.5 Q 106.2 74.5, 104.7 74.5 Q 103.2 74.5, 102.4 73.5 Q 101.7 72.6, 101.7 71.0 M 104.7 73.7 Q 105.7 73.7, 106.3 73.0 Q 106.8 72.3, 106.8 71.0 Q 106.8 69.7, 106.3 69.0 Q 105.7 68.4, 104.7 68.4 Q 103.7 68.4, 103.1 69.0 Q 102.6 69.7, 102.6 71.0 Q 102.6 72.3, 103.1 73.0 Q 103.7 73.7, 104.7 73.7 " fill="#FF0000"/>
<path class="atom-8" d="M 108.8 67.7 L 109.7 67.7 L 109.7 70.5 L 113.1 70.5 L 113.1 67.7 L 114.0 67.7 L 114.0 74.3 L 113.1 74.3 L 113.1 71.3 L 109.7 71.3 L 109.7 74.3 L 108.8 74.3 L 108.8 67.7 " fill="#FF0000"/>
<path class="atom-9" d="M 86.4 41.4 Q 86.4 39.8, 87.2 38.9 Q 88.0 38.0, 89.5 38.0 Q 91.0 38.0, 91.7 38.9 Q 92.5 39.8, 92.5 41.4 Q 92.5 43.0, 91.7 43.9 Q 90.9 44.8, 89.5 44.8 Q 88.0 44.8, 87.2 43.9 Q 86.4 43.0, 86.4 41.4 M 89.5 44.1 Q 90.5 44.1, 91.0 43.4 Q 91.6 42.7, 91.6 41.4 Q 91.6 40.1, 91.0 39.4 Q 90.5 38.7, 89.5 38.7 Q 88.5 38.7, 87.9 39.4 Q 87.4 40.1, 87.4 41.4 Q 87.4 42.7, 87.9 43.4 Q 88.5 44.1, 89.5 44.1 " fill="#FF0000"/>
<path class="atom-10" d="M 112.3 33.0 Q 113.5 33.0, 114.0 33.6 Q 114.6 34.1, 114.6 35.0 Q 114.6 35.9, 114.0 36.5 Q 113.4 37.0, 112.3 37.0 L 111.3 37.0 L 111.3 39.7 L 110.4 39.7 L 110.4 33.0 L 112.3 33.0 M 112.3 36.2 Q 113.0 36.2, 113.3 35.9 Q 113.7 35.6, 113.7 35.0 Q 113.7 34.4, 113.3 34.1 Q 113.0 33.8, 112.3 33.8 L 111.3 33.8 L 111.3 36.2 L 112.3 36.2 " fill="#FF7F00"/>
<path class="atom-11" d="M 104.4 13.4 Q 104.4 11.8, 105.2 10.9 Q 106.0 10.0, 107.5 10.0 Q 109.0 10.0, 109.8 10.9 Q 110.6 11.8, 110.6 13.4 Q 110.6 15.0, 109.8 15.9 Q 109.0 16.8, 107.5 16.8 Q 106.0 16.8, 105.2 15.9 Q 104.4 15.0, 104.4 13.4 M 107.5 16.1 Q 108.5 16.1, 109.1 15.4 Q 109.6 14.7, 109.6 13.4 Q 109.6 12.1, 109.1 11.4 Q 108.5 10.8, 107.5 10.8 Q 106.5 10.8, 105.9 11.4 Q 105.4 12.1, 105.4 13.4 Q 105.4 14.7, 105.9 15.4 Q 106.5 16.1, 107.5 16.1 " fill="#FF0000"/>
<path class="atom-12" d="M 114.4 59.4 Q 114.4 57.8, 115.2 56.9 Q 116.0 56.0, 117.5 56.0 Q 119.0 56.0, 119.7 56.9 Q 120.5 57.8, 120.5 59.4 Q 120.5 61.0, 119.7 62.0 Q 118.9 62.9, 117.5 62.9 Q 116.0 62.9, 115.2 62.0 Q 114.4 61.0, 114.4 59.4 M 117.5 62.1 Q 118.5 62.1, 119.0 61.4 Q 119.6 60.7, 119.6 59.4 Q 119.6 58.1, 119.0 57.4 Q 118.5 56.8, 117.5 56.8 Q 116.5 56.8, 115.9 57.4 Q 115.4 58.1, 115.4 59.4 Q 115.4 60.8, 115.9 61.4 Q 116.5 62.1, 117.5 62.1 " fill="#FF0000"/>
<path class="atom-12" d="M 121.6 56.1 L 122.5 56.1 L 122.5 58.9 L 125.9 58.9 L 125.9 56.1 L 126.8 56.1 L 126.8 62.8 L 125.9 62.8 L 125.9 59.7 L 122.5 59.7 L 122.5 62.8 L 121.6 62.8 L 121.6 56.1 " fill="#FF0000"/>
<path class="atom-13" d="M 132.4 31.4 Q 132.4 29.8, 133.2 28.9 Q 134.0 28.0, 135.5 28.0 Q 137.0 28.0, 137.8 28.9 Q 138.6 29.8, 138.6 31.4 Q 138.6 33.0, 137.8 34.0 Q 137.0 34.9, 135.5 34.9 Q 134.0 34.9, 133.2 34.0 Q 132.4 33.0, 132.4 31.4 M 135.5 34.1 Q 136.5 34.1, 137.1 33.4 Q 137.6 32.8, 137.6 31.4 Q 137.6 30.1, 137.1 29.4 Q 136.5 28.8, 135.5 28.8 Q 134.5 28.8, 133.9 29.4 Q 133.4 30.1, 133.4 31.4 Q 133.4 32.8, 133.9 33.4 Q 134.5 34.1, 135.5 34.1 " fill="#FF0000"/>
<path class="atom-14" d="M 151.2 45.5 Q 152.3 45.5, 152.9 46.0 Q 153.5 46.5, 153.5 47.5 Q 153.5 48.4, 152.9 48.9 Q 152.3 49.4, 151.2 49.4 L 150.1 49.4 L 150.1 52.2 L 149.2 52.2 L 149.2 45.5 L 151.2 45.5 M 151.2 48.7 Q 151.8 48.7, 152.2 48.4 Q 152.5 48.1, 152.5 47.5 Q 152.5 46.9, 152.2 46.6 Q 151.8 46.3, 151.2 46.3 L 150.1 46.3 L 150.1 48.7 L 151.2 48.7 " fill="#FF7F00"/>
<path class="atom-15" d="M 130.8 64.7 Q 130.8 63.1, 131.6 62.2 Q 132.4 61.3, 133.9 61.3 Q 135.4 61.3, 136.2 62.2 Q 136.9 63.1, 136.9 64.7 Q 136.9 66.3, 136.1 67.2 Q 135.3 68.1, 133.9 68.1 Q 132.4 68.1, 131.6 67.2 Q 130.8 66.3, 130.8 64.7 M 133.9 67.4 Q 134.9 67.4, 135.5 66.7 Q 136.0 66.0, 136.0 64.7 Q 136.0 63.4, 135.5 62.7 Q 134.9 62.0, 133.9 62.0 Q 132.9 62.0, 132.3 62.7 Q 131.8 63.4, 131.8 64.7 Q 131.8 66.0, 132.3 66.7 Q 132.9 67.4, 133.9 67.4 " fill="#FF0000"/>
<path class="atom-16" d="M 165.7 33.0 Q 165.7 31.4, 166.5 30.5 Q 167.3 29.6, 168.8 29.6 Q 170.2 29.6, 171.0 30.5 Q 171.8 31.4, 171.8 33.0 Q 171.8 34.6, 171.0 35.6 Q 170.2 36.5, 168.8 36.5 Q 167.3 36.5, 166.5 35.6 Q 165.7 34.7, 165.7 33.0 M 168.8 35.7 Q 169.8 35.7, 170.3 35.1 Q 170.9 34.4, 170.9 33.0 Q 170.9 31.7, 170.3 31.1 Q 169.8 30.4, 168.8 30.4 Q 167.7 30.4, 167.2 31.1 Q 166.6 31.7, 166.6 33.0 Q 166.6 34.4, 167.2 35.1 Q 167.7 35.7, 168.8 35.7 " fill="#FF0000"/>
<path class="atom-16" d="M 172.9 29.7 L 173.8 29.7 L 173.8 32.5 L 177.2 32.5 L 177.2 29.7 L 178.1 29.7 L 178.1 36.4 L 177.2 36.4 L 177.2 33.3 L 173.8 33.3 L 173.8 36.4 L 172.9 36.4 L 172.9 29.7 " fill="#FF0000"/>
<path class="atom-17" d="M 164.1 66.3 Q 164.1 64.7, 164.9 63.8 Q 165.7 62.9, 167.1 62.9 Q 168.6 62.9, 169.4 63.8 Q 170.2 64.7, 170.2 66.3 Q 170.2 67.9, 169.4 68.8 Q 168.6 69.7, 167.1 69.7 Q 165.7 69.7, 164.9 68.8 Q 164.1 67.9, 164.1 66.3 M 167.1 69.0 Q 168.2 69.0, 168.7 68.3 Q 169.3 67.6, 169.3 66.3 Q 169.3 65.0, 168.7 64.3 Q 168.2 63.7, 167.1 63.7 Q 166.1 63.7, 165.6 64.3 Q 165.0 65.0, 165.0 66.3 Q 165.0 67.6, 165.6 68.3 Q 166.1 69.0, 167.1 69.0 " fill="#FF0000"/>
<path class="atom-20" d="M 196.1 103.6 Q 196.1 102.0, 196.9 101.1 Q 197.7 100.2, 199.2 100.2 Q 200.7 100.2, 201.5 101.1 Q 202.2 102.0, 202.2 103.6 Q 202.2 105.2, 201.4 106.1 Q 200.6 107.0, 199.2 107.0 Q 197.7 107.0, 196.9 106.1 Q 196.1 105.2, 196.1 103.6 M 199.2 106.3 Q 200.2 106.3, 200.7 105.6 Q 201.3 104.9, 201.3 103.6 Q 201.3 102.3, 200.7 101.6 Q 200.2 101.0, 199.2 101.0 Q 198.2 101.0, 197.6 101.6 Q 197.1 102.3, 197.1 103.6 Q 197.1 104.9, 197.6 105.6 Q 198.2 106.3, 199.2 106.3 " fill="#FF0000"/>
<path class="atom-22" d="M 230.4 126.5 L 232.6 130.0 Q 232.8 130.4, 233.2 131.0 Q 233.5 131.7, 233.5 131.7 L 233.5 126.5 L 234.4 126.5 L 234.4 133.2 L 233.5 133.2 L 231.2 129.3 Q 230.9 128.9, 230.6 128.4 Q 230.3 127.8, 230.2 127.7 L 230.2 133.2 L 229.4 133.2 L 229.4 126.5 L 230.4 126.5 " fill="#0000FF"/>
<path class="atom-24" d="M 263.5 145.4 L 265.7 149.0 Q 265.9 149.3, 266.2 149.9 Q 266.6 150.6, 266.6 150.6 L 266.6 145.4 L 267.5 145.4 L 267.5 152.1 L 266.6 152.1 L 264.2 148.2 Q 264.0 147.8, 263.7 147.3 Q 263.4 146.8, 263.3 146.6 L 263.3 152.1 L 262.4 152.1 L 262.4 145.4 L 263.5 145.4 " fill="#0000FF"/>
<path class="atom-24" d="M 268.7 146.6 L 269.9 146.6 L 269.9 145.4 L 270.4 145.4 L 270.4 146.6 L 271.6 146.6 L 271.6 147.1 L 270.4 147.1 L 270.4 148.3 L 269.9 148.3 L 269.9 147.1 L 268.7 147.1 L 268.7 146.6 " fill="#0000FF"/>
<path class="atom-28" d="M 307.5 125.6 Q 307.5 124.0, 308.3 123.1 Q 309.1 122.2, 310.5 122.2 Q 312.0 122.2, 312.8 123.1 Q 313.6 124.0, 313.6 125.6 Q 313.6 127.2, 312.8 128.1 Q 312.0 129.0, 310.5 129.0 Q 309.1 129.0, 308.3 128.1 Q 307.5 127.2, 307.5 125.6 M 310.5 128.3 Q 311.6 128.3, 312.1 127.6 Q 312.7 126.9, 312.7 125.6 Q 312.7 124.3, 312.1 123.6 Q 311.6 122.9, 310.5 122.9 Q 309.5 122.9, 309.0 123.6 Q 308.4 124.3, 308.4 125.6 Q 308.4 126.9, 309.0 127.6 Q 309.5 128.3, 310.5 128.3 " fill="#FF0000"/>
<path class="atom-29" d="M 288.5 87.0 L 290.7 90.5 Q 290.9 90.9, 291.3 91.5 Q 291.6 92.1, 291.7 92.2 L 291.7 87.0 L 292.5 87.0 L 292.5 93.7 L 291.6 93.7 L 289.3 89.8 Q 289.0 89.3, 288.7 88.8 Q 288.4 88.3, 288.4 88.1 L 288.4 93.7 L 287.5 93.7 L 287.5 87.0 L 288.5 87.0 " fill="#0000FF"/>
<path class="atom-29" d="M 293.8 87.0 L 294.7 87.0 L 294.7 89.8 L 298.2 89.8 L 298.2 87.0 L 299.1 87.0 L 299.1 93.7 L 298.2 93.7 L 298.2 90.6 L 294.7 90.6 L 294.7 93.7 L 293.8 93.7 L 293.8 87.0 " fill="#0000FF"/>
<path class="atom-31" d="M 268.0 51.8 L 270.2 55.3 Q 270.4 55.6, 270.8 56.3 Q 271.1 56.9, 271.1 56.9 L 271.1 51.8 L 272.0 51.8 L 272.0 58.4 L 271.1 58.4 L 268.8 54.6 Q 268.5 54.1, 268.2 53.6 Q 267.9 53.1, 267.8 52.9 L 267.8 58.4 L 267.0 58.4 L 267.0 51.8 L 268.0 51.8 " fill="#0000FF"/>
<path class="atom-34" d="M 247.8 87.1 L 250.0 90.7 Q 250.2 91.0, 250.5 91.7 Q 250.9 92.3, 250.9 92.3 L 250.9 87.1 L 251.8 87.1 L 251.8 93.8 L 250.9 93.8 L 248.5 90.0 Q 248.2 89.5, 247.9 89.0 Q 247.7 88.5, 247.6 88.3 L 247.6 93.8 L 246.7 93.8 L 246.7 87.1 L 247.8 87.1 " fill="#0000FF"/>
<path class="atom-37" d="M 190.9 164.3 Q 190.9 162.7, 191.7 161.8 Q 192.5 160.9, 194.0 160.9 Q 195.4 160.9, 196.2 161.8 Q 197.0 162.7, 197.0 164.3 Q 197.0 165.9, 196.2 166.8 Q 195.4 167.7, 194.0 167.7 Q 192.5 167.7, 191.7 166.8 Q 190.9 165.9, 190.9 164.3 M 194.0 167.0 Q 195.0 167.0, 195.5 166.3 Q 196.1 165.6, 196.1 164.3 Q 196.1 163.0, 195.5 162.3 Q 195.0 161.7, 194.0 161.7 Q 192.9 161.7, 192.4 162.3 Q 191.8 163.0, 191.8 164.3 Q 191.8 165.6, 192.4 166.3 Q 192.9 167.0, 194.0 167.0 " fill="#FF0000"/>
<path class="atom-37" d="M 198.1 161.0 L 199.0 161.0 L 199.0 163.8 L 202.4 163.8 L 202.4 161.0 L 203.3 161.0 L 203.3 167.6 L 202.4 167.6 L 202.4 164.6 L 199.0 164.6 L 199.0 167.6 L 198.1 167.6 L 198.1 161.0 " fill="#FF0000"/>
<path class="atom-39" d="M 139.9 135.5 L 140.8 135.5 L 140.8 138.4 L 144.2 138.4 L 144.2 135.5 L 145.1 135.5 L 145.1 142.2 L 144.2 142.2 L 144.2 139.1 L 140.8 139.1 L 140.8 142.2 L 139.9 142.2 L 139.9 135.5 " fill="#FF0000"/>
<path class="atom-39" d="M 146.4 138.9 Q 146.4 137.3, 147.2 136.4 Q 148.0 135.5, 149.5 135.5 Q 151.0 135.5, 151.8 136.4 Q 152.6 137.3, 152.6 138.9 Q 152.6 140.5, 151.8 141.4 Q 151.0 142.3, 149.5 142.3 Q 148.0 142.3, 147.2 141.4 Q 146.4 140.5, 146.4 138.9 M 149.5 141.6 Q 150.5 141.6, 151.1 140.9 Q 151.6 140.2, 151.6 138.9 Q 151.6 137.5, 151.1 136.9 Q 150.5 136.2, 149.5 136.2 Q 148.5 136.2, 147.9 136.9 Q 147.4 137.5, 147.4 138.9 Q 147.4 140.2, 147.9 140.9 Q 148.5 141.6, 149.5 141.6 " fill="#FF0000"/>
<path class="atom-40" d="M 58.3 133.4 Q 58.3 131.8, 59.1 131.0 Q 59.9 130.1, 61.4 130.1 Q 62.9 130.1, 63.6 131.0 Q 64.4 131.8, 64.4 133.4 Q 64.4 135.1, 63.6 136.0 Q 62.8 136.9, 61.4 136.9 Q 59.9 136.9, 59.1 136.0 Q 58.3 135.1, 58.3 133.4 M 61.4 136.1 Q 62.4 136.1, 62.9 135.5 Q 63.5 134.8, 63.5 133.4 Q 63.5 132.1, 62.9 131.5 Q 62.4 130.8, 61.4 130.8 Q 60.4 130.8, 59.8 131.5 Q 59.3 132.1, 59.3 133.4 Q 59.3 134.8, 59.8 135.5 Q 60.4 136.1, 61.4 136.1 " fill="#FF0000"/>
<path class="atom-42" d="M 41.2 170.1 L 42.2 169.1 L 40.9 168.9 L 41.1 168.2 L 42.3 168.8 L 42.1 167.5 L 42.8 167.5 L 42.6 168.8 L 43.8 168.2 L 44.0 168.9 L 42.7 169.1 L 43.7 170.1 L 43.1 170.5 L 42.4 169.3 L 41.8 170.5 L 41.2 170.1 " fill="#191919"/>
<path class="atom-44" d="M 88.2 186.5 Q 88.2 184.9, 89.0 184.0 Q 89.8 183.2, 91.2 183.2 Q 92.7 183.2, 93.5 184.0 Q 94.3 184.9, 94.3 186.5 Q 94.3 188.2, 93.5 189.1 Q 92.7 190.0, 91.2 190.0 Q 89.8 190.0, 89.0 189.1 Q 88.2 188.2, 88.2 186.5 M 91.2 189.2 Q 92.3 189.2, 92.8 188.6 Q 93.4 187.9, 93.4 186.5 Q 93.4 185.2, 92.8 184.6 Q 92.3 183.9, 91.2 183.9 Q 90.2 183.9, 89.7 184.6 Q 89.1 185.2, 89.1 186.5 Q 89.1 187.9, 89.7 188.6 Q 90.2 189.2, 91.2 189.2 " fill="#FF0000"/>
<path class="atom-44" d="M 95.3 183.2 L 96.2 183.2 L 96.2 186.1 L 99.7 186.1 L 99.7 183.2 L 100.6 183.2 L 100.6 189.9 L 99.7 189.9 L 99.7 186.8 L 96.2 186.8 L 96.2 189.9 L 95.3 189.9 L 95.3 183.2 " fill="#FF0000"/>
</svg>
