<?xml version='1.0' encoding='ASCII' standalone='yes'?>
<svg xmlns="http://www.w3.org/2000/svg" xmlns:rdkit="http://www.rdkit.org/xml" xmlns:xlink="http://www.w3.org/1999/xlink" version="1.1" baseProfile="full" xml:space="preserve" width="338px" height="200px" viewBox="0 0 338 200">
<!-- END OF HEADER -->
<rect style="opacity:1.0;fill:#FFFFFF;stroke:none" width="338.0" height="200.0" x="0.0" y="0.0"> </rect>
<path class="bond-0 atom-0 atom-1" d="M 201.9,54.1 L 216.8,72.9" style="fill:none;fill-rule:evenodd;stroke:#000000;stroke-width:2.0px;stroke-linecap:butt;stroke-linejoin:miter;stroke-opacity:1"/>
<path class="bond-1 atom-1 atom-2" d="M 216.8,72.9 L 231.6,91.8" style="fill:none;fill-rule:evenodd;stroke:#000000;stroke-width:2.0px;stroke-linecap:butt;stroke-linejoin:miter;stroke-opacity:1"/>
<path class="bond-2 atom-1 atom-3" d="M 216.8,72.9 L 197.9,87.8" style="fill:none;fill-rule:evenodd;stroke:#000000;stroke-width:2.0px;stroke-linecap:butt;stroke-linejoin:miter;stroke-opacity:1"/>
<path class="bond-3 atom-3 atom-4" d="M 197.9,87.8 L 201.3,111.5" style="fill:none;fill-rule:evenodd;stroke:#000000;stroke-width:2.0px;stroke-linecap:butt;stroke-linejoin:miter;stroke-opacity:1"/>
<path class="bond-4 atom-4 atom-5" d="M 201.3,111.5 L 182.5,126.3" style="fill:none;fill-rule:evenodd;stroke:#000000;stroke-width:2.0px;stroke-linecap:butt;stroke-linejoin:miter;stroke-opacity:1"/>
<path class="bond-5 atom-5 atom-6" d="M 182.5,126.3 L 176.8,119.0" style="fill:none;fill-rule:evenodd;stroke:#000000;stroke-width:2.0px;stroke-linecap:butt;stroke-linejoin:miter;stroke-opacity:1"/>
<path class="bond-5 atom-5 atom-6" d="M 176.8,119.0 L 171.1,111.8" style="fill:none;fill-rule:evenodd;stroke:#FF0000;stroke-width:2.0px;stroke-linecap:butt;stroke-linejoin:miter;stroke-opacity:1"/>
<path class="bond-6 atom-5 atom-7" d="M 182.5,126.3 L 163.7,141.1" style="fill:none;fill-rule:evenodd;stroke:#000000;stroke-width:2.0px;stroke-linecap:butt;stroke-linejoin:miter;stroke-opacity:1"/>
<path class="bond-7 atom-7 atom-8" d="M 163.7,141.1 L 141.4,132.2" style="fill:none;fill-rule:evenodd;stroke:#000000;stroke-width:2.0px;stroke-linecap:butt;stroke-linejoin:miter;stroke-opacity:1"/>
<path class="bond-8 atom-8 atom-9" d="M 141.4,132.2 L 132.5,154.5" style="fill:none;fill-rule:evenodd;stroke:#000000;stroke-width:2.0px;stroke-linecap:butt;stroke-linejoin:miter;stroke-opacity:1"/>
<path class="bond-9 atom-8 atom-10" d="M 141.4,132.2 L 150.3,110.0" style="fill:none;fill-rule:evenodd;stroke:#000000;stroke-width:2.0px;stroke-linecap:butt;stroke-linejoin:miter;stroke-opacity:1"/>
<path class="bond-10 atom-8 atom-11" d="M 141.4,132.2 L 119.2,123.3" style="fill:none;fill-rule:evenodd;stroke:#000000;stroke-width:2.0px;stroke-linecap:butt;stroke-linejoin:miter;stroke-opacity:1"/>
<path class="bond-11 atom-11 atom-12" d="M 119.2,123.3 L 115.7,99.6" style="fill:none;fill-rule:evenodd;stroke:#000000;stroke-width:2.0px;stroke-linecap:butt;stroke-linejoin:miter;stroke-opacity:1"/>
<path class="bond-12 atom-12 atom-13" d="M 115.7,99.6 L 93.5,90.7" style="fill:none;fill-rule:evenodd;stroke:#000000;stroke-width:2.0px;stroke-linecap:butt;stroke-linejoin:miter;stroke-opacity:1"/>
<path class="bond-13 atom-13 atom-14" d="M 93.5,90.7 L 90.1,67.0" style="fill:none;fill-rule:evenodd;stroke:#000000;stroke-width:2.0px;stroke-linecap:butt;stroke-linejoin:miter;stroke-opacity:1"/>
<path class="bond-14 atom-14 atom-15" d="M 90.1,67.0 L 97.5,61.1" style="fill:none;fill-rule:evenodd;stroke:#000000;stroke-width:2.0px;stroke-linecap:butt;stroke-linejoin:miter;stroke-opacity:1"/>
<path class="bond-14 atom-14 atom-15" d="M 97.5,61.1 L 105.0,55.2" style="fill:none;fill-rule:evenodd;stroke:#FF0000;stroke-width:2.0px;stroke-linecap:butt;stroke-linejoin:miter;stroke-opacity:1"/>
<path class="bond-15 atom-14 atom-16" d="M 90.1,67.0 L 67.8,58.1" style="fill:none;fill-rule:evenodd;stroke:#000000;stroke-width:2.0px;stroke-linecap:butt;stroke-linejoin:miter;stroke-opacity:1"/>
<path class="bond-16 atom-16 atom-17" d="M 67.8,58.1 L 58.9,80.3" style="fill:none;fill-rule:evenodd;stroke:#000000;stroke-width:2.0px;stroke-linecap:butt;stroke-linejoin:miter;stroke-opacity:1"/>
<path class="bond-17 atom-16 atom-18" d="M 67.8,58.1 L 76.7,35.8" style="fill:none;fill-rule:evenodd;stroke:#000000;stroke-width:2.0px;stroke-linecap:butt;stroke-linejoin:miter;stroke-opacity:1"/>
<path class="bond-18 atom-16 atom-19" d="M 67.8,58.1 L 45.6,49.1" style="fill:none;fill-rule:evenodd;stroke:#000000;stroke-width:2.0px;stroke-linecap:butt;stroke-linejoin:miter;stroke-opacity:1"/>
<path class="bond-19 atom-19 atom-20" d="M 47.5,49.9 L 46.0,39.7" style="fill:none;fill-rule:evenodd;stroke:#000000;stroke-width:2.0px;stroke-linecap:butt;stroke-linejoin:miter;stroke-opacity:1"/>
<path class="bond-19 atom-19 atom-20" d="M 46.0,39.7 L 44.5,29.5" style="fill:none;fill-rule:evenodd;stroke:#FF0000;stroke-width:2.0px;stroke-linecap:butt;stroke-linejoin:miter;stroke-opacity:1"/>
<path class="bond-19 atom-19 atom-20" d="M 43.9,50.4 L 42.5,40.2" style="fill:none;fill-rule:evenodd;stroke:#000000;stroke-width:2.0px;stroke-linecap:butt;stroke-linejoin:miter;stroke-opacity:1"/>
<path class="bond-19 atom-19 atom-20" d="M 42.5,40.2 L 41.0,30.0" style="fill:none;fill-rule:evenodd;stroke:#FF0000;stroke-width:2.0px;stroke-linecap:butt;stroke-linejoin:miter;stroke-opacity:1"/>
<path class="bond-20 atom-19 atom-21" d="M 45.6,49.1 L 38.1,55.0" style="fill:none;fill-rule:evenodd;stroke:#000000;stroke-width:2.0px;stroke-linecap:butt;stroke-linejoin:miter;stroke-opacity:1"/>
<path class="bond-20 atom-19 atom-21" d="M 38.1,55.0 L 30.6,60.9" style="fill:none;fill-rule:evenodd;stroke:#FF0000;stroke-width:2.0px;stroke-linecap:butt;stroke-linejoin:miter;stroke-opacity:1"/>
<path class="bond-21 atom-5 atom-22" d="M 182.5,126.3 L 197.3,145.1" style="fill:none;fill-rule:evenodd;stroke:#000000;stroke-width:2.0px;stroke-linecap:butt;stroke-linejoin:miter;stroke-opacity:1"/>
<path class="bond-22 atom-22 atom-23" d="M 197.3,145.1 L 216.2,130.3" style="fill:none;fill-rule:evenodd;stroke:#000000;stroke-width:2.0px;stroke-linecap:butt;stroke-linejoin:miter;stroke-opacity:1"/>
<path class="bond-23 atom-22 atom-24" d="M 197.3,145.1 L 178.5,160.0" style="fill:none;fill-rule:evenodd;stroke:#000000;stroke-width:2.0px;stroke-linecap:butt;stroke-linejoin:miter;stroke-opacity:1"/>
<path class="bond-24 atom-22 atom-25" d="M 197.3,145.1 L 212.1,164.0" style="fill:none;fill-rule:evenodd;stroke:#000000;stroke-width:2.0px;stroke-linecap:butt;stroke-linejoin:miter;stroke-opacity:1"/>
<path class="bond-25 atom-25 atom-26" d="M 210.9,162.4 L 207.1,171.8" style="fill:none;fill-rule:evenodd;stroke:#000000;stroke-width:2.0px;stroke-linecap:butt;stroke-linejoin:miter;stroke-opacity:1"/>
<path class="bond-25 atom-25 atom-26" d="M 207.1,171.8 L 203.3,181.3" style="fill:none;fill-rule:evenodd;stroke:#FF0000;stroke-width:2.0px;stroke-linecap:butt;stroke-linejoin:miter;stroke-opacity:1"/>
<path class="bond-25 atom-25 atom-26" d="M 214.2,163.7 L 210.4,173.2" style="fill:none;fill-rule:evenodd;stroke:#000000;stroke-width:2.0px;stroke-linecap:butt;stroke-linejoin:miter;stroke-opacity:1"/>
<path class="bond-25 atom-25 atom-26" d="M 210.4,173.2 L 206.6,182.7" style="fill:none;fill-rule:evenodd;stroke:#FF0000;stroke-width:2.0px;stroke-linecap:butt;stroke-linejoin:miter;stroke-opacity:1"/>
<path class="bond-26 atom-25 atom-27" d="M 212.1,164.0 L 222.0,162.6" style="fill:none;fill-rule:evenodd;stroke:#000000;stroke-width:2.0px;stroke-linecap:butt;stroke-linejoin:miter;stroke-opacity:1"/>
<path class="bond-26 atom-25 atom-27" d="M 222.0,162.6 L 232.0,161.1" style="fill:none;fill-rule:evenodd;stroke:#FF0000;stroke-width:2.0px;stroke-linecap:butt;stroke-linejoin:miter;stroke-opacity:1"/>
<path class="bond-27 atom-1 atom-28" d="M 216.8,72.9 L 235.6,58.1" style="fill:none;fill-rule:evenodd;stroke:#000000;stroke-width:2.0px;stroke-linecap:butt;stroke-linejoin:miter;stroke-opacity:1"/>
<path class="bond-28 atom-28 atom-29" d="M 235.6,58.1 L 257.9,67.0" style="fill:none;fill-rule:evenodd;stroke:#000000;stroke-width:2.0px;stroke-linecap:butt;stroke-linejoin:miter;stroke-opacity:1"/>
<path class="bond-29 atom-29 atom-30" d="M 257.9,67.0 L 259.3,76.8" style="fill:none;fill-rule:evenodd;stroke:#000000;stroke-width:2.0px;stroke-linecap:butt;stroke-linejoin:miter;stroke-opacity:1"/>
<path class="bond-29 atom-29 atom-30" d="M 259.3,76.8 L 260.7,86.5" style="fill:none;fill-rule:evenodd;stroke:#FF0000;stroke-width:2.0px;stroke-linecap:butt;stroke-linejoin:miter;stroke-opacity:1"/>
<path class="bond-30 atom-29 atom-31" d="M 257.9,67.0 L 276.7,52.2" style="fill:none;fill-rule:evenodd;stroke:#000000;stroke-width:2.0px;stroke-linecap:butt;stroke-linejoin:miter;stroke-opacity:1"/>
<path class="bond-31 atom-31 atom-32" d="M 276.7,52.2 L 261.9,33.4" style="fill:none;fill-rule:evenodd;stroke:#000000;stroke-width:2.0px;stroke-linecap:butt;stroke-linejoin:miter;stroke-opacity:1"/>
<path class="bond-32 atom-31 atom-33" d="M 276.7,52.2 L 291.5,71.0" style="fill:none;fill-rule:evenodd;stroke:#000000;stroke-width:2.0px;stroke-linecap:butt;stroke-linejoin:miter;stroke-opacity:1"/>
<path class="bond-33 atom-31 atom-34" d="M 276.7,52.2 L 295.5,37.4" style="fill:none;fill-rule:evenodd;stroke:#000000;stroke-width:2.0px;stroke-linecap:butt;stroke-linejoin:miter;stroke-opacity:1"/>
<path class="bond-34 atom-34 atom-35" d="M 293.9,38.7 L 303.6,42.5" style="fill:none;fill-rule:evenodd;stroke:#000000;stroke-width:2.0px;stroke-linecap:butt;stroke-linejoin:miter;stroke-opacity:1"/>
<path class="bond-34 atom-34 atom-35" d="M 303.6,42.5 L 313.2,46.4" style="fill:none;fill-rule:evenodd;stroke:#FF0000;stroke-width:2.0px;stroke-linecap:butt;stroke-linejoin:miter;stroke-opacity:1"/>
<path class="bond-34 atom-34 atom-35" d="M 295.2,35.3 L 304.9,39.2" style="fill:none;fill-rule:evenodd;stroke:#000000;stroke-width:2.0px;stroke-linecap:butt;stroke-linejoin:miter;stroke-opacity:1"/>
<path class="bond-34 atom-34 atom-35" d="M 304.9,39.2 L 314.5,43.1" style="fill:none;fill-rule:evenodd;stroke:#FF0000;stroke-width:2.0px;stroke-linecap:butt;stroke-linejoin:miter;stroke-opacity:1"/>
<path class="bond-35 atom-34 atom-36" d="M 295.5,37.4 L 294.1,27.7" style="fill:none;fill-rule:evenodd;stroke:#000000;stroke-width:2.0px;stroke-linecap:butt;stroke-linejoin:miter;stroke-opacity:1"/>
<path class="bond-35 atom-34 atom-36" d="M 294.1,27.7 L 292.7,18.0" style="fill:none;fill-rule:evenodd;stroke:#FF0000;stroke-width:2.0px;stroke-linecap:butt;stroke-linejoin:miter;stroke-opacity:1"/>
<path d="M 198.9,87.0 L 197.9,87.8 L 198.1,88.9" style="fill:none;stroke:#000000;stroke-width:2.0px;stroke-linecap:butt;stroke-linejoin:miter;stroke-opacity:1;"/>
<path d="M 201.2,110.3 L 201.3,111.5 L 200.4,112.2" style="fill:none;stroke:#000000;stroke-width:2.0px;stroke-linecap:butt;stroke-linejoin:miter;stroke-opacity:1;"/>
<path d="M 164.6,140.4 L 163.7,141.1 L 162.5,140.7" style="fill:none;stroke:#000000;stroke-width:2.0px;stroke-linecap:butt;stroke-linejoin:miter;stroke-opacity:1;"/>
<path d="M 120.3,123.8 L 119.2,123.3 L 119.0,122.1" style="fill:none;stroke:#000000;stroke-width:2.0px;stroke-linecap:butt;stroke-linejoin:miter;stroke-opacity:1;"/>
<path d="M 115.9,100.8 L 115.7,99.6 L 114.6,99.1" style="fill:none;stroke:#000000;stroke-width:2.0px;stroke-linecap:butt;stroke-linejoin:miter;stroke-opacity:1;"/>
<path d="M 94.6,91.1 L 93.5,90.7 L 93.3,89.5" style="fill:none;stroke:#000000;stroke-width:2.0px;stroke-linecap:butt;stroke-linejoin:miter;stroke-opacity:1;"/>
<path d="M 46.7,49.6 L 45.6,49.1 L 45.2,49.4" style="fill:none;stroke:#000000;stroke-width:2.0px;stroke-linecap:butt;stroke-linejoin:miter;stroke-opacity:1;"/>
<path d="M 211.4,163.0 L 212.1,164.0 L 212.6,163.9" style="fill:none;stroke:#000000;stroke-width:2.0px;stroke-linecap:butt;stroke-linejoin:miter;stroke-opacity:1;"/>
<path d="M 234.7,58.9 L 235.6,58.1 L 236.7,58.6" style="fill:none;stroke:#000000;stroke-width:2.0px;stroke-linecap:butt;stroke-linejoin:miter;stroke-opacity:1;"/>
<path d="M 294.6,38.1 L 295.5,37.4 L 295.5,36.9" style="fill:none;stroke:#000000;stroke-width:2.0px;stroke-linecap:butt;stroke-linejoin:miter;stroke-opacity:1;"/>
<path class="atom-6" d="M 157.9 104.1 L 158.8 104.1 L 158.8 107.0 L 162.2 107.0 L 162.2 104.1 L 163.2 104.1 L 163.2 110.9 L 162.2 110.9 L 162.2 107.8 L 158.8 107.8 L 158.8 110.9 L 157.9 110.9 L 157.9 104.1 " fill="#FF0000"/>
<path class="atom-6" d="M 164.6 107.5 Q 164.6 105.9, 165.4 104.9 Q 166.2 104.0, 167.7 104.0 Q 169.2 104.0, 170.0 104.9 Q 170.8 105.9, 170.8 107.5 Q 170.8 109.1, 170.0 110.1 Q 169.2 111.0, 167.7 111.0 Q 166.2 111.0, 165.4 110.1 Q 164.6 109.1, 164.6 107.5 M 167.7 110.2 Q 168.7 110.2, 169.3 109.5 Q 169.8 108.8, 169.8 107.5 Q 169.8 106.2, 169.3 105.5 Q 168.7 104.8, 167.7 104.8 Q 166.6 104.8, 166.1 105.5 Q 165.5 106.1, 165.5 107.5 Q 165.5 108.9, 166.1 109.5 Q 166.6 110.2, 167.7 110.2 " fill="#FF0000"/>
<path class="atom-15" d="M 105.8 52.2 Q 105.8 50.5, 106.6 49.6 Q 107.4 48.7, 108.9 48.7 Q 110.4 48.7, 111.2 49.6 Q 112.0 50.5, 112.0 52.2 Q 112.0 53.8, 111.2 54.7 Q 110.4 55.7, 108.9 55.7 Q 107.4 55.7, 106.6 54.7 Q 105.8 53.8, 105.8 52.2 M 108.9 54.9 Q 109.9 54.9, 110.5 54.2 Q 111.1 53.5, 111.1 52.2 Q 111.1 50.8, 110.5 50.2 Q 109.9 49.5, 108.9 49.5 Q 107.9 49.5, 107.3 50.1 Q 106.7 50.8, 106.7 52.2 Q 106.7 53.5, 107.3 54.2 Q 107.9 54.9, 108.9 54.9 " fill="#FF0000"/>
<path class="atom-15" d="M 113.1 48.8 L 114.0 48.8 L 114.0 51.7 L 117.5 51.7 L 117.5 48.8 L 118.4 48.8 L 118.4 55.6 L 117.5 55.6 L 117.5 52.4 L 114.0 52.4 L 114.0 55.6 L 113.1 55.6 L 113.1 48.8 " fill="#FF0000"/>
<path class="atom-20" d="M 39.0 25.4 Q 39.0 23.8, 39.8 22.9 Q 40.6 22.0, 42.1 22.0 Q 43.6 22.0, 44.5 22.9 Q 45.3 23.8, 45.3 25.4 Q 45.3 27.1, 44.4 28.0 Q 43.6 29.0, 42.1 29.0 Q 40.6 29.0, 39.8 28.0 Q 39.0 27.1, 39.0 25.4 M 42.1 28.2 Q 43.2 28.2, 43.7 27.5 Q 44.3 26.8, 44.3 25.4 Q 44.3 24.1, 43.7 23.4 Q 43.2 22.8, 42.1 22.8 Q 41.1 22.8, 40.5 23.4 Q 40.0 24.1, 40.0 25.4 Q 40.0 26.8, 40.5 27.5 Q 41.1 28.2, 42.1 28.2 " fill="#FF0000"/>
<path class="atom-21" d="M 16.9 60.6 L 17.8 60.6 L 17.8 63.5 L 21.3 63.5 L 21.3 60.6 L 22.2 60.6 L 22.2 67.4 L 21.3 67.4 L 21.3 64.3 L 17.8 64.3 L 17.8 67.4 L 16.9 67.4 L 16.9 60.6 " fill="#FF0000"/>
<path class="atom-21" d="M 23.6 64.0 Q 23.6 62.4, 24.4 61.4 Q 25.2 60.5, 26.7 60.5 Q 28.2 60.5, 29.0 61.4 Q 29.8 62.4, 29.8 64.0 Q 29.8 65.6, 29.0 66.6 Q 28.2 67.5, 26.7 67.5 Q 25.2 67.5, 24.4 66.6 Q 23.6 65.6, 23.6 64.0 M 26.7 66.7 Q 27.8 66.7, 28.3 66.1 Q 28.9 65.4, 28.9 64.0 Q 28.9 62.7, 28.3 62.0 Q 27.8 61.3, 26.7 61.3 Q 25.7 61.3, 25.1 62.0 Q 24.6 62.6, 24.6 64.0 Q 24.6 65.4, 25.1 66.1 Q 25.7 66.7, 26.7 66.7 " fill="#FF0000"/>
<path class="atom-26" d="M 200.1 186.3 Q 200.1 184.6, 200.9 183.7 Q 201.7 182.8, 203.2 182.8 Q 204.7 182.8, 205.5 183.7 Q 206.3 184.6, 206.3 186.3 Q 206.3 187.9, 205.5 188.8 Q 204.7 189.8, 203.2 189.8 Q 201.7 189.8, 200.9 188.8 Q 200.1 187.9, 200.1 186.3 M 203.2 189.0 Q 204.3 189.0, 204.8 188.3 Q 205.4 187.6, 205.4 186.3 Q 205.4 184.9, 204.8 184.3 Q 204.3 183.6, 203.2 183.6 Q 202.2 183.6, 201.6 184.2 Q 201.1 184.9, 201.1 186.3 Q 201.1 187.6, 201.6 188.3 Q 202.2 189.0, 203.2 189.0 " fill="#FF0000"/>
<path class="atom-27" d="M 232.7 160.6 Q 232.7 159.0, 233.6 158.0 Q 234.4 157.1, 235.9 157.1 Q 237.4 157.1, 238.2 158.0 Q 239.0 159.0, 239.0 160.6 Q 239.0 162.2, 238.2 163.2 Q 237.3 164.1, 235.9 164.1 Q 234.4 164.1, 233.6 163.2 Q 232.7 162.2, 232.7 160.6 M 235.9 163.3 Q 236.9 163.3, 237.5 162.6 Q 238.0 161.9, 238.0 160.6 Q 238.0 159.3, 237.5 158.6 Q 236.9 157.9, 235.9 157.9 Q 234.8 157.9, 234.3 158.6 Q 233.7 159.2, 233.7 160.6 Q 233.7 162.0, 234.3 162.6 Q 234.8 163.3, 235.9 163.3 " fill="#FF0000"/>
<path class="atom-27" d="M 240.0 157.2 L 241.0 157.2 L 241.0 160.1 L 244.4 160.1 L 244.4 157.2 L 245.3 157.2 L 245.3 164.0 L 244.4 164.0 L 244.4 160.9 L 241.0 160.9 L 241.0 164.0 L 240.0 164.0 L 240.0 157.2 " fill="#FF0000"/>
<path class="atom-30" d="M 258.2 90.8 Q 258.2 89.1, 259.0 88.2 Q 259.8 87.3, 261.3 87.3 Q 262.8 87.3, 263.6 88.2 Q 264.4 89.1, 264.4 90.8 Q 264.4 92.4, 263.6 93.4 Q 262.8 94.3, 261.3 94.3 Q 259.8 94.3, 259.0 93.4 Q 258.2 92.4, 258.2 90.8 M 261.3 93.5 Q 262.3 93.5, 262.9 92.8 Q 263.4 92.1, 263.4 90.8 Q 263.4 89.4, 262.9 88.8 Q 262.3 88.1, 261.3 88.1 Q 260.2 88.1, 259.7 88.8 Q 259.1 89.4, 259.1 90.8 Q 259.1 92.1, 259.7 92.8 Q 260.2 93.5, 261.3 93.5 " fill="#FF0000"/>
<path class="atom-30" d="M 265.4 87.4 L 266.4 87.4 L 266.4 90.3 L 269.8 90.3 L 269.8 87.4 L 270.8 87.4 L 270.8 94.2 L 269.8 94.2 L 269.8 91.0 L 266.4 91.0 L 266.4 94.2 L 265.4 94.2 L 265.4 87.4 " fill="#FF0000"/>
<path class="atom-35" d="M 314.7 46.3 Q 314.7 44.7, 315.5 43.8 Q 316.3 42.9, 317.8 42.9 Q 319.3 42.9, 320.1 43.8 Q 320.9 44.7, 320.9 46.3 Q 320.9 48.0, 320.1 48.9 Q 319.3 49.8, 317.8 49.8 Q 316.3 49.8, 315.5 48.9 Q 314.7 48.0, 314.7 46.3 M 317.8 49.1 Q 318.8 49.1, 319.4 48.4 Q 319.9 47.7, 319.9 46.3 Q 319.9 45.0, 319.4 44.3 Q 318.8 43.6, 317.8 43.6 Q 316.7 43.6, 316.2 44.3 Q 315.6 45.0, 315.6 46.3 Q 315.6 47.7, 316.2 48.4 Q 316.7 49.1, 317.8 49.1 " fill="#FF0000"/>
<path class="atom-36" d="M 289.0 13.7 Q 289.0 12.0, 289.8 11.1 Q 290.6 10.2, 292.1 10.2 Q 293.6 10.2, 294.4 11.1 Q 295.2 12.0, 295.2 13.7 Q 295.2 15.3, 294.4 16.3 Q 293.6 17.2, 292.1 17.2 Q 290.6 17.2, 289.8 16.3 Q 289.0 15.3, 289.0 13.7 M 292.1 16.4 Q 293.2 16.4, 293.7 15.7 Q 294.3 15.0, 294.3 13.7 Q 294.3 12.3, 293.7 11.7 Q 293.2 11.0, 292.1 11.0 Q 291.1 11.0, 290.5 11.7 Q 290.0 12.3, 290.0 13.7 Q 290.0 15.0, 290.5 15.7 Q 291.1 16.4, 292.1 16.4 " fill="#FF0000"/>
<path class="atom-36" d="M 296.3 10.3 L 297.2 10.3 L 297.2 13.2 L 300.7 13.2 L 300.7 10.3 L 301.6 10.3 L 301.6 17.1 L 300.7 17.1 L 300.7 14.0 L 297.2 14.0 L 297.2 17.1 L 296.3 17.1 L 296.3 10.3 " fill="#FF0000"/>
</svg>
