<?xml version='1.0' encoding='ASCII' standalone='yes'?>
<svg xmlns="http://www.w3.org/2000/svg" xmlns:rdkit="http://www.rdkit.org/xml" xmlns:xlink="http://www.w3.org/1999/xlink" version="1.1" baseProfile="full" xml:space="preserve" width="285px" height="200px" viewBox="0 0 285 200">
<!-- END OF HEADER -->
<rect style="opacity:1.0;fill:#FFFFFF;stroke:none" width="285.0" height="200.0" x="0.0" y="0.0"> </rect>
<path class="bond-0 atom-0 atom-1" d="M 28.1,150.6 L 60.8,157.4" style="fill:none;fill-rule:evenodd;stroke:#000000;stroke-width:2.0px;stroke-linecap:butt;stroke-linejoin:miter;stroke-opacity:1"/>
<path class="bond-1 atom-1 atom-2" d="M 60.8,157.4 L 93.4,164.2" style="fill:none;fill-rule:evenodd;stroke:#000000;stroke-width:2.0px;stroke-linecap:butt;stroke-linejoin:miter;stroke-opacity:1"/>
<path class="bond-2 atom-1 atom-3" d="M 60.8,157.4 L 54.0,190.0" style="fill:none;fill-rule:evenodd;stroke:#000000;stroke-width:2.0px;stroke-linecap:butt;stroke-linejoin:miter;stroke-opacity:1"/>
<path class="bond-3 atom-1 atom-4" d="M 60.8,157.4 L 67.5,124.8" style="fill:none;fill-rule:evenodd;stroke:#000000;stroke-width:2.0px;stroke-linecap:butt;stroke-linejoin:miter;stroke-opacity:1"/>
<path class="bond-4 atom-4 atom-5" d="M 67.5,124.8 L 99.2,114.3" style="fill:none;fill-rule:evenodd;stroke:#000000;stroke-width:2.0px;stroke-linecap:butt;stroke-linejoin:miter;stroke-opacity:1"/>
<path class="bond-5 atom-5 atom-6" d="M 99.2,114.3 L 106.0,81.7" style="fill:none;fill-rule:evenodd;stroke:#000000;stroke-width:2.0px;stroke-linecap:butt;stroke-linejoin:miter;stroke-opacity:1"/>
<path class="bond-6 atom-6 atom-7" d="M 106.0,81.7 L 137.6,71.3" style="fill:none;fill-rule:evenodd;stroke:#000000;stroke-width:2.0px;stroke-linecap:butt;stroke-linejoin:miter;stroke-opacity:1"/>
<path class="bond-7 atom-7 atom-8" d="M 137.6,71.3 L 169.3,60.9" style="fill:none;fill-rule:evenodd;stroke:#000000;stroke-width:2.0px;stroke-linecap:butt;stroke-linejoin:miter;stroke-opacity:1"/>
<path class="bond-8 atom-7 atom-9" d="M 137.6,71.3 L 127.2,39.6" style="fill:none;fill-rule:evenodd;stroke:#000000;stroke-width:2.0px;stroke-linecap:butt;stroke-linejoin:miter;stroke-opacity:1"/>
<path class="bond-9 atom-9 atom-10" d="M 129.1,37.5 L 114.8,34.5" style="fill:none;fill-rule:evenodd;stroke:#000000;stroke-width:2.0px;stroke-linecap:butt;stroke-linejoin:miter;stroke-opacity:1"/>
<path class="bond-9 atom-9 atom-10" d="M 114.8,34.5 L 100.5,31.5" style="fill:none;fill-rule:evenodd;stroke:#FF0000;stroke-width:2.0px;stroke-linecap:butt;stroke-linejoin:miter;stroke-opacity:1"/>
<path class="bond-9 atom-9 atom-10" d="M 128.1,42.4 L 113.8,39.4" style="fill:none;fill-rule:evenodd;stroke:#000000;stroke-width:2.0px;stroke-linecap:butt;stroke-linejoin:miter;stroke-opacity:1"/>
<path class="bond-9 atom-9 atom-10" d="M 113.8,39.4 L 99.5,36.4" style="fill:none;fill-rule:evenodd;stroke:#FF0000;stroke-width:2.0px;stroke-linecap:butt;stroke-linejoin:miter;stroke-opacity:1"/>
<path class="bond-10 atom-9 atom-11" d="M 127.2,39.6 L 135.6,30.2" style="fill:none;fill-rule:evenodd;stroke:#000000;stroke-width:2.0px;stroke-linecap:butt;stroke-linejoin:miter;stroke-opacity:1"/>
<path class="bond-10 atom-9 atom-11" d="M 135.6,30.2 L 144.0,20.8" style="fill:none;fill-rule:evenodd;stroke:#FF0000;stroke-width:2.0px;stroke-linecap:butt;stroke-linejoin:miter;stroke-opacity:1"/>
<path class="bond-11 atom-7 atom-12" d="M 137.6,71.3 L 148.1,102.9" style="fill:none;fill-rule:evenodd;stroke:#000000;stroke-width:2.0px;stroke-linecap:butt;stroke-linejoin:miter;stroke-opacity:1"/>
<path class="bond-12 atom-12 atom-13" d="M 148.1,102.9 L 139.6,112.4" style="fill:none;fill-rule:evenodd;stroke:#000000;stroke-width:2.0px;stroke-linecap:butt;stroke-linejoin:miter;stroke-opacity:1"/>
<path class="bond-12 atom-12 atom-13" d="M 139.6,112.4 L 131.1,121.9" style="fill:none;fill-rule:evenodd;stroke:#FF0000;stroke-width:2.0px;stroke-linecap:butt;stroke-linejoin:miter;stroke-opacity:1"/>
<path class="bond-13 atom-12 atom-14" d="M 148.1,102.9 L 180.7,109.7" style="fill:none;fill-rule:evenodd;stroke:#000000;stroke-width:2.0px;stroke-linecap:butt;stroke-linejoin:miter;stroke-opacity:1"/>
<path class="bond-14 atom-14 atom-15" d="M 180.7,109.7 L 191.1,141.4" style="fill:none;fill-rule:evenodd;stroke:#000000;stroke-width:2.0px;stroke-linecap:butt;stroke-linejoin:miter;stroke-opacity:1"/>
<path class="bond-15 atom-15 atom-16" d="M 191.1,141.4 L 223.7,148.2" style="fill:none;fill-rule:evenodd;stroke:#000000;stroke-width:2.0px;stroke-linecap:butt;stroke-linejoin:miter;stroke-opacity:1"/>
<path class="bond-16 atom-16 atom-17" d="M 223.7,148.2 L 217.0,180.8" style="fill:none;fill-rule:evenodd;stroke:#000000;stroke-width:2.0px;stroke-linecap:butt;stroke-linejoin:miter;stroke-opacity:1"/>
<path class="bond-17 atom-16 atom-18" d="M 223.7,148.2 L 230.5,115.5" style="fill:none;fill-rule:evenodd;stroke:#000000;stroke-width:2.0px;stroke-linecap:butt;stroke-linejoin:miter;stroke-opacity:1"/>
<path class="bond-18 atom-16 atom-19" d="M 223.7,148.2 L 256.4,155.0" style="fill:none;fill-rule:evenodd;stroke:#000000;stroke-width:2.0px;stroke-linecap:butt;stroke-linejoin:miter;stroke-opacity:1"/>
<path d="M 67.2,126.4 L 67.5,124.8 L 69.1,124.2" style="fill:none;stroke:#000000;stroke-width:2.0px;stroke-linecap:butt;stroke-linejoin:miter;stroke-opacity:1;"/>
<path d="M 97.6,114.8 L 99.2,114.3 L 99.5,112.7" style="fill:none;stroke:#000000;stroke-width:2.0px;stroke-linecap:butt;stroke-linejoin:miter;stroke-opacity:1;"/>
<path d="M 105.7,83.3 L 106.0,81.7 L 107.6,81.2" style="fill:none;stroke:#000000;stroke-width:2.0px;stroke-linecap:butt;stroke-linejoin:miter;stroke-opacity:1;"/>
<path d="M 127.7,41.2 L 127.2,39.6 L 127.6,39.2" style="fill:none;stroke:#000000;stroke-width:2.0px;stroke-linecap:butt;stroke-linejoin:miter;stroke-opacity:1;"/>
<path d="M 179.1,109.4 L 180.7,109.7 L 181.2,111.3" style="fill:none;stroke:#000000;stroke-width:2.0px;stroke-linecap:butt;stroke-linejoin:miter;stroke-opacity:1;"/>
<path d="M 190.6,139.8 L 191.1,141.4 L 192.8,141.7" style="fill:none;stroke:#000000;stroke-width:2.0px;stroke-linecap:butt;stroke-linejoin:miter;stroke-opacity:1;"/>
<path class="atom-10" d="M 90.3 32.9 Q 90.3 30.6, 91.4 29.3 Q 92.5 28.1, 94.6 28.1 Q 96.7 28.1, 97.8 29.3 Q 98.9 30.6, 98.9 32.9 Q 98.9 35.1, 97.8 36.5 Q 96.7 37.7, 94.6 37.7 Q 92.5 37.7, 91.4 36.5 Q 90.3 35.2, 90.3 32.9 M 94.6 36.7 Q 96.0 36.7, 96.8 35.7 Q 97.6 34.7, 97.6 32.9 Q 97.6 31.0, 96.8 30.1 Q 96.0 29.1, 94.6 29.1 Q 93.2 29.1, 92.4 30.1 Q 91.6 31.0, 91.6 32.9 Q 91.6 34.8, 92.4 35.7 Q 93.2 36.7, 94.6 36.7 " fill="#FF0000"/>
<path class="atom-11" d="M 145.1 14.8 Q 145.1 12.5, 146.2 11.3 Q 147.3 10.0, 149.4 10.0 Q 151.5 10.0, 152.6 11.3 Q 153.8 12.5, 153.8 14.8 Q 153.8 17.1, 152.6 18.4 Q 151.5 19.7, 149.4 19.7 Q 147.3 19.7, 146.2 18.4 Q 145.1 17.1, 145.1 14.8 M 149.4 18.6 Q 150.9 18.6, 151.6 17.7 Q 152.4 16.7, 152.4 14.8 Q 152.4 12.9, 151.6 12.0 Q 150.9 11.1, 149.4 11.1 Q 148.0 11.1, 147.2 12.0 Q 146.4 12.9, 146.4 14.8 Q 146.4 16.7, 147.2 17.7 Q 148.0 18.6, 149.4 18.6 " fill="#FF0000"/>
<path class="atom-11" d="M 155.2 10.1 L 156.5 10.1 L 156.5 14.1 L 161.3 14.1 L 161.3 10.1 L 162.6 10.1 L 162.6 19.5 L 161.3 19.5 L 161.3 15.2 L 156.5 15.2 L 156.5 19.5 L 155.2 19.5 L 155.2 10.1 " fill="#FF0000"/>
<path class="atom-13" d="M 112.2 123.1 L 113.5 123.1 L 113.5 127.1 L 118.3 127.1 L 118.3 123.1 L 119.6 123.1 L 119.6 132.6 L 118.3 132.6 L 118.3 128.2 L 113.5 128.2 L 113.5 132.6 L 112.2 132.6 L 112.2 123.1 " fill="#FF0000"/>
<path class="atom-13" d="M 121.5 127.8 Q 121.5 125.5, 122.7 124.3 Q 123.8 123.0, 125.9 123.0 Q 128.0 123.0, 129.1 124.3 Q 130.2 125.5, 130.2 127.8 Q 130.2 130.1, 129.1 131.4 Q 127.9 132.7, 125.9 132.7 Q 123.8 132.7, 122.7 131.4 Q 121.5 130.1, 121.5 127.8 M 125.9 131.6 Q 127.3 131.6, 128.1 130.7 Q 128.9 129.7, 128.9 127.8 Q 128.9 126.0, 128.1 125.0 Q 127.3 124.1, 125.9 124.1 Q 124.4 124.1, 123.7 125.0 Q 122.9 125.9, 122.9 127.8 Q 122.9 129.7, 123.7 130.7 Q 124.4 131.6, 125.9 131.6 " fill="#FF0000"/>
</svg>
