<?xml version='1.0' encoding='ASCII' standalone='yes'?>
<svg xmlns="http://www.w3.org/2000/svg" xmlns:rdkit="http://www.rdkit.org/xml" xmlns:xlink="http://www.w3.org/1999/xlink" version="1.1" baseProfile="full" xml:space="preserve" width="276px" height="200px" viewBox="0 0 276 200">
<!-- END OF HEADER -->
<rect style="opacity:1.0;fill:#FFFFFF;stroke:none" width="276.0" height="200.0" x="0.0" y="0.0"> </rect>
<path class="bond-0 atom-0 atom-1" d="M 186.7,57.9 L 174.6,91.8" style="fill:none;fill-rule:evenodd;stroke:#000000;stroke-width:2.0px;stroke-linecap:butt;stroke-linejoin:miter;stroke-opacity:1"/>
<path class="bond-1 atom-1 atom-2" d="M 174.6,91.8 L 162.6,125.7" style="fill:none;fill-rule:evenodd;stroke:#000000;stroke-width:2.0px;stroke-linecap:butt;stroke-linejoin:miter;stroke-opacity:1"/>
<path class="bond-2 atom-1 atom-3" d="M 174.6,91.8 L 208.6,103.9" style="fill:none;fill-rule:evenodd;stroke:#000000;stroke-width:2.0px;stroke-linecap:butt;stroke-linejoin:miter;stroke-opacity:1"/>
<path class="bond-3 atom-3 atom-4" d="M 208.6,103.9 L 211.2,118.4" style="fill:none;fill-rule:evenodd;stroke:#000000;stroke-width:2.0px;stroke-linecap:butt;stroke-linejoin:miter;stroke-opacity:1"/>
<path class="bond-3 atom-3 atom-4" d="M 211.2,118.4 L 213.9,133.0" style="fill:none;fill-rule:evenodd;stroke:#FF0000;stroke-width:2.0px;stroke-linecap:butt;stroke-linejoin:miter;stroke-opacity:1"/>
<path class="bond-3 atom-3 atom-4" d="M 204.0,107.8 L 206.1,119.4" style="fill:none;fill-rule:evenodd;stroke:#000000;stroke-width:2.0px;stroke-linecap:butt;stroke-linejoin:miter;stroke-opacity:1"/>
<path class="bond-3 atom-3 atom-4" d="M 206.1,119.4 L 208.8,133.9" style="fill:none;fill-rule:evenodd;stroke:#FF0000;stroke-width:2.0px;stroke-linecap:butt;stroke-linejoin:miter;stroke-opacity:1"/>
<path class="bond-4 atom-1 atom-5" d="M 174.6,91.8 L 140.7,79.7" style="fill:none;fill-rule:evenodd;stroke:#000000;stroke-width:2.0px;stroke-linecap:butt;stroke-linejoin:miter;stroke-opacity:1"/>
<path class="bond-5 atom-5 atom-6" d="M 140.7,79.7 L 113.3,103.1" style="fill:none;fill-rule:evenodd;stroke:#000000;stroke-width:2.0px;stroke-linecap:butt;stroke-linejoin:miter;stroke-opacity:1"/>
<path class="bond-6 atom-6 atom-7" d="M 113.3,103.1 L 122.3,113.6" style="fill:none;fill-rule:evenodd;stroke:#000000;stroke-width:2.0px;stroke-linecap:butt;stroke-linejoin:miter;stroke-opacity:1"/>
<path class="bond-6 atom-6 atom-7" d="M 122.3,113.6 L 131.3,124.2" style="fill:none;fill-rule:evenodd;stroke:#FF0000;stroke-width:2.0px;stroke-linecap:butt;stroke-linejoin:miter;stroke-opacity:1"/>
<path class="bond-7 atom-6 atom-8" d="M 113.3,103.1 L 85.9,126.4" style="fill:none;fill-rule:evenodd;stroke:#000000;stroke-width:2.0px;stroke-linecap:butt;stroke-linejoin:miter;stroke-opacity:1"/>
<path class="bond-8 atom-8 atom-9" d="M 85.9,126.4 L 109.2,153.8" style="fill:none;fill-rule:evenodd;stroke:#000000;stroke-width:2.0px;stroke-linecap:butt;stroke-linejoin:miter;stroke-opacity:1"/>
<path class="bond-9 atom-8 atom-10" d="M 85.9,126.4 L 66.5,108.6" style="fill:none;fill-rule:evenodd;stroke:#000000;stroke-width:2.0px;stroke-linecap:butt;stroke-linejoin:miter;stroke-opacity:1"/>
<path class="bond-10 atom-8 atom-11" d="M 85.9,126.4 L 58.4,149.7" style="fill:none;fill-rule:evenodd;stroke:#000000;stroke-width:2.0px;stroke-linecap:butt;stroke-linejoin:miter;stroke-opacity:1"/>
<path class="bond-11 atom-11 atom-12" d="M 58.4,149.7 L 61.1,164.3" style="fill:none;fill-rule:evenodd;stroke:#000000;stroke-width:2.0px;stroke-linecap:butt;stroke-linejoin:miter;stroke-opacity:1"/>
<path class="bond-11 atom-11 atom-12" d="M 61.1,164.3 L 63.8,178.8" style="fill:none;fill-rule:evenodd;stroke:#FF0000;stroke-width:2.0px;stroke-linecap:butt;stroke-linejoin:miter;stroke-opacity:1"/>
<path class="bond-11 atom-11 atom-12" d="M 64.1,151.8 L 66.2,163.3" style="fill:none;fill-rule:evenodd;stroke:#000000;stroke-width:2.0px;stroke-linecap:butt;stroke-linejoin:miter;stroke-opacity:1"/>
<path class="bond-11 atom-11 atom-12" d="M 66.2,163.3 L 68.9,177.9" style="fill:none;fill-rule:evenodd;stroke:#FF0000;stroke-width:2.0px;stroke-linecap:butt;stroke-linejoin:miter;stroke-opacity:1"/>
<path class="bond-12 atom-6 atom-13" d="M 113.3,103.1 L 89.9,75.6" style="fill:none;fill-rule:evenodd;stroke:#000000;stroke-width:2.0px;stroke-linecap:butt;stroke-linejoin:miter;stroke-opacity:1"/>
<path class="bond-13 atom-13 atom-14" d="M 89.9,75.6 L 117.4,52.3" style="fill:none;fill-rule:evenodd;stroke:#000000;stroke-width:2.0px;stroke-linecap:butt;stroke-linejoin:miter;stroke-opacity:1"/>
<path class="bond-14 atom-13 atom-15" d="M 89.9,75.6 L 68.0,90.1" style="fill:none;fill-rule:evenodd;stroke:#000000;stroke-width:2.0px;stroke-linecap:butt;stroke-linejoin:miter;stroke-opacity:1"/>
<path class="bond-15 atom-13 atom-16" d="M 89.9,75.6 L 66.6,48.2" style="fill:none;fill-rule:evenodd;stroke:#000000;stroke-width:2.0px;stroke-linecap:butt;stroke-linejoin:miter;stroke-opacity:1"/>
<path class="bond-16 atom-16 atom-17" d="M 66.6,48.2 L 71.5,34.5" style="fill:none;fill-rule:evenodd;stroke:#000000;stroke-width:2.0px;stroke-linecap:butt;stroke-linejoin:miter;stroke-opacity:1"/>
<path class="bond-16 atom-16 atom-17" d="M 71.5,34.5 L 76.4,20.7" style="fill:none;fill-rule:evenodd;stroke:#FF0000;stroke-width:2.0px;stroke-linecap:butt;stroke-linejoin:miter;stroke-opacity:1"/>
<path class="bond-16 atom-16 atom-17" d="M 72.5,47.1 L 76.4,36.2" style="fill:none;fill-rule:evenodd;stroke:#000000;stroke-width:2.0px;stroke-linecap:butt;stroke-linejoin:miter;stroke-opacity:1"/>
<path class="bond-16 atom-16 atom-17" d="M 76.4,36.2 L 81.3,22.5" style="fill:none;fill-rule:evenodd;stroke:#FF0000;stroke-width:2.0px;stroke-linecap:butt;stroke-linejoin:miter;stroke-opacity:1"/>
<path d="M 206.9,103.3 L 208.6,103.9 L 208.7,104.6" style="fill:none;stroke:#000000;stroke-width:2.0px;stroke-linecap:butt;stroke-linejoin:miter;stroke-opacity:1;"/>
<path d="M 142.4,80.3 L 140.7,79.7 L 139.3,80.9" style="fill:none;stroke:#000000;stroke-width:2.0px;stroke-linecap:butt;stroke-linejoin:miter;stroke-opacity:1;"/>
<path d="M 59.8,148.6 L 58.4,149.7 L 58.6,150.5" style="fill:none;stroke:#000000;stroke-width:2.0px;stroke-linecap:butt;stroke-linejoin:miter;stroke-opacity:1;"/>
<path d="M 67.8,49.6 L 66.6,48.2 L 66.9,47.5" style="fill:none;stroke:#000000;stroke-width:2.0px;stroke-linecap:butt;stroke-linejoin:miter;stroke-opacity:1;"/>
<path class="atom-4" d="M 207.8 139.8 Q 207.8 137.4, 209.0 136.0 Q 210.2 134.6, 212.5 134.6 Q 214.7 134.6, 216.0 136.0 Q 217.2 137.4, 217.2 139.8 Q 217.2 142.3, 215.9 143.7 Q 214.7 145.1, 212.5 145.1 Q 210.2 145.1, 209.0 143.7 Q 207.8 142.3, 207.8 139.8 M 212.5 143.9 Q 214.0 143.9, 214.9 142.9 Q 215.7 141.9, 215.7 139.8 Q 215.7 137.8, 214.9 136.8 Q 214.0 135.8, 212.5 135.8 Q 210.9 135.8, 210.1 136.8 Q 209.2 137.8, 209.2 139.8 Q 209.2 141.9, 210.1 142.9 Q 210.9 143.9, 212.5 143.9 " fill="#FF0000"/>
<path class="atom-7" d="M 131.9 130.5 Q 131.9 128.1, 133.2 126.7 Q 134.4 125.3, 136.6 125.3 Q 138.9 125.3, 140.1 126.7 Q 141.3 128.1, 141.3 130.5 Q 141.3 133.0, 140.1 134.4 Q 138.9 135.8, 136.6 135.8 Q 134.4 135.8, 133.2 134.4 Q 131.9 133.0, 131.9 130.5 M 136.6 134.6 Q 138.2 134.6, 139.0 133.6 Q 139.9 132.6, 139.9 130.5 Q 139.9 128.5, 139.0 127.5 Q 138.2 126.5, 136.6 126.5 Q 135.1 126.5, 134.2 127.5 Q 133.4 128.5, 133.4 130.5 Q 133.4 132.6, 134.2 133.6 Q 135.1 134.6, 136.6 134.6 " fill="#FF0000"/>
<path class="atom-7" d="M 142.9 125.4 L 144.3 125.4 L 144.3 129.8 L 149.5 129.8 L 149.5 125.4 L 150.9 125.4 L 150.9 135.6 L 149.5 135.6 L 149.5 130.9 L 144.3 130.9 L 144.3 135.6 L 142.9 135.6 L 142.9 125.4 " fill="#FF0000"/>
<path class="atom-12" d="M 62.8 184.7 Q 62.8 182.3, 64.0 180.9 Q 65.2 179.5, 67.5 179.5 Q 69.8 179.5, 71.0 180.9 Q 72.2 182.3, 72.2 184.7 Q 72.2 187.2, 71.0 188.6 Q 69.7 190.0, 67.5 190.0 Q 65.3 190.0, 64.0 188.6 Q 62.8 187.2, 62.8 184.7 M 67.5 188.8 Q 69.1 188.8, 69.9 187.8 Q 70.7 186.8, 70.7 184.7 Q 70.7 182.7, 69.9 181.7 Q 69.1 180.7, 67.5 180.7 Q 65.9 180.7, 65.1 181.7 Q 64.3 182.7, 64.3 184.7 Q 64.3 186.8, 65.1 187.8 Q 65.9 188.8, 67.5 188.8 " fill="#FF0000"/>
<path class="atom-17" d="M 76.5 15.2 Q 76.5 12.7, 77.7 11.4 Q 78.9 10.0, 81.2 10.0 Q 83.4 10.0, 84.6 11.4 Q 85.8 12.7, 85.8 15.2 Q 85.8 17.7, 84.6 19.1 Q 83.4 20.5, 81.2 20.5 Q 78.9 20.5, 77.7 19.1 Q 76.5 17.7, 76.5 15.2 M 81.2 19.3 Q 82.7 19.3, 83.5 18.3 Q 84.4 17.2, 84.4 15.2 Q 84.4 13.2, 83.5 12.2 Q 82.7 11.2, 81.2 11.2 Q 79.6 11.2, 78.7 12.2 Q 77.9 13.2, 77.9 15.2 Q 77.9 17.2, 78.7 18.3 Q 79.6 19.3, 81.2 19.3 " fill="#FF0000"/>
</svg>
