<?xml version='1.0' encoding='ASCII' standalone='yes'?>
<svg xmlns="http://www.w3.org/2000/svg" xmlns:rdkit="http://www.rdkit.org/xml" xmlns:xlink="http://www.w3.org/1999/xlink" version="1.1" baseProfile="full" xml:space="preserve" width="233px" height="200px" viewBox="0 0 233 200">
<!-- END OF HEADER -->
<rect style="opacity:1.0;fill:#FFFFFF;stroke:none" width="233.0" height="200.0" x="0.0" y="0.0"> </rect>
<path class="bond-0 atom-0 atom-1" d="M 133.1,53.7 L 133.1,99.9" style="fill:none;fill-rule:evenodd;stroke:#000000;stroke-width:2.0px;stroke-linecap:butt;stroke-linejoin:miter;stroke-opacity:1"/>
<path class="bond-1 atom-1 atom-2" d="M 133.1,99.9 L 133.1,146.1" style="fill:none;fill-rule:evenodd;stroke:#000000;stroke-width:2.0px;stroke-linecap:butt;stroke-linejoin:miter;stroke-opacity:1"/>
<path class="bond-2 atom-1 atom-3" d="M 133.1,99.9 L 179.3,99.9" style="fill:none;fill-rule:evenodd;stroke:#000000;stroke-width:2.0px;stroke-linecap:butt;stroke-linejoin:miter;stroke-opacity:1"/>
<path class="bond-3 atom-3 atom-4" d="M 181.3,103.4 L 190.9,86.7" style="fill:none;fill-rule:evenodd;stroke:#000000;stroke-width:2.0px;stroke-linecap:butt;stroke-linejoin:miter;stroke-opacity:1"/>
<path class="bond-3 atom-3 atom-4" d="M 190.9,86.7 L 200.6,70.0" style="fill:none;fill-rule:evenodd;stroke:#FF0000;stroke-width:2.0px;stroke-linecap:butt;stroke-linejoin:miter;stroke-opacity:1"/>
<path class="bond-3 atom-3 atom-4" d="M 175.3,99.9 L 184.9,83.2" style="fill:none;fill-rule:evenodd;stroke:#000000;stroke-width:2.0px;stroke-linecap:butt;stroke-linejoin:miter;stroke-opacity:1"/>
<path class="bond-3 atom-3 atom-4" d="M 184.9,83.2 L 194.6,66.5" style="fill:none;fill-rule:evenodd;stroke:#FF0000;stroke-width:2.0px;stroke-linecap:butt;stroke-linejoin:miter;stroke-opacity:1"/>
<path class="bond-4 atom-3 atom-5" d="M 179.3,99.9 L 188.5,115.8" style="fill:none;fill-rule:evenodd;stroke:#000000;stroke-width:2.0px;stroke-linecap:butt;stroke-linejoin:miter;stroke-opacity:1"/>
<path class="bond-4 atom-3 atom-5" d="M 188.5,115.8 L 197.7,131.8" style="fill:none;fill-rule:evenodd;stroke:#FF0000;stroke-width:2.0px;stroke-linecap:butt;stroke-linejoin:miter;stroke-opacity:1"/>
<path class="bond-5 atom-1 atom-6" d="M 133.1,99.9 L 86.9,99.9" style="fill:none;fill-rule:evenodd;stroke:#000000;stroke-width:2.0px;stroke-linecap:butt;stroke-linejoin:miter;stroke-opacity:1"/>
<path class="bond-6 atom-6 atom-7" d="M 86.9,99.9 L 63.8,139.9" style="fill:none;fill-rule:evenodd;stroke:#000000;stroke-width:2.0px;stroke-linecap:butt;stroke-linejoin:miter;stroke-opacity:1"/>
<path class="bond-7 atom-7 atom-8" d="M 63.8,139.9 L 44.5,139.9" style="fill:none;fill-rule:evenodd;stroke:#000000;stroke-width:2.0px;stroke-linecap:butt;stroke-linejoin:miter;stroke-opacity:1"/>
<path class="bond-7 atom-7 atom-8" d="M 44.5,139.9 L 25.2,139.9" style="fill:none;fill-rule:evenodd;stroke:#FF0000;stroke-width:2.0px;stroke-linecap:butt;stroke-linejoin:miter;stroke-opacity:1"/>
<path class="bond-7 atom-7 atom-8" d="M 59.8,133.0 L 44.5,133.0" style="fill:none;fill-rule:evenodd;stroke:#000000;stroke-width:2.0px;stroke-linecap:butt;stroke-linejoin:miter;stroke-opacity:1"/>
<path class="bond-7 atom-7 atom-8" d="M 44.5,133.0 L 25.2,133.0" style="fill:none;fill-rule:evenodd;stroke:#FF0000;stroke-width:2.0px;stroke-linecap:butt;stroke-linejoin:miter;stroke-opacity:1"/>
<path class="bond-8 atom-6 atom-9" d="M 86.9,99.9 L 63.8,59.9" style="fill:none;fill-rule:evenodd;stroke:#000000;stroke-width:2.0px;stroke-linecap:butt;stroke-linejoin:miter;stroke-opacity:1"/>
<path class="bond-9 atom-9 atom-10" d="M 63.8,59.9 L 44.5,59.9" style="fill:none;fill-rule:evenodd;stroke:#000000;stroke-width:2.0px;stroke-linecap:butt;stroke-linejoin:miter;stroke-opacity:1"/>
<path class="bond-9 atom-9 atom-10" d="M 44.5,59.9 L 25.2,59.9" style="fill:none;fill-rule:evenodd;stroke:#FF0000;stroke-width:2.0px;stroke-linecap:butt;stroke-linejoin:miter;stroke-opacity:1"/>
<path class="bond-9 atom-9 atom-10" d="M 59.8,66.8 L 44.5,66.8" style="fill:none;fill-rule:evenodd;stroke:#000000;stroke-width:2.0px;stroke-linecap:butt;stroke-linejoin:miter;stroke-opacity:1"/>
<path class="bond-9 atom-9 atom-10" d="M 44.5,66.8 L 25.2,66.8" style="fill:none;fill-rule:evenodd;stroke:#FF0000;stroke-width:2.0px;stroke-linecap:butt;stroke-linejoin:miter;stroke-opacity:1"/>
<path d="M 177.0,99.9 L 179.3,99.9 L 179.7,100.7" style="fill:none;stroke:#000000;stroke-width:2.0px;stroke-linecap:butt;stroke-linejoin:miter;stroke-opacity:1;"/>
<path d="M 65.0,137.9 L 63.8,139.9 L 62.9,139.9" style="fill:none;stroke:#000000;stroke-width:2.0px;stroke-linecap:butt;stroke-linejoin:miter;stroke-opacity:1;"/>
<path d="M 65.0,61.9 L 63.8,59.9 L 62.9,59.9" style="fill:none;stroke:#000000;stroke-width:2.0px;stroke-linecap:butt;stroke-linejoin:miter;stroke-opacity:1;"/>
<path class="atom-4" d="M 196.4 59.9 Q 196.4 56.8, 197.9 55.0 Q 199.5 53.3, 202.4 53.3 Q 205.3 53.3, 206.8 55.0 Q 208.4 56.8, 208.4 59.9 Q 208.4 63.1, 206.8 64.9 Q 205.2 66.7, 202.4 66.7 Q 199.5 66.7, 197.9 64.9 Q 196.4 63.1, 196.4 59.9 M 202.4 65.2 Q 204.4 65.2, 205.4 63.9 Q 206.5 62.6, 206.5 59.9 Q 206.5 57.4, 205.4 56.1 Q 204.4 54.8, 202.4 54.8 Q 200.4 54.8, 199.3 56.1 Q 198.2 57.4, 198.2 59.9 Q 198.2 62.6, 199.3 63.9 Q 200.4 65.2, 202.4 65.2 " fill="#FF0000"/>
<path class="atom-5" d="M 196.4 139.9 Q 196.4 136.8, 197.9 135.0 Q 199.5 133.3, 202.4 133.3 Q 205.3 133.3, 206.8 135.0 Q 208.4 136.8, 208.4 139.9 Q 208.4 143.1, 206.8 144.9 Q 205.2 146.7, 202.4 146.7 Q 199.5 146.7, 197.9 144.9 Q 196.4 143.1, 196.4 139.9 M 202.4 145.2 Q 204.4 145.2, 205.4 143.9 Q 206.5 142.6, 206.5 139.9 Q 206.5 137.4, 205.4 136.1 Q 204.4 134.8, 202.4 134.8 Q 200.4 134.8, 199.3 136.0 Q 198.2 137.3, 198.2 139.9 Q 198.2 142.6, 199.3 143.9 Q 200.4 145.2, 202.4 145.2 " fill="#FF0000"/>
<path class="atom-5" d="M 210.4 133.4 L 212.2 133.4 L 212.2 139.0 L 218.9 139.0 L 218.9 133.4 L 220.7 133.4 L 220.7 146.5 L 218.9 146.5 L 218.9 140.5 L 212.2 140.5 L 212.2 146.5 L 210.4 146.5 L 210.4 133.4 " fill="#FF0000"/>
<path class="atom-8" d="M 11.6 136.5 Q 11.6 133.3, 13.2 131.6 Q 14.8 129.8, 17.7 129.8 Q 20.6 129.8, 22.1 131.6 Q 23.7 133.3, 23.7 136.5 Q 23.7 139.6, 22.1 141.5 Q 20.5 143.2, 17.7 143.2 Q 14.8 143.2, 13.2 141.5 Q 11.6 139.7, 11.6 136.5 M 17.7 141.8 Q 19.6 141.8, 20.7 140.4 Q 21.8 139.1, 21.8 136.5 Q 21.8 133.9, 20.7 132.6 Q 19.6 131.3, 17.7 131.3 Q 15.7 131.3, 14.6 132.6 Q 13.5 133.9, 13.5 136.5 Q 13.5 139.1, 14.6 140.4 Q 15.7 141.8, 17.7 141.8 " fill="#FF0000"/>
<path class="atom-10" d="M 11.6 63.4 Q 11.6 60.3, 13.2 58.5 Q 14.8 56.8, 17.7 56.8 Q 20.6 56.8, 22.1 58.5 Q 23.7 60.3, 23.7 63.4 Q 23.7 66.6, 22.1 68.4 Q 20.5 70.2, 17.7 70.2 Q 14.8 70.2, 13.2 68.4 Q 11.6 66.6, 11.6 63.4 M 17.7 68.7 Q 19.6 68.7, 20.7 67.4 Q 21.8 66.0, 21.8 63.4 Q 21.8 60.8, 20.7 59.5 Q 19.6 58.2, 17.7 58.2 Q 15.7 58.2, 14.6 59.5 Q 13.5 60.8, 13.5 63.4 Q 13.5 66.0, 14.6 67.4 Q 15.7 68.7, 17.7 68.7 " fill="#FF0000"/>
</svg>
