<?xml version='1.0' encoding='ASCII' standalone='yes'?>
<svg xmlns="http://www.w3.org/2000/svg" xmlns:rdkit="http://www.rdkit.org/xml" xmlns:xlink="http://www.w3.org/1999/xlink" version="1.1" baseProfile="full" xml:space="preserve" width="297px" height="200px" viewBox="0 0 297 200">
<!-- END OF HEADER -->
<rect style="opacity:1.0;fill:#FFFFFF;stroke:none" width="297.0" height="200.0" x="0.0" y="0.0"> </rect>
<path class="bond-0 atom-0 atom-1" d="M 225.6,33.6 L 248.0,54.5" style="fill:none;fill-rule:evenodd;stroke:#000000;stroke-width:2.0px;stroke-linecap:butt;stroke-linejoin:miter;stroke-opacity:1"/>
<path class="bond-1 atom-1 atom-2" d="M 248.0,54.5 L 241.2,84.4" style="fill:none;fill-rule:evenodd;stroke:#000000;stroke-width:2.0px;stroke-linecap:butt;stroke-linejoin:miter;stroke-opacity:1"/>
<path class="bond-2 atom-2 atom-3" d="M 241.2,84.4 L 234.3,114.2" style="fill:none;fill-rule:evenodd;stroke:#000000;stroke-width:2.0px;stroke-linecap:butt;stroke-linejoin:miter;stroke-opacity:1"/>
<path class="bond-3 atom-2 atom-4" d="M 241.2,84.4 L 271.1,91.2" style="fill:none;fill-rule:evenodd;stroke:#000000;stroke-width:2.0px;stroke-linecap:butt;stroke-linejoin:miter;stroke-opacity:1"/>
<path class="bond-4 atom-4 atom-5" d="M 271.1,91.2 L 274.7,103.2" style="fill:none;fill-rule:evenodd;stroke:#000000;stroke-width:2.0px;stroke-linecap:butt;stroke-linejoin:miter;stroke-opacity:1"/>
<path class="bond-4 atom-4 atom-5" d="M 274.7,103.2 L 278.4,115.1" style="fill:none;fill-rule:evenodd;stroke:#FF0000;stroke-width:2.0px;stroke-linecap:butt;stroke-linejoin:miter;stroke-opacity:1"/>
<path class="bond-4 atom-4 atom-5" d="M 267.4,95.1 L 270.3,104.5" style="fill:none;fill-rule:evenodd;stroke:#000000;stroke-width:2.0px;stroke-linecap:butt;stroke-linejoin:miter;stroke-opacity:1"/>
<path class="bond-4 atom-4 atom-5" d="M 270.3,104.5 L 274.0,116.4" style="fill:none;fill-rule:evenodd;stroke:#FF0000;stroke-width:2.0px;stroke-linecap:butt;stroke-linejoin:miter;stroke-opacity:1"/>
<path class="bond-5 atom-2 atom-6" d="M 241.2,84.4 L 211.3,77.5" style="fill:none;fill-rule:evenodd;stroke:#000000;stroke-width:2.0px;stroke-linecap:butt;stroke-linejoin:miter;stroke-opacity:1"/>
<path class="bond-6 atom-6 atom-7" d="M 211.3,77.5 L 190.5,99.9" style="fill:none;fill-rule:evenodd;stroke:#000000;stroke-width:2.0px;stroke-linecap:butt;stroke-linejoin:miter;stroke-opacity:1"/>
<path class="bond-7 atom-7 atom-8" d="M 190.5,99.9 L 160.6,93.1" style="fill:none;fill-rule:evenodd;stroke:#000000;stroke-width:2.0px;stroke-linecap:butt;stroke-linejoin:miter;stroke-opacity:1"/>
<path class="bond-8 atom-8 atom-9" d="M 160.6,93.1 L 157.0,81.2" style="fill:none;fill-rule:evenodd;stroke:#000000;stroke-width:2.0px;stroke-linecap:butt;stroke-linejoin:miter;stroke-opacity:1"/>
<path class="bond-8 atom-8 atom-9" d="M 157.0,81.2 L 153.3,69.3" style="fill:none;fill-rule:evenodd;stroke:#FF0000;stroke-width:2.0px;stroke-linecap:butt;stroke-linejoin:miter;stroke-opacity:1"/>
<path class="bond-9 atom-8 atom-10" d="M 160.6,93.1 L 139.7,115.5" style="fill:none;fill-rule:evenodd;stroke:#000000;stroke-width:2.0px;stroke-linecap:butt;stroke-linejoin:miter;stroke-opacity:1"/>
<path class="bond-10 atom-10 atom-11" d="M 139.7,115.5 L 162.2,136.4" style="fill:none;fill-rule:evenodd;stroke:#000000;stroke-width:2.0px;stroke-linecap:butt;stroke-linejoin:miter;stroke-opacity:1"/>
<path class="bond-11 atom-10 atom-12" d="M 139.7,115.5 L 117.3,94.7" style="fill:none;fill-rule:evenodd;stroke:#000000;stroke-width:2.0px;stroke-linecap:butt;stroke-linejoin:miter;stroke-opacity:1"/>
<path class="bond-12 atom-12 atom-13" d="M 117.3,94.7 L 88.0,103.7" style="fill:none;fill-rule:evenodd;stroke:#000000;stroke-width:2.0px;stroke-linecap:butt;stroke-linejoin:miter;stroke-opacity:1"/>
<path class="bond-13 atom-13 atom-14" d="M 88.0,103.7 L 65.6,82.8" style="fill:none;fill-rule:evenodd;stroke:#000000;stroke-width:2.0px;stroke-linecap:butt;stroke-linejoin:miter;stroke-opacity:1"/>
<path class="bond-14 atom-14 atom-15" d="M 65.6,82.8 L 86.4,60.4" style="fill:none;fill-rule:evenodd;stroke:#000000;stroke-width:2.0px;stroke-linecap:butt;stroke-linejoin:miter;stroke-opacity:1"/>
<path class="bond-15 atom-14 atom-16" d="M 65.6,82.8 L 43.1,62.0" style="fill:none;fill-rule:evenodd;stroke:#000000;stroke-width:2.0px;stroke-linecap:butt;stroke-linejoin:miter;stroke-opacity:1"/>
<path class="bond-16 atom-16 atom-17" d="M 43.1,62.0 L 45.9,49.8" style="fill:none;fill-rule:evenodd;stroke:#000000;stroke-width:2.0px;stroke-linecap:butt;stroke-linejoin:miter;stroke-opacity:1"/>
<path class="bond-16 atom-16 atom-17" d="M 45.9,49.8 L 48.7,37.6" style="fill:none;fill-rule:evenodd;stroke:#FF0000;stroke-width:2.0px;stroke-linecap:butt;stroke-linejoin:miter;stroke-opacity:1"/>
<path class="bond-16 atom-16 atom-17" d="M 48.2,60.4 L 50.4,50.8" style="fill:none;fill-rule:evenodd;stroke:#000000;stroke-width:2.0px;stroke-linecap:butt;stroke-linejoin:miter;stroke-opacity:1"/>
<path class="bond-16 atom-16 atom-17" d="M 50.4,50.8 L 53.2,38.6" style="fill:none;fill-rule:evenodd;stroke:#FF0000;stroke-width:2.0px;stroke-linecap:butt;stroke-linejoin:miter;stroke-opacity:1"/>
<path class="bond-17 atom-14 atom-18" d="M 65.6,82.8 L 44.7,105.3" style="fill:none;fill-rule:evenodd;stroke:#000000;stroke-width:2.0px;stroke-linecap:butt;stroke-linejoin:miter;stroke-opacity:1"/>
<path class="bond-18 atom-18 atom-19" d="M 44.7,105.3 L 14.9,98.4" style="fill:none;fill-rule:evenodd;stroke:#000000;stroke-width:2.0px;stroke-linecap:butt;stroke-linejoin:miter;stroke-opacity:1"/>
<path class="bond-19 atom-10 atom-20" d="M 139.7,115.5 L 118.9,138.0" style="fill:none;fill-rule:evenodd;stroke:#000000;stroke-width:2.0px;stroke-linecap:butt;stroke-linejoin:miter;stroke-opacity:1"/>
<path class="bond-20 atom-20 atom-21" d="M 120.7,136.0 L 107.6,133.0" style="fill:none;fill-rule:evenodd;stroke:#000000;stroke-width:2.0px;stroke-linecap:butt;stroke-linejoin:miter;stroke-opacity:1"/>
<path class="bond-20 atom-20 atom-21" d="M 107.6,133.0 L 94.5,130.0" style="fill:none;fill-rule:evenodd;stroke:#FF0000;stroke-width:2.0px;stroke-linecap:butt;stroke-linejoin:miter;stroke-opacity:1"/>
<path class="bond-20 atom-20 atom-21" d="M 119.7,140.5 L 106.6,137.5" style="fill:none;fill-rule:evenodd;stroke:#000000;stroke-width:2.0px;stroke-linecap:butt;stroke-linejoin:miter;stroke-opacity:1"/>
<path class="bond-20 atom-20 atom-21" d="M 106.6,137.5 L 93.5,134.5" style="fill:none;fill-rule:evenodd;stroke:#FF0000;stroke-width:2.0px;stroke-linecap:butt;stroke-linejoin:miter;stroke-opacity:1"/>
<path class="bond-21 atom-20 atom-22" d="M 118.9,138.0 L 122.6,149.9" style="fill:none;fill-rule:evenodd;stroke:#000000;stroke-width:2.0px;stroke-linecap:butt;stroke-linejoin:miter;stroke-opacity:1"/>
<path class="bond-21 atom-20 atom-22" d="M 122.6,149.9 L 126.2,161.9" style="fill:none;fill-rule:evenodd;stroke:#FF0000;stroke-width:2.0px;stroke-linecap:butt;stroke-linejoin:miter;stroke-opacity:1"/>
<path d="M 246.9,53.5 L 248.0,54.5 L 247.7,56.0" style="fill:none;stroke:#000000;stroke-width:2.0px;stroke-linecap:butt;stroke-linejoin:miter;stroke-opacity:1;"/>
<path d="M 269.6,90.9 L 271.1,91.2 L 271.2,91.8" style="fill:none;stroke:#000000;stroke-width:2.0px;stroke-linecap:butt;stroke-linejoin:miter;stroke-opacity:1;"/>
<path d="M 212.8,77.9 L 211.3,77.5 L 210.3,78.6" style="fill:none;stroke:#000000;stroke-width:2.0px;stroke-linecap:butt;stroke-linejoin:miter;stroke-opacity:1;"/>
<path d="M 191.5,98.8 L 190.5,99.9 L 189.0,99.6" style="fill:none;stroke:#000000;stroke-width:2.0px;stroke-linecap:butt;stroke-linejoin:miter;stroke-opacity:1;"/>
<path d="M 118.4,95.7 L 117.3,94.7 L 115.8,95.1" style="fill:none;stroke:#000000;stroke-width:2.0px;stroke-linecap:butt;stroke-linejoin:miter;stroke-opacity:1;"/>
<path d="M 89.5,103.2 L 88.0,103.7 L 86.9,102.6" style="fill:none;stroke:#000000;stroke-width:2.0px;stroke-linecap:butt;stroke-linejoin:miter;stroke-opacity:1;"/>
<path d="M 44.3,63.0 L 43.1,62.0 L 43.3,61.3" style="fill:none;stroke:#000000;stroke-width:2.0px;stroke-linecap:butt;stroke-linejoin:miter;stroke-opacity:1;"/>
<path d="M 45.8,104.1 L 44.7,105.3 L 43.2,104.9" style="fill:none;stroke:#000000;stroke-width:2.0px;stroke-linecap:butt;stroke-linejoin:miter;stroke-opacity:1;"/>
<path d="M 119.9,136.9 L 118.9,138.0 L 119.1,138.6" style="fill:none;stroke:#000000;stroke-width:2.0px;stroke-linecap:butt;stroke-linejoin:miter;stroke-opacity:1;"/>
<path class="atom-5" d="M 273.9 121.2 Q 273.9 119.1, 274.9 117.9 Q 275.9 116.8, 277.9 116.8 Q 279.8 116.8, 280.8 117.9 Q 281.9 119.1, 281.9 121.2 Q 281.9 123.3, 280.8 124.5 Q 279.8 125.7, 277.9 125.7 Q 276.0 125.7, 274.9 124.5 Q 273.9 123.3, 273.9 121.2 M 277.9 124.7 Q 279.2 124.7, 279.9 123.8 Q 280.6 122.9, 280.6 121.2 Q 280.6 119.5, 279.9 118.6 Q 279.2 117.8, 277.9 117.8 Q 276.5 117.8, 275.8 118.6 Q 275.1 119.5, 275.1 121.2 Q 275.1 122.9, 275.8 123.8 Q 276.5 124.7, 277.9 124.7 " fill="#FF0000"/>
<path class="atom-9" d="M 147.6 63.8 Q 147.6 61.8, 148.7 60.6 Q 149.7 59.4, 151.6 59.4 Q 153.5 59.4, 154.6 60.6 Q 155.6 61.8, 155.6 63.8 Q 155.6 65.9, 154.5 67.1 Q 153.5 68.3, 151.6 68.3 Q 149.7 68.3, 148.7 67.1 Q 147.6 66.0, 147.6 63.8 M 151.6 67.4 Q 152.9 67.4, 153.6 66.5 Q 154.4 65.6, 154.4 63.8 Q 154.4 62.1, 153.6 61.3 Q 152.9 60.4, 151.6 60.4 Q 150.3 60.4, 149.6 61.3 Q 148.8 62.1, 148.8 63.8 Q 148.8 65.6, 149.6 66.5 Q 150.3 67.4, 151.6 67.4 " fill="#FF0000"/>
<path class="atom-9" d="M 156.9 59.5 L 158.1 59.5 L 158.1 63.2 L 162.6 63.2 L 162.6 59.5 L 163.7 59.5 L 163.7 68.2 L 162.6 68.2 L 162.6 64.2 L 158.1 64.2 L 158.1 68.2 L 156.9 68.2 L 156.9 59.5 " fill="#FF0000"/>
<path class="atom-17" d="M 48.2 32.6 Q 48.2 30.5, 49.3 29.4 Q 50.3 28.2, 52.2 28.2 Q 54.2 28.2, 55.2 29.4 Q 56.2 30.5, 56.2 32.6 Q 56.2 34.7, 55.2 35.9 Q 54.1 37.1, 52.2 37.1 Q 50.3 37.1, 49.3 35.9 Q 48.2 34.7, 48.2 32.6 M 52.2 36.1 Q 53.6 36.1, 54.3 35.3 Q 55.0 34.4, 55.0 32.6 Q 55.0 30.9, 54.3 30.1 Q 53.6 29.2, 52.2 29.2 Q 50.9 29.2, 50.2 30.1 Q 49.5 30.9, 49.5 32.6 Q 49.5 34.4, 50.2 35.3 Q 50.9 36.1, 52.2 36.1 " fill="#FF0000"/>
<path class="atom-21" d="M 85.0 131.2 Q 85.0 129.1, 86.1 127.9 Q 87.1 126.7, 89.0 126.7 Q 90.9 126.7, 92.0 127.9 Q 93.0 129.1, 93.0 131.2 Q 93.0 133.3, 92.0 134.5 Q 90.9 135.7, 89.0 135.7 Q 87.1 135.7, 86.1 134.5 Q 85.0 133.3, 85.0 131.2 M 89.0 134.7 Q 90.3 134.7, 91.0 133.8 Q 91.8 132.9, 91.8 131.2 Q 91.8 129.5, 91.0 128.6 Q 90.3 127.7, 89.0 127.7 Q 87.7 127.7, 87.0 128.6 Q 86.3 129.4, 86.3 131.2 Q 86.3 132.9, 87.0 133.8 Q 87.7 134.7, 89.0 134.7 " fill="#FF0000"/>
<path class="atom-22" d="M 123.9 167.3 Q 123.9 165.2, 124.9 164.0 Q 126.0 162.9, 127.9 162.9 Q 129.8 162.9, 130.8 164.0 Q 131.9 165.2, 131.9 167.3 Q 131.9 169.4, 130.8 170.6 Q 129.8 171.8, 127.9 171.8 Q 126.0 171.8, 124.9 170.6 Q 123.9 169.4, 123.9 167.3 M 127.9 170.8 Q 129.2 170.8, 129.9 169.9 Q 130.6 169.0, 130.6 167.3 Q 130.6 165.6, 129.9 164.7 Q 129.2 163.9, 127.9 163.9 Q 126.6 163.9, 125.8 164.7 Q 125.1 165.6, 125.1 167.3 Q 125.1 169.0, 125.8 169.9 Q 126.6 170.8, 127.9 170.8 " fill="#FF0000"/>
<path class="atom-22" d="M 133.2 163.0 L 134.4 163.0 L 134.4 166.7 L 138.8 166.7 L 138.8 163.0 L 140.0 163.0 L 140.0 171.7 L 138.8 171.7 L 138.8 167.6 L 134.4 167.6 L 134.4 171.7 L 133.2 171.7 L 133.2 163.0 " fill="#FF0000"/>
</svg>
