<?xml version='1.0' encoding='ASCII' standalone='yes'?>
<svg xmlns="http://www.w3.org/2000/svg" xmlns:rdkit="http://www.rdkit.org/xml" xmlns:xlink="http://www.w3.org/1999/xlink" version="1.1" baseProfile="full" xml:space="preserve" width="323px" height="200px" viewBox="0 0 323 200">
<!-- END OF HEADER -->
<rect style="opacity:1.0;fill:#FFFFFF;stroke:none" width="323.0" height="200.0" x="0.0" y="0.0"> </rect>
<path class="bond-0 atom-0 atom-1" d="M 194.4,101.7 L 194.4,78.7" style="fill:none;fill-rule:evenodd;stroke:#000000;stroke-width:2.0px;stroke-linecap:butt;stroke-linejoin:miter;stroke-opacity:1"/>
<path class="bond-1 atom-1 atom-2" d="M 194.4,78.7 L 197.6,53.3" style="fill:none;fill-rule:evenodd;stroke:#000000;stroke-width:2.0px;stroke-linecap:butt;stroke-linejoin:miter;stroke-opacity:1"/>
<path class="bond-2 atom-1 atom-3" d="M 194.4,78.7 L 219.8,81.8" style="fill:none;fill-rule:evenodd;stroke:#000000;stroke-width:2.0px;stroke-linecap:butt;stroke-linejoin:miter;stroke-opacity:1"/>
<path class="bond-3 atom-3 atom-4" d="M 219.8,81.8 L 235.2,61.4" style="fill:none;fill-rule:evenodd;stroke:#000000;stroke-width:2.0px;stroke-linecap:butt;stroke-linejoin:miter;stroke-opacity:1"/>
<path class="bond-4 atom-4 atom-5" d="M 235.2,61.4 L 231.2,51.9" style="fill:none;fill-rule:evenodd;stroke:#000000;stroke-width:2.0px;stroke-linecap:butt;stroke-linejoin:miter;stroke-opacity:1"/>
<path class="bond-4 atom-4 atom-5" d="M 231.2,51.9 L 227.2,42.5" style="fill:none;fill-rule:evenodd;stroke:#FF0000;stroke-width:2.0px;stroke-linecap:butt;stroke-linejoin:miter;stroke-opacity:1"/>
<path class="bond-5 atom-4 atom-6" d="M 235.2,61.4 L 260.6,64.5" style="fill:none;fill-rule:evenodd;stroke:#000000;stroke-width:2.0px;stroke-linecap:butt;stroke-linejoin:miter;stroke-opacity:1"/>
<path class="bond-6 atom-6 atom-7" d="M 260.6,64.5 L 257.5,89.9" style="fill:none;fill-rule:evenodd;stroke:#000000;stroke-width:2.0px;stroke-linecap:butt;stroke-linejoin:miter;stroke-opacity:1"/>
<path class="bond-7 atom-6 atom-8" d="M 260.6,64.5 L 263.8,39.1" style="fill:none;fill-rule:evenodd;stroke:#000000;stroke-width:2.0px;stroke-linecap:butt;stroke-linejoin:miter;stroke-opacity:1"/>
<path class="bond-8 atom-6 atom-9" d="M 260.6,64.5 L 286.0,67.7" style="fill:none;fill-rule:evenodd;stroke:#000000;stroke-width:2.0px;stroke-linecap:butt;stroke-linejoin:miter;stroke-opacity:1"/>
<path class="bond-9 atom-9 atom-10" d="M 286.9,69.7 L 293.2,61.3" style="fill:none;fill-rule:evenodd;stroke:#000000;stroke-width:2.0px;stroke-linecap:butt;stroke-linejoin:miter;stroke-opacity:1"/>
<path class="bond-9 atom-9 atom-10" d="M 293.2,61.3 L 299.5,53.0" style="fill:none;fill-rule:evenodd;stroke:#FF0000;stroke-width:2.0px;stroke-linecap:butt;stroke-linejoin:miter;stroke-opacity:1"/>
<path class="bond-9 atom-9 atom-10" d="M 283.9,67.4 L 290.1,59.1" style="fill:none;fill-rule:evenodd;stroke:#000000;stroke-width:2.0px;stroke-linecap:butt;stroke-linejoin:miter;stroke-opacity:1"/>
<path class="bond-9 atom-9 atom-10" d="M 290.1,59.1 L 296.4,50.7" style="fill:none;fill-rule:evenodd;stroke:#FF0000;stroke-width:2.0px;stroke-linecap:butt;stroke-linejoin:miter;stroke-opacity:1"/>
<path class="bond-10 atom-9 atom-11" d="M 286.0,67.7 L 290.1,77.2" style="fill:none;fill-rule:evenodd;stroke:#000000;stroke-width:2.0px;stroke-linecap:butt;stroke-linejoin:miter;stroke-opacity:1"/>
<path class="bond-10 atom-9 atom-11" d="M 290.1,77.2 L 294.1,86.7" style="fill:none;fill-rule:evenodd;stroke:#FF0000;stroke-width:2.0px;stroke-linecap:butt;stroke-linejoin:miter;stroke-opacity:1"/>
<path class="bond-11 atom-1 atom-12" d="M 194.4,78.7 L 169.0,75.6" style="fill:none;fill-rule:evenodd;stroke:#000000;stroke-width:2.0px;stroke-linecap:butt;stroke-linejoin:miter;stroke-opacity:1"/>
<path class="bond-12 atom-12 atom-13" d="M 169.0,75.6 L 153.6,96.0" style="fill:none;fill-rule:evenodd;stroke:#000000;stroke-width:2.0px;stroke-linecap:butt;stroke-linejoin:miter;stroke-opacity:1"/>
<path class="bond-13 atom-13 atom-14" d="M 153.6,96.0 L 128.2,92.9" style="fill:none;fill-rule:evenodd;stroke:#000000;stroke-width:2.0px;stroke-linecap:butt;stroke-linejoin:miter;stroke-opacity:1"/>
<path class="bond-14 atom-14 atom-15" d="M 128.2,92.9 L 125.1,118.3" style="fill:none;fill-rule:evenodd;stroke:#000000;stroke-width:2.0px;stroke-linecap:butt;stroke-linejoin:miter;stroke-opacity:1"/>
<path class="bond-15 atom-14 atom-16" d="M 128.2,92.9 L 131.4,67.5" style="fill:none;fill-rule:evenodd;stroke:#000000;stroke-width:2.0px;stroke-linecap:butt;stroke-linejoin:miter;stroke-opacity:1"/>
<path class="bond-16 atom-14 atom-17" d="M 128.2,92.9 L 102.8,89.7" style="fill:none;fill-rule:evenodd;stroke:#000000;stroke-width:2.0px;stroke-linecap:butt;stroke-linejoin:miter;stroke-opacity:1"/>
<path class="bond-17 atom-17 atom-18" d="M 102.8,89.7 L 92.8,66.2" style="fill:none;fill-rule:evenodd;stroke:#000000;stroke-width:2.0px;stroke-linecap:butt;stroke-linejoin:miter;stroke-opacity:1"/>
<path class="bond-18 atom-18 atom-19" d="M 92.8,66.2 L 67.4,63.0" style="fill:none;fill-rule:evenodd;stroke:#000000;stroke-width:2.0px;stroke-linecap:butt;stroke-linejoin:miter;stroke-opacity:1"/>
<path class="bond-19 atom-19 atom-20" d="M 67.4,63.0 L 64.3,88.4" style="fill:none;fill-rule:evenodd;stroke:#000000;stroke-width:2.0px;stroke-linecap:butt;stroke-linejoin:miter;stroke-opacity:1"/>
<path class="bond-20 atom-19 atom-21" d="M 67.4,63.0 L 70.6,37.6" style="fill:none;fill-rule:evenodd;stroke:#000000;stroke-width:2.0px;stroke-linecap:butt;stroke-linejoin:miter;stroke-opacity:1"/>
<path class="bond-21 atom-19 atom-22" d="M 67.4,63.0 L 42.0,59.9" style="fill:none;fill-rule:evenodd;stroke:#000000;stroke-width:2.0px;stroke-linecap:butt;stroke-linejoin:miter;stroke-opacity:1"/>
<path class="bond-22 atom-22 atom-23" d="M 44.2,60.2 L 40.0,50.2" style="fill:none;fill-rule:evenodd;stroke:#000000;stroke-width:2.0px;stroke-linecap:butt;stroke-linejoin:miter;stroke-opacity:1"/>
<path class="bond-22 atom-22 atom-23" d="M 40.0,50.2 L 35.8,40.2" style="fill:none;fill-rule:evenodd;stroke:#FF0000;stroke-width:2.0px;stroke-linecap:butt;stroke-linejoin:miter;stroke-opacity:1"/>
<path class="bond-22 atom-22 atom-23" d="M 40.7,61.7 L 36.5,51.7" style="fill:none;fill-rule:evenodd;stroke:#000000;stroke-width:2.0px;stroke-linecap:butt;stroke-linejoin:miter;stroke-opacity:1"/>
<path class="bond-22 atom-22 atom-23" d="M 36.5,51.7 L 32.3,41.7" style="fill:none;fill-rule:evenodd;stroke:#FF0000;stroke-width:2.0px;stroke-linecap:butt;stroke-linejoin:miter;stroke-opacity:1"/>
<path class="bond-23 atom-22 atom-24" d="M 42.0,59.9 L 36.0,67.9" style="fill:none;fill-rule:evenodd;stroke:#000000;stroke-width:2.0px;stroke-linecap:butt;stroke-linejoin:miter;stroke-opacity:1"/>
<path class="bond-23 atom-22 atom-24" d="M 36.0,67.9 L 30.0,75.8" style="fill:none;fill-rule:evenodd;stroke:#FF0000;stroke-width:2.0px;stroke-linecap:butt;stroke-linejoin:miter;stroke-opacity:1"/>
<path class="bond-24 atom-13 atom-25" d="M 153.6,96.0 L 163.6,119.6" style="fill:none;fill-rule:evenodd;stroke:#000000;stroke-width:2.0px;stroke-linecap:butt;stroke-linejoin:miter;stroke-opacity:1"/>
<path class="bond-25 atom-25 atom-26" d="M 163.6,119.6 L 185.8,113.2" style="fill:none;fill-rule:evenodd;stroke:#000000;stroke-width:2.0px;stroke-linecap:butt;stroke-linejoin:miter;stroke-opacity:1"/>
<path class="bond-26 atom-25 atom-27" d="M 163.6,119.6 L 140.0,129.5" style="fill:none;fill-rule:evenodd;stroke:#000000;stroke-width:2.0px;stroke-linecap:butt;stroke-linejoin:miter;stroke-opacity:1"/>
<path class="bond-27 atom-25 atom-28" d="M 163.6,119.6 L 173.6,143.1" style="fill:none;fill-rule:evenodd;stroke:#000000;stroke-width:2.0px;stroke-linecap:butt;stroke-linejoin:miter;stroke-opacity:1"/>
<path class="bond-28 atom-28 atom-29" d="M 172.3,144.9 L 183.4,146.3" style="fill:none;fill-rule:evenodd;stroke:#000000;stroke-width:2.0px;stroke-linecap:butt;stroke-linejoin:miter;stroke-opacity:1"/>
<path class="bond-28 atom-28 atom-29" d="M 183.4,146.3 L 194.6,147.6" style="fill:none;fill-rule:evenodd;stroke:#FF0000;stroke-width:2.0px;stroke-linecap:butt;stroke-linejoin:miter;stroke-opacity:1"/>
<path class="bond-28 atom-28 atom-29" d="M 172.7,141.1 L 183.9,142.5" style="fill:none;fill-rule:evenodd;stroke:#000000;stroke-width:2.0px;stroke-linecap:butt;stroke-linejoin:miter;stroke-opacity:1"/>
<path class="bond-28 atom-28 atom-29" d="M 183.9,142.5 L 195.1,143.8" style="fill:none;fill-rule:evenodd;stroke:#FF0000;stroke-width:2.0px;stroke-linecap:butt;stroke-linejoin:miter;stroke-opacity:1"/>
<path class="bond-29 atom-28 atom-30" d="M 173.6,143.1 L 167.6,151.1" style="fill:none;fill-rule:evenodd;stroke:#000000;stroke-width:2.0px;stroke-linecap:butt;stroke-linejoin:miter;stroke-opacity:1"/>
<path class="bond-29 atom-28 atom-30" d="M 167.6,151.1 L 161.6,159.0" style="fill:none;fill-rule:evenodd;stroke:#FF0000;stroke-width:2.0px;stroke-linecap:butt;stroke-linejoin:miter;stroke-opacity:1"/>
<path d="M 218.6,81.7 L 219.8,81.8 L 220.6,80.8" style="fill:none;stroke:#000000;stroke-width:2.0px;stroke-linecap:butt;stroke-linejoin:miter;stroke-opacity:1;"/>
<path d="M 284.8,67.5 L 286.0,67.7 L 286.2,68.1" style="fill:none;stroke:#000000;stroke-width:2.0px;stroke-linecap:butt;stroke-linejoin:miter;stroke-opacity:1;"/>
<path d="M 170.3,75.7 L 169.0,75.6 L 168.3,76.6" style="fill:none;stroke:#000000;stroke-width:2.0px;stroke-linecap:butt;stroke-linejoin:miter;stroke-opacity:1;"/>
<path d="M 104.1,89.9 L 102.8,89.7 L 102.3,88.6" style="fill:none;stroke:#000000;stroke-width:2.0px;stroke-linecap:butt;stroke-linejoin:miter;stroke-opacity:1;"/>
<path d="M 93.3,67.3 L 92.8,66.2 L 91.6,66.0" style="fill:none;stroke:#000000;stroke-width:2.0px;stroke-linecap:butt;stroke-linejoin:miter;stroke-opacity:1;"/>
<path d="M 43.3,60.1 L 42.0,59.9 L 41.7,60.3" style="fill:none;stroke:#000000;stroke-width:2.0px;stroke-linecap:butt;stroke-linejoin:miter;stroke-opacity:1;"/>
<path d="M 173.1,141.9 L 173.6,143.1 L 173.3,143.5" style="fill:none;stroke:#000000;stroke-width:2.0px;stroke-linecap:butt;stroke-linejoin:miter;stroke-opacity:1;"/>
<path class="atom-5" d="M 214.8 34.3 L 215.8 34.3 L 215.8 37.3 L 219.5 37.3 L 219.5 34.3 L 220.4 34.3 L 220.4 41.5 L 219.5 41.5 L 219.5 38.2 L 215.8 38.2 L 215.8 41.5 L 214.8 41.5 L 214.8 34.3 " fill="#FF0000"/>
<path class="atom-5" d="M 221.9 37.9 Q 221.9 36.1, 222.8 35.1 Q 223.6 34.2, 225.3 34.2 Q 226.9 34.2, 227.7 35.1 Q 228.6 36.1, 228.6 37.9 Q 228.6 39.6, 227.7 40.6 Q 226.8 41.6, 225.3 41.6 Q 223.7 41.6, 222.8 40.6 Q 221.9 39.6, 221.9 37.9 M 225.3 40.8 Q 226.4 40.8, 227.0 40.1 Q 227.6 39.3, 227.6 37.9 Q 227.6 36.4, 227.0 35.7 Q 226.4 35.0, 225.3 35.0 Q 224.2 35.0, 223.5 35.7 Q 223.0 36.4, 223.0 37.9 Q 223.0 39.3, 223.5 40.1 Q 224.2 40.8, 225.3 40.8 " fill="#FF0000"/>
<path class="atom-10" d="M 298.1 47.3 Q 298.1 45.5, 299.0 44.5 Q 299.8 43.6, 301.5 43.6 Q 303.1 43.6, 303.9 44.5 Q 304.8 45.5, 304.8 47.3 Q 304.8 49.0, 303.9 50.0 Q 303.0 51.0, 301.5 51.0 Q 299.9 51.0, 299.0 50.0 Q 298.1 49.0, 298.1 47.3 M 301.5 50.2 Q 302.6 50.2, 303.1 49.5 Q 303.8 48.7, 303.8 47.3 Q 303.8 45.8, 303.1 45.1 Q 302.6 44.4, 301.5 44.4 Q 300.3 44.4, 299.7 45.1 Q 299.1 45.8, 299.1 47.3 Q 299.1 48.7, 299.7 49.5 Q 300.3 50.2, 301.5 50.2 " fill="#FF0000"/>
<path class="atom-11" d="M 292.7 91.2 Q 292.7 89.5, 293.6 88.5 Q 294.4 87.6, 296.0 87.6 Q 297.6 87.6, 298.5 88.5 Q 299.4 89.5, 299.4 91.2 Q 299.4 93.0, 298.5 94.0 Q 297.6 95.0, 296.0 95.0 Q 294.4 95.0, 293.6 94.0 Q 292.7 93.0, 292.7 91.2 M 296.0 94.2 Q 297.1 94.2, 297.7 93.4 Q 298.3 92.7, 298.3 91.2 Q 298.3 89.8, 297.7 89.1 Q 297.1 88.4, 296.0 88.4 Q 294.9 88.4, 294.3 89.1 Q 293.7 89.8, 293.7 91.2 Q 293.7 92.7, 294.3 93.4 Q 294.9 94.2, 296.0 94.2 " fill="#FF0000"/>
<path class="atom-11" d="M 300.5 87.6 L 301.5 87.6 L 301.5 90.7 L 305.2 90.7 L 305.2 87.6 L 306.1 87.6 L 306.1 94.9 L 305.2 94.9 L 305.2 91.5 L 301.5 91.5 L 301.5 94.9 L 300.5 94.9 L 300.5 87.6 " fill="#FF0000"/>
<path class="atom-23" d="M 28.7 36.4 Q 28.7 34.6, 29.6 33.6 Q 30.5 32.7, 32.1 32.7 Q 33.7 32.7, 34.5 33.6 Q 35.4 34.6, 35.4 36.4 Q 35.4 38.1, 34.5 39.1 Q 33.6 40.1, 32.1 40.1 Q 30.5 40.1, 29.6 39.1 Q 28.7 38.1, 28.7 36.4 M 32.1 39.3 Q 33.2 39.3, 33.8 38.6 Q 34.4 37.8, 34.4 36.4 Q 34.4 34.9, 33.8 34.2 Q 33.2 33.5, 32.1 33.5 Q 31.0 33.5, 30.4 34.2 Q 29.8 34.9, 29.8 36.4 Q 29.8 37.8, 30.4 38.6 Q 31.0 39.3, 32.1 39.3 " fill="#FF0000"/>
<path class="atom-24" d="M 16.2 76.7 L 17.1 76.7 L 17.1 79.8 L 20.8 79.8 L 20.8 76.7 L 21.8 76.7 L 21.8 84.0 L 20.8 84.0 L 20.8 80.6 L 17.1 80.6 L 17.1 84.0 L 16.2 84.0 L 16.2 76.7 " fill="#FF0000"/>
<path class="atom-24" d="M 23.3 80.4 Q 23.3 78.6, 24.2 77.6 Q 25.0 76.7, 26.6 76.7 Q 28.2 76.7, 29.1 77.6 Q 30.0 78.6, 30.0 80.4 Q 30.0 82.1, 29.1 83.1 Q 28.2 84.1, 26.6 84.1 Q 25.0 84.1, 24.2 83.1 Q 23.3 82.1, 23.3 80.4 M 26.6 83.3 Q 27.7 83.3, 28.3 82.6 Q 28.9 81.8, 28.9 80.4 Q 28.9 78.9, 28.3 78.2 Q 27.7 77.5, 26.6 77.5 Q 25.5 77.5, 24.9 78.2 Q 24.3 78.9, 24.3 80.4 Q 24.3 81.8, 24.9 82.6 Q 25.5 83.3, 26.6 83.3 " fill="#FF0000"/>
<path class="atom-29" d="M 195.7 146.3 Q 195.7 144.5, 196.5 143.6 Q 197.4 142.6, 199.0 142.6 Q 200.6 142.6, 201.5 143.6 Q 202.3 144.5, 202.3 146.3 Q 202.3 148.0, 201.4 149.0 Q 200.6 150.0, 199.0 150.0 Q 197.4 150.0, 196.5 149.0 Q 195.7 148.0, 195.7 146.3 M 199.0 149.2 Q 200.1 149.2, 200.7 148.5 Q 201.3 147.7, 201.3 146.3 Q 201.3 144.8, 200.7 144.1 Q 200.1 143.4, 199.0 143.4 Q 197.9 143.4, 197.3 144.1 Q 196.7 144.8, 196.7 146.3 Q 196.7 147.7, 197.3 148.5 Q 197.9 149.2, 199.0 149.2 " fill="#FF0000"/>
<path class="atom-30" d="M 147.7 160.0 L 148.7 160.0 L 148.7 163.0 L 152.4 163.0 L 152.4 160.0 L 153.4 160.0 L 153.4 167.2 L 152.4 167.2 L 152.4 163.9 L 148.7 163.9 L 148.7 167.2 L 147.7 167.2 L 147.7 160.0 " fill="#FF0000"/>
<path class="atom-30" d="M 154.9 163.6 Q 154.9 161.8, 155.7 160.9 Q 156.6 159.9, 158.2 159.9 Q 159.8 159.9, 160.7 160.9 Q 161.5 161.8, 161.5 163.6 Q 161.5 165.3, 160.6 166.3 Q 159.8 167.3, 158.2 167.3 Q 156.6 167.3, 155.7 166.3 Q 154.9 165.3, 154.9 163.6 M 158.2 166.5 Q 159.3 166.5, 159.9 165.8 Q 160.5 165.0, 160.5 163.6 Q 160.5 162.1, 159.9 161.4 Q 159.3 160.7, 158.2 160.7 Q 157.1 160.7, 156.5 161.4 Q 155.9 162.1, 155.9 163.6 Q 155.9 165.0, 156.5 165.8 Q 157.1 166.5, 158.2 166.5 " fill="#FF0000"/>
</svg>
