<?xml version='1.0' encoding='ASCII' standalone='yes'?>
<svg xmlns="http://www.w3.org/2000/svg" xmlns:rdkit="http://www.rdkit.org/xml" xmlns:xlink="http://www.w3.org/1999/xlink" version="1.1" baseProfile="full" xml:space="preserve" width="265px" height="200px" viewBox="0 0 265 200">
<!-- END OF HEADER -->
<rect style="opacity:1.0;fill:#FFFFFF;stroke:none" width="265.0" height="200.0" x="0.0" y="0.0"> </rect>
<path class="bond-0 atom-0 atom-1" d="M 164.2,61.0 L 153.6,91.3" style="fill:none;fill-rule:evenodd;stroke:#000000;stroke-width:2.0px;stroke-linecap:butt;stroke-linejoin:miter;stroke-opacity:1"/>
<path class="bond-1 atom-1 atom-2" d="M 153.6,91.3 L 142.9,121.6" style="fill:none;fill-rule:evenodd;stroke:#000000;stroke-width:2.0px;stroke-linecap:butt;stroke-linejoin:miter;stroke-opacity:1"/>
<path class="bond-2 atom-1 atom-3" d="M 153.6,91.3 L 123.3,80.6" style="fill:none;fill-rule:evenodd;stroke:#000000;stroke-width:2.0px;stroke-linecap:butt;stroke-linejoin:miter;stroke-opacity:1"/>
<path class="bond-3 atom-3 atom-4" d="M 123.3,80.6 L 98.9,101.6" style="fill:none;fill-rule:evenodd;stroke:#000000;stroke-width:2.0px;stroke-linecap:butt;stroke-linejoin:miter;stroke-opacity:1"/>
<path class="bond-4 atom-4 atom-5" d="M 98.9,101.6 L 68.6,90.9" style="fill:none;fill-rule:evenodd;stroke:#000000;stroke-width:2.0px;stroke-linecap:butt;stroke-linejoin:miter;stroke-opacity:1"/>
<path class="bond-5 atom-5 atom-6" d="M 68.6,90.9 L 38.3,80.3" style="fill:none;fill-rule:evenodd;stroke:#000000;stroke-width:2.0px;stroke-linecap:butt;stroke-linejoin:miter;stroke-opacity:1"/>
<path class="bond-6 atom-5 atom-7" d="M 68.6,90.9 L 79.2,60.6" style="fill:none;fill-rule:evenodd;stroke:#000000;stroke-width:2.0px;stroke-linecap:butt;stroke-linejoin:miter;stroke-opacity:1"/>
<path class="bond-7 atom-7 atom-8" d="M 79.2,60.6 L 71.3,51.3" style="fill:none;fill-rule:evenodd;stroke:#000000;stroke-width:2.0px;stroke-linecap:butt;stroke-linejoin:miter;stroke-opacity:1"/>
<path class="bond-7 atom-7 atom-8" d="M 71.3,51.3 L 63.3,42.1" style="fill:none;fill-rule:evenodd;stroke:#FF0000;stroke-width:2.0px;stroke-linecap:butt;stroke-linejoin:miter;stroke-opacity:1"/>
<path class="bond-8 atom-5 atom-9" d="M 68.6,90.9 L 58.0,121.2" style="fill:none;fill-rule:evenodd;stroke:#000000;stroke-width:2.0px;stroke-linecap:butt;stroke-linejoin:miter;stroke-opacity:1"/>
<path class="bond-9 atom-9 atom-10" d="M 55.2,121.7 L 63.7,131.6" style="fill:none;fill-rule:evenodd;stroke:#000000;stroke-width:2.0px;stroke-linecap:butt;stroke-linejoin:miter;stroke-opacity:1"/>
<path class="bond-9 atom-9 atom-10" d="M 63.7,131.6 L 72.2,141.5" style="fill:none;fill-rule:evenodd;stroke:#FF0000;stroke-width:2.0px;stroke-linecap:butt;stroke-linejoin:miter;stroke-opacity:1"/>
<path class="bond-9 atom-9 atom-10" d="M 58.9,118.6 L 67.4,128.5" style="fill:none;fill-rule:evenodd;stroke:#000000;stroke-width:2.0px;stroke-linecap:butt;stroke-linejoin:miter;stroke-opacity:1"/>
<path class="bond-9 atom-9 atom-10" d="M 67.4,128.5 L 75.9,138.4" style="fill:none;fill-rule:evenodd;stroke:#FF0000;stroke-width:2.0px;stroke-linecap:butt;stroke-linejoin:miter;stroke-opacity:1"/>
<path class="bond-10 atom-9 atom-11" d="M 58.0,121.2 L 44.8,123.7" style="fill:none;fill-rule:evenodd;stroke:#000000;stroke-width:2.0px;stroke-linecap:butt;stroke-linejoin:miter;stroke-opacity:1"/>
<path class="bond-10 atom-9 atom-11" d="M 44.8,123.7 L 31.6,126.2" style="fill:none;fill-rule:evenodd;stroke:#FF0000;stroke-width:2.0px;stroke-linecap:butt;stroke-linejoin:miter;stroke-opacity:1"/>
<path class="bond-11 atom-1 atom-12" d="M 153.6,91.3 L 183.9,101.9" style="fill:none;fill-rule:evenodd;stroke:#000000;stroke-width:2.0px;stroke-linecap:butt;stroke-linejoin:miter;stroke-opacity:1"/>
<path class="bond-12 atom-12 atom-13" d="M 181.3,101.0 L 183.8,114.6" style="fill:none;fill-rule:evenodd;stroke:#000000;stroke-width:2.0px;stroke-linecap:butt;stroke-linejoin:miter;stroke-opacity:1"/>
<path class="bond-12 atom-12 atom-13" d="M 183.8,114.6 L 186.4,128.2" style="fill:none;fill-rule:evenodd;stroke:#FF0000;stroke-width:2.0px;stroke-linecap:butt;stroke-linejoin:miter;stroke-opacity:1"/>
<path class="bond-12 atom-12 atom-13" d="M 186.0,100.1 L 188.6,113.7" style="fill:none;fill-rule:evenodd;stroke:#000000;stroke-width:2.0px;stroke-linecap:butt;stroke-linejoin:miter;stroke-opacity:1"/>
<path class="bond-12 atom-12 atom-13" d="M 188.6,113.7 L 191.1,127.4" style="fill:none;fill-rule:evenodd;stroke:#FF0000;stroke-width:2.0px;stroke-linecap:butt;stroke-linejoin:miter;stroke-opacity:1"/>
<path class="bond-13 atom-12 atom-14" d="M 183.9,101.9 L 193.4,93.7" style="fill:none;fill-rule:evenodd;stroke:#000000;stroke-width:2.0px;stroke-linecap:butt;stroke-linejoin:miter;stroke-opacity:1"/>
<path class="bond-13 atom-12 atom-14" d="M 193.4,93.7 L 203.0,85.5" style="fill:none;fill-rule:evenodd;stroke:#FF0000;stroke-width:2.0px;stroke-linecap:butt;stroke-linejoin:miter;stroke-opacity:1"/>
<path class="bond-14 atom-14 atom-15" d="M 213.5,82.8 L 233.3,89.8" style="fill:none;fill-rule:evenodd;stroke:#FF0000;stroke-width:2.0px;stroke-linecap:butt;stroke-linejoin:miter;stroke-opacity:1"/>
<path d="M 124.8,81.2 L 123.3,80.6 L 122.0,81.7" style="fill:none;stroke:#000000;stroke-width:2.0px;stroke-linecap:butt;stroke-linejoin:miter;stroke-opacity:1;"/>
<path d="M 100.1,100.5 L 98.9,101.6 L 97.4,101.0" style="fill:none;stroke:#000000;stroke-width:2.0px;stroke-linecap:butt;stroke-linejoin:miter;stroke-opacity:1;"/>
<path d="M 78.7,62.1 L 79.2,60.6 L 78.8,60.2" style="fill:none;stroke:#000000;stroke-width:2.0px;stroke-linecap:butt;stroke-linejoin:miter;stroke-opacity:1;"/>
<path d="M 58.5,119.7 L 58.0,121.2 L 57.3,121.4" style="fill:none;stroke:#000000;stroke-width:2.0px;stroke-linecap:butt;stroke-linejoin:miter;stroke-opacity:1;"/>
<path d="M 182.4,101.4 L 183.9,101.9 L 184.4,101.5" style="fill:none;stroke:#000000;stroke-width:2.0px;stroke-linecap:butt;stroke-linejoin:miter;stroke-opacity:1;"/>
<path class="atom-8" d="M 45.1 31.8 L 46.4 31.8 L 46.4 35.6 L 51.0 35.6 L 51.0 31.8 L 52.3 31.8 L 52.3 40.9 L 51.0 40.9 L 51.0 36.7 L 46.4 36.7 L 46.4 40.9 L 45.1 40.9 L 45.1 31.8 " fill="#FF0000"/>
<path class="atom-8" d="M 54.1 36.3 Q 54.1 34.1, 55.2 32.9 Q 56.3 31.7, 58.3 31.7 Q 60.3 31.7, 61.4 32.9 Q 62.5 34.1, 62.5 36.3 Q 62.5 38.5, 61.4 39.8 Q 60.3 41.0, 58.3 41.0 Q 56.3 41.0, 55.2 39.8 Q 54.1 38.5, 54.1 36.3 M 58.3 40.0 Q 59.7 40.0, 60.4 39.1 Q 61.2 38.1, 61.2 36.3 Q 61.2 34.5, 60.4 33.6 Q 59.7 32.7, 58.3 32.7 Q 56.9 32.7, 56.2 33.6 Q 55.4 34.5, 55.4 36.3 Q 55.4 38.1, 56.2 39.1 Q 56.9 40.0, 58.3 40.0 " fill="#FF0000"/>
<path class="atom-10" d="M 74.7 145.6 Q 74.7 143.4, 75.8 142.2 Q 76.9 141.0, 78.9 141.0 Q 80.9 141.0, 82.0 142.2 Q 83.1 143.4, 83.1 145.6 Q 83.1 147.8, 82.0 149.1 Q 80.9 150.3, 78.9 150.3 Q 76.9 150.3, 75.8 149.1 Q 74.7 147.8, 74.7 145.6 M 78.9 149.3 Q 80.3 149.3, 81.0 148.4 Q 81.8 147.4, 81.8 145.6 Q 81.8 143.8, 81.0 142.9 Q 80.3 142.0, 78.9 142.0 Q 77.5 142.0, 76.8 142.9 Q 76.0 143.8, 76.0 145.6 Q 76.0 147.5, 76.8 148.4 Q 77.5 149.3, 78.9 149.3 " fill="#FF0000"/>
<path class="atom-11" d="M 13.2 122.7 L 14.5 122.7 L 14.5 126.5 L 19.1 126.5 L 19.1 122.7 L 20.4 122.7 L 20.4 131.8 L 19.1 131.8 L 19.1 127.6 L 14.5 127.6 L 14.5 131.8 L 13.2 131.8 L 13.2 122.7 " fill="#FF0000"/>
<path class="atom-11" d="M 22.2 127.2 Q 22.2 125.0, 23.3 123.8 Q 24.4 122.6, 26.4 122.6 Q 28.4 122.6, 29.5 123.8 Q 30.6 125.0, 30.6 127.2 Q 30.6 129.4, 29.5 130.7 Q 28.4 131.9, 26.4 131.9 Q 24.4 131.9, 23.3 130.7 Q 22.2 129.4, 22.2 127.2 M 26.4 130.9 Q 27.8 130.9, 28.5 130.0 Q 29.3 129.0, 29.3 127.2 Q 29.3 125.4, 28.5 124.5 Q 27.8 123.6, 26.4 123.6 Q 25.0 123.6, 24.3 124.5 Q 23.5 125.4, 23.5 127.2 Q 23.5 129.0, 24.3 130.0 Q 25.0 130.9, 26.4 130.9 " fill="#FF0000"/>
<path class="atom-13" d="M 185.6 133.5 Q 185.6 131.3, 186.7 130.1 Q 187.8 128.9, 189.8 128.9 Q 191.8 128.9, 192.9 130.1 Q 194.0 131.3, 194.0 133.5 Q 194.0 135.7, 192.9 137.0 Q 191.8 138.2, 189.8 138.2 Q 187.8 138.2, 186.7 137.0 Q 185.6 135.7, 185.6 133.5 M 189.8 137.2 Q 191.2 137.2, 192.0 136.2 Q 192.7 135.3, 192.7 133.5 Q 192.7 131.7, 192.0 130.8 Q 191.2 129.9, 189.8 129.9 Q 188.4 129.9, 187.7 130.8 Q 186.9 131.7, 186.9 133.5 Q 186.9 135.3, 187.7 136.2 Q 188.4 137.2, 189.8 137.2 " fill="#FF0000"/>
<path class="atom-14" d="M 204.1 81.0 Q 204.1 78.8, 205.1 77.6 Q 206.2 76.4, 208.2 76.4 Q 210.3 76.4, 211.3 77.6 Q 212.4 78.8, 212.4 81.0 Q 212.4 83.2, 211.3 84.5 Q 210.2 85.7, 208.2 85.7 Q 206.2 85.7, 205.1 84.5 Q 204.1 83.2, 204.1 81.0 M 208.2 84.7 Q 209.6 84.7, 210.4 83.8 Q 211.1 82.8, 211.1 81.0 Q 211.1 79.2, 210.4 78.3 Q 209.6 77.4, 208.2 77.4 Q 206.8 77.4, 206.1 78.3 Q 205.3 79.2, 205.3 81.0 Q 205.3 82.8, 206.1 83.8 Q 206.8 84.7, 208.2 84.7 " fill="#FF0000"/>
<path class="atom-15" d="M 234.4 91.6 Q 234.4 89.4, 235.4 88.2 Q 236.5 87.0, 238.5 87.0 Q 240.6 87.0, 241.6 88.2 Q 242.7 89.4, 242.7 91.6 Q 242.7 93.8, 241.6 95.1 Q 240.5 96.3, 238.5 96.3 Q 236.5 96.3, 235.4 95.1 Q 234.4 93.9, 234.4 91.6 M 238.5 95.3 Q 239.9 95.3, 240.7 94.4 Q 241.4 93.5, 241.4 91.6 Q 241.4 89.8, 240.7 88.9 Q 239.9 88.0, 238.5 88.0 Q 237.2 88.0, 236.4 88.9 Q 235.7 89.8, 235.7 91.6 Q 235.7 93.5, 236.4 94.4 Q 237.2 95.3, 238.5 95.3 " fill="#FF0000"/>
<path class="atom-15" d="M 244.1 87.1 L 245.4 87.1 L 245.4 91.0 L 250.0 91.0 L 250.0 87.1 L 251.2 87.1 L 251.2 96.2 L 250.0 96.2 L 250.0 92.0 L 245.4 92.0 L 245.4 96.2 L 244.1 96.2 L 244.1 87.1 " fill="#FF0000"/>
<path class="legend" d="M 123.7 181.9 Q 123.7 179.6, 124.4 177.7 Q 125.1 175.8, 126.4 173.8 L 127.3 174.4 Q 126.2 176.3, 125.7 178.0 Q 125.2 179.7, 125.2 181.9 Q 125.2 184.0, 125.7 185.8 Q 126.2 187.5, 127.3 189.4 L 126.4 190.0 Q 125.1 188.0, 124.4 186.1 Q 123.7 184.2, 123.7 181.9 " fill="#000000"/>
<path class="legend" d="M 128.2 177.3 Q 128.6 176.2, 129.6 175.6 Q 130.6 175.0, 132.0 175.0 Q 133.7 175.0, 134.6 175.9 Q 135.6 176.8, 135.6 178.5 Q 135.6 180.2, 134.3 181.7 Q 133.1 183.3, 130.6 185.2 L 135.8 185.2 L 135.8 186.4 L 128.2 186.4 L 128.2 185.4 Q 130.3 183.9, 131.5 182.8 Q 132.8 181.6, 133.4 180.6 Q 134.0 179.6, 134.0 178.6 Q 134.0 177.5, 133.4 176.9 Q 132.9 176.3, 132.0 176.3 Q 131.1 176.3, 130.4 176.6 Q 129.8 177.0, 129.4 177.8 L 128.2 177.3 " fill="#000000"/>
<path class="legend" d="M 140.8 181.9 Q 140.8 184.2, 140.1 186.1 Q 139.4 188.0, 138.1 190.0 L 137.2 189.4 Q 138.3 187.5, 138.8 185.8 Q 139.3 184.0, 139.3 181.9 Q 139.3 179.7, 138.8 178.0 Q 138.3 176.3, 137.2 174.4 L 138.1 173.8 Q 139.4 175.8, 140.1 177.7 Q 140.8 179.6, 140.8 181.9 " fill="#000000"/>
</svg>
