<?xml version='1.0' encoding='ASCII' standalone='yes'?>
<svg xmlns="http://www.w3.org/2000/svg" xmlns:rdkit="http://www.rdkit.org/xml" xmlns:xlink="http://www.w3.org/1999/xlink" version="1.1" baseProfile="full" xml:space="preserve" width="307px" height="200px" viewBox="0 0 307 200">
<!-- END OF HEADER -->
<rect style="opacity:1.0;fill:#FFFFFF;stroke:none" width="307.0" height="200.0" x="0.0" y="0.0"> </rect>
<path class="bond-0 atom-0 atom-1" d="M 91.6,51.3 L 89.4,75.7" style="fill:none;fill-rule:evenodd;stroke:#000000;stroke-width:2.0px;stroke-linecap:butt;stroke-linejoin:miter;stroke-opacity:1"/>
<path class="bond-1 atom-1 atom-2" d="M 89.4,75.7 L 60.7,85.1" style="fill:none;fill-rule:evenodd;stroke:#000000;stroke-width:2.0px;stroke-linecap:butt;stroke-linejoin:miter;stroke-opacity:1"/>
<path class="bond-2 atom-2 atom-3" d="M 60.7,85.1 L 54.4,114.7" style="fill:none;fill-rule:evenodd;stroke:#000000;stroke-width:2.0px;stroke-linecap:butt;stroke-linejoin:miter;stroke-opacity:1"/>
<path class="bond-3 atom-3 atom-4" d="M 54.4,114.7 L 25.6,124.0" style="fill:none;fill-rule:evenodd;stroke:#000000;stroke-width:2.0px;stroke-linecap:butt;stroke-linejoin:miter;stroke-opacity:1"/>
<path class="bond-4 atom-4 atom-5" d="M 25.6,124.0 L 23.0,136.2" style="fill:none;fill-rule:evenodd;stroke:#000000;stroke-width:2.0px;stroke-linecap:butt;stroke-linejoin:miter;stroke-opacity:1"/>
<path class="bond-4 atom-4 atom-5" d="M 23.0,136.2 L 20.4,148.3" style="fill:none;fill-rule:evenodd;stroke:#FF0000;stroke-width:2.0px;stroke-linecap:butt;stroke-linejoin:miter;stroke-opacity:1"/>
<path class="bond-5 atom-3 atom-6" d="M 54.4,114.7 L 76.9,134.9" style="fill:none;fill-rule:evenodd;stroke:#000000;stroke-width:2.0px;stroke-linecap:butt;stroke-linejoin:miter;stroke-opacity:1"/>
<path class="bond-6 atom-6 atom-7" d="M 76.3,137.4 L 88.9,133.4" style="fill:none;fill-rule:evenodd;stroke:#000000;stroke-width:2.0px;stroke-linecap:butt;stroke-linejoin:miter;stroke-opacity:1"/>
<path class="bond-6 atom-6 atom-7" d="M 88.9,133.4 L 101.4,129.3" style="fill:none;fill-rule:evenodd;stroke:#FF0000;stroke-width:2.0px;stroke-linecap:butt;stroke-linejoin:miter;stroke-opacity:1"/>
<path class="bond-6 atom-6 atom-7" d="M 74.9,133.2 L 87.5,129.1" style="fill:none;fill-rule:evenodd;stroke:#000000;stroke-width:2.0px;stroke-linecap:butt;stroke-linejoin:miter;stroke-opacity:1"/>
<path class="bond-6 atom-6 atom-7" d="M 87.5,129.1 L 100.0,125.0" style="fill:none;fill-rule:evenodd;stroke:#FF0000;stroke-width:2.0px;stroke-linecap:butt;stroke-linejoin:miter;stroke-opacity:1"/>
<path class="bond-7 atom-6 atom-8" d="M 76.9,134.9 L 74.3,147.1" style="fill:none;fill-rule:evenodd;stroke:#000000;stroke-width:2.0px;stroke-linecap:butt;stroke-linejoin:miter;stroke-opacity:1"/>
<path class="bond-7 atom-6 atom-8" d="M 74.3,147.1 L 71.7,159.2" style="fill:none;fill-rule:evenodd;stroke:#FF0000;stroke-width:2.0px;stroke-linecap:butt;stroke-linejoin:miter;stroke-opacity:1"/>
<path class="bond-8 atom-1 atom-9" d="M 89.4,75.7 L 111.9,96.0" style="fill:none;fill-rule:evenodd;stroke:#000000;stroke-width:2.0px;stroke-linecap:butt;stroke-linejoin:miter;stroke-opacity:1"/>
<path class="bond-9 atom-9 atom-10" d="M 111.9,96.0 L 140.7,86.6" style="fill:none;fill-rule:evenodd;stroke:#000000;stroke-width:2.0px;stroke-linecap:butt;stroke-linejoin:miter;stroke-opacity:1"/>
<path class="bond-10 atom-10 atom-11" d="M 140.7,86.6 L 169.5,77.3" style="fill:none;fill-rule:evenodd;stroke:#000000;stroke-width:2.0px;stroke-linecap:butt;stroke-linejoin:miter;stroke-opacity:1"/>
<path class="bond-11 atom-10 atom-12" d="M 140.7,86.6 L 131.4,57.8" style="fill:none;fill-rule:evenodd;stroke:#000000;stroke-width:2.0px;stroke-linecap:butt;stroke-linejoin:miter;stroke-opacity:1"/>
<path class="bond-12 atom-12 atom-13" d="M 133.0,56.0 L 123.4,52.7" style="fill:none;fill-rule:evenodd;stroke:#000000;stroke-width:2.0px;stroke-linecap:butt;stroke-linejoin:miter;stroke-opacity:1"/>
<path class="bond-12 atom-12 atom-13" d="M 123.4,52.7 L 113.8,49.4" style="fill:none;fill-rule:evenodd;stroke:#FF0000;stroke-width:2.0px;stroke-linecap:butt;stroke-linejoin:miter;stroke-opacity:1"/>
<path class="bond-12 atom-12 atom-13" d="M 132.2,60.5 L 122.0,57.0" style="fill:none;fill-rule:evenodd;stroke:#000000;stroke-width:2.0px;stroke-linecap:butt;stroke-linejoin:miter;stroke-opacity:1"/>
<path class="bond-12 atom-12 atom-13" d="M 122.0,57.0 L 112.4,53.7" style="fill:none;fill-rule:evenodd;stroke:#FF0000;stroke-width:2.0px;stroke-linecap:butt;stroke-linejoin:miter;stroke-opacity:1"/>
<path class="bond-13 atom-12 atom-14" d="M 131.4,57.8 L 139.0,49.3" style="fill:none;fill-rule:evenodd;stroke:#000000;stroke-width:2.0px;stroke-linecap:butt;stroke-linejoin:miter;stroke-opacity:1"/>
<path class="bond-13 atom-12 atom-14" d="M 139.0,49.3 L 146.7,40.8" style="fill:none;fill-rule:evenodd;stroke:#FF0000;stroke-width:2.0px;stroke-linecap:butt;stroke-linejoin:miter;stroke-opacity:1"/>
<path class="bond-14 atom-10 atom-15" d="M 140.7,86.6 L 150.1,115.4" style="fill:none;fill-rule:evenodd;stroke:#000000;stroke-width:2.0px;stroke-linecap:butt;stroke-linejoin:miter;stroke-opacity:1"/>
<path class="bond-15 atom-15 atom-16" d="M 150.1,115.4 L 142.3,124.0" style="fill:none;fill-rule:evenodd;stroke:#000000;stroke-width:2.0px;stroke-linecap:butt;stroke-linejoin:miter;stroke-opacity:1"/>
<path class="bond-15 atom-15 atom-16" d="M 142.3,124.0 L 134.6,132.6" style="fill:none;fill-rule:evenodd;stroke:#FF0000;stroke-width:2.0px;stroke-linecap:butt;stroke-linejoin:miter;stroke-opacity:1"/>
<path class="bond-16 atom-15 atom-17" d="M 150.1,115.4 L 179.7,121.7" style="fill:none;fill-rule:evenodd;stroke:#000000;stroke-width:2.0px;stroke-linecap:butt;stroke-linejoin:miter;stroke-opacity:1"/>
<path class="bond-17 atom-17 atom-18" d="M 179.7,121.7 L 189.0,150.5" style="fill:none;fill-rule:evenodd;stroke:#000000;stroke-width:2.0px;stroke-linecap:butt;stroke-linejoin:miter;stroke-opacity:1"/>
<path class="bond-18 atom-17 atom-19" d="M 179.7,121.7 L 199.9,99.2" style="fill:none;fill-rule:evenodd;stroke:#000000;stroke-width:2.0px;stroke-linecap:butt;stroke-linejoin:miter;stroke-opacity:1"/>
<path class="bond-19 atom-19 atom-20" d="M 199.9,99.2 L 229.5,105.5" style="fill:none;fill-rule:evenodd;stroke:#000000;stroke-width:2.0px;stroke-linecap:butt;stroke-linejoin:miter;stroke-opacity:1"/>
<path class="bond-20 atom-20 atom-21" d="M 229.5,105.5 L 249.8,83.0" style="fill:none;fill-rule:evenodd;stroke:#000000;stroke-width:2.0px;stroke-linecap:butt;stroke-linejoin:miter;stroke-opacity:1"/>
<path class="bond-21 atom-21 atom-22" d="M 249.8,83.0 L 262.1,85.7" style="fill:none;fill-rule:evenodd;stroke:#000000;stroke-width:2.0px;stroke-linecap:butt;stroke-linejoin:miter;stroke-opacity:1"/>
<path class="bond-21 atom-21 atom-22" d="M 262.1,85.7 L 274.5,88.3" style="fill:none;fill-rule:evenodd;stroke:#FF0000;stroke-width:2.0px;stroke-linecap:butt;stroke-linejoin:miter;stroke-opacity:1"/>
<path class="bond-22 atom-20 atom-23" d="M 229.5,105.5 L 238.9,134.3" style="fill:none;fill-rule:evenodd;stroke:#000000;stroke-width:2.0px;stroke-linecap:butt;stroke-linejoin:miter;stroke-opacity:1"/>
<path class="bond-23 atom-23 atom-24" d="M 238.1,131.8 L 229.9,140.9" style="fill:none;fill-rule:evenodd;stroke:#000000;stroke-width:2.0px;stroke-linecap:butt;stroke-linejoin:miter;stroke-opacity:1"/>
<path class="bond-23 atom-23 atom-24" d="M 229.9,140.9 L 221.7,150.0" style="fill:none;fill-rule:evenodd;stroke:#FF0000;stroke-width:2.0px;stroke-linecap:butt;stroke-linejoin:miter;stroke-opacity:1"/>
<path class="bond-23 atom-23 atom-24" d="M 241.4,134.8 L 233.2,143.9" style="fill:none;fill-rule:evenodd;stroke:#000000;stroke-width:2.0px;stroke-linecap:butt;stroke-linejoin:miter;stroke-opacity:1"/>
<path class="bond-23 atom-23 atom-24" d="M 233.2,143.9 L 225.1,153.0" style="fill:none;fill-rule:evenodd;stroke:#FF0000;stroke-width:2.0px;stroke-linecap:butt;stroke-linejoin:miter;stroke-opacity:1"/>
<path class="bond-24 atom-23 atom-25" d="M 238.9,134.3 L 251.2,136.9" style="fill:none;fill-rule:evenodd;stroke:#000000;stroke-width:2.0px;stroke-linecap:butt;stroke-linejoin:miter;stroke-opacity:1"/>
<path class="bond-24 atom-23 atom-25" d="M 251.2,136.9 L 263.6,139.5" style="fill:none;fill-rule:evenodd;stroke:#FF0000;stroke-width:2.0px;stroke-linecap:butt;stroke-linejoin:miter;stroke-opacity:1"/>
<path d="M 62.1,84.6 L 60.7,85.1 L 60.3,86.5" style="fill:none;stroke:#000000;stroke-width:2.0px;stroke-linecap:butt;stroke-linejoin:miter;stroke-opacity:1;"/>
<path d="M 27.0,123.5 L 25.6,124.0 L 25.5,124.6" style="fill:none;stroke:#000000;stroke-width:2.0px;stroke-linecap:butt;stroke-linejoin:miter;stroke-opacity:1;"/>
<path d="M 75.7,133.9 L 76.9,134.9 L 76.7,135.5" style="fill:none;stroke:#000000;stroke-width:2.0px;stroke-linecap:butt;stroke-linejoin:miter;stroke-opacity:1;"/>
<path d="M 110.8,95.0 L 111.9,96.0 L 113.4,95.5" style="fill:none;stroke:#000000;stroke-width:2.0px;stroke-linecap:butt;stroke-linejoin:miter;stroke-opacity:1;"/>
<path d="M 131.8,59.3 L 131.4,57.8 L 131.8,57.4" style="fill:none;stroke:#000000;stroke-width:2.0px;stroke-linecap:butt;stroke-linejoin:miter;stroke-opacity:1;"/>
<path d="M 198.9,100.3 L 199.9,99.2 L 201.4,99.5" style="fill:none;stroke:#000000;stroke-width:2.0px;stroke-linecap:butt;stroke-linejoin:miter;stroke-opacity:1;"/>
<path d="M 248.8,84.2 L 249.8,83.0 L 250.4,83.2" style="fill:none;stroke:#000000;stroke-width:2.0px;stroke-linecap:butt;stroke-linejoin:miter;stroke-opacity:1;"/>
<path d="M 238.4,132.9 L 238.9,134.3 L 239.5,134.4" style="fill:none;stroke:#000000;stroke-width:2.0px;stroke-linecap:butt;stroke-linejoin:miter;stroke-opacity:1;"/>
<path class="atom-5" d="M 15.4 153.6 Q 15.4 151.6, 16.4 150.4 Q 17.4 149.3, 19.3 149.3 Q 21.2 149.3, 22.2 150.4 Q 23.2 151.6, 23.2 153.6 Q 23.2 155.7, 22.2 156.9 Q 21.2 158.1, 19.3 158.1 Q 17.4 158.1, 16.4 156.9 Q 15.4 155.7, 15.4 153.6 M 19.3 157.1 Q 20.6 157.1, 21.3 156.2 Q 22.0 155.4, 22.0 153.6 Q 22.0 152.0, 21.3 151.1 Q 20.6 150.2, 19.3 150.2 Q 18.0 150.2, 17.3 151.1 Q 16.6 151.9, 16.6 153.6 Q 16.6 155.4, 17.3 156.2 Q 18.0 157.1, 19.3 157.1 " fill="#FF0000"/>
<path class="atom-5" d="M 24.6 149.4 L 25.7 149.4 L 25.7 153.0 L 30.1 153.0 L 30.1 149.4 L 31.3 149.4 L 31.3 157.9 L 30.1 157.9 L 30.1 154.0 L 25.7 154.0 L 25.7 157.9 L 24.6 157.9 L 24.6 149.4 " fill="#FF0000"/>
<path class="atom-7" d="M 101.7 125.6 Q 101.7 123.5, 102.7 122.4 Q 103.7 121.2, 105.6 121.2 Q 107.5 121.2, 108.6 122.4 Q 109.6 123.5, 109.6 125.6 Q 109.6 127.7, 108.5 128.9 Q 107.5 130.0, 105.6 130.0 Q 103.7 130.0, 102.7 128.9 Q 101.7 127.7, 101.7 125.6 M 105.6 129.1 Q 106.9 129.1, 107.6 128.2 Q 108.4 127.3, 108.4 125.6 Q 108.4 123.9, 107.6 123.1 Q 106.9 122.2, 105.6 122.2 Q 104.3 122.2, 103.6 123.1 Q 102.9 123.9, 102.9 125.6 Q 102.9 127.3, 103.6 128.2 Q 104.3 129.1, 105.6 129.1 " fill="#FF0000"/>
<path class="atom-8" d="M 66.6 164.5 Q 66.6 162.5, 67.6 161.3 Q 68.7 160.2, 70.6 160.2 Q 72.5 160.2, 73.5 161.3 Q 74.5 162.5, 74.5 164.5 Q 74.5 166.6, 73.5 167.8 Q 72.4 169.0, 70.6 169.0 Q 68.7 169.0, 67.6 167.8 Q 66.6 166.6, 66.6 164.5 M 70.6 168.0 Q 71.9 168.0, 72.6 167.1 Q 73.3 166.3, 73.3 164.5 Q 73.3 162.9, 72.6 162.0 Q 71.9 161.2, 70.6 161.2 Q 69.2 161.2, 68.5 162.0 Q 67.8 162.8, 67.8 164.5 Q 67.8 166.3, 68.5 167.1 Q 69.2 168.0, 70.6 168.0 " fill="#FF0000"/>
<path class="atom-8" d="M 75.8 160.3 L 77.0 160.3 L 77.0 163.9 L 81.4 163.9 L 81.4 160.3 L 82.5 160.3 L 82.5 168.9 L 81.4 168.9 L 81.4 164.9 L 77.0 164.9 L 77.0 168.9 L 75.8 168.9 L 75.8 160.3 " fill="#FF0000"/>
<path class="atom-13" d="M 104.3 49.9 Q 104.3 47.8, 105.3 46.7 Q 106.3 45.5, 108.2 45.5 Q 110.1 45.5, 111.1 46.7 Q 112.1 47.8, 112.1 49.9 Q 112.1 52.0, 111.1 53.1 Q 110.1 54.3, 108.2 54.3 Q 106.3 54.3, 105.3 53.1 Q 104.3 52.0, 104.3 49.9 M 108.2 53.3 Q 109.5 53.3, 110.2 52.5 Q 110.9 51.6, 110.9 49.9 Q 110.9 48.2, 110.2 47.3 Q 109.5 46.5, 108.2 46.5 Q 106.9 46.5, 106.2 47.3 Q 105.5 48.2, 105.5 49.9 Q 105.5 51.6, 106.2 52.5 Q 106.9 53.3, 108.2 53.3 " fill="#FF0000"/>
<path class="atom-14" d="M 147.7 35.4 Q 147.7 33.3, 148.7 32.2 Q 149.7 31.0, 151.6 31.0 Q 153.5 31.0, 154.5 32.2 Q 155.6 33.3, 155.6 35.4 Q 155.6 37.5, 154.5 38.6 Q 153.5 39.8, 151.6 39.8 Q 149.7 39.8, 148.7 38.6 Q 147.7 37.5, 147.7 35.4 M 151.6 38.8 Q 152.9 38.8, 153.6 38.0 Q 154.3 37.1, 154.3 35.4 Q 154.3 33.7, 153.6 32.8 Q 152.9 32.0, 151.6 32.0 Q 150.3 32.0, 149.6 32.8 Q 148.9 33.7, 148.9 35.4 Q 148.9 37.1, 149.6 38.0 Q 150.3 38.8, 151.6 38.8 " fill="#FF0000"/>
<path class="atom-14" d="M 156.9 31.1 L 158.1 31.1 L 158.1 34.8 L 162.4 34.8 L 162.4 31.1 L 163.6 31.1 L 163.6 39.7 L 162.4 39.7 L 162.4 35.7 L 158.1 35.7 L 158.1 39.7 L 156.9 39.7 L 156.9 31.1 " fill="#FF0000"/>
<path class="atom-16" d="M 117.4 133.7 L 118.6 133.7 L 118.6 137.3 L 123.0 137.3 L 123.0 133.7 L 124.1 133.7 L 124.1 142.2 L 123.0 142.2 L 123.0 138.3 L 118.6 138.3 L 118.6 142.2 L 117.4 142.2 L 117.4 133.7 " fill="#FF0000"/>
<path class="atom-16" d="M 125.9 137.9 Q 125.9 135.9, 126.9 134.7 Q 127.9 133.6, 129.8 133.6 Q 131.7 133.6, 132.7 134.7 Q 133.7 135.9, 133.7 137.9 Q 133.7 140.0, 132.7 141.2 Q 131.7 142.4, 129.8 142.4 Q 127.9 142.4, 126.9 141.2 Q 125.9 140.0, 125.9 137.9 M 129.8 141.4 Q 131.1 141.4, 131.8 140.5 Q 132.5 139.6, 132.5 137.9 Q 132.5 136.2, 131.8 135.4 Q 131.1 134.5, 129.8 134.5 Q 128.5 134.5, 127.8 135.4 Q 127.1 136.2, 127.1 137.9 Q 127.1 139.6, 127.8 140.5 Q 128.5 141.4, 129.8 141.4 " fill="#FF0000"/>
<path class="atom-22" d="M 275.4 89.3 Q 275.4 87.3, 276.5 86.1 Q 277.5 85.0, 279.4 85.0 Q 281.3 85.0, 282.3 86.1 Q 283.3 87.3, 283.3 89.3 Q 283.3 91.4, 282.3 92.6 Q 281.3 93.8, 279.4 93.8 Q 277.5 93.8, 276.5 92.6 Q 275.4 91.4, 275.4 89.3 M 279.4 92.8 Q 280.7 92.8, 281.4 92.0 Q 282.1 91.1, 282.1 89.3 Q 282.1 87.7, 281.4 86.8 Q 280.7 86.0, 279.4 86.0 Q 278.1 86.0, 277.4 86.8 Q 276.7 87.7, 276.7 89.3 Q 276.7 91.1, 277.4 92.0 Q 278.1 92.8, 279.4 92.8 " fill="#FF0000"/>
<path class="atom-22" d="M 284.6 85.1 L 285.8 85.1 L 285.8 88.7 L 290.2 88.7 L 290.2 85.1 L 291.4 85.1 L 291.4 93.7 L 290.2 93.7 L 290.2 89.7 L 285.8 89.7 L 285.8 93.7 L 284.6 93.7 L 284.6 85.1 " fill="#FF0000"/>
<path class="atom-24" d="M 214.7 156.8 Q 214.7 154.7, 215.7 153.6 Q 216.7 152.4, 218.6 152.4 Q 220.5 152.4, 221.5 153.6 Q 222.5 154.7, 222.5 156.8 Q 222.5 158.9, 221.5 160.1 Q 220.5 161.3, 218.6 161.3 Q 216.7 161.3, 215.7 160.1 Q 214.7 158.9, 214.7 156.8 M 218.6 160.3 Q 219.9 160.3, 220.6 159.4 Q 221.3 158.5, 221.3 156.8 Q 221.3 155.1, 220.6 154.3 Q 219.9 153.4, 218.6 153.4 Q 217.3 153.4, 216.6 154.3 Q 215.9 155.1, 215.9 156.8 Q 215.9 158.5, 216.6 159.4 Q 217.3 160.3, 218.6 160.3 " fill="#FF0000"/>
<path class="atom-25" d="M 264.5 140.6 Q 264.5 138.6, 265.6 137.4 Q 266.6 136.3, 268.5 136.3 Q 270.4 136.3, 271.4 137.4 Q 272.4 138.6, 272.4 140.6 Q 272.4 142.7, 271.4 143.9 Q 270.3 145.1, 268.5 145.1 Q 266.6 145.1, 265.6 143.9 Q 264.5 142.7, 264.5 140.6 M 268.5 144.1 Q 269.8 144.1, 270.5 143.2 Q 271.2 142.3, 271.2 140.6 Q 271.2 138.9, 270.5 138.1 Q 269.8 137.2, 268.5 137.2 Q 267.2 137.2, 266.4 138.1 Q 265.7 138.9, 265.7 140.6 Q 265.7 142.3, 266.4 143.2 Q 267.2 144.1, 268.5 144.1 " fill="#FF0000"/>
<path class="atom-25" d="M 273.7 136.4 L 274.9 136.4 L 274.9 140.0 L 279.3 140.0 L 279.3 136.4 L 280.4 136.4 L 280.4 144.9 L 279.3 144.9 L 279.3 141.0 L 274.9 141.0 L 274.9 144.9 L 273.7 144.9 L 273.7 136.4 " fill="#FF0000"/>
</svg>
