<?xml version='1.0' encoding='ASCII' standalone='yes'?>
<svg xmlns="http://www.w3.org/2000/svg" xmlns:rdkit="http://www.rdkit.org/xml" xmlns:xlink="http://www.w3.org/1999/xlink" version="1.1" baseProfile="full" xml:space="preserve" width="347px" height="200px" viewBox="0 0 347 200">
<!-- END OF HEADER -->
<rect style="opacity:1.0;fill:#FFFFFF;stroke:none" width="347.0" height="200.0" x="0.0" y="0.0"> </rect>
<path class="bond-0 atom-0 atom-1" d="M 76.6,47.2 L 77.2,69.2" style="fill:none;fill-rule:evenodd;stroke:#000000;stroke-width:2.0px;stroke-linecap:butt;stroke-linejoin:miter;stroke-opacity:1"/>
<path class="bond-1 atom-1 atom-2" d="M 77.2,69.2 L 96.6,79.8" style="fill:none;fill-rule:evenodd;stroke:#000000;stroke-width:2.0px;stroke-linecap:butt;stroke-linejoin:miter;stroke-opacity:1"/>
<path class="bond-2 atom-2 atom-3" d="M 96.6,79.8 L 97.1,101.8" style="fill:none;fill-rule:evenodd;stroke:#000000;stroke-width:2.0px;stroke-linecap:butt;stroke-linejoin:miter;stroke-opacity:1"/>
<path class="bond-3 atom-3 atom-4" d="M 97.1,101.8 L 93.3,103.0" style="fill:none;fill-rule:evenodd;stroke:#000000;stroke-width:2.0px;stroke-linecap:butt;stroke-linejoin:miter;stroke-opacity:1"/>
<path class="bond-3 atom-3 atom-4" d="M 93.3,103.0 L 89.5,104.2" style="fill:none;fill-rule:evenodd;stroke:#FF0000;stroke-width:2.0px;stroke-linecap:butt;stroke-linejoin:miter;stroke-opacity:1"/>
<path class="bond-4 atom-3 atom-5" d="M 97.1,101.8 L 116.5,112.3" style="fill:none;fill-rule:evenodd;stroke:#000000;stroke-width:2.0px;stroke-linecap:butt;stroke-linejoin:miter;stroke-opacity:1"/>
<path class="bond-5 atom-5 atom-6" d="M 116.5,112.3 L 106.0,131.7" style="fill:none;fill-rule:evenodd;stroke:#000000;stroke-width:2.0px;stroke-linecap:butt;stroke-linejoin:miter;stroke-opacity:1"/>
<path class="bond-6 atom-5 atom-7" d="M 116.5,112.3 L 127.0,93.0" style="fill:none;fill-rule:evenodd;stroke:#000000;stroke-width:2.0px;stroke-linecap:butt;stroke-linejoin:miter;stroke-opacity:1"/>
<path class="bond-7 atom-5 atom-8" d="M 116.5,112.3 L 135.9,122.9" style="fill:none;fill-rule:evenodd;stroke:#000000;stroke-width:2.0px;stroke-linecap:butt;stroke-linejoin:miter;stroke-opacity:1"/>
<path class="bond-8 atom-8 atom-9" d="M 135.9,122.9 L 154.7,111.4" style="fill:none;fill-rule:evenodd;stroke:#000000;stroke-width:2.0px;stroke-linecap:butt;stroke-linejoin:miter;stroke-opacity:1"/>
<path class="bond-9 atom-9 atom-10" d="M 154.7,111.4 L 143.2,92.6" style="fill:none;fill-rule:evenodd;stroke:#000000;stroke-width:2.0px;stroke-linecap:butt;stroke-linejoin:miter;stroke-opacity:1"/>
<path class="bond-10 atom-10 atom-11" d="M 143.2,92.6 L 147.4,84.8" style="fill:none;fill-rule:evenodd;stroke:#000000;stroke-width:2.0px;stroke-linecap:butt;stroke-linejoin:miter;stroke-opacity:1"/>
<path class="bond-10 atom-10 atom-11" d="M 147.4,84.8 L 151.6,77.1" style="fill:none;fill-rule:evenodd;stroke:#FF0000;stroke-width:2.0px;stroke-linecap:butt;stroke-linejoin:miter;stroke-opacity:1"/>
<path class="bond-11 atom-9 atom-12" d="M 154.7,111.4 L 173.5,99.8" style="fill:none;fill-rule:evenodd;stroke:#000000;stroke-width:2.0px;stroke-linecap:butt;stroke-linejoin:miter;stroke-opacity:1"/>
<path class="bond-12 atom-12 atom-13" d="M 173.5,99.8 L 192.9,110.4" style="fill:none;fill-rule:evenodd;stroke:#000000;stroke-width:2.0px;stroke-linecap:butt;stroke-linejoin:miter;stroke-opacity:1"/>
<path class="bond-13 atom-13 atom-14" d="M 192.9,110.4 L 195.5,128.0" style="fill:none;fill-rule:evenodd;stroke:#000000;stroke-width:2.0px;stroke-linecap:butt;stroke-linejoin:miter;stroke-opacity:1"/>
<path class="bond-14 atom-13 atom-15" d="M 192.9,110.4 L 211.7,98.9" style="fill:none;fill-rule:evenodd;stroke:#000000;stroke-width:2.0px;stroke-linecap:butt;stroke-linejoin:miter;stroke-opacity:1"/>
<path class="bond-15 atom-15 atom-16" d="M 211.7,98.9 L 231.1,109.4" style="fill:none;fill-rule:evenodd;stroke:#000000;stroke-width:2.0px;stroke-linecap:butt;stroke-linejoin:miter;stroke-opacity:1"/>
<path class="bond-16 atom-16 atom-17" d="M 231.1,109.4 L 231.3,118.5" style="fill:none;fill-rule:evenodd;stroke:#000000;stroke-width:2.0px;stroke-linecap:butt;stroke-linejoin:miter;stroke-opacity:1"/>
<path class="bond-16 atom-16 atom-17" d="M 231.3,118.5 L 231.5,127.6" style="fill:none;fill-rule:evenodd;stroke:#FF0000;stroke-width:2.0px;stroke-linecap:butt;stroke-linejoin:miter;stroke-opacity:1"/>
<path class="bond-17 atom-16 atom-18" d="M 231.1,109.4 L 249.9,97.9" style="fill:none;fill-rule:evenodd;stroke:#000000;stroke-width:2.0px;stroke-linecap:butt;stroke-linejoin:miter;stroke-opacity:1"/>
<path class="bond-18 atom-18 atom-19" d="M 249.9,97.9 L 255.3,109.7" style="fill:none;fill-rule:evenodd;stroke:#000000;stroke-width:2.0px;stroke-linecap:butt;stroke-linejoin:miter;stroke-opacity:1"/>
<path class="bond-19 atom-18 atom-20" d="M 249.9,97.9 L 238.4,79.1" style="fill:none;fill-rule:evenodd;stroke:#000000;stroke-width:2.0px;stroke-linecap:butt;stroke-linejoin:miter;stroke-opacity:1"/>
<path class="bond-20 atom-18 atom-21" d="M 249.9,97.9 L 268.7,86.4" style="fill:none;fill-rule:evenodd;stroke:#000000;stroke-width:2.0px;stroke-linecap:butt;stroke-linejoin:miter;stroke-opacity:1"/>
<path class="bond-21 atom-21 atom-22" d="M 268.7,86.4 L 288.1,96.9" style="fill:none;fill-rule:evenodd;stroke:#000000;stroke-width:2.0px;stroke-linecap:butt;stroke-linejoin:miter;stroke-opacity:1"/>
<path class="bond-22 atom-22 atom-23" d="M 288.1,96.9 L 307.4,107.4" style="fill:none;fill-rule:evenodd;stroke:#000000;stroke-width:2.0px;stroke-linecap:butt;stroke-linejoin:miter;stroke-opacity:1"/>
<path class="bond-23 atom-22 atom-24" d="M 288.1,96.9 L 298.6,77.5" style="fill:none;fill-rule:evenodd;stroke:#000000;stroke-width:2.0px;stroke-linecap:butt;stroke-linejoin:miter;stroke-opacity:1"/>
<path class="bond-24 atom-24 atom-25" d="M 300.4,77.5 L 295.6,69.6" style="fill:none;fill-rule:evenodd;stroke:#000000;stroke-width:2.0px;stroke-linecap:butt;stroke-linejoin:miter;stroke-opacity:1"/>
<path class="bond-24 atom-24 atom-25" d="M 295.6,69.6 L 290.8,61.8" style="fill:none;fill-rule:evenodd;stroke:#FF0000;stroke-width:2.0px;stroke-linecap:butt;stroke-linejoin:miter;stroke-opacity:1"/>
<path class="bond-24 atom-24 atom-25" d="M 297.7,79.1 L 292.9,71.3" style="fill:none;fill-rule:evenodd;stroke:#000000;stroke-width:2.0px;stroke-linecap:butt;stroke-linejoin:miter;stroke-opacity:1"/>
<path class="bond-24 atom-24 atom-25" d="M 292.9,71.3 L 288.1,63.5" style="fill:none;fill-rule:evenodd;stroke:#FF0000;stroke-width:2.0px;stroke-linecap:butt;stroke-linejoin:miter;stroke-opacity:1"/>
<path class="bond-25 atom-24 atom-26" d="M 298.6,77.5 L 307.8,77.3" style="fill:none;fill-rule:evenodd;stroke:#000000;stroke-width:2.0px;stroke-linecap:butt;stroke-linejoin:miter;stroke-opacity:1"/>
<path class="bond-25 atom-24 atom-26" d="M 307.8,77.3 L 317.1,77.0" style="fill:none;fill-rule:evenodd;stroke:#FF0000;stroke-width:2.0px;stroke-linecap:butt;stroke-linejoin:miter;stroke-opacity:1"/>
<path class="bond-26 atom-22 atom-27" d="M 288.1,96.9 L 277.5,116.3" style="fill:none;fill-rule:evenodd;stroke:#000000;stroke-width:2.0px;stroke-linecap:butt;stroke-linejoin:miter;stroke-opacity:1"/>
<path class="bond-27 atom-27 atom-28" d="M 277.5,116.3 L 289.0,135.1" style="fill:none;fill-rule:evenodd;stroke:#000000;stroke-width:2.0px;stroke-linecap:butt;stroke-linejoin:miter;stroke-opacity:1"/>
<path class="bond-28 atom-27 atom-29" d="M 277.5,116.3 L 272.9,117.0" style="fill:none;fill-rule:evenodd;stroke:#000000;stroke-width:2.0px;stroke-linecap:butt;stroke-linejoin:miter;stroke-opacity:1"/>
<path class="bond-28 atom-27 atom-29" d="M 272.9,117.0 L 268.2,117.6" style="fill:none;fill-rule:evenodd;stroke:#FF0000;stroke-width:2.0px;stroke-linecap:butt;stroke-linejoin:miter;stroke-opacity:1"/>
<path class="bond-29 atom-9 atom-30" d="M 154.7,111.4 L 166.2,130.2" style="fill:none;fill-rule:evenodd;stroke:#000000;stroke-width:2.0px;stroke-linecap:butt;stroke-linejoin:miter;stroke-opacity:1"/>
<path class="bond-30 atom-30 atom-31" d="M 165.3,128.6 L 160.8,136.8" style="fill:none;fill-rule:evenodd;stroke:#000000;stroke-width:2.0px;stroke-linecap:butt;stroke-linejoin:miter;stroke-opacity:1"/>
<path class="bond-30 atom-30 atom-31" d="M 160.8,136.8 L 156.4,144.9" style="fill:none;fill-rule:evenodd;stroke:#FF0000;stroke-width:2.0px;stroke-linecap:butt;stroke-linejoin:miter;stroke-opacity:1"/>
<path class="bond-30 atom-30 atom-31" d="M 167.9,130.3 L 163.6,138.3" style="fill:none;fill-rule:evenodd;stroke:#000000;stroke-width:2.0px;stroke-linecap:butt;stroke-linejoin:miter;stroke-opacity:1"/>
<path class="bond-30 atom-30 atom-31" d="M 163.6,138.3 L 159.2,146.4" style="fill:none;fill-rule:evenodd;stroke:#FF0000;stroke-width:2.0px;stroke-linecap:butt;stroke-linejoin:miter;stroke-opacity:1"/>
<path class="bond-31 atom-30 atom-32" d="M 166.2,130.2 L 173.3,130.9" style="fill:none;fill-rule:evenodd;stroke:#000000;stroke-width:2.0px;stroke-linecap:butt;stroke-linejoin:miter;stroke-opacity:1"/>
<path class="bond-31 atom-30 atom-32" d="M 173.3,130.9 L 180.4,131.5" style="fill:none;fill-rule:evenodd;stroke:#FF0000;stroke-width:2.0px;stroke-linecap:butt;stroke-linejoin:miter;stroke-opacity:1"/>
<path class="bond-32 atom-1 atom-33" d="M 77.2,69.2 L 58.4,80.8" style="fill:none;fill-rule:evenodd;stroke:#000000;stroke-width:2.0px;stroke-linecap:butt;stroke-linejoin:miter;stroke-opacity:1"/>
<path class="bond-33 atom-33 atom-34" d="M 58.4,80.8 L 59.0,102.8" style="fill:none;fill-rule:evenodd;stroke:#000000;stroke-width:2.0px;stroke-linecap:butt;stroke-linejoin:miter;stroke-opacity:1"/>
<path class="bond-34 atom-34 atom-35" d="M 59.0,102.8 L 59.5,124.9" style="fill:none;fill-rule:evenodd;stroke:#000000;stroke-width:2.0px;stroke-linecap:butt;stroke-linejoin:miter;stroke-opacity:1"/>
<path class="bond-35 atom-34 atom-36" d="M 59.0,102.8 L 81.0,102.2" style="fill:none;fill-rule:evenodd;stroke:#000000;stroke-width:2.0px;stroke-linecap:butt;stroke-linejoin:miter;stroke-opacity:1"/>
<path class="bond-36 atom-36 atom-37" d="M 81.0,102.2 L 85.6,109.7" style="fill:none;fill-rule:evenodd;stroke:#000000;stroke-width:2.0px;stroke-linecap:butt;stroke-linejoin:miter;stroke-opacity:1"/>
<path class="bond-36 atom-36 atom-37" d="M 85.6,109.7 L 90.2,117.2" style="fill:none;fill-rule:evenodd;stroke:#FF0000;stroke-width:2.0px;stroke-linecap:butt;stroke-linejoin:miter;stroke-opacity:1"/>
<path class="bond-37 atom-34 atom-38" d="M 59.0,102.8 L 36.9,103.4" style="fill:none;fill-rule:evenodd;stroke:#000000;stroke-width:2.0px;stroke-linecap:butt;stroke-linejoin:miter;stroke-opacity:1"/>
<path class="bond-38 atom-38 atom-39" d="M 38.7,103.3 L 34.0,95.5" style="fill:none;fill-rule:evenodd;stroke:#000000;stroke-width:2.0px;stroke-linecap:butt;stroke-linejoin:miter;stroke-opacity:1"/>
<path class="bond-38 atom-38 atom-39" d="M 34.0,95.5 L 29.2,87.7" style="fill:none;fill-rule:evenodd;stroke:#FF0000;stroke-width:2.0px;stroke-linecap:butt;stroke-linejoin:miter;stroke-opacity:1"/>
<path class="bond-38 atom-38 atom-39" d="M 36.0,105.0 L 31.3,97.2" style="fill:none;fill-rule:evenodd;stroke:#000000;stroke-width:2.0px;stroke-linecap:butt;stroke-linejoin:miter;stroke-opacity:1"/>
<path class="bond-38 atom-38 atom-39" d="M 31.3,97.2 L 26.5,89.4" style="fill:none;fill-rule:evenodd;stroke:#FF0000;stroke-width:2.0px;stroke-linecap:butt;stroke-linejoin:miter;stroke-opacity:1"/>
<path class="bond-39 atom-38 atom-40" d="M 36.9,103.4 L 32.7,111.1" style="fill:none;fill-rule:evenodd;stroke:#000000;stroke-width:2.0px;stroke-linecap:butt;stroke-linejoin:miter;stroke-opacity:1"/>
<path class="bond-39 atom-38 atom-40" d="M 32.7,111.1 L 28.5,118.9" style="fill:none;fill-rule:evenodd;stroke:#FF0000;stroke-width:2.0px;stroke-linecap:butt;stroke-linejoin:miter;stroke-opacity:1"/>
<path d="M 95.6,79.2 L 96.6,79.8 L 96.6,80.9" style="fill:none;stroke:#000000;stroke-width:2.0px;stroke-linecap:butt;stroke-linejoin:miter;stroke-opacity:1;"/>
<path d="M 134.9,122.4 L 135.9,122.9 L 136.8,122.3" style="fill:none;stroke:#000000;stroke-width:2.0px;stroke-linecap:butt;stroke-linejoin:miter;stroke-opacity:1;"/>
<path d="M 143.8,93.5 L 143.2,92.6 L 143.4,92.2" style="fill:none;stroke:#000000;stroke-width:2.0px;stroke-linecap:butt;stroke-linejoin:miter;stroke-opacity:1;"/>
<path d="M 172.6,100.4 L 173.5,99.8 L 174.5,100.4" style="fill:none;stroke:#000000;stroke-width:2.0px;stroke-linecap:butt;stroke-linejoin:miter;stroke-opacity:1;"/>
<path d="M 210.7,99.4 L 211.7,98.9 L 212.7,99.4" style="fill:none;stroke:#000000;stroke-width:2.0px;stroke-linecap:butt;stroke-linejoin:miter;stroke-opacity:1;"/>
<path d="M 267.7,86.9 L 268.7,86.4 L 269.6,86.9" style="fill:none;stroke:#000000;stroke-width:2.0px;stroke-linecap:butt;stroke-linejoin:miter;stroke-opacity:1;"/>
<path d="M 298.1,78.5 L 298.6,77.5 L 299.0,77.5" style="fill:none;stroke:#000000;stroke-width:2.0px;stroke-linecap:butt;stroke-linejoin:miter;stroke-opacity:1;"/>
<path d="M 165.6,129.2 L 166.2,130.2 L 166.6,130.2" style="fill:none;stroke:#000000;stroke-width:2.0px;stroke-linecap:butt;stroke-linejoin:miter;stroke-opacity:1;"/>
<path d="M 59.3,80.2 L 58.4,80.8 L 58.4,81.9" style="fill:none;stroke:#000000;stroke-width:2.0px;stroke-linecap:butt;stroke-linejoin:miter;stroke-opacity:1;"/>
<path d="M 79.9,102.3 L 81.0,102.2 L 81.2,102.6" style="fill:none;stroke:#000000;stroke-width:2.0px;stroke-linecap:butt;stroke-linejoin:miter;stroke-opacity:1;"/>
<path d="M 38.0,103.3 L 36.9,103.4 L 36.7,103.8" style="fill:none;stroke:#000000;stroke-width:2.0px;stroke-linecap:butt;stroke-linejoin:miter;stroke-opacity:1;"/>
<path class="atom-4" d="M 76.9 102.3 L 77.8 102.3 L 77.8 104.9 L 81.0 104.9 L 81.0 102.3 L 81.8 102.3 L 81.8 108.5 L 81.0 108.5 L 81.0 105.6 L 77.8 105.6 L 77.8 108.5 L 76.9 108.5 L 76.9 102.3 " fill="#FF0000"/>
<path class="atom-4" d="M 83.1 105.4 Q 83.1 103.9, 83.8 103.0 Q 84.6 102.2, 86.0 102.2 Q 87.3 102.2, 88.1 103.0 Q 88.8 103.9, 88.8 105.4 Q 88.8 106.9, 88.1 107.7 Q 87.3 108.6, 86.0 108.6 Q 84.6 108.6, 83.8 107.7 Q 83.1 106.9, 83.1 105.4 M 86.0 107.9 Q 86.9 107.9, 87.4 107.3 Q 87.9 106.6, 87.9 105.4 Q 87.9 104.1, 87.4 103.5 Q 86.9 102.9, 86.0 102.9 Q 85.0 102.9, 84.5 103.5 Q 84.0 104.1, 84.0 105.4 Q 84.0 106.6, 84.5 107.3 Q 85.0 107.9, 86.0 107.9 " fill="#FF0000"/>
<path class="atom-11" d="M 150.8 73.2 Q 150.8 71.7, 151.6 70.9 Q 152.3 70.0, 153.7 70.0 Q 155.1 70.0, 155.8 70.9 Q 156.6 71.7, 156.6 73.2 Q 156.6 74.7, 155.8 75.6 Q 155.1 76.4, 153.7 76.4 Q 152.3 76.4, 151.6 75.6 Q 150.8 74.7, 150.8 73.2 M 153.7 75.7 Q 154.7 75.7, 155.2 75.1 Q 155.7 74.4, 155.7 73.2 Q 155.7 72.0, 155.2 71.4 Q 154.7 70.7, 153.7 70.7 Q 152.8 70.7, 152.2 71.3 Q 151.7 72.0, 151.7 73.2 Q 151.7 74.5, 152.2 75.1 Q 152.8 75.7, 153.7 75.7 " fill="#FF0000"/>
<path class="atom-11" d="M 157.5 70.1 L 158.4 70.1 L 158.4 72.7 L 161.6 72.7 L 161.6 70.1 L 162.4 70.1 L 162.4 76.3 L 161.6 76.3 L 161.6 73.5 L 158.4 73.5 L 158.4 76.3 L 157.5 76.3 L 157.5 70.1 " fill="#FF0000"/>
<path class="atom-17" d="M 228.8 131.4 Q 228.8 129.9, 229.5 129.1 Q 230.2 128.3, 231.6 128.3 Q 233.0 128.3, 233.8 129.1 Q 234.5 129.9, 234.5 131.4 Q 234.5 133.0, 233.8 133.8 Q 233.0 134.7, 231.6 134.7 Q 230.3 134.7, 229.5 133.8 Q 228.8 133.0, 228.8 131.4 M 231.6 134.0 Q 232.6 134.0, 233.1 133.3 Q 233.6 132.7, 233.6 131.4 Q 233.6 130.2, 233.1 129.6 Q 232.6 129.0, 231.6 129.0 Q 230.7 129.0, 230.2 129.6 Q 229.6 130.2, 229.6 131.4 Q 229.6 132.7, 230.2 133.3 Q 230.7 134.0, 231.6 134.0 " fill="#FF0000"/>
<path class="atom-17" d="M 235.5 128.3 L 236.3 128.3 L 236.3 131.0 L 239.5 131.0 L 239.5 128.3 L 240.4 128.3 L 240.4 134.6 L 239.5 134.6 L 239.5 131.7 L 236.3 131.7 L 236.3 134.6 L 235.5 134.6 L 235.5 128.3 " fill="#FF0000"/>
<path class="atom-25" d="M 284.2 58.7 Q 284.2 57.2, 284.9 56.4 Q 285.7 55.5, 287.1 55.5 Q 288.4 55.5, 289.2 56.4 Q 289.9 57.2, 289.9 58.7 Q 289.9 60.2, 289.2 61.1 Q 288.4 62.0, 287.1 62.0 Q 285.7 62.0, 284.9 61.1 Q 284.2 60.2, 284.2 58.7 M 287.1 61.2 Q 288.0 61.2, 288.5 60.6 Q 289.0 60.0, 289.0 58.7 Q 289.0 57.5, 288.5 56.9 Q 288.0 56.2, 287.1 56.2 Q 286.1 56.2, 285.6 56.9 Q 285.1 57.5, 285.1 58.7 Q 285.1 60.0, 285.6 60.6 Q 286.1 61.2, 287.1 61.2 " fill="#FF0000"/>
<path class="atom-26" d="M 317.8 77.0 Q 317.8 75.5, 318.5 74.6 Q 319.2 73.8, 320.6 73.8 Q 322.0 73.8, 322.8 74.6 Q 323.5 75.5, 323.5 77.0 Q 323.5 78.5, 322.7 79.3 Q 322.0 80.2, 320.6 80.2 Q 319.2 80.2, 318.5 79.3 Q 317.8 78.5, 317.8 77.0 M 320.6 79.5 Q 321.6 79.5, 322.1 78.8 Q 322.6 78.2, 322.6 77.0 Q 322.6 75.7, 322.1 75.1 Q 321.6 74.5, 320.6 74.5 Q 319.7 74.5, 319.2 75.1 Q 318.6 75.7, 318.6 77.0 Q 318.6 78.2, 319.2 78.8 Q 319.7 79.5, 320.6 79.5 " fill="#FF0000"/>
<path class="atom-26" d="M 324.5 73.8 L 325.3 73.8 L 325.3 76.5 L 328.5 76.5 L 328.5 73.8 L 329.4 73.8 L 329.4 80.1 L 328.5 80.1 L 328.5 77.2 L 325.3 77.2 L 325.3 80.1 L 324.5 80.1 L 324.5 73.8 " fill="#FF0000"/>
<path class="atom-29" d="M 255.6 115.1 L 256.5 115.1 L 256.5 117.7 L 259.6 117.7 L 259.6 115.1 L 260.5 115.1 L 260.5 121.3 L 259.6 121.3 L 259.6 118.5 L 256.5 118.5 L 256.5 121.3 L 255.6 121.3 L 255.6 115.1 " fill="#FF0000"/>
<path class="atom-29" d="M 261.8 118.2 Q 261.8 116.7, 262.5 115.9 Q 263.3 115.0, 264.6 115.0 Q 266.0 115.0, 266.8 115.9 Q 267.5 116.7, 267.5 118.2 Q 267.5 119.7, 266.8 120.6 Q 266.0 121.4, 264.6 121.4 Q 263.3 121.4, 262.5 120.6 Q 261.8 119.7, 261.8 118.2 M 264.6 120.7 Q 265.6 120.7, 266.1 120.1 Q 266.6 119.4, 266.6 118.2 Q 266.6 117.0, 266.1 116.4 Q 265.6 115.7, 264.6 115.7 Q 263.7 115.7, 263.2 116.3 Q 262.7 117.0, 262.7 118.2 Q 262.7 119.5, 263.2 120.1 Q 263.7 120.7, 264.6 120.7 " fill="#FF0000"/>
<path class="atom-31" d="M 152.8 149.6 Q 152.8 148.1, 153.6 147.2 Q 154.3 146.4, 155.7 146.4 Q 157.1 146.4, 157.8 147.2 Q 158.6 148.1, 158.6 149.6 Q 158.6 151.1, 157.8 151.9 Q 157.1 152.8, 155.7 152.8 Q 154.3 152.8, 153.6 151.9 Q 152.8 151.1, 152.8 149.6 M 155.7 152.1 Q 156.6 152.1, 157.2 151.5 Q 157.7 150.8, 157.7 149.6 Q 157.7 148.3, 157.2 147.7 Q 156.6 147.1, 155.7 147.1 Q 154.7 147.1, 154.2 147.7 Q 153.7 148.3, 153.7 149.6 Q 153.7 150.8, 154.2 151.5 Q 154.7 152.1, 155.7 152.1 " fill="#FF0000"/>
<path class="atom-32" d="M 181.1 131.9 Q 181.1 130.4, 181.9 129.6 Q 182.6 128.7, 184.0 128.7 Q 185.4 128.7, 186.1 129.6 Q 186.9 130.4, 186.9 131.9 Q 186.9 133.4, 186.1 134.3 Q 185.4 135.1, 184.0 135.1 Q 182.6 135.1, 181.9 134.3 Q 181.1 133.4, 181.1 131.9 M 184.0 134.4 Q 184.9 134.4, 185.5 133.8 Q 186.0 133.2, 186.0 131.9 Q 186.0 130.7, 185.5 130.1 Q 184.9 129.4, 184.0 129.4 Q 183.0 129.4, 182.5 130.0 Q 182.0 130.7, 182.0 131.9 Q 182.0 133.2, 182.5 133.8 Q 183.0 134.4, 184.0 134.4 " fill="#FF0000"/>
<path class="atom-32" d="M 187.8 128.8 L 188.7 128.8 L 188.7 131.5 L 191.9 131.5 L 191.9 128.8 L 192.7 128.8 L 192.7 135.0 L 191.9 135.0 L 191.9 132.2 L 188.7 132.2 L 188.7 135.0 L 187.8 135.0 L 187.8 128.8 " fill="#FF0000"/>
<path class="atom-37" d="M 89.7 121.1 Q 89.7 119.6, 90.4 118.7 Q 91.1 117.9, 92.5 117.9 Q 93.9 117.9, 94.6 118.7 Q 95.4 119.6, 95.4 121.1 Q 95.4 122.6, 94.6 123.4 Q 93.9 124.3, 92.5 124.3 Q 91.1 124.3, 90.4 123.4 Q 89.7 122.6, 89.7 121.1 M 92.5 123.6 Q 93.5 123.6, 94.0 123.0 Q 94.5 122.3, 94.5 121.1 Q 94.5 119.8, 94.0 119.2 Q 93.5 118.6, 92.5 118.6 Q 91.6 118.6, 91.0 119.2 Q 90.5 119.8, 90.5 121.1 Q 90.5 122.3, 91.0 123.0 Q 91.6 123.6, 92.5 123.6 " fill="#FF0000"/>
<path class="atom-37" d="M 96.4 118.0 L 97.2 118.0 L 97.2 120.6 L 100.4 120.6 L 100.4 118.0 L 101.2 118.0 L 101.2 124.2 L 100.4 124.2 L 100.4 121.3 L 97.2 121.3 L 97.2 124.2 L 96.4 124.2 L 96.4 118.0 " fill="#FF0000"/>
<path class="atom-39" d="M 22.5 84.6 Q 22.5 83.1, 23.3 82.3 Q 24.0 81.4, 25.4 81.4 Q 26.8 81.4, 27.5 82.3 Q 28.3 83.1, 28.3 84.6 Q 28.3 86.1, 27.5 87.0 Q 26.8 87.8, 25.4 87.8 Q 24.0 87.8, 23.3 87.0 Q 22.5 86.1, 22.5 84.6 M 25.4 87.1 Q 26.3 87.1, 26.9 86.5 Q 27.4 85.8, 27.4 84.6 Q 27.4 83.4, 26.9 82.7 Q 26.3 82.1, 25.4 82.1 Q 24.4 82.1, 23.9 82.7 Q 23.4 83.4, 23.4 84.6 Q 23.4 85.9, 23.9 86.5 Q 24.4 87.1, 25.4 87.1 " fill="#FF0000"/>
<path class="atom-40" d="M 17.4 119.7 L 18.2 119.7 L 18.2 122.3 L 21.4 122.3 L 21.4 119.7 L 22.2 119.7 L 22.2 125.9 L 21.4 125.9 L 21.4 123.0 L 18.2 123.0 L 18.2 125.9 L 17.4 125.9 L 17.4 119.7 " fill="#FF0000"/>
<path class="atom-40" d="M 23.5 122.8 Q 23.5 121.3, 24.3 120.4 Q 25.0 119.6, 26.4 119.6 Q 27.8 119.6, 28.5 120.4 Q 29.3 121.3, 29.3 122.8 Q 29.3 124.3, 28.5 125.2 Q 27.8 126.0, 26.4 126.0 Q 25.0 126.0, 24.3 125.2 Q 23.5 124.3, 23.5 122.8 M 26.4 125.3 Q 27.3 125.3, 27.8 124.7 Q 28.4 124.0, 28.4 122.8 Q 28.4 121.5, 27.8 120.9 Q 27.3 120.3, 26.4 120.3 Q 25.4 120.3, 24.9 120.9 Q 24.4 121.5, 24.4 122.8 Q 24.4 124.0, 24.9 124.7 Q 25.4 125.3, 26.4 125.3 " fill="#FF0000"/>
</svg>
