<?xml version='1.0' encoding='ASCII' standalone='yes'?>
<svg xmlns="http://www.w3.org/2000/svg" xmlns:rdkit="http://www.rdkit.org/xml" xmlns:xlink="http://www.w3.org/1999/xlink" version="1.1" baseProfile="full" xml:space="preserve" width="285px" height="200px" viewBox="0 0 285 200">
<!-- END OF HEADER -->
<rect style="opacity:1.0;fill:#FFFFFF;stroke:none" width="285.0" height="200.0" x="0.0" y="0.0"> </rect>
<path class="bond-0 atom-0 atom-1" d="M 259.2,73.5 L 234.5,91.8" style="fill:none;fill-rule:evenodd;stroke:#000000;stroke-width:2.0px;stroke-linecap:butt;stroke-linejoin:miter;stroke-opacity:1"/>
<path class="bond-1 atom-1 atom-2" d="M 234.5,91.8 L 206.3,79.6" style="fill:none;fill-rule:evenodd;stroke:#000000;stroke-width:2.0px;stroke-linecap:butt;stroke-linejoin:miter;stroke-opacity:1"/>
<path class="bond-2 atom-2 atom-3" d="M 206.3,79.6 L 181.6,97.9" style="fill:none;fill-rule:evenodd;stroke:#000000;stroke-width:2.0px;stroke-linecap:butt;stroke-linejoin:miter;stroke-opacity:1"/>
<path class="bond-3 atom-3 atom-4" d="M 181.6,97.9 L 153.4,85.7" style="fill:none;fill-rule:evenodd;stroke:#000000;stroke-width:2.0px;stroke-linecap:butt;stroke-linejoin:miter;stroke-opacity:1"/>
<path class="bond-4 atom-4 atom-5" d="M 153.4,85.7 L 128.7,104.0" style="fill:none;fill-rule:evenodd;stroke:#000000;stroke-width:2.0px;stroke-linecap:butt;stroke-linejoin:miter;stroke-opacity:1"/>
<path class="bond-5 atom-5 atom-6" d="M 128.7,104.0 L 100.4,91.8" style="fill:none;fill-rule:evenodd;stroke:#000000;stroke-width:2.0px;stroke-linecap:butt;stroke-linejoin:miter;stroke-opacity:1"/>
<path class="bond-6 atom-6 atom-7" d="M 100.4,91.8 L 75.7,110.1" style="fill:none;fill-rule:evenodd;stroke:#000000;stroke-width:2.0px;stroke-linecap:butt;stroke-linejoin:miter;stroke-opacity:1"/>
<path class="bond-7 atom-7 atom-8" d="M 75.7,110.1 L 51.0,128.5" style="fill:none;fill-rule:evenodd;stroke:#000000;stroke-width:2.0px;stroke-linecap:butt;stroke-linejoin:miter;stroke-opacity:1"/>
<path class="bond-8 atom-7 atom-9" d="M 75.7,110.1 L 94.1,134.8" style="fill:none;fill-rule:evenodd;stroke:#000000;stroke-width:2.0px;stroke-linecap:butt;stroke-linejoin:miter;stroke-opacity:1"/>
<path class="bond-9 atom-9 atom-10" d="M 94.1,134.8 L 89.1,146.2" style="fill:none;fill-rule:evenodd;stroke:#000000;stroke-width:2.0px;stroke-linecap:butt;stroke-linejoin:miter;stroke-opacity:1"/>
<path class="bond-9 atom-9 atom-10" d="M 89.1,146.2 L 84.2,157.6" style="fill:none;fill-rule:evenodd;stroke:#FF0000;stroke-width:2.0px;stroke-linecap:butt;stroke-linejoin:miter;stroke-opacity:1"/>
<path class="bond-10 atom-7 atom-11" d="M 75.7,110.1 L 57.4,85.4" style="fill:none;fill-rule:evenodd;stroke:#000000;stroke-width:2.0px;stroke-linecap:butt;stroke-linejoin:miter;stroke-opacity:1"/>
<path class="bond-11 atom-11 atom-12" d="M 59.0,87.6 L 64.2,75.6" style="fill:none;fill-rule:evenodd;stroke:#000000;stroke-width:2.0px;stroke-linecap:butt;stroke-linejoin:miter;stroke-opacity:1"/>
<path class="bond-11 atom-11 atom-12" d="M 64.2,75.6 L 69.3,63.7" style="fill:none;fill-rule:evenodd;stroke:#FF0000;stroke-width:2.0px;stroke-linecap:butt;stroke-linejoin:miter;stroke-opacity:1"/>
<path class="bond-11 atom-11 atom-12" d="M 54.8,85.8 L 59.9,73.8" style="fill:none;fill-rule:evenodd;stroke:#000000;stroke-width:2.0px;stroke-linecap:butt;stroke-linejoin:miter;stroke-opacity:1"/>
<path class="bond-11 atom-11 atom-12" d="M 59.9,73.8 L 65.1,61.9" style="fill:none;fill-rule:evenodd;stroke:#FF0000;stroke-width:2.0px;stroke-linecap:butt;stroke-linejoin:miter;stroke-opacity:1"/>
<path class="bond-12 atom-11 atom-13" d="M 57.4,85.4 L 44.6,86.9" style="fill:none;fill-rule:evenodd;stroke:#000000;stroke-width:2.0px;stroke-linecap:butt;stroke-linejoin:miter;stroke-opacity:1"/>
<path class="bond-12 atom-11 atom-13" d="M 44.6,86.9 L 31.9,88.4" style="fill:none;fill-rule:evenodd;stroke:#FF0000;stroke-width:2.0px;stroke-linecap:butt;stroke-linejoin:miter;stroke-opacity:1"/>
<path class="bond-13 atom-4 atom-14" d="M 153.4,85.7 L 149.8,55.1" style="fill:none;fill-rule:evenodd;stroke:#000000;stroke-width:2.0px;stroke-linecap:butt;stroke-linejoin:miter;stroke-opacity:1"/>
<path class="bond-14 atom-14 atom-15" d="M 150.1,57.8 L 160.5,50.1" style="fill:none;fill-rule:evenodd;stroke:#000000;stroke-width:2.0px;stroke-linecap:butt;stroke-linejoin:miter;stroke-opacity:1"/>
<path class="bond-14 atom-14 atom-15" d="M 160.5,50.1 L 170.9,42.4" style="fill:none;fill-rule:evenodd;stroke:#FF0000;stroke-width:2.0px;stroke-linecap:butt;stroke-linejoin:miter;stroke-opacity:1"/>
<path class="bond-14 atom-14 atom-15" d="M 147.4,54.1 L 157.8,46.4" style="fill:none;fill-rule:evenodd;stroke:#000000;stroke-width:2.0px;stroke-linecap:butt;stroke-linejoin:miter;stroke-opacity:1"/>
<path class="bond-14 atom-14 atom-15" d="M 157.8,46.4 L 168.1,38.7" style="fill:none;fill-rule:evenodd;stroke:#FF0000;stroke-width:2.0px;stroke-linecap:butt;stroke-linejoin:miter;stroke-opacity:1"/>
<path class="bond-15 atom-14 atom-16" d="M 149.8,55.1 L 138.2,50.1" style="fill:none;fill-rule:evenodd;stroke:#000000;stroke-width:2.0px;stroke-linecap:butt;stroke-linejoin:miter;stroke-opacity:1"/>
<path class="bond-15 atom-14 atom-16" d="M 138.2,50.1 L 126.6,45.1" style="fill:none;fill-rule:evenodd;stroke:#FF0000;stroke-width:2.0px;stroke-linecap:butt;stroke-linejoin:miter;stroke-opacity:1"/>
<path class="bond-16 atom-1 atom-17" d="M 234.5,91.8 L 238.0,122.3" style="fill:none;fill-rule:evenodd;stroke:#000000;stroke-width:2.0px;stroke-linecap:butt;stroke-linejoin:miter;stroke-opacity:1"/>
<path class="bond-17 atom-17 atom-18" d="M 235.9,123.9 L 248.1,129.2" style="fill:none;fill-rule:evenodd;stroke:#000000;stroke-width:2.0px;stroke-linecap:butt;stroke-linejoin:miter;stroke-opacity:1"/>
<path class="bond-17 atom-17 atom-18" d="M 248.1,129.2 L 260.3,134.5" style="fill:none;fill-rule:evenodd;stroke:#FF0000;stroke-width:2.0px;stroke-linecap:butt;stroke-linejoin:miter;stroke-opacity:1"/>
<path class="bond-17 atom-17 atom-18" d="M 237.7,119.7 L 249.9,125.0" style="fill:none;fill-rule:evenodd;stroke:#000000;stroke-width:2.0px;stroke-linecap:butt;stroke-linejoin:miter;stroke-opacity:1"/>
<path class="bond-17 atom-17 atom-18" d="M 249.9,125.0 L 262.2,130.3" style="fill:none;fill-rule:evenodd;stroke:#FF0000;stroke-width:2.0px;stroke-linecap:butt;stroke-linejoin:miter;stroke-opacity:1"/>
<path class="bond-18 atom-17 atom-19" d="M 238.0,122.3 L 228.2,129.7" style="fill:none;fill-rule:evenodd;stroke:#000000;stroke-width:2.0px;stroke-linecap:butt;stroke-linejoin:miter;stroke-opacity:1"/>
<path class="bond-18 atom-17 atom-19" d="M 228.2,129.7 L 218.3,137.0" style="fill:none;fill-rule:evenodd;stroke:#FF0000;stroke-width:2.0px;stroke-linecap:butt;stroke-linejoin:miter;stroke-opacity:1"/>
<path d="M 207.7,80.2 L 206.3,79.6 L 205.0,80.5" style="fill:none;stroke:#000000;stroke-width:2.0px;stroke-linecap:butt;stroke-linejoin:miter;stroke-opacity:1;"/>
<path d="M 182.8,97.0 L 181.6,97.9 L 180.2,97.3" style="fill:none;stroke:#000000;stroke-width:2.0px;stroke-linecap:butt;stroke-linejoin:miter;stroke-opacity:1;"/>
<path d="M 129.9,103.1 L 128.7,104.0 L 127.2,103.4" style="fill:none;stroke:#000000;stroke-width:2.0px;stroke-linecap:butt;stroke-linejoin:miter;stroke-opacity:1;"/>
<path d="M 101.8,92.4 L 100.4,91.8 L 99.2,92.7" style="fill:none;stroke:#000000;stroke-width:2.0px;stroke-linecap:butt;stroke-linejoin:miter;stroke-opacity:1;"/>
<path d="M 93.2,133.6 L 94.1,134.8 L 93.8,135.4" style="fill:none;stroke:#000000;stroke-width:2.0px;stroke-linecap:butt;stroke-linejoin:miter;stroke-opacity:1;"/>
<path d="M 58.3,86.7 L 57.4,85.4 L 56.8,85.5" style="fill:none;stroke:#000000;stroke-width:2.0px;stroke-linecap:butt;stroke-linejoin:miter;stroke-opacity:1;"/>
<path d="M 150.0,56.7 L 149.8,55.1 L 149.2,54.9" style="fill:none;stroke:#000000;stroke-width:2.0px;stroke-linecap:butt;stroke-linejoin:miter;stroke-opacity:1;"/>
<path d="M 237.9,120.8 L 238.0,122.3 L 237.5,122.7" style="fill:none;stroke:#000000;stroke-width:2.0px;stroke-linecap:butt;stroke-linejoin:miter;stroke-opacity:1;"/>
<path class="atom-10" d="M 69.3 158.8 L 70.4 158.8 L 70.4 162.5 L 74.9 162.5 L 74.9 158.8 L 76.1 158.8 L 76.1 167.5 L 74.9 167.5 L 74.9 163.4 L 70.4 163.4 L 70.4 167.5 L 69.3 167.5 L 69.3 158.8 " fill="#FF0000"/>
<path class="atom-10" d="M 77.9 163.1 Q 77.9 161.0, 78.9 159.8 Q 79.9 158.7, 81.9 158.7 Q 83.8 158.7, 84.8 159.8 Q 85.9 161.0, 85.9 163.1 Q 85.9 165.2, 84.8 166.4 Q 83.8 167.6, 81.9 167.6 Q 79.9 167.6, 78.9 166.4 Q 77.9 165.2, 77.9 163.1 M 81.9 166.6 Q 83.2 166.6, 83.9 165.7 Q 84.6 164.8, 84.6 163.1 Q 84.6 161.4, 83.9 160.5 Q 83.2 159.6, 81.9 159.6 Q 80.5 159.6, 79.8 160.5 Q 79.1 161.4, 79.1 163.1 Q 79.1 164.8, 79.8 165.7 Q 80.5 166.6, 81.9 166.6 " fill="#FF0000"/>
<path class="atom-12" d="M 65.6 57.2 Q 65.6 55.2, 66.7 54.0 Q 67.7 52.8, 69.6 52.8 Q 71.6 52.8, 72.6 54.0 Q 73.6 55.2, 73.6 57.2 Q 73.6 59.4, 72.6 60.6 Q 71.5 61.8, 69.6 61.8 Q 67.7 61.8, 66.7 60.6 Q 65.6 59.4, 65.6 57.2 M 69.6 60.8 Q 71.0 60.8, 71.7 59.9 Q 72.4 59.0, 72.4 57.2 Q 72.4 55.5, 71.7 54.7 Q 71.0 53.8, 69.6 53.8 Q 68.3 53.8, 67.6 54.7 Q 66.9 55.5, 66.9 57.2 Q 66.9 59.0, 67.6 59.9 Q 68.3 60.8, 69.6 60.8 " fill="#FF0000"/>
<path class="atom-13" d="M 14.2 84.7 L 15.4 84.7 L 15.4 88.4 L 19.9 88.4 L 19.9 84.7 L 21.1 84.7 L 21.1 93.4 L 19.9 93.4 L 19.9 89.4 L 15.4 89.4 L 15.4 93.4 L 14.2 93.4 L 14.2 84.7 " fill="#FF0000"/>
<path class="atom-13" d="M 22.9 89.0 Q 22.9 86.9, 23.9 85.7 Q 24.9 84.6, 26.9 84.6 Q 28.8 84.6, 29.8 85.7 Q 30.8 86.9, 30.8 89.0 Q 30.8 91.1, 29.8 92.3 Q 28.8 93.5, 26.9 93.5 Q 24.9 93.5, 23.9 92.3 Q 22.9 91.1, 22.9 89.0 M 26.9 92.5 Q 28.2 92.5, 28.9 91.6 Q 29.6 90.7, 29.6 89.0 Q 29.6 87.3, 28.9 86.4 Q 28.2 85.6, 26.9 85.6 Q 25.5 85.6, 24.8 86.4 Q 24.1 87.3, 24.1 89.0 Q 24.1 90.8, 24.8 91.6 Q 25.5 92.5, 26.9 92.5 " fill="#FF0000"/>
<path class="atom-15" d="M 170.5 36.8 Q 170.5 34.7, 171.6 33.6 Q 172.6 32.4, 174.5 32.4 Q 176.4 32.4, 177.5 33.6 Q 178.5 34.7, 178.5 36.8 Q 178.5 38.9, 177.5 40.2 Q 176.4 41.3, 174.5 41.3 Q 172.6 41.3, 171.6 40.2 Q 170.5 39.0, 170.5 36.8 M 174.5 40.4 Q 175.8 40.4, 176.6 39.5 Q 177.3 38.6, 177.3 36.8 Q 177.3 35.1, 176.6 34.3 Q 175.8 33.4, 174.5 33.4 Q 173.2 33.4, 172.5 34.2 Q 171.7 35.1, 171.7 36.8 Q 171.7 38.6, 172.5 39.5 Q 173.2 40.4, 174.5 40.4 " fill="#FF0000"/>
<path class="atom-16" d="M 109.0 38.6 L 110.2 38.6 L 110.2 42.3 L 114.6 42.3 L 114.6 38.6 L 115.8 38.6 L 115.8 47.3 L 114.6 47.3 L 114.6 43.3 L 110.2 43.3 L 110.2 47.3 L 109.0 47.3 L 109.0 38.6 " fill="#FF0000"/>
<path class="atom-16" d="M 117.6 42.9 Q 117.6 40.9, 118.6 39.7 Q 119.7 38.5, 121.6 38.5 Q 123.5 38.5, 124.6 39.7 Q 125.6 40.9, 125.6 42.9 Q 125.6 45.1, 124.5 46.3 Q 123.5 47.5, 121.6 47.5 Q 119.7 47.5, 118.6 46.3 Q 117.6 45.1, 117.6 42.9 M 121.6 46.5 Q 122.9 46.5, 123.6 45.6 Q 124.4 44.7, 124.4 42.9 Q 124.4 41.2, 123.6 40.4 Q 122.9 39.5, 121.6 39.5 Q 120.3 39.5, 119.5 40.4 Q 118.8 41.2, 118.8 42.9 Q 118.8 44.7, 119.5 45.6 Q 120.3 46.5, 121.6 46.5 " fill="#FF0000"/>
<path class="atom-18" d="M 262.3 134.6 Q 262.3 132.5, 263.3 131.3 Q 264.3 130.2, 266.3 130.2 Q 268.2 130.2, 269.2 131.3 Q 270.2 132.5, 270.2 134.6 Q 270.2 136.7, 269.2 137.9 Q 268.2 139.1, 266.3 139.1 Q 264.3 139.1, 263.3 137.9 Q 262.3 136.7, 262.3 134.6 M 266.3 138.1 Q 267.6 138.1, 268.3 137.2 Q 269.0 136.3, 269.0 134.6 Q 269.0 132.9, 268.3 132.0 Q 267.6 131.1, 266.3 131.1 Q 264.9 131.1, 264.2 132.0 Q 263.5 132.9, 263.5 134.6 Q 263.5 136.4, 264.2 137.2 Q 264.9 138.1, 266.3 138.1 " fill="#FF0000"/>
<path class="atom-19" d="M 200.7 136.4 L 201.9 136.4 L 201.9 140.1 L 206.4 140.1 L 206.4 136.4 L 207.5 136.4 L 207.5 145.1 L 206.4 145.1 L 206.4 141.1 L 201.9 141.1 L 201.9 145.1 L 200.7 145.1 L 200.7 136.4 " fill="#FF0000"/>
<path class="atom-19" d="M 209.3 140.7 Q 209.3 138.6, 210.4 137.4 Q 211.4 136.3, 213.3 136.3 Q 215.3 136.3, 216.3 137.4 Q 217.3 138.6, 217.3 140.7 Q 217.3 142.8, 216.3 144.0 Q 215.2 145.2, 213.3 145.2 Q 211.4 145.2, 210.4 144.0 Q 209.3 142.8, 209.3 140.7 M 213.3 144.2 Q 214.7 144.2, 215.4 143.4 Q 216.1 142.5, 216.1 140.7 Q 216.1 139.0, 215.4 138.1 Q 214.7 137.3, 213.3 137.3 Q 212.0 137.3, 211.3 138.1 Q 210.6 139.0, 210.6 140.7 Q 210.6 142.5, 211.3 143.4 Q 212.0 144.2, 213.3 144.2 " fill="#FF0000"/>
</svg>
