<?xml version='1.0' encoding='ASCII' standalone='yes'?>
<svg xmlns="http://www.w3.org/2000/svg" xmlns:rdkit="http://www.rdkit.org/xml" xmlns:xlink="http://www.w3.org/1999/xlink" version="1.1" baseProfile="full" xml:space="preserve" width="338px" height="200px" viewBox="0 0 338 200">
<!-- END OF HEADER -->
<rect style="opacity:1.0;fill:#FFFFFF;stroke:none" width="338.0" height="200.0" x="0.0" y="0.0"> </rect>
<path class="bond-0 atom-0 atom-1" d="M 295.7,103.1 L 275.5,119.4" style="fill:none;fill-rule:evenodd;stroke:#000000;stroke-width:2.0px;stroke-linecap:butt;stroke-linejoin:miter;stroke-opacity:1"/>
<path class="bond-1 atom-1 atom-2" d="M 275.5,119.4 L 255.3,135.8" style="fill:none;fill-rule:evenodd;stroke:#000000;stroke-width:2.0px;stroke-linecap:butt;stroke-linejoin:miter;stroke-opacity:1"/>
<path class="bond-2 atom-1 atom-3" d="M 275.5,119.4 L 291.9,139.6" style="fill:none;fill-rule:evenodd;stroke:#000000;stroke-width:2.0px;stroke-linecap:butt;stroke-linejoin:miter;stroke-opacity:1"/>
<path class="bond-3 atom-3 atom-4" d="M 291.1,141.7 L 302.3,139.9" style="fill:none;fill-rule:evenodd;stroke:#000000;stroke-width:2.0px;stroke-linecap:butt;stroke-linejoin:miter;stroke-opacity:1"/>
<path class="bond-3 atom-3 atom-4" d="M 302.3,139.9 L 313.6,138.1" style="fill:none;fill-rule:evenodd;stroke:#FF0000;stroke-width:2.0px;stroke-linecap:butt;stroke-linejoin:miter;stroke-opacity:1"/>
<path class="bond-3 atom-3 atom-4" d="M 290.5,137.9 L 301.7,136.1" style="fill:none;fill-rule:evenodd;stroke:#000000;stroke-width:2.0px;stroke-linecap:butt;stroke-linejoin:miter;stroke-opacity:1"/>
<path class="bond-3 atom-3 atom-4" d="M 301.7,136.1 L 313.0,134.3" style="fill:none;fill-rule:evenodd;stroke:#FF0000;stroke-width:2.0px;stroke-linecap:butt;stroke-linejoin:miter;stroke-opacity:1"/>
<path class="bond-4 atom-3 atom-5" d="M 291.9,139.6 L 288.1,149.5" style="fill:none;fill-rule:evenodd;stroke:#000000;stroke-width:2.0px;stroke-linecap:butt;stroke-linejoin:miter;stroke-opacity:1"/>
<path class="bond-4 atom-3 atom-5" d="M 288.1,149.5 L 284.3,159.3" style="fill:none;fill-rule:evenodd;stroke:#FF0000;stroke-width:2.0px;stroke-linecap:butt;stroke-linejoin:miter;stroke-opacity:1"/>
<path class="bond-5 atom-1 atom-6" d="M 275.5,119.4 L 259.2,99.2" style="fill:none;fill-rule:evenodd;stroke:#000000;stroke-width:2.0px;stroke-linecap:butt;stroke-linejoin:miter;stroke-opacity:1"/>
<path class="bond-6 atom-6 atom-7" d="M 259.2,99.2 L 263.0,89.5" style="fill:none;fill-rule:evenodd;stroke:#000000;stroke-width:2.0px;stroke-linecap:butt;stroke-linejoin:miter;stroke-opacity:1"/>
<path class="bond-6 atom-6 atom-7" d="M 263.0,89.5 L 266.7,79.7" style="fill:none;fill-rule:evenodd;stroke:#FF0000;stroke-width:2.0px;stroke-linecap:butt;stroke-linejoin:miter;stroke-opacity:1"/>
<path class="bond-7 atom-6 atom-8" d="M 259.2,99.2 L 233.5,103.3" style="fill:none;fill-rule:evenodd;stroke:#000000;stroke-width:2.0px;stroke-linecap:butt;stroke-linejoin:miter;stroke-opacity:1"/>
<path class="bond-8 atom-8 atom-9" d="M 233.5,103.3 L 217.2,83.1" style="fill:none;fill-rule:evenodd;stroke:#000000;stroke-width:2.0px;stroke-linecap:butt;stroke-linejoin:miter;stroke-opacity:1"/>
<path class="bond-9 atom-9 atom-10" d="M 217.2,83.1 L 191.5,87.1" style="fill:none;fill-rule:evenodd;stroke:#000000;stroke-width:2.0px;stroke-linecap:butt;stroke-linejoin:miter;stroke-opacity:1"/>
<path class="bond-10 atom-10 atom-11" d="M 191.5,87.1 L 175.2,66.9" style="fill:none;fill-rule:evenodd;stroke:#000000;stroke-width:2.0px;stroke-linecap:butt;stroke-linejoin:miter;stroke-opacity:1"/>
<path class="bond-11 atom-11 atom-12" d="M 175.2,66.9 L 179.0,57.2" style="fill:none;fill-rule:evenodd;stroke:#000000;stroke-width:2.0px;stroke-linecap:butt;stroke-linejoin:miter;stroke-opacity:1"/>
<path class="bond-11 atom-11 atom-12" d="M 179.0,57.2 L 182.7,47.4" style="fill:none;fill-rule:evenodd;stroke:#FF0000;stroke-width:2.0px;stroke-linecap:butt;stroke-linejoin:miter;stroke-opacity:1"/>
<path class="bond-12 atom-11 atom-13" d="M 175.2,66.9 L 149.5,71.0" style="fill:none;fill-rule:evenodd;stroke:#000000;stroke-width:2.0px;stroke-linecap:butt;stroke-linejoin:miter;stroke-opacity:1"/>
<path class="bond-13 atom-13 atom-14" d="M 149.5,71.0 L 145.5,45.3" style="fill:none;fill-rule:evenodd;stroke:#000000;stroke-width:2.0px;stroke-linecap:butt;stroke-linejoin:miter;stroke-opacity:1"/>
<path class="bond-14 atom-14 atom-15" d="M 145.5,45.3 L 135.5,41.5" style="fill:none;fill-rule:evenodd;stroke:#000000;stroke-width:2.0px;stroke-linecap:butt;stroke-linejoin:miter;stroke-opacity:1"/>
<path class="bond-14 atom-14 atom-15" d="M 135.5,41.5 L 125.5,37.6" style="fill:none;fill-rule:evenodd;stroke:#FF0000;stroke-width:2.0px;stroke-linecap:butt;stroke-linejoin:miter;stroke-opacity:1"/>
<path class="bond-15 atom-13 atom-16" d="M 149.5,71.0 L 153.6,96.7" style="fill:none;fill-rule:evenodd;stroke:#000000;stroke-width:2.0px;stroke-linecap:butt;stroke-linejoin:miter;stroke-opacity:1"/>
<path class="bond-16 atom-16 atom-17" d="M 153.6,96.7 L 133.4,113.0" style="fill:none;fill-rule:evenodd;stroke:#000000;stroke-width:2.0px;stroke-linecap:butt;stroke-linejoin:miter;stroke-opacity:1"/>
<path class="bond-17 atom-17 atom-18" d="M 133.4,113.0 L 109.2,103.7" style="fill:none;fill-rule:evenodd;stroke:#000000;stroke-width:2.0px;stroke-linecap:butt;stroke-linejoin:miter;stroke-opacity:1"/>
<path class="bond-18 atom-18 atom-19" d="M 109.2,103.7 L 89.0,120.0" style="fill:none;fill-rule:evenodd;stroke:#000000;stroke-width:2.0px;stroke-linecap:butt;stroke-linejoin:miter;stroke-opacity:1"/>
<path class="bond-19 atom-19 atom-20" d="M 89.0,120.0 L 90.6,130.6" style="fill:none;fill-rule:evenodd;stroke:#000000;stroke-width:2.0px;stroke-linecap:butt;stroke-linejoin:miter;stroke-opacity:1"/>
<path class="bond-19 atom-19 atom-20" d="M 90.6,130.6 L 92.3,141.1" style="fill:none;fill-rule:evenodd;stroke:#FF0000;stroke-width:2.0px;stroke-linecap:butt;stroke-linejoin:miter;stroke-opacity:1"/>
<path class="bond-20 atom-19 atom-21" d="M 89.0,120.0 L 64.7,110.7" style="fill:none;fill-rule:evenodd;stroke:#000000;stroke-width:2.0px;stroke-linecap:butt;stroke-linejoin:miter;stroke-opacity:1"/>
<path class="bond-21 atom-21 atom-22" d="M 64.7,110.7 L 74.0,86.4" style="fill:none;fill-rule:evenodd;stroke:#000000;stroke-width:2.0px;stroke-linecap:butt;stroke-linejoin:miter;stroke-opacity:1"/>
<path class="bond-22 atom-21 atom-23" d="M 64.7,110.7 L 55.4,134.9" style="fill:none;fill-rule:evenodd;stroke:#000000;stroke-width:2.0px;stroke-linecap:butt;stroke-linejoin:miter;stroke-opacity:1"/>
<path class="bond-23 atom-23 atom-24" d="M 55.4,134.9 L 44.7,136.6" style="fill:none;fill-rule:evenodd;stroke:#000000;stroke-width:2.0px;stroke-linecap:butt;stroke-linejoin:miter;stroke-opacity:1"/>
<path class="bond-23 atom-23 atom-24" d="M 44.7,136.6 L 34.0,138.3" style="fill:none;fill-rule:evenodd;stroke:#FF0000;stroke-width:2.0px;stroke-linecap:butt;stroke-linejoin:miter;stroke-opacity:1"/>
<path class="bond-24 atom-21 atom-25" d="M 64.7,110.7 L 40.5,101.4" style="fill:none;fill-rule:evenodd;stroke:#000000;stroke-width:2.0px;stroke-linecap:butt;stroke-linejoin:miter;stroke-opacity:1"/>
<path class="bond-25 atom-25 atom-26" d="M 40.1,99.2 L 31.7,106.0" style="fill:none;fill-rule:evenodd;stroke:#000000;stroke-width:2.0px;stroke-linecap:butt;stroke-linejoin:miter;stroke-opacity:1"/>
<path class="bond-25 atom-25 atom-26" d="M 31.7,106.0 L 23.3,112.8" style="fill:none;fill-rule:evenodd;stroke:#FF0000;stroke-width:2.0px;stroke-linecap:butt;stroke-linejoin:miter;stroke-opacity:1"/>
<path class="bond-25 atom-25 atom-26" d="M 42.6,102.2 L 34.1,109.0" style="fill:none;fill-rule:evenodd;stroke:#000000;stroke-width:2.0px;stroke-linecap:butt;stroke-linejoin:miter;stroke-opacity:1"/>
<path class="bond-25 atom-25 atom-26" d="M 34.1,109.0 L 25.7,115.8" style="fill:none;fill-rule:evenodd;stroke:#FF0000;stroke-width:2.0px;stroke-linecap:butt;stroke-linejoin:miter;stroke-opacity:1"/>
<path class="bond-26 atom-25 atom-27" d="M 40.5,101.4 L 38.8,90.9" style="fill:none;fill-rule:evenodd;stroke:#000000;stroke-width:2.0px;stroke-linecap:butt;stroke-linejoin:miter;stroke-opacity:1"/>
<path class="bond-26 atom-25 atom-27" d="M 38.8,90.9 L 37.2,80.4" style="fill:none;fill-rule:evenodd;stroke:#FF0000;stroke-width:2.0px;stroke-linecap:butt;stroke-linejoin:miter;stroke-opacity:1"/>
<path class="bond-27 atom-17 atom-28" d="M 133.4,113.0 L 137.5,138.6" style="fill:none;fill-rule:evenodd;stroke:#000000;stroke-width:2.0px;stroke-linecap:butt;stroke-linejoin:miter;stroke-opacity:1"/>
<path class="bond-28 atom-28 atom-29" d="M 135.7,140.1 L 146.3,144.1" style="fill:none;fill-rule:evenodd;stroke:#000000;stroke-width:2.0px;stroke-linecap:butt;stroke-linejoin:miter;stroke-opacity:1"/>
<path class="bond-28 atom-28 atom-29" d="M 146.3,144.1 L 156.8,148.1" style="fill:none;fill-rule:evenodd;stroke:#FF0000;stroke-width:2.0px;stroke-linecap:butt;stroke-linejoin:miter;stroke-opacity:1"/>
<path class="bond-28 atom-28 atom-29" d="M 137.1,136.4 L 147.6,140.5" style="fill:none;fill-rule:evenodd;stroke:#000000;stroke-width:2.0px;stroke-linecap:butt;stroke-linejoin:miter;stroke-opacity:1"/>
<path class="bond-28 atom-28 atom-29" d="M 147.6,140.5 L 158.2,144.5" style="fill:none;fill-rule:evenodd;stroke:#FF0000;stroke-width:2.0px;stroke-linecap:butt;stroke-linejoin:miter;stroke-opacity:1"/>
<path class="bond-29 atom-28 atom-30" d="M 137.5,138.6 L 129.5,145.1" style="fill:none;fill-rule:evenodd;stroke:#000000;stroke-width:2.0px;stroke-linecap:butt;stroke-linejoin:miter;stroke-opacity:1"/>
<path class="bond-29 atom-28 atom-30" d="M 129.5,145.1 L 121.5,151.6" style="fill:none;fill-rule:evenodd;stroke:#FF0000;stroke-width:2.0px;stroke-linecap:butt;stroke-linejoin:miter;stroke-opacity:1"/>
<path class="bond-30 atom-13 atom-31" d="M 149.5,71.0 L 123.9,75.0" style="fill:none;fill-rule:evenodd;stroke:#000000;stroke-width:2.0px;stroke-linecap:butt;stroke-linejoin:miter;stroke-opacity:1"/>
<path class="bond-31 atom-31 atom-32" d="M 122.6,73.5 L 119.2,78.4" style="fill:none;fill-rule:evenodd;stroke:#000000;stroke-width:2.0px;stroke-linecap:butt;stroke-linejoin:miter;stroke-opacity:1"/>
<path class="bond-31 atom-31 atom-32" d="M 119.2,78.4 L 115.7,83.3" style="fill:none;fill-rule:evenodd;stroke:#FF0000;stroke-width:2.0px;stroke-linecap:butt;stroke-linejoin:miter;stroke-opacity:1"/>
<path class="bond-31 atom-31 atom-32" d="M 126.5,74.6 L 122.3,80.6" style="fill:none;fill-rule:evenodd;stroke:#000000;stroke-width:2.0px;stroke-linecap:butt;stroke-linejoin:miter;stroke-opacity:1"/>
<path class="bond-31 atom-31 atom-32" d="M 122.3,80.6 L 118.9,85.5" style="fill:none;fill-rule:evenodd;stroke:#FF0000;stroke-width:2.0px;stroke-linecap:butt;stroke-linejoin:miter;stroke-opacity:1"/>
<path class="bond-32 atom-31 atom-33" d="M 123.9,75.0 L 117.6,67.3" style="fill:none;fill-rule:evenodd;stroke:#000000;stroke-width:2.0px;stroke-linecap:butt;stroke-linejoin:miter;stroke-opacity:1"/>
<path class="bond-32 atom-31 atom-33" d="M 117.6,67.3 L 111.3,59.5" style="fill:none;fill-rule:evenodd;stroke:#FF0000;stroke-width:2.0px;stroke-linecap:butt;stroke-linejoin:miter;stroke-opacity:1"/>
<path class="bond-33 atom-9 atom-34" d="M 217.2,83.1 L 226.5,58.8" style="fill:none;fill-rule:evenodd;stroke:#000000;stroke-width:2.0px;stroke-linecap:butt;stroke-linejoin:miter;stroke-opacity:1"/>
<path class="bond-34 atom-34 atom-35" d="M 225.7,60.9 L 237.0,59.1" style="fill:none;fill-rule:evenodd;stroke:#000000;stroke-width:2.0px;stroke-linecap:butt;stroke-linejoin:miter;stroke-opacity:1"/>
<path class="bond-34 atom-34 atom-35" d="M 237.0,59.1 L 248.2,57.4" style="fill:none;fill-rule:evenodd;stroke:#FF0000;stroke-width:2.0px;stroke-linecap:butt;stroke-linejoin:miter;stroke-opacity:1"/>
<path class="bond-34 atom-34 atom-35" d="M 225.1,57.1 L 236.4,55.3" style="fill:none;fill-rule:evenodd;stroke:#000000;stroke-width:2.0px;stroke-linecap:butt;stroke-linejoin:miter;stroke-opacity:1"/>
<path class="bond-34 atom-34 atom-35" d="M 236.4,55.3 L 247.6,53.6" style="fill:none;fill-rule:evenodd;stroke:#FF0000;stroke-width:2.0px;stroke-linecap:butt;stroke-linejoin:miter;stroke-opacity:1"/>
<path class="bond-35 atom-34 atom-36" d="M 226.5,58.8 L 220.2,51.1" style="fill:none;fill-rule:evenodd;stroke:#000000;stroke-width:2.0px;stroke-linecap:butt;stroke-linejoin:miter;stroke-opacity:1"/>
<path class="bond-35 atom-34 atom-36" d="M 220.2,51.1 L 214.0,43.3" style="fill:none;fill-rule:evenodd;stroke:#FF0000;stroke-width:2.0px;stroke-linecap:butt;stroke-linejoin:miter;stroke-opacity:1"/>
<path d="M 291.0,138.6 L 291.9,139.6 L 291.7,140.1" style="fill:none;stroke:#000000;stroke-width:2.0px;stroke-linecap:butt;stroke-linejoin:miter;stroke-opacity:1;"/>
<path d="M 234.8,103.1 L 233.5,103.3 L 232.7,102.3" style="fill:none;stroke:#000000;stroke-width:2.0px;stroke-linecap:butt;stroke-linejoin:miter;stroke-opacity:1;"/>
<path d="M 192.8,86.9 L 191.5,87.1 L 190.7,86.1" style="fill:none;stroke:#000000;stroke-width:2.0px;stroke-linecap:butt;stroke-linejoin:miter;stroke-opacity:1;"/>
<path d="M 145.7,46.6 L 145.5,45.3 L 145.0,45.1" style="fill:none;stroke:#000000;stroke-width:2.0px;stroke-linecap:butt;stroke-linejoin:miter;stroke-opacity:1;"/>
<path d="M 153.4,95.4 L 153.6,96.7 L 152.6,97.5" style="fill:none;stroke:#000000;stroke-width:2.0px;stroke-linecap:butt;stroke-linejoin:miter;stroke-opacity:1;"/>
<path d="M 110.4,104.1 L 109.2,103.7 L 108.1,104.5" style="fill:none;stroke:#000000;stroke-width:2.0px;stroke-linecap:butt;stroke-linejoin:miter;stroke-opacity:1;"/>
<path d="M 55.9,133.7 L 55.4,134.9 L 54.9,135.0" style="fill:none;stroke:#000000;stroke-width:2.0px;stroke-linecap:butt;stroke-linejoin:miter;stroke-opacity:1;"/>
<path d="M 41.7,101.8 L 40.5,101.4 L 40.4,100.8" style="fill:none;stroke:#000000;stroke-width:2.0px;stroke-linecap:butt;stroke-linejoin:miter;stroke-opacity:1;"/>
<path d="M 137.3,137.4 L 137.5,138.6 L 137.1,139.0" style="fill:none;stroke:#000000;stroke-width:2.0px;stroke-linecap:butt;stroke-linejoin:miter;stroke-opacity:1;"/>
<path d="M 125.2,74.8 L 123.9,75.0 L 123.6,74.7" style="fill:none;stroke:#000000;stroke-width:2.0px;stroke-linecap:butt;stroke-linejoin:miter;stroke-opacity:1;"/>
<path d="M 226.1,60.1 L 226.5,58.8 L 226.2,58.5" style="fill:none;stroke:#000000;stroke-width:2.0px;stroke-linecap:butt;stroke-linejoin:miter;stroke-opacity:1;"/>
<path class="atom-4" d="M 314.1 135.6 Q 314.1 133.8, 315.0 132.8 Q 315.9 131.8, 317.5 131.8 Q 319.2 131.8, 320.0 132.8 Q 320.9 133.8, 320.9 135.6 Q 320.9 137.4, 320.0 138.4 Q 319.1 139.4, 317.5 139.4 Q 315.9 139.4, 315.0 138.4 Q 314.1 137.4, 314.1 135.6 M 317.5 138.6 Q 318.6 138.6, 319.2 137.8 Q 319.9 137.1, 319.9 135.6 Q 319.9 134.1, 319.2 133.4 Q 318.6 132.7, 317.5 132.7 Q 316.4 132.7, 315.8 133.4 Q 315.2 134.1, 315.2 135.6 Q 315.2 137.1, 315.8 137.8 Q 316.4 138.6, 317.5 138.6 " fill="#FF0000"/>
<path class="atom-5" d="M 271.9 160.2 L 272.9 160.2 L 272.9 163.4 L 276.7 163.4 L 276.7 160.2 L 277.7 160.2 L 277.7 167.6 L 276.7 167.6 L 276.7 164.2 L 272.9 164.2 L 272.9 167.6 L 271.9 167.6 L 271.9 160.2 " fill="#FF0000"/>
<path class="atom-5" d="M 279.2 163.9 Q 279.2 162.1, 280.0 161.1 Q 280.9 160.1, 282.5 160.1 Q 284.2 160.1, 285.0 161.1 Q 285.9 162.1, 285.9 163.9 Q 285.9 165.7, 285.0 166.7 Q 284.2 167.7, 282.5 167.7 Q 280.9 167.7, 280.0 166.7 Q 279.2 165.7, 279.2 163.9 M 282.5 166.9 Q 283.7 166.9, 284.3 166.1 Q 284.9 165.4, 284.9 163.9 Q 284.9 162.4, 284.3 161.7 Q 283.7 161.0, 282.5 161.0 Q 281.4 161.0, 280.8 161.7 Q 280.2 162.4, 280.2 163.9 Q 280.2 165.4, 280.8 166.1 Q 281.4 166.9, 282.5 166.9 " fill="#FF0000"/>
<path class="atom-7" d="M 265.1 75.0 Q 265.1 73.2, 266.0 72.3 Q 266.9 71.3, 268.5 71.3 Q 270.1 71.3, 271.0 72.3 Q 271.9 73.2, 271.9 75.0 Q 271.9 76.8, 271.0 77.8 Q 270.1 78.8, 268.5 78.8 Q 266.9 78.8, 266.0 77.8 Q 265.1 76.8, 265.1 75.0 M 268.5 78.0 Q 269.6 78.0, 270.2 77.2 Q 270.8 76.5, 270.8 75.0 Q 270.8 73.6, 270.2 72.8 Q 269.6 72.1, 268.5 72.1 Q 267.4 72.1, 266.8 72.8 Q 266.2 73.6, 266.2 75.0 Q 266.2 76.5, 266.8 77.2 Q 267.4 78.0, 268.5 78.0 " fill="#FF0000"/>
<path class="atom-7" d="M 273.0 71.3 L 274.0 71.3 L 274.0 74.5 L 277.8 74.5 L 277.8 71.3 L 278.8 71.3 L 278.8 78.7 L 277.8 78.7 L 277.8 75.3 L 274.0 75.3 L 274.0 78.7 L 273.0 78.7 L 273.0 71.3 " fill="#FF0000"/>
<path class="atom-12" d="M 181.1 42.7 Q 181.1 41.0, 182.0 40.0 Q 182.9 39.0, 184.5 39.0 Q 186.2 39.0, 187.0 40.0 Q 187.9 41.0, 187.9 42.7 Q 187.9 44.5, 187.0 45.5 Q 186.1 46.5, 184.5 46.5 Q 182.9 46.5, 182.0 45.5 Q 181.1 44.5, 181.1 42.7 M 184.5 45.7 Q 185.6 45.7, 186.2 45.0 Q 186.9 44.2, 186.9 42.7 Q 186.9 41.3, 186.2 40.5 Q 185.6 39.8, 184.5 39.8 Q 183.4 39.8, 182.8 40.5 Q 182.2 41.3, 182.2 42.7 Q 182.2 44.2, 182.8 45.0 Q 183.4 45.7, 184.5 45.7 " fill="#FF0000"/>
<path class="atom-12" d="M 189.0 39.1 L 190.0 39.1 L 190.0 42.2 L 193.8 42.2 L 193.8 39.1 L 194.8 39.1 L 194.8 46.4 L 193.8 46.4 L 193.8 43.0 L 190.0 43.0 L 190.0 46.4 L 189.0 46.4 L 189.0 39.1 " fill="#FF0000"/>
<path class="atom-15" d="M 110.6 32.4 L 111.6 32.4 L 111.6 35.5 L 115.4 35.5 L 115.4 32.4 L 116.4 32.4 L 116.4 39.7 L 115.4 39.7 L 115.4 36.3 L 111.6 36.3 L 111.6 39.7 L 110.6 39.7 L 110.6 32.4 " fill="#FF0000"/>
<path class="atom-15" d="M 117.9 36.0 Q 117.9 34.3, 118.7 33.3 Q 119.6 32.3, 121.2 32.3 Q 122.9 32.3, 123.8 33.3 Q 124.6 34.3, 124.6 36.0 Q 124.6 37.8, 123.7 38.8 Q 122.9 39.9, 121.2 39.9 Q 119.6 39.9, 118.7 38.8 Q 117.9 37.8, 117.9 36.0 M 121.2 39.0 Q 122.4 39.0, 123.0 38.3 Q 123.6 37.5, 123.6 36.0 Q 123.6 34.6, 123.0 33.9 Q 122.4 33.1, 121.2 33.1 Q 120.1 33.1, 119.5 33.9 Q 118.9 34.6, 118.9 36.0 Q 118.9 37.5, 119.5 38.3 Q 120.1 39.0, 121.2 39.0 " fill="#FF0000"/>
<path class="atom-20" d="M 89.6 145.7 Q 89.6 143.9, 90.5 142.9 Q 91.4 141.9, 93.0 141.9 Q 94.6 141.9, 95.5 142.9 Q 96.4 143.9, 96.4 145.7 Q 96.4 147.5, 95.5 148.5 Q 94.6 149.5, 93.0 149.5 Q 91.4 149.5, 90.5 148.5 Q 89.6 147.5, 89.6 145.7 M 93.0 148.7 Q 94.1 148.7, 94.7 147.9 Q 95.4 147.2, 95.4 145.7 Q 95.4 144.2, 94.7 143.5 Q 94.1 142.8, 93.0 142.8 Q 91.9 142.8, 91.3 143.5 Q 90.7 144.2, 90.7 145.7 Q 90.7 147.2, 91.3 147.9 Q 91.9 148.7, 93.0 148.7 " fill="#FF0000"/>
<path class="atom-20" d="M 97.5 142.0 L 98.5 142.0 L 98.5 145.2 L 102.3 145.2 L 102.3 142.0 L 103.3 142.0 L 103.3 149.4 L 102.3 149.4 L 102.3 146.0 L 98.5 146.0 L 98.5 149.4 L 97.5 149.4 L 97.5 142.0 " fill="#FF0000"/>
<path class="atom-24" d="M 19.1 135.3 L 20.1 135.3 L 20.1 138.5 L 23.9 138.5 L 23.9 135.3 L 24.9 135.3 L 24.9 142.7 L 23.9 142.7 L 23.9 139.3 L 20.1 139.3 L 20.1 142.7 L 19.1 142.7 L 19.1 135.3 " fill="#FF0000"/>
<path class="atom-24" d="M 26.4 139.0 Q 26.4 137.2, 27.2 136.3 Q 28.1 135.3, 29.7 135.3 Q 31.4 135.3, 32.2 136.3 Q 33.1 137.2, 33.1 139.0 Q 33.1 140.8, 32.2 141.8 Q 31.3 142.8, 29.7 142.8 Q 28.1 142.8, 27.2 141.8 Q 26.4 140.8, 26.4 139.0 M 29.7 142.0 Q 30.9 142.0, 31.5 141.2 Q 32.1 140.5, 32.1 139.0 Q 32.1 137.6, 31.5 136.8 Q 30.9 136.1, 29.7 136.1 Q 28.6 136.1, 28.0 136.8 Q 27.4 137.6, 27.4 139.0 Q 27.4 140.5, 28.0 141.2 Q 28.6 142.0, 29.7 142.0 " fill="#FF0000"/>
<path class="atom-26" d="M 16.9 117.7 Q 16.9 116.0, 17.8 115.0 Q 18.6 114.0, 20.3 114.0 Q 21.9 114.0, 22.8 115.0 Q 23.7 116.0, 23.7 117.7 Q 23.7 119.5, 22.8 120.5 Q 21.9 121.5, 20.3 121.5 Q 18.7 121.5, 17.8 120.5 Q 16.9 119.5, 16.9 117.7 M 20.3 120.7 Q 21.4 120.7, 22.0 120.0 Q 22.6 119.2, 22.6 117.7 Q 22.6 116.3, 22.0 115.6 Q 21.4 114.8, 20.3 114.8 Q 19.2 114.8, 18.5 115.5 Q 17.9 116.3, 17.9 117.7 Q 17.9 119.2, 18.5 120.0 Q 19.2 120.7, 20.3 120.7 " fill="#FF0000"/>
<path class="atom-27" d="M 33.0 75.7 Q 33.0 74.0, 33.9 73.0 Q 34.8 72.0, 36.4 72.0 Q 38.1 72.0, 38.9 73.0 Q 39.8 74.0, 39.8 75.7 Q 39.8 77.5, 38.9 78.5 Q 38.0 79.5, 36.4 79.5 Q 34.8 79.5, 33.9 78.5 Q 33.0 77.5, 33.0 75.7 M 36.4 78.7 Q 37.5 78.7, 38.1 78.0 Q 38.8 77.2, 38.8 75.7 Q 38.8 74.3, 38.1 73.6 Q 37.5 72.8, 36.4 72.8 Q 35.3 72.8, 34.7 73.6 Q 34.1 74.3, 34.1 75.7 Q 34.1 77.2, 34.7 78.0 Q 35.3 78.7, 36.4 78.7 " fill="#FF0000"/>
<path class="atom-27" d="M 40.9 72.1 L 41.9 72.1 L 41.9 75.2 L 45.7 75.2 L 45.7 72.1 L 46.7 72.1 L 46.7 79.4 L 45.7 79.4 L 45.7 76.0 L 41.9 76.0 L 41.9 79.4 L 40.9 79.4 L 40.9 72.1 " fill="#FF0000"/>
<path class="atom-29" d="M 158.3 148.0 Q 158.3 146.2, 159.2 145.2 Q 160.1 144.2, 161.7 144.2 Q 163.3 144.2, 164.2 145.2 Q 165.1 146.2, 165.1 148.0 Q 165.1 149.8, 164.2 150.8 Q 163.3 151.8, 161.7 151.8 Q 160.1 151.8, 159.2 150.8 Q 158.3 149.8, 158.3 148.0 M 161.7 151.0 Q 162.8 151.0, 163.4 150.2 Q 164.0 149.5, 164.0 148.0 Q 164.0 146.5, 163.4 145.8 Q 162.8 145.1, 161.7 145.1 Q 160.6 145.1, 160.0 145.8 Q 159.4 146.5, 159.4 148.0 Q 159.4 149.5, 160.0 150.2 Q 160.6 151.0, 161.7 151.0 " fill="#FF0000"/>
<path class="atom-30" d="M 106.6 151.4 L 107.6 151.4 L 107.6 154.5 L 111.4 154.5 L 111.4 151.4 L 112.4 151.4 L 112.4 158.7 L 111.4 158.7 L 111.4 155.3 L 107.6 155.3 L 107.6 158.7 L 106.6 158.7 L 106.6 151.4 " fill="#FF0000"/>
<path class="atom-30" d="M 113.9 155.0 Q 113.9 153.2, 114.8 152.3 Q 115.6 151.3, 117.3 151.3 Q 118.9 151.3, 119.8 152.3 Q 120.6 153.2, 120.6 155.0 Q 120.6 156.8, 119.8 157.8 Q 118.9 158.8, 117.3 158.8 Q 115.6 158.8, 114.8 157.8 Q 113.9 156.8, 113.9 155.0 M 117.3 158.0 Q 118.4 158.0, 119.0 157.2 Q 119.6 156.5, 119.6 155.0 Q 119.6 153.6, 119.0 152.8 Q 118.4 152.1, 117.3 152.1 Q 116.1 152.1, 115.5 152.8 Q 114.9 153.6, 114.9 155.0 Q 114.9 156.5, 115.5 157.2 Q 116.1 158.0, 117.3 158.0 " fill="#FF0000"/>
<path class="atom-32" d="M 110.7 89.0 Q 110.7 87.3, 111.6 86.3 Q 112.5 85.3, 114.1 85.3 Q 115.7 85.3, 116.6 86.3 Q 117.5 87.3, 117.5 89.0 Q 117.5 90.8, 116.6 91.8 Q 115.7 92.8, 114.1 92.8 Q 112.5 92.8, 111.6 91.8 Q 110.7 90.8, 110.7 89.0 M 114.1 92.0 Q 115.2 92.0, 115.8 91.3 Q 116.4 90.5, 116.4 89.0 Q 116.4 87.6, 115.8 86.9 Q 115.2 86.1, 114.1 86.1 Q 113.0 86.1, 112.4 86.8 Q 111.8 87.6, 111.8 89.0 Q 111.8 90.5, 112.4 91.3 Q 113.0 92.0, 114.1 92.0 " fill="#FF0000"/>
<path class="atom-33" d="M 96.9 51.2 L 97.9 51.2 L 97.9 54.3 L 101.7 54.3 L 101.7 51.2 L 102.7 51.2 L 102.7 58.6 L 101.7 58.6 L 101.7 55.2 L 97.9 55.2 L 97.9 58.6 L 96.9 58.6 L 96.9 51.2 " fill="#FF0000"/>
<path class="atom-33" d="M 104.2 54.9 Q 104.2 53.1, 105.0 52.1 Q 105.9 51.1, 107.6 51.1 Q 109.2 51.1, 110.1 52.1 Q 110.9 53.1, 110.9 54.9 Q 110.9 56.7, 110.0 57.7 Q 109.2 58.7, 107.6 58.7 Q 105.9 58.7, 105.0 57.7 Q 104.2 56.7, 104.2 54.9 M 107.6 57.9 Q 108.7 57.9, 109.3 57.1 Q 109.9 56.4, 109.9 54.9 Q 109.9 53.4, 109.3 52.7 Q 108.7 52.0, 107.6 52.0 Q 106.4 52.0, 105.8 52.7 Q 105.2 53.4, 105.2 54.9 Q 105.2 56.4, 105.8 57.1 Q 106.4 57.9, 107.6 57.9 " fill="#FF0000"/>
<path class="atom-35" d="M 248.8 54.8 Q 248.8 53.0, 249.7 52.1 Q 250.5 51.1, 252.2 51.1 Q 253.8 51.1, 254.7 52.1 Q 255.6 53.0, 255.6 54.8 Q 255.6 56.6, 254.7 57.6 Q 253.8 58.6, 252.2 58.6 Q 250.6 58.6, 249.7 57.6 Q 248.8 56.6, 248.8 54.8 M 252.2 57.8 Q 253.3 57.8, 253.9 57.0 Q 254.5 56.3, 254.5 54.8 Q 254.5 53.4, 253.9 52.6 Q 253.3 51.9, 252.2 51.9 Q 251.1 51.9, 250.4 52.6 Q 249.8 53.4, 249.8 54.8 Q 249.8 56.3, 250.4 57.0 Q 251.1 57.8, 252.2 57.8 " fill="#FF0000"/>
<path class="atom-36" d="M 199.5 35.0 L 200.5 35.0 L 200.5 38.1 L 204.3 38.1 L 204.3 35.0 L 205.3 35.0 L 205.3 42.4 L 204.3 42.4 L 204.3 39.0 L 200.5 39.0 L 200.5 42.4 L 199.5 42.4 L 199.5 35.0 " fill="#FF0000"/>
<path class="atom-36" d="M 206.8 38.7 Q 206.8 36.9, 207.7 35.9 Q 208.5 34.9, 210.2 34.9 Q 211.8 34.9, 212.7 35.9 Q 213.6 36.9, 213.6 38.7 Q 213.6 40.5, 212.7 41.5 Q 211.8 42.5, 210.2 42.5 Q 208.6 42.5, 207.7 41.5 Q 206.8 40.5, 206.8 38.7 M 210.2 41.7 Q 211.3 41.7, 211.9 40.9 Q 212.5 40.1, 212.5 38.7 Q 212.5 37.2, 211.9 36.5 Q 211.3 35.8, 210.2 35.8 Q 209.1 35.8, 208.4 36.5 Q 207.8 37.2, 207.8 38.7 Q 207.8 40.2, 208.4 40.9 Q 209.1 41.7, 210.2 41.7 " fill="#FF0000"/>
</svg>
