<?xml version='1.0' encoding='ASCII' standalone='yes'?>
<svg xmlns="http://www.w3.org/2000/svg" xmlns:rdkit="http://www.rdkit.org/xml" xmlns:xlink="http://www.w3.org/1999/xlink" version="1.1" baseProfile="full" xml:space="preserve" width="301px" height="200px" viewBox="0 0 301 200">
<!-- END OF HEADER -->
<rect style="opacity:1.0;fill:#FFFFFF;stroke:none" width="301.0" height="200.0" x="0.0" y="0.0"> </rect>
<path class="bond-0 atom-0 atom-1" d="M 285.1,25.9 L 251.5,40.1" style="fill:none;fill-rule:evenodd;stroke:#000000;stroke-width:2.0px;stroke-linecap:butt;stroke-linejoin:miter;stroke-opacity:1"/>
<path class="bond-1 atom-1 atom-2" d="M 251.5,40.1 L 239.9,31.4" style="fill:none;fill-rule:evenodd;stroke:#000000;stroke-width:2.0px;stroke-linecap:butt;stroke-linejoin:miter;stroke-opacity:1"/>
<path class="bond-1 atom-1 atom-2" d="M 239.9,31.4 L 228.3,22.6" style="fill:none;fill-rule:evenodd;stroke:#FF0000;stroke-width:2.0px;stroke-linecap:butt;stroke-linejoin:miter;stroke-opacity:1"/>
<path class="bond-2 atom-1 atom-3" d="M 251.5,40.1 L 247.1,76.3" style="fill:none;fill-rule:evenodd;stroke:#000000;stroke-width:2.0px;stroke-linecap:butt;stroke-linejoin:miter;stroke-opacity:1"/>
<path class="bond-3 atom-3 atom-4" d="M 247.1,76.3 L 283.2,80.8" style="fill:none;fill-rule:evenodd;stroke:#000000;stroke-width:2.0px;stroke-linecap:butt;stroke-linejoin:miter;stroke-opacity:1"/>
<path class="bond-4 atom-3 atom-5" d="M 247.1,76.3 L 210.9,71.9" style="fill:none;fill-rule:evenodd;stroke:#000000;stroke-width:2.0px;stroke-linecap:butt;stroke-linejoin:miter;stroke-opacity:1"/>
<path class="bond-5 atom-5 atom-6" d="M 210.9,71.9 L 188.9,101.0" style="fill:none;fill-rule:evenodd;stroke:#000000;stroke-width:2.0px;stroke-linecap:butt;stroke-linejoin:miter;stroke-opacity:1"/>
<path class="bond-6 atom-6 atom-7" d="M 188.9,101.0 L 159.8,79.0" style="fill:none;fill-rule:evenodd;stroke:#000000;stroke-width:2.0px;stroke-linecap:butt;stroke-linejoin:miter;stroke-opacity:1"/>
<path class="bond-7 atom-6 atom-8" d="M 188.9,101.0 L 204.4,115.9" style="fill:none;fill-rule:evenodd;stroke:#000000;stroke-width:2.0px;stroke-linecap:butt;stroke-linejoin:miter;stroke-opacity:1"/>
<path class="bond-8 atom-6 atom-9" d="M 188.9,101.0 L 167.0,130.1" style="fill:none;fill-rule:evenodd;stroke:#000000;stroke-width:2.0px;stroke-linecap:butt;stroke-linejoin:miter;stroke-opacity:1"/>
<path class="bond-9 atom-9 atom-10" d="M 167.0,130.1 L 172.8,143.7" style="fill:none;fill-rule:evenodd;stroke:#000000;stroke-width:2.0px;stroke-linecap:butt;stroke-linejoin:miter;stroke-opacity:1"/>
<path class="bond-9 atom-9 atom-10" d="M 172.8,143.7 L 178.5,157.3" style="fill:none;fill-rule:evenodd;stroke:#FF0000;stroke-width:2.0px;stroke-linecap:butt;stroke-linejoin:miter;stroke-opacity:1"/>
<path class="bond-10 atom-9 atom-11" d="M 167.0,130.1 L 130.8,125.7" style="fill:none;fill-rule:evenodd;stroke:#000000;stroke-width:2.0px;stroke-linecap:butt;stroke-linejoin:miter;stroke-opacity:1"/>
<path class="bond-11 atom-11 atom-12" d="M 130.8,125.7 L 126.4,161.8" style="fill:none;fill-rule:evenodd;stroke:#000000;stroke-width:2.0px;stroke-linecap:butt;stroke-linejoin:miter;stroke-opacity:1"/>
<path class="bond-12 atom-11 atom-13" d="M 130.8,125.7 L 135.3,89.5" style="fill:none;fill-rule:evenodd;stroke:#000000;stroke-width:2.0px;stroke-linecap:butt;stroke-linejoin:miter;stroke-opacity:1"/>
<path class="bond-13 atom-11 atom-14" d="M 130.8,125.7 L 94.6,121.2" style="fill:none;fill-rule:evenodd;stroke:#000000;stroke-width:2.0px;stroke-linecap:butt;stroke-linejoin:miter;stroke-opacity:1"/>
<path class="bond-14 atom-14 atom-15" d="M 94.6,121.2 L 80.4,87.7" style="fill:none;fill-rule:evenodd;stroke:#000000;stroke-width:2.0px;stroke-linecap:butt;stroke-linejoin:miter;stroke-opacity:1"/>
<path class="bond-15 atom-15 atom-16" d="M 80.4,87.7 L 44.2,83.2" style="fill:none;fill-rule:evenodd;stroke:#000000;stroke-width:2.0px;stroke-linecap:butt;stroke-linejoin:miter;stroke-opacity:1"/>
<path class="bond-16 atom-16 atom-17" d="M 44.2,83.2 L 38.5,69.7" style="fill:none;fill-rule:evenodd;stroke:#000000;stroke-width:2.0px;stroke-linecap:butt;stroke-linejoin:miter;stroke-opacity:1"/>
<path class="bond-16 atom-16 atom-17" d="M 38.5,69.7 L 32.8,56.2" style="fill:none;fill-rule:evenodd;stroke:#FF0000;stroke-width:2.0px;stroke-linecap:butt;stroke-linejoin:miter;stroke-opacity:1"/>
<path class="bond-17 atom-15 atom-18" d="M 80.4,87.7 L 102.3,58.5" style="fill:none;fill-rule:evenodd;stroke:#000000;stroke-width:2.0px;stroke-linecap:butt;stroke-linejoin:miter;stroke-opacity:1"/>
<path class="bond-18 atom-18 atom-19" d="M 100.5,61.0 L 116.4,62.9" style="fill:none;fill-rule:evenodd;stroke:#000000;stroke-width:2.0px;stroke-linecap:butt;stroke-linejoin:miter;stroke-opacity:1"/>
<path class="bond-18 atom-18 atom-19" d="M 116.4,62.9 L 132.3,64.9" style="fill:none;fill-rule:evenodd;stroke:#FF0000;stroke-width:2.0px;stroke-linecap:butt;stroke-linejoin:miter;stroke-opacity:1"/>
<path class="bond-18 atom-18 atom-19" d="M 101.2,55.7 L 117.0,57.7" style="fill:none;fill-rule:evenodd;stroke:#000000;stroke-width:2.0px;stroke-linecap:butt;stroke-linejoin:miter;stroke-opacity:1"/>
<path class="bond-18 atom-18 atom-19" d="M 117.0,57.7 L 132.9,59.6" style="fill:none;fill-rule:evenodd;stroke:#FF0000;stroke-width:2.0px;stroke-linecap:butt;stroke-linejoin:miter;stroke-opacity:1"/>
<path class="bond-19 atom-18 atom-20" d="M 102.3,58.5 L 96.6,45.0" style="fill:none;fill-rule:evenodd;stroke:#000000;stroke-width:2.0px;stroke-linecap:butt;stroke-linejoin:miter;stroke-opacity:1"/>
<path class="bond-19 atom-18 atom-20" d="M 96.6,45.0 L 90.9,31.5" style="fill:none;fill-rule:evenodd;stroke:#FF0000;stroke-width:2.0px;stroke-linecap:butt;stroke-linejoin:miter;stroke-opacity:1"/>
<path class="bond-20 atom-3 atom-21" d="M 247.1,76.3 L 242.6,112.5" style="fill:none;fill-rule:evenodd;stroke:#000000;stroke-width:2.0px;stroke-linecap:butt;stroke-linejoin:miter;stroke-opacity:1"/>
<path class="bond-21 atom-21 atom-22" d="M 240.1,113.9 L 252.2,123.0" style="fill:none;fill-rule:evenodd;stroke:#000000;stroke-width:2.0px;stroke-linecap:butt;stroke-linejoin:miter;stroke-opacity:1"/>
<path class="bond-21 atom-21 atom-22" d="M 252.2,123.0 L 264.2,132.1" style="fill:none;fill-rule:evenodd;stroke:#FF0000;stroke-width:2.0px;stroke-linecap:butt;stroke-linejoin:miter;stroke-opacity:1"/>
<path class="bond-21 atom-21 atom-22" d="M 243.0,109.5 L 255.4,118.8" style="fill:none;fill-rule:evenodd;stroke:#000000;stroke-width:2.0px;stroke-linecap:butt;stroke-linejoin:miter;stroke-opacity:1"/>
<path class="bond-21 atom-21 atom-22" d="M 255.4,118.8 L 267.4,127.9" style="fill:none;fill-rule:evenodd;stroke:#FF0000;stroke-width:2.0px;stroke-linecap:butt;stroke-linejoin:miter;stroke-opacity:1"/>
<path class="bond-22 atom-21 atom-23" d="M 242.6,112.5 L 236.2,116.2" style="fill:none;fill-rule:evenodd;stroke:#000000;stroke-width:2.0px;stroke-linecap:butt;stroke-linejoin:miter;stroke-opacity:1"/>
<path class="bond-22 atom-21 atom-23" d="M 236.2,116.2 L 229.9,119.8" style="fill:none;fill-rule:evenodd;stroke:#FF0000;stroke-width:2.0px;stroke-linecap:butt;stroke-linejoin:miter;stroke-opacity:1"/>
<path d="M 212.7,72.1 L 210.9,71.9 L 209.8,73.3" style="fill:none;stroke:#000000;stroke-width:2.0px;stroke-linecap:butt;stroke-linejoin:miter;stroke-opacity:1;"/>
<path d="M 96.5,121.4 L 94.6,121.2 L 93.9,119.5" style="fill:none;stroke:#000000;stroke-width:2.0px;stroke-linecap:butt;stroke-linejoin:miter;stroke-opacity:1;"/>
<path d="M 46.0,83.4 L 44.2,83.2 L 43.9,82.5" style="fill:none;stroke:#000000;stroke-width:2.0px;stroke-linecap:butt;stroke-linejoin:miter;stroke-opacity:1;"/>
<path d="M 101.2,60.0 L 102.3,58.5 L 102.1,57.9" style="fill:none;stroke:#000000;stroke-width:2.0px;stroke-linecap:butt;stroke-linejoin:miter;stroke-opacity:1;"/>
<path d="M 242.8,110.7 L 242.6,112.5 L 242.3,112.7" style="fill:none;stroke:#000000;stroke-width:2.0px;stroke-linecap:butt;stroke-linejoin:miter;stroke-opacity:1;"/>
<path class="atom-2" d="M 207.5 13.1 L 208.9 13.1 L 208.9 17.5 L 214.1 17.5 L 214.1 13.1 L 215.5 13.1 L 215.5 23.4 L 214.1 23.4 L 214.1 18.6 L 208.9 18.6 L 208.9 23.4 L 207.5 23.4 L 207.5 13.1 " fill="#FF0000"/>
<path class="atom-2" d="M 217.6 18.2 Q 217.6 15.7, 218.9 14.4 Q 220.1 13.0, 222.4 13.0 Q 224.7 13.0, 225.9 14.4 Q 227.1 15.7, 227.1 18.2 Q 227.1 20.7, 225.9 22.2 Q 224.6 23.6, 222.4 23.6 Q 220.1 23.6, 218.9 22.2 Q 217.6 20.7, 217.6 18.2 M 222.4 22.4 Q 224.0 22.4, 224.8 21.4 Q 225.7 20.3, 225.7 18.2 Q 225.7 16.2, 224.8 15.2 Q 224.0 14.1, 222.4 14.1 Q 220.8 14.1, 220.0 15.2 Q 219.1 16.2, 219.1 18.2 Q 219.1 20.3, 220.0 21.4 Q 220.8 22.4, 222.4 22.4 " fill="#FF0000"/>
<path class="atom-10" d="M 176.5 163.7 Q 176.5 161.2, 177.7 159.8 Q 179.0 158.4, 181.3 158.4 Q 183.5 158.4, 184.8 159.8 Q 186.0 161.2, 186.0 163.7 Q 186.0 166.2, 184.8 167.6 Q 183.5 169.0, 181.3 169.0 Q 179.0 169.0, 177.7 167.6 Q 176.5 166.2, 176.5 163.7 M 181.3 167.9 Q 182.8 167.9, 183.7 166.8 Q 184.5 165.7, 184.5 163.7 Q 184.5 161.6, 183.7 160.6 Q 182.8 159.6, 181.3 159.6 Q 179.7 159.6, 178.8 160.6 Q 178.0 161.6, 178.0 163.7 Q 178.0 165.8, 178.8 166.8 Q 179.7 167.9, 181.3 167.9 " fill="#FF0000"/>
<path class="atom-10" d="M 187.6 158.5 L 189.0 158.5 L 189.0 162.9 L 194.3 162.9 L 194.3 158.5 L 195.7 158.5 L 195.7 168.9 L 194.3 168.9 L 194.3 164.1 L 189.0 164.1 L 189.0 168.9 L 187.6 168.9 L 187.6 158.5 " fill="#FF0000"/>
<path class="atom-17" d="M 15.0 44.6 L 16.4 44.6 L 16.4 49.0 L 21.7 49.0 L 21.7 44.6 L 23.1 44.6 L 23.1 54.9 L 21.7 54.9 L 21.7 50.1 L 16.4 50.1 L 16.4 54.9 L 15.0 54.9 L 15.0 44.6 " fill="#FF0000"/>
<path class="atom-17" d="M 25.2 49.7 Q 25.2 47.2, 26.5 45.8 Q 27.7 44.4, 30.0 44.4 Q 32.3 44.4, 33.5 45.8 Q 34.7 47.2, 34.7 49.7 Q 34.7 52.2, 33.5 53.6 Q 32.2 55.0, 30.0 55.0 Q 27.7 55.0, 26.5 53.6 Q 25.2 52.2, 25.2 49.7 M 30.0 53.9 Q 31.6 53.9, 32.4 52.8 Q 33.3 51.8, 33.3 49.7 Q 33.3 47.7, 32.4 46.6 Q 31.6 45.6, 30.0 45.6 Q 28.4 45.6, 27.5 46.6 Q 26.7 47.7, 26.7 49.7 Q 26.7 51.8, 27.5 52.8 Q 28.4 53.9, 30.0 53.9 " fill="#FF0000"/>
<path class="atom-19" d="M 133.8 63.0 Q 133.8 60.5, 135.0 59.2 Q 136.2 57.8, 138.5 57.8 Q 140.8 57.8, 142.0 59.2 Q 143.3 60.5, 143.3 63.0 Q 143.3 65.5, 142.0 67.0 Q 140.8 68.4, 138.5 68.4 Q 136.2 68.4, 135.0 67.0 Q 133.8 65.5, 133.8 63.0 M 138.5 67.2 Q 140.1 67.2, 140.9 66.2 Q 141.8 65.1, 141.8 63.0 Q 141.8 61.0, 140.9 60.0 Q 140.1 58.9, 138.5 58.9 Q 136.9 58.9, 136.1 60.0 Q 135.2 61.0, 135.2 63.0 Q 135.2 65.1, 136.1 66.2 Q 136.9 67.2, 138.5 67.2 " fill="#FF0000"/>
<path class="atom-20" d="M 73.2 19.9 L 74.6 19.9 L 74.6 24.3 L 79.8 24.3 L 79.8 19.9 L 81.2 19.9 L 81.2 30.2 L 79.8 30.2 L 79.8 25.4 L 74.6 25.4 L 74.6 30.2 L 73.2 30.2 L 73.2 19.9 " fill="#FF0000"/>
<path class="atom-20" d="M 83.4 25.0 Q 83.4 22.5, 84.6 21.2 Q 85.8 19.8, 88.1 19.8 Q 90.4 19.8, 91.6 21.2 Q 92.8 22.5, 92.8 25.0 Q 92.8 27.5, 91.6 29.0 Q 90.4 30.4, 88.1 30.4 Q 85.8 30.4, 84.6 29.0 Q 83.4 27.5, 83.4 25.0 M 88.1 29.2 Q 89.7 29.2, 90.5 28.2 Q 91.4 27.1, 91.4 25.0 Q 91.4 23.0, 90.5 22.0 Q 89.7 20.9, 88.1 20.9 Q 86.5 20.9, 85.7 22.0 Q 84.8 23.0, 84.8 25.0 Q 84.8 27.1, 85.7 28.2 Q 86.5 29.2, 88.1 29.2 " fill="#FF0000"/>
<path class="atom-22" d="M 267.0 134.5 Q 267.0 132.0, 268.2 130.6 Q 269.4 129.2, 271.7 129.2 Q 274.0 129.2, 275.2 130.6 Q 276.5 132.0, 276.5 134.5 Q 276.5 137.0, 275.2 138.4 Q 274.0 139.8, 271.7 139.8 Q 269.5 139.8, 268.2 138.4 Q 267.0 137.0, 267.0 134.5 M 271.7 138.6 Q 273.3 138.6, 274.1 137.6 Q 275.0 136.5, 275.0 134.5 Q 275.0 132.4, 274.1 131.4 Q 273.3 130.4, 271.7 130.4 Q 270.2 130.4, 269.3 131.4 Q 268.4 132.4, 268.4 134.5 Q 268.4 136.5, 269.3 137.6 Q 270.2 138.6, 271.7 138.6 " fill="#FF0000"/>
<path class="atom-23" d="M 209.0 118.1 L 210.4 118.1 L 210.4 122.5 L 215.7 122.5 L 215.7 118.1 L 217.1 118.1 L 217.1 128.5 L 215.7 128.5 L 215.7 123.7 L 210.4 123.7 L 210.4 128.5 L 209.0 128.5 L 209.0 118.1 " fill="#FF0000"/>
<path class="atom-23" d="M 219.2 123.3 Q 219.2 120.8, 220.5 119.4 Q 221.7 118.0, 224.0 118.0 Q 226.3 118.0, 227.5 119.4 Q 228.7 120.8, 228.7 123.3 Q 228.7 125.8, 227.5 127.2 Q 226.2 128.6, 224.0 128.6 Q 221.7 128.6, 220.5 127.2 Q 219.2 125.8, 219.2 123.3 M 224.0 127.5 Q 225.6 127.5, 226.4 126.4 Q 227.3 125.4, 227.3 123.3 Q 227.3 121.3, 226.4 120.2 Q 225.6 119.2, 224.0 119.2 Q 222.4 119.2, 221.5 120.2 Q 220.7 121.2, 220.7 123.3 Q 220.7 125.4, 221.5 126.4 Q 222.4 127.5, 224.0 127.5 " fill="#FF0000"/>
<path class="legend" d="M 141.5 181.9 Q 141.5 179.6, 142.2 177.7 Q 142.9 175.8, 144.2 173.8 L 145.1 174.4 Q 144.0 176.3, 143.5 178.0 Q 143.0 179.7, 143.0 181.9 Q 143.0 184.0, 143.5 185.8 Q 144.0 187.5, 145.1 189.4 L 144.2 190.0 Q 142.9 188.0, 142.2 186.1 Q 141.5 184.2, 141.5 181.9 " fill="#000000"/>
<path class="legend" d="M 146.0 177.3 Q 146.4 176.2, 147.4 175.6 Q 148.4 175.0, 149.8 175.0 Q 151.5 175.0, 152.4 175.9 Q 153.4 176.8, 153.4 178.5 Q 153.4 180.2, 152.1 181.7 Q 150.9 183.3, 148.4 185.2 L 153.6 185.2 L 153.6 186.4 L 146.0 186.4 L 146.0 185.4 Q 148.1 183.9, 149.3 182.8 Q 150.6 181.6, 151.2 180.6 Q 151.8 179.6, 151.8 178.6 Q 151.8 177.5, 151.2 176.9 Q 150.7 176.3, 149.8 176.3 Q 148.8 176.3, 148.2 176.6 Q 147.6 177.0, 147.2 177.8 L 146.0 177.3 " fill="#000000"/>
<path class="legend" d="M 158.6 181.9 Q 158.6 184.2, 157.9 186.1 Q 157.2 188.0, 155.9 190.0 L 155.0 189.4 Q 156.1 187.5, 156.6 185.8 Q 157.1 184.0, 157.1 181.9 Q 157.1 179.7, 156.6 178.0 Q 156.1 176.3, 155.0 174.4 L 155.9 173.8 Q 157.2 175.8, 157.9 177.7 Q 158.6 179.6, 158.6 181.9 " fill="#000000"/>
</svg>
