<?xml version='1.0' encoding='ASCII' standalone='yes'?>
<svg xmlns="http://www.w3.org/2000/svg" xmlns:rdkit="http://www.rdkit.org/xml" xmlns:xlink="http://www.w3.org/1999/xlink" version="1.1" baseProfile="full" xml:space="preserve" width="297px" height="200px" viewBox="0 0 297 200">
<!-- END OF HEADER -->
<rect style="opacity:1.0;fill:#FFFFFF;stroke:none" width="297.0" height="200.0" x="0.0" y="0.0"> </rect>
<path class="bond-0 atom-0 atom-1" d="M 22.0,47.9 L 30.5,70.8" style="fill:none;fill-rule:evenodd;stroke:#000000;stroke-width:2.0px;stroke-linecap:butt;stroke-linejoin:miter;stroke-opacity:1"/>
<path class="bond-1 atom-1 atom-2" d="M 30.5,70.8 L 14.9,89.6" style="fill:none;fill-rule:evenodd;stroke:#000000;stroke-width:2.0px;stroke-linecap:butt;stroke-linejoin:miter;stroke-opacity:1"/>
<path class="bond-2 atom-1 atom-3" d="M 30.5,70.8 L 54.6,75.0" style="fill:none;fill-rule:evenodd;stroke:#000000;stroke-width:2.0px;stroke-linecap:butt;stroke-linejoin:miter;stroke-opacity:1"/>
<path class="bond-3 atom-3 atom-4" d="M 54.6,75.0 L 58.0,84.3" style="fill:none;fill-rule:evenodd;stroke:#000000;stroke-width:2.0px;stroke-linecap:butt;stroke-linejoin:miter;stroke-opacity:1"/>
<path class="bond-3 atom-3 atom-4" d="M 58.0,84.3 L 61.5,93.6" style="fill:none;fill-rule:evenodd;stroke:#FF0000;stroke-width:2.0px;stroke-linecap:butt;stroke-linejoin:miter;stroke-opacity:1"/>
<path class="bond-4 atom-4 atom-5" d="M 67.0,98.6 L 77.1,100.3" style="fill:none;fill-rule:evenodd;stroke:#FF0000;stroke-width:2.0px;stroke-linecap:butt;stroke-linejoin:miter;stroke-opacity:1"/>
<path class="bond-4 atom-4 atom-5" d="M 77.1,100.3 L 87.1,102.1" style="fill:none;fill-rule:evenodd;stroke:#000000;stroke-width:2.0px;stroke-linecap:butt;stroke-linejoin:miter;stroke-opacity:1"/>
<path class="bond-5 atom-5 atom-6" d="M 87.9,104.1 L 94.2,96.5" style="fill:none;fill-rule:evenodd;stroke:#000000;stroke-width:2.0px;stroke-linecap:butt;stroke-linejoin:miter;stroke-opacity:1"/>
<path class="bond-5 atom-5 atom-6" d="M 94.2,96.5 L 100.5,88.9" style="fill:none;fill-rule:evenodd;stroke:#FF0000;stroke-width:2.0px;stroke-linecap:butt;stroke-linejoin:miter;stroke-opacity:1"/>
<path class="bond-5 atom-5 atom-6" d="M 85.1,101.7 L 91.4,94.1" style="fill:none;fill-rule:evenodd;stroke:#000000;stroke-width:2.0px;stroke-linecap:butt;stroke-linejoin:miter;stroke-opacity:1"/>
<path class="bond-5 atom-5 atom-6" d="M 91.4,94.1 L 97.7,86.5" style="fill:none;fill-rule:evenodd;stroke:#FF0000;stroke-width:2.0px;stroke-linecap:butt;stroke-linejoin:miter;stroke-opacity:1"/>
<path class="bond-6 atom-5 atom-7" d="M 87.1,102.1 L 95.6,125.0" style="fill:none;fill-rule:evenodd;stroke:#000000;stroke-width:2.0px;stroke-linecap:butt;stroke-linejoin:miter;stroke-opacity:1"/>
<path class="bond-7 atom-7 atom-8" d="M 95.6,125.0 L 119.7,129.2" style="fill:none;fill-rule:evenodd;stroke:#000000;stroke-width:2.0px;stroke-linecap:butt;stroke-linejoin:miter;stroke-opacity:1"/>
<path class="bond-8 atom-8 atom-9" d="M 119.7,129.2 L 128.2,152.1" style="fill:none;fill-rule:evenodd;stroke:#000000;stroke-width:2.0px;stroke-linecap:butt;stroke-linejoin:miter;stroke-opacity:1"/>
<path class="bond-9 atom-8 atom-10" d="M 119.7,129.2 L 135.3,110.4" style="fill:none;fill-rule:evenodd;stroke:#000000;stroke-width:2.0px;stroke-linecap:butt;stroke-linejoin:miter;stroke-opacity:1"/>
<path class="bond-10 atom-10 atom-11" d="M 135.3,110.4 L 145.4,112.1" style="fill:none;fill-rule:evenodd;stroke:#000000;stroke-width:2.0px;stroke-linecap:butt;stroke-linejoin:miter;stroke-opacity:1"/>
<path class="bond-10 atom-10 atom-11" d="M 145.4,112.1 L 155.5,113.8" style="fill:none;fill-rule:evenodd;stroke:#FF0000;stroke-width:2.0px;stroke-linecap:butt;stroke-linejoin:miter;stroke-opacity:1"/>
<path class="bond-11 atom-11 atom-12" d="M 163.0,110.2 L 169.1,103.0" style="fill:none;fill-rule:evenodd;stroke:#FF0000;stroke-width:2.0px;stroke-linecap:butt;stroke-linejoin:miter;stroke-opacity:1"/>
<path class="bond-11 atom-11 atom-12" d="M 169.1,103.0 L 175.1,95.7" style="fill:none;fill-rule:evenodd;stroke:#000000;stroke-width:2.0px;stroke-linecap:butt;stroke-linejoin:miter;stroke-opacity:1"/>
<path class="bond-12 atom-12 atom-13" d="M 177.2,96.1 L 173.6,86.3" style="fill:none;fill-rule:evenodd;stroke:#000000;stroke-width:2.0px;stroke-linecap:butt;stroke-linejoin:miter;stroke-opacity:1"/>
<path class="bond-12 atom-12 atom-13" d="M 173.6,86.3 L 170.0,76.6" style="fill:none;fill-rule:evenodd;stroke:#FF0000;stroke-width:2.0px;stroke-linecap:butt;stroke-linejoin:miter;stroke-opacity:1"/>
<path class="bond-12 atom-12 atom-13" d="M 173.7,97.4 L 170.1,87.6" style="fill:none;fill-rule:evenodd;stroke:#000000;stroke-width:2.0px;stroke-linecap:butt;stroke-linejoin:miter;stroke-opacity:1"/>
<path class="bond-12 atom-12 atom-13" d="M 170.1,87.6 L 166.5,77.8" style="fill:none;fill-rule:evenodd;stroke:#FF0000;stroke-width:2.0px;stroke-linecap:butt;stroke-linejoin:miter;stroke-opacity:1"/>
<path class="bond-13 atom-12 atom-14" d="M 175.1,95.7 L 199.2,99.9" style="fill:none;fill-rule:evenodd;stroke:#000000;stroke-width:2.0px;stroke-linecap:butt;stroke-linejoin:miter;stroke-opacity:1"/>
<path class="bond-14 atom-14 atom-15" d="M 199.2,99.9 L 214.8,81.1" style="fill:none;fill-rule:evenodd;stroke:#000000;stroke-width:2.0px;stroke-linecap:butt;stroke-linejoin:miter;stroke-opacity:1"/>
<path class="bond-15 atom-15 atom-16" d="M 214.8,81.1 L 211.4,71.8" style="fill:none;fill-rule:evenodd;stroke:#000000;stroke-width:2.0px;stroke-linecap:butt;stroke-linejoin:miter;stroke-opacity:1"/>
<path class="bond-15 atom-15 atom-16" d="M 211.4,71.8 L 208.0,62.5" style="fill:none;fill-rule:evenodd;stroke:#FF0000;stroke-width:2.0px;stroke-linecap:butt;stroke-linejoin:miter;stroke-opacity:1"/>
<path class="bond-16 atom-15 atom-17" d="M 214.8,81.1 L 238.9,85.2" style="fill:none;fill-rule:evenodd;stroke:#000000;stroke-width:2.0px;stroke-linecap:butt;stroke-linejoin:miter;stroke-opacity:1"/>
<path class="bond-17 atom-17 atom-18" d="M 238.9,85.2 L 234.8,109.3" style="fill:none;fill-rule:evenodd;stroke:#000000;stroke-width:2.0px;stroke-linecap:butt;stroke-linejoin:miter;stroke-opacity:1"/>
<path class="bond-18 atom-17 atom-19" d="M 238.9,85.2 L 243.1,61.1" style="fill:none;fill-rule:evenodd;stroke:#000000;stroke-width:2.0px;stroke-linecap:butt;stroke-linejoin:miter;stroke-opacity:1"/>
<path class="bond-19 atom-17 atom-20" d="M 238.9,85.2 L 263.0,89.4" style="fill:none;fill-rule:evenodd;stroke:#000000;stroke-width:2.0px;stroke-linecap:butt;stroke-linejoin:miter;stroke-opacity:1"/>
<path class="bond-20 atom-20 atom-21" d="M 263.8,91.4 L 270.1,83.8" style="fill:none;fill-rule:evenodd;stroke:#000000;stroke-width:2.0px;stroke-linecap:butt;stroke-linejoin:miter;stroke-opacity:1"/>
<path class="bond-20 atom-20 atom-21" d="M 270.1,83.8 L 276.4,76.2" style="fill:none;fill-rule:evenodd;stroke:#FF0000;stroke-width:2.0px;stroke-linecap:butt;stroke-linejoin:miter;stroke-opacity:1"/>
<path class="bond-20 atom-20 atom-21" d="M 260.9,89.0 L 267.3,81.4" style="fill:none;fill-rule:evenodd;stroke:#000000;stroke-width:2.0px;stroke-linecap:butt;stroke-linejoin:miter;stroke-opacity:1"/>
<path class="bond-20 atom-20 atom-21" d="M 267.3,81.4 L 273.6,73.8" style="fill:none;fill-rule:evenodd;stroke:#FF0000;stroke-width:2.0px;stroke-linecap:butt;stroke-linejoin:miter;stroke-opacity:1"/>
<path class="bond-21 atom-20 atom-22" d="M 263.0,89.4 L 266.5,98.7" style="fill:none;fill-rule:evenodd;stroke:#000000;stroke-width:2.0px;stroke-linecap:butt;stroke-linejoin:miter;stroke-opacity:1"/>
<path class="bond-21 atom-20 atom-22" d="M 266.5,98.7 L 269.9,108.0" style="fill:none;fill-rule:evenodd;stroke:#FF0000;stroke-width:2.0px;stroke-linecap:butt;stroke-linejoin:miter;stroke-opacity:1"/>
<path d="M 53.4,74.8 L 54.6,75.0 L 54.8,75.4" style="fill:none;stroke:#000000;stroke-width:2.0px;stroke-linecap:butt;stroke-linejoin:miter;stroke-opacity:1;"/>
<path d="M 86.6,102.0 L 87.1,102.1 L 87.6,103.2" style="fill:none;stroke:#000000;stroke-width:2.0px;stroke-linecap:butt;stroke-linejoin:miter;stroke-opacity:1;"/>
<path d="M 95.2,123.9 L 95.6,125.0 L 96.8,125.2" style="fill:none;stroke:#000000;stroke-width:2.0px;stroke-linecap:butt;stroke-linejoin:miter;stroke-opacity:1;"/>
<path d="M 134.6,111.3 L 135.3,110.4 L 135.8,110.5" style="fill:none;stroke:#000000;stroke-width:2.0px;stroke-linecap:butt;stroke-linejoin:miter;stroke-opacity:1;"/>
<path d="M 174.8,96.1 L 175.1,95.7 L 176.3,95.9" style="fill:none;stroke:#000000;stroke-width:2.0px;stroke-linecap:butt;stroke-linejoin:miter;stroke-opacity:1;"/>
<path d="M 198.0,99.7 L 199.2,99.9 L 200.0,98.9" style="fill:none;stroke:#000000;stroke-width:2.0px;stroke-linecap:butt;stroke-linejoin:miter;stroke-opacity:1;"/>
<path d="M 261.8,89.2 L 263.0,89.4 L 263.2,89.8" style="fill:none;stroke:#000000;stroke-width:2.0px;stroke-linecap:butt;stroke-linejoin:miter;stroke-opacity:1;"/>
<path class="atom-4" d="M 59.9 97.9 Q 59.9 96.3, 60.7 95.4 Q 61.5 94.4, 63.0 94.4 Q 64.6 94.4, 65.4 95.4 Q 66.2 96.3, 66.2 97.9 Q 66.2 99.6, 65.4 100.6 Q 64.6 101.5, 63.0 101.5 Q 61.5 101.5, 60.7 100.6 Q 59.9 99.6, 59.9 97.9 M 63.0 100.8 Q 64.1 100.8, 64.7 100.0 Q 65.2 99.3, 65.2 97.9 Q 65.2 96.6, 64.7 95.9 Q 64.1 95.2, 63.0 95.2 Q 62.0 95.2, 61.4 95.9 Q 60.8 96.6, 60.8 97.9 Q 60.8 99.3, 61.4 100.0 Q 62.0 100.8, 63.0 100.8 " fill="#FF0000"/>
<path class="atom-6" d="M 99.6 83.3 Q 99.6 81.6, 100.4 80.7 Q 101.3 79.8, 102.8 79.8 Q 104.3 79.8, 105.1 80.7 Q 106.0 81.6, 106.0 83.3 Q 106.0 85.0, 105.1 85.9 Q 104.3 86.9, 102.8 86.9 Q 101.3 86.9, 100.4 85.9 Q 99.6 85.0, 99.6 83.3 M 102.8 86.1 Q 103.8 86.1, 104.4 85.4 Q 105.0 84.7, 105.0 83.3 Q 105.0 81.9, 104.4 81.3 Q 103.8 80.6, 102.8 80.6 Q 101.7 80.6, 101.2 81.2 Q 100.6 81.9, 100.6 83.3 Q 100.6 84.7, 101.2 85.4 Q 101.7 86.1, 102.8 86.1 " fill="#FF0000"/>
<path class="atom-11" d="M 156.3 114.5 Q 156.3 112.9, 157.1 111.9 Q 157.9 111.0, 159.4 111.0 Q 161.0 111.0, 161.8 111.9 Q 162.6 112.9, 162.6 114.5 Q 162.6 116.2, 161.8 117.2 Q 161.0 118.1, 159.4 118.1 Q 157.9 118.1, 157.1 117.2 Q 156.3 116.2, 156.3 114.5 M 159.4 117.3 Q 160.5 117.3, 161.1 116.6 Q 161.6 115.9, 161.6 114.5 Q 161.6 113.2, 161.1 112.5 Q 160.5 111.8, 159.4 111.8 Q 158.4 111.8, 157.8 112.5 Q 157.2 113.2, 157.2 114.5 Q 157.2 115.9, 157.8 116.6 Q 158.4 117.3, 159.4 117.3 " fill="#FF0000"/>
<path class="atom-13" d="M 163.5 72.8 Q 163.5 71.1, 164.3 70.2 Q 165.1 69.3, 166.6 69.3 Q 168.2 69.3, 169.0 70.2 Q 169.8 71.1, 169.8 72.8 Q 169.8 74.5, 169.0 75.4 Q 168.1 76.4, 166.6 76.4 Q 165.1 76.4, 164.3 75.4 Q 163.5 74.5, 163.5 72.8 M 166.6 75.6 Q 167.7 75.6, 168.3 74.9 Q 168.8 74.2, 168.8 72.8 Q 168.8 71.4, 168.3 70.8 Q 167.7 70.1, 166.6 70.1 Q 165.6 70.1, 165.0 70.7 Q 164.4 71.4, 164.4 72.8 Q 164.4 74.2, 165.0 74.9 Q 165.6 75.6, 166.6 75.6 " fill="#FF0000"/>
<path class="atom-16" d="M 196.4 54.7 L 197.3 54.7 L 197.3 57.7 L 200.8 57.7 L 200.8 54.7 L 201.8 54.7 L 201.8 61.6 L 200.8 61.6 L 200.8 58.4 L 197.3 58.4 L 197.3 61.6 L 196.4 61.6 L 196.4 54.7 " fill="#FF0000"/>
<path class="atom-16" d="M 203.2 58.2 Q 203.2 56.5, 204.0 55.6 Q 204.8 54.6, 206.4 54.6 Q 207.9 54.6, 208.7 55.6 Q 209.6 56.5, 209.6 58.2 Q 209.6 59.8, 208.7 60.8 Q 207.9 61.7, 206.4 61.7 Q 204.8 61.7, 204.0 60.8 Q 203.2 59.8, 203.2 58.2 M 206.4 61.0 Q 207.4 61.0, 208.0 60.3 Q 208.6 59.5, 208.6 58.2 Q 208.6 56.8, 208.0 56.1 Q 207.4 55.4, 206.4 55.4 Q 205.3 55.4, 204.7 56.1 Q 204.2 56.8, 204.2 58.2 Q 204.2 59.5, 204.7 60.3 Q 205.3 61.0, 206.4 61.0 " fill="#FF0000"/>
<path class="atom-21" d="M 275.5 70.6 Q 275.5 68.9, 276.3 68.0 Q 277.1 67.1, 278.7 67.1 Q 280.2 67.1, 281.0 68.0 Q 281.9 68.9, 281.9 70.6 Q 281.9 72.3, 281.0 73.2 Q 280.2 74.2, 278.7 74.2 Q 277.1 74.2, 276.3 73.2 Q 275.5 72.3, 275.5 70.6 M 278.7 73.4 Q 279.7 73.4, 280.3 72.7 Q 280.9 72.0, 280.9 70.6 Q 280.9 69.2, 280.3 68.6 Q 279.7 67.9, 278.7 67.9 Q 277.6 67.9, 277.0 68.5 Q 276.5 69.2, 276.5 70.6 Q 276.5 72.0, 277.0 72.7 Q 277.6 73.4, 278.7 73.4 " fill="#FF0000"/>
<path class="atom-22" d="M 268.3 112.3 Q 268.3 110.7, 269.1 109.7 Q 269.9 108.8, 271.5 108.8 Q 273.0 108.8, 273.8 109.7 Q 274.7 110.7, 274.7 112.3 Q 274.7 114.0, 273.8 115.0 Q 273.0 115.9, 271.5 115.9 Q 270.0 115.9, 269.1 115.0 Q 268.3 114.0, 268.3 112.3 M 271.5 115.1 Q 272.5 115.1, 273.1 114.4 Q 273.7 113.7, 273.7 112.3 Q 273.7 111.0, 273.1 110.3 Q 272.5 109.6, 271.5 109.6 Q 270.4 109.6, 269.9 110.3 Q 269.3 111.0, 269.3 112.3 Q 269.3 113.7, 269.9 114.4 Q 270.4 115.1, 271.5 115.1 " fill="#FF0000"/>
<path class="atom-22" d="M 275.7 108.9 L 276.7 108.9 L 276.7 111.8 L 280.2 111.8 L 280.2 108.9 L 281.2 108.9 L 281.2 115.8 L 280.2 115.8 L 280.2 112.6 L 276.7 112.6 L 276.7 115.8 L 275.7 115.8 L 275.7 108.9 " fill="#FF0000"/>
</svg>
