<?xml version='1.0' encoding='ASCII' standalone='yes'?>
<svg xmlns="http://www.w3.org/2000/svg" xmlns:rdkit="http://www.rdkit.org/xml" xmlns:xlink="http://www.w3.org/1999/xlink" version="1.1" baseProfile="full" xml:space="preserve" width="293px" height="200px" viewBox="0 0 293 200">
<!-- END OF HEADER -->
<rect style="opacity:1.0;fill:#FFFFFF;stroke:none" width="293.0" height="200.0" x="0.0" y="0.0"> </rect>
<path class="bond-0 atom-0 atom-1" d="M 267.5,65.6 L 244.5,83.6" style="fill:none;fill-rule:evenodd;stroke:#000000;stroke-width:2.0px;stroke-linecap:butt;stroke-linejoin:miter;stroke-opacity:1"/>
<path class="bond-0 atom-0 atom-1" d="M 264.9,62.3 L 241.9,80.3" style="fill:none;fill-rule:evenodd;stroke:#000000;stroke-width:2.0px;stroke-linecap:butt;stroke-linejoin:miter;stroke-opacity:1"/>
<path class="bond-1 atom-1 atom-2" d="M 244.1,81.2 L 218.2,70.7" style="fill:none;fill-rule:evenodd;stroke:#000000;stroke-width:2.0px;stroke-linecap:butt;stroke-linejoin:miter;stroke-opacity:1"/>
<path class="bond-2 atom-2 atom-3" d="M 218.2,70.7 L 196.1,87.9" style="fill:none;fill-rule:evenodd;stroke:#000000;stroke-width:2.0px;stroke-linecap:butt;stroke-linejoin:miter;stroke-opacity:1"/>
<path class="bond-3 atom-3 atom-4" d="M 196.1,87.9 L 170.2,77.5" style="fill:none;fill-rule:evenodd;stroke:#000000;stroke-width:2.0px;stroke-linecap:butt;stroke-linejoin:miter;stroke-opacity:1"/>
<path class="bond-4 atom-4 atom-5" d="M 170.2,77.5 L 165.9,88.0" style="fill:none;fill-rule:evenodd;stroke:#000000;stroke-width:2.0px;stroke-linecap:butt;stroke-linejoin:miter;stroke-opacity:1"/>
<path class="bond-4 atom-4 atom-5" d="M 165.9,88.0 L 161.7,98.5" style="fill:none;fill-rule:evenodd;stroke:#FF0000;stroke-width:2.0px;stroke-linecap:butt;stroke-linejoin:miter;stroke-opacity:1"/>
<path class="bond-5 atom-4 atom-6" d="M 170.2,77.5 L 174.4,67.0" style="fill:none;fill-rule:evenodd;stroke:#000000;stroke-width:2.0px;stroke-linecap:butt;stroke-linejoin:miter;stroke-opacity:1"/>
<path class="bond-5 atom-4 atom-6" d="M 174.4,67.0 L 178.6,56.6" style="fill:none;fill-rule:evenodd;stroke:#FF0000;stroke-width:2.0px;stroke-linecap:butt;stroke-linejoin:miter;stroke-opacity:1"/>
<path class="bond-6 atom-4 atom-7" d="M 170.2,77.5 L 144.2,67.0" style="fill:none;fill-rule:evenodd;stroke:#000000;stroke-width:2.0px;stroke-linecap:butt;stroke-linejoin:miter;stroke-opacity:1"/>
<path class="bond-7 atom-7 atom-8" d="M 146.5,67.9 L 142.4,39.0" style="fill:none;fill-rule:evenodd;stroke:#000000;stroke-width:2.0px;stroke-linecap:butt;stroke-linejoin:miter;stroke-opacity:1"/>
<path class="bond-7 atom-7 atom-8" d="M 142.3,68.5 L 138.2,39.5" style="fill:none;fill-rule:evenodd;stroke:#000000;stroke-width:2.0px;stroke-linecap:butt;stroke-linejoin:miter;stroke-opacity:1"/>
<path class="bond-8 atom-7 atom-9" d="M 144.2,67.0 L 122.2,84.2" style="fill:none;fill-rule:evenodd;stroke:#000000;stroke-width:2.0px;stroke-linecap:butt;stroke-linejoin:miter;stroke-opacity:1"/>
<path class="bond-9 atom-9 atom-10" d="M 122.2,84.2 L 96.2,73.7" style="fill:none;fill-rule:evenodd;stroke:#000000;stroke-width:2.0px;stroke-linecap:butt;stroke-linejoin:miter;stroke-opacity:1"/>
<path class="bond-10 atom-10 atom-11" d="M 96.2,73.7 L 74.1,91.0" style="fill:none;fill-rule:evenodd;stroke:#000000;stroke-width:2.0px;stroke-linecap:butt;stroke-linejoin:miter;stroke-opacity:1"/>
<path class="bond-11 atom-11 atom-12" d="M 74.1,91.0 L 48.2,80.5" style="fill:none;fill-rule:evenodd;stroke:#000000;stroke-width:2.0px;stroke-linecap:butt;stroke-linejoin:miter;stroke-opacity:1"/>
<path class="bond-12 atom-12 atom-13" d="M 50.4,81.4 L 48.7,69.5" style="fill:none;fill-rule:evenodd;stroke:#000000;stroke-width:2.0px;stroke-linecap:butt;stroke-linejoin:miter;stroke-opacity:1"/>
<path class="bond-12 atom-12 atom-13" d="M 48.7,69.5 L 47.1,57.5" style="fill:none;fill-rule:evenodd;stroke:#FF0000;stroke-width:2.0px;stroke-linecap:butt;stroke-linejoin:miter;stroke-opacity:1"/>
<path class="bond-12 atom-12 atom-13" d="M 46.3,82.0 L 44.6,70.1" style="fill:none;fill-rule:evenodd;stroke:#000000;stroke-width:2.0px;stroke-linecap:butt;stroke-linejoin:miter;stroke-opacity:1"/>
<path class="bond-12 atom-12 atom-13" d="M 44.6,70.1 L 42.9,58.1" style="fill:none;fill-rule:evenodd;stroke:#FF0000;stroke-width:2.0px;stroke-linecap:butt;stroke-linejoin:miter;stroke-opacity:1"/>
<path class="bond-13 atom-12 atom-14" d="M 48.2,80.5 L 39.4,87.3" style="fill:none;fill-rule:evenodd;stroke:#000000;stroke-width:2.0px;stroke-linecap:butt;stroke-linejoin:miter;stroke-opacity:1"/>
<path class="bond-13 atom-12 atom-14" d="M 39.4,87.3 L 30.7,94.2" style="fill:none;fill-rule:evenodd;stroke:#FF0000;stroke-width:2.0px;stroke-linecap:butt;stroke-linejoin:miter;stroke-opacity:1"/>
<path class="bond-14 atom-9 atom-15" d="M 122.2,84.2 L 126.1,111.9" style="fill:none;fill-rule:evenodd;stroke:#000000;stroke-width:2.0px;stroke-linecap:butt;stroke-linejoin:miter;stroke-opacity:1"/>
<path class="bond-15 atom-15 atom-16" d="M 126.1,111.9 L 104.0,129.2" style="fill:none;fill-rule:evenodd;stroke:#000000;stroke-width:2.0px;stroke-linecap:butt;stroke-linejoin:miter;stroke-opacity:1"/>
<path class="bond-16 atom-16 atom-17" d="M 105.9,127.7 L 94.6,123.1" style="fill:none;fill-rule:evenodd;stroke:#000000;stroke-width:2.0px;stroke-linecap:butt;stroke-linejoin:miter;stroke-opacity:1"/>
<path class="bond-16 atom-16 atom-17" d="M 94.6,123.1 L 83.4,118.6" style="fill:none;fill-rule:evenodd;stroke:#FF0000;stroke-width:2.0px;stroke-linecap:butt;stroke-linejoin:miter;stroke-opacity:1"/>
<path class="bond-16 atom-16 atom-17" d="M 104.3,131.6 L 93.1,127.0" style="fill:none;fill-rule:evenodd;stroke:#000000;stroke-width:2.0px;stroke-linecap:butt;stroke-linejoin:miter;stroke-opacity:1"/>
<path class="bond-16 atom-16 atom-17" d="M 93.1,127.0 L 81.8,122.5" style="fill:none;fill-rule:evenodd;stroke:#FF0000;stroke-width:2.0px;stroke-linecap:butt;stroke-linejoin:miter;stroke-opacity:1"/>
<path class="bond-17 atom-16 atom-18" d="M 104.0,129.2 L 105.6,140.6" style="fill:none;fill-rule:evenodd;stroke:#000000;stroke-width:2.0px;stroke-linecap:butt;stroke-linejoin:miter;stroke-opacity:1"/>
<path class="bond-17 atom-16 atom-18" d="M 105.6,140.6 L 107.2,152.0" style="fill:none;fill-rule:evenodd;stroke:#FF0000;stroke-width:2.0px;stroke-linecap:butt;stroke-linejoin:miter;stroke-opacity:1"/>
<path class="bond-18 atom-1 atom-19" d="M 244.1,81.2 L 248.1,108.9" style="fill:none;fill-rule:evenodd;stroke:#000000;stroke-width:2.0px;stroke-linecap:butt;stroke-linejoin:miter;stroke-opacity:1"/>
<path class="bond-19 atom-19 atom-20" d="M 246.1,110.4 L 257.4,114.9" style="fill:none;fill-rule:evenodd;stroke:#000000;stroke-width:2.0px;stroke-linecap:butt;stroke-linejoin:miter;stroke-opacity:1"/>
<path class="bond-19 atom-19 atom-20" d="M 257.4,114.9 L 268.7,119.5" style="fill:none;fill-rule:evenodd;stroke:#FF0000;stroke-width:2.0px;stroke-linecap:butt;stroke-linejoin:miter;stroke-opacity:1"/>
<path class="bond-19 atom-19 atom-20" d="M 247.7,106.5 L 259.0,111.1" style="fill:none;fill-rule:evenodd;stroke:#000000;stroke-width:2.0px;stroke-linecap:butt;stroke-linejoin:miter;stroke-opacity:1"/>
<path class="bond-19 atom-19 atom-20" d="M 259.0,111.1 L 270.2,115.6" style="fill:none;fill-rule:evenodd;stroke:#FF0000;stroke-width:2.0px;stroke-linecap:butt;stroke-linejoin:miter;stroke-opacity:1"/>
<path class="bond-20 atom-19 atom-21" d="M 248.1,108.9 L 239.3,115.7" style="fill:none;fill-rule:evenodd;stroke:#000000;stroke-width:2.0px;stroke-linecap:butt;stroke-linejoin:miter;stroke-opacity:1"/>
<path class="bond-20 atom-19 atom-21" d="M 239.3,115.7 L 230.6,122.6" style="fill:none;fill-rule:evenodd;stroke:#FF0000;stroke-width:2.0px;stroke-linecap:butt;stroke-linejoin:miter;stroke-opacity:1"/>
<path d="M 242.9,80.7 L 244.1,81.2 L 244.3,82.6" style="fill:none;stroke:#000000;stroke-width:2.0px;stroke-linecap:butt;stroke-linejoin:miter;stroke-opacity:1;"/>
<path d="M 219.5,71.2 L 218.2,70.7 L 217.1,71.6" style="fill:none;stroke:#000000;stroke-width:2.0px;stroke-linecap:butt;stroke-linejoin:miter;stroke-opacity:1;"/>
<path d="M 197.2,87.1 L 196.1,87.9 L 194.8,87.4" style="fill:none;stroke:#000000;stroke-width:2.0px;stroke-linecap:butt;stroke-linejoin:miter;stroke-opacity:1;"/>
<path d="M 145.5,67.5 L 144.2,67.0 L 143.1,67.8" style="fill:none;stroke:#000000;stroke-width:2.0px;stroke-linecap:butt;stroke-linejoin:miter;stroke-opacity:1;"/>
<path d="M 97.5,74.3 L 96.2,73.7 L 95.1,74.6" style="fill:none;stroke:#000000;stroke-width:2.0px;stroke-linecap:butt;stroke-linejoin:miter;stroke-opacity:1;"/>
<path d="M 75.2,90.1 L 74.1,91.0 L 72.8,90.5" style="fill:none;stroke:#000000;stroke-width:2.0px;stroke-linecap:butt;stroke-linejoin:miter;stroke-opacity:1;"/>
<path d="M 49.5,81.0 L 48.2,80.5 L 47.7,80.8" style="fill:none;stroke:#000000;stroke-width:2.0px;stroke-linecap:butt;stroke-linejoin:miter;stroke-opacity:1;"/>
<path d="M 125.9,110.6 L 126.1,111.9 L 125.0,112.8" style="fill:none;stroke:#000000;stroke-width:2.0px;stroke-linecap:butt;stroke-linejoin:miter;stroke-opacity:1;"/>
<path d="M 105.1,128.3 L 104.0,129.2 L 104.1,129.8" style="fill:none;stroke:#000000;stroke-width:2.0px;stroke-linecap:butt;stroke-linejoin:miter;stroke-opacity:1;"/>
<path d="M 247.9,107.5 L 248.1,108.9 L 247.6,109.2" style="fill:none;stroke:#000000;stroke-width:2.0px;stroke-linecap:butt;stroke-linejoin:miter;stroke-opacity:1;"/>
<path class="atom-5" d="M 148.2 99.5 L 149.3 99.5 L 149.3 102.9 L 153.3 102.9 L 153.3 99.5 L 154.4 99.5 L 154.4 107.4 L 153.3 107.4 L 153.3 103.8 L 149.3 103.8 L 149.3 107.4 L 148.2 107.4 L 148.2 99.5 " fill="#FF0000"/>
<path class="atom-5" d="M 156.1 103.4 Q 156.1 101.5, 157.0 100.5 Q 157.9 99.4, 159.7 99.4 Q 161.4 99.4, 162.4 100.5 Q 163.3 101.5, 163.3 103.4 Q 163.3 105.4, 162.4 106.5 Q 161.4 107.6, 159.7 107.6 Q 157.9 107.6, 157.0 106.5 Q 156.1 105.4, 156.1 103.4 M 159.7 106.7 Q 160.9 106.7, 161.5 105.9 Q 162.2 105.0, 162.2 103.4 Q 162.2 101.9, 161.5 101.1 Q 160.9 100.3, 159.7 100.3 Q 158.5 100.3, 157.8 101.1 Q 157.2 101.9, 157.2 103.4 Q 157.2 105.0, 157.8 105.9 Q 158.5 106.7, 159.7 106.7 " fill="#FF0000"/>
<path class="atom-6" d="M 177.0 51.5 Q 177.0 49.6, 178.0 48.6 Q 178.9 47.5, 180.7 47.5 Q 182.4 47.5, 183.4 48.6 Q 184.3 49.6, 184.3 51.5 Q 184.3 53.4, 183.3 54.5 Q 182.4 55.6, 180.7 55.6 Q 178.9 55.6, 178.0 54.5 Q 177.0 53.5, 177.0 51.5 M 180.7 54.7 Q 181.9 54.7, 182.5 53.9 Q 183.2 53.1, 183.2 51.5 Q 183.2 50.0, 182.5 49.2 Q 181.9 48.4, 180.7 48.4 Q 179.4 48.4, 178.8 49.2 Q 178.1 50.0, 178.1 51.5 Q 178.1 53.1, 178.8 53.9 Q 179.4 54.7, 180.7 54.7 " fill="#FF0000"/>
<path class="atom-6" d="M 185.5 47.6 L 186.6 47.6 L 186.6 51.0 L 190.7 51.0 L 190.7 47.6 L 191.7 47.6 L 191.7 55.5 L 190.7 55.5 L 190.7 51.8 L 186.6 51.8 L 186.6 55.5 L 185.5 55.5 L 185.5 47.6 " fill="#FF0000"/>
<path class="atom-13" d="M 40.6 52.8 Q 40.6 50.9, 41.6 49.8 Q 42.5 48.8, 44.3 48.8 Q 46.0 48.8, 47.0 49.8 Q 47.9 50.9, 47.9 52.8 Q 47.9 54.7, 47.0 55.8 Q 46.0 56.9, 44.3 56.9 Q 42.5 56.9, 41.6 55.8 Q 40.6 54.7, 40.6 52.8 M 44.3 56.0 Q 45.5 56.0, 46.1 55.2 Q 46.8 54.4, 46.8 52.8 Q 46.8 51.2, 46.1 50.5 Q 45.5 49.7, 44.3 49.7 Q 43.1 49.7, 42.4 50.4 Q 41.8 51.2, 41.8 52.8 Q 41.8 54.4, 42.4 55.2 Q 43.1 56.0, 44.3 56.0 " fill="#FF0000"/>
<path class="atom-14" d="M 14.6 93.8 L 15.7 93.8 L 15.7 97.2 L 19.8 97.2 L 19.8 93.8 L 20.9 93.8 L 20.9 101.7 L 19.8 101.7 L 19.8 98.1 L 15.7 98.1 L 15.7 101.7 L 14.6 101.7 L 14.6 93.8 " fill="#FF0000"/>
<path class="atom-14" d="M 22.5 97.8 Q 22.5 95.9, 23.4 94.8 Q 24.4 93.7, 26.1 93.7 Q 27.9 93.7, 28.8 94.8 Q 29.8 95.9, 29.8 97.8 Q 29.8 99.7, 28.8 100.8 Q 27.9 101.9, 26.1 101.9 Q 24.4 101.9, 23.4 100.8 Q 22.5 99.7, 22.5 97.8 M 26.1 101.0 Q 27.3 101.0, 28.0 100.2 Q 28.6 99.3, 28.6 97.8 Q 28.6 96.2, 28.0 95.4 Q 27.3 94.6, 26.1 94.6 Q 24.9 94.6, 24.2 95.4 Q 23.6 96.2, 23.6 97.8 Q 23.6 99.4, 24.2 100.2 Q 24.9 101.0, 26.1 101.0 " fill="#FF0000"/>
<path class="atom-17" d="M 74.4 118.7 Q 74.4 116.8, 75.3 115.8 Q 76.3 114.7, 78.0 114.7 Q 79.8 114.7, 80.7 115.8 Q 81.7 116.8, 81.7 118.7 Q 81.7 120.6, 80.7 121.7 Q 79.8 122.8, 78.0 122.8 Q 76.3 122.8, 75.3 121.7 Q 74.4 120.7, 74.4 118.7 M 78.0 121.9 Q 79.2 121.9, 79.9 121.1 Q 80.6 120.3, 80.6 118.7 Q 80.6 117.2, 79.9 116.4 Q 79.2 115.6, 78.0 115.6 Q 76.8 115.6, 76.2 116.4 Q 75.5 117.2, 75.5 118.7 Q 75.5 120.3, 76.2 121.1 Q 76.8 121.9, 78.0 121.9 " fill="#FF0000"/>
<path class="atom-18" d="M 104.3 156.9 Q 104.3 155.0, 105.2 154.0 Q 106.1 152.9, 107.9 152.9 Q 109.7 152.9, 110.6 154.0 Q 111.5 155.0, 111.5 156.9 Q 111.5 158.9, 110.6 160.0 Q 109.6 161.0, 107.9 161.0 Q 106.2 161.0, 105.2 160.0 Q 104.3 158.9, 104.3 156.9 M 107.9 160.1 Q 109.1 160.1, 109.8 159.3 Q 110.4 158.5, 110.4 156.9 Q 110.4 155.4, 109.8 154.6 Q 109.1 153.8, 107.9 153.8 Q 106.7 153.8, 106.0 154.6 Q 105.4 155.4, 105.4 156.9 Q 105.4 158.5, 106.0 159.3 Q 106.7 160.1, 107.9 160.1 " fill="#FF0000"/>
<path class="atom-18" d="M 112.8 153.0 L 113.8 153.0 L 113.8 156.4 L 117.9 156.4 L 117.9 153.0 L 119.0 153.0 L 119.0 160.9 L 117.9 160.9 L 117.9 157.3 L 113.8 157.3 L 113.8 160.9 L 112.8 160.9 L 112.8 153.0 " fill="#FF0000"/>
<path class="atom-20" d="M 270.4 119.4 Q 270.4 117.5, 271.3 116.4 Q 272.3 115.4, 274.0 115.4 Q 275.8 115.4, 276.7 116.4 Q 277.6 117.5, 277.6 119.4 Q 277.6 121.3, 276.7 122.4 Q 275.7 123.5, 274.0 123.5 Q 272.3 123.5, 271.3 122.4 Q 270.4 121.4, 270.4 119.4 M 274.0 122.6 Q 275.2 122.6, 275.9 121.8 Q 276.5 121.0, 276.5 119.4 Q 276.5 117.9, 275.9 117.1 Q 275.2 116.3, 274.0 116.3 Q 272.8 116.3, 272.1 117.1 Q 271.5 117.8, 271.5 119.4 Q 271.5 121.0, 272.1 121.8 Q 272.8 122.6, 274.0 122.6 " fill="#FF0000"/>
<path class="atom-21" d="M 214.5 122.2 L 215.6 122.2 L 215.6 125.6 L 219.7 125.6 L 219.7 122.2 L 220.7 122.2 L 220.7 130.2 L 219.7 130.2 L 219.7 126.5 L 215.6 126.5 L 215.6 130.2 L 214.5 130.2 L 214.5 122.2 " fill="#FF0000"/>
<path class="atom-21" d="M 222.4 126.2 Q 222.4 124.3, 223.3 123.2 Q 224.2 122.1, 226.0 122.1 Q 227.8 122.1, 228.7 123.2 Q 229.6 124.3, 229.6 126.2 Q 229.6 128.1, 228.7 129.2 Q 227.7 130.3, 226.0 130.3 Q 224.2 130.3, 223.3 129.2 Q 222.4 128.1, 222.4 126.2 M 226.0 129.4 Q 227.2 129.4, 227.9 128.6 Q 228.5 127.8, 228.5 126.2 Q 228.5 124.6, 227.9 123.8 Q 227.2 123.0, 226.0 123.0 Q 224.8 123.0, 224.1 123.8 Q 223.5 124.6, 223.5 126.2 Q 223.5 127.8, 224.1 128.6 Q 224.8 129.4, 226.0 129.4 " fill="#FF0000"/>
</svg>
