<?xml version='1.0' encoding='ASCII' standalone='yes'?>
<svg xmlns="http://www.w3.org/2000/svg" xmlns:rdkit="http://www.rdkit.org/xml" xmlns:xlink="http://www.w3.org/1999/xlink" version="1.1" baseProfile="full" xml:space="preserve" width="304px" height="200px" viewBox="0 0 304 200">
<!-- END OF HEADER -->
<rect style="opacity:1.0;fill:#FFFFFF;stroke:none" width="304.0" height="200.0" x="0.0" y="0.0"> </rect>
<path class="bond-0 atom-0 atom-1" d="M 15.2,77.4 L 44.1,60.7" style="fill:none;fill-rule:evenodd;stroke:#000000;stroke-width:2.0px;stroke-linecap:butt;stroke-linejoin:miter;stroke-opacity:1"/>
<path class="bond-1 atom-1 atom-2" d="M 44.1,60.7 L 44.1,47.1" style="fill:none;fill-rule:evenodd;stroke:#000000;stroke-width:2.0px;stroke-linecap:butt;stroke-linejoin:miter;stroke-opacity:1"/>
<path class="bond-1 atom-1 atom-2" d="M 44.1,47.1 L 44.1,33.4" style="fill:none;fill-rule:evenodd;stroke:#FF0000;stroke-width:2.0px;stroke-linecap:butt;stroke-linejoin:miter;stroke-opacity:1"/>
<path class="bond-2 atom-1 atom-3" d="M 44.1,60.7 L 72.9,77.4" style="fill:none;fill-rule:evenodd;stroke:#000000;stroke-width:2.0px;stroke-linecap:butt;stroke-linejoin:miter;stroke-opacity:1"/>
<path class="bond-3 atom-3 atom-4" d="M 72.9,77.4 L 56.3,106.3" style="fill:none;fill-rule:evenodd;stroke:#000000;stroke-width:2.0px;stroke-linecap:butt;stroke-linejoin:miter;stroke-opacity:1"/>
<path class="bond-4 atom-3 atom-5" d="M 72.9,77.4 L 89.6,48.5" style="fill:none;fill-rule:evenodd;stroke:#000000;stroke-width:2.0px;stroke-linecap:butt;stroke-linejoin:miter;stroke-opacity:1"/>
<path class="bond-5 atom-3 atom-6" d="M 72.9,77.4 L 101.8,94.1" style="fill:none;fill-rule:evenodd;stroke:#000000;stroke-width:2.0px;stroke-linecap:butt;stroke-linejoin:miter;stroke-opacity:1"/>
<path class="bond-6 atom-6 atom-7" d="M 101.8,96.9 L 114.1,89.8" style="fill:none;fill-rule:evenodd;stroke:#000000;stroke-width:2.0px;stroke-linecap:butt;stroke-linejoin:miter;stroke-opacity:1"/>
<path class="bond-6 atom-6 atom-7" d="M 114.1,89.8 L 126.5,82.7" style="fill:none;fill-rule:evenodd;stroke:#FF0000;stroke-width:2.0px;stroke-linecap:butt;stroke-linejoin:miter;stroke-opacity:1"/>
<path class="bond-6 atom-6 atom-7" d="M 99.3,92.6 L 111.6,85.5" style="fill:none;fill-rule:evenodd;stroke:#000000;stroke-width:2.0px;stroke-linecap:butt;stroke-linejoin:miter;stroke-opacity:1"/>
<path class="bond-6 atom-6 atom-7" d="M 111.6,85.5 L 124.0,78.4" style="fill:none;fill-rule:evenodd;stroke:#FF0000;stroke-width:2.0px;stroke-linecap:butt;stroke-linejoin:miter;stroke-opacity:1"/>
<path class="bond-7 atom-6 atom-8" d="M 101.8,94.1 L 101.8,107.8" style="fill:none;fill-rule:evenodd;stroke:#000000;stroke-width:2.0px;stroke-linecap:butt;stroke-linejoin:miter;stroke-opacity:1"/>
<path class="bond-7 atom-6 atom-8" d="M 101.8,107.8 L 101.8,121.5" style="fill:none;fill-rule:evenodd;stroke:#FF0000;stroke-width:2.0px;stroke-linecap:butt;stroke-linejoin:miter;stroke-opacity:1"/>
<path class="bond-8 atom-8 atom-9" d="M 107.2,130.5 L 119.0,137.3" style="fill:none;fill-rule:evenodd;stroke:#FF0000;stroke-width:2.0px;stroke-linecap:butt;stroke-linejoin:miter;stroke-opacity:1"/>
<path class="bond-8 atom-8 atom-9" d="M 119.0,137.3 L 130.7,144.1" style="fill:none;fill-rule:evenodd;stroke:#000000;stroke-width:2.0px;stroke-linecap:butt;stroke-linejoin:miter;stroke-opacity:1"/>
<path class="bond-9 atom-9 atom-10" d="M 130.7,144.1 L 130.7,177.4" style="fill:none;fill-rule:evenodd;stroke:#000000;stroke-width:2.0px;stroke-linecap:butt;stroke-linejoin:miter;stroke-opacity:1"/>
<path class="bond-10 atom-9 atom-11" d="M 130.7,144.1 L 159.5,127.4" style="fill:none;fill-rule:evenodd;stroke:#000000;stroke-width:2.0px;stroke-linecap:butt;stroke-linejoin:miter;stroke-opacity:1"/>
<path class="bond-11 atom-11 atom-12" d="M 159.5,127.4 L 142.9,98.5" style="fill:none;fill-rule:evenodd;stroke:#000000;stroke-width:2.0px;stroke-linecap:butt;stroke-linejoin:miter;stroke-opacity:1"/>
<path class="bond-12 atom-11 atom-13" d="M 159.5,127.4 L 176.2,156.3" style="fill:none;fill-rule:evenodd;stroke:#000000;stroke-width:2.0px;stroke-linecap:butt;stroke-linejoin:miter;stroke-opacity:1"/>
<path class="bond-13 atom-11 atom-14" d="M 159.5,127.4 L 188.4,110.7" style="fill:none;fill-rule:evenodd;stroke:#000000;stroke-width:2.0px;stroke-linecap:butt;stroke-linejoin:miter;stroke-opacity:1"/>
<path class="bond-14 atom-14 atom-15" d="M 190.9,112.2 L 190.9,97.8" style="fill:none;fill-rule:evenodd;stroke:#000000;stroke-width:2.0px;stroke-linecap:butt;stroke-linejoin:miter;stroke-opacity:1"/>
<path class="bond-14 atom-14 atom-15" d="M 190.9,97.8 L 190.9,83.4" style="fill:none;fill-rule:evenodd;stroke:#FF0000;stroke-width:2.0px;stroke-linecap:butt;stroke-linejoin:miter;stroke-opacity:1"/>
<path class="bond-14 atom-14 atom-15" d="M 185.9,112.2 L 185.9,97.8" style="fill:none;fill-rule:evenodd;stroke:#000000;stroke-width:2.0px;stroke-linecap:butt;stroke-linejoin:miter;stroke-opacity:1"/>
<path class="bond-14 atom-14 atom-15" d="M 185.9,97.8 L 185.9,83.4" style="fill:none;fill-rule:evenodd;stroke:#FF0000;stroke-width:2.0px;stroke-linecap:butt;stroke-linejoin:miter;stroke-opacity:1"/>
<path class="bond-15 atom-14 atom-16" d="M 188.4,110.7 L 200.1,117.5" style="fill:none;fill-rule:evenodd;stroke:#000000;stroke-width:2.0px;stroke-linecap:butt;stroke-linejoin:miter;stroke-opacity:1"/>
<path class="bond-15 atom-14 atom-16" d="M 200.1,117.5 L 211.8,124.3" style="fill:none;fill-rule:evenodd;stroke:#FF0000;stroke-width:2.0px;stroke-linecap:butt;stroke-linejoin:miter;stroke-opacity:1"/>
<path class="bond-16 atom-16 atom-17" d="M 222.7,124.3 L 234.4,117.5" style="fill:none;fill-rule:evenodd;stroke:#FF0000;stroke-width:2.0px;stroke-linecap:butt;stroke-linejoin:miter;stroke-opacity:1"/>
<path class="bond-16 atom-16 atom-17" d="M 234.4,117.5 L 246.1,110.7" style="fill:none;fill-rule:evenodd;stroke:#000000;stroke-width:2.0px;stroke-linecap:butt;stroke-linejoin:miter;stroke-opacity:1"/>
<path class="bond-17 atom-17 atom-18" d="M 246.1,110.7 L 275.0,127.4" style="fill:none;fill-rule:evenodd;stroke:#000000;stroke-width:2.0px;stroke-linecap:butt;stroke-linejoin:miter;stroke-opacity:1"/>
<path class="bond-18 atom-17 atom-19" d="M 246.1,110.7 L 246.1,77.4" style="fill:none;fill-rule:evenodd;stroke:#000000;stroke-width:2.0px;stroke-linecap:butt;stroke-linejoin:miter;stroke-opacity:1"/>
<path class="bond-19 atom-19 atom-20" d="M 246.1,77.4 L 212.8,77.4" style="fill:none;fill-rule:evenodd;stroke:#000000;stroke-width:2.0px;stroke-linecap:butt;stroke-linejoin:miter;stroke-opacity:1"/>
<path class="bond-20 atom-19 atom-21" d="M 246.1,77.4 L 279.5,77.4" style="fill:none;fill-rule:evenodd;stroke:#000000;stroke-width:2.0px;stroke-linecap:butt;stroke-linejoin:miter;stroke-opacity:1"/>
<path class="bond-21 atom-19 atom-22" d="M 246.1,77.4 L 246.1,44.1" style="fill:none;fill-rule:evenodd;stroke:#000000;stroke-width:2.0px;stroke-linecap:butt;stroke-linejoin:miter;stroke-opacity:1"/>
<path class="bond-22 atom-22 atom-23" d="M 248.6,42.6 L 236.3,35.5" style="fill:none;fill-rule:evenodd;stroke:#000000;stroke-width:2.0px;stroke-linecap:butt;stroke-linejoin:miter;stroke-opacity:1"/>
<path class="bond-22 atom-22 atom-23" d="M 236.3,35.5 L 224.0,28.4" style="fill:none;fill-rule:evenodd;stroke:#FF0000;stroke-width:2.0px;stroke-linecap:butt;stroke-linejoin:miter;stroke-opacity:1"/>
<path class="bond-22 atom-22 atom-23" d="M 246.1,46.9 L 233.8,39.8" style="fill:none;fill-rule:evenodd;stroke:#000000;stroke-width:2.0px;stroke-linecap:butt;stroke-linejoin:miter;stroke-opacity:1"/>
<path class="bond-22 atom-22 atom-23" d="M 233.8,39.8 L 221.5,32.7" style="fill:none;fill-rule:evenodd;stroke:#FF0000;stroke-width:2.0px;stroke-linecap:butt;stroke-linejoin:miter;stroke-opacity:1"/>
<path class="bond-23 atom-22 atom-24" d="M 246.1,44.1 L 257.9,37.3" style="fill:none;fill-rule:evenodd;stroke:#000000;stroke-width:2.0px;stroke-linecap:butt;stroke-linejoin:miter;stroke-opacity:1"/>
<path class="bond-23 atom-22 atom-24" d="M 257.9,37.3 L 269.6,30.5" style="fill:none;fill-rule:evenodd;stroke:#FF0000;stroke-width:2.0px;stroke-linecap:butt;stroke-linejoin:miter;stroke-opacity:1"/>
<path d="M 100.4,93.2 L 101.8,94.1 L 101.8,94.7" style="fill:none;stroke:#000000;stroke-width:2.0px;stroke-linecap:butt;stroke-linejoin:miter;stroke-opacity:1;"/>
<path d="M 187.0,111.6 L 188.4,110.7 L 189.0,111.1" style="fill:none;stroke:#000000;stroke-width:2.0px;stroke-linecap:butt;stroke-linejoin:miter;stroke-opacity:1;"/>
<path d="M 246.1,45.7 L 246.1,44.1 L 246.7,43.7" style="fill:none;stroke:#000000;stroke-width:2.0px;stroke-linecap:butt;stroke-linejoin:miter;stroke-opacity:1;"/>
<path class="atom-2" d="M 39.7 27.4 Q 39.7 25.1, 40.9 23.9 Q 42.0 22.6, 44.1 22.6 Q 46.2 22.6, 47.3 23.9 Q 48.4 25.1, 48.4 27.4 Q 48.4 29.7, 47.3 31.0 Q 46.1 32.3, 44.1 32.3 Q 42.0 32.3, 40.9 31.0 Q 39.7 29.7, 39.7 27.4 M 44.1 31.2 Q 45.5 31.2, 46.3 30.3 Q 47.1 29.3, 47.1 27.4 Q 47.1 25.6, 46.3 24.6 Q 45.5 23.7, 44.1 23.7 Q 42.6 23.7, 41.8 24.6 Q 41.1 25.5, 41.1 27.4 Q 41.1 29.3, 41.8 30.3 Q 42.6 31.2, 44.1 31.2 " fill="#FF0000"/>
<path class="atom-2" d="M 49.9 22.7 L 51.2 22.7 L 51.2 26.7 L 56.0 26.7 L 56.0 22.7 L 57.3 22.7 L 57.3 32.2 L 56.0 32.2 L 56.0 27.8 L 51.2 27.8 L 51.2 32.2 L 49.9 32.2 L 49.9 22.7 " fill="#FF0000"/>
<path class="atom-7" d="M 126.3 77.4 Q 126.3 75.1, 127.5 73.9 Q 128.6 72.6, 130.7 72.6 Q 132.8 72.6, 133.9 73.9 Q 135.0 75.1, 135.0 77.4 Q 135.0 79.7, 133.9 81.0 Q 132.7 82.3, 130.7 82.3 Q 128.6 82.3, 127.5 81.0 Q 126.3 79.7, 126.3 77.4 M 130.7 81.2 Q 132.1 81.2, 132.9 80.3 Q 133.7 79.3, 133.7 77.4 Q 133.7 75.6, 132.9 74.6 Q 132.1 73.7, 130.7 73.7 Q 129.2 73.7, 128.4 74.6 Q 127.7 75.5, 127.7 77.4 Q 127.7 79.3, 128.4 80.3 Q 129.2 81.2, 130.7 81.2 " fill="#FF0000"/>
<path class="atom-8" d="M 97.5 127.4 Q 97.5 125.1, 98.6 123.9 Q 99.7 122.6, 101.8 122.6 Q 103.9 122.6, 105.0 123.9 Q 106.1 125.1, 106.1 127.4 Q 106.1 129.7, 105.0 131.0 Q 103.9 132.3, 101.8 132.3 Q 99.7 132.3, 98.6 131.0 Q 97.5 129.7, 97.5 127.4 M 101.8 131.2 Q 103.2 131.2, 104.0 130.3 Q 104.8 129.3, 104.8 127.4 Q 104.8 125.6, 104.0 124.6 Q 103.2 123.7, 101.8 123.7 Q 100.4 123.7, 99.6 124.6 Q 98.8 125.5, 98.8 127.4 Q 98.8 129.3, 99.6 130.3 Q 100.4 131.2, 101.8 131.2 " fill="#FF0000"/>
<path class="atom-15" d="M 184.1 77.4 Q 184.1 75.1, 185.2 73.9 Q 186.3 72.6, 188.4 72.6 Q 190.5 72.6, 191.6 73.9 Q 192.7 75.1, 192.7 77.4 Q 192.7 79.7, 191.6 81.0 Q 190.5 82.3, 188.4 82.3 Q 186.3 82.3, 185.2 81.0 Q 184.1 79.7, 184.1 77.4 M 188.4 81.2 Q 189.8 81.2, 190.6 80.3 Q 191.4 79.3, 191.4 77.4 Q 191.4 75.6, 190.6 74.6 Q 189.8 73.7, 188.4 73.7 Q 187.0 73.7, 186.2 74.6 Q 185.4 75.5, 185.4 77.4 Q 185.4 79.3, 186.2 80.3 Q 187.0 81.2, 188.4 81.2 " fill="#FF0000"/>
<path class="atom-16" d="M 212.9 127.4 Q 212.9 125.1, 214.1 123.9 Q 215.2 122.6, 217.3 122.6 Q 219.4 122.6, 220.5 123.9 Q 221.6 125.1, 221.6 127.4 Q 221.6 129.7, 220.5 131.0 Q 219.3 132.3, 217.3 132.3 Q 215.2 132.3, 214.1 131.0 Q 212.9 129.7, 212.9 127.4 M 217.3 131.2 Q 218.7 131.2, 219.5 130.3 Q 220.3 129.3, 220.3 127.4 Q 220.3 125.6, 219.5 124.6 Q 218.7 123.7, 217.3 123.7 Q 215.8 123.7, 215.0 124.6 Q 214.3 125.5, 214.3 127.4 Q 214.3 129.3, 215.0 130.3 Q 215.8 131.2, 217.3 131.2 " fill="#FF0000"/>
<path class="atom-23" d="M 212.9 27.4 Q 212.9 25.1, 214.1 23.9 Q 215.2 22.6, 217.3 22.6 Q 219.4 22.6, 220.5 23.9 Q 221.6 25.1, 221.6 27.4 Q 221.6 29.7, 220.5 31.0 Q 219.3 32.3, 217.3 32.3 Q 215.2 32.3, 214.1 31.0 Q 212.9 29.7, 212.9 27.4 M 217.3 31.2 Q 218.7 31.2, 219.5 30.3 Q 220.3 29.3, 220.3 27.4 Q 220.3 25.6, 219.5 24.6 Q 218.7 23.7, 217.3 23.7 Q 215.8 23.7, 215.0 24.6 Q 214.3 25.5, 214.3 27.4 Q 214.3 29.3, 215.0 30.3 Q 215.8 31.2, 217.3 31.2 " fill="#FF0000"/>
<path class="atom-24" d="M 270.7 27.4 Q 270.7 25.1, 271.8 23.9 Q 272.9 22.6, 275.0 22.6 Q 277.1 22.6, 278.2 23.9 Q 279.3 25.1, 279.3 27.4 Q 279.3 29.7, 278.2 31.0 Q 277.1 32.3, 275.0 32.3 Q 272.9 32.3, 271.8 31.0 Q 270.7 29.7, 270.7 27.4 M 275.0 31.2 Q 276.5 31.2, 277.2 30.3 Q 278.0 29.3, 278.0 27.4 Q 278.0 25.6, 277.2 24.6 Q 276.5 23.7, 275.0 23.7 Q 273.6 23.7, 272.8 24.6 Q 272.0 25.5, 272.0 27.4 Q 272.0 29.3, 272.8 30.3 Q 273.6 31.2, 275.0 31.2 " fill="#FF0000"/>
<path class="atom-24" d="M 280.8 22.7 L 282.1 22.7 L 282.1 26.7 L 286.9 26.7 L 286.9 22.7 L 288.2 22.7 L 288.2 32.2 L 286.9 32.2 L 286.9 27.8 L 282.1 27.8 L 282.1 32.2 L 280.8 32.2 L 280.8 22.7 " fill="#FF0000"/>
</svg>
