<?xml version='1.0' encoding='ASCII' standalone='yes'?>
<svg xmlns="http://www.w3.org/2000/svg" xmlns:rdkit="http://www.rdkit.org/xml" xmlns:xlink="http://www.w3.org/1999/xlink" version="1.1" baseProfile="full" xml:space="preserve" width="293px" height="200px" viewBox="0 0 293 200">
<!-- END OF HEADER -->
<rect style="opacity:1.0;fill:#FFFFFF;stroke:none" width="293.0" height="200.0" x="0.0" y="0.0"> </rect>
<path class="bond-0 atom-0 atom-1" d="M 130.2,116.4 L 138.5,111.8" style="fill:none;fill-rule:evenodd;stroke:#FF0000;stroke-width:2.0px;stroke-linecap:butt;stroke-linejoin:miter;stroke-opacity:1"/>
<path class="bond-0 atom-0 atom-1" d="M 138.5,111.8 L 146.8,107.1" style="fill:none;fill-rule:evenodd;stroke:#000000;stroke-width:2.0px;stroke-linecap:butt;stroke-linejoin:miter;stroke-opacity:1"/>
<path class="bond-0 atom-0 atom-1" d="M 131.8,119.4 L 140.1,114.7" style="fill:none;fill-rule:evenodd;stroke:#FF0000;stroke-width:2.0px;stroke-linecap:butt;stroke-linejoin:miter;stroke-opacity:1"/>
<path class="bond-0 atom-0 atom-1" d="M 140.1,114.7 L 148.4,110.0" style="fill:none;fill-rule:evenodd;stroke:#000000;stroke-width:2.0px;stroke-linecap:butt;stroke-linejoin:miter;stroke-opacity:1"/>
<path class="bond-1 atom-1 atom-2" d="M 146.8,109.0 L 154.5,113.7" style="fill:none;fill-rule:evenodd;stroke:#000000;stroke-width:2.0px;stroke-linecap:butt;stroke-linejoin:miter;stroke-opacity:1"/>
<path class="bond-1 atom-1 atom-2" d="M 154.5,113.7 L 162.3,118.3" style="fill:none;fill-rule:evenodd;stroke:#FF0000;stroke-width:2.0px;stroke-linecap:butt;stroke-linejoin:miter;stroke-opacity:1"/>
<path class="bond-2 atom-1 atom-3" d="M 146.8,109.0 L 147.1,86.8" style="fill:none;fill-rule:evenodd;stroke:#000000;stroke-width:2.0px;stroke-linecap:butt;stroke-linejoin:miter;stroke-opacity:1"/>
<path class="bond-3 atom-3 atom-4" d="M 147.1,86.8 L 147.4,64.5" style="fill:none;fill-rule:evenodd;stroke:#000000;stroke-width:2.0px;stroke-linecap:butt;stroke-linejoin:miter;stroke-opacity:1"/>
<path class="bond-4 atom-4 atom-5" d="M 147.4,64.5 L 155.3,60.1" style="fill:none;fill-rule:evenodd;stroke:#000000;stroke-width:2.0px;stroke-linecap:butt;stroke-linejoin:miter;stroke-opacity:1"/>
<path class="bond-4 atom-4 atom-5" d="M 155.3,60.1 L 163.2,55.6" style="fill:none;fill-rule:evenodd;stroke:#FF0000;stroke-width:2.0px;stroke-linecap:butt;stroke-linejoin:miter;stroke-opacity:1"/>
<path class="bond-5 atom-3 atom-6" d="M 147.1,86.8 L 169.4,87.1" style="fill:none;fill-rule:evenodd;stroke:#000000;stroke-width:2.0px;stroke-linecap:butt;stroke-linejoin:miter;stroke-opacity:1"/>
<path class="bond-6 atom-6 atom-7" d="M 169.4,87.1 L 180.2,106.5" style="fill:none;fill-rule:evenodd;stroke:#000000;stroke-width:2.0px;stroke-linecap:butt;stroke-linejoin:miter;stroke-opacity:1"/>
<path class="bond-7 atom-7 atom-8" d="M 180.2,106.5 L 202.5,106.8" style="fill:none;fill-rule:evenodd;stroke:#000000;stroke-width:2.0px;stroke-linecap:butt;stroke-linejoin:miter;stroke-opacity:1"/>
<path class="bond-8 atom-8 atom-9" d="M 202.5,106.8 L 207.0,99.2" style="fill:none;fill-rule:evenodd;stroke:#000000;stroke-width:2.0px;stroke-linecap:butt;stroke-linejoin:miter;stroke-opacity:1"/>
<path class="bond-8 atom-8 atom-9" d="M 207.0,99.2 L 211.5,91.7" style="fill:none;fill-rule:evenodd;stroke:#FF0000;stroke-width:2.0px;stroke-linecap:butt;stroke-linejoin:miter;stroke-opacity:1"/>
<path class="bond-9 atom-8 atom-10" d="M 202.5,106.8 L 213.4,126.3" style="fill:none;fill-rule:evenodd;stroke:#000000;stroke-width:2.0px;stroke-linecap:butt;stroke-linejoin:miter;stroke-opacity:1"/>
<path class="bond-10 atom-10 atom-11" d="M 213.4,126.3 L 235.7,126.6" style="fill:none;fill-rule:evenodd;stroke:#000000;stroke-width:2.0px;stroke-linecap:butt;stroke-linejoin:miter;stroke-opacity:1"/>
<path class="bond-11 atom-11 atom-12" d="M 235.7,126.6 L 246.6,146.0" style="fill:none;fill-rule:evenodd;stroke:#000000;stroke-width:2.0px;stroke-linecap:butt;stroke-linejoin:miter;stroke-opacity:1"/>
<path class="bond-12 atom-12 atom-13" d="M 246.6,146.0 L 255.9,146.1" style="fill:none;fill-rule:evenodd;stroke:#000000;stroke-width:2.0px;stroke-linecap:butt;stroke-linejoin:miter;stroke-opacity:1"/>
<path class="bond-12 atom-12 atom-13" d="M 255.9,146.1 L 265.2,146.2" style="fill:none;fill-rule:evenodd;stroke:#FF0000;stroke-width:2.0px;stroke-linecap:butt;stroke-linejoin:miter;stroke-opacity:1"/>
<path class="bond-13 atom-3 atom-14" d="M 147.1,86.8 L 124.8,86.5" style="fill:none;fill-rule:evenodd;stroke:#000000;stroke-width:2.0px;stroke-linecap:butt;stroke-linejoin:miter;stroke-opacity:1"/>
<path class="bond-14 atom-14 atom-15" d="M 124.8,86.5 L 113.4,105.6" style="fill:none;fill-rule:evenodd;stroke:#000000;stroke-width:2.0px;stroke-linecap:butt;stroke-linejoin:miter;stroke-opacity:1"/>
<path class="bond-15 atom-15 atom-16" d="M 113.4,105.6 L 91.1,105.3" style="fill:none;fill-rule:evenodd;stroke:#000000;stroke-width:2.0px;stroke-linecap:butt;stroke-linejoin:miter;stroke-opacity:1"/>
<path class="bond-16 atom-16 atom-17" d="M 91.1,105.3 L 86.8,97.6" style="fill:none;fill-rule:evenodd;stroke:#000000;stroke-width:2.0px;stroke-linecap:butt;stroke-linejoin:miter;stroke-opacity:1"/>
<path class="bond-16 atom-16 atom-17" d="M 86.8,97.6 L 82.5,89.9" style="fill:none;fill-rule:evenodd;stroke:#FF0000;stroke-width:2.0px;stroke-linecap:butt;stroke-linejoin:miter;stroke-opacity:1"/>
<path class="bond-17 atom-16 atom-18" d="M 91.1,105.3 L 79.7,124.5" style="fill:none;fill-rule:evenodd;stroke:#000000;stroke-width:2.0px;stroke-linecap:butt;stroke-linejoin:miter;stroke-opacity:1"/>
<path class="bond-18 atom-18 atom-19" d="M 79.7,124.5 L 57.5,124.2" style="fill:none;fill-rule:evenodd;stroke:#000000;stroke-width:2.0px;stroke-linecap:butt;stroke-linejoin:miter;stroke-opacity:1"/>
<path class="bond-19 atom-19 atom-20" d="M 57.5,124.2 L 46.1,143.3" style="fill:none;fill-rule:evenodd;stroke:#000000;stroke-width:2.0px;stroke-linecap:butt;stroke-linejoin:miter;stroke-opacity:1"/>
<path class="bond-20 atom-20 atom-21" d="M 46.1,143.3 L 36.7,143.2" style="fill:none;fill-rule:evenodd;stroke:#000000;stroke-width:2.0px;stroke-linecap:butt;stroke-linejoin:miter;stroke-opacity:1"/>
<path class="bond-20 atom-20 atom-21" d="M 36.7,143.2 L 27.4,143.1" style="fill:none;fill-rule:evenodd;stroke:#FF0000;stroke-width:2.0px;stroke-linecap:butt;stroke-linejoin:miter;stroke-opacity:1"/>
<path d="M 147.2,109.3 L 146.8,109.0 L 146.8,107.9" style="fill:none;stroke:#000000;stroke-width:2.0px;stroke-linecap:butt;stroke-linejoin:miter;stroke-opacity:1;"/>
<path d="M 147.4,65.6 L 147.4,64.5 L 147.8,64.3" style="fill:none;stroke:#000000;stroke-width:2.0px;stroke-linecap:butt;stroke-linejoin:miter;stroke-opacity:1;"/>
<path d="M 168.2,87.1 L 169.4,87.1 L 169.9,88.0" style="fill:none;stroke:#000000;stroke-width:2.0px;stroke-linecap:butt;stroke-linejoin:miter;stroke-opacity:1;"/>
<path d="M 179.7,105.5 L 180.2,106.5 L 181.4,106.5" style="fill:none;stroke:#000000;stroke-width:2.0px;stroke-linecap:butt;stroke-linejoin:miter;stroke-opacity:1;"/>
<path d="M 212.9,125.3 L 213.4,126.3 L 214.5,126.3" style="fill:none;stroke:#000000;stroke-width:2.0px;stroke-linecap:butt;stroke-linejoin:miter;stroke-opacity:1;"/>
<path d="M 234.6,126.5 L 235.7,126.6 L 236.2,127.5" style="fill:none;stroke:#000000;stroke-width:2.0px;stroke-linecap:butt;stroke-linejoin:miter;stroke-opacity:1;"/>
<path d="M 246.0,145.0 L 246.6,146.0 L 247.0,146.0" style="fill:none;stroke:#000000;stroke-width:2.0px;stroke-linecap:butt;stroke-linejoin:miter;stroke-opacity:1;"/>
<path d="M 125.9,86.5 L 124.8,86.5 L 124.2,87.4" style="fill:none;stroke:#000000;stroke-width:2.0px;stroke-linecap:butt;stroke-linejoin:miter;stroke-opacity:1;"/>
<path d="M 114.0,104.7 L 113.4,105.6 L 112.3,105.6" style="fill:none;stroke:#000000;stroke-width:2.0px;stroke-linecap:butt;stroke-linejoin:miter;stroke-opacity:1;"/>
<path d="M 80.3,123.5 L 79.7,124.5 L 78.6,124.4" style="fill:none;stroke:#000000;stroke-width:2.0px;stroke-linecap:butt;stroke-linejoin:miter;stroke-opacity:1;"/>
<path d="M 58.6,124.2 L 57.5,124.2 L 56.9,125.1" style="fill:none;stroke:#000000;stroke-width:2.0px;stroke-linecap:butt;stroke-linejoin:miter;stroke-opacity:1;"/>
<path d="M 46.6,142.3 L 46.1,143.3 L 45.6,143.3" style="fill:none;stroke:#000000;stroke-width:2.0px;stroke-linecap:butt;stroke-linejoin:miter;stroke-opacity:1;"/>
<path class="atom-0" d="M 124.4 119.9 Q 124.4 118.4, 125.2 117.6 Q 125.9 116.7, 127.3 116.7 Q 128.7 116.7, 129.5 117.6 Q 130.2 118.4, 130.2 119.9 Q 130.2 121.5, 129.5 122.3 Q 128.7 123.2, 127.3 123.2 Q 126.0 123.2, 125.2 122.3 Q 124.4 121.5, 124.4 119.9 M 127.3 122.5 Q 128.3 122.5, 128.8 121.9 Q 129.3 121.2, 129.3 119.9 Q 129.3 118.7, 128.8 118.1 Q 128.3 117.4, 127.3 117.4 Q 126.4 117.4, 125.9 118.1 Q 125.3 118.7, 125.3 119.9 Q 125.3 121.2, 125.9 121.9 Q 126.4 122.5, 127.3 122.5 " fill="#FF0000"/>
<path class="atom-2" d="M 163.0 120.5 Q 163.0 118.9, 163.8 118.1 Q 164.5 117.3, 165.9 117.3 Q 167.3 117.3, 168.1 118.1 Q 168.8 118.9, 168.8 120.5 Q 168.8 122.0, 168.1 122.9 Q 167.3 123.7, 165.9 123.7 Q 164.5 123.7, 163.8 122.9 Q 163.0 122.0, 163.0 120.5 M 165.9 123.0 Q 166.9 123.0, 167.4 122.4 Q 167.9 121.7, 167.9 120.5 Q 167.9 119.2, 167.4 118.6 Q 166.9 118.0, 165.9 118.0 Q 165.0 118.0, 164.4 118.6 Q 163.9 119.2, 163.9 120.5 Q 163.9 121.7, 164.4 122.4 Q 165.0 123.0, 165.9 123.0 " fill="#FF0000"/>
<path class="atom-2" d="M 169.8 117.3 L 170.7 117.3 L 170.7 120.0 L 173.9 120.0 L 173.9 117.3 L 174.7 117.3 L 174.7 123.6 L 173.9 123.6 L 173.9 120.7 L 170.7 120.7 L 170.7 123.6 L 169.8 123.6 L 169.8 117.3 " fill="#FF0000"/>
<path class="atom-5" d="M 163.9 53.6 Q 163.9 52.1, 164.7 51.3 Q 165.4 50.4, 166.8 50.4 Q 168.2 50.4, 169.0 51.3 Q 169.7 52.1, 169.7 53.6 Q 169.7 55.2, 169.0 56.0 Q 168.2 56.9, 166.8 56.9 Q 165.4 56.9, 164.7 56.0 Q 163.9 55.2, 163.9 53.6 M 166.8 56.2 Q 167.8 56.2, 168.3 55.5 Q 168.8 54.9, 168.8 53.6 Q 168.8 52.4, 168.3 51.8 Q 167.8 51.1, 166.8 51.1 Q 165.9 51.1, 165.3 51.8 Q 164.8 52.4, 164.8 53.6 Q 164.8 54.9, 165.3 55.5 Q 165.9 56.2, 166.8 56.2 " fill="#FF0000"/>
<path class="atom-5" d="M 170.7 50.5 L 171.6 50.5 L 171.6 53.2 L 174.8 53.2 L 174.8 50.5 L 175.6 50.5 L 175.6 56.8 L 174.8 56.8 L 174.8 53.9 L 171.6 53.9 L 171.6 56.8 L 170.7 56.8 L 170.7 50.5 " fill="#FF0000"/>
<path class="atom-9" d="M 211.0 87.7 Q 211.0 86.2, 211.8 85.3 Q 212.5 84.5, 213.9 84.5 Q 215.3 84.5, 216.1 85.3 Q 216.8 86.2, 216.8 87.7 Q 216.8 89.2, 216.1 90.1 Q 215.3 91.0, 213.9 91.0 Q 212.5 91.0, 211.8 90.1 Q 211.0 89.2, 211.0 87.7 M 213.9 90.2 Q 214.9 90.2, 215.4 89.6 Q 215.9 88.9, 215.9 87.7 Q 215.9 86.4, 215.4 85.8 Q 214.9 85.2, 213.9 85.2 Q 213.0 85.2, 212.4 85.8 Q 211.9 86.4, 211.9 87.7 Q 211.9 89.0, 212.4 89.6 Q 213.0 90.2, 213.9 90.2 " fill="#FF0000"/>
<path class="atom-9" d="M 217.8 84.5 L 218.7 84.5 L 218.7 87.2 L 221.9 87.2 L 221.9 84.5 L 222.7 84.5 L 222.7 90.9 L 221.9 90.9 L 221.9 87.9 L 218.7 87.9 L 218.7 90.9 L 217.8 90.9 L 217.8 84.5 " fill="#FF0000"/>
<path class="atom-13" d="M 265.9 146.3 Q 265.9 144.8, 266.7 143.9 Q 267.4 143.1, 268.8 143.1 Q 270.2 143.1, 271.0 143.9 Q 271.7 144.8, 271.7 146.3 Q 271.7 147.8, 271.0 148.7 Q 270.2 149.6, 268.8 149.6 Q 267.4 149.6, 266.7 148.7 Q 265.9 147.9, 265.9 146.3 M 268.8 148.9 Q 269.8 148.9, 270.3 148.2 Q 270.8 147.6, 270.8 146.3 Q 270.8 145.1, 270.3 144.4 Q 269.8 143.8, 268.8 143.8 Q 267.9 143.8, 267.3 144.4 Q 266.8 145.1, 266.8 146.3 Q 266.8 147.6, 267.3 148.2 Q 267.9 148.9, 268.8 148.9 " fill="#FF0000"/>
<path class="atom-13" d="M 272.7 143.2 L 273.6 143.2 L 273.6 145.9 L 276.8 145.9 L 276.8 143.2 L 277.6 143.2 L 277.6 149.5 L 276.8 149.5 L 276.8 146.6 L 273.6 146.6 L 273.6 149.5 L 272.7 149.5 L 272.7 143.2 " fill="#FF0000"/>
<path class="atom-17" d="M 71.1 82.8 L 72.0 82.8 L 72.0 85.4 L 75.2 85.4 L 75.2 82.8 L 76.1 82.8 L 76.1 89.1 L 75.2 89.1 L 75.2 86.1 L 72.0 86.1 L 72.0 89.1 L 71.1 89.1 L 71.1 82.8 " fill="#FF0000"/>
<path class="atom-17" d="M 77.4 85.9 Q 77.4 84.4, 78.1 83.5 Q 78.9 82.7, 80.2 82.7 Q 81.6 82.7, 82.4 83.5 Q 83.1 84.4, 83.1 85.9 Q 83.1 87.4, 82.4 88.3 Q 81.6 89.2, 80.2 89.2 Q 78.9 89.2, 78.1 88.3 Q 77.4 87.4, 77.4 85.9 M 80.2 88.4 Q 81.2 88.4, 81.7 87.8 Q 82.3 87.2, 82.3 85.9 Q 82.3 84.6, 81.7 84.0 Q 81.2 83.4, 80.2 83.4 Q 79.3 83.4, 78.8 84.0 Q 78.2 84.6, 78.2 85.9 Q 78.2 87.2, 78.8 87.8 Q 79.3 88.4, 80.2 88.4 " fill="#FF0000"/>
<path class="atom-21" d="M 14.7 139.9 L 15.5 139.9 L 15.5 142.6 L 18.7 142.6 L 18.7 139.9 L 19.6 139.9 L 19.6 146.2 L 18.7 146.2 L 18.7 143.3 L 15.5 143.3 L 15.5 146.2 L 14.7 146.2 L 14.7 139.9 " fill="#FF0000"/>
<path class="atom-21" d="M 20.9 143.0 Q 20.9 141.5, 21.6 140.7 Q 22.4 139.8, 23.8 139.8 Q 25.2 139.8, 25.9 140.7 Q 26.7 141.5, 26.7 143.0 Q 26.7 144.6, 25.9 145.4 Q 25.2 146.3, 23.8 146.3 Q 22.4 146.3, 21.6 145.4 Q 20.9 144.6, 20.9 143.0 M 23.8 145.6 Q 24.7 145.6, 25.3 144.9 Q 25.8 144.3, 25.8 143.0 Q 25.8 141.8, 25.3 141.2 Q 24.7 140.5, 23.8 140.5 Q 22.8 140.5, 22.3 141.1 Q 21.8 141.8, 21.8 143.0 Q 21.8 144.3, 22.3 144.9 Q 22.8 145.6, 23.8 145.6 " fill="#FF0000"/>
</svg>
