<?xml version='1.0' encoding='ASCII' standalone='yes'?>
<svg xmlns="http://www.w3.org/2000/svg" xmlns:rdkit="http://www.rdkit.org/xml" xmlns:xlink="http://www.w3.org/1999/xlink" version="1.1" baseProfile="full" xml:space="preserve" width="240px" height="200px" viewBox="0 0 240 200">
<!-- END OF HEADER -->
<rect style="opacity:1.0;fill:#FFFFFF;stroke:none" width="240.0" height="200.0" x="0.0" y="0.0"> </rect>
<path class="bond-0 atom-0 atom-1" d="M 184.5,97.0 L 172.9,87.2" style="fill:none;fill-rule:evenodd;stroke:#FF0000;stroke-width:2.0px;stroke-linecap:butt;stroke-linejoin:miter;stroke-opacity:1"/>
<path class="bond-0 atom-0 atom-1" d="M 172.9,87.2 L 161.4,77.4" style="fill:none;fill-rule:evenodd;stroke:#000000;stroke-width:2.0px;stroke-linecap:butt;stroke-linejoin:miter;stroke-opacity:1"/>
<path class="bond-0 atom-0 atom-1" d="M 188.0,92.8 L 176.5,83.0" style="fill:none;fill-rule:evenodd;stroke:#FF0000;stroke-width:2.0px;stroke-linecap:butt;stroke-linejoin:miter;stroke-opacity:1"/>
<path class="bond-0 atom-0 atom-1" d="M 176.5,83.0 L 164.9,73.2" style="fill:none;fill-rule:evenodd;stroke:#000000;stroke-width:2.0px;stroke-linecap:butt;stroke-linejoin:miter;stroke-opacity:1"/>
<path class="bond-1 atom-1 atom-2" d="M 164.4,76.3 L 167.0,61.7" style="fill:none;fill-rule:evenodd;stroke:#000000;stroke-width:2.0px;stroke-linecap:butt;stroke-linejoin:miter;stroke-opacity:1"/>
<path class="bond-1 atom-1 atom-2" d="M 167.0,61.7 L 169.7,47.0" style="fill:none;fill-rule:evenodd;stroke:#FF0000;stroke-width:2.0px;stroke-linecap:butt;stroke-linejoin:miter;stroke-opacity:1"/>
<path class="bond-2 atom-1 atom-3" d="M 164.4,76.3 L 130.0,88.7" style="fill:none;fill-rule:evenodd;stroke:#000000;stroke-width:2.0px;stroke-linecap:butt;stroke-linejoin:miter;stroke-opacity:1"/>
<path class="bond-3 atom-3 atom-4" d="M 133.0,87.6 L 121.4,77.8" style="fill:none;fill-rule:evenodd;stroke:#000000;stroke-width:2.0px;stroke-linecap:butt;stroke-linejoin:miter;stroke-opacity:1"/>
<path class="bond-3 atom-3 atom-4" d="M 121.4,77.8 L 109.9,68.0" style="fill:none;fill-rule:evenodd;stroke:#FF0000;stroke-width:2.0px;stroke-linecap:butt;stroke-linejoin:miter;stroke-opacity:1"/>
<path class="bond-3 atom-3 atom-4" d="M 129.4,91.8 L 117.9,82.0" style="fill:none;fill-rule:evenodd;stroke:#000000;stroke-width:2.0px;stroke-linecap:butt;stroke-linejoin:miter;stroke-opacity:1"/>
<path class="bond-3 atom-3 atom-4" d="M 117.9,82.0 L 106.3,72.2" style="fill:none;fill-rule:evenodd;stroke:#FF0000;stroke-width:2.0px;stroke-linecap:butt;stroke-linejoin:miter;stroke-opacity:1"/>
<path class="bond-4 atom-3 atom-5" d="M 130.0,88.7 L 123.5,124.6" style="fill:none;fill-rule:evenodd;stroke:#000000;stroke-width:2.0px;stroke-linecap:butt;stroke-linejoin:miter;stroke-opacity:1"/>
<path class="bond-5 atom-5 atom-6" d="M 123.5,124.6 L 89.2,136.9" style="fill:none;fill-rule:evenodd;stroke:#000000;stroke-width:2.0px;stroke-linecap:butt;stroke-linejoin:miter;stroke-opacity:1"/>
<path class="bond-6 atom-6 atom-7" d="M 89.2,136.9 L 61.3,113.3" style="fill:none;fill-rule:evenodd;stroke:#000000;stroke-width:2.0px;stroke-linecap:butt;stroke-linejoin:miter;stroke-opacity:1"/>
<path class="bond-7 atom-7 atom-8" d="M 61.3,113.3 L 47.1,118.4" style="fill:none;fill-rule:evenodd;stroke:#000000;stroke-width:2.0px;stroke-linecap:butt;stroke-linejoin:miter;stroke-opacity:1"/>
<path class="bond-7 atom-7 atom-8" d="M 47.1,118.4 L 32.9,123.5" style="fill:none;fill-rule:evenodd;stroke:#FF0000;stroke-width:2.0px;stroke-linecap:butt;stroke-linejoin:miter;stroke-opacity:1"/>
<path class="bond-8 atom-5 atom-9" d="M 123.5,124.6 L 151.4,148.2" style="fill:none;fill-rule:evenodd;stroke:#000000;stroke-width:2.0px;stroke-linecap:butt;stroke-linejoin:miter;stroke-opacity:1"/>
<path class="bond-9 atom-9 atom-10" d="M 151.4,148.2 L 185.7,135.8" style="fill:none;fill-rule:evenodd;stroke:#000000;stroke-width:2.0px;stroke-linecap:butt;stroke-linejoin:miter;stroke-opacity:1"/>
<path class="bond-10 atom-10 atom-11" d="M 185.7,135.8 L 196.7,145.1" style="fill:none;fill-rule:evenodd;stroke:#000000;stroke-width:2.0px;stroke-linecap:butt;stroke-linejoin:miter;stroke-opacity:1"/>
<path class="bond-10 atom-10 atom-11" d="M 196.7,145.1 L 207.6,154.4" style="fill:none;fill-rule:evenodd;stroke:#FF0000;stroke-width:2.0px;stroke-linecap:butt;stroke-linejoin:miter;stroke-opacity:1"/>
<path d="M 164.5,75.6 L 164.4,76.3 L 162.6,76.9" style="fill:none;stroke:#000000;stroke-width:2.0px;stroke-linecap:butt;stroke-linejoin:miter;stroke-opacity:1;"/>
<path d="M 131.7,88.0 L 130.0,88.7 L 129.7,90.5" style="fill:none;stroke:#000000;stroke-width:2.0px;stroke-linecap:butt;stroke-linejoin:miter;stroke-opacity:1;"/>
<path d="M 90.9,136.3 L 89.2,136.9 L 87.8,135.7" style="fill:none;stroke:#000000;stroke-width:2.0px;stroke-linecap:butt;stroke-linejoin:miter;stroke-opacity:1;"/>
<path d="M 62.7,114.5 L 61.3,113.3 L 60.6,113.6" style="fill:none;stroke:#000000;stroke-width:2.0px;stroke-linecap:butt;stroke-linejoin:miter;stroke-opacity:1;"/>
<path d="M 150.0,147.0 L 151.4,148.2 L 153.1,147.5" style="fill:none;stroke:#000000;stroke-width:2.0px;stroke-linecap:butt;stroke-linejoin:miter;stroke-opacity:1;"/>
<path d="M 184.0,136.4 L 185.7,135.8 L 186.3,136.3" style="fill:none;stroke:#000000;stroke-width:2.0px;stroke-linecap:butt;stroke-linejoin:miter;stroke-opacity:1;"/>
<path class="atom-0" d="M 187.5 99.9 Q 187.5 97.5, 188.7 96.1 Q 189.9 94.7, 192.2 94.7 Q 194.5 94.7, 195.7 96.1 Q 197.0 97.5, 197.0 99.9 Q 197.0 102.5, 195.7 103.9 Q 194.5 105.3, 192.2 105.3 Q 189.9 105.3, 188.7 103.9 Q 187.5 102.5, 187.5 99.9 M 192.2 104.1 Q 193.8 104.1, 194.6 103.1 Q 195.5 102.0, 195.5 99.9 Q 195.5 97.9, 194.6 96.9 Q 193.8 95.9, 192.2 95.9 Q 190.6 95.9, 189.8 96.9 Q 188.9 97.9, 188.9 99.9 Q 188.9 102.0, 189.8 103.1 Q 190.6 104.1, 192.2 104.1 " fill="#FF0000"/>
<path class="atom-2" d="M 166.1 40.4 Q 166.1 38.0, 167.3 36.6 Q 168.6 35.2, 170.9 35.2 Q 173.2 35.2, 174.4 36.6 Q 175.6 38.0, 175.6 40.4 Q 175.6 43.0, 174.4 44.4 Q 173.1 45.8, 170.9 45.8 Q 168.6 45.8, 167.3 44.4 Q 166.1 43.0, 166.1 40.4 M 170.9 44.6 Q 172.4 44.6, 173.3 43.6 Q 174.1 42.5, 174.1 40.4 Q 174.1 38.4, 173.3 37.4 Q 172.4 36.4, 170.9 36.4 Q 169.3 36.4, 168.4 37.4 Q 167.6 38.4, 167.6 40.4 Q 167.6 42.5, 168.4 43.6 Q 169.3 44.6, 170.9 44.6 " fill="#FF0000"/>
<path class="atom-2" d="M 177.2 35.3 L 178.6 35.3 L 178.6 39.7 L 183.9 39.7 L 183.9 35.3 L 185.3 35.3 L 185.3 45.6 L 183.9 45.6 L 183.9 40.9 L 178.6 40.9 L 178.6 45.6 L 177.2 45.6 L 177.2 35.3 " fill="#FF0000"/>
<path class="atom-4" d="M 97.4 65.1 Q 97.4 62.6, 98.6 61.2 Q 99.9 59.8, 102.2 59.8 Q 104.4 59.8, 105.7 61.2 Q 106.9 62.6, 106.9 65.1 Q 106.9 67.6, 105.7 69.0 Q 104.4 70.5, 102.2 70.5 Q 99.9 70.5, 98.6 69.0 Q 97.4 67.6, 97.4 65.1 M 102.2 69.3 Q 103.7 69.3, 104.6 68.2 Q 105.4 67.2, 105.4 65.1 Q 105.4 63.1, 104.6 62.0 Q 103.7 61.0, 102.2 61.0 Q 100.6 61.0, 99.7 62.0 Q 98.9 63.1, 98.9 65.1 Q 98.9 67.2, 99.7 68.2 Q 100.6 69.3, 102.2 69.3 " fill="#FF0000"/>
<path class="atom-8" d="M 12.0 120.5 L 13.4 120.5 L 13.4 124.9 L 18.7 124.9 L 18.7 120.5 L 20.1 120.5 L 20.1 130.9 L 18.7 130.9 L 18.7 126.1 L 13.4 126.1 L 13.4 130.9 L 12.0 130.9 L 12.0 120.5 " fill="#FF0000"/>
<path class="atom-8" d="M 22.2 125.7 Q 22.2 123.2, 23.4 121.8 Q 24.7 120.4, 27.0 120.4 Q 29.2 120.4, 30.5 121.8 Q 31.7 123.2, 31.7 125.7 Q 31.7 128.2, 30.5 129.6 Q 29.2 131.0, 27.0 131.0 Q 24.7 131.0, 23.4 129.6 Q 22.2 128.2, 22.2 125.7 M 27.0 129.9 Q 28.5 129.9, 29.4 128.8 Q 30.2 127.7, 30.2 125.7 Q 30.2 123.6, 29.4 122.6 Q 28.5 121.6, 27.0 121.6 Q 25.4 121.6, 24.5 122.6 Q 23.7 123.6, 23.7 125.7 Q 23.7 127.8, 24.5 128.8 Q 25.4 129.9, 27.0 129.9 " fill="#FF0000"/>
<path class="atom-11" d="M 208.8 159.4 Q 208.8 157.0, 210.0 155.6 Q 211.3 154.2, 213.6 154.2 Q 215.9 154.2, 217.1 155.6 Q 218.3 157.0, 218.3 159.4 Q 218.3 162.0, 217.1 163.4 Q 215.8 164.8, 213.6 164.8 Q 211.3 164.8, 210.0 163.4 Q 208.8 162.0, 208.8 159.4 M 213.6 163.6 Q 215.1 163.6, 216.0 162.6 Q 216.8 161.5, 216.8 159.4 Q 216.8 157.4, 216.0 156.4 Q 215.1 155.4, 213.6 155.4 Q 212.0 155.4, 211.1 156.4 Q 210.3 157.4, 210.3 159.4 Q 210.3 161.5, 211.1 162.6 Q 212.0 163.6, 213.6 163.6 " fill="#FF0000"/>
<path class="atom-11" d="M 219.9 154.3 L 221.3 154.3 L 221.3 158.7 L 226.6 158.7 L 226.6 154.3 L 228.0 154.3 L 228.0 164.6 L 226.6 164.6 L 226.6 159.9 L 221.3 159.9 L 221.3 164.6 L 219.9 164.6 L 219.9 154.3 " fill="#FF0000"/>
</svg>
