<?xml version='1.0' encoding='ASCII' standalone='yes'?>
<svg xmlns="http://www.w3.org/2000/svg" xmlns:rdkit="http://www.rdkit.org/xml" xmlns:xlink="http://www.w3.org/1999/xlink" version="1.1" baseProfile="full" xml:space="preserve" width="320px" height="200px" viewBox="0 0 320 200">
<!-- END OF HEADER -->
<rect style="opacity:1.0;fill:#FFFFFF;stroke:none" width="320.0" height="200.0" x="0.0" y="0.0"> </rect>
<path class="bond-0 atom-0 atom-1" d="M 178.9,37.7 L 196.6,59.0" style="fill:none;fill-rule:evenodd;stroke:#000000;stroke-width:2.0px;stroke-linecap:butt;stroke-linejoin:miter;stroke-opacity:1"/>
<path class="bond-1 atom-1 atom-2" d="M 196.6,59.0 L 214.4,80.3" style="fill:none;fill-rule:evenodd;stroke:#000000;stroke-width:2.0px;stroke-linecap:butt;stroke-linejoin:miter;stroke-opacity:1"/>
<path class="bond-2 atom-1 atom-3" d="M 196.6,59.0 L 217.9,41.3" style="fill:none;fill-rule:evenodd;stroke:#000000;stroke-width:2.0px;stroke-linecap:butt;stroke-linejoin:miter;stroke-opacity:1"/>
<path class="bond-3 atom-3 atom-4" d="M 220.1,42.1 L 218.0,30.3" style="fill:none;fill-rule:evenodd;stroke:#000000;stroke-width:2.0px;stroke-linecap:butt;stroke-linejoin:miter;stroke-opacity:1"/>
<path class="bond-3 atom-3 atom-4" d="M 218.0,30.3 L 216.0,18.6" style="fill:none;fill-rule:evenodd;stroke:#FF0000;stroke-width:2.0px;stroke-linecap:butt;stroke-linejoin:miter;stroke-opacity:1"/>
<path class="bond-3 atom-3 atom-4" d="M 216.1,42.7 L 214.1,31.0" style="fill:none;fill-rule:evenodd;stroke:#000000;stroke-width:2.0px;stroke-linecap:butt;stroke-linejoin:miter;stroke-opacity:1"/>
<path class="bond-3 atom-3 atom-4" d="M 214.1,31.0 L 212.0,19.3" style="fill:none;fill-rule:evenodd;stroke:#FF0000;stroke-width:2.0px;stroke-linecap:butt;stroke-linejoin:miter;stroke-opacity:1"/>
<path class="bond-4 atom-3 atom-5" d="M 217.9,41.3 L 228.6,45.2" style="fill:none;fill-rule:evenodd;stroke:#000000;stroke-width:2.0px;stroke-linecap:butt;stroke-linejoin:miter;stroke-opacity:1"/>
<path class="bond-4 atom-3 atom-5" d="M 228.6,45.2 L 239.4,49.2" style="fill:none;fill-rule:evenodd;stroke:#FF0000;stroke-width:2.0px;stroke-linecap:butt;stroke-linejoin:miter;stroke-opacity:1"/>
<path class="bond-5 atom-1 atom-6" d="M 196.6,59.0 L 175.4,76.8" style="fill:none;fill-rule:evenodd;stroke:#000000;stroke-width:2.0px;stroke-linecap:butt;stroke-linejoin:miter;stroke-opacity:1"/>
<path class="bond-6 atom-6 atom-7" d="M 175.4,76.8 L 165.3,71.6" style="fill:none;fill-rule:evenodd;stroke:#000000;stroke-width:2.0px;stroke-linecap:butt;stroke-linejoin:miter;stroke-opacity:1"/>
<path class="bond-6 atom-6 atom-7" d="M 165.3,71.6 L 155.2,66.4" style="fill:none;fill-rule:evenodd;stroke:#FF0000;stroke-width:2.0px;stroke-linecap:butt;stroke-linejoin:miter;stroke-opacity:1"/>
<path class="bond-7 atom-6 atom-8" d="M 175.4,76.8 L 180.1,104.0" style="fill:none;fill-rule:evenodd;stroke:#000000;stroke-width:2.0px;stroke-linecap:butt;stroke-linejoin:miter;stroke-opacity:1"/>
<path class="bond-8 atom-8 atom-9" d="M 180.1,104.0 L 206.1,113.6" style="fill:none;fill-rule:evenodd;stroke:#000000;stroke-width:2.0px;stroke-linecap:butt;stroke-linejoin:miter;stroke-opacity:1"/>
<path class="bond-9 atom-9 atom-10" d="M 206.1,113.6 L 214.5,106.6" style="fill:none;fill-rule:evenodd;stroke:#000000;stroke-width:2.0px;stroke-linecap:butt;stroke-linejoin:miter;stroke-opacity:1"/>
<path class="bond-9 atom-9 atom-10" d="M 214.5,106.6 L 222.9,99.6" style="fill:none;fill-rule:evenodd;stroke:#FF0000;stroke-width:2.0px;stroke-linecap:butt;stroke-linejoin:miter;stroke-opacity:1"/>
<path class="bond-10 atom-9 atom-11" d="M 206.1,113.6 L 210.8,140.9" style="fill:none;fill-rule:evenodd;stroke:#000000;stroke-width:2.0px;stroke-linecap:butt;stroke-linejoin:miter;stroke-opacity:1"/>
<path class="bond-11 atom-11 atom-12" d="M 210.8,140.9 L 238.1,136.1" style="fill:none;fill-rule:evenodd;stroke:#000000;stroke-width:2.0px;stroke-linecap:butt;stroke-linejoin:miter;stroke-opacity:1"/>
<path class="bond-12 atom-11 atom-13" d="M 210.8,140.9 L 197.4,146.8" style="fill:none;fill-rule:evenodd;stroke:#000000;stroke-width:2.0px;stroke-linecap:butt;stroke-linejoin:miter;stroke-opacity:1"/>
<path class="bond-13 atom-11 atom-14" d="M 210.8,140.9 L 215.6,168.2" style="fill:none;fill-rule:evenodd;stroke:#000000;stroke-width:2.0px;stroke-linecap:butt;stroke-linejoin:miter;stroke-opacity:1"/>
<path class="bond-14 atom-14 atom-15" d="M 213.8,169.7 L 225.1,173.8" style="fill:none;fill-rule:evenodd;stroke:#000000;stroke-width:2.0px;stroke-linecap:butt;stroke-linejoin:miter;stroke-opacity:1"/>
<path class="bond-14 atom-14 atom-15" d="M 225.1,173.8 L 236.4,177.9" style="fill:none;fill-rule:evenodd;stroke:#FF0000;stroke-width:2.0px;stroke-linecap:butt;stroke-linejoin:miter;stroke-opacity:1"/>
<path class="bond-14 atom-14 atom-15" d="M 215.2,165.9 L 226.5,170.0" style="fill:none;fill-rule:evenodd;stroke:#000000;stroke-width:2.0px;stroke-linecap:butt;stroke-linejoin:miter;stroke-opacity:1"/>
<path class="bond-14 atom-14 atom-15" d="M 226.5,170.0 L 237.8,174.2" style="fill:none;fill-rule:evenodd;stroke:#FF0000;stroke-width:2.0px;stroke-linecap:butt;stroke-linejoin:miter;stroke-opacity:1"/>
<path class="bond-15 atom-14 atom-16" d="M 215.6,168.2 L 207.2,175.2" style="fill:none;fill-rule:evenodd;stroke:#000000;stroke-width:2.0px;stroke-linecap:butt;stroke-linejoin:miter;stroke-opacity:1"/>
<path class="bond-15 atom-14 atom-16" d="M 207.2,175.2 L 198.8,182.2" style="fill:none;fill-rule:evenodd;stroke:#FF0000;stroke-width:2.0px;stroke-linecap:butt;stroke-linejoin:miter;stroke-opacity:1"/>
<path class="bond-16 atom-8 atom-17" d="M 180.1,104.0 L 158.8,121.8" style="fill:none;fill-rule:evenodd;stroke:#000000;stroke-width:2.0px;stroke-linecap:butt;stroke-linejoin:miter;stroke-opacity:1"/>
<path class="bond-17 atom-17 atom-18" d="M 158.8,121.8 L 137.6,139.5" style="fill:none;fill-rule:evenodd;stroke:#000000;stroke-width:2.0px;stroke-linecap:butt;stroke-linejoin:miter;stroke-opacity:1"/>
<path class="bond-18 atom-17 atom-19" d="M 158.8,121.8 L 176.6,143.1" style="fill:none;fill-rule:evenodd;stroke:#000000;stroke-width:2.0px;stroke-linecap:butt;stroke-linejoin:miter;stroke-opacity:1"/>
<path class="bond-19 atom-19 atom-20" d="M 175.9,145.0 L 181.2,145.4" style="fill:none;fill-rule:evenodd;stroke:#000000;stroke-width:2.0px;stroke-linecap:butt;stroke-linejoin:miter;stroke-opacity:1"/>
<path class="bond-19 atom-19 atom-20" d="M 181.2,145.4 L 186.6,145.8" style="fill:none;fill-rule:evenodd;stroke:#FF0000;stroke-width:2.0px;stroke-linecap:butt;stroke-linejoin:miter;stroke-opacity:1"/>
<path class="bond-19 atom-19 atom-20" d="M 174.8,140.9 L 181.5,141.4" style="fill:none;fill-rule:evenodd;stroke:#000000;stroke-width:2.0px;stroke-linecap:butt;stroke-linejoin:miter;stroke-opacity:1"/>
<path class="bond-19 atom-19 atom-20" d="M 181.5,141.4 L 186.9,141.8" style="fill:none;fill-rule:evenodd;stroke:#FF0000;stroke-width:2.0px;stroke-linecap:butt;stroke-linejoin:miter;stroke-opacity:1"/>
<path class="bond-20 atom-19 atom-21" d="M 176.6,143.1 L 172.7,153.6" style="fill:none;fill-rule:evenodd;stroke:#000000;stroke-width:2.0px;stroke-linecap:butt;stroke-linejoin:miter;stroke-opacity:1"/>
<path class="bond-20 atom-19 atom-21" d="M 172.7,153.6 L 168.8,164.2" style="fill:none;fill-rule:evenodd;stroke:#FF0000;stroke-width:2.0px;stroke-linecap:butt;stroke-linejoin:miter;stroke-opacity:1"/>
<path class="bond-21 atom-17 atom-22" d="M 158.8,121.8 L 141.1,100.5" style="fill:none;fill-rule:evenodd;stroke:#000000;stroke-width:2.0px;stroke-linecap:butt;stroke-linejoin:miter;stroke-opacity:1"/>
<path class="bond-22 atom-22 atom-23" d="M 141.1,100.5 L 143.7,89.5" style="fill:none;fill-rule:evenodd;stroke:#000000;stroke-width:2.0px;stroke-linecap:butt;stroke-linejoin:miter;stroke-opacity:1"/>
<path class="bond-22 atom-22 atom-23" d="M 143.7,89.5 L 146.2,78.5" style="fill:none;fill-rule:evenodd;stroke:#FF0000;stroke-width:2.0px;stroke-linecap:butt;stroke-linejoin:miter;stroke-opacity:1"/>
<path class="bond-23 atom-22 atom-24" d="M 141.1,100.5 L 113.8,105.3" style="fill:none;fill-rule:evenodd;stroke:#000000;stroke-width:2.0px;stroke-linecap:butt;stroke-linejoin:miter;stroke-opacity:1"/>
<path class="bond-24 atom-24 atom-25" d="M 113.8,105.3 L 118.5,132.6" style="fill:none;fill-rule:evenodd;stroke:#000000;stroke-width:2.0px;stroke-linecap:butt;stroke-linejoin:miter;stroke-opacity:1"/>
<path class="bond-25 atom-24 atom-26" d="M 113.8,105.3 L 109.1,78.0" style="fill:none;fill-rule:evenodd;stroke:#000000;stroke-width:2.0px;stroke-linecap:butt;stroke-linejoin:miter;stroke-opacity:1"/>
<path class="bond-26 atom-24 atom-27" d="M 113.8,105.3 L 86.5,110.0" style="fill:none;fill-rule:evenodd;stroke:#000000;stroke-width:2.0px;stroke-linecap:butt;stroke-linejoin:miter;stroke-opacity:1"/>
<path class="bond-27 atom-27 atom-28" d="M 88.8,109.6 L 81.6,101.0" style="fill:none;fill-rule:evenodd;stroke:#000000;stroke-width:2.0px;stroke-linecap:butt;stroke-linejoin:miter;stroke-opacity:1"/>
<path class="bond-27 atom-27 atom-28" d="M 81.6,101.0 L 74.4,92.4" style="fill:none;fill-rule:evenodd;stroke:#FF0000;stroke-width:2.0px;stroke-linecap:butt;stroke-linejoin:miter;stroke-opacity:1"/>
<path class="bond-27 atom-27 atom-28" d="M 85.7,112.2 L 78.5,103.6" style="fill:none;fill-rule:evenodd;stroke:#000000;stroke-width:2.0px;stroke-linecap:butt;stroke-linejoin:miter;stroke-opacity:1"/>
<path class="bond-27 atom-27 atom-28" d="M 78.5,103.6 L 71.4,95.0" style="fill:none;fill-rule:evenodd;stroke:#FF0000;stroke-width:2.0px;stroke-linecap:butt;stroke-linejoin:miter;stroke-opacity:1"/>
<path class="bond-28 atom-27 atom-29" d="M 86.5,110.0 L 82.6,120.6" style="fill:none;fill-rule:evenodd;stroke:#000000;stroke-width:2.0px;stroke-linecap:butt;stroke-linejoin:miter;stroke-opacity:1"/>
<path class="bond-28 atom-27 atom-29" d="M 82.6,120.6 L 78.7,131.2" style="fill:none;fill-rule:evenodd;stroke:#FF0000;stroke-width:2.0px;stroke-linecap:butt;stroke-linejoin:miter;stroke-opacity:1"/>
<path d="M 216.8,42.1 L 217.9,41.3 L 218.4,41.5" style="fill:none;stroke:#000000;stroke-width:2.0px;stroke-linecap:butt;stroke-linejoin:miter;stroke-opacity:1;"/>
<path d="M 215.3,166.8 L 215.6,168.2 L 215.2,168.5" style="fill:none;stroke:#000000;stroke-width:2.0px;stroke-linecap:butt;stroke-linejoin:miter;stroke-opacity:1;"/>
<path d="M 175.7,142.0 L 176.6,143.1 L 176.4,143.6" style="fill:none;stroke:#000000;stroke-width:2.0px;stroke-linecap:butt;stroke-linejoin:miter;stroke-opacity:1;"/>
<path d="M 87.9,109.8 L 86.5,110.0 L 86.3,110.5" style="fill:none;stroke:#000000;stroke-width:2.0px;stroke-linecap:butt;stroke-linejoin:miter;stroke-opacity:1;"/>
<path class="atom-4" d="M 209.5 14.0 Q 209.5 12.1, 210.5 11.1 Q 211.4 10.0, 213.1 10.0 Q 214.9 10.0, 215.8 11.1 Q 216.7 12.1, 216.7 14.0 Q 216.7 15.9, 215.8 17.0 Q 214.9 18.1, 213.1 18.1 Q 211.4 18.1, 210.5 17.0 Q 209.5 15.9, 209.5 14.0 M 213.1 17.2 Q 214.3 17.2, 215.0 16.4 Q 215.6 15.6, 215.6 14.0 Q 215.6 12.4, 215.0 11.7 Q 214.3 10.9, 213.1 10.9 Q 211.9 10.9, 211.3 11.7 Q 210.7 12.4, 210.7 14.0 Q 210.7 15.6, 211.3 16.4 Q 211.9 17.2, 213.1 17.2 " fill="#FF0000"/>
<path class="atom-5" d="M 240.3 50.8 Q 240.3 48.9, 241.2 47.9 Q 242.1 46.8, 243.9 46.8 Q 245.6 46.8, 246.6 47.9 Q 247.5 48.9, 247.5 50.8 Q 247.5 52.7, 246.5 53.8 Q 245.6 54.9, 243.9 54.9 Q 242.2 54.9, 241.2 53.8 Q 240.3 52.7, 240.3 50.8 M 243.9 54.0 Q 245.1 54.0, 245.7 53.2 Q 246.4 52.4, 246.4 50.8 Q 246.4 49.3, 245.7 48.5 Q 245.1 47.7, 243.9 47.7 Q 242.7 47.7, 242.0 48.5 Q 241.4 49.3, 241.4 50.8 Q 241.4 52.4, 242.0 53.2 Q 242.7 54.0, 243.9 54.0 " fill="#FF0000"/>
<path class="atom-5" d="M 248.7 46.9 L 249.8 46.9 L 249.8 50.3 L 253.8 50.3 L 253.8 46.9 L 254.8 46.9 L 254.8 54.8 L 253.8 54.8 L 253.8 51.1 L 249.8 51.1 L 249.8 54.8 L 248.7 54.8 L 248.7 46.9 " fill="#FF0000"/>
<path class="atom-7" d="M 139.4 60.2 L 140.4 60.2 L 140.4 63.6 L 144.4 63.6 L 144.4 60.2 L 145.5 60.2 L 145.5 68.1 L 144.4 68.1 L 144.4 64.5 L 140.4 64.5 L 140.4 68.1 L 139.4 68.1 L 139.4 60.2 " fill="#FF0000"/>
<path class="atom-7" d="M 147.1 64.1 Q 147.1 62.3, 148.0 61.2 Q 149.0 60.1, 150.7 60.1 Q 152.4 60.1, 153.4 61.2 Q 154.3 62.3, 154.3 64.1 Q 154.3 66.0, 153.4 67.1 Q 152.4 68.2, 150.7 68.2 Q 149.0 68.2, 148.0 67.1 Q 147.1 66.1, 147.1 64.1 M 150.7 67.3 Q 151.9 67.3, 152.5 66.5 Q 153.2 65.7, 153.2 64.1 Q 153.2 62.6, 152.5 61.8 Q 151.9 61.0, 150.7 61.0 Q 149.5 61.0, 148.9 61.8 Q 148.2 62.6, 148.2 64.1 Q 148.2 65.7, 148.9 66.5 Q 149.5 67.3, 150.7 67.3 " fill="#FF0000"/>
<path class="atom-10" d="M 223.8 95.9 Q 223.8 94.0, 224.7 92.9 Q 225.6 91.9, 227.4 91.9 Q 229.1 91.9, 230.0 92.9 Q 231.0 94.0, 231.0 95.9 Q 231.0 97.8, 230.0 98.8 Q 229.1 99.9, 227.4 99.9 Q 225.6 99.9, 224.7 98.8 Q 223.8 97.8, 223.8 95.9 M 227.4 99.0 Q 228.6 99.0, 229.2 98.2 Q 229.9 97.4, 229.9 95.9 Q 229.9 94.3, 229.2 93.5 Q 228.6 92.8, 227.4 92.8 Q 226.2 92.8, 225.5 93.5 Q 224.9 94.3, 224.9 95.9 Q 224.9 97.4, 225.5 98.2 Q 226.2 99.0, 227.4 99.0 " fill="#FF0000"/>
<path class="atom-10" d="M 232.2 92.0 L 233.2 92.0 L 233.2 95.3 L 237.3 95.3 L 237.3 92.0 L 238.3 92.0 L 238.3 99.8 L 237.3 99.8 L 237.3 96.2 L 233.2 96.2 L 233.2 99.8 L 232.2 99.8 L 232.2 92.0 " fill="#FF0000"/>
<path class="atom-15" d="M 238.0 177.7 Q 238.0 175.8, 238.9 174.8 Q 239.8 173.7, 241.6 173.7 Q 243.3 173.7, 244.2 174.8 Q 245.2 175.8, 245.2 177.7 Q 245.2 179.6, 244.2 180.7 Q 243.3 181.8, 241.6 181.8 Q 239.9 181.8, 238.9 180.7 Q 238.0 179.6, 238.0 177.7 M 241.6 180.9 Q 242.8 180.9, 243.4 180.1 Q 244.1 179.3, 244.1 177.7 Q 244.1 176.2, 243.4 175.4 Q 242.8 174.6, 241.6 174.6 Q 240.4 174.6, 239.7 175.4 Q 239.1 176.2, 239.1 177.7 Q 239.1 179.3, 239.7 180.1 Q 240.4 180.9, 241.6 180.9 " fill="#FF0000"/>
<path class="atom-16" d="M 183.0 182.0 L 184.0 182.0 L 184.0 185.4 L 188.0 185.4 L 188.0 182.0 L 189.1 182.0 L 189.1 189.9 L 188.0 189.9 L 188.0 186.3 L 184.0 186.3 L 184.0 189.9 L 183.0 189.9 L 183.0 182.0 " fill="#FF0000"/>
<path class="atom-16" d="M 190.7 185.9 Q 190.7 184.1, 191.6 183.0 Q 192.6 181.9, 194.3 181.9 Q 196.1 181.9, 197.0 183.0 Q 197.9 184.1, 197.9 185.9 Q 197.9 187.8, 197.0 188.9 Q 196.0 190.0, 194.3 190.0 Q 192.6 190.0, 191.6 188.9 Q 190.7 187.9, 190.7 185.9 M 194.3 189.1 Q 195.5 189.1, 196.2 188.3 Q 196.8 187.5, 196.8 185.9 Q 196.8 184.4, 196.2 183.6 Q 195.5 182.8, 194.3 182.8 Q 193.1 182.8, 192.5 183.6 Q 191.8 184.4, 191.8 185.9 Q 191.8 187.5, 192.5 188.3 Q 193.1 189.1, 194.3 189.1 " fill="#FF0000"/>
<path class="atom-20" d="M 187.7 144.1 Q 187.7 142.3, 188.6 141.2 Q 189.5 140.2, 191.3 140.2 Q 193.0 140.2, 193.9 141.2 Q 194.9 142.3, 194.9 144.1 Q 194.9 146.0, 193.9 147.1 Q 193.0 148.2, 191.3 148.2 Q 189.5 148.2, 188.6 147.1 Q 187.7 146.1, 187.7 144.1 M 191.3 147.3 Q 192.5 147.3, 193.1 146.5 Q 193.8 145.7, 193.8 144.1 Q 193.8 142.6, 193.1 141.8 Q 192.5 141.0, 191.3 141.0 Q 190.1 141.0, 189.4 141.8 Q 188.8 142.6, 188.8 144.1 Q 188.8 145.7, 189.4 146.5 Q 190.1 147.3, 191.3 147.3 " fill="#FF0000"/>
<path class="atom-21" d="M 155.7 165.2 L 156.8 165.2 L 156.8 168.5 L 160.8 168.5 L 160.8 165.2 L 161.8 165.2 L 161.8 173.0 L 160.8 173.0 L 160.8 169.4 L 156.8 169.4 L 156.8 173.0 L 155.7 173.0 L 155.7 165.2 " fill="#FF0000"/>
<path class="atom-21" d="M 163.4 169.1 Q 163.4 167.2, 164.4 166.1 Q 165.3 165.1, 167.0 165.1 Q 168.8 165.1, 169.7 166.1 Q 170.6 167.2, 170.6 169.1 Q 170.6 171.0, 169.7 172.1 Q 168.8 173.1, 167.0 173.1 Q 165.3 173.1, 164.4 172.1 Q 163.4 171.0, 163.4 169.1 M 167.0 172.3 Q 168.2 172.3, 168.9 171.5 Q 169.5 170.7, 169.5 169.1 Q 169.5 167.5, 168.9 166.8 Q 168.2 166.0, 167.0 166.0 Q 165.8 166.0, 165.2 166.8 Q 164.5 167.5, 164.5 169.1 Q 164.5 170.7, 165.2 171.5 Q 165.8 172.3, 167.0 172.3 " fill="#FF0000"/>
<path class="atom-23" d="M 143.8 73.6 Q 143.8 71.7, 144.7 70.6 Q 145.6 69.6, 147.4 69.6 Q 149.1 69.6, 150.1 70.6 Q 151.0 71.7, 151.0 73.6 Q 151.0 75.5, 150.0 76.6 Q 149.1 77.6, 147.4 77.6 Q 145.7 77.6, 144.7 76.6 Q 143.8 75.5, 143.8 73.6 M 147.4 76.8 Q 148.6 76.8, 149.2 76.0 Q 149.9 75.2, 149.9 73.6 Q 149.9 72.0, 149.2 71.3 Q 148.6 70.5, 147.4 70.5 Q 146.2 70.5, 145.5 71.3 Q 144.9 72.0, 144.9 73.6 Q 144.9 75.2, 145.5 76.0 Q 146.2 76.8, 147.4 76.8 " fill="#FF0000"/>
<path class="atom-23" d="M 152.2 69.7 L 153.3 69.7 L 153.3 73.0 L 157.3 73.0 L 157.3 69.7 L 158.3 69.7 L 158.3 77.5 L 157.3 77.5 L 157.3 73.9 L 153.3 73.9 L 153.3 77.5 L 152.2 77.5 L 152.2 69.7 " fill="#FF0000"/>
<path class="atom-28" d="M 65.2 88.8 Q 65.2 86.9, 66.1 85.8 Q 67.0 84.8, 68.8 84.8 Q 70.5 84.8, 71.4 85.8 Q 72.4 86.9, 72.4 88.8 Q 72.4 90.7, 71.4 91.8 Q 70.5 92.8, 68.8 92.8 Q 67.0 92.8, 66.1 91.8 Q 65.2 90.7, 65.2 88.8 M 68.8 91.9 Q 70.0 91.9, 70.6 91.1 Q 71.2 90.3, 71.2 88.8 Q 71.2 87.2, 70.6 86.4 Q 70.0 85.7, 68.8 85.7 Q 67.6 85.7, 66.9 86.4 Q 66.3 87.2, 66.3 88.8 Q 66.3 90.3, 66.9 91.1 Q 67.6 91.9, 68.8 91.9 " fill="#FF0000"/>
<path class="atom-29" d="M 65.6 132.1 L 66.7 132.1 L 66.7 135.5 L 70.7 135.5 L 70.7 132.1 L 71.8 132.1 L 71.8 140.0 L 70.7 140.0 L 70.7 136.4 L 66.7 136.4 L 66.7 140.0 L 65.6 140.0 L 65.6 132.1 " fill="#FF0000"/>
<path class="atom-29" d="M 73.4 136.0 Q 73.4 134.1, 74.3 133.1 Q 75.2 132.0, 77.0 132.0 Q 78.7 132.0, 79.6 133.1 Q 80.6 134.1, 80.6 136.0 Q 80.6 137.9, 79.6 139.0 Q 78.7 140.1, 77.0 140.1 Q 75.2 140.1, 74.3 139.0 Q 73.4 137.9, 73.4 136.0 M 77.0 139.2 Q 78.2 139.2, 78.8 138.4 Q 79.5 137.6, 79.5 136.0 Q 79.5 134.5, 78.8 133.7 Q 78.2 132.9, 77.0 132.9 Q 75.8 132.9, 75.1 133.7 Q 74.5 134.5, 74.5 136.0 Q 74.5 137.6, 75.1 138.4 Q 75.8 139.2, 77.0 139.2 " fill="#FF0000"/>
</svg>
