<?xml version='1.0' encoding='ASCII' standalone='yes'?>
<svg xmlns="http://www.w3.org/2000/svg" xmlns:rdkit="http://www.rdkit.org/xml" xmlns:xlink="http://www.w3.org/1999/xlink" version="1.1" baseProfile="full" xml:space="preserve" width="260px" height="200px" viewBox="0 0 260 200">
<!-- END OF HEADER -->
<rect style="opacity:1.0;fill:#FFFFFF;stroke:none" width="260.0" height="200.0" x="0.0" y="0.0"> </rect>
<path class="bond-0 atom-0 atom-1" d="M 13.0,77.8 L 41.8,90.9" style="fill:none;fill-rule:evenodd;stroke:#000000;stroke-width:2.0px;stroke-linecap:butt;stroke-linejoin:miter;stroke-opacity:1"/>
<path class="bond-1 atom-1 atom-2" d="M 41.8,90.9 L 28.7,119.7" style="fill:none;fill-rule:evenodd;stroke:#000000;stroke-width:2.0px;stroke-linecap:butt;stroke-linejoin:miter;stroke-opacity:1"/>
<path class="bond-2 atom-2 atom-3" d="M 28.7,119.7 L 35.9,129.9" style="fill:none;fill-rule:evenodd;stroke:#000000;stroke-width:2.0px;stroke-linecap:butt;stroke-linejoin:miter;stroke-opacity:1"/>
<path class="bond-2 atom-2 atom-3" d="M 35.9,129.9 L 43.1,140.0" style="fill:none;fill-rule:evenodd;stroke:#FF0000;stroke-width:2.0px;stroke-linecap:butt;stroke-linejoin:miter;stroke-opacity:1"/>
<path class="bond-3 atom-1 atom-4" d="M 41.8,90.9 L 70.6,104.1" style="fill:none;fill-rule:evenodd;stroke:#000000;stroke-width:2.0px;stroke-linecap:butt;stroke-linejoin:miter;stroke-opacity:1"/>
<path class="bond-4 atom-4 atom-5" d="M 70.6,104.1 L 96.4,85.7" style="fill:none;fill-rule:evenodd;stroke:#000000;stroke-width:2.0px;stroke-linecap:butt;stroke-linejoin:miter;stroke-opacity:1"/>
<path class="bond-5 atom-5 atom-6" d="M 96.4,85.7 L 125.2,98.8" style="fill:none;fill-rule:evenodd;stroke:#000000;stroke-width:2.0px;stroke-linecap:butt;stroke-linejoin:miter;stroke-opacity:1"/>
<path class="bond-6 atom-6 atom-7" d="M 125.2,98.8 L 126.5,111.8" style="fill:none;fill-rule:evenodd;stroke:#000000;stroke-width:2.0px;stroke-linecap:butt;stroke-linejoin:miter;stroke-opacity:1"/>
<path class="bond-6 atom-6 atom-7" d="M 126.5,111.8 L 127.7,124.8" style="fill:none;fill-rule:evenodd;stroke:#FF0000;stroke-width:2.0px;stroke-linecap:butt;stroke-linejoin:miter;stroke-opacity:1"/>
<path class="bond-7 atom-6 atom-8" d="M 125.2,98.8 L 151.0,80.4" style="fill:none;fill-rule:evenodd;stroke:#000000;stroke-width:2.0px;stroke-linecap:butt;stroke-linejoin:miter;stroke-opacity:1"/>
<path class="bond-8 atom-8 atom-9" d="M 151.0,80.4 L 179.9,93.6" style="fill:none;fill-rule:evenodd;stroke:#000000;stroke-width:2.0px;stroke-linecap:butt;stroke-linejoin:miter;stroke-opacity:1"/>
<path class="bond-9 atom-9 atom-10" d="M 179.9,93.6 L 205.6,75.2" style="fill:none;fill-rule:evenodd;stroke:#000000;stroke-width:2.0px;stroke-linecap:butt;stroke-linejoin:miter;stroke-opacity:1"/>
<path class="bond-10 atom-10 atom-11" d="M 205.6,75.2 L 217.5,80.6" style="fill:none;fill-rule:evenodd;stroke:#000000;stroke-width:2.0px;stroke-linecap:butt;stroke-linejoin:miter;stroke-opacity:1"/>
<path class="bond-10 atom-10 atom-11" d="M 217.5,80.6 L 229.3,86.0" style="fill:none;fill-rule:evenodd;stroke:#FF0000;stroke-width:2.0px;stroke-linecap:butt;stroke-linejoin:miter;stroke-opacity:1"/>
<path class="bond-11 atom-1 atom-12" d="M 41.8,90.9 L 55.0,62.1" style="fill:none;fill-rule:evenodd;stroke:#000000;stroke-width:2.0px;stroke-linecap:butt;stroke-linejoin:miter;stroke-opacity:1"/>
<path class="bond-12 atom-12 atom-13" d="M 57.7,61.8 L 50.1,51.3" style="fill:none;fill-rule:evenodd;stroke:#000000;stroke-width:2.0px;stroke-linecap:butt;stroke-linejoin:miter;stroke-opacity:1"/>
<path class="bond-12 atom-12 atom-13" d="M 50.1,51.3 L 42.6,40.7" style="fill:none;fill-rule:evenodd;stroke:#FF0000;stroke-width:2.0px;stroke-linecap:butt;stroke-linejoin:miter;stroke-opacity:1"/>
<path class="bond-12 atom-12 atom-13" d="M 53.8,64.6 L 46.3,54.0" style="fill:none;fill-rule:evenodd;stroke:#000000;stroke-width:2.0px;stroke-linecap:butt;stroke-linejoin:miter;stroke-opacity:1"/>
<path class="bond-12 atom-12 atom-13" d="M 46.3,54.0 L 38.7,43.4" style="fill:none;fill-rule:evenodd;stroke:#FF0000;stroke-width:2.0px;stroke-linecap:butt;stroke-linejoin:miter;stroke-opacity:1"/>
<path class="bond-13 atom-12 atom-14" d="M 55.0,62.1 L 68.1,60.8" style="fill:none;fill-rule:evenodd;stroke:#000000;stroke-width:2.0px;stroke-linecap:butt;stroke-linejoin:miter;stroke-opacity:1"/>
<path class="bond-13 atom-12 atom-14" d="M 68.1,60.8 L 81.3,59.6" style="fill:none;fill-rule:evenodd;stroke:#FF0000;stroke-width:2.0px;stroke-linecap:butt;stroke-linejoin:miter;stroke-opacity:1"/>
<path d="M 29.3,118.3 L 28.7,119.7 L 29.0,120.3" style="fill:none;stroke:#000000;stroke-width:2.0px;stroke-linecap:butt;stroke-linejoin:miter;stroke-opacity:1;"/>
<path d="M 69.2,103.4 L 70.6,104.1 L 71.9,103.2" style="fill:none;stroke:#000000;stroke-width:2.0px;stroke-linecap:butt;stroke-linejoin:miter;stroke-opacity:1;"/>
<path d="M 95.1,86.6 L 96.4,85.7 L 97.9,86.3" style="fill:none;stroke:#000000;stroke-width:2.0px;stroke-linecap:butt;stroke-linejoin:miter;stroke-opacity:1;"/>
<path d="M 149.7,81.4 L 151.0,80.4 L 152.5,81.1" style="fill:none;stroke:#000000;stroke-width:2.0px;stroke-linecap:butt;stroke-linejoin:miter;stroke-opacity:1;"/>
<path d="M 178.4,92.9 L 179.9,93.6 L 181.1,92.7" style="fill:none;stroke:#000000;stroke-width:2.0px;stroke-linecap:butt;stroke-linejoin:miter;stroke-opacity:1;"/>
<path d="M 204.4,76.1 L 205.6,75.2 L 206.2,75.5" style="fill:none;stroke:#000000;stroke-width:2.0px;stroke-linecap:butt;stroke-linejoin:miter;stroke-opacity:1;"/>
<path d="M 54.3,63.6 L 55.0,62.1 L 55.6,62.0" style="fill:none;stroke:#000000;stroke-width:2.0px;stroke-linecap:butt;stroke-linejoin:miter;stroke-opacity:1;"/>
<path class="atom-3" d="M 42.9 145.6 Q 42.9 143.4, 44.0 142.2 Q 45.1 141.0, 47.1 141.0 Q 49.1 141.0, 50.1 142.2 Q 51.2 143.4, 51.2 145.6 Q 51.2 147.7, 50.1 149.0 Q 49.0 150.2, 47.1 150.2 Q 45.1 150.2, 44.0 149.0 Q 42.9 147.8, 42.9 145.6 M 47.1 149.2 Q 48.4 149.2, 49.2 148.3 Q 49.9 147.4, 49.9 145.6 Q 49.9 143.8, 49.2 142.9 Q 48.4 142.0, 47.1 142.0 Q 45.7 142.0, 45.0 142.9 Q 44.2 143.8, 44.2 145.6 Q 44.2 147.4, 45.0 148.3 Q 45.7 149.2, 47.1 149.2 " fill="#FF0000"/>
<path class="atom-3" d="M 52.6 141.1 L 53.8 141.1 L 53.8 144.9 L 58.4 144.9 L 58.4 141.1 L 59.6 141.1 L 59.6 150.1 L 58.4 150.1 L 58.4 145.9 L 53.8 145.9 L 53.8 150.1 L 52.6 150.1 L 52.6 141.1 " fill="#FF0000"/>
<path class="atom-7" d="M 124.2 130.4 Q 124.2 128.2, 125.2 127.0 Q 126.3 125.8, 128.3 125.8 Q 130.3 125.8, 131.3 127.0 Q 132.4 128.2, 132.4 130.4 Q 132.4 132.6, 131.3 133.8 Q 130.2 135.0, 128.3 135.0 Q 126.3 135.0, 125.2 133.8 Q 124.2 132.6, 124.2 130.4 M 128.3 134.0 Q 129.6 134.0, 130.4 133.1 Q 131.1 132.2, 131.1 130.4 Q 131.1 128.6, 130.4 127.7 Q 129.6 126.8, 128.3 126.8 Q 126.9 126.8, 126.2 127.7 Q 125.4 128.6, 125.4 130.4 Q 125.4 132.2, 126.2 133.1 Q 126.9 134.0, 128.3 134.0 " fill="#FF0000"/>
<path class="atom-7" d="M 133.8 125.9 L 135.0 125.9 L 135.0 129.7 L 139.6 129.7 L 139.6 125.9 L 140.8 125.9 L 140.8 134.9 L 139.6 134.9 L 139.6 130.7 L 135.0 130.7 L 135.0 134.9 L 133.8 134.9 L 133.8 125.9 " fill="#FF0000"/>
<path class="atom-11" d="M 230.3 88.4 Q 230.3 86.2, 231.4 85.0 Q 232.5 83.8, 234.5 83.8 Q 236.5 83.8, 237.5 85.0 Q 238.6 86.2, 238.6 88.4 Q 238.6 90.5, 237.5 91.8 Q 236.4 93.0, 234.5 93.0 Q 232.5 93.0, 231.4 91.8 Q 230.3 90.5, 230.3 88.4 M 234.5 92.0 Q 235.8 92.0, 236.6 91.1 Q 237.3 90.2, 237.3 88.4 Q 237.3 86.6, 236.6 85.7 Q 235.8 84.8, 234.5 84.8 Q 233.1 84.8, 232.4 85.7 Q 231.6 86.6, 231.6 88.4 Q 231.6 90.2, 232.4 91.1 Q 233.1 92.0, 234.5 92.0 " fill="#FF0000"/>
<path class="atom-11" d="M 240.0 83.9 L 241.2 83.9 L 241.2 87.7 L 245.8 87.7 L 245.8 83.9 L 247.0 83.9 L 247.0 92.9 L 245.8 92.9 L 245.8 88.7 L 241.2 88.7 L 241.2 92.9 L 240.0 92.9 L 240.0 83.9 " fill="#FF0000"/>
<path class="atom-13" d="M 32.5 36.3 Q 32.5 34.2, 33.5 33.0 Q 34.6 31.8, 36.6 31.8 Q 38.6 31.8, 39.6 33.0 Q 40.7 34.2, 40.7 36.3 Q 40.7 38.5, 39.6 39.8 Q 38.5 41.0, 36.6 41.0 Q 34.6 41.0, 33.5 39.8 Q 32.5 38.5, 32.5 36.3 M 36.6 40.0 Q 37.9 40.0, 38.7 39.1 Q 39.4 38.1, 39.4 36.3 Q 39.4 34.6, 38.7 33.7 Q 37.9 32.8, 36.6 32.8 Q 35.2 32.8, 34.5 33.7 Q 33.7 34.6, 33.7 36.3 Q 33.7 38.2, 34.5 39.1 Q 35.2 40.0, 36.6 40.0 " fill="#FF0000"/>
<path class="atom-14" d="M 82.4 59.1 Q 82.4 57.0, 83.4 55.7 Q 84.5 54.5, 86.5 54.5 Q 88.5 54.5, 89.5 55.7 Q 90.6 57.0, 90.6 59.1 Q 90.6 61.3, 89.5 62.5 Q 88.5 63.8, 86.5 63.8 Q 84.5 63.8, 83.4 62.5 Q 82.4 61.3, 82.4 59.1 M 86.5 62.7 Q 87.9 62.7, 88.6 61.8 Q 89.3 60.9, 89.3 59.1 Q 89.3 57.3, 88.6 56.5 Q 87.9 55.6, 86.5 55.6 Q 85.1 55.6, 84.4 56.4 Q 83.6 57.3, 83.6 59.1 Q 83.6 60.9, 84.4 61.8 Q 85.1 62.7, 86.5 62.7 " fill="#FF0000"/>
<path class="atom-14" d="M 92.0 54.6 L 93.2 54.6 L 93.2 58.5 L 97.8 58.5 L 97.8 54.6 L 99.0 54.6 L 99.0 63.6 L 97.8 63.6 L 97.8 59.5 L 93.2 59.5 L 93.2 63.6 L 92.0 63.6 L 92.0 54.6 " fill="#FF0000"/>
<path class="legend" d="M 121.5 181.9 Q 121.5 179.6, 122.2 177.7 Q 122.8 175.8, 124.1 173.8 L 125.0 174.4 Q 124.0 176.3, 123.4 178.0 Q 122.9 179.7, 122.9 181.9 Q 122.9 184.0, 123.4 185.8 Q 124.0 187.5, 125.0 189.4 L 124.1 190.0 Q 122.8 188.0, 122.2 186.1 Q 121.5 184.2, 121.5 181.9 " fill="#000000"/>
<path class="legend" d="M 125.9 177.3 Q 126.4 176.2, 127.3 175.6 Q 128.3 175.0, 129.7 175.0 Q 131.4 175.0, 132.4 175.9 Q 133.3 176.8, 133.3 178.5 Q 133.3 180.2, 132.1 181.7 Q 130.9 183.3, 128.3 185.2 L 133.5 185.2 L 133.5 186.4 L 125.9 186.4 L 125.9 185.4 Q 128.0 183.9, 129.3 182.8 Q 130.5 181.6, 131.1 180.6 Q 131.7 179.6, 131.7 178.6 Q 131.7 177.5, 131.2 176.9 Q 130.7 176.3, 129.7 176.3 Q 128.8 176.3, 128.2 176.6 Q 127.6 177.0, 127.2 177.8 L 125.9 177.3 " fill="#000000"/>
<path class="legend" d="M 138.5 181.9 Q 138.5 184.2, 137.8 186.1 Q 137.2 188.0, 135.9 190.0 L 135.0 189.4 Q 136.0 187.5, 136.5 185.8 Q 137.1 184.0, 137.1 181.9 Q 137.1 179.7, 136.5 178.0 Q 136.0 176.3, 135.0 174.4 L 135.9 173.8 Q 137.2 175.8, 137.8 177.7 Q 138.5 179.6, 138.5 181.9 " fill="#000000"/>
</svg>
