<?xml version='1.0' encoding='ASCII' standalone='yes'?>
<svg xmlns="http://www.w3.org/2000/svg" xmlns:rdkit="http://www.rdkit.org/xml" xmlns:xlink="http://www.w3.org/1999/xlink" version="1.1" baseProfile="full" xml:space="preserve" width="317px" height="200px" viewBox="0 0 317 200">
<!-- END OF HEADER -->
<rect style="opacity:1.0;fill:#FFFFFF;stroke:none" width="317.0" height="200.0" x="0.0" y="0.0"> </rect>
<path class="bond-0 atom-0 atom-1" d="M 16.3,106.6 L 46.7,106.2" style="fill:none;fill-rule:evenodd;stroke:#000000;stroke-width:2.0px;stroke-linecap:butt;stroke-linejoin:miter;stroke-opacity:1"/>
<path class="bond-1 atom-1 atom-2" d="M 46.7,106.2 L 47.1,136.6" style="fill:none;fill-rule:evenodd;stroke:#000000;stroke-width:2.0px;stroke-linecap:butt;stroke-linejoin:miter;stroke-opacity:1"/>
<path class="bond-2 atom-2 atom-3" d="M 47.1,136.6 L 57.9,142.7" style="fill:none;fill-rule:evenodd;stroke:#000000;stroke-width:2.0px;stroke-linecap:butt;stroke-linejoin:miter;stroke-opacity:1"/>
<path class="bond-2 atom-2 atom-3" d="M 57.9,142.7 L 68.8,148.7" style="fill:none;fill-rule:evenodd;stroke:#FF0000;stroke-width:2.0px;stroke-linecap:butt;stroke-linejoin:miter;stroke-opacity:1"/>
<path class="bond-3 atom-1 atom-4" d="M 46.7,106.2 L 77.2,105.8" style="fill:none;fill-rule:evenodd;stroke:#000000;stroke-width:2.0px;stroke-linecap:butt;stroke-linejoin:miter;stroke-opacity:1"/>
<path class="bond-4 atom-4 atom-5" d="M 77.2,105.8 L 92.1,79.2" style="fill:none;fill-rule:evenodd;stroke:#000000;stroke-width:2.0px;stroke-linecap:butt;stroke-linejoin:miter;stroke-opacity:1"/>
<path class="bond-5 atom-5 atom-6" d="M 92.1,79.2 L 88.8,71.8" style="fill:none;fill-rule:evenodd;stroke:#000000;stroke-width:2.0px;stroke-linecap:butt;stroke-linejoin:miter;stroke-opacity:1"/>
<path class="bond-5 atom-5 atom-6" d="M 88.8,71.8 L 85.5,64.4" style="fill:none;fill-rule:evenodd;stroke:#FF0000;stroke-width:2.0px;stroke-linecap:butt;stroke-linejoin:miter;stroke-opacity:1"/>
<path class="bond-6 atom-5 atom-7" d="M 92.1,79.2 L 122.5,78.8" style="fill:none;fill-rule:evenodd;stroke:#000000;stroke-width:2.0px;stroke-linecap:butt;stroke-linejoin:miter;stroke-opacity:1"/>
<path class="bond-7 atom-7 atom-8" d="M 122.5,78.8 L 138.1,105.0" style="fill:none;fill-rule:evenodd;stroke:#000000;stroke-width:2.0px;stroke-linecap:butt;stroke-linejoin:miter;stroke-opacity:1"/>
<path class="bond-8 atom-8 atom-9" d="M 138.1,105.0 L 153.6,131.2" style="fill:none;fill-rule:evenodd;stroke:#000000;stroke-width:2.0px;stroke-linecap:butt;stroke-linejoin:miter;stroke-opacity:1"/>
<path class="bond-9 atom-8 atom-10" d="M 138.1,105.0 L 111.9,120.6" style="fill:none;fill-rule:evenodd;stroke:#000000;stroke-width:2.0px;stroke-linecap:butt;stroke-linejoin:miter;stroke-opacity:1"/>
<path class="bond-10 atom-10 atom-11" d="M 109.7,120.0 L 109.8,132.8" style="fill:none;fill-rule:evenodd;stroke:#000000;stroke-width:2.0px;stroke-linecap:butt;stroke-linejoin:miter;stroke-opacity:1"/>
<path class="bond-10 atom-10 atom-11" d="M 109.8,132.8 L 110.0,145.7" style="fill:none;fill-rule:evenodd;stroke:#FF0000;stroke-width:2.0px;stroke-linecap:butt;stroke-linejoin:miter;stroke-opacity:1"/>
<path class="bond-10 atom-10 atom-11" d="M 114.1,119.3 L 114.3,132.8" style="fill:none;fill-rule:evenodd;stroke:#000000;stroke-width:2.0px;stroke-linecap:butt;stroke-linejoin:miter;stroke-opacity:1"/>
<path class="bond-10 atom-10 atom-11" d="M 114.3,132.8 L 114.4,145.6" style="fill:none;fill-rule:evenodd;stroke:#FF0000;stroke-width:2.0px;stroke-linecap:butt;stroke-linejoin:miter;stroke-opacity:1"/>
<path class="bond-11 atom-10 atom-12" d="M 111.9,120.6 L 104.7,118.6" style="fill:none;fill-rule:evenodd;stroke:#000000;stroke-width:2.0px;stroke-linecap:butt;stroke-linejoin:miter;stroke-opacity:1"/>
<path class="bond-11 atom-10 atom-12" d="M 104.7,118.6 L 97.6,116.7" style="fill:none;fill-rule:evenodd;stroke:#FF0000;stroke-width:2.0px;stroke-linecap:butt;stroke-linejoin:miter;stroke-opacity:1"/>
<path class="bond-12 atom-8 atom-13" d="M 138.1,105.0 L 164.2,89.5" style="fill:none;fill-rule:evenodd;stroke:#000000;stroke-width:2.0px;stroke-linecap:butt;stroke-linejoin:miter;stroke-opacity:1"/>
<path class="bond-13 atom-13 atom-14" d="M 164.2,89.5 L 163.8,59.0" style="fill:none;fill-rule:evenodd;stroke:#000000;stroke-width:2.0px;stroke-linecap:butt;stroke-linejoin:miter;stroke-opacity:1"/>
<path class="bond-14 atom-14 atom-15" d="M 163.8,59.0 L 174.4,52.7" style="fill:none;fill-rule:evenodd;stroke:#000000;stroke-width:2.0px;stroke-linecap:butt;stroke-linejoin:miter;stroke-opacity:1"/>
<path class="bond-14 atom-14 atom-15" d="M 174.4,52.7 L 185.1,46.4" style="fill:none;fill-rule:evenodd;stroke:#FF0000;stroke-width:2.0px;stroke-linecap:butt;stroke-linejoin:miter;stroke-opacity:1"/>
<path class="bond-15 atom-13 atom-16" d="M 164.2,89.5 L 190.8,104.3" style="fill:none;fill-rule:evenodd;stroke:#000000;stroke-width:2.0px;stroke-linecap:butt;stroke-linejoin:miter;stroke-opacity:1"/>
<path class="bond-16 atom-16 atom-17" d="M 190.8,104.3 L 190.9,116.9" style="fill:none;fill-rule:evenodd;stroke:#000000;stroke-width:2.0px;stroke-linecap:butt;stroke-linejoin:miter;stroke-opacity:1"/>
<path class="bond-16 atom-16 atom-17" d="M 190.9,116.9 L 191.1,129.4" style="fill:none;fill-rule:evenodd;stroke:#FF0000;stroke-width:2.0px;stroke-linecap:butt;stroke-linejoin:miter;stroke-opacity:1"/>
<path class="bond-17 atom-16 atom-18" d="M 190.8,104.3 L 216.9,88.8" style="fill:none;fill-rule:evenodd;stroke:#000000;stroke-width:2.0px;stroke-linecap:butt;stroke-linejoin:miter;stroke-opacity:1"/>
<path class="bond-18 atom-18 atom-19" d="M 216.9,88.8 L 243.5,103.7" style="fill:none;fill-rule:evenodd;stroke:#000000;stroke-width:2.0px;stroke-linecap:butt;stroke-linejoin:miter;stroke-opacity:1"/>
<path class="bond-19 atom-19 atom-20" d="M 243.5,103.7 L 270.0,118.6" style="fill:none;fill-rule:evenodd;stroke:#000000;stroke-width:2.0px;stroke-linecap:butt;stroke-linejoin:miter;stroke-opacity:1"/>
<path class="bond-20 atom-19 atom-21" d="M 243.5,103.7 L 228.6,130.2" style="fill:none;fill-rule:evenodd;stroke:#000000;stroke-width:2.0px;stroke-linecap:butt;stroke-linejoin:miter;stroke-opacity:1"/>
<path class="bond-21 atom-21 atom-22" d="M 228.6,130.2 L 234.8,140.6" style="fill:none;fill-rule:evenodd;stroke:#000000;stroke-width:2.0px;stroke-linecap:butt;stroke-linejoin:miter;stroke-opacity:1"/>
<path class="bond-21 atom-21 atom-22" d="M 234.8,140.6 L 241.0,151.1" style="fill:none;fill-rule:evenodd;stroke:#FF0000;stroke-width:2.0px;stroke-linecap:butt;stroke-linejoin:miter;stroke-opacity:1"/>
<path class="bond-22 atom-19 atom-23" d="M 243.5,103.7 L 258.4,77.1" style="fill:none;fill-rule:evenodd;stroke:#000000;stroke-width:2.0px;stroke-linecap:butt;stroke-linejoin:miter;stroke-opacity:1"/>
<path class="bond-23 atom-23 atom-24" d="M 260.9,77.1 L 254.4,66.2" style="fill:none;fill-rule:evenodd;stroke:#000000;stroke-width:2.0px;stroke-linecap:butt;stroke-linejoin:miter;stroke-opacity:1"/>
<path class="bond-23 atom-23 atom-24" d="M 254.4,66.2 L 248.0,55.3" style="fill:none;fill-rule:evenodd;stroke:#FF0000;stroke-width:2.0px;stroke-linecap:butt;stroke-linejoin:miter;stroke-opacity:1"/>
<path class="bond-23 atom-23 atom-24" d="M 257.1,79.4 L 250.6,68.5" style="fill:none;fill-rule:evenodd;stroke:#000000;stroke-width:2.0px;stroke-linecap:butt;stroke-linejoin:miter;stroke-opacity:1"/>
<path class="bond-23 atom-23 atom-24" d="M 250.6,68.5 L 244.2,57.6" style="fill:none;fill-rule:evenodd;stroke:#FF0000;stroke-width:2.0px;stroke-linecap:butt;stroke-linejoin:miter;stroke-opacity:1"/>
<path class="bond-24 atom-23 atom-25" d="M 258.4,77.1 L 271.1,77.0" style="fill:none;fill-rule:evenodd;stroke:#000000;stroke-width:2.0px;stroke-linecap:butt;stroke-linejoin:miter;stroke-opacity:1"/>
<path class="bond-24 atom-23 atom-25" d="M 271.1,77.0 L 283.9,76.8" style="fill:none;fill-rule:evenodd;stroke:#FF0000;stroke-width:2.0px;stroke-linecap:butt;stroke-linejoin:miter;stroke-opacity:1"/>
<path class="bond-25 atom-1 atom-26" d="M 46.7,106.2 L 46.4,75.7" style="fill:none;fill-rule:evenodd;stroke:#000000;stroke-width:2.0px;stroke-linecap:butt;stroke-linejoin:miter;stroke-opacity:1"/>
<path class="bond-26 atom-26 atom-27" d="M 48.3,74.3 L 37.0,68.0" style="fill:none;fill-rule:evenodd;stroke:#000000;stroke-width:2.0px;stroke-linecap:butt;stroke-linejoin:miter;stroke-opacity:1"/>
<path class="bond-26 atom-26 atom-27" d="M 37.0,68.0 L 25.8,61.7" style="fill:none;fill-rule:evenodd;stroke:#FF0000;stroke-width:2.0px;stroke-linecap:butt;stroke-linejoin:miter;stroke-opacity:1"/>
<path class="bond-26 atom-26 atom-27" d="M 46.4,78.3 L 34.9,71.8" style="fill:none;fill-rule:evenodd;stroke:#000000;stroke-width:2.0px;stroke-linecap:butt;stroke-linejoin:miter;stroke-opacity:1"/>
<path class="bond-26 atom-26 atom-27" d="M 34.9,71.8 L 23.7,65.5" style="fill:none;fill-rule:evenodd;stroke:#FF0000;stroke-width:2.0px;stroke-linecap:butt;stroke-linejoin:miter;stroke-opacity:1"/>
<path class="bond-27 atom-26 atom-28" d="M 46.4,75.7 L 52.7,70.9" style="fill:none;fill-rule:evenodd;stroke:#000000;stroke-width:2.0px;stroke-linecap:butt;stroke-linejoin:miter;stroke-opacity:1"/>
<path class="bond-27 atom-26 atom-28" d="M 52.7,70.9 L 59.0,66.0" style="fill:none;fill-rule:evenodd;stroke:#FF0000;stroke-width:2.0px;stroke-linecap:butt;stroke-linejoin:miter;stroke-opacity:1"/>
<path d="M 47.1,135.1 L 47.1,136.6 L 47.7,136.9" style="fill:none;stroke:#000000;stroke-width:2.0px;stroke-linecap:butt;stroke-linejoin:miter;stroke-opacity:1;"/>
<path d="M 75.7,105.8 L 77.2,105.8 L 77.9,104.5" style="fill:none;stroke:#000000;stroke-width:2.0px;stroke-linecap:butt;stroke-linejoin:miter;stroke-opacity:1;"/>
<path d="M 121.0,78.9 L 122.5,78.8 L 123.3,80.2" style="fill:none;stroke:#000000;stroke-width:2.0px;stroke-linecap:butt;stroke-linejoin:miter;stroke-opacity:1;"/>
<path d="M 113.2,119.8 L 111.9,120.6 L 111.5,120.5" style="fill:none;stroke:#000000;stroke-width:2.0px;stroke-linecap:butt;stroke-linejoin:miter;stroke-opacity:1;"/>
<path d="M 163.9,60.5 L 163.8,59.0 L 164.4,58.7" style="fill:none;stroke:#000000;stroke-width:2.0px;stroke-linecap:butt;stroke-linejoin:miter;stroke-opacity:1;"/>
<path d="M 215.6,89.6 L 216.9,88.8 L 218.3,89.5" style="fill:none;stroke:#000000;stroke-width:2.0px;stroke-linecap:butt;stroke-linejoin:miter;stroke-opacity:1;"/>
<path d="M 229.3,128.9 L 228.6,130.2 L 228.9,130.7" style="fill:none;stroke:#000000;stroke-width:2.0px;stroke-linecap:butt;stroke-linejoin:miter;stroke-opacity:1;"/>
<path d="M 257.6,78.5 L 258.4,77.1 L 259.0,77.1" style="fill:none;stroke:#000000;stroke-width:2.0px;stroke-linecap:butt;stroke-linejoin:miter;stroke-opacity:1;"/>
<path d="M 46.4,77.3 L 46.4,75.7 L 46.7,75.5" style="fill:none;stroke:#000000;stroke-width:2.0px;stroke-linecap:butt;stroke-linejoin:miter;stroke-opacity:1;"/>
<path class="atom-3" d="M 69.7 151.5 Q 69.7 149.4, 70.7 148.3 Q 71.8 147.1, 73.7 147.1 Q 75.6 147.1, 76.6 148.3 Q 77.6 149.4, 77.6 151.5 Q 77.6 153.6, 76.6 154.8 Q 75.6 156.0, 73.7 156.0 Q 71.8 156.0, 70.7 154.8 Q 69.7 153.6, 69.7 151.5 M 73.7 155.0 Q 75.0 155.0, 75.7 154.1 Q 76.4 153.2, 76.4 151.5 Q 76.4 149.8, 75.7 149.0 Q 75.0 148.1, 73.7 148.1 Q 72.4 148.1, 71.6 149.0 Q 70.9 149.8, 70.9 151.5 Q 70.9 153.3, 71.6 154.1 Q 72.4 155.0, 73.7 155.0 " fill="#FF0000"/>
<path class="atom-3" d="M 79.0 147.2 L 80.1 147.2 L 80.1 150.9 L 84.6 150.9 L 84.6 147.2 L 85.7 147.2 L 85.7 155.8 L 84.6 155.8 L 84.6 151.9 L 80.1 151.9 L 80.1 155.8 L 79.0 155.8 L 79.0 147.2 " fill="#FF0000"/>
<path class="atom-6" d="M 70.7 54.7 L 71.8 54.7 L 71.8 58.3 L 76.2 58.3 L 76.2 54.7 L 77.4 54.7 L 77.4 63.3 L 76.2 63.3 L 76.2 59.3 L 71.8 59.3 L 71.8 63.3 L 70.7 63.3 L 70.7 54.7 " fill="#FF0000"/>
<path class="atom-6" d="M 79.2 58.9 Q 79.2 56.9, 80.2 55.7 Q 81.2 54.6, 83.1 54.6 Q 85.0 54.6, 86.1 55.7 Q 87.1 56.9, 87.1 58.9 Q 87.1 61.0, 86.1 62.2 Q 85.0 63.4, 83.1 63.4 Q 81.2 63.4, 80.2 62.2 Q 79.2 61.1, 79.2 58.9 M 83.1 62.4 Q 84.5 62.4, 85.2 61.6 Q 85.9 60.7, 85.9 58.9 Q 85.9 57.3, 85.2 56.4 Q 84.5 55.5, 83.1 55.5 Q 81.8 55.5, 81.1 56.4 Q 80.4 57.2, 80.4 58.9 Q 80.4 60.7, 81.1 61.6 Q 81.8 62.4, 83.1 62.4 " fill="#FF0000"/>
<path class="atom-11" d="M 108.3 151.0 Q 108.3 149.0, 109.3 147.8 Q 110.4 146.6, 112.3 146.6 Q 114.2 146.6, 115.2 147.8 Q 116.2 149.0, 116.2 151.0 Q 116.2 153.1, 115.2 154.3 Q 114.2 155.5, 112.3 155.5 Q 110.4 155.5, 109.3 154.3 Q 108.3 153.1, 108.3 151.0 M 112.3 154.5 Q 113.6 154.5, 114.3 153.6 Q 115.0 152.8, 115.0 151.0 Q 115.0 149.3, 114.3 148.5 Q 113.6 147.6, 112.3 147.6 Q 111.0 147.6, 110.2 148.5 Q 109.5 149.3, 109.5 151.0 Q 109.5 152.8, 110.2 153.6 Q 111.0 154.5, 112.3 154.5 " fill="#FF0000"/>
<path class="atom-12" d="M 80.2 111.0 L 81.3 111.0 L 81.3 114.7 L 85.7 114.7 L 85.7 111.0 L 86.9 111.0 L 86.9 119.7 L 85.7 119.7 L 85.7 115.7 L 81.3 115.7 L 81.3 119.7 L 80.2 119.7 L 80.2 111.0 " fill="#FF0000"/>
<path class="atom-12" d="M 88.7 115.3 Q 88.7 113.3, 89.7 112.1 Q 90.7 110.9, 92.6 110.9 Q 94.5 110.9, 95.6 112.1 Q 96.6 113.3, 96.6 115.3 Q 96.6 117.4, 95.5 118.6 Q 94.5 119.8, 92.6 119.8 Q 90.7 119.8, 89.7 118.6 Q 88.7 117.4, 88.7 115.3 M 92.6 118.8 Q 93.9 118.8, 94.6 117.9 Q 95.4 117.1, 95.4 115.3 Q 95.4 113.6, 94.6 112.8 Q 93.9 111.9, 92.6 111.9 Q 91.3 111.9, 90.6 112.8 Q 89.9 113.6, 89.9 115.3 Q 89.9 117.1, 90.6 117.9 Q 91.3 118.8, 92.6 118.8 " fill="#FF0000"/>
<path class="atom-15" d="M 186.0 43.5 Q 186.0 41.4, 187.1 40.3 Q 188.1 39.1, 190.0 39.1 Q 191.9 39.1, 192.9 40.3 Q 194.0 41.4, 194.0 43.5 Q 194.0 45.6, 192.9 46.8 Q 191.9 48.0, 190.0 48.0 Q 188.1 48.0, 187.1 46.8 Q 186.0 45.6, 186.0 43.5 M 190.0 47.0 Q 191.3 47.0, 192.0 46.1 Q 192.7 45.2, 192.7 43.5 Q 192.7 41.8, 192.0 41.0 Q 191.3 40.1, 190.0 40.1 Q 188.7 40.1, 188.0 40.9 Q 187.3 41.8, 187.3 43.5 Q 187.3 45.2, 188.0 46.1 Q 188.7 47.0, 190.0 47.0 " fill="#FF0000"/>
<path class="atom-15" d="M 195.3 39.2 L 196.5 39.2 L 196.5 42.9 L 200.9 42.9 L 200.9 39.2 L 202.0 39.2 L 202.0 47.8 L 200.9 47.8 L 200.9 43.9 L 196.5 43.9 L 196.5 47.8 L 195.3 47.8 L 195.3 39.2 " fill="#FF0000"/>
<path class="atom-17" d="M 187.2 134.8 Q 187.2 132.7, 188.2 131.6 Q 189.2 130.4, 191.2 130.4 Q 193.1 130.4, 194.1 131.6 Q 195.1 132.7, 195.1 134.8 Q 195.1 136.9, 194.1 138.1 Q 193.0 139.3, 191.2 139.3 Q 189.3 139.3, 188.2 138.1 Q 187.2 136.9, 187.2 134.8 M 191.2 138.3 Q 192.5 138.3, 193.2 137.4 Q 193.9 136.5, 193.9 134.8 Q 193.9 133.1, 193.2 132.3 Q 192.5 131.4, 191.2 131.4 Q 189.8 131.4, 189.1 132.2 Q 188.4 133.1, 188.4 134.8 Q 188.4 136.5, 189.1 137.4 Q 189.8 138.3, 191.2 138.3 " fill="#FF0000"/>
<path class="atom-17" d="M 196.5 130.5 L 197.6 130.5 L 197.6 134.2 L 202.0 134.2 L 202.0 130.5 L 203.2 130.5 L 203.2 139.1 L 202.0 139.1 L 202.0 135.2 L 197.6 135.2 L 197.6 139.1 L 196.5 139.1 L 196.5 130.5 " fill="#FF0000"/>
<path class="atom-22" d="M 240.2 156.4 Q 240.2 154.3, 241.2 153.2 Q 242.2 152.0, 244.2 152.0 Q 246.1 152.0, 247.1 153.2 Q 248.1 154.3, 248.1 156.4 Q 248.1 158.5, 247.1 159.7 Q 246.0 160.9, 244.2 160.9 Q 242.3 160.9, 241.2 159.7 Q 240.2 158.5, 240.2 156.4 M 244.2 159.9 Q 245.5 159.9, 246.2 159.0 Q 246.9 158.1, 246.9 156.4 Q 246.9 154.7, 246.2 153.9 Q 245.5 153.0, 244.2 153.0 Q 242.8 153.0, 242.1 153.9 Q 241.4 154.7, 241.4 156.4 Q 241.4 158.2, 242.1 159.0 Q 242.8 159.9, 244.2 159.9 " fill="#FF0000"/>
<path class="atom-22" d="M 249.5 152.1 L 250.6 152.1 L 250.6 155.8 L 255.0 155.8 L 255.0 152.1 L 256.2 152.1 L 256.2 160.8 L 255.0 160.8 L 255.0 156.8 L 250.6 156.8 L 250.6 160.8 L 249.5 160.8 L 249.5 152.1 " fill="#FF0000"/>
<path class="atom-24" d="M 238.9 51.0 Q 238.9 48.9, 239.9 47.8 Q 240.9 46.6, 242.8 46.6 Q 244.7 46.6, 245.8 47.8 Q 246.8 48.9, 246.8 51.0 Q 246.8 53.1, 245.7 54.3 Q 244.7 55.5, 242.8 55.5 Q 240.9 55.5, 239.9 54.3 Q 238.9 53.1, 238.9 51.0 M 242.8 54.5 Q 244.1 54.5, 244.8 53.6 Q 245.6 52.7, 245.6 51.0 Q 245.6 49.3, 244.8 48.4 Q 244.1 47.6, 242.8 47.6 Q 241.5 47.6, 240.8 48.4 Q 240.1 49.3, 240.1 51.0 Q 240.1 52.7, 240.8 53.6 Q 241.5 54.5, 242.8 54.5 " fill="#FF0000"/>
<path class="atom-25" d="M 284.8 76.8 Q 284.8 74.7, 285.9 73.5 Q 286.9 72.4, 288.8 72.4 Q 290.7 72.4, 291.7 73.5 Q 292.8 74.7, 292.8 76.8 Q 292.8 78.9, 291.7 80.1 Q 290.7 81.2, 288.8 81.2 Q 286.9 81.2, 285.9 80.1 Q 284.8 78.9, 284.8 76.8 M 288.8 80.3 Q 290.1 80.3, 290.8 79.4 Q 291.5 78.5, 291.5 76.8 Q 291.5 75.1, 290.8 74.2 Q 290.1 73.4, 288.8 73.4 Q 287.5 73.4, 286.8 74.2 Q 286.1 75.1, 286.1 76.8 Q 286.1 78.5, 286.8 79.4 Q 287.5 80.3, 288.8 80.3 " fill="#FF0000"/>
<path class="atom-25" d="M 294.1 72.5 L 295.3 72.5 L 295.3 76.1 L 299.7 76.1 L 299.7 72.5 L 300.9 72.5 L 300.9 81.1 L 299.7 81.1 L 299.7 77.1 L 295.3 77.1 L 295.3 81.1 L 294.1 81.1 L 294.1 72.5 " fill="#FF0000"/>
<path class="atom-27" d="M 15.9 60.9 Q 15.9 58.8, 16.9 57.6 Q 17.9 56.5, 19.8 56.5 Q 21.7 56.5, 22.7 57.6 Q 23.8 58.8, 23.8 60.9 Q 23.8 63.0, 22.7 64.2 Q 21.7 65.3, 19.8 65.3 Q 17.9 65.3, 16.9 64.2 Q 15.9 63.0, 15.9 60.9 M 19.8 64.4 Q 21.1 64.4, 21.8 63.5 Q 22.5 62.6, 22.5 60.9 Q 22.5 59.2, 21.8 58.3 Q 21.1 57.5, 19.8 57.5 Q 18.5 57.5, 17.8 58.3 Q 17.1 59.2, 17.1 60.9 Q 17.1 62.6, 17.8 63.5 Q 18.5 64.4, 19.8 64.4 " fill="#FF0000"/>
<path class="atom-28" d="M 60.0 62.2 Q 60.0 60.1, 61.0 59.0 Q 62.0 57.8, 63.9 57.8 Q 65.8 57.8, 66.8 59.0 Q 67.9 60.1, 67.9 62.2 Q 67.9 64.3, 66.8 65.5 Q 65.8 66.6, 63.9 66.6 Q 62.0 66.6, 61.0 65.5 Q 60.0 64.3, 60.0 62.2 M 63.9 65.7 Q 65.2 65.7, 65.9 64.8 Q 66.6 63.9, 66.6 62.2 Q 66.6 60.5, 65.9 59.6 Q 65.2 58.8, 63.9 58.8 Q 62.6 58.8, 61.9 59.6 Q 61.2 60.5, 61.2 62.2 Q 61.2 63.9, 61.9 64.8 Q 62.6 65.7, 63.9 65.7 " fill="#FF0000"/>
<path class="atom-28" d="M 69.2 57.9 L 70.4 57.9 L 70.4 61.6 L 74.8 61.6 L 74.8 57.9 L 76.0 57.9 L 76.0 66.5 L 74.8 66.5 L 74.8 62.5 L 70.4 62.5 L 70.4 66.5 L 69.2 66.5 L 69.2 57.9 " fill="#FF0000"/>
</svg>
