<?xml version='1.0' encoding='ASCII' standalone='yes'?>
<svg xmlns="http://www.w3.org/2000/svg" xmlns:rdkit="http://www.rdkit.org/xml" xmlns:xlink="http://www.w3.org/1999/xlink" version="1.1" baseProfile="full" xml:space="preserve" width="434px" height="200px" viewBox="0 0 434 200">
<!-- END OF HEADER -->
<rect style="opacity:1.0;fill:#FFFFFF;stroke:none" width="434.0" height="200.0" x="0.0" y="0.0"> </rect>
<path class="bond-0 atom-0 atom-1" d="M 187.9,22.8 L 193.9,33.0" style="fill:none;fill-rule:evenodd;stroke:#000000;stroke-width:2.0px;stroke-linecap:butt;stroke-linejoin:miter;stroke-opacity:1"/>
<path class="bond-0 atom-0 atom-1" d="M 186.4,23.6 L 192.4,33.9" style="fill:none;fill-rule:evenodd;stroke:#000000;stroke-width:2.0px;stroke-linecap:butt;stroke-linejoin:miter;stroke-opacity:1"/>
<path class="bond-1 atom-1 atom-2" d="M 192.9,33.0 L 187.3,42.9" style="fill:none;fill-rule:evenodd;stroke:#000000;stroke-width:2.0px;stroke-linecap:butt;stroke-linejoin:miter;stroke-opacity:1"/>
<path class="bond-2 atom-2 atom-3" d="M 187.3,42.9 L 175.9,43.0" style="fill:none;fill-rule:evenodd;stroke:#000000;stroke-width:2.0px;stroke-linecap:butt;stroke-linejoin:miter;stroke-opacity:1"/>
<path class="bond-3 atom-3 atom-4" d="M 175.9,43.0 L 170.1,33.2" style="fill:none;fill-rule:evenodd;stroke:#000000;stroke-width:2.0px;stroke-linecap:butt;stroke-linejoin:miter;stroke-opacity:1"/>
<path class="bond-4 atom-4 atom-5" d="M 170.6,34.0 L 172.8,30.1" style="fill:none;fill-rule:evenodd;stroke:#000000;stroke-width:2.0px;stroke-linecap:butt;stroke-linejoin:miter;stroke-opacity:1"/>
<path class="bond-4 atom-4 atom-5" d="M 172.8,30.1 L 175.0,26.3" style="fill:none;fill-rule:evenodd;stroke:#FF0000;stroke-width:2.0px;stroke-linecap:butt;stroke-linejoin:miter;stroke-opacity:1"/>
<path class="bond-4 atom-4 atom-5" d="M 169.2,33.2 L 171.4,29.3" style="fill:none;fill-rule:evenodd;stroke:#000000;stroke-width:2.0px;stroke-linecap:butt;stroke-linejoin:miter;stroke-opacity:1"/>
<path class="bond-4 atom-4 atom-5" d="M 171.4,29.3 L 173.6,25.4" style="fill:none;fill-rule:evenodd;stroke:#FF0000;stroke-width:2.0px;stroke-linecap:butt;stroke-linejoin:miter;stroke-opacity:1"/>
<path class="bond-5 atom-4 atom-6" d="M 170.1,33.2 L 165.6,33.2" style="fill:none;fill-rule:evenodd;stroke:#000000;stroke-width:2.0px;stroke-linecap:butt;stroke-linejoin:miter;stroke-opacity:1"/>
<path class="bond-5 atom-4 atom-6" d="M 165.6,33.2 L 161.1,33.2" style="fill:none;fill-rule:evenodd;stroke:#FF0000;stroke-width:2.0px;stroke-linecap:butt;stroke-linejoin:miter;stroke-opacity:1"/>
<path class="bond-6 atom-2 atom-7" d="M 187.3,42.9 L 193.0,52.7" style="fill:none;fill-rule:evenodd;stroke:#000000;stroke-width:2.0px;stroke-linecap:butt;stroke-linejoin:miter;stroke-opacity:1"/>
<path class="bond-7 atom-7 atom-8" d="M 193.0,52.7 L 195.9,51.9" style="fill:none;fill-rule:evenodd;stroke:#000000;stroke-width:2.0px;stroke-linecap:butt;stroke-linejoin:miter;stroke-opacity:1"/>
<path class="bond-7 atom-7 atom-8" d="M 195.9,51.9 L 198.7,51.1" style="fill:none;fill-rule:evenodd;stroke:#FF0000;stroke-width:2.0px;stroke-linecap:butt;stroke-linejoin:miter;stroke-opacity:1"/>
<path class="bond-8 atom-7 atom-9" d="M 193.0,52.7 L 183.2,58.5" style="fill:none;fill-rule:evenodd;stroke:#000000;stroke-width:2.0px;stroke-linecap:butt;stroke-linejoin:miter;stroke-opacity:1"/>
<path class="bond-9 atom-9 atom-10" d="M 182.4,58.0 L 181.9,62.6" style="fill:none;fill-rule:evenodd;stroke:#000000;stroke-width:2.0px;stroke-linecap:butt;stroke-linejoin:miter;stroke-opacity:1"/>
<path class="bond-9 atom-9 atom-10" d="M 181.9,62.6 L 181.4,67.2" style="fill:none;fill-rule:evenodd;stroke:#FF0000;stroke-width:2.0px;stroke-linecap:butt;stroke-linejoin:miter;stroke-opacity:1"/>
<path class="bond-9 atom-9 atom-10" d="M 184.1,58.0 L 183.6,62.8" style="fill:none;fill-rule:evenodd;stroke:#000000;stroke-width:2.0px;stroke-linecap:butt;stroke-linejoin:miter;stroke-opacity:1"/>
<path class="bond-9 atom-9 atom-10" d="M 183.6,62.8 L 183.0,67.4" style="fill:none;fill-rule:evenodd;stroke:#FF0000;stroke-width:2.0px;stroke-linecap:butt;stroke-linejoin:miter;stroke-opacity:1"/>
<path class="bond-10 atom-9 atom-11" d="M 183.2,58.5 L 179.3,56.2" style="fill:none;fill-rule:evenodd;stroke:#000000;stroke-width:2.0px;stroke-linecap:butt;stroke-linejoin:miter;stroke-opacity:1"/>
<path class="bond-10 atom-9 atom-11" d="M 179.3,56.2 L 175.3,54.0" style="fill:none;fill-rule:evenodd;stroke:#0000FF;stroke-width:2.0px;stroke-linecap:butt;stroke-linejoin:miter;stroke-opacity:1"/>
<path class="bond-11 atom-11 atom-12" d="M 171.3,54.0 L 167.4,56.3" style="fill:none;fill-rule:evenodd;stroke:#0000FF;stroke-width:2.0px;stroke-linecap:butt;stroke-linejoin:miter;stroke-opacity:1"/>
<path class="bond-11 atom-11 atom-12" d="M 167.4,56.3 L 163.5,58.6" style="fill:none;fill-rule:evenodd;stroke:#000000;stroke-width:2.0px;stroke-linecap:butt;stroke-linejoin:miter;stroke-opacity:1"/>
<path class="bond-12 atom-12 atom-13" d="M 163.5,58.6 L 153.6,53.0" style="fill:none;fill-rule:evenodd;stroke:#000000;stroke-width:2.0px;stroke-linecap:butt;stroke-linejoin:miter;stroke-opacity:1"/>
<path class="bond-13 atom-13 atom-14" d="M 153.6,53.0 L 143.8,58.7" style="fill:none;fill-rule:evenodd;stroke:#000000;stroke-width:2.0px;stroke-linecap:butt;stroke-linejoin:miter;stroke-opacity:1"/>
<path class="bond-14 atom-14 atom-15" d="M 142.9,58.3 L 143.0,62.9" style="fill:none;fill-rule:evenodd;stroke:#000000;stroke-width:2.0px;stroke-linecap:butt;stroke-linejoin:miter;stroke-opacity:1"/>
<path class="bond-14 atom-14 atom-15" d="M 143.0,62.9 L 143.0,67.6" style="fill:none;fill-rule:evenodd;stroke:#FF0000;stroke-width:2.0px;stroke-linecap:butt;stroke-linejoin:miter;stroke-opacity:1"/>
<path class="bond-14 atom-14 atom-15" d="M 144.6,58.3 L 144.7,62.9" style="fill:none;fill-rule:evenodd;stroke:#000000;stroke-width:2.0px;stroke-linecap:butt;stroke-linejoin:miter;stroke-opacity:1"/>
<path class="bond-14 atom-14 atom-15" d="M 144.7,62.9 L 144.7,67.6" style="fill:none;fill-rule:evenodd;stroke:#FF0000;stroke-width:2.0px;stroke-linecap:butt;stroke-linejoin:miter;stroke-opacity:1"/>
<path class="bond-15 atom-14 atom-16" d="M 143.8,58.7 L 139.8,56.5" style="fill:none;fill-rule:evenodd;stroke:#000000;stroke-width:2.0px;stroke-linecap:butt;stroke-linejoin:miter;stroke-opacity:1"/>
<path class="bond-15 atom-14 atom-16" d="M 139.8,56.5 L 135.9,54.2" style="fill:none;fill-rule:evenodd;stroke:#0000FF;stroke-width:2.0px;stroke-linecap:butt;stroke-linejoin:miter;stroke-opacity:1"/>
<path class="bond-16 atom-16 atom-17" d="M 131.9,54.3 L 128.0,56.6" style="fill:none;fill-rule:evenodd;stroke:#0000FF;stroke-width:2.0px;stroke-linecap:butt;stroke-linejoin:miter;stroke-opacity:1"/>
<path class="bond-16 atom-16 atom-17" d="M 128.0,56.6 L 124.1,58.9" style="fill:none;fill-rule:evenodd;stroke:#000000;stroke-width:2.0px;stroke-linecap:butt;stroke-linejoin:miter;stroke-opacity:1"/>
<path class="bond-17 atom-17 atom-18" d="M 124.1,58.9 L 114.2,53.2" style="fill:none;fill-rule:evenodd;stroke:#000000;stroke-width:2.0px;stroke-linecap:butt;stroke-linejoin:miter;stroke-opacity:1"/>
<path class="bond-18 atom-18 atom-19" d="M 114.2,53.2 L 110.1,55.6" style="fill:none;fill-rule:evenodd;stroke:#000000;stroke-width:2.0px;stroke-linecap:butt;stroke-linejoin:miter;stroke-opacity:1"/>
<path class="bond-18 atom-18 atom-19" d="M 110.1,55.6 L 106.1,58.0" style="fill:none;fill-rule:evenodd;stroke:#CCCC00;stroke-width:2.0px;stroke-linecap:butt;stroke-linejoin:miter;stroke-opacity:1"/>
<path class="bond-19 atom-19 atom-20" d="M 102.6,58.0 L 98.6,55.7" style="fill:none;fill-rule:evenodd;stroke:#CCCC00;stroke-width:2.0px;stroke-linecap:butt;stroke-linejoin:miter;stroke-opacity:1"/>
<path class="bond-19 atom-19 atom-20" d="M 98.6,55.7 L 94.5,53.4" style="fill:none;fill-rule:evenodd;stroke:#000000;stroke-width:2.0px;stroke-linecap:butt;stroke-linejoin:miter;stroke-opacity:1"/>
<path class="bond-20 atom-20 atom-21" d="M 94.5,53.4 L 84.7,59.1" style="fill:none;fill-rule:evenodd;stroke:#000000;stroke-width:2.0px;stroke-linecap:butt;stroke-linejoin:miter;stroke-opacity:1"/>
<path class="bond-21 atom-20 atom-22" d="M 95.3,53.9 L 95.3,49.2" style="fill:none;fill-rule:evenodd;stroke:#000000;stroke-width:2.0px;stroke-linecap:butt;stroke-linejoin:miter;stroke-opacity:1"/>
<path class="bond-21 atom-20 atom-22" d="M 95.3,49.2 L 95.3,44.6" style="fill:none;fill-rule:evenodd;stroke:#FF0000;stroke-width:2.0px;stroke-linecap:butt;stroke-linejoin:miter;stroke-opacity:1"/>
<path class="bond-21 atom-20 atom-22" d="M 93.6,53.9 L 93.6,49.2" style="fill:none;fill-rule:evenodd;stroke:#000000;stroke-width:2.0px;stroke-linecap:butt;stroke-linejoin:miter;stroke-opacity:1"/>
<path class="bond-21 atom-20 atom-22" d="M 93.6,49.2 L 93.6,44.6" style="fill:none;fill-rule:evenodd;stroke:#FF0000;stroke-width:2.0px;stroke-linecap:butt;stroke-linejoin:miter;stroke-opacity:1"/>
<path class="bond-22 atom-7 atom-23" d="M 193.0,52.7 L 198.8,62.6" style="fill:none;fill-rule:evenodd;stroke:#000000;stroke-width:2.0px;stroke-linecap:butt;stroke-linejoin:miter;stroke-opacity:1"/>
<path class="bond-23 atom-23 atom-24" d="M 198.8,62.6 L 207.6,57.4" style="fill:none;fill-rule:evenodd;stroke:#000000;stroke-width:2.0px;stroke-linecap:butt;stroke-linejoin:miter;stroke-opacity:1"/>
<path class="bond-24 atom-23 atom-25" d="M 198.8,62.6 L 189.7,69.5" style="fill:none;fill-rule:evenodd;stroke:#000000;stroke-width:2.0px;stroke-linecap:butt;stroke-linejoin:miter;stroke-opacity:1"/>
<path class="bond-25 atom-23 atom-26" d="M 198.8,62.6 L 204.5,72.4" style="fill:none;fill-rule:evenodd;stroke:#000000;stroke-width:2.0px;stroke-linecap:butt;stroke-linejoin:miter;stroke-opacity:1"/>
<path class="bond-26 atom-26 atom-27" d="M 204.5,72.4 L 209.1,72.3" style="fill:none;fill-rule:evenodd;stroke:#000000;stroke-width:2.0px;stroke-linecap:butt;stroke-linejoin:miter;stroke-opacity:1"/>
<path class="bond-26 atom-26 atom-27" d="M 209.1,72.3 L 213.6,72.3" style="fill:none;fill-rule:evenodd;stroke:#FF0000;stroke-width:2.0px;stroke-linecap:butt;stroke-linejoin:miter;stroke-opacity:1"/>
<path class="bond-27 atom-27 atom-28" d="M 217.4,74.9 L 218.8,77.3" style="fill:none;fill-rule:evenodd;stroke:#FF0000;stroke-width:2.0px;stroke-linecap:butt;stroke-linejoin:miter;stroke-opacity:1"/>
<path class="bond-27 atom-27 atom-28" d="M 218.8,77.3 L 220.2,79.6" style="fill:none;fill-rule:evenodd;stroke:#FF7F00;stroke-width:2.0px;stroke-linecap:butt;stroke-linejoin:miter;stroke-opacity:1"/>
<path class="bond-28 atom-28 atom-29" d="M 223.6,82.4 L 224.5,82.2" style="fill:none;fill-rule:evenodd;stroke:#FF7F00;stroke-width:2.0px;stroke-linecap:butt;stroke-linejoin:miter;stroke-opacity:1"/>
<path class="bond-28 atom-28 atom-29" d="M 224.5,82.2 L 225.4,81.9" style="fill:none;fill-rule:evenodd;stroke:#FF0000;stroke-width:2.0px;stroke-linecap:butt;stroke-linejoin:miter;stroke-opacity:1"/>
<path class="bond-28 atom-28 atom-29" d="M 223.2,80.8 L 224.0,80.5" style="fill:none;fill-rule:evenodd;stroke:#FF7F00;stroke-width:2.0px;stroke-linecap:butt;stroke-linejoin:miter;stroke-opacity:1"/>
<path class="bond-28 atom-28 atom-29" d="M 224.0,80.5 L 224.9,80.3" style="fill:none;fill-rule:evenodd;stroke:#FF0000;stroke-width:2.0px;stroke-linecap:butt;stroke-linejoin:miter;stroke-opacity:1"/>
<path class="bond-29 atom-28 atom-30" d="M 220.0,83.1 L 217.1,84.8" style="fill:none;fill-rule:evenodd;stroke:#FF7F00;stroke-width:2.0px;stroke-linecap:butt;stroke-linejoin:miter;stroke-opacity:1"/>
<path class="bond-29 atom-28 atom-30" d="M 217.1,84.8 L 214.2,86.5" style="fill:none;fill-rule:evenodd;stroke:#FF0000;stroke-width:2.0px;stroke-linecap:butt;stroke-linejoin:miter;stroke-opacity:1"/>
<path class="bond-30 atom-28 atom-31" d="M 223.1,84.6 L 224.6,87.0" style="fill:none;fill-rule:evenodd;stroke:#FF7F00;stroke-width:2.0px;stroke-linecap:butt;stroke-linejoin:miter;stroke-opacity:1"/>
<path class="bond-30 atom-28 atom-31" d="M 224.6,87.0 L 226.0,89.4" style="fill:none;fill-rule:evenodd;stroke:#FF0000;stroke-width:2.0px;stroke-linecap:butt;stroke-linejoin:miter;stroke-opacity:1"/>
<path class="bond-31 atom-31 atom-32" d="M 226.0,94.5 L 224.6,96.9" style="fill:none;fill-rule:evenodd;stroke:#FF0000;stroke-width:2.0px;stroke-linecap:butt;stroke-linejoin:miter;stroke-opacity:1"/>
<path class="bond-31 atom-31 atom-32" d="M 224.6,96.9 L 223.2,99.3" style="fill:none;fill-rule:evenodd;stroke:#FF7F00;stroke-width:2.0px;stroke-linecap:butt;stroke-linejoin:miter;stroke-opacity:1"/>
<path class="bond-32 atom-32 atom-33" d="M 220.5,100.1 L 217.6,98.5" style="fill:none;fill-rule:evenodd;stroke:#FF7F00;stroke-width:2.0px;stroke-linecap:butt;stroke-linejoin:miter;stroke-opacity:1"/>
<path class="bond-32 atom-32 atom-33" d="M 217.6,98.5 L 214.7,96.8" style="fill:none;fill-rule:evenodd;stroke:#FF0000;stroke-width:2.0px;stroke-linecap:butt;stroke-linejoin:miter;stroke-opacity:1"/>
<path class="bond-32 atom-32 atom-33" d="M 219.7,101.6 L 216.7,99.9" style="fill:none;fill-rule:evenodd;stroke:#FF7F00;stroke-width:2.0px;stroke-linecap:butt;stroke-linejoin:miter;stroke-opacity:1"/>
<path class="bond-32 atom-32 atom-33" d="M 216.7,99.9 L 213.8,98.3" style="fill:none;fill-rule:evenodd;stroke:#FF0000;stroke-width:2.0px;stroke-linecap:butt;stroke-linejoin:miter;stroke-opacity:1"/>
<path class="bond-33 atom-32 atom-34" d="M 223.5,102.8 L 226.5,104.5" style="fill:none;fill-rule:evenodd;stroke:#FF7F00;stroke-width:2.0px;stroke-linecap:butt;stroke-linejoin:miter;stroke-opacity:1"/>
<path class="bond-33 atom-32 atom-34" d="M 226.5,104.5 L 229.4,106.1" style="fill:none;fill-rule:evenodd;stroke:#FF0000;stroke-width:2.0px;stroke-linecap:butt;stroke-linejoin:miter;stroke-opacity:1"/>
<path class="bond-34 atom-32 atom-35" d="M 220.4,104.3 L 219.0,106.8" style="fill:none;fill-rule:evenodd;stroke:#FF7F00;stroke-width:2.0px;stroke-linecap:butt;stroke-linejoin:miter;stroke-opacity:1"/>
<path class="bond-34 atom-32 atom-35" d="M 219.0,106.8 L 217.6,109.2" style="fill:none;fill-rule:evenodd;stroke:#FF0000;stroke-width:2.0px;stroke-linecap:butt;stroke-linejoin:miter;stroke-opacity:1"/>
<path class="bond-35 atom-35 atom-36" d="M 213.9,111.7 L 209.3,111.8" style="fill:none;fill-rule:evenodd;stroke:#FF0000;stroke-width:2.0px;stroke-linecap:butt;stroke-linejoin:miter;stroke-opacity:1"/>
<path class="bond-35 atom-35 atom-36" d="M 209.3,111.8 L 204.8,111.8" style="fill:none;fill-rule:evenodd;stroke:#000000;stroke-width:2.0px;stroke-linecap:butt;stroke-linejoin:miter;stroke-opacity:1"/>
<path class="bond-36 atom-36 atom-37" d="M 204.8,111.8 L 199.2,121.7" style="fill:none;fill-rule:evenodd;stroke:#000000;stroke-width:2.0px;stroke-linecap:butt;stroke-linejoin:miter;stroke-opacity:1"/>
<path class="bond-37 atom-37 atom-38" d="M 199.2,121.7 L 201.0,125.6" style="fill:none;fill-rule:evenodd;stroke:#000000;stroke-width:2.0px;stroke-linecap:butt;stroke-linejoin:miter;stroke-opacity:1"/>
<path class="bond-37 atom-37 atom-38" d="M 201.0,125.6 L 202.7,129.5" style="fill:none;fill-rule:evenodd;stroke:#FF0000;stroke-width:2.0px;stroke-linecap:butt;stroke-linejoin:miter;stroke-opacity:1"/>
<path class="bond-38 atom-38 atom-39" d="M 201.6,134.2 L 198.5,137.0" style="fill:none;fill-rule:evenodd;stroke:#FF0000;stroke-width:2.0px;stroke-linecap:butt;stroke-linejoin:miter;stroke-opacity:1"/>
<path class="bond-38 atom-38 atom-39" d="M 198.5,137.0 L 195.5,139.7" style="fill:none;fill-rule:evenodd;stroke:#000000;stroke-width:2.0px;stroke-linecap:butt;stroke-linejoin:miter;stroke-opacity:1"/>
<path class="bond-39 atom-39 atom-40" d="M 195.5,139.7 L 196.0,144.1" style="fill:none;fill-rule:evenodd;stroke:#000000;stroke-width:2.0px;stroke-linecap:butt;stroke-linejoin:miter;stroke-opacity:1"/>
<path class="bond-39 atom-39 atom-40" d="M 196.0,144.1 L 196.4,148.5" style="fill:none;fill-rule:evenodd;stroke:#0000FF;stroke-width:2.0px;stroke-linecap:butt;stroke-linejoin:miter;stroke-opacity:1"/>
<path class="bond-40 atom-40 atom-41" d="M 194.7,152.8 L 191.5,155.8" style="fill:none;fill-rule:evenodd;stroke:#0000FF;stroke-width:2.0px;stroke-linecap:butt;stroke-linejoin:miter;stroke-opacity:1"/>
<path class="bond-40 atom-40 atom-41" d="M 191.5,155.8 L 188.3,158.7" style="fill:none;fill-rule:evenodd;stroke:#000000;stroke-width:2.0px;stroke-linecap:butt;stroke-linejoin:miter;stroke-opacity:1"/>
<path class="bond-41 atom-41 atom-42" d="M 188.3,158.7 L 190.1,162.6" style="fill:none;fill-rule:evenodd;stroke:#000000;stroke-width:2.0px;stroke-linecap:butt;stroke-linejoin:miter;stroke-opacity:1"/>
<path class="bond-41 atom-41 atom-42" d="M 190.1,162.6 L 191.9,166.6" style="fill:none;fill-rule:evenodd;stroke:#0000FF;stroke-width:2.0px;stroke-linecap:butt;stroke-linejoin:miter;stroke-opacity:1"/>
<path class="bond-41 atom-41 atom-42" d="M 190.4,159.1 L 191.9,162.5" style="fill:none;fill-rule:evenodd;stroke:#000000;stroke-width:2.0px;stroke-linecap:butt;stroke-linejoin:miter;stroke-opacity:1"/>
<path class="bond-41 atom-41 atom-42" d="M 191.9,162.5 L 193.4,165.9" style="fill:none;fill-rule:evenodd;stroke:#0000FF;stroke-width:2.0px;stroke-linecap:butt;stroke-linejoin:miter;stroke-opacity:1"/>
<path class="bond-42 atom-42 atom-43" d="M 195.0,168.9 L 199.7,168.3" style="fill:none;fill-rule:evenodd;stroke:#0000FF;stroke-width:2.0px;stroke-linecap:butt;stroke-linejoin:miter;stroke-opacity:1"/>
<path class="bond-42 atom-42 atom-43" d="M 199.7,168.3 L 204.3,167.8" style="fill:none;fill-rule:evenodd;stroke:#000000;stroke-width:2.0px;stroke-linecap:butt;stroke-linejoin:miter;stroke-opacity:1"/>
<path class="bond-43 atom-43 atom-44" d="M 204.3,167.8 L 212.8,175.4" style="fill:none;fill-rule:evenodd;stroke:#000000;stroke-width:2.0px;stroke-linecap:butt;stroke-linejoin:miter;stroke-opacity:1"/>
<path class="bond-43 atom-43 atom-44" d="M 206.2,167.2 L 213.2,173.5" style="fill:none;fill-rule:evenodd;stroke:#000000;stroke-width:2.0px;stroke-linecap:butt;stroke-linejoin:miter;stroke-opacity:1"/>
<path class="bond-44 atom-44 atom-45" d="M 212.8,175.4 L 211.9,179.7" style="fill:none;fill-rule:evenodd;stroke:#000000;stroke-width:2.0px;stroke-linecap:butt;stroke-linejoin:miter;stroke-opacity:1"/>
<path class="bond-44 atom-44 atom-45" d="M 211.9,179.7 L 211.1,184.0" style="fill:none;fill-rule:evenodd;stroke:#0000FF;stroke-width:2.0px;stroke-linecap:butt;stroke-linejoin:miter;stroke-opacity:1"/>
<path class="bond-45 atom-44 atom-46" d="M 212.8,175.4 L 217.2,173.9" style="fill:none;fill-rule:evenodd;stroke:#000000;stroke-width:2.0px;stroke-linecap:butt;stroke-linejoin:miter;stroke-opacity:1"/>
<path class="bond-45 atom-44 atom-46" d="M 217.2,173.9 L 221.7,172.4" style="fill:none;fill-rule:evenodd;stroke:#0000FF;stroke-width:2.0px;stroke-linecap:butt;stroke-linejoin:miter;stroke-opacity:1"/>
<path class="bond-46 atom-46 atom-47" d="M 224.1,169.3 L 225.0,165.0" style="fill:none;fill-rule:evenodd;stroke:#0000FF;stroke-width:2.0px;stroke-linecap:butt;stroke-linejoin:miter;stroke-opacity:1"/>
<path class="bond-46 atom-46 atom-47" d="M 225.0,165.0 L 225.9,160.6" style="fill:none;fill-rule:evenodd;stroke:#000000;stroke-width:2.0px;stroke-linecap:butt;stroke-linejoin:miter;stroke-opacity:1"/>
<path class="bond-46 atom-46 atom-47" d="M 222.5,169.0 L 223.3,165.1" style="fill:none;fill-rule:evenodd;stroke:#0000FF;stroke-width:2.0px;stroke-linecap:butt;stroke-linejoin:miter;stroke-opacity:1"/>
<path class="bond-46 atom-46 atom-47" d="M 223.3,165.1 L 224.1,161.3" style="fill:none;fill-rule:evenodd;stroke:#000000;stroke-width:2.0px;stroke-linecap:butt;stroke-linejoin:miter;stroke-opacity:1"/>
<path class="bond-47 atom-47 atom-48" d="M 225.9,160.6 L 222.7,157.7" style="fill:none;fill-rule:evenodd;stroke:#000000;stroke-width:2.0px;stroke-linecap:butt;stroke-linejoin:miter;stroke-opacity:1"/>
<path class="bond-47 atom-47 atom-48" d="M 222.7,157.7 L 219.4,154.8" style="fill:none;fill-rule:evenodd;stroke:#0000FF;stroke-width:2.0px;stroke-linecap:butt;stroke-linejoin:miter;stroke-opacity:1"/>
<path class="bond-48 atom-48 atom-49" d="M 215.4,153.7 L 211.0,155.2" style="fill:none;fill-rule:evenodd;stroke:#0000FF;stroke-width:2.0px;stroke-linecap:butt;stroke-linejoin:miter;stroke-opacity:1"/>
<path class="bond-48 atom-48 atom-49" d="M 211.0,155.2 L 206.6,156.7" style="fill:none;fill-rule:evenodd;stroke:#000000;stroke-width:2.0px;stroke-linecap:butt;stroke-linejoin:miter;stroke-opacity:1"/>
<path class="bond-48 atom-48 atom-49" d="M 216.0,155.3 L 212.0,156.6" style="fill:none;fill-rule:evenodd;stroke:#0000FF;stroke-width:2.0px;stroke-linecap:butt;stroke-linejoin:miter;stroke-opacity:1"/>
<path class="bond-48 atom-48 atom-49" d="M 212.0,156.6 L 208.1,158.0" style="fill:none;fill-rule:evenodd;stroke:#000000;stroke-width:2.0px;stroke-linecap:butt;stroke-linejoin:miter;stroke-opacity:1"/>
<path class="bond-49 atom-39 atom-50" d="M 195.5,139.7 L 185.6,134.1" style="fill:none;fill-rule:evenodd;stroke:#000000;stroke-width:2.0px;stroke-linecap:butt;stroke-linejoin:miter;stroke-opacity:1"/>
<path class="bond-50 atom-50 atom-51" d="M 185.6,134.1 L 181.5,135.9" style="fill:none;fill-rule:evenodd;stroke:#000000;stroke-width:2.0px;stroke-linecap:butt;stroke-linejoin:miter;stroke-opacity:1"/>
<path class="bond-50 atom-50 atom-51" d="M 181.5,135.9 L 177.5,137.7" style="fill:none;fill-rule:evenodd;stroke:#FF0000;stroke-width:2.0px;stroke-linecap:butt;stroke-linejoin:miter;stroke-opacity:1"/>
<path class="bond-51 atom-50 atom-52" d="M 185.6,134.1 L 187.9,123.0" style="fill:none;fill-rule:evenodd;stroke:#000000;stroke-width:2.0px;stroke-linecap:butt;stroke-linejoin:miter;stroke-opacity:1"/>
<path class="bond-52 atom-52 atom-53" d="M 187.9,123.0 L 185.2,120.0" style="fill:none;fill-rule:evenodd;stroke:#000000;stroke-width:2.0px;stroke-linecap:butt;stroke-linejoin:miter;stroke-opacity:1"/>
<path class="bond-52 atom-52 atom-53" d="M 185.2,120.0 L 182.5,117.1" style="fill:none;fill-rule:evenodd;stroke:#FF0000;stroke-width:2.0px;stroke-linecap:butt;stroke-linejoin:miter;stroke-opacity:1"/>
<path class="bond-53 atom-53 atom-54" d="M 181.0,112.0 L 181.9,109.1" style="fill:none;fill-rule:evenodd;stroke:#FF0000;stroke-width:2.0px;stroke-linecap:butt;stroke-linejoin:miter;stroke-opacity:1"/>
<path class="bond-53 atom-53 atom-54" d="M 181.9,109.1 L 182.8,106.2" style="fill:none;fill-rule:evenodd;stroke:#FF7F00;stroke-width:2.0px;stroke-linecap:butt;stroke-linejoin:miter;stroke-opacity:1"/>
<path class="bond-54 atom-54 atom-55" d="M 182.2,102.3 L 178.8,101.3" style="fill:none;fill-rule:evenodd;stroke:#FF7F00;stroke-width:2.0px;stroke-linecap:butt;stroke-linejoin:miter;stroke-opacity:1"/>
<path class="bond-54 atom-54 atom-55" d="M 178.8,101.3 L 175.4,100.2" style="fill:none;fill-rule:evenodd;stroke:#FF0000;stroke-width:2.0px;stroke-linecap:butt;stroke-linejoin:miter;stroke-opacity:1"/>
<path class="bond-54 atom-54 atom-55" d="M 181.7,104.0 L 178.3,102.9" style="fill:none;fill-rule:evenodd;stroke:#FF7F00;stroke-width:2.0px;stroke-linecap:butt;stroke-linejoin:miter;stroke-opacity:1"/>
<path class="bond-54 atom-54 atom-55" d="M 178.3,102.9 L 174.9,101.8" style="fill:none;fill-rule:evenodd;stroke:#FF0000;stroke-width:2.0px;stroke-linecap:butt;stroke-linejoin:miter;stroke-opacity:1"/>
<path class="bond-55 atom-54 atom-56" d="M 185.4,104.2 L 188.8,105.3" style="fill:none;fill-rule:evenodd;stroke:#FF7F00;stroke-width:2.0px;stroke-linecap:butt;stroke-linejoin:miter;stroke-opacity:1"/>
<path class="bond-55 atom-54 atom-56" d="M 188.8,105.3 L 192.2,106.4" style="fill:none;fill-rule:evenodd;stroke:#FF0000;stroke-width:2.0px;stroke-linecap:butt;stroke-linejoin:miter;stroke-opacity:1"/>
<path class="bond-56 atom-54 atom-57" d="M 184.4,101.2 L 185.3,98.3" style="fill:none;fill-rule:evenodd;stroke:#FF7F00;stroke-width:2.0px;stroke-linecap:butt;stroke-linejoin:miter;stroke-opacity:1"/>
<path class="bond-56 atom-54 atom-57" d="M 185.3,98.3 L 186.3,95.4" style="fill:none;fill-rule:evenodd;stroke:#FF0000;stroke-width:2.0px;stroke-linecap:butt;stroke-linejoin:miter;stroke-opacity:1"/>
<path class="bond-57 atom-1 atom-58" d="M 192.9,33.0 L 204.3,32.9" style="fill:none;fill-rule:evenodd;stroke:#000000;stroke-width:2.0px;stroke-linecap:butt;stroke-linejoin:miter;stroke-opacity:1"/>
<path class="bond-58 atom-58 atom-59" d="M 204.3,32.9 L 204.3,28.5" style="fill:none;fill-rule:evenodd;stroke:#000000;stroke-width:2.0px;stroke-linecap:butt;stroke-linejoin:miter;stroke-opacity:1"/>
<path class="bond-58 atom-58 atom-59" d="M 204.3,28.5 L 204.2,24.2" style="fill:none;fill-rule:evenodd;stroke:#FF0000;stroke-width:2.0px;stroke-linecap:butt;stroke-linejoin:miter;stroke-opacity:1"/>
<path class="bond-59 atom-58 atom-60" d="M 204.3,32.9 L 204.3,36.3" style="fill:none;fill-rule:evenodd;stroke:#000000;stroke-width:2.0px;stroke-linecap:butt;stroke-linejoin:miter;stroke-opacity:1"/>
<path class="bond-59 atom-58 atom-60" d="M 204.3,36.3 L 204.3,39.6" style="fill:none;fill-rule:evenodd;stroke:#FF0000;stroke-width:2.0px;stroke-linecap:butt;stroke-linejoin:miter;stroke-opacity:1"/>
<path class="bond-60 atom-58 atom-61" d="M 204.3,32.9 L 215.7,32.9" style="fill:none;fill-rule:evenodd;stroke:#000000;stroke-width:2.0px;stroke-linecap:butt;stroke-linejoin:miter;stroke-opacity:1"/>
<path class="bond-61 atom-61 atom-62" d="M 215.7,32.9 L 215.6,28.5" style="fill:none;fill-rule:evenodd;stroke:#000000;stroke-width:2.0px;stroke-linecap:butt;stroke-linejoin:miter;stroke-opacity:1"/>
<path class="bond-61 atom-61 atom-62" d="M 215.6,28.5 L 215.6,24.1" style="fill:none;fill-rule:evenodd;stroke:#FF0000;stroke-width:2.0px;stroke-linecap:butt;stroke-linejoin:miter;stroke-opacity:1"/>
<path class="bond-62 atom-61 atom-63" d="M 215.7,32.9 L 215.7,44.3" style="fill:none;fill-rule:evenodd;stroke:#000000;stroke-width:2.0px;stroke-linecap:butt;stroke-linejoin:miter;stroke-opacity:1"/>
<path class="bond-63 atom-63 atom-64" d="M 215.7,43.1 L 213.3,45.5" style="fill:none;fill-rule:evenodd;stroke:#000000;stroke-width:2.0px;stroke-linecap:butt;stroke-linejoin:miter;stroke-opacity:1"/>
<path class="bond-63 atom-63 atom-64" d="M 213.3,45.5 L 210.9,47.8" style="fill:none;fill-rule:evenodd;stroke:#FF0000;stroke-width:2.0px;stroke-linecap:butt;stroke-linejoin:miter;stroke-opacity:1"/>
<path class="bond-63 atom-63 atom-64" d="M 216.5,44.7 L 214.5,46.7" style="fill:none;fill-rule:evenodd;stroke:#000000;stroke-width:2.0px;stroke-linecap:butt;stroke-linejoin:miter;stroke-opacity:1"/>
<path class="bond-63 atom-63 atom-64" d="M 214.5,46.7 L 212.1,49.0" style="fill:none;fill-rule:evenodd;stroke:#FF0000;stroke-width:2.0px;stroke-linecap:butt;stroke-linejoin:miter;stroke-opacity:1"/>
<path class="bond-64 atom-63 atom-65" d="M 215.7,44.3 L 219.7,46.5" style="fill:none;fill-rule:evenodd;stroke:#000000;stroke-width:2.0px;stroke-linecap:butt;stroke-linejoin:miter;stroke-opacity:1"/>
<path class="bond-64 atom-63 atom-65" d="M 219.7,46.5 L 223.7,48.8" style="fill:none;fill-rule:evenodd;stroke:#0000FF;stroke-width:2.0px;stroke-linecap:butt;stroke-linejoin:miter;stroke-opacity:1"/>
<path class="bond-65 atom-65 atom-66" d="M 225.7,52.4 L 225.7,56.8" style="fill:none;fill-rule:evenodd;stroke:#0000FF;stroke-width:2.0px;stroke-linecap:butt;stroke-linejoin:miter;stroke-opacity:1"/>
<path class="bond-65 atom-65 atom-66" d="M 225.7,56.8 L 225.7,61.3" style="fill:none;fill-rule:evenodd;stroke:#000000;stroke-width:2.0px;stroke-linecap:butt;stroke-linejoin:miter;stroke-opacity:1"/>
<path class="bond-66 atom-66 atom-67" d="M 225.7,61.3 L 235.6,66.9" style="fill:none;fill-rule:evenodd;stroke:#000000;stroke-width:2.0px;stroke-linecap:butt;stroke-linejoin:miter;stroke-opacity:1"/>
<path class="bond-67 atom-67 atom-68" d="M 235.6,66.9 L 235.7,78.3" style="fill:none;fill-rule:evenodd;stroke:#000000;stroke-width:2.0px;stroke-linecap:butt;stroke-linejoin:miter;stroke-opacity:1"/>
<path class="bond-68 atom-68 atom-69" d="M 235.7,77.1 L 233.2,79.5" style="fill:none;fill-rule:evenodd;stroke:#000000;stroke-width:2.0px;stroke-linecap:butt;stroke-linejoin:miter;stroke-opacity:1"/>
<path class="bond-68 atom-68 atom-69" d="M 233.2,79.5 L 230.8,81.8" style="fill:none;fill-rule:evenodd;stroke:#FF0000;stroke-width:2.0px;stroke-linecap:butt;stroke-linejoin:miter;stroke-opacity:1"/>
<path class="bond-68 atom-68 atom-69" d="M 236.4,78.7 L 234.4,80.7" style="fill:none;fill-rule:evenodd;stroke:#000000;stroke-width:2.0px;stroke-linecap:butt;stroke-linejoin:miter;stroke-opacity:1"/>
<path class="bond-68 atom-68 atom-69" d="M 234.4,80.7 L 232.0,83.0" style="fill:none;fill-rule:evenodd;stroke:#FF0000;stroke-width:2.0px;stroke-linecap:butt;stroke-linejoin:miter;stroke-opacity:1"/>
<path class="bond-69 atom-68 atom-70" d="M 235.7,78.3 L 239.6,80.5" style="fill:none;fill-rule:evenodd;stroke:#000000;stroke-width:2.0px;stroke-linecap:butt;stroke-linejoin:miter;stroke-opacity:1"/>
<path class="bond-69 atom-68 atom-70" d="M 239.6,80.5 L 243.6,82.8" style="fill:none;fill-rule:evenodd;stroke:#0000FF;stroke-width:2.0px;stroke-linecap:butt;stroke-linejoin:miter;stroke-opacity:1"/>
<path class="bond-70 atom-70 atom-71" d="M 245.6,86.4 L 245.6,90.8" style="fill:none;fill-rule:evenodd;stroke:#0000FF;stroke-width:2.0px;stroke-linecap:butt;stroke-linejoin:miter;stroke-opacity:1"/>
<path class="bond-70 atom-70 atom-71" d="M 245.6,90.8 L 245.6,95.3" style="fill:none;fill-rule:evenodd;stroke:#000000;stroke-width:2.0px;stroke-linecap:butt;stroke-linejoin:miter;stroke-opacity:1"/>
<path class="bond-71 atom-71 atom-72" d="M 245.6,95.3 L 255.5,100.9" style="fill:none;fill-rule:evenodd;stroke:#000000;stroke-width:2.0px;stroke-linecap:butt;stroke-linejoin:miter;stroke-opacity:1"/>
<path class="bond-72 atom-72 atom-73" d="M 255.5,100.9 L 255.6,105.4" style="fill:none;fill-rule:evenodd;stroke:#000000;stroke-width:2.0px;stroke-linecap:butt;stroke-linejoin:miter;stroke-opacity:1"/>
<path class="bond-72 atom-72 atom-73" d="M 255.6,105.4 L 255.6,109.8" style="fill:none;fill-rule:evenodd;stroke:#CCCC00;stroke-width:2.0px;stroke-linecap:butt;stroke-linejoin:miter;stroke-opacity:1"/>
<path class="bond-73 atom-73 atom-74" d="M 257.3,113.3 L 261.4,115.6" style="fill:none;fill-rule:evenodd;stroke:#CCCC00;stroke-width:2.0px;stroke-linecap:butt;stroke-linejoin:miter;stroke-opacity:1"/>
<path class="bond-73 atom-73 atom-74" d="M 261.4,115.6 L 265.5,117.9" style="fill:none;fill-rule:evenodd;stroke:#000000;stroke-width:2.0px;stroke-linecap:butt;stroke-linejoin:miter;stroke-opacity:1"/>
<path class="bond-74 atom-74 atom-75" d="M 265.5,117.9 L 265.6,129.3" style="fill:none;fill-rule:evenodd;stroke:#000000;stroke-width:2.0px;stroke-linecap:butt;stroke-linejoin:miter;stroke-opacity:1"/>
<path class="bond-75 atom-74 atom-76" d="M 265.5,118.9 L 269.5,116.6" style="fill:none;fill-rule:evenodd;stroke:#000000;stroke-width:2.0px;stroke-linecap:butt;stroke-linejoin:miter;stroke-opacity:1"/>
<path class="bond-75 atom-74 atom-76" d="M 269.5,116.6 L 273.4,114.2" style="fill:none;fill-rule:evenodd;stroke:#FF0000;stroke-width:2.0px;stroke-linecap:butt;stroke-linejoin:miter;stroke-opacity:1"/>
<path class="bond-75 atom-74 atom-76" d="M 264.7,117.4 L 268.6,115.1" style="fill:none;fill-rule:evenodd;stroke:#000000;stroke-width:2.0px;stroke-linecap:butt;stroke-linejoin:miter;stroke-opacity:1"/>
<path class="bond-75 atom-74 atom-76" d="M 268.6,115.1 L 272.6,112.8" style="fill:none;fill-rule:evenodd;stroke:#FF0000;stroke-width:2.0px;stroke-linecap:butt;stroke-linejoin:miter;stroke-opacity:1"/>
<path class="bond-76 atom-61 atom-77" d="M 215.7,32.9 L 227.1,32.8" style="fill:none;fill-rule:evenodd;stroke:#000000;stroke-width:2.0px;stroke-linecap:butt;stroke-linejoin:miter;stroke-opacity:1"/>
<path class="bond-77 atom-77 atom-78" d="M 227.1,32.8 L 229.9,43.8" style="fill:none;fill-rule:evenodd;stroke:#000000;stroke-width:2.0px;stroke-linecap:butt;stroke-linejoin:miter;stroke-opacity:1"/>
<path class="bond-78 atom-77 atom-79" d="M 227.1,32.8 L 227.0,21.4" style="fill:none;fill-rule:evenodd;stroke:#000000;stroke-width:2.0px;stroke-linecap:butt;stroke-linejoin:miter;stroke-opacity:1"/>
<path class="bond-79 atom-77 atom-80" d="M 227.1,32.8 L 238.4,32.7" style="fill:none;fill-rule:evenodd;stroke:#000000;stroke-width:2.0px;stroke-linecap:butt;stroke-linejoin:miter;stroke-opacity:1"/>
<path class="bond-80 atom-80 atom-81" d="M 238.4,32.7 L 240.5,29.1" style="fill:none;fill-rule:evenodd;stroke:#000000;stroke-width:2.0px;stroke-linecap:butt;stroke-linejoin:miter;stroke-opacity:1"/>
<path class="bond-80 atom-80 atom-81" d="M 240.5,29.1 L 242.6,25.4" style="fill:none;fill-rule:evenodd;stroke:#FF0000;stroke-width:2.0px;stroke-linecap:butt;stroke-linejoin:miter;stroke-opacity:1"/>
<path class="bond-81 atom-81 atom-82" d="M 246.4,22.8 L 250.0,22.8" style="fill:none;fill-rule:evenodd;stroke:#FF0000;stroke-width:2.0px;stroke-linecap:butt;stroke-linejoin:miter;stroke-opacity:1"/>
<path class="bond-81 atom-81 atom-82" d="M 250.0,22.8 L 253.7,22.8" style="fill:none;fill-rule:evenodd;stroke:#FF7F00;stroke-width:2.0px;stroke-linecap:butt;stroke-linejoin:miter;stroke-opacity:1"/>
<path class="bond-82 atom-82 atom-83" d="M 254.6,25.3 L 254.6,28.4" style="fill:none;fill-rule:evenodd;stroke:#FF7F00;stroke-width:2.0px;stroke-linecap:butt;stroke-linejoin:miter;stroke-opacity:1"/>
<path class="bond-82 atom-82 atom-83" d="M 254.6,28.4 L 254.7,31.6" style="fill:none;fill-rule:evenodd;stroke:#FF0000;stroke-width:2.0px;stroke-linecap:butt;stroke-linejoin:miter;stroke-opacity:1"/>
<path class="bond-82 atom-82 atom-83" d="M 256.3,25.2 L 256.3,28.4" style="fill:none;fill-rule:evenodd;stroke:#FF7F00;stroke-width:2.0px;stroke-linecap:butt;stroke-linejoin:miter;stroke-opacity:1"/>
<path class="bond-82 atom-82 atom-83" d="M 256.3,28.4 L 256.3,31.6" style="fill:none;fill-rule:evenodd;stroke:#FF0000;stroke-width:2.0px;stroke-linecap:butt;stroke-linejoin:miter;stroke-opacity:1"/>
<path class="bond-83 atom-82 atom-84" d="M 255.4,20.3 L 255.4,17.1" style="fill:none;fill-rule:evenodd;stroke:#FF7F00;stroke-width:2.0px;stroke-linecap:butt;stroke-linejoin:miter;stroke-opacity:1"/>
<path class="bond-83 atom-82 atom-84" d="M 255.4,17.1 L 255.4,14.0" style="fill:none;fill-rule:evenodd;stroke:#FF0000;stroke-width:2.0px;stroke-linecap:butt;stroke-linejoin:miter;stroke-opacity:1"/>
<path class="bond-84 atom-82 atom-85" d="M 257.2,22.7 L 260.8,22.7" style="fill:none;fill-rule:evenodd;stroke:#FF7F00;stroke-width:2.0px;stroke-linecap:butt;stroke-linejoin:miter;stroke-opacity:1"/>
<path class="bond-84 atom-82 atom-85" d="M 260.8,22.7 L 264.5,22.7" style="fill:none;fill-rule:evenodd;stroke:#FF0000;stroke-width:2.0px;stroke-linecap:butt;stroke-linejoin:miter;stroke-opacity:1"/>
<path class="bond-85 atom-85 atom-86" d="M 268.3,25.3 L 269.7,27.6" style="fill:none;fill-rule:evenodd;stroke:#FF0000;stroke-width:2.0px;stroke-linecap:butt;stroke-linejoin:miter;stroke-opacity:1"/>
<path class="bond-85 atom-85 atom-86" d="M 269.7,27.6 L 271.1,30.0" style="fill:none;fill-rule:evenodd;stroke:#FF7F00;stroke-width:2.0px;stroke-linecap:butt;stroke-linejoin:miter;stroke-opacity:1"/>
<path class="bond-86 atom-86 atom-87" d="M 274.7,32.2 L 277.6,30.5" style="fill:none;fill-rule:evenodd;stroke:#FF7F00;stroke-width:2.0px;stroke-linecap:butt;stroke-linejoin:miter;stroke-opacity:1"/>
<path class="bond-86 atom-86 atom-87" d="M 277.6,30.5 L 280.5,28.8" style="fill:none;fill-rule:evenodd;stroke:#FF0000;stroke-width:2.0px;stroke-linecap:butt;stroke-linejoin:miter;stroke-opacity:1"/>
<path class="bond-86 atom-86 atom-87" d="M 273.9,30.8 L 276.8,29.1" style="fill:none;fill-rule:evenodd;stroke:#FF7F00;stroke-width:2.0px;stroke-linecap:butt;stroke-linejoin:miter;stroke-opacity:1"/>
<path class="bond-86 atom-86 atom-87" d="M 276.8,29.1 L 279.6,27.4" style="fill:none;fill-rule:evenodd;stroke:#FF0000;stroke-width:2.0px;stroke-linecap:butt;stroke-linejoin:miter;stroke-opacity:1"/>
<path class="bond-87 atom-86 atom-88" d="M 270.9,33.5 L 268.0,35.2" style="fill:none;fill-rule:evenodd;stroke:#FF7F00;stroke-width:2.0px;stroke-linecap:butt;stroke-linejoin:miter;stroke-opacity:1"/>
<path class="bond-87 atom-86 atom-88" d="M 268.0,35.2 L 265.1,36.9" style="fill:none;fill-rule:evenodd;stroke:#FF0000;stroke-width:2.0px;stroke-linecap:butt;stroke-linejoin:miter;stroke-opacity:1"/>
<path class="bond-88 atom-86 atom-89" d="M 274.0,35.0 L 275.4,37.4" style="fill:none;fill-rule:evenodd;stroke:#FF7F00;stroke-width:2.0px;stroke-linecap:butt;stroke-linejoin:miter;stroke-opacity:1"/>
<path class="bond-88 atom-86 atom-89" d="M 275.4,37.4 L 276.9,39.8" style="fill:none;fill-rule:evenodd;stroke:#FF0000;stroke-width:2.0px;stroke-linecap:butt;stroke-linejoin:miter;stroke-opacity:1"/>
<path class="bond-89 atom-89 atom-90" d="M 276.9,44.9 L 274.8,48.6" style="fill:none;fill-rule:evenodd;stroke:#FF0000;stroke-width:2.0px;stroke-linecap:butt;stroke-linejoin:miter;stroke-opacity:1"/>
<path class="bond-89 atom-89 atom-90" d="M 274.8,48.6 L 272.7,52.2" style="fill:none;fill-rule:evenodd;stroke:#000000;stroke-width:2.0px;stroke-linecap:butt;stroke-linejoin:miter;stroke-opacity:1"/>
<path class="bond-90 atom-90 atom-91" d="M 272.7,52.2 L 278.5,62.0" style="fill:none;fill-rule:evenodd;stroke:#000000;stroke-width:2.0px;stroke-linecap:butt;stroke-linejoin:miter;stroke-opacity:1"/>
<path class="bond-91 atom-91 atom-92" d="M 278.5,62.0 L 283.0,62.5" style="fill:none;fill-rule:evenodd;stroke:#000000;stroke-width:2.0px;stroke-linecap:butt;stroke-linejoin:miter;stroke-opacity:1"/>
<path class="bond-91 atom-91 atom-92" d="M 283.0,62.5 L 287.5,62.9" style="fill:none;fill-rule:evenodd;stroke:#FF0000;stroke-width:2.0px;stroke-linecap:butt;stroke-linejoin:miter;stroke-opacity:1"/>
<path class="bond-92 atom-92 atom-93" d="M 290.4,65.7 L 291.3,70.0" style="fill:none;fill-rule:evenodd;stroke:#FF0000;stroke-width:2.0px;stroke-linecap:butt;stroke-linejoin:miter;stroke-opacity:1"/>
<path class="bond-92 atom-92 atom-93" d="M 291.3,70.0 L 292.2,74.3" style="fill:none;fill-rule:evenodd;stroke:#000000;stroke-width:2.0px;stroke-linecap:butt;stroke-linejoin:miter;stroke-opacity:1"/>
<path class="bond-93 atom-93 atom-94" d="M 292.2,74.3 L 296.4,76.1" style="fill:none;fill-rule:evenodd;stroke:#000000;stroke-width:2.0px;stroke-linecap:butt;stroke-linejoin:miter;stroke-opacity:1"/>
<path class="bond-93 atom-93 atom-94" d="M 296.4,76.1 L 300.7,78.0" style="fill:none;fill-rule:evenodd;stroke:#0000FF;stroke-width:2.0px;stroke-linecap:butt;stroke-linejoin:miter;stroke-opacity:1"/>
<path class="bond-94 atom-94 atom-95" d="M 303.2,81.3 L 304.1,85.6" style="fill:none;fill-rule:evenodd;stroke:#0000FF;stroke-width:2.0px;stroke-linecap:butt;stroke-linejoin:miter;stroke-opacity:1"/>
<path class="bond-94 atom-94 atom-95" d="M 304.1,85.6 L 305.1,89.9" style="fill:none;fill-rule:evenodd;stroke:#000000;stroke-width:2.0px;stroke-linecap:butt;stroke-linejoin:miter;stroke-opacity:1"/>
<path class="bond-95 atom-95 atom-96" d="M 305.1,89.9 L 309.8,90.4" style="fill:none;fill-rule:evenodd;stroke:#000000;stroke-width:2.0px;stroke-linecap:butt;stroke-linejoin:miter;stroke-opacity:1"/>
<path class="bond-95 atom-95 atom-96" d="M 309.8,90.4 L 314.4,90.9" style="fill:none;fill-rule:evenodd;stroke:#0000FF;stroke-width:2.0px;stroke-linecap:butt;stroke-linejoin:miter;stroke-opacity:1"/>
<path class="bond-95 atom-95 atom-96" d="M 306.5,88.4 L 310.5,88.8" style="fill:none;fill-rule:evenodd;stroke:#000000;stroke-width:2.0px;stroke-linecap:butt;stroke-linejoin:miter;stroke-opacity:1"/>
<path class="bond-95 atom-95 atom-96" d="M 310.5,88.8 L 314.6,89.2" style="fill:none;fill-rule:evenodd;stroke:#0000FF;stroke-width:2.0px;stroke-linecap:butt;stroke-linejoin:miter;stroke-opacity:1"/>
<path class="bond-96 atom-96 atom-97" d="M 317.5,88.6 L 319.2,84.6" style="fill:none;fill-rule:evenodd;stroke:#0000FF;stroke-width:2.0px;stroke-linecap:butt;stroke-linejoin:miter;stroke-opacity:1"/>
<path class="bond-96 atom-96 atom-97" d="M 319.2,84.6 L 321.0,80.6" style="fill:none;fill-rule:evenodd;stroke:#000000;stroke-width:2.0px;stroke-linecap:butt;stroke-linejoin:miter;stroke-opacity:1"/>
<path class="bond-97 atom-97 atom-98" d="M 321.0,80.6 L 331.8,77.0" style="fill:none;fill-rule:evenodd;stroke:#000000;stroke-width:2.0px;stroke-linecap:butt;stroke-linejoin:miter;stroke-opacity:1"/>
<path class="bond-97 atom-97 atom-98" d="M 321.4,78.7 L 330.3,75.8" style="fill:none;fill-rule:evenodd;stroke:#000000;stroke-width:2.0px;stroke-linecap:butt;stroke-linejoin:miter;stroke-opacity:1"/>
<path class="bond-98 atom-98 atom-99" d="M 331.8,77.0 L 335.0,79.9" style="fill:none;fill-rule:evenodd;stroke:#000000;stroke-width:2.0px;stroke-linecap:butt;stroke-linejoin:miter;stroke-opacity:1"/>
<path class="bond-98 atom-98 atom-99" d="M 335.0,79.9 L 338.3,82.8" style="fill:none;fill-rule:evenodd;stroke:#0000FF;stroke-width:2.0px;stroke-linecap:butt;stroke-linejoin:miter;stroke-opacity:1"/>
<path class="bond-99 atom-98 atom-100" d="M 331.8,77.0 L 332.7,72.7" style="fill:none;fill-rule:evenodd;stroke:#000000;stroke-width:2.0px;stroke-linecap:butt;stroke-linejoin:miter;stroke-opacity:1"/>
<path class="bond-99 atom-98 atom-100" d="M 332.7,72.7 L 333.6,68.4" style="fill:none;fill-rule:evenodd;stroke:#0000FF;stroke-width:2.0px;stroke-linecap:butt;stroke-linejoin:miter;stroke-opacity:1"/>
<path class="bond-100 atom-100 atom-101" d="M 332.1,64.1 L 328.8,61.2" style="fill:none;fill-rule:evenodd;stroke:#0000FF;stroke-width:2.0px;stroke-linecap:butt;stroke-linejoin:miter;stroke-opacity:1"/>
<path class="bond-100 atom-100 atom-101" d="M 328.8,61.2 L 325.6,58.3" style="fill:none;fill-rule:evenodd;stroke:#000000;stroke-width:2.0px;stroke-linecap:butt;stroke-linejoin:miter;stroke-opacity:1"/>
<path class="bond-100 atom-100 atom-101" d="M 331.0,65.4 L 328.1,62.8" style="fill:none;fill-rule:evenodd;stroke:#0000FF;stroke-width:2.0px;stroke-linecap:butt;stroke-linejoin:miter;stroke-opacity:1"/>
<path class="bond-100 atom-100 atom-101" d="M 328.1,62.8 L 325.2,60.2" style="fill:none;fill-rule:evenodd;stroke:#000000;stroke-width:2.0px;stroke-linecap:butt;stroke-linejoin:miter;stroke-opacity:1"/>
<path class="bond-101 atom-101 atom-102" d="M 325.6,58.3 L 321.2,59.8" style="fill:none;fill-rule:evenodd;stroke:#000000;stroke-width:2.0px;stroke-linecap:butt;stroke-linejoin:miter;stroke-opacity:1"/>
<path class="bond-101 atom-101 atom-102" d="M 321.2,59.8 L 316.7,61.3" style="fill:none;fill-rule:evenodd;stroke:#0000FF;stroke-width:2.0px;stroke-linecap:butt;stroke-linejoin:miter;stroke-opacity:1"/>
<path class="bond-102 atom-102 atom-103" d="M 314.3,64.4 L 313.4,68.7" style="fill:none;fill-rule:evenodd;stroke:#0000FF;stroke-width:2.0px;stroke-linecap:butt;stroke-linejoin:miter;stroke-opacity:1"/>
<path class="bond-102 atom-102 atom-103" d="M 313.4,68.7 L 312.5,73.1" style="fill:none;fill-rule:evenodd;stroke:#000000;stroke-width:2.0px;stroke-linecap:butt;stroke-linejoin:miter;stroke-opacity:1"/>
<path class="bond-102 atom-102 atom-103" d="M 315.9,64.8 L 315.1,68.6" style="fill:none;fill-rule:evenodd;stroke:#0000FF;stroke-width:2.0px;stroke-linecap:butt;stroke-linejoin:miter;stroke-opacity:1"/>
<path class="bond-102 atom-102 atom-103" d="M 315.1,68.6 L 314.3,72.5" style="fill:none;fill-rule:evenodd;stroke:#000000;stroke-width:2.0px;stroke-linecap:butt;stroke-linejoin:miter;stroke-opacity:1"/>
<path class="bond-103 atom-93 atom-104" d="M 292.2,74.3 L 282.4,80.0" style="fill:none;fill-rule:evenodd;stroke:#000000;stroke-width:2.0px;stroke-linecap:butt;stroke-linejoin:miter;stroke-opacity:1"/>
<path class="bond-104 atom-104 atom-105" d="M 282.4,80.0 L 282.0,84.4" style="fill:none;fill-rule:evenodd;stroke:#000000;stroke-width:2.0px;stroke-linecap:butt;stroke-linejoin:miter;stroke-opacity:1"/>
<path class="bond-104 atom-104 atom-105" d="M 282.0,84.4 L 281.5,88.8" style="fill:none;fill-rule:evenodd;stroke:#FF0000;stroke-width:2.0px;stroke-linecap:butt;stroke-linejoin:miter;stroke-opacity:1"/>
<path class="bond-105 atom-104 atom-106" d="M 282.4,80.0 L 273.9,72.5" style="fill:none;fill-rule:evenodd;stroke:#000000;stroke-width:2.0px;stroke-linecap:butt;stroke-linejoin:miter;stroke-opacity:1"/>
<path class="bond-106 atom-106 atom-107" d="M 273.9,72.5 L 269.5,73.4" style="fill:none;fill-rule:evenodd;stroke:#000000;stroke-width:2.0px;stroke-linecap:butt;stroke-linejoin:miter;stroke-opacity:1"/>
<path class="bond-106 atom-106 atom-107" d="M 269.5,73.4 L 265.1,74.4" style="fill:none;fill-rule:evenodd;stroke:#FF0000;stroke-width:2.0px;stroke-linecap:butt;stroke-linejoin:miter;stroke-opacity:1"/>
<path class="bond-107 atom-107 atom-108" d="M 260.5,72.4 L 258.7,70.4" style="fill:none;fill-rule:evenodd;stroke:#FF0000;stroke-width:2.0px;stroke-linecap:butt;stroke-linejoin:miter;stroke-opacity:1"/>
<path class="bond-107 atom-107 atom-108" d="M 258.7,70.4 L 256.8,68.4" style="fill:none;fill-rule:evenodd;stroke:#FF7F00;stroke-width:2.0px;stroke-linecap:butt;stroke-linejoin:miter;stroke-opacity:1"/>
<path class="bond-108 atom-108 atom-109" d="M 252.8,67.4 L 250.6,69.4" style="fill:none;fill-rule:evenodd;stroke:#FF7F00;stroke-width:2.0px;stroke-linecap:butt;stroke-linejoin:miter;stroke-opacity:1"/>
<path class="bond-108 atom-108 atom-109" d="M 250.6,69.4 L 248.5,71.4" style="fill:none;fill-rule:evenodd;stroke:#FF0000;stroke-width:2.0px;stroke-linecap:butt;stroke-linejoin:miter;stroke-opacity:1"/>
<path class="bond-108 atom-108 atom-109" d="M 254.0,68.7 L 251.8,70.7" style="fill:none;fill-rule:evenodd;stroke:#FF7F00;stroke-width:2.0px;stroke-linecap:butt;stroke-linejoin:miter;stroke-opacity:1"/>
<path class="bond-108 atom-108 atom-109" d="M 251.8,70.7 L 249.6,72.7" style="fill:none;fill-rule:evenodd;stroke:#FF0000;stroke-width:2.0px;stroke-linecap:butt;stroke-linejoin:miter;stroke-opacity:1"/>
<path class="bond-109 atom-108 atom-110" d="M 256.8,64.9 L 259.0,62.9" style="fill:none;fill-rule:evenodd;stroke:#FF7F00;stroke-width:2.0px;stroke-linecap:butt;stroke-linejoin:miter;stroke-opacity:1"/>
<path class="bond-109 atom-108 atom-110" d="M 259.0,62.9 L 261.2,60.9" style="fill:none;fill-rule:evenodd;stroke:#FF0000;stroke-width:2.0px;stroke-linecap:butt;stroke-linejoin:miter;stroke-opacity:1"/>
<path class="bond-110 atom-108 atom-111" d="M 253.4,64.6 L 251.6,62.6" style="fill:none;fill-rule:evenodd;stroke:#FF7F00;stroke-width:2.0px;stroke-linecap:butt;stroke-linejoin:miter;stroke-opacity:1"/>
<path class="bond-110 atom-108 atom-111" d="M 251.6,62.6 L 249.8,60.6" style="fill:none;fill-rule:evenodd;stroke:#FF0000;stroke-width:2.0px;stroke-linecap:butt;stroke-linejoin:miter;stroke-opacity:1"/>
<path class="bond-111 atom-52 atom-37" d="M 187.9,123.0 L 199.2,121.7" style="fill:none;fill-rule:evenodd;stroke:#000000;stroke-width:2.0px;stroke-linecap:butt;stroke-linejoin:miter;stroke-opacity:1"/>
<path class="bond-112 atom-106 atom-91" d="M 273.9,72.5 L 278.5,62.0" style="fill:none;fill-rule:evenodd;stroke:#000000;stroke-width:2.0px;stroke-linecap:butt;stroke-linejoin:miter;stroke-opacity:1"/>
<path class="bond-113 atom-49 atom-40" d="M 206.6,156.7 L 202.7,154.4" style="fill:none;fill-rule:evenodd;stroke:#000000;stroke-width:2.0px;stroke-linecap:butt;stroke-linejoin:miter;stroke-opacity:1"/>
<path class="bond-113 atom-49 atom-40" d="M 202.7,154.4 L 198.7,152.2" style="fill:none;fill-rule:evenodd;stroke:#0000FF;stroke-width:2.0px;stroke-linecap:butt;stroke-linejoin:miter;stroke-opacity:1"/>
<path class="bond-114 atom-103 atom-94" d="M 312.5,73.1 L 308.6,75.4" style="fill:none;fill-rule:evenodd;stroke:#000000;stroke-width:2.0px;stroke-linecap:butt;stroke-linejoin:miter;stroke-opacity:1"/>
<path class="bond-114 atom-103 atom-94" d="M 308.6,75.4 L 304.6,77.7" style="fill:none;fill-rule:evenodd;stroke:#0000FF;stroke-width:2.0px;stroke-linecap:butt;stroke-linejoin:miter;stroke-opacity:1"/>
<path class="bond-115 atom-49 atom-43" d="M 206.6,156.7 L 204.3,167.8" style="fill:none;fill-rule:evenodd;stroke:#000000;stroke-width:2.0px;stroke-linecap:butt;stroke-linejoin:miter;stroke-opacity:1"/>
<path class="bond-116 atom-103 atom-97" d="M 312.5,73.1 L 321.0,80.6" style="fill:none;fill-rule:evenodd;stroke:#000000;stroke-width:2.0px;stroke-linecap:butt;stroke-linejoin:miter;stroke-opacity:1"/>
<path d="M 192.6,33.5 L 192.9,33.0 L 193.5,33.0" style="fill:none;stroke:#000000;stroke-width:2.0px;stroke-linecap:butt;stroke-linejoin:miter;stroke-opacity:1;"/>
<path d="M 176.5,43.0 L 175.9,43.0 L 175.6,42.5" style="fill:none;stroke:#000000;stroke-width:2.0px;stroke-linecap:butt;stroke-linejoin:miter;stroke-opacity:1;"/>
<path d="M 170.4,33.7 L 170.1,33.2 L 169.9,33.2" style="fill:none;stroke:#000000;stroke-width:2.0px;stroke-linecap:butt;stroke-linejoin:miter;stroke-opacity:1;"/>
<path d="M 183.7,58.2 L 183.2,58.5 L 183.0,58.4" style="fill:none;stroke:#000000;stroke-width:2.0px;stroke-linecap:butt;stroke-linejoin:miter;stroke-opacity:1;"/>
<path d="M 163.7,58.5 L 163.5,58.6 L 163.0,58.3" style="fill:none;stroke:#000000;stroke-width:2.0px;stroke-linecap:butt;stroke-linejoin:miter;stroke-opacity:1;"/>
<path d="M 154.1,53.3 L 153.6,53.0 L 153.1,53.3" style="fill:none;stroke:#000000;stroke-width:2.0px;stroke-linecap:butt;stroke-linejoin:miter;stroke-opacity:1;"/>
<path d="M 144.3,58.5 L 143.8,58.7 L 143.6,58.6" style="fill:none;stroke:#000000;stroke-width:2.0px;stroke-linecap:butt;stroke-linejoin:miter;stroke-opacity:1;"/>
<path d="M 124.3,58.8 L 124.1,58.9 L 123.6,58.6" style="fill:none;stroke:#000000;stroke-width:2.0px;stroke-linecap:butt;stroke-linejoin:miter;stroke-opacity:1;"/>
<path d="M 114.7,53.5 L 114.2,53.2 L 114.0,53.4" style="fill:none;stroke:#000000;stroke-width:2.0px;stroke-linecap:butt;stroke-linejoin:miter;stroke-opacity:1;"/>
<path d="M 94.7,53.5 L 94.5,53.4 L 94.0,53.7" style="fill:none;stroke:#000000;stroke-width:2.0px;stroke-linecap:butt;stroke-linejoin:miter;stroke-opacity:1;"/>
<path d="M 204.3,71.9 L 204.5,72.4 L 204.8,72.4" style="fill:none;stroke:#000000;stroke-width:2.0px;stroke-linecap:butt;stroke-linejoin:miter;stroke-opacity:1;"/>
<path d="M 205.0,111.8 L 204.8,111.8 L 204.5,112.3" style="fill:none;stroke:#000000;stroke-width:2.0px;stroke-linecap:butt;stroke-linejoin:miter;stroke-opacity:1;"/>
<path d="M 188.5,158.6 L 188.3,158.7 L 188.4,158.9" style="fill:none;stroke:#000000;stroke-width:2.0px;stroke-linecap:butt;stroke-linejoin:miter;stroke-opacity:1;"/>
<path d="M 225.9,160.9 L 225.9,160.6 L 225.8,160.5" style="fill:none;stroke:#000000;stroke-width:2.0px;stroke-linecap:butt;stroke-linejoin:miter;stroke-opacity:1;"/>
<path d="M 215.7,43.7 L 215.7,44.3 L 215.9,44.4" style="fill:none;stroke:#000000;stroke-width:2.0px;stroke-linecap:butt;stroke-linejoin:miter;stroke-opacity:1;"/>
<path d="M 225.7,61.0 L 225.7,61.3 L 226.2,61.5" style="fill:none;stroke:#000000;stroke-width:2.0px;stroke-linecap:butt;stroke-linejoin:miter;stroke-opacity:1;"/>
<path d="M 235.1,66.6 L 235.6,66.9 L 235.6,67.5" style="fill:none;stroke:#000000;stroke-width:2.0px;stroke-linecap:butt;stroke-linejoin:miter;stroke-opacity:1;"/>
<path d="M 235.7,77.7 L 235.7,78.3 L 235.9,78.4" style="fill:none;stroke:#000000;stroke-width:2.0px;stroke-linecap:butt;stroke-linejoin:miter;stroke-opacity:1;"/>
<path d="M 245.6,95.1 L 245.6,95.3 L 246.1,95.6" style="fill:none;stroke:#000000;stroke-width:2.0px;stroke-linecap:butt;stroke-linejoin:miter;stroke-opacity:1;"/>
<path d="M 255.0,100.6 L 255.5,100.9 L 255.5,101.1" style="fill:none;stroke:#000000;stroke-width:2.0px;stroke-linecap:butt;stroke-linejoin:miter;stroke-opacity:1;"/>
<path d="M 265.3,117.8 L 265.5,117.9 L 265.5,118.5" style="fill:none;stroke:#000000;stroke-width:2.0px;stroke-linecap:butt;stroke-linejoin:miter;stroke-opacity:1;"/>
<path d="M 237.9,32.7 L 238.4,32.7 L 238.5,32.5" style="fill:none;stroke:#000000;stroke-width:2.0px;stroke-linecap:butt;stroke-linejoin:miter;stroke-opacity:1;"/>
<path d="M 272.8,52.0 L 272.7,52.2 L 273.0,52.7" style="fill:none;stroke:#000000;stroke-width:2.0px;stroke-linecap:butt;stroke-linejoin:miter;stroke-opacity:1;"/>
<path d="M 305.0,89.7 L 305.1,89.9 L 305.3,90.0" style="fill:none;stroke:#000000;stroke-width:2.0px;stroke-linecap:butt;stroke-linejoin:miter;stroke-opacity:1;"/>
<path d="M 325.7,58.5 L 325.6,58.3 L 325.3,58.4" style="fill:none;stroke:#000000;stroke-width:2.0px;stroke-linecap:butt;stroke-linejoin:miter;stroke-opacity:1;"/>
<path class="atom-5" d="M 173.8 23.3 Q 173.8 22.3, 174.3 21.7 Q 174.8 21.1, 175.8 21.1 Q 176.7 21.1, 177.2 21.7 Q 177.7 22.3, 177.7 23.3 Q 177.7 24.3, 177.2 24.9 Q 176.7 25.5, 175.8 25.5 Q 174.8 25.5, 174.3 24.9 Q 173.8 24.3, 173.8 23.3 M 175.8 25.0 Q 176.4 25.0, 176.8 24.6 Q 177.1 24.1, 177.1 23.3 Q 177.1 22.5, 176.8 22.0 Q 176.4 21.6, 175.8 21.6 Q 175.1 21.6, 174.8 22.0 Q 174.4 22.4, 174.4 23.3 Q 174.4 24.1, 174.8 24.6 Q 175.1 25.0, 175.8 25.0 " fill="#FF0000"/>
<path class="atom-6" d="M 152.6 31.1 L 153.2 31.1 L 153.2 32.9 L 155.4 32.9 L 155.4 31.1 L 155.9 31.1 L 155.9 35.4 L 155.4 35.4 L 155.4 33.4 L 153.2 33.4 L 153.2 35.4 L 152.6 35.4 L 152.6 31.1 " fill="#FF0000"/>
<path class="atom-6" d="M 156.8 33.3 Q 156.8 32.2, 157.3 31.7 Q 157.8 31.1, 158.8 31.1 Q 159.7 31.1, 160.2 31.7 Q 160.7 32.2, 160.7 33.3 Q 160.7 34.3, 160.2 34.9 Q 159.7 35.5, 158.8 35.5 Q 157.8 35.5, 157.3 34.9 Q 156.8 34.3, 156.8 33.3 M 158.8 35.0 Q 159.4 35.0, 159.8 34.5 Q 160.1 34.1, 160.1 33.3 Q 160.1 32.4, 159.8 32.0 Q 159.4 31.6, 158.8 31.6 Q 158.1 31.6, 157.8 32.0 Q 157.4 32.4, 157.4 33.3 Q 157.4 34.1, 157.8 34.5 Q 158.1 35.0, 158.8 35.0 " fill="#FF0000"/>
<path class="atom-8" d="M 199.0 50.4 Q 199.0 49.4, 199.6 48.8 Q 200.1 48.2, 201.0 48.2 Q 201.9 48.2, 202.4 48.8 Q 202.9 49.4, 202.9 50.4 Q 202.9 51.4, 202.4 52.0 Q 201.9 52.6, 201.0 52.6 Q 200.1 52.6, 199.6 52.0 Q 199.0 51.4, 199.0 50.4 M 201.0 52.1 Q 201.6 52.1, 202.0 51.7 Q 202.3 51.3, 202.3 50.4 Q 202.3 49.6, 202.0 49.2 Q 201.6 48.7, 201.0 48.7 Q 200.3 48.7, 200.0 49.1 Q 199.6 49.6, 199.6 50.4 Q 199.6 51.3, 200.0 51.7 Q 200.3 52.1, 201.0 52.1 " fill="#FF0000"/>
<path class="atom-8" d="M 203.6 48.3 L 204.2 48.3 L 204.2 50.1 L 206.4 50.1 L 206.4 48.3 L 206.9 48.3 L 206.9 52.5 L 206.4 52.5 L 206.4 50.6 L 204.2 50.6 L 204.2 52.5 L 203.6 52.5 L 203.6 48.3 " fill="#FF0000"/>
<path class="atom-10" d="M 180.0 69.8 Q 180.0 68.8, 180.5 68.2 Q 181.0 67.6, 181.9 67.6 Q 182.8 67.6, 183.3 68.2 Q 183.9 68.8, 183.9 69.8 Q 183.9 70.8, 183.3 71.4 Q 182.8 72.0, 181.9 72.0 Q 181.0 72.0, 180.5 71.4 Q 180.0 70.8, 180.0 69.8 M 181.9 71.5 Q 182.6 71.5, 182.9 71.1 Q 183.3 70.7, 183.3 69.8 Q 183.3 69.0, 182.9 68.6 Q 182.6 68.1, 181.9 68.1 Q 181.3 68.1, 180.9 68.5 Q 180.6 69.0, 180.6 69.8 Q 180.6 70.7, 180.9 71.1 Q 181.3 71.5, 181.9 71.5 " fill="#FF0000"/>
<path class="atom-11" d="M 172.4 50.7 L 173.8 53.0 Q 173.9 53.2, 174.1 53.6 Q 174.4 54.0, 174.4 54.0 L 174.4 50.7 L 174.9 50.7 L 174.9 55.0 L 174.4 55.0 L 172.9 52.5 Q 172.7 52.2, 172.5 51.9 Q 172.3 51.6, 172.3 51.5 L 172.3 55.0 L 171.7 55.0 L 171.7 50.7 L 172.4 50.7 " fill="#0000FF"/>
<path class="atom-11" d="M 171.7 46.1 L 172.2 46.1 L 172.2 47.9 L 174.4 47.9 L 174.4 46.1 L 175.0 46.1 L 175.0 50.3 L 174.4 50.3 L 174.4 48.4 L 172.2 48.4 L 172.2 50.3 L 171.7 50.3 L 171.7 46.1 " fill="#0000FF"/>
<path class="atom-15" d="M 141.9 70.1 Q 141.9 69.1, 142.4 68.5 Q 142.9 68.0, 143.9 68.0 Q 144.8 68.0, 145.3 68.5 Q 145.8 69.1, 145.8 70.1 Q 145.8 71.2, 145.3 71.8 Q 144.8 72.3, 143.9 72.3 Q 142.9 72.3, 142.4 71.8 Q 141.9 71.2, 141.9 70.1 M 143.9 71.9 Q 144.5 71.9, 144.9 71.4 Q 145.2 71.0, 145.2 70.1 Q 145.2 69.3, 144.9 68.9 Q 144.5 68.5, 143.9 68.5 Q 143.2 68.5, 142.9 68.9 Q 142.5 69.3, 142.5 70.1 Q 142.5 71.0, 142.9 71.4 Q 143.2 71.9, 143.9 71.9 " fill="#FF0000"/>
<path class="atom-16" d="M 133.0 51.0 L 134.4 53.2 Q 134.5 53.5, 134.7 53.9 Q 134.9 54.3, 134.9 54.3 L 134.9 51.0 L 135.5 51.0 L 135.5 55.2 L 134.9 55.2 L 133.4 52.8 Q 133.3 52.5, 133.1 52.2 Q 132.9 51.8, 132.8 51.7 L 132.8 55.2 L 132.3 55.2 L 132.3 51.0 L 133.0 51.0 " fill="#0000FF"/>
<path class="atom-16" d="M 132.2 46.3 L 132.8 46.3 L 132.8 48.1 L 135.0 48.1 L 135.0 46.3 L 135.6 46.3 L 135.6 50.6 L 135.0 50.6 L 135.0 48.6 L 132.8 48.6 L 132.8 50.6 L 132.2 50.6 L 132.2 46.3 " fill="#0000FF"/>
<path class="atom-19" d="M 103.2 60.5 Q 103.2 60.5, 103.4 60.6 Q 103.6 60.6, 103.8 60.7 Q 104.0 60.7, 104.3 60.7 Q 104.7 60.7, 104.9 60.6 Q 105.1 60.4, 105.1 60.0 Q 105.1 59.8, 105.0 59.6 Q 104.9 59.5, 104.7 59.4 Q 104.5 59.3, 104.2 59.2 Q 103.9 59.1, 103.6 59.0 Q 103.4 58.9, 103.2 58.7 Q 103.1 58.5, 103.1 58.1 Q 103.1 57.5, 103.5 57.2 Q 103.8 56.9, 104.5 56.9 Q 105.0 56.9, 105.6 57.1 L 105.5 57.6 Q 104.9 57.4, 104.6 57.4 Q 104.1 57.4, 103.9 57.5 Q 103.7 57.7, 103.7 58.0 Q 103.7 58.2, 103.8 58.4 Q 103.9 58.5, 104.1 58.6 Q 104.3 58.7, 104.6 58.8 Q 104.9 58.9, 105.2 59.0 Q 105.4 59.1, 105.6 59.4 Q 105.7 59.6, 105.7 60.0 Q 105.7 60.6, 105.3 60.9 Q 104.9 61.2, 104.3 61.2 Q 103.9 61.2, 103.6 61.1 Q 103.3 61.1, 103.0 60.9 L 103.2 60.5 " fill="#CCCC00"/>
<path class="atom-22" d="M 92.4 42.0 Q 92.4 41.0, 93.0 40.4 Q 93.5 39.8, 94.4 39.8 Q 95.3 39.8, 95.8 40.4 Q 96.3 41.0, 96.3 42.0 Q 96.3 43.0, 95.8 43.6 Q 95.3 44.2, 94.4 44.2 Q 93.5 44.2, 93.0 43.6 Q 92.4 43.0, 92.4 42.0 M 94.4 43.7 Q 95.0 43.7, 95.4 43.3 Q 95.7 42.9, 95.7 42.0 Q 95.7 41.2, 95.4 40.8 Q 95.0 40.3, 94.4 40.3 Q 93.8 40.3, 93.4 40.7 Q 93.0 41.2, 93.0 42.0 Q 93.0 42.9, 93.4 43.3 Q 93.8 43.7, 94.4 43.7 " fill="#FF0000"/>
<path class="atom-27" d="M 214.0 72.3 Q 214.0 71.3, 214.5 70.7 Q 215.0 70.2, 215.9 70.2 Q 216.9 70.2, 217.4 70.7 Q 217.9 71.3, 217.9 72.3 Q 217.9 73.3, 217.4 73.9 Q 216.9 74.5, 215.9 74.5 Q 215.0 74.5, 214.5 73.9 Q 214.0 73.3, 214.0 72.3 M 215.9 74.0 Q 216.6 74.0, 216.9 73.6 Q 217.3 73.2, 217.3 72.3 Q 217.3 71.5, 216.9 71.1 Q 216.6 70.6, 215.9 70.6 Q 215.3 70.6, 214.9 71.1 Q 214.6 71.5, 214.6 72.3 Q 214.6 73.2, 214.9 73.6 Q 215.3 74.0, 215.9 74.0 " fill="#FF0000"/>
<path class="atom-28" d="M 221.6 80.0 Q 222.3 80.0, 222.7 80.3 Q 223.0 80.6, 223.0 81.2 Q 223.0 81.8, 222.7 82.2 Q 222.3 82.5, 221.6 82.5 L 220.9 82.5 L 220.9 84.2 L 220.3 84.2 L 220.3 80.0 L 221.6 80.0 M 221.6 82.0 Q 222.0 82.0, 222.2 81.8 Q 222.4 81.6, 222.4 81.2 Q 222.4 80.9, 222.2 80.7 Q 222.0 80.5, 221.6 80.5 L 220.9 80.5 L 220.9 82.0 L 221.6 82.0 " fill="#FF7F00"/>
<path class="atom-29" d="M 225.5 80.4 Q 225.5 79.4, 226.0 78.8 Q 226.5 78.3, 227.5 78.3 Q 228.4 78.3, 228.9 78.8 Q 229.4 79.4, 229.4 80.4 Q 229.4 81.5, 228.9 82.0 Q 228.4 82.6, 227.5 82.6 Q 226.5 82.6, 226.0 82.0 Q 225.5 81.5, 225.5 80.4 M 227.5 82.1 Q 228.1 82.1, 228.5 81.7 Q 228.8 81.3, 228.8 80.4 Q 228.8 79.6, 228.5 79.2 Q 228.1 78.7, 227.5 78.7 Q 226.8 78.7, 226.5 79.2 Q 226.1 79.6, 226.1 80.4 Q 226.1 81.3, 226.5 81.7 Q 226.8 82.1, 227.5 82.1 " fill="#FF0000"/>
<path class="atom-30" d="M 205.7 85.8 L 206.3 85.8 L 206.3 87.6 L 208.5 87.6 L 208.5 85.8 L 209.0 85.8 L 209.0 90.0 L 208.5 90.0 L 208.5 88.1 L 206.3 88.1 L 206.3 90.0 L 205.7 90.0 L 205.7 85.8 " fill="#FF0000"/>
<path class="atom-30" d="M 209.9 87.9 Q 209.9 86.9, 210.4 86.3 Q 210.9 85.7, 211.9 85.7 Q 212.8 85.7, 213.3 86.3 Q 213.8 86.9, 213.8 87.9 Q 213.8 88.9, 213.3 89.5 Q 212.8 90.1, 211.9 90.1 Q 210.9 90.1, 210.4 89.5 Q 209.9 88.9, 209.9 87.9 M 211.9 89.6 Q 212.5 89.6, 212.9 89.2 Q 213.2 88.7, 213.2 87.9 Q 213.2 87.1, 212.9 86.6 Q 212.5 86.2, 211.9 86.2 Q 211.2 86.2, 210.9 86.6 Q 210.5 87.0, 210.5 87.9 Q 210.5 88.7, 210.9 89.2 Q 211.2 89.6, 211.9 89.6 " fill="#FF0000"/>
<path class="atom-31" d="M 225.5 91.9 Q 225.5 90.9, 226.0 90.4 Q 226.5 89.8, 227.4 89.8 Q 228.4 89.8, 228.9 90.4 Q 229.4 90.9, 229.4 91.9 Q 229.4 93.0, 228.9 93.6 Q 228.4 94.2, 227.4 94.2 Q 226.5 94.2, 226.0 93.6 Q 225.5 93.0, 225.5 91.9 M 227.4 93.7 Q 228.1 93.7, 228.4 93.2 Q 228.8 92.8, 228.8 91.9 Q 228.8 91.1, 228.4 90.7 Q 228.1 90.3, 227.4 90.3 Q 226.8 90.3, 226.4 90.7 Q 226.1 91.1, 226.1 91.9 Q 226.1 92.8, 226.4 93.2 Q 226.8 93.7, 227.4 93.7 " fill="#FF0000"/>
<path class="atom-32" d="M 221.7 99.7 Q 222.4 99.7, 222.8 100.0 Q 223.2 100.4, 223.2 101.0 Q 223.2 101.5, 222.8 101.9 Q 222.4 102.2, 221.7 102.2 L 221.0 102.2 L 221.0 104.0 L 220.5 104.0 L 220.5 99.7 L 221.7 99.7 M 221.7 101.7 Q 222.1 101.7, 222.3 101.5 Q 222.6 101.3, 222.6 101.0 Q 222.6 100.6, 222.3 100.4 Q 222.1 100.2, 221.7 100.2 L 221.0 100.2 L 221.0 101.7 L 221.7 101.7 " fill="#FF7F00"/>
<path class="atom-33" d="M 210.0 96.2 Q 210.0 95.2, 210.5 94.6 Q 211.0 94.1, 211.9 94.1 Q 212.9 94.1, 213.4 94.6 Q 213.9 95.2, 213.9 96.2 Q 213.9 97.2, 213.4 97.8 Q 212.8 98.4, 211.9 98.4 Q 211.0 98.4, 210.5 97.8 Q 210.0 97.3, 210.0 96.2 M 211.9 97.9 Q 212.6 97.9, 212.9 97.5 Q 213.3 97.1, 213.3 96.2 Q 213.3 95.4, 212.9 95.0 Q 212.6 94.5, 211.9 94.5 Q 211.3 94.5, 210.9 95.0 Q 210.6 95.4, 210.6 96.2 Q 210.6 97.1, 210.9 97.5 Q 211.3 97.9, 211.9 97.9 " fill="#FF0000"/>
<path class="atom-34" d="M 229.8 107.5 Q 229.8 106.4, 230.3 105.9 Q 230.8 105.3, 231.7 105.3 Q 232.6 105.3, 233.1 105.9 Q 233.7 106.4, 233.7 107.5 Q 233.7 108.5, 233.1 109.1 Q 232.6 109.7, 231.7 109.7 Q 230.8 109.7, 230.3 109.1 Q 229.8 108.5, 229.8 107.5 M 231.7 109.2 Q 232.4 109.2, 232.7 108.8 Q 233.1 108.3, 233.1 107.5 Q 233.1 106.6, 232.7 106.2 Q 232.4 105.8, 231.7 105.8 Q 231.1 105.8, 230.7 106.2 Q 230.4 106.6, 230.4 107.5 Q 230.4 108.3, 230.7 108.8 Q 231.1 109.2, 231.7 109.2 " fill="#FF0000"/>
<path class="atom-34" d="M 234.3 105.4 L 234.9 105.4 L 234.9 107.2 L 237.1 107.2 L 237.1 105.4 L 237.6 105.4 L 237.6 109.6 L 237.1 109.6 L 237.1 107.6 L 234.9 107.6 L 234.9 109.6 L 234.3 109.6 L 234.3 105.4 " fill="#FF0000"/>
<path class="atom-35" d="M 214.2 111.7 Q 214.2 110.7, 214.7 110.1 Q 215.2 109.6, 216.2 109.6 Q 217.1 109.6, 217.6 110.1 Q 218.1 110.7, 218.1 111.7 Q 218.1 112.8, 217.6 113.4 Q 217.1 113.9, 216.2 113.9 Q 215.2 113.9, 214.7 113.4 Q 214.2 112.8, 214.2 111.7 M 216.2 113.5 Q 216.8 113.5, 217.2 113.0 Q 217.5 112.6, 217.5 111.7 Q 217.5 110.9, 217.2 110.5 Q 216.8 110.1, 216.2 110.1 Q 215.5 110.1, 215.2 110.5 Q 214.8 110.9, 214.8 111.7 Q 214.8 112.6, 215.2 113.0 Q 215.5 113.5, 216.2 113.5 " fill="#FF0000"/>
<path class="atom-38" d="M 201.9 132.1 Q 201.9 131.1, 202.4 130.5 Q 202.9 129.9, 203.9 129.9 Q 204.8 129.9, 205.3 130.5 Q 205.8 131.1, 205.8 132.1 Q 205.8 133.1, 205.3 133.7 Q 204.8 134.3, 203.9 134.3 Q 202.9 134.3, 202.4 133.7 Q 201.9 133.1, 201.9 132.1 M 203.9 133.8 Q 204.5 133.8, 204.9 133.4 Q 205.2 132.9, 205.2 132.1 Q 205.2 131.2, 204.9 130.8 Q 204.5 130.4, 203.9 130.4 Q 203.2 130.4, 202.9 130.8 Q 202.5 131.2, 202.5 132.1 Q 202.5 132.9, 202.9 133.4 Q 203.2 133.8, 203.9 133.8 " fill="#FF0000"/>
<path class="atom-40" d="M 195.8 148.9 L 197.2 151.2 Q 197.3 151.4, 197.5 151.8 Q 197.8 152.2, 197.8 152.2 L 197.8 148.9 L 198.3 148.9 L 198.3 153.2 L 197.8 153.2 L 196.3 150.7 Q 196.1 150.4, 195.9 150.1 Q 195.7 149.8, 195.7 149.7 L 195.7 153.2 L 195.1 153.2 L 195.1 148.9 L 195.8 148.9 " fill="#0000FF"/>
<path class="atom-42" d="M 192.1 167.0 L 193.5 169.2 Q 193.6 169.4, 193.8 169.8 Q 194.0 170.2, 194.1 170.3 L 194.1 167.0 L 194.6 167.0 L 194.6 171.2 L 194.0 171.2 L 192.5 168.7 Q 192.4 168.5, 192.2 168.1 Q 192.0 167.8, 192.0 167.7 L 192.0 171.2 L 191.4 171.2 L 191.4 167.0 L 192.1 167.0 " fill="#0000FF"/>
<path class="atom-45" d="M 209.6 184.4 L 211.0 186.6 Q 211.1 186.9, 211.4 187.3 Q 211.6 187.7, 211.6 187.7 L 211.6 184.4 L 212.2 184.4 L 212.2 188.6 L 211.6 188.6 L 210.1 186.2 Q 209.9 185.9, 209.7 185.6 Q 209.5 185.2, 209.5 185.1 L 209.5 188.6 L 208.9 188.6 L 208.9 184.4 L 209.6 184.4 " fill="#0000FF"/>
<path class="atom-45" d="M 213.0 184.4 L 213.5 184.4 L 213.5 186.2 L 215.7 186.2 L 215.7 184.4 L 216.3 184.4 L 216.3 188.6 L 215.7 188.6 L 215.7 186.7 L 213.5 186.7 L 213.5 188.6 L 213.0 188.6 L 213.0 184.4 " fill="#0000FF"/>
<path class="atom-45" d="M 217.1 188.5 Q 217.2 188.2, 217.5 188.1 Q 217.7 187.9, 218.1 187.9 Q 218.5 187.9, 218.7 188.2 Q 219.0 188.4, 219.0 188.8 Q 219.0 189.2, 218.6 189.6 Q 218.3 190.0, 217.7 190.5 L 219.0 190.5 L 219.0 190.8 L 217.1 190.8 L 217.1 190.5 Q 217.6 190.1, 217.9 189.9 Q 218.3 189.6, 218.4 189.3 Q 218.6 189.1, 218.6 188.8 Q 218.6 188.6, 218.4 188.4 Q 218.3 188.3, 218.1 188.3 Q 217.8 188.3, 217.7 188.3 Q 217.5 188.4, 217.4 188.6 L 217.1 188.5 " fill="#0000FF"/>
<path class="atom-46" d="M 222.7 169.7 L 224.1 171.9 Q 224.2 172.1, 224.4 172.5 Q 224.7 172.9, 224.7 173.0 L 224.7 169.7 L 225.2 169.7 L 225.2 173.9 L 224.7 173.9 L 223.2 171.5 Q 223.0 171.2, 222.8 170.8 Q 222.6 170.5, 222.6 170.4 L 222.6 173.9 L 222.0 173.9 L 222.0 169.7 L 222.7 169.7 " fill="#0000FF"/>
<path class="atom-48" d="M 216.5 151.0 L 217.9 153.2 Q 218.0 153.4, 218.2 153.8 Q 218.5 154.2, 218.5 154.3 L 218.5 151.0 L 219.0 151.0 L 219.0 155.2 L 218.5 155.2 L 217.0 152.7 Q 216.8 152.5, 216.6 152.1 Q 216.4 151.8, 216.4 151.7 L 216.4 155.2 L 215.8 155.2 L 215.8 151.0 L 216.5 151.0 " fill="#0000FF"/>
<path class="atom-51" d="M 169.1 136.7 L 169.6 136.7 L 169.6 138.5 L 171.8 138.5 L 171.8 136.7 L 172.4 136.7 L 172.4 140.9 L 171.8 140.9 L 171.8 139.0 L 169.6 139.0 L 169.6 140.9 L 169.1 140.9 L 169.1 136.7 " fill="#FF0000"/>
<path class="atom-51" d="M 173.3 138.8 Q 173.3 137.8, 173.8 137.2 Q 174.3 136.7, 175.2 136.7 Q 176.1 136.7, 176.6 137.2 Q 177.2 137.8, 177.2 138.8 Q 177.2 139.8, 176.6 140.4 Q 176.1 141.0, 175.2 141.0 Q 174.3 141.0, 173.8 140.4 Q 173.3 139.8, 173.3 138.8 M 175.2 140.5 Q 175.9 140.5, 176.2 140.1 Q 176.6 139.7, 176.6 138.8 Q 176.6 138.0, 176.2 137.6 Q 175.9 137.1, 175.2 137.1 Q 174.6 137.1, 174.2 137.6 Q 173.9 138.0, 173.9 138.8 Q 173.9 139.7, 174.2 140.1 Q 174.6 140.5, 175.2 140.5 " fill="#FF0000"/>
<path class="atom-53" d="M 178.2 114.6 Q 178.2 113.5, 178.7 113.0 Q 179.3 112.4, 180.2 112.4 Q 181.1 112.4, 181.6 113.0 Q 182.1 113.5, 182.1 114.6 Q 182.1 115.6, 181.6 116.2 Q 181.1 116.8, 180.2 116.8 Q 179.3 116.8, 178.7 116.2 Q 178.2 115.6, 178.2 114.6 M 180.2 116.3 Q 180.8 116.3, 181.2 115.8 Q 181.5 115.4, 181.5 114.6 Q 181.5 113.7, 181.2 113.3 Q 180.8 112.9, 180.2 112.9 Q 179.5 112.9, 179.2 113.3 Q 178.8 113.7, 178.8 114.6 Q 178.8 115.4, 179.2 115.8 Q 179.5 116.3, 180.2 116.3 " fill="#FF0000"/>
<path class="atom-54" d="M 183.5 101.6 Q 184.3 101.6, 184.6 101.9 Q 185.0 102.2, 185.0 102.8 Q 185.0 103.4, 184.6 103.7 Q 184.2 104.1, 183.5 104.1 L 182.9 104.1 L 182.9 105.8 L 182.3 105.8 L 182.3 101.6 L 183.5 101.6 M 183.5 103.6 Q 184.0 103.6, 184.2 103.4 Q 184.4 103.2, 184.4 102.8 Q 184.4 102.4, 184.2 102.3 Q 184.0 102.1, 183.5 102.1 L 182.9 102.1 L 182.9 103.6 L 183.5 103.6 " fill="#FF7F00"/>
<path class="atom-55" d="M 170.8 100.3 Q 170.8 99.2, 171.3 98.7 Q 171.9 98.1, 172.8 98.1 Q 173.7 98.1, 174.2 98.7 Q 174.7 99.2, 174.7 100.3 Q 174.7 101.3, 174.2 101.9 Q 173.7 102.5, 172.8 102.5 Q 171.9 102.5, 171.3 101.9 Q 170.8 101.3, 170.8 100.3 M 172.8 102.0 Q 173.4 102.0, 173.8 101.6 Q 174.1 101.1, 174.1 100.3 Q 174.1 99.4, 173.8 99.0 Q 173.4 98.6, 172.8 98.6 Q 172.1 98.6, 171.8 99.0 Q 171.4 99.4, 171.4 100.3 Q 171.4 101.1, 171.8 101.6 Q 172.1 102.0, 172.8 102.0 " fill="#FF0000"/>
<path class="atom-56" d="M 192.5 107.2 Q 192.5 106.1, 193.0 105.6 Q 193.5 105.0, 194.5 105.0 Q 195.4 105.0, 195.9 105.6 Q 196.4 106.1, 196.4 107.2 Q 196.4 108.2, 195.9 108.8 Q 195.4 109.4, 194.5 109.4 Q 193.6 109.4, 193.0 108.8 Q 192.5 108.2, 192.5 107.2 M 194.5 108.9 Q 195.1 108.9, 195.5 108.4 Q 195.8 108.0, 195.8 107.2 Q 195.8 106.3, 195.5 105.9 Q 195.1 105.5, 194.5 105.5 Q 193.8 105.5, 193.5 105.9 Q 193.1 106.3, 193.1 107.2 Q 193.1 108.0, 193.5 108.4 Q 193.8 108.9, 194.5 108.9 " fill="#FF0000"/>
<path class="atom-56" d="M 197.1 105.0 L 197.7 105.0 L 197.7 106.9 L 199.8 106.9 L 199.8 105.0 L 200.4 105.0 L 200.4 109.3 L 199.8 109.3 L 199.8 107.3 L 197.7 107.3 L 197.7 109.3 L 197.1 109.3 L 197.1 105.0 " fill="#FF0000"/>
<path class="atom-57" d="M 185.1 92.9 Q 185.1 91.8, 185.6 91.3 Q 186.1 90.7, 187.1 90.7 Q 188.0 90.7, 188.5 91.3 Q 189.0 91.8, 189.0 92.9 Q 189.0 93.9, 188.5 94.5 Q 188.0 95.1, 187.1 95.1 Q 186.2 95.1, 185.6 94.5 Q 185.1 93.9, 185.1 92.9 M 187.1 94.6 Q 187.7 94.6, 188.1 94.2 Q 188.4 93.7, 188.4 92.9 Q 188.4 92.0, 188.1 91.6 Q 187.7 91.2, 187.1 91.2 Q 186.4 91.2, 186.1 91.6 Q 185.7 92.0, 185.7 92.9 Q 185.7 93.7, 186.1 94.2 Q 186.4 94.6, 187.1 94.6 " fill="#FF0000"/>
<path class="atom-57" d="M 189.7 90.8 L 190.3 90.8 L 190.3 92.6 L 192.4 92.6 L 192.4 90.8 L 193.0 90.8 L 193.0 95.0 L 192.4 95.0 L 192.4 93.0 L 190.3 93.0 L 190.3 95.0 L 189.7 95.0 L 189.7 90.8 " fill="#FF0000"/>
<path class="atom-59" d="M 202.3 21.6 Q 202.3 20.6, 202.8 20.0 Q 203.3 19.4, 204.2 19.4 Q 205.2 19.4, 205.7 20.0 Q 206.2 20.6, 206.2 21.6 Q 206.2 22.6, 205.7 23.2 Q 205.1 23.8, 204.2 23.8 Q 203.3 23.8, 202.8 23.2 Q 202.3 22.6, 202.3 21.6 M 204.2 23.3 Q 204.9 23.3, 205.2 22.9 Q 205.6 22.4, 205.6 21.6 Q 205.6 20.7, 205.2 20.3 Q 204.9 19.9, 204.2 19.9 Q 203.6 19.9, 203.2 20.3 Q 202.9 20.7, 202.9 21.6 Q 202.9 22.4, 203.2 22.9 Q 203.6 23.3, 204.2 23.3 " fill="#FF0000"/>
<path class="atom-59" d="M 206.8 19.5 L 207.4 19.5 L 207.4 21.3 L 209.6 21.3 L 209.6 19.5 L 210.2 19.5 L 210.2 23.7 L 209.6 23.7 L 209.6 21.8 L 207.4 21.8 L 207.4 23.7 L 206.8 23.7 L 206.8 19.5 " fill="#FF0000"/>
<path class="atom-60" d="M 202.4 42.2 Q 202.4 41.2, 202.9 40.6 Q 203.4 40.0, 204.3 40.0 Q 205.3 40.0, 205.8 40.6 Q 206.3 41.2, 206.3 42.2 Q 206.3 43.2, 205.8 43.8 Q 205.3 44.4, 204.3 44.4 Q 203.4 44.4, 202.9 43.8 Q 202.4 43.2, 202.4 42.2 M 204.3 43.9 Q 205.0 43.9, 205.3 43.5 Q 205.7 43.0, 205.7 42.2 Q 205.7 41.3, 205.3 40.9 Q 205.0 40.5, 204.3 40.5 Q 203.7 40.5, 203.3 40.9 Q 203.0 41.3, 203.0 42.2 Q 203.0 43.0, 203.3 43.5 Q 203.7 43.9, 204.3 43.9 " fill="#FF0000"/>
<path class="atom-60" d="M 207.0 40.1 L 207.5 40.1 L 207.5 41.9 L 209.7 41.9 L 209.7 40.1 L 210.3 40.1 L 210.3 44.3 L 209.7 44.3 L 209.7 42.4 L 207.5 42.4 L 207.5 44.3 L 207.0 44.3 L 207.0 40.1 " fill="#FF0000"/>
<path class="atom-62" d="M 213.6 21.5 Q 213.6 20.5, 214.2 19.9 Q 214.7 19.3, 215.6 19.3 Q 216.5 19.3, 217.0 19.9 Q 217.5 20.5, 217.5 21.5 Q 217.5 22.5, 217.0 23.1 Q 216.5 23.7, 215.6 23.7 Q 214.7 23.7, 214.2 23.1 Q 213.6 22.5, 213.6 21.5 M 215.6 23.2 Q 216.2 23.2, 216.6 22.8 Q 216.9 22.4, 216.9 21.5 Q 216.9 20.7, 216.6 20.2 Q 216.2 19.8, 215.6 19.8 Q 214.9 19.8, 214.6 20.2 Q 214.2 20.7, 214.2 21.5 Q 214.2 22.4, 214.6 22.8 Q 214.9 23.2, 215.6 23.2 " fill="#FF0000"/>
<path class="atom-62" d="M 218.2 19.4 L 218.8 19.4 L 218.8 21.2 L 221.0 21.2 L 221.0 19.4 L 221.5 19.4 L 221.5 23.6 L 221.0 23.6 L 221.0 21.7 L 218.8 21.7 L 218.8 23.6 L 218.2 23.6 L 218.2 19.4 " fill="#FF0000"/>
<path class="atom-64" d="M 207.2 50.7 Q 207.2 49.7, 207.7 49.1 Q 208.2 48.6, 209.2 48.6 Q 210.1 48.6, 210.6 49.1 Q 211.1 49.7, 211.1 50.7 Q 211.1 51.7, 210.6 52.3 Q 210.1 52.9, 209.2 52.9 Q 208.2 52.9, 207.7 52.3 Q 207.2 51.8, 207.2 50.7 M 209.2 52.4 Q 209.8 52.4, 210.2 52.0 Q 210.5 51.6, 210.5 50.7 Q 210.5 49.9, 210.2 49.5 Q 209.8 49.0, 209.2 49.0 Q 208.5 49.0, 208.2 49.5 Q 207.8 49.9, 207.8 50.7 Q 207.8 51.6, 208.2 52.0 Q 208.5 52.4, 209.2 52.4 " fill="#FF0000"/>
<path class="atom-65" d="M 224.7 47.8 L 226.1 50.0 Q 226.2 50.2, 226.5 50.6 Q 226.7 51.0, 226.7 51.1 L 226.7 47.8 L 227.2 47.8 L 227.2 52.0 L 226.7 52.0 L 225.2 49.5 Q 225.0 49.3, 224.8 48.9 Q 224.6 48.6, 224.6 48.5 L 224.6 52.0 L 224.0 52.0 L 224.0 47.8 L 224.7 47.8 " fill="#0000FF"/>
<path class="atom-65" d="M 228.1 47.8 L 228.7 47.8 L 228.7 49.6 L 230.8 49.6 L 230.8 47.8 L 231.4 47.8 L 231.4 52.0 L 230.8 52.0 L 230.8 50.0 L 228.7 50.0 L 228.7 52.0 L 228.1 52.0 L 228.1 47.8 " fill="#0000FF"/>
<path class="atom-69" d="M 227.1 84.7 Q 227.1 83.7, 227.6 83.1 Q 228.1 82.6, 229.1 82.6 Q 230.0 82.6, 230.5 83.1 Q 231.0 83.7, 231.0 84.7 Q 231.0 85.8, 230.5 86.3 Q 230.0 86.9, 229.1 86.9 Q 228.2 86.9, 227.6 86.3 Q 227.1 85.8, 227.1 84.7 M 229.1 86.5 Q 229.7 86.5, 230.1 86.0 Q 230.4 85.6, 230.4 84.7 Q 230.4 83.9, 230.1 83.5 Q 229.7 83.0, 229.1 83.0 Q 228.4 83.0, 228.1 83.5 Q 227.7 83.9, 227.7 84.7 Q 227.7 85.6, 228.1 86.0 Q 228.4 86.5, 229.1 86.5 " fill="#FF0000"/>
<path class="atom-70" d="M 244.6 81.8 L 246.0 84.0 Q 246.2 84.2, 246.4 84.6 Q 246.6 85.0, 246.6 85.1 L 246.6 81.8 L 247.2 81.8 L 247.2 86.0 L 246.6 86.0 L 245.1 83.6 Q 244.9 83.3, 244.7 82.9 Q 244.6 82.6, 244.5 82.5 L 244.5 86.0 L 244.0 86.0 L 244.0 81.8 L 244.6 81.8 " fill="#0000FF"/>
<path class="atom-70" d="M 248.0 81.8 L 248.6 81.8 L 248.6 83.6 L 250.8 83.6 L 250.8 81.8 L 251.3 81.8 L 251.3 86.0 L 250.8 86.0 L 250.8 84.1 L 248.6 84.1 L 248.6 86.0 L 248.0 86.0 L 248.0 81.8 " fill="#0000FF"/>
<path class="atom-73" d="M 254.4 113.7 Q 254.5 113.8, 254.7 113.8 Q 254.9 113.9, 255.1 114.0 Q 255.3 114.0, 255.5 114.0 Q 255.9 114.0, 256.1 113.8 Q 256.4 113.6, 256.4 113.3 Q 256.4 113.1, 256.3 112.9 Q 256.1 112.8, 256.0 112.7 Q 255.8 112.6, 255.5 112.5 Q 255.1 112.4, 254.9 112.3 Q 254.7 112.2, 254.5 112.0 Q 254.3 111.7, 254.3 111.4 Q 254.3 110.8, 254.7 110.5 Q 255.1 110.2, 255.8 110.2 Q 256.3 110.2, 256.8 110.4 L 256.7 110.9 Q 256.2 110.7, 255.8 110.7 Q 255.4 110.7, 255.2 110.8 Q 254.9 111.0, 254.9 111.3 Q 254.9 111.5, 255.1 111.7 Q 255.2 111.8, 255.3 111.9 Q 255.5 111.9, 255.8 112.0 Q 256.2 112.2, 256.4 112.3 Q 256.6 112.4, 256.8 112.6 Q 257.0 112.9, 257.0 113.3 Q 257.0 113.9, 256.6 114.2 Q 256.2 114.5, 255.5 114.5 Q 255.2 114.5, 254.9 114.4 Q 254.6 114.4, 254.3 114.2 L 254.4 113.7 " fill="#CCCC00"/>
<path class="atom-76" d="M 273.4 112.2 Q 273.4 111.1, 273.9 110.6 Q 274.4 110.0, 275.3 110.0 Q 276.3 110.0, 276.8 110.6 Q 277.3 111.1, 277.3 112.2 Q 277.3 113.2, 276.8 113.8 Q 276.3 114.4, 275.3 114.4 Q 274.4 114.4, 273.9 113.8 Q 273.4 113.2, 273.4 112.2 M 275.3 113.9 Q 276.0 113.9, 276.3 113.5 Q 276.7 113.0, 276.7 112.2 Q 276.7 111.3, 276.3 110.9 Q 276.0 110.5, 275.3 110.5 Q 274.7 110.5, 274.3 110.9 Q 274.0 111.3, 274.0 112.2 Q 274.0 113.0, 274.3 113.5 Q 274.7 113.9, 275.3 113.9 " fill="#FF0000"/>
<path class="atom-81" d="M 242.1 22.8 Q 242.1 21.8, 242.6 21.3 Q 243.1 20.7, 244.1 20.7 Q 245.0 20.7, 245.5 21.3 Q 246.0 21.8, 246.0 22.8 Q 246.0 23.9, 245.5 24.5 Q 245.0 25.0, 244.1 25.0 Q 243.1 25.0, 242.6 24.5 Q 242.1 23.9, 242.1 22.8 M 244.1 24.6 Q 244.7 24.6, 245.1 24.1 Q 245.4 23.7, 245.4 22.8 Q 245.4 22.0, 245.1 21.6 Q 244.7 21.2, 244.1 21.2 Q 243.4 21.2, 243.1 21.6 Q 242.7 22.0, 242.7 22.8 Q 242.7 23.7, 243.1 24.1 Q 243.4 24.6, 244.1 24.6 " fill="#FF0000"/>
<path class="atom-82" d="M 255.3 20.6 Q 256.1 20.6, 256.4 21.0 Q 256.8 21.3, 256.8 21.9 Q 256.8 22.5, 256.4 22.8 Q 256.0 23.1, 255.3 23.1 L 254.7 23.1 L 254.7 24.9 L 254.1 24.9 L 254.1 20.6 L 255.3 20.6 M 255.3 22.7 Q 255.8 22.7, 256.0 22.5 Q 256.2 22.3, 256.2 21.9 Q 256.2 21.5, 256.0 21.3 Q 255.8 21.1, 255.3 21.1 L 254.7 21.1 L 254.7 22.7 L 255.3 22.7 " fill="#FF7F00"/>
<path class="atom-83" d="M 253.6 34.2 Q 253.6 33.1, 254.1 32.6 Q 254.6 32.0, 255.5 32.0 Q 256.5 32.0, 257.0 32.6 Q 257.5 33.1, 257.5 34.2 Q 257.5 35.2, 257.0 35.8 Q 256.4 36.4, 255.5 36.4 Q 254.6 36.4, 254.1 35.8 Q 253.6 35.2, 253.6 34.2 M 255.5 35.9 Q 256.2 35.9, 256.5 35.4 Q 256.9 35.0, 256.9 34.2 Q 256.9 33.3, 256.5 32.9 Q 256.2 32.5, 255.5 32.5 Q 254.9 32.5, 254.5 32.9 Q 254.2 33.3, 254.2 34.2 Q 254.2 35.0, 254.5 35.4 Q 254.9 35.9, 255.5 35.9 " fill="#FF0000"/>
<path class="atom-84" d="M 253.4 11.4 Q 253.4 10.4, 253.9 9.8 Q 254.4 9.2, 255.4 9.2 Q 256.3 9.2, 256.8 9.8 Q 257.3 10.4, 257.3 11.4 Q 257.3 12.4, 256.8 13.0 Q 256.3 13.6, 255.4 13.6 Q 254.4 13.6, 253.9 13.0 Q 253.4 12.4, 253.4 11.4 M 255.4 13.1 Q 256.0 13.1, 256.4 12.7 Q 256.7 12.2, 256.7 11.4 Q 256.7 10.6, 256.4 10.1 Q 256.0 9.7, 255.4 9.7 Q 254.7 9.7, 254.4 10.1 Q 254.0 10.5, 254.0 11.4 Q 254.0 12.2, 254.4 12.7 Q 254.7 13.1, 255.4 13.1 " fill="#FF0000"/>
<path class="atom-84" d="M 258.0 9.3 L 258.6 9.3 L 258.6 11.1 L 260.7 11.1 L 260.7 9.3 L 261.3 9.3 L 261.3 13.5 L 260.7 13.5 L 260.7 11.6 L 258.6 11.6 L 258.6 13.5 L 258.0 13.5 L 258.0 9.3 " fill="#FF0000"/>
<path class="atom-85" d="M 264.9 22.7 Q 264.9 21.7, 265.4 21.1 Q 265.9 20.5, 266.8 20.5 Q 267.8 20.5, 268.3 21.1 Q 268.8 21.7, 268.8 22.7 Q 268.8 23.7, 268.3 24.3 Q 267.8 24.9, 266.8 24.9 Q 265.9 24.9, 265.4 24.3 Q 264.9 23.7, 264.9 22.7 M 266.8 24.4 Q 267.5 24.4, 267.8 24.0 Q 268.2 23.5, 268.2 22.7 Q 268.2 21.9, 267.8 21.4 Q 267.5 21.0, 266.8 21.0 Q 266.2 21.0, 265.8 21.4 Q 265.5 21.9, 265.5 22.7 Q 265.5 23.6, 265.8 24.0 Q 266.2 24.4, 266.8 24.4 " fill="#FF0000"/>
<path class="atom-86" d="M 272.5 30.4 Q 273.2 30.4, 273.6 30.7 Q 273.9 31.0, 273.9 31.6 Q 273.9 32.2, 273.6 32.6 Q 273.2 32.9, 272.5 32.9 L 271.8 32.9 L 271.8 34.6 L 271.2 34.6 L 271.2 30.4 L 272.5 30.4 M 272.5 32.4 Q 272.9 32.4, 273.1 32.2 Q 273.3 32.0, 273.3 31.6 Q 273.3 31.2, 273.1 31.1 Q 272.9 30.9, 272.5 30.9 L 271.8 30.9 L 271.8 32.4 L 272.5 32.4 " fill="#FF7F00"/>
<path class="atom-87" d="M 280.4 26.8 Q 280.4 25.7, 281.0 25.2 Q 281.5 24.6, 282.4 24.6 Q 283.3 24.6, 283.8 25.2 Q 284.3 25.7, 284.3 26.8 Q 284.3 27.8, 283.8 28.4 Q 283.3 29.0, 282.4 29.0 Q 281.5 29.0, 281.0 28.4 Q 280.4 27.8, 280.4 26.8 M 282.4 28.5 Q 283.0 28.5, 283.4 28.1 Q 283.7 27.6, 283.7 26.8 Q 283.7 25.9, 283.4 25.5 Q 283.0 25.1, 282.4 25.1 Q 281.7 25.1, 281.4 25.5 Q 281.0 25.9, 281.0 26.8 Q 281.0 27.6, 281.4 28.1 Q 281.7 28.5, 282.4 28.5 " fill="#FF0000"/>
<path class="atom-88" d="M 256.6 36.2 L 257.2 36.2 L 257.2 38.0 L 259.4 38.0 L 259.4 36.2 L 259.9 36.2 L 259.9 40.4 L 259.4 40.4 L 259.4 38.4 L 257.2 38.4 L 257.2 40.4 L 256.6 40.4 L 256.6 36.2 " fill="#FF0000"/>
<path class="atom-88" d="M 260.8 38.3 Q 260.8 37.2, 261.3 36.7 Q 261.8 36.1, 262.8 36.1 Q 263.7 36.1, 264.2 36.7 Q 264.7 37.2, 264.7 38.3 Q 264.7 39.3, 264.2 39.9 Q 263.7 40.5, 262.8 40.5 Q 261.8 40.5, 261.3 39.9 Q 260.8 39.3, 260.8 38.3 M 262.8 40.0 Q 263.4 40.0, 263.8 39.6 Q 264.1 39.1, 264.1 38.3 Q 264.1 37.4, 263.8 37.0 Q 263.4 36.6, 262.8 36.6 Q 262.1 36.6, 261.8 37.0 Q 261.4 37.4, 261.4 38.3 Q 261.4 39.1, 261.8 39.6 Q 262.1 40.0, 262.8 40.0 " fill="#FF0000"/>
<path class="atom-89" d="M 276.4 42.3 Q 276.4 41.3, 276.9 40.7 Q 277.4 40.2, 278.3 40.2 Q 279.3 40.2, 279.8 40.7 Q 280.3 41.3, 280.3 42.3 Q 280.3 43.4, 279.8 44.0 Q 279.3 44.5, 278.3 44.5 Q 277.4 44.5, 276.9 44.0 Q 276.4 43.4, 276.4 42.3 M 278.3 44.1 Q 279.0 44.1, 279.3 43.6 Q 279.7 43.2, 279.7 42.3 Q 279.7 41.5, 279.3 41.1 Q 279.0 40.7, 278.3 40.7 Q 277.7 40.7, 277.3 41.1 Q 277.0 41.5, 277.0 42.3 Q 277.0 43.2, 277.3 43.6 Q 277.7 44.1, 278.3 44.1 " fill="#FF0000"/>
<path class="atom-92" d="M 287.8 63.2 Q 287.8 62.1, 288.3 61.6 Q 288.8 61.0, 289.8 61.0 Q 290.7 61.0, 291.2 61.6 Q 291.7 62.1, 291.7 63.2 Q 291.7 64.2, 291.2 64.8 Q 290.7 65.4, 289.8 65.4 Q 288.9 65.4, 288.3 64.8 Q 287.8 64.2, 287.8 63.2 M 289.8 64.9 Q 290.4 64.9, 290.8 64.5 Q 291.1 64.0, 291.1 63.2 Q 291.1 62.3, 290.8 61.9 Q 290.4 61.5, 289.8 61.5 Q 289.1 61.5, 288.8 61.9 Q 288.4 62.3, 288.4 63.2 Q 288.4 64.0, 288.8 64.5 Q 289.1 64.9, 289.8 64.9 " fill="#FF0000"/>
<path class="atom-94" d="M 301.7 76.7 L 303.1 79.0 Q 303.2 79.2, 303.5 79.6 Q 303.7 80.0, 303.7 80.0 L 303.7 76.7 L 304.3 76.7 L 304.3 81.0 L 303.7 81.0 L 302.2 78.5 Q 302.0 78.2, 301.8 77.9 Q 301.6 77.5, 301.6 77.4 L 301.6 81.0 L 301.0 81.0 L 301.0 76.7 L 301.7 76.7 " fill="#0000FF"/>
<path class="atom-96" d="M 315.5 88.9 L 316.9 91.2 Q 317.0 91.4, 317.2 91.8 Q 317.5 92.2, 317.5 92.2 L 317.5 88.9 L 318.0 88.9 L 318.0 93.2 L 317.4 93.2 L 316.0 90.7 Q 315.8 90.4, 315.6 90.1 Q 315.4 89.8, 315.4 89.7 L 315.4 93.2 L 314.8 93.2 L 314.8 88.9 L 315.5 88.9 " fill="#0000FF"/>
<path class="atom-99" d="M 339.3 82.5 L 340.7 84.7 Q 340.9 85.0, 341.1 85.4 Q 341.3 85.8, 341.3 85.8 L 341.3 82.5 L 341.9 82.5 L 341.9 86.7 L 341.3 86.7 L 339.8 84.3 Q 339.6 84.0, 339.5 83.7 Q 339.3 83.3, 339.2 83.2 L 339.2 86.7 L 338.7 86.7 L 338.7 82.5 L 339.3 82.5 " fill="#0000FF"/>
<path class="atom-99" d="M 342.7 82.5 L 343.3 82.5 L 343.3 84.3 L 345.5 84.3 L 345.5 82.5 L 346.0 82.5 L 346.0 86.7 L 345.5 86.7 L 345.5 84.8 L 343.3 84.8 L 343.3 86.7 L 342.7 86.7 L 342.7 82.5 " fill="#0000FF"/>
<path class="atom-99" d="M 346.9 86.6 Q 347.0 86.3, 347.2 86.2 Q 347.5 86.0, 347.8 86.0 Q 348.2 86.0, 348.5 86.3 Q 348.7 86.5, 348.7 86.9 Q 348.7 87.3, 348.4 87.7 Q 348.1 88.1, 347.5 88.5 L 348.7 88.5 L 348.7 88.9 L 346.9 88.9 L 346.9 88.6 Q 347.4 88.2, 347.7 87.9 Q 348.0 87.7, 348.2 87.4 Q 348.3 87.2, 348.3 86.9 Q 348.3 86.6, 348.2 86.5 Q 348.0 86.3, 347.8 86.3 Q 347.6 86.3, 347.4 86.4 Q 347.3 86.5, 347.2 86.7 L 346.9 86.6 " fill="#0000FF"/>
<path class="atom-100" d="M 333.1 63.8 L 334.5 66.0 Q 334.7 66.2, 334.9 66.7 Q 335.1 67.1, 335.1 67.1 L 335.1 63.8 L 335.7 63.8 L 335.7 68.0 L 335.1 68.0 L 333.6 65.6 Q 333.4 65.3, 333.2 64.9 Q 333.1 64.6, 333.0 64.5 L 333.0 68.0 L 332.5 68.0 L 332.5 63.8 L 333.1 63.8 " fill="#0000FF"/>
<path class="atom-102" d="M 313.8 59.8 L 315.2 62.1 Q 315.4 62.3, 315.6 62.7 Q 315.8 63.1, 315.8 63.1 L 315.8 59.8 L 316.4 59.8 L 316.4 64.1 L 315.8 64.1 L 314.3 61.6 Q 314.1 61.3, 313.9 61.0 Q 313.8 60.6, 313.7 60.5 L 313.7 64.1 L 313.2 64.1 L 313.2 59.8 L 313.8 59.8 " fill="#0000FF"/>
<path class="atom-105" d="M 279.3 91.4 Q 279.3 90.3, 279.8 89.8 Q 280.3 89.2, 281.3 89.2 Q 282.2 89.2, 282.7 89.8 Q 283.2 90.3, 283.2 91.4 Q 283.2 92.4, 282.7 93.0 Q 282.2 93.6, 281.3 93.6 Q 280.4 93.6, 279.8 93.0 Q 279.3 92.4, 279.3 91.4 M 281.3 93.1 Q 281.9 93.1, 282.3 92.7 Q 282.6 92.2, 282.6 91.4 Q 282.6 90.5, 282.3 90.1 Q 281.9 89.7, 281.3 89.7 Q 280.6 89.7, 280.3 90.1 Q 279.9 90.5, 279.9 91.4 Q 279.9 92.2, 280.3 92.7 Q 280.6 93.1, 281.3 93.1 " fill="#FF0000"/>
<path class="atom-105" d="M 283.9 89.3 L 284.5 89.3 L 284.5 91.1 L 286.6 91.1 L 286.6 89.3 L 287.2 89.3 L 287.2 93.5 L 286.6 93.5 L 286.6 91.5 L 284.5 91.5 L 284.5 93.5 L 283.9 93.5 L 283.9 89.3 " fill="#FF0000"/>
<path class="atom-107" d="M 260.8 74.9 Q 260.8 73.9, 261.3 73.3 Q 261.8 72.8, 262.8 72.8 Q 263.7 72.8, 264.2 73.3 Q 264.7 73.9, 264.7 74.9 Q 264.7 75.9, 264.2 76.5 Q 263.7 77.1, 262.8 77.1 Q 261.8 77.1, 261.3 76.5 Q 260.8 76.0, 260.8 74.9 M 262.8 76.6 Q 263.4 76.6, 263.8 76.2 Q 264.1 75.8, 264.1 74.9 Q 264.1 74.1, 263.8 73.7 Q 263.4 73.2, 262.8 73.2 Q 262.1 73.2, 261.8 73.7 Q 261.4 74.1, 261.4 74.9 Q 261.4 75.8, 261.8 76.2 Q 262.1 76.6, 262.8 76.6 " fill="#FF0000"/>
<path class="atom-108" d="M 255.0 64.4 Q 255.7 64.4, 256.1 64.7 Q 256.5 65.0, 256.5 65.6 Q 256.5 66.2, 256.1 66.5 Q 255.7 66.9, 255.0 66.9 L 254.3 66.9 L 254.3 68.6 L 253.8 68.6 L 253.8 64.4 L 255.0 64.4 M 255.0 66.4 Q 255.4 66.4, 255.6 66.2 Q 255.9 66.0, 255.9 65.6 Q 255.9 65.2, 255.6 65.0 Q 255.4 64.8, 255.0 64.8 L 254.3 64.8 L 254.3 66.4 L 255.0 66.4 " fill="#FF7F00"/>
<path class="atom-109" d="M 244.8 74.2 Q 244.8 73.2, 245.3 72.6 Q 245.8 72.0, 246.7 72.0 Q 247.6 72.0, 248.1 72.6 Q 248.7 73.2, 248.7 74.2 Q 248.7 75.2, 248.1 75.8 Q 247.6 76.4, 246.7 76.4 Q 245.8 76.4, 245.3 75.8 Q 244.8 75.2, 244.8 74.2 M 246.7 75.9 Q 247.4 75.9, 247.7 75.5 Q 248.1 75.0, 248.1 74.2 Q 248.1 73.3, 247.7 72.9 Q 247.4 72.5, 246.7 72.5 Q 246.1 72.5, 245.7 72.9 Q 245.4 73.3, 245.4 74.2 Q 245.4 75.0, 245.7 75.5 Q 246.1 75.9, 246.7 75.9 " fill="#FF0000"/>
<path class="atom-110" d="M 261.6 58.8 Q 261.6 57.8, 262.1 57.2 Q 262.6 56.7, 263.5 56.7 Q 264.5 56.7, 265.0 57.2 Q 265.5 57.8, 265.5 58.8 Q 265.5 59.9, 265.0 60.5 Q 264.4 61.0, 263.5 61.0 Q 262.6 61.0, 262.1 60.5 Q 261.6 59.9, 261.6 58.8 M 263.5 60.6 Q 264.2 60.6, 264.5 60.1 Q 264.9 59.7, 264.9 58.8 Q 264.9 58.0, 264.5 57.6 Q 264.2 57.2, 263.5 57.2 Q 262.9 57.2, 262.5 57.6 Q 262.2 58.0, 262.2 58.8 Q 262.2 59.7, 262.5 60.1 Q 262.9 60.6, 263.5 60.6 " fill="#FF0000"/>
<path class="atom-110" d="M 266.1 56.7 L 266.7 56.7 L 266.7 58.5 L 268.9 58.5 L 268.9 56.7 L 269.5 56.7 L 269.5 61.0 L 268.9 61.0 L 268.9 59.0 L 266.7 59.0 L 266.7 61.0 L 266.1 61.0 L 266.1 56.7 " fill="#FF0000"/>
<path class="atom-111" d="M 241.3 56.0 L 241.9 56.0 L 241.9 57.8 L 244.0 57.8 L 244.0 56.0 L 244.6 56.0 L 244.6 60.2 L 244.0 60.2 L 244.0 58.3 L 241.9 58.3 L 241.9 60.2 L 241.3 60.2 L 241.3 56.0 " fill="#FF0000"/>
<path class="atom-111" d="M 245.5 58.1 Q 245.5 57.1, 246.0 56.5 Q 246.5 55.9, 247.4 55.9 Q 248.4 55.9, 248.9 56.5 Q 249.4 57.1, 249.4 58.1 Q 249.4 59.1, 248.9 59.7 Q 248.4 60.3, 247.4 60.3 Q 246.5 60.3, 246.0 59.7 Q 245.5 59.1, 245.5 58.1 M 247.4 59.8 Q 248.1 59.8, 248.4 59.4 Q 248.8 58.9, 248.8 58.1 Q 248.8 57.3, 248.4 56.8 Q 248.1 56.4, 247.4 56.4 Q 246.8 56.4, 246.4 56.8 Q 246.1 57.3, 246.1 58.1 Q 246.1 59.0, 246.4 59.4 Q 246.8 59.8, 247.4 59.8 " fill="#FF0000"/>
</svg>
