<?xml version='1.0' encoding='ASCII' standalone='yes'?>
<svg xmlns="http://www.w3.org/2000/svg" xmlns:rdkit="http://www.rdkit.org/xml" xmlns:xlink="http://www.w3.org/1999/xlink" version="1.1" baseProfile="full" xml:space="preserve" width="271px" height="200px" viewBox="0 0 271 200">
<!-- END OF HEADER -->
<rect style="opacity:1.0;fill:#FFFFFF;stroke:none" width="271.0" height="200.0" x="0.0" y="0.0"> </rect>
<path class="bond-0 atom-0 atom-1" d="M 33.5,118.7 L 45.0,126.7" style="fill:none;fill-rule:evenodd;stroke:#FF0000;stroke-width:2.0px;stroke-linecap:butt;stroke-linejoin:miter;stroke-opacity:1"/>
<path class="bond-0 atom-0 atom-1" d="M 45.0,126.7 L 56.5,134.6" style="fill:none;fill-rule:evenodd;stroke:#000000;stroke-width:2.0px;stroke-linecap:butt;stroke-linejoin:miter;stroke-opacity:1"/>
<path class="bond-1 atom-1 atom-2" d="M 56.5,134.6 L 88.0,119.7" style="fill:none;fill-rule:evenodd;stroke:#000000;stroke-width:2.0px;stroke-linecap:butt;stroke-linejoin:miter;stroke-opacity:1"/>
<path class="bond-2 atom-2 atom-3" d="M 88.0,119.7 L 90.9,85.0" style="fill:none;fill-rule:evenodd;stroke:#000000;stroke-width:2.0px;stroke-linecap:butt;stroke-linejoin:miter;stroke-opacity:1"/>
<path class="bond-3 atom-3 atom-4" d="M 90.9,85.0 L 79.4,77.0" style="fill:none;fill-rule:evenodd;stroke:#000000;stroke-width:2.0px;stroke-linecap:butt;stroke-linejoin:miter;stroke-opacity:1"/>
<path class="bond-3 atom-3 atom-4" d="M 79.4,77.0 L 67.9,69.1" style="fill:none;fill-rule:evenodd;stroke:#FF0000;stroke-width:2.0px;stroke-linecap:butt;stroke-linejoin:miter;stroke-opacity:1"/>
<path class="bond-4 atom-2 atom-5" d="M 88.0,119.7 L 99.5,127.7" style="fill:none;fill-rule:evenodd;stroke:#000000;stroke-width:2.0px;stroke-linecap:butt;stroke-linejoin:miter;stroke-opacity:1"/>
<path class="bond-4 atom-2 atom-5" d="M 99.5,127.7 L 111.0,135.7" style="fill:none;fill-rule:evenodd;stroke:#FF0000;stroke-width:2.0px;stroke-linecap:butt;stroke-linejoin:miter;stroke-opacity:1"/>
<path class="bond-5 atom-5 atom-6" d="M 122.3,136.9 L 135.3,130.8" style="fill:none;fill-rule:evenodd;stroke:#FF0000;stroke-width:2.0px;stroke-linecap:butt;stroke-linejoin:miter;stroke-opacity:1"/>
<path class="bond-5 atom-5 atom-6" d="M 135.3,130.8 L 148.2,124.7" style="fill:none;fill-rule:evenodd;stroke:#000000;stroke-width:2.0px;stroke-linecap:butt;stroke-linejoin:miter;stroke-opacity:1"/>
<path class="bond-6 atom-6 atom-7" d="M 148.2,124.7 L 149.4,110.5" style="fill:none;fill-rule:evenodd;stroke:#000000;stroke-width:2.0px;stroke-linecap:butt;stroke-linejoin:miter;stroke-opacity:1"/>
<path class="bond-6 atom-6 atom-7" d="M 149.4,110.5 L 150.5,96.3" style="fill:none;fill-rule:evenodd;stroke:#FF0000;stroke-width:2.0px;stroke-linecap:butt;stroke-linejoin:miter;stroke-opacity:1"/>
<path class="bond-7 atom-7 atom-8" d="M 156.7,87.3 L 169.7,81.2" style="fill:none;fill-rule:evenodd;stroke:#FF0000;stroke-width:2.0px;stroke-linecap:butt;stroke-linejoin:miter;stroke-opacity:1"/>
<path class="bond-7 atom-7 atom-8" d="M 169.7,81.2 L 182.6,75.1" style="fill:none;fill-rule:evenodd;stroke:#000000;stroke-width:2.0px;stroke-linecap:butt;stroke-linejoin:miter;stroke-opacity:1"/>
<path class="bond-8 atom-8 atom-9" d="M 182.6,75.1 L 185.5,40.4" style="fill:none;fill-rule:evenodd;stroke:#000000;stroke-width:2.0px;stroke-linecap:butt;stroke-linejoin:miter;stroke-opacity:1"/>
<path class="bond-9 atom-9 atom-10" d="M 185.5,40.4 L 174.0,32.4" style="fill:none;fill-rule:evenodd;stroke:#000000;stroke-width:2.0px;stroke-linecap:butt;stroke-linejoin:miter;stroke-opacity:1"/>
<path class="bond-9 atom-9 atom-10" d="M 174.0,32.4 L 162.5,24.4" style="fill:none;fill-rule:evenodd;stroke:#FF0000;stroke-width:2.0px;stroke-linecap:butt;stroke-linejoin:miter;stroke-opacity:1"/>
<path class="bond-10 atom-8 atom-11" d="M 182.6,75.1 L 211.2,95.0" style="fill:none;fill-rule:evenodd;stroke:#000000;stroke-width:2.0px;stroke-linecap:butt;stroke-linejoin:miter;stroke-opacity:1"/>
<path class="bond-11 atom-11 atom-12" d="M 211.2,95.0 L 224.2,88.9" style="fill:none;fill-rule:evenodd;stroke:#000000;stroke-width:2.0px;stroke-linecap:butt;stroke-linejoin:miter;stroke-opacity:1"/>
<path class="bond-11 atom-11 atom-12" d="M 224.2,88.9 L 237.1,82.8" style="fill:none;fill-rule:evenodd;stroke:#FF0000;stroke-width:2.0px;stroke-linecap:butt;stroke-linejoin:miter;stroke-opacity:1"/>
<path class="bond-12 atom-11 atom-13" d="M 211.2,95.0 L 208.4,129.7" style="fill:none;fill-rule:evenodd;stroke:#000000;stroke-width:2.0px;stroke-linecap:butt;stroke-linejoin:miter;stroke-opacity:1"/>
<path class="bond-13 atom-13 atom-14" d="M 208.4,129.7 L 219.8,137.7" style="fill:none;fill-rule:evenodd;stroke:#000000;stroke-width:2.0px;stroke-linecap:butt;stroke-linejoin:miter;stroke-opacity:1"/>
<path class="bond-13 atom-13 atom-14" d="M 219.8,137.7 L 231.3,145.6" style="fill:none;fill-rule:evenodd;stroke:#FF0000;stroke-width:2.0px;stroke-linecap:butt;stroke-linejoin:miter;stroke-opacity:1"/>
<path class="bond-14 atom-13 atom-15" d="M 208.4,129.7 L 176.8,144.6" style="fill:none;fill-rule:evenodd;stroke:#000000;stroke-width:2.0px;stroke-linecap:butt;stroke-linejoin:miter;stroke-opacity:1"/>
<path class="bond-15 atom-15 atom-16" d="M 176.8,144.6 L 175.6,158.9" style="fill:none;fill-rule:evenodd;stroke:#000000;stroke-width:2.0px;stroke-linecap:butt;stroke-linejoin:miter;stroke-opacity:1"/>
<path class="bond-15 atom-15 atom-16" d="M 175.6,158.9 L 174.5,173.2" style="fill:none;fill-rule:evenodd;stroke:#FF0000;stroke-width:2.0px;stroke-linecap:butt;stroke-linejoin:miter;stroke-opacity:1"/>
<path class="bond-16 atom-15 atom-6" d="M 176.8,144.6 L 148.2,124.7" style="fill:none;fill-rule:evenodd;stroke:#000000;stroke-width:2.0px;stroke-linecap:butt;stroke-linejoin:miter;stroke-opacity:1"/>
<path d="M 55.9,134.2 L 56.5,134.6 L 58.1,133.9" style="fill:none;stroke:#000000;stroke-width:2.0px;stroke-linecap:butt;stroke-linejoin:miter;stroke-opacity:1;"/>
<path d="M 90.7,86.7 L 90.9,85.0 L 90.3,84.6" style="fill:none;stroke:#000000;stroke-width:2.0px;stroke-linecap:butt;stroke-linejoin:miter;stroke-opacity:1;"/>
<path d="M 185.3,42.1 L 185.5,40.4 L 184.9,40.0" style="fill:none;stroke:#000000;stroke-width:2.0px;stroke-linecap:butt;stroke-linejoin:miter;stroke-opacity:1;"/>
<path class="atom-0" d="M 13.5 109.9 L 14.9 109.9 L 14.9 114.1 L 19.9 114.1 L 19.9 109.9 L 21.3 109.9 L 21.3 119.8 L 19.9 119.8 L 19.9 115.2 L 14.9 115.2 L 14.9 119.8 L 13.5 119.8 L 13.5 109.9 " fill="#FF0000"/>
<path class="atom-0" d="M 23.3 114.8 Q 23.3 112.4, 24.5 111.1 Q 25.6 109.8, 27.8 109.8 Q 30.0 109.8, 31.2 111.1 Q 32.4 112.4, 32.4 114.8 Q 32.4 117.2, 31.2 118.6 Q 30.0 119.9, 27.8 119.9 Q 25.7 119.9, 24.5 118.6 Q 23.3 117.2, 23.3 114.8 M 27.8 118.8 Q 29.3 118.8, 30.1 117.8 Q 31.0 116.8, 31.0 114.8 Q 31.0 112.9, 30.1 111.9 Q 29.3 110.9, 27.8 110.9 Q 26.3 110.9, 25.5 111.9 Q 24.7 112.8, 24.7 114.8 Q 24.7 116.8, 25.5 117.8 Q 26.3 118.8, 27.8 118.8 " fill="#FF0000"/>
<path class="atom-4" d="M 48.0 60.3 L 49.3 60.3 L 49.3 64.5 L 54.3 64.5 L 54.3 60.3 L 55.7 60.3 L 55.7 70.1 L 54.3 70.1 L 54.3 65.6 L 49.3 65.6 L 49.3 70.1 L 48.0 70.1 L 48.0 60.3 " fill="#FF0000"/>
<path class="atom-4" d="M 57.7 65.2 Q 57.7 62.8, 58.9 61.5 Q 60.0 60.2, 62.2 60.2 Q 64.4 60.2, 65.6 61.5 Q 66.8 62.8, 66.8 65.2 Q 66.8 67.6, 65.6 68.9 Q 64.4 70.3, 62.2 70.3 Q 60.1 70.3, 58.9 68.9 Q 57.7 67.6, 57.7 65.2 M 62.2 69.2 Q 63.7 69.2, 64.5 68.2 Q 65.4 67.2, 65.4 65.2 Q 65.4 63.2, 64.5 62.3 Q 63.7 61.3, 62.2 61.3 Q 60.7 61.3, 59.9 62.2 Q 59.1 63.2, 59.1 65.2 Q 59.1 67.2, 59.9 68.2 Q 60.7 69.2, 62.2 69.2 " fill="#FF0000"/>
<path class="atom-5" d="M 112.1 139.6 Q 112.1 137.3, 113.3 135.9 Q 114.5 134.6, 116.7 134.6 Q 118.8 134.6, 120.0 135.9 Q 121.2 137.3, 121.2 139.6 Q 121.2 142.0, 120.0 143.4 Q 118.8 144.8, 116.7 144.8 Q 114.5 144.8, 113.3 143.4 Q 112.1 142.1, 112.1 139.6 M 116.7 143.6 Q 118.2 143.6, 119.0 142.6 Q 119.8 141.6, 119.8 139.6 Q 119.8 137.7, 119.0 136.7 Q 118.2 135.7, 116.7 135.7 Q 115.1 135.7, 114.3 136.7 Q 113.5 137.7, 113.5 139.6 Q 113.5 141.6, 114.3 142.6 Q 115.1 143.6, 116.7 143.6 " fill="#FF0000"/>
<path class="atom-7" d="M 146.5 90.0 Q 146.5 87.6, 147.7 86.3 Q 148.9 85.0, 151.1 85.0 Q 153.2 85.0, 154.4 86.3 Q 155.6 87.6, 155.6 90.0 Q 155.6 92.4, 154.4 93.8 Q 153.2 95.1, 151.1 95.1 Q 148.9 95.1, 147.7 93.8 Q 146.5 92.4, 146.5 90.0 M 151.1 94.0 Q 152.6 94.0, 153.4 93.0 Q 154.2 92.0, 154.2 90.0 Q 154.2 88.1, 153.4 87.1 Q 152.6 86.1, 151.1 86.1 Q 149.6 86.1, 148.7 87.1 Q 147.9 88.1, 147.9 90.0 Q 147.9 92.0, 148.7 93.0 Q 149.6 94.0, 151.1 94.0 " fill="#FF0000"/>
<path class="atom-10" d="M 142.5 15.6 L 143.9 15.6 L 143.9 19.8 L 148.9 19.8 L 148.9 15.6 L 150.3 15.6 L 150.3 25.5 L 148.9 25.5 L 148.9 20.9 L 143.9 20.9 L 143.9 25.5 L 142.5 25.5 L 142.5 15.6 " fill="#FF0000"/>
<path class="atom-10" d="M 152.3 20.5 Q 152.3 18.2, 153.5 16.8 Q 154.6 15.5, 156.8 15.5 Q 159.0 15.5, 160.2 16.8 Q 161.3 18.2, 161.3 20.5 Q 161.3 22.9, 160.2 24.3 Q 159.0 25.7, 156.8 25.7 Q 154.6 25.7, 153.5 24.3 Q 152.3 22.9, 152.3 20.5 M 156.8 24.5 Q 158.3 24.5, 159.1 23.5 Q 159.9 22.5, 159.9 20.5 Q 159.9 18.6, 159.1 17.6 Q 158.3 16.6, 156.8 16.6 Q 155.3 16.6, 154.5 17.6 Q 153.7 18.6, 153.7 20.5 Q 153.7 22.5, 154.5 23.5 Q 155.3 24.5, 156.8 24.5 " fill="#FF0000"/>
<path class="atom-12" d="M 238.2 80.1 Q 238.2 77.8, 239.4 76.4 Q 240.6 75.1, 242.8 75.1 Q 244.9 75.1, 246.1 76.4 Q 247.3 77.8, 247.3 80.1 Q 247.3 82.5, 246.1 83.9 Q 244.9 85.2, 242.8 85.2 Q 240.6 85.2, 239.4 83.9 Q 238.2 82.5, 238.2 80.1 M 242.8 84.1 Q 244.3 84.1, 245.1 83.1 Q 245.9 82.1, 245.9 80.1 Q 245.9 78.2, 245.1 77.2 Q 244.3 76.2, 242.8 76.2 Q 241.3 76.2, 240.4 77.2 Q 239.6 78.2, 239.6 80.1 Q 239.6 82.1, 240.4 83.1 Q 241.3 84.1, 242.8 84.1 " fill="#FF0000"/>
<path class="atom-12" d="M 248.8 75.2 L 250.2 75.2 L 250.2 79.4 L 255.2 79.4 L 255.2 75.2 L 256.6 75.2 L 256.6 85.1 L 255.2 85.1 L 255.2 80.5 L 250.2 80.5 L 250.2 85.1 L 248.8 85.1 L 248.8 75.2 " fill="#FF0000"/>
<path class="atom-14" d="M 232.5 149.6 Q 232.5 147.2, 233.6 145.9 Q 234.8 144.6, 237.0 144.6 Q 239.2 144.6, 240.4 145.9 Q 241.5 147.2, 241.5 149.6 Q 241.5 152.0, 240.3 153.4 Q 239.2 154.7, 237.0 154.7 Q 234.8 154.7, 233.6 153.4 Q 232.5 152.0, 232.5 149.6 M 237.0 153.6 Q 238.5 153.6, 239.3 152.6 Q 240.1 151.6, 240.1 149.6 Q 240.1 147.7, 239.3 146.7 Q 238.5 145.7, 237.0 145.7 Q 235.5 145.7, 234.7 146.7 Q 233.9 147.7, 233.9 149.6 Q 233.9 151.6, 234.7 152.6 Q 235.5 153.6, 237.0 153.6 " fill="#FF0000"/>
<path class="atom-14" d="M 243.1 144.7 L 244.4 144.7 L 244.4 148.9 L 249.5 148.9 L 249.5 144.7 L 250.8 144.7 L 250.8 154.6 L 249.5 154.6 L 249.5 150.0 L 244.4 150.0 L 244.4 154.6 L 243.1 154.6 L 243.1 144.7 " fill="#FF0000"/>
<path class="atom-16" d="M 169.4 179.4 Q 169.4 177.0, 170.6 175.7 Q 171.8 174.3, 174.0 174.3 Q 176.1 174.3, 177.3 175.7 Q 178.5 177.0, 178.5 179.4 Q 178.5 181.8, 177.3 183.1 Q 176.1 184.5, 174.0 184.5 Q 171.8 184.5, 170.6 183.1 Q 169.4 181.8, 169.4 179.4 M 174.0 183.4 Q 175.5 183.4, 176.3 182.4 Q 177.1 181.3, 177.1 179.4 Q 177.1 177.4, 176.3 176.5 Q 175.5 175.5, 174.0 175.5 Q 172.4 175.5, 171.6 176.4 Q 170.8 177.4, 170.8 179.4 Q 170.8 181.4, 171.6 182.4 Q 172.4 183.4, 174.0 183.4 " fill="#FF0000"/>
<path class="atom-16" d="M 180.0 174.5 L 181.4 174.5 L 181.4 178.7 L 186.4 178.7 L 186.4 174.5 L 187.7 174.5 L 187.7 184.3 L 186.4 184.3 L 186.4 179.8 L 181.4 179.8 L 181.4 184.3 L 180.0 184.3 L 180.0 174.5 " fill="#FF0000"/>
</svg>
