<?xml version='1.0' encoding='ASCII' standalone='yes'?>
<svg xmlns="http://www.w3.org/2000/svg" xmlns:rdkit="http://www.rdkit.org/xml" xmlns:xlink="http://www.w3.org/1999/xlink" version="1.1" baseProfile="full" xml:space="preserve" width="260px" height="200px" viewBox="0 0 260 200">
<!-- END OF HEADER -->
<rect style="opacity:1.0;fill:#FFFFFF;stroke:none" width="260.0" height="200.0" x="0.0" y="0.0"> </rect>
<path class="bond-0 atom-0 atom-1" d="M 13.0,118.2 L 47.9,106.8" style="fill:none;fill-rule:evenodd;stroke:#000000;stroke-width:2.0px;stroke-linecap:butt;stroke-linejoin:miter;stroke-opacity:1"/>
<path class="bond-1 atom-1 atom-2" d="M 47.9,106.8 L 51.0,92.2" style="fill:none;fill-rule:evenodd;stroke:#000000;stroke-width:2.0px;stroke-linecap:butt;stroke-linejoin:miter;stroke-opacity:1"/>
<path class="bond-1 atom-1 atom-2" d="M 51.0,92.2 L 54.1,77.5" style="fill:none;fill-rule:evenodd;stroke:#FF0000;stroke-width:2.0px;stroke-linecap:butt;stroke-linejoin:miter;stroke-opacity:1"/>
<path class="bond-2 atom-1 atom-3" d="M 47.9,106.8 L 75.2,131.4" style="fill:none;fill-rule:evenodd;stroke:#000000;stroke-width:2.0px;stroke-linecap:butt;stroke-linejoin:miter;stroke-opacity:1"/>
<path class="bond-3 atom-3 atom-4" d="M 75.2,131.4 L 110.2,120.0" style="fill:none;fill-rule:evenodd;stroke:#000000;stroke-width:2.0px;stroke-linecap:butt;stroke-linejoin:miter;stroke-opacity:1"/>
<path class="bond-4 atom-4 atom-5" d="M 110.2,120.0 L 120.8,129.6" style="fill:none;fill-rule:evenodd;stroke:#000000;stroke-width:2.0px;stroke-linecap:butt;stroke-linejoin:miter;stroke-opacity:1"/>
<path class="bond-4 atom-4 atom-5" d="M 120.8,129.6 L 131.5,139.2" style="fill:none;fill-rule:evenodd;stroke:#FF0000;stroke-width:2.0px;stroke-linecap:butt;stroke-linejoin:miter;stroke-opacity:1"/>
<path class="bond-5 atom-4 atom-6" d="M 110.2,120.0 L 113.3,105.4" style="fill:none;fill-rule:evenodd;stroke:#000000;stroke-width:2.0px;stroke-linecap:butt;stroke-linejoin:miter;stroke-opacity:1"/>
<path class="bond-5 atom-4 atom-6" d="M 113.3,105.4 L 116.4,90.7" style="fill:none;fill-rule:evenodd;stroke:#FF0000;stroke-width:2.0px;stroke-linecap:butt;stroke-linejoin:miter;stroke-opacity:1"/>
<path class="bond-6 atom-6 atom-7" d="M 123.8,82.2 L 138.2,77.4" style="fill:none;fill-rule:evenodd;stroke:#FF0000;stroke-width:2.0px;stroke-linecap:butt;stroke-linejoin:miter;stroke-opacity:1"/>
<path class="bond-6 atom-6 atom-7" d="M 138.2,77.4 L 152.7,72.7" style="fill:none;fill-rule:evenodd;stroke:#000000;stroke-width:2.0px;stroke-linecap:butt;stroke-linejoin:miter;stroke-opacity:1"/>
<path class="bond-7 atom-7 atom-8" d="M 152.7,72.7 L 160.3,36.8" style="fill:none;fill-rule:evenodd;stroke:#000000;stroke-width:2.0px;stroke-linecap:butt;stroke-linejoin:miter;stroke-opacity:1"/>
<path class="bond-8 atom-7 atom-9" d="M 152.7,72.7 L 180.0,97.3" style="fill:none;fill-rule:evenodd;stroke:#000000;stroke-width:2.0px;stroke-linecap:butt;stroke-linejoin:miter;stroke-opacity:1"/>
<path class="bond-9 atom-9 atom-10" d="M 180.0,97.3 L 155.4,124.6" style="fill:none;fill-rule:evenodd;stroke:#000000;stroke-width:2.0px;stroke-linecap:butt;stroke-linejoin:miter;stroke-opacity:1"/>
<path class="bond-10 atom-9 atom-11" d="M 180.0,97.3 L 204.6,70.0" style="fill:none;fill-rule:evenodd;stroke:#000000;stroke-width:2.0px;stroke-linecap:butt;stroke-linejoin:miter;stroke-opacity:1"/>
<path class="bond-11 atom-9 atom-12" d="M 180.0,97.3 L 207.3,121.8" style="fill:none;fill-rule:evenodd;stroke:#000000;stroke-width:2.0px;stroke-linecap:butt;stroke-linejoin:miter;stroke-opacity:1"/>
<path class="bond-12 atom-12 atom-13" d="M 206.6,125.0 L 221.9,120.0" style="fill:none;fill-rule:evenodd;stroke:#000000;stroke-width:2.0px;stroke-linecap:butt;stroke-linejoin:miter;stroke-opacity:1"/>
<path class="bond-12 atom-12 atom-13" d="M 221.9,120.0 L 237.1,115.0" style="fill:none;fill-rule:evenodd;stroke:#FF0000;stroke-width:2.0px;stroke-linecap:butt;stroke-linejoin:miter;stroke-opacity:1"/>
<path class="bond-12 atom-12 atom-13" d="M 204.9,119.7 L 220.2,114.8" style="fill:none;fill-rule:evenodd;stroke:#000000;stroke-width:2.0px;stroke-linecap:butt;stroke-linejoin:miter;stroke-opacity:1"/>
<path class="bond-12 atom-12 atom-13" d="M 220.2,114.8 L 235.4,109.8" style="fill:none;fill-rule:evenodd;stroke:#FF0000;stroke-width:2.0px;stroke-linecap:butt;stroke-linejoin:miter;stroke-opacity:1"/>
<path class="bond-13 atom-12 atom-14" d="M 207.3,121.8 L 204.2,136.6" style="fill:none;fill-rule:evenodd;stroke:#000000;stroke-width:2.0px;stroke-linecap:butt;stroke-linejoin:miter;stroke-opacity:1"/>
<path class="bond-13 atom-12 atom-14" d="M 204.2,136.6 L 201.1,151.3" style="fill:none;fill-rule:evenodd;stroke:#FF0000;stroke-width:2.0px;stroke-linecap:butt;stroke-linejoin:miter;stroke-opacity:1"/>
<path d="M 73.9,130.2 L 75.2,131.4 L 77.0,130.8" style="fill:none;stroke:#000000;stroke-width:2.0px;stroke-linecap:butt;stroke-linejoin:miter;stroke-opacity:1;"/>
<path d="M 205.9,120.6 L 207.3,121.8 L 207.1,122.6" style="fill:none;stroke:#000000;stroke-width:2.0px;stroke-linecap:butt;stroke-linejoin:miter;stroke-opacity:1;"/>
<path class="atom-2" d="M 50.8 70.9 Q 50.8 68.4, 52.0 67.1 Q 53.2 65.7, 55.5 65.7 Q 57.8 65.7, 59.1 67.1 Q 60.3 68.4, 60.3 70.9 Q 60.3 73.5, 59.1 74.9 Q 57.8 76.3, 55.5 76.3 Q 53.2 76.3, 52.0 74.9 Q 50.8 73.5, 50.8 70.9 M 55.5 75.2 Q 57.1 75.2, 58.0 74.1 Q 58.8 73.0, 58.8 70.9 Q 58.8 68.9, 58.0 67.9 Q 57.1 66.8, 55.5 66.8 Q 53.9 66.8, 53.1 67.9 Q 52.2 68.9, 52.2 70.9 Q 52.2 73.0, 53.1 74.1 Q 53.9 75.2, 55.5 75.2 " fill="#FF0000"/>
<path class="atom-2" d="M 61.9 65.8 L 63.3 65.8 L 63.3 70.2 L 68.7 70.2 L 68.7 65.8 L 70.1 65.8 L 70.1 76.2 L 68.7 76.2 L 68.7 71.4 L 63.3 71.4 L 63.3 76.2 L 61.9 76.2 L 61.9 65.8 " fill="#FF0000"/>
<path class="atom-5" d="M 132.7 144.6 Q 132.7 142.1, 133.9 140.7 Q 135.2 139.3, 137.5 139.3 Q 139.8 139.3, 141.0 140.7 Q 142.2 142.1, 142.2 144.6 Q 142.2 147.1, 141.0 148.6 Q 139.7 150.0, 137.5 150.0 Q 135.2 150.0, 133.9 148.6 Q 132.7 147.2, 132.7 144.6 M 137.5 148.8 Q 139.0 148.8, 139.9 147.8 Q 140.8 146.7, 140.8 144.6 Q 140.8 142.6, 139.9 141.5 Q 139.0 140.5, 137.5 140.5 Q 135.9 140.5, 135.0 141.5 Q 134.2 142.6, 134.2 144.6 Q 134.2 146.7, 135.0 147.8 Q 135.9 148.8, 137.5 148.8 " fill="#FF0000"/>
<path class="atom-5" d="M 143.9 139.4 L 145.3 139.4 L 145.3 143.9 L 150.6 143.9 L 150.6 139.4 L 152.0 139.4 L 152.0 149.8 L 150.6 149.8 L 150.6 145.0 L 145.3 145.0 L 145.3 149.8 L 143.9 149.8 L 143.9 139.4 " fill="#FF0000"/>
<path class="atom-6" d="M 113.0 84.1 Q 113.0 81.6, 114.2 80.2 Q 115.5 78.8, 117.8 78.8 Q 120.1 78.8, 121.3 80.2 Q 122.5 81.6, 122.5 84.1 Q 122.5 86.7, 121.3 88.1 Q 120.0 89.5, 117.8 89.5 Q 115.5 89.5, 114.2 88.1 Q 113.0 86.7, 113.0 84.1 M 117.8 88.3 Q 119.4 88.3, 120.2 87.3 Q 121.1 86.2, 121.1 84.1 Q 121.1 82.1, 120.2 81.1 Q 119.4 80.0, 117.8 80.0 Q 116.2 80.0, 115.3 81.0 Q 114.5 82.1, 114.5 84.1 Q 114.5 86.2, 115.3 87.3 Q 116.2 88.3, 117.8 88.3 " fill="#FF0000"/>
<path class="atom-13" d="M 237.5 110.5 Q 237.5 108.0, 238.7 106.6 Q 239.9 105.2, 242.2 105.2 Q 244.5 105.2, 245.8 106.6 Q 247.0 108.0, 247.0 110.5 Q 247.0 113.0, 245.8 114.5 Q 244.5 115.9, 242.2 115.9 Q 239.9 115.9, 238.7 114.5 Q 237.5 113.0, 237.5 110.5 M 242.2 114.7 Q 243.8 114.7, 244.7 113.7 Q 245.5 112.6, 245.5 110.5 Q 245.5 108.5, 244.7 107.4 Q 243.8 106.4, 242.2 106.4 Q 240.6 106.4, 239.8 107.4 Q 238.9 108.4, 238.9 110.5 Q 238.9 112.6, 239.8 113.7 Q 240.6 114.7, 242.2 114.7 " fill="#FF0000"/>
<path class="atom-14" d="M 194.9 157.8 Q 194.9 155.3, 196.1 153.9 Q 197.4 152.5, 199.7 152.5 Q 202.0 152.5, 203.2 153.9 Q 204.5 155.3, 204.5 157.8 Q 204.5 160.3, 203.2 161.8 Q 202.0 163.2, 199.7 163.2 Q 197.4 163.2, 196.1 161.8 Q 194.9 160.3, 194.9 157.8 M 199.7 162.0 Q 201.3 162.0, 202.1 161.0 Q 203.0 159.9, 203.0 157.8 Q 203.0 155.8, 202.1 154.7 Q 201.3 153.7, 199.7 153.7 Q 198.1 153.7, 197.2 154.7 Q 196.4 155.7, 196.4 157.8 Q 196.4 159.9, 197.2 161.0 Q 198.1 162.0, 199.7 162.0 " fill="#FF0000"/>
<path class="atom-14" d="M 206.1 152.6 L 207.5 152.6 L 207.5 157.1 L 212.8 157.1 L 212.8 152.6 L 214.2 152.6 L 214.2 163.0 L 212.8 163.0 L 212.8 158.2 L 207.5 158.2 L 207.5 163.0 L 206.1 163.0 L 206.1 152.6 " fill="#FF0000"/>
</svg>
