<?xml version='1.0' encoding='ASCII' standalone='yes'?>
<svg xmlns="http://www.w3.org/2000/svg" xmlns:rdkit="http://www.rdkit.org/xml" xmlns:xlink="http://www.w3.org/1999/xlink" version="1.1" baseProfile="full" xml:space="preserve" width="326px" height="200px" viewBox="0 0 326 200">
<!-- END OF HEADER -->
<rect style="opacity:1.0;fill:#FFFFFF;stroke:none" width="326.0" height="200.0" x="0.0" y="0.0"> </rect>
<path class="bond-0 atom-0 atom-1" d="M 271.8,38.3 L 271.8,58.1" style="fill:none;fill-rule:evenodd;stroke:#000000;stroke-width:2.0px;stroke-linecap:butt;stroke-linejoin:miter;stroke-opacity:1"/>
<path class="bond-1 atom-1 atom-2" d="M 271.8,58.1 L 271.8,77.9" style="fill:none;fill-rule:evenodd;stroke:#000000;stroke-width:2.0px;stroke-linecap:butt;stroke-linejoin:miter;stroke-opacity:1"/>
<path class="bond-2 atom-1 atom-3" d="M 271.8,58.1 L 252.0,58.1" style="fill:none;fill-rule:evenodd;stroke:#000000;stroke-width:2.0px;stroke-linecap:butt;stroke-linejoin:miter;stroke-opacity:1"/>
<path class="bond-3 atom-3 atom-4" d="M 252.0,58.1 L 242.1,75.2" style="fill:none;fill-rule:evenodd;stroke:#000000;stroke-width:2.0px;stroke-linecap:butt;stroke-linejoin:miter;stroke-opacity:1"/>
<path class="bond-4 atom-4 atom-5" d="M 242.1,75.2 L 222.3,75.2" style="fill:none;fill-rule:evenodd;stroke:#000000;stroke-width:2.0px;stroke-linecap:butt;stroke-linejoin:miter;stroke-opacity:1"/>
<path class="bond-5 atom-5 atom-6" d="M 222.3,75.2 L 212.4,92.4" style="fill:none;fill-rule:evenodd;stroke:#000000;stroke-width:2.0px;stroke-linecap:butt;stroke-linejoin:miter;stroke-opacity:1"/>
<path class="bond-6 atom-6 atom-7" d="M 212.4,92.4 L 192.6,92.4" style="fill:none;fill-rule:evenodd;stroke:#000000;stroke-width:2.0px;stroke-linecap:butt;stroke-linejoin:miter;stroke-opacity:1"/>
<path class="bond-7 atom-7 atom-8" d="M 192.6,92.4 L 182.7,109.5" style="fill:none;fill-rule:evenodd;stroke:#000000;stroke-width:2.0px;stroke-linecap:butt;stroke-linejoin:miter;stroke-opacity:1"/>
<path class="bond-8 atom-8 atom-9" d="M 182.7,109.5 L 162.9,109.5" style="fill:none;fill-rule:evenodd;stroke:#000000;stroke-width:2.0px;stroke-linecap:butt;stroke-linejoin:miter;stroke-opacity:1"/>
<path class="bond-9 atom-9 atom-10" d="M 162.9,109.5 L 162.9,101.4" style="fill:none;fill-rule:evenodd;stroke:#000000;stroke-width:2.0px;stroke-linecap:butt;stroke-linejoin:miter;stroke-opacity:1"/>
<path class="bond-9 atom-9 atom-10" d="M 162.9,101.4 L 162.9,93.3" style="fill:none;fill-rule:evenodd;stroke:#FF0000;stroke-width:2.0px;stroke-linecap:butt;stroke-linejoin:miter;stroke-opacity:1"/>
<path class="bond-10 atom-9 atom-11" d="M 162.9,109.5 L 143.1,109.5" style="fill:none;fill-rule:evenodd;stroke:#000000;stroke-width:2.0px;stroke-linecap:butt;stroke-linejoin:miter;stroke-opacity:1"/>
<path class="bond-11 atom-11 atom-12" d="M 143.1,109.5 L 133.3,92.4" style="fill:none;fill-rule:evenodd;stroke:#000000;stroke-width:2.0px;stroke-linecap:butt;stroke-linejoin:miter;stroke-opacity:1"/>
<path class="bond-12 atom-12 atom-13" d="M 133.3,92.4 L 113.5,92.4" style="fill:none;fill-rule:evenodd;stroke:#000000;stroke-width:2.0px;stroke-linecap:butt;stroke-linejoin:miter;stroke-opacity:1"/>
<path class="bond-13 atom-13 atom-14" d="M 113.5,92.4 L 103.6,75.2" style="fill:none;fill-rule:evenodd;stroke:#000000;stroke-width:2.0px;stroke-linecap:butt;stroke-linejoin:miter;stroke-opacity:1"/>
<path class="bond-14 atom-14 atom-15" d="M 103.6,75.2 L 83.8,75.2" style="fill:none;fill-rule:evenodd;stroke:#000000;stroke-width:2.0px;stroke-linecap:butt;stroke-linejoin:miter;stroke-opacity:1"/>
<path class="bond-15 atom-15 atom-16" d="M 83.8,75.2 L 73.9,58.1" style="fill:none;fill-rule:evenodd;stroke:#000000;stroke-width:2.0px;stroke-linecap:butt;stroke-linejoin:miter;stroke-opacity:1"/>
<path class="bond-16 atom-16 atom-17" d="M 73.9,58.1 L 54.1,58.1" style="fill:none;fill-rule:evenodd;stroke:#000000;stroke-width:2.0px;stroke-linecap:butt;stroke-linejoin:miter;stroke-opacity:1"/>
<path class="bond-17 atom-17 atom-18" d="M 54.1,58.1 L 54.1,77.9" style="fill:none;fill-rule:evenodd;stroke:#000000;stroke-width:2.0px;stroke-linecap:butt;stroke-linejoin:miter;stroke-opacity:1"/>
<path class="bond-18 atom-17 atom-19" d="M 54.1,58.1 L 54.1,38.3" style="fill:none;fill-rule:evenodd;stroke:#000000;stroke-width:2.0px;stroke-linecap:butt;stroke-linejoin:miter;stroke-opacity:1"/>
<path class="bond-19 atom-17 atom-20" d="M 54.1,58.1 L 34.3,58.1" style="fill:none;fill-rule:evenodd;stroke:#000000;stroke-width:2.0px;stroke-linecap:butt;stroke-linejoin:miter;stroke-opacity:1"/>
<path class="bond-20 atom-20 atom-21" d="M 36.0,58.1 L 31.9,50.9" style="fill:none;fill-rule:evenodd;stroke:#000000;stroke-width:2.0px;stroke-linecap:butt;stroke-linejoin:miter;stroke-opacity:1"/>
<path class="bond-20 atom-20 atom-21" d="M 31.9,50.9 L 27.8,43.8" style="fill:none;fill-rule:evenodd;stroke:#FF0000;stroke-width:2.0px;stroke-linecap:butt;stroke-linejoin:miter;stroke-opacity:1"/>
<path class="bond-20 atom-20 atom-21" d="M 33.4,59.6 L 29.3,52.4" style="fill:none;fill-rule:evenodd;stroke:#000000;stroke-width:2.0px;stroke-linecap:butt;stroke-linejoin:miter;stroke-opacity:1"/>
<path class="bond-20 atom-20 atom-21" d="M 29.3,52.4 L 25.2,45.3" style="fill:none;fill-rule:evenodd;stroke:#FF0000;stroke-width:2.0px;stroke-linecap:butt;stroke-linejoin:miter;stroke-opacity:1"/>
<path class="bond-21 atom-20 atom-22" d="M 34.3,58.1 L 30.4,64.9" style="fill:none;fill-rule:evenodd;stroke:#000000;stroke-width:2.0px;stroke-linecap:butt;stroke-linejoin:miter;stroke-opacity:1"/>
<path class="bond-21 atom-20 atom-22" d="M 30.4,64.9 L 26.4,71.7" style="fill:none;fill-rule:evenodd;stroke:#FF0000;stroke-width:2.0px;stroke-linecap:butt;stroke-linejoin:miter;stroke-opacity:1"/>
<path class="bond-22 atom-9 atom-23" d="M 162.9,109.5 L 162.9,129.3" style="fill:none;fill-rule:evenodd;stroke:#000000;stroke-width:2.0px;stroke-linecap:butt;stroke-linejoin:miter;stroke-opacity:1"/>
<path class="bond-23 atom-23 atom-24" d="M 162.9,129.3 L 182.7,129.3" style="fill:none;fill-rule:evenodd;stroke:#000000;stroke-width:2.0px;stroke-linecap:butt;stroke-linejoin:miter;stroke-opacity:1"/>
<path class="bond-24 atom-23 atom-25" d="M 162.9,129.3 L 143.1,129.3" style="fill:none;fill-rule:evenodd;stroke:#000000;stroke-width:2.0px;stroke-linecap:butt;stroke-linejoin:miter;stroke-opacity:1"/>
<path class="bond-25 atom-23 atom-26" d="M 162.9,129.3 L 162.9,149.1" style="fill:none;fill-rule:evenodd;stroke:#000000;stroke-width:2.0px;stroke-linecap:butt;stroke-linejoin:miter;stroke-opacity:1"/>
<path class="bond-26 atom-26 atom-27" d="M 162.9,147.4 L 155.6,151.6" style="fill:none;fill-rule:evenodd;stroke:#000000;stroke-width:2.0px;stroke-linecap:butt;stroke-linejoin:miter;stroke-opacity:1"/>
<path class="bond-26 atom-26 atom-27" d="M 155.6,151.6 L 148.3,155.8" style="fill:none;fill-rule:evenodd;stroke:#FF0000;stroke-width:2.0px;stroke-linecap:butt;stroke-linejoin:miter;stroke-opacity:1"/>
<path class="bond-26 atom-26 atom-27" d="M 164.4,149.9 L 157.1,154.2" style="fill:none;fill-rule:evenodd;stroke:#000000;stroke-width:2.0px;stroke-linecap:butt;stroke-linejoin:miter;stroke-opacity:1"/>
<path class="bond-26 atom-26 atom-27" d="M 157.1,154.2 L 149.8,158.4" style="fill:none;fill-rule:evenodd;stroke:#FF0000;stroke-width:2.0px;stroke-linecap:butt;stroke-linejoin:miter;stroke-opacity:1"/>
<path class="bond-27 atom-26 atom-28" d="M 162.9,149.1 L 169.9,153.1" style="fill:none;fill-rule:evenodd;stroke:#000000;stroke-width:2.0px;stroke-linecap:butt;stroke-linejoin:miter;stroke-opacity:1"/>
<path class="bond-27 atom-26 atom-28" d="M 169.9,153.1 L 176.9,157.1" style="fill:none;fill-rule:evenodd;stroke:#FF0000;stroke-width:2.0px;stroke-linecap:butt;stroke-linejoin:miter;stroke-opacity:1"/>
<path class="bond-28 atom-1 atom-29" d="M 271.8,58.1 L 291.6,58.1" style="fill:none;fill-rule:evenodd;stroke:#000000;stroke-width:2.0px;stroke-linecap:butt;stroke-linejoin:miter;stroke-opacity:1"/>
<path class="bond-29 atom-29 atom-30" d="M 292.4,59.6 L 296.6,52.4" style="fill:none;fill-rule:evenodd;stroke:#000000;stroke-width:2.0px;stroke-linecap:butt;stroke-linejoin:miter;stroke-opacity:1"/>
<path class="bond-29 atom-29 atom-30" d="M 296.6,52.4 L 300.7,45.3" style="fill:none;fill-rule:evenodd;stroke:#FF0000;stroke-width:2.0px;stroke-linecap:butt;stroke-linejoin:miter;stroke-opacity:1"/>
<path class="bond-29 atom-29 atom-30" d="M 289.9,58.1 L 294.0,50.9" style="fill:none;fill-rule:evenodd;stroke:#000000;stroke-width:2.0px;stroke-linecap:butt;stroke-linejoin:miter;stroke-opacity:1"/>
<path class="bond-29 atom-29 atom-30" d="M 294.0,50.9 L 298.1,43.8" style="fill:none;fill-rule:evenodd;stroke:#FF0000;stroke-width:2.0px;stroke-linecap:butt;stroke-linejoin:miter;stroke-opacity:1"/>
<path class="bond-30 atom-29 atom-31" d="M 291.6,58.1 L 295.5,64.9" style="fill:none;fill-rule:evenodd;stroke:#000000;stroke-width:2.0px;stroke-linecap:butt;stroke-linejoin:miter;stroke-opacity:1"/>
<path class="bond-30 atom-29 atom-31" d="M 295.5,64.9 L 299.5,71.7" style="fill:none;fill-rule:evenodd;stroke:#FF0000;stroke-width:2.0px;stroke-linecap:butt;stroke-linejoin:miter;stroke-opacity:1"/>
<path d="M 253.0,58.1 L 252.0,58.1 L 251.5,58.9" style="fill:none;stroke:#000000;stroke-width:2.0px;stroke-linecap:butt;stroke-linejoin:miter;stroke-opacity:1;"/>
<path d="M 242.6,74.4 L 242.1,75.2 L 241.1,75.2" style="fill:none;stroke:#000000;stroke-width:2.0px;stroke-linecap:butt;stroke-linejoin:miter;stroke-opacity:1;"/>
<path d="M 223.3,75.2 L 222.3,75.2 L 221.8,76.1" style="fill:none;stroke:#000000;stroke-width:2.0px;stroke-linecap:butt;stroke-linejoin:miter;stroke-opacity:1;"/>
<path d="M 212.9,91.5 L 212.4,92.4 L 211.4,92.4" style="fill:none;stroke:#000000;stroke-width:2.0px;stroke-linecap:butt;stroke-linejoin:miter;stroke-opacity:1;"/>
<path d="M 193.6,92.4 L 192.6,92.4 L 192.1,93.2" style="fill:none;stroke:#000000;stroke-width:2.0px;stroke-linecap:butt;stroke-linejoin:miter;stroke-opacity:1;"/>
<path d="M 183.2,108.6 L 182.7,109.5 L 181.7,109.5" style="fill:none;stroke:#000000;stroke-width:2.0px;stroke-linecap:butt;stroke-linejoin:miter;stroke-opacity:1;"/>
<path d="M 144.1,109.5 L 143.1,109.5 L 142.7,108.6" style="fill:none;stroke:#000000;stroke-width:2.0px;stroke-linecap:butt;stroke-linejoin:miter;stroke-opacity:1;"/>
<path d="M 133.7,93.2 L 133.3,92.4 L 132.3,92.4" style="fill:none;stroke:#000000;stroke-width:2.0px;stroke-linecap:butt;stroke-linejoin:miter;stroke-opacity:1;"/>
<path d="M 114.5,92.4 L 113.5,92.4 L 113.0,91.5" style="fill:none;stroke:#000000;stroke-width:2.0px;stroke-linecap:butt;stroke-linejoin:miter;stroke-opacity:1;"/>
<path d="M 104.1,76.1 L 103.6,75.2 L 102.6,75.2" style="fill:none;stroke:#000000;stroke-width:2.0px;stroke-linecap:butt;stroke-linejoin:miter;stroke-opacity:1;"/>
<path d="M 84.8,75.2 L 83.8,75.2 L 83.3,74.4" style="fill:none;stroke:#000000;stroke-width:2.0px;stroke-linecap:butt;stroke-linejoin:miter;stroke-opacity:1;"/>
<path d="M 74.4,58.9 L 73.9,58.1 L 72.9,58.1" style="fill:none;stroke:#000000;stroke-width:2.0px;stroke-linecap:butt;stroke-linejoin:miter;stroke-opacity:1;"/>
<path d="M 35.3,58.1 L 34.3,58.1 L 34.1,58.4" style="fill:none;stroke:#000000;stroke-width:2.0px;stroke-linecap:butt;stroke-linejoin:miter;stroke-opacity:1;"/>
<path d="M 162.9,148.1 L 162.9,149.1 L 163.3,149.3" style="fill:none;stroke:#000000;stroke-width:2.0px;stroke-linecap:butt;stroke-linejoin:miter;stroke-opacity:1;"/>
<path d="M 290.6,58.1 L 291.6,58.1 L 291.8,58.4" style="fill:none;stroke:#000000;stroke-width:2.0px;stroke-linecap:butt;stroke-linejoin:miter;stroke-opacity:1;"/>
<path class="atom-10" d="M 160.4 89.7 Q 160.4 88.4, 161.0 87.6 Q 161.7 86.9, 162.9 86.9 Q 164.2 86.9, 164.8 87.6 Q 165.5 88.4, 165.5 89.7 Q 165.5 91.1, 164.8 91.9 Q 164.2 92.6, 162.9 92.6 Q 161.7 92.6, 161.0 91.9 Q 160.4 91.1, 160.4 89.7 M 162.9 92.0 Q 163.8 92.0, 164.3 91.4 Q 164.7 90.8, 164.7 89.7 Q 164.7 88.6, 164.3 88.1 Q 163.8 87.5, 162.9 87.5 Q 162.1 87.5, 161.6 88.1 Q 161.2 88.6, 161.2 89.7 Q 161.2 90.9, 161.6 91.4 Q 162.1 92.0, 162.9 92.0 " fill="#FF0000"/>
<path class="atom-10" d="M 166.4 86.9 L 167.1 86.9 L 167.1 89.3 L 170.0 89.3 L 170.0 86.9 L 170.8 86.9 L 170.8 92.5 L 170.0 92.5 L 170.0 90.0 L 167.1 90.0 L 167.1 92.5 L 166.4 92.5 L 166.4 86.9 " fill="#FF0000"/>
<path class="atom-21" d="M 21.8 41.0 Q 21.8 39.6, 22.5 38.9 Q 23.2 38.1, 24.4 38.1 Q 25.7 38.1, 26.3 38.9 Q 27.0 39.6, 27.0 41.0 Q 27.0 42.3, 26.3 43.1 Q 25.6 43.9, 24.4 43.9 Q 23.2 43.9, 22.5 43.1 Q 21.8 42.3, 21.8 41.0 M 24.4 43.2 Q 25.3 43.2, 25.7 42.7 Q 26.2 42.1, 26.2 41.0 Q 26.2 39.9, 25.7 39.3 Q 25.3 38.7, 24.4 38.7 Q 23.6 38.7, 23.1 39.3 Q 22.6 39.8, 22.6 41.0 Q 22.6 42.1, 23.1 42.7 Q 23.6 43.2, 24.4 43.2 " fill="#FF0000"/>
<path class="atom-22" d="M 16.3 72.4 L 17.1 72.4 L 17.1 74.8 L 19.9 74.8 L 19.9 72.4 L 20.7 72.4 L 20.7 78.1 L 19.9 78.1 L 19.9 75.5 L 17.1 75.5 L 17.1 78.1 L 16.3 78.1 L 16.3 72.4 " fill="#FF0000"/>
<path class="atom-22" d="M 21.8 75.2 Q 21.8 73.9, 22.5 73.1 Q 23.2 72.4, 24.4 72.4 Q 25.7 72.4, 26.3 73.1 Q 27.0 73.9, 27.0 75.2 Q 27.0 76.6, 26.3 77.4 Q 25.6 78.1, 24.4 78.1 Q 23.2 78.1, 22.5 77.4 Q 21.8 76.6, 21.8 75.2 M 24.4 77.5 Q 25.3 77.5, 25.7 76.9 Q 26.2 76.4, 26.2 75.2 Q 26.2 74.1, 25.7 73.6 Q 25.3 73.0, 24.4 73.0 Q 23.6 73.0, 23.1 73.6 Q 22.6 74.1, 22.6 75.2 Q 22.6 76.4, 23.1 76.9 Q 23.6 77.5, 24.4 77.5 " fill="#FF0000"/>
<path class="atom-27" d="M 143.2 159.0 Q 143.2 157.6, 143.9 156.9 Q 144.6 156.1, 145.8 156.1 Q 147.0 156.1, 147.7 156.9 Q 148.4 157.6, 148.4 159.0 Q 148.4 160.3, 147.7 161.1 Q 147.0 161.9, 145.8 161.9 Q 144.6 161.9, 143.9 161.1 Q 143.2 160.4, 143.2 159.0 M 145.8 161.3 Q 146.7 161.3, 147.1 160.7 Q 147.6 160.1, 147.6 159.0 Q 147.6 157.9, 147.1 157.3 Q 146.7 156.8, 145.8 156.8 Q 144.9 156.8, 144.5 157.3 Q 144.0 157.9, 144.0 159.0 Q 144.0 160.1, 144.5 160.7 Q 144.9 161.3, 145.8 161.3 " fill="#FF0000"/>
<path class="atom-28" d="M 177.5 159.0 Q 177.5 157.6, 178.2 156.9 Q 178.8 156.1, 180.1 156.1 Q 181.3 156.1, 182.0 156.9 Q 182.7 157.6, 182.7 159.0 Q 182.7 160.3, 182.0 161.1 Q 181.3 161.9, 180.1 161.9 Q 178.8 161.9, 178.2 161.1 Q 177.5 160.4, 177.5 159.0 M 180.1 161.3 Q 180.9 161.3, 181.4 160.7 Q 181.9 160.1, 181.9 159.0 Q 181.9 157.9, 181.4 157.3 Q 180.9 156.8, 180.1 156.8 Q 179.2 156.8, 178.8 157.3 Q 178.3 157.9, 178.3 159.0 Q 178.3 160.1, 178.8 160.7 Q 179.2 161.3, 180.1 161.3 " fill="#FF0000"/>
<path class="atom-28" d="M 183.5 156.2 L 184.3 156.2 L 184.3 158.6 L 187.1 158.6 L 187.1 156.2 L 187.9 156.2 L 187.9 161.8 L 187.1 161.8 L 187.1 159.2 L 184.3 159.2 L 184.3 161.8 L 183.5 161.8 L 183.5 156.2 " fill="#FF0000"/>
<path class="atom-30" d="M 298.9 41.0 Q 298.9 39.6, 299.6 38.9 Q 300.2 38.1, 301.5 38.1 Q 302.7 38.1, 303.4 38.9 Q 304.0 39.6, 304.0 41.0 Q 304.0 42.3, 303.4 43.1 Q 302.7 43.9, 301.5 43.9 Q 300.2 43.9, 299.6 43.1 Q 298.9 42.3, 298.9 41.0 M 301.5 43.2 Q 302.3 43.2, 302.8 42.7 Q 303.3 42.1, 303.3 41.0 Q 303.3 39.9, 302.8 39.3 Q 302.3 38.7, 301.5 38.7 Q 300.6 38.7, 300.1 39.3 Q 299.7 39.8, 299.7 41.0 Q 299.7 42.1, 300.1 42.7 Q 300.6 43.2, 301.5 43.2 " fill="#FF0000"/>
<path class="atom-31" d="M 298.9 75.2 Q 298.9 73.9, 299.6 73.1 Q 300.2 72.4, 301.5 72.4 Q 302.7 72.4, 303.4 73.1 Q 304.0 73.9, 304.0 75.2 Q 304.0 76.6, 303.4 77.4 Q 302.7 78.1, 301.5 78.1 Q 300.2 78.1, 299.6 77.4 Q 298.9 76.6, 298.9 75.2 M 301.5 77.5 Q 302.3 77.5, 302.8 76.9 Q 303.3 76.4, 303.3 75.2 Q 303.3 74.1, 302.8 73.6 Q 302.3 73.0, 301.5 73.0 Q 300.6 73.0, 300.1 73.6 Q 299.7 74.1, 299.7 75.2 Q 299.7 76.4, 300.1 76.9 Q 300.6 77.5, 301.5 77.5 " fill="#FF0000"/>
<path class="atom-31" d="M 304.9 72.4 L 305.7 72.4 L 305.7 74.8 L 308.5 74.8 L 308.5 72.4 L 309.3 72.4 L 309.3 78.1 L 308.5 78.1 L 308.5 75.5 L 305.7 75.5 L 305.7 78.1 L 304.9 78.1 L 304.9 72.4 " fill="#FF0000"/>
</svg>
