<?xml version='1.0' encoding='ASCII' standalone='yes'?>
<svg xmlns="http://www.w3.org/2000/svg" xmlns:rdkit="http://www.rdkit.org/xml" xmlns:xlink="http://www.w3.org/1999/xlink" version="1.1" baseProfile="full" xml:space="preserve" width="280px" height="200px" viewBox="0 0 280 200">
<!-- END OF HEADER -->
<rect style="opacity:1.0;fill:#FFFFFF;stroke:none" width="280.0" height="200.0" x="0.0" y="0.0"> </rect>
<path class="bond-0 atom-0 atom-1" d="M 25.8,99.8 L 36.0,94.6" style="fill:none;fill-rule:evenodd;stroke:#FF0000;stroke-width:2.0px;stroke-linecap:butt;stroke-linejoin:miter;stroke-opacity:1"/>
<path class="bond-0 atom-0 atom-1" d="M 36.0,94.6 L 46.2,89.3" style="fill:none;fill-rule:evenodd;stroke:#000000;stroke-width:2.0px;stroke-linecap:butt;stroke-linejoin:miter;stroke-opacity:1"/>
<path class="bond-0 atom-0 atom-1" d="M 27.6,103.4 L 37.8,98.1" style="fill:none;fill-rule:evenodd;stroke:#FF0000;stroke-width:2.0px;stroke-linecap:butt;stroke-linejoin:miter;stroke-opacity:1"/>
<path class="bond-0 atom-0 atom-1" d="M 37.8,98.1 L 48.0,92.9" style="fill:none;fill-rule:evenodd;stroke:#000000;stroke-width:2.0px;stroke-linecap:butt;stroke-linejoin:miter;stroke-opacity:1"/>
<path class="bond-1 atom-1 atom-2" d="M 46.0,91.6 L 68.5,106.0" style="fill:none;fill-rule:evenodd;stroke:#000000;stroke-width:2.0px;stroke-linecap:butt;stroke-linejoin:miter;stroke-opacity:1"/>
<path class="bond-2 atom-2 atom-3" d="M 68.5,106.0 L 92.2,93.8" style="fill:none;fill-rule:evenodd;stroke:#000000;stroke-width:2.0px;stroke-linecap:butt;stroke-linejoin:miter;stroke-opacity:1"/>
<path class="bond-3 atom-3 atom-4" d="M 92.2,93.8 L 114.6,108.3" style="fill:none;fill-rule:evenodd;stroke:#000000;stroke-width:2.0px;stroke-linecap:butt;stroke-linejoin:miter;stroke-opacity:1"/>
<path class="bond-3 atom-3 atom-4" d="M 91.9,98.5 L 110.5,110.4" style="fill:none;fill-rule:evenodd;stroke:#000000;stroke-width:2.0px;stroke-linecap:butt;stroke-linejoin:miter;stroke-opacity:1"/>
<path class="bond-4 atom-4 atom-5" d="M 114.6,108.3 L 138.3,96.1" style="fill:none;fill-rule:evenodd;stroke:#000000;stroke-width:2.0px;stroke-linecap:butt;stroke-linejoin:miter;stroke-opacity:1"/>
<path class="bond-5 atom-5 atom-6" d="M 138.3,96.1 L 160.7,110.5" style="fill:none;fill-rule:evenodd;stroke:#000000;stroke-width:2.0px;stroke-linecap:butt;stroke-linejoin:miter;stroke-opacity:1"/>
<path class="bond-6 atom-6 atom-7" d="M 160.7,110.5 L 184.4,98.3" style="fill:none;fill-rule:evenodd;stroke:#000000;stroke-width:2.0px;stroke-linecap:butt;stroke-linejoin:miter;stroke-opacity:1"/>
<path class="bond-7 atom-7 atom-8" d="M 184.4,98.3 L 184.9,87.4" style="fill:none;fill-rule:evenodd;stroke:#000000;stroke-width:2.0px;stroke-linecap:butt;stroke-linejoin:miter;stroke-opacity:1"/>
<path class="bond-7 atom-7 atom-8" d="M 184.9,87.4 L 185.4,76.5" style="fill:none;fill-rule:evenodd;stroke:#FF0000;stroke-width:2.0px;stroke-linecap:butt;stroke-linejoin:miter;stroke-opacity:1"/>
<path class="bond-8 atom-7 atom-9" d="M 184.4,98.3 L 206.8,112.7" style="fill:none;fill-rule:evenodd;stroke:#000000;stroke-width:2.0px;stroke-linecap:butt;stroke-linejoin:miter;stroke-opacity:1"/>
<path class="bond-9 atom-9 atom-10" d="M 206.8,112.7 L 230.5,100.5" style="fill:none;fill-rule:evenodd;stroke:#000000;stroke-width:2.0px;stroke-linecap:butt;stroke-linejoin:miter;stroke-opacity:1"/>
<path class="bond-10 atom-10 atom-11" d="M 228.4,101.6 L 237.9,107.7" style="fill:none;fill-rule:evenodd;stroke:#000000;stroke-width:2.0px;stroke-linecap:butt;stroke-linejoin:miter;stroke-opacity:1"/>
<path class="bond-10 atom-10 atom-11" d="M 237.9,107.7 L 247.5,113.8" style="fill:none;fill-rule:evenodd;stroke:#FF0000;stroke-width:2.0px;stroke-linecap:butt;stroke-linejoin:miter;stroke-opacity:1"/>
<path class="bond-10 atom-10 atom-11" d="M 230.6,98.2 L 240.1,104.3" style="fill:none;fill-rule:evenodd;stroke:#000000;stroke-width:2.0px;stroke-linecap:butt;stroke-linejoin:miter;stroke-opacity:1"/>
<path class="bond-10 atom-10 atom-11" d="M 240.1,104.3 L 249.6,110.5" style="fill:none;fill-rule:evenodd;stroke:#FF0000;stroke-width:2.0px;stroke-linecap:butt;stroke-linejoin:miter;stroke-opacity:1"/>
<path class="bond-11 atom-10 atom-12" d="M 230.5,100.5 L 231.0,89.6" style="fill:none;fill-rule:evenodd;stroke:#000000;stroke-width:2.0px;stroke-linecap:butt;stroke-linejoin:miter;stroke-opacity:1"/>
<path class="bond-11 atom-10 atom-12" d="M 231.0,89.6 L 231.5,78.7" style="fill:none;fill-rule:evenodd;stroke:#FF0000;stroke-width:2.0px;stroke-linecap:butt;stroke-linejoin:miter;stroke-opacity:1"/>
<path class="bond-12 atom-12 atom-13" d="M 236.1,71.7 L 251.1,63.9" style="fill:none;fill-rule:evenodd;stroke:#FF0000;stroke-width:2.0px;stroke-linecap:butt;stroke-linejoin:miter;stroke-opacity:1"/>
<path class="bond-13 atom-4 atom-14" d="M 114.6,108.3 L 113.3,134.9" style="fill:none;fill-rule:evenodd;stroke:#000000;stroke-width:2.0px;stroke-linecap:butt;stroke-linejoin:miter;stroke-opacity:1"/>
<path class="bond-14 atom-14 atom-15" d="M 113.4,132.6 L 103.2,137.8" style="fill:none;fill-rule:evenodd;stroke:#000000;stroke-width:2.0px;stroke-linecap:butt;stroke-linejoin:miter;stroke-opacity:1"/>
<path class="bond-14 atom-14 atom-15" d="M 103.2,137.8 L 93.0,143.1" style="fill:none;fill-rule:evenodd;stroke:#FF0000;stroke-width:2.0px;stroke-linecap:butt;stroke-linejoin:miter;stroke-opacity:1"/>
<path class="bond-14 atom-14 atom-15" d="M 115.2,136.1 L 105.0,141.4" style="fill:none;fill-rule:evenodd;stroke:#000000;stroke-width:2.0px;stroke-linecap:butt;stroke-linejoin:miter;stroke-opacity:1"/>
<path class="bond-14 atom-14 atom-15" d="M 105.0,141.4 L 94.8,146.6" style="fill:none;fill-rule:evenodd;stroke:#FF0000;stroke-width:2.0px;stroke-linecap:butt;stroke-linejoin:miter;stroke-opacity:1"/>
<path class="bond-15 atom-14 atom-16" d="M 113.3,134.9 L 122.3,140.7" style="fill:none;fill-rule:evenodd;stroke:#000000;stroke-width:2.0px;stroke-linecap:butt;stroke-linejoin:miter;stroke-opacity:1"/>
<path class="bond-15 atom-14 atom-16" d="M 122.3,140.7 L 131.3,146.5" style="fill:none;fill-rule:evenodd;stroke:#FF0000;stroke-width:2.0px;stroke-linecap:butt;stroke-linejoin:miter;stroke-opacity:1"/>
<path class="bond-16 atom-1 atom-17" d="M 46.0,91.6 L 46.6,80.7" style="fill:none;fill-rule:evenodd;stroke:#000000;stroke-width:2.0px;stroke-linecap:butt;stroke-linejoin:miter;stroke-opacity:1"/>
<path class="bond-16 atom-1 atom-17" d="M 46.6,80.7 L 47.1,69.8" style="fill:none;fill-rule:evenodd;stroke:#FF0000;stroke-width:2.0px;stroke-linecap:butt;stroke-linejoin:miter;stroke-opacity:1"/>
<path class="bond-17 atom-17 atom-18" d="M 43.0,62.2 L 29.3,53.4" style="fill:none;fill-rule:evenodd;stroke:#FF0000;stroke-width:2.0px;stroke-linecap:butt;stroke-linejoin:miter;stroke-opacity:1"/>
<path d="M 47.2,92.3 L 46.0,91.6 L 46.1,91.1" style="fill:none;stroke:#000000;stroke-width:2.0px;stroke-linecap:butt;stroke-linejoin:miter;stroke-opacity:1;"/>
<path d="M 67.3,105.3 L 68.5,106.0 L 69.6,105.4" style="fill:none;stroke:#000000;stroke-width:2.0px;stroke-linecap:butt;stroke-linejoin:miter;stroke-opacity:1;"/>
<path d="M 91.0,94.5 L 92.2,93.8 L 93.3,94.6" style="fill:none;stroke:#000000;stroke-width:2.0px;stroke-linecap:butt;stroke-linejoin:miter;stroke-opacity:1;"/>
<path d="M 137.1,96.7 L 138.3,96.1 L 139.4,96.8" style="fill:none;stroke:#000000;stroke-width:2.0px;stroke-linecap:butt;stroke-linejoin:miter;stroke-opacity:1;"/>
<path d="M 159.5,109.8 L 160.7,110.5 L 161.9,109.9" style="fill:none;stroke:#000000;stroke-width:2.0px;stroke-linecap:butt;stroke-linejoin:miter;stroke-opacity:1;"/>
<path d="M 205.7,112.0 L 206.8,112.7 L 208.0,112.1" style="fill:none;stroke:#000000;stroke-width:2.0px;stroke-linecap:butt;stroke-linejoin:miter;stroke-opacity:1;"/>
<path d="M 229.3,101.1 L 230.5,100.5 L 230.5,100.0" style="fill:none;stroke:#000000;stroke-width:2.0px;stroke-linecap:butt;stroke-linejoin:miter;stroke-opacity:1;"/>
<path d="M 113.3,133.6 L 113.3,134.9 L 113.7,135.2" style="fill:none;stroke:#000000;stroke-width:2.0px;stroke-linecap:butt;stroke-linejoin:miter;stroke-opacity:1;"/>
<path class="atom-0" d="M 18.9 103.8 Q 18.9 102.0, 19.8 101.0 Q 20.7 100.0, 22.3 100.0 Q 24.0 100.0, 24.9 101.0 Q 25.8 102.0, 25.8 103.8 Q 25.8 105.7, 24.9 106.7 Q 24.0 107.7, 22.3 107.7 Q 20.7 107.7, 19.8 106.7 Q 18.9 105.7, 18.9 103.8 M 22.3 106.9 Q 23.5 106.9, 24.1 106.1 Q 24.7 105.3, 24.7 103.8 Q 24.7 102.4, 24.1 101.6 Q 23.5 100.8, 22.3 100.8 Q 21.2 100.8, 20.6 101.6 Q 19.9 102.3, 19.9 103.8 Q 19.9 105.4, 20.6 106.1 Q 21.2 106.9, 22.3 106.9 " fill="#FF0000"/>
<path class="atom-8" d="M 182.2 71.7 Q 182.2 69.9, 183.1 68.9 Q 184.0 67.9, 185.7 67.9 Q 187.3 67.9, 188.2 68.9 Q 189.1 69.9, 189.1 71.7 Q 189.1 73.5, 188.2 74.6 Q 187.3 75.6, 185.7 75.6 Q 184.0 75.6, 183.1 74.6 Q 182.2 73.5, 182.2 71.7 M 185.7 74.8 Q 186.8 74.8, 187.4 74.0 Q 188.0 73.2, 188.0 71.7 Q 188.0 70.2, 187.4 69.5 Q 186.8 68.7, 185.7 68.7 Q 184.5 68.7, 183.9 69.5 Q 183.3 70.2, 183.3 71.7 Q 183.3 73.2, 183.9 74.0 Q 184.5 74.8, 185.7 74.8 " fill="#FF0000"/>
<path class="atom-8" d="M 190.3 67.9 L 191.3 67.9 L 191.3 71.2 L 195.2 71.2 L 195.2 67.9 L 196.2 67.9 L 196.2 75.5 L 195.2 75.5 L 195.2 72.0 L 191.3 72.0 L 191.3 75.5 L 190.3 75.5 L 190.3 67.9 " fill="#FF0000"/>
<path class="atom-11" d="M 249.4 115.0 Q 249.4 113.2, 250.3 112.1 Q 251.2 111.1, 252.9 111.1 Q 254.6 111.1, 255.5 112.1 Q 256.3 113.2, 256.3 115.0 Q 256.3 116.8, 255.4 117.8 Q 254.5 118.9, 252.9 118.9 Q 251.2 118.9, 250.3 117.8 Q 249.4 116.8, 249.4 115.0 M 252.9 118.0 Q 254.0 118.0, 254.7 117.3 Q 255.3 116.5, 255.3 115.0 Q 255.3 113.5, 254.7 112.7 Q 254.0 112.0, 252.9 112.0 Q 251.7 112.0, 251.1 112.7 Q 250.5 113.5, 250.5 115.0 Q 250.5 116.5, 251.1 117.3 Q 251.7 118.0, 252.9 118.0 " fill="#FF0000"/>
<path class="atom-12" d="M 228.3 73.9 Q 228.3 72.1, 229.2 71.1 Q 230.1 70.1, 231.8 70.1 Q 233.4 70.1, 234.3 71.1 Q 235.2 72.1, 235.2 73.9 Q 235.2 75.8, 234.3 76.8 Q 233.4 77.8, 231.8 77.8 Q 230.1 77.8, 229.2 76.8 Q 228.3 75.8, 228.3 73.9 M 231.8 77.0 Q 232.9 77.0, 233.5 76.2 Q 234.2 75.4, 234.2 73.9 Q 234.2 72.4, 233.5 71.7 Q 232.9 70.9, 231.8 70.9 Q 230.6 70.9, 230.0 71.7 Q 229.4 72.4, 229.4 73.9 Q 229.4 75.5, 230.0 76.2 Q 230.6 77.0, 231.8 77.0 " fill="#FF0000"/>
<path class="atom-13" d="M 252.0 61.7 Q 252.0 59.9, 252.9 58.9 Q 253.8 57.9, 255.5 57.9 Q 257.1 57.9, 258.0 58.9 Q 258.9 59.9, 258.9 61.7 Q 258.9 63.6, 258.0 64.6 Q 257.1 65.6, 255.5 65.6 Q 253.8 65.6, 252.9 64.6 Q 252.0 63.6, 252.0 61.7 M 255.5 64.8 Q 256.6 64.8, 257.2 64.0 Q 257.9 63.2, 257.9 61.7 Q 257.9 60.2, 257.2 59.5 Q 256.6 58.7, 255.5 58.7 Q 254.3 58.7, 253.7 59.5 Q 253.1 60.2, 253.1 61.7 Q 253.1 63.3, 253.7 64.0 Q 254.3 64.8, 255.5 64.8 " fill="#FF0000"/>
<path class="atom-13" d="M 260.1 58.0 L 261.1 58.0 L 261.1 61.2 L 265.0 61.2 L 265.0 58.0 L 266.0 58.0 L 266.0 65.5 L 265.0 65.5 L 265.0 62.0 L 261.1 62.0 L 261.1 65.5 L 260.1 65.5 L 260.1 58.0 " fill="#FF0000"/>
<path class="atom-15" d="M 86.1 147.1 Q 86.1 145.3, 87.0 144.3 Q 87.9 143.3, 89.6 143.3 Q 91.3 143.3, 92.1 144.3 Q 93.0 145.3, 93.0 147.1 Q 93.0 148.9, 92.1 150.0 Q 91.2 151.0, 89.6 151.0 Q 87.9 151.0, 87.0 150.0 Q 86.1 148.9, 86.1 147.1 M 89.6 150.2 Q 90.7 150.2, 91.3 149.4 Q 92.0 148.6, 92.0 147.1 Q 92.0 145.6, 91.3 144.9 Q 90.7 144.1, 89.6 144.1 Q 88.4 144.1, 87.8 144.9 Q 87.2 145.6, 87.2 147.1 Q 87.2 148.6, 87.8 149.4 Q 88.4 150.2, 89.6 150.2 " fill="#FF0000"/>
<path class="atom-16" d="M 132.2 149.3 Q 132.2 147.5, 133.1 146.5 Q 134.0 145.5, 135.7 145.5 Q 137.4 145.5, 138.3 146.5 Q 139.2 147.5, 139.2 149.3 Q 139.2 151.2, 138.2 152.2 Q 137.3 153.2, 135.7 153.2 Q 134.0 153.2, 133.1 152.2 Q 132.2 151.2, 132.2 149.3 M 135.7 152.4 Q 136.8 152.4, 137.5 151.6 Q 138.1 150.8, 138.1 149.3 Q 138.1 147.9, 137.5 147.1 Q 136.8 146.3, 135.7 146.3 Q 134.5 146.3, 133.9 147.1 Q 133.3 147.8, 133.3 149.3 Q 133.3 150.9, 133.9 151.6 Q 134.5 152.4, 135.7 152.4 " fill="#FF0000"/>
<path class="atom-16" d="M 140.3 145.6 L 141.3 145.6 L 141.3 148.8 L 145.2 148.8 L 145.2 145.6 L 146.2 145.6 L 146.2 153.1 L 145.2 153.1 L 145.2 149.6 L 141.3 149.6 L 141.3 153.1 L 140.3 153.1 L 140.3 145.6 " fill="#FF0000"/>
<path class="atom-17" d="M 43.9 65.0 Q 43.9 63.2, 44.8 62.2 Q 45.7 61.2, 47.3 61.2 Q 49.0 61.2, 49.9 62.2 Q 50.8 63.2, 50.8 65.0 Q 50.8 66.9, 49.9 67.9 Q 49.0 68.9, 47.3 68.9 Q 45.7 68.9, 44.8 67.9 Q 43.9 66.9, 43.9 65.0 M 47.3 68.1 Q 48.5 68.1, 49.1 67.3 Q 49.7 66.5, 49.7 65.0 Q 49.7 63.5, 49.1 62.8 Q 48.5 62.0, 47.3 62.0 Q 46.2 62.0, 45.5 62.8 Q 44.9 63.5, 44.9 65.0 Q 44.9 66.5, 45.5 67.3 Q 46.2 68.1, 47.3 68.1 " fill="#FF0000"/>
<path class="atom-18" d="M 14.0 46.8 L 15.0 46.8 L 15.0 50.0 L 18.9 50.0 L 18.9 46.8 L 19.9 46.8 L 19.9 54.4 L 18.9 54.4 L 18.9 50.9 L 15.0 50.9 L 15.0 54.4 L 14.0 54.4 L 14.0 46.8 " fill="#FF0000"/>
<path class="atom-18" d="M 21.5 50.6 Q 21.5 48.8, 22.3 47.8 Q 23.2 46.8, 24.9 46.8 Q 26.6 46.8, 27.5 47.8 Q 28.4 48.8, 28.4 50.6 Q 28.4 52.4, 27.5 53.5 Q 26.6 54.5, 24.9 54.5 Q 23.3 54.5, 22.3 53.5 Q 21.5 52.4, 21.5 50.6 M 24.9 53.7 Q 26.1 53.7, 26.7 52.9 Q 27.3 52.1, 27.3 50.6 Q 27.3 49.1, 26.7 48.4 Q 26.1 47.6, 24.9 47.6 Q 23.8 47.6, 23.1 48.4 Q 22.5 49.1, 22.5 50.6 Q 22.5 52.1, 23.1 52.9 Q 23.8 53.7, 24.9 53.7 " fill="#FF0000"/>
</svg>
