<?xml version='1.0' encoding='ASCII' standalone='yes'?>
<svg xmlns="http://www.w3.org/2000/svg" xmlns:rdkit="http://www.rdkit.org/xml" xmlns:xlink="http://www.w3.org/1999/xlink" version="1.1" baseProfile="full" xml:space="preserve" width="343px" height="200px" viewBox="0 0 343 200">
<!-- END OF HEADER -->
<rect style="opacity:1.0;fill:#FFFFFF;stroke:none" width="343.0" height="200.0" x="0.0" y="0.0"> </rect>
<path class="bond-0 atom-0 atom-1" d="M 101.7,10.0 L 114.4,38.5" style="fill:none;fill-rule:evenodd;stroke:#000000;stroke-width:2.0px;stroke-linecap:butt;stroke-linejoin:miter;stroke-opacity:1"/>
<path class="bond-1 atom-1 atom-2" d="M 114.4,38.5 L 123.2,38.4" style="fill:none;fill-rule:evenodd;stroke:#000000;stroke-width:2.0px;stroke-linecap:butt;stroke-linejoin:miter;stroke-opacity:1"/>
<path class="bond-1 atom-1 atom-2" d="M 123.2,38.4 L 132.1,38.2" style="fill:none;fill-rule:evenodd;stroke:#FF0000;stroke-width:2.0px;stroke-linecap:butt;stroke-linejoin:miter;stroke-opacity:1"/>
<path class="bond-2 atom-1 atom-3" d="M 114.4,38.5 L 96.0,63.8" style="fill:none;fill-rule:evenodd;stroke:#000000;stroke-width:2.0px;stroke-linecap:butt;stroke-linejoin:miter;stroke-opacity:1"/>
<path class="bond-3 atom-3 atom-4" d="M 96.0,63.8 L 70.7,45.4" style="fill:none;fill-rule:evenodd;stroke:#000000;stroke-width:2.0px;stroke-linecap:butt;stroke-linejoin:miter;stroke-opacity:1"/>
<path class="bond-4 atom-3 atom-5" d="M 96.0,63.8 L 121.2,82.2" style="fill:none;fill-rule:evenodd;stroke:#000000;stroke-width:2.0px;stroke-linecap:butt;stroke-linejoin:miter;stroke-opacity:1"/>
<path class="bond-5 atom-5 atom-6" d="M 121.2,82.2 L 118.0,113.2" style="fill:none;fill-rule:evenodd;stroke:#000000;stroke-width:2.0px;stroke-linecap:butt;stroke-linejoin:miter;stroke-opacity:1"/>
<path class="bond-6 atom-6 atom-7" d="M 118.0,113.2 L 143.2,131.6" style="fill:none;fill-rule:evenodd;stroke:#000000;stroke-width:2.0px;stroke-linecap:butt;stroke-linejoin:miter;stroke-opacity:1"/>
<path class="bond-7 atom-7 atom-8" d="M 143.2,131.6 L 168.5,150.0" style="fill:none;fill-rule:evenodd;stroke:#000000;stroke-width:2.0px;stroke-linecap:butt;stroke-linejoin:miter;stroke-opacity:1"/>
<path class="bond-8 atom-7 atom-9" d="M 143.2,131.6 L 124.8,156.9" style="fill:none;fill-rule:evenodd;stroke:#000000;stroke-width:2.0px;stroke-linecap:butt;stroke-linejoin:miter;stroke-opacity:1"/>
<path class="bond-9 atom-9 atom-10" d="M 126.4,154.8 L 112.7,153.3" style="fill:none;fill-rule:evenodd;stroke:#000000;stroke-width:2.0px;stroke-linecap:butt;stroke-linejoin:miter;stroke-opacity:1"/>
<path class="bond-9 atom-9 atom-10" d="M 112.7,153.3 L 99.1,151.9" style="fill:none;fill-rule:evenodd;stroke:#FF0000;stroke-width:2.0px;stroke-linecap:butt;stroke-linejoin:miter;stroke-opacity:1"/>
<path class="bond-9 atom-9 atom-10" d="M 125.9,159.2 L 112.2,157.8" style="fill:none;fill-rule:evenodd;stroke:#000000;stroke-width:2.0px;stroke-linecap:butt;stroke-linejoin:miter;stroke-opacity:1"/>
<path class="bond-9 atom-9 atom-10" d="M 112.2,157.8 L 98.6,156.3" style="fill:none;fill-rule:evenodd;stroke:#FF0000;stroke-width:2.0px;stroke-linecap:butt;stroke-linejoin:miter;stroke-opacity:1"/>
<path class="bond-10 atom-9 atom-11" d="M 124.8,156.9 L 130.0,168.4" style="fill:none;fill-rule:evenodd;stroke:#000000;stroke-width:2.0px;stroke-linecap:butt;stroke-linejoin:miter;stroke-opacity:1"/>
<path class="bond-10 atom-9 atom-11" d="M 130.0,168.4 L 135.1,179.9" style="fill:none;fill-rule:evenodd;stroke:#FF0000;stroke-width:2.0px;stroke-linecap:butt;stroke-linejoin:miter;stroke-opacity:1"/>
<path class="bond-11 atom-7 atom-12" d="M 143.2,131.6 L 161.6,106.3" style="fill:none;fill-rule:evenodd;stroke:#000000;stroke-width:2.0px;stroke-linecap:butt;stroke-linejoin:miter;stroke-opacity:1"/>
<path class="bond-12 atom-12 atom-13" d="M 161.6,106.3 L 192.6,109.6" style="fill:none;fill-rule:evenodd;stroke:#000000;stroke-width:2.0px;stroke-linecap:butt;stroke-linejoin:miter;stroke-opacity:1"/>
<path class="bond-13 atom-13 atom-14" d="M 192.6,109.6 L 211.0,84.4" style="fill:none;fill-rule:evenodd;stroke:#000000;stroke-width:2.0px;stroke-linecap:butt;stroke-linejoin:miter;stroke-opacity:1"/>
<path class="bond-14 atom-14 atom-15" d="M 211.0,84.4 L 220.0,68.2" style="fill:none;fill-rule:evenodd;stroke:#000000;stroke-width:2.0px;stroke-linecap:butt;stroke-linejoin:miter;stroke-opacity:1"/>
<path class="bond-15 atom-14 atom-16" d="M 211.0,84.4 L 236.3,102.7" style="fill:none;fill-rule:evenodd;stroke:#000000;stroke-width:2.0px;stroke-linecap:butt;stroke-linejoin:miter;stroke-opacity:1"/>
<path class="bond-16 atom-16 atom-17" d="M 236.3,102.7 L 264.8,90.1" style="fill:none;fill-rule:evenodd;stroke:#000000;stroke-width:2.0px;stroke-linecap:butt;stroke-linejoin:miter;stroke-opacity:1"/>
<path class="bond-17 atom-17 atom-18" d="M 264.8,90.1 L 293.3,77.4" style="fill:none;fill-rule:evenodd;stroke:#000000;stroke-width:2.0px;stroke-linecap:butt;stroke-linejoin:miter;stroke-opacity:1"/>
<path class="bond-18 atom-17 atom-19" d="M 264.8,90.1 L 252.1,61.5" style="fill:none;fill-rule:evenodd;stroke:#000000;stroke-width:2.0px;stroke-linecap:butt;stroke-linejoin:miter;stroke-opacity:1"/>
<path class="bond-19 atom-19 atom-20" d="M 253.5,59.6 L 246.6,58.0" style="fill:none;fill-rule:evenodd;stroke:#000000;stroke-width:2.0px;stroke-linecap:butt;stroke-linejoin:miter;stroke-opacity:1"/>
<path class="bond-19 atom-19 atom-20" d="M 246.6,58.0 L 239.7,56.3" style="fill:none;fill-rule:evenodd;stroke:#FF0000;stroke-width:2.0px;stroke-linecap:butt;stroke-linejoin:miter;stroke-opacity:1"/>
<path class="bond-19 atom-19 atom-20" d="M 253.3,64.1 L 245.6,62.3" style="fill:none;fill-rule:evenodd;stroke:#000000;stroke-width:2.0px;stroke-linecap:butt;stroke-linejoin:miter;stroke-opacity:1"/>
<path class="bond-19 atom-19 atom-20" d="M 245.6,62.3 L 238.7,60.7" style="fill:none;fill-rule:evenodd;stroke:#FF0000;stroke-width:2.0px;stroke-linecap:butt;stroke-linejoin:miter;stroke-opacity:1"/>
<path class="bond-20 atom-19 atom-21" d="M 252.1,61.5 L 259.3,51.7" style="fill:none;fill-rule:evenodd;stroke:#000000;stroke-width:2.0px;stroke-linecap:butt;stroke-linejoin:miter;stroke-opacity:1"/>
<path class="bond-20 atom-19 atom-21" d="M 259.3,51.7 L 266.4,41.9" style="fill:none;fill-rule:evenodd;stroke:#FF0000;stroke-width:2.0px;stroke-linecap:butt;stroke-linejoin:miter;stroke-opacity:1"/>
<path class="bond-21 atom-17 atom-22" d="M 264.8,90.1 L 277.5,118.6" style="fill:none;fill-rule:evenodd;stroke:#000000;stroke-width:2.0px;stroke-linecap:butt;stroke-linejoin:miter;stroke-opacity:1"/>
<path class="bond-22 atom-22 atom-23" d="M 277.5,118.6 L 308.5,121.9" style="fill:none;fill-rule:evenodd;stroke:#000000;stroke-width:2.0px;stroke-linecap:butt;stroke-linejoin:miter;stroke-opacity:1"/>
<path class="bond-23 atom-22 atom-24" d="M 277.5,118.6 L 270.3,128.5" style="fill:none;fill-rule:evenodd;stroke:#000000;stroke-width:2.0px;stroke-linecap:butt;stroke-linejoin:miter;stroke-opacity:1"/>
<path class="bond-23 atom-22 atom-24" d="M 270.3,128.5 L 263.1,138.4" style="fill:none;fill-rule:evenodd;stroke:#FF0000;stroke-width:2.0px;stroke-linecap:butt;stroke-linejoin:miter;stroke-opacity:1"/>
<path class="bond-24 atom-14 atom-25" d="M 211.0,84.4 L 185.8,66.0" style="fill:none;fill-rule:evenodd;stroke:#000000;stroke-width:2.0px;stroke-linecap:butt;stroke-linejoin:miter;stroke-opacity:1"/>
<path class="bond-25 atom-25 atom-26" d="M 186.3,63.6 L 178.3,65.0" style="fill:none;fill-rule:evenodd;stroke:#000000;stroke-width:2.0px;stroke-linecap:butt;stroke-linejoin:miter;stroke-opacity:1"/>
<path class="bond-25 atom-25 atom-26" d="M 178.3,65.0 L 170.2,66.5" style="fill:none;fill-rule:evenodd;stroke:#FF0000;stroke-width:2.0px;stroke-linecap:butt;stroke-linejoin:miter;stroke-opacity:1"/>
<path class="bond-25 atom-25 atom-26" d="M 188.3,67.8 L 179.0,69.4" style="fill:none;fill-rule:evenodd;stroke:#000000;stroke-width:2.0px;stroke-linecap:butt;stroke-linejoin:miter;stroke-opacity:1"/>
<path class="bond-25 atom-25 atom-26" d="M 179.0,69.4 L 171.0,70.9" style="fill:none;fill-rule:evenodd;stroke:#FF0000;stroke-width:2.0px;stroke-linecap:butt;stroke-linejoin:miter;stroke-opacity:1"/>
<path class="bond-26 atom-25 atom-27" d="M 185.8,66.0 L 188.6,53.6" style="fill:none;fill-rule:evenodd;stroke:#000000;stroke-width:2.0px;stroke-linecap:butt;stroke-linejoin:miter;stroke-opacity:1"/>
<path class="bond-26 atom-25 atom-27" d="M 188.6,53.6 L 191.5,41.2" style="fill:none;fill-rule:evenodd;stroke:#FF0000;stroke-width:2.0px;stroke-linecap:butt;stroke-linejoin:miter;stroke-opacity:1"/>
<path class="bond-27 atom-12 atom-28" d="M 161.6,106.3 L 148.9,77.8" style="fill:none;fill-rule:evenodd;stroke:#000000;stroke-width:2.0px;stroke-linecap:butt;stroke-linejoin:miter;stroke-opacity:1"/>
<path class="bond-28 atom-28 atom-29" d="M 148.9,77.8 L 142.3,56.0" style="fill:none;fill-rule:evenodd;stroke:#000000;stroke-width:2.0px;stroke-linecap:butt;stroke-linejoin:miter;stroke-opacity:1"/>
<path class="bond-29 atom-28 atom-30" d="M 148.9,77.8 L 177.4,65.1" style="fill:none;fill-rule:evenodd;stroke:#000000;stroke-width:2.0px;stroke-linecap:butt;stroke-linejoin:miter;stroke-opacity:1"/>
<path class="bond-30 atom-30 atom-31" d="M 174.6,66.4 L 187.5,71.6" style="fill:none;fill-rule:evenodd;stroke:#000000;stroke-width:2.0px;stroke-linecap:butt;stroke-linejoin:miter;stroke-opacity:1"/>
<path class="bond-30 atom-30 atom-31" d="M 187.5,71.6 L 200.5,76.9" style="fill:none;fill-rule:evenodd;stroke:#FF0000;stroke-width:2.0px;stroke-linecap:butt;stroke-linejoin:miter;stroke-opacity:1"/>
<path class="bond-30 atom-30 atom-31" d="M 177.4,62.7 L 189.2,67.5" style="fill:none;fill-rule:evenodd;stroke:#000000;stroke-width:2.0px;stroke-linecap:butt;stroke-linejoin:miter;stroke-opacity:1"/>
<path class="bond-30 atom-30 atom-31" d="M 189.2,67.5 L 202.2,72.7" style="fill:none;fill-rule:evenodd;stroke:#FF0000;stroke-width:2.0px;stroke-linecap:butt;stroke-linejoin:miter;stroke-opacity:1"/>
<path class="bond-31 atom-30 atom-32" d="M 177.4,65.1 L 177.2,52.3" style="fill:none;fill-rule:evenodd;stroke:#000000;stroke-width:2.0px;stroke-linecap:butt;stroke-linejoin:miter;stroke-opacity:1"/>
<path class="bond-31 atom-30 atom-32" d="M 177.2,52.3 L 177.0,39.5" style="fill:none;fill-rule:evenodd;stroke:#FF0000;stroke-width:2.0px;stroke-linecap:butt;stroke-linejoin:miter;stroke-opacity:1"/>
<path class="bond-32 atom-28 atom-33" d="M 148.9,77.8 L 120.4,90.5" style="fill:none;fill-rule:evenodd;stroke:#000000;stroke-width:2.0px;stroke-linecap:butt;stroke-linejoin:miter;stroke-opacity:1"/>
<path class="bond-33 atom-33 atom-34" d="M 120.4,90.5 L 91.4,78.8" style="fill:none;fill-rule:evenodd;stroke:#000000;stroke-width:2.0px;stroke-linecap:butt;stroke-linejoin:miter;stroke-opacity:1"/>
<path class="bond-34 atom-33 atom-35" d="M 120.4,90.5 L 116.0,102.4" style="fill:none;fill-rule:evenodd;stroke:#000000;stroke-width:2.0px;stroke-linecap:butt;stroke-linejoin:miter;stroke-opacity:1"/>
<path class="bond-34 atom-33 atom-35" d="M 116.0,102.4 L 111.6,114.4" style="fill:none;fill-rule:evenodd;stroke:#FF0000;stroke-width:2.0px;stroke-linecap:butt;stroke-linejoin:miter;stroke-opacity:1"/>
<path class="bond-35 atom-3 atom-36" d="M 96.0,63.8 L 77.6,89.0" style="fill:none;fill-rule:evenodd;stroke:#000000;stroke-width:2.0px;stroke-linecap:butt;stroke-linejoin:miter;stroke-opacity:1"/>
<path class="bond-36 atom-36 atom-37" d="M 75.0,88.8 L 80.4,100.9" style="fill:none;fill-rule:evenodd;stroke:#000000;stroke-width:2.0px;stroke-linecap:butt;stroke-linejoin:miter;stroke-opacity:1"/>
<path class="bond-36 atom-36 atom-37" d="M 80.4,100.9 L 85.8,113.0" style="fill:none;fill-rule:evenodd;stroke:#FF0000;stroke-width:2.0px;stroke-linecap:butt;stroke-linejoin:miter;stroke-opacity:1"/>
<path class="bond-36 atom-36 atom-37" d="M 79.1,87.0 L 84.5,99.1" style="fill:none;fill-rule:evenodd;stroke:#000000;stroke-width:2.0px;stroke-linecap:butt;stroke-linejoin:miter;stroke-opacity:1"/>
<path class="bond-36 atom-36 atom-37" d="M 84.5,99.1 L 89.9,111.2" style="fill:none;fill-rule:evenodd;stroke:#FF0000;stroke-width:2.0px;stroke-linecap:butt;stroke-linejoin:miter;stroke-opacity:1"/>
<path class="bond-37 atom-36 atom-38" d="M 77.6,89.0 L 64.6,87.7" style="fill:none;fill-rule:evenodd;stroke:#000000;stroke-width:2.0px;stroke-linecap:butt;stroke-linejoin:miter;stroke-opacity:1"/>
<path class="bond-37 atom-36 atom-38" d="M 64.6,87.7 L 51.6,86.3" style="fill:none;fill-rule:evenodd;stroke:#FF0000;stroke-width:2.0px;stroke-linecap:butt;stroke-linejoin:miter;stroke-opacity:1"/>
<path d="M 120.0,81.2 L 121.2,82.2 L 121.1,83.7" style="fill:none;stroke:#000000;stroke-width:2.0px;stroke-linecap:butt;stroke-linejoin:miter;stroke-opacity:1;"/>
<path d="M 118.1,111.7 L 118.0,113.2 L 119.2,114.1" style="fill:none;stroke:#000000;stroke-width:2.0px;stroke-linecap:butt;stroke-linejoin:miter;stroke-opacity:1;"/>
<path d="M 125.8,155.6 L 124.8,156.9 L 125.1,157.4" style="fill:none;stroke:#000000;stroke-width:2.0px;stroke-linecap:butt;stroke-linejoin:miter;stroke-opacity:1;"/>
<path d="M 191.1,109.5 L 192.6,109.6 L 193.6,108.4" style="fill:none;stroke:#000000;stroke-width:2.0px;stroke-linecap:butt;stroke-linejoin:miter;stroke-opacity:1;"/>
<path d="M 235.0,101.8 L 236.3,102.7 L 237.7,102.1" style="fill:none;stroke:#000000;stroke-width:2.0px;stroke-linecap:butt;stroke-linejoin:miter;stroke-opacity:1;"/>
<path d="M 252.8,62.9 L 252.1,61.5 L 252.5,61.0" style="fill:none;stroke:#000000;stroke-width:2.0px;stroke-linecap:butt;stroke-linejoin:miter;stroke-opacity:1;"/>
<path d="M 187.0,66.9 L 185.8,66.0 L 185.9,65.4" style="fill:none;stroke:#000000;stroke-width:2.0px;stroke-linecap:butt;stroke-linejoin:miter;stroke-opacity:1;"/>
<path d="M 176.0,65.8 L 177.4,65.1 L 177.4,64.5" style="fill:none;stroke:#000000;stroke-width:2.0px;stroke-linecap:butt;stroke-linejoin:miter;stroke-opacity:1;"/>
<path d="M 78.5,87.8 L 77.6,89.0 L 77.0,89.0" style="fill:none;stroke:#000000;stroke-width:2.0px;stroke-linecap:butt;stroke-linejoin:miter;stroke-opacity:1;"/>
<path class="atom-2" d="M 133.1 38.2 Q 133.1 36.1, 134.1 34.9 Q 135.2 33.7, 137.1 33.7 Q 139.1 33.7, 140.1 34.9 Q 141.2 36.1, 141.2 38.2 Q 141.2 40.3, 140.1 41.6 Q 139.1 42.8, 137.1 42.8 Q 135.2 42.8, 134.1 41.6 Q 133.1 40.3, 133.1 38.2 M 137.1 41.8 Q 138.5 41.8, 139.2 40.9 Q 139.9 40.0, 139.9 38.2 Q 139.9 36.4, 139.2 35.6 Q 138.5 34.7, 137.1 34.7 Q 135.8 34.7, 135.0 35.6 Q 134.3 36.4, 134.3 38.2 Q 134.3 40.0, 135.0 40.9 Q 135.8 41.8, 137.1 41.8 " fill="#FF0000"/>
<path class="atom-2" d="M 142.6 33.8 L 143.8 33.8 L 143.8 37.5 L 148.3 37.5 L 148.3 33.8 L 149.5 33.8 L 149.5 42.6 L 148.3 42.6 L 148.3 38.5 L 143.8 38.5 L 143.8 42.6 L 142.6 42.6 L 142.6 33.8 " fill="#FF0000"/>
<path class="atom-10" d="M 89.7 153.6 Q 89.7 151.5, 90.8 150.3 Q 91.8 149.1, 93.8 149.1 Q 95.7 149.1, 96.8 150.3 Q 97.8 151.5, 97.8 153.6 Q 97.8 155.7, 96.8 157.0 Q 95.7 158.2, 93.8 158.2 Q 91.8 158.2, 90.8 157.0 Q 89.7 155.8, 89.7 153.6 M 93.8 157.2 Q 95.1 157.2, 95.8 156.3 Q 96.6 155.4, 96.6 153.6 Q 96.6 151.9, 95.8 151.0 Q 95.1 150.1, 93.8 150.1 Q 92.4 150.1, 91.7 151.0 Q 91.0 151.8, 91.0 153.6 Q 91.0 155.4, 91.7 156.3 Q 92.4 157.2, 93.8 157.2 " fill="#FF0000"/>
<path class="atom-11" d="M 133.5 185.4 Q 133.5 183.3, 134.5 182.1 Q 135.6 180.9, 137.5 180.9 Q 139.5 180.9, 140.5 182.1 Q 141.6 183.3, 141.6 185.4 Q 141.6 187.6, 140.5 188.8 Q 139.5 190.0, 137.5 190.0 Q 135.6 190.0, 134.5 188.8 Q 133.5 187.6, 133.5 185.4 M 137.5 189.0 Q 138.9 189.0, 139.6 188.1 Q 140.3 187.2, 140.3 185.4 Q 140.3 183.7, 139.6 182.8 Q 138.9 181.9, 137.5 181.9 Q 136.2 181.9, 135.4 182.8 Q 134.7 183.7, 134.7 185.4 Q 134.7 187.2, 135.4 188.1 Q 136.2 189.0, 137.5 189.0 " fill="#FF0000"/>
<path class="atom-11" d="M 143.0 181.0 L 144.2 181.0 L 144.2 184.8 L 148.7 184.8 L 148.7 181.0 L 149.9 181.0 L 149.9 189.9 L 148.7 189.9 L 148.7 185.8 L 144.2 185.8 L 144.2 189.9 L 143.0 189.9 L 143.0 181.0 " fill="#FF0000"/>
<path class="atom-20" d="M 230.1 57.4 Q 230.1 55.3, 231.1 54.1 Q 232.2 52.9, 234.2 52.9 Q 236.1 52.9, 237.2 54.1 Q 238.2 55.3, 238.2 57.4 Q 238.2 59.5, 237.1 60.8 Q 236.1 62.0, 234.2 62.0 Q 232.2 62.0, 231.1 60.8 Q 230.1 59.5, 230.1 57.4 M 234.2 61.0 Q 235.5 61.0, 236.2 60.1 Q 237.0 59.2, 237.0 57.4 Q 237.0 55.6, 236.2 54.8 Q 235.5 53.9, 234.2 53.9 Q 232.8 53.9, 232.1 54.8 Q 231.3 55.6, 231.3 57.4 Q 231.3 59.2, 232.1 60.1 Q 232.8 61.0, 234.2 61.0 " fill="#FF0000"/>
<path class="atom-21" d="M 266.4 36.3 Q 266.4 34.2, 267.5 33.0 Q 268.5 31.8, 270.5 31.8 Q 272.5 31.8, 273.5 33.0 Q 274.6 34.2, 274.6 36.3 Q 274.6 38.4, 273.5 39.7 Q 272.4 40.9, 270.5 40.9 Q 268.5 40.9, 267.5 39.7 Q 266.4 38.5, 266.4 36.3 M 270.5 39.9 Q 271.8 39.9, 272.6 39.0 Q 273.3 38.1, 273.3 36.3 Q 273.3 34.6, 272.6 33.7 Q 271.8 32.8, 270.5 32.8 Q 269.1 32.8, 268.4 33.7 Q 267.7 34.5, 267.7 36.3 Q 267.7 38.1, 268.4 39.0 Q 269.1 39.9, 270.5 39.9 " fill="#FF0000"/>
<path class="atom-21" d="M 275.9 31.9 L 277.1 31.9 L 277.1 35.7 L 281.6 35.7 L 281.6 31.9 L 282.8 31.9 L 282.8 40.7 L 281.6 40.7 L 281.6 36.7 L 277.1 36.7 L 277.1 40.7 L 275.9 40.7 L 275.9 31.9 " fill="#FF0000"/>
<path class="atom-24" d="M 246.3 139.5 L 247.5 139.5 L 247.5 143.2 L 252.0 143.2 L 252.0 139.5 L 253.2 139.5 L 253.2 148.3 L 252.0 148.3 L 252.0 144.2 L 247.5 144.2 L 247.5 148.3 L 246.3 148.3 L 246.3 139.5 " fill="#FF0000"/>
<path class="atom-24" d="M 255.1 143.9 Q 255.1 141.8, 256.1 140.6 Q 257.2 139.4, 259.1 139.4 Q 261.1 139.4, 262.1 140.6 Q 263.2 141.8, 263.2 143.9 Q 263.2 146.0, 262.1 147.2 Q 261.1 148.5, 259.1 148.5 Q 257.2 148.5, 256.1 147.2 Q 255.1 146.0, 255.1 143.9 M 259.1 147.5 Q 260.5 147.5, 261.2 146.6 Q 261.9 145.7, 261.9 143.9 Q 261.9 142.1, 261.2 141.3 Q 260.5 140.4, 259.1 140.4 Q 257.8 140.4, 257.0 141.3 Q 256.3 142.1, 256.3 143.9 Q 256.3 145.7, 257.0 146.6 Q 257.8 147.5, 259.1 147.5 " fill="#FF0000"/>
<path class="atom-26" d="M 161.5 69.6 Q 161.5 67.4, 162.6 66.3 Q 163.6 65.1, 165.6 65.1 Q 167.5 65.1, 168.6 66.3 Q 169.6 67.4, 169.6 69.6 Q 169.6 71.7, 168.6 72.9 Q 167.5 74.2, 165.6 74.2 Q 163.6 74.2, 162.6 72.9 Q 161.5 71.7, 161.5 69.6 M 165.6 73.2 Q 166.9 73.2, 167.6 72.3 Q 168.4 71.3, 168.4 69.6 Q 168.4 67.8, 167.6 67.0 Q 166.9 66.1, 165.6 66.1 Q 164.2 66.1, 163.5 66.9 Q 162.8 67.8, 162.8 69.6 Q 162.8 71.4, 163.5 72.3 Q 164.2 73.2, 165.6 73.2 " fill="#FF0000"/>
<path class="atom-27" d="M 188.7 35.6 Q 188.7 33.5, 189.8 32.3 Q 190.8 31.1, 192.8 31.1 Q 194.8 31.1, 195.8 32.3 Q 196.9 33.5, 196.9 35.6 Q 196.9 37.7, 195.8 39.0 Q 194.7 40.2, 192.8 40.2 Q 190.9 40.2, 189.8 39.0 Q 188.7 37.8, 188.7 35.6 M 192.8 39.2 Q 194.1 39.2, 194.9 38.3 Q 195.6 37.4, 195.6 35.6 Q 195.6 33.9, 194.9 33.0 Q 194.1 32.1, 192.8 32.1 Q 191.4 32.1, 190.7 33.0 Q 190.0 33.8, 190.0 35.6 Q 190.0 37.4, 190.7 38.3 Q 191.4 39.2, 192.8 39.2 " fill="#FF0000"/>
<path class="atom-27" d="M 198.2 31.2 L 199.4 31.2 L 199.4 35.0 L 204.0 35.0 L 204.0 31.2 L 205.2 31.2 L 205.2 40.0 L 204.0 40.0 L 204.0 36.0 L 199.4 36.0 L 199.4 40.0 L 198.2 40.0 L 198.2 31.2 " fill="#FF0000"/>
<path class="atom-31" d="M 202.3 76.9 Q 202.3 74.7, 203.4 73.5 Q 204.4 72.4, 206.4 72.4 Q 208.3 72.4, 209.4 73.5 Q 210.4 74.7, 210.4 76.9 Q 210.4 79.0, 209.4 80.2 Q 208.3 81.4, 206.4 81.4 Q 204.4 81.4, 203.4 80.2 Q 202.3 79.0, 202.3 76.9 M 206.4 80.4 Q 207.7 80.4, 208.5 79.5 Q 209.2 78.6, 209.2 76.9 Q 209.2 75.1, 208.5 74.2 Q 207.7 73.4, 206.4 73.4 Q 205.0 73.4, 204.3 74.2 Q 203.6 75.1, 203.6 76.9 Q 203.6 78.6, 204.3 79.5 Q 205.0 80.4, 206.4 80.4 " fill="#FF0000"/>
<path class="atom-32" d="M 172.8 33.9 Q 172.8 31.8, 173.9 30.6 Q 174.9 29.4, 176.9 29.4 Q 178.9 29.4, 179.9 30.6 Q 181.0 31.8, 181.0 33.9 Q 181.0 36.1, 179.9 37.3 Q 178.8 38.5, 176.9 38.5 Q 175.0 38.5, 173.9 37.3 Q 172.8 36.1, 172.8 33.9 M 176.9 37.5 Q 178.3 37.5, 179.0 36.6 Q 179.7 35.7, 179.7 33.9 Q 179.7 32.2, 179.0 31.3 Q 178.3 30.4, 176.9 30.4 Q 175.6 30.4, 174.8 31.3 Q 174.1 32.2, 174.1 33.9 Q 174.1 35.7, 174.8 36.6 Q 175.6 37.5, 176.9 37.5 " fill="#FF0000"/>
<path class="atom-32" d="M 182.3 29.5 L 183.5 29.5 L 183.5 33.3 L 188.1 33.3 L 188.1 29.5 L 189.3 29.5 L 189.3 38.4 L 188.1 38.4 L 188.1 34.3 L 183.5 34.3 L 183.5 38.4 L 182.3 38.4 L 182.3 29.5 " fill="#FF0000"/>
<path class="atom-35" d="M 96.9 115.5 L 98.1 115.5 L 98.1 119.2 L 102.6 119.2 L 102.6 115.5 L 103.8 115.5 L 103.8 124.3 L 102.6 124.3 L 102.6 120.2 L 98.1 120.2 L 98.1 124.3 L 96.9 124.3 L 96.9 115.5 " fill="#FF0000"/>
<path class="atom-35" d="M 105.6 119.9 Q 105.6 117.7, 106.6 116.5 Q 107.7 115.4, 109.7 115.4 Q 111.6 115.4, 112.7 116.5 Q 113.7 117.7, 113.7 119.9 Q 113.7 122.0, 112.7 123.2 Q 111.6 124.4, 109.7 124.4 Q 107.7 124.4, 106.6 123.2 Q 105.6 122.0, 105.6 119.9 M 109.7 123.4 Q 111.0 123.4, 111.7 122.5 Q 112.5 121.6, 112.5 119.9 Q 112.5 118.1, 111.7 117.2 Q 111.0 116.4, 109.7 116.4 Q 108.3 116.4, 107.6 117.2 Q 106.8 118.1, 106.8 119.9 Q 106.8 121.6, 107.6 122.5 Q 108.3 123.4, 109.7 123.4 " fill="#FF0000"/>
<path class="atom-37" d="M 86.2 117.6 Q 86.2 115.5, 87.3 114.3 Q 88.3 113.1, 90.3 113.1 Q 92.3 113.1, 93.3 114.3 Q 94.4 115.5, 94.4 117.6 Q 94.4 119.8, 93.3 121.0 Q 92.2 122.2, 90.3 122.2 Q 88.3 122.2, 87.3 121.0 Q 86.2 119.8, 86.2 117.6 M 90.3 121.2 Q 91.6 121.2, 92.4 120.3 Q 93.1 119.4, 93.1 117.6 Q 93.1 115.9, 92.4 115.0 Q 91.6 114.1, 90.3 114.1 Q 88.9 114.1, 88.2 115.0 Q 87.5 115.9, 87.5 117.6 Q 87.5 119.4, 88.2 120.3 Q 88.9 121.2, 90.3 121.2 " fill="#FF0000"/>
<path class="atom-38" d="M 33.8 81.4 L 35.0 81.4 L 35.0 85.2 L 39.5 85.2 L 39.5 81.4 L 40.7 81.4 L 40.7 90.2 L 39.5 90.2 L 39.5 86.2 L 35.0 86.2 L 35.0 90.2 L 33.8 90.2 L 33.8 81.4 " fill="#FF0000"/>
<path class="atom-38" d="M 42.5 85.8 Q 42.5 83.7, 43.5 82.5 Q 44.6 81.3, 46.5 81.3 Q 48.5 81.3, 49.6 82.5 Q 50.6 83.7, 50.6 85.8 Q 50.6 87.9, 49.5 89.2 Q 48.5 90.4, 46.5 90.4 Q 44.6 90.4, 43.5 89.2 Q 42.5 88.0, 42.5 85.8 M 46.5 89.4 Q 47.9 89.4, 48.6 88.5 Q 49.4 87.6, 49.4 85.8 Q 49.4 84.1, 48.6 83.2 Q 47.9 82.3, 46.5 82.3 Q 45.2 82.3, 44.5 83.2 Q 43.7 84.0, 43.7 85.8 Q 43.7 87.6, 44.5 88.5 Q 45.2 89.4, 46.5 89.4 " fill="#FF0000"/>
</svg>
