<?xml version='1.0' encoding='ASCII' standalone='yes'?>
<svg xmlns="http://www.w3.org/2000/svg" xmlns:rdkit="http://www.rdkit.org/xml" xmlns:xlink="http://www.w3.org/1999/xlink" version="1.1" baseProfile="full" xml:space="preserve" width="265px" height="200px" viewBox="0 0 265 200">
<!-- END OF HEADER -->
<rect style="opacity:1.0;fill:#FFFFFF;stroke:none" width="265.0" height="200.0" x="0.0" y="0.0"> </rect>
<path class="bond-0 atom-0 atom-1" d="M 12.0,78.4 L 46.5,74.5" style="fill:none;fill-rule:evenodd;stroke:#000000;stroke-width:2.0px;stroke-linecap:butt;stroke-linejoin:miter;stroke-opacity:1"/>
<path class="bond-1 atom-1 atom-2" d="M 46.5,74.5 L 52.1,61.6" style="fill:none;fill-rule:evenodd;stroke:#000000;stroke-width:2.0px;stroke-linecap:butt;stroke-linejoin:miter;stroke-opacity:1"/>
<path class="bond-1 atom-1 atom-2" d="M 52.1,61.6 L 57.7,48.8" style="fill:none;fill-rule:evenodd;stroke:#0000FF;stroke-width:2.0px;stroke-linecap:butt;stroke-linejoin:miter;stroke-opacity:1"/>
<path class="bond-1 atom-1 atom-2" d="M 52.4,73.8 L 57.4,62.3" style="fill:none;fill-rule:evenodd;stroke:#000000;stroke-width:2.0px;stroke-linecap:butt;stroke-linejoin:miter;stroke-opacity:1"/>
<path class="bond-1 atom-1 atom-2" d="M 57.4,62.3 L 62.4,50.9" style="fill:none;fill-rule:evenodd;stroke:#0000FF;stroke-width:2.0px;stroke-linecap:butt;stroke-linejoin:miter;stroke-opacity:1"/>
<path class="bond-2 atom-2 atom-3" d="M 65.2,42.2 L 80.0,40.5" style="fill:none;fill-rule:evenodd;stroke:#0000FF;stroke-width:2.0px;stroke-linecap:butt;stroke-linejoin:miter;stroke-opacity:1"/>
<path class="bond-2 atom-2 atom-3" d="M 80.0,40.5 L 94.8,38.8" style="fill:none;fill-rule:evenodd;stroke:#000000;stroke-width:2.0px;stroke-linecap:butt;stroke-linejoin:miter;stroke-opacity:1"/>
<path class="bond-3 atom-3 atom-4" d="M 94.8,38.8 L 115.3,66.7" style="fill:none;fill-rule:evenodd;stroke:#000000;stroke-width:2.0px;stroke-linecap:butt;stroke-linejoin:miter;stroke-opacity:1"/>
<path class="bond-3 atom-3 atom-4" d="M 92.4,44.3 L 109.4,67.4" style="fill:none;fill-rule:evenodd;stroke:#000000;stroke-width:2.0px;stroke-linecap:butt;stroke-linejoin:miter;stroke-opacity:1"/>
<path class="bond-4 atom-4 atom-5" d="M 115.3,66.7 L 149.8,62.8" style="fill:none;fill-rule:evenodd;stroke:#000000;stroke-width:2.0px;stroke-linecap:butt;stroke-linejoin:miter;stroke-opacity:1"/>
<path class="bond-5 atom-5 atom-6" d="M 149.8,62.8 L 157.8,73.7" style="fill:none;fill-rule:evenodd;stroke:#000000;stroke-width:2.0px;stroke-linecap:butt;stroke-linejoin:miter;stroke-opacity:1"/>
<path class="bond-5 atom-5 atom-6" d="M 157.8,73.7 L 165.9,84.6" style="fill:none;fill-rule:evenodd;stroke:#FF0000;stroke-width:2.0px;stroke-linecap:butt;stroke-linejoin:miter;stroke-opacity:1"/>
<path class="bond-6 atom-6 atom-7" d="M 176.0,90.0 L 188.3,88.6" style="fill:none;fill-rule:evenodd;stroke:#FF0000;stroke-width:2.0px;stroke-linecap:butt;stroke-linejoin:miter;stroke-opacity:1"/>
<path class="bond-6 atom-6 atom-7" d="M 188.3,88.6 L 200.5,87.2" style="fill:none;fill-rule:evenodd;stroke:#FF7F00;stroke-width:2.0px;stroke-linecap:butt;stroke-linejoin:miter;stroke-opacity:1"/>
<path class="bond-7 atom-7 atom-8" d="M 202.9,93.1 L 204.2,104.2" style="fill:none;fill-rule:evenodd;stroke:#FF7F00;stroke-width:2.0px;stroke-linecap:butt;stroke-linejoin:miter;stroke-opacity:1"/>
<path class="bond-7 atom-7 atom-8" d="M 204.2,104.2 L 205.4,115.4" style="fill:none;fill-rule:evenodd;stroke:#FF0000;stroke-width:2.0px;stroke-linecap:butt;stroke-linejoin:miter;stroke-opacity:1"/>
<path class="bond-7 atom-7 atom-8" d="M 208.1,92.5 L 209.3,103.7" style="fill:none;fill-rule:evenodd;stroke:#FF7F00;stroke-width:2.0px;stroke-linecap:butt;stroke-linejoin:miter;stroke-opacity:1"/>
<path class="bond-7 atom-7 atom-8" d="M 209.3,103.7 L 210.6,114.8" style="fill:none;fill-rule:evenodd;stroke:#FF0000;stroke-width:2.0px;stroke-linecap:butt;stroke-linejoin:miter;stroke-opacity:1"/>
<path class="bond-8 atom-7 atom-9" d="M 204.1,80.7 L 202.9,69.6" style="fill:none;fill-rule:evenodd;stroke:#FF7F00;stroke-width:2.0px;stroke-linecap:butt;stroke-linejoin:miter;stroke-opacity:1"/>
<path class="bond-8 atom-7 atom-9" d="M 202.9,69.6 L 201.6,58.6" style="fill:none;fill-rule:evenodd;stroke:#FF0000;stroke-width:2.0px;stroke-linecap:butt;stroke-linejoin:miter;stroke-opacity:1"/>
<path class="bond-9 atom-7 atom-10" d="M 209.1,86.3 L 221.3,84.9" style="fill:none;fill-rule:evenodd;stroke:#FF7F00;stroke-width:2.0px;stroke-linecap:butt;stroke-linejoin:miter;stroke-opacity:1"/>
<path class="bond-9 atom-7 atom-10" d="M 221.3,84.9 L 233.6,83.5" style="fill:none;fill-rule:evenodd;stroke:#FF0000;stroke-width:2.0px;stroke-linecap:butt;stroke-linejoin:miter;stroke-opacity:1"/>
<path class="bond-10 atom-4 atom-11" d="M 115.3,66.7 L 101.5,98.5" style="fill:none;fill-rule:evenodd;stroke:#000000;stroke-width:2.0px;stroke-linecap:butt;stroke-linejoin:miter;stroke-opacity:1"/>
<path class="bond-11 atom-11 atom-12" d="M 101.5,98.5 L 122.1,126.3" style="fill:none;fill-rule:evenodd;stroke:#000000;stroke-width:2.0px;stroke-linecap:butt;stroke-linejoin:miter;stroke-opacity:1"/>
<path class="bond-12 atom-12 atom-13" d="M 122.1,126.3 L 116.5,139.2" style="fill:none;fill-rule:evenodd;stroke:#000000;stroke-width:2.0px;stroke-linecap:butt;stroke-linejoin:miter;stroke-opacity:1"/>
<path class="bond-12 atom-12 atom-13" d="M 116.5,139.2 L 110.9,152.0" style="fill:none;fill-rule:evenodd;stroke:#FF0000;stroke-width:2.0px;stroke-linecap:butt;stroke-linejoin:miter;stroke-opacity:1"/>
<path class="bond-12 atom-12 atom-13" d="M 116.1,127.0 L 111.7,137.1" style="fill:none;fill-rule:evenodd;stroke:#000000;stroke-width:2.0px;stroke-linecap:butt;stroke-linejoin:miter;stroke-opacity:1"/>
<path class="bond-12 atom-12 atom-13" d="M 111.7,137.1 L 106.2,149.9" style="fill:none;fill-rule:evenodd;stroke:#FF0000;stroke-width:2.0px;stroke-linecap:butt;stroke-linejoin:miter;stroke-opacity:1"/>
<path class="bond-13 atom-11 atom-14" d="M 101.5,98.5 L 67.1,102.4" style="fill:none;fill-rule:evenodd;stroke:#000000;stroke-width:2.0px;stroke-linecap:butt;stroke-linejoin:miter;stroke-opacity:1"/>
<path class="bond-13 atom-11 atom-14" d="M 97.9,93.6 L 69.5,96.9" style="fill:none;fill-rule:evenodd;stroke:#000000;stroke-width:2.0px;stroke-linecap:butt;stroke-linejoin:miter;stroke-opacity:1"/>
<path class="bond-14 atom-14 atom-15" d="M 67.1,102.4 L 61.5,115.2" style="fill:none;fill-rule:evenodd;stroke:#000000;stroke-width:2.0px;stroke-linecap:butt;stroke-linejoin:miter;stroke-opacity:1"/>
<path class="bond-14 atom-14 atom-15" d="M 61.5,115.2 L 55.9,128.0" style="fill:none;fill-rule:evenodd;stroke:#FF0000;stroke-width:2.0px;stroke-linecap:butt;stroke-linejoin:miter;stroke-opacity:1"/>
<path class="bond-15 atom-14 atom-1" d="M 67.1,102.4 L 46.5,74.5" style="fill:none;fill-rule:evenodd;stroke:#000000;stroke-width:2.0px;stroke-linecap:butt;stroke-linejoin:miter;stroke-opacity:1"/>
<path d="M 94.0,38.9 L 94.8,38.8 L 95.8,40.2" style="fill:none;stroke:#000000;stroke-width:2.0px;stroke-linecap:butt;stroke-linejoin:miter;stroke-opacity:1;"/>
<path d="M 148.1,63.0 L 149.8,62.8 L 150.2,63.3" style="fill:none;stroke:#000000;stroke-width:2.0px;stroke-linecap:butt;stroke-linejoin:miter;stroke-opacity:1;"/>
<path d="M 121.1,124.9 L 122.1,126.3 L 121.8,127.0" style="fill:none;stroke:#000000;stroke-width:2.0px;stroke-linecap:butt;stroke-linejoin:miter;stroke-opacity:1;"/>
<path class="atom-2" d="M 58.1 37.8 L 61.4 43.0 Q 61.7 43.5, 62.2 44.5 Q 62.7 45.4, 62.7 45.4 L 62.7 37.8 L 64.0 37.8 L 64.0 47.6 L 62.7 47.6 L 59.2 41.9 Q 58.8 41.3, 58.4 40.5 Q 58.0 39.8, 57.9 39.5 L 57.9 47.6 L 56.6 47.6 L 56.6 37.8 L 58.1 37.8 " fill="#0000FF"/>
<path class="atom-6" d="M 165.9 90.7 Q 165.9 88.3, 167.0 87.0 Q 168.2 85.7, 170.4 85.7 Q 172.6 85.7, 173.7 87.0 Q 174.9 88.3, 174.9 90.7 Q 174.9 93.1, 173.7 94.4 Q 172.5 95.8, 170.4 95.8 Q 168.2 95.8, 167.0 94.4 Q 165.9 93.1, 165.9 90.7 M 170.4 94.7 Q 171.9 94.7, 172.7 93.7 Q 173.5 92.7, 173.5 90.7 Q 173.5 88.8, 172.7 87.8 Q 171.9 86.8, 170.4 86.8 Q 168.9 86.8, 168.1 87.8 Q 167.3 88.7, 167.3 90.7 Q 167.3 92.7, 168.1 93.7 Q 168.9 94.7, 170.4 94.7 " fill="#FF0000"/>
<path class="atom-7" d="M 204.6 81.9 Q 206.3 81.9, 207.1 82.6 Q 207.9 83.4, 207.9 84.7 Q 207.9 86.1, 207.1 86.9 Q 206.2 87.6, 204.6 87.6 L 203.0 87.6 L 203.0 91.7 L 201.7 91.7 L 201.7 81.9 L 204.6 81.9 M 204.6 86.5 Q 205.5 86.5, 206.0 86.1 Q 206.6 85.6, 206.6 84.7 Q 206.6 83.9, 206.0 83.4 Q 205.5 83.0, 204.6 83.0 L 203.0 83.0 L 203.0 86.5 L 204.6 86.5 " fill="#FF7F00"/>
<path class="atom-8" d="M 204.2 121.2 Q 204.2 118.9, 205.4 117.5 Q 206.5 116.2, 208.7 116.2 Q 210.9 116.2, 212.1 117.5 Q 213.2 118.9, 213.2 121.2 Q 213.2 123.6, 212.0 125.0 Q 210.9 126.3, 208.7 126.3 Q 206.5 126.3, 205.4 125.0 Q 204.2 123.6, 204.2 121.2 M 208.7 125.2 Q 210.2 125.2, 211.0 124.2 Q 211.8 123.2, 211.8 121.2 Q 211.8 119.3, 211.0 118.3 Q 210.2 117.3, 208.7 117.3 Q 207.2 117.3, 206.4 118.3 Q 205.6 119.3, 205.6 121.2 Q 205.6 123.2, 206.4 124.2 Q 207.2 125.2, 208.7 125.2 " fill="#FF0000"/>
<path class="atom-9" d="M 196.4 52.4 Q 196.4 50.0, 197.6 48.7 Q 198.7 47.4, 200.9 47.4 Q 203.1 47.4, 204.2 48.7 Q 205.4 50.0, 205.4 52.4 Q 205.4 54.7, 204.2 56.1 Q 203.1 57.4, 200.9 57.4 Q 198.7 57.4, 197.6 56.1 Q 196.4 54.8, 196.4 52.4 M 200.9 56.3 Q 202.4 56.3, 203.2 55.3 Q 204.0 54.3, 204.0 52.4 Q 204.0 50.4, 203.2 49.5 Q 202.4 48.5, 200.9 48.5 Q 199.4 48.5, 198.6 49.4 Q 197.8 50.4, 197.8 52.4 Q 197.8 54.3, 198.6 55.3 Q 199.4 56.3, 200.9 56.3 " fill="#FF0000"/>
<path class="atom-9" d="M 206.9 47.5 L 208.3 47.5 L 208.3 51.6 L 213.3 51.6 L 213.3 47.5 L 214.6 47.5 L 214.6 57.3 L 213.3 57.3 L 213.3 52.8 L 208.3 52.8 L 208.3 57.3 L 206.9 57.3 L 206.9 47.5 " fill="#FF0000"/>
<path class="atom-10" d="M 234.7 82.9 Q 234.7 80.5, 235.9 79.2 Q 237.1 77.9, 239.2 77.9 Q 241.4 77.9, 242.6 79.2 Q 243.7 80.5, 243.7 82.9 Q 243.7 85.3, 242.6 86.6 Q 241.4 88.0, 239.2 88.0 Q 237.1 88.0, 235.9 86.6 Q 234.7 85.3, 234.7 82.9 M 239.2 86.9 Q 240.7 86.9, 241.5 85.9 Q 242.4 84.9, 242.4 82.9 Q 242.4 81.0, 241.5 80.0 Q 240.7 79.0, 239.2 79.0 Q 237.7 79.0, 236.9 80.0 Q 236.1 80.9, 236.1 82.9 Q 236.1 84.9, 236.9 85.9 Q 237.7 86.9, 239.2 86.9 " fill="#FF0000"/>
<path class="atom-10" d="M 245.3 78.0 L 246.6 78.0 L 246.6 82.2 L 251.6 82.2 L 251.6 78.0 L 253.0 78.0 L 253.0 87.8 L 251.6 87.8 L 251.6 83.3 L 246.6 83.3 L 246.6 87.8 L 245.3 87.8 L 245.3 78.0 " fill="#FF0000"/>
<path class="atom-13" d="M 101.4 157.1 Q 101.4 154.7, 102.5 153.4 Q 103.7 152.1, 105.9 152.1 Q 108.1 152.1, 109.2 153.4 Q 110.4 154.7, 110.4 157.1 Q 110.4 159.5, 109.2 160.8 Q 108.0 162.2, 105.9 162.2 Q 103.7 162.2, 102.5 160.8 Q 101.4 159.5, 101.4 157.1 M 105.9 161.1 Q 107.4 161.1, 108.2 160.1 Q 109.0 159.1, 109.0 157.1 Q 109.0 155.2, 108.2 154.2 Q 107.4 153.2, 105.9 153.2 Q 104.4 153.2, 103.6 154.2 Q 102.8 155.2, 102.8 157.1 Q 102.8 159.1, 103.6 160.1 Q 104.4 161.1, 105.9 161.1 " fill="#FF0000"/>
<path class="atom-15" d="M 39.0 129.3 L 40.4 129.3 L 40.4 133.5 L 45.4 133.5 L 45.4 129.3 L 46.7 129.3 L 46.7 139.1 L 45.4 139.1 L 45.4 134.6 L 40.4 134.6 L 40.4 139.1 L 39.0 139.1 L 39.0 129.3 " fill="#FF0000"/>
<path class="atom-15" d="M 48.7 134.2 Q 48.7 131.8, 49.9 130.5 Q 51.1 129.2, 53.2 129.2 Q 55.4 129.2, 56.6 130.5 Q 57.7 131.8, 57.7 134.2 Q 57.7 136.5, 56.6 137.9 Q 55.4 139.3, 53.2 139.3 Q 51.1 139.3, 49.9 137.9 Q 48.7 136.6, 48.7 134.2 M 53.2 138.1 Q 54.7 138.1, 55.5 137.1 Q 56.4 136.1, 56.4 134.2 Q 56.4 132.2, 55.5 131.3 Q 54.7 130.3, 53.2 130.3 Q 51.7 130.3, 50.9 131.3 Q 50.1 132.2, 50.1 134.2 Q 50.1 136.1, 50.9 137.1 Q 51.7 138.1, 53.2 138.1 " fill="#FF0000"/>
</svg>
