<?xml version='1.0' encoding='ASCII' standalone='yes'?>
<svg xmlns="http://www.w3.org/2000/svg" xmlns:rdkit="http://www.rdkit.org/xml" xmlns:xlink="http://www.w3.org/1999/xlink" version="1.1" baseProfile="full" xml:space="preserve" width="247px" height="200px" viewBox="0 0 247 200">
<!-- END OF HEADER -->
<rect style="opacity:1.0;fill:#FFFFFF;stroke:none" width="247.0" height="200.0" x="0.0" y="0.0"> </rect>
<path class="bond-0 atom-0 atom-1" d="M 12.4,84.5 L 42.9,99.9" style="fill:none;fill-rule:evenodd;stroke:#000000;stroke-width:2.0px;stroke-linecap:butt;stroke-linejoin:miter;stroke-opacity:1"/>
<path class="bond-1 atom-1 atom-2" d="M 42.9,99.9 L 27.5,130.5" style="fill:none;fill-rule:evenodd;stroke:#000000;stroke-width:2.0px;stroke-linecap:butt;stroke-linejoin:miter;stroke-opacity:1"/>
<path class="bond-2 atom-2 atom-3" d="M 27.5,130.5 L 34.9,141.8" style="fill:none;fill-rule:evenodd;stroke:#000000;stroke-width:2.0px;stroke-linecap:butt;stroke-linejoin:miter;stroke-opacity:1"/>
<path class="bond-2 atom-2 atom-3" d="M 34.9,141.8 L 42.3,153.2" style="fill:none;fill-rule:evenodd;stroke:#FF0000;stroke-width:2.0px;stroke-linecap:butt;stroke-linejoin:miter;stroke-opacity:1"/>
<path class="bond-3 atom-1 atom-4" d="M 42.9,99.9 L 73.5,115.4" style="fill:none;fill-rule:evenodd;stroke:#000000;stroke-width:2.0px;stroke-linecap:butt;stroke-linejoin:miter;stroke-opacity:1"/>
<path class="bond-4 atom-4 atom-5" d="M 73.5,115.4 L 102.2,96.6" style="fill:none;fill-rule:evenodd;stroke:#000000;stroke-width:2.0px;stroke-linecap:butt;stroke-linejoin:miter;stroke-opacity:1"/>
<path class="bond-5 atom-5 atom-6" d="M 102.2,96.6 L 132.8,112.1" style="fill:none;fill-rule:evenodd;stroke:#000000;stroke-width:2.0px;stroke-linecap:butt;stroke-linejoin:miter;stroke-opacity:1"/>
<path class="bond-6 atom-6 atom-7" d="M 132.8,112.1 L 161.5,93.3" style="fill:none;fill-rule:evenodd;stroke:#000000;stroke-width:2.0px;stroke-linecap:butt;stroke-linejoin:miter;stroke-opacity:1"/>
<path class="bond-7 atom-7 atom-8" d="M 161.5,93.3 L 192.1,108.8" style="fill:none;fill-rule:evenodd;stroke:#000000;stroke-width:2.0px;stroke-linecap:butt;stroke-linejoin:miter;stroke-opacity:1"/>
<path class="bond-8 atom-8 atom-9" d="M 192.1,108.8 L 203.6,101.2" style="fill:none;fill-rule:evenodd;stroke:#000000;stroke-width:2.0px;stroke-linecap:butt;stroke-linejoin:miter;stroke-opacity:1"/>
<path class="bond-8 atom-8 atom-9" d="M 203.6,101.2 L 215.2,93.7" style="fill:none;fill-rule:evenodd;stroke:#FF0000;stroke-width:2.0px;stroke-linecap:butt;stroke-linejoin:miter;stroke-opacity:1"/>
<path class="bond-9 atom-1 atom-10" d="M 42.9,99.9 L 58.4,69.3" style="fill:none;fill-rule:evenodd;stroke:#000000;stroke-width:2.0px;stroke-linecap:butt;stroke-linejoin:miter;stroke-opacity:1"/>
<path class="bond-10 atom-10 atom-11" d="M 61.4,69.2 L 53.6,57.3" style="fill:none;fill-rule:evenodd;stroke:#000000;stroke-width:2.0px;stroke-linecap:butt;stroke-linejoin:miter;stroke-opacity:1"/>
<path class="bond-10 atom-10 atom-11" d="M 53.6,57.3 L 45.8,45.4" style="fill:none;fill-rule:evenodd;stroke:#FF0000;stroke-width:2.0px;stroke-linecap:butt;stroke-linejoin:miter;stroke-opacity:1"/>
<path class="bond-10 atom-10 atom-11" d="M 57.1,72.0 L 49.3,60.1" style="fill:none;fill-rule:evenodd;stroke:#000000;stroke-width:2.0px;stroke-linecap:butt;stroke-linejoin:miter;stroke-opacity:1"/>
<path class="bond-10 atom-10 atom-11" d="M 49.3,60.1 L 41.5,48.2" style="fill:none;fill-rule:evenodd;stroke:#FF0000;stroke-width:2.0px;stroke-linecap:butt;stroke-linejoin:miter;stroke-opacity:1"/>
<path class="bond-11 atom-10 atom-12" d="M 58.4,69.3 L 72.7,68.5" style="fill:none;fill-rule:evenodd;stroke:#000000;stroke-width:2.0px;stroke-linecap:butt;stroke-linejoin:miter;stroke-opacity:1"/>
<path class="bond-11 atom-10 atom-12" d="M 72.7,68.5 L 87.0,67.7" style="fill:none;fill-rule:evenodd;stroke:#FF0000;stroke-width:2.0px;stroke-linecap:butt;stroke-linejoin:miter;stroke-opacity:1"/>
<path d="M 28.3,129.0 L 27.5,130.5 L 27.9,131.1" style="fill:none;stroke:#000000;stroke-width:2.0px;stroke-linecap:butt;stroke-linejoin:miter;stroke-opacity:1;"/>
<path d="M 72.0,114.6 L 73.5,115.4 L 75.0,114.4" style="fill:none;stroke:#000000;stroke-width:2.0px;stroke-linecap:butt;stroke-linejoin:miter;stroke-opacity:1;"/>
<path d="M 100.8,97.6 L 102.2,96.6 L 103.8,97.4" style="fill:none;stroke:#000000;stroke-width:2.0px;stroke-linecap:butt;stroke-linejoin:miter;stroke-opacity:1;"/>
<path d="M 131.3,111.3 L 132.8,112.1 L 134.3,111.1" style="fill:none;stroke:#000000;stroke-width:2.0px;stroke-linecap:butt;stroke-linejoin:miter;stroke-opacity:1;"/>
<path d="M 160.1,94.3 L 161.5,93.3 L 163.0,94.1" style="fill:none;stroke:#000000;stroke-width:2.0px;stroke-linecap:butt;stroke-linejoin:miter;stroke-opacity:1;"/>
<path d="M 190.6,108.0 L 192.1,108.8 L 192.7,108.4" style="fill:none;stroke:#000000;stroke-width:2.0px;stroke-linecap:butt;stroke-linejoin:miter;stroke-opacity:1;"/>
<path d="M 57.6,70.9 L 58.4,69.3 L 59.1,69.3" style="fill:none;stroke:#000000;stroke-width:2.0px;stroke-linecap:butt;stroke-linejoin:miter;stroke-opacity:1;"/>
<path class="atom-3" d="M 41.8 159.2 Q 41.8 156.9, 42.9 155.6 Q 44.1 154.3, 46.2 154.3 Q 48.4 154.3, 49.6 155.6 Q 50.7 156.9, 50.7 159.2 Q 50.7 161.6, 49.5 162.9 Q 48.4 164.3, 46.2 164.3 Q 44.1 164.3, 42.9 162.9 Q 41.8 161.6, 41.8 159.2 M 46.2 163.2 Q 47.7 163.2, 48.5 162.2 Q 49.3 161.2, 49.3 159.2 Q 49.3 157.3, 48.5 156.4 Q 47.7 155.4, 46.2 155.4 Q 44.8 155.4, 44.0 156.4 Q 43.2 157.3, 43.2 159.2 Q 43.2 161.2, 44.0 162.2 Q 44.8 163.2, 46.2 163.2 " fill="#FF0000"/>
<path class="atom-3" d="M 52.2 154.4 L 53.5 154.4 L 53.5 158.5 L 58.5 158.5 L 58.5 154.4 L 59.8 154.4 L 59.8 164.1 L 58.5 164.1 L 58.5 159.6 L 53.5 159.6 L 53.5 164.1 L 52.2 164.1 L 52.2 154.4 " fill="#FF0000"/>
<path class="atom-9" d="M 216.3 90.0 Q 216.3 87.7, 217.5 86.4 Q 218.6 85.1, 220.8 85.1 Q 222.9 85.1, 224.1 86.4 Q 225.2 87.7, 225.2 90.0 Q 225.2 92.4, 224.1 93.7 Q 222.9 95.1, 220.8 95.1 Q 218.6 95.1, 217.5 93.7 Q 216.3 92.4, 216.3 90.0 M 220.8 94.0 Q 222.3 94.0, 223.1 93.0 Q 223.9 92.0, 223.9 90.0 Q 223.9 88.1, 223.1 87.2 Q 222.3 86.2, 220.8 86.2 Q 219.3 86.2, 218.5 87.2 Q 217.7 88.1, 217.7 90.0 Q 217.7 92.0, 218.5 93.0 Q 219.3 94.0, 220.8 94.0 " fill="#FF0000"/>
<path class="atom-9" d="M 226.8 85.2 L 228.1 85.2 L 228.1 89.3 L 233.0 89.3 L 233.0 85.2 L 234.3 85.2 L 234.3 94.9 L 233.0 94.9 L 233.0 90.4 L 228.1 90.4 L 228.1 94.9 L 226.8 94.9 L 226.8 85.2 " fill="#FF0000"/>
<path class="atom-11" d="M 35.2 40.7 Q 35.2 38.3, 36.3 37.0 Q 37.5 35.7, 39.6 35.7 Q 41.8 35.7, 42.9 37.0 Q 44.1 38.3, 44.1 40.7 Q 44.1 43.0, 42.9 44.4 Q 41.8 45.7, 39.6 45.7 Q 37.5 45.7, 36.3 44.4 Q 35.2 43.0, 35.2 40.7 M 39.6 44.6 Q 41.1 44.6, 41.9 43.6 Q 42.7 42.6, 42.7 40.7 Q 42.7 38.8, 41.9 37.8 Q 41.1 36.8, 39.6 36.8 Q 38.2 36.8, 37.4 37.8 Q 36.6 38.8, 36.6 40.7 Q 36.6 42.6, 37.4 43.6 Q 38.2 44.6, 39.6 44.6 " fill="#FF0000"/>
<path class="atom-12" d="M 88.2 67.5 Q 88.2 65.1, 89.3 63.8 Q 90.5 62.5, 92.6 62.5 Q 94.8 62.5, 95.9 63.8 Q 97.1 65.1, 97.1 67.5 Q 97.1 69.8, 95.9 71.2 Q 94.8 72.5, 92.6 72.5 Q 90.5 72.5, 89.3 71.2 Q 88.2 69.8, 88.2 67.5 M 92.6 71.4 Q 94.1 71.4, 94.9 70.4 Q 95.7 69.4, 95.7 67.5 Q 95.7 65.5, 94.9 64.6 Q 94.1 63.6, 92.6 63.6 Q 91.1 63.6, 90.3 64.6 Q 89.5 65.5, 89.5 67.5 Q 89.5 69.4, 90.3 70.4 Q 91.1 71.4, 92.6 71.4 " fill="#FF0000"/>
<path class="atom-12" d="M 98.6 62.6 L 99.9 62.6 L 99.9 66.8 L 104.9 66.8 L 104.9 62.6 L 106.2 62.6 L 106.2 72.3 L 104.9 72.3 L 104.9 67.8 L 99.9 67.8 L 99.9 72.3 L 98.6 72.3 L 98.6 62.6 " fill="#FF0000"/>
</svg>
