<?xml version='1.0' encoding='ASCII' standalone='yes'?>
<svg xmlns="http://www.w3.org/2000/svg" xmlns:rdkit="http://www.rdkit.org/xml" xmlns:xlink="http://www.w3.org/1999/xlink" version="1.1" baseProfile="full" xml:space="preserve" width="349px" height="200px" viewBox="0 0 349 200">
<!-- END OF HEADER -->
<rect style="opacity:1.0;fill:#FFFFFF;stroke:none" width="349.0" height="200.0" x="0.0" y="0.0"> </rect>
<path class="bond-0 atom-0 atom-1" d="M 59.9,130.7 L 47.4,114.8" style="fill:none;fill-rule:evenodd;stroke:#000000;stroke-width:2.0px;stroke-linecap:butt;stroke-linejoin:miter;stroke-opacity:1"/>
<path class="bond-1 atom-1 atom-2" d="M 47.4,114.8 L 54.8,96.0" style="fill:none;fill-rule:evenodd;stroke:#000000;stroke-width:2.0px;stroke-linecap:butt;stroke-linejoin:miter;stroke-opacity:1"/>
<path class="bond-2 atom-2 atom-3" d="M 54.8,96.0 L 62.3,77.1" style="fill:none;fill-rule:evenodd;stroke:#000000;stroke-width:2.0px;stroke-linecap:butt;stroke-linejoin:miter;stroke-opacity:1"/>
<path class="bond-3 atom-2 atom-4" d="M 54.8,96.0 L 73.7,103.4" style="fill:none;fill-rule:evenodd;stroke:#000000;stroke-width:2.0px;stroke-linecap:butt;stroke-linejoin:miter;stroke-opacity:1"/>
<path class="bond-4 atom-4 atom-5" d="M 73.7,103.4 L 89.6,90.8" style="fill:none;fill-rule:evenodd;stroke:#000000;stroke-width:2.0px;stroke-linecap:butt;stroke-linejoin:miter;stroke-opacity:1"/>
<path class="bond-5 atom-5 atom-6" d="M 89.6,90.8 L 108.4,98.3" style="fill:none;fill-rule:evenodd;stroke:#000000;stroke-width:2.0px;stroke-linecap:butt;stroke-linejoin:miter;stroke-opacity:1"/>
<path class="bond-6 atom-6 atom-7" d="M 108.4,98.3 L 101.0,117.2" style="fill:none;fill-rule:evenodd;stroke:#000000;stroke-width:2.0px;stroke-linecap:butt;stroke-linejoin:miter;stroke-opacity:1"/>
<path class="bond-7 atom-7 atom-8" d="M 101.0,117.2 L 105.8,123.3" style="fill:none;fill-rule:evenodd;stroke:#000000;stroke-width:2.0px;stroke-linecap:butt;stroke-linejoin:miter;stroke-opacity:1"/>
<path class="bond-7 atom-7 atom-8" d="M 105.8,123.3 L 110.7,129.5" style="fill:none;fill-rule:evenodd;stroke:#FF0000;stroke-width:2.0px;stroke-linecap:butt;stroke-linejoin:miter;stroke-opacity:1"/>
<path class="bond-8 atom-6 atom-9" d="M 108.4,98.3 L 127.3,105.8" style="fill:none;fill-rule:evenodd;stroke:#000000;stroke-width:2.0px;stroke-linecap:butt;stroke-linejoin:miter;stroke-opacity:1"/>
<path class="bond-9 atom-9 atom-10" d="M 127.3,105.8 L 143.2,93.2" style="fill:none;fill-rule:evenodd;stroke:#000000;stroke-width:2.0px;stroke-linecap:butt;stroke-linejoin:miter;stroke-opacity:1"/>
<path class="bond-10 atom-10 atom-11" d="M 143.2,93.2 L 162.0,100.7" style="fill:none;fill-rule:evenodd;stroke:#000000;stroke-width:2.0px;stroke-linecap:butt;stroke-linejoin:miter;stroke-opacity:1"/>
<path class="bond-11 atom-11 atom-12" d="M 162.0,100.7 L 177.9,88.1" style="fill:none;fill-rule:evenodd;stroke:#000000;stroke-width:2.0px;stroke-linecap:butt;stroke-linejoin:miter;stroke-opacity:1"/>
<path class="bond-12 atom-12 atom-13" d="M 177.9,88.1 L 193.8,75.5" style="fill:none;fill-rule:evenodd;stroke:#000000;stroke-width:2.0px;stroke-linecap:butt;stroke-linejoin:miter;stroke-opacity:1"/>
<path class="bond-13 atom-12 atom-14" d="M 177.9,88.1 L 165.3,72.2" style="fill:none;fill-rule:evenodd;stroke:#000000;stroke-width:2.0px;stroke-linecap:butt;stroke-linejoin:miter;stroke-opacity:1"/>
<path class="bond-14 atom-14 atom-15" d="M 166.4,73.5 L 169.6,65.5" style="fill:none;fill-rule:evenodd;stroke:#000000;stroke-width:2.0px;stroke-linecap:butt;stroke-linejoin:miter;stroke-opacity:1"/>
<path class="bond-14 atom-14 atom-15" d="M 169.6,65.5 L 172.7,57.5" style="fill:none;fill-rule:evenodd;stroke:#FF0000;stroke-width:2.0px;stroke-linecap:butt;stroke-linejoin:miter;stroke-opacity:1"/>
<path class="bond-14 atom-14 atom-15" d="M 163.7,72.2 L 166.8,64.4" style="fill:none;fill-rule:evenodd;stroke:#000000;stroke-width:2.0px;stroke-linecap:butt;stroke-linejoin:miter;stroke-opacity:1"/>
<path class="bond-14 atom-14 atom-15" d="M 166.8,64.4 L 169.9,56.4" style="fill:none;fill-rule:evenodd;stroke:#FF0000;stroke-width:2.0px;stroke-linecap:butt;stroke-linejoin:miter;stroke-opacity:1"/>
<path class="bond-15 atom-14 atom-16" d="M 165.3,72.2 L 157.8,72.4" style="fill:none;fill-rule:evenodd;stroke:#000000;stroke-width:2.0px;stroke-linecap:butt;stroke-linejoin:miter;stroke-opacity:1"/>
<path class="bond-15 atom-14 atom-16" d="M 157.8,72.4 L 150.4,72.5" style="fill:none;fill-rule:evenodd;stroke:#FF0000;stroke-width:2.0px;stroke-linecap:butt;stroke-linejoin:miter;stroke-opacity:1"/>
<path class="bond-16 atom-12 atom-17" d="M 177.9,88.1 L 190.5,104.0" style="fill:none;fill-rule:evenodd;stroke:#000000;stroke-width:2.0px;stroke-linecap:butt;stroke-linejoin:miter;stroke-opacity:1"/>
<path class="bond-17 atom-17 atom-18" d="M 190.5,104.0 L 187.5,111.6" style="fill:none;fill-rule:evenodd;stroke:#000000;stroke-width:2.0px;stroke-linecap:butt;stroke-linejoin:miter;stroke-opacity:1"/>
<path class="bond-17 atom-17 atom-18" d="M 187.5,111.6 L 184.4,119.2" style="fill:none;fill-rule:evenodd;stroke:#FF0000;stroke-width:2.0px;stroke-linecap:butt;stroke-linejoin:miter;stroke-opacity:1"/>
<path class="bond-18 atom-17 atom-19" d="M 190.5,104.0 L 210.5,101.0" style="fill:none;fill-rule:evenodd;stroke:#000000;stroke-width:2.0px;stroke-linecap:butt;stroke-linejoin:miter;stroke-opacity:1"/>
<path class="bond-19 atom-19 atom-20" d="M 210.5,101.0 L 223.1,116.9" style="fill:none;fill-rule:evenodd;stroke:#000000;stroke-width:2.0px;stroke-linecap:butt;stroke-linejoin:miter;stroke-opacity:1"/>
<path class="bond-20 atom-20 atom-21" d="M 223.1,116.9 L 243.2,113.9" style="fill:none;fill-rule:evenodd;stroke:#000000;stroke-width:2.0px;stroke-linecap:butt;stroke-linejoin:miter;stroke-opacity:1"/>
<path class="bond-21 atom-21 atom-22" d="M 243.2,113.9 L 240.2,93.9" style="fill:none;fill-rule:evenodd;stroke:#000000;stroke-width:2.0px;stroke-linecap:butt;stroke-linejoin:miter;stroke-opacity:1"/>
<path class="bond-22 atom-22 atom-23" d="M 240.2,93.9 L 246.5,88.9" style="fill:none;fill-rule:evenodd;stroke:#000000;stroke-width:2.0px;stroke-linecap:butt;stroke-linejoin:miter;stroke-opacity:1"/>
<path class="bond-22 atom-22 atom-23" d="M 246.5,88.9 L 252.8,83.9" style="fill:none;fill-rule:evenodd;stroke:#FF0000;stroke-width:2.0px;stroke-linecap:butt;stroke-linejoin:miter;stroke-opacity:1"/>
<path class="bond-23 atom-21 atom-24" d="M 243.2,113.9 L 263.3,111.0" style="fill:none;fill-rule:evenodd;stroke:#000000;stroke-width:2.0px;stroke-linecap:butt;stroke-linejoin:miter;stroke-opacity:1"/>
<path class="bond-24 atom-24 atom-25" d="M 263.3,111.0 L 270.7,92.1" style="fill:none;fill-rule:evenodd;stroke:#000000;stroke-width:2.0px;stroke-linecap:butt;stroke-linejoin:miter;stroke-opacity:1"/>
<path class="bond-25 atom-25 atom-26" d="M 270.7,92.1 L 290.8,89.2" style="fill:none;fill-rule:evenodd;stroke:#000000;stroke-width:2.0px;stroke-linecap:butt;stroke-linejoin:miter;stroke-opacity:1"/>
<path class="bond-26 atom-26 atom-27" d="M 290.8,89.2 L 293.7,109.2" style="fill:none;fill-rule:evenodd;stroke:#000000;stroke-width:2.0px;stroke-linecap:butt;stroke-linejoin:miter;stroke-opacity:1"/>
<path class="bond-27 atom-26 atom-28" d="M 290.8,89.2 L 287.8,69.1" style="fill:none;fill-rule:evenodd;stroke:#000000;stroke-width:2.0px;stroke-linecap:butt;stroke-linejoin:miter;stroke-opacity:1"/>
<path class="bond-28 atom-28 atom-29" d="M 287.8,69.1 L 303.7,56.5" style="fill:none;fill-rule:evenodd;stroke:#000000;stroke-width:2.0px;stroke-linecap:butt;stroke-linejoin:miter;stroke-opacity:1"/>
<path class="bond-29 atom-26 atom-30" d="M 290.8,89.2 L 310.8,86.2" style="fill:none;fill-rule:evenodd;stroke:#000000;stroke-width:2.0px;stroke-linecap:butt;stroke-linejoin:miter;stroke-opacity:1"/>
<path class="bond-30 atom-30 atom-31" d="M 311.9,87.6 L 315.1,79.6" style="fill:none;fill-rule:evenodd;stroke:#000000;stroke-width:2.0px;stroke-linecap:butt;stroke-linejoin:miter;stroke-opacity:1"/>
<path class="bond-30 atom-30 atom-31" d="M 315.1,79.6 L 318.3,71.6" style="fill:none;fill-rule:evenodd;stroke:#FF0000;stroke-width:2.0px;stroke-linecap:butt;stroke-linejoin:miter;stroke-opacity:1"/>
<path class="bond-30 atom-30 atom-31" d="M 309.1,86.5 L 312.3,78.5" style="fill:none;fill-rule:evenodd;stroke:#000000;stroke-width:2.0px;stroke-linecap:butt;stroke-linejoin:miter;stroke-opacity:1"/>
<path class="bond-30 atom-30 atom-31" d="M 312.3,78.5 L 315.4,70.5" style="fill:none;fill-rule:evenodd;stroke:#FF0000;stroke-width:2.0px;stroke-linecap:butt;stroke-linejoin:miter;stroke-opacity:1"/>
<path class="bond-31 atom-30 atom-32" d="M 310.8,86.2 L 315.7,92.4" style="fill:none;fill-rule:evenodd;stroke:#000000;stroke-width:2.0px;stroke-linecap:butt;stroke-linejoin:miter;stroke-opacity:1"/>
<path class="bond-31 atom-30 atom-32" d="M 315.7,92.4 L 320.6,98.5" style="fill:none;fill-rule:evenodd;stroke:#FF0000;stroke-width:2.0px;stroke-linecap:butt;stroke-linejoin:miter;stroke-opacity:1"/>
<path class="bond-32 atom-21 atom-33" d="M 243.2,113.9 L 246.2,134.0" style="fill:none;fill-rule:evenodd;stroke:#000000;stroke-width:2.0px;stroke-linecap:butt;stroke-linejoin:miter;stroke-opacity:1"/>
<path class="bond-33 atom-33 atom-34" d="M 245.9,132.3 L 239.3,137.5" style="fill:none;fill-rule:evenodd;stroke:#000000;stroke-width:2.0px;stroke-linecap:butt;stroke-linejoin:miter;stroke-opacity:1"/>
<path class="bond-33 atom-33 atom-34" d="M 239.3,137.5 L 232.6,142.8" style="fill:none;fill-rule:evenodd;stroke:#FF0000;stroke-width:2.0px;stroke-linecap:butt;stroke-linejoin:miter;stroke-opacity:1"/>
<path class="bond-33 atom-33 atom-34" d="M 247.8,134.6 L 241.1,139.9" style="fill:none;fill-rule:evenodd;stroke:#000000;stroke-width:2.0px;stroke-linecap:butt;stroke-linejoin:miter;stroke-opacity:1"/>
<path class="bond-33 atom-33 atom-34" d="M 241.1,139.9 L 234.5,145.2" style="fill:none;fill-rule:evenodd;stroke:#FF0000;stroke-width:2.0px;stroke-linecap:butt;stroke-linejoin:miter;stroke-opacity:1"/>
<path class="bond-34 atom-33 atom-35" d="M 246.2,134.0 L 253.9,137.1" style="fill:none;fill-rule:evenodd;stroke:#000000;stroke-width:2.0px;stroke-linecap:butt;stroke-linejoin:miter;stroke-opacity:1"/>
<path class="bond-34 atom-33 atom-35" d="M 253.9,137.1 L 261.7,140.2" style="fill:none;fill-rule:evenodd;stroke:#FF0000;stroke-width:2.0px;stroke-linecap:butt;stroke-linejoin:miter;stroke-opacity:1"/>
<path class="bond-35 atom-6 atom-36" d="M 108.4,98.3 L 115.9,79.5" style="fill:none;fill-rule:evenodd;stroke:#000000;stroke-width:2.0px;stroke-linecap:butt;stroke-linejoin:miter;stroke-opacity:1"/>
<path class="bond-36 atom-36 atom-37" d="M 117.5,79.0 L 112.4,72.7" style="fill:none;fill-rule:evenodd;stroke:#000000;stroke-width:2.0px;stroke-linecap:butt;stroke-linejoin:miter;stroke-opacity:1"/>
<path class="bond-36 atom-36 atom-37" d="M 112.4,72.7 L 107.4,66.3" style="fill:none;fill-rule:evenodd;stroke:#FF0000;stroke-width:2.0px;stroke-linecap:butt;stroke-linejoin:miter;stroke-opacity:1"/>
<path class="bond-36 atom-36 atom-37" d="M 115.2,81.1 L 110.1,74.5" style="fill:none;fill-rule:evenodd;stroke:#000000;stroke-width:2.0px;stroke-linecap:butt;stroke-linejoin:miter;stroke-opacity:1"/>
<path class="bond-36 atom-36 atom-37" d="M 110.1,74.5 L 105.0,68.2" style="fill:none;fill-rule:evenodd;stroke:#FF0000;stroke-width:2.0px;stroke-linecap:butt;stroke-linejoin:miter;stroke-opacity:1"/>
<path class="bond-37 atom-36 atom-38" d="M 115.9,79.5 L 123.0,77.5" style="fill:none;fill-rule:evenodd;stroke:#000000;stroke-width:2.0px;stroke-linecap:butt;stroke-linejoin:miter;stroke-opacity:1"/>
<path class="bond-37 atom-36 atom-38" d="M 123.0,77.5 L 130.2,75.5" style="fill:none;fill-rule:evenodd;stroke:#FF0000;stroke-width:2.0px;stroke-linecap:butt;stroke-linejoin:miter;stroke-opacity:1"/>
<path class="bond-38 atom-2 atom-39" d="M 54.8,96.0 L 36.0,88.5" style="fill:none;fill-rule:evenodd;stroke:#000000;stroke-width:2.0px;stroke-linecap:butt;stroke-linejoin:miter;stroke-opacity:1"/>
<path class="bond-39 atom-39 atom-40" d="M 35.7,86.8 L 29.1,92.0" style="fill:none;fill-rule:evenodd;stroke:#000000;stroke-width:2.0px;stroke-linecap:butt;stroke-linejoin:miter;stroke-opacity:1"/>
<path class="bond-39 atom-39 atom-40" d="M 29.1,92.0 L 22.4,97.3" style="fill:none;fill-rule:evenodd;stroke:#FF0000;stroke-width:2.0px;stroke-linecap:butt;stroke-linejoin:miter;stroke-opacity:1"/>
<path class="bond-39 atom-39 atom-40" d="M 37.6,89.1 L 31.0,94.4" style="fill:none;fill-rule:evenodd;stroke:#000000;stroke-width:2.0px;stroke-linecap:butt;stroke-linejoin:miter;stroke-opacity:1"/>
<path class="bond-39 atom-39 atom-40" d="M 31.0,94.4 L 24.3,99.7" style="fill:none;fill-rule:evenodd;stroke:#FF0000;stroke-width:2.0px;stroke-linecap:butt;stroke-linejoin:miter;stroke-opacity:1"/>
<path class="bond-40 atom-39 atom-41" d="M 36.0,88.5 L 34.8,80.3" style="fill:none;fill-rule:evenodd;stroke:#000000;stroke-width:2.0px;stroke-linecap:butt;stroke-linejoin:miter;stroke-opacity:1"/>
<path class="bond-40 atom-39 atom-41" d="M 34.8,80.3 L 33.6,72.1" style="fill:none;fill-rule:evenodd;stroke:#FF0000;stroke-width:2.0px;stroke-linecap:butt;stroke-linejoin:miter;stroke-opacity:1"/>
<path d="M 48.0,115.6 L 47.4,114.8 L 47.7,113.9" style="fill:none;stroke:#000000;stroke-width:2.0px;stroke-linecap:butt;stroke-linejoin:miter;stroke-opacity:1;"/>
<path d="M 72.7,103.1 L 73.7,103.4 L 74.5,102.8" style="fill:none;stroke:#000000;stroke-width:2.0px;stroke-linecap:butt;stroke-linejoin:miter;stroke-opacity:1;"/>
<path d="M 88.8,91.5 L 89.6,90.8 L 90.5,91.2" style="fill:none;stroke:#000000;stroke-width:2.0px;stroke-linecap:butt;stroke-linejoin:miter;stroke-opacity:1;"/>
<path d="M 101.3,116.2 L 101.0,117.2 L 101.2,117.5" style="fill:none;stroke:#000000;stroke-width:2.0px;stroke-linecap:butt;stroke-linejoin:miter;stroke-opacity:1;"/>
<path d="M 126.3,105.4 L 127.3,105.8 L 128.1,105.2" style="fill:none;stroke:#000000;stroke-width:2.0px;stroke-linecap:butt;stroke-linejoin:miter;stroke-opacity:1;"/>
<path d="M 142.4,93.8 L 143.2,93.2 L 144.1,93.6" style="fill:none;stroke:#000000;stroke-width:2.0px;stroke-linecap:butt;stroke-linejoin:miter;stroke-opacity:1;"/>
<path d="M 161.1,100.3 L 162.0,100.7 L 162.8,100.0" style="fill:none;stroke:#000000;stroke-width:2.0px;stroke-linecap:butt;stroke-linejoin:miter;stroke-opacity:1;"/>
<path d="M 165.9,73.0 L 165.3,72.2 L 164.9,72.2" style="fill:none;stroke:#000000;stroke-width:2.0px;stroke-linecap:butt;stroke-linejoin:miter;stroke-opacity:1;"/>
<path d="M 209.5,101.1 L 210.5,101.0 L 211.2,101.8" style="fill:none;stroke:#000000;stroke-width:2.0px;stroke-linecap:butt;stroke-linejoin:miter;stroke-opacity:1;"/>
<path d="M 222.5,116.1 L 223.1,116.9 L 224.1,116.7" style="fill:none;stroke:#000000;stroke-width:2.0px;stroke-linecap:butt;stroke-linejoin:miter;stroke-opacity:1;"/>
<path d="M 240.4,94.9 L 240.2,93.9 L 240.6,93.6" style="fill:none;stroke:#000000;stroke-width:2.0px;stroke-linecap:butt;stroke-linejoin:miter;stroke-opacity:1;"/>
<path d="M 262.3,111.1 L 263.3,111.0 L 263.6,110.0" style="fill:none;stroke:#000000;stroke-width:2.0px;stroke-linecap:butt;stroke-linejoin:miter;stroke-opacity:1;"/>
<path d="M 270.3,93.1 L 270.7,92.1 L 271.7,92.0" style="fill:none;stroke:#000000;stroke-width:2.0px;stroke-linecap:butt;stroke-linejoin:miter;stroke-opacity:1;"/>
<path d="M 288.0,70.1 L 287.8,69.1 L 288.6,68.5" style="fill:none;stroke:#000000;stroke-width:2.0px;stroke-linecap:butt;stroke-linejoin:miter;stroke-opacity:1;"/>
<path d="M 309.8,86.4 L 310.8,86.2 L 311.1,86.5" style="fill:none;stroke:#000000;stroke-width:2.0px;stroke-linecap:butt;stroke-linejoin:miter;stroke-opacity:1;"/>
<path d="M 246.0,133.0 L 246.2,134.0 L 246.5,134.1" style="fill:none;stroke:#000000;stroke-width:2.0px;stroke-linecap:butt;stroke-linejoin:miter;stroke-opacity:1;"/>
<path d="M 115.5,80.4 L 115.9,79.5 L 116.2,79.4" style="fill:none;stroke:#000000;stroke-width:2.0px;stroke-linecap:butt;stroke-linejoin:miter;stroke-opacity:1;"/>
<path d="M 36.9,88.9 L 36.0,88.5 L 35.9,88.1" style="fill:none;stroke:#000000;stroke-width:2.0px;stroke-linecap:butt;stroke-linejoin:miter;stroke-opacity:1;"/>
<path class="atom-8" d="M 110.9 133.1 Q 110.9 131.7, 111.6 130.9 Q 112.3 130.2, 113.5 130.2 Q 114.8 130.2, 115.5 130.9 Q 116.2 131.7, 116.2 133.1 Q 116.2 134.5, 115.5 135.3 Q 114.8 136.0, 113.5 136.0 Q 112.3 136.0, 111.6 135.3 Q 110.9 134.5, 110.9 133.1 M 113.5 135.4 Q 114.4 135.4, 114.9 134.8 Q 115.4 134.2, 115.4 133.1 Q 115.4 131.9, 114.9 131.4 Q 114.4 130.8, 113.5 130.8 Q 112.7 130.8, 112.2 131.4 Q 111.7 131.9, 111.7 133.1 Q 111.7 134.2, 112.2 134.8 Q 112.7 135.4, 113.5 135.4 " fill="#FF0000"/>
<path class="atom-8" d="M 117.1 130.2 L 117.8 130.2 L 117.8 132.7 L 120.8 132.7 L 120.8 130.2 L 121.6 130.2 L 121.6 136.0 L 120.8 136.0 L 120.8 133.3 L 117.8 133.3 L 117.8 136.0 L 117.1 136.0 L 117.1 130.2 " fill="#FF0000"/>
<path class="atom-15" d="M 170.1 53.3 Q 170.1 52.0, 170.8 51.2 Q 171.5 50.4, 172.8 50.4 Q 174.1 50.4, 174.7 51.2 Q 175.4 52.0, 175.4 53.3 Q 175.4 54.7, 174.7 55.5 Q 174.0 56.3, 172.8 56.3 Q 171.5 56.3, 170.8 55.5 Q 170.1 54.7, 170.1 53.3 M 172.8 55.7 Q 173.7 55.7, 174.1 55.1 Q 174.6 54.5, 174.6 53.3 Q 174.6 52.2, 174.1 51.6 Q 173.7 51.1, 172.8 51.1 Q 171.9 51.1, 171.4 51.6 Q 171.0 52.2, 171.0 53.3 Q 171.0 54.5, 171.4 55.1 Q 171.9 55.7, 172.8 55.7 " fill="#FF0000"/>
<path class="atom-16" d="M 138.8 69.8 L 139.5 69.8 L 139.5 72.2 L 142.5 72.2 L 142.5 69.8 L 143.3 69.8 L 143.3 75.5 L 142.5 75.5 L 142.5 72.9 L 139.5 72.9 L 139.5 75.5 L 138.8 75.5 L 138.8 69.8 " fill="#FF0000"/>
<path class="atom-16" d="M 144.4 72.6 Q 144.4 71.3, 145.1 70.5 Q 145.8 69.7, 147.1 69.7 Q 148.3 69.7, 149.0 70.5 Q 149.7 71.3, 149.7 72.6 Q 149.7 74.0, 149.0 74.8 Q 148.3 75.6, 147.1 75.6 Q 145.8 75.6, 145.1 74.8 Q 144.4 74.0, 144.4 72.6 M 147.1 75.0 Q 147.9 75.0, 148.4 74.4 Q 148.9 73.8, 148.9 72.6 Q 148.9 71.5, 148.4 70.9 Q 147.9 70.4, 147.1 70.4 Q 146.2 70.4, 145.7 70.9 Q 145.2 71.5, 145.2 72.6 Q 145.2 73.8, 145.7 74.4 Q 146.2 75.0, 147.1 75.0 " fill="#FF0000"/>
<path class="atom-18" d="M 174.7 120.0 L 175.5 120.0 L 175.5 122.4 L 178.4 122.4 L 178.4 120.0 L 179.2 120.0 L 179.2 125.7 L 178.4 125.7 L 178.4 123.1 L 175.5 123.1 L 175.5 125.7 L 174.7 125.7 L 174.7 120.0 " fill="#FF0000"/>
<path class="atom-18" d="M 180.4 122.8 Q 180.4 121.4, 181.1 120.7 Q 181.7 119.9, 183.0 119.9 Q 184.3 119.9, 185.0 120.7 Q 185.7 121.4, 185.7 122.8 Q 185.7 124.2, 185.0 125.0 Q 184.3 125.8, 183.0 125.8 Q 181.8 125.8, 181.1 125.0 Q 180.4 124.2, 180.4 122.8 M 183.0 125.2 Q 183.9 125.2, 184.4 124.6 Q 184.8 124.0, 184.8 122.8 Q 184.8 121.7, 184.4 121.1 Q 183.9 120.6, 183.0 120.6 Q 182.1 120.6, 181.7 121.1 Q 181.2 121.7, 181.2 122.8 Q 181.2 124.0, 181.7 124.6 Q 182.1 125.2, 183.0 125.2 " fill="#FF0000"/>
<path class="atom-23" d="M 253.5 81.3 Q 253.5 79.9, 254.2 79.2 Q 254.9 78.4, 256.1 78.4 Q 257.4 78.4, 258.1 79.2 Q 258.8 79.9, 258.8 81.3 Q 258.8 82.7, 258.1 83.5 Q 257.4 84.3, 256.1 84.3 Q 254.9 84.3, 254.2 83.5 Q 253.5 82.7, 253.5 81.3 M 256.1 83.6 Q 257.0 83.6, 257.5 83.0 Q 258.0 82.5, 258.0 81.3 Q 258.0 80.2, 257.5 79.6 Q 257.0 79.0, 256.1 79.0 Q 255.3 79.0, 254.8 79.6 Q 254.3 80.2, 254.3 81.3 Q 254.3 82.5, 254.8 83.0 Q 255.3 83.6, 256.1 83.6 " fill="#FF0000"/>
<path class="atom-23" d="M 259.7 78.4 L 260.4 78.4 L 260.4 80.9 L 263.4 80.9 L 263.4 78.4 L 264.2 78.4 L 264.2 84.2 L 263.4 84.2 L 263.4 81.5 L 260.4 81.5 L 260.4 84.2 L 259.7 84.2 L 259.7 78.4 " fill="#FF0000"/>
<path class="atom-31" d="M 315.7 67.4 Q 315.7 66.0, 316.4 65.2 Q 317.0 64.5, 318.3 64.5 Q 319.6 64.5, 320.3 65.2 Q 320.9 66.0, 320.9 67.4 Q 320.9 68.8, 320.3 69.6 Q 319.6 70.4, 318.3 70.4 Q 317.0 70.4, 316.4 69.6 Q 315.7 68.8, 315.7 67.4 M 318.3 69.7 Q 319.2 69.7, 319.7 69.1 Q 320.1 68.5, 320.1 67.4 Q 320.1 66.3, 319.7 65.7 Q 319.2 65.1, 318.3 65.1 Q 317.4 65.1, 317.0 65.7 Q 316.5 66.2, 316.5 67.4 Q 316.5 68.5, 317.0 69.1 Q 317.4 69.7, 318.3 69.7 " fill="#FF0000"/>
<path class="atom-32" d="M 320.8 102.1 Q 320.8 100.7, 321.5 100.0 Q 322.2 99.2, 323.4 99.2 Q 324.7 99.2, 325.4 100.0 Q 326.1 100.7, 326.1 102.1 Q 326.1 103.5, 325.4 104.3 Q 324.7 105.1, 323.4 105.1 Q 322.2 105.1, 321.5 104.3 Q 320.8 103.5, 320.8 102.1 M 323.4 104.4 Q 324.3 104.4, 324.8 103.9 Q 325.3 103.3, 325.3 102.1 Q 325.3 101.0, 324.8 100.4 Q 324.3 99.8, 323.4 99.8 Q 322.6 99.8, 322.1 100.4 Q 321.6 101.0, 321.6 102.1 Q 321.6 103.3, 322.1 103.9 Q 322.6 104.4, 323.4 104.4 " fill="#FF0000"/>
<path class="atom-32" d="M 327.0 99.3 L 327.7 99.3 L 327.7 101.7 L 330.7 101.7 L 330.7 99.3 L 331.5 99.3 L 331.5 105.0 L 330.7 105.0 L 330.7 102.4 L 327.7 102.4 L 327.7 105.0 L 327.0 105.0 L 327.0 99.3 " fill="#FF0000"/>
<path class="atom-34" d="M 227.6 146.6 Q 227.6 145.2, 228.3 144.5 Q 229.0 143.7, 230.3 143.7 Q 231.5 143.7, 232.2 144.5 Q 232.9 145.2, 232.9 146.6 Q 232.9 148.0, 232.2 148.8 Q 231.5 149.6, 230.3 149.6 Q 229.0 149.6, 228.3 148.8 Q 227.6 148.0, 227.6 146.6 M 230.3 148.9 Q 231.1 148.9, 231.6 148.3 Q 232.1 147.8, 232.1 146.6 Q 232.1 145.5, 231.6 144.9 Q 231.1 144.3, 230.3 144.3 Q 229.4 144.3, 228.9 144.9 Q 228.4 145.5, 228.4 146.6 Q 228.4 147.8, 228.9 148.3 Q 229.4 148.9, 230.3 148.9 " fill="#FF0000"/>
<path class="atom-35" d="M 262.4 141.5 Q 262.4 140.1, 263.0 139.3 Q 263.7 138.6, 265.0 138.6 Q 266.3 138.6, 267.0 139.3 Q 267.6 140.1, 267.6 141.5 Q 267.6 142.9, 267.0 143.7 Q 266.3 144.5, 265.0 144.5 Q 263.7 144.5, 263.0 143.7 Q 262.4 142.9, 262.4 141.5 M 265.0 143.8 Q 265.9 143.8, 266.3 143.2 Q 266.8 142.6, 266.8 141.5 Q 266.8 140.3, 266.3 139.8 Q 265.9 139.2, 265.0 139.2 Q 264.1 139.2, 263.6 139.8 Q 263.2 140.3, 263.2 141.5 Q 263.2 142.6, 263.6 143.2 Q 264.1 143.8, 265.0 143.8 " fill="#FF0000"/>
<path class="atom-35" d="M 268.5 138.6 L 269.3 138.6 L 269.3 141.1 L 272.2 141.1 L 272.2 138.6 L 273.0 138.6 L 273.0 144.4 L 272.2 144.4 L 272.2 141.7 L 269.3 141.7 L 269.3 144.4 L 268.5 144.4 L 268.5 138.6 " fill="#FF0000"/>
<path class="atom-37" d="M 100.7 63.6 Q 100.7 62.2, 101.3 61.4 Q 102.0 60.7, 103.3 60.7 Q 104.6 60.7, 105.2 61.4 Q 105.9 62.2, 105.9 63.6 Q 105.9 65.0, 105.2 65.8 Q 104.6 66.6, 103.3 66.6 Q 102.0 66.6, 101.3 65.8 Q 100.7 65.0, 100.7 63.6 M 103.3 65.9 Q 104.2 65.9, 104.6 65.3 Q 105.1 64.7, 105.1 63.6 Q 105.1 62.5, 104.6 61.9 Q 104.2 61.3, 103.3 61.3 Q 102.4 61.3, 101.9 61.9 Q 101.5 62.5, 101.5 63.6 Q 101.5 64.7, 101.9 65.3 Q 102.4 65.9, 103.3 65.9 " fill="#FF0000"/>
<path class="atom-38" d="M 130.8 74.6 Q 130.8 73.3, 131.5 72.5 Q 132.2 71.7, 133.5 71.7 Q 134.8 71.7, 135.4 72.5 Q 136.1 73.3, 136.1 74.6 Q 136.1 76.0, 135.4 76.8 Q 134.7 77.6, 133.5 77.6 Q 132.2 77.6, 131.5 76.8 Q 130.8 76.0, 130.8 74.6 M 133.5 77.0 Q 134.4 77.0, 134.8 76.4 Q 135.3 75.8, 135.3 74.6 Q 135.3 73.5, 134.8 72.9 Q 134.4 72.4, 133.5 72.4 Q 132.6 72.4, 132.1 72.9 Q 131.7 73.5, 131.7 74.6 Q 131.7 75.8, 132.1 76.4 Q 132.6 77.0, 133.5 77.0 " fill="#FF0000"/>
<path class="atom-38" d="M 137.0 71.8 L 137.8 71.8 L 137.8 74.2 L 140.7 74.2 L 140.7 71.8 L 141.5 71.8 L 141.5 77.5 L 140.7 77.5 L 140.7 74.9 L 137.8 74.9 L 137.8 77.5 L 137.0 77.5 L 137.0 71.8 " fill="#FF0000"/>
<path class="atom-40" d="M 17.5 101.1 Q 17.5 99.7, 18.1 99.0 Q 18.8 98.2, 20.1 98.2 Q 21.4 98.2, 22.0 99.0 Q 22.7 99.7, 22.7 101.1 Q 22.7 102.5, 22.0 103.3 Q 21.3 104.1, 20.1 104.1 Q 18.8 104.1, 18.1 103.3 Q 17.5 102.5, 17.5 101.1 M 20.1 103.4 Q 21.0 103.4, 21.4 102.9 Q 21.9 102.3, 21.9 101.1 Q 21.9 100.0, 21.4 99.4 Q 21.0 98.8, 20.1 98.8 Q 19.2 98.8, 18.7 99.4 Q 18.3 100.0, 18.3 101.1 Q 18.3 102.3, 18.7 102.9 Q 19.2 103.4, 20.1 103.4 " fill="#FF0000"/>
<path class="atom-41" d="M 30.4 68.5 Q 30.4 67.1, 31.1 66.3 Q 31.7 65.5, 33.0 65.5 Q 34.3 65.5, 35.0 66.3 Q 35.7 67.1, 35.7 68.5 Q 35.7 69.9, 35.0 70.7 Q 34.3 71.4, 33.0 71.4 Q 31.8 71.4, 31.1 70.7 Q 30.4 69.9, 30.4 68.5 M 33.0 70.8 Q 33.9 70.8, 34.4 70.2 Q 34.8 69.6, 34.8 68.5 Q 34.8 67.3, 34.4 66.8 Q 33.9 66.2, 33.0 66.2 Q 32.1 66.2, 31.7 66.8 Q 31.2 67.3, 31.2 68.5 Q 31.2 69.6, 31.7 70.2 Q 32.1 70.8, 33.0 70.8 " fill="#FF0000"/>
<path class="atom-41" d="M 36.5 65.6 L 37.3 65.6 L 37.3 68.0 L 40.3 68.0 L 40.3 65.6 L 41.0 65.6 L 41.0 71.3 L 40.3 71.3 L 40.3 68.7 L 37.3 68.7 L 37.3 71.3 L 36.5 71.3 L 36.5 65.6 " fill="#FF0000"/>
</svg>
