<?xml version='1.0' encoding='ASCII' standalone='yes'?>
<svg xmlns="http://www.w3.org/2000/svg" xmlns:rdkit="http://www.rdkit.org/xml" xmlns:xlink="http://www.w3.org/1999/xlink" version="1.1" baseProfile="full" xml:space="preserve" width="260px" height="200px" viewBox="0 0 260 200">
<!-- END OF HEADER -->
<rect style="opacity:1.0;fill:#FFFFFF;stroke:none" width="260.0" height="200.0" x="0.0" y="0.0"> </rect>
<path class="bond-0 atom-0 atom-1" d="M 31.4,85.7 L 41.1,91.4" style="fill:none;fill-rule:evenodd;stroke:#0000FF;stroke-width:2.0px;stroke-linecap:butt;stroke-linejoin:miter;stroke-opacity:1"/>
<path class="bond-0 atom-0 atom-1" d="M 41.1,91.4 L 50.8,97.1" style="fill:none;fill-rule:evenodd;stroke:#000000;stroke-width:2.0px;stroke-linecap:butt;stroke-linejoin:miter;stroke-opacity:1"/>
<path class="bond-1 atom-1 atom-2" d="M 48.8,95.9 L 48.7,107.5" style="fill:none;fill-rule:evenodd;stroke:#000000;stroke-width:2.0px;stroke-linecap:butt;stroke-linejoin:miter;stroke-opacity:1"/>
<path class="bond-1 atom-1 atom-2" d="M 48.7,107.5 L 48.6,119.1" style="fill:none;fill-rule:evenodd;stroke:#FF0000;stroke-width:2.0px;stroke-linecap:butt;stroke-linejoin:miter;stroke-opacity:1"/>
<path class="bond-1 atom-1 atom-2" d="M 52.8,95.9 L 52.7,107.5" style="fill:none;fill-rule:evenodd;stroke:#000000;stroke-width:2.0px;stroke-linecap:butt;stroke-linejoin:miter;stroke-opacity:1"/>
<path class="bond-1 atom-1 atom-2" d="M 52.7,107.5 L 52.6,119.2" style="fill:none;fill-rule:evenodd;stroke:#FF0000;stroke-width:2.0px;stroke-linecap:butt;stroke-linejoin:miter;stroke-opacity:1"/>
<path class="bond-2 atom-1 atom-3" d="M 50.8,97.1 L 74.1,83.8" style="fill:none;fill-rule:evenodd;stroke:#000000;stroke-width:2.0px;stroke-linecap:butt;stroke-linejoin:miter;stroke-opacity:1"/>
<path class="bond-3 atom-3 atom-4" d="M 76.1,85.0 L 76.1,73.4" style="fill:none;fill-rule:evenodd;stroke:#000000;stroke-width:2.0px;stroke-linecap:butt;stroke-linejoin:miter;stroke-opacity:1"/>
<path class="bond-3 atom-3 atom-4" d="M 76.1,73.4 L 76.2,61.9" style="fill:none;fill-rule:evenodd;stroke:#FF0000;stroke-width:2.0px;stroke-linecap:butt;stroke-linejoin:miter;stroke-opacity:1"/>
<path class="bond-3 atom-3 atom-4" d="M 72.0,85.0 L 72.1,73.4" style="fill:none;fill-rule:evenodd;stroke:#000000;stroke-width:2.0px;stroke-linecap:butt;stroke-linejoin:miter;stroke-opacity:1"/>
<path class="bond-3 atom-3 atom-4" d="M 72.1,73.4 L 72.2,61.9" style="fill:none;fill-rule:evenodd;stroke:#FF0000;stroke-width:2.0px;stroke-linecap:butt;stroke-linejoin:miter;stroke-opacity:1"/>
<path class="bond-4 atom-3 atom-5" d="M 74.1,83.8 L 97.2,97.4" style="fill:none;fill-rule:evenodd;stroke:#000000;stroke-width:2.0px;stroke-linecap:butt;stroke-linejoin:miter;stroke-opacity:1"/>
<path class="bond-5 atom-5 atom-6" d="M 97.2,97.4 L 120.5,84.2" style="fill:none;fill-rule:evenodd;stroke:#000000;stroke-width:2.0px;stroke-linecap:butt;stroke-linejoin:miter;stroke-opacity:1"/>
<path class="bond-6 atom-6 atom-7" d="M 120.5,84.2 L 120.5,73.2" style="fill:none;fill-rule:evenodd;stroke:#000000;stroke-width:2.0px;stroke-linecap:butt;stroke-linejoin:miter;stroke-opacity:1"/>
<path class="bond-6 atom-6 atom-7" d="M 120.5,73.2 L 120.6,62.2" style="fill:none;fill-rule:evenodd;stroke:#FF0000;stroke-width:2.0px;stroke-linecap:butt;stroke-linejoin:miter;stroke-opacity:1"/>
<path class="bond-7 atom-6 atom-8" d="M 120.5,84.2 L 143.6,97.7" style="fill:none;fill-rule:evenodd;stroke:#000000;stroke-width:2.0px;stroke-linecap:butt;stroke-linejoin:miter;stroke-opacity:1"/>
<path class="bond-8 atom-8 atom-9" d="M 143.6,97.7 L 166.9,84.5" style="fill:none;fill-rule:evenodd;stroke:#000000;stroke-width:2.0px;stroke-linecap:butt;stroke-linejoin:miter;stroke-opacity:1"/>
<path class="bond-9 atom-9 atom-10" d="M 166.9,84.5 L 190.0,98.1" style="fill:none;fill-rule:evenodd;stroke:#000000;stroke-width:2.0px;stroke-linecap:butt;stroke-linejoin:miter;stroke-opacity:1"/>
<path class="bond-10 atom-10 atom-11" d="M 188.0,96.9 L 187.9,108.5" style="fill:none;fill-rule:evenodd;stroke:#000000;stroke-width:2.0px;stroke-linecap:butt;stroke-linejoin:miter;stroke-opacity:1"/>
<path class="bond-10 atom-10 atom-11" d="M 187.9,108.5 L 187.8,120.1" style="fill:none;fill-rule:evenodd;stroke:#FF0000;stroke-width:2.0px;stroke-linecap:butt;stroke-linejoin:miter;stroke-opacity:1"/>
<path class="bond-10 atom-10 atom-11" d="M 192.0,96.9 L 191.9,108.5" style="fill:none;fill-rule:evenodd;stroke:#000000;stroke-width:2.0px;stroke-linecap:butt;stroke-linejoin:miter;stroke-opacity:1"/>
<path class="bond-10 atom-10 atom-11" d="M 191.9,108.5 L 191.8,120.1" style="fill:none;fill-rule:evenodd;stroke:#FF0000;stroke-width:2.0px;stroke-linecap:butt;stroke-linejoin:miter;stroke-opacity:1"/>
<path class="bond-11 atom-10 atom-12" d="M 190.0,98.1 L 213.3,84.8" style="fill:none;fill-rule:evenodd;stroke:#000000;stroke-width:2.0px;stroke-linecap:butt;stroke-linejoin:miter;stroke-opacity:1"/>
<path class="bond-12 atom-12 atom-13" d="M 215.3,86.0 L 215.4,74.4" style="fill:none;fill-rule:evenodd;stroke:#000000;stroke-width:2.0px;stroke-linecap:butt;stroke-linejoin:miter;stroke-opacity:1"/>
<path class="bond-12 atom-12 atom-13" d="M 215.4,74.4 L 215.5,62.9" style="fill:none;fill-rule:evenodd;stroke:#FF0000;stroke-width:2.0px;stroke-linecap:butt;stroke-linejoin:miter;stroke-opacity:1"/>
<path class="bond-12 atom-12 atom-13" d="M 211.3,86.0 L 211.4,74.4" style="fill:none;fill-rule:evenodd;stroke:#000000;stroke-width:2.0px;stroke-linecap:butt;stroke-linejoin:miter;stroke-opacity:1"/>
<path class="bond-12 atom-12 atom-13" d="M 211.4,74.4 L 211.4,62.8" style="fill:none;fill-rule:evenodd;stroke:#FF0000;stroke-width:2.0px;stroke-linecap:butt;stroke-linejoin:miter;stroke-opacity:1"/>
<path class="bond-13 atom-12 atom-14" d="M 213.3,84.8 L 222.7,90.3" style="fill:none;fill-rule:evenodd;stroke:#000000;stroke-width:2.0px;stroke-linecap:butt;stroke-linejoin:miter;stroke-opacity:1"/>
<path class="bond-13 atom-12 atom-14" d="M 222.7,90.3 L 232.0,95.8" style="fill:none;fill-rule:evenodd;stroke:#FF0000;stroke-width:2.0px;stroke-linecap:butt;stroke-linejoin:miter;stroke-opacity:1"/>
<path d="M 50.3,96.8 L 50.8,97.1 L 51.9,96.4" style="fill:none;stroke:#000000;stroke-width:2.0px;stroke-linecap:butt;stroke-linejoin:miter;stroke-opacity:1;"/>
<path d="M 72.9,84.5 L 74.1,83.8 L 75.2,84.5" style="fill:none;stroke:#000000;stroke-width:2.0px;stroke-linecap:butt;stroke-linejoin:miter;stroke-opacity:1;"/>
<path d="M 96.0,96.7 L 97.2,97.4 L 98.3,96.7" style="fill:none;stroke:#000000;stroke-width:2.0px;stroke-linecap:butt;stroke-linejoin:miter;stroke-opacity:1;"/>
<path d="M 142.4,97.0 L 143.6,97.7 L 144.7,97.1" style="fill:none;stroke:#000000;stroke-width:2.0px;stroke-linecap:butt;stroke-linejoin:miter;stroke-opacity:1;"/>
<path d="M 165.7,85.2 L 166.9,84.5 L 168.0,85.2" style="fill:none;stroke:#000000;stroke-width:2.0px;stroke-linecap:butt;stroke-linejoin:miter;stroke-opacity:1;"/>
<path d="M 188.8,97.4 L 190.0,98.1 L 191.2,97.4" style="fill:none;stroke:#000000;stroke-width:2.0px;stroke-linecap:butt;stroke-linejoin:miter;stroke-opacity:1;"/>
<path d="M 212.1,85.5 L 213.3,84.8 L 213.8,85.1" style="fill:none;stroke:#000000;stroke-width:2.0px;stroke-linecap:butt;stroke-linejoin:miter;stroke-opacity:1;"/>
<path class="atom-0" d="M 13.0 79.7 L 14.0 79.7 L 14.0 82.9 L 17.9 82.9 L 17.9 79.7 L 18.9 79.7 L 18.9 87.3 L 17.9 87.3 L 17.9 83.8 L 14.0 83.8 L 14.0 87.3 L 13.0 87.3 L 13.0 79.7 " fill="#0000FF"/>
<path class="atom-0" d="M 20.4 87.0 Q 20.6 86.6, 21.0 86.3 Q 21.5 86.0, 22.1 86.0 Q 22.8 86.0, 23.3 86.4 Q 23.7 86.8, 23.7 87.6 Q 23.7 88.3, 23.1 89.0 Q 22.6 89.7, 21.5 90.5 L 23.8 90.5 L 23.8 91.1 L 20.4 91.1 L 20.4 90.6 Q 21.3 90.0, 21.9 89.5 Q 22.5 89.0, 22.7 88.5 Q 23.0 88.1, 23.0 87.6 Q 23.0 87.1, 22.8 86.9 Q 22.5 86.6, 22.1 86.6 Q 21.7 86.6, 21.4 86.8 Q 21.2 86.9, 21.0 87.3 L 20.4 87.0 " fill="#0000FF"/>
<path class="atom-0" d="M 26.0 79.7 L 28.5 83.7 Q 28.7 84.1, 29.1 84.8 Q 29.5 85.6, 29.5 85.6 L 29.5 79.7 L 30.5 79.7 L 30.5 87.3 L 29.5 87.3 L 26.8 82.9 Q 26.5 82.4, 26.2 81.8 Q 25.9 81.2, 25.8 81.0 L 25.8 87.3 L 24.8 87.3 L 24.8 79.7 L 26.0 79.7 " fill="#0000FF"/>
<path class="atom-2" d="M 47.1 123.9 Q 47.1 122.1, 48.0 121.0 Q 48.9 120.0, 50.6 120.0 Q 52.2 120.0, 53.1 121.0 Q 54.0 122.1, 54.0 123.9 Q 54.0 125.7, 53.1 126.8 Q 52.2 127.8, 50.6 127.8 Q 48.9 127.8, 48.0 126.8 Q 47.1 125.7, 47.1 123.9 M 50.6 127.0 Q 51.7 127.0, 52.3 126.2 Q 53.0 125.4, 53.0 123.9 Q 53.0 122.4, 52.3 121.6 Q 51.7 120.9, 50.6 120.9 Q 49.4 120.9, 48.8 121.6 Q 48.2 122.4, 48.2 123.9 Q 48.2 125.4, 48.8 126.2 Q 49.4 127.0, 50.6 127.0 " fill="#FF0000"/>
<path class="atom-4" d="M 70.8 57.1 Q 70.8 55.2, 71.7 54.2 Q 72.6 53.2, 74.2 53.2 Q 75.9 53.2, 76.8 54.2 Q 77.7 55.2, 77.7 57.1 Q 77.7 58.9, 76.8 60.0 Q 75.9 61.0, 74.2 61.0 Q 72.6 61.0, 71.7 60.0 Q 70.8 58.9, 70.8 57.1 M 74.2 60.1 Q 75.4 60.1, 76.0 59.4 Q 76.7 58.6, 76.7 57.1 Q 76.7 55.6, 76.0 54.8 Q 75.4 54.1, 74.2 54.1 Q 73.1 54.1, 72.5 54.8 Q 71.8 55.6, 71.8 57.1 Q 71.8 58.6, 72.5 59.4 Q 73.1 60.1, 74.2 60.1 " fill="#FF0000"/>
<path class="atom-7" d="M 117.2 57.4 Q 117.2 55.6, 118.1 54.5 Q 119.0 53.5, 120.7 53.5 Q 122.3 53.5, 123.2 54.5 Q 124.1 55.6, 124.1 57.4 Q 124.1 59.2, 123.2 60.3 Q 122.3 61.3, 120.7 61.3 Q 119.0 61.3, 118.1 60.3 Q 117.2 59.2, 117.2 57.4 M 120.7 60.5 Q 121.8 60.5, 122.4 59.7 Q 123.1 58.9, 123.1 57.4 Q 123.1 55.9, 122.4 55.1 Q 121.8 54.4, 120.7 54.4 Q 119.5 54.4, 118.9 55.1 Q 118.2 55.9, 118.2 57.4 Q 118.2 58.9, 118.9 59.7 Q 119.5 60.5, 120.7 60.5 " fill="#FF0000"/>
<path class="atom-7" d="M 125.3 53.6 L 126.4 53.6 L 126.4 56.8 L 130.2 56.8 L 130.2 53.6 L 131.3 53.6 L 131.3 61.2 L 130.2 61.2 L 130.2 57.7 L 126.4 57.7 L 126.4 61.2 L 125.3 61.2 L 125.3 53.6 " fill="#FF0000"/>
<path class="atom-11" d="M 186.3 124.9 Q 186.3 123.0, 187.2 122.0 Q 188.1 121.0, 189.8 121.0 Q 191.5 121.0, 192.4 122.0 Q 193.3 123.0, 193.3 124.9 Q 193.3 126.7, 192.4 127.8 Q 191.5 128.8, 189.8 128.8 Q 188.1 128.8, 187.2 127.8 Q 186.3 126.7, 186.3 124.9 M 189.8 127.9 Q 191.0 127.9, 191.6 127.2 Q 192.2 126.4, 192.2 124.9 Q 192.2 123.4, 191.6 122.6 Q 191.0 121.9, 189.8 121.9 Q 188.6 121.9, 188.0 122.6 Q 187.4 123.4, 187.4 124.9 Q 187.4 126.4, 188.0 127.2 Q 188.6 127.9, 189.8 127.9 " fill="#FF0000"/>
<path class="atom-13" d="M 210.0 58.0 Q 210.0 56.2, 210.9 55.2 Q 211.8 54.2, 213.5 54.2 Q 215.2 54.2, 216.1 55.2 Q 217.0 56.2, 217.0 58.0 Q 217.0 59.9, 216.0 60.9 Q 215.1 62.0, 213.5 62.0 Q 211.8 62.0, 210.9 60.9 Q 210.0 59.9, 210.0 58.0 M 213.5 61.1 Q 214.6 61.1, 215.3 60.3 Q 215.9 59.6, 215.9 58.0 Q 215.9 56.6, 215.3 55.8 Q 214.6 55.0, 213.5 55.0 Q 212.3 55.0, 211.7 55.8 Q 211.1 56.5, 211.1 58.0 Q 211.1 59.6, 211.7 60.3 Q 212.3 61.1, 213.5 61.1 " fill="#FF0000"/>
<path class="atom-14" d="M 232.9 98.4 Q 232.9 96.6, 233.8 95.6 Q 234.7 94.5, 236.4 94.5 Q 238.1 94.5, 239.0 95.6 Q 239.9 96.6, 239.9 98.4 Q 239.9 100.2, 239.0 101.3 Q 238.1 102.3, 236.4 102.3 Q 234.7 102.3, 233.8 101.3 Q 232.9 100.3, 232.9 98.4 M 236.4 101.5 Q 237.6 101.5, 238.2 100.7 Q 238.8 99.9, 238.8 98.4 Q 238.8 96.9, 238.2 96.2 Q 237.6 95.4, 236.4 95.4 Q 235.2 95.4, 234.6 96.2 Q 234.0 96.9, 234.0 98.4 Q 234.0 99.9, 234.6 100.7 Q 235.2 101.5, 236.4 101.5 " fill="#FF0000"/>
<path class="atom-14" d="M 241.1 94.6 L 242.1 94.6 L 242.1 97.9 L 246.0 97.9 L 246.0 94.6 L 247.0 94.6 L 247.0 102.2 L 246.0 102.2 L 246.0 98.7 L 242.1 98.7 L 242.1 102.2 L 241.1 102.2 L 241.1 94.6 " fill="#FF0000"/>
<path class="legend" d="M 121.5 181.9 Q 121.5 179.6, 122.2 177.7 Q 122.8 175.8, 124.1 173.8 L 125.0 174.4 Q 124.0 176.3, 123.4 178.0 Q 122.9 179.7, 122.9 181.9 Q 122.9 184.0, 123.4 185.8 Q 124.0 187.5, 125.0 189.4 L 124.1 190.0 Q 122.8 188.0, 122.2 186.1 Q 121.5 184.2, 121.5 181.9 " fill="#000000"/>
<path class="legend" d="M 125.9 177.3 Q 126.4 176.2, 127.3 175.6 Q 128.3 175.0, 129.7 175.0 Q 131.4 175.0, 132.4 175.9 Q 133.3 176.8, 133.3 178.5 Q 133.3 180.2, 132.1 181.7 Q 130.9 183.3, 128.3 185.2 L 133.5 185.2 L 133.5 186.4 L 125.9 186.4 L 125.9 185.4 Q 128.0 183.9, 129.3 182.8 Q 130.5 181.6, 131.1 180.6 Q 131.7 179.6, 131.7 178.6 Q 131.7 177.5, 131.2 176.9 Q 130.7 176.3, 129.7 176.3 Q 128.8 176.3, 128.2 176.6 Q 127.6 177.0, 127.2 177.8 L 125.9 177.3 " fill="#000000"/>
<path class="legend" d="M 138.5 181.9 Q 138.5 184.2, 137.8 186.1 Q 137.2 188.0, 135.9 190.0 L 135.0 189.4 Q 136.0 187.5, 136.5 185.8 Q 137.1 184.0, 137.1 181.9 Q 137.1 179.7, 136.5 178.0 Q 136.0 176.3, 135.0 174.4 L 135.9 173.8 Q 137.2 175.8, 137.8 177.7 Q 138.5 179.6, 138.5 181.9 " fill="#000000"/>
</svg>
