<?xml version='1.0' encoding='ASCII' standalone='yes'?>
<svg xmlns="http://www.w3.org/2000/svg" xmlns:rdkit="http://www.rdkit.org/xml" xmlns:xlink="http://www.w3.org/1999/xlink" version="1.1" baseProfile="full" xml:space="preserve" width="293px" height="200px" viewBox="0 0 293 200">
<!-- END OF HEADER -->
<rect style="opacity:1.0;fill:#FFFFFF;stroke:none" width="293.0" height="200.0" x="0.0" y="0.0"> </rect>
<path class="bond-0 atom-0 atom-1" d="M 15.6,122.2 L 43.0,143.2" style="fill:none;fill-rule:evenodd;stroke:#000000;stroke-width:2.0px;stroke-linecap:butt;stroke-linejoin:miter;stroke-opacity:1"/>
<path class="bond-1 atom-1 atom-2" d="M 43.0,143.2 L 38.5,177.4" style="fill:none;fill-rule:evenodd;stroke:#000000;stroke-width:2.0px;stroke-linecap:butt;stroke-linejoin:miter;stroke-opacity:1"/>
<path class="bond-2 atom-1 atom-3" d="M 43.0,143.2 L 74.9,129.9" style="fill:none;fill-rule:evenodd;stroke:#000000;stroke-width:2.0px;stroke-linecap:butt;stroke-linejoin:miter;stroke-opacity:1"/>
<path class="bond-3 atom-3 atom-4" d="M 74.9,129.9 L 88.1,161.8" style="fill:none;fill-rule:evenodd;stroke:#000000;stroke-width:2.0px;stroke-linecap:butt;stroke-linejoin:miter;stroke-opacity:1"/>
<path class="bond-4 atom-3 atom-5" d="M 74.9,129.9 L 61.6,98.1" style="fill:none;fill-rule:evenodd;stroke:#000000;stroke-width:2.0px;stroke-linecap:butt;stroke-linejoin:miter;stroke-opacity:1"/>
<path class="bond-5 atom-3 atom-6" d="M 74.9,129.9 L 106.7,116.7" style="fill:none;fill-rule:evenodd;stroke:#000000;stroke-width:2.0px;stroke-linecap:butt;stroke-linejoin:miter;stroke-opacity:1"/>
<path class="bond-6 atom-6 atom-7" d="M 106.7,116.7 L 111.2,82.5" style="fill:none;fill-rule:evenodd;stroke:#000000;stroke-width:2.0px;stroke-linecap:butt;stroke-linejoin:miter;stroke-opacity:1"/>
<path class="bond-7 atom-7 atom-8" d="M 111.2,82.5 L 143.1,69.3" style="fill:none;fill-rule:evenodd;stroke:#000000;stroke-width:2.0px;stroke-linecap:butt;stroke-linejoin:miter;stroke-opacity:1"/>
<path class="bond-8 atom-8 atom-9" d="M 143.1,69.3 L 174.9,56.0" style="fill:none;fill-rule:evenodd;stroke:#000000;stroke-width:2.0px;stroke-linecap:butt;stroke-linejoin:miter;stroke-opacity:1"/>
<path class="bond-9 atom-8 atom-10" d="M 143.1,69.3 L 156.3,101.1" style="fill:none;fill-rule:evenodd;stroke:#000000;stroke-width:2.0px;stroke-linecap:butt;stroke-linejoin:miter;stroke-opacity:1"/>
<path class="bond-10 atom-10 atom-11" d="M 156.3,101.1 L 190.5,105.6" style="fill:none;fill-rule:evenodd;stroke:#000000;stroke-width:2.0px;stroke-linecap:butt;stroke-linejoin:miter;stroke-opacity:1"/>
<path class="bond-11 atom-11 atom-12" d="M 190.5,105.6 L 203.8,137.5" style="fill:none;fill-rule:evenodd;stroke:#000000;stroke-width:2.0px;stroke-linecap:butt;stroke-linejoin:miter;stroke-opacity:1"/>
<path class="bond-12 atom-12 atom-13" d="M 203.8,137.5 L 217.0,169.3" style="fill:none;fill-rule:evenodd;stroke:#000000;stroke-width:2.0px;stroke-linecap:butt;stroke-linejoin:miter;stroke-opacity:1"/>
<path class="bond-13 atom-12 atom-14" d="M 203.8,137.5 L 171.9,150.7" style="fill:none;fill-rule:evenodd;stroke:#000000;stroke-width:2.0px;stroke-linecap:butt;stroke-linejoin:miter;stroke-opacity:1"/>
<path class="bond-14 atom-14 atom-15" d="M 171.9,150.7 L 170.1,164.8" style="fill:none;fill-rule:evenodd;stroke:#000000;stroke-width:2.0px;stroke-linecap:butt;stroke-linejoin:miter;stroke-opacity:1"/>
<path class="bond-14 atom-14 atom-15" d="M 170.1,164.8 L 168.2,178.8" style="fill:none;fill-rule:evenodd;stroke:#FF0000;stroke-width:2.0px;stroke-linecap:butt;stroke-linejoin:miter;stroke-opacity:1"/>
<path class="bond-15 atom-12 atom-16" d="M 203.8,137.5 L 235.6,124.2" style="fill:none;fill-rule:evenodd;stroke:#000000;stroke-width:2.0px;stroke-linecap:butt;stroke-linejoin:miter;stroke-opacity:1"/>
<path class="bond-16 atom-16 atom-17" d="M 238.0,126.0 L 239.9,111.3" style="fill:none;fill-rule:evenodd;stroke:#000000;stroke-width:2.0px;stroke-linecap:butt;stroke-linejoin:miter;stroke-opacity:1"/>
<path class="bond-16 atom-16 atom-17" d="M 239.9,111.3 L 241.9,96.6" style="fill:none;fill-rule:evenodd;stroke:#FF0000;stroke-width:2.0px;stroke-linecap:butt;stroke-linejoin:miter;stroke-opacity:1"/>
<path class="bond-16 atom-16 atom-17" d="M 232.9,125.4 L 234.8,110.6" style="fill:none;fill-rule:evenodd;stroke:#000000;stroke-width:2.0px;stroke-linecap:butt;stroke-linejoin:miter;stroke-opacity:1"/>
<path class="bond-16 atom-16 atom-17" d="M 234.8,110.6 L 236.7,95.9" style="fill:none;fill-rule:evenodd;stroke:#FF0000;stroke-width:2.0px;stroke-linecap:butt;stroke-linejoin:miter;stroke-opacity:1"/>
<path class="bond-17 atom-16 atom-18" d="M 235.6,124.2 L 246.5,132.6" style="fill:none;fill-rule:evenodd;stroke:#000000;stroke-width:2.0px;stroke-linecap:butt;stroke-linejoin:miter;stroke-opacity:1"/>
<path class="bond-17 atom-16 atom-18" d="M 246.5,132.6 L 257.4,140.9" style="fill:none;fill-rule:evenodd;stroke:#FF0000;stroke-width:2.0px;stroke-linecap:butt;stroke-linejoin:miter;stroke-opacity:1"/>
<path class="bond-18 atom-8 atom-19" d="M 143.1,69.3 L 129.8,37.4" style="fill:none;fill-rule:evenodd;stroke:#000000;stroke-width:2.0px;stroke-linecap:butt;stroke-linejoin:miter;stroke-opacity:1"/>
<path class="bond-19 atom-19 atom-20" d="M 129.8,37.4 L 150.8,10.0" style="fill:none;fill-rule:evenodd;stroke:#000000;stroke-width:2.0px;stroke-linecap:butt;stroke-linejoin:miter;stroke-opacity:1"/>
<path class="bond-20 atom-19 atom-21" d="M 129.8,37.4 L 95.6,32.9" style="fill:none;fill-rule:evenodd;stroke:#000000;stroke-width:2.0px;stroke-linecap:butt;stroke-linejoin:miter;stroke-opacity:1"/>
<path d="M 105.2,117.4 L 106.7,116.7 L 107.0,115.0" style="fill:none;stroke:#000000;stroke-width:2.0px;stroke-linecap:butt;stroke-linejoin:miter;stroke-opacity:1;"/>
<path d="M 111.0,84.2 L 111.2,82.5 L 112.8,81.8" style="fill:none;stroke:#000000;stroke-width:2.0px;stroke-linecap:butt;stroke-linejoin:miter;stroke-opacity:1;"/>
<path d="M 155.7,99.5 L 156.3,101.1 L 158.0,101.3" style="fill:none;stroke:#000000;stroke-width:2.0px;stroke-linecap:butt;stroke-linejoin:miter;stroke-opacity:1;"/>
<path d="M 188.8,105.4 L 190.5,105.6 L 191.2,107.2" style="fill:none;stroke:#000000;stroke-width:2.0px;stroke-linecap:butt;stroke-linejoin:miter;stroke-opacity:1;"/>
<path d="M 173.5,150.0 L 171.9,150.7 L 171.8,151.4" style="fill:none;stroke:#000000;stroke-width:2.0px;stroke-linecap:butt;stroke-linejoin:miter;stroke-opacity:1;"/>
<path d="M 234.0,124.9 L 235.6,124.2 L 236.2,124.6" style="fill:none;stroke:#000000;stroke-width:2.0px;stroke-linecap:butt;stroke-linejoin:miter;stroke-opacity:1;"/>
<path class="atom-15" d="M 162.9 184.9 Q 162.9 182.6, 164.1 181.3 Q 165.3 180.0, 167.4 180.0 Q 169.6 180.0, 170.8 181.3 Q 171.9 182.6, 171.9 184.9 Q 171.9 187.3, 170.7 188.7 Q 169.6 190.0, 167.4 190.0 Q 165.3 190.0, 164.1 188.7 Q 162.9 187.3, 162.9 184.9 M 167.4 188.9 Q 168.9 188.9, 169.7 187.9 Q 170.5 186.9, 170.5 184.9 Q 170.5 183.0, 169.7 182.1 Q 168.9 181.1, 167.4 181.1 Q 165.9 181.1, 165.1 182.0 Q 164.3 183.0, 164.3 184.9 Q 164.3 186.9, 165.1 187.9 Q 165.9 188.9, 167.4 188.9 " fill="#FF0000"/>
<path class="atom-15" d="M 173.4 180.1 L 174.8 180.1 L 174.8 184.2 L 179.8 184.2 L 179.8 180.1 L 181.1 180.1 L 181.1 189.8 L 179.8 189.8 L 179.8 185.3 L 174.8 185.3 L 174.8 189.8 L 173.4 189.8 L 173.4 180.1 " fill="#FF0000"/>
<path class="atom-17" d="M 235.6 90.0 Q 235.6 87.7, 236.8 86.4 Q 237.9 85.1, 240.1 85.1 Q 242.3 85.1, 243.4 86.4 Q 244.6 87.7, 244.6 90.0 Q 244.6 92.4, 243.4 93.8 Q 242.2 95.1, 240.1 95.1 Q 237.9 95.1, 236.8 93.8 Q 235.6 92.4, 235.6 90.0 M 240.1 94.0 Q 241.6 94.0, 242.4 93.0 Q 243.2 92.0, 243.2 90.0 Q 243.2 88.1, 242.4 87.2 Q 241.6 86.2, 240.1 86.2 Q 238.6 86.2, 237.8 87.1 Q 237.0 88.1, 237.0 90.0 Q 237.0 92.0, 237.8 93.0 Q 238.6 94.0, 240.1 94.0 " fill="#FF0000"/>
<path class="atom-18" d="M 258.5 145.2 Q 258.5 142.9, 259.7 141.6 Q 260.9 140.3, 263.0 140.3 Q 265.2 140.3, 266.4 141.6 Q 267.5 142.9, 267.5 145.2 Q 267.5 147.6, 266.3 149.0 Q 265.2 150.3, 263.0 150.3 Q 260.9 150.3, 259.7 149.0 Q 258.5 147.6, 258.5 145.2 M 263.0 149.2 Q 264.5 149.2, 265.3 148.2 Q 266.1 147.2, 266.1 145.2 Q 266.1 143.3, 265.3 142.3 Q 264.5 141.4, 263.0 141.4 Q 261.5 141.4, 260.7 142.3 Q 259.9 143.3, 259.9 145.2 Q 259.9 147.2, 260.7 148.2 Q 261.5 149.2, 263.0 149.2 " fill="#FF0000"/>
<path class="atom-18" d="M 269.0 140.4 L 270.4 140.4 L 270.4 144.5 L 275.4 144.5 L 275.4 140.4 L 276.7 140.4 L 276.7 150.1 L 275.4 150.1 L 275.4 145.6 L 270.4 145.6 L 270.4 150.1 L 269.0 150.1 L 269.0 140.4 " fill="#FF0000"/>
</svg>
