<?xml version='1.0' encoding='ASCII' standalone='yes'?>
<svg xmlns="http://www.w3.org/2000/svg" xmlns:rdkit="http://www.rdkit.org/xml" xmlns:xlink="http://www.w3.org/1999/xlink" version="1.1" baseProfile="full" xml:space="preserve" width="247px" height="200px" viewBox="0 0 247 200">
<!-- END OF HEADER -->
<rect style="opacity:1.0;fill:#FFFFFF;stroke:none" width="247.0" height="200.0" x="0.0" y="0.0"> </rect>
<path class="bond-0 atom-0 atom-1" d="M 31.0,96.2 L 50.3,69.3" style="fill:none;fill-rule:evenodd;stroke:#000000;stroke-width:2.0px;stroke-linecap:butt;stroke-linejoin:miter;stroke-opacity:1"/>
<path class="bond-1 atom-1 atom-2" d="M 50.3,69.3 L 41.9,55.5" style="fill:none;fill-rule:evenodd;stroke:#000000;stroke-width:2.0px;stroke-linecap:butt;stroke-linejoin:miter;stroke-opacity:1"/>
<path class="bond-1 atom-1 atom-2" d="M 41.9,55.5 L 33.6,41.7" style="fill:none;fill-rule:evenodd;stroke:#FF0000;stroke-width:2.0px;stroke-linecap:butt;stroke-linejoin:miter;stroke-opacity:1"/>
<path class="bond-2 atom-1 atom-3" d="M 50.3,69.3 L 91.2,68.4" style="fill:none;fill-rule:evenodd;stroke:#000000;stroke-width:2.0px;stroke-linecap:butt;stroke-linejoin:miter;stroke-opacity:1"/>
<path class="bond-3 atom-3 atom-4" d="M 91.2,68.4 L 112.4,103.4" style="fill:none;fill-rule:evenodd;stroke:#000000;stroke-width:2.0px;stroke-linecap:butt;stroke-linejoin:miter;stroke-opacity:1"/>
<path class="bond-4 atom-4 atom-5" d="M 112.4,103.4 L 133.6,138.3" style="fill:none;fill-rule:evenodd;stroke:#000000;stroke-width:2.0px;stroke-linecap:butt;stroke-linejoin:miter;stroke-opacity:1"/>
<path class="bond-5 atom-4 atom-6" d="M 112.4,103.4 L 77.4,124.6" style="fill:none;fill-rule:evenodd;stroke:#000000;stroke-width:2.0px;stroke-linecap:butt;stroke-linejoin:miter;stroke-opacity:1"/>
<path class="bond-6 atom-6 atom-7" d="M 80.6,122.7 L 67.5,117.4" style="fill:none;fill-rule:evenodd;stroke:#000000;stroke-width:2.0px;stroke-linecap:butt;stroke-linejoin:miter;stroke-opacity:1"/>
<path class="bond-6 atom-6 atom-7" d="M 67.5,117.4 L 54.4,112.2" style="fill:none;fill-rule:evenodd;stroke:#FF0000;stroke-width:2.0px;stroke-linecap:butt;stroke-linejoin:miter;stroke-opacity:1"/>
<path class="bond-6 atom-6 atom-7" d="M 77.5,127.8 L 65.3,122.9" style="fill:none;fill-rule:evenodd;stroke:#000000;stroke-width:2.0px;stroke-linecap:butt;stroke-linejoin:miter;stroke-opacity:1"/>
<path class="bond-6 atom-6 atom-7" d="M 65.3,122.9 L 52.2,117.7" style="fill:none;fill-rule:evenodd;stroke:#FF0000;stroke-width:2.0px;stroke-linecap:butt;stroke-linejoin:miter;stroke-opacity:1"/>
<path class="bond-7 atom-6 atom-8" d="M 77.4,124.6 L 77.8,141.5" style="fill:none;fill-rule:evenodd;stroke:#000000;stroke-width:2.0px;stroke-linecap:butt;stroke-linejoin:miter;stroke-opacity:1"/>
<path class="bond-7 atom-6 atom-8" d="M 77.8,141.5 L 78.2,158.3" style="fill:none;fill-rule:evenodd;stroke:#FF0000;stroke-width:2.0px;stroke-linecap:butt;stroke-linejoin:miter;stroke-opacity:1"/>
<path class="bond-8 atom-4 atom-9" d="M 112.4,103.4 L 147.4,82.2" style="fill:none;fill-rule:evenodd;stroke:#000000;stroke-width:2.0px;stroke-linecap:butt;stroke-linejoin:miter;stroke-opacity:1"/>
<path class="bond-9 atom-9 atom-10" d="M 147.4,82.2 L 147.0,65.4" style="fill:none;fill-rule:evenodd;stroke:#000000;stroke-width:2.0px;stroke-linecap:butt;stroke-linejoin:miter;stroke-opacity:1"/>
<path class="bond-9 atom-9 atom-10" d="M 147.0,65.4 L 146.6,48.6" style="fill:none;fill-rule:evenodd;stroke:#FF0000;stroke-width:2.0px;stroke-linecap:butt;stroke-linejoin:miter;stroke-opacity:1"/>
<path class="bond-10 atom-9 atom-11" d="M 147.4,82.2 L 183.2,101.9" style="fill:none;fill-rule:evenodd;stroke:#000000;stroke-width:2.0px;stroke-linecap:butt;stroke-linejoin:miter;stroke-opacity:1"/>
<path class="bond-11 atom-11 atom-12" d="M 183.2,101.9 L 197.4,93.3" style="fill:none;fill-rule:evenodd;stroke:#000000;stroke-width:2.0px;stroke-linecap:butt;stroke-linejoin:miter;stroke-opacity:1"/>
<path class="bond-11 atom-11 atom-12" d="M 197.4,93.3 L 211.5,84.7" style="fill:none;fill-rule:evenodd;stroke:#FF0000;stroke-width:2.0px;stroke-linecap:butt;stroke-linejoin:miter;stroke-opacity:1"/>
<path d="M 89.1,68.5 L 91.2,68.4 L 92.3,70.2" style="fill:none;stroke:#000000;stroke-width:2.0px;stroke-linecap:butt;stroke-linejoin:miter;stroke-opacity:1;"/>
<path d="M 79.2,123.5 L 77.4,124.6 L 77.5,125.4" style="fill:none;stroke:#000000;stroke-width:2.0px;stroke-linecap:butt;stroke-linejoin:miter;stroke-opacity:1;"/>
<path d="M 181.4,100.9 L 183.2,101.9 L 183.9,101.4" style="fill:none;stroke:#000000;stroke-width:2.0px;stroke-linecap:butt;stroke-linejoin:miter;stroke-opacity:1;"/>
<path class="atom-2" d="M 12.3 28.6 L 13.9 28.6 L 13.9 33.5 L 19.8 33.5 L 19.8 28.6 L 21.4 28.6 L 21.4 40.2 L 19.8 40.2 L 19.8 34.9 L 13.9 34.9 L 13.9 40.2 L 12.3 40.2 L 12.3 28.6 " fill="#FF0000"/>
<path class="atom-2" d="M 23.8 34.4 Q 23.8 31.6, 25.2 30.0 Q 26.5 28.5, 29.1 28.5 Q 31.7 28.5, 33.0 30.0 Q 34.4 31.6, 34.4 34.4 Q 34.4 37.2, 33.0 38.8 Q 31.6 40.4, 29.1 40.4 Q 26.6 40.4, 25.2 38.8 Q 23.8 37.2, 23.8 34.4 M 29.1 39.1 Q 30.9 39.1, 31.8 37.9 Q 32.8 36.7, 32.8 34.4 Q 32.8 32.1, 31.8 31.0 Q 30.9 29.8, 29.1 29.8 Q 27.3 29.8, 26.4 30.9 Q 25.4 32.1, 25.4 34.4 Q 25.4 36.7, 26.4 37.9 Q 27.3 39.1, 29.1 39.1 " fill="#FF0000"/>
<path class="atom-7" d="M 41.4 112.3 Q 41.4 109.6, 42.7 108.0 Q 44.1 106.5, 46.7 106.5 Q 49.2 106.5, 50.6 108.0 Q 52.0 109.6, 52.0 112.3 Q 52.0 115.2, 50.6 116.8 Q 49.2 118.3, 46.7 118.3 Q 44.1 118.3, 42.7 116.8 Q 41.4 115.2, 41.4 112.3 M 46.7 117.0 Q 48.4 117.0, 49.4 115.9 Q 50.4 114.7, 50.4 112.3 Q 50.4 110.1, 49.4 108.9 Q 48.4 107.8, 46.7 107.8 Q 44.9 107.8, 43.9 108.9 Q 43.0 110.1, 43.0 112.3 Q 43.0 114.7, 43.9 115.9 Q 44.9 117.0, 46.7 117.0 " fill="#FF0000"/>
<path class="atom-8" d="M 73.0 165.5 Q 73.0 162.7, 74.4 161.2 Q 75.8 159.6, 78.3 159.6 Q 80.9 159.6, 82.3 161.2 Q 83.6 162.7, 83.6 165.5 Q 83.6 168.3, 82.2 169.9 Q 80.9 171.5, 78.3 171.5 Q 75.8 171.5, 74.4 169.9 Q 73.0 168.3, 73.0 165.5 M 78.3 170.2 Q 80.1 170.2, 81.0 169.0 Q 82.0 167.8, 82.0 165.5 Q 82.0 163.2, 81.0 162.1 Q 80.1 160.9, 78.3 160.9 Q 76.6 160.9, 75.6 162.1 Q 74.6 163.2, 74.6 165.5 Q 74.6 167.8, 75.6 169.0 Q 76.6 170.2, 78.3 170.2 " fill="#FF0000"/>
<path class="atom-8" d="M 85.4 159.7 L 87.0 159.7 L 87.0 164.7 L 92.9 164.7 L 92.9 159.7 L 94.5 159.7 L 94.5 171.3 L 92.9 171.3 L 92.9 166.0 L 87.0 166.0 L 87.0 171.3 L 85.4 171.3 L 85.4 159.7 " fill="#FF0000"/>
<path class="atom-10" d="M 141.2 41.3 Q 141.2 38.5, 142.5 37.0 Q 143.9 35.4, 146.5 35.4 Q 149.0 35.4, 150.4 37.0 Q 151.8 38.5, 151.8 41.3 Q 151.8 44.1, 150.4 45.7 Q 149.0 47.3, 146.5 47.3 Q 143.9 47.3, 142.5 45.7 Q 141.2 44.2, 141.2 41.3 M 146.5 46.0 Q 148.2 46.0, 149.2 44.8 Q 150.2 43.7, 150.2 41.3 Q 150.2 39.1, 149.2 37.9 Q 148.2 36.8, 146.5 36.8 Q 144.7 36.8, 143.7 37.9 Q 142.8 39.0, 142.8 41.3 Q 142.8 43.7, 143.7 44.8 Q 144.7 46.0, 146.5 46.0 " fill="#FF0000"/>
<path class="atom-10" d="M 153.6 35.6 L 155.2 35.6 L 155.2 40.5 L 161.1 40.5 L 161.1 35.6 L 162.7 35.6 L 162.7 47.2 L 161.1 47.2 L 161.1 41.8 L 155.2 41.8 L 155.2 47.2 L 153.6 47.2 L 153.6 35.6 " fill="#FF0000"/>
<path class="atom-12" d="M 212.9 80.7 Q 212.9 77.9, 214.2 76.3 Q 215.6 74.8, 218.2 74.8 Q 220.7 74.8, 222.1 76.3 Q 223.5 77.9, 223.5 80.7 Q 223.5 83.5, 222.1 85.1 Q 220.7 86.7, 218.2 86.7 Q 215.6 86.7, 214.2 85.1 Q 212.9 83.5, 212.9 80.7 M 218.2 85.4 Q 219.9 85.4, 220.9 84.2 Q 221.9 83.0, 221.9 80.7 Q 221.9 78.4, 220.9 77.3 Q 219.9 76.1, 218.2 76.1 Q 216.4 76.1, 215.4 77.2 Q 214.5 78.4, 214.5 80.7 Q 214.5 83.0, 215.4 84.2 Q 216.4 85.4, 218.2 85.4 " fill="#FF0000"/>
<path class="atom-12" d="M 225.3 74.9 L 226.9 74.9 L 226.9 79.8 L 232.8 79.8 L 232.8 74.9 L 234.3 74.9 L 234.3 86.5 L 232.8 86.5 L 232.8 81.2 L 226.9 81.2 L 226.9 86.5 L 225.3 86.5 L 225.3 74.9 " fill="#FF0000"/>
</svg>
