<?xml version='1.0' encoding='ASCII' standalone='yes'?>
<svg xmlns="http://www.w3.org/2000/svg" xmlns:rdkit="http://www.rdkit.org/xml" xmlns:xlink="http://www.w3.org/1999/xlink" version="1.1" baseProfile="full" xml:space="preserve" width="364px" height="200px" viewBox="0 0 364 200">
<!-- END OF HEADER -->
<rect style="opacity:1.0;fill:#FFFFFF;stroke:none" width="364.0" height="200.0" x="0.0" y="0.0"> </rect>
<path class="bond-0 atom-0 atom-1" d="M 229.3,177.7 L 246.2,163.0" style="fill:none;fill-rule:evenodd;stroke:#000000;stroke-width:2.0px;stroke-linecap:butt;stroke-linejoin:miter;stroke-opacity:1"/>
<path class="bond-1 atom-1 atom-2" d="M 246.2,163.0 L 242.0,141.0" style="fill:none;fill-rule:evenodd;stroke:#000000;stroke-width:2.0px;stroke-linecap:butt;stroke-linejoin:miter;stroke-opacity:1"/>
<path class="bond-2 atom-2 atom-3" d="M 242.0,141.0 L 237.7,119.0" style="fill:none;fill-rule:evenodd;stroke:#000000;stroke-width:2.0px;stroke-linecap:butt;stroke-linejoin:miter;stroke-opacity:1"/>
<path class="bond-3 atom-2 atom-4" d="M 242.0,141.0 L 264.0,136.7" style="fill:none;fill-rule:evenodd;stroke:#000000;stroke-width:2.0px;stroke-linecap:butt;stroke-linejoin:miter;stroke-opacity:1"/>
<path class="bond-4 atom-4 atom-5" d="M 264.0,136.7 L 271.3,115.5" style="fill:none;fill-rule:evenodd;stroke:#000000;stroke-width:2.0px;stroke-linecap:butt;stroke-linejoin:miter;stroke-opacity:1"/>
<path class="bond-5 atom-5 atom-6" d="M 271.3,115.5 L 293.3,111.2" style="fill:none;fill-rule:evenodd;stroke:#000000;stroke-width:2.0px;stroke-linecap:butt;stroke-linejoin:miter;stroke-opacity:1"/>
<path class="bond-6 atom-6 atom-7" d="M 293.3,111.2 L 315.3,107.0" style="fill:none;fill-rule:evenodd;stroke:#000000;stroke-width:2.0px;stroke-linecap:butt;stroke-linejoin:miter;stroke-opacity:1"/>
<path class="bond-7 atom-6 atom-8" d="M 293.3,111.2 L 297.5,133.2" style="fill:none;fill-rule:evenodd;stroke:#000000;stroke-width:2.0px;stroke-linecap:butt;stroke-linejoin:miter;stroke-opacity:1"/>
<path class="bond-8 atom-8 atom-9" d="M 297.5,133.2 L 306.3,136.3" style="fill:none;fill-rule:evenodd;stroke:#000000;stroke-width:2.0px;stroke-linecap:butt;stroke-linejoin:miter;stroke-opacity:1"/>
<path class="bond-8 atom-8 atom-9" d="M 306.3,136.3 L 315.1,139.3" style="fill:none;fill-rule:evenodd;stroke:#FF0000;stroke-width:2.0px;stroke-linecap:butt;stroke-linejoin:miter;stroke-opacity:1"/>
<path class="bond-9 atom-6 atom-10" d="M 293.3,111.2 L 289.0,89.2" style="fill:none;fill-rule:evenodd;stroke:#000000;stroke-width:2.0px;stroke-linecap:butt;stroke-linejoin:miter;stroke-opacity:1"/>
<path class="bond-10 atom-10 atom-11" d="M 290.4,88.0 L 281.2,84.8" style="fill:none;fill-rule:evenodd;stroke:#000000;stroke-width:2.0px;stroke-linecap:butt;stroke-linejoin:miter;stroke-opacity:1"/>
<path class="bond-10 atom-10 atom-11" d="M 281.2,84.8 L 272.0,81.6" style="fill:none;fill-rule:evenodd;stroke:#FF0000;stroke-width:2.0px;stroke-linecap:butt;stroke-linejoin:miter;stroke-opacity:1"/>
<path class="bond-10 atom-10 atom-11" d="M 289.4,91.1 L 280.1,88.0" style="fill:none;fill-rule:evenodd;stroke:#000000;stroke-width:2.0px;stroke-linecap:butt;stroke-linejoin:miter;stroke-opacity:1"/>
<path class="bond-10 atom-10 atom-11" d="M 280.1,88.0 L 270.9,84.8" style="fill:none;fill-rule:evenodd;stroke:#FF0000;stroke-width:2.0px;stroke-linecap:butt;stroke-linejoin:miter;stroke-opacity:1"/>
<path class="bond-11 atom-10 atom-12" d="M 289.0,89.2 L 295.6,83.5" style="fill:none;fill-rule:evenodd;stroke:#000000;stroke-width:2.0px;stroke-linecap:butt;stroke-linejoin:miter;stroke-opacity:1"/>
<path class="bond-11 atom-10 atom-12" d="M 295.6,83.5 L 302.3,77.7" style="fill:none;fill-rule:evenodd;stroke:#FF0000;stroke-width:2.0px;stroke-linecap:butt;stroke-linejoin:miter;stroke-opacity:1"/>
<path class="bond-12 atom-2 atom-13" d="M 242.0,141.0 L 220.0,145.3" style="fill:none;fill-rule:evenodd;stroke:#000000;stroke-width:2.0px;stroke-linecap:butt;stroke-linejoin:miter;stroke-opacity:1"/>
<path class="bond-13 atom-13 atom-14" d="M 220.0,145.3 L 205.3,128.3" style="fill:none;fill-rule:evenodd;stroke:#000000;stroke-width:2.0px;stroke-linecap:butt;stroke-linejoin:miter;stroke-opacity:1"/>
<path class="bond-14 atom-14 atom-15" d="M 205.3,128.3 L 183.3,132.6" style="fill:none;fill-rule:evenodd;stroke:#000000;stroke-width:2.0px;stroke-linecap:butt;stroke-linejoin:miter;stroke-opacity:1"/>
<path class="bond-15 atom-15 atom-16" d="M 183.3,132.6 L 187.5,154.6" style="fill:none;fill-rule:evenodd;stroke:#000000;stroke-width:2.0px;stroke-linecap:butt;stroke-linejoin:miter;stroke-opacity:1"/>
<path class="bond-16 atom-15 atom-17" d="M 183.3,132.6 L 179.0,110.6" style="fill:none;fill-rule:evenodd;stroke:#000000;stroke-width:2.0px;stroke-linecap:butt;stroke-linejoin:miter;stroke-opacity:1"/>
<path class="bond-17 atom-17 atom-18" d="M 179.0,110.6 L 157.8,103.3" style="fill:none;fill-rule:evenodd;stroke:#000000;stroke-width:2.0px;stroke-linecap:butt;stroke-linejoin:miter;stroke-opacity:1"/>
<path class="bond-18 atom-18 atom-19" d="M 157.8,103.3 L 140.9,118.0" style="fill:none;fill-rule:evenodd;stroke:#000000;stroke-width:2.0px;stroke-linecap:butt;stroke-linejoin:miter;stroke-opacity:1"/>
<path class="bond-19 atom-19 atom-20" d="M 140.9,118.0 L 119.7,110.7" style="fill:none;fill-rule:evenodd;stroke:#000000;stroke-width:2.0px;stroke-linecap:butt;stroke-linejoin:miter;stroke-opacity:1"/>
<path class="bond-20 atom-20 atom-21" d="M 119.7,110.7 L 98.5,103.4" style="fill:none;fill-rule:evenodd;stroke:#000000;stroke-width:2.0px;stroke-linecap:butt;stroke-linejoin:miter;stroke-opacity:1"/>
<path class="bond-21 atom-20 atom-22" d="M 119.7,110.7 L 112.4,131.9" style="fill:none;fill-rule:evenodd;stroke:#000000;stroke-width:2.0px;stroke-linecap:butt;stroke-linejoin:miter;stroke-opacity:1"/>
<path class="bond-22 atom-22 atom-23" d="M 112.4,131.9 L 90.4,136.2" style="fill:none;fill-rule:evenodd;stroke:#000000;stroke-width:2.0px;stroke-linecap:butt;stroke-linejoin:miter;stroke-opacity:1"/>
<path class="bond-23 atom-23 atom-24" d="M 90.4,136.2 L 83.1,157.4" style="fill:none;fill-rule:evenodd;stroke:#000000;stroke-width:2.0px;stroke-linecap:butt;stroke-linejoin:miter;stroke-opacity:1"/>
<path class="bond-24 atom-24 atom-25" d="M 83.1,157.4 L 75.8,178.6" style="fill:none;fill-rule:evenodd;stroke:#000000;stroke-width:2.0px;stroke-linecap:butt;stroke-linejoin:miter;stroke-opacity:1"/>
<path class="bond-25 atom-24 atom-26" d="M 83.1,157.4 L 104.3,164.7" style="fill:none;fill-rule:evenodd;stroke:#000000;stroke-width:2.0px;stroke-linecap:butt;stroke-linejoin:miter;stroke-opacity:1"/>
<path class="bond-26 atom-26 atom-27" d="M 104.3,164.7 L 106.0,173.7" style="fill:none;fill-rule:evenodd;stroke:#000000;stroke-width:2.0px;stroke-linecap:butt;stroke-linejoin:miter;stroke-opacity:1"/>
<path class="bond-26 atom-26 atom-27" d="M 106.0,173.7 L 107.8,182.7" style="fill:none;fill-rule:evenodd;stroke:#FF0000;stroke-width:2.0px;stroke-linecap:butt;stroke-linejoin:miter;stroke-opacity:1"/>
<path class="bond-27 atom-24 atom-28" d="M 83.1,157.4 L 61.9,150.1" style="fill:none;fill-rule:evenodd;stroke:#000000;stroke-width:2.0px;stroke-linecap:butt;stroke-linejoin:miter;stroke-opacity:1"/>
<path class="bond-28 atom-28 atom-29" d="M 63.7,150.7 L 61.9,141.3" style="fill:none;fill-rule:evenodd;stroke:#000000;stroke-width:2.0px;stroke-linecap:butt;stroke-linejoin:miter;stroke-opacity:1"/>
<path class="bond-28 atom-28 atom-29" d="M 61.9,141.3 L 60.0,131.8" style="fill:none;fill-rule:evenodd;stroke:#FF0000;stroke-width:2.0px;stroke-linecap:butt;stroke-linejoin:miter;stroke-opacity:1"/>
<path class="bond-28 atom-28 atom-29" d="M 60.4,151.4 L 58.6,141.9" style="fill:none;fill-rule:evenodd;stroke:#000000;stroke-width:2.0px;stroke-linecap:butt;stroke-linejoin:miter;stroke-opacity:1"/>
<path class="bond-28 atom-28 atom-29" d="M 58.6,141.9 L 56.8,132.5" style="fill:none;fill-rule:evenodd;stroke:#FF0000;stroke-width:2.0px;stroke-linecap:butt;stroke-linejoin:miter;stroke-opacity:1"/>
<path class="bond-29 atom-28 atom-30" d="M 61.9,150.1 L 55.3,155.9" style="fill:none;fill-rule:evenodd;stroke:#000000;stroke-width:2.0px;stroke-linecap:butt;stroke-linejoin:miter;stroke-opacity:1"/>
<path class="bond-29 atom-28 atom-30" d="M 55.3,155.9 L 48.6,161.6" style="fill:none;fill-rule:evenodd;stroke:#FF0000;stroke-width:2.0px;stroke-linecap:butt;stroke-linejoin:miter;stroke-opacity:1"/>
<path class="bond-30 atom-20 atom-31" d="M 119.7,110.7 L 127.0,89.5" style="fill:none;fill-rule:evenodd;stroke:#000000;stroke-width:2.0px;stroke-linecap:butt;stroke-linejoin:miter;stroke-opacity:1"/>
<path class="bond-31 atom-31 atom-32" d="M 127.0,89.5 L 112.3,72.6" style="fill:none;fill-rule:evenodd;stroke:#000000;stroke-width:2.0px;stroke-linecap:butt;stroke-linejoin:miter;stroke-opacity:1"/>
<path class="bond-32 atom-32 atom-33" d="M 112.3,72.6 L 119.6,51.4" style="fill:none;fill-rule:evenodd;stroke:#000000;stroke-width:2.0px;stroke-linecap:butt;stroke-linejoin:miter;stroke-opacity:1"/>
<path class="bond-33 atom-33 atom-34" d="M 119.6,51.4 L 126.9,30.2" style="fill:none;fill-rule:evenodd;stroke:#000000;stroke-width:2.0px;stroke-linecap:butt;stroke-linejoin:miter;stroke-opacity:1"/>
<path class="bond-34 atom-33 atom-35" d="M 119.6,51.4 L 140.8,58.7" style="fill:none;fill-rule:evenodd;stroke:#000000;stroke-width:2.0px;stroke-linecap:butt;stroke-linejoin:miter;stroke-opacity:1"/>
<path class="bond-35 atom-35 atom-36" d="M 140.8,58.7 L 157.7,44.0" style="fill:none;fill-rule:evenodd;stroke:#000000;stroke-width:2.0px;stroke-linecap:butt;stroke-linejoin:miter;stroke-opacity:1"/>
<path class="bond-36 atom-36 atom-37" d="M 157.7,44.0 L 178.9,51.3" style="fill:none;fill-rule:evenodd;stroke:#000000;stroke-width:2.0px;stroke-linecap:butt;stroke-linejoin:miter;stroke-opacity:1"/>
<path class="bond-37 atom-37 atom-38" d="M 178.9,51.3 L 200.1,58.6" style="fill:none;fill-rule:evenodd;stroke:#000000;stroke-width:2.0px;stroke-linecap:butt;stroke-linejoin:miter;stroke-opacity:1"/>
<path class="bond-38 atom-37 atom-39" d="M 178.9,51.3 L 171.6,72.5" style="fill:none;fill-rule:evenodd;stroke:#000000;stroke-width:2.0px;stroke-linecap:butt;stroke-linejoin:miter;stroke-opacity:1"/>
<path class="bond-39 atom-39 atom-40" d="M 171.6,72.5 L 162.4,74.3" style="fill:none;fill-rule:evenodd;stroke:#000000;stroke-width:2.0px;stroke-linecap:butt;stroke-linejoin:miter;stroke-opacity:1"/>
<path class="bond-39 atom-39 atom-40" d="M 162.4,74.3 L 153.2,76.1" style="fill:none;fill-rule:evenodd;stroke:#FF0000;stroke-width:2.0px;stroke-linecap:butt;stroke-linejoin:miter;stroke-opacity:1"/>
<path class="bond-40 atom-37 atom-41" d="M 178.9,51.3 L 186.2,30.1" style="fill:none;fill-rule:evenodd;stroke:#000000;stroke-width:2.0px;stroke-linecap:butt;stroke-linejoin:miter;stroke-opacity:1"/>
<path class="bond-41 atom-41 atom-42" d="M 188.1,29.8 L 182.2,23.0" style="fill:none;fill-rule:evenodd;stroke:#000000;stroke-width:2.0px;stroke-linecap:butt;stroke-linejoin:miter;stroke-opacity:1"/>
<path class="bond-41 atom-41 atom-42" d="M 182.2,23.0 L 176.2,16.2" style="fill:none;fill-rule:evenodd;stroke:#FF0000;stroke-width:2.0px;stroke-linecap:butt;stroke-linejoin:miter;stroke-opacity:1"/>
<path class="bond-41 atom-41 atom-42" d="M 185.5,31.9 L 179.6,25.1" style="fill:none;fill-rule:evenodd;stroke:#000000;stroke-width:2.0px;stroke-linecap:butt;stroke-linejoin:miter;stroke-opacity:1"/>
<path class="bond-41 atom-41 atom-42" d="M 179.6,25.1 L 173.7,18.3" style="fill:none;fill-rule:evenodd;stroke:#FF0000;stroke-width:2.0px;stroke-linecap:butt;stroke-linejoin:miter;stroke-opacity:1"/>
<path class="bond-42 atom-41 atom-43" d="M 186.2,30.1 L 195.3,28.3" style="fill:none;fill-rule:evenodd;stroke:#000000;stroke-width:2.0px;stroke-linecap:butt;stroke-linejoin:miter;stroke-opacity:1"/>
<path class="bond-42 atom-41 atom-43" d="M 195.3,28.3 L 204.5,26.6" style="fill:none;fill-rule:evenodd;stroke:#FF0000;stroke-width:2.0px;stroke-linecap:butt;stroke-linejoin:miter;stroke-opacity:1"/>
<path class="bond-43 atom-33 atom-44" d="M 119.6,51.4 L 98.4,44.1" style="fill:none;fill-rule:evenodd;stroke:#000000;stroke-width:2.0px;stroke-linecap:butt;stroke-linejoin:miter;stroke-opacity:1"/>
<path class="bond-44 atom-44 atom-45" d="M 98.0,42.2 L 91.0,48.3" style="fill:none;fill-rule:evenodd;stroke:#000000;stroke-width:2.0px;stroke-linecap:butt;stroke-linejoin:miter;stroke-opacity:1"/>
<path class="bond-44 atom-44 atom-45" d="M 91.0,48.3 L 84.0,54.4" style="fill:none;fill-rule:evenodd;stroke:#FF0000;stroke-width:2.0px;stroke-linecap:butt;stroke-linejoin:miter;stroke-opacity:1"/>
<path class="bond-44 atom-44 atom-45" d="M 100.2,44.8 L 93.2,50.8" style="fill:none;fill-rule:evenodd;stroke:#000000;stroke-width:2.0px;stroke-linecap:butt;stroke-linejoin:miter;stroke-opacity:1"/>
<path class="bond-44 atom-44 atom-45" d="M 93.2,50.8 L 86.2,56.9" style="fill:none;fill-rule:evenodd;stroke:#FF0000;stroke-width:2.0px;stroke-linecap:butt;stroke-linejoin:miter;stroke-opacity:1"/>
<path class="bond-45 atom-44 atom-46" d="M 98.4,44.1 L 96.6,35.1" style="fill:none;fill-rule:evenodd;stroke:#000000;stroke-width:2.0px;stroke-linecap:butt;stroke-linejoin:miter;stroke-opacity:1"/>
<path class="bond-45 atom-44 atom-46" d="M 96.6,35.1 L 94.9,26.2" style="fill:none;fill-rule:evenodd;stroke:#FF0000;stroke-width:2.0px;stroke-linecap:butt;stroke-linejoin:miter;stroke-opacity:1"/>
<path class="bond-46 atom-15 atom-47" d="M 183.3,132.6 L 161.3,136.9" style="fill:none;fill-rule:evenodd;stroke:#000000;stroke-width:2.0px;stroke-linecap:butt;stroke-linejoin:miter;stroke-opacity:1"/>
<path class="bond-47 atom-47 atom-48" d="M 159.8,135.9 L 156.8,144.8" style="fill:none;fill-rule:evenodd;stroke:#000000;stroke-width:2.0px;stroke-linecap:butt;stroke-linejoin:miter;stroke-opacity:1"/>
<path class="bond-47 atom-47 atom-48" d="M 156.8,144.8 L 153.7,153.6" style="fill:none;fill-rule:evenodd;stroke:#FF0000;stroke-width:2.0px;stroke-linecap:butt;stroke-linejoin:miter;stroke-opacity:1"/>
<path class="bond-47 atom-47 atom-48" d="M 163.1,136.5 L 159.9,145.8" style="fill:none;fill-rule:evenodd;stroke:#000000;stroke-width:2.0px;stroke-linecap:butt;stroke-linejoin:miter;stroke-opacity:1"/>
<path class="bond-47 atom-47 atom-48" d="M 159.9,145.8 L 156.9,154.7" style="fill:none;fill-rule:evenodd;stroke:#FF0000;stroke-width:2.0px;stroke-linecap:butt;stroke-linejoin:miter;stroke-opacity:1"/>
<path class="bond-48 atom-47 atom-49" d="M 161.3,136.9 L 157.1,134.0" style="fill:none;fill-rule:evenodd;stroke:#000000;stroke-width:2.0px;stroke-linecap:butt;stroke-linejoin:miter;stroke-opacity:1"/>
<path class="bond-48 atom-47 atom-49" d="M 157.1,134.0 L 152.9,131.0" style="fill:none;fill-rule:evenodd;stroke:#FF0000;stroke-width:2.0px;stroke-linecap:butt;stroke-linejoin:miter;stroke-opacity:1"/>
<path d="M 245.4,163.7 L 246.2,163.0 L 246.0,161.9" style="fill:none;stroke:#000000;stroke-width:2.0px;stroke-linecap:butt;stroke-linejoin:miter;stroke-opacity:1;"/>
<path d="M 262.9,136.9 L 264.0,136.7 L 264.3,135.7" style="fill:none;stroke:#000000;stroke-width:2.0px;stroke-linecap:butt;stroke-linejoin:miter;stroke-opacity:1;"/>
<path d="M 270.9,116.6 L 271.3,115.5 L 272.4,115.3" style="fill:none;stroke:#000000;stroke-width:2.0px;stroke-linecap:butt;stroke-linejoin:miter;stroke-opacity:1;"/>
<path d="M 297.3,132.1 L 297.5,133.2 L 298.0,133.4" style="fill:none;stroke:#000000;stroke-width:2.0px;stroke-linecap:butt;stroke-linejoin:miter;stroke-opacity:1;"/>
<path d="M 289.2,90.3 L 289.0,89.2 L 289.3,89.0" style="fill:none;stroke:#000000;stroke-width:2.0px;stroke-linecap:butt;stroke-linejoin:miter;stroke-opacity:1;"/>
<path d="M 221.1,145.1 L 220.0,145.3 L 219.2,144.4" style="fill:none;stroke:#000000;stroke-width:2.0px;stroke-linecap:butt;stroke-linejoin:miter;stroke-opacity:1;"/>
<path d="M 206.0,129.2 L 205.3,128.3 L 204.2,128.6" style="fill:none;stroke:#000000;stroke-width:2.0px;stroke-linecap:butt;stroke-linejoin:miter;stroke-opacity:1;"/>
<path d="M 179.2,111.7 L 179.0,110.6 L 177.9,110.3" style="fill:none;stroke:#000000;stroke-width:2.0px;stroke-linecap:butt;stroke-linejoin:miter;stroke-opacity:1;"/>
<path d="M 158.9,103.7 L 157.8,103.3 L 156.9,104.1" style="fill:none;stroke:#000000;stroke-width:2.0px;stroke-linecap:butt;stroke-linejoin:miter;stroke-opacity:1;"/>
<path d="M 141.7,117.3 L 140.9,118.0 L 139.8,117.7" style="fill:none;stroke:#000000;stroke-width:2.0px;stroke-linecap:butt;stroke-linejoin:miter;stroke-opacity:1;"/>
<path d="M 112.7,130.9 L 112.4,131.9 L 111.3,132.1" style="fill:none;stroke:#000000;stroke-width:2.0px;stroke-linecap:butt;stroke-linejoin:miter;stroke-opacity:1;"/>
<path d="M 91.5,136.0 L 90.4,136.2 L 90.0,137.3" style="fill:none;stroke:#000000;stroke-width:2.0px;stroke-linecap:butt;stroke-linejoin:miter;stroke-opacity:1;"/>
<path d="M 103.2,164.3 L 104.3,164.7 L 104.4,165.1" style="fill:none;stroke:#000000;stroke-width:2.0px;stroke-linecap:butt;stroke-linejoin:miter;stroke-opacity:1;"/>
<path d="M 62.9,150.5 L 61.9,150.1 L 61.6,150.4" style="fill:none;stroke:#000000;stroke-width:2.0px;stroke-linecap:butt;stroke-linejoin:miter;stroke-opacity:1;"/>
<path d="M 126.6,90.6 L 127.0,89.5 L 126.2,88.7" style="fill:none;stroke:#000000;stroke-width:2.0px;stroke-linecap:butt;stroke-linejoin:miter;stroke-opacity:1;"/>
<path d="M 113.0,73.5 L 112.3,72.6 L 112.6,71.6" style="fill:none;stroke:#000000;stroke-width:2.0px;stroke-linecap:butt;stroke-linejoin:miter;stroke-opacity:1;"/>
<path d="M 139.7,58.4 L 140.8,58.7 L 141.6,58.0" style="fill:none;stroke:#000000;stroke-width:2.0px;stroke-linecap:butt;stroke-linejoin:miter;stroke-opacity:1;"/>
<path d="M 156.8,44.8 L 157.7,44.0 L 158.7,44.4" style="fill:none;stroke:#000000;stroke-width:2.0px;stroke-linecap:butt;stroke-linejoin:miter;stroke-opacity:1;"/>
<path d="M 171.9,71.5 L 171.6,72.5 L 171.1,72.6" style="fill:none;stroke:#000000;stroke-width:2.0px;stroke-linecap:butt;stroke-linejoin:miter;stroke-opacity:1;"/>
<path d="M 185.8,31.2 L 186.2,30.1 L 186.6,30.0" style="fill:none;stroke:#000000;stroke-width:2.0px;stroke-linecap:butt;stroke-linejoin:miter;stroke-opacity:1;"/>
<path d="M 99.4,44.5 L 98.4,44.1 L 98.3,43.7" style="fill:none;stroke:#000000;stroke-width:2.0px;stroke-linecap:butt;stroke-linejoin:miter;stroke-opacity:1;"/>
<path d="M 162.4,136.7 L 161.3,136.9 L 161.0,136.8" style="fill:none;stroke:#000000;stroke-width:2.0px;stroke-linecap:butt;stroke-linejoin:miter;stroke-opacity:1;"/>
<path class="atom-9" d="M 315.8 140.6 Q 315.8 139.0, 316.6 138.2 Q 317.3 137.3, 318.7 137.3 Q 320.1 137.3, 320.9 138.2 Q 321.7 139.0, 321.7 140.6 Q 321.7 142.1, 320.9 143.0 Q 320.1 143.9, 318.7 143.9 Q 317.3 143.9, 316.6 143.0 Q 315.8 142.1, 315.8 140.6 M 318.7 143.1 Q 319.7 143.1, 320.2 142.5 Q 320.8 141.8, 320.8 140.6 Q 320.8 139.3, 320.2 138.7 Q 319.7 138.1, 318.7 138.1 Q 317.8 138.1, 317.2 138.7 Q 316.7 139.3, 316.7 140.6 Q 316.7 141.8, 317.2 142.5 Q 317.8 143.1, 318.7 143.1 " fill="#FF0000"/>
<path class="atom-9" d="M 322.6 137.4 L 323.5 137.4 L 323.5 140.1 L 326.7 140.1 L 326.7 137.4 L 327.6 137.4 L 327.6 143.8 L 326.7 143.8 L 326.7 140.8 L 323.5 140.8 L 323.5 143.8 L 322.6 143.8 L 322.6 137.4 " fill="#FF0000"/>
<path class="atom-11" d="M 264.9 82.0 Q 264.9 80.4, 265.6 79.6 Q 266.4 78.7, 267.8 78.7 Q 269.2 78.7, 270.0 79.6 Q 270.7 80.4, 270.7 82.0 Q 270.7 83.5, 270.0 84.4 Q 269.2 85.3, 267.8 85.3 Q 266.4 85.3, 265.6 84.4 Q 264.9 83.5, 264.9 82.0 M 267.8 84.5 Q 268.8 84.5, 269.3 83.9 Q 269.8 83.2, 269.8 82.0 Q 269.8 80.7, 269.3 80.1 Q 268.8 79.4, 267.8 79.4 Q 266.8 79.4, 266.3 80.1 Q 265.8 80.7, 265.8 82.0 Q 265.8 83.2, 266.3 83.9 Q 266.8 84.5, 267.8 84.5 " fill="#FF0000"/>
<path class="atom-12" d="M 303.0 74.6 Q 303.0 73.0, 303.8 72.2 Q 304.5 71.3, 305.9 71.3 Q 307.3 71.3, 308.1 72.2 Q 308.8 73.0, 308.8 74.6 Q 308.8 76.1, 308.1 77.0 Q 307.3 77.8, 305.9 77.8 Q 304.5 77.8, 303.8 77.0 Q 303.0 76.1, 303.0 74.6 M 305.9 77.1 Q 306.9 77.1, 307.4 76.5 Q 307.9 75.8, 307.9 74.6 Q 307.9 73.3, 307.4 72.7 Q 306.9 72.0, 305.9 72.0 Q 304.9 72.0, 304.4 72.7 Q 303.9 73.3, 303.9 74.6 Q 303.9 75.8, 304.4 76.5 Q 304.9 77.1, 305.9 77.1 " fill="#FF0000"/>
<path class="atom-12" d="M 309.8 71.4 L 310.7 71.4 L 310.7 74.1 L 313.9 74.1 L 313.9 71.4 L 314.8 71.4 L 314.8 77.7 L 313.9 77.7 L 313.9 74.8 L 310.7 74.8 L 310.7 77.7 L 309.8 77.7 L 309.8 71.4 " fill="#FF0000"/>
<path class="atom-27" d="M 105.6 186.7 Q 105.6 185.2, 106.4 184.3 Q 107.1 183.5, 108.6 183.5 Q 110.0 183.5, 110.7 184.3 Q 111.5 185.2, 111.5 186.7 Q 111.5 188.3, 110.7 189.1 Q 109.9 190.0, 108.6 190.0 Q 107.2 190.0, 106.4 189.1 Q 105.6 188.3, 105.6 186.7 M 108.6 189.3 Q 109.5 189.3, 110.0 188.6 Q 110.6 188.0, 110.6 186.7 Q 110.6 185.5, 110.0 184.8 Q 109.5 184.2, 108.6 184.2 Q 107.6 184.2, 107.1 184.8 Q 106.5 185.5, 106.5 186.7 Q 106.5 188.0, 107.1 188.6 Q 107.6 189.3, 108.6 189.3 " fill="#FF0000"/>
<path class="atom-27" d="M 112.5 183.6 L 113.3 183.6 L 113.3 186.3 L 116.6 186.3 L 116.6 183.6 L 117.4 183.6 L 117.4 189.9 L 116.6 189.9 L 116.6 187.0 L 113.3 187.0 L 113.3 189.9 L 112.5 189.9 L 112.5 183.6 " fill="#FF0000"/>
<path class="atom-29" d="M 54.7 128.1 Q 54.7 126.6, 55.5 125.7 Q 56.2 124.9, 57.6 124.9 Q 59.0 124.9, 59.8 125.7 Q 60.5 126.6, 60.5 128.1 Q 60.5 129.7, 59.8 130.5 Q 59.0 131.4, 57.6 131.4 Q 56.2 131.4, 55.5 130.5 Q 54.7 129.7, 54.7 128.1 M 57.6 130.7 Q 58.6 130.7, 59.1 130.0 Q 59.6 129.4, 59.6 128.1 Q 59.6 126.9, 59.1 126.2 Q 58.6 125.6, 57.6 125.6 Q 56.6 125.6, 56.1 126.2 Q 55.6 126.9, 55.6 128.1 Q 55.6 129.4, 56.1 130.0 Q 56.6 130.7, 57.6 130.7 " fill="#FF0000"/>
<path class="atom-30" d="M 35.8 161.7 L 36.7 161.7 L 36.7 164.4 L 39.9 164.4 L 39.9 161.7 L 40.8 161.7 L 40.8 168.0 L 39.9 168.0 L 39.9 165.1 L 36.7 165.1 L 36.7 168.0 L 35.8 168.0 L 35.8 161.7 " fill="#FF0000"/>
<path class="atom-30" d="M 42.1 164.8 Q 42.1 163.3, 42.8 162.4 Q 43.6 161.6, 45.0 161.6 Q 46.4 161.6, 47.1 162.4 Q 47.9 163.3, 47.9 164.8 Q 47.9 166.4, 47.1 167.2 Q 46.4 168.1, 45.0 168.1 Q 43.6 168.1, 42.8 167.2 Q 42.1 166.4, 42.1 164.8 M 45.0 167.4 Q 45.9 167.4, 46.5 166.7 Q 47.0 166.1, 47.0 164.8 Q 47.0 163.6, 46.5 162.9 Q 45.9 162.3, 45.0 162.3 Q 44.0 162.3, 43.5 162.9 Q 43.0 163.6, 43.0 164.8 Q 43.0 166.1, 43.5 166.7 Q 44.0 167.4, 45.0 167.4 " fill="#FF0000"/>
<path class="atom-40" d="M 140.4 73.6 L 141.3 73.6 L 141.3 76.3 L 144.5 76.3 L 144.5 73.6 L 145.4 73.6 L 145.4 80.0 L 144.5 80.0 L 144.5 77.1 L 141.3 77.1 L 141.3 80.0 L 140.4 80.0 L 140.4 73.6 " fill="#FF0000"/>
<path class="atom-40" d="M 146.7 76.8 Q 146.7 75.3, 147.4 74.4 Q 148.2 73.6, 149.6 73.6 Q 151.0 73.6, 151.7 74.4 Q 152.5 75.3, 152.5 76.8 Q 152.5 78.3, 151.7 79.2 Q 151.0 80.1, 149.6 80.1 Q 148.2 80.1, 147.4 79.2 Q 146.7 78.4, 146.7 76.8 M 149.6 79.4 Q 150.5 79.4, 151.1 78.7 Q 151.6 78.1, 151.6 76.8 Q 151.6 75.6, 151.1 74.9 Q 150.5 74.3, 149.6 74.3 Q 148.6 74.3, 148.1 74.9 Q 147.6 75.6, 147.6 76.8 Q 147.6 78.1, 148.1 78.7 Q 148.6 79.4, 149.6 79.4 " fill="#FF0000"/>
<path class="atom-42" d="M 168.6 13.2 Q 168.6 11.7, 169.3 10.9 Q 170.1 10.0, 171.5 10.0 Q 172.9 10.0, 173.6 10.9 Q 174.4 11.7, 174.4 13.2 Q 174.4 14.8, 173.6 15.6 Q 172.9 16.5, 171.5 16.5 Q 170.1 16.5, 169.3 15.6 Q 168.6 14.8, 168.6 13.2 M 171.5 15.8 Q 172.4 15.8, 173.0 15.2 Q 173.5 14.5, 173.5 13.2 Q 173.5 12.0, 173.0 11.4 Q 172.4 10.7, 171.5 10.7 Q 170.5 10.7, 170.0 11.3 Q 169.5 12.0, 169.5 13.2 Q 169.5 14.5, 170.0 15.2 Q 170.5 15.8, 171.5 15.8 " fill="#FF0000"/>
<path class="atom-43" d="M 205.3 25.9 Q 205.3 24.3, 206.0 23.5 Q 206.8 22.6, 208.2 22.6 Q 209.6 22.6, 210.3 23.5 Q 211.1 24.3, 211.1 25.9 Q 211.1 27.4, 210.3 28.3 Q 209.6 29.2, 208.2 29.2 Q 206.8 29.2, 206.0 28.3 Q 205.3 27.4, 205.3 25.9 M 208.2 28.4 Q 209.1 28.4, 209.7 27.8 Q 210.2 27.1, 210.2 25.9 Q 210.2 24.6, 209.7 24.0 Q 209.1 23.4, 208.2 23.4 Q 207.2 23.4, 206.7 24.0 Q 206.2 24.6, 206.2 25.9 Q 206.2 27.2, 206.7 27.8 Q 207.2 28.4, 208.2 28.4 " fill="#FF0000"/>
<path class="atom-43" d="M 212.1 22.7 L 212.9 22.7 L 212.9 25.4 L 216.2 25.4 L 216.2 22.7 L 217.0 22.7 L 217.0 29.1 L 216.2 29.1 L 216.2 26.1 L 212.9 26.1 L 212.9 29.1 L 212.1 29.1 L 212.1 22.7 " fill="#FF0000"/>
<path class="atom-45" d="M 78.5 58.9 Q 78.5 57.3, 79.3 56.5 Q 80.1 55.6, 81.5 55.6 Q 82.9 55.6, 83.6 56.5 Q 84.4 57.3, 84.4 58.9 Q 84.4 60.4, 83.6 61.3 Q 82.9 62.1, 81.5 62.1 Q 80.1 62.1, 79.3 61.3 Q 78.5 60.4, 78.5 58.9 M 81.5 61.4 Q 82.4 61.4, 83.0 60.8 Q 83.5 60.1, 83.5 58.9 Q 83.5 57.6, 83.0 57.0 Q 82.4 56.3, 81.5 56.3 Q 80.5 56.3, 80.0 57.0 Q 79.4 57.6, 79.4 58.9 Q 79.4 60.1, 80.0 60.8 Q 80.5 61.4, 81.5 61.4 " fill="#FF0000"/>
<path class="atom-46" d="M 91.2 22.1 Q 91.2 20.6, 91.9 19.8 Q 92.7 18.9, 94.1 18.9 Q 95.5 18.9, 96.3 19.8 Q 97.0 20.6, 97.0 22.1 Q 97.0 23.7, 96.3 24.6 Q 95.5 25.4, 94.1 25.4 Q 92.7 25.4, 91.9 24.6 Q 91.2 23.7, 91.2 22.1 M 94.1 24.7 Q 95.1 24.7, 95.6 24.1 Q 96.1 23.4, 96.1 22.1 Q 96.1 20.9, 95.6 20.3 Q 95.1 19.6, 94.1 19.6 Q 93.1 19.6, 92.6 20.3 Q 92.1 20.9, 92.1 22.1 Q 92.1 23.4, 92.6 24.1 Q 93.1 24.7, 94.1 24.7 " fill="#FF0000"/>
<path class="atom-46" d="M 98.0 19.0 L 98.9 19.0 L 98.9 21.7 L 102.1 21.7 L 102.1 19.0 L 103.0 19.0 L 103.0 25.3 L 102.1 25.3 L 102.1 22.4 L 98.9 22.4 L 98.9 25.3 L 98.0 25.3 L 98.0 19.0 " fill="#FF0000"/>
<path class="atom-48" d="M 151.0 158.1 Q 151.0 156.6, 151.8 155.7 Q 152.6 154.9, 154.0 154.9 Q 155.4 154.9, 156.1 155.7 Q 156.9 156.6, 156.9 158.1 Q 156.9 159.7, 156.1 160.5 Q 155.3 161.4, 154.0 161.4 Q 152.6 161.4, 151.8 160.5 Q 151.0 159.7, 151.0 158.1 M 154.0 160.7 Q 154.9 160.7, 155.4 160.0 Q 156.0 159.4, 156.0 158.1 Q 156.0 156.9, 155.4 156.2 Q 154.9 155.6, 154.0 155.6 Q 153.0 155.6, 152.5 156.2 Q 151.9 156.9, 151.9 158.1 Q 151.9 159.4, 152.5 160.0 Q 153.0 160.7, 154.0 160.7 " fill="#FF0000"/>
<path class="atom-49" d="M 140.0 125.3 L 140.9 125.3 L 140.9 128.0 L 144.1 128.0 L 144.1 125.3 L 145.0 125.3 L 145.0 131.7 L 144.1 131.7 L 144.1 128.7 L 140.9 128.7 L 140.9 131.7 L 140.0 131.7 L 140.0 125.3 " fill="#FF0000"/>
<path class="atom-49" d="M 146.3 128.5 Q 146.3 127.0, 147.0 126.1 Q 147.8 125.3, 149.2 125.3 Q 150.6 125.3, 151.4 126.1 Q 152.1 127.0, 152.1 128.5 Q 152.1 130.0, 151.4 130.9 Q 150.6 131.8, 149.2 131.8 Q 147.8 131.8, 147.0 130.9 Q 146.3 130.0, 146.3 128.5 M 149.2 131.1 Q 150.2 131.1, 150.7 130.4 Q 151.2 129.8, 151.2 128.5 Q 151.2 127.2, 150.7 126.6 Q 150.2 126.0, 149.2 126.0 Q 148.2 126.0, 147.7 126.6 Q 147.2 127.2, 147.2 128.5 Q 147.2 129.8, 147.7 130.4 Q 148.2 131.1, 149.2 131.1 " fill="#FF0000"/>
</svg>
