<?xml version='1.0' encoding='ASCII' standalone='yes'?>
<svg xmlns="http://www.w3.org/2000/svg" xmlns:rdkit="http://www.rdkit.org/xml" xmlns:xlink="http://www.w3.org/1999/xlink" version="1.1" baseProfile="full" xml:space="preserve" width="247px" height="200px" viewBox="0 0 247 200">
<!-- END OF HEADER -->
<rect style="opacity:1.0;fill:#FFFFFF;stroke:none" width="247.0" height="200.0" x="0.0" y="0.0"> </rect>
<path class="bond-0 atom-0 atom-1" d="M 227.0,103.1 L 214.9,96.4" style="fill:none;fill-rule:evenodd;stroke:#FF0000;stroke-width:2.0px;stroke-linecap:butt;stroke-linejoin:miter;stroke-opacity:1"/>
<path class="bond-0 atom-0 atom-1" d="M 214.9,96.4 L 202.7,89.6" style="fill:none;fill-rule:evenodd;stroke:#000000;stroke-width:2.0px;stroke-linecap:butt;stroke-linejoin:miter;stroke-opacity:1"/>
<path class="bond-0 atom-0 atom-1" d="M 224.5,107.6 L 212.4,100.9" style="fill:none;fill-rule:evenodd;stroke:#FF0000;stroke-width:2.0px;stroke-linecap:butt;stroke-linejoin:miter;stroke-opacity:1"/>
<path class="bond-0 atom-0 atom-1" d="M 212.4,100.9 L 202.8,95.5" style="fill:none;fill-rule:evenodd;stroke:#000000;stroke-width:2.0px;stroke-linecap:butt;stroke-linejoin:miter;stroke-opacity:1"/>
<path class="bond-1 atom-1 atom-2" d="M 202.7,89.6 L 173.4,107.2" style="fill:none;fill-rule:evenodd;stroke:#000000;stroke-width:2.0px;stroke-linecap:butt;stroke-linejoin:miter;stroke-opacity:1"/>
<path class="bond-2 atom-2 atom-3" d="M 173.4,107.2 L 173.7,121.3" style="fill:none;fill-rule:evenodd;stroke:#000000;stroke-width:2.0px;stroke-linecap:butt;stroke-linejoin:miter;stroke-opacity:1"/>
<path class="bond-2 atom-2 atom-3" d="M 173.7,121.3 L 173.9,135.3" style="fill:none;fill-rule:evenodd;stroke:#FF0000;stroke-width:2.0px;stroke-linecap:butt;stroke-linejoin:miter;stroke-opacity:1"/>
<path class="bond-3 atom-2 atom-4" d="M 173.4,107.2 L 143.5,90.6" style="fill:none;fill-rule:evenodd;stroke:#000000;stroke-width:2.0px;stroke-linecap:butt;stroke-linejoin:miter;stroke-opacity:1"/>
<path class="bond-4 atom-4 atom-5" d="M 143.5,90.6 L 143.3,76.6" style="fill:none;fill-rule:evenodd;stroke:#000000;stroke-width:2.0px;stroke-linecap:butt;stroke-linejoin:miter;stroke-opacity:1"/>
<path class="bond-4 atom-4 atom-5" d="M 143.3,76.6 L 143.1,62.6" style="fill:none;fill-rule:evenodd;stroke:#FF0000;stroke-width:2.0px;stroke-linecap:butt;stroke-linejoin:miter;stroke-opacity:1"/>
<path class="bond-5 atom-4 atom-6" d="M 143.5,90.6 L 114.3,108.2" style="fill:none;fill-rule:evenodd;stroke:#000000;stroke-width:2.0px;stroke-linecap:butt;stroke-linejoin:miter;stroke-opacity:1"/>
<path class="bond-6 atom-6 atom-7" d="M 114.3,108.2 L 114.5,122.3" style="fill:none;fill-rule:evenodd;stroke:#000000;stroke-width:2.0px;stroke-linecap:butt;stroke-linejoin:miter;stroke-opacity:1"/>
<path class="bond-6 atom-6 atom-7" d="M 114.5,122.3 L 114.7,136.4" style="fill:none;fill-rule:evenodd;stroke:#FF0000;stroke-width:2.0px;stroke-linecap:butt;stroke-linejoin:miter;stroke-opacity:1"/>
<path class="bond-7 atom-6 atom-8" d="M 114.3,108.2 L 84.4,91.6" style="fill:none;fill-rule:evenodd;stroke:#000000;stroke-width:2.0px;stroke-linecap:butt;stroke-linejoin:miter;stroke-opacity:1"/>
<path class="bond-8 atom-8 atom-9" d="M 84.4,91.6 L 84.1,77.6" style="fill:none;fill-rule:evenodd;stroke:#000000;stroke-width:2.0px;stroke-linecap:butt;stroke-linejoin:miter;stroke-opacity:1"/>
<path class="bond-8 atom-8 atom-9" d="M 84.1,77.6 L 83.9,63.6" style="fill:none;fill-rule:evenodd;stroke:#FF0000;stroke-width:2.0px;stroke-linecap:butt;stroke-linejoin:miter;stroke-opacity:1"/>
<path class="bond-9 atom-8 atom-10" d="M 84.4,91.6 L 55.1,109.2" style="fill:none;fill-rule:evenodd;stroke:#000000;stroke-width:2.0px;stroke-linecap:butt;stroke-linejoin:miter;stroke-opacity:1"/>
<path class="bond-10 atom-10 atom-11" d="M 52.5,107.8 L 52.8,122.6" style="fill:none;fill-rule:evenodd;stroke:#000000;stroke-width:2.0px;stroke-linecap:butt;stroke-linejoin:miter;stroke-opacity:1"/>
<path class="bond-10 atom-10 atom-11" d="M 52.8,122.6 L 53.0,137.4" style="fill:none;fill-rule:evenodd;stroke:#FF0000;stroke-width:2.0px;stroke-linecap:butt;stroke-linejoin:miter;stroke-opacity:1"/>
<path class="bond-10 atom-10 atom-11" d="M 57.6,107.7 L 57.9,122.5" style="fill:none;fill-rule:evenodd;stroke:#000000;stroke-width:2.0px;stroke-linecap:butt;stroke-linejoin:miter;stroke-opacity:1"/>
<path class="bond-10 atom-10 atom-11" d="M 57.9,122.5 L 58.1,137.3" style="fill:none;fill-rule:evenodd;stroke:#FF0000;stroke-width:2.0px;stroke-linecap:butt;stroke-linejoin:miter;stroke-opacity:1"/>
<path class="bond-11 atom-10 atom-12" d="M 55.1,109.2 L 42.9,102.5" style="fill:none;fill-rule:evenodd;stroke:#000000;stroke-width:2.0px;stroke-linecap:butt;stroke-linejoin:miter;stroke-opacity:1"/>
<path class="bond-11 atom-10 atom-12" d="M 42.9,102.5 L 30.8,95.7" style="fill:none;fill-rule:evenodd;stroke:#FF0000;stroke-width:2.0px;stroke-linecap:butt;stroke-linejoin:miter;stroke-opacity:1"/>
<path d="M 203.3,90.0 L 202.7,89.6 L 201.2,90.5" style="fill:none;stroke:#000000;stroke-width:2.0px;stroke-linecap:butt;stroke-linejoin:miter;stroke-opacity:1;"/>
<path d="M 56.6,108.3 L 55.1,109.2 L 54.5,108.9" style="fill:none;stroke:#000000;stroke-width:2.0px;stroke-linecap:butt;stroke-linejoin:miter;stroke-opacity:1;"/>
<path class="atom-0" d="M 226.9 108.5 Q 226.9 106.1, 228.0 104.9 Q 229.2 103.6, 231.3 103.6 Q 233.5 103.6, 234.6 104.9 Q 235.8 106.1, 235.8 108.5 Q 235.8 110.8, 234.6 112.2 Q 233.4 113.5, 231.3 113.5 Q 229.2 113.5, 228.0 112.2 Q 226.9 110.8, 226.9 108.5 M 231.3 112.4 Q 232.8 112.4, 233.6 111.4 Q 234.4 110.4, 234.4 108.5 Q 234.4 106.6, 233.6 105.6 Q 232.8 104.6, 231.3 104.6 Q 229.9 104.6, 229.0 105.6 Q 228.3 106.6, 228.3 108.5 Q 228.3 110.4, 229.0 111.4 Q 229.9 112.4, 231.3 112.4 " fill="#FF0000"/>
<path class="atom-3" d="M 169.6 141.4 Q 169.6 139.1, 170.7 137.8 Q 171.8 136.5, 174.0 136.5 Q 176.1 136.5, 177.3 137.8 Q 178.4 139.1, 178.4 141.4 Q 178.4 143.7, 177.3 145.1 Q 176.1 146.4, 174.0 146.4 Q 171.9 146.4, 170.7 145.1 Q 169.6 143.8, 169.6 141.4 M 174.0 145.3 Q 175.5 145.3, 176.3 144.3 Q 177.1 143.3, 177.1 141.4 Q 177.1 139.5, 176.3 138.5 Q 175.5 137.6, 174.0 137.6 Q 172.5 137.6, 171.7 138.5 Q 170.9 139.5, 170.9 141.4 Q 170.9 143.3, 171.7 144.3 Q 172.5 145.3, 174.0 145.3 " fill="#FF0000"/>
<path class="atom-3" d="M 179.9 136.6 L 181.3 136.6 L 181.3 140.7 L 186.2 140.7 L 186.2 136.6 L 187.5 136.6 L 187.5 146.3 L 186.2 146.3 L 186.2 141.8 L 181.3 141.8 L 181.3 146.3 L 179.9 146.3 L 179.9 136.6 " fill="#FF0000"/>
<path class="atom-5" d="M 138.5 56.5 Q 138.5 54.2, 139.7 52.9 Q 140.8 51.6, 143.0 51.6 Q 145.1 51.6, 146.3 52.9 Q 147.4 54.2, 147.4 56.5 Q 147.4 58.9, 146.2 60.2 Q 145.1 61.5, 143.0 61.5 Q 140.8 61.5, 139.7 60.2 Q 138.5 58.9, 138.5 56.5 M 143.0 60.4 Q 144.4 60.4, 145.2 59.4 Q 146.0 58.4, 146.0 56.5 Q 146.0 54.6, 145.2 53.6 Q 144.4 52.7, 143.0 52.7 Q 141.5 52.7, 140.7 53.6 Q 139.9 54.6, 139.9 56.5 Q 139.9 58.5, 140.7 59.4 Q 141.5 60.4, 143.0 60.4 " fill="#FF0000"/>
<path class="atom-5" d="M 148.9 51.7 L 150.2 51.7 L 150.2 55.8 L 155.2 55.8 L 155.2 51.7 L 156.5 51.7 L 156.5 61.4 L 155.2 61.4 L 155.2 56.9 L 150.2 56.9 L 150.2 61.4 L 148.9 61.4 L 148.9 51.7 " fill="#FF0000"/>
<path class="atom-7" d="M 110.4 142.4 Q 110.4 140.1, 111.5 138.8 Q 112.7 137.5, 114.8 137.5 Q 117.0 137.5, 118.1 138.8 Q 119.3 140.1, 119.3 142.4 Q 119.3 144.7, 118.1 146.1 Q 117.0 147.4, 114.8 147.4 Q 112.7 147.4, 111.5 146.1 Q 110.4 144.8, 110.4 142.4 M 114.8 146.3 Q 116.3 146.3, 117.1 145.3 Q 117.9 144.3, 117.9 142.4 Q 117.9 140.5, 117.1 139.5 Q 116.3 138.6, 114.8 138.6 Q 113.4 138.6, 112.6 139.5 Q 111.8 140.5, 111.8 142.4 Q 111.8 144.4, 112.6 145.3 Q 113.4 146.3, 114.8 146.3 " fill="#FF0000"/>
<path class="atom-7" d="M 120.8 137.6 L 122.1 137.6 L 122.1 141.7 L 127.0 141.7 L 127.0 137.6 L 128.4 137.6 L 128.4 147.3 L 127.0 147.3 L 127.0 142.8 L 122.1 142.8 L 122.1 147.3 L 120.8 147.3 L 120.8 137.6 " fill="#FF0000"/>
<path class="atom-9" d="M 79.4 57.5 Q 79.4 55.2, 80.5 53.9 Q 81.7 52.6, 83.8 52.6 Q 85.9 52.6, 87.1 53.9 Q 88.2 55.2, 88.2 57.5 Q 88.2 59.9, 87.1 61.2 Q 85.9 62.5, 83.8 62.5 Q 81.7 62.5, 80.5 61.2 Q 79.4 59.9, 79.4 57.5 M 83.8 61.4 Q 85.3 61.4, 86.1 60.4 Q 86.9 59.4, 86.9 57.5 Q 86.9 55.6, 86.1 54.7 Q 85.3 53.7, 83.8 53.7 Q 82.3 53.7, 81.5 54.6 Q 80.7 55.6, 80.7 57.5 Q 80.7 59.5, 81.5 60.4 Q 82.3 61.4, 83.8 61.4 " fill="#FF0000"/>
<path class="atom-9" d="M 89.8 52.7 L 91.1 52.7 L 91.1 56.8 L 96.0 56.8 L 96.0 52.7 L 97.3 52.7 L 97.3 62.4 L 96.0 62.4 L 96.0 57.9 L 91.1 57.9 L 91.1 62.4 L 89.8 62.4 L 89.8 52.7 " fill="#FF0000"/>
<path class="atom-11" d="M 51.2 143.4 Q 51.2 141.1, 52.4 139.8 Q 53.5 138.5, 55.7 138.5 Q 57.8 138.5, 59.0 139.8 Q 60.1 141.1, 60.1 143.4 Q 60.1 145.8, 59.0 147.1 Q 57.8 148.4, 55.7 148.4 Q 53.5 148.4, 52.4 147.1 Q 51.2 145.8, 51.2 143.4 M 55.7 147.3 Q 57.1 147.3, 57.9 146.3 Q 58.7 145.3, 58.7 143.4 Q 58.7 141.5, 57.9 140.5 Q 57.1 139.6, 55.7 139.6 Q 54.2 139.6, 53.4 140.5 Q 52.6 141.5, 52.6 143.4 Q 52.6 145.4, 53.4 146.3 Q 54.2 147.3, 55.7 147.3 " fill="#FF0000"/>
<path class="atom-12" d="M 11.2 87.9 L 12.5 87.9 L 12.5 92.0 L 17.5 92.0 L 17.5 87.9 L 18.8 87.9 L 18.8 97.5 L 17.5 97.5 L 17.5 93.1 L 12.5 93.1 L 12.5 97.5 L 11.2 97.5 L 11.2 87.9 " fill="#FF0000"/>
<path class="atom-12" d="M 20.8 92.7 Q 20.8 90.3, 21.9 89.0 Q 23.1 87.7, 25.2 87.7 Q 27.4 87.7, 28.5 89.0 Q 29.7 90.3, 29.7 92.7 Q 29.7 95.0, 28.5 96.4 Q 27.3 97.7, 25.2 97.7 Q 23.1 97.7, 21.9 96.4 Q 20.8 95.0, 20.8 92.7 M 25.2 96.6 Q 26.7 96.6, 27.5 95.6 Q 28.3 94.6, 28.3 92.7 Q 28.3 90.8, 27.5 89.8 Q 26.7 88.8, 25.2 88.8 Q 23.7 88.8, 22.9 89.8 Q 22.1 90.8, 22.1 92.7 Q 22.1 94.6, 22.9 95.6 Q 23.7 96.6, 25.2 96.6 " fill="#FF0000"/>
</svg>
