<?xml version='1.0' encoding='ASCII' standalone='yes'?>
<svg xmlns="http://www.w3.org/2000/svg" xmlns:rdkit="http://www.rdkit.org/xml" xmlns:xlink="http://www.w3.org/1999/xlink" version="1.1" baseProfile="full" xml:space="preserve" width="328px" height="200px" viewBox="0 0 328 200">
<!-- END OF HEADER -->
<rect style="opacity:1.0;fill:#FFFFFF;stroke:none" width="328.0" height="200.0" x="0.0" y="0.0"> </rect>
<path class="bond-0 atom-0 atom-1" d="M 311.4,74.8 L 278.6,69.1" style="fill:none;fill-rule:evenodd;stroke:#000000;stroke-width:2.0px;stroke-linecap:butt;stroke-linejoin:miter;stroke-opacity:1"/>
<path class="bond-1 atom-1 atom-2" d="M 278.6,69.1 L 273.9,56.5" style="fill:none;fill-rule:evenodd;stroke:#000000;stroke-width:2.0px;stroke-linecap:butt;stroke-linejoin:miter;stroke-opacity:1"/>
<path class="bond-1 atom-1 atom-2" d="M 273.9,56.5 L 269.3,43.8" style="fill:none;fill-rule:evenodd;stroke:#FF0000;stroke-width:2.0px;stroke-linecap:butt;stroke-linejoin:miter;stroke-opacity:1"/>
<path class="bond-2 atom-1 atom-3" d="M 278.6,69.1 L 257.3,94.7" style="fill:none;fill-rule:evenodd;stroke:#000000;stroke-width:2.0px;stroke-linecap:butt;stroke-linejoin:miter;stroke-opacity:1"/>
<path class="bond-3 atom-3 atom-4" d="M 257.3,94.7 L 282.9,116.0" style="fill:none;fill-rule:evenodd;stroke:#000000;stroke-width:2.0px;stroke-linecap:butt;stroke-linejoin:miter;stroke-opacity:1"/>
<path class="bond-4 atom-3 atom-5" d="M 257.3,94.7 L 231.7,73.4" style="fill:none;fill-rule:evenodd;stroke:#000000;stroke-width:2.0px;stroke-linecap:butt;stroke-linejoin:miter;stroke-opacity:1"/>
<path class="bond-5 atom-5 atom-6" d="M 231.7,73.4 L 200.5,84.9" style="fill:none;fill-rule:evenodd;stroke:#000000;stroke-width:2.0px;stroke-linecap:butt;stroke-linejoin:miter;stroke-opacity:1"/>
<path class="bond-6 atom-6 atom-7" d="M 200.5,84.9 L 212.0,116.1" style="fill:none;fill-rule:evenodd;stroke:#000000;stroke-width:2.0px;stroke-linecap:butt;stroke-linejoin:miter;stroke-opacity:1"/>
<path class="bond-7 atom-7 atom-8" d="M 212.0,116.1 L 203.7,126.0" style="fill:none;fill-rule:evenodd;stroke:#000000;stroke-width:2.0px;stroke-linecap:butt;stroke-linejoin:miter;stroke-opacity:1"/>
<path class="bond-7 atom-7 atom-8" d="M 203.7,126.0 L 195.5,135.9" style="fill:none;fill-rule:evenodd;stroke:#FF0000;stroke-width:2.0px;stroke-linecap:butt;stroke-linejoin:miter;stroke-opacity:1"/>
<path class="bond-8 atom-6 atom-9" d="M 200.5,84.9 L 169.2,96.4" style="fill:none;fill-rule:evenodd;stroke:#000000;stroke-width:2.0px;stroke-linecap:butt;stroke-linejoin:miter;stroke-opacity:1"/>
<path class="bond-9 atom-9 atom-10" d="M 169.2,96.4 L 143.7,75.1" style="fill:none;fill-rule:evenodd;stroke:#000000;stroke-width:2.0px;stroke-linecap:butt;stroke-linejoin:miter;stroke-opacity:1"/>
<path class="bond-10 atom-10 atom-11" d="M 143.7,75.1 L 154.3,58.5" style="fill:none;fill-rule:evenodd;stroke:#000000;stroke-width:2.0px;stroke-linecap:butt;stroke-linejoin:miter;stroke-opacity:1"/>
<path class="bond-11 atom-10 atom-12" d="M 143.7,75.1 L 122.4,100.6" style="fill:none;fill-rule:evenodd;stroke:#000000;stroke-width:2.0px;stroke-linecap:butt;stroke-linejoin:miter;stroke-opacity:1"/>
<path class="bond-12 atom-10 atom-13" d="M 143.7,75.1 L 118.1,53.8" style="fill:none;fill-rule:evenodd;stroke:#000000;stroke-width:2.0px;stroke-linecap:butt;stroke-linejoin:miter;stroke-opacity:1"/>
<path class="bond-13 atom-13 atom-14" d="M 118.1,53.8 L 120.4,40.3" style="fill:none;fill-rule:evenodd;stroke:#000000;stroke-width:2.0px;stroke-linecap:butt;stroke-linejoin:miter;stroke-opacity:1"/>
<path class="bond-13 atom-13 atom-14" d="M 120.4,40.3 L 122.7,26.9" style="fill:none;fill-rule:evenodd;stroke:#FF0000;stroke-width:2.0px;stroke-linecap:butt;stroke-linejoin:miter;stroke-opacity:1"/>
<path class="bond-14 atom-13 atom-15" d="M 118.1,53.8 L 86.9,65.3" style="fill:none;fill-rule:evenodd;stroke:#000000;stroke-width:2.0px;stroke-linecap:butt;stroke-linejoin:miter;stroke-opacity:1"/>
<path class="bond-15 atom-15 atom-16" d="M 86.9,65.3 L 75.4,34.0" style="fill:none;fill-rule:evenodd;stroke:#000000;stroke-width:2.0px;stroke-linecap:butt;stroke-linejoin:miter;stroke-opacity:1"/>
<path class="bond-16 atom-16 atom-17" d="M 75.4,34.0 L 61.6,31.7" style="fill:none;fill-rule:evenodd;stroke:#000000;stroke-width:2.0px;stroke-linecap:butt;stroke-linejoin:miter;stroke-opacity:1"/>
<path class="bond-16 atom-16 atom-17" d="M 61.6,31.7 L 47.9,29.3" style="fill:none;fill-rule:evenodd;stroke:#FF0000;stroke-width:2.0px;stroke-linecap:butt;stroke-linejoin:miter;stroke-opacity:1"/>
<path class="bond-17 atom-15 atom-18" d="M 86.9,65.3 L 98.3,96.5" style="fill:none;fill-rule:evenodd;stroke:#000000;stroke-width:2.0px;stroke-linecap:butt;stroke-linejoin:miter;stroke-opacity:1"/>
<path class="bond-18 atom-18 atom-19" d="M 98.3,96.5 L 77.0,122.1" style="fill:none;fill-rule:evenodd;stroke:#000000;stroke-width:2.0px;stroke-linecap:butt;stroke-linejoin:miter;stroke-opacity:1"/>
<path class="bond-19 atom-19 atom-20" d="M 77.0,122.1 L 102.6,143.4" style="fill:none;fill-rule:evenodd;stroke:#000000;stroke-width:2.0px;stroke-linecap:butt;stroke-linejoin:miter;stroke-opacity:1"/>
<path class="bond-20 atom-19 atom-21" d="M 77.0,122.1 L 60.5,111.4" style="fill:none;fill-rule:evenodd;stroke:#000000;stroke-width:2.0px;stroke-linecap:butt;stroke-linejoin:miter;stroke-opacity:1"/>
<path class="bond-21 atom-19 atom-22" d="M 77.0,122.1 L 55.7,147.6" style="fill:none;fill-rule:evenodd;stroke:#000000;stroke-width:2.0px;stroke-linecap:butt;stroke-linejoin:miter;stroke-opacity:1"/>
<path class="bond-22 atom-22 atom-23" d="M 55.7,147.6 L 60.4,160.4" style="fill:none;fill-rule:evenodd;stroke:#000000;stroke-width:2.0px;stroke-linecap:butt;stroke-linejoin:miter;stroke-opacity:1"/>
<path class="bond-22 atom-22 atom-23" d="M 60.4,160.4 L 65.1,173.1" style="fill:none;fill-rule:evenodd;stroke:#FF0000;stroke-width:2.0px;stroke-linecap:butt;stroke-linejoin:miter;stroke-opacity:1"/>
<path class="bond-23 atom-15 atom-24" d="M 86.9,65.3 L 55.6,76.8" style="fill:none;fill-rule:evenodd;stroke:#000000;stroke-width:2.0px;stroke-linecap:butt;stroke-linejoin:miter;stroke-opacity:1"/>
<path class="bond-24 atom-24 atom-25" d="M 53.7,75.1 L 51.6,82.1" style="fill:none;fill-rule:evenodd;stroke:#000000;stroke-width:2.0px;stroke-linecap:butt;stroke-linejoin:miter;stroke-opacity:1"/>
<path class="bond-24 atom-24 atom-25" d="M 51.6,82.1 L 49.4,89.1" style="fill:none;fill-rule:evenodd;stroke:#FF0000;stroke-width:2.0px;stroke-linecap:butt;stroke-linejoin:miter;stroke-opacity:1"/>
<path class="bond-24 atom-24 atom-25" d="M 58.4,75.7 L 56.0,83.5" style="fill:none;fill-rule:evenodd;stroke:#000000;stroke-width:2.0px;stroke-linecap:butt;stroke-linejoin:miter;stroke-opacity:1"/>
<path class="bond-24 atom-24 atom-25" d="M 56.0,83.5 L 53.9,90.5" style="fill:none;fill-rule:evenodd;stroke:#FF0000;stroke-width:2.0px;stroke-linecap:butt;stroke-linejoin:miter;stroke-opacity:1"/>
<path class="bond-25 atom-24 atom-26" d="M 55.6,76.8 L 45.5,68.3" style="fill:none;fill-rule:evenodd;stroke:#000000;stroke-width:2.0px;stroke-linecap:butt;stroke-linejoin:miter;stroke-opacity:1"/>
<path class="bond-25 atom-24 atom-26" d="M 45.5,68.3 L 35.4,59.9" style="fill:none;fill-rule:evenodd;stroke:#FF0000;stroke-width:2.0px;stroke-linecap:butt;stroke-linejoin:miter;stroke-opacity:1"/>
<path class="bond-26 atom-6 atom-27" d="M 200.5,84.9 L 189.0,53.6" style="fill:none;fill-rule:evenodd;stroke:#000000;stroke-width:2.0px;stroke-linecap:butt;stroke-linejoin:miter;stroke-opacity:1"/>
<path class="bond-27 atom-27 atom-28" d="M 189.9,56.2 L 198.5,45.8" style="fill:none;fill-rule:evenodd;stroke:#000000;stroke-width:2.0px;stroke-linecap:butt;stroke-linejoin:miter;stroke-opacity:1"/>
<path class="bond-27 atom-27 atom-28" d="M 198.5,45.8 L 207.1,35.5" style="fill:none;fill-rule:evenodd;stroke:#FF0000;stroke-width:2.0px;stroke-linecap:butt;stroke-linejoin:miter;stroke-opacity:1"/>
<path class="bond-27 atom-27 atom-28" d="M 186.6,52.9 L 194.9,42.9" style="fill:none;fill-rule:evenodd;stroke:#000000;stroke-width:2.0px;stroke-linecap:butt;stroke-linejoin:miter;stroke-opacity:1"/>
<path class="bond-27 atom-27 atom-28" d="M 194.9,42.9 L 203.5,32.5" style="fill:none;fill-rule:evenodd;stroke:#FF0000;stroke-width:2.0px;stroke-linecap:butt;stroke-linejoin:miter;stroke-opacity:1"/>
<path class="bond-28 atom-27 atom-29" d="M 189.0,53.6 L 182.3,51.6" style="fill:none;fill-rule:evenodd;stroke:#000000;stroke-width:2.0px;stroke-linecap:butt;stroke-linejoin:miter;stroke-opacity:1"/>
<path class="bond-28 atom-27 atom-29" d="M 182.3,51.6 L 175.5,49.6" style="fill:none;fill-rule:evenodd;stroke:#FF0000;stroke-width:2.0px;stroke-linecap:butt;stroke-linejoin:miter;stroke-opacity:1"/>
<path class="bond-29 atom-3 atom-30" d="M 257.3,94.7 L 236.0,120.3" style="fill:none;fill-rule:evenodd;stroke:#000000;stroke-width:2.0px;stroke-linecap:butt;stroke-linejoin:miter;stroke-opacity:1"/>
<path class="bond-30 atom-30 atom-31" d="M 238.1,117.8 L 229.8,118.4" style="fill:none;fill-rule:evenodd;stroke:#000000;stroke-width:2.0px;stroke-linecap:butt;stroke-linejoin:miter;stroke-opacity:1"/>
<path class="bond-30 atom-30 atom-31" d="M 229.8,118.4 L 221.6,119.0" style="fill:none;fill-rule:evenodd;stroke:#FF0000;stroke-width:2.0px;stroke-linecap:butt;stroke-linejoin:miter;stroke-opacity:1"/>
<path class="bond-30 atom-30 atom-31" d="M 236.8,122.6 L 230.2,123.0" style="fill:none;fill-rule:evenodd;stroke:#000000;stroke-width:2.0px;stroke-linecap:butt;stroke-linejoin:miter;stroke-opacity:1"/>
<path class="bond-30 atom-30 atom-31" d="M 230.2,123.0 L 221.9,123.6" style="fill:none;fill-rule:evenodd;stroke:#FF0000;stroke-width:2.0px;stroke-linecap:butt;stroke-linejoin:miter;stroke-opacity:1"/>
<path class="bond-31 atom-30 atom-32" d="M 236.0,120.3 L 240.7,133.0" style="fill:none;fill-rule:evenodd;stroke:#000000;stroke-width:2.0px;stroke-linecap:butt;stroke-linejoin:miter;stroke-opacity:1"/>
<path class="bond-31 atom-30 atom-32" d="M 240.7,133.0 L 245.3,145.7" style="fill:none;fill-rule:evenodd;stroke:#FF0000;stroke-width:2.0px;stroke-linecap:butt;stroke-linejoin:miter;stroke-opacity:1"/>
<path d="M 233.0,74.5 L 231.7,73.4 L 230.2,74.0" style="fill:none;stroke:#000000;stroke-width:2.0px;stroke-linecap:butt;stroke-linejoin:miter;stroke-opacity:1;"/>
<path d="M 211.4,114.6 L 212.0,116.1 L 211.6,116.6" style="fill:none;stroke:#000000;stroke-width:2.0px;stroke-linecap:butt;stroke-linejoin:miter;stroke-opacity:1;"/>
<path d="M 170.8,95.8 L 169.2,96.4 L 168.0,95.3" style="fill:none;stroke:#000000;stroke-width:2.0px;stroke-linecap:butt;stroke-linejoin:miter;stroke-opacity:1;"/>
<path d="M 75.9,35.6 L 75.4,34.0 L 74.7,33.9" style="fill:none;stroke:#000000;stroke-width:2.0px;stroke-linecap:butt;stroke-linejoin:miter;stroke-opacity:1;"/>
<path d="M 97.8,94.9 L 98.3,96.5 L 97.3,97.8" style="fill:none;stroke:#000000;stroke-width:2.0px;stroke-linecap:butt;stroke-linejoin:miter;stroke-opacity:1;"/>
<path d="M 56.8,146.4 L 55.7,147.6 L 56.0,148.3" style="fill:none;stroke:#000000;stroke-width:2.0px;stroke-linecap:butt;stroke-linejoin:miter;stroke-opacity:1;"/>
<path d="M 57.2,76.2 L 55.6,76.8 L 55.1,76.3" style="fill:none;stroke:#000000;stroke-width:2.0px;stroke-linecap:butt;stroke-linejoin:miter;stroke-opacity:1;"/>
<path d="M 189.6,55.2 L 189.0,53.6 L 188.6,53.5" style="fill:none;stroke:#000000;stroke-width:2.0px;stroke-linecap:butt;stroke-linejoin:miter;stroke-opacity:1;"/>
<path d="M 237.1,119.0 L 236.0,120.3 L 236.2,120.9" style="fill:none;stroke:#000000;stroke-width:2.0px;stroke-linecap:butt;stroke-linejoin:miter;stroke-opacity:1;"/>
<path class="atom-2" d="M 253.5 33.2 L 254.7 33.2 L 254.7 37.2 L 259.6 37.2 L 259.6 33.2 L 260.8 33.2 L 260.8 42.6 L 259.6 42.6 L 259.6 38.3 L 254.7 38.3 L 254.7 42.6 L 253.5 42.6 L 253.5 33.2 " fill="#FF0000"/>
<path class="atom-2" d="M 262.8 37.9 Q 262.8 35.6, 263.9 34.4 Q 265.0 33.1, 267.1 33.1 Q 269.2 33.1, 270.3 34.4 Q 271.4 35.6, 271.4 37.9 Q 271.4 40.2, 270.3 41.5 Q 269.2 42.8, 267.1 42.8 Q 265.0 42.8, 263.9 41.5 Q 262.8 40.2, 262.8 37.9 M 267.1 41.7 Q 268.5 41.7, 269.3 40.8 Q 270.1 39.8, 270.1 37.9 Q 270.1 36.1, 269.3 35.1 Q 268.5 34.2, 267.1 34.2 Q 265.7 34.2, 264.9 35.1 Q 264.1 36.0, 264.1 37.9 Q 264.1 39.8, 264.9 40.8 Q 265.7 41.7, 267.1 41.7 " fill="#FF0000"/>
<path class="atom-8" d="M 177.0 137.0 L 178.3 137.0 L 178.3 141.0 L 183.1 141.0 L 183.1 137.0 L 184.4 137.0 L 184.4 146.5 L 183.1 146.5 L 183.1 142.1 L 178.3 142.1 L 178.3 146.5 L 177.0 146.5 L 177.0 137.0 " fill="#FF0000"/>
<path class="atom-8" d="M 186.3 141.7 Q 186.3 139.5, 187.5 138.2 Q 188.6 136.9, 190.7 136.9 Q 192.8 136.9, 193.9 138.2 Q 195.0 139.5, 195.0 141.7 Q 195.0 144.0, 193.9 145.3 Q 192.7 146.6, 190.7 146.6 Q 188.6 146.6, 187.5 145.3 Q 186.3 144.0, 186.3 141.7 M 190.7 145.5 Q 192.1 145.5, 192.9 144.6 Q 193.7 143.6, 193.7 141.7 Q 193.7 139.9, 192.9 138.9 Q 192.1 138.0, 190.7 138.0 Q 189.2 138.0, 188.4 138.9 Q 187.7 139.9, 187.7 141.7 Q 187.7 143.6, 188.4 144.6 Q 189.2 145.5, 190.7 145.5 " fill="#FF0000"/>
<path class="atom-14" d="M 119.4 21.0 Q 119.4 18.7, 120.5 17.5 Q 121.7 16.2, 123.8 16.2 Q 125.8 16.2, 127.0 17.5 Q 128.1 18.7, 128.1 21.0 Q 128.1 23.3, 126.9 24.6 Q 125.8 25.9, 123.8 25.9 Q 121.7 25.9, 120.5 24.6 Q 119.4 23.3, 119.4 21.0 M 123.8 24.8 Q 125.2 24.8, 126.0 23.9 Q 126.8 22.9, 126.8 21.0 Q 126.8 19.1, 126.0 18.2 Q 125.2 17.3, 123.8 17.3 Q 122.3 17.3, 121.5 18.2 Q 120.8 19.1, 120.8 21.0 Q 120.8 22.9, 121.5 23.9 Q 122.3 24.8, 123.8 24.8 " fill="#FF0000"/>
<path class="atom-14" d="M 129.5 16.3 L 130.8 16.3 L 130.8 20.3 L 135.6 20.3 L 135.6 16.3 L 136.9 16.3 L 136.9 25.7 L 135.6 25.7 L 135.6 21.4 L 130.8 21.4 L 130.8 25.7 L 129.5 25.7 L 129.5 16.3 " fill="#FF0000"/>
<path class="atom-17" d="M 28.9 23.7 L 30.2 23.7 L 30.2 27.7 L 35.0 27.7 L 35.0 23.7 L 36.3 23.7 L 36.3 33.1 L 35.0 33.1 L 35.0 28.8 L 30.2 28.8 L 30.2 33.1 L 28.9 33.1 L 28.9 23.7 " fill="#FF0000"/>
<path class="atom-17" d="M 38.2 28.4 Q 38.2 26.1, 39.3 24.9 Q 40.5 23.6, 42.6 23.6 Q 44.6 23.6, 45.8 24.9 Q 46.9 26.1, 46.9 28.4 Q 46.9 30.7, 45.7 32.0 Q 44.6 33.3, 42.6 33.3 Q 40.5 33.3, 39.3 32.0 Q 38.2 30.7, 38.2 28.4 M 42.6 32.2 Q 44.0 32.2, 44.8 31.2 Q 45.6 30.3, 45.6 28.4 Q 45.6 26.5, 44.8 25.6 Q 44.0 24.7, 42.6 24.7 Q 41.1 24.7, 40.3 25.6 Q 39.6 26.5, 39.6 28.4 Q 39.6 30.3, 40.3 31.2 Q 41.1 32.2, 42.6 32.2 " fill="#FF0000"/>
<path class="atom-23" d="M 62.9 178.9 Q 62.9 176.7, 64.0 175.4 Q 65.1 174.1, 67.2 174.1 Q 69.3 174.1, 70.4 175.4 Q 71.6 176.7, 71.6 178.9 Q 71.6 181.2, 70.4 182.5 Q 69.3 183.8, 67.2 183.8 Q 65.2 183.8, 64.0 182.5 Q 62.9 181.2, 62.9 178.9 M 67.2 182.7 Q 68.7 182.7, 69.4 181.8 Q 70.2 180.8, 70.2 178.9 Q 70.2 177.1, 69.4 176.1 Q 68.7 175.2, 67.2 175.2 Q 65.8 175.2, 65.0 176.1 Q 64.2 177.1, 64.2 178.9 Q 64.2 180.8, 65.0 181.8 Q 65.8 182.7, 67.2 182.7 " fill="#FF0000"/>
<path class="atom-23" d="M 73.0 174.2 L 74.3 174.2 L 74.3 178.2 L 79.1 178.2 L 79.1 174.2 L 80.4 174.2 L 80.4 183.7 L 79.1 183.7 L 79.1 179.3 L 74.3 179.3 L 74.3 183.7 L 73.0 183.7 L 73.0 174.2 " fill="#FF0000"/>
<path class="atom-25" d="M 45.6 95.6 Q 45.6 93.3, 46.7 92.1 Q 47.8 90.8, 49.9 90.8 Q 52.0 90.8, 53.1 92.1 Q 54.3 93.3, 54.3 95.6 Q 54.3 97.9, 53.1 99.2 Q 52.0 100.5, 49.9 100.5 Q 47.9 100.5, 46.7 99.2 Q 45.6 97.9, 45.6 95.6 M 49.9 99.4 Q 51.4 99.4, 52.1 98.5 Q 52.9 97.5, 52.9 95.6 Q 52.9 93.7, 52.1 92.8 Q 51.4 91.9, 49.9 91.9 Q 48.5 91.9, 47.7 92.8 Q 46.9 93.7, 46.9 95.6 Q 46.9 97.5, 47.7 98.5 Q 48.5 99.4, 49.9 99.4 " fill="#FF0000"/>
<path class="atom-26" d="M 16.4 50.8 L 17.7 50.8 L 17.7 54.8 L 22.5 54.8 L 22.5 50.8 L 23.8 50.8 L 23.8 60.2 L 22.5 60.2 L 22.5 55.9 L 17.7 55.9 L 17.7 60.2 L 16.4 60.2 L 16.4 50.8 " fill="#FF0000"/>
<path class="atom-26" d="M 25.7 55.5 Q 25.7 53.2, 26.8 51.9 Q 27.9 50.7, 30.0 50.7 Q 32.1 50.7, 33.2 51.9 Q 34.4 53.2, 34.4 55.5 Q 34.4 57.8, 33.2 59.1 Q 32.1 60.4, 30.0 60.4 Q 28.0 60.4, 26.8 59.1 Q 25.7 57.8, 25.7 55.5 M 30.0 59.3 Q 31.5 59.3, 32.2 58.3 Q 33.0 57.4, 33.0 55.5 Q 33.0 53.6, 32.2 52.7 Q 31.5 51.7, 30.0 51.7 Q 28.6 51.7, 27.8 52.7 Q 27.0 53.6, 27.0 55.5 Q 27.0 57.4, 27.8 58.3 Q 28.6 59.3, 30.0 59.3 " fill="#FF0000"/>
<path class="atom-28" d="M 206.0 28.1 Q 206.0 25.8, 207.1 24.6 Q 208.2 23.3, 210.3 23.3 Q 212.4 23.3, 213.5 24.6 Q 214.6 25.8, 214.6 28.1 Q 214.6 30.4, 213.5 31.7 Q 212.4 33.0, 210.3 33.0 Q 208.2 33.0, 207.1 31.7 Q 206.0 30.4, 206.0 28.1 M 210.3 31.9 Q 211.7 31.9, 212.5 31.0 Q 213.3 30.0, 213.3 28.1 Q 213.3 26.2, 212.5 25.3 Q 211.7 24.4, 210.3 24.4 Q 208.9 24.4, 208.1 25.3 Q 207.3 26.2, 207.3 28.1 Q 207.3 30.0, 208.1 31.0 Q 208.9 31.9, 210.3 31.9 " fill="#FF0000"/>
<path class="atom-29" d="M 156.5 43.3 L 157.8 43.3 L 157.8 47.3 L 162.6 47.3 L 162.6 43.3 L 163.9 43.3 L 163.9 52.7 L 162.6 52.7 L 162.6 48.4 L 157.8 48.4 L 157.8 52.7 L 156.5 52.7 L 156.5 43.3 " fill="#FF0000"/>
<path class="atom-29" d="M 165.8 48.0 Q 165.8 45.7, 167.0 44.5 Q 168.1 43.2, 170.2 43.2 Q 172.3 43.2, 173.4 44.5 Q 174.5 45.7, 174.5 48.0 Q 174.5 50.3, 173.4 51.6 Q 172.2 52.9, 170.2 52.9 Q 168.1 52.9, 167.0 51.6 Q 165.8 50.3, 165.8 48.0 M 170.2 51.8 Q 171.6 51.8, 172.4 50.9 Q 173.2 49.9, 173.2 48.0 Q 173.2 46.1, 172.4 45.2 Q 171.6 44.3, 170.2 44.3 Q 168.7 44.3, 167.9 45.2 Q 167.2 46.1, 167.2 48.0 Q 167.2 49.9, 167.9 50.9 Q 168.7 51.8, 170.2 51.8 " fill="#FF0000"/>
<path class="atom-31" d="M 212.1 121.7 Q 212.1 119.5, 213.2 118.2 Q 214.3 116.9, 216.4 116.9 Q 218.5 116.9, 219.6 118.2 Q 220.7 119.5, 220.7 121.7 Q 220.7 124.0, 219.6 125.3 Q 218.4 126.6, 216.4 126.6 Q 214.3 126.6, 213.2 125.3 Q 212.1 124.0, 212.1 121.7 M 216.4 125.6 Q 217.8 125.6, 218.6 124.6 Q 219.4 123.6, 219.4 121.7 Q 219.4 119.9, 218.6 119.0 Q 217.8 118.0, 216.4 118.0 Q 214.9 118.0, 214.2 118.9 Q 213.4 119.9, 213.4 121.7 Q 213.4 123.6, 214.2 124.6 Q 214.9 125.6, 216.4 125.6 " fill="#FF0000"/>
<path class="atom-32" d="M 243.2 151.5 Q 243.2 149.3, 244.3 148.0 Q 245.4 146.7, 247.5 146.7 Q 249.6 146.7, 250.7 148.0 Q 251.8 149.3, 251.8 151.5 Q 251.8 153.8, 250.7 155.1 Q 249.5 156.4, 247.5 156.4 Q 245.4 156.4, 244.3 155.1 Q 243.2 153.8, 243.2 151.5 M 247.5 155.4 Q 248.9 155.4, 249.7 154.4 Q 250.5 153.4, 250.5 151.5 Q 250.5 149.7, 249.7 148.8 Q 248.9 147.8, 247.5 147.8 Q 246.0 147.8, 245.3 148.7 Q 244.5 149.7, 244.5 151.5 Q 244.5 153.4, 245.3 154.4 Q 246.0 155.4, 247.5 155.4 " fill="#FF0000"/>
<path class="atom-32" d="M 253.3 146.8 L 254.6 146.8 L 254.6 150.9 L 259.4 150.9 L 259.4 146.8 L 260.7 146.8 L 260.7 156.3 L 259.4 156.3 L 259.4 151.9 L 254.6 151.9 L 254.6 156.3 L 253.3 156.3 L 253.3 146.8 " fill="#FF0000"/>
</svg>
