<?xml version='1.0' encoding='ASCII' standalone='yes'?>
<svg xmlns="http://www.w3.org/2000/svg" xmlns:rdkit="http://www.rdkit.org/xml" xmlns:xlink="http://www.w3.org/1999/xlink" version="1.1" baseProfile="full" xml:space="preserve" width="289px" height="200px" viewBox="0 0 289 200">
<!-- END OF HEADER -->
<rect style="opacity:1.0;fill:#FFFFFF;stroke:none" width="289.0" height="200.0" x="0.0" y="0.0"> </rect>
<path class="bond-0 atom-0 atom-1" d="M 271.3,93.2 L 248.2,107.0" style="fill:none;fill-rule:evenodd;stroke:#000000;stroke-width:2.0px;stroke-linecap:butt;stroke-linejoin:miter;stroke-opacity:1"/>
<path class="bond-0 atom-0 atom-1" d="M 269.3,89.9 L 246.2,103.7" style="fill:none;fill-rule:evenodd;stroke:#000000;stroke-width:2.0px;stroke-linecap:butt;stroke-linejoin:miter;stroke-opacity:1"/>
<path class="bond-1 atom-1 atom-2" d="M 248.2,104.8 L 225.6,92.2" style="fill:none;fill-rule:evenodd;stroke:#000000;stroke-width:2.0px;stroke-linecap:butt;stroke-linejoin:miter;stroke-opacity:1"/>
<path class="bond-2 atom-2 atom-3" d="M 225.6,92.2 L 203.5,105.5" style="fill:none;fill-rule:evenodd;stroke:#000000;stroke-width:2.0px;stroke-linecap:butt;stroke-linejoin:miter;stroke-opacity:1"/>
<path class="bond-3 atom-3 atom-4" d="M 203.5,105.5 L 181.0,93.0" style="fill:none;fill-rule:evenodd;stroke:#000000;stroke-width:2.0px;stroke-linecap:butt;stroke-linejoin:miter;stroke-opacity:1"/>
<path class="bond-3 atom-3 atom-4" d="M 203.5,101.0 L 184.8,90.7" style="fill:none;fill-rule:evenodd;stroke:#000000;stroke-width:2.0px;stroke-linecap:butt;stroke-linejoin:miter;stroke-opacity:1"/>
<path class="bond-4 atom-4 atom-5" d="M 181.0,93.0 L 158.9,106.2" style="fill:none;fill-rule:evenodd;stroke:#000000;stroke-width:2.0px;stroke-linecap:butt;stroke-linejoin:miter;stroke-opacity:1"/>
<path class="bond-5 atom-5 atom-6" d="M 158.9,106.2 L 136.4,93.7" style="fill:none;fill-rule:evenodd;stroke:#000000;stroke-width:2.0px;stroke-linecap:butt;stroke-linejoin:miter;stroke-opacity:1"/>
<path class="bond-6 atom-6 atom-7" d="M 136.4,93.7 L 114.3,106.9" style="fill:none;fill-rule:evenodd;stroke:#000000;stroke-width:2.0px;stroke-linecap:butt;stroke-linejoin:miter;stroke-opacity:1"/>
<path class="bond-6 atom-6 atom-7" d="M 136.4,98.1 L 118.2,109.1" style="fill:none;fill-rule:evenodd;stroke:#000000;stroke-width:2.0px;stroke-linecap:butt;stroke-linejoin:miter;stroke-opacity:1"/>
<path class="bond-7 atom-7 atom-8" d="M 114.3,106.9 L 91.7,94.4" style="fill:none;fill-rule:evenodd;stroke:#000000;stroke-width:2.0px;stroke-linecap:butt;stroke-linejoin:miter;stroke-opacity:1"/>
<path class="bond-8 atom-8 atom-9" d="M 91.7,94.4 L 69.6,107.6" style="fill:none;fill-rule:evenodd;stroke:#000000;stroke-width:2.0px;stroke-linecap:butt;stroke-linejoin:miter;stroke-opacity:1"/>
<path class="bond-9 atom-9 atom-10" d="M 69.6,107.6 L 47.1,95.1" style="fill:none;fill-rule:evenodd;stroke:#000000;stroke-width:2.0px;stroke-linecap:butt;stroke-linejoin:miter;stroke-opacity:1"/>
<path class="bond-10 atom-10 atom-11" d="M 47.1,95.1 L 38.2,100.5" style="fill:none;fill-rule:evenodd;stroke:#000000;stroke-width:2.0px;stroke-linecap:butt;stroke-linejoin:miter;stroke-opacity:1"/>
<path class="bond-10 atom-10 atom-11" d="M 38.2,100.5 L 29.2,105.8" style="fill:none;fill-rule:evenodd;stroke:#FF0000;stroke-width:2.0px;stroke-linecap:butt;stroke-linejoin:miter;stroke-opacity:1"/>
<path class="bond-11 atom-7 atom-12" d="M 114.3,106.9 L 114.7,132.7" style="fill:none;fill-rule:evenodd;stroke:#000000;stroke-width:2.0px;stroke-linecap:butt;stroke-linejoin:miter;stroke-opacity:1"/>
<path class="bond-12 atom-12 atom-13" d="M 112.8,133.8 L 122.4,139.2" style="fill:none;fill-rule:evenodd;stroke:#000000;stroke-width:2.0px;stroke-linecap:butt;stroke-linejoin:miter;stroke-opacity:1"/>
<path class="bond-12 atom-12 atom-13" d="M 122.4,139.2 L 132.1,144.6" style="fill:none;fill-rule:evenodd;stroke:#FF0000;stroke-width:2.0px;stroke-linecap:butt;stroke-linejoin:miter;stroke-opacity:1"/>
<path class="bond-12 atom-12 atom-13" d="M 114.6,130.5 L 124.3,135.8" style="fill:none;fill-rule:evenodd;stroke:#000000;stroke-width:2.0px;stroke-linecap:butt;stroke-linejoin:miter;stroke-opacity:1"/>
<path class="bond-12 atom-12 atom-13" d="M 124.3,135.8 L 133.9,141.2" style="fill:none;fill-rule:evenodd;stroke:#FF0000;stroke-width:2.0px;stroke-linecap:butt;stroke-linejoin:miter;stroke-opacity:1"/>
<path class="bond-13 atom-12 atom-14" d="M 114.7,132.7 L 105.7,138.1" style="fill:none;fill-rule:evenodd;stroke:#000000;stroke-width:2.0px;stroke-linecap:butt;stroke-linejoin:miter;stroke-opacity:1"/>
<path class="bond-13 atom-12 atom-14" d="M 105.7,138.1 L 96.8,143.4" style="fill:none;fill-rule:evenodd;stroke:#FF0000;stroke-width:2.0px;stroke-linecap:butt;stroke-linejoin:miter;stroke-opacity:1"/>
<path class="bond-14 atom-4 atom-15" d="M 181.0,93.0 L 180.6,67.2" style="fill:none;fill-rule:evenodd;stroke:#000000;stroke-width:2.0px;stroke-linecap:butt;stroke-linejoin:miter;stroke-opacity:1"/>
<path class="bond-15 atom-15 atom-16" d="M 180.6,69.4 L 190.1,63.8" style="fill:none;fill-rule:evenodd;stroke:#000000;stroke-width:2.0px;stroke-linecap:butt;stroke-linejoin:miter;stroke-opacity:1"/>
<path class="bond-15 atom-15 atom-16" d="M 190.1,63.8 L 199.5,58.1" style="fill:none;fill-rule:evenodd;stroke:#FF0000;stroke-width:2.0px;stroke-linecap:butt;stroke-linejoin:miter;stroke-opacity:1"/>
<path class="bond-15 atom-15 atom-16" d="M 178.6,66.1 L 188.1,60.5" style="fill:none;fill-rule:evenodd;stroke:#000000;stroke-width:2.0px;stroke-linecap:butt;stroke-linejoin:miter;stroke-opacity:1"/>
<path class="bond-15 atom-15 atom-16" d="M 188.1,60.5 L 197.5,54.8" style="fill:none;fill-rule:evenodd;stroke:#FF0000;stroke-width:2.0px;stroke-linecap:butt;stroke-linejoin:miter;stroke-opacity:1"/>
<path class="bond-16 atom-15 atom-17" d="M 180.6,67.2 L 171.4,62.1" style="fill:none;fill-rule:evenodd;stroke:#000000;stroke-width:2.0px;stroke-linecap:butt;stroke-linejoin:miter;stroke-opacity:1"/>
<path class="bond-16 atom-15 atom-17" d="M 171.4,62.1 L 162.3,57.0" style="fill:none;fill-rule:evenodd;stroke:#FF0000;stroke-width:2.0px;stroke-linecap:butt;stroke-linejoin:miter;stroke-opacity:1"/>
<path class="bond-17 atom-1 atom-18" d="M 248.2,104.8 L 248.6,130.5" style="fill:none;fill-rule:evenodd;stroke:#000000;stroke-width:2.0px;stroke-linecap:butt;stroke-linejoin:miter;stroke-opacity:1"/>
<path class="bond-18 atom-18 atom-19" d="M 246.7,131.7 L 256.3,137.0" style="fill:none;fill-rule:evenodd;stroke:#000000;stroke-width:2.0px;stroke-linecap:butt;stroke-linejoin:miter;stroke-opacity:1"/>
<path class="bond-18 atom-18 atom-19" d="M 256.3,137.0 L 266.0,142.4" style="fill:none;fill-rule:evenodd;stroke:#FF0000;stroke-width:2.0px;stroke-linecap:butt;stroke-linejoin:miter;stroke-opacity:1"/>
<path class="bond-18 atom-18 atom-19" d="M 248.5,128.3 L 258.2,133.7" style="fill:none;fill-rule:evenodd;stroke:#000000;stroke-width:2.0px;stroke-linecap:butt;stroke-linejoin:miter;stroke-opacity:1"/>
<path class="bond-18 atom-18 atom-19" d="M 258.2,133.7 L 267.8,139.0" style="fill:none;fill-rule:evenodd;stroke:#FF0000;stroke-width:2.0px;stroke-linecap:butt;stroke-linejoin:miter;stroke-opacity:1"/>
<path class="bond-19 atom-18 atom-20" d="M 248.6,130.5 L 239.6,135.9" style="fill:none;fill-rule:evenodd;stroke:#000000;stroke-width:2.0px;stroke-linecap:butt;stroke-linejoin:miter;stroke-opacity:1"/>
<path class="bond-19 atom-18 atom-20" d="M 239.6,135.9 L 230.7,141.3" style="fill:none;fill-rule:evenodd;stroke:#FF0000;stroke-width:2.0px;stroke-linecap:butt;stroke-linejoin:miter;stroke-opacity:1"/>
<path d="M 247.0,104.1 L 248.2,104.8 L 248.2,106.1" style="fill:none;stroke:#000000;stroke-width:2.0px;stroke-linecap:butt;stroke-linejoin:miter;stroke-opacity:1;"/>
<path d="M 226.8,92.9 L 225.6,92.2 L 224.5,92.9" style="fill:none;stroke:#000000;stroke-width:2.0px;stroke-linecap:butt;stroke-linejoin:miter;stroke-opacity:1;"/>
<path d="M 204.6,104.8 L 203.5,105.5 L 202.4,104.9" style="fill:none;stroke:#000000;stroke-width:2.0px;stroke-linecap:butt;stroke-linejoin:miter;stroke-opacity:1;"/>
<path d="M 160.0,105.5 L 158.9,106.2 L 157.8,105.6" style="fill:none;stroke:#000000;stroke-width:2.0px;stroke-linecap:butt;stroke-linejoin:miter;stroke-opacity:1;"/>
<path d="M 137.5,94.3 L 136.4,93.7 L 135.3,94.3" style="fill:none;stroke:#000000;stroke-width:2.0px;stroke-linecap:butt;stroke-linejoin:miter;stroke-opacity:1;"/>
<path d="M 92.9,95.0 L 91.7,94.4 L 90.6,95.1" style="fill:none;stroke:#000000;stroke-width:2.0px;stroke-linecap:butt;stroke-linejoin:miter;stroke-opacity:1;"/>
<path d="M 70.7,107.0 L 69.6,107.6 L 68.5,107.0" style="fill:none;stroke:#000000;stroke-width:2.0px;stroke-linecap:butt;stroke-linejoin:miter;stroke-opacity:1;"/>
<path d="M 48.2,95.7 L 47.1,95.1 L 46.7,95.4" style="fill:none;stroke:#000000;stroke-width:2.0px;stroke-linecap:butt;stroke-linejoin:miter;stroke-opacity:1;"/>
<path d="M 114.7,131.4 L 114.7,132.7 L 114.2,133.0" style="fill:none;stroke:#000000;stroke-width:2.0px;stroke-linecap:butt;stroke-linejoin:miter;stroke-opacity:1;"/>
<path d="M 180.6,68.5 L 180.6,67.2 L 180.1,66.9" style="fill:none;stroke:#000000;stroke-width:2.0px;stroke-linecap:butt;stroke-linejoin:miter;stroke-opacity:1;"/>
<path d="M 248.6,129.2 L 248.6,130.5 L 248.1,130.8" style="fill:none;stroke:#000000;stroke-width:2.0px;stroke-linecap:butt;stroke-linejoin:miter;stroke-opacity:1;"/>
<path class="atom-11" d="M 14.4 104.8 L 15.4 104.8 L 15.4 107.9 L 19.2 107.9 L 19.2 104.8 L 20.2 104.8 L 20.2 112.1 L 19.2 112.1 L 19.2 108.7 L 15.4 108.7 L 15.4 112.1 L 14.4 112.1 L 14.4 104.8 " fill="#FF0000"/>
<path class="atom-11" d="M 21.7 108.4 Q 21.7 106.6, 22.5 105.7 Q 23.4 104.7, 25.0 104.7 Q 26.6 104.7, 27.5 105.7 Q 28.4 106.6, 28.4 108.4 Q 28.4 110.2, 27.5 111.2 Q 26.6 112.2, 25.0 112.2 Q 23.4 112.2, 22.5 111.2 Q 21.7 110.2, 21.7 108.4 M 25.0 111.3 Q 26.1 111.3, 26.7 110.6 Q 27.3 109.8, 27.3 108.4 Q 27.3 107.0, 26.7 106.2 Q 26.1 105.5, 25.0 105.5 Q 23.9 105.5, 23.3 106.2 Q 22.7 106.9, 22.7 108.4 Q 22.7 109.9, 23.3 110.6 Q 23.9 111.3, 25.0 111.3 " fill="#FF0000"/>
<path class="atom-13" d="M 133.9 145.2 Q 133.9 143.5, 134.7 142.5 Q 135.6 141.5, 137.2 141.5 Q 138.8 141.5, 139.7 142.5 Q 140.6 143.5, 140.6 145.2 Q 140.6 147.0, 139.7 148.0 Q 138.8 149.0, 137.2 149.0 Q 135.6 149.0, 134.7 148.0 Q 133.9 147.0, 133.9 145.2 M 137.2 148.2 Q 138.3 148.2, 138.9 147.5 Q 139.5 146.7, 139.5 145.2 Q 139.5 143.8, 138.9 143.1 Q 138.3 142.4, 137.2 142.4 Q 136.1 142.4, 135.5 143.1 Q 134.9 143.8, 134.9 145.2 Q 134.9 146.7, 135.5 147.5 Q 136.1 148.2, 137.2 148.2 " fill="#FF0000"/>
<path class="atom-14" d="M 82.0 142.3 L 83.0 142.3 L 83.0 145.4 L 86.7 145.4 L 86.7 142.3 L 87.7 142.3 L 87.7 149.6 L 86.7 149.6 L 86.7 146.3 L 83.0 146.3 L 83.0 149.6 L 82.0 149.6 L 82.0 142.3 " fill="#FF0000"/>
<path class="atom-14" d="M 89.2 146.0 Q 89.2 144.2, 90.1 143.2 Q 91.0 142.2, 92.6 142.2 Q 94.2 142.2, 95.1 143.2 Q 95.9 144.2, 95.9 146.0 Q 95.9 147.7, 95.1 148.7 Q 94.2 149.7, 92.6 149.7 Q 91.0 149.7, 90.1 148.7 Q 89.2 147.7, 89.2 146.0 M 92.6 148.9 Q 93.7 148.9, 94.3 148.2 Q 94.9 147.4, 94.9 146.0 Q 94.9 144.5, 94.3 143.8 Q 93.7 143.1, 92.6 143.1 Q 91.5 143.1, 90.9 143.8 Q 90.3 144.5, 90.3 146.0 Q 90.3 147.4, 90.9 148.2 Q 91.5 148.9, 92.6 148.9 " fill="#FF0000"/>
<path class="atom-16" d="M 199.4 54.0 Q 199.4 52.2, 200.2 51.2 Q 201.1 50.3, 202.7 50.3 Q 204.3 50.3, 205.2 51.2 Q 206.1 52.2, 206.1 54.0 Q 206.1 55.7, 205.2 56.8 Q 204.3 57.8, 202.7 57.8 Q 201.1 57.8, 200.2 56.8 Q 199.4 55.8, 199.4 54.0 M 202.7 56.9 Q 203.8 56.9, 204.4 56.2 Q 205.0 55.4, 205.0 54.0 Q 205.0 52.5, 204.4 51.8 Q 203.8 51.1, 202.7 51.1 Q 201.6 51.1, 201.0 51.8 Q 200.4 52.5, 200.4 54.0 Q 200.4 55.4, 201.0 56.2 Q 201.6 56.9, 202.7 56.9 " fill="#FF0000"/>
<path class="atom-17" d="M 147.5 51.1 L 148.5 51.1 L 148.5 54.2 L 152.2 54.2 L 152.2 51.1 L 153.2 51.1 L 153.2 58.4 L 152.2 58.4 L 152.2 55.0 L 148.5 55.0 L 148.5 58.4 L 147.5 58.4 L 147.5 51.1 " fill="#FF0000"/>
<path class="atom-17" d="M 154.7 54.7 Q 154.7 52.9, 155.6 52.0 Q 156.5 51.0, 158.1 51.0 Q 159.7 51.0, 160.6 52.0 Q 161.4 52.9, 161.4 54.7 Q 161.4 56.5, 160.5 57.5 Q 159.7 58.5, 158.1 58.5 Q 156.5 58.5, 155.6 57.5 Q 154.7 56.5, 154.7 54.7 M 158.1 57.6 Q 159.2 57.6, 159.8 56.9 Q 160.4 56.2, 160.4 54.7 Q 160.4 53.3, 159.8 52.5 Q 159.2 51.8, 158.1 51.8 Q 157.0 51.8, 156.3 52.5 Q 155.8 53.2, 155.8 54.7 Q 155.8 56.2, 156.3 56.9 Q 157.0 57.6, 158.1 57.6 " fill="#FF0000"/>
<path class="atom-19" d="M 267.7 143.1 Q 267.7 141.3, 268.6 140.3 Q 269.5 139.4, 271.1 139.4 Q 272.7 139.4, 273.6 140.3 Q 274.4 141.3, 274.4 143.1 Q 274.4 144.9, 273.6 145.9 Q 272.7 146.9, 271.1 146.9 Q 269.5 146.9, 268.6 145.9 Q 267.7 144.9, 267.7 143.1 M 271.1 146.0 Q 272.2 146.0, 272.8 145.3 Q 273.4 144.5, 273.4 143.1 Q 273.4 141.6, 272.8 140.9 Q 272.2 140.2, 271.1 140.2 Q 270.0 140.2, 269.4 140.9 Q 268.8 141.6, 268.8 143.1 Q 268.8 144.6, 269.4 145.3 Q 270.0 146.0, 271.1 146.0 " fill="#FF0000"/>
<path class="atom-20" d="M 215.9 140.2 L 216.9 140.2 L 216.9 143.3 L 220.6 143.3 L 220.6 140.2 L 221.6 140.2 L 221.6 147.5 L 220.6 147.5 L 220.6 144.1 L 216.9 144.1 L 216.9 147.5 L 215.9 147.5 L 215.9 140.2 " fill="#FF0000"/>
<path class="atom-20" d="M 223.1 143.8 Q 223.1 142.0, 224.0 141.1 Q 224.9 140.1, 226.5 140.1 Q 228.1 140.1, 229.0 141.1 Q 229.8 142.0, 229.8 143.8 Q 229.8 145.6, 228.9 146.6 Q 228.1 147.6, 226.5 147.6 Q 224.9 147.6, 224.0 146.6 Q 223.1 145.6, 223.1 143.8 M 226.5 146.8 Q 227.6 146.8, 228.2 146.0 Q 228.8 145.3, 228.8 143.8 Q 228.8 142.4, 228.2 141.6 Q 227.6 140.9, 226.5 140.9 Q 225.4 140.9, 224.7 141.6 Q 224.1 142.4, 224.1 143.8 Q 224.1 145.3, 224.7 146.0 Q 225.4 146.8, 226.5 146.8 " fill="#FF0000"/>
</svg>
