<?xml version='1.0' encoding='ASCII' standalone='yes'?>
<svg xmlns="http://www.w3.org/2000/svg" xmlns:rdkit="http://www.rdkit.org/xml" xmlns:xlink="http://www.w3.org/1999/xlink" version="1.1" baseProfile="full" xml:space="preserve" width="280px" height="200px" viewBox="0 0 280 200">
<!-- END OF HEADER -->
<rect style="opacity:1.0;fill:#FFFFFF;stroke:none" width="280.0" height="200.0" x="0.0" y="0.0"> </rect>
<path class="bond-0 atom-0 atom-1" d="M 31.1,108.3 L 40.3,115.7" style="fill:none;fill-rule:evenodd;stroke:#FF0000;stroke-width:2.0px;stroke-linecap:butt;stroke-linejoin:miter;stroke-opacity:1"/>
<path class="bond-0 atom-0 atom-1" d="M 40.3,115.7 L 49.5,123.1" style="fill:none;fill-rule:evenodd;stroke:#000000;stroke-width:2.0px;stroke-linecap:butt;stroke-linejoin:miter;stroke-opacity:1"/>
<path class="bond-1 atom-1 atom-2" d="M 49.5,123.1 L 77.3,112.3" style="fill:none;fill-rule:evenodd;stroke:#000000;stroke-width:2.0px;stroke-linecap:butt;stroke-linejoin:miter;stroke-opacity:1"/>
<path class="bond-2 atom-2 atom-3" d="M 77.3,112.3 L 87.4,118.8" style="fill:none;fill-rule:evenodd;stroke:#000000;stroke-width:2.0px;stroke-linecap:butt;stroke-linejoin:miter;stroke-opacity:1"/>
<path class="bond-2 atom-2 atom-3" d="M 87.4,118.8 L 97.5,125.3" style="fill:none;fill-rule:evenodd;stroke:#FF0000;stroke-width:2.0px;stroke-linecap:butt;stroke-linejoin:miter;stroke-opacity:1"/>
<path class="bond-3 atom-3 atom-4" d="M 107.3,124.5 L 116.4,117.1" style="fill:none;fill-rule:evenodd;stroke:#FF0000;stroke-width:2.0px;stroke-linecap:butt;stroke-linejoin:miter;stroke-opacity:1"/>
<path class="bond-3 atom-3 atom-4" d="M 116.4,117.1 L 125.5,109.6" style="fill:none;fill-rule:evenodd;stroke:#000000;stroke-width:2.0px;stroke-linecap:butt;stroke-linejoin:miter;stroke-opacity:1"/>
<path class="bond-4 atom-4 atom-5" d="M 125.5,109.6 L 137.8,112.9" style="fill:none;fill-rule:evenodd;stroke:#000000;stroke-width:2.0px;stroke-linecap:butt;stroke-linejoin:miter;stroke-opacity:1"/>
<path class="bond-4 atom-4 atom-5" d="M 137.8,112.9 L 150.2,116.1" style="fill:none;fill-rule:evenodd;stroke:#0000FF;stroke-width:2.0px;stroke-linecap:butt;stroke-linejoin:miter;stroke-opacity:1"/>
<path class="bond-5 atom-5 atom-6" d="M 156.4,122.4 L 160.8,133.7" style="fill:none;fill-rule:evenodd;stroke:#0000FF;stroke-width:2.0px;stroke-linecap:butt;stroke-linejoin:miter;stroke-opacity:1"/>
<path class="bond-5 atom-5 atom-6" d="M 160.8,133.7 L 165.2,145.0" style="fill:none;fill-rule:evenodd;stroke:#000000;stroke-width:2.0px;stroke-linecap:butt;stroke-linejoin:miter;stroke-opacity:1"/>
<path class="bond-6 atom-6 atom-7" d="M 165.2,145.0 L 178.0,144.3" style="fill:none;fill-rule:evenodd;stroke:#000000;stroke-width:2.0px;stroke-linecap:butt;stroke-linejoin:miter;stroke-opacity:1"/>
<path class="bond-6 atom-6 atom-7" d="M 178.0,144.3 L 190.8,143.6" style="fill:none;fill-rule:evenodd;stroke:#0000FF;stroke-width:2.0px;stroke-linecap:butt;stroke-linejoin:miter;stroke-opacity:1"/>
<path class="bond-6 atom-6 atom-7" d="M 168.2,140.4 L 179.3,139.7" style="fill:none;fill-rule:evenodd;stroke:#000000;stroke-width:2.0px;stroke-linecap:butt;stroke-linejoin:miter;stroke-opacity:1"/>
<path class="bond-6 atom-6 atom-7" d="M 179.3,139.7 L 190.5,139.1" style="fill:none;fill-rule:evenodd;stroke:#0000FF;stroke-width:2.0px;stroke-linecap:butt;stroke-linejoin:miter;stroke-opacity:1"/>
<path class="bond-7 atom-7 atom-8" d="M 196.3,138.1 L 199.5,126.3" style="fill:none;fill-rule:evenodd;stroke:#0000FF;stroke-width:2.0px;stroke-linecap:butt;stroke-linejoin:miter;stroke-opacity:1"/>
<path class="bond-7 atom-7 atom-8" d="M 199.5,126.3 L 202.6,114.5" style="fill:none;fill-rule:evenodd;stroke:#000000;stroke-width:2.0px;stroke-linecap:butt;stroke-linejoin:miter;stroke-opacity:1"/>
<path class="bond-8 atom-8 atom-9" d="M 202.6,114.5 L 229.1,100.8" style="fill:none;fill-rule:evenodd;stroke:#000000;stroke-width:2.0px;stroke-linecap:butt;stroke-linejoin:miter;stroke-opacity:1"/>
<path class="bond-8 atom-8 atom-9" d="M 202.8,109.3 L 224.8,98.1" style="fill:none;fill-rule:evenodd;stroke:#000000;stroke-width:2.0px;stroke-linecap:butt;stroke-linejoin:miter;stroke-opacity:1"/>
<path class="bond-9 atom-9 atom-10" d="M 229.1,100.8 L 239.2,107.4" style="fill:none;fill-rule:evenodd;stroke:#000000;stroke-width:2.0px;stroke-linecap:butt;stroke-linejoin:miter;stroke-opacity:1"/>
<path class="bond-9 atom-9 atom-10" d="M 239.2,107.4 L 249.3,113.9" style="fill:none;fill-rule:evenodd;stroke:#FF0000;stroke-width:2.0px;stroke-linecap:butt;stroke-linejoin:miter;stroke-opacity:1"/>
<path class="bond-10 atom-9 atom-11" d="M 229.1,100.8 L 229.7,88.6" style="fill:none;fill-rule:evenodd;stroke:#000000;stroke-width:2.0px;stroke-linecap:butt;stroke-linejoin:miter;stroke-opacity:1"/>
<path class="bond-10 atom-9 atom-11" d="M 229.7,88.6 L 230.3,76.3" style="fill:none;fill-rule:evenodd;stroke:#0000FF;stroke-width:2.0px;stroke-linecap:butt;stroke-linejoin:miter;stroke-opacity:1"/>
<path class="bond-11 atom-11 atom-12" d="M 226.4,68.3 L 215.9,61.6" style="fill:none;fill-rule:evenodd;stroke:#0000FF;stroke-width:2.0px;stroke-linecap:butt;stroke-linejoin:miter;stroke-opacity:1"/>
<path class="bond-11 atom-11 atom-12" d="M 215.9,61.6 L 205.5,54.9" style="fill:none;fill-rule:evenodd;stroke:#000000;stroke-width:2.0px;stroke-linecap:butt;stroke-linejoin:miter;stroke-opacity:1"/>
<path class="bond-11 atom-11 atom-12" d="M 223.9,72.1 L 214.6,66.1" style="fill:none;fill-rule:evenodd;stroke:#0000FF;stroke-width:2.0px;stroke-linecap:butt;stroke-linejoin:miter;stroke-opacity:1"/>
<path class="bond-11 atom-11 atom-12" d="M 214.6,66.1 L 205.2,60.1" style="fill:none;fill-rule:evenodd;stroke:#000000;stroke-width:2.0px;stroke-linecap:butt;stroke-linejoin:miter;stroke-opacity:1"/>
<path class="bond-12 atom-12 atom-13" d="M 205.5,54.9 L 194.3,60.6" style="fill:none;fill-rule:evenodd;stroke:#000000;stroke-width:2.0px;stroke-linecap:butt;stroke-linejoin:miter;stroke-opacity:1"/>
<path class="bond-12 atom-12 atom-13" d="M 194.3,60.6 L 183.1,66.4" style="fill:none;fill-rule:evenodd;stroke:#0000FF;stroke-width:2.0px;stroke-linecap:butt;stroke-linejoin:miter;stroke-opacity:1"/>
<path class="bond-13 atom-13 atom-14" d="M 178.7,73.7 L 178.1,86.0" style="fill:none;fill-rule:evenodd;stroke:#0000FF;stroke-width:2.0px;stroke-linecap:butt;stroke-linejoin:miter;stroke-opacity:1"/>
<path class="bond-13 atom-13 atom-14" d="M 178.1,86.0 L 177.5,98.3" style="fill:none;fill-rule:evenodd;stroke:#000000;stroke-width:2.0px;stroke-linecap:butt;stroke-linejoin:miter;stroke-opacity:1"/>
<path class="bond-13 atom-13 atom-14" d="M 183.1,74.0 L 182.6,85.0" style="fill:none;fill-rule:evenodd;stroke:#0000FF;stroke-width:2.0px;stroke-linecap:butt;stroke-linejoin:miter;stroke-opacity:1"/>
<path class="bond-13 atom-13 atom-14" d="M 182.6,85.0 L 182.1,96.0" style="fill:none;fill-rule:evenodd;stroke:#000000;stroke-width:2.0px;stroke-linecap:butt;stroke-linejoin:miter;stroke-opacity:1"/>
<path class="bond-14 atom-4 atom-15" d="M 125.5,109.6 L 114.7,81.8" style="fill:none;fill-rule:evenodd;stroke:#000000;stroke-width:2.0px;stroke-linecap:butt;stroke-linejoin:miter;stroke-opacity:1"/>
<path class="bond-15 atom-15 atom-16" d="M 114.7,81.8 L 121.1,71.9" style="fill:none;fill-rule:evenodd;stroke:#000000;stroke-width:2.0px;stroke-linecap:butt;stroke-linejoin:miter;stroke-opacity:1"/>
<path class="bond-15 atom-15 atom-16" d="M 121.1,71.9 L 127.4,62.1" style="fill:none;fill-rule:evenodd;stroke:#FF0000;stroke-width:2.0px;stroke-linecap:butt;stroke-linejoin:miter;stroke-opacity:1"/>
<path class="bond-16 atom-15 atom-17" d="M 114.7,81.8 L 84.9,83.5" style="fill:none;fill-rule:evenodd;stroke:#000000;stroke-width:2.0px;stroke-linecap:butt;stroke-linejoin:miter;stroke-opacity:1"/>
<path class="bond-17 atom-17 atom-18" d="M 84.9,83.5 L 77.7,74.6" style="fill:none;fill-rule:evenodd;stroke:#000000;stroke-width:2.0px;stroke-linecap:butt;stroke-linejoin:miter;stroke-opacity:1"/>
<path class="bond-17 atom-17 atom-18" d="M 77.7,74.6 L 70.4,65.7" style="fill:none;fill-rule:evenodd;stroke:#FF0000;stroke-width:2.0px;stroke-linecap:butt;stroke-linejoin:miter;stroke-opacity:1"/>
<path class="bond-18 atom-17 atom-2" d="M 84.9,83.5 L 77.3,112.3" style="fill:none;fill-rule:evenodd;stroke:#000000;stroke-width:2.0px;stroke-linecap:butt;stroke-linejoin:miter;stroke-opacity:1"/>
<path class="bond-19 atom-14 atom-5" d="M 177.5,98.3 L 168.0,106.1" style="fill:none;fill-rule:evenodd;stroke:#000000;stroke-width:2.0px;stroke-linecap:butt;stroke-linejoin:miter;stroke-opacity:1"/>
<path class="bond-19 atom-14 atom-5" d="M 168.0,106.1 L 158.6,113.8" style="fill:none;fill-rule:evenodd;stroke:#0000FF;stroke-width:2.0px;stroke-linecap:butt;stroke-linejoin:miter;stroke-opacity:1"/>
<path class="bond-20 atom-14 atom-8" d="M 177.5,98.3 L 202.6,114.5" style="fill:none;fill-rule:evenodd;stroke:#000000;stroke-width:2.0px;stroke-linecap:butt;stroke-linejoin:miter;stroke-opacity:1"/>
<path d="M 49.0,122.7 L 49.5,123.1 L 50.9,122.6" style="fill:none;stroke:#000000;stroke-width:2.0px;stroke-linecap:butt;stroke-linejoin:miter;stroke-opacity:1;"/>
<path d="M 164.9,144.5 L 165.2,145.0 L 165.8,145.0" style="fill:none;stroke:#000000;stroke-width:2.0px;stroke-linecap:butt;stroke-linejoin:miter;stroke-opacity:1;"/>
<path d="M 206.0,55.2 L 205.5,54.9 L 204.9,55.2" style="fill:none;stroke:#000000;stroke-width:2.0px;stroke-linecap:butt;stroke-linejoin:miter;stroke-opacity:1;"/>
<path class="atom-0" d="M 14.0 100.2 L 15.1 100.2 L 15.1 103.8 L 19.5 103.8 L 19.5 100.2 L 20.6 100.2 L 20.6 108.7 L 19.5 108.7 L 19.5 104.8 L 15.1 104.8 L 15.1 108.7 L 14.0 108.7 L 14.0 100.2 " fill="#FF0000"/>
<path class="atom-0" d="M 22.3 104.5 Q 22.3 102.4, 23.3 101.3 Q 24.4 100.2, 26.2 100.2 Q 28.1 100.2, 29.1 101.3 Q 30.1 102.4, 30.1 104.5 Q 30.1 106.5, 29.1 107.7 Q 28.1 108.8, 26.2 108.8 Q 24.4 108.8, 23.3 107.7 Q 22.3 106.5, 22.3 104.5 M 26.2 107.9 Q 27.5 107.9, 28.2 107.0 Q 28.9 106.1, 28.9 104.5 Q 28.9 102.8, 28.2 102.0 Q 27.5 101.1, 26.2 101.1 Q 24.9 101.1, 24.2 101.9 Q 23.5 102.8, 23.5 104.5 Q 23.5 106.2, 24.2 107.0 Q 24.9 107.9, 26.2 107.9 " fill="#FF0000"/>
<path class="atom-3" d="M 98.5 128.5 Q 98.5 126.5, 99.5 125.3 Q 100.5 124.2, 102.4 124.2 Q 104.3 124.2, 105.3 125.3 Q 106.3 126.5, 106.3 128.5 Q 106.3 130.5, 105.3 131.7 Q 104.2 132.9, 102.4 132.9 Q 100.5 132.9, 99.5 131.7 Q 98.5 130.6, 98.5 128.5 M 102.4 131.9 Q 103.7 131.9, 104.4 131.1 Q 105.1 130.2, 105.1 128.5 Q 105.1 126.8, 104.4 126.0 Q 103.7 125.2, 102.4 125.2 Q 101.1 125.2, 100.4 126.0 Q 99.7 126.8, 99.7 128.5 Q 99.7 130.2, 100.4 131.1 Q 101.1 131.9, 102.4 131.9 " fill="#FF0000"/>
<path class="atom-5" d="M 152.5 113.0 L 155.3 117.5 Q 155.5 117.9, 156.0 118.7 Q 156.4 119.5, 156.4 119.6 L 156.4 113.0 L 157.6 113.0 L 157.6 121.4 L 156.4 121.4 L 153.4 116.5 Q 153.1 116.0, 152.7 115.3 Q 152.4 114.7, 152.3 114.5 L 152.3 121.4 L 151.2 121.4 L 151.2 113.0 L 152.5 113.0 " fill="#0000FF"/>
<path class="atom-7" d="M 193.1 139.1 L 195.9 143.6 Q 196.1 144.0, 196.6 144.8 Q 197.0 145.6, 197.0 145.7 L 197.0 139.1 L 198.2 139.1 L 198.2 147.6 L 197.0 147.6 L 194.0 142.7 Q 193.7 142.1, 193.3 141.5 Q 193.0 140.8, 192.9 140.6 L 192.9 147.6 L 191.8 147.6 L 191.8 139.1 L 193.1 139.1 " fill="#0000FF"/>
<path class="atom-10" d="M 250.3 117.0 Q 250.3 115.0, 251.3 113.9 Q 252.3 112.7, 254.2 112.7 Q 256.1 112.7, 257.1 113.9 Q 258.1 115.0, 258.1 117.0 Q 258.1 119.1, 257.1 120.3 Q 256.0 121.4, 254.2 121.4 Q 252.3 121.4, 251.3 120.3 Q 250.3 119.1, 250.3 117.0 M 254.2 120.5 Q 255.5 120.5, 256.2 119.6 Q 256.9 118.7, 256.9 117.0 Q 256.9 115.4, 256.2 114.5 Q 255.5 113.7, 254.2 113.7 Q 252.9 113.7, 252.2 114.5 Q 251.5 115.4, 251.5 117.0 Q 251.5 118.7, 252.2 119.6 Q 252.9 120.5, 254.2 120.5 " fill="#FF0000"/>
<path class="atom-10" d="M 259.4 112.8 L 260.5 112.8 L 260.5 116.4 L 264.9 116.4 L 264.9 112.8 L 266.0 112.8 L 266.0 121.3 L 264.9 121.3 L 264.9 117.4 L 260.5 117.4 L 260.5 121.3 L 259.4 121.3 L 259.4 112.8 " fill="#FF0000"/>
<path class="atom-11" d="M 228.7 66.8 L 231.5 71.3 Q 231.7 71.7, 232.2 72.5 Q 232.6 73.3, 232.6 73.4 L 232.6 66.8 L 233.8 66.8 L 233.8 75.3 L 232.6 75.3 L 229.6 70.4 Q 229.3 69.8, 228.9 69.1 Q 228.6 68.5, 228.4 68.3 L 228.4 75.3 L 227.3 75.3 L 227.3 66.8 L 228.7 66.8 " fill="#0000FF"/>
<path class="atom-13" d="M 177.1 64.3 L 179.8 68.8 Q 180.1 69.2, 180.5 70.0 Q 181.0 70.8, 181.0 70.9 L 181.0 64.3 L 182.1 64.3 L 182.1 72.8 L 181.0 72.8 L 178.0 67.9 Q 177.7 67.3, 177.3 66.6 Q 176.9 66.0, 176.8 65.8 L 176.8 72.8 L 175.7 72.8 L 175.7 64.3 L 177.1 64.3 " fill="#0000FF"/>
<path class="atom-16" d="M 127.0 56.7 Q 127.0 54.7, 128.0 53.6 Q 129.0 52.4, 130.9 52.4 Q 132.7 52.4, 133.7 53.6 Q 134.7 54.7, 134.7 56.7 Q 134.7 58.8, 133.7 59.9 Q 132.7 61.1, 130.9 61.1 Q 129.0 61.1, 128.0 59.9 Q 127.0 58.8, 127.0 56.7 M 130.9 60.1 Q 132.2 60.1, 132.8 59.3 Q 133.5 58.4, 133.5 56.7 Q 133.5 55.1, 132.8 54.2 Q 132.2 53.4, 130.9 53.4 Q 129.6 53.4, 128.9 54.2 Q 128.2 55.0, 128.2 56.7 Q 128.2 58.4, 128.9 59.3 Q 129.6 60.1, 130.9 60.1 " fill="#FF0000"/>
<path class="atom-16" d="M 136.1 52.5 L 137.2 52.5 L 137.2 56.1 L 141.5 56.1 L 141.5 52.5 L 142.7 52.5 L 142.7 61.0 L 141.5 61.0 L 141.5 57.1 L 137.2 57.1 L 137.2 61.0 L 136.1 61.0 L 136.1 52.5 " fill="#FF0000"/>
<path class="atom-18" d="M 53.8 56.2 L 55.0 56.2 L 55.0 59.8 L 59.3 59.8 L 59.3 56.2 L 60.4 56.2 L 60.4 64.6 L 59.3 64.6 L 59.3 60.7 L 55.0 60.7 L 55.0 64.6 L 53.8 64.6 L 53.8 56.2 " fill="#FF0000"/>
<path class="atom-18" d="M 62.2 60.4 Q 62.2 58.3, 63.2 57.2 Q 64.2 56.1, 66.0 56.1 Q 67.9 56.1, 68.9 57.2 Q 69.9 58.3, 69.9 60.4 Q 69.9 62.4, 68.9 63.6 Q 67.9 64.7, 66.0 64.7 Q 64.2 64.7, 63.2 63.6 Q 62.2 62.4, 62.2 60.4 M 66.0 63.8 Q 67.3 63.8, 68.0 62.9 Q 68.7 62.1, 68.7 60.4 Q 68.7 58.7, 68.0 57.9 Q 67.3 57.0, 66.0 57.0 Q 64.8 57.0, 64.1 57.9 Q 63.4 58.7, 63.4 60.4 Q 63.4 62.1, 64.1 62.9 Q 64.8 63.8, 66.0 63.8 " fill="#FF0000"/>
</svg>
