<?xml version='1.0' encoding='ASCII' standalone='yes'?>
<svg xmlns="http://www.w3.org/2000/svg" xmlns:rdkit="http://www.rdkit.org/xml" xmlns:xlink="http://www.w3.org/1999/xlink" version="1.1" baseProfile="full" xml:space="preserve" width="293px" height="200px" viewBox="0 0 293 200">
<!-- END OF HEADER -->
<rect style="opacity:1.0;fill:#FFFFFF;stroke:none" width="293.0" height="200.0" x="0.0" y="0.0"> </rect>
<path class="bond-0 atom-0 atom-1" d="M 14.7,127.8 L 42.7,120.9" style="fill:none;fill-rule:evenodd;stroke:#000000;stroke-width:2.0px;stroke-linecap:butt;stroke-linejoin:miter;stroke-opacity:1"/>
<path class="bond-1 atom-1 atom-2" d="M 42.7,120.9 L 50.8,93.1" style="fill:none;fill-rule:evenodd;stroke:#000000;stroke-width:2.0px;stroke-linecap:butt;stroke-linejoin:miter;stroke-opacity:1"/>
<path class="bond-2 atom-2 atom-3" d="M 50.8,93.1 L 78.9,86.1" style="fill:none;fill-rule:evenodd;stroke:#000000;stroke-width:2.0px;stroke-linecap:butt;stroke-linejoin:miter;stroke-opacity:1"/>
<path class="bond-3 atom-3 atom-4" d="M 78.9,86.1 L 85.8,114.2" style="fill:none;fill-rule:evenodd;stroke:#000000;stroke-width:2.0px;stroke-linecap:butt;stroke-linejoin:miter;stroke-opacity:1"/>
<path class="bond-4 atom-3 atom-5" d="M 78.9,86.1 L 71.9,58.0" style="fill:none;fill-rule:evenodd;stroke:#000000;stroke-width:2.0px;stroke-linecap:butt;stroke-linejoin:miter;stroke-opacity:1"/>
<path class="bond-5 atom-3 atom-6" d="M 78.9,86.1 L 107.0,79.1" style="fill:none;fill-rule:evenodd;stroke:#000000;stroke-width:2.0px;stroke-linecap:butt;stroke-linejoin:miter;stroke-opacity:1"/>
<path class="bond-6 atom-6 atom-7" d="M 107.0,79.1 L 127.0,100.0" style="fill:none;fill-rule:evenodd;stroke:#000000;stroke-width:2.0px;stroke-linecap:butt;stroke-linejoin:miter;stroke-opacity:1"/>
<path class="bond-7 atom-7 atom-8" d="M 127.0,100.0 L 119.0,127.8" style="fill:none;fill-rule:evenodd;stroke:#000000;stroke-width:2.0px;stroke-linecap:butt;stroke-linejoin:miter;stroke-opacity:1"/>
<path class="bond-8 atom-8 atom-9" d="M 119.0,127.8 L 139.1,148.6" style="fill:none;fill-rule:evenodd;stroke:#000000;stroke-width:2.0px;stroke-linecap:butt;stroke-linejoin:miter;stroke-opacity:1"/>
<path class="bond-9 atom-7 atom-10" d="M 127.0,100.0 L 155.1,93.0" style="fill:none;fill-rule:evenodd;stroke:#000000;stroke-width:2.0px;stroke-linecap:butt;stroke-linejoin:miter;stroke-opacity:1"/>
<path class="bond-10 atom-10 atom-11" d="M 155.1,93.0 L 162.1,121.1" style="fill:none;fill-rule:evenodd;stroke:#000000;stroke-width:2.0px;stroke-linecap:butt;stroke-linejoin:miter;stroke-opacity:1"/>
<path class="bond-11 atom-10 atom-12" d="M 155.1,93.0 L 148.2,64.9" style="fill:none;fill-rule:evenodd;stroke:#000000;stroke-width:2.0px;stroke-linecap:butt;stroke-linejoin:miter;stroke-opacity:1"/>
<path class="bond-12 atom-10 atom-13" d="M 155.1,93.0 L 183.2,86.1" style="fill:none;fill-rule:evenodd;stroke:#000000;stroke-width:2.0px;stroke-linecap:butt;stroke-linejoin:miter;stroke-opacity:1"/>
<path class="bond-13 atom-13 atom-14" d="M 183.2,86.1 L 203.3,106.9" style="fill:none;fill-rule:evenodd;stroke:#000000;stroke-width:2.0px;stroke-linecap:butt;stroke-linejoin:miter;stroke-opacity:1"/>
<path class="bond-14 atom-14 atom-15" d="M 203.3,106.9 L 231.4,99.9" style="fill:none;fill-rule:evenodd;stroke:#000000;stroke-width:2.0px;stroke-linecap:butt;stroke-linejoin:miter;stroke-opacity:1"/>
<path class="bond-15 atom-15 atom-16" d="M 231.4,99.9 L 259.5,93.0" style="fill:none;fill-rule:evenodd;stroke:#000000;stroke-width:2.0px;stroke-linecap:butt;stroke-linejoin:miter;stroke-opacity:1"/>
<path class="bond-16 atom-15 atom-17" d="M 231.4,99.9 L 224.5,71.8" style="fill:none;fill-rule:evenodd;stroke:#000000;stroke-width:2.0px;stroke-linecap:butt;stroke-linejoin:miter;stroke-opacity:1"/>
<path class="bond-17 atom-17 atom-18" d="M 224.5,71.8 L 232.5,64.1" style="fill:none;fill-rule:evenodd;stroke:#000000;stroke-width:2.0px;stroke-linecap:butt;stroke-linejoin:miter;stroke-opacity:1"/>
<path class="bond-17 atom-17 atom-18" d="M 232.5,64.1 L 240.6,56.3" style="fill:none;fill-rule:evenodd;stroke:#FF0000;stroke-width:2.0px;stroke-linecap:butt;stroke-linejoin:miter;stroke-opacity:1"/>
<path class="bond-18 atom-15 atom-19" d="M 231.4,99.9 L 238.4,128.0" style="fill:none;fill-rule:evenodd;stroke:#000000;stroke-width:2.0px;stroke-linecap:butt;stroke-linejoin:miter;stroke-opacity:1"/>
<path class="bond-19 atom-19 atom-20" d="M 237.8,125.6 L 229.3,133.8" style="fill:none;fill-rule:evenodd;stroke:#000000;stroke-width:2.0px;stroke-linecap:butt;stroke-linejoin:miter;stroke-opacity:1"/>
<path class="bond-19 atom-19 atom-20" d="M 229.3,133.8 L 220.7,142.0" style="fill:none;fill-rule:evenodd;stroke:#FF0000;stroke-width:2.0px;stroke-linecap:butt;stroke-linejoin:miter;stroke-opacity:1"/>
<path class="bond-19 atom-19 atom-20" d="M 240.8,128.7 L 232.3,136.9" style="fill:none;fill-rule:evenodd;stroke:#000000;stroke-width:2.0px;stroke-linecap:butt;stroke-linejoin:miter;stroke-opacity:1"/>
<path class="bond-19 atom-19 atom-20" d="M 232.3,136.9 L 223.8,145.1" style="fill:none;fill-rule:evenodd;stroke:#FF0000;stroke-width:2.0px;stroke-linecap:butt;stroke-linejoin:miter;stroke-opacity:1"/>
<path class="bond-20 atom-19 atom-21" d="M 238.4,128.0 L 249.9,131.4" style="fill:none;fill-rule:evenodd;stroke:#000000;stroke-width:2.0px;stroke-linecap:butt;stroke-linejoin:miter;stroke-opacity:1"/>
<path class="bond-20 atom-19 atom-21" d="M 249.9,131.4 L 261.5,134.7" style="fill:none;fill-rule:evenodd;stroke:#FF0000;stroke-width:2.0px;stroke-linecap:butt;stroke-linejoin:miter;stroke-opacity:1"/>
<path d="M 41.3,121.2 L 42.7,120.9 L 43.1,119.5" style="fill:none;stroke:#000000;stroke-width:2.0px;stroke-linecap:butt;stroke-linejoin:miter;stroke-opacity:1;"/>
<path d="M 50.4,94.4 L 50.8,93.1 L 52.2,92.7" style="fill:none;stroke:#000000;stroke-width:2.0px;stroke-linecap:butt;stroke-linejoin:miter;stroke-opacity:1;"/>
<path d="M 105.6,79.5 L 107.0,79.1 L 108.0,80.2" style="fill:none;stroke:#000000;stroke-width:2.0px;stroke-linecap:butt;stroke-linejoin:miter;stroke-opacity:1;"/>
<path d="M 119.4,126.4 L 119.0,127.8 L 120.0,128.8" style="fill:none;stroke:#000000;stroke-width:2.0px;stroke-linecap:butt;stroke-linejoin:miter;stroke-opacity:1;"/>
<path d="M 181.8,86.4 L 183.2,86.1 L 184.2,87.1" style="fill:none;stroke:#000000;stroke-width:2.0px;stroke-linecap:butt;stroke-linejoin:miter;stroke-opacity:1;"/>
<path d="M 202.3,105.9 L 203.3,106.9 L 204.7,106.6" style="fill:none;stroke:#000000;stroke-width:2.0px;stroke-linecap:butt;stroke-linejoin:miter;stroke-opacity:1;"/>
<path d="M 224.8,73.2 L 224.5,71.8 L 224.9,71.5" style="fill:none;stroke:#000000;stroke-width:2.0px;stroke-linecap:butt;stroke-linejoin:miter;stroke-opacity:1;"/>
<path d="M 238.0,126.6 L 238.4,128.0 L 239.0,128.2" style="fill:none;stroke:#000000;stroke-width:2.0px;stroke-linecap:butt;stroke-linejoin:miter;stroke-opacity:1;"/>
<path class="atom-18" d="M 241.5 51.8 Q 241.5 49.8, 242.5 48.7 Q 243.5 47.6, 245.3 47.6 Q 247.1 47.6, 248.1 48.7 Q 249.1 49.8, 249.1 51.8 Q 249.1 53.8, 248.1 54.9 Q 247.1 56.0, 245.3 56.0 Q 243.5 56.0, 242.5 54.9 Q 241.5 53.8, 241.5 51.8 M 245.3 55.1 Q 246.6 55.1, 247.2 54.3 Q 247.9 53.4, 247.9 51.8 Q 247.9 50.2, 247.2 49.4 Q 246.6 48.5, 245.3 48.5 Q 244.1 48.5, 243.4 49.3 Q 242.7 50.2, 242.7 51.8 Q 242.7 53.4, 243.4 54.3 Q 244.1 55.1, 245.3 55.1 " fill="#FF0000"/>
<path class="atom-18" d="M 250.3 47.7 L 251.5 47.7 L 251.5 51.2 L 255.6 51.2 L 255.6 47.7 L 256.8 47.7 L 256.8 55.9 L 255.6 55.9 L 255.6 52.1 L 251.5 52.1 L 251.5 55.9 L 250.3 55.9 L 250.3 47.7 " fill="#FF0000"/>
<path class="atom-20" d="M 213.8 148.1 Q 213.8 146.2, 214.7 145.1 Q 215.7 144.0, 217.5 144.0 Q 219.3 144.0, 220.3 145.1 Q 221.3 146.2, 221.3 148.1 Q 221.3 150.1, 220.3 151.3 Q 219.3 152.4, 217.5 152.4 Q 215.7 152.4, 214.7 151.3 Q 213.8 150.1, 213.8 148.1 M 217.5 151.5 Q 218.8 151.5, 219.5 150.6 Q 220.1 149.8, 220.1 148.1 Q 220.1 146.5, 219.5 145.7 Q 218.8 144.9, 217.5 144.9 Q 216.3 144.9, 215.6 145.7 Q 214.9 146.5, 214.9 148.1 Q 214.9 149.8, 215.6 150.6 Q 216.3 151.5, 217.5 151.5 " fill="#FF0000"/>
<path class="atom-21" d="M 262.4 136.1 Q 262.4 134.1, 263.4 133.0 Q 264.4 131.9, 266.2 131.9 Q 268.0 131.9, 269.0 133.0 Q 270.0 134.1, 270.0 136.1 Q 270.0 138.1, 269.0 139.2 Q 268.0 140.3, 266.2 140.3 Q 264.4 140.3, 263.4 139.2 Q 262.4 138.1, 262.4 136.1 M 266.2 139.4 Q 267.4 139.4, 268.1 138.6 Q 268.8 137.7, 268.8 136.1 Q 268.8 134.5, 268.1 133.7 Q 267.4 132.8, 266.2 132.8 Q 264.9 132.8, 264.3 133.6 Q 263.6 134.5, 263.6 136.1 Q 263.6 137.7, 264.3 138.6 Q 264.9 139.4, 266.2 139.4 " fill="#FF0000"/>
<path class="atom-21" d="M 271.2 132.0 L 272.3 132.0 L 272.3 135.5 L 276.5 135.5 L 276.5 132.0 L 277.7 132.0 L 277.7 140.2 L 276.5 140.2 L 276.5 136.4 L 272.3 136.4 L 272.3 140.2 L 271.2 140.2 L 271.2 132.0 " fill="#FF0000"/>
</svg>
