<?xml version='1.0' encoding='ASCII' standalone='yes'?>
<svg xmlns="http://www.w3.org/2000/svg" xmlns:rdkit="http://www.rdkit.org/xml" xmlns:xlink="http://www.w3.org/1999/xlink" version="1.1" baseProfile="full" xml:space="preserve" width="297px" height="200px" viewBox="0 0 297 200">
<!-- END OF HEADER -->
<rect style="opacity:1.0;fill:#FFFFFF;stroke:none" width="297.0" height="200.0" x="0.0" y="0.0"> </rect>
<path class="bond-0 atom-0 atom-1" d="M 43.1,62.8 L 63.1,80.9" style="fill:none;fill-rule:evenodd;stroke:#000000;stroke-width:2.0px;stroke-linecap:butt;stroke-linejoin:miter;stroke-opacity:1"/>
<path class="bond-1 atom-1 atom-2" d="M 63.1,80.9 L 73.7,77.5" style="fill:none;fill-rule:evenodd;stroke:#000000;stroke-width:2.0px;stroke-linecap:butt;stroke-linejoin:miter;stroke-opacity:1"/>
<path class="bond-1 atom-1 atom-2" d="M 73.7,77.5 L 84.4,74.1" style="fill:none;fill-rule:evenodd;stroke:#FF0000;stroke-width:2.0px;stroke-linecap:butt;stroke-linejoin:miter;stroke-opacity:1"/>
<path class="bond-2 atom-2 atom-3" d="M 93.1,76.7 L 100.9,83.8" style="fill:none;fill-rule:evenodd;stroke:#FF0000;stroke-width:2.0px;stroke-linecap:butt;stroke-linejoin:miter;stroke-opacity:1"/>
<path class="bond-2 atom-2 atom-3" d="M 100.9,83.8 L 108.7,90.9" style="fill:none;fill-rule:evenodd;stroke:#000000;stroke-width:2.0px;stroke-linecap:butt;stroke-linejoin:miter;stroke-opacity:1"/>
<path class="bond-3 atom-3 atom-4" d="M 108.7,90.9 L 134.4,82.7" style="fill:none;fill-rule:evenodd;stroke:#000000;stroke-width:2.0px;stroke-linecap:butt;stroke-linejoin:miter;stroke-opacity:1"/>
<path class="bond-4 atom-4 atom-5" d="M 134.4,82.7 L 126.2,57.0" style="fill:none;fill-rule:evenodd;stroke:#000000;stroke-width:2.0px;stroke-linecap:butt;stroke-linejoin:miter;stroke-opacity:1"/>
<path class="bond-5 atom-4 atom-6" d="M 134.4,82.7 L 142.5,108.4" style="fill:none;fill-rule:evenodd;stroke:#000000;stroke-width:2.0px;stroke-linecap:butt;stroke-linejoin:miter;stroke-opacity:1"/>
<path class="bond-6 atom-4 atom-7" d="M 134.4,82.7 L 160.0,74.5" style="fill:none;fill-rule:evenodd;stroke:#000000;stroke-width:2.0px;stroke-linecap:butt;stroke-linejoin:miter;stroke-opacity:1"/>
<path class="bond-7 atom-7 atom-8" d="M 160.0,74.5 L 162.4,63.8" style="fill:none;fill-rule:evenodd;stroke:#000000;stroke-width:2.0px;stroke-linecap:butt;stroke-linejoin:miter;stroke-opacity:1"/>
<path class="bond-7 atom-7 atom-8" d="M 162.4,63.8 L 164.7,53.0" style="fill:none;fill-rule:evenodd;stroke:#FF0000;stroke-width:2.0px;stroke-linecap:butt;stroke-linejoin:miter;stroke-opacity:1"/>
<path class="bond-8 atom-7 atom-9" d="M 160.0,74.5 L 167.8,81.6" style="fill:none;fill-rule:evenodd;stroke:#000000;stroke-width:2.0px;stroke-linecap:butt;stroke-linejoin:miter;stroke-opacity:1"/>
<path class="bond-8 atom-7 atom-9" d="M 167.8,81.6 L 175.6,88.6" style="fill:none;fill-rule:evenodd;stroke:#FF0000;stroke-width:2.0px;stroke-linecap:butt;stroke-linejoin:miter;stroke-opacity:1"/>
<path class="bond-9 atom-9 atom-10" d="M 184.4,91.2 L 195.0,87.8" style="fill:none;fill-rule:evenodd;stroke:#FF0000;stroke-width:2.0px;stroke-linecap:butt;stroke-linejoin:miter;stroke-opacity:1"/>
<path class="bond-9 atom-9 atom-10" d="M 195.0,87.8 L 205.6,84.5" style="fill:none;fill-rule:evenodd;stroke:#000000;stroke-width:2.0px;stroke-linecap:butt;stroke-linejoin:miter;stroke-opacity:1"/>
<path class="bond-10 atom-10 atom-11" d="M 205.6,84.5 L 225.6,102.6" style="fill:none;fill-rule:evenodd;stroke:#000000;stroke-width:2.0px;stroke-linecap:butt;stroke-linejoin:miter;stroke-opacity:1"/>
<path class="bond-11 atom-11 atom-12" d="M 225.6,102.6 L 207.4,122.5" style="fill:none;fill-rule:evenodd;stroke:#000000;stroke-width:2.0px;stroke-linecap:butt;stroke-linejoin:miter;stroke-opacity:1"/>
<path class="bond-12 atom-11 atom-13" d="M 225.6,102.6 L 243.7,82.7" style="fill:none;fill-rule:evenodd;stroke:#000000;stroke-width:2.0px;stroke-linecap:butt;stroke-linejoin:miter;stroke-opacity:1"/>
<path class="bond-13 atom-11 atom-14" d="M 225.6,102.6 L 245.5,120.7" style="fill:none;fill-rule:evenodd;stroke:#000000;stroke-width:2.0px;stroke-linecap:butt;stroke-linejoin:miter;stroke-opacity:1"/>
<path class="bond-14 atom-14 atom-15" d="M 245.5,120.7 L 243.1,131.5" style="fill:none;fill-rule:evenodd;stroke:#000000;stroke-width:2.0px;stroke-linecap:butt;stroke-linejoin:miter;stroke-opacity:1"/>
<path class="bond-14 atom-14 atom-15" d="M 243.1,131.5 L 240.8,142.3" style="fill:none;fill-rule:evenodd;stroke:#FF0000;stroke-width:2.0px;stroke-linecap:butt;stroke-linejoin:miter;stroke-opacity:1"/>
<path class="bond-15 atom-14 atom-16" d="M 245.5,120.7 L 256.1,117.4" style="fill:none;fill-rule:evenodd;stroke:#000000;stroke-width:2.0px;stroke-linecap:butt;stroke-linejoin:miter;stroke-opacity:1"/>
<path class="bond-15 atom-14 atom-16" d="M 256.1,117.4 L 266.8,114.0" style="fill:none;fill-rule:evenodd;stroke:#FF0000;stroke-width:2.0px;stroke-linecap:butt;stroke-linejoin:miter;stroke-opacity:1"/>
<path class="bond-16 atom-1 atom-17" d="M 63.1,80.9 L 57.3,107.2" style="fill:none;fill-rule:evenodd;stroke:#000000;stroke-width:2.0px;stroke-linecap:butt;stroke-linejoin:miter;stroke-opacity:1"/>
<path class="bond-17 atom-17 atom-18" d="M 57.3,107.2 L 31.0,101.5" style="fill:none;fill-rule:evenodd;stroke:#000000;stroke-width:2.0px;stroke-linecap:butt;stroke-linejoin:miter;stroke-opacity:1"/>
<path class="bond-18 atom-17 atom-19" d="M 57.3,107.2 L 83.7,113.0" style="fill:none;fill-rule:evenodd;stroke:#000000;stroke-width:2.0px;stroke-linecap:butt;stroke-linejoin:miter;stroke-opacity:1"/>
<path class="bond-19 atom-17 atom-20" d="M 57.3,107.2 L 51.6,133.6" style="fill:none;fill-rule:evenodd;stroke:#000000;stroke-width:2.0px;stroke-linecap:butt;stroke-linejoin:miter;stroke-opacity:1"/>
<path class="bond-20 atom-20 atom-21" d="M 49.3,134.3 L 57.5,141.7" style="fill:none;fill-rule:evenodd;stroke:#000000;stroke-width:2.0px;stroke-linecap:butt;stroke-linejoin:miter;stroke-opacity:1"/>
<path class="bond-20 atom-20 atom-21" d="M 57.5,141.7 L 65.7,149.2" style="fill:none;fill-rule:evenodd;stroke:#FF0000;stroke-width:2.0px;stroke-linecap:butt;stroke-linejoin:miter;stroke-opacity:1"/>
<path class="bond-20 atom-20 atom-21" d="M 52.1,131.3 L 60.3,138.8" style="fill:none;fill-rule:evenodd;stroke:#000000;stroke-width:2.0px;stroke-linecap:butt;stroke-linejoin:miter;stroke-opacity:1"/>
<path class="bond-20 atom-20 atom-21" d="M 60.3,138.8 L 68.5,146.2" style="fill:none;fill-rule:evenodd;stroke:#FF0000;stroke-width:2.0px;stroke-linecap:butt;stroke-linejoin:miter;stroke-opacity:1"/>
<path class="bond-21 atom-20 atom-22" d="M 51.6,133.6 L 40.9,137.0" style="fill:none;fill-rule:evenodd;stroke:#000000;stroke-width:2.0px;stroke-linecap:butt;stroke-linejoin:miter;stroke-opacity:1"/>
<path class="bond-21 atom-20 atom-22" d="M 40.9,137.0 L 30.3,140.4" style="fill:none;fill-rule:evenodd;stroke:#FF0000;stroke-width:2.0px;stroke-linecap:butt;stroke-linejoin:miter;stroke-opacity:1"/>
<path d="M 108.3,90.5 L 108.7,90.9 L 110.0,90.5" style="fill:none;stroke:#000000;stroke-width:2.0px;stroke-linecap:butt;stroke-linejoin:miter;stroke-opacity:1;"/>
<path d="M 205.1,84.6 L 205.6,84.5 L 206.6,85.4" style="fill:none;stroke:#000000;stroke-width:2.0px;stroke-linecap:butt;stroke-linejoin:miter;stroke-opacity:1;"/>
<path d="M 51.9,132.3 L 51.6,133.6 L 51.0,133.7" style="fill:none;stroke:#000000;stroke-width:2.0px;stroke-linecap:butt;stroke-linejoin:miter;stroke-opacity:1;"/>
<path class="atom-2" d="M 85.2 72.7 Q 85.2 70.9, 86.2 69.9 Q 87.1 68.9, 88.8 68.9 Q 90.4 68.9, 91.3 69.9 Q 92.3 70.9, 92.3 72.7 Q 92.3 74.6, 91.3 75.7 Q 90.4 76.7, 88.8 76.7 Q 87.1 76.7, 86.2 75.7 Q 85.2 74.6, 85.2 72.7 M 88.8 75.8 Q 89.9 75.8, 90.5 75.1 Q 91.2 74.3, 91.2 72.7 Q 91.2 71.2, 90.5 70.5 Q 89.9 69.7, 88.8 69.7 Q 87.6 69.7, 86.9 70.5 Q 86.3 71.2, 86.3 72.7 Q 86.3 74.3, 86.9 75.1 Q 87.6 75.8, 88.8 75.8 " fill="#FF0000"/>
<path class="atom-8" d="M 162.3 48.2 Q 162.3 46.4, 163.2 45.3 Q 164.1 44.3, 165.8 44.3 Q 167.5 44.3, 168.4 45.3 Q 169.3 46.4, 169.3 48.2 Q 169.3 50.0, 168.4 51.1 Q 167.5 52.1, 165.8 52.1 Q 164.1 52.1, 163.2 51.1 Q 162.3 50.0, 162.3 48.2 M 165.8 51.3 Q 167.0 51.3, 167.6 50.5 Q 168.2 49.7, 168.2 48.2 Q 168.2 46.7, 167.6 45.9 Q 167.0 45.2, 165.8 45.2 Q 164.6 45.2, 164.0 45.9 Q 163.4 46.7, 163.4 48.2 Q 163.4 49.7, 164.0 50.5 Q 164.6 51.3, 165.8 51.3 " fill="#FF0000"/>
<path class="atom-8" d="M 170.5 44.4 L 171.5 44.4 L 171.5 47.6 L 175.4 47.6 L 175.4 44.4 L 176.5 44.4 L 176.5 52.0 L 175.4 52.0 L 175.4 48.5 L 171.5 48.5 L 171.5 52.0 L 170.5 52.0 L 170.5 44.4 " fill="#FF0000"/>
<path class="atom-9" d="M 176.5 92.7 Q 176.5 90.8, 177.4 89.8 Q 178.3 88.8, 180.0 88.8 Q 181.7 88.8, 182.6 89.8 Q 183.5 90.8, 183.5 92.7 Q 183.5 94.5, 182.6 95.6 Q 181.6 96.6, 180.0 96.6 Q 178.3 96.6, 177.4 95.6 Q 176.5 94.5, 176.5 92.7 M 180.0 95.8 Q 181.1 95.8, 181.8 95.0 Q 182.4 94.2, 182.4 92.7 Q 182.4 91.2, 181.8 90.4 Q 181.1 89.6, 180.0 89.6 Q 178.8 89.6, 178.2 90.4 Q 177.5 91.2, 177.5 92.7 Q 177.5 94.2, 178.2 95.0 Q 178.8 95.8, 180.0 95.8 " fill="#FF0000"/>
<path class="atom-15" d="M 236.3 147.1 Q 236.3 145.3, 237.2 144.2 Q 238.1 143.2, 239.8 143.2 Q 241.4 143.2, 242.4 144.2 Q 243.3 145.3, 243.3 147.1 Q 243.3 149.0, 242.3 150.0 Q 241.4 151.1, 239.8 151.1 Q 238.1 151.1, 237.2 150.0 Q 236.3 149.0, 236.3 147.1 M 239.8 150.2 Q 240.9 150.2, 241.5 149.4 Q 242.2 148.6, 242.2 147.1 Q 242.2 145.6, 241.5 144.8 Q 240.9 144.1, 239.8 144.1 Q 238.6 144.1, 238.0 144.8 Q 237.3 145.6, 237.3 147.1 Q 237.3 148.6, 238.0 149.4 Q 238.6 150.2, 239.8 150.2 " fill="#FF0000"/>
<path class="atom-15" d="M 244.4 143.3 L 245.5 143.3 L 245.5 146.5 L 249.4 146.5 L 249.4 143.3 L 250.4 143.3 L 250.4 150.9 L 249.4 150.9 L 249.4 147.4 L 245.5 147.4 L 245.5 150.9 L 244.4 150.9 L 244.4 143.3 " fill="#FF0000"/>
<path class="atom-16" d="M 267.7 112.6 Q 267.7 110.7, 268.6 109.7 Q 269.5 108.7, 271.2 108.7 Q 272.9 108.7, 273.8 109.7 Q 274.7 110.7, 274.7 112.6 Q 274.7 114.4, 273.8 115.5 Q 272.9 116.5, 271.2 116.5 Q 269.5 116.5, 268.6 115.5 Q 267.7 114.4, 267.7 112.6 M 271.2 115.7 Q 272.3 115.7, 273.0 114.9 Q 273.6 114.1, 273.6 112.6 Q 273.6 111.1, 273.0 110.3 Q 272.3 109.6, 271.2 109.6 Q 270.0 109.6, 269.4 110.3 Q 268.8 111.1, 268.8 112.6 Q 268.8 114.1, 269.4 114.9 Q 270.0 115.7, 271.2 115.7 " fill="#FF0000"/>
<path class="atom-16" d="M 275.9 108.8 L 276.9 108.8 L 276.9 112.0 L 280.8 112.0 L 280.8 108.8 L 281.9 108.8 L 281.9 116.4 L 280.8 116.4 L 280.8 112.9 L 276.9 112.9 L 276.9 116.4 L 275.9 116.4 L 275.9 108.8 " fill="#FF0000"/>
<path class="atom-21" d="M 68.0 151.7 Q 68.0 149.9, 68.9 148.9 Q 69.8 147.9, 71.5 147.9 Q 73.2 147.9, 74.1 148.9 Q 75.0 149.9, 75.0 151.7 Q 75.0 153.6, 74.1 154.7 Q 73.2 155.7, 71.5 155.7 Q 69.8 155.7, 68.9 154.7 Q 68.0 153.6, 68.0 151.7 M 71.5 154.8 Q 72.7 154.8, 73.3 154.1 Q 73.9 153.3, 73.9 151.7 Q 73.9 150.2, 73.3 149.5 Q 72.7 148.7, 71.5 148.7 Q 70.3 148.7, 69.7 149.5 Q 69.1 150.2, 69.1 151.7 Q 69.1 153.3, 69.7 154.1 Q 70.3 154.8, 71.5 154.8 " fill="#FF0000"/>
<path class="atom-22" d="M 14.9 138.0 L 15.9 138.0 L 15.9 141.2 L 19.8 141.2 L 19.8 138.0 L 20.8 138.0 L 20.8 145.6 L 19.8 145.6 L 19.8 142.1 L 15.9 142.1 L 15.9 145.6 L 14.9 145.6 L 14.9 138.0 " fill="#FF0000"/>
<path class="atom-22" d="M 22.4 141.8 Q 22.4 139.9, 23.3 138.9 Q 24.2 137.9, 25.9 137.9 Q 27.6 137.9, 28.5 138.9 Q 29.4 139.9, 29.4 141.8 Q 29.4 143.6, 28.5 144.7 Q 27.6 145.7, 25.9 145.7 Q 24.2 145.7, 23.3 144.7 Q 22.4 143.6, 22.4 141.8 M 25.9 144.9 Q 27.1 144.9, 27.7 144.1 Q 28.3 143.3, 28.3 141.8 Q 28.3 140.3, 27.7 139.5 Q 27.1 138.8, 25.9 138.8 Q 24.7 138.8, 24.1 139.5 Q 23.5 140.3, 23.5 141.8 Q 23.5 143.3, 24.1 144.1 Q 24.7 144.9, 25.9 144.9 " fill="#FF0000"/>
</svg>
