<?xml version='1.0' encoding='ASCII' standalone='yes'?>
<svg xmlns="http://www.w3.org/2000/svg" xmlns:rdkit="http://www.rdkit.org/xml" xmlns:xlink="http://www.w3.org/1999/xlink" version="1.1" baseProfile="full" xml:space="preserve" width="240px" height="200px" viewBox="0 0 240 200">
<!-- END OF HEADER -->
<rect style="opacity:1.0;fill:#FFFFFF;stroke:none" width="240.0" height="200.0" x="0.0" y="0.0"> </rect>
<path class="bond-0 atom-0 atom-1" d="M 187.9,114.0 L 185.2,98.4" style="fill:none;fill-rule:evenodd;stroke:#FF0000;stroke-width:2.0px;stroke-linecap:butt;stroke-linejoin:miter;stroke-opacity:1"/>
<path class="bond-0 atom-0 atom-1" d="M 185.2,98.4 L 182.6,82.9" style="fill:none;fill-rule:evenodd;stroke:#000000;stroke-width:2.0px;stroke-linecap:butt;stroke-linejoin:miter;stroke-opacity:1"/>
<path class="bond-0 atom-0 atom-1" d="M 193.3,113.0 L 190.6,97.5" style="fill:none;fill-rule:evenodd;stroke:#FF0000;stroke-width:2.0px;stroke-linecap:butt;stroke-linejoin:miter;stroke-opacity:1"/>
<path class="bond-0 atom-0 atom-1" d="M 190.6,97.5 L 188.0,82.0" style="fill:none;fill-rule:evenodd;stroke:#000000;stroke-width:2.0px;stroke-linecap:butt;stroke-linejoin:miter;stroke-opacity:1"/>
<path class="bond-1 atom-1 atom-2" d="M 185.5,84.0 L 196.6,74.8" style="fill:none;fill-rule:evenodd;stroke:#000000;stroke-width:2.0px;stroke-linecap:butt;stroke-linejoin:miter;stroke-opacity:1"/>
<path class="bond-1 atom-1 atom-2" d="M 196.6,74.8 L 207.6,65.6" style="fill:none;fill-rule:evenodd;stroke:#FF0000;stroke-width:2.0px;stroke-linecap:butt;stroke-linejoin:miter;stroke-opacity:1"/>
<path class="bond-2 atom-1 atom-3" d="M 185.5,84.0 L 151.4,71.3" style="fill:none;fill-rule:evenodd;stroke:#000000;stroke-width:2.0px;stroke-linecap:butt;stroke-linejoin:miter;stroke-opacity:1"/>
<path class="bond-3 atom-3 atom-4" d="M 151.4,71.3 L 123.3,94.6" style="fill:none;fill-rule:evenodd;stroke:#000000;stroke-width:2.0px;stroke-linecap:butt;stroke-linejoin:miter;stroke-opacity:1"/>
<path class="bond-4 atom-4 atom-5" d="M 123.3,94.6 L 129.5,130.5" style="fill:none;fill-rule:evenodd;stroke:#000000;stroke-width:2.0px;stroke-linecap:butt;stroke-linejoin:miter;stroke-opacity:1"/>
<path class="bond-5 atom-5 atom-6" d="M 127.0,132.5 L 141.9,138.0" style="fill:none;fill-rule:evenodd;stroke:#000000;stroke-width:2.0px;stroke-linecap:butt;stroke-linejoin:miter;stroke-opacity:1"/>
<path class="bond-5 atom-5 atom-6" d="M 141.9,138.0 L 156.7,143.5" style="fill:none;fill-rule:evenodd;stroke:#FF0000;stroke-width:2.0px;stroke-linecap:butt;stroke-linejoin:miter;stroke-opacity:1"/>
<path class="bond-5 atom-5 atom-6" d="M 128.9,127.4 L 143.8,132.9" style="fill:none;fill-rule:evenodd;stroke:#000000;stroke-width:2.0px;stroke-linecap:butt;stroke-linejoin:miter;stroke-opacity:1"/>
<path class="bond-5 atom-5 atom-6" d="M 143.8,132.9 L 158.6,138.4" style="fill:none;fill-rule:evenodd;stroke:#FF0000;stroke-width:2.0px;stroke-linecap:butt;stroke-linejoin:miter;stroke-opacity:1"/>
<path class="bond-6 atom-5 atom-7" d="M 129.5,130.5 L 118.4,139.7" style="fill:none;fill-rule:evenodd;stroke:#000000;stroke-width:2.0px;stroke-linecap:butt;stroke-linejoin:miter;stroke-opacity:1"/>
<path class="bond-6 atom-5 atom-7" d="M 118.4,139.7 L 107.3,148.9" style="fill:none;fill-rule:evenodd;stroke:#FF0000;stroke-width:2.0px;stroke-linecap:butt;stroke-linejoin:miter;stroke-opacity:1"/>
<path class="bond-7 atom-4 atom-8" d="M 123.3,94.6 L 89.1,82.0" style="fill:none;fill-rule:evenodd;stroke:#000000;stroke-width:2.0px;stroke-linecap:butt;stroke-linejoin:miter;stroke-opacity:1"/>
<path class="bond-8 atom-8 atom-9" d="M 92.1,83.1 L 89.5,67.6" style="fill:none;fill-rule:evenodd;stroke:#000000;stroke-width:2.0px;stroke-linecap:butt;stroke-linejoin:miter;stroke-opacity:1"/>
<path class="bond-8 atom-8 atom-9" d="M 89.5,67.6 L 86.8,52.2" style="fill:none;fill-rule:evenodd;stroke:#FF0000;stroke-width:2.0px;stroke-linecap:butt;stroke-linejoin:miter;stroke-opacity:1"/>
<path class="bond-8 atom-8 atom-9" d="M 86.7,84.0 L 84.1,68.5" style="fill:none;fill-rule:evenodd;stroke:#000000;stroke-width:2.0px;stroke-linecap:butt;stroke-linejoin:miter;stroke-opacity:1"/>
<path class="bond-8 atom-8 atom-9" d="M 84.1,68.5 L 81.4,53.1" style="fill:none;fill-rule:evenodd;stroke:#FF0000;stroke-width:2.0px;stroke-linecap:butt;stroke-linejoin:miter;stroke-opacity:1"/>
<path class="bond-9 atom-8 atom-10" d="M 89.1,82.0 L 61.1,105.2" style="fill:none;fill-rule:evenodd;stroke:#000000;stroke-width:2.0px;stroke-linecap:butt;stroke-linejoin:miter;stroke-opacity:1"/>
<path class="bond-10 atom-10 atom-11" d="M 61.1,105.2 L 47.0,100.0" style="fill:none;fill-rule:evenodd;stroke:#000000;stroke-width:2.0px;stroke-linecap:butt;stroke-linejoin:miter;stroke-opacity:1"/>
<path class="bond-10 atom-10 atom-11" d="M 47.0,100.0 L 32.9,94.8" style="fill:none;fill-rule:evenodd;stroke:#FF0000;stroke-width:2.0px;stroke-linecap:butt;stroke-linejoin:miter;stroke-opacity:1"/>
<path d="M 186.1,83.5 L 185.5,84.0 L 183.8,83.4" style="fill:none;stroke:#000000;stroke-width:2.0px;stroke-linecap:butt;stroke-linejoin:miter;stroke-opacity:1;"/>
<path d="M 153.1,72.0 L 151.4,71.3 L 150.0,72.5" style="fill:none;stroke:#000000;stroke-width:2.0px;stroke-linecap:butt;stroke-linejoin:miter;stroke-opacity:1;"/>
<path d="M 129.1,128.7 L 129.5,130.5 L 128.9,131.0" style="fill:none;stroke:#000000;stroke-width:2.0px;stroke-linecap:butt;stroke-linejoin:miter;stroke-opacity:1;"/>
<path d="M 90.9,82.6 L 89.1,82.0 L 87.7,83.1" style="fill:none;stroke:#000000;stroke-width:2.0px;stroke-linecap:butt;stroke-linejoin:miter;stroke-opacity:1;"/>
<path d="M 62.5,104.1 L 61.1,105.2 L 60.4,105.0" style="fill:none;stroke:#000000;stroke-width:2.0px;stroke-linecap:butt;stroke-linejoin:miter;stroke-opacity:1;"/>
<path class="atom-0" d="M 186.9 119.9 Q 186.9 117.5, 188.2 116.1 Q 189.4 114.7, 191.7 114.7 Q 194.0 114.7, 195.2 116.1 Q 196.4 117.5, 196.4 119.9 Q 196.4 122.4, 195.2 123.9 Q 193.9 125.3, 191.7 125.3 Q 189.4 125.3, 188.2 123.9 Q 186.9 122.5, 186.9 119.9 M 191.7 124.1 Q 193.2 124.1, 194.1 123.1 Q 194.9 122.0, 194.9 119.9 Q 194.9 117.9, 194.1 116.9 Q 193.2 115.9, 191.7 115.9 Q 190.1 115.9, 189.2 116.9 Q 188.4 117.9, 188.4 119.9 Q 188.4 122.0, 189.2 123.1 Q 190.1 124.1, 191.7 124.1 " fill="#FF0000"/>
<path class="atom-2" d="M 208.8 60.7 Q 208.8 58.3, 210.1 56.9 Q 211.3 55.5, 213.6 55.5 Q 215.9 55.5, 217.1 56.9 Q 218.3 58.3, 218.3 60.7 Q 218.3 63.3, 217.1 64.7 Q 215.8 66.1, 213.6 66.1 Q 211.3 66.1, 210.1 64.7 Q 208.8 63.3, 208.8 60.7 M 213.6 64.9 Q 215.2 64.9, 216.0 63.9 Q 216.9 62.8, 216.9 60.7 Q 216.9 58.7, 216.0 57.7 Q 215.2 56.7, 213.6 56.7 Q 212.0 56.7, 211.1 57.7 Q 210.3 58.7, 210.3 60.7 Q 210.3 62.8, 211.1 63.9 Q 212.0 64.9, 213.6 64.9 " fill="#FF0000"/>
<path class="atom-2" d="M 219.9 55.6 L 221.3 55.6 L 221.3 60.0 L 226.6 60.0 L 226.6 55.6 L 228.0 55.6 L 228.0 65.9 L 226.6 65.9 L 226.6 61.2 L 221.3 61.2 L 221.3 65.9 L 219.9 65.9 L 219.9 55.6 " fill="#FF0000"/>
<path class="atom-6" d="M 158.9 143.2 Q 158.9 140.7, 160.1 139.3 Q 161.3 138.0, 163.6 138.0 Q 165.9 138.0, 167.1 139.3 Q 168.4 140.7, 168.4 143.2 Q 168.4 145.7, 167.1 147.1 Q 165.9 148.6, 163.6 148.6 Q 161.4 148.6, 160.1 147.1 Q 158.9 145.7, 158.9 143.2 M 163.6 147.4 Q 165.2 147.4, 166.0 146.3 Q 166.9 145.3, 166.9 143.2 Q 166.9 141.2, 166.0 140.2 Q 165.2 139.1, 163.6 139.1 Q 162.1 139.1, 161.2 140.2 Q 160.3 141.2, 160.3 143.2 Q 160.3 145.3, 161.2 146.3 Q 162.1 147.4, 163.6 147.4 " fill="#FF0000"/>
<path class="atom-7" d="M 86.5 148.7 L 87.9 148.7 L 87.9 153.1 L 93.2 153.1 L 93.2 148.7 L 94.6 148.7 L 94.6 159.0 L 93.2 159.0 L 93.2 154.3 L 87.9 154.3 L 87.9 159.0 L 86.5 159.0 L 86.5 148.7 " fill="#FF0000"/>
<path class="atom-7" d="M 96.7 153.8 Q 96.7 151.4, 97.9 150.0 Q 99.1 148.6, 101.4 148.6 Q 103.7 148.6, 104.9 150.0 Q 106.1 151.4, 106.1 153.8 Q 106.1 156.3, 104.9 157.8 Q 103.7 159.2, 101.4 159.2 Q 99.1 159.2, 97.9 157.8 Q 96.7 156.4, 96.7 153.8 M 101.4 158.0 Q 103.0 158.0, 103.8 157.0 Q 104.7 155.9, 104.7 153.8 Q 104.7 151.8, 103.8 150.8 Q 103.0 149.7, 101.4 149.7 Q 99.8 149.7, 99.0 150.8 Q 98.1 151.8, 98.1 153.8 Q 98.1 155.9, 99.0 157.0 Q 99.8 158.0, 101.4 158.0 " fill="#FF0000"/>
<path class="atom-9" d="M 78.3 46.1 Q 78.3 43.6, 79.5 42.2 Q 80.7 40.8, 83.0 40.8 Q 85.3 40.8, 86.5 42.2 Q 87.8 43.6, 87.8 46.1 Q 87.8 48.6, 86.5 50.0 Q 85.3 51.4, 83.0 51.4 Q 80.7 51.4, 79.5 50.0 Q 78.3 48.6, 78.3 46.1 M 83.0 50.3 Q 84.6 50.3, 85.4 49.2 Q 86.3 48.1, 86.3 46.1 Q 86.3 44.0, 85.4 43.0 Q 84.6 42.0, 83.0 42.0 Q 81.4 42.0, 80.6 43.0 Q 79.7 44.0, 79.7 46.1 Q 79.7 48.2, 80.6 49.2 Q 81.4 50.3, 83.0 50.3 " fill="#FF0000"/>
<path class="atom-11" d="M 12.0 87.5 L 13.4 87.5 L 13.4 91.9 L 18.7 91.9 L 18.7 87.5 L 20.1 87.5 L 20.1 97.8 L 18.7 97.8 L 18.7 93.0 L 13.4 93.0 L 13.4 97.8 L 12.0 97.8 L 12.0 87.5 " fill="#FF0000"/>
<path class="atom-11" d="M 22.2 92.6 Q 22.2 90.1, 23.4 88.7 Q 24.6 87.4, 26.9 87.4 Q 29.2 87.4, 30.4 88.7 Q 31.7 90.1, 31.7 92.6 Q 31.7 95.1, 30.4 96.5 Q 29.2 98.0, 26.9 98.0 Q 24.7 98.0, 23.4 96.5 Q 22.2 95.1, 22.2 92.6 M 26.9 96.8 Q 28.5 96.8, 29.3 95.7 Q 30.2 94.7, 30.2 92.6 Q 30.2 90.6, 29.3 89.6 Q 28.5 88.5, 26.9 88.5 Q 25.4 88.5, 24.5 89.5 Q 23.6 90.6, 23.6 92.6 Q 23.6 94.7, 24.5 95.7 Q 25.4 96.8, 26.9 96.8 " fill="#FF0000"/>
</svg>
