<?xml version='1.0' encoding='ASCII' standalone='yes'?>
<svg xmlns="http://www.w3.org/2000/svg" xmlns:rdkit="http://www.rdkit.org/xml" xmlns:xlink="http://www.w3.org/1999/xlink" version="1.1" baseProfile="full" xml:space="preserve" width="254px" height="200px" viewBox="0 0 254 200">
<!-- END OF HEADER -->
<rect style="opacity:1.0;fill:#FFFFFF;stroke:none" width="254.0" height="200.0" x="0.0" y="0.0"> </rect>
<path class="bond-0 atom-0 atom-1" d="M 203.3,183.2 L 204.6,169.7" style="fill:none;fill-rule:evenodd;stroke:#191919;stroke-width:2.0px;stroke-linecap:butt;stroke-linejoin:miter;stroke-opacity:1"/>
<path class="bond-0 atom-0 atom-1" d="M 204.6,169.7 L 205.9,156.3" style="fill:none;fill-rule:evenodd;stroke:#FF0000;stroke-width:2.0px;stroke-linecap:butt;stroke-linejoin:miter;stroke-opacity:1"/>
<path class="bond-1 atom-1 atom-2" d="M 199.8,143.8 L 186.1,134.0" style="fill:none;fill-rule:evenodd;stroke:#FF0000;stroke-width:2.0px;stroke-linecap:butt;stroke-linejoin:miter;stroke-opacity:1"/>
<path class="bond-1 atom-1 atom-2" d="M 186.1,134.0 L 172.4,124.3" style="fill:none;fill-rule:evenodd;stroke:#000000;stroke-width:2.0px;stroke-linecap:butt;stroke-linejoin:miter;stroke-opacity:1"/>
<path class="bond-2 atom-2 atom-3" d="M 172.4,124.3 L 156.7,131.4" style="fill:none;fill-rule:evenodd;stroke:#000000;stroke-width:2.0px;stroke-linecap:butt;stroke-linejoin:miter;stroke-opacity:1"/>
<path class="bond-2 atom-2 atom-3" d="M 156.7,131.4 L 141.0,138.5" style="fill:none;fill-rule:evenodd;stroke:#FF0000;stroke-width:2.0px;stroke-linecap:butt;stroke-linejoin:miter;stroke-opacity:1"/>
<path class="bond-3 atom-3 atom-4" d="M 127.3,136.7 L 113.6,127.0" style="fill:none;fill-rule:evenodd;stroke:#FF0000;stroke-width:2.0px;stroke-linecap:butt;stroke-linejoin:miter;stroke-opacity:1"/>
<path class="bond-3 atom-3 atom-4" d="M 113.6,127.0 L 99.9,117.2" style="fill:none;fill-rule:evenodd;stroke:#000000;stroke-width:2.0px;stroke-linecap:butt;stroke-linejoin:miter;stroke-opacity:1"/>
<path class="bond-4 atom-4 atom-5" d="M 99.9,117.2 L 61.6,134.6" style="fill:none;fill-rule:evenodd;stroke:#000000;stroke-width:2.0px;stroke-linecap:butt;stroke-linejoin:miter;stroke-opacity:1"/>
<path class="bond-5 atom-5 atom-6" d="M 64.9,133.1 L 50.5,122.7" style="fill:none;fill-rule:evenodd;stroke:#000000;stroke-width:2.0px;stroke-linecap:butt;stroke-linejoin:miter;stroke-opacity:1"/>
<path class="bond-5 atom-5 atom-6" d="M 50.5,122.7 L 36.1,112.4" style="fill:none;fill-rule:evenodd;stroke:#FF0000;stroke-width:2.0px;stroke-linecap:butt;stroke-linejoin:miter;stroke-opacity:1"/>
<path class="bond-5 atom-5 atom-6" d="M 61.2,138.2 L 46.8,127.9" style="fill:none;fill-rule:evenodd;stroke:#000000;stroke-width:2.0px;stroke-linecap:butt;stroke-linejoin:miter;stroke-opacity:1"/>
<path class="bond-5 atom-5 atom-6" d="M 46.8,127.9 L 32.4,117.6" style="fill:none;fill-rule:evenodd;stroke:#FF0000;stroke-width:2.0px;stroke-linecap:butt;stroke-linejoin:miter;stroke-opacity:1"/>
<path class="bond-6 atom-5 atom-7" d="M 61.6,134.6 L 59.9,151.8" style="fill:none;fill-rule:evenodd;stroke:#000000;stroke-width:2.0px;stroke-linecap:butt;stroke-linejoin:miter;stroke-opacity:1"/>
<path class="bond-6 atom-5 atom-7" d="M 59.9,151.8 L 58.2,169.0" style="fill:none;fill-rule:evenodd;stroke:#FF0000;stroke-width:2.0px;stroke-linecap:butt;stroke-linejoin:miter;stroke-opacity:1"/>
<path class="bond-7 atom-4 atom-8" d="M 99.9,117.2 L 104.0,75.3" style="fill:none;fill-rule:evenodd;stroke:#000000;stroke-width:2.0px;stroke-linecap:butt;stroke-linejoin:miter;stroke-opacity:1"/>
<path class="bond-8 atom-8 atom-9" d="M 104.0,75.3 L 90.3,65.5" style="fill:none;fill-rule:evenodd;stroke:#000000;stroke-width:2.0px;stroke-linecap:butt;stroke-linejoin:miter;stroke-opacity:1"/>
<path class="bond-8 atom-8 atom-9" d="M 90.3,65.5 L 76.6,55.7" style="fill:none;fill-rule:evenodd;stroke:#FF0000;stroke-width:2.0px;stroke-linecap:butt;stroke-linejoin:miter;stroke-opacity:1"/>
<path class="bond-9 atom-8 atom-10" d="M 104.0,75.3 L 142.3,57.9" style="fill:none;fill-rule:evenodd;stroke:#000000;stroke-width:2.0px;stroke-linecap:butt;stroke-linejoin:miter;stroke-opacity:1"/>
<path class="bond-10 atom-10 atom-11" d="M 142.3,57.9 L 144.0,40.8" style="fill:none;fill-rule:evenodd;stroke:#000000;stroke-width:2.0px;stroke-linecap:butt;stroke-linejoin:miter;stroke-opacity:1"/>
<path class="bond-10 atom-10 atom-11" d="M 144.0,40.8 L 145.7,23.6" style="fill:none;fill-rule:evenodd;stroke:#FF0000;stroke-width:2.0px;stroke-linecap:butt;stroke-linejoin:miter;stroke-opacity:1"/>
<path class="bond-11 atom-10 atom-12" d="M 142.3,57.9 L 176.5,82.4" style="fill:none;fill-rule:evenodd;stroke:#000000;stroke-width:2.0px;stroke-linecap:butt;stroke-linejoin:miter;stroke-opacity:1"/>
<path class="bond-12 atom-12 atom-13" d="M 176.5,82.4 L 192.3,75.2" style="fill:none;fill-rule:evenodd;stroke:#000000;stroke-width:2.0px;stroke-linecap:butt;stroke-linejoin:miter;stroke-opacity:1"/>
<path class="bond-12 atom-12 atom-13" d="M 192.3,75.2 L 208.0,68.1" style="fill:none;fill-rule:evenodd;stroke:#FF0000;stroke-width:2.0px;stroke-linecap:butt;stroke-linejoin:miter;stroke-opacity:1"/>
<path class="bond-13 atom-12 atom-2" d="M 176.5,82.4 L 172.4,124.3" style="fill:none;fill-rule:evenodd;stroke:#000000;stroke-width:2.0px;stroke-linecap:butt;stroke-linejoin:miter;stroke-opacity:1"/>
<path d="M 63.5,133.7 L 61.6,134.6 L 61.5,135.4" style="fill:none;stroke:#000000;stroke-width:2.0px;stroke-linecap:butt;stroke-linejoin:miter;stroke-opacity:1;"/>
<path class="atom-0" d="M 200.3 189.3 L 202.1 187.5 L 199.7 187.0 L 200.1 185.8 L 202.2 186.9 L 201.9 184.6 L 203.2 184.5 L 202.8 186.9 L 205.0 185.9 L 205.4 187.0 L 203.0 187.5 L 204.7 189.3 L 203.7 190.0 L 202.5 187.8 L 201.3 190.0 L 200.3 189.3 " fill="#191919"/>
<path class="atom-1" d="M 201.2 148.8 Q 201.2 145.9, 202.6 144.3 Q 204.0 142.7, 206.7 142.7 Q 209.3 142.7, 210.7 144.3 Q 212.1 145.9, 212.1 148.8 Q 212.1 151.7, 210.7 153.3 Q 209.3 154.9, 206.7 154.9 Q 204.0 154.9, 202.6 153.3 Q 201.2 151.7, 201.2 148.8 M 206.7 153.6 Q 208.5 153.6, 209.4 152.4 Q 210.4 151.2, 210.4 148.8 Q 210.4 146.4, 209.4 145.2 Q 208.5 144.1, 206.7 144.1 Q 204.8 144.1, 203.8 145.2 Q 202.9 146.4, 202.9 148.8 Q 202.9 151.2, 203.8 152.4 Q 204.8 153.6, 206.7 153.6 " fill="#FF0000"/>
<path class="atom-3" d="M 128.7 141.7 Q 128.7 138.8, 130.1 137.2 Q 131.5 135.6, 134.1 135.6 Q 136.8 135.6, 138.2 137.2 Q 139.6 138.8, 139.6 141.7 Q 139.6 144.6, 138.2 146.2 Q 136.7 147.9, 134.1 147.9 Q 131.5 147.9, 130.1 146.2 Q 128.7 144.6, 128.7 141.7 M 134.1 146.5 Q 135.9 146.5, 136.9 145.3 Q 137.9 144.1, 137.9 141.7 Q 137.9 139.3, 136.9 138.2 Q 135.9 137.0, 134.1 137.0 Q 132.3 137.0, 131.3 138.1 Q 130.3 139.3, 130.3 141.7 Q 130.3 144.1, 131.3 145.3 Q 132.3 146.5, 134.1 146.5 " fill="#FF0000"/>
<path class="atom-6" d="M 21.9 110.1 Q 21.9 107.3, 23.3 105.7 Q 24.7 104.1, 27.4 104.1 Q 30.0 104.1, 31.4 105.7 Q 32.9 107.3, 32.9 110.1 Q 32.9 113.0, 31.4 114.7 Q 30.0 116.3, 27.4 116.3 Q 24.8 116.3, 23.3 114.7 Q 21.9 113.0, 21.9 110.1 M 27.4 114.9 Q 29.2 114.9, 30.2 113.7 Q 31.2 112.5, 31.2 110.1 Q 31.2 107.8, 30.2 106.6 Q 29.2 105.4, 27.4 105.4 Q 25.6 105.4, 24.6 106.6 Q 23.6 107.8, 23.6 110.1 Q 23.6 112.5, 24.6 113.7 Q 25.6 114.9, 27.4 114.9 " fill="#FF0000"/>
<path class="atom-7" d="M 52.0 176.5 Q 52.0 173.6, 53.5 172.0 Q 54.9 170.4, 57.5 170.4 Q 60.2 170.4, 61.6 172.0 Q 63.0 173.6, 63.0 176.5 Q 63.0 179.4, 61.5 181.0 Q 60.1 182.6, 57.5 182.6 Q 54.9 182.6, 53.5 181.0 Q 52.0 179.4, 52.0 176.5 M 57.5 181.3 Q 59.3 181.3, 60.3 180.1 Q 61.3 178.9, 61.3 176.5 Q 61.3 174.1, 60.3 172.9 Q 59.3 171.8, 57.5 171.8 Q 55.7 171.8, 54.7 172.9 Q 53.7 174.1, 53.7 176.5 Q 53.7 178.9, 54.7 180.1 Q 55.7 181.3, 57.5 181.3 " fill="#FF0000"/>
<path class="atom-7" d="M 64.8 170.5 L 66.4 170.5 L 66.4 175.6 L 72.5 175.6 L 72.5 170.5 L 74.2 170.5 L 74.2 182.5 L 72.5 182.5 L 72.5 177.0 L 66.4 177.0 L 66.4 182.5 L 64.8 182.5 L 64.8 170.5 " fill="#FF0000"/>
<path class="atom-9" d="M 52.5 44.9 L 54.2 44.9 L 54.2 50.0 L 60.3 50.0 L 60.3 44.9 L 61.9 44.9 L 61.9 56.8 L 60.3 56.8 L 60.3 51.3 L 54.2 51.3 L 54.2 56.8 L 52.5 56.8 L 52.5 44.9 " fill="#FF0000"/>
<path class="atom-9" d="M 64.3 50.8 Q 64.3 48.0, 65.7 46.4 Q 67.1 44.8, 69.8 44.8 Q 72.4 44.8, 73.8 46.4 Q 75.3 48.0, 75.3 50.8 Q 75.3 53.7, 73.8 55.4 Q 72.4 57.0, 69.8 57.0 Q 67.2 57.0, 65.7 55.4 Q 64.3 53.8, 64.3 50.8 M 69.8 55.7 Q 71.6 55.7, 72.6 54.5 Q 73.6 53.2, 73.6 50.8 Q 73.6 48.5, 72.6 47.3 Q 71.6 46.1, 69.8 46.1 Q 68.0 46.1, 67.0 47.3 Q 66.0 48.5, 66.0 50.8 Q 66.0 53.3, 67.0 54.5 Q 68.0 55.7, 69.8 55.7 " fill="#FF0000"/>
<path class="atom-11" d="M 140.9 16.1 Q 140.9 13.2, 142.3 11.6 Q 143.8 10.0, 146.4 10.0 Q 149.0 10.0, 150.5 11.6 Q 151.9 13.2, 151.9 16.1 Q 151.9 19.0, 150.4 20.6 Q 149.0 22.2, 146.4 22.2 Q 143.8 22.2, 142.3 20.6 Q 140.9 19.0, 140.9 16.1 M 146.4 20.9 Q 148.2 20.9, 149.2 19.7 Q 150.2 18.4, 150.2 16.1 Q 150.2 13.7, 149.2 12.5 Q 148.2 11.3, 146.4 11.3 Q 144.6 11.3, 143.6 12.5 Q 142.6 13.7, 142.6 16.1 Q 142.6 18.5, 143.6 19.7 Q 144.6 20.9, 146.4 20.9 " fill="#FF0000"/>
<path class="atom-11" d="M 153.7 10.1 L 155.3 10.1 L 155.3 15.2 L 161.4 15.2 L 161.4 10.1 L 163.1 10.1 L 163.1 22.0 L 161.4 22.0 L 161.4 16.5 L 155.3 16.5 L 155.3 22.0 L 153.7 22.0 L 153.7 10.1 " fill="#FF0000"/>
<path class="atom-13" d="M 209.4 65.0 Q 209.4 62.2, 210.8 60.6 Q 212.2 59.0, 214.8 59.0 Q 217.5 59.0, 218.9 60.6 Q 220.3 62.2, 220.3 65.0 Q 220.3 67.9, 218.9 69.6 Q 217.4 71.2, 214.8 71.2 Q 212.2 71.2, 210.8 69.6 Q 209.4 67.9, 209.4 65.0 M 214.8 69.8 Q 216.7 69.8, 217.6 68.6 Q 218.6 67.4, 218.6 65.0 Q 218.6 62.7, 217.6 61.5 Q 216.7 60.3, 214.8 60.3 Q 213.0 60.3, 212.0 61.5 Q 211.1 62.7, 211.1 65.0 Q 211.1 67.4, 212.0 68.6 Q 213.0 69.8, 214.8 69.8 " fill="#FF0000"/>
<path class="atom-13" d="M 222.2 59.1 L 223.8 59.1 L 223.8 64.2 L 229.9 64.2 L 229.9 59.1 L 231.5 59.1 L 231.5 71.0 L 229.9 71.0 L 229.9 65.5 L 223.8 65.5 L 223.8 71.0 L 222.2 71.0 L 222.2 59.1 " fill="#FF0000"/>
</svg>
