<?xml version='1.0' encoding='ASCII' standalone='yes'?>
<svg xmlns="http://www.w3.org/2000/svg" xmlns:rdkit="http://www.rdkit.org/xml" xmlns:xlink="http://www.w3.org/1999/xlink" version="1.1" baseProfile="full" xml:space="preserve" width="240px" height="200px" viewBox="0 0 240 200">
<!-- END OF HEADER -->
<rect style="opacity:1.0;fill:#FFFFFF;stroke:none" width="240.0" height="200.0" x="0.0" y="0.0"> </rect>
<path class="bond-0 atom-0 atom-1" d="M 116.0,59.0 L 107.8,97.6" style="fill:none;fill-rule:evenodd;stroke:#000000;stroke-width:2.0px;stroke-linecap:butt;stroke-linejoin:miter;stroke-opacity:1"/>
<path class="bond-1 atom-1 atom-2" d="M 107.8,97.6 L 99.6,136.3" style="fill:none;fill-rule:evenodd;stroke:#000000;stroke-width:2.0px;stroke-linecap:butt;stroke-linejoin:miter;stroke-opacity:1"/>
<path class="bond-2 atom-1 atom-3" d="M 107.8,97.6 L 69.1,89.4" style="fill:none;fill-rule:evenodd;stroke:#000000;stroke-width:2.0px;stroke-linecap:butt;stroke-linejoin:miter;stroke-opacity:1"/>
<path class="bond-3 atom-3 atom-4" d="M 69.1,89.4 L 64.1,74.2" style="fill:none;fill-rule:evenodd;stroke:#000000;stroke-width:2.0px;stroke-linecap:butt;stroke-linejoin:miter;stroke-opacity:1"/>
<path class="bond-3 atom-3 atom-4" d="M 64.1,74.2 L 59.2,59.0" style="fill:none;fill-rule:evenodd;stroke:#FF0000;stroke-width:2.0px;stroke-linecap:butt;stroke-linejoin:miter;stroke-opacity:1"/>
<path class="bond-4 atom-3 atom-5" d="M 69.1,89.4 L 42.7,118.8" style="fill:none;fill-rule:evenodd;stroke:#000000;stroke-width:2.0px;stroke-linecap:butt;stroke-linejoin:miter;stroke-opacity:1"/>
<path class="bond-5 atom-5 atom-6" d="M 42.7,118.8 L 32.2,130.4" style="fill:none;fill-rule:evenodd;stroke:#000000;stroke-width:2.0px;stroke-linecap:butt;stroke-linejoin:miter;stroke-opacity:1"/>
<path class="bond-5 atom-5 atom-6" d="M 32.2,130.4 L 21.8,142.0" style="fill:none;fill-rule:evenodd;stroke:#0000FF;stroke-width:2.0px;stroke-linecap:butt;stroke-linejoin:miter;stroke-opacity:1"/>
<path class="bond-5 atom-5 atom-6" d="M 47.1,122.8 L 36.6,134.4" style="fill:none;fill-rule:evenodd;stroke:#000000;stroke-width:2.0px;stroke-linecap:butt;stroke-linejoin:miter;stroke-opacity:1"/>
<path class="bond-5 atom-5 atom-6" d="M 36.6,134.4 L 26.2,146.0" style="fill:none;fill-rule:evenodd;stroke:#0000FF;stroke-width:2.0px;stroke-linecap:butt;stroke-linejoin:miter;stroke-opacity:1"/>
<path class="bond-5 atom-5 atom-6" d="M 38.3,114.9 L 27.8,126.5" style="fill:none;fill-rule:evenodd;stroke:#000000;stroke-width:2.0px;stroke-linecap:butt;stroke-linejoin:miter;stroke-opacity:1"/>
<path class="bond-5 atom-5 atom-6" d="M 27.8,126.5 L 17.4,138.1" style="fill:none;fill-rule:evenodd;stroke:#0000FF;stroke-width:2.0px;stroke-linecap:butt;stroke-linejoin:miter;stroke-opacity:1"/>
<path class="bond-6 atom-1 atom-7" d="M 107.8,97.6 L 146.4,105.8" style="fill:none;fill-rule:evenodd;stroke:#000000;stroke-width:2.0px;stroke-linecap:butt;stroke-linejoin:miter;stroke-opacity:1"/>
<path class="bond-7 atom-7 atom-8" d="M 146.4,105.8 L 143.1,121.7" style="fill:none;fill-rule:evenodd;stroke:#000000;stroke-width:2.0px;stroke-linecap:butt;stroke-linejoin:miter;stroke-opacity:1"/>
<path class="bond-7 atom-7 atom-8" d="M 143.1,121.7 L 139.7,137.5" style="fill:none;fill-rule:evenodd;stroke:#FF0000;stroke-width:2.0px;stroke-linecap:butt;stroke-linejoin:miter;stroke-opacity:1"/>
<path class="bond-8 atom-7 atom-9" d="M 146.4,105.8 L 149.8,90.1" style="fill:none;fill-rule:evenodd;stroke:#000000;stroke-width:2.0px;stroke-linecap:butt;stroke-linejoin:miter;stroke-opacity:1"/>
<path class="bond-8 atom-7 atom-9" d="M 149.8,90.1 L 153.1,74.3" style="fill:none;fill-rule:evenodd;stroke:#FF0000;stroke-width:2.0px;stroke-linecap:butt;stroke-linejoin:miter;stroke-opacity:1"/>
<path class="bond-9 atom-7 atom-10" d="M 146.4,105.8 L 185.1,114.0" style="fill:none;fill-rule:evenodd;stroke:#000000;stroke-width:2.0px;stroke-linecap:butt;stroke-linejoin:miter;stroke-opacity:1"/>
<path class="bond-10 atom-10 atom-11" d="M 185.1,114.0 L 201.6,117.5" style="fill:none;fill-rule:evenodd;stroke:#000000;stroke-width:2.0px;stroke-linecap:butt;stroke-linejoin:miter;stroke-opacity:1"/>
<path class="bond-10 atom-10 atom-11" d="M 201.6,117.5 L 218.2,121.0" style="fill:none;fill-rule:evenodd;stroke:#0000FF;stroke-width:2.0px;stroke-linecap:butt;stroke-linejoin:miter;stroke-opacity:1"/>
<path class="bond-10 atom-10 atom-11" d="M 186.3,108.2 L 202.9,111.7" style="fill:none;fill-rule:evenodd;stroke:#000000;stroke-width:2.0px;stroke-linecap:butt;stroke-linejoin:miter;stroke-opacity:1"/>
<path class="bond-10 atom-10 atom-11" d="M 202.9,111.7 L 219.4,115.2" style="fill:none;fill-rule:evenodd;stroke:#0000FF;stroke-width:2.0px;stroke-linecap:butt;stroke-linejoin:miter;stroke-opacity:1"/>
<path class="bond-10 atom-10 atom-11" d="M 183.9,119.8 L 200.4,123.3" style="fill:none;fill-rule:evenodd;stroke:#000000;stroke-width:2.0px;stroke-linecap:butt;stroke-linejoin:miter;stroke-opacity:1"/>
<path class="bond-10 atom-10 atom-11" d="M 200.4,123.3 L 217.0,126.8" style="fill:none;fill-rule:evenodd;stroke:#0000FF;stroke-width:2.0px;stroke-linecap:butt;stroke-linejoin:miter;stroke-opacity:1"/>
<path d="M 44.0,117.4 L 42.7,118.8 L 42.1,119.4" style="fill:none;stroke:#000000;stroke-width:2.0px;stroke-linecap:butt;stroke-linejoin:miter;stroke-opacity:1;"/>
<path d="M 183.2,113.6 L 185.1,114.0 L 185.9,114.2" style="fill:none;stroke:#000000;stroke-width:2.0px;stroke-linecap:butt;stroke-linejoin:miter;stroke-opacity:1;"/>
<path class="atom-4" d="M 51.7 51.9 Q 51.7 49.2, 53.1 47.7 Q 54.4 46.2, 56.9 46.2 Q 59.3 46.2, 60.7 47.7 Q 62.0 49.2, 62.0 51.9 Q 62.0 54.6, 60.7 56.2 Q 59.3 57.7, 56.9 57.7 Q 54.4 57.7, 53.1 56.2 Q 51.7 54.6, 51.7 51.9 M 56.9 56.4 Q 58.6 56.4, 59.5 55.3 Q 60.4 54.1, 60.4 51.9 Q 60.4 49.7, 59.5 48.6 Q 58.6 47.5, 56.9 47.5 Q 55.2 47.5, 54.2 48.6 Q 53.3 49.7, 53.3 51.9 Q 53.3 54.1, 54.2 55.3 Q 55.2 56.4, 56.9 56.4 " fill="#FF0000"/>
<path class="atom-4" d="M 63.7 46.3 L 65.3 46.3 L 65.3 51.1 L 71.0 51.1 L 71.0 46.3 L 72.5 46.3 L 72.5 57.5 L 71.0 57.5 L 71.0 52.3 L 65.3 52.3 L 65.3 57.5 L 63.7 57.5 L 63.7 46.3 " fill="#FF0000"/>
<path class="atom-6" d="M 13.8 142.6 L 17.4 148.5 Q 17.8 149.1, 18.4 150.2 Q 19.0 151.2, 19.0 151.3 L 19.0 142.6 L 20.5 142.6 L 20.5 153.8 L 19.0 153.8 L 15.0 147.3 Q 14.6 146.6, 14.1 145.7 Q 13.6 144.8, 13.5 144.6 L 13.5 153.8 L 12.0 153.8 L 12.0 142.6 L 13.8 142.6 " fill="#0000FF"/>
<path class="atom-8" d="M 133.1 144.5 Q 133.1 141.8, 134.4 140.3 Q 135.8 138.8, 138.2 138.8 Q 140.7 138.8, 142.0 140.3 Q 143.4 141.8, 143.4 144.5 Q 143.4 147.2, 142.0 148.8 Q 140.7 150.3, 138.2 150.3 Q 135.8 150.3, 134.4 148.8 Q 133.1 147.2, 133.1 144.5 M 138.2 149.1 Q 139.9 149.1, 140.9 147.9 Q 141.8 146.8, 141.8 144.5 Q 141.8 142.3, 140.9 141.2 Q 139.9 140.1, 138.2 140.1 Q 136.5 140.1, 135.6 141.2 Q 134.7 142.3, 134.7 144.5 Q 134.7 146.8, 135.6 147.9 Q 136.5 149.1, 138.2 149.1 " fill="#FF0000"/>
<path class="atom-8" d="M 145.1 138.9 L 146.6 138.9 L 146.6 143.7 L 152.4 143.7 L 152.4 138.9 L 153.9 138.9 L 153.9 150.1 L 152.4 150.1 L 152.4 145.0 L 146.6 145.0 L 146.6 150.1 L 145.1 150.1 L 145.1 138.9 " fill="#FF0000"/>
<path class="atom-9" d="M 149.5 67.2 Q 149.5 64.5, 150.8 63.0 Q 152.1 61.5, 154.6 61.5 Q 157.1 61.5, 158.4 63.0 Q 159.8 64.5, 159.8 67.2 Q 159.8 69.9, 158.4 71.5 Q 157.1 73.0, 154.6 73.0 Q 152.2 73.0, 150.8 71.5 Q 149.5 69.9, 149.5 67.2 M 154.6 71.7 Q 156.3 71.7, 157.2 70.6 Q 158.2 69.4, 158.2 67.2 Q 158.2 65.0, 157.2 63.9 Q 156.3 62.8, 154.6 62.8 Q 152.9 62.8, 152.0 63.9 Q 151.1 65.0, 151.1 67.2 Q 151.1 69.4, 152.0 70.6 Q 152.9 71.7, 154.6 71.7 " fill="#FF0000"/>
<path class="atom-9" d="M 161.5 61.6 L 163.0 61.6 L 163.0 66.4 L 168.7 66.4 L 168.7 61.6 L 170.3 61.6 L 170.3 72.8 L 168.7 72.8 L 168.7 67.6 L 163.0 67.6 L 163.0 72.8 L 161.5 72.8 L 161.5 61.6 " fill="#FF0000"/>
<path class="atom-11" d="M 221.3 116.6 L 224.9 122.5 Q 225.3 123.1, 225.9 124.2 Q 226.5 125.2, 226.5 125.3 L 226.5 116.6 L 228.0 116.6 L 228.0 127.8 L 226.5 127.8 L 222.5 121.3 Q 222.1 120.6, 221.6 119.7 Q 221.1 118.8, 221.0 118.6 L 221.0 127.8 L 219.5 127.8 L 219.5 116.6 L 221.3 116.6 " fill="#0000FF"/>
</svg>
