<?xml version='1.0' encoding='ASCII' standalone='yes'?>
<svg xmlns="http://www.w3.org/2000/svg" xmlns:rdkit="http://www.rdkit.org/xml" xmlns:xlink="http://www.w3.org/1999/xlink" version="1.1" baseProfile="full" xml:space="preserve" width="289px" height="200px" viewBox="0 0 289 200">
<!-- END OF HEADER -->
<rect style="opacity:1.0;fill:#FFFFFF;stroke:none" width="289.0" height="200.0" x="0.0" y="0.0"> </rect>
<path class="bond-0 atom-0 atom-1" d="M 40.8,10.0 L 54.9,18.1" style="fill:none;fill-rule:evenodd;stroke:#000000;stroke-width:2.0px;stroke-linecap:butt;stroke-linejoin:miter;stroke-opacity:1"/>
<path class="bond-0 atom-0 atom-1" d="M 54.9,18.1 L 69.0,26.2" style="fill:none;fill-rule:evenodd;stroke:#FF0000;stroke-width:2.0px;stroke-linecap:butt;stroke-linejoin:miter;stroke-opacity:1"/>
<path class="bond-1 atom-1 atom-2" d="M 75.4,37.0 L 75.4,53.4" style="fill:none;fill-rule:evenodd;stroke:#FF0000;stroke-width:2.0px;stroke-linecap:butt;stroke-linejoin:miter;stroke-opacity:1"/>
<path class="bond-1 atom-1 atom-2" d="M 75.4,53.4 L 75.4,69.8" style="fill:none;fill-rule:evenodd;stroke:#000000;stroke-width:2.0px;stroke-linecap:butt;stroke-linejoin:miter;stroke-opacity:1"/>
<path class="bond-2 atom-2 atom-3" d="M 75.4,69.8 L 109.9,89.8" style="fill:none;fill-rule:evenodd;stroke:#000000;stroke-width:2.0px;stroke-linecap:butt;stroke-linejoin:miter;stroke-opacity:1"/>
<path class="bond-3 atom-3 atom-4" d="M 109.9,89.8 L 95.7,108.6" style="fill:none;fill-rule:evenodd;stroke:#000000;stroke-width:2.0px;stroke-linecap:butt;stroke-linejoin:miter;stroke-opacity:1"/>
<path class="bond-4 atom-3 atom-5" d="M 109.9,89.8 L 129.9,55.2" style="fill:none;fill-rule:evenodd;stroke:#000000;stroke-width:2.0px;stroke-linecap:butt;stroke-linejoin:miter;stroke-opacity:1"/>
<path class="bond-5 atom-3 atom-6" d="M 109.9,89.8 L 144.5,109.7" style="fill:none;fill-rule:evenodd;stroke:#000000;stroke-width:2.0px;stroke-linecap:butt;stroke-linejoin:miter;stroke-opacity:1"/>
<path class="bond-6 atom-6 atom-7" d="M 144.5,109.7 L 179.0,89.8" style="fill:none;fill-rule:evenodd;stroke:#000000;stroke-width:2.0px;stroke-linecap:butt;stroke-linejoin:miter;stroke-opacity:1"/>
<path class="bond-7 atom-7 atom-8" d="M 179.0,89.8 L 159.0,55.2" style="fill:none;fill-rule:evenodd;stroke:#000000;stroke-width:2.0px;stroke-linecap:butt;stroke-linejoin:miter;stroke-opacity:1"/>
<path class="bond-8 atom-7 atom-9" d="M 179.0,89.8 L 193.2,108.6" style="fill:none;fill-rule:evenodd;stroke:#000000;stroke-width:2.0px;stroke-linecap:butt;stroke-linejoin:miter;stroke-opacity:1"/>
<path class="bond-9 atom-7 atom-10" d="M 179.0,89.8 L 213.5,69.8" style="fill:none;fill-rule:evenodd;stroke:#000000;stroke-width:2.0px;stroke-linecap:butt;stroke-linejoin:miter;stroke-opacity:1"/>
<path class="bond-10 atom-10 atom-11" d="M 213.5,69.8 L 213.5,53.4" style="fill:none;fill-rule:evenodd;stroke:#000000;stroke-width:2.0px;stroke-linecap:butt;stroke-linejoin:miter;stroke-opacity:1"/>
<path class="bond-10 atom-10 atom-11" d="M 213.5,53.4 L 213.5,37.0" style="fill:none;fill-rule:evenodd;stroke:#FF0000;stroke-width:2.0px;stroke-linecap:butt;stroke-linejoin:miter;stroke-opacity:1"/>
<path class="bond-11 atom-11 atom-12" d="M 219.9,26.2 L 234.0,18.1" style="fill:none;fill-rule:evenodd;stroke:#FF0000;stroke-width:2.0px;stroke-linecap:butt;stroke-linejoin:miter;stroke-opacity:1"/>
<path class="bond-11 atom-11 atom-12" d="M 234.0,18.1 L 248.1,10.0" style="fill:none;fill-rule:evenodd;stroke:#000000;stroke-width:2.0px;stroke-linecap:butt;stroke-linejoin:miter;stroke-opacity:1"/>
<path class="bond-12 atom-6 atom-13" d="M 144.5,109.7 L 144.5,149.6" style="fill:none;fill-rule:evenodd;stroke:#000000;stroke-width:2.0px;stroke-linecap:butt;stroke-linejoin:miter;stroke-opacity:1"/>
<path class="bond-13 atom-13 atom-14" d="M 144.5,149.6 L 144.5,189.5" style="fill:none;fill-rule:evenodd;stroke:#000000;stroke-width:2.0px;stroke-linecap:butt;stroke-linejoin:miter;stroke-opacity:1"/>
<path class="bond-14 atom-13 atom-15" d="M 144.5,149.6 L 104.6,149.6" style="fill:none;fill-rule:evenodd;stroke:#000000;stroke-width:2.0px;stroke-linecap:butt;stroke-linejoin:miter;stroke-opacity:1"/>
<path class="bond-15 atom-15 atom-16" d="M 102.8,147.2 L 94.5,161.5" style="fill:none;fill-rule:evenodd;stroke:#000000;stroke-width:2.0px;stroke-linecap:butt;stroke-linejoin:miter;stroke-opacity:1"/>
<path class="bond-15 atom-15 atom-16" d="M 94.5,161.5 L 86.2,175.8" style="fill:none;fill-rule:evenodd;stroke:#FF0000;stroke-width:2.0px;stroke-linecap:butt;stroke-linejoin:miter;stroke-opacity:1"/>
<path class="bond-15 atom-15 atom-16" d="M 107.7,149.6 L 99.3,164.3" style="fill:none;fill-rule:evenodd;stroke:#000000;stroke-width:2.0px;stroke-linecap:butt;stroke-linejoin:miter;stroke-opacity:1"/>
<path class="bond-15 atom-15 atom-16" d="M 99.3,164.3 L 91.0,178.6" style="fill:none;fill-rule:evenodd;stroke:#FF0000;stroke-width:2.0px;stroke-linecap:butt;stroke-linejoin:miter;stroke-opacity:1"/>
<path class="bond-16 atom-15 atom-17" d="M 104.6,149.6 L 100.2,143.7" style="fill:none;fill-rule:evenodd;stroke:#000000;stroke-width:2.0px;stroke-linecap:butt;stroke-linejoin:miter;stroke-opacity:1"/>
<path class="bond-16 atom-15 atom-17" d="M 100.2,143.7 L 95.7,137.9" style="fill:none;fill-rule:evenodd;stroke:#FF0000;stroke-width:2.0px;stroke-linecap:butt;stroke-linejoin:miter;stroke-opacity:1"/>
<path class="bond-17 atom-13 atom-18" d="M 144.5,149.6 L 184.3,149.6" style="fill:none;fill-rule:evenodd;stroke:#000000;stroke-width:2.0px;stroke-linecap:butt;stroke-linejoin:miter;stroke-opacity:1"/>
<path class="bond-18 atom-18 atom-19" d="M 184.3,149.6 L 204.3,184.1" style="fill:none;fill-rule:evenodd;stroke:#000000;stroke-width:2.0px;stroke-linecap:butt;stroke-linejoin:miter;stroke-opacity:1"/>
<path class="bond-19 atom-18 atom-20" d="M 184.3,149.6 L 188.7,143.7" style="fill:none;fill-rule:evenodd;stroke:#000000;stroke-width:2.0px;stroke-linecap:butt;stroke-linejoin:miter;stroke-opacity:1"/>
<path class="bond-19 atom-18 atom-20" d="M 188.7,143.7 L 193.2,137.9" style="fill:none;fill-rule:evenodd;stroke:#FF0000;stroke-width:2.0px;stroke-linecap:butt;stroke-linejoin:miter;stroke-opacity:1"/>
<path d="M 75.4,69.0 L 75.4,69.8 L 77.1,70.8" style="fill:none;stroke:#000000;stroke-width:2.0px;stroke-linecap:butt;stroke-linejoin:miter;stroke-opacity:1;"/>
<path d="M 211.8,70.8 L 213.5,69.8 L 213.5,69.0" style="fill:none;stroke:#000000;stroke-width:2.0px;stroke-linecap:butt;stroke-linejoin:miter;stroke-opacity:1;"/>
<path d="M 106.6,149.6 L 104.6,149.6 L 104.4,149.3" style="fill:none;stroke:#000000;stroke-width:2.0px;stroke-linecap:butt;stroke-linejoin:miter;stroke-opacity:1;"/>
<path class="atom-1" d="M 70.2 30.0 Q 70.2 27.3, 71.5 25.7 Q 72.9 24.2, 75.4 24.2 Q 77.9 24.2, 79.2 25.7 Q 80.6 27.3, 80.6 30.0 Q 80.6 32.7, 79.2 34.3 Q 77.8 35.8, 75.4 35.8 Q 72.9 35.8, 71.5 34.3 Q 70.2 32.7, 70.2 30.0 M 75.4 34.5 Q 77.1 34.5, 78.0 33.4 Q 79.0 32.2, 79.0 30.0 Q 79.0 27.8, 78.0 26.6 Q 77.1 25.5, 75.4 25.5 Q 73.7 25.5, 72.7 26.6 Q 71.8 27.7, 71.8 30.0 Q 71.8 32.3, 72.7 33.4 Q 73.7 34.5, 75.4 34.5 " fill="#FF0000"/>
<path class="atom-11" d="M 208.3 30.0 Q 208.3 27.3, 209.7 25.7 Q 211.0 24.2, 213.5 24.2 Q 216.0 24.2, 217.4 25.7 Q 218.7 27.3, 218.7 30.0 Q 218.7 32.7, 217.4 34.3 Q 216.0 35.8, 213.5 35.8 Q 211.0 35.8, 209.7 34.3 Q 208.3 32.7, 208.3 30.0 M 213.5 34.5 Q 215.2 34.5, 216.2 33.4 Q 217.1 32.2, 217.1 30.0 Q 217.1 27.8, 216.2 26.6 Q 215.2 25.5, 213.5 25.5 Q 211.8 25.5, 210.9 26.6 Q 209.9 27.7, 209.9 30.0 Q 209.9 32.3, 210.9 33.4 Q 211.8 34.5, 213.5 34.5 " fill="#FF0000"/>
<path class="atom-16" d="M 79.4 184.1 Q 79.4 181.4, 80.8 179.9 Q 82.1 178.4, 84.6 178.4 Q 87.1 178.4, 88.5 179.9 Q 89.8 181.4, 89.8 184.1 Q 89.8 186.9, 88.5 188.5 Q 87.1 190.0, 84.6 190.0 Q 82.1 190.0, 80.8 188.5 Q 79.4 186.9, 79.4 184.1 M 84.6 188.7 Q 86.4 188.7, 87.3 187.6 Q 88.2 186.4, 88.2 184.1 Q 88.2 181.9, 87.3 180.8 Q 86.4 179.7, 84.6 179.7 Q 82.9 179.7, 82.0 180.8 Q 81.0 181.9, 81.0 184.1 Q 81.0 186.4, 82.0 187.6 Q 82.9 188.7, 84.6 188.7 " fill="#FF0000"/>
<path class="atom-17" d="M 74.1 125.2 L 75.6 125.2 L 75.6 130.0 L 81.4 130.0 L 81.4 125.2 L 82.9 125.2 L 82.9 136.5 L 81.4 136.5 L 81.4 131.3 L 75.6 131.3 L 75.6 136.5 L 74.1 136.5 L 74.1 125.2 " fill="#FF0000"/>
<path class="atom-17" d="M 85.2 130.8 Q 85.2 128.1, 86.6 126.6 Q 87.9 125.1, 90.4 125.1 Q 92.9 125.1, 94.2 126.6 Q 95.6 128.1, 95.6 130.8 Q 95.6 133.5, 94.2 135.1 Q 92.9 136.7, 90.4 136.7 Q 87.9 136.7, 86.6 135.1 Q 85.2 133.6, 85.2 130.8 M 90.4 135.4 Q 92.1 135.4, 93.0 134.2 Q 94.0 133.1, 94.0 130.8 Q 94.0 128.6, 93.0 127.5 Q 92.1 126.3, 90.4 126.3 Q 88.7 126.3, 87.7 127.5 Q 86.8 128.6, 86.8 130.8 Q 86.8 133.1, 87.7 134.2 Q 88.7 135.4, 90.4 135.4 " fill="#FF0000"/>
<path class="atom-20" d="M 193.3 130.8 Q 193.3 128.1, 194.7 126.6 Q 196.0 125.1, 198.5 125.1 Q 201.0 125.1, 202.3 126.6 Q 203.7 128.1, 203.7 130.8 Q 203.7 133.5, 202.3 135.1 Q 201.0 136.7, 198.5 136.7 Q 196.0 136.7, 194.7 135.1 Q 193.3 133.6, 193.3 130.8 M 198.5 135.4 Q 200.2 135.4, 201.1 134.2 Q 202.1 133.1, 202.1 130.8 Q 202.1 128.6, 201.1 127.5 Q 200.2 126.3, 198.5 126.3 Q 196.8 126.3, 195.8 127.5 Q 194.9 128.6, 194.9 130.8 Q 194.9 133.1, 195.8 134.2 Q 196.8 135.4, 198.5 135.4 " fill="#FF0000"/>
<path class="atom-20" d="M 205.4 125.2 L 207.0 125.2 L 207.0 130.0 L 212.7 130.0 L 212.7 125.2 L 214.3 125.2 L 214.3 136.5 L 212.7 136.5 L 212.7 131.3 L 207.0 131.3 L 207.0 136.5 L 205.4 136.5 L 205.4 125.2 " fill="#FF0000"/>
</svg>
