<?xml version='1.0' encoding='ASCII' standalone='yes'?>
<svg xmlns="http://www.w3.org/2000/svg" xmlns:rdkit="http://www.rdkit.org/xml" xmlns:xlink="http://www.w3.org/1999/xlink" version="1.1" baseProfile="full" xml:space="preserve" width="435px" height="200px" viewBox="0 0 435 200">
<!-- END OF HEADER -->
<rect style="opacity:1.0;fill:#FFFFFF;stroke:none" width="435.0" height="200.0" x="0.0" y="0.0"> </rect>
<path class="bond-0 atom-0 atom-1" d="M 127.6,10.0 L 131.8,18.8" style="fill:none;fill-rule:evenodd;stroke:#000000;stroke-width:2.0px;stroke-linecap:butt;stroke-linejoin:miter;stroke-opacity:1"/>
<path class="bond-1 atom-1 atom-2" d="M 131.4,18.0 L 129.4,21.0" style="fill:none;fill-rule:evenodd;stroke:#000000;stroke-width:2.0px;stroke-linecap:butt;stroke-linejoin:miter;stroke-opacity:1"/>
<path class="bond-1 atom-1 atom-2" d="M 129.4,21.0 L 127.4,24.0" style="fill:none;fill-rule:evenodd;stroke:#FF0000;stroke-width:2.0px;stroke-linecap:butt;stroke-linejoin:miter;stroke-opacity:1"/>
<path class="bond-1 atom-1 atom-2" d="M 132.6,18.9 L 130.6,21.9" style="fill:none;fill-rule:evenodd;stroke:#000000;stroke-width:2.0px;stroke-linecap:butt;stroke-linejoin:miter;stroke-opacity:1"/>
<path class="bond-1 atom-1 atom-2" d="M 130.6,21.9 L 128.6,24.8" style="fill:none;fill-rule:evenodd;stroke:#FF0000;stroke-width:2.0px;stroke-linecap:butt;stroke-linejoin:miter;stroke-opacity:1"/>
<path class="bond-2 atom-1 atom-3" d="M 131.8,18.8 L 135.8,19.1" style="fill:none;fill-rule:evenodd;stroke:#000000;stroke-width:2.0px;stroke-linecap:butt;stroke-linejoin:miter;stroke-opacity:1"/>
<path class="bond-2 atom-1 atom-3" d="M 135.8,19.1 L 139.9,19.4" style="fill:none;fill-rule:evenodd;stroke:#CCCC00;stroke-width:2.0px;stroke-linecap:butt;stroke-linejoin:miter;stroke-opacity:1"/>
<path class="bond-3 atom-3 atom-4" d="M 142.8,22.1 L 144.3,25.2" style="fill:none;fill-rule:evenodd;stroke:#CCCC00;stroke-width:2.0px;stroke-linecap:butt;stroke-linejoin:miter;stroke-opacity:1"/>
<path class="bond-3 atom-3 atom-4" d="M 144.3,25.2 L 145.8,28.3" style="fill:none;fill-rule:evenodd;stroke:#000000;stroke-width:2.0px;stroke-linecap:butt;stroke-linejoin:miter;stroke-opacity:1"/>
<path class="bond-4 atom-4 atom-5" d="M 145.8,28.3 L 155.5,29.1" style="fill:none;fill-rule:evenodd;stroke:#000000;stroke-width:2.0px;stroke-linecap:butt;stroke-linejoin:miter;stroke-opacity:1"/>
<path class="bond-5 atom-5 atom-6" d="M 155.5,29.1 L 157.1,32.3" style="fill:none;fill-rule:evenodd;stroke:#000000;stroke-width:2.0px;stroke-linecap:butt;stroke-linejoin:miter;stroke-opacity:1"/>
<path class="bond-5 atom-5 atom-6" d="M 157.1,32.3 L 158.6,35.4" style="fill:none;fill-rule:evenodd;stroke:#0000FF;stroke-width:2.0px;stroke-linecap:butt;stroke-linejoin:miter;stroke-opacity:1"/>
<path class="bond-6 atom-6 atom-7" d="M 161.7,38.0 L 165.6,38.3" style="fill:none;fill-rule:evenodd;stroke:#0000FF;stroke-width:2.0px;stroke-linecap:butt;stroke-linejoin:miter;stroke-opacity:1"/>
<path class="bond-6 atom-6 atom-7" d="M 165.6,38.3 L 169.5,38.6" style="fill:none;fill-rule:evenodd;stroke:#000000;stroke-width:2.0px;stroke-linecap:butt;stroke-linejoin:miter;stroke-opacity:1"/>
<path class="bond-7 atom-7 atom-8" d="M 169.9,39.4 L 171.9,36.4" style="fill:none;fill-rule:evenodd;stroke:#000000;stroke-width:2.0px;stroke-linecap:butt;stroke-linejoin:miter;stroke-opacity:1"/>
<path class="bond-7 atom-7 atom-8" d="M 171.9,36.4 L 173.9,33.5" style="fill:none;fill-rule:evenodd;stroke:#FF0000;stroke-width:2.0px;stroke-linecap:butt;stroke-linejoin:miter;stroke-opacity:1"/>
<path class="bond-7 atom-7 atom-8" d="M 168.7,38.5 L 170.7,35.6" style="fill:none;fill-rule:evenodd;stroke:#000000;stroke-width:2.0px;stroke-linecap:butt;stroke-linejoin:miter;stroke-opacity:1"/>
<path class="bond-7 atom-7 atom-8" d="M 170.7,35.6 L 172.7,32.7" style="fill:none;fill-rule:evenodd;stroke:#FF0000;stroke-width:2.0px;stroke-linecap:butt;stroke-linejoin:miter;stroke-opacity:1"/>
<path class="bond-8 atom-7 atom-9" d="M 169.5,38.6 L 173.8,47.4" style="fill:none;fill-rule:evenodd;stroke:#000000;stroke-width:2.0px;stroke-linecap:butt;stroke-linejoin:miter;stroke-opacity:1"/>
<path class="bond-9 atom-9 atom-10" d="M 173.8,47.4 L 183.5,48.1" style="fill:none;fill-rule:evenodd;stroke:#000000;stroke-width:2.0px;stroke-linecap:butt;stroke-linejoin:miter;stroke-opacity:1"/>
<path class="bond-10 atom-10 atom-11" d="M 183.5,48.1 L 185.1,51.3" style="fill:none;fill-rule:evenodd;stroke:#000000;stroke-width:2.0px;stroke-linecap:butt;stroke-linejoin:miter;stroke-opacity:1"/>
<path class="bond-10 atom-10 atom-11" d="M 185.1,51.3 L 186.6,54.5" style="fill:none;fill-rule:evenodd;stroke:#0000FF;stroke-width:2.0px;stroke-linecap:butt;stroke-linejoin:miter;stroke-opacity:1"/>
<path class="bond-11 atom-11 atom-12" d="M 189.7,57.1 L 193.6,57.4" style="fill:none;fill-rule:evenodd;stroke:#0000FF;stroke-width:2.0px;stroke-linecap:butt;stroke-linejoin:miter;stroke-opacity:1"/>
<path class="bond-11 atom-11 atom-12" d="M 193.6,57.4 L 197.5,57.7" style="fill:none;fill-rule:evenodd;stroke:#000000;stroke-width:2.0px;stroke-linecap:butt;stroke-linejoin:miter;stroke-opacity:1"/>
<path class="bond-12 atom-12 atom-13" d="M 197.9,58.4 L 199.9,55.5" style="fill:none;fill-rule:evenodd;stroke:#000000;stroke-width:2.0px;stroke-linecap:butt;stroke-linejoin:miter;stroke-opacity:1"/>
<path class="bond-12 atom-12 atom-13" d="M 199.9,55.5 L 201.9,52.6" style="fill:none;fill-rule:evenodd;stroke:#FF0000;stroke-width:2.0px;stroke-linecap:butt;stroke-linejoin:miter;stroke-opacity:1"/>
<path class="bond-12 atom-12 atom-13" d="M 196.7,57.6 L 198.7,54.7" style="fill:none;fill-rule:evenodd;stroke:#000000;stroke-width:2.0px;stroke-linecap:butt;stroke-linejoin:miter;stroke-opacity:1"/>
<path class="bond-12 atom-12 atom-13" d="M 198.7,54.7 L 200.7,51.7" style="fill:none;fill-rule:evenodd;stroke:#FF0000;stroke-width:2.0px;stroke-linecap:butt;stroke-linejoin:miter;stroke-opacity:1"/>
<path class="bond-13 atom-12 atom-14" d="M 197.5,57.7 L 201.8,66.5" style="fill:none;fill-rule:evenodd;stroke:#000000;stroke-width:2.0px;stroke-linecap:butt;stroke-linejoin:miter;stroke-opacity:1"/>
<path class="bond-14 atom-14 atom-15" d="M 201.8,66.5 L 199.9,69.3" style="fill:none;fill-rule:evenodd;stroke:#000000;stroke-width:2.0px;stroke-linecap:butt;stroke-linejoin:miter;stroke-opacity:1"/>
<path class="bond-14 atom-14 atom-15" d="M 199.9,69.3 L 197.9,72.1" style="fill:none;fill-rule:evenodd;stroke:#FF0000;stroke-width:2.0px;stroke-linecap:butt;stroke-linejoin:miter;stroke-opacity:1"/>
<path class="bond-15 atom-14 atom-16" d="M 201.8,66.5 L 211.5,67.2" style="fill:none;fill-rule:evenodd;stroke:#000000;stroke-width:2.0px;stroke-linecap:butt;stroke-linejoin:miter;stroke-opacity:1"/>
<path class="bond-16 atom-16 atom-17" d="M 211.5,67.2 L 212.3,57.5" style="fill:none;fill-rule:evenodd;stroke:#000000;stroke-width:2.0px;stroke-linecap:butt;stroke-linejoin:miter;stroke-opacity:1"/>
<path class="bond-17 atom-16 atom-18" d="M 211.5,67.2 L 210.8,77.0" style="fill:none;fill-rule:evenodd;stroke:#000000;stroke-width:2.0px;stroke-linecap:butt;stroke-linejoin:miter;stroke-opacity:1"/>
<path class="bond-18 atom-16 atom-19" d="M 211.5,67.2 L 221.3,68.0" style="fill:none;fill-rule:evenodd;stroke:#000000;stroke-width:2.0px;stroke-linecap:butt;stroke-linejoin:miter;stroke-opacity:1"/>
<path class="bond-19 atom-19 atom-20" d="M 221.3,68.0 L 223.2,65.2" style="fill:none;fill-rule:evenodd;stroke:#000000;stroke-width:2.0px;stroke-linecap:butt;stroke-linejoin:miter;stroke-opacity:1"/>
<path class="bond-19 atom-19 atom-20" d="M 223.2,65.2 L 225.1,62.4" style="fill:none;fill-rule:evenodd;stroke:#FF0000;stroke-width:2.0px;stroke-linecap:butt;stroke-linejoin:miter;stroke-opacity:1"/>
<path class="bond-20 atom-20 atom-21" d="M 229.0,60.0 L 232.0,60.3" style="fill:none;fill-rule:evenodd;stroke:#FF0000;stroke-width:2.0px;stroke-linecap:butt;stroke-linejoin:miter;stroke-opacity:1"/>
<path class="bond-20 atom-20 atom-21" d="M 232.0,60.3 L 234.9,60.5" style="fill:none;fill-rule:evenodd;stroke:#FF7F00;stroke-width:2.0px;stroke-linecap:butt;stroke-linejoin:miter;stroke-opacity:1"/>
<path class="bond-21 atom-21 atom-22" d="M 237.4,58.2 L 237.6,55.8" style="fill:none;fill-rule:evenodd;stroke:#FF7F00;stroke-width:2.0px;stroke-linecap:butt;stroke-linejoin:miter;stroke-opacity:1"/>
<path class="bond-21 atom-21 atom-22" d="M 237.6,55.8 L 237.8,53.4" style="fill:none;fill-rule:evenodd;stroke:#FF0000;stroke-width:2.0px;stroke-linecap:butt;stroke-linejoin:miter;stroke-opacity:1"/>
<path class="bond-21 atom-21 atom-22" d="M 236.0,58.1 L 236.2,55.7" style="fill:none;fill-rule:evenodd;stroke:#FF7F00;stroke-width:2.0px;stroke-linecap:butt;stroke-linejoin:miter;stroke-opacity:1"/>
<path class="bond-21 atom-21 atom-22" d="M 236.2,55.7 L 236.3,53.3" style="fill:none;fill-rule:evenodd;stroke:#FF0000;stroke-width:2.0px;stroke-linecap:butt;stroke-linejoin:miter;stroke-opacity:1"/>
<path class="bond-22 atom-21 atom-23" d="M 236.3,63.0 L 236.2,65.5" style="fill:none;fill-rule:evenodd;stroke:#FF7F00;stroke-width:2.0px;stroke-linecap:butt;stroke-linejoin:miter;stroke-opacity:1"/>
<path class="bond-22 atom-21 atom-23" d="M 236.2,65.5 L 236.0,67.9" style="fill:none;fill-rule:evenodd;stroke:#FF0000;stroke-width:2.0px;stroke-linecap:butt;stroke-linejoin:miter;stroke-opacity:1"/>
<path class="bond-23 atom-21 atom-24" d="M 238.2,60.7 L 241.1,60.9" style="fill:none;fill-rule:evenodd;stroke:#FF7F00;stroke-width:2.0px;stroke-linecap:butt;stroke-linejoin:miter;stroke-opacity:1"/>
<path class="bond-23 atom-21 atom-24" d="M 241.1,60.9 L 244.0,61.2" style="fill:none;fill-rule:evenodd;stroke:#FF0000;stroke-width:2.0px;stroke-linecap:butt;stroke-linejoin:miter;stroke-opacity:1"/>
<path class="bond-24 atom-24 atom-25" d="M 247.5,63.9 L 248.4,65.8" style="fill:none;fill-rule:evenodd;stroke:#FF0000;stroke-width:2.0px;stroke-linecap:butt;stroke-linejoin:miter;stroke-opacity:1"/>
<path class="bond-24 atom-24 atom-25" d="M 248.4,65.8 L 249.3,67.7" style="fill:none;fill-rule:evenodd;stroke:#FF7F00;stroke-width:2.0px;stroke-linecap:butt;stroke-linejoin:miter;stroke-opacity:1"/>
<path class="bond-25 atom-25 atom-26" d="M 252.6,69.7 L 254.7,68.3" style="fill:none;fill-rule:evenodd;stroke:#FF7F00;stroke-width:2.0px;stroke-linecap:butt;stroke-linejoin:miter;stroke-opacity:1"/>
<path class="bond-25 atom-25 atom-26" d="M 254.7,68.3 L 256.9,66.9" style="fill:none;fill-rule:evenodd;stroke:#FF0000;stroke-width:2.0px;stroke-linecap:butt;stroke-linejoin:miter;stroke-opacity:1"/>
<path class="bond-25 atom-25 atom-26" d="M 251.8,68.4 L 253.9,67.1" style="fill:none;fill-rule:evenodd;stroke:#FF7F00;stroke-width:2.0px;stroke-linecap:butt;stroke-linejoin:miter;stroke-opacity:1"/>
<path class="bond-25 atom-25 atom-26" d="M 253.9,67.1 L 256.1,65.7" style="fill:none;fill-rule:evenodd;stroke:#FF0000;stroke-width:2.0px;stroke-linecap:butt;stroke-linejoin:miter;stroke-opacity:1"/>
<path class="bond-26 atom-25 atom-27" d="M 248.8,70.9 L 246.4,72.1" style="fill:none;fill-rule:evenodd;stroke:#FF7F00;stroke-width:2.0px;stroke-linecap:butt;stroke-linejoin:miter;stroke-opacity:1"/>
<path class="bond-26 atom-25 atom-27" d="M 246.4,72.1 L 244.0,73.3" style="fill:none;fill-rule:evenodd;stroke:#FF0000;stroke-width:2.0px;stroke-linecap:butt;stroke-linejoin:miter;stroke-opacity:1"/>
<path class="bond-27 atom-25 atom-28" d="M 251.7,72.6 L 252.6,74.5" style="fill:none;fill-rule:evenodd;stroke:#FF7F00;stroke-width:2.0px;stroke-linecap:butt;stroke-linejoin:miter;stroke-opacity:1"/>
<path class="bond-27 atom-25 atom-28" d="M 252.6,74.5 L 253.6,76.5" style="fill:none;fill-rule:evenodd;stroke:#FF0000;stroke-width:2.0px;stroke-linecap:butt;stroke-linejoin:miter;stroke-opacity:1"/>
<path class="bond-28 atom-28 atom-29" d="M 257.0,79.1 L 260.8,79.4" style="fill:none;fill-rule:evenodd;stroke:#FF0000;stroke-width:2.0px;stroke-linecap:butt;stroke-linejoin:miter;stroke-opacity:1"/>
<path class="bond-28 atom-28 atom-29" d="M 260.8,79.4 L 264.5,79.7" style="fill:none;fill-rule:evenodd;stroke:#000000;stroke-width:2.0px;stroke-linecap:butt;stroke-linejoin:miter;stroke-opacity:1"/>
<path class="bond-29 atom-29 atom-30" d="M 264.5,79.7 L 268.8,88.5" style="fill:none;fill-rule:evenodd;stroke:#000000;stroke-width:2.0px;stroke-linecap:butt;stroke-linejoin:miter;stroke-opacity:1"/>
<path class="bond-30 atom-30 atom-31" d="M 268.8,88.5 L 267.1,91.6" style="fill:none;fill-rule:evenodd;stroke:#000000;stroke-width:2.0px;stroke-linecap:butt;stroke-linejoin:miter;stroke-opacity:1"/>
<path class="bond-30 atom-30 atom-31" d="M 267.1,91.6 L 265.5,94.6" style="fill:none;fill-rule:evenodd;stroke:#FF0000;stroke-width:2.0px;stroke-linecap:butt;stroke-linejoin:miter;stroke-opacity:1"/>
<path class="bond-31 atom-31 atom-32" d="M 266.4,99.5 L 268.6,101.8" style="fill:none;fill-rule:evenodd;stroke:#FF0000;stroke-width:2.0px;stroke-linecap:butt;stroke-linejoin:miter;stroke-opacity:1"/>
<path class="bond-31 atom-31 atom-32" d="M 268.6,101.8 L 270.9,104.2" style="fill:none;fill-rule:evenodd;stroke:#000000;stroke-width:2.0px;stroke-linecap:butt;stroke-linejoin:miter;stroke-opacity:1"/>
<path class="bond-32 atom-32 atom-33" d="M 270.9,104.2 L 270.2,107.8" style="fill:none;fill-rule:evenodd;stroke:#000000;stroke-width:2.0px;stroke-linecap:butt;stroke-linejoin:miter;stroke-opacity:1"/>
<path class="bond-32 atom-32 atom-33" d="M 270.2,107.8 L 269.6,111.3" style="fill:none;fill-rule:evenodd;stroke:#0000FF;stroke-width:2.0px;stroke-linecap:butt;stroke-linejoin:miter;stroke-opacity:1"/>
<path class="bond-33 atom-33 atom-34" d="M 267.2,114.7 L 263.8,116.4" style="fill:none;fill-rule:evenodd;stroke:#0000FF;stroke-width:2.0px;stroke-linecap:butt;stroke-linejoin:miter;stroke-opacity:1"/>
<path class="bond-33 atom-33 atom-34" d="M 263.8,116.4 L 260.3,118.0" style="fill:none;fill-rule:evenodd;stroke:#000000;stroke-width:2.0px;stroke-linecap:butt;stroke-linejoin:miter;stroke-opacity:1"/>
<path class="bond-34 atom-34 atom-35" d="M 260.3,118.0 L 251.7,113.4" style="fill:none;fill-rule:evenodd;stroke:#000000;stroke-width:2.0px;stroke-linecap:butt;stroke-linejoin:miter;stroke-opacity:1"/>
<path class="bond-35 atom-35 atom-36" d="M 251.7,113.4 L 250.1,116.5" style="fill:none;fill-rule:evenodd;stroke:#000000;stroke-width:2.0px;stroke-linecap:butt;stroke-linejoin:miter;stroke-opacity:1"/>
<path class="bond-35 atom-35 atom-36" d="M 250.1,116.5 L 248.4,119.5" style="fill:none;fill-rule:evenodd;stroke:#FF0000;stroke-width:2.0px;stroke-linecap:butt;stroke-linejoin:miter;stroke-opacity:1"/>
<path class="bond-36 atom-35 atom-37" d="M 251.7,113.4 L 253.4,110.4" style="fill:none;fill-rule:evenodd;stroke:#000000;stroke-width:2.0px;stroke-linecap:butt;stroke-linejoin:miter;stroke-opacity:1"/>
<path class="bond-36 atom-35 atom-37" d="M 253.4,110.4 L 255.0,107.3" style="fill:none;fill-rule:evenodd;stroke:#FF0000;stroke-width:2.0px;stroke-linecap:butt;stroke-linejoin:miter;stroke-opacity:1"/>
<path class="bond-37 atom-35 atom-38" d="M 251.7,113.4 L 243.1,108.8" style="fill:none;fill-rule:evenodd;stroke:#000000;stroke-width:2.0px;stroke-linecap:butt;stroke-linejoin:miter;stroke-opacity:1"/>
<path class="bond-38 atom-38 atom-39" d="M 243.1,108.8 L 243.0,105.1" style="fill:none;fill-rule:evenodd;stroke:#000000;stroke-width:2.0px;stroke-linecap:butt;stroke-linejoin:miter;stroke-opacity:1"/>
<path class="bond-38 atom-38 atom-39" d="M 243.0,105.1 L 242.9,101.5" style="fill:none;fill-rule:evenodd;stroke:#FF0000;stroke-width:2.0px;stroke-linecap:butt;stroke-linejoin:miter;stroke-opacity:1"/>
<path class="bond-39 atom-39 atom-40" d="M 240.5,97.8 L 238.2,96.5" style="fill:none;fill-rule:evenodd;stroke:#FF0000;stroke-width:2.0px;stroke-linecap:butt;stroke-linejoin:miter;stroke-opacity:1"/>
<path class="bond-39 atom-39 atom-40" d="M 238.2,96.5 L 235.9,95.3" style="fill:none;fill-rule:evenodd;stroke:#FF7F00;stroke-width:2.0px;stroke-linecap:butt;stroke-linejoin:miter;stroke-opacity:1"/>
<path class="bond-40 atom-40 atom-41" d="M 232.2,96.5 L 231.5,97.9" style="fill:none;fill-rule:evenodd;stroke:#FF7F00;stroke-width:2.0px;stroke-linecap:butt;stroke-linejoin:miter;stroke-opacity:1"/>
<path class="bond-40 atom-40 atom-41" d="M 231.5,97.9 L 230.7,99.3" style="fill:none;fill-rule:evenodd;stroke:#FF0000;stroke-width:2.0px;stroke-linecap:butt;stroke-linejoin:miter;stroke-opacity:1"/>
<path class="bond-40 atom-40 atom-41" d="M 233.5,97.1 L 232.8,98.6" style="fill:none;fill-rule:evenodd;stroke:#FF7F00;stroke-width:2.0px;stroke-linecap:butt;stroke-linejoin:miter;stroke-opacity:1"/>
<path class="bond-40 atom-40 atom-41" d="M 232.8,98.6 L 232.0,100.0" style="fill:none;fill-rule:evenodd;stroke:#FF0000;stroke-width:2.0px;stroke-linecap:butt;stroke-linejoin:miter;stroke-opacity:1"/>
<path class="bond-41 atom-40 atom-42" d="M 235.9,92.0 L 237.0,90.5" style="fill:none;fill-rule:evenodd;stroke:#FF7F00;stroke-width:2.0px;stroke-linecap:butt;stroke-linejoin:miter;stroke-opacity:1"/>
<path class="bond-41 atom-40 atom-42" d="M 237.0,90.5 L 238.1,88.9" style="fill:none;fill-rule:evenodd;stroke:#FF0000;stroke-width:2.0px;stroke-linecap:butt;stroke-linejoin:miter;stroke-opacity:1"/>
<path class="bond-42 atom-40 atom-43" d="M 232.5,93.5 L 230.2,92.2" style="fill:none;fill-rule:evenodd;stroke:#FF7F00;stroke-width:2.0px;stroke-linecap:butt;stroke-linejoin:miter;stroke-opacity:1"/>
<path class="bond-42 atom-40 atom-43" d="M 230.2,92.2 L 227.9,90.9" style="fill:none;fill-rule:evenodd;stroke:#FF0000;stroke-width:2.0px;stroke-linecap:butt;stroke-linejoin:miter;stroke-opacity:1"/>
<path class="bond-43 atom-43 atom-44" d="M 223.3,91.1 L 221.1,92.5" style="fill:none;fill-rule:evenodd;stroke:#FF0000;stroke-width:2.0px;stroke-linecap:butt;stroke-linejoin:miter;stroke-opacity:1"/>
<path class="bond-43 atom-43 atom-44" d="M 221.1,92.5 L 219.0,93.8" style="fill:none;fill-rule:evenodd;stroke:#FF7F00;stroke-width:2.0px;stroke-linecap:butt;stroke-linejoin:miter;stroke-opacity:1"/>
<path class="bond-44 atom-44 atom-45" d="M 218.4,97.0 L 219.5,98.0" style="fill:none;fill-rule:evenodd;stroke:#FF7F00;stroke-width:2.0px;stroke-linecap:butt;stroke-linejoin:miter;stroke-opacity:1"/>
<path class="bond-44 atom-44 atom-45" d="M 219.5,98.0 L 220.5,99.0" style="fill:none;fill-rule:evenodd;stroke:#FF0000;stroke-width:2.0px;stroke-linecap:butt;stroke-linejoin:miter;stroke-opacity:1"/>
<path class="bond-44 atom-44 atom-45" d="M 219.5,96.0 L 220.5,97.0" style="fill:none;fill-rule:evenodd;stroke:#FF7F00;stroke-width:2.0px;stroke-linecap:butt;stroke-linejoin:miter;stroke-opacity:1"/>
<path class="bond-44 atom-44 atom-45" d="M 220.5,97.0 L 221.5,98.0" style="fill:none;fill-rule:evenodd;stroke:#FF0000;stroke-width:2.0px;stroke-linecap:butt;stroke-linejoin:miter;stroke-opacity:1"/>
<path class="bond-45 atom-44 atom-46" d="M 215.8,92.4 L 214.7,90.8" style="fill:none;fill-rule:evenodd;stroke:#FF7F00;stroke-width:2.0px;stroke-linecap:butt;stroke-linejoin:miter;stroke-opacity:1"/>
<path class="bond-45 atom-44 atom-46" d="M 214.7,90.8 L 213.7,89.1" style="fill:none;fill-rule:evenodd;stroke:#FF0000;stroke-width:2.0px;stroke-linecap:butt;stroke-linejoin:miter;stroke-opacity:1"/>
<path class="bond-46 atom-44 atom-47" d="M 215.6,95.9 L 213.4,97.3" style="fill:none;fill-rule:evenodd;stroke:#FF7F00;stroke-width:2.0px;stroke-linecap:butt;stroke-linejoin:miter;stroke-opacity:1"/>
<path class="bond-46 atom-44 atom-47" d="M 213.4,97.3 L 211.2,98.6" style="fill:none;fill-rule:evenodd;stroke:#FF0000;stroke-width:2.0px;stroke-linecap:butt;stroke-linejoin:miter;stroke-opacity:1"/>
<path class="bond-47 atom-47 atom-48" d="M 206.7,98.8 L 203.5,97.1" style="fill:none;fill-rule:evenodd;stroke:#FF0000;stroke-width:2.0px;stroke-linecap:butt;stroke-linejoin:miter;stroke-opacity:1"/>
<path class="bond-47 atom-47 atom-48" d="M 203.5,97.1 L 200.4,95.4" style="fill:none;fill-rule:evenodd;stroke:#000000;stroke-width:2.0px;stroke-linecap:butt;stroke-linejoin:miter;stroke-opacity:1"/>
<path class="bond-48 atom-48 atom-49" d="M 200.4,95.4 L 192.0,100.5" style="fill:none;fill-rule:evenodd;stroke:#000000;stroke-width:2.0px;stroke-linecap:butt;stroke-linejoin:miter;stroke-opacity:1"/>
<path class="bond-49 atom-49 atom-50" d="M 192.0,100.5 L 197.2,108.8" style="fill:none;fill-rule:evenodd;stroke:#000000;stroke-width:2.0px;stroke-linecap:butt;stroke-linejoin:miter;stroke-opacity:1"/>
<path class="bond-50 atom-49 atom-51" d="M 192.0,100.5 L 186.9,92.2" style="fill:none;fill-rule:evenodd;stroke:#000000;stroke-width:2.0px;stroke-linecap:butt;stroke-linejoin:miter;stroke-opacity:1"/>
<path class="bond-51 atom-49 atom-52" d="M 192.0,100.5 L 183.7,105.7" style="fill:none;fill-rule:evenodd;stroke:#000000;stroke-width:2.0px;stroke-linecap:butt;stroke-linejoin:miter;stroke-opacity:1"/>
<path class="bond-52 atom-52 atom-53" d="M 183.7,105.7 L 180.6,104.0" style="fill:none;fill-rule:evenodd;stroke:#000000;stroke-width:2.0px;stroke-linecap:butt;stroke-linejoin:miter;stroke-opacity:1"/>
<path class="bond-52 atom-52 atom-53" d="M 180.6,104.0 L 177.4,102.2" style="fill:none;fill-rule:evenodd;stroke:#FF0000;stroke-width:2.0px;stroke-linecap:butt;stroke-linejoin:miter;stroke-opacity:1"/>
<path class="bond-53 atom-52 atom-54" d="M 183.7,105.7 L 184.0,115.4" style="fill:none;fill-rule:evenodd;stroke:#000000;stroke-width:2.0px;stroke-linecap:butt;stroke-linejoin:miter;stroke-opacity:1"/>
<path class="bond-54 atom-54 atom-55" d="M 183.3,115.9 L 186.7,117.7" style="fill:none;fill-rule:evenodd;stroke:#000000;stroke-width:2.0px;stroke-linecap:butt;stroke-linejoin:miter;stroke-opacity:1"/>
<path class="bond-54 atom-54 atom-55" d="M 186.7,117.7 L 190.0,119.5" style="fill:none;fill-rule:evenodd;stroke:#FF0000;stroke-width:2.0px;stroke-linecap:butt;stroke-linejoin:miter;stroke-opacity:1"/>
<path class="bond-54 atom-54 atom-55" d="M 184.0,114.6 L 187.3,116.4" style="fill:none;fill-rule:evenodd;stroke:#000000;stroke-width:2.0px;stroke-linecap:butt;stroke-linejoin:miter;stroke-opacity:1"/>
<path class="bond-54 atom-54 atom-55" d="M 187.3,116.4 L 190.7,118.2" style="fill:none;fill-rule:evenodd;stroke:#FF0000;stroke-width:2.0px;stroke-linecap:butt;stroke-linejoin:miter;stroke-opacity:1"/>
<path class="bond-55 atom-54 atom-56" d="M 184.0,115.4 L 180.8,117.4" style="fill:none;fill-rule:evenodd;stroke:#000000;stroke-width:2.0px;stroke-linecap:butt;stroke-linejoin:miter;stroke-opacity:1"/>
<path class="bond-55 atom-54 atom-56" d="M 180.8,117.4 L 177.6,119.4" style="fill:none;fill-rule:evenodd;stroke:#0000FF;stroke-width:2.0px;stroke-linecap:butt;stroke-linejoin:miter;stroke-opacity:1"/>
<path class="bond-56 atom-56 atom-57" d="M 175.8,123.0 L 175.9,126.7" style="fill:none;fill-rule:evenodd;stroke:#0000FF;stroke-width:2.0px;stroke-linecap:butt;stroke-linejoin:miter;stroke-opacity:1"/>
<path class="bond-56 atom-56 atom-57" d="M 175.9,126.7 L 176.0,130.3" style="fill:none;fill-rule:evenodd;stroke:#000000;stroke-width:2.0px;stroke-linecap:butt;stroke-linejoin:miter;stroke-opacity:1"/>
<path class="bond-57 atom-57 atom-58" d="M 176.0,130.3 L 167.7,135.5" style="fill:none;fill-rule:evenodd;stroke:#000000;stroke-width:2.0px;stroke-linecap:butt;stroke-linejoin:miter;stroke-opacity:1"/>
<path class="bond-58 atom-58 atom-59" d="M 167.7,135.5 L 168.0,145.3" style="fill:none;fill-rule:evenodd;stroke:#000000;stroke-width:2.0px;stroke-linecap:butt;stroke-linejoin:miter;stroke-opacity:1"/>
<path class="bond-59 atom-59 atom-60" d="M 167.3,145.7 L 170.6,147.5" style="fill:none;fill-rule:evenodd;stroke:#000000;stroke-width:2.0px;stroke-linecap:butt;stroke-linejoin:miter;stroke-opacity:1"/>
<path class="bond-59 atom-59 atom-60" d="M 170.6,147.5 L 174.0,149.3" style="fill:none;fill-rule:evenodd;stroke:#FF0000;stroke-width:2.0px;stroke-linecap:butt;stroke-linejoin:miter;stroke-opacity:1"/>
<path class="bond-59 atom-59 atom-60" d="M 167.9,144.4 L 171.3,146.2" style="fill:none;fill-rule:evenodd;stroke:#000000;stroke-width:2.0px;stroke-linecap:butt;stroke-linejoin:miter;stroke-opacity:1"/>
<path class="bond-59 atom-59 atom-60" d="M 171.3,146.2 L 174.7,148.0" style="fill:none;fill-rule:evenodd;stroke:#FF0000;stroke-width:2.0px;stroke-linecap:butt;stroke-linejoin:miter;stroke-opacity:1"/>
<path class="bond-60 atom-59 atom-61" d="M 168.0,145.3 L 164.8,147.2" style="fill:none;fill-rule:evenodd;stroke:#000000;stroke-width:2.0px;stroke-linecap:butt;stroke-linejoin:miter;stroke-opacity:1"/>
<path class="bond-60 atom-59 atom-61" d="M 164.8,147.2 L 161.6,149.2" style="fill:none;fill-rule:evenodd;stroke:#0000FF;stroke-width:2.0px;stroke-linecap:butt;stroke-linejoin:miter;stroke-opacity:1"/>
<path class="bond-61 atom-61 atom-62" d="M 159.7,152.8 L 159.8,156.5" style="fill:none;fill-rule:evenodd;stroke:#0000FF;stroke-width:2.0px;stroke-linecap:butt;stroke-linejoin:miter;stroke-opacity:1"/>
<path class="bond-61 atom-61 atom-62" d="M 159.8,156.5 L 159.9,160.2" style="fill:none;fill-rule:evenodd;stroke:#000000;stroke-width:2.0px;stroke-linecap:butt;stroke-linejoin:miter;stroke-opacity:1"/>
<path class="bond-62 atom-62 atom-63" d="M 159.9,160.2 L 151.6,165.3" style="fill:none;fill-rule:evenodd;stroke:#000000;stroke-width:2.0px;stroke-linecap:butt;stroke-linejoin:miter;stroke-opacity:1"/>
<path class="bond-63 atom-63 atom-64" d="M 151.6,165.3 L 151.7,169.0" style="fill:none;fill-rule:evenodd;stroke:#000000;stroke-width:2.0px;stroke-linecap:butt;stroke-linejoin:miter;stroke-opacity:1"/>
<path class="bond-63 atom-63 atom-64" d="M 151.7,169.0 L 151.9,172.6" style="fill:none;fill-rule:evenodd;stroke:#CCCC00;stroke-width:2.0px;stroke-linecap:butt;stroke-linejoin:miter;stroke-opacity:1"/>
<path class="bond-64 atom-64 atom-65" d="M 150.2,176.1 L 146.9,178.2" style="fill:none;fill-rule:evenodd;stroke:#CCCC00;stroke-width:2.0px;stroke-linecap:butt;stroke-linejoin:miter;stroke-opacity:1"/>
<path class="bond-64 atom-64 atom-65" d="M 146.9,178.2 L 143.6,180.2" style="fill:none;fill-rule:evenodd;stroke:#000000;stroke-width:2.0px;stroke-linecap:butt;stroke-linejoin:miter;stroke-opacity:1"/>
<path class="bond-65 atom-65 atom-66" d="M 143.6,180.2 L 143.9,190.0" style="fill:none;fill-rule:evenodd;stroke:#000000;stroke-width:2.0px;stroke-linecap:butt;stroke-linejoin:miter;stroke-opacity:1"/>
<path class="bond-66 atom-65 atom-67" d="M 144.3,179.8 L 141.0,178.0" style="fill:none;fill-rule:evenodd;stroke:#000000;stroke-width:2.0px;stroke-linecap:butt;stroke-linejoin:miter;stroke-opacity:1"/>
<path class="bond-66 atom-65 atom-67" d="M 141.0,178.0 L 137.6,176.2" style="fill:none;fill-rule:evenodd;stroke:#FF0000;stroke-width:2.0px;stroke-linecap:butt;stroke-linejoin:miter;stroke-opacity:1"/>
<path class="bond-66 atom-65 atom-67" d="M 143.6,181.1 L 140.3,179.3" style="fill:none;fill-rule:evenodd;stroke:#000000;stroke-width:2.0px;stroke-linecap:butt;stroke-linejoin:miter;stroke-opacity:1"/>
<path class="bond-66 atom-65 atom-67" d="M 140.3,179.3 L 136.9,177.5" style="fill:none;fill-rule:evenodd;stroke:#FF0000;stroke-width:2.0px;stroke-linecap:butt;stroke-linejoin:miter;stroke-opacity:1"/>
<path class="bond-67 atom-38 atom-68" d="M 243.1,108.8 L 234.8,113.9" style="fill:none;fill-rule:evenodd;stroke:#000000;stroke-width:2.0px;stroke-linecap:butt;stroke-linejoin:miter;stroke-opacity:1"/>
<path class="bond-68 atom-68 atom-69" d="M 234.8,113.9 L 234.5,117.5" style="fill:none;fill-rule:evenodd;stroke:#000000;stroke-width:2.0px;stroke-linecap:butt;stroke-linejoin:miter;stroke-opacity:1"/>
<path class="bond-68 atom-68 atom-69" d="M 234.5,117.5 L 234.3,121.2" style="fill:none;fill-rule:evenodd;stroke:#FF0000;stroke-width:2.0px;stroke-linecap:butt;stroke-linejoin:miter;stroke-opacity:1"/>
<path class="bond-69 atom-69 atom-70" d="M 231.8,124.2 L 228.2,125.1" style="fill:none;fill-rule:evenodd;stroke:#FF0000;stroke-width:2.0px;stroke-linecap:butt;stroke-linejoin:miter;stroke-opacity:1"/>
<path class="bond-69 atom-69 atom-70" d="M 228.2,125.1 L 224.6,126.0" style="fill:none;fill-rule:evenodd;stroke:#000000;stroke-width:2.0px;stroke-linecap:butt;stroke-linejoin:miter;stroke-opacity:1"/>
<path class="bond-70 atom-70 atom-71" d="M 224.6,126.0 L 223.2,129.3" style="fill:none;fill-rule:evenodd;stroke:#000000;stroke-width:2.0px;stroke-linecap:butt;stroke-linejoin:miter;stroke-opacity:1"/>
<path class="bond-70 atom-70 atom-71" d="M 223.2,129.3 L 221.9,132.6" style="fill:none;fill-rule:evenodd;stroke:#0000FF;stroke-width:2.0px;stroke-linecap:butt;stroke-linejoin:miter;stroke-opacity:1"/>
<path class="bond-71 atom-71 atom-72" d="M 218.9,135.5 L 215.1,136.4" style="fill:none;fill-rule:evenodd;stroke:#0000FF;stroke-width:2.0px;stroke-linecap:butt;stroke-linejoin:miter;stroke-opacity:1"/>
<path class="bond-71 atom-71 atom-72" d="M 215.1,136.4 L 211.4,137.3" style="fill:none;fill-rule:evenodd;stroke:#000000;stroke-width:2.0px;stroke-linecap:butt;stroke-linejoin:miter;stroke-opacity:1"/>
<path class="bond-72 atom-72 atom-73" d="M 211.4,137.3 L 211.1,141.0" style="fill:none;fill-rule:evenodd;stroke:#000000;stroke-width:2.0px;stroke-linecap:butt;stroke-linejoin:miter;stroke-opacity:1"/>
<path class="bond-72 atom-72 atom-73" d="M 211.1,141.0 L 210.8,144.6" style="fill:none;fill-rule:evenodd;stroke:#0000FF;stroke-width:2.0px;stroke-linecap:butt;stroke-linejoin:miter;stroke-opacity:1"/>
<path class="bond-72 atom-72 atom-73" d="M 212.7,138.5 L 212.5,141.6" style="fill:none;fill-rule:evenodd;stroke:#000000;stroke-width:2.0px;stroke-linecap:butt;stroke-linejoin:miter;stroke-opacity:1"/>
<path class="bond-72 atom-72 atom-73" d="M 212.5,141.6 L 212.3,144.8" style="fill:none;fill-rule:evenodd;stroke:#0000FF;stroke-width:2.0px;stroke-linecap:butt;stroke-linejoin:miter;stroke-opacity:1"/>
<path class="bond-73 atom-73 atom-74" d="M 212.6,147.9 L 216.1,149.3" style="fill:none;fill-rule:evenodd;stroke:#0000FF;stroke-width:2.0px;stroke-linecap:butt;stroke-linejoin:miter;stroke-opacity:1"/>
<path class="bond-73 atom-73 atom-74" d="M 216.1,149.3 L 219.7,150.8" style="fill:none;fill-rule:evenodd;stroke:#000000;stroke-width:2.0px;stroke-linecap:butt;stroke-linejoin:miter;stroke-opacity:1"/>
<path class="bond-74 atom-74 atom-75" d="M 219.7,150.8 L 223.0,160.0" style="fill:none;fill-rule:evenodd;stroke:#000000;stroke-width:2.0px;stroke-linecap:butt;stroke-linejoin:miter;stroke-opacity:1"/>
<path class="bond-74 atom-74 atom-75" d="M 221.3,151.1 L 224.1,158.7" style="fill:none;fill-rule:evenodd;stroke:#000000;stroke-width:2.0px;stroke-linecap:butt;stroke-linejoin:miter;stroke-opacity:1"/>
<path class="bond-75 atom-75 atom-76" d="M 223.0,160.0 L 220.8,162.6" style="fill:none;fill-rule:evenodd;stroke:#000000;stroke-width:2.0px;stroke-linecap:butt;stroke-linejoin:miter;stroke-opacity:1"/>
<path class="bond-75 atom-75 atom-76" d="M 220.8,162.6 L 218.6,165.2" style="fill:none;fill-rule:evenodd;stroke:#0000FF;stroke-width:2.0px;stroke-linecap:butt;stroke-linejoin:miter;stroke-opacity:1"/>
<path class="bond-76 atom-75 atom-77" d="M 223.0,160.0 L 226.8,160.7" style="fill:none;fill-rule:evenodd;stroke:#000000;stroke-width:2.0px;stroke-linecap:butt;stroke-linejoin:miter;stroke-opacity:1"/>
<path class="bond-76 atom-75 atom-77" d="M 226.8,160.7 L 230.7,161.4" style="fill:none;fill-rule:evenodd;stroke:#0000FF;stroke-width:2.0px;stroke-linecap:butt;stroke-linejoin:miter;stroke-opacity:1"/>
<path class="bond-77 atom-77 atom-78" d="M 234.5,159.5 L 236.7,156.9" style="fill:none;fill-rule:evenodd;stroke:#0000FF;stroke-width:2.0px;stroke-linecap:butt;stroke-linejoin:miter;stroke-opacity:1"/>
<path class="bond-77 atom-77 atom-78" d="M 236.7,156.9 L 238.9,154.3" style="fill:none;fill-rule:evenodd;stroke:#000000;stroke-width:2.0px;stroke-linecap:butt;stroke-linejoin:miter;stroke-opacity:1"/>
<path class="bond-77 atom-77 atom-78" d="M 233.4,158.5 L 235.3,156.3" style="fill:none;fill-rule:evenodd;stroke:#0000FF;stroke-width:2.0px;stroke-linecap:butt;stroke-linejoin:miter;stroke-opacity:1"/>
<path class="bond-77 atom-77 atom-78" d="M 235.3,156.3 L 237.3,154.0" style="fill:none;fill-rule:evenodd;stroke:#000000;stroke-width:2.0px;stroke-linecap:butt;stroke-linejoin:miter;stroke-opacity:1"/>
<path class="bond-78 atom-78 atom-79" d="M 238.9,154.3 L 237.7,150.9" style="fill:none;fill-rule:evenodd;stroke:#000000;stroke-width:2.0px;stroke-linecap:butt;stroke-linejoin:miter;stroke-opacity:1"/>
<path class="bond-78 atom-78 atom-79" d="M 237.7,150.9 L 236.5,147.5" style="fill:none;fill-rule:evenodd;stroke:#0000FF;stroke-width:2.0px;stroke-linecap:butt;stroke-linejoin:miter;stroke-opacity:1"/>
<path class="bond-79 atom-79 atom-80" d="M 233.7,144.7 L 229.8,144.0" style="fill:none;fill-rule:evenodd;stroke:#0000FF;stroke-width:2.0px;stroke-linecap:butt;stroke-linejoin:miter;stroke-opacity:1"/>
<path class="bond-79 atom-79 atom-80" d="M 229.8,144.0 L 226.0,143.3" style="fill:none;fill-rule:evenodd;stroke:#000000;stroke-width:2.0px;stroke-linecap:butt;stroke-linejoin:miter;stroke-opacity:1"/>
<path class="bond-79 atom-79 atom-80" d="M 233.4,146.2 L 230.0,145.5" style="fill:none;fill-rule:evenodd;stroke:#0000FF;stroke-width:2.0px;stroke-linecap:butt;stroke-linejoin:miter;stroke-opacity:1"/>
<path class="bond-79 atom-79 atom-80" d="M 230.0,145.5 L 226.6,144.9" style="fill:none;fill-rule:evenodd;stroke:#000000;stroke-width:2.0px;stroke-linecap:butt;stroke-linejoin:miter;stroke-opacity:1"/>
<path class="bond-80 atom-70 atom-81" d="M 224.6,126.0 L 219.4,117.7" style="fill:none;fill-rule:evenodd;stroke:#000000;stroke-width:2.0px;stroke-linecap:butt;stroke-linejoin:miter;stroke-opacity:1"/>
<path class="bond-81 atom-81 atom-82" d="M 219.4,117.7 L 215.7,117.4" style="fill:none;fill-rule:evenodd;stroke:#000000;stroke-width:2.0px;stroke-linecap:butt;stroke-linejoin:miter;stroke-opacity:1"/>
<path class="bond-81 atom-81 atom-82" d="M 215.7,117.4 L 211.9,117.1" style="fill:none;fill-rule:evenodd;stroke:#FF0000;stroke-width:2.0px;stroke-linecap:butt;stroke-linejoin:miter;stroke-opacity:1"/>
<path class="bond-82 atom-81 atom-83" d="M 219.4,117.7 L 225.7,110.2" style="fill:none;fill-rule:evenodd;stroke:#000000;stroke-width:2.0px;stroke-linecap:butt;stroke-linejoin:miter;stroke-opacity:1"/>
<path class="bond-83 atom-83 atom-84" d="M 225.7,110.2 L 224.9,106.7" style="fill:none;fill-rule:evenodd;stroke:#000000;stroke-width:2.0px;stroke-linecap:butt;stroke-linejoin:miter;stroke-opacity:1"/>
<path class="bond-83 atom-83 atom-84" d="M 224.9,106.7 L 224.0,103.2" style="fill:none;fill-rule:evenodd;stroke:#FF0000;stroke-width:2.0px;stroke-linecap:butt;stroke-linejoin:miter;stroke-opacity:1"/>
<path class="bond-84 atom-84 atom-85" d="M 225.7,98.5 L 227.3,97.0" style="fill:none;fill-rule:evenodd;stroke:#FF0000;stroke-width:2.0px;stroke-linecap:butt;stroke-linejoin:miter;stroke-opacity:1"/>
<path class="bond-84 atom-84 atom-85" d="M 227.3,97.0 L 228.8,95.5" style="fill:none;fill-rule:evenodd;stroke:#FF7F00;stroke-width:2.0px;stroke-linecap:butt;stroke-linejoin:miter;stroke-opacity:1"/>
<path class="bond-85 atom-85 atom-86" d="M 229.2,92.3 L 227.0,90.9" style="fill:none;fill-rule:evenodd;stroke:#FF7F00;stroke-width:2.0px;stroke-linecap:butt;stroke-linejoin:miter;stroke-opacity:1"/>
<path class="bond-85 atom-85 atom-86" d="M 227.0,90.9 L 224.9,89.5" style="fill:none;fill-rule:evenodd;stroke:#FF0000;stroke-width:2.0px;stroke-linecap:butt;stroke-linejoin:miter;stroke-opacity:1"/>
<path class="bond-85 atom-85 atom-86" d="M 228.4,93.5 L 226.3,92.1" style="fill:none;fill-rule:evenodd;stroke:#FF7F00;stroke-width:2.0px;stroke-linecap:butt;stroke-linejoin:miter;stroke-opacity:1"/>
<path class="bond-85 atom-85 atom-86" d="M 226.3,92.1 L 224.1,90.8" style="fill:none;fill-rule:evenodd;stroke:#FF0000;stroke-width:2.0px;stroke-linecap:butt;stroke-linejoin:miter;stroke-opacity:1"/>
<path class="bond-86 atom-85 atom-87" d="M 232.2,95.0 L 234.3,96.4" style="fill:none;fill-rule:evenodd;stroke:#FF7F00;stroke-width:2.0px;stroke-linecap:butt;stroke-linejoin:miter;stroke-opacity:1"/>
<path class="bond-86 atom-85 atom-87" d="M 234.3,96.4 L 236.5,97.7" style="fill:none;fill-rule:evenodd;stroke:#FF0000;stroke-width:2.0px;stroke-linecap:butt;stroke-linejoin:miter;stroke-opacity:1"/>
<path class="bond-87 atom-85 atom-88" d="M 232.2,91.9 L 233.4,90.4" style="fill:none;fill-rule:evenodd;stroke:#FF7F00;stroke-width:2.0px;stroke-linecap:butt;stroke-linejoin:miter;stroke-opacity:1"/>
<path class="bond-87 atom-85 atom-88" d="M 233.4,90.4 L 234.6,88.9" style="fill:none;fill-rule:evenodd;stroke:#FF0000;stroke-width:2.0px;stroke-linecap:butt;stroke-linejoin:miter;stroke-opacity:1"/>
<path class="bond-88 atom-34 atom-89" d="M 260.3,118.0 L 260.8,121.6" style="fill:none;fill-rule:evenodd;stroke:#000000;stroke-width:2.0px;stroke-linecap:butt;stroke-linejoin:miter;stroke-opacity:1"/>
<path class="bond-88 atom-34 atom-89" d="M 260.8,121.6 L 261.3,125.3" style="fill:none;fill-rule:evenodd;stroke:#0000FF;stroke-width:2.0px;stroke-linecap:butt;stroke-linejoin:miter;stroke-opacity:1"/>
<path class="bond-88 atom-34 atom-89" d="M 261.9,118.9 L 262.3,122.0" style="fill:none;fill-rule:evenodd;stroke:#000000;stroke-width:2.0px;stroke-linecap:butt;stroke-linejoin:miter;stroke-opacity:1"/>
<path class="bond-88 atom-34 atom-89" d="M 262.3,122.0 L 262.8,125.1" style="fill:none;fill-rule:evenodd;stroke:#0000FF;stroke-width:2.0px;stroke-linecap:butt;stroke-linejoin:miter;stroke-opacity:1"/>
<path class="bond-89 atom-89 atom-90" d="M 263.6,128.1 L 267.4,128.8" style="fill:none;fill-rule:evenodd;stroke:#0000FF;stroke-width:2.0px;stroke-linecap:butt;stroke-linejoin:miter;stroke-opacity:1"/>
<path class="bond-89 atom-89 atom-90" d="M 267.4,128.8 L 271.3,129.5" style="fill:none;fill-rule:evenodd;stroke:#000000;stroke-width:2.0px;stroke-linecap:butt;stroke-linejoin:miter;stroke-opacity:1"/>
<path class="bond-90 atom-90 atom-91" d="M 271.3,129.5 L 276.4,137.8" style="fill:none;fill-rule:evenodd;stroke:#000000;stroke-width:2.0px;stroke-linecap:butt;stroke-linejoin:miter;stroke-opacity:1"/>
<path class="bond-90 atom-90 atom-91" d="M 273.0,129.4 L 277.2,136.3" style="fill:none;fill-rule:evenodd;stroke:#000000;stroke-width:2.0px;stroke-linecap:butt;stroke-linejoin:miter;stroke-opacity:1"/>
<path class="bond-91 atom-91 atom-92" d="M 276.4,137.8 L 274.7,140.9" style="fill:none;fill-rule:evenodd;stroke:#000000;stroke-width:2.0px;stroke-linecap:butt;stroke-linejoin:miter;stroke-opacity:1"/>
<path class="bond-91 atom-91 atom-92" d="M 274.7,140.9 L 273.1,143.9" style="fill:none;fill-rule:evenodd;stroke:#0000FF;stroke-width:2.0px;stroke-linecap:butt;stroke-linejoin:miter;stroke-opacity:1"/>
<path class="bond-92 atom-91 atom-93" d="M 276.4,137.8 L 280.3,137.7" style="fill:none;fill-rule:evenodd;stroke:#000000;stroke-width:2.0px;stroke-linecap:butt;stroke-linejoin:miter;stroke-opacity:1"/>
<path class="bond-92 atom-91 atom-93" d="M 280.3,137.7 L 284.2,137.5" style="fill:none;fill-rule:evenodd;stroke:#0000FF;stroke-width:2.0px;stroke-linecap:butt;stroke-linejoin:miter;stroke-opacity:1"/>
<path class="bond-93 atom-93 atom-94" d="M 287.5,135.0 L 289.2,132.0" style="fill:none;fill-rule:evenodd;stroke:#0000FF;stroke-width:2.0px;stroke-linecap:butt;stroke-linejoin:miter;stroke-opacity:1"/>
<path class="bond-93 atom-93 atom-94" d="M 289.2,132.0 L 290.8,128.9" style="fill:none;fill-rule:evenodd;stroke:#000000;stroke-width:2.0px;stroke-linecap:butt;stroke-linejoin:miter;stroke-opacity:1"/>
<path class="bond-93 atom-93 atom-94" d="M 286.2,134.3 L 287.7,131.6" style="fill:none;fill-rule:evenodd;stroke:#0000FF;stroke-width:2.0px;stroke-linecap:butt;stroke-linejoin:miter;stroke-opacity:1"/>
<path class="bond-93 atom-93 atom-94" d="M 287.7,131.6 L 289.1,128.9" style="fill:none;fill-rule:evenodd;stroke:#000000;stroke-width:2.0px;stroke-linecap:butt;stroke-linejoin:miter;stroke-opacity:1"/>
<path class="bond-94 atom-94 atom-95" d="M 290.8,128.9 L 289.0,125.9" style="fill:none;fill-rule:evenodd;stroke:#000000;stroke-width:2.0px;stroke-linecap:butt;stroke-linejoin:miter;stroke-opacity:1"/>
<path class="bond-94 atom-94 atom-95" d="M 289.0,125.9 L 287.2,123.0" style="fill:none;fill-rule:evenodd;stroke:#0000FF;stroke-width:2.0px;stroke-linecap:butt;stroke-linejoin:miter;stroke-opacity:1"/>
<path class="bond-95 atom-95 atom-96" d="M 283.7,120.6 L 279.8,120.7" style="fill:none;fill-rule:evenodd;stroke:#0000FF;stroke-width:2.0px;stroke-linecap:butt;stroke-linejoin:miter;stroke-opacity:1"/>
<path class="bond-95 atom-95 atom-96" d="M 279.8,120.7 L 275.9,120.8" style="fill:none;fill-rule:evenodd;stroke:#000000;stroke-width:2.0px;stroke-linecap:butt;stroke-linejoin:miter;stroke-opacity:1"/>
<path class="bond-95 atom-95 atom-96" d="M 283.8,122.1 L 280.3,122.2" style="fill:none;fill-rule:evenodd;stroke:#0000FF;stroke-width:2.0px;stroke-linecap:butt;stroke-linejoin:miter;stroke-opacity:1"/>
<path class="bond-95 atom-95 atom-96" d="M 280.3,122.2 L 276.8,122.3" style="fill:none;fill-rule:evenodd;stroke:#000000;stroke-width:2.0px;stroke-linecap:butt;stroke-linejoin:miter;stroke-opacity:1"/>
<path class="bond-96 atom-32 atom-97" d="M 270.9,104.2 L 279.7,99.9" style="fill:none;fill-rule:evenodd;stroke:#000000;stroke-width:2.0px;stroke-linecap:butt;stroke-linejoin:miter;stroke-opacity:1"/>
<path class="bond-97 atom-97 atom-98" d="M 279.7,99.9 L 282.9,101.6" style="fill:none;fill-rule:evenodd;stroke:#000000;stroke-width:2.0px;stroke-linecap:butt;stroke-linejoin:miter;stroke-opacity:1"/>
<path class="bond-97 atom-97 atom-98" d="M 282.9,101.6 L 286.0,103.3" style="fill:none;fill-rule:evenodd;stroke:#FF0000;stroke-width:2.0px;stroke-linecap:butt;stroke-linejoin:miter;stroke-opacity:1"/>
<path class="bond-98 atom-97 atom-99" d="M 279.7,99.9 L 278.4,90.2" style="fill:none;fill-rule:evenodd;stroke:#000000;stroke-width:2.0px;stroke-linecap:butt;stroke-linejoin:miter;stroke-opacity:1"/>
<path class="bond-99 atom-99 atom-100" d="M 278.4,90.2 L 280.8,87.9" style="fill:none;fill-rule:evenodd;stroke:#000000;stroke-width:2.0px;stroke-linecap:butt;stroke-linejoin:miter;stroke-opacity:1"/>
<path class="bond-99 atom-99 atom-100" d="M 280.8,87.9 L 283.2,85.6" style="fill:none;fill-rule:evenodd;stroke:#FF0000;stroke-width:2.0px;stroke-linecap:butt;stroke-linejoin:miter;stroke-opacity:1"/>
<path class="bond-100 atom-100 atom-101" d="M 287.7,84.1 L 290.4,84.9" style="fill:none;fill-rule:evenodd;stroke:#FF0000;stroke-width:2.0px;stroke-linecap:butt;stroke-linejoin:miter;stroke-opacity:1"/>
<path class="bond-100 atom-100 atom-101" d="M 290.4,84.9 L 293.2,85.7" style="fill:none;fill-rule:evenodd;stroke:#FF7F00;stroke-width:2.0px;stroke-linecap:butt;stroke-linejoin:miter;stroke-opacity:1"/>
<path class="bond-101 atom-101 atom-102" d="M 296.2,84.0 L 296.9,81.8" style="fill:none;fill-rule:evenodd;stroke:#FF7F00;stroke-width:2.0px;stroke-linecap:butt;stroke-linejoin:miter;stroke-opacity:1"/>
<path class="bond-101 atom-101 atom-102" d="M 296.9,81.8 L 297.5,79.6" style="fill:none;fill-rule:evenodd;stroke:#FF0000;stroke-width:2.0px;stroke-linecap:butt;stroke-linejoin:miter;stroke-opacity:1"/>
<path class="bond-101 atom-101 atom-102" d="M 294.8,83.6 L 295.5,81.4" style="fill:none;fill-rule:evenodd;stroke:#FF7F00;stroke-width:2.0px;stroke-linecap:butt;stroke-linejoin:miter;stroke-opacity:1"/>
<path class="bond-101 atom-101 atom-102" d="M 295.5,81.4 L 296.1,79.2" style="fill:none;fill-rule:evenodd;stroke:#FF0000;stroke-width:2.0px;stroke-linecap:butt;stroke-linejoin:miter;stroke-opacity:1"/>
<path class="bond-102 atom-101 atom-103" d="M 294.1,88.7 L 293.5,90.9" style="fill:none;fill-rule:evenodd;stroke:#FF7F00;stroke-width:2.0px;stroke-linecap:butt;stroke-linejoin:miter;stroke-opacity:1"/>
<path class="bond-102 atom-101 atom-103" d="M 293.5,90.9 L 292.8,93.1" style="fill:none;fill-rule:evenodd;stroke:#FF0000;stroke-width:2.0px;stroke-linecap:butt;stroke-linejoin:miter;stroke-opacity:1"/>
<path class="bond-103 atom-101 atom-104" d="M 296.5,86.7 L 299.2,87.5" style="fill:none;fill-rule:evenodd;stroke:#FF7F00;stroke-width:2.0px;stroke-linecap:butt;stroke-linejoin:miter;stroke-opacity:1"/>
<path class="bond-103 atom-101 atom-104" d="M 299.2,87.5 L 301.9,88.3" style="fill:none;fill-rule:evenodd;stroke:#FF0000;stroke-width:2.0px;stroke-linecap:butt;stroke-linejoin:miter;stroke-opacity:1"/>
<path class="bond-104 atom-29 atom-105" d="M 264.5,79.7 L 270.0,71.6" style="fill:none;fill-rule:evenodd;stroke:#000000;stroke-width:2.0px;stroke-linecap:butt;stroke-linejoin:miter;stroke-opacity:1"/>
<path class="bond-105 atom-105 atom-106" d="M 270.0,71.6 L 272.9,73.6" style="fill:none;fill-rule:evenodd;stroke:#000000;stroke-width:2.0px;stroke-linecap:butt;stroke-linejoin:miter;stroke-opacity:1"/>
<path class="bond-105 atom-105 atom-106" d="M 272.9,73.6 L 275.8,75.6" style="fill:none;fill-rule:evenodd;stroke:#FF0000;stroke-width:2.0px;stroke-linecap:butt;stroke-linejoin:miter;stroke-opacity:1"/>
<path class="bond-106 atom-105 atom-107" d="M 270.0,71.6 L 267.5,69.4" style="fill:none;fill-rule:evenodd;stroke:#000000;stroke-width:2.0px;stroke-linecap:butt;stroke-linejoin:miter;stroke-opacity:1"/>
<path class="bond-106 atom-105 atom-107" d="M 267.5,69.4 L 264.9,67.1" style="fill:none;fill-rule:evenodd;stroke:#FF0000;stroke-width:2.0px;stroke-linecap:butt;stroke-linejoin:miter;stroke-opacity:1"/>
<path class="bond-107 atom-105 atom-108" d="M 270.0,71.6 L 275.5,63.5" style="fill:none;fill-rule:evenodd;stroke:#000000;stroke-width:2.0px;stroke-linecap:butt;stroke-linejoin:miter;stroke-opacity:1"/>
<path class="bond-108 atom-108 atom-109" d="M 275.5,63.5 L 285.3,64.3" style="fill:none;fill-rule:evenodd;stroke:#000000;stroke-width:2.0px;stroke-linecap:butt;stroke-linejoin:miter;stroke-opacity:1"/>
<path class="bond-108 atom-108 atom-109" d="M 276.3,65.0 L 285.2,65.7" style="fill:none;fill-rule:evenodd;stroke:#000000;stroke-width:2.0px;stroke-linecap:butt;stroke-linejoin:miter;stroke-opacity:1"/>
<path class="bond-109 atom-109 atom-110" d="M 285.3,64.3 L 290.8,56.2" style="fill:none;fill-rule:evenodd;stroke:#000000;stroke-width:2.0px;stroke-linecap:butt;stroke-linejoin:miter;stroke-opacity:1"/>
<path class="bond-110 atom-110 atom-111" d="M 291.6,56.2 L 290.0,52.9" style="fill:none;fill-rule:evenodd;stroke:#000000;stroke-width:2.0px;stroke-linecap:butt;stroke-linejoin:miter;stroke-opacity:1"/>
<path class="bond-110 atom-110 atom-111" d="M 290.0,52.9 L 288.4,49.6" style="fill:none;fill-rule:evenodd;stroke:#FF0000;stroke-width:2.0px;stroke-linecap:butt;stroke-linejoin:miter;stroke-opacity:1"/>
<path class="bond-110 atom-110 atom-111" d="M 290.3,56.9 L 288.7,53.5" style="fill:none;fill-rule:evenodd;stroke:#000000;stroke-width:2.0px;stroke-linecap:butt;stroke-linejoin:miter;stroke-opacity:1"/>
<path class="bond-110 atom-110 atom-111" d="M 288.7,53.5 L 287.1,50.2" style="fill:none;fill-rule:evenodd;stroke:#FF0000;stroke-width:2.0px;stroke-linecap:butt;stroke-linejoin:miter;stroke-opacity:1"/>
<path class="bond-111 atom-110 atom-112" d="M 290.8,56.2 L 294.5,56.5" style="fill:none;fill-rule:evenodd;stroke:#000000;stroke-width:2.0px;stroke-linecap:butt;stroke-linejoin:miter;stroke-opacity:1"/>
<path class="bond-111 atom-110 atom-112" d="M 294.5,56.5 L 298.3,56.7" style="fill:none;fill-rule:evenodd;stroke:#FF0000;stroke-width:2.0px;stroke-linecap:butt;stroke-linejoin:miter;stroke-opacity:1"/>
<path class="bond-112 atom-99 atom-30" d="M 278.4,90.2 L 268.8,88.5" style="fill:none;fill-rule:evenodd;stroke:#000000;stroke-width:2.0px;stroke-linecap:butt;stroke-linejoin:miter;stroke-opacity:1"/>
<path class="bond-113 atom-96 atom-33" d="M 275.9,120.8 L 273.5,118.3" style="fill:none;fill-rule:evenodd;stroke:#000000;stroke-width:2.0px;stroke-linecap:butt;stroke-linejoin:miter;stroke-opacity:1"/>
<path class="bond-113 atom-96 atom-33" d="M 273.5,118.3 L 271.1,115.8" style="fill:none;fill-rule:evenodd;stroke:#0000FF;stroke-width:2.0px;stroke-linecap:butt;stroke-linejoin:miter;stroke-opacity:1"/>
<path class="bond-114 atom-83 atom-68" d="M 225.7,110.2 L 234.8,113.9" style="fill:none;fill-rule:evenodd;stroke:#000000;stroke-width:2.0px;stroke-linecap:butt;stroke-linejoin:miter;stroke-opacity:1"/>
<path class="bond-115 atom-96 atom-90" d="M 275.9,120.8 L 271.3,129.5" style="fill:none;fill-rule:evenodd;stroke:#000000;stroke-width:2.0px;stroke-linecap:butt;stroke-linejoin:miter;stroke-opacity:1"/>
<path class="bond-116 atom-80 atom-71" d="M 226.0,143.3 L 224.2,140.4" style="fill:none;fill-rule:evenodd;stroke:#000000;stroke-width:2.0px;stroke-linecap:butt;stroke-linejoin:miter;stroke-opacity:1"/>
<path class="bond-116 atom-80 atom-71" d="M 224.2,140.4 L 222.4,137.5" style="fill:none;fill-rule:evenodd;stroke:#0000FF;stroke-width:2.0px;stroke-linecap:butt;stroke-linejoin:miter;stroke-opacity:1"/>
<path class="bond-117 atom-80 atom-74" d="M 226.0,143.3 L 219.7,150.8" style="fill:none;fill-rule:evenodd;stroke:#000000;stroke-width:2.0px;stroke-linecap:butt;stroke-linejoin:miter;stroke-opacity:1"/>
<path d="M 131.6,18.4 L 131.8,18.8 L 132.0,18.8" style="fill:none;stroke:#000000;stroke-width:2.0px;stroke-linecap:butt;stroke-linejoin:miter;stroke-opacity:1;"/>
<path d="M 145.7,28.2 L 145.8,28.3 L 146.3,28.4" style="fill:none;stroke:#000000;stroke-width:2.0px;stroke-linecap:butt;stroke-linejoin:miter;stroke-opacity:1;"/>
<path d="M 155.1,29.0 L 155.5,29.1 L 155.6,29.2" style="fill:none;stroke:#000000;stroke-width:2.0px;stroke-linecap:butt;stroke-linejoin:miter;stroke-opacity:1;"/>
<path d="M 169.3,38.6 L 169.5,38.6 L 169.8,39.1" style="fill:none;stroke:#000000;stroke-width:2.0px;stroke-linecap:butt;stroke-linejoin:miter;stroke-opacity:1;"/>
<path d="M 173.6,47.0 L 173.8,47.4 L 174.3,47.5" style="fill:none;stroke:#000000;stroke-width:2.0px;stroke-linecap:butt;stroke-linejoin:miter;stroke-opacity:1;"/>
<path d="M 183.0,48.1 L 183.5,48.1 L 183.6,48.3" style="fill:none;stroke:#000000;stroke-width:2.0px;stroke-linecap:butt;stroke-linejoin:miter;stroke-opacity:1;"/>
<path d="M 197.3,57.7 L 197.5,57.7 L 197.7,58.1" style="fill:none;stroke:#000000;stroke-width:2.0px;stroke-linecap:butt;stroke-linejoin:miter;stroke-opacity:1;"/>
<path d="M 220.8,67.9 L 221.3,68.0 L 221.4,67.8" style="fill:none;stroke:#000000;stroke-width:2.0px;stroke-linecap:butt;stroke-linejoin:miter;stroke-opacity:1;"/>
<path d="M 200.5,95.5 L 200.4,95.4 L 199.9,95.6" style="fill:none;stroke:#000000;stroke-width:2.0px;stroke-linecap:butt;stroke-linejoin:miter;stroke-opacity:1;"/>
<path d="M 184.0,114.9 L 184.0,115.4 L 183.9,115.5" style="fill:none;stroke:#000000;stroke-width:2.0px;stroke-linecap:butt;stroke-linejoin:miter;stroke-opacity:1;"/>
<path d="M 176.0,130.2 L 176.0,130.3 L 175.6,130.6" style="fill:none;stroke:#000000;stroke-width:2.0px;stroke-linecap:butt;stroke-linejoin:miter;stroke-opacity:1;"/>
<path d="M 168.1,135.2 L 167.7,135.5 L 167.7,136.0" style="fill:none;stroke:#000000;stroke-width:2.0px;stroke-linecap:butt;stroke-linejoin:miter;stroke-opacity:1;"/>
<path d="M 168.0,144.8 L 168.0,145.3 L 167.8,145.4" style="fill:none;stroke:#000000;stroke-width:2.0px;stroke-linecap:butt;stroke-linejoin:miter;stroke-opacity:1;"/>
<path d="M 159.9,160.0 L 159.9,160.2 L 159.5,160.4" style="fill:none;stroke:#000000;stroke-width:2.0px;stroke-linecap:butt;stroke-linejoin:miter;stroke-opacity:1;"/>
<path d="M 152.0,165.1 L 151.6,165.3 L 151.6,165.5" style="fill:none;stroke:#000000;stroke-width:2.0px;stroke-linecap:butt;stroke-linejoin:miter;stroke-opacity:1;"/>
<path d="M 143.8,180.1 L 143.6,180.2 L 143.6,180.7" style="fill:none;stroke:#000000;stroke-width:2.0px;stroke-linecap:butt;stroke-linejoin:miter;stroke-opacity:1;"/>
<path d="M 211.6,137.3 L 211.4,137.3 L 211.3,137.5" style="fill:none;stroke:#000000;stroke-width:2.0px;stroke-linecap:butt;stroke-linejoin:miter;stroke-opacity:1;"/>
<path d="M 238.8,154.4 L 238.9,154.3 L 238.9,154.1" style="fill:none;stroke:#000000;stroke-width:2.0px;stroke-linecap:butt;stroke-linejoin:miter;stroke-opacity:1;"/>
<path d="M 290.7,129.0 L 290.8,128.9 L 290.7,128.7" style="fill:none;stroke:#000000;stroke-width:2.0px;stroke-linecap:butt;stroke-linejoin:miter;stroke-opacity:1;"/>
<path d="M 275.3,63.9 L 275.5,63.5 L 276.0,63.6" style="fill:none;stroke:#000000;stroke-width:2.0px;stroke-linecap:butt;stroke-linejoin:miter;stroke-opacity:1;"/>
<path d="M 284.8,64.2 L 285.3,64.3 L 285.6,63.8" style="fill:none;stroke:#000000;stroke-width:2.0px;stroke-linecap:butt;stroke-linejoin:miter;stroke-opacity:1;"/>
<path d="M 290.5,56.6 L 290.8,56.2 L 291.0,56.2" style="fill:none;stroke:#000000;stroke-width:2.0px;stroke-linecap:butt;stroke-linejoin:miter;stroke-opacity:1;"/>
<path class="atom-2" d="M 124.3 26.9 Q 124.3 25.9, 124.9 25.3 Q 125.4 24.7, 126.3 24.7 Q 127.2 24.7, 127.7 25.3 Q 128.2 25.9, 128.2 26.9 Q 128.2 27.9, 127.7 28.5 Q 127.2 29.1, 126.3 29.1 Q 125.4 29.1, 124.9 28.5 Q 124.3 27.9, 124.3 26.9 M 126.3 28.6 Q 126.9 28.6, 127.3 28.2 Q 127.6 27.8, 127.6 26.9 Q 127.6 26.1, 127.3 25.6 Q 126.9 25.2, 126.3 25.2 Q 125.7 25.2, 125.3 25.6 Q 124.9 26.1, 124.9 26.9 Q 124.9 27.8, 125.3 28.2 Q 125.7 28.6, 126.3 28.6 " fill="#FF0000"/>
<path class="atom-3" d="M 140.4 21.0 Q 140.4 21.0, 140.6 21.1 Q 140.8 21.2, 141.0 21.2 Q 141.2 21.3, 141.5 21.3 Q 141.9 21.3, 142.1 21.1 Q 142.3 20.9, 142.3 20.6 Q 142.3 20.3, 142.2 20.2 Q 142.1 20.0, 141.9 20.0 Q 141.7 19.9, 141.4 19.8 Q 141.1 19.7, 140.8 19.6 Q 140.6 19.5, 140.4 19.2 Q 140.3 19.0, 140.3 18.6 Q 140.3 18.1, 140.6 17.7 Q 141.0 17.4, 141.7 17.4 Q 142.2 17.4, 142.8 17.7 L 142.6 18.1 Q 142.1 17.9, 141.7 17.9 Q 141.3 17.9, 141.1 18.1 Q 140.9 18.2, 140.9 18.5 Q 140.9 18.8, 141.0 18.9 Q 141.1 19.0, 141.3 19.1 Q 141.5 19.2, 141.7 19.3 Q 142.1 19.4, 142.4 19.5 Q 142.6 19.7, 142.7 19.9 Q 142.9 20.1, 142.9 20.6 Q 142.9 21.1, 142.5 21.5 Q 142.1 21.8, 141.5 21.8 Q 141.1 21.8, 140.8 21.7 Q 140.5 21.6, 140.2 21.5 L 140.4 21.0 " fill="#CCCC00"/>
<path class="atom-6" d="M 154.0 35.8 L 154.6 35.8 L 154.6 37.6 L 156.8 37.6 L 156.8 35.8 L 157.3 35.8 L 157.3 40.0 L 156.8 40.0 L 156.8 38.0 L 154.6 38.0 L 154.6 40.0 L 154.0 40.0 L 154.0 35.8 " fill="#0000FF"/>
<path class="atom-6" d="M 158.9 35.8 L 160.2 38.0 Q 160.4 38.2, 160.6 38.6 Q 160.8 39.0, 160.8 39.1 L 160.8 35.8 L 161.4 35.8 L 161.4 40.0 L 160.8 40.0 L 159.3 37.5 Q 159.2 37.3, 159.0 36.9 Q 158.8 36.6, 158.7 36.5 L 158.7 40.0 L 158.2 40.0 L 158.2 35.8 L 158.9 35.8 " fill="#0000FF"/>
<path class="atom-8" d="M 173.1 30.5 Q 173.1 29.5, 173.6 29.0 Q 174.1 28.4, 175.0 28.4 Q 176.0 28.4, 176.5 29.0 Q 177.0 29.5, 177.0 30.5 Q 177.0 31.6, 176.5 32.2 Q 176.0 32.7, 175.0 32.7 Q 174.1 32.7, 173.6 32.2 Q 173.1 31.6, 173.1 30.5 M 175.0 32.3 Q 175.7 32.3, 176.0 31.8 Q 176.4 31.4, 176.4 30.5 Q 176.4 29.7, 176.0 29.3 Q 175.7 28.9, 175.0 28.9 Q 174.4 28.9, 174.0 29.3 Q 173.7 29.7, 173.7 30.5 Q 173.7 31.4, 174.0 31.8 Q 174.4 32.3, 175.0 32.3 " fill="#FF0000"/>
<path class="atom-11" d="M 182.0 54.8 L 182.6 54.8 L 182.6 56.6 L 184.8 56.6 L 184.8 54.8 L 185.3 54.8 L 185.3 59.1 L 184.8 59.1 L 184.8 57.1 L 182.6 57.1 L 182.6 59.1 L 182.0 59.1 L 182.0 54.8 " fill="#0000FF"/>
<path class="atom-11" d="M 186.8 54.8 L 188.2 57.1 Q 188.4 57.3, 188.6 57.7 Q 188.8 58.1, 188.8 58.1 L 188.8 54.8 L 189.4 54.8 L 189.4 59.1 L 188.8 59.1 L 187.3 56.6 Q 187.1 56.3, 187.0 56.0 Q 186.8 55.7, 186.7 55.6 L 186.7 59.1 L 186.2 59.1 L 186.2 54.8 L 186.8 54.8 " fill="#0000FF"/>
<path class="atom-13" d="M 201.1 49.6 Q 201.1 48.6, 201.6 48.0 Q 202.1 47.5, 203.0 47.5 Q 204.0 47.5, 204.5 48.0 Q 205.0 48.6, 205.0 49.6 Q 205.0 50.7, 204.5 51.2 Q 204.0 51.8, 203.0 51.8 Q 202.1 51.8, 201.6 51.2 Q 201.1 50.7, 201.1 49.6 M 203.0 51.3 Q 203.7 51.3, 204.0 50.9 Q 204.4 50.5, 204.4 49.6 Q 204.4 48.8, 204.0 48.4 Q 203.7 47.9, 203.0 47.9 Q 202.4 47.9, 202.0 48.4 Q 201.7 48.8, 201.7 49.6 Q 201.7 50.5, 202.0 50.9 Q 202.4 51.3, 203.0 51.3 " fill="#FF0000"/>
<path class="atom-15" d="M 190.1 72.5 L 190.7 72.5 L 190.7 74.3 L 192.9 74.3 L 192.9 72.5 L 193.4 72.5 L 193.4 76.7 L 192.9 76.7 L 192.9 74.8 L 190.7 74.8 L 190.7 76.7 L 190.1 76.7 L 190.1 72.5 " fill="#FF0000"/>
<path class="atom-15" d="M 194.3 74.6 Q 194.3 73.6, 194.8 73.0 Q 195.3 72.4, 196.3 72.4 Q 197.2 72.4, 197.7 73.0 Q 198.2 73.6, 198.2 74.6 Q 198.2 75.6, 197.7 76.2 Q 197.2 76.8, 196.3 76.8 Q 195.3 76.8, 194.8 76.2 Q 194.3 75.6, 194.3 74.6 M 196.3 76.3 Q 196.9 76.3, 197.3 75.9 Q 197.6 75.4, 197.6 74.6 Q 197.6 73.8, 197.3 73.3 Q 196.9 72.9, 196.3 72.9 Q 195.6 72.9, 195.3 73.3 Q 194.9 73.7, 194.9 74.6 Q 194.9 75.4, 195.3 75.9 Q 195.6 76.3, 196.3 76.3 " fill="#FF0000"/>
<path class="atom-20" d="M 224.8 59.9 Q 224.8 58.9, 225.3 58.3 Q 225.8 57.7, 226.8 57.7 Q 227.7 57.7, 228.2 58.3 Q 228.7 58.9, 228.7 59.9 Q 228.7 60.9, 228.2 61.5 Q 227.7 62.1, 226.8 62.1 Q 225.8 62.1, 225.3 61.5 Q 224.8 60.9, 224.8 59.9 M 226.8 61.6 Q 227.4 61.6, 227.8 61.2 Q 228.1 60.7, 228.1 59.9 Q 228.1 59.1, 227.8 58.6 Q 227.4 58.2, 226.8 58.2 Q 226.1 58.2, 225.8 58.6 Q 225.4 59.0, 225.4 59.9 Q 225.4 60.7, 225.8 61.2 Q 226.1 61.6, 226.8 61.6 " fill="#FF0000"/>
<path class="atom-21" d="M 236.4 58.5 Q 237.2 58.5, 237.5 58.8 Q 237.9 59.1, 237.9 59.7 Q 237.9 60.3, 237.5 60.7 Q 237.1 61.0, 236.4 61.0 L 235.7 61.0 L 235.7 62.7 L 235.2 62.7 L 235.2 58.5 L 236.4 58.5 M 236.4 60.5 Q 236.8 60.5, 237.1 60.3 Q 237.3 60.1, 237.3 59.7 Q 237.3 59.4, 237.1 59.2 Q 236.8 59.0, 236.4 59.0 L 235.7 59.0 L 235.7 60.5 L 236.4 60.5 " fill="#FF7F00"/>
<path class="atom-22" d="M 235.3 50.9 Q 235.3 49.8, 235.8 49.3 Q 236.3 48.7, 237.3 48.7 Q 238.2 48.7, 238.7 49.3 Q 239.2 49.8, 239.2 50.9 Q 239.2 51.9, 238.7 52.5 Q 238.2 53.1, 237.3 53.1 Q 236.3 53.1, 235.8 52.5 Q 235.3 51.9, 235.3 50.9 M 237.3 52.6 Q 237.9 52.6, 238.3 52.2 Q 238.6 51.7, 238.6 50.9 Q 238.6 50.0, 238.3 49.6 Q 237.9 49.2, 237.3 49.2 Q 236.6 49.2, 236.3 49.6 Q 235.9 50.0, 235.9 50.9 Q 235.9 51.7, 236.3 52.2 Q 236.6 52.6, 237.3 52.6 " fill="#FF0000"/>
<path class="atom-23" d="M 233.8 70.4 Q 233.8 69.3, 234.4 68.8 Q 234.9 68.2, 235.8 68.2 Q 236.7 68.2, 237.2 68.8 Q 237.7 69.3, 237.7 70.4 Q 237.7 71.4, 237.2 72.0 Q 236.7 72.6, 235.8 72.6 Q 234.9 72.6, 234.4 72.0 Q 233.8 71.4, 233.8 70.4 M 235.8 72.1 Q 236.4 72.1, 236.8 71.7 Q 237.1 71.2, 237.1 70.4 Q 237.1 69.5, 236.8 69.1 Q 236.4 68.7, 235.8 68.7 Q 235.2 68.7, 234.8 69.1 Q 234.4 69.5, 234.4 70.4 Q 234.4 71.2, 234.8 71.7 Q 235.2 72.1, 235.8 72.1 " fill="#FF0000"/>
<path class="atom-23" d="M 238.4 68.3 L 239.0 68.3 L 239.0 70.1 L 241.2 70.1 L 241.2 68.3 L 241.7 68.3 L 241.7 72.5 L 241.2 72.5 L 241.2 70.5 L 239.0 70.5 L 239.0 72.5 L 238.4 72.5 L 238.4 68.3 " fill="#FF0000"/>
<path class="atom-24" d="M 244.3 61.3 Q 244.3 60.3, 244.8 59.8 Q 245.3 59.2, 246.3 59.2 Q 247.2 59.2, 247.7 59.8 Q 248.2 60.3, 248.2 61.3 Q 248.2 62.4, 247.7 63.0 Q 247.2 63.5, 246.3 63.5 Q 245.3 63.5, 244.8 63.0 Q 244.3 62.4, 244.3 61.3 M 246.3 63.1 Q 246.9 63.1, 247.3 62.6 Q 247.6 62.2, 247.6 61.3 Q 247.6 60.5, 247.3 60.1 Q 246.9 59.7, 246.3 59.7 Q 245.6 59.7, 245.3 60.1 Q 244.9 60.5, 244.9 61.3 Q 244.9 62.2, 245.3 62.6 Q 245.6 63.1, 246.3 63.1 " fill="#FF0000"/>
<path class="atom-25" d="M 250.4 68.0 Q 251.1 68.0, 251.5 68.3 Q 251.9 68.7, 251.9 69.3 Q 251.9 69.9, 251.5 70.2 Q 251.1 70.5, 250.4 70.5 L 249.7 70.5 L 249.7 72.3 L 249.2 72.3 L 249.2 68.0 L 250.4 68.0 M 250.4 70.0 Q 250.8 70.0, 251.1 69.8 Q 251.3 69.6, 251.3 69.3 Q 251.3 68.9, 251.1 68.7 Q 250.8 68.5, 250.4 68.5 L 249.7 68.5 L 249.7 70.0 L 250.4 70.0 " fill="#FF7F00"/>
<path class="atom-26" d="M 256.8 64.9 Q 256.8 63.8, 257.3 63.3 Q 257.8 62.7, 258.7 62.7 Q 259.7 62.7, 260.2 63.3 Q 260.7 63.8, 260.7 64.9 Q 260.7 65.9, 260.2 66.5 Q 259.7 67.1, 258.7 67.1 Q 257.8 67.1, 257.3 66.5 Q 256.8 65.9, 256.8 64.9 M 258.7 66.6 Q 259.4 66.6, 259.7 66.2 Q 260.1 65.7, 260.1 64.9 Q 260.1 64.0, 259.7 63.6 Q 259.4 63.2, 258.7 63.2 Q 258.1 63.2, 257.7 63.6 Q 257.4 64.0, 257.4 64.9 Q 257.4 65.7, 257.7 66.2 Q 258.1 66.6, 258.7 66.6 " fill="#FF0000"/>
<path class="atom-27" d="M 235.6 72.3 L 236.1 72.3 L 236.1 74.1 L 238.3 74.1 L 238.3 72.3 L 238.9 72.3 L 238.9 76.5 L 238.3 76.5 L 238.3 74.6 L 236.1 74.6 L 236.1 76.5 L 235.6 76.5 L 235.6 72.3 " fill="#FF0000"/>
<path class="atom-27" d="M 239.8 74.4 Q 239.8 73.4, 240.3 72.8 Q 240.8 72.2, 241.7 72.2 Q 242.7 72.2, 243.2 72.8 Q 243.7 73.4, 243.7 74.4 Q 243.7 75.4, 243.2 76.0 Q 242.6 76.6, 241.7 76.6 Q 240.8 76.6, 240.3 76.0 Q 239.8 75.4, 239.8 74.4 M 241.7 76.1 Q 242.4 76.1, 242.7 75.7 Q 243.1 75.2, 243.1 74.4 Q 243.1 73.6, 242.7 73.1 Q 242.4 72.7, 241.7 72.7 Q 241.1 72.7, 240.7 73.1 Q 240.4 73.6, 240.4 74.4 Q 240.4 75.3, 240.7 75.7 Q 241.1 76.1, 241.7 76.1 " fill="#FF0000"/>
<path class="atom-28" d="M 252.8 79.0 Q 252.8 77.9, 253.3 77.4 Q 253.8 76.8, 254.8 76.8 Q 255.7 76.8, 256.2 77.4 Q 256.7 77.9, 256.7 79.0 Q 256.7 80.0, 256.2 80.6 Q 255.7 81.2, 254.8 81.2 Q 253.8 81.2, 253.3 80.6 Q 252.8 80.0, 252.8 79.0 M 254.8 80.7 Q 255.4 80.7, 255.8 80.3 Q 256.1 79.8, 256.1 79.0 Q 256.1 78.1, 255.8 77.7 Q 255.4 77.3, 254.8 77.3 Q 254.1 77.3, 253.8 77.7 Q 253.4 78.1, 253.4 79.0 Q 253.4 79.8, 253.8 80.3 Q 254.1 80.7, 254.8 80.7 " fill="#FF0000"/>
<path class="atom-31" d="M 262.2 97.1 Q 262.2 96.1, 262.7 95.5 Q 263.2 94.9, 264.1 94.9 Q 265.1 94.9, 265.6 95.5 Q 266.1 96.1, 266.1 97.1 Q 266.1 98.1, 265.6 98.7 Q 265.1 99.3, 264.1 99.3 Q 263.2 99.3, 262.7 98.7 Q 262.2 98.1, 262.2 97.1 M 264.1 98.8 Q 264.8 98.8, 265.1 98.4 Q 265.5 98.0, 265.5 97.1 Q 265.5 96.3, 265.1 95.9 Q 264.8 95.4, 264.1 95.4 Q 263.5 95.4, 263.1 95.8 Q 262.8 96.3, 262.8 97.1 Q 262.8 98.0, 263.1 98.4 Q 263.5 98.8, 264.1 98.8 " fill="#FF0000"/>
<path class="atom-33" d="M 268.2 111.7 L 269.6 113.9 Q 269.7 114.1, 270.0 114.5 Q 270.2 114.9, 270.2 115.0 L 270.2 111.7 L 270.8 111.7 L 270.8 115.9 L 270.2 115.9 L 268.7 113.4 Q 268.5 113.2, 268.3 112.8 Q 268.1 112.5, 268.1 112.4 L 268.1 115.9 L 267.5 115.9 L 267.5 111.7 L 268.2 111.7 " fill="#0000FF"/>
<path class="atom-36" d="M 240.9 119.9 L 241.5 119.9 L 241.5 121.7 L 243.7 121.7 L 243.7 119.9 L 244.3 119.9 L 244.3 124.2 L 243.7 124.2 L 243.7 122.2 L 241.5 122.2 L 241.5 124.2 L 240.9 124.2 L 240.9 119.9 " fill="#FF0000"/>
<path class="atom-36" d="M 245.1 122.0 Q 245.1 121.0, 245.6 120.4 Q 246.1 119.9, 247.1 119.9 Q 248.0 119.9, 248.5 120.4 Q 249.0 121.0, 249.0 122.0 Q 249.0 123.0, 248.5 123.6 Q 248.0 124.2, 247.1 124.2 Q 246.2 124.2, 245.6 123.6 Q 245.1 123.1, 245.1 122.0 M 247.1 123.7 Q 247.7 123.7, 248.1 123.3 Q 248.4 122.9, 248.4 122.0 Q 248.4 121.2, 248.1 120.8 Q 247.7 120.3, 247.1 120.3 Q 246.4 120.3, 246.1 120.8 Q 245.7 121.2, 245.7 122.0 Q 245.7 122.9, 246.1 123.3 Q 246.4 123.7, 247.1 123.7 " fill="#FF0000"/>
<path class="atom-37" d="M 254.4 104.8 Q 254.4 103.8, 254.9 103.2 Q 255.4 102.6, 256.4 102.6 Q 257.3 102.6, 257.8 103.2 Q 258.3 103.8, 258.3 104.8 Q 258.3 105.8, 257.8 106.4 Q 257.3 107.0, 256.4 107.0 Q 255.4 107.0, 254.9 106.4 Q 254.4 105.8, 254.4 104.8 M 256.4 106.5 Q 257.0 106.5, 257.3 106.1 Q 257.7 105.6, 257.7 104.8 Q 257.7 104.0, 257.3 103.5 Q 257.0 103.1, 256.4 103.1 Q 255.7 103.1, 255.4 103.5 Q 255.0 104.0, 255.0 104.8 Q 255.0 105.7, 255.4 106.1 Q 255.7 106.5, 256.4 106.5 " fill="#FF0000"/>
<path class="atom-37" d="M 259.0 102.7 L 259.5 102.7 L 259.5 104.5 L 261.7 104.5 L 261.7 102.7 L 262.3 102.7 L 262.3 106.9 L 261.7 106.9 L 261.7 105.0 L 259.5 105.0 L 259.5 106.9 L 259.0 106.9 L 259.0 102.7 " fill="#FF0000"/>
<path class="atom-39" d="M 240.9 99.0 Q 240.9 98.0, 241.4 97.4 Q 241.9 96.8, 242.8 96.8 Q 243.8 96.8, 244.3 97.4 Q 244.8 98.0, 244.8 99.0 Q 244.8 100.0, 244.3 100.6 Q 243.7 101.2, 242.8 101.2 Q 241.9 101.2, 241.4 100.6 Q 240.9 100.0, 240.9 99.0 M 242.8 100.7 Q 243.5 100.7, 243.8 100.3 Q 244.2 99.9, 244.2 99.0 Q 244.2 98.2, 243.8 97.7 Q 243.5 97.3, 242.8 97.3 Q 242.2 97.3, 241.8 97.7 Q 241.5 98.2, 241.5 99.0 Q 241.5 99.9, 241.8 100.3 Q 242.2 100.7, 242.8 100.7 " fill="#FF0000"/>
<path class="atom-40" d="M 234.1 92.2 Q 234.8 92.2, 235.2 92.6 Q 235.6 92.9, 235.6 93.5 Q 235.6 94.1, 235.2 94.4 Q 234.8 94.7, 234.1 94.7 L 233.4 94.7 L 233.4 96.5 L 232.9 96.5 L 232.9 92.2 L 234.1 92.2 M 234.1 94.3 Q 234.5 94.3, 234.7 94.1 Q 235.0 93.9, 235.0 93.5 Q 235.0 93.1, 234.7 92.9 Q 234.5 92.7, 234.1 92.7 L 233.4 92.7 L 233.4 94.3 L 234.1 94.3 " fill="#FF7F00"/>
<path class="atom-41" d="M 228.1 102.1 Q 228.1 101.1, 228.6 100.5 Q 229.1 100.0, 230.0 100.0 Q 231.0 100.0, 231.5 100.5 Q 232.0 101.1, 232.0 102.1 Q 232.0 103.2, 231.5 103.7 Q 231.0 104.3, 230.0 104.3 Q 229.1 104.3, 228.6 103.7 Q 228.1 103.2, 228.1 102.1 M 230.0 103.8 Q 230.7 103.8, 231.0 103.4 Q 231.4 103.0, 231.4 102.1 Q 231.4 101.3, 231.0 100.9 Q 230.7 100.4, 230.0 100.4 Q 229.4 100.4, 229.0 100.9 Q 228.7 101.3, 228.7 102.1 Q 228.7 103.0, 229.0 103.4 Q 229.4 103.8, 230.0 103.8 " fill="#FF0000"/>
<path class="atom-42" d="M 237.9 86.4 Q 237.9 85.4, 238.4 84.8 Q 238.9 84.2, 239.9 84.2 Q 240.8 84.2, 241.3 84.8 Q 241.8 85.4, 241.8 86.4 Q 241.8 87.4, 241.3 88.0 Q 240.8 88.6, 239.9 88.6 Q 238.9 88.6, 238.4 88.0 Q 237.9 87.4, 237.9 86.4 M 239.9 88.1 Q 240.5 88.1, 240.8 87.7 Q 241.2 87.2, 241.2 86.4 Q 241.2 85.6, 240.8 85.1 Q 240.5 84.7, 239.9 84.7 Q 239.2 84.7, 238.9 85.1 Q 238.5 85.5, 238.5 86.4 Q 238.5 87.2, 238.9 87.7 Q 239.2 88.1, 239.9 88.1 " fill="#FF0000"/>
<path class="atom-42" d="M 242.5 84.3 L 243.0 84.3 L 243.0 86.1 L 245.2 86.1 L 245.2 84.3 L 245.8 84.3 L 245.8 88.5 L 245.2 88.5 L 245.2 86.6 L 243.0 86.6 L 243.0 88.5 L 242.5 88.5 L 242.5 84.3 " fill="#FF0000"/>
<path class="atom-43" d="M 223.6 89.7 Q 223.6 88.7, 224.2 88.1 Q 224.7 87.6, 225.6 87.6 Q 226.5 87.6, 227.0 88.1 Q 227.5 88.7, 227.5 89.7 Q 227.5 90.8, 227.0 91.4 Q 226.5 91.9, 225.6 91.9 Q 224.7 91.9, 224.2 91.4 Q 223.6 90.8, 223.6 89.7 M 225.6 91.5 Q 226.2 91.5, 226.6 91.0 Q 226.9 90.6, 226.9 89.7 Q 226.9 88.9, 226.6 88.5 Q 226.2 88.1, 225.6 88.1 Q 224.9 88.1, 224.6 88.5 Q 224.2 88.9, 224.2 89.7 Q 224.2 90.6, 224.6 91.0 Q 224.9 91.5, 225.6 91.5 " fill="#FF0000"/>
<path class="atom-44" d="M 217.2 92.7 Q 217.9 92.7, 218.3 93.1 Q 218.6 93.4, 218.6 94.0 Q 218.6 94.6, 218.3 94.9 Q 217.9 95.2, 217.2 95.2 L 216.5 95.2 L 216.5 97.0 L 215.9 97.0 L 215.9 92.7 L 217.2 92.7 M 217.2 94.8 Q 217.6 94.8, 217.8 94.6 Q 218.0 94.4, 218.0 94.0 Q 218.0 93.6, 217.8 93.4 Q 217.6 93.2, 217.2 93.2 L 216.5 93.2 L 216.5 94.8 L 217.2 94.8 " fill="#FF7F00"/>
<path class="atom-45" d="M 219.1 98.5 Q 219.1 97.5, 219.6 96.9 Q 220.1 96.3, 221.0 96.3 Q 221.9 96.3, 222.4 96.9 Q 223.0 97.5, 223.0 98.5 Q 223.0 99.5, 222.4 100.1 Q 221.9 100.7, 221.0 100.7 Q 220.1 100.7, 219.6 100.1 Q 219.1 99.5, 219.1 98.5 M 221.0 100.2 Q 221.6 100.2, 222.0 99.8 Q 222.4 99.4, 222.4 98.5 Q 222.4 97.7, 222.0 97.3 Q 221.6 96.8, 221.0 96.8 Q 220.4 96.8, 220.0 97.2 Q 219.7 97.7, 219.7 98.5 Q 219.7 99.4, 220.0 99.8 Q 220.4 100.2, 221.0 100.2 " fill="#FF0000"/>
<path class="atom-46" d="M 206.0 84.5 L 206.6 84.5 L 206.6 86.3 L 208.7 86.3 L 208.7 84.5 L 209.3 84.5 L 209.3 88.7 L 208.7 88.7 L 208.7 86.7 L 206.6 86.7 L 206.6 88.7 L 206.0 88.7 L 206.0 84.5 " fill="#FF0000"/>
<path class="atom-46" d="M 210.2 86.6 Q 210.2 85.5, 210.7 85.0 Q 211.2 84.4, 212.1 84.4 Q 213.1 84.4, 213.6 85.0 Q 214.1 85.5, 214.1 86.6 Q 214.1 87.6, 213.6 88.2 Q 213.1 88.8, 212.1 88.8 Q 211.2 88.8, 210.7 88.2 Q 210.2 87.6, 210.2 86.6 M 212.1 88.3 Q 212.8 88.3, 213.1 87.9 Q 213.5 87.4, 213.5 86.6 Q 213.5 85.7, 213.1 85.3 Q 212.8 84.9, 212.1 84.9 Q 211.5 84.9, 211.1 85.3 Q 210.8 85.7, 210.8 86.6 Q 210.8 87.4, 211.1 87.9 Q 211.5 88.3, 212.1 88.3 " fill="#FF0000"/>
<path class="atom-47" d="M 207.0 100.0 Q 207.0 99.0, 207.5 98.4 Q 208.0 97.9, 209.0 97.9 Q 209.9 97.9, 210.4 98.4 Q 210.9 99.0, 210.9 100.0 Q 210.9 101.1, 210.4 101.6 Q 209.9 102.2, 209.0 102.2 Q 208.0 102.2, 207.5 101.6 Q 207.0 101.1, 207.0 100.0 M 209.0 101.7 Q 209.6 101.7, 210.0 101.3 Q 210.3 100.9, 210.3 100.0 Q 210.3 99.2, 210.0 98.8 Q 209.6 98.3, 209.0 98.3 Q 208.3 98.3, 208.0 98.8 Q 207.6 99.2, 207.6 100.0 Q 207.6 100.9, 208.0 101.3 Q 208.3 101.7, 209.0 101.7 " fill="#FF0000"/>
<path class="atom-53" d="M 169.0 98.9 L 169.5 98.9 L 169.5 100.7 L 171.7 100.7 L 171.7 98.9 L 172.3 98.9 L 172.3 103.2 L 171.7 103.2 L 171.7 101.2 L 169.5 101.2 L 169.5 103.2 L 169.0 103.2 L 169.0 98.9 " fill="#FF0000"/>
<path class="atom-53" d="M 173.2 101.0 Q 173.2 100.0, 173.7 99.4 Q 174.2 98.9, 175.1 98.9 Q 176.1 98.9, 176.6 99.4 Q 177.1 100.0, 177.1 101.0 Q 177.1 102.1, 176.6 102.7 Q 176.0 103.2, 175.1 103.2 Q 174.2 103.2, 173.7 102.7 Q 173.2 102.1, 173.2 101.0 M 175.1 102.8 Q 175.8 102.8, 176.1 102.3 Q 176.5 101.9, 176.5 101.0 Q 176.5 100.2, 176.1 99.8 Q 175.8 99.4, 175.1 99.4 Q 174.5 99.4, 174.1 99.8 Q 173.8 100.2, 173.8 101.0 Q 173.8 101.9, 174.1 102.3 Q 174.5 102.8, 175.1 102.8 " fill="#FF0000"/>
<path class="atom-55" d="M 190.7 120.1 Q 190.7 119.1, 191.2 118.5 Q 191.7 117.9, 192.6 117.9 Q 193.6 117.9, 194.1 118.5 Q 194.6 119.1, 194.6 120.1 Q 194.6 121.1, 194.1 121.7 Q 193.6 122.3, 192.6 122.3 Q 191.7 122.3, 191.2 121.7 Q 190.7 121.1, 190.7 120.1 M 192.6 121.8 Q 193.3 121.8, 193.6 121.4 Q 194.0 120.9, 194.0 120.1 Q 194.0 119.2, 193.6 118.8 Q 193.3 118.4, 192.6 118.4 Q 192.0 118.4, 191.6 118.8 Q 191.3 119.2, 191.3 120.1 Q 191.3 120.9, 191.6 121.4 Q 192.0 121.8, 192.6 121.8 " fill="#FF0000"/>
<path class="atom-56" d="M 169.9 118.4 L 170.5 118.4 L 170.5 120.3 L 172.7 120.3 L 172.7 118.4 L 173.2 118.4 L 173.2 122.7 L 172.7 122.7 L 172.7 120.7 L 170.5 120.7 L 170.5 122.7 L 169.9 122.7 L 169.9 118.4 " fill="#0000FF"/>
<path class="atom-56" d="M 174.8 118.4 L 176.2 120.7 Q 176.3 120.9, 176.5 121.3 Q 176.7 121.7, 176.7 121.7 L 176.7 118.4 L 177.3 118.4 L 177.3 122.7 L 176.7 122.7 L 175.2 120.2 Q 175.1 119.9, 174.9 119.6 Q 174.7 119.3, 174.6 119.2 L 174.6 122.7 L 174.1 122.7 L 174.1 118.4 L 174.8 118.4 " fill="#0000FF"/>
<path class="atom-60" d="M 174.6 149.9 Q 174.6 148.9, 175.1 148.3 Q 175.6 147.7, 176.6 147.7 Q 177.5 147.7, 178.0 148.3 Q 178.5 148.9, 178.5 149.9 Q 178.5 150.9, 178.0 151.5 Q 177.5 152.1, 176.6 152.1 Q 175.6 152.1, 175.1 151.5 Q 174.6 150.9, 174.6 149.9 M 176.6 151.6 Q 177.2 151.6, 177.6 151.2 Q 177.9 150.8, 177.9 149.9 Q 177.9 149.1, 177.6 148.6 Q 177.2 148.2, 176.6 148.2 Q 175.9 148.2, 175.6 148.6 Q 175.2 149.1, 175.2 149.9 Q 175.2 150.8, 175.6 151.2 Q 175.9 151.6, 176.6 151.6 " fill="#FF0000"/>
<path class="atom-61" d="M 153.9 148.3 L 154.5 148.3 L 154.5 150.1 L 156.6 150.1 L 156.6 148.3 L 157.2 148.3 L 157.2 152.5 L 156.6 152.5 L 156.6 150.6 L 154.5 150.6 L 154.5 152.5 L 153.9 152.5 L 153.9 148.3 " fill="#0000FF"/>
<path class="atom-61" d="M 158.7 148.3 L 160.1 150.5 Q 160.2 150.7, 160.5 151.2 Q 160.7 151.6, 160.7 151.6 L 160.7 148.3 L 161.3 148.3 L 161.3 152.5 L 160.7 152.5 L 159.2 150.1 Q 159.0 149.8, 158.8 149.4 Q 158.6 149.1, 158.6 149.0 L 158.6 152.5 L 158.0 152.5 L 158.0 148.3 L 158.7 148.3 " fill="#0000FF"/>
<path class="atom-64" d="M 150.7 176.5 Q 150.8 176.6, 151.0 176.6 Q 151.2 176.7, 151.4 176.8 Q 151.6 176.8, 151.8 176.8 Q 152.2 176.8, 152.5 176.6 Q 152.7 176.4, 152.7 176.1 Q 152.7 175.9, 152.6 175.7 Q 152.5 175.6, 152.3 175.5 Q 152.1 175.4, 151.8 175.3 Q 151.4 175.2, 151.2 175.1 Q 151.0 175.0, 150.8 174.8 Q 150.7 174.5, 150.7 174.2 Q 150.7 173.6, 151.0 173.3 Q 151.4 173.0, 152.1 173.0 Q 152.6 173.0, 153.1 173.2 L 153.0 173.7 Q 152.5 173.5, 152.1 173.5 Q 151.7 173.5, 151.5 173.6 Q 151.2 173.8, 151.3 174.1 Q 151.3 174.3, 151.4 174.5 Q 151.5 174.6, 151.7 174.7 Q 151.8 174.8, 152.1 174.8 Q 152.5 175.0, 152.7 175.1 Q 153.0 175.2, 153.1 175.4 Q 153.3 175.7, 153.3 176.1 Q 153.3 176.7, 152.9 177.0 Q 152.5 177.3, 151.8 177.3 Q 151.5 177.3, 151.2 177.2 Q 150.9 177.2, 150.6 177.0 L 150.7 176.5 " fill="#CCCC00"/>
<path class="atom-67" d="M 133.0 175.6 Q 133.0 174.6, 133.6 174.0 Q 134.1 173.4, 135.0 173.4 Q 135.9 173.4, 136.4 174.0 Q 136.9 174.6, 136.9 175.6 Q 136.9 176.6, 136.4 177.2 Q 135.9 177.8, 135.0 177.8 Q 134.1 177.8, 133.6 177.2 Q 133.0 176.6, 133.0 175.6 M 135.0 177.3 Q 135.6 177.3, 136.0 176.9 Q 136.3 176.5, 136.3 175.6 Q 136.3 174.8, 136.0 174.4 Q 135.6 173.9, 135.0 173.9 Q 134.3 173.9, 134.0 174.3 Q 133.6 174.8, 133.6 175.6 Q 133.6 176.5, 134.0 176.9 Q 134.3 177.3, 135.0 177.3 " fill="#FF0000"/>
<path class="atom-69" d="M 232.1 123.7 Q 232.1 122.6, 232.6 122.1 Q 233.1 121.5, 234.1 121.5 Q 235.0 121.5, 235.5 122.1 Q 236.0 122.6, 236.0 123.7 Q 236.0 124.7, 235.5 125.3 Q 235.0 125.9, 234.1 125.9 Q 233.1 125.9, 232.6 125.3 Q 232.1 124.7, 232.1 123.7 M 234.1 125.4 Q 234.7 125.4, 235.1 125.0 Q 235.4 124.5, 235.4 123.7 Q 235.4 122.8, 235.1 122.4 Q 234.7 122.0, 234.1 122.0 Q 233.4 122.0, 233.1 122.4 Q 232.7 122.8, 232.7 123.7 Q 232.7 124.5, 233.1 125.0 Q 233.4 125.4, 234.1 125.4 " fill="#FF0000"/>
<path class="atom-71" d="M 219.9 132.9 L 221.3 135.1 Q 221.5 135.4, 221.7 135.8 Q 221.9 136.2, 221.9 136.2 L 221.9 132.9 L 222.5 132.9 L 222.5 137.1 L 221.9 137.1 L 220.4 134.7 Q 220.2 134.4, 220.0 134.1 Q 219.9 133.7, 219.8 133.6 L 219.8 137.1 L 219.3 137.1 L 219.3 132.9 L 219.9 132.9 " fill="#0000FF"/>
<path class="atom-73" d="M 209.7 145.0 L 211.1 147.2 Q 211.2 147.4, 211.4 147.8 Q 211.7 148.2, 211.7 148.3 L 211.7 145.0 L 212.2 145.0 L 212.2 149.2 L 211.7 149.2 L 210.2 146.8 Q 210.0 146.5, 209.8 146.1 Q 209.6 145.8, 209.6 145.7 L 209.6 149.2 L 209.0 149.2 L 209.0 145.0 L 209.7 145.0 " fill="#0000FF"/>
<path class="atom-76" d="M 208.5 165.3 L 209.0 165.3 L 209.0 167.1 L 211.2 167.1 L 211.2 165.3 L 211.8 165.3 L 211.8 169.6 L 211.2 169.6 L 211.2 167.6 L 209.0 167.6 L 209.0 169.6 L 208.5 169.6 L 208.5 165.3 " fill="#0000FF"/>
<path class="atom-76" d="M 212.6 169.4 Q 212.7 169.2, 213.0 169.0 Q 213.2 168.9, 213.6 168.9 Q 214.0 168.9, 214.2 169.1 Q 214.5 169.3, 214.5 169.7 Q 214.5 170.2, 214.1 170.5 Q 213.8 170.9, 213.2 171.4 L 214.5 171.4 L 214.5 171.7 L 212.6 171.7 L 212.6 171.4 Q 213.1 171.1, 213.4 170.8 Q 213.8 170.5, 213.9 170.3 Q 214.1 170.0, 214.1 169.8 Q 214.1 169.5, 213.9 169.3 Q 213.8 169.2, 213.6 169.2 Q 213.3 169.2, 213.2 169.3 Q 213.0 169.4, 212.9 169.6 L 212.6 169.4 " fill="#0000FF"/>
<path class="atom-76" d="M 215.7 165.3 L 217.1 167.6 Q 217.3 167.8, 217.5 168.2 Q 217.7 168.6, 217.7 168.6 L 217.7 165.3 L 218.3 165.3 L 218.3 169.6 L 217.7 169.6 L 216.2 167.1 Q 216.0 166.8, 215.8 166.5 Q 215.7 166.2, 215.6 166.1 L 215.6 169.6 L 215.0 169.6 L 215.0 165.3 L 215.7 165.3 " fill="#0000FF"/>
<path class="atom-77" d="M 231.7 159.6 L 233.1 161.9 Q 233.2 162.1, 233.4 162.5 Q 233.6 162.9, 233.6 162.9 L 233.6 159.6 L 234.2 159.6 L 234.2 163.9 L 233.6 163.9 L 232.1 161.4 Q 232.0 161.1, 231.8 160.8 Q 231.6 160.5, 231.5 160.4 L 231.5 163.9 L 231.0 163.9 L 231.0 159.6 L 231.7 159.6 " fill="#0000FF"/>
<path class="atom-79" d="M 234.7 143.0 L 236.1 145.2 Q 236.2 145.4, 236.4 145.8 Q 236.7 146.2, 236.7 146.3 L 236.7 143.0 L 237.2 143.0 L 237.2 147.2 L 236.7 147.2 L 235.2 144.7 Q 235.0 144.5, 234.8 144.1 Q 234.6 143.8, 234.6 143.7 L 234.6 147.2 L 234.0 147.2 L 234.0 143.0 L 234.7 143.0 " fill="#0000FF"/>
<path class="atom-82" d="M 203.5 114.8 L 204.1 114.8 L 204.1 116.6 L 206.3 116.6 L 206.3 114.8 L 206.9 114.8 L 206.9 119.1 L 206.3 119.1 L 206.3 117.1 L 204.1 117.1 L 204.1 119.1 L 203.5 119.1 L 203.5 114.8 " fill="#FF0000"/>
<path class="atom-82" d="M 207.7 116.9 Q 207.7 115.9, 208.2 115.4 Q 208.7 114.8, 209.7 114.8 Q 210.6 114.8, 211.1 115.4 Q 211.6 115.9, 211.6 116.9 Q 211.6 118.0, 211.1 118.6 Q 210.6 119.1, 209.7 119.1 Q 208.7 119.1, 208.2 118.6 Q 207.7 118.0, 207.7 116.9 M 209.7 118.7 Q 210.3 118.7, 210.7 118.2 Q 211.0 117.8, 211.0 116.9 Q 211.0 116.1, 210.7 115.7 Q 210.3 115.3, 209.7 115.3 Q 209.0 115.3, 208.7 115.7 Q 208.3 116.1, 208.3 116.9 Q 208.3 117.8, 208.7 118.2 Q 209.0 118.7, 209.7 118.7 " fill="#FF0000"/>
<path class="atom-84" d="M 221.5 100.7 Q 221.5 99.7, 222.0 99.1 Q 222.5 98.6, 223.4 98.6 Q 224.4 98.6, 224.9 99.1 Q 225.4 99.7, 225.4 100.7 Q 225.4 101.7, 224.9 102.3 Q 224.4 102.9, 223.4 102.9 Q 222.5 102.9, 222.0 102.3 Q 221.5 101.8, 221.5 100.7 M 223.4 102.4 Q 224.1 102.4, 224.4 102.0 Q 224.8 101.6, 224.8 100.7 Q 224.8 99.9, 224.4 99.5 Q 224.1 99.0, 223.4 99.0 Q 222.8 99.0, 222.4 99.5 Q 222.1 99.9, 222.1 100.7 Q 222.1 101.6, 222.4 102.0 Q 222.8 102.4, 223.4 102.4 " fill="#FF0000"/>
<path class="atom-85" d="M 230.4 91.8 Q 231.1 91.8, 231.5 92.1 Q 231.8 92.5, 231.8 93.1 Q 231.8 93.7, 231.5 94.0 Q 231.1 94.3, 230.4 94.3 L 229.7 94.3 L 229.7 96.1 L 229.1 96.1 L 229.1 91.8 L 230.4 91.8 M 230.4 93.8 Q 230.8 93.8, 231.0 93.6 Q 231.2 93.4, 231.2 93.1 Q 231.2 92.7, 231.0 92.5 Q 230.8 92.3, 230.4 92.3 L 229.7 92.3 L 229.7 93.8 L 230.4 93.8 " fill="#FF7F00"/>
<path class="atom-86" d="M 220.3 88.7 Q 220.3 87.7, 220.8 87.1 Q 221.3 86.6, 222.2 86.6 Q 223.2 86.6, 223.7 87.1 Q 224.2 87.7, 224.2 88.7 Q 224.2 89.8, 223.7 90.4 Q 223.2 90.9, 222.2 90.9 Q 221.3 90.9, 220.8 90.4 Q 220.3 89.8, 220.3 88.7 M 222.2 90.5 Q 222.9 90.5, 223.2 90.0 Q 223.6 89.6, 223.6 88.7 Q 223.6 87.9, 223.2 87.5 Q 222.9 87.1, 222.2 87.1 Q 221.6 87.1, 221.2 87.5 Q 220.9 87.9, 220.9 88.7 Q 220.9 89.6, 221.2 90.0 Q 221.6 90.5, 222.2 90.5 " fill="#FF0000"/>
<path class="atom-87" d="M 236.8 99.2 Q 236.8 98.2, 237.3 97.6 Q 237.8 97.0, 238.8 97.0 Q 239.7 97.0, 240.2 97.6 Q 240.7 98.2, 240.7 99.2 Q 240.7 100.2, 240.2 100.8 Q 239.7 101.4, 238.8 101.4 Q 237.8 101.4, 237.3 100.8 Q 236.8 100.2, 236.8 99.2 M 238.8 100.9 Q 239.4 100.9, 239.8 100.5 Q 240.1 100.0, 240.1 99.2 Q 240.1 98.3, 239.8 97.9 Q 239.4 97.5, 238.8 97.5 Q 238.1 97.5, 237.8 97.9 Q 237.4 98.3, 237.4 99.2 Q 237.4 100.0, 237.8 100.5 Q 238.1 100.9, 238.8 100.9 " fill="#FF0000"/>
<path class="atom-87" d="M 241.4 97.1 L 241.9 97.1 L 241.9 98.9 L 244.1 98.9 L 244.1 97.1 L 244.7 97.1 L 244.7 101.3 L 244.1 101.3 L 244.1 99.3 L 241.9 99.3 L 241.9 101.3 L 241.4 101.3 L 241.4 97.1 " fill="#FF0000"/>
<path class="atom-88" d="M 234.7 86.4 Q 234.7 85.4, 235.2 84.8 Q 235.7 84.2, 236.7 84.2 Q 237.6 84.2, 238.1 84.8 Q 238.6 85.4, 238.6 86.4 Q 238.6 87.4, 238.1 88.0 Q 237.6 88.6, 236.7 88.6 Q 235.7 88.6, 235.2 88.0 Q 234.7 87.4, 234.7 86.4 M 236.7 88.1 Q 237.3 88.1, 237.7 87.7 Q 238.0 87.2, 238.0 86.4 Q 238.0 85.6, 237.7 85.1 Q 237.3 84.7, 236.7 84.7 Q 236.0 84.7, 235.7 85.1 Q 235.3 85.5, 235.3 86.4 Q 235.3 87.2, 235.7 87.7 Q 236.0 88.1, 236.7 88.1 " fill="#FF0000"/>
<path class="atom-88" d="M 239.3 84.3 L 239.9 84.3 L 239.9 86.1 L 242.0 86.1 L 242.0 84.3 L 242.6 84.3 L 242.6 88.5 L 242.0 88.5 L 242.0 86.6 L 239.9 86.6 L 239.9 88.5 L 239.3 88.5 L 239.3 84.3 " fill="#FF0000"/>
<path class="atom-89" d="M 260.7 125.6 L 262.1 127.8 Q 262.2 128.1, 262.5 128.5 Q 262.7 128.9, 262.7 128.9 L 262.7 125.6 L 263.3 125.6 L 263.3 129.8 L 262.7 129.8 L 261.2 127.4 Q 261.0 127.1, 260.8 126.8 Q 260.6 126.4, 260.6 126.3 L 260.6 129.8 L 260.0 129.8 L 260.0 125.6 L 260.7 125.6 " fill="#0000FF"/>
<path class="atom-92" d="M 263.6 144.3 L 264.2 144.3 L 264.2 146.1 L 266.3 146.1 L 266.3 144.3 L 266.9 144.3 L 266.9 148.5 L 266.3 148.5 L 266.3 146.5 L 264.2 146.5 L 264.2 148.5 L 263.6 148.5 L 263.6 144.3 " fill="#0000FF"/>
<path class="atom-92" d="M 267.7 148.4 Q 267.8 148.1, 268.1 147.9 Q 268.3 147.8, 268.7 147.8 Q 269.1 147.8, 269.3 148.0 Q 269.6 148.3, 269.6 148.7 Q 269.6 149.1, 269.3 149.5 Q 269.0 149.9, 268.3 150.3 L 269.6 150.3 L 269.6 150.6 L 267.7 150.6 L 267.7 150.4 Q 268.2 150.0, 268.6 149.7 Q 268.9 149.4, 269.0 149.2 Q 269.2 148.9, 269.2 148.7 Q 269.2 148.4, 269.0 148.3 Q 268.9 148.1, 268.7 148.1 Q 268.4 148.1, 268.3 148.2 Q 268.1 148.3, 268.0 148.5 L 267.7 148.4 " fill="#0000FF"/>
<path class="atom-92" d="M 270.8 144.3 L 272.2 146.5 Q 272.4 146.7, 272.6 147.1 Q 272.8 147.5, 272.8 147.6 L 272.8 144.3 L 273.4 144.3 L 273.4 148.5 L 272.8 148.5 L 271.3 146.1 Q 271.1 145.8, 271.0 145.4 Q 270.8 145.1, 270.7 145.0 L 270.7 148.5 L 270.2 148.5 L 270.2 144.3 L 270.8 144.3 " fill="#0000FF"/>
<path class="atom-93" d="M 285.2 135.4 L 286.6 137.6 Q 286.8 137.8, 287.0 138.2 Q 287.2 138.6, 287.2 138.7 L 287.2 135.4 L 287.8 135.4 L 287.8 139.6 L 287.2 139.6 L 285.7 137.1 Q 285.5 136.9, 285.4 136.5 Q 285.2 136.2, 285.1 136.1 L 285.1 139.6 L 284.6 139.6 L 284.6 135.4 L 285.2 135.4 " fill="#0000FF"/>
<path class="atom-95" d="M 284.7 118.4 L 286.1 120.7 Q 286.3 120.9, 286.5 121.3 Q 286.7 121.7, 286.7 121.7 L 286.7 118.4 L 287.3 118.4 L 287.3 122.7 L 286.7 122.7 L 285.2 120.2 Q 285.0 119.9, 284.8 119.6 Q 284.7 119.3, 284.6 119.2 L 284.6 122.7 L 284.1 122.7 L 284.1 118.4 L 284.7 118.4 " fill="#0000FF"/>
<path class="atom-98" d="M 286.4 104.6 Q 286.4 103.5, 286.9 103.0 Q 287.4 102.4, 288.3 102.4 Q 289.2 102.4, 289.7 103.0 Q 290.3 103.5, 290.3 104.6 Q 290.3 105.6, 289.7 106.2 Q 289.2 106.8, 288.3 106.8 Q 287.4 106.8, 286.9 106.2 Q 286.4 105.6, 286.4 104.6 M 288.3 106.3 Q 289.0 106.3, 289.3 105.9 Q 289.7 105.4, 289.7 104.6 Q 289.7 103.7, 289.3 103.3 Q 289.0 102.9, 288.3 102.9 Q 287.7 102.9, 287.3 103.3 Q 287.0 103.7, 287.0 104.6 Q 287.0 105.4, 287.3 105.9 Q 287.7 106.3, 288.3 106.3 " fill="#FF0000"/>
<path class="atom-98" d="M 290.9 102.5 L 291.5 102.5 L 291.5 104.3 L 293.7 104.3 L 293.7 102.5 L 294.2 102.5 L 294.2 106.7 L 293.7 106.7 L 293.7 104.7 L 291.5 104.7 L 291.5 106.7 L 290.9 106.7 L 290.9 102.5 " fill="#FF0000"/>
<path class="atom-100" d="M 283.5 83.5 Q 283.5 82.5, 284.0 81.9 Q 284.5 81.3, 285.4 81.3 Q 286.4 81.3, 286.9 81.9 Q 287.4 82.5, 287.4 83.5 Q 287.4 84.5, 286.9 85.1 Q 286.4 85.7, 285.4 85.7 Q 284.5 85.7, 284.0 85.1 Q 283.5 84.5, 283.5 83.5 M 285.4 85.2 Q 286.1 85.2, 286.4 84.8 Q 286.8 84.3, 286.8 83.5 Q 286.8 82.7, 286.4 82.2 Q 286.1 81.8, 285.4 81.8 Q 284.8 81.8, 284.4 82.2 Q 284.1 82.6, 284.1 83.5 Q 284.1 84.3, 284.4 84.8 Q 284.8 85.2, 285.4 85.2 " fill="#FF0000"/>
<path class="atom-101" d="M 294.7 84.1 Q 295.5 84.1, 295.8 84.4 Q 296.2 84.7, 296.2 85.3 Q 296.2 85.9, 295.8 86.3 Q 295.4 86.6, 294.7 86.6 L 294.1 86.6 L 294.1 88.3 L 293.5 88.3 L 293.5 84.1 L 294.7 84.1 M 294.7 86.1 Q 295.1 86.1, 295.4 85.9 Q 295.6 85.7, 295.6 85.3 Q 295.6 85.0, 295.4 84.8 Q 295.1 84.6, 294.7 84.6 L 294.1 84.6 L 294.1 86.1 L 294.7 86.1 " fill="#FF7F00"/>
<path class="atom-102" d="M 295.6 76.8 Q 295.6 75.8, 296.1 75.3 Q 296.6 74.7, 297.6 74.7 Q 298.5 74.7, 299.0 75.3 Q 299.5 75.8, 299.5 76.8 Q 299.5 77.9, 299.0 78.5 Q 298.5 79.0, 297.6 79.0 Q 296.6 79.0, 296.1 78.5 Q 295.6 77.9, 295.6 76.8 M 297.6 78.6 Q 298.2 78.6, 298.6 78.1 Q 298.9 77.7, 298.9 76.8 Q 298.9 76.0, 298.6 75.6 Q 298.2 75.2, 297.6 75.2 Q 296.9 75.2, 296.6 75.6 Q 296.2 76.0, 296.2 76.8 Q 296.2 77.7, 296.6 78.1 Q 296.9 78.6, 297.6 78.6 " fill="#FF0000"/>
<path class="atom-103" d="M 290.1 95.6 Q 290.1 94.6, 290.6 94.0 Q 291.1 93.5, 292.1 93.5 Q 293.0 93.5, 293.5 94.0 Q 294.0 94.6, 294.0 95.6 Q 294.0 96.6, 293.5 97.2 Q 293.0 97.8, 292.1 97.8 Q 291.2 97.8, 290.6 97.2 Q 290.1 96.6, 290.1 95.6 M 292.1 97.3 Q 292.7 97.3, 293.1 96.9 Q 293.4 96.5, 293.4 95.6 Q 293.4 94.8, 293.1 94.4 Q 292.7 93.9, 292.1 93.9 Q 291.4 93.9, 291.1 94.4 Q 290.7 94.8, 290.7 95.6 Q 290.7 96.5, 291.1 96.9 Q 291.4 97.3, 292.1 97.3 " fill="#FF0000"/>
<path class="atom-103" d="M 294.7 93.5 L 295.3 93.5 L 295.3 95.3 L 297.4 95.3 L 297.4 93.5 L 298.0 93.5 L 298.0 97.7 L 297.4 97.7 L 297.4 95.8 L 295.3 95.8 L 295.3 97.7 L 294.7 97.7 L 294.7 93.5 " fill="#FF0000"/>
<path class="atom-104" d="M 302.3 89.0 Q 302.3 87.9, 302.8 87.4 Q 303.3 86.8, 304.2 86.8 Q 305.2 86.8, 305.7 87.4 Q 306.2 87.9, 306.2 89.0 Q 306.2 90.0, 305.7 90.6 Q 305.1 91.2, 304.2 91.2 Q 303.3 91.2, 302.8 90.6 Q 302.3 90.0, 302.3 89.0 M 304.2 90.7 Q 304.9 90.7, 305.2 90.3 Q 305.6 89.8, 305.6 89.0 Q 305.6 88.1, 305.2 87.7 Q 304.9 87.3, 304.2 87.3 Q 303.6 87.3, 303.2 87.7 Q 302.9 88.1, 302.9 89.0 Q 302.9 89.8, 303.2 90.3 Q 303.6 90.7, 304.2 90.7 " fill="#FF0000"/>
<path class="atom-104" d="M 306.8 86.9 L 307.4 86.9 L 307.4 88.7 L 309.6 88.7 L 309.6 86.9 L 310.2 86.9 L 310.2 91.1 L 309.6 91.1 L 309.6 89.1 L 307.4 89.1 L 307.4 91.1 L 306.8 91.1 L 306.8 86.9 " fill="#FF0000"/>
<path class="atom-106" d="M 276.2 77.1 Q 276.2 76.1, 276.7 75.5 Q 277.2 75.0, 278.1 75.0 Q 279.0 75.0, 279.5 75.5 Q 280.1 76.1, 280.1 77.1 Q 280.1 78.2, 279.5 78.7 Q 279.0 79.3, 278.1 79.3 Q 277.2 79.3, 276.7 78.7 Q 276.2 78.2, 276.2 77.1 M 278.1 78.8 Q 278.7 78.8, 279.1 78.4 Q 279.5 78.0, 279.5 77.1 Q 279.5 76.3, 279.1 75.9 Q 278.7 75.4, 278.1 75.4 Q 277.5 75.4, 277.1 75.9 Q 276.8 76.3, 276.8 77.1 Q 276.8 78.0, 277.1 78.4 Q 277.5 78.8, 278.1 78.8 " fill="#FF0000"/>
<path class="atom-106" d="M 280.7 75.0 L 281.3 75.0 L 281.3 76.8 L 283.5 76.8 L 283.5 75.0 L 284.0 75.0 L 284.0 79.3 L 283.5 79.3 L 283.5 77.3 L 281.3 77.3 L 281.3 79.3 L 280.7 79.3 L 280.7 75.0 " fill="#FF0000"/>
<path class="atom-107" d="M 256.5 63.0 L 257.1 63.0 L 257.1 64.9 L 259.3 64.9 L 259.3 63.0 L 259.9 63.0 L 259.9 67.3 L 259.3 67.3 L 259.3 65.3 L 257.1 65.3 L 257.1 67.3 L 256.5 67.3 L 256.5 63.0 " fill="#FF0000"/>
<path class="atom-107" d="M 260.7 65.2 Q 260.7 64.1, 261.2 63.6 Q 261.7 63.0, 262.7 63.0 Q 263.6 63.0, 264.1 63.6 Q 264.6 64.1, 264.6 65.2 Q 264.6 66.2, 264.1 66.8 Q 263.6 67.4, 262.7 67.4 Q 261.7 67.4, 261.2 66.8 Q 260.7 66.2, 260.7 65.2 M 262.7 66.9 Q 263.3 66.9, 263.7 66.5 Q 264.0 66.0, 264.0 65.2 Q 264.0 64.3, 263.7 63.9 Q 263.3 63.5, 262.7 63.5 Q 262.0 63.5, 261.7 63.9 Q 261.3 64.3, 261.3 65.2 Q 261.3 66.0, 261.7 66.5 Q 262.0 66.9, 262.7 66.9 " fill="#FF0000"/>
<path class="atom-111" d="M 284.6 47.4 Q 284.6 46.4, 285.1 45.8 Q 285.6 45.2, 286.5 45.2 Q 287.5 45.2, 288.0 45.8 Q 288.5 46.4, 288.5 47.4 Q 288.5 48.4, 288.0 49.0 Q 287.5 49.6, 286.5 49.6 Q 285.6 49.6, 285.1 49.0 Q 284.6 48.4, 284.6 47.4 M 286.5 49.1 Q 287.2 49.1, 287.5 48.7 Q 287.9 48.2, 287.9 47.4 Q 287.9 46.5, 287.5 46.1 Q 287.2 45.7, 286.5 45.7 Q 285.9 45.7, 285.5 46.1 Q 285.2 46.5, 285.2 47.4 Q 285.2 48.2, 285.5 48.7 Q 285.9 49.1, 286.5 49.1 " fill="#FF0000"/>
<path class="atom-112" d="M 298.6 56.9 Q 298.6 55.9, 299.1 55.3 Q 299.6 54.8, 300.5 54.8 Q 301.5 54.8, 302.0 55.3 Q 302.5 55.9, 302.5 56.9 Q 302.5 57.9, 302.0 58.5 Q 301.5 59.1, 300.5 59.1 Q 299.6 59.1, 299.1 58.5 Q 298.6 58.0, 298.6 56.9 M 300.5 58.6 Q 301.2 58.6, 301.5 58.2 Q 301.9 57.8, 301.9 56.9 Q 301.9 56.1, 301.5 55.7 Q 301.2 55.2, 300.5 55.2 Q 299.9 55.2, 299.5 55.7 Q 299.2 56.1, 299.2 56.9 Q 299.2 57.8, 299.5 58.2 Q 299.9 58.6, 300.5 58.6 " fill="#FF0000"/>
<path class="atom-112" d="M 303.1 54.8 L 303.7 54.8 L 303.7 56.6 L 305.9 56.6 L 305.9 54.8 L 306.5 54.8 L 306.5 59.0 L 305.9 59.0 L 305.9 57.1 L 303.7 57.1 L 303.7 59.0 L 303.1 59.0 L 303.1 54.8 " fill="#FF0000"/>
</svg>
