<?xml version='1.0' encoding='ASCII' standalone='yes'?>
<svg xmlns="http://www.w3.org/2000/svg" xmlns:rdkit="http://www.rdkit.org/xml" xmlns:xlink="http://www.w3.org/1999/xlink" version="1.1" baseProfile="full" xml:space="preserve" width="215px" height="200px" viewBox="0 0 215 200">
<!-- END OF HEADER -->
<rect style="opacity:1.0;fill:#FFFFFF;stroke:none" width="215.0" height="200.0" x="0.0" y="0.0"> </rect>
<path class="bond-0 atom-0 atom-1" d="M 79.0,59.3 L 74.6,76.5" style="fill:none;fill-rule:evenodd;stroke:#FF0000;stroke-width:2.0px;stroke-linecap:butt;stroke-linejoin:miter;stroke-opacity:1"/>
<path class="bond-0 atom-0 atom-1" d="M 74.6,76.5 L 70.2,93.7" style="fill:none;fill-rule:evenodd;stroke:#000000;stroke-width:2.0px;stroke-linecap:butt;stroke-linejoin:miter;stroke-opacity:1"/>
<path class="bond-0 atom-0 atom-1" d="M 72.9,57.8 L 68.6,75.0" style="fill:none;fill-rule:evenodd;stroke:#FF0000;stroke-width:2.0px;stroke-linecap:butt;stroke-linejoin:miter;stroke-opacity:1"/>
<path class="bond-0 atom-0 atom-1" d="M 68.6,75.0 L 64.2,92.2" style="fill:none;fill-rule:evenodd;stroke:#000000;stroke-width:2.0px;stroke-linecap:butt;stroke-linejoin:miter;stroke-opacity:1"/>
<path class="bond-1 atom-1 atom-2" d="M 67.6,91.2 L 51.1,95.9" style="fill:none;fill-rule:evenodd;stroke:#000000;stroke-width:2.0px;stroke-linecap:butt;stroke-linejoin:miter;stroke-opacity:1"/>
<path class="bond-1 atom-1 atom-2" d="M 51.1,95.9 L 34.5,100.6" style="fill:none;fill-rule:evenodd;stroke:#FF0000;stroke-width:2.0px;stroke-linecap:butt;stroke-linejoin:miter;stroke-opacity:1"/>
<path class="bond-2 atom-1 atom-3" d="M 67.6,91.2 L 97.3,120.1" style="fill:none;fill-rule:evenodd;stroke:#000000;stroke-width:2.0px;stroke-linecap:butt;stroke-linejoin:miter;stroke-opacity:1"/>
<path class="bond-3 atom-3 atom-4" d="M 97.3,120.1 L 137.2,108.9" style="fill:none;fill-rule:evenodd;stroke:#000000;stroke-width:2.0px;stroke-linecap:butt;stroke-linejoin:miter;stroke-opacity:1"/>
<path class="bond-4 atom-4 atom-5" d="M 137.2,108.9 L 141.8,125.2" style="fill:none;fill-rule:evenodd;stroke:#000000;stroke-width:2.0px;stroke-linecap:butt;stroke-linejoin:miter;stroke-opacity:1"/>
<path class="bond-4 atom-4 atom-5" d="M 141.8,125.2 L 146.4,141.5" style="fill:none;fill-rule:evenodd;stroke:#FF0000;stroke-width:2.0px;stroke-linecap:butt;stroke-linejoin:miter;stroke-opacity:1"/>
<path class="bond-5 atom-4 atom-6" d="M 137.2,108.9 L 132.7,92.7" style="fill:none;fill-rule:evenodd;stroke:#000000;stroke-width:2.0px;stroke-linecap:butt;stroke-linejoin:miter;stroke-opacity:1"/>
<path class="bond-5 atom-4 atom-6" d="M 132.7,92.7 L 128.1,76.5" style="fill:none;fill-rule:evenodd;stroke:#FF0000;stroke-width:2.0px;stroke-linecap:butt;stroke-linejoin:miter;stroke-opacity:1"/>
<path class="bond-6 atom-4 atom-7" d="M 137.2,108.9 L 177.1,97.6" style="fill:none;fill-rule:evenodd;stroke:#000000;stroke-width:2.0px;stroke-linecap:butt;stroke-linejoin:miter;stroke-opacity:1"/>
<path class="bond-7 atom-7 atom-8" d="M 177.1,97.6 L 181.3,81.3" style="fill:none;fill-rule:evenodd;stroke:#000000;stroke-width:2.0px;stroke-linecap:butt;stroke-linejoin:miter;stroke-opacity:1"/>
<path class="bond-7 atom-7 atom-8" d="M 181.3,81.3 L 185.4,64.9" style="fill:none;fill-rule:evenodd;stroke:#FF0000;stroke-width:2.0px;stroke-linecap:butt;stroke-linejoin:miter;stroke-opacity:1"/>
<path d="M 66.8,91.4 L 67.6,91.2 L 69.1,92.7" style="fill:none;stroke:#000000;stroke-width:2.0px;stroke-linecap:butt;stroke-linejoin:miter;stroke-opacity:1;"/>
<path d="M 95.9,118.7 L 97.3,120.1 L 99.3,119.6" style="fill:none;stroke:#000000;stroke-width:2.0px;stroke-linecap:butt;stroke-linejoin:miter;stroke-opacity:1;"/>
<path d="M 175.1,98.2 L 177.1,97.6 L 177.3,96.8" style="fill:none;stroke:#000000;stroke-width:2.0px;stroke-linecap:butt;stroke-linejoin:miter;stroke-opacity:1;"/>
<path class="atom-0" d="M 72.5 51.1 Q 72.5 48.2, 73.8 46.7 Q 75.2 45.1, 77.8 45.1 Q 80.4 45.1, 81.8 46.7 Q 83.2 48.2, 83.2 51.1 Q 83.2 53.9, 81.8 55.5 Q 80.4 57.1, 77.8 57.1 Q 75.3 57.1, 73.8 55.5 Q 72.5 53.9, 72.5 51.1 M 77.8 55.8 Q 79.6 55.8, 80.6 54.6 Q 81.6 53.4, 81.6 51.1 Q 81.6 48.8, 80.6 47.6 Q 79.6 46.4, 77.8 46.4 Q 76.1 46.4, 75.1 47.6 Q 74.1 48.7, 74.1 51.1 Q 74.1 53.4, 75.1 54.6 Q 76.1 55.8, 77.8 55.8 " fill="#FF0000"/>
<path class="atom-2" d="M 10.7 96.7 L 12.3 96.7 L 12.3 101.7 L 18.3 101.7 L 18.3 96.7 L 19.9 96.7 L 19.9 108.4 L 18.3 108.4 L 18.3 103.0 L 12.3 103.0 L 12.3 108.4 L 10.7 108.4 L 10.7 96.7 " fill="#FF0000"/>
<path class="atom-2" d="M 22.3 102.5 Q 22.3 99.7, 23.7 98.1 Q 25.1 96.5, 27.7 96.5 Q 30.3 96.5, 31.7 98.1 Q 33.1 99.7, 33.1 102.5 Q 33.1 105.4, 31.7 107.0 Q 30.3 108.6, 27.7 108.6 Q 25.1 108.6, 23.7 107.0 Q 22.3 105.4, 22.3 102.5 M 27.7 107.3 Q 29.5 107.3, 30.5 106.1 Q 31.5 104.9, 31.5 102.5 Q 31.5 100.2, 30.5 99.0 Q 29.5 97.9, 27.7 97.9 Q 25.9 97.9, 25.0 99.0 Q 24.0 100.2, 24.0 102.5 Q 24.0 104.9, 25.0 106.1 Q 25.9 107.3, 27.7 107.3 " fill="#FF0000"/>
<path class="atom-5" d="M 143.1 148.8 Q 143.1 146.0, 144.5 144.4 Q 145.9 142.9, 148.5 142.9 Q 151.1 142.9, 152.5 144.4 Q 153.9 146.0, 153.9 148.8 Q 153.9 151.7, 152.5 153.3 Q 151.1 154.9, 148.5 154.9 Q 145.9 154.9, 144.5 153.3 Q 143.1 151.7, 143.1 148.8 M 148.5 153.6 Q 150.3 153.6, 151.2 152.4 Q 152.2 151.2, 152.2 148.8 Q 152.2 146.5, 151.2 145.4 Q 150.3 144.2, 148.5 144.2 Q 146.7 144.2, 145.7 145.3 Q 144.8 146.5, 144.8 148.8 Q 144.8 151.2, 145.7 152.4 Q 146.7 153.6, 148.5 153.6 " fill="#FF0000"/>
<path class="atom-5" d="M 155.7 143.0 L 157.3 143.0 L 157.3 148.0 L 163.3 148.0 L 163.3 143.0 L 164.9 143.0 L 164.9 154.7 L 163.3 154.7 L 163.3 149.3 L 157.3 149.3 L 157.3 154.7 L 155.7 154.7 L 155.7 143.0 " fill="#FF0000"/>
<path class="atom-6" d="M 120.6 69.0 Q 120.6 66.2, 122.0 64.6 Q 123.4 63.0, 126.0 63.0 Q 128.6 63.0, 130.0 64.6 Q 131.4 66.2, 131.4 69.0 Q 131.4 71.9, 130.0 73.5 Q 128.6 75.1, 126.0 75.1 Q 123.4 75.1, 122.0 73.5 Q 120.6 71.9, 120.6 69.0 M 126.0 73.8 Q 127.8 73.8, 128.7 72.6 Q 129.7 71.4, 129.7 69.0 Q 129.7 66.7, 128.7 65.6 Q 127.8 64.4, 126.0 64.4 Q 124.2 64.4, 123.2 65.5 Q 122.3 66.7, 122.3 69.0 Q 122.3 71.4, 123.2 72.6 Q 124.2 73.8, 126.0 73.8 " fill="#FF0000"/>
<path class="atom-6" d="M 133.2 63.2 L 134.8 63.2 L 134.8 68.2 L 140.8 68.2 L 140.8 63.2 L 142.4 63.2 L 142.4 74.9 L 140.8 74.9 L 140.8 69.5 L 134.8 69.5 L 134.8 74.9 L 133.2 74.9 L 133.2 63.2 " fill="#FF0000"/>
<path class="atom-8" d="M 182.0 57.5 Q 182.0 54.7, 183.3 53.1 Q 184.7 51.5, 187.3 51.5 Q 189.9 51.5, 191.3 53.1 Q 192.7 54.7, 192.7 57.5 Q 192.7 60.3, 191.3 62.0 Q 189.9 63.6, 187.3 63.6 Q 184.8 63.6, 183.3 62.0 Q 182.0 60.3, 182.0 57.5 M 187.3 62.2 Q 189.1 62.2, 190.1 61.0 Q 191.1 59.8, 191.1 57.5 Q 191.1 55.2, 190.1 54.0 Q 189.1 52.8, 187.3 52.8 Q 185.6 52.8, 184.6 54.0 Q 183.6 55.2, 183.6 57.5 Q 183.6 59.9, 184.6 61.0 Q 185.6 62.2, 187.3 62.2 " fill="#FF0000"/>
<path class="atom-8" d="M 194.6 51.6 L 196.2 51.6 L 196.2 56.6 L 202.2 56.6 L 202.2 51.6 L 203.8 51.6 L 203.8 63.4 L 202.2 63.4 L 202.2 58.0 L 196.2 58.0 L 196.2 63.4 L 194.6 63.4 L 194.6 51.6 " fill="#FF0000"/>
</svg>
