<?xml version='1.0' encoding='ASCII' standalone='yes'?>
<svg xmlns="http://www.w3.org/2000/svg" xmlns:rdkit="http://www.rdkit.org/xml" xmlns:xlink="http://www.w3.org/1999/xlink" version="1.1" baseProfile="full" xml:space="preserve" width="225px" height="200px" viewBox="0 0 225 200">
<!-- END OF HEADER -->
<rect style="opacity:1.0;fill:#FFFFFF;stroke:none" width="225.0" height="200.0" x="0.0" y="0.0"> </rect>
<path class="bond-0 atom-0 atom-1" d="M 213.2,90.8 L 184.5,107.7" style="fill:none;fill-rule:evenodd;stroke:#000000;stroke-width:2.0px;stroke-linecap:butt;stroke-linejoin:miter;stroke-opacity:1"/>
<path class="bond-1 atom-1 atom-2" d="M 184.5,107.7 L 155.5,91.3" style="fill:none;fill-rule:evenodd;stroke:#000000;stroke-width:2.0px;stroke-linecap:butt;stroke-linejoin:miter;stroke-opacity:1"/>
<path class="bond-2 atom-2 atom-3" d="M 155.5,91.3 L 126.8,108.2" style="fill:none;fill-rule:evenodd;stroke:#000000;stroke-width:2.0px;stroke-linecap:butt;stroke-linejoin:miter;stroke-opacity:1"/>
<path class="bond-3 atom-3 atom-4" d="M 124.2,106.7 L 124.4,121.2" style="fill:none;fill-rule:evenodd;stroke:#000000;stroke-width:2.0px;stroke-linecap:butt;stroke-linejoin:miter;stroke-opacity:1"/>
<path class="bond-3 atom-3 atom-4" d="M 124.4,121.2 L 124.5,135.6" style="fill:none;fill-rule:evenodd;stroke:#FF0000;stroke-width:2.0px;stroke-linecap:butt;stroke-linejoin:miter;stroke-opacity:1"/>
<path class="bond-3 atom-3 atom-4" d="M 129.2,106.7 L 129.4,121.1" style="fill:none;fill-rule:evenodd;stroke:#000000;stroke-width:2.0px;stroke-linecap:butt;stroke-linejoin:miter;stroke-opacity:1"/>
<path class="bond-3 atom-3 atom-4" d="M 129.4,121.1 L 129.5,135.6" style="fill:none;fill-rule:evenodd;stroke:#FF0000;stroke-width:2.0px;stroke-linecap:butt;stroke-linejoin:miter;stroke-opacity:1"/>
<path class="bond-4 atom-3 atom-5" d="M 126.8,108.2 L 97.7,91.7" style="fill:none;fill-rule:evenodd;stroke:#000000;stroke-width:2.0px;stroke-linecap:butt;stroke-linejoin:miter;stroke-opacity:1"/>
<path class="bond-5 atom-5 atom-6" d="M 97.7,91.7 L 97.6,78.0" style="fill:none;fill-rule:evenodd;stroke:#000000;stroke-width:2.0px;stroke-linecap:butt;stroke-linejoin:miter;stroke-opacity:1"/>
<path class="bond-5 atom-5 atom-6" d="M 97.6,78.0 L 97.5,64.4" style="fill:none;fill-rule:evenodd;stroke:#FF0000;stroke-width:2.0px;stroke-linecap:butt;stroke-linejoin:miter;stroke-opacity:1"/>
<path class="bond-6 atom-5 atom-7" d="M 97.7,91.7 L 69.0,108.6" style="fill:none;fill-rule:evenodd;stroke:#000000;stroke-width:2.0px;stroke-linecap:butt;stroke-linejoin:miter;stroke-opacity:1"/>
<path class="bond-7 atom-7 atom-8" d="M 69.0,108.6 L 40.0,92.1" style="fill:none;fill-rule:evenodd;stroke:#000000;stroke-width:2.0px;stroke-linecap:butt;stroke-linejoin:miter;stroke-opacity:1"/>
<path class="bond-8 atom-8 atom-9" d="M 40.0,92.1 L 11.2,109.0" style="fill:none;fill-rule:evenodd;stroke:#000000;stroke-width:2.0px;stroke-linecap:butt;stroke-linejoin:miter;stroke-opacity:1"/>
<path d="M 185.9,106.9 L 184.5,107.7 L 183.1,106.9" style="fill:none;stroke:#000000;stroke-width:2.0px;stroke-linecap:butt;stroke-linejoin:miter;stroke-opacity:1;"/>
<path d="M 156.9,92.1 L 155.5,91.3 L 154.1,92.1" style="fill:none;stroke:#000000;stroke-width:2.0px;stroke-linecap:butt;stroke-linejoin:miter;stroke-opacity:1;"/>
<path d="M 128.2,107.3 L 126.8,108.2 L 125.3,107.3" style="fill:none;stroke:#000000;stroke-width:2.0px;stroke-linecap:butt;stroke-linejoin:miter;stroke-opacity:1;"/>
<path d="M 70.4,107.7 L 69.0,108.6 L 67.6,107.8" style="fill:none;stroke:#000000;stroke-width:2.0px;stroke-linecap:butt;stroke-linejoin:miter;stroke-opacity:1;"/>
<path d="M 41.4,93.0 L 40.0,92.1 L 38.6,93.0" style="fill:none;stroke:#000000;stroke-width:2.0px;stroke-linecap:butt;stroke-linejoin:miter;stroke-opacity:1;"/>
<path class="atom-4" d="M 122.7 141.5 Q 122.7 139.3, 123.8 138.0 Q 124.9 136.7, 127.0 136.7 Q 129.1 136.7, 130.2 138.0 Q 131.3 139.3, 131.3 141.5 Q 131.3 143.8, 130.2 145.1 Q 129.1 146.4, 127.0 146.4 Q 124.9 146.4, 123.8 145.1 Q 122.7 143.8, 122.7 141.5 M 127.0 145.3 Q 128.4 145.3, 129.2 144.4 Q 130.0 143.4, 130.0 141.5 Q 130.0 139.7, 129.2 138.7 Q 128.4 137.8, 127.0 137.8 Q 125.6 137.8, 124.8 138.7 Q 124.0 139.7, 124.0 141.5 Q 124.0 143.4, 124.8 144.4 Q 125.6 145.3, 127.0 145.3 " fill="#FF0000"/>
<path class="atom-6" d="M 93.2 58.4 Q 93.2 56.1, 94.3 54.9 Q 95.4 53.6, 97.5 53.6 Q 99.6 53.6, 100.7 54.9 Q 101.8 56.1, 101.8 58.4 Q 101.8 60.7, 100.7 62.0 Q 99.6 63.3, 97.5 63.3 Q 95.4 63.3, 94.3 62.0 Q 93.2 60.7, 93.2 58.4 M 97.5 62.2 Q 98.9 62.2, 99.7 61.3 Q 100.5 60.3, 100.5 58.4 Q 100.5 56.5, 99.7 55.6 Q 98.9 54.7, 97.5 54.7 Q 96.1 54.7, 95.3 55.6 Q 94.5 56.5, 94.5 58.4 Q 94.5 60.3, 95.3 61.3 Q 96.1 62.2, 97.5 62.2 " fill="#FF0000"/>
<path class="atom-6" d="M 103.3 53.7 L 104.6 53.7 L 104.6 57.7 L 109.4 57.7 L 109.4 53.7 L 110.7 53.7 L 110.7 63.1 L 109.4 63.1 L 109.4 58.8 L 104.6 58.8 L 104.6 63.1 L 103.3 63.1 L 103.3 53.7 " fill="#FF0000"/>
</svg>
