<?xml version='1.0' encoding='ASCII' standalone='yes'?>
<svg xmlns="http://www.w3.org/2000/svg" xmlns:rdkit="http://www.rdkit.org/xml" xmlns:xlink="http://www.w3.org/1999/xlink" version="1.1" baseProfile="full" xml:space="preserve" width="289px" height="200px" viewBox="0 0 289 200">
<!-- END OF HEADER -->
<rect style="opacity:1.0;fill:#FFFFFF;stroke:none" width="289.0" height="200.0" x="0.0" y="0.0"> </rect>
<path class="bond-0 atom-0 atom-1" d="M 14.5,97.1 L 26.2,96.4" style="fill:none;fill-rule:evenodd;stroke:#000000;stroke-width:2.0px;stroke-linecap:butt;stroke-linejoin:miter;stroke-opacity:1"/>
<path class="bond-0 atom-0 atom-1" d="M 26.2,96.4 L 38.0,95.8" style="fill:none;fill-rule:evenodd;stroke:#FF0000;stroke-width:2.0px;stroke-linecap:butt;stroke-linejoin:miter;stroke-opacity:1"/>
<path class="bond-1 atom-1 atom-2" d="M 46.0,100.6 L 52.0,109.8" style="fill:none;fill-rule:evenodd;stroke:#FF0000;stroke-width:2.0px;stroke-linecap:butt;stroke-linejoin:miter;stroke-opacity:1"/>
<path class="bond-1 atom-1 atom-2" d="M 52.0,109.8 L 58.1,119.1" style="fill:none;fill-rule:evenodd;stroke:#000000;stroke-width:2.0px;stroke-linecap:butt;stroke-linejoin:miter;stroke-opacity:1"/>
<path class="bond-2 atom-2 atom-3" d="M 56.8,117.0 L 51.4,127.7" style="fill:none;fill-rule:evenodd;stroke:#000000;stroke-width:2.0px;stroke-linecap:butt;stroke-linejoin:miter;stroke-opacity:1"/>
<path class="bond-2 atom-2 atom-3" d="M 51.4,127.7 L 46.1,138.4" style="fill:none;fill-rule:evenodd;stroke:#FF0000;stroke-width:2.0px;stroke-linecap:butt;stroke-linejoin:miter;stroke-opacity:1"/>
<path class="bond-2 atom-2 atom-3" d="M 60.6,118.9 L 55.2,129.6" style="fill:none;fill-rule:evenodd;stroke:#000000;stroke-width:2.0px;stroke-linecap:butt;stroke-linejoin:miter;stroke-opacity:1"/>
<path class="bond-2 atom-2 atom-3" d="M 55.2,129.6 L 49.8,140.3" style="fill:none;fill-rule:evenodd;stroke:#FF0000;stroke-width:2.0px;stroke-linecap:butt;stroke-linejoin:miter;stroke-opacity:1"/>
<path class="bond-3 atom-2 atom-4" d="M 58.1,119.1 L 86.3,117.4" style="fill:none;fill-rule:evenodd;stroke:#000000;stroke-width:2.0px;stroke-linecap:butt;stroke-linejoin:miter;stroke-opacity:1"/>
<path class="bond-4 atom-4 atom-5" d="M 86.3,117.4 L 101.8,141.0" style="fill:none;fill-rule:evenodd;stroke:#000000;stroke-width:2.0px;stroke-linecap:butt;stroke-linejoin:miter;stroke-opacity:1"/>
<path class="bond-5 atom-4 atom-6" d="M 86.3,117.4 L 99.0,92.2" style="fill:none;fill-rule:evenodd;stroke:#000000;stroke-width:2.0px;stroke-linecap:butt;stroke-linejoin:miter;stroke-opacity:1"/>
<path class="bond-6 atom-6 atom-7" d="M 99.0,92.2 L 110.7,91.5" style="fill:none;fill-rule:evenodd;stroke:#000000;stroke-width:2.0px;stroke-linecap:butt;stroke-linejoin:miter;stroke-opacity:1"/>
<path class="bond-6 atom-6 atom-7" d="M 110.7,91.5 L 122.5,90.9" style="fill:none;fill-rule:evenodd;stroke:#FF0000;stroke-width:2.0px;stroke-linecap:butt;stroke-linejoin:miter;stroke-opacity:1"/>
<path class="bond-7 atom-7 atom-8" d="M 129.6,85.6 L 134.7,75.5" style="fill:none;fill-rule:evenodd;stroke:#FF0000;stroke-width:2.0px;stroke-linecap:butt;stroke-linejoin:miter;stroke-opacity:1"/>
<path class="bond-7 atom-7 atom-8" d="M 134.7,75.5 L 139.8,65.4" style="fill:none;fill-rule:evenodd;stroke:#000000;stroke-width:2.0px;stroke-linecap:butt;stroke-linejoin:miter;stroke-opacity:1"/>
<path class="bond-8 atom-8 atom-9" d="M 142.2,65.2 L 135.8,55.5" style="fill:none;fill-rule:evenodd;stroke:#000000;stroke-width:2.0px;stroke-linecap:butt;stroke-linejoin:miter;stroke-opacity:1"/>
<path class="bond-8 atom-8 atom-9" d="M 135.8,55.5 L 129.4,45.7" style="fill:none;fill-rule:evenodd;stroke:#FF0000;stroke-width:2.0px;stroke-linecap:butt;stroke-linejoin:miter;stroke-opacity:1"/>
<path class="bond-8 atom-8 atom-9" d="M 138.7,67.6 L 132.3,57.8" style="fill:none;fill-rule:evenodd;stroke:#000000;stroke-width:2.0px;stroke-linecap:butt;stroke-linejoin:miter;stroke-opacity:1"/>
<path class="bond-8 atom-8 atom-9" d="M 132.3,57.8 L 125.9,48.1" style="fill:none;fill-rule:evenodd;stroke:#FF0000;stroke-width:2.0px;stroke-linecap:butt;stroke-linejoin:miter;stroke-opacity:1"/>
<path class="bond-9 atom-8 atom-10" d="M 139.8,65.4 L 168.0,63.8" style="fill:none;fill-rule:evenodd;stroke:#000000;stroke-width:2.0px;stroke-linecap:butt;stroke-linejoin:miter;stroke-opacity:1"/>
<path class="bond-10 atom-10 atom-11" d="M 168.0,63.8 L 180.6,38.5" style="fill:none;fill-rule:evenodd;stroke:#000000;stroke-width:2.0px;stroke-linecap:butt;stroke-linejoin:miter;stroke-opacity:1"/>
<path class="bond-11 atom-10 atom-12" d="M 168.0,63.8 L 183.5,87.3" style="fill:none;fill-rule:evenodd;stroke:#000000;stroke-width:2.0px;stroke-linecap:butt;stroke-linejoin:miter;stroke-opacity:1"/>
<path class="bond-12 atom-12 atom-13" d="M 183.5,87.3 L 211.6,85.7" style="fill:none;fill-rule:evenodd;stroke:#000000;stroke-width:2.0px;stroke-linecap:butt;stroke-linejoin:miter;stroke-opacity:1"/>
<path class="bond-13 atom-13 atom-14" d="M 211.6,85.7 L 216.7,75.6" style="fill:none;fill-rule:evenodd;stroke:#000000;stroke-width:2.0px;stroke-linecap:butt;stroke-linejoin:miter;stroke-opacity:1"/>
<path class="bond-13 atom-13 atom-14" d="M 216.7,75.6 L 221.7,65.6" style="fill:none;fill-rule:evenodd;stroke:#FF0000;stroke-width:2.0px;stroke-linecap:butt;stroke-linejoin:miter;stroke-opacity:1"/>
<path class="bond-14 atom-13 atom-15" d="M 211.6,85.7 L 227.1,109.3" style="fill:none;fill-rule:evenodd;stroke:#000000;stroke-width:2.0px;stroke-linecap:butt;stroke-linejoin:miter;stroke-opacity:1"/>
<path class="bond-15 atom-15 atom-16" d="M 227.1,109.3 L 203.5,124.8" style="fill:none;fill-rule:evenodd;stroke:#000000;stroke-width:2.0px;stroke-linecap:butt;stroke-linejoin:miter;stroke-opacity:1"/>
<path class="bond-16 atom-15 atom-17" d="M 227.1,109.3 L 250.7,93.8" style="fill:none;fill-rule:evenodd;stroke:#000000;stroke-width:2.0px;stroke-linecap:butt;stroke-linejoin:miter;stroke-opacity:1"/>
<path class="bond-17 atom-15 atom-18" d="M 227.1,109.3 L 242.6,132.9" style="fill:none;fill-rule:evenodd;stroke:#000000;stroke-width:2.0px;stroke-linecap:butt;stroke-linejoin:miter;stroke-opacity:1"/>
<path class="bond-18 atom-18 atom-19" d="M 241.5,135.0 L 253.9,134.3" style="fill:none;fill-rule:evenodd;stroke:#000000;stroke-width:2.0px;stroke-linecap:butt;stroke-linejoin:miter;stroke-opacity:1"/>
<path class="bond-18 atom-18 atom-19" d="M 253.9,134.3 L 266.3,133.6" style="fill:none;fill-rule:evenodd;stroke:#FF0000;stroke-width:2.0px;stroke-linecap:butt;stroke-linejoin:miter;stroke-opacity:1"/>
<path class="bond-18 atom-18 atom-19" d="M 241.3,130.8 L 253.7,130.1" style="fill:none;fill-rule:evenodd;stroke:#000000;stroke-width:2.0px;stroke-linecap:butt;stroke-linejoin:miter;stroke-opacity:1"/>
<path class="bond-18 atom-18 atom-19" d="M 253.7,130.1 L 266.1,129.4" style="fill:none;fill-rule:evenodd;stroke:#FF0000;stroke-width:2.0px;stroke-linecap:butt;stroke-linejoin:miter;stroke-opacity:1"/>
<path class="bond-19 atom-18 atom-20" d="M 242.6,132.9 L 237.5,143.0" style="fill:none;fill-rule:evenodd;stroke:#000000;stroke-width:2.0px;stroke-linecap:butt;stroke-linejoin:miter;stroke-opacity:1"/>
<path class="bond-19 atom-18 atom-20" d="M 237.5,143.0 L 232.4,153.1" style="fill:none;fill-rule:evenodd;stroke:#FF0000;stroke-width:2.0px;stroke-linecap:butt;stroke-linejoin:miter;stroke-opacity:1"/>
<path d="M 57.8,118.6 L 58.1,119.1 L 59.5,119.0" style="fill:none;stroke:#000000;stroke-width:2.0px;stroke-linecap:butt;stroke-linejoin:miter;stroke-opacity:1;"/>
<path d="M 98.3,93.5 L 99.0,92.2 L 99.5,92.2" style="fill:none;stroke:#000000;stroke-width:2.0px;stroke-linecap:butt;stroke-linejoin:miter;stroke-opacity:1;"/>
<path d="M 139.5,65.9 L 139.8,65.4 L 141.2,65.3" style="fill:none;stroke:#000000;stroke-width:2.0px;stroke-linecap:butt;stroke-linejoin:miter;stroke-opacity:1;"/>
<path d="M 182.7,86.2 L 183.5,87.3 L 184.9,87.3" style="fill:none;stroke:#000000;stroke-width:2.0px;stroke-linecap:butt;stroke-linejoin:miter;stroke-opacity:1;"/>
<path d="M 241.8,131.7 L 242.6,132.9 L 242.4,133.4" style="fill:none;stroke:#000000;stroke-width:2.0px;stroke-linecap:butt;stroke-linejoin:miter;stroke-opacity:1;"/>
<path class="atom-1" d="M 38.9 95.5 Q 38.9 93.6, 39.9 92.5 Q 40.8 91.5, 42.6 91.5 Q 44.4 91.5, 45.3 92.5 Q 46.3 93.6, 46.3 95.5 Q 46.3 97.5, 45.3 98.6 Q 44.4 99.7, 42.6 99.7 Q 40.9 99.7, 39.9 98.6 Q 38.9 97.5, 38.9 95.5 M 42.6 98.8 Q 43.8 98.8, 44.5 97.9 Q 45.2 97.1, 45.2 95.5 Q 45.2 93.9, 44.5 93.2 Q 43.8 92.4, 42.6 92.4 Q 41.4 92.4, 40.7 93.1 Q 40.1 93.9, 40.1 95.5 Q 40.1 97.1, 40.7 97.9 Q 41.4 98.8, 42.6 98.8 " fill="#FF0000"/>
<path class="atom-3" d="M 41.8 144.3 Q 41.8 142.4, 42.7 141.3 Q 43.7 140.2, 45.4 140.2 Q 47.2 140.2, 48.2 141.3 Q 49.1 142.4, 49.1 144.3 Q 49.1 146.2, 48.2 147.4 Q 47.2 148.4, 45.4 148.4 Q 43.7 148.4, 42.7 147.4 Q 41.8 146.3, 41.8 144.3 M 45.4 147.5 Q 46.7 147.5, 47.3 146.7 Q 48.0 145.9, 48.0 144.3 Q 48.0 142.7, 47.3 141.9 Q 46.7 141.1, 45.4 141.1 Q 44.2 141.1, 43.6 141.9 Q 42.9 142.7, 42.9 144.3 Q 42.9 145.9, 43.6 146.7 Q 44.2 147.5, 45.4 147.5 " fill="#FF0000"/>
<path class="atom-7" d="M 123.5 90.6 Q 123.5 88.7, 124.4 87.6 Q 125.3 86.6, 127.1 86.6 Q 128.9 86.6, 129.8 87.6 Q 130.8 88.7, 130.8 90.6 Q 130.8 92.6, 129.8 93.7 Q 128.9 94.8, 127.1 94.8 Q 125.4 94.8, 124.4 93.7 Q 123.5 92.6, 123.5 90.6 M 127.1 93.9 Q 128.3 93.9, 129.0 93.0 Q 129.7 92.2, 129.7 90.6 Q 129.7 89.1, 129.0 88.3 Q 128.3 87.5, 127.1 87.5 Q 125.9 87.5, 125.2 88.3 Q 124.6 89.0, 124.6 90.6 Q 124.6 92.2, 125.2 93.0 Q 125.9 93.9, 127.1 93.9 " fill="#FF0000"/>
<path class="atom-9" d="M 120.6 41.8 Q 120.6 39.9, 121.6 38.8 Q 122.5 37.8, 124.3 37.8 Q 126.1 37.8, 127.0 38.8 Q 128.0 39.9, 128.0 41.8 Q 128.0 43.8, 127.0 44.9 Q 126.0 46.0, 124.3 46.0 Q 122.5 46.0, 121.6 44.9 Q 120.6 43.8, 120.6 41.8 M 124.3 45.1 Q 125.5 45.1, 126.2 44.3 Q 126.8 43.4, 126.8 41.8 Q 126.8 40.3, 126.2 39.5 Q 125.5 38.7, 124.3 38.7 Q 123.1 38.7, 122.4 39.5 Q 121.8 40.3, 121.8 41.8 Q 121.8 43.4, 122.4 44.3 Q 123.1 45.1, 124.3 45.1 " fill="#FF0000"/>
<path class="atom-14" d="M 220.6 60.5 Q 220.6 58.6, 221.6 57.5 Q 222.5 56.5, 224.3 56.5 Q 226.1 56.5, 227.0 57.5 Q 228.0 58.6, 228.0 60.5 Q 228.0 62.5, 227.0 63.6 Q 226.0 64.7, 224.3 64.7 Q 222.5 64.7, 221.6 63.6 Q 220.6 62.5, 220.6 60.5 M 224.3 63.8 Q 225.5 63.8, 226.2 62.9 Q 226.8 62.1, 226.8 60.5 Q 226.8 58.9, 226.2 58.2 Q 225.5 57.4, 224.3 57.4 Q 223.1 57.4, 222.4 58.1 Q 221.8 58.9, 221.8 60.5 Q 221.8 62.1, 222.4 62.9 Q 223.1 63.8, 224.3 63.8 " fill="#FF0000"/>
<path class="atom-14" d="M 229.2 56.5 L 230.3 56.5 L 230.3 59.9 L 234.4 59.9 L 234.4 56.5 L 235.5 56.5 L 235.5 64.5 L 234.4 64.5 L 234.4 60.8 L 230.3 60.8 L 230.3 64.5 L 229.2 64.5 L 229.2 56.5 " fill="#FF0000"/>
<path class="atom-19" d="M 267.1 131.2 Q 267.1 129.3, 268.1 128.3 Q 269.0 127.2, 270.8 127.2 Q 272.6 127.2, 273.5 128.3 Q 274.4 129.3, 274.4 131.2 Q 274.4 133.2, 273.5 134.3 Q 272.5 135.4, 270.8 135.4 Q 269.0 135.4, 268.1 134.3 Q 267.1 133.2, 267.1 131.2 M 270.8 134.5 Q 272.0 134.5, 272.7 133.7 Q 273.3 132.8, 273.3 131.2 Q 273.3 129.7, 272.7 128.9 Q 272.0 128.1, 270.8 128.1 Q 269.6 128.1, 268.9 128.9 Q 268.2 129.7, 268.2 131.2 Q 268.2 132.9, 268.9 133.7 Q 269.6 134.5, 270.8 134.5 " fill="#FF0000"/>
<path class="atom-20" d="M 218.4 154.1 L 219.5 154.1 L 219.5 157.5 L 223.6 157.5 L 223.6 154.1 L 224.6 154.1 L 224.6 162.1 L 223.6 162.1 L 223.6 158.4 L 219.5 158.4 L 219.5 162.1 L 218.4 162.1 L 218.4 154.1 " fill="#FF0000"/>
<path class="atom-20" d="M 226.3 158.1 Q 226.3 156.2, 227.2 155.1 Q 228.2 154.0, 229.9 154.0 Q 231.7 154.0, 232.7 155.1 Q 233.6 156.2, 233.6 158.1 Q 233.6 160.0, 232.7 161.1 Q 231.7 162.2, 229.9 162.2 Q 228.2 162.2, 227.2 161.1 Q 226.3 160.0, 226.3 158.1 M 229.9 161.3 Q 231.2 161.3, 231.8 160.5 Q 232.5 159.7, 232.5 158.1 Q 232.5 156.5, 231.8 155.7 Q 231.2 154.9, 229.9 154.9 Q 228.7 154.9, 228.1 155.7 Q 227.4 156.5, 227.4 158.1 Q 227.4 159.7, 228.1 160.5 Q 228.7 161.3, 229.9 161.3 " fill="#FF0000"/>
</svg>
