<?xml version='1.0' encoding='ASCII' standalone='yes'?>
<svg xmlns="http://www.w3.org/2000/svg" xmlns:rdkit="http://www.rdkit.org/xml" xmlns:xlink="http://www.w3.org/1999/xlink" version="1.1" baseProfile="full" xml:space="preserve" width="180px" height="200px" viewBox="0 0 180 200">
<!-- END OF HEADER -->
<rect style="opacity:1.0;fill:#FFFFFF;stroke:none" width="180.0" height="200.0" x="0.0" y="0.0"> </rect>
<path class="bond-0 atom-0 atom-1" d="M 44.6,61.8 L 55.6,80.8" style="fill:none;fill-rule:evenodd;stroke:#0000FF;stroke-width:2.0px;stroke-linecap:butt;stroke-linejoin:miter;stroke-opacity:1"/>
<path class="bond-0 atom-0 atom-1" d="M 55.6,80.8 L 66.6,99.9" style="fill:none;fill-rule:evenodd;stroke:#000000;stroke-width:2.0px;stroke-linecap:butt;stroke-linejoin:miter;stroke-opacity:1"/>
<path class="bond-1 atom-1 atom-2" d="M 64.2,95.7 L 52.7,115.8" style="fill:none;fill-rule:evenodd;stroke:#000000;stroke-width:2.0px;stroke-linecap:butt;stroke-linejoin:miter;stroke-opacity:1"/>
<path class="bond-1 atom-1 atom-2" d="M 52.7,115.8 L 41.1,135.8" style="fill:none;fill-rule:evenodd;stroke:#FF0000;stroke-width:2.0px;stroke-linecap:butt;stroke-linejoin:miter;stroke-opacity:1"/>
<path class="bond-1 atom-1 atom-2" d="M 71.4,99.9 L 59.8,119.9" style="fill:none;fill-rule:evenodd;stroke:#000000;stroke-width:2.0px;stroke-linecap:butt;stroke-linejoin:miter;stroke-opacity:1"/>
<path class="bond-1 atom-1 atom-2" d="M 59.8,119.9 L 48.3,139.9" style="fill:none;fill-rule:evenodd;stroke:#FF0000;stroke-width:2.0px;stroke-linecap:butt;stroke-linejoin:miter;stroke-opacity:1"/>
<path class="bond-2 atom-1 atom-3" d="M 66.6,99.9 L 121.7,99.9" style="fill:none;fill-rule:evenodd;stroke:#000000;stroke-width:2.0px;stroke-linecap:butt;stroke-linejoin:miter;stroke-opacity:1"/>
<path class="bond-3 atom-3 atom-4" d="M 121.7,99.9 L 132.6,118.9" style="fill:none;fill-rule:evenodd;stroke:#000000;stroke-width:2.0px;stroke-linecap:butt;stroke-linejoin:miter;stroke-opacity:1"/>
<path class="bond-3 atom-3 atom-4" d="M 132.6,118.9 L 143.6,137.9" style="fill:none;fill-rule:evenodd;stroke:#FF0000;stroke-width:2.0px;stroke-linecap:butt;stroke-linejoin:miter;stroke-opacity:1"/>
<path class="bond-4 atom-3 atom-5" d="M 121.7,99.9 L 132.6,81.0" style="fill:none;fill-rule:evenodd;stroke:#000000;stroke-width:2.0px;stroke-linecap:butt;stroke-linejoin:miter;stroke-opacity:1"/>
<path class="bond-4 atom-3 atom-5" d="M 132.6,81.0 L 143.5,62.1" style="fill:none;fill-rule:evenodd;stroke:#FF0000;stroke-width:2.0px;stroke-linecap:butt;stroke-linejoin:miter;stroke-opacity:1"/>
<path d="M 66.1,98.9 L 66.6,99.9 L 69.4,99.9" style="fill:none;stroke:#000000;stroke-width:2.0px;stroke-linecap:butt;stroke-linejoin:miter;stroke-opacity:1;"/>
<path class="atom-0" d="M 9.0 44.4 L 11.1 44.4 L 11.1 51.0 L 19.1 51.0 L 19.1 44.4 L 21.2 44.4 L 21.2 60.0 L 19.1 60.0 L 19.1 52.8 L 11.1 52.8 L 11.1 60.0 L 9.0 60.0 L 9.0 44.4 " fill="#0000FF"/>
<path class="atom-0" d="M 24.3 59.4 Q 24.6 58.5, 25.5 57.9 Q 26.4 57.4, 27.7 57.4 Q 29.2 57.4, 30.1 58.2 Q 31.0 59.1, 31.0 60.6 Q 31.0 62.1, 29.8 63.5 Q 28.7 64.9, 26.4 66.6 L 31.2 66.6 L 31.2 67.8 L 24.2 67.8 L 24.2 66.8 Q 26.1 65.4, 27.3 64.4 Q 28.4 63.4, 29.0 62.5 Q 29.5 61.6, 29.5 60.6 Q 29.5 59.6, 29.0 59.1 Q 28.5 58.5, 27.7 58.5 Q 26.9 58.5, 26.3 58.9 Q 25.8 59.2, 25.4 60.0 L 24.3 59.4 " fill="#0000FF"/>
<path class="atom-0" d="M 35.6 44.4 L 40.8 52.7 Q 41.3 53.5, 42.1 54.9 Q 42.9 56.4, 42.9 56.5 L 42.9 44.4 L 45.0 44.4 L 45.0 60.0 L 42.9 60.0 L 37.4 51.0 Q 36.7 49.9, 36.1 48.7 Q 35.4 47.5, 35.2 47.1 L 35.2 60.0 L 33.2 60.0 L 33.2 44.4 L 35.6 44.4 " fill="#0000FF"/>
<path class="atom-2" d="M 31.9 147.6 Q 31.9 143.9, 33.8 141.8 Q 35.6 139.7, 39.1 139.7 Q 42.6 139.7, 44.4 141.8 Q 46.3 143.9, 46.3 147.6 Q 46.3 151.4, 44.4 153.6 Q 42.5 155.7, 39.1 155.7 Q 35.7 155.7, 33.8 153.6 Q 31.9 151.4, 31.9 147.6 M 39.1 153.9 Q 41.5 153.9, 42.8 152.3 Q 44.0 150.7, 44.0 147.6 Q 44.0 144.5, 42.8 143.0 Q 41.5 141.4, 39.1 141.4 Q 36.7 141.4, 35.4 143.0 Q 34.1 144.5, 34.1 147.6 Q 34.1 150.8, 35.4 152.3 Q 36.7 153.9, 39.1 153.9 " fill="#FF0000"/>
<path class="atom-4" d="M 142.1 147.6 Q 142.1 143.9, 143.9 141.8 Q 145.8 139.7, 149.2 139.7 Q 152.7 139.7, 154.5 141.8 Q 156.4 143.9, 156.4 147.6 Q 156.4 151.4, 154.5 153.6 Q 152.6 155.7, 149.2 155.7 Q 145.8 155.7, 143.9 153.6 Q 142.1 151.4, 142.1 147.6 M 149.2 153.9 Q 151.6 153.9, 152.9 152.3 Q 154.2 150.7, 154.2 147.6 Q 154.2 144.5, 152.9 143.0 Q 151.6 141.4, 149.2 141.4 Q 146.8 141.4, 145.5 143.0 Q 144.3 144.5, 144.3 147.6 Q 144.3 150.8, 145.5 152.3 Q 146.8 153.9, 149.2 153.9 " fill="#FF0000"/>
<path class="atom-4" d="M 158.8 139.9 L 160.9 139.9 L 160.9 146.5 L 168.9 146.5 L 168.9 139.9 L 171.0 139.9 L 171.0 155.4 L 168.9 155.4 L 168.9 148.2 L 160.9 148.2 L 160.9 155.4 L 158.8 155.4 L 158.8 139.9 " fill="#FF0000"/>
<path class="atom-5" d="M 142.1 52.2 Q 142.1 48.5, 143.9 46.4 Q 145.8 44.3, 149.2 44.3 Q 152.7 44.3, 154.5 46.4 Q 156.4 48.5, 156.4 52.2 Q 156.4 56.0, 154.5 58.2 Q 152.6 60.3, 149.2 60.3 Q 145.8 60.3, 143.9 58.2 Q 142.1 56.0, 142.1 52.2 M 149.2 58.6 Q 151.6 58.6, 152.9 57.0 Q 154.2 55.4, 154.2 52.2 Q 154.2 49.2, 152.9 47.6 Q 151.6 46.1, 149.2 46.1 Q 146.8 46.1, 145.5 47.6 Q 144.3 49.2, 144.3 52.2 Q 144.3 55.4, 145.5 57.0 Q 146.8 58.6, 149.2 58.6 " fill="#FF0000"/>
<path class="atom-5" d="M 158.8 44.5 L 160.9 44.5 L 160.9 51.1 L 168.9 51.1 L 168.9 44.5 L 171.0 44.5 L 171.0 60.1 L 168.9 60.1 L 168.9 52.9 L 160.9 52.9 L 160.9 60.1 L 158.8 60.1 L 158.8 44.5 " fill="#FF0000"/>
</svg>
