<?xml version='1.0' encoding='ASCII' standalone='yes'?>
<svg xmlns="http://www.w3.org/2000/svg" xmlns:rdkit="http://www.rdkit.org/xml" xmlns:xlink="http://www.w3.org/1999/xlink" version="1.1" baseProfile="full" xml:space="preserve" width="301px" height="200px" viewBox="0 0 301 200">
<!-- END OF HEADER -->
<rect style="opacity:1.0;fill:#FFFFFF;stroke:none" width="301.0" height="200.0" x="0.0" y="0.0"> </rect>
<path class="bond-0 atom-0 atom-1" d="M 90.8,33.9 L 110.7,68.2" style="fill:none;fill-rule:evenodd;stroke:#000000;stroke-width:2.0px;stroke-linecap:butt;stroke-linejoin:miter;stroke-opacity:1"/>
<path class="bond-1 atom-1 atom-2" d="M 110.7,68.2 L 90.8,102.6" style="fill:none;fill-rule:evenodd;stroke:#000000;stroke-width:2.0px;stroke-linecap:butt;stroke-linejoin:miter;stroke-opacity:1"/>
<path class="bond-2 atom-2 atom-3" d="M 90.8,102.6 L 56.5,82.7" style="fill:none;fill-rule:evenodd;stroke:#000000;stroke-width:2.0px;stroke-linecap:butt;stroke-linejoin:miter;stroke-opacity:1"/>
<path class="bond-3 atom-2 atom-4" d="M 90.8,102.6 L 125.2,122.4" style="fill:none;fill-rule:evenodd;stroke:#000000;stroke-width:2.0px;stroke-linecap:butt;stroke-linejoin:miter;stroke-opacity:1"/>
<path class="bond-4 atom-2 atom-5" d="M 90.8,102.6 L 71.0,136.9" style="fill:none;fill-rule:evenodd;stroke:#000000;stroke-width:2.0px;stroke-linecap:butt;stroke-linejoin:miter;stroke-opacity:1"/>
<path class="bond-5 atom-5 atom-6" d="M 67.5,136.9 L 75.9,151.4" style="fill:none;fill-rule:evenodd;stroke:#000000;stroke-width:2.0px;stroke-linecap:butt;stroke-linejoin:miter;stroke-opacity:1"/>
<path class="bond-5 atom-5 atom-6" d="M 75.9,151.4 L 84.2,165.8" style="fill:none;fill-rule:evenodd;stroke:#FF0000;stroke-width:2.0px;stroke-linecap:butt;stroke-linejoin:miter;stroke-opacity:1"/>
<path class="bond-5 atom-5 atom-6" d="M 72.7,134.0 L 81.0,148.4" style="fill:none;fill-rule:evenodd;stroke:#000000;stroke-width:2.0px;stroke-linecap:butt;stroke-linejoin:miter;stroke-opacity:1"/>
<path class="bond-5 atom-5 atom-6" d="M 81.0,148.4 L 89.4,162.8" style="fill:none;fill-rule:evenodd;stroke:#FF0000;stroke-width:2.0px;stroke-linecap:butt;stroke-linejoin:miter;stroke-opacity:1"/>
<path class="bond-6 atom-5 atom-7" d="M 71.0,136.9 L 54.4,136.9" style="fill:none;fill-rule:evenodd;stroke:#000000;stroke-width:2.0px;stroke-linecap:butt;stroke-linejoin:miter;stroke-opacity:1"/>
<path class="bond-6 atom-5 atom-7" d="M 54.4,136.9 L 37.8,136.9" style="fill:none;fill-rule:evenodd;stroke:#FF0000;stroke-width:2.0px;stroke-linecap:butt;stroke-linejoin:miter;stroke-opacity:1"/>
<path class="bond-7 atom-1 atom-8" d="M 110.7,68.2 L 150.3,68.2" style="fill:none;fill-rule:evenodd;stroke:#000000;stroke-width:2.0px;stroke-linecap:butt;stroke-linejoin:miter;stroke-opacity:1"/>
<path class="bond-8 atom-8 atom-9" d="M 150.3,68.2 L 150.3,52.0" style="fill:none;fill-rule:evenodd;stroke:#000000;stroke-width:2.0px;stroke-linecap:butt;stroke-linejoin:miter;stroke-opacity:1"/>
<path class="bond-8 atom-8 atom-9" d="M 150.3,52.0 L 150.3,35.7" style="fill:none;fill-rule:evenodd;stroke:#FF0000;stroke-width:2.0px;stroke-linecap:butt;stroke-linejoin:miter;stroke-opacity:1"/>
<path class="bond-9 atom-8 atom-10" d="M 150.3,68.2 L 190.0,68.2" style="fill:none;fill-rule:evenodd;stroke:#000000;stroke-width:2.0px;stroke-linecap:butt;stroke-linejoin:miter;stroke-opacity:1"/>
<path class="bond-10 atom-10 atom-11" d="M 190.0,68.2 L 209.8,33.9" style="fill:none;fill-rule:evenodd;stroke:#000000;stroke-width:2.0px;stroke-linecap:butt;stroke-linejoin:miter;stroke-opacity:1"/>
<path class="bond-11 atom-10 atom-12" d="M 190.0,68.2 L 209.8,102.6" style="fill:none;fill-rule:evenodd;stroke:#000000;stroke-width:2.0px;stroke-linecap:butt;stroke-linejoin:miter;stroke-opacity:1"/>
<path class="bond-12 atom-12 atom-13" d="M 209.8,102.6 L 175.5,122.4" style="fill:none;fill-rule:evenodd;stroke:#000000;stroke-width:2.0px;stroke-linecap:butt;stroke-linejoin:miter;stroke-opacity:1"/>
<path class="bond-13 atom-12 atom-14" d="M 209.8,102.6 L 244.2,82.7" style="fill:none;fill-rule:evenodd;stroke:#000000;stroke-width:2.0px;stroke-linecap:butt;stroke-linejoin:miter;stroke-opacity:1"/>
<path class="bond-14 atom-12 atom-15" d="M 209.8,102.6 L 229.7,136.9" style="fill:none;fill-rule:evenodd;stroke:#000000;stroke-width:2.0px;stroke-linecap:butt;stroke-linejoin:miter;stroke-opacity:1"/>
<path class="bond-15 atom-15 atom-16" d="M 228.0,134.0 L 219.6,148.4" style="fill:none;fill-rule:evenodd;stroke:#000000;stroke-width:2.0px;stroke-linecap:butt;stroke-linejoin:miter;stroke-opacity:1"/>
<path class="bond-15 atom-15 atom-16" d="M 219.6,148.4 L 211.3,162.8" style="fill:none;fill-rule:evenodd;stroke:#FF0000;stroke-width:2.0px;stroke-linecap:butt;stroke-linejoin:miter;stroke-opacity:1"/>
<path class="bond-15 atom-15 atom-16" d="M 233.1,136.9 L 224.8,151.4" style="fill:none;fill-rule:evenodd;stroke:#000000;stroke-width:2.0px;stroke-linecap:butt;stroke-linejoin:miter;stroke-opacity:1"/>
<path class="bond-15 atom-15 atom-16" d="M 224.8,151.4 L 216.5,165.8" style="fill:none;fill-rule:evenodd;stroke:#FF0000;stroke-width:2.0px;stroke-linecap:butt;stroke-linejoin:miter;stroke-opacity:1"/>
<path class="bond-16 atom-15 atom-17" d="M 229.7,136.9 L 246.3,136.9" style="fill:none;fill-rule:evenodd;stroke:#000000;stroke-width:2.0px;stroke-linecap:butt;stroke-linejoin:miter;stroke-opacity:1"/>
<path class="bond-16 atom-15 atom-17" d="M 246.3,136.9 L 262.9,136.9" style="fill:none;fill-rule:evenodd;stroke:#FF0000;stroke-width:2.0px;stroke-linecap:butt;stroke-linejoin:miter;stroke-opacity:1"/>
<path class="bond-17 atom-8 atom-18" d="M 150.3,68.2 L 150.3,107.9" style="fill:none;fill-rule:evenodd;stroke:#000000;stroke-width:2.0px;stroke-linecap:butt;stroke-linejoin:miter;stroke-opacity:1"/>
<path class="bond-18 atom-18 atom-19" d="M 150.3,107.9 L 110.7,107.9" style="fill:none;fill-rule:evenodd;stroke:#000000;stroke-width:2.0px;stroke-linecap:butt;stroke-linejoin:miter;stroke-opacity:1"/>
<path class="bond-19 atom-18 atom-20" d="M 150.3,107.9 L 190.0,107.9" style="fill:none;fill-rule:evenodd;stroke:#000000;stroke-width:2.0px;stroke-linecap:butt;stroke-linejoin:miter;stroke-opacity:1"/>
<path class="bond-20 atom-18 atom-21" d="M 150.3,107.9 L 150.3,147.6" style="fill:none;fill-rule:evenodd;stroke:#000000;stroke-width:2.0px;stroke-linecap:butt;stroke-linejoin:miter;stroke-opacity:1"/>
<path class="bond-21 atom-21 atom-22" d="M 150.3,144.1 L 135.6,152.6" style="fill:none;fill-rule:evenodd;stroke:#000000;stroke-width:2.0px;stroke-linecap:butt;stroke-linejoin:miter;stroke-opacity:1"/>
<path class="bond-21 atom-21 atom-22" d="M 135.6,152.6 L 120.9,161.1" style="fill:none;fill-rule:evenodd;stroke:#FF0000;stroke-width:2.0px;stroke-linecap:butt;stroke-linejoin:miter;stroke-opacity:1"/>
<path class="bond-21 atom-21 atom-22" d="M 153.3,149.3 L 138.6,157.8" style="fill:none;fill-rule:evenodd;stroke:#000000;stroke-width:2.0px;stroke-linecap:butt;stroke-linejoin:miter;stroke-opacity:1"/>
<path class="bond-21 atom-21 atom-22" d="M 138.6,157.8 L 123.9,166.2" style="fill:none;fill-rule:evenodd;stroke:#FF0000;stroke-width:2.0px;stroke-linecap:butt;stroke-linejoin:miter;stroke-opacity:1"/>
<path class="bond-22 atom-21 atom-23" d="M 150.3,147.6 L 164.3,155.6" style="fill:none;fill-rule:evenodd;stroke:#000000;stroke-width:2.0px;stroke-linecap:butt;stroke-linejoin:miter;stroke-opacity:1"/>
<path class="bond-22 atom-21 atom-23" d="M 164.3,155.6 L 178.2,163.7" style="fill:none;fill-rule:evenodd;stroke:#FF0000;stroke-width:2.0px;stroke-linecap:butt;stroke-linejoin:miter;stroke-opacity:1"/>
<path d="M 72.0,135.2 L 71.0,136.9 L 70.1,136.9" style="fill:none;stroke:#000000;stroke-width:2.0px;stroke-linecap:butt;stroke-linejoin:miter;stroke-opacity:1;"/>
<path d="M 228.7,135.2 L 229.7,136.9 L 230.5,136.9" style="fill:none;stroke:#000000;stroke-width:2.0px;stroke-linecap:butt;stroke-linejoin:miter;stroke-opacity:1;"/>
<path d="M 150.3,145.6 L 150.3,147.6 L 151.0,148.0" style="fill:none;stroke:#000000;stroke-width:2.0px;stroke-linecap:butt;stroke-linejoin:miter;stroke-opacity:1;"/>
<path class="atom-6" d="M 85.7 171.3 Q 85.7 168.6, 87.0 167.1 Q 88.3 165.6, 90.8 165.6 Q 93.3 165.6, 94.6 167.1 Q 96.0 168.6, 96.0 171.3 Q 96.0 174.1, 94.6 175.6 Q 93.3 177.1, 90.8 177.1 Q 88.3 177.1, 87.0 175.6 Q 85.7 174.1, 85.7 171.3 M 90.8 175.9 Q 92.5 175.9, 93.5 174.7 Q 94.4 173.6, 94.4 171.3 Q 94.4 169.1, 93.5 168.0 Q 92.5 166.9, 90.8 166.9 Q 89.1 166.9, 88.2 168.0 Q 87.2 169.1, 87.2 171.3 Q 87.2 173.6, 88.2 174.7 Q 89.1 175.9, 90.8 175.9 " fill="#FF0000"/>
<path class="atom-7" d="M 15.0 131.4 L 16.6 131.4 L 16.6 136.2 L 22.3 136.2 L 22.3 131.4 L 23.8 131.4 L 23.8 142.6 L 22.3 142.6 L 22.3 137.4 L 16.6 137.4 L 16.6 142.6 L 15.0 142.6 L 15.0 131.4 " fill="#FF0000"/>
<path class="atom-7" d="M 26.1 137.0 Q 26.1 134.3, 27.5 132.8 Q 28.8 131.2, 31.3 131.2 Q 33.8 131.2, 35.1 132.8 Q 36.5 134.3, 36.5 137.0 Q 36.5 139.7, 35.1 141.2 Q 33.8 142.8, 31.3 142.8 Q 28.8 142.8, 27.5 141.2 Q 26.1 139.7, 26.1 137.0 M 31.3 141.5 Q 33.0 141.5, 33.9 140.4 Q 34.9 139.2, 34.9 137.0 Q 34.9 134.8, 33.9 133.6 Q 33.0 132.5, 31.3 132.5 Q 29.6 132.5, 28.7 133.6 Q 27.7 134.7, 27.7 137.0 Q 27.7 139.2, 28.7 140.4 Q 29.6 141.5, 31.3 141.5 " fill="#FF0000"/>
<path class="atom-9" d="M 145.2 28.6 Q 145.2 25.9, 146.5 24.4 Q 147.8 22.9, 150.3 22.9 Q 152.8 22.9, 154.2 24.4 Q 155.5 25.9, 155.5 28.6 Q 155.5 31.3, 154.1 32.9 Q 152.8 34.4, 150.3 34.4 Q 147.9 34.4, 146.5 32.9 Q 145.2 31.3, 145.2 28.6 M 150.3 33.1 Q 152.0 33.1, 153.0 32.0 Q 153.9 30.8, 153.9 28.6 Q 153.9 26.4, 153.0 25.3 Q 152.0 24.1, 150.3 24.1 Q 148.6 24.1, 147.7 25.2 Q 146.8 26.3, 146.8 28.6 Q 146.8 30.8, 147.7 32.0 Q 148.6 33.1, 150.3 33.1 " fill="#FF0000"/>
<path class="atom-9" d="M 157.2 23.0 L 158.8 23.0 L 158.8 27.8 L 164.5 27.8 L 164.5 23.0 L 166.0 23.0 L 166.0 34.2 L 164.5 34.2 L 164.5 29.0 L 158.8 29.0 L 158.8 34.2 L 157.2 34.2 L 157.2 23.0 " fill="#FF0000"/>
<path class="atom-16" d="M 204.7 171.3 Q 204.7 168.6, 206.0 167.1 Q 207.3 165.6, 209.8 165.6 Q 212.3 165.6, 213.7 167.1 Q 215.0 168.6, 215.0 171.3 Q 215.0 174.1, 213.6 175.6 Q 212.3 177.1, 209.8 177.1 Q 207.4 177.1, 206.0 175.6 Q 204.7 174.1, 204.7 171.3 M 209.8 175.9 Q 211.6 175.9, 212.5 174.7 Q 213.4 173.6, 213.4 171.3 Q 213.4 169.1, 212.5 168.0 Q 211.6 166.9, 209.8 166.9 Q 208.1 166.9, 207.2 168.0 Q 206.3 169.1, 206.3 171.3 Q 206.3 173.6, 207.2 174.7 Q 208.1 175.9, 209.8 175.9 " fill="#FF0000"/>
<path class="atom-17" d="M 264.2 137.0 Q 264.2 134.3, 265.5 132.8 Q 266.9 131.2, 269.4 131.2 Q 271.8 131.2, 273.2 132.8 Q 274.5 134.3, 274.5 137.0 Q 274.5 139.7, 273.2 141.2 Q 271.8 142.8, 269.4 142.8 Q 266.9 142.8, 265.5 141.2 Q 264.2 139.7, 264.2 137.0 M 269.4 141.5 Q 271.1 141.5, 272.0 140.4 Q 272.9 139.2, 272.9 137.0 Q 272.9 134.8, 272.0 133.6 Q 271.1 132.5, 269.4 132.5 Q 267.6 132.5, 266.7 133.6 Q 265.8 134.7, 265.8 137.0 Q 265.8 139.2, 266.7 140.4 Q 267.6 141.5, 269.4 141.5 " fill="#FF0000"/>
<path class="atom-17" d="M 276.3 131.4 L 277.8 131.4 L 277.8 136.2 L 283.5 136.2 L 283.5 131.4 L 285.1 131.4 L 285.1 142.6 L 283.5 142.6 L 283.5 137.4 L 277.8 137.4 L 277.8 142.6 L 276.3 142.6 L 276.3 131.4 " fill="#FF0000"/>
<path class="atom-22" d="M 110.8 167.4 Q 110.8 164.7, 112.1 163.2 Q 113.5 161.7, 116.0 161.7 Q 118.5 161.7, 119.8 163.2 Q 121.1 164.7, 121.1 167.4 Q 121.1 170.2, 119.8 171.7 Q 118.4 173.3, 116.0 173.3 Q 113.5 173.3, 112.1 171.7 Q 110.8 170.2, 110.8 167.4 M 116.0 172.0 Q 117.7 172.0, 118.6 170.8 Q 119.5 169.7, 119.5 167.4 Q 119.5 165.2, 118.6 164.1 Q 117.7 163.0, 116.0 163.0 Q 114.3 163.0, 113.3 164.1 Q 112.4 165.2, 112.4 167.4 Q 112.4 169.7, 113.3 170.8 Q 114.3 172.0, 116.0 172.0 " fill="#FF0000"/>
<path class="atom-23" d="M 179.5 167.4 Q 179.5 164.7, 180.9 163.2 Q 182.2 161.7, 184.7 161.7 Q 187.2 161.7, 188.5 163.2 Q 189.8 164.7, 189.8 167.4 Q 189.8 170.2, 188.5 171.7 Q 187.1 173.3, 184.7 173.3 Q 182.2 173.3, 180.9 171.7 Q 179.5 170.2, 179.5 167.4 M 184.7 172.0 Q 186.4 172.0, 187.3 170.8 Q 188.3 169.7, 188.3 167.4 Q 188.3 165.2, 187.3 164.1 Q 186.4 163.0, 184.7 163.0 Q 183.0 163.0, 182.0 164.1 Q 181.1 165.2, 181.1 167.4 Q 181.1 169.7, 182.0 170.8 Q 183.0 172.0, 184.7 172.0 " fill="#FF0000"/>
<path class="atom-23" d="M 191.6 161.8 L 193.1 161.8 L 193.1 166.6 L 198.9 166.6 L 198.9 161.8 L 200.4 161.8 L 200.4 173.1 L 198.9 173.1 L 198.9 167.9 L 193.1 167.9 L 193.1 173.1 L 191.6 173.1 L 191.6 161.8 " fill="#FF0000"/>
</svg>
