<?xml version='1.0' encoding='ASCII' standalone='yes'?>
<svg xmlns="http://www.w3.org/2000/svg" xmlns:rdkit="http://www.rdkit.org/xml" xmlns:xlink="http://www.w3.org/1999/xlink" version="1.1" baseProfile="full" xml:space="preserve" width="265px" height="200px" viewBox="0 0 265 200">
<!-- END OF HEADER -->
<rect style="opacity:1.0;fill:#FFFFFF;stroke:none" width="265.0" height="200.0" x="0.0" y="0.0"> </rect>
<path class="bond-0 atom-0 atom-1" d="M 52.1,61.1 L 83.8,86.3" style="fill:none;fill-rule:evenodd;stroke:#000000;stroke-width:2.0px;stroke-linecap:butt;stroke-linejoin:miter;stroke-opacity:1"/>
<path class="bond-1 atom-1 atom-2" d="M 83.8,86.3 L 93.6,73.9" style="fill:none;fill-rule:evenodd;stroke:#000000;stroke-width:2.0px;stroke-linecap:butt;stroke-linejoin:miter;stroke-opacity:1"/>
<path class="bond-1 atom-1 atom-2" d="M 93.6,73.9 L 103.4,61.6" style="fill:none;fill-rule:evenodd;stroke:#0000FF;stroke-width:2.0px;stroke-linecap:butt;stroke-linejoin:miter;stroke-opacity:1"/>
<path class="bond-2 atom-1 atom-3" d="M 83.8,86.3 L 115.6,111.5" style="fill:none;fill-rule:evenodd;stroke:#000000;stroke-width:2.0px;stroke-linecap:butt;stroke-linejoin:miter;stroke-opacity:1"/>
<path class="bond-3 atom-3 atom-4" d="M 115.6,111.5 L 153.3,96.6" style="fill:none;fill-rule:evenodd;stroke:#000000;stroke-width:2.0px;stroke-linecap:butt;stroke-linejoin:miter;stroke-opacity:1"/>
<path class="bond-4 atom-4 atom-5" d="M 153.3,96.6 L 138.4,58.9" style="fill:none;fill-rule:evenodd;stroke:#000000;stroke-width:2.0px;stroke-linecap:butt;stroke-linejoin:miter;stroke-opacity:1"/>
<path class="bond-5 atom-4 atom-6" d="M 153.3,96.6 L 163.5,135.9" style="fill:none;fill-rule:evenodd;stroke:#000000;stroke-width:2.0px;stroke-linecap:butt;stroke-linejoin:miter;stroke-opacity:1"/>
<path class="bond-6 atom-4 atom-7" d="M 153.3,96.6 L 191.0,81.7" style="fill:none;fill-rule:evenodd;stroke:#000000;stroke-width:2.0px;stroke-linecap:butt;stroke-linejoin:miter;stroke-opacity:1"/>
<path class="bond-7 atom-7 atom-8" d="M 191.0,81.7 L 228.7,66.9" style="fill:none;fill-rule:evenodd;stroke:#000000;stroke-width:2.0px;stroke-linecap:butt;stroke-linejoin:miter;stroke-opacity:1"/>
<path class="bond-8 atom-7 atom-9" d="M 191.0,81.7 L 185.0,66.4" style="fill:none;fill-rule:evenodd;stroke:#000000;stroke-width:2.0px;stroke-linecap:butt;stroke-linejoin:miter;stroke-opacity:1"/>
<path class="bond-8 atom-7 atom-9" d="M 185.0,66.4 L 178.9,51.1" style="fill:none;fill-rule:evenodd;stroke:#0000FF;stroke-width:2.0px;stroke-linecap:butt;stroke-linejoin:miter;stroke-opacity:1"/>
<path class="bond-9 atom-7 atom-10" d="M 191.0,81.7 L 205.9,119.5" style="fill:none;fill-rule:evenodd;stroke:#000000;stroke-width:2.0px;stroke-linecap:butt;stroke-linejoin:miter;stroke-opacity:1"/>
<path class="bond-10 atom-10 atom-11" d="M 204.2,122.3 L 221.5,124.9" style="fill:none;fill-rule:evenodd;stroke:#000000;stroke-width:2.0px;stroke-linecap:butt;stroke-linejoin:miter;stroke-opacity:1"/>
<path class="bond-10 atom-10 atom-11" d="M 221.5,124.9 L 238.9,127.4" style="fill:none;fill-rule:evenodd;stroke:#FF0000;stroke-width:2.0px;stroke-linecap:butt;stroke-linejoin:miter;stroke-opacity:1"/>
<path class="bond-10 atom-10 atom-11" d="M 204.6,116.2 L 222.4,118.8" style="fill:none;fill-rule:evenodd;stroke:#000000;stroke-width:2.0px;stroke-linecap:butt;stroke-linejoin:miter;stroke-opacity:1"/>
<path class="bond-10 atom-10 atom-11" d="M 222.4,118.8 L 239.8,121.4" style="fill:none;fill-rule:evenodd;stroke:#FF0000;stroke-width:2.0px;stroke-linecap:butt;stroke-linejoin:miter;stroke-opacity:1"/>
<path class="bond-11 atom-10 atom-12" d="M 205.9,119.5 L 197.5,133.2" style="fill:none;fill-rule:evenodd;stroke:#000000;stroke-width:2.0px;stroke-linecap:butt;stroke-linejoin:miter;stroke-opacity:1"/>
<path class="bond-11 atom-10 atom-12" d="M 197.5,133.2 L 189.1,146.9" style="fill:none;fill-rule:evenodd;stroke:#FF0000;stroke-width:2.0px;stroke-linecap:butt;stroke-linejoin:miter;stroke-opacity:1"/>
<path class="bond-12 atom-1 atom-13" d="M 83.8,86.3 L 58.6,118.0" style="fill:none;fill-rule:evenodd;stroke:#000000;stroke-width:2.0px;stroke-linecap:butt;stroke-linejoin:miter;stroke-opacity:1"/>
<path class="bond-13 atom-13 atom-14" d="M 60.8,115.3 L 43.2,112.6" style="fill:none;fill-rule:evenodd;stroke:#000000;stroke-width:2.0px;stroke-linecap:butt;stroke-linejoin:miter;stroke-opacity:1"/>
<path class="bond-13 atom-13 atom-14" d="M 43.2,112.6 L 25.6,110.0" style="fill:none;fill-rule:evenodd;stroke:#FF0000;stroke-width:2.0px;stroke-linecap:butt;stroke-linejoin:miter;stroke-opacity:1"/>
<path class="bond-13 atom-13 atom-14" d="M 59.9,121.3 L 42.3,118.7" style="fill:none;fill-rule:evenodd;stroke:#000000;stroke-width:2.0px;stroke-linecap:butt;stroke-linejoin:miter;stroke-opacity:1"/>
<path class="bond-13 atom-13 atom-14" d="M 42.3,118.7 L 24.7,116.0" style="fill:none;fill-rule:evenodd;stroke:#FF0000;stroke-width:2.0px;stroke-linecap:butt;stroke-linejoin:miter;stroke-opacity:1"/>
<path class="bond-14 atom-13 atom-15" d="M 58.6,118.0 L 64.6,133.3" style="fill:none;fill-rule:evenodd;stroke:#000000;stroke-width:2.0px;stroke-linecap:butt;stroke-linejoin:miter;stroke-opacity:1"/>
<path class="bond-14 atom-13 atom-15" d="M 64.6,133.3 L 70.7,148.6" style="fill:none;fill-rule:evenodd;stroke:#FF0000;stroke-width:2.0px;stroke-linecap:butt;stroke-linejoin:miter;stroke-opacity:1"/>
<path d="M 114.0,110.2 L 115.6,111.5 L 117.5,110.8" style="fill:none;stroke:#000000;stroke-width:2.0px;stroke-linecap:butt;stroke-linejoin:miter;stroke-opacity:1;"/>
<path d="M 205.1,117.6 L 205.9,119.5 L 205.5,120.1" style="fill:none;stroke:#000000;stroke-width:2.0px;stroke-linecap:butt;stroke-linejoin:miter;stroke-opacity:1;"/>
<path d="M 59.9,116.4 L 58.6,118.0 L 58.9,118.8" style="fill:none;stroke:#000000;stroke-width:2.0px;stroke-linecap:butt;stroke-linejoin:miter;stroke-opacity:1;"/>
<path class="atom-2" d="M 106.5 48.8 L 110.3 54.9 Q 110.7 55.5, 111.3 56.6 Q 111.9 57.6, 111.9 57.7 L 111.9 48.8 L 113.4 48.8 L 113.4 60.3 L 111.8 60.3 L 107.8 53.6 Q 107.3 52.8, 106.8 52.0 Q 106.3 51.1, 106.2 50.8 L 106.2 60.3 L 104.7 60.3 L 104.7 48.8 L 106.5 48.8 " fill="#0000FF"/>
<path class="atom-2" d="M 115.6 48.8 L 117.2 48.8 L 117.2 53.7 L 123.0 53.7 L 123.0 48.8 L 124.6 48.8 L 124.6 60.3 L 123.0 60.3 L 123.0 55.0 L 117.2 55.0 L 117.2 60.3 L 115.6 60.3 L 115.6 48.8 " fill="#0000FF"/>
<path class="atom-2" d="M 126.8 59.9 Q 127.1 59.2, 127.8 58.8 Q 128.4 58.4, 129.4 58.4 Q 130.5 58.4, 131.2 59.0 Q 131.8 59.6, 131.8 60.7 Q 131.8 61.8, 131.0 62.9 Q 130.1 63.9, 128.4 65.2 L 131.9 65.2 L 131.9 66.0 L 126.8 66.0 L 126.8 65.3 Q 128.2 64.3, 129.1 63.5 Q 129.9 62.8, 130.3 62.1 Q 130.7 61.4, 130.7 60.8 Q 130.7 60.0, 130.4 59.6 Q 130.0 59.2, 129.4 59.2 Q 128.8 59.2, 128.3 59.5 Q 127.9 59.7, 127.7 60.2 L 126.8 59.9 " fill="#0000FF"/>
<path class="atom-9" d="M 154.0 38.3 L 155.5 38.3 L 155.5 43.2 L 161.4 43.2 L 161.4 38.3 L 163.0 38.3 L 163.0 49.8 L 161.4 49.8 L 161.4 44.5 L 155.5 44.5 L 155.5 49.8 L 154.0 49.8 L 154.0 38.3 " fill="#0000FF"/>
<path class="atom-9" d="M 165.2 49.4 Q 165.5 48.7, 166.1 48.3 Q 166.8 47.8, 167.7 47.8 Q 168.9 47.8, 169.5 48.5 Q 170.2 49.1, 170.2 50.2 Q 170.2 51.3, 169.3 52.4 Q 168.5 53.4, 166.8 54.7 L 170.3 54.7 L 170.3 55.5 L 165.2 55.5 L 165.2 54.8 Q 166.6 53.8, 167.4 53.0 Q 168.3 52.3, 168.7 51.6 Q 169.1 50.9, 169.1 50.2 Q 169.1 49.5, 168.7 49.1 Q 168.4 48.7, 167.7 48.7 Q 167.1 48.7, 166.7 48.9 Q 166.3 49.2, 166.0 49.7 L 165.2 49.4 " fill="#0000FF"/>
<path class="atom-9" d="M 173.6 38.3 L 177.4 44.4 Q 177.7 45.0, 178.3 46.1 Q 178.9 47.1, 179.0 47.2 L 179.0 38.3 L 180.5 38.3 L 180.5 49.8 L 178.9 49.8 L 174.9 43.1 Q 174.4 42.3, 173.9 41.5 Q 173.4 40.6, 173.3 40.3 L 173.3 49.8 L 171.8 49.8 L 171.8 38.3 L 173.6 38.3 " fill="#0000FF"/>
<path class="atom-11" d="M 240.7 125.5 Q 240.7 122.7, 242.1 121.2 Q 243.4 119.6, 246.0 119.6 Q 248.5 119.6, 249.9 121.2 Q 251.2 122.7, 251.2 125.5 Q 251.2 128.2, 249.9 129.8 Q 248.5 131.4, 246.0 131.4 Q 243.4 131.4, 242.1 129.8 Q 240.7 128.3, 240.7 125.5 M 246.0 130.1 Q 247.7 130.1, 248.7 128.9 Q 249.6 127.8, 249.6 125.5 Q 249.6 123.2, 248.7 122.1 Q 247.7 120.9, 246.0 120.9 Q 244.2 120.9, 243.3 122.1 Q 242.3 123.2, 242.3 125.5 Q 242.3 127.8, 243.3 128.9 Q 244.2 130.1, 246.0 130.1 " fill="#FF0000"/>
<path class="atom-12" d="M 168.1 148.4 L 169.7 148.4 L 169.7 153.2 L 175.5 153.2 L 175.5 148.4 L 177.1 148.4 L 177.1 159.8 L 175.5 159.8 L 175.5 154.5 L 169.7 154.5 L 169.7 159.8 L 168.1 159.8 L 168.1 148.4 " fill="#FF0000"/>
<path class="atom-12" d="M 179.4 154.1 Q 179.4 151.3, 180.8 149.8 Q 182.2 148.2, 184.7 148.2 Q 187.3 148.2, 188.6 149.8 Q 190.0 151.3, 190.0 154.1 Q 190.0 156.9, 188.6 158.4 Q 187.2 160.0, 184.7 160.0 Q 182.2 160.0, 180.8 158.4 Q 179.4 156.9, 179.4 154.1 M 184.7 158.7 Q 186.5 158.7, 187.4 157.6 Q 188.4 156.4, 188.4 154.1 Q 188.4 151.8, 187.4 150.7 Q 186.5 149.5, 184.7 149.5 Q 183.0 149.5, 182.0 150.7 Q 181.1 151.8, 181.1 154.1 Q 181.1 156.4, 182.0 157.6 Q 183.0 158.7, 184.7 158.7 " fill="#FF0000"/>
<path class="atom-14" d="M 13.3 112.1 Q 13.3 109.3, 14.6 107.8 Q 16.0 106.2, 18.5 106.2 Q 21.1 106.2, 22.4 107.8 Q 23.8 109.3, 23.8 112.1 Q 23.8 114.9, 22.4 116.5 Q 21.0 118.0, 18.5 118.0 Q 16.0 118.0, 14.6 116.5 Q 13.3 114.9, 13.3 112.1 M 18.5 116.7 Q 20.3 116.7, 21.2 115.6 Q 22.2 114.4, 22.2 112.1 Q 22.2 109.8, 21.2 108.7 Q 20.3 107.5, 18.5 107.5 Q 16.8 107.5, 15.8 108.7 Q 14.9 109.8, 14.9 112.1 Q 14.9 114.4, 15.8 115.6 Q 16.8 116.7, 18.5 116.7 " fill="#FF0000"/>
<path class="atom-15" d="M 68.2 155.8 Q 68.2 153.0, 69.6 151.5 Q 70.9 149.9, 73.5 149.9 Q 76.0 149.9, 77.4 151.5 Q 78.8 153.0, 78.8 155.8 Q 78.8 158.5, 77.4 160.1 Q 76.0 161.7, 73.5 161.7 Q 71.0 161.7, 69.6 160.1 Q 68.2 158.6, 68.2 155.8 M 73.5 160.4 Q 75.2 160.4, 76.2 159.2 Q 77.1 158.1, 77.1 155.8 Q 77.1 153.5, 76.2 152.4 Q 75.2 151.2, 73.5 151.2 Q 71.7 151.2, 70.8 152.4 Q 69.8 153.5, 69.8 155.8 Q 69.8 158.1, 70.8 159.2 Q 71.7 160.4, 73.5 160.4 " fill="#FF0000"/>
<path class="atom-15" d="M 80.6 150.1 L 82.1 150.1 L 82.1 154.9 L 88.0 154.9 L 88.0 150.1 L 89.5 150.1 L 89.5 161.5 L 88.0 161.5 L 88.0 156.2 L 82.1 156.2 L 82.1 161.5 L 80.6 161.5 L 80.6 150.1 " fill="#FF0000"/>
</svg>
