<?xml version='1.0' encoding='ASCII' standalone='yes'?>
<svg xmlns="http://www.w3.org/2000/svg" xmlns:rdkit="http://www.rdkit.org/xml" xmlns:xlink="http://www.w3.org/1999/xlink" version="1.1" baseProfile="full" xml:space="preserve" width="276px" height="200px" viewBox="0 0 276 200">
<!-- END OF HEADER -->
<rect style="opacity:1.0;fill:#FFFFFF;stroke:none" width="276.0" height="200.0" x="0.0" y="0.0"> </rect>
<path class="bond-0 atom-0 atom-1" d="M 13.8,83.7 L 39.5,99.9" style="fill:none;fill-rule:evenodd;stroke:#000000;stroke-width:2.0px;stroke-linecap:butt;stroke-linejoin:miter;stroke-opacity:1"/>
<path class="bond-1 atom-1 atom-2" d="M 39.5,99.9 L 23.3,125.6" style="fill:none;fill-rule:evenodd;stroke:#000000;stroke-width:2.0px;stroke-linecap:butt;stroke-linejoin:miter;stroke-opacity:1"/>
<path class="bond-2 atom-2 atom-3" d="M 23.3,125.6 L 29.0,136.4" style="fill:none;fill-rule:evenodd;stroke:#000000;stroke-width:2.0px;stroke-linecap:butt;stroke-linejoin:miter;stroke-opacity:1"/>
<path class="bond-2 atom-2 atom-3" d="M 29.0,136.4 L 34.6,147.2" style="fill:none;fill-rule:evenodd;stroke:#FF0000;stroke-width:2.0px;stroke-linecap:butt;stroke-linejoin:miter;stroke-opacity:1"/>
<path class="bond-3 atom-1 atom-4" d="M 39.5,99.9 L 65.2,116.1" style="fill:none;fill-rule:evenodd;stroke:#000000;stroke-width:2.0px;stroke-linecap:butt;stroke-linejoin:miter;stroke-opacity:1"/>
<path class="bond-4 atom-4 atom-5" d="M 65.2,116.1 L 92.1,102.0" style="fill:none;fill-rule:evenodd;stroke:#000000;stroke-width:2.0px;stroke-linecap:butt;stroke-linejoin:miter;stroke-opacity:1"/>
<path class="bond-5 atom-5 atom-6" d="M 92.1,102.0 L 117.8,118.2" style="fill:none;fill-rule:evenodd;stroke:#000000;stroke-width:2.0px;stroke-linecap:butt;stroke-linejoin:miter;stroke-opacity:1"/>
<path class="bond-6 atom-6 atom-7" d="M 117.8,118.2 L 144.6,104.0" style="fill:none;fill-rule:evenodd;stroke:#000000;stroke-width:2.0px;stroke-linecap:butt;stroke-linejoin:miter;stroke-opacity:1"/>
<path class="bond-7 atom-7 atom-8" d="M 144.6,104.0 L 170.3,120.2" style="fill:none;fill-rule:evenodd;stroke:#000000;stroke-width:2.0px;stroke-linecap:butt;stroke-linejoin:miter;stroke-opacity:1"/>
<path class="bond-8 atom-8 atom-9" d="M 170.3,120.2 L 197.2,106.1" style="fill:none;fill-rule:evenodd;stroke:#000000;stroke-width:2.0px;stroke-linecap:butt;stroke-linejoin:miter;stroke-opacity:1"/>
<path class="bond-9 atom-9 atom-10" d="M 197.2,106.1 L 183.1,79.2" style="fill:none;fill-rule:evenodd;stroke:#000000;stroke-width:2.0px;stroke-linecap:butt;stroke-linejoin:miter;stroke-opacity:1"/>
<path class="bond-10 atom-9 atom-11" d="M 197.2,106.1 L 211.4,132.9" style="fill:none;fill-rule:evenodd;stroke:#000000;stroke-width:2.0px;stroke-linecap:butt;stroke-linejoin:miter;stroke-opacity:1"/>
<path class="bond-11 atom-9 atom-12" d="M 197.2,106.1 L 224.1,91.9" style="fill:none;fill-rule:evenodd;stroke:#000000;stroke-width:2.0px;stroke-linecap:butt;stroke-linejoin:miter;stroke-opacity:1"/>
<path class="bond-12 atom-12 atom-13" d="M 224.1,91.9 L 224.6,79.5" style="fill:none;fill-rule:evenodd;stroke:#000000;stroke-width:2.0px;stroke-linecap:butt;stroke-linejoin:miter;stroke-opacity:1"/>
<path class="bond-12 atom-12 atom-13" d="M 224.6,79.5 L 225.0,67.0" style="fill:none;fill-rule:evenodd;stroke:#FF0000;stroke-width:2.0px;stroke-linecap:butt;stroke-linejoin:miter;stroke-opacity:1"/>
<path class="bond-13 atom-12 atom-14" d="M 224.1,91.9 L 234.5,98.4" style="fill:none;fill-rule:evenodd;stroke:#000000;stroke-width:2.0px;stroke-linecap:butt;stroke-linejoin:miter;stroke-opacity:1"/>
<path class="bond-13 atom-12 atom-14" d="M 234.5,98.4 L 244.8,105.0" style="fill:none;fill-rule:evenodd;stroke:#FF0000;stroke-width:2.0px;stroke-linecap:butt;stroke-linejoin:miter;stroke-opacity:1"/>
<path class="bond-14 atom-1 atom-15" d="M 39.5,99.9 L 55.7,74.2" style="fill:none;fill-rule:evenodd;stroke:#000000;stroke-width:2.0px;stroke-linecap:butt;stroke-linejoin:miter;stroke-opacity:1"/>
<path class="bond-15 atom-15 atom-16" d="M 58.3,74.3 L 52.4,63.1" style="fill:none;fill-rule:evenodd;stroke:#000000;stroke-width:2.0px;stroke-linecap:butt;stroke-linejoin:miter;stroke-opacity:1"/>
<path class="bond-15 atom-15 atom-16" d="M 52.4,63.1 L 46.4,51.8" style="fill:none;fill-rule:evenodd;stroke:#FF0000;stroke-width:2.0px;stroke-linecap:butt;stroke-linejoin:miter;stroke-opacity:1"/>
<path class="bond-15 atom-15 atom-16" d="M 54.3,76.5 L 48.4,65.2" style="fill:none;fill-rule:evenodd;stroke:#000000;stroke-width:2.0px;stroke-linecap:butt;stroke-linejoin:miter;stroke-opacity:1"/>
<path class="bond-15 atom-15 atom-16" d="M 48.4,65.2 L 42.4,53.9" style="fill:none;fill-rule:evenodd;stroke:#FF0000;stroke-width:2.0px;stroke-linecap:butt;stroke-linejoin:miter;stroke-opacity:1"/>
<path class="bond-16 atom-15 atom-17" d="M 55.7,74.2 L 68.4,74.7" style="fill:none;fill-rule:evenodd;stroke:#000000;stroke-width:2.0px;stroke-linecap:butt;stroke-linejoin:miter;stroke-opacity:1"/>
<path class="bond-16 atom-15 atom-17" d="M 68.4,74.7 L 81.1,75.2" style="fill:none;fill-rule:evenodd;stroke:#FF0000;stroke-width:2.0px;stroke-linecap:butt;stroke-linejoin:miter;stroke-opacity:1"/>
<path d="M 24.1,124.3 L 23.3,125.6 L 23.6,126.2" style="fill:none;stroke:#000000;stroke-width:2.0px;stroke-linecap:butt;stroke-linejoin:miter;stroke-opacity:1;"/>
<path d="M 63.9,115.3 L 65.2,116.1 L 66.5,115.4" style="fill:none;stroke:#000000;stroke-width:2.0px;stroke-linecap:butt;stroke-linejoin:miter;stroke-opacity:1;"/>
<path d="M 90.7,102.7 L 92.1,102.0 L 93.4,102.8" style="fill:none;stroke:#000000;stroke-width:2.0px;stroke-linecap:butt;stroke-linejoin:miter;stroke-opacity:1;"/>
<path d="M 116.5,117.4 L 117.8,118.2 L 119.1,117.5" style="fill:none;stroke:#000000;stroke-width:2.0px;stroke-linecap:butt;stroke-linejoin:miter;stroke-opacity:1;"/>
<path d="M 143.3,104.7 L 144.6,104.0 L 145.9,104.8" style="fill:none;stroke:#000000;stroke-width:2.0px;stroke-linecap:butt;stroke-linejoin:miter;stroke-opacity:1;"/>
<path d="M 169.1,119.4 L 170.3,120.2 L 171.7,119.5" style="fill:none;stroke:#000000;stroke-width:2.0px;stroke-linecap:butt;stroke-linejoin:miter;stroke-opacity:1;"/>
<path d="M 54.9,75.5 L 55.7,74.2 L 56.3,74.3" style="fill:none;stroke:#000000;stroke-width:2.0px;stroke-linecap:butt;stroke-linejoin:miter;stroke-opacity:1;"/>
<path class="atom-3" d="M 33.5 152.5 Q 33.5 150.5, 34.5 149.3 Q 35.6 148.2, 37.5 148.2 Q 39.4 148.2, 40.4 149.3 Q 41.4 150.5, 41.4 152.5 Q 41.4 154.6, 40.4 155.8 Q 39.3 157.0, 37.5 157.0 Q 35.6 157.0, 34.5 155.8 Q 33.5 154.6, 33.5 152.5 M 37.5 156.0 Q 38.8 156.0, 39.5 155.1 Q 40.2 154.3, 40.2 152.5 Q 40.2 150.8, 39.5 150.0 Q 38.8 149.1, 37.5 149.1 Q 36.1 149.1, 35.4 150.0 Q 34.7 150.8, 34.7 152.5 Q 34.7 154.3, 35.4 155.1 Q 36.1 156.0, 37.5 156.0 " fill="#FF0000"/>
<path class="atom-3" d="M 42.7 148.3 L 43.9 148.3 L 43.9 151.9 L 48.3 151.9 L 48.3 148.3 L 49.5 148.3 L 49.5 156.9 L 48.3 156.9 L 48.3 152.9 L 43.9 152.9 L 43.9 156.9 L 42.7 156.9 L 42.7 148.3 " fill="#FF0000"/>
<path class="atom-13" d="M 221.3 61.6 Q 221.3 59.5, 222.3 58.3 Q 223.4 57.2, 225.3 57.2 Q 227.2 57.2, 228.2 58.3 Q 229.2 59.5, 229.2 61.6 Q 229.2 63.7, 228.2 64.8 Q 227.1 66.0, 225.3 66.0 Q 223.4 66.0, 222.3 64.8 Q 221.3 63.7, 221.3 61.6 M 225.3 65.1 Q 226.6 65.1, 227.3 64.2 Q 228.0 63.3, 228.0 61.6 Q 228.0 59.9, 227.3 59.0 Q 226.6 58.2, 225.3 58.2 Q 223.9 58.2, 223.2 59.0 Q 222.5 59.9, 222.5 61.6 Q 222.5 63.3, 223.2 64.2 Q 223.9 65.1, 225.3 65.1 " fill="#FF0000"/>
<path class="atom-13" d="M 230.5 57.3 L 231.7 57.3 L 231.7 60.9 L 236.1 60.9 L 236.1 57.3 L 237.3 57.3 L 237.3 65.9 L 236.1 65.9 L 236.1 61.9 L 231.7 61.9 L 231.7 65.9 L 230.5 65.9 L 230.5 57.3 " fill="#FF0000"/>
<path class="atom-14" d="M 245.8 108.1 Q 245.8 106.0, 246.9 104.9 Q 247.9 103.7, 249.8 103.7 Q 251.7 103.7, 252.7 104.9 Q 253.7 106.0, 253.7 108.1 Q 253.7 110.2, 252.7 111.4 Q 251.7 112.6, 249.8 112.6 Q 247.9 112.6, 246.9 111.4 Q 245.8 110.2, 245.8 108.1 M 249.8 111.6 Q 251.1 111.6, 251.8 110.7 Q 252.5 109.8, 252.5 108.1 Q 252.5 106.4, 251.8 105.6 Q 251.1 104.7, 249.8 104.7 Q 248.5 104.7, 247.8 105.6 Q 247.0 106.4, 247.0 108.1 Q 247.0 109.9, 247.8 110.7 Q 248.5 111.6, 249.8 111.6 " fill="#FF0000"/>
<path class="atom-14" d="M 255.1 103.8 L 256.2 103.8 L 256.2 107.5 L 260.6 107.5 L 260.6 103.8 L 261.8 103.8 L 261.8 112.4 L 260.6 112.4 L 260.6 108.5 L 256.2 108.5 L 256.2 112.4 L 255.1 112.4 L 255.1 103.8 " fill="#FF0000"/>
<path class="atom-16" d="M 37.6 47.4 Q 37.6 45.3, 38.6 44.2 Q 39.6 43.0, 41.5 43.0 Q 43.4 43.0, 44.5 44.2 Q 45.5 45.3, 45.5 47.4 Q 45.5 49.5, 44.5 50.7 Q 43.4 51.8, 41.5 51.8 Q 39.6 51.8, 38.6 50.7 Q 37.6 49.5, 37.6 47.4 M 41.5 50.9 Q 42.8 50.9, 43.6 50.0 Q 44.3 49.1, 44.3 47.4 Q 44.3 45.7, 43.6 44.8 Q 42.8 44.0, 41.5 44.0 Q 40.2 44.0, 39.5 44.8 Q 38.8 45.7, 38.8 47.4 Q 38.8 49.1, 39.5 50.0 Q 40.2 50.9, 41.5 50.9 " fill="#FF0000"/>
<path class="atom-17" d="M 82.1 75.4 Q 82.1 73.4, 83.1 72.2 Q 84.1 71.1, 86.0 71.1 Q 88.0 71.1, 89.0 72.2 Q 90.0 73.4, 90.0 75.4 Q 90.0 77.5, 89.0 78.7 Q 87.9 79.9, 86.0 79.9 Q 84.1 79.9, 83.1 78.7 Q 82.1 77.5, 82.1 75.4 M 86.0 78.9 Q 87.4 78.9, 88.1 78.1 Q 88.8 77.2, 88.8 75.4 Q 88.8 73.7, 88.1 72.9 Q 87.4 72.0, 86.0 72.0 Q 84.7 72.0, 84.0 72.9 Q 83.3 73.7, 83.3 75.4 Q 83.3 77.2, 84.0 78.1 Q 84.7 78.9, 86.0 78.9 " fill="#FF0000"/>
<path class="atom-17" d="M 91.3 71.2 L 92.5 71.2 L 92.5 74.8 L 96.9 74.8 L 96.9 71.2 L 98.1 71.2 L 98.1 79.8 L 96.9 79.8 L 96.9 75.8 L 92.5 75.8 L 92.5 79.8 L 91.3 79.8 L 91.3 71.2 " fill="#FF0000"/>
</svg>
