<?xml version='1.0' encoding='ASCII' standalone='yes'?>
<svg xmlns="http://www.w3.org/2000/svg" xmlns:rdkit="http://www.rdkit.org/xml" xmlns:xlink="http://www.w3.org/1999/xlink" version="1.1" baseProfile="full" xml:space="preserve" width="260px" height="200px" viewBox="0 0 260 200">
<!-- END OF HEADER -->
<rect style="opacity:1.0;fill:#FFFFFF;stroke:none" width="260.0" height="200.0" x="0.0" y="0.0"> </rect>
<path class="bond-0 atom-0 atom-1" d="M 152.1,32.6 L 182.5,60.3" style="fill:none;fill-rule:evenodd;stroke:#000000;stroke-width:2.0px;stroke-linecap:butt;stroke-linejoin:miter;stroke-opacity:1"/>
<path class="bond-1 atom-1 atom-2" d="M 182.5,60.3 L 173.8,100.5" style="fill:none;fill-rule:evenodd;stroke:#000000;stroke-width:2.0px;stroke-linecap:butt;stroke-linejoin:miter;stroke-opacity:1"/>
<path class="bond-2 atom-2 atom-3" d="M 173.8,100.5 L 165.0,140.7" style="fill:none;fill-rule:evenodd;stroke:#000000;stroke-width:2.0px;stroke-linecap:butt;stroke-linejoin:miter;stroke-opacity:1"/>
<path class="bond-3 atom-2 atom-4" d="M 173.8,100.5 L 133.6,91.7" style="fill:none;fill-rule:evenodd;stroke:#000000;stroke-width:2.0px;stroke-linecap:butt;stroke-linejoin:miter;stroke-opacity:1"/>
<path class="bond-4 atom-4 atom-5" d="M 133.6,91.7 L 105.9,122.1" style="fill:none;fill-rule:evenodd;stroke:#000000;stroke-width:2.0px;stroke-linecap:butt;stroke-linejoin:miter;stroke-opacity:1"/>
<path class="bond-5 atom-5 atom-6" d="M 105.9,122.1 L 110.9,138.1" style="fill:none;fill-rule:evenodd;stroke:#000000;stroke-width:2.0px;stroke-linecap:butt;stroke-linejoin:miter;stroke-opacity:1"/>
<path class="bond-5 atom-5 atom-6" d="M 110.9,138.1 L 116.0,154.1" style="fill:none;fill-rule:evenodd;stroke:#FF0000;stroke-width:2.0px;stroke-linecap:butt;stroke-linejoin:miter;stroke-opacity:1"/>
<path class="bond-6 atom-5 atom-7" d="M 105.9,122.1 L 65.7,113.3" style="fill:none;fill-rule:evenodd;stroke:#000000;stroke-width:2.0px;stroke-linecap:butt;stroke-linejoin:miter;stroke-opacity:1"/>
<path class="bond-7 atom-7 atom-8" d="M 65.7,113.3 L 56.9,153.5" style="fill:none;fill-rule:evenodd;stroke:#000000;stroke-width:2.0px;stroke-linecap:butt;stroke-linejoin:miter;stroke-opacity:1"/>
<path class="bond-8 atom-7 atom-9" d="M 65.7,113.3 L 74.5,73.1" style="fill:none;fill-rule:evenodd;stroke:#000000;stroke-width:2.0px;stroke-linecap:butt;stroke-linejoin:miter;stroke-opacity:1"/>
<path class="bond-9 atom-7 atom-10" d="M 65.7,113.3 L 25.5,104.5" style="fill:none;fill-rule:evenodd;stroke:#000000;stroke-width:2.0px;stroke-linecap:butt;stroke-linejoin:miter;stroke-opacity:1"/>
<path class="bond-10 atom-10 atom-11" d="M 25.5,104.5 L 13.0,65.3" style="fill:none;fill-rule:evenodd;stroke:#000000;stroke-width:2.0px;stroke-linecap:butt;stroke-linejoin:miter;stroke-opacity:1"/>
<path class="bond-11 atom-2 atom-12" d="M 173.8,100.5 L 213.9,109.3" style="fill:none;fill-rule:evenodd;stroke:#000000;stroke-width:2.0px;stroke-linecap:butt;stroke-linejoin:miter;stroke-opacity:1"/>
<path class="bond-12 atom-12 atom-13" d="M 215.0,112.7 L 226.1,100.5" style="fill:none;fill-rule:evenodd;stroke:#000000;stroke-width:2.0px;stroke-linecap:butt;stroke-linejoin:miter;stroke-opacity:1"/>
<path class="bond-12 atom-12 atom-13" d="M 226.1,100.5 L 237.2,88.3" style="fill:none;fill-rule:evenodd;stroke:#FF0000;stroke-width:2.0px;stroke-linecap:butt;stroke-linejoin:miter;stroke-opacity:1"/>
<path class="bond-12 atom-12 atom-13" d="M 210.5,108.5 L 221.6,96.4" style="fill:none;fill-rule:evenodd;stroke:#000000;stroke-width:2.0px;stroke-linecap:butt;stroke-linejoin:miter;stroke-opacity:1"/>
<path class="bond-12 atom-12 atom-13" d="M 221.6,96.4 L 232.7,84.2" style="fill:none;fill-rule:evenodd;stroke:#FF0000;stroke-width:2.0px;stroke-linecap:butt;stroke-linejoin:miter;stroke-opacity:1"/>
<path class="bond-13 atom-12 atom-14" d="M 213.9,109.3 L 219.0,125.3" style="fill:none;fill-rule:evenodd;stroke:#000000;stroke-width:2.0px;stroke-linecap:butt;stroke-linejoin:miter;stroke-opacity:1"/>
<path class="bond-13 atom-12 atom-14" d="M 219.0,125.3 L 224.1,141.3" style="fill:none;fill-rule:evenodd;stroke:#FF0000;stroke-width:2.0px;stroke-linecap:butt;stroke-linejoin:miter;stroke-opacity:1"/>
<path d="M 181.0,58.9 L 182.5,60.3 L 182.1,62.3" style="fill:none;stroke:#000000;stroke-width:2.0px;stroke-linecap:butt;stroke-linejoin:miter;stroke-opacity:1;"/>
<path d="M 135.6,92.2 L 133.6,91.7 L 132.2,93.2" style="fill:none;stroke:#000000;stroke-width:2.0px;stroke-linecap:butt;stroke-linejoin:miter;stroke-opacity:1;"/>
<path d="M 27.5,105.0 L 25.5,104.5 L 24.9,102.6" style="fill:none;stroke:#000000;stroke-width:2.0px;stroke-linecap:butt;stroke-linejoin:miter;stroke-opacity:1;"/>
<path d="M 211.9,108.9 L 213.9,109.3 L 214.2,110.1" style="fill:none;stroke:#000000;stroke-width:2.0px;stroke-linecap:butt;stroke-linejoin:miter;stroke-opacity:1;"/>
<path class="atom-6" d="M 113.0 161.4 Q 113.0 158.6, 114.4 157.0 Q 115.7 155.4, 118.3 155.4 Q 120.9 155.4, 122.3 157.0 Q 123.7 158.6, 123.7 161.4 Q 123.7 164.2, 122.3 165.8 Q 120.9 167.4, 118.3 167.4 Q 115.8 167.4, 114.4 165.8 Q 113.0 164.2, 113.0 161.4 M 118.3 166.1 Q 120.1 166.1, 121.1 164.9 Q 122.0 163.7, 122.0 161.4 Q 122.0 159.1, 121.1 157.9 Q 120.1 156.7, 118.3 156.7 Q 116.6 156.7, 115.6 157.9 Q 114.6 159.0, 114.6 161.4 Q 114.6 163.7, 115.6 164.9 Q 116.6 166.1, 118.3 166.1 " fill="#FF0000"/>
<path class="atom-6" d="M 125.5 155.6 L 127.1 155.6 L 127.1 160.5 L 133.0 160.5 L 133.0 155.6 L 134.6 155.6 L 134.6 167.2 L 133.0 167.2 L 133.0 161.8 L 127.1 161.8 L 127.1 167.2 L 125.5 167.2 L 125.5 155.6 " fill="#FF0000"/>
<path class="atom-13" d="M 236.3 78.9 Q 236.3 76.1, 237.7 74.6 Q 239.1 73.0, 241.7 73.0 Q 244.2 73.0, 245.6 74.6 Q 247.0 76.1, 247.0 78.9 Q 247.0 81.8, 245.6 83.4 Q 244.2 85.0, 241.7 85.0 Q 239.1 85.0, 237.7 83.4 Q 236.3 81.8, 236.3 78.9 M 241.7 83.7 Q 243.4 83.7, 244.4 82.5 Q 245.4 81.3, 245.4 78.9 Q 245.4 76.6, 244.4 75.5 Q 243.4 74.3, 241.7 74.3 Q 239.9 74.3, 238.9 75.5 Q 237.9 76.6, 237.9 78.9 Q 237.9 81.3, 238.9 82.5 Q 239.9 83.7, 241.7 83.7 " fill="#FF0000"/>
<path class="atom-14" d="M 221.1 148.5 Q 221.1 145.7, 222.5 144.2 Q 223.8 142.6, 226.4 142.6 Q 229.0 142.6, 230.4 144.2 Q 231.8 145.7, 231.8 148.5 Q 231.8 151.4, 230.4 153.0 Q 229.0 154.6, 226.4 154.6 Q 223.9 154.6, 222.5 153.0 Q 221.1 151.4, 221.1 148.5 M 226.4 153.3 Q 228.2 153.3, 229.1 152.1 Q 230.1 150.9, 230.1 148.5 Q 230.1 146.2, 229.1 145.1 Q 228.2 143.9, 226.4 143.9 Q 224.6 143.9, 223.7 145.1 Q 222.7 146.2, 222.7 148.5 Q 222.7 150.9, 223.7 152.1 Q 224.6 153.3, 226.4 153.3 " fill="#FF0000"/>
<path class="atom-14" d="M 233.6 142.7 L 235.2 142.7 L 235.2 147.7 L 241.1 147.7 L 241.1 142.7 L 242.7 142.7 L 242.7 154.4 L 241.1 154.4 L 241.1 149.0 L 235.2 149.0 L 235.2 154.4 L 233.6 154.4 L 233.6 142.7 " fill="#FF0000"/>
</svg>
