<?xml version='1.0' encoding='ASCII' standalone='yes'?>
<svg xmlns="http://www.w3.org/2000/svg" xmlns:rdkit="http://www.rdkit.org/xml" xmlns:xlink="http://www.w3.org/1999/xlink" version="1.1" baseProfile="full" xml:space="preserve" width="260px" height="200px" viewBox="0 0 260 200">
<!-- END OF HEADER -->
<rect style="opacity:1.0;fill:#FFFFFF;stroke:none" width="260.0" height="200.0" x="0.0" y="0.0"> </rect>
<path class="bond-0 atom-0 atom-1" d="M 220.2,118.3 L 214.6,104.6" style="fill:none;fill-rule:evenodd;stroke:#FF0000;stroke-width:2.0px;stroke-linecap:butt;stroke-linejoin:miter;stroke-opacity:1"/>
<path class="bond-0 atom-0 atom-1" d="M 214.6,104.6 L 209.1,90.9" style="fill:none;fill-rule:evenodd;stroke:#000000;stroke-width:2.0px;stroke-linecap:butt;stroke-linejoin:miter;stroke-opacity:1"/>
<path class="bond-0 atom-0 atom-1" d="M 225.0,116.4 L 219.5,102.7" style="fill:none;fill-rule:evenodd;stroke:#FF0000;stroke-width:2.0px;stroke-linecap:butt;stroke-linejoin:miter;stroke-opacity:1"/>
<path class="bond-0 atom-0 atom-1" d="M 219.5,102.7 L 213.9,89.0" style="fill:none;fill-rule:evenodd;stroke:#000000;stroke-width:2.0px;stroke-linecap:butt;stroke-linejoin:miter;stroke-opacity:1"/>
<path class="bond-1 atom-1 atom-2" d="M 212.0,91.3 L 220.2,80.8" style="fill:none;fill-rule:evenodd;stroke:#000000;stroke-width:2.0px;stroke-linecap:butt;stroke-linejoin:miter;stroke-opacity:1"/>
<path class="bond-1 atom-1 atom-2" d="M 220.2,80.8 L 228.4,70.2" style="fill:none;fill-rule:evenodd;stroke:#FF0000;stroke-width:2.0px;stroke-linecap:butt;stroke-linejoin:miter;stroke-opacity:1"/>
<path class="bond-2 atom-1 atom-3" d="M 212.0,91.3 L 177.7,86.6" style="fill:none;fill-rule:evenodd;stroke:#000000;stroke-width:2.0px;stroke-linecap:butt;stroke-linejoin:miter;stroke-opacity:1"/>
<path class="bond-3 atom-3 atom-4" d="M 177.7,86.6 L 156.4,114.0" style="fill:none;fill-rule:evenodd;stroke:#000000;stroke-width:2.0px;stroke-linecap:butt;stroke-linejoin:miter;stroke-opacity:1"/>
<path class="bond-3 atom-3 atom-4" d="M 180.0,92.2 L 160.5,117.2" style="fill:none;fill-rule:evenodd;stroke:#000000;stroke-width:2.0px;stroke-linecap:butt;stroke-linejoin:miter;stroke-opacity:1"/>
<path class="bond-4 atom-4 atom-5" d="M 156.4,114.0 L 122.1,109.3" style="fill:none;fill-rule:evenodd;stroke:#000000;stroke-width:2.0px;stroke-linecap:butt;stroke-linejoin:miter;stroke-opacity:1"/>
<path class="bond-5 atom-5 atom-6" d="M 122.1,109.3 L 120.2,123.5" style="fill:none;fill-rule:evenodd;stroke:#000000;stroke-width:2.0px;stroke-linecap:butt;stroke-linejoin:miter;stroke-opacity:1"/>
<path class="bond-5 atom-5 atom-6" d="M 120.2,123.5 L 118.2,137.6" style="fill:none;fill-rule:evenodd;stroke:#FF0000;stroke-width:2.0px;stroke-linecap:butt;stroke-linejoin:miter;stroke-opacity:1"/>
<path class="bond-6 atom-5 atom-7" d="M 122.1,109.3 L 124.0,95.3" style="fill:none;fill-rule:evenodd;stroke:#000000;stroke-width:2.0px;stroke-linecap:butt;stroke-linejoin:miter;stroke-opacity:1"/>
<path class="bond-6 atom-5 atom-7" d="M 124.0,95.3 L 125.9,81.2" style="fill:none;fill-rule:evenodd;stroke:#FF0000;stroke-width:2.0px;stroke-linecap:butt;stroke-linejoin:miter;stroke-opacity:1"/>
<path class="bond-7 atom-5 atom-8" d="M 122.1,109.3 L 87.7,104.6" style="fill:none;fill-rule:evenodd;stroke:#000000;stroke-width:2.0px;stroke-linecap:butt;stroke-linejoin:miter;stroke-opacity:1"/>
<path class="bond-8 atom-8 atom-9" d="M 87.7,104.6 L 74.6,72.5" style="fill:none;fill-rule:evenodd;stroke:#000000;stroke-width:2.0px;stroke-linecap:butt;stroke-linejoin:miter;stroke-opacity:1"/>
<path class="bond-8 atom-8 atom-9" d="M 81.8,103.8 L 71.0,77.3" style="fill:none;fill-rule:evenodd;stroke:#000000;stroke-width:2.0px;stroke-linecap:butt;stroke-linejoin:miter;stroke-opacity:1"/>
<path class="bond-9 atom-9 atom-10" d="M 74.6,72.5 L 40.3,67.8" style="fill:none;fill-rule:evenodd;stroke:#000000;stroke-width:2.0px;stroke-linecap:butt;stroke-linejoin:miter;stroke-opacity:1"/>
<path class="bond-10 atom-10 atom-11" d="M 40.3,67.8 L 35.0,54.9" style="fill:none;fill-rule:evenodd;stroke:#000000;stroke-width:2.0px;stroke-linecap:butt;stroke-linejoin:miter;stroke-opacity:1"/>
<path class="bond-10 atom-10 atom-11" d="M 35.0,54.9 L 29.8,42.0" style="fill:none;fill-rule:evenodd;stroke:#FF0000;stroke-width:2.0px;stroke-linecap:butt;stroke-linejoin:miter;stroke-opacity:1"/>
<path class="bond-11 atom-8 atom-12" d="M 87.7,104.6 L 66.5,132.0" style="fill:none;fill-rule:evenodd;stroke:#000000;stroke-width:2.0px;stroke-linecap:butt;stroke-linejoin:miter;stroke-opacity:1"/>
<path class="bond-12 atom-12 atom-13" d="M 63.5,131.6 L 69.1,145.3" style="fill:none;fill-rule:evenodd;stroke:#000000;stroke-width:2.0px;stroke-linecap:butt;stroke-linejoin:miter;stroke-opacity:1"/>
<path class="bond-12 atom-12 atom-13" d="M 69.1,145.3 L 74.7,159.0" style="fill:none;fill-rule:evenodd;stroke:#FF0000;stroke-width:2.0px;stroke-linecap:butt;stroke-linejoin:miter;stroke-opacity:1"/>
<path class="bond-12 atom-12 atom-13" d="M 68.3,129.6 L 73.9,143.3" style="fill:none;fill-rule:evenodd;stroke:#000000;stroke-width:2.0px;stroke-linecap:butt;stroke-linejoin:miter;stroke-opacity:1"/>
<path class="bond-12 atom-12 atom-13" d="M 73.9,143.3 L 79.5,157.0" style="fill:none;fill-rule:evenodd;stroke:#FF0000;stroke-width:2.0px;stroke-linecap:butt;stroke-linejoin:miter;stroke-opacity:1"/>
<path class="bond-13 atom-12 atom-14" d="M 66.5,132.0 L 52.2,130.1" style="fill:none;fill-rule:evenodd;stroke:#000000;stroke-width:2.0px;stroke-linecap:butt;stroke-linejoin:miter;stroke-opacity:1"/>
<path class="bond-13 atom-12 atom-14" d="M 52.2,130.1 L 37.8,128.1" style="fill:none;fill-rule:evenodd;stroke:#FF0000;stroke-width:2.0px;stroke-linecap:butt;stroke-linejoin:miter;stroke-opacity:1"/>
<path d="M 212.4,90.8 L 212.0,91.3 L 210.3,91.1" style="fill:none;stroke:#000000;stroke-width:2.0px;stroke-linecap:butt;stroke-linejoin:miter;stroke-opacity:1;"/>
<path d="M 179.4,86.9 L 177.7,86.6 L 176.6,88.0" style="fill:none;stroke:#000000;stroke-width:2.0px;stroke-linecap:butt;stroke-linejoin:miter;stroke-opacity:1;"/>
<path d="M 157.5,112.7 L 156.4,114.0 L 154.7,113.8" style="fill:none;stroke:#000000;stroke-width:2.0px;stroke-linecap:butt;stroke-linejoin:miter;stroke-opacity:1;"/>
<path d="M 75.3,74.1 L 74.6,72.5 L 72.9,72.3" style="fill:none;stroke:#000000;stroke-width:2.0px;stroke-linecap:butt;stroke-linejoin:miter;stroke-opacity:1;"/>
<path d="M 42.0,68.1 L 40.3,67.8 L 40.0,67.2" style="fill:none;stroke:#000000;stroke-width:2.0px;stroke-linecap:butt;stroke-linejoin:miter;stroke-opacity:1;"/>
<path d="M 67.6,130.7 L 66.5,132.0 L 65.8,131.9" style="fill:none;stroke:#000000;stroke-width:2.0px;stroke-linecap:butt;stroke-linejoin:miter;stroke-opacity:1;"/>
<path class="atom-0" d="M 220.6 123.5 Q 220.6 121.1, 221.8 119.8 Q 223.0 118.5, 225.1 118.5 Q 227.3 118.5, 228.5 119.8 Q 229.6 121.1, 229.6 123.5 Q 229.6 125.9, 228.5 127.2 Q 227.3 128.6, 225.1 128.6 Q 223.0 128.6, 221.8 127.2 Q 220.6 125.9, 220.6 123.5 M 225.1 127.5 Q 226.6 127.5, 227.4 126.5 Q 228.3 125.4, 228.3 123.5 Q 228.3 121.5, 227.4 120.6 Q 226.6 119.6, 225.1 119.6 Q 223.6 119.6, 222.8 120.6 Q 222.0 121.5, 222.0 123.5 Q 222.0 125.5, 222.8 126.5 Q 223.6 127.5, 225.1 127.5 " fill="#FF0000"/>
<path class="atom-2" d="M 228.8 64.0 Q 228.8 61.6, 229.9 60.3 Q 231.1 59.0, 233.3 59.0 Q 235.5 59.0, 236.6 60.3 Q 237.8 61.6, 237.8 64.0 Q 237.8 66.4, 236.6 67.7 Q 235.4 69.1, 233.3 69.1 Q 231.1 69.1, 229.9 67.7 Q 228.8 66.4, 228.8 64.0 M 233.3 68.0 Q 234.8 68.0, 235.6 67.0 Q 236.4 66.0, 236.4 64.0 Q 236.4 62.1, 235.6 61.1 Q 234.8 60.1, 233.3 60.1 Q 231.8 60.1, 231.0 61.1 Q 230.2 62.0, 230.2 64.0 Q 230.2 66.0, 231.0 67.0 Q 231.8 68.0, 233.3 68.0 " fill="#FF0000"/>
<path class="atom-2" d="M 239.3 59.1 L 240.6 59.1 L 240.6 63.3 L 245.7 63.3 L 245.7 59.1 L 247.0 59.1 L 247.0 68.9 L 245.7 68.9 L 245.7 64.4 L 240.6 64.4 L 240.6 68.9 L 239.3 68.9 L 239.3 59.1 " fill="#FF0000"/>
<path class="atom-6" d="M 112.9 143.7 Q 112.9 141.3, 114.0 140.0 Q 115.2 138.7, 117.4 138.7 Q 119.6 138.7, 120.7 140.0 Q 121.9 141.3, 121.9 143.7 Q 121.9 146.1, 120.7 147.5 Q 119.5 148.8, 117.4 148.8 Q 115.2 148.8, 114.0 147.5 Q 112.9 146.1, 112.9 143.7 M 117.4 147.7 Q 118.9 147.7, 119.7 146.7 Q 120.5 145.7, 120.5 143.7 Q 120.5 141.8, 119.7 140.8 Q 118.9 139.8, 117.4 139.8 Q 115.9 139.8, 115.1 140.8 Q 114.3 141.8, 114.3 143.7 Q 114.3 145.7, 115.1 146.7 Q 115.9 147.7, 117.4 147.7 " fill="#FF0000"/>
<path class="atom-6" d="M 123.4 138.8 L 124.8 138.8 L 124.8 143.0 L 129.8 143.0 L 129.8 138.8 L 131.1 138.8 L 131.1 148.6 L 129.8 148.6 L 129.8 144.1 L 124.8 144.1 L 124.8 148.6 L 123.4 148.6 L 123.4 138.8 " fill="#FF0000"/>
<path class="atom-7" d="M 122.3 75.0 Q 122.3 72.7, 123.5 71.3 Q 124.6 70.0, 126.8 70.0 Q 129.0 70.0, 130.1 71.3 Q 131.3 72.7, 131.3 75.0 Q 131.3 77.4, 130.1 78.8 Q 128.9 80.1, 126.8 80.1 Q 124.6 80.1, 123.5 78.8 Q 122.3 77.4, 122.3 75.0 M 126.8 79.0 Q 128.3 79.0, 129.1 78.0 Q 129.9 77.0, 129.9 75.0 Q 129.9 73.1, 129.1 72.1 Q 128.3 71.1, 126.8 71.1 Q 125.3 71.1, 124.5 72.1 Q 123.7 73.1, 123.7 75.0 Q 123.7 77.0, 124.5 78.0 Q 125.3 79.0, 126.8 79.0 " fill="#FF0000"/>
<path class="atom-7" d="M 132.8 70.1 L 134.2 70.1 L 134.2 74.3 L 139.2 74.3 L 139.2 70.1 L 140.5 70.1 L 140.5 80.0 L 139.2 80.0 L 139.2 75.4 L 134.2 75.4 L 134.2 80.0 L 132.8 80.0 L 132.8 70.1 " fill="#FF0000"/>
<path class="atom-11" d="M 13.0 30.9 L 14.3 30.9 L 14.3 35.0 L 19.4 35.0 L 19.4 30.9 L 20.7 30.9 L 20.7 40.7 L 19.4 40.7 L 19.4 36.2 L 14.3 36.2 L 14.3 40.7 L 13.0 40.7 L 13.0 30.9 " fill="#FF0000"/>
<path class="atom-11" d="M 22.7 35.8 Q 22.7 33.4, 23.9 32.1 Q 25.0 30.8, 27.2 30.8 Q 29.4 30.8, 30.5 32.1 Q 31.7 33.4, 31.7 35.8 Q 31.7 38.1, 30.5 39.5 Q 29.4 40.8, 27.2 40.8 Q 25.0 40.8, 23.9 39.5 Q 22.7 38.2, 22.7 35.8 M 27.2 39.7 Q 28.7 39.7, 29.5 38.7 Q 30.3 37.7, 30.3 35.8 Q 30.3 33.8, 29.5 32.9 Q 28.7 31.9, 27.2 31.9 Q 25.7 31.9, 24.9 32.8 Q 24.1 33.8, 24.1 35.8 Q 24.1 37.7, 24.9 38.7 Q 25.7 39.7, 27.2 39.7 " fill="#FF0000"/>
<path class="atom-13" d="M 75.1 164.1 Q 75.1 161.8, 76.3 160.5 Q 77.4 159.2, 79.6 159.2 Q 81.8 159.2, 82.9 160.5 Q 84.1 161.8, 84.1 164.1 Q 84.1 166.5, 82.9 167.9 Q 81.7 169.2, 79.6 169.2 Q 77.4 169.2, 76.3 167.9 Q 75.1 166.5, 75.1 164.1 M 79.6 168.1 Q 81.1 168.1, 81.9 167.1 Q 82.7 166.1, 82.7 164.1 Q 82.7 162.2, 81.9 161.2 Q 81.1 160.3, 79.6 160.3 Q 78.1 160.3, 77.3 161.2 Q 76.5 162.2, 76.5 164.1 Q 76.5 166.1, 77.3 167.1 Q 78.1 168.1, 79.6 168.1 " fill="#FF0000"/>
<path class="atom-14" d="M 18.0 122.5 L 19.3 122.5 L 19.3 126.6 L 24.3 126.6 L 24.3 122.5 L 25.6 122.5 L 25.6 132.3 L 24.3 132.3 L 24.3 127.7 L 19.3 127.7 L 19.3 132.3 L 18.0 132.3 L 18.0 122.5 " fill="#FF0000"/>
<path class="atom-14" d="M 27.6 127.3 Q 27.6 125.0, 28.8 123.7 Q 30.0 122.4, 32.2 122.4 Q 34.3 122.4, 35.5 123.7 Q 36.7 125.0, 36.7 127.3 Q 36.7 129.7, 35.5 131.1 Q 34.3 132.4, 32.2 132.4 Q 30.0 132.4, 28.8 131.1 Q 27.6 129.7, 27.6 127.3 M 32.2 131.3 Q 33.7 131.3, 34.5 130.3 Q 35.3 129.3, 35.3 127.3 Q 35.3 125.4, 34.5 124.4 Q 33.7 123.5, 32.2 123.5 Q 30.7 123.5, 29.8 124.4 Q 29.0 125.4, 29.0 127.3 Q 29.0 129.3, 29.8 130.3 Q 30.7 131.3, 32.2 131.3 " fill="#FF0000"/>
</svg>
