<?xml version='1.0' encoding='ASCII' standalone='yes'?>
<svg xmlns="http://www.w3.org/2000/svg" xmlns:rdkit="http://www.rdkit.org/xml" xmlns:xlink="http://www.w3.org/1999/xlink" version="1.1" baseProfile="full" xml:space="preserve" width="307px" height="200px" viewBox="0 0 307 200">
<!-- END OF HEADER -->
<rect style="opacity:1.0;fill:#FFFFFF;stroke:none" width="307.0" height="200.0" x="0.0" y="0.0"> </rect>
<path class="bond-0 atom-0 atom-1" d="M 265.0,104.0 L 240.2,118.9" style="fill:none;fill-rule:evenodd;stroke:#000000;stroke-width:2.0px;stroke-linecap:butt;stroke-linejoin:miter;stroke-opacity:1"/>
<path class="bond-1 atom-1 atom-2" d="M 240.2,118.9 L 215.4,133.8" style="fill:none;fill-rule:evenodd;stroke:#000000;stroke-width:2.0px;stroke-linecap:butt;stroke-linejoin:miter;stroke-opacity:1"/>
<path class="bond-2 atom-1 atom-3" d="M 240.2,118.9 L 225.3,94.1" style="fill:none;fill-rule:evenodd;stroke:#000000;stroke-width:2.0px;stroke-linecap:butt;stroke-linejoin:miter;stroke-opacity:1"/>
<path class="bond-3 atom-3 atom-4" d="M 225.3,94.1 L 196.3,94.6" style="fill:none;fill-rule:evenodd;stroke:#000000;stroke-width:2.0px;stroke-linecap:butt;stroke-linejoin:miter;stroke-opacity:1"/>
<path class="bond-4 atom-4 atom-5" d="M 196.3,94.6 L 181.4,69.8" style="fill:none;fill-rule:evenodd;stroke:#000000;stroke-width:2.0px;stroke-linecap:butt;stroke-linejoin:miter;stroke-opacity:1"/>
<path class="bond-5 atom-5 atom-6" d="M 181.4,69.8 L 152.5,70.3" style="fill:none;fill-rule:evenodd;stroke:#000000;stroke-width:2.0px;stroke-linecap:butt;stroke-linejoin:miter;stroke-opacity:1"/>
<path class="bond-6 atom-6 atom-7" d="M 152.5,70.3 L 152.0,41.3" style="fill:none;fill-rule:evenodd;stroke:#000000;stroke-width:2.0px;stroke-linecap:butt;stroke-linejoin:miter;stroke-opacity:1"/>
<path class="bond-7 atom-7 atom-8" d="M 152.0,41.3 L 141.7,35.6" style="fill:none;fill-rule:evenodd;stroke:#000000;stroke-width:2.0px;stroke-linecap:butt;stroke-linejoin:miter;stroke-opacity:1"/>
<path class="bond-7 atom-7 atom-8" d="M 141.7,35.6 L 131.4,29.9" style="fill:none;fill-rule:evenodd;stroke:#FF0000;stroke-width:2.0px;stroke-linecap:butt;stroke-linejoin:miter;stroke-opacity:1"/>
<path class="bond-8 atom-6 atom-9" d="M 152.5,70.3 L 123.5,70.8" style="fill:none;fill-rule:evenodd;stroke:#000000;stroke-width:2.0px;stroke-linecap:butt;stroke-linejoin:miter;stroke-opacity:1"/>
<path class="bond-9 atom-9 atom-10" d="M 123.5,70.8 L 109.5,96.1" style="fill:none;fill-rule:evenodd;stroke:#000000;stroke-width:2.0px;stroke-linecap:butt;stroke-linejoin:miter;stroke-opacity:1"/>
<path class="bond-10 atom-10 atom-11" d="M 109.5,96.1 L 80.6,96.6" style="fill:none;fill-rule:evenodd;stroke:#000000;stroke-width:2.0px;stroke-linecap:butt;stroke-linejoin:miter;stroke-opacity:1"/>
<path class="bond-11 atom-11 atom-12" d="M 80.6,96.6 L 66.6,121.9" style="fill:none;fill-rule:evenodd;stroke:#000000;stroke-width:2.0px;stroke-linecap:butt;stroke-linejoin:miter;stroke-opacity:1"/>
<path class="bond-12 atom-12 atom-13" d="M 66.6,121.9 L 91.9,136.0" style="fill:none;fill-rule:evenodd;stroke:#000000;stroke-width:2.0px;stroke-linecap:butt;stroke-linejoin:miter;stroke-opacity:1"/>
<path class="bond-13 atom-12 atom-14" d="M 66.6,121.9 L 41.2,107.9" style="fill:none;fill-rule:evenodd;stroke:#000000;stroke-width:2.0px;stroke-linecap:butt;stroke-linejoin:miter;stroke-opacity:1"/>
<path class="bond-14 atom-12 atom-15" d="M 66.6,121.9 L 52.5,147.2" style="fill:none;fill-rule:evenodd;stroke:#000000;stroke-width:2.0px;stroke-linecap:butt;stroke-linejoin:miter;stroke-opacity:1"/>
<path class="bond-15 atom-15 atom-16" d="M 52.5,147.2 L 46.9,157.4" style="fill:none;fill-rule:evenodd;stroke:#000000;stroke-width:2.0px;stroke-linecap:butt;stroke-linejoin:miter;stroke-opacity:1"/>
<path class="bond-15 atom-15 atom-16" d="M 46.9,157.4 L 41.3,167.5" style="fill:none;fill-rule:evenodd;stroke:#FF0000;stroke-width:2.0px;stroke-linecap:butt;stroke-linejoin:miter;stroke-opacity:1"/>
<path class="bond-16 atom-15 atom-17" d="M 52.5,147.2 L 62.8,153.0" style="fill:none;fill-rule:evenodd;stroke:#000000;stroke-width:2.0px;stroke-linecap:butt;stroke-linejoin:miter;stroke-opacity:1"/>
<path class="bond-16 atom-15 atom-17" d="M 62.8,153.0 L 73.1,158.7" style="fill:none;fill-rule:evenodd;stroke:#FF0000;stroke-width:2.0px;stroke-linecap:butt;stroke-linejoin:miter;stroke-opacity:1"/>
<path class="bond-17 atom-15 atom-18" d="M 52.5,147.2 L 42.2,141.5" style="fill:none;fill-rule:evenodd;stroke:#000000;stroke-width:2.0px;stroke-linecap:butt;stroke-linejoin:miter;stroke-opacity:1"/>
<path class="bond-17 atom-15 atom-18" d="M 42.2,141.5 L 31.9,135.8" style="fill:none;fill-rule:evenodd;stroke:#FF0000;stroke-width:2.0px;stroke-linecap:butt;stroke-linejoin:miter;stroke-opacity:1"/>
<path class="bond-18 atom-6 atom-19" d="M 152.5,70.3 L 153.0,99.2" style="fill:none;fill-rule:evenodd;stroke:#000000;stroke-width:2.0px;stroke-linecap:butt;stroke-linejoin:miter;stroke-opacity:1"/>
<path class="bond-19 atom-19 atom-20" d="M 150.8,100.5 L 161.7,106.5" style="fill:none;fill-rule:evenodd;stroke:#000000;stroke-width:2.0px;stroke-linecap:butt;stroke-linejoin:miter;stroke-opacity:1"/>
<path class="bond-19 atom-19 atom-20" d="M 161.7,106.5 L 172.5,112.5" style="fill:none;fill-rule:evenodd;stroke:#FF0000;stroke-width:2.0px;stroke-linecap:butt;stroke-linejoin:miter;stroke-opacity:1"/>
<path class="bond-19 atom-19 atom-20" d="M 153.0,96.7 L 163.8,102.7" style="fill:none;fill-rule:evenodd;stroke:#000000;stroke-width:2.0px;stroke-linecap:butt;stroke-linejoin:miter;stroke-opacity:1"/>
<path class="bond-19 atom-19 atom-20" d="M 163.8,102.7 L 174.6,108.7" style="fill:none;fill-rule:evenodd;stroke:#FF0000;stroke-width:2.0px;stroke-linecap:butt;stroke-linejoin:miter;stroke-opacity:1"/>
<path class="bond-20 atom-19 atom-21" d="M 153.0,99.2 L 142.9,105.3" style="fill:none;fill-rule:evenodd;stroke:#000000;stroke-width:2.0px;stroke-linecap:butt;stroke-linejoin:miter;stroke-opacity:1"/>
<path class="bond-20 atom-19 atom-21" d="M 142.9,105.3 L 132.9,111.3" style="fill:none;fill-rule:evenodd;stroke:#FF0000;stroke-width:2.0px;stroke-linecap:butt;stroke-linejoin:miter;stroke-opacity:1"/>
<path class="bond-21 atom-1 atom-22" d="M 240.2,118.9 L 255.1,143.7" style="fill:none;fill-rule:evenodd;stroke:#000000;stroke-width:2.0px;stroke-linecap:butt;stroke-linejoin:miter;stroke-opacity:1"/>
<path class="bond-22 atom-22 atom-23" d="M 255.1,143.7 L 261.0,153.5" style="fill:none;fill-rule:evenodd;stroke:#000000;stroke-width:2.0px;stroke-linecap:butt;stroke-linejoin:miter;stroke-opacity:1"/>
<path class="bond-22 atom-22 atom-23" d="M 261.0,153.5 L 266.9,163.4" style="fill:none;fill-rule:evenodd;stroke:#FF0000;stroke-width:2.0px;stroke-linecap:butt;stroke-linejoin:miter;stroke-opacity:1"/>
<path class="bond-23 atom-22 atom-24" d="M 255.1,143.7 L 245.0,149.7" style="fill:none;fill-rule:evenodd;stroke:#000000;stroke-width:2.0px;stroke-linecap:butt;stroke-linejoin:miter;stroke-opacity:1"/>
<path class="bond-23 atom-22 atom-24" d="M 245.0,149.7 L 235.0,155.8" style="fill:none;fill-rule:evenodd;stroke:#FF0000;stroke-width:2.0px;stroke-linecap:butt;stroke-linejoin:miter;stroke-opacity:1"/>
<path class="bond-24 atom-22 atom-25" d="M 255.1,143.7 L 265.1,137.6" style="fill:none;fill-rule:evenodd;stroke:#000000;stroke-width:2.0px;stroke-linecap:butt;stroke-linejoin:miter;stroke-opacity:1"/>
<path class="bond-24 atom-22 atom-25" d="M 265.1,137.6 L 275.2,131.6" style="fill:none;fill-rule:evenodd;stroke:#FF0000;stroke-width:2.0px;stroke-linecap:butt;stroke-linejoin:miter;stroke-opacity:1"/>
<path d="M 226.0,95.3 L 225.3,94.1 L 223.8,94.1" style="fill:none;stroke:#000000;stroke-width:2.0px;stroke-linecap:butt;stroke-linejoin:miter;stroke-opacity:1;"/>
<path d="M 197.8,94.6 L 196.3,94.6 L 195.6,93.3" style="fill:none;stroke:#000000;stroke-width:2.0px;stroke-linecap:butt;stroke-linejoin:miter;stroke-opacity:1;"/>
<path d="M 182.2,71.0 L 181.4,69.8 L 180.0,69.8" style="fill:none;stroke:#000000;stroke-width:2.0px;stroke-linecap:butt;stroke-linejoin:miter;stroke-opacity:1;"/>
<path d="M 152.0,42.8 L 152.0,41.3 L 151.5,41.1" style="fill:none;stroke:#000000;stroke-width:2.0px;stroke-linecap:butt;stroke-linejoin:miter;stroke-opacity:1;"/>
<path d="M 125.0,70.8 L 123.5,70.8 L 122.8,72.1" style="fill:none;stroke:#000000;stroke-width:2.0px;stroke-linecap:butt;stroke-linejoin:miter;stroke-opacity:1;"/>
<path d="M 110.2,94.8 L 109.5,96.1 L 108.1,96.1" style="fill:none;stroke:#000000;stroke-width:2.0px;stroke-linecap:butt;stroke-linejoin:miter;stroke-opacity:1;"/>
<path d="M 82.0,96.6 L 80.6,96.6 L 79.9,97.9" style="fill:none;stroke:#000000;stroke-width:2.0px;stroke-linecap:butt;stroke-linejoin:miter;stroke-opacity:1;"/>
<path d="M 153.0,97.8 L 153.0,99.2 L 152.5,99.5" style="fill:none;stroke:#000000;stroke-width:2.0px;stroke-linecap:butt;stroke-linejoin:miter;stroke-opacity:1;"/>
<path class="atom-8" d="M 114.8 23.3 L 115.9 23.3 L 115.9 26.7 L 120.1 26.7 L 120.1 23.3 L 121.2 23.3 L 121.2 31.5 L 120.1 31.5 L 120.1 27.7 L 115.9 27.7 L 115.9 31.5 L 114.8 31.5 L 114.8 23.3 " fill="#FF0000"/>
<path class="atom-8" d="M 122.9 27.3 Q 122.9 25.4, 123.9 24.3 Q 124.8 23.2, 126.7 23.2 Q 128.5 23.2, 129.5 24.3 Q 130.4 25.4, 130.4 27.3 Q 130.4 29.3, 129.4 30.5 Q 128.5 31.6, 126.7 31.6 Q 124.9 31.6, 123.9 30.5 Q 122.9 29.3, 122.9 27.3 M 126.7 30.7 Q 127.9 30.7, 128.6 29.8 Q 129.3 29.0, 129.3 27.3 Q 129.3 25.7, 128.6 24.9 Q 127.9 24.1, 126.7 24.1 Q 125.4 24.1, 124.7 24.9 Q 124.1 25.7, 124.1 27.3 Q 124.1 29.0, 124.7 29.8 Q 125.4 30.7, 126.7 30.7 " fill="#FF0000"/>
<path class="atom-16" d="M 26.6 168.5 L 27.7 168.5 L 27.7 172.0 L 31.9 172.0 L 31.9 168.5 L 33.1 168.5 L 33.1 176.7 L 31.9 176.7 L 31.9 172.9 L 27.7 172.9 L 27.7 176.7 L 26.6 176.7 L 26.6 168.5 " fill="#FF0000"/>
<path class="atom-16" d="M 34.7 172.6 Q 34.7 170.6, 35.7 169.5 Q 36.7 168.4, 38.5 168.4 Q 40.3 168.4, 41.3 169.5 Q 42.3 170.6, 42.3 172.6 Q 42.3 174.6, 41.3 175.7 Q 40.3 176.8, 38.5 176.8 Q 36.7 176.8, 35.7 175.7 Q 34.7 174.6, 34.7 172.6 M 38.5 175.9 Q 39.7 175.9, 40.4 175.1 Q 41.1 174.2, 41.1 172.6 Q 41.1 171.0, 40.4 170.2 Q 39.7 169.3, 38.5 169.3 Q 37.2 169.3, 36.6 170.2 Q 35.9 171.0, 35.9 172.6 Q 35.9 174.2, 36.6 175.1 Q 37.2 175.9, 38.5 175.9 " fill="#FF0000"/>
<path class="atom-17" d="M 74.1 161.3 Q 74.1 159.3, 75.0 158.2 Q 76.0 157.1, 77.8 157.1 Q 79.7 157.1, 80.6 158.2 Q 81.6 159.3, 81.6 161.3 Q 81.6 163.3, 80.6 164.4 Q 79.6 165.5, 77.8 165.5 Q 76.0 165.5, 75.0 164.4 Q 74.1 163.3, 74.1 161.3 M 77.8 164.6 Q 79.1 164.6, 79.8 163.8 Q 80.4 162.9, 80.4 161.3 Q 80.4 159.7, 79.8 158.9 Q 79.1 158.1, 77.8 158.1 Q 76.6 158.1, 75.9 158.9 Q 75.2 159.7, 75.2 161.3 Q 75.2 163.0, 75.9 163.8 Q 76.6 164.6, 77.8 164.6 " fill="#FF0000"/>
<path class="atom-17" d="M 82.9 157.2 L 84.0 157.2 L 84.0 160.7 L 88.2 160.7 L 88.2 157.2 L 89.3 157.2 L 89.3 165.4 L 88.2 165.4 L 88.2 161.6 L 84.0 161.6 L 84.0 165.4 L 82.9 165.4 L 82.9 157.2 " fill="#FF0000"/>
<path class="atom-18" d="M 15.3 129.2 L 16.5 129.2 L 16.5 132.6 L 20.7 132.6 L 20.7 129.2 L 21.8 129.2 L 21.8 137.4 L 20.7 137.4 L 20.7 133.6 L 16.5 133.6 L 16.5 137.4 L 15.3 137.4 L 15.3 129.2 " fill="#FF0000"/>
<path class="atom-18" d="M 23.4 133.2 Q 23.4 131.3, 24.4 130.2 Q 25.4 129.1, 27.2 129.1 Q 29.0 129.1, 30.0 130.2 Q 31.0 131.3, 31.0 133.2 Q 31.0 135.2, 30.0 136.4 Q 29.0 137.5, 27.2 137.5 Q 25.4 137.5, 24.4 136.4 Q 23.4 135.2, 23.4 133.2 M 27.2 136.6 Q 28.5 136.6, 29.1 135.7 Q 29.8 134.9, 29.8 133.2 Q 29.8 131.6, 29.1 130.8 Q 28.5 130.0, 27.2 130.0 Q 26.0 130.0, 25.3 130.8 Q 24.6 131.6, 24.6 133.2 Q 24.6 134.9, 25.3 135.7 Q 26.0 136.6, 27.2 136.6 " fill="#FF0000"/>
<path class="atom-20" d="M 174.5 113.3 Q 174.5 111.3, 175.5 110.2 Q 176.5 109.1, 178.3 109.1 Q 180.1 109.1, 181.1 110.2 Q 182.1 111.3, 182.1 113.3 Q 182.1 115.3, 181.1 116.4 Q 180.1 117.5, 178.3 117.5 Q 176.5 117.5, 175.5 116.4 Q 174.5 115.3, 174.5 113.3 M 178.3 116.6 Q 179.6 116.6, 180.2 115.8 Q 180.9 114.9, 180.9 113.3 Q 180.9 111.7, 180.2 110.9 Q 179.6 110.0, 178.3 110.0 Q 177.1 110.0, 176.4 110.8 Q 175.7 111.6, 175.7 113.3 Q 175.7 114.9, 176.4 115.8 Q 177.1 116.6, 178.3 116.6 " fill="#FF0000"/>
<path class="atom-21" d="M 116.3 110.1 L 117.4 110.1 L 117.4 113.6 L 121.6 113.6 L 121.6 110.1 L 122.7 110.1 L 122.7 118.3 L 121.6 118.3 L 121.6 114.5 L 117.4 114.5 L 117.4 118.3 L 116.3 118.3 L 116.3 110.1 " fill="#FF0000"/>
<path class="atom-21" d="M 124.4 114.2 Q 124.4 112.2, 125.4 111.1 Q 126.4 110.0, 128.2 110.0 Q 130.0 110.0, 131.0 111.1 Q 131.9 112.2, 131.9 114.2 Q 131.9 116.1, 131.0 117.3 Q 130.0 118.4, 128.2 118.4 Q 126.4 118.4, 125.4 117.3 Q 124.4 116.2, 124.4 114.2 M 128.2 117.5 Q 129.4 117.5, 130.1 116.6 Q 130.8 115.8, 130.8 114.2 Q 130.8 112.5, 130.1 111.7 Q 129.4 110.9, 128.2 110.9 Q 126.9 110.9, 126.3 111.7 Q 125.6 112.5, 125.6 114.2 Q 125.6 115.8, 126.3 116.6 Q 126.9 117.5, 128.2 117.5 " fill="#FF0000"/>
<path class="atom-23" d="M 266.2 168.5 Q 266.2 166.5, 267.2 165.4 Q 268.2 164.3, 270.0 164.3 Q 271.8 164.3, 272.8 165.4 Q 273.8 166.5, 273.8 168.5 Q 273.8 170.5, 272.8 171.6 Q 271.8 172.8, 270.0 172.8 Q 268.2 172.8, 267.2 171.6 Q 266.2 170.5, 266.2 168.5 M 270.0 171.8 Q 271.3 171.8, 271.9 171.0 Q 272.6 170.2, 272.6 168.5 Q 272.6 166.9, 271.9 166.1 Q 271.3 165.3, 270.0 165.3 Q 268.8 165.3, 268.1 166.1 Q 267.4 166.9, 267.4 168.5 Q 267.4 170.2, 268.1 171.0 Q 268.8 171.8, 270.0 171.8 " fill="#FF0000"/>
<path class="atom-23" d="M 275.0 164.4 L 276.2 164.4 L 276.2 167.9 L 280.3 167.9 L 280.3 164.4 L 281.5 164.4 L 281.5 172.6 L 280.3 172.6 L 280.3 168.8 L 276.2 168.8 L 276.2 172.6 L 275.0 172.6 L 275.0 164.4 " fill="#FF0000"/>
<path class="atom-24" d="M 218.4 154.5 L 219.5 154.5 L 219.5 158.0 L 223.7 158.0 L 223.7 154.5 L 224.8 154.5 L 224.8 162.7 L 223.7 162.7 L 223.7 159.0 L 219.5 159.0 L 219.5 162.7 L 218.4 162.7 L 218.4 154.5 " fill="#FF0000"/>
<path class="atom-24" d="M 226.5 158.6 Q 226.5 156.6, 227.5 155.5 Q 228.5 154.4, 230.3 154.4 Q 232.1 154.4, 233.1 155.5 Q 234.0 156.6, 234.0 158.6 Q 234.0 160.6, 233.1 161.7 Q 232.1 162.9, 230.3 162.9 Q 228.5 162.9, 227.5 161.7 Q 226.5 160.6, 226.5 158.6 M 230.3 161.9 Q 231.5 161.9, 232.2 161.1 Q 232.9 160.3, 232.9 158.6 Q 232.9 157.0, 232.2 156.2 Q 231.5 155.4, 230.3 155.4 Q 229.0 155.4, 228.4 156.2 Q 227.7 157.0, 227.7 158.6 Q 227.7 160.3, 228.4 161.1 Q 229.0 161.9, 230.3 161.9 " fill="#FF0000"/>
<path class="atom-25" d="M 276.1 128.8 Q 276.1 126.8, 277.1 125.7 Q 278.1 124.6, 279.9 124.6 Q 281.7 124.6, 282.7 125.7 Q 283.7 126.8, 283.7 128.8 Q 283.7 130.8, 282.7 131.9 Q 281.7 133.0, 279.9 133.0 Q 278.1 133.0, 277.1 131.9 Q 276.1 130.8, 276.1 128.8 M 279.9 132.1 Q 281.1 132.1, 281.8 131.3 Q 282.5 130.4, 282.5 128.8 Q 282.5 127.2, 281.8 126.4 Q 281.1 125.6, 279.9 125.6 Q 278.6 125.6, 278.0 126.4 Q 277.3 127.2, 277.3 128.8 Q 277.3 130.5, 278.0 131.3 Q 278.6 132.1, 279.9 132.1 " fill="#FF0000"/>
<path class="atom-25" d="M 284.9 124.7 L 286.0 124.7 L 286.0 128.2 L 290.2 128.2 L 290.2 124.7 L 291.4 124.7 L 291.4 132.9 L 290.2 132.9 L 290.2 129.1 L 286.0 129.1 L 286.0 132.9 L 284.9 132.9 L 284.9 124.7 " fill="#FF0000"/>
</svg>
