<?xml version='1.0' encoding='ASCII' standalone='yes'?>
<svg xmlns="http://www.w3.org/2000/svg" xmlns:rdkit="http://www.rdkit.org/xml" xmlns:xlink="http://www.w3.org/1999/xlink" version="1.1" baseProfile="full" xml:space="preserve" width="297px" height="200px" viewBox="0 0 297 200">
<!-- END OF HEADER -->
<rect style="opacity:1.0;fill:#FFFFFF;stroke:none" width="297.0" height="200.0" x="0.0" y="0.0"> </rect>
<path class="bond-0 atom-0 atom-1" d="M 193.5,37.6 L 220.1,57.2" style="fill:none;fill-rule:evenodd;stroke:#000000;stroke-width:2.0px;stroke-linecap:butt;stroke-linejoin:miter;stroke-opacity:1"/>
<path class="bond-1 atom-1 atom-2" d="M 220.1,57.2 L 216.4,90.0" style="fill:none;fill-rule:evenodd;stroke:#000000;stroke-width:2.0px;stroke-linecap:butt;stroke-linejoin:miter;stroke-opacity:1"/>
<path class="bond-2 atom-2 atom-3" d="M 216.4,90.0 L 212.8,122.8" style="fill:none;fill-rule:evenodd;stroke:#000000;stroke-width:2.0px;stroke-linecap:butt;stroke-linejoin:miter;stroke-opacity:1"/>
<path class="bond-3 atom-2 atom-4" d="M 216.4,90.0 L 183.6,86.3" style="fill:none;fill-rule:evenodd;stroke:#000000;stroke-width:2.0px;stroke-linecap:butt;stroke-linejoin:miter;stroke-opacity:1"/>
<path class="bond-4 atom-4 atom-5" d="M 183.6,86.3 L 164.1,112.9" style="fill:none;fill-rule:evenodd;stroke:#000000;stroke-width:2.0px;stroke-linecap:butt;stroke-linejoin:miter;stroke-opacity:1"/>
<path class="bond-5 atom-5 atom-6" d="M 164.1,112.9 L 190.6,132.5" style="fill:none;fill-rule:evenodd;stroke:#000000;stroke-width:2.0px;stroke-linecap:butt;stroke-linejoin:miter;stroke-opacity:1"/>
<path class="bond-6 atom-6 atom-7" d="M 190.6,132.5 L 187.0,165.2" style="fill:none;fill-rule:evenodd;stroke:#000000;stroke-width:2.0px;stroke-linecap:butt;stroke-linejoin:miter;stroke-opacity:1"/>
<path class="bond-7 atom-5 atom-8" d="M 164.1,112.9 L 137.5,93.3" style="fill:none;fill-rule:evenodd;stroke:#000000;stroke-width:2.0px;stroke-linecap:butt;stroke-linejoin:miter;stroke-opacity:1"/>
<path class="bond-8 atom-8 atom-9" d="M 137.5,93.3 L 107.3,106.5" style="fill:none;fill-rule:evenodd;stroke:#000000;stroke-width:2.0px;stroke-linecap:butt;stroke-linejoin:miter;stroke-opacity:1"/>
<path class="bond-9 atom-9 atom-10" d="M 107.3,106.5 L 80.7,87.0" style="fill:none;fill-rule:evenodd;stroke:#000000;stroke-width:2.0px;stroke-linecap:butt;stroke-linejoin:miter;stroke-opacity:1"/>
<path class="bond-10 atom-10 atom-11" d="M 80.7,87.0 L 54.2,67.4" style="fill:none;fill-rule:evenodd;stroke:#000000;stroke-width:2.0px;stroke-linecap:butt;stroke-linejoin:miter;stroke-opacity:1"/>
<path class="bond-11 atom-10 atom-12" d="M 80.7,87.0 L 100.3,60.4" style="fill:none;fill-rule:evenodd;stroke:#000000;stroke-width:2.0px;stroke-linecap:butt;stroke-linejoin:miter;stroke-opacity:1"/>
<path class="bond-12 atom-12 atom-13" d="M 100.3,60.4 L 95.0,48.3" style="fill:none;fill-rule:evenodd;stroke:#000000;stroke-width:2.0px;stroke-linecap:butt;stroke-linejoin:miter;stroke-opacity:1"/>
<path class="bond-12 atom-12 atom-13" d="M 95.0,48.3 L 89.7,36.1" style="fill:none;fill-rule:evenodd;stroke:#FF0000;stroke-width:2.0px;stroke-linecap:butt;stroke-linejoin:miter;stroke-opacity:1"/>
<path class="bond-13 atom-10 atom-14" d="M 80.7,87.0 L 61.2,113.5" style="fill:none;fill-rule:evenodd;stroke:#000000;stroke-width:2.0px;stroke-linecap:butt;stroke-linejoin:miter;stroke-opacity:1"/>
<path class="bond-14 atom-14 atom-15" d="M 58.3,113.2 L 63.9,126.1" style="fill:none;fill-rule:evenodd;stroke:#000000;stroke-width:2.0px;stroke-linecap:butt;stroke-linejoin:miter;stroke-opacity:1"/>
<path class="bond-14 atom-14 atom-15" d="M 63.9,126.1 L 69.6,138.9" style="fill:none;fill-rule:evenodd;stroke:#FF0000;stroke-width:2.0px;stroke-linecap:butt;stroke-linejoin:miter;stroke-opacity:1"/>
<path class="bond-14 atom-14 atom-15" d="M 62.8,111.2 L 68.5,124.1" style="fill:none;fill-rule:evenodd;stroke:#000000;stroke-width:2.0px;stroke-linecap:butt;stroke-linejoin:miter;stroke-opacity:1"/>
<path class="bond-14 atom-14 atom-15" d="M 68.5,124.1 L 74.1,137.0" style="fill:none;fill-rule:evenodd;stroke:#FF0000;stroke-width:2.0px;stroke-linecap:butt;stroke-linejoin:miter;stroke-opacity:1"/>
<path class="bond-15 atom-14 atom-16" d="M 61.2,113.5 L 47.4,112.0" style="fill:none;fill-rule:evenodd;stroke:#000000;stroke-width:2.0px;stroke-linecap:butt;stroke-linejoin:miter;stroke-opacity:1"/>
<path class="bond-15 atom-14 atom-16" d="M 47.4,112.0 L 33.7,110.5" style="fill:none;fill-rule:evenodd;stroke:#FF0000;stroke-width:2.0px;stroke-linecap:butt;stroke-linejoin:miter;stroke-opacity:1"/>
<path class="bond-16 atom-5 atom-17" d="M 164.1,112.9 L 144.5,139.5" style="fill:none;fill-rule:evenodd;stroke:#000000;stroke-width:2.0px;stroke-linecap:butt;stroke-linejoin:miter;stroke-opacity:1"/>
<path class="bond-17 atom-17 atom-18" d="M 144.5,139.5 L 149.8,151.7" style="fill:none;fill-rule:evenodd;stroke:#000000;stroke-width:2.0px;stroke-linecap:butt;stroke-linejoin:miter;stroke-opacity:1"/>
<path class="bond-17 atom-17 atom-18" d="M 149.8,151.7 L 155.2,163.9" style="fill:none;fill-rule:evenodd;stroke:#FF0000;stroke-width:2.0px;stroke-linecap:butt;stroke-linejoin:miter;stroke-opacity:1"/>
<path class="bond-18 atom-17 atom-19" d="M 144.5,139.5 L 130.8,137.9" style="fill:none;fill-rule:evenodd;stroke:#000000;stroke-width:2.0px;stroke-linecap:butt;stroke-linejoin:miter;stroke-opacity:1"/>
<path class="bond-18 atom-17 atom-19" d="M 130.8,137.9 L 117.1,136.4" style="fill:none;fill-rule:evenodd;stroke:#FF0000;stroke-width:2.0px;stroke-linecap:butt;stroke-linejoin:miter;stroke-opacity:1"/>
<path class="bond-19 atom-2 atom-20" d="M 216.4,90.0 L 249.2,93.7" style="fill:none;fill-rule:evenodd;stroke:#000000;stroke-width:2.0px;stroke-linecap:butt;stroke-linejoin:miter;stroke-opacity:1"/>
<path class="bond-20 atom-20 atom-21" d="M 249.2,93.7 L 254.6,105.9" style="fill:none;fill-rule:evenodd;stroke:#000000;stroke-width:2.0px;stroke-linecap:butt;stroke-linejoin:miter;stroke-opacity:1"/>
<path class="bond-20 atom-20 atom-21" d="M 254.6,105.9 L 259.9,118.1" style="fill:none;fill-rule:evenodd;stroke:#FF0000;stroke-width:2.0px;stroke-linecap:butt;stroke-linejoin:miter;stroke-opacity:1"/>
<path class="bond-21 atom-20 atom-22" d="M 249.2,93.7 L 256.8,83.4" style="fill:none;fill-rule:evenodd;stroke:#000000;stroke-width:2.0px;stroke-linecap:butt;stroke-linejoin:miter;stroke-opacity:1"/>
<path class="bond-21 atom-20 atom-22" d="M 256.8,83.4 L 264.4,73.1" style="fill:none;fill-rule:evenodd;stroke:#FF0000;stroke-width:2.0px;stroke-linecap:butt;stroke-linejoin:miter;stroke-opacity:1"/>
<path d="M 218.8,56.2 L 220.1,57.2 L 219.9,58.8" style="fill:none;stroke:#000000;stroke-width:2.0px;stroke-linecap:butt;stroke-linejoin:miter;stroke-opacity:1;"/>
<path d="M 185.3,86.5 L 183.6,86.3 L 182.7,87.7" style="fill:none;stroke:#000000;stroke-width:2.0px;stroke-linecap:butt;stroke-linejoin:miter;stroke-opacity:1;"/>
<path d="M 189.3,131.5 L 190.6,132.5 L 190.5,134.1" style="fill:none;stroke:#000000;stroke-width:2.0px;stroke-linecap:butt;stroke-linejoin:miter;stroke-opacity:1;"/>
<path d="M 138.8,94.3 L 137.5,93.3 L 136.0,94.0" style="fill:none;stroke:#000000;stroke-width:2.0px;stroke-linecap:butt;stroke-linejoin:miter;stroke-opacity:1;"/>
<path d="M 108.8,105.9 L 107.3,106.5 L 106.0,105.6" style="fill:none;stroke:#000000;stroke-width:2.0px;stroke-linecap:butt;stroke-linejoin:miter;stroke-opacity:1;"/>
<path d="M 99.3,61.7 L 100.3,60.4 L 100.0,59.8" style="fill:none;stroke:#000000;stroke-width:2.0px;stroke-linecap:butt;stroke-linejoin:miter;stroke-opacity:1;"/>
<path d="M 62.1,112.2 L 61.2,113.5 L 60.5,113.5" style="fill:none;stroke:#000000;stroke-width:2.0px;stroke-linecap:butt;stroke-linejoin:miter;stroke-opacity:1;"/>
<path class="atom-13" d="M 73.6 25.6 L 74.8 25.6 L 74.8 29.5 L 79.6 29.5 L 79.6 25.6 L 80.9 25.6 L 80.9 34.9 L 79.6 34.9 L 79.6 30.6 L 74.8 30.6 L 74.8 34.9 L 73.6 34.9 L 73.6 25.6 " fill="#FF0000"/>
<path class="atom-13" d="M 82.8 30.2 Q 82.8 28.0, 83.9 26.7 Q 85.0 25.5, 87.1 25.5 Q 89.1 25.5, 90.3 26.7 Q 91.4 28.0, 91.4 30.2 Q 91.4 32.5, 90.2 33.8 Q 89.1 35.0, 87.1 35.0 Q 85.0 35.0, 83.9 33.8 Q 82.8 32.5, 82.8 30.2 M 87.1 34.0 Q 88.5 34.0, 89.3 33.0 Q 90.0 32.1, 90.0 30.2 Q 90.0 28.4, 89.3 27.4 Q 88.5 26.5, 87.1 26.5 Q 85.7 26.5, 84.9 27.4 Q 84.1 28.4, 84.1 30.2 Q 84.1 32.1, 84.9 33.0 Q 85.7 34.0, 87.1 34.0 " fill="#FF0000"/>
<path class="atom-15" d="M 70.1 143.8 Q 70.1 141.5, 71.2 140.3 Q 72.3 139.0, 74.4 139.0 Q 76.4 139.0, 77.6 140.3 Q 78.7 141.5, 78.7 143.8 Q 78.7 146.1, 77.5 147.3 Q 76.4 148.6, 74.4 148.6 Q 72.3 148.6, 71.2 147.3 Q 70.1 146.1, 70.1 143.8 M 74.4 147.6 Q 75.8 147.6, 76.6 146.6 Q 77.3 145.7, 77.3 143.8 Q 77.3 141.9, 76.6 141.0 Q 75.8 140.1, 74.4 140.1 Q 72.9 140.1, 72.2 141.0 Q 71.4 141.9, 71.4 143.8 Q 71.4 145.7, 72.2 146.6 Q 72.9 147.6, 74.4 147.6 " fill="#FF0000"/>
<path class="atom-16" d="M 14.8 105.2 L 16.1 105.2 L 16.1 109.2 L 20.9 109.2 L 20.9 105.2 L 22.2 105.2 L 22.2 114.6 L 20.9 114.6 L 20.9 110.3 L 16.1 110.3 L 16.1 114.6 L 14.8 114.6 L 14.8 105.2 " fill="#FF0000"/>
<path class="atom-16" d="M 24.1 109.9 Q 24.1 107.6, 25.2 106.4 Q 26.3 105.1, 28.4 105.1 Q 30.4 105.1, 31.5 106.4 Q 32.7 107.6, 32.7 109.9 Q 32.7 112.2, 31.5 113.4 Q 30.4 114.7, 28.4 114.7 Q 26.3 114.7, 25.2 113.4 Q 24.1 112.2, 24.1 109.9 M 28.4 113.7 Q 29.8 113.7, 30.6 112.7 Q 31.3 111.8, 31.3 109.9 Q 31.3 108.1, 30.6 107.1 Q 29.8 106.2, 28.4 106.2 Q 26.9 106.2, 26.2 107.1 Q 25.4 108.0, 25.4 109.9 Q 25.4 111.8, 26.2 112.7 Q 26.9 113.7, 28.4 113.7 " fill="#FF0000"/>
<path class="atom-18" d="M 153.4 169.7 Q 153.4 167.5, 154.5 166.2 Q 155.7 165.0, 157.7 165.0 Q 159.8 165.0, 160.9 166.2 Q 162.0 167.5, 162.0 169.7 Q 162.0 172.0, 160.9 173.3 Q 159.8 174.5, 157.7 174.5 Q 155.7 174.5, 154.5 173.3 Q 153.4 172.0, 153.4 169.7 M 157.7 173.5 Q 159.2 173.5, 159.9 172.5 Q 160.7 171.6, 160.7 169.7 Q 160.7 167.9, 159.9 166.9 Q 159.2 166.0, 157.7 166.0 Q 156.3 166.0, 155.5 166.9 Q 154.8 167.9, 154.8 169.7 Q 154.8 171.6, 155.5 172.5 Q 156.3 173.5, 157.7 173.5 " fill="#FF0000"/>
<path class="atom-18" d="M 163.5 165.1 L 164.7 165.1 L 164.7 169.0 L 169.5 169.0 L 169.5 165.1 L 170.8 165.1 L 170.8 174.4 L 169.5 174.4 L 169.5 170.1 L 164.7 170.1 L 164.7 174.4 L 163.5 174.4 L 163.5 165.1 " fill="#FF0000"/>
<path class="atom-19" d="M 98.2 131.2 L 99.5 131.2 L 99.5 135.1 L 104.2 135.1 L 104.2 131.2 L 105.5 131.2 L 105.5 140.5 L 104.2 140.5 L 104.2 136.2 L 99.5 136.2 L 99.5 140.5 L 98.2 140.5 L 98.2 131.2 " fill="#FF0000"/>
<path class="atom-19" d="M 107.4 135.8 Q 107.4 133.6, 108.5 132.3 Q 109.6 131.1, 111.7 131.1 Q 113.8 131.1, 114.9 132.3 Q 116.0 133.6, 116.0 135.8 Q 116.0 138.1, 114.9 139.4 Q 113.8 140.7, 111.7 140.7 Q 109.7 140.7, 108.5 139.4 Q 107.4 138.1, 107.4 135.8 M 111.7 139.6 Q 113.1 139.6, 113.9 138.6 Q 114.7 137.7, 114.7 135.8 Q 114.7 134.0, 113.9 133.1 Q 113.1 132.1, 111.7 132.1 Q 110.3 132.1, 109.5 133.0 Q 108.7 134.0, 108.7 135.8 Q 108.7 137.7, 109.5 138.6 Q 110.3 139.6, 111.7 139.6 " fill="#FF0000"/>
<path class="atom-21" d="M 258.2 123.9 Q 258.2 121.7, 259.3 120.4 Q 260.4 119.2, 262.4 119.2 Q 264.5 119.2, 265.6 120.4 Q 266.7 121.7, 266.7 123.9 Q 266.7 126.2, 265.6 127.5 Q 264.5 128.8, 262.4 128.8 Q 260.4 128.8, 259.3 127.5 Q 258.2 126.2, 258.2 123.9 M 262.4 127.7 Q 263.9 127.7, 264.6 126.8 Q 265.4 125.8, 265.4 123.9 Q 265.4 122.1, 264.6 121.2 Q 263.9 120.2, 262.4 120.2 Q 261.0 120.2, 260.2 121.1 Q 259.5 122.1, 259.5 123.9 Q 259.5 125.8, 260.2 126.8 Q 261.0 127.7, 262.4 127.7 " fill="#FF0000"/>
<path class="atom-21" d="M 268.2 119.3 L 269.5 119.3 L 269.5 123.2 L 274.2 123.2 L 274.2 119.3 L 275.5 119.3 L 275.5 128.6 L 274.2 128.6 L 274.2 124.3 L 269.5 124.3 L 269.5 128.6 L 268.2 128.6 L 268.2 119.3 " fill="#FF0000"/>
<path class="atom-22" d="M 264.5 67.1 Q 264.5 64.9, 265.6 63.6 Q 266.7 62.4, 268.8 62.4 Q 270.9 62.4, 272.0 63.6 Q 273.1 64.9, 273.1 67.1 Q 273.1 69.4, 272.0 70.7 Q 270.8 72.0, 268.8 72.0 Q 266.7 72.0, 265.6 70.7 Q 264.5 69.4, 264.5 67.1 M 268.8 70.9 Q 270.2 70.9, 271.0 70.0 Q 271.8 69.0, 271.8 67.1 Q 271.8 65.3, 271.0 64.4 Q 270.2 63.4, 268.8 63.4 Q 267.4 63.4, 266.6 64.4 Q 265.8 65.3, 265.8 67.1 Q 265.8 69.0, 266.6 70.0 Q 267.4 70.9, 268.8 70.9 " fill="#FF0000"/>
<path class="atom-22" d="M 274.5 62.5 L 275.8 62.5 L 275.8 66.5 L 280.6 66.5 L 280.6 62.5 L 281.8 62.5 L 281.8 71.8 L 280.6 71.8 L 280.6 67.5 L 275.8 67.5 L 275.8 71.8 L 274.5 71.8 L 274.5 62.5 " fill="#FF0000"/>
</svg>
