<?xml version='1.0' encoding='ASCII' standalone='yes'?>
<svg xmlns="http://www.w3.org/2000/svg" xmlns:rdkit="http://www.rdkit.org/xml" xmlns:xlink="http://www.w3.org/1999/xlink" version="1.1" baseProfile="full" xml:space="preserve" width="285px" height="200px" viewBox="0 0 285 200">
<!-- END OF HEADER -->
<rect style="opacity:1.0;fill:#FFFFFF;stroke:none" width="285.0" height="200.0" x="0.0" y="0.0"> </rect>
<path class="bond-0 atom-0 atom-1" d="M 230.8,74.5 L 206.1,99.9" style="fill:none;fill-rule:evenodd;stroke:#000000;stroke-width:2.0px;stroke-linecap:butt;stroke-linejoin:miter;stroke-opacity:1"/>
<path class="bond-1 atom-1 atom-2" d="M 206.1,99.9 L 181.4,125.4" style="fill:none;fill-rule:evenodd;stroke:#000000;stroke-width:2.0px;stroke-linecap:butt;stroke-linejoin:miter;stroke-opacity:1"/>
<path class="bond-2 atom-1 atom-3" d="M 206.1,99.9 L 231.6,124.6" style="fill:none;fill-rule:evenodd;stroke:#000000;stroke-width:2.0px;stroke-linecap:butt;stroke-linejoin:miter;stroke-opacity:1"/>
<path class="bond-3 atom-3 atom-4" d="M 230.8,127.6 L 245.7,123.3" style="fill:none;fill-rule:evenodd;stroke:#000000;stroke-width:2.0px;stroke-linecap:butt;stroke-linejoin:miter;stroke-opacity:1"/>
<path class="bond-3 atom-3 atom-4" d="M 245.7,123.3 L 260.6,119.1" style="fill:none;fill-rule:evenodd;stroke:#FF0000;stroke-width:2.0px;stroke-linecap:butt;stroke-linejoin:miter;stroke-opacity:1"/>
<path class="bond-3 atom-3 atom-4" d="M 229.4,122.5 L 244.2,118.2" style="fill:none;fill-rule:evenodd;stroke:#000000;stroke-width:2.0px;stroke-linecap:butt;stroke-linejoin:miter;stroke-opacity:1"/>
<path class="bond-3 atom-3 atom-4" d="M 244.2,118.2 L 259.1,114.0" style="fill:none;fill-rule:evenodd;stroke:#FF0000;stroke-width:2.0px;stroke-linecap:butt;stroke-linejoin:miter;stroke-opacity:1"/>
<path class="bond-4 atom-3 atom-5" d="M 231.6,124.6 L 228.0,138.7" style="fill:none;fill-rule:evenodd;stroke:#000000;stroke-width:2.0px;stroke-linecap:butt;stroke-linejoin:miter;stroke-opacity:1"/>
<path class="bond-4 atom-3 atom-5" d="M 228.0,138.7 L 224.5,152.7" style="fill:none;fill-rule:evenodd;stroke:#FF0000;stroke-width:2.0px;stroke-linecap:butt;stroke-linejoin:miter;stroke-opacity:1"/>
<path class="bond-5 atom-1 atom-6" d="M 206.1,99.9 L 180.7,75.3" style="fill:none;fill-rule:evenodd;stroke:#000000;stroke-width:2.0px;stroke-linecap:butt;stroke-linejoin:miter;stroke-opacity:1"/>
<path class="bond-6 atom-6 atom-7" d="M 180.7,75.3 L 184.2,61.3" style="fill:none;fill-rule:evenodd;stroke:#000000;stroke-width:2.0px;stroke-linecap:butt;stroke-linejoin:miter;stroke-opacity:1"/>
<path class="bond-6 atom-6 atom-7" d="M 184.2,61.3 L 187.7,47.3" style="fill:none;fill-rule:evenodd;stroke:#FF0000;stroke-width:2.0px;stroke-linecap:butt;stroke-linejoin:miter;stroke-opacity:1"/>
<path class="bond-7 atom-6 atom-8" d="M 180.7,75.3 L 146.6,85.0" style="fill:none;fill-rule:evenodd;stroke:#000000;stroke-width:2.0px;stroke-linecap:butt;stroke-linejoin:miter;stroke-opacity:1"/>
<path class="bond-8 atom-8 atom-9" d="M 146.6,85.0 L 156.3,119.0" style="fill:none;fill-rule:evenodd;stroke:#000000;stroke-width:2.0px;stroke-linecap:butt;stroke-linejoin:miter;stroke-opacity:1"/>
<path class="bond-9 atom-8 atom-10" d="M 146.6,85.0 L 136.9,50.9" style="fill:none;fill-rule:evenodd;stroke:#000000;stroke-width:2.0px;stroke-linecap:butt;stroke-linejoin:miter;stroke-opacity:1"/>
<path class="bond-10 atom-8 atom-11" d="M 146.6,85.0 L 112.5,94.7" style="fill:none;fill-rule:evenodd;stroke:#000000;stroke-width:2.0px;stroke-linecap:butt;stroke-linejoin:miter;stroke-opacity:1"/>
<path class="bond-11 atom-11 atom-12" d="M 112.5,94.7 L 116.4,108.6" style="fill:none;fill-rule:evenodd;stroke:#000000;stroke-width:2.0px;stroke-linecap:butt;stroke-linejoin:miter;stroke-opacity:1"/>
<path class="bond-11 atom-11 atom-12" d="M 116.4,108.6 L 120.4,122.5" style="fill:none;fill-rule:evenodd;stroke:#FF0000;stroke-width:2.0px;stroke-linecap:butt;stroke-linejoin:miter;stroke-opacity:1"/>
<path class="bond-12 atom-11 atom-13" d="M 112.5,94.7 L 108.5,80.8" style="fill:none;fill-rule:evenodd;stroke:#000000;stroke-width:2.0px;stroke-linecap:butt;stroke-linejoin:miter;stroke-opacity:1"/>
<path class="bond-12 atom-11 atom-13" d="M 108.5,80.8 L 104.6,67.0" style="fill:none;fill-rule:evenodd;stroke:#FF0000;stroke-width:2.0px;stroke-linecap:butt;stroke-linejoin:miter;stroke-opacity:1"/>
<path class="bond-13 atom-11 atom-14" d="M 112.5,94.7 L 78.4,104.4" style="fill:none;fill-rule:evenodd;stroke:#000000;stroke-width:2.0px;stroke-linecap:butt;stroke-linejoin:miter;stroke-opacity:1"/>
<path class="bond-14 atom-14 atom-15" d="M 78.4,104.4 L 88.1,138.5" style="fill:none;fill-rule:evenodd;stroke:#000000;stroke-width:2.0px;stroke-linecap:butt;stroke-linejoin:miter;stroke-opacity:1"/>
<path class="bond-15 atom-14 atom-16" d="M 78.4,104.4 L 68.7,70.3" style="fill:none;fill-rule:evenodd;stroke:#000000;stroke-width:2.0px;stroke-linecap:butt;stroke-linejoin:miter;stroke-opacity:1"/>
<path class="bond-16 atom-14 atom-17" d="M 78.4,104.4 L 44.3,114.1" style="fill:none;fill-rule:evenodd;stroke:#000000;stroke-width:2.0px;stroke-linecap:butt;stroke-linejoin:miter;stroke-opacity:1"/>
<path class="bond-17 atom-17 atom-18" d="M 47.3,113.2 L 36.9,103.2" style="fill:none;fill-rule:evenodd;stroke:#000000;stroke-width:2.0px;stroke-linecap:butt;stroke-linejoin:miter;stroke-opacity:1"/>
<path class="bond-17 atom-17 atom-18" d="M 36.9,103.2 L 26.5,93.1" style="fill:none;fill-rule:evenodd;stroke:#FF0000;stroke-width:2.0px;stroke-linecap:butt;stroke-linejoin:miter;stroke-opacity:1"/>
<path class="bond-17 atom-17 atom-18" d="M 43.6,117.1 L 33.2,107.0" style="fill:none;fill-rule:evenodd;stroke:#000000;stroke-width:2.0px;stroke-linecap:butt;stroke-linejoin:miter;stroke-opacity:1"/>
<path class="bond-17 atom-17 atom-18" d="M 33.2,107.0 L 22.8,96.9" style="fill:none;fill-rule:evenodd;stroke:#FF0000;stroke-width:2.0px;stroke-linecap:butt;stroke-linejoin:miter;stroke-opacity:1"/>
<path class="bond-18 atom-17 atom-19" d="M 44.3,114.1 L 40.8,128.1" style="fill:none;fill-rule:evenodd;stroke:#000000;stroke-width:2.0px;stroke-linecap:butt;stroke-linejoin:miter;stroke-opacity:1"/>
<path class="bond-18 atom-17 atom-19" d="M 40.8,128.1 L 37.2,142.2" style="fill:none;fill-rule:evenodd;stroke:#FF0000;stroke-width:2.0px;stroke-linecap:butt;stroke-linejoin:miter;stroke-opacity:1"/>
<path d="M 230.3,123.4 L 231.6,124.6 L 231.4,125.3" style="fill:none;stroke:#000000;stroke-width:2.0px;stroke-linecap:butt;stroke-linejoin:miter;stroke-opacity:1;"/>
<path d="M 46.0,113.6 L 44.3,114.1 L 44.1,114.8" style="fill:none;stroke:#000000;stroke-width:2.0px;stroke-linecap:butt;stroke-linejoin:miter;stroke-opacity:1;"/>
<path class="atom-4" d="M 261.0 114.9 Q 261.0 112.5, 262.2 111.2 Q 263.4 109.8, 265.6 109.8 Q 267.9 109.8, 269.1 111.2 Q 270.2 112.5, 270.2 114.9 Q 270.2 117.3, 269.0 118.7 Q 267.8 120.1, 265.6 120.1 Q 263.4 120.1, 262.2 118.7 Q 261.0 117.4, 261.0 114.9 M 265.6 119.0 Q 267.2 119.0, 268.0 118.0 Q 268.8 116.9, 268.8 114.9 Q 268.8 112.9, 268.0 111.9 Q 267.2 110.9, 265.6 110.9 Q 264.1 110.9, 263.3 111.9 Q 262.5 112.9, 262.5 114.9 Q 262.5 116.9, 263.3 118.0 Q 264.1 119.0, 265.6 119.0 " fill="#FF0000"/>
<path class="atom-5" d="M 218.3 159.0 Q 218.3 156.6, 219.5 155.2 Q 220.7 153.9, 222.9 153.9 Q 225.1 153.9, 226.3 155.2 Q 227.5 156.6, 227.5 159.0 Q 227.5 161.4, 226.3 162.8 Q 225.1 164.2, 222.9 164.2 Q 220.7 164.2, 219.5 162.8 Q 218.3 161.4, 218.3 159.0 M 222.9 163.1 Q 224.4 163.1, 225.3 162.0 Q 226.1 161.0, 226.1 159.0 Q 226.1 157.0, 225.3 156.0 Q 224.4 155.0, 222.9 155.0 Q 221.4 155.0, 220.6 156.0 Q 219.7 157.0, 219.7 159.0 Q 219.7 161.0, 220.6 162.0 Q 221.4 163.1, 222.9 163.1 " fill="#FF0000"/>
<path class="atom-5" d="M 229.1 154.0 L 230.4 154.0 L 230.4 158.3 L 235.6 158.3 L 235.6 154.0 L 236.9 154.0 L 236.9 164.0 L 235.6 164.0 L 235.6 159.4 L 230.4 159.4 L 230.4 164.0 L 229.1 164.0 L 229.1 154.0 " fill="#FF0000"/>
<path class="atom-7" d="M 184.7 40.9 Q 184.7 38.5, 185.9 37.2 Q 187.1 35.8, 189.3 35.8 Q 191.5 35.8, 192.7 37.2 Q 193.9 38.5, 193.9 40.9 Q 193.9 43.3, 192.7 44.7 Q 191.5 46.1, 189.3 46.1 Q 187.1 46.1, 185.9 44.7 Q 184.7 43.4, 184.7 40.9 M 189.3 45.0 Q 190.8 45.0, 191.6 44.0 Q 192.5 42.9, 192.5 40.9 Q 192.5 38.9, 191.6 37.9 Q 190.8 36.9, 189.3 36.9 Q 187.8 36.9, 186.9 37.9 Q 186.1 38.9, 186.1 40.9 Q 186.1 42.9, 186.9 44.0 Q 187.8 45.0, 189.3 45.0 " fill="#FF0000"/>
<path class="atom-7" d="M 195.5 35.9 L 196.8 35.9 L 196.8 40.2 L 202.0 40.2 L 202.0 35.9 L 203.3 35.9 L 203.3 46.0 L 202.0 46.0 L 202.0 41.3 L 196.8 41.3 L 196.8 46.0 L 195.5 46.0 L 195.5 35.9 " fill="#FF0000"/>
<path class="atom-12" d="M 117.6 128.8 Q 117.6 126.4, 118.8 125.0 Q 120.0 123.7, 122.2 123.7 Q 124.4 123.7, 125.6 125.0 Q 126.8 126.4, 126.8 128.8 Q 126.8 131.2, 125.6 132.6 Q 124.4 134.0, 122.2 134.0 Q 120.0 134.0, 118.8 132.6 Q 117.6 131.2, 117.6 128.8 M 122.2 132.9 Q 123.7 132.9, 124.5 131.8 Q 125.4 130.8, 125.4 128.8 Q 125.4 126.8, 124.5 125.8 Q 123.7 124.8, 122.2 124.8 Q 120.7 124.8, 119.8 125.8 Q 119.0 126.8, 119.0 128.8 Q 119.0 130.8, 119.8 131.8 Q 120.7 132.9, 122.2 132.9 " fill="#FF0000"/>
<path class="atom-12" d="M 128.4 123.8 L 129.7 123.8 L 129.7 128.1 L 134.9 128.1 L 134.9 123.8 L 136.2 123.8 L 136.2 133.8 L 134.9 133.8 L 134.9 129.2 L 129.7 129.2 L 129.7 133.8 L 128.4 133.8 L 128.4 123.8 " fill="#FF0000"/>
<path class="atom-13" d="M 98.2 60.6 Q 98.2 58.2, 99.4 56.9 Q 100.5 55.5, 102.8 55.5 Q 105.0 55.5, 106.2 56.9 Q 107.4 58.2, 107.4 60.6 Q 107.4 63.0, 106.2 64.4 Q 105.0 65.8, 102.8 65.8 Q 100.6 65.8, 99.4 64.4 Q 98.2 63.1, 98.2 60.6 M 102.8 64.7 Q 104.3 64.7, 105.1 63.7 Q 106.0 62.6, 106.0 60.6 Q 106.0 58.6, 105.1 57.6 Q 104.3 56.6, 102.8 56.6 Q 101.2 56.6, 100.4 57.6 Q 99.6 58.6, 99.6 60.6 Q 99.6 62.6, 100.4 63.7 Q 101.2 64.7, 102.8 64.7 " fill="#FF0000"/>
<path class="atom-13" d="M 108.9 55.6 L 110.3 55.6 L 110.3 59.9 L 115.4 59.9 L 115.4 55.6 L 116.8 55.6 L 116.8 65.7 L 115.4 65.7 L 115.4 61.0 L 110.3 61.0 L 110.3 65.7 L 108.9 65.7 L 108.9 55.6 " fill="#FF0000"/>
<path class="atom-18" d="M 14.3 89.4 Q 14.3 87.0, 15.4 85.7 Q 16.6 84.3, 18.9 84.3 Q 21.1 84.3, 22.3 85.7 Q 23.5 87.0, 23.5 89.4 Q 23.5 91.9, 22.3 93.3 Q 21.1 94.6, 18.9 94.6 Q 16.6 94.6, 15.4 93.3 Q 14.3 91.9, 14.3 89.4 M 18.9 93.5 Q 20.4 93.5, 21.2 92.5 Q 22.0 91.5, 22.0 89.4 Q 22.0 87.5, 21.2 86.5 Q 20.4 85.5, 18.9 85.5 Q 17.3 85.5, 16.5 86.5 Q 15.7 87.5, 15.7 89.4 Q 15.7 91.5, 16.5 92.5 Q 17.3 93.5, 18.9 93.5 " fill="#FF0000"/>
<path class="atom-19" d="M 31.1 148.5 Q 31.1 146.1, 32.3 144.7 Q 33.4 143.4, 35.7 143.4 Q 37.9 143.4, 39.1 144.7 Q 40.3 146.1, 40.3 148.5 Q 40.3 150.9, 39.1 152.3 Q 37.9 153.7, 35.7 153.7 Q 33.5 153.7, 32.3 152.3 Q 31.1 150.9, 31.1 148.5 M 35.7 152.6 Q 37.2 152.6, 38.0 151.5 Q 38.9 150.5, 38.9 148.5 Q 38.9 146.5, 38.0 145.5 Q 37.2 144.5, 35.7 144.5 Q 34.1 144.5, 33.3 145.5 Q 32.5 146.5, 32.5 148.5 Q 32.5 150.5, 33.3 151.5 Q 34.1 152.6, 35.7 152.6 " fill="#FF0000"/>
<path class="atom-19" d="M 41.8 143.5 L 43.2 143.5 L 43.2 147.8 L 48.3 147.8 L 48.3 143.5 L 49.7 143.5 L 49.7 153.5 L 48.3 153.5 L 48.3 148.9 L 43.2 148.9 L 43.2 153.5 L 41.8 153.5 L 41.8 143.5 " fill="#FF0000"/>
</svg>
