<?xml version='1.0' encoding='ASCII' standalone='yes'?>
<svg xmlns="http://www.w3.org/2000/svg" xmlns:rdkit="http://www.rdkit.org/xml" xmlns:xlink="http://www.w3.org/1999/xlink" version="1.1" baseProfile="full" xml:space="preserve" width="205px" height="200px" viewBox="0 0 205 200">
<!-- END OF HEADER -->
<rect style="opacity:1.0;fill:#FFFFFF;stroke:none" width="205.0" height="200.0" x="0.0" y="0.0"> </rect>
<path class="bond-0 atom-0 atom-1" d="M 160.9,156.3 L 139.0,143.6" style="fill:none;fill-rule:evenodd;stroke:#FF0000;stroke-width:2.0px;stroke-linecap:butt;stroke-linejoin:miter;stroke-opacity:1"/>
<path class="bond-0 atom-0 atom-1" d="M 139.0,143.6 L 117.1,131.0" style="fill:none;fill-rule:evenodd;stroke:#000000;stroke-width:2.0px;stroke-linecap:butt;stroke-linejoin:miter;stroke-opacity:1"/>
<path class="bond-1 atom-1 atom-2" d="M 117.1,131.0 L 63.2,162.1" style="fill:none;fill-rule:evenodd;stroke:#000000;stroke-width:2.0px;stroke-linecap:butt;stroke-linejoin:miter;stroke-opacity:1"/>
<path class="bond-1 atom-1 atom-2" d="M 107.8,125.6 L 63.2,151.3" style="fill:none;fill-rule:evenodd;stroke:#000000;stroke-width:2.0px;stroke-linecap:butt;stroke-linejoin:miter;stroke-opacity:1"/>
<path class="bond-2 atom-2 atom-3" d="M 63.2,162.1 L 9.3,131.0" style="fill:none;fill-rule:evenodd;stroke:#000000;stroke-width:2.0px;stroke-linecap:butt;stroke-linejoin:miter;stroke-opacity:1"/>
<path class="bond-3 atom-3 atom-4" d="M 9.3,131.0 L 9.3,68.7" style="fill:none;fill-rule:evenodd;stroke:#000000;stroke-width:2.0px;stroke-linecap:butt;stroke-linejoin:miter;stroke-opacity:1"/>
<path class="bond-3 atom-3 atom-4" d="M 18.7,125.6 L 18.7,74.1" style="fill:none;fill-rule:evenodd;stroke:#000000;stroke-width:2.0px;stroke-linecap:butt;stroke-linejoin:miter;stroke-opacity:1"/>
<path class="bond-4 atom-4 atom-5" d="M 9.3,68.7 L 63.2,37.6" style="fill:none;fill-rule:evenodd;stroke:#000000;stroke-width:2.0px;stroke-linecap:butt;stroke-linejoin:miter;stroke-opacity:1"/>
<path class="bond-5 atom-5 atom-6" d="M 63.2,37.6 L 117.1,68.7" style="fill:none;fill-rule:evenodd;stroke:#000000;stroke-width:2.0px;stroke-linecap:butt;stroke-linejoin:miter;stroke-opacity:1"/>
<path class="bond-5 atom-5 atom-6" d="M 63.2,48.4 L 107.8,74.1" style="fill:none;fill-rule:evenodd;stroke:#000000;stroke-width:2.0px;stroke-linecap:butt;stroke-linejoin:miter;stroke-opacity:1"/>
<path class="bond-6 atom-6 atom-7" d="M 117.1,68.7 L 139.0,56.1" style="fill:none;fill-rule:evenodd;stroke:#000000;stroke-width:2.0px;stroke-linecap:butt;stroke-linejoin:miter;stroke-opacity:1"/>
<path class="bond-6 atom-6 atom-7" d="M 139.0,56.1 L 160.9,43.5" style="fill:none;fill-rule:evenodd;stroke:#FF0000;stroke-width:2.0px;stroke-linecap:butt;stroke-linejoin:miter;stroke-opacity:1"/>
<path class="bond-7 atom-6 atom-1" d="M 117.1,68.7 L 117.1,131.0" style="fill:none;fill-rule:evenodd;stroke:#000000;stroke-width:2.0px;stroke-linecap:butt;stroke-linejoin:miter;stroke-opacity:1"/>
<path d="M 65.9,160.6 L 63.2,162.1 L 60.5,160.6" style="fill:none;stroke:#000000;stroke-width:2.0px;stroke-linecap:butt;stroke-linejoin:miter;stroke-opacity:1;"/>
<path d="M 12.0,132.5 L 9.3,131.0 L 9.3,127.9" style="fill:none;stroke:#000000;stroke-width:2.0px;stroke-linecap:butt;stroke-linejoin:miter;stroke-opacity:1;"/>
<path d="M 9.3,71.9 L 9.3,68.7 L 12.0,67.2" style="fill:none;stroke:#000000;stroke-width:2.0px;stroke-linecap:butt;stroke-linejoin:miter;stroke-opacity:1;"/>
<path d="M 60.5,39.2 L 63.2,37.6 L 65.9,39.2" style="fill:none;stroke:#000000;stroke-width:2.0px;stroke-linecap:butt;stroke-linejoin:miter;stroke-opacity:1;"/>
<path class="atom-0" d="M 163.0 162.2 Q 163.0 157.9, 165.0 155.6 Q 167.1 153.2, 171.1 153.2 Q 175.0 153.2, 177.1 155.6 Q 179.1 157.9, 179.1 162.2 Q 179.1 166.4, 177.0 168.9 Q 174.9 171.3, 171.1 171.3 Q 167.2 171.3, 165.0 168.9 Q 163.0 166.5, 163.0 162.2 M 171.1 169.3 Q 173.7 169.3, 175.2 167.5 Q 176.7 165.7, 176.7 162.2 Q 176.7 158.7, 175.2 157.0 Q 173.7 155.2, 171.1 155.2 Q 168.4 155.2, 166.9 156.9 Q 165.4 158.7, 165.4 162.2 Q 165.4 165.7, 166.9 167.5 Q 168.4 169.3, 171.1 169.3 " fill="#FF0000"/>
<path class="atom-0" d="M 181.9 153.4 L 184.3 153.4 L 184.3 160.9 L 193.3 160.9 L 193.3 153.4 L 195.7 153.4 L 195.7 171.0 L 193.3 171.0 L 193.3 162.9 L 184.3 162.9 L 184.3 171.0 L 181.9 171.0 L 181.9 153.4 " fill="#FF0000"/>
<path class="atom-7" d="M 163.0 37.7 Q 163.0 33.4, 165.0 31.1 Q 167.1 28.7, 171.1 28.7 Q 175.0 28.7, 177.1 31.1 Q 179.1 33.4, 179.1 37.7 Q 179.1 41.9, 177.0 44.4 Q 174.9 46.8, 171.1 46.8 Q 167.2 46.8, 165.0 44.4 Q 163.0 42.0, 163.0 37.7 M 171.1 44.8 Q 173.7 44.8, 175.2 43.0 Q 176.7 41.2, 176.7 37.7 Q 176.7 34.2, 175.2 32.5 Q 173.7 30.7, 171.1 30.7 Q 168.4 30.7, 166.9 32.4 Q 165.4 34.2, 165.4 37.7 Q 165.4 41.2, 166.9 43.0 Q 168.4 44.8, 171.1 44.8 " fill="#FF0000"/>
<path class="atom-7" d="M 181.9 28.9 L 184.3 28.9 L 184.3 36.4 L 193.3 36.4 L 193.3 28.9 L 195.7 28.9 L 195.7 46.5 L 193.3 46.5 L 193.3 38.4 L 184.3 38.4 L 184.3 46.5 L 181.9 46.5 L 181.9 28.9 " fill="#FF0000"/>
</svg>
