<?xml version='1.0' encoding='ASCII' standalone='yes'?>
<svg xmlns="http://www.w3.org/2000/svg" xmlns:rdkit="http://www.rdkit.org/xml" xmlns:xlink="http://www.w3.org/1999/xlink" version="1.1" baseProfile="full" xml:space="preserve" width="323px" height="200px" viewBox="0 0 323 200">
<!-- END OF HEADER -->
<rect style="opacity:1.0;fill:#FFFFFF;stroke:none" width="323.0" height="200.0" x="0.0" y="0.0"> </rect>
<path class="bond-0 atom-0 atom-1" d="M 206.4,42.1 L 193.8,68.1" style="fill:none;fill-rule:evenodd;stroke:#000000;stroke-width:2.0px;stroke-linecap:butt;stroke-linejoin:miter;stroke-opacity:1"/>
<path class="bond-1 atom-1 atom-2" d="M 193.8,68.1 L 198.7,69.8" style="fill:none;fill-rule:evenodd;stroke:#000000;stroke-width:2.0px;stroke-linecap:butt;stroke-linejoin:miter;stroke-opacity:1"/>
<path class="bond-1 atom-1 atom-2" d="M 198.7,69.8 L 203.7,71.5" style="fill:none;fill-rule:evenodd;stroke:#FF0000;stroke-width:2.0px;stroke-linecap:butt;stroke-linejoin:miter;stroke-opacity:1"/>
<path class="bond-2 atom-1 atom-3" d="M 193.8,68.1 L 181.2,94.2" style="fill:none;fill-rule:evenodd;stroke:#000000;stroke-width:2.0px;stroke-linecap:butt;stroke-linejoin:miter;stroke-opacity:1"/>
<path class="bond-3 atom-3 atom-4" d="M 181.2,94.2 L 197.5,118.1" style="fill:none;fill-rule:evenodd;stroke:#000000;stroke-width:2.0px;stroke-linecap:butt;stroke-linejoin:miter;stroke-opacity:1"/>
<path class="bond-4 atom-4 atom-5" d="M 197.5,118.1 L 173.6,134.3" style="fill:none;fill-rule:evenodd;stroke:#000000;stroke-width:2.0px;stroke-linecap:butt;stroke-linejoin:miter;stroke-opacity:1"/>
<path class="bond-5 atom-5 atom-6" d="M 173.6,134.3 L 174.5,146.2" style="fill:none;fill-rule:evenodd;stroke:#000000;stroke-width:2.0px;stroke-linecap:butt;stroke-linejoin:miter;stroke-opacity:1"/>
<path class="bond-5 atom-5 atom-6" d="M 174.5,146.2 L 175.3,158.1" style="fill:none;fill-rule:evenodd;stroke:#FF0000;stroke-width:2.0px;stroke-linecap:butt;stroke-linejoin:miter;stroke-opacity:1"/>
<path class="bond-6 atom-4 atom-7" d="M 197.5,118.1 L 213.8,142.0" style="fill:none;fill-rule:evenodd;stroke:#000000;stroke-width:2.0px;stroke-linecap:butt;stroke-linejoin:miter;stroke-opacity:1"/>
<path class="bond-7 atom-7 atom-8" d="M 213.8,142.0 L 242.6,139.8" style="fill:none;fill-rule:evenodd;stroke:#000000;stroke-width:2.0px;stroke-linecap:butt;stroke-linejoin:miter;stroke-opacity:1"/>
<path class="bond-8 atom-8 atom-9" d="M 243.9,141.7 L 248.1,135.0" style="fill:none;fill-rule:evenodd;stroke:#000000;stroke-width:2.0px;stroke-linecap:butt;stroke-linejoin:miter;stroke-opacity:1"/>
<path class="bond-8 atom-8 atom-9" d="M 248.1,135.0 L 252.4,128.4" style="fill:none;fill-rule:evenodd;stroke:#FF0000;stroke-width:2.0px;stroke-linecap:butt;stroke-linejoin:miter;stroke-opacity:1"/>
<path class="bond-8 atom-8 atom-9" d="M 240.0,140.0 L 244.7,132.8" style="fill:none;fill-rule:evenodd;stroke:#000000;stroke-width:2.0px;stroke-linecap:butt;stroke-linejoin:miter;stroke-opacity:1"/>
<path class="bond-8 atom-8 atom-9" d="M 244.7,132.8 L 248.9,126.2" style="fill:none;fill-rule:evenodd;stroke:#FF0000;stroke-width:2.0px;stroke-linecap:butt;stroke-linejoin:miter;stroke-opacity:1"/>
<path class="bond-9 atom-8 atom-10" d="M 242.6,139.8 L 249.0,149.3" style="fill:none;fill-rule:evenodd;stroke:#000000;stroke-width:2.0px;stroke-linecap:butt;stroke-linejoin:miter;stroke-opacity:1"/>
<path class="bond-9 atom-8 atom-10" d="M 249.0,149.3 L 255.4,158.7" style="fill:none;fill-rule:evenodd;stroke:#FF0000;stroke-width:2.0px;stroke-linecap:butt;stroke-linejoin:miter;stroke-opacity:1"/>
<path class="bond-10 atom-4 atom-11" d="M 197.5,118.1 L 221.4,101.8" style="fill:none;fill-rule:evenodd;stroke:#000000;stroke-width:2.0px;stroke-linecap:butt;stroke-linejoin:miter;stroke-opacity:1"/>
<path class="bond-11 atom-11 atom-12" d="M 219.3,103.2 L 227.6,106.1" style="fill:none;fill-rule:evenodd;stroke:#000000;stroke-width:2.0px;stroke-linecap:butt;stroke-linejoin:miter;stroke-opacity:1"/>
<path class="bond-11 atom-11 atom-12" d="M 227.6,106.1 L 236.0,108.9" style="fill:none;fill-rule:evenodd;stroke:#FF0000;stroke-width:2.0px;stroke-linecap:butt;stroke-linejoin:miter;stroke-opacity:1"/>
<path class="bond-11 atom-11 atom-12" d="M 221.5,99.7 L 229.0,102.2" style="fill:none;fill-rule:evenodd;stroke:#000000;stroke-width:2.0px;stroke-linecap:butt;stroke-linejoin:miter;stroke-opacity:1"/>
<path class="bond-11 atom-11 atom-12" d="M 229.0,102.2 L 237.4,105.0" style="fill:none;fill-rule:evenodd;stroke:#FF0000;stroke-width:2.0px;stroke-linecap:butt;stroke-linejoin:miter;stroke-opacity:1"/>
<path class="bond-12 atom-11 atom-13" d="M 221.4,101.8 L 221.6,96.7" style="fill:none;fill-rule:evenodd;stroke:#000000;stroke-width:2.0px;stroke-linecap:butt;stroke-linejoin:miter;stroke-opacity:1"/>
<path class="bond-12 atom-11 atom-13" d="M 221.6,96.7 L 221.9,91.6" style="fill:none;fill-rule:evenodd;stroke:#FF0000;stroke-width:2.0px;stroke-linecap:butt;stroke-linejoin:miter;stroke-opacity:1"/>
<path class="bond-13 atom-1 atom-14" d="M 193.8,68.1 L 167.8,55.5" style="fill:none;fill-rule:evenodd;stroke:#000000;stroke-width:2.0px;stroke-linecap:butt;stroke-linejoin:miter;stroke-opacity:1"/>
<path class="bond-14 atom-14 atom-15" d="M 167.8,55.5 L 180.3,29.5" style="fill:none;fill-rule:evenodd;stroke:#000000;stroke-width:2.0px;stroke-linecap:butt;stroke-linejoin:miter;stroke-opacity:1"/>
<path class="bond-15 atom-14 atom-16" d="M 167.8,55.5 L 155.2,81.6" style="fill:none;fill-rule:evenodd;stroke:#000000;stroke-width:2.0px;stroke-linecap:butt;stroke-linejoin:miter;stroke-opacity:1"/>
<path class="bond-16 atom-16 atom-17" d="M 155.2,81.6 L 126.4,83.7" style="fill:none;fill-rule:evenodd;stroke:#000000;stroke-width:2.0px;stroke-linecap:butt;stroke-linejoin:miter;stroke-opacity:1"/>
<path class="bond-17 atom-17 atom-18" d="M 126.4,83.7 L 113.8,109.8" style="fill:none;fill-rule:evenodd;stroke:#000000;stroke-width:2.0px;stroke-linecap:butt;stroke-linejoin:miter;stroke-opacity:1"/>
<path class="bond-18 atom-18 atom-19" d="M 113.8,109.8 L 87.8,97.2" style="fill:none;fill-rule:evenodd;stroke:#000000;stroke-width:2.0px;stroke-linecap:butt;stroke-linejoin:miter;stroke-opacity:1"/>
<path class="bond-19 atom-19 atom-20" d="M 87.8,97.2 L 78.1,103.7" style="fill:none;fill-rule:evenodd;stroke:#000000;stroke-width:2.0px;stroke-linecap:butt;stroke-linejoin:miter;stroke-opacity:1"/>
<path class="bond-19 atom-19 atom-20" d="M 78.1,103.7 L 68.5,110.3" style="fill:none;fill-rule:evenodd;stroke:#FF0000;stroke-width:2.0px;stroke-linecap:butt;stroke-linejoin:miter;stroke-opacity:1"/>
<path class="bond-20 atom-18 atom-21" d="M 113.8,109.8 L 101.2,135.8" style="fill:none;fill-rule:evenodd;stroke:#000000;stroke-width:2.0px;stroke-linecap:butt;stroke-linejoin:miter;stroke-opacity:1"/>
<path class="bond-21 atom-21 atom-22" d="M 101.2,135.8 L 117.5,159.7" style="fill:none;fill-rule:evenodd;stroke:#000000;stroke-width:2.0px;stroke-linecap:butt;stroke-linejoin:miter;stroke-opacity:1"/>
<path class="bond-22 atom-22 atom-23" d="M 116.5,161.7 L 129.1,162.3" style="fill:none;fill-rule:evenodd;stroke:#000000;stroke-width:2.0px;stroke-linecap:butt;stroke-linejoin:miter;stroke-opacity:1"/>
<path class="bond-22 atom-22 atom-23" d="M 129.1,162.3 L 141.6,162.9" style="fill:none;fill-rule:evenodd;stroke:#FF0000;stroke-width:2.0px;stroke-linecap:butt;stroke-linejoin:miter;stroke-opacity:1"/>
<path class="bond-22 atom-22 atom-23" d="M 116.0,157.6 L 129.3,158.2" style="fill:none;fill-rule:evenodd;stroke:#000000;stroke-width:2.0px;stroke-linecap:butt;stroke-linejoin:miter;stroke-opacity:1"/>
<path class="bond-22 atom-22 atom-23" d="M 129.3,158.2 L 141.8,158.8" style="fill:none;fill-rule:evenodd;stroke:#FF0000;stroke-width:2.0px;stroke-linecap:butt;stroke-linejoin:miter;stroke-opacity:1"/>
<path class="bond-23 atom-22 atom-24" d="M 117.5,159.7 L 112.4,170.2" style="fill:none;fill-rule:evenodd;stroke:#000000;stroke-width:2.0px;stroke-linecap:butt;stroke-linejoin:miter;stroke-opacity:1"/>
<path class="bond-23 atom-22 atom-24" d="M 112.4,170.2 L 107.3,180.7" style="fill:none;fill-rule:evenodd;stroke:#FF0000;stroke-width:2.0px;stroke-linecap:butt;stroke-linejoin:miter;stroke-opacity:1"/>
<path class="bond-24 atom-18 atom-25" d="M 113.8,109.8 L 139.8,122.3" style="fill:none;fill-rule:evenodd;stroke:#000000;stroke-width:2.0px;stroke-linecap:butt;stroke-linejoin:miter;stroke-opacity:1"/>
<path class="bond-25 atom-25 atom-26" d="M 140.3,124.5 L 150.2,117.7" style="fill:none;fill-rule:evenodd;stroke:#000000;stroke-width:2.0px;stroke-linecap:butt;stroke-linejoin:miter;stroke-opacity:1"/>
<path class="bond-25 atom-25 atom-26" d="M 150.2,117.7 L 160.2,110.9" style="fill:none;fill-rule:evenodd;stroke:#FF0000;stroke-width:2.0px;stroke-linecap:butt;stroke-linejoin:miter;stroke-opacity:1"/>
<path class="bond-25 atom-25 atom-26" d="M 137.7,121.3 L 147.9,114.3" style="fill:none;fill-rule:evenodd;stroke:#000000;stroke-width:2.0px;stroke-linecap:butt;stroke-linejoin:miter;stroke-opacity:1"/>
<path class="bond-25 atom-25 atom-26" d="M 147.9,114.3 L 157.9,107.5" style="fill:none;fill-rule:evenodd;stroke:#FF0000;stroke-width:2.0px;stroke-linecap:butt;stroke-linejoin:miter;stroke-opacity:1"/>
<path class="bond-26 atom-25 atom-27" d="M 139.8,122.3 L 142.1,134.0" style="fill:none;fill-rule:evenodd;stroke:#000000;stroke-width:2.0px;stroke-linecap:butt;stroke-linejoin:miter;stroke-opacity:1"/>
<path class="bond-26 atom-25 atom-27" d="M 142.1,134.0 L 144.5,145.6" style="fill:none;fill-rule:evenodd;stroke:#FF0000;stroke-width:2.0px;stroke-linecap:butt;stroke-linejoin:miter;stroke-opacity:1"/>
<path class="bond-27 atom-14 atom-28" d="M 167.8,55.5 L 141.7,43.0" style="fill:none;fill-rule:evenodd;stroke:#000000;stroke-width:2.0px;stroke-linecap:butt;stroke-linejoin:miter;stroke-opacity:1"/>
<path class="bond-28 atom-28 atom-29" d="M 141.6,40.6 L 131.4,47.5" style="fill:none;fill-rule:evenodd;stroke:#000000;stroke-width:2.0px;stroke-linecap:butt;stroke-linejoin:miter;stroke-opacity:1"/>
<path class="bond-28 atom-28 atom-29" d="M 131.4,47.5 L 121.3,54.4" style="fill:none;fill-rule:evenodd;stroke:#FF0000;stroke-width:2.0px;stroke-linecap:butt;stroke-linejoin:miter;stroke-opacity:1"/>
<path class="bond-28 atom-28 atom-29" d="M 143.9,44.0 L 133.8,50.9" style="fill:none;fill-rule:evenodd;stroke:#000000;stroke-width:2.0px;stroke-linecap:butt;stroke-linejoin:miter;stroke-opacity:1"/>
<path class="bond-28 atom-28 atom-29" d="M 133.8,50.9 L 123.6,57.8" style="fill:none;fill-rule:evenodd;stroke:#FF0000;stroke-width:2.0px;stroke-linecap:butt;stroke-linejoin:miter;stroke-opacity:1"/>
<path class="bond-29 atom-28 atom-30" d="M 141.7,43.0 L 140.9,31.1" style="fill:none;fill-rule:evenodd;stroke:#000000;stroke-width:2.0px;stroke-linecap:butt;stroke-linejoin:miter;stroke-opacity:1"/>
<path class="bond-29 atom-28 atom-30" d="M 140.9,31.1 L 140.0,19.3" style="fill:none;fill-rule:evenodd;stroke:#FF0000;stroke-width:2.0px;stroke-linecap:butt;stroke-linejoin:miter;stroke-opacity:1"/>
<path d="M 181.9,92.9 L 181.2,94.2 L 182.0,95.3" style="fill:none;stroke:#000000;stroke-width:2.0px;stroke-linecap:butt;stroke-linejoin:miter;stroke-opacity:1;"/>
<path d="M 174.8,133.5 L 173.6,134.3 L 173.6,134.9" style="fill:none;stroke:#000000;stroke-width:2.0px;stroke-linecap:butt;stroke-linejoin:miter;stroke-opacity:1;"/>
<path d="M 212.9,140.8 L 213.8,142.0 L 215.2,141.9" style="fill:none;stroke:#000000;stroke-width:2.0px;stroke-linecap:butt;stroke-linejoin:miter;stroke-opacity:1;"/>
<path d="M 241.2,139.9 L 242.6,139.8 L 242.9,140.3" style="fill:none;stroke:#000000;stroke-width:2.0px;stroke-linecap:butt;stroke-linejoin:miter;stroke-opacity:1;"/>
<path d="M 220.2,102.6 L 221.4,101.8 L 221.4,101.5" style="fill:none;stroke:#000000;stroke-width:2.0px;stroke-linecap:butt;stroke-linejoin:miter;stroke-opacity:1;"/>
<path d="M 155.8,80.3 L 155.2,81.6 L 153.8,81.7" style="fill:none;stroke:#000000;stroke-width:2.0px;stroke-linecap:butt;stroke-linejoin:miter;stroke-opacity:1;"/>
<path d="M 127.8,83.6 L 126.4,83.7 L 125.7,85.0" style="fill:none;stroke:#000000;stroke-width:2.0px;stroke-linecap:butt;stroke-linejoin:miter;stroke-opacity:1;"/>
<path d="M 89.1,97.8 L 87.8,97.2 L 87.3,97.5" style="fill:none;stroke:#000000;stroke-width:2.0px;stroke-linecap:butt;stroke-linejoin:miter;stroke-opacity:1;"/>
<path d="M 101.8,134.5 L 101.2,135.8 L 102.0,137.0" style="fill:none;stroke:#000000;stroke-width:2.0px;stroke-linecap:butt;stroke-linejoin:miter;stroke-opacity:1;"/>
<path d="M 116.7,158.5 L 117.5,159.7 L 117.2,160.2" style="fill:none;stroke:#000000;stroke-width:2.0px;stroke-linecap:butt;stroke-linejoin:miter;stroke-opacity:1;"/>
<path d="M 138.5,121.7 L 139.8,122.3 L 139.9,122.9" style="fill:none;stroke:#000000;stroke-width:2.0px;stroke-linecap:butt;stroke-linejoin:miter;stroke-opacity:1;"/>
<path d="M 143.0,43.6 L 141.7,43.0 L 141.7,42.4" style="fill:none;stroke:#000000;stroke-width:2.0px;stroke-linecap:butt;stroke-linejoin:miter;stroke-opacity:1;"/>
<path class="atom-2" d="M 204.6 73.1 Q 204.6 71.1, 205.6 70.0 Q 206.5 68.9, 208.4 68.9 Q 210.2 68.9, 211.1 70.0 Q 212.1 71.1, 212.1 73.1 Q 212.1 75.1, 211.1 76.2 Q 210.1 77.3, 208.4 77.3 Q 206.5 77.3, 205.6 76.2 Q 204.6 75.1, 204.6 73.1 M 208.4 76.4 Q 209.6 76.4, 210.3 75.6 Q 211.0 74.7, 211.0 73.1 Q 211.0 71.5, 210.3 70.7 Q 209.6 69.8, 208.4 69.8 Q 207.1 69.8, 206.4 70.7 Q 205.7 71.5, 205.7 73.1 Q 205.7 74.7, 206.4 75.6 Q 207.1 76.4, 208.4 76.4 " fill="#FF0000"/>
<path class="atom-2" d="M 213.4 69.0 L 214.5 69.0 L 214.5 72.5 L 218.7 72.5 L 218.7 69.0 L 219.8 69.0 L 219.8 77.2 L 218.7 77.2 L 218.7 73.4 L 214.5 73.4 L 214.5 77.2 L 213.4 77.2 L 213.4 69.0 " fill="#FF0000"/>
<path class="atom-6" d="M 172.0 163.2 Q 172.0 161.2, 172.9 160.1 Q 173.9 159.0, 175.7 159.0 Q 177.5 159.0, 178.5 160.1 Q 179.5 161.2, 179.5 163.2 Q 179.5 165.2, 178.5 166.3 Q 177.5 167.4, 175.7 167.4 Q 173.9 167.4, 172.9 166.3 Q 172.0 165.2, 172.0 163.2 M 175.7 166.5 Q 177.0 166.5, 177.6 165.7 Q 178.3 164.8, 178.3 163.2 Q 178.3 161.6, 177.6 160.8 Q 177.0 159.9, 175.7 159.9 Q 174.5 159.9, 173.8 160.8 Q 173.1 161.6, 173.1 163.2 Q 173.1 164.8, 173.8 165.7 Q 174.5 166.5, 175.7 166.5 " fill="#FF0000"/>
<path class="atom-6" d="M 180.8 159.1 L 181.9 159.1 L 181.9 162.6 L 186.1 162.6 L 186.1 159.1 L 187.2 159.1 L 187.2 167.3 L 186.1 167.3 L 186.1 163.5 L 181.9 163.5 L 181.9 167.3 L 180.8 167.3 L 180.8 159.1 " fill="#FF0000"/>
<path class="atom-9" d="M 250.2 122.1 Q 250.2 120.2, 251.2 119.1 Q 252.2 118.0, 254.0 118.0 Q 255.8 118.0, 256.8 119.1 Q 257.8 120.2, 257.8 122.1 Q 257.8 124.1, 256.8 125.3 Q 255.8 126.4, 254.0 126.4 Q 252.2 126.4, 251.2 125.3 Q 250.2 124.1, 250.2 122.1 M 254.0 125.4 Q 255.3 125.4, 255.9 124.6 Q 256.6 123.8, 256.6 122.1 Q 256.6 120.5, 255.9 119.7 Q 255.3 118.9, 254.0 118.9 Q 252.8 118.9, 252.1 119.7 Q 251.4 120.5, 251.4 122.1 Q 251.4 123.8, 252.1 124.6 Q 252.8 125.4, 254.0 125.4 " fill="#FF0000"/>
<path class="atom-10" d="M 255.1 163.8 Q 255.1 161.8, 256.1 160.7 Q 257.0 159.6, 258.9 159.6 Q 260.7 159.6, 261.6 160.7 Q 262.6 161.8, 262.6 163.8 Q 262.6 165.7, 261.6 166.9 Q 260.7 168.0, 258.9 168.0 Q 257.1 168.0, 256.1 166.9 Q 255.1 165.8, 255.1 163.8 M 258.9 167.1 Q 260.1 167.1, 260.8 166.2 Q 261.5 165.4, 261.5 163.8 Q 261.5 162.2, 260.8 161.3 Q 260.1 160.5, 258.9 160.5 Q 257.6 160.5, 256.9 161.3 Q 256.3 162.1, 256.3 163.8 Q 256.3 165.4, 256.9 166.2 Q 257.6 167.1, 258.9 167.1 " fill="#FF0000"/>
<path class="atom-10" d="M 263.9 159.7 L 265.0 159.7 L 265.0 163.2 L 269.2 163.2 L 269.2 159.7 L 270.3 159.7 L 270.3 167.9 L 269.2 167.9 L 269.2 164.1 L 265.0 164.1 L 265.0 167.9 L 263.9 167.9 L 263.9 159.7 " fill="#FF0000"/>
<path class="atom-12" d="M 237.6 108.6 Q 237.6 106.6, 238.6 105.5 Q 239.5 104.4, 241.4 104.4 Q 243.2 104.4, 244.1 105.5 Q 245.1 106.6, 245.1 108.6 Q 245.1 110.6, 244.1 111.7 Q 243.1 112.8, 241.4 112.8 Q 239.6 112.8, 238.6 111.7 Q 237.6 110.6, 237.6 108.6 M 241.4 111.9 Q 242.6 111.9, 243.3 111.1 Q 244.0 110.2, 244.0 108.6 Q 244.0 107.0, 243.3 106.2 Q 242.6 105.4, 241.4 105.4 Q 240.1 105.4, 239.4 106.2 Q 238.8 107.0, 238.8 108.6 Q 238.8 110.3, 239.4 111.1 Q 240.1 111.9, 241.4 111.9 " fill="#FF0000"/>
<path class="atom-13" d="M 218.4 86.5 Q 218.4 84.5, 219.4 83.4 Q 220.3 82.3, 222.1 82.3 Q 224.0 82.3, 224.9 83.4 Q 225.9 84.5, 225.9 86.5 Q 225.9 88.5, 224.9 89.6 Q 223.9 90.7, 222.1 90.7 Q 220.3 90.7, 219.4 89.6 Q 218.4 88.5, 218.4 86.5 M 222.1 89.8 Q 223.4 89.8, 224.1 89.0 Q 224.7 88.1, 224.7 86.5 Q 224.7 84.9, 224.1 84.1 Q 223.4 83.2, 222.1 83.2 Q 220.9 83.2, 220.2 84.0 Q 219.5 84.9, 219.5 86.5 Q 219.5 88.1, 220.2 89.0 Q 220.9 89.8, 222.1 89.8 " fill="#FF0000"/>
<path class="atom-13" d="M 227.2 82.4 L 228.3 82.4 L 228.3 85.9 L 232.5 85.9 L 232.5 82.4 L 233.6 82.4 L 233.6 90.6 L 232.5 90.6 L 232.5 86.8 L 228.3 86.8 L 228.3 90.6 L 227.2 90.6 L 227.2 82.4 " fill="#FF0000"/>
<path class="atom-20" d="M 52.0 109.4 L 53.1 109.4 L 53.1 112.9 L 57.3 112.9 L 57.3 109.4 L 58.4 109.4 L 58.4 117.6 L 57.3 117.6 L 57.3 113.8 L 53.1 113.8 L 53.1 117.6 L 52.0 117.6 L 52.0 109.4 " fill="#FF0000"/>
<path class="atom-20" d="M 60.1 113.5 Q 60.1 111.5, 61.1 110.4 Q 62.0 109.3, 63.8 109.3 Q 65.7 109.3, 66.6 110.4 Q 67.6 111.5, 67.6 113.5 Q 67.6 115.5, 66.6 116.6 Q 65.6 117.7, 63.8 117.7 Q 62.0 117.7, 61.1 116.6 Q 60.1 115.5, 60.1 113.5 M 63.8 116.8 Q 65.1 116.8, 65.8 116.0 Q 66.4 115.1, 66.4 113.5 Q 66.4 111.9, 65.8 111.1 Q 65.1 110.2, 63.8 110.2 Q 62.6 110.2, 61.9 111.0 Q 61.2 111.9, 61.2 113.5 Q 61.2 115.1, 61.9 116.0 Q 62.6 116.8, 63.8 116.8 " fill="#FF0000"/>
<path class="atom-23" d="M 142.6 161.1 Q 142.6 159.2, 143.6 158.1 Q 144.5 157.0, 146.4 157.0 Q 148.2 157.0, 149.1 158.1 Q 150.1 159.2, 150.1 161.1 Q 150.1 163.1, 149.1 164.2 Q 148.2 165.4, 146.4 165.4 Q 144.6 165.4, 143.6 164.2 Q 142.6 163.1, 142.6 161.1 M 146.4 164.4 Q 147.6 164.4, 148.3 163.6 Q 149.0 162.8, 149.0 161.1 Q 149.0 159.5, 148.3 158.7 Q 147.6 157.9, 146.4 157.9 Q 145.1 157.9, 144.4 158.7 Q 143.8 159.5, 143.8 161.1 Q 143.8 162.8, 144.4 163.6 Q 145.1 164.4, 146.4 164.4 " fill="#FF0000"/>
<path class="atom-24" d="M 93.1 181.7 L 94.2 181.7 L 94.2 185.2 L 98.4 185.2 L 98.4 181.7 L 99.5 181.7 L 99.5 189.9 L 98.4 189.9 L 98.4 186.1 L 94.2 186.1 L 94.2 189.9 L 93.1 189.9 L 93.1 181.7 " fill="#FF0000"/>
<path class="atom-24" d="M 101.2 185.8 Q 101.2 183.8, 102.1 182.7 Q 103.1 181.6, 104.9 181.6 Q 106.7 181.6, 107.7 182.7 Q 108.7 183.8, 108.7 185.8 Q 108.7 187.7, 107.7 188.9 Q 106.7 190.0, 104.9 190.0 Q 103.1 190.0, 102.1 188.9 Q 101.2 187.8, 101.2 185.8 M 104.9 189.1 Q 106.2 189.1, 106.8 188.2 Q 107.5 187.4, 107.5 185.8 Q 107.5 184.1, 106.8 183.3 Q 106.2 182.5, 104.9 182.5 Q 103.7 182.5, 103.0 183.3 Q 102.3 184.1, 102.3 185.8 Q 102.3 187.4, 103.0 188.2 Q 103.7 189.1, 104.9 189.1 " fill="#FF0000"/>
<path class="atom-26" d="M 160.0 106.1 Q 160.0 104.1, 160.9 103.0 Q 161.9 101.9, 163.7 101.9 Q 165.5 101.9, 166.5 103.0 Q 167.5 104.1, 167.5 106.1 Q 167.5 108.1, 166.5 109.2 Q 165.5 110.3, 163.7 110.3 Q 161.9 110.3, 160.9 109.2 Q 160.0 108.1, 160.0 106.1 M 163.7 109.4 Q 165.0 109.4, 165.7 108.6 Q 166.3 107.7, 166.3 106.1 Q 166.3 104.5, 165.7 103.7 Q 165.0 102.8, 163.7 102.8 Q 162.5 102.8, 161.8 103.7 Q 161.1 104.5, 161.1 106.1 Q 161.1 107.7, 161.8 108.6 Q 162.5 109.4, 163.7 109.4 " fill="#FF0000"/>
<path class="atom-27" d="M 141.7 150.7 Q 141.7 148.7, 142.7 147.6 Q 143.6 146.5, 145.5 146.5 Q 147.3 146.5, 148.2 147.6 Q 149.2 148.7, 149.2 150.7 Q 149.2 152.7, 148.2 153.8 Q 147.3 154.9, 145.5 154.9 Q 143.7 154.9, 142.7 153.8 Q 141.7 152.7, 141.7 150.7 M 145.5 154.0 Q 146.7 154.0, 147.4 153.2 Q 148.1 152.3, 148.1 150.7 Q 148.1 149.1, 147.4 148.3 Q 146.7 147.5, 145.5 147.5 Q 144.2 147.5, 143.5 148.3 Q 142.9 149.1, 142.9 150.7 Q 142.9 152.4, 143.5 153.2 Q 144.2 154.0, 145.5 154.0 " fill="#FF0000"/>
<path class="atom-27" d="M 150.5 146.6 L 151.6 146.6 L 151.6 150.1 L 155.8 150.1 L 155.8 146.6 L 156.9 146.6 L 156.9 154.8 L 155.8 154.8 L 155.8 151.0 L 151.6 151.0 L 151.6 154.8 L 150.5 154.8 L 150.5 146.6 " fill="#FF0000"/>
<path class="atom-29" d="M 114.1 59.3 Q 114.1 57.3, 115.0 56.2 Q 116.0 55.1, 117.8 55.1 Q 119.6 55.1, 120.6 56.2 Q 121.6 57.3, 121.6 59.3 Q 121.6 61.3, 120.6 62.4 Q 119.6 63.5, 117.8 63.5 Q 116.0 63.5, 115.0 62.4 Q 114.1 61.3, 114.1 59.3 M 117.8 62.6 Q 119.1 62.6, 119.7 61.7 Q 120.4 60.9, 120.4 59.3 Q 120.4 57.7, 119.7 56.8 Q 119.1 56.0, 117.8 56.0 Q 116.6 56.0, 115.9 56.8 Q 115.2 57.6, 115.2 59.3 Q 115.2 60.9, 115.9 61.7 Q 116.6 62.6, 117.8 62.6 " fill="#FF0000"/>
<path class="atom-30" d="M 135.8 14.2 Q 135.8 12.2, 136.8 11.1 Q 137.8 10.0, 139.6 10.0 Q 141.4 10.0, 142.4 11.1 Q 143.4 12.2, 143.4 14.2 Q 143.4 16.2, 142.4 17.3 Q 141.4 18.4, 139.6 18.4 Q 137.8 18.4, 136.8 17.3 Q 135.8 16.2, 135.8 14.2 M 139.6 17.5 Q 140.8 17.5, 141.5 16.6 Q 142.2 15.8, 142.2 14.2 Q 142.2 12.6, 141.5 11.7 Q 140.8 10.9, 139.6 10.9 Q 138.3 10.9, 137.7 11.7 Q 137.0 12.5, 137.0 14.2 Q 137.0 15.8, 137.7 16.6 Q 138.3 17.5, 139.6 17.5 " fill="#FF0000"/>
<path class="atom-30" d="M 144.6 10.1 L 145.7 10.1 L 145.7 13.6 L 149.9 13.6 L 149.9 10.1 L 151.0 10.1 L 151.0 18.3 L 149.9 18.3 L 149.9 14.5 L 145.7 14.5 L 145.7 18.3 L 144.6 18.3 L 144.6 10.1 " fill="#FF0000"/>
</svg>
