<?xml version='1.0' encoding='ASCII' standalone='yes'?>
<svg xmlns="http://www.w3.org/2000/svg" xmlns:rdkit="http://www.rdkit.org/xml" xmlns:xlink="http://www.w3.org/1999/xlink" version="1.1" baseProfile="full" xml:space="preserve" width="311px" height="200px" viewBox="0 0 311 200">
<!-- END OF HEADER -->
<rect style="opacity:1.0;fill:#FFFFFF;stroke:none" width="311.0" height="200.0" x="0.0" y="0.0"> </rect>
<path class="bond-0 atom-0 atom-1" d="M 216.5,22.7 L 215.9,56.4" style="fill:none;fill-rule:evenodd;stroke:#000000;stroke-width:2.0px;stroke-linecap:butt;stroke-linejoin:miter;stroke-opacity:1"/>
<path class="bond-1 atom-1 atom-2" d="M 215.9,56.4 L 215.4,90.0" style="fill:none;fill-rule:evenodd;stroke:#000000;stroke-width:2.0px;stroke-linecap:butt;stroke-linejoin:miter;stroke-opacity:1"/>
<path class="bond-2 atom-1 atom-3" d="M 215.9,56.4 L 249.6,56.9" style="fill:none;fill-rule:evenodd;stroke:#000000;stroke-width:2.0px;stroke-linecap:butt;stroke-linejoin:miter;stroke-opacity:1"/>
<path class="bond-3 atom-3 atom-4" d="M 251.0,59.5 L 258.2,47.5" style="fill:none;fill-rule:evenodd;stroke:#000000;stroke-width:2.0px;stroke-linecap:butt;stroke-linejoin:miter;stroke-opacity:1"/>
<path class="bond-3 atom-3 atom-4" d="M 258.2,47.5 L 265.4,35.5" style="fill:none;fill-rule:evenodd;stroke:#FF0000;stroke-width:2.0px;stroke-linecap:butt;stroke-linejoin:miter;stroke-opacity:1"/>
<path class="bond-3 atom-3 atom-4" d="M 246.7,56.9 L 253.9,44.9" style="fill:none;fill-rule:evenodd;stroke:#000000;stroke-width:2.0px;stroke-linecap:butt;stroke-linejoin:miter;stroke-opacity:1"/>
<path class="bond-3 atom-3 atom-4" d="M 253.9,44.9 L 261.1,32.9" style="fill:none;fill-rule:evenodd;stroke:#FF0000;stroke-width:2.0px;stroke-linecap:butt;stroke-linejoin:miter;stroke-opacity:1"/>
<path class="bond-4 atom-3 atom-5" d="M 249.6,56.9 L 256.1,68.7" style="fill:none;fill-rule:evenodd;stroke:#000000;stroke-width:2.0px;stroke-linecap:butt;stroke-linejoin:miter;stroke-opacity:1"/>
<path class="bond-4 atom-3 atom-5" d="M 256.1,68.7 L 262.6,80.4" style="fill:none;fill-rule:evenodd;stroke:#FF0000;stroke-width:2.0px;stroke-linecap:butt;stroke-linejoin:miter;stroke-opacity:1"/>
<path class="bond-5 atom-1 atom-6" d="M 215.9,56.4 L 182.3,55.8" style="fill:none;fill-rule:evenodd;stroke:#000000;stroke-width:2.0px;stroke-linecap:butt;stroke-linejoin:miter;stroke-opacity:1"/>
<path class="bond-6 atom-6 atom-7" d="M 182.3,55.8 L 175.8,44.1" style="fill:none;fill-rule:evenodd;stroke:#000000;stroke-width:2.0px;stroke-linecap:butt;stroke-linejoin:miter;stroke-opacity:1"/>
<path class="bond-6 atom-6 atom-7" d="M 175.8,44.1 L 169.3,32.4" style="fill:none;fill-rule:evenodd;stroke:#FF0000;stroke-width:2.0px;stroke-linecap:butt;stroke-linejoin:miter;stroke-opacity:1"/>
<path class="bond-7 atom-6 atom-8" d="M 182.3,55.8 L 165.0,84.6" style="fill:none;fill-rule:evenodd;stroke:#000000;stroke-width:2.0px;stroke-linecap:butt;stroke-linejoin:miter;stroke-opacity:1"/>
<path class="bond-8 atom-8 atom-9" d="M 165.0,84.6 L 131.3,84.0" style="fill:none;fill-rule:evenodd;stroke:#000000;stroke-width:2.0px;stroke-linecap:butt;stroke-linejoin:miter;stroke-opacity:1"/>
<path class="bond-9 atom-9 atom-10" d="M 131.3,84.0 L 114.0,112.9" style="fill:none;fill-rule:evenodd;stroke:#000000;stroke-width:2.0px;stroke-linecap:butt;stroke-linejoin:miter;stroke-opacity:1"/>
<path class="bond-10 atom-10 atom-11" d="M 114.0,112.9 L 80.3,112.3" style="fill:none;fill-rule:evenodd;stroke:#000000;stroke-width:2.0px;stroke-linecap:butt;stroke-linejoin:miter;stroke-opacity:1"/>
<path class="bond-11 atom-11 atom-12" d="M 80.3,112.3 L 73.8,100.6" style="fill:none;fill-rule:evenodd;stroke:#000000;stroke-width:2.0px;stroke-linecap:butt;stroke-linejoin:miter;stroke-opacity:1"/>
<path class="bond-11 atom-11 atom-12" d="M 73.8,100.6 L 67.4,89.0" style="fill:none;fill-rule:evenodd;stroke:#FF0000;stroke-width:2.0px;stroke-linecap:butt;stroke-linejoin:miter;stroke-opacity:1"/>
<path class="bond-12 atom-11 atom-13" d="M 80.3,112.3 L 63.0,141.2" style="fill:none;fill-rule:evenodd;stroke:#000000;stroke-width:2.0px;stroke-linecap:butt;stroke-linejoin:miter;stroke-opacity:1"/>
<path class="bond-13 atom-13 atom-14" d="M 63.0,141.2 L 48.9,140.9" style="fill:none;fill-rule:evenodd;stroke:#000000;stroke-width:2.0px;stroke-linecap:butt;stroke-linejoin:miter;stroke-opacity:1"/>
<path class="bond-13 atom-13 atom-14" d="M 48.9,140.9 L 34.8,140.7" style="fill:none;fill-rule:evenodd;stroke:#FF0000;stroke-width:2.0px;stroke-linecap:butt;stroke-linejoin:miter;stroke-opacity:1"/>
<path class="bond-14 atom-9 atom-15" d="M 131.3,84.0 L 115.0,54.6" style="fill:none;fill-rule:evenodd;stroke:#000000;stroke-width:2.0px;stroke-linecap:butt;stroke-linejoin:miter;stroke-opacity:1"/>
<path class="bond-15 atom-15 atom-16" d="M 116.4,57.2 L 123.6,45.1" style="fill:none;fill-rule:evenodd;stroke:#000000;stroke-width:2.0px;stroke-linecap:butt;stroke-linejoin:miter;stroke-opacity:1"/>
<path class="bond-15 atom-15 atom-16" d="M 123.6,45.1 L 130.8,33.1" style="fill:none;fill-rule:evenodd;stroke:#FF0000;stroke-width:2.0px;stroke-linecap:butt;stroke-linejoin:miter;stroke-opacity:1"/>
<path class="bond-15 atom-15 atom-16" d="M 112.1,54.6 L 119.3,42.5" style="fill:none;fill-rule:evenodd;stroke:#000000;stroke-width:2.0px;stroke-linecap:butt;stroke-linejoin:miter;stroke-opacity:1"/>
<path class="bond-15 atom-15 atom-16" d="M 119.3,42.5 L 126.5,30.5" style="fill:none;fill-rule:evenodd;stroke:#FF0000;stroke-width:2.0px;stroke-linecap:butt;stroke-linejoin:miter;stroke-opacity:1"/>
<path class="bond-16 atom-15 atom-17" d="M 115.0,54.6 L 100.9,54.4" style="fill:none;fill-rule:evenodd;stroke:#000000;stroke-width:2.0px;stroke-linecap:butt;stroke-linejoin:miter;stroke-opacity:1"/>
<path class="bond-16 atom-15 atom-17" d="M 100.9,54.4 L 86.8,54.1" style="fill:none;fill-rule:evenodd;stroke:#FF0000;stroke-width:2.0px;stroke-linecap:butt;stroke-linejoin:miter;stroke-opacity:1"/>
<path class="bond-17 atom-8 atom-18" d="M 165.0,84.6 L 181.3,114.1" style="fill:none;fill-rule:evenodd;stroke:#000000;stroke-width:2.0px;stroke-linecap:butt;stroke-linejoin:miter;stroke-opacity:1"/>
<path class="bond-18 atom-18 atom-19" d="M 181.3,114.1 L 214.9,114.6" style="fill:none;fill-rule:evenodd;stroke:#000000;stroke-width:2.0px;stroke-linecap:butt;stroke-linejoin:miter;stroke-opacity:1"/>
<path class="bond-19 atom-19 atom-20" d="M 214.9,114.6 L 231.3,144.1" style="fill:none;fill-rule:evenodd;stroke:#000000;stroke-width:2.0px;stroke-linecap:butt;stroke-linejoin:miter;stroke-opacity:1"/>
<path class="bond-20 atom-20 atom-21" d="M 231.3,144.1 L 224.4,155.5" style="fill:none;fill-rule:evenodd;stroke:#000000;stroke-width:2.0px;stroke-linecap:butt;stroke-linejoin:miter;stroke-opacity:1"/>
<path class="bond-20 atom-20 atom-21" d="M 224.4,155.5 L 217.5,167.0" style="fill:none;fill-rule:evenodd;stroke:#FF0000;stroke-width:2.0px;stroke-linecap:butt;stroke-linejoin:miter;stroke-opacity:1"/>
<path class="bond-21 atom-20 atom-22" d="M 231.3,144.1 L 264.9,144.7" style="fill:none;fill-rule:evenodd;stroke:#000000;stroke-width:2.0px;stroke-linecap:butt;stroke-linejoin:miter;stroke-opacity:1"/>
<path class="bond-22 atom-22 atom-23" d="M 264.9,144.7 L 271.4,156.4" style="fill:none;fill-rule:evenodd;stroke:#000000;stroke-width:2.0px;stroke-linecap:butt;stroke-linejoin:miter;stroke-opacity:1"/>
<path class="bond-22 atom-22 atom-23" d="M 271.4,156.4 L 277.9,168.2" style="fill:none;fill-rule:evenodd;stroke:#FF0000;stroke-width:2.0px;stroke-linecap:butt;stroke-linejoin:miter;stroke-opacity:1"/>
<path class="bond-23 atom-18 atom-24" d="M 181.3,114.1 L 164.0,142.9" style="fill:none;fill-rule:evenodd;stroke:#000000;stroke-width:2.0px;stroke-linecap:butt;stroke-linejoin:miter;stroke-opacity:1"/>
<path class="bond-24 atom-24 atom-25" d="M 161.0,142.9 L 167.9,155.3" style="fill:none;fill-rule:evenodd;stroke:#000000;stroke-width:2.0px;stroke-linecap:butt;stroke-linejoin:miter;stroke-opacity:1"/>
<path class="bond-24 atom-24 atom-25" d="M 167.9,155.3 L 174.8,167.6" style="fill:none;fill-rule:evenodd;stroke:#FF0000;stroke-width:2.0px;stroke-linecap:butt;stroke-linejoin:miter;stroke-opacity:1"/>
<path class="bond-24 atom-24 atom-25" d="M 165.5,140.4 L 172.3,152.8" style="fill:none;fill-rule:evenodd;stroke:#000000;stroke-width:2.0px;stroke-linecap:butt;stroke-linejoin:miter;stroke-opacity:1"/>
<path class="bond-24 atom-24 atom-25" d="M 172.3,152.8 L 179.2,165.2" style="fill:none;fill-rule:evenodd;stroke:#FF0000;stroke-width:2.0px;stroke-linecap:butt;stroke-linejoin:miter;stroke-opacity:1"/>
<path class="bond-25 atom-24 atom-26" d="M 164.0,142.9 L 149.9,142.7" style="fill:none;fill-rule:evenodd;stroke:#000000;stroke-width:2.0px;stroke-linecap:butt;stroke-linejoin:miter;stroke-opacity:1"/>
<path class="bond-25 atom-24 atom-26" d="M 149.9,142.7 L 135.8,142.4" style="fill:none;fill-rule:evenodd;stroke:#FF0000;stroke-width:2.0px;stroke-linecap:butt;stroke-linejoin:miter;stroke-opacity:1"/>
<path d="M 247.9,56.9 L 249.6,56.9 L 249.9,57.5" style="fill:none;stroke:#000000;stroke-width:2.0px;stroke-linecap:butt;stroke-linejoin:miter;stroke-opacity:1;"/>
<path d="M 114.8,111.5 L 114.0,112.9 L 112.3,112.9" style="fill:none;stroke:#000000;stroke-width:2.0px;stroke-linecap:butt;stroke-linejoin:miter;stroke-opacity:1;"/>
<path d="M 63.9,139.7 L 63.0,141.2 L 62.3,141.2" style="fill:none;stroke:#000000;stroke-width:2.0px;stroke-linecap:butt;stroke-linejoin:miter;stroke-opacity:1;"/>
<path d="M 115.8,56.1 L 115.0,54.6 L 114.3,54.6" style="fill:none;stroke:#000000;stroke-width:2.0px;stroke-linecap:butt;stroke-linejoin:miter;stroke-opacity:1;"/>
<path d="M 213.3,114.6 L 214.9,114.6 L 215.8,116.1" style="fill:none;stroke:#000000;stroke-width:2.0px;stroke-linecap:butt;stroke-linejoin:miter;stroke-opacity:1;"/>
<path d="M 263.2,144.6 L 264.9,144.7 L 265.2,145.3" style="fill:none;stroke:#000000;stroke-width:2.0px;stroke-linecap:butt;stroke-linejoin:miter;stroke-opacity:1;"/>
<path d="M 164.8,141.5 L 164.0,142.9 L 163.2,142.9" style="fill:none;stroke:#000000;stroke-width:2.0px;stroke-linecap:butt;stroke-linejoin:miter;stroke-opacity:1;"/>
<path class="atom-4" d="M 262.6 28.1 Q 262.6 25.8, 263.7 24.5 Q 264.8 23.3, 266.9 23.3 Q 269.0 23.3, 270.2 24.5 Q 271.3 25.8, 271.3 28.1 Q 271.3 30.4, 270.2 31.7 Q 269.0 33.1, 266.9 33.1 Q 264.8 33.1, 263.7 31.7 Q 262.6 30.4, 262.6 28.1 M 266.9 32.0 Q 268.4 32.0, 269.2 31.0 Q 270.0 30.0, 270.0 28.1 Q 270.0 26.2, 269.2 25.3 Q 268.4 24.3, 266.9 24.3 Q 265.5 24.3, 264.7 25.3 Q 263.9 26.2, 263.9 28.1 Q 263.9 30.0, 264.7 31.0 Q 265.5 32.0, 266.9 32.0 " fill="#FF0000"/>
<path class="atom-5" d="M 261.5 86.4 Q 261.5 84.1, 262.7 82.8 Q 263.8 81.6, 265.9 81.6 Q 268.0 81.6, 269.2 82.8 Q 270.3 84.1, 270.3 86.4 Q 270.3 88.7, 269.2 90.0 Q 268.0 91.3, 265.9 91.3 Q 263.8 91.3, 262.7 90.0 Q 261.5 88.7, 261.5 86.4 M 265.9 90.3 Q 267.4 90.3, 268.2 89.3 Q 268.9 88.3, 268.9 86.4 Q 268.9 84.5, 268.2 83.6 Q 267.4 82.6, 265.9 82.6 Q 264.5 82.6, 263.7 83.6 Q 262.9 84.5, 262.9 86.4 Q 262.9 88.3, 263.7 89.3 Q 264.5 90.3, 265.9 90.3 " fill="#FF0000"/>
<path class="atom-5" d="M 271.8 81.7 L 273.1 81.7 L 273.1 85.7 L 277.9 85.7 L 277.9 81.7 L 279.2 81.7 L 279.2 91.2 L 277.9 91.2 L 277.9 86.8 L 273.1 86.8 L 273.1 91.2 L 271.8 91.2 L 271.8 81.7 " fill="#FF0000"/>
<path class="atom-7" d="M 152.2 21.6 L 153.5 21.6 L 153.5 25.7 L 158.3 25.7 L 158.3 21.6 L 159.6 21.6 L 159.6 31.2 L 158.3 31.2 L 158.3 26.8 L 153.5 26.8 L 153.5 31.2 L 152.2 31.2 L 152.2 21.6 " fill="#FF0000"/>
<path class="atom-7" d="M 161.6 26.4 Q 161.6 24.1, 162.7 22.8 Q 163.9 21.5, 166.0 21.5 Q 168.1 21.5, 169.2 22.8 Q 170.3 24.1, 170.3 26.4 Q 170.3 28.7, 169.2 30.0 Q 168.1 31.3, 166.0 31.3 Q 163.9 31.3, 162.7 30.0 Q 161.6 28.7, 161.6 26.4 M 166.0 30.2 Q 167.4 30.2, 168.2 29.3 Q 169.0 28.3, 169.0 26.4 Q 169.0 24.5, 168.2 23.5 Q 167.4 22.6, 166.0 22.6 Q 164.5 22.6, 163.7 23.5 Q 162.9 24.5, 162.9 26.4 Q 162.9 28.3, 163.7 29.3 Q 164.5 30.2, 166.0 30.2 " fill="#FF0000"/>
<path class="atom-12" d="M 50.2 78.2 L 51.5 78.2 L 51.5 82.2 L 56.4 82.2 L 56.4 78.2 L 57.7 78.2 L 57.7 87.7 L 56.4 87.7 L 56.4 83.3 L 51.5 83.3 L 51.5 87.7 L 50.2 87.7 L 50.2 78.2 " fill="#FF0000"/>
<path class="atom-12" d="M 59.6 82.9 Q 59.6 80.6, 60.8 79.3 Q 61.9 78.1, 64.0 78.1 Q 66.1 78.1, 67.2 79.3 Q 68.4 80.6, 68.4 82.9 Q 68.4 85.2, 67.2 86.5 Q 66.1 87.8, 64.0 87.8 Q 61.9 87.8, 60.8 86.5 Q 59.6 85.2, 59.6 82.9 M 64.0 86.8 Q 65.5 86.8, 66.2 85.8 Q 67.0 84.8, 67.0 82.9 Q 67.0 81.0, 66.2 80.1 Q 65.5 79.1, 64.0 79.1 Q 62.5 79.1, 61.8 80.1 Q 61.0 81.0, 61.0 82.9 Q 61.0 84.8, 61.8 85.8 Q 62.5 86.8, 64.0 86.8 " fill="#FF0000"/>
<path class="atom-14" d="M 15.5 135.9 L 16.8 135.9 L 16.8 139.9 L 21.7 139.9 L 21.7 135.9 L 23.0 135.9 L 23.0 145.4 L 21.7 145.4 L 21.7 141.0 L 16.8 141.0 L 16.8 145.4 L 15.5 145.4 L 15.5 135.9 " fill="#FF0000"/>
<path class="atom-14" d="M 25.0 140.6 Q 25.0 138.3, 26.1 137.0 Q 27.2 135.8, 29.3 135.8 Q 31.5 135.8, 32.6 137.0 Q 33.7 138.3, 33.7 140.6 Q 33.7 142.9, 32.6 144.2 Q 31.4 145.5, 29.3 145.5 Q 27.2 145.5, 26.1 144.2 Q 25.0 142.9, 25.0 140.6 M 29.3 144.5 Q 30.8 144.5, 31.6 143.5 Q 32.4 142.5, 32.4 140.6 Q 32.4 138.7, 31.6 137.8 Q 30.8 136.8, 29.3 136.8 Q 27.9 136.8, 27.1 137.8 Q 26.3 138.7, 26.3 140.6 Q 26.3 142.5, 27.1 143.5 Q 27.9 144.5, 29.3 144.5 " fill="#FF0000"/>
<path class="atom-16" d="M 127.9 25.8 Q 127.9 23.5, 129.1 22.2 Q 130.2 20.9, 132.3 20.9 Q 134.4 20.9, 135.6 22.2 Q 136.7 23.5, 136.7 25.8 Q 136.7 28.1, 135.5 29.4 Q 134.4 30.7, 132.3 30.7 Q 130.2 30.7, 129.1 29.4 Q 127.9 28.1, 127.9 25.8 M 132.3 29.6 Q 133.8 29.6, 134.6 28.7 Q 135.3 27.7, 135.3 25.8 Q 135.3 23.9, 134.6 23.0 Q 133.8 22.0, 132.3 22.0 Q 130.9 22.0, 130.1 23.0 Q 129.3 23.9, 129.3 25.8 Q 129.3 27.7, 130.1 28.7 Q 130.9 29.6, 132.3 29.6 " fill="#FF0000"/>
<path class="atom-17" d="M 67.5 49.3 L 68.8 49.3 L 68.8 53.4 L 73.7 53.4 L 73.7 49.3 L 75.0 49.3 L 75.0 58.8 L 73.7 58.8 L 73.7 54.4 L 68.8 54.4 L 68.8 58.8 L 67.5 58.8 L 67.5 49.3 " fill="#FF0000"/>
<path class="atom-17" d="M 77.0 54.0 Q 77.0 51.8, 78.1 50.5 Q 79.2 49.2, 81.3 49.2 Q 83.4 49.2, 84.6 50.5 Q 85.7 51.8, 85.7 54.0 Q 85.7 56.4, 84.6 57.7 Q 83.4 59.0, 81.3 59.0 Q 79.2 59.0, 78.1 57.7 Q 77.0 56.4, 77.0 54.0 M 81.3 57.9 Q 82.8 57.9, 83.6 56.9 Q 84.4 56.0, 84.4 54.0 Q 84.4 52.2, 83.6 51.2 Q 82.8 50.3, 81.3 50.3 Q 79.9 50.3, 79.1 51.2 Q 78.3 52.2, 78.3 54.0 Q 78.3 56.0, 79.1 56.9 Q 79.9 57.9, 81.3 57.9 " fill="#FF0000"/>
<path class="atom-21" d="M 200.1 168.2 L 201.4 168.2 L 201.4 172.3 L 206.3 172.3 L 206.3 168.2 L 207.6 168.2 L 207.6 177.8 L 206.3 177.8 L 206.3 173.4 L 201.4 173.4 L 201.4 177.8 L 200.1 177.8 L 200.1 168.2 " fill="#FF0000"/>
<path class="atom-21" d="M 209.6 173.0 Q 209.6 170.7, 210.7 169.4 Q 211.8 168.1, 213.9 168.1 Q 216.0 168.1, 217.2 169.4 Q 218.3 170.7, 218.3 173.0 Q 218.3 175.3, 217.2 176.6 Q 216.0 177.9, 213.9 177.9 Q 211.8 177.9, 210.7 176.6 Q 209.6 175.3, 209.6 173.0 M 213.9 176.8 Q 215.4 176.8, 216.2 175.9 Q 217.0 174.9, 217.0 173.0 Q 217.0 171.1, 216.2 170.1 Q 215.4 169.2, 213.9 169.2 Q 212.5 169.2, 211.7 170.1 Q 210.9 171.1, 210.9 173.0 Q 210.9 174.9, 211.7 175.9 Q 212.5 176.8, 213.9 176.8 " fill="#FF0000"/>
<path class="atom-23" d="M 276.9 174.1 Q 276.9 171.8, 278.0 170.6 Q 279.1 169.3, 281.2 169.3 Q 283.3 169.3, 284.5 170.6 Q 285.6 171.8, 285.6 174.1 Q 285.6 176.4, 284.5 177.8 Q 283.3 179.1, 281.2 179.1 Q 279.1 179.1, 278.0 177.8 Q 276.9 176.5, 276.9 174.1 M 281.2 178.0 Q 282.7 178.0, 283.5 177.0 Q 284.3 176.0, 284.3 174.1 Q 284.3 172.3, 283.5 171.3 Q 282.7 170.4, 281.2 170.4 Q 279.8 170.4, 279.0 171.3 Q 278.2 172.2, 278.2 174.1 Q 278.2 176.1, 279.0 177.0 Q 279.8 178.0, 281.2 178.0 " fill="#FF0000"/>
<path class="atom-23" d="M 287.1 169.4 L 288.4 169.4 L 288.4 173.4 L 293.3 173.4 L 293.3 169.4 L 294.6 169.4 L 294.6 178.9 L 293.3 178.9 L 293.3 174.5 L 288.4 174.5 L 288.4 178.9 L 287.1 178.9 L 287.1 169.4 " fill="#FF0000"/>
<path class="atom-25" d="M 175.9 172.4 Q 175.9 170.1, 177.0 168.8 Q 178.2 167.5, 180.3 167.5 Q 182.4 167.5, 183.5 168.8 Q 184.6 170.1, 184.6 172.4 Q 184.6 174.7, 183.5 176.0 Q 182.4 177.3, 180.3 177.3 Q 178.2 177.3, 177.0 176.0 Q 175.9 174.7, 175.9 172.4 M 180.3 176.2 Q 181.7 176.2, 182.5 175.3 Q 183.3 174.3, 183.3 172.4 Q 183.3 170.5, 182.5 169.6 Q 181.7 168.6, 180.3 168.6 Q 178.8 168.6, 178.0 169.5 Q 177.2 170.5, 177.2 172.4 Q 177.2 174.3, 178.0 175.3 Q 178.8 176.2, 180.3 176.2 " fill="#FF0000"/>
<path class="atom-26" d="M 116.5 137.6 L 117.8 137.6 L 117.8 141.7 L 122.7 141.7 L 122.7 137.6 L 124.0 137.6 L 124.0 147.2 L 122.7 147.2 L 122.7 142.7 L 117.8 142.7 L 117.8 147.2 L 116.5 147.2 L 116.5 137.6 " fill="#FF0000"/>
<path class="atom-26" d="M 125.9 142.4 Q 125.9 140.1, 127.1 138.8 Q 128.2 137.5, 130.3 137.5 Q 132.4 137.5, 133.5 138.8 Q 134.7 140.1, 134.7 142.4 Q 134.7 144.7, 133.5 146.0 Q 132.4 147.3, 130.3 147.3 Q 128.2 147.3, 127.1 146.0 Q 125.9 144.7, 125.9 142.4 M 130.3 146.2 Q 131.8 146.2, 132.5 145.3 Q 133.3 144.3, 133.3 142.4 Q 133.3 140.5, 132.5 139.5 Q 131.8 138.6, 130.3 138.6 Q 128.8 138.6, 128.0 139.5 Q 127.3 140.5, 127.3 142.4 Q 127.3 144.3, 128.0 145.3 Q 128.8 146.2, 130.3 146.2 " fill="#FF0000"/>
</svg>
