<?xml version='1.0' encoding='ASCII' standalone='yes'?>
<svg xmlns="http://www.w3.org/2000/svg" xmlns:rdkit="http://www.rdkit.org/xml" xmlns:xlink="http://www.w3.org/1999/xlink" version="1.1" baseProfile="full" xml:space="preserve" width="145px" height="200px" viewBox="0 0 145 200">
<!-- END OF HEADER -->
<rect style="opacity:1.0;fill:#FFFFFF;stroke:none" width="145.0" height="200.0" x="0.0" y="0.0"> </rect>
<path class="bond-0 atom-0 atom-1" d="M 7.2,145.7 L 60.2,115.1" style="fill:none;fill-rule:evenodd;stroke:#000000;stroke-width:2.0px;stroke-linecap:butt;stroke-linejoin:miter;stroke-opacity:1"/>
<path class="bond-1 atom-1 atom-2" d="M 60.2,115.1 L 81.6,127.5" style="fill:none;fill-rule:evenodd;stroke:#000000;stroke-width:2.0px;stroke-linecap:butt;stroke-linejoin:miter;stroke-opacity:1"/>
<path class="bond-1 atom-1 atom-2" d="M 81.6,127.5 L 103.1,139.9" style="fill:none;fill-rule:evenodd;stroke:#FF0000;stroke-width:2.0px;stroke-linecap:butt;stroke-linejoin:miter;stroke-opacity:1"/>
<path class="bond-2 atom-1 atom-3" d="M 60.2,115.1 L 60.2,90.1" style="fill:none;fill-rule:evenodd;stroke:#000000;stroke-width:2.0px;stroke-linecap:butt;stroke-linejoin:miter;stroke-opacity:1"/>
<path class="bond-2 atom-1 atom-3" d="M 60.2,90.1 L 60.2,65.1" style="fill:none;fill-rule:evenodd;stroke:#FF0000;stroke-width:2.0px;stroke-linecap:butt;stroke-linejoin:miter;stroke-opacity:1"/>
<path class="atom-2" d="M 105.1 145.7 Q 105.1 141.6, 107.2 139.3 Q 109.2 136.9, 113.1 136.9 Q 116.9 136.9, 119.0 139.3 Q 121.0 141.6, 121.0 145.7 Q 121.0 149.9, 118.9 152.3 Q 116.9 154.7, 113.1 154.7 Q 109.3 154.7, 107.2 152.3 Q 105.1 150.0, 105.1 145.7 M 113.1 152.8 Q 115.7 152.8, 117.1 151.0 Q 118.6 149.2, 118.6 145.7 Q 118.6 142.3, 117.1 140.6 Q 115.7 138.9, 113.1 138.9 Q 110.4 138.9, 109.0 140.6 Q 107.6 142.3, 107.6 145.7 Q 107.6 149.2, 109.0 151.0 Q 110.4 152.8, 113.1 152.8 " fill="#FF0000"/>
<path class="atom-2" d="M 123.7 137.1 L 126.1 137.1 L 126.1 144.5 L 134.9 144.5 L 134.9 137.1 L 137.2 137.1 L 137.2 154.4 L 134.9 154.4 L 134.9 146.4 L 126.1 146.4 L 126.1 154.4 L 123.7 154.4 L 123.7 137.1 " fill="#FF0000"/>
<path class="atom-3" d="M 52.2 54.1 Q 52.2 49.9, 54.3 47.6 Q 56.3 45.3, 60.2 45.3 Q 64.0 45.3, 66.1 47.6 Q 68.1 49.9, 68.1 54.1 Q 68.1 58.3, 66.0 60.7 Q 64.0 63.1, 60.2 63.1 Q 56.3 63.1, 54.3 60.7 Q 52.2 58.3, 52.2 54.1 M 60.2 61.1 Q 62.8 61.1, 64.2 59.3 Q 65.7 57.6, 65.7 54.1 Q 65.7 50.7, 64.2 49.0 Q 62.8 47.2, 60.2 47.2 Q 57.5 47.2, 56.1 49.0 Q 54.7 50.7, 54.7 54.1 Q 54.7 57.6, 56.1 59.3 Q 57.5 61.1, 60.2 61.1 " fill="#FF0000"/>
<path class="atom-3" d="M 70.8 45.5 L 73.1 45.5 L 73.1 52.8 L 82.0 52.8 L 82.0 45.5 L 84.3 45.5 L 84.3 62.8 L 82.0 62.8 L 82.0 54.8 L 73.1 54.8 L 73.1 62.8 L 70.8 62.8 L 70.8 45.5 " fill="#FF0000"/>
</svg>
