<?xml version='1.0' encoding='ASCII' standalone='yes'?>
<svg xmlns="http://www.w3.org/2000/svg" xmlns:rdkit="http://www.rdkit.org/xml" xmlns:xlink="http://www.w3.org/1999/xlink" version="1.1" baseProfile="full" xml:space="preserve" width="265px" height="200px" viewBox="0 0 265 200">
<!-- END OF HEADER -->
<rect style="opacity:1.0;fill:#FFFFFF;stroke:none" width="265.0" height="200.0" x="0.0" y="0.0"> </rect>
<path class="bond-0 atom-0 atom-1" d="M 251.2,42.9 L 219.5,65.4" style="fill:none;fill-rule:evenodd;stroke:#000000;stroke-width:2.0px;stroke-linecap:butt;stroke-linejoin:miter;stroke-opacity:1"/>
<path class="bond-1 atom-1 atom-2" d="M 219.5,65.4 L 184.2,49.1" style="fill:none;fill-rule:evenodd;stroke:#000000;stroke-width:2.0px;stroke-linecap:butt;stroke-linejoin:miter;stroke-opacity:1"/>
<path class="bond-2 atom-2 atom-3" d="M 184.2,49.1 L 152.4,71.6" style="fill:none;fill-rule:evenodd;stroke:#000000;stroke-width:2.0px;stroke-linecap:butt;stroke-linejoin:miter;stroke-opacity:1"/>
<path class="bond-3 atom-3 atom-4" d="M 152.4,71.6 L 117.1,55.3" style="fill:none;fill-rule:evenodd;stroke:#000000;stroke-width:2.0px;stroke-linecap:butt;stroke-linejoin:miter;stroke-opacity:1"/>
<path class="bond-4 atom-4 atom-5" d="M 117.1,55.3 L 115.7,39.4" style="fill:none;fill-rule:evenodd;stroke:#000000;stroke-width:2.0px;stroke-linecap:butt;stroke-linejoin:miter;stroke-opacity:1"/>
<path class="bond-4 atom-4 atom-5" d="M 115.7,39.4 L 114.2,23.6" style="fill:none;fill-rule:evenodd;stroke:#FF0000;stroke-width:2.0px;stroke-linecap:butt;stroke-linejoin:miter;stroke-opacity:1"/>
<path class="bond-5 atom-4 atom-6" d="M 117.1,55.3 L 85.4,77.7" style="fill:none;fill-rule:evenodd;stroke:#000000;stroke-width:2.0px;stroke-linecap:butt;stroke-linejoin:miter;stroke-opacity:1"/>
<path class="bond-6 atom-6 atom-7" d="M 85.4,77.7 L 107.8,109.5" style="fill:none;fill-rule:evenodd;stroke:#000000;stroke-width:2.0px;stroke-linecap:butt;stroke-linejoin:miter;stroke-opacity:1"/>
<path class="bond-7 atom-6 atom-8" d="M 85.4,77.7 L 62.9,46.0" style="fill:none;fill-rule:evenodd;stroke:#000000;stroke-width:2.0px;stroke-linecap:butt;stroke-linejoin:miter;stroke-opacity:1"/>
<path class="bond-8 atom-6 atom-9" d="M 85.4,77.7 L 53.6,100.2" style="fill:none;fill-rule:evenodd;stroke:#000000;stroke-width:2.0px;stroke-linecap:butt;stroke-linejoin:miter;stroke-opacity:1"/>
<path class="bond-9 atom-9 atom-10" d="M 56.4,98.3 L 41.1,91.2" style="fill:none;fill-rule:evenodd;stroke:#000000;stroke-width:2.0px;stroke-linecap:butt;stroke-linejoin:miter;stroke-opacity:1"/>
<path class="bond-9 atom-9 atom-10" d="M 41.1,91.2 L 25.9,84.2" style="fill:none;fill-rule:evenodd;stroke:#FF0000;stroke-width:2.0px;stroke-linecap:butt;stroke-linejoin:miter;stroke-opacity:1"/>
<path class="bond-9 atom-9 atom-10" d="M 53.9,103.6 L 38.7,96.5" style="fill:none;fill-rule:evenodd;stroke:#000000;stroke-width:2.0px;stroke-linecap:butt;stroke-linejoin:miter;stroke-opacity:1"/>
<path class="bond-9 atom-9 atom-10" d="M 38.7,96.5 L 23.4,89.5" style="fill:none;fill-rule:evenodd;stroke:#FF0000;stroke-width:2.0px;stroke-linecap:butt;stroke-linejoin:miter;stroke-opacity:1"/>
<path class="bond-10 atom-9 atom-11" d="M 53.6,100.2 L 55.1,116.1" style="fill:none;fill-rule:evenodd;stroke:#000000;stroke-width:2.0px;stroke-linecap:butt;stroke-linejoin:miter;stroke-opacity:1"/>
<path class="bond-10 atom-9 atom-11" d="M 55.1,116.1 L 56.6,132.1" style="fill:none;fill-rule:evenodd;stroke:#FF0000;stroke-width:2.0px;stroke-linecap:butt;stroke-linejoin:miter;stroke-opacity:1"/>
<path class="bond-11 atom-1 atom-12" d="M 219.5,65.4 L 223.1,104.1" style="fill:none;fill-rule:evenodd;stroke:#000000;stroke-width:2.0px;stroke-linecap:butt;stroke-linejoin:miter;stroke-opacity:1"/>
<path class="bond-12 atom-12 atom-13" d="M 223.1,104.1 L 191.3,126.5" style="fill:none;fill-rule:evenodd;stroke:#000000;stroke-width:2.0px;stroke-linecap:butt;stroke-linejoin:miter;stroke-opacity:1"/>
<path class="bond-13 atom-13 atom-14" d="M 194.1,124.6 L 178.8,117.6" style="fill:none;fill-rule:evenodd;stroke:#000000;stroke-width:2.0px;stroke-linecap:butt;stroke-linejoin:miter;stroke-opacity:1"/>
<path class="bond-13 atom-13 atom-14" d="M 178.8,117.6 L 163.6,110.5" style="fill:none;fill-rule:evenodd;stroke:#FF0000;stroke-width:2.0px;stroke-linecap:butt;stroke-linejoin:miter;stroke-opacity:1"/>
<path class="bond-13 atom-13 atom-14" d="M 191.6,129.9 L 176.4,122.9" style="fill:none;fill-rule:evenodd;stroke:#000000;stroke-width:2.0px;stroke-linecap:butt;stroke-linejoin:miter;stroke-opacity:1"/>
<path class="bond-13 atom-13 atom-14" d="M 176.4,122.9 L 161.1,115.8" style="fill:none;fill-rule:evenodd;stroke:#FF0000;stroke-width:2.0px;stroke-linecap:butt;stroke-linejoin:miter;stroke-opacity:1"/>
<path class="bond-14 atom-13 atom-15" d="M 191.3,126.5 L 192.8,142.5" style="fill:none;fill-rule:evenodd;stroke:#000000;stroke-width:2.0px;stroke-linecap:butt;stroke-linejoin:miter;stroke-opacity:1"/>
<path class="bond-14 atom-13 atom-15" d="M 192.8,142.5 L 194.3,158.4" style="fill:none;fill-rule:evenodd;stroke:#FF0000;stroke-width:2.0px;stroke-linecap:butt;stroke-linejoin:miter;stroke-opacity:1"/>
<path d="M 185.9,49.9 L 184.2,49.1 L 182.6,50.2" style="fill:none;stroke:#000000;stroke-width:2.0px;stroke-linecap:butt;stroke-linejoin:miter;stroke-opacity:1;"/>
<path d="M 154.0,70.4 L 152.4,71.6 L 150.7,70.7" style="fill:none;stroke:#000000;stroke-width:2.0px;stroke-linecap:butt;stroke-linejoin:miter;stroke-opacity:1;"/>
<path d="M 55.2,99.1 L 53.6,100.2 L 53.7,101.0" style="fill:none;stroke:#000000;stroke-width:2.0px;stroke-linecap:butt;stroke-linejoin:miter;stroke-opacity:1;"/>
<path d="M 222.9,102.1 L 223.1,104.1 L 221.5,105.2" style="fill:none;stroke:#000000;stroke-width:2.0px;stroke-linecap:butt;stroke-linejoin:miter;stroke-opacity:1;"/>
<path d="M 192.9,125.4 L 191.3,126.5 L 191.4,127.3" style="fill:none;stroke:#000000;stroke-width:2.0px;stroke-linecap:butt;stroke-linejoin:miter;stroke-opacity:1;"/>
<path class="atom-5" d="M 108.5 16.6 Q 108.5 14.0, 109.8 12.5 Q 111.1 11.0, 113.5 11.0 Q 116.0 11.0, 117.3 12.5 Q 118.6 14.0, 118.6 16.6 Q 118.6 19.3, 117.3 20.8 Q 116.0 22.3, 113.5 22.3 Q 111.1 22.3, 109.8 20.8 Q 108.5 19.3, 108.5 16.6 M 113.5 21.1 Q 115.2 21.1, 116.1 19.9 Q 117.0 18.8, 117.0 16.6 Q 117.0 14.4, 116.1 13.3 Q 115.2 12.2, 113.5 12.2 Q 111.9 12.2, 110.9 13.3 Q 110.0 14.4, 110.0 16.6 Q 110.0 18.8, 110.9 19.9 Q 111.9 21.1, 113.5 21.1 " fill="#FF0000"/>
<path class="atom-5" d="M 120.3 11.1 L 121.8 11.1 L 121.8 15.8 L 127.4 15.8 L 127.4 11.1 L 128.9 11.1 L 128.9 22.1 L 127.4 22.1 L 127.4 17.1 L 121.8 17.1 L 121.8 22.1 L 120.3 22.1 L 120.3 11.1 " fill="#FF0000"/>
<path class="atom-10" d="M 13.3 84.0 Q 13.3 81.3, 14.6 79.8 Q 15.9 78.4, 18.3 78.4 Q 20.7 78.4, 22.1 79.8 Q 23.4 81.3, 23.4 84.0 Q 23.4 86.6, 22.0 88.2 Q 20.7 89.7, 18.3 89.7 Q 15.9 89.7, 14.6 88.2 Q 13.3 86.7, 13.3 84.0 M 18.3 88.4 Q 20.0 88.4, 20.9 87.3 Q 21.8 86.2, 21.8 84.0 Q 21.8 81.8, 20.9 80.7 Q 20.0 79.6, 18.3 79.6 Q 16.6 79.6, 15.7 80.7 Q 14.8 81.8, 14.8 84.0 Q 14.8 86.2, 15.7 87.3 Q 16.6 88.4, 18.3 88.4 " fill="#FF0000"/>
<path class="atom-11" d="M 52.1 139.0 Q 52.1 136.3, 53.5 134.8 Q 54.8 133.4, 57.2 133.4 Q 59.6 133.4, 60.9 134.8 Q 62.3 136.3, 62.3 139.0 Q 62.3 141.6, 60.9 143.2 Q 59.6 144.7, 57.2 144.7 Q 54.8 144.7, 53.5 143.2 Q 52.1 141.6, 52.1 139.0 M 57.2 143.4 Q 58.9 143.4, 59.8 142.3 Q 60.7 141.2, 60.7 139.0 Q 60.7 136.8, 59.8 135.7 Q 58.9 134.6, 57.2 134.6 Q 55.5 134.6, 54.6 135.7 Q 53.7 136.8, 53.7 139.0 Q 53.7 141.2, 54.6 142.3 Q 55.5 143.4, 57.2 143.4 " fill="#FF0000"/>
<path class="atom-11" d="M 64.0 133.5 L 65.5 133.5 L 65.5 138.2 L 71.1 138.2 L 71.1 133.5 L 72.6 133.5 L 72.6 144.5 L 71.1 144.5 L 71.1 139.4 L 65.5 139.4 L 65.5 144.5 L 64.0 144.5 L 64.0 133.5 " fill="#FF0000"/>
<path class="atom-14" d="M 151.0 110.3 Q 151.0 107.7, 152.3 106.2 Q 153.6 104.7, 156.0 104.7 Q 158.5 104.7, 159.8 106.2 Q 161.1 107.7, 161.1 110.3 Q 161.1 113.0, 159.7 114.5 Q 158.4 116.0, 156.0 116.0 Q 153.6 116.0, 152.3 114.5 Q 151.0 113.0, 151.0 110.3 M 156.0 114.8 Q 157.7 114.8, 158.6 113.7 Q 159.5 112.5, 159.5 110.3 Q 159.5 108.1, 158.6 107.1 Q 157.7 106.0, 156.0 106.0 Q 154.3 106.0, 153.4 107.0 Q 152.5 108.1, 152.5 110.3 Q 152.5 112.5, 153.4 113.7 Q 154.3 114.8, 156.0 114.8 " fill="#FF0000"/>
<path class="atom-15" d="M 189.8 165.3 Q 189.8 162.6, 191.2 161.2 Q 192.5 159.7, 194.9 159.7 Q 197.3 159.7, 198.7 161.2 Q 200.0 162.6, 200.0 165.3 Q 200.0 168.0, 198.6 169.5 Q 197.3 171.0, 194.9 171.0 Q 192.5 171.0, 191.2 169.5 Q 189.8 168.0, 189.8 165.3 M 194.9 169.8 Q 196.6 169.8, 197.5 168.6 Q 198.4 167.5, 198.4 165.3 Q 198.4 163.1, 197.5 162.0 Q 196.6 160.9, 194.9 160.9 Q 193.2 160.9, 192.3 162.0 Q 191.4 163.1, 191.4 165.3 Q 191.4 167.5, 192.3 168.6 Q 193.2 169.8, 194.9 169.8 " fill="#FF0000"/>
<path class="atom-15" d="M 201.7 159.8 L 203.2 159.8 L 203.2 164.5 L 208.8 164.5 L 208.8 159.8 L 210.3 159.8 L 210.3 170.8 L 208.8 170.8 L 208.8 165.7 L 203.2 165.7 L 203.2 170.8 L 201.7 170.8 L 201.7 159.8 " fill="#FF0000"/>
<path class="legend" d="M 123.7 181.9 Q 123.7 179.6, 124.4 177.7 Q 125.1 175.8, 126.4 173.8 L 127.3 174.4 Q 126.2 176.3, 125.7 178.0 Q 125.2 179.7, 125.2 181.9 Q 125.2 184.0, 125.7 185.8 Q 126.2 187.5, 127.3 189.4 L 126.4 190.0 Q 125.1 188.0, 124.4 186.1 Q 123.7 184.2, 123.7 181.9 " fill="#000000"/>
<path class="legend" d="M 128.2 177.3 Q 128.6 176.2, 129.6 175.6 Q 130.6 175.0, 132.0 175.0 Q 133.7 175.0, 134.6 175.9 Q 135.6 176.8, 135.6 178.5 Q 135.6 180.2, 134.3 181.7 Q 133.1 183.3, 130.6 185.2 L 135.8 185.2 L 135.8 186.4 L 128.2 186.4 L 128.2 185.4 Q 130.3 183.9, 131.5 182.8 Q 132.8 181.6, 133.4 180.6 Q 134.0 179.6, 134.0 178.6 Q 134.0 177.5, 133.4 176.9 Q 132.9 176.3, 132.0 176.3 Q 131.1 176.3, 130.4 176.6 Q 129.8 177.0, 129.4 177.8 L 128.2 177.3 " fill="#000000"/>
<path class="legend" d="M 140.8 181.9 Q 140.8 184.2, 140.1 186.1 Q 139.4 188.0, 138.1 190.0 L 137.2 189.4 Q 138.3 187.5, 138.8 185.8 Q 139.3 184.0, 139.3 181.9 Q 139.3 179.7, 138.8 178.0 Q 138.3 176.3, 137.2 174.4 L 138.1 173.8 Q 139.4 175.8, 140.1 177.7 Q 140.8 179.6, 140.8 181.9 " fill="#000000"/>
</svg>
