<?xml version='1.0' encoding='ASCII' standalone='yes'?>
<svg xmlns="http://www.w3.org/2000/svg" xmlns:rdkit="http://www.rdkit.org/xml" xmlns:xlink="http://www.w3.org/1999/xlink" version="1.1" baseProfile="full" xml:space="preserve" width="280px" height="200px" viewBox="0 0 280 200">
<!-- END OF HEADER -->
<rect style="opacity:1.0;fill:#FFFFFF;stroke:none" width="280.0" height="200.0" x="0.0" y="0.0"> </rect>
<path class="bond-0 atom-0 atom-1" d="M 266.0,85.1 L 233.0,105.7" style="fill:none;fill-rule:evenodd;stroke:#000000;stroke-width:2.0px;stroke-linecap:butt;stroke-linejoin:miter;stroke-opacity:1"/>
<path class="bond-1 atom-1 atom-2" d="M 233.0,105.7 L 198.7,87.4" style="fill:none;fill-rule:evenodd;stroke:#000000;stroke-width:2.0px;stroke-linecap:butt;stroke-linejoin:miter;stroke-opacity:1"/>
<path class="bond-2 atom-2 atom-3" d="M 198.7,87.4 L 217.0,53.1" style="fill:none;fill-rule:evenodd;stroke:#000000;stroke-width:2.0px;stroke-linecap:butt;stroke-linejoin:miter;stroke-opacity:1"/>
<path class="bond-3 atom-2 atom-4" d="M 198.7,87.4 L 188.6,113.9" style="fill:none;fill-rule:evenodd;stroke:#000000;stroke-width:2.0px;stroke-linecap:butt;stroke-linejoin:miter;stroke-opacity:1"/>
<path class="bond-4 atom-2 atom-5" d="M 198.7,87.4 L 164.4,69.2" style="fill:none;fill-rule:evenodd;stroke:#000000;stroke-width:2.0px;stroke-linecap:butt;stroke-linejoin:miter;stroke-opacity:1"/>
<path class="bond-5 atom-5 atom-6" d="M 164.4,69.2 L 171.7,55.5" style="fill:none;fill-rule:evenodd;stroke:#000000;stroke-width:2.0px;stroke-linecap:butt;stroke-linejoin:miter;stroke-opacity:1"/>
<path class="bond-5 atom-5 atom-6" d="M 171.7,55.5 L 179.0,41.8" style="fill:none;fill-rule:evenodd;stroke:#FF0000;stroke-width:2.0px;stroke-linecap:butt;stroke-linejoin:miter;stroke-opacity:1"/>
<path class="bond-6 atom-5 atom-7" d="M 164.4,69.2 L 130.2,50.9" style="fill:none;fill-rule:evenodd;stroke:#000000;stroke-width:2.0px;stroke-linecap:butt;stroke-linejoin:miter;stroke-opacity:1"/>
<path class="bond-7 atom-7 atom-8" d="M 130.2,50.9 L 97.2,71.4" style="fill:none;fill-rule:evenodd;stroke:#000000;stroke-width:2.0px;stroke-linecap:butt;stroke-linejoin:miter;stroke-opacity:1"/>
<path class="bond-8 atom-8 atom-9" d="M 97.2,71.4 L 117.7,104.4" style="fill:none;fill-rule:evenodd;stroke:#000000;stroke-width:2.0px;stroke-linecap:butt;stroke-linejoin:miter;stroke-opacity:1"/>
<path class="bond-9 atom-8 atom-10" d="M 97.2,71.4 L 76.6,38.5" style="fill:none;fill-rule:evenodd;stroke:#000000;stroke-width:2.0px;stroke-linecap:butt;stroke-linejoin:miter;stroke-opacity:1"/>
<path class="bond-10 atom-8 atom-11" d="M 97.2,71.4 L 64.2,92.0" style="fill:none;fill-rule:evenodd;stroke:#000000;stroke-width:2.0px;stroke-linecap:butt;stroke-linejoin:miter;stroke-opacity:1"/>
<path class="bond-11 atom-11 atom-12" d="M 61.3,90.5 L 61.9,107.3" style="fill:none;fill-rule:evenodd;stroke:#000000;stroke-width:2.0px;stroke-linecap:butt;stroke-linejoin:miter;stroke-opacity:1"/>
<path class="bond-11 atom-11 atom-12" d="M 61.9,107.3 L 62.5,124.1" style="fill:none;fill-rule:evenodd;stroke:#FF0000;stroke-width:2.0px;stroke-linecap:butt;stroke-linejoin:miter;stroke-opacity:1"/>
<path class="bond-11 atom-11 atom-12" d="M 67.0,90.3 L 67.6,107.1" style="fill:none;fill-rule:evenodd;stroke:#000000;stroke-width:2.0px;stroke-linecap:butt;stroke-linejoin:miter;stroke-opacity:1"/>
<path class="bond-11 atom-11 atom-12" d="M 67.6,107.1 L 68.1,123.9" style="fill:none;fill-rule:evenodd;stroke:#FF0000;stroke-width:2.0px;stroke-linecap:butt;stroke-linejoin:miter;stroke-opacity:1"/>
<path class="bond-12 atom-11 atom-13" d="M 64.2,92.0 L 50.2,84.5" style="fill:none;fill-rule:evenodd;stroke:#000000;stroke-width:2.0px;stroke-linecap:butt;stroke-linejoin:miter;stroke-opacity:1"/>
<path class="bond-12 atom-11 atom-13" d="M 50.2,84.5 L 36.2,77.1" style="fill:none;fill-rule:evenodd;stroke:#FF0000;stroke-width:2.0px;stroke-linecap:butt;stroke-linejoin:miter;stroke-opacity:1"/>
<path class="bond-13 atom-5 atom-14" d="M 164.4,69.2 L 146.2,103.4" style="fill:none;fill-rule:evenodd;stroke:#000000;stroke-width:2.0px;stroke-linecap:butt;stroke-linejoin:miter;stroke-opacity:1"/>
<path class="bond-14 atom-14 atom-15" d="M 146.2,103.4 L 111.9,85.2" style="fill:none;fill-rule:evenodd;stroke:#000000;stroke-width:2.0px;stroke-linecap:butt;stroke-linejoin:miter;stroke-opacity:1"/>
<path class="bond-15 atom-14 atom-16" d="M 146.2,103.4 L 169.4,119.7" style="fill:none;fill-rule:evenodd;stroke:#000000;stroke-width:2.0px;stroke-linecap:butt;stroke-linejoin:miter;stroke-opacity:1"/>
<path class="bond-16 atom-14 atom-17" d="M 146.2,103.4 L 127.9,137.7" style="fill:none;fill-rule:evenodd;stroke:#000000;stroke-width:2.0px;stroke-linecap:butt;stroke-linejoin:miter;stroke-opacity:1"/>
<path class="bond-17 atom-17 atom-18" d="M 127.9,137.7 L 148.5,170.7" style="fill:none;fill-rule:evenodd;stroke:#000000;stroke-width:2.0px;stroke-linecap:butt;stroke-linejoin:miter;stroke-opacity:1"/>
<path d="M 234.7,104.7 L 233.0,105.7 L 231.3,104.8" style="fill:none;stroke:#000000;stroke-width:2.0px;stroke-linecap:butt;stroke-linejoin:miter;stroke-opacity:1;"/>
<path d="M 131.9,51.8 L 130.2,50.9 L 128.5,51.9" style="fill:none;stroke:#000000;stroke-width:2.0px;stroke-linecap:butt;stroke-linejoin:miter;stroke-opacity:1;"/>
<path d="M 65.9,91.0 L 64.2,92.0 L 63.5,91.6" style="fill:none;stroke:#000000;stroke-width:2.0px;stroke-linecap:butt;stroke-linejoin:miter;stroke-opacity:1;"/>
<path d="M 128.8,136.0 L 127.9,137.7 L 128.9,139.4" style="fill:none;stroke:#000000;stroke-width:2.0px;stroke-linecap:butt;stroke-linejoin:miter;stroke-opacity:1;"/>
<path class="atom-6" d="M 177.7 34.9 Q 177.7 32.2, 179.0 30.8 Q 180.3 29.3, 182.7 29.3 Q 185.2 29.3, 186.5 30.8 Q 187.8 32.2, 187.8 34.9 Q 187.8 37.6, 186.4 39.1 Q 185.1 40.6, 182.7 40.6 Q 180.3 40.6, 179.0 39.1 Q 177.7 37.6, 177.7 34.9 M 182.7 39.4 Q 184.4 39.4, 185.3 38.2 Q 186.2 37.1, 186.2 34.9 Q 186.2 32.7, 185.3 31.6 Q 184.4 30.5, 182.7 30.5 Q 181.0 30.5, 180.1 31.6 Q 179.2 32.7, 179.2 34.9 Q 179.2 37.1, 180.1 38.2 Q 181.0 39.4, 182.7 39.4 " fill="#FF0000"/>
<path class="atom-6" d="M 189.5 29.4 L 191.0 29.4 L 191.0 34.1 L 196.6 34.1 L 196.6 29.4 L 198.1 29.4 L 198.1 40.4 L 196.6 40.4 L 196.6 35.3 L 191.0 35.3 L 191.0 40.4 L 189.5 40.4 L 189.5 29.4 " fill="#FF0000"/>
<path class="atom-12" d="M 60.5 130.9 Q 60.5 128.2, 61.8 126.7 Q 63.1 125.3, 65.5 125.3 Q 68.0 125.3, 69.3 126.7 Q 70.6 128.2, 70.6 130.9 Q 70.6 133.5, 69.3 135.1 Q 67.9 136.6, 65.5 136.6 Q 63.1 136.6, 61.8 135.1 Q 60.5 133.6, 60.5 130.9 M 65.5 135.3 Q 67.2 135.3, 68.1 134.2 Q 69.0 133.1, 69.0 130.9 Q 69.0 128.7, 68.1 127.6 Q 67.2 126.5, 65.5 126.5 Q 63.9 126.5, 62.9 127.6 Q 62.0 128.7, 62.0 130.9 Q 62.0 133.1, 62.9 134.2 Q 63.9 135.3, 65.5 135.3 " fill="#FF0000"/>
<path class="atom-13" d="M 14.0 68.3 L 15.5 68.3 L 15.5 73.0 L 21.1 73.0 L 21.1 68.3 L 22.6 68.3 L 22.6 79.3 L 21.1 79.3 L 21.1 74.2 L 15.5 74.2 L 15.5 79.3 L 14.0 79.3 L 14.0 68.3 " fill="#FF0000"/>
<path class="atom-13" d="M 24.9 73.8 Q 24.9 71.1, 26.2 69.6 Q 27.5 68.2, 29.9 68.2 Q 32.4 68.2, 33.7 69.6 Q 35.0 71.1, 35.0 73.8 Q 35.0 76.4, 33.6 78.0 Q 32.3 79.5, 29.9 79.5 Q 27.5 79.5, 26.2 78.0 Q 24.9 76.4, 24.9 73.8 M 29.9 78.2 Q 31.6 78.2, 32.5 77.1 Q 33.4 76.0, 33.4 73.8 Q 33.4 71.6, 32.5 70.5 Q 31.6 69.4, 29.9 69.4 Q 28.2 69.4, 27.3 70.5 Q 26.4 71.6, 26.4 73.8 Q 26.4 76.0, 27.3 77.1 Q 28.2 78.2, 29.9 78.2 " fill="#FF0000"/>
</svg>
