<?xml version='1.0' encoding='ASCII' standalone='yes'?>
<svg xmlns="http://www.w3.org/2000/svg" xmlns:rdkit="http://www.rdkit.org/xml" xmlns:xlink="http://www.w3.org/1999/xlink" version="1.1" baseProfile="full" xml:space="preserve" width="265px" height="200px" viewBox="0 0 265 200">
<!-- END OF HEADER -->
<rect style="opacity:1.0;fill:#FFFFFF;stroke:none" width="265.0" height="200.0" x="0.0" y="0.0"> </rect>
<path class="bond-0 atom-0 atom-1" d="M 39.7,125.9 L 47.3,118.0" style="fill:none;fill-rule:evenodd;stroke:#FF0000;stroke-width:2.0px;stroke-linecap:butt;stroke-linejoin:miter;stroke-opacity:1"/>
<path class="bond-0 atom-0 atom-1" d="M 47.3,118.0 L 54.8,110.2" style="fill:none;fill-rule:evenodd;stroke:#FF7F00;stroke-width:2.0px;stroke-linecap:butt;stroke-linejoin:miter;stroke-opacity:1"/>
<path class="bond-0 atom-0 atom-1" d="M 43.7,129.7 L 51.3,121.9" style="fill:none;fill-rule:evenodd;stroke:#FF0000;stroke-width:2.0px;stroke-linecap:butt;stroke-linejoin:miter;stroke-opacity:1"/>
<path class="bond-0 atom-0 atom-1" d="M 51.3,121.9 L 58.8,114.1" style="fill:none;fill-rule:evenodd;stroke:#FF7F00;stroke-width:2.0px;stroke-linecap:butt;stroke-linejoin:miter;stroke-opacity:1"/>
<path class="bond-1 atom-1 atom-2" d="M 66.0,102.7 L 73.5,94.9" style="fill:none;fill-rule:evenodd;stroke:#FF7F00;stroke-width:2.0px;stroke-linecap:butt;stroke-linejoin:miter;stroke-opacity:1"/>
<path class="bond-1 atom-1 atom-2" d="M 73.5,94.9 L 81.1,87.1" style="fill:none;fill-rule:evenodd;stroke:#FF0000;stroke-width:2.0px;stroke-linecap:butt;stroke-linejoin:miter;stroke-opacity:1"/>
<path class="bond-2 atom-1 atom-3" d="M 56.8,103.0 L 48.8,95.3" style="fill:none;fill-rule:evenodd;stroke:#FF7F00;stroke-width:2.0px;stroke-linecap:butt;stroke-linejoin:miter;stroke-opacity:1"/>
<path class="bond-2 atom-1 atom-3" d="M 48.8,95.3 L 40.8,87.5" style="fill:none;fill-rule:evenodd;stroke:#FF0000;stroke-width:2.0px;stroke-linecap:butt;stroke-linejoin:miter;stroke-opacity:1"/>
<path class="bond-3 atom-1 atom-4" d="M 66.0,111.8 L 74.0,119.6" style="fill:none;fill-rule:evenodd;stroke:#FF7F00;stroke-width:2.0px;stroke-linecap:butt;stroke-linejoin:miter;stroke-opacity:1"/>
<path class="bond-3 atom-1 atom-4" d="M 74.0,119.6 L 82.0,127.3" style="fill:none;fill-rule:evenodd;stroke:#FF0000;stroke-width:2.0px;stroke-linecap:butt;stroke-linejoin:miter;stroke-opacity:1"/>
<path class="bond-4 atom-4 atom-5" d="M 94.0,131.4 L 108.8,127.2" style="fill:none;fill-rule:evenodd;stroke:#FF0000;stroke-width:2.0px;stroke-linecap:butt;stroke-linejoin:miter;stroke-opacity:1"/>
<path class="bond-4 atom-4 atom-5" d="M 108.8,127.2 L 123.5,122.9" style="fill:none;fill-rule:evenodd;stroke:#000000;stroke-width:2.0px;stroke-linecap:butt;stroke-linejoin:miter;stroke-opacity:1"/>
<path class="bond-5 atom-5 atom-6" d="M 123.5,122.9 L 127.2,108.3" style="fill:none;fill-rule:evenodd;stroke:#000000;stroke-width:2.0px;stroke-linecap:butt;stroke-linejoin:miter;stroke-opacity:1"/>
<path class="bond-5 atom-5 atom-6" d="M 127.2,108.3 L 130.8,93.7" style="fill:none;fill-rule:evenodd;stroke:#FF0000;stroke-width:2.0px;stroke-linecap:butt;stroke-linejoin:miter;stroke-opacity:1"/>
<path class="bond-6 atom-6 atom-7" d="M 138.5,85.3 L 153.3,81.1" style="fill:none;fill-rule:evenodd;stroke:#FF0000;stroke-width:2.0px;stroke-linecap:butt;stroke-linejoin:miter;stroke-opacity:1"/>
<path class="bond-6 atom-6 atom-7" d="M 153.3,81.1 L 168.1,76.9" style="fill:none;fill-rule:evenodd;stroke:#000000;stroke-width:2.0px;stroke-linecap:butt;stroke-linejoin:miter;stroke-opacity:1"/>
<path class="bond-7 atom-7 atom-8" d="M 168.1,76.9 L 177.0,41.0" style="fill:none;fill-rule:evenodd;stroke:#000000;stroke-width:2.0px;stroke-linecap:butt;stroke-linejoin:miter;stroke-opacity:1"/>
<path class="bond-8 atom-8 atom-9" d="M 177.0,41.0 L 166.8,31.1" style="fill:none;fill-rule:evenodd;stroke:#000000;stroke-width:2.0px;stroke-linecap:butt;stroke-linejoin:miter;stroke-opacity:1"/>
<path class="bond-8 atom-8 atom-9" d="M 166.8,31.1 L 156.5,21.1" style="fill:none;fill-rule:evenodd;stroke:#FF0000;stroke-width:2.0px;stroke-linecap:butt;stroke-linejoin:miter;stroke-opacity:1"/>
<path class="bond-9 atom-7 atom-10" d="M 168.1,76.9 L 194.7,102.6" style="fill:none;fill-rule:evenodd;stroke:#000000;stroke-width:2.0px;stroke-linecap:butt;stroke-linejoin:miter;stroke-opacity:1"/>
<path class="bond-10 atom-10 atom-11" d="M 194.7,102.6 L 209.4,98.4" style="fill:none;fill-rule:evenodd;stroke:#000000;stroke-width:2.0px;stroke-linecap:butt;stroke-linejoin:miter;stroke-opacity:1"/>
<path class="bond-10 atom-10 atom-11" d="M 209.4,98.4 L 224.2,94.1" style="fill:none;fill-rule:evenodd;stroke:#FF0000;stroke-width:2.0px;stroke-linecap:butt;stroke-linejoin:miter;stroke-opacity:1"/>
<path class="bond-11 atom-10 atom-12" d="M 194.7,102.6 L 185.7,138.5" style="fill:none;fill-rule:evenodd;stroke:#000000;stroke-width:2.0px;stroke-linecap:butt;stroke-linejoin:miter;stroke-opacity:1"/>
<path class="bond-12 atom-12 atom-13" d="M 185.7,138.5 L 196.0,148.4" style="fill:none;fill-rule:evenodd;stroke:#000000;stroke-width:2.0px;stroke-linecap:butt;stroke-linejoin:miter;stroke-opacity:1"/>
<path class="bond-12 atom-12 atom-13" d="M 196.0,148.4 L 206.3,158.4" style="fill:none;fill-rule:evenodd;stroke:#FF0000;stroke-width:2.0px;stroke-linecap:butt;stroke-linejoin:miter;stroke-opacity:1"/>
<path class="bond-13 atom-12 atom-14" d="M 185.7,138.5 L 150.1,148.7" style="fill:none;fill-rule:evenodd;stroke:#000000;stroke-width:2.0px;stroke-linecap:butt;stroke-linejoin:miter;stroke-opacity:1"/>
<path class="bond-14 atom-14 atom-15" d="M 150.1,148.7 L 146.5,163.3" style="fill:none;fill-rule:evenodd;stroke:#000000;stroke-width:2.0px;stroke-linecap:butt;stroke-linejoin:miter;stroke-opacity:1"/>
<path class="bond-14 atom-14 atom-15" d="M 146.5,163.3 L 142.8,178.0" style="fill:none;fill-rule:evenodd;stroke:#FF0000;stroke-width:2.0px;stroke-linecap:butt;stroke-linejoin:miter;stroke-opacity:1"/>
<path class="bond-15 atom-14 atom-5" d="M 150.1,148.7 L 123.5,122.9" style="fill:none;fill-rule:evenodd;stroke:#000000;stroke-width:2.0px;stroke-linecap:butt;stroke-linejoin:miter;stroke-opacity:1"/>
<path d="M 176.6,42.8 L 177.0,41.0 L 176.5,40.5" style="fill:none;stroke:#000000;stroke-width:2.0px;stroke-linecap:butt;stroke-linejoin:miter;stroke-opacity:1;"/>
<path class="atom-0" d="M 30.9 134.0 Q 30.9 131.5, 32.1 130.1 Q 33.4 128.7, 35.7 128.7 Q 38.0 128.7, 39.2 130.1 Q 40.5 131.5, 40.5 134.0 Q 40.5 136.6, 39.2 138.0 Q 38.0 139.5, 35.7 139.5 Q 33.4 139.5, 32.1 138.0 Q 30.9 136.6, 30.9 134.0 M 35.7 138.3 Q 37.3 138.3, 38.1 137.2 Q 39.0 136.1, 39.0 134.0 Q 39.0 132.0, 38.1 131.0 Q 37.3 129.9, 35.7 129.9 Q 34.1 129.9, 33.2 130.9 Q 32.4 132.0, 32.4 134.0 Q 32.4 136.2, 33.2 137.2 Q 34.1 138.3, 35.7 138.3 " fill="#FF0000"/>
<path class="atom-1" d="M 61.1 102.2 Q 62.9 102.2, 63.8 103.0 Q 64.7 103.8, 64.7 105.3 Q 64.7 106.7, 63.8 107.5 Q 62.9 108.4, 61.1 108.4 L 59.5 108.4 L 59.5 112.7 L 58.0 112.7 L 58.0 102.2 L 61.1 102.2 M 61.1 107.2 Q 62.2 107.2, 62.7 106.7 Q 63.3 106.2, 63.3 105.3 Q 63.3 104.3, 62.7 103.9 Q 62.2 103.4, 61.1 103.4 L 59.5 103.4 L 59.5 107.2 L 61.1 107.2 " fill="#FF7F00"/>
<path class="atom-2" d="M 82.3 80.9 Q 82.3 78.3, 83.5 76.9 Q 84.8 75.5, 87.1 75.5 Q 89.4 75.5, 90.7 76.9 Q 91.9 78.3, 91.9 80.9 Q 91.9 83.4, 90.6 84.9 Q 89.4 86.3, 87.1 86.3 Q 84.8 86.3, 83.5 84.9 Q 82.3 83.4, 82.3 80.9 M 87.1 85.1 Q 88.7 85.1, 89.6 84.0 Q 90.4 83.0, 90.4 80.9 Q 90.4 78.8, 89.6 77.8 Q 88.7 76.7, 87.1 76.7 Q 85.5 76.7, 84.6 77.8 Q 83.8 78.8, 83.8 80.9 Q 83.8 83.0, 84.6 84.0 Q 85.5 85.1, 87.1 85.1 " fill="#FF0000"/>
<path class="atom-2" d="M 93.5 75.6 L 95.0 75.6 L 95.0 80.1 L 100.3 80.1 L 100.3 75.6 L 101.7 75.6 L 101.7 86.1 L 100.3 86.1 L 100.3 81.3 L 95.0 81.3 L 95.0 86.1 L 93.5 86.1 L 93.5 75.6 " fill="#FF0000"/>
<path class="atom-3" d="M 19.6 76.5 L 21.1 76.5 L 21.1 81.0 L 26.4 81.0 L 26.4 76.5 L 27.8 76.5 L 27.8 87.0 L 26.4 87.0 L 26.4 82.2 L 21.1 82.2 L 21.1 87.0 L 19.6 87.0 L 19.6 76.5 " fill="#FF0000"/>
<path class="atom-3" d="M 30.0 81.7 Q 30.0 79.2, 31.2 77.8 Q 32.5 76.4, 34.8 76.4 Q 37.1 76.4, 38.4 77.8 Q 39.6 79.2, 39.6 81.7 Q 39.6 84.3, 38.3 85.7 Q 37.1 87.2, 34.8 87.2 Q 32.5 87.2, 31.2 85.7 Q 30.0 84.3, 30.0 81.7 M 34.8 86.0 Q 36.4 86.0, 37.3 84.9 Q 38.1 83.8, 38.1 81.7 Q 38.1 79.7, 37.3 78.7 Q 36.4 77.6, 34.8 77.6 Q 33.2 77.6, 32.3 78.6 Q 31.5 79.7, 31.5 81.7 Q 31.5 83.9, 32.3 84.9 Q 33.2 86.0, 34.8 86.0 " fill="#FF0000"/>
<path class="atom-4" d="M 83.2 133.2 Q 83.2 130.6, 84.4 129.2 Q 85.7 127.8, 88.0 127.8 Q 90.3 127.8, 91.5 129.2 Q 92.8 130.6, 92.8 133.2 Q 92.8 135.7, 91.5 137.2 Q 90.3 138.6, 88.0 138.6 Q 85.7 138.6, 84.4 137.2 Q 83.2 135.7, 83.2 133.2 M 88.0 137.4 Q 89.6 137.4, 90.4 136.3 Q 91.3 135.3, 91.3 133.2 Q 91.3 131.1, 90.4 130.1 Q 89.6 129.0, 88.0 129.0 Q 86.4 129.0, 85.5 130.1 Q 84.7 131.1, 84.7 133.2 Q 84.7 135.3, 85.5 136.3 Q 86.4 137.4, 88.0 137.4 " fill="#FF0000"/>
<path class="atom-6" d="M 127.7 87.1 Q 127.7 84.6, 128.9 83.2 Q 130.2 81.8, 132.5 81.8 Q 134.8 81.8, 136.1 83.2 Q 137.3 84.6, 137.3 87.1 Q 137.3 89.6, 136.1 91.1 Q 134.8 92.5, 132.5 92.5 Q 130.2 92.5, 128.9 91.1 Q 127.7 89.7, 127.7 87.1 M 132.5 91.3 Q 134.1 91.3, 135.0 90.3 Q 135.8 89.2, 135.8 87.1 Q 135.8 85.0, 135.0 84.0 Q 134.1 83.0, 132.5 83.0 Q 130.9 83.0, 130.0 84.0 Q 129.2 85.0, 129.2 87.1 Q 129.2 89.2, 130.0 90.3 Q 130.9 91.3, 132.5 91.3 " fill="#FF0000"/>
<path class="atom-9" d="M 135.3 10.1 L 136.7 10.1 L 136.7 14.6 L 142.1 14.6 L 142.1 10.1 L 143.5 10.1 L 143.5 20.6 L 142.1 20.6 L 142.1 15.8 L 136.7 15.8 L 136.7 20.6 L 135.3 20.6 L 135.3 10.1 " fill="#FF0000"/>
<path class="atom-9" d="M 145.6 15.3 Q 145.6 12.8, 146.9 11.4 Q 148.1 10.0, 150.4 10.0 Q 152.8 10.0, 154.0 11.4 Q 155.2 12.8, 155.2 15.3 Q 155.2 17.9, 154.0 19.3 Q 152.7 20.8, 150.4 20.8 Q 148.1 20.8, 146.9 19.3 Q 145.6 17.9, 145.6 15.3 M 150.4 19.6 Q 152.0 19.6, 152.9 18.5 Q 153.8 17.4, 153.8 15.3 Q 153.8 13.3, 152.9 12.2 Q 152.0 11.2, 150.4 11.2 Q 148.8 11.2, 148.0 12.2 Q 147.1 13.3, 147.1 15.3 Q 147.1 17.4, 148.0 18.5 Q 148.8 19.6, 150.4 19.6 " fill="#FF0000"/>
<path class="atom-11" d="M 225.4 92.4 Q 225.4 89.9, 226.7 88.5 Q 227.9 87.1, 230.2 87.1 Q 232.5 87.1, 233.8 88.5 Q 235.0 89.9, 235.0 92.4 Q 235.0 95.0, 233.8 96.4 Q 232.5 97.9, 230.2 97.9 Q 227.9 97.9, 226.7 96.4 Q 225.4 95.0, 225.4 92.4 M 230.2 96.7 Q 231.8 96.7, 232.7 95.6 Q 233.6 94.5, 233.6 92.4 Q 233.6 90.4, 232.7 89.4 Q 231.8 88.3, 230.2 88.3 Q 228.6 88.3, 227.8 89.3 Q 226.9 90.4, 226.9 92.4 Q 226.9 94.6, 227.8 95.6 Q 228.6 96.7, 230.2 96.7 " fill="#FF0000"/>
<path class="atom-11" d="M 236.7 87.2 L 238.1 87.2 L 238.1 91.7 L 243.4 91.7 L 243.4 87.2 L 244.9 87.2 L 244.9 97.7 L 243.4 97.7 L 243.4 92.9 L 238.1 92.9 L 238.1 97.7 L 236.7 97.7 L 236.7 87.2 " fill="#FF0000"/>
<path class="atom-13" d="M 207.5 164.2 Q 207.5 161.7, 208.7 160.3 Q 210.0 158.9, 212.3 158.9 Q 214.6 158.9, 215.9 160.3 Q 217.1 161.7, 217.1 164.2 Q 217.1 166.8, 215.8 168.2 Q 214.6 169.6, 212.3 169.6 Q 210.0 169.6, 208.7 168.2 Q 207.5 166.8, 207.5 164.2 M 212.3 168.5 Q 213.9 168.5, 214.7 167.4 Q 215.6 166.3, 215.6 164.2 Q 215.6 162.2, 214.7 161.1 Q 213.9 160.1, 212.3 160.1 Q 210.7 160.1, 209.8 161.1 Q 209.0 162.1, 209.0 164.2 Q 209.0 166.3, 209.8 167.4 Q 210.7 168.5, 212.3 168.5 " fill="#FF0000"/>
<path class="atom-13" d="M 218.7 159.0 L 220.2 159.0 L 220.2 163.5 L 225.5 163.5 L 225.5 159.0 L 226.9 159.0 L 226.9 169.5 L 225.5 169.5 L 225.5 164.6 L 220.2 164.6 L 220.2 169.5 L 218.7 169.5 L 218.7 159.0 " fill="#FF0000"/>
<path class="atom-15" d="M 136.4 184.6 Q 136.4 182.1, 137.6 180.6 Q 138.8 179.2, 141.2 179.2 Q 143.5 179.2, 144.7 180.6 Q 146.0 182.1, 146.0 184.6 Q 146.0 187.1, 144.7 188.6 Q 143.5 190.0, 141.2 190.0 Q 138.9 190.0, 137.6 188.6 Q 136.4 187.1, 136.4 184.6 M 141.2 188.8 Q 142.8 188.8, 143.6 187.8 Q 144.5 186.7, 144.5 184.6 Q 144.5 182.5, 143.6 181.5 Q 142.8 180.4, 141.2 180.4 Q 139.6 180.4, 138.7 181.5 Q 137.8 182.5, 137.8 184.6 Q 137.8 186.7, 138.7 187.8 Q 139.6 188.8, 141.2 188.8 " fill="#FF0000"/>
<path class="atom-15" d="M 147.6 179.4 L 149.0 179.4 L 149.0 183.8 L 154.4 183.8 L 154.4 179.4 L 155.8 179.4 L 155.8 189.8 L 154.4 189.8 L 154.4 185.0 L 149.0 185.0 L 149.0 189.8 L 147.6 189.8 L 147.6 179.4 " fill="#FF0000"/>
</svg>
