<?xml version='1.0' encoding='ASCII' standalone='yes'?>
<svg xmlns="http://www.w3.org/2000/svg" xmlns:rdkit="http://www.rdkit.org/xml" xmlns:xlink="http://www.w3.org/1999/xlink" version="1.1" baseProfile="full" xml:space="preserve" width="323px" height="200px" viewBox="0 0 323 200">
<!-- END OF HEADER -->
<rect style="opacity:1.0;fill:#FFFFFF;stroke:none" width="323.0" height="200.0" x="0.0" y="0.0"> </rect>
<path class="bond-0 atom-0 atom-1" d="M 192.9,115.5 L 188.7,88.8" style="fill:none;fill-rule:evenodd;stroke:#000000;stroke-width:2.0px;stroke-linecap:butt;stroke-linejoin:miter;stroke-opacity:1"/>
<path class="bond-1 atom-1 atom-2" d="M 188.7,88.8 L 163.5,79.2" style="fill:none;fill-rule:evenodd;stroke:#000000;stroke-width:2.0px;stroke-linecap:butt;stroke-linejoin:miter;stroke-opacity:1"/>
<path class="bond-2 atom-2 atom-3" d="M 163.5,79.2 L 142.5,96.2" style="fill:none;fill-rule:evenodd;stroke:#000000;stroke-width:2.0px;stroke-linecap:butt;stroke-linejoin:miter;stroke-opacity:1"/>
<path class="bond-3 atom-3 atom-4" d="M 142.5,96.2 L 117.3,86.5" style="fill:none;fill-rule:evenodd;stroke:#000000;stroke-width:2.0px;stroke-linecap:butt;stroke-linejoin:miter;stroke-opacity:1"/>
<path class="bond-4 atom-4 atom-5" d="M 117.3,86.5 L 113.0,59.8" style="fill:none;fill-rule:evenodd;stroke:#000000;stroke-width:2.0px;stroke-linecap:butt;stroke-linejoin:miter;stroke-opacity:1"/>
<path class="bond-5 atom-5 atom-6" d="M 113.0,59.8 L 121.3,53.1" style="fill:none;fill-rule:evenodd;stroke:#000000;stroke-width:2.0px;stroke-linecap:butt;stroke-linejoin:miter;stroke-opacity:1"/>
<path class="bond-5 atom-5 atom-6" d="M 121.3,53.1 L 129.6,46.4" style="fill:none;fill-rule:evenodd;stroke:#FF0000;stroke-width:2.0px;stroke-linecap:butt;stroke-linejoin:miter;stroke-opacity:1"/>
<path class="bond-6 atom-5 atom-7" d="M 113.0,59.8 L 87.8,50.2" style="fill:none;fill-rule:evenodd;stroke:#000000;stroke-width:2.0px;stroke-linecap:butt;stroke-linejoin:miter;stroke-opacity:1"/>
<path class="bond-7 atom-7 atom-8" d="M 87.8,50.2 L 78.2,75.4" style="fill:none;fill-rule:evenodd;stroke:#000000;stroke-width:2.0px;stroke-linecap:butt;stroke-linejoin:miter;stroke-opacity:1"/>
<path class="bond-8 atom-7 atom-9" d="M 87.8,50.2 L 97.5,25.0" style="fill:none;fill-rule:evenodd;stroke:#000000;stroke-width:2.0px;stroke-linecap:butt;stroke-linejoin:miter;stroke-opacity:1"/>
<path class="bond-9 atom-7 atom-10" d="M 87.8,50.2 L 62.6,40.5" style="fill:none;fill-rule:evenodd;stroke:#000000;stroke-width:2.0px;stroke-linecap:butt;stroke-linejoin:miter;stroke-opacity:1"/>
<path class="bond-10 atom-10 atom-11" d="M 64.8,41.4 L 63.0,29.9" style="fill:none;fill-rule:evenodd;stroke:#000000;stroke-width:2.0px;stroke-linecap:butt;stroke-linejoin:miter;stroke-opacity:1"/>
<path class="bond-10 atom-10 atom-11" d="M 63.0,29.9 L 61.2,18.4" style="fill:none;fill-rule:evenodd;stroke:#FF0000;stroke-width:2.0px;stroke-linecap:butt;stroke-linejoin:miter;stroke-opacity:1"/>
<path class="bond-10 atom-10 atom-11" d="M 60.8,42.0 L 59.0,30.5" style="fill:none;fill-rule:evenodd;stroke:#000000;stroke-width:2.0px;stroke-linecap:butt;stroke-linejoin:miter;stroke-opacity:1"/>
<path class="bond-10 atom-10 atom-11" d="M 59.0,30.5 L 57.2,19.1" style="fill:none;fill-rule:evenodd;stroke:#FF0000;stroke-width:2.0px;stroke-linecap:butt;stroke-linejoin:miter;stroke-opacity:1"/>
<path class="bond-11 atom-10 atom-12" d="M 62.6,40.5 L 54.3,47.2" style="fill:none;fill-rule:evenodd;stroke:#000000;stroke-width:2.0px;stroke-linecap:butt;stroke-linejoin:miter;stroke-opacity:1"/>
<path class="bond-11 atom-10 atom-12" d="M 54.3,47.2 L 46.0,54.0" style="fill:none;fill-rule:evenodd;stroke:#FF0000;stroke-width:2.0px;stroke-linecap:butt;stroke-linejoin:miter;stroke-opacity:1"/>
<path class="bond-12 atom-3 atom-13" d="M 142.5,96.2 L 146.7,122.8" style="fill:none;fill-rule:evenodd;stroke:#000000;stroke-width:2.0px;stroke-linecap:butt;stroke-linejoin:miter;stroke-opacity:1"/>
<path class="bond-13 atom-13 atom-14" d="M 146.7,122.8 L 157.1,126.8" style="fill:none;fill-rule:evenodd;stroke:#000000;stroke-width:2.0px;stroke-linecap:butt;stroke-linejoin:miter;stroke-opacity:1"/>
<path class="bond-13 atom-13 atom-14" d="M 157.1,126.8 L 167.5,130.8" style="fill:none;fill-rule:evenodd;stroke:#FF0000;stroke-width:2.0px;stroke-linecap:butt;stroke-linejoin:miter;stroke-opacity:1"/>
<path class="bond-14 atom-13 atom-15" d="M 146.7,122.8 L 125.8,139.8" style="fill:none;fill-rule:evenodd;stroke:#000000;stroke-width:2.0px;stroke-linecap:butt;stroke-linejoin:miter;stroke-opacity:1"/>
<path class="bond-15 atom-15 atom-16" d="M 125.8,139.8 L 108.8,118.9" style="fill:none;fill-rule:evenodd;stroke:#000000;stroke-width:2.0px;stroke-linecap:butt;stroke-linejoin:miter;stroke-opacity:1"/>
<path class="bond-16 atom-15 atom-17" d="M 125.8,139.8 L 142.8,160.8" style="fill:none;fill-rule:evenodd;stroke:#000000;stroke-width:2.0px;stroke-linecap:butt;stroke-linejoin:miter;stroke-opacity:1"/>
<path class="bond-17 atom-17 atom-18" d="M 142.8,160.8 L 138.8,171.0" style="fill:none;fill-rule:evenodd;stroke:#000000;stroke-width:2.0px;stroke-linecap:butt;stroke-linejoin:miter;stroke-opacity:1"/>
<path class="bond-17 atom-17 atom-18" d="M 138.8,171.0 L 134.9,181.3" style="fill:none;fill-rule:evenodd;stroke:#FF0000;stroke-width:2.0px;stroke-linecap:butt;stroke-linejoin:miter;stroke-opacity:1"/>
<path class="bond-18 atom-15 atom-19" d="M 125.8,139.8 L 104.8,156.8" style="fill:none;fill-rule:evenodd;stroke:#000000;stroke-width:2.0px;stroke-linecap:butt;stroke-linejoin:miter;stroke-opacity:1"/>
<path class="bond-19 atom-19 atom-20" d="M 102.6,156.0 L 104.4,167.5" style="fill:none;fill-rule:evenodd;stroke:#000000;stroke-width:2.0px;stroke-linecap:butt;stroke-linejoin:miter;stroke-opacity:1"/>
<path class="bond-19 atom-19 atom-20" d="M 104.4,167.5 L 106.3,179.1" style="fill:none;fill-rule:evenodd;stroke:#FF0000;stroke-width:2.0px;stroke-linecap:butt;stroke-linejoin:miter;stroke-opacity:1"/>
<path class="bond-19 atom-19 atom-20" d="M 106.6,155.4 L 108.4,166.9" style="fill:none;fill-rule:evenodd;stroke:#000000;stroke-width:2.0px;stroke-linecap:butt;stroke-linejoin:miter;stroke-opacity:1"/>
<path class="bond-19 atom-19 atom-20" d="M 108.4,166.9 L 110.3,178.4" style="fill:none;fill-rule:evenodd;stroke:#FF0000;stroke-width:2.0px;stroke-linecap:butt;stroke-linejoin:miter;stroke-opacity:1"/>
<path class="bond-20 atom-19 atom-21" d="M 104.8,156.8 L 94.4,152.9" style="fill:none;fill-rule:evenodd;stroke:#000000;stroke-width:2.0px;stroke-linecap:butt;stroke-linejoin:miter;stroke-opacity:1"/>
<path class="bond-20 atom-19 atom-21" d="M 94.4,152.9 L 84.0,148.9" style="fill:none;fill-rule:evenodd;stroke:#FF0000;stroke-width:2.0px;stroke-linecap:butt;stroke-linejoin:miter;stroke-opacity:1"/>
<path class="bond-21 atom-1 atom-22" d="M 188.7,88.8 L 209.6,71.8" style="fill:none;fill-rule:evenodd;stroke:#000000;stroke-width:2.0px;stroke-linecap:butt;stroke-linejoin:miter;stroke-opacity:1"/>
<path class="bond-22 atom-22 atom-23" d="M 209.6,71.8 L 207.9,60.9" style="fill:none;fill-rule:evenodd;stroke:#000000;stroke-width:2.0px;stroke-linecap:butt;stroke-linejoin:miter;stroke-opacity:1"/>
<path class="bond-22 atom-22 atom-23" d="M 207.9,60.9 L 206.2,50.0" style="fill:none;fill-rule:evenodd;stroke:#FF0000;stroke-width:2.0px;stroke-linecap:butt;stroke-linejoin:miter;stroke-opacity:1"/>
<path class="bond-23 atom-22 atom-24" d="M 209.6,71.8 L 234.8,81.5" style="fill:none;fill-rule:evenodd;stroke:#000000;stroke-width:2.0px;stroke-linecap:butt;stroke-linejoin:miter;stroke-opacity:1"/>
<path class="bond-24 atom-24 atom-25" d="M 234.8,81.5 L 225.2,106.7" style="fill:none;fill-rule:evenodd;stroke:#000000;stroke-width:2.0px;stroke-linecap:butt;stroke-linejoin:miter;stroke-opacity:1"/>
<path class="bond-25 atom-24 atom-26" d="M 234.8,81.5 L 244.5,56.3" style="fill:none;fill-rule:evenodd;stroke:#000000;stroke-width:2.0px;stroke-linecap:butt;stroke-linejoin:miter;stroke-opacity:1"/>
<path class="bond-26 atom-26 atom-27" d="M 244.5,56.3 L 255.6,54.5" style="fill:none;fill-rule:evenodd;stroke:#000000;stroke-width:2.0px;stroke-linecap:butt;stroke-linejoin:miter;stroke-opacity:1"/>
<path class="bond-26 atom-26 atom-27" d="M 255.6,54.5 L 266.8,52.7" style="fill:none;fill-rule:evenodd;stroke:#FF0000;stroke-width:2.0px;stroke-linecap:butt;stroke-linejoin:miter;stroke-opacity:1"/>
<path class="bond-27 atom-24 atom-28" d="M 234.8,81.5 L 260.1,91.1" style="fill:none;fill-rule:evenodd;stroke:#000000;stroke-width:2.0px;stroke-linecap:butt;stroke-linejoin:miter;stroke-opacity:1"/>
<path class="bond-28 atom-28 atom-29" d="M 257.9,90.3 L 259.7,101.8" style="fill:none;fill-rule:evenodd;stroke:#000000;stroke-width:2.0px;stroke-linecap:butt;stroke-linejoin:miter;stroke-opacity:1"/>
<path class="bond-28 atom-28 atom-29" d="M 259.7,101.8 L 261.5,113.4" style="fill:none;fill-rule:evenodd;stroke:#FF0000;stroke-width:2.0px;stroke-linecap:butt;stroke-linejoin:miter;stroke-opacity:1"/>
<path class="bond-28 atom-28 atom-29" d="M 261.9,89.7 L 263.7,101.2" style="fill:none;fill-rule:evenodd;stroke:#000000;stroke-width:2.0px;stroke-linecap:butt;stroke-linejoin:miter;stroke-opacity:1"/>
<path class="bond-28 atom-28 atom-29" d="M 263.7,101.2 L 265.5,112.7" style="fill:none;fill-rule:evenodd;stroke:#FF0000;stroke-width:2.0px;stroke-linecap:butt;stroke-linejoin:miter;stroke-opacity:1"/>
<path class="bond-29 atom-28 atom-30" d="M 260.1,91.1 L 268.3,84.4" style="fill:none;fill-rule:evenodd;stroke:#000000;stroke-width:2.0px;stroke-linecap:butt;stroke-linejoin:miter;stroke-opacity:1"/>
<path class="bond-29 atom-28 atom-30" d="M 268.3,84.4 L 276.6,77.7" style="fill:none;fill-rule:evenodd;stroke:#FF0000;stroke-width:2.0px;stroke-linecap:butt;stroke-linejoin:miter;stroke-opacity:1"/>
<path d="M 164.7,79.7 L 163.5,79.2 L 162.4,80.0" style="fill:none;stroke:#000000;stroke-width:2.0px;stroke-linecap:butt;stroke-linejoin:miter;stroke-opacity:1;"/>
<path d="M 118.5,87.0 L 117.3,86.5 L 117.1,85.2" style="fill:none;stroke:#000000;stroke-width:2.0px;stroke-linecap:butt;stroke-linejoin:miter;stroke-opacity:1;"/>
<path d="M 63.9,41.0 L 62.6,40.5 L 62.2,40.9" style="fill:none;stroke:#000000;stroke-width:2.0px;stroke-linecap:butt;stroke-linejoin:miter;stroke-opacity:1;"/>
<path d="M 141.9,159.8 L 142.8,160.8 L 142.6,161.3" style="fill:none;stroke:#000000;stroke-width:2.0px;stroke-linecap:butt;stroke-linejoin:miter;stroke-opacity:1;"/>
<path d="M 105.8,156.0 L 104.8,156.8 L 104.3,156.6" style="fill:none;stroke:#000000;stroke-width:2.0px;stroke-linecap:butt;stroke-linejoin:miter;stroke-opacity:1;"/>
<path d="M 244.0,57.5 L 244.5,56.3 L 245.1,56.2" style="fill:none;stroke:#000000;stroke-width:2.0px;stroke-linecap:butt;stroke-linejoin:miter;stroke-opacity:1;"/>
<path d="M 258.8,90.7 L 260.1,91.1 L 260.5,90.8" style="fill:none;stroke:#000000;stroke-width:2.0px;stroke-linecap:butt;stroke-linejoin:miter;stroke-opacity:1;"/>
<path class="atom-6" d="M 130.5 42.9 Q 130.5 41.0, 131.4 40.0 Q 132.3 39.0, 134.0 39.0 Q 135.7 39.0, 136.6 40.0 Q 137.5 41.0, 137.5 42.9 Q 137.5 44.7, 136.6 45.8 Q 135.7 46.8, 134.0 46.8 Q 132.3 46.8, 131.4 45.8 Q 130.5 44.7, 130.5 42.9 M 134.0 46.0 Q 135.2 46.0, 135.8 45.2 Q 136.4 44.4, 136.4 42.9 Q 136.4 41.4, 135.8 40.6 Q 135.2 39.8, 134.0 39.8 Q 132.8 39.8, 132.2 40.6 Q 131.6 41.4, 131.6 42.9 Q 131.6 44.4, 132.2 45.2 Q 132.8 46.0, 134.0 46.0 " fill="#FF0000"/>
<path class="atom-6" d="M 138.7 39.1 L 139.7 39.1 L 139.7 42.3 L 143.7 42.3 L 143.7 39.1 L 144.7 39.1 L 144.7 46.7 L 143.7 46.7 L 143.7 43.2 L 139.7 43.2 L 139.7 46.7 L 138.7 46.7 L 138.7 39.1 " fill="#FF0000"/>
<path class="atom-11" d="M 54.9 13.9 Q 54.9 12.1, 55.8 11.0 Q 56.7 10.0, 58.4 10.0 Q 60.1 10.0, 61.0 11.0 Q 61.9 12.1, 61.9 13.9 Q 61.9 15.7, 61.0 16.8 Q 60.1 17.9, 58.4 17.9 Q 56.7 17.9, 55.8 16.8 Q 54.9 15.8, 54.9 13.9 M 58.4 17.0 Q 59.5 17.0, 60.2 16.2 Q 60.8 15.4, 60.8 13.9 Q 60.8 12.4, 60.2 11.6 Q 59.5 10.9, 58.4 10.9 Q 57.2 10.9, 56.6 11.6 Q 55.9 12.4, 55.9 13.9 Q 55.9 15.4, 56.6 16.2 Q 57.2 17.0, 58.4 17.0 " fill="#FF0000"/>
<path class="atom-12" d="M 30.6 53.8 L 31.6 53.8 L 31.6 57.0 L 35.5 57.0 L 35.5 53.8 L 36.6 53.8 L 36.6 61.4 L 35.5 61.4 L 35.5 57.9 L 31.6 57.9 L 31.6 61.4 L 30.6 61.4 L 30.6 53.8 " fill="#FF0000"/>
<path class="atom-12" d="M 38.1 57.6 Q 38.1 55.7, 39.0 54.7 Q 40.0 53.7, 41.6 53.7 Q 43.3 53.7, 44.3 54.7 Q 45.2 55.7, 45.2 57.6 Q 45.2 59.4, 44.2 60.5 Q 43.3 61.5, 41.6 61.5 Q 40.0 61.5, 39.0 60.5 Q 38.1 59.4, 38.1 57.6 M 41.6 60.7 Q 42.8 60.7, 43.4 59.9 Q 44.1 59.1, 44.1 57.6 Q 44.1 56.1, 43.4 55.3 Q 42.8 54.5, 41.6 54.5 Q 40.5 54.5, 39.8 55.3 Q 39.2 56.0, 39.2 57.6 Q 39.2 59.1, 39.8 59.9 Q 40.5 60.7, 41.6 60.7 " fill="#FF0000"/>
<path class="atom-14" d="M 168.4 132.5 Q 168.4 130.7, 169.3 129.7 Q 170.2 128.6, 171.9 128.6 Q 173.6 128.6, 174.5 129.7 Q 175.4 130.7, 175.4 132.5 Q 175.4 134.4, 174.5 135.4 Q 173.6 136.5, 171.9 136.5 Q 170.3 136.5, 169.3 135.4 Q 168.4 134.4, 168.4 132.5 M 171.9 135.6 Q 173.1 135.6, 173.7 134.8 Q 174.4 134.0, 174.4 132.5 Q 174.4 131.0, 173.7 130.3 Q 173.1 129.5, 171.9 129.5 Q 170.8 129.5, 170.1 130.2 Q 169.5 131.0, 169.5 132.5 Q 169.5 134.1, 170.1 134.8 Q 170.8 135.6, 171.9 135.6 " fill="#FF0000"/>
<path class="atom-14" d="M 176.6 128.7 L 177.7 128.7 L 177.7 132.0 L 181.6 132.0 L 181.6 128.7 L 182.6 128.7 L 182.6 136.4 L 181.6 136.4 L 181.6 132.8 L 177.7 132.8 L 177.7 136.4 L 176.6 136.4 L 176.6 128.7 " fill="#FF0000"/>
<path class="atom-18" d="M 122.0 182.2 L 123.1 182.2 L 123.1 185.5 L 127.0 185.5 L 127.0 182.2 L 128.0 182.2 L 128.0 189.9 L 127.0 189.9 L 127.0 186.3 L 123.1 186.3 L 123.1 189.9 L 122.0 189.9 L 122.0 182.2 " fill="#FF0000"/>
<path class="atom-18" d="M 129.6 186.0 Q 129.6 184.2, 130.5 183.2 Q 131.4 182.1, 133.1 182.1 Q 134.8 182.1, 135.7 183.2 Q 136.6 184.2, 136.6 186.0 Q 136.6 187.9, 135.7 189.0 Q 134.8 190.0, 133.1 190.0 Q 131.4 190.0, 130.5 189.0 Q 129.6 187.9, 129.6 186.0 M 133.1 189.1 Q 134.3 189.1, 134.9 188.4 Q 135.5 187.6, 135.5 186.0 Q 135.5 184.5, 134.9 183.8 Q 134.3 183.0, 133.1 183.0 Q 131.9 183.0, 131.3 183.8 Q 130.7 184.5, 130.7 186.0 Q 130.7 187.6, 131.3 188.4 Q 131.9 189.1, 133.1 189.1 " fill="#FF0000"/>
<path class="atom-20" d="M 105.5 183.5 Q 105.5 181.7, 106.4 180.7 Q 107.3 179.6, 109.0 179.6 Q 110.7 179.6, 111.6 180.7 Q 112.5 181.7, 112.5 183.5 Q 112.5 185.4, 111.6 186.4 Q 110.7 187.5, 109.0 187.5 Q 107.3 187.5, 106.4 186.4 Q 105.5 185.4, 105.5 183.5 M 109.0 186.6 Q 110.2 186.6, 110.8 185.8 Q 111.5 185.1, 111.5 183.5 Q 111.5 182.0, 110.8 181.3 Q 110.2 180.5, 109.0 180.5 Q 107.9 180.5, 107.2 181.3 Q 106.6 182.0, 106.6 183.5 Q 106.6 185.1, 107.2 185.8 Q 107.9 186.6, 109.0 186.6 " fill="#FF0000"/>
<path class="atom-21" d="M 68.5 143.4 L 69.6 143.4 L 69.6 146.6 L 73.5 146.6 L 73.5 143.4 L 74.5 143.4 L 74.5 151.0 L 73.5 151.0 L 73.5 147.5 L 69.6 147.5 L 69.6 151.0 L 68.5 151.0 L 68.5 143.4 " fill="#FF0000"/>
<path class="atom-21" d="M 76.1 147.2 Q 76.1 145.4, 77.0 144.3 Q 77.9 143.3, 79.6 143.3 Q 81.3 143.3, 82.2 144.3 Q 83.1 145.4, 83.1 147.2 Q 83.1 149.1, 82.2 150.1 Q 81.3 151.2, 79.6 151.2 Q 77.9 151.2, 77.0 150.1 Q 76.1 149.1, 76.1 147.2 M 79.6 150.3 Q 80.7 150.3, 81.4 149.5 Q 82.0 148.7, 82.0 147.2 Q 82.0 145.7, 81.4 144.9 Q 80.7 144.2, 79.6 144.2 Q 78.4 144.2, 77.8 144.9 Q 77.1 145.7, 77.1 147.2 Q 77.1 148.7, 77.8 149.5 Q 78.4 150.3, 79.6 150.3 " fill="#FF0000"/>
<path class="atom-23" d="M 201.9 45.2 Q 201.9 43.3, 202.8 42.3 Q 203.7 41.3, 205.4 41.3 Q 207.1 41.3, 208.0 42.3 Q 208.9 43.3, 208.9 45.2 Q 208.9 47.0, 208.0 48.1 Q 207.1 49.1, 205.4 49.1 Q 203.7 49.1, 202.8 48.1 Q 201.9 47.1, 201.9 45.2 M 205.4 48.3 Q 206.6 48.3, 207.2 47.5 Q 207.8 46.7, 207.8 45.2 Q 207.8 43.7, 207.2 42.9 Q 206.6 42.2, 205.4 42.2 Q 204.2 42.2, 203.6 42.9 Q 203.0 43.7, 203.0 45.2 Q 203.0 46.7, 203.6 47.5 Q 204.2 48.3, 205.4 48.3 " fill="#FF0000"/>
<path class="atom-23" d="M 210.1 41.4 L 211.1 41.4 L 211.1 44.6 L 215.0 44.6 L 215.0 41.4 L 216.1 41.4 L 216.1 49.0 L 215.0 49.0 L 215.0 45.5 L 211.1 45.5 L 211.1 49.0 L 210.1 49.0 L 210.1 41.4 " fill="#FF0000"/>
<path class="atom-27" d="M 267.7 52.1 Q 267.7 50.2, 268.6 49.2 Q 269.5 48.2, 271.2 48.2 Q 272.9 48.2, 273.8 49.2 Q 274.7 50.2, 274.7 52.1 Q 274.7 53.9, 273.8 55.0 Q 272.8 56.0, 271.2 56.0 Q 269.5 56.0, 268.6 55.0 Q 267.7 53.9, 267.7 52.1 M 271.2 55.2 Q 272.3 55.2, 273.0 54.4 Q 273.6 53.6, 273.6 52.1 Q 273.6 50.6, 273.0 49.8 Q 272.3 49.0, 271.2 49.0 Q 270.0 49.0, 269.4 49.8 Q 268.7 50.5, 268.7 52.1 Q 268.7 53.6, 269.4 54.4 Q 270.0 55.2, 271.2 55.2 " fill="#FF0000"/>
<path class="atom-27" d="M 275.9 48.3 L 276.9 48.3 L 276.9 51.5 L 280.8 51.5 L 280.8 48.3 L 281.9 48.3 L 281.9 55.9 L 280.8 55.9 L 280.8 52.4 L 276.9 52.4 L 276.9 55.9 L 275.9 55.9 L 275.9 48.3 " fill="#FF0000"/>
<path class="atom-29" d="M 260.8 117.8 Q 260.8 116.0, 261.7 115.0 Q 262.6 113.9, 264.3 113.9 Q 266.0 113.9, 266.9 115.0 Q 267.8 116.0, 267.8 117.8 Q 267.8 119.7, 266.9 120.7 Q 266.0 121.8, 264.3 121.8 Q 262.6 121.8, 261.7 120.7 Q 260.8 119.7, 260.8 117.8 M 264.3 120.9 Q 265.5 120.9, 266.1 120.1 Q 266.7 119.4, 266.7 117.8 Q 266.7 116.3, 266.1 115.6 Q 265.5 114.8, 264.3 114.8 Q 263.1 114.8, 262.5 115.6 Q 261.9 116.3, 261.9 117.8 Q 261.9 119.4, 262.5 120.1 Q 263.1 120.9, 264.3 120.9 " fill="#FF0000"/>
<path class="atom-30" d="M 277.5 74.2 Q 277.5 72.3, 278.4 71.3 Q 279.3 70.3, 281.0 70.3 Q 282.7 70.3, 283.6 71.3 Q 284.5 72.3, 284.5 74.2 Q 284.5 76.0, 283.6 77.1 Q 282.7 78.1, 281.0 78.1 Q 279.3 78.1, 278.4 77.1 Q 277.5 76.0, 277.5 74.2 M 281.0 77.3 Q 282.2 77.3, 282.8 76.5 Q 283.5 75.7, 283.5 74.2 Q 283.5 72.7, 282.8 71.9 Q 282.2 71.1, 281.0 71.1 Q 279.9 71.1, 279.2 71.9 Q 278.6 72.7, 278.6 74.2 Q 278.6 75.7, 279.2 76.5 Q 279.9 77.3, 281.0 77.3 " fill="#FF0000"/>
<path class="atom-30" d="M 285.7 70.4 L 286.8 70.4 L 286.8 73.6 L 290.7 73.6 L 290.7 70.4 L 291.7 70.4 L 291.7 78.0 L 290.7 78.0 L 290.7 74.5 L 286.8 74.5 L 286.8 78.0 L 285.7 78.0 L 285.7 70.4 " fill="#FF0000"/>
</svg>
