<?xml version='1.0' encoding='ASCII' standalone='yes'?>
<svg xmlns="http://www.w3.org/2000/svg" xmlns:rdkit="http://www.rdkit.org/xml" xmlns:xlink="http://www.w3.org/1999/xlink" version="1.1" baseProfile="full" xml:space="preserve" width="260px" height="200px" viewBox="0 0 260 200">
<!-- END OF HEADER -->
<rect style="opacity:1.0;fill:#FFFFFF;stroke:none" width="260.0" height="200.0" x="0.0" y="0.0"> </rect>
<path class="bond-0 atom-0 atom-1" d="M 13.0,74.7 L 47.4,78.2" style="fill:none;fill-rule:evenodd;stroke:#000000;stroke-width:2.0px;stroke-linecap:butt;stroke-linejoin:miter;stroke-opacity:1"/>
<path class="bond-1 atom-1 atom-2" d="M 47.4,78.2 L 61.5,109.7" style="fill:none;fill-rule:evenodd;stroke:#000000;stroke-width:2.0px;stroke-linecap:butt;stroke-linejoin:miter;stroke-opacity:1"/>
<path class="bond-2 atom-2 atom-3" d="M 61.5,109.7 L 95.9,113.3" style="fill:none;fill-rule:evenodd;stroke:#000000;stroke-width:2.0px;stroke-linecap:butt;stroke-linejoin:miter;stroke-opacity:1"/>
<path class="bond-3 atom-3 atom-4" d="M 95.9,113.3 L 99.4,78.9" style="fill:none;fill-rule:evenodd;stroke:#000000;stroke-width:2.0px;stroke-linecap:butt;stroke-linejoin:miter;stroke-opacity:1"/>
<path class="bond-4 atom-3 atom-5" d="M 95.9,113.3 L 92.3,147.7" style="fill:none;fill-rule:evenodd;stroke:#000000;stroke-width:2.0px;stroke-linecap:butt;stroke-linejoin:miter;stroke-opacity:1"/>
<path class="bond-5 atom-3 atom-6" d="M 95.9,113.3 L 130.2,116.8" style="fill:none;fill-rule:evenodd;stroke:#000000;stroke-width:2.0px;stroke-linecap:butt;stroke-linejoin:miter;stroke-opacity:1"/>
<path class="bond-6 atom-6 atom-7" d="M 130.2,116.8 L 150.5,88.8" style="fill:none;fill-rule:evenodd;stroke:#000000;stroke-width:2.0px;stroke-linecap:butt;stroke-linejoin:miter;stroke-opacity:1"/>
<path class="bond-7 atom-7 atom-8" d="M 150.5,88.8 L 144.8,76.2" style="fill:none;fill-rule:evenodd;stroke:#000000;stroke-width:2.0px;stroke-linecap:butt;stroke-linejoin:miter;stroke-opacity:1"/>
<path class="bond-7 atom-7 atom-8" d="M 144.8,76.2 L 139.1,63.5" style="fill:none;fill-rule:evenodd;stroke:#FF0000;stroke-width:2.0px;stroke-linecap:butt;stroke-linejoin:miter;stroke-opacity:1"/>
<path class="bond-8 atom-7 atom-9" d="M 150.5,88.8 L 184.8,92.4" style="fill:none;fill-rule:evenodd;stroke:#000000;stroke-width:2.0px;stroke-linecap:butt;stroke-linejoin:miter;stroke-opacity:1"/>
<path class="bond-9 atom-9 atom-10" d="M 184.8,92.4 L 181.3,126.7" style="fill:none;fill-rule:evenodd;stroke:#000000;stroke-width:2.0px;stroke-linecap:butt;stroke-linejoin:miter;stroke-opacity:1"/>
<path class="bond-10 atom-9 atom-11" d="M 184.8,92.4 L 188.4,58.0" style="fill:none;fill-rule:evenodd;stroke:#000000;stroke-width:2.0px;stroke-linecap:butt;stroke-linejoin:miter;stroke-opacity:1"/>
<path class="bond-11 atom-9 atom-12" d="M 184.8,92.4 L 219.2,95.9" style="fill:none;fill-rule:evenodd;stroke:#000000;stroke-width:2.0px;stroke-linecap:butt;stroke-linejoin:miter;stroke-opacity:1"/>
<path class="bond-12 atom-12 atom-13" d="M 220.4,98.6 L 228.7,87.2" style="fill:none;fill-rule:evenodd;stroke:#000000;stroke-width:2.0px;stroke-linecap:butt;stroke-linejoin:miter;stroke-opacity:1"/>
<path class="bond-12 atom-12 atom-13" d="M 228.7,87.2 L 237.0,75.7" style="fill:none;fill-rule:evenodd;stroke:#FF0000;stroke-width:2.0px;stroke-linecap:butt;stroke-linejoin:miter;stroke-opacity:1"/>
<path class="bond-12 atom-12 atom-13" d="M 216.2,95.6 L 224.5,84.1" style="fill:none;fill-rule:evenodd;stroke:#000000;stroke-width:2.0px;stroke-linecap:butt;stroke-linejoin:miter;stroke-opacity:1"/>
<path class="bond-12 atom-12 atom-13" d="M 224.5,84.1 L 232.8,72.6" style="fill:none;fill-rule:evenodd;stroke:#FF0000;stroke-width:2.0px;stroke-linecap:butt;stroke-linejoin:miter;stroke-opacity:1"/>
<path class="bond-13 atom-12 atom-14" d="M 219.2,95.9 L 224.9,108.6" style="fill:none;fill-rule:evenodd;stroke:#000000;stroke-width:2.0px;stroke-linecap:butt;stroke-linejoin:miter;stroke-opacity:1"/>
<path class="bond-13 atom-12 atom-14" d="M 224.9,108.6 L 230.6,121.4" style="fill:none;fill-rule:evenodd;stroke:#FF0000;stroke-width:2.0px;stroke-linecap:butt;stroke-linejoin:miter;stroke-opacity:1"/>
<path d="M 45.7,78.0 L 47.4,78.2 L 48.1,79.8" style="fill:none;stroke:#000000;stroke-width:2.0px;stroke-linecap:butt;stroke-linejoin:miter;stroke-opacity:1;"/>
<path d="M 60.8,108.2 L 61.5,109.7 L 63.2,109.9" style="fill:none;stroke:#000000;stroke-width:2.0px;stroke-linecap:butt;stroke-linejoin:miter;stroke-opacity:1;"/>
<path d="M 128.5,116.6 L 130.2,116.8 L 131.2,115.4" style="fill:none;stroke:#000000;stroke-width:2.0px;stroke-linecap:butt;stroke-linejoin:miter;stroke-opacity:1;"/>
<path d="M 217.5,95.7 L 219.2,95.9 L 219.5,96.5" style="fill:none;stroke:#000000;stroke-width:2.0px;stroke-linecap:butt;stroke-linejoin:miter;stroke-opacity:1;"/>
<path class="atom-8" d="M 122.2 52.5 L 123.5 52.5 L 123.5 56.6 L 128.5 56.6 L 128.5 52.5 L 129.9 52.5 L 129.9 62.2 L 128.5 62.2 L 128.5 57.7 L 123.5 57.7 L 123.5 62.2 L 122.2 62.2 L 122.2 52.5 " fill="#FF0000"/>
<path class="atom-8" d="M 131.9 57.3 Q 131.9 55.0, 133.0 53.7 Q 134.2 52.3, 136.4 52.3 Q 138.5 52.3, 139.7 53.7 Q 140.8 55.0, 140.8 57.3 Q 140.8 59.7, 139.7 61.1 Q 138.5 62.4, 136.4 62.4 Q 134.2 62.4, 133.0 61.1 Q 131.9 59.7, 131.9 57.3 M 136.4 61.3 Q 137.8 61.3, 138.6 60.3 Q 139.5 59.3, 139.5 57.3 Q 139.5 55.4, 138.6 54.4 Q 137.8 53.5, 136.4 53.5 Q 134.9 53.5, 134.0 54.4 Q 133.2 55.4, 133.2 57.3 Q 133.2 59.3, 134.0 60.3 Q 134.9 61.3, 136.4 61.3 " fill="#FF0000"/>
<path class="atom-13" d="M 235.0 67.9 Q 235.0 65.6, 236.1 64.3 Q 237.3 63.0, 239.5 63.0 Q 241.6 63.0, 242.8 64.3 Q 244.0 65.6, 244.0 67.9 Q 244.0 70.3, 242.8 71.7 Q 241.6 73.0, 239.5 73.0 Q 237.3 73.0, 236.1 71.7 Q 235.0 70.3, 235.0 67.9 M 239.5 71.9 Q 241.0 71.9, 241.8 70.9 Q 242.6 69.9, 242.6 67.9 Q 242.6 66.0, 241.8 65.1 Q 241.0 64.1, 239.5 64.1 Q 238.0 64.1, 237.2 65.0 Q 236.4 66.0, 236.4 67.9 Q 236.4 69.9, 237.2 70.9 Q 238.0 71.9, 239.5 71.9 " fill="#FF0000"/>
<path class="atom-14" d="M 228.8 127.5 Q 228.8 125.1, 230.0 123.8 Q 231.2 122.5, 233.3 122.5 Q 235.5 122.5, 236.7 123.8 Q 237.8 125.1, 237.8 127.5 Q 237.8 129.8, 236.6 131.2 Q 235.5 132.5, 233.3 132.5 Q 231.2 132.5, 230.0 131.2 Q 228.8 129.9, 228.8 127.5 M 233.3 131.4 Q 234.8 131.4, 235.6 130.4 Q 236.4 129.4, 236.4 127.5 Q 236.4 125.6, 235.6 124.6 Q 234.8 123.6, 233.3 123.6 Q 231.8 123.6, 231.0 124.6 Q 230.2 125.5, 230.2 127.5 Q 230.2 129.4, 231.0 130.4 Q 231.8 131.4, 233.3 131.4 " fill="#FF0000"/>
<path class="atom-14" d="M 239.3 122.6 L 240.7 122.6 L 240.7 126.8 L 245.7 126.8 L 245.7 122.6 L 247.0 122.6 L 247.0 132.4 L 245.7 132.4 L 245.7 127.9 L 240.7 127.9 L 240.7 132.4 L 239.3 132.4 L 239.3 122.6 " fill="#FF0000"/>
</svg>
