<?xml version='1.0' encoding='ASCII' standalone='yes'?>
<svg xmlns="http://www.w3.org/2000/svg" xmlns:rdkit="http://www.rdkit.org/xml" xmlns:xlink="http://www.w3.org/1999/xlink" version="1.1" baseProfile="full" xml:space="preserve" width="260px" height="200px" viewBox="0 0 260 200">
<!-- END OF HEADER -->
<rect style="opacity:1.0;fill:#FFFFFF;stroke:none" width="260.0" height="200.0" x="0.0" y="0.0"> </rect>
<path class="bond-0 atom-0 atom-1" d="M 13.0,81.8 L 29.7,75.6" style="fill:none;fill-rule:evenodd;stroke:#000000;stroke-width:2.0px;stroke-linecap:butt;stroke-linejoin:miter;stroke-opacity:1"/>
<path class="bond-0 atom-0 atom-1" d="M 29.7,75.6 L 46.3,69.4" style="fill:none;fill-rule:evenodd;stroke:#FF0000;stroke-width:2.0px;stroke-linecap:butt;stroke-linejoin:miter;stroke-opacity:1"/>
<path class="bond-1 atom-1 atom-2" d="M 60.3,72.5 L 73.5,83.3" style="fill:none;fill-rule:evenodd;stroke:#FF0000;stroke-width:2.0px;stroke-linecap:butt;stroke-linejoin:miter;stroke-opacity:1"/>
<path class="bond-1 atom-1 atom-2" d="M 73.5,83.3 L 86.6,94.1" style="fill:none;fill-rule:evenodd;stroke:#000000;stroke-width:2.0px;stroke-linecap:butt;stroke-linejoin:miter;stroke-opacity:1"/>
<path class="bond-2 atom-2 atom-3" d="M 86.6,94.1 L 126.9,79.0" style="fill:none;fill-rule:evenodd;stroke:#000000;stroke-width:2.0px;stroke-linecap:butt;stroke-linejoin:miter;stroke-opacity:1"/>
<path class="bond-3 atom-3 atom-4" d="M 126.9,79.0 L 160.1,106.4" style="fill:none;fill-rule:evenodd;stroke:#000000;stroke-width:2.0px;stroke-linecap:butt;stroke-linejoin:miter;stroke-opacity:1"/>
<path class="bond-4 atom-4 atom-5" d="M 160.1,106.4 L 193.4,133.8" style="fill:none;fill-rule:evenodd;stroke:#000000;stroke-width:2.0px;stroke-linecap:butt;stroke-linejoin:miter;stroke-opacity:1"/>
<path class="bond-5 atom-4 atom-6" d="M 160.1,106.4 L 187.5,73.1" style="fill:none;fill-rule:evenodd;stroke:#000000;stroke-width:2.0px;stroke-linecap:butt;stroke-linejoin:miter;stroke-opacity:1"/>
<path class="bond-6 atom-6 atom-7" d="M 191.2,73.8 L 184.8,56.6" style="fill:none;fill-rule:evenodd;stroke:#000000;stroke-width:2.0px;stroke-linecap:butt;stroke-linejoin:miter;stroke-opacity:1"/>
<path class="bond-6 atom-6 atom-7" d="M 184.8,56.6 L 178.3,39.5" style="fill:none;fill-rule:evenodd;stroke:#FF0000;stroke-width:2.0px;stroke-linecap:butt;stroke-linejoin:miter;stroke-opacity:1"/>
<path class="bond-6 atom-6 atom-7" d="M 185.1,76.0 L 178.7,58.9" style="fill:none;fill-rule:evenodd;stroke:#000000;stroke-width:2.0px;stroke-linecap:butt;stroke-linejoin:miter;stroke-opacity:1"/>
<path class="bond-6 atom-6 atom-7" d="M 178.7,58.9 L 172.3,41.7" style="fill:none;fill-rule:evenodd;stroke:#FF0000;stroke-width:2.0px;stroke-linecap:butt;stroke-linejoin:miter;stroke-opacity:1"/>
<path class="bond-7 atom-6 atom-8" d="M 187.5,73.1 L 205.2,76.1" style="fill:none;fill-rule:evenodd;stroke:#000000;stroke-width:2.0px;stroke-linecap:butt;stroke-linejoin:miter;stroke-opacity:1"/>
<path class="bond-7 atom-6 atom-8" d="M 205.2,76.1 L 222.9,79.1" style="fill:none;fill-rule:evenodd;stroke:#FF0000;stroke-width:2.0px;stroke-linecap:butt;stroke-linejoin:miter;stroke-opacity:1"/>
<path class="bond-8 atom-4 atom-9" d="M 160.1,106.4 L 132.7,139.6" style="fill:none;fill-rule:evenodd;stroke:#000000;stroke-width:2.0px;stroke-linecap:butt;stroke-linejoin:miter;stroke-opacity:1"/>
<path class="bond-9 atom-9 atom-10" d="M 132.7,139.6 L 105.4,172.8" style="fill:none;fill-rule:evenodd;stroke:#000000;stroke-width:2.0px;stroke-linecap:butt;stroke-linejoin:miter;stroke-opacity:1"/>
<path class="bond-10 atom-9 atom-11" d="M 132.7,139.6 L 145.9,150.4" style="fill:none;fill-rule:evenodd;stroke:#000000;stroke-width:2.0px;stroke-linecap:butt;stroke-linejoin:miter;stroke-opacity:1"/>
<path class="bond-10 atom-9 atom-11" d="M 145.9,150.4 L 159.0,161.2" style="fill:none;fill-rule:evenodd;stroke:#FF0000;stroke-width:2.0px;stroke-linecap:butt;stroke-linejoin:miter;stroke-opacity:1"/>
<path class="bond-11 atom-9 atom-12" d="M 132.7,139.6 L 99.5,112.2" style="fill:none;fill-rule:evenodd;stroke:#000000;stroke-width:2.0px;stroke-linecap:butt;stroke-linejoin:miter;stroke-opacity:1"/>
<path class="bond-12 atom-12 atom-13" d="M 99.5,112.2 L 82.9,118.5" style="fill:none;fill-rule:evenodd;stroke:#000000;stroke-width:2.0px;stroke-linecap:butt;stroke-linejoin:miter;stroke-opacity:1"/>
<path class="bond-12 atom-12 atom-13" d="M 82.9,118.5 L 66.2,124.7" style="fill:none;fill-rule:evenodd;stroke:#FF0000;stroke-width:2.0px;stroke-linecap:butt;stroke-linejoin:miter;stroke-opacity:1"/>
<path class="bond-13 atom-13 atom-14" d="M 52.2,121.6 L 39.1,110.8" style="fill:none;fill-rule:evenodd;stroke:#FF0000;stroke-width:2.0px;stroke-linecap:butt;stroke-linejoin:miter;stroke-opacity:1"/>
<path class="bond-13 atom-13 atom-14" d="M 39.1,110.8 L 25.9,100.0" style="fill:none;fill-rule:evenodd;stroke:#000000;stroke-width:2.0px;stroke-linecap:butt;stroke-linejoin:miter;stroke-opacity:1"/>
<path d="M 85.9,93.6 L 86.6,94.1 L 88.6,93.3" style="fill:none;stroke:#000000;stroke-width:2.0px;stroke-linecap:butt;stroke-linejoin:miter;stroke-opacity:1;"/>
<path d="M 124.9,79.8 L 126.9,79.0 L 128.5,80.4" style="fill:none;stroke:#000000;stroke-width:2.0px;stroke-linecap:butt;stroke-linejoin:miter;stroke-opacity:1;"/>
<path d="M 186.1,74.8 L 187.5,73.1 L 188.4,73.3" style="fill:none;stroke:#000000;stroke-width:2.0px;stroke-linecap:butt;stroke-linejoin:miter;stroke-opacity:1;"/>
<path d="M 101.2,113.6 L 99.5,112.2 L 98.7,112.6" style="fill:none;stroke:#000000;stroke-width:2.0px;stroke-linecap:butt;stroke-linejoin:miter;stroke-opacity:1;"/>
<path class="atom-1" d="M 47.7 66.8 Q 47.7 63.8, 49.2 62.2 Q 50.6 60.6, 53.3 60.6 Q 56.0 60.6, 57.5 62.2 Q 58.9 63.8, 58.9 66.8 Q 58.9 69.7, 57.5 71.4 Q 56.0 73.1, 53.3 73.1 Q 50.6 73.1, 49.2 71.4 Q 47.7 69.7, 47.7 66.8 M 53.3 71.7 Q 55.2 71.7, 56.2 70.5 Q 57.2 69.2, 57.2 66.8 Q 57.2 64.4, 56.2 63.2 Q 55.2 61.9, 53.3 61.9 Q 51.5 61.9, 50.4 63.1 Q 49.4 64.3, 49.4 66.8 Q 49.4 69.2, 50.4 70.5 Q 51.5 71.7, 53.3 71.7 " fill="#FF0000"/>
<path class="atom-7" d="M 166.8 32.9 Q 166.8 29.9, 168.2 28.3 Q 169.7 26.7, 172.4 26.7 Q 175.1 26.7, 176.6 28.3 Q 178.0 29.9, 178.0 32.9 Q 178.0 35.8, 176.5 37.5 Q 175.1 39.2, 172.4 39.2 Q 169.7 39.2, 168.2 37.5 Q 166.8 35.8, 166.8 32.9 M 172.4 37.8 Q 174.3 37.8, 175.3 36.6 Q 176.3 35.3, 176.3 32.9 Q 176.3 30.5, 175.3 29.3 Q 174.3 28.0, 172.4 28.0 Q 170.5 28.0, 169.5 29.2 Q 168.5 30.4, 168.5 32.9 Q 168.5 35.3, 169.5 36.6 Q 170.5 37.8, 172.4 37.8 " fill="#FF0000"/>
<path class="atom-8" d="M 224.4 80.3 Q 224.4 77.3, 225.8 75.7 Q 227.3 74.1, 230.0 74.1 Q 232.7 74.1, 234.1 75.7 Q 235.6 77.3, 235.6 80.3 Q 235.6 83.2, 234.1 84.9 Q 232.6 86.6, 230.0 86.6 Q 227.3 86.6, 225.8 84.9 Q 224.4 83.3, 224.4 80.3 M 230.0 85.2 Q 231.8 85.2, 232.8 84.0 Q 233.8 82.7, 233.8 80.3 Q 233.8 77.9, 232.8 76.7 Q 231.8 75.4, 230.0 75.4 Q 228.1 75.4, 227.1 76.7 Q 226.1 77.9, 226.1 80.3 Q 226.1 82.7, 227.1 84.0 Q 228.1 85.2, 230.0 85.2 " fill="#FF0000"/>
<path class="atom-8" d="M 237.5 74.2 L 239.1 74.2 L 239.1 79.4 L 245.3 79.4 L 245.3 74.2 L 247.0 74.2 L 247.0 86.4 L 245.3 86.4 L 245.3 80.8 L 239.1 80.8 L 239.1 86.4 L 237.5 86.4 L 237.5 74.2 " fill="#FF0000"/>
<path class="atom-11" d="M 160.4 167.0 Q 160.4 164.1, 161.8 162.5 Q 163.3 160.8, 166.0 160.8 Q 168.7 160.8, 170.1 162.5 Q 171.6 164.1, 171.6 167.0 Q 171.6 170.0, 170.1 171.7 Q 168.6 173.3, 166.0 173.3 Q 163.3 173.3, 161.8 171.7 Q 160.4 170.0, 160.4 167.0 M 166.0 172.0 Q 167.8 172.0, 168.8 170.7 Q 169.9 169.5, 169.9 167.0 Q 169.9 164.6, 168.8 163.4 Q 167.8 162.2, 166.0 162.2 Q 164.1 162.2, 163.1 163.4 Q 162.1 164.6, 162.1 167.0 Q 162.1 169.5, 163.1 170.7 Q 164.1 172.0, 166.0 172.0 " fill="#FF0000"/>
<path class="atom-11" d="M 173.5 161.0 L 175.1 161.0 L 175.1 166.1 L 181.4 166.1 L 181.4 161.0 L 183.0 161.0 L 183.0 173.2 L 181.4 173.2 L 181.4 167.5 L 175.1 167.5 L 175.1 173.2 L 173.5 173.2 L 173.5 161.0 " fill="#FF0000"/>
<path class="atom-13" d="M 53.6 127.4 Q 53.6 124.4, 55.0 122.8 Q 56.5 121.2, 59.2 121.2 Q 61.9 121.2, 63.3 122.8 Q 64.8 124.4, 64.8 127.4 Q 64.8 130.3, 63.3 132.0 Q 61.9 133.7, 59.2 133.7 Q 56.5 133.7, 55.0 132.0 Q 53.6 130.3, 53.6 127.4 M 59.2 132.3 Q 61.0 132.3, 62.0 131.1 Q 63.1 129.8, 63.1 127.4 Q 63.1 125.0, 62.0 123.8 Q 61.0 122.5, 59.2 122.5 Q 57.3 122.5, 56.3 123.8 Q 55.3 125.0, 55.3 127.4 Q 55.3 129.8, 56.3 131.1 Q 57.3 132.3, 59.2 132.3 " fill="#FF0000"/>
</svg>
