<?xml version='1.0' encoding='ASCII' standalone='yes'?>
<svg xmlns="http://www.w3.org/2000/svg" xmlns:rdkit="http://www.rdkit.org/xml" xmlns:xlink="http://www.w3.org/1999/xlink" version="1.1" baseProfile="full" xml:space="preserve" width="320px" height="200px" viewBox="0 0 320 200">
<!-- END OF HEADER -->
<rect style="opacity:1.0;fill:#FFFFFF;stroke:none" width="320.0" height="200.0" x="0.0" y="0.0"> </rect>
<path class="bond-0 atom-0 atom-1" d="M 112.8,71.1 L 100.7,91.9" style="fill:none;fill-rule:evenodd;stroke:#000000;stroke-width:2.0px;stroke-linecap:butt;stroke-linejoin:miter;stroke-opacity:1"/>
<path class="bond-0 atom-0 atom-1" d="M 109.8,69.3 L 97.7,90.2" style="fill:none;fill-rule:evenodd;stroke:#000000;stroke-width:2.0px;stroke-linecap:butt;stroke-linejoin:miter;stroke-opacity:1"/>
<path class="bond-1 atom-1 atom-2" d="M 99.7,90.2 L 111.3,110.2" style="fill:none;fill-rule:evenodd;stroke:#000000;stroke-width:2.0px;stroke-linecap:butt;stroke-linejoin:miter;stroke-opacity:1"/>
<path class="bond-2 atom-2 atom-3" d="M 111.3,110.2 L 134.4,110.2" style="fill:none;fill-rule:evenodd;stroke:#000000;stroke-width:2.0px;stroke-linecap:butt;stroke-linejoin:miter;stroke-opacity:1"/>
<path class="bond-3 atom-3 atom-4" d="M 134.4,110.2 L 146.0,130.1" style="fill:none;fill-rule:evenodd;stroke:#000000;stroke-width:2.0px;stroke-linecap:butt;stroke-linejoin:miter;stroke-opacity:1"/>
<path class="bond-4 atom-4 atom-5" d="M 145.0,128.4 L 133.0,149.3" style="fill:none;fill-rule:evenodd;stroke:#000000;stroke-width:2.0px;stroke-linecap:butt;stroke-linejoin:miter;stroke-opacity:1"/>
<path class="bond-4 atom-4 atom-5" d="M 148.0,130.1 L 136.0,151.0" style="fill:none;fill-rule:evenodd;stroke:#000000;stroke-width:2.0px;stroke-linecap:butt;stroke-linejoin:miter;stroke-opacity:1"/>
<path class="bond-5 atom-4 atom-6" d="M 146.0,130.1 L 169.1,130.1" style="fill:none;fill-rule:evenodd;stroke:#000000;stroke-width:2.0px;stroke-linecap:butt;stroke-linejoin:miter;stroke-opacity:1"/>
<path class="bond-6 atom-6 atom-7" d="M 169.1,130.1 L 180.6,150.1" style="fill:none;fill-rule:evenodd;stroke:#000000;stroke-width:2.0px;stroke-linecap:butt;stroke-linejoin:miter;stroke-opacity:1"/>
<path class="bond-7 atom-7 atom-8" d="M 180.6,150.1 L 203.7,150.1" style="fill:none;fill-rule:evenodd;stroke:#000000;stroke-width:2.0px;stroke-linecap:butt;stroke-linejoin:miter;stroke-opacity:1"/>
<path class="bond-8 atom-8 atom-9" d="M 204.7,151.8 L 209.5,143.4" style="fill:none;fill-rule:evenodd;stroke:#000000;stroke-width:2.0px;stroke-linecap:butt;stroke-linejoin:miter;stroke-opacity:1"/>
<path class="bond-8 atom-8 atom-9" d="M 209.5,143.4 L 214.4,135.1" style="fill:none;fill-rule:evenodd;stroke:#FF0000;stroke-width:2.0px;stroke-linecap:butt;stroke-linejoin:miter;stroke-opacity:1"/>
<path class="bond-8 atom-8 atom-9" d="M 201.7,150.1 L 206.5,141.7" style="fill:none;fill-rule:evenodd;stroke:#000000;stroke-width:2.0px;stroke-linecap:butt;stroke-linejoin:miter;stroke-opacity:1"/>
<path class="bond-8 atom-8 atom-9" d="M 206.5,141.7 L 211.4,133.4" style="fill:none;fill-rule:evenodd;stroke:#FF0000;stroke-width:2.0px;stroke-linecap:butt;stroke-linejoin:miter;stroke-opacity:1"/>
<path class="bond-9 atom-8 atom-10" d="M 203.7,150.1 L 208.3,158.0" style="fill:none;fill-rule:evenodd;stroke:#000000;stroke-width:2.0px;stroke-linecap:butt;stroke-linejoin:miter;stroke-opacity:1"/>
<path class="bond-9 atom-8 atom-10" d="M 208.3,158.0 L 213.0,166.0" style="fill:none;fill-rule:evenodd;stroke:#FF0000;stroke-width:2.0px;stroke-linecap:butt;stroke-linejoin:miter;stroke-opacity:1"/>
<path class="bond-10 atom-10 atom-11" d="M 219.1,170.0 L 228.7,170.0" style="fill:none;fill-rule:evenodd;stroke:#FF0000;stroke-width:2.0px;stroke-linecap:butt;stroke-linejoin:miter;stroke-opacity:1"/>
<path class="bond-10 atom-10 atom-11" d="M 228.7,170.0 L 238.4,170.0" style="fill:none;fill-rule:evenodd;stroke:#000000;stroke-width:2.0px;stroke-linecap:butt;stroke-linejoin:miter;stroke-opacity:1"/>
<path class="bond-11 atom-11 atom-12" d="M 238.4,170.0 L 250.0,190.0" style="fill:none;fill-rule:evenodd;stroke:#000000;stroke-width:2.0px;stroke-linecap:butt;stroke-linejoin:miter;stroke-opacity:1"/>
<path class="bond-12 atom-11 atom-13" d="M 239.4,171.7 L 244.2,163.4" style="fill:none;fill-rule:evenodd;stroke:#000000;stroke-width:2.0px;stroke-linecap:butt;stroke-linejoin:miter;stroke-opacity:1"/>
<path class="bond-12 atom-11 atom-13" d="M 244.2,163.4 L 249.0,155.0" style="fill:none;fill-rule:evenodd;stroke:#FF0000;stroke-width:2.0px;stroke-linecap:butt;stroke-linejoin:miter;stroke-opacity:1"/>
<path class="bond-12 atom-11 atom-13" d="M 236.4,170.0 L 241.2,161.7" style="fill:none;fill-rule:evenodd;stroke:#000000;stroke-width:2.0px;stroke-linecap:butt;stroke-linejoin:miter;stroke-opacity:1"/>
<path class="bond-12 atom-11 atom-13" d="M 241.2,161.7 L 246.0,153.3" style="fill:none;fill-rule:evenodd;stroke:#FF0000;stroke-width:2.0px;stroke-linecap:butt;stroke-linejoin:miter;stroke-opacity:1"/>
<path class="bond-13 atom-3 atom-14" d="M 134.4,110.2 L 145.9,90.2" style="fill:none;fill-rule:evenodd;stroke:#000000;stroke-width:2.0px;stroke-linecap:butt;stroke-linejoin:miter;stroke-opacity:1"/>
<path class="bond-14 atom-14 atom-15" d="M 145.9,90.2 L 154.0,94.8" style="fill:none;fill-rule:evenodd;stroke:#000000;stroke-width:2.0px;stroke-linecap:butt;stroke-linejoin:miter;stroke-opacity:1"/>
<path class="bond-14 atom-14 atom-15" d="M 154.0,94.8 L 162.2,99.5" style="fill:none;fill-rule:evenodd;stroke:#FF0000;stroke-width:2.0px;stroke-linecap:butt;stroke-linejoin:miter;stroke-opacity:1"/>
<path class="bond-15 atom-14 atom-16" d="M 145.9,90.2 L 137.8,85.5" style="fill:none;fill-rule:evenodd;stroke:#000000;stroke-width:2.0px;stroke-linecap:butt;stroke-linejoin:miter;stroke-opacity:1"/>
<path class="bond-15 atom-14 atom-16" d="M 137.8,85.5 L 129.7,80.8" style="fill:none;fill-rule:evenodd;stroke:#FF0000;stroke-width:2.0px;stroke-linecap:butt;stroke-linejoin:miter;stroke-opacity:1"/>
<path class="bond-16 atom-14 atom-17" d="M 145.9,90.2 L 157.4,70.1" style="fill:none;fill-rule:evenodd;stroke:#000000;stroke-width:2.0px;stroke-linecap:butt;stroke-linejoin:miter;stroke-opacity:1"/>
<path class="bond-17 atom-17 atom-18" d="M 159.4,70.1 L 147.4,49.3" style="fill:none;fill-rule:evenodd;stroke:#000000;stroke-width:2.0px;stroke-linecap:butt;stroke-linejoin:miter;stroke-opacity:1"/>
<path class="bond-17 atom-17 atom-18" d="M 156.4,71.9 L 144.4,51.0" style="fill:none;fill-rule:evenodd;stroke:#000000;stroke-width:2.0px;stroke-linecap:butt;stroke-linejoin:miter;stroke-opacity:1"/>
<path class="bond-18 atom-17 atom-19" d="M 157.4,70.1 L 180.5,70.1" style="fill:none;fill-rule:evenodd;stroke:#000000;stroke-width:2.0px;stroke-linecap:butt;stroke-linejoin:miter;stroke-opacity:1"/>
<path class="bond-19 atom-19 atom-20" d="M 180.5,70.1 L 192.1,50.1" style="fill:none;fill-rule:evenodd;stroke:#000000;stroke-width:2.0px;stroke-linecap:butt;stroke-linejoin:miter;stroke-opacity:1"/>
<path class="bond-20 atom-20 atom-21" d="M 192.1,50.1 L 215.1,50.1" style="fill:none;fill-rule:evenodd;stroke:#000000;stroke-width:2.0px;stroke-linecap:butt;stroke-linejoin:miter;stroke-opacity:1"/>
<path class="bond-21 atom-21 atom-22" d="M 213.1,50.1 L 218.0,58.5" style="fill:none;fill-rule:evenodd;stroke:#000000;stroke-width:2.0px;stroke-linecap:butt;stroke-linejoin:miter;stroke-opacity:1"/>
<path class="bond-21 atom-21 atom-22" d="M 218.0,58.5 L 222.9,66.8" style="fill:none;fill-rule:evenodd;stroke:#FF0000;stroke-width:2.0px;stroke-linecap:butt;stroke-linejoin:miter;stroke-opacity:1"/>
<path class="bond-21 atom-21 atom-22" d="M 216.1,48.3 L 221.0,56.7" style="fill:none;fill-rule:evenodd;stroke:#000000;stroke-width:2.0px;stroke-linecap:butt;stroke-linejoin:miter;stroke-opacity:1"/>
<path class="bond-21 atom-21 atom-22" d="M 221.0,56.7 L 225.9,65.1" style="fill:none;fill-rule:evenodd;stroke:#FF0000;stroke-width:2.0px;stroke-linecap:butt;stroke-linejoin:miter;stroke-opacity:1"/>
<path class="bond-22 atom-21 atom-23" d="M 215.1,50.1 L 219.7,42.1" style="fill:none;fill-rule:evenodd;stroke:#000000;stroke-width:2.0px;stroke-linecap:butt;stroke-linejoin:miter;stroke-opacity:1"/>
<path class="bond-22 atom-21 atom-23" d="M 219.7,42.1 L 224.3,34.2" style="fill:none;fill-rule:evenodd;stroke:#FF0000;stroke-width:2.0px;stroke-linecap:butt;stroke-linejoin:miter;stroke-opacity:1"/>
<path class="bond-23 atom-23 atom-24" d="M 230.4,30.0 L 240.1,30.0" style="fill:none;fill-rule:evenodd;stroke:#FF0000;stroke-width:2.0px;stroke-linecap:butt;stroke-linejoin:miter;stroke-opacity:1"/>
<path class="bond-23 atom-23 atom-24" d="M 240.1,30.0 L 249.8,30.0" style="fill:none;fill-rule:evenodd;stroke:#000000;stroke-width:2.0px;stroke-linecap:butt;stroke-linejoin:miter;stroke-opacity:1"/>
<path class="bond-24 atom-24 atom-25" d="M 249.8,30.0 L 261.3,10.0" style="fill:none;fill-rule:evenodd;stroke:#000000;stroke-width:2.0px;stroke-linecap:butt;stroke-linejoin:miter;stroke-opacity:1"/>
<path class="bond-25 atom-24 atom-26" d="M 247.8,30.0 L 252.6,38.4" style="fill:none;fill-rule:evenodd;stroke:#000000;stroke-width:2.0px;stroke-linecap:butt;stroke-linejoin:miter;stroke-opacity:1"/>
<path class="bond-25 atom-24 atom-26" d="M 252.6,38.4 L 257.5,46.8" style="fill:none;fill-rule:evenodd;stroke:#FF0000;stroke-width:2.0px;stroke-linecap:butt;stroke-linejoin:miter;stroke-opacity:1"/>
<path class="bond-25 atom-24 atom-26" d="M 250.8,28.3 L 255.6,36.7" style="fill:none;fill-rule:evenodd;stroke:#000000;stroke-width:2.0px;stroke-linecap:butt;stroke-linejoin:miter;stroke-opacity:1"/>
<path class="bond-25 atom-24 atom-26" d="M 255.6,36.7 L 260.5,45.1" style="fill:none;fill-rule:evenodd;stroke:#FF0000;stroke-width:2.0px;stroke-linecap:butt;stroke-linejoin:miter;stroke-opacity:1"/>
<path class="bond-26 atom-1 atom-27" d="M 99.7,90.2 L 76.6,90.2" style="fill:none;fill-rule:evenodd;stroke:#000000;stroke-width:2.0px;stroke-linecap:butt;stroke-linejoin:miter;stroke-opacity:1"/>
<path class="bond-27 atom-27 atom-28" d="M 78.6,90.2 L 73.8,81.9" style="fill:none;fill-rule:evenodd;stroke:#000000;stroke-width:2.0px;stroke-linecap:butt;stroke-linejoin:miter;stroke-opacity:1"/>
<path class="bond-27 atom-27 atom-28" d="M 73.8,81.9 L 69.0,73.6" style="fill:none;fill-rule:evenodd;stroke:#FF0000;stroke-width:2.0px;stroke-linecap:butt;stroke-linejoin:miter;stroke-opacity:1"/>
<path class="bond-27 atom-27 atom-28" d="M 75.7,92.0 L 70.8,83.6" style="fill:none;fill-rule:evenodd;stroke:#000000;stroke-width:2.0px;stroke-linecap:butt;stroke-linejoin:miter;stroke-opacity:1"/>
<path class="bond-27 atom-27 atom-28" d="M 70.8,83.6 L 66.0,75.3" style="fill:none;fill-rule:evenodd;stroke:#FF0000;stroke-width:2.0px;stroke-linecap:butt;stroke-linejoin:miter;stroke-opacity:1"/>
<path class="bond-28 atom-27 atom-29" d="M 76.6,90.2 L 72.1,98.2" style="fill:none;fill-rule:evenodd;stroke:#000000;stroke-width:2.0px;stroke-linecap:butt;stroke-linejoin:miter;stroke-opacity:1"/>
<path class="bond-28 atom-27 atom-29" d="M 72.1,98.2 L 67.5,106.2" style="fill:none;fill-rule:evenodd;stroke:#FF0000;stroke-width:2.0px;stroke-linecap:butt;stroke-linejoin:miter;stroke-opacity:1"/>
<path d="M 100.3,91.2 L 99.7,90.2 L 98.6,90.2" style="fill:none;stroke:#000000;stroke-width:2.0px;stroke-linecap:butt;stroke-linejoin:miter;stroke-opacity:1;"/>
<path d="M 110.7,109.2 L 111.3,110.2 L 112.5,110.2" style="fill:none;stroke:#000000;stroke-width:2.0px;stroke-linecap:butt;stroke-linejoin:miter;stroke-opacity:1;"/>
<path d="M 145.4,129.1 L 146.0,130.1 L 147.1,130.1" style="fill:none;stroke:#000000;stroke-width:2.0px;stroke-linecap:butt;stroke-linejoin:miter;stroke-opacity:1;"/>
<path d="M 167.9,130.1 L 169.1,130.1 L 169.6,131.1" style="fill:none;stroke:#000000;stroke-width:2.0px;stroke-linecap:butt;stroke-linejoin:miter;stroke-opacity:1;"/>
<path d="M 180.1,149.1 L 180.6,150.1 L 181.8,150.1" style="fill:none;stroke:#000000;stroke-width:2.0px;stroke-linecap:butt;stroke-linejoin:miter;stroke-opacity:1;"/>
<path d="M 202.6,150.1 L 203.7,150.1 L 204.0,150.5" style="fill:none;stroke:#000000;stroke-width:2.0px;stroke-linecap:butt;stroke-linejoin:miter;stroke-opacity:1;"/>
<path d="M 237.9,170.0 L 238.4,170.0 L 239.0,171.0" style="fill:none;stroke:#000000;stroke-width:2.0px;stroke-linecap:butt;stroke-linejoin:miter;stroke-opacity:1;"/>
<path d="M 156.9,71.1 L 157.4,70.1 L 158.6,70.1" style="fill:none;stroke:#000000;stroke-width:2.0px;stroke-linecap:butt;stroke-linejoin:miter;stroke-opacity:1;"/>
<path d="M 179.4,70.1 L 180.5,70.1 L 181.1,69.1" style="fill:none;stroke:#000000;stroke-width:2.0px;stroke-linecap:butt;stroke-linejoin:miter;stroke-opacity:1;"/>
<path d="M 191.5,51.1 L 192.1,50.1 L 193.2,50.1" style="fill:none;stroke:#000000;stroke-width:2.0px;stroke-linecap:butt;stroke-linejoin:miter;stroke-opacity:1;"/>
<path d="M 214.0,50.1 L 215.1,50.1 L 215.4,49.7" style="fill:none;stroke:#000000;stroke-width:2.0px;stroke-linecap:butt;stroke-linejoin:miter;stroke-opacity:1;"/>
<path d="M 249.3,30.0 L 249.8,30.0 L 250.3,29.0" style="fill:none;stroke:#000000;stroke-width:2.0px;stroke-linecap:butt;stroke-linejoin:miter;stroke-opacity:1;"/>
<path d="M 77.8,90.2 L 76.6,90.2 L 76.4,90.6" style="fill:none;stroke:#000000;stroke-width:2.0px;stroke-linecap:butt;stroke-linejoin:miter;stroke-opacity:1;"/>
<path class="atom-9" d="M 212.3 130.1 Q 212.3 128.5, 213.0 127.6 Q 213.8 126.7, 215.3 126.7 Q 216.7 126.7, 217.5 127.6 Q 218.3 128.5, 218.3 130.1 Q 218.3 131.7, 217.5 132.6 Q 216.7 133.5, 215.3 133.5 Q 213.8 133.5, 213.0 132.6 Q 212.3 131.7, 212.3 130.1 M 215.3 132.7 Q 216.3 132.7, 216.8 132.1 Q 217.3 131.4, 217.3 130.1 Q 217.3 128.8, 216.8 128.1 Q 216.3 127.5, 215.3 127.5 Q 214.3 127.5, 213.7 128.1 Q 213.2 128.8, 213.2 130.1 Q 213.2 131.4, 213.7 132.1 Q 214.3 132.7, 215.3 132.7 " fill="#FF0000"/>
<path class="atom-10" d="M 212.3 170.1 Q 212.3 168.5, 213.1 167.6 Q 213.9 166.7, 215.3 166.7 Q 216.8 166.7, 217.5 167.6 Q 218.3 168.5, 218.3 170.1 Q 218.3 171.7, 217.5 172.6 Q 216.7 173.5, 215.3 173.5 Q 213.9 173.5, 213.1 172.6 Q 212.3 171.7, 212.3 170.1 M 215.3 172.7 Q 216.3 172.7, 216.8 172.1 Q 217.4 171.4, 217.4 170.1 Q 217.4 168.8, 216.8 168.1 Q 216.3 167.5, 215.3 167.5 Q 214.3 167.5, 213.8 168.1 Q 213.2 168.8, 213.2 170.1 Q 213.2 171.4, 213.8 172.1 Q 214.3 172.7, 215.3 172.7 " fill="#FF0000"/>
<path class="atom-13" d="M 246.9 150.0 Q 246.9 148.5, 247.7 147.6 Q 248.5 146.7, 249.9 146.7 Q 251.4 146.7, 252.1 147.6 Q 252.9 148.5, 252.9 150.0 Q 252.9 151.6, 252.1 152.5 Q 251.4 153.4, 249.9 153.4 Q 248.5 153.4, 247.7 152.5 Q 246.9 151.6, 246.9 150.0 M 249.9 152.7 Q 250.9 152.7, 251.5 152.0 Q 252.0 151.3, 252.0 150.0 Q 252.0 148.7, 251.5 148.1 Q 250.9 147.4, 249.9 147.4 Q 248.9 147.4, 248.4 148.1 Q 247.8 148.7, 247.8 150.0 Q 247.8 151.3, 248.4 152.0 Q 248.9 152.7, 249.9 152.7 " fill="#FF0000"/>
<path class="atom-15" d="M 162.9 101.7 Q 162.9 100.1, 163.7 99.2 Q 164.5 98.4, 165.9 98.4 Q 167.4 98.4, 168.2 99.2 Q 168.9 100.1, 168.9 101.7 Q 168.9 103.3, 168.2 104.2 Q 167.4 105.1, 165.9 105.1 Q 164.5 105.1, 163.7 104.2 Q 162.9 103.3, 162.9 101.7 M 165.9 104.3 Q 166.9 104.3, 167.5 103.7 Q 168.0 103.0, 168.0 101.7 Q 168.0 100.4, 167.5 99.8 Q 166.9 99.1, 165.9 99.1 Q 164.9 99.1, 164.4 99.7 Q 163.9 100.4, 163.9 101.7 Q 163.9 103.0, 164.4 103.7 Q 164.9 104.3, 165.9 104.3 " fill="#FF0000"/>
<path class="atom-15" d="M 170.0 98.4 L 170.8 98.4 L 170.8 101.2 L 174.2 101.2 L 174.2 98.4 L 175.1 98.4 L 175.1 105.0 L 174.2 105.0 L 174.2 102.0 L 170.8 102.0 L 170.8 105.0 L 170.0 105.0 L 170.0 98.4 " fill="#FF0000"/>
<path class="atom-16" d="M 116.4 75.4 L 117.3 75.4 L 117.3 78.2 L 120.7 78.2 L 120.7 75.4 L 121.6 75.4 L 121.6 81.9 L 120.7 81.9 L 120.7 78.9 L 117.3 78.9 L 117.3 81.9 L 116.4 81.9 L 116.4 75.4 " fill="#FF0000"/>
<path class="atom-16" d="M 122.9 78.7 Q 122.9 77.1, 123.7 76.2 Q 124.5 75.3, 125.9 75.3 Q 127.4 75.3, 128.1 76.2 Q 128.9 77.1, 128.9 78.7 Q 128.9 80.2, 128.1 81.1 Q 127.3 82.0, 125.9 82.0 Q 124.5 82.0, 123.7 81.1 Q 122.9 80.2, 122.9 78.7 M 125.9 81.3 Q 126.9 81.3, 127.4 80.6 Q 128.0 80.0, 128.0 78.7 Q 128.0 77.4, 127.4 76.7 Q 126.9 76.1, 125.9 76.1 Q 124.9 76.1, 124.4 76.7 Q 123.8 77.4, 123.8 78.7 Q 123.8 80.0, 124.4 80.6 Q 124.9 81.3, 125.9 81.3 " fill="#FF0000"/>
<path class="atom-22" d="M 223.7 70.1 Q 223.7 68.5, 224.5 67.6 Q 225.3 66.7, 226.7 66.7 Q 228.2 66.7, 228.9 67.6 Q 229.7 68.5, 229.7 70.1 Q 229.7 71.6, 228.9 72.6 Q 228.2 73.5, 226.7 73.5 Q 225.3 73.5, 224.5 72.6 Q 223.7 71.7, 223.7 70.1 M 226.7 72.7 Q 227.7 72.7, 228.3 72.0 Q 228.8 71.4, 228.8 70.1 Q 228.8 68.8, 228.3 68.1 Q 227.7 67.5, 226.7 67.5 Q 225.7 67.5, 225.2 68.1 Q 224.6 68.8, 224.6 70.1 Q 224.6 71.4, 225.2 72.0 Q 225.7 72.7, 226.7 72.7 " fill="#FF0000"/>
<path class="atom-23" d="M 223.7 30.1 Q 223.7 28.5, 224.4 27.6 Q 225.2 26.7, 226.7 26.7 Q 228.1 26.7, 228.9 27.6 Q 229.7 28.5, 229.7 30.1 Q 229.7 31.7, 228.9 32.6 Q 228.1 33.5, 226.7 33.5 Q 225.2 33.5, 224.4 32.6 Q 223.7 31.7, 223.7 30.1 M 226.7 32.7 Q 227.7 32.7, 228.2 32.0 Q 228.7 31.4, 228.7 30.1 Q 228.7 28.8, 228.2 28.1 Q 227.7 27.5, 226.7 27.5 Q 225.7 27.5, 225.1 28.1 Q 224.6 28.8, 224.6 30.1 Q 224.6 31.4, 225.1 32.0 Q 225.7 32.7, 226.7 32.7 " fill="#FF0000"/>
<path class="atom-26" d="M 258.3 50.0 Q 258.3 48.4, 259.1 47.6 Q 259.9 46.7, 261.3 46.7 Q 262.8 46.7, 263.6 47.6 Q 264.3 48.4, 264.3 50.0 Q 264.3 51.6, 263.5 52.5 Q 262.8 53.4, 261.3 53.4 Q 259.9 53.4, 259.1 52.5 Q 258.3 51.6, 258.3 50.0 M 261.3 52.7 Q 262.3 52.7, 262.9 52.0 Q 263.4 51.3, 263.4 50.0 Q 263.4 48.7, 262.9 48.1 Q 262.3 47.4, 261.3 47.4 Q 260.3 47.4, 259.8 48.1 Q 259.3 48.7, 259.3 50.0 Q 259.3 51.3, 259.8 52.0 Q 260.3 52.7, 261.3 52.7 " fill="#FF0000"/>
<path class="atom-28" d="M 62.1 70.3 Q 62.1 68.7, 62.8 67.8 Q 63.6 67.0, 65.1 67.0 Q 66.5 67.0, 67.3 67.8 Q 68.1 68.7, 68.1 70.3 Q 68.1 71.9, 67.3 72.8 Q 66.5 73.7, 65.1 73.7 Q 63.6 73.7, 62.8 72.8 Q 62.1 71.9, 62.1 70.3 M 65.1 72.9 Q 66.1 72.9, 66.6 72.3 Q 67.2 71.6, 67.2 70.3 Q 67.2 69.0, 66.6 68.4 Q 66.1 67.7, 65.1 67.7 Q 64.1 67.7, 63.5 68.3 Q 63.0 69.0, 63.0 70.3 Q 63.0 71.6, 63.5 72.3 Q 64.1 72.9, 65.1 72.9 " fill="#FF0000"/>
<path class="atom-29" d="M 55.7 107.0 L 56.6 107.0 L 56.6 109.8 L 59.9 109.8 L 59.9 107.0 L 60.8 107.0 L 60.8 113.6 L 59.9 113.6 L 59.9 110.5 L 56.6 110.5 L 56.6 113.6 L 55.7 113.6 L 55.7 107.0 " fill="#FF0000"/>
<path class="atom-29" d="M 62.1 110.3 Q 62.1 108.7, 62.9 107.8 Q 63.7 107.0, 65.1 107.0 Q 66.6 107.0, 67.4 107.8 Q 68.1 108.7, 68.1 110.3 Q 68.1 111.9, 67.3 112.8 Q 66.6 113.7, 65.1 113.7 Q 63.7 113.7, 62.9 112.8 Q 62.1 111.9, 62.1 110.3 M 65.1 112.9 Q 66.1 112.9, 66.7 112.3 Q 67.2 111.6, 67.2 110.3 Q 67.2 109.0, 66.7 108.3 Q 66.1 107.7, 65.1 107.7 Q 64.1 107.7, 63.6 108.3 Q 63.1 109.0, 63.1 110.3 Q 63.1 111.6, 63.6 112.3 Q 64.1 112.9, 65.1 112.9 " fill="#FF0000"/>
</svg>
