<?xml version='1.0' encoding='ASCII' standalone='yes'?>
<svg xmlns="http://www.w3.org/2000/svg" xmlns:rdkit="http://www.rdkit.org/xml" xmlns:xlink="http://www.w3.org/1999/xlink" version="1.1" baseProfile="full" xml:space="preserve" width="297px" height="200px" viewBox="0 0 297 200">
<!-- END OF HEADER -->
<rect style="opacity:1.0;fill:#FFFFFF;stroke:none" width="297.0" height="200.0" x="0.0" y="0.0"> </rect>
<path class="bond-0 atom-0 atom-1" d="M 46.4,67.7 L 77.2,53.6" style="fill:none;fill-rule:evenodd;stroke:#000000;stroke-width:2.0px;stroke-linecap:butt;stroke-linejoin:miter;stroke-opacity:1"/>
<path class="bond-1 atom-1 atom-2" d="M 77.2,53.6 L 104.8,73.2" style="fill:none;fill-rule:evenodd;stroke:#000000;stroke-width:2.0px;stroke-linecap:butt;stroke-linejoin:miter;stroke-opacity:1"/>
<path class="bond-2 atom-2 atom-3" d="M 104.8,73.2 L 132.4,92.8" style="fill:none;fill-rule:evenodd;stroke:#000000;stroke-width:2.0px;stroke-linecap:butt;stroke-linejoin:miter;stroke-opacity:1"/>
<path class="bond-3 atom-2 atom-4" d="M 104.8,73.2 L 85.2,100.8" style="fill:none;fill-rule:evenodd;stroke:#000000;stroke-width:2.0px;stroke-linecap:butt;stroke-linejoin:miter;stroke-opacity:1"/>
<path class="bond-4 atom-4 atom-5" d="M 85.2,100.8 L 99.3,131.6" style="fill:none;fill-rule:evenodd;stroke:#000000;stroke-width:2.0px;stroke-linecap:butt;stroke-linejoin:miter;stroke-opacity:1"/>
<path class="bond-5 atom-5 atom-6" d="M 99.3,131.6 L 113.4,162.4" style="fill:none;fill-rule:evenodd;stroke:#000000;stroke-width:2.0px;stroke-linecap:butt;stroke-linejoin:miter;stroke-opacity:1"/>
<path class="bond-6 atom-6 atom-7" d="M 113.4,162.4 L 93.8,190.0" style="fill:none;fill-rule:evenodd;stroke:#000000;stroke-width:2.0px;stroke-linecap:butt;stroke-linejoin:miter;stroke-opacity:1"/>
<path class="bond-7 atom-5 atom-8" d="M 99.3,131.6 L 130.1,117.5" style="fill:none;fill-rule:evenodd;stroke:#000000;stroke-width:2.0px;stroke-linecap:butt;stroke-linejoin:miter;stroke-opacity:1"/>
<path class="bond-8 atom-8 atom-9" d="M 130.1,117.5 L 157.7,137.1" style="fill:none;fill-rule:evenodd;stroke:#000000;stroke-width:2.0px;stroke-linecap:butt;stroke-linejoin:miter;stroke-opacity:1"/>
<path class="bond-9 atom-9 atom-10" d="M 157.7,137.1 L 156.3,151.0" style="fill:none;fill-rule:evenodd;stroke:#000000;stroke-width:2.0px;stroke-linecap:butt;stroke-linejoin:miter;stroke-opacity:1"/>
<path class="bond-9 atom-9 atom-10" d="M 156.3,151.0 L 155.0,164.9" style="fill:none;fill-rule:evenodd;stroke:#FF0000;stroke-width:2.0px;stroke-linecap:butt;stroke-linejoin:miter;stroke-opacity:1"/>
<path class="bond-10 atom-9 atom-11" d="M 157.7,137.1 L 188.4,123.0" style="fill:none;fill-rule:evenodd;stroke:#000000;stroke-width:2.0px;stroke-linecap:butt;stroke-linejoin:miter;stroke-opacity:1"/>
<path class="bond-11 atom-11 atom-12" d="M 188.4,123.0 L 174.3,92.2" style="fill:none;fill-rule:evenodd;stroke:#000000;stroke-width:2.0px;stroke-linecap:butt;stroke-linejoin:miter;stroke-opacity:1"/>
<path class="bond-12 atom-11 atom-13" d="M 188.4,123.0 L 202.5,153.8" style="fill:none;fill-rule:evenodd;stroke:#000000;stroke-width:2.0px;stroke-linecap:butt;stroke-linejoin:miter;stroke-opacity:1"/>
<path class="bond-13 atom-11 atom-14" d="M 188.4,123.0 L 219.2,108.9" style="fill:none;fill-rule:evenodd;stroke:#000000;stroke-width:2.0px;stroke-linecap:butt;stroke-linejoin:miter;stroke-opacity:1"/>
<path class="bond-14 atom-14 atom-15" d="M 221.6,110.6 L 223.0,96.1" style="fill:none;fill-rule:evenodd;stroke:#000000;stroke-width:2.0px;stroke-linecap:butt;stroke-linejoin:miter;stroke-opacity:1"/>
<path class="bond-14 atom-14 atom-15" d="M 223.0,96.1 L 224.3,81.6" style="fill:none;fill-rule:evenodd;stroke:#FF0000;stroke-width:2.0px;stroke-linecap:butt;stroke-linejoin:miter;stroke-opacity:1"/>
<path class="bond-14 atom-14 atom-15" d="M 216.5,110.1 L 217.9,95.6" style="fill:none;fill-rule:evenodd;stroke:#000000;stroke-width:2.0px;stroke-linecap:butt;stroke-linejoin:miter;stroke-opacity:1"/>
<path class="bond-14 atom-14 atom-15" d="M 217.9,95.6 L 219.3,81.1" style="fill:none;fill-rule:evenodd;stroke:#FF0000;stroke-width:2.0px;stroke-linecap:butt;stroke-linejoin:miter;stroke-opacity:1"/>
<path class="bond-15 atom-14 atom-16" d="M 219.2,108.9 L 230.3,116.7" style="fill:none;fill-rule:evenodd;stroke:#000000;stroke-width:2.0px;stroke-linecap:butt;stroke-linejoin:miter;stroke-opacity:1"/>
<path class="bond-15 atom-14 atom-16" d="M 230.3,116.7 L 241.3,124.6" style="fill:none;fill-rule:evenodd;stroke:#FF0000;stroke-width:2.0px;stroke-linecap:butt;stroke-linejoin:miter;stroke-opacity:1"/>
<path class="bond-16 atom-5 atom-17" d="M 99.3,131.6 L 68.5,145.7" style="fill:none;fill-rule:evenodd;stroke:#000000;stroke-width:2.0px;stroke-linecap:butt;stroke-linejoin:miter;stroke-opacity:1"/>
<path class="bond-17 atom-17 atom-18" d="M 71.2,144.5 L 59.5,136.2" style="fill:none;fill-rule:evenodd;stroke:#000000;stroke-width:2.0px;stroke-linecap:butt;stroke-linejoin:miter;stroke-opacity:1"/>
<path class="bond-17 atom-17 atom-18" d="M 59.5,136.2 L 47.9,128.0" style="fill:none;fill-rule:evenodd;stroke:#FF0000;stroke-width:2.0px;stroke-linecap:butt;stroke-linejoin:miter;stroke-opacity:1"/>
<path class="bond-17 atom-17 atom-18" d="M 68.2,148.6 L 56.6,140.4" style="fill:none;fill-rule:evenodd;stroke:#000000;stroke-width:2.0px;stroke-linecap:butt;stroke-linejoin:miter;stroke-opacity:1"/>
<path class="bond-17 atom-17 atom-18" d="M 56.6,140.4 L 44.9,132.1" style="fill:none;fill-rule:evenodd;stroke:#FF0000;stroke-width:2.0px;stroke-linecap:butt;stroke-linejoin:miter;stroke-opacity:1"/>
<path class="bond-18 atom-17 atom-19" d="M 68.5,145.7 L 67.2,159.6" style="fill:none;fill-rule:evenodd;stroke:#000000;stroke-width:2.0px;stroke-linecap:butt;stroke-linejoin:miter;stroke-opacity:1"/>
<path class="bond-18 atom-17 atom-19" d="M 67.2,159.6 L 65.9,173.5" style="fill:none;fill-rule:evenodd;stroke:#FF0000;stroke-width:2.0px;stroke-linecap:butt;stroke-linejoin:miter;stroke-opacity:1"/>
<path class="bond-19 atom-2 atom-20" d="M 104.8,73.2 L 124.4,45.6" style="fill:none;fill-rule:evenodd;stroke:#000000;stroke-width:2.0px;stroke-linecap:butt;stroke-linejoin:miter;stroke-opacity:1"/>
<path class="bond-20 atom-20 atom-21" d="M 127.3,45.9 L 121.3,32.9" style="fill:none;fill-rule:evenodd;stroke:#000000;stroke-width:2.0px;stroke-linecap:butt;stroke-linejoin:miter;stroke-opacity:1"/>
<path class="bond-20 atom-20 atom-21" d="M 121.3,32.9 L 115.4,19.9" style="fill:none;fill-rule:evenodd;stroke:#FF0000;stroke-width:2.0px;stroke-linecap:butt;stroke-linejoin:miter;stroke-opacity:1"/>
<path class="bond-20 atom-20 atom-21" d="M 122.7,48.0 L 116.7,35.0" style="fill:none;fill-rule:evenodd;stroke:#000000;stroke-width:2.0px;stroke-linecap:butt;stroke-linejoin:miter;stroke-opacity:1"/>
<path class="bond-20 atom-20 atom-21" d="M 116.7,35.0 L 110.8,22.0" style="fill:none;fill-rule:evenodd;stroke:#FF0000;stroke-width:2.0px;stroke-linecap:butt;stroke-linejoin:miter;stroke-opacity:1"/>
<path class="bond-21 atom-20 atom-22" d="M 124.4,45.6 L 138.5,47.0" style="fill:none;fill-rule:evenodd;stroke:#000000;stroke-width:2.0px;stroke-linecap:butt;stroke-linejoin:miter;stroke-opacity:1"/>
<path class="bond-21 atom-20 atom-22" d="M 138.5,47.0 L 152.6,48.3" style="fill:none;fill-rule:evenodd;stroke:#FF0000;stroke-width:2.0px;stroke-linecap:butt;stroke-linejoin:miter;stroke-opacity:1"/>
<path d="M 75.6,54.3 L 77.2,53.6 L 78.5,54.6" style="fill:none;stroke:#000000;stroke-width:2.0px;stroke-linecap:butt;stroke-linejoin:miter;stroke-opacity:1;"/>
<path d="M 86.1,99.5 L 85.2,100.8 L 85.9,102.4" style="fill:none;stroke:#000000;stroke-width:2.0px;stroke-linecap:butt;stroke-linejoin:miter;stroke-opacity:1;"/>
<path d="M 112.7,160.9 L 113.4,162.4 L 112.4,163.8" style="fill:none;stroke:#000000;stroke-width:2.0px;stroke-linecap:butt;stroke-linejoin:miter;stroke-opacity:1;"/>
<path d="M 128.5,118.2 L 130.1,117.5 L 131.4,118.5" style="fill:none;stroke:#000000;stroke-width:2.0px;stroke-linecap:butt;stroke-linejoin:miter;stroke-opacity:1;"/>
<path d="M 217.7,109.6 L 219.2,108.9 L 219.8,109.3" style="fill:none;stroke:#000000;stroke-width:2.0px;stroke-linecap:butt;stroke-linejoin:miter;stroke-opacity:1;"/>
<path d="M 70.0,145.0 L 68.5,145.7 L 68.4,146.4" style="fill:none;stroke:#000000;stroke-width:2.0px;stroke-linecap:butt;stroke-linejoin:miter;stroke-opacity:1;"/>
<path d="M 123.4,47.0 L 124.4,45.6 L 125.1,45.7" style="fill:none;stroke:#000000;stroke-width:2.0px;stroke-linecap:butt;stroke-linejoin:miter;stroke-opacity:1;"/>
<path class="atom-10" d="M 150.1 170.8 Q 150.1 168.5, 151.2 167.3 Q 152.4 166.0, 154.5 166.0 Q 156.6 166.0, 157.7 167.3 Q 158.9 168.5, 158.9 170.8 Q 158.9 173.2, 157.7 174.5 Q 156.6 175.8, 154.5 175.8 Q 152.4 175.8, 151.2 174.5 Q 150.1 173.2, 150.1 170.8 M 154.5 174.7 Q 155.9 174.7, 156.7 173.8 Q 157.5 172.8, 157.5 170.8 Q 157.5 169.0, 156.7 168.0 Q 155.9 167.1, 154.5 167.1 Q 153.0 167.1, 152.2 168.0 Q 151.4 169.0, 151.4 170.8 Q 151.4 172.8, 152.2 173.8 Q 153.0 174.7, 154.5 174.7 " fill="#FF0000"/>
<path class="atom-10" d="M 160.4 166.1 L 161.7 166.1 L 161.7 170.2 L 166.6 170.2 L 166.6 166.1 L 167.9 166.1 L 167.9 175.7 L 166.6 175.7 L 166.6 171.2 L 161.7 171.2 L 161.7 175.7 L 160.4 175.7 L 160.4 166.1 " fill="#FF0000"/>
<path class="atom-15" d="M 218.0 75.2 Q 218.0 72.9, 219.1 71.6 Q 220.3 70.3, 222.4 70.3 Q 224.5 70.3, 225.7 71.6 Q 226.8 72.9, 226.8 75.2 Q 226.8 77.6, 225.6 78.9 Q 224.5 80.2, 222.4 80.2 Q 220.3 80.2, 219.1 78.9 Q 218.0 77.6, 218.0 75.2 M 222.4 79.1 Q 223.9 79.1, 224.6 78.1 Q 225.4 77.1, 225.4 75.2 Q 225.4 73.3, 224.6 72.4 Q 223.9 71.4, 222.4 71.4 Q 220.9 71.4, 220.1 72.4 Q 219.3 73.3, 219.3 75.2 Q 219.3 77.2, 220.1 78.1 Q 220.9 79.1, 222.4 79.1 " fill="#FF0000"/>
<path class="atom-16" d="M 242.4 128.5 Q 242.4 126.2, 243.6 124.9 Q 244.7 123.7, 246.8 123.7 Q 248.9 123.7, 250.1 124.9 Q 251.2 126.2, 251.2 128.5 Q 251.2 130.9, 250.1 132.2 Q 248.9 133.5, 246.8 133.5 Q 244.7 133.5, 243.6 132.2 Q 242.4 130.9, 242.4 128.5 M 246.8 132.4 Q 248.3 132.4, 249.1 131.4 Q 249.9 130.5, 249.9 128.5 Q 249.9 126.7, 249.1 125.7 Q 248.3 124.7, 246.8 124.7 Q 245.4 124.7, 244.6 125.7 Q 243.8 126.6, 243.8 128.5 Q 243.8 130.5, 244.6 131.4 Q 245.4 132.4, 246.8 132.4 " fill="#FF0000"/>
<path class="atom-16" d="M 252.7 123.8 L 254.0 123.8 L 254.0 127.8 L 258.9 127.8 L 258.9 123.8 L 260.2 123.8 L 260.2 133.4 L 258.9 133.4 L 258.9 128.9 L 254.0 128.9 L 254.0 133.4 L 252.7 133.4 L 252.7 123.8 " fill="#FF0000"/>
<path class="atom-18" d="M 36.5 126.1 Q 36.5 123.8, 37.6 122.6 Q 38.8 121.3, 40.9 121.3 Q 43.0 121.3, 44.2 122.6 Q 45.3 123.8, 45.3 126.1 Q 45.3 128.5, 44.1 129.8 Q 43.0 131.1, 40.9 131.1 Q 38.8 131.1, 37.6 129.8 Q 36.5 128.5, 36.5 126.1 M 40.9 130.0 Q 42.3 130.0, 43.1 129.1 Q 43.9 128.1, 43.9 126.1 Q 43.9 124.3, 43.1 123.3 Q 42.3 122.4, 40.9 122.4 Q 39.4 122.4, 38.6 123.3 Q 37.8 124.2, 37.8 126.1 Q 37.8 128.1, 38.6 129.1 Q 39.4 130.0, 40.9 130.0 " fill="#FF0000"/>
<path class="atom-19" d="M 60.9 179.5 Q 60.9 177.2, 62.1 175.9 Q 63.2 174.6, 65.3 174.6 Q 67.4 174.6, 68.6 175.9 Q 69.7 177.2, 69.7 179.5 Q 69.7 181.8, 68.6 183.1 Q 67.4 184.4, 65.3 184.4 Q 63.2 184.4, 62.1 183.1 Q 60.9 181.8, 60.9 179.5 M 65.3 183.3 Q 66.8 183.3, 67.6 182.4 Q 68.4 181.4, 68.4 179.5 Q 68.4 177.6, 67.6 176.6 Q 66.8 175.7, 65.3 175.7 Q 63.9 175.7, 63.1 176.6 Q 62.3 177.6, 62.3 179.5 Q 62.3 181.4, 63.1 182.4 Q 63.9 183.3, 65.3 183.3 " fill="#FF0000"/>
<path class="atom-19" d="M 71.2 174.7 L 72.5 174.7 L 72.5 178.8 L 77.4 178.8 L 77.4 174.7 L 78.7 174.7 L 78.7 184.3 L 77.4 184.3 L 77.4 179.8 L 72.5 179.8 L 72.5 184.3 L 71.2 184.3 L 71.2 174.7 " fill="#FF0000"/>
<path class="atom-21" d="M 105.9 14.9 Q 105.9 12.6, 107.0 11.3 Q 108.1 10.0, 110.3 10.0 Q 112.4 10.0, 113.5 11.3 Q 114.7 12.6, 114.7 14.9 Q 114.7 17.2, 113.5 18.5 Q 112.4 19.8, 110.3 19.8 Q 108.2 19.8, 107.0 18.5 Q 105.9 17.2, 105.9 14.9 M 110.3 18.8 Q 111.7 18.8, 112.5 17.8 Q 113.3 16.8, 113.3 14.9 Q 113.3 13.0, 112.5 12.0 Q 111.7 11.1, 110.3 11.1 Q 108.8 11.1, 108.0 12.0 Q 107.2 13.0, 107.2 14.9 Q 107.2 16.8, 108.0 17.8 Q 108.8 18.8, 110.3 18.8 " fill="#FF0000"/>
<path class="atom-22" d="M 153.7 48.8 Q 153.7 46.5, 154.8 45.2 Q 156.0 44.0, 158.1 44.0 Q 160.2 44.0, 161.3 45.2 Q 162.5 46.5, 162.5 48.8 Q 162.5 51.2, 161.3 52.5 Q 160.2 53.8, 158.1 53.8 Q 156.0 53.8, 154.8 52.5 Q 153.7 51.2, 153.7 48.8 M 158.1 52.7 Q 159.5 52.7, 160.3 51.7 Q 161.1 50.8, 161.1 48.8 Q 161.1 46.9, 160.3 46.0 Q 159.5 45.0, 158.1 45.0 Q 156.6 45.0, 155.8 46.0 Q 155.0 46.9, 155.0 48.8 Q 155.0 50.8, 155.8 51.7 Q 156.6 52.7, 158.1 52.7 " fill="#FF0000"/>
<path class="atom-22" d="M 164.0 44.1 L 165.3 44.1 L 165.3 48.1 L 170.2 48.1 L 170.2 44.1 L 171.5 44.1 L 171.5 53.7 L 170.2 53.7 L 170.2 49.2 L 165.3 49.2 L 165.3 53.7 L 164.0 53.7 L 164.0 44.1 " fill="#FF0000"/>
</svg>
