<?xml version='1.0' encoding='ASCII' standalone='yes'?>
<svg xmlns="http://www.w3.org/2000/svg" xmlns:rdkit="http://www.rdkit.org/xml" xmlns:xlink="http://www.w3.org/1999/xlink" version="1.1" baseProfile="full" xml:space="preserve" width="271px" height="200px" viewBox="0 0 271 200">
<!-- END OF HEADER -->
<rect style="opacity:1.0;fill:#FFFFFF;stroke:none" width="271.0" height="200.0" x="0.0" y="0.0"> </rect>
<path class="bond-0 atom-0 atom-1" d="M 256.6,69.0 L 224.2,97.4" style="fill:none;fill-rule:evenodd;stroke:#000000;stroke-width:2.0px;stroke-linecap:butt;stroke-linejoin:miter;stroke-opacity:1"/>
<path class="bond-1 atom-1 atom-2" d="M 224.2,97.4 L 183.4,83.5" style="fill:none;fill-rule:evenodd;stroke:#000000;stroke-width:2.0px;stroke-linecap:butt;stroke-linejoin:miter;stroke-opacity:1"/>
<path class="bond-2 atom-2 atom-3" d="M 183.4,83.5 L 180.0,66.3" style="fill:none;fill-rule:evenodd;stroke:#000000;stroke-width:2.0px;stroke-linecap:butt;stroke-linejoin:miter;stroke-opacity:1"/>
<path class="bond-2 atom-2 atom-3" d="M 180.0,66.3 L 176.5,49.0" style="fill:none;fill-rule:evenodd;stroke:#FF0000;stroke-width:2.0px;stroke-linecap:butt;stroke-linejoin:miter;stroke-opacity:1"/>
<path class="bond-3 atom-2 atom-4" d="M 183.4,83.5 L 151.0,111.9" style="fill:none;fill-rule:evenodd;stroke:#000000;stroke-width:2.0px;stroke-linecap:butt;stroke-linejoin:miter;stroke-opacity:1"/>
<path class="bond-4 atom-4 atom-5" d="M 151.0,111.9 L 179.4,144.3" style="fill:none;fill-rule:evenodd;stroke:#000000;stroke-width:2.0px;stroke-linecap:butt;stroke-linejoin:miter;stroke-opacity:1"/>
<path class="bond-5 atom-4 atom-6" d="M 151.0,111.9 L 122.6,79.5" style="fill:none;fill-rule:evenodd;stroke:#000000;stroke-width:2.0px;stroke-linecap:butt;stroke-linejoin:miter;stroke-opacity:1"/>
<path class="bond-6 atom-6 atom-7" d="M 122.6,79.5 L 80.4,87.9" style="fill:none;fill-rule:evenodd;stroke:#000000;stroke-width:2.0px;stroke-linecap:butt;stroke-linejoin:miter;stroke-opacity:1"/>
<path class="bond-7 atom-7 atom-8" d="M 80.4,87.9 L 38.1,96.3" style="fill:none;fill-rule:evenodd;stroke:#000000;stroke-width:2.0px;stroke-linecap:butt;stroke-linejoin:miter;stroke-opacity:1"/>
<path class="bond-8 atom-7 atom-9" d="M 80.4,87.9 L 88.7,130.1" style="fill:none;fill-rule:evenodd;stroke:#000000;stroke-width:2.0px;stroke-linecap:butt;stroke-linejoin:miter;stroke-opacity:1"/>
<path class="bond-9 atom-9 atom-10" d="M 88.7,130.1 L 76.0,141.3" style="fill:none;fill-rule:evenodd;stroke:#000000;stroke-width:2.0px;stroke-linecap:butt;stroke-linejoin:miter;stroke-opacity:1"/>
<path class="bond-9 atom-9 atom-10" d="M 76.0,141.3 L 63.3,152.4" style="fill:none;fill-rule:evenodd;stroke:#FF0000;stroke-width:2.0px;stroke-linecap:butt;stroke-linejoin:miter;stroke-opacity:1"/>
<path class="bond-10 atom-7 atom-11" d="M 80.4,87.9 L 72.0,45.7" style="fill:none;fill-rule:evenodd;stroke:#000000;stroke-width:2.0px;stroke-linecap:butt;stroke-linejoin:miter;stroke-opacity:1"/>
<path class="bond-11 atom-11 atom-12" d="M 72.7,49.2 L 86.1,37.5" style="fill:none;fill-rule:evenodd;stroke:#000000;stroke-width:2.0px;stroke-linecap:butt;stroke-linejoin:miter;stroke-opacity:1"/>
<path class="bond-11 atom-11 atom-12" d="M 86.1,37.5 L 99.5,25.7" style="fill:none;fill-rule:evenodd;stroke:#FF0000;stroke-width:2.0px;stroke-linecap:butt;stroke-linejoin:miter;stroke-opacity:1"/>
<path class="bond-11 atom-11 atom-12" d="M 68.5,44.5 L 81.9,32.8" style="fill:none;fill-rule:evenodd;stroke:#000000;stroke-width:2.0px;stroke-linecap:butt;stroke-linejoin:miter;stroke-opacity:1"/>
<path class="bond-11 atom-11 atom-12" d="M 81.9,32.8 L 95.3,21.0" style="fill:none;fill-rule:evenodd;stroke:#FF0000;stroke-width:2.0px;stroke-linecap:butt;stroke-linejoin:miter;stroke-opacity:1"/>
<path class="bond-12 atom-11 atom-13" d="M 72.0,45.7 L 55.1,39.9" style="fill:none;fill-rule:evenodd;stroke:#000000;stroke-width:2.0px;stroke-linecap:butt;stroke-linejoin:miter;stroke-opacity:1"/>
<path class="bond-12 atom-11 atom-13" d="M 55.1,39.9 L 38.2,34.2" style="fill:none;fill-rule:evenodd;stroke:#FF0000;stroke-width:2.0px;stroke-linecap:butt;stroke-linejoin:miter;stroke-opacity:1"/>
<path class="bond-13 atom-4 atom-14" d="M 151.0,111.9 L 118.6,140.3" style="fill:none;fill-rule:evenodd;stroke:#000000;stroke-width:2.0px;stroke-linecap:butt;stroke-linejoin:miter;stroke-opacity:1"/>
<path class="bond-14 atom-14 atom-15" d="M 121.9,137.4 L 112.5,136.6" style="fill:none;fill-rule:evenodd;stroke:#000000;stroke-width:2.0px;stroke-linecap:butt;stroke-linejoin:miter;stroke-opacity:1"/>
<path class="bond-14 atom-14 atom-15" d="M 112.5,136.6 L 103.0,135.8" style="fill:none;fill-rule:evenodd;stroke:#FF0000;stroke-width:2.0px;stroke-linecap:butt;stroke-linejoin:miter;stroke-opacity:1"/>
<path class="bond-14 atom-14 atom-15" d="M 119.2,143.5 L 111.9,142.9" style="fill:none;fill-rule:evenodd;stroke:#000000;stroke-width:2.0px;stroke-linecap:butt;stroke-linejoin:miter;stroke-opacity:1"/>
<path class="bond-14 atom-14 atom-15" d="M 111.9,142.9 L 102.5,142.1" style="fill:none;fill-rule:evenodd;stroke:#FF0000;stroke-width:2.0px;stroke-linecap:butt;stroke-linejoin:miter;stroke-opacity:1"/>
<path class="bond-15 atom-14 atom-16" d="M 118.6,140.3 L 122.0,157.6" style="fill:none;fill-rule:evenodd;stroke:#000000;stroke-width:2.0px;stroke-linecap:butt;stroke-linejoin:miter;stroke-opacity:1"/>
<path class="bond-15 atom-14 atom-16" d="M 122.0,157.6 L 125.5,175.0" style="fill:none;fill-rule:evenodd;stroke:#FF0000;stroke-width:2.0px;stroke-linecap:butt;stroke-linejoin:miter;stroke-opacity:1"/>
<path d="M 225.8,96.0 L 224.2,97.4 L 222.1,96.7" style="fill:none;stroke:#000000;stroke-width:2.0px;stroke-linecap:butt;stroke-linejoin:miter;stroke-opacity:1;"/>
<path d="M 124.0,81.1 L 122.6,79.5 L 120.5,79.9" style="fill:none;stroke:#000000;stroke-width:2.0px;stroke-linecap:butt;stroke-linejoin:miter;stroke-opacity:1;"/>
<path d="M 88.3,128.0 L 88.7,130.1 L 88.1,130.7" style="fill:none;stroke:#000000;stroke-width:2.0px;stroke-linecap:butt;stroke-linejoin:miter;stroke-opacity:1;"/>
<path d="M 72.4,47.8 L 72.0,45.7 L 71.1,45.4" style="fill:none;stroke:#000000;stroke-width:2.0px;stroke-linecap:butt;stroke-linejoin:miter;stroke-opacity:1;"/>
<path d="M 120.2,138.9 L 118.6,140.3 L 118.8,141.2" style="fill:none;stroke:#000000;stroke-width:2.0px;stroke-linecap:butt;stroke-linejoin:miter;stroke-opacity:1;"/>
<path class="atom-3" d="M 169.4 41.3 Q 169.4 38.4, 170.8 36.7 Q 172.3 35.1, 175.0 35.1 Q 177.7 35.1, 179.1 36.7 Q 180.6 38.4, 180.6 41.3 Q 180.6 44.3, 179.1 46.0 Q 177.7 47.6, 175.0 47.6 Q 172.3 47.6, 170.8 46.0 Q 169.4 44.3, 169.4 41.3 M 175.0 46.3 Q 176.9 46.3, 177.9 45.0 Q 178.9 43.8, 178.9 41.3 Q 178.9 38.9, 177.9 37.7 Q 176.9 36.5, 175.0 36.5 Q 173.1 36.5, 172.1 37.7 Q 171.1 38.9, 171.1 41.3 Q 171.1 43.8, 172.1 45.0 Q 173.1 46.3, 175.0 46.3 " fill="#FF0000"/>
<path class="atom-3" d="M 182.5 35.2 L 184.1 35.2 L 184.1 40.4 L 190.4 40.4 L 190.4 35.2 L 192.0 35.2 L 192.0 47.4 L 190.4 47.4 L 190.4 41.8 L 184.1 41.8 L 184.1 47.4 L 182.5 47.4 L 182.5 35.2 " fill="#FF0000"/>
<path class="atom-10" d="M 38.7 152.5 L 40.4 152.5 L 40.4 157.7 L 46.6 157.7 L 46.6 152.5 L 48.3 152.5 L 48.3 164.7 L 46.6 164.7 L 46.6 159.1 L 40.4 159.1 L 40.4 164.7 L 38.7 164.7 L 38.7 152.5 " fill="#FF0000"/>
<path class="atom-10" d="M 50.8 158.6 Q 50.8 155.6, 52.2 154.0 Q 53.7 152.4, 56.4 152.4 Q 59.1 152.4, 60.5 154.0 Q 62.0 155.6, 62.0 158.6 Q 62.0 161.5, 60.5 163.2 Q 59.0 164.9, 56.4 164.9 Q 53.7 164.9, 52.2 163.2 Q 50.8 161.5, 50.8 158.6 M 56.4 163.5 Q 58.2 163.5, 59.2 162.3 Q 60.2 161.0, 60.2 158.6 Q 60.2 156.2, 59.2 155.0 Q 58.2 153.7, 56.4 153.7 Q 54.5 153.7, 53.5 154.9 Q 52.5 156.2, 52.5 158.6 Q 52.5 161.0, 53.5 162.3 Q 54.5 163.5, 56.4 163.5 " fill="#FF0000"/>
<path class="atom-12" d="M 98.8 17.3 Q 98.8 14.4, 100.2 12.7 Q 101.7 11.1, 104.4 11.1 Q 107.1 11.1, 108.5 12.7 Q 110.0 14.4, 110.0 17.3 Q 110.0 20.3, 108.5 22.0 Q 107.0 23.6, 104.4 23.6 Q 101.7 23.6, 100.2 22.0 Q 98.8 20.3, 98.8 17.3 M 104.4 22.3 Q 106.2 22.3, 107.2 21.0 Q 108.2 19.8, 108.2 17.3 Q 108.2 14.9, 107.2 13.7 Q 106.2 12.5, 104.4 12.5 Q 102.5 12.5, 101.5 13.7 Q 100.5 14.9, 100.5 17.3 Q 100.5 19.8, 101.5 21.0 Q 102.5 22.3, 104.4 22.3 " fill="#FF0000"/>
<path class="atom-13" d="M 13.5 25.8 L 15.2 25.8 L 15.2 31.0 L 21.4 31.0 L 21.4 25.8 L 23.1 25.8 L 23.1 38.0 L 21.4 38.0 L 21.4 32.3 L 15.2 32.3 L 15.2 38.0 L 13.5 38.0 L 13.5 25.8 " fill="#FF0000"/>
<path class="atom-13" d="M 25.6 31.8 Q 25.6 28.9, 27.0 27.3 Q 28.5 25.6, 31.2 25.6 Q 33.9 25.6, 35.3 27.3 Q 36.8 28.9, 36.8 31.8 Q 36.8 34.8, 35.3 36.5 Q 33.9 38.2, 31.2 38.2 Q 28.5 38.2, 27.0 36.5 Q 25.6 34.8, 25.6 31.8 M 31.2 36.8 Q 33.1 36.8, 34.1 35.5 Q 35.1 34.3, 35.1 31.8 Q 35.1 29.4, 34.1 28.2 Q 33.1 27.0, 31.2 27.0 Q 29.3 27.0, 28.3 28.2 Q 27.3 29.4, 27.3 31.8 Q 27.3 34.3, 28.3 35.5 Q 29.3 36.8, 31.2 36.8 " fill="#FF0000"/>
<path class="atom-15" d="M 90.2 138.4 Q 90.2 135.5, 91.6 133.9 Q 93.1 132.2, 95.8 132.2 Q 98.5 132.2, 99.9 133.9 Q 101.4 135.5, 101.4 138.4 Q 101.4 141.4, 99.9 143.1 Q 98.5 144.7, 95.8 144.7 Q 93.1 144.7, 91.6 143.1 Q 90.2 141.4, 90.2 138.4 M 95.8 143.4 Q 97.6 143.4, 98.6 142.1 Q 99.7 140.9, 99.7 138.4 Q 99.7 136.0, 98.6 134.8 Q 97.6 133.6, 95.8 133.6 Q 93.9 133.6, 92.9 134.8 Q 91.9 136.0, 91.9 138.4 Q 91.9 140.9, 92.9 142.1 Q 93.9 143.4, 95.8 143.4 " fill="#FF0000"/>
<path class="atom-16" d="M 121.4 182.6 Q 121.4 179.6, 122.8 178.0 Q 124.3 176.4, 127.0 176.4 Q 129.7 176.4, 131.1 178.0 Q 132.6 179.6, 132.6 182.6 Q 132.6 185.5, 131.1 187.2 Q 129.7 188.9, 127.0 188.9 Q 124.3 188.9, 122.8 187.2 Q 121.4 185.6, 121.4 182.6 M 127.0 187.5 Q 128.8 187.5, 129.8 186.3 Q 130.9 185.0, 130.9 182.6 Q 130.9 180.2, 129.8 179.0 Q 128.8 177.7, 127.0 177.7 Q 125.1 177.7, 124.1 179.0 Q 123.1 180.2, 123.1 182.6 Q 123.1 185.0, 124.1 186.3 Q 125.1 187.5, 127.0 187.5 " fill="#FF0000"/>
<path class="atom-16" d="M 134.5 176.5 L 136.1 176.5 L 136.1 181.7 L 142.4 181.7 L 142.4 176.5 L 144.0 176.5 L 144.0 188.7 L 142.4 188.7 L 142.4 183.1 L 136.1 183.1 L 136.1 188.7 L 134.5 188.7 L 134.5 176.5 " fill="#FF0000"/>
</svg>
