<?xml version='1.0' encoding='ASCII' standalone='yes'?>
<svg xmlns="http://www.w3.org/2000/svg" xmlns:rdkit="http://www.rdkit.org/xml" xmlns:xlink="http://www.w3.org/1999/xlink" version="1.1" baseProfile="full" xml:space="preserve" width="293px" height="200px" viewBox="0 0 293 200">
<!-- END OF HEADER -->
<rect style="opacity:1.0;fill:#FFFFFF;stroke:none" width="293.0" height="200.0" x="0.0" y="0.0"> </rect>
<path class="bond-0 atom-0 atom-1" d="M 275.6,36.8 L 268.6,47.5" style="fill:none;fill-rule:evenodd;stroke:#191919;stroke-width:2.0px;stroke-linecap:butt;stroke-linejoin:miter;stroke-opacity:1"/>
<path class="bond-0 atom-0 atom-1" d="M 268.6,47.5 L 261.6,58.3" style="fill:none;fill-rule:evenodd;stroke:#000000;stroke-width:2.0px;stroke-linecap:butt;stroke-linejoin:miter;stroke-opacity:1"/>
<path class="bond-1 atom-1 atom-2" d="M 261.6,58.3 L 235.4,56.8" style="fill:none;fill-rule:evenodd;stroke:#000000;stroke-width:2.0px;stroke-linecap:butt;stroke-linejoin:miter;stroke-opacity:1"/>
<path class="bond-1 atom-1 atom-2" d="M 259.5,54.2 L 235.6,52.9" style="fill:none;fill-rule:evenodd;stroke:#000000;stroke-width:2.0px;stroke-linecap:butt;stroke-linejoin:miter;stroke-opacity:1"/>
<path class="bond-2 atom-2 atom-3" d="M 235.4,56.8 L 229.7,65.4" style="fill:none;fill-rule:evenodd;stroke:#000000;stroke-width:2.0px;stroke-linecap:butt;stroke-linejoin:miter;stroke-opacity:1"/>
<path class="bond-2 atom-2 atom-3" d="M 229.7,65.4 L 224.1,74.1" style="fill:none;fill-rule:evenodd;stroke:#FF0000;stroke-width:2.0px;stroke-linecap:butt;stroke-linejoin:miter;stroke-opacity:1"/>
<path class="bond-3 atom-3 atom-4" d="M 216.8,78.5 L 205.9,77.8" style="fill:none;fill-rule:evenodd;stroke:#FF0000;stroke-width:2.0px;stroke-linecap:butt;stroke-linejoin:miter;stroke-opacity:1"/>
<path class="bond-3 atom-3 atom-4" d="M 205.9,77.8 L 194.9,77.2" style="fill:none;fill-rule:evenodd;stroke:#000000;stroke-width:2.0px;stroke-linecap:butt;stroke-linejoin:miter;stroke-opacity:1"/>
<path class="bond-4 atom-4 atom-5" d="M 194.9,77.2 L 180.6,99.1" style="fill:none;fill-rule:evenodd;stroke:#000000;stroke-width:2.0px;stroke-linecap:butt;stroke-linejoin:miter;stroke-opacity:1"/>
<path class="bond-5 atom-5 atom-6" d="M 180.6,99.1 L 154.4,97.7" style="fill:none;fill-rule:evenodd;stroke:#000000;stroke-width:2.0px;stroke-linecap:butt;stroke-linejoin:miter;stroke-opacity:1"/>
<path class="bond-6 atom-6 atom-7" d="M 154.4,97.7 L 148.8,106.3" style="fill:none;fill-rule:evenodd;stroke:#000000;stroke-width:2.0px;stroke-linecap:butt;stroke-linejoin:miter;stroke-opacity:1"/>
<path class="bond-6 atom-6 atom-7" d="M 148.8,106.3 L 143.1,115.0" style="fill:none;fill-rule:evenodd;stroke:#FF0000;stroke-width:2.0px;stroke-linecap:butt;stroke-linejoin:miter;stroke-opacity:1"/>
<path class="bond-7 atom-7 atom-8" d="M 135.8,119.3 L 126.5,118.8" style="fill:none;fill-rule:evenodd;stroke:#FF0000;stroke-width:2.0px;stroke-linecap:butt;stroke-linejoin:miter;stroke-opacity:1"/>
<path class="bond-7 atom-7 atom-8" d="M 126.5,118.8 L 117.2,118.3" style="fill:none;fill-rule:evenodd;stroke:#FF7F00;stroke-width:2.0px;stroke-linecap:butt;stroke-linejoin:miter;stroke-opacity:1"/>
<path class="bond-8 atom-8 atom-9" d="M 111.7,122.6 L 111.2,131.1" style="fill:none;fill-rule:evenodd;stroke:#FF7F00;stroke-width:2.0px;stroke-linecap:butt;stroke-linejoin:miter;stroke-opacity:1"/>
<path class="bond-8 atom-8 atom-9" d="M 111.2,131.1 L 110.8,139.5" style="fill:none;fill-rule:evenodd;stroke:#FF0000;stroke-width:2.0px;stroke-linecap:butt;stroke-linejoin:miter;stroke-opacity:1"/>
<path class="bond-8 atom-8 atom-9" d="M 115.6,122.8 L 115.2,131.3" style="fill:none;fill-rule:evenodd;stroke:#FF7F00;stroke-width:2.0px;stroke-linecap:butt;stroke-linejoin:miter;stroke-opacity:1"/>
<path class="bond-8 atom-8 atom-9" d="M 115.2,131.3 L 114.7,139.8" style="fill:none;fill-rule:evenodd;stroke:#FF0000;stroke-width:2.0px;stroke-linecap:butt;stroke-linejoin:miter;stroke-opacity:1"/>
<path class="bond-9 atom-8 atom-10" d="M 114.2,113.5 L 114.7,105.1" style="fill:none;fill-rule:evenodd;stroke:#FF7F00;stroke-width:2.0px;stroke-linecap:butt;stroke-linejoin:miter;stroke-opacity:1"/>
<path class="bond-9 atom-8 atom-10" d="M 114.7,105.1 L 115.1,96.7" style="fill:none;fill-rule:evenodd;stroke:#FF0000;stroke-width:2.0px;stroke-linecap:butt;stroke-linejoin:miter;stroke-opacity:1"/>
<path class="bond-10 atom-8 atom-11" d="M 110.7,117.9 L 101.4,117.4" style="fill:none;fill-rule:evenodd;stroke:#FF7F00;stroke-width:2.0px;stroke-linecap:butt;stroke-linejoin:miter;stroke-opacity:1"/>
<path class="bond-10 atom-8 atom-11" d="M 101.4,117.4 L 92.0,116.9" style="fill:none;fill-rule:evenodd;stroke:#FF0000;stroke-width:2.0px;stroke-linecap:butt;stroke-linejoin:miter;stroke-opacity:1"/>
<path class="bond-11 atom-11 atom-12" d="M 85.5,112.0 L 80.7,102.6" style="fill:none;fill-rule:evenodd;stroke:#FF0000;stroke-width:2.0px;stroke-linecap:butt;stroke-linejoin:miter;stroke-opacity:1"/>
<path class="bond-11 atom-11 atom-12" d="M 80.7,102.6 L 76.0,93.3" style="fill:none;fill-rule:evenodd;stroke:#000000;stroke-width:2.0px;stroke-linecap:butt;stroke-linejoin:miter;stroke-opacity:1"/>
<path class="bond-12 atom-12 atom-13" d="M 76.0,93.3 L 49.8,91.8" style="fill:none;fill-rule:evenodd;stroke:#000000;stroke-width:2.0px;stroke-linecap:butt;stroke-linejoin:miter;stroke-opacity:1"/>
<path class="bond-13 atom-13 atom-14" d="M 49.8,91.8 L 45.1,82.4" style="fill:none;fill-rule:evenodd;stroke:#000000;stroke-width:2.0px;stroke-linecap:butt;stroke-linejoin:miter;stroke-opacity:1"/>
<path class="bond-13 atom-13 atom-14" d="M 45.1,82.4 L 40.3,73.0" style="fill:none;fill-rule:evenodd;stroke:#0000FF;stroke-width:2.0px;stroke-linecap:butt;stroke-linejoin:miter;stroke-opacity:1"/>
<path class="bond-14 atom-14 atom-15" d="M 34.4,70.3 L 24.5,75.2" style="fill:none;fill-rule:evenodd;stroke:#0000FF;stroke-width:2.0px;stroke-linecap:butt;stroke-linejoin:miter;stroke-opacity:1"/>
<path class="bond-14 atom-14 atom-15" d="M 24.5,75.2 L 14.7,80.2" style="fill:none;fill-rule:evenodd;stroke:#000000;stroke-width:2.0px;stroke-linecap:butt;stroke-linejoin:miter;stroke-opacity:1"/>
<path class="bond-15 atom-14 atom-16" d="M 46.3,64.2 L 53.9,60.4" style="fill:none;fill-rule:evenodd;stroke:#0000FF;stroke-width:2.0px;stroke-linecap:butt;stroke-linejoin:miter;stroke-opacity:1"/>
<path class="bond-15 atom-14 atom-16" d="M 53.9,60.4 L 61.4,56.6" style="fill:none;fill-rule:evenodd;stroke:#000000;stroke-width:2.0px;stroke-linecap:butt;stroke-linejoin:miter;stroke-opacity:1"/>
<path class="bond-16 atom-14 atom-17" d="M 35.7,63.8 L 31.0,54.4" style="fill:none;fill-rule:evenodd;stroke:#0000FF;stroke-width:2.0px;stroke-linecap:butt;stroke-linejoin:miter;stroke-opacity:1"/>
<path class="bond-16 atom-14 atom-17" d="M 31.0,54.4 L 26.2,45.0" style="fill:none;fill-rule:evenodd;stroke:#000000;stroke-width:2.0px;stroke-linecap:butt;stroke-linejoin:miter;stroke-opacity:1"/>
<path class="bond-17 atom-5 atom-18" d="M 180.6,99.1 L 185.3,108.5" style="fill:none;fill-rule:evenodd;stroke:#000000;stroke-width:2.0px;stroke-linecap:butt;stroke-linejoin:miter;stroke-opacity:1"/>
<path class="bond-17 atom-5 atom-18" d="M 185.3,108.5 L 190.0,117.9" style="fill:none;fill-rule:evenodd;stroke:#FF0000;stroke-width:2.0px;stroke-linecap:butt;stroke-linejoin:miter;stroke-opacity:1"/>
<path class="bond-18 atom-18 atom-19" d="M 189.3,127.2 L 183.6,135.8" style="fill:none;fill-rule:evenodd;stroke:#FF0000;stroke-width:2.0px;stroke-linecap:butt;stroke-linejoin:miter;stroke-opacity:1"/>
<path class="bond-18 atom-18 atom-19" d="M 183.6,135.8 L 178.0,144.4" style="fill:none;fill-rule:evenodd;stroke:#000000;stroke-width:2.0px;stroke-linecap:butt;stroke-linejoin:miter;stroke-opacity:1"/>
<path class="bond-19 atom-19 atom-20" d="M 178.0,144.4 L 182.8,153.8" style="fill:none;fill-rule:evenodd;stroke:#000000;stroke-width:2.0px;stroke-linecap:butt;stroke-linejoin:miter;stroke-opacity:1"/>
<path class="bond-19 atom-19 atom-20" d="M 182.8,153.8 L 187.5,163.2" style="fill:none;fill-rule:evenodd;stroke:#191919;stroke-width:2.0px;stroke-linecap:butt;stroke-linejoin:miter;stroke-opacity:1"/>
<path class="bond-20 atom-19 atom-21" d="M 179.3,142.5 L 167.8,141.9" style="fill:none;fill-rule:evenodd;stroke:#000000;stroke-width:2.0px;stroke-linecap:butt;stroke-linejoin:miter;stroke-opacity:1"/>
<path class="bond-20 atom-19 atom-21" d="M 167.8,141.9 L 156.3,141.2" style="fill:none;fill-rule:evenodd;stroke:#FF0000;stroke-width:2.0px;stroke-linecap:butt;stroke-linejoin:miter;stroke-opacity:1"/>
<path class="bond-20 atom-19 atom-21" d="M 179.0,146.5 L 167.5,145.8" style="fill:none;fill-rule:evenodd;stroke:#000000;stroke-width:2.0px;stroke-linecap:butt;stroke-linejoin:miter;stroke-opacity:1"/>
<path class="bond-20 atom-19 atom-21" d="M 167.5,145.8 L 156.0,145.2" style="fill:none;fill-rule:evenodd;stroke:#FF0000;stroke-width:2.0px;stroke-linecap:butt;stroke-linejoin:miter;stroke-opacity:1"/>
<path d="M 261.9,57.7 L 261.6,58.3 L 260.2,58.2" style="fill:none;stroke:#000000;stroke-width:2.0px;stroke-linecap:butt;stroke-linejoin:miter;stroke-opacity:1;"/>
<path d="M 236.7,56.9 L 235.4,56.8 L 235.1,57.2" style="fill:none;stroke:#000000;stroke-width:2.0px;stroke-linecap:butt;stroke-linejoin:miter;stroke-opacity:1;"/>
<path d="M 195.5,77.3 L 194.9,77.2 L 194.2,78.3" style="fill:none;stroke:#000000;stroke-width:2.0px;stroke-linecap:butt;stroke-linejoin:miter;stroke-opacity:1;"/>
<path d="M 155.7,97.7 L 154.4,97.7 L 154.1,98.1" style="fill:none;stroke:#000000;stroke-width:2.0px;stroke-linecap:butt;stroke-linejoin:miter;stroke-opacity:1;"/>
<path d="M 76.2,93.7 L 76.0,93.3 L 74.7,93.2" style="fill:none;stroke:#000000;stroke-width:2.0px;stroke-linecap:butt;stroke-linejoin:miter;stroke-opacity:1;"/>
<path d="M 51.1,91.9 L 49.8,91.8 L 49.6,91.3" style="fill:none;stroke:#000000;stroke-width:2.0px;stroke-linecap:butt;stroke-linejoin:miter;stroke-opacity:1;"/>
<path d="M 178.3,144.0 L 178.0,144.4 L 178.3,144.9" style="fill:none;stroke:#000000;stroke-width:2.0px;stroke-linecap:butt;stroke-linejoin:miter;stroke-opacity:1;"/>
<path class="atom-0" d="M 274.5 35.5 L 275.6 34.4 L 274.1 34.1 L 274.4 33.4 L 275.7 34.0 L 275.5 32.6 L 276.3 32.6 L 276.1 34.0 L 277.4 33.4 L 277.6 34.1 L 276.2 34.4 L 277.2 35.5 L 276.6 36.0 L 275.9 34.6 L 275.1 36.0 L 274.5 35.5 " fill="#191919"/>
<path class="atom-3" d="M 217.7 78.7 Q 217.7 76.9, 218.5 75.9 Q 219.4 74.9, 221.1 74.9 Q 222.7 74.9, 223.6 75.9 Q 224.5 76.9, 224.5 78.7 Q 224.5 80.5, 223.6 81.5 Q 222.7 82.6, 221.1 82.6 Q 219.4 82.6, 218.5 81.5 Q 217.7 80.5, 217.7 78.7 M 221.1 81.7 Q 222.2 81.7, 222.8 81.0 Q 223.4 80.2, 223.4 78.7 Q 223.4 77.3, 222.8 76.5 Q 222.2 75.8, 221.1 75.8 Q 219.9 75.8, 219.3 76.5 Q 218.7 77.3, 218.7 78.7 Q 218.7 80.2, 219.3 81.0 Q 219.9 81.7, 221.1 81.7 " fill="#FF0000"/>
<path class="atom-7" d="M 136.7 119.6 Q 136.7 117.8, 137.5 116.8 Q 138.4 115.8, 140.1 115.8 Q 141.7 115.8, 142.6 116.8 Q 143.5 117.8, 143.5 119.6 Q 143.5 121.4, 142.6 122.4 Q 141.7 123.4, 140.1 123.4 Q 138.4 123.4, 137.5 122.4 Q 136.7 121.4, 136.7 119.6 M 140.1 122.6 Q 141.2 122.6, 141.8 121.9 Q 142.4 121.1, 142.4 119.6 Q 142.4 118.1, 141.8 117.4 Q 141.2 116.7, 140.1 116.7 Q 138.9 116.7, 138.3 117.4 Q 137.7 118.1, 137.7 119.6 Q 137.7 121.1, 138.3 121.9 Q 138.9 122.6, 140.1 122.6 " fill="#FF0000"/>
<path class="atom-8" d="M 113.7 114.4 Q 115.0 114.4, 115.7 115.0 Q 116.3 115.5, 116.3 116.6 Q 116.3 117.6, 115.6 118.2 Q 115.0 118.8, 113.7 118.8 L 112.6 118.8 L 112.6 121.8 L 111.6 121.8 L 111.6 114.4 L 113.7 114.4 M 113.7 117.9 Q 114.5 117.9, 114.9 117.6 Q 115.2 117.2, 115.2 116.6 Q 115.2 115.9, 114.9 115.6 Q 114.5 115.2, 113.7 115.2 L 112.6 115.2 L 112.6 117.9 L 113.7 117.9 " fill="#FF7F00"/>
<path class="atom-9" d="M 109.1 144.3 Q 109.1 142.5, 109.9 141.5 Q 110.8 140.5, 112.5 140.5 Q 114.1 140.5, 115.0 141.5 Q 115.9 142.5, 115.9 144.3 Q 115.9 146.1, 115.0 147.1 Q 114.1 148.1, 112.5 148.1 Q 110.8 148.1, 109.9 147.1 Q 109.1 146.1, 109.1 144.3 M 112.5 147.3 Q 113.6 147.3, 114.2 146.5 Q 114.8 145.8, 114.8 144.3 Q 114.8 142.8, 114.2 142.1 Q 113.6 141.3, 112.5 141.3 Q 111.3 141.3, 110.7 142.1 Q 110.1 142.8, 110.1 144.3 Q 110.1 145.8, 110.7 146.5 Q 111.3 147.3, 112.5 147.3 " fill="#FF0000"/>
<path class="atom-10" d="M 112.0 92.0 Q 112.0 90.2, 112.9 89.2 Q 113.8 88.2, 115.4 88.2 Q 117.0 88.2, 117.9 89.2 Q 118.8 90.2, 118.8 92.0 Q 118.8 93.8, 117.9 94.8 Q 117.0 95.8, 115.4 95.8 Q 113.8 95.8, 112.9 94.8 Q 112.0 93.8, 112.0 92.0 M 115.4 95.0 Q 116.5 95.0, 117.1 94.2 Q 117.8 93.5, 117.8 92.0 Q 117.8 90.5, 117.1 89.8 Q 116.5 89.1, 115.4 89.1 Q 114.3 89.1, 113.6 89.8 Q 113.0 90.5, 113.0 92.0 Q 113.0 93.5, 113.6 94.2 Q 114.3 95.0, 115.4 95.0 " fill="#FF0000"/>
<path class="atom-10" d="M 120.0 88.3 L 121.0 88.3 L 121.0 91.5 L 124.8 91.5 L 124.8 88.3 L 125.8 88.3 L 125.8 95.7 L 124.8 95.7 L 124.8 92.3 L 121.0 92.3 L 121.0 95.7 L 120.0 95.7 L 120.0 88.3 " fill="#FF0000"/>
<path class="atom-11" d="M 84.4 116.7 Q 84.4 114.9, 85.3 113.9 Q 86.1 112.9, 87.8 112.9 Q 89.4 112.9, 90.3 113.9 Q 91.2 114.9, 91.2 116.7 Q 91.2 118.5, 90.3 119.5 Q 89.4 120.5, 87.8 120.5 Q 86.1 120.5, 85.3 119.5 Q 84.4 118.5, 84.4 116.7 M 87.8 119.7 Q 88.9 119.7, 89.5 118.9 Q 90.1 118.2, 90.1 116.7 Q 90.1 115.2, 89.5 114.5 Q 88.9 113.7, 87.8 113.7 Q 86.6 113.7, 86.0 114.5 Q 85.4 115.2, 85.4 116.7 Q 85.4 118.2, 86.0 118.9 Q 86.6 119.7, 87.8 119.7 " fill="#FF0000"/>
<path class="atom-14" d="M 36.4 64.7 L 38.8 68.6 Q 39.1 69.0, 39.4 69.7 Q 39.8 70.4, 39.9 70.5 L 39.9 64.7 L 40.8 64.7 L 40.8 72.1 L 39.8 72.1 L 37.2 67.8 Q 36.9 67.3, 36.6 66.8 Q 36.3 66.2, 36.2 66.0 L 36.2 72.1 L 35.2 72.1 L 35.2 64.7 L 36.4 64.7 " fill="#0000FF"/>
<path class="atom-14" d="M 42.2 66.0 L 43.5 66.0 L 43.5 64.7 L 44.1 64.7 L 44.1 66.0 L 45.5 66.0 L 45.5 66.5 L 44.1 66.5 L 44.1 67.9 L 43.5 67.9 L 43.5 66.5 L 42.2 66.5 L 42.2 66.0 " fill="#0000FF"/>
<path class="atom-18" d="M 189.0 122.5 Q 189.0 120.8, 189.8 119.8 Q 190.7 118.8, 192.4 118.8 Q 194.0 118.8, 194.9 119.8 Q 195.8 120.8, 195.8 122.5 Q 195.8 124.3, 194.9 125.4 Q 194.0 126.4, 192.4 126.4 Q 190.7 126.4, 189.8 125.4 Q 189.0 124.3, 189.0 122.5 M 192.4 125.5 Q 193.5 125.5, 194.1 124.8 Q 194.7 124.0, 194.7 122.5 Q 194.7 121.1, 194.1 120.3 Q 193.5 119.6, 192.4 119.6 Q 191.2 119.6, 190.6 120.3 Q 190.0 121.1, 190.0 122.5 Q 190.0 124.0, 190.6 124.8 Q 191.2 125.5, 192.4 125.5 " fill="#FF0000"/>
<path class="atom-20" d="M 188.4 167.0 L 189.5 165.9 L 188.1 165.6 L 188.3 164.8 L 189.6 165.5 L 189.4 164.0 L 190.2 164.0 L 190.0 165.5 L 191.3 164.9 L 191.6 165.6 L 190.1 165.8 L 191.2 167.0 L 190.5 167.4 L 189.8 166.0 L 189.1 167.4 L 188.4 167.0 " fill="#191919"/>
<path class="atom-21" d="M 148.5 143.0 Q 148.5 141.2, 149.4 140.2 Q 150.2 139.2, 151.9 139.2 Q 153.5 139.2, 154.4 140.2 Q 155.3 141.2, 155.3 143.0 Q 155.3 144.8, 154.4 145.8 Q 153.5 146.8, 151.9 146.8 Q 150.2 146.8, 149.4 145.8 Q 148.5 144.8, 148.5 143.0 M 151.9 146.0 Q 153.0 146.0, 153.6 145.2 Q 154.2 144.5, 154.2 143.0 Q 154.2 141.5, 153.6 140.8 Q 153.0 140.0, 151.9 140.0 Q 150.7 140.0, 150.1 140.8 Q 149.5 141.5, 149.5 143.0 Q 149.5 144.5, 150.1 145.2 Q 150.7 146.0, 151.9 146.0 " fill="#FF0000"/>
</svg>
