<?xml version='1.0' encoding='ASCII' standalone='yes'?>
<svg xmlns="http://www.w3.org/2000/svg" xmlns:rdkit="http://www.rdkit.org/xml" xmlns:xlink="http://www.w3.org/1999/xlink" version="1.1" baseProfile="full" xml:space="preserve" width="331px" height="200px" viewBox="0 0 331 200">
<!-- END OF HEADER -->
<rect style="opacity:1.0;fill:#FFFFFF;stroke:none" width="331.0" height="200.0" x="0.0" y="0.0"> </rect>
<path class="bond-0 atom-0 atom-1" d="M 312.4,68.1 L 313.6,90.6" style="fill:none;fill-rule:evenodd;stroke:#000000;stroke-width:2.0px;stroke-linecap:butt;stroke-linejoin:miter;stroke-opacity:1"/>
<path class="bond-1 atom-1 atom-2" d="M 313.6,90.6 L 294.6,102.8" style="fill:none;fill-rule:evenodd;stroke:#000000;stroke-width:2.0px;stroke-linecap:butt;stroke-linejoin:miter;stroke-opacity:1"/>
<path class="bond-2 atom-2 atom-3" d="M 294.6,102.8 L 282.4,83.8" style="fill:none;fill-rule:evenodd;stroke:#000000;stroke-width:2.0px;stroke-linecap:butt;stroke-linejoin:miter;stroke-opacity:1"/>
<path class="bond-3 atom-2 atom-4" d="M 294.6,102.8 L 306.8,121.8" style="fill:none;fill-rule:evenodd;stroke:#000000;stroke-width:2.0px;stroke-linecap:butt;stroke-linejoin:miter;stroke-opacity:1"/>
<path class="bond-4 atom-2 atom-5" d="M 294.6,102.8 L 275.6,115.0" style="fill:none;fill-rule:evenodd;stroke:#000000;stroke-width:2.0px;stroke-linecap:butt;stroke-linejoin:miter;stroke-opacity:1"/>
<path class="bond-5 atom-5 atom-6" d="M 275.6,115.0 L 255.6,104.7" style="fill:none;fill-rule:evenodd;stroke:#000000;stroke-width:2.0px;stroke-linecap:butt;stroke-linejoin:miter;stroke-opacity:1"/>
<path class="bond-6 atom-6 atom-7" d="M 255.6,104.7 L 236.6,116.9" style="fill:none;fill-rule:evenodd;stroke:#000000;stroke-width:2.0px;stroke-linecap:butt;stroke-linejoin:miter;stroke-opacity:1"/>
<path class="bond-7 atom-7 atom-8" d="M 236.6,116.9 L 216.6,106.6" style="fill:none;fill-rule:evenodd;stroke:#000000;stroke-width:2.0px;stroke-linecap:butt;stroke-linejoin:miter;stroke-opacity:1"/>
<path class="bond-8 atom-8 atom-9" d="M 216.6,106.6 L 226.9,86.6" style="fill:none;fill-rule:evenodd;stroke:#000000;stroke-width:2.0px;stroke-linecap:butt;stroke-linejoin:miter;stroke-opacity:1"/>
<path class="bond-9 atom-8 atom-10" d="M 216.6,106.6 L 206.3,126.7" style="fill:none;fill-rule:evenodd;stroke:#000000;stroke-width:2.0px;stroke-linecap:butt;stroke-linejoin:miter;stroke-opacity:1"/>
<path class="bond-10 atom-10 atom-11" d="M 206.3,126.7 L 183.7,127.8" style="fill:none;fill-rule:evenodd;stroke:#000000;stroke-width:2.0px;stroke-linecap:butt;stroke-linejoin:miter;stroke-opacity:1"/>
<path class="bond-11 atom-8 atom-12" d="M 216.6,106.6 L 196.5,96.3" style="fill:none;fill-rule:evenodd;stroke:#000000;stroke-width:2.0px;stroke-linecap:butt;stroke-linejoin:miter;stroke-opacity:1"/>
<path class="bond-12 atom-12 atom-13" d="M 196.5,96.3 L 195.4,73.8" style="fill:none;fill-rule:evenodd;stroke:#000000;stroke-width:2.0px;stroke-linecap:butt;stroke-linejoin:miter;stroke-opacity:1"/>
<path class="bond-13 atom-13 atom-14" d="M 195.4,73.8 L 175.4,63.5" style="fill:none;fill-rule:evenodd;stroke:#000000;stroke-width:2.0px;stroke-linecap:butt;stroke-linejoin:miter;stroke-opacity:1"/>
<path class="bond-14 atom-14 atom-15" d="M 175.4,63.5 L 185.7,43.4" style="fill:none;fill-rule:evenodd;stroke:#000000;stroke-width:2.0px;stroke-linecap:butt;stroke-linejoin:miter;stroke-opacity:1"/>
<path class="bond-15 atom-14 atom-16" d="M 175.4,63.5 L 165.1,83.5" style="fill:none;fill-rule:evenodd;stroke:#000000;stroke-width:2.0px;stroke-linecap:butt;stroke-linejoin:miter;stroke-opacity:1"/>
<path class="bond-16 atom-16 atom-17" d="M 165.1,83.5 L 142.5,84.6" style="fill:none;fill-rule:evenodd;stroke:#000000;stroke-width:2.0px;stroke-linecap:butt;stroke-linejoin:miter;stroke-opacity:1"/>
<path class="bond-17 atom-14 atom-18" d="M 175.4,63.5 L 155.3,53.2" style="fill:none;fill-rule:evenodd;stroke:#000000;stroke-width:2.0px;stroke-linecap:butt;stroke-linejoin:miter;stroke-opacity:1"/>
<path class="bond-18 atom-18 atom-19" d="M 155.3,53.2 L 136.3,65.4" style="fill:none;fill-rule:evenodd;stroke:#000000;stroke-width:2.0px;stroke-linecap:butt;stroke-linejoin:miter;stroke-opacity:1"/>
<path class="bond-19 atom-19 atom-20" d="M 136.3,65.4 L 116.3,55.1" style="fill:none;fill-rule:evenodd;stroke:#000000;stroke-width:2.0px;stroke-linecap:butt;stroke-linejoin:miter;stroke-opacity:1"/>
<path class="bond-20 atom-20 atom-21" d="M 116.3,55.1 L 97.3,67.3" style="fill:none;fill-rule:evenodd;stroke:#000000;stroke-width:2.0px;stroke-linecap:butt;stroke-linejoin:miter;stroke-opacity:1"/>
<path class="bond-21 atom-21 atom-22" d="M 97.3,67.3 L 109.6,86.2" style="fill:none;fill-rule:evenodd;stroke:#000000;stroke-width:2.0px;stroke-linecap:butt;stroke-linejoin:miter;stroke-opacity:1"/>
<path class="bond-22 atom-21 atom-23" d="M 97.3,67.3 L 85.1,48.3" style="fill:none;fill-rule:evenodd;stroke:#000000;stroke-width:2.0px;stroke-linecap:butt;stroke-linejoin:miter;stroke-opacity:1"/>
<path class="bond-23 atom-23 atom-24" d="M 85.1,48.3 L 62.6,49.4" style="fill:none;fill-rule:evenodd;stroke:#000000;stroke-width:2.0px;stroke-linecap:butt;stroke-linejoin:miter;stroke-opacity:1"/>
<path class="bond-24 atom-21 atom-25" d="M 97.3,67.3 L 78.4,79.5" style="fill:none;fill-rule:evenodd;stroke:#000000;stroke-width:2.0px;stroke-linecap:butt;stroke-linejoin:miter;stroke-opacity:1"/>
<path class="bond-25 atom-25 atom-26" d="M 78.4,79.5 L 79.5,102.0" style="fill:none;fill-rule:evenodd;stroke:#000000;stroke-width:2.0px;stroke-linecap:butt;stroke-linejoin:miter;stroke-opacity:1"/>
<path class="bond-26 atom-26 atom-27" d="M 79.5,102.0 L 60.5,114.2" style="fill:none;fill-rule:evenodd;stroke:#000000;stroke-width:2.0px;stroke-linecap:butt;stroke-linejoin:miter;stroke-opacity:1"/>
<path class="bond-27 atom-27 atom-28" d="M 60.5,114.2 L 41.6,126.5" style="fill:none;fill-rule:evenodd;stroke:#000000;stroke-width:2.0px;stroke-linecap:butt;stroke-linejoin:miter;stroke-opacity:1"/>
<path class="bond-28 atom-27 atom-29" d="M 60.5,114.2 L 48.3,95.3" style="fill:none;fill-rule:evenodd;stroke:#000000;stroke-width:2.0px;stroke-linecap:butt;stroke-linejoin:miter;stroke-opacity:1"/>
<path class="bond-29 atom-29 atom-30" d="M 48.3,95.3 L 38.9,95.7" style="fill:none;fill-rule:evenodd;stroke:#000000;stroke-width:2.0px;stroke-linecap:butt;stroke-linejoin:miter;stroke-opacity:1"/>
<path class="bond-29 atom-29 atom-30" d="M 38.9,95.7 L 29.5,96.2" style="fill:none;fill-rule:evenodd;stroke:#FF0000;stroke-width:2.0px;stroke-linecap:butt;stroke-linejoin:miter;stroke-opacity:1"/>
<path class="bond-30 atom-27 atom-31" d="M 60.5,114.2 L 72.7,133.2" style="fill:none;fill-rule:evenodd;stroke:#000000;stroke-width:2.0px;stroke-linecap:butt;stroke-linejoin:miter;stroke-opacity:1"/>
<path class="bond-31 atom-31 atom-32" d="M 71.8,134.9 L 81.8,134.5" style="fill:none;fill-rule:evenodd;stroke:#000000;stroke-width:2.0px;stroke-linecap:butt;stroke-linejoin:miter;stroke-opacity:1"/>
<path class="bond-31 atom-31 atom-32" d="M 81.8,134.5 L 91.7,134.0" style="fill:none;fill-rule:evenodd;stroke:#FF0000;stroke-width:2.0px;stroke-linecap:butt;stroke-linejoin:miter;stroke-opacity:1"/>
<path class="bond-31 atom-31 atom-32" d="M 71.7,131.6 L 81.6,131.1" style="fill:none;fill-rule:evenodd;stroke:#000000;stroke-width:2.0px;stroke-linecap:butt;stroke-linejoin:miter;stroke-opacity:1"/>
<path class="bond-31 atom-31 atom-32" d="M 81.6,131.1 L 91.5,130.6" style="fill:none;fill-rule:evenodd;stroke:#FF0000;stroke-width:2.0px;stroke-linecap:butt;stroke-linejoin:miter;stroke-opacity:1"/>
<path class="bond-32 atom-31 atom-33" d="M 72.7,133.2 L 68.6,141.2" style="fill:none;fill-rule:evenodd;stroke:#000000;stroke-width:2.0px;stroke-linecap:butt;stroke-linejoin:miter;stroke-opacity:1"/>
<path class="bond-32 atom-31 atom-33" d="M 68.6,141.2 L 64.5,149.3" style="fill:none;fill-rule:evenodd;stroke:#FF0000;stroke-width:2.0px;stroke-linecap:butt;stroke-linejoin:miter;stroke-opacity:1"/>
<path d="M 313.5,89.5 L 313.6,90.6 L 312.6,91.2" style="fill:none;stroke:#000000;stroke-width:2.0px;stroke-linecap:butt;stroke-linejoin:miter;stroke-opacity:1;"/>
<path d="M 276.6,114.4 L 275.6,115.0 L 274.6,114.5" style="fill:none;stroke:#000000;stroke-width:2.0px;stroke-linecap:butt;stroke-linejoin:miter;stroke-opacity:1;"/>
<path d="M 256.6,105.2 L 255.6,104.7 L 254.6,105.3" style="fill:none;stroke:#000000;stroke-width:2.0px;stroke-linecap:butt;stroke-linejoin:miter;stroke-opacity:1;"/>
<path d="M 237.6,116.3 L 236.6,116.9 L 235.6,116.4" style="fill:none;stroke:#000000;stroke-width:2.0px;stroke-linecap:butt;stroke-linejoin:miter;stroke-opacity:1;"/>
<path d="M 206.8,125.7 L 206.3,126.7 L 205.1,126.7" style="fill:none;stroke:#000000;stroke-width:2.0px;stroke-linecap:butt;stroke-linejoin:miter;stroke-opacity:1;"/>
<path d="M 197.5,96.8 L 196.5,96.3 L 196.5,95.2" style="fill:none;stroke:#000000;stroke-width:2.0px;stroke-linecap:butt;stroke-linejoin:miter;stroke-opacity:1;"/>
<path d="M 195.5,74.9 L 195.4,73.8 L 194.4,73.3" style="fill:none;stroke:#000000;stroke-width:2.0px;stroke-linecap:butt;stroke-linejoin:miter;stroke-opacity:1;"/>
<path d="M 165.6,82.5 L 165.1,83.5 L 163.9,83.6" style="fill:none;stroke:#000000;stroke-width:2.0px;stroke-linecap:butt;stroke-linejoin:miter;stroke-opacity:1;"/>
<path d="M 156.3,53.7 L 155.3,53.2 L 154.4,53.8" style="fill:none;stroke:#000000;stroke-width:2.0px;stroke-linecap:butt;stroke-linejoin:miter;stroke-opacity:1;"/>
<path d="M 137.3,64.8 L 136.3,65.4 L 135.3,64.9" style="fill:none;stroke:#000000;stroke-width:2.0px;stroke-linecap:butt;stroke-linejoin:miter;stroke-opacity:1;"/>
<path d="M 117.3,55.6 L 116.3,55.1 L 115.3,55.7" style="fill:none;stroke:#000000;stroke-width:2.0px;stroke-linecap:butt;stroke-linejoin:miter;stroke-opacity:1;"/>
<path d="M 85.7,49.3 L 85.1,48.3 L 84.0,48.4" style="fill:none;stroke:#000000;stroke-width:2.0px;stroke-linecap:butt;stroke-linejoin:miter;stroke-opacity:1;"/>
<path d="M 79.3,78.9 L 78.4,79.5 L 78.4,80.6" style="fill:none;stroke:#000000;stroke-width:2.0px;stroke-linecap:butt;stroke-linejoin:miter;stroke-opacity:1;"/>
<path d="M 79.4,100.9 L 79.5,102.0 L 78.5,102.6" style="fill:none;stroke:#000000;stroke-width:2.0px;stroke-linecap:butt;stroke-linejoin:miter;stroke-opacity:1;"/>
<path d="M 48.9,96.2 L 48.3,95.3 L 47.8,95.3" style="fill:none;stroke:#000000;stroke-width:2.0px;stroke-linecap:butt;stroke-linejoin:miter;stroke-opacity:1;"/>
<path d="M 72.1,132.3 L 72.7,133.2 L 72.5,133.6" style="fill:none;stroke:#000000;stroke-width:2.0px;stroke-linecap:butt;stroke-linejoin:miter;stroke-opacity:1;"/>
<path class="atom-30" d="M 16.6 93.2 L 17.4 93.2 L 17.4 95.9 L 20.7 95.9 L 20.7 93.2 L 21.5 93.2 L 21.5 99.6 L 20.7 99.6 L 20.7 96.7 L 17.4 96.7 L 17.4 99.6 L 16.6 99.6 L 16.6 93.2 " fill="#FF0000"/>
<path class="atom-30" d="M 22.9 96.4 Q 22.9 94.9, 23.6 94.0 Q 24.4 93.2, 25.8 93.2 Q 27.2 93.2, 28.0 94.0 Q 28.7 94.9, 28.7 96.4 Q 28.7 98.0, 28.0 98.8 Q 27.2 99.7, 25.8 99.7 Q 24.4 99.7, 23.6 98.8 Q 22.9 98.0, 22.9 96.4 M 25.8 99.0 Q 26.8 99.0, 27.3 98.3 Q 27.8 97.7, 27.8 96.4 Q 27.8 95.2, 27.3 94.5 Q 26.8 93.9, 25.8 93.9 Q 24.8 93.9, 24.3 94.5 Q 23.8 95.1, 23.8 96.4 Q 23.8 97.7, 24.3 98.3 Q 24.8 99.0, 25.8 99.0 " fill="#FF0000"/>
<path class="atom-32" d="M 92.3 132.1 Q 92.3 130.6, 93.1 129.7 Q 93.8 128.9, 95.3 128.9 Q 96.7 128.9, 97.4 129.7 Q 98.2 130.6, 98.2 132.1 Q 98.2 133.7, 97.4 134.6 Q 96.7 135.4, 95.3 135.4 Q 93.9 135.4, 93.1 134.6 Q 92.3 133.7, 92.3 132.1 M 95.3 134.7 Q 96.2 134.7, 96.8 134.1 Q 97.3 133.4, 97.3 132.1 Q 97.3 130.9, 96.8 130.2 Q 96.2 129.6, 95.3 129.6 Q 94.3 129.6, 93.8 130.2 Q 93.2 130.9, 93.2 132.1 Q 93.2 133.4, 93.8 134.1 Q 94.3 134.7, 95.3 134.7 " fill="#FF0000"/>
<path class="atom-33" d="M 53.2 150.1 L 54.1 150.1 L 54.1 152.8 L 57.3 152.8 L 57.3 150.1 L 58.2 150.1 L 58.2 156.5 L 57.3 156.5 L 57.3 153.5 L 54.1 153.5 L 54.1 156.5 L 53.2 156.5 L 53.2 150.1 " fill="#FF0000"/>
<path class="atom-33" d="M 59.5 153.3 Q 59.5 151.7, 60.3 150.9 Q 61.0 150.0, 62.4 150.0 Q 63.9 150.0, 64.6 150.9 Q 65.4 151.7, 65.4 153.3 Q 65.4 154.8, 64.6 155.7 Q 63.8 156.6, 62.4 156.6 Q 61.0 156.6, 60.3 155.7 Q 59.5 154.8, 59.5 153.3 M 62.4 155.9 Q 63.4 155.9, 63.9 155.2 Q 64.5 154.6, 64.5 153.3 Q 64.5 152.0, 63.9 151.4 Q 63.4 150.7, 62.4 150.7 Q 61.5 150.7, 60.9 151.4 Q 60.4 152.0, 60.4 153.3 Q 60.4 154.6, 60.9 155.2 Q 61.5 155.9, 62.4 155.9 " fill="#FF0000"/>
</svg>
