<?xml version='1.0' encoding='ASCII' standalone='yes'?>
<svg xmlns="http://www.w3.org/2000/svg" xmlns:rdkit="http://www.rdkit.org/xml" xmlns:xlink="http://www.w3.org/1999/xlink" version="1.1" baseProfile="full" xml:space="preserve" width="347px" height="200px" viewBox="0 0 347 200">
<!-- END OF HEADER -->
<rect style="opacity:1.0;fill:#FFFFFF;stroke:none" width="347.0" height="200.0" x="0.0" y="0.0"> </rect>
<path class="bond-0 atom-0 atom-1" d="M 19.7,107.6 L 24.2,105.9" style="fill:none;fill-rule:evenodd;stroke:#191919;stroke-width:2.0px;stroke-linecap:butt;stroke-linejoin:miter;stroke-opacity:1"/>
<path class="bond-0 atom-0 atom-1" d="M 24.2,105.9 L 28.6,104.1" style="fill:none;fill-rule:evenodd;stroke:#0000FF;stroke-width:2.0px;stroke-linecap:butt;stroke-linejoin:miter;stroke-opacity:1"/>
<path class="bond-1 atom-1 atom-2" d="M 32.7,105.0 L 36.8,108.3" style="fill:none;fill-rule:evenodd;stroke:#0000FF;stroke-width:2.0px;stroke-linecap:butt;stroke-linejoin:miter;stroke-opacity:1"/>
<path class="bond-1 atom-1 atom-2" d="M 36.8,108.3 L 41.0,111.6" style="fill:none;fill-rule:evenodd;stroke:#000000;stroke-width:2.0px;stroke-linecap:butt;stroke-linejoin:miter;stroke-opacity:1"/>
<path class="bond-2 atom-2 atom-3" d="M 41.0,111.6 L 53.3,106.7" style="fill:none;fill-rule:evenodd;stroke:#000000;stroke-width:2.0px;stroke-linecap:butt;stroke-linejoin:miter;stroke-opacity:1"/>
<path class="bond-3 atom-3 atom-4" d="M 53.3,106.7 L 57.3,109.9" style="fill:none;fill-rule:evenodd;stroke:#000000;stroke-width:2.0px;stroke-linecap:butt;stroke-linejoin:miter;stroke-opacity:1"/>
<path class="bond-3 atom-3 atom-4" d="M 57.3,109.9 L 61.3,113.1" style="fill:none;fill-rule:evenodd;stroke:#FF0000;stroke-width:2.0px;stroke-linecap:butt;stroke-linejoin:miter;stroke-opacity:1"/>
<path class="bond-4 atom-4 atom-5" d="M 66.0,114.1 L 70.1,112.5" style="fill:none;fill-rule:evenodd;stroke:#FF0000;stroke-width:2.0px;stroke-linecap:butt;stroke-linejoin:miter;stroke-opacity:1"/>
<path class="bond-4 atom-4 atom-5" d="M 70.1,112.5 L 74.2,110.9" style="fill:none;fill-rule:evenodd;stroke:#FF7F00;stroke-width:2.0px;stroke-linecap:butt;stroke-linejoin:miter;stroke-opacity:1"/>
<path class="bond-5 atom-5 atom-6" d="M 76.1,113.1 L 77.5,116.7" style="fill:none;fill-rule:evenodd;stroke:#FF7F00;stroke-width:2.0px;stroke-linecap:butt;stroke-linejoin:miter;stroke-opacity:1"/>
<path class="bond-5 atom-5 atom-6" d="M 77.5,116.7 L 78.9,120.3" style="fill:none;fill-rule:evenodd;stroke:#FF0000;stroke-width:2.0px;stroke-linecap:butt;stroke-linejoin:miter;stroke-opacity:1"/>
<path class="bond-5 atom-5 atom-6" d="M 77.9,112.3 L 79.3,115.9" style="fill:none;fill-rule:evenodd;stroke:#FF7F00;stroke-width:2.0px;stroke-linecap:butt;stroke-linejoin:miter;stroke-opacity:1"/>
<path class="bond-5 atom-5 atom-6" d="M 79.3,115.9 L 80.7,119.5" style="fill:none;fill-rule:evenodd;stroke:#FF0000;stroke-width:2.0px;stroke-linecap:butt;stroke-linejoin:miter;stroke-opacity:1"/>
<path class="bond-6 atom-5 atom-7" d="M 75.0,107.6 L 73.6,104.0" style="fill:none;fill-rule:evenodd;stroke:#FF7F00;stroke-width:2.0px;stroke-linecap:butt;stroke-linejoin:miter;stroke-opacity:1"/>
<path class="bond-6 atom-5 atom-7" d="M 73.6,104.0 L 72.2,100.5" style="fill:none;fill-rule:evenodd;stroke:#FF0000;stroke-width:2.0px;stroke-linecap:butt;stroke-linejoin:miter;stroke-opacity:1"/>
<path class="bond-7 atom-5 atom-8" d="M 77.8,109.4 L 81.8,107.8" style="fill:none;fill-rule:evenodd;stroke:#FF7F00;stroke-width:2.0px;stroke-linecap:butt;stroke-linejoin:miter;stroke-opacity:1"/>
<path class="bond-7 atom-5 atom-8" d="M 81.8,107.8 L 85.9,106.2" style="fill:none;fill-rule:evenodd;stroke:#FF0000;stroke-width:2.0px;stroke-linecap:butt;stroke-linejoin:miter;stroke-opacity:1"/>
<path class="bond-8 atom-8 atom-9" d="M 88.7,102.7 L 89.5,97.5" style="fill:none;fill-rule:evenodd;stroke:#FF0000;stroke-width:2.0px;stroke-linecap:butt;stroke-linejoin:miter;stroke-opacity:1"/>
<path class="bond-8 atom-8 atom-9" d="M 89.5,97.5 L 90.3,92.2" style="fill:none;fill-rule:evenodd;stroke:#000000;stroke-width:2.0px;stroke-linecap:butt;stroke-linejoin:miter;stroke-opacity:1"/>
<path class="bond-9 atom-9 atom-10" d="M 90.3,92.2 L 102.6,87.4" style="fill:none;fill-rule:evenodd;stroke:#000000;stroke-width:2.0px;stroke-linecap:butt;stroke-linejoin:miter;stroke-opacity:1"/>
<path class="bond-10 atom-10 atom-11" d="M 102.6,87.4 L 107.4,99.7" style="fill:none;fill-rule:evenodd;stroke:#000000;stroke-width:2.0px;stroke-linecap:butt;stroke-linejoin:miter;stroke-opacity:1"/>
<path class="bond-11 atom-10 atom-12" d="M 102.6,87.4 L 97.8,75.0" style="fill:none;fill-rule:evenodd;stroke:#000000;stroke-width:2.0px;stroke-linecap:butt;stroke-linejoin:miter;stroke-opacity:1"/>
<path class="bond-12 atom-10 atom-13" d="M 102.6,87.4 L 114.9,82.5" style="fill:none;fill-rule:evenodd;stroke:#000000;stroke-width:2.0px;stroke-linecap:butt;stroke-linejoin:miter;stroke-opacity:1"/>
<path class="bond-13 atom-13 atom-14" d="M 114.9,82.5 L 115.7,77.3" style="fill:none;fill-rule:evenodd;stroke:#000000;stroke-width:2.0px;stroke-linecap:butt;stroke-linejoin:miter;stroke-opacity:1"/>
<path class="bond-13 atom-13 atom-14" d="M 115.7,77.3 L 116.5,72.1" style="fill:none;fill-rule:evenodd;stroke:#FF0000;stroke-width:2.0px;stroke-linecap:butt;stroke-linejoin:miter;stroke-opacity:1"/>
<path class="bond-14 atom-13 atom-15" d="M 114.9,82.5 L 125.3,90.8" style="fill:none;fill-rule:evenodd;stroke:#000000;stroke-width:2.0px;stroke-linecap:butt;stroke-linejoin:miter;stroke-opacity:1"/>
<path class="bond-15 atom-15 atom-16" d="M 124.4,90.1 L 123.6,95.6" style="fill:none;fill-rule:evenodd;stroke:#000000;stroke-width:2.0px;stroke-linecap:butt;stroke-linejoin:miter;stroke-opacity:1"/>
<path class="bond-15 atom-15 atom-16" d="M 123.6,95.6 L 122.7,101.2" style="fill:none;fill-rule:evenodd;stroke:#FF0000;stroke-width:2.0px;stroke-linecap:butt;stroke-linejoin:miter;stroke-opacity:1"/>
<path class="bond-15 atom-15 atom-16" d="M 126.4,90.4 L 125.5,95.9" style="fill:none;fill-rule:evenodd;stroke:#000000;stroke-width:2.0px;stroke-linecap:butt;stroke-linejoin:miter;stroke-opacity:1"/>
<path class="bond-15 atom-15 atom-16" d="M 125.5,95.9 L 124.7,101.4" style="fill:none;fill-rule:evenodd;stroke:#FF0000;stroke-width:2.0px;stroke-linecap:butt;stroke-linejoin:miter;stroke-opacity:1"/>
<path class="bond-16 atom-15 atom-17" d="M 125.3,90.8 L 130.4,88.8" style="fill:none;fill-rule:evenodd;stroke:#000000;stroke-width:2.0px;stroke-linecap:butt;stroke-linejoin:miter;stroke-opacity:1"/>
<path class="bond-16 atom-15 atom-17" d="M 130.4,88.8 L 135.6,86.8" style="fill:none;fill-rule:evenodd;stroke:#0000FF;stroke-width:2.0px;stroke-linecap:butt;stroke-linejoin:miter;stroke-opacity:1"/>
<path class="bond-17 atom-17 atom-18" d="M 139.7,87.6 L 143.8,90.9" style="fill:none;fill-rule:evenodd;stroke:#0000FF;stroke-width:2.0px;stroke-linecap:butt;stroke-linejoin:miter;stroke-opacity:1"/>
<path class="bond-17 atom-17 atom-18" d="M 143.8,90.9 L 148.0,94.2" style="fill:none;fill-rule:evenodd;stroke:#000000;stroke-width:2.0px;stroke-linecap:butt;stroke-linejoin:miter;stroke-opacity:1"/>
<path class="bond-18 atom-18 atom-19" d="M 148.0,94.2 L 160.3,89.4" style="fill:none;fill-rule:evenodd;stroke:#000000;stroke-width:2.0px;stroke-linecap:butt;stroke-linejoin:miter;stroke-opacity:1"/>
<path class="bond-19 atom-19 atom-20" d="M 160.3,89.4 L 170.6,97.6" style="fill:none;fill-rule:evenodd;stroke:#000000;stroke-width:2.0px;stroke-linecap:butt;stroke-linejoin:miter;stroke-opacity:1"/>
<path class="bond-20 atom-20 atom-21" d="M 169.7,96.9 L 168.9,102.4" style="fill:none;fill-rule:evenodd;stroke:#000000;stroke-width:2.0px;stroke-linecap:butt;stroke-linejoin:miter;stroke-opacity:1"/>
<path class="bond-20 atom-20 atom-21" d="M 168.9,102.4 L 168.1,108.0" style="fill:none;fill-rule:evenodd;stroke:#FF0000;stroke-width:2.0px;stroke-linecap:butt;stroke-linejoin:miter;stroke-opacity:1"/>
<path class="bond-20 atom-20 atom-21" d="M 171.7,97.2 L 170.9,102.7" style="fill:none;fill-rule:evenodd;stroke:#000000;stroke-width:2.0px;stroke-linecap:butt;stroke-linejoin:miter;stroke-opacity:1"/>
<path class="bond-20 atom-20 atom-21" d="M 170.9,102.7 L 170.0,108.3" style="fill:none;fill-rule:evenodd;stroke:#FF0000;stroke-width:2.0px;stroke-linecap:butt;stroke-linejoin:miter;stroke-opacity:1"/>
<path class="bond-21 atom-20 atom-22" d="M 170.6,97.6 L 175.8,95.6" style="fill:none;fill-rule:evenodd;stroke:#000000;stroke-width:2.0px;stroke-linecap:butt;stroke-linejoin:miter;stroke-opacity:1"/>
<path class="bond-21 atom-20 atom-22" d="M 175.8,95.6 L 180.9,93.6" style="fill:none;fill-rule:evenodd;stroke:#0000FF;stroke-width:2.0px;stroke-linecap:butt;stroke-linejoin:miter;stroke-opacity:1"/>
<path class="bond-22 atom-22 atom-23" d="M 185.0,94.4 L 189.2,97.7" style="fill:none;fill-rule:evenodd;stroke:#0000FF;stroke-width:2.0px;stroke-linecap:butt;stroke-linejoin:miter;stroke-opacity:1"/>
<path class="bond-22 atom-22 atom-23" d="M 189.2,97.7 L 193.3,101.0" style="fill:none;fill-rule:evenodd;stroke:#000000;stroke-width:2.0px;stroke-linecap:butt;stroke-linejoin:miter;stroke-opacity:1"/>
<path class="bond-23 atom-23 atom-24" d="M 193.3,101.0 L 205.7,96.2" style="fill:none;fill-rule:evenodd;stroke:#000000;stroke-width:2.0px;stroke-linecap:butt;stroke-linejoin:miter;stroke-opacity:1"/>
<path class="bond-24 atom-24 atom-25" d="M 205.7,96.2 L 209.9,99.6" style="fill:none;fill-rule:evenodd;stroke:#000000;stroke-width:2.0px;stroke-linecap:butt;stroke-linejoin:miter;stroke-opacity:1"/>
<path class="bond-24 atom-24 atom-25" d="M 209.9,99.6 L 214.2,103.0" style="fill:none;fill-rule:evenodd;stroke:#CCCC00;stroke-width:2.0px;stroke-linecap:butt;stroke-linejoin:miter;stroke-opacity:1"/>
<path class="bond-25 atom-25 atom-26" d="M 217.8,103.7 L 223.1,101.7" style="fill:none;fill-rule:evenodd;stroke:#CCCC00;stroke-width:2.0px;stroke-linecap:butt;stroke-linejoin:miter;stroke-opacity:1"/>
<path class="bond-25 atom-25 atom-26" d="M 223.1,101.7 L 228.3,99.6" style="fill:none;fill-rule:evenodd;stroke:#000000;stroke-width:2.0px;stroke-linecap:butt;stroke-linejoin:miter;stroke-opacity:1"/>
<path class="bond-26 atom-26 atom-27" d="M 229.2,100.3 L 230.1,94.8" style="fill:none;fill-rule:evenodd;stroke:#000000;stroke-width:2.0px;stroke-linecap:butt;stroke-linejoin:miter;stroke-opacity:1"/>
<path class="bond-26 atom-26 atom-27" d="M 230.1,94.8 L 230.9,89.3" style="fill:none;fill-rule:evenodd;stroke:#FF0000;stroke-width:2.0px;stroke-linecap:butt;stroke-linejoin:miter;stroke-opacity:1"/>
<path class="bond-26 atom-26 atom-27" d="M 227.3,100.0 L 228.1,94.5" style="fill:none;fill-rule:evenodd;stroke:#000000;stroke-width:2.0px;stroke-linecap:butt;stroke-linejoin:miter;stroke-opacity:1"/>
<path class="bond-26 atom-26 atom-27" d="M 228.1,94.5 L 228.9,89.0" style="fill:none;fill-rule:evenodd;stroke:#FF0000;stroke-width:2.0px;stroke-linecap:butt;stroke-linejoin:miter;stroke-opacity:1"/>
<path class="bond-27 atom-26 atom-28" d="M 228.3,99.6 L 238.7,107.9" style="fill:none;fill-rule:evenodd;stroke:#000000;stroke-width:2.0px;stroke-linecap:butt;stroke-linejoin:miter;stroke-opacity:1"/>
<path class="bond-28 atom-28 atom-29" d="M 238.7,107.9 L 251.0,103.0" style="fill:none;fill-rule:evenodd;stroke:#000000;stroke-width:2.0px;stroke-linecap:butt;stroke-linejoin:miter;stroke-opacity:1"/>
<path class="bond-29 atom-29 atom-30" d="M 251.9,103.7 L 252.7,98.2" style="fill:none;fill-rule:evenodd;stroke:#000000;stroke-width:2.0px;stroke-linecap:butt;stroke-linejoin:miter;stroke-opacity:1"/>
<path class="bond-29 atom-29 atom-30" d="M 252.7,98.2 L 253.6,92.7" style="fill:none;fill-rule:evenodd;stroke:#FF0000;stroke-width:2.0px;stroke-linecap:butt;stroke-linejoin:miter;stroke-opacity:1"/>
<path class="bond-29 atom-29 atom-30" d="M 249.9,103.4 L 250.8,97.9" style="fill:none;fill-rule:evenodd;stroke:#000000;stroke-width:2.0px;stroke-linecap:butt;stroke-linejoin:miter;stroke-opacity:1"/>
<path class="bond-29 atom-29 atom-30" d="M 250.8,97.9 L 251.6,92.4" style="fill:none;fill-rule:evenodd;stroke:#FF0000;stroke-width:2.0px;stroke-linecap:butt;stroke-linejoin:miter;stroke-opacity:1"/>
<path class="bond-30 atom-29 atom-31" d="M 251.0,103.0 L 261.4,111.3" style="fill:none;fill-rule:evenodd;stroke:#000000;stroke-width:2.0px;stroke-linecap:butt;stroke-linejoin:miter;stroke-opacity:1"/>
<path class="bond-31 atom-31 atom-32" d="M 261.4,111.3 L 273.7,106.4" style="fill:none;fill-rule:evenodd;stroke:#000000;stroke-width:2.0px;stroke-linecap:butt;stroke-linejoin:miter;stroke-opacity:1"/>
<path class="bond-32 atom-32 atom-33" d="M 273.7,106.4 L 284.0,114.7" style="fill:none;fill-rule:evenodd;stroke:#000000;stroke-width:2.0px;stroke-linecap:butt;stroke-linejoin:miter;stroke-opacity:1"/>
<path class="bond-33 atom-33 atom-34" d="M 284.0,114.7 L 296.4,109.8" style="fill:none;fill-rule:evenodd;stroke:#000000;stroke-width:2.0px;stroke-linecap:butt;stroke-linejoin:miter;stroke-opacity:1"/>
<path class="bond-34 atom-34 atom-35" d="M 296.4,109.8 L 306.7,118.1" style="fill:none;fill-rule:evenodd;stroke:#000000;stroke-width:2.0px;stroke-linecap:butt;stroke-linejoin:miter;stroke-opacity:1"/>
<path class="bond-35 atom-35 atom-36" d="M 306.7,118.1 L 319.1,113.3" style="fill:none;fill-rule:evenodd;stroke:#000000;stroke-width:2.0px;stroke-linecap:butt;stroke-linejoin:miter;stroke-opacity:1"/>
<path class="bond-36 atom-36 atom-37" d="M 319.1,113.3 L 329.4,121.5" style="fill:none;fill-rule:evenodd;stroke:#000000;stroke-width:2.0px;stroke-linecap:butt;stroke-linejoin:miter;stroke-opacity:1"/>
<path class="bond-37 atom-2 atom-38" d="M 41.0,111.6 L 39.0,124.7" style="fill:none;fill-rule:evenodd;stroke:#000000;stroke-width:2.0px;stroke-linecap:butt;stroke-linejoin:miter;stroke-opacity:1"/>
<path class="bond-38 atom-38 atom-39" d="M 39.0,124.7 L 43.5,128.2" style="fill:none;fill-rule:evenodd;stroke:#000000;stroke-width:2.0px;stroke-linecap:butt;stroke-linejoin:miter;stroke-opacity:1"/>
<path class="bond-38 atom-38 atom-39" d="M 43.5,128.2 L 47.9,131.8" style="fill:none;fill-rule:evenodd;stroke:#191919;stroke-width:2.0px;stroke-linecap:butt;stroke-linejoin:miter;stroke-opacity:1"/>
<path class="bond-39 atom-38 atom-40" d="M 39.2,123.5 L 33.9,125.6" style="fill:none;fill-rule:evenodd;stroke:#000000;stroke-width:2.0px;stroke-linecap:butt;stroke-linejoin:miter;stroke-opacity:1"/>
<path class="bond-39 atom-38 atom-40" d="M 33.9,125.6 L 28.7,127.6" style="fill:none;fill-rule:evenodd;stroke:#FF0000;stroke-width:2.0px;stroke-linecap:butt;stroke-linejoin:miter;stroke-opacity:1"/>
<path class="bond-39 atom-38 atom-40" d="M 39.9,125.4 L 34.7,127.4" style="fill:none;fill-rule:evenodd;stroke:#000000;stroke-width:2.0px;stroke-linecap:butt;stroke-linejoin:miter;stroke-opacity:1"/>
<path class="bond-39 atom-38 atom-40" d="M 34.7,127.4 L 29.4,129.5" style="fill:none;fill-rule:evenodd;stroke:#FF0000;stroke-width:2.0px;stroke-linecap:butt;stroke-linejoin:miter;stroke-opacity:1"/>
<path d="M 52.7,107.0 L 53.3,106.7 L 53.5,106.9" style="fill:none;stroke:#000000;stroke-width:2.0px;stroke-linecap:butt;stroke-linejoin:miter;stroke-opacity:1;"/>
<path d="M 90.2,92.5 L 90.3,92.2 L 90.9,92.0" style="fill:none;stroke:#000000;stroke-width:2.0px;stroke-linecap:butt;stroke-linejoin:miter;stroke-opacity:1;"/>
<path d="M 124.8,90.4 L 125.3,90.8 L 125.5,90.7" style="fill:none;stroke:#000000;stroke-width:2.0px;stroke-linecap:butt;stroke-linejoin:miter;stroke-opacity:1;"/>
<path d="M 147.8,94.0 L 148.0,94.2 L 148.6,94.0" style="fill:none;stroke:#000000;stroke-width:2.0px;stroke-linecap:butt;stroke-linejoin:miter;stroke-opacity:1;"/>
<path d="M 159.7,89.6 L 160.3,89.4 L 160.8,89.8" style="fill:none;stroke:#000000;stroke-width:2.0px;stroke-linecap:butt;stroke-linejoin:miter;stroke-opacity:1;"/>
<path d="M 170.1,97.2 L 170.6,97.6 L 170.9,97.5" style="fill:none;stroke:#000000;stroke-width:2.0px;stroke-linecap:butt;stroke-linejoin:miter;stroke-opacity:1;"/>
<path d="M 193.1,100.9 L 193.3,101.0 L 193.9,100.8" style="fill:none;stroke:#000000;stroke-width:2.0px;stroke-linecap:butt;stroke-linejoin:miter;stroke-opacity:1;"/>
<path d="M 205.0,96.4 L 205.7,96.2 L 205.9,96.4" style="fill:none;stroke:#000000;stroke-width:2.0px;stroke-linecap:butt;stroke-linejoin:miter;stroke-opacity:1;"/>
<path d="M 228.1,99.7 L 228.3,99.6 L 228.9,100.0" style="fill:none;stroke:#000000;stroke-width:2.0px;stroke-linecap:butt;stroke-linejoin:miter;stroke-opacity:1;"/>
<path d="M 238.2,107.4 L 238.7,107.9 L 239.3,107.6" style="fill:none;stroke:#000000;stroke-width:2.0px;stroke-linecap:butt;stroke-linejoin:miter;stroke-opacity:1;"/>
<path d="M 250.4,103.3 L 251.0,103.0 L 251.5,103.4" style="fill:none;stroke:#000000;stroke-width:2.0px;stroke-linecap:butt;stroke-linejoin:miter;stroke-opacity:1;"/>
<path d="M 260.9,110.9 L 261.4,111.3 L 262.0,111.0" style="fill:none;stroke:#000000;stroke-width:2.0px;stroke-linecap:butt;stroke-linejoin:miter;stroke-opacity:1;"/>
<path d="M 273.1,106.7 L 273.7,106.4 L 274.2,106.8" style="fill:none;stroke:#000000;stroke-width:2.0px;stroke-linecap:butt;stroke-linejoin:miter;stroke-opacity:1;"/>
<path d="M 283.5,114.3 L 284.0,114.7 L 284.7,114.4" style="fill:none;stroke:#000000;stroke-width:2.0px;stroke-linecap:butt;stroke-linejoin:miter;stroke-opacity:1;"/>
<path d="M 295.8,110.1 L 296.4,109.8 L 296.9,110.3" style="fill:none;stroke:#000000;stroke-width:2.0px;stroke-linecap:butt;stroke-linejoin:miter;stroke-opacity:1;"/>
<path d="M 306.2,117.7 L 306.7,118.1 L 307.3,117.9" style="fill:none;stroke:#000000;stroke-width:2.0px;stroke-linecap:butt;stroke-linejoin:miter;stroke-opacity:1;"/>
<path d="M 318.4,113.5 L 319.1,113.3 L 319.6,113.7" style="fill:none;stroke:#000000;stroke-width:2.0px;stroke-linecap:butt;stroke-linejoin:miter;stroke-opacity:1;"/>
<path d="M 39.1,124.0 L 39.0,124.7 L 39.2,124.8" style="fill:none;stroke:#000000;stroke-width:2.0px;stroke-linecap:butt;stroke-linejoin:miter;stroke-opacity:1;"/>
<path class="atom-0" d="M 17.5 107.7 L 18.1 107.1 L 17.3 106.9 L 17.4 106.5 L 18.2 106.8 L 18.1 106.0 L 18.5 106.0 L 18.4 106.8 L 19.2 106.5 L 19.3 106.9 L 18.5 107.0 L 19.1 107.7 L 18.7 107.9 L 18.3 107.2 L 17.9 107.9 L 17.5 107.7 " fill="#191919"/>
<path class="atom-1" d="M 29.7 101.2 L 31.1 103.4 Q 31.2 103.7, 31.4 104.1 Q 31.7 104.5, 31.7 104.5 L 31.7 101.2 L 32.2 101.2 L 32.2 105.4 L 31.7 105.4 L 30.2 103.0 Q 30.0 102.7, 29.8 102.4 Q 29.6 102.0, 29.6 101.9 L 29.6 105.4 L 29.0 105.4 L 29.0 101.2 L 29.7 101.2 " fill="#0000FF"/>
<path class="atom-1" d="M 29.0 96.5 L 29.5 96.5 L 29.5 98.3 L 31.7 98.3 L 31.7 96.5 L 32.3 96.5 L 32.3 100.8 L 31.7 100.8 L 31.7 98.8 L 29.5 98.8 L 29.5 100.8 L 29.0 100.8 L 29.0 96.5 " fill="#0000FF"/>
<path class="atom-4" d="M 61.7 115.0 Q 61.7 114.0, 62.2 113.4 Q 62.7 112.8, 63.7 112.8 Q 64.6 112.8, 65.1 113.4 Q 65.6 114.0, 65.6 115.0 Q 65.6 116.0, 65.1 116.6 Q 64.6 117.2, 63.7 117.2 Q 62.7 117.2, 62.2 116.6 Q 61.7 116.0, 61.7 115.0 M 63.7 116.7 Q 64.3 116.7, 64.7 116.3 Q 65.0 115.9, 65.0 115.0 Q 65.0 114.2, 64.7 113.7 Q 64.3 113.3, 63.7 113.3 Q 63.0 113.3, 62.7 113.7 Q 62.3 114.2, 62.3 115.0 Q 62.3 115.9, 62.7 116.3 Q 63.0 116.7, 63.7 116.7 " fill="#FF0000"/>
<path class="atom-5" d="M 75.9 108.0 Q 76.6 108.0, 77.0 108.4 Q 77.3 108.7, 77.3 109.3 Q 77.3 109.9, 77.0 110.2 Q 76.6 110.5, 75.9 110.5 L 75.2 110.5 L 75.2 112.3 L 74.6 112.3 L 74.6 108.0 L 75.9 108.0 M 75.9 110.0 Q 76.3 110.0, 76.5 109.8 Q 76.7 109.7, 76.7 109.3 Q 76.7 108.9, 76.5 108.7 Q 76.3 108.5, 75.9 108.5 L 75.2 108.5 L 75.2 110.0 L 75.9 110.0 " fill="#FF7F00"/>
<path class="atom-6" d="M 78.9 122.5 Q 78.9 121.5, 79.4 120.9 Q 79.9 120.3, 80.8 120.3 Q 81.8 120.3, 82.3 120.9 Q 82.8 121.5, 82.8 122.5 Q 82.8 123.5, 82.3 124.1 Q 81.8 124.7, 80.8 124.7 Q 79.9 124.7, 79.4 124.1 Q 78.9 123.5, 78.9 122.5 M 80.8 124.2 Q 81.5 124.2, 81.8 123.8 Q 82.2 123.3, 82.2 122.5 Q 82.2 121.7, 81.8 121.2 Q 81.5 120.8, 80.8 120.8 Q 80.2 120.8, 79.8 121.2 Q 79.5 121.6, 79.5 122.5 Q 79.5 123.3, 79.8 123.8 Q 80.2 124.2, 80.8 124.2 " fill="#FF0000"/>
<path class="atom-7" d="M 65.0 95.7 L 65.6 95.7 L 65.6 97.5 L 67.7 97.5 L 67.7 95.7 L 68.3 95.7 L 68.3 100.0 L 67.7 100.0 L 67.7 98.0 L 65.6 98.0 L 65.6 100.0 L 65.0 100.0 L 65.0 95.7 " fill="#FF0000"/>
<path class="atom-7" d="M 69.2 97.8 Q 69.2 96.8, 69.7 96.2 Q 70.2 95.7, 71.1 95.7 Q 72.1 95.7, 72.6 96.2 Q 73.1 96.8, 73.1 97.8 Q 73.1 98.9, 72.6 99.5 Q 72.1 100.0, 71.1 100.0 Q 70.2 100.0, 69.7 99.5 Q 69.2 98.9, 69.2 97.8 M 71.1 99.6 Q 71.8 99.6, 72.1 99.1 Q 72.5 98.7, 72.5 97.8 Q 72.5 97.0, 72.1 96.6 Q 71.8 96.2, 71.1 96.2 Q 70.5 96.2, 70.1 96.6 Q 69.8 97.0, 69.8 97.8 Q 69.8 98.7, 70.1 99.1 Q 70.5 99.6, 71.1 99.6 " fill="#FF0000"/>
<path class="atom-8" d="M 86.4 105.3 Q 86.4 104.3, 86.9 103.7 Q 87.4 103.2, 88.3 103.2 Q 89.3 103.2, 89.8 103.7 Q 90.3 104.3, 90.3 105.3 Q 90.3 106.4, 89.7 106.9 Q 89.2 107.5, 88.3 107.5 Q 87.4 107.5, 86.9 106.9 Q 86.4 106.4, 86.4 105.3 M 88.3 107.0 Q 89.0 107.0, 89.3 106.6 Q 89.7 106.2, 89.7 105.3 Q 89.7 104.5, 89.3 104.1 Q 89.0 103.6, 88.3 103.6 Q 87.7 103.6, 87.3 104.1 Q 87.0 104.5, 87.0 105.3 Q 87.0 106.2, 87.3 106.6 Q 87.7 107.0, 88.3 107.0 " fill="#FF0000"/>
<path class="atom-14" d="M 115.0 69.5 Q 115.0 68.4, 115.5 67.9 Q 116.0 67.3, 116.9 67.3 Q 117.8 67.3, 118.3 67.9 Q 118.9 68.4, 118.9 69.5 Q 118.9 70.5, 118.3 71.1 Q 117.8 71.7, 116.9 71.7 Q 116.0 71.7, 115.5 71.1 Q 115.0 70.5, 115.0 69.5 M 116.9 71.2 Q 117.6 71.2, 117.9 70.7 Q 118.3 70.3, 118.3 69.5 Q 118.3 68.6, 117.9 68.2 Q 117.6 67.8, 116.9 67.8 Q 116.3 67.8, 115.9 68.2 Q 115.6 68.6, 115.6 69.5 Q 115.6 70.3, 115.9 70.7 Q 116.3 71.2, 116.9 71.2 " fill="#FF0000"/>
<path class="atom-14" d="M 119.5 67.3 L 120.1 67.3 L 120.1 69.1 L 122.3 69.1 L 122.3 67.3 L 122.8 67.3 L 122.8 71.6 L 122.3 71.6 L 122.3 69.6 L 120.1 69.6 L 120.1 71.6 L 119.5 71.6 L 119.5 67.3 " fill="#FF0000"/>
<path class="atom-16" d="M 121.4 103.9 Q 121.4 102.9, 121.9 102.3 Q 122.4 101.7, 123.3 101.7 Q 124.3 101.7, 124.8 102.3 Q 125.3 102.9, 125.3 103.9 Q 125.3 104.9, 124.8 105.5 Q 124.2 106.1, 123.3 106.1 Q 122.4 106.1, 121.9 105.5 Q 121.4 104.9, 121.4 103.9 M 123.3 105.6 Q 124.0 105.6, 124.3 105.2 Q 124.7 104.7, 124.7 103.9 Q 124.7 103.1, 124.3 102.6 Q 124.0 102.2, 123.3 102.2 Q 122.7 102.2, 122.3 102.6 Q 122.0 103.1, 122.0 103.9 Q 122.0 104.8, 122.3 105.2 Q 122.7 105.6, 123.3 105.6 " fill="#FF0000"/>
<path class="atom-17" d="M 136.7 83.8 L 138.1 86.1 Q 138.2 86.3, 138.4 86.7 Q 138.6 87.1, 138.7 87.1 L 138.7 83.8 L 139.2 83.8 L 139.2 88.1 L 138.6 88.1 L 137.1 85.6 Q 137.0 85.3, 136.8 85.0 Q 136.6 84.7, 136.6 84.6 L 136.6 88.1 L 136.0 88.1 L 136.0 83.8 L 136.7 83.8 " fill="#0000FF"/>
<path class="atom-17" d="M 135.9 79.2 L 136.5 79.2 L 136.5 81.0 L 138.7 81.0 L 138.7 79.2 L 139.3 79.2 L 139.3 83.4 L 138.7 83.4 L 138.7 81.4 L 136.5 81.4 L 136.5 83.4 L 135.9 83.4 L 135.9 79.2 " fill="#0000FF"/>
<path class="atom-21" d="M 166.7 110.7 Q 166.7 109.7, 167.2 109.1 Q 167.7 108.6, 168.7 108.6 Q 169.6 108.6, 170.1 109.1 Q 170.6 109.7, 170.6 110.7 Q 170.6 111.8, 170.1 112.3 Q 169.6 112.9, 168.7 112.9 Q 167.7 112.9, 167.2 112.3 Q 166.7 111.8, 166.7 110.7 M 168.7 112.4 Q 169.3 112.4, 169.7 112.0 Q 170.0 111.6, 170.0 110.7 Q 170.0 109.9, 169.7 109.5 Q 169.3 109.0, 168.7 109.0 Q 168.0 109.0, 167.7 109.5 Q 167.3 109.9, 167.3 110.7 Q 167.3 111.6, 167.7 112.0 Q 168.0 112.4, 168.7 112.4 " fill="#FF0000"/>
<path class="atom-22" d="M 182.0 90.7 L 183.4 92.9 Q 183.6 93.1, 183.8 93.5 Q 184.0 93.9, 184.0 94.0 L 184.0 90.7 L 184.6 90.7 L 184.6 94.9 L 184.0 94.9 L 182.5 92.4 Q 182.3 92.2, 182.1 91.8 Q 182.0 91.5, 181.9 91.4 L 181.9 94.9 L 181.4 94.9 L 181.4 90.7 L 182.0 90.7 " fill="#0000FF"/>
<path class="atom-22" d="M 181.3 86.0 L 181.9 86.0 L 181.9 87.8 L 184.1 87.8 L 184.1 86.0 L 184.6 86.0 L 184.6 90.2 L 184.1 90.2 L 184.1 88.3 L 181.9 88.3 L 181.9 90.2 L 181.3 90.2 L 181.3 86.0 " fill="#0000FF"/>
<path class="atom-25" d="M 214.8 105.9 Q 214.9 105.9, 215.1 106.0 Q 215.3 106.1, 215.5 106.1 Q 215.7 106.2, 215.9 106.2 Q 216.3 106.2, 216.5 106.0 Q 216.8 105.8, 216.8 105.5 Q 216.8 105.2, 216.7 105.1 Q 216.5 104.9, 216.4 104.9 Q 216.2 104.8, 215.9 104.7 Q 215.5 104.6, 215.3 104.5 Q 215.1 104.4, 214.9 104.1 Q 214.7 103.9, 214.7 103.5 Q 214.7 103.0, 215.1 102.7 Q 215.5 102.3, 216.2 102.3 Q 216.7 102.3, 217.2 102.6 L 217.1 103.0 Q 216.6 102.8, 216.2 102.8 Q 215.8 102.8, 215.6 103.0 Q 215.3 103.2, 215.3 103.5 Q 215.3 103.7, 215.4 103.8 Q 215.6 104.0, 215.7 104.0 Q 215.9 104.1, 216.2 104.2 Q 216.6 104.3, 216.8 104.4 Q 217.0 104.6, 217.2 104.8 Q 217.4 105.0, 217.4 105.5 Q 217.4 106.0, 217.0 106.4 Q 216.6 106.7, 215.9 106.7 Q 215.6 106.7, 215.3 106.6 Q 215.0 106.5, 214.6 106.4 L 214.8 105.9 " fill="#CCCC00"/>
<path class="atom-27" d="M 228.4 86.5 Q 228.4 85.5, 228.9 84.9 Q 229.4 84.4, 230.3 84.4 Q 231.2 84.4, 231.8 84.9 Q 232.3 85.5, 232.3 86.5 Q 232.3 87.6, 231.7 88.1 Q 231.2 88.7, 230.3 88.7 Q 229.4 88.7, 228.9 88.1 Q 228.4 87.6, 228.4 86.5 M 230.3 88.2 Q 231.0 88.2, 231.3 87.8 Q 231.7 87.4, 231.7 86.5 Q 231.7 85.7, 231.3 85.3 Q 231.0 84.8, 230.3 84.8 Q 229.7 84.8, 229.3 85.3 Q 229.0 85.7, 229.0 86.5 Q 229.0 87.4, 229.3 87.8 Q 229.7 88.2, 230.3 88.2 " fill="#FF0000"/>
<path class="atom-30" d="M 251.0 89.9 Q 251.0 88.9, 251.5 88.3 Q 252.0 87.8, 253.0 87.8 Q 253.9 87.8, 254.4 88.3 Q 254.9 88.9, 254.9 89.9 Q 254.9 91.0, 254.4 91.6 Q 253.9 92.1, 253.0 92.1 Q 252.0 92.1, 251.5 91.6 Q 251.0 91.0, 251.0 89.9 M 253.0 91.7 Q 253.6 91.7, 254.0 91.2 Q 254.3 90.8, 254.3 89.9 Q 254.3 89.1, 254.0 88.7 Q 253.6 88.3, 253.0 88.3 Q 252.3 88.3, 252.0 88.7 Q 251.6 89.1, 251.6 89.9 Q 251.6 90.8, 252.0 91.2 Q 252.3 91.7, 253.0 91.7 " fill="#FF0000"/>
<path class="atom-39" d="M 48.6 132.4 L 49.2 131.8 L 48.4 131.6 L 48.5 131.2 L 49.2 131.6 L 49.1 130.8 L 49.6 130.8 L 49.5 131.6 L 50.2 131.2 L 50.4 131.6 L 49.5 131.8 L 50.1 132.4 L 49.8 132.7 L 49.3 131.9 L 48.9 132.7 L 48.6 132.4 " fill="#191919"/>
<path class="atom-40" d="M 24.7 129.5 Q 24.7 128.5, 25.2 127.9 Q 25.7 127.4, 26.7 127.4 Q 27.6 127.4, 28.1 127.9 Q 28.6 128.5, 28.6 129.5 Q 28.6 130.6, 28.1 131.1 Q 27.6 131.7, 26.7 131.7 Q 25.7 131.7, 25.2 131.1 Q 24.7 130.6, 24.7 129.5 M 26.7 131.2 Q 27.3 131.2, 27.7 130.8 Q 28.0 130.4, 28.0 129.5 Q 28.0 128.7, 27.7 128.3 Q 27.3 127.8, 26.7 127.8 Q 26.0 127.8, 25.7 128.3 Q 25.3 128.7, 25.3 129.5 Q 25.3 130.4, 25.7 130.8 Q 26.0 131.2, 26.7 131.2 " fill="#FF0000"/>
</svg>
