<?xml version='1.0' encoding='ASCII' standalone='yes'?>
<svg xmlns="http://www.w3.org/2000/svg" xmlns:rdkit="http://www.rdkit.org/xml" xmlns:xlink="http://www.w3.org/1999/xlink" version="1.1" baseProfile="full" xml:space="preserve" width="328px" height="200px" viewBox="0 0 328 200">
<!-- END OF HEADER -->
<rect style="opacity:1.0;fill:#FFFFFF;stroke:none" width="328.0" height="200.0" x="0.0" y="0.0"> </rect>
<path class="bond-0 atom-0 atom-1" d="M 71.8,113.4 L 100.1,103.1" style="fill:none;fill-rule:evenodd;stroke:#000000;stroke-width:2.0px;stroke-linecap:butt;stroke-linejoin:miter;stroke-opacity:1"/>
<path class="bond-1 atom-1 atom-2" d="M 100.1,103.1 L 128.4,92.9" style="fill:none;fill-rule:evenodd;stroke:#000000;stroke-width:2.0px;stroke-linecap:butt;stroke-linejoin:miter;stroke-opacity:1"/>
<path class="bond-2 atom-2 atom-3" d="M 128.4,92.9 L 133.6,63.2" style="fill:none;fill-rule:evenodd;stroke:#000000;stroke-width:2.0px;stroke-linecap:butt;stroke-linejoin:miter;stroke-opacity:1"/>
<path class="bond-3 atom-3 atom-4" d="M 133.6,63.2 L 161.8,53.0" style="fill:none;fill-rule:evenodd;stroke:#000000;stroke-width:2.0px;stroke-linecap:butt;stroke-linejoin:miter;stroke-opacity:1"/>
<path class="bond-4 atom-4 atom-5" d="M 161.8,53.0 L 164.0,40.8" style="fill:none;fill-rule:evenodd;stroke:#000000;stroke-width:2.0px;stroke-linecap:butt;stroke-linejoin:miter;stroke-opacity:1"/>
<path class="bond-4 atom-4 atom-5" d="M 164.0,40.8 L 166.1,28.7" style="fill:none;fill-rule:evenodd;stroke:#FF0000;stroke-width:2.0px;stroke-linecap:butt;stroke-linejoin:miter;stroke-opacity:1"/>
<path class="bond-5 atom-3 atom-6" d="M 133.6,63.2 L 110.5,43.9" style="fill:none;fill-rule:evenodd;stroke:#000000;stroke-width:2.0px;stroke-linecap:butt;stroke-linejoin:miter;stroke-opacity:1"/>
<path class="bond-6 atom-6 atom-7" d="M 111.0,41.5 L 98.7,45.9" style="fill:none;fill-rule:evenodd;stroke:#000000;stroke-width:2.0px;stroke-linecap:butt;stroke-linejoin:miter;stroke-opacity:1"/>
<path class="bond-6 atom-6 atom-7" d="M 98.7,45.9 L 86.4,50.4" style="fill:none;fill-rule:evenodd;stroke:#FF0000;stroke-width:2.0px;stroke-linecap:butt;stroke-linejoin:miter;stroke-opacity:1"/>
<path class="bond-6 atom-6 atom-7" d="M 112.4,45.5 L 100.2,50.0" style="fill:none;fill-rule:evenodd;stroke:#000000;stroke-width:2.0px;stroke-linecap:butt;stroke-linejoin:miter;stroke-opacity:1"/>
<path class="bond-6 atom-6 atom-7" d="M 100.2,50.0 L 87.9,54.5" style="fill:none;fill-rule:evenodd;stroke:#FF0000;stroke-width:2.0px;stroke-linecap:butt;stroke-linejoin:miter;stroke-opacity:1"/>
<path class="bond-7 atom-6 atom-8" d="M 110.5,43.9 L 112.7,31.8" style="fill:none;fill-rule:evenodd;stroke:#000000;stroke-width:2.0px;stroke-linecap:butt;stroke-linejoin:miter;stroke-opacity:1"/>
<path class="bond-7 atom-6 atom-8" d="M 112.7,31.8 L 114.8,19.7" style="fill:none;fill-rule:evenodd;stroke:#FF0000;stroke-width:2.0px;stroke-linecap:butt;stroke-linejoin:miter;stroke-opacity:1"/>
<path class="bond-8 atom-1 atom-9" d="M 100.1,103.1 L 110.4,131.4" style="fill:none;fill-rule:evenodd;stroke:#000000;stroke-width:2.0px;stroke-linecap:butt;stroke-linejoin:miter;stroke-opacity:1"/>
<path class="bond-9 atom-9 atom-10" d="M 110.4,131.4 L 140.0,136.6" style="fill:none;fill-rule:evenodd;stroke:#000000;stroke-width:2.0px;stroke-linecap:butt;stroke-linejoin:miter;stroke-opacity:1"/>
<path class="bond-10 atom-10 atom-11" d="M 140.0,136.6 L 161.0,143.0" style="fill:none;fill-rule:evenodd;stroke:#000000;stroke-width:2.0px;stroke-linecap:butt;stroke-linejoin:miter;stroke-opacity:1"/>
<path class="bond-11 atom-10 atom-12" d="M 140.0,136.6 L 134.8,166.2" style="fill:none;fill-rule:evenodd;stroke:#000000;stroke-width:2.0px;stroke-linecap:butt;stroke-linejoin:miter;stroke-opacity:1"/>
<path class="bond-12 atom-12 atom-13" d="M 135.2,163.8 L 122.9,168.3" style="fill:none;fill-rule:evenodd;stroke:#000000;stroke-width:2.0px;stroke-linecap:butt;stroke-linejoin:miter;stroke-opacity:1"/>
<path class="bond-12 atom-12 atom-13" d="M 122.9,168.3 L 110.7,172.7" style="fill:none;fill-rule:evenodd;stroke:#FF0000;stroke-width:2.0px;stroke-linecap:butt;stroke-linejoin:miter;stroke-opacity:1"/>
<path class="bond-12 atom-12 atom-13" d="M 136.7,167.8 L 124.4,172.3" style="fill:none;fill-rule:evenodd;stroke:#000000;stroke-width:2.0px;stroke-linecap:butt;stroke-linejoin:miter;stroke-opacity:1"/>
<path class="bond-12 atom-12 atom-13" d="M 124.4,172.3 L 112.1,176.8" style="fill:none;fill-rule:evenodd;stroke:#FF0000;stroke-width:2.0px;stroke-linecap:butt;stroke-linejoin:miter;stroke-opacity:1"/>
<path class="bond-13 atom-12 atom-14" d="M 134.8,166.2 L 143.9,173.9" style="fill:none;fill-rule:evenodd;stroke:#000000;stroke-width:2.0px;stroke-linecap:butt;stroke-linejoin:miter;stroke-opacity:1"/>
<path class="bond-13 atom-12 atom-14" d="M 143.9,173.9 L 153.0,181.5" style="fill:none;fill-rule:evenodd;stroke:#FF0000;stroke-width:2.0px;stroke-linecap:butt;stroke-linejoin:miter;stroke-opacity:1"/>
<path class="bond-14 atom-10 atom-15" d="M 140.0,136.6 L 145.2,107.0" style="fill:none;fill-rule:evenodd;stroke:#000000;stroke-width:2.0px;stroke-linecap:butt;stroke-linejoin:miter;stroke-opacity:1"/>
<path class="bond-15 atom-15 atom-16" d="M 145.2,107.0 L 115.6,101.8" style="fill:none;fill-rule:evenodd;stroke:#000000;stroke-width:2.0px;stroke-linecap:butt;stroke-linejoin:miter;stroke-opacity:1"/>
<path class="bond-16 atom-15 atom-17" d="M 145.2,107.0 L 147.4,94.9" style="fill:none;fill-rule:evenodd;stroke:#000000;stroke-width:2.0px;stroke-linecap:butt;stroke-linejoin:miter;stroke-opacity:1"/>
<path class="bond-16 atom-15 atom-17" d="M 147.4,94.9 L 149.5,82.8" style="fill:none;fill-rule:evenodd;stroke:#FF0000;stroke-width:2.0px;stroke-linecap:butt;stroke-linejoin:miter;stroke-opacity:1"/>
<path class="bond-17 atom-15 atom-18" d="M 145.2,107.0 L 174.8,112.2" style="fill:none;fill-rule:evenodd;stroke:#000000;stroke-width:2.0px;stroke-linecap:butt;stroke-linejoin:miter;stroke-opacity:1"/>
<path class="bond-18 atom-18 atom-19" d="M 174.8,112.2 L 173.7,134.1" style="fill:none;fill-rule:evenodd;stroke:#000000;stroke-width:2.0px;stroke-linecap:butt;stroke-linejoin:miter;stroke-opacity:1"/>
<path class="bond-19 atom-18 atom-20" d="M 174.8,112.2 L 180.1,82.6" style="fill:none;fill-rule:evenodd;stroke:#000000;stroke-width:2.0px;stroke-linecap:butt;stroke-linejoin:miter;stroke-opacity:1"/>
<path class="bond-20 atom-20 atom-21" d="M 180.1,82.6 L 208.3,72.3" style="fill:none;fill-rule:evenodd;stroke:#000000;stroke-width:2.0px;stroke-linecap:butt;stroke-linejoin:miter;stroke-opacity:1"/>
<path class="bond-21 atom-21 atom-22" d="M 208.3,72.3 L 213.5,42.7" style="fill:none;fill-rule:evenodd;stroke:#000000;stroke-width:2.0px;stroke-linecap:butt;stroke-linejoin:miter;stroke-opacity:1"/>
<path class="bond-22 atom-22 atom-23" d="M 213.5,42.7 L 225.2,38.5" style="fill:none;fill-rule:evenodd;stroke:#000000;stroke-width:2.0px;stroke-linecap:butt;stroke-linejoin:miter;stroke-opacity:1"/>
<path class="bond-22 atom-22 atom-23" d="M 225.2,38.5 L 236.9,34.2" style="fill:none;fill-rule:evenodd;stroke:#FF0000;stroke-width:2.0px;stroke-linecap:butt;stroke-linejoin:miter;stroke-opacity:1"/>
<path class="bond-23 atom-21 atom-24" d="M 208.3,72.3 L 231.3,91.7" style="fill:none;fill-rule:evenodd;stroke:#000000;stroke-width:2.0px;stroke-linecap:butt;stroke-linejoin:miter;stroke-opacity:1"/>
<path class="bond-24 atom-24 atom-25" d="M 229.4,90.1 L 228.4,95.9" style="fill:none;fill-rule:evenodd;stroke:#000000;stroke-width:2.0px;stroke-linecap:butt;stroke-linejoin:miter;stroke-opacity:1"/>
<path class="bond-24 atom-24 atom-25" d="M 228.4,95.9 L 227.4,101.8" style="fill:none;fill-rule:evenodd;stroke:#FF0000;stroke-width:2.0px;stroke-linecap:butt;stroke-linejoin:miter;stroke-opacity:1"/>
<path class="bond-24 atom-24 atom-25" d="M 233.7,90.8 L 232.7,96.7" style="fill:none;fill-rule:evenodd;stroke:#000000;stroke-width:2.0px;stroke-linecap:butt;stroke-linejoin:miter;stroke-opacity:1"/>
<path class="bond-24 atom-24 atom-25" d="M 232.7,96.7 L 231.6,102.5" style="fill:none;fill-rule:evenodd;stroke:#FF0000;stroke-width:2.0px;stroke-linecap:butt;stroke-linejoin:miter;stroke-opacity:1"/>
<path class="bond-25 atom-24 atom-26" d="M 231.3,91.7 L 243.0,87.4" style="fill:none;fill-rule:evenodd;stroke:#000000;stroke-width:2.0px;stroke-linecap:butt;stroke-linejoin:miter;stroke-opacity:1"/>
<path class="bond-25 atom-24 atom-26" d="M 243.0,87.4 L 254.8,83.1" style="fill:none;fill-rule:evenodd;stroke:#FF0000;stroke-width:2.0px;stroke-linecap:butt;stroke-linejoin:miter;stroke-opacity:1"/>
<path class="bond-26 atom-18 atom-27" d="M 174.8,112.2 L 204.5,117.4" style="fill:none;fill-rule:evenodd;stroke:#000000;stroke-width:2.0px;stroke-linecap:butt;stroke-linejoin:miter;stroke-opacity:1"/>
<path class="bond-27 atom-27 atom-28" d="M 205.2,119.5 L 209.5,116.4" style="fill:none;fill-rule:evenodd;stroke:#000000;stroke-width:2.0px;stroke-linecap:butt;stroke-linejoin:miter;stroke-opacity:1"/>
<path class="bond-27 atom-27 atom-28" d="M 209.5,116.4 L 213.8,113.3" style="fill:none;fill-rule:evenodd;stroke:#FF0000;stroke-width:2.0px;stroke-linecap:butt;stroke-linejoin:miter;stroke-opacity:1"/>
<path class="bond-27 atom-27 atom-28" d="M 201.5,116.9 L 207.0,113.0" style="fill:none;fill-rule:evenodd;stroke:#000000;stroke-width:2.0px;stroke-linecap:butt;stroke-linejoin:miter;stroke-opacity:1"/>
<path class="bond-27 atom-27 atom-28" d="M 207.0,113.0 L 211.3,109.8" style="fill:none;fill-rule:evenodd;stroke:#FF0000;stroke-width:2.0px;stroke-linecap:butt;stroke-linejoin:miter;stroke-opacity:1"/>
<path class="bond-28 atom-27 atom-29" d="M 204.5,117.4 L 208.6,128.9" style="fill:none;fill-rule:evenodd;stroke:#000000;stroke-width:2.0px;stroke-linecap:butt;stroke-linejoin:miter;stroke-opacity:1"/>
<path class="bond-28 atom-27 atom-29" d="M 208.6,128.9 L 212.8,140.4" style="fill:none;fill-rule:evenodd;stroke:#FF0000;stroke-width:2.0px;stroke-linecap:butt;stroke-linejoin:miter;stroke-opacity:1"/>
<path class="bond-29 atom-1 atom-30" d="M 100.1,103.1 L 89.8,74.9" style="fill:none;fill-rule:evenodd;stroke:#000000;stroke-width:2.0px;stroke-linecap:butt;stroke-linejoin:miter;stroke-opacity:1"/>
<path class="bond-30 atom-30 atom-31" d="M 90.8,72.9 L 78.1,70.6" style="fill:none;fill-rule:evenodd;stroke:#000000;stroke-width:2.0px;stroke-linecap:butt;stroke-linejoin:miter;stroke-opacity:1"/>
<path class="bond-30 atom-30 atom-31" d="M 78.1,70.6 L 65.4,68.4" style="fill:none;fill-rule:evenodd;stroke:#FF0000;stroke-width:2.0px;stroke-linecap:butt;stroke-linejoin:miter;stroke-opacity:1"/>
<path class="bond-30 atom-30 atom-31" d="M 90.7,77.2 L 77.4,74.9" style="fill:none;fill-rule:evenodd;stroke:#000000;stroke-width:2.0px;stroke-linecap:butt;stroke-linejoin:miter;stroke-opacity:1"/>
<path class="bond-30 atom-30 atom-31" d="M 77.4,74.9 L 64.7,72.6" style="fill:none;fill-rule:evenodd;stroke:#FF0000;stroke-width:2.0px;stroke-linecap:butt;stroke-linejoin:miter;stroke-opacity:1"/>
<path class="bond-31 atom-30 atom-32" d="M 89.8,74.9 L 95.1,64.1" style="fill:none;fill-rule:evenodd;stroke:#000000;stroke-width:2.0px;stroke-linecap:butt;stroke-linejoin:miter;stroke-opacity:1"/>
<path class="bond-31 atom-30 atom-32" d="M 95.1,64.1 L 100.4,53.2" style="fill:none;fill-rule:evenodd;stroke:#FF0000;stroke-width:2.0px;stroke-linecap:butt;stroke-linejoin:miter;stroke-opacity:1"/>
<path d="M 126.9,93.4 L 128.4,92.9 L 128.6,91.4" style="fill:none;stroke:#000000;stroke-width:2.0px;stroke-linecap:butt;stroke-linejoin:miter;stroke-opacity:1;"/>
<path d="M 160.4,53.5 L 161.8,53.0 L 161.9,52.4" style="fill:none;stroke:#000000;stroke-width:2.0px;stroke-linecap:butt;stroke-linejoin:miter;stroke-opacity:1;"/>
<path d="M 111.7,44.9 L 110.5,43.9 L 110.7,43.3" style="fill:none;stroke:#000000;stroke-width:2.0px;stroke-linecap:butt;stroke-linejoin:miter;stroke-opacity:1;"/>
<path d="M 109.9,130.0 L 110.4,131.4 L 111.9,131.7" style="fill:none;stroke:#000000;stroke-width:2.0px;stroke-linecap:butt;stroke-linejoin:miter;stroke-opacity:1;"/>
<path d="M 135.0,164.8 L 134.8,166.2 L 135.2,166.6" style="fill:none;stroke:#000000;stroke-width:2.0px;stroke-linecap:butt;stroke-linejoin:miter;stroke-opacity:1;"/>
<path d="M 179.8,84.1 L 180.1,82.6 L 181.5,82.1" style="fill:none;stroke:#000000;stroke-width:2.0px;stroke-linecap:butt;stroke-linejoin:miter;stroke-opacity:1;"/>
<path d="M 213.3,44.2 L 213.5,42.7 L 214.1,42.5" style="fill:none;stroke:#000000;stroke-width:2.0px;stroke-linecap:butt;stroke-linejoin:miter;stroke-opacity:1;"/>
<path d="M 230.2,90.7 L 231.3,91.7 L 231.9,91.4" style="fill:none;stroke:#000000;stroke-width:2.0px;stroke-linecap:butt;stroke-linejoin:miter;stroke-opacity:1;"/>
<path d="M 203.0,117.2 L 204.5,117.4 L 204.7,118.0" style="fill:none;stroke:#000000;stroke-width:2.0px;stroke-linecap:butt;stroke-linejoin:miter;stroke-opacity:1;"/>
<path d="M 90.3,76.3 L 89.8,74.9 L 90.1,74.3" style="fill:none;stroke:#000000;stroke-width:2.0px;stroke-linecap:butt;stroke-linejoin:miter;stroke-opacity:1;"/>
<path class="atom-5" d="M 163.1 23.4 Q 163.1 21.3, 164.2 20.2 Q 165.2 19.0, 167.1 19.0 Q 168.9 19.0, 170.0 20.2 Q 171.0 21.3, 171.0 23.4 Q 171.0 25.4, 169.9 26.6 Q 168.9 27.8, 167.1 27.8 Q 165.2 27.8, 164.2 26.6 Q 163.1 25.5, 163.1 23.4 M 167.1 26.8 Q 168.4 26.8, 169.1 26.0 Q 169.8 25.1, 169.8 23.4 Q 169.8 21.7, 169.1 20.9 Q 168.4 20.0, 167.1 20.0 Q 165.8 20.0, 165.0 20.8 Q 164.3 21.7, 164.3 23.4 Q 164.3 25.1, 165.0 26.0 Q 165.8 26.8, 167.1 26.8 " fill="#FF0000"/>
<path class="atom-5" d="M 172.3 19.1 L 173.4 19.1 L 173.4 22.8 L 177.8 22.8 L 177.8 19.1 L 179.0 19.1 L 179.0 27.7 L 177.8 27.7 L 177.8 23.7 L 173.4 23.7 L 173.4 27.7 L 172.3 27.7 L 172.3 19.1 " fill="#FF0000"/>
<path class="atom-7" d="M 78.4 54.2 Q 78.4 52.2, 79.4 51.0 Q 80.4 49.9, 82.3 49.9 Q 84.2 49.9, 85.2 51.0 Q 86.2 52.2, 86.2 54.2 Q 86.2 56.3, 85.2 57.5 Q 84.2 58.6, 82.3 58.6 Q 80.4 58.6, 79.4 57.5 Q 78.4 56.3, 78.4 54.2 M 82.3 57.7 Q 83.6 57.7, 84.3 56.8 Q 85.0 55.9, 85.0 54.2 Q 85.0 52.6, 84.3 51.7 Q 83.6 50.9, 82.3 50.9 Q 81.0 50.9, 80.3 51.7 Q 79.6 52.5, 79.6 54.2 Q 79.6 56.0, 80.3 56.8 Q 81.0 57.7, 82.3 57.7 " fill="#FF0000"/>
<path class="atom-8" d="M 111.9 14.3 Q 111.9 12.3, 112.9 11.1 Q 113.9 10.0, 115.8 10.0 Q 117.7 10.0, 118.7 11.1 Q 119.7 12.3, 119.7 14.3 Q 119.7 16.4, 118.7 17.6 Q 117.6 18.7, 115.8 18.7 Q 113.9 18.7, 112.9 17.6 Q 111.9 16.4, 111.9 14.3 M 115.8 17.8 Q 117.1 17.8, 117.8 16.9 Q 118.5 16.0, 118.5 14.3 Q 118.5 12.7, 117.8 11.8 Q 117.1 11.0, 115.8 11.0 Q 114.5 11.0, 113.8 11.8 Q 113.1 12.6, 113.1 14.3 Q 113.1 16.1, 113.8 16.9 Q 114.5 17.8, 115.8 17.8 " fill="#FF0000"/>
<path class="atom-8" d="M 121.0 10.1 L 122.2 10.1 L 122.2 13.7 L 126.5 13.7 L 126.5 10.1 L 127.7 10.1 L 127.7 18.6 L 126.5 18.6 L 126.5 14.7 L 122.2 14.7 L 122.2 18.6 L 121.0 18.6 L 121.0 10.1 " fill="#FF0000"/>
<path class="atom-13" d="M 102.6 176.5 Q 102.6 174.5, 103.6 173.4 Q 104.6 172.2, 106.5 172.2 Q 108.4 172.2, 109.4 173.4 Q 110.4 174.5, 110.4 176.5 Q 110.4 178.6, 109.4 179.8 Q 108.4 181.0, 106.5 181.0 Q 104.7 181.0, 103.6 179.8 Q 102.6 178.6, 102.6 176.5 M 106.5 180.0 Q 107.8 180.0, 108.5 179.1 Q 109.2 178.3, 109.2 176.5 Q 109.2 174.9, 108.5 174.0 Q 107.8 173.2, 106.5 173.2 Q 105.2 173.2, 104.5 174.0 Q 103.8 174.9, 103.8 176.5 Q 103.8 178.3, 104.5 179.1 Q 105.2 180.0, 106.5 180.0 " fill="#FF0000"/>
<path class="atom-14" d="M 153.9 185.6 Q 153.9 183.5, 154.9 182.4 Q 155.9 181.3, 157.8 181.3 Q 159.7 181.3, 160.7 182.4 Q 161.7 183.5, 161.7 185.6 Q 161.7 187.7, 160.7 188.8 Q 159.7 190.0, 157.8 190.0 Q 155.9 190.0, 154.9 188.8 Q 153.9 187.7, 153.9 185.6 M 157.8 189.0 Q 159.1 189.0, 159.8 188.2 Q 160.5 187.3, 160.5 185.6 Q 160.5 183.9, 159.8 183.1 Q 159.1 182.2, 157.8 182.2 Q 156.5 182.2, 155.8 183.1 Q 155.1 183.9, 155.1 185.6 Q 155.1 187.3, 155.8 188.2 Q 156.5 189.0, 157.8 189.0 " fill="#FF0000"/>
<path class="atom-14" d="M 163.1 181.4 L 164.2 181.4 L 164.2 185.0 L 168.6 185.0 L 168.6 181.4 L 169.7 181.4 L 169.7 189.9 L 168.6 189.9 L 168.6 185.9 L 164.2 185.9 L 164.2 189.9 L 163.1 189.9 L 163.1 181.4 " fill="#FF0000"/>
<path class="atom-17" d="M 146.5 77.4 Q 146.5 75.4, 147.5 74.2 Q 148.6 73.1, 150.4 73.1 Q 152.3 73.1, 153.3 74.2 Q 154.4 75.4, 154.4 77.4 Q 154.4 79.5, 153.3 80.7 Q 152.3 81.8, 150.4 81.8 Q 148.6 81.8, 147.5 80.7 Q 146.5 79.5, 146.5 77.4 M 150.4 80.9 Q 151.7 80.9, 152.4 80.0 Q 153.2 79.1, 153.2 77.4 Q 153.2 75.7, 152.4 74.9 Q 151.7 74.1, 150.4 74.1 Q 149.1 74.1, 148.4 74.9 Q 147.7 75.7, 147.7 77.4 Q 147.7 79.1, 148.4 80.0 Q 149.1 80.9, 150.4 80.9 " fill="#FF0000"/>
<path class="atom-17" d="M 155.7 73.2 L 156.8 73.2 L 156.8 76.8 L 161.2 76.8 L 161.2 73.2 L 162.3 73.2 L 162.3 81.7 L 161.2 81.7 L 161.2 77.8 L 156.8 77.8 L 156.8 81.7 L 155.7 81.7 L 155.7 73.2 " fill="#FF0000"/>
<path class="atom-23" d="M 237.9 32.5 Q 237.9 30.4, 238.9 29.3 Q 239.9 28.1, 241.8 28.1 Q 243.7 28.1, 244.7 29.3 Q 245.7 30.4, 245.7 32.5 Q 245.7 34.5, 244.7 35.7 Q 243.7 36.9, 241.8 36.9 Q 239.9 36.9, 238.9 35.7 Q 237.9 34.5, 237.9 32.5 M 241.8 35.9 Q 243.1 35.9, 243.8 35.0 Q 244.5 34.2, 244.5 32.5 Q 244.5 30.8, 243.8 29.9 Q 243.1 29.1, 241.8 29.1 Q 240.5 29.1, 239.8 29.9 Q 239.1 30.8, 239.1 32.5 Q 239.1 34.2, 239.8 35.0 Q 240.5 35.9, 241.8 35.9 " fill="#FF0000"/>
<path class="atom-23" d="M 247.0 28.2 L 248.2 28.2 L 248.2 31.8 L 252.5 31.8 L 252.5 28.2 L 253.7 28.2 L 253.7 36.7 L 252.5 36.7 L 252.5 32.8 L 248.2 32.8 L 248.2 36.7 L 247.0 36.7 L 247.0 28.2 " fill="#FF0000"/>
<path class="atom-25" d="M 224.7 107.4 Q 224.7 105.4, 225.7 104.2 Q 226.7 103.1, 228.6 103.1 Q 230.5 103.1, 231.5 104.2 Q 232.5 105.4, 232.5 107.4 Q 232.5 109.5, 231.5 110.7 Q 230.4 111.8, 228.6 111.8 Q 226.7 111.8, 225.7 110.7 Q 224.7 109.5, 224.7 107.4 M 228.6 110.9 Q 229.9 110.9, 230.6 110.0 Q 231.3 109.1, 231.3 107.4 Q 231.3 105.7, 230.6 104.9 Q 229.9 104.0, 228.6 104.0 Q 227.3 104.0, 226.6 104.9 Q 225.9 105.7, 225.9 107.4 Q 225.9 109.1, 226.6 110.0 Q 227.3 110.9, 228.6 110.9 " fill="#FF0000"/>
<path class="atom-26" d="M 255.7 81.4 Q 255.7 79.3, 256.7 78.2 Q 257.7 77.1, 259.6 77.1 Q 261.5 77.1, 262.5 78.2 Q 263.5 79.3, 263.5 81.4 Q 263.5 83.5, 262.5 84.6 Q 261.5 85.8, 259.6 85.8 Q 257.7 85.8, 256.7 84.6 Q 255.7 83.5, 255.7 81.4 M 259.6 84.8 Q 260.9 84.8, 261.6 84.0 Q 262.3 83.1, 262.3 81.4 Q 262.3 79.7, 261.6 78.9 Q 260.9 78.0, 259.6 78.0 Q 258.3 78.0, 257.6 78.9 Q 256.9 79.7, 256.9 81.4 Q 256.9 83.1, 257.6 84.0 Q 258.3 84.8, 259.6 84.8 " fill="#FF0000"/>
<path class="atom-26" d="M 264.8 77.2 L 266.0 77.2 L 266.0 80.8 L 270.3 80.8 L 270.3 77.2 L 271.5 77.2 L 271.5 85.7 L 270.3 85.7 L 270.3 81.7 L 266.0 81.7 L 266.0 85.7 L 264.8 85.7 L 264.8 77.2 " fill="#FF0000"/>
<path class="atom-28" d="M 213.5 108.1 Q 213.5 106.0, 214.5 104.9 Q 215.5 103.7, 217.4 103.7 Q 219.3 103.7, 220.3 104.9 Q 221.3 106.0, 221.3 108.1 Q 221.3 110.1, 220.3 111.3 Q 219.2 112.5, 217.4 112.5 Q 215.5 112.5, 214.5 111.3 Q 213.5 110.2, 213.5 108.1 M 217.4 111.5 Q 218.7 111.5, 219.4 110.7 Q 220.1 109.8, 220.1 108.1 Q 220.1 106.4, 219.4 105.6 Q 218.7 104.7, 217.4 104.7 Q 216.1 104.7, 215.4 105.6 Q 214.7 106.4, 214.7 108.1 Q 214.7 109.8, 215.4 110.7 Q 216.1 111.5, 217.4 111.5 " fill="#FF0000"/>
<path class="atom-29" d="M 210.8 145.7 Q 210.8 143.7, 211.8 142.5 Q 212.9 141.4, 214.7 141.4 Q 216.6 141.4, 217.6 142.5 Q 218.6 143.7, 218.6 145.7 Q 218.6 147.8, 217.6 149.0 Q 216.6 150.1, 214.7 150.1 Q 212.9 150.1, 211.8 149.0 Q 210.8 147.8, 210.8 145.7 M 214.7 149.2 Q 216.0 149.2, 216.7 148.3 Q 217.4 147.4, 217.4 145.7 Q 217.4 144.1, 216.7 143.2 Q 216.0 142.4, 214.7 142.4 Q 213.4 142.4, 212.7 143.2 Q 212.0 144.0, 212.0 145.7 Q 212.0 147.4, 212.7 148.3 Q 213.4 149.2, 214.7 149.2 " fill="#FF0000"/>
<path class="atom-29" d="M 220.0 141.5 L 221.1 141.5 L 221.1 145.1 L 225.5 145.1 L 225.5 141.5 L 226.6 141.5 L 226.6 150.0 L 225.5 150.0 L 225.5 146.1 L 221.1 146.1 L 221.1 150.0 L 220.0 150.0 L 220.0 141.5 " fill="#FF0000"/>
<path class="atom-31" d="M 56.3 69.7 Q 56.3 67.7, 57.3 66.5 Q 58.3 65.4, 60.2 65.4 Q 62.1 65.4, 63.1 66.5 Q 64.1 67.7, 64.1 69.7 Q 64.1 71.8, 63.1 72.9 Q 62.1 74.1, 60.2 74.1 Q 58.3 74.1, 57.3 72.9 Q 56.3 71.8, 56.3 69.7 M 60.2 73.1 Q 61.5 73.1, 62.2 72.3 Q 62.9 71.4, 62.9 69.7 Q 62.9 68.0, 62.2 67.2 Q 61.5 66.3, 60.2 66.3 Q 58.9 66.3, 58.2 67.2 Q 57.5 68.0, 57.5 69.7 Q 57.5 71.4, 58.2 72.3 Q 58.9 73.1, 60.2 73.1 " fill="#FF0000"/>
<path class="atom-32" d="M 99.1 47.9 Q 99.1 45.8, 100.1 44.7 Q 101.1 43.6, 103.0 43.6 Q 104.9 43.6, 105.9 44.7 Q 106.9 45.8, 106.9 47.9 Q 106.9 50.0, 105.9 51.1 Q 104.9 52.3, 103.0 52.3 Q 101.1 52.3, 100.1 51.1 Q 99.1 50.0, 99.1 47.9 M 103.0 51.3 Q 104.3 51.3, 105.0 50.5 Q 105.7 49.6, 105.7 47.9 Q 105.7 46.2, 105.0 45.4 Q 104.3 44.5, 103.0 44.5 Q 101.7 44.5, 101.0 45.4 Q 100.3 46.2, 100.3 47.9 Q 100.3 49.6, 101.0 50.5 Q 101.7 51.3, 103.0 51.3 " fill="#FF0000"/>
<path class="atom-32" d="M 108.2 43.7 L 109.4 43.7 L 109.4 47.3 L 113.7 47.3 L 113.7 43.7 L 114.9 43.7 L 114.9 52.2 L 113.7 52.2 L 113.7 48.2 L 109.4 48.2 L 109.4 52.2 L 108.2 52.2 L 108.2 43.7 " fill="#FF0000"/>
</svg>
