<?xml version='1.0' encoding='ASCII' standalone='yes'?>
<svg xmlns="http://www.w3.org/2000/svg" xmlns:rdkit="http://www.rdkit.org/xml" xmlns:xlink="http://www.w3.org/1999/xlink" version="1.1" baseProfile="full" xml:space="preserve" width="323px" height="200px" viewBox="0 0 323 200">
<!-- END OF HEADER -->
<rect style="opacity:1.0;fill:#FFFFFF;stroke:none" width="323.0" height="200.0" x="0.0" y="0.0"> </rect>
<path class="bond-0 atom-0 atom-1" d="M 280.0,50.1 L 264.9,71.9" style="fill:none;fill-rule:evenodd;stroke:#000000;stroke-width:2.0px;stroke-linecap:butt;stroke-linejoin:miter;stroke-opacity:1"/>
<path class="bond-1 atom-1 atom-2" d="M 264.9,71.9 L 238.5,69.8" style="fill:none;fill-rule:evenodd;stroke:#000000;stroke-width:2.0px;stroke-linecap:butt;stroke-linejoin:miter;stroke-opacity:1"/>
<path class="bond-2 atom-2 atom-3" d="M 238.5,69.8 L 223.4,91.6" style="fill:none;fill-rule:evenodd;stroke:#000000;stroke-width:2.0px;stroke-linecap:butt;stroke-linejoin:miter;stroke-opacity:1"/>
<path class="bond-3 atom-3 atom-4" d="M 223.4,91.6 L 197.0,89.4" style="fill:none;fill-rule:evenodd;stroke:#000000;stroke-width:2.0px;stroke-linecap:butt;stroke-linejoin:miter;stroke-opacity:1"/>
<path class="bond-4 atom-4 atom-5" d="M 197.0,89.4 L 185.6,65.4" style="fill:none;fill-rule:evenodd;stroke:#000000;stroke-width:2.0px;stroke-linecap:butt;stroke-linejoin:miter;stroke-opacity:1"/>
<path class="bond-5 atom-5 atom-6" d="M 186.6,67.5 L 192.8,58.5" style="fill:none;fill-rule:evenodd;stroke:#000000;stroke-width:2.0px;stroke-linecap:butt;stroke-linejoin:miter;stroke-opacity:1"/>
<path class="bond-5 atom-5 atom-6" d="M 192.8,58.5 L 199.0,49.5" style="fill:none;fill-rule:evenodd;stroke:#FF0000;stroke-width:2.0px;stroke-linecap:butt;stroke-linejoin:miter;stroke-opacity:1"/>
<path class="bond-5 atom-5 atom-6" d="M 183.4,65.3 L 189.6,56.3" style="fill:none;fill-rule:evenodd;stroke:#000000;stroke-width:2.0px;stroke-linecap:butt;stroke-linejoin:miter;stroke-opacity:1"/>
<path class="bond-5 atom-5 atom-6" d="M 189.6,56.3 L 195.8,47.3" style="fill:none;fill-rule:evenodd;stroke:#FF0000;stroke-width:2.0px;stroke-linecap:butt;stroke-linejoin:miter;stroke-opacity:1"/>
<path class="bond-6 atom-5 atom-7" d="M 185.6,65.4 L 174.6,64.5" style="fill:none;fill-rule:evenodd;stroke:#000000;stroke-width:2.0px;stroke-linecap:butt;stroke-linejoin:miter;stroke-opacity:1"/>
<path class="bond-6 atom-5 atom-7" d="M 174.6,64.5 L 163.5,63.6" style="fill:none;fill-rule:evenodd;stroke:#FF0000;stroke-width:2.0px;stroke-linecap:butt;stroke-linejoin:miter;stroke-opacity:1"/>
<path class="bond-7 atom-4 atom-8" d="M 197.0,89.4 L 181.9,111.2" style="fill:none;fill-rule:evenodd;stroke:#000000;stroke-width:2.0px;stroke-linecap:butt;stroke-linejoin:miter;stroke-opacity:1"/>
<path class="bond-8 atom-8 atom-9" d="M 181.9,111.2 L 203.7,126.3" style="fill:none;fill-rule:evenodd;stroke:#000000;stroke-width:2.0px;stroke-linecap:butt;stroke-linejoin:miter;stroke-opacity:1"/>
<path class="bond-9 atom-8 atom-10" d="M 181.9,111.2 L 160.1,96.1" style="fill:none;fill-rule:evenodd;stroke:#000000;stroke-width:2.0px;stroke-linecap:butt;stroke-linejoin:miter;stroke-opacity:1"/>
<path class="bond-10 atom-10 atom-11" d="M 160.1,96.1 L 136.1,107.5" style="fill:none;fill-rule:evenodd;stroke:#000000;stroke-width:2.0px;stroke-linecap:butt;stroke-linejoin:miter;stroke-opacity:1"/>
<path class="bond-11 atom-11 atom-12" d="M 136.1,107.5 L 114.3,92.4" style="fill:none;fill-rule:evenodd;stroke:#000000;stroke-width:2.0px;stroke-linecap:butt;stroke-linejoin:miter;stroke-opacity:1"/>
<path class="bond-12 atom-12 atom-13" d="M 114.3,92.4 L 90.3,103.7" style="fill:none;fill-rule:evenodd;stroke:#000000;stroke-width:2.0px;stroke-linecap:butt;stroke-linejoin:miter;stroke-opacity:1"/>
<path class="bond-13 atom-13 atom-14" d="M 90.3,103.7 L 68.5,88.7" style="fill:none;fill-rule:evenodd;stroke:#000000;stroke-width:2.0px;stroke-linecap:butt;stroke-linejoin:miter;stroke-opacity:1"/>
<path class="bond-14 atom-14 atom-15" d="M 68.5,88.7 L 46.7,73.6" style="fill:none;fill-rule:evenodd;stroke:#000000;stroke-width:2.0px;stroke-linecap:butt;stroke-linejoin:miter;stroke-opacity:1"/>
<path class="bond-15 atom-14 atom-16" d="M 68.5,88.7 L 53.4,110.5" style="fill:none;fill-rule:evenodd;stroke:#000000;stroke-width:2.0px;stroke-linecap:butt;stroke-linejoin:miter;stroke-opacity:1"/>
<path class="bond-16 atom-16 atom-17" d="M 51.2,110.3 L 56.0,120.5" style="fill:none;fill-rule:evenodd;stroke:#000000;stroke-width:2.0px;stroke-linecap:butt;stroke-linejoin:miter;stroke-opacity:1"/>
<path class="bond-16 atom-16 atom-17" d="M 56.0,120.5 L 60.8,130.6" style="fill:none;fill-rule:evenodd;stroke:#FF0000;stroke-width:2.0px;stroke-linecap:butt;stroke-linejoin:miter;stroke-opacity:1"/>
<path class="bond-16 atom-16 atom-17" d="M 54.7,108.6 L 59.6,118.8" style="fill:none;fill-rule:evenodd;stroke:#000000;stroke-width:2.0px;stroke-linecap:butt;stroke-linejoin:miter;stroke-opacity:1"/>
<path class="bond-16 atom-16 atom-17" d="M 59.6,118.8 L 64.4,128.9" style="fill:none;fill-rule:evenodd;stroke:#FF0000;stroke-width:2.0px;stroke-linecap:butt;stroke-linejoin:miter;stroke-opacity:1"/>
<path class="bond-17 atom-16 atom-18" d="M 53.4,110.5 L 42.4,109.6" style="fill:none;fill-rule:evenodd;stroke:#000000;stroke-width:2.0px;stroke-linecap:butt;stroke-linejoin:miter;stroke-opacity:1"/>
<path class="bond-17 atom-16 atom-18" d="M 42.4,109.6 L 31.3,108.7" style="fill:none;fill-rule:evenodd;stroke:#FF0000;stroke-width:2.0px;stroke-linecap:butt;stroke-linejoin:miter;stroke-opacity:1"/>
<path class="bond-18 atom-14 atom-19" d="M 68.5,88.7 L 83.6,66.8" style="fill:none;fill-rule:evenodd;stroke:#000000;stroke-width:2.0px;stroke-linecap:butt;stroke-linejoin:miter;stroke-opacity:1"/>
<path class="bond-19 atom-19 atom-20" d="M 83.6,66.8 L 102.7,63.7" style="fill:none;fill-rule:evenodd;stroke:#000000;stroke-width:2.0px;stroke-linecap:butt;stroke-linejoin:miter;stroke-opacity:1"/>
<path class="bond-20 atom-19 atom-21" d="M 83.6,66.8 L 79.1,57.3" style="fill:none;fill-rule:evenodd;stroke:#000000;stroke-width:2.0px;stroke-linecap:butt;stroke-linejoin:miter;stroke-opacity:1"/>
<path class="bond-20 atom-19 atom-21" d="M 79.1,57.3 L 74.5,47.7" style="fill:none;fill-rule:evenodd;stroke:#FF0000;stroke-width:2.0px;stroke-linecap:butt;stroke-linejoin:miter;stroke-opacity:1"/>
<path class="bond-21 atom-12 atom-22" d="M 114.3,92.4 L 116.5,66.0" style="fill:none;fill-rule:evenodd;stroke:#000000;stroke-width:2.0px;stroke-linecap:butt;stroke-linejoin:miter;stroke-opacity:1"/>
<path class="bond-22 atom-22 atom-23" d="M 116.3,68.2 L 126.6,63.3" style="fill:none;fill-rule:evenodd;stroke:#000000;stroke-width:2.0px;stroke-linecap:butt;stroke-linejoin:miter;stroke-opacity:1"/>
<path class="bond-22 atom-22 atom-23" d="M 126.6,63.3 L 137.0,58.4" style="fill:none;fill-rule:evenodd;stroke:#FF0000;stroke-width:2.0px;stroke-linecap:butt;stroke-linejoin:miter;stroke-opacity:1"/>
<path class="bond-22 atom-22 atom-23" d="M 114.6,64.7 L 124.9,59.8" style="fill:none;fill-rule:evenodd;stroke:#000000;stroke-width:2.0px;stroke-linecap:butt;stroke-linejoin:miter;stroke-opacity:1"/>
<path class="bond-22 atom-22 atom-23" d="M 124.9,59.8 L 135.3,54.9" style="fill:none;fill-rule:evenodd;stroke:#FF0000;stroke-width:2.0px;stroke-linecap:butt;stroke-linejoin:miter;stroke-opacity:1"/>
<path class="bond-23 atom-22 atom-24" d="M 116.5,66.0 L 107.7,59.9" style="fill:none;fill-rule:evenodd;stroke:#000000;stroke-width:2.0px;stroke-linecap:butt;stroke-linejoin:miter;stroke-opacity:1"/>
<path class="bond-23 atom-22 atom-24" d="M 107.7,59.9 L 99.0,53.9" style="fill:none;fill-rule:evenodd;stroke:#FF0000;stroke-width:2.0px;stroke-linecap:butt;stroke-linejoin:miter;stroke-opacity:1"/>
<path class="bond-24 atom-8 atom-25" d="M 181.9,111.2 L 166.8,133.0" style="fill:none;fill-rule:evenodd;stroke:#000000;stroke-width:2.0px;stroke-linecap:butt;stroke-linejoin:miter;stroke-opacity:1"/>
<path class="bond-25 atom-25 atom-26" d="M 168.1,131.2 L 156.5,130.2" style="fill:none;fill-rule:evenodd;stroke:#000000;stroke-width:2.0px;stroke-linecap:butt;stroke-linejoin:miter;stroke-opacity:1"/>
<path class="bond-25 atom-25 atom-26" d="M 156.5,130.2 L 144.9,129.3" style="fill:none;fill-rule:evenodd;stroke:#FF0000;stroke-width:2.0px;stroke-linecap:butt;stroke-linejoin:miter;stroke-opacity:1"/>
<path class="bond-25 atom-25 atom-26" d="M 167.8,135.1 L 156.2,134.1" style="fill:none;fill-rule:evenodd;stroke:#000000;stroke-width:2.0px;stroke-linecap:butt;stroke-linejoin:miter;stroke-opacity:1"/>
<path class="bond-25 atom-25 atom-26" d="M 156.2,134.1 L 144.5,133.2" style="fill:none;fill-rule:evenodd;stroke:#FF0000;stroke-width:2.0px;stroke-linecap:butt;stroke-linejoin:miter;stroke-opacity:1"/>
<path class="bond-26 atom-25 atom-27" d="M 166.8,133.0 L 171.4,142.7" style="fill:none;fill-rule:evenodd;stroke:#000000;stroke-width:2.0px;stroke-linecap:butt;stroke-linejoin:miter;stroke-opacity:1"/>
<path class="bond-26 atom-25 atom-27" d="M 171.4,142.7 L 175.9,152.3" style="fill:none;fill-rule:evenodd;stroke:#FF0000;stroke-width:2.0px;stroke-linecap:butt;stroke-linejoin:miter;stroke-opacity:1"/>
<path class="bond-27 atom-1 atom-28" d="M 264.9,71.9 L 276.3,95.9" style="fill:none;fill-rule:evenodd;stroke:#000000;stroke-width:2.0px;stroke-linecap:butt;stroke-linejoin:miter;stroke-opacity:1"/>
<path class="bond-28 atom-28 atom-29" d="M 275.0,97.8 L 286.6,98.7" style="fill:none;fill-rule:evenodd;stroke:#000000;stroke-width:2.0px;stroke-linecap:butt;stroke-linejoin:miter;stroke-opacity:1"/>
<path class="bond-28 atom-28 atom-29" d="M 286.6,98.7 L 298.2,99.7" style="fill:none;fill-rule:evenodd;stroke:#FF0000;stroke-width:2.0px;stroke-linecap:butt;stroke-linejoin:miter;stroke-opacity:1"/>
<path class="bond-28 atom-28 atom-29" d="M 275.3,93.8 L 286.9,94.8" style="fill:none;fill-rule:evenodd;stroke:#000000;stroke-width:2.0px;stroke-linecap:butt;stroke-linejoin:miter;stroke-opacity:1"/>
<path class="bond-28 atom-28 atom-29" d="M 286.9,94.8 L 298.5,95.7" style="fill:none;fill-rule:evenodd;stroke:#FF0000;stroke-width:2.0px;stroke-linecap:butt;stroke-linejoin:miter;stroke-opacity:1"/>
<path class="bond-29 atom-28 atom-30" d="M 276.3,95.9 L 270.3,104.5" style="fill:none;fill-rule:evenodd;stroke:#000000;stroke-width:2.0px;stroke-linecap:butt;stroke-linejoin:miter;stroke-opacity:1"/>
<path class="bond-29 atom-28 atom-30" d="M 270.3,104.5 L 264.4,113.0" style="fill:none;fill-rule:evenodd;stroke:#FF0000;stroke-width:2.0px;stroke-linecap:butt;stroke-linejoin:miter;stroke-opacity:1"/>
<path d="M 239.8,69.9 L 238.5,69.8 L 237.7,70.9" style="fill:none;stroke:#000000;stroke-width:2.0px;stroke-linecap:butt;stroke-linejoin:miter;stroke-opacity:1;"/>
<path d="M 224.2,90.5 L 223.4,91.6 L 222.1,91.5" style="fill:none;stroke:#000000;stroke-width:2.0px;stroke-linecap:butt;stroke-linejoin:miter;stroke-opacity:1;"/>
<path d="M 186.2,66.6 L 185.6,65.4 L 185.1,65.4" style="fill:none;stroke:#000000;stroke-width:2.0px;stroke-linecap:butt;stroke-linejoin:miter;stroke-opacity:1;"/>
<path d="M 161.2,96.9 L 160.1,96.1 L 158.9,96.7" style="fill:none;stroke:#000000;stroke-width:2.0px;stroke-linecap:butt;stroke-linejoin:miter;stroke-opacity:1;"/>
<path d="M 137.3,106.9 L 136.1,107.5 L 135.0,106.7" style="fill:none;stroke:#000000;stroke-width:2.0px;stroke-linecap:butt;stroke-linejoin:miter;stroke-opacity:1;"/>
<path d="M 91.5,103.2 L 90.3,103.7 L 89.2,103.0" style="fill:none;stroke:#000000;stroke-width:2.0px;stroke-linecap:butt;stroke-linejoin:miter;stroke-opacity:1;"/>
<path d="M 54.2,109.4 L 53.4,110.5 L 52.9,110.4" style="fill:none;stroke:#000000;stroke-width:2.0px;stroke-linecap:butt;stroke-linejoin:miter;stroke-opacity:1;"/>
<path d="M 116.4,67.3 L 116.5,66.0 L 116.0,65.7" style="fill:none;stroke:#000000;stroke-width:2.0px;stroke-linecap:butt;stroke-linejoin:miter;stroke-opacity:1;"/>
<path d="M 167.6,131.9 L 166.8,133.0 L 167.0,133.5" style="fill:none;stroke:#000000;stroke-width:2.0px;stroke-linecap:butt;stroke-linejoin:miter;stroke-opacity:1;"/>
<path d="M 275.7,94.7 L 276.3,95.9 L 276.0,96.3" style="fill:none;stroke:#000000;stroke-width:2.0px;stroke-linecap:butt;stroke-linejoin:miter;stroke-opacity:1;"/>
<path class="atom-6" d="M 197.3 43.7 Q 197.3 41.9, 198.2 40.8 Q 199.1 39.8, 200.7 39.8 Q 202.4 39.8, 203.3 40.8 Q 204.2 41.9, 204.2 43.7 Q 204.2 45.5, 203.3 46.5 Q 202.4 47.5, 200.7 47.5 Q 199.1 47.5, 198.2 46.5 Q 197.3 45.5, 197.3 43.7 M 200.7 46.7 Q 201.9 46.7, 202.5 45.9 Q 203.1 45.2, 203.1 43.7 Q 203.1 42.2, 202.5 41.4 Q 201.9 40.7, 200.7 40.7 Q 199.6 40.7, 198.9 41.4 Q 198.3 42.2, 198.3 43.7 Q 198.3 45.2, 198.9 45.9 Q 199.6 46.7, 200.7 46.7 " fill="#FF0000"/>
<path class="atom-7" d="M 148.3 59.6 L 149.4 59.6 L 149.4 62.8 L 153.2 62.8 L 153.2 59.6 L 154.2 59.6 L 154.2 67.1 L 153.2 67.1 L 153.2 63.6 L 149.4 63.6 L 149.4 67.1 L 148.3 67.1 L 148.3 59.6 " fill="#FF0000"/>
<path class="atom-7" d="M 155.8 63.3 Q 155.8 61.5, 156.6 60.5 Q 157.5 59.5, 159.2 59.5 Q 160.9 59.5, 161.8 60.5 Q 162.7 61.5, 162.7 63.3 Q 162.7 65.1, 161.8 66.2 Q 160.8 67.2, 159.2 67.2 Q 157.6 67.2, 156.6 66.2 Q 155.8 65.1, 155.8 63.3 M 159.2 66.4 Q 160.4 66.4, 161.0 65.6 Q 161.6 64.8, 161.6 63.3 Q 161.6 61.8, 161.0 61.1 Q 160.4 60.3, 159.2 60.3 Q 158.1 60.3, 157.4 61.1 Q 156.8 61.8, 156.8 63.3 Q 156.8 64.8, 157.4 65.6 Q 158.1 66.4, 159.2 66.4 " fill="#FF0000"/>
<path class="atom-17" d="M 61.3 134.5 Q 61.3 132.7, 62.2 131.6 Q 63.1 130.6, 64.8 130.6 Q 66.5 130.6, 67.3 131.6 Q 68.2 132.7, 68.2 134.5 Q 68.2 136.3, 67.3 137.3 Q 66.4 138.4, 64.8 138.4 Q 63.1 138.4, 62.2 137.3 Q 61.3 136.3, 61.3 134.5 M 64.8 137.5 Q 65.9 137.5, 66.6 136.7 Q 67.2 136.0, 67.2 134.5 Q 67.2 133.0, 66.6 132.2 Q 65.9 131.5, 64.8 131.5 Q 63.6 131.5, 63.0 132.2 Q 62.4 133.0, 62.4 134.5 Q 62.4 136.0, 63.0 136.7 Q 63.6 137.5, 64.8 137.5 " fill="#FF0000"/>
<path class="atom-18" d="M 16.2 104.6 L 17.2 104.6 L 17.2 107.8 L 21.0 107.8 L 21.0 104.6 L 22.0 104.6 L 22.0 112.1 L 21.0 112.1 L 21.0 108.6 L 17.2 108.6 L 17.2 112.1 L 16.2 112.1 L 16.2 104.6 " fill="#FF0000"/>
<path class="atom-18" d="M 23.6 108.3 Q 23.6 106.5, 24.5 105.5 Q 25.3 104.5, 27.0 104.5 Q 28.7 104.5, 29.6 105.5 Q 30.5 106.5, 30.5 108.3 Q 30.5 110.2, 29.6 111.2 Q 28.7 112.2, 27.0 112.2 Q 25.4 112.2, 24.5 111.2 Q 23.6 110.2, 23.6 108.3 M 27.0 111.4 Q 28.2 111.4, 28.8 110.6 Q 29.4 109.8, 29.4 108.3 Q 29.4 106.9, 28.8 106.1 Q 28.2 105.4, 27.0 105.4 Q 25.9 105.4, 25.2 106.1 Q 24.6 106.8, 24.6 108.3 Q 24.6 109.8, 25.2 110.6 Q 25.9 111.4, 27.0 111.4 " fill="#FF0000"/>
<path class="atom-21" d="M 61.4 39.2 L 62.4 39.2 L 62.4 42.4 L 66.3 42.4 L 66.3 39.2 L 67.3 39.2 L 67.3 46.7 L 66.3 46.7 L 66.3 43.2 L 62.4 43.2 L 62.4 46.7 L 61.4 46.7 L 61.4 39.2 " fill="#FF0000"/>
<path class="atom-21" d="M 68.8 42.9 Q 68.8 41.1, 69.7 40.1 Q 70.6 39.1, 72.3 39.1 Q 73.9 39.1, 74.8 40.1 Q 75.7 41.1, 75.7 42.9 Q 75.7 44.7, 74.8 45.8 Q 73.9 46.8, 72.3 46.8 Q 70.6 46.8, 69.7 45.8 Q 68.8 44.7, 68.8 42.9 M 72.3 45.9 Q 73.4 45.9, 74.0 45.2 Q 74.7 44.4, 74.7 42.9 Q 74.7 41.4, 74.0 40.7 Q 73.4 39.9, 72.3 39.9 Q 71.1 39.9, 70.5 40.7 Q 69.9 41.4, 69.9 42.9 Q 69.9 44.4, 70.5 45.2 Q 71.1 45.9, 72.3 45.9 " fill="#FF0000"/>
<path class="atom-23" d="M 137.0 54.6 Q 137.0 52.8, 137.9 51.8 Q 138.8 50.8, 140.4 50.8 Q 142.1 50.8, 143.0 51.8 Q 143.9 52.8, 143.9 54.6 Q 143.9 56.5, 143.0 57.5 Q 142.1 58.5, 140.4 58.5 Q 138.8 58.5, 137.9 57.5 Q 137.0 56.5, 137.0 54.6 M 140.4 57.7 Q 141.6 57.7, 142.2 56.9 Q 142.8 56.2, 142.8 54.6 Q 142.8 53.2, 142.2 52.4 Q 141.6 51.7, 140.4 51.7 Q 139.3 51.7, 138.7 52.4 Q 138.0 53.2, 138.0 54.6 Q 138.0 56.2, 138.7 56.9 Q 139.3 57.7, 140.4 57.7 " fill="#FF0000"/>
<path class="atom-24" d="M 83.8 47.2 L 84.8 47.2 L 84.8 50.4 L 88.7 50.4 L 88.7 47.2 L 89.7 47.2 L 89.7 54.7 L 88.7 54.7 L 88.7 51.2 L 84.8 51.2 L 84.8 54.7 L 83.8 54.7 L 83.8 47.2 " fill="#FF0000"/>
<path class="atom-24" d="M 91.2 50.9 Q 91.2 49.1, 92.1 48.1 Q 93.0 47.1, 94.7 47.1 Q 96.3 47.1, 97.2 48.1 Q 98.1 49.1, 98.1 50.9 Q 98.1 52.7, 97.2 53.8 Q 96.3 54.8, 94.7 54.8 Q 93.0 54.8, 92.1 53.8 Q 91.2 52.7, 91.2 50.9 M 94.7 53.9 Q 95.8 53.9, 96.4 53.2 Q 97.0 52.4, 97.0 50.9 Q 97.0 49.4, 96.4 48.7 Q 95.8 47.9, 94.7 47.9 Q 93.5 47.9, 92.9 48.7 Q 92.3 49.4, 92.3 50.9 Q 92.3 52.4, 92.9 53.2 Q 93.5 53.9, 94.7 53.9 " fill="#FF0000"/>
<path class="atom-26" d="M 136.9 130.9 Q 136.9 129.1, 137.8 128.1 Q 138.7 127.1, 140.4 127.1 Q 142.0 127.1, 142.9 128.1 Q 143.8 129.1, 143.8 130.9 Q 143.8 132.7, 142.9 133.8 Q 142.0 134.8, 140.4 134.8 Q 138.7 134.8, 137.8 133.8 Q 136.9 132.7, 136.9 130.9 M 140.4 133.9 Q 141.5 133.9, 142.1 133.2 Q 142.8 132.4, 142.8 130.9 Q 142.8 129.4, 142.1 128.7 Q 141.5 127.9, 140.4 127.9 Q 139.2 127.9, 138.6 128.7 Q 138.0 129.4, 138.0 130.9 Q 138.0 132.4, 138.6 133.2 Q 139.2 133.9, 140.4 133.9 " fill="#FF0000"/>
<path class="atom-27" d="M 174.7 157.0 Q 174.7 155.2, 175.6 154.2 Q 176.5 153.2, 178.2 153.2 Q 179.8 153.2, 180.7 154.2 Q 181.6 155.2, 181.6 157.0 Q 181.6 158.8, 180.7 159.9 Q 179.8 160.9, 178.2 160.9 Q 176.5 160.9, 175.6 159.9 Q 174.7 158.9, 174.7 157.0 M 178.2 160.1 Q 179.3 160.1, 179.9 159.3 Q 180.5 158.5, 180.5 157.0 Q 180.5 155.5, 179.9 154.8 Q 179.3 154.1, 178.2 154.1 Q 177.0 154.1, 176.4 154.8 Q 175.8 155.5, 175.8 157.0 Q 175.8 158.5, 176.4 159.3 Q 177.0 160.1, 178.2 160.1 " fill="#FF0000"/>
<path class="atom-27" d="M 182.8 153.3 L 183.8 153.3 L 183.8 156.5 L 187.6 156.5 L 187.6 153.3 L 188.6 153.3 L 188.6 160.8 L 187.6 160.8 L 187.6 157.3 L 183.8 157.3 L 183.8 160.8 L 182.8 160.8 L 182.8 153.3 " fill="#FF0000"/>
<path class="atom-29" d="M 299.3 98.1 Q 299.3 96.3, 300.1 95.3 Q 301.0 94.3, 302.7 94.3 Q 304.4 94.3, 305.3 95.3 Q 306.1 96.3, 306.1 98.1 Q 306.1 99.9, 305.2 100.9 Q 304.3 102.0, 302.7 102.0 Q 301.0 102.0, 300.1 100.9 Q 299.3 99.9, 299.3 98.1 M 302.7 101.1 Q 303.8 101.1, 304.5 100.4 Q 305.1 99.6, 305.1 98.1 Q 305.1 96.6, 304.5 95.9 Q 303.8 95.1, 302.7 95.1 Q 301.6 95.1, 300.9 95.8 Q 300.3 96.6, 300.3 98.1 Q 300.3 99.6, 300.9 100.4 Q 301.6 101.1, 302.7 101.1 " fill="#FF0000"/>
<path class="atom-30" d="M 250.3 114.0 L 251.3 114.0 L 251.3 117.2 L 255.2 117.2 L 255.2 114.0 L 256.2 114.0 L 256.2 121.5 L 255.2 121.5 L 255.2 118.0 L 251.3 118.0 L 251.3 121.5 L 250.3 121.5 L 250.3 114.0 " fill="#FF0000"/>
<path class="atom-30" d="M 257.7 117.7 Q 257.7 115.9, 258.6 114.9 Q 259.5 113.9, 261.2 113.9 Q 262.9 113.9, 263.7 114.9 Q 264.6 115.9, 264.6 117.7 Q 264.6 119.5, 263.7 120.6 Q 262.8 121.6, 261.2 121.6 Q 259.5 121.6, 258.6 120.6 Q 257.7 119.6, 257.7 117.7 M 261.2 120.8 Q 262.3 120.8, 262.9 120.0 Q 263.6 119.2, 263.6 117.7 Q 263.6 116.2, 262.9 115.5 Q 262.3 114.8, 261.2 114.8 Q 260.0 114.8, 259.4 115.5 Q 258.8 116.2, 258.8 117.7 Q 258.8 119.2, 259.4 120.0 Q 260.0 120.8, 261.2 120.8 " fill="#FF0000"/>
</svg>
