<?xml version='1.0' encoding='ASCII' standalone='yes'?>
<svg xmlns="http://www.w3.org/2000/svg" xmlns:rdkit="http://www.rdkit.org/xml" xmlns:xlink="http://www.w3.org/1999/xlink" version="1.1" baseProfile="full" xml:space="preserve" width="437px" height="200px" viewBox="0 0 437 200">
<!-- END OF HEADER -->
<rect style="opacity:1.0;fill:#FFFFFF;stroke:none" width="437.0" height="200.0" x="0.0" y="0.0"> </rect>
<path class="bond-0 atom-0 atom-1" d="M 254.8,64.9 L 255.9,77.5" style="fill:none;fill-rule:evenodd;stroke:#000000;stroke-width:2.0px;stroke-linecap:butt;stroke-linejoin:miter;stroke-opacity:1"/>
<path class="bond-0 atom-0 atom-1" d="M 253.0,65.1 L 254.1,77.6" style="fill:none;fill-rule:evenodd;stroke:#000000;stroke-width:2.0px;stroke-linecap:butt;stroke-linejoin:miter;stroke-opacity:1"/>
<path class="bond-1 atom-1 atom-2" d="M 255.0,77.0 L 245.1,84.0" style="fill:none;fill-rule:evenodd;stroke:#000000;stroke-width:2.0px;stroke-linecap:butt;stroke-linejoin:miter;stroke-opacity:1"/>
<path class="bond-2 atom-2 atom-3" d="M 245.1,84.0 L 246.2,96.0" style="fill:none;fill-rule:evenodd;stroke:#000000;stroke-width:2.0px;stroke-linecap:butt;stroke-linejoin:miter;stroke-opacity:1"/>
<path class="bond-3 atom-3 atom-4" d="M 246.2,96.0 L 236.3,102.9" style="fill:none;fill-rule:evenodd;stroke:#000000;stroke-width:2.0px;stroke-linecap:butt;stroke-linejoin:miter;stroke-opacity:1"/>
<path class="bond-4 atom-4 atom-5" d="M 236.3,102.9 L 238.4,105.3" style="fill:none;fill-rule:evenodd;stroke:#000000;stroke-width:2.0px;stroke-linecap:butt;stroke-linejoin:miter;stroke-opacity:1"/>
<path class="bond-4 atom-4 atom-5" d="M 238.4,105.3 L 240.5,107.6" style="fill:none;fill-rule:evenodd;stroke:#FF0000;stroke-width:2.0px;stroke-linecap:butt;stroke-linejoin:miter;stroke-opacity:1"/>
<path class="bond-5 atom-4 atom-6" d="M 236.3,102.9 L 233.7,99.3" style="fill:none;fill-rule:evenodd;stroke:#000000;stroke-width:2.0px;stroke-linecap:butt;stroke-linejoin:miter;stroke-opacity:1"/>
<path class="bond-5 atom-4 atom-6" d="M 233.7,99.3 L 231.2,95.7" style="fill:none;fill-rule:evenodd;stroke:#FF0000;stroke-width:2.0px;stroke-linecap:butt;stroke-linejoin:miter;stroke-opacity:1"/>
<path class="bond-6 atom-4 atom-7" d="M 236.3,102.9 L 226.4,109.9" style="fill:none;fill-rule:evenodd;stroke:#000000;stroke-width:2.0px;stroke-linecap:butt;stroke-linejoin:miter;stroke-opacity:1"/>
<path class="bond-7 atom-7 atom-8" d="M 226.4,109.9 L 226.8,114.6" style="fill:none;fill-rule:evenodd;stroke:#000000;stroke-width:2.0px;stroke-linecap:butt;stroke-linejoin:miter;stroke-opacity:1"/>
<path class="bond-7 atom-7 atom-8" d="M 226.8,114.6 L 227.3,119.3" style="fill:none;fill-rule:evenodd;stroke:#FF0000;stroke-width:2.0px;stroke-linecap:butt;stroke-linejoin:miter;stroke-opacity:1"/>
<path class="bond-8 atom-8 atom-9" d="M 229.8,123.0 L 233.2,124.6" style="fill:none;fill-rule:evenodd;stroke:#FF0000;stroke-width:2.0px;stroke-linecap:butt;stroke-linejoin:miter;stroke-opacity:1"/>
<path class="bond-8 atom-8 atom-9" d="M 233.2,124.6 L 236.7,126.1" style="fill:none;fill-rule:evenodd;stroke:#FF7F00;stroke-width:2.0px;stroke-linecap:butt;stroke-linejoin:miter;stroke-opacity:1"/>
<path class="bond-9 atom-9 atom-10" d="M 240.8,124.9 L 241.7,123.3" style="fill:none;fill-rule:evenodd;stroke:#FF7F00;stroke-width:2.0px;stroke-linecap:butt;stroke-linejoin:miter;stroke-opacity:1"/>
<path class="bond-9 atom-9 atom-10" d="M 241.7,123.3 L 242.7,121.7" style="fill:none;fill-rule:evenodd;stroke:#FF0000;stroke-width:2.0px;stroke-linecap:butt;stroke-linejoin:miter;stroke-opacity:1"/>
<path class="bond-9 atom-9 atom-10" d="M 239.2,124.0 L 240.2,122.4" style="fill:none;fill-rule:evenodd;stroke:#FF7F00;stroke-width:2.0px;stroke-linecap:butt;stroke-linejoin:miter;stroke-opacity:1"/>
<path class="bond-9 atom-9 atom-10" d="M 240.2,122.4 L 241.2,120.8" style="fill:none;fill-rule:evenodd;stroke:#FF0000;stroke-width:2.0px;stroke-linecap:butt;stroke-linejoin:miter;stroke-opacity:1"/>
<path class="bond-10 atom-9 atom-11" d="M 237.9,129.5 L 237.3,132.9" style="fill:none;fill-rule:evenodd;stroke:#FF7F00;stroke-width:2.0px;stroke-linecap:butt;stroke-linejoin:miter;stroke-opacity:1"/>
<path class="bond-10 atom-9 atom-11" d="M 237.3,132.9 L 236.6,136.3" style="fill:none;fill-rule:evenodd;stroke:#FF0000;stroke-width:2.0px;stroke-linecap:butt;stroke-linejoin:miter;stroke-opacity:1"/>
<path class="bond-11 atom-9 atom-12" d="M 240.2,127.8 L 243.6,129.4" style="fill:none;fill-rule:evenodd;stroke:#FF7F00;stroke-width:2.0px;stroke-linecap:butt;stroke-linejoin:miter;stroke-opacity:1"/>
<path class="bond-11 atom-9 atom-12" d="M 243.6,129.4 L 247.0,131.0" style="fill:none;fill-rule:evenodd;stroke:#FF0000;stroke-width:2.0px;stroke-linecap:butt;stroke-linejoin:miter;stroke-opacity:1"/>
<path class="bond-12 atom-12 atom-13" d="M 251.7,130.4 L 254.6,128.4" style="fill:none;fill-rule:evenodd;stroke:#FF0000;stroke-width:2.0px;stroke-linecap:butt;stroke-linejoin:miter;stroke-opacity:1"/>
<path class="bond-12 atom-12 atom-13" d="M 254.6,128.4 L 257.5,126.3" style="fill:none;fill-rule:evenodd;stroke:#FF7F00;stroke-width:2.0px;stroke-linecap:butt;stroke-linejoin:miter;stroke-opacity:1"/>
<path class="bond-13 atom-13 atom-14" d="M 260.3,128.1 L 262.0,130.5" style="fill:none;fill-rule:evenodd;stroke:#FF7F00;stroke-width:2.0px;stroke-linecap:butt;stroke-linejoin:miter;stroke-opacity:1"/>
<path class="bond-13 atom-13 atom-14" d="M 262.0,130.5 L 263.7,132.9" style="fill:none;fill-rule:evenodd;stroke:#FF0000;stroke-width:2.0px;stroke-linecap:butt;stroke-linejoin:miter;stroke-opacity:1"/>
<path class="bond-13 atom-13 atom-14" d="M 261.7,127.1 L 263.4,129.5" style="fill:none;fill-rule:evenodd;stroke:#FF7F00;stroke-width:2.0px;stroke-linecap:butt;stroke-linejoin:miter;stroke-opacity:1"/>
<path class="bond-13 atom-13 atom-14" d="M 263.4,129.5 L 265.1,131.9" style="fill:none;fill-rule:evenodd;stroke:#FF0000;stroke-width:2.0px;stroke-linecap:butt;stroke-linejoin:miter;stroke-opacity:1"/>
<path class="bond-14 atom-13 atom-15" d="M 257.5,122.6 L 255.8,120.2" style="fill:none;fill-rule:evenodd;stroke:#FF7F00;stroke-width:2.0px;stroke-linecap:butt;stroke-linejoin:miter;stroke-opacity:1"/>
<path class="bond-14 atom-13 atom-15" d="M 255.8,120.2 L 254.1,117.8" style="fill:none;fill-rule:evenodd;stroke:#FF0000;stroke-width:2.0px;stroke-linecap:butt;stroke-linejoin:miter;stroke-opacity:1"/>
<path class="bond-15 atom-13 atom-16" d="M 261.0,123.9 L 263.9,121.8" style="fill:none;fill-rule:evenodd;stroke:#FF7F00;stroke-width:2.0px;stroke-linecap:butt;stroke-linejoin:miter;stroke-opacity:1"/>
<path class="bond-15 atom-13 atom-16" d="M 263.9,121.8 L 266.8,119.8" style="fill:none;fill-rule:evenodd;stroke:#FF0000;stroke-width:2.0px;stroke-linecap:butt;stroke-linejoin:miter;stroke-opacity:1"/>
<path class="bond-16 atom-16 atom-17" d="M 271.5,119.3 L 275.8,121.2" style="fill:none;fill-rule:evenodd;stroke:#FF0000;stroke-width:2.0px;stroke-linecap:butt;stroke-linejoin:miter;stroke-opacity:1"/>
<path class="bond-16 atom-16 atom-17" d="M 275.8,121.2 L 280.1,123.2" style="fill:none;fill-rule:evenodd;stroke:#000000;stroke-width:2.0px;stroke-linecap:butt;stroke-linejoin:miter;stroke-opacity:1"/>
<path class="bond-17 atom-17 atom-18" d="M 280.1,123.2 L 289.9,116.3" style="fill:none;fill-rule:evenodd;stroke:#000000;stroke-width:2.0px;stroke-linecap:butt;stroke-linejoin:miter;stroke-opacity:1"/>
<path class="bond-18 atom-18 atom-19" d="M 289.9,116.3 L 283.0,106.4" style="fill:none;fill-rule:evenodd;stroke:#000000;stroke-width:2.0px;stroke-linecap:butt;stroke-linejoin:miter;stroke-opacity:1"/>
<path class="bond-19 atom-18 atom-20" d="M 289.9,116.3 L 296.9,126.2" style="fill:none;fill-rule:evenodd;stroke:#000000;stroke-width:2.0px;stroke-linecap:butt;stroke-linejoin:miter;stroke-opacity:1"/>
<path class="bond-20 atom-18 atom-21" d="M 289.9,116.3 L 299.8,109.4" style="fill:none;fill-rule:evenodd;stroke:#000000;stroke-width:2.0px;stroke-linecap:butt;stroke-linejoin:miter;stroke-opacity:1"/>
<path class="bond-21 atom-21 atom-22" d="M 299.8,109.4 L 299.4,104.7" style="fill:none;fill-rule:evenodd;stroke:#000000;stroke-width:2.0px;stroke-linecap:butt;stroke-linejoin:miter;stroke-opacity:1"/>
<path class="bond-21 atom-21 atom-22" d="M 299.4,104.7 L 299.0,100.0" style="fill:none;fill-rule:evenodd;stroke:#FF0000;stroke-width:2.0px;stroke-linecap:butt;stroke-linejoin:miter;stroke-opacity:1"/>
<path class="bond-22 atom-21 atom-23" d="M 299.8,109.4 L 310.8,114.4" style="fill:none;fill-rule:evenodd;stroke:#000000;stroke-width:2.0px;stroke-linecap:butt;stroke-linejoin:miter;stroke-opacity:1"/>
<path class="bond-23 atom-23 atom-24" d="M 309.8,114.0 L 310.3,119.0" style="fill:none;fill-rule:evenodd;stroke:#000000;stroke-width:2.0px;stroke-linecap:butt;stroke-linejoin:miter;stroke-opacity:1"/>
<path class="bond-23 atom-23 atom-24" d="M 310.3,119.0 L 310.7,124.0" style="fill:none;fill-rule:evenodd;stroke:#FF0000;stroke-width:2.0px;stroke-linecap:butt;stroke-linejoin:miter;stroke-opacity:1"/>
<path class="bond-23 atom-23 atom-24" d="M 311.6,113.9 L 312.0,118.8" style="fill:none;fill-rule:evenodd;stroke:#000000;stroke-width:2.0px;stroke-linecap:butt;stroke-linejoin:miter;stroke-opacity:1"/>
<path class="bond-23 atom-23 atom-24" d="M 312.0,118.8 L 312.5,123.8" style="fill:none;fill-rule:evenodd;stroke:#FF0000;stroke-width:2.0px;stroke-linecap:butt;stroke-linejoin:miter;stroke-opacity:1"/>
<path class="bond-24 atom-23 atom-25" d="M 310.8,114.4 L 314.7,111.7" style="fill:none;fill-rule:evenodd;stroke:#000000;stroke-width:2.0px;stroke-linecap:butt;stroke-linejoin:miter;stroke-opacity:1"/>
<path class="bond-24 atom-23 atom-25" d="M 314.7,111.7 L 318.6,108.9" style="fill:none;fill-rule:evenodd;stroke:#0000FF;stroke-width:2.0px;stroke-linecap:butt;stroke-linejoin:miter;stroke-opacity:1"/>
<path class="bond-25 atom-25 atom-26" d="M 322.6,108.4 L 327.1,110.5" style="fill:none;fill-rule:evenodd;stroke:#0000FF;stroke-width:2.0px;stroke-linecap:butt;stroke-linejoin:miter;stroke-opacity:1"/>
<path class="bond-25 atom-25 atom-26" d="M 327.1,110.5 L 331.6,112.6" style="fill:none;fill-rule:evenodd;stroke:#000000;stroke-width:2.0px;stroke-linecap:butt;stroke-linejoin:miter;stroke-opacity:1"/>
<path class="bond-26 atom-26 atom-27" d="M 331.6,112.6 L 341.4,105.6" style="fill:none;fill-rule:evenodd;stroke:#000000;stroke-width:2.0px;stroke-linecap:butt;stroke-linejoin:miter;stroke-opacity:1"/>
<path class="bond-27 atom-27 atom-28" d="M 341.4,105.6 L 352.4,110.7" style="fill:none;fill-rule:evenodd;stroke:#000000;stroke-width:2.0px;stroke-linecap:butt;stroke-linejoin:miter;stroke-opacity:1"/>
<path class="bond-28 atom-28 atom-29" d="M 351.5,110.3 L 351.9,115.3" style="fill:none;fill-rule:evenodd;stroke:#000000;stroke-width:2.0px;stroke-linecap:butt;stroke-linejoin:miter;stroke-opacity:1"/>
<path class="bond-28 atom-28 atom-29" d="M 351.9,115.3 L 352.3,120.3" style="fill:none;fill-rule:evenodd;stroke:#FF0000;stroke-width:2.0px;stroke-linecap:butt;stroke-linejoin:miter;stroke-opacity:1"/>
<path class="bond-28 atom-28 atom-29" d="M 353.2,110.1 L 353.7,115.1" style="fill:none;fill-rule:evenodd;stroke:#000000;stroke-width:2.0px;stroke-linecap:butt;stroke-linejoin:miter;stroke-opacity:1"/>
<path class="bond-28 atom-28 atom-29" d="M 353.7,115.1 L 354.1,120.1" style="fill:none;fill-rule:evenodd;stroke:#FF0000;stroke-width:2.0px;stroke-linecap:butt;stroke-linejoin:miter;stroke-opacity:1"/>
<path class="bond-29 atom-28 atom-30" d="M 352.4,110.7 L 356.3,108.0" style="fill:none;fill-rule:evenodd;stroke:#000000;stroke-width:2.0px;stroke-linecap:butt;stroke-linejoin:miter;stroke-opacity:1"/>
<path class="bond-29 atom-28 atom-30" d="M 356.3,108.0 L 360.3,105.2" style="fill:none;fill-rule:evenodd;stroke:#0000FF;stroke-width:2.0px;stroke-linecap:butt;stroke-linejoin:miter;stroke-opacity:1"/>
<path class="bond-30 atom-30 atom-31" d="M 364.3,104.7 L 368.7,106.8" style="fill:none;fill-rule:evenodd;stroke:#0000FF;stroke-width:2.0px;stroke-linecap:butt;stroke-linejoin:miter;stroke-opacity:1"/>
<path class="bond-30 atom-30 atom-31" d="M 368.7,106.8 L 373.2,108.9" style="fill:none;fill-rule:evenodd;stroke:#000000;stroke-width:2.0px;stroke-linecap:butt;stroke-linejoin:miter;stroke-opacity:1"/>
<path class="bond-31 atom-31 atom-32" d="M 373.2,108.9 L 383.1,101.9" style="fill:none;fill-rule:evenodd;stroke:#000000;stroke-width:2.0px;stroke-linecap:butt;stroke-linejoin:miter;stroke-opacity:1"/>
<path class="bond-32 atom-32 atom-33" d="M 383.1,101.9 L 387.7,104.1" style="fill:none;fill-rule:evenodd;stroke:#000000;stroke-width:2.0px;stroke-linecap:butt;stroke-linejoin:miter;stroke-opacity:1"/>
<path class="bond-32 atom-32 atom-33" d="M 387.7,104.1 L 392.3,106.2" style="fill:none;fill-rule:evenodd;stroke:#CCCC00;stroke-width:2.0px;stroke-linecap:butt;stroke-linejoin:miter;stroke-opacity:1"/>
<path class="bond-33 atom-33 atom-34" d="M 395.8,105.8 L 399.8,102.9" style="fill:none;fill-rule:evenodd;stroke:#CCCC00;stroke-width:2.0px;stroke-linecap:butt;stroke-linejoin:miter;stroke-opacity:1"/>
<path class="bond-33 atom-33 atom-34" d="M 399.8,102.9 L 403.9,100.1" style="fill:none;fill-rule:evenodd;stroke:#000000;stroke-width:2.0px;stroke-linecap:butt;stroke-linejoin:miter;stroke-opacity:1"/>
<path class="bond-34 atom-34 atom-35" d="M 403.9,100.1 L 414.9,105.1" style="fill:none;fill-rule:evenodd;stroke:#000000;stroke-width:2.0px;stroke-linecap:butt;stroke-linejoin:miter;stroke-opacity:1"/>
<path class="bond-35 atom-34 atom-36" d="M 404.8,100.5 L 404.4,95.5" style="fill:none;fill-rule:evenodd;stroke:#000000;stroke-width:2.0px;stroke-linecap:butt;stroke-linejoin:miter;stroke-opacity:1"/>
<path class="bond-35 atom-34 atom-36" d="M 404.4,95.5 L 404.0,90.6" style="fill:none;fill-rule:evenodd;stroke:#FF0000;stroke-width:2.0px;stroke-linecap:butt;stroke-linejoin:miter;stroke-opacity:1"/>
<path class="bond-35 atom-34 atom-36" d="M 403.1,100.7 L 402.6,95.7" style="fill:none;fill-rule:evenodd;stroke:#000000;stroke-width:2.0px;stroke-linecap:butt;stroke-linejoin:miter;stroke-opacity:1"/>
<path class="bond-35 atom-34 atom-36" d="M 402.6,95.7 L 402.2,90.7" style="fill:none;fill-rule:evenodd;stroke:#FF0000;stroke-width:2.0px;stroke-linecap:butt;stroke-linejoin:miter;stroke-opacity:1"/>
<path class="bond-36 atom-7 atom-37" d="M 226.4,109.9 L 215.5,104.8" style="fill:none;fill-rule:evenodd;stroke:#000000;stroke-width:2.0px;stroke-linecap:butt;stroke-linejoin:miter;stroke-opacity:1"/>
<path class="bond-37 atom-37 atom-38" d="M 215.5,104.8 L 211.6,116.2" style="fill:none;fill-rule:evenodd;stroke:#000000;stroke-width:2.0px;stroke-linecap:butt;stroke-linejoin:miter;stroke-opacity:1"/>
<path class="bond-38 atom-38 atom-39" d="M 211.6,116.2 L 206.7,115.8" style="fill:none;fill-rule:evenodd;stroke:#000000;stroke-width:2.0px;stroke-linecap:butt;stroke-linejoin:miter;stroke-opacity:1"/>
<path class="bond-38 atom-38 atom-39" d="M 206.7,115.8 L 201.9,115.4" style="fill:none;fill-rule:evenodd;stroke:#FF0000;stroke-width:2.0px;stroke-linecap:butt;stroke-linejoin:miter;stroke-opacity:1"/>
<path class="bond-39 atom-38 atom-40" d="M 211.6,116.2 L 214.5,118.1" style="fill:none;fill-rule:evenodd;stroke:#000000;stroke-width:2.0px;stroke-linecap:butt;stroke-linejoin:miter;stroke-opacity:1"/>
<path class="bond-39 atom-38 atom-40" d="M 214.5,118.1 L 217.4,120.0" style="fill:none;fill-rule:evenodd;stroke:#FF0000;stroke-width:2.0px;stroke-linecap:butt;stroke-linejoin:miter;stroke-opacity:1"/>
<path class="bond-40 atom-38 atom-41" d="M 211.6,116.2 L 207.6,127.6" style="fill:none;fill-rule:evenodd;stroke:#000000;stroke-width:2.0px;stroke-linecap:butt;stroke-linejoin:miter;stroke-opacity:1"/>
<path class="bond-41 atom-41 atom-42" d="M 207.6,127.6 L 202.9,128.5" style="fill:none;fill-rule:evenodd;stroke:#000000;stroke-width:2.0px;stroke-linecap:butt;stroke-linejoin:miter;stroke-opacity:1"/>
<path class="bond-41 atom-41 atom-42" d="M 202.9,128.5 L 198.1,129.5" style="fill:none;fill-rule:evenodd;stroke:#FF0000;stroke-width:2.0px;stroke-linecap:butt;stroke-linejoin:miter;stroke-opacity:1"/>
<path class="bond-42 atom-42 atom-43" d="M 193.6,127.4 L 191.6,125.1" style="fill:none;fill-rule:evenodd;stroke:#FF0000;stroke-width:2.0px;stroke-linecap:butt;stroke-linejoin:miter;stroke-opacity:1"/>
<path class="bond-42 atom-42 atom-43" d="M 191.6,125.1 L 189.6,122.9" style="fill:none;fill-rule:evenodd;stroke:#FF7F00;stroke-width:2.0px;stroke-linecap:butt;stroke-linejoin:miter;stroke-opacity:1"/>
<path class="bond-43 atom-43 atom-44" d="M 185.6,121.3 L 185.0,121.7" style="fill:none;fill-rule:evenodd;stroke:#FF7F00;stroke-width:2.0px;stroke-linecap:butt;stroke-linejoin:miter;stroke-opacity:1"/>
<path class="bond-43 atom-43 atom-44" d="M 185.0,121.7 L 184.4,122.1" style="fill:none;fill-rule:evenodd;stroke:#FF0000;stroke-width:2.0px;stroke-linecap:butt;stroke-linejoin:miter;stroke-opacity:1"/>
<path class="bond-43 atom-43 atom-44" d="M 186.6,122.8 L 186.0,123.2" style="fill:none;fill-rule:evenodd;stroke:#FF7F00;stroke-width:2.0px;stroke-linecap:butt;stroke-linejoin:miter;stroke-opacity:1"/>
<path class="bond-43 atom-43 atom-44" d="M 186.0,123.2 L 185.4,123.6" style="fill:none;fill-rule:evenodd;stroke:#FF0000;stroke-width:2.0px;stroke-linecap:butt;stroke-linejoin:miter;stroke-opacity:1"/>
<path class="bond-44 atom-43 atom-45" d="M 186.1,122.8 L 185.8,123.2" style="fill:none;fill-rule:evenodd;stroke:#FF7F00;stroke-width:2.0px;stroke-linecap:butt;stroke-linejoin:miter;stroke-opacity:1"/>
<path class="bond-44 atom-43 atom-45" d="M 185.8,123.2 L 185.4,123.6" style="fill:none;fill-rule:evenodd;stroke:#FF0000;stroke-width:2.0px;stroke-linecap:butt;stroke-linejoin:miter;stroke-opacity:1"/>
<path class="bond-45 atom-43 atom-46" d="M 186.1,118.8 L 184.2,116.6" style="fill:none;fill-rule:evenodd;stroke:#FF7F00;stroke-width:2.0px;stroke-linecap:butt;stroke-linejoin:miter;stroke-opacity:1"/>
<path class="bond-45 atom-43 atom-46" d="M 184.2,116.6 L 182.2,114.4" style="fill:none;fill-rule:evenodd;stroke:#FF0000;stroke-width:2.0px;stroke-linecap:butt;stroke-linejoin:miter;stroke-opacity:1"/>
<path class="bond-46 atom-46 atom-47" d="M 177.6,112.2 L 173.7,113.0" style="fill:none;fill-rule:evenodd;stroke:#FF0000;stroke-width:2.0px;stroke-linecap:butt;stroke-linejoin:miter;stroke-opacity:1"/>
<path class="bond-46 atom-46 atom-47" d="M 173.7,113.0 L 169.8,113.7" style="fill:none;fill-rule:evenodd;stroke:#FF7F00;stroke-width:2.0px;stroke-linecap:butt;stroke-linejoin:miter;stroke-opacity:1"/>
<path class="bond-47 atom-47 atom-48" d="M 168.1,111.3 L 167.1,108.1" style="fill:none;fill-rule:evenodd;stroke:#FF7F00;stroke-width:2.0px;stroke-linecap:butt;stroke-linejoin:miter;stroke-opacity:1"/>
<path class="bond-47 atom-47 atom-48" d="M 167.1,108.1 L 166.0,104.9" style="fill:none;fill-rule:evenodd;stroke:#FF0000;stroke-width:2.0px;stroke-linecap:butt;stroke-linejoin:miter;stroke-opacity:1"/>
<path class="bond-47 atom-47 atom-48" d="M 166.4,111.8 L 165.4,108.7" style="fill:none;fill-rule:evenodd;stroke:#FF7F00;stroke-width:2.0px;stroke-linecap:butt;stroke-linejoin:miter;stroke-opacity:1"/>
<path class="bond-47 atom-47 atom-48" d="M 165.4,108.7 L 164.3,105.5" style="fill:none;fill-rule:evenodd;stroke:#FF0000;stroke-width:2.0px;stroke-linecap:butt;stroke-linejoin:miter;stroke-opacity:1"/>
<path class="bond-48 atom-47 atom-49" d="M 168.6,116.6 L 169.3,120.0" style="fill:none;fill-rule:evenodd;stroke:#FF7F00;stroke-width:2.0px;stroke-linecap:butt;stroke-linejoin:miter;stroke-opacity:1"/>
<path class="bond-48 atom-47 atom-49" d="M 169.3,120.0 L 169.9,123.4" style="fill:none;fill-rule:evenodd;stroke:#FF0000;stroke-width:2.0px;stroke-linecap:butt;stroke-linejoin:miter;stroke-opacity:1"/>
<path class="bond-49 atom-47 atom-50" d="M 166.3,114.4 L 162.5,115.2" style="fill:none;fill-rule:evenodd;stroke:#FF7F00;stroke-width:2.0px;stroke-linecap:butt;stroke-linejoin:miter;stroke-opacity:1"/>
<path class="bond-49 atom-47 atom-50" d="M 162.5,115.2 L 158.6,115.9" style="fill:none;fill-rule:evenodd;stroke:#FF0000;stroke-width:2.0px;stroke-linecap:butt;stroke-linejoin:miter;stroke-opacity:1"/>
<path class="bond-50 atom-50 atom-51" d="M 155.4,119.0 L 153.9,123.4" style="fill:none;fill-rule:evenodd;stroke:#FF0000;stroke-width:2.0px;stroke-linecap:butt;stroke-linejoin:miter;stroke-opacity:1"/>
<path class="bond-50 atom-50 atom-51" d="M 153.9,123.4 L 152.3,127.8" style="fill:none;fill-rule:evenodd;stroke:#000000;stroke-width:2.0px;stroke-linecap:butt;stroke-linejoin:miter;stroke-opacity:1"/>
<path class="bond-51 atom-51 atom-52" d="M 152.3,127.8 L 140.5,130.1" style="fill:none;fill-rule:evenodd;stroke:#000000;stroke-width:2.0px;stroke-linecap:butt;stroke-linejoin:miter;stroke-opacity:1"/>
<path class="bond-52 atom-52 atom-53" d="M 140.5,130.1 L 138.2,118.3" style="fill:none;fill-rule:evenodd;stroke:#000000;stroke-width:2.0px;stroke-linecap:butt;stroke-linejoin:miter;stroke-opacity:1"/>
<path class="bond-53 atom-52 atom-54" d="M 140.5,130.1 L 142.8,142.0" style="fill:none;fill-rule:evenodd;stroke:#000000;stroke-width:2.0px;stroke-linecap:butt;stroke-linejoin:miter;stroke-opacity:1"/>
<path class="bond-54 atom-52 atom-55" d="M 140.5,130.1 L 128.7,132.5" style="fill:none;fill-rule:evenodd;stroke:#000000;stroke-width:2.0px;stroke-linecap:butt;stroke-linejoin:miter;stroke-opacity:1"/>
<path class="bond-55 atom-55 atom-56" d="M 128.7,132.5 L 127.1,136.9" style="fill:none;fill-rule:evenodd;stroke:#000000;stroke-width:2.0px;stroke-linecap:butt;stroke-linejoin:miter;stroke-opacity:1"/>
<path class="bond-55 atom-55 atom-56" d="M 127.1,136.9 L 125.6,141.3" style="fill:none;fill-rule:evenodd;stroke:#FF0000;stroke-width:2.0px;stroke-linecap:butt;stroke-linejoin:miter;stroke-opacity:1"/>
<path class="bond-56 atom-55 atom-57" d="M 128.7,132.5 L 120.7,123.4" style="fill:none;fill-rule:evenodd;stroke:#000000;stroke-width:2.0px;stroke-linecap:butt;stroke-linejoin:miter;stroke-opacity:1"/>
<path class="bond-57 atom-57 atom-58" d="M 121.4,124.2 L 123.0,119.5" style="fill:none;fill-rule:evenodd;stroke:#000000;stroke-width:2.0px;stroke-linecap:butt;stroke-linejoin:miter;stroke-opacity:1"/>
<path class="bond-57 atom-57 atom-58" d="M 123.0,119.5 L 124.6,114.9" style="fill:none;fill-rule:evenodd;stroke:#FF0000;stroke-width:2.0px;stroke-linecap:butt;stroke-linejoin:miter;stroke-opacity:1"/>
<path class="bond-57 atom-57 atom-58" d="M 119.7,123.6 L 121.3,118.9" style="fill:none;fill-rule:evenodd;stroke:#000000;stroke-width:2.0px;stroke-linecap:butt;stroke-linejoin:miter;stroke-opacity:1"/>
<path class="bond-57 atom-57 atom-58" d="M 121.3,118.9 L 122.9,114.3" style="fill:none;fill-rule:evenodd;stroke:#FF0000;stroke-width:2.0px;stroke-linecap:butt;stroke-linejoin:miter;stroke-opacity:1"/>
<path class="bond-58 atom-57 atom-59" d="M 120.7,123.4 L 115.8,124.3" style="fill:none;fill-rule:evenodd;stroke:#000000;stroke-width:2.0px;stroke-linecap:butt;stroke-linejoin:miter;stroke-opacity:1"/>
<path class="bond-58 atom-57 atom-59" d="M 115.8,124.3 L 110.9,125.3" style="fill:none;fill-rule:evenodd;stroke:#0000FF;stroke-width:2.0px;stroke-linecap:butt;stroke-linejoin:miter;stroke-opacity:1"/>
<path class="bond-59 atom-59 atom-60" d="M 106.9,123.4 L 103.9,120.0" style="fill:none;fill-rule:evenodd;stroke:#0000FF;stroke-width:2.0px;stroke-linecap:butt;stroke-linejoin:miter;stroke-opacity:1"/>
<path class="bond-59 atom-59 atom-60" d="M 103.9,120.0 L 101.0,116.6" style="fill:none;fill-rule:evenodd;stroke:#000000;stroke-width:2.0px;stroke-linecap:butt;stroke-linejoin:miter;stroke-opacity:1"/>
<path class="bond-60 atom-60 atom-61" d="M 101.0,116.6 L 89.1,118.9" style="fill:none;fill-rule:evenodd;stroke:#000000;stroke-width:2.0px;stroke-linecap:butt;stroke-linejoin:miter;stroke-opacity:1"/>
<path class="bond-61 atom-61 atom-62" d="M 89.1,118.9 L 81.2,109.8" style="fill:none;fill-rule:evenodd;stroke:#000000;stroke-width:2.0px;stroke-linecap:butt;stroke-linejoin:miter;stroke-opacity:1"/>
<path class="bond-62 atom-62 atom-63" d="M 81.9,110.6 L 83.4,106.0" style="fill:none;fill-rule:evenodd;stroke:#000000;stroke-width:2.0px;stroke-linecap:butt;stroke-linejoin:miter;stroke-opacity:1"/>
<path class="bond-62 atom-62 atom-63" d="M 83.4,106.0 L 85.0,101.3" style="fill:none;fill-rule:evenodd;stroke:#FF0000;stroke-width:2.0px;stroke-linecap:butt;stroke-linejoin:miter;stroke-opacity:1"/>
<path class="bond-62 atom-62 atom-63" d="M 80.2,110.0 L 81.8,105.4" style="fill:none;fill-rule:evenodd;stroke:#000000;stroke-width:2.0px;stroke-linecap:butt;stroke-linejoin:miter;stroke-opacity:1"/>
<path class="bond-62 atom-62 atom-63" d="M 81.8,105.4 L 83.3,100.7" style="fill:none;fill-rule:evenodd;stroke:#FF0000;stroke-width:2.0px;stroke-linecap:butt;stroke-linejoin:miter;stroke-opacity:1"/>
<path class="bond-63 atom-62 atom-64" d="M 81.2,109.8 L 76.3,110.8" style="fill:none;fill-rule:evenodd;stroke:#000000;stroke-width:2.0px;stroke-linecap:butt;stroke-linejoin:miter;stroke-opacity:1"/>
<path class="bond-63 atom-62 atom-64" d="M 76.3,110.8 L 71.3,111.8" style="fill:none;fill-rule:evenodd;stroke:#0000FF;stroke-width:2.0px;stroke-linecap:butt;stroke-linejoin:miter;stroke-opacity:1"/>
<path class="bond-64 atom-64 atom-65" d="M 67.3,109.9 L 64.4,106.5" style="fill:none;fill-rule:evenodd;stroke:#0000FF;stroke-width:2.0px;stroke-linecap:butt;stroke-linejoin:miter;stroke-opacity:1"/>
<path class="bond-64 atom-64 atom-65" d="M 64.4,106.5 L 61.4,103.1" style="fill:none;fill-rule:evenodd;stroke:#000000;stroke-width:2.0px;stroke-linecap:butt;stroke-linejoin:miter;stroke-opacity:1"/>
<path class="bond-65 atom-65 atom-66" d="M 61.4,103.1 L 49.6,105.4" style="fill:none;fill-rule:evenodd;stroke:#000000;stroke-width:2.0px;stroke-linecap:butt;stroke-linejoin:miter;stroke-opacity:1"/>
<path class="bond-66 atom-66 atom-67" d="M 49.6,105.4 L 46.5,101.8" style="fill:none;fill-rule:evenodd;stroke:#000000;stroke-width:2.0px;stroke-linecap:butt;stroke-linejoin:miter;stroke-opacity:1"/>
<path class="bond-66 atom-66 atom-67" d="M 46.5,101.8 L 43.4,98.3" style="fill:none;fill-rule:evenodd;stroke:#CCCC00;stroke-width:2.0px;stroke-linecap:butt;stroke-linejoin:miter;stroke-opacity:1"/>
<path class="bond-67 atom-67 atom-68" d="M 39.9,96.6 L 34.8,97.6" style="fill:none;fill-rule:evenodd;stroke:#CCCC00;stroke-width:2.0px;stroke-linecap:butt;stroke-linejoin:miter;stroke-opacity:1"/>
<path class="bond-67 atom-67 atom-68" d="M 34.8,97.6 L 29.8,98.6" style="fill:none;fill-rule:evenodd;stroke:#000000;stroke-width:2.0px;stroke-linecap:butt;stroke-linejoin:miter;stroke-opacity:1"/>
<path class="bond-68 atom-68 atom-69" d="M 29.8,98.6 L 21.9,89.5" style="fill:none;fill-rule:evenodd;stroke:#000000;stroke-width:2.0px;stroke-linecap:butt;stroke-linejoin:miter;stroke-opacity:1"/>
<path class="bond-69 atom-68 atom-70" d="M 29.1,97.8 L 27.5,102.5" style="fill:none;fill-rule:evenodd;stroke:#000000;stroke-width:2.0px;stroke-linecap:butt;stroke-linejoin:miter;stroke-opacity:1"/>
<path class="bond-69 atom-68 atom-70" d="M 27.5,102.5 L 25.9,107.2" style="fill:none;fill-rule:evenodd;stroke:#FF0000;stroke-width:2.0px;stroke-linecap:butt;stroke-linejoin:miter;stroke-opacity:1"/>
<path class="bond-69 atom-68 atom-70" d="M 30.8,98.4 L 29.2,103.1" style="fill:none;fill-rule:evenodd;stroke:#000000;stroke-width:2.0px;stroke-linecap:butt;stroke-linejoin:miter;stroke-opacity:1"/>
<path class="bond-69 atom-68 atom-70" d="M 29.2,103.1 L 27.6,107.8" style="fill:none;fill-rule:evenodd;stroke:#FF0000;stroke-width:2.0px;stroke-linecap:butt;stroke-linejoin:miter;stroke-opacity:1"/>
<path class="bond-70 atom-41 atom-71" d="M 207.6,127.6 L 215.6,136.7" style="fill:none;fill-rule:evenodd;stroke:#000000;stroke-width:2.0px;stroke-linecap:butt;stroke-linejoin:miter;stroke-opacity:1"/>
<path class="bond-71 atom-71 atom-72" d="M 215.6,136.7 L 220.4,136.3" style="fill:none;fill-rule:evenodd;stroke:#000000;stroke-width:2.0px;stroke-linecap:butt;stroke-linejoin:miter;stroke-opacity:1"/>
<path class="bond-71 atom-71 atom-72" d="M 220.4,136.3 L 225.3,135.8" style="fill:none;fill-rule:evenodd;stroke:#FF0000;stroke-width:2.0px;stroke-linecap:butt;stroke-linejoin:miter;stroke-opacity:1"/>
<path class="bond-72 atom-72 atom-73" d="M 228.7,138.2 L 230.5,142.5" style="fill:none;fill-rule:evenodd;stroke:#FF0000;stroke-width:2.0px;stroke-linecap:butt;stroke-linejoin:miter;stroke-opacity:1"/>
<path class="bond-72 atom-72 atom-73" d="M 230.5,142.5 L 232.3,146.7" style="fill:none;fill-rule:evenodd;stroke:#000000;stroke-width:2.0px;stroke-linecap:butt;stroke-linejoin:miter;stroke-opacity:1"/>
<path class="bond-73 atom-73 atom-74" d="M 232.3,146.7 L 237.2,147.9" style="fill:none;fill-rule:evenodd;stroke:#000000;stroke-width:2.0px;stroke-linecap:butt;stroke-linejoin:miter;stroke-opacity:1"/>
<path class="bond-73 atom-73 atom-74" d="M 237.2,147.9 L 242.1,149.0" style="fill:none;fill-rule:evenodd;stroke:#0000FF;stroke-width:2.0px;stroke-linecap:butt;stroke-linejoin:miter;stroke-opacity:1"/>
<path class="bond-74 atom-74 atom-75" d="M 245.2,151.9 L 247.0,156.2" style="fill:none;fill-rule:evenodd;stroke:#0000FF;stroke-width:2.0px;stroke-linecap:butt;stroke-linejoin:miter;stroke-opacity:1"/>
<path class="bond-74 atom-74 atom-75" d="M 247.0,156.2 L 248.8,160.5" style="fill:none;fill-rule:evenodd;stroke:#000000;stroke-width:2.0px;stroke-linecap:butt;stroke-linejoin:miter;stroke-opacity:1"/>
<path class="bond-75 atom-75 atom-76" d="M 248.8,160.5 L 253.8,160.1" style="fill:none;fill-rule:evenodd;stroke:#000000;stroke-width:2.0px;stroke-linecap:butt;stroke-linejoin:miter;stroke-opacity:1"/>
<path class="bond-75 atom-75 atom-76" d="M 253.8,160.1 L 258.8,159.6" style="fill:none;fill-rule:evenodd;stroke:#0000FF;stroke-width:2.0px;stroke-linecap:butt;stroke-linejoin:miter;stroke-opacity:1"/>
<path class="bond-75 atom-75 atom-76" d="M 250.0,158.6 L 254.3,158.2" style="fill:none;fill-rule:evenodd;stroke:#000000;stroke-width:2.0px;stroke-linecap:butt;stroke-linejoin:miter;stroke-opacity:1"/>
<path class="bond-75 atom-75 atom-76" d="M 254.3,158.2 L 258.7,157.9" style="fill:none;fill-rule:evenodd;stroke:#0000FF;stroke-width:2.0px;stroke-linecap:butt;stroke-linejoin:miter;stroke-opacity:1"/>
<path class="bond-76 atom-76 atom-77" d="M 261.4,156.9 L 262.5,152.3" style="fill:none;fill-rule:evenodd;stroke:#0000FF;stroke-width:2.0px;stroke-linecap:butt;stroke-linejoin:miter;stroke-opacity:1"/>
<path class="bond-76 atom-76 atom-77" d="M 262.5,152.3 L 263.5,147.7" style="fill:none;fill-rule:evenodd;stroke:#000000;stroke-width:2.0px;stroke-linecap:butt;stroke-linejoin:miter;stroke-opacity:1"/>
<path class="bond-77 atom-77 atom-78" d="M 263.5,147.7 L 274.1,141.8" style="fill:none;fill-rule:evenodd;stroke:#000000;stroke-width:2.0px;stroke-linecap:butt;stroke-linejoin:miter;stroke-opacity:1"/>
<path class="bond-77 atom-77 atom-78" d="M 263.6,145.6 L 272.3,140.8" style="fill:none;fill-rule:evenodd;stroke:#000000;stroke-width:2.0px;stroke-linecap:butt;stroke-linejoin:miter;stroke-opacity:1"/>
<path class="bond-78 atom-78 atom-79" d="M 274.1,141.8 L 278.3,144.3" style="fill:none;fill-rule:evenodd;stroke:#000000;stroke-width:2.0px;stroke-linecap:butt;stroke-linejoin:miter;stroke-opacity:1"/>
<path class="bond-78 atom-78 atom-79" d="M 278.3,144.3 L 282.4,146.8" style="fill:none;fill-rule:evenodd;stroke:#0000FF;stroke-width:2.0px;stroke-linecap:butt;stroke-linejoin:miter;stroke-opacity:1"/>
<path class="bond-79 atom-78 atom-80" d="M 274.1,141.8 L 274.2,137.0" style="fill:none;fill-rule:evenodd;stroke:#000000;stroke-width:2.0px;stroke-linecap:butt;stroke-linejoin:miter;stroke-opacity:1"/>
<path class="bond-79 atom-78 atom-80" d="M 274.2,137.0 L 274.2,132.3" style="fill:none;fill-rule:evenodd;stroke:#0000FF;stroke-width:2.0px;stroke-linecap:butt;stroke-linejoin:miter;stroke-opacity:1"/>
<path class="bond-80 atom-80 atom-81" d="M 272.3,128.6 L 268.1,126.1" style="fill:none;fill-rule:evenodd;stroke:#0000FF;stroke-width:2.0px;stroke-linecap:butt;stroke-linejoin:miter;stroke-opacity:1"/>
<path class="bond-80 atom-80 atom-81" d="M 268.1,126.1 L 263.9,123.6" style="fill:none;fill-rule:evenodd;stroke:#000000;stroke-width:2.0px;stroke-linecap:butt;stroke-linejoin:miter;stroke-opacity:1"/>
<path class="bond-80 atom-80 atom-81" d="M 271.4,130.1 L 267.6,127.9" style="fill:none;fill-rule:evenodd;stroke:#0000FF;stroke-width:2.0px;stroke-linecap:butt;stroke-linejoin:miter;stroke-opacity:1"/>
<path class="bond-80 atom-80 atom-81" d="M 267.6,127.9 L 263.9,125.6" style="fill:none;fill-rule:evenodd;stroke:#000000;stroke-width:2.0px;stroke-linecap:butt;stroke-linejoin:miter;stroke-opacity:1"/>
<path class="bond-81 atom-81 atom-82" d="M 263.9,123.6 L 259.7,125.9" style="fill:none;fill-rule:evenodd;stroke:#000000;stroke-width:2.0px;stroke-linecap:butt;stroke-linejoin:miter;stroke-opacity:1"/>
<path class="bond-81 atom-81 atom-82" d="M 259.7,125.9 L 255.4,128.3" style="fill:none;fill-rule:evenodd;stroke:#0000FF;stroke-width:2.0px;stroke-linecap:butt;stroke-linejoin:miter;stroke-opacity:1"/>
<path class="bond-82 atom-82 atom-83" d="M 253.3,131.9 L 253.3,136.7" style="fill:none;fill-rule:evenodd;stroke:#0000FF;stroke-width:2.0px;stroke-linecap:butt;stroke-linejoin:miter;stroke-opacity:1"/>
<path class="bond-82 atom-82 atom-83" d="M 253.3,136.7 L 253.2,141.5" style="fill:none;fill-rule:evenodd;stroke:#000000;stroke-width:2.0px;stroke-linecap:butt;stroke-linejoin:miter;stroke-opacity:1"/>
<path class="bond-82 atom-82 atom-83" d="M 255.1,132.0 L 255.1,136.2" style="fill:none;fill-rule:evenodd;stroke:#0000FF;stroke-width:2.0px;stroke-linecap:butt;stroke-linejoin:miter;stroke-opacity:1"/>
<path class="bond-82 atom-82 atom-83" d="M 255.1,136.2 L 255.0,140.5" style="fill:none;fill-rule:evenodd;stroke:#000000;stroke-width:2.0px;stroke-linecap:butt;stroke-linejoin:miter;stroke-opacity:1"/>
<path class="bond-83 atom-73 atom-84" d="M 232.3,146.7 L 223.2,154.7" style="fill:none;fill-rule:evenodd;stroke:#000000;stroke-width:2.0px;stroke-linecap:butt;stroke-linejoin:miter;stroke-opacity:1"/>
<path class="bond-84 atom-84 atom-85" d="M 223.2,154.7 L 223.7,159.4" style="fill:none;fill-rule:evenodd;stroke:#000000;stroke-width:2.0px;stroke-linecap:butt;stroke-linejoin:miter;stroke-opacity:1"/>
<path class="bond-84 atom-84 atom-85" d="M 223.7,159.4 L 224.1,164.1" style="fill:none;fill-rule:evenodd;stroke:#FF0000;stroke-width:2.0px;stroke-linecap:butt;stroke-linejoin:miter;stroke-opacity:1"/>
<path class="bond-85 atom-84 atom-86" d="M 223.2,154.7 L 212.9,148.5" style="fill:none;fill-rule:evenodd;stroke:#000000;stroke-width:2.0px;stroke-linecap:butt;stroke-linejoin:miter;stroke-opacity:1"/>
<path class="bond-86 atom-86 atom-87" d="M 212.9,148.5 L 208.5,150.3" style="fill:none;fill-rule:evenodd;stroke:#000000;stroke-width:2.0px;stroke-linecap:butt;stroke-linejoin:miter;stroke-opacity:1"/>
<path class="bond-86 atom-86 atom-87" d="M 208.5,150.3 L 204.1,152.2" style="fill:none;fill-rule:evenodd;stroke:#FF0000;stroke-width:2.0px;stroke-linecap:butt;stroke-linejoin:miter;stroke-opacity:1"/>
<path class="bond-87 atom-87 atom-88" d="M 199.4,151.4 L 196.7,149.4" style="fill:none;fill-rule:evenodd;stroke:#FF0000;stroke-width:2.0px;stroke-linecap:butt;stroke-linejoin:miter;stroke-opacity:1"/>
<path class="bond-87 atom-87 atom-88" d="M 196.7,149.4 L 193.9,147.3" style="fill:none;fill-rule:evenodd;stroke:#FF7F00;stroke-width:2.0px;stroke-linecap:butt;stroke-linejoin:miter;stroke-opacity:1"/>
<path class="bond-88 atom-88 atom-89" d="M 189.7,147.8 L 187.9,150.1" style="fill:none;fill-rule:evenodd;stroke:#FF7F00;stroke-width:2.0px;stroke-linecap:butt;stroke-linejoin:miter;stroke-opacity:1"/>
<path class="bond-88 atom-88 atom-89" d="M 187.9,150.1 L 186.1,152.5" style="fill:none;fill-rule:evenodd;stroke:#FF0000;stroke-width:2.0px;stroke-linecap:butt;stroke-linejoin:miter;stroke-opacity:1"/>
<path class="bond-88 atom-88 atom-89" d="M 191.1,148.8 L 189.3,151.2" style="fill:none;fill-rule:evenodd;stroke:#FF7F00;stroke-width:2.0px;stroke-linecap:butt;stroke-linejoin:miter;stroke-opacity:1"/>
<path class="bond-88 atom-88 atom-89" d="M 189.3,151.2 L 187.5,153.6" style="fill:none;fill-rule:evenodd;stroke:#FF0000;stroke-width:2.0px;stroke-linecap:butt;stroke-linejoin:miter;stroke-opacity:1"/>
<path class="bond-89 atom-88 atom-90" d="M 193.2,143.4 L 194.5,140.4" style="fill:none;fill-rule:evenodd;stroke:#FF7F00;stroke-width:2.0px;stroke-linecap:butt;stroke-linejoin:miter;stroke-opacity:1"/>
<path class="bond-89 atom-88 atom-90" d="M 194.5,140.4 L 195.7,137.5" style="fill:none;fill-rule:evenodd;stroke:#FF0000;stroke-width:2.0px;stroke-linecap:butt;stroke-linejoin:miter;stroke-opacity:1"/>
<path class="bond-90 atom-88 atom-91" d="M 190.4,144.6 L 187.6,142.6" style="fill:none;fill-rule:evenodd;stroke:#FF7F00;stroke-width:2.0px;stroke-linecap:butt;stroke-linejoin:miter;stroke-opacity:1"/>
<path class="bond-90 atom-88 atom-91" d="M 187.6,142.6 L 184.8,140.5" style="fill:none;fill-rule:evenodd;stroke:#FF0000;stroke-width:2.0px;stroke-linecap:butt;stroke-linejoin:miter;stroke-opacity:1"/>
<path class="bond-91 atom-37 atom-92" d="M 215.5,104.8 L 217.8,100.9" style="fill:none;fill-rule:evenodd;stroke:#000000;stroke-width:2.0px;stroke-linecap:butt;stroke-linejoin:miter;stroke-opacity:1"/>
<path class="bond-91 atom-37 atom-92" d="M 217.8,100.9 L 220.1,97.0" style="fill:none;fill-rule:evenodd;stroke:#FF0000;stroke-width:2.0px;stroke-linecap:butt;stroke-linejoin:miter;stroke-opacity:1"/>
<path class="bond-92 atom-92 atom-93" d="M 219.4,91.9 L 216.6,88.6" style="fill:none;fill-rule:evenodd;stroke:#FF0000;stroke-width:2.0px;stroke-linecap:butt;stroke-linejoin:miter;stroke-opacity:1"/>
<path class="bond-92 atom-92 atom-93" d="M 216.6,88.6 L 213.7,85.3" style="fill:none;fill-rule:evenodd;stroke:#000000;stroke-width:2.0px;stroke-linecap:butt;stroke-linejoin:miter;stroke-opacity:1"/>
<path class="bond-93 atom-93 atom-94" d="M 213.7,85.3 L 214.8,80.7" style="fill:none;fill-rule:evenodd;stroke:#000000;stroke-width:2.0px;stroke-linecap:butt;stroke-linejoin:miter;stroke-opacity:1"/>
<path class="bond-93 atom-93 atom-94" d="M 214.8,80.7 L 215.8,76.1" style="fill:none;fill-rule:evenodd;stroke:#0000FF;stroke-width:2.0px;stroke-linecap:butt;stroke-linejoin:miter;stroke-opacity:1"/>
<path class="bond-94 atom-94 atom-95" d="M 218.4,72.7 L 223.0,70.8" style="fill:none;fill-rule:evenodd;stroke:#0000FF;stroke-width:2.0px;stroke-linecap:butt;stroke-linejoin:miter;stroke-opacity:1"/>
<path class="bond-94 atom-94 atom-95" d="M 223.0,70.8 L 227.5,68.8" style="fill:none;fill-rule:evenodd;stroke:#000000;stroke-width:2.0px;stroke-linecap:butt;stroke-linejoin:miter;stroke-opacity:1"/>
<path class="bond-95 atom-95 atom-96" d="M 227.5,68.8 L 227.1,64.1" style="fill:none;fill-rule:evenodd;stroke:#000000;stroke-width:2.0px;stroke-linecap:butt;stroke-linejoin:miter;stroke-opacity:1"/>
<path class="bond-95 atom-95 atom-96" d="M 227.1,64.1 L 226.7,59.3" style="fill:none;fill-rule:evenodd;stroke:#0000FF;stroke-width:2.0px;stroke-linecap:butt;stroke-linejoin:miter;stroke-opacity:1"/>
<path class="bond-95 atom-95 atom-96" d="M 225.6,67.7 L 225.3,63.6" style="fill:none;fill-rule:evenodd;stroke:#000000;stroke-width:2.0px;stroke-linecap:butt;stroke-linejoin:miter;stroke-opacity:1"/>
<path class="bond-95 atom-95 atom-96" d="M 225.3,63.6 L 224.9,59.5" style="fill:none;fill-rule:evenodd;stroke:#0000FF;stroke-width:2.0px;stroke-linecap:butt;stroke-linejoin:miter;stroke-opacity:1"/>
<path class="bond-96 atom-96 atom-97" d="M 224.4,56.4 L 219.6,55.2" style="fill:none;fill-rule:evenodd;stroke:#0000FF;stroke-width:2.0px;stroke-linecap:butt;stroke-linejoin:miter;stroke-opacity:1"/>
<path class="bond-96 atom-96 atom-97" d="M 219.6,55.2 L 214.7,54.1" style="fill:none;fill-rule:evenodd;stroke:#000000;stroke-width:2.0px;stroke-linecap:butt;stroke-linejoin:miter;stroke-opacity:1"/>
<path class="bond-97 atom-97 atom-98" d="M 214.7,54.1 L 208.8,43.6" style="fill:none;fill-rule:evenodd;stroke:#000000;stroke-width:2.0px;stroke-linecap:butt;stroke-linejoin:miter;stroke-opacity:1"/>
<path class="bond-97 atom-97 atom-98" d="M 212.6,54.1 L 207.8,45.3" style="fill:none;fill-rule:evenodd;stroke:#000000;stroke-width:2.0px;stroke-linecap:butt;stroke-linejoin:miter;stroke-opacity:1"/>
<path class="bond-98 atom-98 atom-99" d="M 208.8,43.6 L 211.2,39.7" style="fill:none;fill-rule:evenodd;stroke:#000000;stroke-width:2.0px;stroke-linecap:butt;stroke-linejoin:miter;stroke-opacity:1"/>
<path class="bond-98 atom-98 atom-99" d="M 211.2,39.7 L 213.5,35.7" style="fill:none;fill-rule:evenodd;stroke:#0000FF;stroke-width:2.0px;stroke-linecap:butt;stroke-linejoin:miter;stroke-opacity:1"/>
<path class="bond-99 atom-98 atom-100" d="M 208.8,43.6 L 203.8,43.5" style="fill:none;fill-rule:evenodd;stroke:#000000;stroke-width:2.0px;stroke-linecap:butt;stroke-linejoin:miter;stroke-opacity:1"/>
<path class="bond-99 atom-98 atom-100" d="M 203.8,43.5 L 198.7,43.4" style="fill:none;fill-rule:evenodd;stroke:#0000FF;stroke-width:2.0px;stroke-linecap:butt;stroke-linejoin:miter;stroke-opacity:1"/>
<path class="bond-100 atom-100 atom-101" d="M 195.2,45.9 L 192.9,49.8" style="fill:none;fill-rule:evenodd;stroke:#0000FF;stroke-width:2.0px;stroke-linecap:butt;stroke-linejoin:miter;stroke-opacity:1"/>
<path class="bond-100 atom-100 atom-101" d="M 192.9,49.8 L 190.5,53.7" style="fill:none;fill-rule:evenodd;stroke:#000000;stroke-width:2.0px;stroke-linecap:butt;stroke-linejoin:miter;stroke-opacity:1"/>
<path class="bond-100 atom-100 atom-101" d="M 196.8,46.8 L 194.7,50.3" style="fill:none;fill-rule:evenodd;stroke:#0000FF;stroke-width:2.0px;stroke-linecap:butt;stroke-linejoin:miter;stroke-opacity:1"/>
<path class="bond-100 atom-100 atom-101" d="M 194.7,50.3 L 192.6,53.8" style="fill:none;fill-rule:evenodd;stroke:#000000;stroke-width:2.0px;stroke-linecap:butt;stroke-linejoin:miter;stroke-opacity:1"/>
<path class="bond-101 atom-101 atom-102" d="M 190.5,53.7 L 192.8,57.8" style="fill:none;fill-rule:evenodd;stroke:#000000;stroke-width:2.0px;stroke-linecap:butt;stroke-linejoin:miter;stroke-opacity:1"/>
<path class="bond-101 atom-101 atom-102" d="M 192.8,57.8 L 195.0,61.8" style="fill:none;fill-rule:evenodd;stroke:#0000FF;stroke-width:2.0px;stroke-linecap:butt;stroke-linejoin:miter;stroke-opacity:1"/>
<path class="bond-102 atom-102 atom-103" d="M 198.4,64.3 L 203.5,64.4" style="fill:none;fill-rule:evenodd;stroke:#0000FF;stroke-width:2.0px;stroke-linecap:butt;stroke-linejoin:miter;stroke-opacity:1"/>
<path class="bond-102 atom-102 atom-103" d="M 203.5,64.4 L 208.5,64.5" style="fill:none;fill-rule:evenodd;stroke:#000000;stroke-width:2.0px;stroke-linecap:butt;stroke-linejoin:miter;stroke-opacity:1"/>
<path class="bond-102 atom-102 atom-103" d="M 198.4,62.5 L 203.0,62.6" style="fill:none;fill-rule:evenodd;stroke:#0000FF;stroke-width:2.0px;stroke-linecap:butt;stroke-linejoin:miter;stroke-opacity:1"/>
<path class="bond-102 atom-102 atom-103" d="M 203.0,62.6 L 207.5,62.7" style="fill:none;fill-rule:evenodd;stroke:#000000;stroke-width:2.0px;stroke-linecap:butt;stroke-linejoin:miter;stroke-opacity:1"/>
<path class="bond-103 atom-93 atom-104" d="M 213.7,85.3 L 202.6,90.1" style="fill:none;fill-rule:evenodd;stroke:#000000;stroke-width:2.0px;stroke-linecap:butt;stroke-linejoin:miter;stroke-opacity:1"/>
<path class="bond-104 atom-104 atom-105" d="M 202.6,90.1 L 198.6,87.7" style="fill:none;fill-rule:evenodd;stroke:#000000;stroke-width:2.0px;stroke-linecap:butt;stroke-linejoin:miter;stroke-opacity:1"/>
<path class="bond-104 atom-104 atom-105" d="M 198.6,87.7 L 194.6,85.3" style="fill:none;fill-rule:evenodd;stroke:#FF0000;stroke-width:2.0px;stroke-linecap:butt;stroke-linejoin:miter;stroke-opacity:1"/>
<path class="bond-105 atom-104 atom-106" d="M 202.6,90.1 L 203.7,102.1" style="fill:none;fill-rule:evenodd;stroke:#000000;stroke-width:2.0px;stroke-linecap:butt;stroke-linejoin:miter;stroke-opacity:1"/>
<path class="bond-106 atom-106 atom-107" d="M 203.7,102.1 L 200.3,105.0" style="fill:none;fill-rule:evenodd;stroke:#000000;stroke-width:2.0px;stroke-linecap:butt;stroke-linejoin:miter;stroke-opacity:1"/>
<path class="bond-106 atom-106 atom-107" d="M 200.3,105.0 L 196.9,108.0" style="fill:none;fill-rule:evenodd;stroke:#FF0000;stroke-width:2.0px;stroke-linecap:butt;stroke-linejoin:miter;stroke-opacity:1"/>
<path class="bond-107 atom-107 atom-108" d="M 192.3,109.2 L 188.6,108.0" style="fill:none;fill-rule:evenodd;stroke:#FF0000;stroke-width:2.0px;stroke-linecap:butt;stroke-linejoin:miter;stroke-opacity:1"/>
<path class="bond-107 atom-107 atom-108" d="M 188.6,108.0 L 184.9,106.7" style="fill:none;fill-rule:evenodd;stroke:#FF7F00;stroke-width:2.0px;stroke-linecap:butt;stroke-linejoin:miter;stroke-opacity:1"/>
<path class="bond-108 atom-108 atom-109" d="M 180.8,108.1 L 179.2,110.7" style="fill:none;fill-rule:evenodd;stroke:#FF7F00;stroke-width:2.0px;stroke-linecap:butt;stroke-linejoin:miter;stroke-opacity:1"/>
<path class="bond-108 atom-108 atom-109" d="M 179.2,110.7 L 177.5,113.2" style="fill:none;fill-rule:evenodd;stroke:#FF0000;stroke-width:2.0px;stroke-linecap:butt;stroke-linejoin:miter;stroke-opacity:1"/>
<path class="bond-108 atom-108 atom-109" d="M 182.3,109.1 L 180.7,111.7" style="fill:none;fill-rule:evenodd;stroke:#FF7F00;stroke-width:2.0px;stroke-linecap:butt;stroke-linejoin:miter;stroke-opacity:1"/>
<path class="bond-108 atom-108 atom-109" d="M 180.7,111.7 L 179.0,114.2" style="fill:none;fill-rule:evenodd;stroke:#FF0000;stroke-width:2.0px;stroke-linecap:butt;stroke-linejoin:miter;stroke-opacity:1"/>
<path class="bond-109 atom-108 atom-110" d="M 184.0,103.6 L 185.1,100.4" style="fill:none;fill-rule:evenodd;stroke:#FF7F00;stroke-width:2.0px;stroke-linecap:butt;stroke-linejoin:miter;stroke-opacity:1"/>
<path class="bond-109 atom-108 atom-110" d="M 185.1,100.4 L 186.2,97.3" style="fill:none;fill-rule:evenodd;stroke:#FF0000;stroke-width:2.0px;stroke-linecap:butt;stroke-linejoin:miter;stroke-opacity:1"/>
<path class="bond-110 atom-108 atom-111" d="M 181.4,105.3 L 178.1,103.6" style="fill:none;fill-rule:evenodd;stroke:#FF7F00;stroke-width:2.0px;stroke-linecap:butt;stroke-linejoin:miter;stroke-opacity:1"/>
<path class="bond-110 atom-108 atom-111" d="M 178.1,103.6 L 174.7,102.0" style="fill:none;fill-rule:evenodd;stroke:#FF0000;stroke-width:2.0px;stroke-linecap:butt;stroke-linejoin:miter;stroke-opacity:1"/>
<path class="bond-111 atom-1 atom-112" d="M 255.0,77.0 L 265.9,82.1" style="fill:none;fill-rule:evenodd;stroke:#000000;stroke-width:2.0px;stroke-linecap:butt;stroke-linejoin:miter;stroke-opacity:1"/>
<path class="bond-112 atom-112 atom-113" d="M 265.0,81.7 L 265.4,86.7" style="fill:none;fill-rule:evenodd;stroke:#000000;stroke-width:2.0px;stroke-linecap:butt;stroke-linejoin:miter;stroke-opacity:1"/>
<path class="bond-112 atom-112 atom-113" d="M 265.4,86.7 L 265.9,91.7" style="fill:none;fill-rule:evenodd;stroke:#FF0000;stroke-width:2.0px;stroke-linecap:butt;stroke-linejoin:miter;stroke-opacity:1"/>
<path class="bond-112 atom-112 atom-113" d="M 266.7,81.5 L 267.2,86.5" style="fill:none;fill-rule:evenodd;stroke:#000000;stroke-width:2.0px;stroke-linecap:butt;stroke-linejoin:miter;stroke-opacity:1"/>
<path class="bond-112 atom-112 atom-113" d="M 267.2,86.5 L 267.6,91.5" style="fill:none;fill-rule:evenodd;stroke:#FF0000;stroke-width:2.0px;stroke-linecap:butt;stroke-linejoin:miter;stroke-opacity:1"/>
<path class="bond-113 atom-112 atom-114" d="M 265.9,82.1 L 269.7,79.5" style="fill:none;fill-rule:evenodd;stroke:#000000;stroke-width:2.0px;stroke-linecap:butt;stroke-linejoin:miter;stroke-opacity:1"/>
<path class="bond-113 atom-112 atom-114" d="M 269.7,79.5 L 273.4,76.8" style="fill:none;fill-rule:evenodd;stroke:#FF0000;stroke-width:2.0px;stroke-linecap:butt;stroke-linejoin:miter;stroke-opacity:1"/>
<path class="bond-114 atom-106 atom-37" d="M 203.7,102.1 L 215.5,104.8" style="fill:none;fill-rule:evenodd;stroke:#000000;stroke-width:2.0px;stroke-linecap:butt;stroke-linejoin:miter;stroke-opacity:1"/>
<path class="bond-115 atom-86 atom-71" d="M 212.9,148.5 L 215.6,136.7" style="fill:none;fill-rule:evenodd;stroke:#000000;stroke-width:2.0px;stroke-linecap:butt;stroke-linejoin:miter;stroke-opacity:1"/>
<path class="bond-116 atom-103 atom-94" d="M 208.5,64.5 L 211.4,67.9" style="fill:none;fill-rule:evenodd;stroke:#000000;stroke-width:2.0px;stroke-linecap:butt;stroke-linejoin:miter;stroke-opacity:1"/>
<path class="bond-116 atom-103 atom-94" d="M 211.4,67.9 L 214.4,71.3" style="fill:none;fill-rule:evenodd;stroke:#0000FF;stroke-width:2.0px;stroke-linecap:butt;stroke-linejoin:miter;stroke-opacity:1"/>
<path class="bond-117 atom-83 atom-74" d="M 253.2,141.5 L 249.6,144.6" style="fill:none;fill-rule:evenodd;stroke:#000000;stroke-width:2.0px;stroke-linecap:butt;stroke-linejoin:miter;stroke-opacity:1"/>
<path class="bond-117 atom-83 atom-74" d="M 249.6,144.6 L 246.1,147.7" style="fill:none;fill-rule:evenodd;stroke:#0000FF;stroke-width:2.0px;stroke-linecap:butt;stroke-linejoin:miter;stroke-opacity:1"/>
<path class="bond-118 atom-103 atom-97" d="M 208.5,64.5 L 214.7,54.1" style="fill:none;fill-rule:evenodd;stroke:#000000;stroke-width:2.0px;stroke-linecap:butt;stroke-linejoin:miter;stroke-opacity:1"/>
<path class="bond-119 atom-83 atom-77" d="M 253.2,141.5 L 263.5,147.7" style="fill:none;fill-rule:evenodd;stroke:#000000;stroke-width:2.0px;stroke-linecap:butt;stroke-linejoin:miter;stroke-opacity:1"/>
<path d="M 254.5,77.4 L 255.0,77.0 L 255.5,77.3" style="fill:none;stroke:#000000;stroke-width:2.0px;stroke-linecap:butt;stroke-linejoin:miter;stroke-opacity:1;"/>
<path d="M 245.6,83.6 L 245.1,84.0 L 245.1,84.6" style="fill:none;stroke:#000000;stroke-width:2.0px;stroke-linecap:butt;stroke-linejoin:miter;stroke-opacity:1;"/>
<path d="M 246.1,95.4 L 246.2,96.0 L 245.7,96.3" style="fill:none;stroke:#000000;stroke-width:2.0px;stroke-linecap:butt;stroke-linejoin:miter;stroke-opacity:1;"/>
<path d="M 279.8,123.1 L 280.1,123.2 L 280.6,122.9" style="fill:none;stroke:#000000;stroke-width:2.0px;stroke-linecap:butt;stroke-linejoin:miter;stroke-opacity:1;"/>
<path d="M 310.2,114.2 L 310.8,114.4 L 311.0,114.3" style="fill:none;stroke:#000000;stroke-width:2.0px;stroke-linecap:butt;stroke-linejoin:miter;stroke-opacity:1;"/>
<path d="M 331.4,112.5 L 331.6,112.6 L 332.1,112.2" style="fill:none;stroke:#000000;stroke-width:2.0px;stroke-linecap:butt;stroke-linejoin:miter;stroke-opacity:1;"/>
<path d="M 341.0,106.0 L 341.4,105.6 L 342.0,105.9" style="fill:none;stroke:#000000;stroke-width:2.0px;stroke-linecap:butt;stroke-linejoin:miter;stroke-opacity:1;"/>
<path d="M 351.8,110.5 L 352.4,110.7 L 352.6,110.6" style="fill:none;stroke:#000000;stroke-width:2.0px;stroke-linecap:butt;stroke-linejoin:miter;stroke-opacity:1;"/>
<path d="M 373.0,108.8 L 373.2,108.9 L 373.7,108.5" style="fill:none;stroke:#000000;stroke-width:2.0px;stroke-linecap:butt;stroke-linejoin:miter;stroke-opacity:1;"/>
<path d="M 382.6,102.3 L 383.1,101.9 L 383.3,102.0" style="fill:none;stroke:#000000;stroke-width:2.0px;stroke-linecap:butt;stroke-linejoin:miter;stroke-opacity:1;"/>
<path d="M 403.7,100.2 L 403.9,100.1 L 404.5,100.3" style="fill:none;stroke:#000000;stroke-width:2.0px;stroke-linecap:butt;stroke-linejoin:miter;stroke-opacity:1;"/>
<path d="M 152.4,127.6 L 152.3,127.8 L 151.8,127.9" style="fill:none;stroke:#000000;stroke-width:2.0px;stroke-linecap:butt;stroke-linejoin:miter;stroke-opacity:1;"/>
<path d="M 121.1,123.8 L 120.7,123.4 L 120.5,123.4" style="fill:none;stroke:#000000;stroke-width:2.0px;stroke-linecap:butt;stroke-linejoin:miter;stroke-opacity:1;"/>
<path d="M 101.1,116.8 L 101.0,116.6 L 100.4,116.7" style="fill:none;stroke:#000000;stroke-width:2.0px;stroke-linecap:butt;stroke-linejoin:miter;stroke-opacity:1;"/>
<path d="M 89.7,118.8 L 89.1,118.9 L 88.7,118.5" style="fill:none;stroke:#000000;stroke-width:2.0px;stroke-linecap:butt;stroke-linejoin:miter;stroke-opacity:1;"/>
<path d="M 81.6,110.3 L 81.2,109.8 L 80.9,109.9" style="fill:none;stroke:#000000;stroke-width:2.0px;stroke-linecap:butt;stroke-linejoin:miter;stroke-opacity:1;"/>
<path d="M 61.5,103.2 L 61.4,103.1 L 60.8,103.2" style="fill:none;stroke:#000000;stroke-width:2.0px;stroke-linecap:butt;stroke-linejoin:miter;stroke-opacity:1;"/>
<path d="M 50.2,105.3 L 49.6,105.4 L 49.4,105.2" style="fill:none;stroke:#000000;stroke-width:2.0px;stroke-linecap:butt;stroke-linejoin:miter;stroke-opacity:1;"/>
<path d="M 30.0,98.6 L 29.8,98.6 L 29.4,98.2" style="fill:none;stroke:#000000;stroke-width:2.0px;stroke-linecap:butt;stroke-linejoin:miter;stroke-opacity:1;"/>
<path d="M 248.7,160.3 L 248.8,160.5 L 249.1,160.5" style="fill:none;stroke:#000000;stroke-width:2.0px;stroke-linecap:butt;stroke-linejoin:miter;stroke-opacity:1;"/>
<path d="M 264.1,123.7 L 263.9,123.6 L 263.7,123.7" style="fill:none;stroke:#000000;stroke-width:2.0px;stroke-linecap:butt;stroke-linejoin:miter;stroke-opacity:1;"/>
<path d="M 227.3,68.9 L 227.5,68.8 L 227.5,68.6" style="fill:none;stroke:#000000;stroke-width:2.0px;stroke-linecap:butt;stroke-linejoin:miter;stroke-opacity:1;"/>
<path d="M 190.7,53.5 L 190.5,53.7 L 190.7,53.9" style="fill:none;stroke:#000000;stroke-width:2.0px;stroke-linecap:butt;stroke-linejoin:miter;stroke-opacity:1;"/>
<path d="M 265.4,81.8 L 265.9,82.1 L 266.1,82.0" style="fill:none;stroke:#000000;stroke-width:2.0px;stroke-linecap:butt;stroke-linejoin:miter;stroke-opacity:1;"/>
<path class="atom-5" d="M 240.9 110.2 Q 240.9 109.2, 241.4 108.6 Q 241.9 108.0, 242.8 108.0 Q 243.8 108.0, 244.3 108.6 Q 244.8 109.2, 244.8 110.2 Q 244.8 111.2, 244.3 111.8 Q 243.8 112.4, 242.8 112.4 Q 241.9 112.4, 241.4 111.8 Q 240.9 111.2, 240.9 110.2 M 242.8 111.9 Q 243.5 111.9, 243.8 111.5 Q 244.2 111.0, 244.2 110.2 Q 244.2 109.4, 243.8 108.9 Q 243.5 108.5, 242.8 108.5 Q 242.2 108.5, 241.8 108.9 Q 241.5 109.3, 241.5 110.2 Q 241.5 111.0, 241.8 111.5 Q 242.2 111.9, 242.8 111.9 " fill="#FF0000"/>
<path class="atom-5" d="M 245.4 108.1 L 246.0 108.1 L 246.0 109.9 L 248.2 109.9 L 248.2 108.1 L 248.8 108.1 L 248.8 112.3 L 248.2 112.3 L 248.2 110.4 L 246.0 110.4 L 246.0 112.3 L 245.4 112.3 L 245.4 108.1 " fill="#FF0000"/>
<path class="atom-6" d="M 223.2 90.9 L 223.8 90.9 L 223.8 92.8 L 225.9 92.8 L 225.9 90.9 L 226.5 90.9 L 226.5 95.2 L 225.9 95.2 L 225.9 93.2 L 223.8 93.2 L 223.8 95.2 L 223.2 95.2 L 223.2 90.9 " fill="#FF0000"/>
<path class="atom-6" d="M 227.4 93.1 Q 227.4 92.0, 227.9 91.5 Q 228.4 90.9, 229.3 90.9 Q 230.3 90.9, 230.8 91.5 Q 231.3 92.0, 231.3 93.1 Q 231.3 94.1, 230.8 94.7 Q 230.3 95.3, 229.3 95.3 Q 228.4 95.3, 227.9 94.7 Q 227.4 94.1, 227.4 93.1 M 229.3 94.8 Q 230.0 94.8, 230.3 94.4 Q 230.7 93.9, 230.7 93.1 Q 230.7 92.2, 230.3 91.8 Q 230.0 91.4, 229.3 91.4 Q 228.7 91.4, 228.3 91.8 Q 228.0 92.2, 228.0 93.1 Q 228.0 93.9, 228.3 94.4 Q 228.7 94.8, 229.3 94.8 " fill="#FF0000"/>
<path class="atom-8" d="M 225.5 121.9 Q 225.5 120.9, 226.0 120.3 Q 226.5 119.7, 227.5 119.7 Q 228.4 119.7, 228.9 120.3 Q 229.4 120.9, 229.4 121.9 Q 229.4 122.9, 228.9 123.5 Q 228.4 124.1, 227.5 124.1 Q 226.5 124.1, 226.0 123.5 Q 225.5 122.9, 225.5 121.9 M 227.5 123.6 Q 228.1 123.6, 228.5 123.2 Q 228.8 122.7, 228.8 121.9 Q 228.8 121.1, 228.5 120.6 Q 228.1 120.2, 227.5 120.2 Q 226.8 120.2, 226.5 120.6 Q 226.1 121.1, 226.1 121.9 Q 226.1 122.8, 226.5 123.2 Q 226.8 123.6, 227.5 123.6 " fill="#FF0000"/>
<path class="atom-9" d="M 238.3 124.8 Q 239.0 124.8, 239.4 125.2 Q 239.8 125.5, 239.8 126.1 Q 239.8 126.7, 239.4 127.0 Q 239.0 127.3, 238.3 127.3 L 237.6 127.3 L 237.6 129.1 L 237.1 129.1 L 237.1 124.8 L 238.3 124.8 M 238.3 126.9 Q 238.7 126.9, 239.0 126.7 Q 239.2 126.5, 239.2 126.1 Q 239.2 125.7, 239.0 125.5 Q 238.7 125.3, 238.3 125.3 L 237.6 125.3 L 237.6 126.9 L 238.3 126.9 " fill="#FF7F00"/>
<path class="atom-10" d="M 241.6 118.7 Q 241.6 117.7, 242.1 117.1 Q 242.6 116.5, 243.6 116.5 Q 244.5 116.5, 245.0 117.1 Q 245.5 117.7, 245.5 118.7 Q 245.5 119.7, 245.0 120.3 Q 244.5 120.9, 243.6 120.9 Q 242.7 120.9, 242.1 120.3 Q 241.6 119.7, 241.6 118.7 M 243.6 120.4 Q 244.2 120.4, 244.6 120.0 Q 244.9 119.5, 244.9 118.7 Q 244.9 117.8, 244.6 117.4 Q 244.2 117.0, 243.6 117.0 Q 242.9 117.0, 242.6 117.4 Q 242.2 117.8, 242.2 118.7 Q 242.2 119.5, 242.6 120.0 Q 242.9 120.4, 243.6 120.4 " fill="#FF0000"/>
<path class="atom-11" d="M 234.2 138.8 Q 234.2 137.8, 234.7 137.2 Q 235.2 136.7, 236.1 136.7 Q 237.1 136.7, 237.6 137.2 Q 238.1 137.8, 238.1 138.8 Q 238.1 139.9, 237.6 140.4 Q 237.1 141.0, 236.1 141.0 Q 235.2 141.0, 234.7 140.4 Q 234.2 139.9, 234.2 138.8 M 236.1 140.5 Q 236.8 140.5, 237.1 140.1 Q 237.5 139.7, 237.5 138.8 Q 237.5 138.0, 237.1 137.6 Q 236.8 137.1, 236.1 137.1 Q 235.5 137.1, 235.1 137.6 Q 234.8 138.0, 234.8 138.8 Q 234.8 139.7, 235.1 140.1 Q 235.5 140.5, 236.1 140.5 " fill="#FF0000"/>
<path class="atom-11" d="M 238.8 136.7 L 239.3 136.7 L 239.3 138.5 L 241.5 138.5 L 241.5 136.7 L 242.1 136.7 L 242.1 141.0 L 241.5 141.0 L 241.5 139.0 L 239.3 139.0 L 239.3 141.0 L 238.8 141.0 L 238.8 136.7 " fill="#FF0000"/>
<path class="atom-12" d="M 247.4 132.1 Q 247.4 131.0, 247.9 130.5 Q 248.4 129.9, 249.4 129.9 Q 250.3 129.9, 250.8 130.5 Q 251.3 131.0, 251.3 132.1 Q 251.3 133.1, 250.8 133.7 Q 250.3 134.3, 249.4 134.3 Q 248.4 134.3, 247.9 133.7 Q 247.4 133.1, 247.4 132.1 M 249.4 133.8 Q 250.0 133.8, 250.4 133.3 Q 250.7 132.9, 250.7 132.1 Q 250.7 131.2, 250.4 130.8 Q 250.0 130.4, 249.4 130.4 Q 248.7 130.4, 248.4 130.8 Q 248.0 131.2, 248.0 132.1 Q 248.0 132.9, 248.4 133.3 Q 248.7 133.8, 249.4 133.8 " fill="#FF0000"/>
<path class="atom-13" d="M 259.1 123.0 Q 259.9 123.0, 260.2 123.3 Q 260.6 123.6, 260.6 124.2 Q 260.6 124.8, 260.2 125.2 Q 259.9 125.5, 259.1 125.5 L 258.5 125.5 L 258.5 127.2 L 257.9 127.2 L 257.9 123.0 L 259.1 123.0 M 259.1 125.0 Q 259.6 125.0, 259.8 124.8 Q 260.0 124.6, 260.0 124.2 Q 260.0 123.8, 259.8 123.7 Q 259.6 123.5, 259.1 123.5 L 258.5 123.5 L 258.5 125.0 L 259.1 125.0 " fill="#FF7F00"/>
<path class="atom-14" d="M 264.2 135.0 Q 264.2 134.0, 264.7 133.4 Q 265.2 132.8, 266.2 132.8 Q 267.1 132.8, 267.6 133.4 Q 268.1 134.0, 268.1 135.0 Q 268.1 136.0, 267.6 136.6 Q 267.1 137.2, 266.2 137.2 Q 265.2 137.2, 264.7 136.6 Q 264.2 136.0, 264.2 135.0 M 266.2 136.7 Q 266.8 136.7, 267.2 136.3 Q 267.5 135.8, 267.5 135.0 Q 267.5 134.2, 267.2 133.7 Q 266.8 133.3, 266.2 133.3 Q 265.5 133.3, 265.2 133.7 Q 264.8 134.1, 264.8 135.0 Q 264.8 135.8, 265.2 136.3 Q 265.5 136.7, 266.2 136.7 " fill="#FF0000"/>
<path class="atom-15" d="M 246.2 113.1 L 246.7 113.1 L 246.7 114.9 L 248.9 114.9 L 248.9 113.1 L 249.5 113.1 L 249.5 117.4 L 248.9 117.4 L 248.9 115.4 L 246.7 115.4 L 246.7 117.4 L 246.2 117.4 L 246.2 113.1 " fill="#FF0000"/>
<path class="atom-15" d="M 250.4 115.2 Q 250.4 114.2, 250.9 113.7 Q 251.4 113.1, 252.3 113.1 Q 253.2 113.1, 253.8 113.7 Q 254.3 114.2, 254.3 115.2 Q 254.3 116.3, 253.7 116.9 Q 253.2 117.4, 252.3 117.4 Q 251.4 117.4, 250.9 116.9 Q 250.4 116.3, 250.4 115.2 M 252.3 117.0 Q 253.0 117.0, 253.3 116.5 Q 253.7 116.1, 253.7 115.2 Q 253.7 114.4, 253.3 114.0 Q 253.0 113.6, 252.3 113.6 Q 251.7 113.6, 251.3 114.0 Q 251.0 114.4, 251.0 115.2 Q 251.0 116.1, 251.3 116.5 Q 251.7 117.0, 252.3 117.0 " fill="#FF0000"/>
<path class="atom-16" d="M 267.2 118.2 Q 267.2 117.2, 267.7 116.6 Q 268.2 116.0, 269.1 116.0 Q 270.1 116.0, 270.6 116.6 Q 271.1 117.2, 271.1 118.2 Q 271.1 119.2, 270.6 119.8 Q 270.0 120.4, 269.1 120.4 Q 268.2 120.4, 267.7 119.8 Q 267.2 119.2, 267.2 118.2 M 269.1 119.9 Q 269.8 119.9, 270.1 119.5 Q 270.5 119.0, 270.5 118.2 Q 270.5 117.3, 270.1 116.9 Q 269.8 116.5, 269.1 116.5 Q 268.5 116.5, 268.1 116.9 Q 267.8 117.3, 267.8 118.2 Q 267.8 119.0, 268.1 119.5 Q 268.5 119.9, 269.1 119.9 " fill="#FF0000"/>
<path class="atom-22" d="M 296.8 97.4 Q 296.8 96.3, 297.3 95.8 Q 297.8 95.2, 298.7 95.2 Q 299.7 95.2, 300.2 95.8 Q 300.7 96.3, 300.7 97.4 Q 300.7 98.4, 300.2 99.0 Q 299.7 99.6, 298.7 99.6 Q 297.8 99.6, 297.3 99.0 Q 296.8 98.4, 296.8 97.4 M 298.7 99.1 Q 299.4 99.1, 299.7 98.6 Q 300.1 98.2, 300.1 97.4 Q 300.1 96.5, 299.7 96.1 Q 299.4 95.7, 298.7 95.7 Q 298.1 95.7, 297.7 96.1 Q 297.4 96.5, 297.4 97.4 Q 297.4 98.2, 297.7 98.6 Q 298.1 99.1, 298.7 99.1 " fill="#FF0000"/>
<path class="atom-22" d="M 301.3 95.2 L 301.9 95.2 L 301.9 97.1 L 304.1 97.1 L 304.1 95.2 L 304.7 95.2 L 304.7 99.5 L 304.1 99.5 L 304.1 97.5 L 301.9 97.5 L 301.9 99.5 L 301.3 99.5 L 301.3 95.2 " fill="#FF0000"/>
<path class="atom-24" d="M 309.9 126.5 Q 309.9 125.5, 310.4 124.9 Q 310.9 124.3, 311.8 124.3 Q 312.8 124.3, 313.3 124.9 Q 313.8 125.5, 313.8 126.5 Q 313.8 127.5, 313.3 128.1 Q 312.8 128.7, 311.8 128.7 Q 310.9 128.7, 310.4 128.1 Q 309.9 127.5, 309.9 126.5 M 311.8 128.2 Q 312.5 128.2, 312.8 127.8 Q 313.2 127.3, 313.2 126.5 Q 313.2 125.6, 312.8 125.2 Q 312.5 124.8, 311.8 124.8 Q 311.2 124.8, 310.8 125.2 Q 310.5 125.6, 310.5 126.5 Q 310.5 127.3, 310.8 127.8 Q 311.2 128.2, 311.8 128.2 " fill="#FF0000"/>
<path class="atom-25" d="M 319.7 105.4 L 321.1 107.6 Q 321.2 107.9, 321.4 108.3 Q 321.7 108.7, 321.7 108.7 L 321.7 105.4 L 322.2 105.4 L 322.2 109.6 L 321.7 109.6 L 320.2 107.2 Q 320.0 106.9, 319.8 106.6 Q 319.6 106.2, 319.6 106.1 L 319.6 109.6 L 319.0 109.6 L 319.0 105.4 L 319.7 105.4 " fill="#0000FF"/>
<path class="atom-25" d="M 319.0 100.7 L 319.5 100.7 L 319.5 102.5 L 321.7 102.5 L 321.7 100.7 L 322.3 100.7 L 322.3 105.0 L 321.7 105.0 L 321.7 103.0 L 319.5 103.0 L 319.5 105.0 L 319.0 105.0 L 319.0 100.7 " fill="#0000FF"/>
<path class="atom-29" d="M 351.5 122.8 Q 351.5 121.7, 352.0 121.2 Q 352.5 120.6, 353.5 120.6 Q 354.4 120.6, 354.9 121.2 Q 355.4 121.7, 355.4 122.8 Q 355.4 123.8, 354.9 124.4 Q 354.4 125.0, 353.5 125.0 Q 352.5 125.0, 352.0 124.4 Q 351.5 123.8, 351.5 122.8 M 353.5 124.5 Q 354.1 124.5, 354.5 124.0 Q 354.8 123.6, 354.8 122.8 Q 354.8 121.9, 354.5 121.5 Q 354.1 121.1, 353.5 121.1 Q 352.8 121.1, 352.5 121.5 Q 352.1 121.9, 352.1 122.8 Q 352.1 123.6, 352.5 124.0 Q 352.8 124.5, 353.5 124.5 " fill="#FF0000"/>
<path class="atom-30" d="M 361.3 101.7 L 362.7 103.9 Q 362.9 104.1, 363.1 104.5 Q 363.3 104.9, 363.3 105.0 L 363.3 101.7 L 363.9 101.7 L 363.9 105.9 L 363.3 105.9 L 361.8 103.5 Q 361.6 103.2, 361.4 102.8 Q 361.3 102.5, 361.2 102.4 L 361.2 105.9 L 360.7 105.9 L 360.7 101.7 L 361.3 101.7 " fill="#0000FF"/>
<path class="atom-30" d="M 360.6 97.0 L 361.2 97.0 L 361.2 98.8 L 363.4 98.8 L 363.4 97.0 L 363.9 97.0 L 363.9 101.2 L 363.4 101.2 L 363.4 99.3 L 361.2 99.3 L 361.2 101.2 L 360.6 101.2 L 360.6 97.0 " fill="#0000FF"/>
<path class="atom-33" d="M 392.8 108.5 Q 392.9 108.5, 393.1 108.6 Q 393.3 108.7, 393.5 108.7 Q 393.7 108.8, 393.9 108.8 Q 394.3 108.8, 394.6 108.6 Q 394.8 108.4, 394.8 108.0 Q 394.8 107.8, 394.7 107.6 Q 394.6 107.5, 394.4 107.4 Q 394.2 107.3, 393.9 107.3 Q 393.5 107.1, 393.3 107.0 Q 393.1 106.9, 392.9 106.7 Q 392.8 106.5, 392.8 106.1 Q 392.8 105.5, 393.1 105.2 Q 393.5 104.9, 394.2 104.9 Q 394.7 104.9, 395.3 105.1 L 395.1 105.6 Q 394.6 105.4, 394.2 105.4 Q 393.8 105.4, 393.6 105.5 Q 393.4 105.7, 393.4 106.0 Q 393.4 106.2, 393.5 106.4 Q 393.6 106.5, 393.8 106.6 Q 393.9 106.7, 394.2 106.8 Q 394.6 106.9, 394.8 107.0 Q 395.1 107.1, 395.2 107.4 Q 395.4 107.6, 395.4 108.0 Q 395.4 108.6, 395.0 108.9 Q 394.6 109.2, 394.0 109.2 Q 393.6 109.2, 393.3 109.2 Q 393.0 109.1, 392.7 108.9 L 392.8 108.5 " fill="#CCCC00"/>
<path class="atom-36" d="M 400.9 88.1 Q 400.9 87.0, 401.4 86.5 Q 401.9 85.9, 402.8 85.9 Q 403.8 85.9, 404.3 86.5 Q 404.8 87.0, 404.8 88.1 Q 404.8 89.1, 404.3 89.7 Q 403.8 90.3, 402.8 90.3 Q 401.9 90.3, 401.4 89.7 Q 400.9 89.1, 400.9 88.1 M 402.8 89.8 Q 403.5 89.8, 403.8 89.3 Q 404.2 88.9, 404.2 88.1 Q 404.2 87.2, 403.8 86.8 Q 403.5 86.4, 402.8 86.4 Q 402.2 86.4, 401.8 86.8 Q 401.5 87.2, 401.5 88.1 Q 401.5 88.9, 401.8 89.3 Q 402.2 89.8, 402.8 89.8 " fill="#FF0000"/>
<path class="atom-39" d="M 193.4 113.1 L 194.0 113.1 L 194.0 114.9 L 196.1 114.9 L 196.1 113.1 L 196.7 113.1 L 196.7 117.3 L 196.1 117.3 L 196.1 115.4 L 194.0 115.4 L 194.0 117.3 L 193.4 117.3 L 193.4 113.1 " fill="#FF0000"/>
<path class="atom-39" d="M 197.6 115.2 Q 197.6 114.2, 198.1 113.6 Q 198.6 113.0, 199.5 113.0 Q 200.5 113.0, 201.0 113.6 Q 201.5 114.2, 201.5 115.2 Q 201.5 116.2, 201.0 116.8 Q 200.5 117.4, 199.5 117.4 Q 198.6 117.4, 198.1 116.8 Q 197.6 116.2, 197.6 115.2 M 199.5 116.9 Q 200.2 116.9, 200.5 116.5 Q 200.9 116.0, 200.9 115.2 Q 200.9 114.3, 200.5 113.9 Q 200.2 113.5, 199.5 113.5 Q 198.9 113.5, 198.5 113.9 Q 198.2 114.3, 198.2 115.2 Q 198.2 116.0, 198.5 116.5 Q 198.9 116.9, 199.5 116.9 " fill="#FF0000"/>
<path class="atom-40" d="M 217.8 121.5 Q 217.8 120.5, 218.3 119.9 Q 218.8 119.4, 219.8 119.4 Q 220.7 119.4, 221.2 119.9 Q 221.7 120.5, 221.7 121.5 Q 221.7 122.6, 221.2 123.1 Q 220.7 123.7, 219.8 123.7 Q 218.8 123.7, 218.3 123.1 Q 217.8 122.6, 217.8 121.5 M 219.8 123.2 Q 220.4 123.2, 220.8 122.8 Q 221.1 122.4, 221.1 121.5 Q 221.1 120.7, 220.8 120.3 Q 220.4 119.8, 219.8 119.8 Q 219.1 119.8, 218.8 120.3 Q 218.4 120.7, 218.4 121.5 Q 218.4 122.4, 218.8 122.8 Q 219.1 123.2, 219.8 123.2 " fill="#FF0000"/>
<path class="atom-40" d="M 222.4 119.4 L 222.9 119.4 L 222.9 121.2 L 225.1 121.2 L 225.1 119.4 L 225.7 119.4 L 225.7 123.7 L 225.1 123.7 L 225.1 121.7 L 222.9 121.7 L 222.9 123.7 L 222.4 123.7 L 222.4 119.4 " fill="#FF0000"/>
<path class="atom-42" d="M 193.9 130.0 Q 193.9 128.9, 194.4 128.4 Q 194.9 127.8, 195.8 127.8 Q 196.7 127.8, 197.2 128.4 Q 197.8 128.9, 197.8 130.0 Q 197.8 131.0, 197.2 131.6 Q 196.7 132.2, 195.8 132.2 Q 194.9 132.2, 194.4 131.6 Q 193.9 131.0, 193.9 130.0 M 195.8 131.7 Q 196.4 131.7, 196.8 131.2 Q 197.2 130.8, 197.2 130.0 Q 197.2 129.1, 196.8 128.7 Q 196.4 128.3, 195.8 128.3 Q 195.2 128.3, 194.8 128.7 Q 194.5 129.1, 194.5 130.0 Q 194.5 130.8, 194.8 131.2 Q 195.2 131.7, 195.8 131.7 " fill="#FF0000"/>
<path class="atom-43" d="M 187.8 118.7 Q 188.5 118.7, 188.9 119.1 Q 189.2 119.4, 189.2 120.0 Q 189.2 120.6, 188.8 120.9 Q 188.5 121.2, 187.8 121.2 L 187.1 121.2 L 187.1 123.0 L 186.5 123.0 L 186.5 118.7 L 187.8 118.7 M 187.8 120.7 Q 188.2 120.7, 188.4 120.5 Q 188.6 120.3, 188.6 120.0 Q 188.6 119.6, 188.4 119.4 Q 188.2 119.2, 187.8 119.2 L 187.1 119.2 L 187.1 120.7 L 187.8 120.7 " fill="#FF7F00"/>
<path class="atom-44" d="M 180.6 124.5 Q 180.6 123.4, 181.1 122.9 Q 181.6 122.3, 182.6 122.3 Q 183.5 122.3, 184.0 122.9 Q 184.5 123.4, 184.5 124.5 Q 184.5 125.5, 184.0 126.1 Q 183.5 126.7, 182.6 126.7 Q 181.6 126.7, 181.1 126.1 Q 180.6 125.5, 180.6 124.5 M 182.6 126.2 Q 183.2 126.2, 183.6 125.7 Q 183.9 125.3, 183.9 124.5 Q 183.9 123.6, 183.6 123.2 Q 183.2 122.8, 182.6 122.8 Q 181.9 122.8, 181.6 123.2 Q 181.2 123.6, 181.2 124.5 Q 181.2 125.3, 181.6 125.7 Q 181.9 126.2, 182.6 126.2 " fill="#FF0000"/>
<path class="atom-45" d="M 177.0 124.1 L 177.5 124.1 L 177.5 125.9 L 179.7 125.9 L 179.7 124.1 L 180.3 124.1 L 180.3 128.3 L 179.7 128.3 L 179.7 126.3 L 177.5 126.3 L 177.5 128.3 L 177.0 128.3 L 177.0 124.1 " fill="#FF0000"/>
<path class="atom-45" d="M 181.2 126.2 Q 181.2 125.1, 181.7 124.6 Q 182.2 124.0, 183.1 124.0 Q 184.1 124.0, 184.6 124.6 Q 185.1 125.1, 185.1 126.2 Q 185.1 127.2, 184.6 127.8 Q 184.0 128.4, 183.1 128.4 Q 182.2 128.4, 181.7 127.8 Q 181.2 127.2, 181.2 126.2 M 183.1 127.9 Q 183.8 127.9, 184.1 127.5 Q 184.5 127.0, 184.5 126.2 Q 184.5 125.3, 184.1 124.9 Q 183.8 124.5, 183.1 124.5 Q 182.5 124.5, 182.1 124.9 Q 181.8 125.3, 181.8 126.2 Q 181.8 127.0, 182.1 127.5 Q 182.5 127.9, 183.1 127.9 " fill="#FF0000"/>
<path class="atom-46" d="M 178.0 111.8 Q 178.0 110.7, 178.5 110.2 Q 179.0 109.6, 179.9 109.6 Q 180.9 109.6, 181.4 110.2 Q 181.9 110.7, 181.9 111.8 Q 181.9 112.8, 181.4 113.4 Q 180.9 114.0, 179.9 114.0 Q 179.0 114.0, 178.5 113.4 Q 178.0 112.8, 178.0 111.8 M 179.9 113.5 Q 180.6 113.5, 180.9 113.1 Q 181.3 112.6, 181.3 111.8 Q 181.3 110.9, 180.9 110.5 Q 180.6 110.1, 179.9 110.1 Q 179.3 110.1, 178.9 110.5 Q 178.6 110.9, 178.6 111.8 Q 178.6 112.6, 178.9 113.1 Q 179.3 113.5, 179.9 113.5 " fill="#FF0000"/>
<path class="atom-47" d="M 168.0 112.0 Q 168.7 112.0, 169.1 112.3 Q 169.4 112.6, 169.4 113.2 Q 169.4 113.8, 169.1 114.1 Q 168.7 114.5, 168.0 114.5 L 167.3 114.5 L 167.3 116.2 L 166.7 116.2 L 166.7 112.0 L 168.0 112.0 M 168.0 114.0 Q 168.4 114.0, 168.6 113.8 Q 168.8 113.6, 168.8 113.2 Q 168.8 112.8, 168.6 112.6 Q 168.4 112.4, 168.0 112.4 L 167.3 112.4 L 167.3 114.0 L 168.0 114.0 " fill="#FF7F00"/>
<path class="atom-48" d="M 162.4 102.6 Q 162.4 101.6, 162.9 101.0 Q 163.4 100.5, 164.3 100.5 Q 165.3 100.5, 165.8 101.0 Q 166.3 101.6, 166.3 102.6 Q 166.3 103.7, 165.8 104.2 Q 165.3 104.8, 164.3 104.8 Q 163.4 104.8, 162.9 104.2 Q 162.4 103.7, 162.4 102.6 M 164.3 104.3 Q 165.0 104.3, 165.3 103.9 Q 165.7 103.5, 165.7 102.6 Q 165.7 101.8, 165.3 101.4 Q 165.0 100.9, 164.3 100.9 Q 163.7 100.9, 163.3 101.4 Q 163.0 101.8, 163.0 102.6 Q 163.0 103.5, 163.3 103.9 Q 163.7 104.3, 164.3 104.3 " fill="#FF0000"/>
<path class="atom-49" d="M 168.5 125.9 Q 168.5 124.9, 169.0 124.3 Q 169.5 123.8, 170.4 123.8 Q 171.4 123.8, 171.9 124.3 Q 172.4 124.9, 172.4 125.9 Q 172.4 127.0, 171.9 127.6 Q 171.3 128.1, 170.4 128.1 Q 169.5 128.1, 169.0 127.6 Q 168.5 127.0, 168.5 125.9 M 170.4 127.7 Q 171.1 127.7, 171.4 127.2 Q 171.8 126.8, 171.8 125.9 Q 171.8 125.1, 171.4 124.7 Q 171.1 124.3, 170.4 124.3 Q 169.8 124.3, 169.4 124.7 Q 169.1 125.1, 169.1 125.9 Q 169.1 126.8, 169.4 127.2 Q 169.8 127.7, 170.4 127.7 " fill="#FF0000"/>
<path class="atom-49" d="M 173.0 123.8 L 173.6 123.8 L 173.6 125.6 L 175.8 125.6 L 175.8 123.8 L 176.4 123.8 L 176.4 128.1 L 175.8 128.1 L 175.8 126.1 L 173.6 126.1 L 173.6 128.1 L 173.0 128.1 L 173.0 123.8 " fill="#FF0000"/>
<path class="atom-50" d="M 154.3 116.4 Q 154.3 115.4, 154.8 114.8 Q 155.3 114.3, 156.3 114.3 Q 157.2 114.3, 157.7 114.8 Q 158.2 115.4, 158.2 116.4 Q 158.2 117.4, 157.7 118.0 Q 157.2 118.6, 156.3 118.6 Q 155.3 118.6, 154.8 118.0 Q 154.3 117.5, 154.3 116.4 M 156.3 118.1 Q 156.9 118.1, 157.2 117.7 Q 157.6 117.3, 157.6 116.4 Q 157.6 115.6, 157.2 115.2 Q 156.9 114.7, 156.3 114.7 Q 155.6 114.7, 155.2 115.2 Q 154.9 115.6, 154.9 116.4 Q 154.9 117.3, 155.2 117.7 Q 155.6 118.1, 156.3 118.1 " fill="#FF0000"/>
<path class="atom-56" d="M 122.8 143.9 Q 122.8 142.9, 123.3 142.3 Q 123.8 141.7, 124.8 141.7 Q 125.7 141.7, 126.2 142.3 Q 126.7 142.9, 126.7 143.9 Q 126.7 144.9, 126.2 145.5 Q 125.7 146.1, 124.8 146.1 Q 123.8 146.1, 123.3 145.5 Q 122.8 144.9, 122.8 143.9 M 124.8 145.6 Q 125.4 145.6, 125.7 145.2 Q 126.1 144.7, 126.1 143.9 Q 126.1 143.1, 125.7 142.6 Q 125.4 142.2, 124.8 142.2 Q 124.1 142.2, 123.7 142.6 Q 123.4 143.1, 123.4 143.9 Q 123.4 144.8, 123.7 145.2 Q 124.1 145.6, 124.8 145.6 " fill="#FF0000"/>
<path class="atom-56" d="M 127.4 141.8 L 127.9 141.8 L 127.9 143.6 L 130.1 143.6 L 130.1 141.8 L 130.7 141.8 L 130.7 146.0 L 130.1 146.0 L 130.1 144.1 L 127.9 144.1 L 127.9 146.0 L 127.4 146.0 L 127.4 141.8 " fill="#FF0000"/>
<path class="atom-58" d="M 122.7 112.0 Q 122.7 110.9, 123.2 110.4 Q 123.7 109.8, 124.6 109.8 Q 125.6 109.8, 126.1 110.4 Q 126.6 110.9, 126.6 112.0 Q 126.6 113.0, 126.1 113.6 Q 125.6 114.2, 124.6 114.2 Q 123.7 114.2, 123.2 113.6 Q 122.7 113.0, 122.7 112.0 M 124.6 113.7 Q 125.3 113.7, 125.6 113.3 Q 126.0 112.8, 126.0 112.0 Q 126.0 111.1, 125.6 110.7 Q 125.3 110.3, 124.6 110.3 Q 124.0 110.3, 123.6 110.7 Q 123.3 111.1, 123.3 112.0 Q 123.3 112.8, 123.6 113.3 Q 124.0 113.7, 124.6 113.7 " fill="#FF0000"/>
<path class="atom-59" d="M 107.9 123.6 L 109.3 125.8 Q 109.5 126.0, 109.7 126.4 Q 109.9 126.8, 109.9 126.9 L 109.9 123.6 L 110.5 123.6 L 110.5 127.8 L 109.9 127.8 L 108.4 125.4 Q 108.2 125.1, 108.1 124.7 Q 107.9 124.4, 107.8 124.3 L 107.8 127.8 L 107.3 127.8 L 107.3 123.6 L 107.9 123.6 " fill="#0000FF"/>
<path class="atom-59" d="M 107.2 128.2 L 107.8 128.2 L 107.8 130.1 L 110.0 130.1 L 110.0 128.2 L 110.5 128.2 L 110.5 132.5 L 110.0 132.5 L 110.0 130.5 L 107.8 130.5 L 107.8 132.5 L 107.2 132.5 L 107.2 128.2 " fill="#0000FF"/>
<path class="atom-63" d="M 83.1 98.4 Q 83.1 97.4, 83.6 96.8 Q 84.1 96.3, 85.1 96.3 Q 86.0 96.3, 86.5 96.8 Q 87.0 97.4, 87.0 98.4 Q 87.0 99.5, 86.5 100.0 Q 86.0 100.6, 85.1 100.6 Q 84.1 100.6, 83.6 100.0 Q 83.1 99.5, 83.1 98.4 M 85.1 100.2 Q 85.7 100.2, 86.1 99.7 Q 86.4 99.3, 86.4 98.4 Q 86.4 97.6, 86.1 97.2 Q 85.7 96.7, 85.1 96.7 Q 84.4 96.7, 84.1 97.2 Q 83.7 97.6, 83.7 98.4 Q 83.7 99.3, 84.1 99.7 Q 84.4 100.2, 85.1 100.2 " fill="#FF0000"/>
<path class="atom-64" d="M 68.4 110.0 L 69.8 112.3 Q 69.9 112.5, 70.1 112.9 Q 70.4 113.3, 70.4 113.3 L 70.4 110.0 L 70.9 110.0 L 70.9 114.3 L 70.4 114.3 L 68.9 111.8 Q 68.7 111.5, 68.5 111.2 Q 68.3 110.9, 68.3 110.8 L 68.3 114.3 L 67.7 114.3 L 67.7 110.0 L 68.4 110.0 " fill="#0000FF"/>
<path class="atom-64" d="M 67.7 114.7 L 68.2 114.7 L 68.2 116.5 L 70.4 116.5 L 70.4 114.7 L 71.0 114.7 L 71.0 119.0 L 70.4 119.0 L 70.4 117.0 L 68.2 117.0 L 68.2 119.0 L 67.7 119.0 L 67.7 114.7 " fill="#0000FF"/>
<path class="atom-67" d="M 40.4 97.8 Q 40.5 97.8, 40.7 97.9 Q 40.9 97.9, 41.1 98.0 Q 41.3 98.0, 41.5 98.0 Q 41.9 98.0, 42.2 97.8 Q 42.4 97.7, 42.4 97.3 Q 42.4 97.1, 42.3 96.9 Q 42.2 96.8, 42.0 96.7 Q 41.8 96.6, 41.5 96.5 Q 41.1 96.4, 40.9 96.3 Q 40.7 96.2, 40.5 96.0 Q 40.4 95.8, 40.4 95.4 Q 40.4 94.8, 40.7 94.5 Q 41.1 94.2, 41.8 94.2 Q 42.3 94.2, 42.8 94.4 L 42.7 94.9 Q 42.2 94.7, 41.8 94.7 Q 41.4 94.7, 41.2 94.8 Q 40.9 95.0, 41.0 95.3 Q 41.0 95.5, 41.1 95.7 Q 41.2 95.8, 41.4 95.9 Q 41.5 96.0, 41.8 96.0 Q 42.2 96.2, 42.4 96.3 Q 42.7 96.4, 42.8 96.7 Q 43.0 96.9, 43.0 97.3 Q 43.0 97.9, 42.6 98.2 Q 42.2 98.5, 41.5 98.5 Q 41.2 98.5, 40.9 98.4 Q 40.6 98.4, 40.3 98.2 L 40.4 97.8 " fill="#CCCC00"/>
<path class="atom-70" d="M 23.9 110.0 Q 23.9 109.0, 24.4 108.5 Q 24.9 107.9, 25.9 107.9 Q 26.8 107.9, 27.3 108.5 Q 27.8 109.0, 27.8 110.0 Q 27.8 111.1, 27.3 111.7 Q 26.8 112.3, 25.9 112.3 Q 24.9 112.3, 24.4 111.7 Q 23.9 111.1, 23.9 110.0 M 25.9 111.8 Q 26.5 111.8, 26.9 111.3 Q 27.2 110.9, 27.2 110.0 Q 27.2 109.2, 26.9 108.8 Q 26.5 108.4, 25.9 108.4 Q 25.2 108.4, 24.9 108.8 Q 24.5 109.2, 24.5 110.0 Q 24.5 110.9, 24.9 111.3 Q 25.2 111.8, 25.9 111.8 " fill="#FF0000"/>
<path class="atom-72" d="M 225.6 135.6 Q 225.6 134.6, 226.2 134.1 Q 226.7 133.5, 227.6 133.5 Q 228.5 133.5, 229.0 134.1 Q 229.5 134.6, 229.5 135.6 Q 229.5 136.7, 229.0 137.3 Q 228.5 137.8, 227.6 137.8 Q 226.7 137.8, 226.2 137.3 Q 225.6 136.7, 225.6 135.6 M 227.6 137.4 Q 228.2 137.4, 228.6 136.9 Q 228.9 136.5, 228.9 135.6 Q 228.9 134.8, 228.6 134.4 Q 228.2 134.0, 227.6 134.0 Q 226.9 134.0, 226.6 134.4 Q 226.2 134.8, 226.2 135.6 Q 226.2 136.5, 226.6 136.9 Q 226.9 137.4, 227.6 137.4 " fill="#FF0000"/>
<path class="atom-74" d="M 243.2 147.3 L 244.5 149.6 Q 244.7 149.8, 244.9 150.2 Q 245.1 150.6, 245.1 150.6 L 245.1 147.3 L 245.7 147.3 L 245.7 151.6 L 245.1 151.6 L 243.6 149.1 Q 243.5 148.8, 243.3 148.5 Q 243.1 148.1, 243.0 148.0 L 243.0 151.6 L 242.5 151.6 L 242.5 147.3 L 243.2 147.3 " fill="#0000FF"/>
<path class="atom-76" d="M 259.9 157.3 L 261.3 159.6 Q 261.4 159.8, 261.7 160.2 Q 261.9 160.6, 261.9 160.6 L 261.9 157.3 L 262.5 157.3 L 262.5 161.6 L 261.9 161.6 L 260.4 159.1 Q 260.2 158.8, 260.0 158.5 Q 259.8 158.2, 259.8 158.1 L 259.8 161.6 L 259.2 161.6 L 259.2 157.3 L 259.9 157.3 " fill="#0000FF"/>
<path class="atom-79" d="M 283.5 145.9 L 284.9 148.1 Q 285.0 148.4, 285.3 148.8 Q 285.5 149.2, 285.5 149.2 L 285.5 145.9 L 286.1 145.9 L 286.1 150.1 L 285.5 150.1 L 284.0 147.7 Q 283.8 147.4, 283.6 147.1 Q 283.4 146.7, 283.4 146.6 L 283.4 150.1 L 282.8 150.1 L 282.8 145.9 L 283.5 145.9 " fill="#0000FF"/>
<path class="atom-79" d="M 286.9 145.9 L 287.4 145.9 L 287.4 147.7 L 289.6 147.7 L 289.6 145.9 L 290.2 145.9 L 290.2 150.1 L 289.6 150.1 L 289.6 148.2 L 287.4 148.2 L 287.4 150.1 L 286.9 150.1 L 286.9 145.9 " fill="#0000FF"/>
<path class="atom-79" d="M 291.0 150.0 Q 291.1 149.7, 291.4 149.6 Q 291.6 149.4, 292.0 149.4 Q 292.4 149.4, 292.6 149.7 Q 292.9 149.9, 292.9 150.3 Q 292.9 150.7, 292.5 151.1 Q 292.2 151.5, 291.6 152.0 L 292.9 152.0 L 292.9 152.3 L 291.0 152.3 L 291.0 152.0 Q 291.5 151.6, 291.8 151.4 Q 292.2 151.1, 292.3 150.8 Q 292.5 150.6, 292.5 150.3 Q 292.5 150.0, 292.3 149.9 Q 292.2 149.7, 292.0 149.7 Q 291.7 149.7, 291.6 149.8 Q 291.4 149.9, 291.3 150.1 L 291.0 150.0 " fill="#0000FF"/>
<path class="atom-80" d="M 273.3 127.6 L 274.7 129.9 Q 274.9 130.1, 275.1 130.5 Q 275.3 130.9, 275.3 130.9 L 275.3 127.6 L 275.9 127.6 L 275.9 131.9 L 275.3 131.9 L 273.8 129.4 Q 273.6 129.1, 273.5 128.8 Q 273.3 128.5, 273.2 128.4 L 273.2 131.9 L 272.7 131.9 L 272.7 127.6 L 273.3 127.6 " fill="#0000FF"/>
<path class="atom-82" d="M 252.4 127.3 L 253.8 129.6 Q 254.0 129.8, 254.2 130.2 Q 254.4 130.6, 254.4 130.6 L 254.4 127.3 L 255.0 127.3 L 255.0 131.6 L 254.4 131.6 L 252.9 129.1 Q 252.7 128.8, 252.6 128.5 Q 252.4 128.1, 252.3 128.0 L 252.3 131.6 L 251.8 131.6 L 251.8 127.3 L 252.4 127.3 " fill="#0000FF"/>
<path class="atom-85" d="M 222.4 166.7 Q 222.4 165.7, 222.9 165.1 Q 223.4 164.5, 224.3 164.5 Q 225.3 164.5, 225.8 165.1 Q 226.3 165.7, 226.3 166.7 Q 226.3 167.7, 225.8 168.3 Q 225.2 168.9, 224.3 168.9 Q 223.4 168.9, 222.9 168.3 Q 222.4 167.7, 222.4 166.7 M 224.3 168.4 Q 225.0 168.4, 225.3 168.0 Q 225.7 167.6, 225.7 166.7 Q 225.7 165.9, 225.3 165.4 Q 225.0 165.0, 224.3 165.0 Q 223.7 165.0, 223.3 165.4 Q 223.0 165.9, 223.0 166.7 Q 223.0 167.6, 223.3 168.0 Q 223.7 168.4, 224.3 168.4 " fill="#FF0000"/>
<path class="atom-85" d="M 226.9 164.6 L 227.5 164.6 L 227.5 166.4 L 229.7 166.4 L 229.7 164.6 L 230.2 164.6 L 230.2 168.8 L 229.7 168.8 L 229.7 166.9 L 227.5 166.9 L 227.5 168.8 L 226.9 168.8 L 226.9 164.6 " fill="#FF0000"/>
<path class="atom-87" d="M 199.8 153.2 Q 199.8 152.2, 200.3 151.6 Q 200.8 151.1, 201.8 151.1 Q 202.7 151.1, 203.2 151.6 Q 203.7 152.2, 203.7 153.2 Q 203.7 154.3, 203.2 154.8 Q 202.7 155.4, 201.8 155.4 Q 200.8 155.4, 200.3 154.8 Q 199.8 154.3, 199.8 153.2 M 201.8 154.9 Q 202.4 154.9, 202.8 154.5 Q 203.1 154.1, 203.1 153.2 Q 203.1 152.4, 202.8 152.0 Q 202.4 151.5, 201.8 151.5 Q 201.1 151.5, 200.8 152.0 Q 200.4 152.4, 200.4 153.2 Q 200.4 154.1, 200.8 154.5 Q 201.1 154.9, 201.8 154.9 " fill="#FF0000"/>
<path class="atom-88" d="M 192.0 143.8 Q 192.8 143.8, 193.1 144.2 Q 193.5 144.5, 193.5 145.1 Q 193.5 145.7, 193.1 146.0 Q 192.7 146.3, 192.0 146.3 L 191.4 146.3 L 191.4 148.1 L 190.8 148.1 L 190.8 143.8 L 192.0 143.8 M 192.0 145.9 Q 192.4 145.9, 192.7 145.7 Q 192.9 145.5, 192.9 145.1 Q 192.9 144.7, 192.7 144.5 Q 192.5 144.3, 192.0 144.3 L 191.4 144.3 L 191.4 145.9 L 192.0 145.9 " fill="#FF7F00"/>
<path class="atom-89" d="M 182.9 155.6 Q 182.9 154.6, 183.4 154.0 Q 183.9 153.5, 184.9 153.5 Q 185.8 153.5, 186.3 154.0 Q 186.8 154.6, 186.8 155.6 Q 186.8 156.7, 186.3 157.2 Q 185.8 157.8, 184.9 157.8 Q 184.0 157.8, 183.4 157.2 Q 182.9 156.7, 182.9 155.6 M 184.9 157.3 Q 185.5 157.3, 185.9 156.9 Q 186.2 156.5, 186.2 155.6 Q 186.2 154.8, 185.9 154.4 Q 185.5 153.9, 184.9 153.9 Q 184.2 153.9, 183.9 154.4 Q 183.5 154.8, 183.5 155.6 Q 183.5 156.5, 183.9 156.9 Q 184.2 157.3, 184.9 157.3 " fill="#FF0000"/>
<path class="atom-90" d="M 194.9 134.9 Q 194.9 133.8, 195.4 133.3 Q 195.9 132.7, 196.8 132.7 Q 197.8 132.7, 198.3 133.3 Q 198.8 133.8, 198.8 134.9 Q 198.8 135.9, 198.3 136.5 Q 197.8 137.1, 196.8 137.1 Q 195.9 137.1, 195.4 136.5 Q 194.9 135.9, 194.9 134.9 M 196.8 136.6 Q 197.5 136.6, 197.8 136.1 Q 198.2 135.7, 198.2 134.9 Q 198.2 134.0, 197.8 133.6 Q 197.5 133.2, 196.8 133.2 Q 196.2 133.2, 195.8 133.6 Q 195.5 134.0, 195.5 134.9 Q 195.5 135.7, 195.8 136.1 Q 196.2 136.6, 196.8 136.6 " fill="#FF0000"/>
<path class="atom-90" d="M 199.4 132.7 L 200.0 132.7 L 200.0 134.6 L 202.2 134.6 L 202.2 132.7 L 202.8 132.7 L 202.8 137.0 L 202.2 137.0 L 202.2 135.0 L 200.0 135.0 L 200.0 137.0 L 199.4 137.0 L 199.4 132.7 " fill="#FF0000"/>
<path class="atom-91" d="M 176.3 136.6 L 176.9 136.6 L 176.9 138.4 L 179.1 138.4 L 179.1 136.6 L 179.7 136.6 L 179.7 140.9 L 179.1 140.9 L 179.1 138.9 L 176.9 138.9 L 176.9 140.9 L 176.3 140.9 L 176.3 136.6 " fill="#FF0000"/>
<path class="atom-91" d="M 180.5 138.7 Q 180.5 137.7, 181.0 137.1 Q 181.5 136.6, 182.5 136.6 Q 183.4 136.6, 183.9 137.1 Q 184.4 137.7, 184.4 138.7 Q 184.4 139.8, 183.9 140.3 Q 183.4 140.9, 182.5 140.9 Q 181.5 140.9, 181.0 140.3 Q 180.5 139.8, 180.5 138.7 M 182.5 140.5 Q 183.1 140.5, 183.5 140.0 Q 183.8 139.6, 183.8 138.7 Q 183.8 137.9, 183.5 137.5 Q 183.1 137.0, 182.5 137.0 Q 181.8 137.0, 181.5 137.5 Q 181.1 137.9, 181.1 138.7 Q 181.1 139.6, 181.5 140.0 Q 181.8 140.5, 182.5 140.5 " fill="#FF0000"/>
<path class="atom-92" d="M 219.7 94.4 Q 219.7 93.4, 220.2 92.8 Q 220.7 92.3, 221.7 92.3 Q 222.6 92.3, 223.1 92.8 Q 223.6 93.4, 223.6 94.4 Q 223.6 95.5, 223.1 96.1 Q 222.6 96.6, 221.7 96.6 Q 220.7 96.6, 220.2 96.1 Q 219.7 95.5, 219.7 94.4 M 221.7 96.2 Q 222.3 96.2, 222.7 95.7 Q 223.0 95.3, 223.0 94.4 Q 223.0 93.6, 222.7 93.2 Q 222.3 92.8, 221.7 92.8 Q 221.0 92.8, 220.7 93.2 Q 220.3 93.6, 220.3 94.4 Q 220.3 95.3, 220.7 95.7 Q 221.0 96.2, 221.7 96.2 " fill="#FF0000"/>
<path class="atom-94" d="M 215.5 71.4 L 216.9 73.7 Q 217.0 73.9, 217.2 74.3 Q 217.5 74.7, 217.5 74.7 L 217.5 71.4 L 218.0 71.4 L 218.0 75.7 L 217.4 75.7 L 216.0 73.2 Q 215.8 72.9, 215.6 72.6 Q 215.4 72.3, 215.4 72.2 L 215.4 75.7 L 214.8 75.7 L 214.8 71.4 L 215.5 71.4 " fill="#0000FF"/>
<path class="atom-96" d="M 225.5 54.7 L 226.9 56.9 Q 227.0 57.2, 227.3 57.6 Q 227.5 58.0, 227.5 58.0 L 227.5 54.7 L 228.1 54.7 L 228.1 58.9 L 227.5 58.9 L 226.0 56.5 Q 225.8 56.2, 225.6 55.9 Q 225.4 55.5, 225.4 55.4 L 225.4 58.9 L 224.8 58.9 L 224.8 54.7 L 225.5 54.7 " fill="#0000FF"/>
<path class="atom-99" d="M 214.1 31.1 L 215.5 33.3 Q 215.6 33.6, 215.8 34.0 Q 216.0 34.4, 216.1 34.4 L 216.1 31.1 L 216.6 31.1 L 216.6 35.3 L 216.0 35.3 L 214.5 32.9 Q 214.4 32.6, 214.2 32.3 Q 214.0 31.9, 213.9 31.8 L 213.9 35.3 L 213.4 35.3 L 213.4 31.1 L 214.1 31.1 " fill="#0000FF"/>
<path class="atom-99" d="M 217.4 31.1 L 218.0 31.1 L 218.0 32.9 L 220.2 32.9 L 220.2 31.1 L 220.8 31.1 L 220.8 35.3 L 220.2 35.3 L 220.2 33.4 L 218.0 33.4 L 218.0 35.3 L 217.4 35.3 L 217.4 31.1 " fill="#0000FF"/>
<path class="atom-99" d="M 221.6 35.2 Q 221.7 34.9, 221.9 34.8 Q 222.2 34.6, 222.5 34.6 Q 222.9 34.6, 223.2 34.9 Q 223.4 35.1, 223.4 35.5 Q 223.4 35.9, 223.1 36.3 Q 222.8 36.7, 222.2 37.2 L 223.5 37.2 L 223.5 37.5 L 221.6 37.5 L 221.6 37.2 Q 222.1 36.8, 222.4 36.6 Q 222.7 36.3, 222.9 36.0 Q 223.0 35.8, 223.0 35.5 Q 223.0 35.3, 222.9 35.1 Q 222.8 35.0, 222.5 35.0 Q 222.3 35.0, 222.1 35.0 Q 222.0 35.1, 221.9 35.3 L 221.6 35.2 " fill="#0000FF"/>
<path class="atom-100" d="M 195.8 41.3 L 197.2 43.5 Q 197.3 43.7, 197.6 44.1 Q 197.8 44.5, 197.8 44.6 L 197.8 41.3 L 198.4 41.3 L 198.4 45.5 L 197.8 45.5 L 196.3 43.1 Q 196.1 42.8, 195.9 42.4 Q 195.7 42.1, 195.7 42.0 L 195.7 45.5 L 195.1 45.5 L 195.1 41.3 L 195.8 41.3 " fill="#0000FF"/>
<path class="atom-102" d="M 195.5 62.2 L 196.9 64.4 Q 197.0 64.6, 197.2 65.0 Q 197.5 65.4, 197.5 65.5 L 197.5 62.2 L 198.0 62.2 L 198.0 66.4 L 197.4 66.4 L 196.0 64.0 Q 195.8 63.7, 195.6 63.3 Q 195.4 63.0, 195.4 62.9 L 195.4 66.4 L 194.8 66.4 L 194.8 62.2 L 195.5 62.2 " fill="#0000FF"/>
<path class="atom-105" d="M 186.1 81.8 L 186.7 81.8 L 186.7 83.6 L 188.9 83.6 L 188.9 81.8 L 189.4 81.8 L 189.4 86.0 L 188.9 86.0 L 188.9 84.1 L 186.7 84.1 L 186.7 86.0 L 186.1 86.0 L 186.1 81.8 " fill="#FF0000"/>
<path class="atom-105" d="M 190.3 83.9 Q 190.3 82.9, 190.8 82.3 Q 191.3 81.7, 192.3 81.7 Q 193.2 81.7, 193.7 82.3 Q 194.2 82.9, 194.2 83.9 Q 194.2 84.9, 193.7 85.5 Q 193.2 86.1, 192.3 86.1 Q 191.3 86.1, 190.8 85.5 Q 190.3 84.9, 190.3 83.9 M 192.3 85.6 Q 192.9 85.6, 193.3 85.2 Q 193.6 84.7, 193.6 83.9 Q 193.6 83.0, 193.3 82.6 Q 192.9 82.2, 192.3 82.2 Q 191.6 82.2, 191.3 82.6 Q 190.9 83.0, 190.9 83.9 Q 190.9 84.7, 191.3 85.2 Q 191.6 85.6, 192.3 85.6 " fill="#FF0000"/>
<path class="atom-107" d="M 192.7 110.0 Q 192.7 109.0, 193.2 108.4 Q 193.7 107.9, 194.6 107.9 Q 195.5 107.9, 196.0 108.4 Q 196.6 109.0, 196.6 110.0 Q 196.6 111.1, 196.0 111.7 Q 195.5 112.2, 194.6 112.2 Q 193.7 112.2, 193.2 111.7 Q 192.7 111.1, 192.7 110.0 M 194.6 111.8 Q 195.3 111.8, 195.6 111.3 Q 196.0 110.9, 196.0 110.0 Q 196.0 109.2, 195.6 108.8 Q 195.3 108.4, 194.6 108.4 Q 194.0 108.4, 193.6 108.8 Q 193.3 109.2, 193.3 110.0 Q 193.3 110.9, 193.6 111.3 Q 194.0 111.8, 194.6 111.8 " fill="#FF0000"/>
<path class="atom-108" d="M 183.1 104.0 Q 183.8 104.0, 184.2 104.3 Q 184.5 104.6, 184.5 105.2 Q 184.5 105.8, 184.2 106.2 Q 183.8 106.5, 183.1 106.5 L 182.4 106.5 L 182.4 108.2 L 181.8 108.2 L 181.8 104.0 L 183.1 104.0 M 183.1 106.0 Q 183.5 106.0, 183.7 105.8 Q 183.9 105.6, 183.9 105.2 Q 183.9 104.9, 183.7 104.7 Q 183.5 104.5, 183.1 104.5 L 182.4 104.5 L 182.4 106.0 L 183.1 106.0 " fill="#FF7F00"/>
<path class="atom-109" d="M 174.7 116.3 Q 174.7 115.2, 175.2 114.7 Q 175.7 114.1, 176.6 114.1 Q 177.6 114.1, 178.1 114.7 Q 178.6 115.2, 178.6 116.3 Q 178.6 117.3, 178.1 117.9 Q 177.6 118.5, 176.6 118.5 Q 175.7 118.5, 175.2 117.9 Q 174.7 117.3, 174.7 116.3 M 176.6 118.0 Q 177.3 118.0, 177.6 117.5 Q 178.0 117.1, 178.0 116.3 Q 178.0 115.4, 177.6 115.0 Q 177.3 114.6, 176.6 114.6 Q 176.0 114.6, 175.6 115.0 Q 175.3 115.4, 175.3 116.3 Q 175.3 117.1, 175.6 117.5 Q 176.0 118.0, 176.6 118.0 " fill="#FF0000"/>
<path class="atom-110" d="M 185.1 94.7 Q 185.1 93.7, 185.6 93.1 Q 186.2 92.5, 187.1 92.5 Q 188.0 92.5, 188.5 93.1 Q 189.0 93.7, 189.0 94.7 Q 189.0 95.7, 188.5 96.3 Q 188.0 96.9, 187.1 96.9 Q 186.2 96.9, 185.6 96.3 Q 185.1 95.7, 185.1 94.7 M 187.1 96.4 Q 187.7 96.4, 188.1 96.0 Q 188.4 95.6, 188.4 94.7 Q 188.4 93.9, 188.1 93.5 Q 187.7 93.0, 187.1 93.0 Q 186.4 93.0, 186.1 93.4 Q 185.7 93.9, 185.7 94.7 Q 185.7 95.6, 186.1 96.0 Q 186.4 96.4, 187.1 96.4 " fill="#FF0000"/>
<path class="atom-110" d="M 189.7 92.6 L 190.3 92.6 L 190.3 94.4 L 192.5 94.4 L 192.5 92.6 L 193.0 92.6 L 193.0 96.8 L 192.5 96.8 L 192.5 94.9 L 190.3 94.9 L 190.3 96.8 L 189.7 96.8 L 189.7 92.6 " fill="#FF0000"/>
<path class="atom-111" d="M 166.2 98.7 L 166.8 98.7 L 166.8 100.5 L 168.9 100.5 L 168.9 98.7 L 169.5 98.7 L 169.5 103.0 L 168.9 103.0 L 168.9 101.0 L 166.8 101.0 L 166.8 103.0 L 166.2 103.0 L 166.2 98.7 " fill="#FF0000"/>
<path class="atom-111" d="M 170.4 100.9 Q 170.4 99.8, 170.9 99.3 Q 171.4 98.7, 172.3 98.7 Q 173.3 98.7, 173.8 99.3 Q 174.3 99.8, 174.3 100.9 Q 174.3 101.9, 173.8 102.5 Q 173.3 103.1, 172.3 103.1 Q 171.4 103.1, 170.9 102.5 Q 170.4 101.9, 170.4 100.9 M 172.3 102.6 Q 173.0 102.6, 173.3 102.1 Q 173.7 101.7, 173.7 100.9 Q 173.7 100.0, 173.3 99.6 Q 173.0 99.2, 172.3 99.2 Q 171.7 99.2, 171.3 99.6 Q 171.0 100.0, 171.0 100.9 Q 171.0 101.7, 171.3 102.1 Q 171.7 102.6, 172.3 102.6 " fill="#FF0000"/>
<path class="atom-113" d="M 265.0 94.1 Q 265.0 93.1, 265.5 92.5 Q 266.0 92.0, 267.0 92.0 Q 267.9 92.0, 268.4 92.5 Q 268.9 93.1, 268.9 94.1 Q 268.9 95.2, 268.4 95.8 Q 267.9 96.3, 267.0 96.3 Q 266.0 96.3, 265.5 95.8 Q 265.0 95.2, 265.0 94.1 M 267.0 95.9 Q 267.6 95.9, 268.0 95.4 Q 268.3 95.0, 268.3 94.1 Q 268.3 93.3, 268.0 92.9 Q 267.6 92.5, 267.0 92.5 Q 266.3 92.5, 266.0 92.9 Q 265.6 93.3, 265.6 94.1 Q 265.6 95.0, 266.0 95.4 Q 266.3 95.9, 267.0 95.9 " fill="#FF0000"/>
<path class="atom-114" d="M 273.8 75.2 Q 273.8 74.2, 274.3 73.6 Q 274.8 73.0, 275.8 73.0 Q 276.7 73.0, 277.2 73.6 Q 277.7 74.2, 277.7 75.2 Q 277.7 76.2, 277.2 76.8 Q 276.7 77.4, 275.8 77.4 Q 274.8 77.4, 274.3 76.8 Q 273.8 76.2, 273.8 75.2 M 275.8 76.9 Q 276.4 76.9, 276.8 76.5 Q 277.1 76.0, 277.1 75.2 Q 277.1 74.3, 276.8 73.9 Q 276.4 73.5, 275.8 73.5 Q 275.1 73.5, 274.8 73.9 Q 274.4 74.3, 274.4 75.2 Q 274.4 76.0, 274.8 76.5 Q 275.1 76.9, 275.8 76.9 " fill="#FF0000"/>
<path class="atom-114" d="M 278.4 73.1 L 279.0 73.1 L 279.0 74.9 L 281.1 74.9 L 281.1 73.1 L 281.7 73.1 L 281.7 77.3 L 281.1 77.3 L 281.1 75.3 L 279.0 75.3 L 279.0 77.3 L 278.4 77.3 L 278.4 73.1 " fill="#FF0000"/>
<path class="atom-44" d="M 181.8,123.6 L 181.8,125.2 L 183.4,125.2 L 183.4,123.6 L 181.8,123.6" style="fill:none;stroke:#FF0000;stroke-width:2.0px;stroke-linecap:butt;stroke-linejoin:miter;stroke-opacity:1;"/>
</svg>
