<?xml version='1.0' encoding='ASCII' standalone='yes'?>
<svg xmlns="http://www.w3.org/2000/svg" xmlns:rdkit="http://www.rdkit.org/xml" xmlns:xlink="http://www.w3.org/1999/xlink" version="1.1" baseProfile="full" xml:space="preserve" width="349px" height="200px" viewBox="0 0 349 200">
<!-- END OF HEADER -->
<rect style="opacity:1.0;fill:#FFFFFF;stroke:none" width="349.0" height="200.0" x="0.0" y="0.0"> </rect>
<path class="bond-0 atom-0 atom-1" d="M 301.8,56.4 L 290.1,75.3" style="fill:none;fill-rule:evenodd;stroke:#000000;stroke-width:2.0px;stroke-linecap:butt;stroke-linejoin:miter;stroke-opacity:1"/>
<path class="bond-1 atom-1 atom-2" d="M 290.1,75.3 L 278.3,94.2" style="fill:none;fill-rule:evenodd;stroke:#000000;stroke-width:2.0px;stroke-linecap:butt;stroke-linejoin:miter;stroke-opacity:1"/>
<path class="bond-2 atom-1 atom-3" d="M 290.1,75.3 L 271.2,63.5" style="fill:none;fill-rule:evenodd;stroke:#000000;stroke-width:2.0px;stroke-linecap:butt;stroke-linejoin:miter;stroke-opacity:1"/>
<path class="bond-3 atom-3 atom-4" d="M 271.2,63.5 L 251.6,74.0" style="fill:none;fill-rule:evenodd;stroke:#000000;stroke-width:2.0px;stroke-linecap:butt;stroke-linejoin:miter;stroke-opacity:1"/>
<path class="bond-4 atom-4 atom-5" d="M 251.6,74.0 L 232.7,62.3" style="fill:none;fill-rule:evenodd;stroke:#000000;stroke-width:2.0px;stroke-linecap:butt;stroke-linejoin:miter;stroke-opacity:1"/>
<path class="bond-5 atom-5 atom-6" d="M 232.7,62.3 L 213.1,72.7" style="fill:none;fill-rule:evenodd;stroke:#000000;stroke-width:2.0px;stroke-linecap:butt;stroke-linejoin:miter;stroke-opacity:1"/>
<path class="bond-6 atom-6 atom-7" d="M 213.1,72.7 L 202.7,53.1" style="fill:none;fill-rule:evenodd;stroke:#000000;stroke-width:2.0px;stroke-linecap:butt;stroke-linejoin:miter;stroke-opacity:1"/>
<path class="bond-7 atom-7 atom-8" d="M 202.7,53.1 L 207.3,45.7" style="fill:none;fill-rule:evenodd;stroke:#000000;stroke-width:2.0px;stroke-linecap:butt;stroke-linejoin:miter;stroke-opacity:1"/>
<path class="bond-7 atom-7 atom-8" d="M 207.3,45.7 L 211.9,38.3" style="fill:none;fill-rule:evenodd;stroke:#FF0000;stroke-width:2.0px;stroke-linecap:butt;stroke-linejoin:miter;stroke-opacity:1"/>
<path class="bond-8 atom-6 atom-9" d="M 213.1,72.7 L 193.5,83.2" style="fill:none;fill-rule:evenodd;stroke:#000000;stroke-width:2.0px;stroke-linecap:butt;stroke-linejoin:miter;stroke-opacity:1"/>
<path class="bond-9 atom-9 atom-10" d="M 193.5,83.2 L 174.7,71.4" style="fill:none;fill-rule:evenodd;stroke:#000000;stroke-width:2.0px;stroke-linecap:butt;stroke-linejoin:miter;stroke-opacity:1"/>
<path class="bond-10 atom-10 atom-11" d="M 174.7,71.4 L 155.1,81.9" style="fill:none;fill-rule:evenodd;stroke:#000000;stroke-width:2.0px;stroke-linecap:butt;stroke-linejoin:miter;stroke-opacity:1"/>
<path class="bond-11 atom-11 atom-12" d="M 155.1,81.9 L 154.3,104.1" style="fill:none;fill-rule:evenodd;stroke:#000000;stroke-width:2.0px;stroke-linecap:butt;stroke-linejoin:miter;stroke-opacity:1"/>
<path class="bond-12 atom-12 atom-13" d="M 154.3,104.1 L 134.7,114.6" style="fill:none;fill-rule:evenodd;stroke:#000000;stroke-width:2.0px;stroke-linecap:butt;stroke-linejoin:miter;stroke-opacity:1"/>
<path class="bond-13 atom-13 atom-14" d="M 134.7,114.6 L 134.0,136.8" style="fill:none;fill-rule:evenodd;stroke:#000000;stroke-width:2.0px;stroke-linecap:butt;stroke-linejoin:miter;stroke-opacity:1"/>
<path class="bond-14 atom-14 atom-15" d="M 134.0,136.8 L 156.2,137.5" style="fill:none;fill-rule:evenodd;stroke:#000000;stroke-width:2.0px;stroke-linecap:butt;stroke-linejoin:miter;stroke-opacity:1"/>
<path class="bond-15 atom-14 atom-16" d="M 134.0,136.8 L 111.8,136.1" style="fill:none;fill-rule:evenodd;stroke:#000000;stroke-width:2.0px;stroke-linecap:butt;stroke-linejoin:miter;stroke-opacity:1"/>
<path class="bond-16 atom-14 atom-17" d="M 134.0,136.8 L 133.2,159.0" style="fill:none;fill-rule:evenodd;stroke:#000000;stroke-width:2.0px;stroke-linecap:butt;stroke-linejoin:miter;stroke-opacity:1"/>
<path class="bond-17 atom-17 atom-18" d="M 133.3,157.1 L 124.9,161.6" style="fill:none;fill-rule:evenodd;stroke:#000000;stroke-width:2.0px;stroke-linecap:butt;stroke-linejoin:miter;stroke-opacity:1"/>
<path class="bond-17 atom-17 atom-18" d="M 124.9,161.6 L 116.5,166.1" style="fill:none;fill-rule:evenodd;stroke:#FF0000;stroke-width:2.0px;stroke-linecap:butt;stroke-linejoin:miter;stroke-opacity:1"/>
<path class="bond-17 atom-17 atom-18" d="M 134.9,160.0 L 126.4,164.5" style="fill:none;fill-rule:evenodd;stroke:#000000;stroke-width:2.0px;stroke-linecap:butt;stroke-linejoin:miter;stroke-opacity:1"/>
<path class="bond-17 atom-17 atom-18" d="M 126.4,164.5 L 118.0,169.0" style="fill:none;fill-rule:evenodd;stroke:#FF0000;stroke-width:2.0px;stroke-linecap:butt;stroke-linejoin:miter;stroke-opacity:1"/>
<path class="bond-18 atom-17 atom-19" d="M 133.2,159.0 L 140.9,163.8" style="fill:none;fill-rule:evenodd;stroke:#000000;stroke-width:2.0px;stroke-linecap:butt;stroke-linejoin:miter;stroke-opacity:1"/>
<path class="bond-18 atom-17 atom-19" d="M 140.9,163.8 L 148.5,168.5" style="fill:none;fill-rule:evenodd;stroke:#FF0000;stroke-width:2.0px;stroke-linecap:butt;stroke-linejoin:miter;stroke-opacity:1"/>
<path class="bond-19 atom-11 atom-20" d="M 155.1,81.9 L 136.2,70.2" style="fill:none;fill-rule:evenodd;stroke:#000000;stroke-width:2.0px;stroke-linecap:butt;stroke-linejoin:miter;stroke-opacity:1"/>
<path class="bond-20 atom-20 atom-21" d="M 136.2,70.2 L 124.4,89.0" style="fill:none;fill-rule:evenodd;stroke:#000000;stroke-width:2.0px;stroke-linecap:butt;stroke-linejoin:miter;stroke-opacity:1"/>
<path class="bond-21 atom-21 atom-22" d="M 124.4,89.0 L 115.1,88.7" style="fill:none;fill-rule:evenodd;stroke:#000000;stroke-width:2.0px;stroke-linecap:butt;stroke-linejoin:miter;stroke-opacity:1"/>
<path class="bond-21 atom-21 atom-22" d="M 115.1,88.7 L 105.8,88.4" style="fill:none;fill-rule:evenodd;stroke:#FF0000;stroke-width:2.0px;stroke-linecap:butt;stroke-linejoin:miter;stroke-opacity:1"/>
<path class="bond-22 atom-20 atom-23" d="M 136.2,70.2 L 117.3,58.4" style="fill:none;fill-rule:evenodd;stroke:#000000;stroke-width:2.0px;stroke-linecap:butt;stroke-linejoin:miter;stroke-opacity:1"/>
<path class="bond-23 atom-23 atom-24" d="M 117.3,58.4 L 97.7,68.9" style="fill:none;fill-rule:evenodd;stroke:#000000;stroke-width:2.0px;stroke-linecap:butt;stroke-linejoin:miter;stroke-opacity:1"/>
<path class="bond-24 atom-24 atom-25" d="M 97.7,68.9 L 78.8,57.1" style="fill:none;fill-rule:evenodd;stroke:#000000;stroke-width:2.0px;stroke-linecap:butt;stroke-linejoin:miter;stroke-opacity:1"/>
<path class="bond-25 atom-25 atom-26" d="M 78.8,57.1 L 59.2,67.6" style="fill:none;fill-rule:evenodd;stroke:#000000;stroke-width:2.0px;stroke-linecap:butt;stroke-linejoin:miter;stroke-opacity:1"/>
<path class="bond-26 atom-26 atom-27" d="M 59.2,67.6 L 39.6,78.1" style="fill:none;fill-rule:evenodd;stroke:#000000;stroke-width:2.0px;stroke-linecap:butt;stroke-linejoin:miter;stroke-opacity:1"/>
<path class="bond-27 atom-26 atom-28" d="M 59.2,67.6 L 69.7,87.2" style="fill:none;fill-rule:evenodd;stroke:#000000;stroke-width:2.0px;stroke-linecap:butt;stroke-linejoin:miter;stroke-opacity:1"/>
<path class="bond-28 atom-28 atom-29" d="M 69.7,87.2 L 65.0,94.7" style="fill:none;fill-rule:evenodd;stroke:#000000;stroke-width:2.0px;stroke-linecap:butt;stroke-linejoin:miter;stroke-opacity:1"/>
<path class="bond-28 atom-28 atom-29" d="M 65.0,94.7 L 60.4,102.2" style="fill:none;fill-rule:evenodd;stroke:#FF0000;stroke-width:2.0px;stroke-linecap:butt;stroke-linejoin:miter;stroke-opacity:1"/>
<path class="bond-29 atom-26 atom-30" d="M 59.2,67.6 L 48.8,48.0" style="fill:none;fill-rule:evenodd;stroke:#000000;stroke-width:2.0px;stroke-linecap:butt;stroke-linejoin:miter;stroke-opacity:1"/>
<path class="bond-30 atom-30 atom-31" d="M 49.7,49.7 L 54.6,41.9" style="fill:none;fill-rule:evenodd;stroke:#000000;stroke-width:2.0px;stroke-linecap:butt;stroke-linejoin:miter;stroke-opacity:1"/>
<path class="bond-30 atom-30 atom-31" d="M 54.6,41.9 L 59.4,34.0" style="fill:none;fill-rule:evenodd;stroke:#FF0000;stroke-width:2.0px;stroke-linecap:butt;stroke-linejoin:miter;stroke-opacity:1"/>
<path class="bond-30 atom-30 atom-31" d="M 46.8,47.9 L 51.7,40.1" style="fill:none;fill-rule:evenodd;stroke:#000000;stroke-width:2.0px;stroke-linecap:butt;stroke-linejoin:miter;stroke-opacity:1"/>
<path class="bond-30 atom-30 atom-31" d="M 51.7,40.1 L 56.6,32.3" style="fill:none;fill-rule:evenodd;stroke:#FF0000;stroke-width:2.0px;stroke-linecap:butt;stroke-linejoin:miter;stroke-opacity:1"/>
<path class="bond-31 atom-30 atom-32" d="M 48.8,48.0 L 39.5,47.7" style="fill:none;fill-rule:evenodd;stroke:#000000;stroke-width:2.0px;stroke-linecap:butt;stroke-linejoin:miter;stroke-opacity:1"/>
<path class="bond-31 atom-30 atom-32" d="M 39.5,47.7 L 30.2,47.4" style="fill:none;fill-rule:evenodd;stroke:#FF0000;stroke-width:2.0px;stroke-linecap:butt;stroke-linejoin:miter;stroke-opacity:1"/>
<path class="bond-32 atom-20 atom-33" d="M 136.2,70.2 L 147.9,51.3" style="fill:none;fill-rule:evenodd;stroke:#000000;stroke-width:2.0px;stroke-linecap:butt;stroke-linejoin:miter;stroke-opacity:1"/>
<path class="bond-33 atom-33 atom-34" d="M 149.9,51.4 L 145.5,43.1" style="fill:none;fill-rule:evenodd;stroke:#000000;stroke-width:2.0px;stroke-linecap:butt;stroke-linejoin:miter;stroke-opacity:1"/>
<path class="bond-33 atom-33 atom-34" d="M 145.5,43.1 L 141.1,34.9" style="fill:none;fill-rule:evenodd;stroke:#FF0000;stroke-width:2.0px;stroke-linecap:butt;stroke-linejoin:miter;stroke-opacity:1"/>
<path class="bond-33 atom-33 atom-34" d="M 146.9,52.9 L 142.5,44.7" style="fill:none;fill-rule:evenodd;stroke:#000000;stroke-width:2.0px;stroke-linecap:butt;stroke-linejoin:miter;stroke-opacity:1"/>
<path class="bond-33 atom-33 atom-34" d="M 142.5,44.7 L 138.1,36.5" style="fill:none;fill-rule:evenodd;stroke:#FF0000;stroke-width:2.0px;stroke-linecap:butt;stroke-linejoin:miter;stroke-opacity:1"/>
<path class="bond-34 atom-33 atom-35" d="M 147.9,51.3 L 157.2,51.6" style="fill:none;fill-rule:evenodd;stroke:#000000;stroke-width:2.0px;stroke-linecap:butt;stroke-linejoin:miter;stroke-opacity:1"/>
<path class="bond-34 atom-33 atom-35" d="M 157.2,51.6 L 166.5,51.9" style="fill:none;fill-rule:evenodd;stroke:#FF0000;stroke-width:2.0px;stroke-linecap:butt;stroke-linejoin:miter;stroke-opacity:1"/>
<path class="bond-35 atom-6 atom-36" d="M 213.1,72.7 L 223.6,92.3" style="fill:none;fill-rule:evenodd;stroke:#000000;stroke-width:2.0px;stroke-linecap:butt;stroke-linejoin:miter;stroke-opacity:1"/>
<path class="bond-36 atom-36 atom-37" d="M 222.6,94.0 L 232.4,94.3" style="fill:none;fill-rule:evenodd;stroke:#000000;stroke-width:2.0px;stroke-linecap:butt;stroke-linejoin:miter;stroke-opacity:1"/>
<path class="bond-36 atom-36 atom-37" d="M 232.4,94.3 L 242.1,94.6" style="fill:none;fill-rule:evenodd;stroke:#FF0000;stroke-width:2.0px;stroke-linecap:butt;stroke-linejoin:miter;stroke-opacity:1"/>
<path class="bond-36 atom-36 atom-37" d="M 222.7,90.6 L 232.5,91.0" style="fill:none;fill-rule:evenodd;stroke:#000000;stroke-width:2.0px;stroke-linecap:butt;stroke-linejoin:miter;stroke-opacity:1"/>
<path class="bond-36 atom-36 atom-37" d="M 232.5,91.0 L 242.2,91.3" style="fill:none;fill-rule:evenodd;stroke:#FF0000;stroke-width:2.0px;stroke-linecap:butt;stroke-linejoin:miter;stroke-opacity:1"/>
<path class="bond-37 atom-36 atom-38" d="M 223.6,92.3 L 218.9,99.8" style="fill:none;fill-rule:evenodd;stroke:#000000;stroke-width:2.0px;stroke-linecap:butt;stroke-linejoin:miter;stroke-opacity:1"/>
<path class="bond-37 atom-36 atom-38" d="M 218.9,99.8 L 214.3,107.3" style="fill:none;fill-rule:evenodd;stroke:#FF0000;stroke-width:2.0px;stroke-linecap:butt;stroke-linejoin:miter;stroke-opacity:1"/>
<path class="bond-38 atom-1 atom-39" d="M 290.1,75.3 L 309.0,87.0" style="fill:none;fill-rule:evenodd;stroke:#000000;stroke-width:2.0px;stroke-linecap:butt;stroke-linejoin:miter;stroke-opacity:1"/>
<path class="bond-39 atom-39 atom-40" d="M 308.9,89.0 L 317.3,84.5" style="fill:none;fill-rule:evenodd;stroke:#000000;stroke-width:2.0px;stroke-linecap:butt;stroke-linejoin:miter;stroke-opacity:1"/>
<path class="bond-39 atom-39 atom-40" d="M 317.3,84.5 L 325.7,80.0" style="fill:none;fill-rule:evenodd;stroke:#FF0000;stroke-width:2.0px;stroke-linecap:butt;stroke-linejoin:miter;stroke-opacity:1"/>
<path class="bond-39 atom-39 atom-40" d="M 307.3,86.0 L 315.7,81.5" style="fill:none;fill-rule:evenodd;stroke:#000000;stroke-width:2.0px;stroke-linecap:butt;stroke-linejoin:miter;stroke-opacity:1"/>
<path class="bond-39 atom-39 atom-40" d="M 315.7,81.5 L 324.2,77.0" style="fill:none;fill-rule:evenodd;stroke:#FF0000;stroke-width:2.0px;stroke-linecap:butt;stroke-linejoin:miter;stroke-opacity:1"/>
<path class="bond-40 atom-39 atom-41" d="M 309.0,87.0 L 308.6,96.2" style="fill:none;fill-rule:evenodd;stroke:#000000;stroke-width:2.0px;stroke-linecap:butt;stroke-linejoin:miter;stroke-opacity:1"/>
<path class="bond-40 atom-39 atom-41" d="M 308.6,96.2 L 308.3,105.3" style="fill:none;fill-rule:evenodd;stroke:#FF0000;stroke-width:2.0px;stroke-linecap:butt;stroke-linejoin:miter;stroke-opacity:1"/>
<path d="M 272.2,64.1 L 271.2,63.5 L 270.2,64.1" style="fill:none;stroke:#000000;stroke-width:2.0px;stroke-linecap:butt;stroke-linejoin:miter;stroke-opacity:1;"/>
<path d="M 252.6,73.5 L 251.6,74.0 L 250.7,73.4" style="fill:none;stroke:#000000;stroke-width:2.0px;stroke-linecap:butt;stroke-linejoin:miter;stroke-opacity:1;"/>
<path d="M 233.7,62.8 L 232.7,62.3 L 231.8,62.8" style="fill:none;stroke:#000000;stroke-width:2.0px;stroke-linecap:butt;stroke-linejoin:miter;stroke-opacity:1;"/>
<path d="M 203.2,54.1 L 202.7,53.1 L 202.9,52.8" style="fill:none;stroke:#000000;stroke-width:2.0px;stroke-linecap:butt;stroke-linejoin:miter;stroke-opacity:1;"/>
<path d="M 194.5,82.7 L 193.5,83.2 L 192.6,82.6" style="fill:none;stroke:#000000;stroke-width:2.0px;stroke-linecap:butt;stroke-linejoin:miter;stroke-opacity:1;"/>
<path d="M 175.6,72.0 L 174.7,71.4 L 173.7,72.0" style="fill:none;stroke:#000000;stroke-width:2.0px;stroke-linecap:butt;stroke-linejoin:miter;stroke-opacity:1;"/>
<path d="M 154.4,103.0 L 154.3,104.1 L 153.3,104.7" style="fill:none;stroke:#000000;stroke-width:2.0px;stroke-linecap:butt;stroke-linejoin:miter;stroke-opacity:1;"/>
<path d="M 135.7,114.1 L 134.7,114.6 L 134.7,115.7" style="fill:none;stroke:#000000;stroke-width:2.0px;stroke-linecap:butt;stroke-linejoin:miter;stroke-opacity:1;"/>
<path d="M 133.3,157.9 L 133.2,159.0 L 133.6,159.3" style="fill:none;stroke:#000000;stroke-width:2.0px;stroke-linecap:butt;stroke-linejoin:miter;stroke-opacity:1;"/>
<path d="M 125.0,88.1 L 124.4,89.0 L 124.0,89.0" style="fill:none;stroke:#000000;stroke-width:2.0px;stroke-linecap:butt;stroke-linejoin:miter;stroke-opacity:1;"/>
<path d="M 118.3,59.0 L 117.3,58.4 L 116.3,58.9" style="fill:none;stroke:#000000;stroke-width:2.0px;stroke-linecap:butt;stroke-linejoin:miter;stroke-opacity:1;"/>
<path d="M 98.7,68.4 L 97.7,68.9 L 96.8,68.3" style="fill:none;stroke:#000000;stroke-width:2.0px;stroke-linecap:butt;stroke-linejoin:miter;stroke-opacity:1;"/>
<path d="M 79.8,57.7 L 78.8,57.1 L 77.9,57.7" style="fill:none;stroke:#000000;stroke-width:2.0px;stroke-linecap:butt;stroke-linejoin:miter;stroke-opacity:1;"/>
<path d="M 69.2,86.2 L 69.7,87.2 L 69.5,87.6" style="fill:none;stroke:#000000;stroke-width:2.0px;stroke-linecap:butt;stroke-linejoin:miter;stroke-opacity:1;"/>
<path d="M 49.3,49.0 L 48.8,48.0 L 48.3,48.0" style="fill:none;stroke:#000000;stroke-width:2.0px;stroke-linecap:butt;stroke-linejoin:miter;stroke-opacity:1;"/>
<path d="M 147.3,52.2 L 147.9,51.3 L 148.4,51.3" style="fill:none;stroke:#000000;stroke-width:2.0px;stroke-linecap:butt;stroke-linejoin:miter;stroke-opacity:1;"/>
<path d="M 223.1,91.4 L 223.6,92.3 L 223.4,92.7" style="fill:none;stroke:#000000;stroke-width:2.0px;stroke-linecap:butt;stroke-linejoin:miter;stroke-opacity:1;"/>
<path d="M 308.0,86.4 L 309.0,87.0 L 308.9,87.5" style="fill:none;stroke:#000000;stroke-width:2.0px;stroke-linecap:butt;stroke-linejoin:miter;stroke-opacity:1;"/>
<path class="atom-8" d="M 211.5 34.3 Q 211.5 32.8, 212.3 31.9 Q 213.0 31.1, 214.4 31.1 Q 215.8 31.1, 216.6 31.9 Q 217.3 32.8, 217.3 34.3 Q 217.3 35.8, 216.5 36.7 Q 215.8 37.5, 214.4 37.5 Q 213.0 37.5, 212.3 36.7 Q 211.5 35.8, 211.5 34.3 M 214.4 36.8 Q 215.4 36.8, 215.9 36.2 Q 216.4 35.5, 216.4 34.3 Q 216.4 33.0, 215.9 32.4 Q 215.4 31.8, 214.4 31.8 Q 213.5 31.8, 212.9 32.4 Q 212.4 33.0, 212.4 34.3 Q 212.4 35.5, 212.9 36.2 Q 213.5 36.8, 214.4 36.8 " fill="#FF0000"/>
<path class="atom-8" d="M 218.3 31.1 L 219.1 31.1 L 219.1 33.8 L 222.4 33.8 L 222.4 31.1 L 223.2 31.1 L 223.2 37.4 L 222.4 37.4 L 222.4 34.5 L 219.1 34.5 L 219.1 37.4 L 218.3 37.4 L 218.3 31.1 " fill="#FF0000"/>
<path class="atom-18" d="M 110.7 169.5 Q 110.7 168.0, 111.5 167.2 Q 112.2 166.3, 113.6 166.3 Q 115.0 166.3, 115.8 167.2 Q 116.5 168.0, 116.5 169.5 Q 116.5 171.0, 115.8 171.9 Q 115.0 172.8, 113.6 172.8 Q 112.2 172.8, 111.5 171.9 Q 110.7 171.0, 110.7 169.5 M 113.6 172.1 Q 114.6 172.1, 115.1 171.4 Q 115.6 170.8, 115.6 169.5 Q 115.6 168.3, 115.1 167.6 Q 114.6 167.0, 113.6 167.0 Q 112.7 167.0, 112.1 167.6 Q 111.6 168.3, 111.6 169.5 Q 111.6 170.8, 112.1 171.4 Q 112.7 172.1, 113.6 172.1 " fill="#FF0000"/>
<path class="atom-19" d="M 149.2 170.8 Q 149.2 169.3, 150.0 168.4 Q 150.7 167.6, 152.1 167.6 Q 153.5 167.6, 154.2 168.4 Q 155.0 169.3, 155.0 170.8 Q 155.0 172.3, 154.2 173.2 Q 153.5 174.0, 152.1 174.0 Q 150.7 174.0, 150.0 173.2 Q 149.2 172.3, 149.2 170.8 M 152.1 173.3 Q 153.1 173.3, 153.6 172.7 Q 154.1 172.0, 154.1 170.8 Q 154.1 169.6, 153.6 168.9 Q 153.1 168.3, 152.1 168.3 Q 151.1 168.3, 150.6 168.9 Q 150.1 169.5, 150.1 170.8 Q 150.1 172.1, 150.6 172.7 Q 151.1 173.3, 152.1 173.3 " fill="#FF0000"/>
<path class="atom-19" d="M 156.0 167.7 L 156.8 167.7 L 156.8 170.3 L 160.0 170.3 L 160.0 167.7 L 160.9 167.7 L 160.9 174.0 L 160.0 174.0 L 160.0 171.0 L 156.8 171.0 L 156.8 174.0 L 156.0 174.0 L 156.0 167.7 " fill="#FF0000"/>
<path class="atom-22" d="M 93.1 85.2 L 94.0 85.2 L 94.0 87.9 L 97.2 87.9 L 97.2 85.2 L 98.0 85.2 L 98.0 91.5 L 97.2 91.5 L 97.2 88.6 L 94.0 88.6 L 94.0 91.5 L 93.1 91.5 L 93.1 85.2 " fill="#FF0000"/>
<path class="atom-22" d="M 99.3 88.3 Q 99.3 86.8, 100.1 86.0 Q 100.8 85.1, 102.2 85.1 Q 103.6 85.1, 104.4 86.0 Q 105.1 86.8, 105.1 88.3 Q 105.1 89.8, 104.4 90.7 Q 103.6 91.6, 102.2 91.6 Q 100.8 91.6, 100.1 90.7 Q 99.3 89.9, 99.3 88.3 M 102.2 90.9 Q 103.2 90.9, 103.7 90.2 Q 104.2 89.6, 104.2 88.3 Q 104.2 87.1, 103.7 86.5 Q 103.2 85.8, 102.2 85.8 Q 101.3 85.8, 100.7 86.4 Q 100.2 87.1, 100.2 88.3 Q 100.2 89.6, 100.7 90.2 Q 101.3 90.9, 102.2 90.9 " fill="#FF0000"/>
<path class="atom-29" d="M 48.8 103.0 L 49.7 103.0 L 49.7 105.6 L 52.9 105.6 L 52.9 103.0 L 53.8 103.0 L 53.8 109.3 L 52.9 109.3 L 52.9 106.4 L 49.7 106.4 L 49.7 109.3 L 48.8 109.3 L 48.8 103.0 " fill="#FF0000"/>
<path class="atom-29" d="M 55.1 106.1 Q 55.1 104.6, 55.8 103.7 Q 56.6 102.9, 58.0 102.9 Q 59.4 102.9, 60.1 103.7 Q 60.8 104.6, 60.8 106.1 Q 60.8 107.6, 60.1 108.5 Q 59.3 109.4, 58.0 109.4 Q 56.6 109.4, 55.8 108.5 Q 55.1 107.6, 55.1 106.1 M 58.0 108.7 Q 58.9 108.7, 59.4 108.0 Q 60.0 107.4, 60.0 106.1 Q 60.0 104.9, 59.4 104.2 Q 58.9 103.6, 58.0 103.6 Q 57.0 103.6, 56.5 104.2 Q 56.0 104.9, 56.0 106.1 Q 56.0 107.4, 56.5 108.0 Q 57.0 108.7, 58.0 108.7 " fill="#FF0000"/>
<path class="atom-31" d="M 57.6 29.2 Q 57.6 27.6, 58.4 26.8 Q 59.1 26.0, 60.5 26.0 Q 61.9 26.0, 62.7 26.8 Q 63.4 27.6, 63.4 29.2 Q 63.4 30.7, 62.6 31.6 Q 61.9 32.4, 60.5 32.4 Q 59.1 32.4, 58.4 31.6 Q 57.6 30.7, 57.6 29.2 M 60.5 31.7 Q 61.5 31.7, 62.0 31.1 Q 62.5 30.4, 62.5 29.2 Q 62.5 27.9, 62.0 27.3 Q 61.5 26.7, 60.5 26.7 Q 59.6 26.7, 59.0 27.3 Q 58.5 27.9, 58.5 29.2 Q 58.5 30.4, 59.0 31.1 Q 59.6 31.7, 60.5 31.7 " fill="#FF0000"/>
<path class="atom-32" d="M 17.5 44.1 L 18.3 44.1 L 18.3 46.8 L 21.5 46.8 L 21.5 44.1 L 22.4 44.1 L 22.4 50.4 L 21.5 50.4 L 21.5 47.5 L 18.3 47.5 L 18.3 50.4 L 17.5 50.4 L 17.5 44.1 " fill="#FF0000"/>
<path class="atom-32" d="M 23.7 47.3 Q 23.7 45.8, 24.4 44.9 Q 25.2 44.1, 26.6 44.1 Q 28.0 44.1, 28.7 44.9 Q 29.4 45.8, 29.4 47.3 Q 29.4 48.8, 28.7 49.7 Q 27.9 50.5, 26.6 50.5 Q 25.2 50.5, 24.4 49.7 Q 23.7 48.8, 23.7 47.3 M 26.6 49.8 Q 27.5 49.8, 28.0 49.2 Q 28.6 48.5, 28.6 47.3 Q 28.6 46.0, 28.0 45.4 Q 27.5 44.8, 26.6 44.8 Q 25.6 44.8, 25.1 45.4 Q 24.6 46.0, 24.6 47.3 Q 24.6 48.6, 25.1 49.2 Q 25.6 49.8, 26.6 49.8 " fill="#FF0000"/>
<path class="atom-34" d="M 134.6 31.7 Q 134.6 30.2, 135.3 29.4 Q 136.1 28.5, 137.5 28.5 Q 138.9 28.5, 139.6 29.4 Q 140.4 30.2, 140.4 31.7 Q 140.4 33.2, 139.6 34.1 Q 138.8 35.0, 137.5 35.0 Q 136.1 35.0, 135.3 34.1 Q 134.6 33.2, 134.6 31.7 M 137.5 34.3 Q 138.4 34.3, 138.9 33.6 Q 139.5 33.0, 139.5 31.7 Q 139.5 30.5, 138.9 29.9 Q 138.4 29.2, 137.5 29.2 Q 136.5 29.2, 136.0 29.8 Q 135.5 30.5, 135.5 31.7 Q 135.5 33.0, 136.0 33.6 Q 136.5 34.3, 137.5 34.3 " fill="#FF0000"/>
<path class="atom-35" d="M 167.3 52.1 Q 167.3 50.5, 168.0 49.7 Q 168.8 48.9, 170.1 48.9 Q 171.5 48.9, 172.3 49.7 Q 173.0 50.5, 173.0 52.1 Q 173.0 53.6, 172.3 54.5 Q 171.5 55.3, 170.1 55.3 Q 168.8 55.3, 168.0 54.5 Q 167.3 53.6, 167.3 52.1 M 170.1 54.6 Q 171.1 54.6, 171.6 54.0 Q 172.1 53.3, 172.1 52.1 Q 172.1 50.8, 171.6 50.2 Q 171.1 49.6, 170.1 49.6 Q 169.2 49.6, 168.7 50.2 Q 168.1 50.8, 168.1 52.1 Q 168.1 53.3, 168.7 54.0 Q 169.2 54.6, 170.1 54.6 " fill="#FF0000"/>
<path class="atom-35" d="M 174.0 48.9 L 174.9 48.9 L 174.9 51.6 L 178.1 51.6 L 178.1 48.9 L 178.9 48.9 L 178.9 55.2 L 178.1 55.2 L 178.1 52.3 L 174.9 52.3 L 174.9 55.2 L 174.0 55.2 L 174.0 48.9 " fill="#FF0000"/>
<path class="atom-37" d="M 242.9 93.1 Q 242.9 91.6, 243.7 90.7 Q 244.4 89.9, 245.8 89.9 Q 247.2 89.9, 248.0 90.7 Q 248.7 91.6, 248.7 93.1 Q 248.7 94.6, 247.9 95.5 Q 247.2 96.4, 245.8 96.4 Q 244.4 96.4, 243.7 95.5 Q 242.9 94.6, 242.9 93.1 M 245.8 95.6 Q 246.8 95.6, 247.3 95.0 Q 247.8 94.4, 247.8 93.1 Q 247.8 91.9, 247.3 91.2 Q 246.8 90.6, 245.8 90.6 Q 244.9 90.6, 244.3 91.2 Q 243.8 91.8, 243.8 93.1 Q 243.8 94.4, 244.3 95.0 Q 244.9 95.6, 245.8 95.6 " fill="#FF0000"/>
<path class="atom-38" d="M 202.7 108.1 L 203.6 108.1 L 203.6 110.8 L 206.8 110.8 L 206.8 108.1 L 207.7 108.1 L 207.7 114.4 L 206.8 114.4 L 206.8 111.5 L 203.6 111.5 L 203.6 114.4 L 202.7 114.4 L 202.7 108.1 " fill="#FF0000"/>
<path class="atom-38" d="M 209.0 111.2 Q 209.0 109.7, 209.7 108.9 Q 210.5 108.0, 211.9 108.0 Q 213.3 108.0, 214.0 108.9 Q 214.7 109.7, 214.7 111.2 Q 214.7 112.8, 214.0 113.6 Q 213.2 114.5, 211.9 114.5 Q 210.5 114.5, 209.7 113.6 Q 209.0 112.8, 209.0 111.2 M 211.9 113.8 Q 212.8 113.8, 213.3 113.1 Q 213.9 112.5, 213.9 111.2 Q 213.9 110.0, 213.3 109.4 Q 212.8 108.7, 211.9 108.7 Q 210.9 108.7, 210.4 109.4 Q 209.9 110.0, 209.9 111.2 Q 209.9 112.5, 210.4 113.1 Q 210.9 113.8, 211.9 113.8 " fill="#FF0000"/>
<path class="atom-40" d="M 325.7 76.6 Q 325.7 75.1, 326.4 74.2 Q 327.2 73.4, 328.6 73.4 Q 330.0 73.4, 330.7 74.2 Q 331.4 75.1, 331.4 76.6 Q 331.4 78.1, 330.7 79.0 Q 329.9 79.9, 328.6 79.9 Q 327.2 79.9, 326.4 79.0 Q 325.7 78.1, 325.7 76.6 M 328.6 79.1 Q 329.5 79.1, 330.0 78.5 Q 330.6 77.8, 330.6 76.6 Q 330.6 75.4, 330.0 74.7 Q 329.5 74.1, 328.6 74.1 Q 327.6 74.1, 327.1 74.7 Q 326.6 75.3, 326.6 76.6 Q 326.6 77.9, 327.1 78.5 Q 327.6 79.1, 328.6 79.1 " fill="#FF0000"/>
<path class="atom-41" d="M 305.3 109.3 Q 305.3 107.8, 306.1 106.9 Q 306.8 106.1, 308.2 106.1 Q 309.6 106.1, 310.4 106.9 Q 311.1 107.8, 311.1 109.3 Q 311.1 110.8, 310.3 111.7 Q 309.6 112.5, 308.2 112.5 Q 306.8 112.5, 306.1 111.7 Q 305.3 110.8, 305.3 109.3 M 308.2 111.8 Q 309.2 111.8, 309.7 111.2 Q 310.2 110.5, 310.2 109.3 Q 310.2 108.0, 309.7 107.4 Q 309.2 106.8, 308.2 106.8 Q 307.3 106.8, 306.7 107.4 Q 306.2 108.0, 306.2 109.3 Q 306.2 110.5, 306.7 111.2 Q 307.3 111.8, 308.2 111.8 " fill="#FF0000"/>
<path class="atom-41" d="M 312.1 106.1 L 312.9 106.1 L 312.9 108.8 L 316.2 108.8 L 316.2 106.1 L 317.0 106.1 L 317.0 112.4 L 316.2 112.4 L 316.2 109.5 L 312.9 109.5 L 312.9 112.4 L 312.1 112.4 L 312.1 106.1 " fill="#FF0000"/>
</svg>
