<?xml version='1.0' encoding='ASCII' standalone='yes'?>
<svg xmlns="http://www.w3.org/2000/svg" xmlns:rdkit="http://www.rdkit.org/xml" xmlns:xlink="http://www.w3.org/1999/xlink" version="1.1" baseProfile="full" xml:space="preserve" width="297px" height="200px" viewBox="0 0 297 200">
<!-- END OF HEADER -->
<rect style="opacity:1.0;fill:#FFFFFF;stroke:none" width="297.0" height="200.0" x="0.0" y="0.0"> </rect>
<path class="bond-0 atom-0 atom-1" d="M 239.7,90.5 L 217.6,117.5" style="fill:none;fill-rule:evenodd;stroke:#000000;stroke-width:2.0px;stroke-linecap:butt;stroke-linejoin:miter;stroke-opacity:1"/>
<path class="bond-1 atom-1 atom-2" d="M 217.6,117.5 L 195.4,144.5" style="fill:none;fill-rule:evenodd;stroke:#000000;stroke-width:2.0px;stroke-linecap:butt;stroke-linejoin:miter;stroke-opacity:1"/>
<path class="bond-2 atom-1 atom-3" d="M 217.6,117.5 L 244.6,139.7" style="fill:none;fill-rule:evenodd;stroke:#000000;stroke-width:2.0px;stroke-linecap:butt;stroke-linejoin:miter;stroke-opacity:1"/>
<path class="bond-3 atom-3 atom-4" d="M 244.1,142.6 L 258.3,137.2" style="fill:none;fill-rule:evenodd;stroke:#000000;stroke-width:2.0px;stroke-linecap:butt;stroke-linejoin:miter;stroke-opacity:1"/>
<path class="bond-3 atom-3 atom-4" d="M 258.3,137.2 L 272.5,131.9" style="fill:none;fill-rule:evenodd;stroke:#FF0000;stroke-width:2.0px;stroke-linecap:butt;stroke-linejoin:miter;stroke-opacity:1"/>
<path class="bond-3 atom-3 atom-4" d="M 242.3,137.8 L 256.5,132.4" style="fill:none;fill-rule:evenodd;stroke:#000000;stroke-width:2.0px;stroke-linecap:butt;stroke-linejoin:miter;stroke-opacity:1"/>
<path class="bond-3 atom-3 atom-4" d="M 256.5,132.4 L 270.7,127.1" style="fill:none;fill-rule:evenodd;stroke:#FF0000;stroke-width:2.0px;stroke-linecap:butt;stroke-linejoin:miter;stroke-opacity:1"/>
<path class="bond-4 atom-3 atom-5" d="M 244.6,139.7 L 242.2,153.8" style="fill:none;fill-rule:evenodd;stroke:#000000;stroke-width:2.0px;stroke-linecap:butt;stroke-linejoin:miter;stroke-opacity:1"/>
<path class="bond-4 atom-3 atom-5" d="M 242.2,153.8 L 239.9,168.0" style="fill:none;fill-rule:evenodd;stroke:#FF0000;stroke-width:2.0px;stroke-linecap:butt;stroke-linejoin:miter;stroke-opacity:1"/>
<path class="bond-5 atom-1 atom-6" d="M 217.6,117.5 L 190.5,95.3" style="fill:none;fill-rule:evenodd;stroke:#000000;stroke-width:2.0px;stroke-linecap:butt;stroke-linejoin:miter;stroke-opacity:1"/>
<path class="bond-6 atom-6 atom-7" d="M 190.5,95.3 L 193.2,86.2" style="fill:none;fill-rule:evenodd;stroke:#000000;stroke-width:2.0px;stroke-linecap:butt;stroke-linejoin:miter;stroke-opacity:1"/>
<path class="bond-6 atom-6 atom-7" d="M 193.2,86.2 L 195.9,77.1" style="fill:none;fill-rule:evenodd;stroke:#FF0000;stroke-width:2.0px;stroke-linecap:butt;stroke-linejoin:miter;stroke-opacity:1"/>
<path class="bond-7 atom-6 atom-8" d="M 190.5,95.3 L 157.8,107.6" style="fill:none;fill-rule:evenodd;stroke:#000000;stroke-width:2.0px;stroke-linecap:butt;stroke-linejoin:miter;stroke-opacity:1"/>
<path class="bond-8 atom-8 atom-9" d="M 157.8,107.6 L 130.8,85.4" style="fill:none;fill-rule:evenodd;stroke:#000000;stroke-width:2.0px;stroke-linecap:butt;stroke-linejoin:miter;stroke-opacity:1"/>
<path class="bond-9 atom-9 atom-10" d="M 130.8,85.4 L 103.7,63.3" style="fill:none;fill-rule:evenodd;stroke:#000000;stroke-width:2.0px;stroke-linecap:butt;stroke-linejoin:miter;stroke-opacity:1"/>
<path class="bond-10 atom-9 atom-11" d="M 130.8,85.4 L 108.6,112.5" style="fill:none;fill-rule:evenodd;stroke:#000000;stroke-width:2.0px;stroke-linecap:butt;stroke-linejoin:miter;stroke-opacity:1"/>
<path class="bond-11 atom-11 atom-12" d="M 105.7,112.0 L 110.9,126.0" style="fill:none;fill-rule:evenodd;stroke:#000000;stroke-width:2.0px;stroke-linecap:butt;stroke-linejoin:miter;stroke-opacity:1"/>
<path class="bond-11 atom-11 atom-12" d="M 110.9,126.0 L 116.2,140.0" style="fill:none;fill-rule:evenodd;stroke:#FF0000;stroke-width:2.0px;stroke-linecap:butt;stroke-linejoin:miter;stroke-opacity:1"/>
<path class="bond-11 atom-11 atom-12" d="M 110.5,110.2 L 115.7,124.2" style="fill:none;fill-rule:evenodd;stroke:#000000;stroke-width:2.0px;stroke-linecap:butt;stroke-linejoin:miter;stroke-opacity:1"/>
<path class="bond-11 atom-11 atom-12" d="M 115.7,124.2 L 121.0,138.2" style="fill:none;fill-rule:evenodd;stroke:#FF0000;stroke-width:2.0px;stroke-linecap:butt;stroke-linejoin:miter;stroke-opacity:1"/>
<path class="bond-12 atom-11 atom-13" d="M 108.6,112.5 L 74.1,106.8" style="fill:none;fill-rule:evenodd;stroke:#000000;stroke-width:2.0px;stroke-linecap:butt;stroke-linejoin:miter;stroke-opacity:1"/>
<path class="bond-13 atom-13 atom-14" d="M 74.1,106.8 L 79.8,72.3" style="fill:none;fill-rule:evenodd;stroke:#000000;stroke-width:2.0px;stroke-linecap:butt;stroke-linejoin:miter;stroke-opacity:1"/>
<path class="bond-14 atom-13 atom-15" d="M 74.1,106.8 L 39.6,101.1" style="fill:none;fill-rule:evenodd;stroke:#000000;stroke-width:2.0px;stroke-linecap:butt;stroke-linejoin:miter;stroke-opacity:1"/>
<path class="bond-15 atom-15 atom-16" d="M 39.6,101.1 L 31.0,111.5" style="fill:none;fill-rule:evenodd;stroke:#000000;stroke-width:2.0px;stroke-linecap:butt;stroke-linejoin:miter;stroke-opacity:1"/>
<path class="bond-15 atom-15 atom-16" d="M 31.0,111.5 L 22.5,122.0" style="fill:none;fill-rule:evenodd;stroke:#FF0000;stroke-width:2.0px;stroke-linecap:butt;stroke-linejoin:miter;stroke-opacity:1"/>
<path class="bond-15 atom-15 atom-16" d="M 41.7,106.6 L 35.0,114.8" style="fill:none;fill-rule:evenodd;stroke:#000000;stroke-width:2.0px;stroke-linecap:butt;stroke-linejoin:miter;stroke-opacity:1"/>
<path class="bond-15 atom-15 atom-16" d="M 35.0,114.8 L 26.4,125.2" style="fill:none;fill-rule:evenodd;stroke:#FF0000;stroke-width:2.0px;stroke-linecap:butt;stroke-linejoin:miter;stroke-opacity:1"/>
<path class="bond-16 atom-13 atom-17" d="M 74.1,106.8 L 68.4,141.3" style="fill:none;fill-rule:evenodd;stroke:#000000;stroke-width:2.0px;stroke-linecap:butt;stroke-linejoin:miter;stroke-opacity:1"/>
<path class="bond-17 atom-17 atom-18" d="M 68.4,141.3 L 54.9,146.4" style="fill:none;fill-rule:evenodd;stroke:#000000;stroke-width:2.0px;stroke-linecap:butt;stroke-linejoin:miter;stroke-opacity:1"/>
<path class="bond-17 atom-17 atom-18" d="M 54.9,146.4 L 41.3,151.4" style="fill:none;fill-rule:evenodd;stroke:#FF0000;stroke-width:2.0px;stroke-linecap:butt;stroke-linejoin:miter;stroke-opacity:1"/>
<path class="bond-18 atom-17 atom-19" d="M 68.4,141.3 L 79.1,150.0" style="fill:none;fill-rule:evenodd;stroke:#000000;stroke-width:2.0px;stroke-linecap:butt;stroke-linejoin:miter;stroke-opacity:1"/>
<path class="bond-18 atom-17 atom-19" d="M 79.1,150.0 L 89.8,158.8" style="fill:none;fill-rule:evenodd;stroke:#FF0000;stroke-width:2.0px;stroke-linecap:butt;stroke-linejoin:miter;stroke-opacity:1"/>
<path class="bond-19 atom-9 atom-20" d="M 130.8,85.4 L 153.0,58.4" style="fill:none;fill-rule:evenodd;stroke:#000000;stroke-width:2.0px;stroke-linecap:butt;stroke-linejoin:miter;stroke-opacity:1"/>
<path class="bond-20 atom-20 atom-21" d="M 153.0,58.4 L 148.0,45.2" style="fill:none;fill-rule:evenodd;stroke:#000000;stroke-width:2.0px;stroke-linecap:butt;stroke-linejoin:miter;stroke-opacity:1"/>
<path class="bond-20 atom-20 atom-21" d="M 148.0,45.2 L 143.0,32.0" style="fill:none;fill-rule:evenodd;stroke:#FF0000;stroke-width:2.0px;stroke-linecap:butt;stroke-linejoin:miter;stroke-opacity:1"/>
<path class="bond-21 atom-20 atom-22" d="M 153.0,58.4 L 162.9,58.8" style="fill:none;fill-rule:evenodd;stroke:#000000;stroke-width:2.0px;stroke-linecap:butt;stroke-linejoin:miter;stroke-opacity:1"/>
<path class="bond-21 atom-20 atom-22" d="M 162.9,58.8 L 172.8,59.2" style="fill:none;fill-rule:evenodd;stroke:#FF0000;stroke-width:2.0px;stroke-linecap:butt;stroke-linejoin:miter;stroke-opacity:1"/>
<path d="M 243.2,138.6 L 244.6,139.7 L 244.5,140.4" style="fill:none;stroke:#000000;stroke-width:2.0px;stroke-linecap:butt;stroke-linejoin:miter;stroke-opacity:1;"/>
<path d="M 159.4,107.0 L 157.8,107.6 L 156.5,106.5" style="fill:none;stroke:#000000;stroke-width:2.0px;stroke-linecap:butt;stroke-linejoin:miter;stroke-opacity:1;"/>
<path d="M 109.7,111.1 L 108.6,112.5 L 106.9,112.2" style="fill:none;stroke:#000000;stroke-width:2.0px;stroke-linecap:butt;stroke-linejoin:miter;stroke-opacity:1;"/>
<path d="M 41.3,101.4 L 39.6,101.1 L 39.2,101.6" style="fill:none;stroke:#000000;stroke-width:2.0px;stroke-linecap:butt;stroke-linejoin:miter;stroke-opacity:1;"/>
<path class="atom-4" d="M 272.8 127.4 Q 272.8 125.0, 273.9 123.7 Q 275.1 122.3, 277.3 122.3 Q 279.5 122.3, 280.7 123.7 Q 281.9 125.0, 281.9 127.4 Q 281.9 129.8, 280.7 131.2 Q 279.5 132.5, 277.3 132.5 Q 275.1 132.5, 273.9 131.2 Q 272.8 129.8, 272.8 127.4 M 277.3 131.4 Q 278.8 131.4, 279.6 130.4 Q 280.5 129.4, 280.5 127.4 Q 280.5 125.4, 279.6 124.5 Q 278.8 123.5, 277.3 123.5 Q 275.8 123.5, 275.0 124.4 Q 274.2 125.4, 274.2 127.4 Q 274.2 129.4, 275.0 130.4 Q 275.8 131.4, 277.3 131.4 " fill="#FF0000"/>
<path class="atom-5" d="M 234.3 174.2 Q 234.3 171.8, 235.5 170.5 Q 236.7 169.2, 238.9 169.2 Q 241.1 169.2, 242.3 170.5 Q 243.4 171.8, 243.4 174.2 Q 243.4 176.6, 242.2 178.0 Q 241.1 179.3, 238.9 179.3 Q 236.7 179.3, 235.5 178.0 Q 234.3 176.6, 234.3 174.2 M 238.9 178.2 Q 240.4 178.2, 241.2 177.2 Q 242.0 176.2, 242.0 174.2 Q 242.0 172.2, 241.2 171.3 Q 240.4 170.3, 238.9 170.3 Q 237.4 170.3, 236.6 171.3 Q 235.7 172.2, 235.7 174.2 Q 235.7 176.2, 236.6 177.2 Q 237.4 178.2, 238.9 178.2 " fill="#FF0000"/>
<path class="atom-5" d="M 245.0 169.3 L 246.3 169.3 L 246.3 173.5 L 251.4 173.5 L 251.4 169.3 L 252.7 169.3 L 252.7 179.2 L 251.4 179.2 L 251.4 174.6 L 246.3 174.6 L 246.3 179.2 L 245.0 179.2 L 245.0 169.3 " fill="#FF0000"/>
<path class="atom-7" d="M 193.2 70.9 Q 193.2 68.5, 194.3 67.2 Q 195.5 65.8, 197.7 65.8 Q 199.9 65.8, 201.1 67.2 Q 202.3 68.5, 202.3 70.9 Q 202.3 73.3, 201.1 74.7 Q 199.9 76.0, 197.7 76.0 Q 195.5 76.0, 194.3 74.7 Q 193.2 73.3, 193.2 70.9 M 197.7 74.9 Q 199.2 74.9, 200.0 73.9 Q 200.9 72.9, 200.9 70.9 Q 200.9 68.9, 200.0 68.0 Q 199.2 67.0, 197.7 67.0 Q 196.2 67.0, 195.4 67.9 Q 194.6 68.9, 194.6 70.9 Q 194.6 72.9, 195.4 73.9 Q 196.2 74.9, 197.7 74.9 " fill="#FF0000"/>
<path class="atom-7" d="M 203.8 66.0 L 205.1 66.0 L 205.1 70.2 L 210.2 70.2 L 210.2 66.0 L 211.5 66.0 L 211.5 75.9 L 210.2 75.9 L 210.2 71.3 L 205.1 71.3 L 205.1 75.9 L 203.8 75.9 L 203.8 66.0 " fill="#FF0000"/>
<path class="atom-12" d="M 116.4 145.2 Q 116.4 142.8, 117.5 141.5 Q 118.7 140.2, 120.9 140.2 Q 123.1 140.2, 124.3 141.5 Q 125.5 142.8, 125.5 145.2 Q 125.5 147.6, 124.3 149.0 Q 123.1 150.3, 120.9 150.3 Q 118.7 150.3, 117.5 149.0 Q 116.4 147.6, 116.4 145.2 M 120.9 149.2 Q 122.4 149.2, 123.2 148.2 Q 124.1 147.2, 124.1 145.2 Q 124.1 143.3, 123.2 142.3 Q 122.4 141.3, 120.9 141.3 Q 119.4 141.3, 118.6 142.3 Q 117.8 143.3, 117.8 145.2 Q 117.8 147.2, 118.6 148.2 Q 119.4 149.2, 120.9 149.2 " fill="#FF0000"/>
<path class="atom-16" d="M 14.9 129.8 Q 14.9 127.4, 16.0 126.0 Q 17.2 124.7, 19.4 124.7 Q 21.6 124.7, 22.8 126.0 Q 23.9 127.4, 23.9 129.8 Q 23.9 132.2, 22.8 133.5 Q 21.6 134.9, 19.4 134.9 Q 17.2 134.9, 16.0 133.5 Q 14.9 132.2, 14.9 129.8 M 19.4 133.8 Q 20.9 133.8, 21.7 132.8 Q 22.5 131.7, 22.5 129.8 Q 22.5 127.8, 21.7 126.8 Q 20.9 125.8, 19.4 125.8 Q 17.9 125.8, 17.1 126.8 Q 16.2 127.8, 16.2 129.8 Q 16.2 131.8, 17.1 132.8 Q 17.9 133.8, 19.4 133.8 " fill="#FF0000"/>
<path class="atom-18" d="M 21.4 148.7 L 22.7 148.7 L 22.7 152.9 L 27.8 152.9 L 27.8 148.7 L 29.1 148.7 L 29.1 158.6 L 27.8 158.6 L 27.8 154.0 L 22.7 154.0 L 22.7 158.6 L 21.4 158.6 L 21.4 148.7 " fill="#FF0000"/>
<path class="atom-18" d="M 31.1 153.6 Q 31.1 151.2, 32.3 149.9 Q 33.5 148.6, 35.7 148.6 Q 37.9 148.6, 39.0 149.9 Q 40.2 151.2, 40.2 153.6 Q 40.2 156.0, 39.0 157.4 Q 37.8 158.7, 35.7 158.7 Q 33.5 158.7, 32.3 157.4 Q 31.1 156.0, 31.1 153.6 M 35.7 157.6 Q 37.2 157.6, 38.0 156.6 Q 38.8 155.6, 38.8 153.6 Q 38.8 151.7, 38.0 150.7 Q 37.2 149.7, 35.7 149.7 Q 34.2 149.7, 33.3 150.7 Q 32.5 151.7, 32.5 153.6 Q 32.5 155.6, 33.3 156.6 Q 34.2 157.6, 35.7 157.6 " fill="#FF0000"/>
<path class="atom-19" d="M 90.9 163.5 Q 90.9 161.1, 92.1 159.8 Q 93.2 158.4, 95.4 158.4 Q 97.6 158.4, 98.8 159.8 Q 100.0 161.1, 100.0 163.5 Q 100.0 165.9, 98.8 167.3 Q 97.6 168.6, 95.4 168.6 Q 93.2 168.6, 92.1 167.3 Q 90.9 165.9, 90.9 163.5 M 95.4 167.5 Q 96.9 167.5, 97.8 166.5 Q 98.6 165.5, 98.6 163.5 Q 98.6 161.5, 97.8 160.6 Q 96.9 159.6, 95.4 159.6 Q 93.9 159.6, 93.1 160.5 Q 92.3 161.5, 92.3 163.5 Q 92.3 165.5, 93.1 166.5 Q 93.9 167.5, 95.4 167.5 " fill="#FF0000"/>
<path class="atom-19" d="M 101.5 158.6 L 102.9 158.6 L 102.9 162.8 L 107.9 162.8 L 107.9 158.6 L 109.3 158.6 L 109.3 168.5 L 107.9 168.5 L 107.9 163.9 L 102.9 163.9 L 102.9 168.5 L 101.5 168.5 L 101.5 158.6 " fill="#FF0000"/>
<path class="atom-21" d="M 126.3 20.8 L 127.7 20.8 L 127.7 25.0 L 132.7 25.0 L 132.7 20.8 L 134.1 20.8 L 134.1 30.7 L 132.7 30.7 L 132.7 26.1 L 127.7 26.1 L 127.7 30.7 L 126.3 30.7 L 126.3 20.8 " fill="#FF0000"/>
<path class="atom-21" d="M 136.1 25.7 Q 136.1 23.3, 137.3 22.0 Q 138.4 20.7, 140.6 20.7 Q 142.8 20.7, 144.0 22.0 Q 145.2 23.3, 145.2 25.7 Q 145.2 28.1, 144.0 29.5 Q 142.8 30.8, 140.6 30.8 Q 138.5 30.8, 137.3 29.5 Q 136.1 28.1, 136.1 25.7 M 140.6 29.7 Q 142.1 29.7, 143.0 28.7 Q 143.8 27.7, 143.8 25.7 Q 143.8 23.8, 143.0 22.8 Q 142.1 21.8, 140.6 21.8 Q 139.1 21.8, 138.3 22.8 Q 137.5 23.8, 137.5 25.7 Q 137.5 27.7, 138.3 28.7 Q 139.1 29.7, 140.6 29.7 " fill="#FF0000"/>
<path class="atom-22" d="M 173.9 59.5 Q 173.9 57.1, 175.1 55.8 Q 176.2 54.5, 178.4 54.5 Q 180.6 54.5, 181.8 55.8 Q 183.0 57.1, 183.0 59.5 Q 183.0 61.9, 181.8 63.3 Q 180.6 64.6, 178.4 64.6 Q 176.2 64.6, 175.1 63.3 Q 173.9 61.9, 173.9 59.5 M 178.4 63.5 Q 179.9 63.5, 180.7 62.5 Q 181.6 61.5, 181.6 59.5 Q 181.6 57.5, 180.7 56.6 Q 179.9 55.6, 178.4 55.6 Q 176.9 55.6, 176.1 56.6 Q 175.3 57.5, 175.3 59.5 Q 175.3 61.5, 176.1 62.5 Q 176.9 63.5, 178.4 63.5 " fill="#FF0000"/>
<path class="atom-22" d="M 184.5 54.6 L 185.9 54.6 L 185.9 58.8 L 190.9 58.8 L 190.9 54.6 L 192.3 54.6 L 192.3 64.5 L 190.9 64.5 L 190.9 59.9 L 185.9 59.9 L 185.9 64.5 L 184.5 64.5 L 184.5 54.6 " fill="#FF0000"/>
</svg>
