<?xml version='1.0' encoding='ASCII' standalone='yes'?>
<svg xmlns="http://www.w3.org/2000/svg" xmlns:rdkit="http://www.rdkit.org/xml" xmlns:xlink="http://www.w3.org/1999/xlink" version="1.1" baseProfile="full" xml:space="preserve" width="285px" height="200px" viewBox="0 0 285 200">
<!-- END OF HEADER -->
<rect style="opacity:1.0;fill:#FFFFFF;stroke:none" width="285.0" height="200.0" x="0.0" y="0.0"> </rect>
<path class="bond-0 atom-0 atom-1" d="M 14.2,78.7 L 36.2,100.3" style="fill:none;fill-rule:evenodd;stroke:#000000;stroke-width:2.0px;stroke-linecap:butt;stroke-linejoin:miter;stroke-opacity:1"/>
<path class="bond-1 atom-1 atom-2" d="M 36.2,100.3 L 28.4,130.1" style="fill:none;fill-rule:evenodd;stroke:#000000;stroke-width:2.0px;stroke-linecap:butt;stroke-linejoin:miter;stroke-opacity:1"/>
<path class="bond-2 atom-1 atom-3" d="M 36.2,100.3 L 65.9,92.1" style="fill:none;fill-rule:evenodd;stroke:#000000;stroke-width:2.0px;stroke-linecap:butt;stroke-linejoin:miter;stroke-opacity:1"/>
<path class="bond-3 atom-3 atom-4" d="M 65.9,92.1 L 87.8,113.7" style="fill:none;fill-rule:evenodd;stroke:#000000;stroke-width:2.0px;stroke-linecap:butt;stroke-linejoin:miter;stroke-opacity:1"/>
<path class="bond-4 atom-4 atom-5" d="M 87.8,113.7 L 84.6,125.9" style="fill:none;fill-rule:evenodd;stroke:#000000;stroke-width:2.0px;stroke-linecap:butt;stroke-linejoin:miter;stroke-opacity:1"/>
<path class="bond-4 atom-4 atom-5" d="M 84.6,125.9 L 81.4,138.1" style="fill:none;fill-rule:evenodd;stroke:#0000FF;stroke-width:2.0px;stroke-linecap:butt;stroke-linejoin:miter;stroke-opacity:1"/>
<path class="bond-5 atom-4 atom-6" d="M 87.8,113.7 L 117.5,105.5" style="fill:none;fill-rule:evenodd;stroke:#000000;stroke-width:2.0px;stroke-linecap:butt;stroke-linejoin:miter;stroke-opacity:1"/>
<path class="bond-6 atom-6 atom-7" d="M 119.4,107.4 L 122.7,94.6" style="fill:none;fill-rule:evenodd;stroke:#000000;stroke-width:2.0px;stroke-linecap:butt;stroke-linejoin:miter;stroke-opacity:1"/>
<path class="bond-6 atom-6 atom-7" d="M 122.7,94.6 L 126.0,81.9" style="fill:none;fill-rule:evenodd;stroke:#FF0000;stroke-width:2.0px;stroke-linecap:butt;stroke-linejoin:miter;stroke-opacity:1"/>
<path class="bond-6 atom-6 atom-7" d="M 114.9,106.2 L 118.2,93.5" style="fill:none;fill-rule:evenodd;stroke:#000000;stroke-width:2.0px;stroke-linecap:butt;stroke-linejoin:miter;stroke-opacity:1"/>
<path class="bond-6 atom-6 atom-7" d="M 118.2,93.5 L 121.5,80.7" style="fill:none;fill-rule:evenodd;stroke:#FF0000;stroke-width:2.0px;stroke-linecap:butt;stroke-linejoin:miter;stroke-opacity:1"/>
<path class="bond-7 atom-6 atom-8" d="M 117.5,105.5 L 125.9,113.8" style="fill:none;fill-rule:evenodd;stroke:#000000;stroke-width:2.0px;stroke-linecap:butt;stroke-linejoin:miter;stroke-opacity:1"/>
<path class="bond-7 atom-6 atom-8" d="M 125.9,113.8 L 134.4,122.2" style="fill:none;fill-rule:evenodd;stroke:#FF0000;stroke-width:2.0px;stroke-linecap:butt;stroke-linejoin:miter;stroke-opacity:1"/>
<path class="bond-8 atom-8 atom-9" d="M 144.4,125.7 L 156.7,122.3" style="fill:none;fill-rule:evenodd;stroke:#FF0000;stroke-width:2.0px;stroke-linecap:butt;stroke-linejoin:miter;stroke-opacity:1"/>
<path class="bond-8 atom-8 atom-9" d="M 156.7,122.3 L 169.1,118.9" style="fill:none;fill-rule:evenodd;stroke:#000000;stroke-width:2.0px;stroke-linecap:butt;stroke-linejoin:miter;stroke-opacity:1"/>
<path class="bond-9 atom-9 atom-10" d="M 169.1,118.9 L 172.2,106.8" style="fill:none;fill-rule:evenodd;stroke:#000000;stroke-width:2.0px;stroke-linecap:butt;stroke-linejoin:miter;stroke-opacity:1"/>
<path class="bond-9 atom-9 atom-10" d="M 172.2,106.8 L 175.4,94.7" style="fill:none;fill-rule:evenodd;stroke:#FF0000;stroke-width:2.0px;stroke-linecap:butt;stroke-linejoin:miter;stroke-opacity:1"/>
<path class="bond-10 atom-10 atom-11" d="M 181.8,87.7 L 194.1,84.3" style="fill:none;fill-rule:evenodd;stroke:#FF0000;stroke-width:2.0px;stroke-linecap:butt;stroke-linejoin:miter;stroke-opacity:1"/>
<path class="bond-10 atom-10 atom-11" d="M 194.1,84.3 L 206.5,80.9" style="fill:none;fill-rule:evenodd;stroke:#000000;stroke-width:2.0px;stroke-linecap:butt;stroke-linejoin:miter;stroke-opacity:1"/>
<path class="bond-11 atom-11 atom-12" d="M 206.5,80.9 L 214.2,51.1" style="fill:none;fill-rule:evenodd;stroke:#000000;stroke-width:2.0px;stroke-linecap:butt;stroke-linejoin:miter;stroke-opacity:1"/>
<path class="bond-12 atom-12 atom-13" d="M 214.2,51.1 L 205.8,42.8" style="fill:none;fill-rule:evenodd;stroke:#000000;stroke-width:2.0px;stroke-linecap:butt;stroke-linejoin:miter;stroke-opacity:1"/>
<path class="bond-12 atom-12 atom-13" d="M 205.8,42.8 L 197.3,34.5" style="fill:none;fill-rule:evenodd;stroke:#FF0000;stroke-width:2.0px;stroke-linecap:butt;stroke-linejoin:miter;stroke-opacity:1"/>
<path class="bond-13 atom-11 atom-14" d="M 206.5,80.9 L 228.4,102.5" style="fill:none;fill-rule:evenodd;stroke:#000000;stroke-width:2.0px;stroke-linecap:butt;stroke-linejoin:miter;stroke-opacity:1"/>
<path class="bond-14 atom-14 atom-15" d="M 228.4,102.5 L 240.7,99.1" style="fill:none;fill-rule:evenodd;stroke:#000000;stroke-width:2.0px;stroke-linecap:butt;stroke-linejoin:miter;stroke-opacity:1"/>
<path class="bond-14 atom-14 atom-15" d="M 240.7,99.1 L 253.1,95.7" style="fill:none;fill-rule:evenodd;stroke:#FF0000;stroke-width:2.0px;stroke-linecap:butt;stroke-linejoin:miter;stroke-opacity:1"/>
<path class="bond-15 atom-14 atom-16" d="M 228.4,102.5 L 220.7,132.3" style="fill:none;fill-rule:evenodd;stroke:#000000;stroke-width:2.0px;stroke-linecap:butt;stroke-linejoin:miter;stroke-opacity:1"/>
<path class="bond-16 atom-16 atom-17" d="M 220.7,132.3 L 229.1,140.7" style="fill:none;fill-rule:evenodd;stroke:#000000;stroke-width:2.0px;stroke-linecap:butt;stroke-linejoin:miter;stroke-opacity:1"/>
<path class="bond-16 atom-16 atom-17" d="M 229.1,140.7 L 237.6,149.0" style="fill:none;fill-rule:evenodd;stroke:#FF0000;stroke-width:2.0px;stroke-linecap:butt;stroke-linejoin:miter;stroke-opacity:1"/>
<path class="bond-17 atom-16 atom-18" d="M 220.7,132.3 L 191.0,140.5" style="fill:none;fill-rule:evenodd;stroke:#000000;stroke-width:2.0px;stroke-linecap:butt;stroke-linejoin:miter;stroke-opacity:1"/>
<path class="bond-18 atom-18 atom-19" d="M 191.0,140.5 L 187.8,152.7" style="fill:none;fill-rule:evenodd;stroke:#000000;stroke-width:2.0px;stroke-linecap:butt;stroke-linejoin:miter;stroke-opacity:1"/>
<path class="bond-18 atom-18 atom-19" d="M 187.8,152.7 L 184.6,164.9" style="fill:none;fill-rule:evenodd;stroke:#FF0000;stroke-width:2.0px;stroke-linecap:butt;stroke-linejoin:miter;stroke-opacity:1"/>
<path class="bond-19 atom-18 atom-9" d="M 191.0,140.5 L 169.1,118.9" style="fill:none;fill-rule:evenodd;stroke:#000000;stroke-width:2.0px;stroke-linecap:butt;stroke-linejoin:miter;stroke-opacity:1"/>
<path d="M 64.4,92.5 L 65.9,92.1 L 66.9,93.2" style="fill:none;stroke:#000000;stroke-width:2.0px;stroke-linecap:butt;stroke-linejoin:miter;stroke-opacity:1;"/>
<path d="M 116.0,105.9 L 117.5,105.5 L 117.9,105.9" style="fill:none;stroke:#000000;stroke-width:2.0px;stroke-linecap:butt;stroke-linejoin:miter;stroke-opacity:1;"/>
<path d="M 213.8,52.6 L 214.2,51.1 L 213.8,50.7" style="fill:none;stroke:#000000;stroke-width:2.0px;stroke-linecap:butt;stroke-linejoin:miter;stroke-opacity:1;"/>
<path class="atom-5" d="M 78.1 139.1 L 81.0 143.8 Q 81.2 144.2, 81.7 145.0 Q 82.2 145.9, 82.2 145.9 L 82.2 139.1 L 83.3 139.1 L 83.3 147.9 L 82.1 147.9 L 79.1 142.8 Q 78.7 142.2, 78.3 141.5 Q 78.0 140.9, 77.9 140.6 L 77.9 147.9 L 76.7 147.9 L 76.7 139.1 L 78.1 139.1 " fill="#0000FF"/>
<path class="atom-5" d="M 85.0 139.1 L 86.2 139.1 L 86.2 142.8 L 90.6 142.8 L 90.6 139.1 L 91.8 139.1 L 91.8 147.9 L 90.6 147.9 L 90.6 143.8 L 86.2 143.8 L 86.2 147.9 L 85.0 147.9 L 85.0 139.1 " fill="#0000FF"/>
<path class="atom-5" d="M 93.5 147.5 Q 93.7 147.0, 94.2 146.7 Q 94.8 146.4, 95.5 146.4 Q 96.3 146.4, 96.8 146.9 Q 97.3 147.3, 97.3 148.2 Q 97.3 149.0, 96.7 149.8 Q 96.0 150.6, 94.7 151.6 L 97.4 151.6 L 97.4 152.2 L 93.5 152.2 L 93.5 151.7 Q 94.6 150.9, 95.2 150.3 Q 95.9 149.8, 96.2 149.3 Q 96.5 148.7, 96.5 148.2 Q 96.5 147.7, 96.2 147.3 Q 95.9 147.0, 95.5 147.0 Q 95.0 147.0, 94.7 147.2 Q 94.4 147.4, 94.2 147.8 L 93.5 147.5 " fill="#0000FF"/>
<path class="atom-7" d="M 121.2 75.7 Q 121.2 73.6, 122.2 72.5 Q 123.3 71.3, 125.2 71.3 Q 127.1 71.3, 128.2 72.5 Q 129.2 73.6, 129.2 75.7 Q 129.2 77.9, 128.2 79.1 Q 127.1 80.3, 125.2 80.3 Q 123.3 80.3, 122.2 79.1 Q 121.2 77.9, 121.2 75.7 M 125.2 79.3 Q 126.5 79.3, 127.2 78.4 Q 128.0 77.5, 128.0 75.7 Q 128.0 74.0, 127.2 73.2 Q 126.5 72.3, 125.2 72.3 Q 123.9 72.3, 123.1 73.2 Q 122.4 74.0, 122.4 75.7 Q 122.4 77.5, 123.1 78.4 Q 123.9 79.3, 125.2 79.3 " fill="#FF0000"/>
<path class="atom-8" d="M 135.4 127.1 Q 135.4 125.0, 136.4 123.9 Q 137.4 122.7, 139.4 122.7 Q 141.3 122.7, 142.3 123.9 Q 143.4 125.0, 143.4 127.1 Q 143.4 129.3, 142.3 130.5 Q 141.3 131.7, 139.4 131.7 Q 137.5 131.7, 136.4 130.5 Q 135.4 129.3, 135.4 127.1 M 139.4 130.7 Q 140.7 130.7, 141.4 129.8 Q 142.2 128.9, 142.2 127.1 Q 142.2 125.4, 141.4 124.6 Q 140.7 123.7, 139.4 123.7 Q 138.1 123.7, 137.3 124.6 Q 136.6 125.4, 136.6 127.1 Q 136.6 128.9, 137.3 129.8 Q 138.1 130.7, 139.4 130.7 " fill="#FF0000"/>
<path class="atom-10" d="M 172.8 89.2 Q 172.8 87.1, 173.8 85.9 Q 174.9 84.7, 176.8 84.7 Q 178.7 84.7, 179.8 85.9 Q 180.8 87.1, 180.8 89.2 Q 180.8 91.3, 179.8 92.5 Q 178.7 93.7, 176.8 93.7 Q 174.9 93.7, 173.8 92.5 Q 172.8 91.3, 172.8 89.2 M 176.8 92.7 Q 178.1 92.7, 178.8 91.8 Q 179.6 90.9, 179.6 89.2 Q 179.6 87.4, 178.8 86.6 Q 178.1 85.7, 176.8 85.7 Q 175.5 85.7, 174.7 86.6 Q 174.0 87.4, 174.0 89.2 Q 174.0 90.9, 174.7 91.8 Q 175.5 92.7, 176.8 92.7 " fill="#FF0000"/>
<path class="atom-13" d="M 179.7 25.2 L 180.9 25.2 L 180.9 28.9 L 185.3 28.9 L 185.3 25.2 L 186.5 25.2 L 186.5 34.0 L 185.3 34.0 L 185.3 29.9 L 180.9 29.9 L 180.9 34.0 L 179.7 34.0 L 179.7 25.2 " fill="#FF0000"/>
<path class="atom-13" d="M 188.3 29.6 Q 188.3 27.5, 189.3 26.3 Q 190.4 25.1, 192.3 25.1 Q 194.2 25.1, 195.3 26.3 Q 196.3 27.5, 196.3 29.6 Q 196.3 31.7, 195.2 32.9 Q 194.2 34.1, 192.3 34.1 Q 190.4 34.1, 189.3 32.9 Q 188.3 31.7, 188.3 29.6 M 192.3 33.1 Q 193.6 33.1, 194.3 32.2 Q 195.1 31.3, 195.1 29.6 Q 195.1 27.9, 194.3 27.0 Q 193.6 26.1, 192.3 26.1 Q 191.0 26.1, 190.2 27.0 Q 189.5 27.8, 189.5 29.6 Q 189.5 31.3, 190.2 32.2 Q 191.0 33.1, 192.3 33.1 " fill="#FF0000"/>
<path class="atom-15" d="M 254.1 94.4 Q 254.1 92.3, 255.1 91.1 Q 256.1 89.9, 258.1 89.9 Q 260.0 89.9, 261.0 91.1 Q 262.1 92.3, 262.1 94.4 Q 262.1 96.5, 261.0 97.7 Q 260.0 98.9, 258.1 98.9 Q 256.1 98.9, 255.1 97.7 Q 254.1 96.5, 254.1 94.4 M 258.1 97.9 Q 259.4 97.9, 260.1 97.0 Q 260.8 96.1, 260.8 94.4 Q 260.8 92.7, 260.1 91.8 Q 259.4 90.9, 258.1 90.9 Q 256.7 90.9, 256.0 91.8 Q 255.3 92.7, 255.3 94.4 Q 255.3 96.1, 256.0 97.0 Q 256.7 97.9, 258.1 97.9 " fill="#FF0000"/>
<path class="atom-15" d="M 263.4 90.0 L 264.6 90.0 L 264.6 93.8 L 269.1 93.8 L 269.1 90.0 L 270.2 90.0 L 270.2 98.8 L 269.1 98.8 L 269.1 94.7 L 264.6 94.7 L 264.6 98.8 L 263.4 98.8 L 263.4 90.0 " fill="#FF0000"/>
<path class="atom-17" d="M 238.6 154.0 Q 238.6 151.9, 239.6 150.7 Q 240.6 149.5, 242.6 149.5 Q 244.5 149.5, 245.5 150.7 Q 246.6 151.9, 246.6 154.0 Q 246.6 156.1, 245.5 157.3 Q 244.5 158.5, 242.6 158.5 Q 240.7 158.5, 239.6 157.3 Q 238.6 156.1, 238.6 154.0 M 242.6 157.5 Q 243.9 157.5, 244.6 156.6 Q 245.4 155.7, 245.4 154.0 Q 245.4 152.3, 244.6 151.4 Q 243.9 150.5, 242.6 150.5 Q 241.3 150.5, 240.5 151.4 Q 239.8 152.2, 239.8 154.0 Q 239.8 155.7, 240.5 156.6 Q 241.3 157.5, 242.6 157.5 " fill="#FF0000"/>
<path class="atom-17" d="M 247.9 149.6 L 249.1 149.6 L 249.1 153.3 L 253.6 153.3 L 253.6 149.6 L 254.8 149.6 L 254.8 158.3 L 253.6 158.3 L 253.6 154.3 L 249.1 154.3 L 249.1 158.3 L 247.9 158.3 L 247.9 149.6 " fill="#FF0000"/>
<path class="atom-19" d="M 179.2 170.3 Q 179.2 168.2, 180.3 167.1 Q 181.3 165.9, 183.2 165.9 Q 185.2 165.9, 186.2 167.1 Q 187.2 168.2, 187.2 170.3 Q 187.2 172.5, 186.2 173.7 Q 185.1 174.9, 183.2 174.9 Q 181.3 174.9, 180.3 173.7 Q 179.2 172.5, 179.2 170.3 M 183.2 173.9 Q 184.6 173.9, 185.3 173.0 Q 186.0 172.1, 186.0 170.3 Q 186.0 168.6, 185.3 167.8 Q 184.6 166.9, 183.2 166.9 Q 181.9 166.9, 181.2 167.8 Q 180.5 168.6, 180.5 170.3 Q 180.5 172.1, 181.2 173.0 Q 181.9 173.9, 183.2 173.9 " fill="#FF0000"/>
<path class="atom-19" d="M 188.6 166.0 L 189.8 166.0 L 189.8 169.7 L 194.2 169.7 L 194.2 166.0 L 195.4 166.0 L 195.4 174.7 L 194.2 174.7 L 194.2 170.7 L 189.8 170.7 L 189.8 174.7 L 188.6 174.7 L 188.6 166.0 " fill="#FF0000"/>
</svg>
