<?xml version='1.0' encoding='ASCII' standalone='yes'?>
<svg xmlns="http://www.w3.org/2000/svg" xmlns:rdkit="http://www.rdkit.org/xml" xmlns:xlink="http://www.w3.org/1999/xlink" version="1.1" baseProfile="full" xml:space="preserve" width="194px" height="200px" viewBox="0 0 194 200">
<!-- END OF HEADER -->
<rect style="opacity:1.0;fill:#FFFFFF;stroke:none" width="194.0" height="200.0" x="0.0" y="0.0"> </rect>
<path class="bond-0 atom-0 atom-1" d="M 171.6,102.9 L 154.1,95.8" style="fill:none;fill-rule:evenodd;stroke:#FF0000;stroke-width:2.0px;stroke-linecap:butt;stroke-linejoin:miter;stroke-opacity:1"/>
<path class="bond-0 atom-0 atom-1" d="M 154.1,95.8 L 136.6,88.8" style="fill:none;fill-rule:evenodd;stroke:#000000;stroke-width:2.0px;stroke-linecap:butt;stroke-linejoin:miter;stroke-opacity:1"/>
<path class="bond-0 atom-0 atom-1" d="M 169.0,109.3 L 151.5,102.2" style="fill:none;fill-rule:evenodd;stroke:#FF0000;stroke-width:2.0px;stroke-linecap:butt;stroke-linejoin:miter;stroke-opacity:1"/>
<path class="bond-0 atom-0 atom-1" d="M 151.5,102.2 L 137.7,96.6" style="fill:none;fill-rule:evenodd;stroke:#000000;stroke-width:2.0px;stroke-linecap:butt;stroke-linejoin:miter;stroke-opacity:1"/>
<path class="bond-1 atom-1 atom-2" d="M 136.6,88.8 L 100.5,117.0" style="fill:none;fill-rule:evenodd;stroke:#000000;stroke-width:2.0px;stroke-linecap:butt;stroke-linejoin:miter;stroke-opacity:1"/>
<path class="bond-2 atom-2 atom-3" d="M 100.5,117.0 L 82.1,109.6" style="fill:none;fill-rule:evenodd;stroke:#000000;stroke-width:2.0px;stroke-linecap:butt;stroke-linejoin:miter;stroke-opacity:1"/>
<path class="bond-2 atom-2 atom-3" d="M 82.1,109.6 L 63.7,102.2" style="fill:none;fill-rule:evenodd;stroke:#FF7F00;stroke-width:2.0px;stroke-linecap:butt;stroke-linejoin:miter;stroke-opacity:1"/>
<path class="bond-3 atom-3 atom-4" d="M 53.7,94.4 L 39.1,88.5" style="fill:none;fill-rule:evenodd;stroke:#FF7F00;stroke-width:2.0px;stroke-linecap:butt;stroke-linejoin:miter;stroke-opacity:1"/>
<path class="bond-3 atom-3 atom-4" d="M 39.1,88.5 L 24.4,82.6" style="fill:none;fill-rule:evenodd;stroke:#FF0000;stroke-width:2.0px;stroke-linecap:butt;stroke-linejoin:miter;stroke-opacity:1"/>
<path class="bond-3 atom-3 atom-4" d="M 51.2,100.8 L 36.5,94.9" style="fill:none;fill-rule:evenodd;stroke:#FF7F00;stroke-width:2.0px;stroke-linecap:butt;stroke-linejoin:miter;stroke-opacity:1"/>
<path class="bond-3 atom-3 atom-4" d="M 36.5,94.9 L 21.8,89.0" style="fill:none;fill-rule:evenodd;stroke:#FF0000;stroke-width:2.0px;stroke-linecap:butt;stroke-linejoin:miter;stroke-opacity:1"/>
<path class="bond-4 atom-3 atom-5" d="M 54.9,107.9 L 49.6,121.1" style="fill:none;fill-rule:evenodd;stroke:#FF7F00;stroke-width:2.0px;stroke-linecap:butt;stroke-linejoin:miter;stroke-opacity:1"/>
<path class="bond-4 atom-3 atom-5" d="M 49.6,121.1 L 44.2,134.3" style="fill:none;fill-rule:evenodd;stroke:#FF0000;stroke-width:2.0px;stroke-linecap:butt;stroke-linejoin:miter;stroke-opacity:1"/>
<path class="bond-5 atom-3 atom-6" d="M 61.3,91.9 L 66.6,78.8" style="fill:none;fill-rule:evenodd;stroke:#FF7F00;stroke-width:2.0px;stroke-linecap:butt;stroke-linejoin:miter;stroke-opacity:1"/>
<path class="bond-5 atom-3 atom-6" d="M 66.6,78.8 L 71.9,65.7" style="fill:none;fill-rule:evenodd;stroke:#FF0000;stroke-width:2.0px;stroke-linecap:butt;stroke-linejoin:miter;stroke-opacity:1"/>
<path d="M 137.5,89.1 L 136.6,88.8 L 134.8,90.2" style="fill:none;stroke:#000000;stroke-width:2.0px;stroke-linecap:butt;stroke-linejoin:miter;stroke-opacity:1;"/>
<path d="M 102.3,115.6 L 100.5,117.0 L 99.6,116.6" style="fill:none;stroke:#000000;stroke-width:2.0px;stroke-linecap:butt;stroke-linejoin:miter;stroke-opacity:1;"/>
<path class="atom-0" d="M 171.8 109.1 Q 171.8 106.0, 173.3 104.3 Q 174.9 102.5, 177.8 102.5 Q 180.6 102.5, 182.2 104.3 Q 183.7 106.0, 183.7 109.1 Q 183.7 112.3, 182.1 114.1 Q 180.6 115.8, 177.8 115.8 Q 174.9 115.8, 173.3 114.1 Q 171.8 112.3, 171.8 109.1 M 177.8 114.4 Q 179.7 114.4, 180.8 113.1 Q 181.9 111.7, 181.9 109.1 Q 181.9 106.6, 180.8 105.3 Q 179.7 104.0, 177.8 104.0 Q 175.8 104.0, 174.7 105.3 Q 173.6 106.6, 173.6 109.1 Q 173.6 111.7, 174.7 113.1 Q 175.8 114.4, 177.8 114.4 " fill="#FF0000"/>
<path class="atom-3" d="M 57.8 93.4 Q 60.0 93.4, 61.1 94.4 Q 62.2 95.4, 62.2 97.2 Q 62.2 99.0, 61.1 100.0 Q 59.9 101.1, 57.8 101.1 L 55.7 101.1 L 55.7 106.4 L 54.0 106.4 L 54.0 93.4 L 57.8 93.4 M 57.8 99.6 Q 59.0 99.6, 59.7 99.0 Q 60.4 98.4, 60.4 97.2 Q 60.4 96.1, 59.7 95.5 Q 59.1 94.9, 57.8 94.9 L 55.7 94.9 L 55.7 99.6 L 57.8 99.6 " fill="#FF7F00"/>
<path class="atom-4" d="M 9.7 82.8 Q 9.7 79.7, 11.2 78.0 Q 12.8 76.2, 15.6 76.2 Q 18.5 76.2, 20.1 78.0 Q 21.6 79.7, 21.6 82.8 Q 21.6 86.0, 20.0 87.8 Q 18.5 89.5, 15.6 89.5 Q 12.8 89.5, 11.2 87.8 Q 9.7 86.0, 9.7 82.8 M 15.6 88.1 Q 17.6 88.1, 18.7 86.8 Q 19.8 85.4, 19.8 82.8 Q 19.8 80.3, 18.7 79.0 Q 17.6 77.7, 15.6 77.7 Q 13.7 77.7, 12.6 79.0 Q 11.5 80.3, 11.5 82.8 Q 11.5 85.4, 12.6 86.8 Q 13.7 88.1, 15.6 88.1 " fill="#FF0000"/>
<path class="atom-5" d="M 22.2 135.9 L 24.0 135.9 L 24.0 141.5 L 30.6 141.5 L 30.6 135.9 L 32.4 135.9 L 32.4 148.9 L 30.6 148.9 L 30.6 142.9 L 24.0 142.9 L 24.0 148.9 L 22.2 148.9 L 22.2 135.9 " fill="#FF0000"/>
<path class="atom-5" d="M 35.0 142.4 Q 35.0 139.3, 36.6 137.5 Q 38.1 135.8, 41.0 135.8 Q 43.9 135.8, 45.4 137.5 Q 46.9 139.3, 46.9 142.4 Q 46.9 145.5, 45.4 147.3 Q 43.8 149.1, 41.0 149.1 Q 38.1 149.1, 36.6 147.3 Q 35.0 145.6, 35.0 142.4 M 41.0 147.6 Q 43.0 147.6, 44.0 146.3 Q 45.1 145.0, 45.1 142.4 Q 45.1 139.8, 44.0 138.6 Q 43.0 137.3, 41.0 137.3 Q 39.0 137.3, 37.9 138.5 Q 36.9 139.8, 36.9 142.4 Q 36.9 145.0, 37.9 146.3 Q 39.0 147.6, 41.0 147.6 " fill="#FF0000"/>
<path class="atom-6" d="M 69.3 57.5 Q 69.3 54.4, 70.8 52.6 Q 72.3 50.9, 75.2 50.9 Q 78.1 50.9, 79.6 52.6 Q 81.2 54.4, 81.2 57.5 Q 81.2 60.6, 79.6 62.4 Q 78.0 64.2, 75.2 64.2 Q 72.3 64.2, 70.8 62.4 Q 69.3 60.7, 69.3 57.5 M 75.2 62.7 Q 77.2 62.7, 78.2 61.4 Q 79.3 60.1, 79.3 57.5 Q 79.3 54.9, 78.2 53.7 Q 77.2 52.4, 75.2 52.4 Q 73.2 52.4, 72.1 53.6 Q 71.1 54.9, 71.1 57.5 Q 71.1 60.1, 72.1 61.4 Q 73.2 62.7, 75.2 62.7 " fill="#FF0000"/>
<path class="atom-6" d="M 83.2 51.0 L 84.9 51.0 L 84.9 56.6 L 91.6 56.6 L 91.6 51.0 L 93.3 51.0 L 93.3 64.0 L 91.6 64.0 L 91.6 58.0 L 84.9 58.0 L 84.9 64.0 L 83.2 64.0 L 83.2 51.0 " fill="#FF0000"/>
</svg>
