<?xml version='1.0' encoding='ASCII' standalone='yes'?>
<svg xmlns="http://www.w3.org/2000/svg" xmlns:rdkit="http://www.rdkit.org/xml" xmlns:xlink="http://www.w3.org/1999/xlink" version="1.1" baseProfile="full" xml:space="preserve" width="265px" height="200px" viewBox="0 0 265 200">
<!-- END OF HEADER -->
<rect style="opacity:1.0;fill:#FFFFFF;stroke:none" width="265.0" height="200.0" x="0.0" y="0.0"> </rect>
<path class="bond-0 atom-0 atom-1" d="M 229.7,37.5 L 222.7,69.6" style="fill:none;fill-rule:evenodd;stroke:#000000;stroke-width:2.0px;stroke-linecap:butt;stroke-linejoin:miter;stroke-opacity:1"/>
<path class="bond-1 atom-1 atom-2" d="M 220.0,70.4 L 230.0,79.5" style="fill:none;fill-rule:evenodd;stroke:#000000;stroke-width:2.0px;stroke-linecap:butt;stroke-linejoin:miter;stroke-opacity:1"/>
<path class="bond-1 atom-1 atom-2" d="M 230.0,79.5 L 240.0,88.6" style="fill:none;fill-rule:evenodd;stroke:#FF0000;stroke-width:2.0px;stroke-linecap:butt;stroke-linejoin:miter;stroke-opacity:1"/>
<path class="bond-1 atom-1 atom-2" d="M 223.3,66.8 L 233.3,75.9" style="fill:none;fill-rule:evenodd;stroke:#000000;stroke-width:2.0px;stroke-linecap:butt;stroke-linejoin:miter;stroke-opacity:1"/>
<path class="bond-1 atom-1 atom-2" d="M 233.3,75.9 L 243.3,85.0" style="fill:none;fill-rule:evenodd;stroke:#FF0000;stroke-width:2.0px;stroke-linecap:butt;stroke-linejoin:miter;stroke-opacity:1"/>
<path class="bond-2 atom-1 atom-3" d="M 222.7,69.6 L 209.7,73.7" style="fill:none;fill-rule:evenodd;stroke:#000000;stroke-width:2.0px;stroke-linecap:butt;stroke-linejoin:miter;stroke-opacity:1"/>
<path class="bond-2 atom-1 atom-3" d="M 209.7,73.7 L 196.7,77.8" style="fill:none;fill-rule:evenodd;stroke:#FF0000;stroke-width:2.0px;stroke-linecap:butt;stroke-linejoin:miter;stroke-opacity:1"/>
<path class="bond-3 atom-3 atom-4" d="M 190.1,85.5 L 187.2,98.5" style="fill:none;fill-rule:evenodd;stroke:#FF0000;stroke-width:2.0px;stroke-linecap:butt;stroke-linejoin:miter;stroke-opacity:1"/>
<path class="bond-3 atom-3 atom-4" d="M 187.2,98.5 L 184.3,111.6" style="fill:none;fill-rule:evenodd;stroke:#000000;stroke-width:2.0px;stroke-linecap:butt;stroke-linejoin:miter;stroke-opacity:1"/>
<path class="bond-4 atom-4 atom-5" d="M 184.3,111.6 L 153.0,121.6" style="fill:none;fill-rule:evenodd;stroke:#000000;stroke-width:2.0px;stroke-linecap:butt;stroke-linejoin:miter;stroke-opacity:1"/>
<path class="bond-5 atom-5 atom-6" d="M 153.0,121.6 L 146.0,153.7" style="fill:none;fill-rule:evenodd;stroke:#000000;stroke-width:2.0px;stroke-linecap:butt;stroke-linejoin:miter;stroke-opacity:1"/>
<path class="bond-6 atom-5 atom-7" d="M 153.0,121.6 L 128.7,99.4" style="fill:none;fill-rule:evenodd;stroke:#000000;stroke-width:2.0px;stroke-linecap:butt;stroke-linejoin:miter;stroke-opacity:1"/>
<path class="bond-7 atom-7 atom-8" d="M 128.7,99.4 L 97.4,109.4" style="fill:none;fill-rule:evenodd;stroke:#000000;stroke-width:2.0px;stroke-linecap:butt;stroke-linejoin:miter;stroke-opacity:1"/>
<path class="bond-8 atom-8 atom-9" d="M 97.4,109.4 L 94.5,122.6" style="fill:none;fill-rule:evenodd;stroke:#000000;stroke-width:2.0px;stroke-linecap:butt;stroke-linejoin:miter;stroke-opacity:1"/>
<path class="bond-8 atom-8 atom-9" d="M 94.5,122.6 L 91.7,135.7" style="fill:none;fill-rule:evenodd;stroke:#FF0000;stroke-width:2.0px;stroke-linecap:butt;stroke-linejoin:miter;stroke-opacity:1"/>
<path class="bond-9 atom-8 atom-10" d="M 97.4,109.4 L 73.1,87.3" style="fill:none;fill-rule:evenodd;stroke:#000000;stroke-width:2.0px;stroke-linecap:butt;stroke-linejoin:miter;stroke-opacity:1"/>
<path class="bond-10 atom-10 atom-11" d="M 73.1,87.3 L 95.3,63.0" style="fill:none;fill-rule:evenodd;stroke:#000000;stroke-width:2.0px;stroke-linecap:butt;stroke-linejoin:miter;stroke-opacity:1"/>
<path class="bond-11 atom-10 atom-12" d="M 73.1,87.3 L 51.0,111.5" style="fill:none;fill-rule:evenodd;stroke:#000000;stroke-width:2.0px;stroke-linecap:butt;stroke-linejoin:miter;stroke-opacity:1"/>
<path class="bond-12 atom-10 atom-13" d="M 73.1,87.3 L 48.8,65.1" style="fill:none;fill-rule:evenodd;stroke:#000000;stroke-width:2.0px;stroke-linecap:butt;stroke-linejoin:miter;stroke-opacity:1"/>
<path class="bond-13 atom-13 atom-14" d="M 49.5,62.3 L 35.8,66.7" style="fill:none;fill-rule:evenodd;stroke:#000000;stroke-width:2.0px;stroke-linecap:butt;stroke-linejoin:miter;stroke-opacity:1"/>
<path class="bond-13 atom-13 atom-14" d="M 35.8,66.7 L 22.1,71.0" style="fill:none;fill-rule:evenodd;stroke:#FF0000;stroke-width:2.0px;stroke-linecap:butt;stroke-linejoin:miter;stroke-opacity:1"/>
<path class="bond-13 atom-13 atom-14" d="M 50.9,67.0 L 37.3,71.4" style="fill:none;fill-rule:evenodd;stroke:#000000;stroke-width:2.0px;stroke-linecap:butt;stroke-linejoin:miter;stroke-opacity:1"/>
<path class="bond-13 atom-13 atom-14" d="M 37.3,71.4 L 23.6,75.7" style="fill:none;fill-rule:evenodd;stroke:#FF0000;stroke-width:2.0px;stroke-linecap:butt;stroke-linejoin:miter;stroke-opacity:1"/>
<path class="bond-14 atom-13 atom-15" d="M 48.8,65.1 L 51.7,52.0" style="fill:none;fill-rule:evenodd;stroke:#000000;stroke-width:2.0px;stroke-linecap:butt;stroke-linejoin:miter;stroke-opacity:1"/>
<path class="bond-14 atom-13 atom-15" d="M 51.7,52.0 L 54.6,39.0" style="fill:none;fill-rule:evenodd;stroke:#FF0000;stroke-width:2.0px;stroke-linecap:butt;stroke-linejoin:miter;stroke-opacity:1"/>
<path d="M 223.0,68.0 L 222.7,69.6 L 222.0,69.8" style="fill:none;stroke:#000000;stroke-width:2.0px;stroke-linecap:butt;stroke-linejoin:miter;stroke-opacity:1;"/>
<path d="M 184.5,111.0 L 184.3,111.6 L 182.8,112.1" style="fill:none;stroke:#000000;stroke-width:2.0px;stroke-linecap:butt;stroke-linejoin:miter;stroke-opacity:1;"/>
<path d="M 129.9,100.6 L 128.7,99.4 L 127.2,99.9" style="fill:none;stroke:#000000;stroke-width:2.0px;stroke-linecap:butt;stroke-linejoin:miter;stroke-opacity:1;"/>
<path d="M 50.1,66.2 L 48.8,65.1 L 49.0,64.5" style="fill:none;stroke:#000000;stroke-width:2.0px;stroke-linecap:butt;stroke-linejoin:miter;stroke-opacity:1;"/>
<path class="atom-2" d="M 242.7 91.7 Q 242.7 89.5, 243.8 88.2 Q 244.9 87.0, 247.0 87.0 Q 249.0 87.0, 250.1 88.2 Q 251.2 89.5, 251.2 91.7 Q 251.2 94.0, 250.1 95.3 Q 249.0 96.6, 247.0 96.6 Q 244.9 96.6, 243.8 95.3 Q 242.7 94.0, 242.7 91.7 M 247.0 95.5 Q 248.4 95.5, 249.2 94.6 Q 249.9 93.6, 249.9 91.7 Q 249.9 89.9, 249.2 89.0 Q 248.4 88.0, 247.0 88.0 Q 245.6 88.0, 244.8 89.0 Q 244.0 89.9, 244.0 91.7 Q 244.0 93.6, 244.8 94.6 Q 245.6 95.5, 247.0 95.5 " fill="#FF0000"/>
<path class="atom-3" d="M 187.1 79.5 Q 187.1 77.3, 188.2 76.1 Q 189.3 74.8, 191.4 74.8 Q 193.4 74.8, 194.5 76.1 Q 195.6 77.3, 195.6 79.5 Q 195.6 81.8, 194.5 83.1 Q 193.4 84.4, 191.4 84.4 Q 189.3 84.4, 188.2 83.1 Q 187.1 81.8, 187.1 79.5 M 191.4 83.3 Q 192.8 83.3, 193.6 82.4 Q 194.3 81.4, 194.3 79.5 Q 194.3 77.7, 193.6 76.8 Q 192.8 75.9, 191.4 75.9 Q 190.0 75.9, 189.2 76.8 Q 188.4 77.7, 188.4 79.5 Q 188.4 81.4, 189.2 82.4 Q 190.0 83.3, 191.4 83.3 " fill="#FF0000"/>
<path class="atom-9" d="M 86.1 141.5 Q 86.1 139.3, 87.2 138.1 Q 88.3 136.8, 90.4 136.8 Q 92.4 136.8, 93.6 138.1 Q 94.7 139.3, 94.7 141.5 Q 94.7 143.8, 93.5 145.1 Q 92.4 146.4, 90.4 146.4 Q 88.3 146.4, 87.2 145.1 Q 86.1 143.8, 86.1 141.5 M 90.4 145.3 Q 91.8 145.3, 92.6 144.4 Q 93.3 143.4, 93.3 141.5 Q 93.3 139.7, 92.6 138.8 Q 91.8 137.9, 90.4 137.9 Q 89.0 137.9, 88.2 138.8 Q 87.4 139.7, 87.4 141.5 Q 87.4 143.4, 88.2 144.4 Q 89.0 145.3, 90.4 145.3 " fill="#FF0000"/>
<path class="atom-9" d="M 96.1 136.9 L 97.4 136.9 L 97.4 140.9 L 102.1 140.9 L 102.1 136.9 L 103.4 136.9 L 103.4 146.2 L 102.1 146.2 L 102.1 141.9 L 97.4 141.9 L 97.4 146.2 L 96.1 146.2 L 96.1 136.9 " fill="#FF0000"/>
<path class="atom-14" d="M 13.3 75.1 Q 13.3 72.9, 14.4 71.6 Q 15.5 70.4, 17.5 70.4 Q 19.6 70.4, 20.7 71.6 Q 21.8 72.9, 21.8 75.1 Q 21.8 77.4, 20.7 78.7 Q 19.6 79.9, 17.5 79.9 Q 15.5 79.9, 14.4 78.7 Q 13.3 77.4, 13.3 75.1 M 17.5 78.9 Q 18.9 78.9, 19.7 77.9 Q 20.5 77.0, 20.5 75.1 Q 20.5 73.3, 19.7 72.4 Q 18.9 71.4, 17.5 71.4 Q 16.1 71.4, 15.3 72.3 Q 14.6 73.3, 14.6 75.1 Q 14.6 77.0, 15.3 77.9 Q 16.1 78.9, 17.5 78.9 " fill="#FF0000"/>
<path class="atom-15" d="M 51.6 33.0 Q 51.6 30.8, 52.7 29.6 Q 53.8 28.3, 55.9 28.3 Q 57.9 28.3, 59.0 29.6 Q 60.1 30.8, 60.1 33.0 Q 60.1 35.3, 59.0 36.6 Q 57.9 37.9, 55.9 37.9 Q 53.8 37.9, 52.7 36.6 Q 51.6 35.3, 51.6 33.0 M 55.9 36.8 Q 57.3 36.8, 58.1 35.9 Q 58.8 34.9, 58.8 33.0 Q 58.8 31.2, 58.1 30.3 Q 57.3 29.4, 55.9 29.4 Q 54.5 29.4, 53.7 30.3 Q 52.9 31.2, 52.9 33.0 Q 52.9 34.9, 53.7 35.9 Q 54.5 36.8, 55.9 36.8 " fill="#FF0000"/>
<path class="atom-15" d="M 61.6 28.4 L 62.9 28.4 L 62.9 32.4 L 67.6 32.4 L 67.6 28.4 L 68.9 28.4 L 68.9 37.7 L 67.6 37.7 L 67.6 33.4 L 62.9 33.4 L 62.9 37.7 L 61.6 37.7 L 61.6 28.4 " fill="#FF0000"/>
<path class="legend" d="M 123.7 181.9 Q 123.7 179.6, 124.4 177.7 Q 125.1 175.8, 126.4 173.8 L 127.3 174.4 Q 126.2 176.3, 125.7 178.0 Q 125.2 179.7, 125.2 181.9 Q 125.2 184.0, 125.7 185.8 Q 126.2 187.5, 127.3 189.4 L 126.4 190.0 Q 125.1 188.0, 124.4 186.1 Q 123.7 184.2, 123.7 181.9 " fill="#000000"/>
<path class="legend" d="M 128.2 177.3 Q 128.6 176.2, 129.6 175.6 Q 130.6 175.0, 132.0 175.0 Q 133.7 175.0, 134.6 175.9 Q 135.6 176.8, 135.6 178.5 Q 135.6 180.2, 134.3 181.7 Q 133.1 183.3, 130.6 185.2 L 135.8 185.2 L 135.8 186.4 L 128.2 186.4 L 128.2 185.4 Q 130.3 183.9, 131.5 182.8 Q 132.8 181.6, 133.4 180.6 Q 134.0 179.6, 134.0 178.6 Q 134.0 177.5, 133.4 176.9 Q 132.9 176.3, 132.0 176.3 Q 131.1 176.3, 130.4 176.6 Q 129.8 177.0, 129.4 177.8 L 128.2 177.3 " fill="#000000"/>
<path class="legend" d="M 140.8 181.9 Q 140.8 184.2, 140.1 186.1 Q 139.4 188.0, 138.1 190.0 L 137.2 189.4 Q 138.3 187.5, 138.8 185.8 Q 139.3 184.0, 139.3 181.9 Q 139.3 179.7, 138.8 178.0 Q 138.3 176.3, 137.2 174.4 L 138.1 173.8 Q 139.4 175.8, 140.1 177.7 Q 140.8 179.6, 140.8 181.9 " fill="#000000"/>
</svg>
