<?xml version='1.0' encoding='ASCII' standalone='yes'?>
<svg xmlns="http://www.w3.org/2000/svg" xmlns:rdkit="http://www.rdkit.org/xml" xmlns:xlink="http://www.w3.org/1999/xlink" version="1.1" baseProfile="full" xml:space="preserve" width="265px" height="200px" viewBox="0 0 265 200">
<!-- END OF HEADER -->
<rect style="opacity:1.0;fill:#FFFFFF;stroke:none" width="265.0" height="200.0" x="0.0" y="0.0"> </rect>
<path class="bond-0 atom-0 atom-1" d="M 154.7,184.3 L 185.1,154.1" style="fill:none;fill-rule:evenodd;stroke:#000000;stroke-width:2.0px;stroke-linecap:butt;stroke-linejoin:miter;stroke-opacity:1"/>
<path class="bond-1 atom-1 atom-2" d="M 185.1,154.1 L 174.1,112.7" style="fill:none;fill-rule:evenodd;stroke:#000000;stroke-width:2.0px;stroke-linecap:butt;stroke-linejoin:miter;stroke-opacity:1"/>
<path class="bond-2 atom-2 atom-3" d="M 174.1,112.7 L 163.1,71.4" style="fill:none;fill-rule:evenodd;stroke:#000000;stroke-width:2.0px;stroke-linecap:butt;stroke-linejoin:miter;stroke-opacity:1"/>
<path class="bond-3 atom-2 atom-4" d="M 174.1,112.7 L 215.5,101.7" style="fill:none;fill-rule:evenodd;stroke:#000000;stroke-width:2.0px;stroke-linecap:butt;stroke-linejoin:miter;stroke-opacity:1"/>
<path class="bond-4 atom-4 atom-5" d="M 211.9,102.7 L 224.2,115.0" style="fill:none;fill-rule:evenodd;stroke:#000000;stroke-width:2.0px;stroke-linecap:butt;stroke-linejoin:miter;stroke-opacity:1"/>
<path class="bond-4 atom-4 atom-5" d="M 224.2,115.0 L 236.4,127.3" style="fill:none;fill-rule:evenodd;stroke:#FF0000;stroke-width:2.0px;stroke-linecap:butt;stroke-linejoin:miter;stroke-opacity:1"/>
<path class="bond-4 atom-4 atom-5" d="M 216.4,98.2 L 228.7,110.5" style="fill:none;fill-rule:evenodd;stroke:#000000;stroke-width:2.0px;stroke-linecap:butt;stroke-linejoin:miter;stroke-opacity:1"/>
<path class="bond-4 atom-4 atom-5" d="M 228.7,110.5 L 241.0,122.8" style="fill:none;fill-rule:evenodd;stroke:#FF0000;stroke-width:2.0px;stroke-linecap:butt;stroke-linejoin:miter;stroke-opacity:1"/>
<path class="bond-5 atom-4 atom-6" d="M 215.5,101.7 L 220.0,84.9" style="fill:none;fill-rule:evenodd;stroke:#000000;stroke-width:2.0px;stroke-linecap:butt;stroke-linejoin:miter;stroke-opacity:1"/>
<path class="bond-5 atom-4 atom-6" d="M 220.0,84.9 L 224.5,68.1" style="fill:none;fill-rule:evenodd;stroke:#FF0000;stroke-width:2.0px;stroke-linecap:butt;stroke-linejoin:miter;stroke-opacity:1"/>
<path class="bond-6 atom-2 atom-7" d="M 174.1,112.7 L 132.7,123.7" style="fill:none;fill-rule:evenodd;stroke:#000000;stroke-width:2.0px;stroke-linecap:butt;stroke-linejoin:miter;stroke-opacity:1"/>
<path class="bond-7 atom-7 atom-8" d="M 132.7,123.7 L 121.5,165.1" style="fill:none;fill-rule:evenodd;stroke:#000000;stroke-width:2.0px;stroke-linecap:butt;stroke-linejoin:miter;stroke-opacity:1"/>
<path class="bond-8 atom-7 atom-9" d="M 132.7,123.7 L 102.5,93.4" style="fill:none;fill-rule:evenodd;stroke:#000000;stroke-width:2.0px;stroke-linecap:butt;stroke-linejoin:miter;stroke-opacity:1"/>
<path class="bond-9 atom-9 atom-10" d="M 102.5,93.4 L 72.3,63.1" style="fill:none;fill-rule:evenodd;stroke:#000000;stroke-width:2.0px;stroke-linecap:butt;stroke-linejoin:miter;stroke-opacity:1"/>
<path class="bond-10 atom-9 atom-11" d="M 102.5,93.4 L 132.8,63.2" style="fill:none;fill-rule:evenodd;stroke:#000000;stroke-width:2.0px;stroke-linecap:butt;stroke-linejoin:miter;stroke-opacity:1"/>
<path class="bond-11 atom-11 atom-12" d="M 132.8,63.2 L 128.3,46.4" style="fill:none;fill-rule:evenodd;stroke:#000000;stroke-width:2.0px;stroke-linecap:butt;stroke-linejoin:miter;stroke-opacity:1"/>
<path class="bond-11 atom-11 atom-12" d="M 128.3,46.4 L 123.9,29.5" style="fill:none;fill-rule:evenodd;stroke:#FF0000;stroke-width:2.0px;stroke-linecap:butt;stroke-linejoin:miter;stroke-opacity:1"/>
<path class="bond-12 atom-9 atom-13" d="M 102.5,93.4 L 72.1,123.6" style="fill:none;fill-rule:evenodd;stroke:#000000;stroke-width:2.0px;stroke-linecap:butt;stroke-linejoin:miter;stroke-opacity:1"/>
<path class="bond-13 atom-13 atom-14" d="M 68.6,122.7 L 73.3,140.5" style="fill:none;fill-rule:evenodd;stroke:#000000;stroke-width:2.0px;stroke-linecap:butt;stroke-linejoin:miter;stroke-opacity:1"/>
<path class="bond-13 atom-13 atom-14" d="M 73.3,140.5 L 78.0,158.3" style="fill:none;fill-rule:evenodd;stroke:#FF0000;stroke-width:2.0px;stroke-linecap:butt;stroke-linejoin:miter;stroke-opacity:1"/>
<path class="bond-13 atom-13 atom-14" d="M 74.8,121.0 L 79.5,138.8" style="fill:none;fill-rule:evenodd;stroke:#000000;stroke-width:2.0px;stroke-linecap:butt;stroke-linejoin:miter;stroke-opacity:1"/>
<path class="bond-13 atom-13 atom-14" d="M 79.5,138.8 L 84.2,156.6" style="fill:none;fill-rule:evenodd;stroke:#FF0000;stroke-width:2.0px;stroke-linecap:butt;stroke-linejoin:miter;stroke-opacity:1"/>
<path class="bond-14 atom-13 atom-15" d="M 72.1,123.6 L 55.0,119.0" style="fill:none;fill-rule:evenodd;stroke:#000000;stroke-width:2.0px;stroke-linecap:butt;stroke-linejoin:miter;stroke-opacity:1"/>
<path class="bond-14 atom-13 atom-15" d="M 55.0,119.0 L 37.8,114.3" style="fill:none;fill-rule:evenodd;stroke:#FF0000;stroke-width:2.0px;stroke-linecap:butt;stroke-linejoin:miter;stroke-opacity:1"/>
<path d="M 183.6,155.6 L 185.1,154.1 L 184.5,152.1" style="fill:none;stroke:#000000;stroke-width:2.0px;stroke-linecap:butt;stroke-linejoin:miter;stroke-opacity:1;"/>
<path d="M 213.4,102.3 L 215.5,101.7 L 215.7,100.9" style="fill:none;stroke:#000000;stroke-width:2.0px;stroke-linecap:butt;stroke-linejoin:miter;stroke-opacity:1;"/>
<path d="M 131.3,64.7 L 132.8,63.2 L 132.6,62.3" style="fill:none;stroke:#000000;stroke-width:2.0px;stroke-linecap:butt;stroke-linejoin:miter;stroke-opacity:1;"/>
<path d="M 73.7,122.1 L 72.1,123.6 L 71.3,123.4" style="fill:none;stroke:#000000;stroke-width:2.0px;stroke-linecap:butt;stroke-linejoin:miter;stroke-opacity:1;"/>
<path class="atom-5" d="M 240.1 132.1 Q 240.1 129.2, 241.6 127.6 Q 243.0 125.9, 245.7 125.9 Q 248.4 125.9, 249.8 127.6 Q 251.2 129.2, 251.2 132.1 Q 251.2 135.1, 249.8 136.7 Q 248.3 138.4, 245.7 138.4 Q 243.0 138.4, 241.6 136.7 Q 240.1 135.1, 240.1 132.1 M 245.7 137.0 Q 247.5 137.0, 248.5 135.8 Q 249.5 134.5, 249.5 132.1 Q 249.5 129.7, 248.5 128.5 Q 247.5 127.3, 245.7 127.3 Q 243.8 127.3, 242.8 128.5 Q 241.8 129.7, 241.8 132.1 Q 241.8 134.6, 242.8 135.8 Q 243.8 137.0, 245.7 137.0 " fill="#FF0000"/>
<path class="atom-6" d="M 221.1 60.4 Q 221.1 57.5, 222.5 55.9 Q 223.9 54.3, 226.6 54.3 Q 229.3 54.3, 230.8 55.9 Q 232.2 57.5, 232.2 60.4 Q 232.2 63.4, 230.7 65.1 Q 229.3 66.7, 226.6 66.7 Q 224.0 66.7, 222.5 65.1 Q 221.1 63.4, 221.1 60.4 M 226.6 65.3 Q 228.5 65.3, 229.5 64.1 Q 230.5 62.9, 230.5 60.4 Q 230.5 58.0, 229.5 56.8 Q 228.5 55.6, 226.6 55.6 Q 224.8 55.6, 223.8 56.8 Q 222.8 58.0, 222.8 60.4 Q 222.8 62.9, 223.8 64.1 Q 224.8 65.3, 226.6 65.3 " fill="#FF0000"/>
<path class="atom-6" d="M 234.1 54.4 L 235.7 54.4 L 235.7 59.6 L 241.9 59.6 L 241.9 54.4 L 243.6 54.4 L 243.6 66.5 L 241.9 66.5 L 241.9 60.9 L 235.7 60.9 L 235.7 66.5 L 234.1 66.5 L 234.1 54.4 " fill="#FF0000"/>
<path class="atom-12" d="M 116.2 21.8 Q 116.2 18.9, 117.7 17.3 Q 119.1 15.7, 121.8 15.7 Q 124.5 15.7, 125.9 17.3 Q 127.4 18.9, 127.4 21.8 Q 127.4 24.8, 125.9 26.5 Q 124.5 28.1, 121.8 28.1 Q 119.1 28.1, 117.7 26.5 Q 116.2 24.8, 116.2 21.8 M 121.8 26.7 Q 123.7 26.7, 124.7 25.5 Q 125.7 24.3, 125.7 21.8 Q 125.7 19.4, 124.7 18.2 Q 123.7 17.0, 121.8 17.0 Q 120.0 17.0, 119.0 18.2 Q 118.0 19.4, 118.0 21.8 Q 118.0 24.3, 119.0 25.5 Q 120.0 26.7, 121.8 26.7 " fill="#FF0000"/>
<path class="atom-12" d="M 129.3 15.8 L 130.9 15.8 L 130.9 21.0 L 137.1 21.0 L 137.1 15.8 L 138.8 15.8 L 138.8 27.9 L 137.1 27.9 L 137.1 22.3 L 130.9 22.3 L 130.9 27.9 L 129.3 27.9 L 129.3 15.8 " fill="#FF0000"/>
<path class="atom-14" d="M 77.6 165.0 Q 77.6 162.1, 79.0 160.5 Q 80.4 158.9, 83.1 158.9 Q 85.8 158.9, 87.3 160.5 Q 88.7 162.1, 88.7 165.0 Q 88.7 168.0, 87.2 169.7 Q 85.8 171.3, 83.1 171.3 Q 80.5 171.3, 79.0 169.7 Q 77.6 168.0, 77.6 165.0 M 83.1 170.0 Q 85.0 170.0, 86.0 168.7 Q 87.0 167.5, 87.0 165.0 Q 87.0 162.7, 86.0 161.5 Q 85.0 160.2, 83.1 160.2 Q 81.3 160.2, 80.3 161.4 Q 79.3 162.6, 79.3 165.0 Q 79.3 167.5, 80.3 168.7 Q 81.3 170.0, 83.1 170.0 " fill="#FF0000"/>
<path class="atom-15" d="M 13.2 106.5 L 14.9 106.5 L 14.9 111.6 L 21.1 111.6 L 21.1 106.5 L 22.7 106.5 L 22.7 118.6 L 21.1 118.6 L 21.1 113.0 L 14.9 113.0 L 14.9 118.6 L 13.2 118.6 L 13.2 106.5 " fill="#FF0000"/>
<path class="atom-15" d="M 25.2 112.5 Q 25.2 109.6, 26.7 107.9 Q 28.1 106.3, 30.8 106.3 Q 33.5 106.3, 34.9 107.9 Q 36.4 109.6, 36.4 112.5 Q 36.4 115.4, 34.9 117.1 Q 33.4 118.8, 30.8 118.8 Q 28.1 118.8, 26.7 117.1 Q 25.2 115.5, 25.2 112.5 M 30.8 117.4 Q 32.6 117.4, 33.6 116.2 Q 34.6 114.9, 34.6 112.5 Q 34.6 110.1, 33.6 108.9 Q 32.6 107.7, 30.8 107.7 Q 28.9 107.7, 27.9 108.9 Q 26.9 110.1, 26.9 112.5 Q 26.9 114.9, 27.9 116.2 Q 28.9 117.4, 30.8 117.4 " fill="#FF0000"/>
</svg>
