<?xml version='1.0' encoding='ASCII' standalone='yes'?>
<svg xmlns="http://www.w3.org/2000/svg" xmlns:rdkit="http://www.rdkit.org/xml" xmlns:xlink="http://www.w3.org/1999/xlink" version="1.1" baseProfile="full" xml:space="preserve" width="280px" height="200px" viewBox="0 0 280 200">
<!-- END OF HEADER -->
<rect style="opacity:1.0;fill:#FFFFFF;stroke:none" width="280.0" height="200.0" x="0.0" y="0.0"> </rect>
<path class="bond-0 atom-0 atom-1" d="M 24.2,116.4 L 36.8,91.1" style="fill:none;fill-rule:evenodd;stroke:#000000;stroke-width:2.0px;stroke-linecap:butt;stroke-linejoin:miter;stroke-opacity:1"/>
<path class="bond-1 atom-1 atom-2" d="M 36.8,91.1 L 14.0,64.6" style="fill:none;fill-rule:evenodd;stroke:#000000;stroke-width:2.0px;stroke-linecap:butt;stroke-linejoin:miter;stroke-opacity:1"/>
<path class="bond-2 atom-2 atom-3" d="M 14.0,64.6 L 18.7,51.3" style="fill:none;fill-rule:evenodd;stroke:#000000;stroke-width:2.0px;stroke-linecap:butt;stroke-linejoin:miter;stroke-opacity:1"/>
<path class="bond-2 atom-2 atom-3" d="M 18.7,51.3 L 23.4,37.9" style="fill:none;fill-rule:evenodd;stroke:#FF0000;stroke-width:2.0px;stroke-linecap:butt;stroke-linejoin:miter;stroke-opacity:1"/>
<path class="bond-3 atom-1 atom-4" d="M 36.8,91.1 L 71.1,84.6" style="fill:none;fill-rule:evenodd;stroke:#000000;stroke-width:2.0px;stroke-linecap:butt;stroke-linejoin:miter;stroke-opacity:1"/>
<path class="bond-4 atom-4 atom-5" d="M 71.1,84.6 L 93.8,111.1" style="fill:none;fill-rule:evenodd;stroke:#000000;stroke-width:2.0px;stroke-linecap:butt;stroke-linejoin:miter;stroke-opacity:1"/>
<path class="bond-5 atom-5 atom-6" d="M 93.8,111.1 L 116.6,137.6" style="fill:none;fill-rule:evenodd;stroke:#000000;stroke-width:2.0px;stroke-linecap:butt;stroke-linejoin:miter;stroke-opacity:1"/>
<path class="bond-6 atom-5 atom-7" d="M 93.8,111.1 L 67.4,133.9" style="fill:none;fill-rule:evenodd;stroke:#000000;stroke-width:2.0px;stroke-linecap:butt;stroke-linejoin:miter;stroke-opacity:1"/>
<path class="bond-7 atom-7 atom-8" d="M 69.8,131.8 L 57.9,129.2" style="fill:none;fill-rule:evenodd;stroke:#000000;stroke-width:2.0px;stroke-linecap:butt;stroke-linejoin:miter;stroke-opacity:1"/>
<path class="bond-7 atom-7 atom-8" d="M 57.9,129.2 L 45.9,126.6" style="fill:none;fill-rule:evenodd;stroke:#FF0000;stroke-width:2.0px;stroke-linecap:butt;stroke-linejoin:miter;stroke-opacity:1"/>
<path class="bond-7 atom-7 atom-8" d="M 67.9,136.6 L 56.8,134.2" style="fill:none;fill-rule:evenodd;stroke:#000000;stroke-width:2.0px;stroke-linecap:butt;stroke-linejoin:miter;stroke-opacity:1"/>
<path class="bond-7 atom-7 atom-8" d="M 56.8,134.2 L 44.8,131.6" style="fill:none;fill-rule:evenodd;stroke:#FF0000;stroke-width:2.0px;stroke-linecap:butt;stroke-linejoin:miter;stroke-opacity:1"/>
<path class="bond-8 atom-7 atom-9" d="M 67.4,133.9 L 70.0,148.0" style="fill:none;fill-rule:evenodd;stroke:#000000;stroke-width:2.0px;stroke-linecap:butt;stroke-linejoin:miter;stroke-opacity:1"/>
<path class="bond-8 atom-7 atom-9" d="M 70.0,148.0 L 72.7,162.1" style="fill:none;fill-rule:evenodd;stroke:#FF0000;stroke-width:2.0px;stroke-linecap:butt;stroke-linejoin:miter;stroke-opacity:1"/>
<path class="bond-9 atom-5 atom-10" d="M 93.8,111.1 L 120.3,88.4" style="fill:none;fill-rule:evenodd;stroke:#000000;stroke-width:2.0px;stroke-linecap:butt;stroke-linejoin:miter;stroke-opacity:1"/>
<path class="bond-10 atom-10 atom-11" d="M 120.3,88.4 L 113.9,54.0" style="fill:none;fill-rule:evenodd;stroke:#000000;stroke-width:2.0px;stroke-linecap:butt;stroke-linejoin:miter;stroke-opacity:1"/>
<path class="bond-11 atom-10 atom-12" d="M 120.3,88.4 L 134.0,93.2" style="fill:none;fill-rule:evenodd;stroke:#000000;stroke-width:2.0px;stroke-linecap:butt;stroke-linejoin:miter;stroke-opacity:1"/>
<path class="bond-11 atom-10 atom-12" d="M 134.0,93.2 L 147.6,97.9" style="fill:none;fill-rule:evenodd;stroke:#FF0000;stroke-width:2.0px;stroke-linecap:butt;stroke-linejoin:miter;stroke-opacity:1"/>
<path class="bond-12 atom-12 atom-13" d="M 159.0,95.1 L 169.4,86.1" style="fill:none;fill-rule:evenodd;stroke:#FF0000;stroke-width:2.0px;stroke-linecap:butt;stroke-linejoin:miter;stroke-opacity:1"/>
<path class="bond-12 atom-12 atom-13" d="M 169.4,86.1 L 179.8,77.2" style="fill:none;fill-rule:evenodd;stroke:#000000;stroke-width:2.0px;stroke-linecap:butt;stroke-linejoin:miter;stroke-opacity:1"/>
<path class="bond-13 atom-13 atom-14" d="M 179.8,77.2 L 177.2,63.1" style="fill:none;fill-rule:evenodd;stroke:#000000;stroke-width:2.0px;stroke-linecap:butt;stroke-linejoin:miter;stroke-opacity:1"/>
<path class="bond-13 atom-13 atom-14" d="M 177.2,63.1 L 174.5,49.1" style="fill:none;fill-rule:evenodd;stroke:#FF0000;stroke-width:2.0px;stroke-linecap:butt;stroke-linejoin:miter;stroke-opacity:1"/>
<path class="bond-14 atom-13 atom-15" d="M 179.8,77.2 L 212.8,88.7" style="fill:none;fill-rule:evenodd;stroke:#000000;stroke-width:2.0px;stroke-linecap:butt;stroke-linejoin:miter;stroke-opacity:1"/>
<path class="bond-15 atom-15 atom-16" d="M 212.8,88.7 L 239.3,66.0" style="fill:none;fill-rule:evenodd;stroke:#000000;stroke-width:2.0px;stroke-linecap:butt;stroke-linejoin:miter;stroke-opacity:1"/>
<path class="bond-16 atom-15 atom-17" d="M 212.8,88.7 L 219.2,123.1" style="fill:none;fill-rule:evenodd;stroke:#000000;stroke-width:2.0px;stroke-linecap:butt;stroke-linejoin:miter;stroke-opacity:1"/>
<path class="bond-17 atom-17 atom-18" d="M 219.2,123.1 L 232.9,127.8" style="fill:none;fill-rule:evenodd;stroke:#000000;stroke-width:2.0px;stroke-linecap:butt;stroke-linejoin:miter;stroke-opacity:1"/>
<path class="bond-17 atom-17 atom-18" d="M 232.9,127.8 L 246.5,132.6" style="fill:none;fill-rule:evenodd;stroke:#FF0000;stroke-width:2.0px;stroke-linecap:butt;stroke-linejoin:miter;stroke-opacity:1"/>
<path d="M 15.1,65.9 L 14.0,64.6 L 14.2,63.9" style="fill:none;stroke:#000000;stroke-width:2.0px;stroke-linecap:butt;stroke-linejoin:miter;stroke-opacity:1;"/>
<path d="M 69.4,85.0 L 71.1,84.6 L 72.2,86.0" style="fill:none;stroke:#000000;stroke-width:2.0px;stroke-linecap:butt;stroke-linejoin:miter;stroke-opacity:1;"/>
<path d="M 68.7,132.7 L 67.4,133.9 L 67.5,134.6" style="fill:none;stroke:#000000;stroke-width:2.0px;stroke-linecap:butt;stroke-linejoin:miter;stroke-opacity:1;"/>
<path d="M 218.9,121.3 L 219.2,123.1 L 219.9,123.3" style="fill:none;stroke:#000000;stroke-width:2.0px;stroke-linecap:butt;stroke-linejoin:miter;stroke-opacity:1;"/>
<path class="atom-3" d="M 21.0 31.7 Q 21.0 29.3, 22.2 28.0 Q 23.4 26.6, 25.6 26.6 Q 27.8 26.6, 28.9 28.0 Q 30.1 29.3, 30.1 31.7 Q 30.1 34.1, 28.9 35.4 Q 27.7 36.8, 25.6 36.8 Q 23.4 36.8, 22.2 35.4 Q 21.0 34.1, 21.0 31.7 M 25.6 35.7 Q 27.1 35.7, 27.9 34.7 Q 28.7 33.6, 28.7 31.7 Q 28.7 29.7, 27.9 28.7 Q 27.1 27.8, 25.6 27.8 Q 24.1 27.8, 23.2 28.7 Q 22.4 29.7, 22.4 31.7 Q 22.4 33.7, 23.2 34.7 Q 24.1 35.7, 25.6 35.7 " fill="#FF0000"/>
<path class="atom-3" d="M 31.6 26.7 L 33.0 26.7 L 33.0 31.0 L 38.0 31.0 L 38.0 26.7 L 39.4 26.7 L 39.4 36.6 L 38.0 36.6 L 38.0 32.1 L 33.0 32.1 L 33.0 36.6 L 31.6 36.6 L 31.6 26.7 " fill="#FF0000"/>
<path class="atom-8" d="M 35.2 127.9 Q 35.2 125.5, 36.3 124.2 Q 37.5 122.8, 39.7 122.8 Q 41.9 122.8, 43.1 124.2 Q 44.3 125.5, 44.3 127.9 Q 44.3 130.3, 43.1 131.6 Q 41.9 133.0, 39.7 133.0 Q 37.5 133.0, 36.3 131.6 Q 35.2 130.3, 35.2 127.9 M 39.7 131.9 Q 41.2 131.9, 42.0 130.9 Q 42.9 129.9, 42.9 127.9 Q 42.9 125.9, 42.0 124.9 Q 41.2 124.0, 39.7 124.0 Q 38.2 124.0, 37.4 124.9 Q 36.6 125.9, 36.6 127.9 Q 36.6 129.9, 37.4 130.9 Q 38.2 131.9, 39.7 131.9 " fill="#FF0000"/>
<path class="atom-9" d="M 69.3 168.2 Q 69.3 165.9, 70.4 164.5 Q 71.6 163.2, 73.8 163.2 Q 76.0 163.2, 77.2 164.5 Q 78.4 165.9, 78.4 168.2 Q 78.4 170.6, 77.2 172.0 Q 76.0 173.4, 73.8 173.4 Q 71.6 173.4, 70.4 172.0 Q 69.3 170.7, 69.3 168.2 M 73.8 172.2 Q 75.3 172.2, 76.1 171.2 Q 77.0 170.2, 77.0 168.2 Q 77.0 166.3, 76.1 165.3 Q 75.3 164.3, 73.8 164.3 Q 72.3 164.3, 71.5 165.3 Q 70.7 166.3, 70.7 168.2 Q 70.7 170.2, 71.5 171.2 Q 72.3 172.2, 73.8 172.2 " fill="#FF0000"/>
<path class="atom-9" d="M 79.9 163.3 L 81.2 163.3 L 81.2 167.5 L 86.3 167.5 L 86.3 163.3 L 87.6 163.3 L 87.6 173.2 L 86.3 173.2 L 86.3 168.6 L 81.2 168.6 L 81.2 173.2 L 79.9 173.2 L 79.9 163.3 " fill="#FF0000"/>
<path class="atom-12" d="M 148.8 100.0 Q 148.8 97.6, 149.9 96.3 Q 151.1 94.9, 153.3 94.9 Q 155.5 94.9, 156.7 96.3 Q 157.8 97.6, 157.8 100.0 Q 157.8 102.4, 156.7 103.7 Q 155.5 105.1, 153.3 105.1 Q 151.1 105.1, 149.9 103.7 Q 148.8 102.4, 148.8 100.0 M 153.3 104.0 Q 154.8 104.0, 155.6 103.0 Q 156.4 101.9, 156.4 100.0 Q 156.4 98.0, 155.6 97.0 Q 154.8 96.0, 153.3 96.0 Q 151.8 96.0, 151.0 97.0 Q 150.2 98.0, 150.2 100.0 Q 150.2 102.0, 151.0 103.0 Q 151.8 104.0, 153.3 104.0 " fill="#FF0000"/>
<path class="atom-14" d="M 168.8 42.9 Q 168.8 40.5, 170.0 39.2 Q 171.1 37.8, 173.3 37.8 Q 175.5 37.8, 176.7 39.2 Q 177.9 40.5, 177.9 42.9 Q 177.9 45.3, 176.7 46.6 Q 175.5 48.0, 173.3 48.0 Q 171.2 48.0, 170.0 46.6 Q 168.8 45.3, 168.8 42.9 M 173.3 46.9 Q 174.8 46.9, 175.7 45.9 Q 176.5 44.9, 176.5 42.9 Q 176.5 40.9, 175.7 39.9 Q 174.8 39.0, 173.3 39.0 Q 171.8 39.0, 171.0 39.9 Q 170.2 40.9, 170.2 42.9 Q 170.2 44.9, 171.0 45.9 Q 171.8 46.9, 173.3 46.9 " fill="#FF0000"/>
<path class="atom-14" d="M 179.4 38.0 L 180.8 38.0 L 180.8 42.2 L 185.8 42.2 L 185.8 38.0 L 187.2 38.0 L 187.2 47.8 L 185.8 47.8 L 185.8 43.3 L 180.8 43.3 L 180.8 47.8 L 179.4 47.8 L 179.4 38.0 " fill="#FF0000"/>
<path class="atom-18" d="M 247.6 134.7 Q 247.6 132.3, 248.8 131.0 Q 250.0 129.6, 252.2 129.6 Q 254.4 129.6, 255.5 131.0 Q 256.7 132.3, 256.7 134.7 Q 256.7 137.1, 255.5 138.4 Q 254.3 139.8, 252.2 139.8 Q 250.0 139.8, 248.8 138.4 Q 247.6 137.1, 247.6 134.7 M 252.2 138.7 Q 253.7 138.7, 254.5 137.7 Q 255.3 136.6, 255.3 134.7 Q 255.3 132.7, 254.5 131.7 Q 253.7 130.7, 252.2 130.7 Q 250.7 130.7, 249.8 131.7 Q 249.0 132.7, 249.0 134.7 Q 249.0 136.7, 249.8 137.7 Q 250.7 138.7, 252.2 138.7 " fill="#FF0000"/>
<path class="atom-18" d="M 258.3 129.7 L 259.6 129.7 L 259.6 133.9 L 264.7 133.9 L 264.7 129.7 L 266.0 129.7 L 266.0 139.6 L 264.7 139.6 L 264.7 135.1 L 259.6 135.1 L 259.6 139.6 L 258.3 139.6 L 258.3 129.7 " fill="#FF0000"/>
</svg>
