<?xml version='1.0' encoding='ASCII' standalone='yes'?>
<svg xmlns="http://www.w3.org/2000/svg" xmlns:rdkit="http://www.rdkit.org/xml" xmlns:xlink="http://www.w3.org/1999/xlink" version="1.1" baseProfile="full" xml:space="preserve" width="289px" height="200px" viewBox="0 0 289 200">
<!-- END OF HEADER -->
<rect style="opacity:1.0;fill:#FFFFFF;stroke:none" width="289.0" height="200.0" x="0.0" y="0.0"> </rect>
<path class="bond-0 atom-0 atom-1" d="M 22.3,39.6 L 43.7,68.7" style="fill:none;fill-rule:evenodd;stroke:#000000;stroke-width:2.0px;stroke-linecap:butt;stroke-linejoin:miter;stroke-opacity:1"/>
<path class="bond-1 atom-1 atom-2" d="M 43.7,68.7 L 37.8,82.0" style="fill:none;fill-rule:evenodd;stroke:#000000;stroke-width:2.0px;stroke-linecap:butt;stroke-linejoin:miter;stroke-opacity:1"/>
<path class="bond-1 atom-1 atom-2" d="M 37.8,82.0 L 32.0,95.4" style="fill:none;fill-rule:evenodd;stroke:#FF0000;stroke-width:2.0px;stroke-linecap:butt;stroke-linejoin:miter;stroke-opacity:1"/>
<path class="bond-2 atom-1 atom-3" d="M 43.7,68.7 L 79.5,64.7" style="fill:none;fill-rule:evenodd;stroke:#000000;stroke-width:2.0px;stroke-linecap:butt;stroke-linejoin:miter;stroke-opacity:1"/>
<path class="bond-3 atom-3 atom-4" d="M 79.5,64.7 L 75.5,28.8" style="fill:none;fill-rule:evenodd;stroke:#000000;stroke-width:2.0px;stroke-linecap:butt;stroke-linejoin:miter;stroke-opacity:1"/>
<path class="bond-4 atom-3 atom-5" d="M 79.5,64.7 L 83.5,100.5" style="fill:none;fill-rule:evenodd;stroke:#000000;stroke-width:2.0px;stroke-linecap:butt;stroke-linejoin:miter;stroke-opacity:1"/>
<path class="bond-5 atom-5 atom-6" d="M 83.5,100.5 L 116.6,115.0" style="fill:none;fill-rule:evenodd;stroke:#000000;stroke-width:2.0px;stroke-linecap:butt;stroke-linejoin:miter;stroke-opacity:1"/>
<path class="bond-6 atom-6 atom-7" d="M 116.6,115.0 L 145.6,93.6" style="fill:none;fill-rule:evenodd;stroke:#000000;stroke-width:2.0px;stroke-linecap:butt;stroke-linejoin:miter;stroke-opacity:1"/>
<path class="bond-7 atom-7 atom-8" d="M 145.6,93.6 L 178.6,108.1" style="fill:none;fill-rule:evenodd;stroke:#000000;stroke-width:2.0px;stroke-linecap:butt;stroke-linejoin:miter;stroke-opacity:1"/>
<path class="bond-8 atom-8 atom-9" d="M 178.6,108.1 L 207.7,86.7" style="fill:none;fill-rule:evenodd;stroke:#000000;stroke-width:2.0px;stroke-linecap:butt;stroke-linejoin:miter;stroke-opacity:1"/>
<path class="bond-9 atom-9 atom-10" d="M 207.7,86.7 L 186.3,57.6" style="fill:none;fill-rule:evenodd;stroke:#000000;stroke-width:2.0px;stroke-linecap:butt;stroke-linejoin:miter;stroke-opacity:1"/>
<path class="bond-10 atom-9 atom-11" d="M 207.7,86.7 L 229.1,115.7" style="fill:none;fill-rule:evenodd;stroke:#000000;stroke-width:2.0px;stroke-linecap:butt;stroke-linejoin:miter;stroke-opacity:1"/>
<path class="bond-11 atom-9 atom-12" d="M 207.7,86.7 L 236.7,65.3" style="fill:none;fill-rule:evenodd;stroke:#000000;stroke-width:2.0px;stroke-linecap:butt;stroke-linejoin:miter;stroke-opacity:1"/>
<path class="bond-12 atom-12 atom-13" d="M 234.3,67.1 L 248.5,73.4" style="fill:none;fill-rule:evenodd;stroke:#000000;stroke-width:2.0px;stroke-linecap:butt;stroke-linejoin:miter;stroke-opacity:1"/>
<path class="bond-12 atom-12 atom-13" d="M 248.5,73.4 L 262.8,79.6" style="fill:none;fill-rule:evenodd;stroke:#FF0000;stroke-width:2.0px;stroke-linecap:butt;stroke-linejoin:miter;stroke-opacity:1"/>
<path class="bond-12 atom-12 atom-13" d="M 236.4,62.2 L 250.7,68.5" style="fill:none;fill-rule:evenodd;stroke:#000000;stroke-width:2.0px;stroke-linecap:butt;stroke-linejoin:miter;stroke-opacity:1"/>
<path class="bond-12 atom-12 atom-13" d="M 250.7,68.5 L 265.0,74.7" style="fill:none;fill-rule:evenodd;stroke:#FF0000;stroke-width:2.0px;stroke-linecap:butt;stroke-linejoin:miter;stroke-opacity:1"/>
<path class="bond-13 atom-12 atom-14" d="M 236.7,65.3 L 235.1,50.6" style="fill:none;fill-rule:evenodd;stroke:#000000;stroke-width:2.0px;stroke-linecap:butt;stroke-linejoin:miter;stroke-opacity:1"/>
<path class="bond-13 atom-12 atom-14" d="M 235.1,50.6 L 233.4,35.9" style="fill:none;fill-rule:evenodd;stroke:#FF0000;stroke-width:2.0px;stroke-linecap:butt;stroke-linejoin:miter;stroke-opacity:1"/>
<path class="bond-14 atom-6 atom-15" d="M 116.6,115.0 L 120.6,150.8" style="fill:none;fill-rule:evenodd;stroke:#000000;stroke-width:2.0px;stroke-linecap:butt;stroke-linejoin:miter;stroke-opacity:1"/>
<path class="bond-15 atom-15 atom-16" d="M 120.2,147.8 L 108.0,156.8" style="fill:none;fill-rule:evenodd;stroke:#000000;stroke-width:2.0px;stroke-linecap:butt;stroke-linejoin:miter;stroke-opacity:1"/>
<path class="bond-15 atom-15 atom-16" d="M 108.0,156.8 L 95.8,165.7" style="fill:none;fill-rule:evenodd;stroke:#FF0000;stroke-width:2.0px;stroke-linecap:butt;stroke-linejoin:miter;stroke-opacity:1"/>
<path class="bond-15 atom-15 atom-16" d="M 123.4,152.0 L 111.2,161.0" style="fill:none;fill-rule:evenodd;stroke:#000000;stroke-width:2.0px;stroke-linecap:butt;stroke-linejoin:miter;stroke-opacity:1"/>
<path class="bond-15 atom-15 atom-16" d="M 111.2,161.0 L 99.0,170.0" style="fill:none;fill-rule:evenodd;stroke:#FF0000;stroke-width:2.0px;stroke-linecap:butt;stroke-linejoin:miter;stroke-opacity:1"/>
<path class="bond-16 atom-15 atom-17" d="M 120.6,150.8 L 134.2,156.8" style="fill:none;fill-rule:evenodd;stroke:#000000;stroke-width:2.0px;stroke-linecap:butt;stroke-linejoin:miter;stroke-opacity:1"/>
<path class="bond-16 atom-15 atom-17" d="M 134.2,156.8 L 147.7,162.7" style="fill:none;fill-rule:evenodd;stroke:#FF0000;stroke-width:2.0px;stroke-linecap:butt;stroke-linejoin:miter;stroke-opacity:1"/>
<path class="bond-17 atom-3 atom-18" d="M 79.5,64.7 L 115.4,60.7" style="fill:none;fill-rule:evenodd;stroke:#000000;stroke-width:2.0px;stroke-linecap:butt;stroke-linejoin:miter;stroke-opacity:1"/>
<path class="bond-18 atom-18 atom-19" d="M 117.5,62.4 L 123.5,48.8" style="fill:none;fill-rule:evenodd;stroke:#000000;stroke-width:2.0px;stroke-linecap:butt;stroke-linejoin:miter;stroke-opacity:1"/>
<path class="bond-18 atom-18 atom-19" d="M 123.5,48.8 L 129.4,35.2" style="fill:none;fill-rule:evenodd;stroke:#FF0000;stroke-width:2.0px;stroke-linecap:butt;stroke-linejoin:miter;stroke-opacity:1"/>
<path class="bond-18 atom-18 atom-19" d="M 112.3,61.0 L 118.6,46.7" style="fill:none;fill-rule:evenodd;stroke:#000000;stroke-width:2.0px;stroke-linecap:butt;stroke-linejoin:miter;stroke-opacity:1"/>
<path class="bond-18 atom-18 atom-19" d="M 118.6,46.7 L 124.5,33.1" style="fill:none;fill-rule:evenodd;stroke:#FF0000;stroke-width:2.0px;stroke-linecap:butt;stroke-linejoin:miter;stroke-opacity:1"/>
<path class="bond-19 atom-18 atom-20" d="M 115.4,60.7 L 121.5,65.8" style="fill:none;fill-rule:evenodd;stroke:#000000;stroke-width:2.0px;stroke-linecap:butt;stroke-linejoin:miter;stroke-opacity:1"/>
<path class="bond-19 atom-18 atom-20" d="M 121.5,65.8 L 127.7,70.9" style="fill:none;fill-rule:evenodd;stroke:#FF0000;stroke-width:2.0px;stroke-linecap:butt;stroke-linejoin:miter;stroke-opacity:1"/>
<path d="M 83.3,98.7 L 83.5,100.5 L 85.2,101.2" style="fill:none;stroke:#000000;stroke-width:2.0px;stroke-linecap:butt;stroke-linejoin:miter;stroke-opacity:1;"/>
<path d="M 144.2,94.7 L 145.6,93.6 L 147.3,94.3" style="fill:none;stroke:#000000;stroke-width:2.0px;stroke-linecap:butt;stroke-linejoin:miter;stroke-opacity:1;"/>
<path d="M 177.0,107.3 L 178.6,108.1 L 180.1,107.0" style="fill:none;stroke:#000000;stroke-width:2.0px;stroke-linecap:butt;stroke-linejoin:miter;stroke-opacity:1;"/>
<path d="M 235.3,66.4 L 236.7,65.3 L 236.6,64.6" style="fill:none;stroke:#000000;stroke-width:2.0px;stroke-linecap:butt;stroke-linejoin:miter;stroke-opacity:1;"/>
<path d="M 120.4,149.0 L 120.6,150.8 L 121.2,151.1" style="fill:none;stroke:#000000;stroke-width:2.0px;stroke-linecap:butt;stroke-linejoin:miter;stroke-opacity:1;"/>
<path d="M 113.6,60.9 L 115.4,60.7 L 115.7,60.9" style="fill:none;stroke:#000000;stroke-width:2.0px;stroke-linecap:butt;stroke-linejoin:miter;stroke-opacity:1;"/>
<path class="atom-2" d="M 14.4 96.7 L 15.8 96.7 L 15.8 101.0 L 21.1 101.0 L 21.1 96.7 L 22.4 96.7 L 22.4 106.9 L 21.1 106.9 L 21.1 102.2 L 15.8 102.2 L 15.8 106.9 L 14.4 106.9 L 14.4 96.7 " fill="#FF0000"/>
<path class="atom-2" d="M 24.5 101.7 Q 24.5 99.3, 25.7 97.9 Q 27.0 96.5, 29.2 96.5 Q 31.5 96.5, 32.7 97.9 Q 33.9 99.3, 33.9 101.7 Q 33.9 104.2, 32.7 105.6 Q 31.5 107.0, 29.2 107.0 Q 27.0 107.0, 25.7 105.6 Q 24.5 104.2, 24.5 101.7 M 29.2 105.9 Q 30.8 105.9, 31.6 104.8 Q 32.5 103.8, 32.5 101.7 Q 32.5 99.7, 31.6 98.7 Q 30.8 97.7, 29.2 97.7 Q 27.7 97.7, 26.8 98.7 Q 26.0 99.7, 26.0 101.7 Q 26.0 103.8, 26.8 104.8 Q 27.7 105.9, 29.2 105.9 " fill="#FF0000"/>
<path class="atom-13" d="M 265.1 79.8 Q 265.1 77.3, 266.3 75.9 Q 267.5 74.6, 269.8 74.6 Q 272.0 74.6, 273.2 75.9 Q 274.4 77.3, 274.4 79.8 Q 274.4 82.3, 273.2 83.7 Q 272.0 85.1, 269.8 85.1 Q 267.5 85.1, 266.3 83.7 Q 265.1 82.3, 265.1 79.8 M 269.8 83.9 Q 271.3 83.9, 272.2 82.9 Q 273.0 81.8, 273.0 79.8 Q 273.0 77.8, 272.2 76.8 Q 271.3 75.7, 269.8 75.7 Q 268.2 75.7, 267.4 76.7 Q 266.5 77.8, 266.5 79.8 Q 266.5 81.8, 267.4 82.9 Q 268.2 83.9, 269.8 83.9 " fill="#FF0000"/>
<path class="atom-14" d="M 228.0 29.5 Q 228.0 27.0, 229.2 25.6 Q 230.5 24.3, 232.7 24.3 Q 235.0 24.3, 236.2 25.6 Q 237.4 27.0, 237.4 29.5 Q 237.4 32.0, 236.2 33.4 Q 235.0 34.8, 232.7 34.8 Q 230.5 34.8, 229.2 33.4 Q 228.0 32.0, 228.0 29.5 M 232.7 33.6 Q 234.3 33.6, 235.1 32.6 Q 236.0 31.5, 236.0 29.5 Q 236.0 27.5, 235.1 26.5 Q 234.3 25.4, 232.7 25.4 Q 231.2 25.4, 230.3 26.4 Q 229.5 27.5, 229.5 29.5 Q 229.5 31.5, 230.3 32.6 Q 231.2 33.6, 232.7 33.6 " fill="#FF0000"/>
<path class="atom-14" d="M 239.0 24.4 L 240.4 24.4 L 240.4 28.7 L 245.6 28.7 L 245.6 24.4 L 247.0 24.4 L 247.0 34.6 L 245.6 34.6 L 245.6 29.9 L 240.4 29.9 L 240.4 34.6 L 239.0 34.6 L 239.0 24.4 " fill="#FF0000"/>
<path class="atom-16" d="M 86.8 172.2 Q 86.8 169.8, 88.0 168.4 Q 89.3 167.0, 91.5 167.0 Q 93.8 167.0, 95.0 168.4 Q 96.2 169.8, 96.2 172.2 Q 96.2 174.7, 95.0 176.1 Q 93.8 177.5, 91.5 177.5 Q 89.3 177.5, 88.0 176.1 Q 86.8 174.7, 86.8 172.2 M 91.5 176.4 Q 93.1 176.4, 93.9 175.3 Q 94.8 174.3, 94.8 172.2 Q 94.8 170.2, 93.9 169.2 Q 93.1 168.2, 91.5 168.2 Q 90.0 168.2, 89.1 169.2 Q 88.3 170.2, 88.3 172.2 Q 88.3 174.3, 89.1 175.3 Q 90.0 176.4, 91.5 176.4 " fill="#FF0000"/>
<path class="atom-17" d="M 148.9 165.3 Q 148.9 162.9, 150.1 161.5 Q 151.3 160.1, 153.6 160.1 Q 155.9 160.1, 157.1 161.5 Q 158.3 162.9, 158.3 165.3 Q 158.3 167.8, 157.1 169.2 Q 155.8 170.6, 153.6 170.6 Q 151.3 170.6, 150.1 169.2 Q 148.9 167.8, 148.9 165.3 M 153.6 169.4 Q 155.2 169.4, 156.0 168.4 Q 156.8 167.4, 156.8 165.3 Q 156.8 163.3, 156.0 162.3 Q 155.2 161.3, 153.6 161.3 Q 152.0 161.3, 151.2 162.3 Q 150.4 163.3, 150.4 165.3 Q 150.4 167.4, 151.2 168.4 Q 152.0 169.4, 153.6 169.4 " fill="#FF0000"/>
<path class="atom-17" d="M 159.9 160.2 L 161.3 160.2 L 161.3 164.6 L 166.5 164.6 L 166.5 160.2 L 167.9 160.2 L 167.9 170.4 L 166.5 170.4 L 166.5 165.7 L 161.3 165.7 L 161.3 170.4 L 159.9 170.4 L 159.9 160.2 " fill="#FF0000"/>
<path class="atom-19" d="M 125.1 27.7 Q 125.1 25.2, 126.3 23.8 Q 127.6 22.5, 129.8 22.5 Q 132.1 22.5, 133.3 23.8 Q 134.5 25.2, 134.5 27.7 Q 134.5 30.1, 133.3 31.6 Q 132.1 33.0, 129.8 33.0 Q 127.6 33.0, 126.3 31.6 Q 125.1 30.2, 125.1 27.7 M 129.8 31.8 Q 131.4 31.8, 132.2 30.8 Q 133.1 29.7, 133.1 27.7 Q 133.1 25.7, 132.2 24.7 Q 131.4 23.6, 129.8 23.6 Q 128.3 23.6, 127.4 24.6 Q 126.6 25.6, 126.6 27.7 Q 126.6 29.7, 127.4 30.8 Q 128.3 31.8, 129.8 31.8 " fill="#FF0000"/>
<path class="atom-20" d="M 128.9 75.8 Q 128.9 73.3, 130.1 72.0 Q 131.3 70.6, 133.6 70.6 Q 135.9 70.6, 137.1 72.0 Q 138.3 73.3, 138.3 75.8 Q 138.3 78.3, 137.1 79.7 Q 135.8 81.1, 133.6 81.1 Q 131.3 81.1, 130.1 79.7 Q 128.9 78.3, 128.9 75.8 M 133.6 79.9 Q 135.1 79.9, 136.0 78.9 Q 136.8 77.8, 136.8 75.8 Q 136.8 73.8, 136.0 72.8 Q 135.1 71.8, 133.6 71.8 Q 132.0 71.8, 131.2 72.8 Q 130.3 73.8, 130.3 75.8 Q 130.3 77.9, 131.2 78.9 Q 132.0 79.9, 133.6 79.9 " fill="#FF0000"/>
<path class="atom-20" d="M 139.9 70.7 L 141.3 70.7 L 141.3 75.1 L 146.5 75.1 L 146.5 70.7 L 147.9 70.7 L 147.9 80.9 L 146.5 80.9 L 146.5 76.2 L 141.3 76.2 L 141.3 80.9 L 139.9 80.9 L 139.9 70.7 " fill="#FF0000"/>
</svg>
