<?xml version='1.0' encoding='ASCII' standalone='yes'?>
<svg xmlns="http://www.w3.org/2000/svg" xmlns:rdkit="http://www.rdkit.org/xml" xmlns:xlink="http://www.w3.org/1999/xlink" version="1.1" baseProfile="full" xml:space="preserve" width="304px" height="200px" viewBox="0 0 304 200">
<!-- END OF HEADER -->
<rect style="opacity:1.0;fill:#FFFFFF;stroke:none" width="304.0" height="200.0" x="0.0" y="0.0"> </rect>
<path class="bond-0 atom-0 atom-1" d="M 48.7,52.1 L 74.7,56.2" style="fill:none;fill-rule:evenodd;stroke:#000000;stroke-width:2.0px;stroke-linecap:butt;stroke-linejoin:miter;stroke-opacity:1"/>
<path class="bond-1 atom-1 atom-2" d="M 74.7,56.2 L 100.6,60.3" style="fill:none;fill-rule:evenodd;stroke:#000000;stroke-width:2.0px;stroke-linecap:butt;stroke-linejoin:miter;stroke-opacity:1"/>
<path class="bond-2 atom-1 atom-3" d="M 74.7,56.2 L 70.6,82.2" style="fill:none;fill-rule:evenodd;stroke:#000000;stroke-width:2.0px;stroke-linecap:butt;stroke-linejoin:miter;stroke-opacity:1"/>
<path class="bond-3 atom-3 atom-4" d="M 70.6,82.2 L 91.0,98.7" style="fill:none;fill-rule:evenodd;stroke:#000000;stroke-width:2.0px;stroke-linecap:butt;stroke-linejoin:miter;stroke-opacity:1"/>
<path class="bond-4 atom-4 atom-5" d="M 91.0,98.7 L 86.9,124.7" style="fill:none;fill-rule:evenodd;stroke:#000000;stroke-width:2.0px;stroke-linecap:butt;stroke-linejoin:miter;stroke-opacity:1"/>
<path class="bond-5 atom-5 atom-6" d="M 86.9,124.7 L 107.3,141.2" style="fill:none;fill-rule:evenodd;stroke:#000000;stroke-width:2.0px;stroke-linecap:butt;stroke-linejoin:miter;stroke-opacity:1"/>
<path class="bond-6 atom-6 atom-7" d="M 107.3,141.2 L 127.8,157.7" style="fill:none;fill-rule:evenodd;stroke:#000000;stroke-width:2.0px;stroke-linecap:butt;stroke-linejoin:miter;stroke-opacity:1"/>
<path class="bond-7 atom-6 atom-8" d="M 107.3,141.2 L 123.9,120.7" style="fill:none;fill-rule:evenodd;stroke:#000000;stroke-width:2.0px;stroke-linecap:butt;stroke-linejoin:miter;stroke-opacity:1"/>
<path class="bond-8 atom-8 atom-9" d="M 123.9,120.7 L 149.8,124.8" style="fill:none;fill-rule:evenodd;stroke:#000000;stroke-width:2.0px;stroke-linecap:butt;stroke-linejoin:miter;stroke-opacity:1"/>
<path class="bond-9 atom-9 atom-10" d="M 149.8,124.8 L 166.3,104.4" style="fill:none;fill-rule:evenodd;stroke:#000000;stroke-width:2.0px;stroke-linecap:butt;stroke-linejoin:miter;stroke-opacity:1"/>
<path class="bond-10 atom-10 atom-11" d="M 166.3,104.4 L 192.3,108.5" style="fill:none;fill-rule:evenodd;stroke:#000000;stroke-width:2.0px;stroke-linecap:butt;stroke-linejoin:miter;stroke-opacity:1"/>
<path class="bond-11 atom-11 atom-12" d="M 192.3,108.5 L 196.1,118.5" style="fill:none;fill-rule:evenodd;stroke:#000000;stroke-width:2.0px;stroke-linecap:butt;stroke-linejoin:miter;stroke-opacity:1"/>
<path class="bond-11 atom-11 atom-12" d="M 196.1,118.5 L 199.9,128.4" style="fill:none;fill-rule:evenodd;stroke:#FF0000;stroke-width:2.0px;stroke-linecap:butt;stroke-linejoin:miter;stroke-opacity:1"/>
<path class="bond-12 atom-11 atom-13" d="M 192.3,108.5 L 208.8,88.1" style="fill:none;fill-rule:evenodd;stroke:#000000;stroke-width:2.0px;stroke-linecap:butt;stroke-linejoin:miter;stroke-opacity:1"/>
<path class="bond-13 atom-13 atom-14" d="M 208.8,88.1 L 188.4,71.6" style="fill:none;fill-rule:evenodd;stroke:#000000;stroke-width:2.0px;stroke-linecap:butt;stroke-linejoin:miter;stroke-opacity:1"/>
<path class="bond-14 atom-13 atom-15" d="M 208.8,88.1 L 229.2,104.6" style="fill:none;fill-rule:evenodd;stroke:#000000;stroke-width:2.0px;stroke-linecap:butt;stroke-linejoin:miter;stroke-opacity:1"/>
<path class="bond-15 atom-13 atom-16" d="M 208.8,88.1 L 225.3,67.7" style="fill:none;fill-rule:evenodd;stroke:#000000;stroke-width:2.0px;stroke-linecap:butt;stroke-linejoin:miter;stroke-opacity:1"/>
<path class="bond-16 atom-16 atom-17" d="M 223.9,69.4 L 235.3,71.2" style="fill:none;fill-rule:evenodd;stroke:#000000;stroke-width:2.0px;stroke-linecap:butt;stroke-linejoin:miter;stroke-opacity:1"/>
<path class="bond-16 atom-16 atom-17" d="M 235.3,71.2 L 246.7,73.0" style="fill:none;fill-rule:evenodd;stroke:#FF0000;stroke-width:2.0px;stroke-linecap:butt;stroke-linejoin:miter;stroke-opacity:1"/>
<path class="bond-16 atom-16 atom-17" d="M 224.5,65.5 L 235.9,67.3" style="fill:none;fill-rule:evenodd;stroke:#000000;stroke-width:2.0px;stroke-linecap:butt;stroke-linejoin:miter;stroke-opacity:1"/>
<path class="bond-16 atom-16 atom-17" d="M 235.9,67.3 L 247.3,69.1" style="fill:none;fill-rule:evenodd;stroke:#FF0000;stroke-width:2.0px;stroke-linecap:butt;stroke-linejoin:miter;stroke-opacity:1"/>
<path class="bond-17 atom-16 atom-18" d="M 225.3,67.7 L 221.5,57.8" style="fill:none;fill-rule:evenodd;stroke:#000000;stroke-width:2.0px;stroke-linecap:butt;stroke-linejoin:miter;stroke-opacity:1"/>
<path class="bond-17 atom-16 atom-18" d="M 221.5,57.8 L 217.7,47.9" style="fill:none;fill-rule:evenodd;stroke:#FF0000;stroke-width:2.0px;stroke-linecap:butt;stroke-linejoin:miter;stroke-opacity:1"/>
<path class="bond-18 atom-6 atom-19" d="M 107.3,141.2 L 90.8,161.6" style="fill:none;fill-rule:evenodd;stroke:#000000;stroke-width:2.0px;stroke-linecap:butt;stroke-linejoin:miter;stroke-opacity:1"/>
<path class="bond-19 atom-19 atom-20" d="M 92.2,159.8 L 80.8,158.0" style="fill:none;fill-rule:evenodd;stroke:#000000;stroke-width:2.0px;stroke-linecap:butt;stroke-linejoin:miter;stroke-opacity:1"/>
<path class="bond-19 atom-19 atom-20" d="M 80.8,158.0 L 69.5,156.2" style="fill:none;fill-rule:evenodd;stroke:#FF0000;stroke-width:2.0px;stroke-linecap:butt;stroke-linejoin:miter;stroke-opacity:1"/>
<path class="bond-19 atom-19 atom-20" d="M 91.6,163.7 L 80.2,161.9" style="fill:none;fill-rule:evenodd;stroke:#000000;stroke-width:2.0px;stroke-linecap:butt;stroke-linejoin:miter;stroke-opacity:1"/>
<path class="bond-19 atom-19 atom-20" d="M 80.2,161.9 L 68.8,160.1" style="fill:none;fill-rule:evenodd;stroke:#FF0000;stroke-width:2.0px;stroke-linecap:butt;stroke-linejoin:miter;stroke-opacity:1"/>
<path class="bond-20 atom-19 atom-21" d="M 90.8,161.6 L 94.6,171.5" style="fill:none;fill-rule:evenodd;stroke:#000000;stroke-width:2.0px;stroke-linecap:butt;stroke-linejoin:miter;stroke-opacity:1"/>
<path class="bond-20 atom-19 atom-21" d="M 94.6,171.5 L 98.5,181.5" style="fill:none;fill-rule:evenodd;stroke:#FF0000;stroke-width:2.0px;stroke-linecap:butt;stroke-linejoin:miter;stroke-opacity:1"/>
<path class="bond-21 atom-1 atom-22" d="M 74.7,56.2 L 78.8,30.3" style="fill:none;fill-rule:evenodd;stroke:#000000;stroke-width:2.0px;stroke-linecap:butt;stroke-linejoin:miter;stroke-opacity:1"/>
<path class="bond-22 atom-22 atom-23" d="M 80.9,29.5 L 72.4,22.6" style="fill:none;fill-rule:evenodd;stroke:#000000;stroke-width:2.0px;stroke-linecap:butt;stroke-linejoin:miter;stroke-opacity:1"/>
<path class="bond-22 atom-22 atom-23" d="M 72.4,22.6 L 63.9,15.7" style="fill:none;fill-rule:evenodd;stroke:#FF0000;stroke-width:2.0px;stroke-linecap:butt;stroke-linejoin:miter;stroke-opacity:1"/>
<path class="bond-22 atom-22 atom-23" d="M 78.4,32.5 L 69.9,25.6" style="fill:none;fill-rule:evenodd;stroke:#000000;stroke-width:2.0px;stroke-linecap:butt;stroke-linejoin:miter;stroke-opacity:1"/>
<path class="bond-22 atom-22 atom-23" d="M 69.9,25.6 L 61.4,18.8" style="fill:none;fill-rule:evenodd;stroke:#FF0000;stroke-width:2.0px;stroke-linecap:butt;stroke-linejoin:miter;stroke-opacity:1"/>
<path class="bond-23 atom-22 atom-24" d="M 78.8,30.3 L 88.9,26.4" style="fill:none;fill-rule:evenodd;stroke:#000000;stroke-width:2.0px;stroke-linecap:butt;stroke-linejoin:miter;stroke-opacity:1"/>
<path class="bond-23 atom-22 atom-24" d="M 88.9,26.4 L 99.0,22.5" style="fill:none;fill-rule:evenodd;stroke:#FF0000;stroke-width:2.0px;stroke-linecap:butt;stroke-linejoin:miter;stroke-opacity:1"/>
<path d="M 70.8,80.9 L 70.6,82.2 L 71.6,83.0" style="fill:none;stroke:#000000;stroke-width:2.0px;stroke-linecap:butt;stroke-linejoin:miter;stroke-opacity:1;"/>
<path d="M 90.0,97.9 L 91.0,98.7 L 90.8,100.0" style="fill:none;stroke:#000000;stroke-width:2.0px;stroke-linecap:butt;stroke-linejoin:miter;stroke-opacity:1;"/>
<path d="M 87.1,123.4 L 86.9,124.7 L 87.9,125.5" style="fill:none;stroke:#000000;stroke-width:2.0px;stroke-linecap:butt;stroke-linejoin:miter;stroke-opacity:1;"/>
<path d="M 123.0,121.8 L 123.9,120.7 L 125.2,121.0" style="fill:none;stroke:#000000;stroke-width:2.0px;stroke-linecap:butt;stroke-linejoin:miter;stroke-opacity:1;"/>
<path d="M 148.5,124.6 L 149.8,124.8 L 150.6,123.8" style="fill:none;stroke:#000000;stroke-width:2.0px;stroke-linecap:butt;stroke-linejoin:miter;stroke-opacity:1;"/>
<path d="M 165.5,105.4 L 166.3,104.4 L 167.6,104.6" style="fill:none;stroke:#000000;stroke-width:2.0px;stroke-linecap:butt;stroke-linejoin:miter;stroke-opacity:1;"/>
<path d="M 224.5,68.7 L 225.3,67.7 L 225.1,67.2" style="fill:none;stroke:#000000;stroke-width:2.0px;stroke-linecap:butt;stroke-linejoin:miter;stroke-opacity:1;"/>
<path d="M 91.6,160.6 L 90.8,161.6 L 91.0,162.1" style="fill:none;stroke:#000000;stroke-width:2.0px;stroke-linecap:butt;stroke-linejoin:miter;stroke-opacity:1;"/>
<path d="M 78.6,31.6 L 78.8,30.3 L 79.3,30.1" style="fill:none;stroke:#000000;stroke-width:2.0px;stroke-linecap:butt;stroke-linejoin:miter;stroke-opacity:1;"/>
<path class="atom-12" d="M 198.3 133.1 Q 198.3 131.3, 199.2 130.3 Q 200.1 129.3, 201.7 129.3 Q 203.4 129.3, 204.2 130.3 Q 205.1 131.3, 205.1 133.1 Q 205.1 134.9, 204.2 135.9 Q 203.3 136.9, 201.7 136.9 Q 200.1 136.9, 199.2 135.9 Q 198.3 134.9, 198.3 133.1 M 201.7 136.1 Q 202.8 136.1, 203.4 135.3 Q 204.1 134.5, 204.1 133.1 Q 204.1 131.6, 203.4 130.9 Q 202.8 130.1, 201.7 130.1 Q 200.6 130.1, 200.0 130.8 Q 199.3 131.6, 199.3 133.1 Q 199.3 134.6, 200.0 135.3 Q 200.6 136.1, 201.7 136.1 " fill="#FF0000"/>
<path class="atom-12" d="M 206.3 129.4 L 207.3 129.4 L 207.3 132.5 L 211.1 132.5 L 211.1 129.4 L 212.1 129.4 L 212.1 136.8 L 211.1 136.8 L 211.1 133.4 L 207.3 133.4 L 207.3 136.8 L 206.3 136.8 L 206.3 129.4 " fill="#FF0000"/>
<path class="atom-17" d="M 247.9 71.8 Q 247.9 70.0, 248.7 69.0 Q 249.6 68.0, 251.3 68.0 Q 252.9 68.0, 253.8 69.0 Q 254.7 70.0, 254.7 71.8 Q 254.7 73.6, 253.8 74.6 Q 252.9 75.6, 251.3 75.6 Q 249.6 75.6, 248.7 74.6 Q 247.9 73.6, 247.9 71.8 M 251.3 74.8 Q 252.4 74.8, 253.0 74.0 Q 253.6 73.3, 253.6 71.8 Q 253.6 70.3, 253.0 69.6 Q 252.4 68.8, 251.3 68.8 Q 250.1 68.8, 249.5 69.6 Q 248.9 70.3, 248.9 71.8 Q 248.9 73.3, 249.5 74.0 Q 250.1 74.8, 251.3 74.8 " fill="#FF0000"/>
<path class="atom-18" d="M 205.1 39.5 L 206.1 39.5 L 206.1 42.6 L 209.9 42.6 L 209.9 39.5 L 210.9 39.5 L 210.9 46.9 L 209.9 46.9 L 209.9 43.5 L 206.1 43.5 L 206.1 46.9 L 205.1 46.9 L 205.1 39.5 " fill="#FF0000"/>
<path class="atom-18" d="M 212.5 43.2 Q 212.5 41.4, 213.4 40.4 Q 214.2 39.4, 215.9 39.4 Q 217.5 39.4, 218.4 40.4 Q 219.3 41.4, 219.3 43.2 Q 219.3 45.0, 218.4 46.0 Q 217.5 47.0, 215.9 47.0 Q 214.2 47.0, 213.4 46.0 Q 212.5 45.0, 212.5 43.2 M 215.9 46.2 Q 217.0 46.2, 217.6 45.4 Q 218.3 44.6, 218.3 43.2 Q 218.3 41.7, 217.6 41.0 Q 217.0 40.2, 215.9 40.2 Q 214.8 40.2, 214.1 40.9 Q 213.5 41.7, 213.5 43.2 Q 213.5 44.7, 214.1 45.4 Q 214.8 46.2, 215.9 46.2 " fill="#FF0000"/>
<path class="atom-20" d="M 61.4 157.5 Q 61.4 155.7, 62.3 154.7 Q 63.2 153.7, 64.9 153.7 Q 66.5 153.7, 67.4 154.7 Q 68.3 155.7, 68.3 157.5 Q 68.3 159.3, 67.4 160.4 Q 66.5 161.4, 64.9 161.4 Q 63.2 161.4, 62.3 160.4 Q 61.4 159.3, 61.4 157.5 M 64.9 160.5 Q 66.0 160.5, 66.6 159.8 Q 67.2 159.0, 67.2 157.5 Q 67.2 156.1, 66.6 155.3 Q 66.0 154.6, 64.9 154.6 Q 63.7 154.6, 63.1 155.3 Q 62.5 156.1, 62.5 157.5 Q 62.5 159.0, 63.1 159.8 Q 63.7 160.5, 64.9 160.5 " fill="#FF0000"/>
<path class="atom-21" d="M 96.8 186.1 Q 96.8 184.4, 97.7 183.4 Q 98.6 182.4, 100.2 182.4 Q 101.9 182.4, 102.8 183.4 Q 103.7 184.4, 103.7 186.1 Q 103.7 188.0, 102.8 189.0 Q 101.9 190.0, 100.2 190.0 Q 98.6 190.0, 97.7 189.0 Q 96.8 188.0, 96.8 186.1 M 100.2 189.2 Q 101.4 189.2, 102.0 188.4 Q 102.6 187.6, 102.6 186.1 Q 102.6 184.7, 102.0 183.9 Q 101.4 183.2, 100.2 183.2 Q 99.1 183.2, 98.5 183.9 Q 97.9 184.7, 97.9 186.1 Q 97.9 187.6, 98.5 188.4 Q 99.1 189.2, 100.2 189.2 " fill="#FF0000"/>
<path class="atom-21" d="M 104.8 182.4 L 105.8 182.4 L 105.8 185.6 L 109.6 185.6 L 109.6 182.4 L 110.6 182.4 L 110.6 189.9 L 109.6 189.9 L 109.6 186.4 L 105.8 186.4 L 105.8 189.9 L 104.8 189.9 L 104.8 182.4 " fill="#FF0000"/>
<path class="atom-23" d="M 54.9 13.8 Q 54.9 12.0, 55.8 11.0 Q 56.7 10.0, 58.3 10.0 Q 60.0 10.0, 60.9 11.0 Q 61.8 12.0, 61.8 13.8 Q 61.8 15.6, 60.9 16.6 Q 60.0 17.6, 58.3 17.6 Q 56.7 17.6, 55.8 16.6 Q 54.9 15.6, 54.9 13.8 M 58.3 16.8 Q 59.5 16.8, 60.1 16.0 Q 60.7 15.3, 60.7 13.8 Q 60.7 12.3, 60.1 11.6 Q 59.5 10.8, 58.3 10.8 Q 57.2 10.8, 56.6 11.6 Q 56.0 12.3, 56.0 13.8 Q 56.0 15.3, 56.6 16.0 Q 57.2 16.8, 58.3 16.8 " fill="#FF0000"/>
<path class="atom-24" d="M 99.9 20.9 Q 99.9 19.1, 100.7 18.1 Q 101.6 17.1, 103.3 17.1 Q 104.9 17.1, 105.8 18.1 Q 106.7 19.1, 106.7 20.9 Q 106.7 22.7, 105.8 23.7 Q 104.9 24.7, 103.3 24.7 Q 101.6 24.7, 100.7 23.7 Q 99.9 22.7, 99.9 20.9 M 103.3 23.9 Q 104.4 23.9, 105.0 23.1 Q 105.6 22.4, 105.6 20.9 Q 105.6 19.4, 105.0 18.7 Q 104.4 17.9, 103.3 17.9 Q 102.1 17.9, 101.5 18.7 Q 100.9 19.4, 100.9 20.9 Q 100.9 22.4, 101.5 23.1 Q 102.1 23.9, 103.3 23.9 " fill="#FF0000"/>
<path class="atom-24" d="M 107.9 17.2 L 108.9 17.2 L 108.9 20.3 L 112.7 20.3 L 112.7 17.2 L 113.7 17.2 L 113.7 24.6 L 112.7 24.6 L 112.7 21.2 L 108.9 21.2 L 108.9 24.6 L 107.9 24.6 L 107.9 17.2 " fill="#FF0000"/>
</svg>
