<?xml version='1.0' encoding='ASCII' standalone='yes'?>
<svg xmlns="http://www.w3.org/2000/svg" xmlns:rdkit="http://www.rdkit.org/xml" xmlns:xlink="http://www.w3.org/1999/xlink" version="1.1" baseProfile="full" xml:space="preserve" width="225px" height="200px" viewBox="0 0 225 200">
<!-- END OF HEADER -->
<rect style="opacity:1.0;fill:#FFFFFF;stroke:none" width="225.0" height="200.0" x="0.0" y="0.0"> </rect>
<path class="bond-0 atom-0 atom-1" d="M 105.8,109.9 L 115.7,107.2" style="fill:none;fill-rule:evenodd;stroke:#000000;stroke-width:2.0px;stroke-linecap:butt;stroke-linejoin:miter;stroke-opacity:1"/>
<path class="bond-0 atom-0 atom-1" d="M 115.7,107.2 L 125.6,104.6" style="fill:none;fill-rule:evenodd;stroke:#0000FF;stroke-width:2.0px;stroke-linecap:butt;stroke-linejoin:miter;stroke-opacity:1"/>
<path class="bond-1 atom-1 atom-2" d="M 139.9,111.7 L 152.4,128.2" style="fill:none;fill-rule:evenodd;stroke:#0000FF;stroke-width:2.0px;stroke-linecap:butt;stroke-linejoin:miter;stroke-opacity:1"/>
<path class="bond-1 atom-1 atom-2" d="M 152.4,128.2 L 164.9,144.7" style="fill:none;fill-rule:evenodd;stroke:#000000;stroke-width:2.0px;stroke-linecap:butt;stroke-linejoin:miter;stroke-opacity:1"/>
<path class="bond-2 atom-2 atom-3" d="M 164.9,144.7 L 214.8,127.4" style="fill:none;fill-rule:evenodd;stroke:#000000;stroke-width:2.0px;stroke-linecap:butt;stroke-linejoin:miter;stroke-opacity:1"/>
<path class="bond-3 atom-3 atom-4" d="M 214.8,127.4 L 213.7,74.6" style="fill:none;fill-rule:evenodd;stroke:#000000;stroke-width:2.0px;stroke-linecap:butt;stroke-linejoin:miter;stroke-opacity:1"/>
<path class="bond-4 atom-4 atom-5" d="M 213.7,74.6 L 163.2,59.2" style="fill:none;fill-rule:evenodd;stroke:#000000;stroke-width:2.0px;stroke-linecap:butt;stroke-linejoin:miter;stroke-opacity:1"/>
<path class="bond-5 atom-5 atom-6" d="M 163.2,59.2 L 110.2,54.2" style="fill:none;fill-rule:evenodd;stroke:#000000;stroke-width:2.0px;stroke-linecap:butt;stroke-linejoin:miter;stroke-opacity:1"/>
<path class="bond-6 atom-6 atom-7" d="M 110.2,54.2 L 84.7,100.5" style="fill:none;fill-rule:evenodd;stroke:#000000;stroke-width:2.0px;stroke-linecap:butt;stroke-linejoin:miter;stroke-opacity:1"/>
<path class="bond-7 atom-7 atom-8" d="M 84.7,100.5 L 62.6,101.0" style="fill:none;fill-rule:evenodd;stroke:#000000;stroke-width:2.0px;stroke-linecap:butt;stroke-linejoin:miter;stroke-opacity:1"/>
<path class="bond-7 atom-7 atom-8" d="M 62.6,101.0 L 40.4,101.4" style="fill:none;fill-rule:evenodd;stroke:#FF0000;stroke-width:2.0px;stroke-linecap:butt;stroke-linejoin:miter;stroke-opacity:1"/>
<path class="bond-8 atom-7 atom-9" d="M 84.7,100.5 L 112.0,145.8" style="fill:none;fill-rule:evenodd;stroke:#000000;stroke-width:2.0px;stroke-linecap:butt;stroke-linejoin:miter;stroke-opacity:1"/>
<path class="bond-9 atom-5 atom-1" d="M 163.2,59.2 L 151.2,76.3" style="fill:none;fill-rule:evenodd;stroke:#000000;stroke-width:2.0px;stroke-linecap:butt;stroke-linejoin:miter;stroke-opacity:1"/>
<path class="bond-9 atom-5 atom-1" d="M 151.2,76.3 L 139.3,93.4" style="fill:none;fill-rule:evenodd;stroke:#0000FF;stroke-width:2.0px;stroke-linecap:butt;stroke-linejoin:miter;stroke-opacity:1"/>
<path class="bond-10 atom-9 atom-2" d="M 112.0,145.8 L 164.9,144.7" style="fill:none;fill-rule:evenodd;stroke:#000000;stroke-width:2.0px;stroke-linecap:butt;stroke-linejoin:miter;stroke-opacity:1"/>
<path d="M 212.3,128.2 L 214.8,127.4 L 214.7,124.7" style="fill:none;stroke:#000000;stroke-width:2.0px;stroke-linecap:butt;stroke-linejoin:miter;stroke-opacity:1;"/>
<path d="M 213.8,77.2 L 213.7,74.6 L 211.2,73.8" style="fill:none;stroke:#000000;stroke-width:2.0px;stroke-linecap:butt;stroke-linejoin:miter;stroke-opacity:1;"/>
<path d="M 112.9,54.5 L 110.2,54.2 L 108.9,56.6" style="fill:none;stroke:#000000;stroke-width:2.0px;stroke-linecap:butt;stroke-linejoin:miter;stroke-opacity:1;"/>
<path d="M 110.7,143.5 L 112.0,145.8 L 114.7,145.7" style="fill:none;stroke:#000000;stroke-width:2.0px;stroke-linecap:butt;stroke-linejoin:miter;stroke-opacity:1;"/>
<path class="atom-1" d="M 129.6 95.1 L 134.5 103.0 Q 135.0 103.8, 135.8 105.2 Q 136.6 106.6, 136.6 106.7 L 136.6 95.1 L 138.6 95.1 L 138.6 110.1 L 136.6 110.1 L 131.3 101.4 Q 130.7 100.4, 130.0 99.2 Q 129.4 98.1, 129.2 97.7 L 129.2 110.1 L 127.3 110.1 L 127.3 95.1 L 129.6 95.1 " fill="#0000FF"/>
<path class="atom-8" d="M 10.2 94.2 L 12.3 94.2 L 12.3 100.5 L 19.9 100.5 L 19.9 94.2 L 21.9 94.2 L 21.9 109.1 L 19.9 109.1 L 19.9 102.2 L 12.3 102.2 L 12.3 109.1 L 10.2 109.1 L 10.2 94.2 " fill="#FF0000"/>
<path class="atom-8" d="M 25.0 101.6 Q 25.0 98.0, 26.8 96.0 Q 28.6 94.0, 31.9 94.0 Q 35.2 94.0, 37.0 96.0 Q 38.7 98.0, 38.7 101.6 Q 38.7 105.2, 36.9 107.3 Q 35.2 109.4, 31.9 109.4 Q 28.6 109.4, 26.8 107.3 Q 25.0 105.3, 25.0 101.6 M 31.9 107.7 Q 34.2 107.7, 35.4 106.2 Q 36.6 104.6, 36.6 101.6 Q 36.6 98.7, 35.4 97.2 Q 34.2 95.7, 31.9 95.7 Q 29.6 95.7, 28.3 97.2 Q 27.1 98.7, 27.1 101.6 Q 27.1 104.6, 28.3 106.2 Q 29.6 107.7, 31.9 107.7 " fill="#FF0000"/>
</svg>
