<?xml version='1.0' encoding='ASCII' standalone='yes'?>
<svg xmlns="http://www.w3.org/2000/svg" xmlns:rdkit="http://www.rdkit.org/xml" xmlns:xlink="http://www.w3.org/1999/xlink" version="1.1" baseProfile="full" xml:space="preserve" width="357px" height="200px" viewBox="0 0 357 200">
<!-- END OF HEADER -->
<rect style="opacity:1.0;fill:#FFFFFF;stroke:none" width="357.0" height="200.0" x="0.0" y="0.0"> </rect>
<path class="bond-0 atom-0 atom-1" d="M 133.8,105.4 L 114.1,111.8" style="fill:none;fill-rule:evenodd;stroke:#000000;stroke-width:2.0px;stroke-linecap:butt;stroke-linejoin:miter;stroke-opacity:1"/>
<path class="bond-1 atom-1 atom-2" d="M 114.1,111.8 L 98.7,97.8" style="fill:none;fill-rule:evenodd;stroke:#000000;stroke-width:2.0px;stroke-linecap:butt;stroke-linejoin:miter;stroke-opacity:1"/>
<path class="bond-2 atom-2 atom-3" d="M 98.7,97.8 L 83.2,83.9" style="fill:none;fill-rule:evenodd;stroke:#000000;stroke-width:2.0px;stroke-linecap:butt;stroke-linejoin:miter;stroke-opacity:1"/>
<path class="bond-3 atom-2 atom-4" d="M 98.7,97.8 L 84.7,113.3" style="fill:none;fill-rule:evenodd;stroke:#000000;stroke-width:2.0px;stroke-linecap:butt;stroke-linejoin:miter;stroke-opacity:1"/>
<path class="bond-4 atom-4 atom-5" d="M 84.7,113.3 L 76.3,111.5" style="fill:none;fill-rule:evenodd;stroke:#000000;stroke-width:2.0px;stroke-linecap:butt;stroke-linejoin:miter;stroke-opacity:1"/>
<path class="bond-4 atom-4 atom-5" d="M 76.3,111.5 L 67.8,109.6" style="fill:none;fill-rule:evenodd;stroke:#FF0000;stroke-width:2.0px;stroke-linecap:butt;stroke-linejoin:miter;stroke-opacity:1"/>
<path class="bond-5 atom-2 atom-6" d="M 98.7,97.8 L 112.6,82.4" style="fill:none;fill-rule:evenodd;stroke:#000000;stroke-width:2.0px;stroke-linecap:butt;stroke-linejoin:miter;stroke-opacity:1"/>
<path class="bond-6 atom-6 atom-7" d="M 112.6,82.4 L 106.2,62.6" style="fill:none;fill-rule:evenodd;stroke:#000000;stroke-width:2.0px;stroke-linecap:butt;stroke-linejoin:miter;stroke-opacity:1"/>
<path class="bond-7 atom-7 atom-8" d="M 106.2,62.6 L 120.1,47.2" style="fill:none;fill-rule:evenodd;stroke:#000000;stroke-width:2.0px;stroke-linecap:butt;stroke-linejoin:miter;stroke-opacity:1"/>
<path class="bond-8 atom-8 atom-9" d="M 120.1,47.2 L 134.0,31.8" style="fill:none;fill-rule:evenodd;stroke:#000000;stroke-width:2.0px;stroke-linecap:butt;stroke-linejoin:miter;stroke-opacity:1"/>
<path class="bond-9 atom-8 atom-10" d="M 120.1,47.2 L 104.7,33.3" style="fill:none;fill-rule:evenodd;stroke:#000000;stroke-width:2.0px;stroke-linecap:butt;stroke-linejoin:miter;stroke-opacity:1"/>
<path class="bond-10 atom-10 atom-11" d="M 104.7,33.3 L 106.5,25.0" style="fill:none;fill-rule:evenodd;stroke:#000000;stroke-width:2.0px;stroke-linecap:butt;stroke-linejoin:miter;stroke-opacity:1"/>
<path class="bond-10 atom-10 atom-11" d="M 106.5,25.0 L 108.2,16.7" style="fill:none;fill-rule:evenodd;stroke:#FF0000;stroke-width:2.0px;stroke-linecap:butt;stroke-linejoin:miter;stroke-opacity:1"/>
<path class="bond-11 atom-8 atom-12" d="M 120.1,47.2 L 135.5,61.2" style="fill:none;fill-rule:evenodd;stroke:#000000;stroke-width:2.0px;stroke-linecap:butt;stroke-linejoin:miter;stroke-opacity:1"/>
<path class="bond-12 atom-12 atom-13" d="M 135.5,61.2 L 155.3,54.8" style="fill:none;fill-rule:evenodd;stroke:#000000;stroke-width:2.0px;stroke-linecap:butt;stroke-linejoin:miter;stroke-opacity:1"/>
<path class="bond-13 atom-13 atom-14" d="M 155.3,54.8 L 170.7,68.7" style="fill:none;fill-rule:evenodd;stroke:#000000;stroke-width:2.0px;stroke-linecap:butt;stroke-linejoin:miter;stroke-opacity:1"/>
<path class="bond-14 atom-14 atom-15" d="M 170.7,68.7 L 187.2,77.5" style="fill:none;fill-rule:evenodd;stroke:#000000;stroke-width:2.0px;stroke-linecap:butt;stroke-linejoin:miter;stroke-opacity:1"/>
<path class="bond-15 atom-14 atom-16" d="M 170.7,68.7 L 184.7,53.3" style="fill:none;fill-rule:evenodd;stroke:#000000;stroke-width:2.0px;stroke-linecap:butt;stroke-linejoin:miter;stroke-opacity:1"/>
<path class="bond-16 atom-16 atom-17" d="M 184.7,53.3 L 193.1,55.1" style="fill:none;fill-rule:evenodd;stroke:#000000;stroke-width:2.0px;stroke-linecap:butt;stroke-linejoin:miter;stroke-opacity:1"/>
<path class="bond-16 atom-16 atom-17" d="M 193.1,55.1 L 201.6,56.9" style="fill:none;fill-rule:evenodd;stroke:#FF0000;stroke-width:2.0px;stroke-linecap:butt;stroke-linejoin:miter;stroke-opacity:1"/>
<path class="bond-17 atom-14 atom-18" d="M 170.7,68.7 L 156.8,84.1" style="fill:none;fill-rule:evenodd;stroke:#000000;stroke-width:2.0px;stroke-linecap:butt;stroke-linejoin:miter;stroke-opacity:1"/>
<path class="bond-18 atom-18 atom-19" d="M 156.8,84.1 L 163.2,103.9" style="fill:none;fill-rule:evenodd;stroke:#000000;stroke-width:2.0px;stroke-linecap:butt;stroke-linejoin:miter;stroke-opacity:1"/>
<path class="bond-19 atom-19 atom-20" d="M 163.2,103.9 L 183.5,108.2" style="fill:none;fill-rule:evenodd;stroke:#000000;stroke-width:2.0px;stroke-linecap:butt;stroke-linejoin:miter;stroke-opacity:1"/>
<path class="bond-20 atom-20 atom-21" d="M 183.5,108.2 L 187.9,87.9" style="fill:none;fill-rule:evenodd;stroke:#000000;stroke-width:2.0px;stroke-linecap:butt;stroke-linejoin:miter;stroke-opacity:1"/>
<path class="bond-21 atom-21 atom-22" d="M 187.9,87.9 L 196.1,85.3" style="fill:none;fill-rule:evenodd;stroke:#000000;stroke-width:2.0px;stroke-linecap:butt;stroke-linejoin:miter;stroke-opacity:1"/>
<path class="bond-21 atom-21 atom-22" d="M 196.1,85.3 L 204.3,82.6" style="fill:none;fill-rule:evenodd;stroke:#FF0000;stroke-width:2.0px;stroke-linecap:butt;stroke-linejoin:miter;stroke-opacity:1"/>
<path class="bond-22 atom-20 atom-23" d="M 183.5,108.2 L 203.8,112.6" style="fill:none;fill-rule:evenodd;stroke:#000000;stroke-width:2.0px;stroke-linecap:butt;stroke-linejoin:miter;stroke-opacity:1"/>
<path class="bond-23 atom-23 atom-24" d="M 203.8,112.6 L 217.8,97.2" style="fill:none;fill-rule:evenodd;stroke:#000000;stroke-width:2.0px;stroke-linecap:butt;stroke-linejoin:miter;stroke-opacity:1"/>
<path class="bond-24 atom-24 atom-25" d="M 217.8,97.2 L 238.1,101.5" style="fill:none;fill-rule:evenodd;stroke:#000000;stroke-width:2.0px;stroke-linecap:butt;stroke-linejoin:miter;stroke-opacity:1"/>
<path class="bond-25 atom-25 atom-26" d="M 238.1,101.5 L 233.7,121.8" style="fill:none;fill-rule:evenodd;stroke:#000000;stroke-width:2.0px;stroke-linecap:butt;stroke-linejoin:miter;stroke-opacity:1"/>
<path class="bond-26 atom-25 atom-27" d="M 238.1,101.5 L 258.4,105.9" style="fill:none;fill-rule:evenodd;stroke:#000000;stroke-width:2.0px;stroke-linecap:butt;stroke-linejoin:miter;stroke-opacity:1"/>
<path class="bond-27 atom-27 atom-28" d="M 258.4,105.9 L 261.0,113.9" style="fill:none;fill-rule:evenodd;stroke:#000000;stroke-width:2.0px;stroke-linecap:butt;stroke-linejoin:miter;stroke-opacity:1"/>
<path class="bond-27 atom-27 atom-28" d="M 261.0,113.9 L 263.6,122.0" style="fill:none;fill-rule:evenodd;stroke:#FF0000;stroke-width:2.0px;stroke-linecap:butt;stroke-linejoin:miter;stroke-opacity:1"/>
<path class="bond-28 atom-25 atom-29" d="M 238.1,101.5 L 242.4,81.2" style="fill:none;fill-rule:evenodd;stroke:#000000;stroke-width:2.0px;stroke-linecap:butt;stroke-linejoin:miter;stroke-opacity:1"/>
<path class="bond-29 atom-29 atom-30" d="M 242.4,81.2 L 262.2,74.8" style="fill:none;fill-rule:evenodd;stroke:#000000;stroke-width:2.0px;stroke-linecap:butt;stroke-linejoin:miter;stroke-opacity:1"/>
<path class="bond-30 atom-30 atom-31" d="M 262.2,74.8 L 266.6,54.5" style="fill:none;fill-rule:evenodd;stroke:#000000;stroke-width:2.0px;stroke-linecap:butt;stroke-linejoin:miter;stroke-opacity:1"/>
<path class="bond-31 atom-31 atom-32" d="M 266.6,54.5 L 246.2,50.1" style="fill:none;fill-rule:evenodd;stroke:#000000;stroke-width:2.0px;stroke-linecap:butt;stroke-linejoin:miter;stroke-opacity:1"/>
<path class="bond-32 atom-31 atom-33" d="M 266.6,54.5 L 286.9,58.8" style="fill:none;fill-rule:evenodd;stroke:#000000;stroke-width:2.0px;stroke-linecap:butt;stroke-linejoin:miter;stroke-opacity:1"/>
<path class="bond-33 atom-33 atom-34" d="M 286.9,58.8 L 300.8,43.4" style="fill:none;fill-rule:evenodd;stroke:#000000;stroke-width:2.0px;stroke-linecap:butt;stroke-linejoin:miter;stroke-opacity:1"/>
<path class="bond-34 atom-31 atom-35" d="M 266.6,54.5 L 270.9,34.2" style="fill:none;fill-rule:evenodd;stroke:#000000;stroke-width:2.0px;stroke-linecap:butt;stroke-linejoin:miter;stroke-opacity:1"/>
<path class="bond-35 atom-35 atom-36" d="M 270.9,34.2 L 264.9,28.7" style="fill:none;fill-rule:evenodd;stroke:#000000;stroke-width:2.0px;stroke-linecap:butt;stroke-linejoin:miter;stroke-opacity:1"/>
<path class="bond-35 atom-35 atom-36" d="M 264.9,28.7 L 258.9,23.3" style="fill:none;fill-rule:evenodd;stroke:#FF0000;stroke-width:2.0px;stroke-linecap:butt;stroke-linejoin:miter;stroke-opacity:1"/>
<path class="bond-36 atom-20 atom-37" d="M 183.5,108.2 L 179.2,128.6" style="fill:none;fill-rule:evenodd;stroke:#000000;stroke-width:2.0px;stroke-linecap:butt;stroke-linejoin:miter;stroke-opacity:1"/>
<path class="bond-37 atom-37 atom-38" d="M 179.2,128.6 L 194.6,142.5" style="fill:none;fill-rule:evenodd;stroke:#000000;stroke-width:2.0px;stroke-linecap:butt;stroke-linejoin:miter;stroke-opacity:1"/>
<path class="bond-38 atom-38 atom-39" d="M 194.6,142.5 L 190.2,162.8" style="fill:none;fill-rule:evenodd;stroke:#000000;stroke-width:2.0px;stroke-linecap:butt;stroke-linejoin:miter;stroke-opacity:1"/>
<path class="bond-39 atom-39 atom-40" d="M 190.2,162.8 L 185.9,183.1" style="fill:none;fill-rule:evenodd;stroke:#000000;stroke-width:2.0px;stroke-linecap:butt;stroke-linejoin:miter;stroke-opacity:1"/>
<path class="bond-40 atom-39 atom-41" d="M 190.2,162.8 L 169.9,158.5" style="fill:none;fill-rule:evenodd;stroke:#000000;stroke-width:2.0px;stroke-linecap:butt;stroke-linejoin:miter;stroke-opacity:1"/>
<path class="bond-41 atom-41 atom-42" d="M 169.9,158.5 L 164.6,164.3" style="fill:none;fill-rule:evenodd;stroke:#000000;stroke-width:2.0px;stroke-linecap:butt;stroke-linejoin:miter;stroke-opacity:1"/>
<path class="bond-41 atom-41 atom-42" d="M 164.6,164.3 L 159.3,170.2" style="fill:none;fill-rule:evenodd;stroke:#FF0000;stroke-width:2.0px;stroke-linecap:butt;stroke-linejoin:miter;stroke-opacity:1"/>
<path class="bond-42 atom-39 atom-43" d="M 190.2,162.8 L 210.6,167.2" style="fill:none;fill-rule:evenodd;stroke:#000000;stroke-width:2.0px;stroke-linecap:butt;stroke-linejoin:miter;stroke-opacity:1"/>
<path class="bond-43 atom-43 atom-44" d="M 211.1,168.9 L 216.7,162.7" style="fill:none;fill-rule:evenodd;stroke:#000000;stroke-width:2.0px;stroke-linecap:butt;stroke-linejoin:miter;stroke-opacity:1"/>
<path class="bond-43 atom-43 atom-44" d="M 216.7,162.7 L 222.3,156.5" style="fill:none;fill-rule:evenodd;stroke:#FF0000;stroke-width:2.0px;stroke-linecap:butt;stroke-linejoin:miter;stroke-opacity:1"/>
<path class="bond-43 atom-43 atom-44" d="M 208.8,166.8 L 214.4,160.6" style="fill:none;fill-rule:evenodd;stroke:#000000;stroke-width:2.0px;stroke-linecap:butt;stroke-linejoin:miter;stroke-opacity:1"/>
<path class="bond-43 atom-43 atom-44" d="M 214.4,160.6 L 219.9,154.4" style="fill:none;fill-rule:evenodd;stroke:#FF0000;stroke-width:2.0px;stroke-linecap:butt;stroke-linejoin:miter;stroke-opacity:1"/>
<path class="bond-44 atom-43 atom-45" d="M 210.6,167.2 L 213.2,175.2" style="fill:none;fill-rule:evenodd;stroke:#000000;stroke-width:2.0px;stroke-linecap:butt;stroke-linejoin:miter;stroke-opacity:1"/>
<path class="bond-44 atom-43 atom-45" d="M 213.2,175.2 L 215.8,183.3" style="fill:none;fill-rule:evenodd;stroke:#FF0000;stroke-width:2.0px;stroke-linecap:butt;stroke-linejoin:miter;stroke-opacity:1"/>
<path d="M 115.1,111.5 L 114.1,111.8 L 113.3,111.1" style="fill:none;stroke:#000000;stroke-width:2.0px;stroke-linecap:butt;stroke-linejoin:miter;stroke-opacity:1;"/>
<path d="M 85.4,112.5 L 84.7,113.3 L 84.3,113.2" style="fill:none;stroke:#000000;stroke-width:2.0px;stroke-linecap:butt;stroke-linejoin:miter;stroke-opacity:1;"/>
<path d="M 111.9,83.2 L 112.6,82.4 L 112.3,81.4" style="fill:none;stroke:#000000;stroke-width:2.0px;stroke-linecap:butt;stroke-linejoin:miter;stroke-opacity:1;"/>
<path d="M 106.5,63.6 L 106.2,62.6 L 106.9,61.9" style="fill:none;stroke:#000000;stroke-width:2.0px;stroke-linecap:butt;stroke-linejoin:miter;stroke-opacity:1;"/>
<path d="M 105.5,34.0 L 104.7,33.3 L 104.8,32.9" style="fill:none;stroke:#000000;stroke-width:2.0px;stroke-linecap:butt;stroke-linejoin:miter;stroke-opacity:1;"/>
<path d="M 134.8,60.5 L 135.5,61.2 L 136.5,60.8" style="fill:none;stroke:#000000;stroke-width:2.0px;stroke-linecap:butt;stroke-linejoin:miter;stroke-opacity:1;"/>
<path d="M 154.3,55.1 L 155.3,54.8 L 156.1,55.5" style="fill:none;stroke:#000000;stroke-width:2.0px;stroke-linecap:butt;stroke-linejoin:miter;stroke-opacity:1;"/>
<path d="M 184.0,54.0 L 184.7,53.3 L 185.1,53.4" style="fill:none;stroke:#000000;stroke-width:2.0px;stroke-linecap:butt;stroke-linejoin:miter;stroke-opacity:1;"/>
<path d="M 157.5,83.3 L 156.8,84.1 L 157.1,85.1" style="fill:none;stroke:#000000;stroke-width:2.0px;stroke-linecap:butt;stroke-linejoin:miter;stroke-opacity:1;"/>
<path d="M 162.9,102.9 L 163.2,103.9 L 164.2,104.1" style="fill:none;stroke:#000000;stroke-width:2.0px;stroke-linecap:butt;stroke-linejoin:miter;stroke-opacity:1;"/>
<path d="M 187.7,88.9 L 187.9,87.9 L 188.3,87.8" style="fill:none;stroke:#000000;stroke-width:2.0px;stroke-linecap:butt;stroke-linejoin:miter;stroke-opacity:1;"/>
<path d="M 202.8,112.4 L 203.8,112.6 L 204.5,111.8" style="fill:none;stroke:#000000;stroke-width:2.0px;stroke-linecap:butt;stroke-linejoin:miter;stroke-opacity:1;"/>
<path d="M 217.1,97.9 L 217.8,97.2 L 218.8,97.4" style="fill:none;stroke:#000000;stroke-width:2.0px;stroke-linecap:butt;stroke-linejoin:miter;stroke-opacity:1;"/>
<path d="M 257.4,105.7 L 258.4,105.9 L 258.5,106.3" style="fill:none;stroke:#000000;stroke-width:2.0px;stroke-linecap:butt;stroke-linejoin:miter;stroke-opacity:1;"/>
<path d="M 242.2,82.2 L 242.4,81.2 L 243.4,80.9" style="fill:none;stroke:#000000;stroke-width:2.0px;stroke-linecap:butt;stroke-linejoin:miter;stroke-opacity:1;"/>
<path d="M 261.2,75.1 L 262.2,74.8 L 262.4,73.8" style="fill:none;stroke:#000000;stroke-width:2.0px;stroke-linecap:butt;stroke-linejoin:miter;stroke-opacity:1;"/>
<path d="M 285.9,58.6 L 286.9,58.8 L 287.6,58.1" style="fill:none;stroke:#000000;stroke-width:2.0px;stroke-linecap:butt;stroke-linejoin:miter;stroke-opacity:1;"/>
<path d="M 270.7,35.2 L 270.9,34.2 L 270.6,33.9" style="fill:none;stroke:#000000;stroke-width:2.0px;stroke-linecap:butt;stroke-linejoin:miter;stroke-opacity:1;"/>
<path d="M 179.4,127.5 L 179.2,128.6 L 179.9,129.3" style="fill:none;stroke:#000000;stroke-width:2.0px;stroke-linecap:butt;stroke-linejoin:miter;stroke-opacity:1;"/>
<path d="M 193.8,141.8 L 194.6,142.5 L 194.4,143.5" style="fill:none;stroke:#000000;stroke-width:2.0px;stroke-linecap:butt;stroke-linejoin:miter;stroke-opacity:1;"/>
<path d="M 170.9,158.7 L 169.9,158.5 L 169.6,158.7" style="fill:none;stroke:#000000;stroke-width:2.0px;stroke-linecap:butt;stroke-linejoin:miter;stroke-opacity:1;"/>
<path d="M 209.5,166.9 L 210.6,167.2 L 210.7,167.6" style="fill:none;stroke:#000000;stroke-width:2.0px;stroke-linecap:butt;stroke-linejoin:miter;stroke-opacity:1;"/>
<path class="atom-5" d="M 55.9 106.0 L 56.7 106.0 L 56.7 108.5 L 59.7 108.5 L 59.7 106.0 L 60.5 106.0 L 60.5 111.9 L 59.7 111.9 L 59.7 109.2 L 56.7 109.2 L 56.7 111.9 L 55.9 111.9 L 55.9 106.0 " fill="#FF0000"/>
<path class="atom-5" d="M 61.7 108.9 Q 61.7 107.5, 62.4 106.7 Q 63.1 105.9, 64.4 105.9 Q 65.7 105.9, 66.4 106.7 Q 67.1 107.5, 67.1 108.9 Q 67.1 110.4, 66.4 111.2 Q 65.7 112.0, 64.4 112.0 Q 63.1 112.0, 62.4 111.2 Q 61.7 110.4, 61.7 108.9 M 64.4 111.3 Q 65.3 111.3, 65.8 110.7 Q 66.3 110.1, 66.3 108.9 Q 66.3 107.8, 65.8 107.2 Q 65.3 106.6, 64.4 106.6 Q 63.5 106.6, 63.0 107.2 Q 62.5 107.8, 62.5 108.9 Q 62.5 110.1, 63.0 110.7 Q 63.5 111.3, 64.4 111.3 " fill="#FF0000"/>
<path class="atom-11" d="M 106.3 13.0 Q 106.3 11.6, 107.0 10.8 Q 107.7 10.0, 109.0 10.0 Q 110.4 10.0, 111.0 10.8 Q 111.7 11.6, 111.7 13.0 Q 111.7 14.4, 111.0 15.2 Q 110.3 16.0, 109.0 16.0 Q 107.7 16.0, 107.0 15.2 Q 106.3 14.4, 106.3 13.0 M 109.0 15.4 Q 109.9 15.4, 110.4 14.8 Q 110.9 14.2, 110.9 13.0 Q 110.9 11.8, 110.4 11.3 Q 109.9 10.7, 109.0 10.7 Q 108.1 10.7, 107.7 11.2 Q 107.2 11.8, 107.2 13.0 Q 107.2 14.2, 107.7 14.8 Q 108.1 15.4, 109.0 15.4 " fill="#FF0000"/>
<path class="atom-11" d="M 112.7 10.1 L 113.5 10.1 L 113.5 12.6 L 116.5 12.6 L 116.5 10.1 L 117.3 10.1 L 117.3 16.0 L 116.5 16.0 L 116.5 13.2 L 113.5 13.2 L 113.5 16.0 L 112.7 16.0 L 112.7 10.1 " fill="#FF0000"/>
<path class="atom-17" d="M 202.3 57.6 Q 202.3 56.2, 203.0 55.4 Q 203.7 54.6, 205.0 54.6 Q 206.3 54.6, 207.0 55.4 Q 207.7 56.2, 207.7 57.6 Q 207.7 59.1, 207.0 59.9 Q 206.3 60.7, 205.0 60.7 Q 203.7 60.7, 203.0 59.9 Q 202.3 59.1, 202.3 57.6 M 205.0 60.0 Q 205.9 60.0, 206.4 59.4 Q 206.9 58.8, 206.9 57.6 Q 206.9 56.5, 206.4 55.9 Q 205.9 55.3, 205.0 55.3 Q 204.1 55.3, 203.6 55.9 Q 203.1 56.5, 203.1 57.6 Q 203.1 58.8, 203.6 59.4 Q 204.1 60.0, 205.0 60.0 " fill="#FF0000"/>
<path class="atom-17" d="M 208.6 54.7 L 209.4 54.7 L 209.4 57.2 L 212.4 57.2 L 212.4 54.7 L 213.2 54.7 L 213.2 60.6 L 212.4 60.6 L 212.4 57.9 L 209.4 57.9 L 209.4 60.6 L 208.6 60.6 L 208.6 54.7 " fill="#FF0000"/>
<path class="atom-22" d="M 204.9 81.5 Q 204.9 80.1, 205.6 79.3 Q 206.3 78.6, 207.6 78.6 Q 208.9 78.6, 209.6 79.3 Q 210.3 80.1, 210.3 81.5 Q 210.3 83.0, 209.6 83.8 Q 208.9 84.6, 207.6 84.6 Q 206.3 84.6, 205.6 83.8 Q 204.9 83.0, 204.9 81.5 M 207.6 83.9 Q 208.5 83.9, 209.0 83.3 Q 209.5 82.7, 209.5 81.5 Q 209.5 80.4, 209.0 79.8 Q 208.5 79.2, 207.6 79.2 Q 206.7 79.2, 206.3 79.8 Q 205.8 80.4, 205.8 81.5 Q 205.8 82.7, 206.3 83.3 Q 206.7 83.9, 207.6 83.9 " fill="#FF0000"/>
<path class="atom-22" d="M 211.3 78.6 L 212.1 78.6 L 212.1 81.1 L 215.1 81.1 L 215.1 78.6 L 215.9 78.6 L 215.9 84.5 L 215.1 84.5 L 215.1 81.8 L 212.1 81.8 L 212.1 84.5 L 211.3 84.5 L 211.3 78.6 " fill="#FF0000"/>
<path class="atom-28" d="M 262.1 125.7 Q 262.1 124.2, 262.8 123.5 Q 263.5 122.7, 264.8 122.7 Q 266.1 122.7, 266.8 123.5 Q 267.5 124.2, 267.5 125.7 Q 267.5 127.1, 266.8 127.9 Q 266.1 128.7, 264.8 128.7 Q 263.5 128.7, 262.8 127.9 Q 262.1 127.1, 262.1 125.7 M 264.8 128.0 Q 265.7 128.0, 266.2 127.4 Q 266.7 126.8, 266.7 125.7 Q 266.7 124.5, 266.2 123.9 Q 265.7 123.3, 264.8 123.3 Q 263.9 123.3, 263.4 123.9 Q 262.9 124.5, 262.9 125.7 Q 262.9 126.9, 263.4 127.4 Q 263.9 128.0, 264.8 128.0 " fill="#FF0000"/>
<path class="atom-28" d="M 268.4 122.7 L 269.2 122.7 L 269.2 125.2 L 272.2 125.2 L 272.2 122.7 L 273.0 122.7 L 273.0 128.6 L 272.2 128.6 L 272.2 125.9 L 269.2 125.9 L 269.2 128.6 L 268.4 128.6 L 268.4 122.7 " fill="#FF0000"/>
<path class="atom-36" d="M 247.0 17.3 L 247.8 17.3 L 247.8 19.8 L 250.8 19.8 L 250.8 17.3 L 251.6 17.3 L 251.6 23.2 L 250.8 23.2 L 250.8 20.5 L 247.8 20.5 L 247.8 23.2 L 247.0 23.2 L 247.0 17.3 " fill="#FF0000"/>
<path class="atom-36" d="M 252.8 20.3 Q 252.8 18.8, 253.5 18.1 Q 254.2 17.3, 255.5 17.3 Q 256.8 17.3, 257.5 18.1 Q 258.2 18.8, 258.2 20.3 Q 258.2 21.7, 257.5 22.5 Q 256.8 23.3, 255.5 23.3 Q 254.2 23.3, 253.5 22.5 Q 252.8 21.7, 252.8 20.3 M 255.5 22.6 Q 256.4 22.6, 256.9 22.0 Q 257.4 21.4, 257.4 20.3 Q 257.4 19.1, 256.9 18.5 Q 256.4 17.9, 255.5 17.9 Q 254.6 17.9, 254.1 18.5 Q 253.6 19.1, 253.6 20.3 Q 253.6 21.4, 254.1 22.0 Q 254.6 22.6, 255.5 22.6 " fill="#FF0000"/>
<path class="atom-42" d="M 147.5 171.0 L 148.3 171.0 L 148.3 173.5 L 151.3 173.5 L 151.3 171.0 L 152.1 171.0 L 152.1 176.9 L 151.3 176.9 L 151.3 174.1 L 148.3 174.1 L 148.3 176.9 L 147.5 176.9 L 147.5 171.0 " fill="#FF0000"/>
<path class="atom-42" d="M 153.3 173.9 Q 153.3 172.5, 154.0 171.7 Q 154.7 170.9, 156.0 170.9 Q 157.3 170.9, 158.0 171.7 Q 158.7 172.5, 158.7 173.9 Q 158.7 175.3, 158.0 176.1 Q 157.3 176.9, 156.0 176.9 Q 154.7 176.9, 154.0 176.1 Q 153.3 175.3, 153.3 173.9 M 156.0 176.3 Q 156.9 176.3, 157.4 175.7 Q 157.9 175.1, 157.9 173.9 Q 157.9 172.7, 157.4 172.2 Q 156.9 171.6, 156.0 171.6 Q 155.1 171.6, 154.6 172.1 Q 154.1 172.7, 154.1 173.9 Q 154.1 175.1, 154.6 175.7 Q 155.1 176.3, 156.0 176.3 " fill="#FF0000"/>
<path class="atom-44" d="M 221.8 151.8 Q 221.8 150.3, 222.5 149.6 Q 223.2 148.8, 224.5 148.8 Q 225.8 148.8, 226.5 149.6 Q 227.2 150.3, 227.2 151.8 Q 227.2 153.2, 226.5 154.0 Q 225.8 154.8, 224.5 154.8 Q 223.2 154.8, 222.5 154.0 Q 221.8 153.2, 221.8 151.8 M 224.5 154.1 Q 225.4 154.1, 225.9 153.5 Q 226.4 152.9, 226.4 151.8 Q 226.4 150.6, 225.9 150.0 Q 225.4 149.4, 224.5 149.4 Q 223.6 149.4, 223.1 150.0 Q 222.6 150.6, 222.6 151.8 Q 222.6 152.9, 223.1 153.5 Q 223.6 154.1, 224.5 154.1 " fill="#FF0000"/>
<path class="atom-45" d="M 214.2 186.9 Q 214.2 185.5, 214.9 184.7 Q 215.6 184.0, 216.9 184.0 Q 218.3 184.0, 218.9 184.7 Q 219.6 185.5, 219.6 186.9 Q 219.6 188.4, 218.9 189.2 Q 218.2 190.0, 216.9 190.0 Q 215.6 190.0, 214.9 189.2 Q 214.2 188.4, 214.2 186.9 M 216.9 189.3 Q 217.8 189.3, 218.3 188.7 Q 218.8 188.1, 218.8 186.9 Q 218.8 185.8, 218.3 185.2 Q 217.8 184.6, 216.9 184.6 Q 216.0 184.6, 215.6 185.2 Q 215.1 185.8, 215.1 186.9 Q 215.1 188.1, 215.6 188.7 Q 216.0 189.3, 216.9 189.3 " fill="#FF0000"/>
<path class="atom-45" d="M 220.6 184.0 L 221.4 184.0 L 221.4 186.5 L 224.4 186.5 L 224.4 184.0 L 225.2 184.0 L 225.2 189.9 L 224.4 189.9 L 224.4 187.2 L 221.4 187.2 L 221.4 189.9 L 220.6 189.9 L 220.6 184.0 " fill="#FF0000"/>
</svg>
