<?xml version='1.0' encoding='ASCII' standalone='yes'?>
<svg xmlns="http://www.w3.org/2000/svg" xmlns:rdkit="http://www.rdkit.org/xml" xmlns:xlink="http://www.w3.org/1999/xlink" version="1.1" baseProfile="full" xml:space="preserve" width="280px" height="200px" viewBox="0 0 280 200">
<!-- END OF HEADER -->
<rect style="opacity:1.0;fill:#FFFFFF;stroke:none" width="280.0" height="200.0" x="0.0" y="0.0"> </rect>
<path class="bond-0 atom-0 atom-1" d="M 266.0,119.3 L 231.1,106.9" style="fill:none;fill-rule:evenodd;stroke:#000000;stroke-width:2.0px;stroke-linecap:butt;stroke-linejoin:miter;stroke-opacity:1"/>
<path class="bond-1 atom-1 atom-2" d="M 231.1,106.9 L 224.4,70.4" style="fill:none;fill-rule:evenodd;stroke:#000000;stroke-width:2.0px;stroke-linecap:butt;stroke-linejoin:miter;stroke-opacity:1"/>
<path class="bond-2 atom-1 atom-3" d="M 231.1,106.9 L 202.8,130.9" style="fill:none;fill-rule:evenodd;stroke:#000000;stroke-width:2.0px;stroke-linecap:butt;stroke-linejoin:miter;stroke-opacity:1"/>
<path class="bond-2 atom-1 atom-3" d="M 225.0,104.7 L 201.6,124.6" style="fill:none;fill-rule:evenodd;stroke:#000000;stroke-width:2.0px;stroke-linecap:butt;stroke-linejoin:miter;stroke-opacity:1"/>
<path class="bond-3 atom-3 atom-4" d="M 202.8,130.9 L 167.8,118.4" style="fill:none;fill-rule:evenodd;stroke:#000000;stroke-width:2.0px;stroke-linecap:butt;stroke-linejoin:miter;stroke-opacity:1"/>
<path class="bond-4 atom-4 atom-5" d="M 167.8,118.4 L 139.6,142.5" style="fill:none;fill-rule:evenodd;stroke:#000000;stroke-width:2.0px;stroke-linecap:butt;stroke-linejoin:miter;stroke-opacity:1"/>
<path class="bond-5 atom-5 atom-6" d="M 139.6,142.5 L 134.5,156.7" style="fill:none;fill-rule:evenodd;stroke:#000000;stroke-width:2.0px;stroke-linecap:butt;stroke-linejoin:miter;stroke-opacity:1"/>
<path class="bond-5 atom-5 atom-6" d="M 134.5,156.7 L 129.4,170.9" style="fill:none;fill-rule:evenodd;stroke:#FF0000;stroke-width:2.0px;stroke-linecap:butt;stroke-linejoin:miter;stroke-opacity:1"/>
<path class="bond-6 atom-6 atom-7" d="M 121.6,170.9 L 112.3,160.0" style="fill:none;fill-rule:evenodd;stroke:#FF0000;stroke-width:2.0px;stroke-linecap:butt;stroke-linejoin:miter;stroke-opacity:1"/>
<path class="bond-6 atom-6 atom-7" d="M 112.3,160.0 L 103.1,149.1" style="fill:none;fill-rule:evenodd;stroke:#000000;stroke-width:2.0px;stroke-linecap:butt;stroke-linejoin:miter;stroke-opacity:1"/>
<path class="bond-7 atom-7 atom-8" d="M 103.1,149.1 L 71.1,167.9" style="fill:none;fill-rule:evenodd;stroke:#000000;stroke-width:2.0px;stroke-linecap:butt;stroke-linejoin:miter;stroke-opacity:1"/>
<path class="bond-8 atom-7 atom-9" d="M 103.1,149.1 L 90.2,114.4" style="fill:none;fill-rule:evenodd;stroke:#000000;stroke-width:2.0px;stroke-linecap:butt;stroke-linejoin:miter;stroke-opacity:1"/>
<path class="bond-9 atom-9 atom-10" d="M 90.2,114.4 L 113.8,85.8" style="fill:none;fill-rule:evenodd;stroke:#000000;stroke-width:2.0px;stroke-linecap:butt;stroke-linejoin:miter;stroke-opacity:1"/>
<path class="bond-10 atom-10 atom-11" d="M 113.8,85.8 L 129.1,88.4" style="fill:none;fill-rule:evenodd;stroke:#000000;stroke-width:2.0px;stroke-linecap:butt;stroke-linejoin:miter;stroke-opacity:1"/>
<path class="bond-10 atom-10 atom-11" d="M 129.1,88.4 L 144.4,91.0" style="fill:none;fill-rule:evenodd;stroke:#FF0000;stroke-width:2.0px;stroke-linecap:butt;stroke-linejoin:miter;stroke-opacity:1"/>
<path class="bond-11 atom-10 atom-12" d="M 113.8,85.8 L 100.9,51.0" style="fill:none;fill-rule:evenodd;stroke:#000000;stroke-width:2.0px;stroke-linecap:butt;stroke-linejoin:miter;stroke-opacity:1"/>
<path class="bond-12 atom-12 atom-13" d="M 102.1,54.0 L 111.6,42.5" style="fill:none;fill-rule:evenodd;stroke:#000000;stroke-width:2.0px;stroke-linecap:butt;stroke-linejoin:miter;stroke-opacity:1"/>
<path class="bond-12 atom-12 atom-13" d="M 111.6,42.5 L 121.2,30.9" style="fill:none;fill-rule:evenodd;stroke:#FF0000;stroke-width:2.0px;stroke-linecap:butt;stroke-linejoin:miter;stroke-opacity:1"/>
<path class="bond-12 atom-12 atom-13" d="M 97.8,50.5 L 107.3,38.9" style="fill:none;fill-rule:evenodd;stroke:#000000;stroke-width:2.0px;stroke-linecap:butt;stroke-linejoin:miter;stroke-opacity:1"/>
<path class="bond-12 atom-12 atom-13" d="M 107.3,38.9 L 116.9,27.4" style="fill:none;fill-rule:evenodd;stroke:#FF0000;stroke-width:2.0px;stroke-linecap:butt;stroke-linejoin:miter;stroke-opacity:1"/>
<path class="bond-13 atom-12 atom-14" d="M 100.9,51.0 L 64.4,44.8" style="fill:none;fill-rule:evenodd;stroke:#000000;stroke-width:2.0px;stroke-linecap:butt;stroke-linejoin:miter;stroke-opacity:1"/>
<path class="bond-14 atom-14 atom-15" d="M 64.4,44.8 L 40.7,73.4" style="fill:none;fill-rule:evenodd;stroke:#000000;stroke-width:2.0px;stroke-linecap:butt;stroke-linejoin:miter;stroke-opacity:1"/>
<path class="bond-15 atom-15 atom-16" d="M 40.7,73.4 L 53.6,108.1" style="fill:none;fill-rule:evenodd;stroke:#000000;stroke-width:2.0px;stroke-linecap:butt;stroke-linejoin:miter;stroke-opacity:1"/>
<path class="bond-16 atom-16 atom-17" d="M 53.6,108.1 L 47.4,144.7" style="fill:none;fill-rule:evenodd;stroke:#000000;stroke-width:2.0px;stroke-linecap:butt;stroke-linejoin:miter;stroke-opacity:1"/>
<path class="bond-17 atom-17 atom-18" d="M 47.4,144.7 L 36.1,135.4" style="fill:none;fill-rule:evenodd;stroke:#000000;stroke-width:2.0px;stroke-linecap:butt;stroke-linejoin:miter;stroke-opacity:1"/>
<path class="bond-17 atom-17 atom-18" d="M 36.1,135.4 L 24.9,126.1" style="fill:none;fill-rule:evenodd;stroke:#FF0000;stroke-width:2.0px;stroke-linecap:butt;stroke-linejoin:miter;stroke-opacity:1"/>
<path class="bond-18 atom-7 atom-5" d="M 103.1,149.1 L 139.6,142.5" style="fill:none;fill-rule:evenodd;stroke:#000000;stroke-width:2.0px;stroke-linecap:butt;stroke-linejoin:miter;stroke-opacity:1"/>
<path class="bond-19 atom-16 atom-9" d="M 53.6,108.1 L 90.2,114.4" style="fill:none;fill-rule:evenodd;stroke:#000000;stroke-width:2.0px;stroke-linecap:butt;stroke-linejoin:miter;stroke-opacity:1"/>
<path class="bond-20 atom-18 atom-16" d="M 24.9,118.8 L 39.2,113.5" style="fill:none;fill-rule:evenodd;stroke:#FF0000;stroke-width:2.0px;stroke-linecap:butt;stroke-linejoin:miter;stroke-opacity:1"/>
<path class="bond-20 atom-18 atom-16" d="M 39.2,113.5 L 53.6,108.1" style="fill:none;fill-rule:evenodd;stroke:#000000;stroke-width:2.0px;stroke-linecap:butt;stroke-linejoin:miter;stroke-opacity:1"/>
<path d="M 204.2,129.7 L 202.8,130.9 L 201.0,130.3" style="fill:none;stroke:#000000;stroke-width:2.0px;stroke-linecap:butt;stroke-linejoin:miter;stroke-opacity:1;"/>
<path d="M 169.6,119.1 L 167.8,118.4 L 166.4,119.6" style="fill:none;stroke:#000000;stroke-width:2.0px;stroke-linecap:butt;stroke-linejoin:miter;stroke-opacity:1;"/>
<path d="M 101.6,52.7 L 100.9,51.0 L 99.1,50.7" style="fill:none;stroke:#000000;stroke-width:2.0px;stroke-linecap:butt;stroke-linejoin:miter;stroke-opacity:1;"/>
<path d="M 66.2,45.1 L 64.4,44.8 L 63.2,46.2" style="fill:none;stroke:#000000;stroke-width:2.0px;stroke-linecap:butt;stroke-linejoin:miter;stroke-opacity:1;"/>
<path d="M 41.9,71.9 L 40.7,73.4 L 41.3,75.1" style="fill:none;stroke:#000000;stroke-width:2.0px;stroke-linecap:butt;stroke-linejoin:miter;stroke-opacity:1;"/>
<path d="M 47.7,142.9 L 47.4,144.7 L 46.8,144.3" style="fill:none;stroke:#000000;stroke-width:2.0px;stroke-linecap:butt;stroke-linejoin:miter;stroke-opacity:1;"/>
<path class="atom-6" d="M 122.3 177.4 Q 122.3 174.9, 123.5 173.5 Q 124.8 172.1, 127.1 172.1 Q 129.4 172.1, 130.7 173.5 Q 131.9 174.9, 131.9 177.4 Q 131.9 180.0, 130.7 181.4 Q 129.4 182.9, 127.1 182.9 Q 124.8 182.9, 123.5 181.4 Q 122.3 180.0, 122.3 177.4 M 127.1 181.7 Q 128.7 181.7, 129.6 180.6 Q 130.5 179.5, 130.5 177.4 Q 130.5 175.4, 129.6 174.3 Q 128.7 173.3, 127.1 173.3 Q 125.5 173.3, 124.6 174.3 Q 123.8 175.4, 123.8 177.4 Q 123.8 179.6, 124.6 180.6 Q 125.5 181.7, 127.1 181.7 " fill="#FF0000"/>
<path class="atom-11" d="M 145.6 92.0 Q 145.6 89.5, 146.8 88.1 Q 148.1 86.7, 150.4 86.7 Q 152.8 86.7, 154.0 88.1 Q 155.2 89.5, 155.2 92.0 Q 155.2 94.6, 154.0 96.0 Q 152.7 97.5, 150.4 97.5 Q 148.1 97.5, 146.8 96.0 Q 145.6 94.6, 145.6 92.0 M 150.4 96.3 Q 152.0 96.3, 152.9 95.2 Q 153.8 94.1, 153.8 92.0 Q 153.8 90.0, 152.9 88.9 Q 152.0 87.9, 150.4 87.9 Q 148.8 87.9, 147.9 88.9 Q 147.1 89.9, 147.1 92.0 Q 147.1 94.1, 147.9 95.2 Q 148.8 96.3, 150.4 96.3 " fill="#FF0000"/>
<path class="atom-11" d="M 156.9 86.8 L 158.3 86.8 L 158.3 91.3 L 163.7 91.3 L 163.7 86.8 L 165.1 86.8 L 165.1 97.3 L 163.7 97.3 L 163.7 92.5 L 158.3 92.5 L 158.3 97.3 L 156.9 97.3 L 156.9 86.8 " fill="#FF0000"/>
<path class="atom-13" d="M 119.8 22.5 Q 119.8 19.9, 121.0 18.5 Q 122.3 17.1, 124.6 17.1 Q 126.9 17.1, 128.2 18.5 Q 129.4 19.9, 129.4 22.5 Q 129.4 25.0, 128.2 26.5 Q 126.9 27.9, 124.6 27.9 Q 122.3 27.9, 121.0 26.5 Q 119.8 25.0, 119.8 22.5 M 124.6 26.7 Q 126.2 26.7, 127.1 25.7 Q 127.9 24.6, 127.9 22.5 Q 127.9 20.4, 127.1 19.4 Q 126.2 18.3, 124.6 18.3 Q 123.0 18.3, 122.1 19.3 Q 121.3 20.4, 121.3 22.5 Q 121.3 24.6, 122.1 25.7 Q 123.0 26.7, 124.6 26.7 " fill="#FF0000"/>
<path class="atom-18" d="M 14.0 121.1 Q 14.0 118.6, 15.2 117.1 Q 16.5 115.7, 18.8 115.7 Q 21.2 115.7, 22.4 117.1 Q 23.6 118.6, 23.6 121.1 Q 23.6 123.6, 22.4 125.1 Q 21.1 126.5, 18.8 126.5 Q 16.5 126.5, 15.2 125.1 Q 14.0 123.6, 14.0 121.1 M 18.8 125.3 Q 20.4 125.3, 21.3 124.3 Q 22.2 123.2, 22.2 121.1 Q 22.2 119.0, 21.3 118.0 Q 20.4 116.9, 18.8 116.9 Q 17.2 116.9, 16.3 118.0 Q 15.5 119.0, 15.5 121.1 Q 15.5 123.2, 16.3 124.3 Q 17.2 125.3, 18.8 125.3 " fill="#FF0000"/>
</svg>
