<?xml version='1.0' encoding='ASCII' standalone='yes'?>
<svg xmlns="http://www.w3.org/2000/svg" xmlns:rdkit="http://www.rdkit.org/xml" xmlns:xlink="http://www.w3.org/1999/xlink" version="1.1" baseProfile="full" xml:space="preserve" width="347px" height="200px" viewBox="0 0 347 200">
<!-- END OF HEADER -->
<rect style="opacity:1.0;fill:#FFFFFF;stroke:none" width="347.0" height="200.0" x="0.0" y="0.0"> </rect>
<path class="bond-0 atom-0 atom-1" d="M 281.9,55.7 L 286.4,76.3" style="fill:none;fill-rule:evenodd;stroke:#000000;stroke-width:2.0px;stroke-linecap:butt;stroke-linejoin:miter;stroke-opacity:1"/>
<path class="bond-1 atom-1 atom-2" d="M 286.4,76.3 L 290.8,96.8" style="fill:none;fill-rule:evenodd;stroke:#000000;stroke-width:2.0px;stroke-linecap:butt;stroke-linejoin:miter;stroke-opacity:1"/>
<path class="bond-2 atom-1 atom-3" d="M 286.4,76.3 L 306.9,71.8" style="fill:none;fill-rule:evenodd;stroke:#000000;stroke-width:2.0px;stroke-linecap:butt;stroke-linejoin:miter;stroke-opacity:1"/>
<path class="bond-3 atom-3 atom-4" d="M 306.9,71.8 L 312.3,77.7" style="fill:none;fill-rule:evenodd;stroke:#000000;stroke-width:2.0px;stroke-linecap:butt;stroke-linejoin:miter;stroke-opacity:1"/>
<path class="bond-3 atom-3 atom-4" d="M 312.3,77.7 L 317.7,83.7" style="fill:none;fill-rule:evenodd;stroke:#FF0000;stroke-width:2.0px;stroke-linecap:butt;stroke-linejoin:miter;stroke-opacity:1"/>
<path class="bond-4 atom-1 atom-5" d="M 286.4,76.3 L 265.8,80.7" style="fill:none;fill-rule:evenodd;stroke:#000000;stroke-width:2.0px;stroke-linecap:butt;stroke-linejoin:miter;stroke-opacity:1"/>
<path class="bond-5 atom-5 atom-6" d="M 265.8,80.7 L 259.4,100.8" style="fill:none;fill-rule:evenodd;stroke:#000000;stroke-width:2.0px;stroke-linecap:butt;stroke-linejoin:miter;stroke-opacity:1"/>
<path class="bond-6 atom-6 atom-7" d="M 259.4,100.8 L 238.9,105.2" style="fill:none;fill-rule:evenodd;stroke:#000000;stroke-width:2.0px;stroke-linecap:butt;stroke-linejoin:miter;stroke-opacity:1"/>
<path class="bond-7 atom-7 atom-8" d="M 238.9,105.2 L 232.4,125.2" style="fill:none;fill-rule:evenodd;stroke:#000000;stroke-width:2.0px;stroke-linecap:butt;stroke-linejoin:miter;stroke-opacity:1"/>
<path class="bond-8 atom-8 atom-9" d="M 232.4,125.2 L 211.9,129.7" style="fill:none;fill-rule:evenodd;stroke:#000000;stroke-width:2.0px;stroke-linecap:butt;stroke-linejoin:miter;stroke-opacity:1"/>
<path class="bond-9 atom-9 atom-10" d="M 211.9,129.7 L 191.4,134.2" style="fill:none;fill-rule:evenodd;stroke:#000000;stroke-width:2.0px;stroke-linecap:butt;stroke-linejoin:miter;stroke-opacity:1"/>
<path class="bond-10 atom-9 atom-11" d="M 211.9,129.7 L 216.4,150.2" style="fill:none;fill-rule:evenodd;stroke:#000000;stroke-width:2.0px;stroke-linecap:butt;stroke-linejoin:miter;stroke-opacity:1"/>
<path class="bond-11 atom-11 atom-12" d="M 216.4,150.2 L 210.3,155.8" style="fill:none;fill-rule:evenodd;stroke:#000000;stroke-width:2.0px;stroke-linecap:butt;stroke-linejoin:miter;stroke-opacity:1"/>
<path class="bond-11 atom-11 atom-12" d="M 210.3,155.8 L 204.2,161.3" style="fill:none;fill-rule:evenodd;stroke:#FF0000;stroke-width:2.0px;stroke-linecap:butt;stroke-linejoin:miter;stroke-opacity:1"/>
<path class="bond-12 atom-9 atom-13" d="M 211.9,129.7 L 207.4,109.2" style="fill:none;fill-rule:evenodd;stroke:#000000;stroke-width:2.0px;stroke-linecap:butt;stroke-linejoin:miter;stroke-opacity:1"/>
<path class="bond-13 atom-13 atom-14" d="M 207.4,109.2 L 187.4,102.8" style="fill:none;fill-rule:evenodd;stroke:#000000;stroke-width:2.0px;stroke-linecap:butt;stroke-linejoin:miter;stroke-opacity:1"/>
<path class="bond-14 atom-14 atom-15" d="M 187.4,102.8 L 181.3,108.3" style="fill:none;fill-rule:evenodd;stroke:#000000;stroke-width:2.0px;stroke-linecap:butt;stroke-linejoin:miter;stroke-opacity:1"/>
<path class="bond-14 atom-14 atom-15" d="M 181.3,108.3 L 175.3,113.8" style="fill:none;fill-rule:evenodd;stroke:#FF0000;stroke-width:2.0px;stroke-linecap:butt;stroke-linejoin:miter;stroke-opacity:1"/>
<path class="bond-15 atom-14 atom-16" d="M 187.4,102.8 L 183.0,82.2" style="fill:none;fill-rule:evenodd;stroke:#000000;stroke-width:2.0px;stroke-linecap:butt;stroke-linejoin:miter;stroke-opacity:1"/>
<path class="bond-16 atom-16 atom-17" d="M 183.0,82.2 L 203.5,77.7" style="fill:none;fill-rule:evenodd;stroke:#000000;stroke-width:2.0px;stroke-linecap:butt;stroke-linejoin:miter;stroke-opacity:1"/>
<path class="bond-17 atom-16 atom-18" d="M 183.0,82.2 L 162.4,86.7" style="fill:none;fill-rule:evenodd;stroke:#000000;stroke-width:2.0px;stroke-linecap:butt;stroke-linejoin:miter;stroke-opacity:1"/>
<path class="bond-18 atom-18 atom-19" d="M 162.4,86.7 L 148.3,71.1" style="fill:none;fill-rule:evenodd;stroke:#000000;stroke-width:2.0px;stroke-linecap:butt;stroke-linejoin:miter;stroke-opacity:1"/>
<path class="bond-19 atom-19 atom-20" d="M 148.3,71.1 L 156.4,61.7" style="fill:none;fill-rule:evenodd;stroke:#000000;stroke-width:2.0px;stroke-linecap:butt;stroke-linejoin:miter;stroke-opacity:1"/>
<path class="bond-20 atom-19 atom-21" d="M 148.3,71.1 L 134.1,55.5" style="fill:none;fill-rule:evenodd;stroke:#000000;stroke-width:2.0px;stroke-linecap:butt;stroke-linejoin:miter;stroke-opacity:1"/>
<path class="bond-21 atom-21 atom-22" d="M 134.1,55.5 L 136.7,47.4" style="fill:none;fill-rule:evenodd;stroke:#000000;stroke-width:2.0px;stroke-linecap:butt;stroke-linejoin:miter;stroke-opacity:1"/>
<path class="bond-21 atom-21 atom-22" d="M 136.7,47.4 L 139.3,39.3" style="fill:none;fill-rule:evenodd;stroke:#FF0000;stroke-width:2.0px;stroke-linecap:butt;stroke-linejoin:miter;stroke-opacity:1"/>
<path class="bond-22 atom-19 atom-23" d="M 148.3,71.1 L 132.7,85.2" style="fill:none;fill-rule:evenodd;stroke:#000000;stroke-width:2.0px;stroke-linecap:butt;stroke-linejoin:miter;stroke-opacity:1"/>
<path class="bond-23 atom-23 atom-24" d="M 132.7,85.2 L 112.7,78.8" style="fill:none;fill-rule:evenodd;stroke:#000000;stroke-width:2.0px;stroke-linecap:butt;stroke-linejoin:miter;stroke-opacity:1"/>
<path class="bond-24 atom-24 atom-25" d="M 112.7,78.8 L 97.1,93.0" style="fill:none;fill-rule:evenodd;stroke:#000000;stroke-width:2.0px;stroke-linecap:butt;stroke-linejoin:miter;stroke-opacity:1"/>
<path class="bond-25 atom-25 atom-26" d="M 97.1,93.0 L 77.1,86.6" style="fill:none;fill-rule:evenodd;stroke:#000000;stroke-width:2.0px;stroke-linecap:butt;stroke-linejoin:miter;stroke-opacity:1"/>
<path class="bond-26 atom-26 atom-27" d="M 77.1,86.6 L 61.5,100.7" style="fill:none;fill-rule:evenodd;stroke:#000000;stroke-width:2.0px;stroke-linecap:butt;stroke-linejoin:miter;stroke-opacity:1"/>
<path class="bond-27 atom-27 atom-28" d="M 61.5,100.7 L 75.7,116.3" style="fill:none;fill-rule:evenodd;stroke:#000000;stroke-width:2.0px;stroke-linecap:butt;stroke-linejoin:miter;stroke-opacity:1"/>
<path class="bond-28 atom-27 atom-29" d="M 61.5,100.7 L 47.4,85.1" style="fill:none;fill-rule:evenodd;stroke:#000000;stroke-width:2.0px;stroke-linecap:butt;stroke-linejoin:miter;stroke-opacity:1"/>
<path class="bond-29 atom-27 atom-30" d="M 61.5,100.7 L 46.0,114.8" style="fill:none;fill-rule:evenodd;stroke:#000000;stroke-width:2.0px;stroke-linecap:butt;stroke-linejoin:miter;stroke-opacity:1"/>
<path class="bond-30 atom-30 atom-31" d="M 46.0,114.8 L 37.7,112.2" style="fill:none;fill-rule:evenodd;stroke:#000000;stroke-width:2.0px;stroke-linecap:butt;stroke-linejoin:miter;stroke-opacity:1"/>
<path class="bond-30 atom-30 atom-31" d="M 37.7,112.2 L 29.4,109.5" style="fill:none;fill-rule:evenodd;stroke:#FF0000;stroke-width:2.0px;stroke-linecap:butt;stroke-linejoin:miter;stroke-opacity:1"/>
<path class="bond-31 atom-25 atom-32" d="M 97.1,93.0 L 101.6,113.5" style="fill:none;fill-rule:evenodd;stroke:#000000;stroke-width:2.0px;stroke-linecap:butt;stroke-linejoin:miter;stroke-opacity:1"/>
<path class="bond-32 atom-32 atom-33" d="M 100.3,114.7 L 109.0,117.5" style="fill:none;fill-rule:evenodd;stroke:#000000;stroke-width:2.0px;stroke-linecap:butt;stroke-linejoin:miter;stroke-opacity:1"/>
<path class="bond-32 atom-32 atom-33" d="M 109.0,117.5 L 117.7,120.3" style="fill:none;fill-rule:evenodd;stroke:#FF0000;stroke-width:2.0px;stroke-linecap:butt;stroke-linejoin:miter;stroke-opacity:1"/>
<path class="bond-32 atom-32 atom-33" d="M 101.2,111.8 L 109.9,114.6" style="fill:none;fill-rule:evenodd;stroke:#000000;stroke-width:2.0px;stroke-linecap:butt;stroke-linejoin:miter;stroke-opacity:1"/>
<path class="bond-32 atom-32 atom-33" d="M 109.9,114.6 L 118.7,117.4" style="fill:none;fill-rule:evenodd;stroke:#FF0000;stroke-width:2.0px;stroke-linecap:butt;stroke-linejoin:miter;stroke-opacity:1"/>
<path class="bond-33 atom-32 atom-34" d="M 101.6,113.5 L 95.5,119.0" style="fill:none;fill-rule:evenodd;stroke:#000000;stroke-width:2.0px;stroke-linecap:butt;stroke-linejoin:miter;stroke-opacity:1"/>
<path class="bond-33 atom-32 atom-34" d="M 95.5,119.0 L 89.4,124.6" style="fill:none;fill-rule:evenodd;stroke:#FF0000;stroke-width:2.0px;stroke-linecap:butt;stroke-linejoin:miter;stroke-opacity:1"/>
<path class="bond-34 atom-16 atom-35" d="M 183.0,82.2 L 178.5,61.7" style="fill:none;fill-rule:evenodd;stroke:#000000;stroke-width:2.0px;stroke-linecap:butt;stroke-linejoin:miter;stroke-opacity:1"/>
<path class="bond-35 atom-35 atom-36" d="M 179.7,60.5 L 175.5,58.6" style="fill:none;fill-rule:evenodd;stroke:#000000;stroke-width:2.0px;stroke-linecap:butt;stroke-linejoin:miter;stroke-opacity:1"/>
<path class="bond-35 atom-35 atom-36" d="M 175.5,58.6 L 171.3,56.6" style="fill:none;fill-rule:evenodd;stroke:#FF0000;stroke-width:2.0px;stroke-linecap:butt;stroke-linejoin:miter;stroke-opacity:1"/>
<path class="bond-35 atom-35 atom-36" d="M 178.9,63.6 L 174.2,61.4" style="fill:none;fill-rule:evenodd;stroke:#000000;stroke-width:2.0px;stroke-linecap:butt;stroke-linejoin:miter;stroke-opacity:1"/>
<path class="bond-35 atom-35 atom-36" d="M 174.2,61.4 L 170.0,59.4" style="fill:none;fill-rule:evenodd;stroke:#FF0000;stroke-width:2.0px;stroke-linecap:butt;stroke-linejoin:miter;stroke-opacity:1"/>
<path class="bond-36 atom-35 atom-37" d="M 178.5,61.7 L 184.6,56.1" style="fill:none;fill-rule:evenodd;stroke:#000000;stroke-width:2.0px;stroke-linecap:butt;stroke-linejoin:miter;stroke-opacity:1"/>
<path class="bond-36 atom-35 atom-37" d="M 184.6,56.1 L 190.6,50.6" style="fill:none;fill-rule:evenodd;stroke:#FF0000;stroke-width:2.0px;stroke-linecap:butt;stroke-linejoin:miter;stroke-opacity:1"/>
<path class="bond-37 atom-6 atom-38" d="M 259.4,100.8 L 273.5,116.3" style="fill:none;fill-rule:evenodd;stroke:#000000;stroke-width:2.0px;stroke-linecap:butt;stroke-linejoin:miter;stroke-opacity:1"/>
<path class="bond-38 atom-38 atom-39" d="M 273.0,118.0 L 282.0,116.1" style="fill:none;fill-rule:evenodd;stroke:#000000;stroke-width:2.0px;stroke-linecap:butt;stroke-linejoin:miter;stroke-opacity:1"/>
<path class="bond-38 atom-38 atom-39" d="M 282.0,116.1 L 291.0,114.1" style="fill:none;fill-rule:evenodd;stroke:#FF0000;stroke-width:2.0px;stroke-linecap:butt;stroke-linejoin:miter;stroke-opacity:1"/>
<path class="bond-38 atom-38 atom-39" d="M 272.3,115.0 L 281.3,113.0" style="fill:none;fill-rule:evenodd;stroke:#000000;stroke-width:2.0px;stroke-linecap:butt;stroke-linejoin:miter;stroke-opacity:1"/>
<path class="bond-38 atom-38 atom-39" d="M 281.3,113.0 L 290.3,111.1" style="fill:none;fill-rule:evenodd;stroke:#FF0000;stroke-width:2.0px;stroke-linecap:butt;stroke-linejoin:miter;stroke-opacity:1"/>
<path class="bond-39 atom-38 atom-40" d="M 273.5,116.3 L 270.9,124.5" style="fill:none;fill-rule:evenodd;stroke:#000000;stroke-width:2.0px;stroke-linecap:butt;stroke-linejoin:miter;stroke-opacity:1"/>
<path class="bond-39 atom-38 atom-40" d="M 270.9,124.5 L 268.3,132.7" style="fill:none;fill-rule:evenodd;stroke:#FF0000;stroke-width:2.0px;stroke-linecap:butt;stroke-linejoin:miter;stroke-opacity:1"/>
<path d="M 305.9,72.0 L 306.9,71.8 L 307.2,72.1" style="fill:none;stroke:#000000;stroke-width:2.0px;stroke-linecap:butt;stroke-linejoin:miter;stroke-opacity:1;"/>
<path d="M 266.8,80.5 L 265.8,80.7 L 265.5,81.7" style="fill:none;stroke:#000000;stroke-width:2.0px;stroke-linecap:butt;stroke-linejoin:miter;stroke-opacity:1;"/>
<path d="M 239.9,105.0 L 238.9,105.2 L 238.5,106.2" style="fill:none;stroke:#000000;stroke-width:2.0px;stroke-linecap:butt;stroke-linejoin:miter;stroke-opacity:1;"/>
<path d="M 232.8,124.2 L 232.4,125.2 L 231.4,125.5" style="fill:none;stroke:#000000;stroke-width:2.0px;stroke-linecap:butt;stroke-linejoin:miter;stroke-opacity:1;"/>
<path d="M 216.1,149.2 L 216.4,150.2 L 216.1,150.5" style="fill:none;stroke:#000000;stroke-width:2.0px;stroke-linecap:butt;stroke-linejoin:miter;stroke-opacity:1;"/>
<path d="M 207.7,110.2 L 207.4,109.2 L 206.4,108.8" style="fill:none;stroke:#000000;stroke-width:2.0px;stroke-linecap:butt;stroke-linejoin:miter;stroke-opacity:1;"/>
<path d="M 163.4,86.4 L 162.4,86.7 L 161.7,85.9" style="fill:none;stroke:#000000;stroke-width:2.0px;stroke-linecap:butt;stroke-linejoin:miter;stroke-opacity:1;"/>
<path d="M 134.8,56.3 L 134.1,55.5 L 134.3,55.1" style="fill:none;stroke:#000000;stroke-width:2.0px;stroke-linecap:butt;stroke-linejoin:miter;stroke-opacity:1;"/>
<path d="M 133.5,84.5 L 132.7,85.2 L 131.7,84.9" style="fill:none;stroke:#000000;stroke-width:2.0px;stroke-linecap:butt;stroke-linejoin:miter;stroke-opacity:1;"/>
<path d="M 113.7,79.2 L 112.7,78.8 L 111.9,79.5" style="fill:none;stroke:#000000;stroke-width:2.0px;stroke-linecap:butt;stroke-linejoin:miter;stroke-opacity:1;"/>
<path d="M 78.1,86.9 L 77.1,86.6 L 76.3,87.3" style="fill:none;stroke:#000000;stroke-width:2.0px;stroke-linecap:butt;stroke-linejoin:miter;stroke-opacity:1;"/>
<path d="M 46.8,114.1 L 46.0,114.8 L 45.6,114.7" style="fill:none;stroke:#000000;stroke-width:2.0px;stroke-linecap:butt;stroke-linejoin:miter;stroke-opacity:1;"/>
<path d="M 101.4,112.5 L 101.6,113.5 L 101.3,113.8" style="fill:none;stroke:#000000;stroke-width:2.0px;stroke-linecap:butt;stroke-linejoin:miter;stroke-opacity:1;"/>
<path d="M 178.7,62.7 L 178.5,61.7 L 178.8,61.4" style="fill:none;stroke:#000000;stroke-width:2.0px;stroke-linecap:butt;stroke-linejoin:miter;stroke-opacity:1;"/>
<path d="M 272.8,115.5 L 273.5,116.3 L 273.4,116.7" style="fill:none;stroke:#000000;stroke-width:2.0px;stroke-linecap:butt;stroke-linejoin:miter;stroke-opacity:1;"/>
<path class="atom-4" d="M 318.3 87.4 Q 318.3 86.0, 319.0 85.2 Q 319.7 84.4, 321.0 84.4 Q 322.4 84.4, 323.1 85.2 Q 323.8 86.0, 323.8 87.4 Q 323.8 88.8, 323.0 89.7 Q 322.3 90.5, 321.0 90.5 Q 319.7 90.5, 319.0 89.7 Q 318.3 88.8, 318.3 87.4 M 321.0 89.8 Q 321.9 89.8, 322.4 89.2 Q 322.9 88.6, 322.9 87.4 Q 322.9 86.2, 322.4 85.6 Q 321.9 85.0, 321.0 85.0 Q 320.1 85.0, 319.6 85.6 Q 319.1 86.2, 319.1 87.4 Q 319.1 88.6, 319.6 89.2 Q 320.1 89.8, 321.0 89.8 " fill="#FF0000"/>
<path class="atom-4" d="M 324.7 84.4 L 325.5 84.4 L 325.5 87.0 L 328.5 87.0 L 328.5 84.4 L 329.4 84.4 L 329.4 90.4 L 328.5 90.4 L 328.5 87.6 L 325.5 87.6 L 325.5 90.4 L 324.7 90.4 L 324.7 84.4 " fill="#FF0000"/>
<path class="atom-12" d="M 192.2 161.4 L 193.0 161.4 L 193.0 164.0 L 196.0 164.0 L 196.0 161.4 L 196.8 161.4 L 196.8 167.4 L 196.0 167.4 L 196.0 164.6 L 193.0 164.6 L 193.0 167.4 L 192.2 167.4 L 192.2 161.4 " fill="#FF0000"/>
<path class="atom-12" d="M 198.1 164.4 Q 198.1 163.0, 198.8 162.2 Q 199.5 161.4, 200.8 161.4 Q 202.1 161.4, 202.8 162.2 Q 203.5 163.0, 203.5 164.4 Q 203.5 165.8, 202.8 166.7 Q 202.1 167.5, 200.8 167.5 Q 199.5 167.5, 198.8 166.7 Q 198.1 165.9, 198.1 164.4 M 200.8 166.8 Q 201.7 166.8, 202.2 166.2 Q 202.7 165.6, 202.7 164.4 Q 202.7 163.2, 202.2 162.6 Q 201.7 162.0, 200.8 162.0 Q 199.9 162.0, 199.4 162.6 Q 198.9 163.2, 198.9 164.4 Q 198.9 165.6, 199.4 166.2 Q 199.9 166.8, 200.8 166.8 " fill="#FF0000"/>
<path class="atom-15" d="M 163.2 113.9 L 164.1 113.9 L 164.1 116.5 L 167.1 116.5 L 167.1 113.9 L 167.9 113.9 L 167.9 119.9 L 167.1 119.9 L 167.1 117.1 L 164.1 117.1 L 164.1 119.9 L 163.2 119.9 L 163.2 113.9 " fill="#FF0000"/>
<path class="atom-15" d="M 169.1 116.9 Q 169.1 115.5, 169.8 114.7 Q 170.5 113.9, 171.9 113.9 Q 173.2 113.9, 173.9 114.7 Q 174.6 115.5, 174.6 116.9 Q 174.6 118.4, 173.9 119.2 Q 173.2 120.0, 171.9 120.0 Q 170.5 120.0, 169.8 119.2 Q 169.1 118.4, 169.1 116.9 M 171.9 119.3 Q 172.8 119.3, 173.3 118.7 Q 173.7 118.1, 173.7 116.9 Q 173.7 115.7, 173.3 115.1 Q 172.8 114.5, 171.9 114.5 Q 170.9 114.5, 170.5 115.1 Q 170.0 115.7, 170.0 116.9 Q 170.0 118.1, 170.5 118.7 Q 170.9 119.3, 171.9 119.3 " fill="#FF0000"/>
<path class="atom-22" d="M 137.8 35.5 Q 137.8 34.1, 138.5 33.3 Q 139.2 32.5, 140.5 32.5 Q 141.9 32.5, 142.6 33.3 Q 143.3 34.1, 143.3 35.5 Q 143.3 37.0, 142.6 37.8 Q 141.9 38.6, 140.5 38.6 Q 139.2 38.6, 138.5 37.8 Q 137.8 37.0, 137.8 35.5 M 140.5 38.0 Q 141.5 38.0, 141.9 37.3 Q 142.4 36.7, 142.4 35.5 Q 142.4 34.4, 141.9 33.8 Q 141.5 33.2, 140.5 33.2 Q 139.6 33.2, 139.1 33.8 Q 138.7 34.4, 138.7 35.5 Q 138.7 36.7, 139.1 37.3 Q 139.6 38.0, 140.5 38.0 " fill="#FF0000"/>
<path class="atom-22" d="M 144.2 32.6 L 145.0 32.6 L 145.0 35.1 L 148.1 35.1 L 148.1 32.6 L 148.9 32.6 L 148.9 38.5 L 148.1 38.5 L 148.1 35.8 L 145.0 35.8 L 145.0 38.5 L 144.2 38.5 L 144.2 32.6 " fill="#FF0000"/>
<path class="atom-31" d="M 17.4 105.5 L 18.2 105.5 L 18.2 108.0 L 21.2 108.0 L 21.2 105.5 L 22.0 105.5 L 22.0 111.4 L 21.2 111.4 L 21.2 108.7 L 18.2 108.7 L 18.2 111.4 L 17.4 111.4 L 17.4 105.5 " fill="#FF0000"/>
<path class="atom-31" d="M 23.2 108.4 Q 23.2 107.0, 23.9 106.2 Q 24.6 105.4, 26.0 105.4 Q 27.3 105.4, 28.0 106.2 Q 28.7 107.0, 28.7 108.4 Q 28.7 109.9, 28.0 110.7 Q 27.3 111.5, 26.0 111.5 Q 24.7 111.5, 23.9 110.7 Q 23.2 109.9, 23.2 108.4 M 26.0 110.9 Q 26.9 110.9, 27.4 110.3 Q 27.9 109.6, 27.9 108.4 Q 27.9 107.3, 27.4 106.7 Q 26.9 106.1, 26.0 106.1 Q 25.1 106.1, 24.6 106.7 Q 24.1 107.3, 24.1 108.4 Q 24.1 109.6, 24.6 110.3 Q 25.1 110.9, 26.0 110.9 " fill="#FF0000"/>
<path class="atom-33" d="M 118.9 119.9 Q 118.9 118.5, 119.6 117.7 Q 120.3 116.9, 121.6 116.9 Q 122.9 116.9, 123.6 117.7 Q 124.3 118.5, 124.3 119.9 Q 124.3 121.4, 123.6 122.2 Q 122.9 123.0, 121.6 123.0 Q 120.3 123.0, 119.6 122.2 Q 118.9 121.4, 118.9 119.9 M 121.6 122.4 Q 122.5 122.4, 123.0 121.7 Q 123.5 121.1, 123.5 119.9 Q 123.5 118.8, 123.0 118.2 Q 122.5 117.6, 121.6 117.6 Q 120.7 117.6, 120.2 118.2 Q 119.7 118.8, 119.7 119.9 Q 119.7 121.1, 120.2 121.7 Q 120.7 122.4, 121.6 122.4 " fill="#FF0000"/>
<path class="atom-34" d="M 77.4 124.7 L 78.2 124.7 L 78.2 127.2 L 81.3 127.2 L 81.3 124.7 L 82.1 124.7 L 82.1 130.7 L 81.3 130.7 L 81.3 127.9 L 78.2 127.9 L 78.2 130.7 L 77.4 130.7 L 77.4 124.7 " fill="#FF0000"/>
<path class="atom-34" d="M 83.3 127.7 Q 83.3 126.2, 84.0 125.4 Q 84.7 124.6, 86.0 124.6 Q 87.4 124.6, 88.1 125.4 Q 88.8 126.2, 88.8 127.7 Q 88.8 129.1, 88.0 129.9 Q 87.3 130.8, 86.0 130.8 Q 84.7 130.8, 84.0 129.9 Q 83.3 129.1, 83.3 127.7 M 86.0 130.1 Q 86.9 130.1, 87.4 129.5 Q 87.9 128.9, 87.9 127.7 Q 87.9 126.5, 87.4 125.9 Q 86.9 125.3, 86.0 125.3 Q 85.1 125.3, 84.6 125.9 Q 84.1 126.5, 84.1 127.7 Q 84.1 128.9, 84.6 129.5 Q 85.1 130.1, 86.0 130.1 " fill="#FF0000"/>
<path class="atom-36" d="M 164.5 56.5 Q 164.5 55.1, 165.2 54.3 Q 165.9 53.5, 167.2 53.5 Q 168.5 53.5, 169.2 54.3 Q 170.0 55.1, 170.0 56.5 Q 170.0 57.9, 169.2 58.8 Q 168.5 59.6, 167.2 59.6 Q 165.9 59.6, 165.2 58.8 Q 164.5 57.9, 164.5 56.5 M 167.2 58.9 Q 168.1 58.9, 168.6 58.3 Q 169.1 57.7, 169.1 56.5 Q 169.1 55.3, 168.6 54.7 Q 168.1 54.1, 167.2 54.1 Q 166.3 54.1, 165.8 54.7 Q 165.3 55.3, 165.3 56.5 Q 165.3 57.7, 165.8 58.3 Q 166.3 58.9, 167.2 58.9 " fill="#FF0000"/>
<path class="atom-37" d="M 191.3 47.5 Q 191.3 46.1, 192.0 45.3 Q 192.7 44.5, 194.1 44.5 Q 195.4 44.5, 196.1 45.3 Q 196.8 46.1, 196.8 47.5 Q 196.8 49.0, 196.1 49.8 Q 195.4 50.6, 194.1 50.6 Q 192.7 50.6, 192.0 49.8 Q 191.3 49.0, 191.3 47.5 M 194.1 50.0 Q 195.0 50.0, 195.5 49.4 Q 195.9 48.7, 195.9 47.5 Q 195.9 46.4, 195.5 45.8 Q 195.0 45.2, 194.1 45.2 Q 193.1 45.2, 192.7 45.8 Q 192.2 46.4, 192.2 47.5 Q 192.2 48.7, 192.7 49.4 Q 193.1 50.0, 194.1 50.0 " fill="#FF0000"/>
<path class="atom-37" d="M 197.7 44.6 L 198.5 44.6 L 198.5 47.1 L 201.6 47.1 L 201.6 44.6 L 202.4 44.6 L 202.4 50.5 L 201.6 50.5 L 201.6 47.8 L 198.5 47.8 L 198.5 50.5 L 197.7 50.5 L 197.7 44.6 " fill="#FF0000"/>
<path class="atom-39" d="M 291.3 111.9 Q 291.3 110.4, 292.1 109.6 Q 292.8 108.8, 294.1 108.8 Q 295.4 108.8, 296.1 109.6 Q 296.8 110.4, 296.8 111.9 Q 296.8 113.3, 296.1 114.1 Q 295.4 115.0, 294.1 115.0 Q 292.8 115.0, 292.1 114.1 Q 291.3 113.3, 291.3 111.9 M 294.1 114.3 Q 295.0 114.3, 295.5 113.7 Q 296.0 113.1, 296.0 111.9 Q 296.0 110.7, 295.5 110.1 Q 295.0 109.5, 294.1 109.5 Q 293.2 109.5, 292.7 110.1 Q 292.2 110.7, 292.2 111.9 Q 292.2 113.1, 292.7 113.7 Q 293.2 114.3, 294.1 114.3 " fill="#FF0000"/>
<path class="atom-40" d="M 264.4 136.4 Q 264.4 134.9, 265.1 134.1 Q 265.8 133.3, 267.1 133.3 Q 268.4 133.3, 269.2 134.1 Q 269.9 134.9, 269.9 136.4 Q 269.9 137.8, 269.1 138.6 Q 268.4 139.4, 267.1 139.4 Q 265.8 139.4, 265.1 138.6 Q 264.4 137.8, 264.4 136.4 M 267.1 138.8 Q 268.0 138.8, 268.5 138.2 Q 269.0 137.6, 269.0 136.4 Q 269.0 135.2, 268.5 134.6 Q 268.0 134.0, 267.1 134.0 Q 266.2 134.0, 265.7 134.6 Q 265.2 135.2, 265.2 136.4 Q 265.2 137.6, 265.7 138.2 Q 266.2 138.8, 267.1 138.8 " fill="#FF0000"/>
<path class="atom-40" d="M 270.8 133.4 L 271.6 133.4 L 271.6 135.9 L 274.6 135.9 L 274.6 133.4 L 275.4 133.4 L 275.4 139.4 L 274.6 139.4 L 274.6 136.6 L 271.6 136.6 L 271.6 139.4 L 270.8 139.4 L 270.8 133.4 " fill="#FF0000"/>
</svg>
