<?xml version='1.0' encoding='ASCII' standalone='yes'?>
<svg xmlns="http://www.w3.org/2000/svg" xmlns:rdkit="http://www.rdkit.org/xml" xmlns:xlink="http://www.w3.org/1999/xlink" version="1.1" baseProfile="full" xml:space="preserve" width="285px" height="200px" viewBox="0 0 285 200">
<!-- END OF HEADER -->
<rect style="opacity:1.0;fill:#FFFFFF;stroke:none" width="285.0" height="200.0" x="0.0" y="0.0"> </rect>
<path class="bond-0 atom-0 atom-1" d="M 177.2,135.8 L 167.5,125.0" style="fill:none;fill-rule:evenodd;stroke:#000000;stroke-width:2.0px;stroke-linecap:butt;stroke-linejoin:miter;stroke-opacity:1"/>
<path class="bond-0 atom-0 atom-1" d="M 167.5,125.0 L 157.8,114.1" style="fill:none;fill-rule:evenodd;stroke:#FF0000;stroke-width:2.0px;stroke-linecap:butt;stroke-linejoin:miter;stroke-opacity:1"/>
<path class="bond-1 atom-1 atom-2" d="M 145.4,108.5 L 129.7,111.7" style="fill:none;fill-rule:evenodd;stroke:#FF0000;stroke-width:2.0px;stroke-linecap:butt;stroke-linejoin:miter;stroke-opacity:1"/>
<path class="bond-1 atom-1 atom-2" d="M 129.7,111.7 L 114.0,115.0" style="fill:none;fill-rule:evenodd;stroke:#000000;stroke-width:2.0px;stroke-linecap:butt;stroke-linejoin:miter;stroke-opacity:1"/>
<path class="bond-2 atom-2 atom-3" d="M 114.0,115.0 L 102.0,151.5" style="fill:none;fill-rule:evenodd;stroke:#000000;stroke-width:2.0px;stroke-linecap:butt;stroke-linejoin:miter;stroke-opacity:1"/>
<path class="bond-3 atom-3 atom-4" d="M 102.0,151.5 L 111.7,162.5" style="fill:none;fill-rule:evenodd;stroke:#000000;stroke-width:2.0px;stroke-linecap:butt;stroke-linejoin:miter;stroke-opacity:1"/>
<path class="bond-3 atom-3 atom-4" d="M 111.7,162.5 L 121.5,173.4" style="fill:none;fill-rule:evenodd;stroke:#FF0000;stroke-width:2.0px;stroke-linecap:butt;stroke-linejoin:miter;stroke-opacity:1"/>
<path class="bond-4 atom-3 atom-5" d="M 102.0,151.5 L 64.3,159.4" style="fill:none;fill-rule:evenodd;stroke:#000000;stroke-width:2.0px;stroke-linecap:butt;stroke-linejoin:miter;stroke-opacity:1"/>
<path class="bond-5 atom-5 atom-6" d="M 64.3,159.4 L 38.7,130.7" style="fill:none;fill-rule:evenodd;stroke:#000000;stroke-width:2.0px;stroke-linecap:butt;stroke-linejoin:miter;stroke-opacity:1"/>
<path class="bond-6 atom-6 atom-7" d="M 38.7,130.7 L 50.8,94.2" style="fill:none;fill-rule:evenodd;stroke:#000000;stroke-width:2.0px;stroke-linecap:butt;stroke-linejoin:miter;stroke-opacity:1"/>
<path class="bond-7 atom-7 atom-8" d="M 50.8,94.2 L 14.2,82.2" style="fill:none;fill-rule:evenodd;stroke:#000000;stroke-width:2.0px;stroke-linecap:butt;stroke-linejoin:miter;stroke-opacity:1"/>
<path class="bond-8 atom-8 atom-9" d="M 14.2,82.2 L 25.5,72.1" style="fill:none;fill-rule:evenodd;stroke:#000000;stroke-width:2.0px;stroke-linecap:butt;stroke-linejoin:miter;stroke-opacity:1"/>
<path class="bond-8 atom-8 atom-9" d="M 25.5,72.1 L 36.7,62.1" style="fill:none;fill-rule:evenodd;stroke:#FF0000;stroke-width:2.0px;stroke-linecap:butt;stroke-linejoin:miter;stroke-opacity:1"/>
<path class="bond-9 atom-7 atom-10" d="M 50.8,94.2 L 88.4,86.3" style="fill:none;fill-rule:evenodd;stroke:#000000;stroke-width:2.0px;stroke-linecap:butt;stroke-linejoin:miter;stroke-opacity:1"/>
<path class="bond-10 atom-10 atom-11" d="M 88.4,86.3 L 100.4,49.8" style="fill:none;fill-rule:evenodd;stroke:#000000;stroke-width:2.0px;stroke-linecap:butt;stroke-linejoin:miter;stroke-opacity:1"/>
<path class="bond-11 atom-11 atom-12" d="M 100.4,49.8 L 66.6,31.6" style="fill:none;fill-rule:evenodd;stroke:#000000;stroke-width:2.0px;stroke-linecap:butt;stroke-linejoin:miter;stroke-opacity:1"/>
<path class="bond-12 atom-11 atom-13" d="M 100.4,49.8 L 109.6,38.2" style="fill:none;fill-rule:evenodd;stroke:#000000;stroke-width:2.0px;stroke-linecap:butt;stroke-linejoin:miter;stroke-opacity:1"/>
<path class="bond-12 atom-11 atom-13" d="M 109.6,38.2 L 118.7,26.6" style="fill:none;fill-rule:evenodd;stroke:#FF0000;stroke-width:2.0px;stroke-linecap:butt;stroke-linejoin:miter;stroke-opacity:1"/>
<path class="bond-13 atom-13 atom-14" d="M 127.0,26.6 L 132.7,41.0" style="fill:none;fill-rule:evenodd;stroke:#FF0000;stroke-width:2.0px;stroke-linecap:butt;stroke-linejoin:miter;stroke-opacity:1"/>
<path class="bond-13 atom-13 atom-14" d="M 132.7,41.0 L 138.5,55.3" style="fill:none;fill-rule:evenodd;stroke:#000000;stroke-width:2.0px;stroke-linecap:butt;stroke-linejoin:miter;stroke-opacity:1"/>
<path class="bond-14 atom-14 atom-15" d="M 138.5,55.3 L 168.7,79.1" style="fill:none;fill-rule:evenodd;stroke:#000000;stroke-width:2.0px;stroke-linecap:butt;stroke-linejoin:miter;stroke-opacity:1"/>
<path class="bond-15 atom-15 atom-16" d="M 168.7,79.1 L 204.4,64.9" style="fill:none;fill-rule:evenodd;stroke:#000000;stroke-width:2.0px;stroke-linecap:butt;stroke-linejoin:miter;stroke-opacity:1"/>
<path class="bond-16 atom-16 atom-17" d="M 204.4,64.9 L 234.6,88.7" style="fill:none;fill-rule:evenodd;stroke:#000000;stroke-width:2.0px;stroke-linecap:butt;stroke-linejoin:miter;stroke-opacity:1"/>
<path class="bond-16 atom-16 atom-17" d="M 203.4,71.5 L 228.4,91.1" style="fill:none;fill-rule:evenodd;stroke:#000000;stroke-width:2.0px;stroke-linecap:butt;stroke-linejoin:miter;stroke-opacity:1"/>
<path class="bond-17 atom-17 atom-18" d="M 234.6,88.7 L 270.2,74.4" style="fill:none;fill-rule:evenodd;stroke:#000000;stroke-width:2.0px;stroke-linecap:butt;stroke-linejoin:miter;stroke-opacity:1"/>
<path class="bond-18 atom-17 atom-19" d="M 234.6,88.7 L 229.0,126.7" style="fill:none;fill-rule:evenodd;stroke:#000000;stroke-width:2.0px;stroke-linecap:butt;stroke-linejoin:miter;stroke-opacity:1"/>
<path class="bond-19 atom-10 atom-2" d="M 88.4,86.3 L 114.0,115.0" style="fill:none;fill-rule:evenodd;stroke:#000000;stroke-width:2.0px;stroke-linecap:butt;stroke-linejoin:miter;stroke-opacity:1"/>
<path class="bond-20 atom-14 atom-11" d="M 138.5,55.3 L 100.4,49.8" style="fill:none;fill-rule:evenodd;stroke:#000000;stroke-width:2.0px;stroke-linecap:butt;stroke-linejoin:miter;stroke-opacity:1"/>
<path class="bond-21 atom-9 atom-7" d="M 44.4,63.5 L 47.6,78.8" style="fill:none;fill-rule:evenodd;stroke:#FF0000;stroke-width:2.0px;stroke-linecap:butt;stroke-linejoin:miter;stroke-opacity:1"/>
<path class="bond-21 atom-9 atom-7" d="M 47.6,78.8 L 50.8,94.2" style="fill:none;fill-rule:evenodd;stroke:#000000;stroke-width:2.0px;stroke-linecap:butt;stroke-linejoin:miter;stroke-opacity:1"/>
<path d="M 66.2,159.0 L 64.3,159.4 L 63.1,157.9" style="fill:none;stroke:#000000;stroke-width:2.0px;stroke-linecap:butt;stroke-linejoin:miter;stroke-opacity:1;"/>
<path d="M 40.0,132.1 L 38.7,130.7 L 39.3,128.9" style="fill:none;stroke:#000000;stroke-width:2.0px;stroke-linecap:butt;stroke-linejoin:miter;stroke-opacity:1;"/>
<path d="M 16.1,82.8 L 14.2,82.2 L 14.8,81.7" style="fill:none;stroke:#000000;stroke-width:2.0px;stroke-linecap:butt;stroke-linejoin:miter;stroke-opacity:1;"/>
<path d="M 167.1,77.9 L 168.7,79.1 L 170.4,78.4" style="fill:none;stroke:#000000;stroke-width:2.0px;stroke-linecap:butt;stroke-linejoin:miter;stroke-opacity:1;"/>
<path d="M 202.6,65.6 L 204.4,64.9 L 205.9,66.1" style="fill:none;stroke:#000000;stroke-width:2.0px;stroke-linecap:butt;stroke-linejoin:miter;stroke-opacity:1;"/>
<path class="atom-1" d="M 146.6 107.2 Q 146.6 104.6, 147.9 103.1 Q 149.2 101.7, 151.6 101.7 Q 154.0 101.7, 155.3 103.1 Q 156.6 104.6, 156.6 107.2 Q 156.6 109.8, 155.3 111.4 Q 154.0 112.8, 151.6 112.8 Q 149.2 112.8, 147.9 111.4 Q 146.6 109.9, 146.6 107.2 M 151.6 111.6 Q 153.3 111.6, 154.2 110.5 Q 155.1 109.4, 155.1 107.2 Q 155.1 105.1, 154.2 104.0 Q 153.3 102.9, 151.6 102.9 Q 150.0 102.9, 149.1 104.0 Q 148.2 105.1, 148.2 107.2 Q 148.2 109.4, 149.1 110.5 Q 150.0 111.6, 151.6 111.6 " fill="#FF0000"/>
<path class="atom-4" d="M 122.6 180.2 Q 122.6 177.6, 123.9 176.1 Q 125.2 174.7, 127.6 174.7 Q 130.0 174.7, 131.3 176.1 Q 132.6 177.6, 132.6 180.2 Q 132.6 182.9, 131.3 184.4 Q 130.0 185.9, 127.6 185.9 Q 125.2 185.9, 123.9 184.4 Q 122.6 182.9, 122.6 180.2 M 127.6 184.6 Q 129.2 184.6, 130.1 183.5 Q 131.0 182.4, 131.0 180.2 Q 131.0 178.1, 130.1 177.0 Q 129.2 175.9, 127.6 175.9 Q 125.9 175.9, 125.0 177.0 Q 124.1 178.1, 124.1 180.2 Q 124.1 182.4, 125.0 183.5 Q 125.9 184.6, 127.6 184.6 " fill="#FF0000"/>
<path class="atom-4" d="M 134.3 174.8 L 135.7 174.8 L 135.7 179.4 L 141.3 179.4 L 141.3 174.8 L 142.8 174.8 L 142.8 185.7 L 141.3 185.7 L 141.3 180.7 L 135.7 180.7 L 135.7 185.7 L 134.3 185.7 L 134.3 174.8 " fill="#FF0000"/>
<path class="atom-9" d="M 37.9 56.6 Q 37.9 54.0, 39.2 52.5 Q 40.5 51.0, 42.9 51.0 Q 45.3 51.0, 46.6 52.5 Q 47.9 54.0, 47.9 56.6 Q 47.9 59.2, 46.6 60.7 Q 45.3 62.2, 42.9 62.2 Q 40.5 62.2, 39.2 60.7 Q 37.9 59.2, 37.9 56.6 M 42.9 61.0 Q 44.6 61.0, 45.5 59.9 Q 46.4 58.8, 46.4 56.6 Q 46.4 54.4, 45.5 53.4 Q 44.6 52.3, 42.9 52.3 Q 41.3 52.3, 40.4 53.4 Q 39.5 54.4, 39.5 56.6 Q 39.5 58.8, 40.4 59.9 Q 41.3 61.0, 42.9 61.0 " fill="#FF0000"/>
<path class="atom-13" d="M 119.2 19.7 Q 119.2 17.1, 120.5 15.6 Q 121.8 14.1, 124.2 14.1 Q 126.6 14.1, 127.9 15.6 Q 129.2 17.1, 129.2 19.7 Q 129.2 22.3, 127.9 23.8 Q 126.6 25.3, 124.2 25.3 Q 121.8 25.3, 120.5 23.8 Q 119.2 22.3, 119.2 19.7 M 124.2 24.1 Q 125.9 24.1, 126.8 23.0 Q 127.7 21.9, 127.7 19.7 Q 127.7 17.5, 126.8 16.5 Q 125.9 15.4, 124.2 15.4 Q 122.5 15.4, 121.6 16.4 Q 120.7 17.5, 120.7 19.7 Q 120.7 21.9, 121.6 23.0 Q 122.5 24.1, 124.2 24.1 " fill="#FF0000"/>
</svg>
