<?xml version='1.0' encoding='ASCII' standalone='yes'?>
<svg xmlns="http://www.w3.org/2000/svg" xmlns:rdkit="http://www.rdkit.org/xml" xmlns:xlink="http://www.w3.org/1999/xlink" version="1.1" baseProfile="full" xml:space="preserve" width="285px" height="200px" viewBox="0 0 285 200">
<!-- END OF HEADER -->
<rect style="opacity:1.0;fill:#FFFFFF;stroke:none" width="285.0" height="200.0" x="0.0" y="0.0"> </rect>
<path class="bond-0 atom-0 atom-1" d="M 231.3,146.3 L 235.1,135.9" style="fill:none;fill-rule:evenodd;stroke:#000000;stroke-width:2.0px;stroke-linecap:butt;stroke-linejoin:miter;stroke-opacity:1"/>
<path class="bond-0 atom-0 atom-1" d="M 235.1,135.9 L 238.8,125.5" style="fill:none;fill-rule:evenodd;stroke:#FF0000;stroke-width:2.0px;stroke-linecap:butt;stroke-linejoin:miter;stroke-opacity:1"/>
<path class="bond-1 atom-1 atom-2" d="M 236.6,115.7 L 229.8,107.6" style="fill:none;fill-rule:evenodd;stroke:#FF0000;stroke-width:2.0px;stroke-linecap:butt;stroke-linejoin:miter;stroke-opacity:1"/>
<path class="bond-1 atom-1 atom-2" d="M 229.8,107.6 L 223.0,99.5" style="fill:none;fill-rule:evenodd;stroke:#000000;stroke-width:2.0px;stroke-linecap:butt;stroke-linejoin:miter;stroke-opacity:1"/>
<path class="bond-2 atom-2 atom-3" d="M 223.0,99.5 L 196.0,104.3" style="fill:none;fill-rule:evenodd;stroke:#000000;stroke-width:2.0px;stroke-linecap:butt;stroke-linejoin:miter;stroke-opacity:1"/>
<path class="bond-2 atom-2 atom-3" d="M 219.9,95.8 L 197.6,99.8" style="fill:none;fill-rule:evenodd;stroke:#000000;stroke-width:2.0px;stroke-linecap:butt;stroke-linejoin:miter;stroke-opacity:1"/>
<path class="bond-3 atom-3 atom-4" d="M 196.0,104.3 L 178.3,83.3" style="fill:none;fill-rule:evenodd;stroke:#000000;stroke-width:2.0px;stroke-linecap:butt;stroke-linejoin:miter;stroke-opacity:1"/>
<path class="bond-4 atom-4 atom-5" d="M 178.3,83.3 L 151.3,88.0" style="fill:none;fill-rule:evenodd;stroke:#000000;stroke-width:2.0px;stroke-linecap:butt;stroke-linejoin:miter;stroke-opacity:1"/>
<path class="bond-5 atom-5 atom-6" d="M 151.3,88.0 L 133.6,67.0" style="fill:none;fill-rule:evenodd;stroke:#000000;stroke-width:2.0px;stroke-linecap:butt;stroke-linejoin:miter;stroke-opacity:1"/>
<path class="bond-5 atom-5 atom-6" d="M 152.9,83.6 L 136.8,64.4" style="fill:none;fill-rule:evenodd;stroke:#000000;stroke-width:2.0px;stroke-linecap:butt;stroke-linejoin:miter;stroke-opacity:1"/>
<path class="bond-6 atom-6 atom-7" d="M 133.6,67.0 L 106.6,71.8" style="fill:none;fill-rule:evenodd;stroke:#000000;stroke-width:2.0px;stroke-linecap:butt;stroke-linejoin:miter;stroke-opacity:1"/>
<path class="bond-7 atom-7 atom-8" d="M 106.6,71.8 L 88.9,50.8" style="fill:none;fill-rule:evenodd;stroke:#000000;stroke-width:2.0px;stroke-linecap:butt;stroke-linejoin:miter;stroke-opacity:1"/>
<path class="bond-7 atom-7 atom-8" d="M 101.9,72.6 L 87.3,55.3" style="fill:none;fill-rule:evenodd;stroke:#000000;stroke-width:2.0px;stroke-linecap:butt;stroke-linejoin:miter;stroke-opacity:1"/>
<path class="bond-8 atom-8 atom-9" d="M 88.9,50.8 L 61.9,55.6" style="fill:none;fill-rule:evenodd;stroke:#000000;stroke-width:2.0px;stroke-linecap:butt;stroke-linejoin:miter;stroke-opacity:1"/>
<path class="bond-9 atom-9 atom-10" d="M 61.9,55.6 L 52.5,81.4" style="fill:none;fill-rule:evenodd;stroke:#000000;stroke-width:2.0px;stroke-linecap:butt;stroke-linejoin:miter;stroke-opacity:1"/>
<path class="bond-9 atom-9 atom-10" d="M 65.0,59.2 L 57.2,80.5" style="fill:none;fill-rule:evenodd;stroke:#000000;stroke-width:2.0px;stroke-linecap:butt;stroke-linejoin:miter;stroke-opacity:1"/>
<path class="bond-10 atom-10 atom-11" d="M 52.5,81.4 L 41.2,83.4" style="fill:none;fill-rule:evenodd;stroke:#000000;stroke-width:2.0px;stroke-linecap:butt;stroke-linejoin:miter;stroke-opacity:1"/>
<path class="bond-10 atom-10 atom-11" d="M 41.2,83.4 L 30.0,85.4" style="fill:none;fill-rule:evenodd;stroke:#FF0000;stroke-width:2.0px;stroke-linecap:butt;stroke-linejoin:miter;stroke-opacity:1"/>
<path class="bond-11 atom-10 atom-12" d="M 52.5,81.4 L 70.2,102.4" style="fill:none;fill-rule:evenodd;stroke:#000000;stroke-width:2.0px;stroke-linecap:butt;stroke-linejoin:miter;stroke-opacity:1"/>
<path class="bond-12 atom-12 atom-13" d="M 70.2,102.4 L 66.4,112.9" style="fill:none;fill-rule:evenodd;stroke:#000000;stroke-width:2.0px;stroke-linecap:butt;stroke-linejoin:miter;stroke-opacity:1"/>
<path class="bond-12 atom-12 atom-13" d="M 66.4,112.9 L 62.6,123.4" style="fill:none;fill-rule:evenodd;stroke:#FF0000;stroke-width:2.0px;stroke-linecap:butt;stroke-linejoin:miter;stroke-opacity:1"/>
<path class="bond-13 atom-13 atom-14" d="M 65.0,133.1 L 71.7,141.2" style="fill:none;fill-rule:evenodd;stroke:#FF0000;stroke-width:2.0px;stroke-linecap:butt;stroke-linejoin:miter;stroke-opacity:1"/>
<path class="bond-13 atom-13 atom-14" d="M 71.7,141.2 L 78.5,149.2" style="fill:none;fill-rule:evenodd;stroke:#000000;stroke-width:2.0px;stroke-linecap:butt;stroke-linejoin:miter;stroke-opacity:1"/>
<path class="bond-14 atom-12 atom-15" d="M 70.2,102.4 L 97.2,97.6" style="fill:none;fill-rule:evenodd;stroke:#000000;stroke-width:2.0px;stroke-linecap:butt;stroke-linejoin:miter;stroke-opacity:1"/>
<path class="bond-14 atom-12 atom-15" d="M 71.8,97.9 L 94.2,94.0" style="fill:none;fill-rule:evenodd;stroke:#000000;stroke-width:2.0px;stroke-linecap:butt;stroke-linejoin:miter;stroke-opacity:1"/>
<path class="bond-15 atom-4 atom-16" d="M 178.3,83.3 L 187.7,57.5" style="fill:none;fill-rule:evenodd;stroke:#000000;stroke-width:2.0px;stroke-linecap:butt;stroke-linejoin:miter;stroke-opacity:1"/>
<path class="bond-15 atom-4 atom-16" d="M 183.0,82.4 L 190.7,61.1" style="fill:none;fill-rule:evenodd;stroke:#000000;stroke-width:2.0px;stroke-linecap:butt;stroke-linejoin:miter;stroke-opacity:1"/>
<path class="bond-16 atom-16 atom-17" d="M 187.7,57.5 L 214.7,52.7" style="fill:none;fill-rule:evenodd;stroke:#000000;stroke-width:2.0px;stroke-linecap:butt;stroke-linejoin:miter;stroke-opacity:1"/>
<path class="bond-17 atom-17 atom-18" d="M 214.7,52.7 L 232.4,73.7" style="fill:none;fill-rule:evenodd;stroke:#000000;stroke-width:2.0px;stroke-linecap:butt;stroke-linejoin:miter;stroke-opacity:1"/>
<path class="bond-17 atom-17 atom-18" d="M 213.1,57.1 L 227.7,74.5" style="fill:none;fill-rule:evenodd;stroke:#000000;stroke-width:2.0px;stroke-linecap:butt;stroke-linejoin:miter;stroke-opacity:1"/>
<path class="bond-18 atom-18 atom-19" d="M 232.4,73.7 L 243.6,71.7" style="fill:none;fill-rule:evenodd;stroke:#000000;stroke-width:2.0px;stroke-linecap:butt;stroke-linejoin:miter;stroke-opacity:1"/>
<path class="bond-18 atom-18 atom-19" d="M 243.6,71.7 L 254.9,69.7" style="fill:none;fill-rule:evenodd;stroke:#FF0000;stroke-width:2.0px;stroke-linecap:butt;stroke-linejoin:miter;stroke-opacity:1"/>
<path class="bond-19 atom-18 atom-2" d="M 232.4,73.7 L 223.0,99.5" style="fill:none;fill-rule:evenodd;stroke:#000000;stroke-width:2.0px;stroke-linecap:butt;stroke-linejoin:miter;stroke-opacity:1"/>
<path class="bond-20 atom-15 atom-7" d="M 97.2,97.6 L 106.6,71.8" style="fill:none;fill-rule:evenodd;stroke:#000000;stroke-width:2.0px;stroke-linecap:butt;stroke-linejoin:miter;stroke-opacity:1"/>
<path d="M 197.3,104.0 L 196.0,104.3 L 195.1,103.2" style="fill:none;stroke:#000000;stroke-width:2.0px;stroke-linecap:butt;stroke-linejoin:miter;stroke-opacity:1;"/>
<path d="M 152.6,87.8 L 151.3,88.0 L 150.4,87.0" style="fill:none;stroke:#000000;stroke-width:2.0px;stroke-linecap:butt;stroke-linejoin:miter;stroke-opacity:1;"/>
<path d="M 134.5,68.1 L 133.6,67.0 L 132.3,67.3" style="fill:none;stroke:#000000;stroke-width:2.0px;stroke-linecap:butt;stroke-linejoin:miter;stroke-opacity:1;"/>
<path d="M 89.8,51.8 L 88.9,50.8 L 87.6,51.0" style="fill:none;stroke:#000000;stroke-width:2.0px;stroke-linecap:butt;stroke-linejoin:miter;stroke-opacity:1;"/>
<path d="M 63.2,55.3 L 61.9,55.6 L 61.4,56.9" style="fill:none;stroke:#000000;stroke-width:2.0px;stroke-linecap:butt;stroke-linejoin:miter;stroke-opacity:1;"/>
<path d="M 95.9,97.8 L 97.2,97.6 L 97.7,96.3" style="fill:none;stroke:#000000;stroke-width:2.0px;stroke-linecap:butt;stroke-linejoin:miter;stroke-opacity:1;"/>
<path d="M 187.2,58.7 L 187.7,57.5 L 189.0,57.2" style="fill:none;stroke:#000000;stroke-width:2.0px;stroke-linecap:butt;stroke-linejoin:miter;stroke-opacity:1;"/>
<path d="M 213.3,52.9 L 214.7,52.7 L 215.6,53.7" style="fill:none;stroke:#000000;stroke-width:2.0px;stroke-linecap:butt;stroke-linejoin:miter;stroke-opacity:1;"/>
<path class="atom-1" d="M 237.1 120.5 Q 237.1 118.7, 238.0 117.6 Q 238.9 116.6, 240.6 116.6 Q 242.4 116.6, 243.3 117.6 Q 244.2 118.7, 244.2 120.5 Q 244.2 122.4, 243.3 123.5 Q 242.3 124.6, 240.6 124.6 Q 238.9 124.6, 238.0 123.5 Q 237.1 122.4, 237.1 120.5 M 240.6 123.7 Q 241.8 123.7, 242.5 122.9 Q 243.1 122.1, 243.1 120.5 Q 243.1 119.0, 242.5 118.2 Q 241.8 117.5, 240.6 117.5 Q 239.5 117.5, 238.8 118.2 Q 238.2 119.0, 238.2 120.5 Q 238.2 122.1, 238.8 122.9 Q 239.5 123.7, 240.6 123.7 " fill="#FF0000"/>
<path class="atom-11" d="M 14.2 82.3 L 15.3 82.3 L 15.3 85.6 L 19.3 85.6 L 19.3 82.3 L 20.3 82.3 L 20.3 90.1 L 19.3 90.1 L 19.3 86.5 L 15.3 86.5 L 15.3 90.1 L 14.2 90.1 L 14.2 82.3 " fill="#FF0000"/>
<path class="atom-11" d="M 21.9 86.2 Q 21.9 84.3, 22.8 83.3 Q 23.8 82.2, 25.5 82.2 Q 27.2 82.2, 28.1 83.3 Q 29.1 84.3, 29.1 86.2 Q 29.1 88.1, 28.1 89.1 Q 27.2 90.2, 25.5 90.2 Q 23.8 90.2, 22.8 89.1 Q 21.9 88.1, 21.9 86.2 M 25.5 89.3 Q 26.7 89.3, 27.3 88.5 Q 28.0 87.7, 28.0 86.2 Q 28.0 84.7, 27.3 83.9 Q 26.7 83.1, 25.5 83.1 Q 24.3 83.1, 23.7 83.9 Q 23.0 84.6, 23.0 86.2 Q 23.0 87.8, 23.7 88.5 Q 24.3 89.3, 25.5 89.3 " fill="#FF0000"/>
<path class="atom-13" d="M 57.2 128.2 Q 57.2 126.3, 58.2 125.3 Q 59.1 124.3, 60.8 124.3 Q 62.5 124.3, 63.5 125.3 Q 64.4 126.3, 64.4 128.2 Q 64.4 130.1, 63.4 131.2 Q 62.5 132.2, 60.8 132.2 Q 59.1 132.2, 58.2 131.2 Q 57.2 130.1, 57.2 128.2 M 60.8 131.4 Q 62.0 131.4, 62.6 130.6 Q 63.3 129.8, 63.3 128.2 Q 63.3 126.7, 62.6 125.9 Q 62.0 125.1, 60.8 125.1 Q 59.6 125.1, 59.0 125.9 Q 58.3 126.7, 58.3 128.2 Q 58.3 129.8, 59.0 130.6 Q 59.6 131.4, 60.8 131.4 " fill="#FF0000"/>
<path class="atom-19" d="M 255.8 68.9 Q 255.8 67.1, 256.7 66.0 Q 257.7 65.0, 259.4 65.0 Q 261.1 65.0, 262.0 66.0 Q 263.0 67.1, 263.0 68.9 Q 263.0 70.8, 262.0 71.9 Q 261.1 73.0, 259.4 73.0 Q 257.7 73.0, 256.7 71.9 Q 255.8 70.8, 255.8 68.9 M 259.4 72.1 Q 260.6 72.1, 261.2 71.3 Q 261.9 70.5, 261.9 68.9 Q 261.9 67.4, 261.2 66.6 Q 260.6 65.9, 259.4 65.9 Q 258.2 65.9, 257.6 66.6 Q 256.9 67.4, 256.9 68.9 Q 256.9 70.5, 257.6 71.3 Q 258.2 72.1, 259.4 72.1 " fill="#FF0000"/>
<path class="atom-19" d="M 264.2 65.1 L 265.2 65.1 L 265.2 68.4 L 269.2 68.4 L 269.2 65.1 L 270.3 65.1 L 270.3 72.8 L 269.2 72.8 L 269.2 69.2 L 265.2 69.2 L 265.2 72.8 L 264.2 72.8 L 264.2 65.1 " fill="#FF0000"/>
</svg>
