<?xml version='1.0' encoding='ASCII' standalone='yes'?>
<svg xmlns="http://www.w3.org/2000/svg" xmlns:rdkit="http://www.rdkit.org/xml" xmlns:xlink="http://www.w3.org/1999/xlink" version="1.1" baseProfile="full" xml:space="preserve" width="297px" height="200px" viewBox="0 0 297 200">
<!-- END OF HEADER -->
<rect style="opacity:1.0;fill:#FFFFFF;stroke:none" width="297.0" height="200.0" x="0.0" y="0.0"> </rect>
<path class="bond-0 atom-0 atom-1" d="M 146.5,10.0 L 134.6,40.0" style="fill:none;fill-rule:evenodd;stroke:#000000;stroke-width:2.0px;stroke-linecap:butt;stroke-linejoin:miter;stroke-opacity:1"/>
<path class="bond-1 atom-1 atom-2" d="M 134.6,40.0 L 102.7,44.7" style="fill:none;fill-rule:evenodd;stroke:#000000;stroke-width:2.0px;stroke-linecap:butt;stroke-linejoin:miter;stroke-opacity:1"/>
<path class="bond-2 atom-2 atom-3" d="M 102.7,44.7 L 90.9,74.7" style="fill:none;fill-rule:evenodd;stroke:#000000;stroke-width:2.0px;stroke-linecap:butt;stroke-linejoin:miter;stroke-opacity:1"/>
<path class="bond-3 atom-3 atom-4" d="M 90.9,74.7 L 59.0,79.5" style="fill:none;fill-rule:evenodd;stroke:#000000;stroke-width:2.0px;stroke-linecap:butt;stroke-linejoin:miter;stroke-opacity:1"/>
<path class="bond-4 atom-4 atom-5" d="M 61.7,79.0 L 53.6,68.8" style="fill:none;fill-rule:evenodd;stroke:#000000;stroke-width:2.0px;stroke-linecap:butt;stroke-linejoin:miter;stroke-opacity:1"/>
<path class="bond-4 atom-4 atom-5" d="M 53.6,68.8 L 45.4,58.5" style="fill:none;fill-rule:evenodd;stroke:#FF0000;stroke-width:2.0px;stroke-linecap:butt;stroke-linejoin:miter;stroke-opacity:1"/>
<path class="bond-4 atom-4 atom-5" d="M 58.0,82.1 L 49.8,71.8" style="fill:none;fill-rule:evenodd;stroke:#000000;stroke-width:2.0px;stroke-linecap:butt;stroke-linejoin:miter;stroke-opacity:1"/>
<path class="bond-4 atom-4 atom-5" d="M 49.8,71.8 L 41.7,61.5" style="fill:none;fill-rule:evenodd;stroke:#FF0000;stroke-width:2.0px;stroke-linecap:butt;stroke-linejoin:miter;stroke-opacity:1"/>
<path class="bond-5 atom-4 atom-6" d="M 59.0,79.5 L 54.2,91.6" style="fill:none;fill-rule:evenodd;stroke:#000000;stroke-width:2.0px;stroke-linecap:butt;stroke-linejoin:miter;stroke-opacity:1"/>
<path class="bond-5 atom-4 atom-6" d="M 54.2,91.6 L 49.4,103.8" style="fill:none;fill-rule:evenodd;stroke:#FF0000;stroke-width:2.0px;stroke-linecap:butt;stroke-linejoin:miter;stroke-opacity:1"/>
<path class="bond-6 atom-1 atom-7" d="M 134.6,40.0 L 154.7,65.3" style="fill:none;fill-rule:evenodd;stroke:#000000;stroke-width:2.0px;stroke-linecap:butt;stroke-linejoin:miter;stroke-opacity:1"/>
<path class="bond-7 atom-7 atom-8" d="M 154.7,65.3 L 142.8,95.3" style="fill:none;fill-rule:evenodd;stroke:#000000;stroke-width:2.0px;stroke-linecap:butt;stroke-linejoin:miter;stroke-opacity:1"/>
<path class="bond-8 atom-8 atom-9" d="M 142.8,95.3 L 162.9,120.5" style="fill:none;fill-rule:evenodd;stroke:#000000;stroke-width:2.0px;stroke-linecap:butt;stroke-linejoin:miter;stroke-opacity:1"/>
<path class="bond-9 atom-8 atom-10" d="M 142.8,95.3 L 110.9,100.0" style="fill:none;fill-rule:evenodd;stroke:#000000;stroke-width:2.0px;stroke-linecap:butt;stroke-linejoin:miter;stroke-opacity:1"/>
<path class="bond-10 atom-10 atom-11" d="M 110.9,100.0 L 99.1,130.0" style="fill:none;fill-rule:evenodd;stroke:#000000;stroke-width:2.0px;stroke-linecap:butt;stroke-linejoin:miter;stroke-opacity:1"/>
<path class="bond-11 atom-11 atom-12" d="M 99.1,130.0 L 119.1,155.2" style="fill:none;fill-rule:evenodd;stroke:#000000;stroke-width:2.0px;stroke-linecap:butt;stroke-linejoin:miter;stroke-opacity:1"/>
<path class="bond-12 atom-12 atom-13" d="M 118.1,157.8 L 132.1,155.8" style="fill:none;fill-rule:evenodd;stroke:#000000;stroke-width:2.0px;stroke-linecap:butt;stroke-linejoin:miter;stroke-opacity:1"/>
<path class="bond-12 atom-12 atom-13" d="M 132.1,155.8 L 146.1,153.7" style="fill:none;fill-rule:evenodd;stroke:#FF0000;stroke-width:2.0px;stroke-linecap:butt;stroke-linejoin:miter;stroke-opacity:1"/>
<path class="bond-12 atom-12 atom-13" d="M 117.4,153.1 L 131.4,151.0" style="fill:none;fill-rule:evenodd;stroke:#000000;stroke-width:2.0px;stroke-linecap:butt;stroke-linejoin:miter;stroke-opacity:1"/>
<path class="bond-12 atom-12 atom-13" d="M 131.4,151.0 L 145.4,148.9" style="fill:none;fill-rule:evenodd;stroke:#FF0000;stroke-width:2.0px;stroke-linecap:butt;stroke-linejoin:miter;stroke-opacity:1"/>
<path class="bond-13 atom-12 atom-14" d="M 119.1,155.2 L 114.3,167.4" style="fill:none;fill-rule:evenodd;stroke:#000000;stroke-width:2.0px;stroke-linecap:butt;stroke-linejoin:miter;stroke-opacity:1"/>
<path class="bond-13 atom-12 atom-14" d="M 114.3,167.4 L 109.5,179.6" style="fill:none;fill-rule:evenodd;stroke:#FF0000;stroke-width:2.0px;stroke-linecap:butt;stroke-linejoin:miter;stroke-opacity:1"/>
<path class="bond-14 atom-7 atom-15" d="M 154.7,65.3 L 186.6,60.5" style="fill:none;fill-rule:evenodd;stroke:#000000;stroke-width:2.0px;stroke-linecap:butt;stroke-linejoin:miter;stroke-opacity:1"/>
<path class="bond-15 atom-15 atom-16" d="M 186.6,60.5 L 191.4,48.4" style="fill:none;fill-rule:evenodd;stroke:#000000;stroke-width:2.0px;stroke-linecap:butt;stroke-linejoin:miter;stroke-opacity:1"/>
<path class="bond-15 atom-15 atom-16" d="M 191.4,48.4 L 196.1,36.4" style="fill:none;fill-rule:evenodd;stroke:#FF0000;stroke-width:2.0px;stroke-linecap:butt;stroke-linejoin:miter;stroke-opacity:1"/>
<path class="bond-16 atom-15 atom-17" d="M 186.6,60.5 L 206.6,85.8" style="fill:none;fill-rule:evenodd;stroke:#000000;stroke-width:2.0px;stroke-linecap:butt;stroke-linejoin:miter;stroke-opacity:1"/>
<path class="bond-17 atom-17 atom-18" d="M 206.6,85.8 L 181.4,105.8" style="fill:none;fill-rule:evenodd;stroke:#000000;stroke-width:2.0px;stroke-linecap:butt;stroke-linejoin:miter;stroke-opacity:1"/>
<path class="bond-18 atom-17 atom-19" d="M 206.6,85.8 L 231.9,65.7" style="fill:none;fill-rule:evenodd;stroke:#000000;stroke-width:2.0px;stroke-linecap:butt;stroke-linejoin:miter;stroke-opacity:1"/>
<path class="bond-19 atom-17 atom-20" d="M 206.6,85.8 L 226.7,111.0" style="fill:none;fill-rule:evenodd;stroke:#000000;stroke-width:2.0px;stroke-linecap:butt;stroke-linejoin:miter;stroke-opacity:1"/>
<path class="bond-20 atom-20 atom-21" d="M 225.7,113.6 L 239.7,111.6" style="fill:none;fill-rule:evenodd;stroke:#000000;stroke-width:2.0px;stroke-linecap:butt;stroke-linejoin:miter;stroke-opacity:1"/>
<path class="bond-20 atom-20 atom-21" d="M 239.7,111.6 L 253.7,109.5" style="fill:none;fill-rule:evenodd;stroke:#FF0000;stroke-width:2.0px;stroke-linecap:butt;stroke-linejoin:miter;stroke-opacity:1"/>
<path class="bond-20 atom-20 atom-21" d="M 225.0,108.9 L 239.0,106.8" style="fill:none;fill-rule:evenodd;stroke:#000000;stroke-width:2.0px;stroke-linecap:butt;stroke-linejoin:miter;stroke-opacity:1"/>
<path class="bond-20 atom-20 atom-21" d="M 239.0,106.8 L 253.0,104.7" style="fill:none;fill-rule:evenodd;stroke:#FF0000;stroke-width:2.0px;stroke-linecap:butt;stroke-linejoin:miter;stroke-opacity:1"/>
<path class="bond-21 atom-20 atom-22" d="M 226.7,111.0 L 221.9,123.2" style="fill:none;fill-rule:evenodd;stroke:#000000;stroke-width:2.0px;stroke-linecap:butt;stroke-linejoin:miter;stroke-opacity:1"/>
<path class="bond-21 atom-20 atom-22" d="M 221.9,123.2 L 217.1,135.4" style="fill:none;fill-rule:evenodd;stroke:#FF0000;stroke-width:2.0px;stroke-linecap:butt;stroke-linejoin:miter;stroke-opacity:1"/>
<path d="M 104.3,44.5 L 102.7,44.7 L 102.1,46.2" style="fill:none;stroke:#000000;stroke-width:2.0px;stroke-linecap:butt;stroke-linejoin:miter;stroke-opacity:1;"/>
<path d="M 91.5,73.2 L 90.9,74.7 L 89.3,75.0" style="fill:none;stroke:#000000;stroke-width:2.0px;stroke-linecap:butt;stroke-linejoin:miter;stroke-opacity:1;"/>
<path d="M 60.6,79.2 L 59.0,79.5 L 58.7,80.1" style="fill:none;stroke:#000000;stroke-width:2.0px;stroke-linecap:butt;stroke-linejoin:miter;stroke-opacity:1;"/>
<path d="M 112.5,99.7 L 110.9,100.0 L 110.3,101.5" style="fill:none;stroke:#000000;stroke-width:2.0px;stroke-linecap:butt;stroke-linejoin:miter;stroke-opacity:1;"/>
<path d="M 99.7,128.5 L 99.1,130.0 L 100.1,131.2" style="fill:none;stroke:#000000;stroke-width:2.0px;stroke-linecap:butt;stroke-linejoin:miter;stroke-opacity:1;"/>
<path d="M 118.1,154.0 L 119.1,155.2 L 118.9,155.9" style="fill:none;stroke:#000000;stroke-width:2.0px;stroke-linecap:butt;stroke-linejoin:miter;stroke-opacity:1;"/>
<path d="M 225.7,109.8 L 226.7,111.0 L 226.5,111.7" style="fill:none;stroke:#000000;stroke-width:2.0px;stroke-linecap:butt;stroke-linejoin:miter;stroke-opacity:1;"/>
<path class="atom-5" d="M 34.7 54.2 Q 34.7 52.0, 35.8 50.8 Q 36.9 49.6, 38.9 49.6 Q 41.0 49.6, 42.0 50.8 Q 43.1 52.0, 43.1 54.2 Q 43.1 56.4, 42.0 57.7 Q 40.9 59.0, 38.9 59.0 Q 36.9 59.0, 35.8 57.7 Q 34.7 56.5, 34.7 54.2 M 38.9 57.9 Q 40.3 57.9, 41.1 57.0 Q 41.8 56.1, 41.8 54.2 Q 41.8 52.4, 41.1 51.5 Q 40.3 50.6, 38.9 50.6 Q 37.5 50.6, 36.8 51.5 Q 36.0 52.4, 36.0 54.2 Q 36.0 56.1, 36.8 57.0 Q 37.5 57.9, 38.9 57.9 " fill="#FF0000"/>
<path class="atom-6" d="M 33.9 104.9 L 35.2 104.9 L 35.2 108.8 L 39.8 108.8 L 39.8 104.9 L 41.1 104.9 L 41.1 114.1 L 39.8 114.1 L 39.8 109.9 L 35.2 109.9 L 35.2 114.1 L 33.9 114.1 L 33.9 104.9 " fill="#FF0000"/>
<path class="atom-6" d="M 42.9 109.5 Q 42.9 107.3, 44.0 106.1 Q 45.1 104.8, 47.1 104.8 Q 49.2 104.8, 50.2 106.1 Q 51.3 107.3, 51.3 109.5 Q 51.3 111.7, 50.2 113.0 Q 49.1 114.2, 47.1 114.2 Q 45.1 114.2, 44.0 113.0 Q 42.9 111.7, 42.9 109.5 M 47.1 113.2 Q 48.5 113.2, 49.3 112.3 Q 50.0 111.3, 50.0 109.5 Q 50.0 107.7, 49.3 106.8 Q 48.5 105.9, 47.1 105.9 Q 45.7 105.9, 45.0 106.8 Q 44.2 107.7, 44.2 109.5 Q 44.2 111.3, 45.0 112.3 Q 45.7 113.2, 47.1 113.2 " fill="#FF0000"/>
<path class="atom-13" d="M 146.8 150.5 Q 146.8 148.3, 147.9 147.1 Q 149.0 145.9, 151.0 145.9 Q 153.1 145.9, 154.1 147.1 Q 155.2 148.3, 155.2 150.5 Q 155.2 152.8, 154.1 154.0 Q 153.0 155.3, 151.0 155.3 Q 149.0 155.3, 147.9 154.0 Q 146.8 152.8, 146.8 150.5 M 151.0 154.2 Q 152.4 154.2, 153.2 153.3 Q 153.9 152.4, 153.9 150.5 Q 153.9 148.7, 153.2 147.8 Q 152.4 146.9, 151.0 146.9 Q 149.6 146.9, 148.9 147.8 Q 148.1 148.7, 148.1 150.5 Q 148.1 152.4, 148.9 153.3 Q 149.6 154.2, 151.0 154.2 " fill="#FF0000"/>
<path class="atom-14" d="M 94.1 180.7 L 95.3 180.7 L 95.3 184.6 L 100.0 184.6 L 100.0 180.7 L 101.2 180.7 L 101.2 189.9 L 100.0 189.9 L 100.0 185.6 L 95.3 185.6 L 95.3 189.9 L 94.1 189.9 L 94.1 180.7 " fill="#FF0000"/>
<path class="atom-14" d="M 103.1 185.3 Q 103.1 183.1, 104.2 181.8 Q 105.3 180.6, 107.3 180.6 Q 109.3 180.6, 110.4 181.8 Q 111.5 183.1, 111.5 185.3 Q 111.5 187.5, 110.4 188.7 Q 109.3 190.0, 107.3 190.0 Q 105.3 190.0, 104.2 188.7 Q 103.1 187.5, 103.1 185.3 M 107.3 189.0 Q 108.7 189.0, 109.4 188.0 Q 110.2 187.1, 110.2 185.3 Q 110.2 183.5, 109.4 182.6 Q 108.7 181.7, 107.3 181.7 Q 105.9 181.7, 105.1 182.6 Q 104.4 183.5, 104.4 185.3 Q 104.4 187.1, 105.1 188.0 Q 105.9 189.0, 107.3 189.0 " fill="#FF0000"/>
<path class="atom-16" d="M 194.2 30.6 Q 194.2 28.4, 195.3 27.1 Q 196.4 25.9, 198.4 25.9 Q 200.5 25.9, 201.6 27.1 Q 202.6 28.4, 202.6 30.6 Q 202.6 32.8, 201.5 34.0 Q 200.4 35.3, 198.4 35.3 Q 196.4 35.3, 195.3 34.0 Q 194.2 32.8, 194.2 30.6 M 198.4 34.3 Q 199.8 34.3, 200.6 33.3 Q 201.3 32.4, 201.3 30.6 Q 201.3 28.8, 200.6 27.9 Q 199.8 26.9, 198.4 26.9 Q 197.0 26.9, 196.3 27.8 Q 195.5 28.7, 195.5 30.6 Q 195.5 32.4, 196.3 33.3 Q 197.0 34.3, 198.4 34.3 " fill="#FF0000"/>
<path class="atom-16" d="M 204.1 26.0 L 205.3 26.0 L 205.3 29.9 L 210.0 29.9 L 210.0 26.0 L 211.2 26.0 L 211.2 35.1 L 210.0 35.1 L 210.0 30.9 L 205.3 30.9 L 205.3 35.1 L 204.1 35.1 L 204.1 26.0 " fill="#FF0000"/>
<path class="atom-21" d="M 254.4 106.3 Q 254.4 104.1, 255.5 102.9 Q 256.6 101.7, 258.6 101.7 Q 260.6 101.7, 261.7 102.9 Q 262.8 104.1, 262.8 106.3 Q 262.8 108.6, 261.7 109.8 Q 260.6 111.1, 258.6 111.1 Q 256.6 111.1, 255.5 109.8 Q 254.4 108.6, 254.4 106.3 M 258.6 110.0 Q 260.0 110.0, 260.7 109.1 Q 261.5 108.2, 261.5 106.3 Q 261.5 104.5, 260.7 103.6 Q 260.0 102.7, 258.6 102.7 Q 257.2 102.7, 256.4 103.6 Q 255.7 104.5, 255.7 106.3 Q 255.7 108.2, 256.4 109.1 Q 257.2 110.0, 258.6 110.0 " fill="#FF0000"/>
<path class="atom-22" d="M 201.6 136.5 L 202.9 136.5 L 202.9 140.4 L 207.5 140.4 L 207.5 136.5 L 208.8 136.5 L 208.8 145.7 L 207.5 145.7 L 207.5 141.4 L 202.9 141.4 L 202.9 145.7 L 201.6 145.7 L 201.6 136.5 " fill="#FF0000"/>
<path class="atom-22" d="M 210.6 141.1 Q 210.6 138.9, 211.7 137.7 Q 212.8 136.4, 214.8 136.4 Q 216.9 136.4, 217.9 137.7 Q 219.0 138.9, 219.0 141.1 Q 219.0 143.3, 217.9 144.6 Q 216.8 145.8, 214.8 145.8 Q 212.8 145.8, 211.7 144.6 Q 210.6 143.3, 210.6 141.1 M 214.8 144.8 Q 216.2 144.8, 217.0 143.8 Q 217.7 142.9, 217.7 141.1 Q 217.7 139.3, 217.0 138.4 Q 216.2 137.5, 214.8 137.5 Q 213.4 137.5, 212.7 138.4 Q 211.9 139.3, 211.9 141.1 Q 211.9 142.9, 212.7 143.8 Q 213.4 144.8, 214.8 144.8 " fill="#FF0000"/>
</svg>
