<?xml version='1.0' encoding='ASCII' standalone='yes'?>
<svg xmlns="http://www.w3.org/2000/svg" xmlns:rdkit="http://www.rdkit.org/xml" xmlns:xlink="http://www.w3.org/1999/xlink" version="1.1" baseProfile="full" xml:space="preserve" width="289px" height="200px" viewBox="0 0 289 200">
<!-- END OF HEADER -->
<rect style="opacity:1.0;fill:#FFFFFF;stroke:none" width="289.0" height="200.0" x="0.0" y="0.0"> </rect>
<path class="bond-0 atom-0 atom-1" d="M 14.5,59.8 L 46.1,48.8" style="fill:none;fill-rule:evenodd;stroke:#000000;stroke-width:2.0px;stroke-linecap:butt;stroke-linejoin:miter;stroke-opacity:1"/>
<path class="bond-1 atom-1 atom-2" d="M 46.1,48.8 L 71.5,70.7" style="fill:none;fill-rule:evenodd;stroke:#000000;stroke-width:2.0px;stroke-linecap:butt;stroke-linejoin:miter;stroke-opacity:1"/>
<path class="bond-2 atom-2 atom-3" d="M 71.5,70.7 L 49.6,96.1" style="fill:none;fill-rule:evenodd;stroke:#000000;stroke-width:2.0px;stroke-linecap:butt;stroke-linejoin:miter;stroke-opacity:1"/>
<path class="bond-3 atom-2 atom-4" d="M 71.5,70.7 L 93.4,45.3" style="fill:none;fill-rule:evenodd;stroke:#000000;stroke-width:2.0px;stroke-linecap:butt;stroke-linejoin:miter;stroke-opacity:1"/>
<path class="bond-4 atom-2 atom-5" d="M 71.5,70.7 L 96.9,92.6" style="fill:none;fill-rule:evenodd;stroke:#000000;stroke-width:2.0px;stroke-linecap:butt;stroke-linejoin:miter;stroke-opacity:1"/>
<path class="bond-5 atom-5 atom-6" d="M 96.9,92.6 L 90.6,125.6" style="fill:none;fill-rule:evenodd;stroke:#000000;stroke-width:2.0px;stroke-linecap:butt;stroke-linejoin:miter;stroke-opacity:1"/>
<path class="bond-6 atom-6 atom-7" d="M 90.6,125.6 L 116.0,147.5" style="fill:none;fill-rule:evenodd;stroke:#000000;stroke-width:2.0px;stroke-linecap:butt;stroke-linejoin:miter;stroke-opacity:1"/>
<path class="bond-7 atom-7 atom-8" d="M 116.0,147.5 L 109.7,180.4" style="fill:none;fill-rule:evenodd;stroke:#000000;stroke-width:2.0px;stroke-linecap:butt;stroke-linejoin:miter;stroke-opacity:1"/>
<path class="bond-8 atom-7 atom-9" d="M 116.0,147.5 L 147.6,136.4" style="fill:none;fill-rule:evenodd;stroke:#000000;stroke-width:2.0px;stroke-linecap:butt;stroke-linejoin:miter;stroke-opacity:1"/>
<path class="bond-9 atom-9 atom-10" d="M 147.6,136.4 L 158.7,168.1" style="fill:none;fill-rule:evenodd;stroke:#000000;stroke-width:2.0px;stroke-linecap:butt;stroke-linejoin:miter;stroke-opacity:1"/>
<path class="bond-10 atom-9 atom-11" d="M 147.6,136.4 L 136.6,104.8" style="fill:none;fill-rule:evenodd;stroke:#000000;stroke-width:2.0px;stroke-linecap:butt;stroke-linejoin:miter;stroke-opacity:1"/>
<path class="bond-11 atom-9 atom-12" d="M 147.6,136.4 L 179.3,125.4" style="fill:none;fill-rule:evenodd;stroke:#000000;stroke-width:2.0px;stroke-linecap:butt;stroke-linejoin:miter;stroke-opacity:1"/>
<path class="bond-12 atom-12 atom-13" d="M 179.3,125.4 L 185.6,92.5" style="fill:none;fill-rule:evenodd;stroke:#000000;stroke-width:2.0px;stroke-linecap:butt;stroke-linejoin:miter;stroke-opacity:1"/>
<path class="bond-13 atom-13 atom-14" d="M 185.6,92.5 L 217.2,81.4" style="fill:none;fill-rule:evenodd;stroke:#000000;stroke-width:2.0px;stroke-linecap:butt;stroke-linejoin:miter;stroke-opacity:1"/>
<path class="bond-14 atom-14 atom-15" d="M 217.2,81.4 L 248.9,70.4" style="fill:none;fill-rule:evenodd;stroke:#000000;stroke-width:2.0px;stroke-linecap:butt;stroke-linejoin:miter;stroke-opacity:1"/>
<path class="bond-15 atom-14 atom-16" d="M 217.2,81.4 L 228.3,113.1" style="fill:none;fill-rule:evenodd;stroke:#000000;stroke-width:2.0px;stroke-linecap:butt;stroke-linejoin:miter;stroke-opacity:1"/>
<path class="bond-16 atom-16 atom-17" d="M 228.3,113.1 L 242.0,115.7" style="fill:none;fill-rule:evenodd;stroke:#000000;stroke-width:2.0px;stroke-linecap:butt;stroke-linejoin:miter;stroke-opacity:1"/>
<path class="bond-16 atom-16 atom-17" d="M 242.0,115.7 L 255.7,118.3" style="fill:none;fill-rule:evenodd;stroke:#FF0000;stroke-width:2.0px;stroke-linecap:butt;stroke-linejoin:miter;stroke-opacity:1"/>
<path class="bond-17 atom-14 atom-18" d="M 217.2,81.4 L 206.2,49.8" style="fill:none;fill-rule:evenodd;stroke:#000000;stroke-width:2.0px;stroke-linecap:butt;stroke-linejoin:miter;stroke-opacity:1"/>
<path class="bond-18 atom-18 atom-19" d="M 208.1,47.6 L 193.7,44.8" style="fill:none;fill-rule:evenodd;stroke:#000000;stroke-width:2.0px;stroke-linecap:butt;stroke-linejoin:miter;stroke-opacity:1"/>
<path class="bond-18 atom-18 atom-19" d="M 193.7,44.8 L 179.2,42.1" style="fill:none;fill-rule:evenodd;stroke:#FF0000;stroke-width:2.0px;stroke-linecap:butt;stroke-linejoin:miter;stroke-opacity:1"/>
<path class="bond-18 atom-18 atom-19" d="M 207.2,52.5 L 192.7,49.8" style="fill:none;fill-rule:evenodd;stroke:#000000;stroke-width:2.0px;stroke-linecap:butt;stroke-linejoin:miter;stroke-opacity:1"/>
<path class="bond-18 atom-18 atom-19" d="M 192.7,49.8 L 178.3,47.0" style="fill:none;fill-rule:evenodd;stroke:#FF0000;stroke-width:2.0px;stroke-linecap:butt;stroke-linejoin:miter;stroke-opacity:1"/>
<path class="bond-19 atom-18 atom-20" d="M 206.2,49.8 L 214.5,40.1" style="fill:none;fill-rule:evenodd;stroke:#000000;stroke-width:2.0px;stroke-linecap:butt;stroke-linejoin:miter;stroke-opacity:1"/>
<path class="bond-19 atom-18 atom-20" d="M 214.5,40.1 L 222.9,30.5" style="fill:none;fill-rule:evenodd;stroke:#FF0000;stroke-width:2.0px;stroke-linecap:butt;stroke-linejoin:miter;stroke-opacity:1"/>
<path d="M 44.5,49.4 L 46.1,48.8 L 47.4,49.9" style="fill:none;stroke:#000000;stroke-width:2.0px;stroke-linecap:butt;stroke-linejoin:miter;stroke-opacity:1;"/>
<path d="M 95.6,91.5 L 96.9,92.6 L 96.6,94.3" style="fill:none;stroke:#000000;stroke-width:2.0px;stroke-linecap:butt;stroke-linejoin:miter;stroke-opacity:1;"/>
<path d="M 90.9,123.9 L 90.6,125.6 L 91.9,126.6" style="fill:none;stroke:#000000;stroke-width:2.0px;stroke-linecap:butt;stroke-linejoin:miter;stroke-opacity:1;"/>
<path d="M 177.7,126.0 L 179.3,125.4 L 179.6,123.8" style="fill:none;stroke:#000000;stroke-width:2.0px;stroke-linecap:butt;stroke-linejoin:miter;stroke-opacity:1;"/>
<path d="M 185.3,94.1 L 185.6,92.5 L 187.2,91.9" style="fill:none;stroke:#000000;stroke-width:2.0px;stroke-linecap:butt;stroke-linejoin:miter;stroke-opacity:1;"/>
<path d="M 227.7,111.5 L 228.3,113.1 L 228.9,113.2" style="fill:none;stroke:#000000;stroke-width:2.0px;stroke-linecap:butt;stroke-linejoin:miter;stroke-opacity:1;"/>
<path d="M 206.8,51.4 L 206.2,49.8 L 206.6,49.3" style="fill:none;stroke:#000000;stroke-width:2.0px;stroke-linecap:butt;stroke-linejoin:miter;stroke-opacity:1;"/>
<path class="atom-17" d="M 256.8 119.4 Q 256.8 117.1, 258.0 115.9 Q 259.1 114.6, 261.2 114.6 Q 263.3 114.6, 264.4 115.9 Q 265.5 117.1, 265.5 119.4 Q 265.5 121.7, 264.4 123.0 Q 263.3 124.3, 261.2 124.3 Q 259.1 124.3, 258.0 123.0 Q 256.8 121.7, 256.8 119.4 M 261.2 123.3 Q 262.6 123.3, 263.4 122.3 Q 264.2 121.3, 264.2 119.4 Q 264.2 117.6, 263.4 116.6 Q 262.6 115.7, 261.2 115.7 Q 259.7 115.7, 258.9 116.6 Q 258.2 117.5, 258.2 119.4 Q 258.2 121.3, 258.9 122.3 Q 259.7 123.3, 261.2 123.3 " fill="#FF0000"/>
<path class="atom-17" d="M 267.0 114.7 L 268.3 114.7 L 268.3 118.7 L 273.2 118.7 L 273.2 114.7 L 274.5 114.7 L 274.5 124.2 L 273.2 124.2 L 273.2 119.8 L 268.3 119.8 L 268.3 124.2 L 267.0 124.2 L 267.0 114.7 " fill="#FF0000"/>
<path class="atom-19" d="M 168.9 43.5 Q 168.9 41.3, 170.0 40.0 Q 171.2 38.7, 173.3 38.7 Q 175.4 38.7, 176.5 40.0 Q 177.6 41.3, 177.6 43.5 Q 177.6 45.8, 176.5 47.2 Q 175.3 48.5, 173.3 48.5 Q 171.2 48.5, 170.0 47.2 Q 168.9 45.9, 168.9 43.5 M 173.3 47.4 Q 174.7 47.4, 175.5 46.4 Q 176.3 45.4, 176.3 43.5 Q 176.3 41.7, 175.5 40.7 Q 174.7 39.8, 173.3 39.8 Q 171.8 39.8, 171.0 40.7 Q 170.3 41.7, 170.3 43.5 Q 170.3 45.5, 171.0 46.4 Q 171.8 47.4, 173.3 47.4 " fill="#FF0000"/>
<path class="atom-20" d="M 223.7 24.4 Q 223.7 22.2, 224.9 20.9 Q 226.0 19.6, 228.1 19.6 Q 230.2 19.6, 231.3 20.9 Q 232.5 22.2, 232.5 24.4 Q 232.5 26.7, 231.3 28.1 Q 230.2 29.4, 228.1 29.4 Q 226.0 29.4, 224.9 28.1 Q 223.7 26.8, 223.7 24.4 M 228.1 28.3 Q 229.6 28.3, 230.3 27.3 Q 231.1 26.3, 231.1 24.4 Q 231.1 22.6, 230.3 21.6 Q 229.6 20.7, 228.1 20.7 Q 226.7 20.7, 225.9 21.6 Q 225.1 22.6, 225.1 24.4 Q 225.1 26.4, 225.9 27.3 Q 226.7 28.3, 228.1 28.3 " fill="#FF0000"/>
<path class="atom-20" d="M 233.9 19.7 L 235.2 19.7 L 235.2 23.8 L 240.1 23.8 L 240.1 19.7 L 241.4 19.7 L 241.4 29.2 L 240.1 29.2 L 240.1 24.8 L 235.2 24.8 L 235.2 29.2 L 233.9 29.2 L 233.9 19.7 " fill="#FF0000"/>
</svg>
