<?xml version='1.0' encoding='ASCII' standalone='yes'?>
<svg xmlns="http://www.w3.org/2000/svg" xmlns:rdkit="http://www.rdkit.org/xml" xmlns:xlink="http://www.w3.org/1999/xlink" version="1.1" baseProfile="full" xml:space="preserve" width="289px" height="200px" viewBox="0 0 289 200">
<!-- END OF HEADER -->
<rect style="opacity:1.0;fill:#FFFFFF;stroke:none" width="289.0" height="200.0" x="0.0" y="0.0"> </rect>
<path class="bond-0 atom-0 atom-1" d="M 173.4,16.0 L 176.5,50.7" style="fill:none;fill-rule:evenodd;stroke:#000000;stroke-width:2.0px;stroke-linecap:butt;stroke-linejoin:miter;stroke-opacity:1"/>
<path class="bond-1 atom-1 atom-2" d="M 176.5,50.7 L 179.5,85.3" style="fill:none;fill-rule:evenodd;stroke:#000000;stroke-width:2.0px;stroke-linecap:butt;stroke-linejoin:miter;stroke-opacity:1"/>
<path class="bond-2 atom-2 atom-3" d="M 179.5,85.3 L 211.1,99.9" style="fill:none;fill-rule:evenodd;stroke:#000000;stroke-width:2.0px;stroke-linecap:butt;stroke-linejoin:miter;stroke-opacity:1"/>
<path class="bond-3 atom-3 atom-4" d="M 211.1,99.9 L 239.5,79.9" style="fill:none;fill-rule:evenodd;stroke:#000000;stroke-width:2.0px;stroke-linecap:butt;stroke-linejoin:miter;stroke-opacity:1"/>
<path class="bond-4 atom-4 atom-5" d="M 239.5,79.9 L 252.4,86.0" style="fill:none;fill-rule:evenodd;stroke:#000000;stroke-width:2.0px;stroke-linecap:butt;stroke-linejoin:miter;stroke-opacity:1"/>
<path class="bond-4 atom-4 atom-5" d="M 252.4,86.0 L 265.4,92.0" style="fill:none;fill-rule:evenodd;stroke:#FF0000;stroke-width:2.0px;stroke-linecap:butt;stroke-linejoin:miter;stroke-opacity:1"/>
<path class="bond-4 atom-4 atom-5" d="M 240.0,85.8 L 250.3,90.6" style="fill:none;fill-rule:evenodd;stroke:#000000;stroke-width:2.0px;stroke-linecap:butt;stroke-linejoin:miter;stroke-opacity:1"/>
<path class="bond-4 atom-4 atom-5" d="M 250.3,90.6 L 263.2,96.6" style="fill:none;fill-rule:evenodd;stroke:#FF0000;stroke-width:2.0px;stroke-linecap:butt;stroke-linejoin:miter;stroke-opacity:1"/>
<path class="bond-5 atom-3 atom-6" d="M 211.1,99.9 L 214.1,134.5" style="fill:none;fill-rule:evenodd;stroke:#000000;stroke-width:2.0px;stroke-linecap:butt;stroke-linejoin:miter;stroke-opacity:1"/>
<path class="bond-6 atom-6 atom-7" d="M 214.1,134.5 L 227.1,140.5" style="fill:none;fill-rule:evenodd;stroke:#000000;stroke-width:2.0px;stroke-linecap:butt;stroke-linejoin:miter;stroke-opacity:1"/>
<path class="bond-6 atom-6 atom-7" d="M 227.1,140.5 L 240.0,146.5" style="fill:none;fill-rule:evenodd;stroke:#FF0000;stroke-width:2.0px;stroke-linecap:butt;stroke-linejoin:miter;stroke-opacity:1"/>
<path class="bond-7 atom-7 atom-8" d="M 246.2,155.4 L 248.2,177.7" style="fill:none;fill-rule:evenodd;stroke:#FF0000;stroke-width:2.0px;stroke-linecap:butt;stroke-linejoin:miter;stroke-opacity:1"/>
<path class="bond-8 atom-1 atom-9" d="M 176.5,50.7 L 211.1,47.6" style="fill:none;fill-rule:evenodd;stroke:#000000;stroke-width:2.0px;stroke-linecap:butt;stroke-linejoin:miter;stroke-opacity:1"/>
<path class="bond-9 atom-9 atom-10" d="M 213.1,49.3 L 219.1,36.4" style="fill:none;fill-rule:evenodd;stroke:#000000;stroke-width:2.0px;stroke-linecap:butt;stroke-linejoin:miter;stroke-opacity:1"/>
<path class="bond-9 atom-9 atom-10" d="M 219.1,36.4 L 225.1,23.4" style="fill:none;fill-rule:evenodd;stroke:#FF0000;stroke-width:2.0px;stroke-linecap:butt;stroke-linejoin:miter;stroke-opacity:1"/>
<path class="bond-9 atom-9 atom-10" d="M 208.1,47.8 L 214.5,34.2" style="fill:none;fill-rule:evenodd;stroke:#000000;stroke-width:2.0px;stroke-linecap:butt;stroke-linejoin:miter;stroke-opacity:1"/>
<path class="bond-9 atom-9 atom-10" d="M 214.5,34.2 L 220.5,21.2" style="fill:none;fill-rule:evenodd;stroke:#FF0000;stroke-width:2.0px;stroke-linecap:butt;stroke-linejoin:miter;stroke-opacity:1"/>
<path class="bond-10 atom-9 atom-11" d="M 211.1,47.6 L 216.9,52.6" style="fill:none;fill-rule:evenodd;stroke:#000000;stroke-width:2.0px;stroke-linecap:butt;stroke-linejoin:miter;stroke-opacity:1"/>
<path class="bond-10 atom-9 atom-11" d="M 216.9,52.6 L 222.7,57.6" style="fill:none;fill-rule:evenodd;stroke:#FF0000;stroke-width:2.0px;stroke-linecap:butt;stroke-linejoin:miter;stroke-opacity:1"/>
<path class="bond-11 atom-1 atom-12" d="M 176.5,50.7 L 141.9,53.7" style="fill:none;fill-rule:evenodd;stroke:#000000;stroke-width:2.0px;stroke-linecap:butt;stroke-linejoin:miter;stroke-opacity:1"/>
<path class="bond-12 atom-12 atom-13" d="M 141.9,53.7 L 134.1,42.6" style="fill:none;fill-rule:evenodd;stroke:#000000;stroke-width:2.0px;stroke-linecap:butt;stroke-linejoin:miter;stroke-opacity:1"/>
<path class="bond-12 atom-12 atom-13" d="M 134.1,42.6 L 126.3,31.5" style="fill:none;fill-rule:evenodd;stroke:#FF0000;stroke-width:2.0px;stroke-linecap:butt;stroke-linejoin:miter;stroke-opacity:1"/>
<path class="bond-13 atom-12 atom-14" d="M 141.9,53.7 L 127.2,85.2" style="fill:none;fill-rule:evenodd;stroke:#000000;stroke-width:2.0px;stroke-linecap:butt;stroke-linejoin:miter;stroke-opacity:1"/>
<path class="bond-14 atom-14 atom-15" d="M 127.2,85.2 L 92.6,88.3" style="fill:none;fill-rule:evenodd;stroke:#000000;stroke-width:2.0px;stroke-linecap:butt;stroke-linejoin:miter;stroke-opacity:1"/>
<path class="bond-15 atom-15 atom-16" d="M 92.6,88.3 L 72.6,59.9" style="fill:none;fill-rule:evenodd;stroke:#000000;stroke-width:2.0px;stroke-linecap:butt;stroke-linejoin:miter;stroke-opacity:1"/>
<path class="bond-16 atom-16 atom-17" d="M 72.6,59.9 L 58.1,61.2" style="fill:none;fill-rule:evenodd;stroke:#000000;stroke-width:2.0px;stroke-linecap:butt;stroke-linejoin:miter;stroke-opacity:1"/>
<path class="bond-16 atom-16 atom-17" d="M 58.1,61.2 L 43.7,62.4" style="fill:none;fill-rule:evenodd;stroke:#FF0000;stroke-width:2.0px;stroke-linecap:butt;stroke-linejoin:miter;stroke-opacity:1"/>
<path class="bond-16 atom-16 atom-17" d="M 70.1,65.2 L 58.6,66.3" style="fill:none;fill-rule:evenodd;stroke:#000000;stroke-width:2.0px;stroke-linecap:butt;stroke-linejoin:miter;stroke-opacity:1"/>
<path class="bond-16 atom-16 atom-17" d="M 58.6,66.3 L 44.1,67.6" style="fill:none;fill-rule:evenodd;stroke:#FF0000;stroke-width:2.0px;stroke-linecap:butt;stroke-linejoin:miter;stroke-opacity:1"/>
<path class="bond-17 atom-15 atom-18" d="M 92.6,88.3 L 77.9,119.8" style="fill:none;fill-rule:evenodd;stroke:#000000;stroke-width:2.0px;stroke-linecap:butt;stroke-linejoin:miter;stroke-opacity:1"/>
<path class="bond-18 atom-18 atom-19" d="M 77.9,119.8 L 63.5,121.1" style="fill:none;fill-rule:evenodd;stroke:#000000;stroke-width:2.0px;stroke-linecap:butt;stroke-linejoin:miter;stroke-opacity:1"/>
<path class="bond-18 atom-18 atom-19" d="M 63.5,121.1 L 49.0,122.4" style="fill:none;fill-rule:evenodd;stroke:#FF0000;stroke-width:2.0px;stroke-linecap:butt;stroke-linejoin:miter;stroke-opacity:1"/>
<path class="bond-19 atom-19 atom-20" d="M 40.4,129.2 L 31.5,148.3" style="fill:none;fill-rule:evenodd;stroke:#FF0000;stroke-width:2.0px;stroke-linecap:butt;stroke-linejoin:miter;stroke-opacity:1"/>
<path d="M 179.4,83.5 L 179.5,85.3 L 181.1,86.0" style="fill:none;stroke:#000000;stroke-width:2.0px;stroke-linecap:butt;stroke-linejoin:miter;stroke-opacity:1;"/>
<path d="M 238.1,80.9 L 239.5,79.9 L 240.1,80.2" style="fill:none;stroke:#000000;stroke-width:2.0px;stroke-linecap:butt;stroke-linejoin:miter;stroke-opacity:1;"/>
<path d="M 214.0,132.8 L 214.1,134.5 L 214.8,134.8" style="fill:none;stroke:#000000;stroke-width:2.0px;stroke-linecap:butt;stroke-linejoin:miter;stroke-opacity:1;"/>
<path d="M 209.4,47.7 L 211.1,47.6 L 211.4,47.8" style="fill:none;stroke:#000000;stroke-width:2.0px;stroke-linecap:butt;stroke-linejoin:miter;stroke-opacity:1;"/>
<path d="M 127.9,83.7 L 127.2,85.2 L 125.5,85.4" style="fill:none;stroke:#000000;stroke-width:2.0px;stroke-linecap:butt;stroke-linejoin:miter;stroke-opacity:1;"/>
<path d="M 73.6,61.3 L 72.6,59.9 L 71.9,59.9" style="fill:none;stroke:#000000;stroke-width:2.0px;stroke-linecap:butt;stroke-linejoin:miter;stroke-opacity:1;"/>
<path d="M 78.7,118.3 L 77.9,119.8 L 77.2,119.9" style="fill:none;stroke:#000000;stroke-width:2.0px;stroke-linecap:butt;stroke-linejoin:miter;stroke-opacity:1;"/>
<path class="atom-5" d="M 265.4 96.9 Q 265.4 94.6, 266.6 93.3 Q 267.7 91.9, 269.9 91.9 Q 272.1 91.9, 273.3 93.3 Q 274.4 94.6, 274.4 96.9 Q 274.4 99.3, 273.3 100.7 Q 272.1 102.0, 269.9 102.0 Q 267.8 102.0, 266.6 100.7 Q 265.4 99.3, 265.4 96.9 M 269.9 100.9 Q 271.4 100.9, 272.2 99.9 Q 273.1 98.9, 273.1 96.9 Q 273.1 95.0, 272.2 94.0 Q 271.4 93.0, 269.9 93.0 Q 268.4 93.0, 267.6 94.0 Q 266.8 95.0, 266.8 96.9 Q 266.8 98.9, 267.6 99.9 Q 268.4 100.9, 269.9 100.9 " fill="#FF0000"/>
<path class="atom-7" d="M 241.1 149.2 Q 241.1 146.8, 242.3 145.5 Q 243.5 144.2, 245.6 144.2 Q 247.8 144.2, 249.0 145.5 Q 250.2 146.8, 250.2 149.2 Q 250.2 151.6, 249.0 153.0 Q 247.8 154.3, 245.6 154.3 Q 243.5 154.3, 242.3 153.0 Q 241.1 151.6, 241.1 149.2 M 245.6 153.2 Q 247.1 153.2, 248.0 152.2 Q 248.8 151.2, 248.8 149.2 Q 248.8 147.3, 248.0 146.3 Q 247.1 145.3, 245.6 145.3 Q 244.1 145.3, 243.3 146.3 Q 242.5 147.3, 242.5 149.2 Q 242.5 151.2, 243.3 152.2 Q 244.1 153.2, 245.6 153.2 " fill="#FF0000"/>
<path class="atom-8" d="M 244.2 183.8 Q 244.2 181.5, 245.4 180.1 Q 246.5 178.8, 248.7 178.8 Q 250.9 178.8, 252.1 180.1 Q 253.2 181.5, 253.2 183.8 Q 253.2 186.2, 252.1 187.6 Q 250.9 188.9, 248.7 188.9 Q 246.6 188.9, 245.4 187.6 Q 244.2 186.2, 244.2 183.8 M 248.7 187.8 Q 250.2 187.8, 251.0 186.8 Q 251.8 185.8, 251.8 183.8 Q 251.8 181.9, 251.0 180.9 Q 250.2 179.9, 248.7 179.9 Q 247.2 179.9, 246.4 180.9 Q 245.6 181.9, 245.6 183.8 Q 245.6 185.8, 246.4 186.8 Q 247.2 187.8, 248.7 187.8 " fill="#FF0000"/>
<path class="atom-8" d="M 254.8 178.9 L 256.1 178.9 L 256.1 183.1 L 261.1 183.1 L 261.1 178.9 L 262.5 178.9 L 262.5 188.8 L 261.1 188.8 L 261.1 184.2 L 256.1 184.2 L 256.1 188.8 L 254.8 188.8 L 254.8 178.9 " fill="#FF0000"/>
<path class="atom-10" d="M 221.2 16.1 Q 221.2 13.7, 222.4 12.4 Q 223.5 11.1, 225.7 11.1 Q 227.9 11.1, 229.1 12.4 Q 230.2 13.7, 230.2 16.1 Q 230.2 18.5, 229.1 19.8 Q 227.9 21.2, 225.7 21.2 Q 223.6 21.2, 222.4 19.8 Q 221.2 18.5, 221.2 16.1 M 225.7 20.1 Q 227.2 20.1, 228.0 19.1 Q 228.9 18.1, 228.9 16.1 Q 228.9 14.2, 228.0 13.2 Q 227.2 12.2, 225.7 12.2 Q 224.2 12.2, 223.4 13.2 Q 222.6 14.1, 222.6 16.1 Q 222.6 18.1, 223.4 19.1 Q 224.2 20.1, 225.7 20.1 " fill="#FF0000"/>
<path class="atom-11" d="M 223.8 62.5 Q 223.8 60.2, 225.0 58.9 Q 226.1 57.5, 228.3 57.5 Q 230.5 57.5, 231.7 58.9 Q 232.8 60.2, 232.8 62.5 Q 232.8 64.9, 231.6 66.3 Q 230.5 67.6, 228.3 67.6 Q 226.1 67.6, 225.0 66.3 Q 223.8 64.9, 223.8 62.5 M 228.3 66.5 Q 229.8 66.5, 230.6 65.5 Q 231.4 64.5, 231.4 62.5 Q 231.4 60.6, 230.6 59.6 Q 229.8 58.6, 228.3 58.6 Q 226.8 58.6, 226.0 59.6 Q 225.2 60.6, 225.2 62.5 Q 225.2 64.5, 226.0 65.5 Q 226.8 66.5, 228.3 66.5 " fill="#FF0000"/>
<path class="atom-11" d="M 234.4 57.6 L 235.7 57.6 L 235.7 61.8 L 240.7 61.8 L 240.7 57.6 L 242.1 57.6 L 242.1 67.5 L 240.7 67.5 L 240.7 62.9 L 235.7 62.9 L 235.7 67.5 L 234.4 67.5 L 234.4 57.6 " fill="#FF0000"/>
<path class="atom-13" d="M 107.6 20.4 L 109.0 20.4 L 109.0 24.6 L 114.0 24.6 L 114.0 20.4 L 115.3 20.4 L 115.3 30.3 L 114.0 30.3 L 114.0 25.7 L 109.0 25.7 L 109.0 30.3 L 107.6 30.3 L 107.6 20.4 " fill="#FF0000"/>
<path class="atom-13" d="M 117.4 25.3 Q 117.4 23.0, 118.5 21.6 Q 119.7 20.3, 121.9 20.3 Q 124.1 20.3, 125.2 21.6 Q 126.4 23.0, 126.4 25.3 Q 126.4 27.7, 125.2 29.1 Q 124.0 30.4, 121.9 30.4 Q 119.7 30.4, 118.5 29.1 Q 117.4 27.7, 117.4 25.3 M 121.9 29.3 Q 123.4 29.3, 124.2 28.3 Q 125.0 27.3, 125.0 25.3 Q 125.0 23.4, 124.2 22.4 Q 123.4 21.4, 121.9 21.4 Q 120.4 21.4, 119.6 22.4 Q 118.8 23.4, 118.8 25.3 Q 118.8 27.3, 119.6 28.3 Q 120.4 29.3, 121.9 29.3 " fill="#FF0000"/>
<path class="atom-17" d="M 33.7 65.5 Q 33.7 63.2, 34.9 61.8 Q 36.1 60.5, 38.2 60.5 Q 40.4 60.5, 41.6 61.8 Q 42.8 63.2, 42.8 65.5 Q 42.8 67.9, 41.6 69.3 Q 40.4 70.6, 38.2 70.6 Q 36.1 70.6, 34.9 69.3 Q 33.7 67.9, 33.7 65.5 M 38.2 69.5 Q 39.7 69.5, 40.5 68.5 Q 41.4 67.5, 41.4 65.5 Q 41.4 63.6, 40.5 62.6 Q 39.7 61.6, 38.2 61.6 Q 36.7 61.6, 35.9 62.6 Q 35.1 63.6, 35.1 65.5 Q 35.1 67.5, 35.9 68.5 Q 36.7 69.5, 38.2 69.5 " fill="#FF0000"/>
<path class="atom-19" d="M 38.8 122.9 Q 38.8 120.6, 40.0 119.2 Q 41.1 117.9, 43.3 117.9 Q 45.5 117.9, 46.7 119.2 Q 47.8 120.6, 47.8 122.9 Q 47.8 125.3, 46.7 126.7 Q 45.5 128.0, 43.3 128.0 Q 41.2 128.0, 40.0 126.7 Q 38.8 125.3, 38.8 122.9 M 43.3 126.9 Q 44.8 126.9, 45.6 125.9 Q 46.5 124.9, 46.5 122.9 Q 46.5 121.0, 45.6 120.0 Q 44.8 119.0, 43.3 119.0 Q 41.8 119.0, 41.0 120.0 Q 40.2 121.0, 40.2 122.9 Q 40.2 124.9, 41.0 125.9 Q 41.8 126.9, 43.3 126.9 " fill="#FF0000"/>
<path class="atom-20" d="M 14.4 149.6 L 15.8 149.6 L 15.8 153.7 L 20.8 153.7 L 20.8 149.6 L 22.2 149.6 L 22.2 159.4 L 20.8 159.4 L 20.8 154.9 L 15.8 154.9 L 15.8 159.4 L 14.4 159.4 L 14.4 149.6 " fill="#FF0000"/>
<path class="atom-20" d="M 24.2 154.4 Q 24.2 152.1, 25.3 150.8 Q 26.5 149.4, 28.7 149.4 Q 30.9 149.4, 32.0 150.8 Q 33.2 152.1, 33.2 154.4 Q 33.2 156.8, 32.0 158.2 Q 30.8 159.5, 28.7 159.5 Q 26.5 159.5, 25.3 158.2 Q 24.2 156.9, 24.2 154.4 M 28.7 158.4 Q 30.2 158.4, 31.0 157.4 Q 31.8 156.4, 31.8 154.4 Q 31.8 152.5, 31.0 151.5 Q 30.2 150.6, 28.7 150.6 Q 27.2 150.6, 26.4 151.5 Q 25.6 152.5, 25.6 154.4 Q 25.6 156.4, 26.4 157.4 Q 27.2 158.4, 28.7 158.4 " fill="#FF0000"/>
</svg>
