<?xml version='1.0' encoding='ASCII' standalone='yes'?>
<svg xmlns="http://www.w3.org/2000/svg" xmlns:rdkit="http://www.rdkit.org/xml" xmlns:xlink="http://www.w3.org/1999/xlink" version="1.1" baseProfile="full" xml:space="preserve" width="265px" height="200px" viewBox="0 0 265 200">
<!-- END OF HEADER -->
<rect style="opacity:1.0;fill:#FFFFFF;stroke:none" width="265.0" height="200.0" x="0.0" y="0.0"> </rect>
<path class="bond-0 atom-0 atom-1" d="M 19.9,91.6 L 28.8,97.1" style="fill:none;fill-rule:evenodd;stroke:#FF0000;stroke-width:2.0px;stroke-linecap:butt;stroke-linejoin:miter;stroke-opacity:1"/>
<path class="bond-0 atom-0 atom-1" d="M 28.8,97.1 L 37.8,102.6" style="fill:none;fill-rule:evenodd;stroke:#000000;stroke-width:2.0px;stroke-linecap:butt;stroke-linejoin:miter;stroke-opacity:1"/>
<path class="bond-0 atom-0 atom-1" d="M 21.9,88.3 L 30.9,93.8" style="fill:none;fill-rule:evenodd;stroke:#FF0000;stroke-width:2.0px;stroke-linecap:butt;stroke-linejoin:miter;stroke-opacity:1"/>
<path class="bond-0 atom-0 atom-1" d="M 30.9,93.8 L 37.9,98.1" style="fill:none;fill-rule:evenodd;stroke:#000000;stroke-width:2.0px;stroke-linecap:butt;stroke-linejoin:miter;stroke-opacity:1"/>
<path class="bond-1 atom-1 atom-2" d="M 37.8,102.6 L 60.7,90.2" style="fill:none;fill-rule:evenodd;stroke:#000000;stroke-width:2.0px;stroke-linecap:butt;stroke-linejoin:miter;stroke-opacity:1"/>
<path class="bond-2 atom-2 atom-3" d="M 60.7,90.2 L 82.9,103.8" style="fill:none;fill-rule:evenodd;stroke:#000000;stroke-width:2.0px;stroke-linecap:butt;stroke-linejoin:miter;stroke-opacity:1"/>
<path class="bond-3 atom-3 atom-4" d="M 81.0,102.6 L 80.7,113.9" style="fill:none;fill-rule:evenodd;stroke:#000000;stroke-width:2.0px;stroke-linecap:butt;stroke-linejoin:miter;stroke-opacity:1"/>
<path class="bond-3 atom-3 atom-4" d="M 80.7,113.9 L 80.4,125.2" style="fill:none;fill-rule:evenodd;stroke:#FF0000;stroke-width:2.0px;stroke-linecap:butt;stroke-linejoin:miter;stroke-opacity:1"/>
<path class="bond-3 atom-3 atom-4" d="M 84.9,102.7 L 84.6,114.0" style="fill:none;fill-rule:evenodd;stroke:#000000;stroke-width:2.0px;stroke-linecap:butt;stroke-linejoin:miter;stroke-opacity:1"/>
<path class="bond-3 atom-3 atom-4" d="M 84.6,114.0 L 84.3,125.3" style="fill:none;fill-rule:evenodd;stroke:#FF0000;stroke-width:2.0px;stroke-linecap:butt;stroke-linejoin:miter;stroke-opacity:1"/>
<path class="bond-4 atom-3 atom-5" d="M 82.9,103.8 L 105.7,91.4" style="fill:none;fill-rule:evenodd;stroke:#000000;stroke-width:2.0px;stroke-linecap:butt;stroke-linejoin:miter;stroke-opacity:1"/>
<path class="bond-5 atom-5 atom-6" d="M 105.7,91.4 L 127.9,105.0" style="fill:none;fill-rule:evenodd;stroke:#000000;stroke-width:2.0px;stroke-linecap:butt;stroke-linejoin:miter;stroke-opacity:1"/>
<path class="bond-6 atom-6 atom-7" d="M 127.9,105.0 L 127.7,115.7" style="fill:none;fill-rule:evenodd;stroke:#000000;stroke-width:2.0px;stroke-linecap:butt;stroke-linejoin:miter;stroke-opacity:1"/>
<path class="bond-6 atom-6 atom-7" d="M 127.7,115.7 L 127.4,126.4" style="fill:none;fill-rule:evenodd;stroke:#FF0000;stroke-width:2.0px;stroke-linecap:butt;stroke-linejoin:miter;stroke-opacity:1"/>
<path class="bond-7 atom-6 atom-8" d="M 127.9,105.0 L 150.8,92.6" style="fill:none;fill-rule:evenodd;stroke:#000000;stroke-width:2.0px;stroke-linecap:butt;stroke-linejoin:miter;stroke-opacity:1"/>
<path class="bond-8 atom-8 atom-9" d="M 150.8,92.6 L 151.1,81.9" style="fill:none;fill-rule:evenodd;stroke:#000000;stroke-width:2.0px;stroke-linecap:butt;stroke-linejoin:miter;stroke-opacity:1"/>
<path class="bond-8 atom-8 atom-9" d="M 151.1,81.9 L 151.4,71.2" style="fill:none;fill-rule:evenodd;stroke:#FF0000;stroke-width:2.0px;stroke-linecap:butt;stroke-linejoin:miter;stroke-opacity:1"/>
<path class="bond-9 atom-8 atom-10" d="M 150.8,92.6 L 173.0,106.2" style="fill:none;fill-rule:evenodd;stroke:#000000;stroke-width:2.0px;stroke-linecap:butt;stroke-linejoin:miter;stroke-opacity:1"/>
<path class="bond-10 atom-10 atom-11" d="M 173.0,106.2 L 195.9,93.7" style="fill:none;fill-rule:evenodd;stroke:#000000;stroke-width:2.0px;stroke-linecap:butt;stroke-linejoin:miter;stroke-opacity:1"/>
<path class="bond-11 atom-11 atom-12" d="M 195.9,93.7 L 196.2,83.1" style="fill:none;fill-rule:evenodd;stroke:#000000;stroke-width:2.0px;stroke-linecap:butt;stroke-linejoin:miter;stroke-opacity:1"/>
<path class="bond-11 atom-11 atom-12" d="M 196.2,83.1 L 196.4,72.4" style="fill:none;fill-rule:evenodd;stroke:#FF0000;stroke-width:2.0px;stroke-linecap:butt;stroke-linejoin:miter;stroke-opacity:1"/>
<path class="bond-12 atom-11 atom-13" d="M 195.9,93.7 L 218.1,107.3" style="fill:none;fill-rule:evenodd;stroke:#000000;stroke-width:2.0px;stroke-linecap:butt;stroke-linejoin:miter;stroke-opacity:1"/>
<path class="bond-13 atom-13 atom-14" d="M 216.2,106.2 L 215.9,117.4" style="fill:none;fill-rule:evenodd;stroke:#000000;stroke-width:2.0px;stroke-linecap:butt;stroke-linejoin:miter;stroke-opacity:1"/>
<path class="bond-13 atom-13 atom-14" d="M 215.9,117.4 L 215.6,128.7" style="fill:none;fill-rule:evenodd;stroke:#FF0000;stroke-width:2.0px;stroke-linecap:butt;stroke-linejoin:miter;stroke-opacity:1"/>
<path class="bond-13 atom-13 atom-14" d="M 220.1,106.3 L 219.8,117.5" style="fill:none;fill-rule:evenodd;stroke:#000000;stroke-width:2.0px;stroke-linecap:butt;stroke-linejoin:miter;stroke-opacity:1"/>
<path class="bond-13 atom-13 atom-14" d="M 219.8,117.5 L 219.5,128.8" style="fill:none;fill-rule:evenodd;stroke:#FF0000;stroke-width:2.0px;stroke-linecap:butt;stroke-linejoin:miter;stroke-opacity:1"/>
<path class="bond-14 atom-13 atom-15" d="M 218.1,107.3 L 227.4,102.3" style="fill:none;fill-rule:evenodd;stroke:#000000;stroke-width:2.0px;stroke-linecap:butt;stroke-linejoin:miter;stroke-opacity:1"/>
<path class="bond-14 atom-13 atom-15" d="M 227.4,102.3 L 236.7,97.2" style="fill:none;fill-rule:evenodd;stroke:#FF0000;stroke-width:2.0px;stroke-linecap:butt;stroke-linejoin:miter;stroke-opacity:1"/>
<path d="M 37.4,102.3 L 37.8,102.6 L 38.9,102.0" style="fill:none;stroke:#000000;stroke-width:2.0px;stroke-linecap:butt;stroke-linejoin:miter;stroke-opacity:1;"/>
<path d="M 59.5,90.8 L 60.7,90.2 L 61.8,90.9" style="fill:none;stroke:#000000;stroke-width:2.0px;stroke-linecap:butt;stroke-linejoin:miter;stroke-opacity:1;"/>
<path d="M 81.8,103.1 L 82.9,103.8 L 84.0,103.2" style="fill:none;stroke:#000000;stroke-width:2.0px;stroke-linecap:butt;stroke-linejoin:miter;stroke-opacity:1;"/>
<path d="M 104.6,92.0 L 105.7,91.4 L 106.9,92.0" style="fill:none;stroke:#000000;stroke-width:2.0px;stroke-linecap:butt;stroke-linejoin:miter;stroke-opacity:1;"/>
<path d="M 171.9,105.5 L 173.0,106.2 L 174.2,105.5" style="fill:none;stroke:#000000;stroke-width:2.0px;stroke-linecap:butt;stroke-linejoin:miter;stroke-opacity:1;"/>
<path d="M 217.0,106.7 L 218.1,107.3 L 218.5,107.1" style="fill:none;stroke:#000000;stroke-width:2.0px;stroke-linecap:butt;stroke-linejoin:miter;stroke-opacity:1;"/>
<path class="atom-0" d="M 13.3 87.4 Q 13.3 85.6, 14.1 84.6 Q 15.0 83.6, 16.6 83.6 Q 18.3 83.6, 19.1 84.6 Q 20.0 85.6, 20.0 87.4 Q 20.0 89.2, 19.1 90.2 Q 18.2 91.2, 16.6 91.2 Q 15.0 91.2, 14.1 90.2 Q 13.3 89.2, 13.3 87.4 M 16.6 90.4 Q 17.8 90.4, 18.4 89.6 Q 19.0 88.8, 19.0 87.4 Q 19.0 85.9, 18.4 85.2 Q 17.8 84.4, 16.6 84.4 Q 15.5 84.4, 14.9 85.2 Q 14.3 85.9, 14.3 87.4 Q 14.3 88.9, 14.9 89.6 Q 15.5 90.4, 16.6 90.4 " fill="#FF0000"/>
<path class="atom-4" d="M 78.8 129.8 Q 78.8 128.1, 79.7 127.1 Q 80.6 126.1, 82.2 126.1 Q 83.8 126.1, 84.7 127.1 Q 85.6 128.1, 85.6 129.8 Q 85.6 131.6, 84.7 132.6 Q 83.8 133.6, 82.2 133.6 Q 80.6 133.6, 79.7 132.6 Q 78.8 131.6, 78.8 129.8 M 82.2 132.8 Q 83.3 132.8, 83.9 132.1 Q 84.5 131.3, 84.5 129.8 Q 84.5 128.4, 83.9 127.7 Q 83.3 126.9, 82.2 126.9 Q 81.1 126.9, 80.5 127.6 Q 79.8 128.4, 79.8 129.8 Q 79.8 131.3, 80.5 132.1 Q 81.1 132.8, 82.2 132.8 " fill="#FF0000"/>
<path class="atom-7" d="M 123.9 131.0 Q 123.9 129.2, 124.7 128.3 Q 125.6 127.3, 127.3 127.3 Q 128.9 127.3, 129.8 128.3 Q 130.6 129.2, 130.6 131.0 Q 130.6 132.8, 129.8 133.8 Q 128.9 134.8, 127.3 134.8 Q 125.6 134.8, 124.7 133.8 Q 123.9 132.8, 123.9 131.0 M 127.3 134.0 Q 128.4 134.0, 129.0 133.2 Q 129.6 132.5, 129.6 131.0 Q 129.6 129.6, 129.0 128.8 Q 128.4 128.1, 127.3 128.1 Q 126.1 128.1, 125.5 128.8 Q 124.9 129.6, 124.9 131.0 Q 124.9 132.5, 125.5 133.2 Q 126.1 134.0, 127.3 134.0 " fill="#FF0000"/>
<path class="atom-7" d="M 131.8 127.3 L 132.8 127.3 L 132.8 130.5 L 136.6 130.5 L 136.6 127.3 L 137.6 127.3 L 137.6 134.7 L 136.6 134.7 L 136.6 131.3 L 132.8 131.3 L 132.8 134.7 L 131.8 134.7 L 131.8 127.3 " fill="#FF0000"/>
<path class="atom-9" d="M 148.1 66.6 Q 148.1 64.8, 149.0 63.8 Q 149.9 62.8, 151.5 62.8 Q 153.1 62.8, 154.0 63.8 Q 154.9 64.8, 154.9 66.6 Q 154.9 68.3, 154.0 69.4 Q 153.1 70.4, 151.5 70.4 Q 149.9 70.4, 149.0 69.4 Q 148.1 68.4, 148.1 66.6 M 151.5 69.5 Q 152.6 69.5, 153.2 68.8 Q 153.8 68.0, 153.8 66.6 Q 153.8 65.1, 153.2 64.4 Q 152.6 63.6, 151.5 63.6 Q 150.4 63.6, 149.8 64.4 Q 149.2 65.1, 149.2 66.6 Q 149.2 68.0, 149.8 68.8 Q 150.4 69.5, 151.5 69.5 " fill="#FF0000"/>
<path class="atom-9" d="M 156.0 62.9 L 157.0 62.9 L 157.0 66.0 L 160.8 66.0 L 160.8 62.9 L 161.8 62.9 L 161.8 70.3 L 160.8 70.3 L 160.8 66.9 L 157.0 66.9 L 157.0 70.3 L 156.0 70.3 L 156.0 62.9 " fill="#FF0000"/>
<path class="atom-12" d="M 193.2 67.7 Q 193.2 66.0, 194.1 65.0 Q 194.9 64.0, 196.6 64.0 Q 198.2 64.0, 199.1 65.0 Q 199.9 66.0, 199.9 67.7 Q 199.9 69.5, 199.1 70.5 Q 198.2 71.6, 196.6 71.6 Q 194.9 71.6, 194.1 70.5 Q 193.2 69.5, 193.2 67.7 M 196.6 70.7 Q 197.7 70.7, 198.3 70.0 Q 198.9 69.2, 198.9 67.7 Q 198.9 66.3, 198.3 65.6 Q 197.7 64.8, 196.6 64.8 Q 195.4 64.8, 194.8 65.5 Q 194.2 66.3, 194.2 67.7 Q 194.2 69.2, 194.8 70.0 Q 195.4 70.7, 196.6 70.7 " fill="#FF0000"/>
<path class="atom-12" d="M 201.1 64.1 L 202.1 64.1 L 202.1 67.2 L 205.9 67.2 L 205.9 64.1 L 206.9 64.1 L 206.9 71.4 L 205.9 71.4 L 205.9 68.0 L 202.1 68.0 L 202.1 71.4 L 201.1 71.4 L 201.1 64.1 " fill="#FF0000"/>
<path class="atom-14" d="M 214.0 133.4 Q 214.0 131.6, 214.9 130.6 Q 215.8 129.6, 217.4 129.6 Q 219.0 129.6, 219.9 130.6 Q 220.8 131.6, 220.8 133.4 Q 220.8 135.2, 219.9 136.2 Q 219.0 137.2, 217.4 137.2 Q 215.8 137.2, 214.9 136.2 Q 214.0 135.2, 214.0 133.4 M 217.4 136.4 Q 218.5 136.4, 219.1 135.6 Q 219.7 134.9, 219.7 133.4 Q 219.7 131.9, 219.1 131.2 Q 218.5 130.5, 217.4 130.5 Q 216.3 130.5, 215.7 131.2 Q 215.1 131.9, 215.1 133.4 Q 215.1 134.9, 215.7 135.6 Q 216.3 136.4, 217.4 136.4 " fill="#FF0000"/>
<path class="atom-15" d="M 237.6 94.9 Q 237.6 93.2, 238.4 92.2 Q 239.3 91.2, 241.0 91.2 Q 242.6 91.2, 243.5 92.2 Q 244.3 93.2, 244.3 94.9 Q 244.3 96.7, 243.4 97.7 Q 242.6 98.8, 241.0 98.8 Q 239.3 98.8, 238.4 97.7 Q 237.6 96.7, 237.6 94.9 M 241.0 97.9 Q 242.1 97.9, 242.7 97.2 Q 243.3 96.4, 243.3 94.9 Q 243.3 93.5, 242.7 92.8 Q 242.1 92.0, 241.0 92.0 Q 239.8 92.0, 239.2 92.7 Q 238.6 93.5, 238.6 94.9 Q 238.6 96.4, 239.2 97.2 Q 239.8 97.9, 241.0 97.9 " fill="#FF0000"/>
<path class="atom-15" d="M 245.5 91.3 L 246.5 91.3 L 246.5 94.4 L 250.3 94.4 L 250.3 91.3 L 251.2 91.3 L 251.2 98.6 L 250.3 98.6 L 250.3 95.2 L 246.5 95.2 L 246.5 98.6 L 245.5 98.6 L 245.5 91.3 " fill="#FF0000"/>
</svg>
