<?xml version='1.0' encoding='ASCII' standalone='yes'?>
<svg xmlns="http://www.w3.org/2000/svg" xmlns:rdkit="http://www.rdkit.org/xml" xmlns:xlink="http://www.w3.org/1999/xlink" version="1.1" baseProfile="full" xml:space="preserve" width="301px" height="200px" viewBox="0 0 301 200">
<!-- END OF HEADER -->
<rect style="opacity:1.0;fill:#FFFFFF;stroke:none" width="301.0" height="200.0" x="0.0" y="0.0"> </rect>
<path class="bond-0 atom-0 atom-1" d="M 15.1,66.9 L 47.0,70.6" style="fill:none;fill-rule:evenodd;stroke:#000000;stroke-width:2.0px;stroke-linecap:butt;stroke-linejoin:miter;stroke-opacity:1"/>
<path class="bond-1 atom-1 atom-2" d="M 47.0,70.6 L 54.4,60.6" style="fill:none;fill-rule:evenodd;stroke:#000000;stroke-width:2.0px;stroke-linecap:butt;stroke-linejoin:miter;stroke-opacity:1"/>
<path class="bond-1 atom-1 atom-2" d="M 54.4,60.6 L 61.8,50.6" style="fill:none;fill-rule:evenodd;stroke:#FF0000;stroke-width:2.0px;stroke-linecap:butt;stroke-linejoin:miter;stroke-opacity:1"/>
<path class="bond-2 atom-1 atom-3" d="M 47.0,70.6 L 59.7,100.1" style="fill:none;fill-rule:evenodd;stroke:#000000;stroke-width:2.0px;stroke-linecap:butt;stroke-linejoin:miter;stroke-opacity:1"/>
<path class="bond-3 atom-3 atom-4" d="M 59.7,100.1 L 30.2,112.8" style="fill:none;fill-rule:evenodd;stroke:#000000;stroke-width:2.0px;stroke-linecap:butt;stroke-linejoin:miter;stroke-opacity:1"/>
<path class="bond-4 atom-3 atom-5" d="M 59.7,100.1 L 89.2,87.4" style="fill:none;fill-rule:evenodd;stroke:#000000;stroke-width:2.0px;stroke-linecap:butt;stroke-linejoin:miter;stroke-opacity:1"/>
<path class="bond-5 atom-5 atom-6" d="M 89.2,87.4 L 114.9,106.6" style="fill:none;fill-rule:evenodd;stroke:#000000;stroke-width:2.0px;stroke-linecap:butt;stroke-linejoin:miter;stroke-opacity:1"/>
<path class="bond-6 atom-6 atom-7" d="M 114.9,106.6 L 144.4,93.9" style="fill:none;fill-rule:evenodd;stroke:#000000;stroke-width:2.0px;stroke-linecap:butt;stroke-linejoin:miter;stroke-opacity:1"/>
<path class="bond-7 atom-7 atom-8" d="M 144.4,93.9 L 145.9,80.8" style="fill:none;fill-rule:evenodd;stroke:#000000;stroke-width:2.0px;stroke-linecap:butt;stroke-linejoin:miter;stroke-opacity:1"/>
<path class="bond-7 atom-7 atom-8" d="M 145.9,80.8 L 147.5,67.7" style="fill:none;fill-rule:evenodd;stroke:#FF0000;stroke-width:2.0px;stroke-linecap:butt;stroke-linejoin:miter;stroke-opacity:1"/>
<path class="bond-8 atom-7 atom-9" d="M 144.4,93.9 L 170.2,113.0" style="fill:none;fill-rule:evenodd;stroke:#000000;stroke-width:2.0px;stroke-linecap:butt;stroke-linejoin:miter;stroke-opacity:1"/>
<path class="bond-9 atom-9 atom-10" d="M 170.2,113.0 L 151.0,138.8" style="fill:none;fill-rule:evenodd;stroke:#000000;stroke-width:2.0px;stroke-linecap:butt;stroke-linejoin:miter;stroke-opacity:1"/>
<path class="bond-10 atom-9 atom-11" d="M 170.2,113.0 L 189.4,87.3" style="fill:none;fill-rule:evenodd;stroke:#000000;stroke-width:2.0px;stroke-linecap:butt;stroke-linejoin:miter;stroke-opacity:1"/>
<path class="bond-11 atom-11 atom-12" d="M 189.4,87.3 L 221.3,91.0" style="fill:none;fill-rule:evenodd;stroke:#000000;stroke-width:2.0px;stroke-linecap:butt;stroke-linejoin:miter;stroke-opacity:1"/>
<path class="bond-12 atom-12 atom-13" d="M 221.3,91.0 L 234.0,120.5" style="fill:none;fill-rule:evenodd;stroke:#000000;stroke-width:2.0px;stroke-linecap:butt;stroke-linejoin:miter;stroke-opacity:1"/>
<path class="bond-13 atom-13 atom-14" d="M 234.0,120.5 L 247.3,122.0" style="fill:none;fill-rule:evenodd;stroke:#000000;stroke-width:2.0px;stroke-linecap:butt;stroke-linejoin:miter;stroke-opacity:1"/>
<path class="bond-13 atom-13 atom-14" d="M 247.3,122.0 L 260.7,123.6" style="fill:none;fill-rule:evenodd;stroke:#FF0000;stroke-width:2.0px;stroke-linecap:butt;stroke-linejoin:miter;stroke-opacity:1"/>
<path class="bond-14 atom-12 atom-15" d="M 221.3,91.0 L 240.4,65.2" style="fill:none;fill-rule:evenodd;stroke:#000000;stroke-width:2.0px;stroke-linecap:butt;stroke-linejoin:miter;stroke-opacity:1"/>
<path class="bond-15 atom-15 atom-16" d="M 243.2,65.6 L 237.8,53.1" style="fill:none;fill-rule:evenodd;stroke:#000000;stroke-width:2.0px;stroke-linecap:butt;stroke-linejoin:miter;stroke-opacity:1"/>
<path class="bond-15 atom-15 atom-16" d="M 237.8,53.1 L 232.4,40.6" style="fill:none;fill-rule:evenodd;stroke:#FF0000;stroke-width:2.0px;stroke-linecap:butt;stroke-linejoin:miter;stroke-opacity:1"/>
<path class="bond-15 atom-15 atom-16" d="M 238.8,67.4 L 233.4,55.0" style="fill:none;fill-rule:evenodd;stroke:#000000;stroke-width:2.0px;stroke-linecap:butt;stroke-linejoin:miter;stroke-opacity:1"/>
<path class="bond-15 atom-15 atom-16" d="M 233.4,55.0 L 228.0,42.5" style="fill:none;fill-rule:evenodd;stroke:#FF0000;stroke-width:2.0px;stroke-linecap:butt;stroke-linejoin:miter;stroke-opacity:1"/>
<path class="bond-16 atom-15 atom-17" d="M 240.4,65.2 L 253.8,66.8" style="fill:none;fill-rule:evenodd;stroke:#000000;stroke-width:2.0px;stroke-linecap:butt;stroke-linejoin:miter;stroke-opacity:1"/>
<path class="bond-16 atom-15 atom-17" d="M 253.8,66.8 L 267.1,68.4" style="fill:none;fill-rule:evenodd;stroke:#FF0000;stroke-width:2.0px;stroke-linecap:butt;stroke-linejoin:miter;stroke-opacity:1"/>
<path class="bond-17 atom-9 atom-18" d="M 170.2,113.0 L 195.9,132.2" style="fill:none;fill-rule:evenodd;stroke:#000000;stroke-width:2.0px;stroke-linecap:butt;stroke-linejoin:miter;stroke-opacity:1"/>
<path class="bond-18 atom-18 atom-19" d="M 195.7,134.7 L 203.8,133.3" style="fill:none;fill-rule:evenodd;stroke:#000000;stroke-width:2.0px;stroke-linecap:butt;stroke-linejoin:miter;stroke-opacity:1"/>
<path class="bond-18 atom-18 atom-19" d="M 203.8,133.3 L 211.9,132.0" style="fill:none;fill-rule:evenodd;stroke:#FF0000;stroke-width:2.0px;stroke-linecap:butt;stroke-linejoin:miter;stroke-opacity:1"/>
<path class="bond-18 atom-18 atom-19" d="M 193.3,130.2 L 203.0,128.6" style="fill:none;fill-rule:evenodd;stroke:#000000;stroke-width:2.0px;stroke-linecap:butt;stroke-linejoin:miter;stroke-opacity:1"/>
<path class="bond-18 atom-18 atom-19" d="M 203.0,128.6 L 211.1,127.3" style="fill:none;fill-rule:evenodd;stroke:#FF0000;stroke-width:2.0px;stroke-linecap:butt;stroke-linejoin:miter;stroke-opacity:1"/>
<path class="bond-19 atom-18 atom-20" d="M 195.9,132.2 L 194.4,145.3" style="fill:none;fill-rule:evenodd;stroke:#000000;stroke-width:2.0px;stroke-linecap:butt;stroke-linejoin:miter;stroke-opacity:1"/>
<path class="bond-19 atom-18 atom-20" d="M 194.4,145.3 L 192.9,158.5" style="fill:none;fill-rule:evenodd;stroke:#FF0000;stroke-width:2.0px;stroke-linecap:butt;stroke-linejoin:miter;stroke-opacity:1"/>
<path class="bond-20 atom-3 atom-21" d="M 59.7,100.1 L 72.4,129.6" style="fill:none;fill-rule:evenodd;stroke:#000000;stroke-width:2.0px;stroke-linecap:butt;stroke-linejoin:miter;stroke-opacity:1"/>
<path class="bond-21 atom-21 atom-22" d="M 70.8,131.8 L 84.8,133.4" style="fill:none;fill-rule:evenodd;stroke:#000000;stroke-width:2.0px;stroke-linecap:butt;stroke-linejoin:miter;stroke-opacity:1"/>
<path class="bond-21 atom-21 atom-22" d="M 84.8,133.4 L 98.8,135.1" style="fill:none;fill-rule:evenodd;stroke:#FF0000;stroke-width:2.0px;stroke-linecap:butt;stroke-linejoin:miter;stroke-opacity:1"/>
<path class="bond-21 atom-21 atom-22" d="M 71.3,127.1 L 85.3,128.7" style="fill:none;fill-rule:evenodd;stroke:#000000;stroke-width:2.0px;stroke-linecap:butt;stroke-linejoin:miter;stroke-opacity:1"/>
<path class="bond-21 atom-21 atom-22" d="M 85.3,128.7 L 99.4,130.4" style="fill:none;fill-rule:evenodd;stroke:#FF0000;stroke-width:2.0px;stroke-linecap:butt;stroke-linejoin:miter;stroke-opacity:1"/>
<path class="bond-22 atom-21 atom-23" d="M 72.4,129.6 L 64.9,139.7" style="fill:none;fill-rule:evenodd;stroke:#000000;stroke-width:2.0px;stroke-linecap:butt;stroke-linejoin:miter;stroke-opacity:1"/>
<path class="bond-22 atom-21 atom-23" d="M 64.9,139.7 L 57.4,149.7" style="fill:none;fill-rule:evenodd;stroke:#FF0000;stroke-width:2.0px;stroke-linecap:butt;stroke-linejoin:miter;stroke-opacity:1"/>
<path d="M 87.7,88.0 L 89.2,87.4 L 90.5,88.4" style="fill:none;stroke:#000000;stroke-width:2.0px;stroke-linecap:butt;stroke-linejoin:miter;stroke-opacity:1;"/>
<path d="M 113.6,105.6 L 114.9,106.6 L 116.4,105.9" style="fill:none;stroke:#000000;stroke-width:2.0px;stroke-linecap:butt;stroke-linejoin:miter;stroke-opacity:1;"/>
<path d="M 188.4,88.6 L 189.4,87.3 L 191.0,87.5" style="fill:none;stroke:#000000;stroke-width:2.0px;stroke-linecap:butt;stroke-linejoin:miter;stroke-opacity:1;"/>
<path d="M 233.3,119.0 L 234.0,120.5 L 234.6,120.6" style="fill:none;stroke:#000000;stroke-width:2.0px;stroke-linecap:butt;stroke-linejoin:miter;stroke-opacity:1;"/>
<path d="M 239.5,66.5 L 240.4,65.2 L 241.1,65.3" style="fill:none;stroke:#000000;stroke-width:2.0px;stroke-linecap:butt;stroke-linejoin:miter;stroke-opacity:1;"/>
<path d="M 194.7,131.3 L 195.9,132.2 L 195.9,132.9" style="fill:none;stroke:#000000;stroke-width:2.0px;stroke-linecap:butt;stroke-linejoin:miter;stroke-opacity:1;"/>
<path d="M 71.8,128.1 L 72.4,129.6 L 72.0,130.1" style="fill:none;stroke:#000000;stroke-width:2.0px;stroke-linecap:butt;stroke-linejoin:miter;stroke-opacity:1;"/>
<path class="atom-2" d="M 62.0 44.9 Q 62.0 42.7, 63.0 41.5 Q 64.1 40.3, 66.1 40.3 Q 68.1 40.3, 69.2 41.5 Q 70.3 42.7, 70.3 44.9 Q 70.3 47.1, 69.2 48.4 Q 68.1 49.6, 66.1 49.6 Q 64.1 49.6, 63.0 48.4 Q 62.0 47.1, 62.0 44.9 M 66.1 48.6 Q 67.5 48.6, 68.3 47.6 Q 69.0 46.7, 69.0 44.9 Q 69.0 43.1, 68.3 42.2 Q 67.5 41.3, 66.1 41.3 Q 64.7 41.3, 64.0 42.2 Q 63.2 43.1, 63.2 44.9 Q 63.2 46.7, 64.0 47.6 Q 64.7 48.6, 66.1 48.6 " fill="#FF0000"/>
<path class="atom-2" d="M 71.7 40.4 L 73.0 40.4 L 73.0 44.2 L 77.6 44.2 L 77.6 40.4 L 78.8 40.4 L 78.8 49.5 L 77.6 49.5 L 77.6 45.3 L 73.0 45.3 L 73.0 49.5 L 71.7 49.5 L 71.7 40.4 " fill="#FF0000"/>
<path class="atom-8" d="M 144.0 62.0 Q 144.0 59.8, 145.1 58.6 Q 146.1 57.4, 148.1 57.4 Q 150.2 57.4, 151.2 58.6 Q 152.3 59.8, 152.3 62.0 Q 152.3 64.2, 151.2 65.4 Q 150.1 66.7, 148.1 66.7 Q 146.1 66.7, 145.1 65.4 Q 144.0 64.2, 144.0 62.0 M 148.1 65.7 Q 149.5 65.7, 150.3 64.7 Q 151.0 63.8, 151.0 62.0 Q 151.0 60.2, 150.3 59.3 Q 149.5 58.4, 148.1 58.4 Q 146.8 58.4, 146.0 59.3 Q 145.3 60.2, 145.3 62.0 Q 145.3 63.8, 146.0 64.7 Q 146.8 65.7, 148.1 65.7 " fill="#FF0000"/>
<path class="atom-8" d="M 153.7 57.5 L 155.0 57.5 L 155.0 61.3 L 159.6 61.3 L 159.6 57.5 L 160.9 57.5 L 160.9 66.6 L 159.6 66.6 L 159.6 62.4 L 155.0 62.4 L 155.0 66.6 L 153.7 66.6 L 153.7 57.5 " fill="#FF0000"/>
<path class="atom-14" d="M 261.7 124.2 Q 261.7 122.1, 262.8 120.8 Q 263.9 119.6, 265.9 119.6 Q 267.9 119.6, 269.0 120.8 Q 270.1 122.1, 270.1 124.2 Q 270.1 126.5, 269.0 127.7 Q 267.9 129.0, 265.9 129.0 Q 263.9 129.0, 262.8 127.7 Q 261.7 126.5, 261.7 124.2 M 265.9 127.9 Q 267.3 127.9, 268.0 127.0 Q 268.8 126.1, 268.8 124.2 Q 268.8 122.5, 268.0 121.6 Q 267.3 120.6, 265.9 120.6 Q 264.5 120.6, 263.7 121.5 Q 263.0 122.4, 263.0 124.2 Q 263.0 126.1, 263.7 127.0 Q 264.5 127.9, 265.9 127.9 " fill="#FF0000"/>
<path class="atom-14" d="M 271.5 119.7 L 272.7 119.7 L 272.7 123.6 L 277.4 123.6 L 277.4 119.7 L 278.6 119.7 L 278.6 128.8 L 277.4 128.8 L 277.4 124.6 L 272.7 124.6 L 272.7 128.8 L 271.5 128.8 L 271.5 119.7 " fill="#FF0000"/>
<path class="atom-16" d="M 223.5 35.8 Q 223.5 33.6, 224.6 32.4 Q 225.7 31.1, 227.7 31.1 Q 229.7 31.1, 230.8 32.4 Q 231.9 33.6, 231.9 35.8 Q 231.9 38.0, 230.8 39.2 Q 229.7 40.5, 227.7 40.5 Q 225.7 40.5, 224.6 39.2 Q 223.5 38.0, 223.5 35.8 M 227.7 39.5 Q 229.1 39.5, 229.9 38.5 Q 230.6 37.6, 230.6 35.8 Q 230.6 34.0, 229.9 33.1 Q 229.1 32.2, 227.7 32.2 Q 226.3 32.2, 225.6 33.1 Q 224.8 34.0, 224.8 35.8 Q 224.8 37.6, 225.6 38.5 Q 226.3 39.5, 227.7 39.5 " fill="#FF0000"/>
<path class="atom-17" d="M 268.2 69.0 Q 268.2 66.8, 269.2 65.6 Q 270.3 64.4, 272.3 64.4 Q 274.4 64.4, 275.4 65.6 Q 276.5 66.8, 276.5 69.0 Q 276.5 71.2, 275.4 72.5 Q 274.3 73.7, 272.3 73.7 Q 270.3 73.7, 269.2 72.5 Q 268.2 71.2, 268.2 69.0 M 272.3 72.7 Q 273.7 72.7, 274.5 71.8 Q 275.2 70.8, 275.2 69.0 Q 275.2 67.2, 274.5 66.3 Q 273.7 65.4, 272.3 65.4 Q 271.0 65.4, 270.2 66.3 Q 269.5 67.2, 269.5 69.0 Q 269.5 70.8, 270.2 71.8 Q 271.0 72.7, 272.3 72.7 " fill="#FF0000"/>
<path class="atom-17" d="M 277.9 64.5 L 279.2 64.5 L 279.2 68.3 L 283.8 68.3 L 283.8 64.5 L 285.1 64.5 L 285.1 73.6 L 283.8 73.6 L 283.8 69.4 L 279.2 69.4 L 279.2 73.6 L 277.9 73.6 L 277.9 64.5 " fill="#FF0000"/>
<path class="atom-19" d="M 212.6 128.8 Q 212.6 126.6, 213.6 125.4 Q 214.7 124.2, 216.7 124.2 Q 218.8 124.2, 219.8 125.4 Q 220.9 126.6, 220.9 128.8 Q 220.9 131.0, 219.8 132.3 Q 218.7 133.5, 216.7 133.5 Q 214.7 133.5, 213.6 132.3 Q 212.6 131.0, 212.6 128.8 M 216.7 132.5 Q 218.1 132.5, 218.9 131.6 Q 219.6 130.6, 219.6 128.8 Q 219.6 127.0, 218.9 126.1 Q 218.1 125.2, 216.7 125.2 Q 215.3 125.2, 214.6 126.1 Q 213.8 127.0, 213.8 128.8 Q 213.8 130.7, 214.6 131.6 Q 215.3 132.5, 216.7 132.5 " fill="#FF0000"/>
<path class="atom-20" d="M 188.0 164.1 Q 188.0 162.0, 189.1 160.7 Q 190.2 159.5, 192.2 159.5 Q 194.2 159.5, 195.3 160.7 Q 196.4 162.0, 196.4 164.1 Q 196.4 166.3, 195.3 167.6 Q 194.2 168.9, 192.2 168.9 Q 190.2 168.9, 189.1 167.6 Q 188.0 166.4, 188.0 164.1 M 192.2 167.8 Q 193.6 167.8, 194.3 166.9 Q 195.1 166.0, 195.1 164.1 Q 195.1 162.4, 194.3 161.5 Q 193.6 160.5, 192.2 160.5 Q 190.8 160.5, 190.1 161.4 Q 189.3 162.3, 189.3 164.1 Q 189.3 166.0, 190.1 166.9 Q 190.8 167.8, 192.2 167.8 " fill="#FF0000"/>
<path class="atom-20" d="M 197.8 159.6 L 199.0 159.6 L 199.0 163.5 L 203.7 163.5 L 203.7 159.6 L 204.9 159.6 L 204.9 168.7 L 203.7 168.7 L 203.7 164.5 L 199.0 164.5 L 199.0 168.7 L 197.8 168.7 L 197.8 159.6 " fill="#FF0000"/>
<path class="atom-22" d="M 100.1 133.4 Q 100.1 131.2, 101.2 130.0 Q 102.3 128.7, 104.3 128.7 Q 106.3 128.7, 107.4 130.0 Q 108.5 131.2, 108.5 133.4 Q 108.5 135.6, 107.4 136.8 Q 106.3 138.1, 104.3 138.1 Q 102.3 138.1, 101.2 136.8 Q 100.1 135.6, 100.1 133.4 M 104.3 137.0 Q 105.7 137.0, 106.4 136.1 Q 107.2 135.2, 107.2 133.4 Q 107.2 131.6, 106.4 130.7 Q 105.7 129.8, 104.3 129.8 Q 102.9 129.8, 102.1 130.7 Q 101.4 131.6, 101.4 133.4 Q 101.4 135.2, 102.1 136.1 Q 102.9 137.0, 104.3 137.0 " fill="#FF0000"/>
<path class="atom-23" d="M 40.1 150.9 L 41.3 150.9 L 41.3 154.7 L 45.9 154.7 L 45.9 150.9 L 47.2 150.9 L 47.2 160.0 L 45.9 160.0 L 45.9 155.8 L 41.3 155.8 L 41.3 160.0 L 40.1 160.0 L 40.1 150.9 " fill="#FF0000"/>
<path class="atom-23" d="M 49.0 155.4 Q 49.0 153.2, 50.1 152.0 Q 51.2 150.8, 53.2 150.8 Q 55.2 150.8, 56.3 152.0 Q 57.4 153.2, 57.4 155.4 Q 57.4 157.6, 56.3 158.9 Q 55.2 160.1, 53.2 160.1 Q 51.2 160.1, 50.1 158.9 Q 49.0 157.6, 49.0 155.4 M 53.2 159.1 Q 54.6 159.1, 55.3 158.2 Q 56.1 157.2, 56.1 155.4 Q 56.1 153.6, 55.3 152.7 Q 54.6 151.8, 53.2 151.8 Q 51.8 151.8, 51.1 152.7 Q 50.3 153.6, 50.3 155.4 Q 50.3 157.2, 51.1 158.2 Q 51.8 159.1, 53.2 159.1 " fill="#FF0000"/>
</svg>
