<?xml version='1.0' encoding='ASCII' standalone='yes'?>
<svg xmlns="http://www.w3.org/2000/svg" xmlns:rdkit="http://www.rdkit.org/xml" xmlns:xlink="http://www.w3.org/1999/xlink" version="1.1" baseProfile="full" xml:space="preserve" width="240px" height="200px" viewBox="0 0 240 200">
<!-- END OF HEADER -->
<rect style="opacity:1.0;fill:#FFFFFF;stroke:none" width="240.0" height="200.0" x="0.0" y="0.0"> </rect>
<path class="bond-0 atom-0 atom-1" d="M 17.1,105.8 L 28.8,99.0" style="fill:none;fill-rule:evenodd;stroke:#191919;stroke-width:2.0px;stroke-linecap:butt;stroke-linejoin:miter;stroke-opacity:1"/>
<path class="bond-0 atom-0 atom-1" d="M 28.8,99.0 L 40.5,92.3" style="fill:none;fill-rule:evenodd;stroke:#000000;stroke-width:2.0px;stroke-linecap:butt;stroke-linejoin:miter;stroke-opacity:1"/>
<path class="bond-1 atom-1 atom-2" d="M 42.8,93.6 L 42.8,80.4" style="fill:none;fill-rule:evenodd;stroke:#000000;stroke-width:2.0px;stroke-linecap:butt;stroke-linejoin:miter;stroke-opacity:1"/>
<path class="bond-1 atom-1 atom-2" d="M 42.8,80.4 L 42.8,67.2" style="fill:none;fill-rule:evenodd;stroke:#FF0000;stroke-width:2.0px;stroke-linecap:butt;stroke-linejoin:miter;stroke-opacity:1"/>
<path class="bond-1 atom-1 atom-2" d="M 38.2,93.6 L 38.2,80.4" style="fill:none;fill-rule:evenodd;stroke:#000000;stroke-width:2.0px;stroke-linecap:butt;stroke-linejoin:miter;stroke-opacity:1"/>
<path class="bond-1 atom-1 atom-2" d="M 38.2,80.4 L 38.2,67.2" style="fill:none;fill-rule:evenodd;stroke:#FF0000;stroke-width:2.0px;stroke-linecap:butt;stroke-linejoin:miter;stroke-opacity:1"/>
<path class="bond-2 atom-1 atom-3" d="M 40.5,92.3 L 51.3,98.5" style="fill:none;fill-rule:evenodd;stroke:#000000;stroke-width:2.0px;stroke-linecap:butt;stroke-linejoin:miter;stroke-opacity:1"/>
<path class="bond-2 atom-1 atom-3" d="M 51.3,98.5 L 62.0,104.7" style="fill:none;fill-rule:evenodd;stroke:#FF0000;stroke-width:2.0px;stroke-linecap:butt;stroke-linejoin:miter;stroke-opacity:1"/>
<path class="bond-3 atom-3 atom-4" d="M 72.0,104.7 L 82.8,98.5" style="fill:none;fill-rule:evenodd;stroke:#FF0000;stroke-width:2.0px;stroke-linecap:butt;stroke-linejoin:miter;stroke-opacity:1"/>
<path class="bond-3 atom-3 atom-4" d="M 82.8,98.5 L 93.5,92.3" style="fill:none;fill-rule:evenodd;stroke:#000000;stroke-width:2.0px;stroke-linecap:butt;stroke-linejoin:miter;stroke-opacity:1"/>
<path class="bond-4 atom-4 atom-5" d="M 93.5,92.3 L 120.0,107.6" style="fill:none;fill-rule:evenodd;stroke:#000000;stroke-width:2.0px;stroke-linecap:butt;stroke-linejoin:miter;stroke-opacity:1"/>
<path class="bond-5 atom-5 atom-6" d="M 120.0,107.6 L 120.0,120.2" style="fill:none;fill-rule:evenodd;stroke:#000000;stroke-width:2.0px;stroke-linecap:butt;stroke-linejoin:miter;stroke-opacity:1"/>
<path class="bond-5 atom-5 atom-6" d="M 120.0,120.2 L 120.0,132.8" style="fill:none;fill-rule:evenodd;stroke:#FF0000;stroke-width:2.0px;stroke-linecap:butt;stroke-linejoin:miter;stroke-opacity:1"/>
<path class="bond-6 atom-5 atom-7" d="M 120.0,107.6 L 146.5,92.3" style="fill:none;fill-rule:evenodd;stroke:#000000;stroke-width:2.0px;stroke-linecap:butt;stroke-linejoin:miter;stroke-opacity:1"/>
<path class="bond-7 atom-7 atom-8" d="M 146.5,92.3 L 157.2,98.5" style="fill:none;fill-rule:evenodd;stroke:#000000;stroke-width:2.0px;stroke-linecap:butt;stroke-linejoin:miter;stroke-opacity:1"/>
<path class="bond-7 atom-7 atom-8" d="M 157.2,98.5 L 168.0,104.7" style="fill:none;fill-rule:evenodd;stroke:#FF0000;stroke-width:2.0px;stroke-linecap:butt;stroke-linejoin:miter;stroke-opacity:1"/>
<path class="bond-8 atom-8 atom-9" d="M 178.0,104.7 L 188.7,98.5" style="fill:none;fill-rule:evenodd;stroke:#FF0000;stroke-width:2.0px;stroke-linecap:butt;stroke-linejoin:miter;stroke-opacity:1"/>
<path class="bond-8 atom-8 atom-9" d="M 188.7,98.5 L 199.5,92.3" style="fill:none;fill-rule:evenodd;stroke:#000000;stroke-width:2.0px;stroke-linecap:butt;stroke-linejoin:miter;stroke-opacity:1"/>
<path class="bond-9 atom-9 atom-10" d="M 199.5,92.3 L 211.2,99.0" style="fill:none;fill-rule:evenodd;stroke:#000000;stroke-width:2.0px;stroke-linecap:butt;stroke-linejoin:miter;stroke-opacity:1"/>
<path class="bond-9 atom-9 atom-10" d="M 211.2,99.0 L 222.9,105.8" style="fill:none;fill-rule:evenodd;stroke:#191919;stroke-width:2.0px;stroke-linecap:butt;stroke-linejoin:miter;stroke-opacity:1"/>
<path class="bond-10 atom-9 atom-11" d="M 201.8,93.6 L 201.8,80.4" style="fill:none;fill-rule:evenodd;stroke:#000000;stroke-width:2.0px;stroke-linecap:butt;stroke-linejoin:miter;stroke-opacity:1"/>
<path class="bond-10 atom-9 atom-11" d="M 201.8,80.4 L 201.8,67.2" style="fill:none;fill-rule:evenodd;stroke:#FF0000;stroke-width:2.0px;stroke-linecap:butt;stroke-linejoin:miter;stroke-opacity:1"/>
<path class="bond-10 atom-9 atom-11" d="M 197.2,93.6 L 197.2,80.4" style="fill:none;fill-rule:evenodd;stroke:#000000;stroke-width:2.0px;stroke-linecap:butt;stroke-linejoin:miter;stroke-opacity:1"/>
<path class="bond-10 atom-9 atom-11" d="M 197.2,80.4 L 197.2,67.2" style="fill:none;fill-rule:evenodd;stroke:#FF0000;stroke-width:2.0px;stroke-linecap:butt;stroke-linejoin:miter;stroke-opacity:1"/>
<path d="M 40.0,92.6 L 40.5,92.3 L 41.1,92.6" style="fill:none;stroke:#000000;stroke-width:2.0px;stroke-linecap:butt;stroke-linejoin:miter;stroke-opacity:1;"/>
<path d="M 93.0,92.6 L 93.5,92.3 L 94.8,93.1" style="fill:none;stroke:#000000;stroke-width:2.0px;stroke-linecap:butt;stroke-linejoin:miter;stroke-opacity:1;"/>
<path d="M 145.2,93.1 L 146.5,92.3 L 147.0,92.6" style="fill:none;stroke:#000000;stroke-width:2.0px;stroke-linecap:butt;stroke-linejoin:miter;stroke-opacity:1;"/>
<path d="M 198.9,92.6 L 199.5,92.3 L 200.0,92.6" style="fill:none;stroke:#000000;stroke-width:2.0px;stroke-linecap:butt;stroke-linejoin:miter;stroke-opacity:1;"/>
<path class="atom-0" d="M 12.4 106.6 L 13.7 105.3 L 12.0 105.0 L 12.3 104.1 L 13.8 104.9 L 13.6 103.2 L 14.5 103.2 L 14.3 104.9 L 15.8 104.1 L 16.1 105.0 L 14.4 105.3 L 15.6 106.6 L 14.9 107.1 L 14.0 105.5 L 13.2 107.1 L 12.4 106.6 " fill="#191919"/>
<path class="atom-2" d="M 36.6 61.7 Q 36.6 59.6, 37.6 58.5 Q 38.6 57.3, 40.5 57.3 Q 42.5 57.3, 43.5 58.5 Q 44.5 59.6, 44.5 61.7 Q 44.5 63.8, 43.5 65.0 Q 42.4 66.2, 40.5 66.2 Q 38.6 66.2, 37.6 65.0 Q 36.6 63.8, 36.6 61.7 M 40.5 65.2 Q 41.9 65.2, 42.6 64.4 Q 43.3 63.5, 43.3 61.7 Q 43.3 60.0, 42.6 59.2 Q 41.9 58.3, 40.5 58.3 Q 39.2 58.3, 38.5 59.2 Q 37.8 60.0, 37.8 61.7 Q 37.8 63.5, 38.5 64.4 Q 39.2 65.2, 40.5 65.2 " fill="#FF0000"/>
<path class="atom-3" d="M 63.0 107.6 Q 63.0 105.5, 64.1 104.4 Q 65.1 103.2, 67.0 103.2 Q 68.9 103.2, 70.0 104.4 Q 71.0 105.5, 71.0 107.6 Q 71.0 109.7, 70.0 110.9 Q 68.9 112.1, 67.0 112.1 Q 65.1 112.1, 64.1 110.9 Q 63.0 109.7, 63.0 107.6 M 67.0 111.1 Q 68.3 111.1, 69.1 110.2 Q 69.8 109.3, 69.8 107.6 Q 69.8 105.9, 69.1 105.0 Q 68.3 104.2, 67.0 104.2 Q 65.7 104.2, 65.0 105.0 Q 64.3 105.9, 64.3 107.6 Q 64.3 109.4, 65.0 110.2 Q 65.7 111.1, 67.0 111.1 " fill="#FF0000"/>
<path class="atom-6" d="M 116.0 138.2 Q 116.0 136.1, 117.1 134.9 Q 118.1 133.8, 120.0 133.8 Q 121.9 133.8, 122.9 134.9 Q 124.0 136.1, 124.0 138.2 Q 124.0 140.3, 122.9 141.5 Q 121.9 142.7, 120.0 142.7 Q 118.1 142.7, 117.1 141.5 Q 116.0 140.3, 116.0 138.2 M 120.0 141.7 Q 121.3 141.7, 122.0 140.8 Q 122.8 139.9, 122.8 138.2 Q 122.8 136.5, 122.0 135.6 Q 121.3 134.8, 120.0 134.8 Q 118.7 134.8, 118.0 135.6 Q 117.2 136.5, 117.2 138.2 Q 117.2 139.9, 118.0 140.8 Q 118.7 141.7, 120.0 141.7 " fill="#FF0000"/>
<path class="atom-6" d="M 125.3 133.9 L 126.5 133.9 L 126.5 137.6 L 130.9 137.6 L 130.9 133.9 L 132.1 133.9 L 132.1 142.5 L 130.9 142.5 L 130.9 138.5 L 126.5 138.5 L 126.5 142.5 L 125.3 142.5 L 125.3 133.9 " fill="#FF0000"/>
<path class="atom-8" d="M 169.0 107.6 Q 169.0 105.5, 170.0 104.4 Q 171.1 103.2, 173.0 103.2 Q 174.9 103.2, 175.9 104.4 Q 177.0 105.5, 177.0 107.6 Q 177.0 109.7, 175.9 110.9 Q 174.9 112.1, 173.0 112.1 Q 171.1 112.1, 170.0 110.9 Q 169.0 109.7, 169.0 107.6 M 173.0 111.1 Q 174.3 111.1, 175.0 110.2 Q 175.7 109.3, 175.7 107.6 Q 175.7 105.9, 175.0 105.0 Q 174.3 104.2, 173.0 104.2 Q 171.7 104.2, 170.9 105.0 Q 170.2 105.9, 170.2 107.6 Q 170.2 109.4, 170.9 110.2 Q 171.7 111.1, 173.0 111.1 " fill="#FF0000"/>
<path class="atom-10" d="M 224.3 106.6 L 225.6 105.3 L 223.9 105.0 L 224.2 104.1 L 225.7 104.9 L 225.5 103.2 L 226.4 103.2 L 226.2 104.9 L 227.7 104.1 L 228.0 105.0 L 226.3 105.3 L 227.5 106.6 L 226.8 107.1 L 225.9 105.5 L 225.1 107.1 L 224.3 106.6 " fill="#191919"/>
<path class="atom-11" d="M 195.5 61.7 Q 195.5 59.6, 196.5 58.5 Q 197.5 57.3, 199.5 57.3 Q 201.4 57.3, 202.4 58.5 Q 203.4 59.6, 203.4 61.7 Q 203.4 63.8, 202.4 65.0 Q 201.4 66.2, 199.5 66.2 Q 197.6 66.2, 196.5 65.0 Q 195.5 63.8, 195.5 61.7 M 199.5 65.2 Q 200.8 65.2, 201.5 64.4 Q 202.2 63.5, 202.2 61.7 Q 202.2 60.0, 201.5 59.2 Q 200.8 58.3, 199.5 58.3 Q 198.1 58.3, 197.4 59.2 Q 196.7 60.0, 196.7 61.7 Q 196.7 63.5, 197.4 64.4 Q 198.1 65.2, 199.5 65.2 " fill="#FF0000"/>
</svg>
