<?xml version='1.0' encoding='ASCII' standalone='yes'?>
<svg xmlns="http://www.w3.org/2000/svg" xmlns:rdkit="http://www.rdkit.org/xml" xmlns:xlink="http://www.w3.org/1999/xlink" version="1.1" baseProfile="full" xml:space="preserve" width="254px" height="200px" viewBox="0 0 254 200">
<!-- END OF HEADER -->
<rect style="opacity:1.0;fill:#FFFFFF;stroke:none" width="254.0" height="200.0" x="0.0" y="0.0"> </rect>
<path class="bond-0 atom-0 atom-1" d="M 12.7,94.1 L 49.8,72.7" style="fill:none;fill-rule:evenodd;stroke:#000000;stroke-width:2.0px;stroke-linecap:butt;stroke-linejoin:miter;stroke-opacity:1"/>
<path class="bond-1 atom-1 atom-2" d="M 49.8,72.7 L 49.8,55.1" style="fill:none;fill-rule:evenodd;stroke:#000000;stroke-width:2.0px;stroke-linecap:butt;stroke-linejoin:miter;stroke-opacity:1"/>
<path class="bond-1 atom-1 atom-2" d="M 49.8,55.1 L 49.8,37.6" style="fill:none;fill-rule:evenodd;stroke:#FF0000;stroke-width:2.0px;stroke-linecap:butt;stroke-linejoin:miter;stroke-opacity:1"/>
<path class="bond-2 atom-1 atom-3" d="M 49.8,72.7 L 86.8,94.1" style="fill:none;fill-rule:evenodd;stroke:#000000;stroke-width:2.0px;stroke-linecap:butt;stroke-linejoin:miter;stroke-opacity:1"/>
<path class="bond-3 atom-3 atom-4" d="M 86.8,94.1 L 108.2,57.0" style="fill:none;fill-rule:evenodd;stroke:#000000;stroke-width:2.0px;stroke-linecap:butt;stroke-linejoin:miter;stroke-opacity:1"/>
<path class="bond-4 atom-3 atom-5" d="M 86.8,94.1 L 65.4,131.1" style="fill:none;fill-rule:evenodd;stroke:#000000;stroke-width:2.0px;stroke-linecap:butt;stroke-linejoin:miter;stroke-opacity:1"/>
<path class="bond-5 atom-3 atom-6" d="M 86.8,94.1 L 123.9,115.5" style="fill:none;fill-rule:evenodd;stroke:#000000;stroke-width:2.0px;stroke-linecap:butt;stroke-linejoin:miter;stroke-opacity:1"/>
<path class="bond-6 atom-6 atom-7" d="M 123.9,115.5 L 123.9,158.3" style="fill:none;fill-rule:evenodd;stroke:#000000;stroke-width:2.0px;stroke-linecap:butt;stroke-linejoin:miter;stroke-opacity:1"/>
<path class="bond-7 atom-6 atom-8" d="M 123.9,115.5 L 161.0,94.1" style="fill:none;fill-rule:evenodd;stroke:#000000;stroke-width:2.0px;stroke-linecap:butt;stroke-linejoin:miter;stroke-opacity:1"/>
<path class="bond-8 atom-8 atom-9" d="M 161.0,94.1 L 139.6,57.0" style="fill:none;fill-rule:evenodd;stroke:#000000;stroke-width:2.0px;stroke-linecap:butt;stroke-linejoin:miter;stroke-opacity:1"/>
<path class="bond-9 atom-8 atom-10" d="M 161.0,94.1 L 182.4,131.1" style="fill:none;fill-rule:evenodd;stroke:#000000;stroke-width:2.0px;stroke-linecap:butt;stroke-linejoin:miter;stroke-opacity:1"/>
<path class="bond-10 atom-8 atom-11" d="M 161.0,94.1 L 198.1,72.7" style="fill:none;fill-rule:evenodd;stroke:#000000;stroke-width:2.0px;stroke-linecap:butt;stroke-linejoin:miter;stroke-opacity:1"/>
<path class="bond-11 atom-11 atom-12" d="M 194.9,74.5 L 210.7,83.7" style="fill:none;fill-rule:evenodd;stroke:#000000;stroke-width:2.0px;stroke-linecap:butt;stroke-linejoin:miter;stroke-opacity:1"/>
<path class="bond-11 atom-11 atom-12" d="M 210.7,83.7 L 226.6,92.8" style="fill:none;fill-rule:evenodd;stroke:#FF0000;stroke-width:2.0px;stroke-linecap:butt;stroke-linejoin:miter;stroke-opacity:1"/>
<path class="bond-11 atom-11 atom-12" d="M 198.1,69.0 L 213.9,78.1" style="fill:none;fill-rule:evenodd;stroke:#000000;stroke-width:2.0px;stroke-linecap:butt;stroke-linejoin:miter;stroke-opacity:1"/>
<path class="bond-11 atom-11 atom-12" d="M 213.9,78.1 L 229.8,87.3" style="fill:none;fill-rule:evenodd;stroke:#FF0000;stroke-width:2.0px;stroke-linecap:butt;stroke-linejoin:miter;stroke-opacity:1"/>
<path class="bond-12 atom-11 atom-13" d="M 198.1,72.7 L 198.1,55.1" style="fill:none;fill-rule:evenodd;stroke:#000000;stroke-width:2.0px;stroke-linecap:butt;stroke-linejoin:miter;stroke-opacity:1"/>
<path class="bond-12 atom-11 atom-13" d="M 198.1,55.1 L 198.1,37.6" style="fill:none;fill-rule:evenodd;stroke:#FF0000;stroke-width:2.0px;stroke-linecap:butt;stroke-linejoin:miter;stroke-opacity:1"/>
<path d="M 196.2,73.7 L 198.1,72.7 L 198.1,71.8" style="fill:none;stroke:#000000;stroke-width:2.0px;stroke-linecap:butt;stroke-linejoin:miter;stroke-opacity:1;"/>
<path class="atom-2" d="M 44.2 29.9 Q 44.2 27.0, 45.6 25.4 Q 47.1 23.7, 49.8 23.7 Q 52.5 23.7, 53.9 25.4 Q 55.3 27.0, 55.3 29.9 Q 55.3 32.8, 53.9 34.5 Q 52.4 36.2, 49.8 36.2 Q 47.1 36.2, 45.6 34.5 Q 44.2 32.9, 44.2 29.9 M 49.8 34.8 Q 51.6 34.8, 52.6 33.6 Q 53.6 32.3, 53.6 29.9 Q 53.6 27.5, 52.6 26.3 Q 51.6 25.1, 49.8 25.1 Q 47.9 25.1, 46.9 26.3 Q 45.9 27.5, 45.9 29.9 Q 45.9 32.3, 46.9 33.6 Q 47.9 34.8, 49.8 34.8 " fill="#FF0000"/>
<path class="atom-2" d="M 57.2 23.9 L 58.9 23.9 L 58.9 29.0 L 65.1 29.0 L 65.1 23.9 L 66.7 23.9 L 66.7 36.0 L 65.1 36.0 L 65.1 30.4 L 58.9 30.4 L 58.9 36.0 L 57.2 36.0 L 57.2 23.9 " fill="#FF0000"/>
<path class="atom-12" d="M 229.6 94.1 Q 229.6 91.2, 231.0 89.6 Q 232.4 87.9, 235.1 87.9 Q 237.8 87.9, 239.3 89.6 Q 240.7 91.2, 240.7 94.1 Q 240.7 97.0, 239.2 98.7 Q 237.8 100.4, 235.1 100.4 Q 232.5 100.4, 231.0 98.7 Q 229.6 97.1, 229.6 94.1 M 235.1 99.0 Q 237.0 99.0, 238.0 97.8 Q 239.0 96.5, 239.0 94.1 Q 239.0 91.7, 238.0 90.5 Q 237.0 89.3, 235.1 89.3 Q 233.3 89.3, 232.3 90.5 Q 231.3 91.7, 231.3 94.1 Q 231.3 96.5, 232.3 97.8 Q 233.3 99.0, 235.1 99.0 " fill="#FF0000"/>
<path class="atom-13" d="M 192.5 29.9 Q 192.5 27.0, 193.9 25.4 Q 195.4 23.7, 198.1 23.7 Q 200.8 23.7, 202.2 25.4 Q 203.6 27.0, 203.6 29.9 Q 203.6 32.8, 202.2 34.5 Q 200.7 36.2, 198.1 36.2 Q 195.4 36.2, 193.9 34.5 Q 192.5 32.9, 192.5 29.9 M 198.1 34.8 Q 199.9 34.8, 200.9 33.6 Q 201.9 32.3, 201.9 29.9 Q 201.9 27.5, 200.9 26.3 Q 199.9 25.1, 198.1 25.1 Q 196.2 25.1, 195.2 26.3 Q 194.2 27.5, 194.2 29.9 Q 194.2 32.3, 195.2 33.6 Q 196.2 34.8, 198.1 34.8 " fill="#FF0000"/>
<path class="atom-13" d="M 205.5 23.9 L 207.2 23.9 L 207.2 29.0 L 213.4 29.0 L 213.4 23.9 L 215.0 23.9 L 215.0 36.0 L 213.4 36.0 L 213.4 30.4 L 207.2 30.4 L 207.2 36.0 L 205.5 36.0 L 205.5 23.9 " fill="#FF0000"/>
<path class="legend" d="M 118.2 181.9 Q 118.2 179.6, 118.9 177.7 Q 119.5 175.8, 120.8 173.8 L 121.7 174.4 Q 120.7 176.3, 120.1 178.0 Q 119.6 179.7, 119.6 181.9 Q 119.6 184.0, 120.1 185.8 Q 120.7 187.5, 121.7 189.4 L 120.8 190.0 Q 119.5 188.0, 118.9 186.1 Q 118.2 184.2, 118.2 181.9 " fill="#000000"/>
<path class="legend" d="M 122.6 177.3 Q 123.1 176.2, 124.0 175.6 Q 125.0 175.0, 126.4 175.0 Q 128.1 175.0, 129.1 175.9 Q 130.0 176.8, 130.0 178.5 Q 130.0 180.2, 128.8 181.7 Q 127.6 183.3, 125.0 185.2 L 130.2 185.2 L 130.2 186.4 L 122.6 186.4 L 122.6 185.4 Q 124.7 183.9, 126.0 182.8 Q 127.2 181.6, 127.8 180.6 Q 128.4 179.6, 128.4 178.6 Q 128.4 177.5, 127.9 176.9 Q 127.4 176.3, 126.4 176.3 Q 125.5 176.3, 124.9 176.6 Q 124.3 177.0, 123.9 177.8 L 122.6 177.3 " fill="#000000"/>
<path class="legend" d="M 135.2 181.9 Q 135.2 184.2, 134.5 186.1 Q 133.9 188.0, 132.6 190.0 L 131.7 189.4 Q 132.7 187.5, 133.2 185.8 Q 133.8 184.0, 133.8 181.9 Q 133.8 179.7, 133.2 178.0 Q 132.7 176.3, 131.7 174.4 L 132.6 173.8 Q 133.9 175.8, 134.5 177.7 Q 135.2 179.6, 135.2 181.9 " fill="#000000"/>
</svg>
