<?xml version='1.0' encoding='ASCII' standalone='yes'?>
<svg xmlns="http://www.w3.org/2000/svg" xmlns:rdkit="http://www.rdkit.org/xml" xmlns:xlink="http://www.w3.org/1999/xlink" version="1.1" baseProfile="full" xml:space="preserve" width="289px" height="200px" viewBox="0 0 289 200">
<!-- END OF HEADER -->
<rect style="opacity:1.0;fill:#FFFFFF;stroke:none" width="289.0" height="200.0" x="0.0" y="0.0"> </rect>
<path class="bond-0 atom-0 atom-1" d="M 274.4,98.2 L 242.1,80.7" style="fill:none;fill-rule:evenodd;stroke:#000000;stroke-width:2.0px;stroke-linecap:butt;stroke-linejoin:miter;stroke-opacity:1"/>
<path class="bond-1 atom-1 atom-2" d="M 242.1,80.7 L 210.6,99.9" style="fill:none;fill-rule:evenodd;stroke:#000000;stroke-width:2.0px;stroke-linecap:butt;stroke-linejoin:miter;stroke-opacity:1"/>
<path class="bond-2 atom-2 atom-3" d="M 210.6,99.9 L 191.4,68.5" style="fill:none;fill-rule:evenodd;stroke:#000000;stroke-width:2.0px;stroke-linecap:butt;stroke-linejoin:miter;stroke-opacity:1"/>
<path class="bond-3 atom-3 atom-4" d="M 191.4,68.5 L 198.4,55.6" style="fill:none;fill-rule:evenodd;stroke:#000000;stroke-width:2.0px;stroke-linecap:butt;stroke-linejoin:miter;stroke-opacity:1"/>
<path class="bond-3 atom-3 atom-4" d="M 198.4,55.6 L 205.4,42.8" style="fill:none;fill-rule:evenodd;stroke:#FF0000;stroke-width:2.0px;stroke-linecap:butt;stroke-linejoin:miter;stroke-opacity:1"/>
<path class="bond-4 atom-2 atom-5" d="M 210.6,99.9 L 179.2,119.2" style="fill:none;fill-rule:evenodd;stroke:#000000;stroke-width:2.0px;stroke-linecap:butt;stroke-linejoin:miter;stroke-opacity:1"/>
<path class="bond-5 atom-5 atom-6" d="M 179.2,119.2 L 146.8,101.6" style="fill:none;fill-rule:evenodd;stroke:#000000;stroke-width:2.0px;stroke-linecap:butt;stroke-linejoin:miter;stroke-opacity:1"/>
<path class="bond-6 atom-6 atom-7" d="M 146.8,101.6 L 145.9,64.8" style="fill:none;fill-rule:evenodd;stroke:#000000;stroke-width:2.0px;stroke-linecap:butt;stroke-linejoin:miter;stroke-opacity:1"/>
<path class="bond-7 atom-7 atom-8" d="M 146.0,67.9 L 159.3,59.7" style="fill:none;fill-rule:evenodd;stroke:#000000;stroke-width:2.0px;stroke-linecap:butt;stroke-linejoin:miter;stroke-opacity:1"/>
<path class="bond-7 atom-7 atom-8" d="M 159.3,59.7 L 172.7,51.5" style="fill:none;fill-rule:evenodd;stroke:#FF0000;stroke-width:2.0px;stroke-linecap:butt;stroke-linejoin:miter;stroke-opacity:1"/>
<path class="bond-7 atom-7 atom-8" d="M 143.1,63.2 L 156.5,55.0" style="fill:none;fill-rule:evenodd;stroke:#000000;stroke-width:2.0px;stroke-linecap:butt;stroke-linejoin:miter;stroke-opacity:1"/>
<path class="bond-7 atom-7 atom-8" d="M 156.5,55.0 L 169.8,46.8" style="fill:none;fill-rule:evenodd;stroke:#FF0000;stroke-width:2.0px;stroke-linecap:butt;stroke-linejoin:miter;stroke-opacity:1"/>
<path class="bond-8 atom-7 atom-9" d="M 145.9,64.8 L 132.7,57.6" style="fill:none;fill-rule:evenodd;stroke:#000000;stroke-width:2.0px;stroke-linecap:butt;stroke-linejoin:miter;stroke-opacity:1"/>
<path class="bond-8 atom-7 atom-9" d="M 132.7,57.6 L 119.5,50.4" style="fill:none;fill-rule:evenodd;stroke:#FF0000;stroke-width:2.0px;stroke-linecap:butt;stroke-linejoin:miter;stroke-opacity:1"/>
<path class="bond-9 atom-6 atom-10" d="M 146.8,101.6 L 115.4,120.9" style="fill:none;fill-rule:evenodd;stroke:#000000;stroke-width:2.0px;stroke-linecap:butt;stroke-linejoin:miter;stroke-opacity:1"/>
<path class="bond-10 atom-10 atom-11" d="M 115.4,120.9 L 115.8,136.0" style="fill:none;fill-rule:evenodd;stroke:#000000;stroke-width:2.0px;stroke-linecap:butt;stroke-linejoin:miter;stroke-opacity:1"/>
<path class="bond-10 atom-10 atom-11" d="M 115.8,136.0 L 116.2,151.2" style="fill:none;fill-rule:evenodd;stroke:#FF0000;stroke-width:2.0px;stroke-linecap:butt;stroke-linejoin:miter;stroke-opacity:1"/>
<path class="bond-11 atom-10 atom-12" d="M 115.4,120.9 L 83.0,103.3" style="fill:none;fill-rule:evenodd;stroke:#000000;stroke-width:2.0px;stroke-linecap:butt;stroke-linejoin:miter;stroke-opacity:1"/>
<path class="bond-12 atom-12 atom-13" d="M 83.0,103.3 L 82.1,66.4" style="fill:none;fill-rule:evenodd;stroke:#000000;stroke-width:2.0px;stroke-linecap:butt;stroke-linejoin:miter;stroke-opacity:1"/>
<path class="bond-13 atom-13 atom-14" d="M 82.1,66.4 L 68.9,59.3" style="fill:none;fill-rule:evenodd;stroke:#000000;stroke-width:2.0px;stroke-linecap:butt;stroke-linejoin:miter;stroke-opacity:1"/>
<path class="bond-13 atom-13 atom-14" d="M 68.9,59.3 L 55.7,52.1" style="fill:none;fill-rule:evenodd;stroke:#FF0000;stroke-width:2.0px;stroke-linecap:butt;stroke-linejoin:miter;stroke-opacity:1"/>
<path class="bond-14 atom-12 atom-15" d="M 83.0,103.3 L 51.6,122.5" style="fill:none;fill-rule:evenodd;stroke:#000000;stroke-width:2.0px;stroke-linecap:butt;stroke-linejoin:miter;stroke-opacity:1"/>
<path class="bond-15 atom-15 atom-16" d="M 54.3,120.9 L 40.5,113.3" style="fill:none;fill-rule:evenodd;stroke:#000000;stroke-width:2.0px;stroke-linecap:butt;stroke-linejoin:miter;stroke-opacity:1"/>
<path class="bond-15 atom-15 atom-16" d="M 40.5,113.3 L 26.6,105.8" style="fill:none;fill-rule:evenodd;stroke:#FF0000;stroke-width:2.0px;stroke-linecap:butt;stroke-linejoin:miter;stroke-opacity:1"/>
<path class="bond-15 atom-15 atom-16" d="M 51.7,125.7 L 37.8,118.2" style="fill:none;fill-rule:evenodd;stroke:#000000;stroke-width:2.0px;stroke-linecap:butt;stroke-linejoin:miter;stroke-opacity:1"/>
<path class="bond-15 atom-15 atom-16" d="M 37.8,118.2 L 23.9,110.6" style="fill:none;fill-rule:evenodd;stroke:#FF0000;stroke-width:2.0px;stroke-linecap:butt;stroke-linejoin:miter;stroke-opacity:1"/>
<path class="bond-16 atom-15 atom-17" d="M 51.6,122.5 L 52.0,137.7" style="fill:none;fill-rule:evenodd;stroke:#000000;stroke-width:2.0px;stroke-linecap:butt;stroke-linejoin:miter;stroke-opacity:1"/>
<path class="bond-16 atom-15 atom-17" d="M 52.0,137.7 L 52.4,152.9" style="fill:none;fill-rule:evenodd;stroke:#FF0000;stroke-width:2.0px;stroke-linecap:butt;stroke-linejoin:miter;stroke-opacity:1"/>
<path class="bond-17 atom-2 atom-18" d="M 210.6,99.9 L 229.9,131.3" style="fill:none;fill-rule:evenodd;stroke:#000000;stroke-width:2.0px;stroke-linecap:butt;stroke-linejoin:miter;stroke-opacity:1"/>
<path class="bond-18 atom-18 atom-19" d="M 228.4,134.1 L 244.6,133.7" style="fill:none;fill-rule:evenodd;stroke:#000000;stroke-width:2.0px;stroke-linecap:butt;stroke-linejoin:miter;stroke-opacity:1"/>
<path class="bond-18 atom-18 atom-19" d="M 244.6,133.7 L 260.8,133.3" style="fill:none;fill-rule:evenodd;stroke:#FF0000;stroke-width:2.0px;stroke-linecap:butt;stroke-linejoin:miter;stroke-opacity:1"/>
<path class="bond-18 atom-18 atom-19" d="M 228.2,128.6 L 244.4,128.2" style="fill:none;fill-rule:evenodd;stroke:#000000;stroke-width:2.0px;stroke-linecap:butt;stroke-linejoin:miter;stroke-opacity:1"/>
<path class="bond-18 atom-18 atom-19" d="M 244.4,128.2 L 260.7,127.8" style="fill:none;fill-rule:evenodd;stroke:#FF0000;stroke-width:2.0px;stroke-linecap:butt;stroke-linejoin:miter;stroke-opacity:1"/>
<path class="bond-19 atom-18 atom-20" d="M 229.9,131.3 L 222.9,144.3" style="fill:none;fill-rule:evenodd;stroke:#000000;stroke-width:2.0px;stroke-linecap:butt;stroke-linejoin:miter;stroke-opacity:1"/>
<path class="bond-19 atom-18 atom-20" d="M 222.9,144.3 L 215.8,157.2" style="fill:none;fill-rule:evenodd;stroke:#FF0000;stroke-width:2.0px;stroke-linecap:butt;stroke-linejoin:miter;stroke-opacity:1"/>
<path d="M 243.7,81.5 L 242.1,80.7 L 240.5,81.6" style="fill:none;stroke:#000000;stroke-width:2.0px;stroke-linecap:butt;stroke-linejoin:miter;stroke-opacity:1;"/>
<path d="M 192.4,70.1 L 191.4,68.5 L 191.7,67.9" style="fill:none;stroke:#000000;stroke-width:2.0px;stroke-linecap:butt;stroke-linejoin:miter;stroke-opacity:1;"/>
<path d="M 180.8,118.2 L 179.2,119.2 L 177.6,118.3" style="fill:none;stroke:#000000;stroke-width:2.0px;stroke-linecap:butt;stroke-linejoin:miter;stroke-opacity:1;"/>
<path d="M 145.9,66.6 L 145.9,64.8 L 145.2,64.4" style="fill:none;stroke:#000000;stroke-width:2.0px;stroke-linecap:butt;stroke-linejoin:miter;stroke-opacity:1;"/>
<path d="M 82.1,68.3 L 82.1,66.4 L 81.4,66.1" style="fill:none;stroke:#000000;stroke-width:2.0px;stroke-linecap:butt;stroke-linejoin:miter;stroke-opacity:1;"/>
<path d="M 53.2,121.6 L 51.6,122.5 L 51.6,123.3" style="fill:none;stroke:#000000;stroke-width:2.0px;stroke-linecap:butt;stroke-linejoin:miter;stroke-opacity:1;"/>
<path d="M 228.9,129.8 L 229.9,131.3 L 229.6,132.0" style="fill:none;stroke:#000000;stroke-width:2.0px;stroke-linecap:butt;stroke-linejoin:miter;stroke-opacity:1;"/>
<path class="atom-4" d="M 204.2 36.1 Q 204.2 33.6, 205.4 32.2 Q 206.7 30.8, 209.0 30.8 Q 211.3 30.8, 212.5 32.2 Q 213.8 33.6, 213.8 36.1 Q 213.8 38.7, 212.5 40.1 Q 211.3 41.6, 209.0 41.6 Q 206.7 41.6, 205.4 40.1 Q 204.2 38.7, 204.2 36.1 M 209.0 40.4 Q 210.6 40.4, 211.4 39.3 Q 212.3 38.2, 212.3 36.1 Q 212.3 34.1, 211.4 33.1 Q 210.6 32.0, 209.0 32.0 Q 207.4 32.0, 206.5 33.1 Q 205.7 34.1, 205.7 36.1 Q 205.7 38.3, 206.5 39.3 Q 207.4 40.4, 209.0 40.4 " fill="#FF0000"/>
<path class="atom-4" d="M 215.4 31.0 L 216.8 31.0 L 216.8 35.4 L 222.1 35.4 L 222.1 31.0 L 223.6 31.0 L 223.6 41.4 L 222.1 41.4 L 222.1 36.6 L 216.8 36.6 L 216.8 41.4 L 215.4 41.4 L 215.4 31.0 " fill="#FF0000"/>
<path class="atom-8" d="M 172.5 45.5 Q 172.5 43.0, 173.7 41.6 Q 175.0 40.2, 177.3 40.2 Q 179.6 40.2, 180.8 41.6 Q 182.1 43.0, 182.1 45.5 Q 182.1 48.1, 180.8 49.5 Q 179.6 50.9, 177.3 50.9 Q 175.0 50.9, 173.7 49.5 Q 172.5 48.1, 172.5 45.5 M 177.3 49.8 Q 178.9 49.8, 179.7 48.7 Q 180.6 47.6, 180.6 45.5 Q 180.6 43.5, 179.7 42.5 Q 178.9 41.4, 177.3 41.4 Q 175.7 41.4, 174.8 42.4 Q 174.0 43.5, 174.0 45.5 Q 174.0 47.6, 174.8 48.7 Q 175.7 49.8, 177.3 49.8 " fill="#FF0000"/>
<path class="atom-9" d="M 98.4 42.0 L 99.8 42.0 L 99.8 46.5 L 105.1 46.5 L 105.1 42.0 L 106.6 42.0 L 106.6 52.5 L 105.1 52.5 L 105.1 47.6 L 99.8 47.6 L 99.8 52.5 L 98.4 52.5 L 98.4 42.0 " fill="#FF0000"/>
<path class="atom-9" d="M 108.7 47.2 Q 108.7 44.7, 109.9 43.3 Q 111.2 41.9, 113.5 41.9 Q 115.8 41.9, 117.0 43.3 Q 118.3 44.7, 118.3 47.2 Q 118.3 49.7, 117.0 51.2 Q 115.8 52.6, 113.5 52.6 Q 111.2 52.6, 109.9 51.2 Q 108.7 49.8, 108.7 47.2 M 113.5 51.4 Q 115.1 51.4, 115.9 50.4 Q 116.8 49.3, 116.8 47.2 Q 116.8 45.2, 115.9 44.1 Q 115.1 43.1, 113.5 43.1 Q 111.9 43.1, 111.0 44.1 Q 110.2 45.1, 110.2 47.2 Q 110.2 49.3, 111.0 50.4 Q 111.9 51.4, 113.5 51.4 " fill="#FF0000"/>
<path class="atom-11" d="M 111.6 157.7 Q 111.6 155.2, 112.8 153.8 Q 114.1 152.4, 116.4 152.4 Q 118.7 152.4, 119.9 153.8 Q 121.2 155.2, 121.2 157.7 Q 121.2 160.3, 119.9 161.7 Q 118.7 163.1, 116.4 163.1 Q 114.1 163.1, 112.8 161.7 Q 111.6 160.3, 111.6 157.7 M 116.4 161.9 Q 118.0 161.9, 118.8 160.9 Q 119.7 159.8, 119.7 157.7 Q 119.7 155.7, 118.8 154.6 Q 118.0 153.6, 116.4 153.6 Q 114.8 153.6, 113.9 154.6 Q 113.1 155.7, 113.1 157.7 Q 113.1 159.8, 113.9 160.9 Q 114.8 161.9, 116.4 161.9 " fill="#FF0000"/>
<path class="atom-11" d="M 122.8 152.5 L 124.2 152.5 L 124.2 157.0 L 129.6 157.0 L 129.6 152.5 L 131.0 152.5 L 131.0 163.0 L 129.6 163.0 L 129.6 158.1 L 124.2 158.1 L 124.2 163.0 L 122.8 163.0 L 122.8 152.5 " fill="#FF0000"/>
<path class="atom-14" d="M 34.6 43.7 L 36.0 43.7 L 36.0 48.1 L 41.3 48.1 L 41.3 43.7 L 42.8 43.7 L 42.8 54.1 L 41.3 54.1 L 41.3 49.3 L 36.0 49.3 L 36.0 54.1 L 34.6 54.1 L 34.6 43.7 " fill="#FF0000"/>
<path class="atom-14" d="M 44.9 48.9 Q 44.9 46.4, 46.1 45.0 Q 47.4 43.6, 49.7 43.6 Q 52.0 43.6, 53.2 45.0 Q 54.5 46.4, 54.5 48.9 Q 54.5 51.4, 53.2 52.9 Q 52.0 54.3, 49.7 54.3 Q 47.4 54.3, 46.1 52.9 Q 44.9 51.4, 44.9 48.9 M 49.7 53.1 Q 51.3 53.1, 52.1 52.1 Q 53.0 51.0, 53.0 48.9 Q 53.0 46.8, 52.1 45.8 Q 51.3 44.8, 49.7 44.8 Q 48.1 44.8, 47.2 45.8 Q 46.4 46.8, 46.4 48.9 Q 46.4 51.0, 47.2 52.1 Q 48.1 53.1, 49.7 53.1 " fill="#FF0000"/>
<path class="atom-16" d="M 14.5 105.0 Q 14.5 102.5, 15.7 101.1 Q 16.9 99.7, 19.2 99.7 Q 21.6 99.7, 22.8 101.1 Q 24.0 102.5, 24.0 105.0 Q 24.0 107.5, 22.8 109.0 Q 21.5 110.4, 19.2 110.4 Q 16.9 110.4, 15.7 109.0 Q 14.5 107.5, 14.5 105.0 M 19.2 109.2 Q 20.8 109.2, 21.7 108.1 Q 22.6 107.1, 22.6 105.0 Q 22.6 102.9, 21.7 101.9 Q 20.8 100.9, 19.2 100.9 Q 17.6 100.9, 16.8 101.9 Q 15.9 102.9, 15.9 105.0 Q 15.9 107.1, 16.8 108.1 Q 17.6 109.2, 19.2 109.2 " fill="#FF0000"/>
<path class="atom-17" d="M 47.8 159.4 Q 47.8 156.9, 49.0 155.5 Q 50.3 154.1, 52.6 154.1 Q 54.9 154.1, 56.1 155.5 Q 57.4 156.9, 57.4 159.4 Q 57.4 161.9, 56.1 163.4 Q 54.9 164.8, 52.6 164.8 Q 50.3 164.8, 49.0 163.4 Q 47.8 161.9, 47.8 159.4 M 52.6 163.6 Q 54.2 163.6, 55.0 162.6 Q 55.9 161.5, 55.9 159.4 Q 55.9 157.3, 55.0 156.3 Q 54.2 155.3, 52.6 155.3 Q 51.0 155.3, 50.1 156.3 Q 49.3 157.3, 49.3 159.4 Q 49.3 161.5, 50.1 162.6 Q 51.0 163.6, 52.6 163.6 " fill="#FF0000"/>
<path class="atom-17" d="M 59.0 154.2 L 60.4 154.2 L 60.4 158.6 L 65.8 158.6 L 65.8 154.2 L 67.2 154.2 L 67.2 164.6 L 65.8 164.6 L 65.8 159.8 L 60.4 159.8 L 60.4 164.6 L 59.0 164.6 L 59.0 154.2 " fill="#FF0000"/>
<path class="atom-19" d="M 261.9 130.4 Q 261.9 127.9, 263.2 126.5 Q 264.4 125.1, 266.7 125.1 Q 269.1 125.1, 270.3 126.5 Q 271.5 127.9, 271.5 130.4 Q 271.5 132.9, 270.3 134.4 Q 269.0 135.8, 266.7 135.8 Q 264.4 135.8, 263.2 134.4 Q 261.9 132.9, 261.9 130.4 M 266.7 134.6 Q 268.3 134.6, 269.2 133.6 Q 270.1 132.5, 270.1 130.4 Q 270.1 128.3, 269.2 127.3 Q 268.3 126.3, 266.7 126.3 Q 265.1 126.3, 264.3 127.3 Q 263.4 128.3, 263.4 130.4 Q 263.4 132.5, 264.3 133.6 Q 265.1 134.6, 266.7 134.6 " fill="#FF0000"/>
<path class="atom-20" d="M 197.2 158.6 L 198.6 158.6 L 198.6 163.0 L 204.0 163.0 L 204.0 158.6 L 205.4 158.6 L 205.4 169.0 L 204.0 169.0 L 204.0 164.2 L 198.6 164.2 L 198.6 169.0 L 197.2 169.0 L 197.2 158.6 " fill="#FF0000"/>
<path class="atom-20" d="M 207.5 163.8 Q 207.5 161.2, 208.8 159.8 Q 210.0 158.4, 212.3 158.4 Q 214.6 158.4, 215.9 159.8 Q 217.1 161.2, 217.1 163.8 Q 217.1 166.3, 215.9 167.7 Q 214.6 169.2, 212.3 169.2 Q 210.0 169.2, 208.8 167.7 Q 207.5 166.3, 207.5 163.8 M 212.3 168.0 Q 213.9 168.0, 214.8 166.9 Q 215.6 165.8, 215.6 163.8 Q 215.6 161.7, 214.8 160.7 Q 213.9 159.6, 212.3 159.6 Q 210.7 159.6, 209.9 160.7 Q 209.0 161.7, 209.0 163.8 Q 209.0 165.9, 209.9 166.9 Q 210.7 168.0, 212.3 168.0 " fill="#FF0000"/>
</svg>
