<?xml version='1.0' encoding='ASCII' standalone='yes'?>
<svg xmlns="http://www.w3.org/2000/svg" xmlns:rdkit="http://www.rdkit.org/xml" xmlns:xlink="http://www.w3.org/1999/xlink" version="1.1" baseProfile="full" xml:space="preserve" width="364px" height="200px" viewBox="0 0 364 200">
<!-- END OF HEADER -->
<rect style="opacity:1.0;fill:#FFFFFF;stroke:none" width="364.0" height="200.0" x="0.0" y="0.0"> </rect>
<path class="bond-0 atom-0 atom-1" d="M 176.8,81.2 L 182.1,98.3" style="fill:none;fill-rule:evenodd;stroke:#000000;stroke-width:2.0px;stroke-linecap:butt;stroke-linejoin:miter;stroke-opacity:1"/>
<path class="bond-1 atom-1 atom-2" d="M 182.1,98.3 L 187.4,115.3" style="fill:none;fill-rule:evenodd;stroke:#000000;stroke-width:2.0px;stroke-linecap:butt;stroke-linejoin:miter;stroke-opacity:1"/>
<path class="bond-2 atom-1 atom-3" d="M 182.1,98.3 L 165.1,103.6" style="fill:none;fill-rule:evenodd;stroke:#000000;stroke-width:2.0px;stroke-linecap:butt;stroke-linejoin:miter;stroke-opacity:1"/>
<path class="bond-3 atom-3 atom-4" d="M 165.1,103.6 L 161.1,121.0" style="fill:none;fill-rule:evenodd;stroke:#000000;stroke-width:2.0px;stroke-linecap:butt;stroke-linejoin:miter;stroke-opacity:1"/>
<path class="bond-4 atom-4 atom-5" d="M 161.1,121.0 L 144.1,126.3" style="fill:none;fill-rule:evenodd;stroke:#000000;stroke-width:2.0px;stroke-linecap:butt;stroke-linejoin:miter;stroke-opacity:1"/>
<path class="bond-5 atom-5 atom-6" d="M 144.1,126.3 L 140.1,143.7" style="fill:none;fill-rule:evenodd;stroke:#000000;stroke-width:2.0px;stroke-linecap:butt;stroke-linejoin:miter;stroke-opacity:1"/>
<path class="bond-6 atom-6 atom-7" d="M 140.1,143.7 L 123.1,149.0" style="fill:none;fill-rule:evenodd;stroke:#000000;stroke-width:2.0px;stroke-linecap:butt;stroke-linejoin:miter;stroke-opacity:1"/>
<path class="bond-7 atom-7 atom-8" d="M 123.1,149.0 L 119.2,166.4" style="fill:none;fill-rule:evenodd;stroke:#000000;stroke-width:2.0px;stroke-linecap:butt;stroke-linejoin:miter;stroke-opacity:1"/>
<path class="bond-8 atom-8 atom-9" d="M 119.2,166.4 L 115.2,183.8" style="fill:none;fill-rule:evenodd;stroke:#000000;stroke-width:2.0px;stroke-linecap:butt;stroke-linejoin:miter;stroke-opacity:1"/>
<path class="bond-9 atom-8 atom-10" d="M 119.2,166.4 L 136.6,170.3" style="fill:none;fill-rule:evenodd;stroke:#000000;stroke-width:2.0px;stroke-linecap:butt;stroke-linejoin:miter;stroke-opacity:1"/>
<path class="bond-10 atom-10 atom-11" d="M 136.6,170.3 L 138.7,177.3" style="fill:none;fill-rule:evenodd;stroke:#000000;stroke-width:2.0px;stroke-linecap:butt;stroke-linejoin:miter;stroke-opacity:1"/>
<path class="bond-10 atom-10 atom-11" d="M 138.7,177.3 L 140.9,184.2" style="fill:none;fill-rule:evenodd;stroke:#FF0000;stroke-width:2.0px;stroke-linecap:butt;stroke-linejoin:miter;stroke-opacity:1"/>
<path class="bond-11 atom-8 atom-12" d="M 119.2,166.4 L 101.8,162.5" style="fill:none;fill-rule:evenodd;stroke:#000000;stroke-width:2.0px;stroke-linecap:butt;stroke-linejoin:miter;stroke-opacity:1"/>
<path class="bond-12 atom-12 atom-13" d="M 103.2,162.8 L 101.0,155.5" style="fill:none;fill-rule:evenodd;stroke:#000000;stroke-width:2.0px;stroke-linecap:butt;stroke-linejoin:miter;stroke-opacity:1"/>
<path class="bond-12 atom-12 atom-13" d="M 101.0,155.5 L 98.7,148.2" style="fill:none;fill-rule:evenodd;stroke:#FF0000;stroke-width:2.0px;stroke-linecap:butt;stroke-linejoin:miter;stroke-opacity:1"/>
<path class="bond-12 atom-12 atom-13" d="M 100.7,163.6 L 98.5,156.3" style="fill:none;fill-rule:evenodd;stroke:#000000;stroke-width:2.0px;stroke-linecap:butt;stroke-linejoin:miter;stroke-opacity:1"/>
<path class="bond-12 atom-12 atom-13" d="M 98.5,156.3 L 96.2,149.0" style="fill:none;fill-rule:evenodd;stroke:#FF0000;stroke-width:2.0px;stroke-linecap:butt;stroke-linejoin:miter;stroke-opacity:1"/>
<path class="bond-13 atom-12 atom-14" d="M 101.8,162.5 L 97.2,167.4" style="fill:none;fill-rule:evenodd;stroke:#000000;stroke-width:2.0px;stroke-linecap:butt;stroke-linejoin:miter;stroke-opacity:1"/>
<path class="bond-13 atom-12 atom-14" d="M 97.2,167.4 L 92.6,172.4" style="fill:none;fill-rule:evenodd;stroke:#FF0000;stroke-width:2.0px;stroke-linecap:butt;stroke-linejoin:miter;stroke-opacity:1"/>
<path class="bond-14 atom-5 atom-15" d="M 144.1,126.3 L 131.0,114.2" style="fill:none;fill-rule:evenodd;stroke:#000000;stroke-width:2.0px;stroke-linecap:butt;stroke-linejoin:miter;stroke-opacity:1"/>
<path class="bond-15 atom-15 atom-16" d="M 131.0,114.2 L 118.9,127.3" style="fill:none;fill-rule:evenodd;stroke:#000000;stroke-width:2.0px;stroke-linecap:butt;stroke-linejoin:miter;stroke-opacity:1"/>
<path class="bond-16 atom-15 atom-17" d="M 131.0,114.2 L 143.1,101.1" style="fill:none;fill-rule:evenodd;stroke:#000000;stroke-width:2.0px;stroke-linecap:butt;stroke-linejoin:miter;stroke-opacity:1"/>
<path class="bond-17 atom-17 atom-18" d="M 143.1,101.1 L 137.8,84.0" style="fill:none;fill-rule:evenodd;stroke:#000000;stroke-width:2.0px;stroke-linecap:butt;stroke-linejoin:miter;stroke-opacity:1"/>
<path class="bond-18 atom-18 atom-19" d="M 137.8,84.0 L 154.8,78.7" style="fill:none;fill-rule:evenodd;stroke:#000000;stroke-width:2.0px;stroke-linecap:butt;stroke-linejoin:miter;stroke-opacity:1"/>
<path class="bond-19 atom-18 atom-20" d="M 137.8,84.0 L 127.4,85.9" style="fill:none;fill-rule:evenodd;stroke:#000000;stroke-width:2.0px;stroke-linecap:butt;stroke-linejoin:miter;stroke-opacity:1"/>
<path class="bond-20 atom-18 atom-21" d="M 137.8,84.0 L 132.5,67.0" style="fill:none;fill-rule:evenodd;stroke:#000000;stroke-width:2.0px;stroke-linecap:butt;stroke-linejoin:miter;stroke-opacity:1"/>
<path class="bond-21 atom-21 atom-22" d="M 132.5,67.0 L 115.1,63.0" style="fill:none;fill-rule:evenodd;stroke:#000000;stroke-width:2.0px;stroke-linecap:butt;stroke-linejoin:miter;stroke-opacity:1"/>
<path class="bond-22 atom-22 atom-23" d="M 115.1,63.0 L 109.8,46.0" style="fill:none;fill-rule:evenodd;stroke:#000000;stroke-width:2.0px;stroke-linecap:butt;stroke-linejoin:miter;stroke-opacity:1"/>
<path class="bond-23 atom-23 atom-24" d="M 109.8,46.0 L 92.4,42.1" style="fill:none;fill-rule:evenodd;stroke:#000000;stroke-width:2.0px;stroke-linecap:butt;stroke-linejoin:miter;stroke-opacity:1"/>
<path class="bond-24 atom-24 atom-25" d="M 92.4,42.1 L 75.0,38.1" style="fill:none;fill-rule:evenodd;stroke:#000000;stroke-width:2.0px;stroke-linecap:butt;stroke-linejoin:miter;stroke-opacity:1"/>
<path class="bond-25 atom-24 atom-26" d="M 92.4,42.1 L 88.4,59.5" style="fill:none;fill-rule:evenodd;stroke:#000000;stroke-width:2.0px;stroke-linecap:butt;stroke-linejoin:miter;stroke-opacity:1"/>
<path class="bond-26 atom-26 atom-27" d="M 88.4,59.5 L 81.4,61.7" style="fill:none;fill-rule:evenodd;stroke:#000000;stroke-width:2.0px;stroke-linecap:butt;stroke-linejoin:miter;stroke-opacity:1"/>
<path class="bond-26 atom-26 atom-27" d="M 81.4,61.7 L 74.3,63.9" style="fill:none;fill-rule:evenodd;stroke:#FF0000;stroke-width:2.0px;stroke-linecap:butt;stroke-linejoin:miter;stroke-opacity:1"/>
<path class="bond-27 atom-24 atom-28" d="M 92.4,42.1 L 96.3,24.7" style="fill:none;fill-rule:evenodd;stroke:#000000;stroke-width:2.0px;stroke-linecap:butt;stroke-linejoin:miter;stroke-opacity:1"/>
<path class="bond-28 atom-28 atom-29" d="M 96.0,26.1 L 103.4,23.8" style="fill:none;fill-rule:evenodd;stroke:#000000;stroke-width:2.0px;stroke-linecap:butt;stroke-linejoin:miter;stroke-opacity:1"/>
<path class="bond-28 atom-28 atom-29" d="M 103.4,23.8 L 110.8,21.5" style="fill:none;fill-rule:evenodd;stroke:#FF0000;stroke-width:2.0px;stroke-linecap:butt;stroke-linejoin:miter;stroke-opacity:1"/>
<path class="bond-28 atom-28 atom-29" d="M 95.2,23.6 L 102.6,21.3" style="fill:none;fill-rule:evenodd;stroke:#000000;stroke-width:2.0px;stroke-linecap:butt;stroke-linejoin:miter;stroke-opacity:1"/>
<path class="bond-28 atom-28 atom-29" d="M 102.6,21.3 L 110.1,19.0" style="fill:none;fill-rule:evenodd;stroke:#FF0000;stroke-width:2.0px;stroke-linecap:butt;stroke-linejoin:miter;stroke-opacity:1"/>
<path class="bond-29 atom-28 atom-30" d="M 96.3,24.7 L 91.2,19.9" style="fill:none;fill-rule:evenodd;stroke:#000000;stroke-width:2.0px;stroke-linecap:butt;stroke-linejoin:miter;stroke-opacity:1"/>
<path class="bond-29 atom-28 atom-30" d="M 91.2,19.9 L 86.1,15.2" style="fill:none;fill-rule:evenodd;stroke:#FF0000;stroke-width:2.0px;stroke-linecap:butt;stroke-linejoin:miter;stroke-opacity:1"/>
<path class="bond-30 atom-15 atom-31" d="M 131.0,114.2 L 117.9,102.1" style="fill:none;fill-rule:evenodd;stroke:#000000;stroke-width:2.0px;stroke-linecap:butt;stroke-linejoin:miter;stroke-opacity:1"/>
<path class="bond-31 atom-31 atom-32" d="M 119.1,103.2 L 119.5,99.0" style="fill:none;fill-rule:evenodd;stroke:#000000;stroke-width:2.0px;stroke-linecap:butt;stroke-linejoin:miter;stroke-opacity:1"/>
<path class="bond-31 atom-31 atom-32" d="M 119.5,99.0 L 119.9,94.9" style="fill:none;fill-rule:evenodd;stroke:#FF0000;stroke-width:2.0px;stroke-linecap:butt;stroke-linejoin:miter;stroke-opacity:1"/>
<path class="bond-31 atom-31 atom-32" d="M 116.5,102.5 L 116.9,98.8" style="fill:none;fill-rule:evenodd;stroke:#000000;stroke-width:2.0px;stroke-linecap:butt;stroke-linejoin:miter;stroke-opacity:1"/>
<path class="bond-31 atom-31 atom-32" d="M 116.9,98.8 L 117.3,94.7" style="fill:none;fill-rule:evenodd;stroke:#FF0000;stroke-width:2.0px;stroke-linecap:butt;stroke-linejoin:miter;stroke-opacity:1"/>
<path class="bond-32 atom-31 atom-33" d="M 117.9,102.1 L 110.8,104.3" style="fill:none;fill-rule:evenodd;stroke:#000000;stroke-width:2.0px;stroke-linecap:butt;stroke-linejoin:miter;stroke-opacity:1"/>
<path class="bond-32 atom-31 atom-33" d="M 110.8,104.3 L 103.7,106.5" style="fill:none;fill-rule:evenodd;stroke:#FF0000;stroke-width:2.0px;stroke-linecap:butt;stroke-linejoin:miter;stroke-opacity:1"/>
<path class="bond-33 atom-1 atom-34" d="M 182.1,98.3 L 199.1,93.0" style="fill:none;fill-rule:evenodd;stroke:#000000;stroke-width:2.0px;stroke-linecap:butt;stroke-linejoin:miter;stroke-opacity:1"/>
<path class="bond-34 atom-34 atom-35" d="M 199.1,93.0 L 212.2,105.1" style="fill:none;fill-rule:evenodd;stroke:#000000;stroke-width:2.0px;stroke-linecap:butt;stroke-linejoin:miter;stroke-opacity:1"/>
<path class="bond-35 atom-35 atom-36" d="M 212.2,105.1 L 200.1,118.2" style="fill:none;fill-rule:evenodd;stroke:#000000;stroke-width:2.0px;stroke-linecap:butt;stroke-linejoin:miter;stroke-opacity:1"/>
<path class="bond-36 atom-35 atom-37" d="M 212.2,105.1 L 224.4,92.0" style="fill:none;fill-rule:evenodd;stroke:#000000;stroke-width:2.0px;stroke-linecap:butt;stroke-linejoin:miter;stroke-opacity:1"/>
<path class="bond-37 atom-37 atom-38" d="M 224.4,92.0 L 241.8,95.9" style="fill:none;fill-rule:evenodd;stroke:#000000;stroke-width:2.0px;stroke-linecap:butt;stroke-linejoin:miter;stroke-opacity:1"/>
<path class="bond-38 atom-38 atom-39" d="M 241.8,95.9 L 253.9,82.8" style="fill:none;fill-rule:evenodd;stroke:#000000;stroke-width:2.0px;stroke-linecap:butt;stroke-linejoin:miter;stroke-opacity:1"/>
<path class="bond-39 atom-39 atom-40" d="M 253.9,82.8 L 271.3,86.7" style="fill:none;fill-rule:evenodd;stroke:#000000;stroke-width:2.0px;stroke-linecap:butt;stroke-linejoin:miter;stroke-opacity:1"/>
<path class="bond-40 atom-40 atom-41" d="M 271.3,86.7 L 288.7,90.7" style="fill:none;fill-rule:evenodd;stroke:#000000;stroke-width:2.0px;stroke-linecap:butt;stroke-linejoin:miter;stroke-opacity:1"/>
<path class="bond-41 atom-40 atom-42" d="M 271.3,86.7 L 267.3,104.1" style="fill:none;fill-rule:evenodd;stroke:#000000;stroke-width:2.0px;stroke-linecap:butt;stroke-linejoin:miter;stroke-opacity:1"/>
<path class="bond-42 atom-42 atom-43" d="M 267.3,104.1 L 272.4,108.9" style="fill:none;fill-rule:evenodd;stroke:#000000;stroke-width:2.0px;stroke-linecap:butt;stroke-linejoin:miter;stroke-opacity:1"/>
<path class="bond-42 atom-42 atom-43" d="M 272.4,108.9 L 277.6,113.6" style="fill:none;fill-rule:evenodd;stroke:#FF0000;stroke-width:2.0px;stroke-linecap:butt;stroke-linejoin:miter;stroke-opacity:1"/>
<path class="bond-43 atom-40 atom-44" d="M 271.3,86.7 L 275.2,69.3" style="fill:none;fill-rule:evenodd;stroke:#000000;stroke-width:2.0px;stroke-linecap:butt;stroke-linejoin:miter;stroke-opacity:1"/>
<path class="bond-44 atom-44 atom-45" d="M 276.7,68.9 L 271.3,63.9" style="fill:none;fill-rule:evenodd;stroke:#000000;stroke-width:2.0px;stroke-linecap:butt;stroke-linejoin:miter;stroke-opacity:1"/>
<path class="bond-44 atom-44 atom-45" d="M 271.3,63.9 L 265.9,58.9" style="fill:none;fill-rule:evenodd;stroke:#FF0000;stroke-width:2.0px;stroke-linecap:butt;stroke-linejoin:miter;stroke-opacity:1"/>
<path class="bond-44 atom-44 atom-45" d="M 274.9,70.8 L 269.5,65.8" style="fill:none;fill-rule:evenodd;stroke:#000000;stroke-width:2.0px;stroke-linecap:butt;stroke-linejoin:miter;stroke-opacity:1"/>
<path class="bond-44 atom-44 atom-45" d="M 269.5,65.8 L 264.1,60.9" style="fill:none;fill-rule:evenodd;stroke:#FF0000;stroke-width:2.0px;stroke-linecap:butt;stroke-linejoin:miter;stroke-opacity:1"/>
<path class="bond-45 atom-44 atom-46" d="M 275.2,69.3 L 282.3,67.1" style="fill:none;fill-rule:evenodd;stroke:#000000;stroke-width:2.0px;stroke-linecap:butt;stroke-linejoin:miter;stroke-opacity:1"/>
<path class="bond-45 atom-44 atom-46" d="M 282.3,67.1 L 289.4,64.9" style="fill:none;fill-rule:evenodd;stroke:#FF0000;stroke-width:2.0px;stroke-linecap:butt;stroke-linejoin:miter;stroke-opacity:1"/>
<path class="bond-46 atom-35 atom-47" d="M 212.2,105.1 L 225.4,117.2" style="fill:none;fill-rule:evenodd;stroke:#000000;stroke-width:2.0px;stroke-linecap:butt;stroke-linejoin:miter;stroke-opacity:1"/>
<path class="bond-47 atom-47 atom-48" d="M 225.0,118.7 L 232.5,116.4" style="fill:none;fill-rule:evenodd;stroke:#000000;stroke-width:2.0px;stroke-linecap:butt;stroke-linejoin:miter;stroke-opacity:1"/>
<path class="bond-47 atom-47 atom-48" d="M 232.5,116.4 L 239.9,114.1" style="fill:none;fill-rule:evenodd;stroke:#FF0000;stroke-width:2.0px;stroke-linecap:butt;stroke-linejoin:miter;stroke-opacity:1"/>
<path class="bond-47 atom-47 atom-48" d="M 224.2,116.2 L 231.7,113.9" style="fill:none;fill-rule:evenodd;stroke:#000000;stroke-width:2.0px;stroke-linecap:butt;stroke-linejoin:miter;stroke-opacity:1"/>
<path class="bond-47 atom-47 atom-48" d="M 231.7,113.9 L 239.1,111.5" style="fill:none;fill-rule:evenodd;stroke:#FF0000;stroke-width:2.0px;stroke-linecap:butt;stroke-linejoin:miter;stroke-opacity:1"/>
<path class="bond-48 atom-47 atom-49" d="M 225.4,117.2 L 223.7,124.3" style="fill:none;fill-rule:evenodd;stroke:#000000;stroke-width:2.0px;stroke-linecap:butt;stroke-linejoin:miter;stroke-opacity:1"/>
<path class="bond-48 atom-47 atom-49" d="M 223.7,124.3 L 222.1,131.5" style="fill:none;fill-rule:evenodd;stroke:#FF0000;stroke-width:2.0px;stroke-linecap:butt;stroke-linejoin:miter;stroke-opacity:1"/>
<path d="M 165.9,103.3 L 165.1,103.6 L 164.9,104.4" style="fill:none;stroke:#000000;stroke-width:2.0px;stroke-linecap:butt;stroke-linejoin:miter;stroke-opacity:1;"/>
<path d="M 161.3,120.1 L 161.1,121.0 L 160.3,121.2" style="fill:none;stroke:#000000;stroke-width:2.0px;stroke-linecap:butt;stroke-linejoin:miter;stroke-opacity:1;"/>
<path d="M 140.3,142.8 L 140.1,143.7 L 139.3,144.0" style="fill:none;stroke:#000000;stroke-width:2.0px;stroke-linecap:butt;stroke-linejoin:miter;stroke-opacity:1;"/>
<path d="M 124.0,148.7 L 123.1,149.0 L 122.9,149.9" style="fill:none;stroke:#000000;stroke-width:2.0px;stroke-linecap:butt;stroke-linejoin:miter;stroke-opacity:1;"/>
<path d="M 135.7,170.1 L 136.6,170.3 L 136.7,170.7" style="fill:none;stroke:#000000;stroke-width:2.0px;stroke-linecap:butt;stroke-linejoin:miter;stroke-opacity:1;"/>
<path d="M 102.6,162.7 L 101.8,162.5 L 101.5,162.7" style="fill:none;stroke:#000000;stroke-width:2.0px;stroke-linecap:butt;stroke-linejoin:miter;stroke-opacity:1;"/>
<path d="M 142.5,101.7 L 143.1,101.1 L 142.8,100.2" style="fill:none;stroke:#000000;stroke-width:2.0px;stroke-linecap:butt;stroke-linejoin:miter;stroke-opacity:1;"/>
<path d="M 132.7,67.8 L 132.5,67.0 L 131.6,66.8" style="fill:none;stroke:#000000;stroke-width:2.0px;stroke-linecap:butt;stroke-linejoin:miter;stroke-opacity:1;"/>
<path d="M 115.9,63.2 L 115.1,63.0 L 114.8,62.2" style="fill:none;stroke:#000000;stroke-width:2.0px;stroke-linecap:butt;stroke-linejoin:miter;stroke-opacity:1;"/>
<path d="M 110.0,46.9 L 109.8,46.0 L 108.9,45.8" style="fill:none;stroke:#000000;stroke-width:2.0px;stroke-linecap:butt;stroke-linejoin:miter;stroke-opacity:1;"/>
<path d="M 88.6,58.6 L 88.4,59.5 L 88.1,59.6" style="fill:none;stroke:#000000;stroke-width:2.0px;stroke-linecap:butt;stroke-linejoin:miter;stroke-opacity:1;"/>
<path d="M 96.1,25.5 L 96.3,24.7 L 96.1,24.4" style="fill:none;stroke:#000000;stroke-width:2.0px;stroke-linecap:butt;stroke-linejoin:miter;stroke-opacity:1;"/>
<path d="M 118.5,102.7 L 117.9,102.1 L 117.5,102.2" style="fill:none;stroke:#000000;stroke-width:2.0px;stroke-linecap:butt;stroke-linejoin:miter;stroke-opacity:1;"/>
<path d="M 198.3,93.2 L 199.1,93.0 L 199.8,93.6" style="fill:none;stroke:#000000;stroke-width:2.0px;stroke-linecap:butt;stroke-linejoin:miter;stroke-opacity:1;"/>
<path d="M 223.7,92.6 L 224.4,92.0 L 225.2,92.2" style="fill:none;stroke:#000000;stroke-width:2.0px;stroke-linecap:butt;stroke-linejoin:miter;stroke-opacity:1;"/>
<path d="M 240.9,95.7 L 241.8,95.9 L 242.4,95.3" style="fill:none;stroke:#000000;stroke-width:2.0px;stroke-linecap:butt;stroke-linejoin:miter;stroke-opacity:1;"/>
<path d="M 253.3,83.5 L 253.9,82.8 L 254.7,83.0" style="fill:none;stroke:#000000;stroke-width:2.0px;stroke-linecap:butt;stroke-linejoin:miter;stroke-opacity:1;"/>
<path d="M 267.5,103.3 L 267.3,104.1 L 267.6,104.4" style="fill:none;stroke:#000000;stroke-width:2.0px;stroke-linecap:butt;stroke-linejoin:miter;stroke-opacity:1;"/>
<path d="M 275.0,70.2 L 275.2,69.3 L 275.6,69.2" style="fill:none;stroke:#000000;stroke-width:2.0px;stroke-linecap:butt;stroke-linejoin:miter;stroke-opacity:1;"/>
<path d="M 224.7,116.6 L 225.4,117.2 L 225.3,117.6" style="fill:none;stroke:#000000;stroke-width:2.0px;stroke-linecap:butt;stroke-linejoin:miter;stroke-opacity:1;"/>
<path class="atom-11" d="M 139.6 187.4 Q 139.6 186.2, 140.2 185.5 Q 140.8 184.8, 141.9 184.8 Q 143.0 184.8, 143.6 185.5 Q 144.2 186.2, 144.2 187.4 Q 144.2 188.6, 143.6 189.3 Q 143.0 190.0, 141.9 190.0 Q 140.8 190.0, 140.2 189.3 Q 139.6 188.6, 139.6 187.4 M 141.9 189.4 Q 142.6 189.4, 143.1 188.9 Q 143.5 188.4, 143.5 187.4 Q 143.5 186.4, 143.1 185.9 Q 142.6 185.4, 141.9 185.4 Q 141.1 185.4, 140.7 185.9 Q 140.3 186.4, 140.3 187.4 Q 140.3 188.4, 140.7 188.9 Q 141.1 189.4, 141.9 189.4 " fill="#FF0000"/>
<path class="atom-11" d="M 145.0 184.9 L 145.7 184.9 L 145.7 187.0 L 148.3 187.0 L 148.3 184.9 L 148.9 184.9 L 148.9 189.9 L 148.3 189.9 L 148.3 187.6 L 145.7 187.6 L 145.7 189.9 L 145.0 189.9 L 145.0 184.9 " fill="#FF0000"/>
<path class="atom-13" d="M 94.1 145.4 Q 94.1 144.2, 94.7 143.5 Q 95.3 142.9, 96.5 142.9 Q 97.6 142.9, 98.2 143.5 Q 98.8 144.2, 98.8 145.4 Q 98.8 146.7, 98.2 147.4 Q 97.6 148.1, 96.5 148.1 Q 95.4 148.1, 94.7 147.4 Q 94.1 146.7, 94.1 145.4 M 96.5 147.5 Q 97.2 147.5, 97.7 147.0 Q 98.1 146.4, 98.1 145.4 Q 98.1 144.4, 97.7 143.9 Q 97.2 143.4, 96.5 143.4 Q 95.7 143.4, 95.3 143.9 Q 94.9 144.4, 94.9 145.4 Q 94.9 146.5, 95.3 147.0 Q 95.7 147.5, 96.5 147.5 " fill="#FF0000"/>
<path class="atom-14" d="M 82.3 173.1 L 83.0 173.1 L 83.0 175.2 L 85.6 175.2 L 85.6 173.1 L 86.3 173.1 L 86.3 178.1 L 85.6 178.1 L 85.6 175.8 L 83.0 175.8 L 83.0 178.1 L 82.3 178.1 L 82.3 173.1 " fill="#FF0000"/>
<path class="atom-14" d="M 87.3 175.6 Q 87.3 174.4, 87.9 173.7 Q 88.5 173.0, 89.7 173.0 Q 90.8 173.0, 91.4 173.7 Q 92.0 174.4, 92.0 175.6 Q 92.0 176.8, 91.4 177.5 Q 90.8 178.2, 89.7 178.2 Q 88.5 178.2, 87.9 177.5 Q 87.3 176.8, 87.3 175.6 M 89.7 177.6 Q 90.4 177.6, 90.8 177.1 Q 91.3 176.6, 91.3 175.6 Q 91.3 174.6, 90.8 174.1 Q 90.4 173.6, 89.7 173.6 Q 88.9 173.6, 88.5 174.1 Q 88.0 174.6, 88.0 175.6 Q 88.0 176.6, 88.5 177.1 Q 88.9 177.6, 89.7 177.6 " fill="#FF0000"/>
<path class="atom-27" d="M 64.1 62.3 L 64.8 62.3 L 64.8 64.4 L 67.4 64.4 L 67.4 62.3 L 68.0 62.3 L 68.0 67.3 L 67.4 67.3 L 67.4 65.0 L 64.8 65.0 L 64.8 67.3 L 64.1 67.3 L 64.1 62.3 " fill="#FF0000"/>
<path class="atom-27" d="M 69.1 64.8 Q 69.1 63.6, 69.7 62.9 Q 70.3 62.2, 71.4 62.2 Q 72.5 62.2, 73.1 62.9 Q 73.7 63.6, 73.7 64.8 Q 73.7 66.0, 73.1 66.7 Q 72.5 67.4, 71.4 67.4 Q 70.3 67.4, 69.7 66.7 Q 69.1 66.0, 69.1 64.8 M 71.4 66.8 Q 72.2 66.8, 72.6 66.3 Q 73.0 65.8, 73.0 64.8 Q 73.0 63.8, 72.6 63.3 Q 72.2 62.8, 71.4 62.8 Q 70.6 62.8, 70.2 63.3 Q 69.8 63.8, 69.8 64.8 Q 69.8 65.8, 70.2 66.3 Q 70.6 66.8, 71.4 66.8 " fill="#FF0000"/>
<path class="atom-29" d="M 111.0 19.4 Q 111.0 18.2, 111.6 17.5 Q 112.2 16.8, 113.3 16.8 Q 114.5 16.8, 115.1 17.5 Q 115.7 18.2, 115.7 19.4 Q 115.7 20.6, 115.1 21.3 Q 114.5 22.0, 113.3 22.0 Q 112.2 22.0, 111.6 21.3 Q 111.0 20.6, 111.0 19.4 M 113.3 21.4 Q 114.1 21.4, 114.5 20.9 Q 115.0 20.4, 115.0 19.4 Q 115.0 18.4, 114.5 17.9 Q 114.1 17.4, 113.3 17.4 Q 112.6 17.4, 112.2 17.9 Q 111.7 18.4, 111.7 19.4 Q 111.7 20.4, 112.2 20.9 Q 112.6 21.4, 113.3 21.4 " fill="#FF0000"/>
<path class="atom-30" d="M 75.9 10.1 L 76.6 10.1 L 76.6 12.2 L 79.2 12.2 L 79.2 10.1 L 79.8 10.1 L 79.8 15.1 L 79.2 15.1 L 79.2 12.8 L 76.6 12.8 L 76.6 15.1 L 75.9 15.1 L 75.9 10.1 " fill="#FF0000"/>
<path class="atom-30" d="M 80.9 12.6 Q 80.9 11.4, 81.5 10.7 Q 82.1 10.0, 83.2 10.0 Q 84.3 10.0, 84.9 10.7 Q 85.5 11.4, 85.5 12.6 Q 85.5 13.8, 84.9 14.5 Q 84.3 15.2, 83.2 15.2 Q 82.1 15.2, 81.5 14.5 Q 80.9 13.8, 80.9 12.6 M 83.2 14.6 Q 84.0 14.6, 84.4 14.1 Q 84.8 13.6, 84.8 12.6 Q 84.8 11.6, 84.4 11.1 Q 84.0 10.6, 83.2 10.6 Q 82.4 10.6, 82.0 11.1 Q 81.6 11.6, 81.6 12.6 Q 81.6 13.6, 82.0 14.1 Q 82.4 14.6, 83.2 14.6 " fill="#FF0000"/>
<path class="atom-32" d="M 116.6 91.6 Q 116.6 90.4, 117.2 89.7 Q 117.8 89.0, 118.9 89.0 Q 120.0 89.0, 120.6 89.7 Q 121.2 90.4, 121.2 91.6 Q 121.2 92.8, 120.6 93.5 Q 120.0 94.2, 118.9 94.2 Q 117.8 94.2, 117.2 93.5 Q 116.6 92.8, 116.6 91.6 M 118.9 93.6 Q 119.7 93.6, 120.1 93.1 Q 120.5 92.6, 120.5 91.6 Q 120.5 90.6, 120.1 90.1 Q 119.7 89.6, 118.9 89.6 Q 118.1 89.6, 117.7 90.1 Q 117.3 90.6, 117.3 91.6 Q 117.3 92.6, 117.7 93.1 Q 118.1 93.6, 118.9 93.6 " fill="#FF0000"/>
<path class="atom-33" d="M 93.5 104.9 L 94.2 104.9 L 94.2 107.0 L 96.8 107.0 L 96.8 104.9 L 97.5 104.9 L 97.5 109.9 L 96.8 109.9 L 96.8 107.6 L 94.2 107.6 L 94.2 109.9 L 93.5 109.9 L 93.5 104.9 " fill="#FF0000"/>
<path class="atom-33" d="M 98.5 107.4 Q 98.5 106.2, 99.1 105.5 Q 99.7 104.8, 100.8 104.8 Q 101.9 104.8, 102.5 105.5 Q 103.1 106.2, 103.1 107.4 Q 103.1 108.6, 102.5 109.3 Q 101.9 110.0, 100.8 110.0 Q 99.7 110.0, 99.1 109.3 Q 98.5 108.6, 98.5 107.4 M 100.8 109.4 Q 101.6 109.4, 102.0 108.9 Q 102.4 108.4, 102.4 107.4 Q 102.4 106.4, 102.0 105.9 Q 101.6 105.4, 100.8 105.4 Q 100.0 105.4, 99.6 105.9 Q 99.2 106.4, 99.2 107.4 Q 99.2 108.4, 99.6 108.9 Q 100.0 109.4, 100.8 109.4 " fill="#FF0000"/>
<path class="atom-43" d="M 278.1 116.3 Q 278.1 115.1, 278.7 114.4 Q 279.3 113.7, 280.5 113.7 Q 281.6 113.7, 282.2 114.4 Q 282.8 115.1, 282.8 116.3 Q 282.8 117.5, 282.2 118.2 Q 281.6 118.9, 280.5 118.9 Q 279.3 118.9, 278.7 118.2 Q 278.1 117.5, 278.1 116.3 M 280.5 118.3 Q 281.2 118.3, 281.6 117.8 Q 282.1 117.3, 282.1 116.3 Q 282.1 115.3, 281.6 114.8 Q 281.2 114.3, 280.5 114.3 Q 279.7 114.3, 279.3 114.8 Q 278.8 115.3, 278.8 116.3 Q 278.8 117.3, 279.3 117.8 Q 279.7 118.3, 280.5 118.3 " fill="#FF0000"/>
<path class="atom-43" d="M 283.6 113.8 L 284.2 113.8 L 284.2 115.9 L 286.8 115.9 L 286.8 113.8 L 287.5 113.8 L 287.5 118.8 L 286.8 118.8 L 286.8 116.5 L 284.2 116.5 L 284.2 118.8 L 283.6 118.8 L 283.6 113.8 " fill="#FF0000"/>
<path class="atom-45" d="M 259.8 57.2 Q 259.8 56.0, 260.4 55.3 Q 261.0 54.7, 262.1 54.7 Q 263.2 54.7, 263.8 55.3 Q 264.4 56.0, 264.4 57.2 Q 264.4 58.5, 263.8 59.2 Q 263.2 59.9, 262.1 59.9 Q 261.0 59.9, 260.4 59.2 Q 259.8 58.5, 259.8 57.2 M 262.1 59.3 Q 262.9 59.3, 263.3 58.8 Q 263.7 58.3, 263.7 57.2 Q 263.7 56.2, 263.3 55.7 Q 262.9 55.2, 262.1 55.2 Q 261.3 55.2, 260.9 55.7 Q 260.5 56.2, 260.5 57.2 Q 260.5 58.3, 260.9 58.8 Q 261.3 59.3, 262.1 59.3 " fill="#FF0000"/>
<path class="atom-46" d="M 289.9 64.0 Q 289.9 62.8, 290.5 62.2 Q 291.1 61.5, 292.3 61.5 Q 293.4 61.5, 294.0 62.2 Q 294.6 62.8, 294.6 64.0 Q 294.6 65.3, 294.0 66.0 Q 293.4 66.7, 292.3 66.7 Q 291.1 66.7, 290.5 66.0 Q 289.9 65.3, 289.9 64.0 M 292.3 66.1 Q 293.0 66.1, 293.4 65.6 Q 293.9 65.1, 293.9 64.0 Q 293.9 63.1, 293.4 62.6 Q 293.0 62.1, 292.3 62.1 Q 291.5 62.1, 291.1 62.6 Q 290.6 63.0, 290.6 64.0 Q 290.6 65.1, 291.1 65.6 Q 291.5 66.1, 292.3 66.1 " fill="#FF0000"/>
<path class="atom-46" d="M 295.4 61.5 L 296.0 61.5 L 296.0 63.7 L 298.6 63.7 L 298.6 61.5 L 299.3 61.5 L 299.3 66.6 L 298.6 66.6 L 298.6 64.3 L 296.0 64.3 L 296.0 66.6 L 295.4 66.6 L 295.4 61.5 " fill="#FF0000"/>
<path class="atom-48" d="M 240.1 111.9 Q 240.1 110.7, 240.7 110.0 Q 241.3 109.3, 242.4 109.3 Q 243.5 109.3, 244.1 110.0 Q 244.7 110.7, 244.7 111.9 Q 244.7 113.1, 244.1 113.8 Q 243.5 114.5, 242.4 114.5 Q 241.3 114.5, 240.7 113.8 Q 240.1 113.2, 240.1 111.9 M 242.4 114.0 Q 243.2 114.0, 243.6 113.5 Q 244.0 112.9, 244.0 111.9 Q 244.0 110.9, 243.6 110.4 Q 243.2 109.9, 242.4 109.9 Q 241.6 109.9, 241.2 110.4 Q 240.8 110.9, 240.8 111.9 Q 240.8 112.9, 241.2 113.5 Q 241.6 114.0, 242.4 114.0 " fill="#FF0000"/>
<path class="atom-49" d="M 219.1 134.6 Q 219.1 133.4, 219.7 132.7 Q 220.3 132.1, 221.4 132.1 Q 222.5 132.1, 223.1 132.7 Q 223.7 133.4, 223.7 134.6 Q 223.7 135.8, 223.1 136.5 Q 222.5 137.2, 221.4 137.2 Q 220.3 137.2, 219.7 136.5 Q 219.1 135.9, 219.1 134.6 M 221.4 136.7 Q 222.2 136.7, 222.6 136.2 Q 223.0 135.6, 223.0 134.6 Q 223.0 133.6, 222.6 133.1 Q 222.2 132.6, 221.4 132.6 Q 220.6 132.6, 220.2 133.1 Q 219.8 133.6, 219.8 134.6 Q 219.8 135.6, 220.2 136.2 Q 220.6 136.7, 221.4 136.7 " fill="#FF0000"/>
<path class="atom-49" d="M 224.5 132.1 L 225.2 132.1 L 225.2 134.3 L 227.8 134.3 L 227.8 132.1 L 228.5 132.1 L 228.5 137.2 L 227.8 137.2 L 227.8 134.8 L 225.2 134.8 L 225.2 137.2 L 224.5 137.2 L 224.5 132.1 " fill="#FF0000"/>
</svg>
