<?xml version='1.0' encoding='ASCII' standalone='yes'?>
<svg xmlns="http://www.w3.org/2000/svg" xmlns:rdkit="http://www.rdkit.org/xml" xmlns:xlink="http://www.w3.org/1999/xlink" version="1.1" baseProfile="full" xml:space="preserve" width="280px" height="200px" viewBox="0 0 280 200">
<!-- END OF HEADER -->
<rect style="opacity:1.0;fill:#FFFFFF;stroke:none" width="280.0" height="200.0" x="0.0" y="0.0"> </rect>
<path class="bond-0 atom-0 atom-1" d="M 216.7,127.8 L 204.4,96.7" style="fill:none;fill-rule:evenodd;stroke:#000000;stroke-width:2.0px;stroke-linecap:butt;stroke-linejoin:miter;stroke-opacity:1"/>
<path class="bond-1 atom-1 atom-2" d="M 204.4,96.7 L 192.0,65.6" style="fill:none;fill-rule:evenodd;stroke:#000000;stroke-width:2.0px;stroke-linecap:butt;stroke-linejoin:miter;stroke-opacity:1"/>
<path class="bond-2 atom-1 atom-3" d="M 204.4,96.7 L 235.4,84.3" style="fill:none;fill-rule:evenodd;stroke:#000000;stroke-width:2.0px;stroke-linecap:butt;stroke-linejoin:miter;stroke-opacity:1"/>
<path class="bond-3 atom-3 atom-4" d="M 232.8,85.4 L 243.8,94.0" style="fill:none;fill-rule:evenodd;stroke:#000000;stroke-width:2.0px;stroke-linecap:butt;stroke-linejoin:miter;stroke-opacity:1"/>
<path class="bond-3 atom-3 atom-4" d="M 243.8,94.0 L 254.7,102.7" style="fill:none;fill-rule:evenodd;stroke:#FF0000;stroke-width:2.0px;stroke-linecap:butt;stroke-linejoin:miter;stroke-opacity:1"/>
<path class="bond-3 atom-3 atom-4" d="M 235.8,81.6 L 246.8,90.2" style="fill:none;fill-rule:evenodd;stroke:#000000;stroke-width:2.0px;stroke-linecap:butt;stroke-linejoin:miter;stroke-opacity:1"/>
<path class="bond-3 atom-3 atom-4" d="M 246.8,90.2 L 257.7,98.9" style="fill:none;fill-rule:evenodd;stroke:#FF0000;stroke-width:2.0px;stroke-linecap:butt;stroke-linejoin:miter;stroke-opacity:1"/>
<path class="bond-4 atom-3 atom-5" d="M 235.4,84.3 L 237.4,70.8" style="fill:none;fill-rule:evenodd;stroke:#000000;stroke-width:2.0px;stroke-linecap:butt;stroke-linejoin:miter;stroke-opacity:1"/>
<path class="bond-4 atom-3 atom-5" d="M 237.4,70.8 L 239.4,57.3" style="fill:none;fill-rule:evenodd;stroke:#FF0000;stroke-width:2.0px;stroke-linecap:butt;stroke-linejoin:miter;stroke-opacity:1"/>
<path class="bond-5 atom-1 atom-6" d="M 204.4,96.7 L 173.3,109.0" style="fill:none;fill-rule:evenodd;stroke:#000000;stroke-width:2.0px;stroke-linecap:butt;stroke-linejoin:miter;stroke-opacity:1"/>
<path class="bond-6 atom-6 atom-7" d="M 173.3,109.0 L 171.3,122.7" style="fill:none;fill-rule:evenodd;stroke:#000000;stroke-width:2.0px;stroke-linecap:butt;stroke-linejoin:miter;stroke-opacity:1"/>
<path class="bond-6 atom-6 atom-7" d="M 171.3,122.7 L 169.3,136.3" style="fill:none;fill-rule:evenodd;stroke:#FF0000;stroke-width:2.0px;stroke-linecap:butt;stroke-linejoin:miter;stroke-opacity:1"/>
<path class="bond-7 atom-6 atom-8" d="M 173.3,109.0 L 147.1,88.3" style="fill:none;fill-rule:evenodd;stroke:#000000;stroke-width:2.0px;stroke-linecap:butt;stroke-linejoin:miter;stroke-opacity:1"/>
<path class="bond-8 atom-8 atom-9" d="M 147.1,88.3 L 116.0,100.7" style="fill:none;fill-rule:evenodd;stroke:#000000;stroke-width:2.0px;stroke-linecap:butt;stroke-linejoin:miter;stroke-opacity:1"/>
<path class="bond-9 atom-9 atom-10" d="M 116.0,100.7 L 128.4,131.7" style="fill:none;fill-rule:evenodd;stroke:#000000;stroke-width:2.0px;stroke-linecap:butt;stroke-linejoin:miter;stroke-opacity:1"/>
<path class="bond-10 atom-10 atom-11" d="M 128.4,131.7 L 120.3,141.9" style="fill:none;fill-rule:evenodd;stroke:#000000;stroke-width:2.0px;stroke-linecap:butt;stroke-linejoin:miter;stroke-opacity:1"/>
<path class="bond-10 atom-10 atom-11" d="M 120.3,141.9 L 112.3,152.1" style="fill:none;fill-rule:evenodd;stroke:#FF0000;stroke-width:2.0px;stroke-linecap:butt;stroke-linejoin:miter;stroke-opacity:1"/>
<path class="bond-10 atom-10 atom-11" d="M 122.8,130.9 L 116.5,138.9" style="fill:none;fill-rule:evenodd;stroke:#000000;stroke-width:2.0px;stroke-linecap:butt;stroke-linejoin:miter;stroke-opacity:1"/>
<path class="bond-10 atom-10 atom-11" d="M 116.5,138.9 L 108.5,149.1" style="fill:none;fill-rule:evenodd;stroke:#FF0000;stroke-width:2.0px;stroke-linecap:butt;stroke-linejoin:miter;stroke-opacity:1"/>
<path class="bond-11 atom-9 atom-12" d="M 116.0,100.7 L 85.0,113.0" style="fill:none;fill-rule:evenodd;stroke:#000000;stroke-width:2.0px;stroke-linecap:butt;stroke-linejoin:miter;stroke-opacity:1"/>
<path class="bond-12 atom-12 atom-13" d="M 85.0,113.0 L 58.8,92.3" style="fill:none;fill-rule:evenodd;stroke:#000000;stroke-width:2.0px;stroke-linecap:butt;stroke-linejoin:miter;stroke-opacity:1"/>
<path class="bond-13 atom-13 atom-14" d="M 61.1,94.2 L 61.4,84.1" style="fill:none;fill-rule:evenodd;stroke:#000000;stroke-width:2.0px;stroke-linecap:butt;stroke-linejoin:miter;stroke-opacity:1"/>
<path class="bond-13 atom-13 atom-14" d="M 61.4,84.1 L 61.6,74.0" style="fill:none;fill-rule:evenodd;stroke:#FF0000;stroke-width:2.0px;stroke-linecap:butt;stroke-linejoin:miter;stroke-opacity:1"/>
<path class="bond-13 atom-13 atom-14" d="M 56.3,93.3 L 56.5,84.0" style="fill:none;fill-rule:evenodd;stroke:#000000;stroke-width:2.0px;stroke-linecap:butt;stroke-linejoin:miter;stroke-opacity:1"/>
<path class="bond-13 atom-13 atom-14" d="M 56.5,84.0 L 56.7,73.9" style="fill:none;fill-rule:evenodd;stroke:#FF0000;stroke-width:2.0px;stroke-linecap:butt;stroke-linejoin:miter;stroke-opacity:1"/>
<path class="bond-14 atom-13 atom-15" d="M 58.8,92.3 L 45.9,97.4" style="fill:none;fill-rule:evenodd;stroke:#000000;stroke-width:2.0px;stroke-linecap:butt;stroke-linejoin:miter;stroke-opacity:1"/>
<path class="bond-14 atom-13 atom-15" d="M 45.9,97.4 L 33.1,102.5" style="fill:none;fill-rule:evenodd;stroke:#FF0000;stroke-width:2.0px;stroke-linecap:butt;stroke-linejoin:miter;stroke-opacity:1"/>
<path class="bond-15 atom-9 atom-16" d="M 116.0,100.7 L 103.7,69.6" style="fill:none;fill-rule:evenodd;stroke:#000000;stroke-width:2.0px;stroke-linecap:butt;stroke-linejoin:miter;stroke-opacity:1"/>
<path class="bond-16 atom-16 atom-17" d="M 104.7,72.2 L 113.1,61.6" style="fill:none;fill-rule:evenodd;stroke:#000000;stroke-width:2.0px;stroke-linecap:butt;stroke-linejoin:miter;stroke-opacity:1"/>
<path class="bond-16 atom-16 atom-17" d="M 113.1,61.6 L 121.6,50.9" style="fill:none;fill-rule:evenodd;stroke:#FF0000;stroke-width:2.0px;stroke-linecap:butt;stroke-linejoin:miter;stroke-opacity:1"/>
<path class="bond-16 atom-16 atom-17" d="M 101.1,68.9 L 109.3,58.6" style="fill:none;fill-rule:evenodd;stroke:#000000;stroke-width:2.0px;stroke-linecap:butt;stroke-linejoin:miter;stroke-opacity:1"/>
<path class="bond-16 atom-16 atom-17" d="M 109.3,58.6 L 117.8,47.9" style="fill:none;fill-rule:evenodd;stroke:#FF0000;stroke-width:2.0px;stroke-linecap:butt;stroke-linejoin:miter;stroke-opacity:1"/>
<path class="bond-17 atom-16 atom-18" d="M 103.7,69.6 L 94.6,67.1" style="fill:none;fill-rule:evenodd;stroke:#000000;stroke-width:2.0px;stroke-linecap:butt;stroke-linejoin:miter;stroke-opacity:1"/>
<path class="bond-17 atom-16 atom-18" d="M 94.6,67.1 L 85.6,64.7" style="fill:none;fill-rule:evenodd;stroke:#FF0000;stroke-width:2.0px;stroke-linecap:butt;stroke-linejoin:miter;stroke-opacity:1"/>
<path d="M 233.9,85.0 L 235.4,84.3 L 235.5,83.7" style="fill:none;stroke:#000000;stroke-width:2.0px;stroke-linecap:butt;stroke-linejoin:miter;stroke-opacity:1;"/>
<path d="M 148.4,89.4 L 147.1,88.3 L 145.5,88.9" style="fill:none;stroke:#000000;stroke-width:2.0px;stroke-linecap:butt;stroke-linejoin:miter;stroke-opacity:1;"/>
<path d="M 127.8,130.2 L 128.4,131.7 L 128.0,132.2" style="fill:none;stroke:#000000;stroke-width:2.0px;stroke-linecap:butt;stroke-linejoin:miter;stroke-opacity:1;"/>
<path d="M 86.5,112.4 L 85.0,113.0 L 83.7,112.0" style="fill:none;stroke:#000000;stroke-width:2.0px;stroke-linecap:butt;stroke-linejoin:miter;stroke-opacity:1;"/>
<path d="M 60.1,93.3 L 58.8,92.3 L 58.1,92.6" style="fill:none;stroke:#000000;stroke-width:2.0px;stroke-linecap:butt;stroke-linejoin:miter;stroke-opacity:1;"/>
<path d="M 104.3,71.2 L 103.7,69.6 L 103.2,69.5" style="fill:none;stroke:#000000;stroke-width:2.0px;stroke-linecap:butt;stroke-linejoin:miter;stroke-opacity:1;"/>
<path class="atom-4" d="M 257.3 105.1 Q 257.3 102.8, 258.4 101.6 Q 259.6 100.3, 261.7 100.3 Q 263.8 100.3, 264.9 101.6 Q 266.0 102.8, 266.0 105.1 Q 266.0 107.4, 264.9 108.7 Q 263.7 110.0, 261.7 110.0 Q 259.6 110.0, 258.4 108.7 Q 257.3 107.4, 257.3 105.1 M 261.7 108.9 Q 263.1 108.9, 263.9 108.0 Q 264.7 107.0, 264.7 105.1 Q 264.7 103.2, 263.9 102.3 Q 263.1 101.4, 261.7 101.4 Q 260.2 101.4, 259.4 102.3 Q 258.6 103.2, 258.6 105.1 Q 258.6 107.0, 259.4 108.0 Q 260.2 108.9, 261.7 108.9 " fill="#FF0000"/>
<path class="atom-5" d="M 235.9 51.3 Q 235.9 49.0, 237.0 47.8 Q 238.2 46.5, 240.3 46.5 Q 242.4 46.5, 243.5 47.8 Q 244.6 49.0, 244.6 51.3 Q 244.6 53.6, 243.5 54.9 Q 242.3 56.2, 240.3 56.2 Q 238.2 56.2, 237.0 54.9 Q 235.9 53.6, 235.9 51.3 M 240.3 55.1 Q 241.7 55.1, 242.5 54.2 Q 243.3 53.2, 243.3 51.3 Q 243.3 49.4, 242.5 48.5 Q 241.7 47.6, 240.3 47.6 Q 238.8 47.6, 238.0 48.5 Q 237.3 49.4, 237.3 51.3 Q 237.3 53.2, 238.0 54.2 Q 238.8 55.1, 240.3 55.1 " fill="#FF0000"/>
<path class="atom-5" d="M 246.1 46.6 L 247.4 46.6 L 247.4 50.6 L 252.2 50.6 L 252.2 46.6 L 253.5 46.6 L 253.5 56.1 L 252.2 56.1 L 252.2 51.7 L 247.4 51.7 L 247.4 56.1 L 246.1 56.1 L 246.1 46.6 " fill="#FF0000"/>
<path class="atom-7" d="M 164.1 142.1 Q 164.1 139.9, 165.3 138.6 Q 166.4 137.3, 168.5 137.3 Q 170.6 137.3, 171.7 138.6 Q 172.8 139.9, 172.8 142.1 Q 172.8 144.4, 171.7 145.8 Q 170.6 147.1, 168.5 147.1 Q 166.4 147.1, 165.3 145.8 Q 164.1 144.5, 164.1 142.1 M 168.5 146.0 Q 169.9 146.0, 170.7 145.0 Q 171.5 144.0, 171.5 142.1 Q 171.5 140.3, 170.7 139.4 Q 169.9 138.4, 168.5 138.4 Q 167.0 138.4, 166.3 139.3 Q 165.5 140.3, 165.5 142.1 Q 165.5 144.1, 166.3 145.0 Q 167.0 146.0, 168.5 146.0 " fill="#FF0000"/>
<path class="atom-7" d="M 174.3 137.4 L 175.6 137.4 L 175.6 141.5 L 180.4 141.5 L 180.4 137.4 L 181.7 137.4 L 181.7 146.9 L 180.4 146.9 L 180.4 142.5 L 175.6 142.5 L 175.6 146.9 L 174.3 146.9 L 174.3 137.4 " fill="#FF0000"/>
<path class="atom-11" d="M 101.4 156.5 Q 101.4 154.2, 102.5 152.9 Q 103.7 151.7, 105.8 151.7 Q 107.9 151.7, 109.0 152.9 Q 110.1 154.2, 110.1 156.5 Q 110.1 158.8, 109.0 160.1 Q 107.8 161.4, 105.8 161.4 Q 103.7 161.4, 102.5 160.1 Q 101.4 158.8, 101.4 156.5 M 105.8 160.3 Q 107.2 160.3, 108.0 159.4 Q 108.8 158.4, 108.8 156.5 Q 108.8 154.6, 108.0 153.7 Q 107.2 152.7, 105.8 152.7 Q 104.3 152.7, 103.5 153.7 Q 102.7 154.6, 102.7 156.5 Q 102.7 158.4, 103.5 159.4 Q 104.3 160.3, 105.8 160.3 " fill="#FF0000"/>
<path class="atom-14" d="M 55.0 68.0 Q 55.0 65.7, 56.1 64.4 Q 57.2 63.2, 59.3 63.2 Q 61.4 63.2, 62.5 64.4 Q 63.7 65.7, 63.7 68.0 Q 63.7 70.3, 62.5 71.6 Q 61.4 72.9, 59.3 72.9 Q 57.2 72.9, 56.1 71.6 Q 55.0 70.3, 55.0 68.0 M 59.3 71.8 Q 60.8 71.8, 61.5 70.9 Q 62.3 69.9, 62.3 68.0 Q 62.3 66.1, 61.5 65.2 Q 60.8 64.2, 59.3 64.2 Q 57.9 64.2, 57.1 65.2 Q 56.3 66.1, 56.3 68.0 Q 56.3 69.9, 57.1 70.9 Q 57.9 71.8, 59.3 71.8 " fill="#FF0000"/>
<path class="atom-15" d="M 14.0 100.0 L 15.3 100.0 L 15.3 104.0 L 20.1 104.0 L 20.1 100.0 L 21.4 100.0 L 21.4 109.4 L 20.1 109.4 L 20.1 105.1 L 15.3 105.1 L 15.3 109.4 L 14.0 109.4 L 14.0 100.0 " fill="#FF0000"/>
<path class="atom-15" d="M 23.3 104.7 Q 23.3 102.4, 24.5 101.1 Q 25.6 99.9, 27.7 99.9 Q 29.8 99.9, 30.9 101.1 Q 32.0 102.4, 32.0 104.7 Q 32.0 107.0, 30.9 108.3 Q 29.8 109.6, 27.7 109.6 Q 25.6 109.6, 24.5 108.3 Q 23.3 107.0, 23.3 104.7 M 27.7 108.5 Q 29.1 108.5, 29.9 107.6 Q 30.7 106.6, 30.7 104.7 Q 30.7 102.8, 29.9 101.9 Q 29.1 100.9, 27.7 100.9 Q 26.2 100.9, 25.5 101.9 Q 24.7 102.8, 24.7 104.7 Q 24.7 106.6, 25.5 107.6 Q 26.2 108.5, 27.7 108.5 " fill="#FF0000"/>
<path class="atom-17" d="M 120.1 43.4 Q 120.1 41.2, 121.2 39.9 Q 122.3 38.6, 124.4 38.6 Q 126.5 38.6, 127.6 39.9 Q 128.7 41.2, 128.7 43.4 Q 128.7 45.7, 127.6 47.0 Q 126.5 48.3, 124.4 48.3 Q 122.3 48.3, 121.2 47.0 Q 120.1 45.7, 120.1 43.4 M 124.4 47.3 Q 125.8 47.3, 126.6 46.3 Q 127.4 45.3, 127.4 43.4 Q 127.4 41.6, 126.6 40.6 Q 125.8 39.7, 124.4 39.7 Q 123.0 39.7, 122.2 40.6 Q 121.4 41.6, 121.4 43.4 Q 121.4 45.3, 122.2 46.3 Q 123.0 47.3, 124.4 47.3 " fill="#FF0000"/>
<path class="atom-18" d="M 66.5 58.5 L 67.8 58.5 L 67.8 62.5 L 72.6 62.5 L 72.6 58.5 L 73.9 58.5 L 73.9 68.0 L 72.6 68.0 L 72.6 63.6 L 67.8 63.6 L 67.8 68.0 L 66.5 68.0 L 66.5 58.5 " fill="#FF0000"/>
<path class="atom-18" d="M 75.8 63.2 Q 75.8 60.9, 77.0 59.7 Q 78.1 58.4, 80.2 58.4 Q 82.3 58.4, 83.4 59.7 Q 84.5 60.9, 84.5 63.2 Q 84.5 65.5, 83.4 66.8 Q 82.3 68.1, 80.2 68.1 Q 78.1 68.1, 77.0 66.8 Q 75.8 65.5, 75.8 63.2 M 80.2 67.1 Q 81.6 67.1, 82.4 66.1 Q 83.2 65.1, 83.2 63.2 Q 83.2 61.4, 82.4 60.4 Q 81.6 59.5, 80.2 59.5 Q 78.7 59.5, 77.9 60.4 Q 77.2 61.3, 77.2 63.2 Q 77.2 65.1, 77.9 66.1 Q 78.7 67.1, 80.2 67.1 " fill="#FF0000"/>
</svg>
