<?xml version='1.0' encoding='ASCII' standalone='yes'?>
<svg xmlns="http://www.w3.org/2000/svg" xmlns:rdkit="http://www.rdkit.org/xml" xmlns:xlink="http://www.w3.org/1999/xlink" version="1.1" baseProfile="full" xml:space="preserve" width="437px" height="200px" viewBox="0 0 437 200">
<!-- END OF HEADER -->
<rect style="opacity:1.0;fill:#FFFFFF;stroke:none" width="437.0" height="200.0" x="0.0" y="0.0"> </rect>
<path class="bond-0 atom-0 atom-1" d="M 209.9,91.8 L 212.1,100.4" style="fill:none;fill-rule:evenodd;stroke:#000000;stroke-width:2.0px;stroke-linecap:butt;stroke-linejoin:miter;stroke-opacity:1"/>
<path class="bond-0 atom-0 atom-1" d="M 208.7,92.1 L 211.0,100.9" style="fill:none;fill-rule:evenodd;stroke:#000000;stroke-width:2.0px;stroke-linecap:butt;stroke-linejoin:miter;stroke-opacity:1"/>
<path class="bond-1 atom-1 atom-2" d="M 211.5,100.3 L 206.1,107.0" style="fill:none;fill-rule:evenodd;stroke:#000000;stroke-width:2.0px;stroke-linecap:butt;stroke-linejoin:miter;stroke-opacity:1"/>
<path class="bond-2 atom-2 atom-3" d="M 205.4,106.9 L 206.6,109.9" style="fill:none;fill-rule:evenodd;stroke:#000000;stroke-width:2.0px;stroke-linecap:butt;stroke-linejoin:miter;stroke-opacity:1"/>
<path class="bond-2 atom-2 atom-3" d="M 206.6,109.9 L 207.7,112.8" style="fill:none;fill-rule:evenodd;stroke:#FF0000;stroke-width:2.0px;stroke-linecap:butt;stroke-linejoin:miter;stroke-opacity:1"/>
<path class="bond-2 atom-2 atom-3" d="M 206.6,106.4 L 207.8,109.4" style="fill:none;fill-rule:evenodd;stroke:#000000;stroke-width:2.0px;stroke-linecap:butt;stroke-linejoin:miter;stroke-opacity:1"/>
<path class="bond-2 atom-2 atom-3" d="M 207.8,109.4 L 208.9,112.3" style="fill:none;fill-rule:evenodd;stroke:#FF0000;stroke-width:2.0px;stroke-linecap:butt;stroke-linejoin:miter;stroke-opacity:1"/>
<path class="bond-3 atom-2 atom-4" d="M 206.1,107.0 L 203.0,106.6" style="fill:none;fill-rule:evenodd;stroke:#000000;stroke-width:2.0px;stroke-linecap:butt;stroke-linejoin:miter;stroke-opacity:1"/>
<path class="bond-3 atom-2 atom-4" d="M 203.0,106.6 L 199.9,106.1" style="fill:none;fill-rule:evenodd;stroke:#FF0000;stroke-width:2.0px;stroke-linecap:butt;stroke-linejoin:miter;stroke-opacity:1"/>
<path class="bond-4 atom-1 atom-5" d="M 211.5,100.3 L 219.9,101.5" style="fill:none;fill-rule:evenodd;stroke:#000000;stroke-width:2.0px;stroke-linecap:butt;stroke-linejoin:miter;stroke-opacity:1"/>
<path class="bond-5 atom-5 atom-6" d="M 219.9,101.5 L 223.1,109.5" style="fill:none;fill-rule:evenodd;stroke:#000000;stroke-width:2.0px;stroke-linecap:butt;stroke-linejoin:miter;stroke-opacity:1"/>
<path class="bond-6 atom-6 atom-7" d="M 223.1,109.5 L 231.6,110.7" style="fill:none;fill-rule:evenodd;stroke:#000000;stroke-width:2.0px;stroke-linecap:butt;stroke-linejoin:miter;stroke-opacity:1"/>
<path class="bond-7 atom-7 atom-8" d="M 231.6,110.7 L 232.4,107.8" style="fill:none;fill-rule:evenodd;stroke:#000000;stroke-width:2.0px;stroke-linecap:butt;stroke-linejoin:miter;stroke-opacity:1"/>
<path class="bond-7 atom-7 atom-8" d="M 232.4,107.8 L 233.2,104.9" style="fill:none;fill-rule:evenodd;stroke:#FF0000;stroke-width:2.0px;stroke-linecap:butt;stroke-linejoin:miter;stroke-opacity:1"/>
<path class="bond-8 atom-7 atom-9" d="M 231.6,110.7 L 231.4,111.7" style="fill:none;fill-rule:evenodd;stroke:#000000;stroke-width:2.0px;stroke-linecap:butt;stroke-linejoin:miter;stroke-opacity:1"/>
<path class="bond-8 atom-7 atom-9" d="M 231.4,111.7 L 231.1,112.7" style="fill:none;fill-rule:evenodd;stroke:#FF0000;stroke-width:2.0px;stroke-linecap:butt;stroke-linejoin:miter;stroke-opacity:1"/>
<path class="bond-9 atom-7 atom-10" d="M 231.6,110.7 L 240.1,112.0" style="fill:none;fill-rule:evenodd;stroke:#000000;stroke-width:2.0px;stroke-linecap:butt;stroke-linejoin:miter;stroke-opacity:1"/>
<path class="bond-10 atom-10 atom-11" d="M 240.1,112.0 L 243.3,119.9" style="fill:none;fill-rule:evenodd;stroke:#000000;stroke-width:2.0px;stroke-linecap:butt;stroke-linejoin:miter;stroke-opacity:1"/>
<path class="bond-11 atom-11 atom-12" d="M 243.3,119.9 L 246.5,127.9" style="fill:none;fill-rule:evenodd;stroke:#000000;stroke-width:2.0px;stroke-linecap:butt;stroke-linejoin:miter;stroke-opacity:1"/>
<path class="bond-12 atom-11 atom-13" d="M 243.3,119.9 L 251.3,116.8" style="fill:none;fill-rule:evenodd;stroke:#000000;stroke-width:2.0px;stroke-linecap:butt;stroke-linejoin:miter;stroke-opacity:1"/>
<path class="bond-13 atom-13 atom-14" d="M 251.3,116.8 L 253.5,118.5" style="fill:none;fill-rule:evenodd;stroke:#000000;stroke-width:2.0px;stroke-linecap:butt;stroke-linejoin:miter;stroke-opacity:1"/>
<path class="bond-13 atom-13 atom-14" d="M 253.5,118.5 L 255.8,120.3" style="fill:none;fill-rule:evenodd;stroke:#FF0000;stroke-width:2.0px;stroke-linecap:butt;stroke-linejoin:miter;stroke-opacity:1"/>
<path class="bond-14 atom-14 atom-15" d="M 260.3,121.2 L 262.3,120.4" style="fill:none;fill-rule:evenodd;stroke:#FF0000;stroke-width:2.0px;stroke-linecap:butt;stroke-linejoin:miter;stroke-opacity:1"/>
<path class="bond-14 atom-14 atom-15" d="M 262.3,120.4 L 264.4,119.6" style="fill:none;fill-rule:evenodd;stroke:#FF7F00;stroke-width:2.0px;stroke-linecap:butt;stroke-linejoin:miter;stroke-opacity:1"/>
<path class="bond-15 atom-15 atom-16" d="M 266.4,121.5 L 267.0,123.1" style="fill:none;fill-rule:evenodd;stroke:#FF7F00;stroke-width:2.0px;stroke-linecap:butt;stroke-linejoin:miter;stroke-opacity:1"/>
<path class="bond-15 atom-15 atom-16" d="M 267.0,123.1 L 267.6,124.7" style="fill:none;fill-rule:evenodd;stroke:#FF0000;stroke-width:2.0px;stroke-linecap:butt;stroke-linejoin:miter;stroke-opacity:1"/>
<path class="bond-15 atom-15 atom-16" d="M 267.5,121.1 L 268.2,122.6" style="fill:none;fill-rule:evenodd;stroke:#FF7F00;stroke-width:2.0px;stroke-linecap:butt;stroke-linejoin:miter;stroke-opacity:1"/>
<path class="bond-15 atom-15 atom-16" d="M 268.2,122.6 L 268.8,124.2" style="fill:none;fill-rule:evenodd;stroke:#FF0000;stroke-width:2.0px;stroke-linecap:butt;stroke-linejoin:miter;stroke-opacity:1"/>
<path class="bond-16 atom-15 atom-17" d="M 265.0,116.5 L 264.4,115.0" style="fill:none;fill-rule:evenodd;stroke:#FF7F00;stroke-width:2.0px;stroke-linecap:butt;stroke-linejoin:miter;stroke-opacity:1"/>
<path class="bond-16 atom-15 atom-17" d="M 264.4,115.0 L 263.8,113.4" style="fill:none;fill-rule:evenodd;stroke:#FF0000;stroke-width:2.0px;stroke-linecap:butt;stroke-linejoin:miter;stroke-opacity:1"/>
<path class="bond-17 atom-15 atom-18" d="M 267.6,118.3 L 269.7,117.4" style="fill:none;fill-rule:evenodd;stroke:#FF7F00;stroke-width:2.0px;stroke-linecap:butt;stroke-linejoin:miter;stroke-opacity:1"/>
<path class="bond-17 atom-15 atom-18" d="M 269.7,117.4 L 271.7,116.6" style="fill:none;fill-rule:evenodd;stroke:#FF0000;stroke-width:2.0px;stroke-linecap:butt;stroke-linejoin:miter;stroke-opacity:1"/>
<path class="bond-18 atom-18 atom-19" d="M 274.3,113.3 L 274.6,111.5" style="fill:none;fill-rule:evenodd;stroke:#FF0000;stroke-width:2.0px;stroke-linecap:butt;stroke-linejoin:miter;stroke-opacity:1"/>
<path class="bond-18 atom-18 atom-19" d="M 274.6,111.5 L 274.9,109.6" style="fill:none;fill-rule:evenodd;stroke:#FF7F00;stroke-width:2.0px;stroke-linecap:butt;stroke-linejoin:miter;stroke-opacity:1"/>
<path class="bond-19 atom-19 atom-20" d="M 273.7,106.4 L 271.3,106.0" style="fill:none;fill-rule:evenodd;stroke:#FF7F00;stroke-width:2.0px;stroke-linecap:butt;stroke-linejoin:miter;stroke-opacity:1"/>
<path class="bond-19 atom-19 atom-20" d="M 271.3,106.0 L 269.0,105.7" style="fill:none;fill-rule:evenodd;stroke:#FF0000;stroke-width:2.0px;stroke-linecap:butt;stroke-linejoin:miter;stroke-opacity:1"/>
<path class="bond-19 atom-19 atom-20" d="M 273.5,107.6 L 271.2,107.3" style="fill:none;fill-rule:evenodd;stroke:#FF7F00;stroke-width:2.0px;stroke-linecap:butt;stroke-linejoin:miter;stroke-opacity:1"/>
<path class="bond-19 atom-19 atom-20" d="M 271.2,107.3 L 268.9,106.9" style="fill:none;fill-rule:evenodd;stroke:#FF0000;stroke-width:2.0px;stroke-linecap:butt;stroke-linejoin:miter;stroke-opacity:1"/>
<path class="bond-20 atom-19 atom-21" d="M 276.8,107.5 L 279.2,107.8" style="fill:none;fill-rule:evenodd;stroke:#FF7F00;stroke-width:2.0px;stroke-linecap:butt;stroke-linejoin:miter;stroke-opacity:1"/>
<path class="bond-20 atom-19 atom-21" d="M 279.2,107.8 L 281.5,108.1" style="fill:none;fill-rule:evenodd;stroke:#FF0000;stroke-width:2.0px;stroke-linecap:butt;stroke-linejoin:miter;stroke-opacity:1"/>
<path class="bond-21 atom-19 atom-22" d="M 275.6,104.8 L 275.8,103.0" style="fill:none;fill-rule:evenodd;stroke:#FF7F00;stroke-width:2.0px;stroke-linecap:butt;stroke-linejoin:miter;stroke-opacity:1"/>
<path class="bond-21 atom-19 atom-22" d="M 275.8,103.0 L 276.1,101.2" style="fill:none;fill-rule:evenodd;stroke:#FF0000;stroke-width:2.0px;stroke-linecap:butt;stroke-linejoin:miter;stroke-opacity:1"/>
<path class="bond-22 atom-22 atom-23" d="M 274.2,97.0 L 272.0,95.2" style="fill:none;fill-rule:evenodd;stroke:#FF0000;stroke-width:2.0px;stroke-linecap:butt;stroke-linejoin:miter;stroke-opacity:1"/>
<path class="bond-22 atom-22 atom-23" d="M 272.0,95.2 L 269.7,93.4" style="fill:none;fill-rule:evenodd;stroke:#000000;stroke-width:2.0px;stroke-linecap:butt;stroke-linejoin:miter;stroke-opacity:1"/>
<path class="bond-23 atom-23 atom-24" d="M 269.7,93.4 L 270.9,84.9" style="fill:none;fill-rule:evenodd;stroke:#000000;stroke-width:2.0px;stroke-linecap:butt;stroke-linejoin:miter;stroke-opacity:1"/>
<path class="bond-24 atom-24 atom-25" d="M 270.9,84.9 L 273.6,83.5" style="fill:none;fill-rule:evenodd;stroke:#000000;stroke-width:2.0px;stroke-linecap:butt;stroke-linejoin:miter;stroke-opacity:1"/>
<path class="bond-24 atom-24 atom-25" d="M 273.6,83.5 L 276.3,82.1" style="fill:none;fill-rule:evenodd;stroke:#FF0000;stroke-width:2.0px;stroke-linecap:butt;stroke-linejoin:miter;stroke-opacity:1"/>
<path class="bond-25 atom-25 atom-26" d="M 278.1,78.5 L 277.6,75.5" style="fill:none;fill-rule:evenodd;stroke:#FF0000;stroke-width:2.0px;stroke-linecap:butt;stroke-linejoin:miter;stroke-opacity:1"/>
<path class="bond-25 atom-25 atom-26" d="M 277.6,75.5 L 277.1,72.5" style="fill:none;fill-rule:evenodd;stroke:#000000;stroke-width:2.0px;stroke-linecap:butt;stroke-linejoin:miter;stroke-opacity:1"/>
<path class="bond-26 atom-26 atom-27" d="M 277.1,72.5 L 279.1,70.4" style="fill:none;fill-rule:evenodd;stroke:#000000;stroke-width:2.0px;stroke-linecap:butt;stroke-linejoin:miter;stroke-opacity:1"/>
<path class="bond-26 atom-26 atom-27" d="M 279.1,70.4 L 281.2,68.2" style="fill:none;fill-rule:evenodd;stroke:#0000FF;stroke-width:2.0px;stroke-linecap:butt;stroke-linejoin:miter;stroke-opacity:1"/>
<path class="bond-27 atom-27 atom-28" d="M 282.7,63.9 L 282.2,60.9" style="fill:none;fill-rule:evenodd;stroke:#0000FF;stroke-width:2.0px;stroke-linecap:butt;stroke-linejoin:miter;stroke-opacity:1"/>
<path class="bond-27 atom-27 atom-28" d="M 282.2,60.9 L 281.6,57.8" style="fill:none;fill-rule:evenodd;stroke:#000000;stroke-width:2.0px;stroke-linecap:butt;stroke-linejoin:miter;stroke-opacity:1"/>
<path class="bond-28 atom-28 atom-29" d="M 281.6,57.8 L 284.5,56.3" style="fill:none;fill-rule:evenodd;stroke:#000000;stroke-width:2.0px;stroke-linecap:butt;stroke-linejoin:miter;stroke-opacity:1"/>
<path class="bond-28 atom-28 atom-29" d="M 284.5,56.3 L 287.3,54.8" style="fill:none;fill-rule:evenodd;stroke:#0000FF;stroke-width:2.0px;stroke-linecap:butt;stroke-linejoin:miter;stroke-opacity:1"/>
<path class="bond-28 atom-28 atom-29" d="M 283.0,58.5 L 285.5,57.3" style="fill:none;fill-rule:evenodd;stroke:#000000;stroke-width:2.0px;stroke-linecap:butt;stroke-linejoin:miter;stroke-opacity:1"/>
<path class="bond-28 atom-28 atom-29" d="M 285.5,57.3 L 287.9,56.0" style="fill:none;fill-rule:evenodd;stroke:#0000FF;stroke-width:2.0px;stroke-linecap:butt;stroke-linejoin:miter;stroke-opacity:1"/>
<path class="bond-29 atom-29 atom-30" d="M 291.1,55.7 L 293.3,57.8" style="fill:none;fill-rule:evenodd;stroke:#0000FF;stroke-width:2.0px;stroke-linecap:butt;stroke-linejoin:miter;stroke-opacity:1"/>
<path class="bond-29 atom-29 atom-30" d="M 293.3,57.8 L 295.4,59.8" style="fill:none;fill-rule:evenodd;stroke:#000000;stroke-width:2.0px;stroke-linecap:butt;stroke-linejoin:miter;stroke-opacity:1"/>
<path class="bond-30 atom-30 atom-31" d="M 295.4,59.8 L 304.0,59.3" style="fill:none;fill-rule:evenodd;stroke:#000000;stroke-width:2.0px;stroke-linecap:butt;stroke-linejoin:miter;stroke-opacity:1"/>
<path class="bond-30 atom-30 atom-31" d="M 296.2,61.1 L 303.3,60.6" style="fill:none;fill-rule:evenodd;stroke:#000000;stroke-width:2.0px;stroke-linecap:butt;stroke-linejoin:miter;stroke-opacity:1"/>
<path class="bond-31 atom-31 atom-32" d="M 304.0,59.3 L 305.3,56.6" style="fill:none;fill-rule:evenodd;stroke:#000000;stroke-width:2.0px;stroke-linecap:butt;stroke-linejoin:miter;stroke-opacity:1"/>
<path class="bond-31 atom-31 atom-32" d="M 305.3,56.6 L 306.6,54.0" style="fill:none;fill-rule:evenodd;stroke:#0000FF;stroke-width:2.0px;stroke-linecap:butt;stroke-linejoin:miter;stroke-opacity:1"/>
<path class="bond-32 atom-31 atom-33" d="M 304.0,59.3 L 305.5,61.7" style="fill:none;fill-rule:evenodd;stroke:#000000;stroke-width:2.0px;stroke-linecap:butt;stroke-linejoin:miter;stroke-opacity:1"/>
<path class="bond-32 atom-31 atom-33" d="M 305.5,61.7 L 307.1,64.0" style="fill:none;fill-rule:evenodd;stroke:#0000FF;stroke-width:2.0px;stroke-linecap:butt;stroke-linejoin:miter;stroke-opacity:1"/>
<path class="bond-33 atom-33 atom-34" d="M 307.5,68.8 L 306.2,71.5" style="fill:none;fill-rule:evenodd;stroke:#0000FF;stroke-width:2.0px;stroke-linecap:butt;stroke-linejoin:miter;stroke-opacity:1"/>
<path class="bond-33 atom-33 atom-34" d="M 306.2,71.5 L 304.9,74.1" style="fill:none;fill-rule:evenodd;stroke:#000000;stroke-width:2.0px;stroke-linecap:butt;stroke-linejoin:miter;stroke-opacity:1"/>
<path class="bond-33 atom-33 atom-34" d="M 306.4,68.3 L 305.2,70.6" style="fill:none;fill-rule:evenodd;stroke:#0000FF;stroke-width:2.0px;stroke-linecap:butt;stroke-linejoin:miter;stroke-opacity:1"/>
<path class="bond-33 atom-33 atom-34" d="M 305.2,70.6 L 304.1,72.9" style="fill:none;fill-rule:evenodd;stroke:#000000;stroke-width:2.0px;stroke-linecap:butt;stroke-linejoin:miter;stroke-opacity:1"/>
<path class="bond-34 atom-34 atom-35" d="M 304.9,74.1 L 301.6,74.3" style="fill:none;fill-rule:evenodd;stroke:#000000;stroke-width:2.0px;stroke-linecap:butt;stroke-linejoin:miter;stroke-opacity:1"/>
<path class="bond-34 atom-34 atom-35" d="M 301.6,74.3 L 298.2,74.6" style="fill:none;fill-rule:evenodd;stroke:#0000FF;stroke-width:2.0px;stroke-linecap:butt;stroke-linejoin:miter;stroke-opacity:1"/>
<path class="bond-35 atom-35 atom-36" d="M 294.7,72.3 L 293.2,69.9" style="fill:none;fill-rule:evenodd;stroke:#0000FF;stroke-width:2.0px;stroke-linecap:butt;stroke-linejoin:miter;stroke-opacity:1"/>
<path class="bond-35 atom-35 atom-36" d="M 293.2,69.9 L 291.6,67.5" style="fill:none;fill-rule:evenodd;stroke:#000000;stroke-width:2.0px;stroke-linecap:butt;stroke-linejoin:miter;stroke-opacity:1"/>
<path class="bond-35 atom-35 atom-36" d="M 295.8,71.6 L 294.4,69.5" style="fill:none;fill-rule:evenodd;stroke:#0000FF;stroke-width:2.0px;stroke-linecap:butt;stroke-linejoin:miter;stroke-opacity:1"/>
<path class="bond-35 atom-35 atom-36" d="M 294.4,69.5 L 293.1,67.4" style="fill:none;fill-rule:evenodd;stroke:#000000;stroke-width:2.0px;stroke-linecap:butt;stroke-linejoin:miter;stroke-opacity:1"/>
<path class="bond-36 atom-26 atom-37" d="M 277.1,72.5 L 268.6,71.2" style="fill:none;fill-rule:evenodd;stroke:#000000;stroke-width:2.0px;stroke-linecap:butt;stroke-linejoin:miter;stroke-opacity:1"/>
<path class="bond-37 atom-37 atom-38" d="M 268.6,71.2 L 267.3,68.7" style="fill:none;fill-rule:evenodd;stroke:#000000;stroke-width:2.0px;stroke-linecap:butt;stroke-linejoin:miter;stroke-opacity:1"/>
<path class="bond-37 atom-37 atom-38" d="M 267.3,68.7 L 265.9,66.1" style="fill:none;fill-rule:evenodd;stroke:#FF0000;stroke-width:2.0px;stroke-linecap:butt;stroke-linejoin:miter;stroke-opacity:1"/>
<path class="bond-38 atom-37 atom-39" d="M 268.6,71.2 L 264.8,78.9" style="fill:none;fill-rule:evenodd;stroke:#000000;stroke-width:2.0px;stroke-linecap:butt;stroke-linejoin:miter;stroke-opacity:1"/>
<path class="bond-39 atom-39 atom-40" d="M 264.8,78.9 L 261.7,79.5" style="fill:none;fill-rule:evenodd;stroke:#000000;stroke-width:2.0px;stroke-linecap:butt;stroke-linejoin:miter;stroke-opacity:1"/>
<path class="bond-39 atom-39 atom-40" d="M 261.7,79.5 L 258.6,80.0" style="fill:none;fill-rule:evenodd;stroke:#FF0000;stroke-width:2.0px;stroke-linecap:butt;stroke-linejoin:miter;stroke-opacity:1"/>
<path class="bond-40 atom-40 atom-41" d="M 255.4,82.9 L 254.8,84.4" style="fill:none;fill-rule:evenodd;stroke:#FF0000;stroke-width:2.0px;stroke-linecap:butt;stroke-linejoin:miter;stroke-opacity:1"/>
<path class="bond-40 atom-40 atom-41" d="M 254.8,84.4 L 254.2,86.0" style="fill:none;fill-rule:evenodd;stroke:#FF7F00;stroke-width:2.0px;stroke-linecap:butt;stroke-linejoin:miter;stroke-opacity:1"/>
<path class="bond-41 atom-41 atom-42" d="M 251.9,87.4 L 249.6,86.9" style="fill:none;fill-rule:evenodd;stroke:#FF7F00;stroke-width:2.0px;stroke-linecap:butt;stroke-linejoin:miter;stroke-opacity:1"/>
<path class="bond-41 atom-41 atom-42" d="M 249.6,86.9 L 247.4,86.4" style="fill:none;fill-rule:evenodd;stroke:#FF0000;stroke-width:2.0px;stroke-linecap:butt;stroke-linejoin:miter;stroke-opacity:1"/>
<path class="bond-41 atom-41 atom-42" d="M 251.6,88.7 L 249.3,88.1" style="fill:none;fill-rule:evenodd;stroke:#FF7F00;stroke-width:2.0px;stroke-linecap:butt;stroke-linejoin:miter;stroke-opacity:1"/>
<path class="bond-41 atom-41 atom-42" d="M 249.3,88.1 L 247.1,87.6" style="fill:none;fill-rule:evenodd;stroke:#FF0000;stroke-width:2.0px;stroke-linecap:butt;stroke-linejoin:miter;stroke-opacity:1"/>
<path class="bond-42 atom-41 atom-43" d="M 255.0,89.0 L 257.1,89.8" style="fill:none;fill-rule:evenodd;stroke:#FF7F00;stroke-width:2.0px;stroke-linecap:butt;stroke-linejoin:miter;stroke-opacity:1"/>
<path class="bond-42 atom-41 atom-43" d="M 257.1,89.8 L 259.2,90.6" style="fill:none;fill-rule:evenodd;stroke:#FF0000;stroke-width:2.0px;stroke-linecap:butt;stroke-linejoin:miter;stroke-opacity:1"/>
<path class="bond-43 atom-41 atom-44" d="M 252.5,90.8 L 251.9,92.4" style="fill:none;fill-rule:evenodd;stroke:#FF7F00;stroke-width:2.0px;stroke-linecap:butt;stroke-linejoin:miter;stroke-opacity:1"/>
<path class="bond-43 atom-41 atom-44" d="M 251.9,92.4 L 251.3,94.1" style="fill:none;fill-rule:evenodd;stroke:#FF0000;stroke-width:2.0px;stroke-linecap:butt;stroke-linejoin:miter;stroke-opacity:1"/>
<path class="bond-44 atom-11 atom-45" d="M 243.3,119.9 L 235.3,123.1" style="fill:none;fill-rule:evenodd;stroke:#000000;stroke-width:2.0px;stroke-linecap:butt;stroke-linejoin:miter;stroke-opacity:1"/>
<path class="bond-45 atom-45 atom-46" d="M 235.3,123.1 L 234.5,122.6" style="fill:none;fill-rule:evenodd;stroke:#000000;stroke-width:2.0px;stroke-linecap:butt;stroke-linejoin:miter;stroke-opacity:1"/>
<path class="bond-45 atom-45 atom-46" d="M 234.5,122.6 L 233.7,122.1" style="fill:none;fill-rule:evenodd;stroke:#FF0000;stroke-width:2.0px;stroke-linecap:butt;stroke-linejoin:miter;stroke-opacity:1"/>
<path class="bond-46 atom-45 atom-47" d="M 235.3,123.1 L 234.1,131.6" style="fill:none;fill-rule:evenodd;stroke:#000000;stroke-width:2.0px;stroke-linecap:butt;stroke-linejoin:miter;stroke-opacity:1"/>
<path class="bond-47 atom-47 atom-48" d="M 233.4,131.9 L 235.8,133.8" style="fill:none;fill-rule:evenodd;stroke:#000000;stroke-width:2.0px;stroke-linecap:butt;stroke-linejoin:miter;stroke-opacity:1"/>
<path class="bond-47 atom-47 atom-48" d="M 235.8,133.8 L 238.2,135.7" style="fill:none;fill-rule:evenodd;stroke:#FF0000;stroke-width:2.0px;stroke-linecap:butt;stroke-linejoin:miter;stroke-opacity:1"/>
<path class="bond-47 atom-47 atom-48" d="M 234.2,130.9 L 236.6,132.8" style="fill:none;fill-rule:evenodd;stroke:#000000;stroke-width:2.0px;stroke-linecap:butt;stroke-linejoin:miter;stroke-opacity:1"/>
<path class="bond-47 atom-47 atom-48" d="M 236.6,132.8 L 239.0,134.7" style="fill:none;fill-rule:evenodd;stroke:#FF0000;stroke-width:2.0px;stroke-linecap:butt;stroke-linejoin:miter;stroke-opacity:1"/>
<path class="bond-48 atom-47 atom-49" d="M 234.1,131.6 L 231.0,132.8" style="fill:none;fill-rule:evenodd;stroke:#000000;stroke-width:2.0px;stroke-linecap:butt;stroke-linejoin:miter;stroke-opacity:1"/>
<path class="bond-48 atom-47 atom-49" d="M 231.0,132.8 L 228.0,134.0" style="fill:none;fill-rule:evenodd;stroke:#0000FF;stroke-width:2.0px;stroke-linecap:butt;stroke-linejoin:miter;stroke-opacity:1"/>
<path class="bond-49 atom-49 atom-50" d="M 225.8,137.2 L 225.3,140.2" style="fill:none;fill-rule:evenodd;stroke:#0000FF;stroke-width:2.0px;stroke-linecap:butt;stroke-linejoin:miter;stroke-opacity:1"/>
<path class="bond-49 atom-49 atom-50" d="M 225.3,140.2 L 224.9,143.3" style="fill:none;fill-rule:evenodd;stroke:#000000;stroke-width:2.0px;stroke-linecap:butt;stroke-linejoin:miter;stroke-opacity:1"/>
<path class="bond-50 atom-50 atom-51" d="M 224.9,143.3 L 216.9,146.5" style="fill:none;fill-rule:evenodd;stroke:#000000;stroke-width:2.0px;stroke-linecap:butt;stroke-linejoin:miter;stroke-opacity:1"/>
<path class="bond-51 atom-51 atom-52" d="M 216.9,146.5 L 215.7,155.0" style="fill:none;fill-rule:evenodd;stroke:#000000;stroke-width:2.0px;stroke-linecap:butt;stroke-linejoin:miter;stroke-opacity:1"/>
<path class="bond-52 atom-52 atom-53" d="M 215.0,155.2 L 217.4,157.1" style="fill:none;fill-rule:evenodd;stroke:#000000;stroke-width:2.0px;stroke-linecap:butt;stroke-linejoin:miter;stroke-opacity:1"/>
<path class="bond-52 atom-52 atom-53" d="M 217.4,157.1 L 219.8,159.0" style="fill:none;fill-rule:evenodd;stroke:#FF0000;stroke-width:2.0px;stroke-linecap:butt;stroke-linejoin:miter;stroke-opacity:1"/>
<path class="bond-52 atom-52 atom-53" d="M 215.8,154.2 L 218.2,156.1" style="fill:none;fill-rule:evenodd;stroke:#000000;stroke-width:2.0px;stroke-linecap:butt;stroke-linejoin:miter;stroke-opacity:1"/>
<path class="bond-52 atom-52 atom-53" d="M 218.2,156.1 L 220.6,158.0" style="fill:none;fill-rule:evenodd;stroke:#FF0000;stroke-width:2.0px;stroke-linecap:butt;stroke-linejoin:miter;stroke-opacity:1"/>
<path class="bond-53 atom-52 atom-54" d="M 215.7,155.0 L 212.6,156.2" style="fill:none;fill-rule:evenodd;stroke:#000000;stroke-width:2.0px;stroke-linecap:butt;stroke-linejoin:miter;stroke-opacity:1"/>
<path class="bond-53 atom-52 atom-54" d="M 212.6,156.2 L 209.6,157.4" style="fill:none;fill-rule:evenodd;stroke:#0000FF;stroke-width:2.0px;stroke-linecap:butt;stroke-linejoin:miter;stroke-opacity:1"/>
<path class="bond-54 atom-54 atom-55" d="M 207.3,160.6 L 206.9,163.6" style="fill:none;fill-rule:evenodd;stroke:#0000FF;stroke-width:2.0px;stroke-linecap:butt;stroke-linejoin:miter;stroke-opacity:1"/>
<path class="bond-54 atom-54 atom-55" d="M 206.9,163.6 L 206.5,166.6" style="fill:none;fill-rule:evenodd;stroke:#000000;stroke-width:2.0px;stroke-linecap:butt;stroke-linejoin:miter;stroke-opacity:1"/>
<path class="bond-55 atom-55 atom-56" d="M 206.5,166.6 L 198.5,169.8" style="fill:none;fill-rule:evenodd;stroke:#000000;stroke-width:2.0px;stroke-linecap:butt;stroke-linejoin:miter;stroke-opacity:1"/>
<path class="bond-56 atom-56 atom-57" d="M 198.5,169.8 L 198.0,172.9" style="fill:none;fill-rule:evenodd;stroke:#000000;stroke-width:2.0px;stroke-linecap:butt;stroke-linejoin:miter;stroke-opacity:1"/>
<path class="bond-56 atom-56 atom-57" d="M 198.0,172.9 L 197.6,175.9" style="fill:none;fill-rule:evenodd;stroke:#CCCC00;stroke-width:2.0px;stroke-linecap:butt;stroke-linejoin:miter;stroke-opacity:1"/>
<path class="bond-57 atom-57 atom-58" d="M 195.6,179.0 L 192.4,180.2" style="fill:none;fill-rule:evenodd;stroke:#CCCC00;stroke-width:2.0px;stroke-linecap:butt;stroke-linejoin:miter;stroke-opacity:1"/>
<path class="bond-57 atom-57 atom-58" d="M 192.4,180.2 L 189.3,181.5" style="fill:none;fill-rule:evenodd;stroke:#000000;stroke-width:2.0px;stroke-linecap:butt;stroke-linejoin:miter;stroke-opacity:1"/>
<path class="bond-58 atom-58 atom-59" d="M 189.3,181.5 L 188.0,190.0" style="fill:none;fill-rule:evenodd;stroke:#000000;stroke-width:2.0px;stroke-linecap:butt;stroke-linejoin:miter;stroke-opacity:1"/>
<path class="bond-59 atom-58 atom-60" d="M 189.9,181.2 L 187.5,179.3" style="fill:none;fill-rule:evenodd;stroke:#000000;stroke-width:2.0px;stroke-linecap:butt;stroke-linejoin:miter;stroke-opacity:1"/>
<path class="bond-59 atom-58 atom-60" d="M 187.5,179.3 L 185.1,177.4" style="fill:none;fill-rule:evenodd;stroke:#FF0000;stroke-width:2.0px;stroke-linecap:butt;stroke-linejoin:miter;stroke-opacity:1"/>
<path class="bond-59 atom-58 atom-60" d="M 189.2,182.2 L 186.8,180.3" style="fill:none;fill-rule:evenodd;stroke:#000000;stroke-width:2.0px;stroke-linecap:butt;stroke-linejoin:miter;stroke-opacity:1"/>
<path class="bond-59 atom-58 atom-60" d="M 186.8,180.3 L 184.4,178.4" style="fill:none;fill-rule:evenodd;stroke:#FF0000;stroke-width:2.0px;stroke-linecap:butt;stroke-linejoin:miter;stroke-opacity:1"/>
<path class="bond-60 atom-5 atom-61" d="M 219.9,101.5 L 225.3,94.8" style="fill:none;fill-rule:evenodd;stroke:#000000;stroke-width:2.0px;stroke-linecap:butt;stroke-linejoin:miter;stroke-opacity:1"/>
<path class="bond-61 atom-61 atom-62" d="M 225.3,94.8 L 227.8,96.3" style="fill:none;fill-rule:evenodd;stroke:#000000;stroke-width:2.0px;stroke-linecap:butt;stroke-linejoin:miter;stroke-opacity:1"/>
<path class="bond-61 atom-61 atom-62" d="M 227.8,96.3 L 230.4,97.9" style="fill:none;fill-rule:evenodd;stroke:#FF0000;stroke-width:2.0px;stroke-linecap:butt;stroke-linejoin:miter;stroke-opacity:1"/>
<path class="bond-62 atom-61 atom-63" d="M 225.3,94.8 L 223.0,93.0" style="fill:none;fill-rule:evenodd;stroke:#000000;stroke-width:2.0px;stroke-linecap:butt;stroke-linejoin:miter;stroke-opacity:1"/>
<path class="bond-62 atom-61 atom-63" d="M 223.0,93.0 L 220.8,91.2" style="fill:none;fill-rule:evenodd;stroke:#FF0000;stroke-width:2.0px;stroke-linecap:butt;stroke-linejoin:miter;stroke-opacity:1"/>
<path class="bond-63 atom-61 atom-64" d="M 225.3,94.8 L 230.6,88.0" style="fill:none;fill-rule:evenodd;stroke:#000000;stroke-width:2.0px;stroke-linecap:butt;stroke-linejoin:miter;stroke-opacity:1"/>
<path class="bond-64 atom-64 atom-65" d="M 230.6,88.0 L 227.4,80.1" style="fill:none;fill-rule:evenodd;stroke:#000000;stroke-width:2.0px;stroke-linecap:butt;stroke-linejoin:miter;stroke-opacity:1"/>
<path class="bond-65 atom-65 atom-66" d="M 227.4,80.1 L 224.2,72.1" style="fill:none;fill-rule:evenodd;stroke:#000000;stroke-width:2.0px;stroke-linecap:butt;stroke-linejoin:miter;stroke-opacity:1"/>
<path class="bond-66 atom-65 atom-67" d="M 227.4,80.1 L 219.4,83.2" style="fill:none;fill-rule:evenodd;stroke:#000000;stroke-width:2.0px;stroke-linecap:butt;stroke-linejoin:miter;stroke-opacity:1"/>
<path class="bond-67 atom-67 atom-68" d="M 219.4,83.2 L 217.2,81.5" style="fill:none;fill-rule:evenodd;stroke:#000000;stroke-width:2.0px;stroke-linecap:butt;stroke-linejoin:miter;stroke-opacity:1"/>
<path class="bond-67 atom-67 atom-68" d="M 217.2,81.5 L 214.9,79.7" style="fill:none;fill-rule:evenodd;stroke:#FF0000;stroke-width:2.0px;stroke-linecap:butt;stroke-linejoin:miter;stroke-opacity:1"/>
<path class="bond-68 atom-68 atom-69" d="M 210.5,78.8 L 208.4,79.6" style="fill:none;fill-rule:evenodd;stroke:#FF0000;stroke-width:2.0px;stroke-linecap:butt;stroke-linejoin:miter;stroke-opacity:1"/>
<path class="bond-68 atom-68 atom-69" d="M 208.4,79.6 L 206.3,80.4" style="fill:none;fill-rule:evenodd;stroke:#FF7F00;stroke-width:2.0px;stroke-linecap:butt;stroke-linejoin:miter;stroke-opacity:1"/>
<path class="bond-69 atom-69 atom-70" d="M 205.5,83.8 L 206.2,85.2" style="fill:none;fill-rule:evenodd;stroke:#FF7F00;stroke-width:2.0px;stroke-linecap:butt;stroke-linejoin:miter;stroke-opacity:1"/>
<path class="bond-69 atom-69 atom-70" d="M 206.2,85.2 L 206.9,86.5" style="fill:none;fill-rule:evenodd;stroke:#FF0000;stroke-width:2.0px;stroke-linecap:butt;stroke-linejoin:miter;stroke-opacity:1"/>
<path class="bond-69 atom-69 atom-70" d="M 206.6,83.2 L 207.3,84.5" style="fill:none;fill-rule:evenodd;stroke:#FF7F00;stroke-width:2.0px;stroke-linecap:butt;stroke-linejoin:miter;stroke-opacity:1"/>
<path class="bond-69 atom-69 atom-70" d="M 207.3,84.5 L 208.1,85.9" style="fill:none;fill-rule:evenodd;stroke:#FF0000;stroke-width:2.0px;stroke-linecap:butt;stroke-linejoin:miter;stroke-opacity:1"/>
<path class="bond-70 atom-69 atom-71" d="M 203.8,78.7 L 203.1,77.2" style="fill:none;fill-rule:evenodd;stroke:#FF7F00;stroke-width:2.0px;stroke-linecap:butt;stroke-linejoin:miter;stroke-opacity:1"/>
<path class="bond-70 atom-69 atom-71" d="M 203.1,77.2 L 202.5,75.6" style="fill:none;fill-rule:evenodd;stroke:#FF0000;stroke-width:2.0px;stroke-linecap:butt;stroke-linejoin:miter;stroke-opacity:1"/>
<path class="bond-71 atom-69 atom-72" d="M 203.1,81.7 L 201.0,82.6" style="fill:none;fill-rule:evenodd;stroke:#FF7F00;stroke-width:2.0px;stroke-linecap:butt;stroke-linejoin:miter;stroke-opacity:1"/>
<path class="bond-71 atom-69 atom-72" d="M 201.0,82.6 L 199.0,83.4" style="fill:none;fill-rule:evenodd;stroke:#FF0000;stroke-width:2.0px;stroke-linecap:butt;stroke-linejoin:miter;stroke-opacity:1"/>
<path class="bond-72 atom-72 atom-73" d="M 194.5,82.5 L 193.1,81.4" style="fill:none;fill-rule:evenodd;stroke:#FF0000;stroke-width:2.0px;stroke-linecap:butt;stroke-linejoin:miter;stroke-opacity:1"/>
<path class="bond-72 atom-72 atom-73" d="M 193.1,81.4 L 191.6,80.2" style="fill:none;fill-rule:evenodd;stroke:#FF7F00;stroke-width:2.0px;stroke-linecap:butt;stroke-linejoin:miter;stroke-opacity:1"/>
<path class="bond-73 atom-73 atom-74" d="M 187.9,80.6 L 187.0,81.8" style="fill:none;fill-rule:evenodd;stroke:#FF7F00;stroke-width:2.0px;stroke-linecap:butt;stroke-linejoin:miter;stroke-opacity:1"/>
<path class="bond-73 atom-73 atom-74" d="M 187.0,81.8 L 186.1,82.9" style="fill:none;fill-rule:evenodd;stroke:#FF0000;stroke-width:2.0px;stroke-linecap:butt;stroke-linejoin:miter;stroke-opacity:1"/>
<path class="bond-73 atom-73 atom-74" d="M 188.9,81.4 L 188.0,82.5" style="fill:none;fill-rule:evenodd;stroke:#FF7F00;stroke-width:2.0px;stroke-linecap:butt;stroke-linejoin:miter;stroke-opacity:1"/>
<path class="bond-73 atom-73 atom-74" d="M 188.0,82.5 L 187.1,83.7" style="fill:none;fill-rule:evenodd;stroke:#FF0000;stroke-width:2.0px;stroke-linecap:butt;stroke-linejoin:miter;stroke-opacity:1"/>
<path class="bond-74 atom-73 atom-75" d="M 191.6,76.9 L 192.5,75.8" style="fill:none;fill-rule:evenodd;stroke:#FF7F00;stroke-width:2.0px;stroke-linecap:butt;stroke-linejoin:miter;stroke-opacity:1"/>
<path class="bond-74 atom-73 atom-75" d="M 192.5,75.8 L 193.3,74.7" style="fill:none;fill-rule:evenodd;stroke:#FF0000;stroke-width:2.0px;stroke-linecap:butt;stroke-linejoin:miter;stroke-opacity:1"/>
<path class="bond-75 atom-73 atom-76" d="M 188.4,77.7 L 186.9,76.5" style="fill:none;fill-rule:evenodd;stroke:#FF7F00;stroke-width:2.0px;stroke-linecap:butt;stroke-linejoin:miter;stroke-opacity:1"/>
<path class="bond-75 atom-73 atom-76" d="M 186.9,76.5 L 185.5,75.4" style="fill:none;fill-rule:evenodd;stroke:#FF0000;stroke-width:2.0px;stroke-linecap:butt;stroke-linejoin:miter;stroke-opacity:1"/>
<path class="bond-76 atom-76 atom-77" d="M 183.6,71.2 L 184.0,68.2" style="fill:none;fill-rule:evenodd;stroke:#FF0000;stroke-width:2.0px;stroke-linecap:butt;stroke-linejoin:miter;stroke-opacity:1"/>
<path class="bond-76 atom-76 atom-77" d="M 184.0,68.2 L 184.5,65.1" style="fill:none;fill-rule:evenodd;stroke:#000000;stroke-width:2.0px;stroke-linecap:butt;stroke-linejoin:miter;stroke-opacity:1"/>
<path class="bond-77 atom-77 atom-78" d="M 184.5,65.1 L 177.7,59.8" style="fill:none;fill-rule:evenodd;stroke:#000000;stroke-width:2.0px;stroke-linecap:butt;stroke-linejoin:miter;stroke-opacity:1"/>
<path class="bond-78 atom-78 atom-79" d="M 177.7,59.8 L 174.7,60.7" style="fill:none;fill-rule:evenodd;stroke:#000000;stroke-width:2.0px;stroke-linecap:butt;stroke-linejoin:miter;stroke-opacity:1"/>
<path class="bond-78 atom-78 atom-79" d="M 174.7,60.7 L 171.7,61.5" style="fill:none;fill-rule:evenodd;stroke:#FF0000;stroke-width:2.0px;stroke-linecap:butt;stroke-linejoin:miter;stroke-opacity:1"/>
<path class="bond-79 atom-79 atom-80" d="M 167.9,59.7 L 166.3,57.4" style="fill:none;fill-rule:evenodd;stroke:#FF0000;stroke-width:2.0px;stroke-linecap:butt;stroke-linejoin:miter;stroke-opacity:1"/>
<path class="bond-79 atom-79 atom-80" d="M 166.3,57.4 L 164.7,55.0" style="fill:none;fill-rule:evenodd;stroke:#000000;stroke-width:2.0px;stroke-linecap:butt;stroke-linejoin:miter;stroke-opacity:1"/>
<path class="bond-80 atom-80 atom-81" d="M 164.7,55.0 L 161.4,54.9" style="fill:none;fill-rule:evenodd;stroke:#000000;stroke-width:2.0px;stroke-linecap:butt;stroke-linejoin:miter;stroke-opacity:1"/>
<path class="bond-80 atom-80 atom-81" d="M 161.4,54.9 L 158.0,54.7" style="fill:none;fill-rule:evenodd;stroke:#0000FF;stroke-width:2.0px;stroke-linecap:butt;stroke-linejoin:miter;stroke-opacity:1"/>
<path class="bond-81 atom-81 atom-82" d="M 154.2,57.1 L 152.5,59.2" style="fill:none;fill-rule:evenodd;stroke:#0000FF;stroke-width:2.0px;stroke-linecap:butt;stroke-linejoin:miter;stroke-opacity:1"/>
<path class="bond-81 atom-81 atom-82" d="M 152.5,59.2 L 150.8,61.4" style="fill:none;fill-rule:evenodd;stroke:#000000;stroke-width:2.0px;stroke-linecap:butt;stroke-linejoin:miter;stroke-opacity:1"/>
<path class="bond-82 atom-82 atom-83" d="M 150.8,61.4 L 147.7,60.3" style="fill:none;fill-rule:evenodd;stroke:#000000;stroke-width:2.0px;stroke-linecap:butt;stroke-linejoin:miter;stroke-opacity:1"/>
<path class="bond-82 atom-82 atom-83" d="M 147.7,60.3 L 144.7,59.1" style="fill:none;fill-rule:evenodd;stroke:#0000FF;stroke-width:2.0px;stroke-linecap:butt;stroke-linejoin:miter;stroke-opacity:1"/>
<path class="bond-82 atom-82 atom-83" d="M 150.4,59.9 L 147.7,58.9" style="fill:none;fill-rule:evenodd;stroke:#000000;stroke-width:2.0px;stroke-linecap:butt;stroke-linejoin:miter;stroke-opacity:1"/>
<path class="bond-82 atom-82 atom-83" d="M 147.7,58.9 L 145.1,57.9" style="fill:none;fill-rule:evenodd;stroke:#0000FF;stroke-width:2.0px;stroke-linecap:butt;stroke-linejoin:miter;stroke-opacity:1"/>
<path class="bond-83 atom-83 atom-84" d="M 142.9,56.0 L 143.0,52.9" style="fill:none;fill-rule:evenodd;stroke:#0000FF;stroke-width:2.0px;stroke-linecap:butt;stroke-linejoin:miter;stroke-opacity:1"/>
<path class="bond-83 atom-83 atom-84" d="M 143.0,52.9 L 143.1,49.9" style="fill:none;fill-rule:evenodd;stroke:#000000;stroke-width:2.0px;stroke-linecap:butt;stroke-linejoin:miter;stroke-opacity:1"/>
<path class="bond-84 atom-84 atom-85" d="M 143.1,49.9 L 137.0,43.9" style="fill:none;fill-rule:evenodd;stroke:#000000;stroke-width:2.0px;stroke-linecap:butt;stroke-linejoin:miter;stroke-opacity:1"/>
<path class="bond-84 atom-84 atom-85" d="M 143.5,48.4 L 138.4,43.5" style="fill:none;fill-rule:evenodd;stroke:#000000;stroke-width:2.0px;stroke-linecap:butt;stroke-linejoin:miter;stroke-opacity:1"/>
<path class="bond-85 atom-85 atom-86" d="M 137.0,43.9 L 133.8,44.8" style="fill:none;fill-rule:evenodd;stroke:#000000;stroke-width:2.0px;stroke-linecap:butt;stroke-linejoin:miter;stroke-opacity:1"/>
<path class="bond-85 atom-85 atom-86" d="M 133.8,44.8 L 130.6,45.7" style="fill:none;fill-rule:evenodd;stroke:#0000FF;stroke-width:2.0px;stroke-linecap:butt;stroke-linejoin:miter;stroke-opacity:1"/>
<path class="bond-86 atom-85 atom-87" d="M 137.0,43.9 L 137.7,40.9" style="fill:none;fill-rule:evenodd;stroke:#000000;stroke-width:2.0px;stroke-linecap:butt;stroke-linejoin:miter;stroke-opacity:1"/>
<path class="bond-86 atom-85 atom-87" d="M 137.7,40.9 L 138.5,37.9" style="fill:none;fill-rule:evenodd;stroke:#0000FF;stroke-width:2.0px;stroke-linecap:butt;stroke-linejoin:miter;stroke-opacity:1"/>
<path class="bond-87 atom-87 atom-88" d="M 141.0,35.0 L 144.1,34.1" style="fill:none;fill-rule:evenodd;stroke:#0000FF;stroke-width:2.0px;stroke-linecap:butt;stroke-linejoin:miter;stroke-opacity:1"/>
<path class="bond-87 atom-87 atom-88" d="M 144.1,34.1 L 147.3,33.2" style="fill:none;fill-rule:evenodd;stroke:#000000;stroke-width:2.0px;stroke-linecap:butt;stroke-linejoin:miter;stroke-opacity:1"/>
<path class="bond-87 atom-87 atom-88" d="M 141.3,36.2 L 144.1,35.4" style="fill:none;fill-rule:evenodd;stroke:#0000FF;stroke-width:2.0px;stroke-linecap:butt;stroke-linejoin:miter;stroke-opacity:1"/>
<path class="bond-87 atom-87 atom-88" d="M 144.1,35.4 L 147.0,34.6" style="fill:none;fill-rule:evenodd;stroke:#000000;stroke-width:2.0px;stroke-linecap:butt;stroke-linejoin:miter;stroke-opacity:1"/>
<path class="bond-88 atom-88 atom-89" d="M 147.3,33.2 L 149.5,35.3" style="fill:none;fill-rule:evenodd;stroke:#000000;stroke-width:2.0px;stroke-linecap:butt;stroke-linejoin:miter;stroke-opacity:1"/>
<path class="bond-88 atom-88 atom-89" d="M 149.5,35.3 L 151.6,37.4" style="fill:none;fill-rule:evenodd;stroke:#0000FF;stroke-width:2.0px;stroke-linecap:butt;stroke-linejoin:miter;stroke-opacity:1"/>
<path class="bond-89 atom-89 atom-90" d="M 152.9,41.6 L 152.1,44.6" style="fill:none;fill-rule:evenodd;stroke:#0000FF;stroke-width:2.0px;stroke-linecap:butt;stroke-linejoin:miter;stroke-opacity:1"/>
<path class="bond-89 atom-89 atom-90" d="M 152.1,44.6 L 151.4,47.5" style="fill:none;fill-rule:evenodd;stroke:#000000;stroke-width:2.0px;stroke-linecap:butt;stroke-linejoin:miter;stroke-opacity:1"/>
<path class="bond-89 atom-89 atom-90" d="M 151.6,41.3 L 151.0,43.9" style="fill:none;fill-rule:evenodd;stroke:#0000FF;stroke-width:2.0px;stroke-linecap:butt;stroke-linejoin:miter;stroke-opacity:1"/>
<path class="bond-89 atom-89 atom-90" d="M 151.0,43.9 L 150.3,46.5" style="fill:none;fill-rule:evenodd;stroke:#000000;stroke-width:2.0px;stroke-linecap:butt;stroke-linejoin:miter;stroke-opacity:1"/>
<path class="bond-90 atom-80 atom-91" d="M 164.7,55.0 L 170.0,48.3" style="fill:none;fill-rule:evenodd;stroke:#000000;stroke-width:2.0px;stroke-linecap:butt;stroke-linejoin:miter;stroke-opacity:1"/>
<path class="bond-91 atom-91 atom-92" d="M 170.0,48.3 L 169.2,45.4" style="fill:none;fill-rule:evenodd;stroke:#000000;stroke-width:2.0px;stroke-linecap:butt;stroke-linejoin:miter;stroke-opacity:1"/>
<path class="bond-91 atom-91 atom-92" d="M 169.2,45.4 L 168.4,42.5" style="fill:none;fill-rule:evenodd;stroke:#FF0000;stroke-width:2.0px;stroke-linecap:butt;stroke-linejoin:miter;stroke-opacity:1"/>
<path class="bond-92 atom-91 atom-93" d="M 170.0,48.3 L 178.1,51.2" style="fill:none;fill-rule:evenodd;stroke:#000000;stroke-width:2.0px;stroke-linecap:butt;stroke-linejoin:miter;stroke-opacity:1"/>
<path class="bond-93 atom-93 atom-94" d="M 178.1,51.2 L 180.5,49.6" style="fill:none;fill-rule:evenodd;stroke:#000000;stroke-width:2.0px;stroke-linecap:butt;stroke-linejoin:miter;stroke-opacity:1"/>
<path class="bond-93 atom-93 atom-94" d="M 180.5,49.6 L 183.0,48.0" style="fill:none;fill-rule:evenodd;stroke:#FF0000;stroke-width:2.0px;stroke-linecap:butt;stroke-linejoin:miter;stroke-opacity:1"/>
<path class="bond-94 atom-94 atom-95" d="M 187.5,47.6 L 189.4,48.5" style="fill:none;fill-rule:evenodd;stroke:#FF0000;stroke-width:2.0px;stroke-linecap:butt;stroke-linejoin:miter;stroke-opacity:1"/>
<path class="bond-94 atom-94 atom-95" d="M 189.4,48.5 L 191.3,49.5" style="fill:none;fill-rule:evenodd;stroke:#FF7F00;stroke-width:2.0px;stroke-linecap:butt;stroke-linejoin:miter;stroke-opacity:1"/>
<path class="bond-95 atom-95 atom-96" d="M 194.7,48.2 L 195.4,46.8" style="fill:none;fill-rule:evenodd;stroke:#FF7F00;stroke-width:2.0px;stroke-linecap:butt;stroke-linejoin:miter;stroke-opacity:1"/>
<path class="bond-95 atom-95 atom-96" d="M 195.4,46.8 L 196.1,45.4" style="fill:none;fill-rule:evenodd;stroke:#FF0000;stroke-width:2.0px;stroke-linecap:butt;stroke-linejoin:miter;stroke-opacity:1"/>
<path class="bond-95 atom-95 atom-96" d="M 193.5,47.6 L 194.2,46.2" style="fill:none;fill-rule:evenodd;stroke:#FF7F00;stroke-width:2.0px;stroke-linecap:butt;stroke-linejoin:miter;stroke-opacity:1"/>
<path class="bond-95 atom-95 atom-96" d="M 194.2,46.2 L 194.9,44.8" style="fill:none;fill-rule:evenodd;stroke:#FF0000;stroke-width:2.0px;stroke-linecap:butt;stroke-linejoin:miter;stroke-opacity:1"/>
<path class="bond-96 atom-95 atom-97" d="M 191.7,52.7 L 191.0,54.1" style="fill:none;fill-rule:evenodd;stroke:#FF7F00;stroke-width:2.0px;stroke-linecap:butt;stroke-linejoin:miter;stroke-opacity:1"/>
<path class="bond-96 atom-95 atom-97" d="M 191.0,54.1 L 190.3,55.5" style="fill:none;fill-rule:evenodd;stroke:#FF0000;stroke-width:2.0px;stroke-linecap:butt;stroke-linejoin:miter;stroke-opacity:1"/>
<path class="bond-97 atom-95 atom-98" d="M 194.6,51.1 L 196.5,52.0" style="fill:none;fill-rule:evenodd;stroke:#FF7F00;stroke-width:2.0px;stroke-linecap:butt;stroke-linejoin:miter;stroke-opacity:1"/>
<path class="bond-97 atom-95 atom-98" d="M 196.5,52.0 L 198.4,53.0" style="fill:none;fill-rule:evenodd;stroke:#FF0000;stroke-width:2.0px;stroke-linecap:butt;stroke-linejoin:miter;stroke-opacity:1"/>
<path class="bond-98 atom-65 atom-99" d="M 227.4,80.1 L 235.4,76.9" style="fill:none;fill-rule:evenodd;stroke:#000000;stroke-width:2.0px;stroke-linecap:butt;stroke-linejoin:miter;stroke-opacity:1"/>
<path class="bond-99 atom-99 atom-100" d="M 235.4,76.9 L 237.3,78.8" style="fill:none;fill-rule:evenodd;stroke:#000000;stroke-width:2.0px;stroke-linecap:butt;stroke-linejoin:miter;stroke-opacity:1"/>
<path class="bond-99 atom-99 atom-100" d="M 237.3,78.8 L 239.2,80.7" style="fill:none;fill-rule:evenodd;stroke:#FF0000;stroke-width:2.0px;stroke-linecap:butt;stroke-linejoin:miter;stroke-opacity:1"/>
<path class="bond-100 atom-99 atom-101" d="M 235.4,76.9 L 236.6,68.4" style="fill:none;fill-rule:evenodd;stroke:#000000;stroke-width:2.0px;stroke-linecap:butt;stroke-linejoin:miter;stroke-opacity:1"/>
<path class="bond-101 atom-101 atom-102" d="M 237.3,68.1 L 234.9,66.2" style="fill:none;fill-rule:evenodd;stroke:#000000;stroke-width:2.0px;stroke-linecap:butt;stroke-linejoin:miter;stroke-opacity:1"/>
<path class="bond-101 atom-101 atom-102" d="M 234.9,66.2 L 232.5,64.3" style="fill:none;fill-rule:evenodd;stroke:#FF0000;stroke-width:2.0px;stroke-linecap:butt;stroke-linejoin:miter;stroke-opacity:1"/>
<path class="bond-101 atom-101 atom-102" d="M 236.5,69.1 L 234.1,67.2" style="fill:none;fill-rule:evenodd;stroke:#000000;stroke-width:2.0px;stroke-linecap:butt;stroke-linejoin:miter;stroke-opacity:1"/>
<path class="bond-101 atom-101 atom-102" d="M 234.1,67.2 L 231.7,65.3" style="fill:none;fill-rule:evenodd;stroke:#FF0000;stroke-width:2.0px;stroke-linecap:butt;stroke-linejoin:miter;stroke-opacity:1"/>
<path class="bond-102 atom-101 atom-103" d="M 236.6,68.4 L 239.7,67.2" style="fill:none;fill-rule:evenodd;stroke:#000000;stroke-width:2.0px;stroke-linecap:butt;stroke-linejoin:miter;stroke-opacity:1"/>
<path class="bond-102 atom-101 atom-103" d="M 239.7,67.2 L 242.7,66.0" style="fill:none;fill-rule:evenodd;stroke:#0000FF;stroke-width:2.0px;stroke-linecap:butt;stroke-linejoin:miter;stroke-opacity:1"/>
<path class="bond-103 atom-103 atom-104" d="M 244.9,62.8 L 245.4,59.8" style="fill:none;fill-rule:evenodd;stroke:#0000FF;stroke-width:2.0px;stroke-linecap:butt;stroke-linejoin:miter;stroke-opacity:1"/>
<path class="bond-103 atom-103 atom-104" d="M 245.4,59.8 L 245.8,56.7" style="fill:none;fill-rule:evenodd;stroke:#000000;stroke-width:2.0px;stroke-linecap:butt;stroke-linejoin:miter;stroke-opacity:1"/>
<path class="bond-104 atom-104 atom-105" d="M 245.8,56.7 L 253.8,53.5" style="fill:none;fill-rule:evenodd;stroke:#000000;stroke-width:2.0px;stroke-linecap:butt;stroke-linejoin:miter;stroke-opacity:1"/>
<path class="bond-105 atom-105 atom-106" d="M 253.8,53.5 L 255.0,45.0" style="fill:none;fill-rule:evenodd;stroke:#000000;stroke-width:2.0px;stroke-linecap:butt;stroke-linejoin:miter;stroke-opacity:1"/>
<path class="bond-106 atom-106 atom-107" d="M 255.7,44.8 L 253.3,42.9" style="fill:none;fill-rule:evenodd;stroke:#000000;stroke-width:2.0px;stroke-linecap:butt;stroke-linejoin:miter;stroke-opacity:1"/>
<path class="bond-106 atom-106 atom-107" d="M 253.3,42.9 L 250.9,41.0" style="fill:none;fill-rule:evenodd;stroke:#FF0000;stroke-width:2.0px;stroke-linecap:butt;stroke-linejoin:miter;stroke-opacity:1"/>
<path class="bond-106 atom-106 atom-107" d="M 254.9,45.8 L 252.5,43.9" style="fill:none;fill-rule:evenodd;stroke:#000000;stroke-width:2.0px;stroke-linecap:butt;stroke-linejoin:miter;stroke-opacity:1"/>
<path class="bond-106 atom-106 atom-107" d="M 252.5,43.9 L 250.1,42.0" style="fill:none;fill-rule:evenodd;stroke:#FF0000;stroke-width:2.0px;stroke-linecap:butt;stroke-linejoin:miter;stroke-opacity:1"/>
<path class="bond-107 atom-106 atom-108" d="M 255.0,45.0 L 258.1,43.8" style="fill:none;fill-rule:evenodd;stroke:#000000;stroke-width:2.0px;stroke-linecap:butt;stroke-linejoin:miter;stroke-opacity:1"/>
<path class="bond-107 atom-106 atom-108" d="M 258.1,43.8 L 261.1,42.6" style="fill:none;fill-rule:evenodd;stroke:#0000FF;stroke-width:2.0px;stroke-linecap:butt;stroke-linejoin:miter;stroke-opacity:1"/>
<path class="bond-108 atom-108 atom-109" d="M 263.4,39.4 L 263.8,36.4" style="fill:none;fill-rule:evenodd;stroke:#0000FF;stroke-width:2.0px;stroke-linecap:butt;stroke-linejoin:miter;stroke-opacity:1"/>
<path class="bond-108 atom-108 atom-109" d="M 263.8,36.4 L 264.3,33.4" style="fill:none;fill-rule:evenodd;stroke:#000000;stroke-width:2.0px;stroke-linecap:butt;stroke-linejoin:miter;stroke-opacity:1"/>
<path class="bond-109 atom-109 atom-110" d="M 264.3,33.4 L 272.2,30.2" style="fill:none;fill-rule:evenodd;stroke:#000000;stroke-width:2.0px;stroke-linecap:butt;stroke-linejoin:miter;stroke-opacity:1"/>
<path class="bond-110 atom-110 atom-111" d="M 272.2,30.2 L 272.7,27.2" style="fill:none;fill-rule:evenodd;stroke:#000000;stroke-width:2.0px;stroke-linecap:butt;stroke-linejoin:miter;stroke-opacity:1"/>
<path class="bond-110 atom-110 atom-111" d="M 272.7,27.2 L 273.1,24.2" style="fill:none;fill-rule:evenodd;stroke:#CCCC00;stroke-width:2.0px;stroke-linecap:butt;stroke-linejoin:miter;stroke-opacity:1"/>
<path class="bond-111 atom-111 atom-112" d="M 275.1,21.0 L 278.3,19.8" style="fill:none;fill-rule:evenodd;stroke:#CCCC00;stroke-width:2.0px;stroke-linecap:butt;stroke-linejoin:miter;stroke-opacity:1"/>
<path class="bond-111 atom-111 atom-112" d="M 278.3,19.8 L 281.4,18.5" style="fill:none;fill-rule:evenodd;stroke:#000000;stroke-width:2.0px;stroke-linecap:butt;stroke-linejoin:miter;stroke-opacity:1"/>
<path class="bond-112 atom-112 atom-113" d="M 281.4,18.5 L 282.7,10.0" style="fill:none;fill-rule:evenodd;stroke:#000000;stroke-width:2.0px;stroke-linecap:butt;stroke-linejoin:miter;stroke-opacity:1"/>
<path class="bond-113 atom-112 atom-114" d="M 280.8,18.8 L 283.2,20.7" style="fill:none;fill-rule:evenodd;stroke:#000000;stroke-width:2.0px;stroke-linecap:butt;stroke-linejoin:miter;stroke-opacity:1"/>
<path class="bond-113 atom-112 atom-114" d="M 283.2,20.7 L 285.6,22.6" style="fill:none;fill-rule:evenodd;stroke:#FF0000;stroke-width:2.0px;stroke-linecap:butt;stroke-linejoin:miter;stroke-opacity:1"/>
<path class="bond-113 atom-112 atom-114" d="M 281.6,17.8 L 284.0,19.7" style="fill:none;fill-rule:evenodd;stroke:#000000;stroke-width:2.0px;stroke-linecap:butt;stroke-linejoin:miter;stroke-opacity:1"/>
<path class="bond-113 atom-112 atom-114" d="M 284.0,19.7 L 286.4,21.6" style="fill:none;fill-rule:evenodd;stroke:#FF0000;stroke-width:2.0px;stroke-linecap:butt;stroke-linejoin:miter;stroke-opacity:1"/>
<path class="bond-114 atom-39 atom-24" d="M 264.8,78.9 L 270.9,84.9" style="fill:none;fill-rule:evenodd;stroke:#000000;stroke-width:2.0px;stroke-linecap:butt;stroke-linejoin:miter;stroke-opacity:1"/>
<path class="bond-115 atom-93 atom-78" d="M 178.1,51.2 L 177.7,59.8" style="fill:none;fill-rule:evenodd;stroke:#000000;stroke-width:2.0px;stroke-linecap:butt;stroke-linejoin:miter;stroke-opacity:1"/>
<path class="bond-116 atom-36 atom-27" d="M 291.6,67.5 L 288.3,67.1" style="fill:none;fill-rule:evenodd;stroke:#000000;stroke-width:2.0px;stroke-linecap:butt;stroke-linejoin:miter;stroke-opacity:1"/>
<path class="bond-116 atom-36 atom-27" d="M 288.3,67.1 L 285.0,66.6" style="fill:none;fill-rule:evenodd;stroke:#0000FF;stroke-width:2.0px;stroke-linecap:butt;stroke-linejoin:miter;stroke-opacity:1"/>
<path class="bond-117 atom-90 atom-81" d="M 151.4,47.5 L 152.9,49.9" style="fill:none;fill-rule:evenodd;stroke:#000000;stroke-width:2.0px;stroke-linecap:butt;stroke-linejoin:miter;stroke-opacity:1"/>
<path class="bond-117 atom-90 atom-81" d="M 152.9,49.9 L 154.5,52.3" style="fill:none;fill-rule:evenodd;stroke:#0000FF;stroke-width:2.0px;stroke-linecap:butt;stroke-linejoin:miter;stroke-opacity:1"/>
<path class="bond-118 atom-36 atom-30" d="M 291.6,67.5 L 295.4,59.8" style="fill:none;fill-rule:evenodd;stroke:#000000;stroke-width:2.0px;stroke-linecap:butt;stroke-linejoin:miter;stroke-opacity:1"/>
<path class="bond-119 atom-90 atom-84" d="M 151.4,47.5 L 143.1,49.9" style="fill:none;fill-rule:evenodd;stroke:#000000;stroke-width:2.0px;stroke-linecap:butt;stroke-linejoin:miter;stroke-opacity:1"/>
<path d="M 211.2,100.6 L 211.5,100.3 L 211.9,100.3" style="fill:none;stroke:#000000;stroke-width:2.0px;stroke-linecap:butt;stroke-linejoin:miter;stroke-opacity:1;"/>
<path d="M 206.4,106.7 L 206.1,107.0 L 206.0,107.0" style="fill:none;stroke:#000000;stroke-width:2.0px;stroke-linecap:butt;stroke-linejoin:miter;stroke-opacity:1;"/>
<path d="M 223.0,109.1 L 223.1,109.5 L 223.6,109.6" style="fill:none;stroke:#000000;stroke-width:2.0px;stroke-linecap:butt;stroke-linejoin:miter;stroke-opacity:1;"/>
<path d="M 239.7,111.9 L 240.1,112.0 L 240.3,112.4" style="fill:none;stroke:#000000;stroke-width:2.0px;stroke-linecap:butt;stroke-linejoin:miter;stroke-opacity:1;"/>
<path d="M 250.9,116.9 L 251.3,116.8 L 251.4,116.9" style="fill:none;stroke:#000000;stroke-width:2.0px;stroke-linecap:butt;stroke-linejoin:miter;stroke-opacity:1;"/>
<path d="M 269.8,93.5 L 269.7,93.4 L 269.8,93.0" style="fill:none;stroke:#000000;stroke-width:2.0px;stroke-linecap:butt;stroke-linejoin:miter;stroke-opacity:1;"/>
<path d="M 281.7,58.0 L 281.6,57.8 L 281.8,57.8" style="fill:none;stroke:#000000;stroke-width:2.0px;stroke-linecap:butt;stroke-linejoin:miter;stroke-opacity:1;"/>
<path d="M 305.0,74.0 L 304.9,74.1 L 304.8,74.1" style="fill:none;stroke:#000000;stroke-width:2.0px;stroke-linecap:butt;stroke-linejoin:miter;stroke-opacity:1;"/>
<path d="M 234.2,131.2 L 234.1,131.6 L 233.9,131.7" style="fill:none;stroke:#000000;stroke-width:2.0px;stroke-linecap:butt;stroke-linejoin:miter;stroke-opacity:1;"/>
<path d="M 224.9,143.1 L 224.9,143.3 L 224.5,143.5" style="fill:none;stroke:#000000;stroke-width:2.0px;stroke-linecap:butt;stroke-linejoin:miter;stroke-opacity:1;"/>
<path d="M 217.3,146.3 L 216.9,146.5 L 216.8,146.9" style="fill:none;stroke:#000000;stroke-width:2.0px;stroke-linecap:butt;stroke-linejoin:miter;stroke-opacity:1;"/>
<path d="M 215.7,154.5 L 215.7,155.0 L 215.5,155.0" style="fill:none;stroke:#000000;stroke-width:2.0px;stroke-linecap:butt;stroke-linejoin:miter;stroke-opacity:1;"/>
<path d="M 206.5,166.5 L 206.5,166.6 L 206.1,166.8" style="fill:none;stroke:#000000;stroke-width:2.0px;stroke-linecap:butt;stroke-linejoin:miter;stroke-opacity:1;"/>
<path d="M 198.9,169.7 L 198.5,169.8 L 198.5,170.0" style="fill:none;stroke:#000000;stroke-width:2.0px;stroke-linecap:butt;stroke-linejoin:miter;stroke-opacity:1;"/>
<path d="M 189.4,181.4 L 189.3,181.5 L 189.2,181.9" style="fill:none;stroke:#000000;stroke-width:2.0px;stroke-linecap:butt;stroke-linejoin:miter;stroke-opacity:1;"/>
<path d="M 230.3,88.4 L 230.6,88.0 L 230.4,87.6" style="fill:none;stroke:#000000;stroke-width:2.0px;stroke-linecap:butt;stroke-linejoin:miter;stroke-opacity:1;"/>
<path d="M 219.8,83.1 L 219.4,83.2 L 219.3,83.1" style="fill:none;stroke:#000000;stroke-width:2.0px;stroke-linecap:butt;stroke-linejoin:miter;stroke-opacity:1;"/>
<path d="M 184.5,65.3 L 184.5,65.1 L 184.2,64.9" style="fill:none;stroke:#000000;stroke-width:2.0px;stroke-linecap:butt;stroke-linejoin:miter;stroke-opacity:1;"/>
<path d="M 150.9,61.3 L 150.8,61.4 L 150.7,61.3" style="fill:none;stroke:#000000;stroke-width:2.0px;stroke-linecap:butt;stroke-linejoin:miter;stroke-opacity:1;"/>
<path d="M 147.2,33.3 L 147.3,33.2 L 147.4,33.3" style="fill:none;stroke:#000000;stroke-width:2.0px;stroke-linecap:butt;stroke-linejoin:miter;stroke-opacity:1;"/>
<path d="M 236.6,68.8 L 236.6,68.4 L 236.8,68.3" style="fill:none;stroke:#000000;stroke-width:2.0px;stroke-linecap:butt;stroke-linejoin:miter;stroke-opacity:1;"/>
<path d="M 245.8,56.9 L 245.8,56.7 L 246.2,56.5" style="fill:none;stroke:#000000;stroke-width:2.0px;stroke-linecap:butt;stroke-linejoin:miter;stroke-opacity:1;"/>
<path d="M 253.4,53.7 L 253.8,53.5 L 253.9,53.1" style="fill:none;stroke:#000000;stroke-width:2.0px;stroke-linecap:butt;stroke-linejoin:miter;stroke-opacity:1;"/>
<path d="M 255.0,45.5 L 255.0,45.0 L 255.2,45.0" style="fill:none;stroke:#000000;stroke-width:2.0px;stroke-linecap:butt;stroke-linejoin:miter;stroke-opacity:1;"/>
<path d="M 264.2,33.5 L 264.3,33.4 L 264.7,33.2" style="fill:none;stroke:#000000;stroke-width:2.0px;stroke-linecap:butt;stroke-linejoin:miter;stroke-opacity:1;"/>
<path d="M 271.8,30.3 L 272.2,30.2 L 272.3,30.0" style="fill:none;stroke:#000000;stroke-width:2.0px;stroke-linecap:butt;stroke-linejoin:miter;stroke-opacity:1;"/>
<path d="M 281.3,18.6 L 281.4,18.5 L 281.5,18.1" style="fill:none;stroke:#000000;stroke-width:2.0px;stroke-linecap:butt;stroke-linejoin:miter;stroke-opacity:1;"/>
<path class="atom-3" d="M 207.4 115.0 Q 207.4 114.0, 207.9 113.4 Q 208.4 112.9, 209.3 112.9 Q 210.3 112.9, 210.8 113.4 Q 211.3 114.0, 211.3 115.0 Q 211.3 116.0, 210.8 116.6 Q 210.2 117.2, 209.3 117.2 Q 208.4 117.2, 207.9 116.6 Q 207.4 116.0, 207.4 115.0 M 209.3 116.7 Q 210.0 116.7, 210.3 116.3 Q 210.7 115.9, 210.7 115.0 Q 210.7 114.2, 210.3 113.8 Q 210.0 113.3, 209.3 113.3 Q 208.7 113.3, 208.3 113.8 Q 208.0 114.2, 208.0 115.0 Q 208.0 115.9, 208.3 116.3 Q 208.7 116.7, 209.3 116.7 " fill="#FF0000"/>
<path class="atom-4" d="M 191.5 103.7 L 192.1 103.7 L 192.1 105.5 L 194.2 105.5 L 194.2 103.7 L 194.8 103.7 L 194.8 107.9 L 194.2 107.9 L 194.2 106.0 L 192.1 106.0 L 192.1 107.9 L 191.5 107.9 L 191.5 103.7 " fill="#FF0000"/>
<path class="atom-4" d="M 195.7 105.8 Q 195.7 104.8, 196.2 104.2 Q 196.7 103.6, 197.6 103.6 Q 198.6 103.6, 199.1 104.2 Q 199.6 104.8, 199.6 105.8 Q 199.6 106.8, 199.1 107.4 Q 198.6 108.0, 197.6 108.0 Q 196.7 108.0, 196.2 107.4 Q 195.7 106.8, 195.7 105.8 M 197.6 107.5 Q 198.3 107.5, 198.6 107.1 Q 199.0 106.7, 199.0 105.8 Q 199.0 105.0, 198.6 104.5 Q 198.3 104.1, 197.6 104.1 Q 197.0 104.1, 196.6 104.5 Q 196.3 105.0, 196.3 105.8 Q 196.3 106.7, 196.6 107.1 Q 197.0 107.5, 197.6 107.5 " fill="#FF0000"/>
<path class="atom-8" d="M 231.9 102.5 Q 231.9 101.4, 232.4 100.9 Q 232.9 100.3, 233.9 100.3 Q 234.8 100.3, 235.3 100.9 Q 235.8 101.4, 235.8 102.5 Q 235.8 103.5, 235.3 104.1 Q 234.8 104.7, 233.9 104.7 Q 233.0 104.7, 232.4 104.1 Q 231.9 103.5, 231.9 102.5 M 233.9 104.2 Q 234.5 104.2, 234.9 103.7 Q 235.2 103.3, 235.2 102.5 Q 235.2 101.6, 234.9 101.2 Q 234.5 100.8, 233.9 100.8 Q 233.2 100.8, 232.9 101.2 Q 232.5 101.6, 232.5 102.5 Q 232.5 103.3, 232.9 103.7 Q 233.2 104.2, 233.9 104.2 " fill="#FF0000"/>
<path class="atom-8" d="M 236.5 100.3 L 237.1 100.3 L 237.1 102.2 L 239.2 102.2 L 239.2 100.3 L 239.8 100.3 L 239.8 104.6 L 239.2 104.6 L 239.2 102.6 L 237.1 102.6 L 237.1 104.6 L 236.5 104.6 L 236.5 100.3 " fill="#FF0000"/>
<path class="atom-9" d="M 228.5 115.1 Q 228.5 114.1, 229.0 113.6 Q 229.5 113.0, 230.4 113.0 Q 231.4 113.0, 231.9 113.6 Q 232.4 114.1, 232.4 115.1 Q 232.4 116.2, 231.9 116.8 Q 231.4 117.3, 230.4 117.3 Q 229.5 117.3, 229.0 116.8 Q 228.5 116.2, 228.5 115.1 M 230.4 116.9 Q 231.1 116.9, 231.4 116.4 Q 231.8 116.0, 231.8 115.1 Q 231.8 114.3, 231.4 113.9 Q 231.1 113.5, 230.4 113.5 Q 229.8 113.5, 229.4 113.9 Q 229.1 114.3, 229.1 115.1 Q 229.1 116.0, 229.4 116.4 Q 229.8 116.9, 230.4 116.9 " fill="#FF0000"/>
<path class="atom-9" d="M 233.0 113.0 L 233.6 113.0 L 233.6 114.8 L 235.8 114.8 L 235.8 113.0 L 236.4 113.0 L 236.4 117.3 L 235.8 117.3 L 235.8 115.3 L 233.6 115.3 L 233.6 117.3 L 233.0 117.3 L 233.0 113.0 " fill="#FF0000"/>
<path class="atom-14" d="M 256.1 122.1 Q 256.1 121.1, 256.6 120.5 Q 257.1 119.9, 258.0 119.9 Q 259.0 119.9, 259.5 120.5 Q 260.0 121.1, 260.0 122.1 Q 260.0 123.1, 259.5 123.7 Q 258.9 124.3, 258.0 124.3 Q 257.1 124.3, 256.6 123.7 Q 256.1 123.1, 256.1 122.1 M 258.0 123.8 Q 258.7 123.8, 259.0 123.4 Q 259.4 122.9, 259.4 122.1 Q 259.4 121.3, 259.0 120.8 Q 258.7 120.4, 258.0 120.4 Q 257.4 120.4, 257.0 120.8 Q 256.7 121.3, 256.7 122.1 Q 256.7 123.0, 257.0 123.4 Q 257.4 123.8, 258.0 123.8 " fill="#FF0000"/>
<path class="atom-15" d="M 265.9 116.8 Q 266.6 116.8, 267.0 117.1 Q 267.4 117.4, 267.4 118.0 Q 267.4 118.6, 267.0 119.0 Q 266.6 119.3, 265.9 119.3 L 265.2 119.3 L 265.2 121.0 L 264.6 121.0 L 264.6 116.8 L 265.9 116.8 M 265.9 118.8 Q 266.3 118.8, 266.5 118.6 Q 266.8 118.4, 266.8 118.0 Q 266.8 117.7, 266.5 117.5 Q 266.3 117.3, 265.9 117.3 L 265.2 117.3 L 265.2 118.8 L 265.9 118.8 " fill="#FF7F00"/>
<path class="atom-16" d="M 267.2 126.9 Q 267.2 125.9, 267.7 125.3 Q 268.2 124.7, 269.2 124.7 Q 270.1 124.7, 270.6 125.3 Q 271.1 125.9, 271.1 126.9 Q 271.1 127.9, 270.6 128.5 Q 270.1 129.1, 269.2 129.1 Q 268.2 129.1, 267.7 128.5 Q 267.2 127.9, 267.2 126.9 M 269.2 128.6 Q 269.8 128.6, 270.2 128.2 Q 270.5 127.7, 270.5 126.9 Q 270.5 126.1, 270.2 125.6 Q 269.8 125.2, 269.2 125.2 Q 268.5 125.2, 268.2 125.6 Q 267.8 126.1, 267.8 126.9 Q 267.8 127.8, 268.2 128.2 Q 268.5 128.6, 269.2 128.6 " fill="#FF0000"/>
<path class="atom-17" d="M 256.7 108.8 L 257.2 108.8 L 257.2 110.6 L 259.4 110.6 L 259.4 108.8 L 260.0 108.8 L 260.0 113.1 L 259.4 113.1 L 259.4 111.1 L 257.2 111.1 L 257.2 113.1 L 256.7 113.1 L 256.7 108.8 " fill="#FF0000"/>
<path class="atom-17" d="M 260.9 110.9 Q 260.9 109.9, 261.4 109.3 Q 261.9 108.8, 262.8 108.8 Q 263.8 108.8, 264.3 109.3 Q 264.8 109.9, 264.8 110.9 Q 264.8 112.0, 264.3 112.6 Q 263.7 113.1, 262.8 113.1 Q 261.9 113.1, 261.4 112.6 Q 260.9 112.0, 260.9 110.9 M 262.8 112.7 Q 263.5 112.7, 263.8 112.2 Q 264.2 111.8, 264.2 110.9 Q 264.2 110.1, 263.8 109.7 Q 263.5 109.3, 262.8 109.3 Q 262.2 109.3, 261.8 109.7 Q 261.5 110.1, 261.5 110.9 Q 261.5 111.8, 261.8 112.2 Q 262.2 112.7, 262.8 112.7 " fill="#FF0000"/>
<path class="atom-18" d="M 272.0 115.7 Q 272.0 114.7, 272.5 114.1 Q 273.0 113.6, 274.0 113.6 Q 274.9 113.6, 275.4 114.1 Q 275.9 114.7, 275.9 115.7 Q 275.9 116.8, 275.4 117.4 Q 274.9 117.9, 274.0 117.9 Q 273.0 117.9, 272.5 117.4 Q 272.0 116.8, 272.0 115.7 M 274.0 117.5 Q 274.6 117.5, 275.0 117.0 Q 275.3 116.6, 275.3 115.7 Q 275.3 114.9, 275.0 114.5 Q 274.6 114.1, 274.0 114.1 Q 273.3 114.1, 273.0 114.5 Q 272.6 114.9, 272.6 115.7 Q 272.6 116.6, 273.0 117.0 Q 273.3 117.5, 274.0 117.5 " fill="#FF0000"/>
<path class="atom-19" d="M 275.1 105.1 Q 275.8 105.1, 276.2 105.4 Q 276.6 105.8, 276.6 106.4 Q 276.6 106.9, 276.2 107.3 Q 275.8 107.6, 275.1 107.6 L 274.4 107.6 L 274.4 109.4 L 273.9 109.4 L 273.9 105.1 L 275.1 105.1 M 275.1 107.1 Q 275.5 107.1, 275.7 106.9 Q 276.0 106.7, 276.0 106.4 Q 276.0 106.0, 275.7 105.8 Q 275.5 105.6, 275.1 105.6 L 274.4 105.6 L 274.4 107.1 L 275.1 107.1 " fill="#FF7F00"/>
<path class="atom-20" d="M 264.8 106.0 Q 264.8 105.0, 265.3 104.4 Q 265.8 103.8, 266.7 103.8 Q 267.7 103.8, 268.2 104.4 Q 268.7 105.0, 268.7 106.0 Q 268.7 107.0, 268.2 107.6 Q 267.6 108.2, 266.7 108.2 Q 265.8 108.2, 265.3 107.6 Q 264.8 107.0, 264.8 106.0 M 266.7 107.7 Q 267.4 107.7, 267.7 107.3 Q 268.1 106.9, 268.1 106.0 Q 268.1 105.2, 267.7 104.8 Q 267.4 104.3, 266.7 104.3 Q 266.1 104.3, 265.7 104.7 Q 265.4 105.2, 265.4 106.0 Q 265.4 106.9, 265.7 107.3 Q 266.1 107.7, 266.7 107.7 " fill="#FF0000"/>
<path class="atom-21" d="M 281.8 108.5 Q 281.8 107.5, 282.3 106.9 Q 282.8 106.3, 283.7 106.3 Q 284.6 106.3, 285.2 106.9 Q 285.7 107.5, 285.7 108.5 Q 285.7 109.5, 285.1 110.1 Q 284.6 110.7, 283.7 110.7 Q 282.8 110.7, 282.3 110.1 Q 281.8 109.5, 281.8 108.5 M 283.7 110.2 Q 284.4 110.2, 284.7 109.8 Q 285.1 109.3, 285.1 108.5 Q 285.1 107.6, 284.7 107.2 Q 284.4 106.8, 283.7 106.8 Q 283.1 106.8, 282.7 107.2 Q 282.4 107.6, 282.4 108.5 Q 282.4 109.3, 282.7 109.8 Q 283.1 110.2, 283.7 110.2 " fill="#FF0000"/>
<path class="atom-21" d="M 286.3 106.4 L 286.9 106.4 L 286.9 108.2 L 289.1 108.2 L 289.1 106.4 L 289.6 106.4 L 289.6 110.6 L 289.1 110.6 L 289.1 108.6 L 286.9 108.6 L 286.9 110.6 L 286.3 110.6 L 286.3 106.4 " fill="#FF0000"/>
<path class="atom-22" d="M 274.5 98.7 Q 274.5 97.7, 275.0 97.2 Q 275.5 96.6, 276.4 96.6 Q 277.4 96.6, 277.9 97.2 Q 278.4 97.7, 278.4 98.7 Q 278.4 99.8, 277.9 100.4 Q 277.4 100.9, 276.4 100.9 Q 275.5 100.9, 275.0 100.4 Q 274.5 99.8, 274.5 98.7 M 276.4 100.5 Q 277.1 100.5, 277.4 100.0 Q 277.8 99.6, 277.8 98.7 Q 277.8 97.9, 277.4 97.5 Q 277.1 97.1, 276.4 97.1 Q 275.8 97.1, 275.4 97.5 Q 275.1 97.9, 275.1 98.7 Q 275.1 99.6, 275.4 100.0 Q 275.8 100.5, 276.4 100.5 " fill="#FF0000"/>
<path class="atom-25" d="M 276.6 80.9 Q 276.6 79.9, 277.1 79.3 Q 277.6 78.8, 278.5 78.8 Q 279.5 78.8, 280.0 79.3 Q 280.5 79.9, 280.5 80.9 Q 280.5 82.0, 280.0 82.6 Q 279.5 83.1, 278.5 83.1 Q 277.6 83.1, 277.1 82.6 Q 276.6 82.0, 276.6 80.9 M 278.5 82.7 Q 279.2 82.7, 279.5 82.2 Q 279.9 81.8, 279.9 80.9 Q 279.9 80.1, 279.5 79.7 Q 279.2 79.3, 278.5 79.3 Q 277.9 79.3, 277.5 79.7 Q 277.2 80.1, 277.2 80.9 Q 277.2 81.8, 277.5 82.2 Q 277.9 82.7, 278.5 82.7 " fill="#FF0000"/>
<path class="atom-27" d="M 282.1 64.2 L 283.5 66.4 Q 283.7 66.7, 283.9 67.1 Q 284.1 67.5, 284.1 67.5 L 284.1 64.2 L 284.7 64.2 L 284.7 68.4 L 284.1 68.4 L 282.6 66.0 Q 282.4 65.7, 282.3 65.4 Q 282.1 65.0, 282.0 64.9 L 282.0 68.4 L 281.5 68.4 L 281.5 64.2 L 282.1 64.2 " fill="#0000FF"/>
<path class="atom-29" d="M 288.3 51.7 L 289.7 54.0 Q 289.8 54.2, 290.0 54.6 Q 290.3 55.0, 290.3 55.0 L 290.3 51.7 L 290.8 51.7 L 290.8 56.0 L 290.3 56.0 L 288.8 53.5 Q 288.6 53.2, 288.4 52.9 Q 288.2 52.6, 288.2 52.5 L 288.2 56.0 L 287.6 56.0 L 287.6 51.7 L 288.3 51.7 " fill="#0000FF"/>
<path class="atom-32" d="M 306.8 49.5 L 308.2 51.7 Q 308.3 51.9, 308.6 52.3 Q 308.8 52.7, 308.8 52.8 L 308.8 49.5 L 309.4 49.5 L 309.4 53.7 L 308.8 53.7 L 307.3 51.2 Q 307.1 51.0, 306.9 50.6 Q 306.7 50.3, 306.7 50.2 L 306.7 53.7 L 306.1 53.7 L 306.1 49.5 L 306.8 49.5 " fill="#0000FF"/>
<path class="atom-32" d="M 310.2 49.5 L 310.8 49.5 L 310.8 51.3 L 312.9 51.3 L 312.9 49.5 L 313.5 49.5 L 313.5 53.7 L 312.9 53.7 L 312.9 51.7 L 310.8 51.7 L 310.8 53.7 L 310.2 53.7 L 310.2 49.5 " fill="#0000FF"/>
<path class="atom-32" d="M 314.3 53.6 Q 314.4 53.3, 314.7 53.1 Q 314.9 53.0, 315.3 53.0 Q 315.7 53.0, 315.9 53.2 Q 316.2 53.5, 316.2 53.9 Q 316.2 54.3, 315.9 54.7 Q 315.6 55.1, 314.9 55.5 L 316.2 55.5 L 316.2 55.8 L 314.3 55.8 L 314.3 55.6 Q 314.8 55.2, 315.2 54.9 Q 315.5 54.6, 315.6 54.4 Q 315.8 54.1, 315.8 53.9 Q 315.8 53.6, 315.6 53.5 Q 315.5 53.3, 315.3 53.3 Q 315.0 53.3, 314.9 53.4 Q 314.7 53.5, 314.6 53.7 L 314.3 53.6 " fill="#0000FF"/>
<path class="atom-33" d="M 307.8 64.3 L 309.2 66.6 Q 309.3 66.8, 309.5 67.2 Q 309.8 67.6, 309.8 67.6 L 309.8 64.3 L 310.3 64.3 L 310.3 68.6 L 309.7 68.6 L 308.3 66.1 Q 308.1 65.8, 307.9 65.5 Q 307.7 65.1, 307.7 65.0 L 307.7 68.6 L 307.1 68.6 L 307.1 64.3 L 307.8 64.3 " fill="#0000FF"/>
<path class="atom-35" d="M 295.4 72.6 L 296.8 74.8 Q 296.9 75.0, 297.2 75.4 Q 297.4 75.8, 297.4 75.9 L 297.4 72.6 L 298.0 72.6 L 298.0 76.8 L 297.4 76.8 L 295.9 74.3 Q 295.7 74.1, 295.5 73.7 Q 295.3 73.4, 295.3 73.3 L 295.3 76.8 L 294.7 76.8 L 294.7 72.6 L 295.4 72.6 " fill="#0000FF"/>
<path class="atom-38" d="M 258.5 61.5 L 259.0 61.5 L 259.0 63.3 L 261.2 63.3 L 261.2 61.5 L 261.8 61.5 L 261.8 65.8 L 261.2 65.8 L 261.2 63.8 L 259.0 63.8 L 259.0 65.8 L 258.5 65.8 L 258.5 61.5 " fill="#FF0000"/>
<path class="atom-38" d="M 262.6 63.6 Q 262.6 62.6, 263.2 62.0 Q 263.7 61.5, 264.6 61.5 Q 265.5 61.5, 266.0 62.0 Q 266.5 62.6, 266.5 63.6 Q 266.5 64.7, 266.0 65.3 Q 265.5 65.8, 264.6 65.8 Q 263.7 65.8, 263.2 65.3 Q 262.6 64.7, 262.6 63.6 M 264.6 65.4 Q 265.2 65.4, 265.6 64.9 Q 265.9 64.5, 265.9 63.6 Q 265.9 62.8, 265.6 62.4 Q 265.2 62.0, 264.6 62.0 Q 263.9 62.0, 263.6 62.4 Q 263.2 62.8, 263.2 63.6 Q 263.2 64.5, 263.6 64.9 Q 263.9 65.4, 264.6 65.4 " fill="#FF0000"/>
<path class="atom-40" d="M 254.4 80.4 Q 254.4 79.4, 254.9 78.8 Q 255.4 78.2, 256.3 78.2 Q 257.3 78.2, 257.8 78.8 Q 258.3 79.4, 258.3 80.4 Q 258.3 81.4, 257.8 82.0 Q 257.3 82.6, 256.3 82.6 Q 255.4 82.6, 254.9 82.0 Q 254.4 81.4, 254.4 80.4 M 256.3 82.1 Q 257.0 82.1, 257.3 81.7 Q 257.7 81.2, 257.7 80.4 Q 257.7 79.5, 257.3 79.1 Q 257.0 78.7, 256.3 78.7 Q 255.7 78.7, 255.3 79.1 Q 255.0 79.5, 255.0 80.4 Q 255.0 81.2, 255.3 81.7 Q 255.7 82.1, 256.3 82.1 " fill="#FF0000"/>
<path class="atom-41" d="M 253.2 86.3 Q 254.0 86.3, 254.3 86.6 Q 254.7 87.0, 254.7 87.5 Q 254.7 88.1, 254.3 88.5 Q 254.0 88.8, 253.2 88.8 L 252.6 88.8 L 252.6 90.5 L 252.0 90.5 L 252.0 86.3 L 253.2 86.3 M 253.2 88.3 Q 253.7 88.3, 253.9 88.1 Q 254.1 87.9, 254.1 87.5 Q 254.1 87.2, 253.9 87.0 Q 253.7 86.8, 253.2 86.8 L 252.6 86.8 L 252.6 88.3 L 253.2 88.3 " fill="#FF7F00"/>
<path class="atom-42" d="M 243.0 86.5 Q 243.0 85.4, 243.5 84.9 Q 244.1 84.3, 245.0 84.3 Q 245.9 84.3, 246.4 84.9 Q 246.9 85.4, 246.9 86.5 Q 246.9 87.5, 246.4 88.1 Q 245.9 88.7, 245.0 88.7 Q 244.1 88.7, 243.5 88.1 Q 243.0 87.5, 243.0 86.5 M 245.0 88.2 Q 245.6 88.2, 246.0 87.8 Q 246.3 87.3, 246.3 86.5 Q 246.3 85.6, 246.0 85.2 Q 245.6 84.8, 245.0 84.8 Q 244.3 84.8, 244.0 85.2 Q 243.6 85.6, 243.6 86.5 Q 243.6 87.3, 244.0 87.8 Q 244.3 88.2, 245.0 88.2 " fill="#FF0000"/>
<path class="atom-43" d="M 259.5 91.4 Q 259.5 90.4, 260.0 89.8 Q 260.5 89.3, 261.4 89.3 Q 262.3 89.3, 262.9 89.8 Q 263.4 90.4, 263.4 91.4 Q 263.4 92.4, 262.8 93.0 Q 262.3 93.6, 261.4 93.6 Q 260.5 93.6, 260.0 93.0 Q 259.5 92.5, 259.5 91.4 M 261.4 93.1 Q 262.1 93.1, 262.4 92.7 Q 262.8 92.3, 262.8 91.4 Q 262.8 90.6, 262.4 90.2 Q 262.1 89.7, 261.4 89.7 Q 260.8 89.7, 260.4 90.2 Q 260.1 90.6, 260.1 91.4 Q 260.1 92.3, 260.4 92.7 Q 260.8 93.1, 261.4 93.1 " fill="#FF0000"/>
<path class="atom-43" d="M 264.0 89.3 L 264.6 89.3 L 264.6 91.1 L 266.8 91.1 L 266.8 89.3 L 267.3 89.3 L 267.3 93.5 L 266.8 93.5 L 266.8 91.6 L 264.6 91.6 L 264.6 93.5 L 264.0 93.5 L 264.0 89.3 " fill="#FF0000"/>
<path class="atom-44" d="M 244.2 94.4 L 244.8 94.4 L 244.8 96.2 L 247.0 96.2 L 247.0 94.4 L 247.6 94.4 L 247.6 98.6 L 247.0 98.6 L 247.0 96.7 L 244.8 96.7 L 244.8 98.6 L 244.2 98.6 L 244.2 94.4 " fill="#FF0000"/>
<path class="atom-44" d="M 248.4 96.5 Q 248.4 95.5, 248.9 94.9 Q 249.4 94.3, 250.4 94.3 Q 251.3 94.3, 251.8 94.9 Q 252.3 95.5, 252.3 96.5 Q 252.3 97.5, 251.8 98.1 Q 251.3 98.7, 250.4 98.7 Q 249.4 98.7, 248.9 98.1 Q 248.4 97.5, 248.4 96.5 M 250.4 98.2 Q 251.0 98.2, 251.4 97.8 Q 251.7 97.3, 251.7 96.5 Q 251.7 95.7, 251.4 95.2 Q 251.0 94.8, 250.4 94.8 Q 249.7 94.8, 249.4 95.2 Q 249.0 95.7, 249.0 96.5 Q 249.0 97.3, 249.4 97.8 Q 249.7 98.2, 250.4 98.2 " fill="#FF0000"/>
<path class="atom-46" d="M 225.3 118.7 L 225.9 118.7 L 225.9 120.5 L 228.0 120.5 L 228.0 118.7 L 228.6 118.7 L 228.6 122.9 L 228.0 122.9 L 228.0 120.9 L 225.9 120.9 L 225.9 122.9 L 225.3 122.9 L 225.3 118.7 " fill="#FF0000"/>
<path class="atom-46" d="M 229.5 120.8 Q 229.5 119.7, 230.0 119.2 Q 230.5 118.6, 231.4 118.6 Q 232.4 118.6, 232.9 119.2 Q 233.4 119.7, 233.4 120.8 Q 233.4 121.8, 232.9 122.4 Q 232.4 123.0, 231.4 123.0 Q 230.5 123.0, 230.0 122.4 Q 229.5 121.8, 229.5 120.8 M 231.4 122.5 Q 232.1 122.5, 232.4 122.1 Q 232.8 121.6, 232.8 120.8 Q 232.8 119.9, 232.4 119.5 Q 232.1 119.1, 231.4 119.1 Q 230.8 119.1, 230.4 119.5 Q 230.1 119.9, 230.1 120.8 Q 230.1 121.6, 230.4 122.1 Q 230.8 122.5, 231.4 122.5 " fill="#FF0000"/>
<path class="atom-48" d="M 238.9 136.9 Q 238.9 135.9, 239.4 135.4 Q 239.9 134.8, 240.8 134.8 Q 241.8 134.8, 242.3 135.4 Q 242.8 135.9, 242.8 136.9 Q 242.8 138.0, 242.3 138.6 Q 241.8 139.2, 240.8 139.2 Q 239.9 139.2, 239.4 138.6 Q 238.9 138.0, 238.9 136.9 M 240.8 138.7 Q 241.5 138.7, 241.8 138.2 Q 242.2 137.8, 242.2 136.9 Q 242.2 136.1, 241.8 135.7 Q 241.5 135.3, 240.8 135.3 Q 240.2 135.3, 239.8 135.7 Q 239.5 136.1, 239.5 136.9 Q 239.5 137.8, 239.8 138.2 Q 240.2 138.7, 240.8 138.7 " fill="#FF0000"/>
<path class="atom-49" d="M 220.3 132.7 L 220.9 132.7 L 220.9 134.5 L 223.1 134.5 L 223.1 132.7 L 223.7 132.7 L 223.7 136.9 L 223.1 136.9 L 223.1 135.0 L 220.9 135.0 L 220.9 136.9 L 220.3 136.9 L 220.3 132.7 " fill="#0000FF"/>
<path class="atom-49" d="M 225.2 132.7 L 226.6 134.9 Q 226.7 135.1, 226.9 135.5 Q 227.1 135.9, 227.2 136.0 L 227.2 132.7 L 227.7 132.7 L 227.7 136.9 L 227.1 136.9 L 225.6 134.5 Q 225.5 134.2, 225.3 133.8 Q 225.1 133.5, 225.1 133.4 L 225.1 136.9 L 224.5 136.9 L 224.5 132.7 L 225.2 132.7 " fill="#0000FF"/>
<path class="atom-53" d="M 220.5 160.3 Q 220.5 159.3, 221.0 158.7 Q 221.5 158.1, 222.4 158.1 Q 223.3 158.1, 223.9 158.7 Q 224.4 159.3, 224.4 160.3 Q 224.4 161.3, 223.8 161.9 Q 223.3 162.5, 222.4 162.5 Q 221.5 162.5, 221.0 161.9 Q 220.5 161.3, 220.5 160.3 M 222.4 162.0 Q 223.1 162.0, 223.4 161.6 Q 223.8 161.2, 223.8 160.3 Q 223.8 159.5, 223.4 159.0 Q 223.1 158.6, 222.4 158.6 Q 221.8 158.6, 221.4 159.0 Q 221.1 159.5, 221.1 160.3 Q 221.1 161.2, 221.4 161.6 Q 221.8 162.0, 222.4 162.0 " fill="#FF0000"/>
<path class="atom-54" d="M 201.9 156.0 L 202.5 156.0 L 202.5 157.8 L 204.7 157.8 L 204.7 156.0 L 205.2 156.0 L 205.2 160.3 L 204.7 160.3 L 204.7 158.3 L 202.5 158.3 L 202.5 160.3 L 201.9 160.3 L 201.9 156.0 " fill="#0000FF"/>
<path class="atom-54" d="M 206.7 156.0 L 208.1 158.3 Q 208.3 158.5, 208.5 158.9 Q 208.7 159.3, 208.7 159.3 L 208.7 156.0 L 209.3 156.0 L 209.3 160.3 L 208.7 160.3 L 207.2 157.8 Q 207.0 157.5, 206.9 157.2 Q 206.7 156.9, 206.6 156.8 L 206.6 160.3 L 206.1 160.3 L 206.1 156.0 L 206.7 156.0 " fill="#0000FF"/>
<path class="atom-57" d="M 196.0 179.8 Q 196.1 179.8, 196.3 179.9 Q 196.5 180.0, 196.7 180.0 Q 196.9 180.1, 197.1 180.1 Q 197.5 180.1, 197.8 179.9 Q 198.0 179.7, 198.0 179.3 Q 198.0 179.1, 197.9 179.0 Q 197.8 178.8, 197.6 178.7 Q 197.4 178.7, 197.1 178.6 Q 196.7 178.5, 196.5 178.3 Q 196.3 178.2, 196.1 178.0 Q 196.0 177.8, 196.0 177.4 Q 196.0 176.9, 196.3 176.5 Q 196.7 176.2, 197.4 176.2 Q 197.9 176.2, 198.5 176.4 L 198.3 176.9 Q 197.8 176.7, 197.4 176.7 Q 197.0 176.7, 196.8 176.9 Q 196.6 177.0, 196.6 177.3 Q 196.6 177.6, 196.7 177.7 Q 196.8 177.8, 197.0 177.9 Q 197.1 178.0, 197.4 178.1 Q 197.8 178.2, 198.0 178.3 Q 198.3 178.4, 198.4 178.7 Q 198.6 178.9, 198.6 179.3 Q 198.6 179.9, 198.2 180.2 Q 197.8 180.6, 197.2 180.6 Q 196.8 180.6, 196.5 180.5 Q 196.2 180.4, 195.9 180.3 L 196.0 179.8 " fill="#CCCC00"/>
<path class="atom-60" d="M 180.6 176.2 Q 180.6 175.2, 181.1 174.6 Q 181.6 174.0, 182.5 174.0 Q 183.5 174.0, 184.0 174.6 Q 184.5 175.2, 184.5 176.2 Q 184.5 177.2, 184.0 177.8 Q 183.4 178.4, 182.5 178.4 Q 181.6 178.4, 181.1 177.8 Q 180.6 177.2, 180.6 176.2 M 182.5 177.9 Q 183.2 177.9, 183.5 177.5 Q 183.9 177.0, 183.9 176.2 Q 183.9 175.4, 183.5 174.9 Q 183.2 174.5, 182.5 174.5 Q 181.9 174.5, 181.5 174.9 Q 181.2 175.4, 181.2 176.2 Q 181.2 177.1, 181.5 177.5 Q 181.9 177.9, 182.5 177.9 " fill="#FF0000"/>
<path class="atom-62" d="M 230.7 99.2 Q 230.7 98.2, 231.2 97.7 Q 231.7 97.1, 232.6 97.1 Q 233.5 97.1, 234.1 97.7 Q 234.6 98.2, 234.6 99.2 Q 234.6 100.3, 234.0 100.9 Q 233.5 101.4, 232.6 101.4 Q 231.7 101.4, 231.2 100.9 Q 230.7 100.3, 230.7 99.2 M 232.6 101.0 Q 233.3 101.0, 233.6 100.5 Q 234.0 100.1, 234.0 99.2 Q 234.0 98.4, 233.6 98.0 Q 233.3 97.6, 232.6 97.6 Q 232.0 97.6, 231.6 98.0 Q 231.3 98.4, 231.3 99.2 Q 231.3 100.1, 231.6 100.5 Q 232.0 101.0, 232.6 101.0 " fill="#FF0000"/>
<path class="atom-62" d="M 235.2 97.1 L 235.8 97.1 L 235.8 98.9 L 238.0 98.9 L 238.0 97.1 L 238.5 97.1 L 238.5 101.4 L 238.0 101.4 L 238.0 99.4 L 235.8 99.4 L 235.8 101.4 L 235.2 101.4 L 235.2 97.1 " fill="#FF0000"/>
<path class="atom-63" d="M 212.4 87.4 L 213.0 87.4 L 213.0 89.2 L 215.1 89.2 L 215.1 87.4 L 215.7 87.4 L 215.7 91.6 L 215.1 91.6 L 215.1 89.6 L 213.0 89.6 L 213.0 91.6 L 212.4 91.6 L 212.4 87.4 " fill="#FF0000"/>
<path class="atom-63" d="M 216.6 89.5 Q 216.6 88.4, 217.1 87.9 Q 217.6 87.3, 218.5 87.3 Q 219.5 87.3, 220.0 87.9 Q 220.5 88.4, 220.5 89.5 Q 220.5 90.5, 220.0 91.1 Q 219.5 91.7, 218.5 91.7 Q 217.6 91.7, 217.1 91.1 Q 216.6 90.5, 216.6 89.5 M 218.5 91.2 Q 219.2 91.2, 219.5 90.8 Q 219.9 90.3, 219.9 89.5 Q 219.9 88.6, 219.5 88.2 Q 219.2 87.8, 218.5 87.8 Q 217.9 87.8, 217.5 88.2 Q 217.2 88.6, 217.2 89.5 Q 217.2 90.3, 217.5 90.8 Q 217.9 91.2, 218.5 91.2 " fill="#FF0000"/>
<path class="atom-68" d="M 210.7 77.9 Q 210.7 76.9, 211.2 76.3 Q 211.7 75.8, 212.7 75.8 Q 213.6 75.8, 214.1 76.3 Q 214.6 76.9, 214.6 77.9 Q 214.6 79.0, 214.1 79.5 Q 213.6 80.1, 212.7 80.1 Q 211.8 80.1, 211.2 79.5 Q 210.7 79.0, 210.7 77.9 M 212.7 79.7 Q 213.3 79.7, 213.7 79.2 Q 214.0 78.8, 214.0 77.9 Q 214.0 77.1, 213.7 76.7 Q 213.3 76.2, 212.7 76.2 Q 212.0 76.2, 211.7 76.7 Q 211.3 77.1, 211.3 77.9 Q 211.3 78.8, 211.7 79.2 Q 212.0 79.7, 212.7 79.7 " fill="#FF0000"/>
<path class="atom-69" d="M 204.6 79.0 Q 205.3 79.0, 205.7 79.3 Q 206.1 79.6, 206.1 80.2 Q 206.1 80.8, 205.7 81.1 Q 205.3 81.5, 204.6 81.5 L 203.9 81.5 L 203.9 83.2 L 203.4 83.2 L 203.4 79.0 L 204.6 79.0 M 204.6 81.0 Q 205.0 81.0, 205.2 80.8 Q 205.5 80.6, 205.5 80.2 Q 205.5 79.8, 205.2 79.6 Q 205.0 79.5, 204.6 79.5 L 203.9 79.5 L 203.9 81.0 L 204.6 81.0 " fill="#FF7F00"/>
<path class="atom-70" d="M 206.9 88.6 Q 206.9 87.6, 207.4 87.0 Q 207.9 86.5, 208.8 86.5 Q 209.8 86.5, 210.3 87.0 Q 210.8 87.6, 210.8 88.6 Q 210.8 89.7, 210.3 90.3 Q 209.8 90.8, 208.8 90.8 Q 207.9 90.8, 207.4 90.3 Q 206.9 89.7, 206.9 88.6 M 208.8 90.4 Q 209.5 90.4, 209.8 89.9 Q 210.2 89.5, 210.2 88.6 Q 210.2 87.8, 209.8 87.4 Q 209.5 87.0, 208.8 87.0 Q 208.2 87.0, 207.8 87.4 Q 207.5 87.8, 207.5 88.6 Q 207.5 89.5, 207.8 89.9 Q 208.2 90.4, 208.8 90.4 " fill="#FF0000"/>
<path class="atom-71" d="M 195.4 71.0 L 196.0 71.0 L 196.0 72.8 L 198.1 72.8 L 198.1 71.0 L 198.7 71.0 L 198.7 75.3 L 198.1 75.3 L 198.1 73.3 L 196.0 73.3 L 196.0 75.3 L 195.4 75.3 L 195.4 71.0 " fill="#FF0000"/>
<path class="atom-71" d="M 199.6 73.1 Q 199.6 72.1, 200.1 71.5 Q 200.6 71.0, 201.5 71.0 Q 202.5 71.0, 203.0 71.5 Q 203.5 72.1, 203.5 73.1 Q 203.5 74.2, 203.0 74.8 Q 202.5 75.3, 201.5 75.3 Q 200.6 75.3, 200.1 74.8 Q 199.6 74.2, 199.6 73.1 M 201.5 74.9 Q 202.2 74.9, 202.5 74.4 Q 202.9 74.0, 202.9 73.1 Q 202.9 72.3, 202.5 71.9 Q 202.2 71.5, 201.5 71.5 Q 200.9 71.5, 200.5 71.9 Q 200.2 72.3, 200.2 73.1 Q 200.2 74.0, 200.5 74.4 Q 200.9 74.9, 201.5 74.9 " fill="#FF0000"/>
<path class="atom-72" d="M 194.8 84.3 Q 194.8 83.3, 195.3 82.7 Q 195.8 82.1, 196.7 82.1 Q 197.7 82.1, 198.2 82.7 Q 198.7 83.3, 198.7 84.3 Q 198.7 85.3, 198.2 85.9 Q 197.7 86.5, 196.7 86.5 Q 195.8 86.5, 195.3 85.9 Q 194.8 85.3, 194.8 84.3 M 196.7 86.0 Q 197.4 86.0, 197.7 85.6 Q 198.1 85.1, 198.1 84.3 Q 198.1 83.5, 197.7 83.0 Q 197.4 82.6, 196.7 82.6 Q 196.1 82.6, 195.7 83.0 Q 195.4 83.4, 195.4 84.3 Q 195.4 85.1, 195.7 85.6 Q 196.1 86.0, 196.7 86.0 " fill="#FF0000"/>
<path class="atom-73" d="M 189.9 76.8 Q 190.6 76.8, 191.0 77.2 Q 191.4 77.5, 191.4 78.1 Q 191.4 78.7, 191.0 79.0 Q 190.6 79.3, 189.9 79.3 L 189.2 79.3 L 189.2 81.1 L 188.6 81.1 L 188.6 76.8 L 189.9 76.8 M 189.9 78.9 Q 190.3 78.9, 190.5 78.7 Q 190.8 78.5, 190.8 78.1 Q 190.8 77.7, 190.5 77.5 Q 190.3 77.3, 189.9 77.3 L 189.2 77.3 L 189.2 78.9 L 189.9 78.9 " fill="#FF7F00"/>
<path class="atom-74" d="M 182.7 85.7 Q 182.7 84.7, 183.2 84.1 Q 183.7 83.5, 184.7 83.5 Q 185.6 83.5, 186.1 84.1 Q 186.6 84.7, 186.6 85.7 Q 186.6 86.7, 186.1 87.3 Q 185.6 87.9, 184.7 87.9 Q 183.7 87.9, 183.2 87.3 Q 182.7 86.7, 182.7 85.7 M 184.7 87.4 Q 185.3 87.4, 185.7 87.0 Q 186.0 86.6, 186.0 85.7 Q 186.0 84.9, 185.7 84.5 Q 185.3 84.0, 184.7 84.0 Q 184.0 84.0, 183.7 84.4 Q 183.3 84.9, 183.3 85.7 Q 183.3 86.6, 183.7 87.0 Q 184.0 87.4, 184.7 87.4 " fill="#FF0000"/>
<path class="atom-75" d="M 193.4 72.2 Q 193.4 71.2, 193.9 70.6 Q 194.4 70.1, 195.3 70.1 Q 196.3 70.1, 196.8 70.6 Q 197.3 71.2, 197.3 72.2 Q 197.3 73.3, 196.8 73.8 Q 196.2 74.4, 195.3 74.4 Q 194.4 74.4, 193.9 73.8 Q 193.4 73.3, 193.4 72.2 M 195.3 73.9 Q 196.0 73.9, 196.3 73.5 Q 196.7 73.1, 196.7 72.2 Q 196.7 71.4, 196.3 71.0 Q 196.0 70.5, 195.3 70.5 Q 194.7 70.5, 194.3 71.0 Q 194.0 71.4, 194.0 72.2 Q 194.0 73.1, 194.3 73.5 Q 194.7 73.9, 195.3 73.9 " fill="#FF0000"/>
<path class="atom-75" d="M 197.9 70.1 L 198.5 70.1 L 198.5 71.9 L 200.7 71.9 L 200.7 70.1 L 201.2 70.1 L 201.2 74.4 L 200.7 74.4 L 200.7 72.4 L 198.5 72.4 L 198.5 74.4 L 197.9 74.4 L 197.9 70.1 " fill="#FF0000"/>
<path class="atom-76" d="M 181.3 73.6 Q 181.3 72.6, 181.8 72.1 Q 182.3 71.5, 183.3 71.5 Q 184.2 71.5, 184.7 72.1 Q 185.2 72.6, 185.2 73.6 Q 185.2 74.7, 184.7 75.3 Q 184.2 75.9, 183.3 75.9 Q 182.3 75.9, 181.8 75.3 Q 181.3 74.7, 181.3 73.6 M 183.3 75.4 Q 183.9 75.4, 184.2 74.9 Q 184.6 74.5, 184.6 73.6 Q 184.6 72.8, 184.2 72.4 Q 183.9 72.0, 183.3 72.0 Q 182.6 72.0, 182.3 72.4 Q 181.9 72.8, 181.9 73.6 Q 181.9 74.5, 182.3 74.9 Q 182.6 75.4, 183.3 75.4 " fill="#FF0000"/>
<path class="atom-79" d="M 167.5 62.2 Q 167.5 61.1, 168.0 60.6 Q 168.5 60.0, 169.5 60.0 Q 170.4 60.0, 170.9 60.6 Q 171.4 61.1, 171.4 62.2 Q 171.4 63.2, 170.9 63.8 Q 170.4 64.4, 169.5 64.4 Q 168.5 64.4, 168.0 63.8 Q 167.5 63.2, 167.5 62.2 M 169.5 63.9 Q 170.1 63.9, 170.5 63.4 Q 170.8 63.0, 170.8 62.2 Q 170.8 61.3, 170.5 60.9 Q 170.1 60.5, 169.5 60.5 Q 168.8 60.5, 168.5 60.9 Q 168.1 61.3, 168.1 62.2 Q 168.1 63.0, 168.5 63.4 Q 168.8 63.9, 169.5 63.9 " fill="#FF0000"/>
<path class="atom-81" d="M 155.2 52.5 L 156.6 54.8 Q 156.7 55.0, 156.9 55.4 Q 157.2 55.8, 157.2 55.8 L 157.2 52.5 L 157.7 52.5 L 157.7 56.8 L 157.2 56.8 L 155.7 54.3 Q 155.5 54.0, 155.3 53.7 Q 155.1 53.4, 155.1 53.3 L 155.1 56.8 L 154.5 56.8 L 154.5 52.5 L 155.2 52.5 " fill="#0000FF"/>
<path class="atom-83" d="M 141.8 56.3 L 143.2 58.6 Q 143.4 58.8, 143.6 59.2 Q 143.8 59.6, 143.8 59.6 L 143.8 56.3 L 144.4 56.3 L 144.4 60.6 L 143.8 60.6 L 142.3 58.1 Q 142.1 57.8, 141.9 57.5 Q 141.8 57.1, 141.7 57.0 L 141.7 60.6 L 141.1 60.6 L 141.1 56.3 L 141.8 56.3 " fill="#0000FF"/>
<path class="atom-86" d="M 120.5 44.1 L 121.1 44.1 L 121.1 45.9 L 123.2 45.9 L 123.2 44.1 L 123.8 44.1 L 123.8 48.3 L 123.2 48.3 L 123.2 46.3 L 121.1 46.3 L 121.1 48.3 L 120.5 48.3 L 120.5 44.1 " fill="#0000FF"/>
<path class="atom-86" d="M 124.6 48.2 Q 124.7 47.9, 125.0 47.7 Q 125.2 47.6, 125.6 47.6 Q 126.0 47.6, 126.2 47.8 Q 126.5 48.1, 126.5 48.5 Q 126.5 48.9, 126.2 49.3 Q 125.9 49.7, 125.2 50.1 L 126.5 50.1 L 126.5 50.4 L 124.6 50.4 L 124.6 50.2 Q 125.2 49.8, 125.5 49.5 Q 125.8 49.2, 125.9 49.0 Q 126.1 48.7, 126.1 48.5 Q 126.1 48.2, 125.9 48.1 Q 125.8 47.9, 125.6 47.9 Q 125.4 47.9, 125.2 48.0 Q 125.1 48.1, 124.9 48.3 L 124.6 48.2 " fill="#0000FF"/>
<path class="atom-86" d="M 127.7 44.1 L 129.1 46.3 Q 129.3 46.5, 129.5 46.9 Q 129.7 47.3, 129.7 47.4 L 129.7 44.1 L 130.3 44.1 L 130.3 48.3 L 129.7 48.3 L 128.2 45.8 Q 128.0 45.6, 127.9 45.2 Q 127.7 44.9, 127.6 44.8 L 127.6 48.3 L 127.1 48.3 L 127.1 44.1 L 127.7 44.1 " fill="#0000FF"/>
<path class="atom-87" d="M 138.1 33.4 L 139.5 35.7 Q 139.7 35.9, 139.9 36.3 Q 140.1 36.7, 140.1 36.7 L 140.1 33.4 L 140.7 33.4 L 140.7 37.7 L 140.1 37.7 L 138.6 35.2 Q 138.4 34.9, 138.2 34.6 Q 138.1 34.2, 138.0 34.1 L 138.0 37.7 L 137.5 37.7 L 137.5 33.4 L 138.1 33.4 " fill="#0000FF"/>
<path class="atom-89" d="M 152.5 37.1 L 153.9 39.3 Q 154.1 39.5, 154.3 40.0 Q 154.5 40.4, 154.5 40.4 L 154.5 37.1 L 155.1 37.1 L 155.1 41.3 L 154.5 41.3 L 153.0 38.9 Q 152.8 38.6, 152.7 38.2 Q 152.5 37.9, 152.4 37.8 L 152.4 41.3 L 151.9 41.3 L 151.9 37.1 L 152.5 37.1 " fill="#0000FF"/>
<path class="atom-92" d="M 165.8 40.0 Q 165.8 39.0, 166.3 38.4 Q 166.8 37.9, 167.7 37.9 Q 168.6 37.9, 169.2 38.4 Q 169.7 39.0, 169.7 40.0 Q 169.7 41.0, 169.1 41.6 Q 168.6 42.2, 167.7 42.2 Q 166.8 42.2, 166.3 41.6 Q 165.8 41.0, 165.8 40.0 M 167.7 41.7 Q 168.4 41.7, 168.7 41.3 Q 169.1 40.9, 169.1 40.0 Q 169.1 39.2, 168.7 38.8 Q 168.4 38.3, 167.7 38.3 Q 167.1 38.3, 166.7 38.8 Q 166.4 39.2, 166.4 40.0 Q 166.4 40.9, 166.7 41.3 Q 167.1 41.7, 167.7 41.7 " fill="#FF0000"/>
<path class="atom-92" d="M 170.3 37.9 L 170.9 37.9 L 170.9 39.7 L 173.1 39.7 L 173.1 37.9 L 173.6 37.9 L 173.6 42.1 L 173.1 42.1 L 173.1 40.2 L 170.9 40.2 L 170.9 42.1 L 170.3 42.1 L 170.3 37.9 " fill="#FF0000"/>
<path class="atom-94" d="M 183.3 46.5 Q 183.3 45.5, 183.8 44.9 Q 184.3 44.3, 185.2 44.3 Q 186.2 44.3, 186.7 44.9 Q 187.2 45.5, 187.2 46.5 Q 187.2 47.5, 186.7 48.1 Q 186.2 48.7, 185.2 48.7 Q 184.3 48.7, 183.8 48.1 Q 183.3 47.5, 183.3 46.5 M 185.2 48.2 Q 185.9 48.2, 186.2 47.8 Q 186.6 47.3, 186.6 46.5 Q 186.6 45.6, 186.2 45.2 Q 185.9 44.8, 185.2 44.8 Q 184.6 44.8, 184.2 45.2 Q 183.9 45.6, 183.9 46.5 Q 183.9 47.3, 184.2 47.8 Q 184.6 48.2, 185.2 48.2 " fill="#FF0000"/>
<path class="atom-95" d="M 192.8 48.1 Q 193.6 48.1, 193.9 48.5 Q 194.3 48.8, 194.3 49.4 Q 194.3 50.0, 193.9 50.3 Q 193.5 50.7, 192.8 50.7 L 192.1 50.7 L 192.1 52.4 L 191.6 52.4 L 191.6 48.1 L 192.8 48.1 M 192.8 50.2 Q 193.2 50.2, 193.5 50.0 Q 193.7 49.8, 193.7 49.4 Q 193.7 49.0, 193.5 48.8 Q 193.2 48.6, 192.8 48.6 L 192.1 48.6 L 192.1 50.2 L 192.8 50.2 " fill="#FF7F00"/>
<path class="atom-96" d="M 194.8 42.6 Q 194.8 41.6, 195.3 41.0 Q 195.8 40.4, 196.7 40.4 Q 197.7 40.4, 198.2 41.0 Q 198.7 41.6, 198.7 42.6 Q 198.7 43.6, 198.2 44.2 Q 197.7 44.8, 196.7 44.8 Q 195.8 44.8, 195.3 44.2 Q 194.8 43.6, 194.8 42.6 M 196.7 44.3 Q 197.4 44.3, 197.7 43.9 Q 198.1 43.4, 198.1 42.6 Q 198.1 41.8, 197.7 41.3 Q 197.4 40.9, 196.7 40.9 Q 196.1 40.9, 195.7 41.3 Q 195.4 41.7, 195.4 42.6 Q 195.4 43.4, 195.7 43.9 Q 196.1 44.3, 196.7 44.3 " fill="#FF0000"/>
<path class="atom-97" d="M 183.0 55.9 L 183.6 55.9 L 183.6 57.7 L 185.7 57.7 L 185.7 55.9 L 186.3 55.9 L 186.3 60.1 L 185.7 60.1 L 185.7 58.2 L 183.6 58.2 L 183.6 60.1 L 183.0 60.1 L 183.0 55.9 " fill="#FF0000"/>
<path class="atom-97" d="M 187.2 58.0 Q 187.2 57.0, 187.7 56.4 Q 188.2 55.8, 189.1 55.8 Q 190.1 55.8, 190.6 56.4 Q 191.1 57.0, 191.1 58.0 Q 191.1 59.0, 190.6 59.6 Q 190.1 60.2, 189.1 60.2 Q 188.2 60.2, 187.7 59.6 Q 187.2 59.0, 187.2 58.0 M 189.1 59.7 Q 189.8 59.7, 190.1 59.3 Q 190.5 58.8, 190.5 58.0 Q 190.5 57.2, 190.1 56.7 Q 189.8 56.3, 189.1 56.3 Q 188.5 56.3, 188.1 56.7 Q 187.8 57.1, 187.8 58.0 Q 187.8 58.8, 188.1 59.3 Q 188.5 59.7, 189.1 59.7 " fill="#FF0000"/>
<path class="atom-98" d="M 198.7 54.1 Q 198.7 53.1, 199.2 52.5 Q 199.7 51.9, 200.6 51.9 Q 201.6 51.9, 202.1 52.5 Q 202.6 53.1, 202.6 54.1 Q 202.6 55.1, 202.1 55.7 Q 201.6 56.3, 200.6 56.3 Q 199.7 56.3, 199.2 55.7 Q 198.7 55.1, 198.7 54.1 M 200.6 55.8 Q 201.3 55.8, 201.6 55.4 Q 202.0 54.9, 202.0 54.1 Q 202.0 53.3, 201.6 52.8 Q 201.3 52.4, 200.6 52.4 Q 200.0 52.4, 199.6 52.8 Q 199.3 53.2, 199.3 54.1 Q 199.3 54.9, 199.6 55.4 Q 200.0 55.8, 200.6 55.8 " fill="#FF0000"/>
<path class="atom-98" d="M 203.2 52.0 L 203.8 52.0 L 203.8 53.8 L 206.0 53.8 L 206.0 52.0 L 206.6 52.0 L 206.6 56.2 L 206.0 56.2 L 206.0 54.3 L 203.8 54.3 L 203.8 56.2 L 203.2 56.2 L 203.2 52.0 " fill="#FF0000"/>
<path class="atom-100" d="M 239.5 83.0 Q 239.5 82.0, 240.0 81.4 Q 240.5 80.8, 241.4 80.8 Q 242.4 80.8, 242.9 81.4 Q 243.4 82.0, 243.4 83.0 Q 243.4 84.0, 242.9 84.6 Q 242.4 85.2, 241.4 85.2 Q 240.5 85.2, 240.0 84.6 Q 239.5 84.0, 239.5 83.0 M 241.4 84.7 Q 242.1 84.7, 242.4 84.3 Q 242.8 83.8, 242.8 83.0 Q 242.8 82.2, 242.4 81.7 Q 242.1 81.3, 241.4 81.3 Q 240.8 81.3, 240.4 81.7 Q 240.1 82.2, 240.1 83.0 Q 240.1 83.8, 240.4 84.3 Q 240.8 84.7, 241.4 84.7 " fill="#FF0000"/>
<path class="atom-100" d="M 244.0 80.9 L 244.6 80.9 L 244.6 82.7 L 246.8 82.7 L 246.8 80.9 L 247.4 80.9 L 247.4 85.1 L 246.8 85.1 L 246.8 83.2 L 244.6 83.2 L 244.6 85.1 L 244.0 85.1 L 244.0 80.9 " fill="#FF0000"/>
<path class="atom-102" d="M 227.9 63.1 Q 227.9 62.1, 228.4 61.5 Q 228.9 60.9, 229.9 60.9 Q 230.8 60.9, 231.3 61.5 Q 231.8 62.1, 231.8 63.1 Q 231.8 64.1, 231.3 64.7 Q 230.8 65.3, 229.9 65.3 Q 228.9 65.3, 228.4 64.7 Q 227.9 64.1, 227.9 63.1 M 229.9 64.8 Q 230.5 64.8, 230.9 64.4 Q 231.2 63.9, 231.2 63.1 Q 231.2 62.2, 230.9 61.8 Q 230.5 61.4, 229.9 61.4 Q 229.2 61.4, 228.9 61.8 Q 228.5 62.2, 228.5 63.1 Q 228.5 63.9, 228.9 64.4 Q 229.2 64.8, 229.9 64.8 " fill="#FF0000"/>
<path class="atom-103" d="M 243.7 63.1 L 245.1 65.3 Q 245.2 65.6, 245.4 66.0 Q 245.6 66.4, 245.6 66.4 L 245.6 63.1 L 246.2 63.1 L 246.2 67.3 L 245.6 67.3 L 244.1 64.9 Q 244.0 64.6, 243.8 64.2 Q 243.6 63.9, 243.5 63.8 L 243.5 67.3 L 243.0 67.3 L 243.0 63.1 L 243.7 63.1 " fill="#0000FF"/>
<path class="atom-103" d="M 247.0 63.1 L 247.6 63.1 L 247.6 64.9 L 249.8 64.9 L 249.8 63.1 L 250.4 63.1 L 250.4 67.3 L 249.8 67.3 L 249.8 65.4 L 247.6 65.4 L 247.6 67.3 L 247.0 67.3 L 247.0 63.1 " fill="#0000FF"/>
<path class="atom-107" d="M 246.4 39.7 Q 246.4 38.7, 246.9 38.1 Q 247.4 37.6, 248.3 37.6 Q 249.2 37.6, 249.8 38.1 Q 250.3 38.7, 250.3 39.7 Q 250.3 40.8, 249.7 41.3 Q 249.2 41.9, 248.3 41.9 Q 247.4 41.9, 246.9 41.3 Q 246.4 40.8, 246.4 39.7 M 248.3 41.4 Q 249.0 41.4, 249.3 41.0 Q 249.7 40.6, 249.7 39.7 Q 249.7 38.9, 249.3 38.5 Q 249.0 38.0, 248.3 38.0 Q 247.7 38.0, 247.3 38.5 Q 247.0 38.9, 247.0 39.7 Q 247.0 40.6, 247.3 41.0 Q 247.7 41.4, 248.3 41.4 " fill="#FF0000"/>
<path class="atom-108" d="M 262.1 39.7 L 263.5 42.0 Q 263.6 42.2, 263.8 42.6 Q 264.1 43.0, 264.1 43.0 L 264.1 39.7 L 264.6 39.7 L 264.6 44.0 L 264.1 44.0 L 262.6 41.5 Q 262.4 41.2, 262.2 40.9 Q 262.0 40.6, 262.0 40.5 L 262.0 44.0 L 261.4 44.0 L 261.4 39.7 L 262.1 39.7 " fill="#0000FF"/>
<path class="atom-108" d="M 265.5 39.7 L 266.0 39.7 L 266.0 41.5 L 268.2 41.5 L 268.2 39.7 L 268.8 39.7 L 268.8 44.0 L 268.2 44.0 L 268.2 42.0 L 266.0 42.0 L 266.0 44.0 L 265.5 44.0 L 265.5 39.7 " fill="#0000FF"/>
<path class="atom-111" d="M 272.3 23.1 Q 272.3 23.2, 272.5 23.2 Q 272.7 23.3, 272.9 23.4 Q 273.2 23.4, 273.4 23.4 Q 273.8 23.4, 274.0 23.2 Q 274.2 23.0, 274.2 22.7 Q 274.2 22.5, 274.1 22.3 Q 274.0 22.2, 273.8 22.1 Q 273.6 22.0, 273.3 21.9 Q 273.0 21.8, 272.7 21.7 Q 272.5 21.6, 272.4 21.4 Q 272.2 21.1, 272.2 20.8 Q 272.2 20.2, 272.6 19.9 Q 272.9 19.6, 273.6 19.6 Q 274.1 19.6, 274.7 19.8 L 274.6 20.3 Q 274.0 20.0, 273.7 20.0 Q 273.2 20.0, 273.0 20.2 Q 272.8 20.4, 272.8 20.7 Q 272.8 20.9, 272.9 21.0 Q 273.0 21.2, 273.2 21.3 Q 273.4 21.3, 273.7 21.4 Q 274.0 21.6, 274.3 21.7 Q 274.5 21.8, 274.7 22.0 Q 274.8 22.3, 274.8 22.7 Q 274.8 23.3, 274.4 23.6 Q 274.0 23.9, 273.4 23.9 Q 273.0 23.9, 272.7 23.8 Q 272.4 23.7, 272.1 23.6 L 272.3 23.1 " fill="#CCCC00"/>
<path class="atom-114" d="M 286.2 23.8 Q 286.2 22.8, 286.7 22.2 Q 287.2 21.7, 288.2 21.7 Q 289.1 21.7, 289.6 22.2 Q 290.1 22.8, 290.1 23.8 Q 290.1 24.9, 289.6 25.4 Q 289.1 26.0, 288.2 26.0 Q 287.3 26.0, 286.7 25.4 Q 286.2 24.9, 286.2 23.8 M 288.2 25.6 Q 288.8 25.6, 289.2 25.1 Q 289.5 24.7, 289.5 23.8 Q 289.5 23.0, 289.2 22.6 Q 288.8 22.1, 288.2 22.1 Q 287.5 22.1, 287.2 22.6 Q 286.8 23.0, 286.8 23.8 Q 286.8 24.7, 287.2 25.1 Q 287.5 25.6, 288.2 25.6 " fill="#FF0000"/>
</svg>
