<?xml version='1.0' encoding='ASCII' standalone='yes'?>
<svg xmlns="http://www.w3.org/2000/svg" xmlns:rdkit="http://www.rdkit.org/xml" xmlns:xlink="http://www.w3.org/1999/xlink" version="1.1" baseProfile="full" xml:space="preserve" width="280px" height="200px" viewBox="0 0 280 200">
<!-- END OF HEADER -->
<rect style="opacity:1.0;fill:#FFFFFF;stroke:none" width="280.0" height="200.0" x="0.0" y="0.0"> </rect>
<path class="bond-0 atom-0 atom-1" d="M 124.2,148.1 L 97.5,117.2" style="fill:none;fill-rule:evenodd;stroke:#000000;stroke-width:2.0px;stroke-linecap:butt;stroke-linejoin:miter;stroke-opacity:1"/>
<path class="bond-1 atom-1 atom-2" d="M 97.5,117.2 L 70.8,86.3" style="fill:none;fill-rule:evenodd;stroke:#000000;stroke-width:2.0px;stroke-linecap:butt;stroke-linejoin:miter;stroke-opacity:1"/>
<path class="bond-2 atom-1 atom-3" d="M 97.5,117.2 L 66.6,143.9" style="fill:none;fill-rule:evenodd;stroke:#000000;stroke-width:2.0px;stroke-linecap:butt;stroke-linejoin:miter;stroke-opacity:1"/>
<path class="bond-3 atom-3 atom-4" d="M 69.3,141.5 L 52.5,135.7" style="fill:none;fill-rule:evenodd;stroke:#000000;stroke-width:2.0px;stroke-linecap:butt;stroke-linejoin:miter;stroke-opacity:1"/>
<path class="bond-3 atom-3 atom-4" d="M 52.5,135.7 L 35.7,129.9" style="fill:none;fill-rule:evenodd;stroke:#FF0000;stroke-width:2.0px;stroke-linecap:butt;stroke-linejoin:miter;stroke-opacity:1"/>
<path class="bond-3 atom-3 atom-4" d="M 67.3,147.3 L 50.5,141.5" style="fill:none;fill-rule:evenodd;stroke:#000000;stroke-width:2.0px;stroke-linecap:butt;stroke-linejoin:miter;stroke-opacity:1"/>
<path class="bond-3 atom-3 atom-4" d="M 50.5,141.5 L 33.7,135.7" style="fill:none;fill-rule:evenodd;stroke:#FF0000;stroke-width:2.0px;stroke-linecap:butt;stroke-linejoin:miter;stroke-opacity:1"/>
<path class="bond-4 atom-3 atom-5" d="M 66.6,143.9 L 69.8,160.3" style="fill:none;fill-rule:evenodd;stroke:#000000;stroke-width:2.0px;stroke-linecap:butt;stroke-linejoin:miter;stroke-opacity:1"/>
<path class="bond-4 atom-3 atom-5" d="M 69.8,160.3 L 72.9,176.8" style="fill:none;fill-rule:evenodd;stroke:#FF0000;stroke-width:2.0px;stroke-linecap:butt;stroke-linejoin:miter;stroke-opacity:1"/>
<path class="bond-5 atom-1 atom-6" d="M 97.5,117.2 L 128.4,90.4" style="fill:none;fill-rule:evenodd;stroke:#000000;stroke-width:2.0px;stroke-linecap:butt;stroke-linejoin:miter;stroke-opacity:1"/>
<path class="bond-6 atom-6 atom-7" d="M 128.4,90.4 L 140.5,80.0" style="fill:none;fill-rule:evenodd;stroke:#000000;stroke-width:2.0px;stroke-linecap:butt;stroke-linejoin:miter;stroke-opacity:1"/>
<path class="bond-6 atom-6 atom-7" d="M 140.5,80.0 L 152.7,69.5" style="fill:none;fill-rule:evenodd;stroke:#FF0000;stroke-width:2.0px;stroke-linecap:butt;stroke-linejoin:miter;stroke-opacity:1"/>
<path class="bond-7 atom-6 atom-8" d="M 128.4,90.4 L 155.1,121.3" style="fill:none;fill-rule:evenodd;stroke:#000000;stroke-width:2.0px;stroke-linecap:butt;stroke-linejoin:miter;stroke-opacity:1"/>
<path class="bond-8 atom-8 atom-9" d="M 155.1,121.3 L 195.2,113.7" style="fill:none;fill-rule:evenodd;stroke:#000000;stroke-width:2.0px;stroke-linecap:butt;stroke-linejoin:miter;stroke-opacity:1"/>
<path class="bond-9 atom-9 atom-10" d="M 195.2,113.7 L 229.0,136.6" style="fill:none;fill-rule:evenodd;stroke:#000000;stroke-width:2.0px;stroke-linecap:butt;stroke-linejoin:miter;stroke-opacity:1"/>
<path class="bond-10 atom-10 atom-11" d="M 229.0,136.6 L 238.0,123.4" style="fill:none;fill-rule:evenodd;stroke:#000000;stroke-width:2.0px;stroke-linecap:butt;stroke-linejoin:miter;stroke-opacity:1"/>
<path class="bond-10 atom-10 atom-11" d="M 238.0,123.4 L 247.0,110.2" style="fill:none;fill-rule:evenodd;stroke:#FF0000;stroke-width:2.0px;stroke-linecap:butt;stroke-linejoin:miter;stroke-opacity:1"/>
<path class="bond-11 atom-11 atom-12" d="M 245.3,98.3 L 231.7,89.1" style="fill:none;fill-rule:evenodd;stroke:#FF0000;stroke-width:2.0px;stroke-linecap:butt;stroke-linejoin:miter;stroke-opacity:1"/>
<path class="bond-11 atom-11 atom-12" d="M 231.7,89.1 L 218.2,79.9" style="fill:none;fill-rule:evenodd;stroke:#000000;stroke-width:2.0px;stroke-linecap:butt;stroke-linejoin:miter;stroke-opacity:1"/>
<path class="bond-12 atom-12 atom-13" d="M 221.8,82.3 L 218.3,64.4" style="fill:none;fill-rule:evenodd;stroke:#000000;stroke-width:2.0px;stroke-linecap:butt;stroke-linejoin:miter;stroke-opacity:1"/>
<path class="bond-12 atom-12 atom-13" d="M 218.3,64.4 L 214.9,46.6" style="fill:none;fill-rule:evenodd;stroke:#FF0000;stroke-width:2.0px;stroke-linecap:butt;stroke-linejoin:miter;stroke-opacity:1"/>
<path class="bond-12 atom-12 atom-13" d="M 215.7,83.5 L 212.3,65.6" style="fill:none;fill-rule:evenodd;stroke:#000000;stroke-width:2.0px;stroke-linecap:butt;stroke-linejoin:miter;stroke-opacity:1"/>
<path class="bond-12 atom-12 atom-13" d="M 212.3,65.6 L 208.9,47.7" style="fill:none;fill-rule:evenodd;stroke:#FF0000;stroke-width:2.0px;stroke-linecap:butt;stroke-linejoin:miter;stroke-opacity:1"/>
<path class="bond-13 atom-6 atom-14" d="M 128.4,90.4 L 101.7,59.5" style="fill:none;fill-rule:evenodd;stroke:#000000;stroke-width:2.0px;stroke-linecap:butt;stroke-linejoin:miter;stroke-opacity:1"/>
<path class="bond-14 atom-14 atom-15" d="M 101.7,59.5 L 104.7,18.8" style="fill:none;fill-rule:evenodd;stroke:#000000;stroke-width:2.0px;stroke-linecap:butt;stroke-linejoin:miter;stroke-opacity:1"/>
<path class="bond-15 atom-15 atom-16" d="M 104.7,18.8 L 87.6,17.6" style="fill:none;fill-rule:evenodd;stroke:#000000;stroke-width:2.0px;stroke-linecap:butt;stroke-linejoin:miter;stroke-opacity:1"/>
<path class="bond-15 atom-15 atom-16" d="M 87.6,17.6 L 70.6,16.3" style="fill:none;fill-rule:evenodd;stroke:#FF0000;stroke-width:2.0px;stroke-linecap:butt;stroke-linejoin:miter;stroke-opacity:1"/>
<path class="bond-16 atom-16 atom-17" d="M 63.4,23.2 L 62.2,39.9" style="fill:none;fill-rule:evenodd;stroke:#FF0000;stroke-width:2.0px;stroke-linecap:butt;stroke-linejoin:miter;stroke-opacity:1"/>
<path class="bond-16 atom-16 atom-17" d="M 62.2,39.9 L 61.0,56.6" style="fill:none;fill-rule:evenodd;stroke:#000000;stroke-width:2.0px;stroke-linecap:butt;stroke-linejoin:miter;stroke-opacity:1"/>
<path class="bond-17 atom-17 atom-18" d="M 61.3,52.3 L 48.0,63.7" style="fill:none;fill-rule:evenodd;stroke:#000000;stroke-width:2.0px;stroke-linecap:butt;stroke-linejoin:miter;stroke-opacity:1"/>
<path class="bond-17 atom-17 atom-18" d="M 48.0,63.7 L 34.7,75.2" style="fill:none;fill-rule:evenodd;stroke:#FF0000;stroke-width:2.0px;stroke-linecap:butt;stroke-linejoin:miter;stroke-opacity:1"/>
<path class="bond-17 atom-17 atom-18" d="M 65.3,56.9 L 52.0,68.4" style="fill:none;fill-rule:evenodd;stroke:#000000;stroke-width:2.0px;stroke-linecap:butt;stroke-linejoin:miter;stroke-opacity:1"/>
<path class="bond-17 atom-17 atom-18" d="M 52.0,68.4 L 38.7,79.9" style="fill:none;fill-rule:evenodd;stroke:#FF0000;stroke-width:2.0px;stroke-linecap:butt;stroke-linejoin:miter;stroke-opacity:1"/>
<path class="bond-18 atom-12 atom-9" d="M 218.2,79.9 L 195.2,113.7" style="fill:none;fill-rule:evenodd;stroke:#000000;stroke-width:2.0px;stroke-linecap:butt;stroke-linejoin:miter;stroke-opacity:1"/>
<path class="bond-19 atom-17 atom-14" d="M 61.0,56.6 L 101.7,59.5" style="fill:none;fill-rule:evenodd;stroke:#000000;stroke-width:2.0px;stroke-linecap:butt;stroke-linejoin:miter;stroke-opacity:1"/>
<path d="M 68.2,142.5 L 66.6,143.9 L 66.8,144.7" style="fill:none;stroke:#000000;stroke-width:2.0px;stroke-linecap:butt;stroke-linejoin:miter;stroke-opacity:1;"/>
<path d="M 153.8,119.8 L 155.1,121.3 L 157.1,121.0" style="fill:none;stroke:#000000;stroke-width:2.0px;stroke-linecap:butt;stroke-linejoin:miter;stroke-opacity:1;"/>
<path d="M 227.3,135.4 L 229.0,136.6 L 229.5,135.9" style="fill:none;stroke:#000000;stroke-width:2.0px;stroke-linecap:butt;stroke-linejoin:miter;stroke-opacity:1;"/>
<path d="M 218.8,80.3 L 218.2,79.9 L 217.0,81.6" style="fill:none;stroke:#000000;stroke-width:2.0px;stroke-linecap:butt;stroke-linejoin:miter;stroke-opacity:1;"/>
<path d="M 104.5,20.8 L 104.7,18.8 L 103.8,18.7" style="fill:none;stroke:#000000;stroke-width:2.0px;stroke-linecap:butt;stroke-linejoin:miter;stroke-opacity:1;"/>
<path d="M 61.0,55.7 L 61.0,56.6 L 63.0,56.7" style="fill:none;stroke:#000000;stroke-width:2.0px;stroke-linecap:butt;stroke-linejoin:miter;stroke-opacity:1;"/>
<path class="atom-4" d="M 22.7 130.5 Q 22.7 127.7, 24.1 126.2 Q 25.5 124.6, 28.0 124.6 Q 30.6 124.6, 32.0 126.2 Q 33.3 127.7, 33.3 130.5 Q 33.3 133.3, 32.0 134.9 Q 30.6 136.5, 28.0 136.5 Q 25.5 136.5, 24.1 134.9 Q 22.7 133.3, 22.7 130.5 M 28.0 135.2 Q 29.8 135.2, 30.7 134.0 Q 31.7 132.8, 31.7 130.5 Q 31.7 128.2, 30.7 127.1 Q 29.8 125.9, 28.0 125.9 Q 26.3 125.9, 25.3 127.1 Q 24.4 128.2, 24.4 130.5 Q 24.4 132.8, 25.3 134.0 Q 26.3 135.2, 28.0 135.2 " fill="#FF0000"/>
<path class="atom-5" d="M 69.0 184.0 Q 69.0 181.2, 70.4 179.7 Q 71.7 178.1, 74.3 178.1 Q 76.9 178.1, 78.2 179.7 Q 79.6 181.2, 79.6 184.0 Q 79.6 186.8, 78.2 188.4 Q 76.8 190.0, 74.3 190.0 Q 71.7 190.0, 70.4 188.4 Q 69.0 186.8, 69.0 184.0 M 74.3 188.7 Q 76.1 188.7, 77.0 187.5 Q 78.0 186.3, 78.0 184.0 Q 78.0 181.7, 77.0 180.6 Q 76.1 179.4, 74.3 179.4 Q 72.5 179.4, 71.6 180.6 Q 70.6 181.7, 70.6 184.0 Q 70.6 186.3, 71.6 187.5 Q 72.5 188.7, 74.3 188.7 " fill="#FF0000"/>
<path class="atom-5" d="M 81.4 178.3 L 83.0 178.3 L 83.0 183.2 L 88.9 183.2 L 88.9 178.3 L 90.5 178.3 L 90.5 189.8 L 88.9 189.8 L 88.9 184.5 L 83.0 184.5 L 83.0 189.8 L 81.4 189.8 L 81.4 178.3 " fill="#FF0000"/>
<path class="atom-7" d="M 154.0 63.8 Q 154.0 61.0, 155.4 59.4 Q 156.7 57.9, 159.3 57.9 Q 161.9 57.9, 163.2 59.4 Q 164.6 61.0, 164.6 63.8 Q 164.6 66.6, 163.2 68.2 Q 161.8 69.8, 159.3 69.8 Q 156.8 69.8, 155.4 68.2 Q 154.0 66.6, 154.0 63.8 M 159.3 68.5 Q 161.1 68.5, 162.0 67.3 Q 163.0 66.1, 163.0 63.8 Q 163.0 61.5, 162.0 60.4 Q 161.1 59.2, 159.3 59.2 Q 157.5 59.2, 156.6 60.3 Q 155.6 61.5, 155.6 63.8 Q 155.6 66.1, 156.6 67.3 Q 157.5 68.5, 159.3 68.5 " fill="#FF0000"/>
<path class="atom-7" d="M 166.4 58.0 L 168.0 58.0 L 168.0 62.9 L 173.9 62.9 L 173.9 58.0 L 175.5 58.0 L 175.5 69.6 L 173.9 69.6 L 173.9 64.2 L 168.0 64.2 L 168.0 69.6 L 166.4 69.6 L 166.4 58.0 " fill="#FF0000"/>
<path class="atom-11" d="M 246.7 102.8 Q 246.7 100.1, 248.0 98.5 Q 249.4 97.0, 252.0 97.0 Q 254.5 97.0, 255.9 98.5 Q 257.3 100.1, 257.3 102.8 Q 257.3 105.6, 255.9 107.2 Q 254.5 108.8, 252.0 108.8 Q 249.4 108.8, 248.0 107.2 Q 246.7 105.7, 246.7 102.8 M 252.0 107.5 Q 253.7 107.5, 254.7 106.3 Q 255.6 105.2, 255.6 102.8 Q 255.6 100.6, 254.7 99.4 Q 253.7 98.3, 252.0 98.3 Q 250.2 98.3, 249.2 99.4 Q 248.3 100.5, 248.3 102.8 Q 248.3 105.2, 249.2 106.3 Q 250.2 107.5, 252.0 107.5 " fill="#FF0000"/>
<path class="atom-13" d="M 205.2 39.8 Q 205.2 37.0, 206.5 35.5 Q 207.9 33.9, 210.5 33.9 Q 213.1 33.9, 214.4 35.5 Q 215.8 37.0, 215.8 39.8 Q 215.8 42.6, 214.4 44.2 Q 213.0 45.8, 210.5 45.8 Q 207.9 45.8, 206.5 44.2 Q 205.2 42.6, 205.2 39.8 M 210.5 44.5 Q 212.3 44.5, 213.2 43.3 Q 214.2 42.1, 214.2 39.8 Q 214.2 37.5, 213.2 36.4 Q 212.3 35.2, 210.5 35.2 Q 208.7 35.2, 207.8 36.4 Q 206.8 37.5, 206.8 39.8 Q 206.8 42.1, 207.8 43.3 Q 208.7 44.5, 210.5 44.5 " fill="#FF0000"/>
<path class="atom-16" d="M 58.6 15.9 Q 58.6 13.1, 60.0 11.6 Q 61.4 10.0, 63.9 10.0 Q 66.5 10.0, 67.9 11.6 Q 69.2 13.1, 69.2 15.9 Q 69.2 18.7, 67.9 20.3 Q 66.5 21.9, 63.9 21.9 Q 61.4 21.9, 60.0 20.3 Q 58.6 18.7, 58.6 15.9 M 63.9 20.6 Q 65.7 20.6, 66.6 19.4 Q 67.6 18.2, 67.6 15.9 Q 67.6 13.6, 66.6 12.5 Q 65.7 11.3, 63.9 11.3 Q 62.2 11.3, 61.2 12.5 Q 60.3 13.6, 60.3 15.9 Q 60.3 18.2, 61.2 19.4 Q 62.2 20.6, 63.9 20.6 " fill="#FF0000"/>
<path class="atom-18" d="M 24.8 83.3 Q 24.8 80.5, 26.1 79.0 Q 27.5 77.4, 30.1 77.4 Q 32.6 77.4, 34.0 79.0 Q 35.4 80.5, 35.4 83.3 Q 35.4 86.1, 34.0 87.7 Q 32.6 89.3, 30.1 89.3 Q 27.5 89.3, 26.1 87.7 Q 24.8 86.1, 24.8 83.3 M 30.1 88.0 Q 31.8 88.0, 32.8 86.8 Q 33.7 85.6, 33.7 83.3 Q 33.7 81.1, 32.8 79.9 Q 31.8 78.7, 30.1 78.7 Q 28.3 78.7, 27.3 79.9 Q 26.4 81.0, 26.4 83.3 Q 26.4 85.7, 27.3 86.8 Q 28.3 88.0, 30.1 88.0 " fill="#FF0000"/>
</svg>
