<?xml version='1.0' encoding='ASCII' standalone='yes'?>
<svg xmlns="http://www.w3.org/2000/svg" xmlns:rdkit="http://www.rdkit.org/xml" xmlns:xlink="http://www.w3.org/1999/xlink" version="1.1" baseProfile="full" xml:space="preserve" width="254px" height="200px" viewBox="0 0 254 200">
<!-- END OF HEADER -->
<rect style="opacity:1.0;fill:#FFFFFF;stroke:none" width="254.0" height="200.0" x="0.0" y="0.0"> </rect>
<path class="bond-0 atom-0 atom-1" d="M 179.9,55.3 L 168.7,89.4" style="fill:none;fill-rule:evenodd;stroke:#000000;stroke-width:2.0px;stroke-linecap:butt;stroke-linejoin:miter;stroke-opacity:1"/>
<path class="bond-1 atom-1 atom-2" d="M 168.7,89.4 L 157.5,123.5" style="fill:none;fill-rule:evenodd;stroke:#000000;stroke-width:2.0px;stroke-linecap:butt;stroke-linejoin:miter;stroke-opacity:1"/>
<path class="bond-2 atom-1 atom-3" d="M 168.7,89.4 L 202.8,100.6" style="fill:none;fill-rule:evenodd;stroke:#000000;stroke-width:2.0px;stroke-linecap:butt;stroke-linejoin:miter;stroke-opacity:1"/>
<path class="bond-3 atom-3 atom-4" d="M 202.8,100.6 L 217.3,105.4" style="fill:none;fill-rule:evenodd;stroke:#000000;stroke-width:2.0px;stroke-linecap:butt;stroke-linejoin:miter;stroke-opacity:1"/>
<path class="bond-3 atom-3 atom-4" d="M 217.3,105.4 L 231.8,110.1" style="fill:none;fill-rule:evenodd;stroke:#0000FF;stroke-width:2.0px;stroke-linecap:butt;stroke-linejoin:miter;stroke-opacity:1"/>
<path class="bond-3 atom-3 atom-4" d="M 204.4,95.5 L 219.0,100.3" style="fill:none;fill-rule:evenodd;stroke:#000000;stroke-width:2.0px;stroke-linecap:butt;stroke-linejoin:miter;stroke-opacity:1"/>
<path class="bond-3 atom-3 atom-4" d="M 219.0,100.3 L 233.5,105.0" style="fill:none;fill-rule:evenodd;stroke:#0000FF;stroke-width:2.0px;stroke-linecap:butt;stroke-linejoin:miter;stroke-opacity:1"/>
<path class="bond-3 atom-3 atom-4" d="M 201.1,105.7 L 215.6,110.5" style="fill:none;fill-rule:evenodd;stroke:#000000;stroke-width:2.0px;stroke-linecap:butt;stroke-linejoin:miter;stroke-opacity:1"/>
<path class="bond-3 atom-3 atom-4" d="M 215.6,110.5 L 230.1,115.3" style="fill:none;fill-rule:evenodd;stroke:#0000FF;stroke-width:2.0px;stroke-linecap:butt;stroke-linejoin:miter;stroke-opacity:1"/>
<path class="bond-4 atom-1 atom-5" d="M 168.7,89.4 L 134.6,78.2" style="fill:none;fill-rule:evenodd;stroke:#000000;stroke-width:2.0px;stroke-linecap:butt;stroke-linejoin:miter;stroke-opacity:1"/>
<path class="bond-5 atom-5 atom-6" d="M 134.6,78.2 L 107.8,102.1" style="fill:none;fill-rule:evenodd;stroke:#000000;stroke-width:2.0px;stroke-linecap:butt;stroke-linejoin:miter;stroke-opacity:1"/>
<path class="bond-6 atom-6 atom-7" d="M 107.8,102.1 L 73.7,90.9" style="fill:none;fill-rule:evenodd;stroke:#000000;stroke-width:2.0px;stroke-linecap:butt;stroke-linejoin:miter;stroke-opacity:1"/>
<path class="bond-7 atom-7 atom-8" d="M 73.7,90.9 L 39.6,79.7" style="fill:none;fill-rule:evenodd;stroke:#000000;stroke-width:2.0px;stroke-linecap:butt;stroke-linejoin:miter;stroke-opacity:1"/>
<path class="bond-8 atom-7 atom-9" d="M 73.7,90.9 L 84.9,56.8" style="fill:none;fill-rule:evenodd;stroke:#000000;stroke-width:2.0px;stroke-linecap:butt;stroke-linejoin:miter;stroke-opacity:1"/>
<path class="bond-9 atom-9 atom-10" d="M 84.9,56.8 L 75.9,46.7" style="fill:none;fill-rule:evenodd;stroke:#000000;stroke-width:2.0px;stroke-linecap:butt;stroke-linejoin:miter;stroke-opacity:1"/>
<path class="bond-9 atom-9 atom-10" d="M 75.9,46.7 L 66.8,36.6" style="fill:none;fill-rule:evenodd;stroke:#FF0000;stroke-width:2.0px;stroke-linecap:butt;stroke-linejoin:miter;stroke-opacity:1"/>
<path class="bond-10 atom-7 atom-11" d="M 73.7,90.9 L 62.5,125.0" style="fill:none;fill-rule:evenodd;stroke:#000000;stroke-width:2.0px;stroke-linecap:butt;stroke-linejoin:miter;stroke-opacity:1"/>
<path class="bond-11 atom-11 atom-12" d="M 59.5,125.7 L 69.1,136.4" style="fill:none;fill-rule:evenodd;stroke:#000000;stroke-width:2.0px;stroke-linecap:butt;stroke-linejoin:miter;stroke-opacity:1"/>
<path class="bond-11 atom-11 atom-12" d="M 69.1,136.4 L 78.8,147.2" style="fill:none;fill-rule:evenodd;stroke:#FF0000;stroke-width:2.0px;stroke-linecap:butt;stroke-linejoin:miter;stroke-opacity:1"/>
<path class="bond-11 atom-11 atom-12" d="M 63.5,122.1 L 73.1,132.9" style="fill:none;fill-rule:evenodd;stroke:#000000;stroke-width:2.0px;stroke-linecap:butt;stroke-linejoin:miter;stroke-opacity:1"/>
<path class="bond-11 atom-11 atom-12" d="M 73.1,132.9 L 82.8,143.6" style="fill:none;fill-rule:evenodd;stroke:#FF0000;stroke-width:2.0px;stroke-linecap:butt;stroke-linejoin:miter;stroke-opacity:1"/>
<path class="bond-12 atom-11 atom-13" d="M 62.5,125.0 L 47.9,128.1" style="fill:none;fill-rule:evenodd;stroke:#000000;stroke-width:2.0px;stroke-linecap:butt;stroke-linejoin:miter;stroke-opacity:1"/>
<path class="bond-12 atom-11 atom-13" d="M 47.9,128.1 L 33.3,131.1" style="fill:none;fill-rule:evenodd;stroke:#FF0000;stroke-width:2.0px;stroke-linecap:butt;stroke-linejoin:miter;stroke-opacity:1"/>
<path d="M 201.0,100.0 L 202.8,100.6 L 203.5,100.8" style="fill:none;stroke:#000000;stroke-width:2.0px;stroke-linecap:butt;stroke-linejoin:miter;stroke-opacity:1;"/>
<path d="M 136.3,78.8 L 134.6,78.2 L 133.2,79.4" style="fill:none;stroke:#000000;stroke-width:2.0px;stroke-linecap:butt;stroke-linejoin:miter;stroke-opacity:1;"/>
<path d="M 109.2,100.9 L 107.8,102.1 L 106.1,101.6" style="fill:none;stroke:#000000;stroke-width:2.0px;stroke-linecap:butt;stroke-linejoin:miter;stroke-opacity:1;"/>
<path d="M 84.4,58.5 L 84.9,56.8 L 84.5,56.3" style="fill:none;stroke:#000000;stroke-width:2.0px;stroke-linecap:butt;stroke-linejoin:miter;stroke-opacity:1;"/>
<path d="M 63.1,123.3 L 62.5,125.0 L 61.8,125.2" style="fill:none;stroke:#000000;stroke-width:2.0px;stroke-linecap:butt;stroke-linejoin:miter;stroke-opacity:1;"/>
<path class="atom-4" d="M 234.6 106.7 L 237.9 112.1 Q 238.3 112.6, 238.8 113.6 Q 239.3 114.6, 239.4 114.6 L 239.4 106.7 L 240.7 106.7 L 240.7 116.9 L 239.3 116.9 L 235.7 111.0 Q 235.3 110.3, 234.9 109.5 Q 234.4 108.7, 234.3 108.5 L 234.3 116.9 L 233.0 116.9 L 233.0 106.7 L 234.6 106.7 " fill="#0000FF"/>
<path class="atom-10" d="M 46.3 25.1 L 47.7 25.1 L 47.7 29.4 L 52.9 29.4 L 52.9 25.1 L 54.3 25.1 L 54.3 35.2 L 52.9 35.2 L 52.9 30.5 L 47.7 30.5 L 47.7 35.2 L 46.3 35.2 L 46.3 25.1 " fill="#FF0000"/>
<path class="atom-10" d="M 56.3 30.1 Q 56.3 27.7, 57.5 26.3 Q 58.7 24.9, 61.0 24.9 Q 63.3 24.9, 64.5 26.3 Q 65.7 27.7, 65.7 30.1 Q 65.7 32.6, 64.4 34.0 Q 63.2 35.4, 61.0 35.4 Q 58.8 35.4, 57.5 34.0 Q 56.3 32.6, 56.3 30.1 M 61.0 34.2 Q 62.6 34.2, 63.4 33.2 Q 64.2 32.1, 64.2 30.1 Q 64.2 28.1, 63.4 27.1 Q 62.6 26.1, 61.0 26.1 Q 59.5 26.1, 58.6 27.1 Q 57.8 28.1, 57.8 30.1 Q 57.8 32.2, 58.6 33.2 Q 59.5 34.2, 61.0 34.2 " fill="#FF0000"/>
<path class="atom-12" d="M 81.8 151.8 Q 81.8 149.3, 83.0 148.0 Q 84.2 146.6, 86.5 146.6 Q 88.7 146.6, 89.9 148.0 Q 91.1 149.3, 91.1 151.8 Q 91.1 154.3, 89.9 155.7 Q 88.7 157.1, 86.5 157.1 Q 84.2 157.1, 83.0 155.7 Q 81.8 154.3, 81.8 151.8 M 86.5 155.9 Q 88.0 155.9, 88.8 154.9 Q 89.7 153.8, 89.7 151.8 Q 89.7 149.8, 88.8 148.8 Q 88.0 147.8, 86.5 147.8 Q 84.9 147.8, 84.1 148.8 Q 83.2 149.8, 83.2 151.8 Q 83.2 153.8, 84.1 154.9 Q 84.9 155.9, 86.5 155.9 " fill="#FF0000"/>
<path class="atom-13" d="M 12.7 127.3 L 14.1 127.3 L 14.1 131.7 L 19.3 131.7 L 19.3 127.3 L 20.7 127.3 L 20.7 137.5 L 19.3 137.5 L 19.3 132.8 L 14.1 132.8 L 14.1 137.5 L 12.7 137.5 L 12.7 127.3 " fill="#FF0000"/>
<path class="atom-13" d="M 22.7 132.4 Q 22.7 129.9, 23.9 128.6 Q 25.1 127.2, 27.4 127.2 Q 29.7 127.2, 30.9 128.6 Q 32.1 129.9, 32.1 132.4 Q 32.1 134.9, 30.8 136.3 Q 29.6 137.7, 27.4 137.7 Q 25.2 137.7, 23.9 136.3 Q 22.7 134.9, 22.7 132.4 M 27.4 136.5 Q 29.0 136.5, 29.8 135.5 Q 30.6 134.4, 30.6 132.4 Q 30.6 130.4, 29.8 129.4 Q 29.0 128.4, 27.4 128.4 Q 25.9 128.4, 25.0 129.4 Q 24.2 130.4, 24.2 132.4 Q 24.2 134.4, 25.0 135.5 Q 25.9 136.5, 27.4 136.5 " fill="#FF0000"/>
<path class="legend" d="M 118.2 181.9 Q 118.2 179.6, 118.9 177.7 Q 119.5 175.8, 120.8 173.8 L 121.7 174.4 Q 120.7 176.3, 120.1 178.0 Q 119.6 179.7, 119.6 181.9 Q 119.6 184.0, 120.1 185.8 Q 120.7 187.5, 121.7 189.4 L 120.8 190.0 Q 119.5 188.0, 118.9 186.1 Q 118.2 184.2, 118.2 181.9 " fill="#000000"/>
<path class="legend" d="M 122.6 177.3 Q 123.1 176.2, 124.0 175.6 Q 125.0 175.0, 126.4 175.0 Q 128.1 175.0, 129.1 175.9 Q 130.0 176.8, 130.0 178.5 Q 130.0 180.2, 128.8 181.7 Q 127.6 183.3, 125.0 185.2 L 130.2 185.2 L 130.2 186.4 L 122.6 186.4 L 122.6 185.4 Q 124.7 183.9, 126.0 182.8 Q 127.2 181.6, 127.8 180.6 Q 128.4 179.6, 128.4 178.6 Q 128.4 177.5, 127.9 176.9 Q 127.4 176.3, 126.4 176.3 Q 125.5 176.3, 124.9 176.6 Q 124.3 177.0, 123.9 177.8 L 122.6 177.3 " fill="#000000"/>
<path class="legend" d="M 135.2 181.9 Q 135.2 184.2, 134.5 186.1 Q 133.9 188.0, 132.6 190.0 L 131.7 189.4 Q 132.7 187.5, 133.2 185.8 Q 133.8 184.0, 133.8 181.9 Q 133.8 179.7, 133.2 178.0 Q 132.7 176.3, 131.7 174.4 L 132.6 173.8 Q 133.9 175.8, 134.5 177.7 Q 135.2 179.6, 135.2 181.9 " fill="#000000"/>
</svg>
