<?xml version='1.0' encoding='ASCII' standalone='yes'?>
<svg xmlns="http://www.w3.org/2000/svg" xmlns:rdkit="http://www.rdkit.org/xml" xmlns:xlink="http://www.w3.org/1999/xlink" version="1.1" baseProfile="full" xml:space="preserve" width="437px" height="200px" viewBox="0 0 437 200">
<!-- END OF HEADER -->
<rect style="opacity:1.0;fill:#FFFFFF;stroke:none" width="437.0" height="200.0" x="0.0" y="0.0"> </rect>
<path class="bond-0 atom-0 atom-1" d="M 242.6,19.0 L 252.0,26.8" style="fill:none;fill-rule:evenodd;stroke:#000000;stroke-width:2.0px;stroke-linecap:butt;stroke-linejoin:miter;stroke-opacity:1"/>
<path class="bond-0 atom-0 atom-1" d="M 241.5,20.4 L 250.9,28.1" style="fill:none;fill-rule:evenodd;stroke:#000000;stroke-width:2.0px;stroke-linecap:butt;stroke-linejoin:miter;stroke-opacity:1"/>
<path class="bond-1 atom-1 atom-2" d="M 251.1,27.1 L 249.2,38.7" style="fill:none;fill-rule:evenodd;stroke:#000000;stroke-width:2.0px;stroke-linecap:butt;stroke-linejoin:miter;stroke-opacity:1"/>
<path class="bond-2 atom-2 atom-3" d="M 249.2,38.7 L 258.2,46.1" style="fill:none;fill-rule:evenodd;stroke:#000000;stroke-width:2.0px;stroke-linecap:butt;stroke-linejoin:miter;stroke-opacity:1"/>
<path class="bond-3 atom-3 atom-4" d="M 258.2,46.1 L 256.3,57.6" style="fill:none;fill-rule:evenodd;stroke:#000000;stroke-width:2.0px;stroke-linecap:butt;stroke-linejoin:miter;stroke-opacity:1"/>
<path class="bond-4 atom-4 atom-5" d="M 256.3,57.6 L 251.7,56.9" style="fill:none;fill-rule:evenodd;stroke:#000000;stroke-width:2.0px;stroke-linecap:butt;stroke-linejoin:miter;stroke-opacity:1"/>
<path class="bond-4 atom-4 atom-5" d="M 251.7,56.9 L 247.1,56.1" style="fill:none;fill-rule:evenodd;stroke:#FF0000;stroke-width:2.0px;stroke-linecap:butt;stroke-linejoin:miter;stroke-opacity:1"/>
<path class="bond-5 atom-4 atom-6" d="M 256.3,57.6 L 261.0,57.2" style="fill:none;fill-rule:evenodd;stroke:#000000;stroke-width:2.0px;stroke-linecap:butt;stroke-linejoin:miter;stroke-opacity:1"/>
<path class="bond-5 atom-4 atom-6" d="M 261.0,57.2 L 265.6,56.9" style="fill:none;fill-rule:evenodd;stroke:#FF0000;stroke-width:2.0px;stroke-linecap:butt;stroke-linejoin:miter;stroke-opacity:1"/>
<path class="bond-6 atom-4 atom-7" d="M 256.3,57.6 L 254.4,69.2" style="fill:none;fill-rule:evenodd;stroke:#000000;stroke-width:2.0px;stroke-linecap:butt;stroke-linejoin:miter;stroke-opacity:1"/>
<path class="bond-7 atom-7 atom-8" d="M 254.4,69.2 L 249.8,68.4" style="fill:none;fill-rule:evenodd;stroke:#000000;stroke-width:2.0px;stroke-linecap:butt;stroke-linejoin:miter;stroke-opacity:1"/>
<path class="bond-7 atom-7 atom-8" d="M 249.8,68.4 L 245.2,67.7" style="fill:none;fill-rule:evenodd;stroke:#FF0000;stroke-width:2.0px;stroke-linecap:butt;stroke-linejoin:miter;stroke-opacity:1"/>
<path class="bond-8 atom-7 atom-9" d="M 254.4,69.2 L 265.9,71.1" style="fill:none;fill-rule:evenodd;stroke:#000000;stroke-width:2.0px;stroke-linecap:butt;stroke-linejoin:miter;stroke-opacity:1"/>
<path class="bond-9 atom-9 atom-10" d="M 264.9,70.9 L 267.1,75.1" style="fill:none;fill-rule:evenodd;stroke:#000000;stroke-width:2.0px;stroke-linecap:butt;stroke-linejoin:miter;stroke-opacity:1"/>
<path class="bond-9 atom-9 atom-10" d="M 267.1,75.1 L 269.3,79.3" style="fill:none;fill-rule:evenodd;stroke:#FF0000;stroke-width:2.0px;stroke-linecap:butt;stroke-linejoin:miter;stroke-opacity:1"/>
<path class="bond-9 atom-9 atom-10" d="M 266.5,70.3 L 268.6,74.3" style="fill:none;fill-rule:evenodd;stroke:#000000;stroke-width:2.0px;stroke-linecap:butt;stroke-linejoin:miter;stroke-opacity:1"/>
<path class="bond-9 atom-9 atom-10" d="M 268.6,74.3 L 270.8,78.5" style="fill:none;fill-rule:evenodd;stroke:#FF0000;stroke-width:2.0px;stroke-linecap:butt;stroke-linejoin:miter;stroke-opacity:1"/>
<path class="bond-10 atom-9 atom-11" d="M 265.9,71.1 L 268.7,67.8" style="fill:none;fill-rule:evenodd;stroke:#000000;stroke-width:2.0px;stroke-linecap:butt;stroke-linejoin:miter;stroke-opacity:1"/>
<path class="bond-10 atom-9 atom-11" d="M 268.7,67.8 L 271.4,64.5" style="fill:none;fill-rule:evenodd;stroke:#0000FF;stroke-width:2.0px;stroke-linecap:butt;stroke-linejoin:miter;stroke-opacity:1"/>
<path class="bond-11 atom-11 atom-12" d="M 275.4,62.3 L 280.1,63.1" style="fill:none;fill-rule:evenodd;stroke:#0000FF;stroke-width:2.0px;stroke-linecap:butt;stroke-linejoin:miter;stroke-opacity:1"/>
<path class="bond-11 atom-11 atom-12" d="M 280.1,63.1 L 284.9,63.9" style="fill:none;fill-rule:evenodd;stroke:#000000;stroke-width:2.0px;stroke-linecap:butt;stroke-linejoin:miter;stroke-opacity:1"/>
<path class="bond-12 atom-12 atom-13" d="M 284.9,63.9 L 292.3,54.9" style="fill:none;fill-rule:evenodd;stroke:#000000;stroke-width:2.0px;stroke-linecap:butt;stroke-linejoin:miter;stroke-opacity:1"/>
<path class="bond-13 atom-13 atom-14" d="M 292.3,54.9 L 303.9,56.8" style="fill:none;fill-rule:evenodd;stroke:#000000;stroke-width:2.0px;stroke-linecap:butt;stroke-linejoin:miter;stroke-opacity:1"/>
<path class="bond-14 atom-14 atom-15" d="M 302.9,56.6 L 304.6,61.1" style="fill:none;fill-rule:evenodd;stroke:#000000;stroke-width:2.0px;stroke-linecap:butt;stroke-linejoin:miter;stroke-opacity:1"/>
<path class="bond-14 atom-14 atom-15" d="M 304.6,61.1 L 306.2,65.5" style="fill:none;fill-rule:evenodd;stroke:#FF0000;stroke-width:2.0px;stroke-linecap:butt;stroke-linejoin:miter;stroke-opacity:1"/>
<path class="bond-14 atom-14 atom-15" d="M 304.5,56.0 L 306.2,60.4" style="fill:none;fill-rule:evenodd;stroke:#000000;stroke-width:2.0px;stroke-linecap:butt;stroke-linejoin:miter;stroke-opacity:1"/>
<path class="bond-14 atom-14 atom-15" d="M 306.2,60.4 L 307.9,64.9" style="fill:none;fill-rule:evenodd;stroke:#FF0000;stroke-width:2.0px;stroke-linecap:butt;stroke-linejoin:miter;stroke-opacity:1"/>
<path class="bond-15 atom-14 atom-16" d="M 303.9,56.8 L 306.6,53.5" style="fill:none;fill-rule:evenodd;stroke:#000000;stroke-width:2.0px;stroke-linecap:butt;stroke-linejoin:miter;stroke-opacity:1"/>
<path class="bond-15 atom-14 atom-16" d="M 306.6,53.5 L 309.3,50.2" style="fill:none;fill-rule:evenodd;stroke:#0000FF;stroke-width:2.0px;stroke-linecap:butt;stroke-linejoin:miter;stroke-opacity:1"/>
<path class="bond-16 atom-16 atom-17" d="M 313.3,48.0 L 318.1,48.8" style="fill:none;fill-rule:evenodd;stroke:#0000FF;stroke-width:2.0px;stroke-linecap:butt;stroke-linejoin:miter;stroke-opacity:1"/>
<path class="bond-16 atom-16 atom-17" d="M 318.1,48.8 L 322.8,49.6" style="fill:none;fill-rule:evenodd;stroke:#000000;stroke-width:2.0px;stroke-linecap:butt;stroke-linejoin:miter;stroke-opacity:1"/>
<path class="bond-17 atom-17 atom-18" d="M 322.8,49.6 L 330.3,40.6" style="fill:none;fill-rule:evenodd;stroke:#000000;stroke-width:2.0px;stroke-linecap:butt;stroke-linejoin:miter;stroke-opacity:1"/>
<path class="bond-18 atom-18 atom-19" d="M 330.3,40.6 L 335.2,41.4" style="fill:none;fill-rule:evenodd;stroke:#000000;stroke-width:2.0px;stroke-linecap:butt;stroke-linejoin:miter;stroke-opacity:1"/>
<path class="bond-18 atom-18 atom-19" d="M 335.2,41.4 L 340.1,42.2" style="fill:none;fill-rule:evenodd;stroke:#CCCC00;stroke-width:2.0px;stroke-linecap:butt;stroke-linejoin:miter;stroke-opacity:1"/>
<path class="bond-19 atom-19 atom-20" d="M 343.5,40.3 L 346.4,36.9" style="fill:none;fill-rule:evenodd;stroke:#CCCC00;stroke-width:2.0px;stroke-linecap:butt;stroke-linejoin:miter;stroke-opacity:1"/>
<path class="bond-19 atom-19 atom-20" d="M 346.4,36.9 L 349.2,33.4" style="fill:none;fill-rule:evenodd;stroke:#000000;stroke-width:2.0px;stroke-linecap:butt;stroke-linejoin:miter;stroke-opacity:1"/>
<path class="bond-20 atom-20 atom-21" d="M 349.2,33.4 L 360.8,35.3" style="fill:none;fill-rule:evenodd;stroke:#000000;stroke-width:2.0px;stroke-linecap:butt;stroke-linejoin:miter;stroke-opacity:1"/>
<path class="bond-21 atom-20 atom-22" d="M 350.2,33.6 L 348.5,29.2" style="fill:none;fill-rule:evenodd;stroke:#000000;stroke-width:2.0px;stroke-linecap:butt;stroke-linejoin:miter;stroke-opacity:1"/>
<path class="bond-21 atom-20 atom-22" d="M 348.5,29.2 L 346.9,24.8" style="fill:none;fill-rule:evenodd;stroke:#FF0000;stroke-width:2.0px;stroke-linecap:butt;stroke-linejoin:miter;stroke-opacity:1"/>
<path class="bond-21 atom-20 atom-22" d="M 348.6,34.2 L 346.9,29.8" style="fill:none;fill-rule:evenodd;stroke:#000000;stroke-width:2.0px;stroke-linecap:butt;stroke-linejoin:miter;stroke-opacity:1"/>
<path class="bond-21 atom-20 atom-22" d="M 346.9,29.8 L 345.3,25.4" style="fill:none;fill-rule:evenodd;stroke:#FF0000;stroke-width:2.0px;stroke-linecap:butt;stroke-linejoin:miter;stroke-opacity:1"/>
<path class="bond-22 atom-7 atom-23" d="M 254.4,69.2 L 252.5,80.7" style="fill:none;fill-rule:evenodd;stroke:#000000;stroke-width:2.0px;stroke-linecap:butt;stroke-linejoin:miter;stroke-opacity:1"/>
<path class="bond-23 atom-23 atom-24" d="M 252.5,80.7 L 263.7,84.0" style="fill:none;fill-rule:evenodd;stroke:#000000;stroke-width:2.0px;stroke-linecap:butt;stroke-linejoin:miter;stroke-opacity:1"/>
<path class="bond-24 atom-23 atom-25" d="M 252.5,80.7 L 241.0,78.8" style="fill:none;fill-rule:evenodd;stroke:#000000;stroke-width:2.0px;stroke-linecap:butt;stroke-linejoin:miter;stroke-opacity:1"/>
<path class="bond-25 atom-23 atom-26" d="M 252.5,80.7 L 250.6,92.3" style="fill:none;fill-rule:evenodd;stroke:#000000;stroke-width:2.0px;stroke-linecap:butt;stroke-linejoin:miter;stroke-opacity:1"/>
<path class="bond-26 atom-26 atom-27" d="M 250.6,92.3 L 254.0,95.0" style="fill:none;fill-rule:evenodd;stroke:#000000;stroke-width:2.0px;stroke-linecap:butt;stroke-linejoin:miter;stroke-opacity:1"/>
<path class="bond-26 atom-26 atom-27" d="M 254.0,95.0 L 257.3,97.8" style="fill:none;fill-rule:evenodd;stroke:#FF0000;stroke-width:2.0px;stroke-linecap:butt;stroke-linejoin:miter;stroke-opacity:1"/>
<path class="bond-27 atom-27 atom-28" d="M 259.2,102.3 L 258.7,105.5" style="fill:none;fill-rule:evenodd;stroke:#FF0000;stroke-width:2.0px;stroke-linecap:butt;stroke-linejoin:miter;stroke-opacity:1"/>
<path class="bond-27 atom-27 atom-28" d="M 258.7,105.5 L 258.2,108.7" style="fill:none;fill-rule:evenodd;stroke:#FF7F00;stroke-width:2.0px;stroke-linecap:butt;stroke-linejoin:miter;stroke-opacity:1"/>
<path class="bond-28 atom-28 atom-29" d="M 259.4,112.4 L 263.1,113.0" style="fill:none;fill-rule:evenodd;stroke:#FF7F00;stroke-width:2.0px;stroke-linecap:butt;stroke-linejoin:miter;stroke-opacity:1"/>
<path class="bond-28 atom-28 atom-29" d="M 263.1,113.0 L 266.8,113.6" style="fill:none;fill-rule:evenodd;stroke:#FF0000;stroke-width:2.0px;stroke-linecap:butt;stroke-linejoin:miter;stroke-opacity:1"/>
<path class="bond-28 atom-28 atom-29" d="M 259.6,110.6 L 263.4,111.3" style="fill:none;fill-rule:evenodd;stroke:#FF7F00;stroke-width:2.0px;stroke-linecap:butt;stroke-linejoin:miter;stroke-opacity:1"/>
<path class="bond-28 atom-28 atom-29" d="M 263.4,111.3 L 267.1,111.9" style="fill:none;fill-rule:evenodd;stroke:#FF0000;stroke-width:2.0px;stroke-linecap:butt;stroke-linejoin:miter;stroke-opacity:1"/>
<path class="bond-29 atom-28 atom-30" d="M 256.0,111.6 L 255.0,111.8" style="fill:none;fill-rule:evenodd;stroke:#FF7F00;stroke-width:2.0px;stroke-linecap:butt;stroke-linejoin:miter;stroke-opacity:1"/>
<path class="bond-29 atom-28 atom-30" d="M 255.0,111.8 L 254.0,112.0" style="fill:none;fill-rule:evenodd;stroke:#FF0000;stroke-width:2.0px;stroke-linecap:butt;stroke-linejoin:miter;stroke-opacity:1"/>
<path class="bond-30 atom-28 atom-31" d="M 257.3,113.7 L 256.8,117.0" style="fill:none;fill-rule:evenodd;stroke:#FF7F00;stroke-width:2.0px;stroke-linecap:butt;stroke-linejoin:miter;stroke-opacity:1"/>
<path class="bond-30 atom-28 atom-31" d="M 256.8,117.0 L 256.3,120.2" style="fill:none;fill-rule:evenodd;stroke:#FF0000;stroke-width:2.0px;stroke-linecap:butt;stroke-linejoin:miter;stroke-opacity:1"/>
<path class="bond-31 atom-31 atom-32" d="M 253.5,123.6 L 250.1,124.9" style="fill:none;fill-rule:evenodd;stroke:#FF0000;stroke-width:2.0px;stroke-linecap:butt;stroke-linejoin:miter;stroke-opacity:1"/>
<path class="bond-31 atom-31 atom-32" d="M 250.1,124.9 L 246.6,126.2" style="fill:none;fill-rule:evenodd;stroke:#FF7F00;stroke-width:2.0px;stroke-linecap:butt;stroke-linejoin:miter;stroke-opacity:1"/>
<path class="bond-32 atom-32 atom-33" d="M 245.5,124.3 L 245.3,122.6" style="fill:none;fill-rule:evenodd;stroke:#FF7F00;stroke-width:2.0px;stroke-linecap:butt;stroke-linejoin:miter;stroke-opacity:1"/>
<path class="bond-32 atom-32 atom-33" d="M 245.3,122.6 L 245.1,120.9" style="fill:none;fill-rule:evenodd;stroke:#FF0000;stroke-width:2.0px;stroke-linecap:butt;stroke-linejoin:miter;stroke-opacity:1"/>
<path class="bond-32 atom-32 atom-33" d="M 243.7,124.5 L 243.6,122.8" style="fill:none;fill-rule:evenodd;stroke:#FF7F00;stroke-width:2.0px;stroke-linecap:butt;stroke-linejoin:miter;stroke-opacity:1"/>
<path class="bond-32 atom-32 atom-33" d="M 243.6,122.8 L 243.4,121.1" style="fill:none;fill-rule:evenodd;stroke:#FF0000;stroke-width:2.0px;stroke-linecap:butt;stroke-linejoin:miter;stroke-opacity:1"/>
<path class="bond-33 atom-32 atom-34" d="M 245.9,129.4 L 247.0,132.4" style="fill:none;fill-rule:evenodd;stroke:#FF7F00;stroke-width:2.0px;stroke-linecap:butt;stroke-linejoin:miter;stroke-opacity:1"/>
<path class="bond-33 atom-32 atom-34" d="M 247.0,132.4 L 248.1,135.3" style="fill:none;fill-rule:evenodd;stroke:#FF0000;stroke-width:2.0px;stroke-linecap:butt;stroke-linejoin:miter;stroke-opacity:1"/>
<path class="bond-34 atom-32 atom-35" d="M 243.2,127.5 L 239.7,128.8" style="fill:none;fill-rule:evenodd;stroke:#FF7F00;stroke-width:2.0px;stroke-linecap:butt;stroke-linejoin:miter;stroke-opacity:1"/>
<path class="bond-34 atom-32 atom-35" d="M 239.7,128.8 L 236.3,130.1" style="fill:none;fill-rule:evenodd;stroke:#FF0000;stroke-width:2.0px;stroke-linecap:butt;stroke-linejoin:miter;stroke-opacity:1"/>
<path class="bond-35 atom-35 atom-36" d="M 231.6,129.1 L 228.3,126.4" style="fill:none;fill-rule:evenodd;stroke:#FF0000;stroke-width:2.0px;stroke-linecap:butt;stroke-linejoin:miter;stroke-opacity:1"/>
<path class="bond-35 atom-35 atom-36" d="M 228.3,126.4 L 224.9,123.6" style="fill:none;fill-rule:evenodd;stroke:#000000;stroke-width:2.0px;stroke-linecap:butt;stroke-linejoin:miter;stroke-opacity:1"/>
<path class="bond-36 atom-36 atom-37" d="M 224.9,123.6 L 214.0,127.7" style="fill:none;fill-rule:evenodd;stroke:#000000;stroke-width:2.0px;stroke-linecap:butt;stroke-linejoin:miter;stroke-opacity:1"/>
<path class="bond-37 atom-37 atom-38" d="M 214.0,127.7 L 212.8,132.1" style="fill:none;fill-rule:evenodd;stroke:#000000;stroke-width:2.0px;stroke-linecap:butt;stroke-linejoin:miter;stroke-opacity:1"/>
<path class="bond-37 atom-37 atom-38" d="M 212.8,132.1 L 211.6,136.5" style="fill:none;fill-rule:evenodd;stroke:#FF0000;stroke-width:2.0px;stroke-linecap:butt;stroke-linejoin:miter;stroke-opacity:1"/>
<path class="bond-38 atom-38 atom-39" d="M 208.5,139.1 L 203.9,139.3" style="fill:none;fill-rule:evenodd;stroke:#FF0000;stroke-width:2.0px;stroke-linecap:butt;stroke-linejoin:miter;stroke-opacity:1"/>
<path class="bond-38 atom-38 atom-39" d="M 203.9,139.3 L 199.2,139.6" style="fill:none;fill-rule:evenodd;stroke:#000000;stroke-width:2.0px;stroke-linecap:butt;stroke-linejoin:miter;stroke-opacity:1"/>
<path class="bond-39 atom-39 atom-40" d="M 199.2,139.6 L 196.8,143.2" style="fill:none;fill-rule:evenodd;stroke:#000000;stroke-width:2.0px;stroke-linecap:butt;stroke-linejoin:miter;stroke-opacity:1"/>
<path class="bond-39 atom-39 atom-40" d="M 196.8,143.2 L 194.4,146.8" style="fill:none;fill-rule:evenodd;stroke:#0000FF;stroke-width:2.0px;stroke-linecap:butt;stroke-linejoin:miter;stroke-opacity:1"/>
<path class="bond-40 atom-40 atom-41" d="M 190.8,149.4 L 185.9,149.6" style="fill:none;fill-rule:evenodd;stroke:#0000FF;stroke-width:2.0px;stroke-linecap:butt;stroke-linejoin:miter;stroke-opacity:1"/>
<path class="bond-40 atom-40 atom-41" d="M 185.9,149.6 L 181.1,149.9" style="fill:none;fill-rule:evenodd;stroke:#000000;stroke-width:2.0px;stroke-linecap:butt;stroke-linejoin:miter;stroke-opacity:1"/>
<path class="bond-41 atom-41 atom-42" d="M 181.1,149.9 L 179.9,154.3" style="fill:none;fill-rule:evenodd;stroke:#000000;stroke-width:2.0px;stroke-linecap:butt;stroke-linejoin:miter;stroke-opacity:1"/>
<path class="bond-41 atom-41 atom-42" d="M 179.9,154.3 L 178.7,158.6" style="fill:none;fill-rule:evenodd;stroke:#0000FF;stroke-width:2.0px;stroke-linecap:butt;stroke-linejoin:miter;stroke-opacity:1"/>
<path class="bond-41 atom-41 atom-42" d="M 182.4,151.5 L 181.4,155.3" style="fill:none;fill-rule:evenodd;stroke:#000000;stroke-width:2.0px;stroke-linecap:butt;stroke-linejoin:miter;stroke-opacity:1"/>
<path class="bond-41 atom-41 atom-42" d="M 181.4,155.3 L 180.3,159.1" style="fill:none;fill-rule:evenodd;stroke:#0000FF;stroke-width:2.0px;stroke-linecap:butt;stroke-linejoin:miter;stroke-opacity:1"/>
<path class="bond-42 atom-42 atom-43" d="M 180.0,162.5 L 183.8,165.0" style="fill:none;fill-rule:evenodd;stroke:#0000FF;stroke-width:2.0px;stroke-linecap:butt;stroke-linejoin:miter;stroke-opacity:1"/>
<path class="bond-42 atom-42 atom-43" d="M 183.8,165.0 L 187.7,167.6" style="fill:none;fill-rule:evenodd;stroke:#000000;stroke-width:2.0px;stroke-linecap:butt;stroke-linejoin:miter;stroke-opacity:1"/>
<path class="bond-43 atom-43 atom-44" d="M 187.7,167.6 L 189.5,179.1" style="fill:none;fill-rule:evenodd;stroke:#000000;stroke-width:2.0px;stroke-linecap:butt;stroke-linejoin:miter;stroke-opacity:1"/>
<path class="bond-43 atom-43 atom-44" d="M 189.6,168.3 L 191.1,177.9" style="fill:none;fill-rule:evenodd;stroke:#000000;stroke-width:2.0px;stroke-linecap:butt;stroke-linejoin:miter;stroke-opacity:1"/>
<path class="bond-44 atom-44 atom-45" d="M 189.5,179.1 L 185.9,182.0" style="fill:none;fill-rule:evenodd;stroke:#000000;stroke-width:2.0px;stroke-linecap:butt;stroke-linejoin:miter;stroke-opacity:1"/>
<path class="bond-44 atom-44 atom-45" d="M 185.9,182.0 L 182.4,184.9" style="fill:none;fill-rule:evenodd;stroke:#0000FF;stroke-width:2.0px;stroke-linecap:butt;stroke-linejoin:miter;stroke-opacity:1"/>
<path class="bond-45 atom-44 atom-46" d="M 189.5,179.1 L 194.0,180.9" style="fill:none;fill-rule:evenodd;stroke:#000000;stroke-width:2.0px;stroke-linecap:butt;stroke-linejoin:miter;stroke-opacity:1"/>
<path class="bond-45 atom-44 atom-46" d="M 194.0,180.9 L 198.4,182.6" style="fill:none;fill-rule:evenodd;stroke:#0000FF;stroke-width:2.0px;stroke-linecap:butt;stroke-linejoin:miter;stroke-opacity:1"/>
<path class="bond-46 atom-46 atom-47" d="M 202.4,181.8 L 206.0,179.0" style="fill:none;fill-rule:evenodd;stroke:#0000FF;stroke-width:2.0px;stroke-linecap:butt;stroke-linejoin:miter;stroke-opacity:1"/>
<path class="bond-46 atom-46 atom-47" d="M 206.0,179.0 L 209.5,176.1" style="fill:none;fill-rule:evenodd;stroke:#000000;stroke-width:2.0px;stroke-linecap:butt;stroke-linejoin:miter;stroke-opacity:1"/>
<path class="bond-46 atom-46 atom-47" d="M 201.3,180.5 L 204.5,177.9" style="fill:none;fill-rule:evenodd;stroke:#0000FF;stroke-width:2.0px;stroke-linecap:butt;stroke-linejoin:miter;stroke-opacity:1"/>
<path class="bond-46 atom-46 atom-47" d="M 204.5,177.9 L 207.7,175.4" style="fill:none;fill-rule:evenodd;stroke:#000000;stroke-width:2.0px;stroke-linecap:butt;stroke-linejoin:miter;stroke-opacity:1"/>
<path class="bond-47 atom-47 atom-48" d="M 209.5,176.1 L 208.8,171.6" style="fill:none;fill-rule:evenodd;stroke:#000000;stroke-width:2.0px;stroke-linecap:butt;stroke-linejoin:miter;stroke-opacity:1"/>
<path class="bond-47 atom-47 atom-48" d="M 208.8,171.6 L 208.2,167.0" style="fill:none;fill-rule:evenodd;stroke:#0000FF;stroke-width:2.0px;stroke-linecap:butt;stroke-linejoin:miter;stroke-opacity:1"/>
<path class="bond-48 atom-48 atom-49" d="M 205.8,163.8 L 201.3,162.0" style="fill:none;fill-rule:evenodd;stroke:#0000FF;stroke-width:2.0px;stroke-linecap:butt;stroke-linejoin:miter;stroke-opacity:1"/>
<path class="bond-48 atom-48 atom-49" d="M 201.3,162.0 L 196.9,160.3" style="fill:none;fill-rule:evenodd;stroke:#000000;stroke-width:2.0px;stroke-linecap:butt;stroke-linejoin:miter;stroke-opacity:1"/>
<path class="bond-48 atom-48 atom-49" d="M 205.1,165.4 L 201.2,163.8" style="fill:none;fill-rule:evenodd;stroke:#0000FF;stroke-width:2.0px;stroke-linecap:butt;stroke-linejoin:miter;stroke-opacity:1"/>
<path class="bond-48 atom-48 atom-49" d="M 201.2,163.8 L 197.2,162.3" style="fill:none;fill-rule:evenodd;stroke:#000000;stroke-width:2.0px;stroke-linecap:butt;stroke-linejoin:miter;stroke-opacity:1"/>
<path class="bond-49 atom-39 atom-50" d="M 199.2,139.6 L 195.1,128.6" style="fill:none;fill-rule:evenodd;stroke:#000000;stroke-width:2.0px;stroke-linecap:butt;stroke-linejoin:miter;stroke-opacity:1"/>
<path class="bond-50 atom-50 atom-51" d="M 195.1,128.6 L 190.6,127.4" style="fill:none;fill-rule:evenodd;stroke:#000000;stroke-width:2.0px;stroke-linecap:butt;stroke-linejoin:miter;stroke-opacity:1"/>
<path class="bond-50 atom-50 atom-51" d="M 190.6,127.4 L 186.1,126.1" style="fill:none;fill-rule:evenodd;stroke:#FF0000;stroke-width:2.0px;stroke-linecap:butt;stroke-linejoin:miter;stroke-opacity:1"/>
<path class="bond-51 atom-50 atom-52" d="M 195.1,128.6 L 204.2,121.3" style="fill:none;fill-rule:evenodd;stroke:#000000;stroke-width:2.0px;stroke-linecap:butt;stroke-linejoin:miter;stroke-opacity:1"/>
<path class="bond-52 atom-52 atom-53" d="M 204.2,121.3 L 204.0,116.8" style="fill:none;fill-rule:evenodd;stroke:#000000;stroke-width:2.0px;stroke-linecap:butt;stroke-linejoin:miter;stroke-opacity:1"/>
<path class="bond-52 atom-52 atom-53" d="M 204.0,116.8 L 203.8,112.2" style="fill:none;fill-rule:evenodd;stroke:#FF0000;stroke-width:2.0px;stroke-linecap:butt;stroke-linejoin:miter;stroke-opacity:1"/>
<path class="bond-53 atom-53 atom-54" d="M 206.0,108.1 L 208.9,106.3" style="fill:none;fill-rule:evenodd;stroke:#FF0000;stroke-width:2.0px;stroke-linecap:butt;stroke-linejoin:miter;stroke-opacity:1"/>
<path class="bond-53 atom-53 atom-54" d="M 208.9,106.3 L 211.8,104.4" style="fill:none;fill-rule:evenodd;stroke:#FF7F00;stroke-width:2.0px;stroke-linecap:butt;stroke-linejoin:miter;stroke-opacity:1"/>
<path class="bond-54 atom-54 atom-55" d="M 212.6,100.3 L 211.1,97.9" style="fill:none;fill-rule:evenodd;stroke:#FF7F00;stroke-width:2.0px;stroke-linecap:butt;stroke-linejoin:miter;stroke-opacity:1"/>
<path class="bond-54 atom-54 atom-55" d="M 211.1,97.9 L 209.6,95.6" style="fill:none;fill-rule:evenodd;stroke:#FF0000;stroke-width:2.0px;stroke-linecap:butt;stroke-linejoin:miter;stroke-opacity:1"/>
<path class="bond-54 atom-54 atom-55" d="M 211.2,101.3 L 209.6,98.9" style="fill:none;fill-rule:evenodd;stroke:#FF7F00;stroke-width:2.0px;stroke-linecap:butt;stroke-linejoin:miter;stroke-opacity:1"/>
<path class="bond-54 atom-54 atom-55" d="M 209.6,98.9 L 208.1,96.5" style="fill:none;fill-rule:evenodd;stroke:#FF0000;stroke-width:2.0px;stroke-linecap:butt;stroke-linejoin:miter;stroke-opacity:1"/>
<path class="bond-55 atom-54 atom-56" d="M 214.7,105.8 L 216.0,108.6" style="fill:none;fill-rule:evenodd;stroke:#FF7F00;stroke-width:2.0px;stroke-linecap:butt;stroke-linejoin:miter;stroke-opacity:1"/>
<path class="bond-55 atom-54 atom-56" d="M 216.0,108.6 L 217.3,111.3" style="fill:none;fill-rule:evenodd;stroke:#FF0000;stroke-width:2.0px;stroke-linecap:butt;stroke-linejoin:miter;stroke-opacity:1"/>
<path class="bond-56 atom-54 atom-57" d="M 215.2,102.2 L 218.1,100.3" style="fill:none;fill-rule:evenodd;stroke:#FF7F00;stroke-width:2.0px;stroke-linecap:butt;stroke-linejoin:miter;stroke-opacity:1"/>
<path class="bond-56 atom-54 atom-57" d="M 218.1,100.3 L 221.0,98.5" style="fill:none;fill-rule:evenodd;stroke:#FF0000;stroke-width:2.0px;stroke-linecap:butt;stroke-linejoin:miter;stroke-opacity:1"/>
<path class="bond-57 atom-26 atom-58" d="M 250.6,92.3 L 239.7,96.4" style="fill:none;fill-rule:evenodd;stroke:#000000;stroke-width:2.0px;stroke-linecap:butt;stroke-linejoin:miter;stroke-opacity:1"/>
<path class="bond-58 atom-58 atom-59" d="M 239.7,96.4 L 238.1,92.2" style="fill:none;fill-rule:evenodd;stroke:#000000;stroke-width:2.0px;stroke-linecap:butt;stroke-linejoin:miter;stroke-opacity:1"/>
<path class="bond-58 atom-58 atom-59" d="M 238.1,92.2 L 236.5,88.0" style="fill:none;fill-rule:evenodd;stroke:#FF0000;stroke-width:2.0px;stroke-linecap:butt;stroke-linejoin:miter;stroke-opacity:1"/>
<path class="bond-59 atom-58 atom-60" d="M 239.7,96.4 L 241.7,100.3" style="fill:none;fill-rule:evenodd;stroke:#000000;stroke-width:2.0px;stroke-linecap:butt;stroke-linejoin:miter;stroke-opacity:1"/>
<path class="bond-59 atom-58 atom-60" d="M 241.7,100.3 L 243.8,104.2" style="fill:none;fill-rule:evenodd;stroke:#FF0000;stroke-width:2.0px;stroke-linecap:butt;stroke-linejoin:miter;stroke-opacity:1"/>
<path class="bond-60 atom-58 atom-61" d="M 239.7,96.4 L 228.7,100.5" style="fill:none;fill-rule:evenodd;stroke:#000000;stroke-width:2.0px;stroke-linecap:butt;stroke-linejoin:miter;stroke-opacity:1"/>
<path class="bond-61 atom-61 atom-62" d="M 228.7,100.5 L 227.1,96.3" style="fill:none;fill-rule:evenodd;stroke:#000000;stroke-width:2.0px;stroke-linecap:butt;stroke-linejoin:miter;stroke-opacity:1"/>
<path class="bond-61 atom-61 atom-62" d="M 227.1,96.3 L 225.6,92.2" style="fill:none;fill-rule:evenodd;stroke:#FF0000;stroke-width:2.0px;stroke-linecap:butt;stroke-linejoin:miter;stroke-opacity:1"/>
<path class="bond-62 atom-61 atom-63" d="M 228.7,100.5 L 232.8,111.5" style="fill:none;fill-rule:evenodd;stroke:#000000;stroke-width:2.0px;stroke-linecap:butt;stroke-linejoin:miter;stroke-opacity:1"/>
<path class="bond-63 atom-63 atom-64" d="M 232.5,110.6 L 230.5,112.5" style="fill:none;fill-rule:evenodd;stroke:#000000;stroke-width:2.0px;stroke-linecap:butt;stroke-linejoin:miter;stroke-opacity:1"/>
<path class="bond-63 atom-63 atom-64" d="M 230.5,112.5 L 228.4,114.5" style="fill:none;fill-rule:evenodd;stroke:#FF0000;stroke-width:2.0px;stroke-linecap:butt;stroke-linejoin:miter;stroke-opacity:1"/>
<path class="bond-63 atom-63 atom-64" d="M 233.9,111.6 L 231.7,113.8" style="fill:none;fill-rule:evenodd;stroke:#000000;stroke-width:2.0px;stroke-linecap:butt;stroke-linejoin:miter;stroke-opacity:1"/>
<path class="bond-63 atom-63 atom-64" d="M 231.7,113.8 L 229.6,115.7" style="fill:none;fill-rule:evenodd;stroke:#FF0000;stroke-width:2.0px;stroke-linecap:butt;stroke-linejoin:miter;stroke-opacity:1"/>
<path class="bond-64 atom-63 atom-65" d="M 232.8,111.5 L 237.6,112.2" style="fill:none;fill-rule:evenodd;stroke:#000000;stroke-width:2.0px;stroke-linecap:butt;stroke-linejoin:miter;stroke-opacity:1"/>
<path class="bond-64 atom-63 atom-65" d="M 237.6,112.2 L 242.4,113.0" style="fill:none;fill-rule:evenodd;stroke:#0000FF;stroke-width:2.0px;stroke-linecap:butt;stroke-linejoin:miter;stroke-opacity:1"/>
<path class="bond-65 atom-65 atom-66" d="M 245.3,115.9 L 246.9,120.1" style="fill:none;fill-rule:evenodd;stroke:#0000FF;stroke-width:2.0px;stroke-linecap:butt;stroke-linejoin:miter;stroke-opacity:1"/>
<path class="bond-65 atom-65 atom-66" d="M 246.9,120.1 L 248.5,124.3" style="fill:none;fill-rule:evenodd;stroke:#000000;stroke-width:2.0px;stroke-linecap:butt;stroke-linejoin:miter;stroke-opacity:1"/>
<path class="bond-66 atom-66 atom-67" d="M 248.5,124.3 L 260.1,126.2" style="fill:none;fill-rule:evenodd;stroke:#000000;stroke-width:2.0px;stroke-linecap:butt;stroke-linejoin:miter;stroke-opacity:1"/>
<path class="bond-67 atom-67 atom-68" d="M 260.1,126.2 L 264.2,137.2" style="fill:none;fill-rule:evenodd;stroke:#000000;stroke-width:2.0px;stroke-linecap:butt;stroke-linejoin:miter;stroke-opacity:1"/>
<path class="bond-68 atom-68 atom-69" d="M 263.8,136.2 L 261.0,139.7" style="fill:none;fill-rule:evenodd;stroke:#000000;stroke-width:2.0px;stroke-linecap:butt;stroke-linejoin:miter;stroke-opacity:1"/>
<path class="bond-68 atom-68 atom-69" d="M 261.0,139.7 L 258.2,143.1" style="fill:none;fill-rule:evenodd;stroke:#FF0000;stroke-width:2.0px;stroke-linecap:butt;stroke-linejoin:miter;stroke-opacity:1"/>
<path class="bond-68 atom-68 atom-69" d="M 265.2,137.3 L 262.3,140.8" style="fill:none;fill-rule:evenodd;stroke:#000000;stroke-width:2.0px;stroke-linecap:butt;stroke-linejoin:miter;stroke-opacity:1"/>
<path class="bond-68 atom-68 atom-69" d="M 262.3,140.8 L 259.5,144.2" style="fill:none;fill-rule:evenodd;stroke:#FF0000;stroke-width:2.0px;stroke-linecap:butt;stroke-linejoin:miter;stroke-opacity:1"/>
<path class="bond-69 atom-68 atom-70" d="M 264.2,137.2 L 269.0,137.9" style="fill:none;fill-rule:evenodd;stroke:#000000;stroke-width:2.0px;stroke-linecap:butt;stroke-linejoin:miter;stroke-opacity:1"/>
<path class="bond-69 atom-68 atom-70" d="M 269.0,137.9 L 273.7,138.7" style="fill:none;fill-rule:evenodd;stroke:#0000FF;stroke-width:2.0px;stroke-linecap:butt;stroke-linejoin:miter;stroke-opacity:1"/>
<path class="bond-70 atom-70 atom-71" d="M 276.7,141.6 L 278.3,145.8" style="fill:none;fill-rule:evenodd;stroke:#0000FF;stroke-width:2.0px;stroke-linecap:butt;stroke-linejoin:miter;stroke-opacity:1"/>
<path class="bond-70 atom-70 atom-71" d="M 278.3,145.8 L 279.9,150.0" style="fill:none;fill-rule:evenodd;stroke:#000000;stroke-width:2.0px;stroke-linecap:butt;stroke-linejoin:miter;stroke-opacity:1"/>
<path class="bond-71 atom-71 atom-72" d="M 279.9,150.0 L 291.4,151.9" style="fill:none;fill-rule:evenodd;stroke:#000000;stroke-width:2.0px;stroke-linecap:butt;stroke-linejoin:miter;stroke-opacity:1"/>
<path class="bond-72 atom-72 atom-73" d="M 291.4,151.9 L 293.0,156.1" style="fill:none;fill-rule:evenodd;stroke:#000000;stroke-width:2.0px;stroke-linecap:butt;stroke-linejoin:miter;stroke-opacity:1"/>
<path class="bond-72 atom-72 atom-73" d="M 293.0,156.1 L 294.6,160.3" style="fill:none;fill-rule:evenodd;stroke:#CCCC00;stroke-width:2.0px;stroke-linecap:butt;stroke-linejoin:miter;stroke-opacity:1"/>
<path class="bond-73 atom-73 atom-74" d="M 297.3,163.1 L 302.2,163.9" style="fill:none;fill-rule:evenodd;stroke:#CCCC00;stroke-width:2.0px;stroke-linecap:butt;stroke-linejoin:miter;stroke-opacity:1"/>
<path class="bond-73 atom-73 atom-74" d="M 302.2,163.9 L 307.1,164.7" style="fill:none;fill-rule:evenodd;stroke:#000000;stroke-width:2.0px;stroke-linecap:butt;stroke-linejoin:miter;stroke-opacity:1"/>
<path class="bond-74 atom-74 atom-75" d="M 307.1,164.7 L 311.2,175.7" style="fill:none;fill-rule:evenodd;stroke:#000000;stroke-width:2.0px;stroke-linecap:butt;stroke-linejoin:miter;stroke-opacity:1"/>
<path class="bond-75 atom-74 atom-76" d="M 307.4,165.7 L 310.2,162.3" style="fill:none;fill-rule:evenodd;stroke:#000000;stroke-width:2.0px;stroke-linecap:butt;stroke-linejoin:miter;stroke-opacity:1"/>
<path class="bond-75 atom-74 atom-76" d="M 310.2,162.3 L 313.0,158.8" style="fill:none;fill-rule:evenodd;stroke:#FF0000;stroke-width:2.0px;stroke-linecap:butt;stroke-linejoin:miter;stroke-opacity:1"/>
<path class="bond-75 atom-74 atom-76" d="M 306.1,164.6 L 308.9,161.2" style="fill:none;fill-rule:evenodd;stroke:#000000;stroke-width:2.0px;stroke-linecap:butt;stroke-linejoin:miter;stroke-opacity:1"/>
<path class="bond-75 atom-74 atom-76" d="M 308.9,161.2 L 311.7,157.7" style="fill:none;fill-rule:evenodd;stroke:#FF0000;stroke-width:2.0px;stroke-linecap:butt;stroke-linejoin:miter;stroke-opacity:1"/>
<path class="bond-76 atom-61 atom-77" d="M 228.7,100.5 L 217.8,104.6" style="fill:none;fill-rule:evenodd;stroke:#000000;stroke-width:2.0px;stroke-linecap:butt;stroke-linejoin:miter;stroke-opacity:1"/>
<path class="bond-77 atom-77 atom-78" d="M 217.8,104.6 L 213.6,93.7" style="fill:none;fill-rule:evenodd;stroke:#000000;stroke-width:2.0px;stroke-linecap:butt;stroke-linejoin:miter;stroke-opacity:1"/>
<path class="bond-78 atom-77 atom-79" d="M 217.8,104.6 L 221.9,115.6" style="fill:none;fill-rule:evenodd;stroke:#000000;stroke-width:2.0px;stroke-linecap:butt;stroke-linejoin:miter;stroke-opacity:1"/>
<path class="bond-79 atom-77 atom-80" d="M 217.8,104.6 L 206.8,108.8" style="fill:none;fill-rule:evenodd;stroke:#000000;stroke-width:2.0px;stroke-linecap:butt;stroke-linejoin:miter;stroke-opacity:1"/>
<path class="bond-80 atom-80 atom-81" d="M 206.8,108.8 L 203.5,106.0" style="fill:none;fill-rule:evenodd;stroke:#000000;stroke-width:2.0px;stroke-linecap:butt;stroke-linejoin:miter;stroke-opacity:1"/>
<path class="bond-80 atom-80 atom-81" d="M 203.5,106.0 L 200.1,103.3" style="fill:none;fill-rule:evenodd;stroke:#FF0000;stroke-width:2.0px;stroke-linecap:butt;stroke-linejoin:miter;stroke-opacity:1"/>
<path class="bond-81 atom-81 atom-82" d="M 195.4,102.2 L 192.0,103.5" style="fill:none;fill-rule:evenodd;stroke:#FF0000;stroke-width:2.0px;stroke-linecap:butt;stroke-linejoin:miter;stroke-opacity:1"/>
<path class="bond-81 atom-81 atom-82" d="M 192.0,103.5 L 188.6,104.8" style="fill:none;fill-rule:evenodd;stroke:#FF7F00;stroke-width:2.0px;stroke-linecap:butt;stroke-linejoin:miter;stroke-opacity:1"/>
<path class="bond-82 atom-82 atom-83" d="M 186.9,108.3 L 188.1,111.2" style="fill:none;fill-rule:evenodd;stroke:#FF7F00;stroke-width:2.0px;stroke-linecap:butt;stroke-linejoin:miter;stroke-opacity:1"/>
<path class="bond-82 atom-82 atom-83" d="M 188.1,111.2 L 189.2,114.2" style="fill:none;fill-rule:evenodd;stroke:#FF0000;stroke-width:2.0px;stroke-linecap:butt;stroke-linejoin:miter;stroke-opacity:1"/>
<path class="bond-82 atom-82 atom-83" d="M 188.6,107.7 L 189.7,110.6" style="fill:none;fill-rule:evenodd;stroke:#FF7F00;stroke-width:2.0px;stroke-linecap:butt;stroke-linejoin:miter;stroke-opacity:1"/>
<path class="bond-82 atom-82 atom-83" d="M 189.7,110.6 L 190.8,113.6" style="fill:none;fill-rule:evenodd;stroke:#FF0000;stroke-width:2.0px;stroke-linecap:butt;stroke-linejoin:miter;stroke-opacity:1"/>
<path class="bond-83 atom-82 atom-84" d="M 185.9,103.0 L 184.8,100.0" style="fill:none;fill-rule:evenodd;stroke:#FF7F00;stroke-width:2.0px;stroke-linecap:butt;stroke-linejoin:miter;stroke-opacity:1"/>
<path class="bond-83 atom-82 atom-84" d="M 184.8,100.0 L 183.7,97.1" style="fill:none;fill-rule:evenodd;stroke:#FF0000;stroke-width:2.0px;stroke-linecap:butt;stroke-linejoin:miter;stroke-opacity:1"/>
<path class="bond-84 atom-82 atom-85" d="M 185.1,106.1 L 181.6,107.4" style="fill:none;fill-rule:evenodd;stroke:#FF7F00;stroke-width:2.0px;stroke-linecap:butt;stroke-linejoin:miter;stroke-opacity:1"/>
<path class="bond-84 atom-82 atom-85" d="M 181.6,107.4 L 178.2,108.7" style="fill:none;fill-rule:evenodd;stroke:#FF0000;stroke-width:2.0px;stroke-linecap:butt;stroke-linejoin:miter;stroke-opacity:1"/>
<path class="bond-85 atom-85 atom-86" d="M 173.5,107.7 L 171.1,105.6" style="fill:none;fill-rule:evenodd;stroke:#FF0000;stroke-width:2.0px;stroke-linecap:butt;stroke-linejoin:miter;stroke-opacity:1"/>
<path class="bond-85 atom-85 atom-86" d="M 171.1,105.6 L 168.6,103.6" style="fill:none;fill-rule:evenodd;stroke:#FF7F00;stroke-width:2.0px;stroke-linecap:butt;stroke-linejoin:miter;stroke-opacity:1"/>
<path class="bond-86 atom-86 atom-87" d="M 164.4,103.8 L 162.6,106.0" style="fill:none;fill-rule:evenodd;stroke:#FF7F00;stroke-width:2.0px;stroke-linecap:butt;stroke-linejoin:miter;stroke-opacity:1"/>
<path class="bond-86 atom-86 atom-87" d="M 162.6,106.0 L 160.8,108.1" style="fill:none;fill-rule:evenodd;stroke:#FF0000;stroke-width:2.0px;stroke-linecap:butt;stroke-linejoin:miter;stroke-opacity:1"/>
<path class="bond-86 atom-86 atom-87" d="M 165.8,104.9 L 164.0,107.1" style="fill:none;fill-rule:evenodd;stroke:#FF7F00;stroke-width:2.0px;stroke-linecap:butt;stroke-linejoin:miter;stroke-opacity:1"/>
<path class="bond-86 atom-86 atom-87" d="M 164.0,107.1 L 162.2,109.3" style="fill:none;fill-rule:evenodd;stroke:#FF0000;stroke-width:2.0px;stroke-linecap:butt;stroke-linejoin:miter;stroke-opacity:1"/>
<path class="bond-87 atom-86 atom-88" d="M 168.6,100.1 L 170.3,97.9" style="fill:none;fill-rule:evenodd;stroke:#FF7F00;stroke-width:2.0px;stroke-linecap:butt;stroke-linejoin:miter;stroke-opacity:1"/>
<path class="bond-87 atom-86 atom-88" d="M 170.3,97.9 L 172.1,95.7" style="fill:none;fill-rule:evenodd;stroke:#FF0000;stroke-width:2.0px;stroke-linecap:butt;stroke-linejoin:miter;stroke-opacity:1"/>
<path class="bond-88 atom-86 atom-89" d="M 165.1,100.8 L 162.6,98.7" style="fill:none;fill-rule:evenodd;stroke:#FF7F00;stroke-width:2.0px;stroke-linecap:butt;stroke-linejoin:miter;stroke-opacity:1"/>
<path class="bond-88 atom-86 atom-89" d="M 162.6,98.7 L 160.1,96.7" style="fill:none;fill-rule:evenodd;stroke:#FF0000;stroke-width:2.0px;stroke-linecap:butt;stroke-linejoin:miter;stroke-opacity:1"/>
<path class="bond-89 atom-89 atom-90" d="M 158.2,92.2 L 158.9,87.7" style="fill:none;fill-rule:evenodd;stroke:#FF0000;stroke-width:2.0px;stroke-linecap:butt;stroke-linejoin:miter;stroke-opacity:1"/>
<path class="bond-89 atom-89 atom-90" d="M 158.9,87.7 L 159.7,83.2" style="fill:none;fill-rule:evenodd;stroke:#000000;stroke-width:2.0px;stroke-linecap:butt;stroke-linejoin:miter;stroke-opacity:1"/>
<path class="bond-90 atom-90 atom-91" d="M 159.7,83.2 L 150.6,75.8" style="fill:none;fill-rule:evenodd;stroke:#000000;stroke-width:2.0px;stroke-linecap:butt;stroke-linejoin:miter;stroke-opacity:1"/>
<path class="bond-91 atom-91 atom-92" d="M 150.6,75.8 L 146.1,77.0" style="fill:none;fill-rule:evenodd;stroke:#000000;stroke-width:2.0px;stroke-linecap:butt;stroke-linejoin:miter;stroke-opacity:1"/>
<path class="bond-91 atom-91 atom-92" d="M 146.1,77.0 L 141.6,78.2" style="fill:none;fill-rule:evenodd;stroke:#FF0000;stroke-width:2.0px;stroke-linecap:butt;stroke-linejoin:miter;stroke-opacity:1"/>
<path class="bond-92 atom-92 atom-93" d="M 137.7,76.2 L 135.3,72.6" style="fill:none;fill-rule:evenodd;stroke:#FF0000;stroke-width:2.0px;stroke-linecap:butt;stroke-linejoin:miter;stroke-opacity:1"/>
<path class="bond-92 atom-92 atom-93" d="M 135.3,72.6 L 133.0,68.9" style="fill:none;fill-rule:evenodd;stroke:#000000;stroke-width:2.0px;stroke-linecap:butt;stroke-linejoin:miter;stroke-opacity:1"/>
<path class="bond-93 atom-93 atom-94" d="M 133.0,68.9 L 128.2,68.6" style="fill:none;fill-rule:evenodd;stroke:#000000;stroke-width:2.0px;stroke-linecap:butt;stroke-linejoin:miter;stroke-opacity:1"/>
<path class="bond-93 atom-93 atom-94" d="M 128.2,68.6 L 123.3,68.3" style="fill:none;fill-rule:evenodd;stroke:#0000FF;stroke-width:2.0px;stroke-linecap:butt;stroke-linejoin:miter;stroke-opacity:1"/>
<path class="bond-94 atom-94 atom-95" d="M 119.3,70.7 L 116.6,74.0" style="fill:none;fill-rule:evenodd;stroke:#0000FF;stroke-width:2.0px;stroke-linecap:butt;stroke-linejoin:miter;stroke-opacity:1"/>
<path class="bond-94 atom-94 atom-95" d="M 116.6,74.0 L 113.9,77.3" style="fill:none;fill-rule:evenodd;stroke:#000000;stroke-width:2.0px;stroke-linecap:butt;stroke-linejoin:miter;stroke-opacity:1"/>
<path class="bond-95 atom-95 atom-96" d="M 113.9,77.3 L 109.4,75.5" style="fill:none;fill-rule:evenodd;stroke:#000000;stroke-width:2.0px;stroke-linecap:butt;stroke-linejoin:miter;stroke-opacity:1"/>
<path class="bond-95 atom-95 atom-96" d="M 109.4,75.5 L 105.0,73.8" style="fill:none;fill-rule:evenodd;stroke:#0000FF;stroke-width:2.0px;stroke-linecap:butt;stroke-linejoin:miter;stroke-opacity:1"/>
<path class="bond-95 atom-95 atom-96" d="M 113.4,75.2 L 109.5,73.7" style="fill:none;fill-rule:evenodd;stroke:#000000;stroke-width:2.0px;stroke-linecap:butt;stroke-linejoin:miter;stroke-opacity:1"/>
<path class="bond-95 atom-95 atom-96" d="M 109.5,73.7 L 105.6,72.2" style="fill:none;fill-rule:evenodd;stroke:#0000FF;stroke-width:2.0px;stroke-linecap:butt;stroke-linejoin:miter;stroke-opacity:1"/>
<path class="bond-96 atom-96 atom-97" d="M 103.1,70.5 L 103.4,65.9" style="fill:none;fill-rule:evenodd;stroke:#0000FF;stroke-width:2.0px;stroke-linecap:butt;stroke-linejoin:miter;stroke-opacity:1"/>
<path class="bond-96 atom-96 atom-97" d="M 103.4,65.9 L 103.7,61.3" style="fill:none;fill-rule:evenodd;stroke:#000000;stroke-width:2.0px;stroke-linecap:butt;stroke-linejoin:miter;stroke-opacity:1"/>
<path class="bond-97 atom-97 atom-98" d="M 103.7,61.3 L 95.5,53.0" style="fill:none;fill-rule:evenodd;stroke:#000000;stroke-width:2.0px;stroke-linecap:butt;stroke-linejoin:miter;stroke-opacity:1"/>
<path class="bond-97 atom-97 atom-98" d="M 104.2,59.4 L 97.4,52.5" style="fill:none;fill-rule:evenodd;stroke:#000000;stroke-width:2.0px;stroke-linecap:butt;stroke-linejoin:miter;stroke-opacity:1"/>
<path class="bond-98 atom-98 atom-99" d="M 95.5,53.0 L 90.8,54.2" style="fill:none;fill-rule:evenodd;stroke:#000000;stroke-width:2.0px;stroke-linecap:butt;stroke-linejoin:miter;stroke-opacity:1"/>
<path class="bond-98 atom-98 atom-99" d="M 90.8,54.2 L 86.1,55.5" style="fill:none;fill-rule:evenodd;stroke:#0000FF;stroke-width:2.0px;stroke-linecap:butt;stroke-linejoin:miter;stroke-opacity:1"/>
<path class="bond-99 atom-98 atom-100" d="M 95.5,53.0 L 96.7,48.6" style="fill:none;fill-rule:evenodd;stroke:#000000;stroke-width:2.0px;stroke-linecap:butt;stroke-linejoin:miter;stroke-opacity:1"/>
<path class="bond-99 atom-98 atom-100" d="M 96.7,48.6 L 97.9,44.2" style="fill:none;fill-rule:evenodd;stroke:#0000FF;stroke-width:2.0px;stroke-linecap:butt;stroke-linejoin:miter;stroke-opacity:1"/>
<path class="bond-100 atom-100 atom-101" d="M 100.5,41.2 L 105.2,40.0" style="fill:none;fill-rule:evenodd;stroke:#0000FF;stroke-width:2.0px;stroke-linecap:butt;stroke-linejoin:miter;stroke-opacity:1"/>
<path class="bond-100 atom-100 atom-101" d="M 105.2,40.0 L 109.9,38.8" style="fill:none;fill-rule:evenodd;stroke:#000000;stroke-width:2.0px;stroke-linecap:butt;stroke-linejoin:miter;stroke-opacity:1"/>
<path class="bond-100 atom-100 atom-101" d="M 101.0,42.9 L 105.2,41.8" style="fill:none;fill-rule:evenodd;stroke:#0000FF;stroke-width:2.0px;stroke-linecap:butt;stroke-linejoin:miter;stroke-opacity:1"/>
<path class="bond-100 atom-100 atom-101" d="M 105.2,41.8 L 109.3,40.7" style="fill:none;fill-rule:evenodd;stroke:#000000;stroke-width:2.0px;stroke-linecap:butt;stroke-linejoin:miter;stroke-opacity:1"/>
<path class="bond-101 atom-101 atom-102" d="M 109.9,38.8 L 113.0,41.9" style="fill:none;fill-rule:evenodd;stroke:#000000;stroke-width:2.0px;stroke-linecap:butt;stroke-linejoin:miter;stroke-opacity:1"/>
<path class="bond-101 atom-101 atom-102" d="M 113.0,41.9 L 116.1,45.1" style="fill:none;fill-rule:evenodd;stroke:#0000FF;stroke-width:2.0px;stroke-linecap:butt;stroke-linejoin:miter;stroke-opacity:1"/>
<path class="bond-102 atom-102 atom-103" d="M 117.4,49.6 L 116.2,54.0" style="fill:none;fill-rule:evenodd;stroke:#0000FF;stroke-width:2.0px;stroke-linecap:butt;stroke-linejoin:miter;stroke-opacity:1"/>
<path class="bond-102 atom-102 atom-103" d="M 116.2,54.0 L 115.0,58.4" style="fill:none;fill-rule:evenodd;stroke:#000000;stroke-width:2.0px;stroke-linecap:butt;stroke-linejoin:miter;stroke-opacity:1"/>
<path class="bond-102 atom-102 atom-103" d="M 115.7,49.1 L 114.7,53.0" style="fill:none;fill-rule:evenodd;stroke:#0000FF;stroke-width:2.0px;stroke-linecap:butt;stroke-linejoin:miter;stroke-opacity:1"/>
<path class="bond-102 atom-102 atom-103" d="M 114.7,53.0 L 113.6,57.0" style="fill:none;fill-rule:evenodd;stroke:#000000;stroke-width:2.0px;stroke-linecap:butt;stroke-linejoin:miter;stroke-opacity:1"/>
<path class="bond-103 atom-93 atom-104" d="M 133.0,68.9 L 140.4,59.9" style="fill:none;fill-rule:evenodd;stroke:#000000;stroke-width:2.0px;stroke-linecap:butt;stroke-linejoin:miter;stroke-opacity:1"/>
<path class="bond-104 atom-104 atom-105" d="M 140.4,59.9 L 139.3,55.5" style="fill:none;fill-rule:evenodd;stroke:#000000;stroke-width:2.0px;stroke-linecap:butt;stroke-linejoin:miter;stroke-opacity:1"/>
<path class="bond-104 atom-104 atom-105" d="M 139.3,55.5 L 138.1,51.1" style="fill:none;fill-rule:evenodd;stroke:#FF0000;stroke-width:2.0px;stroke-linecap:butt;stroke-linejoin:miter;stroke-opacity:1"/>
<path class="bond-105 atom-104 atom-106" d="M 140.4,59.9 L 151.3,64.1" style="fill:none;fill-rule:evenodd;stroke:#000000;stroke-width:2.0px;stroke-linecap:butt;stroke-linejoin:miter;stroke-opacity:1"/>
<path class="bond-106 atom-106 atom-107" d="M 151.3,64.1 L 155.1,61.7" style="fill:none;fill-rule:evenodd;stroke:#000000;stroke-width:2.0px;stroke-linecap:butt;stroke-linejoin:miter;stroke-opacity:1"/>
<path class="bond-106 atom-106 atom-107" d="M 155.1,61.7 L 158.8,59.3" style="fill:none;fill-rule:evenodd;stroke:#FF0000;stroke-width:2.0px;stroke-linecap:butt;stroke-linejoin:miter;stroke-opacity:1"/>
<path class="bond-107 atom-107 atom-108" d="M 163.5,59.0 L 166.7,60.7" style="fill:none;fill-rule:evenodd;stroke:#FF0000;stroke-width:2.0px;stroke-linecap:butt;stroke-linejoin:miter;stroke-opacity:1"/>
<path class="bond-107 atom-107 atom-108" d="M 166.7,60.7 L 169.8,62.3" style="fill:none;fill-rule:evenodd;stroke:#FF7F00;stroke-width:2.0px;stroke-linecap:butt;stroke-linejoin:miter;stroke-opacity:1"/>
<path class="bond-108 atom-108 atom-109" d="M 173.6,61.1 L 175.0,58.4" style="fill:none;fill-rule:evenodd;stroke:#FF7F00;stroke-width:2.0px;stroke-linecap:butt;stroke-linejoin:miter;stroke-opacity:1"/>
<path class="bond-108 atom-108 atom-109" d="M 175.0,58.4 L 176.4,55.8" style="fill:none;fill-rule:evenodd;stroke:#FF0000;stroke-width:2.0px;stroke-linecap:butt;stroke-linejoin:miter;stroke-opacity:1"/>
<path class="bond-108 atom-108 atom-109" d="M 172.1,60.3 L 173.4,57.6" style="fill:none;fill-rule:evenodd;stroke:#FF7F00;stroke-width:2.0px;stroke-linecap:butt;stroke-linejoin:miter;stroke-opacity:1"/>
<path class="bond-108 atom-108 atom-109" d="M 173.4,57.6 L 174.8,55.0" style="fill:none;fill-rule:evenodd;stroke:#FF0000;stroke-width:2.0px;stroke-linecap:butt;stroke-linejoin:miter;stroke-opacity:1"/>
<path class="bond-109 atom-108 atom-110" d="M 170.3,65.7 L 168.9,68.4" style="fill:none;fill-rule:evenodd;stroke:#FF7F00;stroke-width:2.0px;stroke-linecap:butt;stroke-linejoin:miter;stroke-opacity:1"/>
<path class="bond-109 atom-108 atom-110" d="M 168.9,68.4 L 167.5,71.0" style="fill:none;fill-rule:evenodd;stroke:#FF0000;stroke-width:2.0px;stroke-linecap:butt;stroke-linejoin:miter;stroke-opacity:1"/>
<path class="bond-110 atom-108 atom-111" d="M 173.3,64.1 L 176.5,65.7" style="fill:none;fill-rule:evenodd;stroke:#FF7F00;stroke-width:2.0px;stroke-linecap:butt;stroke-linejoin:miter;stroke-opacity:1"/>
<path class="bond-110 atom-108 atom-111" d="M 176.5,65.7 L 179.6,67.4" style="fill:none;fill-rule:evenodd;stroke:#FF0000;stroke-width:2.0px;stroke-linecap:butt;stroke-linejoin:miter;stroke-opacity:1"/>
<path class="bond-111 atom-1 atom-112" d="M 251.1,27.1 L 262.0,23.0" style="fill:none;fill-rule:evenodd;stroke:#000000;stroke-width:2.0px;stroke-linecap:butt;stroke-linejoin:miter;stroke-opacity:1"/>
<path class="bond-112 atom-112 atom-113" d="M 261.1,23.3 L 264.6,26.3" style="fill:none;fill-rule:evenodd;stroke:#000000;stroke-width:2.0px;stroke-linecap:butt;stroke-linejoin:miter;stroke-opacity:1"/>
<path class="bond-112 atom-112 atom-113" d="M 264.6,26.3 L 268.2,29.2" style="fill:none;fill-rule:evenodd;stroke:#FF0000;stroke-width:2.0px;stroke-linecap:butt;stroke-linejoin:miter;stroke-opacity:1"/>
<path class="bond-112 atom-112 atom-113" d="M 262.2,22.0 L 265.7,24.9" style="fill:none;fill-rule:evenodd;stroke:#000000;stroke-width:2.0px;stroke-linecap:butt;stroke-linejoin:miter;stroke-opacity:1"/>
<path class="bond-112 atom-112 atom-113" d="M 265.7,24.9 L 269.3,27.8" style="fill:none;fill-rule:evenodd;stroke:#FF0000;stroke-width:2.0px;stroke-linecap:butt;stroke-linejoin:miter;stroke-opacity:1"/>
<path class="bond-113 atom-112 atom-114" d="M 262.0,23.0 L 262.7,18.5" style="fill:none;fill-rule:evenodd;stroke:#000000;stroke-width:2.0px;stroke-linecap:butt;stroke-linejoin:miter;stroke-opacity:1"/>
<path class="bond-113 atom-112 atom-114" d="M 262.7,18.5 L 263.5,14.0" style="fill:none;fill-rule:evenodd;stroke:#FF0000;stroke-width:2.0px;stroke-linecap:butt;stroke-linejoin:miter;stroke-opacity:1"/>
<path class="bond-114 atom-52 atom-37" d="M 204.2,121.3 L 214.0,127.7" style="fill:none;fill-rule:evenodd;stroke:#000000;stroke-width:2.0px;stroke-linecap:butt;stroke-linejoin:miter;stroke-opacity:1"/>
<path class="bond-115 atom-106 atom-91" d="M 151.3,64.1 L 150.6,75.8" style="fill:none;fill-rule:evenodd;stroke:#000000;stroke-width:2.0px;stroke-linecap:butt;stroke-linejoin:miter;stroke-opacity:1"/>
<path class="bond-116 atom-49 atom-40" d="M 196.9,160.3 L 195.3,156.1" style="fill:none;fill-rule:evenodd;stroke:#000000;stroke-width:2.0px;stroke-linecap:butt;stroke-linejoin:miter;stroke-opacity:1"/>
<path class="bond-116 atom-49 atom-40" d="M 195.3,156.1 L 193.7,151.8" style="fill:none;fill-rule:evenodd;stroke:#0000FF;stroke-width:2.0px;stroke-linecap:butt;stroke-linejoin:miter;stroke-opacity:1"/>
<path class="bond-117 atom-103 atom-94" d="M 115.0,58.4 L 117.4,62.1" style="fill:none;fill-rule:evenodd;stroke:#000000;stroke-width:2.0px;stroke-linecap:butt;stroke-linejoin:miter;stroke-opacity:1"/>
<path class="bond-117 atom-103 atom-94" d="M 117.4,62.1 L 119.7,65.7" style="fill:none;fill-rule:evenodd;stroke:#0000FF;stroke-width:2.0px;stroke-linecap:butt;stroke-linejoin:miter;stroke-opacity:1"/>
<path class="bond-118 atom-49 atom-43" d="M 196.9,160.3 L 187.7,167.6" style="fill:none;fill-rule:evenodd;stroke:#000000;stroke-width:2.0px;stroke-linecap:butt;stroke-linejoin:miter;stroke-opacity:1"/>
<path class="bond-119 atom-103 atom-97" d="M 115.0,58.4 L 103.7,61.3" style="fill:none;fill-rule:evenodd;stroke:#000000;stroke-width:2.0px;stroke-linecap:butt;stroke-linejoin:miter;stroke-opacity:1"/>
<path d="M 251.0,27.7 L 251.1,27.1 L 251.6,26.9" style="fill:none;stroke:#000000;stroke-width:2.0px;stroke-linecap:butt;stroke-linejoin:miter;stroke-opacity:1;"/>
<path d="M 249.3,38.1 L 249.2,38.7 L 249.6,39.0" style="fill:none;stroke:#000000;stroke-width:2.0px;stroke-linecap:butt;stroke-linejoin:miter;stroke-opacity:1;"/>
<path d="M 257.8,45.7 L 258.2,46.1 L 258.1,46.7" style="fill:none;stroke:#000000;stroke-width:2.0px;stroke-linecap:butt;stroke-linejoin:miter;stroke-opacity:1;"/>
<path d="M 265.4,71.0 L 265.9,71.1 L 266.1,70.9" style="fill:none;stroke:#000000;stroke-width:2.0px;stroke-linecap:butt;stroke-linejoin:miter;stroke-opacity:1;"/>
<path d="M 284.7,63.9 L 284.9,63.9 L 285.3,63.5" style="fill:none;stroke:#000000;stroke-width:2.0px;stroke-linecap:butt;stroke-linejoin:miter;stroke-opacity:1;"/>
<path d="M 292.0,55.3 L 292.3,54.9 L 292.9,55.0" style="fill:none;stroke:#000000;stroke-width:2.0px;stroke-linecap:butt;stroke-linejoin:miter;stroke-opacity:1;"/>
<path d="M 303.3,56.7 L 303.9,56.8 L 304.0,56.6" style="fill:none;stroke:#000000;stroke-width:2.0px;stroke-linecap:butt;stroke-linejoin:miter;stroke-opacity:1;"/>
<path d="M 322.6,49.6 L 322.8,49.6 L 323.2,49.2" style="fill:none;stroke:#000000;stroke-width:2.0px;stroke-linecap:butt;stroke-linejoin:miter;stroke-opacity:1;"/>
<path d="M 329.9,41.0 L 330.3,40.6 L 330.5,40.6" style="fill:none;stroke:#000000;stroke-width:2.0px;stroke-linecap:butt;stroke-linejoin:miter;stroke-opacity:1;"/>
<path d="M 349.1,33.6 L 349.2,33.4 L 349.8,33.5" style="fill:none;stroke:#000000;stroke-width:2.0px;stroke-linecap:butt;stroke-linejoin:miter;stroke-opacity:1;"/>
<path d="M 225.1,123.7 L 224.9,123.6 L 224.4,123.8" style="fill:none;stroke:#000000;stroke-width:2.0px;stroke-linecap:butt;stroke-linejoin:miter;stroke-opacity:1;"/>
<path d="M 181.3,149.9 L 181.1,149.9 L 181.0,150.1" style="fill:none;stroke:#000000;stroke-width:2.0px;stroke-linecap:butt;stroke-linejoin:miter;stroke-opacity:1;"/>
<path d="M 209.4,176.2 L 209.5,176.1 L 209.5,175.9" style="fill:none;stroke:#000000;stroke-width:2.0px;stroke-linecap:butt;stroke-linejoin:miter;stroke-opacity:1;"/>
<path d="M 232.6,110.9 L 232.8,111.5 L 233.1,111.5" style="fill:none;stroke:#000000;stroke-width:2.0px;stroke-linecap:butt;stroke-linejoin:miter;stroke-opacity:1;"/>
<path d="M 248.4,124.1 L 248.5,124.3 L 249.1,124.4" style="fill:none;stroke:#000000;stroke-width:2.0px;stroke-linecap:butt;stroke-linejoin:miter;stroke-opacity:1;"/>
<path d="M 259.5,126.1 L 260.1,126.2 L 260.3,126.8" style="fill:none;stroke:#000000;stroke-width:2.0px;stroke-linecap:butt;stroke-linejoin:miter;stroke-opacity:1;"/>
<path d="M 264.0,136.6 L 264.2,137.2 L 264.4,137.2" style="fill:none;stroke:#000000;stroke-width:2.0px;stroke-linecap:butt;stroke-linejoin:miter;stroke-opacity:1;"/>
<path d="M 279.8,149.8 L 279.9,150.0 L 280.4,150.1" style="fill:none;stroke:#000000;stroke-width:2.0px;stroke-linecap:butt;stroke-linejoin:miter;stroke-opacity:1;"/>
<path d="M 290.8,151.8 L 291.4,151.9 L 291.5,152.1" style="fill:none;stroke:#000000;stroke-width:2.0px;stroke-linecap:butt;stroke-linejoin:miter;stroke-opacity:1;"/>
<path d="M 306.8,164.7 L 307.1,164.7 L 307.3,165.3" style="fill:none;stroke:#000000;stroke-width:2.0px;stroke-linecap:butt;stroke-linejoin:miter;stroke-opacity:1;"/>
<path d="M 207.4,108.6 L 206.8,108.8 L 206.6,108.6" style="fill:none;stroke:#000000;stroke-width:2.0px;stroke-linecap:butt;stroke-linejoin:miter;stroke-opacity:1;"/>
<path d="M 159.6,83.4 L 159.7,83.2 L 159.2,82.9" style="fill:none;stroke:#000000;stroke-width:2.0px;stroke-linecap:butt;stroke-linejoin:miter;stroke-opacity:1;"/>
<path d="M 114.0,77.1 L 113.9,77.3 L 113.7,77.2" style="fill:none;stroke:#000000;stroke-width:2.0px;stroke-linecap:butt;stroke-linejoin:miter;stroke-opacity:1;"/>
<path d="M 109.6,38.8 L 109.9,38.8 L 110.0,38.9" style="fill:none;stroke:#000000;stroke-width:2.0px;stroke-linecap:butt;stroke-linejoin:miter;stroke-opacity:1;"/>
<path d="M 261.5,23.2 L 262.0,23.0 L 262.0,22.8" style="fill:none;stroke:#000000;stroke-width:2.0px;stroke-linecap:butt;stroke-linejoin:miter;stroke-opacity:1;"/>
<path class="atom-5" d="M 238.6 53.6 L 239.2 53.6 L 239.2 55.4 L 241.4 55.4 L 241.4 53.6 L 241.9 53.6 L 241.9 57.9 L 241.4 57.9 L 241.4 55.9 L 239.2 55.9 L 239.2 57.9 L 238.6 57.9 L 238.6 53.6 " fill="#FF0000"/>
<path class="atom-5" d="M 242.8 55.7 Q 242.8 54.7, 243.3 54.1 Q 243.8 53.6, 244.8 53.6 Q 245.7 53.6, 246.2 54.1 Q 246.7 54.7, 246.7 55.7 Q 246.7 56.8, 246.2 57.4 Q 245.7 57.9, 244.8 57.9 Q 243.8 57.9, 243.3 57.4 Q 242.8 56.8, 242.8 55.7 M 244.8 57.5 Q 245.4 57.5, 245.8 57.0 Q 246.1 56.6, 246.1 55.7 Q 246.1 54.9, 245.8 54.5 Q 245.4 54.1, 244.8 54.1 Q 244.1 54.1, 243.8 54.5 Q 243.4 54.9, 243.4 55.7 Q 243.4 56.6, 243.8 57.0 Q 244.1 57.5, 244.8 57.5 " fill="#FF0000"/>
<path class="atom-6" d="M 266.0 56.7 Q 266.0 55.7, 266.5 55.1 Q 267.0 54.5, 268.0 54.5 Q 268.9 54.5, 269.4 55.1 Q 269.9 55.7, 269.9 56.7 Q 269.9 57.7, 269.4 58.3 Q 268.9 58.9, 268.0 58.9 Q 267.0 58.9, 266.5 58.3 Q 266.0 57.7, 266.0 56.7 M 268.0 58.4 Q 268.6 58.4, 269.0 58.0 Q 269.3 57.5, 269.3 56.7 Q 269.3 55.9, 269.0 55.4 Q 268.6 55.0, 268.0 55.0 Q 267.3 55.0, 267.0 55.4 Q 266.6 55.8, 266.6 56.7 Q 266.6 57.5, 267.0 58.0 Q 267.3 58.4, 268.0 58.4 " fill="#FF0000"/>
<path class="atom-6" d="M 270.6 54.6 L 271.2 54.6 L 271.2 56.4 L 273.3 56.4 L 273.3 54.6 L 273.9 54.6 L 273.9 58.8 L 273.3 58.8 L 273.3 56.9 L 271.2 56.9 L 271.2 58.8 L 270.6 58.8 L 270.6 54.6 " fill="#FF0000"/>
<path class="atom-8" d="M 236.7 65.2 L 237.3 65.2 L 237.3 67.0 L 239.5 67.0 L 239.5 65.2 L 240.0 65.2 L 240.0 69.4 L 239.5 69.4 L 239.5 67.5 L 237.3 67.5 L 237.3 69.4 L 236.7 69.4 L 236.7 65.2 " fill="#FF0000"/>
<path class="atom-8" d="M 240.9 67.3 Q 240.9 66.3, 241.4 65.7 Q 241.9 65.1, 242.9 65.1 Q 243.8 65.1, 244.3 65.7 Q 244.8 66.3, 244.8 67.3 Q 244.8 68.3, 244.3 68.9 Q 243.8 69.5, 242.9 69.5 Q 241.9 69.5, 241.4 68.9 Q 240.9 68.3, 240.9 67.3 M 242.9 69.0 Q 243.5 69.0, 243.9 68.6 Q 244.2 68.1, 244.2 67.3 Q 244.2 66.4, 243.9 66.0 Q 243.5 65.6, 242.9 65.6 Q 242.2 65.6, 241.9 66.0 Q 241.5 66.4, 241.5 67.3 Q 241.5 68.1, 241.9 68.6 Q 242.2 69.0, 242.9 69.0 " fill="#FF0000"/>
<path class="atom-10" d="M 269.4 81.4 Q 269.4 80.4, 269.9 79.9 Q 270.4 79.3, 271.4 79.3 Q 272.3 79.3, 272.8 79.9 Q 273.3 80.4, 273.3 81.4 Q 273.3 82.5, 272.8 83.1 Q 272.3 83.6, 271.4 83.6 Q 270.4 83.6, 269.9 83.1 Q 269.4 82.5, 269.4 81.4 M 271.4 83.2 Q 272.0 83.2, 272.4 82.7 Q 272.7 82.3, 272.7 81.4 Q 272.7 80.6, 272.4 80.2 Q 272.0 79.8, 271.4 79.8 Q 270.7 79.8, 270.4 80.2 Q 270.0 80.6, 270.0 81.4 Q 270.0 82.3, 270.4 82.7 Q 270.7 83.2, 271.4 83.2 " fill="#FF0000"/>
<path class="atom-11" d="M 267.6 59.9 L 268.2 59.9 L 268.2 61.7 L 270.3 61.7 L 270.3 59.9 L 270.9 59.9 L 270.9 64.1 L 270.3 64.1 L 270.3 62.2 L 268.2 62.2 L 268.2 64.1 L 267.6 64.1 L 267.6 59.9 " fill="#0000FF"/>
<path class="atom-11" d="M 272.4 59.9 L 273.8 62.1 Q 274.0 62.4, 274.2 62.8 Q 274.4 63.2, 274.4 63.2 L 274.4 59.9 L 275.0 59.9 L 275.0 64.1 L 274.4 64.1 L 272.9 61.7 Q 272.7 61.4, 272.5 61.1 Q 272.4 60.7, 272.3 60.6 L 272.3 64.1 L 271.8 64.1 L 271.8 59.9 L 272.4 59.9 " fill="#0000FF"/>
<path class="atom-15" d="M 306.0 67.7 Q 306.0 66.7, 306.6 66.1 Q 307.1 65.6, 308.0 65.6 Q 308.9 65.6, 309.4 66.1 Q 309.9 66.7, 309.9 67.7 Q 309.9 68.8, 309.4 69.3 Q 308.9 69.9, 308.0 69.9 Q 307.1 69.9, 306.6 69.3 Q 306.0 68.8, 306.0 67.7 M 308.0 69.5 Q 308.6 69.5, 309.0 69.0 Q 309.3 68.6, 309.3 67.7 Q 309.3 66.9, 309.0 66.5 Q 308.6 66.0, 308.0 66.0 Q 307.4 66.0, 307.0 66.5 Q 306.6 66.9, 306.6 67.7 Q 306.6 68.6, 307.0 69.0 Q 307.4 69.5, 308.0 69.5 " fill="#FF0000"/>
<path class="atom-16" d="M 305.5 45.6 L 306.1 45.6 L 306.1 47.4 L 308.3 47.4 L 308.3 45.6 L 308.8 45.6 L 308.8 49.8 L 308.3 49.8 L 308.3 47.9 L 306.1 47.9 L 306.1 49.8 L 305.5 49.8 L 305.5 45.6 " fill="#0000FF"/>
<path class="atom-16" d="M 310.4 45.6 L 311.7 47.8 Q 311.9 48.1, 312.1 48.5 Q 312.3 48.9, 312.3 48.9 L 312.3 45.6 L 312.9 45.6 L 312.9 49.8 L 312.3 49.8 L 310.8 47.4 Q 310.7 47.1, 310.5 46.8 Q 310.3 46.4, 310.2 46.3 L 310.2 49.8 L 309.7 49.8 L 309.7 45.6 L 310.4 45.6 " fill="#0000FF"/>
<path class="atom-19" d="M 340.6 43.9 Q 340.6 43.9, 340.8 44.0 Q 341.0 44.1, 341.3 44.2 Q 341.5 44.2, 341.7 44.2 Q 342.1 44.2, 342.3 44.0 Q 342.6 43.8, 342.6 43.5 Q 342.6 43.3, 342.4 43.1 Q 342.3 43.0, 342.2 42.9 Q 342.0 42.8, 341.7 42.7 Q 341.3 42.6, 341.1 42.5 Q 340.8 42.4, 340.7 42.2 Q 340.5 41.9, 340.5 41.5 Q 340.5 41.0, 340.9 40.7 Q 341.3 40.4, 342.0 40.4 Q 342.5 40.4, 343.0 40.6 L 342.9 41.1 Q 342.4 40.8, 342.0 40.8 Q 341.6 40.8, 341.3 41.0 Q 341.1 41.2, 341.1 41.5 Q 341.1 41.7, 341.2 41.8 Q 341.4 42.0, 341.5 42.1 Q 341.7 42.1, 342.0 42.2 Q 342.4 42.3, 342.6 42.5 Q 342.8 42.6, 343.0 42.8 Q 343.2 43.1, 343.2 43.5 Q 343.2 44.1, 342.8 44.4 Q 342.4 44.7, 341.7 44.7 Q 341.3 44.7, 341.1 44.6 Q 340.8 44.5, 340.4 44.4 L 340.6 43.9 " fill="#CCCC00"/>
<path class="atom-22" d="M 343.1 22.5 Q 343.1 21.5, 343.6 20.9 Q 344.1 20.3, 345.1 20.3 Q 346.0 20.3, 346.5 20.9 Q 347.0 21.5, 347.0 22.5 Q 347.0 23.5, 346.5 24.1 Q 346.0 24.7, 345.1 24.7 Q 344.2 24.7, 343.6 24.1 Q 343.1 23.5, 343.1 22.5 M 345.1 24.2 Q 345.7 24.2, 346.1 23.8 Q 346.4 23.3, 346.4 22.5 Q 346.4 21.7, 346.1 21.2 Q 345.7 20.8, 345.1 20.8 Q 344.4 20.8, 344.1 21.2 Q 343.7 21.6, 343.7 22.5 Q 343.7 23.3, 344.1 23.8 Q 344.4 24.2, 345.1 24.2 " fill="#FF0000"/>
<path class="atom-27" d="M 257.7 99.7 Q 257.7 98.7, 258.2 98.1 Q 258.7 97.5, 259.7 97.5 Q 260.6 97.5, 261.1 98.1 Q 261.6 98.7, 261.6 99.7 Q 261.6 100.7, 261.1 101.3 Q 260.6 101.9, 259.7 101.9 Q 258.7 101.9, 258.2 101.3 Q 257.7 100.7, 257.7 99.7 M 259.7 101.4 Q 260.3 101.4, 260.6 101.0 Q 261.0 100.5, 261.0 99.7 Q 261.0 98.9, 260.6 98.4 Q 260.3 98.0, 259.7 98.0 Q 259.0 98.0, 258.7 98.4 Q 258.3 98.8, 258.3 99.7 Q 258.3 100.5, 258.7 101.0 Q 259.0 101.4, 259.7 101.4 " fill="#FF0000"/>
<path class="atom-28" d="M 257.7 109.1 Q 258.4 109.1, 258.7 109.4 Q 259.1 109.7, 259.1 110.3 Q 259.1 110.9, 258.7 111.3 Q 258.4 111.6, 257.7 111.6 L 257.0 111.6 L 257.0 113.3 L 256.4 113.3 L 256.4 109.1 L 257.7 109.1 M 257.7 111.1 Q 258.1 111.1, 258.3 110.9 Q 258.5 110.7, 258.5 110.3 Q 258.5 110.0, 258.3 109.8 Q 258.1 109.6, 257.7 109.6 L 257.0 109.6 L 257.0 111.1 L 257.7 111.1 " fill="#FF7F00"/>
<path class="atom-29" d="M 267.3 113.1 Q 267.3 112.1, 267.9 111.5 Q 268.4 111.0, 269.3 111.0 Q 270.2 111.0, 270.7 111.5 Q 271.2 112.1, 271.2 113.1 Q 271.2 114.2, 270.7 114.7 Q 270.2 115.3, 269.3 115.3 Q 268.4 115.3, 267.9 114.7 Q 267.3 114.2, 267.3 113.1 M 269.3 114.9 Q 269.9 114.9, 270.3 114.4 Q 270.6 114.0, 270.6 113.1 Q 270.6 112.3, 270.3 111.9 Q 269.9 111.4, 269.3 111.4 Q 268.7 111.4, 268.3 111.9 Q 267.9 112.3, 267.9 113.1 Q 267.9 114.0, 268.3 114.4 Q 268.7 114.9, 269.3 114.9 " fill="#FF0000"/>
<path class="atom-30" d="M 245.5 110.4 L 246.1 110.4 L 246.1 112.2 L 248.3 112.2 L 248.3 110.4 L 248.8 110.4 L 248.8 114.6 L 248.3 114.6 L 248.3 112.7 L 246.1 112.7 L 246.1 114.6 L 245.5 114.6 L 245.5 110.4 " fill="#FF0000"/>
<path class="atom-30" d="M 249.7 112.5 Q 249.7 111.5, 250.2 110.9 Q 250.7 110.3, 251.7 110.3 Q 252.6 110.3, 253.1 110.9 Q 253.6 111.5, 253.6 112.5 Q 253.6 113.5, 253.1 114.1 Q 252.6 114.7, 251.7 114.7 Q 250.7 114.7, 250.2 114.1 Q 249.7 113.5, 249.7 112.5 M 251.7 114.2 Q 252.3 114.2, 252.7 113.8 Q 253.0 113.3, 253.0 112.5 Q 253.0 111.7, 252.7 111.2 Q 252.3 110.8, 251.7 110.8 Q 251.0 110.8, 250.7 111.2 Q 250.3 111.6, 250.3 112.5 Q 250.3 113.3, 250.7 113.8 Q 251.0 114.2, 251.7 114.2 " fill="#FF0000"/>
<path class="atom-31" d="M 253.9 122.8 Q 253.9 121.8, 254.4 121.2 Q 254.9 120.6, 255.9 120.6 Q 256.8 120.6, 257.3 121.2 Q 257.8 121.8, 257.8 122.8 Q 257.8 123.8, 257.3 124.4 Q 256.8 125.0, 255.9 125.0 Q 254.9 125.0, 254.4 124.4 Q 253.9 123.8, 253.9 122.8 M 255.9 124.5 Q 256.5 124.5, 256.9 124.1 Q 257.2 123.6, 257.2 122.8 Q 257.2 121.9, 256.9 121.5 Q 256.5 121.1, 255.9 121.1 Q 255.2 121.1, 254.9 121.5 Q 254.5 121.9, 254.5 122.8 Q 254.5 123.6, 254.9 124.1 Q 255.2 124.5, 255.9 124.5 " fill="#FF0000"/>
<path class="atom-32" d="M 244.8 124.8 Q 245.5 124.8, 245.9 125.1 Q 246.3 125.4, 246.3 126.0 Q 246.3 126.6, 245.9 126.9 Q 245.5 127.3, 244.8 127.3 L 244.1 127.3 L 244.1 129.0 L 243.6 129.0 L 243.6 124.8 L 244.8 124.8 M 244.8 126.8 Q 245.2 126.8, 245.4 126.6 Q 245.7 126.4, 245.7 126.0 Q 245.7 125.6, 245.4 125.4 Q 245.2 125.2, 244.8 125.2 L 244.1 125.2 L 244.1 126.8 L 244.8 126.8 " fill="#FF7F00"/>
<path class="atom-33" d="M 242.0 118.4 Q 242.0 117.4, 242.5 116.8 Q 243.0 116.3, 243.9 116.3 Q 244.9 116.3, 245.4 116.8 Q 245.9 117.4, 245.9 118.4 Q 245.9 119.5, 245.4 120.0 Q 244.8 120.6, 243.9 120.6 Q 243.0 120.6, 242.5 120.0 Q 242.0 119.5, 242.0 118.4 M 243.9 120.2 Q 244.6 120.2, 244.9 119.7 Q 245.3 119.3, 245.3 118.4 Q 245.3 117.6, 244.9 117.2 Q 244.6 116.7, 243.9 116.7 Q 243.3 116.7, 242.9 117.2 Q 242.6 117.6, 242.6 118.4 Q 242.6 119.3, 242.9 119.7 Q 243.3 120.2, 243.9 120.2 " fill="#FF0000"/>
<path class="atom-34" d="M 247.1 137.8 Q 247.1 136.8, 247.6 136.3 Q 248.1 135.7, 249.0 135.7 Q 250.0 135.7, 250.5 136.3 Q 251.0 136.8, 251.0 137.8 Q 251.0 138.9, 250.5 139.5 Q 250.0 140.1, 249.0 140.1 Q 248.1 140.1, 247.6 139.5 Q 247.1 138.9, 247.1 137.8 M 249.0 139.6 Q 249.7 139.6, 250.0 139.1 Q 250.4 138.7, 250.4 137.8 Q 250.4 137.0, 250.0 136.6 Q 249.7 136.2, 249.0 136.2 Q 248.4 136.2, 248.0 136.6 Q 247.7 137.0, 247.7 137.8 Q 247.7 138.7, 248.0 139.1 Q 248.4 139.6, 249.0 139.6 " fill="#FF0000"/>
<path class="atom-34" d="M 251.6 135.7 L 252.2 135.7 L 252.2 137.5 L 254.4 137.5 L 254.4 135.7 L 255.0 135.7 L 255.0 140.0 L 254.4 140.0 L 254.4 138.0 L 252.2 138.0 L 252.2 140.0 L 251.6 140.0 L 251.6 135.7 " fill="#FF0000"/>
<path class="atom-35" d="M 232.0 131.0 Q 232.0 130.0, 232.5 129.4 Q 233.0 128.9, 234.0 128.9 Q 234.9 128.9, 235.4 129.4 Q 235.9 130.0, 235.9 131.0 Q 235.9 132.1, 235.4 132.6 Q 234.9 133.2, 234.0 133.2 Q 233.0 133.2, 232.5 132.6 Q 232.0 132.1, 232.0 131.0 M 234.0 132.8 Q 234.6 132.8, 235.0 132.3 Q 235.3 131.9, 235.3 131.0 Q 235.3 130.2, 235.0 129.8 Q 234.6 129.3, 234.0 129.3 Q 233.3 129.3, 233.0 129.8 Q 232.6 130.2, 232.6 131.0 Q 232.6 131.9, 233.0 132.3 Q 233.3 132.8, 234.0 132.8 " fill="#FF0000"/>
<path class="atom-38" d="M 208.9 139.0 Q 208.9 138.0, 209.4 137.4 Q 209.9 136.9, 210.9 136.9 Q 211.8 136.9, 212.3 137.4 Q 212.8 138.0, 212.8 139.0 Q 212.8 140.1, 212.3 140.6 Q 211.8 141.2, 210.9 141.2 Q 209.9 141.2, 209.4 140.6 Q 208.9 140.1, 208.9 139.0 M 210.9 140.7 Q 211.5 140.7, 211.9 140.3 Q 212.2 139.9, 212.2 139.0 Q 212.2 138.2, 211.9 137.8 Q 211.5 137.3, 210.9 137.3 Q 210.2 137.3, 209.9 137.8 Q 209.5 138.2, 209.5 139.0 Q 209.5 139.9, 209.9 140.3 Q 210.2 140.7, 210.9 140.7 " fill="#FF0000"/>
<path class="atom-40" d="M 191.8 147.2 L 193.2 149.5 Q 193.3 149.7, 193.6 150.1 Q 193.8 150.5, 193.8 150.5 L 193.8 147.2 L 194.4 147.2 L 194.4 151.4 L 193.8 151.4 L 192.3 149.0 Q 192.1 148.7, 191.9 148.4 Q 191.7 148.0, 191.7 147.9 L 191.7 151.4 L 191.1 151.4 L 191.1 147.2 L 191.8 147.2 " fill="#0000FF"/>
<path class="atom-42" d="M 177.0 159.0 L 178.4 161.3 Q 178.6 161.5, 178.8 161.9 Q 179.0 162.3, 179.0 162.3 L 179.0 159.0 L 179.6 159.0 L 179.6 163.3 L 179.0 163.3 L 177.5 160.8 Q 177.3 160.5, 177.1 160.2 Q 177.0 159.9, 176.9 159.8 L 176.9 163.3 L 176.4 163.3 L 176.4 159.0 L 177.0 159.0 " fill="#0000FF"/>
<path class="atom-45" d="M 172.2 184.3 L 172.7 184.3 L 172.7 186.1 L 174.9 186.1 L 174.9 184.3 L 175.5 184.3 L 175.5 188.6 L 174.9 188.6 L 174.9 186.6 L 172.7 186.6 L 172.7 188.6 L 172.2 188.6 L 172.2 184.3 " fill="#0000FF"/>
<path class="atom-45" d="M 176.3 188.4 Q 176.4 188.2, 176.7 188.0 Q 176.9 187.9, 177.3 187.9 Q 177.7 187.9, 177.9 188.1 Q 178.2 188.3, 178.2 188.7 Q 178.2 189.2, 177.8 189.5 Q 177.5 189.9, 176.9 190.4 L 178.2 190.4 L 178.2 190.7 L 176.3 190.7 L 176.3 190.4 Q 176.8 190.1, 177.1 189.8 Q 177.5 189.5, 177.6 189.3 Q 177.8 189.0, 177.8 188.8 Q 177.8 188.5, 177.6 188.3 Q 177.5 188.2, 177.3 188.2 Q 177.0 188.2, 176.9 188.3 Q 176.7 188.4, 176.6 188.6 L 176.3 188.4 " fill="#0000FF"/>
<path class="atom-45" d="M 179.4 184.3 L 180.8 186.6 Q 181.0 186.8, 181.2 187.2 Q 181.4 187.6, 181.4 187.6 L 181.4 184.3 L 182.0 184.3 L 182.0 188.6 L 181.4 188.6 L 179.9 186.1 Q 179.7 185.8, 179.5 185.5 Q 179.4 185.2, 179.3 185.1 L 179.3 188.6 L 178.8 188.6 L 178.8 184.3 L 179.4 184.3 " fill="#0000FF"/>
<path class="atom-46" d="M 199.5 181.3 L 200.9 183.5 Q 201.0 183.8, 201.2 184.2 Q 201.4 184.6, 201.4 184.6 L 201.4 181.3 L 202.0 181.3 L 202.0 185.5 L 201.4 185.5 L 199.9 183.1 Q 199.8 182.8, 199.6 182.5 Q 199.4 182.1, 199.3 182.0 L 199.3 185.5 L 198.8 185.5 L 198.8 181.3 L 199.5 181.3 " fill="#0000FF"/>
<path class="atom-48" d="M 206.8 162.4 L 208.2 164.7 Q 208.4 164.9, 208.6 165.3 Q 208.8 165.7, 208.8 165.7 L 208.8 162.4 L 209.4 162.4 L 209.4 166.7 L 208.8 166.7 L 207.3 164.2 Q 207.1 163.9, 206.9 163.6 Q 206.8 163.2, 206.7 163.1 L 206.7 166.7 L 206.2 166.7 L 206.2 162.4 L 206.8 162.4 " fill="#0000FF"/>
<path class="atom-51" d="M 177.6 123.4 L 178.2 123.4 L 178.2 125.2 L 180.4 125.2 L 180.4 123.4 L 180.9 123.4 L 180.9 127.7 L 180.4 127.7 L 180.4 125.7 L 178.2 125.7 L 178.2 127.7 L 177.6 127.7 L 177.6 123.4 " fill="#FF0000"/>
<path class="atom-51" d="M 181.8 125.5 Q 181.8 124.5, 182.3 123.9 Q 182.8 123.4, 183.8 123.4 Q 184.7 123.4, 185.2 123.9 Q 185.7 124.5, 185.7 125.5 Q 185.7 126.6, 185.2 127.1 Q 184.7 127.7, 183.8 127.7 Q 182.8 127.7, 182.3 127.1 Q 181.8 126.6, 181.8 125.5 M 183.8 127.2 Q 184.4 127.2, 184.8 126.8 Q 185.1 126.4, 185.1 125.5 Q 185.1 124.7, 184.8 124.3 Q 184.4 123.8, 183.8 123.8 Q 183.1 123.8, 182.8 124.3 Q 182.4 124.7, 182.4 125.5 Q 182.4 126.4, 182.8 126.8 Q 183.1 127.2, 183.8 127.2 " fill="#FF0000"/>
<path class="atom-53" d="M 201.7 109.6 Q 201.7 108.6, 202.2 108.0 Q 202.7 107.5, 203.6 107.5 Q 204.6 107.5, 205.1 108.0 Q 205.6 108.6, 205.6 109.6 Q 205.6 110.7, 205.1 111.2 Q 204.6 111.8, 203.6 111.8 Q 202.7 111.8, 202.2 111.2 Q 201.7 110.7, 201.7 109.6 M 203.6 111.3 Q 204.3 111.3, 204.6 110.9 Q 205.0 110.5, 205.0 109.6 Q 205.0 108.8, 204.6 108.4 Q 204.3 107.9, 203.6 107.9 Q 203.0 107.9, 202.6 108.4 Q 202.3 108.8, 202.3 109.6 Q 202.3 110.5, 202.6 110.9 Q 203.0 111.3, 203.6 111.3 " fill="#FF0000"/>
<path class="atom-54" d="M 213.4 101.2 Q 214.1 101.2, 214.5 101.5 Q 214.9 101.8, 214.9 102.4 Q 214.9 103.0, 214.5 103.3 Q 214.1 103.7, 213.4 103.7 L 212.7 103.7 L 212.7 105.4 L 212.1 105.4 L 212.1 101.2 L 213.4 101.2 M 213.4 103.2 Q 213.8 103.2, 214.0 103.0 Q 214.3 102.8, 214.3 102.4 Q 214.3 102.0, 214.0 101.8 Q 213.8 101.7, 213.4 101.7 L 212.7 101.7 L 212.7 103.2 L 213.4 103.2 " fill="#FF7F00"/>
<path class="atom-55" d="M 205.2 93.5 Q 205.2 92.4, 205.7 91.9 Q 206.2 91.3, 207.2 91.3 Q 208.1 91.3, 208.6 91.9 Q 209.1 92.4, 209.1 93.5 Q 209.1 94.5, 208.6 95.1 Q 208.1 95.7, 207.2 95.7 Q 206.2 95.7, 205.7 95.1 Q 205.2 94.5, 205.2 93.5 M 207.2 95.2 Q 207.8 95.2, 208.2 94.7 Q 208.5 94.3, 208.5 93.5 Q 208.5 92.6, 208.2 92.2 Q 207.8 91.8, 207.2 91.8 Q 206.5 91.8, 206.2 92.2 Q 205.8 92.6, 205.8 93.5 Q 205.8 94.3, 206.2 94.7 Q 206.5 95.2, 207.2 95.2 " fill="#FF0000"/>
<path class="atom-56" d="M 216.6 113.9 Q 216.6 112.8, 217.1 112.3 Q 217.6 111.7, 218.6 111.7 Q 219.5 111.7, 220.0 112.3 Q 220.5 112.8, 220.5 113.9 Q 220.5 114.9, 220.0 115.5 Q 219.5 116.1, 218.6 116.1 Q 217.6 116.1, 217.1 115.5 Q 216.6 114.9, 216.6 113.9 M 218.6 115.6 Q 219.2 115.6, 219.6 115.1 Q 219.9 114.7, 219.9 113.9 Q 219.9 113.0, 219.6 112.6 Q 219.2 112.2, 218.6 112.2 Q 217.9 112.2, 217.6 112.6 Q 217.2 113.0, 217.2 113.9 Q 217.2 114.7, 217.6 115.1 Q 217.9 115.6, 218.6 115.6 " fill="#FF0000"/>
<path class="atom-56" d="M 221.2 111.7 L 221.7 111.7 L 221.7 113.5 L 223.9 113.5 L 223.9 111.7 L 224.5 111.7 L 224.5 116.0 L 223.9 116.0 L 223.9 114.0 L 221.7 114.0 L 221.7 116.0 L 221.2 116.0 L 221.2 111.7 " fill="#FF0000"/>
<path class="atom-57" d="M 221.4 97.0 Q 221.4 96.0, 221.9 95.4 Q 222.4 94.8, 223.3 94.8 Q 224.3 94.8, 224.8 95.4 Q 225.3 96.0, 225.3 97.0 Q 225.3 98.0, 224.8 98.6 Q 224.3 99.2, 223.3 99.2 Q 222.4 99.2, 221.9 98.6 Q 221.4 98.0, 221.4 97.0 M 223.3 98.7 Q 224.0 98.7, 224.3 98.3 Q 224.7 97.8, 224.7 97.0 Q 224.7 96.2, 224.3 95.7 Q 224.0 95.3, 223.3 95.3 Q 222.7 95.3, 222.3 95.7 Q 222.0 96.2, 222.0 97.0 Q 222.0 97.9, 222.3 98.3 Q 222.7 98.7, 223.3 98.7 " fill="#FF0000"/>
<path class="atom-57" d="M 226.0 94.9 L 226.5 94.9 L 226.5 96.7 L 228.7 96.7 L 228.7 94.9 L 229.3 94.9 L 229.3 99.1 L 228.7 99.1 L 228.7 97.2 L 226.5 97.2 L 226.5 99.1 L 226.0 99.1 L 226.0 94.9 " fill="#FF0000"/>
<path class="atom-59" d="M 229.4 83.3 L 230.0 83.3 L 230.0 85.1 L 232.1 85.1 L 232.1 83.3 L 232.7 83.3 L 232.7 87.6 L 232.1 87.6 L 232.1 85.6 L 230.0 85.6 L 230.0 87.6 L 229.4 87.6 L 229.4 83.3 " fill="#FF0000"/>
<path class="atom-59" d="M 233.6 85.4 Q 233.6 84.4, 234.1 83.9 Q 234.6 83.3, 235.5 83.3 Q 236.5 83.3, 237.0 83.9 Q 237.5 84.4, 237.5 85.4 Q 237.5 86.5, 237.0 87.1 Q 236.5 87.6, 235.5 87.6 Q 234.6 87.6, 234.1 87.1 Q 233.6 86.5, 233.6 85.4 M 235.5 87.2 Q 236.2 87.2, 236.5 86.7 Q 236.9 86.3, 236.9 85.4 Q 236.9 84.6, 236.5 84.2 Q 236.2 83.8, 235.5 83.8 Q 234.9 83.8, 234.5 84.2 Q 234.2 84.6, 234.2 85.4 Q 234.2 86.3, 234.5 86.7 Q 234.9 87.2, 235.5 87.2 " fill="#FF0000"/>
<path class="atom-60" d="M 243.1 106.8 Q 243.1 105.7, 243.6 105.2 Q 244.1 104.6, 245.1 104.6 Q 246.0 104.6, 246.5 105.2 Q 247.0 105.7, 247.0 106.8 Q 247.0 107.8, 246.5 108.4 Q 246.0 109.0, 245.1 109.0 Q 244.2 109.0, 243.6 108.4 Q 243.1 107.8, 243.1 106.8 M 245.1 108.5 Q 245.7 108.5, 246.1 108.0 Q 246.4 107.6, 246.4 106.8 Q 246.4 105.9, 246.1 105.5 Q 245.7 105.1, 245.1 105.1 Q 244.4 105.1, 244.1 105.5 Q 243.7 105.9, 243.7 106.8 Q 243.7 107.6, 244.1 108.0 Q 244.4 108.5, 245.1 108.5 " fill="#FF0000"/>
<path class="atom-60" d="M 247.7 104.6 L 248.3 104.6 L 248.3 106.5 L 250.4 106.5 L 250.4 104.6 L 251.0 104.6 L 251.0 108.9 L 250.4 108.9 L 250.4 106.9 L 248.3 106.9 L 248.3 108.9 L 247.7 108.9 L 247.7 104.6 " fill="#FF0000"/>
<path class="atom-62" d="M 218.4 87.5 L 219.0 87.5 L 219.0 89.3 L 221.2 89.3 L 221.2 87.5 L 221.8 87.5 L 221.8 91.7 L 221.2 91.7 L 221.2 89.7 L 219.0 89.7 L 219.0 91.7 L 218.4 91.7 L 218.4 87.5 " fill="#FF0000"/>
<path class="atom-62" d="M 222.6 89.6 Q 222.6 88.6, 223.1 88.0 Q 223.6 87.4, 224.6 87.4 Q 225.5 87.4, 226.0 88.0 Q 226.5 88.6, 226.5 89.6 Q 226.5 90.6, 226.0 91.2 Q 225.5 91.8, 224.6 91.8 Q 223.6 91.8, 223.1 91.2 Q 222.6 90.6, 222.6 89.6 M 224.6 91.3 Q 225.2 91.3, 225.6 90.9 Q 225.9 90.4, 225.9 89.6 Q 225.9 88.7, 225.6 88.3 Q 225.2 87.9, 224.6 87.9 Q 223.9 87.9, 223.6 88.3 Q 223.2 88.7, 223.2 89.6 Q 223.2 90.4, 223.6 90.9 Q 223.9 91.3, 224.6 91.3 " fill="#FF0000"/>
<path class="atom-64" d="M 224.7 117.4 Q 224.7 116.3, 225.2 115.8 Q 225.7 115.2, 226.7 115.2 Q 227.6 115.2, 228.1 115.8 Q 228.6 116.3, 228.6 117.4 Q 228.6 118.4, 228.1 119.0 Q 227.6 119.6, 226.7 119.6 Q 225.7 119.6, 225.2 119.0 Q 224.7 118.4, 224.7 117.4 M 226.7 119.1 Q 227.3 119.1, 227.7 118.6 Q 228.0 118.2, 228.0 117.4 Q 228.0 116.5, 227.7 116.1 Q 227.3 115.7, 226.7 115.7 Q 226.0 115.7, 225.7 116.1 Q 225.3 116.5, 225.3 117.4 Q 225.3 118.2, 225.7 118.6 Q 226.0 119.1, 226.7 119.1 " fill="#FF0000"/>
<path class="atom-65" d="M 243.4 111.2 L 244.8 113.5 Q 245.0 113.7, 245.2 114.1 Q 245.4 114.5, 245.4 114.5 L 245.4 111.2 L 246.0 111.2 L 246.0 115.5 L 245.4 115.5 L 243.9 113.0 Q 243.7 112.7, 243.6 112.4 Q 243.4 112.1, 243.3 112.0 L 243.3 115.5 L 242.8 115.5 L 242.8 111.2 L 243.4 111.2 " fill="#0000FF"/>
<path class="atom-65" d="M 246.8 111.2 L 247.4 111.2 L 247.4 113.0 L 249.6 113.0 L 249.6 111.2 L 250.1 111.2 L 250.1 115.5 L 249.6 115.5 L 249.6 113.5 L 247.4 113.5 L 247.4 115.5 L 246.8 115.5 L 246.8 111.2 " fill="#0000FF"/>
<path class="atom-69" d="M 254.8 146.2 Q 254.8 145.2, 255.3 144.6 Q 255.8 144.1, 256.8 144.1 Q 257.7 144.1, 258.2 144.6 Q 258.7 145.2, 258.7 146.2 Q 258.7 147.2, 258.2 147.8 Q 257.7 148.4, 256.8 148.4 Q 255.8 148.4, 255.3 147.8 Q 254.8 147.3, 254.8 146.2 M 256.8 147.9 Q 257.4 147.9, 257.8 147.5 Q 258.1 147.1, 258.1 146.2 Q 258.1 145.4, 257.8 145.0 Q 257.4 144.5, 256.8 144.5 Q 256.1 144.5, 255.8 145.0 Q 255.4 145.4, 255.4 146.2 Q 255.4 147.1, 255.8 147.5 Q 256.1 147.9, 256.8 147.9 " fill="#FF0000"/>
<path class="atom-70" d="M 274.8 136.9 L 276.2 139.2 Q 276.3 139.4, 276.5 139.8 Q 276.8 140.2, 276.8 140.2 L 276.8 136.9 L 277.3 136.9 L 277.3 141.2 L 276.8 141.2 L 275.3 138.7 Q 275.1 138.4, 274.9 138.1 Q 274.7 137.8, 274.7 137.7 L 274.7 141.2 L 274.1 141.2 L 274.1 136.9 L 274.8 136.9 " fill="#0000FF"/>
<path class="atom-70" d="M 278.2 136.9 L 278.7 136.9 L 278.7 138.7 L 280.9 138.7 L 280.9 136.9 L 281.5 136.9 L 281.5 141.2 L 280.9 141.2 L 280.9 139.2 L 278.7 139.2 L 278.7 141.2 L 278.2 141.2 L 278.2 136.9 " fill="#0000FF"/>
<path class="atom-73" d="M 294.3 164.3 Q 294.4 164.3, 294.6 164.4 Q 294.8 164.5, 295.0 164.5 Q 295.2 164.6, 295.4 164.6 Q 295.8 164.6, 296.1 164.4 Q 296.3 164.2, 296.3 163.9 Q 296.3 163.6, 296.2 163.5 Q 296.1 163.3, 295.9 163.3 Q 295.7 163.2, 295.4 163.1 Q 295.0 163.0, 294.8 162.9 Q 294.6 162.8, 294.4 162.5 Q 294.3 162.3, 294.3 161.9 Q 294.3 161.4, 294.6 161.1 Q 295.0 160.7, 295.7 160.7 Q 296.2 160.7, 296.7 161.0 L 296.6 161.4 Q 296.1 161.2, 295.7 161.2 Q 295.3 161.2, 295.1 161.4 Q 294.8 161.6, 294.9 161.9 Q 294.9 162.1, 295.0 162.2 Q 295.1 162.4, 295.3 162.4 Q 295.4 162.5, 295.7 162.6 Q 296.1 162.7, 296.3 162.8 Q 296.6 163.0, 296.7 163.2 Q 296.9 163.4, 296.9 163.9 Q 296.9 164.4, 296.5 164.8 Q 296.1 165.1, 295.4 165.1 Q 295.1 165.1, 294.8 165.0 Q 294.5 164.9, 294.2 164.8 L 294.3 164.3 " fill="#CCCC00"/>
<path class="atom-76" d="M 312.5 155.7 Q 312.5 154.7, 313.0 154.1 Q 313.5 153.6, 314.5 153.6 Q 315.4 153.6, 315.9 154.1 Q 316.4 154.7, 316.4 155.7 Q 316.4 156.7, 315.9 157.3 Q 315.4 157.9, 314.5 157.9 Q 313.5 157.9, 313.0 157.3 Q 312.5 156.7, 312.5 155.7 M 314.5 157.4 Q 315.1 157.4, 315.5 157.0 Q 315.8 156.6, 315.8 155.7 Q 315.8 154.9, 315.5 154.5 Q 315.1 154.0, 314.5 154.0 Q 313.8 154.0, 313.5 154.5 Q 313.1 154.9, 313.1 155.7 Q 313.1 156.6, 313.5 157.0 Q 313.8 157.4, 314.5 157.4 " fill="#FF0000"/>
<path class="atom-81" d="M 195.8 101.4 Q 195.8 100.3, 196.3 99.8 Q 196.8 99.2, 197.8 99.2 Q 198.7 99.2, 199.2 99.8 Q 199.7 100.3, 199.7 101.4 Q 199.7 102.4, 199.2 103.0 Q 198.7 103.6, 197.8 103.6 Q 196.8 103.6, 196.3 103.0 Q 195.8 102.4, 195.8 101.4 M 197.8 103.1 Q 198.4 103.1, 198.8 102.6 Q 199.1 102.2, 199.1 101.4 Q 199.1 100.5, 198.8 100.1 Q 198.4 99.7, 197.8 99.7 Q 197.1 99.7, 196.8 100.1 Q 196.4 100.5, 196.4 101.4 Q 196.4 102.2, 196.8 102.6 Q 197.1 103.1, 197.8 103.1 " fill="#FF0000"/>
<path class="atom-82" d="M 186.7 103.4 Q 187.4 103.4, 187.8 103.7 Q 188.2 104.0, 188.2 104.6 Q 188.2 105.2, 187.8 105.5 Q 187.4 105.9, 186.7 105.9 L 186.0 105.9 L 186.0 107.6 L 185.5 107.6 L 185.5 103.4 L 186.7 103.4 M 186.7 105.4 Q 187.1 105.4, 187.4 105.2 Q 187.6 105.0, 187.6 104.6 Q 187.6 104.2, 187.4 104.0 Q 187.1 103.8, 186.7 103.8 L 186.0 103.8 L 186.0 105.4 L 186.7 105.4 " fill="#FF7F00"/>
<path class="atom-83" d="M 189.0 116.4 Q 189.0 115.4, 189.5 114.8 Q 190.0 114.3, 190.9 114.3 Q 191.9 114.3, 192.4 114.8 Q 192.9 115.4, 192.9 116.4 Q 192.9 117.5, 192.4 118.1 Q 191.9 118.6, 190.9 118.6 Q 190.0 118.6, 189.5 118.1 Q 189.0 117.5, 189.0 116.4 M 190.9 118.2 Q 191.6 118.2, 191.9 117.7 Q 192.3 117.3, 192.3 116.4 Q 192.3 115.6, 191.9 115.2 Q 191.6 114.8, 190.9 114.8 Q 190.3 114.8, 189.9 115.2 Q 189.6 115.6, 189.6 116.4 Q 189.6 117.3, 189.9 117.7 Q 190.3 118.2, 190.9 118.2 " fill="#FF0000"/>
<path class="atom-84" d="M 176.5 92.4 L 177.1 92.4 L 177.1 94.2 L 179.3 94.2 L 179.3 92.4 L 179.9 92.4 L 179.9 96.7 L 179.3 96.7 L 179.3 94.7 L 177.1 94.7 L 177.1 96.7 L 176.5 96.7 L 176.5 92.4 " fill="#FF0000"/>
<path class="atom-84" d="M 180.7 94.5 Q 180.7 93.5, 181.2 92.9 Q 181.7 92.4, 182.7 92.4 Q 183.6 92.4, 184.1 92.9 Q 184.6 93.5, 184.6 94.5 Q 184.6 95.6, 184.1 96.2 Q 183.6 96.7, 182.7 96.7 Q 181.8 96.7, 181.2 96.2 Q 180.7 95.6, 180.7 94.5 M 182.7 96.3 Q 183.3 96.3, 183.7 95.8 Q 184.0 95.4, 184.0 94.5 Q 184.0 93.7, 183.7 93.3 Q 183.3 92.9, 182.7 92.9 Q 182.0 92.9, 181.7 93.3 Q 181.3 93.7, 181.3 94.5 Q 181.3 95.4, 181.7 95.8 Q 182.0 96.3, 182.7 96.3 " fill="#FF0000"/>
<path class="atom-85" d="M 173.9 109.6 Q 173.9 108.6, 174.4 108.0 Q 174.9 107.5, 175.9 107.5 Q 176.8 107.5, 177.3 108.0 Q 177.8 108.6, 177.8 109.6 Q 177.8 110.6, 177.3 111.2 Q 176.8 111.8, 175.9 111.8 Q 174.9 111.8, 174.4 111.2 Q 173.9 110.7, 173.9 109.6 M 175.9 111.3 Q 176.5 111.3, 176.9 110.9 Q 177.2 110.5, 177.2 109.6 Q 177.2 108.8, 176.9 108.4 Q 176.5 107.9, 175.9 107.9 Q 175.2 107.9, 174.9 108.4 Q 174.5 108.8, 174.5 109.6 Q 174.5 110.5, 174.9 110.9 Q 175.2 111.3, 175.9 111.3 " fill="#FF0000"/>
<path class="atom-86" d="M 166.7 100.1 Q 167.4 100.1, 167.8 100.4 Q 168.2 100.7, 168.2 101.3 Q 168.2 101.9, 167.8 102.2 Q 167.4 102.6, 166.7 102.6 L 166.0 102.6 L 166.0 104.3 L 165.5 104.3 L 165.5 100.1 L 166.7 100.1 M 166.7 102.1 Q 167.1 102.1, 167.4 101.9 Q 167.6 101.7, 167.6 101.3 Q 167.6 100.9, 167.4 100.7 Q 167.1 100.5, 166.7 100.5 L 166.0 100.5 L 166.0 102.1 L 166.7 102.1 " fill="#FF7F00"/>
<path class="atom-87" d="M 157.5 111.2 Q 157.5 110.2, 158.0 109.7 Q 158.5 109.1, 159.4 109.1 Q 160.3 109.1, 160.9 109.7 Q 161.4 110.2, 161.4 111.2 Q 161.4 112.3, 160.8 112.9 Q 160.3 113.4, 159.4 113.4 Q 158.5 113.4, 158.0 112.9 Q 157.5 112.3, 157.5 111.2 M 159.4 113.0 Q 160.1 113.0, 160.4 112.5 Q 160.8 112.1, 160.8 111.2 Q 160.8 110.4, 160.4 110.0 Q 160.1 109.6, 159.4 109.6 Q 158.8 109.6, 158.4 110.0 Q 158.1 110.4, 158.1 111.2 Q 158.1 112.1, 158.4 112.5 Q 158.8 113.0, 159.4 113.0 " fill="#FF0000"/>
<path class="atom-88" d="M 172.3 93.1 Q 172.3 92.1, 172.8 91.6 Q 173.3 91.0, 174.2 91.0 Q 175.2 91.0, 175.7 91.6 Q 176.2 92.1, 176.2 93.1 Q 176.2 94.2, 175.7 94.8 Q 175.2 95.4, 174.2 95.4 Q 173.3 95.4, 172.8 94.8 Q 172.3 94.2, 172.3 93.1 M 174.2 94.9 Q 174.9 94.9, 175.2 94.4 Q 175.6 94.0, 175.6 93.1 Q 175.6 92.3, 175.2 91.9 Q 174.9 91.5, 174.2 91.5 Q 173.6 91.5, 173.2 91.9 Q 172.9 92.3, 172.9 93.1 Q 172.9 94.0, 173.2 94.4 Q 173.6 94.9, 174.2 94.9 " fill="#FF0000"/>
<path class="atom-88" d="M 176.9 91.0 L 177.4 91.0 L 177.4 92.8 L 179.6 92.8 L 179.6 91.0 L 180.2 91.0 L 180.2 95.3 L 179.6 95.3 L 179.6 93.3 L 177.4 93.3 L 177.4 95.3 L 176.9 95.3 L 176.9 91.0 " fill="#FF0000"/>
<path class="atom-89" d="M 155.8 94.8 Q 155.8 93.8, 156.3 93.2 Q 156.8 92.6, 157.8 92.6 Q 158.7 92.6, 159.2 93.2 Q 159.7 93.8, 159.7 94.8 Q 159.7 95.8, 159.2 96.4 Q 158.7 97.0, 157.8 97.0 Q 156.8 97.0, 156.3 96.4 Q 155.8 95.8, 155.8 94.8 M 157.8 96.5 Q 158.4 96.5, 158.8 96.1 Q 159.1 95.6, 159.1 94.8 Q 159.1 93.9, 158.8 93.5 Q 158.4 93.1, 157.8 93.1 Q 157.1 93.1, 156.8 93.5 Q 156.4 93.9, 156.4 94.8 Q 156.4 95.6, 156.8 96.1 Q 157.1 96.5, 157.8 96.5 " fill="#FF0000"/>
<path class="atom-92" d="M 137.4 78.8 Q 137.4 77.8, 137.9 77.2 Q 138.4 76.6, 139.3 76.6 Q 140.2 76.6, 140.8 77.2 Q 141.3 77.8, 141.3 78.8 Q 141.3 79.8, 140.7 80.4 Q 140.2 81.0, 139.3 81.0 Q 138.4 81.0, 137.9 80.4 Q 137.4 79.8, 137.4 78.8 M 139.3 80.5 Q 140.0 80.5, 140.3 80.1 Q 140.7 79.6, 140.7 78.8 Q 140.7 77.9, 140.3 77.5 Q 140.0 77.1, 139.3 77.1 Q 138.7 77.1, 138.3 77.5 Q 138.0 77.9, 138.0 78.8 Q 138.0 79.6, 138.3 80.1 Q 138.7 80.5, 139.3 80.5 " fill="#FF0000"/>
<path class="atom-94" d="M 120.4 66.1 L 121.8 68.4 Q 121.9 68.6, 122.1 69.0 Q 122.3 69.4, 122.4 69.4 L 122.4 66.1 L 122.9 66.1 L 122.9 70.4 L 122.3 70.4 L 120.8 67.9 Q 120.7 67.6, 120.5 67.3 Q 120.3 66.9, 120.3 66.8 L 120.3 70.4 L 119.7 70.4 L 119.7 66.1 L 120.4 66.1 " fill="#0000FF"/>
<path class="atom-96" d="M 102.1 70.9 L 103.5 73.1 Q 103.6 73.4, 103.8 73.8 Q 104.0 74.2, 104.0 74.2 L 104.0 70.9 L 104.6 70.9 L 104.6 75.1 L 104.0 75.1 L 102.5 72.7 Q 102.4 72.4, 102.2 72.1 Q 102.0 71.7, 101.9 71.6 L 101.9 75.1 L 101.4 75.1 L 101.4 70.9 L 102.1 70.9 " fill="#0000FF"/>
<path class="atom-99" d="M 75.9 53.9 L 76.5 53.9 L 76.5 55.7 L 78.7 55.7 L 78.7 53.9 L 79.3 53.9 L 79.3 58.1 L 78.7 58.1 L 78.7 56.1 L 76.5 56.1 L 76.5 58.1 L 75.9 58.1 L 75.9 53.9 " fill="#0000FF"/>
<path class="atom-99" d="M 80.1 58.0 Q 80.2 57.7, 80.4 57.5 Q 80.7 57.4, 81.0 57.4 Q 81.5 57.4, 81.7 57.6 Q 81.9 57.9, 81.9 58.3 Q 81.9 58.7, 81.6 59.1 Q 81.3 59.5, 80.7 59.9 L 82.0 59.9 L 82.0 60.2 L 80.1 60.2 L 80.1 60.0 Q 80.6 59.6, 80.9 59.3 Q 81.2 59.0, 81.4 58.8 Q 81.5 58.5, 81.5 58.3 Q 81.5 58.0, 81.4 57.9 Q 81.3 57.7, 81.0 57.7 Q 80.8 57.7, 80.7 57.8 Q 80.5 57.9, 80.4 58.1 L 80.1 58.0 " fill="#0000FF"/>
<path class="atom-99" d="M 83.2 53.9 L 84.6 56.1 Q 84.7 56.3, 85.0 56.7 Q 85.2 57.1, 85.2 57.2 L 85.2 53.9 L 85.8 53.9 L 85.8 58.1 L 85.2 58.1 L 83.7 55.6 Q 83.5 55.4, 83.3 55.0 Q 83.1 54.7, 83.1 54.6 L 83.1 58.1 L 82.5 58.1 L 82.5 53.9 L 83.2 53.9 " fill="#0000FF"/>
<path class="atom-100" d="M 97.6 39.6 L 99.0 41.9 Q 99.1 42.1, 99.4 42.5 Q 99.6 42.9, 99.6 42.9 L 99.6 39.6 L 100.2 39.6 L 100.2 43.9 L 99.6 43.9 L 98.1 41.4 Q 97.9 41.1, 97.7 40.8 Q 97.6 40.5, 97.5 40.4 L 97.5 43.9 L 96.9 43.9 L 96.9 39.6 L 97.6 39.6 " fill="#0000FF"/>
<path class="atom-102" d="M 117.2 45.0 L 118.6 47.2 Q 118.7 47.4, 118.9 47.8 Q 119.1 48.3, 119.1 48.3 L 119.1 45.0 L 119.7 45.0 L 119.7 49.2 L 119.1 49.2 L 117.6 46.8 Q 117.5 46.5, 117.3 46.1 Q 117.1 45.8, 117.0 45.7 L 117.0 49.2 L 116.5 49.2 L 116.5 45.0 L 117.2 45.0 " fill="#0000FF"/>
<path class="atom-105" d="M 135.5 48.6 Q 135.5 47.5, 136.0 47.0 Q 136.5 46.4, 137.5 46.4 Q 138.4 46.4, 138.9 47.0 Q 139.4 47.5, 139.4 48.6 Q 139.4 49.6, 138.9 50.2 Q 138.4 50.8, 137.5 50.8 Q 136.5 50.8, 136.0 50.2 Q 135.5 49.6, 135.5 48.6 M 137.5 50.3 Q 138.1 50.3, 138.4 49.8 Q 138.8 49.4, 138.8 48.6 Q 138.8 47.7, 138.4 47.3 Q 138.1 46.9, 137.5 46.9 Q 136.8 46.9, 136.4 47.3 Q 136.1 47.7, 136.1 48.6 Q 136.1 49.4, 136.4 49.8 Q 136.8 50.3, 137.5 50.3 " fill="#FF0000"/>
<path class="atom-105" d="M 140.1 46.4 L 140.6 46.4 L 140.6 48.3 L 142.8 48.3 L 142.8 46.4 L 143.4 46.4 L 143.4 50.7 L 142.8 50.7 L 142.8 48.7 L 140.6 48.7 L 140.6 50.7 L 140.1 50.7 L 140.1 46.4 " fill="#FF0000"/>
<path class="atom-107" d="M 159.2 57.8 Q 159.2 56.8, 159.7 56.2 Q 160.2 55.7, 161.2 55.7 Q 162.1 55.7, 162.6 56.2 Q 163.1 56.8, 163.1 57.8 Q 163.1 58.9, 162.6 59.4 Q 162.1 60.0, 161.2 60.0 Q 160.2 60.0, 159.7 59.4 Q 159.2 58.9, 159.2 57.8 M 161.2 59.5 Q 161.8 59.5, 162.2 59.1 Q 162.5 58.7, 162.5 57.8 Q 162.5 57.0, 162.2 56.6 Q 161.8 56.1, 161.2 56.1 Q 160.5 56.1, 160.2 56.6 Q 159.8 57.0, 159.8 57.8 Q 159.8 58.7, 160.2 59.1 Q 160.5 59.5, 161.2 59.5 " fill="#FF0000"/>
<path class="atom-108" d="M 171.5 61.1 Q 172.2 61.1, 172.5 61.4 Q 172.9 61.7, 172.9 62.3 Q 172.9 62.9, 172.5 63.2 Q 172.2 63.6, 171.5 63.6 L 170.8 63.6 L 170.8 65.3 L 170.2 65.3 L 170.2 61.1 L 171.5 61.1 M 171.5 63.1 Q 171.9 63.1, 172.1 62.9 Q 172.3 62.7, 172.3 62.3 Q 172.3 61.9, 172.1 61.7 Q 171.9 61.5, 171.5 61.5 L 170.8 61.5 L 170.8 63.1 L 171.5 63.1 " fill="#FF7F00"/>
<path class="atom-109" d="M 175.0 52.8 Q 175.0 51.8, 175.5 51.2 Q 176.0 50.6, 176.9 50.6 Q 177.9 50.6, 178.4 51.2 Q 178.9 51.8, 178.9 52.8 Q 178.9 53.8, 178.4 54.4 Q 177.9 55.0, 176.9 55.0 Q 176.0 55.0, 175.5 54.4 Q 175.0 53.8, 175.0 52.8 M 176.9 54.5 Q 177.6 54.5, 177.9 54.1 Q 178.3 53.7, 178.3 52.8 Q 178.3 52.0, 177.9 51.6 Q 177.6 51.1, 176.9 51.1 Q 176.3 51.1, 175.9 51.5 Q 175.6 52.0, 175.6 52.8 Q 175.6 53.7, 175.9 54.1 Q 176.3 54.5, 176.9 54.5 " fill="#FF0000"/>
<path class="atom-110" d="M 160.0 71.5 L 160.6 71.5 L 160.6 73.3 L 162.8 73.3 L 162.8 71.5 L 163.4 71.5 L 163.4 75.7 L 162.8 75.7 L 162.8 73.8 L 160.6 73.8 L 160.6 75.7 L 160.0 75.7 L 160.0 71.5 " fill="#FF0000"/>
<path class="atom-110" d="M 164.2 73.6 Q 164.2 72.6, 164.7 72.0 Q 165.2 71.4, 166.2 71.4 Q 167.1 71.4, 167.6 72.0 Q 168.1 72.6, 168.1 73.6 Q 168.1 74.6, 167.6 75.2 Q 167.1 75.8, 166.2 75.8 Q 165.2 75.8, 164.7 75.2 Q 164.2 74.6, 164.2 73.6 M 166.2 75.3 Q 166.8 75.3, 167.2 74.9 Q 167.5 74.4, 167.5 73.6 Q 167.5 72.8, 167.2 72.3 Q 166.8 71.9, 166.2 71.9 Q 165.5 71.9, 165.2 72.3 Q 164.8 72.8, 164.8 73.6 Q 164.8 74.4, 165.2 74.9 Q 165.5 75.3, 166.2 75.3 " fill="#FF0000"/>
<path class="atom-111" d="M 180.0 68.6 Q 180.0 67.6, 180.5 67.0 Q 181.0 66.4, 181.9 66.4 Q 182.9 66.4, 183.4 67.0 Q 183.9 67.6, 183.9 68.6 Q 183.9 69.6, 183.4 70.2 Q 182.9 70.8, 181.9 70.8 Q 181.0 70.8, 180.5 70.2 Q 180.0 69.6, 180.0 68.6 M 181.9 70.3 Q 182.6 70.3, 182.9 69.9 Q 183.3 69.4, 183.3 68.6 Q 183.3 67.7, 182.9 67.3 Q 182.6 66.9, 181.9 66.9 Q 181.3 66.9, 180.9 67.3 Q 180.6 67.7, 180.6 68.6 Q 180.6 69.4, 180.9 69.9 Q 181.3 70.3, 181.9 70.3 " fill="#FF0000"/>
<path class="atom-111" d="M 184.6 66.5 L 185.1 66.5 L 185.1 68.3 L 187.3 68.3 L 187.3 66.5 L 187.9 66.5 L 187.9 70.7 L 187.3 70.7 L 187.3 68.7 L 185.1 68.7 L 185.1 70.7 L 184.6 70.7 L 184.6 66.5 " fill="#FF0000"/>
<path class="atom-113" d="M 269.1 30.4 Q 269.1 29.4, 269.6 28.8 Q 270.1 28.3, 271.1 28.3 Q 272.0 28.3, 272.5 28.8 Q 273.0 29.4, 273.0 30.4 Q 273.0 31.5, 272.5 32.0 Q 272.0 32.6, 271.1 32.6 Q 270.1 32.6, 269.6 32.0 Q 269.1 31.5, 269.1 30.4 M 271.1 32.1 Q 271.7 32.1, 272.0 31.7 Q 272.4 31.3, 272.4 30.4 Q 272.4 29.6, 272.0 29.2 Q 271.7 28.7, 271.1 28.7 Q 270.4 28.7, 270.0 29.2 Q 269.7 29.6, 269.7 30.4 Q 269.7 31.3, 270.0 31.7 Q 270.4 32.1, 271.1 32.1 " fill="#FF0000"/>
<path class="atom-114" d="M 262.0 11.5 Q 262.0 10.4, 262.5 9.9 Q 263.0 9.3, 263.9 9.3 Q 264.8 9.3, 265.3 9.9 Q 265.9 10.4, 265.9 11.5 Q 265.9 12.5, 265.3 13.1 Q 264.8 13.7, 263.9 13.7 Q 263.0 13.7, 262.5 13.1 Q 262.0 12.5, 262.0 11.5 M 263.9 13.2 Q 264.6 13.2, 264.9 12.7 Q 265.3 12.3, 265.3 11.5 Q 265.3 10.6, 264.9 10.2 Q 264.6 9.8, 263.9 9.8 Q 263.3 9.8, 262.9 10.2 Q 262.6 10.6, 262.6 11.5 Q 262.6 12.3, 262.9 12.7 Q 263.3 13.2, 263.9 13.2 " fill="#FF0000"/>
<path class="atom-114" d="M 266.5 9.3 L 267.1 9.3 L 267.1 11.2 L 269.3 11.2 L 269.3 9.3 L 269.8 9.3 L 269.8 13.6 L 269.3 13.6 L 269.3 11.6 L 267.1 11.6 L 267.1 13.6 L 266.5 13.6 L 266.5 9.3 " fill="#FF0000"/>
</svg>
