<?xml version='1.0' encoding='ASCII' standalone='yes'?>
<svg xmlns="http://www.w3.org/2000/svg" xmlns:rdkit="http://www.rdkit.org/xml" xmlns:xlink="http://www.w3.org/1999/xlink" version="1.1" baseProfile="full" xml:space="preserve" width="260px" height="200px" viewBox="0 0 260 200">
<!-- END OF HEADER -->
<rect style="opacity:1.0;fill:#FFFFFF;stroke:none" width="260.0" height="200.0" x="0.0" y="0.0"> </rect>
<path class="bond-0 atom-0 atom-1" d="M 230.6,10.1 L 204.6,52.7" style="fill:none;fill-rule:evenodd;stroke:#000000;stroke-width:2.0px;stroke-linecap:butt;stroke-linejoin:miter;stroke-opacity:1"/>
<path class="bond-1 atom-1 atom-2" d="M 204.6,52.7 L 154.8,51.5" style="fill:none;fill-rule:evenodd;stroke:#000000;stroke-width:2.0px;stroke-linecap:butt;stroke-linejoin:miter;stroke-opacity:1"/>
<path class="bond-2 atom-2 atom-3" d="M 154.8,51.5 L 128.9,94.0" style="fill:none;fill-rule:evenodd;stroke:#000000;stroke-width:2.0px;stroke-linecap:butt;stroke-linejoin:miter;stroke-opacity:1"/>
<path class="bond-3 atom-3 atom-4" d="M 128.9,94.0 L 79.1,92.9" style="fill:none;fill-rule:evenodd;stroke:#000000;stroke-width:2.0px;stroke-linecap:butt;stroke-linejoin:miter;stroke-opacity:1"/>
<path class="bond-4 atom-4 atom-5" d="M 79.1,92.9 L 29.3,91.7" style="fill:none;fill-rule:evenodd;stroke:#000000;stroke-width:2.0px;stroke-linecap:butt;stroke-linejoin:miter;stroke-opacity:1"/>
<path class="bond-5 atom-4 atom-6" d="M 79.1,92.9 L 80.3,43.1" style="fill:none;fill-rule:evenodd;stroke:#000000;stroke-width:2.0px;stroke-linecap:butt;stroke-linejoin:miter;stroke-opacity:1"/>
<path class="bond-6 atom-6 atom-7" d="M 80.3,43.1 L 63.1,32.6" style="fill:none;fill-rule:evenodd;stroke:#000000;stroke-width:2.0px;stroke-linecap:butt;stroke-linejoin:miter;stroke-opacity:1"/>
<path class="bond-6 atom-6 atom-7" d="M 63.1,32.6 L 45.9,22.1" style="fill:none;fill-rule:evenodd;stroke:#FF0000;stroke-width:2.0px;stroke-linecap:butt;stroke-linejoin:miter;stroke-opacity:1"/>
<path class="bond-7 atom-4 atom-8" d="M 79.1,92.9 L 77.9,142.7" style="fill:none;fill-rule:evenodd;stroke:#000000;stroke-width:2.0px;stroke-linecap:butt;stroke-linejoin:miter;stroke-opacity:1"/>
<path class="bond-8 atom-8 atom-9" d="M 74.1,144.7 L 92.3,155.8" style="fill:none;fill-rule:evenodd;stroke:#000000;stroke-width:2.0px;stroke-linecap:butt;stroke-linejoin:miter;stroke-opacity:1"/>
<path class="bond-8 atom-8 atom-9" d="M 92.3,155.8 L 110.4,166.8" style="fill:none;fill-rule:evenodd;stroke:#FF0000;stroke-width:2.0px;stroke-linecap:butt;stroke-linejoin:miter;stroke-opacity:1"/>
<path class="bond-8 atom-8 atom-9" d="M 78.0,138.3 L 96.2,149.4" style="fill:none;fill-rule:evenodd;stroke:#000000;stroke-width:2.0px;stroke-linecap:butt;stroke-linejoin:miter;stroke-opacity:1"/>
<path class="bond-8 atom-8 atom-9" d="M 96.2,149.4 L 114.3,160.4" style="fill:none;fill-rule:evenodd;stroke:#FF0000;stroke-width:2.0px;stroke-linecap:butt;stroke-linejoin:miter;stroke-opacity:1"/>
<path class="bond-9 atom-8 atom-10" d="M 77.9,142.7 L 60.1,152.4" style="fill:none;fill-rule:evenodd;stroke:#000000;stroke-width:2.0px;stroke-linecap:butt;stroke-linejoin:miter;stroke-opacity:1"/>
<path class="bond-9 atom-8 atom-10" d="M 60.1,152.4 L 42.3,162.1" style="fill:none;fill-rule:evenodd;stroke:#FF0000;stroke-width:2.0px;stroke-linecap:butt;stroke-linejoin:miter;stroke-opacity:1"/>
<path class="bond-10 atom-1 atom-11" d="M 204.6,52.7 L 228.5,96.4" style="fill:none;fill-rule:evenodd;stroke:#000000;stroke-width:2.0px;stroke-linecap:butt;stroke-linejoin:miter;stroke-opacity:1"/>
<path class="bond-11 atom-11 atom-12" d="M 228.5,96.4 L 202.6,138.9" style="fill:none;fill-rule:evenodd;stroke:#000000;stroke-width:2.0px;stroke-linecap:butt;stroke-linejoin:miter;stroke-opacity:1"/>
<path class="bond-12 atom-12 atom-13" d="M 202.6,138.9 L 212.1,156.4" style="fill:none;fill-rule:evenodd;stroke:#000000;stroke-width:2.0px;stroke-linecap:butt;stroke-linejoin:miter;stroke-opacity:1"/>
<path class="bond-12 atom-12 atom-13" d="M 212.1,156.4 L 221.7,173.9" style="fill:none;fill-rule:evenodd;stroke:#FF0000;stroke-width:2.0px;stroke-linecap:butt;stroke-linejoin:miter;stroke-opacity:1"/>
<path class="bond-13 atom-12 atom-14" d="M 202.6,138.9 L 181.8,138.4" style="fill:none;fill-rule:evenodd;stroke:#000000;stroke-width:2.0px;stroke-linecap:butt;stroke-linejoin:miter;stroke-opacity:1"/>
<path class="bond-13 atom-12 atom-14" d="M 181.8,138.4 L 160.9,137.9" style="fill:none;fill-rule:evenodd;stroke:#FF0000;stroke-width:2.0px;stroke-linecap:butt;stroke-linejoin:miter;stroke-opacity:1"/>
<path d="M 157.3,51.6 L 154.8,51.5 L 153.5,53.6" style="fill:none;stroke:#000000;stroke-width:2.0px;stroke-linecap:butt;stroke-linejoin:miter;stroke-opacity:1;"/>
<path d="M 130.2,91.9 L 128.9,94.0 L 126.4,94.0" style="fill:none;stroke:#000000;stroke-width:2.0px;stroke-linecap:butt;stroke-linejoin:miter;stroke-opacity:1;"/>
<path d="M 80.2,45.5 L 80.3,43.1 L 79.4,42.5" style="fill:none;stroke:#000000;stroke-width:2.0px;stroke-linecap:butt;stroke-linejoin:miter;stroke-opacity:1;"/>
<path d="M 78.0,140.2 L 77.9,142.7 L 77.0,143.1" style="fill:none;stroke:#000000;stroke-width:2.0px;stroke-linecap:butt;stroke-linejoin:miter;stroke-opacity:1;"/>
<path d="M 227.3,94.2 L 228.5,96.4 L 227.2,98.5" style="fill:none;stroke:#000000;stroke-width:2.0px;stroke-linecap:butt;stroke-linejoin:miter;stroke-opacity:1;"/>
<path class="atom-7" d="M 17.3 10.2 L 19.3 10.2 L 19.3 16.2 L 26.5 16.2 L 26.5 10.2 L 28.4 10.2 L 28.4 24.3 L 26.5 24.3 L 26.5 17.8 L 19.3 17.8 L 19.3 24.3 L 17.3 24.3 L 17.3 10.2 " fill="#FF0000"/>
<path class="atom-7" d="M 31.3 17.2 Q 31.3 13.8, 32.9 11.9 Q 34.6 10.0, 37.7 10.0 Q 40.9 10.0, 42.5 11.9 Q 44.2 13.8, 44.2 17.2 Q 44.2 20.6, 42.5 22.6 Q 40.8 24.5, 37.7 24.5 Q 34.6 24.5, 32.9 22.6 Q 31.3 20.6, 31.3 17.2 M 37.7 22.9 Q 39.9 22.9, 41.1 21.5 Q 42.2 20.0, 42.2 17.2 Q 42.2 14.4, 41.1 13.0 Q 39.9 11.6, 37.7 11.6 Q 35.6 11.6, 34.4 13.0 Q 33.3 14.4, 33.3 17.2 Q 33.3 20.0, 34.4 21.5 Q 35.6 22.9, 37.7 22.9 " fill="#FF0000"/>
<path class="atom-9" d="M 114.0 168.6 Q 114.0 165.2, 115.7 163.3 Q 117.3 161.4, 120.5 161.4 Q 123.6 161.4, 125.3 163.3 Q 127.0 165.2, 127.0 168.6 Q 127.0 172.0, 125.3 174.0 Q 123.6 175.9, 120.5 175.9 Q 117.4 175.9, 115.7 174.0 Q 114.0 172.1, 114.0 168.6 M 120.5 174.3 Q 122.6 174.3, 123.8 172.9 Q 125.0 171.4, 125.0 168.6 Q 125.0 165.8, 123.8 164.5 Q 122.6 163.0, 120.5 163.0 Q 118.3 163.0, 117.1 164.4 Q 116.0 165.8, 116.0 168.6 Q 116.0 171.5, 117.1 172.9 Q 118.3 174.3, 120.5 174.3 " fill="#FF0000"/>
<path class="atom-10" d="M 13.8 159.6 L 15.7 159.6 L 15.7 165.6 L 22.9 165.6 L 22.9 159.6 L 24.8 159.6 L 24.8 173.7 L 22.9 173.7 L 22.9 167.2 L 15.7 167.2 L 15.7 173.7 L 13.8 173.7 L 13.8 159.6 " fill="#FF0000"/>
<path class="atom-10" d="M 27.7 166.6 Q 27.7 163.2, 29.4 161.3 Q 31.1 159.4, 34.2 159.4 Q 37.3 159.4, 39.0 161.3 Q 40.7 163.2, 40.7 166.6 Q 40.7 170.0, 39.0 172.0 Q 37.3 173.9, 34.2 173.9 Q 31.1 173.9, 29.4 172.0 Q 27.7 170.0, 27.7 166.6 M 34.2 172.3 Q 36.4 172.3, 37.5 170.9 Q 38.7 169.4, 38.7 166.6 Q 38.7 163.8, 37.5 162.4 Q 36.4 161.0, 34.2 161.0 Q 32.1 161.0, 30.9 162.4 Q 29.7 163.8, 29.7 166.6 Q 29.7 169.4, 30.9 170.9 Q 32.1 172.3, 34.2 172.3 " fill="#FF0000"/>
<path class="atom-13" d="M 220.0 182.7 Q 220.0 179.3, 221.7 177.4 Q 223.4 175.5, 226.5 175.5 Q 229.6 175.5, 231.3 177.4 Q 233.0 179.3, 233.0 182.7 Q 233.0 186.1, 231.3 188.1 Q 229.6 190.0, 226.5 190.0 Q 223.4 190.0, 221.7 188.1 Q 220.0 186.1, 220.0 182.7 M 226.5 188.4 Q 228.6 188.4, 229.8 187.0 Q 231.0 185.5, 231.0 182.7 Q 231.0 179.9, 229.8 178.5 Q 228.6 177.1, 226.5 177.1 Q 224.3 177.1, 223.2 178.5 Q 222.0 179.9, 222.0 182.7 Q 222.0 185.5, 223.2 187.0 Q 224.3 188.4, 226.5 188.4 " fill="#FF0000"/>
<path class="atom-13" d="M 235.2 175.7 L 237.1 175.7 L 237.1 181.7 L 244.3 181.7 L 244.3 175.7 L 246.2 175.7 L 246.2 189.8 L 244.3 189.8 L 244.3 183.3 L 237.1 183.3 L 237.1 189.8 L 235.2 189.8 L 235.2 175.7 " fill="#FF0000"/>
<path class="atom-14" d="M 132.4 130.8 L 134.3 130.8 L 134.3 136.8 L 141.5 136.8 L 141.5 130.8 L 143.4 130.8 L 143.4 144.9 L 141.5 144.9 L 141.5 138.4 L 134.3 138.4 L 134.3 144.9 L 132.4 144.9 L 132.4 130.8 " fill="#FF0000"/>
<path class="atom-14" d="M 146.3 137.8 Q 146.3 134.4, 148.0 132.5 Q 149.7 130.6, 152.8 130.6 Q 155.9 130.6, 157.6 132.5 Q 159.3 134.4, 159.3 137.8 Q 159.3 141.2, 157.6 143.2 Q 155.9 145.1, 152.8 145.1 Q 149.7 145.1, 148.0 143.2 Q 146.3 141.2, 146.3 137.8 M 152.8 143.5 Q 154.9 143.5, 156.1 142.1 Q 157.3 140.6, 157.3 137.8 Q 157.3 135.0, 156.1 133.6 Q 154.9 132.2, 152.8 132.2 Q 150.6 132.2, 149.5 133.6 Q 148.3 135.0, 148.3 137.8 Q 148.3 140.6, 149.5 142.1 Q 150.6 143.5, 152.8 143.5 " fill="#FF0000"/>
</svg>
