<?xml version='1.0' encoding='ASCII' standalone='yes'?>
<svg xmlns="http://www.w3.org/2000/svg" xmlns:rdkit="http://www.rdkit.org/xml" xmlns:xlink="http://www.w3.org/1999/xlink" version="1.1" baseProfile="full" xml:space="preserve" width="240px" height="200px" viewBox="0 0 240 200">
<!-- END OF HEADER -->
<rect style="opacity:1.0;fill:#FFFFFF;stroke:none" width="240.0" height="200.0" x="0.0" y="0.0"> </rect>
<path class="bond-0 atom-0 atom-1" d="M 20.4,92.5 L 31.7,99.6" style="fill:none;fill-rule:evenodd;stroke:#FF0000;stroke-width:2.0px;stroke-linecap:butt;stroke-linejoin:miter;stroke-opacity:1"/>
<path class="bond-0 atom-0 atom-1" d="M 31.7,99.6 L 43.1,106.7" style="fill:none;fill-rule:evenodd;stroke:#000000;stroke-width:2.0px;stroke-linecap:butt;stroke-linejoin:miter;stroke-opacity:1"/>
<path class="bond-0 atom-0 atom-1" d="M 23.0,88.3 L 34.3,95.4" style="fill:none;fill-rule:evenodd;stroke:#FF0000;stroke-width:2.0px;stroke-linecap:butt;stroke-linejoin:miter;stroke-opacity:1"/>
<path class="bond-0 atom-0 atom-1" d="M 34.3,95.4 L 43.3,101.0" style="fill:none;fill-rule:evenodd;stroke:#000000;stroke-width:2.0px;stroke-linecap:butt;stroke-linejoin:miter;stroke-opacity:1"/>
<path class="bond-1 atom-1 atom-2" d="M 43.1,106.7 L 72.3,91.2" style="fill:none;fill-rule:evenodd;stroke:#000000;stroke-width:2.0px;stroke-linecap:butt;stroke-linejoin:miter;stroke-opacity:1"/>
<path class="bond-2 atom-2 atom-3" d="M 72.3,91.2 L 72.7,77.6" style="fill:none;fill-rule:evenodd;stroke:#000000;stroke-width:2.0px;stroke-linecap:butt;stroke-linejoin:miter;stroke-opacity:1"/>
<path class="bond-2 atom-2 atom-3" d="M 72.7,77.6 L 73.2,64.1" style="fill:none;fill-rule:evenodd;stroke:#FF0000;stroke-width:2.0px;stroke-linecap:butt;stroke-linejoin:miter;stroke-opacity:1"/>
<path class="bond-3 atom-2 atom-4" d="M 72.3,91.2 L 100.3,108.7" style="fill:none;fill-rule:evenodd;stroke:#000000;stroke-width:2.0px;stroke-linecap:butt;stroke-linejoin:miter;stroke-opacity:1"/>
<path class="bond-4 atom-4 atom-5" d="M 100.3,108.7 L 99.9,122.3" style="fill:none;fill-rule:evenodd;stroke:#000000;stroke-width:2.0px;stroke-linecap:butt;stroke-linejoin:miter;stroke-opacity:1"/>
<path class="bond-4 atom-4 atom-5" d="M 99.9,122.3 L 99.4,135.9" style="fill:none;fill-rule:evenodd;stroke:#FF0000;stroke-width:2.0px;stroke-linecap:butt;stroke-linejoin:miter;stroke-opacity:1"/>
<path class="bond-5 atom-4 atom-6" d="M 100.3,108.7 L 129.6,93.2" style="fill:none;fill-rule:evenodd;stroke:#000000;stroke-width:2.0px;stroke-linecap:butt;stroke-linejoin:miter;stroke-opacity:1"/>
<path class="bond-6 atom-6 atom-7" d="M 129.6,93.2 L 130.0,79.6" style="fill:none;fill-rule:evenodd;stroke:#000000;stroke-width:2.0px;stroke-linecap:butt;stroke-linejoin:miter;stroke-opacity:1"/>
<path class="bond-6 atom-6 atom-7" d="M 130.0,79.6 L 130.5,66.1" style="fill:none;fill-rule:evenodd;stroke:#FF0000;stroke-width:2.0px;stroke-linecap:butt;stroke-linejoin:miter;stroke-opacity:1"/>
<path class="bond-7 atom-6 atom-8" d="M 129.6,93.2 L 157.6,110.7" style="fill:none;fill-rule:evenodd;stroke:#000000;stroke-width:2.0px;stroke-linecap:butt;stroke-linejoin:miter;stroke-opacity:1"/>
<path class="bond-8 atom-8 atom-9" d="M 157.6,110.7 L 186.8,95.2" style="fill:none;fill-rule:evenodd;stroke:#000000;stroke-width:2.0px;stroke-linecap:butt;stroke-linejoin:miter;stroke-opacity:1"/>
<path class="bond-9 atom-9 atom-10" d="M 189.3,96.7 L 189.8,82.4" style="fill:none;fill-rule:evenodd;stroke:#000000;stroke-width:2.0px;stroke-linecap:butt;stroke-linejoin:miter;stroke-opacity:1"/>
<path class="bond-9 atom-9 atom-10" d="M 189.8,82.4 L 190.3,68.2" style="fill:none;fill-rule:evenodd;stroke:#FF0000;stroke-width:2.0px;stroke-linecap:butt;stroke-linejoin:miter;stroke-opacity:1"/>
<path class="bond-9 atom-9 atom-10" d="M 184.3,96.5 L 184.8,82.2" style="fill:none;fill-rule:evenodd;stroke:#000000;stroke-width:2.0px;stroke-linecap:butt;stroke-linejoin:miter;stroke-opacity:1"/>
<path class="bond-9 atom-9 atom-10" d="M 184.8,82.2 L 185.3,68.0" style="fill:none;fill-rule:evenodd;stroke:#FF0000;stroke-width:2.0px;stroke-linecap:butt;stroke-linejoin:miter;stroke-opacity:1"/>
<path class="bond-10 atom-9 atom-11" d="M 186.8,95.2 L 198.2,102.2" style="fill:none;fill-rule:evenodd;stroke:#000000;stroke-width:2.0px;stroke-linecap:butt;stroke-linejoin:miter;stroke-opacity:1"/>
<path class="bond-10 atom-9 atom-11" d="M 198.2,102.2 L 209.5,109.3" style="fill:none;fill-rule:evenodd;stroke:#FF0000;stroke-width:2.0px;stroke-linecap:butt;stroke-linejoin:miter;stroke-opacity:1"/>
<path d="M 42.5,106.3 L 43.1,106.7 L 44.5,105.9" style="fill:none;stroke:#000000;stroke-width:2.0px;stroke-linecap:butt;stroke-linejoin:miter;stroke-opacity:1;"/>
<path d="M 156.2,109.8 L 157.6,110.7 L 159.1,109.9" style="fill:none;stroke:#000000;stroke-width:2.0px;stroke-linecap:butt;stroke-linejoin:miter;stroke-opacity:1;"/>
<path d="M 185.4,95.9 L 186.8,95.2 L 187.4,95.5" style="fill:none;stroke:#000000;stroke-width:2.0px;stroke-linecap:butt;stroke-linejoin:miter;stroke-opacity:1;"/>
<path class="atom-0" d="M 12.0 87.1 Q 12.0 84.8, 13.1 83.6 Q 14.2 82.3, 16.3 82.3 Q 18.4 82.3, 19.5 83.6 Q 20.6 84.8, 20.6 87.1 Q 20.6 89.4, 19.5 90.7 Q 18.4 91.9, 16.3 91.9 Q 14.2 91.9, 13.1 90.7 Q 12.0 89.4, 12.0 87.1 M 16.3 90.9 Q 17.7 90.9, 18.5 89.9 Q 19.3 89.0, 19.3 87.1 Q 19.3 85.2, 18.5 84.3 Q 17.7 83.4, 16.3 83.4 Q 14.9 83.4, 14.1 84.3 Q 13.3 85.2, 13.3 87.1 Q 13.3 89.0, 14.1 89.9 Q 14.9 90.9, 16.3 90.9 " fill="#FF0000"/>
<path class="atom-3" d="M 69.1 58.1 Q 69.1 55.9, 70.2 54.6 Q 71.3 53.3, 73.4 53.3 Q 75.5 53.3, 76.6 54.6 Q 77.7 55.9, 77.7 58.1 Q 77.7 60.4, 76.6 61.7 Q 75.5 63.0, 73.4 63.0 Q 71.4 63.0, 70.2 61.7 Q 69.1 60.4, 69.1 58.1 M 73.4 61.9 Q 74.9 61.9, 75.6 61.0 Q 76.4 60.0, 76.4 58.1 Q 76.4 56.3, 75.6 55.3 Q 74.9 54.4, 73.4 54.4 Q 72.0 54.4, 71.2 55.3 Q 70.4 56.3, 70.4 58.1 Q 70.4 60.0, 71.2 61.0 Q 72.0 61.9, 73.4 61.9 " fill="#FF0000"/>
<path class="atom-3" d="M 79.2 53.5 L 80.5 53.5 L 80.5 57.4 L 85.3 57.4 L 85.3 53.5 L 86.5 53.5 L 86.5 62.8 L 85.3 62.8 L 85.3 58.5 L 80.5 58.5 L 80.5 62.8 L 79.2 62.8 L 79.2 53.5 " fill="#FF0000"/>
<path class="atom-5" d="M 94.9 141.8 Q 94.9 139.5, 96.0 138.3 Q 97.1 137.0, 99.2 137.0 Q 101.3 137.0, 102.4 138.3 Q 103.5 139.5, 103.5 141.8 Q 103.5 144.1, 102.4 145.4 Q 101.2 146.7, 99.2 146.7 Q 97.1 146.7, 96.0 145.4 Q 94.9 144.1, 94.9 141.8 M 99.2 145.6 Q 100.6 145.6, 101.4 144.6 Q 102.2 143.7, 102.2 141.8 Q 102.2 140.0, 101.4 139.0 Q 100.6 138.1, 99.2 138.1 Q 97.8 138.1, 97.0 139.0 Q 96.2 139.9, 96.2 141.8 Q 96.2 143.7, 97.0 144.6 Q 97.8 145.6, 99.2 145.6 " fill="#FF0000"/>
<path class="atom-5" d="M 104.9 137.1 L 106.2 137.1 L 106.2 141.1 L 111.0 141.1 L 111.0 137.1 L 112.3 137.1 L 112.3 146.5 L 111.0 146.5 L 111.0 142.2 L 106.2 142.2 L 106.2 146.5 L 104.9 146.5 L 104.9 137.1 " fill="#FF0000"/>
<path class="atom-7" d="M 126.4 60.1 Q 126.4 57.9, 127.5 56.6 Q 128.6 55.3, 130.7 55.3 Q 132.8 55.3, 133.9 56.6 Q 135.0 57.9, 135.0 60.1 Q 135.0 62.4, 133.9 63.7 Q 132.8 65.0, 130.7 65.0 Q 128.6 65.0, 127.5 63.7 Q 126.4 62.4, 126.4 60.1 M 130.7 63.9 Q 132.1 63.9, 132.9 63.0 Q 133.7 62.0, 133.7 60.1 Q 133.7 58.3, 132.9 57.3 Q 132.1 56.4, 130.7 56.4 Q 129.3 56.4, 128.5 57.3 Q 127.7 58.3, 127.7 60.1 Q 127.7 62.0, 128.5 63.0 Q 129.3 63.9, 130.7 63.9 " fill="#FF0000"/>
<path class="atom-7" d="M 136.5 55.5 L 137.7 55.5 L 137.7 59.4 L 142.5 59.4 L 142.5 55.5 L 143.8 55.5 L 143.8 64.8 L 142.5 64.8 L 142.5 60.5 L 137.7 60.5 L 137.7 64.8 L 136.5 64.8 L 136.5 55.5 " fill="#FF0000"/>
<path class="atom-10" d="M 183.7 62.1 Q 183.7 59.9, 184.8 58.6 Q 185.9 57.4, 188.0 57.4 Q 190.1 57.4, 191.2 58.6 Q 192.3 59.9, 192.3 62.1 Q 192.3 64.4, 191.2 65.7 Q 190.0 67.0, 188.0 67.0 Q 185.9 67.0, 184.8 65.7 Q 183.7 64.4, 183.7 62.1 M 188.0 65.9 Q 189.4 65.9, 190.2 65.0 Q 191.0 64.0, 191.0 62.1 Q 191.0 60.3, 190.2 59.3 Q 189.4 58.4, 188.0 58.4 Q 186.6 58.4, 185.8 59.3 Q 185.0 60.3, 185.0 62.1 Q 185.0 64.0, 185.8 65.0 Q 186.6 65.9, 188.0 65.9 " fill="#FF0000"/>
<path class="atom-11" d="M 210.6 112.7 Q 210.6 110.5, 211.7 109.2 Q 212.8 108.0, 214.9 108.0 Q 217.0 108.0, 218.1 109.2 Q 219.2 110.5, 219.2 112.7 Q 219.2 115.0, 218.1 116.3 Q 217.0 117.6, 214.9 117.6 Q 212.8 117.6, 211.7 116.3 Q 210.6 115.0, 210.6 112.7 M 214.9 116.5 Q 216.3 116.5, 217.1 115.6 Q 217.9 114.6, 217.9 112.7 Q 217.9 110.9, 217.1 110.0 Q 216.3 109.0, 214.9 109.0 Q 213.5 109.0, 212.7 109.9 Q 211.9 110.9, 211.9 112.7 Q 211.9 114.6, 212.7 115.6 Q 213.5 116.5, 214.9 116.5 " fill="#FF0000"/>
<path class="atom-11" d="M 220.7 108.1 L 221.9 108.1 L 221.9 112.1 L 226.7 112.1 L 226.7 108.1 L 228.0 108.1 L 228.0 117.4 L 226.7 117.4 L 226.7 113.1 L 221.9 113.1 L 221.9 117.4 L 220.7 117.4 L 220.7 108.1 " fill="#FF0000"/>
</svg>
