<?xml version='1.0' encoding='ASCII' standalone='yes'?>
<svg xmlns="http://www.w3.org/2000/svg" xmlns:rdkit="http://www.rdkit.org/xml" xmlns:xlink="http://www.w3.org/1999/xlink" version="1.1" baseProfile="full" xml:space="preserve" width="361px" height="200px" viewBox="0 0 361 200">
<!-- END OF HEADER -->
<rect style="opacity:1.0;fill:#FFFFFF;stroke:none" width="361.0" height="200.0" x="0.0" y="0.0"> </rect>
<path class="bond-0 atom-0 atom-1" d="M 139.7,100.7 L 153.6,123.4" style="fill:none;fill-rule:evenodd;stroke:#000000;stroke-width:2.0px;stroke-linecap:butt;stroke-linejoin:miter;stroke-opacity:1"/>
<path class="bond-1 atom-1 atom-2" d="M 153.6,123.4 L 140.9,146.8" style="fill:none;fill-rule:evenodd;stroke:#000000;stroke-width:2.0px;stroke-linecap:butt;stroke-linejoin:miter;stroke-opacity:1"/>
<path class="bond-2 atom-2 atom-3" d="M 140.9,146.8 L 128.3,170.2" style="fill:none;fill-rule:evenodd;stroke:#000000;stroke-width:2.0px;stroke-linecap:butt;stroke-linejoin:miter;stroke-opacity:1"/>
<path class="bond-3 atom-2 atom-4" d="M 140.9,146.8 L 164.4,159.5" style="fill:none;fill-rule:evenodd;stroke:#000000;stroke-width:2.0px;stroke-linecap:butt;stroke-linejoin:miter;stroke-opacity:1"/>
<path class="bond-4 atom-4 atom-5" d="M 164.4,159.5 L 164.7,170.4" style="fill:none;fill-rule:evenodd;stroke:#000000;stroke-width:2.0px;stroke-linecap:butt;stroke-linejoin:miter;stroke-opacity:1"/>
<path class="bond-4 atom-4 atom-5" d="M 164.7,170.4 L 165.0,181.4" style="fill:none;fill-rule:evenodd;stroke:#FF0000;stroke-width:2.0px;stroke-linecap:butt;stroke-linejoin:miter;stroke-opacity:1"/>
<path class="bond-5 atom-2 atom-6" d="M 140.9,146.8 L 117.5,134.1" style="fill:none;fill-rule:evenodd;stroke:#000000;stroke-width:2.0px;stroke-linecap:butt;stroke-linejoin:miter;stroke-opacity:1"/>
<path class="bond-6 atom-6 atom-7" d="M 117.5,134.1 L 94.8,148.0" style="fill:none;fill-rule:evenodd;stroke:#000000;stroke-width:2.0px;stroke-linecap:butt;stroke-linejoin:miter;stroke-opacity:1"/>
<path class="bond-7 atom-7 atom-8" d="M 94.8,148.0 L 71.4,135.4" style="fill:none;fill-rule:evenodd;stroke:#000000;stroke-width:2.0px;stroke-linecap:butt;stroke-linejoin:miter;stroke-opacity:1"/>
<path class="bond-8 atom-8 atom-9" d="M 71.4,135.4 L 48.0,122.7" style="fill:none;fill-rule:evenodd;stroke:#000000;stroke-width:2.0px;stroke-linecap:butt;stroke-linejoin:miter;stroke-opacity:1"/>
<path class="bond-9 atom-8 atom-10" d="M 71.4,135.4 L 84.1,112.0" style="fill:none;fill-rule:evenodd;stroke:#000000;stroke-width:2.0px;stroke-linecap:butt;stroke-linejoin:miter;stroke-opacity:1"/>
<path class="bond-10 atom-10 atom-11" d="M 84.1,112.0 L 70.1,89.3" style="fill:none;fill-rule:evenodd;stroke:#000000;stroke-width:2.0px;stroke-linecap:butt;stroke-linejoin:miter;stroke-opacity:1"/>
<path class="bond-11 atom-11 atom-12" d="M 70.1,89.3 L 82.8,65.9" style="fill:none;fill-rule:evenodd;stroke:#000000;stroke-width:2.0px;stroke-linecap:butt;stroke-linejoin:miter;stroke-opacity:1"/>
<path class="bond-12 atom-12 atom-13" d="M 82.8,65.9 L 86.3,52.1" style="fill:none;fill-rule:evenodd;stroke:#000000;stroke-width:2.0px;stroke-linecap:butt;stroke-linejoin:miter;stroke-opacity:1"/>
<path class="bond-13 atom-12 atom-14" d="M 82.8,65.9 L 59.4,53.2" style="fill:none;fill-rule:evenodd;stroke:#000000;stroke-width:2.0px;stroke-linecap:butt;stroke-linejoin:miter;stroke-opacity:1"/>
<path class="bond-14 atom-14 atom-15" d="M 59.4,53.2 L 59.1,42.3" style="fill:none;fill-rule:evenodd;stroke:#000000;stroke-width:2.0px;stroke-linecap:butt;stroke-linejoin:miter;stroke-opacity:1"/>
<path class="bond-14 atom-14 atom-15" d="M 59.1,42.3 L 58.8,31.3" style="fill:none;fill-rule:evenodd;stroke:#FF0000;stroke-width:2.0px;stroke-linecap:butt;stroke-linejoin:miter;stroke-opacity:1"/>
<path class="bond-15 atom-12 atom-16" d="M 82.8,65.9 L 106.2,78.5" style="fill:none;fill-rule:evenodd;stroke:#000000;stroke-width:2.0px;stroke-linecap:butt;stroke-linejoin:miter;stroke-opacity:1"/>
<path class="bond-16 atom-16 atom-17" d="M 106.2,78.5 L 128.9,64.6" style="fill:none;fill-rule:evenodd;stroke:#000000;stroke-width:2.0px;stroke-linecap:butt;stroke-linejoin:miter;stroke-opacity:1"/>
<path class="bond-17 atom-17 atom-18" d="M 128.9,64.6 L 152.3,77.3" style="fill:none;fill-rule:evenodd;stroke:#000000;stroke-width:2.0px;stroke-linecap:butt;stroke-linejoin:miter;stroke-opacity:1"/>
<path class="bond-18 atom-18 atom-19" d="M 152.3,77.3 L 175.0,63.3" style="fill:none;fill-rule:evenodd;stroke:#000000;stroke-width:2.0px;stroke-linecap:butt;stroke-linejoin:miter;stroke-opacity:1"/>
<path class="bond-19 atom-19 atom-20" d="M 175.0,63.3 L 167.8,40.5" style="fill:none;fill-rule:evenodd;stroke:#000000;stroke-width:2.0px;stroke-linecap:butt;stroke-linejoin:miter;stroke-opacity:1"/>
<path class="bond-20 atom-19 atom-21" d="M 175.0,63.3 L 197.7,49.4" style="fill:none;fill-rule:evenodd;stroke:#000000;stroke-width:2.0px;stroke-linecap:butt;stroke-linejoin:miter;stroke-opacity:1"/>
<path class="bond-21 atom-21 atom-22" d="M 197.7,49.4 L 207.3,54.5" style="fill:none;fill-rule:evenodd;stroke:#000000;stroke-width:2.0px;stroke-linecap:butt;stroke-linejoin:miter;stroke-opacity:1"/>
<path class="bond-21 atom-21 atom-22" d="M 207.3,54.5 L 216.8,59.7" style="fill:none;fill-rule:evenodd;stroke:#FF0000;stroke-width:2.0px;stroke-linecap:butt;stroke-linejoin:miter;stroke-opacity:1"/>
<path class="bond-22 atom-19 atom-23" d="M 175.0,63.3 L 189.0,86.0" style="fill:none;fill-rule:evenodd;stroke:#000000;stroke-width:2.0px;stroke-linecap:butt;stroke-linejoin:miter;stroke-opacity:1"/>
<path class="bond-23 atom-23 atom-24" d="M 189.0,86.0 L 215.6,85.3" style="fill:none;fill-rule:evenodd;stroke:#000000;stroke-width:2.0px;stroke-linecap:butt;stroke-linejoin:miter;stroke-opacity:1"/>
<path class="bond-24 atom-24 atom-25" d="M 215.6,85.3 L 229.5,108.0" style="fill:none;fill-rule:evenodd;stroke:#000000;stroke-width:2.0px;stroke-linecap:butt;stroke-linejoin:miter;stroke-opacity:1"/>
<path class="bond-25 atom-25 atom-26" d="M 229.5,108.0 L 206.8,121.9" style="fill:none;fill-rule:evenodd;stroke:#000000;stroke-width:2.0px;stroke-linecap:butt;stroke-linejoin:miter;stroke-opacity:1"/>
<path class="bond-26 atom-25 atom-27" d="M 229.5,108.0 L 252.2,94.0" style="fill:none;fill-rule:evenodd;stroke:#000000;stroke-width:2.0px;stroke-linecap:butt;stroke-linejoin:miter;stroke-opacity:1"/>
<path class="bond-27 atom-27 atom-28" d="M 252.2,94.0 L 275.6,106.7" style="fill:none;fill-rule:evenodd;stroke:#000000;stroke-width:2.0px;stroke-linecap:butt;stroke-linejoin:miter;stroke-opacity:1"/>
<path class="bond-28 atom-28 atom-29" d="M 275.6,106.7 L 298.3,92.7" style="fill:none;fill-rule:evenodd;stroke:#000000;stroke-width:2.0px;stroke-linecap:butt;stroke-linejoin:miter;stroke-opacity:1"/>
<path class="bond-29 atom-29 atom-30" d="M 298.3,92.7 L 284.4,70.1" style="fill:none;fill-rule:evenodd;stroke:#000000;stroke-width:2.0px;stroke-linecap:butt;stroke-linejoin:miter;stroke-opacity:1"/>
<path class="bond-30 atom-29 atom-31" d="M 298.3,92.7 L 312.3,115.4" style="fill:none;fill-rule:evenodd;stroke:#000000;stroke-width:2.0px;stroke-linecap:butt;stroke-linejoin:miter;stroke-opacity:1"/>
<path class="bond-31 atom-31 atom-32" d="M 312.3,115.4 L 338.9,114.7" style="fill:none;fill-rule:evenodd;stroke:#000000;stroke-width:2.0px;stroke-linecap:butt;stroke-linejoin:miter;stroke-opacity:1"/>
<path class="bond-32 atom-29 atom-33" d="M 298.3,92.7 L 321.0,78.8" style="fill:none;fill-rule:evenodd;stroke:#000000;stroke-width:2.0px;stroke-linecap:butt;stroke-linejoin:miter;stroke-opacity:1"/>
<path class="bond-33 atom-33 atom-34" d="M 321.0,78.8 L 320.7,67.9" style="fill:none;fill-rule:evenodd;stroke:#000000;stroke-width:2.0px;stroke-linecap:butt;stroke-linejoin:miter;stroke-opacity:1"/>
<path class="bond-33 atom-33 atom-34" d="M 320.7,67.9 L 320.4,57.0" style="fill:none;fill-rule:evenodd;stroke:#FF0000;stroke-width:2.0px;stroke-linecap:butt;stroke-linejoin:miter;stroke-opacity:1"/>
<path class="bond-34 atom-25 atom-35" d="M 229.5,108.0 L 243.5,130.6" style="fill:none;fill-rule:evenodd;stroke:#000000;stroke-width:2.0px;stroke-linecap:butt;stroke-linejoin:miter;stroke-opacity:1"/>
<path class="bond-35 atom-35 atom-36" d="M 242.4,132.6 L 254.1,132.3" style="fill:none;fill-rule:evenodd;stroke:#000000;stroke-width:2.0px;stroke-linecap:butt;stroke-linejoin:miter;stroke-opacity:1"/>
<path class="bond-35 atom-35 atom-36" d="M 254.1,132.3 L 265.8,132.0" style="fill:none;fill-rule:evenodd;stroke:#FF0000;stroke-width:2.0px;stroke-linecap:butt;stroke-linejoin:miter;stroke-opacity:1"/>
<path class="bond-35 atom-35 atom-36" d="M 242.3,128.7 L 254.0,128.4" style="fill:none;fill-rule:evenodd;stroke:#000000;stroke-width:2.0px;stroke-linecap:butt;stroke-linejoin:miter;stroke-opacity:1"/>
<path class="bond-35 atom-35 atom-36" d="M 254.0,128.4 L 265.7,128.1" style="fill:none;fill-rule:evenodd;stroke:#FF0000;stroke-width:2.0px;stroke-linecap:butt;stroke-linejoin:miter;stroke-opacity:1"/>
<path class="bond-36 atom-35 atom-37" d="M 243.5,130.6 L 238.4,140.0" style="fill:none;fill-rule:evenodd;stroke:#000000;stroke-width:2.0px;stroke-linecap:butt;stroke-linejoin:miter;stroke-opacity:1"/>
<path class="bond-36 atom-35 atom-37" d="M 238.4,140.0 L 233.3,149.4" style="fill:none;fill-rule:evenodd;stroke:#FF0000;stroke-width:2.0px;stroke-linecap:butt;stroke-linejoin:miter;stroke-opacity:1"/>
<path class="bond-37 atom-17 atom-38" d="M 128.9,64.6 L 128.2,38.0" style="fill:none;fill-rule:evenodd;stroke:#000000;stroke-width:2.0px;stroke-linecap:butt;stroke-linejoin:miter;stroke-opacity:1"/>
<path class="bond-38 atom-38 atom-39" d="M 128.2,38.0 L 127.5,11.3" style="fill:none;fill-rule:evenodd;stroke:#000000;stroke-width:2.0px;stroke-linecap:butt;stroke-linejoin:miter;stroke-opacity:1"/>
<path class="bond-39 atom-38 atom-40" d="M 128.2,38.0 L 154.8,37.2" style="fill:none;fill-rule:evenodd;stroke:#000000;stroke-width:2.0px;stroke-linecap:butt;stroke-linejoin:miter;stroke-opacity:1"/>
<path class="bond-40 atom-40 atom-41" d="M 154.8,37.2 L 159.9,27.9" style="fill:none;fill-rule:evenodd;stroke:#000000;stroke-width:2.0px;stroke-linecap:butt;stroke-linejoin:miter;stroke-opacity:1"/>
<path class="bond-40 atom-40 atom-41" d="M 159.9,27.9 L 164.9,18.6" style="fill:none;fill-rule:evenodd;stroke:#FF0000;stroke-width:2.0px;stroke-linecap:butt;stroke-linejoin:miter;stroke-opacity:1"/>
<path class="bond-41 atom-38 atom-42" d="M 128.2,38.0 L 101.6,38.7" style="fill:none;fill-rule:evenodd;stroke:#000000;stroke-width:2.0px;stroke-linecap:butt;stroke-linejoin:miter;stroke-opacity:1"/>
<path class="bond-42 atom-42 atom-43" d="M 100.5,37.0 L 97.7,40.1" style="fill:none;fill-rule:evenodd;stroke:#000000;stroke-width:2.0px;stroke-linecap:butt;stroke-linejoin:miter;stroke-opacity:1"/>
<path class="bond-42 atom-42 atom-43" d="M 97.7,40.1 L 94.9,43.2" style="fill:none;fill-rule:evenodd;stroke:#FF0000;stroke-width:2.0px;stroke-linecap:butt;stroke-linejoin:miter;stroke-opacity:1"/>
<path class="bond-42 atom-42 atom-43" d="M 104.3,38.6 L 100.6,42.7" style="fill:none;fill-rule:evenodd;stroke:#000000;stroke-width:2.0px;stroke-linecap:butt;stroke-linejoin:miter;stroke-opacity:1"/>
<path class="bond-42 atom-42 atom-43" d="M 100.6,42.7 L 97.7,45.8" style="fill:none;fill-rule:evenodd;stroke:#FF0000;stroke-width:2.0px;stroke-linecap:butt;stroke-linejoin:miter;stroke-opacity:1"/>
<path class="bond-43 atom-42 atom-44" d="M 101.6,38.7 L 96.1,29.7" style="fill:none;fill-rule:evenodd;stroke:#000000;stroke-width:2.0px;stroke-linecap:butt;stroke-linejoin:miter;stroke-opacity:1"/>
<path class="bond-43 atom-42 atom-44" d="M 96.1,29.7 L 90.6,20.8" style="fill:none;fill-rule:evenodd;stroke:#FF0000;stroke-width:2.0px;stroke-linecap:butt;stroke-linejoin:miter;stroke-opacity:1"/>
<path class="bond-44 atom-8 atom-45" d="M 71.4,135.4 L 58.7,158.8" style="fill:none;fill-rule:evenodd;stroke:#000000;stroke-width:2.0px;stroke-linecap:butt;stroke-linejoin:miter;stroke-opacity:1"/>
<path class="bond-45 atom-45 atom-46" d="M 56.5,158.9 L 62.3,168.3" style="fill:none;fill-rule:evenodd;stroke:#000000;stroke-width:2.0px;stroke-linecap:butt;stroke-linejoin:miter;stroke-opacity:1"/>
<path class="bond-45 atom-45 atom-46" d="M 62.3,168.3 L 68.2,177.8" style="fill:none;fill-rule:evenodd;stroke:#FF0000;stroke-width:2.0px;stroke-linecap:butt;stroke-linejoin:miter;stroke-opacity:1"/>
<path class="bond-45 atom-45 atom-46" d="M 59.8,156.8 L 65.6,166.3" style="fill:none;fill-rule:evenodd;stroke:#000000;stroke-width:2.0px;stroke-linecap:butt;stroke-linejoin:miter;stroke-opacity:1"/>
<path class="bond-45 atom-45 atom-46" d="M 65.6,166.3 L 71.5,175.8" style="fill:none;fill-rule:evenodd;stroke:#FF0000;stroke-width:2.0px;stroke-linecap:butt;stroke-linejoin:miter;stroke-opacity:1"/>
<path class="bond-46 atom-45 atom-47" d="M 58.7,158.8 L 47.6,159.1" style="fill:none;fill-rule:evenodd;stroke:#000000;stroke-width:2.0px;stroke-linecap:butt;stroke-linejoin:miter;stroke-opacity:1"/>
<path class="bond-46 atom-45 atom-47" d="M 47.6,159.1 L 36.4,159.4" style="fill:none;fill-rule:evenodd;stroke:#FF0000;stroke-width:2.0px;stroke-linecap:butt;stroke-linejoin:miter;stroke-opacity:1"/>
<path d="M 152.9,122.2 L 153.6,123.4 L 153.0,124.5" style="fill:none;stroke:#000000;stroke-width:2.0px;stroke-linecap:butt;stroke-linejoin:miter;stroke-opacity:1;"/>
<path d="M 163.2,158.8 L 164.4,159.5 L 164.4,160.0" style="fill:none;stroke:#000000;stroke-width:2.0px;stroke-linecap:butt;stroke-linejoin:miter;stroke-opacity:1;"/>
<path d="M 118.7,134.7 L 117.5,134.1 L 116.4,134.8" style="fill:none;stroke:#000000;stroke-width:2.0px;stroke-linecap:butt;stroke-linejoin:miter;stroke-opacity:1;"/>
<path d="M 96.0,147.3 L 94.8,148.0 L 93.7,147.4" style="fill:none;stroke:#000000;stroke-width:2.0px;stroke-linecap:butt;stroke-linejoin:miter;stroke-opacity:1;"/>
<path d="M 83.5,113.1 L 84.1,112.0 L 83.4,110.8" style="fill:none;stroke:#000000;stroke-width:2.0px;stroke-linecap:butt;stroke-linejoin:miter;stroke-opacity:1;"/>
<path d="M 70.8,90.4 L 70.1,89.3 L 70.8,88.1" style="fill:none;stroke:#000000;stroke-width:2.0px;stroke-linecap:butt;stroke-linejoin:miter;stroke-opacity:1;"/>
<path d="M 60.6,53.8 L 59.4,53.2 L 59.4,52.6" style="fill:none;stroke:#000000;stroke-width:2.0px;stroke-linecap:butt;stroke-linejoin:miter;stroke-opacity:1;"/>
<path d="M 105.1,77.9 L 106.2,78.5 L 107.4,77.8" style="fill:none;stroke:#000000;stroke-width:2.0px;stroke-linecap:butt;stroke-linejoin:miter;stroke-opacity:1;"/>
<path d="M 151.2,76.6 L 152.3,77.3 L 153.5,76.6" style="fill:none;stroke:#000000;stroke-width:2.0px;stroke-linecap:butt;stroke-linejoin:miter;stroke-opacity:1;"/>
<path d="M 196.6,50.1 L 197.7,49.4 L 198.2,49.6" style="fill:none;stroke:#000000;stroke-width:2.0px;stroke-linecap:butt;stroke-linejoin:miter;stroke-opacity:1;"/>
<path d="M 188.3,84.9 L 189.0,86.0 L 190.3,86.0" style="fill:none;stroke:#000000;stroke-width:2.0px;stroke-linecap:butt;stroke-linejoin:miter;stroke-opacity:1;"/>
<path d="M 214.3,85.3 L 215.6,85.3 L 216.3,86.4" style="fill:none;stroke:#000000;stroke-width:2.0px;stroke-linecap:butt;stroke-linejoin:miter;stroke-opacity:1;"/>
<path d="M 251.1,94.7 L 252.2,94.0 L 253.4,94.6" style="fill:none;stroke:#000000;stroke-width:2.0px;stroke-linecap:butt;stroke-linejoin:miter;stroke-opacity:1;"/>
<path d="M 274.5,106.0 L 275.6,106.7 L 276.8,106.0" style="fill:none;stroke:#000000;stroke-width:2.0px;stroke-linecap:butt;stroke-linejoin:miter;stroke-opacity:1;"/>
<path d="M 311.6,114.3 L 312.3,115.4 L 313.6,115.4" style="fill:none;stroke:#000000;stroke-width:2.0px;stroke-linecap:butt;stroke-linejoin:miter;stroke-opacity:1;"/>
<path d="M 319.9,79.5 L 321.0,78.8 L 321.0,78.2" style="fill:none;stroke:#000000;stroke-width:2.0px;stroke-linecap:butt;stroke-linejoin:miter;stroke-opacity:1;"/>
<path d="M 242.8,129.5 L 243.5,130.6 L 243.2,131.1" style="fill:none;stroke:#000000;stroke-width:2.0px;stroke-linecap:butt;stroke-linejoin:miter;stroke-opacity:1;"/>
<path d="M 153.5,37.3 L 154.8,37.2 L 155.1,36.8" style="fill:none;stroke:#000000;stroke-width:2.0px;stroke-linecap:butt;stroke-linejoin:miter;stroke-opacity:1;"/>
<path d="M 102.9,38.7 L 101.6,38.7 L 101.3,38.2" style="fill:none;stroke:#000000;stroke-width:2.0px;stroke-linecap:butt;stroke-linejoin:miter;stroke-opacity:1;"/>
<path d="M 59.4,157.6 L 58.7,158.8 L 58.2,158.8" style="fill:none;stroke:#000000;stroke-width:2.0px;stroke-linecap:butt;stroke-linejoin:miter;stroke-opacity:1;"/>
<path class="atom-5" d="M 161.6 186.1 Q 161.6 184.3, 162.5 183.3 Q 163.4 182.3, 165.1 182.3 Q 166.8 182.3, 167.7 183.3 Q 168.6 184.3, 168.6 186.1 Q 168.6 187.9, 167.6 189.0 Q 166.7 190.0, 165.1 190.0 Q 163.4 190.0, 162.5 189.0 Q 161.6 187.9, 161.6 186.1 M 165.1 189.1 Q 166.2 189.1, 166.9 188.4 Q 167.5 187.6, 167.5 186.1 Q 167.5 184.6, 166.9 183.9 Q 166.2 183.1, 165.1 183.1 Q 163.9 183.1, 163.3 183.9 Q 162.7 184.6, 162.7 186.1 Q 162.7 187.6, 163.3 188.4 Q 163.9 189.1, 165.1 189.1 " fill="#FF0000"/>
<path class="atom-5" d="M 169.7 182.3 L 170.7 182.3 L 170.7 185.5 L 174.6 185.5 L 174.6 182.3 L 175.6 182.3 L 175.6 189.9 L 174.6 189.9 L 174.6 186.4 L 170.7 186.4 L 170.7 189.9 L 169.7 189.9 L 169.7 182.3 " fill="#FF0000"/>
<path class="atom-15" d="M 55.2 26.6 Q 55.2 24.8, 56.1 23.8 Q 57.0 22.7, 58.7 22.7 Q 60.3 22.7, 61.2 23.8 Q 62.1 24.8, 62.1 26.6 Q 62.1 28.4, 61.2 29.5 Q 60.3 30.5, 58.7 30.5 Q 57.0 30.5, 56.1 29.5 Q 55.2 28.4, 55.2 26.6 M 58.7 29.6 Q 59.8 29.6, 60.4 28.9 Q 61.1 28.1, 61.1 26.6 Q 61.1 25.1, 60.4 24.4 Q 59.8 23.6, 58.7 23.6 Q 57.5 23.6, 56.9 24.3 Q 56.3 25.1, 56.3 26.6 Q 56.3 28.1, 56.9 28.9 Q 57.5 29.6, 58.7 29.6 " fill="#FF0000"/>
<path class="atom-15" d="M 63.3 22.8 L 64.3 22.8 L 64.3 26.0 L 68.2 26.0 L 68.2 22.8 L 69.2 22.8 L 69.2 30.4 L 68.2 30.4 L 68.2 26.9 L 64.3 26.9 L 64.3 30.4 L 63.3 30.4 L 63.3 22.8 " fill="#FF0000"/>
<path class="atom-22" d="M 217.7 62.1 Q 217.7 60.3, 218.6 59.2 Q 219.5 58.2, 221.1 58.2 Q 222.8 58.2, 223.7 59.2 Q 224.6 60.3, 224.6 62.1 Q 224.6 63.9, 223.7 64.9 Q 222.8 66.0, 221.1 66.0 Q 219.5 66.0, 218.6 64.9 Q 217.7 63.9, 217.7 62.1 M 221.1 65.1 Q 222.3 65.1, 222.9 64.4 Q 223.5 63.6, 223.5 62.1 Q 223.5 60.6, 222.9 59.8 Q 222.3 59.1, 221.1 59.1 Q 220.0 59.1, 219.4 59.8 Q 218.7 60.6, 218.7 62.1 Q 218.7 63.6, 219.4 64.4 Q 220.0 65.1, 221.1 65.1 " fill="#FF0000"/>
<path class="atom-22" d="M 225.8 58.3 L 226.8 58.3 L 226.8 61.5 L 230.6 61.5 L 230.6 58.3 L 231.7 58.3 L 231.7 65.9 L 230.6 65.9 L 230.6 62.4 L 226.8 62.4 L 226.8 65.9 L 225.8 65.9 L 225.8 58.3 " fill="#FF0000"/>
<path class="atom-34" d="M 316.8 52.2 Q 316.8 50.4, 317.7 49.4 Q 318.6 48.4, 320.3 48.4 Q 321.9 48.4, 322.8 49.4 Q 323.7 50.4, 323.7 52.2 Q 323.7 54.0, 322.8 55.1 Q 321.9 56.1, 320.3 56.1 Q 318.6 56.1, 317.7 55.1 Q 316.8 54.0, 316.8 52.2 M 320.3 55.3 Q 321.4 55.3, 322.0 54.5 Q 322.7 53.7, 322.7 52.2 Q 322.7 50.7, 322.0 50.0 Q 321.4 49.2, 320.3 49.2 Q 319.1 49.2, 318.5 50.0 Q 317.9 50.7, 317.9 52.2 Q 317.9 53.7, 318.5 54.5 Q 319.1 55.3, 320.3 55.3 " fill="#FF0000"/>
<path class="atom-34" d="M 324.9 48.4 L 325.9 48.4 L 325.9 51.7 L 329.8 51.7 L 329.8 48.4 L 330.8 48.4 L 330.8 56.0 L 329.8 56.0 L 329.8 52.5 L 325.9 52.5 L 325.9 56.0 L 324.9 56.0 L 324.9 48.4 " fill="#FF0000"/>
<path class="atom-36" d="M 266.6 129.9 Q 266.6 128.1, 267.5 127.1 Q 268.4 126.1, 270.1 126.1 Q 271.8 126.1, 272.7 127.1 Q 273.6 128.1, 273.6 129.9 Q 273.6 131.8, 272.7 132.8 Q 271.7 133.8, 270.1 133.8 Q 268.4 133.8, 267.5 132.8 Q 266.6 131.8, 266.6 129.9 M 270.1 133.0 Q 271.2 133.0, 271.9 132.2 Q 272.5 131.4, 272.5 129.9 Q 272.5 128.4, 271.9 127.7 Q 271.2 126.9, 270.1 126.9 Q 268.9 126.9, 268.3 127.7 Q 267.7 128.4, 267.7 129.9 Q 267.7 131.4, 268.3 132.2 Q 268.9 133.0, 270.1 133.0 " fill="#FF0000"/>
<path class="atom-37" d="M 219.9 150.3 L 220.9 150.3 L 220.9 153.5 L 224.8 153.5 L 224.8 150.3 L 225.8 150.3 L 225.8 157.9 L 224.8 157.9 L 224.8 154.4 L 220.9 154.4 L 220.9 157.9 L 219.9 157.9 L 219.9 150.3 " fill="#FF0000"/>
<path class="atom-37" d="M 227.3 154.1 Q 227.3 152.3, 228.2 151.3 Q 229.1 150.2, 230.8 150.2 Q 232.5 150.2, 233.4 151.3 Q 234.3 152.3, 234.3 154.1 Q 234.3 155.9, 233.4 157.0 Q 232.5 158.0, 230.8 158.0 Q 229.1 158.0, 228.2 157.0 Q 227.3 155.9, 227.3 154.1 M 230.8 157.1 Q 232.0 157.1, 232.6 156.4 Q 233.2 155.6, 233.2 154.1 Q 233.2 152.6, 232.6 151.8 Q 232.0 151.1, 230.8 151.1 Q 229.7 151.1, 229.0 151.8 Q 228.4 152.6, 228.4 154.1 Q 228.4 155.6, 229.0 156.4 Q 229.7 157.1, 230.8 157.1 " fill="#FF0000"/>
<path class="atom-41" d="M 164.0 13.8 Q 164.0 12.0, 164.9 11.0 Q 165.8 10.0, 167.5 10.0 Q 169.2 10.0, 170.1 11.0 Q 170.9 12.0, 170.9 13.8 Q 170.9 15.7, 170.0 16.7 Q 169.1 17.7, 167.5 17.7 Q 165.8 17.7, 164.9 16.7 Q 164.0 15.7, 164.0 13.8 M 167.5 16.9 Q 168.6 16.9, 169.3 16.1 Q 169.9 15.3, 169.9 13.8 Q 169.9 12.4, 169.3 11.6 Q 168.6 10.9, 167.5 10.9 Q 166.3 10.9, 165.7 11.6 Q 165.1 12.3, 165.1 13.8 Q 165.1 15.4, 165.7 16.1 Q 166.3 16.9, 167.5 16.9 " fill="#FF0000"/>
<path class="atom-41" d="M 172.1 10.1 L 173.1 10.1 L 173.1 13.3 L 177.0 13.3 L 177.0 10.1 L 178.0 10.1 L 178.0 17.6 L 177.0 17.6 L 177.0 14.1 L 173.1 14.1 L 173.1 17.6 L 172.1 17.6 L 172.1 10.1 " fill="#FF0000"/>
<path class="atom-43" d="M 88.6 49.2 Q 88.6 47.4, 89.5 46.3 Q 90.4 45.3, 92.0 45.3 Q 93.7 45.3, 94.6 46.3 Q 95.5 47.4, 95.5 49.2 Q 95.5 51.0, 94.6 52.0 Q 93.7 53.1, 92.0 53.1 Q 90.4 53.1, 89.5 52.0 Q 88.6 51.0, 88.6 49.2 M 92.0 52.2 Q 93.2 52.2, 93.8 51.5 Q 94.4 50.7, 94.4 49.2 Q 94.4 47.7, 93.8 46.9 Q 93.2 46.2, 92.0 46.2 Q 90.9 46.2, 90.2 46.9 Q 89.6 47.7, 89.6 49.2 Q 89.6 50.7, 90.2 51.5 Q 90.9 52.2, 92.0 52.2 " fill="#FF0000"/>
<path class="atom-44" d="M 76.7 12.3 L 77.7 12.3 L 77.7 15.5 L 81.6 15.5 L 81.6 12.3 L 82.6 12.3 L 82.6 19.8 L 81.6 19.8 L 81.6 16.3 L 77.7 16.3 L 77.7 19.8 L 76.7 19.8 L 76.7 12.3 " fill="#FF0000"/>
<path class="atom-44" d="M 84.2 16.0 Q 84.2 14.2, 85.1 13.2 Q 86.0 12.2, 87.6 12.2 Q 89.3 12.2, 90.2 13.2 Q 91.1 14.2, 91.1 16.0 Q 91.1 17.9, 90.2 18.9 Q 89.3 19.9, 87.6 19.9 Q 86.0 19.9, 85.1 18.9 Q 84.2 17.9, 84.2 16.0 M 87.6 19.1 Q 88.8 19.1, 89.4 18.3 Q 90.0 17.5, 90.0 16.0 Q 90.0 14.6, 89.4 13.8 Q 88.8 13.1, 87.6 13.1 Q 86.5 13.1, 85.9 13.8 Q 85.2 14.5, 85.2 16.0 Q 85.2 17.6, 85.9 18.3 Q 86.5 19.1, 87.6 19.1 " fill="#FF0000"/>
<path class="atom-46" d="M 69.2 181.5 Q 69.2 179.7, 70.1 178.7 Q 71.0 177.7, 72.7 177.7 Q 74.4 177.7, 75.3 178.7 Q 76.1 179.7, 76.1 181.5 Q 76.1 183.3, 75.2 184.4 Q 74.3 185.4, 72.7 185.4 Q 71.0 185.4, 70.1 184.4 Q 69.2 183.3, 69.2 181.5 M 72.7 184.6 Q 73.8 184.6, 74.5 183.8 Q 75.1 183.0, 75.1 181.5 Q 75.1 180.0, 74.5 179.3 Q 73.8 178.5, 72.7 178.5 Q 71.5 178.5, 70.9 179.3 Q 70.3 180.0, 70.3 181.5 Q 70.3 183.0, 70.9 183.8 Q 71.5 184.6, 72.7 184.6 " fill="#FF0000"/>
<path class="atom-47" d="M 21.2 155.8 L 22.2 155.8 L 22.2 159.0 L 26.1 159.0 L 26.1 155.8 L 27.1 155.8 L 27.1 163.3 L 26.1 163.3 L 26.1 159.9 L 22.2 159.9 L 22.2 163.3 L 21.2 163.3 L 21.2 155.8 " fill="#FF0000"/>
<path class="atom-47" d="M 28.7 159.5 Q 28.7 157.7, 29.6 156.7 Q 30.5 155.7, 32.1 155.7 Q 33.8 155.7, 34.7 156.7 Q 35.6 157.7, 35.6 159.5 Q 35.6 161.4, 34.7 162.4 Q 33.8 163.5, 32.1 163.5 Q 30.5 163.5, 29.6 162.4 Q 28.7 161.4, 28.7 159.5 M 32.1 162.6 Q 33.3 162.6, 33.9 161.8 Q 34.5 161.1, 34.5 159.5 Q 34.5 158.1, 33.9 157.3 Q 33.3 156.6, 32.1 156.6 Q 31.0 156.6, 30.3 157.3 Q 29.7 158.1, 29.7 159.5 Q 29.7 161.1, 30.3 161.8 Q 31.0 162.6, 32.1 162.6 " fill="#FF0000"/>
</svg>
