<?xml version='1.0' encoding='ASCII' standalone='yes'?>
<svg xmlns="http://www.w3.org/2000/svg" xmlns:rdkit="http://www.rdkit.org/xml" xmlns:xlink="http://www.w3.org/1999/xlink" version="1.1" baseProfile="full" xml:space="preserve" width="314px" height="200px" viewBox="0 0 314 200">
<!-- END OF HEADER -->
<rect style="opacity:1.0;fill:#FFFFFF;stroke:none" width="314.0" height="200.0" x="0.0" y="0.0"> </rect>
<path class="bond-0 atom-0 atom-1" d="M 239.2,38.3 L 238.2,67.6" style="fill:none;fill-rule:evenodd;stroke:#000000;stroke-width:2.0px;stroke-linecap:butt;stroke-linejoin:miter;stroke-opacity:1"/>
<path class="bond-1 atom-1 atom-2" d="M 238.2,67.6 L 267.5,68.6" style="fill:none;fill-rule:evenodd;stroke:#000000;stroke-width:2.0px;stroke-linecap:butt;stroke-linejoin:miter;stroke-opacity:1"/>
<path class="bond-2 atom-2 atom-3" d="M 267.5,68.6 L 273.1,79.0" style="fill:none;fill-rule:evenodd;stroke:#000000;stroke-width:2.0px;stroke-linecap:butt;stroke-linejoin:miter;stroke-opacity:1"/>
<path class="bond-2 atom-2 atom-3" d="M 273.1,79.0 L 278.6,89.3" style="fill:none;fill-rule:evenodd;stroke:#FF0000;stroke-width:2.0px;stroke-linecap:butt;stroke-linejoin:miter;stroke-opacity:1"/>
<path class="bond-3 atom-1 atom-4" d="M 238.2,67.6 L 237.2,97.0" style="fill:none;fill-rule:evenodd;stroke:#000000;stroke-width:2.0px;stroke-linecap:butt;stroke-linejoin:miter;stroke-opacity:1"/>
<path class="bond-4 atom-4 atom-5" d="M 237.2,97.0 L 262.1,112.5" style="fill:none;fill-rule:evenodd;stroke:#000000;stroke-width:2.0px;stroke-linecap:butt;stroke-linejoin:miter;stroke-opacity:1"/>
<path class="bond-5 atom-5 atom-6" d="M 262.1,112.5 L 261.1,141.9" style="fill:none;fill-rule:evenodd;stroke:#000000;stroke-width:2.0px;stroke-linecap:butt;stroke-linejoin:miter;stroke-opacity:1"/>
<path class="bond-6 atom-6 atom-7" d="M 261.2,139.3 L 250.1,145.3" style="fill:none;fill-rule:evenodd;stroke:#000000;stroke-width:2.0px;stroke-linecap:butt;stroke-linejoin:miter;stroke-opacity:1"/>
<path class="bond-6 atom-6 atom-7" d="M 250.1,145.3 L 239.0,151.2" style="fill:none;fill-rule:evenodd;stroke:#FF0000;stroke-width:2.0px;stroke-linecap:butt;stroke-linejoin:miter;stroke-opacity:1"/>
<path class="bond-6 atom-6 atom-7" d="M 263.3,143.2 L 252.2,149.1" style="fill:none;fill-rule:evenodd;stroke:#000000;stroke-width:2.0px;stroke-linecap:butt;stroke-linejoin:miter;stroke-opacity:1"/>
<path class="bond-6 atom-6 atom-7" d="M 252.2,149.1 L 241.1,155.1" style="fill:none;fill-rule:evenodd;stroke:#FF0000;stroke-width:2.0px;stroke-linecap:butt;stroke-linejoin:miter;stroke-opacity:1"/>
<path class="bond-7 atom-6 atom-8" d="M 261.1,141.9 L 271.2,148.1" style="fill:none;fill-rule:evenodd;stroke:#000000;stroke-width:2.0px;stroke-linecap:butt;stroke-linejoin:miter;stroke-opacity:1"/>
<path class="bond-7 atom-6 atom-8" d="M 271.2,148.1 L 281.3,154.4" style="fill:none;fill-rule:evenodd;stroke:#FF0000;stroke-width:2.0px;stroke-linecap:butt;stroke-linejoin:miter;stroke-opacity:1"/>
<path class="bond-8 atom-1 atom-9" d="M 238.2,67.6 L 208.8,66.6" style="fill:none;fill-rule:evenodd;stroke:#000000;stroke-width:2.0px;stroke-linecap:butt;stroke-linejoin:miter;stroke-opacity:1"/>
<path class="bond-9 atom-9 atom-10" d="M 208.8,66.6 L 193.3,91.6" style="fill:none;fill-rule:evenodd;stroke:#000000;stroke-width:2.0px;stroke-linecap:butt;stroke-linejoin:miter;stroke-opacity:1"/>
<path class="bond-10 atom-10 atom-11" d="M 193.3,91.6 L 163.9,90.6" style="fill:none;fill-rule:evenodd;stroke:#000000;stroke-width:2.0px;stroke-linecap:butt;stroke-linejoin:miter;stroke-opacity:1"/>
<path class="bond-11 atom-11 atom-12" d="M 163.9,90.6 L 148.4,115.5" style="fill:none;fill-rule:evenodd;stroke:#000000;stroke-width:2.0px;stroke-linecap:butt;stroke-linejoin:miter;stroke-opacity:1"/>
<path class="bond-12 atom-12 atom-13" d="M 148.4,115.5 L 173.3,131.0" style="fill:none;fill-rule:evenodd;stroke:#000000;stroke-width:2.0px;stroke-linecap:butt;stroke-linejoin:miter;stroke-opacity:1"/>
<path class="bond-13 atom-12 atom-14" d="M 148.4,115.5 L 132.9,140.4" style="fill:none;fill-rule:evenodd;stroke:#000000;stroke-width:2.0px;stroke-linecap:butt;stroke-linejoin:miter;stroke-opacity:1"/>
<path class="bond-14 atom-14 atom-15" d="M 132.9,140.4 L 120.6,140.0" style="fill:none;fill-rule:evenodd;stroke:#000000;stroke-width:2.0px;stroke-linecap:butt;stroke-linejoin:miter;stroke-opacity:1"/>
<path class="bond-14 atom-14 atom-15" d="M 120.6,140.0 L 108.3,139.6" style="fill:none;fill-rule:evenodd;stroke:#FF0000;stroke-width:2.0px;stroke-linecap:butt;stroke-linejoin:miter;stroke-opacity:1"/>
<path class="bond-15 atom-12 atom-16" d="M 148.4,115.5 L 123.5,100.0" style="fill:none;fill-rule:evenodd;stroke:#000000;stroke-width:2.0px;stroke-linecap:butt;stroke-linejoin:miter;stroke-opacity:1"/>
<path class="bond-16 atom-16 atom-17" d="M 123.5,100.0 L 97.6,113.8" style="fill:none;fill-rule:evenodd;stroke:#000000;stroke-width:2.0px;stroke-linecap:butt;stroke-linejoin:miter;stroke-opacity:1"/>
<path class="bond-17 atom-17 atom-18" d="M 97.6,113.8 L 72.6,98.3" style="fill:none;fill-rule:evenodd;stroke:#000000;stroke-width:2.0px;stroke-linecap:butt;stroke-linejoin:miter;stroke-opacity:1"/>
<path class="bond-18 atom-18 atom-19" d="M 72.6,98.3 L 47.7,82.7" style="fill:none;fill-rule:evenodd;stroke:#000000;stroke-width:2.0px;stroke-linecap:butt;stroke-linejoin:miter;stroke-opacity:1"/>
<path class="bond-19 atom-18 atom-20" d="M 72.6,98.3 L 88.2,73.3" style="fill:none;fill-rule:evenodd;stroke:#000000;stroke-width:2.0px;stroke-linecap:butt;stroke-linejoin:miter;stroke-opacity:1"/>
<path class="bond-20 atom-20 atom-21" d="M 88.2,73.3 L 82.7,63.0" style="fill:none;fill-rule:evenodd;stroke:#000000;stroke-width:2.0px;stroke-linecap:butt;stroke-linejoin:miter;stroke-opacity:1"/>
<path class="bond-20 atom-20 atom-21" d="M 82.7,63.0 L 77.2,52.7" style="fill:none;fill-rule:evenodd;stroke:#FF0000;stroke-width:2.0px;stroke-linecap:butt;stroke-linejoin:miter;stroke-opacity:1"/>
<path class="bond-21 atom-18 atom-22" d="M 72.6,98.3 L 57.1,123.2" style="fill:none;fill-rule:evenodd;stroke:#000000;stroke-width:2.0px;stroke-linecap:butt;stroke-linejoin:miter;stroke-opacity:1"/>
<path class="bond-22 atom-22 atom-23" d="M 54.5,123.1 L 60.4,134.0" style="fill:none;fill-rule:evenodd;stroke:#000000;stroke-width:2.0px;stroke-linecap:butt;stroke-linejoin:miter;stroke-opacity:1"/>
<path class="bond-22 atom-22 atom-23" d="M 60.4,134.0 L 66.2,145.0" style="fill:none;fill-rule:evenodd;stroke:#FF0000;stroke-width:2.0px;stroke-linecap:butt;stroke-linejoin:miter;stroke-opacity:1"/>
<path class="bond-22 atom-22 atom-23" d="M 58.4,121.0 L 64.3,132.0" style="fill:none;fill-rule:evenodd;stroke:#000000;stroke-width:2.0px;stroke-linecap:butt;stroke-linejoin:miter;stroke-opacity:1"/>
<path class="bond-22 atom-22 atom-23" d="M 64.3,132.0 L 70.1,142.9" style="fill:none;fill-rule:evenodd;stroke:#FF0000;stroke-width:2.0px;stroke-linecap:butt;stroke-linejoin:miter;stroke-opacity:1"/>
<path class="bond-23 atom-22 atom-24" d="M 57.1,123.2 L 44.8,122.8" style="fill:none;fill-rule:evenodd;stroke:#000000;stroke-width:2.0px;stroke-linecap:butt;stroke-linejoin:miter;stroke-opacity:1"/>
<path class="bond-23 atom-22 atom-24" d="M 44.8,122.8 L 32.5,122.4" style="fill:none;fill-rule:evenodd;stroke:#FF0000;stroke-width:2.0px;stroke-linecap:butt;stroke-linejoin:miter;stroke-opacity:1"/>
<path class="bond-24 atom-10 atom-25" d="M 193.3,91.6 L 207.1,117.5" style="fill:none;fill-rule:evenodd;stroke:#000000;stroke-width:2.0px;stroke-linecap:butt;stroke-linejoin:miter;stroke-opacity:1"/>
<path class="bond-25 atom-25 atom-26" d="M 205.8,119.6 L 218.7,120.1" style="fill:none;fill-rule:evenodd;stroke:#000000;stroke-width:2.0px;stroke-linecap:butt;stroke-linejoin:miter;stroke-opacity:1"/>
<path class="bond-25 atom-25 atom-26" d="M 218.7,120.1 L 231.6,120.5" style="fill:none;fill-rule:evenodd;stroke:#FF0000;stroke-width:2.0px;stroke-linecap:butt;stroke-linejoin:miter;stroke-opacity:1"/>
<path class="bond-25 atom-25 atom-26" d="M 205.9,115.2 L 218.8,115.7" style="fill:none;fill-rule:evenodd;stroke:#000000;stroke-width:2.0px;stroke-linecap:butt;stroke-linejoin:miter;stroke-opacity:1"/>
<path class="bond-25 atom-25 atom-26" d="M 218.8,115.7 L 231.8,116.1" style="fill:none;fill-rule:evenodd;stroke:#FF0000;stroke-width:2.0px;stroke-linecap:butt;stroke-linejoin:miter;stroke-opacity:1"/>
<path class="bond-26 atom-25 atom-27" d="M 207.1,117.5 L 201.0,127.4" style="fill:none;fill-rule:evenodd;stroke:#000000;stroke-width:2.0px;stroke-linecap:butt;stroke-linejoin:miter;stroke-opacity:1"/>
<path class="bond-26 atom-25 atom-27" d="M 201.0,127.4 L 194.8,137.2" style="fill:none;fill-rule:evenodd;stroke:#FF0000;stroke-width:2.0px;stroke-linecap:butt;stroke-linejoin:miter;stroke-opacity:1"/>
<path d="M 266.1,68.6 L 267.5,68.6 L 267.8,69.1" style="fill:none;stroke:#000000;stroke-width:2.0px;stroke-linecap:butt;stroke-linejoin:miter;stroke-opacity:1;"/>
<path d="M 237.3,95.5 L 237.2,97.0 L 238.5,97.8" style="fill:none;stroke:#000000;stroke-width:2.0px;stroke-linecap:butt;stroke-linejoin:miter;stroke-opacity:1;"/>
<path d="M 260.9,111.7 L 262.1,112.5 L 262.1,114.0" style="fill:none;stroke:#000000;stroke-width:2.0px;stroke-linecap:butt;stroke-linejoin:miter;stroke-opacity:1;"/>
<path d="M 261.2,140.4 L 261.1,141.9 L 261.6,142.2" style="fill:none;stroke:#000000;stroke-width:2.0px;stroke-linecap:butt;stroke-linejoin:miter;stroke-opacity:1;"/>
<path d="M 210.3,66.7 L 208.8,66.6 L 208.1,67.9" style="fill:none;stroke:#000000;stroke-width:2.0px;stroke-linecap:butt;stroke-linejoin:miter;stroke-opacity:1;"/>
<path d="M 165.4,90.6 L 163.9,90.6 L 163.2,91.8" style="fill:none;stroke:#000000;stroke-width:2.0px;stroke-linecap:butt;stroke-linejoin:miter;stroke-opacity:1;"/>
<path d="M 133.6,139.2 L 132.9,140.4 L 132.3,140.4" style="fill:none;stroke:#000000;stroke-width:2.0px;stroke-linecap:butt;stroke-linejoin:miter;stroke-opacity:1;"/>
<path d="M 124.7,100.7 L 123.5,100.0 L 122.2,100.7" style="fill:none;stroke:#000000;stroke-width:2.0px;stroke-linecap:butt;stroke-linejoin:miter;stroke-opacity:1;"/>
<path d="M 98.9,113.1 L 97.6,113.8 L 96.3,113.0" style="fill:none;stroke:#000000;stroke-width:2.0px;stroke-linecap:butt;stroke-linejoin:miter;stroke-opacity:1;"/>
<path d="M 87.4,74.6 L 88.2,73.3 L 87.9,72.8" style="fill:none;stroke:#000000;stroke-width:2.0px;stroke-linecap:butt;stroke-linejoin:miter;stroke-opacity:1;"/>
<path d="M 57.9,121.9 L 57.1,123.2 L 56.5,123.2" style="fill:none;stroke:#000000;stroke-width:2.0px;stroke-linecap:butt;stroke-linejoin:miter;stroke-opacity:1;"/>
<path d="M 206.4,116.2 L 207.1,117.5 L 206.8,118.0" style="fill:none;stroke:#000000;stroke-width:2.0px;stroke-linecap:butt;stroke-linejoin:miter;stroke-opacity:1;"/>
<path class="atom-3" d="M 277.6 94.5 Q 277.6 92.6, 278.5 91.4 Q 279.5 90.3, 281.4 90.3 Q 283.2 90.3, 284.2 91.4 Q 285.2 92.6, 285.2 94.5 Q 285.2 96.6, 284.2 97.7 Q 283.2 98.9, 281.4 98.9 Q 279.5 98.9, 278.5 97.7 Q 277.6 96.6, 277.6 94.5 M 281.4 97.9 Q 282.6 97.9, 283.3 97.1 Q 284.0 96.2, 284.0 94.5 Q 284.0 92.9, 283.3 92.1 Q 282.6 91.3, 281.4 91.3 Q 280.1 91.3, 279.4 92.1 Q 278.7 92.9, 278.7 94.5 Q 278.7 96.2, 279.4 97.1 Q 280.1 97.9, 281.4 97.9 " fill="#FF0000"/>
<path class="atom-3" d="M 286.5 90.4 L 287.6 90.4 L 287.6 93.9 L 291.9 93.9 L 291.9 90.4 L 293.0 90.4 L 293.0 98.7 L 291.9 98.7 L 291.9 94.9 L 287.6 94.9 L 287.6 98.7 L 286.5 98.7 L 286.5 90.4 " fill="#FF0000"/>
<path class="atom-7" d="M 231.4 155.7 Q 231.4 153.7, 232.4 152.6 Q 233.4 151.5, 235.2 151.5 Q 237.1 151.5, 238.1 152.6 Q 239.0 153.7, 239.0 155.7 Q 239.0 157.7, 238.0 158.9 Q 237.0 160.0, 235.2 160.0 Q 233.4 160.0, 232.4 158.9 Q 231.4 157.7, 231.4 155.7 M 235.2 159.1 Q 236.5 159.1, 237.2 158.2 Q 237.9 157.4, 237.9 155.7 Q 237.9 154.1, 237.2 153.3 Q 236.5 152.4, 235.2 152.4 Q 234.0 152.4, 233.3 153.2 Q 232.6 154.1, 232.6 155.7 Q 232.6 157.4, 233.3 158.2 Q 234.0 159.1, 235.2 159.1 " fill="#FF0000"/>
<path class="atom-8" d="M 282.3 157.4 Q 282.3 155.4, 283.2 154.3 Q 284.2 153.2, 286.1 153.2 Q 287.9 153.2, 288.9 154.3 Q 289.9 155.4, 289.9 157.4 Q 289.9 159.4, 288.9 160.6 Q 287.9 161.7, 286.1 161.7 Q 284.2 161.7, 283.2 160.6 Q 282.3 159.5, 282.3 157.4 M 286.1 160.8 Q 287.3 160.8, 288.0 160.0 Q 288.7 159.1, 288.7 157.4 Q 288.7 155.8, 288.0 155.0 Q 287.3 154.1, 286.1 154.1 Q 284.8 154.1, 284.1 155.0 Q 283.4 155.8, 283.4 157.4 Q 283.4 159.1, 284.1 160.0 Q 284.8 160.8, 286.1 160.8 " fill="#FF0000"/>
<path class="atom-8" d="M 291.2 153.3 L 292.3 153.3 L 292.3 156.8 L 296.6 156.8 L 296.6 153.3 L 297.7 153.3 L 297.7 161.6 L 296.6 161.6 L 296.6 157.8 L 292.3 157.8 L 292.3 161.6 L 291.2 161.6 L 291.2 153.3 " fill="#FF0000"/>
<path class="atom-15" d="M 91.5 135.3 L 92.6 135.3 L 92.6 138.9 L 96.9 138.9 L 96.9 135.3 L 98.0 135.3 L 98.0 143.7 L 96.9 143.7 L 96.9 139.8 L 92.6 139.8 L 92.6 143.7 L 91.5 143.7 L 91.5 135.3 " fill="#FF0000"/>
<path class="atom-15" d="M 99.7 139.5 Q 99.7 137.5, 100.7 136.4 Q 101.7 135.2, 103.5 135.2 Q 105.4 135.2, 106.3 136.4 Q 107.3 137.5, 107.3 139.5 Q 107.3 141.5, 106.3 142.6 Q 105.3 143.8, 103.5 143.8 Q 101.7 143.8, 100.7 142.6 Q 99.7 141.5, 99.7 139.5 M 103.5 142.8 Q 104.8 142.8, 105.5 142.0 Q 106.2 141.1, 106.2 139.5 Q 106.2 137.8, 105.5 137.0 Q 104.8 136.2, 103.5 136.2 Q 102.2 136.2, 101.6 137.0 Q 100.9 137.8, 100.9 139.5 Q 100.9 141.2, 101.6 142.0 Q 102.2 142.8, 103.5 142.8 " fill="#FF0000"/>
<path class="atom-21" d="M 62.3 43.3 L 63.4 43.3 L 63.4 46.8 L 67.7 46.8 L 67.7 43.3 L 68.8 43.3 L 68.8 51.6 L 67.7 51.6 L 67.7 47.8 L 63.4 47.8 L 63.4 51.6 L 62.3 51.6 L 62.3 43.3 " fill="#FF0000"/>
<path class="atom-21" d="M 70.5 47.4 Q 70.5 45.4, 71.5 44.3 Q 72.5 43.2, 74.3 43.2 Q 76.2 43.2, 77.2 44.3 Q 78.2 45.4, 78.2 47.4 Q 78.2 49.5, 77.2 50.6 Q 76.2 51.7, 74.3 51.7 Q 72.5 51.7, 71.5 50.6 Q 70.5 49.5, 70.5 47.4 M 74.3 50.8 Q 75.6 50.8, 76.3 50.0 Q 77.0 49.1, 77.0 47.4 Q 77.0 45.8, 76.3 45.0 Q 75.6 44.1, 74.3 44.1 Q 73.1 44.1, 72.4 45.0 Q 71.7 45.8, 71.7 47.4 Q 71.7 49.1, 72.4 50.0 Q 73.1 50.8, 74.3 50.8 " fill="#FF0000"/>
<path class="atom-23" d="M 67.1 149.1 Q 67.1 147.1, 68.1 146.0 Q 69.1 144.9, 70.9 144.9 Q 72.8 144.9, 73.7 146.0 Q 74.7 147.1, 74.7 149.1 Q 74.7 151.2, 73.7 152.3 Q 72.7 153.4, 70.9 153.4 Q 69.1 153.4, 68.1 152.3 Q 67.1 151.2, 67.1 149.1 M 70.9 152.5 Q 72.2 152.5, 72.9 151.7 Q 73.6 150.8, 73.6 149.1 Q 73.6 147.5, 72.9 146.7 Q 72.2 145.8, 70.9 145.8 Q 69.6 145.8, 69.0 146.7 Q 68.3 147.5, 68.3 149.1 Q 68.3 150.8, 69.0 151.7 Q 69.6 152.5, 70.9 152.5 " fill="#FF0000"/>
<path class="atom-24" d="M 15.7 118.1 L 16.8 118.1 L 16.8 121.6 L 21.1 121.6 L 21.1 118.1 L 22.2 118.1 L 22.2 126.4 L 21.1 126.4 L 21.1 122.6 L 16.8 122.6 L 16.8 126.4 L 15.7 126.4 L 15.7 118.1 " fill="#FF0000"/>
<path class="atom-24" d="M 23.9 122.2 Q 23.9 120.2, 24.9 119.1 Q 25.9 118.0, 27.7 118.0 Q 29.6 118.0, 30.6 119.1 Q 31.6 120.2, 31.6 122.2 Q 31.6 124.2, 30.6 125.4 Q 29.6 126.5, 27.7 126.5 Q 25.9 126.5, 24.9 125.4 Q 23.9 124.3, 23.9 122.2 M 27.7 125.6 Q 29.0 125.6, 29.7 124.8 Q 30.4 123.9, 30.4 122.2 Q 30.4 120.6, 29.7 119.8 Q 29.0 118.9, 27.7 118.9 Q 26.5 118.9, 25.8 119.8 Q 25.1 120.6, 25.1 122.2 Q 25.1 123.9, 25.8 124.8 Q 26.5 125.6, 27.7 125.6 " fill="#FF0000"/>
<path class="atom-26" d="M 232.7 118.5 Q 232.7 116.5, 233.6 115.4 Q 234.6 114.3, 236.5 114.3 Q 238.3 114.3, 239.3 115.4 Q 240.3 116.5, 240.3 118.5 Q 240.3 120.5, 239.3 121.7 Q 238.3 122.8, 236.5 122.8 Q 234.6 122.8, 233.6 121.7 Q 232.7 120.5, 232.7 118.5 M 236.5 121.9 Q 237.7 121.9, 238.4 121.0 Q 239.1 120.2, 239.1 118.5 Q 239.1 116.9, 238.4 116.0 Q 237.7 115.2, 236.5 115.2 Q 235.2 115.2, 234.5 116.0 Q 233.8 116.8, 233.8 118.5 Q 233.8 120.2, 234.5 121.0 Q 235.2 121.9, 236.5 121.9 " fill="#FF0000"/>
<path class="atom-27" d="M 179.6 138.3 L 180.7 138.3 L 180.7 141.8 L 184.9 141.8 L 184.9 138.3 L 186.1 138.3 L 186.1 146.6 L 184.9 146.6 L 184.9 142.8 L 180.7 142.8 L 180.7 146.6 L 179.6 146.6 L 179.6 138.3 " fill="#FF0000"/>
<path class="atom-27" d="M 187.8 142.4 Q 187.8 140.4, 188.8 139.3 Q 189.7 138.2, 191.6 138.2 Q 193.4 138.2, 194.4 139.3 Q 195.4 140.4, 195.4 142.4 Q 195.4 144.5, 194.4 145.6 Q 193.4 146.7, 191.6 146.7 Q 189.8 146.7, 188.8 145.6 Q 187.8 144.5, 187.8 142.4 M 191.6 145.8 Q 192.9 145.8, 193.5 145.0 Q 194.2 144.1, 194.2 142.4 Q 194.2 140.8, 193.5 140.0 Q 192.9 139.1, 191.6 139.1 Q 190.3 139.1, 189.6 140.0 Q 188.9 140.8, 188.9 142.4 Q 188.9 144.1, 189.6 145.0 Q 190.3 145.8, 191.6 145.8 " fill="#FF0000"/>
</svg>
