<?xml version='1.0' encoding='ASCII' standalone='yes'?>
<svg xmlns="http://www.w3.org/2000/svg" xmlns:rdkit="http://www.rdkit.org/xml" xmlns:xlink="http://www.w3.org/1999/xlink" version="1.1" baseProfile="full" xml:space="preserve" width="240px" height="200px" viewBox="0 0 240 200">
<!-- END OF HEADER -->
<rect style="opacity:1.0;fill:#FFFFFF;stroke:none" width="240.0" height="200.0" x="0.0" y="0.0"> </rect>
<path class="bond-0 atom-0 atom-1" d="M 135.6,35.6 L 164.2,65.9" style="fill:none;fill-rule:evenodd;stroke:#000000;stroke-width:2.0px;stroke-linecap:butt;stroke-linejoin:miter;stroke-opacity:1"/>
<path class="bond-1 atom-1 atom-2" d="M 164.2,65.9 L 152.4,105.8" style="fill:none;fill-rule:evenodd;stroke:#000000;stroke-width:2.0px;stroke-linecap:butt;stroke-linejoin:miter;stroke-opacity:1"/>
<path class="bond-2 atom-2 atom-3" d="M 152.4,105.8 L 140.5,145.8" style="fill:none;fill-rule:evenodd;stroke:#000000;stroke-width:2.0px;stroke-linecap:butt;stroke-linejoin:miter;stroke-opacity:1"/>
<path class="bond-3 atom-2 atom-4" d="M 152.4,105.8 L 112.4,94.0" style="fill:none;fill-rule:evenodd;stroke:#000000;stroke-width:2.0px;stroke-linecap:butt;stroke-linejoin:miter;stroke-opacity:1"/>
<path class="bond-4 atom-4 atom-5" d="M 112.4,94.0 L 82.2,122.6" style="fill:none;fill-rule:evenodd;stroke:#000000;stroke-width:2.0px;stroke-linecap:butt;stroke-linejoin:miter;stroke-opacity:1"/>
<path class="bond-5 atom-5 atom-6" d="M 82.2,122.6 L 42.2,110.8" style="fill:none;fill-rule:evenodd;stroke:#000000;stroke-width:2.0px;stroke-linecap:butt;stroke-linejoin:miter;stroke-opacity:1"/>
<path class="bond-6 atom-6 atom-7" d="M 42.2,110.8 L 12.0,139.5" style="fill:none;fill-rule:evenodd;stroke:#000000;stroke-width:2.0px;stroke-linecap:butt;stroke-linejoin:miter;stroke-opacity:1"/>
<path class="bond-7 atom-6 atom-8" d="M 42.2,110.8 L 32.5,70.3" style="fill:none;fill-rule:evenodd;stroke:#000000;stroke-width:2.0px;stroke-linecap:butt;stroke-linejoin:miter;stroke-opacity:1"/>
<path class="bond-8 atom-2 atom-9" d="M 152.4,105.8 L 192.3,117.7" style="fill:none;fill-rule:evenodd;stroke:#000000;stroke-width:2.0px;stroke-linecap:butt;stroke-linejoin:miter;stroke-opacity:1"/>
<path class="bond-9 atom-9 atom-10" d="M 193.2,121.2 L 205.6,109.5" style="fill:none;fill-rule:evenodd;stroke:#000000;stroke-width:2.0px;stroke-linecap:butt;stroke-linejoin:miter;stroke-opacity:1"/>
<path class="bond-9 atom-9 atom-10" d="M 205.6,109.5 L 217.9,97.7" style="fill:none;fill-rule:evenodd;stroke:#FF0000;stroke-width:2.0px;stroke-linecap:butt;stroke-linejoin:miter;stroke-opacity:1"/>
<path class="bond-9 atom-9 atom-10" d="M 188.9,116.7 L 201.3,104.9" style="fill:none;fill-rule:evenodd;stroke:#000000;stroke-width:2.0px;stroke-linecap:butt;stroke-linejoin:miter;stroke-opacity:1"/>
<path class="bond-9 atom-9 atom-10" d="M 201.3,104.9 L 213.6,93.2" style="fill:none;fill-rule:evenodd;stroke:#FF0000;stroke-width:2.0px;stroke-linecap:butt;stroke-linejoin:miter;stroke-opacity:1"/>
<path class="bond-10 atom-9 atom-11" d="M 192.3,117.7 L 196.3,134.3" style="fill:none;fill-rule:evenodd;stroke:#000000;stroke-width:2.0px;stroke-linecap:butt;stroke-linejoin:miter;stroke-opacity:1"/>
<path class="bond-10 atom-9 atom-11" d="M 196.3,134.3 L 200.3,150.9" style="fill:none;fill-rule:evenodd;stroke:#FF0000;stroke-width:2.0px;stroke-linecap:butt;stroke-linejoin:miter;stroke-opacity:1"/>
<path d="M 162.8,64.4 L 164.2,65.9 L 163.7,67.9" style="fill:none;stroke:#000000;stroke-width:2.0px;stroke-linecap:butt;stroke-linejoin:miter;stroke-opacity:1;"/>
<path d="M 114.4,94.6 L 112.4,94.0 L 110.9,95.4" style="fill:none;stroke:#000000;stroke-width:2.0px;stroke-linecap:butt;stroke-linejoin:miter;stroke-opacity:1;"/>
<path d="M 83.7,121.2 L 82.2,122.6 L 80.2,122.1" style="fill:none;stroke:#000000;stroke-width:2.0px;stroke-linecap:butt;stroke-linejoin:miter;stroke-opacity:1;"/>
<path d="M 190.3,117.1 L 192.3,117.7 L 192.5,118.5" style="fill:none;stroke:#000000;stroke-width:2.0px;stroke-linecap:butt;stroke-linejoin:miter;stroke-opacity:1;"/>
<path class="atom-10" d="M 217.2 89.0 Q 217.2 86.2, 218.6 84.6 Q 220.0 83.0, 222.6 83.0 Q 225.2 83.0, 226.6 84.6 Q 228.0 86.2, 228.0 89.0 Q 228.0 91.9, 226.6 93.5 Q 225.2 95.2, 222.6 95.2 Q 220.0 95.2, 218.6 93.5 Q 217.2 91.9, 217.2 89.0 M 222.6 93.8 Q 224.4 93.8, 225.3 92.6 Q 226.3 91.4, 226.3 89.0 Q 226.3 86.7, 225.3 85.6 Q 224.4 84.4, 222.6 84.4 Q 220.8 84.4, 219.8 85.5 Q 218.8 86.7, 218.8 89.0 Q 218.8 91.4, 219.8 92.6 Q 220.8 93.8, 222.6 93.8 " fill="#FF0000"/>
<path class="atom-11" d="M 196.6 158.2 Q 196.6 155.4, 198.0 153.8 Q 199.4 152.2, 202.0 152.2 Q 204.7 152.2, 206.1 153.8 Q 207.5 155.4, 207.5 158.2 Q 207.5 161.1, 206.0 162.7 Q 204.6 164.4, 202.0 164.4 Q 199.4 164.4, 198.0 162.7 Q 196.6 161.1, 196.6 158.2 M 202.0 163.0 Q 203.8 163.0, 204.8 161.8 Q 205.8 160.6, 205.8 158.2 Q 205.8 155.9, 204.8 154.8 Q 203.8 153.6, 202.0 153.6 Q 200.2 153.6, 199.3 154.7 Q 198.3 155.9, 198.3 158.2 Q 198.3 160.6, 199.3 161.8 Q 200.2 163.0, 202.0 163.0 " fill="#FF0000"/>
<path class="atom-11" d="M 209.3 152.4 L 210.9 152.4 L 210.9 157.4 L 216.9 157.4 L 216.9 152.4 L 218.5 152.4 L 218.5 164.2 L 216.9 164.2 L 216.9 158.7 L 210.9 158.7 L 210.9 164.2 L 209.3 164.2 L 209.3 152.4 " fill="#FF0000"/>
</svg>
