<?xml version='1.0' encoding='ASCII' standalone='yes'?>
<svg xmlns="http://www.w3.org/2000/svg" xmlns:rdkit="http://www.rdkit.org/xml" xmlns:xlink="http://www.w3.org/1999/xlink" version="1.1" baseProfile="full" xml:space="preserve" width="347px" height="200px" viewBox="0 0 347 200">
<!-- END OF HEADER -->
<rect style="opacity:1.0;fill:#FFFFFF;stroke:none" width="347.0" height="200.0" x="0.0" y="0.0"> </rect>
<path class="bond-0 atom-0 atom-1" d="M 38.2,58.4 L 67.3,46.0" style="fill:none;fill-rule:evenodd;stroke:#000000;stroke-width:2.0px;stroke-linecap:butt;stroke-linejoin:miter;stroke-opacity:1"/>
<path class="bond-1 atom-1 atom-2" d="M 67.3,46.0 L 68.8,33.1" style="fill:none;fill-rule:evenodd;stroke:#000000;stroke-width:2.0px;stroke-linecap:butt;stroke-linejoin:miter;stroke-opacity:1"/>
<path class="bond-1 atom-1 atom-2" d="M 68.8,33.1 L 70.4,20.2" style="fill:none;fill-rule:evenodd;stroke:#FF0000;stroke-width:2.0px;stroke-linecap:butt;stroke-linejoin:miter;stroke-opacity:1"/>
<path class="bond-2 atom-1 atom-3" d="M 67.3,46.0 L 92.7,65.0" style="fill:none;fill-rule:evenodd;stroke:#000000;stroke-width:2.0px;stroke-linecap:butt;stroke-linejoin:miter;stroke-opacity:1"/>
<path class="bond-3 atom-3 atom-4" d="M 92.7,65.0 L 73.6,90.4" style="fill:none;fill-rule:evenodd;stroke:#000000;stroke-width:2.0px;stroke-linecap:butt;stroke-linejoin:miter;stroke-opacity:1"/>
<path class="bond-4 atom-3 atom-5" d="M 92.7,65.0 L 111.7,39.6" style="fill:none;fill-rule:evenodd;stroke:#000000;stroke-width:2.0px;stroke-linecap:butt;stroke-linejoin:miter;stroke-opacity:1"/>
<path class="bond-5 atom-5 atom-6" d="M 111.7,39.6 L 143.1,43.4" style="fill:none;fill-rule:evenodd;stroke:#000000;stroke-width:2.0px;stroke-linecap:butt;stroke-linejoin:miter;stroke-opacity:1"/>
<path class="bond-6 atom-6 atom-7" d="M 143.1,43.4 L 143.2,75.1" style="fill:none;fill-rule:evenodd;stroke:#000000;stroke-width:2.0px;stroke-linecap:butt;stroke-linejoin:miter;stroke-opacity:1"/>
<path class="bond-7 atom-6 atom-8" d="M 143.1,43.4 L 146.9,12.0" style="fill:none;fill-rule:evenodd;stroke:#000000;stroke-width:2.0px;stroke-linecap:butt;stroke-linejoin:miter;stroke-opacity:1"/>
<path class="bond-8 atom-6 atom-9" d="M 143.1,43.4 L 174.6,47.2" style="fill:none;fill-rule:evenodd;stroke:#000000;stroke-width:2.0px;stroke-linecap:butt;stroke-linejoin:miter;stroke-opacity:1"/>
<path class="bond-9 atom-9 atom-10" d="M 174.6,47.2 L 181.9,37.4" style="fill:none;fill-rule:evenodd;stroke:#000000;stroke-width:2.0px;stroke-linecap:butt;stroke-linejoin:miter;stroke-opacity:1"/>
<path class="bond-9 atom-9 atom-10" d="M 181.9,37.4 L 189.3,27.6" style="fill:none;fill-rule:evenodd;stroke:#FF0000;stroke-width:2.0px;stroke-linecap:butt;stroke-linejoin:miter;stroke-opacity:1"/>
<path class="bond-10 atom-9 atom-11" d="M 174.6,47.2 L 187.0,76.4" style="fill:none;fill-rule:evenodd;stroke:#000000;stroke-width:2.0px;stroke-linecap:butt;stroke-linejoin:miter;stroke-opacity:1"/>
<path class="bond-11 atom-11 atom-12" d="M 187.0,76.4 L 157.9,88.8" style="fill:none;fill-rule:evenodd;stroke:#000000;stroke-width:2.0px;stroke-linecap:butt;stroke-linejoin:miter;stroke-opacity:1"/>
<path class="bond-12 atom-11 atom-13" d="M 187.0,76.4 L 216.2,63.9" style="fill:none;fill-rule:evenodd;stroke:#000000;stroke-width:2.0px;stroke-linecap:butt;stroke-linejoin:miter;stroke-opacity:1"/>
<path class="bond-13 atom-13 atom-14" d="M 216.2,63.9 L 241.5,82.9" style="fill:none;fill-rule:evenodd;stroke:#000000;stroke-width:2.0px;stroke-linecap:butt;stroke-linejoin:miter;stroke-opacity:1"/>
<path class="bond-14 atom-14 atom-15" d="M 241.5,82.9 L 237.7,114.4" style="fill:none;fill-rule:evenodd;stroke:#000000;stroke-width:2.0px;stroke-linecap:butt;stroke-linejoin:miter;stroke-opacity:1"/>
<path class="bond-15 atom-15 atom-16" d="M 237.7,114.4 L 247.8,121.9" style="fill:none;fill-rule:evenodd;stroke:#000000;stroke-width:2.0px;stroke-linecap:butt;stroke-linejoin:miter;stroke-opacity:1"/>
<path class="bond-15 atom-15 atom-16" d="M 247.8,121.9 L 257.9,129.5" style="fill:none;fill-rule:evenodd;stroke:#FF0000;stroke-width:2.0px;stroke-linecap:butt;stroke-linejoin:miter;stroke-opacity:1"/>
<path class="bond-16 atom-14 atom-17" d="M 241.5,82.9 L 270.6,70.5" style="fill:none;fill-rule:evenodd;stroke:#000000;stroke-width:2.0px;stroke-linecap:butt;stroke-linejoin:miter;stroke-opacity:1"/>
<path class="bond-17 atom-17 atom-18" d="M 272.8,72.1 L 274.4,58.5" style="fill:none;fill-rule:evenodd;stroke:#000000;stroke-width:2.0px;stroke-linecap:butt;stroke-linejoin:miter;stroke-opacity:1"/>
<path class="bond-17 atom-17 atom-18" d="M 274.4,58.5 L 276.1,45.0" style="fill:none;fill-rule:evenodd;stroke:#FF0000;stroke-width:2.0px;stroke-linecap:butt;stroke-linejoin:miter;stroke-opacity:1"/>
<path class="bond-17 atom-17 atom-18" d="M 268.2,71.5 L 269.8,58.0" style="fill:none;fill-rule:evenodd;stroke:#000000;stroke-width:2.0px;stroke-linecap:butt;stroke-linejoin:miter;stroke-opacity:1"/>
<path class="bond-17 atom-17 atom-18" d="M 269.8,58.0 L 271.4,44.4" style="fill:none;fill-rule:evenodd;stroke:#FF0000;stroke-width:2.0px;stroke-linecap:butt;stroke-linejoin:miter;stroke-opacity:1"/>
<path class="bond-18 atom-17 atom-19" d="M 270.6,70.5 L 280.7,78.0" style="fill:none;fill-rule:evenodd;stroke:#000000;stroke-width:2.0px;stroke-linecap:butt;stroke-linejoin:miter;stroke-opacity:1"/>
<path class="bond-18 atom-17 atom-19" d="M 280.7,78.0 L 290.9,85.6" style="fill:none;fill-rule:evenodd;stroke:#FF0000;stroke-width:2.0px;stroke-linecap:butt;stroke-linejoin:miter;stroke-opacity:1"/>
<path class="bond-19 atom-11 atom-20" d="M 187.0,76.4 L 199.5,105.5" style="fill:none;fill-rule:evenodd;stroke:#000000;stroke-width:2.0px;stroke-linecap:butt;stroke-linejoin:miter;stroke-opacity:1"/>
<path class="bond-20 atom-20 atom-21" d="M 199.5,105.5 L 206.6,108.2" style="fill:none;fill-rule:evenodd;stroke:#000000;stroke-width:2.0px;stroke-linecap:butt;stroke-linejoin:miter;stroke-opacity:1"/>
<path class="bond-20 atom-20 atom-21" d="M 206.6,108.2 L 213.8,110.9" style="fill:none;fill-rule:evenodd;stroke:#FF0000;stroke-width:2.0px;stroke-linecap:butt;stroke-linejoin:miter;stroke-opacity:1"/>
<path class="bond-21 atom-20 atom-22" d="M 199.5,105.5 L 180.5,130.8" style="fill:none;fill-rule:evenodd;stroke:#000000;stroke-width:2.0px;stroke-linecap:butt;stroke-linejoin:miter;stroke-opacity:1"/>
<path class="bond-22 atom-22 atom-23" d="M 180.5,130.8 L 205.8,149.8" style="fill:none;fill-rule:evenodd;stroke:#000000;stroke-width:2.0px;stroke-linecap:butt;stroke-linejoin:miter;stroke-opacity:1"/>
<path class="bond-23 atom-22 atom-24" d="M 180.5,130.8 L 155.1,111.8" style="fill:none;fill-rule:evenodd;stroke:#000000;stroke-width:2.0px;stroke-linecap:butt;stroke-linejoin:miter;stroke-opacity:1"/>
<path class="bond-24 atom-22 atom-25" d="M 180.5,130.8 L 161.5,156.2" style="fill:none;fill-rule:evenodd;stroke:#000000;stroke-width:2.0px;stroke-linecap:butt;stroke-linejoin:miter;stroke-opacity:1"/>
<path class="bond-25 atom-25 atom-26" d="M 161.5,156.2 L 166.5,168.0" style="fill:none;fill-rule:evenodd;stroke:#000000;stroke-width:2.0px;stroke-linecap:butt;stroke-linejoin:miter;stroke-opacity:1"/>
<path class="bond-25 atom-25 atom-26" d="M 166.5,168.0 L 171.5,179.8" style="fill:none;fill-rule:evenodd;stroke:#FF0000;stroke-width:2.0px;stroke-linecap:butt;stroke-linejoin:miter;stroke-opacity:1"/>
<path class="bond-26 atom-25 atom-27" d="M 161.5,156.2 L 130.0,152.4" style="fill:none;fill-rule:evenodd;stroke:#000000;stroke-width:2.0px;stroke-linecap:butt;stroke-linejoin:miter;stroke-opacity:1"/>
<path class="bond-27 atom-27 atom-28" d="M 130.0,152.4 L 126.2,183.9" style="fill:none;fill-rule:evenodd;stroke:#000000;stroke-width:2.0px;stroke-linecap:butt;stroke-linejoin:miter;stroke-opacity:1"/>
<path class="bond-28 atom-27 atom-29" d="M 130.0,152.4 L 98.6,148.6" style="fill:none;fill-rule:evenodd;stroke:#000000;stroke-width:2.0px;stroke-linecap:butt;stroke-linejoin:miter;stroke-opacity:1"/>
<path class="bond-29 atom-29 atom-30" d="M 98.6,148.6 L 91.1,158.5" style="fill:none;fill-rule:evenodd;stroke:#000000;stroke-width:2.0px;stroke-linecap:butt;stroke-linejoin:miter;stroke-opacity:1"/>
<path class="bond-29 atom-29 atom-30" d="M 91.1,158.5 L 83.7,168.4" style="fill:none;fill-rule:evenodd;stroke:#FF0000;stroke-width:2.0px;stroke-linecap:butt;stroke-linejoin:miter;stroke-opacity:1"/>
<path class="bond-30 atom-27 atom-31" d="M 130.0,152.4 L 133.8,120.9" style="fill:none;fill-rule:evenodd;stroke:#000000;stroke-width:2.0px;stroke-linecap:butt;stroke-linejoin:miter;stroke-opacity:1"/>
<path class="bond-31 atom-31 atom-32" d="M 133.8,120.9 L 108.4,101.9" style="fill:none;fill-rule:evenodd;stroke:#000000;stroke-width:2.0px;stroke-linecap:butt;stroke-linejoin:miter;stroke-opacity:1"/>
<path class="bond-32 atom-32 atom-33" d="M 108.4,101.9 L 112.2,70.5" style="fill:none;fill-rule:evenodd;stroke:#000000;stroke-width:2.0px;stroke-linecap:butt;stroke-linejoin:miter;stroke-opacity:1"/>
<path class="bond-33 atom-33 atom-34" d="M 112.2,70.5 L 107.0,68.3" style="fill:none;fill-rule:evenodd;stroke:#000000;stroke-width:2.0px;stroke-linecap:butt;stroke-linejoin:miter;stroke-opacity:1"/>
<path class="bond-33 atom-33 atom-34" d="M 107.0,68.3 L 101.9,66.1" style="fill:none;fill-rule:evenodd;stroke:#FF0000;stroke-width:2.0px;stroke-linecap:butt;stroke-linejoin:miter;stroke-opacity:1"/>
<path class="bond-34 atom-32 atom-35" d="M 108.4,101.9 L 79.3,114.4" style="fill:none;fill-rule:evenodd;stroke:#000000;stroke-width:2.0px;stroke-linecap:butt;stroke-linejoin:miter;stroke-opacity:1"/>
<path class="bond-35 atom-35 atom-36" d="M 81.8,113.3 L 71.1,105.4" style="fill:none;fill-rule:evenodd;stroke:#000000;stroke-width:2.0px;stroke-linecap:butt;stroke-linejoin:miter;stroke-opacity:1"/>
<path class="bond-35 atom-35 atom-36" d="M 71.1,105.4 L 60.5,97.4" style="fill:none;fill-rule:evenodd;stroke:#FF0000;stroke-width:2.0px;stroke-linecap:butt;stroke-linejoin:miter;stroke-opacity:1"/>
<path class="bond-35 atom-35 atom-36" d="M 79.0,117.1 L 68.3,109.1" style="fill:none;fill-rule:evenodd;stroke:#000000;stroke-width:2.0px;stroke-linecap:butt;stroke-linejoin:miter;stroke-opacity:1"/>
<path class="bond-35 atom-35 atom-36" d="M 68.3,109.1 L 57.7,101.1" style="fill:none;fill-rule:evenodd;stroke:#FF0000;stroke-width:2.0px;stroke-linecap:butt;stroke-linejoin:miter;stroke-opacity:1"/>
<path class="bond-36 atom-35 atom-37" d="M 79.3,114.4 L 77.7,127.3" style="fill:none;fill-rule:evenodd;stroke:#000000;stroke-width:2.0px;stroke-linecap:butt;stroke-linejoin:miter;stroke-opacity:1"/>
<path class="bond-36 atom-35 atom-37" d="M 77.7,127.3 L 76.2,140.3" style="fill:none;fill-rule:evenodd;stroke:#FF0000;stroke-width:2.0px;stroke-linecap:butt;stroke-linejoin:miter;stroke-opacity:1"/>
<path class="bond-37 atom-3 atom-38" d="M 92.7,65.0 L 118.0,84.0" style="fill:none;fill-rule:evenodd;stroke:#000000;stroke-width:2.0px;stroke-linecap:butt;stroke-linejoin:miter;stroke-opacity:1"/>
<path class="bond-38 atom-38 atom-39" d="M 117.0,86.7 L 130.5,82.8" style="fill:none;fill-rule:evenodd;stroke:#000000;stroke-width:2.0px;stroke-linecap:butt;stroke-linejoin:miter;stroke-opacity:1"/>
<path class="bond-38 atom-38 atom-39" d="M 130.5,82.8 L 143.9,78.9" style="fill:none;fill-rule:evenodd;stroke:#FF0000;stroke-width:2.0px;stroke-linecap:butt;stroke-linejoin:miter;stroke-opacity:1"/>
<path class="bond-38 atom-38 atom-39" d="M 115.7,82.3 L 129.2,78.4" style="fill:none;fill-rule:evenodd;stroke:#000000;stroke-width:2.0px;stroke-linecap:butt;stroke-linejoin:miter;stroke-opacity:1"/>
<path class="bond-38 atom-38 atom-39" d="M 129.2,78.4 L 142.6,74.5" style="fill:none;fill-rule:evenodd;stroke:#FF0000;stroke-width:2.0px;stroke-linecap:butt;stroke-linejoin:miter;stroke-opacity:1"/>
<path class="bond-39 atom-38 atom-40" d="M 118.0,84.0 L 113.4,96.0" style="fill:none;fill-rule:evenodd;stroke:#000000;stroke-width:2.0px;stroke-linecap:butt;stroke-linejoin:miter;stroke-opacity:1"/>
<path class="bond-39 atom-38 atom-40" d="M 113.4,96.0 L 108.8,108.1" style="fill:none;fill-rule:evenodd;stroke:#FF0000;stroke-width:2.0px;stroke-linecap:butt;stroke-linejoin:miter;stroke-opacity:1"/>
<path d="M 110.7,40.9 L 111.7,39.6 L 113.2,39.8" style="fill:none;stroke:#000000;stroke-width:2.0px;stroke-linecap:butt;stroke-linejoin:miter;stroke-opacity:1;"/>
<path d="M 214.7,64.5 L 216.2,63.9 L 217.4,64.8" style="fill:none;stroke:#000000;stroke-width:2.0px;stroke-linecap:butt;stroke-linejoin:miter;stroke-opacity:1;"/>
<path d="M 237.9,112.8 L 237.7,114.4 L 238.2,114.7" style="fill:none;stroke:#000000;stroke-width:2.0px;stroke-linecap:butt;stroke-linejoin:miter;stroke-opacity:1;"/>
<path d="M 269.2,71.1 L 270.6,70.5 L 271.2,70.8" style="fill:none;stroke:#000000;stroke-width:2.0px;stroke-linecap:butt;stroke-linejoin:miter;stroke-opacity:1;"/>
<path d="M 100.1,148.8 L 98.6,148.6 L 98.2,149.1" style="fill:none;stroke:#000000;stroke-width:2.0px;stroke-linecap:butt;stroke-linejoin:miter;stroke-opacity:1;"/>
<path d="M 133.6,122.5 L 133.8,120.9 L 132.5,120.0" style="fill:none;stroke:#000000;stroke-width:2.0px;stroke-linecap:butt;stroke-linejoin:miter;stroke-opacity:1;"/>
<path d="M 112.0,72.1 L 112.2,70.5 L 112.0,70.4" style="fill:none;stroke:#000000;stroke-width:2.0px;stroke-linecap:butt;stroke-linejoin:miter;stroke-opacity:1;"/>
<path d="M 80.8,113.8 L 79.3,114.4 L 79.2,115.0" style="fill:none;stroke:#000000;stroke-width:2.0px;stroke-linecap:butt;stroke-linejoin:miter;stroke-opacity:1;"/>
<path d="M 116.7,83.1 L 118.0,84.0 L 117.8,84.6" style="fill:none;stroke:#000000;stroke-width:2.0px;stroke-linecap:butt;stroke-linejoin:miter;stroke-opacity:1;"/>
<path class="atom-2" d="M 67.0 14.6 Q 67.0 12.4, 68.0 11.2 Q 69.1 10.0, 71.1 10.0 Q 73.1 10.0, 74.1 11.2 Q 75.2 12.4, 75.2 14.6 Q 75.2 16.7, 74.1 18.0 Q 73.0 19.2, 71.1 19.2 Q 69.1 19.2, 68.0 18.0 Q 67.0 16.8, 67.0 14.6 M 71.1 18.2 Q 72.5 18.2, 73.2 17.3 Q 73.9 16.4, 73.9 14.6 Q 73.9 12.8, 73.2 11.9 Q 72.5 11.0, 71.1 11.0 Q 69.7 11.0, 69.0 11.9 Q 68.2 12.8, 68.2 14.6 Q 68.2 16.4, 69.0 17.3 Q 69.7 18.2, 71.1 18.2 " fill="#FF0000"/>
<path class="atom-2" d="M 76.6 10.1 L 77.8 10.1 L 77.8 13.9 L 82.4 13.9 L 82.4 10.1 L 83.6 10.1 L 83.6 19.1 L 82.4 19.1 L 82.4 14.9 L 77.8 14.9 L 77.8 19.1 L 76.6 19.1 L 76.6 10.1 " fill="#FF0000"/>
<path class="atom-10" d="M 189.5 21.9 Q 189.5 19.7, 190.5 18.5 Q 191.6 17.3, 193.6 17.3 Q 195.6 17.3, 196.6 18.5 Q 197.7 19.7, 197.7 21.9 Q 197.7 24.1, 196.6 25.3 Q 195.5 26.5, 193.6 26.5 Q 191.6 26.5, 190.5 25.3 Q 189.5 24.1, 189.5 21.9 M 193.6 25.5 Q 194.9 25.5, 195.7 24.6 Q 196.4 23.7, 196.4 21.9 Q 196.4 20.1, 195.7 19.2 Q 194.9 18.3, 193.6 18.3 Q 192.2 18.3, 191.5 19.2 Q 190.7 20.1, 190.7 21.9 Q 190.7 23.7, 191.5 24.6 Q 192.2 25.5, 193.6 25.5 " fill="#FF0000"/>
<path class="atom-10" d="M 199.1 17.4 L 200.3 17.4 L 200.3 21.2 L 204.9 21.2 L 204.9 17.4 L 206.1 17.4 L 206.1 26.4 L 204.9 26.4 L 204.9 22.3 L 200.3 22.3 L 200.3 26.4 L 199.1 26.4 L 199.1 17.4 " fill="#FF0000"/>
<path class="atom-16" d="M 259.0 133.4 Q 259.0 131.2, 260.0 130.0 Q 261.1 128.8, 263.1 128.8 Q 265.1 128.8, 266.1 130.0 Q 267.2 131.2, 267.2 133.4 Q 267.2 135.6, 266.1 136.8 Q 265.0 138.0, 263.1 138.0 Q 261.1 138.0, 260.0 136.8 Q 259.0 135.6, 259.0 133.4 M 263.1 137.0 Q 264.4 137.0, 265.2 136.1 Q 265.9 135.2, 265.9 133.4 Q 265.9 131.6, 265.2 130.7 Q 264.4 129.8, 263.1 129.8 Q 261.7 129.8, 261.0 130.7 Q 260.2 131.6, 260.2 133.4 Q 260.2 135.2, 261.0 136.1 Q 261.7 137.0, 263.1 137.0 " fill="#FF0000"/>
<path class="atom-16" d="M 268.6 128.9 L 269.8 128.9 L 269.8 132.7 L 274.4 132.7 L 274.4 128.9 L 275.6 128.9 L 275.6 137.9 L 274.4 137.9 L 274.4 133.8 L 269.8 133.8 L 269.8 137.9 L 268.6 137.9 L 268.6 128.9 " fill="#FF0000"/>
<path class="atom-18" d="M 270.3 39.0 Q 270.3 36.9, 271.4 35.7 Q 272.4 34.5, 274.4 34.5 Q 276.4 34.5, 277.5 35.7 Q 278.5 36.9, 278.5 39.0 Q 278.5 41.2, 277.5 42.4 Q 276.4 43.7, 274.4 43.7 Q 272.5 43.7, 271.4 42.4 Q 270.3 41.2, 270.3 39.0 M 274.4 42.7 Q 275.8 42.7, 276.5 41.7 Q 277.3 40.8, 277.3 39.0 Q 277.3 37.3, 276.5 36.4 Q 275.8 35.5, 274.4 35.5 Q 273.1 35.5, 272.3 36.4 Q 271.6 37.2, 271.6 39.0 Q 271.6 40.8, 272.3 41.7 Q 273.1 42.7, 274.4 42.7 " fill="#FF0000"/>
<path class="atom-19" d="M 291.9 89.5 Q 291.9 87.3, 292.9 86.1 Q 294.0 84.9, 296.0 84.9 Q 298.0 84.9, 299.1 86.1 Q 300.1 87.3, 300.1 89.5 Q 300.1 91.7, 299.0 92.9 Q 298.0 94.1, 296.0 94.1 Q 294.0 94.1, 292.9 92.9 Q 291.9 91.7, 291.9 89.5 M 296.0 93.1 Q 297.4 93.1, 298.1 92.2 Q 298.8 91.3, 298.8 89.5 Q 298.8 87.7, 298.1 86.8 Q 297.4 85.9, 296.0 85.9 Q 294.6 85.9, 293.9 86.8 Q 293.1 87.7, 293.1 89.5 Q 293.1 91.3, 293.9 92.2 Q 294.6 93.1, 296.0 93.1 " fill="#FF0000"/>
<path class="atom-19" d="M 301.5 85.0 L 302.7 85.0 L 302.7 88.8 L 307.3 88.8 L 307.3 85.0 L 308.5 85.0 L 308.5 94.0 L 307.3 94.0 L 307.3 89.9 L 302.7 89.9 L 302.7 94.0 L 301.5 94.0 L 301.5 85.0 " fill="#FF0000"/>
<path class="atom-21" d="M 214.8 112.9 Q 214.8 110.8, 215.8 109.6 Q 216.9 108.4, 218.9 108.4 Q 220.9 108.4, 222.0 109.6 Q 223.0 110.8, 223.0 112.9 Q 223.0 115.1, 221.9 116.3 Q 220.9 117.6, 218.9 117.6 Q 216.9 117.6, 215.8 116.3 Q 214.8 115.1, 214.8 112.9 M 218.9 116.6 Q 220.3 116.6, 221.0 115.6 Q 221.8 114.7, 221.8 112.9 Q 221.8 111.2, 221.0 110.3 Q 220.3 109.4, 218.9 109.4 Q 217.5 109.4, 216.8 110.3 Q 216.1 111.1, 216.1 112.9 Q 216.1 114.7, 216.8 115.6 Q 217.5 116.6, 218.9 116.6 " fill="#FF0000"/>
<path class="atom-21" d="M 224.4 108.5 L 225.6 108.5 L 225.6 112.3 L 230.2 112.3 L 230.2 108.5 L 231.4 108.5 L 231.4 117.4 L 230.2 117.4 L 230.2 113.3 L 225.6 113.3 L 225.6 117.4 L 224.4 117.4 L 224.4 108.5 " fill="#FF0000"/>
<path class="atom-26" d="M 169.8 185.3 Q 169.8 183.2, 170.9 182.0 Q 171.9 180.8, 173.9 180.8 Q 175.9 180.8, 177.0 182.0 Q 178.0 183.2, 178.0 185.3 Q 178.0 187.5, 177.0 188.8 Q 175.9 190.0, 173.9 190.0 Q 171.9 190.0, 170.9 188.8 Q 169.8 187.5, 169.8 185.3 M 173.9 189.0 Q 175.3 189.0, 176.0 188.1 Q 176.8 187.1, 176.8 185.3 Q 176.8 183.6, 176.0 182.7 Q 175.3 181.8, 173.9 181.8 Q 172.5 181.8, 171.8 182.7 Q 171.1 183.6, 171.1 185.3 Q 171.1 187.2, 171.8 188.1 Q 172.5 189.0, 173.9 189.0 " fill="#FF0000"/>
<path class="atom-26" d="M 179.4 180.9 L 180.7 180.9 L 180.7 184.7 L 185.2 184.7 L 185.2 180.9 L 186.5 180.9 L 186.5 189.9 L 185.2 189.9 L 185.2 185.7 L 180.7 185.7 L 180.7 189.9 L 179.4 189.9 L 179.4 180.9 " fill="#FF0000"/>
<path class="atom-30" d="M 66.6 169.5 L 67.8 169.5 L 67.8 173.4 L 72.4 173.4 L 72.4 169.5 L 73.6 169.5 L 73.6 178.5 L 72.4 178.5 L 72.4 174.4 L 67.8 174.4 L 67.8 178.5 L 66.6 178.5 L 66.6 169.5 " fill="#FF0000"/>
<path class="atom-30" d="M 75.4 174.0 Q 75.4 171.8, 76.5 170.6 Q 77.6 169.4, 79.5 169.4 Q 81.5 169.4, 82.6 170.6 Q 83.7 171.8, 83.7 174.0 Q 83.7 176.2, 82.6 177.4 Q 81.5 178.6, 79.5 178.6 Q 77.6 178.6, 76.5 177.4 Q 75.4 176.2, 75.4 174.0 M 79.5 177.6 Q 80.9 177.6, 81.6 176.7 Q 82.4 175.8, 82.4 174.0 Q 82.4 172.2, 81.6 171.3 Q 80.9 170.4, 79.5 170.4 Q 78.2 170.4, 77.4 171.3 Q 76.7 172.2, 76.7 174.0 Q 76.7 175.8, 77.4 176.7 Q 78.2 177.6, 79.5 177.6 " fill="#FF0000"/>
<path class="atom-34" d="M 83.7 59.5 L 84.9 59.5 L 84.9 63.3 L 89.5 63.3 L 89.5 59.5 L 90.7 59.5 L 90.7 68.5 L 89.5 68.5 L 89.5 64.3 L 84.9 64.3 L 84.9 68.5 L 83.7 68.5 L 83.7 59.5 " fill="#FF0000"/>
<path class="atom-34" d="M 92.6 64.0 Q 92.6 61.8, 93.7 60.6 Q 94.7 59.4, 96.7 59.4 Q 98.7 59.4, 99.8 60.6 Q 100.8 61.8, 100.8 64.0 Q 100.8 66.1, 99.7 67.4 Q 98.7 68.6, 96.7 68.6 Q 94.7 68.6, 93.7 67.4 Q 92.6 66.2, 92.6 64.0 M 96.7 67.6 Q 98.1 67.6, 98.8 66.7 Q 99.6 65.8, 99.6 64.0 Q 99.6 62.2, 98.8 61.3 Q 98.1 60.4, 96.7 60.4 Q 95.3 60.4, 94.6 61.3 Q 93.9 62.2, 93.9 64.0 Q 93.9 65.8, 94.6 66.7 Q 95.3 67.6, 96.7 67.6 " fill="#FF0000"/>
<path class="atom-36" d="M 49.8 95.4 Q 49.8 93.3, 50.9 92.1 Q 52.0 90.9, 54.0 90.9 Q 55.9 90.9, 57.0 92.1 Q 58.1 93.3, 58.1 95.4 Q 58.1 97.6, 57.0 98.8 Q 55.9 100.1, 54.0 100.1 Q 52.0 100.1, 50.9 98.8 Q 49.8 97.6, 49.8 95.4 M 54.0 99.1 Q 55.3 99.1, 56.1 98.1 Q 56.8 97.2, 56.8 95.4 Q 56.8 93.7, 56.1 92.8 Q 55.3 91.9, 54.0 91.9 Q 52.6 91.9, 51.8 92.8 Q 51.1 93.6, 51.1 95.4 Q 51.1 97.2, 51.8 98.1 Q 52.6 99.1, 54.0 99.1 " fill="#FF0000"/>
<path class="atom-37" d="M 71.4 145.9 Q 71.4 143.7, 72.5 142.5 Q 73.5 141.3, 75.5 141.3 Q 77.5 141.3, 78.6 142.5 Q 79.6 143.7, 79.6 145.9 Q 79.6 148.1, 78.6 149.3 Q 77.5 150.5, 75.5 150.5 Q 73.5 150.5, 72.5 149.3 Q 71.4 148.1, 71.4 145.9 M 75.5 149.5 Q 76.9 149.5, 77.6 148.6 Q 78.4 147.7, 78.4 145.9 Q 78.4 144.1, 77.6 143.2 Q 76.9 142.3, 75.5 142.3 Q 74.2 142.3, 73.4 143.2 Q 72.7 144.1, 72.7 145.9 Q 72.7 147.7, 73.4 148.6 Q 74.2 149.5, 75.5 149.5 " fill="#FF0000"/>
<path class="atom-37" d="M 81.0 141.4 L 82.3 141.4 L 82.3 145.2 L 86.8 145.2 L 86.8 141.4 L 88.1 141.4 L 88.1 150.4 L 86.8 150.4 L 86.8 146.2 L 82.3 146.2 L 82.3 150.4 L 81.0 150.4 L 81.0 141.4 " fill="#FF0000"/>
<path class="atom-39" d="M 144.3 75.2 Q 144.3 73.1, 145.4 71.9 Q 146.4 70.7, 148.4 70.7 Q 150.4 70.7, 151.5 71.9 Q 152.6 73.1, 152.6 75.2 Q 152.6 77.4, 151.5 78.6 Q 150.4 79.9, 148.4 79.9 Q 146.5 79.9, 145.4 78.6 Q 144.3 77.4, 144.3 75.2 M 148.4 78.9 Q 149.8 78.9, 150.5 77.9 Q 151.3 77.0, 151.3 75.2 Q 151.3 73.5, 150.5 72.6 Q 149.8 71.7, 148.4 71.7 Q 147.1 71.7, 146.3 72.6 Q 145.6 73.4, 145.6 75.2 Q 145.6 77.0, 146.3 77.9 Q 147.1 78.9, 148.4 78.9 " fill="#FF0000"/>
<path class="atom-40" d="M 93.7 109.2 L 95.0 109.2 L 95.0 113.0 L 99.5 113.0 L 99.5 109.2 L 100.8 109.2 L 100.8 118.2 L 99.5 118.2 L 99.5 114.0 L 95.0 114.0 L 95.0 118.2 L 93.7 118.2 L 93.7 109.2 " fill="#FF0000"/>
<path class="atom-40" d="M 102.6 113.6 Q 102.6 111.5, 103.7 110.3 Q 104.7 109.1, 106.7 109.1 Q 108.7 109.1, 109.8 110.3 Q 110.8 111.5, 110.8 113.6 Q 110.8 115.8, 109.8 117.1 Q 108.7 118.3, 106.7 118.3 Q 104.7 118.3, 103.7 117.1 Q 102.6 115.8, 102.6 113.6 M 106.7 117.3 Q 108.1 117.3, 108.8 116.4 Q 109.6 115.4, 109.6 113.6 Q 109.6 111.9, 108.8 111.0 Q 108.1 110.1, 106.7 110.1 Q 105.4 110.1, 104.6 111.0 Q 103.9 111.9, 103.9 113.6 Q 103.9 115.5, 104.6 116.4 Q 105.4 117.3, 106.7 117.3 " fill="#FF0000"/>
</svg>
