<?xml version='1.0' encoding='ASCII' standalone='yes'?>
<svg xmlns="http://www.w3.org/2000/svg" xmlns:rdkit="http://www.rdkit.org/xml" xmlns:xlink="http://www.w3.org/1999/xlink" version="1.1" baseProfile="full" xml:space="preserve" width="359px" height="200px" viewBox="0 0 359 200">
<!-- END OF HEADER -->
<rect style="opacity:1.0;fill:#FFFFFF;stroke:none" width="359.0" height="200.0" x="0.0" y="0.0"> </rect>
<path class="bond-0 atom-0 atom-1" d="M 205.3,10.0 L 199.4,38.8" style="fill:none;fill-rule:evenodd;stroke:#000000;stroke-width:2.0px;stroke-linecap:butt;stroke-linejoin:miter;stroke-opacity:1"/>
<path class="bond-1 atom-1 atom-2" d="M 199.4,38.8 L 209.1,45.4" style="fill:none;fill-rule:evenodd;stroke:#000000;stroke-width:2.0px;stroke-linecap:butt;stroke-linejoin:miter;stroke-opacity:1"/>
<path class="bond-1 atom-1 atom-2" d="M 209.1,45.4 L 218.8,52.1" style="fill:none;fill-rule:evenodd;stroke:#FF0000;stroke-width:2.0px;stroke-linecap:butt;stroke-linejoin:miter;stroke-opacity:1"/>
<path class="bond-2 atom-1 atom-3" d="M 199.4,38.8 L 171.6,48.0" style="fill:none;fill-rule:evenodd;stroke:#000000;stroke-width:2.0px;stroke-linecap:butt;stroke-linejoin:miter;stroke-opacity:1"/>
<path class="bond-3 atom-3 atom-4" d="M 171.6,48.0 L 162.3,20.2" style="fill:none;fill-rule:evenodd;stroke:#000000;stroke-width:2.0px;stroke-linecap:butt;stroke-linejoin:miter;stroke-opacity:1"/>
<path class="bond-4 atom-3 atom-5" d="M 171.6,48.0 L 143.8,57.3" style="fill:none;fill-rule:evenodd;stroke:#000000;stroke-width:2.0px;stroke-linecap:butt;stroke-linejoin:miter;stroke-opacity:1"/>
<path class="bond-5 atom-5 atom-6" d="M 142.2,55.5 L 139.9,60.4" style="fill:none;fill-rule:evenodd;stroke:#000000;stroke-width:2.0px;stroke-linecap:butt;stroke-linejoin:miter;stroke-opacity:1"/>
<path class="bond-5 atom-5 atom-6" d="M 139.9,60.4 L 137.5,65.3" style="fill:none;fill-rule:evenodd;stroke:#FF0000;stroke-width:2.0px;stroke-linecap:butt;stroke-linejoin:miter;stroke-opacity:1"/>
<path class="bond-5 atom-5 atom-6" d="M 146.6,56.4 L 143.8,62.3" style="fill:none;fill-rule:evenodd;stroke:#000000;stroke-width:2.0px;stroke-linecap:butt;stroke-linejoin:miter;stroke-opacity:1"/>
<path class="bond-5 atom-5 atom-6" d="M 143.8,62.3 L 141.5,67.2" style="fill:none;fill-rule:evenodd;stroke:#FF0000;stroke-width:2.0px;stroke-linecap:butt;stroke-linejoin:miter;stroke-opacity:1"/>
<path class="bond-6 atom-5 atom-7" d="M 143.8,57.3 L 136.4,49.0" style="fill:none;fill-rule:evenodd;stroke:#000000;stroke-width:2.0px;stroke-linecap:butt;stroke-linejoin:miter;stroke-opacity:1"/>
<path class="bond-6 atom-5 atom-7" d="M 136.4,49.0 L 129.0,40.6" style="fill:none;fill-rule:evenodd;stroke:#FF0000;stroke-width:2.0px;stroke-linecap:butt;stroke-linejoin:miter;stroke-opacity:1"/>
<path class="bond-7 atom-3 atom-8" d="M 171.6,48.0 L 180.9,75.9" style="fill:none;fill-rule:evenodd;stroke:#000000;stroke-width:2.0px;stroke-linecap:butt;stroke-linejoin:miter;stroke-opacity:1"/>
<path class="bond-8 atom-8 atom-9" d="M 180.9,75.9 L 161.4,97.8" style="fill:none;fill-rule:evenodd;stroke:#000000;stroke-width:2.0px;stroke-linecap:butt;stroke-linejoin:miter;stroke-opacity:1"/>
<path class="bond-9 atom-9 atom-10" d="M 161.4,97.8 L 183.4,117.3" style="fill:none;fill-rule:evenodd;stroke:#000000;stroke-width:2.0px;stroke-linecap:butt;stroke-linejoin:miter;stroke-opacity:1"/>
<path class="bond-10 atom-9 atom-11" d="M 161.4,97.8 L 139.5,78.4" style="fill:none;fill-rule:evenodd;stroke:#000000;stroke-width:2.0px;stroke-linecap:butt;stroke-linejoin:miter;stroke-opacity:1"/>
<path class="bond-11 atom-11 atom-12" d="M 139.5,78.4 L 111.6,87.7" style="fill:none;fill-rule:evenodd;stroke:#000000;stroke-width:2.0px;stroke-linecap:butt;stroke-linejoin:miter;stroke-opacity:1"/>
<path class="bond-12 atom-12 atom-13" d="M 111.6,87.7 L 83.8,96.9" style="fill:none;fill-rule:evenodd;stroke:#000000;stroke-width:2.0px;stroke-linecap:butt;stroke-linejoin:miter;stroke-opacity:1"/>
<path class="bond-13 atom-12 atom-14" d="M 111.6,87.7 L 120.9,115.5" style="fill:none;fill-rule:evenodd;stroke:#000000;stroke-width:2.0px;stroke-linecap:butt;stroke-linejoin:miter;stroke-opacity:1"/>
<path class="bond-14 atom-14 atom-15" d="M 120.9,115.5 L 101.4,137.5" style="fill:none;fill-rule:evenodd;stroke:#000000;stroke-width:2.0px;stroke-linecap:butt;stroke-linejoin:miter;stroke-opacity:1"/>
<path class="bond-15 atom-15 atom-16" d="M 101.4,137.5 L 82.0,159.4" style="fill:none;fill-rule:evenodd;stroke:#000000;stroke-width:2.0px;stroke-linecap:butt;stroke-linejoin:miter;stroke-opacity:1"/>
<path class="bond-16 atom-15 atom-17" d="M 101.4,137.5 L 79.5,118.0" style="fill:none;fill-rule:evenodd;stroke:#000000;stroke-width:2.0px;stroke-linecap:butt;stroke-linejoin:miter;stroke-opacity:1"/>
<path class="bond-17 atom-17 atom-18" d="M 79.5,118.0 L 68.0,121.8" style="fill:none;fill-rule:evenodd;stroke:#000000;stroke-width:2.0px;stroke-linecap:butt;stroke-linejoin:miter;stroke-opacity:1"/>
<path class="bond-17 atom-17 atom-18" d="M 68.0,121.8 L 56.4,125.7" style="fill:none;fill-rule:evenodd;stroke:#FF0000;stroke-width:2.0px;stroke-linecap:butt;stroke-linejoin:miter;stroke-opacity:1"/>
<path class="bond-18 atom-15 atom-19" d="M 101.4,137.5 L 123.4,156.9" style="fill:none;fill-rule:evenodd;stroke:#000000;stroke-width:2.0px;stroke-linecap:butt;stroke-linejoin:miter;stroke-opacity:1"/>
<path class="bond-19 atom-19 atom-20" d="M 122.9,159.2 L 135.4,156.7" style="fill:none;fill-rule:evenodd;stroke:#000000;stroke-width:2.0px;stroke-linecap:butt;stroke-linejoin:miter;stroke-opacity:1"/>
<path class="bond-19 atom-19 atom-20" d="M 135.4,156.7 L 147.8,154.2" style="fill:none;fill-rule:evenodd;stroke:#FF0000;stroke-width:2.0px;stroke-linecap:butt;stroke-linejoin:miter;stroke-opacity:1"/>
<path class="bond-19 atom-19 atom-20" d="M 121.4,155.1 L 134.5,152.4" style="fill:none;fill-rule:evenodd;stroke:#000000;stroke-width:2.0px;stroke-linecap:butt;stroke-linejoin:miter;stroke-opacity:1"/>
<path class="bond-19 atom-19 atom-20" d="M 134.5,152.4 L 147.0,149.9" style="fill:none;fill-rule:evenodd;stroke:#FF0000;stroke-width:2.0px;stroke-linecap:butt;stroke-linejoin:miter;stroke-opacity:1"/>
<path class="bond-20 atom-19 atom-21" d="M 123.4,156.9 L 121.0,168.7" style="fill:none;fill-rule:evenodd;stroke:#000000;stroke-width:2.0px;stroke-linecap:butt;stroke-linejoin:miter;stroke-opacity:1"/>
<path class="bond-20 atom-19 atom-21" d="M 121.0,168.7 L 118.6,180.5" style="fill:none;fill-rule:evenodd;stroke:#FF0000;stroke-width:2.0px;stroke-linecap:butt;stroke-linejoin:miter;stroke-opacity:1"/>
<path class="bond-21 atom-12 atom-22" d="M 111.6,87.7 L 102.3,59.8" style="fill:none;fill-rule:evenodd;stroke:#000000;stroke-width:2.0px;stroke-linecap:butt;stroke-linejoin:miter;stroke-opacity:1"/>
<path class="bond-22 atom-22 atom-23" d="M 103.2,62.4 L 110.2,52.3" style="fill:none;fill-rule:evenodd;stroke:#000000;stroke-width:2.0px;stroke-linecap:butt;stroke-linejoin:miter;stroke-opacity:1"/>
<path class="bond-22 atom-22 atom-23" d="M 110.2,52.3 L 117.1,42.2" style="fill:none;fill-rule:evenodd;stroke:#FF0000;stroke-width:2.0px;stroke-linecap:butt;stroke-linejoin:miter;stroke-opacity:1"/>
<path class="bond-22 atom-22 atom-23" d="M 100.0,59.3 L 106.6,49.8" style="fill:none;fill-rule:evenodd;stroke:#000000;stroke-width:2.0px;stroke-linecap:butt;stroke-linejoin:miter;stroke-opacity:1"/>
<path class="bond-22 atom-22 atom-23" d="M 106.6,49.8 L 113.6,39.7" style="fill:none;fill-rule:evenodd;stroke:#FF0000;stroke-width:2.0px;stroke-linecap:butt;stroke-linejoin:miter;stroke-opacity:1"/>
<path class="bond-23 atom-22 atom-24" d="M 102.3,59.8 L 90.4,57.4" style="fill:none;fill-rule:evenodd;stroke:#000000;stroke-width:2.0px;stroke-linecap:butt;stroke-linejoin:miter;stroke-opacity:1"/>
<path class="bond-23 atom-22 atom-24" d="M 90.4,57.4 L 78.4,54.9" style="fill:none;fill-rule:evenodd;stroke:#FF0000;stroke-width:2.0px;stroke-linecap:butt;stroke-linejoin:miter;stroke-opacity:1"/>
<path class="bond-24 atom-9 atom-25" d="M 161.4,97.8 L 142.0,119.8" style="fill:none;fill-rule:evenodd;stroke:#000000;stroke-width:2.0px;stroke-linecap:butt;stroke-linejoin:miter;stroke-opacity:1"/>
<path class="bond-25 atom-25 atom-26" d="M 144.0,117.5 L 130.6,118.1" style="fill:none;fill-rule:evenodd;stroke:#000000;stroke-width:2.0px;stroke-linecap:butt;stroke-linejoin:miter;stroke-opacity:1"/>
<path class="bond-25 atom-25 atom-26" d="M 130.6,118.1 L 117.3,118.7" style="fill:none;fill-rule:evenodd;stroke:#FF0000;stroke-width:2.0px;stroke-linecap:butt;stroke-linejoin:miter;stroke-opacity:1"/>
<path class="bond-25 atom-25 atom-26" d="M 143.0,121.9 L 130.8,122.5" style="fill:none;fill-rule:evenodd;stroke:#000000;stroke-width:2.0px;stroke-linecap:butt;stroke-linejoin:miter;stroke-opacity:1"/>
<path class="bond-25 atom-25 atom-26" d="M 130.8,122.5 L 117.5,123.0" style="fill:none;fill-rule:evenodd;stroke:#FF0000;stroke-width:2.0px;stroke-linecap:butt;stroke-linejoin:miter;stroke-opacity:1"/>
<path class="bond-26 atom-25 atom-27" d="M 142.0,119.8 L 147.0,130.5" style="fill:none;fill-rule:evenodd;stroke:#000000;stroke-width:2.0px;stroke-linecap:butt;stroke-linejoin:miter;stroke-opacity:1"/>
<path class="bond-26 atom-25 atom-27" d="M 147.0,130.5 L 152.1,141.1" style="fill:none;fill-rule:evenodd;stroke:#FF0000;stroke-width:2.0px;stroke-linecap:butt;stroke-linejoin:miter;stroke-opacity:1"/>
<path class="bond-27 atom-8 atom-28" d="M 180.9,75.9 L 209.6,81.8" style="fill:none;fill-rule:evenodd;stroke:#000000;stroke-width:2.0px;stroke-linecap:butt;stroke-linejoin:miter;stroke-opacity:1"/>
<path class="bond-28 atom-28 atom-29" d="M 209.6,81.8 L 219.0,53.9" style="fill:none;fill-rule:evenodd;stroke:#000000;stroke-width:2.0px;stroke-linecap:butt;stroke-linejoin:miter;stroke-opacity:1"/>
<path class="bond-29 atom-28 atom-30" d="M 209.6,81.8 L 203.8,110.5" style="fill:none;fill-rule:evenodd;stroke:#000000;stroke-width:2.0px;stroke-linecap:butt;stroke-linejoin:miter;stroke-opacity:1"/>
<path class="bond-30 atom-30 atom-31" d="M 203.8,110.5 L 225.7,130.0" style="fill:none;fill-rule:evenodd;stroke:#000000;stroke-width:2.0px;stroke-linecap:butt;stroke-linejoin:miter;stroke-opacity:1"/>
<path class="bond-31 atom-31 atom-32" d="M 225.7,130.0 L 247.7,149.4" style="fill:none;fill-rule:evenodd;stroke:#000000;stroke-width:2.0px;stroke-linecap:butt;stroke-linejoin:miter;stroke-opacity:1"/>
<path class="bond-32 atom-31 atom-33" d="M 225.7,130.0 L 245.2,108.0" style="fill:none;fill-rule:evenodd;stroke:#000000;stroke-width:2.0px;stroke-linecap:butt;stroke-linejoin:miter;stroke-opacity:1"/>
<path class="bond-33 atom-33 atom-34" d="M 245.2,108.0 L 273.9,113.9" style="fill:none;fill-rule:evenodd;stroke:#000000;stroke-width:2.0px;stroke-linecap:butt;stroke-linejoin:miter;stroke-opacity:1"/>
<path class="bond-34 atom-34 atom-35" d="M 273.9,113.9 L 302.7,119.8" style="fill:none;fill-rule:evenodd;stroke:#000000;stroke-width:2.0px;stroke-linecap:butt;stroke-linejoin:miter;stroke-opacity:1"/>
<path class="bond-35 atom-34 atom-36" d="M 273.9,113.9 L 268.1,142.6" style="fill:none;fill-rule:evenodd;stroke:#000000;stroke-width:2.0px;stroke-linecap:butt;stroke-linejoin:miter;stroke-opacity:1"/>
<path class="bond-36 atom-36 atom-37" d="M 268.1,142.6 L 276.7,150.3" style="fill:none;fill-rule:evenodd;stroke:#000000;stroke-width:2.0px;stroke-linecap:butt;stroke-linejoin:miter;stroke-opacity:1"/>
<path class="bond-36 atom-36 atom-37" d="M 276.7,150.3 L 285.3,157.9" style="fill:none;fill-rule:evenodd;stroke:#FF0000;stroke-width:2.0px;stroke-linecap:butt;stroke-linejoin:miter;stroke-opacity:1"/>
<path class="bond-37 atom-34 atom-38" d="M 273.9,113.9 L 279.8,85.1" style="fill:none;fill-rule:evenodd;stroke:#000000;stroke-width:2.0px;stroke-linecap:butt;stroke-linejoin:miter;stroke-opacity:1"/>
<path class="bond-38 atom-38 atom-39" d="M 282.1,84.4 L 274.4,75.7" style="fill:none;fill-rule:evenodd;stroke:#000000;stroke-width:2.0px;stroke-linecap:butt;stroke-linejoin:miter;stroke-opacity:1"/>
<path class="bond-38 atom-38 atom-39" d="M 274.4,75.7 L 266.7,67.0" style="fill:none;fill-rule:evenodd;stroke:#FF0000;stroke-width:2.0px;stroke-linecap:butt;stroke-linejoin:miter;stroke-opacity:1"/>
<path class="bond-38 atom-38 atom-39" d="M 279.3,87.8 L 271.1,78.6" style="fill:none;fill-rule:evenodd;stroke:#000000;stroke-width:2.0px;stroke-linecap:butt;stroke-linejoin:miter;stroke-opacity:1"/>
<path class="bond-38 atom-38 atom-39" d="M 271.1,78.6 L 263.4,69.9" style="fill:none;fill-rule:evenodd;stroke:#FF0000;stroke-width:2.0px;stroke-linecap:butt;stroke-linejoin:miter;stroke-opacity:1"/>
<path class="bond-39 atom-38 atom-40" d="M 279.8,85.1 L 291.4,81.3" style="fill:none;fill-rule:evenodd;stroke:#000000;stroke-width:2.0px;stroke-linecap:butt;stroke-linejoin:miter;stroke-opacity:1"/>
<path class="bond-39 atom-38 atom-40" d="M 291.4,81.3 L 302.9,77.4" style="fill:none;fill-rule:evenodd;stroke:#FF0000;stroke-width:2.0px;stroke-linecap:butt;stroke-linejoin:miter;stroke-opacity:1"/>
<path class="bond-40 atom-31 atom-41" d="M 225.7,130.0 L 206.3,151.9" style="fill:none;fill-rule:evenodd;stroke:#000000;stroke-width:2.0px;stroke-linecap:butt;stroke-linejoin:miter;stroke-opacity:1"/>
<path class="bond-41 atom-41 atom-42" d="M 207.9,150.0 L 195.3,147.5" style="fill:none;fill-rule:evenodd;stroke:#000000;stroke-width:2.0px;stroke-linecap:butt;stroke-linejoin:miter;stroke-opacity:1"/>
<path class="bond-41 atom-41 atom-42" d="M 195.3,147.5 L 182.7,144.9" style="fill:none;fill-rule:evenodd;stroke:#FF0000;stroke-width:2.0px;stroke-linecap:butt;stroke-linejoin:miter;stroke-opacity:1"/>
<path class="bond-41 atom-41 atom-42" d="M 207.1,154.3 L 194.5,151.7" style="fill:none;fill-rule:evenodd;stroke:#000000;stroke-width:2.0px;stroke-linecap:butt;stroke-linejoin:miter;stroke-opacity:1"/>
<path class="bond-41 atom-41 atom-42" d="M 194.5,151.7 L 181.8,149.2" style="fill:none;fill-rule:evenodd;stroke:#FF0000;stroke-width:2.0px;stroke-linecap:butt;stroke-linejoin:miter;stroke-opacity:1"/>
<path class="bond-42 atom-41 atom-43" d="M 206.3,151.9 L 210.0,163.3" style="fill:none;fill-rule:evenodd;stroke:#000000;stroke-width:2.0px;stroke-linecap:butt;stroke-linejoin:miter;stroke-opacity:1"/>
<path class="bond-42 atom-41 atom-43" d="M 210.0,163.3 L 213.8,174.6" style="fill:none;fill-rule:evenodd;stroke:#FF0000;stroke-width:2.0px;stroke-linecap:butt;stroke-linejoin:miter;stroke-opacity:1"/>
<path class="bond-43 atom-28 atom-44" d="M 209.6,81.8 L 238.4,87.6" style="fill:none;fill-rule:evenodd;stroke:#000000;stroke-width:2.0px;stroke-linecap:butt;stroke-linejoin:miter;stroke-opacity:1"/>
<path class="bond-44 atom-44 atom-45" d="M 239.7,89.6 L 246.4,79.8" style="fill:none;fill-rule:evenodd;stroke:#000000;stroke-width:2.0px;stroke-linecap:butt;stroke-linejoin:miter;stroke-opacity:1"/>
<path class="bond-44 atom-44 atom-45" d="M 246.4,79.8 L 253.2,70.0" style="fill:none;fill-rule:evenodd;stroke:#FF0000;stroke-width:2.0px;stroke-linecap:butt;stroke-linejoin:miter;stroke-opacity:1"/>
<path class="bond-44 atom-44 atom-45" d="M 236.1,87.2 L 242.8,77.3" style="fill:none;fill-rule:evenodd;stroke:#000000;stroke-width:2.0px;stroke-linecap:butt;stroke-linejoin:miter;stroke-opacity:1"/>
<path class="bond-44 atom-44 atom-45" d="M 242.8,77.3 L 249.6,67.5" style="fill:none;fill-rule:evenodd;stroke:#FF0000;stroke-width:2.0px;stroke-linecap:butt;stroke-linejoin:miter;stroke-opacity:1"/>
<path class="bond-45 atom-44 atom-46" d="M 238.4,87.6 L 244.6,97.4" style="fill:none;fill-rule:evenodd;stroke:#000000;stroke-width:2.0px;stroke-linecap:butt;stroke-linejoin:miter;stroke-opacity:1"/>
<path class="bond-45 atom-44 atom-46" d="M 244.6,97.4 L 250.9,107.2" style="fill:none;fill-rule:evenodd;stroke:#FF0000;stroke-width:2.0px;stroke-linecap:butt;stroke-linejoin:miter;stroke-opacity:1"/>
<path d="M 145.2,56.9 L 143.8,57.3 L 143.4,56.9" style="fill:none;stroke:#000000;stroke-width:2.0px;stroke-linecap:butt;stroke-linejoin:miter;stroke-opacity:1;"/>
<path d="M 140.6,79.3 L 139.5,78.4 L 138.1,78.8" style="fill:none;stroke:#000000;stroke-width:2.0px;stroke-linecap:butt;stroke-linejoin:miter;stroke-opacity:1;"/>
<path d="M 120.5,114.1 L 120.9,115.5 L 119.9,116.6" style="fill:none;stroke:#000000;stroke-width:2.0px;stroke-linecap:butt;stroke-linejoin:miter;stroke-opacity:1;"/>
<path d="M 80.6,119.0 L 79.5,118.0 L 78.9,118.2" style="fill:none;stroke:#000000;stroke-width:2.0px;stroke-linecap:butt;stroke-linejoin:miter;stroke-opacity:1;"/>
<path d="M 122.3,155.9 L 123.4,156.9 L 123.3,157.5" style="fill:none;stroke:#000000;stroke-width:2.0px;stroke-linecap:butt;stroke-linejoin:miter;stroke-opacity:1;"/>
<path d="M 102.8,61.2 L 102.3,59.8 L 101.7,59.7" style="fill:none;stroke:#000000;stroke-width:2.0px;stroke-linecap:butt;stroke-linejoin:miter;stroke-opacity:1;"/>
<path d="M 142.9,118.7 L 142.0,119.8 L 142.2,120.3" style="fill:none;stroke:#000000;stroke-width:2.0px;stroke-linecap:butt;stroke-linejoin:miter;stroke-opacity:1;"/>
<path d="M 204.1,109.1 L 203.8,110.5 L 204.9,111.5" style="fill:none;stroke:#000000;stroke-width:2.0px;stroke-linecap:butt;stroke-linejoin:miter;stroke-opacity:1;"/>
<path d="M 244.2,109.1 L 245.2,108.0 L 246.6,108.3" style="fill:none;stroke:#000000;stroke-width:2.0px;stroke-linecap:butt;stroke-linejoin:miter;stroke-opacity:1;"/>
<path d="M 268.4,141.2 L 268.1,142.6 L 268.5,143.0" style="fill:none;stroke:#000000;stroke-width:2.0px;stroke-linecap:butt;stroke-linejoin:miter;stroke-opacity:1;"/>
<path d="M 279.5,86.6 L 279.8,85.1 L 280.4,84.9" style="fill:none;stroke:#000000;stroke-width:2.0px;stroke-linecap:butt;stroke-linejoin:miter;stroke-opacity:1;"/>
<path d="M 207.2,150.8 L 206.3,151.9 L 206.5,152.5" style="fill:none;stroke:#000000;stroke-width:2.0px;stroke-linecap:butt;stroke-linejoin:miter;stroke-opacity:1;"/>
<path d="M 237.0,87.3 L 238.4,87.6 L 238.7,88.1" style="fill:none;stroke:#000000;stroke-width:2.0px;stroke-linecap:butt;stroke-linejoin:miter;stroke-opacity:1;"/>
<path class="atom-2" d="M 219.8 55.4 Q 219.8 53.4, 220.8 52.3 Q 221.8 51.2, 223.6 51.2 Q 225.5 51.2, 226.4 52.3 Q 227.4 53.4, 227.4 55.4 Q 227.4 57.4, 226.4 58.6 Q 225.4 59.7, 223.6 59.7 Q 221.8 59.7, 220.8 58.6 Q 219.8 57.4, 219.8 55.4 M 223.6 58.8 Q 224.9 58.8, 225.6 57.9 Q 226.3 57.1, 226.3 55.4 Q 226.3 53.8, 225.6 53.0 Q 224.9 52.1, 223.6 52.1 Q 222.3 52.1, 221.7 53.0 Q 221.0 53.8, 221.0 55.4 Q 221.0 57.1, 221.7 57.9 Q 222.3 58.8, 223.6 58.8 " fill="#FF0000"/>
<path class="atom-2" d="M 228.7 51.3 L 229.9 51.3 L 229.9 54.8 L 234.1 54.8 L 234.1 51.3 L 235.2 51.3 L 235.2 59.6 L 234.1 59.6 L 234.1 55.8 L 229.9 55.8 L 229.9 59.6 L 228.7 59.6 L 228.7 51.3 " fill="#FF0000"/>
<path class="atom-6" d="M 133.2 71.4 Q 133.2 69.4, 134.2 68.3 Q 135.2 67.2, 137.0 67.2 Q 138.9 67.2, 139.9 68.3 Q 140.9 69.4, 140.9 71.4 Q 140.9 73.4, 139.9 74.6 Q 138.9 75.7, 137.0 75.7 Q 135.2 75.7, 134.2 74.6 Q 133.2 73.4, 133.2 71.4 M 137.0 74.8 Q 138.3 74.8, 139.0 73.9 Q 139.7 73.1, 139.7 71.4 Q 139.7 69.8, 139.0 69.0 Q 138.3 68.1, 137.0 68.1 Q 135.8 68.1, 135.1 68.9 Q 134.4 69.8, 134.4 71.4 Q 134.4 73.1, 135.1 73.9 Q 135.8 74.8, 137.0 74.8 " fill="#FF0000"/>
<path class="atom-7" d="M 112.3 31.2 L 113.5 31.2 L 113.5 34.7 L 117.7 34.7 L 117.7 31.2 L 118.8 31.2 L 118.8 39.5 L 117.7 39.5 L 117.7 35.7 L 113.5 35.7 L 113.5 39.5 L 112.3 39.5 L 112.3 31.2 " fill="#FF0000"/>
<path class="atom-7" d="M 120.5 35.3 Q 120.5 33.4, 121.5 32.2 Q 122.5 31.1, 124.3 31.1 Q 126.2 31.1, 127.2 32.2 Q 128.2 33.4, 128.2 35.3 Q 128.2 37.4, 127.2 38.5 Q 126.2 39.7, 124.3 39.7 Q 122.5 39.7, 121.5 38.5 Q 120.5 37.4, 120.5 35.3 M 124.3 38.7 Q 125.6 38.7, 126.3 37.9 Q 127.0 37.0, 127.0 35.3 Q 127.0 33.7, 126.3 32.9 Q 125.6 32.1, 124.3 32.1 Q 123.1 32.1, 122.4 32.9 Q 121.7 33.7, 121.7 35.3 Q 121.7 37.0, 122.4 37.9 Q 123.1 38.7, 124.3 38.7 " fill="#FF0000"/>
<path class="atom-18" d="M 39.6 123.2 L 40.8 123.2 L 40.8 126.7 L 45.0 126.7 L 45.0 123.2 L 46.1 123.2 L 46.1 131.5 L 45.0 131.5 L 45.0 127.6 L 40.8 127.6 L 40.8 131.5 L 39.6 131.5 L 39.6 123.2 " fill="#FF0000"/>
<path class="atom-18" d="M 47.8 127.3 Q 47.8 125.3, 48.8 124.2 Q 49.8 123.1, 51.7 123.1 Q 53.5 123.1, 54.5 124.2 Q 55.5 125.3, 55.5 127.3 Q 55.5 129.3, 54.5 130.5 Q 53.5 131.6, 51.7 131.6 Q 49.8 131.6, 48.8 130.5 Q 47.8 129.3, 47.8 127.3 M 51.7 130.7 Q 52.9 130.7, 53.6 129.8 Q 54.3 129.0, 54.3 127.3 Q 54.3 125.7, 53.6 124.8 Q 52.9 124.0, 51.7 124.0 Q 50.4 124.0, 49.7 124.8 Q 49.0 125.7, 49.0 127.3 Q 49.0 129.0, 49.7 129.8 Q 50.4 130.7, 51.7 130.7 " fill="#FF0000"/>
<path class="atom-20" d="M 148.4 151.1 Q 148.4 149.1, 149.3 148.0 Q 150.3 146.9, 152.2 146.9 Q 154.0 146.9, 155.0 148.0 Q 156.0 149.1, 156.0 151.1 Q 156.0 153.1, 155.0 154.3 Q 154.0 155.4, 152.2 155.4 Q 150.3 155.4, 149.3 154.3 Q 148.4 153.1, 148.4 151.1 M 152.2 154.5 Q 153.4 154.5, 154.1 153.6 Q 154.8 152.8, 154.8 151.1 Q 154.8 149.5, 154.1 148.7 Q 153.4 147.8, 152.2 147.8 Q 150.9 147.8, 150.2 148.7 Q 149.5 149.5, 149.5 151.1 Q 149.5 152.8, 150.2 153.6 Q 150.9 154.5, 152.2 154.5 " fill="#FF0000"/>
<path class="atom-21" d="M 113.7 185.7 Q 113.7 183.7, 114.7 182.6 Q 115.7 181.5, 117.5 181.5 Q 119.4 181.5, 120.4 182.6 Q 121.3 183.7, 121.3 185.7 Q 121.3 187.7, 120.3 188.9 Q 119.4 190.0, 117.5 190.0 Q 115.7 190.0, 114.7 188.9 Q 113.7 187.7, 113.7 185.7 M 117.5 189.1 Q 118.8 189.1, 119.5 188.2 Q 120.2 187.4, 120.2 185.7 Q 120.2 184.1, 119.5 183.2 Q 118.8 182.4, 117.5 182.4 Q 116.3 182.4, 115.6 183.2 Q 114.9 184.0, 114.9 185.7 Q 114.9 187.4, 115.6 188.2 Q 116.3 189.1, 117.5 189.1 " fill="#FF0000"/>
<path class="atom-21" d="M 122.6 181.6 L 123.8 181.6 L 123.8 185.1 L 128.0 185.1 L 128.0 181.6 L 129.1 181.6 L 129.1 189.9 L 128.0 189.9 L 128.0 186.0 L 123.8 186.0 L 123.8 189.9 L 122.6 189.9 L 122.6 181.6 " fill="#FF0000"/>
<path class="atom-23" d="M 115.2 35.7 Q 115.2 33.7, 116.2 32.6 Q 117.1 31.4, 119.0 31.4 Q 120.8 31.4, 121.8 32.6 Q 122.8 33.7, 122.8 35.7 Q 122.8 37.7, 121.8 38.8 Q 120.8 40.0, 119.0 40.0 Q 117.2 40.0, 116.2 38.8 Q 115.2 37.7, 115.2 35.7 M 119.0 39.0 Q 120.3 39.0, 120.9 38.2 Q 121.6 37.3, 121.6 35.7 Q 121.6 34.0, 120.9 33.2 Q 120.3 32.4, 119.0 32.4 Q 117.7 32.4, 117.0 33.2 Q 116.3 34.0, 116.3 35.7 Q 116.3 37.3, 117.0 38.2 Q 117.7 39.0, 119.0 39.0 " fill="#FF0000"/>
<path class="atom-24" d="M 61.6 49.8 L 62.7 49.8 L 62.7 53.4 L 66.9 53.4 L 66.9 49.8 L 68.1 49.8 L 68.1 58.1 L 66.9 58.1 L 66.9 54.3 L 62.7 54.3 L 62.7 58.1 L 61.6 58.1 L 61.6 49.8 " fill="#FF0000"/>
<path class="atom-24" d="M 69.8 54.0 Q 69.8 52.0, 70.8 50.8 Q 71.8 49.7, 73.6 49.7 Q 75.4 49.7, 76.4 50.8 Q 77.4 52.0, 77.4 54.0 Q 77.4 56.0, 76.4 57.1 Q 75.4 58.3, 73.6 58.3 Q 71.8 58.3, 70.8 57.1 Q 69.8 56.0, 69.8 54.0 M 73.6 57.3 Q 74.9 57.3, 75.5 56.5 Q 76.2 55.6, 76.2 54.0 Q 76.2 52.3, 75.5 51.5 Q 74.9 50.7, 73.6 50.7 Q 72.3 50.7, 71.6 51.5 Q 71.0 52.3, 71.0 54.0 Q 71.0 55.6, 71.6 56.5 Q 72.3 57.3, 73.6 57.3 " fill="#FF0000"/>
<path class="atom-26" d="M 108.8 121.1 Q 108.8 119.1, 109.8 118.0 Q 110.8 116.8, 112.6 116.8 Q 114.5 116.8, 115.5 118.0 Q 116.5 119.1, 116.5 121.1 Q 116.5 123.1, 115.5 124.2 Q 114.5 125.4, 112.6 125.4 Q 110.8 125.4, 109.8 124.2 Q 108.8 123.1, 108.8 121.1 M 112.6 124.4 Q 113.9 124.4, 114.6 123.6 Q 115.3 122.7, 115.3 121.1 Q 115.3 119.4, 114.6 118.6 Q 113.9 117.8, 112.6 117.8 Q 111.4 117.8, 110.7 118.6 Q 110.0 119.4, 110.0 121.1 Q 110.0 122.8, 110.7 123.6 Q 111.4 124.4, 112.6 124.4 " fill="#FF0000"/>
<path class="atom-27" d="M 150.8 146.3 Q 150.8 144.3, 151.7 143.2 Q 152.7 142.1, 154.6 142.1 Q 156.4 142.1, 157.4 143.2 Q 158.4 144.3, 158.4 146.3 Q 158.4 148.3, 157.4 149.5 Q 156.4 150.6, 154.6 150.6 Q 152.7 150.6, 151.7 149.5 Q 150.8 148.3, 150.8 146.3 M 154.6 149.7 Q 155.8 149.7, 156.5 148.8 Q 157.2 148.0, 157.2 146.3 Q 157.2 144.7, 156.5 143.9 Q 155.8 143.0, 154.6 143.0 Q 153.3 143.0, 152.6 143.9 Q 151.9 144.7, 151.9 146.3 Q 151.9 148.0, 152.6 148.8 Q 153.3 149.7, 154.6 149.7 " fill="#FF0000"/>
<path class="atom-27" d="M 159.7 142.2 L 160.8 142.2 L 160.8 145.7 L 165.1 145.7 L 165.1 142.2 L 166.2 142.2 L 166.2 150.5 L 165.1 150.5 L 165.1 146.7 L 160.8 146.7 L 160.8 150.5 L 159.7 150.5 L 159.7 142.2 " fill="#FF0000"/>
<path class="atom-37" d="M 286.2 162.1 Q 286.2 160.1, 287.2 159.0 Q 288.2 157.9, 290.0 157.9 Q 291.9 157.9, 292.9 159.0 Q 293.8 160.1, 293.8 162.1 Q 293.8 164.1, 292.8 165.3 Q 291.8 166.4, 290.0 166.4 Q 288.2 166.4, 287.2 165.3 Q 286.2 164.2, 286.2 162.1 M 290.0 165.5 Q 291.3 165.5, 292.0 164.7 Q 292.7 163.8, 292.7 162.1 Q 292.7 160.5, 292.0 159.7 Q 291.3 158.8, 290.0 158.8 Q 288.8 158.8, 288.1 159.7 Q 287.4 160.5, 287.4 162.1 Q 287.4 163.8, 288.1 164.7 Q 288.8 165.5, 290.0 165.5 " fill="#FF0000"/>
<path class="atom-37" d="M 295.1 158.0 L 296.3 158.0 L 296.3 161.5 L 300.5 161.5 L 300.5 158.0 L 301.6 158.0 L 301.6 166.3 L 300.5 166.3 L 300.5 162.5 L 296.3 162.5 L 296.3 166.3 L 295.1 166.3 L 295.1 158.0 " fill="#FF0000"/>
<path class="atom-39" d="M 256.6 63.2 Q 256.6 61.2, 257.6 60.1 Q 258.6 58.9, 260.4 58.9 Q 262.2 58.9, 263.2 60.1 Q 264.2 61.2, 264.2 63.2 Q 264.2 65.2, 263.2 66.3 Q 262.2 67.5, 260.4 67.5 Q 258.6 67.5, 257.6 66.3 Q 256.6 65.2, 256.6 63.2 M 260.4 66.5 Q 261.7 66.5, 262.3 65.7 Q 263.0 64.8, 263.0 63.2 Q 263.0 61.5, 262.3 60.7 Q 261.7 59.9, 260.4 59.9 Q 259.1 59.9, 258.4 60.7 Q 257.8 61.5, 257.8 63.2 Q 257.8 64.8, 258.4 65.7 Q 259.1 66.5, 260.4 66.5 " fill="#FF0000"/>
<path class="atom-40" d="M 303.8 75.9 Q 303.8 73.9, 304.8 72.8 Q 305.8 71.6, 307.7 71.6 Q 309.5 71.6, 310.5 72.8 Q 311.5 73.9, 311.5 75.9 Q 311.5 77.9, 310.5 79.0 Q 309.5 80.2, 307.7 80.2 Q 305.8 80.2, 304.8 79.0 Q 303.8 77.9, 303.8 75.9 M 307.7 79.2 Q 308.9 79.2, 309.6 78.4 Q 310.3 77.5, 310.3 75.9 Q 310.3 74.2, 309.6 73.4 Q 308.9 72.6, 307.7 72.6 Q 306.4 72.6, 305.7 73.4 Q 305.0 74.2, 305.0 75.9 Q 305.0 77.6, 305.7 78.4 Q 306.4 79.2, 307.7 79.2 " fill="#FF0000"/>
<path class="atom-40" d="M 312.8 71.7 L 313.9 71.7 L 313.9 75.3 L 318.1 75.3 L 318.1 71.7 L 319.3 71.7 L 319.3 80.1 L 318.1 80.1 L 318.1 76.2 L 313.9 76.2 L 313.9 80.1 L 312.8 80.1 L 312.8 71.7 " fill="#FF0000"/>
<path class="atom-42" d="M 173.7 146.1 Q 173.7 144.1, 174.7 143.0 Q 175.7 141.8, 177.5 141.8 Q 179.4 141.8, 180.3 143.0 Q 181.3 144.1, 181.3 146.1 Q 181.3 148.1, 180.3 149.2 Q 179.3 150.4, 177.5 150.4 Q 175.7 150.4, 174.7 149.2 Q 173.7 148.1, 173.7 146.1 M 177.5 149.4 Q 178.8 149.4, 179.5 148.6 Q 180.2 147.7, 180.2 146.1 Q 180.2 144.4, 179.5 143.6 Q 178.8 142.8, 177.5 142.8 Q 176.2 142.8, 175.5 143.6 Q 174.9 144.4, 174.9 146.1 Q 174.9 147.8, 175.5 148.6 Q 176.2 149.4, 177.5 149.4 " fill="#FF0000"/>
<path class="atom-43" d="M 211.7 179.8 Q 211.7 177.8, 212.7 176.7 Q 213.7 175.6, 215.5 175.6 Q 217.4 175.6, 218.4 176.7 Q 219.4 177.8, 219.4 179.8 Q 219.4 181.8, 218.4 183.0 Q 217.4 184.1, 215.5 184.1 Q 213.7 184.1, 212.7 183.0 Q 211.7 181.8, 211.7 179.8 M 215.5 183.2 Q 216.8 183.2, 217.5 182.3 Q 218.2 181.5, 218.2 179.8 Q 218.2 178.2, 217.5 177.3 Q 216.8 176.5, 215.5 176.5 Q 214.3 176.5, 213.6 177.3 Q 212.9 178.1, 212.9 179.8 Q 212.9 181.5, 213.6 182.3 Q 214.3 183.2, 215.5 183.2 " fill="#FF0000"/>
<path class="atom-43" d="M 220.7 175.7 L 221.8 175.7 L 221.8 179.2 L 226.0 179.2 L 226.0 175.7 L 227.2 175.7 L 227.2 184.0 L 226.0 184.0 L 226.0 180.1 L 221.8 180.1 L 221.8 184.0 L 220.7 184.0 L 220.7 175.7 " fill="#FF0000"/>
<path class="atom-45" d="M 251.2 63.5 Q 251.2 61.5, 252.2 60.4 Q 253.2 59.3, 255.0 59.3 Q 256.9 59.3, 257.9 60.4 Q 258.9 61.5, 258.9 63.5 Q 258.9 65.5, 257.9 66.7 Q 256.9 67.8, 255.0 67.8 Q 253.2 67.8, 252.2 66.7 Q 251.2 65.5, 251.2 63.5 M 255.0 66.9 Q 256.3 66.9, 257.0 66.0 Q 257.7 65.2, 257.7 63.5 Q 257.7 61.9, 257.0 61.0 Q 256.3 60.2, 255.0 60.2 Q 253.8 60.2, 253.1 61.0 Q 252.4 61.8, 252.4 63.5 Q 252.4 65.2, 253.1 66.0 Q 253.8 66.9, 255.0 66.9 " fill="#FF0000"/>
<path class="atom-46" d="M 250.3 112.4 Q 250.3 110.4, 251.3 109.3 Q 252.3 108.2, 254.1 108.2 Q 256.0 108.2, 257.0 109.3 Q 258.0 110.4, 258.0 112.4 Q 258.0 114.4, 257.0 115.6 Q 256.0 116.7, 254.1 116.7 Q 252.3 116.7, 251.3 115.6 Q 250.3 114.4, 250.3 112.4 M 254.1 115.8 Q 255.4 115.8, 256.1 114.9 Q 256.8 114.1, 256.8 112.4 Q 256.8 110.8, 256.1 110.0 Q 255.4 109.1, 254.1 109.1 Q 252.9 109.1, 252.2 110.0 Q 251.5 110.8, 251.5 112.4 Q 251.5 114.1, 252.2 114.9 Q 252.9 115.8, 254.1 115.8 " fill="#FF0000"/>
<path class="atom-46" d="M 259.2 108.3 L 260.4 108.3 L 260.4 111.8 L 264.6 111.8 L 264.6 108.3 L 265.8 108.3 L 265.8 116.6 L 264.6 116.6 L 264.6 112.8 L 260.4 112.8 L 260.4 116.6 L 259.2 116.6 L 259.2 108.3 " fill="#FF0000"/>
</svg>
