<?xml version='1.0' encoding='ASCII' standalone='yes'?>
<svg xmlns="http://www.w3.org/2000/svg" xmlns:rdkit="http://www.rdkit.org/xml" xmlns:xlink="http://www.w3.org/1999/xlink" version="1.1" baseProfile="full" xml:space="preserve" width="215px" height="200px" viewBox="0 0 215 200">
<!-- END OF HEADER -->
<rect style="opacity:1.0;fill:#FFFFFF;stroke:none" width="215.0" height="200.0" x="0.0" y="0.0"> </rect>
<path class="bond-0 atom-0 atom-1" d="M 115.4,27.1 L 114.4,75.1" style="fill:none;fill-rule:evenodd;stroke:#000000;stroke-width:2.0px;stroke-linecap:butt;stroke-linejoin:miter;stroke-opacity:1"/>
<path class="bond-1 atom-1 atom-2" d="M 114.4,75.1 L 155.5,99.9" style="fill:none;fill-rule:evenodd;stroke:#000000;stroke-width:2.0px;stroke-linecap:butt;stroke-linejoin:miter;stroke-opacity:1"/>
<path class="bond-2 atom-2 atom-3" d="M 155.4,104.0 L 173.4,94.1" style="fill:none;fill-rule:evenodd;stroke:#000000;stroke-width:2.0px;stroke-linecap:butt;stroke-linejoin:miter;stroke-opacity:1"/>
<path class="bond-2 atom-2 atom-3" d="M 173.4,94.1 L 191.4,84.2" style="fill:none;fill-rule:evenodd;stroke:#FF0000;stroke-width:2.0px;stroke-linecap:butt;stroke-linejoin:miter;stroke-opacity:1"/>
<path class="bond-2 atom-2 atom-3" d="M 151.9,97.7 L 169.9,87.8" style="fill:none;fill-rule:evenodd;stroke:#000000;stroke-width:2.0px;stroke-linecap:butt;stroke-linejoin:miter;stroke-opacity:1"/>
<path class="bond-2 atom-2 atom-3" d="M 169.9,87.8 L 188.0,77.9" style="fill:none;fill-rule:evenodd;stroke:#FF0000;stroke-width:2.0px;stroke-linecap:butt;stroke-linejoin:miter;stroke-opacity:1"/>
<path class="bond-3 atom-2 atom-4" d="M 155.5,99.9 L 155.1,119.6" style="fill:none;fill-rule:evenodd;stroke:#000000;stroke-width:2.0px;stroke-linecap:butt;stroke-linejoin:miter;stroke-opacity:1"/>
<path class="bond-3 atom-2 atom-4" d="M 155.1,119.6 L 154.7,139.4" style="fill:none;fill-rule:evenodd;stroke:#FF0000;stroke-width:2.0px;stroke-linecap:butt;stroke-linejoin:miter;stroke-opacity:1"/>
<path class="bond-4 atom-1 atom-5" d="M 114.4,75.1 L 72.4,98.2" style="fill:none;fill-rule:evenodd;stroke:#000000;stroke-width:2.0px;stroke-linecap:butt;stroke-linejoin:miter;stroke-opacity:1"/>
<path class="bond-5 atom-5 atom-6" d="M 72.4,98.2 L 49.3,56.2" style="fill:none;fill-rule:evenodd;stroke:#000000;stroke-width:2.0px;stroke-linecap:butt;stroke-linejoin:miter;stroke-opacity:1"/>
<path class="bond-6 atom-5 atom-7" d="M 72.4,98.2 L 95.6,140.2" style="fill:none;fill-rule:evenodd;stroke:#000000;stroke-width:2.0px;stroke-linecap:butt;stroke-linejoin:miter;stroke-opacity:1"/>
<path class="bond-7 atom-5 atom-8" d="M 72.4,98.2 L 55.3,107.6" style="fill:none;fill-rule:evenodd;stroke:#000000;stroke-width:2.0px;stroke-linecap:butt;stroke-linejoin:miter;stroke-opacity:1"/>
<path class="bond-7 atom-5 atom-8" d="M 55.3,107.6 L 38.2,117.0" style="fill:none;fill-rule:evenodd;stroke:#FF0000;stroke-width:2.0px;stroke-linecap:butt;stroke-linejoin:miter;stroke-opacity:1"/>
<path d="M 153.4,98.6 L 155.5,99.9 L 155.5,100.9" style="fill:none;stroke:#000000;stroke-width:2.0px;stroke-linecap:butt;stroke-linejoin:miter;stroke-opacity:1;"/>
<path class="atom-3" d="M 191.3 76.8 Q 191.3 73.5, 192.9 71.7 Q 194.5 69.9, 197.5 69.9 Q 200.5 69.9, 202.1 71.7 Q 203.8 73.5, 203.8 76.8 Q 203.8 80.1, 202.1 81.9 Q 200.5 83.8, 197.5 83.8 Q 194.5 83.8, 192.9 81.9 Q 191.3 80.1, 191.3 76.8 M 197.5 82.3 Q 199.6 82.3, 200.7 80.9 Q 201.8 79.5, 201.8 76.8 Q 201.8 74.1, 200.7 72.8 Q 199.6 71.4, 197.5 71.4 Q 195.4 71.4, 194.3 72.7 Q 193.2 74.1, 193.2 76.8 Q 193.2 79.5, 194.3 80.9 Q 195.4 82.3, 197.5 82.3 " fill="#FF0000"/>
<path class="atom-4" d="M 148.3 147.9 Q 148.3 144.6, 149.9 142.8 Q 151.5 141.0, 154.5 141.0 Q 157.5 141.0, 159.2 142.8 Q 160.8 144.6, 160.8 147.9 Q 160.8 151.2, 159.1 153.0 Q 157.5 154.9, 154.5 154.9 Q 151.5 154.9, 149.9 153.0 Q 148.3 151.2, 148.3 147.9 M 154.5 153.4 Q 156.6 153.4, 157.7 152.0 Q 158.8 150.6, 158.8 147.9 Q 158.8 145.2, 157.7 143.9 Q 156.6 142.5, 154.5 142.5 Q 152.5 142.5, 151.3 143.8 Q 150.2 145.2, 150.2 147.9 Q 150.2 150.6, 151.3 152.0 Q 152.5 153.4, 154.5 153.4 " fill="#FF0000"/>
<path class="atom-4" d="M 162.9 141.1 L 164.7 141.1 L 164.7 146.9 L 171.7 146.9 L 171.7 141.1 L 173.5 141.1 L 173.5 154.7 L 171.7 154.7 L 171.7 148.4 L 164.7 148.4 L 164.7 154.7 L 162.9 154.7 L 162.9 141.1 " fill="#FF0000"/>
<path class="atom-8" d="M 10.7 114.6 L 12.6 114.6 L 12.6 120.4 L 19.5 120.4 L 19.5 114.6 L 21.4 114.6 L 21.4 128.2 L 19.5 128.2 L 19.5 121.9 L 12.6 121.9 L 12.6 128.2 L 10.7 128.2 L 10.7 114.6 " fill="#FF0000"/>
<path class="atom-8" d="M 24.2 121.4 Q 24.2 118.1, 25.8 116.3 Q 27.4 114.5, 30.4 114.5 Q 33.4 114.5, 35.0 116.3 Q 36.6 118.1, 36.6 121.4 Q 36.6 124.7, 35.0 126.6 Q 33.4 128.4, 30.4 128.4 Q 27.4 128.4, 25.8 126.6 Q 24.2 124.7, 24.2 121.4 M 30.4 126.9 Q 32.5 126.9, 33.6 125.5 Q 34.7 124.1, 34.7 121.4 Q 34.7 118.7, 33.6 117.4 Q 32.5 116.0, 30.4 116.0 Q 28.3 116.0, 27.2 117.3 Q 26.1 118.7, 26.1 121.4 Q 26.1 124.1, 27.2 125.5 Q 28.3 126.9, 30.4 126.9 " fill="#FF0000"/>
<path class="legend" d="M 98.2 181.9 Q 98.2 179.6, 98.9 177.7 Q 99.6 175.8, 100.9 173.8 L 101.8 174.4 Q 100.7 176.3, 100.2 178.0 Q 99.7 179.7, 99.7 181.9 Q 99.7 184.0, 100.2 185.8 Q 100.7 187.5, 101.8 189.4 L 100.9 190.0 Q 99.6 188.0, 98.9 186.1 Q 98.2 184.2, 98.2 181.9 " fill="#000000"/>
<path class="legend" d="M 102.7 177.3 Q 103.1 176.2, 104.1 175.6 Q 105.1 175.0, 106.5 175.0 Q 108.2 175.0, 109.1 175.9 Q 110.1 176.8, 110.1 178.5 Q 110.1 180.2, 108.8 181.7 Q 107.6 183.3, 105.1 185.2 L 110.3 185.2 L 110.3 186.4 L 102.7 186.4 L 102.7 185.4 Q 104.8 183.9, 106.0 182.8 Q 107.3 181.6, 107.9 180.6 Q 108.5 179.6, 108.5 178.6 Q 108.5 177.5, 108.0 176.9 Q 107.4 176.3, 106.5 176.3 Q 105.5 176.3, 104.9 176.6 Q 104.3 177.0, 103.9 177.8 L 102.7 177.3 " fill="#000000"/>
<path class="legend" d="M 115.3 181.9 Q 115.3 184.2, 114.6 186.1 Q 113.9 188.0, 112.6 190.0 L 111.7 189.4 Q 112.8 187.5, 113.3 185.8 Q 113.8 184.0, 113.8 181.9 Q 113.8 179.7, 113.3 178.0 Q 112.8 176.3, 111.7 174.4 L 112.6 173.8 Q 113.9 175.8, 114.6 177.7 Q 115.3 179.6, 115.3 181.9 " fill="#000000"/>
</svg>
