<?xml version='1.0' encoding='ASCII' standalone='yes'?>
<svg xmlns="http://www.w3.org/2000/svg" xmlns:rdkit="http://www.rdkit.org/xml" xmlns:xlink="http://www.w3.org/1999/xlink" version="1.1" baseProfile="full" xml:space="preserve" width="383px" height="200px" viewBox="0 0 383 200">
<!-- END OF HEADER -->
<rect style="opacity:1.0;fill:#FFFFFF;stroke:none" width="383.0" height="200.0" x="0.0" y="0.0"> </rect>
<path class="bond-0 atom-0 atom-1" d="M 57.9,64.7 L 53.5,67.3" style="fill:none;fill-rule:evenodd;stroke:#000000;stroke-width:2.0px;stroke-linecap:butt;stroke-linejoin:miter;stroke-opacity:1"/>
<path class="bond-0 atom-0 atom-1" d="M 53.5,67.3 L 49.1,69.8" style="fill:none;fill-rule:evenodd;stroke:#FF0000;stroke-width:2.0px;stroke-linecap:butt;stroke-linejoin:miter;stroke-opacity:1"/>
<path class="bond-1 atom-1 atom-2" d="M 46.7,73.8 L 46.7,79.0" style="fill:none;fill-rule:evenodd;stroke:#FF0000;stroke-width:2.0px;stroke-linecap:butt;stroke-linejoin:miter;stroke-opacity:1"/>
<path class="bond-1 atom-1 atom-2" d="M 46.7,79.0 L 46.7,84.1" style="fill:none;fill-rule:evenodd;stroke:#000000;stroke-width:2.0px;stroke-linecap:butt;stroke-linejoin:miter;stroke-opacity:1"/>
<path class="bond-2 atom-2 atom-3" d="M 46.7,84.1 L 57.9,90.6" style="fill:none;fill-rule:evenodd;stroke:#000000;stroke-width:2.0px;stroke-linecap:butt;stroke-linejoin:miter;stroke-opacity:1"/>
<path class="bond-2 atom-2 atom-3" d="M 46.7,86.4 L 56.0,91.7" style="fill:none;fill-rule:evenodd;stroke:#000000;stroke-width:2.0px;stroke-linecap:butt;stroke-linejoin:miter;stroke-opacity:1"/>
<path class="bond-3 atom-3 atom-4" d="M 57.9,90.6 L 57.9,103.5" style="fill:none;fill-rule:evenodd;stroke:#000000;stroke-width:2.0px;stroke-linecap:butt;stroke-linejoin:miter;stroke-opacity:1"/>
<path class="bond-4 atom-4 atom-5" d="M 57.9,103.5 L 69.1,110.0" style="fill:none;fill-rule:evenodd;stroke:#000000;stroke-width:2.0px;stroke-linecap:butt;stroke-linejoin:miter;stroke-opacity:1"/>
<path class="bond-5 atom-5 atom-6" d="M 69.1,110.0 L 80.3,103.5" style="fill:none;fill-rule:evenodd;stroke:#000000;stroke-width:2.0px;stroke-linecap:butt;stroke-linejoin:miter;stroke-opacity:1"/>
<path class="bond-5 atom-5 atom-6" d="M 69.1,107.8 L 79.3,101.9" style="fill:none;fill-rule:evenodd;stroke:#000000;stroke-width:2.0px;stroke-linecap:butt;stroke-linejoin:miter;stroke-opacity:1"/>
<path class="bond-6 atom-6 atom-7" d="M 80.3,103.5 L 91.5,110.0" style="fill:none;fill-rule:evenodd;stroke:#000000;stroke-width:2.0px;stroke-linecap:butt;stroke-linejoin:miter;stroke-opacity:1"/>
<path class="bond-7 atom-7 atom-8" d="M 90.5,109.5 L 90.5,114.9" style="fill:none;fill-rule:evenodd;stroke:#000000;stroke-width:2.0px;stroke-linecap:butt;stroke-linejoin:miter;stroke-opacity:1"/>
<path class="bond-7 atom-7 atom-8" d="M 90.5,114.9 L 90.5,120.4" style="fill:none;fill-rule:evenodd;stroke:#FF0000;stroke-width:2.0px;stroke-linecap:butt;stroke-linejoin:miter;stroke-opacity:1"/>
<path class="bond-7 atom-7 atom-8" d="M 92.5,109.5 L 92.5,114.9" style="fill:none;fill-rule:evenodd;stroke:#000000;stroke-width:2.0px;stroke-linecap:butt;stroke-linejoin:miter;stroke-opacity:1"/>
<path class="bond-7 atom-7 atom-8" d="M 92.5,114.9 L 92.5,120.4" style="fill:none;fill-rule:evenodd;stroke:#FF0000;stroke-width:2.0px;stroke-linecap:butt;stroke-linejoin:miter;stroke-opacity:1"/>
<path class="bond-8 atom-7 atom-9" d="M 91.5,110.0 L 96.2,107.3" style="fill:none;fill-rule:evenodd;stroke:#000000;stroke-width:2.0px;stroke-linecap:butt;stroke-linejoin:miter;stroke-opacity:1"/>
<path class="bond-8 atom-7 atom-9" d="M 96.2,107.3 L 100.9,104.6" style="fill:none;fill-rule:evenodd;stroke:#CCCC00;stroke-width:2.0px;stroke-linecap:butt;stroke-linejoin:miter;stroke-opacity:1"/>
<path class="bond-9 atom-9 atom-10" d="M 104.5,104.6 L 109.2,107.3" style="fill:none;fill-rule:evenodd;stroke:#CCCC00;stroke-width:2.0px;stroke-linecap:butt;stroke-linejoin:miter;stroke-opacity:1"/>
<path class="bond-9 atom-9 atom-10" d="M 109.2,107.3 L 113.9,110.0" style="fill:none;fill-rule:evenodd;stroke:#000000;stroke-width:2.0px;stroke-linecap:butt;stroke-linejoin:miter;stroke-opacity:1"/>
<path class="bond-10 atom-10 atom-11" d="M 113.9,110.0 L 125.1,103.6" style="fill:none;fill-rule:evenodd;stroke:#000000;stroke-width:2.0px;stroke-linecap:butt;stroke-linejoin:miter;stroke-opacity:1"/>
<path class="bond-11 atom-11 atom-12" d="M 125.1,103.6 L 129.7,106.2" style="fill:none;fill-rule:evenodd;stroke:#000000;stroke-width:2.0px;stroke-linecap:butt;stroke-linejoin:miter;stroke-opacity:1"/>
<path class="bond-11 atom-11 atom-12" d="M 129.7,106.2 L 134.3,108.9" style="fill:none;fill-rule:evenodd;stroke:#0000FF;stroke-width:2.0px;stroke-linecap:butt;stroke-linejoin:miter;stroke-opacity:1"/>
<path class="bond-12 atom-12 atom-13" d="M 138.3,108.9 L 142.9,106.2" style="fill:none;fill-rule:evenodd;stroke:#0000FF;stroke-width:2.0px;stroke-linecap:butt;stroke-linejoin:miter;stroke-opacity:1"/>
<path class="bond-12 atom-12 atom-13" d="M 142.9,106.2 L 147.5,103.6" style="fill:none;fill-rule:evenodd;stroke:#000000;stroke-width:2.0px;stroke-linecap:butt;stroke-linejoin:miter;stroke-opacity:1"/>
<path class="bond-13 atom-13 atom-14" d="M 148.5,104.1 L 148.5,98.7" style="fill:none;fill-rule:evenodd;stroke:#000000;stroke-width:2.0px;stroke-linecap:butt;stroke-linejoin:miter;stroke-opacity:1"/>
<path class="bond-13 atom-13 atom-14" d="M 148.5,98.7 L 148.5,93.3" style="fill:none;fill-rule:evenodd;stroke:#FF0000;stroke-width:2.0px;stroke-linecap:butt;stroke-linejoin:miter;stroke-opacity:1"/>
<path class="bond-13 atom-13 atom-14" d="M 146.5,104.1 L 146.5,98.7" style="fill:none;fill-rule:evenodd;stroke:#000000;stroke-width:2.0px;stroke-linecap:butt;stroke-linejoin:miter;stroke-opacity:1"/>
<path class="bond-13 atom-13 atom-14" d="M 146.5,98.7 L 146.5,93.3" style="fill:none;fill-rule:evenodd;stroke:#FF0000;stroke-width:2.0px;stroke-linecap:butt;stroke-linejoin:miter;stroke-opacity:1"/>
<path class="bond-14 atom-13 atom-15" d="M 147.5,103.6 L 158.7,110.0" style="fill:none;fill-rule:evenodd;stroke:#000000;stroke-width:2.0px;stroke-linecap:butt;stroke-linejoin:miter;stroke-opacity:1"/>
<path class="bond-15 atom-15 atom-16" d="M 158.7,110.0 L 169.9,103.6" style="fill:none;fill-rule:evenodd;stroke:#000000;stroke-width:2.0px;stroke-linecap:butt;stroke-linejoin:miter;stroke-opacity:1"/>
<path class="bond-16 atom-16 atom-17" d="M 169.9,103.6 L 174.5,106.2" style="fill:none;fill-rule:evenodd;stroke:#000000;stroke-width:2.0px;stroke-linecap:butt;stroke-linejoin:miter;stroke-opacity:1"/>
<path class="bond-16 atom-16 atom-17" d="M 174.5,106.2 L 179.1,108.9" style="fill:none;fill-rule:evenodd;stroke:#0000FF;stroke-width:2.0px;stroke-linecap:butt;stroke-linejoin:miter;stroke-opacity:1"/>
<path class="bond-17 atom-17 atom-18" d="M 183.1,108.9 L 187.7,106.2" style="fill:none;fill-rule:evenodd;stroke:#0000FF;stroke-width:2.0px;stroke-linecap:butt;stroke-linejoin:miter;stroke-opacity:1"/>
<path class="bond-17 atom-17 atom-18" d="M 187.7,106.2 L 192.3,103.6" style="fill:none;fill-rule:evenodd;stroke:#000000;stroke-width:2.0px;stroke-linecap:butt;stroke-linejoin:miter;stroke-opacity:1"/>
<path class="bond-18 atom-18 atom-19" d="M 193.3,104.1 L 193.3,98.7" style="fill:none;fill-rule:evenodd;stroke:#000000;stroke-width:2.0px;stroke-linecap:butt;stroke-linejoin:miter;stroke-opacity:1"/>
<path class="bond-18 atom-18 atom-19" d="M 193.3,98.7 L 193.3,93.3" style="fill:none;fill-rule:evenodd;stroke:#FF0000;stroke-width:2.0px;stroke-linecap:butt;stroke-linejoin:miter;stroke-opacity:1"/>
<path class="bond-18 atom-18 atom-19" d="M 191.3,104.1 L 191.3,98.7" style="fill:none;fill-rule:evenodd;stroke:#000000;stroke-width:2.0px;stroke-linecap:butt;stroke-linejoin:miter;stroke-opacity:1"/>
<path class="bond-18 atom-18 atom-19" d="M 191.3,98.7 L 191.3,93.3" style="fill:none;fill-rule:evenodd;stroke:#FF0000;stroke-width:2.0px;stroke-linecap:butt;stroke-linejoin:miter;stroke-opacity:1"/>
<path class="bond-19 atom-18 atom-20" d="M 192.3,103.6 L 203.5,110.0" style="fill:none;fill-rule:evenodd;stroke:#000000;stroke-width:2.0px;stroke-linecap:butt;stroke-linejoin:miter;stroke-opacity:1"/>
<path class="bond-20 atom-20 atom-21" d="M 203.5,110.0 L 203.5,115.2" style="fill:none;fill-rule:evenodd;stroke:#000000;stroke-width:2.0px;stroke-linecap:butt;stroke-linejoin:miter;stroke-opacity:1"/>
<path class="bond-20 atom-20 atom-21" d="M 203.5,115.2 L 203.5,120.4" style="fill:none;fill-rule:evenodd;stroke:#FF0000;stroke-width:2.0px;stroke-linecap:butt;stroke-linejoin:miter;stroke-opacity:1"/>
<path class="bond-21 atom-20 atom-22" d="M 203.5,110.0 L 214.7,103.6" style="fill:none;fill-rule:evenodd;stroke:#000000;stroke-width:2.0px;stroke-linecap:butt;stroke-linejoin:miter;stroke-opacity:1"/>
<path class="bond-22 atom-22 atom-23" d="M 214.7,103.6 L 208.3,92.4" style="fill:none;fill-rule:evenodd;stroke:#000000;stroke-width:2.0px;stroke-linecap:butt;stroke-linejoin:miter;stroke-opacity:1"/>
<path class="bond-23 atom-22 atom-24" d="M 214.7,103.6 L 221.2,114.8" style="fill:none;fill-rule:evenodd;stroke:#000000;stroke-width:2.0px;stroke-linecap:butt;stroke-linejoin:miter;stroke-opacity:1"/>
<path class="bond-24 atom-22 atom-25" d="M 214.7,103.6 L 225.9,97.1" style="fill:none;fill-rule:evenodd;stroke:#000000;stroke-width:2.0px;stroke-linecap:butt;stroke-linejoin:miter;stroke-opacity:1"/>
<path class="bond-25 atom-25 atom-26" d="M 225.9,97.1 L 225.9,92.0" style="fill:none;fill-rule:evenodd;stroke:#000000;stroke-width:2.0px;stroke-linecap:butt;stroke-linejoin:miter;stroke-opacity:1"/>
<path class="bond-25 atom-25 atom-26" d="M 225.9,92.0 L 225.9,86.8" style="fill:none;fill-rule:evenodd;stroke:#FF0000;stroke-width:2.0px;stroke-linecap:butt;stroke-linejoin:miter;stroke-opacity:1"/>
<path class="bond-26 atom-26 atom-27" d="M 228.3,82.8 L 231.8,80.8" style="fill:none;fill-rule:evenodd;stroke:#FF0000;stroke-width:2.0px;stroke-linecap:butt;stroke-linejoin:miter;stroke-opacity:1"/>
<path class="bond-26 atom-26 atom-27" d="M 231.8,80.8 L 235.3,78.7" style="fill:none;fill-rule:evenodd;stroke:#FF7F00;stroke-width:2.0px;stroke-linecap:butt;stroke-linejoin:miter;stroke-opacity:1"/>
<path class="bond-27 atom-27 atom-28" d="M 236.5,74.7 L 234.8,71.7" style="fill:none;fill-rule:evenodd;stroke:#FF7F00;stroke-width:2.0px;stroke-linecap:butt;stroke-linejoin:miter;stroke-opacity:1"/>
<path class="bond-27 atom-27 atom-28" d="M 234.8,71.7 L 233.0,68.7" style="fill:none;fill-rule:evenodd;stroke:#FF0000;stroke-width:2.0px;stroke-linecap:butt;stroke-linejoin:miter;stroke-opacity:1"/>
<path class="bond-27 atom-27 atom-28" d="M 234.8,75.7 L 233.1,72.6" style="fill:none;fill-rule:evenodd;stroke:#FF7F00;stroke-width:2.0px;stroke-linecap:butt;stroke-linejoin:miter;stroke-opacity:1"/>
<path class="bond-27 atom-27 atom-28" d="M 233.1,72.6 L 231.3,69.6" style="fill:none;fill-rule:evenodd;stroke:#FF0000;stroke-width:2.0px;stroke-linecap:butt;stroke-linejoin:miter;stroke-opacity:1"/>
<path class="bond-28 atom-27 atom-29" d="M 238.6,80.3 L 240.4,83.3" style="fill:none;fill-rule:evenodd;stroke:#FF7F00;stroke-width:2.0px;stroke-linecap:butt;stroke-linejoin:miter;stroke-opacity:1"/>
<path class="bond-28 atom-27 atom-29" d="M 240.4,83.3 L 242.1,86.3" style="fill:none;fill-rule:evenodd;stroke:#FF0000;stroke-width:2.0px;stroke-linecap:butt;stroke-linejoin:miter;stroke-opacity:1"/>
<path class="bond-29 atom-27 atom-30" d="M 238.9,76.7 L 242.4,74.7" style="fill:none;fill-rule:evenodd;stroke:#FF7F00;stroke-width:2.0px;stroke-linecap:butt;stroke-linejoin:miter;stroke-opacity:1"/>
<path class="bond-29 atom-27 atom-30" d="M 242.4,74.7 L 246.0,72.6" style="fill:none;fill-rule:evenodd;stroke:#FF0000;stroke-width:2.0px;stroke-linecap:butt;stroke-linejoin:miter;stroke-opacity:1"/>
<path class="bond-30 atom-30 atom-31" d="M 250.7,72.6 L 254.2,74.7" style="fill:none;fill-rule:evenodd;stroke:#FF0000;stroke-width:2.0px;stroke-linecap:butt;stroke-linejoin:miter;stroke-opacity:1"/>
<path class="bond-30 atom-30 atom-31" d="M 254.2,74.7 L 257.8,76.7" style="fill:none;fill-rule:evenodd;stroke:#FF7F00;stroke-width:2.0px;stroke-linecap:butt;stroke-linejoin:miter;stroke-opacity:1"/>
<path class="bond-31 atom-31 atom-32" d="M 257.2,79.8 L 255.5,82.8" style="fill:none;fill-rule:evenodd;stroke:#FF7F00;stroke-width:2.0px;stroke-linecap:butt;stroke-linejoin:miter;stroke-opacity:1"/>
<path class="bond-31 atom-31 atom-32" d="M 255.5,82.8 L 253.7,85.9" style="fill:none;fill-rule:evenodd;stroke:#FF0000;stroke-width:2.0px;stroke-linecap:butt;stroke-linejoin:miter;stroke-opacity:1"/>
<path class="bond-31 atom-31 atom-32" d="M 258.9,80.8 L 257.1,83.8" style="fill:none;fill-rule:evenodd;stroke:#FF7F00;stroke-width:2.0px;stroke-linecap:butt;stroke-linejoin:miter;stroke-opacity:1"/>
<path class="bond-31 atom-31 atom-32" d="M 257.1,83.8 L 255.4,86.8" style="fill:none;fill-rule:evenodd;stroke:#FF0000;stroke-width:2.0px;stroke-linecap:butt;stroke-linejoin:miter;stroke-opacity:1"/>
<path class="bond-32 atom-31 atom-33" d="M 261.0,75.2 L 262.7,72.2" style="fill:none;fill-rule:evenodd;stroke:#FF7F00;stroke-width:2.0px;stroke-linecap:butt;stroke-linejoin:miter;stroke-opacity:1"/>
<path class="bond-32 atom-31 atom-33" d="M 262.7,72.2 L 264.5,69.2" style="fill:none;fill-rule:evenodd;stroke:#FF0000;stroke-width:2.0px;stroke-linecap:butt;stroke-linejoin:miter;stroke-opacity:1"/>
<path class="bond-33 atom-31 atom-34" d="M 261.3,78.8 L 264.8,80.8" style="fill:none;fill-rule:evenodd;stroke:#FF7F00;stroke-width:2.0px;stroke-linecap:butt;stroke-linejoin:miter;stroke-opacity:1"/>
<path class="bond-33 atom-31 atom-34" d="M 264.8,80.8 L 268.4,82.8" style="fill:none;fill-rule:evenodd;stroke:#FF0000;stroke-width:2.0px;stroke-linecap:butt;stroke-linejoin:miter;stroke-opacity:1"/>
<path class="bond-34 atom-34 atom-35" d="M 270.7,86.8 L 270.7,92.0" style="fill:none;fill-rule:evenodd;stroke:#FF0000;stroke-width:2.0px;stroke-linecap:butt;stroke-linejoin:miter;stroke-opacity:1"/>
<path class="bond-34 atom-34 atom-35" d="M 270.7,92.0 L 270.7,97.1" style="fill:none;fill-rule:evenodd;stroke:#000000;stroke-width:2.0px;stroke-linecap:butt;stroke-linejoin:miter;stroke-opacity:1"/>
<path class="bond-35 atom-35 atom-36" d="M 270.7,97.1 L 281.9,103.6" style="fill:none;fill-rule:evenodd;stroke:#000000;stroke-width:2.0px;stroke-linecap:butt;stroke-linejoin:miter;stroke-opacity:1"/>
<path class="bond-36 atom-36 atom-37" d="M 281.9,103.6 L 286.7,101.5" style="fill:none;fill-rule:evenodd;stroke:#000000;stroke-width:2.0px;stroke-linecap:butt;stroke-linejoin:miter;stroke-opacity:1"/>
<path class="bond-36 atom-36 atom-37" d="M 286.7,101.5 L 291.4,99.4" style="fill:none;fill-rule:evenodd;stroke:#FF0000;stroke-width:2.0px;stroke-linecap:butt;stroke-linejoin:miter;stroke-opacity:1"/>
<path class="bond-37 atom-37 atom-38" d="M 296.1,101.0 L 299.3,104.5" style="fill:none;fill-rule:evenodd;stroke:#FF0000;stroke-width:2.0px;stroke-linecap:butt;stroke-linejoin:miter;stroke-opacity:1"/>
<path class="bond-37 atom-37 atom-38" d="M 299.3,104.5 L 302.4,108.0" style="fill:none;fill-rule:evenodd;stroke:#000000;stroke-width:2.0px;stroke-linecap:butt;stroke-linejoin:miter;stroke-opacity:1"/>
<path class="bond-38 atom-38 atom-39" d="M 302.4,108.0 L 307.8,107.4" style="fill:none;fill-rule:evenodd;stroke:#000000;stroke-width:2.0px;stroke-linecap:butt;stroke-linejoin:miter;stroke-opacity:1"/>
<path class="bond-38 atom-38 atom-39" d="M 307.8,107.4 L 313.2,106.8" style="fill:none;fill-rule:evenodd;stroke:#0000FF;stroke-width:2.0px;stroke-linecap:butt;stroke-linejoin:miter;stroke-opacity:1"/>
<path class="bond-39 atom-39 atom-40" d="M 317.3,108.9 L 320.6,112.5" style="fill:none;fill-rule:evenodd;stroke:#0000FF;stroke-width:2.0px;stroke-linecap:butt;stroke-linejoin:miter;stroke-opacity:1"/>
<path class="bond-39 atom-39 atom-40" d="M 320.6,112.5 L 323.9,116.2" style="fill:none;fill-rule:evenodd;stroke:#000000;stroke-width:2.0px;stroke-linecap:butt;stroke-linejoin:miter;stroke-opacity:1"/>
<path class="bond-40 atom-40 atom-41" d="M 323.9,116.2 L 328.8,114.0" style="fill:none;fill-rule:evenodd;stroke:#000000;stroke-width:2.0px;stroke-linecap:butt;stroke-linejoin:miter;stroke-opacity:1"/>
<path class="bond-40 atom-40 atom-41" d="M 328.8,114.0 L 333.7,111.9" style="fill:none;fill-rule:evenodd;stroke:#0000FF;stroke-width:2.0px;stroke-linecap:butt;stroke-linejoin:miter;stroke-opacity:1"/>
<path class="bond-40 atom-40 atom-41" d="M 324.4,113.9 L 328.7,112.0" style="fill:none;fill-rule:evenodd;stroke:#000000;stroke-width:2.0px;stroke-linecap:butt;stroke-linejoin:miter;stroke-opacity:1"/>
<path class="bond-40 atom-40 atom-41" d="M 328.7,112.0 L 332.9,110.1" style="fill:none;fill-rule:evenodd;stroke:#0000FF;stroke-width:2.0px;stroke-linecap:butt;stroke-linejoin:miter;stroke-opacity:1"/>
<path class="bond-41 atom-41 atom-42" d="M 335.5,108.4 L 334.9,103.3" style="fill:none;fill-rule:evenodd;stroke:#0000FF;stroke-width:2.0px;stroke-linecap:butt;stroke-linejoin:miter;stroke-opacity:1"/>
<path class="bond-41 atom-41 atom-42" d="M 334.9,103.3 L 334.4,98.1" style="fill:none;fill-rule:evenodd;stroke:#000000;stroke-width:2.0px;stroke-linecap:butt;stroke-linejoin:miter;stroke-opacity:1"/>
<path class="bond-42 atom-42 atom-43" d="M 334.4,98.1 L 343.0,88.5" style="fill:none;fill-rule:evenodd;stroke:#000000;stroke-width:2.0px;stroke-linecap:butt;stroke-linejoin:miter;stroke-opacity:1"/>
<path class="bond-42 atom-42 atom-43" d="M 333.7,96.0 L 340.9,88.0" style="fill:none;fill-rule:evenodd;stroke:#000000;stroke-width:2.0px;stroke-linecap:butt;stroke-linejoin:miter;stroke-opacity:1"/>
<path class="bond-43 atom-43 atom-44" d="M 343.0,88.5 L 348.4,89.6" style="fill:none;fill-rule:evenodd;stroke:#000000;stroke-width:2.0px;stroke-linecap:butt;stroke-linejoin:miter;stroke-opacity:1"/>
<path class="bond-43 atom-43 atom-44" d="M 348.4,89.6 L 353.7,90.8" style="fill:none;fill-rule:evenodd;stroke:#0000FF;stroke-width:2.0px;stroke-linecap:butt;stroke-linejoin:miter;stroke-opacity:1"/>
<path class="bond-44 atom-43 atom-45" d="M 343.0,88.5 L 341.5,83.6" style="fill:none;fill-rule:evenodd;stroke:#000000;stroke-width:2.0px;stroke-linecap:butt;stroke-linejoin:miter;stroke-opacity:1"/>
<path class="bond-44 atom-43 atom-45" d="M 341.5,83.6 L 339.9,78.7" style="fill:none;fill-rule:evenodd;stroke:#0000FF;stroke-width:2.0px;stroke-linecap:butt;stroke-linejoin:miter;stroke-opacity:1"/>
<path class="bond-45 atom-45 atom-46" d="M 337.0,75.8 L 331.7,74.6" style="fill:none;fill-rule:evenodd;stroke:#0000FF;stroke-width:2.0px;stroke-linecap:butt;stroke-linejoin:miter;stroke-opacity:1"/>
<path class="bond-45 atom-45 atom-46" d="M 331.7,74.6 L 326.4,73.5" style="fill:none;fill-rule:evenodd;stroke:#000000;stroke-width:2.0px;stroke-linecap:butt;stroke-linejoin:miter;stroke-opacity:1"/>
<path class="bond-45 atom-45 atom-46" d="M 336.6,77.7 L 331.9,76.6" style="fill:none;fill-rule:evenodd;stroke:#0000FF;stroke-width:2.0px;stroke-linecap:butt;stroke-linejoin:miter;stroke-opacity:1"/>
<path class="bond-45 atom-45 atom-46" d="M 331.9,76.6 L 327.1,75.6" style="fill:none;fill-rule:evenodd;stroke:#000000;stroke-width:2.0px;stroke-linecap:butt;stroke-linejoin:miter;stroke-opacity:1"/>
<path class="bond-46 atom-46 atom-47" d="M 326.4,73.5 L 323.1,77.2" style="fill:none;fill-rule:evenodd;stroke:#000000;stroke-width:2.0px;stroke-linecap:butt;stroke-linejoin:miter;stroke-opacity:1"/>
<path class="bond-46 atom-46 atom-47" d="M 323.1,77.2 L 319.8,80.8" style="fill:none;fill-rule:evenodd;stroke:#0000FF;stroke-width:2.0px;stroke-linecap:butt;stroke-linejoin:miter;stroke-opacity:1"/>
<path class="bond-47 atom-47 atom-48" d="M 318.6,85.7 L 320.2,90.5" style="fill:none;fill-rule:evenodd;stroke:#0000FF;stroke-width:2.0px;stroke-linecap:butt;stroke-linejoin:miter;stroke-opacity:1"/>
<path class="bond-47 atom-47 atom-48" d="M 320.2,90.5 L 321.7,95.4" style="fill:none;fill-rule:evenodd;stroke:#000000;stroke-width:2.0px;stroke-linecap:butt;stroke-linejoin:miter;stroke-opacity:1"/>
<path class="bond-47 atom-47 atom-48" d="M 320.4,85.1 L 321.8,89.4" style="fill:none;fill-rule:evenodd;stroke:#0000FF;stroke-width:2.0px;stroke-linecap:butt;stroke-linejoin:miter;stroke-opacity:1"/>
<path class="bond-47 atom-47 atom-48" d="M 321.8,89.4 L 323.2,93.7" style="fill:none;fill-rule:evenodd;stroke:#000000;stroke-width:2.0px;stroke-linecap:butt;stroke-linejoin:miter;stroke-opacity:1"/>
<path class="bond-48 atom-38 atom-49" d="M 302.4,108.0 L 295.9,119.2" style="fill:none;fill-rule:evenodd;stroke:#000000;stroke-width:2.0px;stroke-linecap:butt;stroke-linejoin:miter;stroke-opacity:1"/>
<path class="bond-49 atom-49 atom-50" d="M 295.9,119.2 L 298.0,123.8" style="fill:none;fill-rule:evenodd;stroke:#000000;stroke-width:2.0px;stroke-linecap:butt;stroke-linejoin:miter;stroke-opacity:1"/>
<path class="bond-49 atom-49 atom-50" d="M 298.0,123.8 L 300.0,128.4" style="fill:none;fill-rule:evenodd;stroke:#FF0000;stroke-width:2.0px;stroke-linecap:butt;stroke-linejoin:miter;stroke-opacity:1"/>
<path class="bond-50 atom-49 atom-51" d="M 295.9,119.2 L 283.3,116.5" style="fill:none;fill-rule:evenodd;stroke:#000000;stroke-width:2.0px;stroke-linecap:butt;stroke-linejoin:miter;stroke-opacity:1"/>
<path class="bond-51 atom-51 atom-52" d="M 283.3,116.5 L 279.7,119.7" style="fill:none;fill-rule:evenodd;stroke:#000000;stroke-width:2.0px;stroke-linecap:butt;stroke-linejoin:miter;stroke-opacity:1"/>
<path class="bond-51 atom-51 atom-52" d="M 279.7,119.7 L 276.0,123.0" style="fill:none;fill-rule:evenodd;stroke:#FF0000;stroke-width:2.0px;stroke-linecap:butt;stroke-linejoin:miter;stroke-opacity:1"/>
<path class="bond-52 atom-52 atom-53" d="M 271.3,124.3 L 267.2,123.0" style="fill:none;fill-rule:evenodd;stroke:#FF0000;stroke-width:2.0px;stroke-linecap:butt;stroke-linejoin:miter;stroke-opacity:1"/>
<path class="bond-52 atom-52 atom-53" d="M 267.2,123.0 L 263.1,121.7" style="fill:none;fill-rule:evenodd;stroke:#FF7F00;stroke-width:2.0px;stroke-linecap:butt;stroke-linejoin:miter;stroke-opacity:1"/>
<path class="bond-53 atom-53 atom-54" d="M 259.6,123.4 L 258.4,127.0" style="fill:none;fill-rule:evenodd;stroke:#FF7F00;stroke-width:2.0px;stroke-linecap:butt;stroke-linejoin:miter;stroke-opacity:1"/>
<path class="bond-53 atom-53 atom-54" d="M 258.4,127.0 L 257.3,130.5" style="fill:none;fill-rule:evenodd;stroke:#FF0000;stroke-width:2.0px;stroke-linecap:butt;stroke-linejoin:miter;stroke-opacity:1"/>
<path class="bond-53 atom-53 atom-54" d="M 261.5,124.0 L 260.3,127.6" style="fill:none;fill-rule:evenodd;stroke:#FF7F00;stroke-width:2.0px;stroke-linecap:butt;stroke-linejoin:miter;stroke-opacity:1"/>
<path class="bond-53 atom-53 atom-54" d="M 260.3,127.6 L 259.1,131.1" style="fill:none;fill-rule:evenodd;stroke:#FF0000;stroke-width:2.0px;stroke-linecap:butt;stroke-linejoin:miter;stroke-opacity:1"/>
<path class="bond-54 atom-53 atom-55" d="M 262.2,118.6 L 263.3,115.0" style="fill:none;fill-rule:evenodd;stroke:#FF7F00;stroke-width:2.0px;stroke-linecap:butt;stroke-linejoin:miter;stroke-opacity:1"/>
<path class="bond-54 atom-53 atom-55" d="M 263.3,115.0 L 264.5,111.5" style="fill:none;fill-rule:evenodd;stroke:#FF0000;stroke-width:2.0px;stroke-linecap:butt;stroke-linejoin:miter;stroke-opacity:1"/>
<path class="bond-55 atom-53 atom-56" d="M 259.6,120.5 L 255.5,119.2" style="fill:none;fill-rule:evenodd;stroke:#FF7F00;stroke-width:2.0px;stroke-linecap:butt;stroke-linejoin:miter;stroke-opacity:1"/>
<path class="bond-55 atom-53 atom-56" d="M 255.5,119.2 L 251.4,117.9" style="fill:none;fill-rule:evenodd;stroke:#FF0000;stroke-width:2.0px;stroke-linecap:butt;stroke-linejoin:miter;stroke-opacity:1"/>
<path class="bond-56 atom-4 atom-57" d="M 57.9,103.5 L 46.7,110.0" style="fill:none;fill-rule:evenodd;stroke:#000000;stroke-width:2.0px;stroke-linecap:butt;stroke-linejoin:miter;stroke-opacity:1"/>
<path class="bond-56 atom-4 atom-57" d="M 56.0,102.4 L 46.7,107.8" style="fill:none;fill-rule:evenodd;stroke:#000000;stroke-width:2.0px;stroke-linecap:butt;stroke-linejoin:miter;stroke-opacity:1"/>
<path class="bond-57 atom-57 atom-58" d="M 46.7,110.0 L 46.7,115.2" style="fill:none;fill-rule:evenodd;stroke:#000000;stroke-width:2.0px;stroke-linecap:butt;stroke-linejoin:miter;stroke-opacity:1"/>
<path class="bond-57 atom-57 atom-58" d="M 46.7,115.2 L 46.7,120.4" style="fill:none;fill-rule:evenodd;stroke:#FF0000;stroke-width:2.0px;stroke-linecap:butt;stroke-linejoin:miter;stroke-opacity:1"/>
<path class="bond-58 atom-57 atom-59" d="M 46.7,110.0 L 35.5,103.5" style="fill:none;fill-rule:evenodd;stroke:#000000;stroke-width:2.0px;stroke-linecap:butt;stroke-linejoin:miter;stroke-opacity:1"/>
<path class="bond-59 atom-59 atom-60" d="M 35.5,103.5 L 35.5,90.6" style="fill:none;fill-rule:evenodd;stroke:#000000;stroke-width:2.0px;stroke-linecap:butt;stroke-linejoin:miter;stroke-opacity:1"/>
<path class="bond-59 atom-59 atom-60" d="M 37.4,102.4 L 37.4,91.7" style="fill:none;fill-rule:evenodd;stroke:#000000;stroke-width:2.0px;stroke-linecap:butt;stroke-linejoin:miter;stroke-opacity:1"/>
<path class="bond-60 atom-60 atom-61" d="M 35.5,90.6 L 31.1,88.1" style="fill:none;fill-rule:evenodd;stroke:#000000;stroke-width:2.0px;stroke-linecap:butt;stroke-linejoin:miter;stroke-opacity:1"/>
<path class="bond-60 atom-60 atom-61" d="M 31.1,88.1 L 26.7,85.5" style="fill:none;fill-rule:evenodd;stroke:#FF0000;stroke-width:2.0px;stroke-linecap:butt;stroke-linejoin:miter;stroke-opacity:1"/>
<path class="bond-61 atom-60 atom-2" d="M 35.5,90.6 L 46.7,84.1" style="fill:none;fill-rule:evenodd;stroke:#000000;stroke-width:2.0px;stroke-linecap:butt;stroke-linejoin:miter;stroke-opacity:1"/>
<path class="bond-62 atom-51 atom-36" d="M 283.3,116.5 L 281.9,103.6" style="fill:none;fill-rule:evenodd;stroke:#000000;stroke-width:2.0px;stroke-linecap:butt;stroke-linejoin:miter;stroke-opacity:1"/>
<path class="bond-63 atom-48 atom-39" d="M 321.7,95.4 L 319.2,99.7" style="fill:none;fill-rule:evenodd;stroke:#000000;stroke-width:2.0px;stroke-linecap:butt;stroke-linejoin:miter;stroke-opacity:1"/>
<path class="bond-63 atom-48 atom-39" d="M 319.2,99.7 L 316.7,104.1" style="fill:none;fill-rule:evenodd;stroke:#0000FF;stroke-width:2.0px;stroke-linecap:butt;stroke-linejoin:miter;stroke-opacity:1"/>
<path class="bond-64 atom-48 atom-42" d="M 321.7,95.4 L 334.4,98.1" style="fill:none;fill-rule:evenodd;stroke:#000000;stroke-width:2.0px;stroke-linecap:butt;stroke-linejoin:miter;stroke-opacity:1"/>
<path d="M 57.3,90.3 L 57.9,90.6 L 57.9,91.3" style="fill:none;stroke:#000000;stroke-width:2.0px;stroke-linecap:butt;stroke-linejoin:miter;stroke-opacity:1;"/>
<path d="M 68.5,109.7 L 69.1,110.0 L 69.7,109.7" style="fill:none;stroke:#000000;stroke-width:2.0px;stroke-linecap:butt;stroke-linejoin:miter;stroke-opacity:1;"/>
<path d="M 79.7,103.9 L 80.3,103.5 L 80.9,103.9" style="fill:none;stroke:#000000;stroke-width:2.0px;stroke-linecap:butt;stroke-linejoin:miter;stroke-opacity:1;"/>
<path d="M 90.9,109.7 L 91.5,110.0 L 91.7,109.9" style="fill:none;stroke:#000000;stroke-width:2.0px;stroke-linecap:butt;stroke-linejoin:miter;stroke-opacity:1;"/>
<path d="M 113.7,109.9 L 113.9,110.0 L 114.5,109.7" style="fill:none;stroke:#000000;stroke-width:2.0px;stroke-linecap:butt;stroke-linejoin:miter;stroke-opacity:1;"/>
<path d="M 124.5,103.9 L 125.1,103.6 L 125.3,103.7" style="fill:none;stroke:#000000;stroke-width:2.0px;stroke-linecap:butt;stroke-linejoin:miter;stroke-opacity:1;"/>
<path d="M 147.3,103.7 L 147.5,103.6 L 148.1,103.9" style="fill:none;stroke:#000000;stroke-width:2.0px;stroke-linecap:butt;stroke-linejoin:miter;stroke-opacity:1;"/>
<path d="M 158.1,109.7 L 158.7,110.0 L 159.3,109.7" style="fill:none;stroke:#000000;stroke-width:2.0px;stroke-linecap:butt;stroke-linejoin:miter;stroke-opacity:1;"/>
<path d="M 169.4,103.9 L 169.9,103.6 L 170.1,103.7" style="fill:none;stroke:#000000;stroke-width:2.0px;stroke-linecap:butt;stroke-linejoin:miter;stroke-opacity:1;"/>
<path d="M 192.1,103.7 L 192.3,103.6 L 192.9,103.9" style="fill:none;stroke:#000000;stroke-width:2.0px;stroke-linecap:butt;stroke-linejoin:miter;stroke-opacity:1;"/>
<path d="M 225.4,97.4 L 225.9,97.1 L 225.9,96.9" style="fill:none;stroke:#000000;stroke-width:2.0px;stroke-linecap:butt;stroke-linejoin:miter;stroke-opacity:1;"/>
<path d="M 270.7,96.9 L 270.7,97.1 L 271.3,97.5" style="fill:none;stroke:#000000;stroke-width:2.0px;stroke-linecap:butt;stroke-linejoin:miter;stroke-opacity:1;"/>
<path d="M 323.8,116.0 L 323.9,116.2 L 324.2,116.1" style="fill:none;stroke:#000000;stroke-width:2.0px;stroke-linecap:butt;stroke-linejoin:miter;stroke-opacity:1;"/>
<path d="M 326.7,73.6 L 326.4,73.5 L 326.2,73.7" style="fill:none;stroke:#000000;stroke-width:2.0px;stroke-linecap:butt;stroke-linejoin:miter;stroke-opacity:1;"/>
<path d="M 36.0,103.9 L 35.5,103.5 L 35.5,102.9" style="fill:none;stroke:#000000;stroke-width:2.0px;stroke-linecap:butt;stroke-linejoin:miter;stroke-opacity:1;"/>
<path class="atom-1" d="M 44.7 71.2 Q 44.7 70.2, 45.3 69.6 Q 45.8 69.1, 46.7 69.1 Q 47.6 69.1, 48.1 69.6 Q 48.6 70.2, 48.6 71.2 Q 48.6 72.2, 48.1 72.8 Q 47.6 73.4, 46.7 73.4 Q 45.8 73.4, 45.3 72.8 Q 44.7 72.3, 44.7 71.2 M 46.7 72.9 Q 47.3 72.9, 47.7 72.5 Q 48.0 72.1, 48.0 71.2 Q 48.0 70.4, 47.7 70.0 Q 47.3 69.5, 46.7 69.5 Q 46.0 69.5, 45.7 70.0 Q 45.3 70.4, 45.3 71.2 Q 45.3 72.1, 45.7 72.5 Q 46.0 72.9, 46.7 72.9 " fill="#FF0000"/>
<path class="atom-8" d="M 89.5 123.0 Q 89.5 121.9, 90.0 121.4 Q 90.5 120.8, 91.5 120.8 Q 92.4 120.8, 92.9 121.4 Q 93.4 121.9, 93.4 123.0 Q 93.4 124.0, 92.9 124.6 Q 92.4 125.2, 91.5 125.2 Q 90.6 125.2, 90.0 124.6 Q 89.5 124.0, 89.5 123.0 M 91.5 124.7 Q 92.1 124.7, 92.5 124.3 Q 92.8 123.8, 92.8 123.0 Q 92.8 122.1, 92.5 121.7 Q 92.1 121.3, 91.5 121.3 Q 90.8 121.3, 90.5 121.7 Q 90.1 122.1, 90.1 123.0 Q 90.1 123.8, 90.5 124.3 Q 90.8 124.7, 91.5 124.7 " fill="#FF0000"/>
<path class="atom-9" d="M 101.5 105.0 Q 101.5 105.0, 101.7 105.1 Q 101.9 105.2, 102.2 105.3 Q 102.4 105.3, 102.6 105.3 Q 103.0 105.3, 103.2 105.1 Q 103.5 104.9, 103.5 104.6 Q 103.5 104.3, 103.3 104.2 Q 103.2 104.0, 103.1 104.0 Q 102.9 103.9, 102.6 103.8 Q 102.2 103.7, 102.0 103.6 Q 101.7 103.5, 101.6 103.2 Q 101.4 103.0, 101.4 102.6 Q 101.4 102.1, 101.8 101.8 Q 102.2 101.4, 102.9 101.4 Q 103.4 101.4, 103.9 101.7 L 103.8 102.1 Q 103.3 101.9, 102.9 101.9 Q 102.5 101.9, 102.2 102.1 Q 102.0 102.3, 102.0 102.6 Q 102.0 102.8, 102.1 102.9 Q 102.3 103.1, 102.4 103.1 Q 102.6 103.2, 102.9 103.3 Q 103.3 103.4, 103.5 103.5 Q 103.7 103.7, 103.9 103.9 Q 104.1 104.2, 104.1 104.6 Q 104.1 105.2, 103.7 105.5 Q 103.3 105.8, 102.6 105.8 Q 102.2 105.8, 102.0 105.7 Q 101.7 105.6, 101.3 105.5 L 101.5 105.0 " fill="#CCCC00"/>
<path class="atom-12" d="M 135.4 107.9 L 136.8 110.2 Q 136.9 110.4, 137.1 110.8 Q 137.3 111.2, 137.3 111.2 L 137.3 107.9 L 137.9 107.9 L 137.9 112.2 L 137.3 112.2 L 135.8 109.7 Q 135.7 109.4, 135.5 109.1 Q 135.3 108.7, 135.2 108.6 L 135.2 112.2 L 134.7 112.2 L 134.7 107.9 L 135.4 107.9 " fill="#0000FF"/>
<path class="atom-12" d="M 134.6 112.6 L 135.2 112.6 L 135.2 114.4 L 137.4 114.4 L 137.4 112.6 L 138.0 112.6 L 138.0 116.8 L 137.4 116.8 L 137.4 114.9 L 135.2 114.9 L 135.2 116.8 L 134.6 116.8 L 134.6 112.6 " fill="#0000FF"/>
<path class="atom-14" d="M 145.6 90.6 Q 145.6 89.6, 146.1 89.1 Q 146.6 88.5, 147.5 88.5 Q 148.5 88.5, 149.0 89.1 Q 149.5 89.6, 149.5 90.6 Q 149.5 91.7, 148.9 92.3 Q 148.4 92.8, 147.5 92.8 Q 146.6 92.8, 146.1 92.3 Q 145.6 91.7, 145.6 90.6 M 147.5 92.4 Q 148.2 92.4, 148.5 91.9 Q 148.9 91.5, 148.9 90.6 Q 148.9 89.8, 148.5 89.4 Q 148.2 89.0, 147.5 89.0 Q 146.9 89.0, 146.5 89.4 Q 146.2 89.8, 146.2 90.6 Q 146.2 91.5, 146.5 91.9 Q 146.9 92.4, 147.5 92.4 " fill="#FF0000"/>
<path class="atom-17" d="M 180.2 107.9 L 181.6 110.2 Q 181.7 110.4, 181.9 110.8 Q 182.1 111.2, 182.2 111.2 L 182.2 107.9 L 182.7 107.9 L 182.7 112.2 L 182.1 112.2 L 180.6 109.7 Q 180.5 109.4, 180.3 109.1 Q 180.1 108.8, 180.1 108.7 L 180.1 112.2 L 179.5 112.2 L 179.5 107.9 L 180.2 107.9 " fill="#0000FF"/>
<path class="atom-17" d="M 179.4 112.6 L 180.0 112.6 L 180.0 114.4 L 182.2 114.4 L 182.2 112.6 L 182.8 112.6 L 182.8 116.8 L 182.2 116.8 L 182.2 114.9 L 180.0 114.9 L 180.0 116.8 L 179.4 116.8 L 179.4 112.6 " fill="#0000FF"/>
<path class="atom-19" d="M 190.4 90.7 Q 190.4 89.6, 190.9 89.1 Q 191.4 88.5, 192.3 88.5 Q 193.3 88.5, 193.8 89.1 Q 194.3 89.6, 194.3 90.7 Q 194.3 91.7, 193.8 92.3 Q 193.2 92.9, 192.3 92.9 Q 191.4 92.9, 190.9 92.3 Q 190.4 91.7, 190.4 90.7 M 192.3 92.4 Q 193.0 92.4, 193.3 91.9 Q 193.7 91.5, 193.7 90.7 Q 193.7 89.8, 193.3 89.4 Q 193.0 89.0, 192.3 89.0 Q 191.7 89.0, 191.3 89.4 Q 191.0 89.8, 191.0 90.7 Q 191.0 91.5, 191.3 91.9 Q 191.7 92.4, 192.3 92.4 " fill="#FF0000"/>
<path class="atom-21" d="M 201.6 123.0 Q 201.6 122.0, 202.1 121.4 Q 202.6 120.8, 203.5 120.8 Q 204.5 120.8, 205.0 121.4 Q 205.5 122.0, 205.5 123.0 Q 205.5 124.0, 205.0 124.6 Q 204.4 125.2, 203.5 125.2 Q 202.6 125.2, 202.1 124.6 Q 201.6 124.0, 201.6 123.0 M 203.5 124.7 Q 204.2 124.7, 204.5 124.3 Q 204.9 123.8, 204.9 123.0 Q 204.9 122.2, 204.5 121.7 Q 204.2 121.3, 203.5 121.3 Q 202.9 121.3, 202.5 121.7 Q 202.2 122.2, 202.2 123.0 Q 202.2 123.9, 202.5 124.3 Q 202.9 124.7, 203.5 124.7 " fill="#FF0000"/>
<path class="atom-21" d="M 206.1 120.9 L 206.7 120.9 L 206.7 122.7 L 208.9 122.7 L 208.9 120.9 L 209.4 120.9 L 209.4 125.1 L 208.9 125.1 L 208.9 123.2 L 206.7 123.2 L 206.7 125.1 L 206.1 125.1 L 206.1 120.9 " fill="#FF0000"/>
<path class="atom-26" d="M 224.0 84.2 Q 224.0 83.2, 224.5 82.6 Q 225.0 82.0, 225.9 82.0 Q 226.9 82.0, 227.4 82.6 Q 227.9 83.2, 227.9 84.2 Q 227.9 85.2, 227.4 85.8 Q 226.9 86.4, 225.9 86.4 Q 225.0 86.4, 224.5 85.8 Q 224.0 85.2, 224.0 84.2 M 225.9 85.9 Q 226.6 85.9, 226.9 85.5 Q 227.3 85.0, 227.3 84.2 Q 227.3 83.4, 226.9 82.9 Q 226.6 82.5, 225.9 82.5 Q 225.3 82.5, 224.9 82.9 Q 224.6 83.4, 224.6 84.2 Q 224.6 85.1, 224.9 85.5 Q 225.3 85.9, 225.9 85.9 " fill="#FF0000"/>
<path class="atom-27" d="M 237.0 75.6 Q 237.8 75.6, 238.1 75.9 Q 238.5 76.2, 238.5 76.8 Q 238.5 77.4, 238.1 77.8 Q 237.7 78.1, 237.0 78.1 L 236.3 78.1 L 236.3 79.8 L 235.8 79.8 L 235.8 75.6 L 237.0 75.6 M 237.0 77.6 Q 237.4 77.6, 237.7 77.4 Q 237.9 77.2, 237.9 76.8 Q 237.9 76.5, 237.7 76.3 Q 237.4 76.1, 237.0 76.1 L 236.3 76.1 L 236.3 77.6 L 237.0 77.6 " fill="#FF7F00"/>
<path class="atom-28" d="M 228.7 66.5 Q 228.7 65.5, 229.2 64.9 Q 229.7 64.4, 230.7 64.4 Q 231.6 64.4, 232.1 64.9 Q 232.6 65.5, 232.6 66.5 Q 232.6 67.6, 232.1 68.1 Q 231.6 68.7, 230.7 68.7 Q 229.7 68.7, 229.2 68.1 Q 228.7 67.6, 228.7 66.5 M 230.7 68.2 Q 231.3 68.2, 231.7 67.8 Q 232.0 67.4, 232.0 66.5 Q 232.0 65.7, 231.7 65.3 Q 231.3 64.8, 230.7 64.8 Q 230.0 64.8, 229.7 65.3 Q 229.3 65.7, 229.3 66.5 Q 229.3 67.4, 229.7 67.8 Q 230.0 68.2, 230.7 68.2 " fill="#FF0000"/>
<path class="atom-29" d="M 241.6 88.9 Q 241.6 87.9, 242.1 87.3 Q 242.7 86.8, 243.6 86.8 Q 244.5 86.8, 245.0 87.3 Q 245.5 87.9, 245.5 88.9 Q 245.5 90.0, 245.0 90.6 Q 244.5 91.1, 243.6 91.1 Q 242.7 91.1, 242.1 90.6 Q 241.6 90.0, 241.6 88.9 M 243.6 90.7 Q 244.2 90.7, 244.6 90.2 Q 244.9 89.8, 244.9 88.9 Q 244.9 88.1, 244.6 87.7 Q 244.2 87.3, 243.6 87.3 Q 242.9 87.3, 242.6 87.7 Q 242.2 88.1, 242.2 88.9 Q 242.2 89.8, 242.6 90.2 Q 242.9 90.7, 243.6 90.7 " fill="#FF0000"/>
<path class="atom-29" d="M 246.2 86.8 L 246.8 86.8 L 246.8 88.6 L 249.0 88.6 L 249.0 86.8 L 249.5 86.8 L 249.5 91.1 L 249.0 91.1 L 249.0 89.1 L 246.8 89.1 L 246.8 91.1 L 246.2 91.1 L 246.2 86.8 " fill="#FF0000"/>
<path class="atom-30" d="M 246.4 71.3 Q 246.4 70.2, 246.9 69.7 Q 247.4 69.1, 248.3 69.1 Q 249.3 69.1, 249.8 69.7 Q 250.3 70.2, 250.3 71.3 Q 250.3 72.3, 249.8 72.9 Q 249.3 73.5, 248.3 73.5 Q 247.4 73.5, 246.9 72.9 Q 246.4 72.3, 246.4 71.3 M 248.3 73.0 Q 249.0 73.0, 249.3 72.6 Q 249.7 72.1, 249.7 71.3 Q 249.7 70.4, 249.3 70.0 Q 249.0 69.6, 248.3 69.6 Q 247.7 69.6, 247.3 70.0 Q 247.0 70.4, 247.0 71.3 Q 247.0 72.1, 247.3 72.6 Q 247.7 73.0, 248.3 73.0 " fill="#FF0000"/>
<path class="atom-31" d="M 259.4 75.6 Q 260.2 75.6, 260.5 75.9 Q 260.9 76.3, 260.9 76.8 Q 260.9 77.4, 260.5 77.8 Q 260.1 78.1, 259.4 78.1 L 258.8 78.1 L 258.8 79.8 L 258.2 79.8 L 258.2 75.6 L 259.4 75.6 M 259.4 77.6 Q 259.8 77.6, 260.1 77.4 Q 260.3 77.2, 260.3 76.8 Q 260.3 76.5, 260.1 76.3 Q 259.9 76.1, 259.4 76.1 L 258.8 76.1 L 258.8 77.6 L 259.4 77.6 " fill="#FF7F00"/>
<path class="atom-32" d="M 251.1 88.9 Q 251.1 87.9, 251.6 87.3 Q 252.1 86.8, 253.1 86.8 Q 254.0 86.8, 254.5 87.3 Q 255.0 87.9, 255.0 88.9 Q 255.0 90.0, 254.5 90.6 Q 254.0 91.1, 253.1 91.1 Q 252.1 91.1, 251.6 90.6 Q 251.1 90.0, 251.1 88.9 M 253.1 90.7 Q 253.7 90.7, 254.1 90.2 Q 254.4 89.8, 254.4 88.9 Q 254.4 88.1, 254.1 87.7 Q 253.7 87.3, 253.1 87.3 Q 252.4 87.3, 252.1 87.7 Q 251.7 88.1, 251.7 88.9 Q 251.7 89.8, 252.1 90.2 Q 252.4 90.7, 253.1 90.7 " fill="#FF0000"/>
<path class="atom-33" d="M 264.1 66.5 Q 264.1 65.5, 264.6 64.9 Q 265.1 64.4, 266.0 64.4 Q 266.9 64.4, 267.4 64.9 Q 268.0 65.5, 268.0 66.5 Q 268.0 67.6, 267.4 68.2 Q 266.9 68.7, 266.0 68.7 Q 265.1 68.7, 264.6 68.2 Q 264.1 67.6, 264.1 66.5 M 266.0 68.3 Q 266.7 68.3, 267.0 67.8 Q 267.4 67.4, 267.4 66.5 Q 267.4 65.7, 267.0 65.3 Q 266.7 64.9, 266.0 64.9 Q 265.4 64.9, 265.0 65.3 Q 264.7 65.7, 264.7 66.5 Q 264.7 67.4, 265.0 67.8 Q 265.4 68.3, 266.0 68.3 " fill="#FF0000"/>
<path class="atom-33" d="M 268.6 64.4 L 269.2 64.4 L 269.2 66.2 L 271.4 66.2 L 271.4 64.4 L 271.9 64.4 L 271.9 68.7 L 271.4 68.7 L 271.4 66.7 L 269.2 66.7 L 269.2 68.7 L 268.6 68.7 L 268.6 64.4 " fill="#FF0000"/>
<path class="atom-34" d="M 268.8 84.2 Q 268.8 83.2, 269.3 82.6 Q 269.8 82.0, 270.7 82.0 Q 271.7 82.0, 272.2 82.6 Q 272.7 83.2, 272.7 84.2 Q 272.7 85.2, 272.2 85.8 Q 271.7 86.4, 270.7 86.4 Q 269.8 86.4, 269.3 85.8 Q 268.8 85.2, 268.8 84.2 M 270.7 85.9 Q 271.4 85.9, 271.7 85.5 Q 272.1 85.1, 272.1 84.2 Q 272.1 83.4, 271.7 83.0 Q 271.4 82.5, 270.7 82.5 Q 270.1 82.5, 269.7 82.9 Q 269.4 83.4, 269.4 84.2 Q 269.4 85.1, 269.7 85.5 Q 270.1 85.9, 270.7 85.9 " fill="#FF0000"/>
<path class="atom-37" d="M 291.8 98.4 Q 291.8 97.3, 292.3 96.8 Q 292.8 96.2, 293.7 96.2 Q 294.7 96.2, 295.2 96.8 Q 295.7 97.3, 295.7 98.4 Q 295.7 99.4, 295.2 100.0 Q 294.7 100.6, 293.7 100.6 Q 292.8 100.6, 292.3 100.0 Q 291.8 99.4, 291.8 98.4 M 293.7 100.1 Q 294.4 100.1, 294.7 99.6 Q 295.1 99.2, 295.1 98.4 Q 295.1 97.5, 294.7 97.1 Q 294.4 96.7, 293.7 96.7 Q 293.1 96.7, 292.7 97.1 Q 292.4 97.5, 292.4 98.4 Q 292.4 99.2, 292.7 99.6 Q 293.1 100.1, 293.7 100.1 " fill="#FF0000"/>
<path class="atom-39" d="M 314.3 104.5 L 315.7 106.7 Q 315.9 107.0, 316.1 107.4 Q 316.3 107.8, 316.3 107.8 L 316.3 104.5 L 316.9 104.5 L 316.9 108.7 L 316.3 108.7 L 314.8 106.3 Q 314.6 106.0, 314.4 105.7 Q 314.3 105.3, 314.2 105.2 L 314.2 108.7 L 313.7 108.7 L 313.7 104.5 L 314.3 104.5 " fill="#0000FF"/>
<path class="atom-41" d="M 334.8 108.8 L 336.2 111.1 Q 336.3 111.3, 336.5 111.7 Q 336.8 112.1, 336.8 112.1 L 336.8 108.8 L 337.3 108.8 L 337.3 113.1 L 336.8 113.1 L 335.3 110.6 Q 335.1 110.3, 334.9 110.0 Q 334.7 109.7, 334.7 109.6 L 334.7 113.1 L 334.1 113.1 L 334.1 108.8 L 334.8 108.8 " fill="#0000FF"/>
<path class="atom-44" d="M 354.8 89.1 L 356.1 91.3 Q 356.3 91.5, 356.5 91.9 Q 356.7 92.3, 356.7 92.4 L 356.7 89.1 L 357.3 89.1 L 357.3 93.3 L 356.7 93.3 L 355.2 90.8 Q 355.1 90.6, 354.9 90.2 Q 354.7 89.9, 354.6 89.8 L 354.6 93.3 L 354.1 93.3 L 354.1 89.1 L 354.8 89.1 " fill="#0000FF"/>
<path class="atom-44" d="M 358.1 89.1 L 358.7 89.1 L 358.7 90.9 L 360.9 90.9 L 360.9 89.1 L 361.4 89.1 L 361.4 93.3 L 360.9 93.3 L 360.9 91.3 L 358.7 91.3 L 358.7 93.3 L 358.1 93.3 L 358.1 89.1 " fill="#0000FF"/>
<path class="atom-44" d="M 362.3 93.2 Q 362.4 92.9, 362.6 92.7 Q 362.9 92.6, 363.2 92.6 Q 363.6 92.6, 363.9 92.8 Q 364.1 93.1, 364.1 93.5 Q 364.1 93.9, 363.8 94.3 Q 363.5 94.7, 362.9 95.1 L 364.2 95.1 L 364.2 95.4 L 362.3 95.4 L 362.3 95.2 Q 362.8 94.8, 363.1 94.5 Q 363.4 94.2, 363.6 94.0 Q 363.7 93.7, 363.7 93.5 Q 363.7 93.2, 363.6 93.1 Q 363.4 92.9, 363.2 92.9 Q 363.0 92.9, 362.8 93.0 Q 362.7 93.1, 362.6 93.3 L 362.3 93.2 " fill="#0000FF"/>
<path class="atom-45" d="M 338.1 74.1 L 339.5 76.3 Q 339.6 76.5, 339.9 76.9 Q 340.1 77.3, 340.1 77.4 L 340.1 74.1 L 340.7 74.1 L 340.7 78.3 L 340.1 78.3 L 338.6 75.9 Q 338.4 75.6, 338.2 75.2 Q 338.0 74.9, 338.0 74.8 L 338.0 78.3 L 337.4 78.3 L 337.4 74.1 L 338.1 74.1 " fill="#0000FF"/>
<path class="atom-47" d="M 316.8 81.0 L 318.2 83.2 Q 318.3 83.5, 318.6 83.9 Q 318.8 84.3, 318.8 84.3 L 318.8 81.0 L 319.4 81.0 L 319.4 85.2 L 318.8 85.2 L 317.3 82.8 Q 317.1 82.5, 316.9 82.2 Q 316.7 81.8, 316.7 81.7 L 316.7 85.2 L 316.1 85.2 L 316.1 81.0 L 316.8 81.0 " fill="#0000FF"/>
<path class="atom-50" d="M 299.2 131.0 Q 299.2 130.0, 299.7 129.4 Q 300.2 128.8, 301.2 128.8 Q 302.1 128.8, 302.6 129.4 Q 303.1 130.0, 303.1 131.0 Q 303.1 132.0, 302.6 132.6 Q 302.1 133.2, 301.2 133.2 Q 300.3 133.2, 299.7 132.6 Q 299.2 132.0, 299.2 131.0 M 301.2 132.7 Q 301.8 132.7, 302.2 132.3 Q 302.5 131.8, 302.5 131.0 Q 302.5 130.2, 302.2 129.7 Q 301.8 129.3, 301.2 129.3 Q 300.5 129.3, 300.2 129.7 Q 299.8 130.1, 299.8 131.0 Q 299.8 131.8, 300.2 132.3 Q 300.5 132.7, 301.2 132.7 " fill="#FF0000"/>
<path class="atom-50" d="M 303.8 128.9 L 304.4 128.9 L 304.4 130.7 L 306.5 130.7 L 306.5 128.9 L 307.1 128.9 L 307.1 133.1 L 306.5 133.1 L 306.5 131.2 L 304.4 131.2 L 304.4 133.1 L 303.8 133.1 L 303.8 128.9 " fill="#FF0000"/>
<path class="atom-52" d="M 271.7 125.1 Q 271.7 124.1, 272.2 123.5 Q 272.7 123.0, 273.7 123.0 Q 274.6 123.0, 275.1 123.5 Q 275.6 124.1, 275.6 125.1 Q 275.6 126.2, 275.1 126.7 Q 274.6 127.3, 273.7 127.3 Q 272.7 127.3, 272.2 126.7 Q 271.7 126.2, 271.7 125.1 M 273.7 126.9 Q 274.3 126.9, 274.7 126.4 Q 275.0 126.0, 275.0 125.1 Q 275.0 124.3, 274.7 123.9 Q 274.3 123.4, 273.7 123.4 Q 273.0 123.4, 272.7 123.9 Q 272.3 124.3, 272.3 125.1 Q 272.3 126.0, 272.7 126.4 Q 273.0 126.9, 273.7 126.9 " fill="#FF0000"/>
<path class="atom-53" d="M 261.3 119.0 Q 262.0 119.0, 262.4 119.3 Q 262.7 119.6, 262.7 120.2 Q 262.7 120.8, 262.3 121.2 Q 262.0 121.5, 261.3 121.5 L 260.6 121.5 L 260.6 123.2 L 260.0 123.2 L 260.0 119.0 L 261.3 119.0 M 261.3 121.0 Q 261.7 121.0, 261.9 120.8 Q 262.1 120.6, 262.1 120.2 Q 262.1 119.9, 261.9 119.7 Q 261.7 119.5, 261.3 119.5 L 260.6 119.5 L 260.6 121.0 L 261.3 121.0 " fill="#FF7F00"/>
<path class="atom-54" d="M 255.4 133.4 Q 255.4 132.4, 255.9 131.8 Q 256.4 131.3, 257.4 131.3 Q 258.3 131.3, 258.8 131.8 Q 259.3 132.4, 259.3 133.4 Q 259.3 134.5, 258.8 135.1 Q 258.3 135.6, 257.4 135.6 Q 256.4 135.6, 255.9 135.1 Q 255.4 134.5, 255.4 133.4 M 257.4 135.2 Q 258.0 135.2, 258.4 134.7 Q 258.7 134.3, 258.7 133.4 Q 258.7 132.6, 258.4 132.2 Q 258.0 131.8, 257.4 131.8 Q 256.7 131.8, 256.4 132.2 Q 256.0 132.6, 256.0 133.4 Q 256.0 134.3, 256.4 134.7 Q 256.7 135.2, 257.4 135.2 " fill="#FF0000"/>
<path class="atom-55" d="M 263.4 108.8 Q 263.4 107.8, 263.9 107.2 Q 264.4 106.7, 265.4 106.7 Q 266.3 106.7, 266.8 107.2 Q 267.3 107.8, 267.3 108.8 Q 267.3 109.9, 266.8 110.4 Q 266.3 111.0, 265.4 111.0 Q 264.4 111.0, 263.9 110.4 Q 263.4 109.9, 263.4 108.8 M 265.4 110.6 Q 266.0 110.6, 266.4 110.1 Q 266.7 109.7, 266.7 108.8 Q 266.7 108.0, 266.4 107.6 Q 266.0 107.1, 265.4 107.1 Q 264.7 107.1, 264.4 107.6 Q 264.0 108.0, 264.0 108.8 Q 264.0 109.7, 264.4 110.1 Q 264.7 110.6, 265.4 110.6 " fill="#FF0000"/>
<path class="atom-55" d="M 268.0 106.7 L 268.6 106.7 L 268.6 108.5 L 270.7 108.5 L 270.7 106.7 L 271.3 106.7 L 271.3 111.0 L 270.7 111.0 L 270.7 109.0 L 268.6 109.0 L 268.6 111.0 L 268.0 111.0 L 268.0 106.7 " fill="#FF0000"/>
<path class="atom-56" d="M 242.9 115.0 L 243.5 115.0 L 243.5 116.8 L 245.7 116.8 L 245.7 115.0 L 246.2 115.0 L 246.2 119.3 L 245.7 119.3 L 245.7 117.3 L 243.5 117.3 L 243.5 119.3 L 242.9 119.3 L 242.9 115.0 " fill="#FF0000"/>
<path class="atom-56" d="M 247.1 117.1 Q 247.1 116.1, 247.6 115.5 Q 248.1 115.0, 249.1 115.0 Q 250.0 115.0, 250.5 115.5 Q 251.0 116.1, 251.0 117.1 Q 251.0 118.2, 250.5 118.7 Q 250.0 119.3, 249.1 119.3 Q 248.1 119.3, 247.6 118.7 Q 247.1 118.2, 247.1 117.1 M 249.1 118.9 Q 249.7 118.9, 250.1 118.4 Q 250.4 118.0, 250.4 117.1 Q 250.4 116.3, 250.1 115.9 Q 249.7 115.4, 249.1 115.4 Q 248.4 115.4, 248.1 115.9 Q 247.7 116.3, 247.7 117.1 Q 247.7 118.0, 248.1 118.4 Q 248.4 118.9, 249.1 118.9 " fill="#FF0000"/>
<path class="atom-58" d="M 44.7 123.0 Q 44.7 121.9, 45.2 121.4 Q 45.7 120.8, 46.7 120.8 Q 47.6 120.8, 48.1 121.4 Q 48.6 121.9, 48.6 123.0 Q 48.6 124.0, 48.1 124.6 Q 47.6 125.2, 46.7 125.2 Q 45.7 125.2, 45.2 124.6 Q 44.7 124.0, 44.7 123.0 M 46.7 124.7 Q 47.3 124.7, 47.7 124.2 Q 48.0 123.8, 48.0 123.0 Q 48.0 122.1, 47.7 121.7 Q 47.3 121.3, 46.7 121.3 Q 46.0 121.3, 45.7 121.7 Q 45.3 122.1, 45.3 123.0 Q 45.3 123.8, 45.7 124.2 Q 46.0 124.7, 46.7 124.7 " fill="#FF0000"/>
<path class="atom-58" d="M 49.3 120.8 L 49.9 120.8 L 49.9 122.6 L 52.0 122.6 L 52.0 120.8 L 52.6 120.8 L 52.6 125.1 L 52.0 125.1 L 52.0 123.1 L 49.9 123.1 L 49.9 125.1 L 49.3 125.1 L 49.3 120.8 " fill="#FF0000"/>
<path class="atom-61" d="M 18.1 82.0 L 18.7 82.0 L 18.7 83.8 L 20.9 83.8 L 20.9 82.0 L 21.5 82.0 L 21.5 86.3 L 20.9 86.3 L 20.9 84.3 L 18.7 84.3 L 18.7 86.3 L 18.1 86.3 L 18.1 82.0 " fill="#FF0000"/>
<path class="atom-61" d="M 22.3 84.1 Q 22.3 83.1, 22.8 82.6 Q 23.3 82.0, 24.3 82.0 Q 25.2 82.0, 25.7 82.6 Q 26.2 83.1, 26.2 84.1 Q 26.2 85.2, 25.7 85.8 Q 25.2 86.3, 24.3 86.3 Q 23.4 86.3, 22.8 85.8 Q 22.3 85.2, 22.3 84.1 M 24.3 85.9 Q 24.9 85.9, 25.3 85.4 Q 25.6 85.0, 25.6 84.1 Q 25.6 83.3, 25.3 82.9 Q 24.9 82.5, 24.3 82.5 Q 23.6 82.5, 23.3 82.9 Q 22.9 83.3, 22.9 84.1 Q 22.9 85.0, 23.3 85.4 Q 23.6 85.9, 24.3 85.9 " fill="#FF0000"/>
</svg>
